<?xml version="1.0" encoding="UTF-8" standalone="yes"?>
<svg version="1.0" xmlns="http://www.w3.org/2000/svg" width="1024.000000pt" height="1024.000000pt" viewBox="0 0 1024.000000 1024.000000" preserveAspectRatio="xMidYMid meet">
  <metadata>
Created by potrace 1.16, written by Peter Selinger 2001-2019
</metadata>
  <g transform="translate(0.000000,1024.000000) scale(0.100000,-0.100000)" fill="#000000" stroke="none">
    <path d="M2900 9699 c-239 -40 -478 -186 -613 -375 -56 -78 -92 -158 -111&#xA;-246 l-6 -27 -54 24 c-162 71 -372 54 -524 -44 -134 -86 -242 -261 -242 -393&#xA;l0 -48 -38 0 c-98 0 -226 -55 -307 -131 -69 -66 -98 -126 -103 -215 -3 -60 0&#xA;-78 21 -120 30 -59 92 -118 150 -143 100 -42 186 -56 362 -55 186 0 272 10&#xA;442 54 l113 29 54 -25 c229 -105 677 -125 951 -43 99 30 218 94 261 141 l36&#xA;40 75 -17 c172 -41 491 12 501 83 5 33 -17 55 -47 48 -14 -3 -69 -14 -121 -25&#xA;-152 -33 -280 -26 -436 24 -16 5 -26 -2 -48 -33 -99 -143 -394 -225 -731 -202&#xA;-179 12 -291 37 -417 91 l-67 29 -88 -25 c-243 -71 -542 -91 -696 -47 -97 28&#xA;-124 41 -165 83 -65 66 -65 140 -1 228 22 31 49 52 97 74 65 31 71 32 204 32&#xA;75 0 140 4 144 8 4 4 0 32 -10 62 -27 78 -18 164 24 244 78 146 242 231 422&#xA;218 91 -6 153 -32 264 -108 67 -46 77 -51 99 -41 33 15 33 61 1 109 l-24 35&#xA;20 71 c38 140 113 244 249 346 150 114 311 171 479 172 100 1 195 -18 260 -51&#xA;61 -31 135 -105 171 -172 34 -62 34 -64 34 -192 0 -111 2 -130 17 -140 14 -8&#xA;24 -7 45 7 120 78 270 87 407 24 123 -56 164 -122 180 -282 10 -100 13 -110&#xA;31 -110 27 0 52 54 61 128 19 161 -96 320 -276 381 -76 25 -200 31 -277 13&#xA;l-62 -14 -6 46 c-19 158 -56 240 -149 330 -135 129 -342 185 -556 150z"/>
    <path d="M7739 9619 c-102 -8 -193 -41 -291 -106 -134 -88 -236 -246 -246&#xA;-382 -4 -68 -5 -69 -26 -56 -67 42 -240 58 -341 31 -141 -37 -261 -133 -318&#xA;-253 -29 -62 -32 -78 -34 -172 l-2 -104 -34 -12 c-64 -22 -107 -57 -137 -109&#xA;-72 -125 -35 -251 87 -304 50 -21 172 -46 283 -58 124 -12 741 -20 1630 -19&#xA;822 0 903 2 990 19 212 40 303 121 287 257 -11 93 -73 171 -178 224 -58 30&#xA;-162 55 -229 55 l-46 0 -11 79 c-16 105 -45 164 -118 236 -84 84 -186 129&#xA;-314 138 -86 7 -225 -29 -311 -80 -3 -2 -5 39 -5 90 -1 202 -101 365 -281 459&#xA;-112 59 -213 78 -355 67z m163 -120 c127 -27 254 -114 313 -215 56 -96 68&#xA;-232 30 -361 -28 -99 -22 -133 23 -133 21 0 38 12 65 45 27 31 62 57 124 87&#xA;86 43 87 43 197 43 106 0 115 -2 178 -33 159 -78 218 -202 169 -352 -29 -87&#xA;-2 -112 76 -70 46 25 146 27 219 5 142 -42 224 -162 163 -239 -28 -36 -76 -54&#xA;-194 -73 -85 -14 -214 -17 -875 -19 -1270 -3 -1767 12 -1919 56 -103 29 -121&#xA;145 -32 206 28 19 49 24 96 24 89 0 104 23 64 100 -18 34 -21 53 -17 113 8&#xA;125 74 225 185 284 168 89 379 58 458 -67 31 -49 58 -65 85 -50 24 13 25 35 4&#xA;108 -24 83 -14 187 26 268 38 77 144 188 216 227 101 53 230 70 346 46z"/>
    <path d="M5460 9445 c-269 -49 -651 -290 -943 -595 -228 -237 -433 -551 -560&#xA;-856 -146 -347 -204 -727 -162 -1059 8 -66 15 -120 15 -121 0 -1 -39 -4 -87&#xA;-7 -49 -3 -128 -15 -176 -26 -48 -12 -89 -21 -91 -21 -2 0 -38 51 -79 113&#xA;-218 327 -558 531 -990 592 -187 27 -317 17 -548 -41 -218 -55 -354 -119 -533&#xA;-252 -247 -184 -411 -384 -560 -680 -155 -309 -205 -595 -131 -746 96 -192&#xA;331 -236 645 -119 236 88 455 241 741 521 l156 152 96 0 c52 0 128 -6 169 -14&#xA;73 -14 188 -53 188 -63 0 -3 -33 -46 -74 -97 -215 -265 -376 -598 -435 -901&#xA;-43 -218 -50 -445 -20 -637 l10 -67 -58 -69 c-132 -157 -185 -291 -187 -467&#xA;-1 -117 8 -153 52 -214 22 -30 74 -61 102 -61 5 0 19 9 30 20 20 20 20 20 26&#xA;-8 23 -92 133 -236 244 -317 61 -44 156 -92 236 -119 l66 -22 -25 -30 c-80&#xA;-96 -125 -221 -113 -318 14 -110 101 -208 214 -243 31 -9 72 -30 90 -45 45&#xA;-38 92 -56 167 -64 54 -6 70 -3 119 19 47 22 61 24 87 15 101 -35 341 85 480&#xA;239 49 56 113 168 124 221 l7 32 88 0 88 0 -26 -63 c-22 -51 -26 -78 -27 -157&#xA;0 -87 3 -100 29 -148 47 -84 123 -131 217 -132 32 0 51 -6 63 -19 54 -59 188&#xA;-79 294 -42 42 15 60 16 91 8 34 -9 52 -7 122 17 145 47 654 311 838 435 104&#xA;69 252 208 312 292 75 107 90 119 148 119 51 0 51 0 51 -32 0 -77 84 -190 167&#xA;-224 19 -8 65 -17 101 -20 37 -3 85 -13 107 -21 58 -22 159 -20 226 6 44 17&#xA;62 19 83 11 15 -5 44 -10 64 -10 51 1 281 62 557 149 127 40 271 82 320 95&#xA;l90 23 6 -72 c11 -129 81 -219 191 -245 99 -24 194 4 279 82 l47 43 17 -57&#xA;c23 -76 80 -156 136 -191 34 -21 63 -29 116 -34 l71 -6 11 -76 c16 -110 31&#xA;-311 31 -426 l0 -100 -30 58 c-72 143 -195 265 -336 333 -102 50 -156 63 -179&#xA;44 -23 -19 -19 -31 35 -113 98 -147 156 -315 200 -577 12 -68 23 -126 24 -128&#xA;2 -1 14 6 27 17 22 17 24 28 27 115 2 53 -1 126 -8 163 -14 80 -64 240 -96&#xA;307 -13 27 -22 51 -20 53 2 2 31 -19 64 -46 77 -64 143 -150 187 -243 36 -75&#xA;85 -248 85 -299 0 -32 37 -63 64 -53 9 3 24 34 35 68 54 175 164 395 263 527&#xA;71 94 211 229 308 298 85 60 190 116 190 102 0 -6 -4 -13 -10 -16 -15 -9 -163&#xA;-252 -207 -340 -98 -195 -193 -474 -193 -568 0 -36 21 -67 44 -67 7 0 33 24&#xA;57 52 126 151 249 263 353 323 43 25 49 27 41 10 -83 -197 -110 -385 -55 -385&#xA;25 0 31 12 85 167 24 71 65 173 89 228 40 88 44 102 32 120 -20 31 -66 30&#xA;-145 -4 -89 -38 -202 -114 -288 -194 -37 -34 -63 -53 -59 -42 4 11 14 40 23&#xA;65 21 64 92 225 126 290 17 30 81 134 143 231 63 97 114 185 114 196 0 156&#xA;-409 -43 -647 -315 -83 -96 -136 -170 -199 -280 l-41 -72 -7 212 c-4 117 -13&#xA;256 -21 308 -13 94 -13 95 8 110 67 46 101 110 112 212 l6 56 65 -30 c115 -54&#xA;224 -30 290 64 40 57 53 153 31 234 -9 36 -31 85 -47 110 -28 40 -29 45 -13&#xA;51 67 24 120 46 131 55 7 6 3 -9 -8 -33 -24 -53 -26 -112 -4 -130 24 -20 41&#xA;-3 92 91 66 124 140 224 238 320 68 67 82 78 69 51 -60 -120 -156 -481 -158&#xA;-600 -2 -57 0 -64 20 -72 19 -7 33 0 84 46 34 30 65 55 69 55 5 0 -3 -29 -17&#xA;-65 -14 -36 -22 -72 -19 -80 8 -22 40 -18 63 8 26 27 82 138 98 192 27 91 -35&#xA;113 -139 50 -32 -19 -56 -29 -53 -21 3 8 22 74 42 147 49 178 77 253 142 382&#xA;59 120 64 161 18 173 -52 13 -212 -106 -358 -267 l-67 -74 0 55 c0 30 -7 74&#xA;-15 98 -15 43 -62 122 -74 122 -3 1 -21 14 -39 29 -39 34 -41 28 46 158 52 79&#xA;224 257 273 284 l22 11 -21 -29 c-35 -49 -128 -242 -166 -345 -37 -100 -46&#xA;-171 -25 -209 10 -20 11 -20 28 3 10 13 42 79 70 147 85 202 178 376 255 477&#xA;37 48 45 81 24 102 -18 18 -52 15 -112 -12 -177 -79 -430 -330 -490 -488 l-17&#xA;-44 -99 0 -98 1 19 37 c27 54 49 144 49 205 0 51 1 53 38 72 52 27 100 83 114&#xA;134 10 39 16 45 77 74 124 60 208 155 251 283 31 93 26 217 -13 283 -15 25&#xA;-37 53 -48 61 l-21 14 32 66 c140 294 10 597 -263 614 -48 2 -86 -1 -113 -10&#xA;l-42 -15 -11 36 c-16 56 -60 116 -104 144 -73 48 -193 49 -293 3 -62 -29 -171&#xA;-132 -214 -204 -14 -23 -28 -42 -31 -42 -3 0 -13 17 -23 38 -26 54 -150 236&#xA;-216 317 -206 251 -553 511 -856 640 -440 188 -896 233 -1357 135 -233 -50&#xA;-516 -165 -725 -294 -100 -62 -229 -180 -257 -236 -10 -19 -19 -36 -20 -38 -1&#xA;-1 -33 12 -71 29 -38 18 -92 40 -121 49 l-52 16 93 104 c52 58 168 178 259&#xA;267 628 616 908 1067 1016 1633 7 36 15 124 18 195 7 155 -11 265 -58 362 -94&#xA;195 -320 286 -589 238z m230 -147 c120 -17 194 -79 242 -203 20 -51 23 -78 23&#xA;-185 0 -173 -17 -289 -65 -446 -45 -146 -65 -196 -130 -323 -154 -302 -363&#xA;-570 -760 -976 -265 -271 -348 -372 -410 -498 -47 -96 -59 -162 -36 -192 16&#xA;-20 17 -19 46 14 l29 34 92 -32 c114 -40 189 -77 294 -146 238 -155 411 -335&#xA;613 -642 l74 -111 61 -7 c146 -17 278 -84 335 -170 32 -48 37 -69 26 -99 -5&#xA;-14 -9 -14 -42 0 -74 32 -134 45 -190 42 -55 -3 -57 -4 -57 -32 0 -26 5 -30&#xA;65 -50 89 -29 149 -66 203 -126 56 -62 104 -157 88 -173 -6 -6 -11 -21 -11&#xA;-34 l0 -23 -56 30 c-94 50 -169 34 -149 -31 13 -39 7 -253 -9 -327 -18 -89&#xA;-87 -236 -156 -336 -67 -97 -223 -247 -330 -318 -203 -134 -334 -179 -671&#xA;-233 -263 -41 -526 -179 -722 -378 l-107 -109 -135 1 c-136 1 -262 18 -456 61&#xA;-52 11 -204 34 -339 50 -287 35 -376 52 -485 92 -116 42 -203 97 -277 176&#xA;-100 106 -138 203 -138 353 0 38 -5 71 -11 75 -27 16 -118 -117 -120 -175 0&#xA;-15 -4 -35 -9 -46 -7 -17 -11 -13 -30 29 -20 43 -22 61 -18 155 3 78 11 121&#xA;27 163 29 76 104 188 176 266 l59 63 -13 132 c-15 162 -16 367 -1 467 61 421&#xA;283 838 616 1160 140 135 347 268 514 329 163 59 354 101 462 101 56 0 57 0&#xA;80 -42 26 -47 55 -60 75 -32 18 24 17 61 -8 254 -27 210 -23 475 10 645 115&#xA;607 522 1206 1076 1584 168 115 326 187 471 215 81 16 98 16 184 4z m-3260&#xA;-1983 c364 -56 649 -238 854 -545 l36 -55 -42 -19 c-110 -50 -227 -110 -270&#xA;-138 l-48 -30 -52 45 c-29 24 -78 60 -108 79 -53 34 -225 108 -250 108 -6 0 5&#xA;19 25 42 19 23 38 53 42 66 8 32 -26 67 -59 59 -26 -7 -249 -231 -445 -447&#xA;-328 -363 -592 -577 -868 -702 -113 -51 -196 -71 -295 -72 -70 -1 -93 3 -127&#xA;21 -94 51 -127 144 -98 284 56 282 250 648 457 865 94 98 240 215 345 276 245&#xA;143 607 209 903 163z m4374 -329 c234 -50 394 -105 588 -202 249 -125 491&#xA;-312 655 -506 382 -451 526 -1059 396 -1675 l-15 -71 -36 40 c-20 22 -59 51&#xA;-86 66 -43 22 -65 26 -136 26 -130 1 -199 -27 -264 -107 -26 -32 -31 -48 -34&#xA;-107 -4 -69 15 -151 44 -195 8 -11 14 -22 14 -26 0 -4 -28 -7 -62 -7 -176 0&#xA;-293 -118 -293 -292 0 -88 21 -136 83 -192 44 -40 132 -77 204 -85 l48 -6 -33&#xA;-36 c-17 -20 -41 -52 -51 -72 -18 -34 -22 -36 -95 -46 -69 -9 -242 -58 -626&#xA;-179 -238 -74 -336 -94 -365 -75 -11 7 -15 28 -15 68 1 78 52 184 133 278 64&#xA;74 70 86 49 103 -20 17 -105 -27 -150 -77 -45 -50 -95 -128 -122 -191 -14 -31&#xA;-20 -67 -20 -122 l0 -77 -47 -12 c-57 -13 -120 -4 -143 21 -70 77 -35 227 95&#xA;406 33 45 60 85 60 88 0 3 -13 6 -28 6 -64 0 -163 -103 -229 -238 -35 -70 -38&#xA;-82 -38 -163 l0 -87 -34 14 c-60 25 -79 50 -92 119 -18 98 41 251 138 355 125&#xA;135 323 227 532 245 49 5 147 -1 297 -16 151 -15 228 -19 235 -12 25 25 -7 44&#xA;-157 92 -184 60 -276 101 -375 168 -297 202 -441 562 -384 958 37 254 121 433&#xA;272 576 159 151 328 219 546 219 128 0 222 -17 377 -70 124 -43 147 -41 120 8&#xA;-33 59 -196 144 -341 178 -179 42 -397 15 -564 -68 -196 -99 -341 -247 -443&#xA;-454 -65 -131 -111 -307 -112 -421 0 -35 -4 -63 -8 -63 -5 0 -17 19 -28 42&#xA;-10 23 -33 59 -51 80 l-32 38 25 25 c25 26 27 31 24 110 -3 100 -97 223 -213&#xA;280 -78 38 -164 65 -212 65 -28 0 -35 8 -83 93 -143 251 -345 471 -584 634&#xA;l-86 59 27 29 c126 140 485 327 791 414 238 67 349 81 605 77 172 -3 218 -7&#xA;329 -30z m-4189 -377 c55 -27 137 -69 181 -93 l81 -44 -55 -49 c-31 -26 -69&#xA;-58 -84 -71 l-27 -23 -44 25 c-68 40 -153 66 -257 78 -52 5 -101 12 -108 14&#xA;-8 2 13 34 56 82 38 43 79 93 92 110 28 38 28 38 165 -29z m6266 -482 c46 -31&#xA;66 -78 76 -178 10 -103 22 -109 101 -49 90 67 163 74 248 25 42 -25 68 -56 92&#xA;-110 18 -40 16 -156 -3 -229 -17 -65 -92 -210 -161 -313 -24 -36 -41 -69 -38&#xA;-74 16 -26 103 8 161 63 35 34 46 31 70 -15 59 -114 -29 -311 -175 -390 -49&#xA;-27 -168 -57 -223 -57 -16 0 -29 -2 -29 -4 0 -2 -3 -11 -6 -20 -7 -18 49 -56&#xA;84 -56 12 0 22 -2 22 -5 0 -18 -38 -60 -64 -70 -28 -12 -33 -11 -65 17 -59 52&#xA;-136 81 -227 86 -52 3 -89 0 -103 -8 -13 -6 -25 -9 -27 -7 -3 3 0 34 7 68 15&#xA;83 15 400 0 509 -24 169 -53 306 -92 423 l-39 120 26 48 c37 67 127 173 170&#xA;200 85 52 144 60 195 26z m-2543 -1445 c51 -199 197 -414 374 -550 l47 -35&#xA;-87 -23 c-178 -45 -325 -126 -442 -243 -70 -71 -140 -178 -166 -254 -15 -44&#xA;-18 -47 -51 -47 -29 0 -34 3 -28 18 57 148 74 409 31 468 -21 28 -43 3 -51&#xA;-59 -28 -210 -108 -430 -214 -585 -54 -79 -199 -217 -301 -284 -169 -112 -747&#xA;-414 -812 -425 -33 -5 -38 -3 -43 19 -9 33 19 147 51 211 15 28 51 87 80 129&#xA;30 43 54 84 54 92 0 49 -95 -3 -165 -91 -86 -109 -143 -254 -133 -339 4 -33 4&#xA;-33 -58 -50 -145 -39 -214 28 -186 179 14 73 95 241 152 316 24 31 35 51 25&#xA;47 -9 -3 -25 -6 -36 -6 -46 0 -163 -145 -218 -271 -12 -25 -26 -81 -32 -123&#xA;-6 -42 -16 -76 -21 -76 -24 0 -86 44 -104 73 -40 67 -12 210 67 344 45 75 166&#xA;197 255 255 194 128 397 200 644 228 186 21 421 112 607 236 107 71 292 253&#xA;355 349 62 94 114 199 144 293 22 64 27 103 31 230 4 118 8 150 18 142 15 -13&#xA;103 -2 132 16 12 7 25 24 29 36 6 17 11 3 20 -57 6 -44 21 -117 32 -163z&#xA;m2503 -79 c70 -36 99 -79 99 -147 0 -88 -55 -180 -197 -330 l-73 -76 -37 26&#xA;c-20 13 -56 29 -79 35 -38 10 -42 14 -47 47 -13 110 8 242 53 332 66 130 166&#xA;170 281 113z m-608 -65 c87 -26 158 -142 177 -288 6 -47 14 -95 16 -106 5 -19&#xA;0 -23 -38 -29 -24 -4 -65 -18 -91 -32 l-48 -24 -45 38 c-121 99 -201 219 -211&#xA;317 -5 45 -2 56 18 79 44 51 139 70 222 45z m-145 -480 c80 -40 101 -55 96&#xA;-67 -21 -49 -32 -127 -25 -168 7 -37 6 -46 -8 -51 -9 -4 -88 -7 -176 -7 -158&#xA;0 -161 0 -209 29 -110 65 -111 210 0 282 91 60 177 55 322 -18z m1082 51 c130&#xA;-28 191 -180 109 -274 -47 -53 -127 -80 -239 -80 -52 0 -127 6 -166 13 l-72&#xA;13 -4 53 c-3 31 -16 75 -32 107 l-28 53 28 23 c109 86 264 122 404 92z m-596&#xA;-123 c53 -31 90 -73 106 -122 24 -72 -25 -161 -108 -194 -49 -19 -140 -8 -203&#xA;26 -149 81 -142 266 11 313 56 17 144 6 194 -23z m-320 -332 c21 -25 58 -55&#xA;82 -67 24 -11 44 -25 44 -29 0 -33 -120 -227 -182 -294 -65 -70 -113 -98 -175&#xA;-98 -90 -1 -145 61 -147 163 -1 123 105 262 257 335 39 20 74 36 77 36 3 0 23&#xA;-21 44 -46z m734 -32 c115 -56 181 -174 150 -267 -15 -45 -66 -85 -107 -85&#xA;-77 1 -175 90 -272 247 l-57 91 29 28 c16 15 31 35 34 45 5 16 12 15 88 -8 45&#xA;-13 106 -36 135 -51z m-358 -120 c22 -26 57 -78 77 -117 35 -65 38 -76 38&#xA;-155 0 -74 -3 -91 -27 -131 -32 -55 -76 -79 -143 -79 -56 0 -96 19 -128 62&#xA;-55 74 -62 166 -22 326 34 142 32 139 104 140 60 1 61 0 101 -46z m-5730 -286&#xA;c74 -8 167 -18 205 -22 73 -6 203 -29 365 -62 52 -11 112 -23 133 -27 33 -5&#xA;37 -9 31 -28 -34 -112 -189 -263 -345 -337 -79 -37 -102 -38 -129 -2 -18 23&#xA;-21 35 -16 78 3 27 15 77 27 110 12 32 25 76 29 97 7 35 6 37 -14 31 -31 -10&#xA;-52 -26 -85 -68 -45 -56 -63 -122 -59 -215 l3 -80 -29 -5 c-127 -26 -226 42&#xA;-226 154 0 51 42 182 76 232 55 84 9 78 -76 -9 -73 -77 -100 -135 -100 -220 0&#xA;-29 -4 -53 -10 -53 -19 0 -78 69 -90 106 -7 20 -10 58 -8 85 10 96 117 266&#xA;162 255 12 -3 82 -12 156 -20z"/>
    <path d="M5680 8973 c-28 -11 -165 -106 -256 -179 -476 -378 -847 -942 -1024&#xA;-1557 -64 -223 -124 -601 -106 -671 5 -19 13 -26 30 -26 29 0 28 -2 111 332&#xA;125 508 245 785 520 1199 182 274 374 497 652 759 116 109 146 151 106 149&#xA;-10 0 -25 -3 -33 -6z"/>
    <path d="M3187 6296 c-194 -80 -359 -247 -426 -429 -20 -56 -26 -91 -26 -158&#xA;0 -77 3 -90 28 -128 49 -74 125 -90 214 -45 71 36 300 279 521 552 60 75 57&#xA;95 -9 61 -142 -71 -227 -145 -382 -331 -53 -64 -115 -132 -138 -152 -120 -102&#xA;-162 29 -70 218 34 69 59 104 129 175 48 48 124 116 169 150 72 54 103 85 103&#xA;105 0 14 -59 4 -113 -18z"/>
    <path d="M4117 5899 c-97 -23 -181 -96 -175 -152 4 -41 26 -45 76 -13 22 14&#xA;65 32 96 41 92 27 207 1 368 -82 56 -29 71 -33 83 -23 25 21 17 49 -30 99 -98&#xA;105 -282 162 -418 130z"/>
    <path d="M2640 5331 c-108 -34 -182 -99 -228 -201 -29 -62 -35 -147 -13 -174&#xA;19 -23 35 -8 78 81 47 97 116 160 239 219 52 25 94 51 94 57 0 40 -77 48 -170&#xA;18z"/>
    <path d="M4759 5058 c-9 -7 -24 -34 -33 -61 -10 -26 -38 -75 -64 -108 -192&#xA;-256 -483 -208 -547 89 -8 41 -32 52 -52 26 -11 -14 -14 -38 -10 -95 9 -139&#xA;89 -252 213 -299 172 -65 406 40 519 234 22 37 29 65 33 122 6 93 -16 127 -59&#xA;92z"/>
    <path d="M2992 4643 c-5 -10 -14 -40 -21 -67 -28 -113 -87 -193 -176 -237 -53&#xA;-26 -71 -30 -102 -24 -93 17 -169 86 -198 179 -20 63 -29 73 -50 56 -23 -19&#xA;-19 -125 6 -180 67 -149 245 -217 390 -149 126 59 201 172 207 309 4 81 -8&#xA;130 -32 130 -9 0 -19 -8 -24 -17z"/>
    <path d="M3506 4474 c-95 -21 -186 -67 -250 -125 -68 -62 -90 -114 -84 -197&#xA;11 -158 133 -252 326 -252 33 0 42 -4 42 -17 0 -31 47 -120 86 -163 l38 -42&#xA;-34 -29 c-19 -16 -50 -34 -69 -40 -41 -14 -130 -5 -205 21 -45 15 -57 16 -66&#xA;5 -15 -18 28 -67 89 -103 40 -24 56 -27 131 -27 100 0 136 15 180 76 16 22 30&#xA;45 32 51 3 8 20 6 53 -5 180 -62 405 76 405 247 0 92 -57 101 -86 14 -32 -97&#xA;-133 -168 -240 -168 -88 0 -199 87 -223 177 -9 32 -8 39 7 47 38 20 121 118&#xA;158 188 36 68 39 78 39 158 0 106 -14 136 -79 169 -61 32 -151 37 -250 15z&#xA;m213 -118 c50 -45 6 -174 -92 -275 -59 -60 -99 -75 -184 -68 -52 4 -72 11&#xA;-101 34 -169 135 -3 338 269 330 69 -2 91 -6 108 -21z"/>
    <path d="M7489 7607 c-36 -13 -87 -38 -112 -55 -70 -49 -135 -150 -152 -238&#xA;-5 -26 -13 -33 -61 -49 -85 -29 -132 -85 -87 -102 9 -4 55 3 102 15 47 13 94&#xA;22 103 22 22 0 27 10 32 59 10 100 106 213 210 245 79 25 184 19 251 -14 93&#xA;-47 149 -119 170 -220 10 -52 13 -55 42 -58 27 -3 34 2 47 26 38 74 165 152&#xA;247 152 103 0 199 -56 228 -133 17 -44 13 -122 -9 -184 -24 -69 -25 -87 -5&#xA;-103 13 -11 30 -6 100 30 77 39 91 43 157 43 210 0 284 -183 143 -351 -29 -34&#xA;-32 -54 -10 -72 40 -34 140 49 170 141 51 152 -9 292 -155 365 -46 23 -68 28&#xA;-135 28 -44 1 -92 -2 -106 -6 -26 -8 -26 -8 -31 61 -12 161 -136 278 -308 289&#xA;-90 5 -179 -21 -250 -73 l-46 -34 -24 45 c-30 59 -96 116 -179 156 -58 29 -76&#xA;33 -165 36 -86 2 -111 -1 -167 -21z"/>
    <path d="M1666 5464 c-20 -20 -20 -35 4 -207 31 -227 40 -338 46 -572 l6 -220&#xA;-42 74 c-101 182 -287 383 -458 497 -195 130 -362 173 -362 93 0 -10 35 -56&#xA;78 -101 159 -169 266 -360 368 -661 l33 -98 -92 87 c-200 188 -375 296 -609&#xA;374 -99 33 -159 38 -182 14 -28 -27 -18 -50 55 -120 97 -94 243 -263 294 -343&#xA;45 -70 115 -204 115 -220 0 -6 -20 3 -45 20 -150 101 -395 165 -425 110 -5&#xA;-11 -10 -22 -10 -24 0 -2 36 -48 79 -102 44 -53 109 -148 146 -210 67 -114 82&#xA;-130 111 -118 40 15 -7 146 -101 286 -53 79 -50 79 70 19 87 -43 136 -77 217&#xA;-147 46 -41 70 -55 88 -53 38 4 37 48 -5 174 -64 193 -159 351 -313 521 -93&#xA;104 -91 105 67 23 183 -95 363 -245 559 -465 61 -68 74 -78 89 -69 82 51 -100&#xA;607 -291 892 -52 76 -54 81 -27 67 54 -27 176 -131 258 -219 133 -143 239&#xA;-311 302 -480 14 -38 31 -71 37 -73 14 -5 57 84 80 164 15 51 16 90 11 313 -4&#xA;140 -13 309 -21 375 -8 65 -14 121 -12 122 2 2 27 -61 56 -139 52 -141 101&#xA;-250 142 -316 17 -27 23 -31 35 -20 30 25 -3 161 -99 403 -53 133 -134 299&#xA;-165 335 -28 33 -63 39 -87 14z"/>
    <path d="M1340 3794 c-78 -34 -146 -133 -169 -246 l-12 -58 -27 26 c-15 13&#xA;-56 39 -92 57 -90 45 -194 50 -272 15 -117 -54 -168 -131 -168 -253 0 -48 7&#xA;-84 20 -113 24 -53 103 -131 159 -156 l41 -19 -70 -28 c-104 -40 -181 -104&#xA;-223 -184 -27 -51 -29 -165 -5 -210 41 -76 108 -116 208 -123 87 -6 169 15&#xA;328 85 11 4 12 -3 5 -33 -31 -149 35 -291 158 -341 l41 -16 -6 -51 c-3 -28 -6&#xA;-144 -6 -259 -1 -126 -5 -205 -11 -202 -5 4 -9 12 -9 18 -1 22 -99 171 -172&#xA;259 -161 197 -414 367 -473 318 -23 -19 -18 -43 24 -107 48 -71 149 -270 189&#xA;-373 31 -78 102 -286 102 -297 0 -3 -28 22 -62 57 -97 97 -206 165 -297 185&#xA;-36 8 -71 -14 -71 -45 0 -9 25 -57 55 -106 114 -183 196 -364 251 -547 27 -92&#xA;46 -115 70 -82 25 34 10 158 -35 288 -25 73 -111 250 -145 300 -14 20 -22 37&#xA;-17 37 20 0 176 -151 228 -220 30 -41 78 -121 105 -178 28 -56 56 -102 63&#xA;-102 65 0 23 242 -105 615 -39 113 -144 350 -179 405 -24 38 90 -62 171 -150&#xA;138 -149 282 -405 333 -590 37 -132 40 -140 70 -140 28 0 28 0 45 140 22 177&#xA;75 318 167 448 24 34 45 62 47 62 1 0 -6 -33 -16 -72 -10 -40 -30 -145 -44&#xA;-233 -26 -162 -27 -271 -3 -316 23 -44 35 -19 63 134 67 361 88 446 147 585&#xA;24 55 24 69 -1 82 -17 9 -32 6 -76 -14 -104 -48 -232 -194 -291 -333 l-24 -58&#xA;5 250 c6 278 9 305 38 305 32 0 93 37 132 81 57 62 85 133 93 227 l6 80 51&#xA;-38 c77 -59 139 -83 216 -84 116 -2 219 67 255 173 18 53 20 158 3 212 -20 68&#xA;-116 161 -192 186 l-29 9 45 27 c84 49 136 125 145 211 10 94 -31 178 -115&#xA;235 -57 39 -151 42 -231 6 -33 -15 -66 -34 -72 -41 -21 -25 -26 -15 -31 61 -7&#xA;102 -45 177 -112 223 -43 28 -56 32 -115 32 -36 -1 -82 -8 -101 -16z m154&#xA;-106 c14 -6 35 -31 47 -56 19 -39 21 -55 16 -136 -7 -106 -37 -213 -58 -207&#xA;-40 10 -139 12 -171 3 -46 -13 -48 -8 -55 113 -8 123 12 193 72 252 36 37 48&#xA;43 83 43 23 0 52 -5 66 -12z m-488 -223 c61 -30 136 -99 182 -166 l31 -46 -34&#xA;-33 c-18 -18 -44 -57 -57 -86 -28 -65 -38 -66 -160 -28 -139 44 -203 85 -238&#xA;155 -44 85 -15 173 70 217 57 30 128 25 206 -13z m945 -20 c62 -33 85 -108 54&#xA;-183 -30 -71 -104 -123 -229 -161 -88 -27 -95 -27 -106 7 -14 39 -40 84 -63&#xA;109 l-20 22 31 39 c46 58 115 118 164 143 82 42 123 47 169 24z m-471 -277&#xA;c74 -38 109 -127 79 -205 -24 -64 -109 -122 -179 -123 -44 0 -118 36 -143 71&#xA;-43 60 -37 150 15 213 56 69 145 86 228 44z m-372 -233 c7 -25 28 -63 48 -85&#xA;43 -47 51 -35 -88 -129 -47 -32 -112 -69 -145 -81 -71 -28 -190 -38 -233 -20&#xA;-45 19 -80 65 -80 106 0 110 132 199 353 239 126 23 131 22 145 -30z m717 30&#xA;c143 -30 215 -87 230 -181 13 -85 -27 -155 -107 -188 -54 -23 -87 -20 -158 16&#xA;-65 32 -163 121 -189 171 -14 25 -13 29 11 55 29 30 52 73 62 115 6 23 11 27&#xA;44 27 20 0 68 -7 107 -15z m-418 -220 l91 1 12 -79 c22 -140 -5 -240 -85 -317&#xA;-33 -32 -41 -35 -95 -35 -63 0 -95 16 -134 68 -44 60 -29 197 37 320 28 54 32&#xA;58 56 50 14 -4 67 -8 118 -8z"/>
    <path d="M7050 3020 c-90 -24 -213 -84 -295 -145 -83 -62 -235 -215 -305 -306&#xA;-161 -209 -290 -479 -344 -719 -39 -170 -43 -398 -10 -540 38 -160 169 -362&#xA;306 -468 197 -154 416 -228 703 -239 510 -19 862 181 1026 583 60 146 74 231&#xA;74 439 0 160 -3 195 -29 315 -68 323 -192 580 -382 794 -223 251 -485 352&#xA;-744 286z m281 -126 c30 -9 77 -27 104 -41 55 -28 195 -130 195 -143 0 -15&#xA;-117 -184 -145 -210 l-27 -25 -23 27 c-13 15 -49 73 -80 128 -31 56 -63 104&#xA;-70 106 -17 7 -37 -4 -173 -94 -62 -41 -114 -73 -116 -71 -9 10 -57 229 -54&#xA;246 4 22 68 58 139 77 73 20 183 20 250 0z m-427 -307 c39 -135 104 -132 290&#xA;11 33 25 61 42 63 36 12 -35 104 -184 131 -211 26 -26 41 -33 72 -33 53 0 92&#xA;36 172 156 l63 96 28 -34 c116 -136 217 -336 282 -558 30 -103 30 -112 6 -127&#xA;-18 -11 -25 -2 -88 99 -84 138 -149 208 -192 208 -54 0 -78 -18 -190 -143 -62&#xA;-69 -120 -128 -129 -132 -22 -8 -29 2 -127 188 -71 134 -85 154 -118 171 -36&#xA;17 -41 17 -80 2 -23 -9 -100 -59 -170 -110 -133 -98 -153 -110 -167 -101 -14&#xA;9 -48 107 -95 281 l-46 165 63 65 c35 36 95 90 133 119 l70 53 6 -72 c3 -39&#xA;14 -97 23 -129z m-299 -348 c31 -121 66 -204 93 -218 25 -13 72 -14 104 -2 13&#xA;5 75 46 138 92 63 45 131 93 150 106 l35 24 19 -23 c10 -13 48 -83 84 -157 95&#xA;-193 138 -229 220 -187 30 16 134 120 208 209 27 31 56 57 65 57 17 0 96 -109&#xA;173 -238 45 -74 67 -88 119 -74 30 8 37 7 42 -6 3 -9 9 -84 12 -167 l5 -150&#xA;-46 -38 -45 -38 -37 73 c-60 120 -116 211 -150 246 -25 25 -40 32 -70 32 -53&#xA;0 -89 -25 -165 -111 -97 -111 -202 -220 -222 -231 -34 -18 -58 21 -128 210&#xA;-68 184 -112 242 -182 242 -53 0 -101 -34 -218 -152 -126 -128 -187 -181 -199&#xA;-173 -14 9 -48 123 -85 285 -43 190 -49 205 -86 220 -36 15 -69 7 -110 -27&#xA;l-32 -27 7 25 c17 57 120 253 182 347 l68 103 13 -77 c7 -42 24 -121 38 -175z&#xA;m-170 -391 c57 -292 98 -378 181 -378 43 0 100 43 249 190 66 65 130 123 142&#xA;129 30 15 52 -10 88 -102 131 -337 161 -376 262 -341 38 13 111 83 274 264 92&#xA;102 93 102 163 -26 85 -155 128 -224 147 -234 24 -14 63 -12 77 2 23 23 23 -1&#xA;-2 -74 -24 -72 -77 -180 -100 -206 -10 -10 -24 5 -69 72 -32 46 -78 103 -103&#xA;126 -43 39 -49 42 -89 37 -51 -5 -84 -29 -227 -162 -53 -50 -108 -97 -123&#xA;-105 -25 -13 -27 -12 -50 16 -13 16 -52 78 -87 137 -113 195 -153 239 -212&#xA;239 -48 0 -100 -30 -206 -122 -52 -45 -107 -90 -122 -101 l-27 -20 -31 43&#xA;c-18 24 -70 118 -116 210 -67 131 -90 169 -108 174 -25 6 -91 -23 -122 -53&#xA;-16 -17 -17 -13 -11 82 3 55 13 130 22 167 16 64 20 69 87 122 38 31 73 56 77&#xA;56 5 0 21 -64 36 -142z m-62 -449 c96 -207 165 -299 225 -299 37 0 96 39 211&#xA;138 52 44 106 86 119 94 23 12 27 10 54 -22 16 -19 56 -82 90 -140 114 -196&#xA;147 -230 222 -230 42 0 87 32 224 161 59 56 118 106 130 112 26 12 25 13 93&#xA;-78 46 -61 98 -115 111 -115 15 0 -43 -61 -104 -110 l-48 -38 -48 18 c-108 41&#xA;-232 5 -342 -101 -71 -68 -92 -66 -150 12 -102 137 -208 209 -307 209 -55 0&#xA;-136 -35 -222 -98 l-43 -31 -47 31 c-163 112 -282 286 -316 460 -13 67 -12 70&#xA;8 88 54 46 73 59 79 57 5 -1 32 -54 61 -118z m555 -498 c34 -18 162 -141 162&#xA;-156 0 -15 -217 25 -334 62 l-80 25 25 20 c40 32 122 68 157 68 18 0 49 -9 70&#xA;-19z m657 -81 c3 -5 -11 -14 -32 -20 -21 -5 -59 -16 -85 -24 -56 -17 -61 -14&#xA;-15 11 70 39 121 52 132 33z"/>
    <path d="M6390 2863 c-52 -26 -197 -175 -274 -283 -83 -117 -153 -256 -167&#xA;-333 -9 -50 -8 -63 8 -94 10 -20 23 -38 29 -40 6 -2 21 29 33 70 48 162 183&#xA;370 342 528 104 104 119 128 94 153 -20 20 -22 20 -65 -1z"/>
    <path d="M5835 2797 c-140 -67 -310 -254 -354 -392 -30 -90 -34 -127 -18 -149&#xA;24 -33 51 -12 82 62 51 123 95 192 170 266 41 39 88 80 106 90 32 19 32 19 25&#xA;0 -4 -10 -17 -59 -29 -109 -26 -112 -31 -341 -8 -369 29 -35 48 14 85 229 9&#xA;50 31 150 48 223 25 100 30 137 22 150 -17 26 -72 25 -129 -1z"/>
    <path d="M2563 2490 c-84 -13 -168 -93 -193 -187 -7 -26 -14 -50 -16 -52 -2&#xA;-2 -15 6 -31 17 -110 77 -257 60 -350 -40 -63 -69 -71 -165 -22 -263 22 -45&#xA;113 -145 130 -145 5 0 9 -4 9 -10 0 -5 -13 -10 -28 -10 -52 0 -147 -31 -198&#xA;-64 -65 -44 -94 -100 -94 -187 0 -113 40 -188 123 -231 49 -25 181 -36 240&#xA;-20 20 6 37 9 37 7 0 -1 -11 -23 -25 -47 -33 -60 -65 -154 -65 -192 0 -119 86&#xA;-206 202 -206 59 0 129 27 168 65 l25 24 0 -227 c0 -182 3 -233 15 -257 18&#xA;-35 41 -42 64 -20 13 14 16 42 16 173 0 86 3 208 7 270 l6 112 28 -48 c53 -93&#xA;130 -142 221 -142 163 1 273 164 224 329 -9 30 -16 56 -16 57 0 2 19 -3 41&#xA;-11 86 -31 196 -15 255 37 54 48 77 100 76 180 -1 116 -62 202 -196 274 l-58&#xA;31 51 32 c55 36 97 83 129 146 32 64 36 105 17 174 -23 78 -75 140 -147 171&#xA;-90 39 -224 14 -308 -56 -34 -29 -35 -27 -44 51 -12 113 -56 188 -136 236 -50&#xA;30 -95 38 -157 29z m116 -129 c88 -63 104 -243 36 -408 -13 -30 -18 -33 -57&#xA;-33 -24 0 -59 -3 -78 -6 l-35 -6 -38 114 c-44 135 -53 189 -38 245 13 46 53&#xA;100 85 114 31 13 91 4 125 -20z m-430 -171 c58 -29 124 -110 176 -214 l47 -94&#xA;-46 -42 c-25 -23 -48 -50 -51 -61 -4 -10 -12 -19 -19 -19 -6 0 -50 23 -96 52&#xA;-154 94 -241 207 -227 294 7 39 38 81 72 94 36 15 105 11 144 -10z m908 -55&#xA;c41 -8 87 -55 102 -105 10 -35 9 -46 -9 -87 -27 -62 -43 -78 -120 -123 -54&#xA;-32 -174 -80 -200 -80 -4 0 -23 24 -43 53 -20 28 -52 63 -71 76 l-35 23 31 47&#xA;c49 70 107 130 155 158 50 29 121 53 143 48 8 -2 29 -6 47 -10z m-432 -351&#xA;c77 -37 104 -118 70 -201 -20 -48 -41 -71 -88 -95 -101 -51 -215 7 -248 126&#xA;-19 69 17 137 96 180 38 21 117 16 170 -10z m-394 -99 c11 -4 18 -25 23 -67 3&#xA;-34 13 -75 21 -91 8 -17 12 -34 8 -37 -20 -17 -161 -72 -216 -85 -199 -47&#xA;-326 29 -288 172 26 97 95 125 296 119 77 -2 147 -7 156 -11z m700 -59 c78&#xA;-17 172 -62 212 -102 83 -82 80 -186 -5 -230 -69 -36 -170 -8 -292 81 -108 79&#xA;-101 66 -67 120 16 26 33 61 36 79 16 76 11 74 116 52z m-535 -223 l56 -28 -6&#xA;-49 c-12 -104 -101 -279 -167 -328 -58 -44 -143 -37 -169 13 -19 34 -5 120 31&#xA;195 22 47 55 91 109 146 42 43 80 78 83 78 4 0 32 -12 63 -27z m333 -69 c72&#xA;-82 120 -178 127 -256 5 -55 3 -67 -18 -98 -13 -19 -40 -43 -61 -54 -36 -17&#xA;-41 -17 -81 -2 -97 37 -143 141 -161 364 l-6 82 38 1 c21 0 47 4 58 9 38 16&#xA;54 10 104 -46z"/>
    <path d="M3542 2478 c-21 -21 -13 -43 29 -83 122 -118 248 -378 309 -639 23&#xA;-98 25 -120 8 -91 -41 73 -178 198 -270 248 -75 40 -138 34 -138 -14 0 -9 24&#xA;-59 53 -110 72 -127 119 -240 161 -384 43 -149 44 -152 63 -159 44 -17 55 56&#xA;28 186 -15 70 -97 290 -118 316 -5 7 -8 15 -5 18 9 8 162 -160 213 -235 42&#xA;-61 53 -71 74 -69 35 4 51 41 51 119 0 152 -61 375 -154 565 -28 57 -49 104&#xA;-45 104 21 0 220 -265 303 -402 27 -45 46 -36 46 21 0 77 -30 136 -146 286&#xA;-71 92 -152 171 -244 239 -115 85 -189 113 -218 84z"/>
    <path d="M4905 2454 c-36 -12 -65 -32 -110 -78 l-61 -62 -49 26 c-68 35 -189&#xA;36 -253 2 -197 -105 -245 -341 -99 -489 34 -36 38 -43 21 -43 -38 0 -124 -52&#xA;-168 -101 -79 -87 -97 -209 -47 -307 52 -102 196 -153 339 -119 55 13 63 13&#xA;58 0 -17 -43 -17 -123 -1 -178 23 -80 107 -166 185 -189 94 -28 186 -18 261&#xA;30 l37 23 6 -62 c3 -34 7 -123 10 -197 7 -193 25 -270 61 -270 26 0 80 57 175&#xA;185 89 119 214 253 315 336 22 18 48 39 57 47 9 8 -10 -39 -43 -103 -73 -145&#xA;-112 -267 -113 -355 -1 -62 0 -65 24 -68 19 -2 41 13 90 58 36 33 88 75 115&#xA;94 57 38 175 99 175 90 0 -3 -18 -26 -39 -52 -68 -81 -100 -169 -70 -188 7 -4&#xA;53 38 112 100 55 59 122 123 148 142 52 38 64 63 42 93 -12 18 -25 21 -81 21&#xA;-112 0 -245 -52 -349 -136 -23 -19 -44 -34 -46 -34 -7 0 52 139 96 226 19 38&#xA;62 105 95 148 64 85 70 118 25 139 -20 9 -36 4 -106 -31 -162 -82 -370 -266&#xA;-505 -445 l-67 -88 -6 115 c-4 63 -13 185 -20 270 -7 86 -10 158 -8 161 3 2&#xA;39 -12 80 -33 68 -34 81 -37 159 -37 75 0 91 3 138 29 142 79 163 248 47 383&#xA;l-34 40 55 22 c74 31 146 98 174 163 18 42 21 65 17 114 -9 122 -88 215 -215&#xA;254 -75 23 -122 25 -184 6 l-46 -13 -4 76 c-3 60 -11 88 -33 129 -74 136 -222&#xA;200 -360 156z m148 -105 c52 -14 112 -71 133 -125 33 -86 2 -179 -95 -293&#xA;l-38 -45 -54 23 c-100 44 -220 15 -293 -70 l-36 -42 -62 17 c-239 67 -330 257&#xA;-187 393 42 39 77 53 135 53 54 0 92 -18 150 -72 25 -23 51 -38 61 -36 11 2&#xA;31 29 50 69 53 112 135 156 236 128z m472 -363 c73 -34 107 -75 113 -134 6&#xA;-62 -22 -118 -77 -156 -81 -57 -151 -67 -307 -44 l-82 12 -6 39 c-7 41 -42&#xA;117 -58 128 -24 15 163 145 242 170 51 15 124 9 175 -15z m-544 -188 c23 -18&#xA;51 -49 61 -68 80 -147 -136 -271 -264 -152 -51 48 -59 97 -26 162 48 94 148&#xA;119 229 58z m-380 -85 c35 -5 36 -6 38 -54 2 -55 13 -89 41 -129 l19 -27 -77&#xA;-46 c-118 -71 -146 -80 -228 -75 -117 8 -174 57 -174 151 0 31 8 56 26 83 69&#xA;101 163 127 355 97z m644 -168 c145 -42 207 -82 247 -159 15 -29 19 -52 15&#xA;-83 -6 -54 -34 -86 -94 -109 -37 -15 -52 -15 -97 -5 -103 23 -172 85 -236 212&#xA;l-29 56 52 56 c29 30 53 56 53 56 1 1 41 -10 89 -24z m-431 -101 c35 -12 67&#xA;-15 116 -11 l68 6 17 -64 c34 -123 9 -250 -62 -317 -104 -98 -302 -37 -320&#xA;100 -8 58 21 141 78 226 28 42 52 76 53 76 1 0 24 -7 50 -16z"/>
    <path d="M9060 1798 c-52 -15 -134 -74 -191 -137 -96 -106 -173 -238 -273&#xA;-466 -12 -27 -13 -21 -19 80 -13 233 -67 301 -156 198 -71 -83 -139 -239 -170&#xA;-391 -12 -59 -14 -197 -2 -225 12 -31 54 62 96 213 21 74 56 175 78 224 49&#xA;105 52 101 62 -77 6 -116 22 -277 32 -335 4 -27 10 -32 27 -30 26 4 40 32 107&#xA;213 106 288 242 512 362 597 29 21 30 21 23 2 -82 -195 -183 -589 -187 -724&#xA;-4 -123 31 -122 108 4 104 173 210 293 361 406 59 44 110 80 114 80 3 0 -9&#xA;-24 -29 -52 -42 -63 -169 -314 -207 -412 -38 -95 -60 -204 -45 -222 19 -23 43&#xA;-16 80 22 32 34 211 174 222 174 3 0 -15 -37 -40 -81 -47 -82 -63 -157 -36&#xA;-166 18 -6 76 60 157 181 79 117 98 165 76 191 -29 35 -135 3 -248 -75 -40&#xA;-27 -72 -47 -72 -45 0 17 158 314 220 414 88 141 98 175 53 192 -38 14 -85 4&#xA;-168 -37 -122 -60 -295 -205 -374 -315 l-33 -44 7 40 c11 58 90 313 136 434&#xA;41 111 47 142 27 158 -21 17 -61 21 -98 11z"/>
    <path d="M3983 1099 c-7 -7 -13 -20 -13 -28 0 -8 60 -75 133 -150 142 -145&#xA;168 -178 263 -336 42 -70 67 -101 82 -103 60 -9 23 131 -72 268 -16 25 -66 87&#xA;-109 138 -78 92 -78 93 -40 77 66 -28 194 -107 269 -166 81 -65 164 -158 243&#xA;-272 59 -85 84 -96 89 -38 3 24 -8 57 -34 110 -30 61 -58 96 -138 176 -137&#xA;137 -320 252 -491 310 -68 23 -166 31 -182 14z"/>
    <path d="M1512 1068 c-23 -23 -12 -40 83 -134 135 -134 226 -262 298 -418 20&#xA;-42 42 -76 49 -76 32 1 41 17 36 66 -11 107 -85 242 -212 387 l-68 77 51 -20&#xA;c60 -23 81 -36 176 -106 117 -87 220 -204 294 -336 30 -54 52 -74 65 -61 10&#xA;10 7 85 -5 128 -46 166 -361 434 -576 490 -69 18 -174 20 -191 3z"/>
    <path d="M3510 996 c-230 -81 -418 -240 -482 -408 -40 -106 -12 -142 47 -60&#xA;126 179 226 273 366 347 37 19 70 35 74 35 4 0 -12 -21 -35 -47 -104 -119&#xA;-180 -263 -180 -343 0 -32 4 -40 18 -40 24 0 40 19 87 105 64 118 133 211 215&#xA;288 66 63 78 79 73 98 -3 13 -10 30 -16 37 -15 19 -95 13 -167 -12z"/>
    <path d="M1178 834 c-69 -30 -61 -76 19 -103 69 -23 149 -73 229 -142 37 -32&#xA;71 -56 75 -53 5 3 9 21 9 39 0 28 -11 46 -62 101 l-63 67 51 -26 c28 -14 75&#xA;-48 105 -75 30 -27 65 -51 78 -55 22 -5 23 -4 17 31 -12 77 -98 162 -203 202&#xA;-77 29 -204 36 -255 14z"/>
  </g>
  <title>Śpiący zajączek wśród kwiatów</title>
  <desc>Zmęczony po świątecznych przygotowaniach zajączek śpi smacznie w otoczeniu wiosennych kwiatów. To spokojna i relaksująca kolorowanka.</desc>
</svg>