<?xml version="1.0" encoding="UTF-8" standalone="yes"?>
<svg version="1.0" xmlns="http://www.w3.org/2000/svg" width="1024.000000pt" height="1024.000000pt" viewBox="0 0 1024.000000 1024.000000" preserveAspectRatio="xMidYMid meet">
  <metadata>
Created by potrace 1.16, written by Peter Selinger 2001-2019
</metadata>
  <g transform="translate(0.000000,1024.000000) scale(0.100000,-0.100000)" fill="#000000" stroke="none">
    <path d="M3215 9631 c-73 -26 -116 -51 -110 -61 3 -6 0 -7 -8 -4 -8 3 -41 -24&#xA;-82 -67 -107 -114 -191 -304 -234 -534 -13 -68 -15 -97 -7 -106 8 -9 8 -10 -1&#xA;-5 -9 5 -13 -1 -13 -21 0 -46 -49 -213 -77 -266 -15 -27 -60 -88 -101 -135&#xA;-215 -251 -271 -502 -171 -763 38 -98 111 -209 178 -273 56 -51 57 -53 38 -53&#xA;-27 0 -156 -47 -230 -84 -144 -71 -249 -176 -317 -314 -89 -182 -90 -387 -2&#xA;-560 32 -64 72 -116 83 -109 5 3 6 -1 3 -9 -6 -18 83 -99 160 -146 84 -51 165&#xA;-80 299 -108 114 -23 135 -25 317 -20 165 5 216 10 335 35 149 32 319 86 398&#xA;127 26 13 47 20 47 15 0 -4 -4 -10 -9 -12 -4 -1 -29 -41 -56 -87 -164 -292&#xA;-88 -582 154 -583 83 -1 124 9 239 58 18 8 31 18 28 23 -4 5 2 7 11 5 22 -5&#xA;169 98 165 115 -1 7 1 10 6 7 4 -2 30 15 57 40 42 37 48 46 35 55 -13 9 -13&#xA;10 1 6 10 -3 26 4 37 16 34 36 93 141 87 155 -2 7 -1 11 4 8 5 -3 12 5 15 18&#xA;5 22 11 24 94 28 66 3 99 10 133 27 59 31 103 74 125 124 10 23 18 43 19 44 0&#xA;1 36 -9 78 -22 318 -98 597 -29 761 189 87 115 133 297 123 481 -7 119 -22&#xA;181 -77 306 -23 52 -43 99 -46 104 -2 6 29 20 69 33 83 26 260 109 306 143 16&#xA;12 27 27 24 32 -4 6 -1 7 6 3 7 -5 21 0 32 10 13 12 16 20 8 24 -7 5 -5 9 6&#xA;13 9 4 13 3 10 -3 -16 -26 16 -5 59 39 31 31 46 54 41 62 -5 7 -4 10 3 5 12&#xA;-7 56 53 88 119 28 59 27 202 -2 242 -37 49 -90 43 -129 -16 -46 -68 -29 -150&#xA;36 -173 16 -5 29 -13 29 -16 0 -3 -14 -30 -31 -61 -36 -65 -123 -154 -203&#xA;-207 -31 -20 -53 -41 -49 -47 3 -6 1 -7 -5 -3 -6 4 -44 -10 -83 -30 -40 -20&#xA;-113 -50 -164 -68 l-92 -33 -33 39 c-22 27 -37 37 -48 33 -9 -3 -13 -3 -9 1 9&#xA;9 -22 44 -40 44 -21 0 -15 15 17 39 17 12 28 27 24 33 -4 7 -2 8 5 4 15 -10&#xA;43 13 34 27 -3 5 -1 7 4 4 13 -8 46 27 36 38 -5 4 -2 5 5 1 25 -14 155 150&#xA;212 269 50 102 70 187 70 298 0 85 -1 88 -32 122 -22 23 -45 38 -69 41 -76 12&#xA;-131 -85 -95 -169 16 -40 40 -56 88 -60 29 -2 33 -6 30 -27 -7 -55 -35 -138&#xA;-68 -198 -19 -35 -31 -68 -28 -74 4 -6 2 -8 -4 -5 -5 4 -26 -14 -45 -40 -37&#xA;-50 -141 -154 -215 -215 l-43 -36 -92 30 c-51 17 -97 32 -103 33 -6 2 8 41 32&#xA;92 46 97 102 256 139 397 113 434 86 919 -66 1166 -31 50 -105 111 -164 136&#xA;-78 32 -217 15 -315 -38 -68 -37 -91 -58 -83 -71 3 -5 1 -7 -5 -4 -5 4 -30 -9&#xA;-54 -29 -50 -42 -59 -54 -51 -68 3 -5 1 -6 -5 -2 -14 8 -134 -134 -127 -152 3&#xA;-7 1 -11 -4 -8 -14 9 -81 -91 -75 -111 4 -14 4 -15 -4 -4 -11 15 -27 -2 -17&#xA;-19 4 -6 3 -9 -2 -8 -13 4 -84 -78 -75 -87 4 -5 2 -5 -5 -1 -6 3 -27 -7 -46&#xA;-24 -19 -16 -37 -30 -40 -30 -2 0 -14 24 -27 53 -55 130 -83 186 -93 180 -6&#xA;-3 -7 -1 -3 5 14 22 -167 307 -194 307 -5 0 -12 4 -17 9 -5 5 -3 6 5 2 70 -41&#xA;-166 204 -248 256 -88 57 -175 97 -242 113 -86 20 -201 19 -263 -4z m215 -5&#xA;c0 -3 -4 -8 -10 -11 -5 -3 -10 -1 -10 4 0 6 5 11 10 11 6 0 10 -2 10 -4z m43&#xA;-62 c127 -33 268 -129 387 -265 119 -134 178 -223 271 -405 43 -84 81 -149 85&#xA;-145 4 3 4 1 1 -5 -8 -13 16 -77 25 -69 3 4 9 1 14 -6 4 -8 3 -10 -4 -5 -16&#xA;10 -15 -9 2 -42 16 -31 97 -296 120 -394 50 -213 67 -292 95 -458 24 -136 38&#xA;-266 46 -410 6 -101 5 -108 -25 -180 -43 -103 -60 -193 -60 -315 l0 -103 -28&#xA;-10 c-38 -13 -93 -62 -85 -74 3 -6 1 -8 -4 -5 -13 8 -36 -17 -25 -27 4 -4 2&#xA;-6 -4 -4 -12 3 -74 -67 -74 -83 0 -4 -21 -17 -46 -28 -91 -40 -163 -91 -158&#xA;-109 5 -14 4 -14 -4 -2 -9 12 -14 12 -31 -4 -11 -10 -18 -23 -14 -29 3 -6 1&#xA;-7 -6 -3 -6 4 -33 -8 -61 -29 -44 -33 -49 -39 -39 -58 9 -20 9 -20 -4 -5 -13&#xA;17 -18 16 -78 -15 -136 -69 -266 -118 -439 -163 -164 -43 -250 -53 -460 -50&#xA;-256 4 -295 14 -544 134 -5 3 -5 -1 -1 -8 5 -9 4 -11 -4 -6 -6 4 -9 11 -6 16&#xA;3 5 -5 16 -17 24 -17 12 -24 13 -31 3 -6 -8 -7 -7 -4 4 6 19 -35 63 -48 52 -4&#xA;-5 -5 -3 -2 3 8 13 -21 56 -33 49 -5 -3 -12 0 -16 6 -4 8 -3 9 4 5 18 -11 14&#xA;1 -12 42 -14 20 -37 73 -51 117 -24 71 -26 91 -22 175 16 296 223 513 579 608&#xA;21 6 40 7 43 3 13 -21 222 -152 376 -235 301 -162 929 -401 1049 -400 61 1&#xA;100 12 100 28 0 14 -49 36 -81 36 -47 0 -310 83 -497 156 -62 25 -118 42 -124&#xA;38 -6 -4 -8 -3 -5 3 3 5 -51 33 -121 63 -316 135 -613 311 -731 434 -19 19&#xA;-39 32 -44 29 -6 -3 -8 -2 -4 3 3 5 -15 34 -40 64 -91 109 -147 268 -147 415&#xA;1 73 7 106 31 177 37 108 74 170 170 284 121 146 172 276 208 534 3 25 8 53&#xA;11 62 3 9 7 25 9 35 32 149 102 318 167 402 10 13 15 28 11 34 -3 5 -1 7 4 4&#xA;11 -7 47 26 38 35 -3 3 3 11 12 19 16 13 17 12 4 -3 -19 -25 -8 -22 41 11 87&#xA;59 212 76 331 45z m194 -59 c0 -8 -4 -12 -9 -9 -5 3 -6 10 -3 15 9 13 12 11&#xA;12 -6z m-697 -99 c0 -2 -8 -10 -17 -17 -16 -13 -17 -12 -4 4 13 16 21 21 21&#xA;13z m2105 -46 c-11 -5 -29 -8 -40 -8 -16 0 -15 2 5 8 34 11 60 11 35 0z m92&#xA;-6 c-3 -3 -12 -4 -19 -1 -8 3 -5 6 6 6 11 1 17 -2 13 -5z m-217 -18 c0 -3 -4&#xA;-8 -10 -11 -5 -3 -10 -1 -10 4 0 6 5 11 10 11 6 0 10 -2 10 -4z m-2032 -51&#xA;c-3 -3 -9 2 -12 12 -6 14 -5 15 5 6 7 -7 10 -15 7 -18z m2277 5 c3 -6 -1 -7&#xA;-9 -4 -18 7 -21 14 -7 14 6 0 13 -4 16 -10z m144 -44 c-3 -3 -11 5 -18 17 -13&#xA;21 -12 21 5 5 10 -10 16 -20 13 -22z m-1405 8 c3 -8 2 -12 -4 -9 -6 3 -10 10&#xA;-10 16 0 14 7 11 14 -7z m1427 -41 c13 -16 12 -17 -3 -4 -10 7 -18 15 -18 17&#xA;0 8 8 3 21 -13z m-136 -3 c-3 -5 -12 -10 -18 -10 -7 0 -6 4 3 10 19 12 23 12&#xA;15 0z m-464 -23 c-10 -9 -11 -8 -5 6 3 10 9 15 12 12 3 -3 0 -11 -7 -18z m362&#xA;8 c-3 -9 -8 -14 -10 -11 -3 3 -2 9 2 15 9 16 15 13 8 -4z m221 7 c3 -5 -1 -9&#xA;-9 -9 -8 0 -12 4 -9 9 3 4 7 8 9 8 2 0 6 -4 9 -8z m-189 -70 c-3 -3 -11 0 -18&#xA;7 -9 10 -8 11 6 5 10 -3 15 -9 12 -12z m-485 -16 c0 -2 -8 -10 -17 -17 -16&#xA;-13 -17 -12 -4 4 13 16 21 21 21 13z m-1825 -54 c-3 -3 -11 0 -18 7 -9 10 -8&#xA;11 6 5 10 -3 15 -9 12 -12z m2280 -20 c-3 -3 -11 0 -18 7 -9 10 -8 11 6 5 10&#xA;-3 15 -9 12 -12z m-515 -6 c0 -2 -8 -10 -17 -17 -16 -13 -17 -12 -4 4 13 16&#xA;21 21 21 13z m427 -2 c-3 -3 -12 -4 -19 -1 -8 3 -5 6 6 6 11 1 17 -2 13 -5z&#xA;m-120 -26 c-3 -8 -6 -5 -6 6 -1 11 2 17 5 13 3 -3 4 -12 1 -19z m527 6 c3 -8&#xA;2 -12 -4 -9 -6 3 -10 10 -10 16 0 14 7 11 14 -7z m-387 -29 c0 -8 -4 -12 -9&#xA;-9 -5 3 -6 10 -3 15 9 13 12 11 12 -6z m-902 -5 c3 -6 -1 -7 -9 -4 -18 7 -21&#xA;14 -7 14 6 0 13 -4 16 -10z m1133 -15 c-3 -3 -9 2 -12 12 -6 14 -5 15 5 6 7&#xA;-7 10 -15 7 -18z m-718 11 c0 -2 -7 -7 -16 -10 -8 -3 -12 -2 -9 4 6 10 25 14&#xA;25 6z m486 -31 c-6 -16 26 -39 39 -27 5 4 5 2 1 -5 -4 -7 4 -29 18 -50 85&#xA;-129 101 -519 31 -728 -17 -51 -20 -72 -12 -78 8 -6 6 -7 -5 -4 -11 4 -25 -5&#xA;-40 -23 -31 -39 -89 -65 -125 -55 -15 3 -47 26 -70 50 -26 28 -44 39 -47 32&#xA;-3 -7 -3 -2 0 10 3 12 -4 40 -16 62 -34 67 -69 238 -74 357 -5 128 11 228 48&#xA;309 14 32 23 62 19 68 -3 5 -2 7 4 4 11 -7 67 46 57 55 -3 3 0 9 7 14 8 4 10&#xA;3 5 -4 -10 -17 6 -15 33 4 16 12 37 15 72 12 27 -3 49 -1 49 3 0 5 3 9 6 9 3&#xA;0 4 -7 0 -15z m299 -5 c-3 -5 -1 -10 6 -10 7 0 10 -3 6 -6 -9 -9 -28 6 -22 17&#xA;4 5 8 9 11 9 3 0 2 -4 -1 -10z m-691 -18 c-5 -4 -12 -11 -15 -15 -3 -5 -9 -2&#xA;-12 5 -3 9 3 14 15 15 11 1 16 -1 12 -5z m197 -15 c-10 -9 -11 -8 -5 6 3 10 9&#xA;15 12 12 3 -3 0 -11 -7 -18z m526 1 c-3 -8 -6 -5 -6 6 -1 11 2 17 5 13 3 -3 4&#xA;-12 1 -19z m-1183 -24 c3 -8 2 -12 -4 -9 -6 3 -10 10 -10 16 0 14 7 11 14 -7z&#xA;m940 -20 c3 -8 2 -12 -4 -9 -6 3 -10 10 -10 16 0 14 7 11 14 -7z m199 -4 c-3&#xA;-12 -8 -19 -11 -16 -5 6 5 36 12 36 2 0 2 -9 -1 -20z m-710 -45 c-3 -9 -8 -14&#xA;-10 -11 -3 3 -2 9 2 15 9 16 15 13 8 -4z m-429 -11 c3 -8 2 -12 -4 -9 -6 3&#xA;-10 10 -10 16 0 14 7 11 14 -7z m1194 2 c-7 -8 -15 -12 -17 -11 -5 6 10 25 20&#xA;25 5 0 4 -6 -3 -14z m-608 -6 c0 -5 -7 -7 -15 -4 -8 4 -15 8 -15 10 0 2 7 4&#xA;15 4 8 0 15 -4 15 -10z m-25 -18 c-3 -3 -11 0 -18 7 -9 10 -8 11 6 5 10 -3 15&#xA;-9 12 -12z m625 -8 c0 -8 -19 -13 -24 -6 -3 5 1 9 9 9 8 0 15 -2 15 -3z m-666&#xA;-12 c3 -5 -1 -9 -9 -9 -8 0 -12 4 -9 9 3 4 7 8 9 8 2 0 6 -4 9 -8z m466 -37&#xA;c0 -5 -5 -3 -10 5 -5 8 -10 20 -10 25 0 6 5 3 10 -5 5 -8 10 -19 10 -25z&#xA;m-423 9 c-3 -3 -12 -4 -19 -1 -8 3 -5 6 6 6 11 1 17 -2 13 -5z m-92 -63 c-3&#xA;-6 -11 -11 -16 -11 -5 0 -4 6 3 14 14 16 24 13 13 -3z m806 -34 c-10 -9 -11&#xA;-8 -5 6 3 10 9 15 12 12 3 -3 0 -11 -7 -18z m-887 5 c2 -4 -5 -9 -17 -9 -17&#xA;-2 -19 0 -7 7 18 12 18 12 24 2z m731 -20 c-3 -3 -11 0 -18 7 -9 10 -8 11 6 5&#xA;10 -3 15 -9 12 -12z m103 -17 c-3 -3 -9 2 -12 12 -6 14 -5 15 5 6 7 -7 10 -15&#xA;7 -18z m-736 -27 c-3 -14 -2 -19 6 -14 7 4 12 2 12 -4 0 -7 -6 -10 -12 -8 -15&#xA;5 -24 48 -10 48 6 0 8 -10 4 -22z m45 7 c0 -8 -4 -12 -9 -9 -5 3 -6 10 -3 15&#xA;9 13 12 11 12 -6z m-360 -27 c-3 -8 -6 -5 -6 6 -1 11 2 17 5 13 3 -3 4 -12 1&#xA;-19z m210 0 c-3 -8 -6 -5 -6 6 -1 11 2 17 5 13 3 -3 4 -12 1 -19z m620 -30&#xA;c-3 -7 -5 -2 -5 12 0 14 2 19 5 13 2 -7 2 -19 0 -25z m-486 -35 c13 -16 12&#xA;-17 -3 -4 -10 7 -18 15 -18 17 0 8 8 3 21 -13z m-393 -24 c-3 -8 -7 -3 -11 10&#xA;-4 17 -3 21 5 13 5 -5 8 -16 6 -23z m128 21 c39 -15 71 -54 111 -137 22 -45&#xA;39 -70 47 -66 7 4 7 2 -1 -7 -8 -9 -9 -19 -3 -30 16 -30 40 -189 40 -264 0&#xA;-118 -26 -196 -74 -218 l-33 -16 -27 156 c-27 146 -112 504 -135 565 -10 26&#xA;-9 27 19 27 16 0 41 -5 56 -10z m131 -5 c0 -8 -4 -12 -9 -9 -5 3 -6 10 -3 15&#xA;9 13 12 11 12 -6z m648 -34 c3 -5 2 -12 -3 -15 -5 -3 -9 1 -9 9 0 17 3 19 12&#xA;6z m52 -13 c-3 -8 -6 -5 -6 6 -1 11 2 17 5 13 3 -3 4 -12 1 -19z m99 -34 c1&#xA;-9 0 -13 -4 -10 -3 4 -7 14 -8 22 -1 9 0 13 4 10 3 -4 7 -14 8 -22z m-1034 -9&#xA;c3 -13 1 -22 -3 -19 -9 5 -13 44 -5 44 2 0 6 -11 8 -25z m278 -70 c0 -7 -30&#xA;-13 -34 -7 -3 4 4 9 15 9 10 1 19 0 19 -2z m57 -10 c0 -8 -4 -12 -9 -9 -5 3&#xA;-6 10 -3 15 9 13 12 11 12 -6z m-46 -22 c13 -16 12 -17 -3 -4 -10 7 -18 15&#xA;-18 17 0 8 8 3 21 -13z m-240 -60 c13 -16 12 -17 -3 -4 -10 7 -18 15 -18 17 0&#xA;8 8 3 21 -13z m303 9 c3 -5 -1 -9 -9 -9 -8 0 -12 4 -9 9 3 4 7 8 9 8 2 0 6 -4&#xA;9 -8z m1223 -44 c-3 -7 -5 -2 -5 12 0 14 2 19 5 13 2 -7 2 -19 0 -25z m-1495&#xA;-15 c-6 -2 -9 -10 -6 -15 4 -7 2 -8 -5 -4 -13 9 -5 26 12 25 9 0 8 -2 -1 -6z&#xA;m773 -33 c-3 -5 -12 -10 -18 -10 -7 0 -6 4 3 10 19 12 23 12 15 0z m725 0 c0&#xA;-5 -2 -10 -4 -10 -3 0 -8 5 -11 10 -3 6 -1 10 4 10 6 0 11 -4 11 -10z m-23&#xA;-42 c-3 -8 -6 -5 -6 6 -1 11 2 17 5 13 3 -3 4 -12 1 -19z m-1454 -13 c-3 -9&#xA;-8 -14 -10 -11 -3 3 -2 9 2 15 9 16 15 13 8 -4z m1434 -17 c-3 -7 -5 -2 -5 12&#xA;0 14 2 19 5 13 2 -7 2 -19 0 -25z m-1050 6 c-3 -3 -12 -4 -19 -1 -8 3 -5 6 6&#xA;6 11 1 17 -2 13 -5z m1085 -19 c-2 -14 -6 -25 -8 -25 -2 0 -4 11 -4 25 0 14 4&#xA;25 9 25 4 0 6 -11 3 -25z m-1459 -2 c-7 -2 -19 -2 -25 0 -7 3 -2 5 12 5 14 0&#xA;19 -2 13 -5z m204 -15 c-3 -8 -6 -5 -6 6 -1 11 2 17 5 13 3 -3 4 -12 1 -19z&#xA;m40 -10 c2 -17 0 -19 -7 -8 -5 8 -6 18 -4 22 8 12 10 10 11 -14z m1201 -23&#xA;c-3 -3 -9 2 -12 12 -6 14 -5 15 5 6 7 -7 10 -15 7 -18z m-1241 -32 c-3 -10 -5&#xA;-4 -5 12 0 17 2 24 5 18 2 -7 2 -21 0 -30z m538 8 c-3 -6 -11 -11 -16 -11 -5&#xA;0 -4 6 3 14 14 16 24 13 13 -3z m-2818 -13 c-3 -8 -6 -5 -6 6 -1 11 2 17 5 13&#xA;3 -3 4 -12 1 -19z m2923 18 c0 -2 -7 -7 -16 -10 -8 -3 -12 -2 -9 4 6 10 25 14&#xA;25 6z m-115 -35 c3 -5 2 -12 -3 -15 -5 -3 -9 1 -9 9 0 17 3 19 12 6z m-445&#xA;-35 c0 -2 -8 -10 -17 -17 -16 -13 -17 -12 -4 4 13 16 21 21 21 13z m310 -22&#xA;c0 -8 -19 -13 -24 -6 -3 5 1 9 9 9 8 0 15 -2 15 -3z m-2643 -36 c-3 -7 -5 -2&#xA;-5 12 0 14 2 19 5 13 2 -7 2 -19 0 -25z m2804 5 c-12 -20 -14 -14 -5 12 4 9 9&#xA;14 11 11 3 -2 0 -13 -6 -23z m-182 4 c8 -10 7 -14 -4 -14 -8 0 -12 4 -9 8 2 4&#xA;-4 10 -13 12 -15 4 -15 5 -2 6 9 0 22 -5 28 -12z m158 -19 c-3 -8 -6 -5 -6 6&#xA;-1 11 2 17 5 13 3 -3 4 -12 1 -19z m640 3 c0 -11 -5 -18 -9 -15 -4 3 -5 11 -1&#xA;19 7 21 12 19 10 -4z m-1354 -6 c-3 -9 -8 -14 -10 -11 -3 3 -2 9 2 15 9 16 15&#xA;13 8 -4z m34 -37 c-3 -8 -6 -5 -6 6 -1 11 2 17 5 13 3 -3 4 -12 1 -19z m440&#xA;-24 c-3 -3 -12 -4 -19 -1 -8 3 -5 6 6 6 11 1 17 -2 13 -5z m318 -83 c-2 -5&#xA;-14 -11 -25 -14 -11 -3 -18 -1 -14 4 3 5 12 9 20 9 9 0 12 5 8 12 -4 7 -3 8 5&#xA;4 6 -4 9 -11 6 -15z m-639 -16 c-1 -8 -8 -21 -16 -28 -10 -10 -11 -9 -4 3 5 8&#xA;9 18 10 23 3 14 4 17 8 17 2 0 3 -7 2 -15z m-129 -17 c-3 -8 -6 -5 -6 6 -1 11&#xA;2 17 5 13 3 -3 4 -12 1 -19z m1216 -3 c-3 -9 -8 -14 -10 -11 -3 3 -2 9 2 15 9&#xA;16 15 13 8 -4z m-688 -25 c-3 -5 -12 -10 -18 -10 -7 0 -6 4 3 10 19 12 23 12&#xA;15 0z m-438 -15 c0 -8 -4 -12 -9 -9 -5 3 -6 10 -3 15 9 13 12 11 12 -6z m230&#xA;9 c-3 -3 -12 -4 -19 -1 -8 3 -5 6 6 6 11 1 17 -2 13 -5z m-110 -69 c0 -8 -4&#xA;-12 -9 -9 -5 3 -6 10 -3 15 9 13 12 11 12 -6z m-2196 -38 c-10 -9 -11 -8 -5 6&#xA;3 10 9 15 12 12 3 -3 0 -11 -7 -18z m2523 15 c3 -5 -1 -9 -9 -9 -8 0 -12 4 -9&#xA;9 3 4 7 8 9 8 2 0 6 -4 9 -8z m166 -6 c0 -2 -7 -7 -16 -10 -8 -3 -12 -2 -9 4&#xA;6 10 25 14 25 6z m-2639 -43 c13 -16 12 -17 -3 -4 -10 7 -18 15 -18 17 0 8 8&#xA;3 21 -13z m2166 2 c0 -8 -4 -12 -9 -9 -5 3 -6 10 -3 15 9 13 12 11 12 -6z&#xA;m558 -10 c82 -21 191 -78 242 -124 60 -55 115 -138 153 -231 29 -69 36 -78 49&#xA;-67 14 11 14 10 2 -6 -12 -15 -12 -27 0 -80 17 -77 17 -262 0 -342 -21 -98&#xA;-84 -218 -146 -278 -111 -110 -233 -151 -431 -145 -67 1 -120 6 -118 9 5 9&#xA;-104 31 -117 23 -7 -4 -9 -3 -6 3 4 6 -7 16 -25 22 -39 14 -41 14 -32 -1 4 -8&#xA;3 -10 -2 -5 -5 5 -7 10 -4 12 8 7 -89 65 -102 61 -7 -1 -10 -1 -6 1 8 5 -135&#xA;149 -145 145 -5 -1 -6 2 -2 7 8 14 -25 62 -38 54 -6 -3 -7 -1 -3 5 4 6 -4 37&#xA;-18 69 -37 89 -50 171 -43 286 10 180 59 293 178 409 170 166 400 231 614 173z&#xA;m-581 -1 c3 -8 2 -12 -4 -9 -6 3 -10 10 -10 16 0 14 7 11 14 -7z m-187 -26&#xA;c-3 -7 -5 -2 -5 12 0 14 2 19 5 13 2 -7 2 -19 0 -25z m200 -30 c-3 -8 -6 -5&#xA;-6 6 -1 11 2 17 5 13 3 -3 4 -12 1 -19z m728 4 c-3 -3 -11 0 -18 7 -9 10 -8&#xA;11 6 5 10 -3 15 -9 12 -12z m-912 -47 c-3 -9 -8 -14 -10 -11 -3 3 -2 9 2 15 9&#xA;16 15 13 8 -4z m-1885 -20 c-3 -3 -9 2 -12 12 -6 14 -5 15 5 6 7 -7 10 -15 7&#xA;-18z m1977 -65 c3 -5 1 -10 -4 -10 -6 0 -11 5 -11 10 0 6 2 10 4 10 3 0 8 -4&#xA;11 -10z m-2090 -10 c-3 -5 -14 -10 -23 -9 -14 0 -13 2 3 9 27 11 27 11 20 0z&#xA;m3149 -78 c3 -5 -1 -9 -9 -9 -8 0 -12 4 -9 9 3 4 7 8 9 8 2 0 6 -4 9 -8z&#xA;m-3339 -50 c-3 -3 -11 0 -18 7 -9 10 -8 11 6 5 10 -3 15 -9 12 -12z m3375 4&#xA;c0 -2 -7 -7 -16 -10 -8 -3 -12 -2 -9 4 6 10 25 14 25 6z m-1243 -68 c-3 -8 -6&#xA;-5 -6 6 -1 11 2 17 5 13 3 -3 4 -12 1 -19z m-2237 6 c0 -8 -19 -13 -24 -6 -3&#xA;5 1 9 9 9 8 0 15 -2 15 -3z m845 -12 c-3 -3 -11 0 -18 7 -9 10 -8 11 6 5 10&#xA;-3 15 -9 12 -12z m145 -68 c0 -2 -9 0 -20 6 -11 6 -20 13 -20 16 0 2 9 0 20&#xA;-6 11 -6 20 -13 20 -16z m47 -20 c-3 -3 -12 -4 -19 -1 -8 3 -5 6 6 6 11 1 17&#xA;-2 13 -5z m2470 -26 c-3 -8 -6 -5 -6 6 -1 11 2 17 5 13 3 -3 4 -12 1 -19z&#xA;m-2452 -18 c3 -6 -1 -7 -9 -4 -18 7 -21 14 -7 14 6 0 13 -4 16 -10z m2498 -65&#xA;c-3 -9 -8 -14 -10 -11 -3 3 -2 9 2 15 9 16 15 13 8 -4z m-26 -17 c-3 -8 -6 -5&#xA;-6 6 -1 11 2 17 5 13 3 -3 4 -12 1 -19z m0 -60 c-3 -8 -6 -5 -6 6 -1 11 2 17&#xA;5 13 3 -3 4 -12 1 -19z m-3692 2 c3 -6 -1 -7 -9 -4 -18 7 -21 14 -7 14 6 0 13&#xA;-4 16 -10z m3692 -42 c-3 -8 -6 -5 -6 6 -1 11 2 17 5 13 3 -3 4 -12 1 -19z&#xA;m43 12 c0 -5 -5 -10 -11 -10 -5 0 -7 5 -4 10 3 6 8 10 11 10 2 0 4 -4 4 -10z&#xA;m-43 -62 c-3 -7 -5 -2 -5 12 0 14 2 19 5 13 2 -7 2 -19 0 -25z m34 9 c-10 -9&#xA;-11 -8 -5 6 3 10 9 15 12 12 3 -3 0 -11 -7 -18z m-1777 -15 c3 -5 -1 -9 -9 -9&#xA;-8 0 -12 4 -9 9 3 4 7 8 9 8 2 0 6 -4 9 -8z m-74 -12 c0 -5 -5 -10 -11 -10 -5&#xA;0 -7 5 -4 10 3 6 8 10 11 10 2 0 4 -4 4 -10z m534 -142 c62 -130 158 -241 267&#xA;-306 22 -13 39 -29 39 -35 0 -7 -11 -28 -24 -48 -56 -82 -170 -122 -268 -92&#xA;-29 8 -65 24 -80 35 -16 10 -34 16 -40 12 -7 -4 -10 -4 -6 1 4 4 -8 25 -26 46&#xA;-63 74 -96 162 -96 257 0 61 3 68 45 128 45 62 101 114 123 114 7 0 12 6 13&#xA;13 1 6 7 -6 14 -29 7 -22 24 -65 39 -96z m-2424 98 c0 -2 -7 -7 -16 -10 -8 -3&#xA;-12 -2 -9 4 6 10 25 14 25 6z m5 -174 c-3 -3 -11 0 -18 7 -9 10 -8 11 6 5 10&#xA;-3 15 -9 12 -12z m2115 -118 c24 -138 108 -262 212 -313 l47 -22 -19 -42 c-10&#xA;-23 -33 -59 -51 -81 -18 -21 -32 -45 -32 -52 0 -7 -3 -12 -6 -12 -3 1 -14 -2&#xA;-24 -7 -10 -4 -45 -5 -78 -2 -62 5 -122 34 -183 87 -18 16 -36 27 -39 24 -3&#xA;-3 -8 0 -13 7 -4 8 -3 10 4 5 17 -11 15 2 -8 40 -12 18 -31 64 -45 103 -22 67&#xA;-24 86 -13 198 1 7 5 10 9 7 5 -2 33 12 64 32 41 27 52 40 43 46 -9 7 -7 8 7&#xA;4 12 -3 35 5 55 19 19 13 40 24 46 24 7 1 17 -28 24 -65z m501 9 c13 -16 12&#xA;-17 -3 -4 -10 7 -18 15 -18 17 0 8 8 3 21 -13z m1004 8 c3 -5 2 -12 -3 -15 -5&#xA;-3 -9 1 -9 9 0 17 3 19 12 6z m-3562 -45 c4 -10 1 -13 -8 -9 -8 3 -12 9 -9 14&#xA;7 12 11 11 17 -5z m65 -61 c-3 -3 -9 2 -12 12 -6 14 -5 15 5 6 7 -7 10 -15 7&#xA;-18z m1652 -59 c0 -3 -4 -8 -10 -11 -5 -3 -10 -1 -10 4 0 6 5 11 10 11 6 0 10&#xA;-2 10 -4z m1137 -2 c-3 -3 -12 -4 -19 -1 -8 3 -5 6 6 6 11 1 17 -2 13 -5z&#xA;m-1074 -205 c75 -151 181 -235 304 -242 24 -1 43 -4 43 -7 0 -8 -74 -70 -122&#xA;-101 -27 -17 -46 -34 -44 -38 2 -3 -28 -7 -68 -9 -64 -3 -78 0 -131 28 -75 39&#xA;-98 61 -145 132 -21 31 -40 55 -43 52 -3 -3 -8 0 -13 7 -4 8 -3 10 4 5 15 -9&#xA;15 -12 -3 53 -13 51 -13 58 5 99 11 24 17 49 13 55 -3 5 -1 7 5 3 5 -3 20 9&#xA;31 27 11 18 29 42 41 52 21 19 28 41 8 29 -7 -4 -8 -3 -4 5 4 6 11 9 15 6 5&#xA;-2 17 5 27 16 18 20 18 19 34 -49 9 -39 29 -94 43 -123z m385 156 c-3 -3 -9 2&#xA;-12 12 -6 14 -5 15 5 6 7 -7 10 -15 7 -18z m822 21 c0 -2 -7 -7 -16 -10 -8 -3&#xA;-12 -2 -9 4 6 10 25 14 25 6z m-1200 -12 c0 -8 -19 -13 -24 -6 -3 5 1 9 9 9 8&#xA;0 15 -2 15 -3z m-10 -30 c0 -2 -7 -4 -15 -4 -8 0 -15 4 -15 10 0 5 7 7 15 4 8&#xA;-4 15 -8 15 -10z m-12 -39 c-3 -3 -9 2 -12 12 -6 14 -5 15 5 6 7 -7 10 -15 7&#xA;-18z m37 -13 c-3 -3 -11 0 -18 7 -9 10 -8 11 6 5 10 -3 15 -9 12 -12z m865 12&#xA;c0 -8 -19 -13 -24 -6 -3 5 1 9 9 9 8 0 15 -2 15 -3z m-1403 -26 c-3 -8 -6 -5&#xA;-6 6 -1 11 2 17 5 13 3 -3 4 -12 1 -19z m-847 -12 c0 -3 -4 -8 -10 -11 -5 -3&#xA;-10 -1 -10 4 0 6 5 11 10 11 6 0 10 -2 10 -4z m1900 0 c0 -3 -4 -8 -10 -11 -5&#xA;-3 -10 -1 -10 4 0 6 5 11 10 11 6 0 10 -2 10 -4z m-1177 -13 c-7 -2 -19 -2&#xA;-25 0 -7 3 -2 5 12 5 14 0 19 -2 13 -5z m-210 -30 c-7 -2 -19 -2 -25 0 -7 3&#xA;-2 5 12 5 14 0 19 -2 13 -5z m1521 -1 c3 -5 -1 -9 -9 -9 -8 0 -12 4 -9 9 3 4&#xA;7 8 9 8 2 0 6 -4 9 -8z m-1711 -9 c-7 -2 -19 -2 -25 0 -7 3 -2 5 12 5 14 0 19&#xA;-2 13 -5z m74 1 c-3 -3 -12 -4 -19 -1 -8 3 -5 6 6 6 11 1 17 -2 13 -5z m1538&#xA;-4 c3 -6 -1 -7 -9 -4 -18 7 -21 14 -7 14 6 0 13 -4 16 -10z m-1687 -25 c-3 -3&#xA;-9 2 -12 12 -6 14 -5 15 5 6 7 -7 10 -15 7 -18z m1659 -51 c-3 -3 -12 -4 -19&#xA;-1 -8 3 -5 6 6 6 11 1 17 -2 13 -5z m-851 -74 c0 -11 -4 -20 -8 -20 -10 0 -11&#xA;24 -1 33 9 9 9 10 9 -13z m-19 -52 c-3 -8 -6 -5 -6 6 -1 11 2 17 5 13 3 -3 4&#xA;-12 1 -19z m110 -85 c19 -29 50 -66 69 -83 39 -34 125 -80 149 -80 9 0 14 -4&#xA;11 -8 -2 -4 -38 -9 -79 -10 -78 -3 -130 11 -156 42 -11 13 -17 14 -30 4 -14&#xA;-11 -14 -11 -4 3 10 12 9 25 -2 61 -13 45 -18 96 -15 153 l2 30 10 -30 c6 -16&#xA;26 -53 45 -82z m498 97 c3 -6 -1 -7 -9 -4 -18 7 -21 14 -7 14 6 0 13 -4 16&#xA;-10z m88 -7 c-7 -2 -19 -2 -25 0 -7 3 -2 5 12 5 14 0 19 -2 13 -5z m-583 -27&#xA;c0 -3 -4 -8 -10 -11 -5 -3 -10 -1 -10 4 0 6 5 11 10 11 6 0 10 -2 10 -4z&#xA;m-102 -51 c-3 -3 -9 2 -12 12 -6 14 -5 15 5 6 7 -7 10 -15 7 -18z m642 -75 c0&#xA;-5 -5 -10 -11 -10 -5 0 -7 5 -4 10 3 6 8 10 11 10 2 0 4 -4 4 -10z m-243 -66&#xA;c-3 -3 -12 -4 -19 -1 -8 3 -5 6 6 6 11 1 17 -2 13 -5z m38 -4 c-3 -5 -12 -10&#xA;-18 -10 -7 0 -6 4 3 10 19 12 23 12 15 0z"/>
    <path d="M3364 9091 c-107 -49 -149 -136 -148 -301 1 -118 20 -179 95 -319 72&#xA;-134 261 -353 290 -336 7 5 10 4 6 -2 -9 -14 42 -52 120 -92 49 -24 75 -31&#xA;120 -31 187 1 257 158 189 423 -29 114 -97 273 -115 269 -7 -1 -10 2 -6 8 14&#xA;23 -98 182 -187 266 -127 120 -260 162 -364 115z m109 2 c-7 -2 -19 -2 -25 0&#xA;-7 3 -2 5 12 5 14 0 19 -2 13 -5z m-49 -63 c-6 -6 -10 -3 -10 10 0 13 4 16 10&#xA;10 7 -7 7 -13 0 -20z m63 24 c-3 -3 -12 -4 -19 -1 -8 3 -5 6 6 6 11 1 17 -2&#xA;13 -5z m-194 -47 c3 -8 -1 -14 -9 -14 -15 0 -18 9 -7 20 9 9 10 9 16 -6z m392&#xA;-7 c3 -6 -1 -7 -9 -4 -18 7 -21 14 -7 14 6 0 13 -4 16 -10z m-395 -26 c0 -8&#xA;-19 -13 -24 -6 -3 5 1 9 9 9 8 0 15 -2 15 -3z m438 -19 c12 -13 18 -26 14 -29&#xA;-4 -2 -15 9 -24 25 -21 35 -18 37 10 4z m42 -45 c0 -5 -2 -10 -4 -10 -3 0 -8&#xA;5 -11 10 -3 6 -1 10 4 10 6 0 11 -4 11 -10z m-446 -26 c3 -8 2 -12 -4 -9 -6 3&#xA;-10 10 -10 16 0 14 7 11 14 -7z m282 -100 c1 -9 0 -13 -4 -10 -3 4 -7 14 -8&#xA;22 -1 9 0 13 4 10 3 -4 7 -14 8 -22z m199 -63 c3 -5 2 -12 -3 -15 -5 -3 -9 1&#xA;-9 9 0 17 3 19 12 6z m66 -54 c-10 -9 -11 -8 -5 6 3 10 9 15 12 12 3 -3 0 -11&#xA;-7 -18z m-136 -7 c3 -6 -1 -7 -9 -4 -18 7 -21 14 -7 14 6 0 13 -4 16 -10z&#xA;m158 -14 c4 -10 1 -13 -8 -9 -8 3 -12 9 -9 14 7 12 11 11 17 -5z m-508 -65 c3&#xA;-5 2 -12 -3 -15 -5 -3 -9 1 -9 9 0 17 3 19 12 6z m136 -84 c-10 -9 -11 -8 -5&#xA;6 3 10 9 15 12 12 3 -3 0 -11 -7 -18z m89 3 c0 -5 -2 -10 -4 -10 -3 0 -8 5&#xA;-11 10 -3 6 -1 10 4 10 6 0 11 -4 11 -10z m237 4 c-3 -3 -12 -4 -19 -1 -8 3&#xA;-5 6 6 6 11 1 17 -2 13 -5z m-290 -36 c-3 -7 -5 -2 -5 12 0 14 2 19 5 13 2 -7&#xA;2 -19 0 -25z m103 -64 c0 -8 -19 -13 -24 -6 -3 5 1 9 9 9 8 0 15 -2 15 -3z&#xA;m-245 -24 c-3 -5 -12 -10 -18 -10 -7 0 -6 4 3 10 19 12 23 12 15 0z m128 -135&#xA;c-3 -9 -8 -14 -10 -11 -3 3 -2 9 2 15 9 16 15 13 8 -4z m52 5 c3 -6 -1 -7 -9&#xA;-4 -18 7 -21 14 -7 14 6 0 13 -4 16 -10z m296 -24 c14 8 11 -2 -4 -14 -10 -8&#xA;-13 -6 -14 11 0 12 1 16 4 9 3 -6 9 -10 14 -6z m32 -46 c-3 -12 -8 -19 -11&#xA;-16 -5 6 5 36 12 36 2 0 2 -9 -1 -20z m-126 -25 c0 -8 -4 -12 -9 -9 -5 3 -6&#xA;10 -3 15 9 13 12 11 12 -6z m20 -7 c-3 -8 -6 -5 -6 6 -1 11 2 17 5 13 3 -3 4&#xA;-12 1 -19z m-127 -22 c0 -2 -7 -7 -16 -10 -8 -3 -12 -2 -9 4 6 10 25 14 25 6z"/>
    <path d="M2895 8297 c-87 -41 -154 -140 -160 -234 -5 -82 54 -241 88 -235 9 2&#xA;17 -2 17 -8 0 -6 -4 -8 -10 -5 -34 21 17 -51 95 -134 103 -110 254 -205 375&#xA;-236 129 -34 260 -5 314 68 32 43 30 190 -3 269 -13 32 -27 55 -32 52 -5 -3&#xA;-6 1 -4 9 8 19 -85 158 -153 230 -77 81 -201 179 -219 173 -8 -3 -11 -1 -8 4&#xA;12 20 -104 63 -179 67 -59 3 -79 0 -121 -20z m185 -3 c0 -8 -19 -13 -24 -6 -3&#xA;5 1 9 9 9 8 0 15 -2 15 -3z m-56 -102 c3 -5 -1 -9 -9 -9 -8 0 -12 4 -9 9 3 4&#xA;7 8 9 8 2 0 6 -4 9 -8z m151 -12 c3 -6 -1 -7 -9 -4 -18 7 -21 14 -7 14 6 0 13&#xA;-4 16 -10z m59 -18 c3 -5 -1 -9 -9 -9 -8 0 -12 4 -9 9 3 4 7 8 9 8 2 0 6 -4 9&#xA;-8z m91 -12 c3 -6 -1 -7 -9 -4 -18 7 -21 14 -7 14 6 0 13 -4 16 -10z m-565&#xA;-60 c-5 -22 -8 -27 -9 -13 -1 21 9 56 14 51 2 -2 0 -19 -5 -38z m224 32 c3 -5&#xA;-1 -9 -9 -9 -8 0 -12 4 -9 9 3 4 7 8 9 8 2 0 6 -4 9 -8z m424 -67 c-3 -3 -9 2&#xA;-12 12 -6 14 -5 15 5 6 7 -7 10 -15 7 -18z m-225 -38 c3 -8 -1 -14 -8 -14 -7&#xA;0 -11 6 -8 14 3 7 6 13 8 13 2 0 5 -6 8 -13z m-143 -11 c0 -2 -7 -7 -16 -10&#xA;-8 -3 -12 -2 -9 4 6 10 25 14 25 6z m23 -11 c-3 -9 -8 -14 -10 -11 -3 3 -2 9&#xA;2 15 9 16 15 13 8 -4z m187 -41 c0 -8 -19 -13 -24 -6 -3 5 1 9 9 9 8 0 15 -2&#xA;15 -3z m117 -10 c-3 -3 -12 -4 -19 -1 -8 3 -5 6 6 6 11 1 17 -2 13 -5z m-147&#xA;-50 c0 -8 -19 -13 -24 -6 -3 5 1 9 9 9 8 0 15 -2 15 -3z m327 -96 c-3 -7 -5&#xA;-2 -5 12 0 14 2 19 5 13 2 -7 2 -19 0 -25z m-210 16 c-3 -3 -12 -4 -19 -1 -8&#xA;3 -5 6 6 6 11 1 17 -2 13 -5z m-402 -13 c3 -5 2 -12 -3 -15 -5 -3 -9 1 -9 9 0&#xA;17 3 19 12 6z m592 -7 c-3 -3 -12 -4 -19 -1 -8 3 -5 6 6 6 11 1 17 -2 13 -5z&#xA;m-552 -14 c3 -5 1 -10 -4 -10 -6 0 -11 5 -11 10 0 6 2 10 4 10 3 0 8 -4 11&#xA;-10z m320 -69 c3 -5 2 -12 -3 -15 -5 -3 -9 1 -9 9 0 17 3 19 12 6z m142 -33&#xA;c-3 -8 -6 -5 -6 6 -1 11 2 17 5 13 3 -3 4 -12 1 -19z m-310 -23 c0 -8 -4 -12&#xA;-9 -9 -5 3 -6 10 -3 15 9 13 12 11 12 -6z m500 -7 c-3 -8 -6 -5 -6 6 -1 11 2&#xA;17 5 13 3 -3 4 -12 1 -19z m-632 -6 c-3 -3 -11 0 -18 7 -9 10 -8 11 6 5 10 -3&#xA;15 -9 12 -12z m232 3 c0 -8 -4 -12 -9 -9 -5 3 -6 10 -3 15 9 13 12 11 12 -6z&#xA;m390 -82 c-3 -10 -5 -4 -5 12 0 17 2 24 5 18 2 -7 2 -21 0 -30z m-220 11 c-3&#xA;-3 -12 -4 -19 -1 -8 3 -5 6 6 6 11 1 17 -2 13 -5z m-80 -116 c-3 -8 -6 -5 -6&#xA;6 -1 11 2 17 5 13 3 -3 4 -12 1 -19z m194 -1 c-10 -9 -11 -8 -5 6 3 10 9 15&#xA;12 12 3 -3 0 -11 -7 -18z"/>
    <path d="M2622 6889 c-74 -21 -93 -34 -85 -57 4 -15 3 -15 -6 -2 -9 12 -18 8&#xA;-56 -30 -43 -42 -56 -69 -69 -145 -7 -37 11 -98 26 -89 7 4 8 2 4 -5 -19 -30&#xA;125 -174 155 -155 8 4 9 3 5 -4 -8 -13 40 -35 126 -58 118 -30 301 -13 401 37&#xA;111 57 197 170 182 241 -14 65 -67 144 -88 131 -6 -3 -7 -1 -3 5 13 22 -131&#xA;109 -161 97 -8 -2 -11 -1 -8 5 13 20 -100 43 -230 45 -102 2 -144 -1 -193 -16z&#xA;m303 -9 c3 -6 -1 -7 -9 -4 -18 7 -21 14 -7 14 6 0 13 -4 16 -10z m-30 -60 c3&#xA;-6 -1 -7 -9 -4 -18 7 -21 14 -7 14 6 0 13 -4 16 -10z m-178 -26 c-3 -3 -12 -4&#xA;-19 -1 -8 3 -5 6 6 6 11 1 17 -2 13 -5z m-33 -90 c3 -8 2 -12 -4 -9 -6 3 -10&#xA;10 -10 16 0 14 7 11 14 -7z m39 -5 c-8 -8 -13 -7 -18 2 -5 8 -4 10 3 5 7 -4&#xA;12 -2 12 5 0 7 3 9 7 6 4 -4 2 -12 -4 -18z m160 -19 c-3 -12 -8 -19 -11 -16&#xA;-5 6 5 36 12 36 2 0 2 -9 -1 -20z m152 -19 c3 -5 2 -12 -3 -15 -5 -3 -9 1 -9&#xA;9 0 17 3 19 12 6z m-125 -31 c0 -5 -2 -10 -4 -10 -3 0 -8 5 -11 10 -3 6 -1 10&#xA;4 10 6 0 11 -4 11 -10z m355 -48 c-3 -3 -11 0 -18 7 -9 10 -8 11 6 5 10 -3 15&#xA;-9 12 -12z m-569 -14 c3 -4 -1 -5 -10 -4 -8 1 -18 5 -22 8 -3 4 1 5 10 4 8 -1&#xA;18 -5 22 -8z m575 -31 c-10 -9 -11 -8 -5 6 3 10 9 15 12 12 3 -3 0 -11 -7 -18z&#xA;m-735 -17 c0 -12 -4 -16 -9 -11 -5 5 -6 14 -3 20 10 15 12 14 12 -9z m449 -29&#xA;c-6 -5 -25 10 -25 20 0 5 6 4 14 -3 8 -7 12 -15 11 -17z m80 -50 c-3 -6 -11&#xA;-11 -16 -11 -5 0 -4 6 3 14 14 16 24 13 13 -3z m-125 -11 c7 -14 7 -20 0 -20&#xA;-5 0 -10 6 -10 14 0 8 -6 17 -12 19 -10 4 -10 6 -1 6 7 1 17 -8 23 -19z m-135&#xA;-19 c-6 -5 -25 10 -25 20 0 5 6 4 14 -3 8 -7 12 -15 11 -17z m270 -19 c-3 -3&#xA;-11 0 -18 7 -9 10 -8 11 6 5 10 -3 15 -9 12 -12z m-240 -12 c-3 -5 -12 -10&#xA;-18 -10 -7 0 -6 4 3 10 19 12 23 12 15 0z m215 4 c0 -8 -19 -13 -24 -6 -3 5 1&#xA;9 9 9 8 0 15 -2 15 -3z m-183 -40 c-3 -3 -12 -4 -19 -1 -8 3 -5 6 6 6 11 1 17&#xA;-2 13 -5z"/>
    <path d="M4988 7303 c-26 -10 -38 -21 -38 -35 0 -16 4 -19 23 -13 55 17 114&#xA;17 146 0 23 -11 37 -13 43 -7 17 17 1 42 -37 57 -44 19 -90 18 -137 -2z m109&#xA;-9 c-3 -3 -12 -4 -19 -1 -8 3 -5 6 6 6 11 1 17 -2 13 -5z"/>
    <path d="M5540 7151 c0 -15 10 -20 45 -25 24 -4 47 -11 50 -17 10 -15 45 -10&#xA;45 6 0 32 -38 55 -90 55 -42 0 -50 -3 -50 -19z m67 -7 c-3 -3 -12 -4 -19 -1&#xA;-8 3 -5 6 6 6 11 1 17 -2 13 -5z m50 -19 c1 -15 0 -15 -3 -3 -3 9 -13 19 -22&#xA;22 -12 3 -12 4 3 3 12 -1 21 -10 22 -22z"/>
    <path d="M4960 7079 c-56 -25 -76 -52 -96 -130 -38 -150 23 -268 140 -271 106&#xA;-2 157 57 164 188 4 72 1 89 -21 138 -27 59 -72 96 -117 96 -14 -1 -45 -10&#xA;-70 -21z m148 -44 c-3 -3 -9 2 -12 12 -6 14 -5 15 5 6 7 -7 10 -15 7 -18z m-5&#xA;-44 c45 -90 33 -217 -25 -254 -36 -24 -93 -25 -123 -4 -16 13 -15 14 12 10 37&#xA;-6 66 27 87 98 21 68 5 177 -28 202 -6 4 3 6 19 5 25 -3 34 -12 58 -57z m44&#xA;-33 c-3 -8 -6 -5 -6 6 -1 11 2 17 5 13 3 -3 4 -12 1 -19z m-146 -51 c-10 -9&#xA;-11 -8 -5 6 3 10 9 15 12 12 3 -3 0 -11 -7 -18z m-30 -35 c-7 -2 -18 1 -23 6&#xA;-8 8 -4 9 13 5 13 -4 18 -8 10 -11z m79 -17 c0 -1 -9 -5 -19 -8 -13 -3 -18 -1&#xA;-14 9 4 10 33 10 33 -1z m40 -139 c0 -3 -4 -8 -10 -11 -5 -3 -10 -1 -10 4 0 6&#xA;5 11 10 11 6 0 10 -2 10 -4z m-73 -22 c-3 -3 -12 -4 -19 -1 -8 3 -5 6 6 6 11&#xA;1 17 -2 13 -5z"/>
    <path d="M5510 6968 c-81 -22 -130 -109 -130 -227 0 -87 23 -126 81 -141 85&#xA;-23 152 16 183 107 30 89 15 173 -45 235 -39 41 -38 41 -89 26z m65 -17 c3 -5&#xA;2 -12 -3 -15 -5 -3 -9 1 -9 9 0 17 3 19 12 6z m-14 -31 c45 -24 66 -159 34&#xA;-220 -14 -27 -51 -60 -67 -60 -4 0 2 19 12 43 33 72 21 179 -23 216 -31 25 4&#xA;42 44 21z m56 -62 c-3 -8 -6 -5 -6 6 -1 11 2 17 5 13 3 -3 4 -12 1 -19z m17&#xA;-138 c-6 -6 -10 -3 -10 10 0 13 4 16 10 10 7 -7 7 -13 0 -20z"/>
    <path d="M5052 6608 c-31 -31 0 -147 55 -202 50 -49 97 -63 167 -47 97 22 200&#xA;121 194 186 -2 21 -8 30 -20 29 -10 -1 -15 2 -13 7 8 11 -54 42 -71 35 -25&#xA;-10 -15 -37 21 -52 19 -8 35 -20 35 -28 0 -7 -17 -32 -37 -55 -31 -34 -48 -44&#xA;-95 -53 -49 -10 -62 -10 -93 5 -40 19 -72 66 -81 117 -9 62 -35 85 -62 58z&#xA;m403 -78 c-3 -5 -12 -10 -18 -10 -7 0 -6 4 3 10 19 12 23 12 15 0z m-350 -50&#xA;c3 -5 1 -10 -4 -10 -6 0 -11 5 -11 10 0 6 2 10 4 10 3 0 8 -4 11 -10z m125&#xA;-80 c0 -5 -2 -10 -4 -10 -3 0 -8 5 -11 10 -3 6 -1 10 4 10 6 0 11 -4 11 -10z&#xA;m57 4 c-3 -3 -12 -4 -19 -1 -8 3 -5 6 6 6 11 1 17 -2 13 -5z"/>
    <path d="M7490 6556 c-117 -26 -187 -78 -253 -189 -40 -65 -66 -162 -70 -255&#xA;-1 -43 -6 -61 -14 -58 -6 3 -14 2 -16 -2 -2 -4 -2 -1 0 7 6 22 -75 89 -154&#xA;128 -66 33 -82 36 -171 39 -83 3 -107 0 -167 -21 -75 -26 -152 -75 -148 -93 2&#xA;-6 -3 -9 -10 -6 -25 9 -92 -91 -122 -185 -35 -108 -3 -255 75 -344 38 -44 167&#xA;-137 189 -137 27 -1 -8 -17 -54 -24 -94 -16 -234 -83 -220 -105 3 -5 0 -13 -6&#xA;-17 -8 -4 -9 -3 -5 4 4 7 3 12 -3 12 -11 0 -37 -40 -33 -53 1 -4 -3 -6 -10 -5&#xA;-6 2 -25 -24 -41 -56 -71 -141 -35 -327 88 -464 31 -35 53 -51 64 -48 9 3 23&#xA;1 31 -5 12 -8 9 -9 -10 -4 -51 13 10 -23 79 -46 127 -43 265 -25 409 52 79 42&#xA;90 46 75 27 -28 -35 -55 -148 -60 -249 -6 -104 -5 -109 24 -170 65 -136 183&#xA;-227 346 -265 4 -1 28 -2 53 -3 l47 -1 -7 -82 c-4 -46 -13 -130 -21 -188 -8&#xA;-58 -19 -136 -25 -175 -5 -38 -22 -160 -37 -270 l-27 -200 -14 75 c-7 41 -14&#xA;80 -16 85 -17 64 -31 108 -44 145 -36 107 -117 254 -133 245 -5 -4 -7 0 -4 7&#xA;6 16 -82 131 -95 123 -6 -3 -7 0 -4 8 6 16 -64 83 -161 154 -77 57 -242 138&#xA;-327 160 -64 16 -69 17 -85 1 -15 -16 -15 -28 -5 -130 21 -204 26 -229 73&#xA;-396 35 -121 107 -284 122 -275 6 3 7 1 3 -5 -9 -15 23 -64 37 -55 6 3 7 1 3&#xA;-6 -14 -22 135 -190 251 -282 58 -47 298 -176 316 -171 5 1 6 -2 3 -7 -4 -5&#xA;-2 -12 3 -15 12 -8 4 -75 -31 -261 -46 -243 -194 -911 -242 -1090 -13 -49 -36&#xA;-135 -51 -190 -30 -116 -65 -232 -107 -362 -16 -51 -26 -98 -22 -104 5 -8 3&#xA;-9 -5 -5 -9 6 -12 -1 -9 -25 2 -28 8 -35 29 -37 14 -2 31 3 37 11 47 57 255&#xA;810 368 1337 37 172 38 176 78 215 22 22 39 44 38 48 -1 5 2 6 8 2 6 -4 30 5&#xA;53 18 23 14 119 55 212 92 273 108 367 164 527 314 122 115 175 180 157 193&#xA;-11 8 -11 9 3 4 13 -4 29 13 65 67 66 101 145 257 139 274 -3 8 -2 12 3 9 4&#xA;-3 21 25 36 62 15 37 42 103 61 146 43 105 38 116 -54 116 -102 0 -308 -43&#xA;-296 -61 3 -5 -2 -6 -11 -3 -8 4 -51 -8 -95 -26 -71 -29 -79 -34 -68 -49 12&#xA;-14 11 -14 -4 -2 -15 11 -26 8 -80 -22 -92 -52 -150 -96 -142 -109 4 -7 3 -8&#xA;-5 -4 -26 16 -259 -240 -246 -271 2 -8 1 -11 -5 -8 -12 8 -83 -122 -74 -136 4&#xA;-7 3 -9 -4 -5 -6 4 -25 -24 -48 -71 -41 -88 -117 -258 -128 -287 -18 -52 -13&#xA;9 19 190 19 109 37 222 41 249 3 28 8 53 10 56 3 6 36 217 60 394 16 122 19&#xA;144 33 260 21 174 41 317 45 324 3 4 18 8 34 9 123 9 258 111 320 240 29 61&#xA;35 87 39 160 3 48 1 111 -5 140 -5 28 -6 52 -3 52 4 0 27 -21 51 -46 138 -142&#xA;355 -207 516 -154 90 29 145 64 138 87 -5 15 -4 16 5 3 9 -13 17 -9 50 25 93&#xA;93 161 274 147 392 -18 155 -141 284 -328 343 l-37 11 62 34 c34 18 61 38 60&#xA;44 -2 6 3 8 10 5 25 -9 93 63 133 141 36 72 39 84 42 179 3 81 0 112 -16 156&#xA;-11 31 -25 54 -31 52 -7 -1 -10 2 -6 8 11 18 -48 105 -65 95 -4 -3 -7 3 -6 12&#xA;2 24 -91 91 -149 108 -83 24 -123 27 -198 15 -79 -14 -202 -64 -193 -79 4 -5&#xA;1 -13 -5 -17 -8 -4 -9 -3 -5 4 13 22 -13 12 -39 -14 -14 -14 -28 -24 -31 -21&#xA;-3 2 0 34 7 70 15 82 0 185 -37 259 -32 63 -112 151 -131 144 -8 -3 -11 -1 -8&#xA;4 9 15 -105 66 -176 79 -78 13 -88 13 -159 -3z m40 -16 c0 -5 -2 -10 -4 -10&#xA;-3 0 -8 5 -11 10 -3 6 -1 10 4 10 6 0 11 -4 11 -10z m85 0 c3 -6 -1 -7 -9 -4&#xA;-18 7 -21 14 -7 14 6 0 13 -4 16 -10z m-147 -35 c-3 -3 -9 2 -12 12 -6 14 -5&#xA;15 5 6 7 -7 10 -15 7 -18z m109 9 c-3 -3 -12 -4 -19 -1 -8 3 -5 6 6 6 11 1 17&#xA;-2 13 -5z m208 -14 c3 -6 -1 -7 -9 -4 -18 7 -21 14 -7 14 6 0 13 -4 16 -10z&#xA;m-54 -37 c69 -30 150 -110 180 -178 18 -40 23 -69 23 -150 1 -120 -4 -135&#xA;-101 -328 -40 -81 -71 -153 -67 -159 4 -6 3 -8 -4 -4 -5 3 -12 2 -14 -3 -1 -5&#xA;-34 1 -72 12 l-68 22 7 145 c13 234 12 244 -7 248 -31 6 -52 -93 -52 -253 l-1&#xA;-140 -65 0 c-36 0 -83 -3 -105 -8 l-40 -8 -47 128 c-58 156 -67 197 -68 292 0&#xA;158 65 304 164 365 92 57 233 65 337 19z m214 -133 c-3 -5 -12 -10 -18 -10 -7&#xA;0 -6 4 3 10 19 12 23 12 15 0z m-1125 -116 c0 -8 -19 -13 -24 -6 -3 5 1 9 9 9&#xA;8 0 15 -2 15 -3z m384 -20 c3 -8 2 -12 -4 -9 -6 3 -10 10 -10 16 0 14 7 11 14&#xA;-7z m-439 -12 c-3 -3 -11 0 -18 7 -9 10 -8 11 6 5 10 -3 15 -9 12 -12z m-65 4&#xA;c0 -2 -7 -7 -16 -10 -8 -3 -12 -2 -9 4 6 10 25 14 25 6z m261 -64 c36 -18 86&#xA;-51 112 -73 49 -43 118 -150 144 -224 11 -33 19 -43 31 -38 14 4 14 3 3 -5&#xA;-12 -9 -10 -21 14 -78 l29 -67 -24 -16 c-14 -9 -39 -29 -58 -45 -30 -27 -34&#xA;-27 -51 -12 -10 9 -21 13 -26 9 -4 -5 -5 -3 -2 4 12 20 -162 161 -183 148 -6&#xA;-4 -9 -1 -8 7 2 8 -9 14 -29 16 -47 5 -44 -28 5 -60 20 -14 63 -49 95 -77 32&#xA;-28 63 -48 69 -45 6 4 8 3 5 -3 -4 -5 7 -22 22 -37 l29 -28 -25 -56 c-14 -32&#xA;-27 -58 -27 -59 -1 -1 -20 2 -41 7 -22 5 -96 21 -165 36 -96 20 -146 37 -215&#xA;73 -49 25 -96 45 -102 44 -7 0 -11 3 -8 6 2 4 -16 27 -40 51 -64 63 -89 127&#xA;-90 225 0 118 44 200 145 270 71 49 134 66 236 62 80 -2 100 -7 155 -35z m259&#xA;8 c0 -5 -5 -10 -11 -10 -5 0 -7 5 -4 10 3 6 8 10 11 10 2 0 4 -4 4 -10z m982&#xA;-72 c-9 -9 -15 -9 -24 1 -11 10 -10 11 5 6 10 -5 17 -2 17 6 0 7 3 9 7 6 4 -4&#xA;1 -13 -5 -19z m273 -22 c30 -13 67 -37 82 -53 16 -15 30 -28 33 -29 19 -4 40&#xA;-18 40 -27 0 -5 -9 -2 -20 8 -27 24 -25 14 5 -31 66 -98 73 -275 15 -384 -24&#xA;-45 -85 -102 -144 -135 -87 -48 -184 -73 -311 -80 -60 -3 -123 -8 -140 -11&#xA;-30 -5 -30 -4 -48 63 -9 37 -18 74 -20 82 -1 8 51 46 128 92 71 43 135 86 142&#xA;95 9 13 13 14 13 4 0 -7 3 -10 6 -7 11 11 -17 37 -39 37 -21 0 -152 -68 -245&#xA;-127 l-53 -34 -46 41 c-25 22 -51 37 -57 33 -6 -3 -8 -3 -4 2 4 4 3 13 -2 20&#xA;-7 8 10 47 55 125 35 62 62 117 58 123 -3 6 -1 7 4 4 14 -9 47 29 37 44 -4 7&#xA;-3 10 3 6 5 -4 23 8 39 24 49 52 114 91 198 120 100 35 187 34 271 -5z m-335&#xA;0 c0 -2 -7 -7 -16 -10 -8 -3 -12 -2 -9 4 6 10 25 14 25 6z m-981 -50 c-3 -3&#xA;-11 5 -18 17 -13 21 -12 21 5 5 10 -10 16 -20 13 -22z m858 -2 c-3 -3 -12 -4&#xA;-19 -1 -8 3 -5 6 6 6 11 1 17 -2 13 -5z m14 -17 c-10 -9 -11 -8 -5 6 3 10 9&#xA;15 12 12 3 -3 0 -11 -7 -18z m-30 -30 c-10 -9 -11 -8 -5 6 3 10 9 15 12 12 3&#xA;-3 0 -11 -7 -18z m-1597 5 c3 -5 -1 -9 -9 -9 -8 0 -12 4 -9 9 3 4 7 8 9 8 2 0&#xA;6 -4 9 -8z m1191 -50 c-3 -3 -11 0 -18 7 -9 10 -8 11 6 5 10 -3 15 -9 12 -12z&#xA;m-1188 -79 c-3 -10 -5 -2 -5 17 0 19 2 27 5 18 2 -10 2 -26 0 -35z m1193 -23&#xA;c0 -5 -2 -10 -4 -10 -3 0 -8 5 -11 10 -3 6 -1 10 4 10 6 0 11 -4 11 -10z&#xA;m1107 -36 c-3 -3 -12 -4 -19 -1 -8 3 -5 6 6 6 11 1 17 -2 13 -5z m-916 -81&#xA;c-12 -20 -14 -14 -5 12 4 9 9 14 11 11 3 -2 0 -13 -6 -23z m-764 -38 c0 -8 -4&#xA;-12 -9 -9 -5 3 -6 10 -3 15 9 13 12 11 12 -6z m678 -68 c95 -46 157 -103 196&#xA;-183 30 -60 31 -70 26 -139 -12 -167 -120 -269 -316 -297 -191 -28 -375 57&#xA;-446 208 -64 135 -4 321 129 399 70 41 140 56 244 51 81 -4 103 -9 167 -39z&#xA;m-1174 -4 c13 -16 12 -17 -3 -4 -10 7 -18 15 -18 17 0 8 8 3 21 -13z m1539 -3&#xA;c0 -5 -2 -10 -4 -10 -3 0 -8 5 -11 10 -3 6 -1 10 4 10 6 0 11 -4 11 -10z m631&#xA;-13 c-10 -9 -11 -8 -5 6 3 10 9 15 12 12 3 -3 0 -11 -7 -18z m-831 -27 c0 -5&#xA;-2 -10 -4 -10 -3 0 -8 5 -11 10 -3 6 -1 10 4 10 6 0 11 -4 11 -10z m-1219 -53&#xA;c-10 -9 -11 -8 -5 6 3 10 9 15 12 12 3 -3 0 -11 -7 -18z m1293 -25 c3 -5 -1&#xA;-9 -9 -9 -8 0 -12 4 -9 9 3 4 7 8 9 8 2 0 6 -4 9 -8z m-1348 -44 c4 -7 3 -8&#xA;-4 -4 -7 4 -12 3 -12 -3 0 -5 6 -12 13 -14 9 -4 9 -6 0 -6 -15 -1 -26 16 -18&#xA;29 8 13 12 13 21 -2z m300 -37 c-3 -4 35 -16 83 -26 l89 -19 5 -60 c3 -33 4&#xA;-63 1 -67 -2 -4 -27 -10 -56 -14 -65 -9 -247 -71 -270 -92 -22 -20 -23 -53 -2&#xA;-53 8 0 53 13 98 29 115 41 258 69 264 52 8 -23 88 -116 99 -116 6 0 15 -4 20&#xA;-9 4 -5 3 -7 -3 -3 -6 3 -39 -23 -74 -58 -35 -36 -96 -86 -136 -112 -40 -26&#xA;-70 -51 -67 -57 3 -5 2 -6 -4 -3 -5 3 -45 -9 -89 -28 -141 -61 -272 -64 -372&#xA;-9 -24 13 -48 22 -55 20 -7 -1 -8 -1 -4 2 8 4 -73 97 -85 97 -3 0 -10 4 -15 9&#xA;-5 5 -3 6 5 2 14 -8 15 -5 6 18 -3 9 -10 14 -14 11 -5 -3 -12 0 -16 6 -4 8 -3&#xA;9 4 5 15 -9 15 -11 -3 48 -8 27 -15 63 -15 80 0 24 -3 27 -10 16 -6 -9 -10&#xA;-10 -10 -3 0 6 5 15 10 18 6 3 10 18 10 33 0 30 33 108 57 134 8 9 12 22 7 29&#xA;-5 8 -3 10 5 4 8 -4 23 3 39 18 74 68 188 101 359 102 75 0 129 4 126 9 -4 5&#xA;-1 6 6 2 6 -4 9 -11 7 -15z m1042 -6 c-3 -3 -9 2 -12 12 -6 14 -5 15 5 6 7 -7&#xA;10 -15 7 -18z m140 -90 c-3 -3 -9 2 -12 12 -6 14 -5 15 5 6 7 -7 10 -15 7 -18z&#xA;m-34 6 c4 -5 -3 -7 -14 -4 -23 6 -26 13 -6 13 8 0 17 -4 20 -9z m-917 -16 c0&#xA;-8 -4 -12 -9 -9 -5 3 -6 10 -3 15 9 13 12 11 12 -6z m1263 0 c-7 -8 -17 -15&#xA;-23 -15 -6 0 -2 7 9 15 25 19 30 19 14 0z m-104 -14 c-5 -7 70 -21 136 -25 14&#xA;0 24 -4 22 -8 -2 -3 9 -9 26 -13 44 -10 173 -97 205 -138 31 -41 55 -114 55&#xA;-166 0 -48 -26 -146 -50 -193 -11 -21 -18 -43 -16 -50 1 -7 1 -10 -1 -6 -2 3&#xA;-25 -16 -51 -44 -75 -81 -177 -128 -276 -128 -66 0 -167 31 -234 71 -36 22&#xA;-70 36 -80 33 -13 -5 -14 -4 -3 4 11 8 10 12 -6 21 -11 5 -24 7 -28 3 -5 -4&#xA;-5 -2 -2 4 6 10 -34 57 -44 52 -2 -2 -3 -1 -2 1 6 11 -41 62 -53 57 -7 -3 -16&#xA;0 -20 6 -4 7 -3 8 4 4 19 -12 14 3 -14 40 -14 18 -31 31 -37 27 -6 -3 -7 -1&#xA;-3 6 8 13 -43 101 -59 101 -5 0 10 11 35 24 25 13 45 29 45 34 0 6 4 14 9 19&#xA;5 5 6 3 2 -4 -10 -18 4 -16 25 3 10 9 16 21 15 27 -2 7 -1 8 2 4 2 -5 12 -1&#xA;21 7 15 14 25 11 101 -28 47 -23 114 -61 150 -84 73 -48 106 -60 123 -43 24&#xA;24 -136 144 -269 202 -27 12 -50 22 -51 23 -1 0 9 32 22 70 27 79 6 70 200 85&#xA;55 5 101 9 103 10 2 0 1 -3 -2 -8z m329 -51 c3 -5 2 -10 -4 -10 -5 0 -13 5&#xA;-16 10 -3 6 -2 10 4 10 5 0 13 -4 16 -10z m-638 -22 c-3 -8 -6 -5 -6 6 -1 11&#xA;2 17 5 13 3 -3 4 -12 1 -19z m-938 -42 c-3 -3 -11 5 -18 17 -13 21 -12 21 5 5&#xA;10 -10 16 -20 13 -22z m1646 4 c10 -11 16 -20 13 -20 -3 0 -13 9 -23 20 -10&#xA;11 -16 20 -13 20 3 0 13 -9 23 -20z m-1741 -6 c3 -8 2 -12 -4 -9 -6 3 -10 10&#xA;-10 16 0 14 7 11 14 -7z m46 -10 c0 -2 -7 -4 -15 -4 -8 0 -15 4 -15 10 0 5 7&#xA;7 15 4 8 -4 15 -8 15 -10z m1700 -24 c0 -5 -5 -10 -11 -10 -5 0 -7 5 -4 10 3&#xA;6 8 10 11 10 2 0 4 -4 4 -10z m-1845 -10 c-3 -5 -12 -10 -18 -10 -7 0 -6 4 3&#xA;10 19 12 23 12 15 0z m-608 -32 c-3 -8 -6 -5 -6 6 -1 11 2 17 5 13 3 -3 4 -12&#xA;1 -19z m2499 -4 c18 -15 18 -15 -2 -5 -12 6 -24 7 -28 4 -3 -3 -6 -1 -6 5 0&#xA;16 12 15 36 -4z m-2489 -96 c-3 -7 -5 -2 -5 12 0 14 2 19 5 13 2 -7 2 -19 0&#xA;-25z m1060 -24 c26 -14 56 -23 65 -20 10 2 16 0 13 -4 -3 -5 10 -12 30 -16 28&#xA;-5 34 -10 30 -24 -11 -35 -35 -236 -35 -296 0 -59 11 -84 37 -84 15 0 20 21&#xA;27 115 3 39 11 116 18 173 12 105 15 111 61 103 11 -2 132 18 154 25 11 4 14&#xA;3 6 -3 -14 -10 31 -90 48 -85 6 1 8 -1 5 -6 -3 -5 9 -49 26 -98 42 -123 51&#xA;-280 19 -368 -16 -47 -18 -62 -8 -68 9 -7 8 -8 -3 -6 -8 1 -39 -23 -69 -55&#xA;-65 -69 -133 -103 -232 -117 -211 -30 -408 63 -481 226 -41 93 -15 279 58 410&#xA;14 25 22 50 18 56 -4 6 -3 9 2 5 5 -3 43 32 84 78 41 46 76 84 77 85 1 0 24&#xA;-11 50 -26z m223 -4 c0 -5 -7 -7 -15 -4 -8 4 -15 8 -15 10 0 2 7 4 15 4 8 0&#xA;15 -4 15 -10z m50 0 c0 -5 -2 -10 -4 -10 -3 0 -8 5 -11 10 -3 6 -1 10 4 10 6&#xA;0 11 -4 11 -10z m75 -9 c3 -5 1 -12 -5 -16 -5 -3 -10 1 -10 9 0 18 6 21 15 7z&#xA;m1125 -68 c0 -5 -5 -15 -10 -23 -8 -12 -11 -13 -22 -2 -11 11 -10 13 2 10 8&#xA;-2 14 3 13 10 -2 6 2 12 7 12 6 0 10 -3 10 -7z m-40 -67 c0 -3 -4 -8 -10 -11&#xA;-5 -3 -10 -1 -10 4 0 6 5 11 10 11 6 0 10 -2 10 -4z m-23 -68 c-3 -7 -5 -2 -5&#xA;12 0 14 2 19 5 13 2 -7 2 -19 0 -25z m-1250 -7 c0 -11 -5 -18 -9 -15 -4 3 -5&#xA;11 -1 19 7 21 12 19 10 -4z m-697 -25 c0 -2 -7 -7 -16 -10 -8 -3 -12 -2 -9 4&#xA;6 10 25 14 25 6z m667 -91 c0 -8 -4 -12 -9 -9 -5 3 -6 10 -3 15 9 13 12 11 12&#xA;-6z m-457 -145 c0 -5 -8 -10 -17 -10 -15 0 -16 2 -3 10 19 12 20 12 20 0z&#xA;m-10 -30 c-8 -5 -19 -10 -25 -10 -5 0 -3 5 5 10 8 5 20 10 25 10 6 0 3 -5 -5&#xA;-10z m873 -145 c-3 -9 -8 -14 -10 -11 -3 3 -2 9 2 15 9 16 15 13 8 -4z m-813&#xA;1 c0 -2 -7 -7 -16 -10 -8 -3 -12 -2 -9 4 6 10 25 14 25 6z m750 -40 c0 -2 -8&#xA;-10 -17 -17 -16 -13 -17 -12 -4 4 13 16 21 21 21 13z m-625 -86 c3 -6 -1 -7&#xA;-9 -4 -18 7 -21 14 -7 14 6 0 13 -4 16 -10z m541 -39 c-6 -9 -46 -22 -46 -15&#xA;0 3 10 9 23 14 29 11 29 11 23 1z m-411 -49 c-3 -3 -11 0 -18 7 -9 10 -8 11 6&#xA;5 10 -3 15 -9 12 -12z m-751 -21 c-8 -8 178 -91 189 -84 6 3 7 1 3 -5 -4 -6&#xA;14 -25 41 -43 25 -18 79 -63 118 -101 40 -37 76 -64 80 -60 5 4 5 1 1 -6 -10&#xA;-17 21 -52 40 -45 8 3 14 0 14 -7 0 -6 -4 -8 -10 -5 -15 9 -12 0 11 -39 12&#xA;-20 26 -33 32 -29 6 3 7 1 3 -5 -4 -6 4 -28 17 -49 72 -116 135 -322 157 -520&#xA;14 -120 9 -145 -15 -83 -102 254 -403 720 -465 720 -17 0 -23 -29 -10 -46 11&#xA;-12 15 -12 23 -2 6 10 7 8 3 -4 -3 -11 32 -73 99 -173 155 -232 332 -577 287&#xA;-560 -52 19 -186 101 -247 150 -64 51 -71 54 -82 39 -7 -10 -13 -13 -13 -7 0&#xA;7 4 15 10 18 5 3 -18 39 -52 80 -34 41 -65 72 -68 70 -4 -2 -7 1 -7 8 0 7 -11&#xA;30 -25 52 -49 77 -86 161 -117 260 -34 111 -76 314 -86 417 l-6 66 39 -1 c22&#xA;-1 38 -4 36 -6z m883 -103 c-3 -8 -6 -5 -6 6 -1 11 2 17 5 13 3 -3 4 -12 1&#xA;-19z m-502 -110 c5 4 5 1 1 -6 -6 -10 -11 -10 -22 -1 -8 6 -14 14 -14 16 0 3&#xA;6 0 13 -6 8 -6 18 -7 22 -3z m510 -16 c-3 -3 -11 0 -18 7 -9 10 -8 11 6 5 10&#xA;-3 15 -9 12 -12z m-22 -27 c-3 -9 -8 -14 -10 -11 -3 3 -2 9 2 15 9 16 15 13 8&#xA;-4z m17 -29 c0 -2 -7 -9 -15 -16 -13 -11 -14 -10 -9 4 5 14 24 23 24 12z m10&#xA;-80 c-4 -4 -16 -4 -26 2 -16 9 -14 10 8 9 15 -1 23 -6 18 -11z m-53 -48 c-3&#xA;-7 -5 -2 -5 12 0 14 2 19 5 13 2 -7 2 -19 0 -25z m-4 -33 c-3 -9 -8 -14 -10&#xA;-11 -3 3 -2 9 2 15 9 16 15 13 8 -4z m55 -10 c-3 -3 -9 2 -12 12 -6 14 -5 15&#xA;5 6 7 -7 10 -15 7 -18z m-568 -39 c0 -12 -5 -7 -19 24 -11 24 -11 24 3 6 9&#xA;-11 16 -24 16 -30z m1405 5 c3 -5 2 -12 -3 -15 -5 -3 -9 1 -9 9 0 17 3 19 12&#xA;6z m-1743 -25 c7 4 8 2 4 -5 -10 -15 -26 -4 -25 17 1 15 2 15 6 -1 2 -9 9 -14&#xA;15 -11z m1978 20 c0 -2 -23 -59 -51 -127 -109 -268 -228 -456 -381 -605 -169&#xA;-166 -242 -211 -493 -310 -93 -36 -174 -70 -179 -75 -22 -20 -26 -7 -7 17 11&#xA;15 18 31 14 37 -3 5 -2 7 4 4 5 -3 20 7 31 23 27 36 28 44 1 37 -17 -4 -18 -3&#xA;-8 9 8 10 15 11 24 4 9 -8 24 3 56 42 121 147 232 269 383 423 150 153 189&#xA;205 154 205 -49 0 -471 -411 -453 -441 4 -5 1 -8 -7 -7 -7 2 -12 -3 -10 -10 1&#xA;-8 -2 -11 -6 -8 -9 5 -52 -42 -134 -146 -39 -48 -47 -65 -26 -52 7 4 8 3 4 -5&#xA;-4 -6 -11 -9 -16 -6 -5 3 -13 -3 -19 -12 -18 -32 -12 6 10 60 39 95 51 121&#xA;111 242 81 160 165 283 257 373 42 41 68 72 58 69 -11 -4 -16 -3 -12 4 4 6 14&#xA;8 21 5 9 -3 36 11 62 32 68 53 242 137 347 167 110 32 265 62 265 51z m14 -42&#xA;c3 -8 2 -12 -4 -9 -6 3 -10 10 -10 16 0 14 7 11 14 -7z m-374 -21 c0 -1 -8 -7&#xA;-18 -12 -13 -7 -19 -6 -19 2 0 7 9 13 19 13 10 0 18 -1 18 -3z m-783 -25 c-3&#xA;-8 -6 -5 -6 6 -1 11 2 17 5 13 3 -3 4 -12 1 -19z m48 -8 c3 -5 1 -10 -4 -10&#xA;-6 0 -11 5 -11 10 0 6 2 10 4 10 3 0 8 -4 11 -10z m-204 -39 c6 -14 5 -20 -1&#xA;-16 -6 3 -10 12 -10 20 0 7 -3 15 -7 18 -5 2 -4 3 1 2 5 0 13 -11 17 -24z&#xA;m829 25 c0 -3 -4 -8 -10 -11 -5 -3 -10 -1 -10 4 0 6 5 11 10 11 6 0 10 -2 10&#xA;-4z m-1105 -24 c-3 -3 -11 0 -18 7 -9 10 -8 11 6 5 10 -3 15 -9 12 -12z m455&#xA;-5 c0 -2 -8 -11 -18 -20 -15 -14 -19 -15 -19 -2 0 8 4 12 8 9 4 -2 10 0 14 6&#xA;6 10 15 14 15 7z m577 -3 c-3 -3 -12 -4 -19 -1 -8 3 -5 6 6 6 11 1 17 -2 13&#xA;-5z m-987 -10 c0 -8 -19 -13 -24 -6 -3 5 1 9 9 9 8 0 15 -2 15 -3z m914 -20&#xA;c3 -8 2 -12 -4 -9 -6 3 -10 10 -10 16 0 14 7 11 14 -7z m66 12 c0 -2 -7 -7&#xA;-16 -10 -8 -3 -12 -2 -9 4 6 10 25 14 25 6z m-594 -38 c4 -7 3 -8 -4 -4 -7 4&#xA;-12 0 -12 -10 0 -10 -3 -15 -6 -11 -7 6 2 37 10 37 3 0 8 -5 12 -12z m534 -3&#xA;c0 -2 -6 -8 -13 -14 -10 -8 -14 -7 -14 2 0 8 6 14 14 14 7 0 13 -1 13 -2z&#xA;m-1233 -67 c-3 -8 -6 -5 -6 6 -1 11 2 17 5 13 3 -3 4 -12 1 -19z m7 -44 c3 -8&#xA;2 -12 -4 -9 -6 3 -10 10 -10 16 0 14 7 11 14 -7z m653 -36 c-3 -8 -6 -5 -6 6&#xA;-1 11 2 17 5 13 3 -3 4 -12 1 -19z m727 6 c3 -8 2 -12 -4 -9 -6 3 -10 10 -10&#xA;16 0 14 7 11 14 -7z m-817 -26 c-3 -8 -6 -5 -6 6 -1 11 2 17 5 13 3 -3 4 -12&#xA;1 -19z m-113 -34 c3 -8 2 -12 -4 -9 -6 3 -10 10 -10 16 0 14 7 11 14 -7z m499&#xA;-19 c-3 -9 -8 -14 -10 -11 -3 3 -2 9 2 15 9 16 15 13 8 -4z m-288 -54 c-6 -5&#xA;-25 10 -25 20 0 5 6 4 14 -3 8 -7 12 -15 11 -17z m-72 -6 c-3 -9 -8 -14 -10&#xA;-11 -3 3 -2 9 2 15 9 16 15 13 8 -4z m-411 -37 c-8 -8 -9 -4 -5 13 4 13 8 18&#xA;11 10 2 -7 -1 -18 -6 -23z m1483 12 c-3 -5 -12 -10 -18 -10 -7 0 -6 4 3 10 19&#xA;12 23 12 15 0z m-1147 -35 c-3 -3 -9 2 -12 12 -6 14 -5 15 5 6 7 -7 10 -15 7&#xA;-18z m87 -34 c3 -5 2 -12 -3 -15 -5 -3 -9 1 -9 9 0 17 3 19 12 6z m910 -81 c3&#xA;-5 1 -10 -4 -10 -6 0 -11 5 -11 10 0 6 2 10 4 10 3 0 8 -4 11 -10z m15 -33 c0&#xA;-2 -12 -14 -27 -28 l-28 -24 24 28 c23 25 31 32 31 24z m-75 -55 c-3 -3 -11 0&#xA;-18 7 -9 10 -8 11 6 5 10 -3 15 -9 12 -12z m-838 -14 c-3 -8 -6 -5 -6 6 -1 11&#xA;2 17 5 13 3 -3 4 -12 1 -19z m278 -58 c-3 -5 -1 -10 6 -10 7 0 10 -3 6 -6 -9&#xA;-9 -28 6 -22 17 4 5 8 9 11 9 3 0 2 -4 -1 -10z m-150 -40 c3 -5 1 -10 -4 -10&#xA;-6 0 -11 5 -11 10 0 6 2 10 4 10 3 0 8 -4 11 -10z m98 -75 c-3 -9 -8 -14 -10&#xA;-11 -3 3 -2 9 2 15 9 16 15 13 8 -4z m-232 -18 c-10 -9 -11 -8 -5 6 3 10 9 15&#xA;12 12 3 -3 0 -11 -7 -18z m-64 -49 c-3 -7 -5 -2 -5 12 0 14 2 19 5 13 2 -7 2&#xA;-19 0 -25z m54 -21 c-10 -9 -11 -8 -5 6 3 10 9 15 12 12 3 -3 0 -11 -7 -18z&#xA;m-64 -19 c-3 -8 -6 -5 -6 6 -1 11 2 17 5 13 3 -3 4 -12 1 -19z m86 -41 c3 -8&#xA;-1 -14 -8 -14 -7 0 -11 6 -8 14 3 7 6 13 8 13 2 0 5 -6 8 -13z m-89 -13 c3 -8&#xA;2 -12 -4 -9 -6 3 -10 10 -10 16 0 14 7 11 14 -7z m-47 -216 c-3 -7 -5 -2 -5&#xA;12 0 14 2 19 5 13 2 -7 2 -19 0 -25z m30 -90 c-3 -8 -6 -5 -6 6 -1 11 2 17 5&#xA;13 3 -3 4 -12 1 -19z m-27 -138 c0 -5 -5 -10 -11 -10 -5 0 -7 5 -4 10 3 6 8&#xA;10 11 10 2 0 4 -4 4 -10z m-103 -212 c-3 -8 -6 -5 -6 6 -1 11 2 17 5 13 3 -3&#xA;4 -12 1 -19z m-10 -60 c-3 -8 -6 -5 -6 6 -1 11 2 17 5 13 3 -3 4 -12 1 -19z&#xA;m48 -36 c-3 -3 -11 0 -18 7 -9 10 -8 11 6 5 10 -3 15 -9 12 -12z m-78 -64 c-3&#xA;-8 -6 -5 -6 6 -1 11 2 17 5 13 3 -3 4 -12 1 -19z m-43 -386 c3 -5 -1 -9 -9 -9&#xA;-8 0 -12 4 -9 9 3 4 7 8 9 8 2 0 6 -4 9 -8z m-201 -522 c3 -11 1 -18 -4 -14&#xA;-5 3 -9 12 -9 20 0 20 7 17 13 -6z"/>
    <path d="M3206 5644 c-22 -21 -20 -51 4 -64 38 -21 80 22 60 61 -13 23 -43 25&#xA;-64 3z"/>
    <path d="M3031 5511 c-7 -5 -11 -13 -7 -19 3 -6 1 -14 -5 -18 -8 -4 -9 -3 -5&#xA;4 4 7 2 12 -3 12 -11 0 -15 -13 -12 -40 2 -13 1 -13 -8 0 -9 13 -15 10 -36&#xA;-15 -13 -16 -24 -39 -22 -50 2 -17 9 -20 42 -19 32 1 45 8 71 38 35 40 48 84&#xA;32 104 -12 14 -27 15 -47 3z m-34 -127 c-3 -3 -12 -4 -19 -1 -8 3 -5 6 6 6 11&#xA;1 17 -2 13 -5z"/>
    <path d="M1776 5367 c-20 -15 -11 -51 11 -43 8 3 11 2 8 -4 -15 -24 105 -49&#xA;125 -25 19 22 5 44 -42 65 -50 23 -78 25 -102 7z"/>
    <path d="M1446 5299 c-45 -39 -59 -64 -51 -89 11 -33 51 -24 101 22 34 32 44&#xA;47 42 67 -5 40 -47 40 -92 0z m48 3 c3 -5 -1 -9 -9 -9 -8 0 -12 4 -9 9 3 4 7&#xA;8 9 8 2 0 6 -4 9 -8z m-51 -87 c-3 -9 -8 -14 -10 -11 -3 3 -2 9 2 15 9 16 15&#xA;13 8 -4z"/>
    <path d="M4916 5285 c-74 -30 -109 -63 -146 -139 -25 -49 -30 -71 -30 -133 0&#xA;-40 -4 -73 -8 -73 -5 0 -21 13 -36 29 -15 16 -55 41 -89 56 -50 23 -70 27&#xA;-117 22 -64 -5 -124 -32 -114 -49 5 -7 3 -8 -5 -3 -16 10 -79 -50 -97 -92 -26&#xA;-60 -19 -99 43 -242 5 -10 0 -12 -17 -6 -61 20 -228 -5 -223 -33 2 -6 -3 -9&#xA;-10 -7 -17 6 -39 -13 -71 -59 -36 -54 -37 -141 -1 -212 34 -69 63 -94 140&#xA;-119 61 -21 63 -23 40 -33 -74 -34 -165 -165 -165 -238 0 -69 56 -168 117&#xA;-205 50 -31 142 -33 223 -6 l66 22 -23 -45 c-54 -106 -51 -212 8 -283 58 -71&#xA;169 -98 254 -63 50 21 120 79 148 122 12 19 24 34 27 34 3 0 6 -20 7 -44 3&#xA;-54 36 -142 52 -138 7 1 10 -2 7 -7 -11 -17 78 -87 128 -101 40 -11 57 -11 98&#xA;-1 27 7 51 11 53 9 2 -2 7 -53 10 -113 4 -61 8 -123 11 -140 6 -49 18 -1015&#xA;12 -1015 -4 0 -12 33 -18 73 -17 98 -73 280 -122 397 -93 219 -224 385 -422&#xA;534 -90 68 -311 169 -373 170 -17 1 -29 4 -27 8 2 3 -10 9 -27 13 -47 11 -66&#xA;-13 -51 -62 7 -21 33 -123 58 -228 25 -104 51 -210 58 -235 50 -166 62 -202&#xA;84 -257 13 -35 28 -60 33 -57 5 3 6 -1 3 -9 -7 -20 99 -223 115 -219 7 1 10&#xA;-2 6 -8 -11 -18 23 -60 43 -54 13 5 14 4 3 -4 -12 -8 -9 -17 17 -49 38 -48&#xA;126 -132 221 -212 57 -49 76 -60 83 -49 8 10 9 9 5 -4 -4 -11 11 -30 46 -59&#xA;91 -76 138 -122 189 -187 l50 -62 -7 -148 c-3 -81 -15 -234 -26 -340 -21 -208&#xA;-18 -236 24 -230 12 2 27 14 34 28 16 34 32 181 52 479 l9 125 61 58 c37 36&#xA;59 64 55 71 -4 7 -4 9 1 5 11 -11 36 12 28 25 -3 5 -2 7 4 4 5 -4 21 4 34 16&#xA;13 12 60 53 104 91 150 129 235 209 291 273 46 52 54 66 44 78 -9 11 -9 15 -1&#xA;15 6 0 11 -5 11 -11 0 -20 26 8 70 76 24 37 39 69 34 76 -4 7 -3 9 4 5 14 -8&#xA;36 30 26 46 -4 7 -3 8 4 4 7 -4 20 10 33 35 28 55 87 219 104 289 7 30 20 82&#xA;29 115 34 127 107 548 97 558 -14 14 -72 -4 -179 -54 -47 -22 -81 -43 -77 -49&#xA;3 -5 0 -7 -8 -4 -11 4 -129 -56 -147 -76 -3 -3 -21 -17 -40 -31 -96 -72 -259&#xA;-249 -322 -349 -80 -127 -164 -310 -154 -336 3 -8 2 -12 -3 -9 -9 5 -30 -57&#xA;-54 -157 -7 -27 -14 -48 -17 -48 -3 0 -6 195 -7 433 -2 407 -15 704 -32 772&#xA;-6 23 -1 48 22 105 20 50 30 94 31 132 1 40 4 54 12 47 6 -5 14 -6 18 -2 4 4&#xA;4 0 1 -8 -8 -21 93 -113 141 -129 20 -7 64 -10 99 -8 75 5 131 37 172 100 24&#xA;36 28 52 28 112 0 60 -5 79 -29 124 -18 31 -35 51 -42 48 -8 -3 -11 0 -7 9 3&#xA;10 10 12 21 6 32 -17 127 -22 197 -11 128 20 197 91 203 210 3 53 0 75 -16&#xA;107 -23 45 -108 125 -160 152 l-34 18 56 22 c95 39 156 132 156 237 0 62 -28&#xA;137 -48 129 -7 -3 -10 0 -7 6 4 5 1 16 -5 25 -10 11 -16 12 -29 2 -9 -7 -13&#xA;-8 -9 -4 4 5 2 16 -5 25 -11 14 -10 15 7 1 17 -13 19 -13 15 0 -14 44 -149 69&#xA;-252 47 l-38 -8 26 51 c58 115 21 277 -75 330 -35 19 -60 24 -110 24 -84 1&#xA;-144 -28 -227 -110 l-62 -61 -6 51 c-8 62 -54 162 -73 158 -8 -1 -11 2 -7 8&#xA;10 16 -55 69 -113 90 -69 26 -124 25 -196 -5z m174 -1 c0 -8 -19 -13 -24 -6&#xA;-3 5 1 9 9 9 8 0 15 -2 15 -3z m-177 -34 c-3 -12 -8 -19 -11 -16 -5 6 5 36 12&#xA;36 2 0 2 -9 -1 -20z m94 4 c-3 -3 -12 -4 -19 -1 -8 3 -5 6 6 6 11 1 17 -2 13&#xA;-5z m53 -25 c63 -14 113 -52 143 -107 25 -47 52 -167 43 -194 -3 -7 -7 -29&#xA;-10 -48 -3 -19 -20 -84 -38 -144 l-33 -110 -80 -1 c-44 -1 -100 -8 -124 -14&#xA;-23 -7 -44 -11 -45 -9 -7 12 -96 251 -104 282 -6 21 -10 73 -8 115 4 116 53&#xA;194 139 225 51 18 60 18 117 5z m-270 -103 c0 -2 -8 -10 -17 -17 -16 -13 -17&#xA;-12 -4 4 13 16 21 21 21 13z m-17 -57 c-8 -8 -13 -7 -18 2 -5 8 -4 10 3 5 7&#xA;-4 12 -2 12 5 0 7 3 9 7 6 4 -4 2 -12 -4 -18z m902 13 c-2 -2 13 -18 32 -36&#xA;30 -27 36 -41 40 -83 6 -62 -17 -138 -61 -205 -29 -44 -250 -248 -269 -248 -5&#xA;0 -28 14 -53 31 -25 17 -65 39 -90 51 -34 15 -44 24 -40 36 26 83 72 197 97&#xA;240 16 29 27 58 23 64 -4 6 -3 8 3 5 6 -4 29 16 52 44 24 27 66 63 94 79 45&#xA;26 61 30 114 28 34 -2 60 -4 58 -6z m-385 -42 c0 -5 -5 -10 -11 -10 -5 0 -7 5&#xA;-4 10 3 6 8 10 11 10 2 0 4 -4 4 -10z m-733 -46 c-3 -3 -12 -4 -19 -1 -8 3 -5&#xA;6 6 6 11 1 17 -2 13 -5z m38 -35 c71 -33 138 -117 206 -257 34 -68 59 -125 57&#xA;-126 -1 -2 -16 -10 -33 -19 -44 -22 -116 -87 -109 -98 10 -17 -6 -9 -49 22&#xA;-23 16 -81 56 -129 87 -47 32 -104 73 -125 92 -21 19 -42 34 -46 32 -5 -1 -6&#xA;2 -3 7 4 5 -3 28 -15 51 -27 52 -23 129 10 164 11 12 18 26 14 31 -5 4 -2 5 5&#xA;1 7 -4 18 -3 25 2 45 35 130 40 192 11z m129 -75 c3 -8 2 -12 -4 -9 -6 3 -10&#xA;10 -10 16 0 14 7 11 14 -7z m1043 -9 c0 -8 -4 -12 -9 -9 -5 3 -6 10 -3 15 9&#xA;13 12 11 12 -6z m-953 -73 c3 -5 -1 -9 -9 -9 -8 0 -12 4 -9 9 3 4 7 8 9 8 2 0&#xA;6 -4 9 -8z m406 -59 c-11 -17 -11 -17 -6 0 3 10 6 24 7 30 0 9 2 9 5 0 3 -7 0&#xA;-20 -6 -30z m784 -11 c3 -5 -1 -9 -9 -9 -8 0 -12 4 -9 9 3 4 7 8 9 8 2 0 6 -4&#xA;9 -8z m-1663 -45 c-10 -9 -11 -8 -5 6 3 10 9 15 12 12 3 -3 0 -11 -7 -18z&#xA;m1628 -7 c44 -22 88 -70 97 -106 17 -66 -25 -170 -84 -209 -70 -46 -118 -56&#xA;-302 -65 -96 -4 -178 -6 -182 -3 -5 2 -8 19 -8 36 0 18 -9 50 -19 73 l-18 40&#xA;97 84 c54 46 110 90 124 97 15 8 24 19 20 25 -4 6 -3 8 3 5 5 -3 38 5 74 18&#xA;79 30 147 32 198 5z m-1095 -62 c8 -5 7 -8 -1 -8 -7 0 -17 9 -23 19 -14 27&#xA;-12 41 2 16 6 -11 16 -23 22 -27z m734 22 c-7 -10 -14 -17 -17 -15 -4 4 18 35&#xA;25 35 2 0 -1 -9 -8 -20z m-1428 -30 c-8 -5 -19 -10 -25 -10 -5 0 -3 5 5 10 8&#xA;5 20 10 25 10 6 0 3 -5 -5 -10z m275 -8 c-3 -3 -11 0 -18 7 -9 10 -8 11 6 5&#xA;10 -3 15 -9 12 -12z m594 -14 c-5 -10 -11 -18 -12 -18 -2 0 -3 8 -3 18 0 10 6&#xA;19 13 19 8 0 9 -6 2 -19z m104 15 c-7 -2 -19 -2 -25 0 -7 3 -2 5 12 5 14 0 19&#xA;-2 13 -5z m-814 -24 c55 -12 164 -66 257 -126 l70 -46 -18 -36 c-10 -20 -21&#xA;-52 -24 -73 -6 -34 -9 -36 -48 -41 -22 -2 -98 -5 -167 -6 -109 -2 -135 1 -202&#xA;22 -42 14 -77 23 -77 21 0 -2 -17 14 -39 35 -49 48 -67 100 -52 150 12 43 56&#xA;88 97 101 40 12 150 12 203 -1z m1748 -41 c-3 -7 -5 -2 -5 12 0 14 2 19 5 13&#xA;2 -7 2 -19 0 -25z m-841 -13 c32 -14 66 -33 75 -41 9 -8 22 -14 29 -12 7 2 14&#xA;-4 15 -12 1 -9 14 -33 29 -54 44 -65 47 -146 8 -236 -22 -50 -112 -141 -166&#xA;-166 -19 -10 -33 -21 -31 -25 3 -3 -1 -6 -8 -6 -6 1 -43 -4 -82 -12 -42 -8&#xA;-94 -11 -130 -7 -33 4 -74 7 -92 9 -17 1 -29 5 -27 8 2 3 -11 13 -29 21 -124&#xA;59 -180 183 -141 311 15 51 29 73 79 122 64 65 104 88 200 117 83 25 192 18&#xA;271 -17z m-1253 -40 c-3 -9 -8 -14 -10 -11 -3 3 -2 9 2 15 9 16 15 13 8 -4z&#xA;m637 11 c0 -2 -8 -10 -17 -17 -16 -13 -17 -12 -4 4 13 16 21 21 21 13z m836&#xA;-128 c4 -7 3 -8 -4 -4 -7 4 -12 2 -12 -3 0 -6 -5 -11 -11 -11 -8 0 -8 5 1 15&#xA;15 18 17 18 26 3z m12 -69 c-3 -8 -7 -3 -11 10 -4 17 -3 21 5 13 5 -5 8 -16 6&#xA;-23z m-1431 6 c0 -8 -4 -12 -9 -9 -5 3 -6 10 -3 15 9 13 12 11 12 -6z m1407&#xA;-11 c3 -8 2 -12 -4 -9 -6 3 -10 10 -10 16 0 14 7 11 14 -7z m163 -50 c-3 -3&#xA;-12 -4 -19 -1 -8 3 -5 6 6 6 11 1 17 -2 13 -5z m-1117 -14 c0 -5 -7 -7 -15 -4&#xA;-8 4 -15 8 -15 10 0 2 7 4 15 4 8 0 15 -4 15 -10z m-303 -6 c-3 -3 -12 -4 -19&#xA;-1 -8 3 -5 6 6 6 11 1 17 -2 13 -5z m1281 -19 c-3 -3 -9 2 -12 12 -6 14 -5 15&#xA;5 6 7 -7 10 -15 7 -18z m298 14 c111 -15 179 -43 230 -95 56 -57 68 -100 48&#xA;-163 -21 -61 -56 -97 -109 -110 -127 -32 -247 3 -427 125 -117 80 -111 71 -85&#xA;105 18 26 19 31 7 40 -12 8 -11 9 4 7 18 -3 32 21 52 90 4 15 170 16 280 1z&#xA;m-1416 -25 c0 -2 -9 0 -20 6 -11 6 -20 13 -20 16 0 2 9 0 20 -6 11 -6 20 -13&#xA;20 -16z m115 -2 c-3 -3 -11 0 -18 7 -9 10 -8 11 6 5 10 -3 15 -9 12 -12z&#xA;m1520 0 c-3 -3 -11 0 -18 7 -9 10 -8 11 6 5 10 -3 15 -9 12 -12z m-1375 -22&#xA;c0 -32 31 -100 43 -93 6 3 7 1 3 -6 -4 -6 -4 -17 1 -24 5 -7 10 -23 11 -37 1&#xA;-19 -1 -21 -8 -10 -8 12 -17 7 -52 -27 -121 -116 -333 -202 -426 -172 -47 15&#xA;-69 34 -93 81 -24 48 -24 79 2 131 28 55 56 85 103 109 78 40 123 50 251 57&#xA;72 5 138 9 148 9 11 1 17 -5 17 -18z m841 -3 c-10 -9 -11 -8 -5 6 3 10 9 15&#xA;12 12 3 -3 0 -11 -7 -18z m-24 -13 c-3 -3 -12 -4 -19 -1 -8 3 -5 6 6 6 11 1&#xA;17 -2 13 -5z m-727 -78 c0 -2 -8 -10 -17 -17 -16 -13 -17 -12 -4 4 13 16 21&#xA;21 21 13z m713 -113 c61 -43 164 -131 214 -183 47 -48 83 -125 83 -175 0 -72&#xA;-60 -139 -135 -151 -22 -3 -44 -8 -49 -12 -5 -3 -6 0 -3 5 4 6 -4 14 -17 17&#xA;-34 8 -118 87 -156 145 -45 71 -138 296 -126 308 9 9 122 82 128 82 4 1 32&#xA;-16 61 -36z m-728 -3 c-8 -13 8 -13 22 1 7 7 30 0 77 -25 37 -20 76 -36 87&#xA;-36 16 0 18 -4 10 -18 -15 -27 -94 -265 -94 -284 -1 -9 -4 -15 -8 -12 -11 6&#xA;-41 -45 -33 -58 4 -6 3 -8 -3 -5 -13 8 -86 -67 -76 -78 5 -4 3 -5 -3 -2 -7 4&#xA;-28 0 -48 -8 -49 -21 -76 -19 -129 9 -25 14 -49 21 -53 18 -4 -4 -4 -2 0 5 4&#xA;7 0 25 -8 41 -39 75 22 234 124 322 33 28 57 56 54 61 -3 5 -1 8 5 7 16 -5 72&#xA;36 67 49 -3 6 -2 14 1 17 10 10 15 7 8 -4z m532 -22 c-3 -8 -6 -5 -6 6 -1 11&#xA;2 17 5 13 3 -3 4 -12 1 -19z m-207 -12 c0 -3 -4 -8 -10 -11 -5 -3 -10 -1 -10&#xA;4 0 6 5 11 10 11 6 0 10 -2 10 -4z m65 -24 c-3 -3 -11 0 -18 7 -9 10 -8 11 6&#xA;5 10 -3 15 -9 12 -12z m39 10 c3 -5 -1 -9 -9 -9 -8 0 -12 4 -9 9 3 4 7 8 9 8&#xA;2 0 6 -4 9 -8z m60 -49 c4 -21 19 -76 34 -123 23 -73 26 -103 27 -210 0 -71 4&#xA;-129 10 -133 6 -5 3 -7 -6 -4 -15 5 -41 -30 -43 -58 -1 -5 -8 -10 -16 -11 -8&#xA;0 -28 -5 -43 -12 -40 -17 -100 -15 -142 5 -46 22 -95 95 -95 140 0 19 -3 32&#xA;-7 30 -5 -3 -5 52 -2 121 5 98 12 143 32 199 18 50 22 73 14 76 -7 2 15 2 48&#xA;0 33 -2 80 0 105 5 75 16 77 15 84 -25z m863 15 c-3 -8 -6 -5 -6 6 -1 11 2 17&#xA;5 13 3 -3 4 -12 1 -19z m-1486 -31 c-10 -9 -11 -8 -5 6 3 10 9 15 12 12 3 -3&#xA;0 -11 -7 -18z m1376 -53 c-3 -3 -12 -4 -19 -1 -8 3 -5 6 6 6 11 1 17 -2 13 -5z&#xA;m-1096 -121 c-12 -20 -14 -14 -5 12 4 9 9 14 11 11 3 -2 0 -13 -6 -23z m426&#xA;-65 c-3 -8 -6 -5 -6 6 -1 11 2 17 5 13 3 -3 4 -12 1 -19z m470 -10 c-3 -8 -6&#xA;-5 -6 6 -1 11 2 17 5 13 3 -3 4 -12 1 -19z m-353 -46 c3 -5 -1 -9 -9 -9 -8 0&#xA;-12 4 -9 9 3 4 7 8 9 8 2 0 6 -4 9 -8z m321 -100 c-3 -3 -11 0 -18 7 -9 10 -8&#xA;11 6 5 10 -3 15 -9 12 -12z m-104 -50 c-7 -2 -18 1 -23 6 -8 8 -4 9 13 5 13&#xA;-4 18 -8 10 -11z m-1008 1 c-7 -2 -19 -2 -25 0 -7 3 -2 5 12 5 14 0 19 -2 13&#xA;-5z m-56 -19 c-3 -3 -12 -4 -19 -1 -8 3 -5 6 6 6 11 1 17 -2 13 -5z m38 -4 c3&#xA;-5 -1 -10 -10 -10 -9 0 -13 5 -10 10 3 6 8 10 10 10 2 0 7 -4 10 -10z m555&#xA;-94 c0 -3 -4 -8 -10 -11 -5 -3 -10 -1 -10 4 0 6 5 11 10 11 6 0 10 -2 10 -4z&#xA;m85 -66 c-3 -5 -12 -10 -18 -10 -7 0 -6 4 3 10 19 12 23 12 15 0z m-985 -65&#xA;c0 -2 -6 -5 -13 -8 -8 -3 -14 1 -14 8 0 7 6 11 14 8 7 -3 13 -6 13 -8z m2047&#xA;-17 c-3 -8 -6 -5 -6 6 -1 11 2 17 5 13 3 -3 4 -12 1 -19z m-1020 -10 c-3 -8&#xA;-6 -5 -6 6 -1 11 2 17 5 13 3 -3 4 -12 1 -19z m-44 -3 c-3 -9 -8 -14 -10 -11&#xA;-3 3 -2 9 2 15 9 16 15 13 8 -4z m-913 -21 c0 -8 -19 -13 -24 -6 -3 5 1 9 9 9&#xA;8 0 15 -2 15 -3z m0 -28 c166 -51 315 -139 438 -260 51 -50 114 -121 139 -158&#xA;32 -47 50 -65 62 -61 11 3 12 2 4 -4 -10 -7 -2 -32 33 -103 25 -51 58 -128 74&#xA;-170 26 -71 82 -280 96 -360 40 -234 44 -293 14 -220 -7 16 -16 27 -21 24 -5&#xA;-3 -6 1 -3 9 3 8 -8 42 -25 76 -24 47 -35 59 -48 55 -14 -5 -15 -4 -4 4 10 8&#xA;3 30 -40 113 -95 187 -266 456 -287 452 -6 -2 -9 3 -6 11 7 17 -101 145 -133&#xA;157 -35 13 -43 11 -43 -10 0 -22 23 -44 35 -33 5 4 5 1 1 -6 -5 -8 12 -38 46&#xA;-80 65 -81 163 -226 208 -305 17 -31 36 -55 41 -51 5 3 7 -1 4 -8 -6 -17 69&#xA;-150 80 -141 4 5 5 3 2 -4 -4 -6 20 -62 53 -125 51 -97 91 -185 132 -288 l9&#xA;-25 -29 28 c-15 15 -32 24 -37 20 -4 -5 -5 -3 -2 3 9 16 -58 78 -74 69 -7 -5&#xA;-10 -4 -5 3 4 6 -51 59 -133 126 -212 176 -285 266 -391 476 -65 130 -115 282&#xA;-185 566 -30 122 -55 224 -55 228 0 8 -3 8 50 -8z m1787 -11 c0 -8 -4 -12 -9&#xA;-9 -5 3 -6 10 -3 15 9 13 12 11 12 -6z m128 -37 c-7 -56 -25 -162 -51 -293&#xA;-19 -95 -53 -222 -89 -324 -28 -85 -30 -95 -12 -85 7 4 9 3 4 -2 -5 -5 -12 -9&#xA;-15 -8 -4 0 -27 -40 -52 -90 -83 -167 -217 -334 -381 -476 -48 -41 -85 -78&#xA;-82 -83 2 -4 0 -6 -5 -5 -5 2 -28 -12 -52 -31 -33 -26 -39 -36 -29 -43 11 -8&#xA;10 -9 -2 -5 -11 4 -36 -13 -70 -44 -29 -27 -54 -47 -55 -46 -2 2 3 26 10 54&#xA;12 46 59 153 187 431 21 45 36 90 33 100 -5 13 -4 14 4 4 7 -11 10 -10 16 3 3&#xA;9 3 22 -1 27 -3 6 -2 8 4 5 13 -8 66 89 57 105 -4 7 -3 8 4 4 16 -10 15 6 0&#xA;24 -11 12 -10 12 3 2 15 -11 20 -7 40 25 13 21 47 71 77 111 29 40 50 77 46&#xA;84 -4 6 -3 8 3 5 6 -4 31 20 57 53 38 48 45 63 37 78 -7 14 -6 19 4 19 8 0 11&#xA;-7 8 -16 -5 -13 -3 -13 7 -4 15 14 7 43 -12 43 -14 0 -128 -118 -128 -133 0&#xA;-5 8 -3 18 4 15 13 16 12 3 -3 -7 -10 -17 -16 -21 -13 -19 12 -205 -258 -196&#xA;-282 3 -8 2 -12 -2 -9 -12 7 -44 -52 -36 -66 4 -6 3 -8 -3 -5 -10 6 -145 -265&#xA;-199 -400 -16 -40 -32 -73 -35 -73 -6 0 24 210 47 325 40 197 154 473 251 609&#xA;19 27 36 55 37 62 1 8 6 17 11 21 4 4 5 1 0 -7 -4 -8 8 0 28 19 20 19 33 39&#xA;30 44 -3 6 -2 7 4 4 13 -8 116 97 106 108 -5 4 -2 5 5 1 7 -5 30 8 58 32 54&#xA;48 155 109 244 147 36 16 69 32 75 37 16 14 17 9 10 -44z m-135 7 c0 -2 -10&#xA;-9 -22 -15 -22 -11 -22 -10 -4 4 21 17 26 19 26 11z m190 -14 c0 -5 -7 -12&#xA;-16 -15 -14 -5 -15 -4 -4 9 14 17 20 19 20 6z m-2013 -43 c-3 -8 -6 -5 -6 6&#xA;-1 11 2 17 5 13 3 -3 4 -12 1 -19z m1977 -14 c3 -8 2 -12 -4 -9 -6 3 -10 10&#xA;-10 16 0 14 7 11 14 -7z m-1017 -26 c-3 -8 -6 -5 -6 6 -1 11 2 17 5 13 3 -3 4&#xA;-12 1 -19z m1033 -42 c0 -2 -6 -9 -14 -15 -11 -9 -16 -9 -22 0 -4 7 -3 9 4 5&#xA;6 -3 13 -2 17 4 6 10 15 14 15 6z m-973 -113 c-3 -10 -5 -4 -5 12 0 17 2 24 5&#xA;18 2 -7 2 -21 0 -30z m944 -3 c9 13 10 13 6 0 -2 -8 -12 -14 -21 -13 -13 1&#xA;-16 -4 -12 -19 3 -15 2 -18 -6 -10 -5 5 -7 20 -3 32 6 18 9 20 16 9 8 -12 11&#xA;-12 20 1z m-1347 -36 c3 -8 2 -12 -4 -9 -6 3 -10 10 -10 16 0 14 7 11 14 -7z&#xA;m403 -76 c-3 -7 -5 -2 -5 12 0 14 2 19 5 13 2 -7 2 -19 0 -25z m926 -5 c-4&#xA;-10 -9 -10 -18 -3 -6 5 -16 6 -20 2 -5 -4 -6 -2 -2 3 8 16 46 13 40 -2z&#xA;m-1259 -11 c3 -5 -1 -9 -9 -9 -8 0 -12 4 -9 9 3 4 7 8 9 8 2 0 6 -4 9 -8z&#xA;m-626 -47 c-3 -3 -9 2 -12 12 -6 14 -5 15 5 6 7 -7 10 -15 7 -18z m1872 -28&#xA;c0 -5 -4 -5 -10 -2 -5 3 -10 14 -10 23 0 15 2 15 10 2 5 -8 10 -19 10 -23z&#xA;m-957 8 c-3 -9 -8 -14 -10 -11 -3 3 -2 9 2 15 9 16 15 13 8 -4z m42 5 c3 -6&#xA;-1 -7 -9 -4 -18 7 -21 14 -7 14 6 0 13 -4 16 -10z m580 -50 c-3 -5 -12 -10&#xA;-18 -10 -7 0 -6 4 3 10 19 12 23 12 15 0z m-32 -35 c-3 -9 -8 -14 -10 -11 -3&#xA;3 -2 9 2 15 9 16 15 13 8 -4z m307 -19 c0 -3 -4 -8 -10 -11 -5 -3 -10 -1 -10&#xA;4 0 6 5 11 10 11 6 0 10 -2 10 -4z m-1112 -41 c-3 -3 -9 2 -12 12 -6 14 -5 15&#xA;5 6 7 -7 10 -15 7 -18z m-267 -2 c13 -16 12 -17 -3 -4 -17 13 -22 21 -14 21 2&#xA;0 10 -8 17 -17z m484 8 c3 -5 2 -12 -3 -15 -5 -3 -9 1 -9 9 0 17 3 19 12 6z&#xA;m39 -9 c3 -5 -1 -9 -9 -9 -8 0 -12 4 -9 9 3 4 7 8 9 8 2 0 6 -4 9 -8z m196&#xA;-12 c0 -5 -2 -10 -4 -10 -3 0 -8 5 -11 10 -3 6 -1 10 4 10 6 0 11 -4 11 -10z&#xA;m-406 -8 c3 -5 -1 -9 -9 -9 -8 0 -12 4 -9 9 3 4 7 8 9 8 2 0 6 -4 9 -8z m1033&#xA;-24 c-3 -8 -6 -5 -6 6 -1 11 2 17 5 13 3 -3 4 -12 1 -19z m-997 -113 c-7 -9&#xA;-15 -13 -17 -11 -6 6 20 36 26 30 2 -2 -2 -10 -9 -19z m140 -9 c0 -3 -4 -8&#xA;-10 -11 -5 -3 -10 -1 -10 4 0 6 5 11 10 11 6 0 10 -2 10 -4z m171 -33 c-12&#xA;-20 -14 -14 -5 12 4 9 9 14 11 11 3 -2 0 -13 -6 -23z m600 -46 c-10 -9 -11 -8&#xA;-5 6 3 10 9 15 12 12 3 -3 0 -11 -7 -18z m-618 -12 c-3 -9 -8 -14 -10 -11 -3&#xA;3 -2 9 2 15 9 16 15 13 8 -4z m-49 -81 c3 -8 2 -12 -4 -9 -6 3 -10 10 -10 16&#xA;0 14 7 11 14 -7z m-176 -19 c-3 -3 -9 2 -12 12 -6 14 -5 15 5 6 7 -7 10 -15 7&#xA;-18z m195 -10 c-3 -9 -8 -14 -10 -11 -3 3 -2 9 2 15 9 16 15 13 8 -4z m-678&#xA;-155 c10 -11 16 -20 13 -20 -3 0 -13 9 -23 20 -10 11 -16 20 -13 20 3 0 13 -9&#xA;23 -20z m46 -13 c-10 -9 -11 -8 -5 6 3 10 9 15 12 12 3 -3 0 -11 -7 -18z&#xA;m1097 -22 c-3 -3 -9 2 -12 12 -6 14 -5 15 5 6 7 -7 10 -15 7 -18z m-403 -85&#xA;c-3 -5 -12 -10 -18 -10 -7 0 -6 4 3 10 19 12 23 12 15 0z m-222 -40 c3 -11 1&#xA;-18 -4 -14 -5 3 -9 12 -9 20 0 20 7 17 13 -6z m507 6 c0 -2 -7 -7 -16 -10 -8&#xA;-3 -12 -2 -9 4 6 10 25 14 25 6z m-720 -56 c8 -5 11 -10 5 -10 -5 0 -17 5 -25&#xA;10 -8 5 -10 10 -5 10 6 0 17 -5 25 -10z m64 -69 c-8 -8 -43 -8 -38 0 2 4 13 7&#xA;24 6 10 -1 17 -3 14 -6z m299 -6 c-3 -9 -8 -14 -10 -11 -3 3 -2 9 2 15 9 16&#xA;15 13 8 -4z m-156 -327 c-3 -8 -6 -5 -6 6 -1 11 2 17 5 13 3 -3 4 -12 1 -19z&#xA;m50 -40 c-3 -8 -6 -5 -6 6 -1 11 2 17 5 13 3 -3 4 -12 1 -19z m-20 -13 c0 -8&#xA;-4 -12 -9 -9 -5 3 -6 10 -3 15 9 13 12 11 12 -6z m10 -147 c-3 -7 -5 -2 -5 12&#xA;0 14 2 19 5 13 2 -7 2 -19 0 -25z m-35 15 c-6 -2 -9 -10 -6 -15 4 -7 2 -8 -4&#xA;-4 -18 11 -14 26 6 25 10 0 12 -3 4 -6z m-2 -57 c0 -2 -7 -7 -16 -10 -8 -3&#xA;-12 -2 -9 4 6 10 25 14 25 6z m-33 -208 c-3 -8 -6 -5 -6 6 -1 11 2 17 5 13 3&#xA;-3 4 -12 1 -19z"/>
    <path d="M2779 5253 c-1 -5 -1 -11 -1 -14 1 -4 -6 -6 -14 -5 -9 0 -26 -11 -37&#xA;-27 -19 -25 -20 -28 -5 -43 23 -23 78 -11 112 25 24 25 26 32 17 50 -8 14 -21&#xA;21 -41 21 -17 0 -31 -3 -31 -7z m1 -48 c0 -2 -9 -3 -19 -2 -11 0 -18 5 -15 9&#xA;4 6 34 0 34 -7z"/>
    <path d="M2123 5223 c-21 -8 -15 -41 10 -57 12 -8 41 -20 65 -27 37 -11 45&#xA;-10 59 4 21 20 11 42 -29 67 -31 19 -77 25 -105 13z m92 -23 c3 -5 1 -10 -4&#xA;-10 -6 0 -11 5 -11 10 0 6 2 10 4 10 3 0 8 -4 11 -10z"/>
    <path d="M2473 5152 c-38 -4 -57 -24 -48 -52 5 -17 15 -20 60 -20 83 0 129 29&#xA;93 58 -16 12 -62 18 -105 14z"/>
    <path d="M1305 5030 c3 -5 0 -7 -8 -4 -31 12 -49 -106 -24 -156 18 -36 54 -39&#xA;67 -5 15 40 12 127 -6 153 -15 21 -42 32 -29 12z m-18 -67 c-3 -10 -5 -4 -5&#xA;12 0 17 2 24 5 18 2 -7 2 -21 0 -30z"/>
    <path d="M1333 4683 c-18 -7 -16 -31 6 -80 24 -51 64 -81 86 -63 8 7 15 21 15&#xA;32 0 29 -29 80 -42 72 -7 -4 -8 -3 -4 5 16 26 -25 49 -61 34z m24 -75 c-3 -8&#xA;-6 -5 -6 6 -1 11 2 17 5 13 3 -3 4 -12 1 -19z"/>
    <path d="M2783 4671 c-61 -19 -137 -93 -152 -147 -16 -58 -25 -68 -41 -49 -11&#xA;13 -10 14 5 9 12 -5 16 -4 12 4 -16 25 -96 45 -164 40 -188 -14 -297 -167&#xA;-233 -328 11 -28 20 -55 20 -60 0 -6 -21 -10 -47 -10 -46 0 -125 -30 -165 -63&#xA;-21 -16 -24 -32 -5 -21 7 4 9 3 4 -2 -5 -5 -13 -9 -19 -9 -6 0 -20 -12 -31&#xA;-28 -26 -34 -34 -131 -17 -212 10 -50 20 -66 65 -112 30 -29 61 -53 69 -53 12&#xA;0 7 -12 -18 -47 -62 -88 -73 -167 -36 -251 24 -54 89 -117 137 -133 66 -21&#xA;234 5 216 34 -3 6 -1 7 5 3 7 -4 12 -32 12 -64 0 -71 25 -127 74 -170 126&#xA;-111 320 -86 401 53 15 25 32 45 38 44 8 0 8 -2 -1 -6 -6 -2 -9 -9 -6 -15 4&#xA;-6 22 -126 40 -268 33 -260 69 -483 105 -642 20 -94 24 -142 7 -95 -5 15 -14&#xA;24 -20 21 -7 -4 -8 -2 -4 5 9 14 -52 113 -64 106 -5 -3 -12 0 -16 6 -4 8 -3 9&#xA;4 5 37 -23 -16 51 -97 137 -51 54 -173 142 -246 180 -37 19 -178 64 -222 72&#xA;-17 3 -75 9 -128 15 -115 12 -130 4 -120 -64 15 -102 183 -447 278 -571 64&#xA;-85 132 -149 148 -140 7 5 10 4 6 -2 -9 -14 80 -86 94 -77 7 4 9 3 6 -3 -4 -6&#xA;10 -21 31 -33 96 -58 143 -81 154 -74 7 5 8 3 3 -6 -6 -10 -4 -12 9 -7 9 4 15&#xA;3 12 -2 -6 -9 80 -47 204 -88 109 -37 123 -50 155 -140 15 -43 34 -97 42 -120&#xA;9 -24 20 -40 26 -36 6 3 7 1 3 -5 -4 -6 0 -31 8 -54 37 -109 101 -274 149&#xA;-382 54 -124 80 -153 112 -126 21 18 20 28 -21 127 -91 224 -234 627 -234 660&#xA;0 15 44 81 63 94 5 4 6 12 3 18 -5 7 -2 10 6 9 8 -2 12 5 10 17 -2 15 -1 17 7&#xA;6 7 -11 21 -2 63 44 29 32 52 62 50 67 -1 5 1 7 6 4 12 -7 64 48 55 58 -5 4&#xA;-2 6 6 4 32 -7 167 191 220 324 74 185 119 465 105 649 -11 141 -24 257 -30&#xA;272 -12 32 -67 15 -144 -42 -119 -89 -225 -182 -232 -206 -2 -5 -6 -9 -10 -8&#xA;-13 5 -110 -136 -102 -148 4 -8 3 -9 -4 -5 -14 8 -46 -50 -36 -66 4 -7 3 -8&#xA;-5 -4 -16 10 -52 -75 -96 -222 -32 -110 -48 -223 -57 -407 l-3 -50 -17 75&#xA;c-10 41 -21 98 -27 125 -5 28 -17 86 -26 130 -32 158 -52 282 -109 688 -12 86&#xA;-12 87 8 80 76 -28 213 12 270 79 38 44 71 136 63 177 l-6 27 94 -4 c80 -4&#xA;100 -1 137 17 62 30 105 78 128 144 26 74 25 121 -4 182 -24 53 -43 73 -85 92&#xA;l-26 11 28 1 c84 3 160 97 173 216 6 55 -20 142 -57 189 -21 26 -46 37 -33 14&#xA;4 -8 3 -10 -2 -5 -5 5 -9 14 -9 20 0 19 -73 50 -120 51 -33 1 -41 4 -33 13 5&#xA;7 12 38 15 70 4 45 0 69 -16 106 -23 53 -66 101 -81 92 -6 -4 -9 -1 -8 5 5 20&#xA;-68 52 -129 57 -71 6 -126 -8 -183 -46 l-44 -29 -22 55 c-60 148 -160 199&#xA;-301 154z m177 -63 c14 0 20 -2 13 -5 -8 -3 -6 -14 8 -37 33 -57 59 -147 60&#xA;-210 0 -34 4 -69 8 -80 7 -17 8 -17 24 -2 9 10 17 23 17 30 0 7 11 30 25 50&#xA;14 21 22 42 19 48 -4 6 -2 8 4 4 6 -3 32 8 58 26 58 39 130 48 188 24 21 -9&#xA;43 -13 50 -9 6 3 8 3 4 -2 -4 -4 5 -23 21 -41 65 -74 50 -163 -44 -263 -68&#xA;-71 -78 -91 -47 -91 20 0 115 63 107 71 -13 14 143 1 172 -14 119 -63 121&#xA;-261 2 -322 -14 -8 -74 -19 -132 -26 -98 -11 -112 -15 -104 -36 1 -4 36 -19&#xA;77 -33 41 -15 84 -30 94 -35 15 -6 17 -5 11 5 -5 9 -4 11 4 6 6 -4 9 -11 6&#xA;-16 -3 -5 4 -15 15 -23 55 -38 61 -145 12 -223 -37 -60 -74 -79 -152 -79 -75&#xA;1 -125 23 -179 79 -19 19 -37 33 -41 31 -4 -3 -7 2 -6 11 0 9 -9 20 -21 25&#xA;-35 13 -30 -21 13 -93 64 -110 64 -224 -1 -278 -14 -12 -14 -15 2 -34 18 -21&#xA;18 -21 -3 -3 -19 16 -24 16 -55 3 -30 -12 -91 -20 -140 -17 -27 2 -96 69 -118&#xA;116 -11 24 -21 63 -21 84 0 71 -33 64 -46 -9 -24 -144 -81 -222 -172 -235 -66&#xA;-9 -126 10 -173 55 -50 48 -67 104 -50 173 7 29 13 62 14 74 1 11 5 19 8 17 3&#xA;-2 12 7 19 20 12 24 7 46 -10 46 -15 0 -40 -31 -34 -42 4 -7 2 -8 -5 -4 -6 4&#xA;-33 -8 -61 -29 -65 -48 -123 -65 -179 -55 -145 26 -192 197 -84 302 35 34 148&#xA;98 172 98 6 0 11 7 11 16 0 15 -10 16 -79 11 -129 -10 -195 22 -225 110 -37&#xA;108 -4 193 95 244 62 32 160 32 212 1 45 -26 56 -27 63 -8 7 17 -35 78 -48 70&#xA;-5 -3 -7 -1 -6 4 2 5 -12 35 -31 67 -44 72 -52 144 -22 192 59 95 208 121 295&#xA;52 14 -11 44 -53 66 -95 41 -73 68 -92 62 -43 -10 97 -10 203 0 227 17 40 68&#xA;91 103 102 16 5 53 7 80 4 28 -3 61 -6 75 -6z m417 -94 c-3 -3 -12 -4 -19 -1&#xA;-8 3 -5 6 6 6 11 1 17 -2 13 -5z m-1002 -14 c-3 -5 -12 -10 -18 -10 -7 0 -6 4&#xA;3 10 19 12 23 12 15 0z m-72 -43 c3 -8 -1 -14 -8 -14 -7 0 -11 6 -8 14 3 7 6&#xA;13 8 13 2 0 5 -6 8 -13z m42 -7 c-3 -5 -12 -10 -18 -10 -7 0 -6 4 3 10 19 12&#xA;23 12 15 0z m239 -6 c3 -8 2 -12 -4 -9 -6 3 -10 10 -10 16 0 14 7 11 14 -7z&#xA;m-341 -39 c-3 -9 -8 -14 -10 -11 -3 3 -2 9 2 15 9 16 15 13 8 -4z m49 3 c-14&#xA;-14 -44 -20 -36 -7 3 5 9 7 14 4 5 -3 11 -1 15 5 3 5 9 10 13 10 3 0 1 -5 -6&#xA;-12z m1232 -93 c3 -8 1 -15 -4 -15 -6 0 -10 7 -10 15 0 8 2 15 4 15 2 0 6 -7&#xA;10 -15z m27 -48 c-10 -9 -11 -8 -5 6 3 10 9 15 12 12 3 -3 0 -11 -7 -18z&#xA;m-1310 -20 c-10 -9 -11 -8 -5 6 3 10 9 15 12 12 3 -3 0 -11 -7 -18z m1269 -41&#xA;c0 -2 -7 -7 -16 -10 -8 -3 -12 -2 -9 4 6 10 25 14 25 6z m13 -51 c-3 -9 -8&#xA;-14 -10 -11 -3 3 -2 9 2 15 9 16 15 13 8 -4z m-1373 -75 c0 -5 -2 -10 -4 -10&#xA;-3 0 -8 5 -11 10 -3 6 -1 10 4 10 6 0 11 -4 11 -10z m1225 -10 c3 -5 1 -10 -4&#xA;-10 -6 0 -11 5 -11 10 0 6 2 10 4 10 3 0 8 -4 11 -10z m380 -49 c-6 -5 -25 10&#xA;-25 20 0 5 6 4 14 -3 8 -7 12 -15 11 -17z m-1750 -51 c-3 -5 -12 -10 -18 -10&#xA;-7 0 -6 4 3 10 19 12 23 12 15 0z m1772 -66 c-3 -3 -12 -4 -19 -1 -8 3 -5 6 6&#xA;6 11 1 17 -2 13 -5z m3 -38 c0 -2 -7 -7 -16 -10 -8 -3 -12 -2 -9 4 6 10 25 14&#xA;25 6z m-1813 -38 c-3 -8 -6 -5 -6 6 -1 11 2 17 5 13 3 -3 4 -12 1 -19z m26 -8&#xA;c3 -11 1 -18 -4 -14 -5 3 -9 12 -9 20 0 20 7 17 13 -6z m1737 0 c0 -5 -5 -10&#xA;-11 -10 -5 0 -7 5 -4 10 3 6 8 10 11 10 2 0 4 -4 4 -10z m-174 -82 c4 -7 3 -8&#xA;-4 -4 -7 4 -12 2 -12 -3 0 -6 -7 -11 -15 -11 -8 0 -15 5 -15 11 0 5 5 7 10 4&#xA;6 -3 10 -1 10 4 0 15 17 14 26 -1z m171 -238 c4 -12 3 -13 -5 -1 -6 8 -17 11&#xA;-26 8 -9 -4 -16 -2 -16 4 0 16 43 6 47 -11z m-1659 -35 c-3 -3 -9 2 -12 12 -6&#xA;14 -5 15 5 6 7 -7 10 -15 7 -18z m-11 -47 c-3 -7 -5 -2 -5 12 0 14 2 19 5 13&#xA;2 -7 2 -19 0 -25z m1623 -52 c0 -3 -4 -8 -10 -11 -5 -3 -10 -1 -10 4 0 6 5 11&#xA;10 11 6 0 10 -2 10 -4z m-30 -32 c0 -8 -19 -13 -24 -6 -3 5 1 9 9 9 8 0 15 -2&#xA;15 -3z m-177 -49 c-3 -9 -8 -14 -10 -11 -3 3 -2 9 2 15 9 16 15 13 8 -4z&#xA;m-126 -37 c-3 -7 -5 -2 -5 12 0 14 2 19 5 13 2 -7 2 -19 0 -25z m-24 7 c-3 -9&#xA;-8 -14 -10 -11 -3 3 -2 9 2 15 9 16 15 13 8 -4z m-973 -5 c0 -5 -5 -10 -11&#xA;-10 -5 0 -7 5 -4 10 3 6 8 10 11 10 2 0 4 -4 4 -10z m-183 -26 c-3 -3 -12 -4&#xA;-19 -1 -8 3 -5 6 6 6 11 1 17 -2 13 -5z m280 -26 c-3 -7 -5 -2 -5 12 0 14 2&#xA;19 5 13 2 -7 2 -19 0 -25z m488 -67 c3 -5 2 -12 -3 -15 -5 -3 -9 1 -9 9 0 17&#xA;3 19 12 6z m386 -24 c-10 -9 -11 -8 -5 6 3 10 9 15 12 12 3 -3 0 -11 -7 -18z&#xA;m-451 -43 c0 -8 -19 -13 -24 -6 -3 5 1 9 9 9 8 0 15 -2 15 -3z m137 -19 c0 -8&#xA;-4 -12 -9 -9 -5 3 -6 10 -3 15 9 13 12 11 12 -6z m-354 -62 c-7 -2 -19 -2 -25&#xA;0 -7 3 -2 5 12 5 14 0 19 -2 13 -5z m-48 -12 c3 -5 2 -12 -3 -15 -5 -3 -9 1&#xA;-9 9 0 17 3 19 12 6z m1240 -84 c26 -220 4 -459 -61 -649 -13 -39 -21 -76 -17&#xA;-82 3 -6 2 -8 -2 -3 -5 4 -18 -14 -29 -40 -43 -100 -97 -181 -175 -264 -44&#xA;-48 -78 -88 -76 -91 3 -3 -7 -15 -23 -29 l-27 -24 25 29 c15 18 19 27 10 24&#xA;-8 -2 -36 -31 -62 -63 -34 -42 -44 -61 -36 -66 8 -5 5 -8 -8 -7 -13 1 -20 8&#xA;-18 18 49 222 91 355 200 629 90 226 113 296 101 308 -22 21 -55 -29 -117&#xA;-177 -17 -41 -37 -88 -45 -105 -48 -109 -110 -284 -151 -427 -27 -93 -51 -168&#xA;-54 -168 -6 0 -4 236 4 347 16 228 96 470 200 606 38 50 46 68 21 47 -10 -9&#xA;-15 -9 -15 -1 0 6 5 12 10 12 6 1 14 2 19 3 4 0 31 24 60 53 109 110 242 209&#xA;252 189 4 -6 10 -37 14 -69z m-250 -37 c-3 -6 1 -13 9 -16 9 -3 13 -10 11 -15&#xA;-3 -4 -14 -1 -23 9 -12 11 -14 20 -8 24 15 11 18 10 11 -2z m288 -60 c3 -11 1&#xA;-18 -4 -14 -5 3 -9 12 -9 20 0 20 7 17 13 -6z m-426 -116 c-3 -3 -12 -4 -19&#xA;-1 -8 3 -5 6 6 6 11 1 17 -2 13 -5z m-401 -83 c0 -16 -3 -17 -14 -9 -12 10 -7&#xA;19 13 28 1 0 1 -9 1 -19z m-889 -6 c0 -8 -4 -12 -9 -9 -5 3 -6 10 -3 15 9 13&#xA;12 11 12 -6z m230 -1 c-3 -3 -12 -4 -19 -1 -8 3 -5 6 6 6 11 1 17 -2 13 -5z&#xA;m613 2 c0 -3 -4 -8 -10 -11 -5 -3 -10 -1 -10 4 0 6 5 11 10 11 6 0 10 -2 10&#xA;-4z m-700 -22 c0 -2 -7 -4 -15 -4 -8 0 -15 4 -15 10 0 5 7 7 15 4 8 -4 15 -8&#xA;15 -10z m147 10 c-3 -3 -12 -4 -19 -1 -8 3 -5 6 6 6 11 1 17 -2 13 -5z m-132&#xA;-29 c83 -7 197 -44 283 -91 35 -19 69 -31 75 -28 7 4 9 4 5 -1 -8 -8 82 -82&#xA;95 -77 5 1 6 -2 3 -7 -8 -12 34 -42 47 -34 6 3 7 2 4 -4 -4 -6 13 -35 37 -66&#xA;23 -30 58 -78 75 -106 18 -28 38 -48 44 -44 6 3 7 1 3 -5 -3 -6 18 -62 48&#xA;-124 53 -110 96 -210 96 -224 0 -3 -6 -1 -13 5 -8 6 -17 8 -21 4 -4 -4 -4 0&#xA;-1 8 7 20 -151 202 -167 193 -6 -4 -8 -3 -5 3 8 12 -147 166 -157 156 -4 -4&#xA;-6 -1 -4 7 2 9 -3 14 -12 12 -8 -2 -12 0 -8 4 11 10 -12 35 -25 27 -5 -3 -7&#xA;-1 -4 5 9 14 -83 94 -100 87 -8 -2 -11 0 -8 5 3 6 -3 10 -14 10 -45 0 -12 -46&#xA;157 -213 95 -95 178 -171 183 -169 6 1 8 -1 5 -6 -7 -11 152 -208 165 -204 6&#xA;1 8 -2 4 -7 -3 -6 2 -22 12 -37 17 -26 17 -26 -2 -16 -11 6 -76 34 -145 62&#xA;-69 28 -160 73 -203 100 -43 28 -83 47 -89 44 -6 -4 -8 -2 -4 4 3 6 -12 24&#xA;-36 40 -24 17 -74 63 -113 103 -38 40 -74 72 -78 71 -5 -1 -6 2 -3 7 4 5 -5&#xA;27 -20 48 -36 53 -169 324 -199 406 l-24 67 22 -4 c12 -3 53 -8 92 -11z m260&#xA;-17 c5 -5 -5 -3 -23 3 -18 6 -35 15 -38 20 -6 10 45 -10 61 -23z m1282 10 c-3&#xA;-8 -6 -5 -6 6 -1 11 2 17 5 13 3 -3 4 -12 1 -19z m-1657 -12 c0 -3 -4 -8 -10&#xA;-11 -5 -3 -10 -1 -10 4 0 6 5 11 10 11 6 0 10 -2 10 -4z m1145 -16 c-3 -5 -12&#xA;-10 -18 -10 -7 0 -6 4 3 10 19 12 23 12 15 0z m519 -6 c3 -8 2 -12 -4 -9 -6 3&#xA;-10 10 -10 16 0 14 7 11 14 -7z m-834 -17 c0 -7 -4 -6 -10 3 -8 12 -10 12 -10&#xA;1 0 -8 -3 -12 -6 -8 -9 9 6 28 17 22 5 -4 9 -12 9 -18z m857 1 c-3 -8 -6 -5&#xA;-6 6 -1 11 2 17 5 13 3 -3 4 -12 1 -19z m-1166 -45 c13 -16 12 -17 -3 -4 -16&#xA;12 -18 11 -18 -4 0 -10 -3 -16 -6 -12 -6 6 2 37 9 37 3 0 11 -8 18 -17z m1156&#xA;-8 c0 -8 -4 -12 -9 -9 -5 3 -6 10 -3 15 9 13 12 11 12 -6z m-1143 -37 c-3 -4&#xA;-11 -5 -19 -1 -21 7 -19 12 4 10 11 0 18 -5 15 -9z m59 -22 c-3 -4 -9 -2 -14&#xA;5 -13 22 -11 31 5 17 8 -7 12 -17 9 -22z m507 14 c0 -5 -5 -10 -11 -10 -5 0&#xA;-7 5 -4 10 3 6 8 10 11 10 2 0 4 -4 4 -10z m-210 -33 c0 -5 -4 -5 -10 -2 -5 3&#xA;-10 14 -10 23 0 15 2 15 10 2 5 -8 10 -19 10 -23z m431 -10 c-10 -9 -11 -8 -5&#xA;6 3 10 9 15 12 12 3 -3 0 -11 -7 -18z m344 -7 c-3 -5 -12 -10 -18 -10 -7 0 -6&#xA;4 3 10 19 12 23 12 15 0z m-778 -32 c-3 -8 -6 -5 -6 6 -1 11 2 17 5 13 3 -3 4&#xA;-12 1 -19z m737 -4 c3 -8 2 -12 -4 -9 -6 3 -10 10 -10 16 0 14 7 11 14 -7z&#xA;m-300 -6 c-3 -4 -9 -8 -15 -8 -5 0 -9 4 -9 8 0 5 7 9 15 9 8 0 12 -4 9 -9z&#xA;m-427 -40 c-3 -7 -5 -2 -5 12 0 14 2 19 5 13 2 -7 2 -19 0 -25z m390 -10 c2&#xA;-17 0 -19 -7 -8 -5 8 -6 18 -4 22 8 12 10 10 11 -14z m-1166 -5 c13 -16 12&#xA;-17 -3 -4 -10 7 -18 15 -18 17 0 8 8 3 21 -13z m1516 -9 c-3 -3 -12 -4 -19 -1&#xA;-8 3 -5 6 6 6 11 1 17 -2 13 -5z m-600 -66 c-3 -7 -5 -2 -5 12 0 14 2 19 5 13&#xA;2 -7 2 -19 0 -25z m558 22 c3 -6 -1 -7 -9 -4 -18 7 -21 14 -7 14 6 0 13 -4 16&#xA;-10z m-731 -16 c3 -8 2 -12 -4 -9 -6 3 -10 10 -10 16 0 14 7 11 14 -7z m213 1&#xA;c0 -8 -4 -12 -9 -9 -5 3 -6 10 -3 15 9 13 12 11 12 -6z m-10 -47 c-3 -8 -6 -5&#xA;-6 6 -1 11 2 17 5 13 3 -3 4 -12 1 -19z m-164 -43 c-3 -9 -8 -14 -10 -11 -3 3&#xA;-2 9 2 15 9 16 15 13 8 -4z m130 0 c4 -8 3 -16 -1 -19 -4 -3 -9 4 -9 15 -2 23&#xA;3 25 10 4z m28 -16 c-5 -13 -10 -19 -10 -12 -1 15 10 45 15 40 3 -2 0 -15 -5&#xA;-28z m199 25 c0 -8 -19 -13 -24 -6 -3 5 1 9 9 9 8 0 15 -2 15 -3z m305 -23 c3&#xA;-5 2 -12 -3 -15 -5 -3 -9 1 -9 9 0 17 3 19 12 6z m-15 -44 c0 -5 -4 -5 -10 -2&#xA;-5 3 -10 14 -10 23 0 15 2 15 10 2 5 -8 10 -19 10 -23z m-690 -55 c0 -8 -1&#xA;-13 -3 -11 -1 2 -9 12 -16 22 -12 15 -12 17 3 11 9 -3 16 -13 16 -22z m633 15&#xA;c3 -8 -1 -14 -8 -14 -7 0 -11 6 -8 14 3 7 6 13 8 13 2 0 5 -6 8 -13z m-299&#xA;-62 c-4 -8 -11 -12 -16 -9 -6 4 -5 10 3 15 19 12 19 11 13 -6z m287 -8 c-10&#xA;-9 -11 -8 -5 6 3 10 9 15 12 12 3 -3 0 -11 -7 -18z m-686 -46 c3 -5 2 -12 -3&#xA;-15 -5 -3 -9 1 -9 9 0 17 3 19 12 6z m252 -43 c-3 -8 -6 -5 -6 6 -1 11 2 17 5&#xA;13 3 -3 4 -12 1 -19z m-592 2 c3 -6 -1 -7 -9 -4 -18 7 -21 14 -7 14 6 0 13 -4&#xA;16 -10z m410 -40 c3 -6 -1 -7 -9 -4 -18 7 -21 14 -7 14 6 0 13 -4 16 -10z&#xA;m283 -55 c-3 -3 -9 2 -12 12 -6 14 -5 15 5 6 7 -7 10 -15 7 -18z m160 -10 c-3&#xA;-3 -9 2 -12 12 -6 14 -5 15 5 6 7 -7 10 -15 7 -18z m-733 -24 c-6 -5 -25 10&#xA;-25 20 0 5 6 4 14 -3 8 -7 12 -15 11 -17z m656 -24 c-10 -9 -11 -8 -5 6 3 10&#xA;9 15 12 12 3 -3 0 -11 -7 -18z m22 -18 c-15 -16 -22 -18 -28 -8 -5 8 -4 10 3&#xA;5 6 -4 17 2 24 13 7 11 14 18 17 15 3 -2 -4 -14 -16 -25z m-126 -1 c-3 -8 -6&#xA;-5 -6 6 -1 11 2 17 5 13 3 -3 4 -12 1 -19z m10 -364 c-3 -3 -12 -4 -19 -1 -8&#xA;3 -5 6 6 6 11 1 17 -2 13 -5z m83 -159 c0 -8 -4 -15 -10 -15 -5 0 -7 7 -4 15&#xA;4 8 8 15 10 15 2 0 4 -7 4 -15z m-30 -25 c8 -5 11 -10 5 -10 -5 0 -17 5 -25&#xA;10 -8 5 -10 10 -5 10 6 0 17 -5 25 -10z m18 -105 c-3 -3 -9 2 -12 12 -6 14 -5&#xA;15 5 6 7 -7 10 -15 7 -18z m72 -47 c0 -4 -4 -8 -9 -8 -6 0 -12 4 -15 8 -3 5 1&#xA;9 9 9 8 0 15 -4 15 -9z m10 -28 c0 -5 -5 -10 -11 -10 -5 0 -7 5 -4 10 3 6 8&#xA;10 11 10 2 0 4 -4 4 -10z m50 -120 c0 -5 -2 -10 -4 -10 -3 0 -8 5 -11 10 -3 6&#xA;-1 10 4 10 6 0 11 -4 11 -10z m28 -65 c-3 -3 -9 2 -12 12 -6 14 -5 15 5 6 7&#xA;-7 10 -15 7 -18z"/>
    <path d="M2734 4092 c-138 -49 -225 -174 -227 -327 0 -57 4 -80 25 -120 36&#xA;-70 99 -132 166 -163 79 -36 194 -36 274 1 60 27 141 94 132 108 -3 5 0 8 7 7&#xA;17 -4 57 77 69 141 35 186 -114 359 -320 368 -54 3 -89 -1 -126 -15z m26 -6&#xA;c0 -2 -8 -10 -17 -17 -16 -13 -17 -12 -4 4 13 16 21 21 21 13z m195 -7 c11&#xA;-16 1 -19 -13 -3 -7 8 -8 14 -3 14 5 0 13 -5 16 -11z m-150 -19 c-3 -5 -12&#xA;-10 -18 -10 -7 0 -6 4 3 10 19 12 23 12 15 0z m161 -44 c94 -44 154 -134 154&#xA;-230 0 -23 -11 -67 -24 -98 -13 -31 -21 -59 -17 -61 3 -2 2 -3 -4 -2 -5 1 -28&#xA;-13 -49 -31 -110 -94 -280 -96 -372 -6 -81 81 -101 158 -70 265 21 72 61 118&#xA;138 157 80 39 167 42 244 6z m-276 0 c0 -2 -8 -10 -17 -17 -16 -13 -17 -12 -4&#xA;4 13 16 21 21 21 13z m-60 -16 c0 -5 -5 -10 -11 -10 -5 0 -7 5 -4 10 3 6 8 10&#xA;11 10 2 0 4 -4 4 -10z m527 -132 c-3 -8 -6 -5 -6 6 -1 11 2 17 5 13 3 -3 4&#xA;-12 1 -19z m-587 -18 c0 -11 -4 -20 -9 -20 -5 0 -7 9 -4 20 3 11 7 20 9 20 2&#xA;0 4 -9 4 -20z m567 -62 c-3 -7 -5 -2 -5 12 0 14 2 19 5 13 2 -7 2 -19 0 -25z&#xA;m17 -84 c3 -8 2 -12 -4 -9 -6 3 -10 10 -10 16 0 14 7 11 14 -7z m-616 -19 c-3&#xA;-3 -9 2 -12 12 -6 14 -5 15 5 6 7 -7 10 -15 7 -18z m573 -18 c-10 -9 -11 -8&#xA;-5 6 3 10 9 15 12 12 3 -3 0 -11 -7 -18z m-24 -72 c0 -8 -4 -12 -9 -9 -5 3 -6&#xA;10 -3 15 9 13 12 11 12 -6z m-292 -94 c-9 -8 -36 -10 -30 -2 2 4 11 8 20 8 8&#xA;0 13 -3 10 -6z m35 -1 c0 -5 -2 -10 -4 -10 -3 0 -8 5 -11 10 -3 6 -1 10 4 10&#xA;6 0 11 -4 11 -10z m75 0 c3 -6 -1 -7 -9 -4 -18 7 -21 14 -7 14 6 0 13 -4 16&#xA;-10z m-18 -26 c-3 -3 -12 -4 -19 -1 -8 3 -5 6 6 6 11 1 17 -2 13 -5z"/>
    <path d="M4258 1333 c-31 -37 -59 -97 -77 -166 -26 -100 -44 -220 -39 -256 5&#xA;-37 -7 -31 -31 17 -22 43 -119 152 -161 182 -24 17 -33 19 -50 10 -19 -10 -21&#xA;-19 -19 -73 3 -67 46 -246 78 -320 15 -34 26 -47 41 -47 11 0 23 6 26 14 3 7&#xA;-11 62 -30 121 -20 59 -39 124 -42 144 -4 20 -11 44 -16 54 -15 30 6 19 48&#xA;-25 59 -62 86 -103 133 -196 23 -45 45 -82 49 -82 20 0 32 29 32 79 0 156 42&#xA;402 79 469 19 33 62 -209 77 -425 6 -92 9 -102 28 -107 30 -8 57 30 51 69 -3&#xA;19 -2 23 3 12 6 -14 15 -7 50 41 23 32 58 74 78 93 l37 34 -7 -40 c-3 -22 -8&#xA;-49 -10 -60 -10 -49 -18 -83 -28 -122 -25 -101 39 -83 70 20 25 80 44 195 38&#xA;227 -2 14 -5 31 -5 38 -2 21 -47 13 -88 -17 -50 -36 -138 -138 -137 -157 1&#xA;-11 -2 -12 -11 -4 -7 6 -13 38 -14 78 -4 151 -51 337 -97 387 -27 30 -36 31&#xA;-56 8z m-5 -108 c-3 -9 -8 -14 -10 -11 -3 3 -2 9 2 15 9 16 15 13 8 -4z m97&#xA;-39 c0 -3 -4 -8 -10 -11 -5 -3 -10 -1 -10 4 0 6 5 11 10 11 6 0 10 -2 10 -4z&#xA;m-153 -61 c0 -8 -4 -15 -9 -15 -10 0 -11 14 -1 23 9 10 10 9 10 -8z m190 -87&#xA;c-3 -8 -6 -5 -6 6 -1 11 2 17 5 13 3 -3 4 -12 1 -19z m-413 -4 c3 -8 2 -12 -4&#xA;-9 -6 3 -10 10 -10 16 0 14 7 11 14 -7z m391 -3 c3 -5 2 -12 -3 -15 -5 -3 -9&#xA;1 -9 9 0 17 3 19 12 6z m269 -29 c3 -5 -1 -9 -9 -9 -8 0 -15 4 -15 9 0 4 4 8&#xA;9 8 6 0 12 -4 15 -8z m-434 -22 c0 -5 -5 -10 -11 -10 -5 0 -7 5 -4 10 3 6 8&#xA;10 11 10 2 0 4 -4 4 -10z m360 6 c0 -2 -8 -10 -17 -17 -16 -13 -17 -12 -4 4&#xA;13 16 21 21 21 13z m-97 -111 c-3 -9 -8 -14 -10 -11 -3 3 -2 9 2 15 9 16 15&#xA;13 8 -4z m155 -30 c-3 -3 -9 2 -12 12 -6 14 -5 15 5 6 7 -7 10 -15 7 -18z&#xA;m-500 -10 c-3 -3 -9 2 -12 12 -6 14 -5 15 5 6 7 -7 10 -15 7 -18z m512 -15 c0&#xA;-5 -2 -10 -4 -10 -3 0 -8 5 -11 10 -3 6 -1 10 4 10 6 0 11 -4 11 -10z m-440&#xA;-55 c0 -2 -9 -3 -19 -2 -11 0 -18 5 -15 9 4 6 34 0 34 -7z m414 -13 c2 -4 -4&#xA;-8 -14 -8 -10 0 -16 4 -14 8 3 4 9 8 14 8 5 0 11 -4 14 -8z"/>
    <path d="M6043 1265 c-26 -18 -96 -162 -89 -182 3 -8 2 -11 -4 -8 -5 3 -14&#xA;-14 -20 -37 -6 -24 -15 -59 -21 -78 -5 -19 -9 -47 -9 -61 0 -15 -7 -30 -16&#xA;-33 -8 -3 -12 -2 -9 4 12 19 -145 195 -167 188 -23 -8 -21 -110 6 -215 34&#xA;-139 41 -155 69 -151 29 4 28 35 -6 157 l-26 94 29 -34 c16 -19 49 -69 75&#xA;-111 25 -43 50 -78 54 -78 21 0 35 38 53 145 10 64 28 142 39 173 12 31 26 74&#xA;32 95 25 83 35 34 43 -213 4 -102 11 -190 16 -197 13 -16 41 -4 34 14 -3 8 -2&#xA;12 3 9 5 -3 20 12 35 34 30 46 33 58 9 39 -16 -13 -17 -12 -5 3 8 10 17 16 21&#xA;15 4 -1 40 32 78 73 39 41 74 72 77 69 6 -5 -7 -48 -53 -171 -11 -32 -21 -64&#xA;-21 -72 0 -14 37 -42 46 -34 27 28 109 298 99 329 -10 31 -42 33 -88 6 -53&#xA;-32 -89 -66 -82 -77 3 -5 0 -12 -6 -16 -8 -4 -9 -3 -5 4 18 30 -16 7 -50 -33&#xA;l-39 -46 -1 88 c-1 48 -9 120 -18 160 -9 40 -16 84 -16 99 0 15 -9 35 -22 45&#xA;-25 23 -19 22 -45 4z m-295 -260 c-3 -3 -9 2 -12 12 -6 14 -5 15 5 6 7 -7 10&#xA;-15 7 -18z m649 -17 c-3 -8 -6 -5 -6 6 -1 11 2 17 5 13 3 -3 4 -12 1 -19z&#xA;m-622 2 c3 -5 1 -10 -4 -10 -6 0 -11 5 -11 10 0 6 2 10 4 10 3 0 8 -4 11 -10z&#xA;m425 -104 c0 -2 -7 -7 -16 -10 -8 -3 -12 -2 -9 4 6 10 25 14 25 6z m153 -51&#xA;c-3 -9 -8 -14 -10 -11 -3 3 -2 9 2 15 9 16 15 13 8 -4z m-583 -10 c0 -7 -30&#xA;-13 -34 -7 -3 4 4 9 15 9 10 1 19 0 19 -2z m347 -57 c-3 -8 -6 -5 -6 6 -1 11&#xA;2 17 5 13 3 -3 4 -12 1 -19z"/>
    <path d="M2678 1168 c-8 -7 -18 -23 -21 -36 -6 -27 45 -230 72 -284 14 -29 15&#xA;-38 5 -38 -7 0 -16 5 -19 11 -4 6 -14 8 -22 5 -9 -4 -11 -2 -7 6 5 8 2 9 -10&#xA;5 -10 -4 -15 -3 -11 3 10 16 -131 76 -268 115 -84 23 -123 -5 -92 -66 41 -77&#xA;217 -231 245 -214 18 11 11 42 -12 58 -27 17 -83 71 -118 113 -15 17 -35 36&#xA;-45 42 -34 19 1 13 77 -14 40 -14 143 -62 228 -105 86 -43 164 -79 173 -79 23&#xA;0 22 35 -2 68 -37 53 -81 153 -106 238 -14 48 -24 91 -23 95 4 11 145 -116&#xA;208 -188 30 -34 71 -91 90 -125 25 -44 42 -63 55 -63 17 0 20 7 21 50 0 28 4&#xA;88 8 134 8 84 8 84 26 60 10 -13 21 -33 24 -44 18 -74 67 -191 84 -203 30 -20&#xA;45 11 31 64 -17 61 -61 154 -70 148 -5 -3 -6 1 -3 9 3 8 -10 39 -28 70 -24 42&#xA;-39 57 -55 57 -29 0 -38 -19 -53 -108 -7 -40 -15 -72 -20 -70 -4 2 -35 36 -69&#xA;76 -35 39 -68 69 -73 65 -6 -3 -8 -1 -5 5 9 13 -92 94 -106 85 -6 -3 -7 -1 -3&#xA;5 4 6 -12 22 -37 36 -51 30 -49 30 -69 14z m77 -66 c-3 -3 -11 0 -18 7 -9 10&#xA;-8 11 6 5 10 -3 15 -9 12 -12z m-15 -136 c0 -2 -8 -10 -17 -17 -16 -13 -17&#xA;-12 -4 4 13 16 21 21 21 13z m257 -71 c0 -8 -4 -12 -9 -9 -5 3 -6 10 -3 15 9&#xA;13 12 11 12 -6z m-532 -5 c3 -6 -1 -7 -9 -4 -18 7 -21 14 -7 14 6 0 13 -4 16&#xA;-10z m622 -22 c-3 -8 -6 -5 -6 6 -1 11 2 17 5 13 3 -3 4 -12 1 -19z m118 -18&#xA;c3 -5 1 -10 -4 -10 -6 0 -11 5 -11 10 0 6 2 10 4 10 3 0 8 -4 11 -10z m-155&#xA;-70 c0 -5 -2 -10 -4 -10 -3 0 -8 5 -11 10 -3 6 -1 10 4 10 6 0 11 -4 11 -10z&#xA;m-190 -70 c0 -5 -5 -10 -11 -10 -5 0 -7 5 -4 10 3 6 8 10 11 10 2 0 4 -4 4&#xA;-10z"/>
    <path d="M7449 1132 c-92 -60 -223 -188 -212 -206 3 -6 2 -8 -2 -3 -5 4 -17 0&#xA;-27 -10 -20 -18 -25 -38 -5 -27 7 4 9 3 4 -2 -5 -5 -14 -9 -20 -9 -15 0 -75&#xA;-89 -84 -123 -4 -18 -1 -29 13 -39 21 -16 17 -20 81 77 19 30 47 67 60 82 16&#xA;16 22 31 17 40 -4 7 -4 10 1 6 10 -10 37 11 29 23 -3 5 3 6 12 2 14 -5 16 -3&#xA;11 11 -4 9 -3 15 2 12 5 -3 21 6 37 20 49 43 94 77 98 73 2 -2 -17 -56 -41&#xA;-119 -88 -225 -89 -228 -76 -241 14 -14 69 11 65 30 -1 7 2 10 7 7 5 -4 53 23&#xA;105 59 99 67 236 141 236 128 0 -5 -23 -53 -50 -108 -28 -55 -48 -105 -46&#xA;-112 9 -23 34 -14 65 24 31 38 40 60 19 47 -7 -4 -8 -3 -4 5 4 6 11 9 15 6 10&#xA;-6 35 51 56 128 19 67 11 87 -36 87 -36 0 -171 -67 -257 -126 -35 -24 -65 -44&#xA;-67 -44 -2 0 8 28 22 62 22 54 63 197 63 219 0 14 -31 39 -48 38 -9 0 -29 -8&#xA;-43 -17z m62 -75 c-10 -9 -11 -8 -5 6 3 10 9 15 12 12 3 -3 0 -11 -7 -18z&#xA;m-68 -132 c-3 -9 -8 -14 -10 -11 -3 3 -2 9 2 15 9 16 15 13 8 -4z m254 -11&#xA;c-3 -3 -12 -4 -19 -1 -8 3 -5 6 6 6 11 1 17 -2 13 -5z m-444 -31 c-3 -7 -6&#xA;-13 -8 -13 -2 0 -5 6 -8 13 -3 8 1 14 8 14 7 0 11 -6 8 -14z m451 -139 c3 -8&#xA;2 -12 -4 -9 -6 3 -10 10 -10 16 0 14 7 11 14 -7z"/>
  </g>
  <title>Butterfly Flowers</title>
  <desc>Butterfly Flowers</desc>
</svg>