<?xml version="1.0" standalone="no"?>
<!DOCTYPE svg PUBLIC "-//W3C//DTD SVG 20010904//EN"
 "http://www.w3.org/TR/2001/REC-SVG-20010904/DTD/svg10.dtd">
<svg version="1.0" xmlns="http://www.w3.org/2000/svg"
 width="1024.000000pt" height="1024.000000pt" viewBox="0 0 1024.000000 1024.000000"
 preserveAspectRatio="xMidYMid meet">
<metadata>
Created by potrace 1.16, written by Peter Selinger 2001-2019
</metadata>
<g transform="translate(0.000000,1024.000000) scale(0.100000,-0.100000)"
fill="#000000" stroke="none">
<path d="M7180 9881 c-71 -23 -110 -43 -190 -99 -287 -201 -626 -547 -817
-832 -65 -97 -165 -282 -213 -393 -103 -242 -164 -517 -185 -848 -7 -103 -8
-106 -30 -102 -18 4 -26 17 -39 66 -9 34 -35 98 -56 142 -91 189 -233 300
-412 322 -41 5 -49 3 -73 -21 -24 -25 -27 -33 -23 -81 3 -35 19 -83 46 -140
32 -67 38 -85 25 -80 -78 33 -242 54 -290 37 l-30 -10 -6 167 c-3 91 -13 207
-22 256 -42 232 -169 502 -340 720 -85 109 -341 366 -445 449 -47 37 -138 103
-204 147 -294 198 -458 229 -573 108 -75 -79 -97 -184 -90 -421 11 -377 139
-840 311 -1123 164 -271 424 -555 674 -738 l84 -61 -79 -75 c-133 -127 -217
-244 -293 -405 -54 -114 -100 -252 -125 -371 -13 -64 -54 -378 -55 -420 0 -6
-30 -33 -66 -60 -190 -143 -329 -430 -284 -589 15 -53 46 -81 85 -74 22 5 25
1 30 -31 23 -164 79 -274 210 -410 150 -156 328 -278 524 -358 58 -23 110 -44
115 -46 5 -2 -11 -30 -35 -64 -24 -33 -49 -68 -54 -78 -10 -16 -14 -16 -63 9
-111 56 -255 71 -356 36 -71 -24 -173 -95 -219 -153 -49 -60 -76 -117 -98
-211 l-19 -81 5 60 c11 121 57 368 82 438 35 101 39 127 19 127 -73 0 -188
-297 -232 -595 -23 -157 -36 -166 -30 -20 6 128 -7 281 -28 343 -12 33 -10 47
11 125 31 113 87 274 124 356 16 35 28 66 26 68 -9 8 -88 -60 -115 -99 -34
-50 -82 -143 -107 -210 -15 -42 -35 -64 -35 -40 0 5 -16 27 -36 50 l-36 42 16
78 c9 42 34 138 57 212 52 168 56 190 36 190 -58 0 -129 -138 -187 -367 l-11
-42 -62 34 c-76 42 -199 83 -292 99 -82 14 -81 7 -33 151 66 199 150 308 304
394 162 91 226 134 255 174 57 79 62 151 13 222 -14 21 -24 38 -22 40 2 1 30
18 63 38 95 58 177 144 226 237 18 36 23 61 24 122 0 70 -2 79 -30 113 -28 35
-61 58 -96 68 -13 4 -10 17 22 82 91 186 91 343 1 438 -76 81 -199 96 -313 39
-80 -39 -148 -98 -190 -162 l-31 -48 -39 20 c-23 12 -46 17 -59 13 -20 -6 -20
-6 1 47 12 29 30 87 40 128 60 243 -32 442 -205 443 -63 1 -99 -17 -163 -83
l-49 -50 -22 98 c-41 182 -117 297 -236 360 -44 23 -63 27 -136 27 -68 0 -94
-4 -131 -23 -77 -38 -125 -87 -166 -169 -38 -76 -38 -78 -38 -197 0 -67 4
-142 9 -168 l9 -47 -42 21 c-119 59 -244 15 -281 -98 -17 -51 -8 -159 19 -218
11 -27 39 -76 62 -109 32 -46 38 -61 27 -68 -7 -5 -18 -9 -24 -9 -12 0 -71
-63 -89 -95 -10 -16 -15 -13 -48 33 -152 206 -392 296 -540 202 -159 -101
-164 -349 -12 -579 24 -36 60 -82 79 -100 42 -41 45 -51 14 -51 -40 0 -123
-46 -156 -86 -90 -108 -60 -282 67 -395 56 -50 160 -108 268 -149 l62 -24 -31
-35 c-40 -46 -58 -90 -58 -146 0 -83 50 -144 140 -169 30 -8 106 -22 168 -31
256 -37 342 -79 448 -220 31 -42 55 -77 53 -80 -3 -2 -45 -24 -95 -49 -208
-104 -343 -255 -424 -473 -16 -43 -29 -68 -30 -55 0 41 -80 265 -130 367 -58
119 -120 200 -186 243 -43 29 -49 31 -63 17 -14 -14 -9 -29 56 -153 79 -153
128 -277 172 -438 35 -128 95 -434 87 -442 -3 -3 -6 1 -6 9 0 28 -112 246
-175 339 -137 206 -349 386 -494 419 -37 8 -43 7 -53 -12 -9 -18 -5 -26 33
-60 179 -162 251 -244 344 -392 79 -126 128 -234 191 -419 57 -166 66 -221 22
-124 -68 149 -216 317 -348 396 -117 70 -233 100 -260 67 -10 -12 -4 -20 36
-47 172 -119 304 -275 406 -480 37 -73 122 -307 115 -315 -2 -2 -21 23 -43 54
-21 31 -75 94 -119 139 -93 95 -197 154 -271 154 -78 0 -70 -27 32 -105 41
-31 96 -85 122 -119 46 -58 182 -261 182 -271 0 -3 -13 -5 -28 -5 -87 0 -249
-70 -319 -137 -43 -42 -51 -65 -33 -93 8 -13 15 -12 52 9 157 86 226 110 342
118 71 5 92 10 105 26 116 140 194 175 330 146 l50 -10 37 -112 c40 -121 115
-306 187 -457 108 -229 217 -462 217 -465 0 -2 -39 -2 -87 -2 -49 1 -100 -1
-115 -6 -26 -7 -28 -5 -28 21 0 53 -39 186 -77 262 -44 86 -137 191 -219 245
-109 73 -297 115 -350 80 -35 -22 -21 -36 66 -64 204 -66 364 -232 429 -445
29 -94 26 -108 -9 -52 -49 76 -197 218 -266 254 -115 60 -244 76 -374 46 -79
-18 -135 -51 -135 -79 0 -19 8 -20 140 -21 125 0 147 -3 206 -25 124 -48 227
-124 297 -223 l33 -46 -47 0 c-175 0 -376 -94 -450 -211 -50 -79 -19 -91 82
-30 88 53 224 101 306 108 46 4 89 0 143 -12 l77 -18 71 36 c40 19 94 41 120
48 61 15 172 6 227 -18 38 -17 44 -25 110 -168 61 -131 67 -151 52 -156 -9 -4
-48 -14 -85 -23 -152 -37 -240 -83 -245 -129 -4 -34 -1 -34 145 4 178 47 322
49 463 9 67 -19 68 -24 17 -79 -83 -89 -56 -123 57 -71 332 152 573 154 905 5
l60 -27 58 33 c54 32 63 34 148 33 105 0 166 -19 322 -96 56 -27 106 -47 112
-43 22 13 10 44 -38 92 l-50 51 89 41 c182 85 370 142 510 156 88 9 227 -10
330 -45 87 -29 221 -97 252 -128 16 -16 14 -20 -32 -68 -41 -43 -57 -53 -97
-59 -76 -11 -151 -44 -194 -84 -38 -37 -49 -64 -29 -76 5 -3 47 6 92 20 73 23
93 26 164 20 l82 -6 36 49 c64 88 184 166 301 197 88 22 237 20 321 -6 73 -22
106 -37 165 -75 l37 -23 -43 -44 c-48 -50 -64 -93 -42 -114 11 -12 26 -7 99
32 48 25 124 60 170 78 81 31 88 32 238 32 143 -1 161 -3 235 -28 44 -16 109
-45 144 -65 36 -20 78 -45 95 -54 22 -13 33 -15 43 -6 23 19 14 37 -54 107
-49 49 -89 78 -141 103 l-74 36 44 29 c131 91 250 113 411 77 75 -17 205 -73
289 -124 58 -36 88 -39 88 -10 0 35 -26 75 -85 128 l-56 51 48 24 c141 71 274
59 445 -39 43 -25 91 -47 108 -50 26 -6 32 -2 47 26 l18 32 95 -5 c104 -5 173
-26 254 -77 46 -29 49 -30 67 -14 28 25 23 49 -19 93 -64 67 -230 130 -344
131 -21 0 -38 2 -38 4 0 2 33 57 73 122 80 132 108 157 195 175 124 25 257
-12 333 -93 l36 -38 84 20 c150 36 247 25 445 -51 50 -19 65 -21 77 -11 47 40
-80 136 -230 174 l-47 11 50 44 c70 63 204 127 318 153 53 13 99 26 102 31 3
5 -10 18 -28 29 -29 19 -46 21 -148 18 -112 -3 -117 -4 -201 -45 -58 -28 -108
-63 -157 -108 -40 -37 -72 -63 -72 -59 0 18 77 144 122 200 87 108 180 180
371 286 102 58 125 82 92 94 -31 12 -207 -37 -294 -82 -142 -73 -292 -217
-368 -352 -19 -35 -37 -61 -39 -59 -8 7 71 237 104 302 62 124 190 292 312
409 44 43 5 59 -59 25 -241 -127 -450 -453 -486 -760 l-7 -57 -47 21 c-35 16
-73 22 -162 25 l-116 4 57 102 c138 244 371 728 455 943 27 68 30 72 69 82
179 47 277 28 355 -70 38 -46 35 -46 170 -9 96 26 188 25 287 -1 43 -12 93
-22 109 -23 25 -1 30 3 33 26 2 20 -5 32 -33 53 -105 80 -301 106 -460 60 -15
-5 -24 0 -34 18 -12 23 -8 32 80 153 99 137 219 288 331 418 37 43 68 85 68
93 0 21 -51 8 -125 -30 -78 -41 -279 -240 -359 -357 -32 -47 -56 -78 -53 -70
34 91 140 326 191 428 105 205 193 339 314 474 53 60 54 61 34 80 -18 18 -22
18 -53 5 -49 -21 -179 -136 -242 -214 -90 -113 -145 -200 -228 -367 -43 -88
-79 -155 -79 -150 0 27 86 330 130 459 88 258 183 467 291 642 42 68 47 88 24
97 -37 14 -144 -85 -225 -207 -60 -91 -143 -265 -194 -407 l-45 -125 0 145
c-1 148 -16 266 -46 355 -21 62 -30 72 -50 55 -12 -10 -15 -42 -15 -185 0
-143 -23 -471 -34 -482 -2 -2 -8 29 -15 68 -31 188 -155 357 -344 467 l-77 45
16 26 c134 210 236 288 494 376 203 70 265 106 301 177 26 51 22 121 -10 166
l-21 30 57 22 c175 66 302 161 359 271 26 48 29 64 29 146 0 85 -2 94 -30 134
-16 23 -49 52 -71 63 l-42 21 34 40 c44 53 98 155 119 229 38 131 -3 258 -104
325 -53 35 -57 36 -145 35 -66 0 -107 -6 -149 -21 -75 -28 -182 -100 -240
-162 -39 -41 -48 -47 -58 -35 -10 12 -8 20 9 42 60 74 152 225 177 287 64 161
-7 289 -151 272 -24 -2 -44 -3 -44 -2 0 2 13 34 29 71 63 149 69 300 16 407
-36 74 -109 140 -177 163 -65 21 -160 15 -223 -16 -67 -33 -154 -118 -199
-194 l-39 -66 -18 29 c-52 85 -166 99 -232 27 -39 -40 -75 -119 -82 -176 -3
-25 -8 -59 -11 -77 l-5 -32 -32 19 c-43 26 -110 26 -153 -1 -21 -12 -43 -41
-61 -77 -25 -51 -28 -67 -28 -162 0 -58 6 -128 13 -157 l14 -52 -34 -30 c-38
-35 -48 -38 -48 -13 0 33 -68 161 -110 206 -23 25 -68 58 -99 73 -48 24 -69
28 -141 28 -73 0 -92 -4 -136 -27 -66 -35 -128 -106 -150 -171 -21 -65 -21
-183 1 -268 20 -78 78 -205 107 -236 l21 -23 -42 0 c-163 0 -254 -167 -176
-326 30 -62 153 -197 236 -260 l48 -37 -38 -27 c-47 -35 -71 -84 -71 -148 0
-95 34 -142 160 -220 236 -146 304 -242 364 -514 6 -26 4 -27 -41 -33 -238
-33 -382 -96 -502 -218 -109 -112 -159 -213 -217 -447 -16 -63 -30 -106 -32
-96 -6 28 37 270 65 366 34 119 145 395 209 519 30 58 54 111 54 118 0 28 -45
2 -107 -63 -47 -47 -77 -92 -117 -172 -65 -129 -136 -321 -172 -466 -15 -59
-28 -105 -30 -104 -1 2 -8 73 -14 158 -6 85 -18 195 -26 244 -16 94 -41 149
-55 123 -18 -31 -29 -203 -31 -479 -2 -272 -3 -286 -20 -277 -10 5 -18 14 -18
20 0 26 -76 212 -113 274 -63 110 -121 180 -262 322 l-132 133 74 46 c116 72
233 174 301 263 35 44 66 81 70 81 4 0 16 -7 26 -15 45 -34 116 -10 160 53 48
70 68 138 74 255 l5 108 28 -6 c37 -8 73 26 90 86 38 138 -94 389 -267 509
l-41 29 -6 99 c-24 366 -143 719 -340 1013 l-17 25 108 86 c132 105 442 388
499 456 107 127 236 325 298 457 87 185 162 446 210 727 36 215 42 607 11 743
-30 132 -84 228 -147 260 -37 20 -121 18 -189 -4z m164 -244 c71 -248 22 -795
-105 -1187 -37 -111 -131 -315 -191 -409 -118 -188 -257 -337 -563 -603 -115
-100 -183 -154 -190 -147 -29 29 107 319 249 528 53 79 95 148 94 153 -6 17
-118 -93 -181 -176 -32 -44 -77 -113 -99 -153 -22 -41 -42 -73 -43 -71 -4 4 5
49 41 223 73 345 215 705 397 1007 98 164 172 262 285 379 125 130 135 163 27
88 -201 -139 -430 -440 -605 -794 -157 -318 -243 -605 -300 -1002 l-22 -153
37 -77 c20 -43 54 -100 75 -128 204 -267 312 -600 355 -1096 l6 -67 54 -37
c97 -67 163 -140 206 -228 55 -115 53 -125 -19 -76 -44 31 -66 40 -90 37 l-32
-3 42 -89 c39 -85 41 -95 41 -180 0 -72 -5 -105 -25 -159 l-25 -68 -27 55
c-30 60 -78 108 -101 100 -8 -3 -17 -22 -21 -42 -20 -121 -63 -194 -189 -319
-134 -133 -271 -219 -567 -357 -78 -36 -122 -63 -134 -81 -15 -23 -15 -28 -3
-36 8 -5 21 -9 30 -9 36 0 188 33 261 57 l77 25 95 -81 c121 -104 226 -216
288 -310 51 -75 102 -175 114 -223 l6 -28 -66 0 c-130 0 -291 -52 -416 -135
-36 -24 -104 -79 -151 -123 l-85 -80 4 58 c5 61 -9 100 -34 100 -9 0 -39 -24
-66 -54 -69 -76 -165 -106 -244 -76 -25 10 -26 13 -22 63 3 28 19 87 36 130
51 126 40 160 -28 89 -57 -60 -92 -143 -99 -237 -6 -74 -8 -80 -32 -89 -66
-23 -154 29 -185 110 -13 33 -15 62 -11 117 7 90 32 149 102 239 57 72 62 83
45 93 -33 21 -149 -84 -197 -178 -33 -66 -56 -179 -48 -239 l7 -47 -33 12
c-83 30 -136 130 -127 241 17 201 218 358 442 343 186 -12 362 -106 554 -297
111 -110 132 -118 132 -52 0 113 -173 298 -375 399 -100 51 -190 74 -305 80
-116 6 -180 -6 -275 -54 -94 -48 -192 -149 -244 -255 l-14 -27 -51 29 c-84 47
-234 63 -332 35 -17 -5 -24 1 -40 37 -10 23 -34 65 -53 92 l-33 49 22 46 c12
25 38 70 58 99 l37 54 45 -6 c144 -18 176 -18 189 -3 33 40 -10 66 -264 157
-244 88 -446 209 -590 354 -170 172 -225 279 -228 450 l-2 101 -28 3 c-16 2
-39 -4 -52 -12 -33 -22 -34 -21 -29 17 21 143 139 309 290 408 l61 40 7 87
c39 508 175 855 436 1112 207 203 481 321 786 338 113 6 129 9 132 25 5 27
-18 48 -134 118 -104 64 -105 64 -68 67 66 6 180 -27 305 -89 66 -32 124 -59
130 -59 36 0 -47 195 -159 375 -17 27 -29 51 -27 53 2 2 29 -7 60 -22 111 -50
192 -162 275 -376 47 -124 39 -115 111 -116 49 0 76 -7 116 -27 52 -27 83 -34
83 -19 1 4 3 57 5 117 7 152 23 314 41 415 88 486 306 903 669 1278 224 233
444 401 599 458 l61 23 22 -25 c13 -14 29 -48 37 -77z m-3733 -84 c268 -135
649 -473 851 -754 118 -165 218 -400 258 -604 17 -89 20 -146 20 -356 0 -249
0 -249 -22 -259 -13 -5 -60 -24 -105 -43 l-83 -35 0 27 c0 68 -22 312 -35 404
-45 296 -141 550 -294 778 -159 238 -360 442 -539 547 -35 20 -46 22 -52 12
-6 -9 31 -51 122 -139 149 -143 221 -228 322 -380 167 -250 260 -488 306 -786
30 -197 29 -204 -25 -116 -122 197 -345 451 -345 393 0 -9 59 -98 172 -262 90
-129 121 -185 167 -293 39 -92 77 -224 67 -234 -3 -3 -69 49 -148 115 -444
371 -676 724 -797 1207 -71 286 -100 606 -66 722 35 119 78 130 226 56z m1284
-1912 c3 -5 1 -12 -5 -16 -5 -3 -10 1 -10 9 0 18 6 21 15 7z m-2790 -70 c75
-34 139 -125 183 -261 23 -70 65 -255 76 -332 6 -37 11 -48 25 -48 24 0 35 15
51 65 7 22 30 75 52 118 60 115 116 154 177 123 45 -24 71 -82 71 -161 0 -146
-66 -360 -136 -438 -173 -194 -211 -465 -144 -1022 17 -143 33 -267 35 -275 2
-8 -4 -46 -14 -85 l-19 -70 -6 110 c-24 387 -66 687 -156 1105 -99 460 -232
910 -270 910 -21 0 -8 -76 69 -427 76 -342 141 -658 141 -685 0 -7 -35 21 -78
62 -44 41 -132 113 -198 160 -230 163 -317 245 -396 370 -88 140 -93 241 -14
255 52 10 114 -23 205 -110 79 -76 82 -77 101 -60 27 24 25 42 -12 192 -27
106 -32 148 -33 243 0 99 3 120 22 155 58 108 168 152 268 106z m6834 -101
c51 -25 78 -61 97 -125 24 -85 -2 -201 -102 -444 -27 -65 -32 -86 -23 -97 16
-20 46 -17 79 6 37 27 110 60 133 60 25 0 57 -36 57 -65 0 -32 -48 -138 -91
-202 -70 -105 -134 -183 -148 -183 -29 0 -118 -59 -156 -102 -80 -94 -128
-206 -146 -345 l-11 -88 -39 -1 c-72 -2 -147 -82 -175 -185 -7 -30 -17 -106
-21 -169 -5 -91 -11 -123 -28 -155 -83 -149 -192 -441 -225 -599 -11 -55 -23
-102 -27 -105 -19 -18 43 306 98 505 76 278 273 924 294 964 45 84 190 236
349 366 117 95 0 53 -135 -48 -42 -32 -101 -84 -129 -115 -29 -32 -50 -49 -47
-38 4 11 25 81 47 155 23 74 81 259 130 410 50 152 90 281 90 287 0 7 -4 14
-9 18 -33 20 -206 -408 -375 -925 -42 -129 -79 -241 -81 -248 -3 -9 -18 1 -43
27 -34 35 -45 41 -81 41 -41 0 -42 1 -37 28 24 124 28 163 24 250 -4 65 -13
116 -27 153 -25 65 -87 141 -130 158 -34 15 -39 29 -47 166 -8 124 5 182 42
191 33 8 60 -17 135 -128 32 -47 64 -90 70 -93 6 -4 18 0 27 8 13 14 14 28 2
121 -21 172 -4 310 45 373 l23 28 22 -20 c31 -28 62 -113 94 -257 5 -21 12
-28 31 -28 20 0 26 7 35 43 26 95 94 250 135 306 80 108 185 147 274 101z
m-5624 -654 c104 -44 83 -191 -63 -435 -84 -142 -81 -170 15 -137 66 23 100
20 128 -9 41 -40 29 -86 -47 -177 -55 -66 -121 -112 -277 -193 -97 -50 -140
-78 -151 -98 -22 -40 -3 -49 90 -41 206 16 200 -101 -10 -210 -264 -138 -361
-258 -462 -574 -37 -115 -53 -140 -44 -64 11 87 102 434 136 518 18 43 45 123
61 178 15 54 42 125 59 157 17 33 100 189 184 349 85 159 157 298 161 309 18
58 -47 -7 -136 -134 -98 -141 -334 -544 -374 -640 -11 -26 -31 155 -40 360
-11 241 26 412 117 551 35 51 111 106 143 102 19 -3 20 -9 16 -118 -3 -97 -1
-118 13 -129 13 -11 19 -11 31 -1 8 7 15 17 15 22 0 29 69 180 112 243 58 88
120 142 191 166 64 22 88 23 132 5z m4241 -27 c83 -40 143 -137 192 -306 35
-123 46 -127 102 -39 47 74 82 106 116 106 35 0 80 -45 98 -97 22 -64 21 -219
-3 -368 -33 -206 -35 -229 -16 -245 14 -11 22 -6 70 43 42 45 60 57 84 57 39
0 51 -23 51 -97 0 -41 -10 -86 -34 -153 -105 -291 -126 -354 -144 -440 -11
-52 -26 -142 -32 -200 -22 -193 -26 -196 -34 -30 -16 357 -50 533 -177 907
-99 291 -268 657 -289 623 -11 -17 3 -69 58 -221 77 -209 198 -584 226 -694
67 -272 96 -513 97 -819 0 -70 -2 -130 -4 -132 -2 -2 -13 42 -24 99 -47 239
-158 388 -380 514 -91 51 -117 75 -127 115 -4 20 0 34 17 54 31 35 101 43 183
19 l58 -17 19 23 c19 23 19 23 -26 64 -24 22 -92 73 -150 114 -228 158 -333
300 -292 398 26 62 93 67 200 17 33 -16 72 -34 86 -41 23 -10 29 -10 43 6 15
16 11 26 -54 135 -118 196 -154 279 -174 398 -8 46 9 123 35 160 47 65 146 86
225 47z m-6502 -134 c99 -47 205 -159 294 -310 62 -106 72 -118 86 -105 8 5
16 39 20 74 14 137 51 206 112 206 24 0 40 -9 64 -36 64 -74 102 -208 120
-424 23 -286 46 -400 80 -400 5 0 12 12 16 28 14 64 37 122 64 166 27 42 34
47 63 44 27 -3 36 -10 57 -53 l25 -50 -5 -240 c-9 -458 -6 -624 13 -694 10
-35 15 -66 13 -69 -6 -5 -12 9 -112 256 -181 445 -268 606 -483 896 -151 203
-398 476 -432 476 -28 0 8 -63 124 -218 40 -53 121 -160 179 -237 95 -126 249
-347 245 -352 -1 -1 -56 17 -122 39 -121 40 -265 62 -265 40 0 -5 51 -31 113
-57 218 -91 331 -160 374 -228 39 -61 125 -259 186 -423 75 -204 79 -225 28
-146 -87 134 -192 216 -331 261 -36 11 -132 32 -214 46 -81 15 -158 30 -170
35 -52 19 -64 75 -26 115 36 39 82 48 197 42 96 -5 104 -5 114 14 22 41 -22
66 -265 151 -248 86 -336 139 -393 235 -48 83 -31 166 43 202 49 24 173 17
286 -15 10 -3 21 3 28 15 16 31 -8 69 -82 126 -156 122 -248 233 -288 349 -39
113 -20 207 50 254 29 20 44 23 86 19 29 -3 77 -17 108 -32z m8555 -193 c132
-67 71 -288 -143 -516 -48 -52 -56 -75 -31 -96 12 -10 25 -10 59 -1 112 28
166 -3 166 -96 0 -88 -92 -194 -226 -261 -43 -21 -133 -61 -199 -87 -187 -75
-242 -108 -231 -141 5 -17 15 -19 91 -15 98 4 142 -9 151 -45 8 -30 -16 -68
-54 -88 -15 -8 -95 -37 -177 -66 -176 -61 -208 -76 -298 -142 -71 -53 -118
-105 -173 -191 -19 -29 -34 -47 -34 -40 0 19 67 206 116 319 86 202 161 312
273 401 51 39 243 141 394 207 55 24 75 46 41 46 -60 0 -299 -80 -389 -131
-31 -17 -58 -30 -60 -27 -11 10 163 245 320 433 96 115 175 213 175 217 0 4
-6 8 -12 8 -59 0 -327 -271 -496 -499 -144 -194 -317 -536 -397 -781 -19 -58
-41 -94 -31 -50 27 118 28 125 46 505 15 289 33 380 87 428 30 26 42 5 56 -95
11 -73 15 -83 34 -86 26 -4 22 -18 77 263 51 261 62 299 112 372 32 46 112
113 135 113 17 0 39 -61 46 -122 11 -113 40 -117 103 -16 91 147 213 249 339
284 64 17 91 17 130 -4z m-7659 -110 c90 -65 203 -173 274 -262 52 -64 53 -66
70 -178 34 -226 57 -509 63 -794 4 -192 2 -288 -4 -288 -6 0 -14 37 -17 83
-21 244 -75 496 -131 612 -31 65 -34 79 -38 190 -6 171 -45 258 -134 304 -32
16 -110 13 -138 -5 l-25 -16 0 90 c0 95 -21 238 -45 311 -8 25 -15 46 -15 48
0 5 27 -14 140 -95z m216 -1053 c8 -30 23 -112 34 -184 27 -178 26 -312 -3
-302 -15 5 -24 44 -42 177 -14 109 -21 380 -9 368 3 -3 12 -30 20 -59z m6199
-241 c-4 -29 -22 -127 -41 -218 -19 -91 -37 -177 -40 -192 -3 -16 -12 -28 -20
-28 -18 0 -18 40 0 141 13 73 95 349 104 349 2 0 1 -24 -3 -52z m-5685 -377
c269 -61 451 -211 505 -418 14 -53 25 -356 14 -368 -3 -2 -61 5 -129 17 -100
16 -150 19 -250 14 -133 -6 -176 -14 -263 -46 -50 -19 -76 -44 -62 -58 3 -3
71 0 151 7 142 13 249 10 423 -10 130 -15 150 -34 79 -70 -222 -112 -460 -486
-551 -869 -40 -168 -52 -272 -51 -465 1 -186 14 -286 54 -436 38 -140 45 -123
-63 -141 -58 -9 -122 -28 -165 -48 -117 -54 -162 -123 -63 -98 197 49 367 70
376 47 6 -17 -61 -298 -77 -316 -16 -20 -36 -16 -77 18 -43 34 -134 66 -218
76 l-56 6 -74 156 c-89 186 -157 335 -224 490 -38 86 -47 117 -38 127 21 25
234 123 324 149 49 14 94 30 99 35 39 39 -116 45 -234 10 -76 -22 -173 -67
-221 -101 l-27 -19 -61 134 c-78 172 -103 236 -98 251 6 14 148 101 244 149
40 20 132 56 205 81 73 25 137 50 142 55 5 5 -1 14 -17 21 -74 33 -431 -77
-580 -179 l-44 -31 -36 100 c-33 89 -109 350 -104 355 17 17 335 170 400 193
149 52 166 71 63 71 -121 0 -253 -38 -413 -119 -46 -23 -83 -38 -83 -34 0 5
-9 62 -20 128 -12 66 -23 165 -27 221 l-6 100 28 22 c43 34 271 146 378 186
54 20 164 55 245 77 165 45 202 57 202 70 0 14 -126 10 -220 -6 -200 -35 -480
-144 -597 -231 -17 -13 -34 -24 -37 -24 -12 0 7 116 30 191 78 251 318 425
708 514 163 38 387 44 516 16z m5496 -186 c155 -35 280 -77 368 -122 85 -44
208 -163 249 -240 52 -98 69 -250 47 -421 -12 -88 -17 -98 -39 -78 -58 52
-288 126 -396 126 -47 0 -85 -9 -85 -20 0 -9 21 -17 181 -68 69 -22 167 -59
216 -82 l91 -42 -24 -86 c-13 -48 -33 -115 -45 -149 l-20 -62 -95 65 c-107 75
-236 131 -371 163 -160 37 -373 41 -373 6 0 -9 15 -16 38 -20 139 -21 270 -52
370 -86 148 -50 402 -177 402 -201 0 -27 -213 -525 -234 -546 -2 -2 -26 12
-53 31 -91 65 -233 124 -368 153 -72 16 -241 21 -295 9 -49 -11 -36 -32 28
-45 188 -38 306 -73 416 -124 71 -33 216 -121 216 -132 0 -12 -153 -308 -237
-459 -84 -150 -296 -512 -307 -522 -2 -2 -37 8 -78 23 -143 52 -341 43 -457
-21 -24 -14 -46 -23 -48 -21 -8 8 -41 216 -54 341 -12 118 -12 121 15 213 14
51 29 112 32 136 l6 44 90 17 c73 15 113 16 216 10 192 -12 235 -12 239 3 7
18 -75 51 -186 74 -74 15 -124 19 -217 16 l-122 -4 -4 251 c-4 200 -10 277
-28 387 -13 76 -21 140 -19 143 19 18 213 47 356 53 209 9 227 23 78 63 -108
29 -373 32 -446 4 -10 -4 -19 11 -32 54 -10 32 -29 82 -43 111 -15 32 -24 70
-24 100 0 59 16 230 31 326 l11 72 107 26 c195 47 292 59 520 60 155 1 215 4
218 13 6 18 -25 30 -134 52 -185 38 -538 24 -668 -25 -39 -15 42 169 109 248
165 192 495 263 852 183z m-4201 -217 c-91 -66 -155 -167 -187 -291 -20 -80
-21 -169 -2 -235 l7 -23 -39 16 c-21 9 -50 26 -63 38 -81 74 -80 235 1 354 59
87 184 163 268 163 l45 -1 -30 -21z m263 -102 c28 -30 62 -75 74 -101 20 -42
21 -47 7 -56 -97 -54 -220 -183 -288 -303 l-32 -56 -30 15 c-40 21 -80 104
-87 181 -11 139 75 294 193 350 79 38 104 33 163 -30z m526 -249 l58 -27 -6
-37 c-9 -52 8 -144 36 -200 44 -88 147 -153 241 -153 30 0 46 -6 63 -25 13
-14 36 -28 52 -31 33 -7 75 -74 91 -147 20 -88 -29 -262 -86 -307 -55 -43
-100 -15 -207 128 -113 154 -178 202 -271 202 -84 0 -164 -62 -209 -159 -30
-67 -28 -195 3 -275 44 -110 148 -186 255 -186 52 0 173 66 155 85 -3 2 -25
-1 -49 -6 -25 -6 -70 -9 -102 -7 -197 14 -289 296 -143 442 45 46 95 56 143
30 38 -20 107 -98 171 -193 48 -70 120 -136 166 -151 50 -16 112 3 155 49 35
36 80 134 80 171 0 52 22 19 56 -83 l37 -114 -37 -87 c-46 -106 -90 -234 -117
-341 -11 -44 -23 -83 -26 -88 -2 -4 -20 6 -39 23 -87 76 -192 98 -282 60 -80
-35 -156 -122 -183 -212 -30 -96 -23 -210 15 -287 97 -190 294 -251 427 -132
l44 40 -55 -14 c-121 -32 -220 -7 -292 73 -64 71 -73 96 -73 202 0 87 3 100
30 149 42 77 91 113 159 119 71 6 113 -15 179 -89 l52 -58 -3 -123 c-4 -128
11 -229 48 -335 21 -60 21 -60 -68 -112 -132 -78 -286 -121 -429 -121 l-70 0
-5 44 c-12 102 -100 215 -206 264 -40 19 -78 28 -130 30 -98 6 -134 -3 -188
-44 -25 -19 -47 -34 -49 -32 -21 26 -90 137 -114 185 -120 241 -153 615 -90
1038 15 105 42 215 51 215 5 0 26 -9 48 -20 46 -23 110 -26 148 -6 36 19 96
83 117 126 36 71 62 221 35 205 -6 -4 -29 -43 -51 -88 -74 -148 -117 -187
-187 -167 -20 6 -47 19 -60 30 l-24 19 36 82 c111 259 274 425 456 466 82 19
176 11 244 -20z m1844 -182 c109 -14 263 -134 343 -266 86 -143 142 -305 178
-518 28 -164 28 -191 -1 -191 -53 0 -84 35 -147 162 -71 146 -92 169 -160 176
-64 6 -107 -18 -222 -124 -140 -128 -168 -138 -229 -76 -38 37 -42 47 -95 235
-19 66 -50 108 -99 131 -72 34 -153 11 -273 -77 -34 -25 -80 -55 -102 -66 -41
-21 -91 -28 -91 -13 0 5 28 49 62 98 192 278 417 468 613 518 100 25 115 26
223 11z m-3056 -115 c98 -36 192 -108 280 -213 l41 -48 -28 -114 -27 -114 -57
5 c-45 4 -62 1 -88 -15 -43 -27 -87 -95 -124 -188 -58 -151 -81 -203 -89 -203
-5 0 -35 30 -67 67 -157 182 -194 213 -254 213 -65 0 -181 -160 -229 -315 -7
-22 -16 -44 -20 -49 -10 -10 -88 88 -125 156 l-27 49 27 92 c28 99 109 278
170 373 108 171 227 276 360 321 57 19 186 10 257 -17z m2237 -158 c-8 -11
-42 -56 -77 -102 -35 -46 -89 -125 -120 -176 l-57 -93 -21 67 c-12 37 -41 109
-63 161 -23 52 -41 95 -41 97 0 9 109 26 165 25 44 0 90 7 125 18 30 11 66 19
79 20 21 1 22 -1 10 -17z m356 -278 c23 -9 49 -67 70 -154 20 -86 62 -175 97
-207 28 -26 88 -53 120 -53 41 0 103 39 197 125 174 159 196 157 286 -25 75
-150 126 -200 204 -200 l31 0 0 -117 c0 -152 -13 -241 -37 -259 -10 -7 -38
-23 -62 -35 -40 -20 -47 -21 -70 -8 -14 8 -39 35 -55 59 -15 25 -47 74 -70
110 -47 75 -99 110 -161 110 -51 0 -101 -23 -211 -98 -113 -75 -146 -92 -182
-92 -40 0 -74 29 -99 87 -12 26 -33 75 -48 108 -43 98 -99 145 -173 145 -29 0
-76 -18 -170 -65 -72 -36 -139 -65 -149 -65 -10 0 -29 7 -41 16 -24 16 -92
142 -92 169 0 18 41 117 90 217 l33 68 52 -6 c70 -8 109 6 203 73 136 99 182
118 237 97z m-2357 -143 c11 -7 11 -26 0 -112 -17 -135 -16 -450 1 -559 7 -47
24 -129 38 -184 13 -54 21 -101 18 -104 -12 -12 -62 28 -134 107 -90 98 -183
171 -218 171 -30 0 -84 -53 -115 -114 -12 -22 -38 -87 -58 -144 l-36 -103 -55
58 c-30 32 -78 86 -108 120 -61 71 -119 113 -155 113 -52 0 -127 -111 -192
-285 l-18 -49 -14 44 c-45 153 -65 460 -40 634 l13 89 39 -57 c46 -67 109
-126 134 -126 28 0 48 28 77 103 62 165 138 287 179 287 25 0 32 -7 176 -177
72 -87 140 -131 174 -115 23 10 31 27 137 276 43 102 71 136 112 136 18 0 38
-4 45 -9z m1759 -524 c28 -30 68 -47 112 -47 29 0 73 17 166 65 70 36 138 65
152 65 38 0 84 -55 118 -141 53 -135 102 -192 174 -204 51 -8 126 22 241 96
112 74 143 89 179 89 42 0 83 -39 140 -133 57 -94 81 -120 135 -142 33 -14 46
-15 83 -4 24 6 46 16 49 20 3 5 9 9 14 9 10 0 -30 -150 -67 -254 -33 -92 -86
-196 -110 -218 -33 -30 -94 -50 -131 -43 -54 10 -77 31 -116 105 -42 80 -76
112 -139 130 -60 16 -96 9 -205 -45 -111 -54 -180 -75 -244 -75 -94 0 -153 47
-209 165 -73 155 -183 183 -376 96 -50 -23 -95 -41 -100 -41 -11 0 -23 79 -23
155 0 74 26 225 62 354 l31 114 23 -48 c13 -26 32 -57 41 -68z m-1914 -375
c134 -130 181 -162 235 -162 27 0 34 -7 70 -72 22 -40 72 -112 110 -160 l70
-87 -41 -38 c-89 -82 -224 -157 -342 -189 -33 -9 -118 -18 -190 -21 -162 -6
-264 15 -405 84 -78 39 -110 62 -181 133 -104 104 -165 200 -150 239 48 128
148 341 160 341 8 0 78 -72 162 -169 72 -84 131 -131 164 -131 30 0 47 27 100
166 49 125 83 194 98 194 5 0 68 -57 140 -128z m2117 -127 c21 -11 43 -43 81
-115 75 -148 122 -180 264 -180 87 0 125 10 245 65 166 75 210 70 269 -31 74
-126 120 -163 205 -164 l40 0 -30 -31 c-45 -47 -128 -98 -220 -136 -224 -91
-438 -96 -678 -15 -220 75 -412 252 -486 449 -26 71 -26 76 13 89 17 6 70 28
117 48 93 39 135 44 180 21z m-1275 -204 c75 -35 151 -114 161 -165 3 -20 4
-39 1 -42 -9 -9 -164 35 -232 65 -53 24 -175 106 -175 117 0 2 17 15 37 29 53
36 128 35 208 -4z m2637 -228 c9 -48 16 -88 15 -90 -3 -2 -140 20 -146 23 -2
2 10 20 26 41 16 21 40 55 52 76 12 20 26 37 29 37 4 0 15 -39 24 -87z m-4253
-67 l54 -54 -72 -4 c-39 -1 -71 0 -71 4 0 19 24 108 30 108 3 0 30 -24 59 -54z
m1415 38 c24 -9 19 -21 -11 -28 -16 -3 -39 -9 -53 -12 l-25 -7 24 27 c25 27
37 31 65 20z m1244 -135 c-68 -8 -160 -35 -217 -63 l-44 -23 -34 44 c-18 24
-33 47 -33 53 0 21 93 62 182 79 l93 19 53 -52 53 -51 -53 -6z"/>
<path d="M5540 7133 c-42 -22 -80 -76 -80 -114 0 -33 7 -35 112 -42 96 -7 201
-58 274 -134 54 -57 55 -58 82 -43 81 46 -16 233 -159 310 -79 42 -174 52
-229 23z"/>
<path d="M4344 7114 c-139 -67 -246 -231 -188 -288 8 -9 18 -16 21 -16 3 0 31
24 62 53 69 63 149 97 255 107 42 4 83 13 91 20 34 28 6 123 -41 140 -49 19
-145 11 -200 -16z"/>
<path d="M4328 6570 c-152 -46 -278 -263 -278 -480 0 -110 50 -243 101 -270
19 -11 19 -10 3 27 -33 77 -44 128 -44 211 0 174 73 337 177 399 81 47 151 29
198 -51 24 -42 60 -154 52 -162 -2 -2 -17 2 -33 11 -86 45 -183 -5 -236 -120
-19 -41 -23 -67 -23 -140 0 -77 4 -96 25 -135 90 -160 243 -97 314 130 99 313
-47 643 -256 580z"/>
<path d="M5505 6561 c-134 -33 -246 -163 -290 -336 -35 -138 -9 -376 45 -405
16 -9 16 -5 4 48 -18 75 -17 212 1 290 41 172 158 307 279 319 73 7 128 -24
182 -104 57 -85 78 -173 72 -306 -6 -119 -28 -186 -89 -271 -36 -50 -38 -56
-20 -56 30 0 93 60 125 119 50 93 71 271 46 402 -22 115 -93 226 -174 274 -45
26 -131 38 -181 26z"/>
<path d="M5468 6220 c-84 -45 -132 -144 -133 -270 -1 -275 273 -299 341 -30
30 119 2 241 -67 292 -38 29 -97 32 -141 8z"/>
<path d="M4761 5909 c-66 -9 -148 -45 -154 -69 -4 -15 1 -16 47 -7 49 9 265 4
354 -8 37 -5 42 -4 42 14 0 24 -51 53 -125 70 -51 12 -68 12 -164 0z"/>
<path d="M6114 5876 c-83 -16 -162 -49 -170 -71 -4 -9 -4 -18 -2 -21 3 -2 43
5 89 16 46 11 134 25 194 31 61 7 119 15 130 19 19 7 18 9 -6 18 -46 18 -161
22 -235 8z"/>
<path d="M4655 5774 c-87 -14 -194 -65 -215 -103 -45 -86 53 -265 188 -344 56
-33 57 -34 64 -88 4 -30 12 -67 18 -83 15 -41 2 -50 -78 -54 -84 -5 -161 22
-225 78 -60 53 -79 103 -86 225 -6 97 -7 100 -31 103 -44 7 -96 -17 -139 -63
-62 -67 -53 -116 15 -76 19 12 37 21 39 21 2 0 9 -26 15 -57 20 -93 48 -158
91 -206 52 -60 97 -87 188 -113 l74 -21 17 -54 c26 -84 81 -163 137 -196 43
-25 58 -28 133 -28 73 0 93 4 143 29 75 36 175 130 243 227 30 42 74 93 99
113 77 64 165 206 165 268 0 19 4 20 43 13 112 -19 145 -2 92 48 -76 70 -217
99 -282 58 -20 -12 -33 -29 -33 -41 0 -16 7 -20 36 -20 l37 0 -6 -37 c-11 -64
-64 -159 -115 -204 -78 -69 -120 -84 -242 -84 -94 0 -111 3 -160 27 -64 31
-88 66 -96 135 l-6 48 68 29 c136 59 259 215 239 305 -10 46 -74 97 -152 121
-67 21 -214 34 -278 24z m191 -128 c75 -20 114 -45 114 -74 0 -40 -91 -113
-188 -151 -40 -15 -51 -16 -77 -5 -72 29 -193 180 -167 206 34 34 226 49 318
24z m8 -635 c62 -32 76 -35 157 -35 l88 -1 -52 -54 c-56 -58 -134 -101 -182
-101 -69 0 -166 80 -189 157 -6 19 -2 24 34 34 22 7 45 18 52 26 6 7 14 12 17
11 3 -2 37 -18 75 -37z"/>
<path d="M4110 2788 c-104 -70 -120 -282 -35 -455 41 -82 94 -134 163 -157 98
-34 157 -10 200 82 25 52 27 68 27 177 0 109 -2 125 -27 177 -72 154 -233 240
-328 176z m137 -65 c49 -23 110 -104 129 -171 22 -76 15 -226 -13 -274 -18
-30 -24 -33 -64 -32 -54 0 -96 27 -138 88 -68 98 -91 255 -52 342 30 65 71 79
138 47z"/>
<path d="M1904 8964 c-55 -20 -114 -72 -155 -136 -18 -29 -34 -55 -35 -57 -2
-2 -17 8 -34 22 -33 28 -87 47 -135 47 -44 0 -127 -42 -160 -81 -83 -98 -109
-273 -59 -402 5 -15 3 -16 -21 -7 -43 16 -117 12 -151 -9 -76 -47 -108 -124
-102 -250 3 -71 10 -99 36 -155 18 -37 32 -70 32 -71 0 -2 -28 -3 -62 -3 -72
1 -112 -15 -151 -62 -32 -37 -41 -83 -34 -160 l5 -59 -25 10 c-13 5 -54 9 -91
9 -83 0 -133 -26 -177 -90 -27 -41 -30 -52 -30 -127 0 -79 1 -83 41 -139 52
-74 88 -102 112 -88 27 18 26 40 -9 111 -18 36 -34 88 -37 114 -4 40 -1 51 20
72 15 15 42 27 71 31 60 9 129 -20 233 -100 72 -56 74 -56 99 -40 14 9 25 20
25 24 0 4 -21 38 -45 77 -66 101 -97 170 -103 224 -4 42 -1 50 19 65 48 33
109 22 235 -44 91 -48 119 -58 130 -49 24 20 16 41 -49 135 -92 134 -137 236
-144 326 -4 65 -3 77 18 107 49 70 120 61 221 -29 58 -51 91 -62 102 -34 4 9
-15 80 -41 158 -38 114 -47 154 -46 206 2 101 42 172 110 195 79 27 152 -41
198 -182 30 -93 75 -62 75 51 0 110 52 219 125 262 80 46 159 21 198 -64 19
-41 22 -63 21 -167 -1 -83 -8 -144 -21 -197 -19 -73 -19 -78 -3 -93 25 -23 34
-19 75 31 25 31 59 56 99 75 74 35 90 36 121 4 37 -36 33 -91 -17 -245 -38
-117 -40 -132 -27 -146 17 -17 34 -12 104 31 42 26 84 31 115 15 26 -14 43
-73 35 -119 -5 -33 -3 -41 14 -50 30 -16 47 -4 86 59 68 112 138 150 212 114
56 -28 76 -73 68 -154 -12 -113 -11 -132 6 -143 11 -7 26 -3 57 18 22 14 58
29 79 32 85 11 95 -68 29 -214 -30 -67 -35 -86 -26 -103 6 -11 13 -20 16 -20
3 0 33 23 67 51 74 62 116 81 180 82 62 1 94 -23 131 -97 l30 -58 -13 -114
c-13 -116 -7 -154 23 -154 8 0 39 16 71 35 31 19 82 39 112 45 49 11 63 9 124
-10 56 -18 72 -20 84 -10 40 33 -7 109 -81 129 -66 18 -133 11 -215 -23 -14
-6 -15 3 -11 71 5 99 -20 173 -80 232 -67 68 -160 85 -258 47 -12 -5 -15 6
-15 65 0 70 0 71 -42 110 -39 36 -46 39 -101 39 l-59 0 -6 58 c-6 68 -23 105
-69 151 -44 44 -86 61 -153 61 -60 0 -98 -15 -154 -61 l-34 -27 -24 28 c-29
35 -83 54 -129 46 -39 -8 -39 -9 -19 64 43 159 -6 275 -124 295 -27 4 -51 -1
-94 -20 -32 -14 -59 -25 -61 -25 -2 0 1 19 6 43 12 52 4 165 -16 232 -8 28
-29 72 -46 98 -54 85 -169 119 -276 81z"/>
<path d="M8560 8681 c-78 -25 -154 -96 -193 -181 -12 -25 -22 -46 -23 -48 -1
-2 -15 3 -31 11 -102 53 -218 12 -276 -97 -19 -35 -22 -57 -22 -146 0 -74 5
-119 18 -153 9 -26 17 -49 17 -51 0 -2 -28 -1 -63 1 -81 7 -117 -11 -146 -70
-22 -46 -26 -98 -11 -162 5 -22 8 -41 6 -42 -1 -1 -24 4 -51 12 -140 43 -253
-13 -288 -143 -6 -23 -14 -41 -17 -39 -41 24 -114 51 -147 55 -87 10 -183 -55
-214 -144 -14 -41 -17 -151 -6 -195 l7 -27 -38 14 c-50 18 -157 17 -218 -1
-60 -17 -137 -65 -158 -97 -8 -13 -16 -36 -18 -53 -2 -25 1 -31 19 -33 13 -2
37 8 55 21 57 42 126 62 208 61 77 -1 105 -7 200 -43 67 -26 67 -26 79 -2 8
13 4 40 -14 97 -22 74 -30 130 -26 196 2 40 49 88 92 94 55 9 129 -28 192 -95
65 -71 72 -75 91 -56 13 13 15 32 9 104 -7 101 10 152 58 176 66 35 147 10
267 -82 67 -51 75 -55 89 -40 15 15 12 26 -31 139 -56 145 -66 206 -42 243 27
41 69 30 191 -50 38 -26 53 -31 67 -24 10 5 18 16 18 25 0 8 -21 76 -47 152
-68 201 -64 293 17 354 44 32 85 16 167 -69 40 -41 77 -72 83 -68 6 3 10 43
10 92 0 67 5 96 21 129 42 87 134 138 210 115 55 -17 85 -45 120 -117 29 -58
33 -77 37 -172 2 -59 9 -115 14 -125 15 -29 50 -16 90 34 70 89 136 112 191
68 55 -42 57 -128 10 -317 -20 -82 -23 -105 -13 -117 19 -23 33 -18 80 31 99
102 192 133 245 80 51 -51 39 -155 -37 -334 -32 -75 -38 -95 -28 -107 17 -21
30 -19 81 9 24 14 67 28 95 32 45 5 55 3 73 -15 30 -30 28 -105 -5 -187 -28
-71 -28 -107 -1 -112 27 -5 48 18 92 103 68 133 58 236 -28 293 -31 21 -53 27
-94 27 -29 0 -53 2 -53 5 0 3 10 30 22 60 30 78 31 199 1 255 -45 85 -115 123
-195 106 -27 -6 -61 -17 -76 -25 l-27 -14 0 102 c0 91 -3 106 -27 153 -57 108
-146 138 -250 86 l-57 -29 -7 50 c-16 123 -77 217 -174 270 -55 30 -143 43
-190 27z"/>
<path d="M8880 1291 c-122 -25 -219 -126 -164 -172 13 -11 26 -7 82 20 109 54
203 52 272 -5 40 -34 70 -20 70 33 0 50 -60 108 -122 118 -82 12 -103 13 -138
6z"/>
<path d="M1117 1214 c-56 -17 -137 -90 -137 -122 0 -32 37 -37 95 -12 97 41
192 33 240 -20 23 -26 51 -25 65 0 18 33 77 52 145 47 45 -4 82 -17 152 -53
52 -26 98 -44 107 -41 31 12 20 67 -22 106 -101 96 -283 137 -381 87 -27 -15
-33 -14 -73 4 -51 23 -123 25 -191 4z"/>
<path d="M7590 1060 c-30 -11 -70 -33 -89 -48 -41 -33 -61 -80 -40 -93 17 -12
35 -8 123 26 94 35 167 35 242 0 44 -21 58 -24 70 -14 21 17 17 63 -8 87 -67
62 -193 79 -298 42z"/>
<path d="M8272 960 c-28 -17 -33 -25 -30 -53 l3 -32 82 -3 c102 -3 146 14 141
56 -4 35 -39 52 -108 52 -38 0 -65 -6 -88 -20z"/>
<path d="M2901 955 c-73 -21 -146 -62 -182 -102 -33 -38 -35 -46 -14 -63 13
-10 30 -7 98 19 105 40 154 48 246 39 63 -6 92 -15 188 -64 l114 -58 28 31
c57 63 173 68 307 12 82 -34 108 -30 102 20 -4 33 -93 96 -166 117 -73 22
-193 16 -248 -12 -40 -20 -43 -20 -66 -3 -83 60 -299 94 -407 64z"/>
<path d="M6322 805 c-52 -24 -54 -24 -85 -8 -23 13 -55 18 -112 18 -69 0 -89
-4 -146 -31 -120 -57 -190 -146 -144 -184 12 -10 27 -6 84 24 117 61 238 80
326 51 44 -15 46 -15 88 10 31 18 58 25 94 25 48 0 138 -24 158 -41 13 -13 49
-11 63 3 53 53 -93 158 -221 158 -34 0 -70 -9 -105 -25z"/>
<path d="M4240 673 c-26 -10 -50 -35 -50 -54 0 -45 108 -66 170 -34 37 19 38
47 4 74 -26 20 -88 27 -124 14z"/>
</g>
</svg>
