<?xml version="1.0" standalone="no"?>
<!DOCTYPE svg PUBLIC "-//W3C//DTD SVG 20010904//EN"
 "http://www.w3.org/TR/2001/REC-SVG-20010904/DTD/svg10.dtd">
<svg version="1.0" xmlns="http://www.w3.org/2000/svg"
 width="1024.000000pt" height="1024.000000pt" viewBox="0 0 1024.000000 1024.000000"
 preserveAspectRatio="xMidYMid meet">
<metadata>
Created by potrace 1.16, written by Peter Selinger 2001-2019
</metadata>
<g transform="translate(0.000000,1024.000000) scale(0.100000,-0.100000)"
fill="#000000" stroke="none">
<path d="M6502 8620 c-330 -46 -700 -254 -1027 -577 -103 -102 -238 -262 -290
-346 -24 -38 -34 -47 -50 -42 -71 22 -109 26 -175 21 l-75 -6 -45 72 c-106
172 -313 406 -469 531 -304 242 -587 347 -901 334 -357 -15 -625 -201 -856
-594 -138 -234 -233 -520 -266 -803 l-12 -103 -84 -81 -84 -81 -102 -6 c-126
-8 -234 -36 -379 -97 -150 -64 -269 -135 -339 -202 -60 -58 -71 -86 -42 -114
18 -18 21 -18 183 30 63 19 115 33 117 31 2 -1 -44 -34 -102 -71 -157 -103
-249 -174 -357 -276 -280 -266 -466 -608 -492 -908 -8 -89 6 -132 44 -132 24
0 38 18 104 135 30 55 63 109 72 120 l17 20 -7 -20 c-35 -98 -90 -288 -106
-365 -29 -139 -37 -424 -15 -549 38 -215 136 -397 190 -352 9 7 17 41 21 87 4
41 11 74 16 74 5 0 9 -10 9 -21 0 -64 107 -322 184 -444 18 -27 40 -81 51
-120 35 -134 97 -301 153 -415 31 -63 59 -119 61 -125 2 -5 -33 37 -79 95
-107 135 -281 308 -392 390 -103 77 -223 144 -243 136 -37 -14 -12 -51 128
-190 161 -158 214 -222 347 -416 51 -74 108 -154 127 -177 19 -24 32 -43 29
-43 -3 0 -36 23 -73 51 -102 76 -235 156 -358 215 -223 107 -405 147 -405 90
0 -19 11 -26 155 -107 72 -39 171 -98 220 -132 90 -60 318 -237 313 -242 -2
-2 -30 2 -63 7 -84 14 -284 3 -383 -22 -100 -24 -122 -35 -122 -60 0 -21 10
-24 140 -40 216 -28 471 -87 647 -151 78 -28 94 -31 107 -20 10 8 14 21 10 33
-5 17 -1 16 52 -7 98 -43 158 -86 265 -189 56 -54 98 -97 93 -95 -5 2 -74 37
-154 76 -160 80 -281 125 -410 154 -132 29 -202 23 -171 -15 6 -7 98 -53 204
-102 165 -76 1145 -564 1133 -564 -3 0 -35 6 -73 14 -208 43 -481 46 -672 6
-123 -25 -171 -43 -171 -65 0 -27 38 -33 211 -34 207 -2 393 -21 591 -61 181
-36 400 -89 410 -98 4 -4 -41 -5 -100 -3 -185 6 -444 -27 -478 -61 -31 -31 -1
-38 202 -48 442 -22 1019 -106 1374 -201 206 -55 618 -196 891 -305 136 -53
173 -63 183 -45 24 39 -199 181 -449 286 -94 40 -129 61 -85 51 14 -3 68 -13
120 -21 585 -97 1014 -192 1314 -290 154 -50 174 -53 183 -28 18 46 -233 193
-457 268 l-105 35 98 0 c189 0 625 -59 997 -136 118 -24 218 -44 221 -44 4 0
9 9 12 19 6 25 -32 61 -102 96 -64 32 -267 100 -329 110 -24 4 -42 9 -39 11 2
2 116 11 253 20 364 23 804 6 1050 -41 97 -19 138 -19 153 -2 17 22 -6 43 -89
81 -111 51 -230 84 -370 105 -80 12 -116 20 -100 24 142 33 322 62 485 77 177
16 511 13 667 -7 149 -19 172 -15 147 25 -41 65 -311 131 -544 133 l-90 1 160
54 c191 65 397 117 555 140 113 16 222 16 388 -2 62 -7 62 -7 62 19 0 23 -10
31 -72 61 -95 45 -195 66 -310 66 -83 0 -238 -19 -289 -35 -11 -4 -19 -4 -19
0 0 3 69 39 153 80 243 118 400 165 662 199 166 22 167 23 163 49 -2 15 -17
27 -53 41 -70 28 -312 30 -399 3 -32 -10 -60 -16 -62 -14 -8 8 140 101 236
148 113 57 272 118 401 155 138 39 152 50 109 89 -18 16 -33 17 -142 12 -168
-8 -307 -45 -496 -135 -40 -19 -75 -32 -78 -30 -2 3 60 68 138 144 158 154
273 242 499 384 84 52 157 103 163 112 8 14 7 22 -7 35 -16 16 -22 16 -119
-16 -192 -63 -348 -153 -576 -333 -100 -79 -138 -95 -67 -29 136 126 327 495
397 766 15 61 17 64 13 23 -5 -50 11 -78 42 -78 27 0 87 72 130 156 114 220
172 501 160 774 -7 168 -27 283 -82 475 -24 83 -42 151 -40 153 7 7 122 -146
193 -258 45 -70 88 -127 98 -129 63 -12 58 148 -13 368 -39 124 -121 294 -195
406 -92 138 -258 322 -398 438 -43 36 -44 37 -15 31 65 -14 154 -48 232 -87
69 -35 84 -39 97 -28 23 19 20 39 -16 101 -74 130 -319 324 -503 399 l-69 27
-21 65 c-52 151 -139 302 -242 418 -88 101 -262 214 -400 262 -95 33 -246 52
-369 47 -63 -2 -114 -4 -114 -4 -1 25 -37 195 -59 274 -79 286 -226 572 -383
746 -119 134 -299 245 -463 287 -91 23 -259 32 -353 19z m316 -130 c217 -52
376 -172 526 -398 118 -177 216 -416 272 -660 38 -170 52 -150 -148 -216 -212
-69 -413 -166 -581 -279 -107 -72 -132 -85 -177 -89 -49 -5 -51 -4 -45 16 24
80 28 142 12 196 -53 181 -261 184 -352 5 -27 -52 -30 -68 -29 -142 0 -46 0
-83 -2 -83 -1 0 -26 11 -56 25 -191 89 -376 -100 -258 -264 36 -49 68 -71 127
-86 l45 -11 -43 -50 c-105 -122 -118 -253 -31 -326 l31 -26 -64 -123 c-55
-108 -75 -152 -116 -257 l-9 -23 -22 21 c-88 83 -226 77 -303 -12 -44 -53 -58
-96 -53 -168 6 -81 42 -134 115 -167 44 -21 66 -24 114 -21 60 4 60 4 55 -21
-15 -77 -19 -131 -25 -272 l-6 -156 -66 19 -66 20 5 69 c8 112 -37 198 -133
254 -61 36 -121 42 -177 17 -43 -19 -98 -75 -98 -100 0 -7 -4 -12 -8 -12 -17
0 -151 147 -190 210 -23 36 -46 70 -51 77 -7 8 5 44 38 115 44 95 104 261 131
366 l11 43 41 -36 c78 -66 164 -67 227 -3 59 60 66 170 17 266 -14 28 -26 53
-26 55 0 2 21 7 46 11 64 8 138 51 171 99 22 32 28 52 28 93 0 45 -5 57 -30
85 -44 46 -107 72 -180 72 l-62 0 23 56 c44 106 21 218 -55 268 -54 36 -118
25 -178 -29 l-22 -21 -6 29 c-15 68 -69 254 -91 312 l-23 62 61 107 c63 111
169 275 213 328 l25 30 0 -30 c1 -74 76 -168 145 -181 l36 -6 -51 -49 c-55
-52 -100 -136 -100 -184 0 -46 40 -117 78 -139 46 -26 125 -25 177 2 22 11 58
39 80 61 43 45 55 50 55 23 0 -33 51 -122 88 -152 62 -51 151 -50 218 2 39 31
74 113 74 173 0 29 -10 74 -24 106 l-23 57 61 4 c105 9 191 71 217 157 35 118
-56 210 -208 211 l-72 0 20 46 c42 93 35 191 -18 262 -33 44 -72 62 -134 62
-124 0 -239 -129 -239 -270 l0 -37 -56 29 c-60 30 -97 34 -154 18 -33 -9 -30
-4 48 70 204 196 483 375 702 450 179 61 376 76 528 40z m-3098 -16 c121 -25
290 -90 290 -111 0 -23 -86 -180 -132 -239 -25 -33 -86 -98 -135 -144 -325
-309 -807 -455 -1119 -339 -65 25 -66 14 17 186 118 242 267 433 414 532 118
79 207 110 380 135 50 7 205 -4 285 -20z m413 -170 c58 -37 196 -145 231 -182
27 -30 29 -34 23 -92 -15 -135 -95 -317 -208 -471 -60 -81 -213 -230 -299
-290 -80 -56 -173 -109 -191 -109 -8 0 -54 18 -104 39 -207 91 -393 126 -625
118 -178 -6 -294 -31 -425 -91 l-77 -36 6 54 c10 73 40 217 61 289 14 48 20
57 33 51 189 -82 444 -79 692 8 117 41 267 119 375 192 181 123 365 328 431
480 16 36 30 66 31 66 2 0 22 -12 46 -26z m1931 -214 c57 -68 47 -155 -30
-270 -52 -77 -62 -110 -32 -110 7 0 42 9 76 20 77 24 148 26 200 4 70 -27 84
-104 29 -159 -60 -60 -151 -69 -250 -25 -37 17 -51 19 -62 10 -17 -14 -11 -34
25 -80 70 -91 99 -205 66 -267 -21 -42 -63 -73 -98 -73 -81 0 -132 77 -145
220 -10 110 -28 114 -85 20 -49 -81 -89 -123 -138 -145 -97 -44 -177 32 -139
132 14 38 79 103 155 155 93 62 88 74 -35 88 -94 11 -115 20 -141 63 -38 62
-15 148 49 182 38 19 113 19 150 0 16 -8 51 -40 79 -71 71 -82 82 -74 82 59 0
121 16 179 63 227 39 39 60 49 114 49 34 1 46 -4 67 -29z m-1489 -180 c65 -79
173 -233 219 -312 l27 -46 -15 -101 c-36 -241 -155 -480 -323 -650 -43 -43
-97 -91 -121 -106 l-42 -28 -78 74 c-144 139 -280 248 -402 323 l-71 44 53 30
c201 113 426 344 536 550 43 81 112 273 112 312 0 23 0 23 21 4 12 -10 49 -53
84 -94z m526 -315 c7 -5 -71 -165 -81 -165 -3 0 -24 38 -47 84 l-42 85 27 4
c30 6 130 -1 143 -8z m-85 -475 c34 -102 74 -268 74 -306 0 -75 -86 -271 -182
-416 -59 -89 -194 -238 -216 -238 -6 0 -14 9 -17 20 -10 33 -169 265 -239 349
l-65 79 54 37 c67 45 185 168 248 257 85 119 164 300 208 478 l11 44 50 -114
c27 -63 61 -149 74 -190z m-1885 79 c55 -6 147 -23 202 -38 101 -27 102 -28
99 -56 -10 -94 -148 -268 -311 -394 -148 -115 -442 -254 -661 -313 -55 -15
-109 -21 -205 -22 -117 -1 -135 1 -182 23 -38 17 -53 29 -53 43 0 34 105 243
170 337 222 325 534 464 941 420z m4972 -35 c226 -43 416 -171 548 -368 22
-33 38 -64 36 -70 -2 -6 -23 -24 -46 -41 -34 -24 -54 -30 -112 -33 -59 -4 -77
-1 -123 22 -83 41 -126 119 -126 228 0 45 -4 60 -17 65 -28 11 -53 -32 -53
-91 0 -84 26 -144 89 -206 64 -63 128 -90 217 -90 61 0 153 31 179 60 10 11
21 20 25 20 17 0 81 -182 109 -313 63 -295 45 -685 -50 -1036 -23 -85 -98
-271 -109 -271 -4 0 -13 13 -19 29 -16 36 -68 87 -104 100 -71 27 -163 -3
-223 -73 -74 -86 -131 -248 -120 -339 6 -54 44 -128 79 -152 27 -19 32 -15
-113 -89 -183 -94 -376 -168 -652 -251 -98 -29 -141 -57 -136 -89 3 -18 15
-23 88 -38 47 -9 118 -20 158 -24 40 -4 70 -10 65 -15 -16 -15 -326 -69 -608
-104 -84 -11 -352 -35 -387 -35 -34 0 -37 2 -43 39 -17 101 -106 222 -190 257
-78 32 -161 10 -193 -52 l-18 -36 -61 65 c-119 127 -194 267 -245 456 -30 111
-38 487 -13 634 40 238 118 460 237 668 322 567 819 975 1373 1132 239 67 372
77 558 41z m-1517 -65 c27 -28 29 -35 29 -112 0 -72 -4 -91 -33 -151 -28 -60
-31 -72 -19 -84 12 -12 20 -11 55 7 64 33 65 25 4 -33 l-57 -55 -31 35 c-25
27 -39 34 -68 34 -72 0 -116 -55 -116 -144 0 -33 6 -52 24 -72 l24 -28 -60
-71 c-32 -38 -86 -110 -120 -158 -33 -49 -67 -91 -76 -94 -26 -11 -52 33 -52
89 0 70 27 114 126 206 108 100 108 112 -5 112 -90 0 -124 10 -163 47 -53 51
-45 137 16 174 63 38 141 20 249 -58 75 -55 93 -32 61 78 -25 83 -23 166 7
219 50 91 147 119 205 59z m-2947 -59 c65 -33 164 -93 222 -133 l104 -72 8
-55 c14 -91 1 -264 -28 -370 -88 -321 -357 -661 -680 -860 -301 -186 -676
-271 -947 -215 -240 49 -448 244 -448 419 0 125 74 519 110 586 9 17 11 17 46
-1 97 -49 312 -51 481 -5 193 53 424 159 603 278 178 117 354 317 391 444 7
24 15 44 17 44 2 0 56 -27 121 -60z m1716 -146 c25 -10 45 -59 45 -112 0 -53
-28 -117 -81 -183 -34 -43 -38 -79 -10 -79 10 0 37 6 59 14 73 26 127 29 181
11 82 -27 105 -85 56 -144 -38 -44 -102 -65 -173 -56 -136 17 -150 5 -83 -71
60 -68 91 -137 91 -202 0 -46 -4 -58 -30 -84 -27 -26 -36 -30 -70 -25 -47 6
-82 31 -109 77 -18 33 -19 42 -8 147 10 99 13 113 33 123 51 28 57 95 13 145
-20 22 -32 48 -34 72 -2 21 -9 90 -16 154 -12 114 -11 118 10 153 33 52 83 76
126 60z m-3265 -60 c0 -3 -14 -26 -31 -51 -94 -136 -211 -447 -256 -681 l-28
-142 -55 -21 c-77 -31 -178 -99 -233 -158 -85 -91 -151 -211 -116 -211 5 0 61
51 122 113 103 103 217 187 254 187 9 0 13 -15 13 -46 0 -44 -3 -48 -87 -132
-130 -129 -195 -256 -210 -408 -11 -114 41 -293 122 -420 201 -316 555 -557
1335 -912 157 -72 369 -171 472 -221 201 -97 349 -161 373 -161 43 0 1 36
-155 132 -275 170 -446 262 -698 374 -286 128 -518 249 -618 322 -23 17 -68
70 -102 121 l-60 90 66 -45 c152 -105 288 -155 477 -178 173 -21 258 -20 406
5 443 74 884 345 1158 711 225 300 333 584 335 876 1 157 -1 157 91 -33 126
-261 160 -401 160 -660 0 -165 -3 -188 -28 -280 -107 -389 -477 -821 -870
-1018 -87 -43 -76 -43 -262 -17 -109 15 -260 13 -274 -4 -9 -10 -8 -16 4 -26
14 -12 193 -49 600 -125 318 -60 556 -138 984 -324 166 -72 201 -82 201 -57 0
18 -45 54 -200 156 -69 45 -128 86 -132 89 -4 4 52 -3 125 -15 208 -35 400
-54 646 -64 280 -12 514 -3 706 27 118 18 157 30 135 43 -24 13 -531 33 -658
27 -63 -4 -113 -5 -111 -2 9 8 212 55 339 79 192 35 346 53 655 76 457 35 715
74 982 150 237 67 521 179 508 200 -5 7 -50 9 -144 4 -134 -7 -311 2 -311 14
0 4 73 32 162 62 195 66 486 207 643 311 137 91 304 253 363 354 113 191 149
410 96 570 -9 28 -20 55 -24 60 -4 6 -4 35 1 65 5 30 12 146 15 257 l7 202 61
-47 c34 -25 131 -116 217 -202 177 -177 284 -323 374 -515 74 -156 111 -276
61 -200 -23 35 -225 262 -277 311 -125 118 -229 190 -229 158 0 -4 25 -45 55
-93 30 -47 75 -135 100 -196 171 -407 209 -822 110 -1195 -28 -104 -63 -200
-74 -200 -4 0 -1 48 5 108 7 59 13 167 14 240 0 111 -2 134 -16 139 -25 9 -34
-8 -55 -110 -23 -117 -76 -271 -134 -395 -148 -312 -346 -526 -715 -767 -174
-114 -420 -252 -514 -288 -10 -4 14 23 55 59 41 37 173 167 295 288 271 272
350 374 316 408 -7 7 -35 -9 -94 -56 -105 -85 -388 -275 -538 -361 -156 -91
-523 -270 -703 -345 -277 -114 -661 -249 -674 -237 -2 2 114 81 256 176 261
174 301 203 301 222 0 25 -42 15 -241 -60 -416 -155 -794 -262 -1294 -366
-282 -59 -326 -74 -303 -102 24 -30 339 -3 678 58 116 20 400 83 436 95 10 4
-5 -15 -33 -40 -55 -49 -64 -74 -38 -96 32 -27 285 11 428 64 51 19 151 46
222 61 269 55 570 174 819 323 66 40 121 70 123 68 2 -2 -55 -64 -127 -139
-126 -132 -144 -159 -118 -185 30 -30 101 -7 387 123 115 52 212 95 215 95 4
0 -8 -28 -25 -62 -65 -130 -279 -302 -531 -429 -241 -121 -539 -221 -833 -279
-33 -7 -66 -17 -72 -22 -32 -26 -10 -31 120 -25 156 7 282 34 505 108 84 28
155 49 158 47 8 -9 -162 -163 -236 -214 -315 -216 -772 -383 -1159 -425 -311
-33 -790 29 -1080 141 l-83 33 104 51 c57 29 118 61 134 72 24 17 56 23 174
32 244 19 442 61 621 131 120 47 229 107 229 126 0 21 -26 19 -111 -11 -175
-60 -419 -113 -644 -139 -151 -17 -512 -20 -666 -5 -292 29 -574 100 -873 219
-43 18 -81 30 -84 27 -29 -30 157 -147 333 -210 185 -66 445 -120 710 -148 63
-7 115 -15 115 -18 0 -10 -144 -60 -245 -85 -199 -49 -302 -60 -570 -60 -272
0 -356 9 -583 65 -365 89 -767 287 -976 480 -57 53 -176 202 -176 221 0 10 84
-21 218 -80 113 -50 389 -132 567 -167 147 -30 418 -45 438 -25 6 6 8 14 4 17
-4 4 -82 22 -174 40 -353 68 -627 140 -767 200 -350 150 -610 316 -786 500
-71 75 -210 251 -210 266 0 4 30 -12 68 -36 172 -111 456 -224 440 -174 -3 7
-42 33 -89 58 -102 55 -223 136 -386 259 -368 274 -622 549 -751 813 -98 200
-138 366 -116 478 7 30 8 28 25 -38 37 -146 134 -292 262 -394 47 -37 89 -49
102 -28 3 5 -21 36 -54 69 -139 139 -247 405 -272 673 -11 109 -3 241 18 294
3 8 -3 17 -12 21 -35 13 -53 -33 -86 -216 -10 -58 -30 -146 -44 -196 -31 -107
-75 -358 -75 -423 0 -72 -16 -38 -33 68 -34 208 -30 349 14 579 43 221 164
517 277 676 146 206 293 332 526 449 52 27 55 51 5 50 -74 -2 -291 -129 -456
-268 -146 -122 -349 -344 -441 -483 -20 -31 -38 -51 -39 -46 -6 16 53 164 106
271 90 179 268 393 466 559 168 141 429 306 544 344 78 25 91 35 91 62 0 19
-4 20 -92 13 -112 -8 -209 -22 -302 -42 -38 -8 -71 -12 -74 -9 -8 7 176 91
266 121 124 41 322 77 322 58z m2072 -181 c111 -109 226 -241 287 -331 39 -58
40 -63 52 -190 25 -263 -28 -497 -173 -762 -178 -326 -487 -614 -830 -774
-216 -101 -432 -151 -658 -150 -149 0 -159 1 -278 37 -172 52 -255 88 -347
155 -107 77 -186 173 -224 271 -63 164 -121 432 -121 561 l0 56 73 -71 c165
-160 347 -223 607 -212 701 31 1381 613 1496 1280 9 49 14 121 12 158 -2 38
-1 69 1 69 2 0 49 -44 103 -97z m2338 -5 c14 -27 14 -29 -25 -68 -34 -35 -41
-38 -47 -23 -13 33 -8 86 9 105 22 24 44 19 63 -14z m-1373 -245 c-7 -294 -37
-448 -138 -703 -64 -163 -65 -164 -78 -109 -28 110 -78 254 -128 372 l-55 129
38 31 c58 45 140 134 189 202 58 82 143 231 150 266 4 16 11 29 17 29 7 0 9
-69 5 -217z m4033 -139 c81 -54 183 -134 178 -140 -3 -2 -37 7 -78 21 -67 23
-152 47 -256 74 -40 11 -42 12 -48 62 -4 29 -10 65 -13 82 l-6 31 79 -43 c43
-24 108 -63 144 -87z m-3340 -566 c18 -13 42 -34 52 -48 18 -25 18 -27 -5
-120 -21 -85 -27 -95 -53 -107 -69 -29 -150 -5 -192 57 -62 91 18 240 128 240
22 0 51 -9 70 -22z m-4167 -412 c-8 -41 15 -218 38 -292 12 -38 37 -100 55
-138 19 -38 33 -71 31 -73 -9 -9 -70 73 -102 137 -64 127 -81 248 -49 343 17
49 35 64 27 23z m3867 -89 c49 -33 80 -97 80 -165 0 -28 -4 -53 -8 -56 -11 -6
-219 97 -255 128 -28 23 -28 24 -13 60 28 68 119 83 196 33z m3035 -110 c59
-50 62 -182 7 -295 -22 -46 -40 -65 -97 -104 -38 -26 -80 -48 -91 -48 -27 0
-70 34 -89 70 -32 61 -11 186 47 289 56 98 163 140 223 88z m-3715 -337 c-34
-233 -126 -440 -286 -638 -79 -99 -251 -255 -271 -248 -22 9 -201 44 -260 52
-29 4 -53 10 -53 15 0 5 6 9 13 9 19 0 239 146 329 218 212 172 395 420 494
670 l39 100 3 -47 c2 -25 -2 -84 -8 -131z m368 165 c34 -10 27 -19 -30 -39
-29 -10 -59 -21 -65 -23 -21 -8 -15 13 13 47 16 18 33 29 43 26 9 -2 26 -7 39
-11z m246 -111 c29 -11 17 -21 -76 -59 -51 -21 -162 -74 -247 -117 -85 -43
-155 -77 -157 -75 -2 1 -6 21 -10 44 -6 39 -4 43 26 61 52 32 235 102 334 127
101 27 108 28 130 19z m260 -159 c19 -14 19 -15 0 -21 -10 -4 -88 -36 -172
-71 -174 -72 -230 -88 -269 -78 -27 6 -28 7 -8 22 28 22 231 119 296 142 65
23 127 26 153 6z m17 -299 c47 -8 101 -22 120 -30 32 -14 19 -15 -171 -16
-301 0 -532 -26 -729 -80 -41 -12 -75 -19 -77 -17 -2 2 16 24 39 50 55 60 115
81 322 111 67 10 413 -3 496 -18z m754 -180 c20 -15 47 -44 60 -64 29 -44 51
-122 42 -146 -6 -16 -15 -13 -78 21 -94 50 -183 123 -187 151 -2 13 4 35 13
49 15 23 22 25 66 21 32 -3 60 -14 84 -32z m-628 -97 c22 -15 18 -16 -75 -32
-177 -29 -359 -92 -567 -194 -102 -50 -113 -54 -160 -47 -77 10 -83 17 -43 47
91 70 439 202 608 231 105 18 207 16 237 -5z m-677 -16 c-83 -22 -278 -114
-391 -183 -74 -45 -104 -59 -112 -51 -6 6 -21 11 -34 11 -34 0 -28 14 20 50
87 65 231 121 417 164 114 27 189 33 100 9z m849 -129 c17 -4 31 -10 31 -13 0
-4 -64 -15 -142 -24 -79 -10 -154 -20 -168 -23 -57 -12 49 28 120 46 83 20
112 23 159 14z m-4529 -380 c30 -31 88 -83 128 -117 50 -41 106 -104 171 -192
54 -72 124 -161 155 -198 31 -37 53 -67 48 -67 -4 0 -49 27 -100 60 -121 78
-258 212 -334 324 -63 95 -144 246 -131 246 5 0 33 -25 63 -56z m7490 -201
c-88 -156 -219 -312 -348 -415 -74 -58 -250 -168 -271 -168 -6 0 5 25 25 56
20 31 47 80 60 109 20 47 31 58 90 91 104 58 214 145 344 269 66 63 122 115
126 115 3 0 -9 -26 -26 -57z m-7160 -358 c52 -37 151 -94 220 -127 150 -71
128 -58 245 -142 110 -79 160 -134 211 -230 35 -66 35 -68 13 -61 -50 15 -248
116 -334 170 -124 78 -259 182 -326 252 -51 53 -189 235 -189 249 0 4 15 -5
33 -19 18 -13 75 -55 127 -92z m6730 -232 c-181 -193 -229 -236 -370 -330
-123 -82 -380 -201 -412 -191 -22 8 75 108 144 148 110 65 207 132 263 182 29
25 103 70 175 105 69 34 148 77 175 97 69 48 77 45 25 -11z m-6407 -210 c148
-94 302 -173 394 -203 56 -18 80 -34 133 -85 57 -55 172 -147 226 -182 16 -10
12 -12 -28 -12 -128 -2 -333 76 -513 194 -165 109 -405 337 -468 444 -17 29
-13 27 58 -24 42 -30 131 -89 198 -132z m6203 -133 c-108 -134 -334 -316 -508
-410 -136 -73 -354 -140 -453 -139 l-40 0 25 17 c87 60 203 152 250 198 51 50
62 55 150 78 171 43 365 141 545 274 44 33 82 58 84 56 2 -2 -22 -35 -53 -74z
m-5243 -452 c195 -98 399 -174 613 -228 145 -37 419 -80 514 -80 34 0 48 -5
57 -19 15 -24 6 -26 -138 -42 -203 -22 -431 2 -624 67 -170 57 -358 165 -472
273 -85 79 -68 89 50 29z m1952 -274 c183 -75 451 -144 564 -144 91 0 -54 -44
-204 -61 -143 -17 -432 -6 -568 21 -147 29 -361 106 -381 138 -2 4 50 16 117
25 67 10 169 29 227 42 58 12 112 23 120 24 8 0 65 -20 125 -45z"/>
<path d="M6599 8321 c-24 -25 -29 -37 -29 -81 0 -55 10 -81 44 -118 92 -102
299 -79 365 39 39 68 22 177 -25 167 -16 -3 -19 -11 -16 -59 3 -49 0 -60 -24
-89 -16 -18 -43 -39 -61 -46 -64 -27 -156 -12 -196 33 -26 30 -33 87 -13 117
36 56 2 84 -45 37z"/>
<path d="M7056 7795 c-59 -21 -88 -47 -118 -105 -70 -133 -7 -297 130 -336
205 -60 353 192 218 369 -50 65 -157 99 -230 72z m134 -77 c55 -38 74 -71 78
-141 3 -52 0 -67 -20 -97 -28 -42 -80 -70 -129 -70 -83 0 -155 93 -145 185 9
80 74 145 146 145 22 0 51 -9 70 -22z"/>
<path d="M5792 7713 c-51 -25 -77 -69 -77 -129 0 -57 17 -84 69 -111 83 -43
201 61 182 161 -9 48 -68 96 -118 96 -13 0 -38 -8 -56 -17z m96 -65 c33 -33
-9 -118 -57 -118 -49 0 -68 68 -31 108 23 24 69 29 88 10z"/>
<path d="M7413 6936 c-60 -19 -103 -48 -160 -108 -71 -76 -115 -170 -121 -261
-6 -103 10 -152 68 -208 80 -79 190 -89 315 -30 106 49 188 141 222 248 19 63
18 181 -2 230 -48 114 -188 170 -322 129z m173 -65 c75 -34 110 -104 101 -202
-15 -171 -157 -309 -317 -309 -82 0 -124 24 -157 90 -28 55 -29 103 -3 181 25
74 41 101 94 157 85 90 195 123 282 83z"/>
<path d="M8492 6209 c-52 -26 -104 -92 -129 -162 -24 -70 -24 -204 0 -274 21
-60 82 -134 131 -157 150 -71 302 83 299 304 -2 135 -55 239 -145 284 -63 32
-100 33 -156 5z m129 -64 c103 -54 140 -246 74 -381 -62 -126 -190 -125 -254
1 -37 70 -41 178 -11 258 44 118 113 162 191 122z"/>
<path d="M6588 6176 c-142 -39 -276 -209 -314 -400 -29 -142 9 -264 105 -331
38 -27 51 -30 114 -30 60 0 81 5 123 29 101 55 195 178 234 305 24 76 27 206
6 275 -37 121 -149 185 -268 152z m141 -84 c99 -73 106 -277 14 -429 -110
-185 -269 -238 -366 -123 -122 145 17 506 221 571 39 12 101 4 131 -19z"/>
<path d="M7681 5850 c-145 -30 -287 -201 -311 -375 -19 -138 32 -271 129 -335
150 -100 372 -6 470 199 35 74 36 80 36 191 0 106 -2 120 -28 172 -58 117
-170 173 -296 148z m111 -70 c139 -39 195 -236 118 -416 -26 -59 -110 -147
-167 -174 -56 -26 -136 -29 -180 -7 -44 23 -101 94 -115 141 -52 183 74 414
247 457 43 10 56 10 97 -1z"/>
<path d="M6030 5154 c-109 -99 -105 -357 9 -486 67 -77 144 -86 200 -23 41 47
61 121 61 227 0 183 -82 318 -192 318 -30 0 -47 -8 -78 -36z m142 -62 c97 -90
84 -422 -17 -422 -31 0 -81 43 -104 89 -21 41 -41 126 -41 175 0 54 30 138 61
168 33 34 57 31 101 -10z"/>
<path d="M6830 4933 c-67 -24 -161 -122 -189 -198 -28 -74 -25 -175 7 -247 29
-66 104 -142 171 -175 47 -24 69 -28 136 -28 129 0 224 57 283 170 23 43 26
62 26 140 0 69 -6 103 -23 146 -50 129 -166 210 -296 208 -38 0 -90 -8 -115
-16z m215 -74 c53 -25 100 -75 129 -138 15 -35 21 -66 21 -127 0 -72 -3 -86
-30 -130 -57 -91 -172 -134 -280 -104 -55 16 -137 85 -168 144 -31 58 -30 174
0 232 67 126 208 179 328 123z"/>
<path d="M9116 5102 c-3 -5 -12 -31 -21 -58 -56 -167 -216 -394 -444 -627 -85
-86 -121 -131 -115 -137 15 -15 119 57 220 153 154 146 270 301 344 460 40 88
66 178 56 202 -6 16 -32 20 -40 7z"/>
<path d="M1367 4984 c-12 -13 -7 -114 9 -178 29 -115 128 -302 233 -441 146
-194 400 -394 577 -455 55 -19 81 -19 68 1 -3 5 -49 38 -102 73 -139 90 -233
169 -360 301 -190 198 -338 454 -380 660 -7 37 -28 55 -45 39z"/>
<path d="M9276 4712 c-3 -5 -12 -44 -21 -88 -50 -243 -182 -503 -355 -697 -61
-69 -68 -81 -50 -92 19 -12 68 25 161 122 136 142 218 276 268 438 23 74 48
281 38 309 -7 17 -32 22 -41 8z"/>
<path d="M8530 3942 c-178 -181 -588 -450 -1011 -663 -115 -57 -153 -89 -105
-89 54 0 254 78 451 177 322 160 572 341 709 511 64 80 78 105 70 126 -11 30
-39 15 -114 -62z"/>
<path d="M1554 3957 c-26 -68 336 -458 601 -647 270 -192 549 -314 870 -380
187 -39 250 -57 296 -86 114 -72 361 -182 559 -249 358 -121 816 -203 837
-149 10 28 -8 45 -155 143 -77 53 -140 97 -138 98 1 2 52 -9 112 -22 154 -36
372 -44 554 -20 138 17 235 42 235 60 0 6 -89 12 -235 16 -132 4 -286 14 -350
24 -156 22 -382 82 -575 150 -201 72 -205 72 -205 49 0 -25 133 -149 307 -286
78 -62 140 -114 139 -116 -6 -5 -254 78 -397 133 -368 143 -828 371 -1192 592
-48 29 -94 53 -102 53 -25 0 -17 -21 23 -57 41 -39 233 -185 301 -229 24 -15
39 -30 33 -32 -32 -10 -360 126 -527 220 -344 193 -614 389 -852 622 -97 94
-134 124 -139 113z"/>
<path d="M2500 3792 c0 -24 88 -110 170 -168 213 -149 596 -276 947 -315 109
-12 426 -9 439 4 17 17 -19 27 -171 47 -416 53 -673 115 -943 226 -115 48
-286 135 -357 183 -66 45 -85 50 -85 23z"/>
<path d="M7510 3679 c-155 -48 -384 -102 -571 -135 -180 -31 -189 -33 -189
-49 0 -29 205 -26 373 6 205 38 547 170 547 209 0 16 -26 11 -160 -31z"/>
<path d="M3910 3581 c0 -29 185 -119 321 -156 106 -29 331 -47 343 -27 11 17
-22 29 -170 62 -155 35 -200 47 -358 96 -116 36 -136 40 -136 25z"/>
<path d="M5436 3267 c-29 -22 2 -37 106 -53 308 -46 867 -35 1117 21 73 17 87
28 49 39 -13 3 -300 6 -639 6 -490 0 -619 -3 -633 -13z"/>
<path d="M4482 3009 c9 -29 251 -94 457 -123 145 -21 327 -36 442 -36 205 0
507 38 516 66 4 13 -86 24 -206 24 -124 0 -542 27 -781 51 -310 30 -434 35
-428 18z"/>
<path d="M2882 2738 c9 -63 299 -184 555 -232 127 -24 353 -40 366 -27 7 7 8
14 1 21 -5 5 -126 39 -267 75 -142 35 -340 91 -439 125 -203 67 -221 70 -216
38z"/>
<path d="M7609 2556 c-2 -2 -67 -23 -144 -45 -157 -45 -311 -78 -520 -111
-237 -36 -416 -68 -423 -74 -31 -31 164 -45 365 -27 171 16 313 45 453 91 154
50 320 134 320 161 0 9 -43 13 -51 5z"/>
<path d="M4916 2321 c-16 -25 100 -64 269 -92 103 -17 438 -17 525 0 160 31
280 66 280 81 0 4 -177 7 -392 6 -216 -1 -457 3 -535 7 -92 5 -143 4 -147 -2z"/>
<path d="M3435 2100 c-35 -56 304 -185 553 -210 146 -15 319 6 290 35 -3 3
-63 14 -135 24 -148 22 -477 97 -685 157 -9 3 -19 0 -23 -6z"/>
<path d="M6790 1919 c-42 -17 -207 -49 -355 -69 -231 -31 -427 -42 -675 -38
-214 3 -235 2 -238 -14 -4 -19 21 -28 168 -55 76 -14 147 -18 355 -18 244 1
268 2 386 28 194 41 426 130 416 160 -5 16 -27 18 -57 6z"/>
<path d="M1087 2370 c-38 -5 -80 -16 -94 -26 -24 -15 -25 -18 -10 -29 10 -7
50 -16 90 -19 195 -19 443 -74 650 -142 104 -35 142 -43 150 -35 19 19 -3 40
-97 97 -188 112 -484 178 -689 154z"/>
<path d="M3122 1328 c-50 -4 -108 -12 -129 -16 -39 -8 -64 -35 -48 -51 6 -6
120 -15 255 -20 135 -6 340 -16 456 -23 202 -11 244 -9 244 10 0 14 -89 50
-167 68 -174 40 -402 52 -611 32z"/>
</g>
</svg>
