<?xml version="1.0" standalone="no"?>
<!DOCTYPE svg PUBLIC "-//W3C//DTD SVG 20010904//EN"
 "http://www.w3.org/TR/2001/REC-SVG-20010904/DTD/svg10.dtd">
<svg version="1.0" xmlns="http://www.w3.org/2000/svg"
 width="1024.000000pt" height="1024.000000pt" viewBox="0 0 1024.000000 1024.000000"
 preserveAspectRatio="xMidYMid meet">
<metadata>
Created by potrace 1.16, written by Peter Selinger 2001-2019
</metadata>
<g transform="translate(0.000000,1024.000000) scale(0.100000,-0.100000)"
fill="#000000" stroke="none">
<path d="M6020 9639 c-126 -19 -287 -99 -411 -203 -130 -109 -203 -217 -269
-401 -75 -209 -120 -258 -340 -370 -80 -40 -153 -80 -164 -88 -15 -11 -29 -11
-85 -1 -36 7 -101 13 -145 14 l-79 0 6 138 c8 205 51 327 206 587 39 66 77
137 83 158 10 34 9 40 -9 59 -29 28 -87 19 -193 -32 -264 -128 -487 -336 -597
-555 -69 -138 -99 -257 -107 -424 l-4 -94 -44 -27 c-23 -15 -49 -34 -57 -43
-19 -23 -23 -22 -86 22 -34 24 -79 45 -111 52 -50 11 -57 10 -100 -12 -58 -30
-84 -75 -84 -145 0 -64 27 -107 95 -151 27 -18 54 -35 60 -37 5 -3 1 -10 -10
-17 -35 -22 -82 -77 -104 -122 -68 -141 -35 -328 79 -448 22 -23 40 -44 40
-46 0 -1 -10 -3 -22 -3 -13 0 -58 -8 -100 -19 l-77 -18 -20 21 c-11 12 -45 36
-76 55 -98 60 -236 54 -349 -14 l-56 -33 -32 60 c-52 97 -136 158 -218 158
-14 0 -46 -10 -70 -22 -37 -19 -51 -34 -75 -83 -26 -53 -30 -71 -30 -145 0
-47 3 -101 7 -120 8 -33 6 -36 -37 -63 -54 -34 -88 -73 -122 -140 -21 -43 -25
-61 -21 -123 3 -63 7 -78 34 -111 17 -21 53 -55 81 -76 48 -36 51 -42 58 -94
9 -77 42 -198 66 -244 10 -21 33 -55 51 -74 25 -29 37 -35 62 -33 33 3 25 -12
106 198 22 58 43 110 48 116 5 8 54 10 168 6 l162 -5 42 -92 c23 -51 65 -128
94 -171 59 -89 92 -110 125 -80 22 20 105 260 118 341 l8 49 75 18 c41 9 82
17 90 17 8 0 28 -27 45 -61 33 -68 67 -113 97 -129 39 -21 61 10 112 154 l47
135 69 30 c77 34 74 35 112 -43 103 -207 125 -448 58 -646 -17 -50 -34 -98
-38 -106 -6 -10 -26 3 -77 51 -39 36 -78 65 -88 66 -40 1 -85 -179 -73 -291
l7 -57 -43 40 c-43 39 -78 55 -98 43 -5 -3 -18 -21 -27 -38 -14 -25 -18 -58
-18 -149 0 -114 -1 -118 -22 -118 -11 0 -33 -14 -47 -31 -49 -57 -27 -167 46
-241 97 -96 293 -123 503 -68 44 12 89 23 100 26 22 5 30 -6 198 -251 l89
-130 -33 -64 c-57 -108 -186 -297 -250 -365 -37 -40 -74 -69 -96 -77 -46 -15
-233 -6 -318 15 -257 64 -497 -62 -625 -329 -54 -113 -70 -169 -70 -249 0
-120 42 -216 95 -216 29 0 35 7 110 113 l59 86 13 -61 c25 -122 104 -237 155
-225 18 5 28 21 48 78 28 82 103 209 152 257 l34 32 110 -55 c107 -55 177 -75
258 -75 l42 0 0 -204 1 -203 -29 -17 c-65 -39 -177 -137 -225 -198 -144 -181
-214 -414 -192 -636 30 -292 185 -521 467 -691 l80 -48 -141 -6 c-246 -11
-444 -49 -582 -112 -176 -80 -305 -197 -376 -340 -50 -100 -59 -153 -32 -177
18 -17 24 -15 129 37 60 30 112 55 115 55 3 0 -7 -26 -22 -57 -16 -32 -33 -82
-39 -111 -10 -45 -9 -57 4 -78 9 -13 21 -24 25 -24 5 0 82 26 171 59 123 45
160 55 156 42 -34 -103 -32 -133 10 -139 11 -1 118 27 239 64 329 99 392 117
740 210 447 119 536 148 615 200 105 69 93 145 -55 367 -30 44 -53 82 -51 84
2 2 19 -5 37 -16 72 -42 251 -115 419 -171 276 -92 526 -140 726 -140 88 0
121 -5 172 -23 l62 -23 -152 -23 c-451 -68 -630 -140 -803 -322 -128 -135
-206 -351 -135 -374 21 -7 108 28 263 103 53 26 97 47 97 46 0 -1 -14 -32 -32
-70 -26 -55 -32 -81 -32 -137 -1 -93 10 -100 101 -68 56 20 218 84 272 108 11
5 11 2 2 -15 -23 -42 -42 -149 -31 -176 21 -55 33 -52 360 89 363 157 751 334
839 383 47 26 109 70 139 97 82 76 81 116 -5 276 -2 4 15 2 39 -2 92 -19 387
-22 514 -5 314 41 614 160 856 338 111 81 278 252 358 366 326 463 422 1076
255 1627 -65 214 -156 406 -345 725 -194 327 -270 520 -270 682 l0 51 58 -55
c90 -86 150 -109 186 -69 25 27 34 72 41 206 16 310 86 529 235 740 28 39 60
89 72 112 20 40 21 43 4 68 -26 40 -60 49 -139 36 -93 -15 -172 -44 -300 -108
-132 -65 -224 -126 -349 -232 -282 -237 -496 -593 -408 -681 19 -19 30 -22 70
-17 26 3 78 20 115 36 37 17 69 31 70 31 1 0 -4 -28 -13 -62 -8 -35 -15 -111
-16 -171 -1 -91 -3 -106 -16 -101 -64 24 -102 28 -128 13 -40 -22 -54 -56 -48
-121 8 -110 117 -258 283 -385 56 -43 81 -69 94 -101 11 -24 19 -48 19 -53 0
-5 -25 -9 -55 -9 -64 0 -119 -20 -134 -48 -33 -62 18 -164 147 -291 53 -53
121 -112 149 -131 l52 -35 1 -92 c0 -51 -3 -93 -6 -93 -3 0 -24 15 -47 34 -59
48 -125 80 -165 80 -40 0 -66 -26 -82 -82 -13 -46 -34 -429 -27 -499 l5 -52
-64 -25 c-35 -14 -68 -26 -73 -26 -5 0 -10 64 -13 143 -5 170 -24 228 -81 252
-38 16 -107 9 -182 -18 -52 -19 -182 -84 -218 -109 -16 -11 -29 -19 -31 -17
-1 2 -10 65 -20 139 l-18 134 28 23 c15 12 77 50 136 83 59 34 115 71 123 83
39 56 3 138 -102 237 -92 86 -203 144 -319 167 -81 16 -82 16 -94 54 -17 52
-7 131 24 183 14 22 54 74 90 114 44 49 66 81 66 98 0 148 -345 288 -569 230
-63 -16 -68 -11 -52 64 14 65 38 110 117 227 67 98 75 124 48 161 -34 49 -176
92 -303 92 l-69 0 37 78 c102 208 284 425 446 530 300 196 657 187 1005 -26
38 -24 75 -28 85 -12 4 6 -1 102 -11 213 -36 434 5 776 118 977 46 80 169 198
248 237 122 59 235 72 423 47 43 -6 47 -5 47 15 0 12 -24 56 -54 99 -122 175
-244 417 -293 581 -34 116 -43 296 -19 402 32 144 126 288 250 386 118 92 314
173 420 173 86 0 89 34 9 83 -232 141 -564 216 -959 217 -683 1 -1346 -197
-1854 -554 l-65 -46 -3 28 c-2 16 4 62 13 103 28 125 30 167 10 189 -44 49
-149 6 -253 -104 -38 -41 -82 -99 -98 -132 -27 -54 -29 -68 -28 -164 0 -85 8
-134 37 -255 117 -485 177 -1000 177 -1526 0 -181 -3 -247 -15 -286 -17 -57
-176 -302 -278 -428 -35 -44 -116 -134 -178 -199 l-114 -119 -9 48 -9 49 96
90 c53 50 101 104 106 119 43 114 -67 249 -250 308 l-76 24 -17 63 -17 63 23
19 c41 34 131 78 207 100 83 26 111 47 111 88 0 56 -90 164 -202 240 -75 52
-164 90 -239 102 -65 11 -69 14 -63 33 10 36 65 86 124 114 43 21 76 28 150
32 94 6 95 6 98 32 2 20 -13 47 -65 112 -37 46 -85 113 -106 148 -35 58 -38
69 -35 124 5 80 30 112 129 165 43 23 88 53 100 66 28 30 30 85 5 113 -87 96
-467 51 -753 -89 l-91 -45 -12 40 c-6 22 -19 51 -27 64 -9 14 -12 26 -7 28 30
10 214 118 260 153 68 51 134 134 178 225 56 114 66 169 76 405 11 282 25 329
163 552 37 60 69 119 73 132 16 64 -28 91 -126 75z m60 -63 c0 -2 -25 -44 -56
-92 -31 -49 -72 -120 -91 -159 -19 -38 -37 -72 -39 -74 -2 -2 -20 11 -41 29
-47 42 -105 68 -174 78 l-54 8 75 53 c89 64 216 126 296 145 63 15 84 18 84
12z m-1320 -94 c0 -4 -30 -57 -66 -117 -36 -61 -83 -145 -105 -188 -27 -53
-44 -75 -52 -70 -7 4 -27 17 -46 30 -36 25 -77 37 -154 48 -60 8 -58 11 67
104 112 83 191 131 282 170 80 35 74 33 74 23z m928 -167 c55 -7 107 -34 150
-75 37 -37 37 -34 17 -125 -8 -39 -15 -105 -15 -148 l0 -79 -33 44 c-68 89
-207 158 -318 158 -27 0 -49 3 -49 6 0 20 77 147 114 187 34 38 49 47 67 43
13 -3 44 -7 67 -11z m3377 -46 c155 -13 317 -41 429 -74 96 -28 240 -85 233
-92 -3 -2 -69 7 -148 21 -239 41 -363 49 -604 43 -552 -16 -1052 -142 -1519
-385 -143 -74 -347 -204 -385 -246 -31 -33 -21 -45 45 -51 27 -3 121 -12 209
-21 676 -67 1255 -296 1720 -680 112 -92 216 -187 170 -155 -109 77 -151 105
-235 156 -111 68 -304 166 -442 224 -380 161 -902 287 -1439 346 -109 12 -102
1 134 -236 218 -218 350 -370 510 -584 245 -328 519 -784 723 -1204 41 -84 73
-155 71 -157 -2 -2 -50 72 -107 164 -453 732 -902 1333 -1264 1694 -110 109
-209 179 -228 160 -7 -7 4 -84 36 -259 132 -717 188 -1307 141 -1488 -28 -106
-148 -288 -471 -712 -204 -269 -254 -343 -227 -343 4 0 16 9 27 19 21 20 21
19 78 -22 31 -23 103 -73 159 -112 165 -112 300 -226 474 -399 178 -178 289
-311 406 -489 244 -368 377 -745 397 -1125 14 -267 -14 -523 -83 -742 -15 -44
-25 -93 -23 -108 6 -41 91 140 122 260 30 115 56 294 56 383 0 36 3 65 6 65 3
0 28 -20 54 -43 110 -99 308 -167 440 -151 165 20 347 148 449 318 81 135 120
333 102 515 -20 190 -66 336 -201 636 -126 280 -164 418 -163 600 0 167 49
339 138 485 38 63 43 80 21 80 -22 0 -80 -73 -121 -151 -33 -62 -42 -72 -94
-99 -65 -33 -181 -73 -188 -66 -9 8 26 111 58 172 94 178 326 419 531 550 155
100 382 194 467 194 23 0 41 -3 41 -6 0 -12 -25 -51 -70 -109 -95 -122 -179
-312 -218 -495 -12 -52 -26 -169 -32 -260 -6 -90 -15 -169 -21 -175 -12 -12
-37 3 -130 79 l-72 59 7 109 c5 88 4 108 -7 108 -20 0 -55 -112 -63 -202 -9
-101 11 -261 48 -378 35 -112 115 -275 223 -455 43 -71 124 -220 180 -330 242
-477 286 -798 163 -1185 -85 -269 -279 -551 -483 -702 -386 -287 -871 -376
-1345 -247 -80 22 -199 66 -214 80 -5 5 20 66 59 144 37 74 65 139 60 143 -11
11 -87 -81 -133 -161 -54 -94 -102 -242 -109 -331 -10 -136 25 -247 152 -476
36 -64 65 -126 65 -138 0 -32 -86 -102 -196 -159 -79 -41 -460 -215 -611 -279
-31 -14 -31 -14 -52 29 -27 56 -94 125 -143 147 l-40 17 77 52 c42 28 83 51
91 51 8 0 14 5 14 10 0 6 -15 10 -32 10 -47 0 -166 -70 -242 -140 -62 -59 -63
-59 -74 -36 -20 44 -75 97 -130 125 l-55 28 47 32 c26 18 72 44 102 58 31 14
52 29 47 34 -21 21 -153 -31 -246 -97 l-47 -34 -37 41 c-37 41 -99 79 -128 79
-75 0 156 104 332 150 47 12 468 86 586 102 42 7 77 16 77 22 0 7 -25 17 -56
25 -248 57 -473 178 -616 331 -126 133 -197 270 -234 451 -24 121 -15 349 19
482 91 345 338 626 666 757 126 50 120 64 -17 35 -311 -64 -596 -365 -704
-743 -12 -42 -23 -79 -25 -81 -5 -7 -72 73 -134 159 -96 134 -182 318 -239
515 l-29 100 27 47 c42 75 90 130 175 199 43 35 87 74 99 86 14 15 25 20 32
14 43 -36 333 -78 451 -66 206 21 311 79 367 200 32 69 32 206 0 318 -50 178
-187 481 -273 608 -50 75 -122 149 -144 149 -25 0 -18 -17 36 -82 90 -110 268
-498 321 -698 49 -186 12 -322 -106 -382 -128 -65 -418 -64 -625 4 l-64 20
-23 -30 c-13 -16 -55 -53 -94 -82 -94 -70 -167 -153 -215 -244 -22 -42 -43
-76 -47 -76 -13 0 -47 67 -64 128 -23 84 -9 188 40 285 28 56 31 67 17 67 -9
0 -39 -19 -66 -43 -28 -24 -70 -57 -95 -74 -54 -37 -119 -99 -182 -172 l-47
-54 -5 34 c-19 108 -9 192 31 278 30 64 115 158 180 199 49 31 54 42 17 42
-26 0 -124 -47 -124 -60 0 -4 -35 -6 -77 -6 -94 1 -140 -20 -202 -90 l-41 -47
7 34 c40 211 239 378 450 379 69 0 233 -32 308 -61 55 -21 74 -23 240 -21 99
1 217 2 263 2 74 0 83 2 80 17 -4 19 -39 30 -105 32 l-43 1 -41 81 c-22 45
-64 118 -92 163 -66 106 -132 247 -147 316 -7 31 -11 95 -9 143 3 67 1 87 -9
87 -44 0 -61 -183 -28 -295 22 -72 77 -185 138 -280 24 -38 61 -100 81 -136
l37 -66 -143 -6 c-142 -7 -144 -7 -225 23 -46 17 -96 30 -111 30 -55 0 -61 7
-61 72 0 86 26 402 60 718 16 151 34 335 41 407 14 160 7 604 -11 713 -13 74
-12 77 18 170 68 204 69 345 6 675 -13 72 -27 144 -30 160 -5 26 6 18 90 -68
124 -129 166 -210 272 -521 52 -152 80 -258 134 -512 22 -104 53 -236 70 -293
16 -57 30 -113 30 -124 0 -11 -23 -44 -51 -74 -36 -38 -48 -58 -41 -65 32 -32
332 247 511 476 107 137 248 358 267 421 25 79 30 421 10 700 -31 431 -77 744
-168 1130 -17 74 -32 172 -35 228 -6 97 -5 98 31 172 26 52 53 88 91 122 59
53 121 90 132 79 4 -3 0 -35 -8 -69 -8 -35 -14 -112 -14 -177 0 -112 1 -115
23 -118 15 -2 38 9 65 31 116 94 365 241 550 324 465 208 1060 314 1532 272z
m-4620 -151 c86 -44 88 -51 60 -141 -14 -43 -28 -101 -31 -131 l-6 -53 -62 31
c-81 41 -219 49 -309 18 l-57 -19 6 21 c22 72 161 284 196 300 33 14 154 -1
203 -26z m5040 -12 c55 -9 114 -21 130 -25 27 -8 28 -9 10 -16 -145 -54 -309
-171 -398 -284 -101 -130 -145 -249 -154 -421 -6 -120 9 -217 57 -362 28 -82
123 -284 159 -338 69 -101 62 -102 -34 -4 -113 113 -263 235 -405 329 -473
313 -954 472 -1585 525 -77 7 -141 13 -143 15 -6 5 180 126 283 183 410 227
863 362 1400 416 102 10 584 -3 680 -18z m-3847 -90 c101 -51 180 -147 197
-237 14 -75 -31 -230 -97 -332 l-31 -49 -14 52 c-42 164 -174 289 -343 323
-37 8 -59 17 -52 21 13 8 74 124 87 165 4 13 14 40 22 59 l14 34 82 -4 c64 -4
94 -11 135 -32z m-1243 -225 l65 -32 1 -57 c1 -31 4 -68 8 -82 l7 -25 -141
-23 c-115 -19 -263 -60 -346 -96 -21 -9 -22 30 -3 152 22 142 30 157 106 181
96 32 216 24 303 -18z m970 -56 c149 -39 277 -184 292 -330 5 -49 4 -54 -26
-81 -34 -31 -171 -116 -260 -162 -50 -26 -54 -26 -65 -9 -125 200 -262 333
-378 369 -35 10 -52 28 -27 28 25 0 261 121 311 159 60 46 69 47 153 26z
m-522 -252 c48 -17 113 -46 145 -64 67 -40 317 -283 307 -300 -4 -6 4 -23 18
-37 28 -30 48 -69 66 -124 12 -36 11 -38 -23 -69 -36 -31 -45 -52 -26 -64 5
-3 31 11 57 31 98 76 321 166 507 204 104 22 266 28 308 12 37 -15 45 -33 22
-49 -102 -74 -243 -130 -381 -154 -170 -28 -353 -80 -353 -100 0 -4 21 -1 48
7 26 8 130 30 232 49 102 19 200 39 217 44 l33 10 -17 -32 c-11 -20 -17 -55
-17 -92 0 -74 28 -141 103 -238 28 -38 48 -67 44 -65 -99 50 -200 93 -288 121
-113 37 -295 77 -346 77 -27 0 -29 -3 -29 -40 0 -22 14 -119 31 -217 17 -98
35 -203 40 -233 61 -357 57 -487 -21 -687 -121 -314 -612 -811 -1030 -1041
-256 -140 -569 -165 -691 -55 -61 55 -83 109 -65 161 11 32 39 27 56 -11 21
-46 52 -57 158 -57 155 0 335 49 548 150 374 176 686 504 770 810 25 92 26
349 2 438 -30 106 -68 172 -143 248 -76 77 -123 106 -212 129 -164 43 -299 7
-543 -142 -391 -240 -798 -375 -1175 -390 -146 -6 -405 8 -509 27 -141 26
-267 90 -313 159 -27 40 -30 95 -8 149 9 20 52 74 96 119 l81 82 -8 58 c-18
133 3 229 58 267 32 23 89 20 129 -7 42 -28 95 -105 110 -160 10 -38 8 -47
-20 -104 -34 -70 -38 -88 -17 -96 9 -4 26 18 52 65 59 108 156 180 261 194
107 14 231 -54 254 -139 17 -62 7 -173 -20 -225 -12 -24 -20 -47 -17 -50 11
-10 56 42 82 94 22 45 25 63 22 129 l-3 77 45 -6 c24 -3 95 -31 158 -61 63
-30 117 -55 120 -55 18 0 -53 57 -108 87 -36 20 -76 43 -90 52 l-25 16 45 7
c109 17 256 0 343 -38 27 -13 41 -14 49 -6 7 7 -5 19 -46 42 -31 18 -56 33
-56 35 0 2 20 15 44 29 54 31 130 108 146 146 l12 29 30 -59 c59 -119 213
-219 352 -228 215 -14 397 122 461 343 30 101 1 259 -56 311 -26 24 -24 31 14
43 53 18 98 72 104 123 12 110 -118 185 -268 153 -76 -15 -285 -96 -344 -132
-43 -28 -105 -82 -105 -94 0 -5 26 4 58 18 146 64 360 136 443 148 114 17 207
-87 126 -140 -12 -7 -83 -25 -157 -38 -139 -26 -318 -82 -474 -149 -68 -29
-92 -35 -98 -26 -37 58 -35 210 5 303 14 33 23 62 21 64 -8 8 -42 -31 -70 -82
-27 -48 -29 -60 -29 -152 0 -86 3 -105 23 -139 l23 -39 -31 -26 c-24 -20 -34
-43 -50 -104 -26 -106 -44 -138 -101 -192 -72 -67 -127 -89 -203 -80 -72 8
-113 31 -161 89 -93 114 -115 266 -54 386 19 40 101 120 121 120 13 0 95 -43
305 -158 62 -34 115 -62 118 -62 15 0 1 36 -27 71 -29 36 -33 49 -36 113 -5
84 18 186 49 229 26 36 20 43 -13 18 -43 -34 -71 -115 -76 -217 l-4 -92 -46
31 c-24 17 -115 68 -201 114 -184 98 -226 136 -217 192 6 40 45 81 76 81 37 0
120 -38 196 -90 80 -54 100 -59 65 -14 -11 15 -21 30 -21 34 0 15 113 83 189
115 180 75 352 105 586 101 161 -2 175 -4 258 -33z m2562 -208 c268 -41 626
-128 860 -208 410 -141 770 -338 1058 -580 l29 -24 -95 -6 c-258 -15 -466
-176 -566 -437 -63 -165 -98 -441 -87 -695 3 -88 9 -178 11 -200 5 -35 2 -32
-23 30 -79 191 -263 546 -420 810 -283 476 -534 806 -874 1149 l-198 199 68
-6 c37 -3 144 -17 237 -32z m-326 -205 c114 -96 408 -438 622 -725 307 -409
897 -1300 875 -1322 -2 -2 -30 9 -62 25 -330 166 -675 145 -969 -59 -144 -100
-334 -328 -429 -518 -41 -80 -89 -216 -105 -293 l-12 -57 -94 74 c-52 40 -162
120 -245 176 -82 57 -150 106 -150 111 0 8 73 106 320 428 170 222 312 432
328 489 19 63 31 194 26 291 -18 336 -90 880 -174 1298 -16 84 -30 155 -30
158 0 6 22 -11 99 -76z m-2286 -87 c64 -68 91 -190 62 -289 -37 -129 -107
-212 -224 -268 -59 -28 -76 -31 -156 -31 -85 0 -96 3 -167 38 -94 46 -167 121
-198 205 -24 62 -23 134 1 157 27 26 379 157 523 195 100 27 127 25 159 -7z
m866 -399 c140 -31 274 -76 401 -135 l94 -44 -54 -8 c-111 -16 -233 -92 -266
-166 l-17 -39 -47 57 c-26 31 -88 95 -138 143 -91 87 -93 90 -118 191 -8 34
-5 34 145 1z m-849 -426 c0 -55 -24 -193 -46 -263 -17 -52 -19 -54 -35 -39
-58 52 -188 277 -167 290 35 22 150 54 196 54 l52 0 0 -42z m1171 -68 c76 -23
162 -73 237 -137 50 -43 112 -116 112 -133 0 -4 -45 -21 -99 -39 -54 -18 -122
-48 -150 -66 -28 -19 -52 -31 -54 -27 -3 4 -17 45 -32 92 -25 76 -39 115 -106
283 l-19 47 24 0 c13 0 52 -9 87 -20z m-1563 -169 l-33 -143 -28 33 c-42 50
-100 149 -92 157 10 10 179 101 182 98 2 -2 -12 -67 -29 -145z m-508 -140 c0
-22 -63 -181 -71 -181 -19 0 -100 133 -88 144 6 5 131 44 147 45 6 1 12 -3 12
-8z m-1256 -97 c54 -10 85 -21 82 -28 -2 -6 -25 -59 -50 -118 -25 -59 -46
-112 -46 -118 0 -7 -6 -10 -12 -8 -21 7 -64 105 -82 186 -30 133 -29 123 -3
113 13 -5 63 -17 111 -27z m2523 -3 c35 -17 43 -25 49 -57 10 -52 -10 -172
-42 -252 -31 -79 -92 -192 -104 -192 -4 0 -38 14 -74 31 -36 17 -84 33 -105
36 -33 5 -44 1 -67 -22 -25 -25 -26 -31 -20 -89 3 -34 15 -93 26 -131 l19 -70
-25 -25 -25 -25 -37 21 c-20 12 -75 43 -120 69 -71 41 -88 47 -110 39 -46 -16
-64 -63 -63 -165 0 -49 3 -99 7 -111 10 -34 -14 -11 -38 35 -88 174 -103 406
-37 582 43 114 203 245 337 274 23 5 42 7 42 4 0 -2 -16 -21 -35 -41 -64 -68
-134 -232 -135 -319 0 -36 21 -2 60 93 65 160 148 261 254 310 66 31 180 33
243 5z m-1720 -53 c-6 -58 -69 -254 -87 -272 -19 -18 -73 54 -135 178 l-56
111 89 7 c70 6 161 18 191 27 2 0 1 -23 -2 -51z m2695 -225 c114 -44 208 -133
208 -197 0 -26 -13 -44 -82 -109 -45 -42 -85 -74 -90 -69 -7 7 -88 361 -88
385 0 10 4 9 52 -10z m-595 -244 c5 -74 7 -153 5 -176 -3 -37 -7 -43 -40 -56
-55 -22 -144 -36 -254 -40 l-97 -4 81 88 c93 101 210 253 253 328 l30 52 7
-29 c4 -16 11 -89 15 -163z m-577 3 c30 -15 55 -32 55 -39 0 -13 -112 -143
-124 -143 -5 0 -16 37 -25 83 -10 45 -20 92 -23 105 -5 19 -1 22 28 21 19 0
59 -12 89 -27z m-837 -176 c-4 -6 -34 -51 -67 -100 -59 -86 -61 -88 -67 -60
-11 50 -10 203 2 250 l12 46 63 -63 c35 -34 60 -67 57 -73z m508 -71 c49 -30
93 -55 99 -55 24 0 3 -19 -91 -84 -67 -46 -104 -65 -111 -58 -15 15 -23 204
-9 230 6 12 14 22 17 22 3 0 46 -25 95 -55z m909 -92 c0 -86 -27 -410 -35
-423 -3 -5 -47 -19 -98 -31 -142 -35 -432 -29 -496 10 -9 6 -5 32 18 109 17
56 37 134 45 174 14 71 17 75 79 132 l65 59 99 -2 c105 -2 208 10 270 33 21 8
41 14 46 15 4 0 7 -34 7 -76z m-1480 -219 c22 -28 40 -53 40 -57 0 -24 -246
-35 -270 -11 -5 5 -14 34 -20 63 -11 61 -14 244 -3 255 8 8 198 -179 253 -250z
m823 -55 c-51 -164 -219 -569 -236 -569 -3 0 -34 44 -70 98 -36 53 -91 128
-121 166 -31 38 -56 73 -56 77 0 4 37 26 82 49 90 46 245 148 353 234 39 30
73 55 77 56 3 0 -9 -50 -29 -111z m282 -233 c146 -1 194 3 253 18 40 10 76 16
79 13 3 -3 -2 -70 -10 -149 -9 -79 -21 -199 -28 -268 -6 -69 -12 -126 -13
-128 -6 -6 -190 -41 -276 -52 -157 -21 -380 2 -487 50 -25 11 -43 23 -41 27 2
5 44 91 94 193 51 102 104 217 119 256 l27 71 51 -15 c36 -10 106 -15 232 -16z
m2151 -56 c92 -24 123 -47 107 -82 -6 -13 -27 -43 -48 -68 -58 -69 -88 -119
-110 -187 l-20 -61 -103 100 c-96 94 -102 102 -102 140 0 36 25 151 36 170 10
16 162 8 240 -12z m1288 -413 c38 -21 40 -26 67 -127 15 -58 39 -134 53 -169
14 -36 26 -67 26 -70 0 -3 -32 26 -71 64 -116 115 -188 240 -173 299 8 33 44
34 98 3z m-3928 -87 c119 -42 193 -53 354 -53 125 0 180 5 285 25 72 14 130
25 131 24 0 0 -2 -71 -4 -156 l-4 -155 -73 3 c-146 8 -285 -46 -390 -151 -95
-95 -136 -190 -137 -313 0 -97 40 -127 81 -60 45 73 137 136 198 136 6 0 -4
-25 -22 -56 -59 -98 -83 -272 -51 -378 15 -51 41 -86 62 -86 6 0 35 31 63 69
53 71 183 201 202 201 6 0 8 -8 6 -17 -32 -115 0 -259 78 -352 31 -36 56 -39
83 -11 19 20 19 20 41 -57 32 -108 104 -283 157 -377 24 -43 44 -81 44 -85 0
-4 -44 -31 -97 -58 -249 -130 -574 -182 -857 -137 -105 17 -270 64 -298 86
-37 30 -117 291 -142 468 -23 161 -25 202 -12 196 83 -37 181 -69 266 -87 139
-29 405 -31 555 -5 109 20 205 51 205 68 0 5 -6 8 -14 5 -8 -3 -72 -16 -142
-28 -152 -27 -452 -32 -564 -10 -89 18 -248 69 -287 93 -33 19 -33 20 -33 96
0 133 34 476 49 501 4 6 34 2 76 -11 81 -24 286 -31 319 -12 16 10 2 12 -70
12 -50 0 -117 5 -150 12 -68 14 -164 48 -164 58 0 23 66 274 96 367 33 101 92
255 98 255 2 0 29 -9 62 -20z m2939 -25 c123 -32 255 -114 255 -159 0 -9 -34
-53 -75 -97 -51 -55 -81 -98 -92 -131 -10 -26 -20 -48 -23 -48 -3 1 -38 52
-78 114 -41 62 -109 159 -153 214 -43 55 -79 103 -79 106 0 18 175 19 245 1z
m-3189 -281 c-36 -114 -82 -329 -103 -479 l-19 -130 -38 -3 c-61 -5 -169 26
-274 79 -57 30 -103 47 -114 43 -10 -3 -45 -32 -78 -65 -63 -63 -123 -160
-151 -243 l-17 -48 -27 46 c-36 61 -55 128 -55 190 0 69 13 109 60 190 22 38
39 71 36 73 -11 12 -58 -26 -87 -70 l-33 -52 -46 23 c-36 19 -55 23 -98 18
-52 -5 -54 -4 -48 18 11 44 60 120 119 183 45 48 80 73 143 105 110 54 188 61
325 28 64 -16 128 -23 199 -24 138 -1 178 17 264 125 34 42 62 75 64 74 1 -1
-9 -38 -22 -81z m4484 -341 c32 -89 70 -224 70 -250 0 -21 -52 18 -141 106
-81 81 -124 139 -134 183 -9 36 15 46 107 47 l66 1 32 -87z m-915 -116 c70
-37 210 -170 220 -210 9 -36 -5 -52 -79 -89 -34 -17 -85 -46 -115 -65 -42 -27
-56 -32 -62 -21 -5 7 -9 18 -9 25 0 22 -91 294 -120 359 -17 36 -30 67 -30 69
0 9 143 -41 195 -68z m-4525 -27 c16 -12 30 -26 30 -32 0 -6 -23 -35 -51 -66
-28 -31 -70 -82 -92 -114 -37 -52 -43 -57 -54 -42 -29 40 -24 222 8 260 25 30
113 27 159 -6z m5396 -380 c32 -22 72 -51 89 -64 l29 -24 -13 -53 c-29 -118
-125 -275 -201 -329 l-33 -23 6 234 c5 243 14 299 46 299 10 0 44 -18 77 -40z
m-433 -258 c9 -9 20 -37 26 -62 13 -55 14 -250 2 -269 -8 -12 -20 -13 -81 -2
-91 17 -230 85 -299 147 l-51 46 42 24 c139 78 270 133 319 134 14 0 33 -8 42
-18z m-4102 -142 c16 -100 70 -278 120 -398 139 -336 375 -622 680 -825 74
-49 89 -63 110 -109 13 -29 57 -109 97 -178 40 -69 75 -135 78 -147 9 -33 -10
-57 -73 -90 -89 -47 -216 -87 -535 -168 -161 -40 -347 -89 -413 -109 -66 -19
-120 -34 -121 -33 -40 82 -97 145 -160 174 l-33 16 22 17 c31 24 119 70 134
70 7 0 13 5 13 11 0 8 -17 10 -55 6 -69 -7 -152 -53 -222 -123 -29 -29 -53
-47 -53 -41 0 25 -71 114 -109 137 -22 14 -41 28 -41 32 0 10 86 53 138 68 54
17 56 40 3 40 -47 0 -113 -22 -163 -55 l-37 -25 -22 31 c-12 17 -35 39 -52 49
l-30 19 34 20 c78 48 235 93 409 117 133 19 472 29 567 17 40 -5 77 -6 83 -3
6 4 -42 29 -106 55 -431 179 -658 449 -681 811 -16 254 110 514 327 675 75 56
71 58 91 -61z m5294 -266 c-11 -90 -62 -286 -101 -392 -50 -134 -100 -230
-186 -358 l-73 -109 -6 51 c-4 28 -18 76 -31 105 l-24 54 64 71 c141 156 264
363 329 551 15 46 30 83 32 83 2 0 0 -25 -4 -56z m-3684 -220 l29 -30 -7 -105
c-5 -57 -5 -142 -2 -189 6 -98 4 -102 -91 -150 -215 -108 -555 -140 -805 -76
-99 26 -100 26 -173 98 -80 79 -179 201 -234 288 -36 57 -119 210 -114 210 2
0 29 -9 62 -20 216 -75 486 -88 734 -37 135 29 308 92 399 146 l65 38 54 -71
c30 -39 67 -85 83 -102z m138 -727 c23 -43 52 -90 65 -105 52 -65 54 -59 -21
-82 -143 -44 -389 -36 -538 17 -114 41 -295 137 -424 224 -67 45 -123 84 -125
88 -3 4 34 -1 82 -11 110 -22 331 -24 461 -3 115 19 257 65 337 109 l59 33 31
-96 c16 -53 49 -131 73 -174z m3125 216 c9 -26 16 -75 16 -111 l0 -64 -72 -75
c-67 -69 -235 -204 -306 -245 l-29 -17 14 52 c15 59 18 194 4 249 l-9 38 89
47 c49 25 128 76 176 113 49 37 91 65 95 63 3 -2 13 -24 22 -50z m-1449 -266
l87 -22 -7 -40 c-13 -85 -72 -184 -170 -282 -50 -51 -97 -93 -104 -93 -32 0
-101 213 -101 312 0 51 23 189 35 208 2 4 43 -8 89 -27 47 -18 124 -44 171
-56z m1038 51 c24 -99 16 -185 -25 -279 -21 -49 -26 -54 -102 -89 -45 -21
-117 -50 -161 -65 -94 -31 -277 -77 -283 -70 -3 2 7 18 21 34 60 72 107 211
107 317 l0 63 48 6 c88 11 227 46 297 74 87 36 92 36 98 9z m-675 -95 l192 -5
0 -57 c0 -110 -57 -245 -135 -321 l-46 -45 -192 0 c-106 0 -222 4 -259 8 l-67
9 83 81 c94 93 146 177 173 281 16 59 20 66 38 61 11 -4 107 -9 213 -12z
m-1848 -147 c30 -30 87 -75 125 -101 l70 -46 -65 7 c-119 12 -294 44 -425 79
-198 52 -198 52 -45 57 110 4 148 10 205 30 39 14 72 26 75 27 2 0 29 -23 60
-53z m-2664 -234 c75 -55 75 -55 4 -127 -51 -52 -77 -69 -134 -90 -39 -14 -90
-37 -113 -50 -54 -30 -56 -17 -11 69 30 57 184 226 206 226 5 0 27 -13 48 -28z
m233 -188 c20 -23 42 -53 50 -67 12 -23 11 -28 -13 -60 -21 -28 -41 -38 -104
-57 -42 -13 -115 -36 -162 -51 -47 -16 -88 -29 -93 -29 -20 0 42 152 92 222
16 24 48 62 71 86 l40 43 41 -23 c23 -13 58 -42 78 -64z m235 -34 c34 -13 110
-83 137 -127 12 -19 20 -35 18 -37 -10 -8 -374 -114 -378 -110 -6 6 57 124 92
169 29 38 98 115 103 115 2 0 14 -4 28 -10z m1901 -129 c22 -10 57 -35 78 -56
l38 -37 -21 -23 c-23 -25 -388 -201 -397 -192 -9 10 26 102 58 153 17 27 58
77 92 112 68 69 86 74 152 43z m304 -149 c40 -32 103 -120 98 -135 -8 -24 -61
-51 -221 -112 -93 -36 -170 -65 -172 -65 -11 0 -1 49 23 108 31 81 77 154 129
205 34 34 42 38 73 33 19 -3 51 -18 70 -34z m318 -79 c23 -16 53 -42 67 -60
25 -29 61 -102 54 -108 -7 -7 -146 -67 -375 -162 -31 -13 6 105 61 194 38 63
126 163 143 163 5 0 28 -12 50 -27z"/>
<path d="M7073 4532 c-22 -14 -35 -66 -28 -112 8 -52 44 -127 74 -154 34 -30
34 -13 2 40 -37 59 -57 130 -47 168 27 108 202 -50 261 -237 41 -128 31 -243
-27 -300 -27 -27 -33 -29 -78 -24 -83 10 -160 61 -232 154 -22 29 -43 52 -45
49 -9 -9 41 -91 85 -139 55 -58 148 -107 206 -107 156 0 205 232 96 456 -67
137 -206 245 -267 206z"/>
<path d="M7601 3683 c11 -32 21 -85 22 -118 3 -102 -33 -151 -97 -134 -56 15
-144 121 -160 192 -4 15 -11 27 -16 27 -16 0 -11 -52 10 -99 79 -174 245 -221
291 -83 25 76 -15 272 -55 272 -13 0 -12 -9 5 -57z"/>
<path d="M6220 2673 c-47 -122 -34 -257 29 -317 76 -73 209 -39 242 61 17 53
6 59 -24 14 -68 -102 -167 -106 -219 -8 -27 50 -31 173 -9 250 20 68 7 69 -19
0z"/>
<path d="M3752 7795 c-94 -79 -33 -279 73 -239 28 11 55 79 55 137 0 104 -64
156 -128 102z"/>
<path d="M2590 7390 c-39 -39 -18 -161 35 -196 45 -30 67 1 66 92 -1 100 -52
153 -101 104z"/>
<path d="M3065 7316 c-42 -19 -80 -56 -104 -104 -24 -47 -26 -63 -10 -79 9 -9
24 -6 59 12 26 13 78 30 115 36 62 12 69 16 81 46 32 76 -51 129 -141 89z"/>
<path d="M4262 7805 c-55 -46 -60 -142 -13 -219 58 -94 151 -31 151 102 0 121
-67 177 -138 117z"/>
<path d="M2955 8981 c-45 -20 -95 -73 -125 -131 -55 -108 -67 -274 -26 -373
22 -53 23 -59 8 -64 -10 -4 -78 -34 -152 -68 -150 -67 -327 -166 -465 -258
-432 -288 -791 -709 -961 -1125 -38 -94 -42 -108 -29 -122 14 -13 18 -12 43 3
151 97 365 147 512 119 114 -21 170 -50 246 -126 59 -59 79 -89 122 -178 53
-112 78 -138 66 -70 -39 230 -180 382 -397 429 -123 26 -338 4 -430 -44 -16
-8 -30 -13 -32 -11 -2 2 35 55 83 118 94 125 370 409 492 506 196 157 440 315
642 415 222 111 331 146 313 102 -12 -31 -103 -337 -110 -370 -4 -19 -3 -33 3
-33 5 0 33 72 61 160 58 178 86 250 99 250 15 0 40 -69 77 -210 47 -181 83
-285 105 -312 l19 -23 0 30 c0 17 -28 138 -63 270 -58 217 -67 242 -95 267
-46 41 -132 40 -244 -4 -471 -182 -1081 -658 -1339 -1047 -48 -71 -49 -57 -2
28 114 205 259 397 433 572 157 156 256 238 431 353 156 104 290 178 449 251
146 67 201 100 201 120 0 8 -12 50 -26 92 -31 93 -29 182 6 277 22 58 102 156
128 156 8 0 12 -28 12 -93 0 -115 27 -214 105 -388 48 -106 57 -137 66 -219
33 -304 144 -664 231 -746 l30 -29 -16 40 c-9 21 -27 75 -40 120 -13 44 -40
132 -60 197 -44 146 -71 279 -86 433 -12 110 -17 130 -66 240 -86 195 -96 235
-102 370 -2 66 -9 126 -14 133 -15 17 -56 15 -103 -7z"/>
<path d="M3659 6582 c21 -41 62 -145 58 -147 -1 -1 -33 -14 -72 -30 -77 -31
-170 -80 -254 -133 -47 -30 -56 -33 -76 -22 -18 10 -37 9 -96 -3 -413 -88
-411 -88 -549 -90 -209 -2 -277 22 -434 155 -152 129 -239 176 -375 204 -148
29 -296 2 -296 -55 0 -25 8 -31 64 -52 54 -20 87 -55 145 -152 67 -114 119
-174 197 -226 l61 -41 -38 0 c-69 1 -186 27 -319 71 -103 34 -148 43 -220 47
-147 7 -240 -25 -373 -125 -111 -85 -258 -281 -250 -334 6 -44 30 -45 119 -6
109 48 175 60 253 46 155 -28 217 -119 147 -215 -66 -93 -132 -127 -341 -179
-207 -51 -308 -102 -415 -208 -98 -98 -153 -200 -181 -336 -19 -95 -15 -220 8
-268 24 -51 50 -42 111 39 102 137 192 203 319 233 80 19 132 19 147 1 18 -21
5 -39 -93 -133 -92 -89 -159 -180 -187 -252 -9 -26 -31 -109 -47 -187 -17 -77
-44 -170 -61 -207 -40 -90 -126 -180 -195 -206 -121 -45 -31 -121 129 -108 54
5 88 15 152 47 97 48 168 115 273 254 57 76 77 96 94 94 49 -7 22 -164 -50
-285 -21 -35 -82 -113 -137 -175 -54 -62 -111 -131 -127 -153 -73 -106 -118
-240 -127 -382 -10 -156 30 -333 75 -333 27 0 36 14 66 95 34 90 82 160 164
236 86 81 171 120 341 159 292 68 381 100 505 184 38 25 70 46 72 46 3 0 -7
-21 -20 -47 -40 -79 -122 -189 -212 -283 -46 -49 -84 -93 -84 -98 0 -5 13 -15
30 -22 57 -24 169 7 329 91 220 115 425 306 542 507 21 37 39 64 39 60 0 -35
-25 -177 -41 -231 -36 -121 -9 -136 97 -54 120 92 198 207 246 362 19 63 22
94 23 315 1 316 5 327 154 498 53 62 55 63 65 40 5 -12 10 -109 10 -215 l1
-192 25 -4 c38 -8 134 97 192 209 106 205 127 372 88 695 -27 220 -24 352 9
444 37 103 127 226 330 446 128 140 206 237 197 246 -8 8 -357 -352 -448 -461
-166 -199 -194 -327 -147 -688 25 -196 22 -351 -10 -473 -26 -96 -98 -246
-143 -296 l-33 -37 3 124 c4 125 -9 208 -43 292 -18 43 -37 40 -76 -10 -18
-24 -54 -65 -80 -93 -26 -27 -64 -77 -84 -110 -65 -108 -69 -132 -69 -405 l-1
-245 -31 -88 c-18 -48 -47 -112 -65 -143 -37 -62 -154 -191 -144 -159 10 31
25 173 25 237 0 85 -19 158 -42 158 -11 0 -18 -7 -18 -18 0 -10 -17 -54 -39
-98 -108 -221 -323 -436 -557 -556 -76 -40 -209 -98 -222 -98 -2 0 19 26 48
58 103 116 210 292 246 406 28 89 12 90 -97 7 -163 -124 -268 -169 -535 -230
-200 -46 -272 -73 -359 -135 -87 -63 -148 -135 -200 -239 -42 -83 -45 -86 -52
-60 -4 15 -8 89 -7 163 0 118 4 145 27 216 33 100 80 173 191 298 135 152 187
236 226 364 29 96 24 166 -14 199 -29 24 -65 29 -96 13 -10 -6 -57 -59 -104
-119 -47 -60 -107 -128 -133 -151 -68 -61 -182 -113 -257 -118 l-61 -4 42 31
c116 85 185 223 228 461 10 55 30 115 57 170 34 71 57 101 137 180 53 52 104
106 113 120 42 60 8 134 -65 145 -70 10 -198 -18 -275 -61 -70 -39 -222 -183
-222 -210 0 -9 -4 -12 -10 -9 -15 9 -12 141 5 214 30 127 99 236 202 322 77
64 193 116 348 154 171 43 269 88 333 152 57 58 82 107 82 163 0 72 -46 131
-135 172 -43 20 -66 23 -165 23 -104 0 -121 -3 -172 -27 -32 -15 -58 -23 -58
-19 0 19 90 130 153 188 177 165 337 197 584 119 177 -56 261 -70 383 -63 113
6 180 22 180 43 0 8 -12 16 -27 20 -163 36 -255 109 -366 288 -57 93 -119 156
-154 156 -7 0 -13 5 -13 10 0 15 156 12 229 -5 88 -21 184 -74 283 -156 203
-169 267 -194 498 -193 143 0 171 3 359 43 112 23 215 47 230 53 14 5 49 13
76 18 65 11 236 86 350 153 90 54 115 79 75 75 -18 -3 -25 5 -34 37 -16 50
-52 121 -67 130 -6 4 -1 -11 10 -33z"/>
<path d="M3780 6332 c-203 -146 -402 -314 -556 -473 -108 -112 -159 -178 -212
-279 -49 -91 -59 -127 -72 -261 -6 -57 -18 -138 -26 -179 -18 -88 -88 -237
-138 -295 l-35 -40 -1 78 c0 74 -19 147 -38 147 -14 0 -104 -160 -139 -245
-17 -44 -43 -136 -58 -205 -51 -244 -111 -398 -203 -522 -59 -80 -213 -220
-227 -206 -2 2 7 38 22 79 43 124 43 339 -1 339 -7 0 -39 -39 -71 -86 -74
-110 -149 -173 -386 -329 -174 -116 -210 -145 -176 -145 34 0 391 231 479 310
31 27 77 77 101 110 45 59 46 60 51 32 8 -36 -16 -160 -47 -242 -13 -36 -27
-78 -31 -94 -7 -27 -6 -28 21 -22 49 12 162 86 218 141 133 133 231 339 280
585 31 160 98 341 148 405 15 19 16 16 18 -50 1 -71 7 -126 15 -134 21 -21
121 96 172 203 48 99 67 174 87 342 8 71 20 147 26 169 48 173 245 388 664
727 182 147 201 165 190 176 -7 7 -32 -5 -75 -36z"/>
<path d="M3085 6023 c-22 -9 -136 -56 -253 -105 -117 -48 -239 -95 -270 -104
-41 -11 -125 -18 -297 -23 -239 -7 -240 -7 -340 -42 -159 -55 -281 -151 -254
-200 9 -18 65 -39 104 -39 28 0 135 -28 163 -42 12 -6 22 -17 22 -24 0 -22
-65 -70 -196 -144 -190 -108 -240 -144 -339 -244 -64 -64 -100 -110 -123 -156
-59 -117 -76 -223 -47 -280 l15 -28 67 70 c86 89 139 126 217 149 109 34 113
30 53 -54 -60 -84 -139 -245 -163 -332 -12 -43 -18 -124 -23 -288 -3 -126 -3
-231 0 -233 4 -2 18 5 32 16 27 22 73 108 113 215 35 92 101 191 169 254 30
27 103 80 163 116 254 158 346 270 407 500 15 55 42 132 60 170 58 126 94 161
415 408 56 44 99 81 96 84 -2 3 -71 -40 -153 -96 -314 -213 -372 -283 -449
-542 -20 -68 -50 -151 -67 -184 -49 -93 -169 -206 -318 -297 -148 -91 -204
-138 -263 -222 -54 -76 -78 -123 -117 -231 -17 -47 -36 -88 -42 -92 -18 -11 0
324 22 409 33 125 116 287 202 390 21 26 39 51 39 57 0 14 -94 14 -161 0 -86
-19 -141 -49 -211 -117 l-68 -65 0 34 c1 50 44 165 86 226 75 109 209 215 414
328 112 61 181 112 207 151 37 57 -26 101 -182 129 -49 8 -91 17 -94 20 -10
10 63 74 118 103 120 64 174 74 431 82 245 8 280 13 411 64 82 31 451 204 463
216 15 15 -13 11 -59 -7z"/>
</g>
</svg>
