<?xml version="1.0" standalone="no"?>
<!DOCTYPE svg PUBLIC "-//W3C//DTD SVG 20010904//EN"
 "http://www.w3.org/TR/2001/REC-SVG-20010904/DTD/svg10.dtd">
<svg version="1.0" xmlns="http://www.w3.org/2000/svg"
 width="1024.000000pt" height="1024.000000pt" viewBox="0 0 1024.000000 1024.000000"
 preserveAspectRatio="xMidYMid meet">
<metadata>
Created by potrace 1.16, written by Peter Selinger 2001-2019
</metadata>
<g transform="translate(0.000000,1024.000000) scale(0.100000,-0.100000)"
fill="#000000" stroke="none">
<path d="M4507 9690 c-48 -16 -110 -41 -138 -55 -229 -116 -478 -348 -669
-623 l-65 -93 -165 -1 c-91 0 -196 -4 -235 -8 -38 -5 -72 -6 -74 -4 -2 2 4 36
13 76 10 40 24 102 33 138 43 181 80 298 138 434 32 74 36 91 27 111 -50 110
-390 -170 -575 -475 -80 -132 -133 -280 -139 -390 -4 -57 -47 -100 -100 -100
-56 0 -147 -28 -193 -60 -79 -54 -108 -165 -66 -249 21 -41 87 -105 118 -115
19 -6 19 -8 -4 -74 -12 -37 -23 -86 -23 -110 0 -66 34 -150 81 -198 l41 -42
-88 -7 c-124 -9 -373 -43 -472 -64 -73 -16 -84 -16 -95 -3 -21 26 -90 52 -140
52 -121 0 -198 -88 -232 -266 -56 -289 70 -631 300 -817 66 -53 197 -123 250
-133 38 -7 81 14 124 60 l24 26 40 -37 c77 -69 249 -133 358 -133 96 0 159 31
302 151 91 77 208 133 348 168 113 29 286 57 294 49 8 -8 -34 -147 -64 -211
-47 -103 -111 -177 -368 -430 -340 -335 -461 -490 -588 -752 -78 -161 -129
-313 -158 -472 l-22 -123 -70 0 c-96 0 -238 -39 -360 -99 -137 -68 -245 -167
-304 -281 -29 -56 -64 -102 -114 -153 -127 -126 -203 -258 -233 -402 -41 -198
12 -425 145 -620 l41 -60 -42 -42 c-34 -35 -49 -43 -78 -43 -42 0 -127 -38
-157 -71 -12 -13 -29 -37 -37 -53 -13 -25 -41 -41 -168 -95 l-153 -66 -3 -49
c-2 -26 1 -84 7 -129 7 -64 14 -84 31 -97 19 -14 26 -45 56 -236 63 -402 76
-489 81 -534 l5 -45 -69 -23 c-115 -37 -216 -110 -255 -186 -61 -119 25 -254
197 -305 38 -12 81 -21 95 -21 59 0 70 -9 70 -57 0 -90 63 -161 205 -228 114
-54 200 -68 448 -72 l219 -3 41 -36 c58 -49 85 -62 196 -91 83 -22 123 -26
296 -30 220 -5 328 6 510 52 55 15 109 28 120 31 14 4 34 -8 66 -39 63 -61
142 -95 278 -123 130 -26 269 -34 421 -23 107 8 124 10 215 29 51 11 52 10 89
-25 47 -44 84 -60 211 -90 156 -37 321 -55 555 -62 393 -10 708 44 806 138
l31 30 149 -26 c82 -14 196 -28 254 -31 194 -12 377 26 447 92 41 39 45 39
122 19 31 -8 72 -17 91 -20 19 -3 71 -12 115 -20 180 -32 392 -35 608 -10 274
32 466 106 529 206 l23 36 210 -1 c267 -1 399 14 555 65 131 43 250 130 266
195 5 20 14 22 117 27 124 6 164 16 221 55 113 77 103 238 -20 352 -43 40
-129 88 -196 109 -38 13 -38 13 -38 69 0 135 -90 215 -291 256 -61 12 -63 13
-77 55 -23 68 -111 154 -206 202 -45 22 -101 43 -124 46 -23 3 -42 8 -41 12 0
3 67 39 147 79 187 93 310 179 444 314 242 244 423 614 463 948 3 30 8 69 10
85 2 17 5 100 5 186 5 451 -150 887 -480 1357 -199 285 -245 354 -282 426
-158 312 -120 587 112 817 111 109 260 183 455 224 117 24 144 34 156 57 23
43 -139 163 -285 211 -80 26 -299 33 -402 12 -285 -55 -545 -212 -709 -428
-72 -94 -140 -259 -160 -385 -5 -31 -10 -40 -18 -33 -16 12 -115 41 -144 41
-40 0 -69 -39 -71 -95 -5 -119 52 -239 172 -360 75 -76 82 -85 113 -175 18
-52 33 -96 33 -97 0 -1 -15 3 -32 8 -43 12 -86 11 -148 -2 -110 -24 -94 -115
43 -238 68 -61 200 -131 284 -151 29 -6 56 -17 61 -23 15 -18 99 -177 117
-221 l16 -39 -38 7 c-21 3 -79 9 -128 12 -101 7 -116 0 -117 -54 -3 -90 169
-309 319 -406 40 -25 75 -50 78 -55 11 -19 -36 -281 -51 -281 -2 0 -34 31 -72
68 -78 79 -120 95 -162 64 -50 -38 -86 -146 -105 -316 l-7 -58 -46 6 c-49 7
-115 35 -156 67 l-25 19 25 72 c13 40 46 106 73 148 63 97 67 111 39 136 -67
57 -218 110 -353 122 l-69 7 -38 95 c-21 52 -38 100 -38 106 0 20 72 86 116
104 23 10 68 23 100 29 70 13 86 25 78 60 -12 52 -84 159 -146 217 -111 103
-316 191 -454 194 -12 0 -32 17 -53 46 -26 38 -32 53 -27 79 10 52 74 139 144
195 46 37 60 67 43 98 -17 32 -99 78 -201 114 -93 32 -98 33 -265 33 l-171 0
-102 68 c-115 77 -226 131 -302 149 -57 13 -56 17 20 46 225 88 486 62 685
-68 34 -22 67 -40 73 -40 20 0 29 33 36 127 12 183 74 387 152 500 79 114 215
215 328 242 62 15 185 12 256 -6 50 -12 56 -12 67 3 10 13 9 24 -6 53 -47 92
-64 288 -36 395 26 98 73 174 165 267 105 106 205 159 357 191 128 26 296 21
392 -11 56 -20 66 -20 79 -7 13 13 12 18 -6 44 -49 68 -214 188 -363 262 -170
86 -428 172 -633 211 -184 35 -485 48 -651 28 -38 -5 -90 -11 -115 -14 -153
-19 -376 -79 -536 -146 -270 -112 -477 -244 -617 -394 -66 -71 -70 -84 -63
-215 31 -556 11 -752 -99 -976 -46 -94 -68 -124 -132 -188 -85 -85 -203 -169
-261 -186 -20 -6 -99 -14 -174 -17 l-136 -6 -7 44 c-8 52 9 164 27 187 31 37
133 102 193 122 51 17 83 21 151 18 112 -4 117 2 79 102 -30 80 -105 198 -157
247 -18 17 -60 48 -92 67 l-59 36 2 62 c3 75 16 98 74 132 85 50 153 67 270
67 60 -1 112 -3 117 -6 16 -10 41 26 34 49 -15 51 -57 133 -100 193 -75 105
-201 192 -348 240 l-83 26 -12 56 -12 56 44 40 c86 79 204 126 352 140 90 9
105 22 82 70 -33 70 -147 174 -244 224 -114 58 -259 90 -415 93 -85 1 -100 4
-117 22 l-20 21 64 96 c67 100 168 204 248 254 75 48 57 91 -56 129 -52 18
-171 37 -190 31 -7 -2 -48 -6 -92 -9 -46 -3 -111 -16 -153 -30 -80 -27 -206
-93 -251 -132 -26 -21 -32 -23 -62 -12 -19 6 -35 12 -37 13 -3 3 4 20 119 284
70 161 144 289 268 461 67 94 81 119 76 140 -4 14 -12 28 -18 32 -23 15 -84 7
-170 -22z m133 -26 c0 -4 -15 -25 -33 -48 -19 -23 -58 -77 -89 -122 l-55 -80
-38 33 c-21 18 -62 41 -92 50 -29 9 -50 20 -46 24 25 24 149 84 236 114 107
37 117 39 117 29z m-1342 -86 c-11 -29 -35 -89 -52 -133 -36 -96 -33 -90 -48
-78 -19 15 -96 30 -147 28 l-44 -2 75 72 c75 73 202 165 225 165 9 0 6 -15 -9
-52z m1058 -143 c94 -48 94 -34 10 -196 l-74 -144 -36 42 c-21 24 -63 55 -101
74 -57 28 -72 31 -130 27 -36 -2 -65 -1 -65 3 0 9 162 159 210 194 46 34 118
34 186 0z m-1183 -106 c17 -8 26 -18 23 -28 -3 -9 -17 -66 -31 -127 l-27 -112
-27 14 c-58 29 -155 47 -224 41 -81 -7 -81 -13 -2 108 60 91 94 121 140 127
40 4 113 -7 148 -23z m921 -143 c59 -18 117 -57 151 -102 l26 -34 -20 -54
c-11 -30 -34 -88 -52 -130 l-32 -76 -42 39 c-80 74 -217 128 -324 129 -34 1
-64 1 -67 1 -3 1 29 46 71 100 62 82 84 103 118 115 80 29 108 31 171 12z
m-1026 -143 c57 -27 57 -28 41 -101 l-12 -49 -61 -12 c-51 -10 -244 -71 -310
-97 -18 -7 -19 -4 -12 47 13 102 45 187 79 211 60 43 183 43 275 1z m832 -147
c58 -13 169 -78 209 -121 40 -44 41 -47 36 -98 -6 -50 -6 -51 10 -32 10 11 26
39 36 62 l20 42 57 -21 c138 -53 335 -189 447 -309 69 -75 126 -161 185 -279
136 -271 191 -519 191 -869 1 -260 -12 -367 -81 -676 -51 -233 -55 -259 -55
-375 0 -118 7 -151 49 -217 30 -47 35 -40 15 20 -31 90 -36 85 109 89 70 2
128 3 129 2 2 0 -20 -24 -47 -54 -27 -30 -48 -55 -46 -58 2 -2 51 30 108 70
56 41 132 91 166 113 130 80 251 213 321 352 37 74 76 191 85 253 28 204 31
411 10 742 l-7 97 59 62 c253 265 673 462 1144 536 136 21 467 23 595 4 276
-42 537 -121 749 -228 73 -37 262 -158 273 -176 7 -11 4 -10 -64 26 -122 63
-350 148 -543 201 -173 47 -404 70 -615 62 -185 -8 -215 -11 -385 -41 -179
-33 -396 -107 -590 -202 -146 -72 -160 -81 -240 -162 -150 -151 -171 -219
-176 -556 -6 -449 -21 -549 -103 -722 -52 -107 -102 -174 -231 -309 -120 -126
-172 -199 -201 -281 -22 -66 -22 -63 -9 -63 6 0 10 5 10 10 0 27 80 130 208
269 163 176 219 251 272 364 81 174 98 281 100 617 0 146 3 274 5 285 2 11 4
39 4 63 1 40 2 42 22 31 37 -20 262 -244 349 -348 176 -211 319 -467 404 -723
46 -135 80 -272 67 -266 -3 2 -40 20 -81 41 -309 154 -715 79 -983 -182 -70
-68 -97 -104 -117 -156 -9 -24 6 -13 77 56 88 86 198 173 231 184 33 10 176
-35 287 -90 309 -154 628 -492 849 -902 90 -168 209 -424 273 -588 82 -213
197 -410 289 -497 87 -81 220 -127 332 -114 182 21 342 203 378 428 15 100 7
314 -17 402 -6 22 -13 51 -15 64 -3 12 -20 66 -39 119 -36 98 -91 208 -230
458 -189 340 -240 512 -240 795 1 183 18 275 75 397 153 331 540 565 935 566
123 0 204 -17 300 -62 71 -34 148 -88 141 -100 -3 -5 -34 -14 -68 -20 -251
-49 -412 -131 -552 -283 -185 -199 -232 -479 -126 -745 46 -116 83 -176 256
-423 193 -276 273 -408 346 -571 140 -310 195 -540 197 -829 3 -318 -53 -567
-186 -820 -140 -268 -323 -468 -559 -611 -121 -74 -426 -219 -459 -219 -3 0
-5 22 -5 49 l0 50 -102 89 c-57 48 -152 128 -213 176 l-110 88 -80 -6 c-209
-16 -383 -36 -410 -46 -11 -5 -56 -63 -100 -129 l-80 -122 -38 5 c-21 2 -40 6
-42 8 -2 1 6 37 17 78 59 224 -49 722 -207 960 -44 66 -76 101 -63 69 4 -8 27
-62 52 -122 145 -344 213 -685 172 -868 -47 -211 -145 -276 -696 -464 -196
-67 -293 -116 -414 -208 -99 -74 -122 -80 -145 -32 -12 24 -12 42 -3 98 23
130 105 248 241 345 56 40 31 43 -47 7 -67 -31 -148 -113 -188 -190 -21 -41
-44 -69 -73 -89 -24 -16 -86 -69 -138 -117 -51 -49 -98 -89 -102 -89 -37 0
-52 130 -27 230 23 89 72 171 156 262 39 43 69 78 65 78 -33 0 -132 -77 -175
-136 -28 -40 -70 -72 -208 -158 -58 -36 -77 -29 -68 26 21 129 172 274 375
359 88 37 306 93 436 112 99 15 101 15 160 -9 84 -33 162 -52 247 -59 89 -8
76 5 -37 34 -158 40 -298 109 -454 220 -145 104 -187 142 -266 237 -145 173
-211 371 -214 635 -6 451 198 888 479 1026 293 145 617 80 965 -193 171 -135
254 -232 367 -434 53 -94 58 -94 27 1 -70 214 -222 393 -474 560 -106 70 -263
144 -361 170 -117 32 -300 32 -409 0 -272 -79 -446 -273 -563 -628 -58 -173
-72 -249 -79 -410 -4 -89 -10 -143 -16 -143 -22 0 -134 82 -189 137 l-57 58
37 120 c36 119 37 121 36 295 0 181 -11 263 -56 410 -23 76 -63 165 -90 199
-25 32 -23 25 17 -98 99 -302 115 -550 49 -776 -35 -121 -66 -184 -121 -245
-176 -196 -424 -201 -706 -13 -40 26 -76 47 -80 45 -5 -1 -6 2 -2 7 6 11 -203
194 -249 218 -43 23 -123 11 -195 -27 -37 -20 -93 -66 -147 -120 -48 -49 -92
-86 -100 -83 -7 2 -23 26 -35 51 -18 38 -23 65 -23 137 -1 80 2 95 26 135 31
53 72 93 153 150 l60 42 -43 -6 c-101 -15 -196 -95 -233 -195 -18 -51 -29 -66
-58 -81 -20 -10 -54 -35 -76 -55 -22 -20 -51 -43 -64 -52 -22 -16 -24 -16 -42
8 -64 83 -16 266 106 397 31 34 54 62 51 62 -23 0 -89 -46 -129 -89 -46 -49
-97 -139 -97 -171 0 -22 -106 -92 -133 -88 -19 3 -22 10 -25 56 -6 98 36 204
115 292 80 90 202 157 328 181 176 35 653 -25 850 -106 113 -47 301 -159 335
-200 28 -34 29 -12 1 29 -37 53 -98 107 -166 146 -49 28 -226 100 -276 113
-33 8 -49 63 -49 169 0 87 19 168 61 257 16 35 28 66 25 68 -7 8 -66 -75 -87
-123 -33 -77 -51 -188 -44 -275 l6 -76 -48 8 c-26 4 -87 13 -134 20 l-87 11
-6 37 c-25 150 20 469 103 731 74 234 131 375 286 705 204 436 299 714 311
920 3 55 2 133 -4 173 -11 73 -11 73 23 131 110 187 105 472 -11 703 -18 36
-38 69 -44 73 -14 9 -13 6 19 -82 90 -243 93 -486 8 -648 -56 -107 -222 -247
-357 -302 -119 -48 -299 -86 -565 -119 -22 -3 -106 -16 -186 -30 -263 -43
-400 -98 -544 -219 -109 -91 -152 -114 -237 -122 -110 -10 -226 29 -342 114
l-50 36 40 33 c67 57 151 92 314 130 229 53 282 76 480 215 137 96 219 134
361 169 313 76 343 87 409 151 45 44 85 117 95 175 12 72 13 74 48 68 18 -3
60 -12 93 -20 34 -9 74 -14 90 -12 29 3 29 3 -16 30 -62 37 -116 47 -246 48
-87 0 -114 -3 -124 -15 -11 -13 -8 -15 18 -15 16 0 44 -3 61 -6 31 -7 32 -8
27 -47 -7 -50 -46 -134 -76 -166 -39 -40 -138 -78 -305 -117 -254 -58 -292
-75 -492 -216 -148 -104 -228 -140 -414 -183 -85 -20 -174 -43 -197 -52 -65
-23 -179 -103 -252 -177 -35 -36 -71 -66 -79 -66 -31 0 -181 82 -235 128 -107
91 -209 249 -256 397 -28 88 -39 285 -21 385 16 90 57 155 114 180 71 33 94
28 181 -34 25 -18 28 -18 133 2 129 24 128 24 458 62 189 21 285 36 350 56
110 33 129 47 59 42 l-51 -3 38 43 c73 84 95 209 54 307 l-13 32 49 6 c39 5
57 2 82 -13 18 -11 46 -20 63 -20 l31 0 -18 -52 c-22 -65 -24 -158 -4 -225 20
-67 86 -139 161 -178 52 -26 69 -30 144 -30 101 0 171 27 243 94 126 116 122
335 -7 475 l-24 25 31 6 c18 3 50 6 72 8 l40 3 -37 17 c-76 35 -141 25 -503
-75 -177 -49 -248 23 -200 202 8 30 12 56 10 58 -8 8 -65 -92 -71 -125 -4 -19
-4 -52 -1 -73 l5 -39 -43 -7 c-54 -8 -125 7 -224 47 -96 39 -127 49 -171 55
l-35 5 38 -27 38 -28 -29 -29 c-35 -34 -53 -32 -102 16 -120 116 -51 262 130
275 77 5 183 -12 248 -40 56 -23 70 -23 47 2 -30 33 -77 58 -136 73 l-54 14
73 37 c83 42 202 75 382 107 98 18 166 23 315 23 183 1 190 0 191 -19 1 -11 2
-24 3 -28 1 -5 25 17 55 48 l54 58 84 -6 c45 -3 94 -8 108 -11z m1058 -1 c35
-8 72 -20 83 -26 19 -10 17 -12 -18 -36 -82 -54 -211 -200 -273 -309 l-23 -40
-46 45 c-65 63 -185 151 -256 186 -33 17 -62 31 -64 33 -21 12 216 128 299
146 86 19 220 19 298 1z m152 -556 c132 -31 238 -87 326 -173 41 -40 74 -78
74 -85 0 -7 -20 -11 -53 -11 -106 0 -270 -63 -357 -137 -22 -19 -42 -34 -43
-32 -1 2 -13 36 -26 74 -32 94 -109 257 -154 327 -24 38 -33 58 -24 61 26 9
176 -5 257 -24z m-2420 -35 c52 -20 102 -39 110 -43 25 -13 53 -114 46 -166
-7 -44 -26 -64 -26 -26 0 34 -38 71 -74 71 -59 0 -96 -66 -82 -145 8 -39 56
-78 84 -67 29 11 3 -15 -32 -32 -42 -20 -128 -21 -164 -2 -69 36 -105 106
-105 202 1 55 6 80 27 120 34 65 87 122 116 124 2 0 47 -16 100 -36z m870 -11
c78 -89 95 -128 95 -218 -1 -141 -62 -220 -205 -266 -63 -21 -75 -22 -118 -10
-115 30 -187 91 -218 184 -21 64 -14 151 18 215 22 45 26 48 98 70 110 33 253
71 272 72 9 0 35 -21 58 -47z m4210 -238 c167 -21 280 -46 430 -94 106 -35
324 -122 317 -127 -1 -1 -38 -4 -82 -8 -304 -25 -551 -179 -654 -407 -16 -35
-34 -88 -40 -117 -15 -73 -14 -216 3 -279 8 -29 10 -53 5 -53 -5 0 -9 4 -9 8
0 16 -158 169 -231 223 -154 117 -388 235 -597 303 -194 62 -478 116 -619 116
-40 0 -73 4 -73 9 0 14 94 98 152 134 221 141 595 262 915 296 131 14 352 12
483 -4z m-2555 -409 c129 -46 260 -163 328 -293 l37 -71 -88 3 c-124 4 -235
-24 -307 -80 l-32 -24 -6 162 c-6 150 -19 276 -33 320 -7 21 -5 21 101 -17z
m1285 -100 c296 -49 619 -160 825 -284 103 -61 237 -167 327 -259 l86 -88 -82
3 c-109 5 -180 -11 -278 -61 -199 -102 -347 -341 -387 -625 -8 -61 -9 -60 -37
38 -65 237 -215 548 -350 730 -126 169 -285 337 -407 429 -31 24 -57 49 -57
57 0 7 8 30 18 50 l17 37 120 -6 c66 -4 158 -13 205 -21z m-2033 -471 c-5 -85
-17 -157 -42 -261 -7 -30 -133 -89 -254 -121 -140 -36 -288 -41 -415 -14 -112
23 -213 67 -208 91 2 8 9 43 14 77 l11 62 46 6 c132 18 340 58 394 75 33 11
65 20 71 20 6 0 53 21 105 46 99 47 198 113 241 159 l25 26 8 -33 c5 -18 7
-78 4 -133z m794 -255 c48 -48 76 -88 107 -150 23 -47 42 -90 42 -96 0 -6 -23
-9 -59 -6 -78 6 -176 -24 -259 -78 -35 -22 -64 -40 -66 -40 -1 0 10 51 25 113
16 61 38 162 50 222 11 61 23 116 25 123 6 21 60 -14 135 -88z m-875 -132
c-19 -62 -104 -275 -132 -330 -21 -41 -34 -53 -92 -82 -122 -62 -278 -97 -428
-97 -209 0 -363 74 -394 192 -11 39 -10 42 27 86 75 89 95 119 131 189 l35 71
57 -28 c88 -43 262 -73 385 -66 109 7 256 40 350 80 33 13 63 25 67 26 4 0 1
-18 -6 -41z m-1029 -430 c43 -46 154 -94 252 -109 161 -23 384 8 536 75 52 24
56 24 50 6 -6 -18 -161 -355 -188 -408 -21 -42 -186 -111 -311 -130 -147 -23
-350 -10 -476 29 -154 48 -309 180 -310 264 0 13 66 85 187 205 l188 185 22
-43 c11 -24 34 -58 50 -74z m4499 -38 l31 -11 6 -157 c3 -86 9 -168 13 -181 5
-17 -4 -11 -38 25 -63 69 -107 137 -129 200 -18 50 -26 134 -14 146 7 6 91 -7
131 -22z m-4958 -319 c53 -95 195 -189 349 -233 68 -19 103 -22 268 -22 171
-1 198 1 270 23 44 12 102 34 130 47 27 13 51 22 52 20 2 -2 -19 -65 -47 -140
-28 -75 -64 -187 -81 -249 -16 -61 -34 -114 -38 -117 -194 -135 -406 -199
-620 -187 -201 12 -361 59 -474 140 -96 69 -150 144 -162 227 -5 39 -1 55 29
118 60 122 263 410 292 411 6 1 20 -17 32 -38z m4032 -116 c91 -11 290 -94
290 -121 0 -3 -23 -26 -50 -51 -57 -51 -106 -117 -116 -156 -3 -15 -12 -27
-18 -27 -7 0 -37 30 -67 67 -30 37 -105 117 -168 179 l-113 113 33 3 c45 4
141 1 209 -7z m1062 -264 c20 -7 35 -28 56 -73 16 -35 48 -96 71 -137 23 -41
40 -76 37 -78 -6 -6 -122 44 -182 78 -61 34 -184 161 -184 189 0 13 9 22 28
26 15 3 32 8 37 10 16 6 108 -4 137 -15z m-5435 -251 c123 -178 417 -286 722
-267 164 11 367 72 471 142 46 31 50 32 45 12 -28 -127 -38 -220 -39 -352 l-1
-150 -108 4 c-245 8 -440 -55 -579 -187 l-57 -54 -58 5 c-32 4 -74 6 -93 7
-34 0 -36 3 -60 63 -33 82 -112 212 -158 261 -51 53 -144 112 -208 133 -30 9
-54 21 -54 27 0 61 58 301 96 400 l27 68 12 -34 c6 -19 25 -54 42 -78z m4695
-65 c145 -34 263 -98 344 -188 41 -46 104 -141 104 -158 0 -3 -25 -11 -54 -17
-72 -15 -146 -53 -182 -94 l-29 -33 -61 125 c-33 69 -91 180 -127 246 -37 67
-67 124 -67 128 0 8 0 8 72 -9z m1039 -342 l67 -6 26 -86 c31 -105 59 -242 54
-272 -3 -20 -9 -17 -78 38 -41 32 -95 82 -119 109 -57 64 -141 194 -141 218 0
17 5 18 63 12 34 -4 92 -10 128 -13z m-5887 -19 c132 -41 266 -178 343 -352
l24 -54 -124 7 c-102 6 -129 5 -154 -8 -44 -23 -109 -114 -148 -205 -41 -98
-56 -122 -74 -122 -20 0 -87 73 -112 121 -25 50 -35 159 -20 216 16 60 81 150
131 184 49 33 36 38 -26 10 -92 -42 -152 -145 -161 -276 -3 -38 -11 -77 -18
-85 -7 -8 -25 -39 -39 -67 -14 -29 -37 -60 -51 -69 -21 -14 -27 -14 -45 -1
-59 41 -109 153 -110 244 0 53 36 133 95 210 60 79 49 86 -29 20 -68 -57 -96
-112 -103 -201 -5 -71 -7 -76 -33 -85 -15 -5 -47 -23 -70 -40 -53 -38 -68 -39
-81 -4 -28 75 31 241 118 334 173 186 483 286 687 223z m5276 -449 c100 -22
204 -61 225 -85 17 -18 16 -21 -14 -58 -28 -36 -59 -95 -102 -190 l-15 -34
-47 64 c-49 65 -167 287 -167 314 0 16 -3 16 120 -11z m-4870 -15 c58 -5 120
-9 139 -10 37 0 37 6 3 -88 -11 -29 -21 -55 -24 -57 -3 -3 -56 -1 -119 4 -63
6 -150 13 -194 16 -132 9 -195 17 -195 26 0 11 46 87 69 113 17 20 67 19 321
-4z m-1264 -19 c-3 -4 -1 -35 4 -69 10 -58 9 -63 -20 -108 -30 -48 -69 -143
-91 -224 -19 -67 -16 -242 5 -320 21 -79 67 -171 111 -225 l33 -41 -51 -19
c-29 -11 -55 -21 -58 -23 -10 -5 -97 131 -128 198 -52 117 -65 175 -65 300 1
134 27 232 91 338 45 74 149 202 164 202 5 0 8 -4 5 -9z m248 -115 c31 -80
115 -166 162 -166 33 0 77 42 104 99 13 28 27 48 30 44 12 -13 57 -154 69
-211 22 -105 8 -240 -40 -386 -30 -93 -23 -110 16 -36 19 36 34 73 35 82 0 9
4 19 9 22 7 5 376 -29 546 -49 38 -5 379 -40 475 -50 25 -2 110 -11 190 -20
80 -8 163 -16 185 -18 36 -3 40 -6 37 -28 -3 -21 -20 -117 -63 -357 l-12 -63
-19 43 c-10 23 -27 51 -36 61 -26 29 -86 57 -137 64 -25 3 -45 11 -45 17 0 25
-63 86 -113 110 -61 29 -106 36 -171 26 -47 -7 -49 -6 -90 34 -23 24 -59 47
-82 54 -57 17 -147 15 -191 -3 -36 -15 -37 -15 -68 15 -93 90 -272 91 -375 2
l-41 -34 -42 16 c-23 9 -74 18 -113 21 -135 10 -243 -28 -303 -106 -51 -68
-55 -68 -106 2 -91 123 -129 236 -129 379 -1 121 14 179 76 313 37 77 44 87
68 87 15 0 53 18 86 39 32 22 62 40 65 40 4 1 14 -19 23 -43z m6498 -86 c38
-39 68 -77 68 -85 0 -21 -109 -134 -149 -155 -20 -10 -53 -22 -73 -28 -44 -12
-42 -20 -28 101 16 138 57 237 99 237 9 0 46 -32 83 -70z m-5642 30 c58 -5
141 -12 185 -16 90 -7 96 -9 89 -28 -9 -23 15 -94 38 -116 12 -11 30 -20 40
-20 24 0 76 26 106 53 l22 20 0 -44 c0 -25 8 -61 19 -82 l19 -37 -22 5 c-11 2
-82 9 -156 15 -74 6 -169 15 -210 20 -41 5 -102 11 -135 14 -96 8 -377 36
-411 41 -26 4 -33 12 -42 44 -16 53 -16 54 16 32 48 -35 77 -36 111 -4 16 16
39 51 51 77 l20 48 78 -6 c42 -4 124 -11 182 -16z m780 -199 c0 -16 3 -43 7
-61 l6 -33 -59 6 c-32 4 -69 6 -81 7 -20 0 -18 4 20 38 46 43 87 72 99 72 5 0
8 -13 8 -29z m513 13 c-1 -5 -20 -117 -43 -249 -23 -132 -52 -298 -65 -370
-13 -71 -33 -191 -45 -265 -12 -74 -23 -141 -25 -148 -3 -8 -24 3 -60 32 -30
25 -73 51 -95 57 -23 7 -39 17 -37 23 2 6 37 193 77 416 64 357 76 408 96 431
14 14 22 28 19 32 -3 4 -2 5 1 2 4 -2 25 5 48 17 61 32 133 44 129 22z m-1598
-44 c61 -5 130 -12 155 -15 25 -3 189 -19 365 -35 176 -17 380 -37 453 -44
l133 -13 33 -37 c48 -52 93 -48 160 13 l28 26 -5 -30 c-3 -16 -13 -73 -23
-125 -9 -52 -20 -98 -23 -101 -3 -4 -58 -1 -121 7 -107 12 -196 21 -710 74
-107 11 -208 22 -225 25 -16 2 -108 12 -203 21 -149 15 -172 20 -166 33 5 12
12 124 14 218 0 1 6 0 13 -2 6 -2 62 -9 122 -15z m1721 -37 c170 -140 182
-153 193 -205 27 -124 2 -293 -61 -410 -62 -117 -181 -222 -310 -275 -33 -13
-62 -22 -65 -19 -8 7 158 966 167 966 3 0 37 -26 76 -57z m1219 -212 l29 -22
-34 -67 c-169 -325 -502 -533 -897 -558 l-103 -7 54 80 c81 121 126 256 142
426 6 58 9 67 24 62 54 -17 163 -35 215 -35 144 0 335 115 392 235 l17 35 65
-63 c36 -34 79 -73 96 -86z m-887 -38 c30 -16 32 -20 32 -67 0 -53 -22 -186
-41 -246 -19 -58 -76 -167 -118 -223 -98 -134 -299 -265 -445 -293 l-39 -7 7
49 c9 57 9 58 60 74 146 47 304 177 379 311 57 102 80 209 75 346 l-4 113 30
-21 c17 -11 46 -27 64 -36z m994 -30 c11 -3 20 -19 23 -42 25 -161 70 -296
136 -405 l37 -61 -32 -44 c-79 -110 -201 -207 -320 -254 -102 -41 -130 -47
-227 -53 -199 -13 -421 57 -639 203 l-65 43 76 0 c111 0 234 25 355 70 275
105 453 256 569 483 30 57 44 75 55 71 8 -3 23 -9 32 -11z m-2930 -104 c52
-11 97 -45 123 -93 10 -17 13 -17 49 8 52 35 139 36 211 2 65 -30 80 -48 65
-76 -19 -35 1 -43 51 -21 114 52 245 7 301 -102 12 -25 21 -29 60 -32 64 -4
123 -40 154 -93 25 -42 25 -44 8 -63 -9 -10 -15 -21 -12 -24 2 -3 29 -9 58
-15 57 -11 119 -38 158 -68 l24 -18 -49 -17 c-26 -9 -256 -85 -509 -171 -417
-139 -465 -154 -500 -146 -62 14 -1087 192 -1294 225 -177 28 -455 77 -459 81
-2 2 5 7 15 10 10 4 49 20 86 35 36 16 69 29 72 29 3 0 6 -15 6 -33 0 -18 6
-41 13 -51 12 -17 15 -14 26 30 25 96 43 133 81 168 51 46 105 60 208 53 45
-3 82 -1 82 3 0 11 -28 33 -57 45 -24 10 -24 10 25 47 66 51 113 69 184 71
l61 1 30 49 c35 58 95 92 188 106 80 13 152 6 205 -19 51 -25 51 -25 80 9 27
32 81 61 134 72 52 10 64 10 122 -2z m3399 -672 c41 -29 93 -65 116 -78 24
-13 43 -26 43 -29 0 -3 -62 -20 -137 -38 -76 -17 -171 -41 -212 -52 -109 -29
-319 -18 -566 31 -54 11 -105 24 -112 28 -7 4 26 13 74 20 201 29 389 141 509
303 l35 47 89 -88 c48 -49 121 -114 161 -144z m-1538 84 c127 -92 282 -162
502 -225 273 -77 362 -95 620 -122 l59 -6 -32 -14 c-50 -21 -156 -100 -201
-150 -49 -55 -99 -156 -102 -204 -2 -67 1 -80 27 -96 24 -16 28 -16 72 5 26
13 66 36 90 52 24 16 47 29 51 29 4 0 2 -24 -6 -52 -21 -79 -14 -219 13 -255
36 -48 79 -44 134 12 45 45 172 155 179 155 3 0 6 -29 7 -64 1 -90 26 -130 81
-134 35 -3 49 3 106 47 108 83 225 143 387 200 489 171 562 204 660 299 62 60
67 63 102 57 l38 -7 -29 -41 c-16 -23 -48 -79 -71 -124 l-43 -82 92 -308 c51
-169 99 -317 106 -329 7 -11 58 -70 112 -130 61 -67 97 -115 95 -126 -3 -15 4
-16 66 -11 61 5 76 3 128 -21 32 -15 69 -36 81 -48 l22 -20 76 51 c96 64 166
85 254 78 36 -3 88 -13 116 -21 27 -9 53 -12 57 -8 16 16 -43 56 -106 71 l-64
16 109 115 c61 63 112 124 114 135 7 33 14 287 15 477 l0 177 33 9 c65 17 219
-4 292 -40 62 -31 142 -97 166 -135 12 -19 27 -53 34 -76 l12 -41 79 -13 c160
-26 270 -111 268 -206 -1 -23 -5 -54 -9 -68 -6 -25 -4 -27 82 -57 48 -18 110
-49 138 -70 94 -72 139 -187 100 -261 -32 -63 -164 -102 -300 -90 -76 7 -95
-2 -95 -47 0 -28 -42 -79 -90 -109 -78 -49 -254 -99 -425 -120 -76 -9 -268
-12 -384 -6 -56 3 -106 4 -111 1 -4 -3 -10 -15 -14 -26 -13 -41 -88 -103 -162
-134 -148 -62 -319 -91 -564 -96 -178 -3 -320 11 -505 51 -38 9 -99 21 -134
27 l-63 12 -30 -37 c-41 -51 -90 -74 -200 -93 -145 -25 -360 -8 -578 45 -95
24 -90 24 -105 -14 -18 -40 -60 -65 -155 -90 -321 -83 -808 -79 -1205 10 -117
26 -155 43 -190 88 l-27 33 -111 -18 c-315 -50 -620 -26 -783 61 -55 29 -68
41 -88 79 -9 17 -22 32 -29 32 -6 0 -66 -14 -132 -30 -242 -61 -450 -80 -652
-61 -196 19 -317 60 -367 123 l-25 33 -223 1 c-204 2 -231 4 -321 27 -164 43
-254 95 -293 169 -8 15 -14 54 -14 87 0 69 12 61 -124 80 -111 16 -150 29
-195 68 -50 42 -68 91 -52 144 17 55 93 126 181 168 69 33 82 36 165 36 92 -1
163 -22 207 -62 16 -14 23 -14 82 2 126 34 263 0 347 -87 l38 -39 32 16 c46
24 176 22 259 -4 38 -12 89 -39 125 -66 64 -48 74 -52 93 -33 18 18 156 15
222 -5 30 -9 76 -29 101 -45 l46 -29 89 43 c102 49 225 84 296 84 36 0 48 4
48 15 0 27 80 104 137 131 36 18 74 28 111 30 54 2 58 4 74 36 9 18 30 46 47
62 32 31 120 66 155 61 12 -1 42 -6 68 -10 l47 -7 -6 35 c-3 20 -2 60 1 90 7
50 10 56 39 68 18 8 54 14 80 14 l48 0 -27 24 c-23 19 -36 22 -75 19 l-47 -5
4 31 c3 17 20 145 39 284 24 185 38 259 50 272 9 10 17 32 17 48 1 29 4 32 86
57 121 38 197 76 288 145 44 32 80 59 82 60 2 0 40 -27 85 -59z m-578 -113
c-8 -86 -13 -108 -26 -108 -5 0 -85 -30 -177 -66 -92 -37 -189 -74 -217 -84
-27 -10 -162 -62 -300 -115 -137 -53 -263 -101 -278 -105 l-28 -9 3 107 3 106
40 12 c84 26 958 324 963 329 18 18 23 -2 17 -67z m-2545 -24 c184 -30 360
-59 390 -64 30 -5 150 -25 265 -45 116 -20 237 -41 270 -46 104 -17 494 -88
520 -95 25 -6 25 -7 25 -110 0 -103 0 -104 -22 -99 -13 2 -102 20 -198 39
-175 35 -329 66 -427 87 -40 8 -53 15 -53 28 0 10 -6 23 -12 29 -7 6 -111 27
-232 46 -227 38 -246 38 -246 -4 0 -20 21 -23 -260 35 -250 51 -360 77 -365
85 -2 3 -7 35 -10 71 -3 35 -8 74 -10 86 -4 16 -1 20 13 17 9 -2 168 -29 352
-60z m6547 -48 c-3 -7 -20 -65 -38 -129 l-32 -116 -51 -5 c-28 -3 -78 -7 -110
-8 l-59 -3 -37 115 c-21 63 -35 118 -33 123 2 4 28 7 56 8 29 0 102 7 162 13
153 18 148 18 142 2z m174 -89 c137 -109 235 -195 229 -199 -23 -15 -238 -118
-246 -118 -6 0 -46 32 -90 71 -43 40 -83 75 -87 79 -8 7 62 260 72 260 3 0 58
-42 122 -93z m-544 -73 l42 -125 -82 -123 c-78 -117 -84 -123 -112 -120 -16 2
-65 6 -107 10 -43 3 -78 10 -78 14 0 12 110 190 203 330 42 63 77 121 77 127
0 39 20 -1 57 -113z m-3702 -125 c-29 -220 -62 -468 -70 -517 -6 -32 -7 -32
-54 -31 -26 1 -53 -1 -59 -5 -8 -5 -10 5 -7 36 3 24 12 115 20 203 36 375 45
449 57 457 7 4 36 15 63 24 28 9 54 20 59 25 5 5 11 7 13 6 1 -2 -9 -91 -22
-198z m-2688 139 c50 -9 67 -17 74 -32 4 -12 20 -102 34 -201 14 -99 30 -207
35 -240 5 -33 17 -112 25 -175 8 -63 17 -128 20 -144 4 -24 2 -27 -13 -21 -9
5 -44 13 -77 19 l-59 12 -18 114 c-10 63 -27 174 -38 245 -11 72 -29 189 -40
260 -11 72 -23 140 -25 153 -6 26 -4 26 82 10z m303 -63 c58 -13 124 -26 146
-30 l42 -6 6 -71 c4 -38 6 -71 4 -73 -2 -1 -64 10 -138 25 -74 15 -151 30
-171 34 -40 7 -43 12 -55 104 l-7 52 34 -6 c19 -3 81 -16 139 -29z m2206 -52
c-9 -116 -16 -153 -29 -153 -11 0 -346 -106 -457 -145 -36 -12 -77 -25 -92
-29 -25 -6 -27 -4 -24 16 3 13 5 57 5 98 l1 76 38 13 c20 8 141 54 267 104
224 87 271 104 289 106 5 1 6 -37 2 -86z m-1747 32 c84 -14 157 -25 162 -25
10 0 11 -306 2 -345 -5 -22 -154 -145 -175 -145 -7 0 -40 24 -72 53 -125 109
-114 90 -120 202 -6 95 -9 128 -21 246 l-6 51 38 -6 c21 -3 107 -17 192 -31z
m6021 -122 c39 -36 79 -73 90 -80 19 -13 20 -26 20 -271 l-1 -257 -57 -61
c-31 -33 -90 -95 -129 -138 l-73 -78 -37 30 c-21 17 -78 68 -126 114 l-88 83
-20 95 c-11 52 -30 154 -43 225 l-23 131 79 109 c42 61 80 117 83 126 5 15 79
27 233 37 15 2 44 -19 92 -65z m-5505 -27 c94 -20 173 -36 178 -36 4 0 7 -41
7 -91 0 -90 0 -91 -22 -85 -13 3 -123 27 -245 53 l-223 47 0 87 0 87 68 -14
c37 -7 144 -29 237 -48z m5923 -253 c-2 -170 -5 -336 -8 -369 l-5 -61 -126 54
-125 54 0 251 1 251 125 63 c69 35 128 63 133 63 4 1 6 -137 5 -306z m-6963
252 c153 -29 267 -58 270 -69 6 -17 14 -97 14 -138 1 -33 7 -43 60 -85 33 -26
59 -48 58 -50 -3 -3 -437 103 -442 109 -2 2 -12 56 -20 118 -9 63 -19 118 -21
122 -6 10 -13 11 81 -7z m1632 -137 c-4 -57 -9 -175 -12 -263 -6 -153 -23
-407 -28 -410 -1 -1 -22 -10 -47 -19 -25 -10 -51 -21 -59 -24 -12 -4 -13 42
-8 299 4 167 7 340 7 384 l0 80 73 27 c39 15 74 27 76 27 2 1 1 -45 -2 -101z
m-252 69 l59 -12 -3 -295 c-2 -162 -5 -311 -6 -330 -2 -19 -4 -65 -4 -101 -1
-60 -3 -67 -31 -87 l-29 -22 -44 30 -44 29 -6 188 c-4 103 -7 286 -7 405 l0
218 27 -6 c16 -3 55 -11 88 -17z m858 -128 c-6 -67 -16 -125 -20 -130 -4 -4
-133 -48 -287 -97 l-278 -90 7 121 c4 67 8 123 10 125 3 3 564 189 575 191 3
1 0 -54 -7 -120z m-1293 -4 c91 -19 191 -40 223 -47 l57 -12 0 -134 0 -134
-32 6 c-45 10 -52 11 -164 36 -171 38 -216 48 -319 70 -55 13 -106 26 -114 30
-9 5 9 25 63 69 l76 62 0 50 c0 46 1 49 23 44 12 -3 96 -21 187 -40z m5035 6
l39 -6 22 -130 c12 -72 31 -170 43 -220 11 -49 19 -90 18 -91 -15 -15 -130
-95 -132 -92 -4 5 -64 203 -97 318 -16 58 -38 132 -49 164 -10 33 -19 63 -19
68 0 9 95 3 175 -11z m-5805 -142 c96 -23 193 -45 215 -50 22 -4 61 -15 85
-23 25 -9 54 -16 65 -16 11 0 169 -32 351 -72 l332 -72 6 -60 c3 -32 6 -94 6
-137 l0 -79 -26 10 c-51 20 -157 23 -204 6 -37 -13 -46 -13 -52 -2 -13 23
-101 75 -164 97 -68 24 -230 30 -277 11 -26 -11 -31 -10 -48 13 -11 13 -54 41
-96 62 -70 35 -82 37 -162 37 -47 -1 -103 -6 -125 -14 -60 -19 -69 -3 -95 175
-25 179 -25 168 -3 161 9 -3 96 -24 192 -47z m2043 -80 c-4 -34 -16 -51 -78
-113 -64 -64 -79 -74 -119 -79 -89 -12 -197 -80 -247 -154 -11 -15 -29 -23
-69 -28 -30 -4 -59 -9 -63 -12 -4 -2 -6 6 -3 19 3 12 8 68 11 123 3 66 10 102
18 105 48 18 534 178 543 179 7 1 10 -13 7 -40z m4572 -247 c39 -16 87 -37
109 -47 l39 -16 -114 -117 c-103 -106 -119 -118 -171 -133 -68 -20 -149 -63
-179 -95 l-21 -23 -33 39 c-30 35 -32 44 -28 92 3 46 9 57 37 81 19 15 82 81
140 147 95 106 109 118 129 110 12 -4 54 -22 92 -38z m-642 -36 c7 -8 58 -53
113 -101 54 -48 99 -92 99 -98 0 -7 -4 -38 -9 -70 -7 -48 -11 -57 -25 -51 -9
4 -42 9 -74 12 l-57 4 -93 102 c-50 55 -96 104 -102 108 -11 8 -11 9 63 67 60
46 64 47 85 27z"/>
<path d="M3428 8628 c-171 -36 -230 -53 -259 -78 -21 -17 -22 -19 -5 -20 10 0
110 16 222 35 112 19 226 35 253 35 60 0 131 -25 195 -68 64 -43 60 -17 -7 51
-84 87 -158 95 -399 45z"/>
<path d="M2512 7698 c-60 -10 -145 -61 -186 -112 -41 -49 -75 -120 -76 -155 0
-19 8 -12 39 36 52 80 106 131 169 159 113 51 219 14 251 -86 15 -50 21 -157
10 -214 -12 -65 -4 -70 21 -12 44 98 35 255 -17 317 -46 55 -130 82 -211 67z"/>
<path d="M1656 7628 c-15 -23 -35 -98 -36 -132 0 -17 1 -17 25 -2 13 9 38 16
54 16 31 0 39 -14 57 -100 6 -30 8 -32 15 -15 4 11 8 41 8 66 2 126 -78 235
-123 167z m67 -58 c4 -16 0 -20 -19 -20 -26 0 -27 1 -18 24 9 22 31 20 37 -4z"/>
<path d="M2486 7509 c-51 -44 -102 -118 -115 -163 -6 -22 -9 -41 -7 -43 2 -2
21 21 44 50 43 58 87 83 127 73 35 -9 44 -33 35 -91 -4 -27 -6 -52 -5 -53 2
-2 14 16 26 40 13 26 24 69 27 109 4 58 2 69 -17 88 -31 31 -73 27 -115 -10z
m81 -45 c-3 -4 -19 -3 -34 1 -27 6 -27 7 -8 21 17 12 21 12 34 -1 8 -8 12 -17
8 -21z"/>
<path d="M3443 8120 c-45 -18 -67 -106 -40 -160 16 -32 71 -51 109 -38 72 25
93 124 39 179 -30 30 -65 36 -108 19z"/>
<path d="M2439 3347 c-62 -41 -50 -114 24 -148 118 -53 260 17 201 99 -11 15
-40 37 -64 50 -58 29 -117 29 -161 -1z m151 -46 c45 -23 51 -56 15 -73 -20 -9
-39 -9 -82 0 -62 13 -83 26 -83 53 0 40 90 53 150 20z"/>
<path d="M1926 3258 c-116 -25 -174 -125 -106 -182 55 -46 163 -44 251 6 61
34 80 92 46 136 -30 38 -118 56 -191 40z m138 -48 c50 -19 22 -83 -47 -109
-70 -27 -187 -3 -187 39 0 19 39 52 81 69 32 13 121 13 153 1z"/>
<path d="M3003 3214 c-84 -36 -66 -142 32 -179 64 -25 166 -17 200 15 56 52
16 137 -78 165 -61 18 -111 18 -154 -1z m187 -59 c73 -38 31 -95 -69 -95 -47
1 -116 32 -131 60 -32 61 104 84 200 35z"/>
<path d="M1413 3045 c-64 -28 -95 -120 -50 -149 59 -38 152 -27 212 25 72 63
28 139 -80 139 -27 -1 -65 -7 -82 -15z m132 -35 c64 -24 -11 -94 -102 -95 -81
0 -83 42 -3 83 49 25 67 27 105 12z"/>
<path d="M2543 2981 c-38 -18 -71 -59 -68 -86 4 -34 21 -58 58 -79 60 -34 126
-41 193 -20 95 30 120 90 61 149 -56 56 -165 72 -244 36z m204 -58 c38 -28 36
-54 -7 -76 -68 -35 -210 -3 -210 47 0 42 33 56 127 52 45 -1 71 -8 90 -23z"/>
<path d="M4027 2713 c-66 -19 -73 -38 -12 -30 26 4 63 7 81 7 22 0 34 5 34 14
0 20 -51 24 -103 9z"/>
<path d="M4203 2639 c-90 -35 -115 -91 -68 -147 66 -78 274 -59 324 30 14 24
14 30 -2 63 -32 67 -156 93 -254 54z m170 -38 c13 -5 32 -17 41 -26 16 -17 16
-19 -5 -41 -42 -45 -155 -58 -219 -26 -50 24 -47 51 10 79 48 24 130 30 173
14z"/>
<path d="M4695 2479 c-45 -26 -65 -53 -65 -86 0 -48 14 -70 62 -94 92 -47 222
-31 248 31 35 85 -31 153 -154 158 -41 1 -79 -2 -91 -9z m162 -49 c52 -23 75
-62 51 -86 -22 -23 -75 -31 -133 -22 -60 9 -99 36 -103 71 -6 53 102 75 185
37z"/>
<path d="M3864 2330 c-32 -7 -108 -49 -102 -56 2 -1 24 2 48 7 54 12 133 7
177 -11 18 -8 35 -11 39 -7 12 12 -38 57 -75 67 -40 11 -43 11 -87 0z"/>
<path d="M4295 2109 c-83 -11 -208 -45 -250 -67 -62 -34 -85 -63 -85 -107 0
-58 35 -178 77 -263 42 -85 125 -175 201 -218 50 -28 51 -30 58 -84 13 -107
16 -100 -52 -121 -74 -23 -153 -74 -174 -111 -13 -25 -13 -31 0 -55 35 -65
163 -98 345 -90 102 4 133 9 206 36 87 32 159 84 159 114 0 33 -101 102 -187
127 l-43 13 0 76 0 76 35 19 c41 22 123 104 161 159 60 89 114 251 114 344 0
118 -267 190 -565 152z m330 -54 c80 -15 185 -57 185 -73 0 -14 -66 -38 -151
-56 -122 -25 -158 -28 -300 -28 -138 0 -260 21 -327 56 l-26 14 50 25 c135 68
391 96 569 62z m168 -202 c-21 -95 -84 -221 -142 -285 -67 -74 -126 -102 -224
-106 -71 -4 -84 -1 -140 26 -96 48 -181 140 -225 247 -26 61 -56 165 -49 171
2 2 21 -3 42 -12 66 -27 183 -44 310 -44 146 0 248 13 353 44 42 13 80 24 84
25 3 0 -1 -29 -9 -66z m-357 -447 c12 1 34 4 49 8 l27 7 -4 -117 c-4 -115 -4
-116 15 -93 17 22 21 22 65 10 26 -7 69 -26 96 -44 l49 -31 -34 -28 c-54 -46
-146 -70 -286 -76 -133 -5 -254 14 -294 46 -20 17 -20 18 -2 39 35 41 196 112
208 92 4 -5 11 -9 16 -9 7 0 8 36 3 104 l-7 104 39 -7 c22 -4 49 -6 60 -5z"/>
<path d="M6498 1949 c-85 -12 -168 -59 -168 -94 0 -2 33 8 73 22 52 18 101 27
175 30 78 4 102 9 102 20 0 7 -6 15 -12 18 -32 9 -118 12 -170 4z"/>
<path d="M8560 1910 c-38 -9 -80 -51 -80 -79 0 -38 44 -85 95 -103 116 -40
266 -9 273 55 3 23 -5 37 -37 67 -57 54 -169 81 -251 60z m152 -50 c21 -6 51
-22 68 -37 38 -32 29 -47 -40 -63 -86 -21 -190 7 -212 56 -10 20 -8 27 8 39
23 17 122 20 176 5z"/>
<path d="M5035 1864 c-21 -7 -44 -19 -51 -26 -11 -11 0 -13 64 -13 59 0 84 -5
106 -20 l29 -19 -17 31 c-26 51 -72 68 -131 47z"/>
<path d="M6520 1724 c-19 -20 -86 -82 -148 -137 -103 -91 -112 -101 -97 -116
13 -13 41 -15 173 -14 277 4 302 10 382 94 55 58 85 117 76 153 -5 22 -13 25
-64 31 -31 3 -90 10 -130 15 -130 18 -152 14 -192 -26z m226 -26 c63 -6 114
-16 114 -20 0 -28 -88 -131 -130 -153 -30 -16 -155 -23 -155 -9 1 23 17 151
22 172 6 26 2 25 149 10z m-202 -50 c-2 -18 -6 -46 -8 -63 -3 -16 -5 -42 -5
-57 l-1 -28 -92 0 -93 1 35 27 c19 15 64 55 100 89 36 35 66 63 67 63 1 0 0
-15 -3 -32z"/>
<path d="M5663 1620 c-141 -21 -205 -121 -132 -205 83 -94 323 -85 374 15 60
115 -69 216 -242 190z m156 -63 c13 -7 33 -24 45 -39 60 -82 -84 -148 -233
-108 -93 25 -121 94 -54 132 60 36 184 43 242 15z"/>
<path d="M3609 1601 c-43 -9 -105 -45 -113 -67 -22 -57 21 -106 109 -124 134
-28 283 40 255 116 -24 62 -139 97 -251 75z m188 -67 c15 -12 28 -25 28 -30 0
-5 -18 -18 -40 -28 -54 -27 -189 -29 -228 -3 -67 44 7 88 140 84 55 -2 79 -7
100 -23z"/>
<path d="M8416 1563 c-53 -16 -80 -49 -79 -98 2 -77 81 -128 198 -129 102 0
165 40 165 105 0 84 -168 156 -284 122z m179 -62 c22 -10 46 -25 53 -34 53
-63 -101 -115 -203 -68 -81 37 -94 84 -32 115 38 20 120 14 182 -13z"/>
<path d="M5087 1465 c-39 -13 -84 -46 -105 -76 -18 -26 -8 -37 15 -17 54 48
144 66 216 44 53 -16 59 -6 15 27 -36 27 -99 37 -141 22z"/>
<path d="M1551 1409 c-50 -10 -108 -50 -121 -85 -25 -64 46 -114 160 -114 104
0 180 46 180 108 0 32 -48 78 -96 91 -44 12 -61 12 -123 0z m126 -50 c77 -29
74 -67 -8 -94 -84 -28 -199 -7 -199 36 0 50 131 87 207 58z"/>
<path d="M3053 1350 c-18 -4 -49 -19 -68 -34 -61 -47 -59 -113 5 -150 52 -31
217 -30 277 2 97 51 97 129 -1 173 -43 20 -150 24 -213 9z m206 -55 c16 -8 32
-19 35 -24 22 -35 -61 -83 -151 -87 -67 -3 -117 9 -152 35 l-22 17 21 27 c42
54 193 72 269 32z"/>
<path d="M6628 1269 c-54 -15 -92 -63 -84 -107 7 -44 22 -61 71 -83 123 -55
279 -20 301 67 21 83 -159 159 -288 123z m198 -61 c50 -27 60 -45 39 -68 -61
-67 -274 -43 -283 33 -2 18 3 29 20 38 53 29 165 27 224 -3z"/>
<path d="M2310 1209 c-26 -11 -70 -48 -70 -60 0 -3 17 -1 38 7 56 20 153 17
223 -6 34 -12 64 -19 67 -16 9 10 -20 35 -71 61 -54 27 -138 33 -187 14z"/>
<path d="M5874 1206 c-55 -24 -79 -80 -54 -126 6 -11 30 -31 55 -45 145 -86
342 8 253 120 -46 58 -177 84 -254 51z m183 -55 c48 -22 64 -55 39 -80 -24
-23 -139 -21 -189 3 -88 43 -63 96 47 96 38 0 77 -8 103 -19z"/>
<path d="M5126 1045 c-79 -28 -106 -89 -62 -141 31 -37 83 -54 167 -54 135 1
206 71 147 145 -46 59 -163 82 -252 50z m186 -51 c38 -19 54 -52 36 -70 -23
-24 -126 -38 -174 -25 -43 11 -94 45 -94 62 0 5 15 18 33 29 25 16 47 20 102
19 39 -1 82 -8 97 -15z"/>
<path d="M1670 2445 c-15 -18 -30 -83 -23 -101 3 -8 11 -14 17 -14 8 0 13 -13
13 -32 0 -100 2 -108 27 -108 49 0 56 8 56 70 0 38 4 60 12 62 8 3 12 22 12
48 -1 34 -7 49 -28 67 -31 26 -68 30 -86 8z"/>
</g>
</svg>
