<?xml version="1.0" standalone="no"?>
<!DOCTYPE svg PUBLIC "-//W3C//DTD SVG 20010904//EN"
 "http://www.w3.org/TR/2001/REC-SVG-20010904/DTD/svg10.dtd">
<svg version="1.0" xmlns="http://www.w3.org/2000/svg"
 width="1024.000000pt" height="1024.000000pt" viewBox="0 0 1024.000000 1024.000000"
 preserveAspectRatio="xMidYMid meet">
<metadata>
Created by potrace 1.16, written by Peter Selinger 2001-2019
</metadata>
<g transform="translate(0.000000,1024.000000) scale(0.100000,-0.100000)"
fill="#000000" stroke="none">
<path d="M4409 10223 c-13 -9 -58 -44 -99 -79 -129 -106 -164 -124 -239 -124
-37 0 -102 4 -146 9 -44 5 -170 15 -280 22 -185 11 -203 11 -237 -5 -20 -10
-105 -84 -190 -165 -362 -348 -510 -465 -623 -490 -57 -13 -327 -52 -520 -76
-71 -9 -137 -17 -145 -18 -10 -1 -14 5 -13 21 2 12 1 22 -1 22 -3 0 -42 -37
-88 -82 -102 -102 -277 -263 -308 -285 -38 -27 -157 -72 -283 -108 -99 -28
-117 -30 -112 -17 4 10 27 90 51 180 24 89 48 170 53 180 16 30 54 58 166 122
224 128 244 141 273 176 70 84 246 432 301 593 35 101 7 124 -34 29 -60 -137
-290 -540 -328 -576 -12 -11 -97 -62 -190 -114 -92 -52 -187 -111 -212 -131
-50 -42 -43 -23 -121 -322 -73 -280 -90 -318 -182 -407 -42 -41 -131 -115
-197 -163 -181 -133 -261 -199 -362 -299 -80 -78 -109 -116 -87 -116 8 0 106
68 199 138 44 33 81 59 83 57 2 -2 -4 -49 -13 -106 -19 -124 -45 -365 -45
-434 0 -97 -9 -110 -200 -310 -98 -103 -177 -192 -174 -197 12 -18 38 -4 133
72 123 99 243 227 276 294 20 42 27 77 35 190 14 183 26 301 45 425 8 55 15
105 15 110 0 5 64 57 143 114 201 149 285 238 324 343 l18 47 100 27 c123 33
244 75 310 106 53 25 130 96 281 255 l91 97 204 17 c350 28 563 64 639 108 98
56 252 188 476 408 147 145 230 220 250 225 16 4 137 -1 269 -12 132 -10 285
-19 341 -19 l101 0 76 58 c98 75 220 207 205 222 -2 3 -15 -3 -29 -12z"/>
<path d="M8440 10231 c0 -20 104 -162 195 -266 233 -265 220 -241 255 -475 25
-173 52 -284 85 -353 14 -28 25 -52 25 -53 0 -1 -48 17 -107 41 -60 23 -164
64 -232 90 -72 28 -134 58 -147 72 -12 13 -70 116 -129 229 -59 113 -117 211
-129 219 -12 8 -74 26 -137 40 -230 52 -359 87 -574 157 -243 79 -242 78 -319
194 -57 83 -56 50 1 -58 45 -88 51 -94 103 -120 143 -68 510 -184 740 -233 64
-13 124 -27 134 -31 9 -4 38 -48 63 -98 73 -147 179 -329 205 -353 26 -24 64
-40 293 -123 274 -98 269 -95 444 -276 85 -87 214 -225 286 -305 l132 -146 11
-79 c17 -118 23 -198 31 -416 7 -188 8 -199 31 -223 l23 -24 -41 -103 c-65
-164 -102 -332 -104 -466 -1 -92 5 -124 44 -221 23 -59 26 -76 16 -82 -17 -11
-94 -34 -183 -54 -39 -9 -80 -23 -93 -31 -52 -34 -166 -152 -183 -189 -10 -22
-29 -98 -43 -170 -29 -147 -37 -179 -59 -221 -59 -115 -164 -462 -112 -372 14
26 125 286 165 388 10 25 32 113 50 195 18 85 41 166 53 187 12 20 55 66 95
101 72 65 73 65 185 91 61 15 122 29 133 32 29 8 31 -3 49 -273 18 -284 25
-345 36 -318 11 30 10 426 -1 529 -7 60 -22 119 -45 175 -51 127 -59 170 -52
275 9 128 86 445 116 479 11 12 199 -223 276 -345 38 -61 76 -113 83 -116 25
-8 11 50 -34 141 -66 130 -92 167 -296 414 l-38 45 0 106 c0 100 -16 370 -25
418 -2 12 -6 47 -10 78 -5 36 -18 72 -36 99 -53 81 -233 282 -405 453 -94 93
-182 190 -196 215 -47 80 -78 189 -118 407 -22 119 -47 226 -56 240 -21 33
-123 150 -254 292 -58 63 -120 134 -138 158 -31 38 -62 55 -62 33z"/>
<path d="M5514 10164 c-156 -82 -246 -131 -369 -202 -173 -100 -262 -142 -303
-142 -39 0 -155 44 -275 104 -82 41 -94 38 -38 -9 39 -32 183 -114 221 -126
19 -6 41 -12 48 -15 20 -6 -35 -104 -128 -229 -45 -61 -85 -115 -88 -121 -8
-13 -243 -86 -387 -120 -55 -13 -110 -30 -122 -36 -12 -7 -97 -88 -190 -179
-130 -128 -160 -163 -133 -151 56 23 168 105 262 191 49 44 98 83 110 86 13 3
55 12 94 20 40 8 89 21 110 29 22 9 116 38 209 66 122 37 229 78 379 147 l208
96 22 -26 c50 -60 174 -90 430 -103 112 -6 135 -3 310 30 l189 36 142 -69
c200 -96 260 -143 344 -269 89 -133 84 -129 479 -332 l224 -115 52 -121 c55
-129 107 -219 132 -228 20 -8 12 17 -31 104 -33 65 -85 188 -85 199 0 4 18 5
40 3 53 -5 51 11 -3 25 -24 7 -106 54 -183 106 -76 51 -218 135 -315 186
l-176 93 -74 106 c-41 58 -87 119 -104 135 -42 42 -181 132 -266 171 l-71 33
33 7 c19 4 85 16 148 27 63 11 121 24 130 28 40 23 -339 -14 -609 -60 -189
-31 -268 -35 -418 -18 -182 20 -229 30 -263 54 l-32 24 29 11 c191 72 488 210
467 217 -23 8 -509 -184 -824 -325 -218 -98 -211 -98 -146 -10 61 82 106 160
132 230 15 40 21 47 53 53 48 9 155 64 363 186 166 97 369 227 369 235 0 12
-35 0 -96 -32z"/>
<path d="M2870 10169 c-8 -5 -109 -66 -225 -134 -253 -151 -512 -284 -631
-324 -71 -24 -83 -31 -63 -36 98 -24 544 196 829 409 52 39 99 74 105 78 15
11 2 17 -15 7z"/>
<path d="M515 9956 c40 -52 42 -93 8 -144 l-28 -43 -7 57 c-7 52 -33 112 -44
101 -3 -2 0 -16 6 -31 15 -40 12 -133 -5 -200 -9 -33 -14 -60 -12 -62 4 -5
129 183 140 209 11 30 -3 85 -30 118 -36 43 -61 38 -28 -5z"/>
<path d="M6107 9896 c22 -40 97 -106 136 -120 23 -8 119 -22 213 -31 93 -9
213 -25 265 -36 52 -11 137 -22 189 -26 l95 -6 75 -66 c168 -149 232 -193 430
-301 74 -40 211 -116 304 -168 142 -81 178 -96 223 -100 48 -4 58 -9 93 -46
21 -22 105 -140 186 -261 159 -238 230 -337 294 -406 l41 -44 -32 65 c-50 102
-112 209 -247 425 -196 313 -217 335 -318 335 -41 0 -65 10 -183 79 -75 43
-214 120 -309 170 -188 98 -257 144 -382 251 -149 129 -138 123 -264 131 -61
4 -149 17 -196 28 -51 12 -155 25 -260 31 -96 6 -191 16 -210 22 -19 6 -61 29
-94 51 -32 21 -54 32 -49 23z"/>
<path d="M9546 9822 c80 -72 212 -183 233 -198 23 -16 23 -16 11 6 -22 41
-134 145 -198 183 -75 44 -88 47 -46 9z"/>
<path d="M9216 9772 c17 -15 57 -47 89 -72 82 -64 165 -157 191 -215 25 -55
43 -157 44 -246 0 -85 13 -109 79 -152 35 -22 120 -102 202 -189 79 -83 145
-145 147 -138 13 38 -203 274 -320 349 l-68 44 0 106 c0 108 -15 190 -47 260
-26 56 -178 202 -254 244 -78 44 -107 48 -63 9z"/>
<path d="M2330 9736 c0 -19 31 -43 65 -50 31 -6 373 19 382 28 13 13 -84 18
-232 13 -127 -5 -167 -3 -188 8 -22 11 -27 11 -27 1z"/>
<path d="M7585 9546 c101 -87 478 -243 566 -234 46 4 47 24 2 32 -73 14 -164
46 -311 110 -134 59 -214 92 -267 111 -14 4 -11 -1 10 -19z"/>
<path d="M3699 9496 c-102 -39 -149 -76 -149 -118 0 -53 16 -68 68 -68 108 1
202 86 190 171 -2 20 -10 24 -38 26 -19 1 -51 -4 -71 -11z m81 -35 c0 -44
-105 -121 -167 -121 -35 0 -47 33 -23 63 45 57 190 101 190 58z"/>
<path d="M722 9396 c-50 -51 -107 -101 -126 -111 -45 -24 -59 -71 -62 -200 -1
-55 -3 -103 -3 -108 -3 -20 -93 -105 -156 -145 -38 -25 -64 -47 -58 -49 41
-14 183 78 229 147 25 37 26 47 25 139 -3 134 9 175 59 206 63 39 109 85 152
148 22 32 38 60 36 62 -2 2 -45 -38 -96 -89z"/>
<path d="M9761 9370 c-1 -40 40 -117 47 -88 2 10 -8 41 -21 70 l-25 53 -1 -35z"/>
<path d="M7022 9229 c13 -39 235 -177 313 -194 22 -6 9 8 -55 53 -154 110
-268 172 -258 141z"/>
<path d="M2770 9054 c-14 -2 -56 -9 -94 -15 -280 -46 -589 -250 -847 -557
-316 -379 -470 -842 -368 -1107 34 -86 124 -177 198 -199 109 -32 228 -17 314
40 22 14 40 24 42 22 2 -2 8 -26 12 -53 9 -49 8 -51 -34 -103 -163 -201 -177
-503 -33 -719 l21 -31 -66 -74 c-83 -90 -119 -143 -151 -214 -32 -73 -41 -181
-20 -248 l15 -49 -66 -71 c-178 -192 -370 -492 -472 -740 -71 -171 -87 -269
-56 -343 14 -34 14 -39 -19 -122 -49 -125 -66 -178 -73 -230 -5 -37 -16 -57
-57 -101 -114 -125 -316 -457 -316 -522 0 -54 191 -233 355 -332 l59 -35 118
-223 c65 -123 137 -260 160 -305 l42 -82 -37 -78 c-20 -43 -43 -79 -50 -81 -7
-1 -52 15 -99 37 -79 36 -87 42 -98 78 -6 21 -39 94 -73 163 -51 105 -71 135
-126 190 -41 40 -101 84 -155 115 l-90 51 -26 92 c-76 262 -162 404 -273 452
-103 44 -319 88 -303 61 3 -4 72 -30 152 -57 189 -63 218 -86 287 -232 44 -95
117 -298 117 -328 0 -7 44 -39 97 -70 148 -87 195 -140 281 -316 40 -82 72
-150 72 -151 0 -2 -30 2 -67 9 -131 25 -160 18 -325 -88 -76 -48 -188 -157
-188 -182 0 -7 -6 -20 -13 -30 -12 -16 -18 -15 -105 8 -129 34 -192 41 -217
23 -19 -14 -18 -16 20 -22 117 -18 339 -82 413 -118 l63 -30 137 11 c208 17
220 31 27 32 -159 1 -160 1 -226 33 -64 32 -65 33 -57 63 11 45 107 129 229
203 102 61 105 62 159 56 92 -10 188 -33 274 -66 44 -17 84 -33 88 -36 4 -2
-10 -28 -32 -57 -95 -126 -135 -288 -96 -391 l18 -45 -55 -82 c-30 -46 -70
-121 -90 -168 -33 -78 -67 -211 -67 -260 0 -19 -6 -20 -119 -20 -122 0 -256
-14 -294 -31 -14 -6 55 -8 201 -6 l222 3 0 -22 c0 -12 7 -41 15 -64 8 -23 15
-48 15 -54 0 -8 -42 -16 -118 -23 -65 -6 -133 -18 -152 -26 -35 -15 -35 -15
51 -16 47 -1 121 4 165 10 l79 10 50 -46 c89 -82 249 -146 329 -131 18 3 50
15 71 26 l39 20 101 -44 c55 -25 140 -57 190 -71 183 -53 243 -57 752 -60 259
-1 477 1 483 5 16 10 -78 21 -240 29 l-135 6 70 24 c39 13 96 37 127 53 l57
30 173 -6 c128 -5 168 -4 155 4 -28 18 -147 40 -219 40 -69 0 -81 7 -52 31 29
24 63 106 71 171 l8 63 97 14 c90 13 100 13 116 -3 29 -26 134 -74 199 -90 89
-23 195 -30 236 -17 32 11 47 8 154 -28 197 -67 264 -76 538 -75 213 0 251 2
335 22 70 17 126 23 215 23 66 0 148 3 183 6 99 9 59 26 -74 31 l-116 5 54 28
c29 16 76 53 103 83 l51 55 125 2 c68 1 133 5 143 9 19 6 19 7 0 14 -10 5 -74
11 -141 13 l-121 6 10 29 c6 16 8 62 6 102 -14 211 -207 355 -463 345 -54 -2
-59 -1 -59 17 0 11 16 36 36 56 64 64 117 210 118 321 l0 38 153 -2 152 -1
112 51 c80 36 125 51 155 51 24 0 110 -18 193 -39 82 -22 152 -38 154 -35 2 2
-30 20 -72 39 -43 20 -77 37 -77 40 0 30 89 143 130 165 9 5 87 20 175 34 251
41 233 37 210 46 -11 5 -68 9 -127 9 -60 1 -108 5 -108 9 0 15 51 136 91 215
91 180 213 325 299 356 l45 17 43 -56 c31 -39 52 -57 75 -62 54 -12 251 8 312
32 l30 11 -40 25 c-45 28 -306 114 -345 114 -14 0 -60 -14 -103 -31 -43 -17
-80 -29 -83 -26 -15 15 93 188 174 277 l50 55 68 -24 c94 -32 180 -75 230
-116 23 -19 74 -82 114 -141 l72 -106 -30 -31 c-44 -47 -100 -167 -188 -405
-35 -92 -41 -102 -64 -102 -62 0 -266 -52 -378 -95 -144 -57 -159 -70 -284
-260 -72 -109 -228 -405 -228 -433 0 -6 -17 -14 -37 -17 -89 -13 -137 -26
-188 -51 -58 -29 -66 -49 -12 -33 17 5 108 25 200 43 93 19 171 37 175 41 13
12 -24 25 -57 20 l-33 -6 37 68 c118 214 211 361 296 469 46 58 52 62 151 99
57 21 166 54 243 73 139 34 140 34 209 19 53 -12 75 -13 91 -4 18 10 15 13
-36 36 l-57 26 63 160 c121 310 111 292 195 346 75 47 215 134 278 172 l34 20
-4 -124 -3 -124 -42 -61 c-43 -63 -80 -141 -71 -150 3 -2 24 24 46 58 23 35
56 82 74 106 31 42 33 48 45 189 11 133 15 152 48 221 53 112 133 238 175 275
20 19 112 71 204 116 l167 83 162 -158 c89 -87 164 -160 166 -161 2 -1 -16
-26 -41 -55 -66 -79 -132 -175 -166 -243 -72 -145 -47 -139 65 16 100 138 175
224 256 290 l60 51 81 -7 c45 -4 126 -16 181 -27 55 -11 118 -22 140 -25 l40
-4 -25 20 c-14 11 -33 26 -43 33 -16 12 -10 24 75 153 51 77 147 210 213 295
133 173 218 296 264 383 17 31 43 75 57 97 35 52 23 63 -21 20 -25 -24 -36
-29 -39 -19 -2 8 -26 88 -51 179 -26 91 -65 220 -87 286 l-40 121 79 94 c43
52 108 131 143 177 69 89 88 102 186 122 81 17 99 27 131 74 15 22 65 81 111
131 77 83 165 203 179 243 8 22 -293 -288 -324 -334 -23 -33 -54 -47 -158 -70
-51 -11 -98 -44 -149 -103 -26 -31 -95 -111 -153 -177 l-104 -121 -172 90
c-335 175 -502 257 -523 257 -11 0 -87 -41 -170 -91 -166 -100 -554 -356 -554
-365 0 -3 -9 -56 -19 -117 -11 -62 -29 -173 -40 -247 -12 -74 -31 -190 -42
-257 -12 -68 -19 -133 -15 -146 9 -36 101 -152 208 -263 l99 -101 -83 -33
c-110 -44 -223 -101 -274 -138 -51 -37 -123 -144 -189 -279 -35 -71 -58 -105
-75 -113 -20 -9 -164 -97 -299 -182 l-27 -18 -63 95 c-34 52 -86 116 -115 143
-57 52 -159 109 -242 136 l-51 17 -17 67 c-23 96 -67 179 -127 240 -29 28 -56
52 -60 52 -4 0 -36 -10 -71 -23 -78 -28 -171 -90 -254 -171 -60 -58 -65 -66
-89 -151 -14 -49 -31 -122 -37 -161 l-11 -72 -39 -5 c-76 -10 -288 -128 -336
-186 -25 -31 -91 -178 -112 -251 -13 -41 -25 -78 -29 -82 -3 -4 -33 0 -66 7
-116 28 -213 11 -356 -61 l-47 -23 -58 96 c-33 54 -62 103 -67 110 -5 8 11 24
50 49 85 54 171 122 189 149 14 21 14 27 -2 57 -22 43 -107 150 -144 181 -28
24 -28 25 -11 41 10 10 29 38 41 64 18 38 31 51 64 65 40 16 43 16 81 -3 50
-25 100 -25 167 0 73 27 122 70 155 138 24 49 28 69 27 137 0 57 -7 95 -22
131 -16 39 -21 72 -20 136 l1 85 82 7 c245 20 461 124 658 318 38 37 77 70 87
73 31 10 134 120 173 186 21 35 48 97 60 138 21 71 24 75 97 131 169 130 350
403 396 595 20 86 14 192 -13 255 -11 25 -44 76 -73 114 -52 68 -52 69 -33 85
24 18 453 559 533 671 30 41 55 77 57 79 1 2 11 -7 22 -20 l20 -24 55 55 56
54 91 -89 c281 -277 453 -526 643 -927 45 -95 60 -118 77 -118 36 0 130 53
142 80 16 35 15 345 -1 455 -25 163 -73 368 -123 520 -59 177 -180 429 -273
568 l-65 97 66 64 c62 61 65 67 60 100 -6 40 -69 136 -118 182 -95 89 -202
140 -276 131 -41 -4 -52 -11 -89 -53 l-42 -49 -24 21 c-65 59 -388 227 -546
284 -46 17 -141 42 -210 57 -108 23 -152 27 -297 27 -198 1 -236 -10 -297 -85
-73 -90 -71 -99 32 -144 127 -55 366 -178 445 -229 104 -68 234 -173 338 -273
136 -130 131 -105 44 -225 -80 -111 -112 -166 -102 -176 3 -3 15 -1 25 6 11 7
20 10 20 7 0 -6 -58 -82 -155 -205 -28 -36 -114 -146 -190 -245 -76 -99 -181
-233 -233 -299 l-94 -119 -25 32 c-54 69 -164 91 -255 52 -64 -27 -160 -104
-206 -163 -90 -117 -128 -235 -119 -365 l6 -83 -57 -39 c-31 -21 -77 -64 -102
-95 -54 -68 -115 -111 -188 -132 -57 -17 -98 -14 -164 13 -45 18 -47 28 -10
47 70 37 120 126 165 296 28 105 30 129 31 280 1 197 -19 291 -89 434 -56 113
-120 193 -207 258 -66 48 -186 107 -220 108 -26 0 -28 11 -12 75 19 77 11 178
-21 259 -17 44 -27 97 -35 191 -10 129 -10 130 12 147 20 15 23 26 23 90 0 58
5 80 22 108 35 56 82 182 99 267 55 261 -70 534 -296 647 -201 100 -498 97
-814 -9 l-99 -34 -31 24 c-54 41 -338 182 -431 215 -49 17 -128 40 -175 51
-81 18 -288 32 -340 23z m225 -89 c147 -15 299 -67 519 -177 l159 -80 -120
-62 c-221 -116 -404 -254 -567 -427 -83 -88 -150 -178 -141 -188 3 -2 60 50
127 115 330 321 756 554 1131 620 272 47 519 -5 651 -139 161 -163 190 -413
77 -662 l-31 -68 -29 39 c-16 21 -46 50 -68 63 -21 14 -54 50 -73 80 -58 92
-196 222 -280 265 l-73 36 152 0 c85 0 150 4 147 9 -12 18 -119 38 -243 45
-146 7 -392 -53 -533 -131 -230 -128 -382 -262 -706 -623 -81 -91 -226 -247
-323 -347 -153 -159 -177 -181 -191 -168 -28 25 -122 56 -194 63 -94 10 -191
-4 -245 -34 -24 -13 -45 -24 -46 -24 -5 0 -24 155 -31 245 -9 140 22 415 66
565 24 85 2 80 -38 -7 -59 -130 -92 -315 -92 -520 0 -129 0 -132 -26 -152 -56
-44 -117 -65 -189 -66 -119 0 -195 46 -246 150 -75 152 -41 389 96 670 96 198
221 363 407 540 247 235 471 349 738 375 74 7 96 7 215 -5z m1230 -621 c102
-34 243 -143 312 -239 l21 -30 -87 0 c-72 0 -93 -4 -127 -23 -88 -51 -111
-177 -38 -211 14 -6 62 -11 107 -11 94 0 135 -15 231 -84 92 -65 95 -72 107
-175 6 -51 9 -94 6 -97 -3 -3 -26 11 -52 30 -160 123 -393 59 -477 -131 l-20
-45 -43 64 c-79 118 -163 168 -282 168 -130 0 -230 -58 -296 -171 -60 -102
-79 -292 -39 -381 11 -27 20 -48 19 -48 -1 0 -31 9 -65 20 -67 21 -127 26
-136 11 -3 -5 16 -14 42 -21 78 -22 184 -72 235 -111 161 -126 359 -128 494
-5 73 66 247 126 362 126 194 0 333 -219 248 -392 -93 -190 -366 -247 -565
-118 -106 68 -119 104 -82 222 11 34 20 65 20 68 0 3 -16 -17 -35 -44 -88
-124 -67 -210 76 -305 146 -97 339 -108 497 -27 53 28 127 96 149 141 9 17 17
32 19 34 6 7 74 -41 102 -74 64 -72 68 -164 10 -221 -49 -49 -125 -66 -233
-53 -54 7 -90 7 -102 1 -37 -20 -175 -35 -266 -29 -232 15 -474 128 -665 311
-73 70 -82 83 -77 105 11 45 24 51 99 52 l71 1 -74 21 c-66 19 -81 20 -152 9
-91 -13 -178 -53 -228 -106 -45 -47 -35 -55 21 -17 57 38 128 69 178 77 l38 6
-13 -38 c-19 -56 -45 -218 -45 -279 0 -119 41 -262 102 -356 111 -173 291
-269 502 -269 161 0 273 47 386 160 87 87 138 179 147 266 l6 55 41 -8 c23 -4
75 -8 116 -8 61 1 85 6 125 27 59 30 79 51 100 101 21 51 19 104 -9 162 -26
56 -65 94 -124 120 l-39 17 5 79 c5 92 -8 148 -49 210 -26 40 -27 44 -12 61 9
10 22 18 29 18 28 0 213 -103 262 -146 103 -90 190 -251 224 -410 46 -226 -6
-538 -117 -697 -14 -20 -15 -19 -15 33 0 57 -30 183 -55 229 -12 23 -13 12 -8
-99 8 -195 -22 -346 -107 -527 -102 -218 -246 -356 -407 -386 l-32 -6 40 52
c84 109 150 276 148 371 l0 31 -16 -35 c-68 -151 -98 -206 -153 -283 -52 -73
-78 -98 -145 -142 -137 -92 -246 -130 -390 -138 -190 -11 -422 55 -585 166
-104 71 -211 193 -281 319 -28 52 -29 52 -29 21 0 -60 80 -234 120 -258 20
-12 -10 -35 -48 -35 -48 0 -181 66 -278 138 -252 187 -374 403 -375 662 0 52
4 111 10 130 14 44 14 45 -4 30 -24 -20 -55 -118 -62 -196 -6 -73 -7 -75 -32
-72 -16 2 -37 18 -57 45 -72 94 -85 319 -29 493 55 171 123 295 247 454 l70
88 1 97 c1 88 -2 103 -29 162 l-31 64 158 164 c142 147 159 161 163 140 30
-129 34 -342 11 -470 -9 -46 -40 -157 -70 -246 -30 -89 -62 -203 -71 -255 -21
-121 -15 -280 14 -361 25 -72 48 -100 38 -47 -41 236 -24 386 78 658 64 173
86 288 86 460 0 132 -18 270 -41 314 -7 12 2 28 34 65 339 378 413 451 583
579 166 125 392 227 536 243 4 1 28 -6 53 -15z m2511 -92 c245 -51 490 -160
749 -335 148 -100 313 -256 418 -395 265 -354 457 -945 457 -1407 l0 -135 -41
-26 c-23 -14 -45 -22 -49 -17 -4 4 -17 37 -29 73 -55 155 -201 410 -355 618
-81 109 -291 333 -352 374 -38 26 -42 38 -16 61 9 9 28 35 41 59 l23 44 -32
75 c-18 40 -46 93 -62 117 -39 56 -149 148 -217 180 -47 22 -59 23 -85 14 -16
-7 -32 -8 -35 -4 -56 82 -243 251 -385 346 -97 65 -276 158 -446 231 -91 40
-109 51 -87 53 32 4 37 22 5 22 -22 0 -22 0 4 26 14 15 48 33 75 40 69 20 290
12 419 -14z m-2150 -264 c68 -25 136 -86 168 -150 23 -47 34 -107 21 -119 -2
-3 -30 19 -62 48 -32 30 -87 69 -123 86 -55 27 -77 32 -155 35 -103 4 -120 14
-103 63 23 66 133 82 254 37z m3200 -29 c58 -29 173 -134 199 -183 l19 -36
-44 -45 c-24 -25 -48 -45 -53 -45 -5 0 -50 42 -101 93 -50 52 -113 112 -140
134 l-49 39 24 38 c22 34 27 37 61 33 20 -3 58 -16 84 -28z m-3151 -467 c57
-29 109 -87 142 -157 25 -54 28 -71 28 -165 0 -94 -3 -110 -25 -150 -19 -34
-31 -45 -50 -45 -22 0 -25 4 -23 30 9 132 10 125 -20 151 -20 17 -35 23 -50
18 -36 -11 -68 -47 -79 -90 l-12 -42 -75 -4 c-49 -3 -107 -16 -165 -36 -87
-31 -88 -31 -80 -9 12 37 16 175 6 224 -9 42 -7 52 21 112 61 128 162 195 282
187 35 -2 78 -12 100 -24z m-639 -10 c62 -32 128 -111 164 -199 81 -193 34
-358 -124 -441 -42 -22 -64 -27 -127 -27 -65 1 -85 5 -142 33 -126 62 -187
160 -187 303 0 160 84 299 207 345 53 20 157 13 209 -14z m3294 -22 c76 -49
148 -132 186 -216 l35 -75 -55 -67 c-30 -37 -66 -78 -79 -91 -24 -21 -25 -22
-21 -3 3 11 -1 33 -9 48 -35 66 -187 183 -265 204 l-43 11 20 32 c11 18 45 67
76 110 65 90 81 95 155 47z m-124 -319 c38 -27 82 -62 97 -79 l29 -30 -62 -88
c-34 -49 -179 -236 -323 -416 l-262 -327 -30 19 c-52 32 -142 52 -211 48 -35
-2 -64 -3 -64 -1 0 10 62 98 131 186 44 56 166 212 272 347 288 370 305 390
331 390 13 0 54 -22 92 -49z m-4684 -8 c84 -40 126 -77 154 -138 25 -52 32
-134 15 -177 -5 -13 -27 -43 -49 -68 l-41 -45 -1 29 c-1 71 -70 154 -160 193
-44 18 -138 18 -183 -1 -38 -15 -117 -82 -117 -98 0 -6 16 2 35 16 71 55 156
69 236 41 82 -29 148 -117 149 -197 l0 -38 -60 7 c-58 6 -60 5 -93 -28 -26
-26 -35 -46 -40 -83 -10 -67 6 -78 22 -16 16 61 48 90 102 90 22 0 39 -2 39
-4 0 -2 -18 -35 -40 -72 -40 -68 -140 -311 -140 -339 0 -20 0 -20 -87 28 -92
50 -209 161 -241 227 -90 189 -63 431 63 578 84 97 165 133 287 128 70 -3 98
-9 150 -33z m1262 -765 c144 -107 271 -172 405 -208 58 -15 63 -18 44 -29 -33
-17 -100 -13 -178 11 -83 26 -415 190 -440 218 -14 16 -16 30 -10 95 l8 77 46
-53 c25 -29 81 -79 125 -111z m2464 -1 c32 -34 52 -91 52 -151 0 -43 -8 -70
-40 -133 -46 -92 -131 -190 -176 -202 -59 -16 -100 24 -111 109 -6 40 30 135
64 172 14 16 14 18 1 18 -20 0 -72 -58 -98 -110 -35 -68 -23 -170 24 -209 23
-19 20 -27 -14 -41 -17 -7 -44 -29 -60 -48 -16 -20 -31 -34 -34 -31 -2 2 -13
35 -25 73 -46 148 -16 292 87 422 95 120 273 191 330 131z m-4134 -121 c47
-39 134 -83 184 -92 29 -6 32 -10 32 -40 0 -29 -3 -34 -23 -34 -30 0 -191 -78
-267 -130 -32 -22 -86 -62 -119 -90 -56 -46 -59 -48 -65 -27 -19 73 5 173 62
260 35 52 142 185 150 186 2 1 23 -15 46 -33z m4428 -53 c64 -14 71 -18 135
-87 147 -158 171 -247 114 -412 -111 -324 -415 -638 -686 -709 -66 -17 -220
-20 -230 -5 -3 5 20 44 51 85 l57 76 23 -22 c58 -54 7 64 -59 136 -42 47 -97
81 -189 119 -32 13 -37 19 -43 59 -5 31 -2 53 8 73 47 91 125 99 272 29 84
-40 147 -93 209 -176 25 -34 46 -55 46 -47 0 35 -64 139 -115 187 -60 57 -174
117 -242 127 -24 3 -43 10 -41 14 2 4 27 33 56 65 50 55 57 59 107 63 109 9
258 -52 346 -141 43 -44 59 -69 97 -157 l11 -25 0 31 c3 130 -115 267 -275
319 l-65 21 41 33 c22 17 58 57 81 87 22 30 46 58 54 60 7 3 48 -9 91 -27 63
-26 92 -46 150 -103 39 -39 83 -94 97 -123 33 -64 49 -76 35 -26 -42 152 -160
280 -296 319 -43 13 -52 19 -47 32 12 29 33 96 39 125 6 27 8 28 54 22 26 -4
77 -14 114 -22z m-2747 -88 c151 -39 274 -139 314 -256 31 -93 31 -93 -39 -85
-182 21 -326 119 -406 277 -19 38 -34 71 -34 74 0 11 109 4 165 -10z m-1424
-310 c14 -38 38 -76 65 -104 38 -38 48 -43 79 -39 35 4 36 4 52 -51 54 -189
199 -381 382 -506 40 -27 71 -56 71 -65 0 -9 9 -42 19 -73 l20 -57 -37 0 c-56
0 -167 -26 -225 -53 -67 -30 -49 -40 28 -15 33 10 99 22 147 25 l88 6 44 -41
44 -41 -51 -17 c-29 -9 -70 -27 -93 -39 -60 -35 -148 -135 -118 -135 4 0 27
18 51 41 48 44 150 97 206 106 30 4 43 -1 88 -34 51 -38 136 -76 312 -138 l78
-28 -34 -28 c-39 -32 -122 -149 -162 -229 -56 -110 -93 -233 -110 -360 -5 -45
9 -222 21 -254 5 -13 -1 -16 -39 -16 -156 0 -466 104 -674 226 -302 177 -555
449 -713 764 -48 96 -107 266 -129 376 -11 53 -22 98 -25 101 -13 14 -18 -83
-8 -168 30 -256 184 -555 401 -782 67 -70 76 -70 -167 9 -347 113 -640 296
-703 440 -25 56 -21 98 23 223 99 282 326 631 567 871 137 136 221 197 363
265 l93 44 12 -82 c6 -45 21 -109 34 -142z m3432 -68 l25 -33 -64 -52 c-91
-75 -120 -121 -117 -192 2 -53 0 -59 -31 -89 l-34 -33 -7 60 c-7 65 6 155 31
207 29 62 133 165 165 165 4 0 18 -15 32 -33z m2674 -264 c5 -49 8 -91 7 -94
-2 -4 -50 -33 -106 -64 -56 -32 -174 -102 -262 -156 l-160 -97 -41 29 c-22 16
-51 38 -64 48 l-25 19 135 88 c170 112 492 314 500 314 3 0 10 -39 16 -87z
m141 21 c59 -31 145 -77 192 -102 47 -25 141 -74 210 -109 135 -70 150 -80
150 -97 0 -6 -61 -37 -135 -69 l-135 -58 -57 55 c-53 49 -219 190 -286 243
-16 12 -32 37 -37 55 -13 49 -23 138 -16 138 4 0 55 -25 114 -56z m-3106 -37
c-2 -47 2 -88 12 -117 8 -24 12 -48 8 -54 -3 -6 -94 -121 -202 -256 -107 -135
-218 -276 -245 -313 -33 -45 -55 -66 -65 -63 -8 3 -55 21 -104 41 -59 25 -106
37 -141 38 l-53 2 5 90 c4 64 9 93 20 100 8 6 36 23 62 39 73 47 191 174 245
265 26 45 67 128 89 184 23 56 42 104 44 105 1 2 17 -1 37 -8 l35 -11 -20 -57
c-23 -65 -35 -172 -24 -199 5 -13 13 8 25 68 10 47 27 107 38 133 l21 46 68 0
c48 1 79 7 103 20 19 11 37 19 40 20 3 0 4 -33 2 -73z m228 -133 c70 -28 132
-68 169 -107 l23 -26 -155 -193 c-86 -106 -201 -249 -257 -318 -56 -69 -129
-161 -163 -205 -33 -44 -63 -84 -67 -88 -4 -5 -20 13 -35 40 -16 26 -59 80
-97 120 l-70 71 36 40 c41 44 409 508 492 620 30 39 56 72 58 72 1 0 31 -12
66 -26z m2937 -116 c80 -68 156 -131 169 -141 13 -10 24 -24 24 -31 0 -6 -76
-84 -168 -173 l-168 -161 -13 272 c-7 149 -15 290 -18 314 -5 35 -3 42 11 42
10 0 83 -55 163 -122z m-193 -70 c3 -95 9 -235 13 -310 l6 -137 -139 92 c-76
51 -190 124 -252 162 l-113 70 26 20 c29 22 437 273 446 274 3 1 9 -77 13
-171z m728 -56 c31 -95 148 -494 148 -501 -1 -3 -14 -21 -29 -39 l-29 -34
-111 31 c-61 17 -117 31 -125 31 -9 0 -19 8 -25 18 -17 32 -131 415 -125 421
9 10 269 136 274 133 2 -1 12 -28 22 -60z m-1313 -27 l52 -40 -7 -65 c-3 -36
-16 -132 -28 -215 l-21 -150 -93 -63 c-52 -35 -95 -62 -97 -60 -3 4 32 245 69
468 14 85 26 165 26 178 0 23 0 23 24 5 12 -10 46 -36 75 -58z m-4665 -82 c28
-3 53 2 79 16 l38 19 64 -48 c202 -153 490 -239 706 -211 139 18 264 63 378
136 31 19 45 22 99 18 l62 -5 0 -39 c0 -21 -5 -60 -11 -87 -9 -46 -13 -50 -51
-61 -64 -19 -260 -107 -326 -146 l-59 -34 -39 19 c-65 32 -224 70 -320 77 -74
5 -101 2 -141 -12 l-50 -18 -64 30 c-35 17 -101 42 -145 57 -93 31 -182 81
-237 134 -35 33 -137 185 -137 204 0 4 25 -5 56 -19 31 -14 75 -28 98 -30z
m3070 15 c-12 -41 -92 -154 -142 -200 -57 -53 -97 -64 -217 -56 -54 4 -88 12
-127 32 -98 50 -97 46 -41 118 l48 63 65 -17 c115 -30 272 -7 375 57 49 30 48
30 39 3z m1931 -169 c124 -84 222 -155 218 -159 -36 -33 -377 -240 -383 -234
-4 5 -35 41 -68 80 l-60 70 19 160 c10 87 19 179 19 203 0 33 3 42 14 38 8 -3
116 -74 241 -158z m653 119 c5 -18 33 -109 63 -203 l53 -170 -164 -322 c-91
-177 -168 -319 -171 -315 -4 4 -16 68 -28 142 -22 143 -87 517 -96 561 -5 23
12 43 156 183 89 86 165 156 170 156 4 0 12 -15 17 -32z m-3067 -222 c33 -15
83 -28 127 -32 39 -4 69 -11 66 -16 -3 -5 -47 -45 -97 -89 -142 -123 -310
-197 -489 -215 l-71 -7 39 49 c22 27 99 124 173 216 l134 167 31 -24 c18 -13
57 -36 87 -49z m-896 -96 c179 -89 272 -187 316 -332 35 -116 9 -231 -70 -300
l-36 -32 -7 55 c-15 115 -61 200 -161 296 -59 57 -107 91 -107 77 0 -4 31 -50
70 -104 92 -128 122 -195 128 -286 6 -101 -16 -162 -83 -232 -30 -30 -59 -52
-67 -50 -7 3 -16 24 -20 48 -10 58 -59 159 -113 235 -64 90 -192 203 -172 152
3 -7 36 -56 73 -108 131 -181 178 -323 140 -424 -19 -49 -39 -65 -83 -65 -25
0 -31 7 -53 58 -17 40 -46 78 -95 127 -66 65 -155 127 -155 108 0 -4 32 -44
70 -88 74 -84 140 -200 140 -244 0 -44 -52 -115 -102 -140 -69 -33 -84 -29
-97 25 -17 65 -54 134 -93 171 -44 42 -154 93 -200 93 -33 0 -41 -5 -64 -40
-30 -45 -36 -46 -90 -24 -162 67 -191 291 -68 537 45 90 110 182 161 228 128
116 403 256 574 294 118 25 153 21 264 -35z m3589 -7 c3 -16 29 -158 56 -318
28 -159 53 -298 56 -307 3 -10 3 -18 -1 -18 -3 0 -45 33 -93 73 -48 39 -160
130 -250 201 -89 70 -162 133 -161 140 0 10 363 253 381 255 3 1 9 -11 12 -26z
m-4499 -85 c66 -18 120 -35 120 -38 0 -3 -29 -31 -65 -61 -79 -67 -133 -141
-200 -274 -61 -121 -85 -225 -77 -335 6 -85 39 -170 81 -209 14 -14 26 -27 26
-31 0 -13 -170 -40 -254 -40 -109 0 -157 18 -195 74 -50 72 -64 128 -64 261 0
102 3 133 26 208 48 157 132 301 229 393 99 94 104 97 183 90 39 -3 124 -20
190 -38z m4030 -132 c48 -58 50 -62 111 -290 35 -127 62 -232 60 -233 -6 -6
-359 349 -434 436 l-80 93 64 44 c35 24 82 57 104 73 l41 29 42 -46 c23 -26
65 -73 92 -106z m1032 133 c15 -6 68 -21 116 -33 l88 -23 -159 -209 c-186
-246 -224 -300 -286 -415 l-46 -86 -38 13 c-20 7 -45 13 -54 14 -36 0 -21 63
43 182 34 62 113 215 175 341 63 125 118 227 124 227 5 0 21 -5 37 -11z
m-7607 -182 c209 -135 490 -248 746 -300 58 -12 82 -23 126 -59 198 -162 414
-275 671 -354 51 -16 86 -31 84 -38 -11 -30 -442 10 -750 69 -258 49 -626 168
-813 263 -156 79 -334 224 -349 285 -8 29 26 157 63 240 l25 58 56 -54 c31
-31 94 -80 141 -110z m6776 -127 c50 -41 144 -118 209 -170 196 -158 185 -145
185 -201 l0 -50 -73 7 c-80 7 -120 -6 -186 -62 l-32 -26 -42 48 c-23 26 -46
59 -50 73 -13 44 -34 119 -77 281 -22 85 -43 163 -46 174 -8 24 0 19 112 -74z
m-7039 -140 c115 -122 322 -242 574 -333 335 -121 808 -217 1147 -234 l122 -6
0 -34 c0 -81 62 -151 158 -180 40 -12 95 -17 188 -17 l131 -1 -34 -80 c-90
-211 -128 -292 -144 -309 -23 -25 -156 -35 -419 -31 -455 7 -928 96 -1295 242
-226 89 -452 212 -610 332 -80 60 -215 191 -215 208 0 21 46 109 107 203 59
90 214 310 220 310 2 0 33 -32 70 -70z m4090 -163 c-5 -80 -35 -132 -104 -181
-42 -29 -123 -46 -159 -32 -15 6 -14 10 9 34 26 27 77 126 77 150 0 7 20 21
43 31 24 11 61 39 83 64 37 43 39 44 47 24 5 -12 7 -53 4 -90z m1054 41 c65
-76 119 -187 119 -244 0 -17 -16 -44 -45 -76 -106 -118 -184 -242 -200 -318
-5 -23 -27 -56 -65 -95 l-57 -60 -38 73 c-25 49 -59 94 -102 135 -64 62 -64
62 -59 107 12 89 57 256 79 287 29 44 153 140 230 180 74 39 111 42 138 11z
m-2063 -421 c38 -36 77 -99 87 -139 6 -23 -7 -44 -100 -162 -59 -75 -111 -133
-116 -131 -4 3 -10 18 -14 33 -17 75 -116 162 -185 162 -16 0 -30 3 -30 7 0 7
127 175 192 255 l39 47 47 -20 c26 -11 62 -35 80 -52z m-1019 -5 c-2 -77 11
-85 121 -78 176 12 355 22 359 20 8 -6 -37 -79 -60 -96 -36 -27 -116 -37 -284
-34 -219 4 -280 31 -280 125 0 34 7 58 26 87 25 38 28 39 73 36 l46 -4 -1 -56z
m135 13 l45 -45 -59 0 -60 0 0 33 c0 27 14 57 27 57 1 0 23 -20 47 -45z m586
-42 c0 -5 -36 -55 -80 -112 -59 -77 -80 -112 -80 -134 0 -45 35 -111 82 -153
72 -64 204 -113 249 -90 27 13 177 181 219 245 l29 43 79 2 c65 1 84 5 114 25
40 28 76 76 87 117 17 62 91 18 193 -114 47 -60 54 -47 -65 -128 -199 -135
-693 -286 -942 -288 l-100 -1 -83 157 c-45 87 -85 171 -88 188 -6 28 -4 30 22
30 87 1 184 93 184 175 0 20 7 25 43 33 52 12 137 15 137 5z m1958 -166 c46
-48 82 -96 102 -139 l31 -65 -50 -82 c-54 -89 -99 -191 -128 -288 l-18 -62
-50 -11 c-27 -6 -58 -13 -67 -15 -10 -1 -42 19 -74 47 -41 36 -63 48 -78 44
-12 -3 -44 -8 -71 -11 -48 -7 -52 -5 -63 19 -6 14 -30 46 -53 71 -48 52 -49
39 18 222 40 109 54 134 93 174 51 51 110 88 215 136 103 47 110 45 193 -40z
m619 -41 c62 -19 129 -38 150 -42 57 -11 17 -20 -119 -29 l-116 -7 -36 48
c-19 27 -36 52 -36 57 0 14 47 6 157 -27z m-2527 -85 c43 -44 90 -134 77 -147
-3 -3 -40 16 -83 43 -76 47 -150 124 -138 144 3 5 26 9 51 9 43 0 51 -4 93
-49z m-343 -289 c28 -59 66 -77 163 -76 177 1 519 82 766 182 l50 20 61 -101
c95 -158 110 -228 78 -365 -30 -127 -87 -201 -198 -255 -141 -70 -263 -93
-482 -91 -123 1 -155 5 -260 33 -230 61 -325 128 -325 228 0 53 11 56 82 18
67 -36 169 -75 195 -75 8 0 -21 24 -64 54 -73 50 -348 245 -403 286 l-25 18
32 12 c25 9 38 24 58 68 28 59 117 273 129 306 6 19 33 -30 143 -262z m-2102
109 c306 -122 720 -212 1094 -239 l95 -7 20 -60 c15 -47 20 -88 20 -190 l1
-130 -42 -80 c-67 -129 -93 -159 -175 -199 -122 -60 -180 -71 -378 -70 -156 0
-187 3 -282 27 -130 32 -210 64 -304 123 -97 59 -149 118 -170 190 -16 57 -16
60 6 127 12 38 25 65 29 61 5 -5 29 -38 54 -74 40 -58 116 -141 105 -115 -2 6
-28 60 -57 120 -146 304 -226 460 -286 559 -36 60 -65 111 -65 113 0 3 42 -18
93 -46 50 -27 160 -77 242 -110z m3689 -146 c46 -11 69 -24 103 -57 25 -24 51
-56 60 -71 14 -28 13 -31 -36 -105 -53 -81 -81 -139 -81 -169 -1 -13 -27 -29
-98 -60 -93 -40 -102 -41 -225 -46 l-127 -5 -6 25 c-11 44 -7 107 10 163 13
42 16 78 13 151 l-5 97 77 36 c123 57 203 68 315 41z m-1927 -191 c79 -52 145
-99 148 -103 2 -4 -11 -37 -30 -72 -69 -131 -104 -346 -71 -434 l17 -44 -31
-46 c-44 -64 -105 -198 -124 -271 -20 -77 -20 -196 0 -249 26 -68 26 -68 -59
-86 -73 -16 -79 -16 -84 0 -44 127 -121 204 -248 250 -67 23 -200 42 -257 35
-52 -6 -50 14 6 54 110 79 206 293 206 460 0 43 7 75 25 114 13 29 30 77 36
106 l12 52 86 0 c101 0 167 -15 274 -60 43 -18 80 -30 83 -27 8 8 -104 81
-156 101 -30 13 -83 20 -162 24 -99 4 -118 7 -119 21 -3 65 -22 169 -39 213
l-18 47 147 4 c80 1 162 4 181 5 28 2 58 -14 177 -94z m2331 -6 l41 -37 -40
-43 c-22 -24 -50 -64 -62 -90 -15 -33 -27 -46 -37 -42 -40 15 -130 24 -177 18
-40 -5 -53 -3 -53 6 0 7 28 57 63 111 l62 97 50 7 c28 4 59 11 70 15 24 9 31
6 83 -42z m-2111 -358 c57 -50 220 -115 356 -141 68 -13 143 -19 236 -20 280
0 491 66 603 190 l50 56 -7 -75 c-9 -104 -32 -198 -58 -245 -66 -117 -330
-206 -613 -206 -156 -1 -257 14 -404 58 -160 47 -247 104 -275 178 -15 39 -16
54 -6 125 7 44 19 103 27 132 l16 51 15 -32 c9 -17 36 -50 60 -71z m-2085 -95
c60 -66 218 -157 336 -194 160 -50 203 -56 412 -56 158 0 207 4 259 18 91 26
170 69 224 121 26 25 47 41 47 36 0 -23 -65 -210 -90 -260 -16 -30 -41 -67
-57 -82 -39 -37 -143 -84 -233 -105 -106 -25 -401 -25 -518 0 -244 54 -480
171 -547 272 -24 37 -26 47 -23 121 4 73 10 93 52 180 l47 98 24 -52 c13 -28
43 -72 67 -97z m2007 -254 c70 -50 242 -109 396 -137 201 -35 476 -15 682 51
85 27 93 29 93 18 0 -8 -20 -14 -190 -63 -135 -39 -282 -118 -363 -195 -47
-45 -22 -40 55 9 138 89 298 154 428 175 111 18 279 14 351 -9 181 -56 276
-234 205 -385 -73 -157 -297 -236 -671 -238 -203 -1 -339 18 -500 70 -130 42
-173 62 -223 107 -22 19 -57 38 -87 45 -78 19 -193 77 -272 136 -82 63 -85 71
-58 175 22 84 104 260 122 260 3 0 17 -9 32 -19z m-2149 -116 c116 -97 353
-193 560 -226 72 -11 318 -14 396 -4 27 4 80 13 117 21 81 17 87 17 87 4 0
-10 -13 -13 -170 -50 -111 -26 -202 -61 -282 -107 -64 -37 -121 -83 -114 -90
3 -3 51 17 108 46 505 249 1000 176 1002 -149 1 -86 -34 -152 -111 -209 -126
-93 -301 -135 -573 -134 -310 0 -521 49 -745 173 -41 23 -119 60 -174 84 -146
64 -231 130 -302 232 -28 41 -28 41 -14 101 21 91 142 343 165 343 4 0 27 -16
50 -35z m2091 -377 c78 -51 126 -74 192 -93 55 -16 57 -18 57 -50 0 -19 -4
-36 -9 -39 -11 -7 -137 28 -203 57 -62 28 -123 92 -138 146 -16 60 -13 67 18
40 15 -14 52 -41 83 -61z m-2252 -151 c47 -52 154 -120 231 -148 36 -12 66
-23 68 -25 2 -1 -5 -18 -15 -39 -17 -35 -19 -37 -56 -31 -21 4 -69 22 -106 41
-111 55 -175 143 -195 265 l-6 35 23 -30 c12 -16 37 -47 56 -68z"/>
<path d="M3789 8046 c-163 -45 -287 -188 -297 -341 -4 -67 -3 -71 19 -82 31
-13 52 -5 145 58 113 76 146 89 237 89 74 0 79 1 115 34 35 32 37 38 37 93 0
45 -5 65 -24 92 -45 63 -131 84 -232 57z m162 -85 c19 -20 29 -40 29 -60 0
-46 -22 -61 -90 -61 -78 0 -152 -29 -259 -100 -98 -66 -107 -62 -66 27 42 94
137 180 228 209 74 23 125 18 158 -15z"/>
<path d="M6285 8190 c3 -5 15 -10 25 -10 31 0 257 -78 348 -121 121 -56 304
-167 407 -246 50 -39 136 -118 193 -177 57 -60 105 -106 107 -104 13 13 -104
165 -186 243 -195 185 -469 333 -748 405 -85 22 -156 27 -146 10z"/>
<path d="M7625 7233 c224 -292 325 -439 388 -561 80 -156 198 -443 234 -571
38 -133 53 -166 53 -114 0 92 -112 421 -224 658 -83 175 -264 434 -394 563
-83 82 -111 94 -57 25z"/>
<path d="M4000 7112 c-52 -52 -68 -177 -29 -226 59 -75 159 21 159 154 0 90
-72 130 -130 72z"/>
<path d="M6040 3440 c0 -11 5 -20 10 -20 6 0 10 9 10 20 0 11 -4 20 -10 20 -5
0 -10 -9 -10 -20z"/>
<path d="M5590 2900 c0 -5 5 -10 10 -10 6 0 10 5 10 10 0 6 -4 10 -10 10 -5 0
-10 -4 -10 -10z"/>
<path d="M2991 2119 c-14 -6 -21 -13 -15 -18 13 -12 124 -23 124 -12 0 7 -73
43 -83 40 -1 0 -13 -5 -26 -10z"/>
<path d="M5319 8999 c-10 -6 -9 -10 6 -15 98 -33 174 -84 200 -133 7 -15 21
-71 31 -124 21 -117 35 -143 106 -190 69 -45 317 -159 338 -154 21 4 -49 48
-200 123 -170 85 -187 104 -212 235 -21 110 -35 146 -71 180 -55 52 -168 97
-198 78z"/>
<path d="M6113 8899 c-34 -22 -73 -93 -73 -135 0 -15 12 -38 29 -55 23 -23 38
-29 71 -29 57 0 78 14 101 67 27 63 25 124 -4 151 -30 28 -81 28 -124 1z m88
-19 c22 -12 25 -49 8 -101 -18 -54 -31 -62 -83 -55 -45 7 -46 8 -46 44 0 44
31 99 63 112 30 12 35 12 58 0z"/>
<path d="M8867 8608 c-77 -330 -76 -401 9 -505 31 -38 252 -213 269 -213 4 0
-56 62 -133 138 -172 168 -170 163 -147 389 8 82 16 163 18 181 3 36 -8 44
-16 10z"/>
<path d="M7741 8595 c-4 -65 69 -146 164 -186 50 -21 60 -31 116 -115 96 -146
121 -153 48 -14 -52 100 -92 143 -153 165 -47 17 -134 92 -163 140 -6 11 -12
16 -12 10z"/>
<path d="M1243 8366 c-99 -91 -202 -255 -237 -377 -10 -34 -18 -106 -20 -185
-4 -145 -23 -219 -97 -368 -48 -95 -59 -110 -195 -267 -57 -66 -108 -128 -114
-140 -6 -11 -24 -84 -41 -162 -40 -193 -77 -334 -101 -382 -11 -22 -60 -98
-108 -170 -105 -157 -132 -204 -159 -272 -23 -58 -11 -73 15 -20 19 36 106
167 204 307 109 153 125 196 186 490 19 96 40 182 45 192 5 10 64 80 130 156
102 117 128 153 174 247 84 172 96 217 105 390 8 163 18 205 79 320 36 70 130
205 179 257 48 51 15 39 -45 -16z"/>
<path d="M5372 8384 c4 -21 44 -50 81 -58 37 -9 34 4 -11 35 -52 36 -74 43
-70 23z"/>
<path d="M9232 7883 c-47 -99 -48 -100 -70 -85 l-23 15 16 -29 c8 -16 62 -127
120 -246 57 -120 109 -218 114 -218 17 0 -46 177 -108 301 l-63 125 36 113
c20 62 35 116 32 119 -3 3 -27 -40 -54 -95z"/>
<path d="M8480 7763 c0 -69 15 -181 25 -191 3 -3 10 -1 16 5 10 10 -2 168 -17
230 -12 45 -24 22 -24 -44z"/>
<path d="M5837 7675 c-24 -171 -53 -213 -180 -260 -45 -16 -77 -33 -77 -41 0
-8 8 -14 18 -14 35 0 139 -58 170 -96 29 -35 38 -61 67 -203 5 -24 10 -30 16
-20 5 8 9 25 9 38 0 34 30 150 46 183 23 46 66 78 129 97 33 10 60 22 60 27 0
4 -35 22 -78 38 -43 17 -89 40 -102 52 -26 23 -54 107 -56 163 -1 20 -4 47 -8
61 -6 21 -8 17 -14 -25z m80 -261 l43 -27 -40 -34 c-25 -22 -46 -52 -57 -82
l-17 -49 -27 43 c-15 23 -50 57 -78 75 l-52 34 51 24 c28 13 63 39 78 58 l27
33 14 -23 c8 -14 34 -37 58 -52z"/>
<path d="M8922 7433 c-13 -115 -44 -214 -79 -262 -26 -34 -82 -63 -183 -96
-30 -10 -59 -21 -63 -25 -5 -4 27 -15 70 -25 43 -9 89 -23 103 -30 32 -17 73
-62 93 -100 15 -31 41 -184 53 -315 9 -92 17 -73 33 75 20 184 37 240 84 289
41 42 84 63 175 86 25 7 42 16 39 23 -2 6 -39 22 -83 36 -43 13 -92 33 -108
44 -46 33 -72 106 -92 260 -10 75 -20 137 -24 137 -3 0 -11 -44 -18 -97z m70
-315 c10 -15 40 -35 70 -46 l51 -19 -33 -12 c-57 -19 -101 -61 -128 -119 l-25
-55 -27 61 c-27 59 -92 122 -127 122 -23 0 -14 18 13 24 38 10 110 82 131 131
l18 44 19 -52 c10 -29 27 -64 38 -79z"/>
<path d="M6327 7073 c-88 -92 -130 -143 -170 -211 -37 -60 -67 -139 -67 -173
0 -34 18 -12 58 75 45 95 95 171 178 271 85 101 87 105 76 105 -5 0 -39 -30
-75 -67z"/>
<path d="M1019 6843 c-29 -15 -76 -49 -102 -75 -80 -80 -96 -147 -54 -228 18
-36 29 -47 58 -54 55 -13 102 0 168 49 98 72 131 153 99 246 -32 95 -73 110
-169 62z m107 -38 c19 -29 29 -94 20 -129 -15 -60 -133 -156 -191 -156 -19 0
-39 8 -49 19 -25 28 -32 91 -13 127 30 56 158 162 199 163 10 1 25 -10 34 -24z"/>
<path d="M1475 6733 c-46 -131 -92 -222 -174 -343 -127 -187 -147 -238 -157
-400 -5 -74 -2 -121 15 -209 11 -63 23 -116 26 -119 2 -2 3 60 0 139 -4 159 7
278 31 353 9 27 54 104 99 170 92 136 121 189 158 292 24 66 46 194 35 194 -3
0 -18 -35 -33 -77z"/>
<path d="M7450 6648 c0 -71 84 -243 162 -330 45 -51 41 -38 -32 102 -30 58
-69 139 -88 180 -19 41 -36 77 -38 79 -2 2 -4 -12 -4 -31z"/>
<path d="M9909 6585 c-24 -13 -47 -45 -32 -45 12 0 73 42 73 51 0 12 -10 11
-41 -6z"/>
<path d="M8736 6409 c-2 -8 -18 -57 -35 -109 -69 -216 -130 -480 -111 -480 9
0 71 186 99 295 26 107 62 297 56 303 -2 3 -7 -1 -9 -9z"/>
<path d="M7437 6063 c29 -62 82 -151 154 -259 66 -98 186 -254 196 -254 17 0
-192 335 -289 462 -68 90 -85 104 -61 51z"/>
<path d="M7874 6065 c31 -146 97 -309 147 -366 33 -37 34 -39 -13 88 -31 84
-141 313 -134 278z"/>
<path d="M740 5938 c-40 -153 -82 -210 -187 -248 -36 -13 -63 -29 -63 -36 0
-8 24 -25 53 -38 83 -37 116 -87 133 -203 12 -87 19 -85 70 21 55 115 91 154
162 179 29 10 52 22 52 28 0 5 -21 19 -47 30 -27 11 -56 28 -67 37 -41 37 -72
129 -77 225 -3 58 -15 60 -29 5z m39 -222 c12 -20 34 -44 47 -55 24 -19 24
-20 5 -26 -30 -9 -90 -83 -103 -127 -14 -48 -24 -48 -32 0 -7 46 -48 107 -87
131 l-30 19 26 6 c35 9 110 79 126 118 l13 32 7 -31 c3 -17 16 -47 28 -67z"/>
<path d="M9159 5713 c-82 -85 -129 -141 -129 -153 0 -28 37 -1 105 78 124 141
141 195 24 75z"/>
<path d="M7177 5670 c-4 -19 -14 -75 -22 -124 -9 -50 -22 -105 -30 -122 -16
-39 -66 -77 -163 -123 -40 -19 -72 -38 -72 -42 0 -8 9 -11 88 -29 91 -21 137
-81 177 -235 20 -80 32 -98 39 -64 21 101 30 139 43 169 26 64 92 119 186 154
26 10 45 21 42 26 -2 4 -26 10 -52 14 -27 3 -71 19 -99 35 -62 36 -87 85 -104
211 -7 47 -15 103 -19 125 l-8 40 -6 -35z m18 -267 c10 -43 54 -93 97 -113
l39 -17 -23 -15 c-43 -28 -78 -70 -105 -126 -24 -50 -28 -53 -33 -31 -20 74
-93 159 -137 159 -24 0 -13 17 17 30 41 17 108 84 116 115 8 33 20 32 29 -2z"/>
<path d="M9746 5379 c-66 -144 -67 -147 -34 -261 32 -116 33 -147 13 -273 -14
-86 -21 -284 -10 -273 6 5 38 202 54 331 10 73 -5 169 -39 260 l-18 48 40 115
c22 64 37 118 34 121 -3 4 -21 -27 -40 -68z"/>
<path d="M477 5056 c-12 -13 -48 -68 -79 -123 -118 -206 -115 -270 16 -357 95
-63 137 -131 163 -266 22 -111 38 -104 28 13 -12 138 -13 135 56 272 63 125
64 128 64 209 0 98 -19 139 -94 209 -76 71 -117 83 -154 43z m112 -63 c120
-105 133 -229 38 -392 -17 -30 -39 -73 -48 -94 l-15 -39 -27 41 c-15 23 -60
66 -101 95 -75 56 -86 73 -86 136 0 64 132 300 168 300 9 0 42 -21 71 -47z"/>
<path d="M9875 4967 c-25 -26 -45 -52 -45 -58 0 -14 78 48 91 73 21 38 -2 31
-46 -15z"/>
<path d="M9975 4643 c-116 -60 -264 -197 -300 -277 -13 -28 -29 -83 -36 -123
l-13 -72 -41 -5 c-174 -21 -268 -37 -294 -51 -35 -17 -102 -98 -133 -159 -30
-58 -37 -176 -13 -212 15 -23 22 -26 54 -21 43 6 190 62 217 82 17 13 16 14
-16 9 -19 -4 -75 -19 -124 -35 -49 -15 -94 -25 -99 -22 -15 9 0 137 21 185 26
56 83 122 124 141 18 8 82 20 142 26 156 16 158 15 151 -12 -3 -12 -16 -105
-28 -206 l-22 -185 -70 -42 c-74 -45 -142 -113 -231 -231 -51 -67 -56 -71 -82
-63 -70 20 -149 22 -198 5 -68 -23 -165 -70 -199 -96 -28 -23 -85 -104 -85
-122 0 -6 25 14 55 42 72 68 206 133 288 139 32 2 84 -1 117 -7 42 -8 65 -9
79 -2 10 6 48 48 84 93 111 141 138 162 349 269 133 67 185 98 166 99 -22 0
-145 -34 -203 -56 -8 -4 -9 16 -3 73 21 188 62 452 79 508 20 65 51 100 194
220 86 72 148 135 132 135 -7 -1 -34 -13 -62 -27z"/>
<path d="M7035 4629 c-143 -6 -208 -15 -235 -30 -32 -18 449 0 552 20 l43 9
-50 3 c-99 5 -173 5 -310 -2z"/>
<path d="M7405 4200 c-11 -5 -78 -32 -150 -60 -147 -58 -321 -143 -362 -176
-22 -18 5 -11 122 32 168 61 380 161 409 193 20 22 14 25 -19 11z"/>
<path d="M7863 3575 c-17 -7 -59 -42 -93 -76 -82 -84 -137 -197 -143 -290 -6
-82 6 -107 21 -47 9 34 29 60 92 123 44 44 80 83 80 88 0 16 -46 -16 -102 -71
-32 -31 -58 -51 -58 -44 0 48 120 217 198 279 26 20 51 41 57 45 15 13 -17 9
-52 -7z"/>
<path d="M9155 3494 c-9 -14 -14 -28 -11 -32 7 -6 56 37 56 50 0 18 -29 6 -45
-18z"/>
<path d="M9699 3313 c-67 -60 -104 -161 -68 -183 54 -34 142 -13 182 42 29 39
35 132 12 158 -30 33 -78 26 -126 -17z m96 -23 c9 -30 -13 -87 -42 -110 -30
-23 -91 -27 -99 -6 -9 23 24 74 68 106 48 35 64 37 73 10z"/>
<path d="M8225 3076 c-116 -50 -383 -176 -405 -191 -49 -33 -324 -381 -361
-458 l-20 -42 45 -190 c25 -104 54 -225 64 -267 l19 -78 -21 1 c-14 0 -44 29
-91 86 -98 120 -278 317 -313 342 -50 35 -242 74 -499 102 l-112 12 -42 -29
c-24 -16 -138 -123 -256 -238 -168 -164 -215 -216 -223 -245 -12 -47 -57 -327
-65 -411 -6 -59 -4 -71 19 -113 25 -44 25 -48 9 -53 -51 -17 -148 -67 -200
-102 -93 -64 -150 -119 -227 -221 -99 -131 -128 -179 -121 -200 7 -22 114 -72
215 -100 102 -28 266 -61 302 -61 27 0 30 -3 23 -22 -24 -80 -16 -92 95 -148
240 -120 475 -136 756 -49 80 25 108 50 102 91 l-5 31 76 -7 c42 -3 153 -9
246 -12 159 -6 172 -8 195 -30 50 -46 200 -104 349 -135 146 -30 270 -35 371
-14 141 28 362 118 403 162 17 19 16 23 -12 85 -16 36 -40 83 -55 106 -14 23
-26 43 -26 44 0 2 31 2 69 0 66 -3 71 -6 95 -37 18 -23 45 -40 93 -58 244 -90
420 -99 652 -33 150 43 190 63 214 105 17 27 18 37 7 81 -6 27 -27 75 -46 106
-31 52 -33 58 -19 74 20 22 104 45 221 61 51 6 97 15 104 19 14 9 -17 75 -62
132 -37 47 -137 97 -210 105 -47 5 -56 9 -65 32 -21 58 -107 172 -183 244 -92
89 -170 132 -267 148 l-69 11 116 232 c65 127 127 261 139 297 l22 67 -50 133
c-78 211 -130 341 -157 385 -28 50 -57 63 -374 173 -113 40 -236 83 -273 96
-38 14 -74 25 -80 25 -7 -1 -57 -20 -112 -44z m133 -67 c3 -33 -1 -40 -45 -75
-26 -21 -73 -58 -103 -82 -30 -24 -90 -77 -132 -118 l-76 -74 -67 91 c-37 49
-66 91 -64 93 2 1 51 23 109 49 58 25 159 71 225 101 66 30 127 54 135 53 10
-1 16 -15 18 -38z m307 -74 c138 -49 254 -91 258 -95 5 -4 -21 -53 -57 -109
l-66 -102 -113 99 c-61 54 -154 131 -204 171 -81 63 -93 77 -93 103 0 20 4 29
13 26 6 -3 125 -44 262 -93z m-207 -56 c104 -82 302 -259 302 -270 0 -5 -8 -9
-17 -9 -10 0 -84 -16 -166 -37 l-147 -37 -68 21 c-37 11 -123 37 -193 58
l-125 39 65 62 c59 55 262 231 269 233 1 1 37 -26 80 -60z m-556 -149 c30 -41
57 -81 62 -87 7 -13 -5 -37 -136 -270 -37 -67 -68 -127 -68 -133 0 -6 -6 -10
-12 -8 -22 5 -227 162 -228 173 -1 25 310 420 321 407 3 -4 31 -41 61 -82z
m1125 23 c61 -135 164 -406 161 -421 -2 -12 -206 -142 -223 -142 -2 0 -9 17
-15 38 -6 20 -36 112 -66 205 l-55 167 73 110 c40 60 78 109 84 110 6 0 25
-30 41 -67z m-820 -204 c104 -34 192 -64 196 -68 4 -5 -1 -68 -12 -142 -11
-74 -25 -169 -32 -212 -10 -65 -14 -78 -28 -73 -9 3 -135 38 -281 77 -146 40
-267 74 -268 75 -2 1 40 78 93 171 120 207 136 233 141 233 2 0 88 -27 191
-61z m624 -81 c78 -255 88 -292 78 -299 -6 -3 -36 -12 -67 -19 -70 -15 -421
-99 -443 -105 -14 -5 -11 24 17 216 18 121 34 222 36 224 6 6 311 84 330 85
13 0 25 -24 49 -102z m-1205 -193 c57 -44 106 -87 109 -95 11 -26 135 -664
135 -691 0 -7 -9 -6 -25 5 -15 10 -45 16 -79 16 l-54 0 -11 49 c-35 163 -176
737 -191 776 -14 37 -6 33 116 -60z m-794 15 c87 -11 165 -23 174 -27 18 -7
15 -30 -20 -168 l-22 -90 -40 3 c-21 1 -57 5 -79 7 -22 2 -92 9 -155 16 -63 6
-119 14 -123 19 -5 4 -6 68 -2 142 l8 135 51 -8 c28 -5 122 -18 208 -29z
m-302 -105 c0 -117 -2 -137 -18 -152 -10 -10 -66 -57 -125 -106 l-106 -87 -43
16 c-24 8 -64 23 -90 32 -26 9 -47 19 -47 22 0 3 77 77 170 165 92 88 188 179
211 202 24 23 44 42 46 43 1 0 2 -61 2 -135z m2496 -260 l-167 -333 -37 10
c-20 6 -64 8 -98 5 l-61 -4 76 127 c42 70 114 192 161 272 l84 144 101 60 c55
33 102 58 105 56 2 -2 -71 -153 -164 -337z m-1913 293 c52 -49 327 -356 327
-366 0 -14 -14 -18 -117 -33 l-91 -13 -74 59 c-40 33 -91 76 -114 97 l-40 37
30 121 c18 70 36 120 43 120 6 0 23 -10 36 -22z m992 -148 c121 -34 223 -65
226 -69 4 -3 -8 -91 -27 -196 -18 -104 -47 -273 -64 -375 -17 -102 -34 -193
-38 -203 -6 -16 -13 -11 -42 30 -58 81 -111 133 -174 170 -34 19 -62 36 -63
37 -1 1 -32 150 -68 331 -36 182 -69 340 -72 352 l-5 23 53 -19 c30 -10 153
-46 274 -81z m807 18 c-11 -18 -83 -141 -161 -273 l-142 -240 -182 -177 c-100
-97 -183 -176 -184 -174 -2 1 2 27 7 57 22 117 90 500 106 601 l18 106 41 12
c49 15 485 118 503 119 10 1 8 -8 -6 -31z m-2322 -78 c44 -13 283 -50 321 -50
30 0 36 -9 20 -25 -5 -6 -77 -142 -159 -303 l-149 -293 -28 43 c-16 24 -84
129 -151 235 l-122 192 109 96 c60 53 109 101 109 106 0 11 7 11 50 -1z m510
-147 c105 -82 110 -88 105 -117 -3 -17 -19 -148 -35 -291 -16 -143 -33 -281
-36 -307 -6 -44 -11 -51 -78 -102 -72 -55 -154 -136 -212 -210 l-31 -39 -18
74 c-16 64 -69 220 -131 380 l-17 46 133 264 c139 276 199 389 206 389 3 0 54
-39 114 -87z m-937 -24 c43 -18 81 -37 83 -44 4 -9 -73 -319 -79 -320 -1 -1
-37 -11 -81 -23 -43 -13 -80 -21 -83 -19 -2 3 12 100 32 217 19 117 35 214 35
216 0 8 18 3 93 -27z m1445 -156 c17 -71 34 -144 37 -164 l7 -37 -64 -11 c-34
-7 -76 -14 -91 -18 -28 -5 -28 -4 -24 28 3 19 13 100 23 182 l17 147 33 0 32
0 30 -127z m-163 95 c-8 -35 -36 -265 -42 -343 -3 -45 -19 -109 -45 -182 l-40
-111 -57 -4 c-31 -2 -63 -8 -73 -12 -14 -6 -16 -2 -12 31 2 21 13 126 24 233
11 107 25 236 31 286 l11 91 97 15 c53 9 99 16 104 17 4 0 5 -9 2 -21z m-1141
-4 c7 -18 166 -275 258 -419 56 -86 94 -172 171 -386 l35 -96 -131 136 c-73
75 -201 207 -286 293 l-154 157 20 73 c11 40 31 115 44 166 24 92 31 106 43
76z m2760 -139 c85 -18 140 -53 233 -147 81 -83 118 -138 193 -288 29 -58 61
-117 71 -132 19 -26 19 -27 -1 -33 -11 -3 -33 -17 -49 -30 l-28 -24 -31 43
c-52 73 -170 193 -202 206 -43 18 -136 8 -194 -19 -75 -37 -358 -302 -403
-379 l-25 -42 -99 -1 c-54 -1 -105 -2 -111 -3 -7 -1 -38 21 -68 49 -102 94
-147 116 -269 132 -108 14 -109 14 -175 -11 -37 -14 -85 -36 -108 -50 l-40
-24 -49 71 c-101 149 -142 177 -266 177 -35 0 -63 4 -63 8 0 5 13 36 30 70 16
34 38 88 47 121 l18 60 130 31 c71 16 146 30 165 30 50 0 192 -74 257 -133 30
-28 91 -102 135 -164 43 -62 84 -115 89 -119 12 -7 3 35 -17 85 -8 19 -13 36
-11 38 2 1 30 6 63 9 l59 6 70 -64 c64 -59 103 -88 120 -88 15 0 -71 109 -127
161 l-60 55 119 111 c231 216 222 213 472 180 73 -10 136 -15 139 -13 7 8 -76
43 -120 51 l-37 7 20 39 c22 44 26 45 123 24z m-2337 -772 c74 -81 75 -84 63
-113 -7 -16 -14 -30 -16 -30 -2 0 -23 13 -47 30 -73 49 -165 91 -228 104 -43
9 -64 18 -76 36 -9 14 -58 70 -108 125 -166 182 -297 356 -281 373 4 3 37 14
74 24 l67 17 238 -242 c132 -133 273 -279 314 -324z m-601 270 c54 -65 134
-154 177 -199 l77 -81 -102 -42 c-57 -23 -138 -64 -181 -92 -43 -27 -85 -49
-93 -49 -34 0 -334 63 -403 85 -125 40 -124 34 -37 151 85 114 160 187 256
250 61 39 172 93 196 94 5 0 55 -53 110 -117z m3519 85 c48 -18 81 -45 118
-97 l36 -49 -72 -12 c-40 -6 -79 -14 -88 -16 -13 -4 -25 16 -53 86 -20 49 -36
95 -36 101 0 12 44 5 95 -13z m-360 -91 c63 -65 190 -237 223 -303 11 -22 23
-54 27 -72 6 -31 5 -33 -37 -52 -24 -10 -95 -33 -158 -51 -156 -43 -270 -49
-407 -21 -117 24 -263 78 -263 97 0 36 41 98 114 173 l81 84 48 -5 c27 -2 60
-13 74 -24 26 -19 67 -89 112 -193 20 -45 25 -51 28 -32 6 33 -31 149 -65 203
-31 48 -76 81 -127 94 l-30 7 65 59 c81 74 129 98 200 99 54 0 55 -1 115 -63z
m-1811 -57 c64 -8 72 -12 118 -57 27 -26 67 -69 88 -94 l39 -46 -69 -48 c-87
-58 -148 -125 -190 -207 l-33 -63 -274 17 c-151 9 -276 18 -277 20 -30 40 -46
81 -40 100 22 73 201 265 323 346 63 42 64 42 155 42 50 -1 122 -5 160 -10z
m630 -165 c88 -16 133 -44 224 -136 74 -74 188 -237 175 -250 -15 -15 -184
-85 -278 -115 -81 -26 -103 -29 -220 -28 -175 0 -307 29 -472 102 -34 15 -63
32 -63 38 0 17 67 124 107 168 73 81 215 173 337 217 62 22 93 23 190 4z
m-1598 -110 c60 -18 250 -141 289 -187 42 -50 71 -116 58 -129 -6 -6 -65 -25
-130 -41 -157 -40 -323 -43 -453 -9 -89 23 -242 90 -255 110 -10 18 39 86 86
121 55 40 235 128 284 139 57 13 66 13 121 -4z"/>
<path d="M5970 949 c-32 -13 -90 -58 -90 -70 0 -5 32 7 70 26 39 20 68 40 65
45 -7 12 -12 12 -45 -1z"/>
<path d="M8002 540 c-39 -28 -54 -50 -34 -50 15 0 102 60 102 70 0 18 -26 11
-68 -20z"/>
<path d="M6353 540 c-29 -17 -46 -50 -27 -50 12 0 94 55 94 63 0 13 -35 7 -67
-13z"/>
<path d="M9483 3030 c-41 -38 -83 -152 -83 -224 0 -53 23 -61 101 -35 126 41
159 68 159 125 0 38 -37 112 -65 130 -40 26 -87 28 -112 4z m87 -59 c30 -30
46 -71 37 -95 -6 -15 -94 -59 -139 -70 -25 -6 -28 -4 -28 19 0 29 31 115 55
151 20 32 40 30 75 -5z"/>
<path d="M350 3005 c52 -12 123 -28 157 -35 58 -12 65 -16 92 -59 16 -25 39
-68 51 -96 28 -66 102 -195 111 -195 27 0 -93 269 -146 328 -40 44 -43 45
-145 63 -58 10 -130 18 -160 18 l-55 -1 95 -23z"/>
<path d="M7168 2713 c-39 -42 -58 -87 -58 -136 0 -50 13 -67 52 -67 54 0 138
101 138 168 0 63 -84 85 -132 35z m90 -15 c22 -22 13 -57 -25 -98 -41 -46 -72
-66 -83 -53 -4 4 -10 23 -14 41 -5 29 0 38 35 77 42 46 65 55 87 33z"/>
<path d="M9939 2556 c-72 -20 -167 -76 -205 -120 -19 -22 -46 -64 -60 -93 -25
-54 -94 -291 -94 -326 0 -10 -27 -49 -61 -85 -125 -137 -126 -163 -2 -53 95
85 131 130 112 141 -10 7 -6 33 20 127 18 64 46 145 62 179 48 101 135 167
281 210 96 29 47 47 -53 20z"/>
<path d="M5295 2161 c-97 -24 -124 -75 -58 -110 31 -16 164 -14 220 5 52 17
85 47 77 68 -12 32 -164 55 -239 37z m175 -41 c25 -7 24 -8 -13 -24 -69 -30
-223 -30 -221 0 1 29 163 46 234 24z"/>
<path d="M600 1862 c-64 -31 -45 -112 27 -112 46 0 126 23 144 41 27 27 24 47
-13 69 -41 25 -111 26 -158 2z m152 -30 c17 -17 -37 -43 -101 -49 -51 -5 -62
-3 -67 11 -9 23 15 46 57 55 37 8 95 -1 111 -17z"/>
<path d="M9695 1701 c-25 -11 -60 -49 -52 -57 5 -6 97 52 97 61 0 7 -22 5 -45
-4z"/>
<path d="M5742 1614 c-12 -8 -22 -21 -22 -29 0 -12 5 -12 28 -2 16 7 39 20 53
29 l24 17 -30 0 c-17 1 -41 -6 -53 -15z"/>
<path d="M4067 914 c-24 -24 38 -32 69 -9 18 13 16 14 -22 15 -22 0 -44 -3
-47 -6z"/>
<path d="M5001 903 c-25 -10 -57 -34 -75 -56 -29 -36 -30 -40 -15 -65 23 -42
55 -54 134 -48 92 7 172 29 198 55 72 71 -121 162 -242 114z m170 -54 c27 -12
48 -27 46 -33 -5 -17 -124 -45 -193 -45 -96 -1 -108 32 -29 81 41 24 114 23
176 -3z"/>
<path d="M659 895 c-145 -53 -222 -133 -175 -181 27 -26 130 -45 281 -51 212
-8 253 11 209 100 -23 45 -82 105 -126 128 -44 22 -134 25 -189 4z m154 -36
c74 -39 141 -119 118 -142 -11 -11 -209 -12 -306 -2 -33 4 -75 13 -94 21 -29
12 -32 16 -21 29 62 75 237 128 303 94z"/>
<path d="M4277 853 c-25 -24 14 -33 88 -21 39 7 53 13 44 19 -16 10 -123 12
-132 2z"/>
<path d="M9751 831 c-20 -13 58 -33 112 -29 l42 3 -32 18 c-34 18 -99 23 -122
8z"/>
<path d="M3597 786 c-99 -34 -174 -75 -184 -102 -14 -36 73 -86 184 -105 90
-16 294 -7 358 16 95 33 106 62 48 127 -94 103 -230 125 -406 64z m279 -32
c22 -8 57 -32 78 -53 l38 -39 -30 -16 c-63 -32 -252 -46 -354 -25 -77 15 -148
39 -148 50 0 20 124 68 241 94 69 14 111 12 175 -11z"/>
<path d="M1237 676 c-105 -43 -227 -155 -227 -208 0 -12 12 -24 34 -33 149
-63 576 -56 576 8 0 11 28 15 134 19 163 6 209 23 214 76 4 45 -33 119 -72
143 -39 24 -126 25 -187 4 -48 -17 -93 -55 -115 -98 l-15 -28 -52 44 c-125
107 -176 119 -290 73z m225 -77 c74 -55 131 -115 125 -132 -7 -22 -66 -30
-232 -30 -122 0 -188 5 -234 16 -34 9 -66 19 -70 22 -10 11 100 107 157 138
57 31 124 48 162 40 13 -2 55 -27 92 -54z m423 19 c29 -34 42 -75 28 -89 -13
-13 -111 -28 -208 -31 l-80 -3 -3 31 c-6 58 54 108 150 122 68 10 83 6 113
-30z"/>
<path d="M2410 550 c0 -5 20 -10 44 -10 25 0 48 5 51 10 4 6 -13 10 -44 10
-28 0 -51 -4 -51 -10z"/>
<path d="M5075 515 c-47 -26 -44 -28 26 -21 37 4 112 2 167 -4 121 -14 144
-10 77 14 -72 26 -231 32 -270 11z"/>
<path d="M3363 433 c-49 -9 -19 -23 50 -23 39 0 90 -2 112 -5 l40 -5 -40 20
c-38 18 -105 24 -162 13z"/>
<path d="M2730 408 c-22 -10 -15 -12 55 -19 44 -4 133 -19 198 -33 144 -31
180 -33 118 -4 -115 53 -311 82 -371 56z"/>
<path d="M5560 367 c-19 -7 -44 -19 -55 -26 -17 -10 -10 -11 44 -7 35 3 99 6
142 6 44 0 79 4 79 9 0 12 -89 31 -138 31 -20 -1 -53 -7 -72 -13z"/>
<path d="M7169 323 c-47 -24 -54 -32 -57 -60 -3 -28 2 -36 30 -53 28 -18 43
-20 98 -15 87 9 147 36 156 69 19 77 -120 112 -227 59z m177 -37 c18 -14 17
-16 -21 -32 -23 -10 -68 -17 -105 -18 -54 -1 -65 2 -68 17 -8 39 149 66 194
33z"/>
</g>
</svg>
