<?xml version="1.0" encoding="UTF-8" standalone="yes"?>
<svg version="1.0" xmlns="http://www.w3.org/2000/svg" width="1024.000000pt" height="1024.000000pt" viewBox="0 0 1024.000000 1024.000000" preserveAspectRatio="xMidYMid meet">
  <metadata>
Created by potrace 1.16, written by Peter Selinger 2001-2019
</metadata>
  <g transform="translate(0.000000,1024.000000) scale(0.100000,-0.100000)" fill="#000000" stroke="none">
    <path d="M8153 9728 c-6 -7 -17 -51 -26 -98 -10 -47 -31 -113 -47 -147 -47&#xA;-95 -79 -116 -257 -169 -7 -2 -13 -10 -13 -17 0 -21 20 -34 63 -41 89 -14 161&#xA;-66 197 -144 12 -26 34 -94 49 -152 22 -87 30 -105 46 -105 13 0 21 10 26 30&#xA;4 17 14 64 24 105 37 158 102 236 229 270 46 13 61 21 61 35 0 14 -19 24 -81&#xA;44 -45 15 -96 39 -116 56 -49 41 -87 128 -104 238 -9 50 -17 94 -20 99 -7 12&#xA;-20 10 -31 -4z m81 -332 c33 -44 77 -75 122 -88 l35 -9 -50 -26 c-28 -13 -67&#xA;-43 -86 -65 -34 -40 -85 -154 -85 -193 -1 -11 -14 15 -30 59 -39 104 -81 159&#xA;-151 194 l-55 29 47 16 c63 23 129 96 159 178 l23 61 22 -61 c12 -33 34 -76&#xA;49 -95z"/>
    <path d="M1877 9618 c-8 -13 -45 -81 -82 -153 -37 -71 -72 -133 -77 -136 -5&#xA;-3 -73 -9 -151 -12 -190 -9 -227 -15 -227 -37 0 -19 42 -70 152 -186 38 -39&#xA;68 -78 68 -87 0 -10 -20 -90 -45 -179 -25 -89 -45 -171 -43 -182 5 -35 34 -30&#xA;125 22 49 27 99 53 112 57 23 7 23 6 16 -31 -4 -21 -17 -131 -31 -244 -13&#xA;-113 -44 -380 -69 -595 -25 -214 -52 -453 -60 -530 -8 -77 -18 -162 -22 -189&#xA;l-6 -48 -41 5 c-46 7 -109 -16 -137 -49 -22 -25 -39 -79 -39 -120 0 -19 -5&#xA;-34 -11 -34 -5 0 -22 -26 -37 -57 -23 -50 -28 -74 -31 -168 -8 -266 -8 -277&#xA;19 -323 26 -46 93 -97 142 -107 30 -7 30 -7 25 -64 -2 -31 -13 -127 -23 -213&#xA;-16 -137 -16 -160 -4 -183 19 -35 59 -55 110 -55 77 0 90 20 110 163 5 43 10&#xA;80 10 81 0 1 22 -2 49 -7 l49 -10 42 -87 42 -86 -15 -120 c-61 -456 -56 -849&#xA;14 -1129 69 -275 154 -358 432 -416 152 -32 310 -35 457 -9 69 12 165 35 214&#xA;51 49 16 92 27 94 24 9 -9 -128 -432 -213 -660 -110 -293 -294 -646 -473 -905&#xA;-141 -206 -360 -464 -490 -578 -104 -91 -114 -148 -38 -226 99 -101 342 -198&#xA;569 -227 51 -7 91 -17 93 -24 7 -17 -105 -271 -162 -369 -82 -138 -87 -151&#xA;-79 -198 6 -32 19 -54 61 -95 55 -56 105 -82 189 -102 79 -18 95 -19 186 -20&#xA;l85 -1 17 -35 c19 -40 64 -66 164 -93 80 -23 260 -29 323 -12 41 11 44 10 133&#xA;-44 151 -91 333 -150 592 -192 139 -23 583 -26 745 -6 192 25 400 62 537 97&#xA;l135 35 43 -30 c100 -69 340 -118 492 -100 88 10 157 26 303 71 178 54 221 59&#xA;488 58 305 -2 398 12 556 85 91 42 136 84 136 124 0 35 -6 33 147 61 152 29&#xA;323 97 307 123 -5 7 -3 8 5 3 23 -14 74 46 92 107 7 27 2 36 -77 120 -116 124&#xA;-116 124 -53 137 75 16 196 13 371 -9 293 -37 439 -31 608 25 109 36 171 67&#xA;219 110 71 65 61 91 -59 151 -346 172 -671 521 -947 1019 -28 50 -65 122 -83&#xA;160 -126 271 -183 408 -243 585 -20 58 -46 128 -58 155 -12 28 -23 51 -23 53&#xA;-1 1 42 4 94 6 245 10 391 136 484 418 42 125 72 271 86 416 18 196 9 665 -16&#xA;783 -5 26 -4 27 53 31 176 14 405 173 610 423 197 241 272 420 214 513 -12 17&#xA;-28 32 -36 32 -13 0 -15 7 -10 33 9 46 -17 104 -50 117 -15 6 -43 10 -64 10&#xA;-30 0 -42 6 -59 30 -33 44 -85 56 -153 36 -87 -25 -174 -88 -330 -243 l-147&#xA;-145 -11 52 c-14 65 -57 176 -83 212 -27 38 -101 80 -144 81 -29 1 -42 -5 -61&#xA;-28 -24 -29 -24 -33 -18 -145 4 -63 10 -151 14 -195 3 -44 3 -120 -1 -169 -6&#xA;-81 -10 -92 -37 -119 -22 -22 -38 -30 -63 -29 -18 1 -88 -21 -158 -48 -177&#xA;-69 -332 -100 -547 -107 l-172 -6 -56 52 c-85 77 -227 157 -359 202 l-79 26&#xA;36 12 c195 65 411 238 493 397 68 130 89 223 88 394 0 119 -5 169 -27 275 -15&#xA;72 -33 150 -41 175 -14 49 -11 67 33 162 62 137 131 362 177 580 51 243 66&#xA;371 69 613 5 339 -14 510 -81 715 -59 185 -154 313 -271 368 -50 23 -74 27&#xA;-174 30 -203 7 -464 -60 -744 -190 -240 -111 -525 -260 -518 -271 3 -6 1 -7&#xA;-5 -3 -6 4 -36 -7 -66 -23 -47 -25 -61 -28 -93 -21 -73 16 -309 40 -398 40&#xA;l-90 0 -55 45 c-235 195 -557 258 -767 151 -196 -99 -312 -262 -503 -711 -85&#xA;-199 -229 -496 -295 -610 -136 -234 -282 -541 -337 -709 -58 -181 -72 -265&#xA;-72 -426 -1 -179 17 -264 84 -404 59 -123 169 -274 191 -260 8 4 9 3 5 -5 -9&#xA;-14 17 -39 109 -108 33 -25 61 -46 62 -47 1 -1 -49 2 -110 6 -147 10 -257 31&#xA;-386 74 -161 55 -277 118 -476 263 -121 89 -167 113 -216 115 l-37 1 -12 75&#xA;c-24 147 -107 360 -201 516 -33 54 -90 94 -133 94 -15 0 -17 6 -12 38 8 46&#xA;135 1313 153 1510 3 44 10 72 17 72 7 0 54 -34 105 -75 81 -65 96 -73 113 -64&#xA;23 12 22 31 -2 294 -8 90 -8 101 8 113 95 71 243 172 251 172 6 0 11 9 11 20&#xA;0 25 -25 35 -200 84 -74 21 -139 41 -143 46 -4 4 -32 78 -62 165 -67 193 -79&#xA;211 -108 163z m74 -244 c23 -66 49 -123 58 -129 9 -5 78 -28 154 -51 l138 -40&#xA;-125 -82 -125 -82 5 -58 c3 -31 9 -95 15 -142 5 -47 9 -100 9 -118 l0 -32&#xA;-112 91 c-62 50 -123 96 -135 101 -17 9 -43 -1 -145 -52 -67 -34 -129 -68&#xA;-137 -74 -11 -9 -13 -7 -8 9 30 102 77 290 77 310 0 13 -6 28 -12 32 -35 22&#xA;-180 185 -172 192 5 5 76 12 158 15 83 4 155 11 161 16 6 5 35 56 65 112 29&#xA;57 58 109 63 116 14 18 17 11 68 -134z m4987 42 c103 -35 197 -152 258 -322&#xA;42 -117 59 -194 73 -334 39 -393 14 -704 -89 -1135 -42 -171 -142 -465 -160&#xA;-465 -4 0 -26 55 -48 123 -44 129 -91 249 -92 232 -1 -19 52 -239 91 -380 114&#xA;-414 130 -579 78 -782 -62 -244 -256 -427 -575 -542 -140 -51 -476 -117 -649&#xA;-128 l-101 -6 -12 27 c-16 35 -15 36 6 36 60 0 331 167 428 264 171 172 244&#xA;345 244 580 0 171 -40 321 -141 531 -87 182 -167 308 -620 980 -333 494 -441&#xA;636 -608 800 -33 32 -57 62 -52 65 10 6 197 -4 276 -15 191 -26 336 -64 476&#xA;-125 325 -141 572 -378 829 -797 24 -40 46 -71 48 -68 6 6 -76 174 -129 264&#xA;-120 200 -315 404 -518 541 -73 49 -275 147 -322 157 -18 3 -52 14 -76 23&#xA;l-44 17 183 95 c438 229 698 334 918 368 41 7 82 13 90 15 42 8 193 -4 238&#xA;-19z m-2472 -224 c195 -52 301 -122 514 -338 91 -92 157 -164 147 -161 -9 4&#xA;-45 25 -79 48 -128 87 -316 166 -452 190 -86 15 -279 6 -361 -16 -33 -9 -103&#xA;-37 -155 -63 -125 -61 -219 -152 -276 -267 -36 -73 -39 -85 -39 -164 0 -92 10&#xA;-129 57 -200 18 -27 25 -47 20 -55 -5 -6 -44 -56 -88 -111 -87 -109 -118 -149&#xA;-304 -396 -256 -341 -351 -551 -349 -778 0 -118 21 -203 73 -295 44 -78 147&#xA;-188 220 -234 39 -25 55 -45 88 -109 22 -43 58 -102 80 -131 41 -56 138 -154&#xA;176 -179 36 -25 26 -33 -38 -33 -33 0 -77 -7 -97 -15 -36 -15 -37 -15 -137 34&#xA;-313 153 -505 411 -547 736 -26 198 23 428 157 742 43 100 170 346 235 454 67&#xA;113 185 351 273 554 173 398 259 551 367 656 59 57 147 110 222 134 64 20 211&#xA;18 293 -3z m104 -313 c112 -18 243 -68 377 -144 295 -167 280 -156 349 -251&#xA;35 -48 64 -91 64 -95 0 -4 -8 -9 -17 -13 -10 -3 -34 -15 -53 -27 -57 -35 -207&#xA;-89 -320 -116 -132 -31 -353 -42 -467 -23 -163 26 -287 94 -355 194 l-41 61 6&#xA;-44 c3 -26 18 -61 36 -86 l31 -43 -43 -25 c-24 -14 -67 -47 -95 -72 l-51 -46&#xA;-45 30 c-172 119 -180 318 -19 491 85 93 165 142 292 180 123 38 239 47 351&#xA;29z m-2735 -208 c-3 -53 -10 -134 -15 -181 -5 -47 -16 -159 -25 -250 -9 -91&#xA;-18 -181 -20 -200 -2 -19 -13 -129 -25 -245 -11 -115 -24 -250 -30 -300 -5&#xA;-49 -17 -166 -26 -260 -12 -130 -21 -176 -35 -197 -10 -14 -24 -49 -31 -77&#xA;l-13 -51 -23 34 c-23 34 -23 34 -8 122 9 49 20 132 26 184 18 172 21 194 35&#xA;310 8 63 24 198 35 300 11 102 29 259 40 350 11 91 29 251 41 355 21 194 30&#xA;222 66 208 13 -5 14 -21 8 -102z m3573 -443 c37 -178 122 -381 258 -610 92&#xA;-156 148 -272 179 -371 26 -83 27 -95 22 -225 -4 -105 -13 -167 -36 -267 -53&#xA;-221 -50 -404 9 -517 11 -21 20 -43 20 -49 0 -20 -135 -151 -215 -208 -101&#xA;-73 -189 -121 -285 -156 -239 -86 -339 -128 -577 -241 -68 -32 -75 -34 -100&#xA;-20 -95 48 -295 75 -359 48 -31 -13 -34 -12 -115 50 -46 35 -120 88 -164 118&#xA;-327 219 -462 353 -537 531 -76 181 -80 432 -9 620 26 68 70 137 180 283 101&#xA;135 105 141 126 243 l18 81 37 -24 38 -25 -20 -52 c-64 -169 -10 -334 133&#xA;-406 34 -17 70 -31 80 -31 17 0 17 -3 3 -35 -18 -44 -18 -116 0 -160 35 -84&#xA;138 -157 239 -171 62 -9 149 19 195 61 31 29 35 36 23 47 -8 7 -11 8 -8 2 8&#xA;-13 -123 -64 -166 -64 -48 0 -129 26 -162 52 -44 34 -85 107 -85 149 0 85 43&#xA;138 138 170 64 21 157 23 204 4 24 -10 36 22 16 42 -9 8 -34 17 -56 20 -41 5&#xA;-41 6 -28 32 41 81 46 238 9 335 -38 101 -148 186 -241 186 -89 0 -131 -19&#xA;-199 -88 l-63 -65 -26 24 c-48 45 -57 74 -45 145 41 230 178 457 333 548 l45&#xA;26 59 -29 c134 -64 225 -83 399 -82 213 1 418 49 595 139 52 27 100 49 105 50&#xA;6 1 21 -49 33 -110z m256 -283 c329 -486 461 -695 535 -850 106 -219 141 -347&#xA;140 -515 0 -146 -31 -261 -101 -375 -17 -27 -31 -55 -31 -62 0 -7 -4 -10 -8&#xA;-8 -3 3 -12 -2 -19 -10 -18 -21 -115 -19 -165 4 -60 27 -120 100 -146 179 -36&#xA;106 -31 225 16 447 81 383 50 516 -227 981 -91 154 -188 389 -205 499 -5 37 1&#xA;30 69 -75 40 -63 104 -160 142 -215z m-1704 159 c0 -2 -17 -30 -37 -61 -78&#xA;-122 -121 -255 -148 -453 -27 -202 -36 -224 -137 -346 -126 -154 -183 -257&#xA;-219 -396 -24 -97 -31 -264 -15 -370 7 -45 8 -78 3 -78 -5 0 -44 35 -86 78&#xA;-151 151 -201 329 -155 549 38 185 134 359 354 639 52 67 157 203 233 302&#xA;l138 181 34 -20 c19 -12 35 -23 35 -25z m271 -495 c48 -16 104 -73 130 -133&#xA;19 -41 23 -70 24 -146 0 -82 -4 -102 -25 -145 -22 -44 -33 -54 -90 -81 -36&#xA;-17 -88 -37 -116 -44 -48 -12 -55 -11 -110 14 -100 46 -151 135 -141 251 12&#xA;153 131 295 247 295 26 0 62 -5 81 -11z m-2721 -577 c10 -5 15 -22 16 -50 1&#xA;-33 8 -50 31 -75 76 -79 113 -173 81 -205 -28 -28 -118 -2 -177 52 -78 71&#xA;-108 210 -56 261 24 25 71 32 105 17z m290 -34 c18 -18 66 -101 107 -184 95&#xA;-194 134 -338 132 -487 -1 -54 1 -100 4 -103 10 -11 37 55 37 91 0 106 68 -44&#xA;95 -210 23 -141 17 -503 -11 -680 l-7 -40 -49 55 c-66 74 -155 205 -254 375&#xA;l-82 140 47 18 c27 9 57 27 67 39 19 21 19 21 -1 14 -74 -27 -214 -31 -239 -6&#xA;-5 5 -8 56 -7 121 2 93 6 114 22 130 23 23 33 60 25 96 -5 28 -5 28 9 -2 19&#xA;-43 100 -119 116 -110 8 5 10 4 5 -3 -5 -8 1 -12 15 -12 l22 0 -24 23 c-34 32&#xA;-86 109 -108 158 -17 38 -18 45 -5 64 8 12 16 37 17 54 1 20 6 30 15 26 7 -2&#xA;12 3 12 13 0 31 -30 145 -61 236 -35 101 -33 148 6 190 32 34 56 33 95 -6z&#xA;m-446 -181 c34 -82 117 -147 222 -175 49 -12 72 -24 87 -44 29 -38 25 -87 -9&#xA;-116 -24 -21 -34 -23 -88 -17 -88 9 -201 67 -241 123 -25 37 -30 53 -30 105 0&#xA;53 27 157 41 157 2 0 10 -15 18 -33z m-28 -307 c64 -56 184 -99 275 -100 34 0&#xA;35 -1 37 -39 2 -35 -2 -43 -34 -67 -32 -25 -45 -28 -108 -28 -139 0 -216 73&#xA;-216 204 0 33 3 60 6 60 4 0 22 -13 40 -30z m1021 -296 c291 -219 574 -320&#xA;931 -330 90 -2 162 -9 175 -16 12 -6 40 -17 62 -24 22 -7 33 -13 24 -13 -20&#xA;-1 -85 -111 -104 -178 -23 -79 -43 -244 -43 -362 l-1 -103 -64 -127 c-142&#xA;-277 -185 -477 -142 -660 9 -35 14 -65 13 -66 -2 -1 -37 -20 -78 -42 -300&#xA;-163 -709 -202 -992 -97 -68 26 -148 76 -148 94 0 5 11 39 25 75 68 180 170&#xA;708 216 1110 23 209 25 503 4 643 -16 107 -40 198 -55 207 -6 3 -10 10 -10 16&#xA;0 10 56 -28 187 -127z m6511 104 c7 -7 12 -15 12 -19 0 -4 -31 -32 -70 -63&#xA;-119 -97 -309 -326 -270 -326 7 0 74 61 149 135 177 174 231 215 286 215 49 0&#xA;65 -13 65 -57 0 -27 -7 -37 -44 -62 -97 -67 -279 -317 -264 -363 4 -12 46 34&#xA;157 175 117 148 165 183 202 146 49 -49 -6 -197 -137 -371 -241 -320 -470&#xA;-490 -673 -501 -79 -4 -93 -11 -65 -31 18 -14 16 -17 -36 -73 -31 -32 -73 -79&#xA;-94 -105 -48 -60 -175 -169 -293 -252 l-93 -66 0 55 c0 134 57 409 120 585 23&#xA;63 43 125 43 137 1 11 4 20 7 18 3 -2 18 20 33 50 16 29 39 63 53 76 l24 22 0&#xA;-50 c0 -62 16 -110 41 -124 18 -9 19 -8 12 18 -4 15 -6 84 -4 153 6 172 6 426&#xA;0 537 -5 113 2 123 60 93 27 -13 53 -38 72 -68 37 -59 76 -181 85 -267 4 -36&#xA;10 -64 13 -63 4 2 46 46 93 98 164 182 281 283 383 331 64 31 113 37 133 17z&#xA;m-7262 -140 c-3 -29 -13 -123 -21 -208 -18 -172 -25 -200 -54 -200 -31 0 -70&#xA;21 -76 41 -3 10 1 66 9 126 8 59 18 147 21 195 l7 87 42 4 c22 2 49 4 60 5 16&#xA;2 18 -3 12 -50z m4325 -54 c23 -28 113 -67 155 -68 l42 -1 -19 -23 c-43 -55&#xA;-181 -147 -338 -224 -78 -39 -85 -41 -115 -28 -17 7 -60 20 -96 30 l-64 17 61&#xA;32 c83 41 253 171 306 232 23 27 45 49 48 49 4 0 12 -7 20 -16z m3216 -110&#xA;c-3 -3 -12 -4 -19 -1 -8 3 -5 6 6 6 11 1 17 -2 13 -5z m-5331 -185 c38 -12 90&#xA;-32 116 -45 61 -31 278 -176 301 -202 17 -19 17 -21 -8 -58 -14 -21 -31 -57&#xA;-37 -81 -5 -24 -11 -43 -12 -43 0 0 -33 7 -71 15 -77 16 -182 19 -204 6 -22&#xA;-14 0 -20 105 -31 174 -18 160 -11 168 -93 3 -40 7 -84 9 -98 2 -21 -15 -40&#xA;-103 -113 -247 -205 -368 -258 -476 -205 -105 50 -144 170 -144 441 0 260 57&#xA;450 152 508 44 26 117 26 204 -1z m1743 -70 c111 -24 151 -99 151 -290 0 -122&#xA;-17 -221 -66 -391 -94 -327 -211 -436 -414 -384 -189 48 -381 190 -527 391&#xA;-81 112 -102 168 -70 192 27 23 179 36 326 29 159 -7 171 1 42 30 -58 13 -102&#xA;15 -195 11 -67 -3 -132 -9 -145 -13 -23 -7 -24 -5 -18 25 12 58 39 101 81 130&#xA;55 37 306 150 491 222 132 52 158 59 222 59 40 0 94 -5 122 -11z m1111 -105&#xA;c99 -47 210 -114 210 -126 0 -5 -34 -8 -75 -8 -101 0 -166 -15 -260 -60 -104&#xA;-50 -190 -112 -350 -251 -207 -181 -345 -276 -481 -330 -88 -35 -99 -36 -84&#xA;-9 28 52 97 297 120 426 12 68 15 253 5 307 l-7 34 134 6 c85 3 182 14 268 32&#xA;133 26 280 61 287 69 6 6 133 -43 233 -90z m-4756 -23 c58 -95 151 -215 201&#xA;-259 l47 -41 -12 -78 c-55 -374 -130 -733 -181 -869 l-22 -57 -14 27 c-38 72&#xA;-87 277 -104 433 -12 121 -13 433 0 568 23 240 34 335 42 335 4 0 24 -26 43&#xA;-59z m5926 -103 c-71 -135 -140 -372 -177 -608 -24 -158 -24 -489 0 -655 41&#xA;-275 135 -532 220 -600 27 -21 30 -27 17 -35 -37 -25 -102 -35 -215 -34 -127&#xA;0 -210 17 -421 84 -259 82 -582 247 -859 438 -86 59 -331 257 -343 277 -8 14&#xA;-52 39 -52 29 0 -18 76 -127 106 -152 l34 -28 -27 -25 c-197 -181 -514 -311&#xA;-933 -383 -232 -40 -362 -49 -599 -43 -218 6 -291 15 -501 61 -234 51 -418&#xA;115 -544 190 -103 61 -229 184 -266 259 -67 137 -66 296 1 507 22 70 121 284&#xA;135 293 5 3 10 -11 11 -32 3 -90 70 -198 146 -237 43 -23 154 -30 203 -14 44&#xA;15 157 82 191 113 37 34 34 16 -8 -51 -22 -34 -64 -109 -94 -167 -106 -208&#xA;-122 -326 -54 -402 52 -59 122 -111 191 -142 85 -38 122 -46 137 -27 6 8 30&#xA;103 52 213 64 315 178 713 205 713 41 0 42 -3 36 -208 -8 -338 33 -722 82&#xA;-754 16 -11 90 -10 166 2 77 12 212 75 254 119 26 27 29 37 27 86 -2 74 -113&#xA;441 -162 538 -11 20 -16 37 -12 37 3 0 32 -22 62 -48 117 -101 253 -175 363&#xA;-198 153 -33 262 1 347 108 34 43 52 58 72 58 39 0 127 29 199 65 85 43 178&#xA;110 325 234 404 341 505 385 790 344 262 -37 608 11 835 116 101 47 106 43 60&#xA;-41z m-3315 31 c22 -5 64 -17 94 -25 l53 -15 -20 -22 c-53 -58 -76 -154 -70&#xA;-288 l5 -99 -61 0 c-81 1 -185 22 -227 46 -118 68 -95 330 36 393 45 22 128&#xA;27 190 10z m-259 -444 c20 -14 43 -25 50 -25 25 0 24 -18 -6 -89 -56 -137&#xA;-138 -455 -178 -698 -10 -59 -24 -109 -30 -111 -16 -5 -133 50 -179 85 -83 62&#xA;-103 92 -103 153 0 129 199 497 364 673 19 20 37 37 40 37 3 0 22 -11 42 -25z&#xA;m3967 -415 c1 -255 -2 -335 -16 -420 -33 -196 -76 -353 -123 -437 -64 -117&#xA;-126 -188 -152 -174 -7 4 -30 30 -51 59 -98 130 -183 469 -197 787 l-6 130 68&#xA;40 c155 90 340 248 419 358 l40 56 8 -42 c5 -23 9 -184 10 -357z m-3565 308&#xA;c71 -131 148 -333 208 -543 42 -147 43 -180 7 -211 -68 -58 -199 -104 -298&#xA;-104 -51 0 -48 -5 -69 130 -29 181 -49 687 -30 758 6 20 12 22 70 22 43 0 64&#xA;4 64 12 0 19 15 -1 48 -64z m-1403 -785 l37 -56 -30 -56 c-141 -264 -336 -865&#xA;-537 -1656 -42 -165 -94 -363 -116 -440 -35 -123 -116 -380 -125 -396 -5 -10&#xA;-145 12 -260 41 -226 57 -424 172 -424 247 0 10 60 79 133 153 124 126 261&#xA;286 335 390 67 93 210 307 247 370 196 325 375 751 509 1213 l52 178 64 33&#xA;c36 18 68 34 71 34 3 1 23 -23 44 -55z m3008 -76 c45 -35 117 -87 159 -116 93&#xA;-61 84 -48 287 -451 236 -469 326 -680 632 -1500 131 -347 170 -441 256 -613&#xA;81 -162 158 -280 239 -365 35 -37 64 -70 64 -73 0 -3 -17 -26 -39 -50 -58 -67&#xA;-144 -104 -308 -135 -76 -15 -155 -30 -175 -34 -37 -7 -38 -6 -121 79 -216&#xA;222 -420 528 -631 946 -36 72 -65 127 -66 123 -1 -19 67 -205 104 -283 162&#xA;-342 452 -743 651 -902 49 -38 44 -52 -36 -101 -127 -77 -283 -102 -614 -100&#xA;-265 2 -224 8 -525 -81 -153 -45 -276 -58 -401 -42 -181 22 -282 64 -361 149&#xA;-60 64 -157 193 -207 275 -130 212 -339 687 -426 967 -94 301 -232 940 -280&#xA;1295 -16 119 -45 392 -50 470 -3 50 -8 100 -11 113 l-5 23 163 -5 c217 -7 402&#xA;7 638 49 410 72 760 218 930 389 19 19 39 35 43 35 5 1 45 -28 90 -62z m-2907&#xA;-38 c32 -35 176 -127 266 -169 108 -50 240 -94 393 -130 85 -19 119 -31 118&#xA;-41 -1 -8 -18 -68 -38 -134 -59 -196 -103 -376 -155 -630 -27 -132 -69 -334&#xA;-94 -450 -25 -115 -54 -255 -66 -309 -12 -55 -36 -163 -55 -240 -18 -78 -41&#xA;-172 -50 -211 -63 -277 -186 -645 -296 -887 -85 -186 -110 -224 -157 -232 -68&#xA;-11 -188 -6 -262 10 -74 17 -158 57 -167 80 -2 7 30 52 71 100 72 83 171 223&#xA;231 324 47 81 161 323 198 420 69 185 47 164 -63 -58 -157 -318 -258 -483&#xA;-413 -672 l-58 -70 -62 6 c-197 16 -283 38 -358 90 -80 55 -90 110 -36 196&#xA;156 243 291 634 494 1428 72 282 192 706 254 898 80 245 262 701 280 702 3 0&#xA;14 -9 25 -21z m3296 -217 c80 -48 232 -126 326 -167 l74 -32 93 -274 c194&#xA;-574 312 -860 478 -1163 197 -357 472 -650 697 -742 87 -35 103 -29 35 13&#xA;-428 265 -728 708 -1020 1508 -72 196 -215 619 -211 623 2 1 62 -15 132 -36&#xA;71 -22 172 -49 225 -61 l97 -22 7 -45 c8 -53 96 -319 153 -459 207 -516 466&#xA;-923 774 -1220 150 -145 246 -215 397 -290 l114 -58 -24 -19 c-41 -33 -184&#xA;-98 -266 -119 -96 -26 -274 -35 -398 -20 -389 45 -378 44 -465 33 -47 -6 -97&#xA;-14 -111 -17 -24 -4 -30 3 -86 108 -87 162 -145 299 -312 746 -217 577 -337&#xA;875 -466 1151 -86 183 -252 507 -285 557 -16 24 -27 43 -25 43 3 0 33 -17 67&#xA;-38z m-2357 -135 l70 -12 7 -150 c11 -248 58 -608 119 -910 94 -466 189 -831&#xA;276 -1065 76 -206 272 -625 364 -780 21 -36 77 -114 124 -174 48 -59 85 -109&#xA;83 -110 -6 -5 -302 -65 -393 -80 -272 -45 -587 -61 -825 -43 -224 17 -494 83&#xA;-641 157 -81 41 -149 90 -149 106 0 7 13 35 28 61 60 101 156 335 228 552 110&#xA;334 193 677 369 1526 80 388 110 516 176 753 58 206 42 190 164 169z"/>
    <path d="M4123 8012 c-97 -34 -185 -117 -169 -158 5 -12 17 -7 63 25 67 48&#xA;167 81 247 81 49 0 57 2 54 17 -8 43 -117 63 -195 35z"/>
    <path d="M5018 7985 c-48 -27 -35 -41 50 -54 102 -16 202 -55 260 -100 26 -21&#xA;57 -43 70 -50 20 -11 22 -10 22 17 0 45 -66 112 -154 157 -62 31 -88 39 -148&#xA;42 -53 2 -80 -1 -100 -12z"/>
    <path d="M4997 7579 c-113 -18 -203 -88 -256 -199 -22 -47 -26 -68 -26 -150 0&#xA;-87 3 -101 33 -165 37 -79 88 -136 147 -168 33 -17 58 -21 135 -22 85 0 101 3&#xA;148 28 119 62 181 153 190 276 l5 69 44 5 c50 5 136 54 141 80 3 14 -4 13 -47&#xA;-10 -28 -14 -74 -28 -101 -31 -49 -4 -50 -4 -50 22 0 14 5 26 10 26 6 0 35 15&#xA;64 34 39 25 59 47 76 81 12 25 20 48 17 51 -3 3 -22 -13 -43 -36 -33 -36 -118&#xA;-90 -141 -90 -4 0 -16 17 -25 38 -57 122 -179 184 -321 161z m192 -82 c120&#xA;-80 168 -292 96 -424 -50 -93 -153 -153 -262 -153 -103 0 -179 56 -232 170&#xA;-35 74 -37 201 -5 271 30 64 77 114 137 144 46 23 61 26 138 23 74 -3 91 -7&#xA;128 -31z"/>
    <path d="M5046 7289 c-58 -51 -61 -141 -6 -202 56 -63 155 -28 180 65 34 125&#xA;-83 217 -174 137z"/>
    <path d="M4890 6671 c0 -5 11 -23 25 -39 14 -17 25 -35 25 -40 0 -16 -79 -81&#xA;-130 -107 -131 -67 -336 -100 -465 -76 -118 22 -274 122 -278 179 -3 45 -27&#xA;15 -27 -34 0 -25 88 -124 110 -124 5 0 10 -12 10 -26 0 -42 50 -135 100 -185&#xA;102 -101 246 -103 414 -5 104 61 258 237 291 333 10 30 13 32 25 18 19 -23 40&#xA;-18 40 9 0 18 -15 35 -57 65 -57 40 -83 50 -83 32z m-60 -239 c0 -13 -110&#xA;-121 -154 -151 -184 -126 -326 -114 -425 36 -43 65 -41 76 12 57 24 -9 91 -18&#xA;159 -21 98 -5 132 -2 210 16 51 12 116 32 143 45 60 29 55 28 55 18z"/>
    <path d="M4116 5963 c53 -176 182 -263 388 -263 52 0 114 6 142 15 50 15 150&#xA;72 141 81 -2 3 -40 -8 -83 -23 -69 -24 -94 -28 -199 -28 -111 0 -125 2 -182&#xA;29 -74 34 -141 101 -180 180 -33 68 -46 72 -27 9z m519 -233 c3 -5 1 -10 -4&#xA;-10 -6 0 -11 5 -11 10 0 6 2 10 4 10 3 0 8 -4 11 -10z"/>
    <path d="M4192 7395 c-75 -33 -83 -173 -11 -210 71 -37 128 -2 137 84 6 69 -3&#xA;98 -41 121 -38 23 -42 24 -85 5z"/>
    <path d="M8434 5669 c-113 -38 -234 -159 -234 -233 0 -29 2 -28 38 29 47 74&#xA;120 141 201 184 33 18 61 34 61 37 0 5 5 6 -66 -17z"/>
    <path d="M5065 2713 c45 -266 88 -406 214 -687 123 -275 283 -535 451 -735&#xA;131 -156 249 -266 330 -306 25 -13 -8 26 -117 136 -83 85 -164 169 -179 188&#xA;-157 190 -362 535 -481 811 -77 178 -203 546 -203 593 0 9 -4 19 -10 22 -6 4&#xA;-8 -5 -5 -22z"/>
    <path d="M2626 9435 c-4 -27 -8 -56 -9 -63 -1 -7 -30 11 -65 39 -34 29 -65 50&#xA;-67 47 -2 -2 23 -31 56 -64 l60 -59 -53 -11 -53 -12 53 -1 c28 0 52 -3 52 -6&#xA;0 -3 -16 -20 -35 -37 -43 -37 -39 -48 8 -19 19 11 37 21 41 21 3 0 6 -19 6&#xA;-42 0 -24 3 -61 7 -83 7 -38 8 -35 18 40 l10 80 51 -47 c28 -27 54 -48 57 -48&#xA;11 0 -32 65 -63 95 -16 16 -30 32 -30 37 0 4 17 9 38 10 36 1 36 1 5 5 -18 2&#xA;-33 8 -33 12 0 4 16 22 35 41 19 19 35 38 35 42 0 13 -52 -17 -75 -42 l-20&#xA;-22 -11 68 -10 69 -8 -50z"/>
    <path d="M8812 8907 c-5 -7 -16 -61 -25 -122 -25 -176 -78 -288 -164 -349 -24&#xA;-16 -84 -44 -135 -61 -73 -24 -93 -35 -93 -50 0 -15 13 -21 67 -32 139 -28&#xA;213 -79 266 -185 33 -64 82 -238 82 -288 0 -29 23 -56 39 -46 6 4 13 23 16 44&#xA;53 317 163 464 376 498 76 12 60 58 -24 69 -131 18 -237 91 -290 199 -26 53&#xA;-59 181 -72 278 -6 46 -26 67 -43 45z m28 -242 c0 -27 51 -129 90 -182 46 -60&#xA;107 -105 169 -124 l44 -13 -29 -10 c-111 -36 -218 -171 -257 -325 l-14 -55&#xA;-22 69 c-12 38 -32 87 -43 109 -33 64 -117 146 -178 174 l-55 24 50 24 c27 14&#xA;71 46 97 71 50 50 115 167 125 227 5 33 23 42 23 11z"/>
    <path d="M1066 8488 c-4 -46 -7 -102 -9 -126 l-2 -42 -68 61 c-37 34 -70 59&#xA;-73 57 -2 -3 25 -36 60 -74 36 -37 64 -69 63 -70 -1 -2 -43 -8 -92 -15 -142&#xA;-18 -145 -29 -8 -26 l121 2 -32 -27 c-18 -15 -45 -43 -60 -63 l-28 -37 30 16&#xA;c16 8 43 27 60 41 16 14 32 25 35 25 2 0 8 -39 12 -87 4 -49 11 -108 15 -133&#xA;l7 -45 3 65 c1 36 3 72 4 80 2 8 3 41 4 73 l2 59 83 -69 c75 -62 80 -65 53&#xA;-28 -16 22 -50 61 -75 88 l-45 47 69 1 c39 1 77 2 85 3 8 2 29 4 45 5 28 3 28&#xA;4 -10 12 -22 4 -68 8 -102 8 -35 1 -63 5 -63 9 0 4 16 24 36 43 20 18 45 48&#xA;57 64 l22 30 -30 -19 c-17 -11 -52 -37 -78 -59 -26 -22 -49 -38 -51 -36 -2 2&#xA;-7 45 -11 94 -7 95 -14 147 -20 153 -2 2 -6 -34 -9 -80z"/>
    <path d="M2370 8283 c0 -105 -36 -169 -125 -223 -67 -41 -75 -61 -28 -71 90&#xA;-18 140 -87 150 -207 5 -67 23 -106 37 -84 3 5 10 39 15 75 18 129 66 196 159&#xA;223 29 9 51 21 49 27 -2 6 -28 19 -58 29 -90 30 -133 89 -159 221 -15 74 -40&#xA;80 -40 10z m72 -204 c7 -8 26 -24 41 -34 l28 -18 -35 -29 c-19 -15 -46 -52&#xA;-60 -81 -14 -28 -25 -44 -26 -34 0 31 -57 103 -100 127 -12 7 -5 17 32 50 26&#xA;22 53 56 59 75 l13 34 17 -37 c10 -20 24 -44 31 -53z"/>
    <path d="M8114 7783 c-31 -142 -50 -170 -140 -213 -35 -17 -64 -37 -64 -45 0&#xA;-8 17 -16 41 -20 92 -16 126 -58 159 -194 18 -74 39 -87 53 -31 34 134 50 172&#xA;88 200 21 15 52 33 69 40 42 18 37 33 -18 52 -52 19 -89 53 -120 110 -10 21&#xA;-23 34 -27 30 -5 -4 -5 -2 -2 4 8 13 -13 94 -24 94 -5 0 -11 -12 -15 -27z m92&#xA;-209 l42 -40 -35 -29 c-19 -15 -44 -48 -55 -72 l-20 -45 -24 52 c-16 35 -28&#xA;49 -36 44 -7 -4 -10 -3 -5 1 9 11 -22 45 -41 45 -8 0 6 18 31 40 25 23 52 56&#xA;58 75 l13 34 15 -32 c9 -18 34 -50 57 -73z"/>
  </g>
  <title>Dobra wróżka z różdżką</title>
  <desc>Dobra wróżka chrzestna macha swoją magiczną różdżką, spełniając marzenia. Jednym ruchem potrafi zamienić dynię w karetę. Pokoloruj jej suknię na błękitno.</desc>
</svg>