<?xml version="1.0" standalone="no"?>
<!DOCTYPE svg PUBLIC "-//W3C//DTD SVG 20010904//EN"
 "http://www.w3.org/TR/2001/REC-SVG-20010904/DTD/svg10.dtd">
<svg version="1.0" xmlns="http://www.w3.org/2000/svg"
 width="1200.000000pt" height="400.000000pt" viewBox="0 0 1200.000000 400.000000"
 preserveAspectRatio="xMidYMid meet">
<metadata>
Created by potrace 1.16, written by Peter Selinger 2001-2019
</metadata>
<g transform="translate(0.000000,400.000000) scale(0.100000,-0.100000)"
fill="#000000" stroke="none">
<path d="M2 2003 l3 -1998 1785 0 1785 0 197 1960 c108 1078 197 1977 197
1998 l1 37 -1985 0 -1985 0 2 -1997z m3918 1940 c0 -27 -380 -3845 -386 -3871
l-4 -22 -1740 0 -1740 0 0 1955 0 1955 1935 0 c1836 0 1935 -1 1935 -17z"/>
<path d="M2099 3813 c-1 -5 0 -48 1 -98 2 -80 -2 -103 -35 -204 -39 -120 -119
-314 -156 -379 -28 -48 -21 -69 26 -78 l36 -6 -3 -62 -3 -61 -34 -5 -35 -5 3
-65 c2 -51 8 -72 27 -97 23 -31 24 -38 22 -150 l-3 -118 -35 68 c-19 37 -39
66 -44 64 -5 -2 -32 -46 -60 -98 -28 -52 -52 -87 -54 -78 -2 9 6 32 17 50 18
28 21 51 21 137 0 82 3 102 14 102 27 0 26 18 -8 91 -42 91 -86 230 -86 270 0
52 -17 31 -28 -35 -8 -52 -42 -145 -109 -304 -3 -8 3 -15 16 -19 20 -5 21 -12
21 -112 0 -102 1 -109 25 -131 25 -24 26 -25 19 -140 -6 -96 -11 -121 -29
-148 -13 -19 -25 -30 -28 -25 -11 19 -67 253 -73 306 -8 69 -21 82 -29 30 -12
-80 -59 -252 -92 -341 -35 -94 -37 -122 -8 -122 13 0 15 -22 15 -146 l0 -147
35 -53 c32 -48 35 -58 35 -128 l0 -76 -44 0 c-43 0 -45 1 -48 33 -3 28 -7 32
-34 35 l-31 3 -6 121 c-11 203 -9 294 8 308 10 8 15 38 17 103 3 84 5 92 26
103 12 6 25 14 28 17 3 3 -13 38 -36 79 -42 73 -122 242 -162 341 -11 29 -23
77 -27 107 -3 30 -10 55 -16 55 -5 0 -13 -29 -17 -65 -6 -52 -22 -94 -82 -215
-41 -82 -95 -181 -120 -220 -25 -38 -46 -74 -46 -78 0 -4 13 -13 30 -18 l30
-11 0 -86 c0 -71 4 -92 20 -112 22 -28 24 -61 13 -287 l-6 -143 -34 0 -33 0 0
-98 c0 -92 2 -101 30 -145 46 -73 43 -77 -50 -77 l-80 0 0 29 c0 17 5 33 10
36 6 4 22 24 36 46 22 36 24 49 22 122 -3 79 -4 82 -28 85 -39 6 -47 20 -17
31 33 13 34 24 3 64 -38 50 -121 227 -141 301 -10 36 -21 66 -25 66 -4 0 -14
-27 -23 -60 -20 -71 -82 -208 -132 -290 -36 -59 -38 -80 -9 -80 8 0 14 -7 14
-15 0 -11 -12 -15 -50 -15 l-50 0 0 -91 c0 -87 1 -93 31 -130 l31 -40 -11
-172 c-6 -95 -23 -293 -37 -441 -22 -222 -24 -270 -13 -276 25 -16 163 -23
320 -16 l158 7 3 -43 3 -43 60 -13 c77 -16 360 -12 393 6 12 7 22 22 22 32 0
19 7 20 136 20 127 0 136 1 141 20 5 19 14 20 213 20 199 0 208 -1 213 -20 5
-19 14 -20 146 -20 l141 0 0 -24 c0 -20 7 -25 45 -35 76 -19 215 -24 309 -12
116 16 126 21 126 72 l0 40 178 -3 c185 -3 439 10 447 22 3 4 -6 77 -19 161
-60 381 -67 442 -57 452 6 6 11 44 11 84 l0 73 -45 0 c-41 0 -45 -2 -45 -25 0
-18 -5 -25 -20 -25 -15 0 -20 7 -20 25 0 21 -5 25 -30 25 -28 0 -29 1 -32 58
-3 50 0 62 27 97 27 35 30 47 30 110 0 69 0 70 -27 73 -28 3 -28 4 -28 78 0
54 3 74 13 74 7 0 21 6 30 13 15 11 13 20 -28 102 -53 107 -137 316 -160 400
l-17 60 55 80 c181 265 674 1185 684 1280 4 33 1 46 -18 68 -55 60 -122 29
-223 -103 -75 -97 -365 -508 -503 -712 -153 -226 -241 -382 -332 -591 -36 -81
-69 -147 -73 -147 -4 0 -8 42 -8 94 0 87 1 94 21 99 15 4 20 11 16 22 -19 49
-109 381 -119 438 -7 37 -15 67 -18 67 -3 0 -15 -51 -28 -114 -12 -63 -39
-170 -59 -238 -49 -165 -50 -174 -24 -181 20 -5 21 -11 21 -166 l0 -161 -55 0
c-52 0 -55 1 -55 25 0 15 6 25 14 25 27 0 28 21 2 83 -15 34 -40 109 -57 167
-27 92 -32 125 -36 261 -5 147 -4 158 15 185 15 21 22 48 24 99 3 67 2 69 -22
75 -23 5 -25 11 -28 67 -3 61 -3 61 27 68 55 12 55 24 2 136 -27 57 -65 152
-84 210 -37 108 -75 274 -66 283 2 3 23 0 46 -5 34 -9 48 -8 86 9 25 11 50 30
56 41 11 20 9 21 -28 21 -23 0 -55 9 -73 20 -18 11 -45 20 -60 20 -18 0 -28 5
-28 15 0 15 -29 22 -31 8z m121 -70 c35 -18 47 -29 38 -34 -16 -10 -54 -11
-97 -3 -26 6 -31 11 -31 35 0 37 21 38 90 2z m1466 -90 c-23 -33 -26 -35 -26
-14 0 21 -2 22 -17 10 -16 -13 -17 -12 -4 4 7 9 22 17 33 17 10 0 17 4 14 9
-6 9 15 22 22 15 2 -1 -8 -20 -22 -41z m-56 -27 c0 -2 -8 -10 -17 -17 -16 -13
-17 -12 -4 4 13 16 21 21 21 13z m-3 -65 c-28 -28 -113 -153 -164 -238 -18
-29 -39 -60 -48 -69 -8 -8 -15 -20 -15 -25 0 -5 -26 -44 -57 -87 -32 -42 -66
-93 -77 -112 -10 -19 -28 -47 -40 -61 -11 -14 -28 -36 -36 -49 -8 -12 -27 -40
-42 -61 -16 -21 -28 -42 -28 -46 0 -5 -16 -31 -36 -58 -19 -28 -47 -71 -61
-97 -17 -31 -30 -45 -40 -41 -12 5 -11 9 2 27 9 11 29 48 45 81 17 33 30 56
30 51 0 -8 33 38 75 103 6 9 12 18 15 21 8 8 44 64 45 70 0 3 10 20 23 38 13
17 20 32 17 32 -4 0 11 21 32 48 21 26 52 67 68 92 17 25 33 47 36 50 3 3 25
34 49 70 24 36 47 67 52 68 4 2 8 10 8 18 0 8 5 14 11 14 6 0 8 7 5 17 -4 10
-4 14 0 11 3 -4 22 16 42 45 19 29 44 59 54 68 10 9 18 21 18 27 0 5 7 12 15
16 8 3 16 16 16 28 l2 23 4 -24 c3 -15 -4 -32 -20 -50z m-197 -225 c0 -2 -8
-10 -17 -17 -16 -13 -17 -12 -4 4 13 16 21 21 21 13z m-1460 -211 c0 -1 -9 -5
-19 -8 -13 -3 -18 -1 -14 9 4 10 33 10 33 -1z m78 8 c-10 -2 -28 -2 -40 0 -13
2 -5 4 17 4 22 1 32 -1 23 -4z m150 -39 c20 -6 22 -12 22 -85 l0 -79 -45 0
-45 0 0 50 c0 37 -4 52 -16 57 -22 8 -34 -14 -34 -62 l0 -40 -45 -3 -45 -3 0
86 0 85 93 0 c50 0 102 -3 115 -6z m-238 -14 c0 -5 -2 -10 -4 -10 -3 0 -8 5
-11 10 -3 6 -1 10 4 10 6 0 11 -4 11 -10z m100 -196 c0 -14 4 -23 10 -19 6 3
10 15 10 26 0 16 7 19 39 19 33 0 40 -4 43 -22 4 -28 28 -36 28 -9 0 18 6 21
45 21 l45 0 0 -47 0 -48 -180 0 -180 0 0 48 c0 44 2 47 25 47 18 0 25 -5 25
-20 0 -11 5 -20 10 -20 6 0 10 11 10 25 0 22 4 25 35 25 31 0 35 -3 35 -26z
m-72 -124 c10 -16 10 -20 -1 -20 -8 0 -22 9 -32 20 -18 19 -17 20 1 20 11 0
25 -9 32 -20z m80 2 c3 -10 -4 -13 -24 -10 -15 2 -29 9 -32 16 -3 10 4 13 24
10 15 -2 29 -9 32 -16z m72 3 c0 -8 -9 -15 -19 -15 -10 0 -21 7 -25 15 -4 11
1 15 19 15 16 0 25 -6 25 -15z m74 0 c-4 -8 -17 -15 -30 -15 -17 0 -22 4 -18
15 4 8 17 15 30 15 17 0 22 -4 18 -15z m36 -10 c-7 -9 -15 -13 -17 -11 -7 7 7
26 19 26 6 0 6 -6 -2 -15z m-490 -119 l0 -105 -54 -6 c-30 -4 -59 -4 -65 0 -7
4 -11 47 -11 111 l0 104 65 0 65 0 0 -104z m388 85 c22 -2 13 -21 -10 -22 -22
-1 -22 -1 3 -12 14 -7 24 -18 22 -25 -3 -6 -9 -10 -14 -7 -5 4 -6 -1 -3 -9 3
-9 1 -16 -4 -16 -7 0 -8 -10 -3 -27 5 -16 5 -37 0 -48 -6 -15 -8 -9 -8 22 -1
23 -6 45 -13 49 -21 13 -39 -29 -36 -86 3 -48 6 -55 24 -54 11 0 21 -5 21 -12
0 -9 -7 -10 -24 -3 -12 5 -24 6 -24 4 -1 -3 -2 -9 -3 -14 0 -5 -5 -13 -9 -18
-5 -4 -7 -1 -5 7 2 10 -3 14 -17 12 -26 -5 -8 14 20 21 18 4 18 5 -2 6 -26 1
-31 19 -8 27 16 6 11 24 -6 24 -6 0 -8 -4 -4 -9 10 -17 -13 -22 -28 -7 -8 8
-18 12 -22 8 -5 -4 -5 -2 -2 5 4 6 4 19 0 30 -6 14 -9 9 -14 -22 -4 -26 -7 -4
-8 62 l-1 102 38 6 c20 4 44 8 52 9 13 3 29 2 88 -3z m894 -161 c37 -22 70
-45 74 -52 5 -7 3 -8 -5 -3 -8 4 -18 -1 -27 -14 l-15 -21 -52 29 c-29 16 -71
35 -94 42 -48 14 -49 16 -27 48 22 31 57 24 146 -29z m-54 -65 c27 -15 67 -45
88 -66 46 -47 50 -37 -94 -224 -83 -108 -107 -133 -114 -121 -5 9 -6 21 -2 28
4 6 3 8 -4 4 -6 -3 -27 5 -48 19 -20 14 -54 28 -76 31 -21 4 -38 8 -38 9 0 16
145 331 161 351 13 16 63 4 127 -31z m-1256 -57 c-3 -43 -12 -77 -28 -105 -14
-24 -26 -43 -28 -43 -3 0 -2 43 1 96 5 76 3 98 -8 105 -9 6 -1 9 27 9 l40 0
-4 -62z m1418 23 c0 -46 -23 -56 -48 -22 -18 25 -19 31 -7 41 11 9 15 9 15 1
0 -6 -5 -11 -11 -11 -5 0 -7 -5 -3 -11 4 -7 12 -2 22 14 19 31 32 26 32 -12z
m-567 -138 c-7 -2 -13 -11 -13 -19 0 -8 -5 -14 -12 -14 -9 0 -9 -3 0 -12 7 -7
12 -21 11 -32 -1 -18 -2 -17 -8 4 -4 14 -13 25 -21 25 -11 0 -16 -16 -18 -63
-3 -57 -1 -63 20 -72 13 -5 16 -9 8 -10 -13 0 -13 -1 0 -10 8 -5 10 -10 3 -10
-6 0 -10 -8 -8 -17 1 -10 9 -17 16 -15 7 2 -7 -15 -31 -37 -25 -22 -48 -40
-52 -41 -5 0 -8 74 -8 165 l0 165 63 -1 c34 0 56 -3 50 -6z m-676 -85 c15 -29
29 -56 31 -60 2 -5 -26 -8 -63 -8 l-66 0 32 60 c17 33 33 60 35 60 2 0 16 -24
31 -52z m-604 -23 c14 -6 17 -21 17 -96 l0 -90 -170 3 -170 3 0 77 c0 42 -3
83 -6 92 -5 12 5 16 48 19 70 6 258 0 281 -8z m1455 -71 c39 -16 102 -71 102
-88 0 -6 -7 -20 -15 -30 -14 -19 -15 -18 -35 7 -23 29 -96 67 -128 67 -27 0
-28 10 -2 38 25 26 30 27 78 6z m187 -101 c-21 -59 -59 -155 -86 -212 -27 -57
-49 -107 -49 -111 0 -5 14 -13 30 -19 29 -10 30 -11 30 -80 0 -38 -4 -73 -10
-76 -5 -3 -10 -1 -10 4 0 6 -10 11 -21 11 -24 0 -39 16 -69 71 -19 36 -19 37
1 55 10 9 35 49 54 87 31 62 35 79 35 147 l0 77 62 81 c34 45 63 80 66 78 2
-3 -13 -53 -33 -113z m-995 -34 c0 -100 3 -130 13 -127 6 3 15 27 18 54 3 27
7 40 8 29 2 -11 5 -15 7 -9 3 6 23 8 55 4 37 -5 54 -13 67 -31 l17 -24 6 30
c5 22 7 13 8 -32 l1 -63 -275 0 c-255 0 -275 1 -275 18 0 14 2 15 10 2 8 -12
10 -12 11 5 1 11 0 34 -1 52 -2 37 13 44 89 45 38 0 51 4 54 16 3 10 5 -9 6
-41 1 -42 5 -57 14 -55 8 3 13 41 15 131 l3 127 74 0 75 0 0 -131z m-411 55
l31 -6 0 -139 0 -139 -70 0 -70 0 0 139 c0 137 0 140 23 144 37 7 53 7 86 1z
m744 0 l37 -7 0 -138 0 -139 -70 0 -70 0 0 139 c0 137 0 140 23 144 36 7 40 7
80 1z m-1033 -63 c33 -6 5 -9 -102 -10 -93 -1 -148 3 -148 9 0 12 184 12 250
1z m-27 -48 c-25 -3 -33 -9 -33 -24 0 -13 4 -18 13 -13 7 4 9 3 4 -2 -5 -5
-14 -9 -20 -9 -13 0 -11 -50 4 -77 5 -9 9 -23 9 -30 0 -7 -12 13 -27 45 -14
31 -29 57 -33 57 -4 0 -15 -22 -24 -50 -20 -61 -70 -167 -94 -197 -16 -22 -17
-16 -11 140 3 89 6 163 7 165 1 1 55 1 120 0 64 0 102 -3 85 -5z m384 -60 c-3
-10 -5 -4 -5 12 0 17 2 24 5 18 2 -7 2 -21 0 -30z m870 -28 c0 -8 -4 -15 -9
-15 -10 0 -11 14 -1 23 9 10 10 9 10 -8z m-823 -70 c-4 -8 -19 -15 -35 -15
-21 0 -27 4 -23 15 4 8 19 15 35 15 21 0 27 -4 23 -15z m124 -2 c-5 -26 -44
-29 -51 -4 -4 18 0 21 25 21 23 0 29 -4 26 -17z m120 0 c-4 -22 -38 -30 -49
-11 -15 22 -10 28 22 28 24 0 30 -4 27 -17z m122 -3 c-6 -11 -17 -20 -25 -20
-8 0 -19 9 -25 20 -10 18 -8 20 25 20 33 0 35 -2 25 -20z m130 5 c0 -10 -10
-15 -30 -15 -20 0 -30 5 -30 15 0 10 10 15 30 15 20 0 30 -5 30 -15z m-156
-45 c23 0 38 7 49 23 l16 22 0 -22 c1 -20 6 -23 41 -23 30 0 38 -3 34 -15 -3
-8 -9 -14 -12 -13 -18 2 -21 -4 -12 -27 7 -19 6 -25 -4 -25 -8 0 -13 -11 -13
-26 0 -19 4 -24 16 -20 13 5 13 4 -1 -7 -10 -8 -15 -17 -11 -20 3 -4 1 -7 -5
-7 -8 0 -9 -7 -2 -26 7 -17 6 -32 -1 -46 -8 -16 -8 -19 1 -13 9 5 10 1 5 -15
-5 -15 -4 -20 4 -16 6 4 11 0 11 -9 0 -9 -4 -14 -9 -11 -5 3 -11 0 -14 -7 -3
-8 3 -13 14 -13 14 0 19 8 19 31 0 40 11 57 30 45 13 -8 12 -10 -2 -10 -14 0
-18 -9 -18 -40 0 -40 0 -40 -37 -40 l-38 0 1 42 2 43 -64 -3 -64 -4 0 77 c0
91 -18 135 -55 135 -40 0 -55 -34 -55 -127 l0 -83 -60 0 c-49 0 -61 -3 -70
-20 -6 -11 -16 -17 -22 -14 -7 4 -8 3 -4 -5 4 -6 11 -9 15 -6 5 2 9 -6 9 -20
0 -24 -1 -25 -29 -8 -16 10 -27 23 -25 29 2 6 0 17 -5 25 -8 12 -10 12 -8 -1
3 -32 -4 -43 -10 -15 -5 26 -12 31 -46 36 -35 5 -32 9 12 13 6 1 15 5 20 10 4
5 3 6 -4 2 -8 -4 -13 -2 -13 5 0 10 -3 10 -12 1 -7 -7 -15 -12 -19 -12 -9 0
-6 51 4 67 4 6 2 13 -4 15 -6 2 -11 16 -11 31 0 23 -3 26 -16 15 -8 -7 4 13
28 45 41 54 45 57 86 57 37 0 44 3 44 20 0 26 16 26 23 0 4 -18 14 -20 84 -20
43 0 85 0 93 -1 23 0 49 6 57 16 4 4 2 5 -4 1 -15 -8 -16 -5 -6 19 5 15 8 14
20 -9 11 -20 21 -26 47 -26z m-174 30 c0 -5 -2 -10 -4 -10 -3 0 -8 5 -11 10
-3 6 -1 10 4 10 6 0 11 -4 11 -10z m-270 -41 c0 -14 -86 -11 -98 4 -8 9 1 11
44 9 30 -2 54 -8 54 -13z m749 5 c13 -12 -21 -25 -60 -22 -34 2 -45 7 -47 22
-4 17 0 18 49 12 30 -4 56 -9 58 -12z m-125 -27 c16 -27 16 -27 -1 -16 -11 6
-20 20 -20 31 -1 11 -1 19 1 17 1 -2 10 -17 20 -32z m957 -3 l66 -7 2 -78 c2
-74 1 -79 -18 -79 -17 0 -21 -6 -21 -30 0 -16 -5 -30 -11 -30 -5 0 -7 5 -4 10
14 22 -6 50 -36 50 -26 0 -29 3 -29 31 0 37 -16 69 -34 69 -17 0 -26 -22 -26
-66 0 -24 -5 -34 -15 -34 -9 0 -18 -12 -21 -30 -8 -38 -22 -39 -26 -2 -2 22
-8 28 -35 30 l-33 3 0 79 0 79 33 4 c56 7 140 7 208 1z m-1621 -29 c-12 -15
-30 -12 -30 6 0 5 10 9 21 9 18 0 19 -2 9 -15z m754 0 c-4 -8 -10 -15 -14 -15
-4 0 -13 7 -20 15 -11 13 -8 15 13 15 19 0 25 -4 21 -15z m-37 -67 c-3 -7 -5
-2 -5 12 0 14 2 19 5 13 2 -7 2 -19 0 -25z m-1459 -14 c27 -8 29 -30 2 -37
-14 -3 -20 -14 -21 -34 l-1 -28 -7 30 c-6 30 -6 30 -84 33 l-77 3 0 -31 c0
-20 -5 -30 -15 -30 -8 0 -15 6 -15 14 0 7 -3 27 -6 44 -5 24 -2 31 12 35 28 7
186 8 212 1z m1459 -36 c-3 -7 -5 -2 -5 12 0 14 2 19 5 13 2 -7 2 -19 0 -25z
m-1517 -53 c0 -33 2 -35 35 -35 35 0 39 6 36 43 -2 13 5 17 33 17 l36 0 0 -65
0 -65 -205 0 -205 0 0 65 0 65 39 0 c36 0 40 -3 43 -27 3 -25 7 -28 43 -28 38
0 40 2 43 33 3 31 4 32 53 32 l49 0 0 -35z m302 3 c3 -30 6 -33 38 -33 32 0
35 3 38 33 3 32 4 32 58 32 50 0 54 -2 54 -23 0 -31 18 -47 52 -47 24 0 28 4
28 29 0 33 10 39 52 33 28 -4 28 -5 28 -74 0 -68 -21 -135 -39 -123 -5 2 -8
-3 -7 -12 0 -9 -5 -18 -12 -20 -9 -4 -11 2 -6 24 4 15 7 30 6 33 0 36 -4 41
-23 38 -15 -2 -27 -17 -39 -48 -22 -58 -45 -64 -53 -15 -7 41 -23 65 -43 65
-23 0 -44 -31 -44 -66 0 -27 -4 -34 -19 -34 -12 0 -22 9 -26 23 -16 58 -28 77
-47 77 -19 0 -20 -5 -16 -55 3 -30 3 -55 1 -55 -2 0 -17 21 -33 47 -27 42 -30
56 -30 125 l0 78 39 0 c37 0 40 -2 43 -32z m1215 -10 c-3 -7 -5 -2 -5 12 0 14
2 19 5 13 2 -7 2 -19 0 -25z m445 5 c3 -24 8 -28 41 -31 35 -3 37 -2 37 27 0
29 3 31 35 31 l35 0 0 -75 c0 -81 -12 -116 -51 -150 -22 -20 -22 -20 -15 0 5
11 10 37 13 58 6 36 4 39 -18 35 -19 -2 -28 -14 -41 -53 -19 -59 -48 -74 -48
-25 0 41 -16 70 -38 70 -28 0 -42 -21 -42 -62 0 -31 -4 -38 -19 -38 -14 0 -27
16 -45 55 -37 82 -82 69 -59 -17 8 -28 7 -38 -1 -35 -21 7 -56 70 -56 101 0
29 7 34 98 83 116 62 169 70 174 26z m258 -23 c0 -28 2 -30 40 -30 38 0 40 2
40 30 0 30 1 30 55 30 30 0 54 -3 54 -7 -7 -41 2 -53 36 -53 32 0 35 2 35 30
0 27 3 30 30 30 30 0 30 -1 30 -55 l0 -55 -200 0 -200 0 0 55 0 55 40 0 c38 0
40 -2 40 -30z m-650 -28 c0 -3 -9 -16 -21 -28 -30 -32 -18 -44 33 -33 24 6 51
12 61 15 13 4 17 -1 17 -24 0 -16 13 -47 30 -70 l30 -42 -527 1 c-291 1 -520
3 -511 6 10 2 15 10 11 19 -3 10 2 14 18 14 l24 1 -22 12 c-15 8 -19 16 -13
26 10 17 2 43 -11 35 -5 -3 -9 13 -9 35 l0 41 95 0 95 0 0 -40 0 -40 65 0 65
0 0 40 0 40 54 0 55 0 3 -37 c3 -38 3 -38 48 -38 45 0 45 0 48 38 l3 37 54 0
54 0 3 -37 3 -38 60 0 60 0 3 37 c2 29 8 37 25 40 30 4 97 -3 97 -10z m-637
-39 c-7 -2 -19 -2 -25 0 -7 3 -2 5 12 5 14 0 19 -2 13 -5z m-1123 -73 c0 -16
-4 -30 -9 -30 -5 0 -19 14 -31 30 l-21 30 30 0 c28 0 31 -3 31 -30z m99 0 c-6
-16 -15 -30 -20 -30 -5 0 -15 14 -24 30 l-16 30 35 0 c34 0 35 0 25 -30z m38
8 c-3 -8 -6 -5 -6 6 -1 11 2 17 5 13 3 -3 4 -12 1 -19z m82 -9 c-22 -32 -32
-30 -44 9 -6 20 -3 22 30 22 l36 0 -22 -31z m79 4 c-30 -29 -44 -27 -33 6 4
14 15 21 33 21 l27 0 -27 -27z m572 18 c0 -5 -9 -19 -20 -32 l-20 -24 17 32
c19 34 23 39 23 24z m1826 -10 c-15 -17 -30 -18 -162 -15 -110 2 -150 7 -166
19 -21 14 -7 15 161 15 179 0 184 0 167 -19z m-141 -78 c-2 -21 -4 -45 -5 -53
0 -13 -1 -13 -10 0 -8 12 -10 12 -10 1 0 -10 -6 -10 -26 4 -15 9 -23 12 -20 6
5 -7 -9 -11 -43 -11 l-51 0 0 45 0 45 85 0 84 0 -4 -37z m32 17 c-3 -11 -1
-20 4 -20 4 0 5 -8 2 -17 -5 -13 -2 -15 13 -10 18 7 18 6 1 -7 -14 -10 -15
-15 -5 -19 8 -4 7 -6 -5 -6 -10 -1 -21 8 -25 20 -10 26 -3 79 10 79 6 0 8 -9
5 -20z m-1762 1 c-3 -5 3 -12 12 -14 11 -3 6 -5 -11 -6 -24 -1 -27 1 -16 14
14 16 25 21 15 6z m-742 -16 c10 -4 24 -2 32 5 10 8 15 9 15 2 0 -6 7 -9 15
-6 11 5 13 2 8 -12 -4 -11 -3 -15 4 -11 11 7 11 0 -2 -39 -6 -18 -15 -21 -91
-23 l-84 -2 0 28 c0 61 9 74 49 70 20 -3 44 -8 54 -12z m1827 -45 c0 -7 -186
-10 -555 -10 -351 0 -555 4 -555 10 0 6 204 10 555 10 369 0 555 -3 555 -10z
m-1570 -40 c0 -27 3 -30 30 -30 27 0 30 3 30 30 0 26 4 30 26 30 22 0 25 -3
20 -22 -3 -13 -6 -43 -6 -69 l0 -45 -41 -3 c-23 -1 -55 1 -70 4 -28 6 -29 8
-29 71 0 57 2 64 20 64 16 0 20 -7 20 -30z m40 15 c0 -8 -4 -15 -10 -15 -5 0
-10 7 -10 15 0 8 5 15 10 15 6 0 10 -7 10 -15z m2185 -28 c8 -11 12 -24 10
-28 -3 -3 3 -6 12 -5 9 0 18 -6 20 -14 4 -12 3 -12 -5 -2 -7 11 -10 9 -15 -7
-3 -12 -2 -19 2 -16 4 2 8 -2 8 -10 0 -8 -4 -12 -8 -9 -4 2 -10 -17 -12 -43
-3 -42 -4 -39 -5 18 -2 72 -23 117 -42 89 -5 -8 -10 -44 -11 -80 -1 -51 -3
-59 -9 -35 l-8 30 -1 -27 c-1 -23 -5 -26 -28 -24 -40 5 -40 5 -19 21 11 8 14
15 8 15 -7 0 -13 -1 -15 -2 -6 -6 -34 27 -34 39 0 6 3 10 7 8 4 -3 20 6 35 19
17 15 23 26 16 30 -6 4 -11 2 -11 -4 0 -6 -5 -8 -10 -5 -6 3 -13 -1 -16 -9 -3
-9 -11 -16 -17 -16 -6 0 0 11 12 24 27 28 21 46 -12 39 -21 -5 -21 -5 -3 10
13 9 42 15 78 15 48 0 61 -4 73 -21z m34 2 c-14 -8 -29 -3 -29 11 0 4 9 6 21
3 15 -4 17 -8 8 -14z m-1636 4 c-18 -2 -48 -2 -65 0 -18 2 -4 4 32 4 36 0 50
-2 33 -4z m162 0 c-54 -2 -102 -8 -106 -14 -4 -7 -9 -5 -12 5 -6 14 7 16 106
14 l112 -2 -100 -3z m312 1 c-3 -3 -12 -4 -19 -1 -8 3 -5 6 6 6 11 1 17 -2 13
-5z m190 0 c-3 -3 -12 -4 -19 -1 -8 3 -5 6 6 6 11 1 17 -2 13 -5z m221 -1
c-32 -2 -84 -2 -115 0 -32 2 -6 3 57 3 63 0 89 -1 58 -3z m505 0 c-7 -2 -21
-2 -30 0 -10 3 -4 5 12 5 17 0 24 -2 18 -5z m-2187 -16 c4 -4 0 -7 -8 -7 -17
0 -27 -18 -21 -37 2 -7 10 -11 16 -9 7 1 8 1 4 -2 -4 -2 -2 -11 5 -20 8 -10 9
-13 1 -9 -7 5 -13 -1 -16 -15 -3 -18 -5 -16 -6 8 -1 38 -28 65 -42 43 -5 -8
-9 -26 -9 -41 0 -27 -1 -28 -61 -28 l-61 0 6 31 c3 17 6 46 6 64 l0 32 89 -1
c49 -1 93 -4 97 -9z m886 -11 c6 4 8 2 4 -4 -3 -5 0 -13 6 -16 7 -3 0 -3 -17
0 l-30 5 23 -17 c23 -17 29 -34 11 -34 -5 0 -8 4 -5 9 3 5 -1 12 -10 15 -25
10 -26 1 -3 -20 20 -18 21 -18 35 1 14 19 14 19 14 -1 0 -16 2 -17 10 -4 5 8
10 11 10 6 0 -5 8 -2 18 5 15 13 16 12 3 -3 -15 -20 -2 -24 18 -5 7 6 12 8 11
2 -5 -24 2 -27 23 -9 l22 19 -18 -22 c-15 -17 -24 -20 -45 -14 -15 5 -50 6
-78 4 l-51 -4 0 32 c0 30 28 75 35 57 2 -5 9 -5 14 -2z m845 -63 c-2 -16 -4
-3 -4 27 0 30 2 43 4 28 2 -16 2 -40 0 -55z m780 55 c-3 -8 -6 -5 -6 6 -1 11
2 17 5 13 3 -3 4 -12 1 -19z m-1387 8 c0 -2 -7 -7 -16 -10 -8 -3 -12 -2 -9 4
6 10 25 14 25 6z m1452 -21 c3 -14 1 -28 -3 -31 -12 -7 -12 -24 0 -24 5 0 11
9 14 20 4 15 14 20 36 20 24 0 31 4 31 20 0 15 7 20 26 20 24 0 25 -2 22 -52
l-3 -53 -72 -3 -73 -3 0 31 c0 17 5 30 13 30 7 1 5 6 -5 14 -21 16 -23 36 -4
36 7 0 16 -11 18 -25z m-2475 -47 c-2 -13 -4 -3 -4 22 0 25 2 35 4 23 2 -13 2
-33 0 -45z m697 37 c-13 -11 -14 -13 -3 -9 12 4 18 -2 21 -20 5 -23 2 -26 -22
-26 -23 0 -28 5 -32 30 -5 30 2 38 36 39 20 1 20 1 0 -14z m286 11 c0 -2 -12
-11 -27 -20 l-28 -17 24 20 c23 21 31 25 31 17z m165 -20 c22 -12 39 -28 38
-34 -2 -6 3 -9 10 -6 22 8 125 -110 157 -178 41 -87 49 -136 57 -335 l6 -173
-49 0 -49 0 0 75 0 75 44 0 c51 0 51 6 1 15 -19 3 -35 7 -36 8 -1 1 -4 28 -7
60 l-6 57 40 0 c21 0 39 4 39 10 0 5 -18 8 -40 5 -36 -3 -40 -1 -40 18 0 12
-3 38 -6 57 -5 31 -2 37 27 53 39 22 33 33 -7 12 l-29 -15 -23 46 -24 46 29
32 28 31 -30 -27 -31 -28 -46 48 c-40 40 -45 50 -37 67 10 19 10 19 -5 2 -14
-18 -16 -18 -41 -1 -23 15 -31 16 -62 5 -31 -11 -36 -11 -49 6 -15 17 -15 17
-5 -2 8 -17 3 -27 -31 -61 l-40 -42 -29 32 c-16 17 -29 26 -29 19 0 -6 8 -18
18 -25 32 -23 32 -34 2 -90 -19 -36 -32 -77 -36 -117 -6 -53 -10 -61 -28 -62
-17 -1 -18 -2 -3 -6 15 -4 17 -18 17 -122 0 -65 3 -133 6 -150 l7 -31 -53 0
-53 0 6 193 c5 199 15 255 59 341 46 90 199 216 263 216 17 0 48 -11 70 -24z
m439 -23 c9 4 16 3 16 -2 0 -5 -9 -11 -20 -14 -11 -3 -20 -4 -20 -2 0 2 -3 12
-6 22 -5 14 -4 15 4 4 6 -8 17 -11 26 -8z m-777 -50 c-6 -10 19 -34 27 -26 3
3 1 12 -5 20 -9 9 -8 13 0 13 6 0 11 -6 12 -12 0 -10 2 -10 6 0 2 6 10 12 16
12 6 0 -1 -12 -15 -27 -14 -16 -33 -41 -43 -56 -10 -15 -20 -25 -22 -23 -3 3
4 17 16 32 29 37 18 43 -14 8 l-26 -29 17 29 18 29 -23 -14 c-19 -11 -25 -11
-28 -1 -3 6 -9 9 -14 6 -6 -3 -2 -12 8 -20 16 -12 16 -15 3 -24 -13 -8 -12
-10 5 -11 20 0 20 0 0 -8 -14 -6 -24 -3 -33 8 -11 14 -11 14 -7 0 4 -10 0 -16
-10 -16 -17 0 -17 0 -9 21 3 9 12 16 20 16 8 0 11 6 8 15 -4 8 -10 15 -16 15
-5 0 -6 -4 -3 -10 3 -5 2 -10 -3 -10 -5 0 -9 16 -10 35 l-1 35 65 0 c36 0 63
-3 61 -7z m757 -6 c14 -13 10 -37 -5 -37 -6 0 -7 5 -4 10 4 6 1 17 -5 25 -15
18 -3 20 14 2z m54 -46 c-1 -54 -2 -54 -5 -11 -3 24 -8 50 -14 56 -6 7 -4 11
6 11 12 0 15 -13 13 -56z m-1818 26 c0 -7 5 -6 11 3 8 11 9 7 6 -20 -3 -19 -3
-29 0 -22 2 6 15 12 28 12 25 0 42 -17 30 -28 -4 -4 -10 -1 -12 6 -3 6 -12 12
-21 12 -15 -1 -15 -2 1 -11 9 -5 17 -18 17 -27 0 -15 2 -15 10 -2 8 13 10 12
10 -2 0 -10 -4 -18 -9 -18 -5 0 -7 -10 -3 -22 5 -20 3 -21 -11 -10 -9 8 -13
20 -10 30 6 14 5 15 -9 2 -9 -8 -12 -17 -7 -18 5 -2 6 -9 3 -14 -4 -6 -2 -8 3
-5 6 4 16 1 22 -7 9 -11 0 -14 -54 -15 -64 -1 -65 -1 -66 26 -1 16 -1 31 0 36
0 4 -3 7 -9 7 -5 0 -10 -8 -10 -18 0 -10 -6 -24 -12 -31 -11 -11 -10 -12 2 -6
12 6 13 5 3 -5 -21 -23 -25 -5 -18 82 l7 83 49 -3 c28 -2 49 -9 49 -15z m93
-30 c-8 -15 -23 5 -23 31 l0 27 14 -25 c7 -14 11 -28 9 -33z m764 16 c-3 -10
-5 -4 -5 12 0 17 2 24 5 18 2 -7 2 -21 0 -30z m860 15 c-3 -8 -6 -5 -6 6 -1
11 2 17 5 13 3 -3 4 -12 1 -19z m69 -26 c-18 -16 -18 -16 -6 6 6 13 14 21 18
18 3 -4 -2 -14 -12 -24z m687 -15 c-2 -4 -3 -14 -3 -24 0 -14 -2 -14 -20 2
-18 16 -22 16 -33 4 -21 -25 -61 -55 -51 -39 5 8 9 24 9 35 0 14 9 22 30 26
35 7 71 5 68 -4z m48 -6 c-7 -5 -11 -14 -7 -20 4 -7 1 -9 -7 -5 -23 8 -29 -12
-10 -32 16 -16 16 -16 -5 -10 -12 4 -22 3 -22 -2 0 -6 -7 -13 -16 -16 -11 -4
-15 -2 -11 7 4 10 -2 13 -19 11 -13 -1 -27 3 -31 9 -3 7 -3 9 2 5 11 -10 36
12 29 24 -4 6 2 8 12 6 11 -2 18 -9 17 -14 -1 -6 4 -11 12 -11 8 0 14 3 13 6
-2 22 17 47 35 48 16 2 18 0 8 -6z m-728 -16 c-3 -9 -8 -14 -10 -11 -3 3 -2 9
2 15 9 16 15 13 8 -4z m-1436 -17 c-3 -8 -6 -5 -6 6 -1 11 2 17 5 13 3 -3 4
-12 1 -19z m1413 18 c0 -2 -7 -7 -16 -10 -8 -3 -12 -2 -9 4 6 10 25 14 25 6z
m-830 -55 c0 -6 -5 -13 -12 -17 -7 -5 -8 -3 -3 6 5 8 3 11 -6 8 -8 -3 -13 -14
-11 -24 2 -15 1 -16 -7 -4 -5 8 -7 18 -5 22 3 4 -1 5 -9 2 -8 -3 -18 -1 -22 5
-4 7 8 11 34 11 23 0 41 -4 41 -9z m25 -8 c-3 -10 -11 -37 -18 -60 -11 -41
-11 -41 -23 -17 -15 28 -9 54 12 54 8 0 14 9 14 20 0 11 5 20 11 20 7 0 8 -7
4 -17z m806 0 c13 -16 12 -17 -3 -4 -17 13 -22 21 -14 21 2 0 10 -8 17 -17z
m34 7 c3 -5 2 -10 -4 -10 -5 0 -13 5 -16 10 -3 6 -2 10 4 10 5 0 13 -4 16 -10z
m630 -32 c5 -4 0 -6 -12 -6 -13 1 -19 7 -16 15 3 8 8 10 12 6 3 -4 10 -11 16
-15z m57 15 c-6 -2 -10 -9 -7 -13 3 -5 -4 -8 -15 -7 -20 1 -20 2 -4 14 10 7
23 13 28 12 6 0 5 -3 -2 -6z m-686 -80 c-2 -3 -13 0 -23 7 -16 10 -16 11 0 6
14 -4 17 1 19 32 l1 37 4 -39 c3 -21 2 -40 -1 -43z m-910 27 c0 -11 -6 -20
-12 -20 -7 0 -10 8 -7 20 3 11 8 20 12 20 4 0 7 -9 7 -20z m-870 -22 c-2 -18
-4 -53 -5 -78 -2 -25 -5 -40 -7 -33 -3 7 -12 9 -20 6 -8 -3 -14 0 -14 6 0 6 7
11 15 11 8 0 15 4 15 10 0 6 -10 5 -25 -2 -14 -6 -25 -15 -25 -20 0 -4 -9 -8
-21 -8 -13 0 -18 4 -13 13 6 10 4 10 -7 0 -7 -7 -22 -13 -32 -13 -16 0 -17 3
-7 15 7 8 17 12 23 8 6 -3 7 -1 3 6 -4 6 -12 9 -17 6 -10 -7 -13 64 -3 89 5
12 21 16 74 16 l68 0 -2 -32z m45 25 c-11 -5 -11 -7 0 -15 12 -8 12 -9 0 -6
-22 6 -25 28 -4 27 12 0 14 -2 4 -6z m2349 -13 c0 -11 -2 -20 -4 -20 -2 0 -6
9 -9 20 -3 11 -1 20 4 20 5 0 9 -9 9 -20z m35 0 c-2 -13 2 -20 11 -20 8 0 13
4 10 9 -3 5 2 15 12 22 9 7 14 9 10 5 -4 -5 -4 -14 2 -20 14 -18 -3 -35 -31
-29 -20 4 -26 11 -26 29 0 13 3 24 8 24 4 0 6 -9 4 -20z m-2385 -44 c0 -3 -4
-8 -10 -11 -5 -3 -10 -1 -10 4 0 6 5 11 10 11 6 0 10 -2 10 -4z m2393 -16 c-3
-12 -8 -19 -11 -16 -5 6 5 36 12 36 2 0 2 -9 -1 -20z m-1535 -30 c-1 -22 -6
-40 -11 -40 -5 0 -6 7 -3 16 3 9 6 27 6 40 0 13 2 24 5 24 3 0 5 -18 3 -40z
m869 -47 c-2 -16 -4 -5 -4 22 0 28 2 40 4 28 2 -13 2 -35 0 -50z m-1877 -14
c0 -5 7 -6 15 -3 10 4 15 0 15 -15 0 -15 -7 -21 -22 -22 -18 0 -19 -2 -7 -7
10 -5 16 -20 16 -47 0 -38 -2 -41 -26 -39 -52 2 -52 2 -49 47 2 27 7 41 16 40
6 -2 12 2 12 7 0 6 -4 10 -10 10 -5 0 -10 8 -10 19 0 13 7 19 25 19 14 0 25
-4 25 -9z m95 -9 c-4 -6 -10 -8 -15 -5 -5 3 -12 0 -16 -6 -4 -8 -3 -9 4 -5 7
4 12 3 12 -3 0 -5 -5 -11 -11 -13 -9 -3 -8 -10 1 -28 9 -18 10 -25 1 -28 -6
-2 -9 -8 -5 -13 3 -5 -2 -9 -11 -9 -10 0 -13 4 -8 13 4 6 6 33 5 60 -3 45 -2
47 23 47 15 0 24 -4 20 -10z m40 -6 c1 -5 0 -5 -3 -1 -2 5 -13 1 -23 -9 -21
-19 -26 -11 -6 11 13 15 30 15 32 -1z m-30 -52 c-3 -3 -11 0 -18 7 -9 10 -8
11 6 5 10 -3 15 -9 12 -12z m892 -74 c-2 -18 -4 -4 -4 32 0 36 2 50 4 33 2
-18 2 -48 0 -65z m870 25 c-3 -10 -5 -4 -5 12 0 17 2 24 5 18 2 -7 2 -21 0
-30z m-1771 -1 c0 -13 -8 -18 -31 -19 -19 -1 -22 1 -10 4 11 3 24 11 28 19 11
18 13 18 13 -4z m-120 -44 c21 3 27 -20 10 -46 -4 -7 -2 -12 4 -12 6 0 9 -4 5
-9 -3 -6 17 -12 47 -14 l53 -3 -62 -2 c-52 -2 -61 1 -57 13 5 11 -1 15 -17 15
-19 0 -21 -2 -9 -10 12 -8 12 -10 -5 -10 -18 0 -20 5 -17 45 3 31 8 43 16 38
6 -4 20 -6 32 -5z m54 -10 c0 8 6 12 13 9 6 -2 11 -12 9 -22 -2 -9 1 -14 6
-11 11 6 26 -23 17 -32 -3 -3 -5 0 -5 7 0 7 -4 10 -9 6 -6 -3 -14 3 -20 12
-10 17 -10 17 -11 1 0 -20 -15 -24 -26 -6 -5 7 -2 8 7 3 11 -6 11 -5 2 5 -6 7
-9 19 -6 27 5 12 7 12 14 1 7 -11 9 -11 9 0z m80 -8 c0 -5 -2 -10 -4 -10 -3 0
-8 5 -11 10 -3 6 -1 10 4 10 6 0 11 -4 11 -10z m-9 -43 c-10 -9 -11 -8 -5 6 3
10 9 15 12 12 3 -3 0 -11 -7 -18z"/>
<path d="M1685 2680 c-9 -30 4 -80 21 -80 12 0 14 11 12 47 -3 49 -22 68 -33
33z"/>
<path d="M2076 2696 c5 -12 4 -17 -3 -13 -5 3 -10 0 -10 -8 0 -20 13 -19 21 2
4 9 2 21 -4 27 -8 8 -9 6 -4 -8z"/>
<path d="M3050 2420 c0 -19 -3 -21 -9 -11 -7 11 -22 -5 -63 -68 -29 -45 -53
-85 -53 -89 0 -4 -12 -23 -26 -42 -37 -50 -40 -57 -22 -57 8 0 24 18 34 41 12
28 19 34 19 21 1 -18 2 -18 11 3 5 13 6 29 2 35 -3 7 -3 9 2 5 4 -4 19 5 31
20 18 21 24 23 24 10 0 -9 -8 -23 -18 -30 -21 -15 -36 -48 -22 -48 6 0 10 7
10 15 0 8 4 15 8 15 14 0 43 58 31 62 -9 3 -8 10 1 25 8 12 19 19 25 17 6 -3
19 12 29 32 16 34 16 39 2 53 -15 14 -16 13 -16 -9z m0 -44 c0 -3 -4 -8 -10
-11 -5 -3 -10 -1 -10 4 0 6 5 11 10 11 6 0 10 -2 10 -4z"/>
<path d="M1047 2164 c-4 -4 -7 -29 -7 -56 0 -42 3 -48 20 -48 27 0 32 17 22
65 -7 37 -21 53 -35 39z"/>
<path d="M1207 2164 c-4 -4 -7 -29 -7 -56 0 -42 3 -48 21 -48 18 0 20 5 17 52
-3 48 -15 68 -31 52z"/>
<path d="M1840 2094 c-9 -10 -16 -51 -18 -110 -4 -93 -4 -94 19 -95 13 0 33
-2 44 -4 34 -7 45 13 45 84 0 105 -50 174 -90 125z m60 -139 c0 -38 -3 -45
-20 -45 -17 0 -20 7 -20 45 0 38 3 45 20 45 17 0 20 -7 20 -45z"/>
<path d="M1487 2013 c-4 -3 -7 -33 -7 -65 0 -51 2 -58 20 -58 18 0 20 7 20 54
0 50 -17 86 -33 69z"/>
<path d="M2237 2014 c-4 -4 -7 -34 -7 -66 0 -51 2 -58 20 -58 17 0 20 7 20 48
0 47 -19 90 -33 76z"/>
<path d="M1580 1719 c-7 -11 -9 -23 -6 -27 3 -3 6 0 6 7 0 7 4 9 10 6 5 -3 7
0 4 9 -3 8 2 16 13 19 16 4 16 5 1 6 -10 0 -22 -8 -28 -20z"/>
<path d="M1810 1729 c0 -5 5 -7 10 -4 6 3 10 8 10 11 0 2 -4 4 -10 4 -5 0 -10
-5 -10 -11z"/>
<path d="M2044 1709 c-4 -7 -3 -9 4 -5 6 3 15 -1 20 -10 8 -15 10 -14 16 2 4
10 4 15 0 11 -4 -4 -13 -2 -20 4 -8 7 -14 6 -20 -2z"/>
<path d="M1623 1693 c-4 -10 -12 -22 -20 -26 -7 -4 -13 -13 -13 -20 0 -7 4 -6
10 3 9 15 11 12 14 -20 1 -8 8 -14 16 -12 7 2 17 -3 22 -10 6 -8 7 0 4 22 -4
19 -7 40 -8 47 -1 7 -6 9 -11 6 -6 -4 -8 0 -4 10 3 10 4 17 1 17 -2 0 -8 -8
-11 -17z m12 -33 c-3 -5 -1 -10 4 -10 6 0 11 -5 11 -11 0 -8 -5 -8 -15 1 -13
11 -12 30 1 30 3 0 2 -4 -1 -10z"/>
<path d="M2051 1674 c0 -11 3 -14 6 -6 3 7 2 16 -1 19 -3 4 -6 -2 -5 -13z"/>
<path d="M1560 1669 c0 -5 -4 -8 -8 -5 -5 3 -7 -5 -6 -17 1 -12 3 -26 3 -30 1
-5 6 -7 13 -5 13 5 19 68 6 68 -4 0 -8 -5 -8 -11z m7 -34 c0 -8 -4 -12 -9 -9
-5 3 -6 10 -3 15 9 13 12 11 12 -6z"/>
<path d="M2067 1613 c-4 -3 -7 -11 -7 -17 0 -6 5 -5 12 2 6 6 9 14 7 17 -3 3
-9 2 -12 -2z"/>
<path d="M1645 1569 c-4 -6 -5 -12 -2 -15 2 -3 7 2 10 11 7 17 1 20 -8 4z"/>
<path d="M1606 1514 c-5 -14 -4 -15 9 -4 17 14 19 20 6 20 -5 0 -12 -7 -15
-16z"/>
<path d="M1780 1520 c0 -5 5 -10 10 -10 6 0 10 5 10 10 0 6 -4 10 -10 10 -5 0
-10 -4 -10 -10z"/>
<path d="M1400 1435 c0 -14 2 -25 4 -25 2 0 6 11 8 25 3 14 1 25 -3 25 -5 0
-9 -11 -9 -25z"/>
<path d="M2350 1380 c0 -16 4 -30 8 -30 5 0 7 14 4 30 -2 17 -6 30 -8 30 -2 0
-4 -13 -4 -30z"/>
<path d="M2340 1330 c0 -5 7 -10 15 -10 7 0 18 -7 23 -16 6 -11 11 -13 16 -5
4 6 2 11 -3 11 -6 0 -11 7 -11 15 0 8 -9 15 -20 15 -11 0 -20 -4 -20 -10z"/>
<path d="M831 1124 c0 -11 3 -14 6 -6 3 7 2 16 -1 19 -3 4 -6 -2 -5 -13z"/>
<path d="M2980 1106 c0 -2 7 -9 15 -16 12 -10 15 -10 15 4 0 9 -7 16 -15 16
-8 0 -15 -2 -15 -4z"/>
<path d="M2955 1091 c-2 -5 4 -11 15 -14 11 -3 20 -2 20 3 0 12 -28 21 -35 11z"/>
<path d="M1610 865 c14 -8 30 -14 35 -14 6 0 -1 6 -15 14 -14 8 -29 14 -35 14
-5 0 1 -6 15 -14z"/>
<path d="M1590 576 c0 -2 7 -6 15 -10 8 -3 15 -1 15 4 0 6 -7 10 -15 10 -8 0
-15 -2 -15 -4z"/>
<path d="M1540 1041 c0 -6 4 -13 10 -16 6 -3 7 1 4 9 -7 18 -14 21 -14 7z"/>
<path d="M625 960 c-3 -5 -1 -10 4 -10 6 0 11 5 11 10 0 6 -2 10 -4 10 -3 0
-8 -4 -11 -10z"/>
<path d="M552 912 c-11 -25 -11 -25 4 -10 9 9 15 21 13 27 -2 6 -10 -2 -17
-17z"/>
<path d="M2975 970 c3 -5 8 -10 11 -10 2 0 4 5 4 10 0 6 -5 10 -11 10 -5 0 -7
-4 -4 -10z"/>
<path d="M1515 861 c-3 -5 -1 -12 5 -16 5 -3 10 1 10 9 0 18 -6 21 -15 7z"/>
<path d="M486 814 c-4 -10 -1 -14 6 -12 15 5 23 28 10 28 -5 0 -13 -7 -16 -16z"/>
<path d="M571 794 c0 -11 3 -14 6 -6 3 7 2 16 -1 19 -3 4 -6 -2 -5 -13z"/>
<path d="M3073 815 c0 -8 4 -12 9 -9 5 3 6 10 3 15 -9 13 -12 11 -12 -6z"/>
<path d="M460 620 c0 -6 7 -10 15 -10 8 0 15 2 15 4 0 2 -7 6 -15 10 -8 3 -15
1 -15 -4z"/>
<path d="M496 605 c-3 -8 -12 -12 -21 -9 -10 4 -15 0 -15 -14 0 -24 18 -32 45
-21 14 5 16 8 5 9 -8 2 -19 2 -24 1 -5 -1 -4 5 3 13 7 9 17 13 22 10 5 -3 6 2
3 10 -8 20 -10 20 -18 1z"/>
<path d="M452 494 c1 -11 8 -21 15 -21 7 0 11 3 8 5 -3 3 0 11 6 19 9 9 8 13
0 13 -6 0 -11 -6 -11 -12 0 -9 -3 -8 -10 2 -7 12 -9 11 -8 -6z"/>
<path d="M4030 3987 c0 -8 -90 -903 -200 -1990 -110 -1086 -200 -1980 -200
-1986 0 -13 4323 -11 4336 1 4 4 98 902 210 1995 112 1094 204 1989 204 1991
0 1 -979 2 -2175 2 -1817 0 -2175 -2 -2175 -13z m4293 -24 c5 -7 -390 -3903
-396 -3909 -1 -1 -958 -6 -2125 -10 l-2124 -7 7 69 c4 38 93 920 199 1959
l191 1890 1845 5 c1015 3 1970 6 2122 8 152 1 279 -1 281 -5z"/>
<path d="M6096 3814 c-3 -9 -3 -20 0 -25 16 -27 14 -130 -5 -212 -28 -118
-104 -317 -153 -399 -22 -37 -37 -71 -34 -76 3 -5 19 -12 34 -15 32 -6 42 -33
42 -107 0 -36 -2 -38 -40 -44 l-40 -6 0 -65 c0 -57 3 -68 30 -98 29 -34 30
-37 30 -142 l0 -108 -41 56 c-22 32 -43 57 -47 57 -4 -1 -26 -31 -49 -68 -36
-57 -43 -63 -43 -40 0 15 5 30 10 33 6 3 10 45 10 92 0 66 4 91 17 105 15 17
14 22 -15 85 -17 38 -43 111 -57 163 -37 131 -36 129 -45 105 -5 -11 -16 -49
-25 -85 -9 -36 -33 -108 -54 -160 -38 -95 -42 -126 -14 -115 13 4 15 -9 12
-87 -3 -58 0 -93 6 -93 13 0 23 -79 24 -198 1 -87 -2 -103 -26 -150 l-26 -52
-19 65 c-25 90 -58 252 -58 289 0 48 -18 36 -25 -16 -16 -125 -88 -379 -116
-407 -5 -6 -9 14 -9 52 0 55 2 62 20 62 28 0 25 18 -15 80 -53 84 -151 287
-174 364 -12 37 -21 90 -21 117 0 37 -4 49 -15 49 -8 0 -15 -8 -15 -17 -2 -90
-23 -174 -66 -258 -49 -95 -142 -245 -176 -282 -25 -27 -17 -53 17 -53 25 0
25 -1 25 -80 0 -67 3 -83 20 -100 19 -19 21 -37 27 -218 7 -221 3 -242 -47
-242 -38 0 -45 -25 -37 -127 5 -65 10 -81 36 -114 17 -21 31 -43 31 -48 0 -7
-32 -11 -86 -11 -97 0 -94 -7 -27 74 30 36 33 46 33 107 0 91 -4 99 -50 99
-22 0 -42 5 -46 12 -7 10 15 33 40 41 6 2 -13 49 -46 113 -32 61 -70 154 -86
209 -15 55 -32 100 -36 100 -5 0 -19 -38 -33 -85 -26 -90 -98 -248 -133 -290
-24 -30 -18 -60 12 -60 11 0 18 -5 16 -12 -3 -8 -26 -14 -54 -16 -71 -5 -76
-12 -68 -101 6 -67 11 -81 42 -119 l35 -44 -7 -106 c-4 -59 -11 -152 -16 -207
-5 -55 -16 -181 -25 -280 -23 -275 -21 -265 -56 -265 -19 0 -29 -5 -29 -15 0
-13 37 -15 273 -15 l273 0 -7 -62 c-3 -35 -4 -65 -2 -68 7 -8 410 -13 448 -6
26 5 35 12 35 26 0 20 10 20 495 20 479 0 495 -1 495 -19 0 -10 7 -22 16 -25
21 -8 442 -8 473 1 22 6 23 9 17 69 l-7 64 336 0 c291 0 335 2 335 15 0 10
-10 15 -30 15 -17 0 -33 6 -35 13 -7 21 -57 509 -57 560 0 27 5 54 11 60 6 6
11 37 11 69 l0 58 -72 2 c-40 1 -87 1 -104 0 -29 -2 -32 0 -38 35 -11 69 -7
89 28 129 31 36 34 46 37 114 l4 75 -32 3 -33 3 0 59 c0 60 7 70 50 70 10 0
21 4 24 9 4 5 -21 60 -53 123 -84 160 -170 419 -186 558 -15 133 -29 146 -40
38 -8 -86 -62 -303 -100 -403 -34 -92 -86 -205 -94 -205 -4 0 -31 51 -61 113
-52 105 -57 112 -87 115 l-32 3 -3 145 c-3 132 -1 146 16 157 17 12 17 15 -8
97 -30 98 -71 281 -81 358 -11 81 -31 67 -44 -30 -13 -88 -57 -264 -90 -361
-20 -57 -20 -59 -2 -64 16 -4 19 -20 25 -134 4 -71 4 -134 1 -139 -3 -6 -31
-10 -62 -10 -45 0 -53 2 -44 13 8 10 6 24 -8 53 -10 21 -33 95 -51 164 -28
106 -33 149 -37 277 l-5 153 31 36 c30 33 32 40 29 102 -3 65 -4 67 -30 70
-27 3 -28 6 -28 55 0 29 -3 62 -6 74 -5 17 0 22 26 28 39 9 48 30 26 64 -54
84 -139 329 -161 465 -8 49 -13 91 -11 94 2 2 16 -4 31 -14 46 -30 124 -12
159 38 23 33 20 37 -20 26 -47 -13 -74 -5 -133 37 -54 39 -66 42 -75 19z m90
-51 c22 -16 49 -27 70 -27 35 -1 35 -1 13 -18 -47 -39 -138 -3 -139 55 0 24
16 21 56 -10z m-55 -223 c2 -24 3 -28 17 -63 16 -38 17 -37 -29 -37 -35 0 -40
3 -34 18 3 9 11 36 18 60 12 44 26 56 28 22z m39 -136 c6 -14 10 -27 10 -29 0
-2 -26 -6 -57 -8 l-58 -3 61 -2 c56 -2 62 -4 68 -26 3 -13 9 -31 12 -40 5 -13
-8 -16 -88 -19 l-93 -3 96 -2 95 -2 17 -35 17 -35 -131 0 -130 0 7 23 c3 12
19 50 34 84 16 34 31 75 35 92 6 29 10 31 51 31 39 0 46 -3 54 -26z m100 -244
l22 -31 -98 6 c-55 4 -134 2 -176 -2 -43 -5 -78 -7 -78 -5 0 2 9 17 20 32 l20
28 134 1 134 2 22 -31z m-245 -50 c-11 -5 -31 -8 -45 -8 l-25 0 25 8 c14 4 34
8 45 8 l20 1 -20 -9z m170 -14 l35 -15 0 -75 0 -76 -49 0 -48 0 5 48 c3 33 0
51 -10 59 -22 19 -40 -1 -45 -51 -5 -44 -7 -46 -38 -46 -39 0 -45 11 -45 90
l0 59 43 9 c63 15 114 14 152 -2z m58 7 c-7 -2 -21 -2 -30 0 -10 3 -4 5 12 5
17 0 24 -2 18 -5z m-535 -132 c-7 -2 -6 -6 1 -10 6 -4 22 -35 35 -69 l25 -62
-71 0 c-52 0 -68 3 -64 13 2 6 17 51 33 99 27 84 28 86 40 60 7 -18 8 -28 1
-31z m389 2 c-3 -10 -5 -4 -5 12 0 17 2 24 5 18 2 -7 2 -21 0 -30z m188 -118
l0 -49 -182 -1 -183 0 0 53 0 54 183 -4 182 -3 0 -50z m-505 -39 c0 -2 2 -10
5 -18 4 -10 -15 -13 -89 -13 -86 0 -93 1 -85 18 8 14 24 17 89 17 44 0 80 -2
80 -4z m259 -43 c10 -17 10 -17 11 2 0 14 3 16 11 8 20 -20 -1 -33 -50 -33
-33 0 -53 5 -62 17 -12 15 -12 16 7 11 12 -3 28 -2 35 3 21 13 37 11 48 -8z
m145 1 c9 -8 16 -11 16 -5 0 6 14 11 32 11 28 0 30 -2 18 -14 -20 -20 -166
-10 -174 10 -8 21 88 19 108 -2z m-414 -96 l0 -83 -70 0 -70 0 0 83 0 82 70 0
70 0 0 -82z m458 -78 c3 -136 -13 -256 -52 -383 l-22 -72 -28 55 c-16 30 -55
103 -87 161 l-59 106 0 132 0 132 123 -3 122 -3 3 -125z m334 75 c4 -21 1 -25
-18 -25 -18 0 -22 4 -18 18 3 9 8 23 10 30 6 19 21 6 26 -23z m-1352 -157 c0
-4 -27 -8 -60 -8 -33 0 -60 2 -60 5 0 2 8 20 17 40 12 26 23 35 42 36 23 2 23
2 4 6 -19 4 -20 7 -11 34 l11 31 28 -68 c16 -38 29 -72 29 -76z m1360 113 c0
-5 3 -16 6 -25 4 -11 1 -16 -11 -16 -9 0 -13 -5 -10 -10 4 -6 10 -8 15 -5 11
7 16 -2 25 -42 l7 -33 -56 0 c-31 0 -56 2 -56 5 0 3 7 35 16 70 14 57 19 65
40 65 13 0 24 -4 24 -9z m-576 -246 c85 -143 148 -274 141 -295 -3 -10 -1 -21
5 -25 27 -17 2 -25 -80 -25 l-90 0 0 84 c0 73 -3 88 -23 113 -13 15 -34 45
-46 66 -12 20 -30 37 -39 37 -10 0 -33 -28 -57 -68 -39 -66 -40 -69 -36 -149
l3 -83 -101 0 c-83 0 -101 3 -101 15 0 9 9 15 21 15 18 0 20 4 16 28 -7 33 57
164 176 360 l80 133 39 -58 c21 -32 63 -98 92 -148z m-244 125 c0 -38 -9 -65
-45 -131 l-45 -84 0 80 c0 44 -3 103 -6 132 l-7 52 44 3 c24 2 47 2 52 0 4 -2
7 -25 7 -52z m-514 -45 c7 -19 14 -37 14 -39 0 -3 -37 -7 -82 -9 l-83 -3 87
-2 c86 -2 88 -3 103 -32 8 -16 15 -31 15 -35 0 -3 -68 -5 -151 -5 l-151 0 21
33 c12 17 33 53 47 80 l24 47 71 0 70 0 15 -35z m1378 0 c3 -13 9 -30 12 -39
5 -14 -5 -16 -80 -16 -47 0 -86 4 -86 9 0 4 5 22 11 38 10 30 12 31 74 31 58
0 64 -1 69 -23z m-1099 -119 c20 -76 20 -76 -21 -76 -30 0 -35 3 -29 18 3 9
11 41 17 70 6 29 13 51 15 49 2 -2 10 -30 18 -61z m1129 39 c5 -13 -10 -15
-99 -15 -96 0 -117 5 -98 23 3 4 48 7 99 7 72 0 93 -3 98 -15z m-354 -187 c0
-5 -23 -8 -51 -8 -40 0 -50 3 -46 14 3 8 11 33 16 55 6 23 16 60 22 84 l11 42
24 -90 c13 -49 24 -93 24 -97z m328 4 l3 -143 -68 3 -68 3 -5 138 c-3 76 -3
141 0 143 2 3 34 4 70 2 l65 -3 3 -143z m-1258 56 c10 -16 5 -18 -60 -18 l-70
0 -2 33 -1 32 -4 -32 -4 -33 -151 0 c-126 0 -149 2 -139 14 6 7 21 12 34 11
12 -1 14 0 5 2 -10 2 -18 8 -18 13 0 4 8 17 18 29 16 19 28 21 172 23 l155 3
28 -30 c15 -16 32 -38 37 -47z m542 8 l37 -54 -65 -7 c-36 -4 -68 -4 -72 0 -7
6 48 115 58 115 3 -1 22 -25 42 -54z m1185 -143 c5 -22 2 -23 -52 -23 l-57 0
6 28 c3 15 9 38 11 52 11 50 17 60 33 61 15 0 15 1 1 7 -13 6 -14 13 -6 42 10
35 10 34 34 -55 13 -49 27 -100 30 -112z m-1525 57 l26 -81 -33 7 c-19 3 -35
1 -39 -5 -9 -15 -42 -14 -66 1 -16 10 -24 10 -40 0 -20 -12 -20 -12 -7 15 8
15 23 54 33 86 l18 57 41 0 41 0 26 -80z m-232 -50 l0 -80 -180 0 -180 0 0 58
c0 31 -3 67 -6 80 l-6 22 186 0 186 0 0 -80z m610 -110 l0 -170 -81 0 -81 0 6
168 c3 92 6 168 6 170 0 1 34 2 75 2 l75 0 0 -170z m373 118 c19 -48 17 -54
-13 -38 -17 9 -29 9 -47 1 -17 -8 -29 -8 -43 1 -15 10 -22 10 -32 0 -23 -23
-26 -12 -9 33 l16 45 56 0 56 0 16 -42z m796 -79 c6 -18 11 -36 11 -40 0 -5
-40 -9 -90 -9 -67 0 -88 3 -85 13 25 71 20 67 89 67 63 0 64 -1 75 -31z
m-1710 -162 c-1 -135 1 -173 12 -181 14 -11 39 -59 39 -76 0 -4 -29 -10 -65
-12 l-65 -3 0 198 c0 170 2 197 15 197 9 0 18 12 21 29 5 22 10 27 25 24 19
-5 20 -15 18 -176z m149 34 l3 -141 -66 0 -65 0 0 143 0 142 62 -2 63 -1 3
-141z m713 139 l49 0 0 -140 0 -140 -70 0 -70 0 0 138 c0 76 3 142 7 146 4 3
13 4 21 1 7 -3 36 -5 63 -5z m169 -40 c0 -5 14 -10 30 -10 17 0 30 5 30 10 0
14 97 13 102 -2 2 -6 23 -12 45 -12 23 -1 45 -4 49 -8 4 -5 -74 -8 -174 -8
-175 0 -182 1 -182 20 0 17 7 20 50 20 28 0 50 -4 50 -10z m-1346 -6 c23 -9 1
-34 -29 -34 -31 0 -41 27 -12 33 12 2 23 5 24 6 1 0 9 -2 17 -5z m194 -16 c-6
-18 -114 -20 -129 -2 -10 12 0 14 61 14 52 0 71 -3 68 -12z m485 5 c3 -5 2
-43 0 -85 l-6 -78 -93 0 -94 0 0 85 0 85 94 0 c52 0 97 -3 99 -7z m387 -78 l0
-85 -90 0 -90 0 0 85 0 85 90 0 90 0 0 -85z m-1007 57 c12 -14 30 -18 69 -17
29 0 59 4 66 8 9 7 12 -33 12 -184 l0 -193 -26 35 c-28 38 -85 154 -103 212
-7 20 -16 37 -20 37 -4 0 -13 -19 -20 -42 -16 -57 -91 -208 -102 -208 -5 0 -9
79 -9 176 0 138 3 173 13 167 24 -15 67 -11 78 8 12 24 21 24 42 1z m2002 -34
c9 -24 19 -48 22 -55 4 -9 -19 -13 -84 -16 l-88 -3 92 -2 c91 -2 93 -2 108
-32 19 -37 19 -38 -7 -43 -20 -4 -19 -4 4 -6 21 -1 32 -10 48 -41 l20 -40 -60
0 -60 0 -2 48 -2 47 -3 -47 -4 -48 -155 0 c-96 0 -154 4 -154 10 0 5 17 43 39
82 21 40 42 84 46 97 4 13 14 39 21 58 l14 33 94 0 94 0 17 -42z m-427 12 c2
-13 -25 -15 -193 -16 -184 -1 -195 0 -195 18 0 17 10 18 192 16 162 -3 193 -5
196 -18z m-2029 -102 c1 -5 -10 -8 -24 -8 -28 0 -30 4 -13 51 l11 33 13 -34
c7 -19 13 -38 13 -42z m2033 48 c13 -9 37 -43 53 -76 24 -51 27 -64 18 -92
-13 -45 -7 -56 33 -64 24 -4 34 -12 34 -25 0 -29 -82 -27 -111 2 -17 17 -89
158 -89 174 0 2 19 6 43 8 l42 4 -46 1 c-41 2 -48 5 -53 27 -4 14 -4 31 0 36
4 7 -1 9 -11 7 -11 -2 -26 -29 -44 -83 -15 -44 -40 -104 -56 -132 l-28 -53
-119 0 c-117 0 -119 0 -108 21 7 11 20 29 31 40 10 10 19 30 19 44 0 20 5 25
24 25 13 0 38 3 55 6 28 6 31 10 31 45 l0 39 -45 0 c-33 0 -45 4 -45 15 0 12
17 15 83 17 l82 2 -82 3 c-46 2 -83 8 -83 13 0 9 133 16 271 14 51 -1 84 -7
101 -18z m-320 -66 c14 0 19 -6 16 -22 -2 -19 -10 -24 -45 -26 -40 -3 -43 -1
-43 22 0 25 15 37 38 30 8 -2 23 -4 34 -4z m-1694 -24 c6 -13 8 -27 5 -30 -7
-7 -103 -8 -103 -2 0 3 4 16 10 30 13 36 72 37 88 2z m1936 -23 c6 -17 2 -22
-16 -26 -22 -4 -22 -4 2 -6 21 -1 31 -12 53 -56 15 -31 27 -58 27 -60 0 -3
-39 -5 -86 -5 -47 0 -84 3 -82 8 29 55 68 145 74 167 7 29 15 23 28 -22z
m-1493 -16 c-5 -5 -1 -17 10 -28 28 -28 24 -37 -18 -42 l-38 -4 41 -1 c39 -2
43 -5 86 -69 l45 -68 -134 0 c-73 0 -133 1 -133 1 0 1 16 26 36 55 32 49 72
126 88 174 6 16 9 17 16 5 5 -8 5 -19 1 -23z m799 19 c-13 -17 -166 -21 -176
-4 -4 5 -10 5 -17 0 -7 -5 -51 -10 -99 -10 -70 -1 -88 2 -88 14 0 12 33 14
196 14 170 0 195 -2 184 -14z m200 -1 c0 -17 -55 -21 -65 -5 -4 7 -12 7 -25 0
-30 -16 -90 -13 -90 5 0 12 17 15 90 15 73 0 90 -3 90 -15z m-1415 -45 c19
-37 19 -38 -7 -43 -21 -4 -21 -4 3 -6 18 -1 33 -13 52 -41 l26 -40 -75 0 c-74
0 -74 0 -75 28 l-2 27 -4 -27 c-4 -27 -6 -28 -70 -28 l-65 0 25 34 c15 18 34
52 43 74 16 40 17 41 72 45 32 2 58 4 59 5 1 1 9 -11 18 -28z m814 4 c8 -8 -5
-13 -44 -18 -44 -6 -85 2 -85 14 0 16 114 19 129 4z m81 -4 c11 6 44 10 73 8
l52 -3 3 -132 3 -132 -36 -7 c-30 -5 -35 -10 -35 -35 0 -29 -1 -29 -59 -29
l-60 0 -3 33 c-3 32 -3 32 -50 29 l-48 -4 0 71 c0 65 2 71 20 71 14 0 26 12
38 38 9 20 20 39 24 42 4 3 12 18 18 34 8 23 13 26 25 16 10 -8 19 -9 35 0z
m320 -130 c0 -118 -2 -140 -15 -140 -12 0 -15 15 -15 73 0 91 -6 111 -36 127
-20 11 -27 11 -44 -5 -17 -15 -20 -31 -20 -102 0 -76 -2 -83 -20 -83 -19 0
-20 7 -20 128 0 71 3 132 7 135 3 4 42 7 85 7 l78 0 0 -140z m201 112 c4 -11
12 -23 18 -27 6 -3 17 -21 25 -39 7 -17 20 -39 29 -47 10 -10 17 -39 19 -75
l3 -59 -45 0 c-43 0 -45 -1 -48 -32 -3 -33 -4 -33 -57 -33 -53 0 -54 0 -57 33
-3 30 -5 32 -35 29 l-33 -3 0 134 c0 73 3 137 7 141 4 4 43 5 87 3 68 -4 81
-8 87 -25z m157 11 c-2 -11 -12 -17 -23 -16 -11 2 -39 4 -62 5 -27 1 -43 7
-43 15 0 9 19 13 66 13 57 0 65 -2 62 -17z m-790 -50 c-2 -12 -13 -18 -33 -18
-20 0 -31 6 -33 18 -3 14 4 17 33 17 29 0 36 -3 33 -17z m750 0 c-2 -11 -14
-19 -31 -21 -22 -3 -27 1 -27 17 0 17 6 21 31 21 24 0 30 -4 27 -17z m927 -73
c1 -62 -1 -69 -20 -72 -14 -2 -20 -10 -19 -25 0 -13 -3 -23 -8 -23 -4 0 -8 11
-8 24 0 24 -16 36 -51 36 -15 0 -19 7 -19 35 0 23 -6 38 -15 41 -24 9 -45 -15
-45 -51 0 -25 -5 -34 -21 -38 -16 -4 -20 -11 -16 -26 3 -12 2 -21 -3 -21 -4 0
-10 14 -13 30 -6 25 -11 30 -37 30 -29 0 -30 1 -30 49 0 32 -6 55 -16 65 -14
15 0 16 153 16 l168 0 0 -70z m-1695 30 c0 -5 -4 -10 -9 -10 -6 0 -13 5 -16
10 -3 6 1 10 9 10 9 0 16 -4 16 -10z m390 -11 c8 -13 9 -51 4 -110 -6 -85 -8
-89 -30 -89 -24 0 -24 1 -24 103 0 57 3 107 7 110 13 13 32 7 43 -14z m360 11
c0 -5 -7 -10 -16 -10 -8 0 -12 5 -9 10 3 6 10 10 16 10 5 0 9 -4 9 -10z m492
-50 l24 -35 -142 -1 -143 -1 25 33 c26 33 26 33 111 33 47 0 88 2 91 5 7 7 6
8 34 -34z m-287 -20 c-16 -16 -39 -30 -51 -30 -23 0 -34 -17 -34 -51 0 -18 -6
-20 -47 -17 l-48 3 -3 63 -3 62 107 0 108 0 -29 -30z m413 -2 c3 -23 -1 -28
-19 -28 -23 0 -69 35 -69 52 0 5 19 8 43 6 38 -3 42 -6 45 -30z m-1420 -40 l3
-58 -36 0 c-33 0 -35 2 -35 33 0 28 -4 34 -32 42 -68 21 -29 44 67 41 29 -1
30 -2 33 -58z m1602 42 c0 -11 -4 -20 -9 -20 -5 0 -7 9 -4 20 3 11 7 20 9 20
2 0 4 -9 4 -20z m-2270 -9 c0 -11 -4 -23 -10 -26 -5 -3 -10 -15 -10 -26 0 -10
-4 -19 -8 -19 -4 0 -8 12 -7 28 l0 27 -80 0 c-80 0 -80 0 -83 -27 -3 -28 -22
-40 -22 -14 0 7 -3 28 -6 45 l-6 31 116 0 c108 0 116 -1 116 -19z m352 -61 c4
-34 22 -32 26 3 3 26 6 27 58 27 51 0 54 -1 54 -25 0 -14 5 -25 10 -25 6 0 10
10 10 21 0 17 4 20 23 15 12 -3 28 -6 35 -6 13 0 18 -117 4 -135 -11 -15 -55
-12 -68 5 -10 11 -17 12 -35 3 -43 -20 -57 -22 -69 -7 -13 15 -48 18 -66 6 -6
-4 -15 -25 -20 -47 -12 -50 -28 -52 -32 -3 -4 48 -26 67 -50 44 -10 -9 -29
-16 -41 -16 -12 0 -19 -4 -16 -10 3 -5 15 -10 26 -10 12 0 19 -7 19 -20 0 -27
-15 -25 -39 6 -29 37 -43 97 -36 147 6 38 10 43 33 42 18 0 29 -6 32 -20 8
-29 24 -25 28 7 3 24 8 27 50 30 55 4 59 1 64 -32z m1483 3 c0 -38 24 -41 31
-3 7 30 8 31 58 28 44 -3 51 -6 54 -25 4 -27 32 -31 32 -5 0 15 6 17 35 14
l35 -4 0 -60 c0 -73 -12 -98 -48 -99 -26 -1 -26 -1 -4 -8 23 -6 23 -6 -8 -36
l-32 -30 7 41 c4 29 3 44 -6 49 -6 5 -75 8 -153 8 l-141 1 -3 -42 c-2 -23 -5
-42 -8 -42 -7 0 -53 53 -54 62 0 4 12 9 28 11 25 4 25 4 -5 6 l-33 1 0 70 c0
62 2 70 19 70 11 0 26 3 35 6 12 4 16 0 16 -15 0 -28 14 -27 28 4 10 22 18 25
65 25 51 0 53 -1 52 -27z m-1893 -10 c4 -36 41 -44 60 -14 9 14 23 21 45 21
31 0 32 -1 38 -54 7 -50 4 -59 -21 -97 -39 -58 -54 -61 -54 -11 l0 40 -77 -2
c-43 -1 -84 -5 -90 -9 -7 -5 -13 -21 -13 -38 0 -31 -23 -41 -34 -13 -11 28 -7
46 9 40 8 -3 15 -2 15 3 0 10 -69 23 -82 15 -4 -3 -8 -21 -8 -40 0 -42 -12
-43 -40 -4 l-21 30 23 1 c19 1 17 3 -7 8 -29 6 -30 8 -33 74 l-3 67 55 0 c49
0 55 -2 58 -22 6 -42 68 -30 68 13 0 16 8 19 54 19 52 0 55 -1 58 -27z m2210
0 c3 -24 8 -28 33 -28 25 0 30 4 33 28 3 26 6 27 56 27 52 0 54 -1 60 -31 5
-26 10 -30 33 -27 20 2 28 9 28 23 1 23 4 25 50 25 l35 0 0 -54 c0 -33 -5 -58
-12 -63 -7 -4 -38 -7 -69 -6 -51 2 -57 0 -67 -22 -17 -36 -42 -32 -42 5 l0 31
-77 -3 -77 -3 -10 -33 c-9 -34 -34 -39 -28 -6 8 42 10 71 11 117 1 40 4 47 20
47 14 0 21 -8 23 -27z m-1392 -66 c0 -37 19 -47 86 -47 81 0 94 6 94 41 0 28
2 29 44 29 36 0 46 -4 51 -20 3 -11 15 -20 26 -20 13 0 19 -7 20 -22 l2 -23 4
23 c3 13 12 22 23 22 10 0 20 9 23 20 4 16 14 20 50 20 44 0 46 -1 49 -32 l3
-33 80 0 80 0 3 32 3 32 72 -4 c40 -3 82 -5 95 -5 18 0 22 -6 22 -30 0 -32 20
-79 51 -119 11 -13 19 -34 19 -47 l0 -24 -141 0 -142 0 6 45 7 45 -310 0 -310
0 7 -45 6 -45 -127 0 c-147 0 -149 2 -91 84 26 38 35 60 35 91 0 23 3 45 7 48
3 4 39 7 80 7 70 0 73 -1 73 -23z m1450 -56 c0 -11 -5 -23 -11 -26 -13 -8 -15
-6 -23 23 -6 18 -3 22 13 22 14 0 21 -6 21 -19z m-40 -23 c0 -5 -7 -8 -15 -8
-15 0 -20 21 -8 33 7 7 23 -11 23 -25z m100 7 c0 -14 7 -28 15 -31 20 -8 67 4
60 15 -7 12 5 41 17 41 6 0 7 -16 3 -40 -6 -36 -5 -40 13 -40 25 0 29 -23 38
-220 3 -80 8 -148 11 -152 2 -5 -51 -9 -119 -10 l-123 -2 123 -3 c118 -4 122
-4 122 -26 0 -12 5 -78 10 -147 5 -69 13 -169 16 -223 l6 -97 -81 0 -81 0 -2
33 -1 32 -4 -32 -4 -33 -68 0 -68 0 -6 87 c-4 49 -6 122 -7 163 0 41 -5 203
-10 359 -12 315 -14 305 52 294 39 -6 39 -6 54 45 7 23 34 13 34 -13z m168 3
c-6 -16 -36 -34 -44 -26 -3 4 -4 14 -1 23 7 17 51 21 45 3z m-2550 -41 c7 -27
13 -32 38 -32 25 0 29 4 32 33 5 46 22 40 22 -8 0 -22 5 -40 10 -40 6 0 10
-16 10 -35 l0 -35 -132 -2 -133 -2 131 -3 131 -4 6 -142 c4 -78 7 -197 7 -264
l0 -123 -166 0 -166 0 5 33 c5 26 20 199 30 347 l2 35 65 6 65 6 -64 1 -64 2
6 68 c4 37 7 77 7 90 0 12 6 22 14 22 20 0 28 28 15 52 -12 22 -6 34 10 23 6
-3 11 -16 11 -29 0 -14 10 -28 25 -36 33 -18 55 1 55 47 0 41 16 35 28 -10z
m57 21 c-12 -38 -24 -43 -35 -14 -13 36 -14 36 16 36 22 0 24 -3 19 -22z m446
-16 c9 -43 21 -55 50 -50 20 2 25 10 27 41 2 20 8 37 14 37 7 0 8 -16 4 -44
-5 -33 -3 -45 8 -49 11 -5 15 -27 15 -101 l1 -96 -153 -2 -152 -2 151 -3 c172
-4 164 1 164 -95 l0 -48 -166 0 -167 0 7 68 c3 37 9 111 13 165 4 70 11 103
22 115 9 9 16 31 16 50 0 20 6 37 13 39 8 3 12 -7 12 -31 0 -39 25 -62 51 -45
7 5 28 9 44 10 l30 2 -27 4 c-19 3 -28 10 -28 23 0 57 40 66 51 12z m67 11
c-2 -17 -10 -29 -20 -31 -14 -3 -18 3 -18 27 0 25 4 31 21 31 16 0 20 -5 17
-27z m102 18 c0 -6 -12 -23 -26 -38 -18 -19 -24 -22 -20 -10 3 10 6 27 6 38 0
12 7 19 20 19 11 0 20 -4 20 -9z m1235 -18 c-13 -54 -45 -56 -45 -2 0 25 4 29
26 29 24 0 25 -3 19 -27z m130 -5 c-9 -42 -14 -50 -26 -43 -5 4 -9 22 -9 41 0
28 4 34 21 34 18 0 20 -4 14 -32z m-65 -14 c0 -17 -5 -24 -20 -24 -22 0 -25
12 -9 41 13 25 29 16 29 -17z m-123 -9 c-5 -31 35 -55 63 -37 27 17 67 15 74
-3 7 -19 25 -19 46 0 14 12 21 13 43 2 22 -10 27 -19 27 -49 l0 -38 -155 0
-155 0 0 41 c0 37 2 40 21 34 21 -7 22 -5 16 32 -4 22 -4 43 0 46 12 12 25 -6
20 -28z m231 13 c-2 -13 -10 -24 -19 -26 -13 -2 -15 3 -12 23 7 32 36 34 31 3z
m136 -156 c3 -86 8 -245 11 -352 3 -107 8 -239 11 -292 l6 -98 -26 0 c-30 0
-32 7 -41 140 -3 52 -8 121 -11 153 -6 51 -5 57 12 58 15 1 16 2 3 6 -20 5
-25 40 -40 290 l-11 181 28 40 c16 22 34 38 40 35 7 -3 13 -58 18 -161z m-754
29 c0 -49 3 -96 6 -105 7 -19 22 -21 21 -3 0 6 1 29 1 50 l2 37 136 0 135 0
-3 -42 -3 -43 -120 -5 -120 -6 119 -2 118 -2 -6 -107 c-4 -60 -10 -123 -13
-140 l-5 -33 -99 0 c-74 0 -99 3 -99 13 0 31 -72 157 -119 209 -58 64 -161
122 -216 122 -42 0 -132 -45 -188 -95 -67 -59 -130 -171 -153 -274 -11 -49
-24 -198 -24 -282 l0 -93 -33 0 c-17 0 -47 -4 -65 -9 -35 -11 -33 -15 -37 64
-2 42 -10 143 -25 340 -5 66 -12 157 -15 203 l-5 82 130 0 130 0 1 73 c1 39 3
79 4 87 1 8 3 23 4 33 1 16 21 17 271 17 l270 0 0 -89z m-1275 30 c3 -5 1 -12
-5 -16 -15 -10 -12 -45 5 -52 21 -7 59 27 45 41 -22 22 -11 37 28 34 22 -2 37
-8 36 -15 -1 -7 -2 -33 -2 -58 l-2 -45 -80 0 -80 0 0 46 c0 33 5 51 18 60 21
16 29 17 37 5z m35 -36 c0 -8 -9 -15 -20 -15 -20 0 -26 11 -13 23 12 13 33 7
33 -8z m555 5 c-66 -3 -124 -2 -129 2 -6 4 48 7 120 6 l129 -2 -120 -6z m990
2 c-6 -5 -71 -6 -145 -2 l-135 7 145 1 c79 1 140 -2 135 -6z m-875 -44 c0 -13
3 -33 6 -45 6 -23 6 -23 -120 -23 l-126 0 0 45 0 45 120 0 c118 0 120 0 120
-22z m972 -10 l1 -33 4 33 4 33 117 -3 117 -3 3 -42 3 -43 -165 0 c-180 0
-172 -3 -160 59 6 27 10 31 40 31 31 0 34 -3 36 -32z m732 -2 c-7 -28 8 -40
37 -31 16 5 19 12 15 31 -6 23 -4 24 44 24 l50 0 0 -40 c0 -31 -4 -40 -17 -40
-14 0 -15 -2 -4 -9 10 -7 11 -13 2 -30 -10 -18 -20 -21 -85 -21 l-73 0 -7 53
c-10 83 -9 87 19 87 22 0 25 -3 19 -24z m41 4 c3 -6 -1 -13 -10 -16 -19 -8
-30 0 -20 15 8 14 22 14 30 1z m-1444 -47 l2 -28 4 28 c4 23 8 27 26 21 49
-15 167 -88 167 -104 0 -3 -13 -16 -30 -28 l-30 -22 -41 30 c-44 32 -95 46
-127 36 -11 -4 -39 -22 -63 -41 l-42 -33 -19 24 c-11 13 -24 24 -30 24 -6 0 1
-11 16 -25 17 -16 24 -30 19 -38 -4 -7 -20 -30 -35 -52 -51 -77 -70 -156 -78
-330 -5 -88 -8 -161 -9 -163 -1 -2 -16 -2 -33 0 l-33 3 -1 110 c-4 241 40 387
148 502 43 45 151 113 180 113 4 0 9 -12 9 -27z m-908 -8 c-4 -16 -145 -13
-151 3 -3 10 14 12 75 10 45 -2 77 -7 76 -13z m1827 -22 c0 -9 16 -234 30
-423 6 -74 13 -166 15 -205 3 -38 8 -89 11 -112 l5 -43 -225 0 -226 0 0 31 c0
29 14 190 40 469 5 58 12 147 16 198 l6 92 164 0 c90 0 164 -3 164 -7z m-1835
-100 c-11 -159 -8 -153 -68 -155 l-52 -2 54 -3 54 -4 -7 -46 c-3 -25 -6 -56
-6 -69 0 -21 -5 -24 -37 -26 l-38 -1 39 -4 c38 -4 38 -5 33 -41 -4 -20 -9 -72
-13 -114 l-7 -78 -37 0 -37 0 -6 182 c-4 99 -7 241 -7 315 l0 133 70 0 71 0
-6 -87z m991 8 c21 -16 51 -41 66 -57 67 -72 108 -233 108 -425 l0 -109 -25 0
-25 0 0 108 c-1 139 -14 242 -39 290 -26 51 -87 109 -129 123 -75 25 -179 -71
-201 -184 -11 -57 -21 -190 -21 -280 0 -55 -1 -58 -22 -55 -23 3 -23 5 -22
149 2 192 32 296 111 386 76 87 133 103 199 54z m203 -74 c43 -86 61 -176 68
-354 l6 -153 -40 0 -41 0 -4 168 c-6 191 -24 270 -82 345 l-34 44 26 27 26 26
22 -21 c12 -11 36 -48 53 -82z m1241 73 l0 -30 -75 0 -75 0 0 30 0 30 75 0 75
0 0 -30z m10 -69 c0 -16 3 -43 6 -60 l7 -31 -82 0 -81 0 0 60 0 60 75 0 75 0
0 -29z m-2086 -13 c3 -7 7 -61 10 -120 l6 -108 -186 0 -186 0 6 88 c4 48 10
101 13 119 l5 32 164 0 c124 1 166 -2 168 -11z m614 -31 c83 -61 102 -120 109
-324 l6 -153 -163 0 -162 0 4 173 c3 157 5 176 27 220 25 53 90 107 126 107
11 0 35 -11 53 -23z m1482 -71 c0 -7 3 -34 6 -60 l7 -46 -82 0 -81 0 0 60 0
60 75 0 c57 0 75 -3 75 -14z m-1006 -73 c-4 -38 -8 -77 -9 -88 -1 -11 -3 -39
-4 -62 l-1 -43 -73 0 -74 0 -7 103 c-3 56 -9 114 -12 130 l-6 27 97 0 97 0 -8
-67z m1024 -100 l3 -53 -80 0 -81 0 0 55 0 56 78 -3 77 -3 3 -52z m-2628 0 c1
-21 3 -73 7 -115 l5 -78 -182 0 -182 0 6 53 c3 28 9 80 12 115 l7 62 163 0
164 0 0 -37z m442 -20 l2 -58 3 58 4 57 39 0 c47 0 47 1 53 -147 l5 -103 -207
0 -207 0 7 58 c4 31 8 84 8 118 1 33 4 64 8 67 3 4 69 7 145 7 l138 0 2 -57z
m2198 -62 c0 -10 3 -39 6 -65 l7 -47 -84 3 -84 3 -3 63 -3 62 81 0 c71 0 80
-2 80 -19z m-1057 -88 c-3 -38 -6 -69 -7 -70 -1 -1 -32 3 -69 10 l-67 11 0 58
0 58 74 0 74 0 -5 -67z m-1031 -100 c3 -27 3 -51 1 -55 -2 -5 -26 -8 -54 -8
l-49 0 -2 38 -1 37 -4 -37 -4 -38 -155 0 -154 0 0 55 0 55 209 0 209 0 4 -47z
m996 12 c12 -3 22 -12 22 -20 0 -13 -64 -15 -495 -15 -431 0 -495 2 -495 15 0
8 12 17 28 21 15 3 30 6 34 7 21 5 886 -3 906 -8z"/>
<path d="M5693 2893 c9 -2 25 -2 35 0 9 3 1 5 -18 5 -19 0 -27 -2 -17 -5z"/>
<path d="M6201 2854 c0 -11 3 -14 6 -6 3 7 2 16 -1 19 -3 4 -6 -2 -5 -13z"/>
<path d="M5684 2716 c-3 -8 -4 -29 -2 -48 2 -25 8 -33 23 -33 22 0 31 30 21
71 -7 26 -33 32 -42 10z m23 -48 c-3 -8 -6 -5 -6 6 -1 11 2 17 5 13 3 -3 4
-12 1 -19z"/>
<path d="M6107 2604 c-14 -14 -8 -84 7 -84 14 0 26 21 26 44 0 18 -24 48 -33
40z m10 -56 c-3 -8 -6 -5 -6 6 -1 11 2 17 5 13 3 -3 4 -12 1 -19z"/>
<path d="M6551 2454 c0 -11 3 -14 6 -6 3 7 2 16 -1 19 -3 4 -6 -2 -5 -13z"/>
<path d="M6531 2256 c-7 -8 -11 -36 -9 -63 3 -40 6 -48 23 -48 17 0 20 8 23
51 3 57 -15 87 -37 60z m16 -68 c-2 -13 -4 -5 -4 17 -1 22 1 32 4 23 2 -10 2
-28 0 -40z"/>
<path d="M5478 2183 c18 -2 45 -2 60 0 15 2 0 4 -33 4 -33 0 -45 -2 -27 -4z"/>
<path d="M5077 2133 c-12 -11 -8 -23 8 -23 8 0 15 7 15 15 0 16 -12 20 -23 8z"/>
<path d="M5212 2123 c2 -10 8 -18 13 -18 5 0 11 8 13 18 2 10 -3 17 -13 17
-10 0 -15 -7 -13 -17z"/>
<path d="M5857 2093 c-11 -18 -18 -114 -12 -157 6 -40 10 -46 31 -46 31 0 44
28 43 92 -2 83 -11 113 -36 116 -11 2 -23 0 -26 -5z m37 -44 c10 -50 7 -127
-5 -135 -23 -14 -31 14 -24 90 8 80 18 97 29 45z"/>
<path d="M5480 1940 c0 -30 4 -40 16 -40 13 0 15 7 10 31 -3 17 -6 35 -6 40 0
5 -4 9 -10 9 -5 0 -10 -18 -10 -40z"/>
<path d="M6232 1958 c2 -18 8 -33 13 -33 6 0 11 15 13 33 3 24 -1 32 -13 32
-12 0 -16 -8 -13 -32z"/>
<path d="M7042 1955 c0 -16 2 -22 5 -12 2 9 2 23 0 30 -3 6 -5 -1 -5 -18z"/>
<path d="M6980 1772 c0 -23 4 -42 9 -42 6 0 7 17 4 38 -8 51 -13 53 -13 4z"/>
<path d="M6558 1903 c12 -2 30 -2 40 0 9 3 -1 5 -23 4 -22 0 -30 -2 -17 -4z"/>
<path d="M6518 1843 c12 -2 32 -2 45 0 12 2 2 4 -23 4 -25 0 -35 -2 -22 -4z"/>
<path d="M6523 1783 c9 -2 25 -2 35 0 9 3 1 5 -18 5 -19 0 -27 -2 -17 -5z"/>
<path d="M6723 1773 c9 -2 25 -2 35 0 9 3 1 5 -18 5 -19 0 -27 -2 -17 -5z"/>
<path d="M6613 1713 c9 -2 25 -2 35 0 9 3 1 5 -18 5 -19 0 -27 -2 -17 -5z"/>
<path d="M5217 1628 c8 -44 13 -48 13 -10 0 17 -4 34 -10 37 -6 4 -7 -6 -3
-27z"/>
<path d="M5108 1643 c12 -2 30 -2 40 0 9 3 -1 5 -23 4 -22 0 -30 -2 -17 -4z"/>
<path d="M4638 1713 c7 -3 16 -2 19 1 4 3 -2 6 -13 5 -11 0 -14 -3 -6 -6z"/>
<path d="M5080 1390 c0 -5 5 -10 10 -10 6 0 10 5 10 10 0 6 -4 10 -10 10 -5 0
-10 -4 -10 -10z"/>
<path d="M4810 1390 c0 -5 9 -10 20 -10 11 0 20 5 20 10 0 6 -9 10 -20 10 -11
0 -20 -4 -20 -10z"/>
<path d="M6262 1380 c0 -14 2 -19 5 -12 2 6 2 18 0 25 -3 6 -5 1 -5 -13z"/>
<path d="M5430 1373 c0 -6 -10 -14 -22 -16 -13 -2 29 -4 92 -4 95 1 100 2 30
4 -51 3 -87 9 -92 16 -6 9 -8 9 -8 0z"/>
<path d="M6338 1353 c12 -2 30 -2 40 0 9 3 -1 5 -23 4 -22 0 -30 -2 -17 -4z"/>
<path d="M7020 1133 c-7 -21 -10 -58 -8 -83 3 -41 6 -45 31 -48 l27 -3 0 66
c0 101 -29 139 -50 68z m30 -64 c0 -27 -4 -49 -10 -49 -5 0 -10 25 -10 56 0
34 4 53 10 49 6 -3 10 -28 10 -56z"/>
<path d="M6993 845 c0 -33 2 -45 4 -27 2 18 2 45 0 60 -2 15 -4 0 -4 -33z"/>
<path d="M7053 783 c15 -2 39 -2 55 0 15 2 2 4 -28 4 -30 0 -43 -2 -27 -4z"/>
<path d="M6978 653 c17 -2 47 -2 65 0 17 2 3 4 -33 4 -36 0 -50 -2 -32 -4z"/>
<path d="M6968 523 c12 -2 30 -2 40 0 9 3 -1 5 -23 4 -22 0 -30 -2 -17 -4z"/>
<path d="M4662 1175 c0 -16 2 -22 5 -12 2 9 2 23 0 30 -3 6 -5 -1 -5 -18z"/>
<path d="M4692 710 c0 -14 2 -19 5 -12 2 6 2 18 0 25 -3 6 -5 1 -5 -13z"/>
<path d="M5202 1235 c0 -16 2 -22 5 -12 2 9 2 23 0 30 -3 6 -5 -1 -5 -18z"/>
<path d="M5033 1193 c9 -2 23 -2 30 0 6 3 -1 5 -18 5 -16 0 -22 -2 -12 -5z"/>
<path d="M5092 1140 c0 -19 2 -27 5 -17 2 9 2 25 0 35 -3 9 -5 1 -5 -18z"/>
<path d="M5203 990 c0 -30 2 -43 4 -27 2 15 2 39 0 55 -2 15 -4 2 -4 -28z"/>
<path d="M6843 1093 c9 -2 23 -2 30 0 6 3 -1 5 -18 5 -16 0 -22 -2 -12 -5z"/>
<path d="M5613 1220 c0 -30 2 -43 4 -27 2 15 2 39 0 55 -2 15 -4 2 -4 -28z"/>
<path d="M6063 1215 c0 -33 2 -45 4 -27 2 18 2 45 0 60 -2 15 -4 0 -4 -33z"/>
<path d="M6122 1240 c0 -14 2 -19 5 -12 2 6 2 18 0 25 -3 6 -5 1 -5 -13z"/>
<path d="M5448 984 c-2 -9 -1 -39 1 -66 3 -47 4 -49 30 -46 29 3 38 34 26 95
-5 26 -11 33 -30 33 -14 0 -25 -7 -27 -16z m40 -51 c-3 -42 -19 -51 -26 -14
-4 28 4 51 18 51 7 0 10 -15 8 -37z"/>
<path d="M5538 963 c7 -3 16 -2 19 1 4 3 -2 6 -13 5 -11 0 -14 -3 -6 -6z"/>
<path d="M6272 850 c0 -19 2 -27 5 -17 2 9 2 25 0 35 -3 9 -5 1 -5 -18z"/>
<path d="M5630 900 c8 -5 20 -10 25 -10 6 0 3 5 -5 10 -8 5 -19 10 -25 10 -5
0 -3 -5 5 -10z"/>
<path d="M6629 1044 c-9 -11 -14 -40 -14 -83 0 -64 1 -66 25 -66 24 0 25 3 28
65 3 77 -14 114 -39 84z m18 -106 c-2 -13 -4 -3 -4 22 0 25 2 35 4 23 2 -13 2
-33 0 -45z"/>
<path d="M6753 895 c0 -27 2 -38 4 -22 2 15 2 37 0 50 -2 12 -4 0 -4 -28z"/>
<path d="M6653 720 c0 -30 2 -43 4 -27 2 15 2 39 0 55 -2 15 -4 2 -4 -28z"/>
<path d="M6488 653 c29 -2 74 -2 100 0 26 2 2 3 -53 3 -55 0 -76 -1 -47 -3z"/>
<path d="M6673 653 c15 -2 39 -2 55 0 15 2 2 4 -28 4 -30 0 -43 -2 -27 -4z"/>
<path d="M6503 565 c0 -22 2 -30 4 -17 2 12 2 30 0 40 -3 9 -5 -1 -4 -23z"/>
<path d="M6693 375 c0 -27 2 -38 4 -22 2 15 2 37 0 50 -2 12 -4 0 -4 -28z"/>
<path d="M5873 975 c0 -22 2 -30 4 -17 2 12 2 30 0 40 -3 9 -5 -1 -4 -23z"/>
<path d="M5975 919 c-4 -6 -5 -12 -2 -15 2 -3 7 2 10 11 7 17 1 20 -8 4z"/>
<path d="M6088 573 c7 -3 16 -2 19 1 4 3 -2 6 -13 5 -11 0 -14 -3 -6 -6z"/>
<path d="M6100 900 c-9 -6 -10 -10 -3 -10 6 0 15 5 18 10 8 12 4 12 -15 0z"/>
<path d="M6140 770 c-11 -8 -7 -9 15 -4 37 8 45 14 19 14 -10 0 -26 -5 -34
-10z"/>
<path d="M5083 865 c0 -22 2 -30 4 -17 2 12 2 30 0 40 -3 9 -5 -1 -4 -23z"/>
<path d="M4584 581 c1 -30 6 -46 16 -48 10 -3 11 -2 3 4 -6 4 -13 26 -16 48
-4 40 -4 40 -3 -4z"/>
<path d="M8430 3984 c0 -20 -388 -3906 -394 -3952 l-5 -32 1985 0 1984 0 0
2000 0 2000 -1785 0 c-1639 0 -1785 -1 -1785 -16z m3528 -1981 l-3 -1958
-1932 -3 -1933 -2 0 27 c0 35 380 3863 386 3881 3 9 360 12 1744 12 l1740 0
-2 -1957z"/>
<path d="M10109 3823 c-1 -4 -1 -46 0 -92 1 -130 -69 -362 -169 -560 -42 -85
-42 -89 13 -110 27 -10 28 -14 25 -68 -3 -55 -4 -58 -35 -67 -32 -9 -33 -10
-33 -69 0 -48 4 -64 25 -89 24 -28 25 -35 25 -161 l-1 -132 -42 67 c-24 37
-45 70 -49 73 -3 3 -25 -27 -49 -67 l-44 -73 -3 39 c-2 21 1 43 7 49 6 6 11
46 11 88 0 66 3 78 21 90 20 14 20 14 -11 83 -35 76 -63 161 -81 246 l-12 55
-18 -70 c-21 -78 -19 -115 1 -45 l14 45 11 -45 c11 -46 14 -52 46 -129 23 -53
23 -57 4 -41 -21 17 -20 -8 2 -35 13 -16 15 -17 10 -2 -8 21 9 23 17 1 3 -9 6
-16 6 -17 0 -1 -43 -3 -95 -4 -52 -1 -95 -1 -95 0 0 1 12 34 26 72 14 39 28
79 30 90 l5 20 -10 -20 c-6 -11 -24 -54 -41 -95 -17 -41 -34 -80 -36 -87 -3
-6 4 -14 15 -18 14 -4 21 -15 22 -33 1 -23 3 -20 12 13 11 38 14 40 42 37 17
-3 45 -4 63 -4 30 -1 32 -3 32 -38 0 -20 3 -58 6 -83 6 -42 5 -45 -14 -41 -11
3 -23 0 -27 -7 -5 -7 -4 -10 1 -6 6 3 16 2 24 -4 10 -6 -8 -9 -52 -9 -55 0
-68 3 -68 16 0 8 -5 12 -10 9 -7 -4 -7 -12 0 -25 5 -10 10 -89 10 -175 0 -149
-1 -158 -24 -192 l-25 -36 -10 39 c-26 96 -50 214 -57 272 -3 34 -10 62 -14
62 -4 0 -10 -27 -13 -61 -9 -80 -51 -237 -88 -324 -28 -66 -28 -71 -12 -83 16
-11 18 -32 18 -171 0 -156 0 -158 28 -194 25 -33 27 -42 27 -132 l0 -95 -40 2
c-39 3 -40 4 -40 39 0 34 -3 37 -34 43 l-35 7 -1 194 c0 107 -3 201 -6 209 -3
8 3 27 12 42 14 20 18 45 17 106 -2 79 -2 80 28 90 16 5 29 14 29 18 0 5 -21
44 -47 87 -51 86 -144 278 -161 333 -11 35 -20 92 -23 140 l-1 25 -8 -25 c-4
-14 -8 -39 -9 -56 -3 -98 -139 -369 -238 -476 l-25 -26 21 -12 c12 -6 32 -8
44 -5 17 5 19 4 7 -4 -10 -7 -11 -11 -2 -11 8 0 12 -23 12 -82 0 -60 4 -86 16
-99 13 -15 15 -48 14 -219 0 -112 -5 -210 -10 -220 -5 -10 -23 -20 -40 -23
l-30 -6 0 -80 c0 -81 6 -100 56 -177 9 -13 15 -24 13 -25 -2 0 -20 -3 -39 -6
-41 -5 -41 -6 -44 -29 -2 -10 -9 -20 -16 -22 -10 -4 -11 3 -7 27 6 29 5 31
-23 31 -39 0 -40 30 -3 79 24 31 27 44 28 116 l0 80 -42 3 c-39 3 -43 6 -43
29 0 16 7 27 20 30 11 3 20 7 20 10 0 2 -18 35 -40 71 -50 86 -94 190 -117
278 -12 48 -19 61 -21 44 -13 -94 -80 -256 -141 -341 -37 -50 -38 -59 -10 -59
18 0 21 -5 17 -35 -2 -22 1 -36 9 -39 7 -3 13 -15 13 -26 0 -31 57 -29 62 3 3
19 10 22 50 25 44 3 47 2 50 -25 2 -23 8 -29 36 -31 29 -3 32 -1 32 22 0 24 3
26 46 26 l46 0 -4 -69 c-3 -60 -7 -73 -36 -105 -26 -30 -31 -33 -29 -15 2 12
12 28 22 35 15 11 16 16 5 28 -18 23 -44 4 -59 -43 -8 -30 -17 -41 -31 -41
-23 0 -23 -2 -9 39 8 24 8 35 -1 46 -20 24 -50 1 -50 -40 0 -24 -6 -37 -20
-45 -17 -9 -21 -5 -33 37 -8 28 -20 48 -28 48 -15 0 -17 -26 -5 -62 6 -19 4
-23 -14 -23 -15 0 -26 12 -41 45 -18 40 -39 53 -39 24 0 -6 5 -7 12 -3 6 4 8
3 5 -3 -4 -6 -1 -24 6 -42 8 -23 18 -31 37 -32 14 0 34 -2 45 -5 11 -2 59 -4
108 -5 l87 -1 1 -61 c1 -34 3 -87 4 -117 1 -30 5 -179 9 -330 3 -151 9 -290
12 -307 5 -24 2 -33 -7 -34 -29 -2 -74 -11 -79 -16 -3 -2 24 -3 59 0 38 2 67
9 69 16 2 6 -2 10 -10 9 -10 -2 -13 28 -15 151 -1 85 -4 176 -6 203 -4 31 -2
46 5 42 7 -4 7 0 0 12 -5 11 -10 58 -10 107 0 100 5 107 84 107 60 0 53 8 -12
14 -27 2 -54 4 -60 5 -15 1 -12 143 3 148 7 2 13 -8 15 -24 2 -22 9 -29 30
-31 23 -3 27 1 30 25 2 23 9 29 32 31 l29 4 -7 -121 c-4 -66 -9 -130 -11 -143
-2 -13 -6 -55 -9 -93 -4 -39 -8 -81 -11 -95 -2 -14 -9 -71 -15 -127 -6 -56
-13 -112 -16 -125 -12 -59 -16 -218 -6 -218 6 0 9 6 6 13 -4 12 6 121 40 422
14 127 18 169 32 329 9 102 11 123 12 169 2 26 6 37 18 37 13 0 15 7 9 40 -9
52 1 52 15 0 10 -36 14 -40 43 -40 18 0 38 5 45 12 9 9 12 9 12 0 0 -7 5 -12
11 -12 8 0 8 4 -1 14 -13 17 -10 61 5 61 6 0 12 -18 15 -40 5 -39 6 -40 48
-43 29 -2 40 -7 36 -15 -5 -8 -3 -8 7 1 14 13 30 16 28 5 -1 -5 0 -10 1 -13 9
-24 9 -65 -2 -78 -10 -12 -10 -14 0 -8 9 5 12 -5 13 -41 1 -26 3 -58 4 -70 1
-12 5 -75 9 -140 4 -65 10 -138 12 -163 3 -25 6 -65 9 -90 2 -25 6 -67 10 -95
3 -27 8 -70 10 -95 2 -25 7 -68 10 -97 8 -57 9 -56 -78 -69 -59 -8 -73 -24
-15 -17 106 12 125 24 119 70 -1 7 5 13 14 13 9 0 14 -3 12 -7 -3 -5 24 -6 60
-5 51 3 63 7 59 18 -3 8 -6 59 -7 114 0 55 -4 98 -9 95 -4 -2 -5 -50 -3 -105
l4 -101 -68 3 -68 3 0 48 c0 26 -3 47 -8 47 -4 0 -5 4 -2 10 3 5 17 10 31 10
15 0 24 6 24 16 0 12 -3 14 -13 6 -7 -6 -17 -8 -23 -4 -18 12 -33 93 -31 170
1 39 -1 72 -5 72 -3 0 -5 22 -5 49 1 27 -1 47 -5 45 -4 -3 -7 34 -6 81 1 51 5
85 11 85 6 0 2 7 -9 15 -13 10 -14 13 -3 10 12 -5 16 1 16 24 0 22 -4 28 -16
24 -12 -4 -13 -2 -3 4 7 5 14 20 17 33 8 39 1 37 129 39 l93 1 6 38 c13 78 2
75 302 76 l267 1 22 -55 c24 -62 15 -59 160 -60 l99 -1 -7 -156 c-4 -86 -10
-161 -13 -167 -4 -7 -2 -8 5 -1 5 6 18 102 27 215 9 112 19 208 21 212 3 5 14
8 25 8 15 0 18 5 13 24 -3 13 -1 27 4 30 6 3 13 -7 17 -24 6 -28 9 -30 56 -30
49 0 49 0 49 33 0 22 3 28 9 18 5 -7 8 -21 6 -30 -3 -20 13 -31 48 -31 15 0
26 -3 26 -7 -5 -29 3 -33 20 -12 11 13 22 22 25 18 6 -6 13 -62 21 -176 7 -96
41 -421 64 -613 10 -85 17 -157 15 -160 -1 -3 -19 -7 -40 -8 -20 -2 -45 -7
-55 -12 -9 -6 -19 -6 -21 -1 -2 4 -19 2 -38 -5 -34 -13 -33 -13 28 -9 35 3 84
10 109 17 l45 11 -4 48 c-6 54 -1 64 19 47 8 -6 35 -10 61 -9 131 6 162 5 162
-4 0 -7 3 -7 8 0 4 6 34 10 68 11 72 1 114 10 114 25 0 6 -4 8 -9 5 -5 -3 -12
1 -15 9 -3 9 1 18 8 21 8 3 17 13 21 22 5 14 3 13 -14 -2 -19 -17 -19 -16 -23
46 -2 35 0 65 4 68 4 3 3 12 -2 20 -15 23 -12 52 8 66 15 13 15 13 0 8 -13 -4
-18 2 -24 31 -4 23 -2 41 5 48 6 6 11 18 11 26 0 13 -2 13 -9 3 -6 -10 -10 -8
-14 8 -4 17 -2 21 12 17 11 -2 18 1 18 10 0 8 -7 11 -17 8 -15 -5 -18 1 -18
32 -1 21 -4 63 -6 94 -4 45 -2 56 9 56 17 0 19 -8 8 -23 -5 -5 0 -1 10 9 16
18 21 16 18 -8 -1 -5 6 -1 14 9 9 12 15 15 15 7 0 -10 3 -11 13 -3 31 26 47
-23 62 -186 6 -68 41 -325 51 -375 3 -15 10 -27 15 -27 6 0 8 3 6 8 -7 10 -42
258 -63 434 -13 114 -15 153 -6 170 17 33 20 148 5 148 -5 0 -8 -30 -8 -68 l0
-67 -75 0 -75 0 1 33 c1 17 -2 32 -7 32 -5 0 -9 11 -9 25 0 19 5 25 21 25 17
0 20 -5 17 -25 -6 -28 3 -33 44 -27 21 3 28 10 28 26 0 12 6 28 13 35 10 11 9
13 -3 9 -8 -2 -17 -15 -20 -29 -9 -35 -38 -37 -42 -2 -2 23 -8 29 -35 31 -30
3 -31 4 -35 60 -4 51 -1 61 24 94 24 31 28 47 30 110 l3 73 -32 3 c-28 3 -33
7 -33 30 -1 15 -3 43 -6 63 -5 34 -3 37 25 42 17 4 31 12 31 18 0 6 -20 48
-45 93 -58 107 -109 242 -145 390 -16 65 -32 121 -35 124 -5 5 -4 7 -35 -103
-42 -150 -84 -264 -137 -369 l-25 -49 -25 44 c-14 24 -36 68 -51 97 l-25 53
31 44 c34 48 447 666 662 990 73 110 143 211 156 226 13 14 24 29 24 33 0 4
23 40 50 80 28 40 50 77 50 82 0 6 20 39 45 75 50 70 52 94 12 137 -45 49
-164 100 -200 87 -8 -4 -29 -27 -47 -53 -18 -26 -44 -58 -56 -72 l-24 -26 37
-2 c20 -2 58 -15 85 -29 51 -28 128 -105 128 -129 0 -21 -8 -17 -42 21 -17 20
-40 41 -52 47 -11 6 1 -13 29 -41 35 -36 46 -54 38 -62 -7 -7 -20 -1 -44 24
-29 29 -99 75 -99 64 0 -2 21 -18 46 -36 27 -20 43 -39 40 -47 -3 -8 0 -11 9
-8 22 9 28 -32 9 -61 -20 -31 -42 -19 -25 13 6 11 11 24 11 29 -1 4 -6 -2 -13
-15 l-13 -23 -27 21 c-25 20 -26 23 -12 43 19 27 19 34 1 34 -8 0 -12 -5 -10
-11 2 -6 0 -17 -5 -25 -7 -10 -13 -11 -31 -1 -12 6 -24 9 -28 6 -3 -3 0 -6 6
-6 20 0 92 -71 85 -84 -3 -6 -3 -8 2 -4 12 11 35 -11 28 -28 -4 -10 -16 -4
-49 24 -40 36 -143 97 -150 89 -2 -2 20 -17 49 -33 45 -26 52 -34 53 -62 1
-17 -3 -29 -7 -26 -11 6 -30 -31 -21 -42 4 -5 3 -6 -2 -2 -7 6 -56 -53 -56
-69 0 -3 -17 -27 -37 -53 -37 -46 -62 -85 -92 -139 -8 -15 -17 -28 -21 -31 -7
-5 -46 -59 -134 -189 -29 -42 -64 -93 -79 -115 -15 -21 -24 -42 -22 -47 3 -4
-4 -13 -15 -19 -12 -6 -19 -18 -16 -25 3 -9 0 -12 -8 -9 -7 3 -18 -7 -24 -23
-11 -26 -11 -27 3 -9 8 11 15 15 15 8 0 -6 -11 -19 -25 -28 -14 -9 -24 -19
-21 -21 2 -3 -10 -18 -27 -35 -18 -16 -27 -27 -21 -24 6 3 11 -2 11 -10 0 -8
-6 -13 -12 -10 -7 2 -22 -13 -33 -35 -12 -21 -16 -39 -11 -39 6 0 -2 -16 -17
-35 -14 -19 -31 -32 -37 -28 -6 3 -7 1 -3 -5 4 -7 3 -12 -2 -12 -5 0 -17 -18
-27 -40 -10 -22 -21 -40 -25 -40 -4 0 -10 -9 -13 -21 -3 -12 -10 -18 -16 -14
-7 4 -8 -1 -4 -12 3 -10 3 -15 -1 -11 -12 10 -34 -15 -28 -31 3 -9 1 -12 -6
-7 -7 4 -12 2 -12 -4 0 -13 -51 -90 -76 -114 -8 -9 -27 -19 -41 -22 -29 -8
-43 7 -43 49 0 15 -4 27 -8 27 -13 0 -1 -63 16 -83 17 -19 9 -42 -36 -104 -12
-18 -19 -33 -14 -33 5 0 26 29 46 64 21 36 44 67 52 70 16 6 14 0 -18 -46 -10
-14 -17 -32 -15 -40 2 -7 2 -9 -1 -4 -2 4 -22 -11 -44 -35 -22 -24 -36 -37
-32 -29 7 13 6 13 -10 0 -10 -8 -22 -23 -27 -35 -31 -66 -58 -98 -80 -92 -12
3 -20 -6 -29 -34 -7 -21 -16 -36 -20 -34 -4 2 -17 -13 -29 -35 -12 -22 -26
-42 -31 -45 -10 -6 5 31 45 114 14 29 24 55 21 58 -5 6 102 315 112 323 4 3
18 25 31 50 14 25 185 286 381 580 576 863 532 799 560 800 l25 1 -22 11 c-27
13 -29 26 -8 34 8 4 15 11 15 18 1 21 38 56 62 57 23 1 23 1 -2 8 -22 6 -30 0
-63 -48 -22 -30 -43 -65 -48 -78 -4 -12 -78 -125 -162 -250 -85 -126 -232
-344 -327 -486 l-174 -259 -18 54 c-26 75 -67 239 -84 332 -14 83 -24 108 -24
61 0 -76 -80 -391 -124 -486 -5 -11 1 -19 19 -27 25 -11 25 -13 25 -125 l0
-112 -36 -55 c-38 -58 -70 -122 -77 -155 -2 -11 -6 20 -8 69 -3 76 -1 93 14
113 18 23 18 25 -16 111 -60 151 -85 273 -88 429 l-2 122 31 36 c27 30 32 43
32 88 0 55 -12 77 -42 77 -15 0 -18 9 -18 64 0 64 0 64 31 71 17 4 33 13 36
21 3 8 -15 60 -40 116 -61 137 -111 285 -133 391 -21 101 -16 114 39 99 43
-12 79 -6 106 19 22 21 27 39 11 39 -5 0 -10 -6 -10 -13 0 -25 -45 -40 -102
-33 -52 7 -53 8 -55 41 -1 27 3 35 20 38 22 4 22 4 0 6 -13 0 -23 7 -23 15 0
16 -19 33 -21 19z m1553 -119 c66 -22 119 -71 120 -110 1 -27 -52 -124 -68
-124 -7 0 35 78 46 85 5 3 10 11 10 16 0 6 -4 7 -10 4 -5 -3 -10 -1 -10 6 0 7
-14 0 -32 -17 -18 -16 -26 -21 -19 -12 7 9 9 23 5 29 -4 7 -3 9 3 6 6 -4 15
-1 20 6 10 13 16 63 6 53 -3 -3 -6 -16 -7 -28 -1 -18 -6 -23 -27 -21 -19 1
-29 -6 -43 -31 l-17 -32 -53 26 c-29 15 -62 29 -75 33 -21 5 -21 7 21 66 48
66 58 70 130 45z m-1526 -174 c3 -30 11 -61 17 -68 8 -10 7 -16 -4 -23 -13 -8
-5 -13 15 -10 5 1 6 -7 3 -19 -3 -11 -1 -18 4 -14 5 3 9 0 9 -5 0 -6 -8 -11
-17 -11 -17 -1 -17 -1 0 -11 9 -6 15 -14 12 -20 -4 -5 2 -6 12 -2 10 3 15 3
11 -2 -4 -4 -1 -20 7 -36 8 -15 15 -29 15 -31 0 -2 -24 -1 -52 1 -29 1 -51 1
-48 -2 5 -5 56 -14 96 -16 6 -1 18 -18 27 -38 l17 -38 -25 30 c-24 28 -25 29
-17 5 l10 -25 -62 3 c-77 5 -71 -4 9 -11 75 -7 90 -13 109 -42 22 -33 20 -38
-6 -24 -36 19 -194 23 -273 6 -38 -8 -71 -14 -73 -12 -1 1 20 49 47 106 51
107 104 256 123 343 12 58 24 47 34 -34z m1544 40 c-6 -11 -13 -20 -16 -20 -2
0 0 9 6 20 6 11 13 20 16 20 2 0 0 -9 -6 -20z m-8 -44 c7 4 8 2 4 -5 -9 -13
-26 -5 -25 12 0 9 2 8 6 -1 2 -6 10 -9 15 -6z m-122 -316 c-12 -16 -26 -30
-31 -30 -11 0 -5 12 26 52 27 36 32 16 5 -22z m-30 -44 c0 -3 -4 -8 -10 -11
-5 -3 -10 -1 -10 4 0 6 5 11 10 11 6 0 10 -2 10 -4z m-37 -55 c-71 -108 -88
-129 -95 -125 -4 3 1 15 12 26 11 12 22 30 26 40 3 10 10 18 15 18 6 0 7 5 4
10 -3 6 -1 10 4 10 6 0 11 7 11 15 0 8 5 15 11 15 6 0 9 7 6 14 -4 10 -1 13 9
9 12 -5 12 -9 -3 -32z m-53 12 c0 -5 -10 -19 -21 -33 l-21 -25 18 33 c18 32
24 38 24 25z m-1340 -16 c0 -8 4 -7 11 0 8 8 19 9 38 2 14 -6 28 -11 31 -11
27 -5 39 -12 34 -19 -3 -5 2 -9 10 -9 13 0 16 -13 16 -67 l0 -68 -50 -3 -50
-3 0 50 c0 44 -3 51 -20 51 -17 0 -20 -7 -20 -50 l0 -50 -50 0 -50 0 0 80 c0
67 3 81 19 89 10 6 21 7 25 4 3 -3 6 -2 6 4 0 6 11 11 25 11 14 0 25 -5 25
-11z m-120 -22 c0 -17 -2 -18 -25 -9 -13 5 -14 8 -3 15 19 13 28 11 28 -6z
m305 9 c13 -5 14 -8 3 -15 -19 -12 -25 -11 -25 6 0 17 0 17 22 9z m1050 -220
c-36 -52 -65 -99 -65 -105 0 -8 -5 -7 -15 1 -13 11 -14 10 -9 -3 6 -16 -72
-147 -88 -147 -4 0 -8 -7 -8 -15 0 -7 -8 -18 -17 -24 -10 -5 -17 -12 -15 -15
6 -15 1 -26 -12 -26 -18 0 43 109 62 110 6 0 12 7 12 15 0 31 19 57 34 47 5
-3 7 2 3 11 -3 8 1 21 8 27 8 7 13 15 12 18 -1 4 3 8 8 10 6 2 24 25 41 52 17
27 34 47 37 44 3 -3 8 8 12 25 4 17 11 31 16 31 5 0 14 11 21 25 6 13 15 22
20 19 5 -3 -21 -48 -57 -100z m15 76 c0 -5 -5 -10 -11 -10 -5 0 -7 5 -4 10 3
6 8 10 11 10 2 0 4 -4 4 -10z m-1096 -36 l46 -7 0 -52 0 -52 -132 3 c-73 1
-123 0 -110 -2 20 -5 26 -17 25 -51 -1 -7 4 -13 9 -13 6 0 8 12 5 30 -6 29 -5
30 28 30 28 0 33 -3 28 -17 -3 -10 -13 -24 -21 -30 -14 -11 -13 -13 5 -13 14
0 24 8 29 23 8 26 22 37 40 30 18 -7 -1 -43 -22 -43 -8 0 -12 -4 -9 -10 3 -5
19 -10 35 -10 27 0 28 -2 32 -52 5 -61 1 -80 -16 -72 -6 3 -4 0 5 -8 26 -21
16 -134 -25 -292 -20 -77 -36 -141 -36 -143 0 -2 -5 -3 -11 -3 -6 0 -9 9 -6
20 3 11 1 18 -3 15 -5 -3 -23 21 -41 52 -17 32 -40 67 -49 78 -9 11 -29 42
-44 69 -27 47 -28 52 -27 193 l1 145 -30 36 c-24 29 -30 46 -30 84 0 34 5 50
18 57 19 12 233 15 306 5z m996 -97 c0 -2 -10 -12 -22 -23 l-23 -19 19 23 c18
21 26 27 26 19z m-970 -35 c0 -15 -38 -44 -49 -37 -17 10 6 45 29 45 11 0 20
-4 20 -8z m294 -90 c4 -7 2 -12 -5 -12 -10 0 -10 -3 -1 -12 8 -8 9 -15 1 -25
-8 -9 -8 -13 0 -13 6 0 11 -5 11 -11 0 -5 -6 -7 -12 -3 -9 5 -9 2 1 -9 7 -9
10 -17 6 -17 -4 0 -3 -6 3 -12 17 -22 19 -94 2 -83 -6 3 -7 -1 -4 -10 5 -12 9
-13 20 -4 11 9 14 8 14 -5 0 -9 -5 -16 -12 -16 -6 0 -8 -3 -5 -6 4 -4 13 -2
21 5 11 9 15 7 19 -10 5 -18 2 -20 -18 -15 -27 7 -38 -3 -26 -23 6 -9 11 -10
15 -2 4 6 14 11 22 11 11 0 14 -6 9 -22 -5 -18 -4 -19 4 -8 12 17 24 9 16 -11
-4 -11 -30 -14 -105 -15 -56 -1 -100 3 -100 8 0 5 4 17 10 27 13 25 64 218 81
306 13 65 14 67 19 35 4 -20 10 -41 14 -48z m629 58 c-3 -11 -14 -25 -25 -31
-18 -10 -18 -8 3 20 27 37 29 37 22 11z m-2023 -99 c0 -9 4 -21 9 -26 5 -6 11
-30 14 -54 2 -24 11 -47 18 -52 12 -8 12 -10 0 -18 -8 -5 -21 -7 -30 -4 -14 4
-14 3 -1 -6 8 -6 23 -11 33 -11 27 0 53 -28 39 -42 -8 -8 -14 -5 -20 13 -9 23
-9 23 -14 -8 -2 -18 -1 -30 3 -27 9 5 31 -67 24 -75 -3 -2 -33 -6 -67 -8 -86
-6 -86 -13 0 -14 67 -1 80 -3 100 -9 4 -1 11 -2 15 -1 5 1 6 -3 3 -8 -4 -5 -2
-12 3 -16 6 -3 8 -11 5 -18 -3 -10 -31 -13 -97 -13 -51 1 -136 -3 -191 -7
l-98 -8 23 31 c78 105 178 286 199 362 13 45 30 56 30 19z m761 -180 c27 -46
49 -85 47 -87 -2 -1 -15 -4 -30 -6 -46 -6 -44 -18 1 -15 39 3 45 1 62 -27 10
-17 19 -33 19 -37 0 -3 -24 -6 -54 -7 -51 -1 -55 0 -69 31 -9 17 -14 34 -11
38 2 4 -3 9 -11 13 -10 3 -21 -9 -35 -41 -11 -25 -20 -47 -20 -49 0 -2 -13
-25 -28 -51 -25 -43 -28 -56 -25 -126 l2 -78 -90 2 c-50 1 -86 5 -79 9 7 4 20
5 30 3 23 -6 87 72 68 83 -7 4 -10 4 -6 0 4 -5 3 -13 -3 -20 -5 -6 -18 -22
-28 -36 -17 -21 -22 -23 -33 -11 -9 10 -9 12 0 7 8 -5 12 0 12 14 0 14 -4 19
-12 14 -9 -6 -9 -3 0 9 8 9 11 21 7 27 -8 14 14 42 27 34 5 -3 7 -12 4 -20
-10 -25 10 -15 22 11 16 34 15 40 -3 25 -9 -7 -18 -10 -22 -7 -8 9 17 38 28
31 5 -3 6 1 3 9 -3 10 -18 1 -49 -31 -59 -59 -58 -48 1 48 12 19 63 106 114
193 65 109 96 154 102 145 5 -7 31 -51 59 -97z m-194 81 c7 -4 13 -32 15 -62
1 -49 -3 -64 -43 -132 -24 -43 -47 -78 -51 -78 -8 0 -8 232 -1 261 6 20 56 27
80 11z m1312 -84 c-41 -64 -96 -135 -83 -108 4 8 14 23 22 33 16 19 25 32 60
96 12 22 27 41 32 41 5 0 -9 -28 -31 -62z m-1531 -98 c-2 -21 1 -38 5 -37 5 1
11 -8 13 -21 2 -13 0 -21 -5 -17 -15 9 -18 -29 -4 -40 7 -5 16 -27 18 -49 3
-21 8 -42 11 -47 3 -5 -2 -6 -12 -2 -14 5 -15 3 -5 -15 7 -12 10 -22 9 -23
-11 -3 -41 -7 -92 -13 -47 -5 -57 -4 -49 6 14 18 68 180 83 248 6 30 14 62 17
70 9 23 16 -14 11 -60z m-244 8 c3 -17 4 -34 1 -37 -9 -8 -25 21 -25 47 0 33
17 27 24 -10z m986 3 c0 -9 -6 -23 -12 -30 -11 -11 -10 -13 3 -8 12 4 19 -6
28 -45 13 -60 9 -71 -13 -31 -15 28 -16 28 -13 3 1 -14 7 -29 13 -35 14 -13
27 -48 15 -40 -5 3 -12 1 -15 -4 -4 -5 -2 -12 4 -16 5 -3 10 -17 10 -31 0 -22
10 -29 35 -24 6 1 7 -1 3 -5 -3 -4 -40 -8 -81 -10 l-75 -4 19 67 c10 37 29
106 41 154 21 78 38 105 38 59z m-955 -31 c-3 -4 -2 -10 2 -12 5 -3 4 -4 -1
-3 -5 0 -10 9 -12 18 -1 9 2 15 7 11 5 -3 7 -9 4 -14z m1653 -11 c8 -3 0 -18
-23 -44 -19 -22 -44 -59 -56 -82 -12 -24 -30 -50 -40 -59 -22 -20 -26 -8 -5
15 7 9 26 38 42 65 23 40 25 48 11 43 -11 -4 -16 -3 -12 4 4 5 14 8 23 5 10
-3 24 4 35 20 16 21 16 25 3 30 -9 3 -13 11 -10 16 4 6 9 7 13 1 3 -6 12 -12
19 -14z m-362 -9 c12 -11 13 -10 8 6 -6 15 -4 17 6 7 10 -9 6 -21 -21 -58 -23
-33 -35 -42 -37 -31 -6 31 -22 16 -22 -22 0 -33 -39 -112 -56 -112 -3 0 0 128
5 203 2 23 90 28 117 7z m-675 -82 l39 -83 -2 -160 -3 -160 -82 -3 -83 -3 0
170 0 171 37 75 c21 41 41 75 46 75 4 0 26 -37 48 -82z m-561 21 c7 -13 4 -15
-20 -11 -26 4 -28 6 -18 28 12 25 14 24 38 -17z m688 -3 c7 -4 9 -12 6 -18 -4
-6 -10 -5 -15 3 -7 11 -9 10 -9 -4 0 -11 -4 -15 -12 -11 -6 4 -8 3 -5 -4 9
-13 -2 -42 -15 -42 -5 0 -7 4 -4 8 7 11 -11 37 -26 37 -7 0 -14 10 -16 23 -3
21 0 23 40 20 24 -2 49 -7 56 -12z m-922 -35 c-3 -5 18 -9 47 -9 28 0 54 -1
57 -2 3 0 22 -3 44 -5 21 -2 41 -7 45 -10 8 -8 11 -123 4 -141 -3 -10 -23 -14
-60 -14 -33 0 -52 -4 -48 -10 3 -5 26 -10 51 -10 28 0 43 -4 39 -10 -3 -6 -51
-10 -107 -10 -122 0 -123 -10 -1 -17 48 -3 90 -7 93 -9 2 -3 6 -91 8 -197 l3
-192 -26 40 c-35 53 -78 139 -100 198 -10 26 -21 47 -26 47 -4 0 -15 -24 -25
-52 -22 -68 -66 -156 -93 -188 l-22 -25 5 185 c4 163 7 186 23 198 14 10 14
13 3 12 -29 -4 -37 0 -48 25 -18 38 -16 170 3 185 8 6 18 10 22 7 4 -2 28 -1
53 3 25 4 49 8 53 9 5 0 6 -3 3 -8z m1718 -7 c3 -8 2 -12 -4 -9 -6 3 -10 10
-10 16 0 14 7 11 14 -7z m203 -49 c-2 -36 0 -68 5 -71 15 -9 -2 -24 -28 -24
-13 0 -24 -4 -24 -9 0 -4 11 -6 25 -3 14 2 25 0 25 -6 0 -24 -13 -42 -30 -42
-11 0 -22 -4 -25 -10 -3 -5 2 -9 12 -8 38 3 64 -2 58 -12 -3 -5 -2 -10 3 -10
6 0 8 -10 5 -22 -4 -22 -4 -23 11 -4 9 11 16 15 16 10 0 -20 -25 -34 -59 -34
-44 0 -36 -8 12 -12 33 -2 64 -28 34 -28 -7 0 -4 -5 5 -11 11 -6 15 -16 11
-26 -4 -9 -2 -14 3 -11 5 3 15 -1 22 -9 12 -12 10 -14 -10 -12 -39 4 -142 -1
-137 -6 3 -2 31 -5 62 -6 44 -2 57 -6 58 -18 1 -13 2 -13 6 2 6 24 11 22 50
-20 19 -21 32 -31 30 -22 -3 9 1 16 9 16 8 0 14 -4 14 -9 0 -5 4 -7 9 -4 5 3
11 -1 14 -8 5 -11 -3 -15 -34 -14 -26 0 -39 5 -39 14 0 16 -17 19 -22 4 -2 -6
-61 -13 -143 -16 -77 -3 -143 -8 -147 -10 -12 -8 -10 2 9 40 14 30 23 36 67
45 47 10 48 10 9 7 -24 -2 -43 -2 -43 0 0 19 48 94 63 98 10 2 16 10 12 15 -3
6 -11 8 -17 5 -8 -5 -9 -1 -4 12 5 10 21 55 37 99 16 44 34 82 39 83 6 2 7 8
4 14 -4 6 0 14 7 19 9 5 10 9 2 9 -8 0 -8 9 0 35 6 19 12 35 14 35 2 0 2 -29
0 -65z m-1067 39 c0 -8 -5 -12 -10 -9 -6 4 -8 11 -5 16 9 14 15 11 15 -7z m70
-9 c0 -8 -2 -15 -4 -15 -2 0 -6 7 -10 15 -3 8 -1 15 4 15 6 0 10 -7 10 -15z
m-40 -39 c0 -11 -19 -15 -25 -6 -3 5 1 10 9 10 9 0 16 -2 16 -4z m85 -7 c-4
-5 -8 -19 -10 -30 -5 -26 -13 -35 -22 -25 -4 4 -2 15 4 25 7 11 8 22 2 28 -5
5 -1 9 11 10 11 1 18 -2 15 -8z m228 -2 c3 -8 -1 -14 -8 -14 -7 0 -11 6 -8 14
3 7 6 13 8 13 2 0 5 -6 8 -13z m-187 -42 c3 -19 -4 -19 -22 -1 -10 11 -11 15
-1 19 15 5 20 1 23 -18z m-100 0 c-1 -8 -8 -21 -16 -28 -7 -6 -11 -7 -8 -2 3
6 8 18 11 28 8 21 16 23 13 2z m-506 -40 l35 -6 -3 -136 c-1 -75 -4 -138 -6
-140 -2 -3 -18 -5 -35 -5 -37 -1 -35 -7 5 -14 59 -11 44 -26 -31 -32 -30 -2
-55 -1 -56 4 0 5 -3 18 -5 29 -3 11 -5 81 -4 155 0 114 3 137 17 148 9 6 24
10 32 8 9 -3 32 -8 51 -11z m511 -8 c-10 -9 -11 -8 -5 6 3 10 9 15 12 12 3 -3
0 -11 -7 -18z m39 13 c0 -7 7 -7 22 1 18 10 24 8 39 -12 25 -32 24 -39 -6 -39
-28 0 -29 3 -15 31 7 13 7 19 1 19 -6 0 -13 -11 -17 -24 -5 -20 -11 -23 -44
-22 -21 0 -36 5 -33 9 3 5 16 7 29 4 24 -4 33 7 14 18 -5 3 -10 10 -10 16 0 5
5 9 10 9 6 0 10 -5 10 -10z m225 -6 c11 4 14 -22 14 -140 l0 -144 -73 0 -74 0
4 33 c1 17 3 82 3 144 1 108 2 112 24 115 12 2 37 0 55 -5 19 -5 40 -6 47 -3z
m466 -17 c-10 -9 -11 -8 -5 6 3 10 9 15 12 12 3 -3 0 -11 -7 -18z m-11 -21 c0
-3 -4 -8 -10 -11 -5 -3 -10 -1 -10 4 0 6 5 11 10 11 6 0 10 -2 10 -4z m310
-10 c0 -3 -4 -8 -10 -11 -5 -3 -10 -1 -10 4 0 6 5 11 10 11 6 0 10 -2 10 -4z
m-908 -91 c0 -44 -1 -83 -1 -87 -1 -5 -43 -8 -93 -8 l-93 0 0 85 0 84 60 3
c33 2 75 3 94 3 l34 0 -1 -80z m-384 -12 l-3 -88 -87 -2 c-52 -1 -90 3 -94 9
-4 6 -7 46 -8 89 l-1 79 98 0 98 0 -3 -87z m1339 55 c-3 -8 -6 -5 -6 6 -1 11
2 17 5 13 3 -3 4 -12 1 -19z m-2437 -103 c5 3 12 -9 15 -27 4 -17 14 -38 21
-46 8 -7 14 -19 13 -25 0 -8 -2 -8 -6 1 -2 7 -14 17 -26 24 -22 11 -22 10 -4
-10 17 -18 17 -20 1 -18 -9 0 -19 -6 -21 -14 -4 -12 -3 -13 5 -1 8 11 14 8 28
-14 14 -21 15 -30 6 -33 -15 -5 -16 -32 -1 -32 5 0 7 5 4 10 -3 6 -1 10 5 10
5 0 9 -13 8 -30 -2 -26 -6 -30 -33 -31 -16 0 -65 -4 -107 -7 -43 -4 -78 -5
-78 -2 0 3 13 24 30 47 38 52 93 164 111 228 l14 50 3 -43 c2 -23 7 -40 12
-37z m1978 19 c1 -1 -5 -7 -15 -15 -12 -10 -15 -10 -9 -1 4 7 2 20 -6 30 -12
16 -11 16 7 2 11 -8 21 -15 23 -16z m488 4 c4 -7 3 -8 -4 -4 -7 4 -12 2 -12
-4 0 -6 -5 -8 -11 -4 -8 4 -7 9 2 15 18 11 17 11 25 -3z m-1980 -126 c9 -59
15 -73 26 -66 7 4 8 3 4 -5 -4 -6 -2 -19 5 -27 23 -28 1 -25 -26 3 -22 23 -25
24 -16 6 7 -15 8 -24 1 -28 -6 -4 0 -15 14 -28 22 -19 23 -22 7 -34 -18 -14
-3 -17 19 -3 12 7 12 12 -4 28 -9 11 -13 22 -9 25 15 9 31 -6 34 -33 3 -21 -1
-27 -28 -35 -18 -5 -33 -15 -33 -22 0 -7 -5 -13 -12 -13 -6 0 -8 3 -5 7 4 3 2
12 -3 19 -9 9 -22 9 -65 -1 -72 -16 -82 -8 -47 41 40 57 76 122 97 178 14 40
19 46 27 32 5 -9 11 -29 14 -44z m782 36 c-3 -21 -9 -23 -80 -26 -78 -3 -78
-3 -78 23 0 25 1 25 81 25 78 0 80 -1 77 -22z m825 10 c4 -10 7 -10 14 -1 7 9
14 5 26 -16 15 -26 15 -32 2 -64 -13 -33 -13 -35 10 -57 14 -13 25 -18 25 -12
0 7 5 12 10 12 6 0 10 -27 10 -61 l0 -60 -32 5 c-17 2 -37 11 -44 18 -14 14
-7 71 7 62 5 -3 7 -10 4 -15 -4 -5 1 -9 9 -9 9 0 16 -5 16 -12 0 -6 3 -9 6 -6
3 4 -2 18 -11 32 -10 14 -13 26 -9 26 5 0 -4 12 -19 26 -15 14 -25 29 -22 35
4 5 1 9 -5 9 -6 0 -13 -7 -16 -15 -4 -8 -11 -15 -17 -15 -5 0 -2 9 8 20 22 24
29 78 13 97 -7 9 -7 13 0 13 6 0 13 -6 15 -12z m-1112 -20 c-11 -29 -48 -32
-62 -5 -8 14 -8 18 0 13 6 -4 11 -2 11 3 0 6 13 11 30 11 26 0 28 -2 21 -22z
m109 2 c0 -16 -7 -20 -34 -20 -25 0 -35 5 -39 20 -4 17 0 20 34 20 32 0 39 -3
39 -20z m288 3 c-2 -12 -14 -19 -37 -21 -27 -3 -33 0 -28 12 3 8 1 17 -6 20
-7 2 7 5 31 5 36 1 43 -2 40 -16z m86 11 c24 -9 6 -34 -25 -34 -22 0 -29 5
-29 20 0 20 22 26 54 14z m571 -32 c-3 -3 -11 0 -18 7 -9 10 -8 11 6 5 10 -3
15 -9 12 -12z m30 -2 c3 -5 1 -10 -4 -10 -6 0 -11 5 -11 10 0 6 2 10 4 10 3 0
8 -4 11 -10z m-1050 -10 c4 -6 58 -7 140 -4 l135 5 0 -52 c0 -61 9 -62 12 -1
1 44 1 44 63 44 115 0 114 0 132 -39 13 -27 27 -39 52 -45 32 -9 33 -10 26
-46 -10 -56 -49 -147 -63 -148 -6 -1 -19 -2 -27 -3 -10 -1 -15 -12 -15 -31 0
-29 -1 -30 -50 -30 -48 0 -50 1 -50 29 0 35 -9 39 -78 37 -28 0 -52 3 -53 9
-1 5 -2 44 -3 85 -3 82 -17 120 -45 120 -37 0 -50 -31 -53 -125 l-3 -90 -67
-3 c-68 -3 -68 -3 -68 -32 0 -29 -2 -30 -45 -30 -43 0 -45 1 -45 30 0 29 -1
30 -50 30 l-50 0 0 100 0 100 25 0 c27 0 75 40 75 62 0 8 13 15 32 16 18 2 37
7 42 12 13 13 23 13 31 0z m592 4 c40 -11 14 -24 -48 -24 -46 0 -59 3 -59 15
0 16 62 21 107 9z m-1517 -68 c0 -6 -7 -2 -15 8 -8 11 -15 25 -15 30 0 6 7 2
15 -8 8 -11 15 -25 15 -30z m1962 22 c-7 -7 -12 -8 -12 -2 0 14 12 26 19 19 2
-3 -1 -11 -7 -17z m-445 -2 c2 -2 1 -11 -3 -20 -8 -22 -70 -22 -78 0 -12 32
-7 37 36 30 23 -4 44 -8 45 -10z m-749 -13 c-5 -27 -60 -29 -76 -3 -12 19 -10
20 34 20 38 0 45 -3 42 -17z m1073 -17 c-13 -15 1 -32 18 -22 5 3 11 0 14 -8
4 -10 -7 -13 -49 -13 -30 0 -52 2 -49 6 4 3 12 6 18 6 7 0 16 10 22 23 5 12
16 22 24 22 10 0 11 -3 2 -14z m419 5 c0 -4 19 -7 43 -7 29 1 41 -3 40 -11 -3
-15 13 -18 19 -4 2 5 17 6 34 4 30 -5 31 -5 30 -66 -1 -69 -9 -75 -92 -69
l-44 4 0 43 c0 24 -4 46 -9 49 -17 11 -32 -23 -29 -66 l3 -43 37 3 c56 5 78
-5 78 -35 0 -19 4 -24 16 -19 9 3 20 6 25 6 5 0 9 11 9 23 0 21 5 24 40 24
l41 0 -3 -66 -3 -66 -120 2 c-66 1 -157 2 -202 2 l-83 1 3 62 2 63 38 2 c33 3
37 1 37 -21 0 -27 13 -35 47 -28 17 3 23 11 22 31 0 25 0 25 -9 4 -12 -30 -34
-29 -48 2 -8 17 -20 25 -37 25 -24 0 -25 2 -25 74 0 74 0 75 28 78 62 7 112 7
112 -1z m-2240 -31 c9 -16 8 -20 -5 -20 -8 0 -15 6 -15 14 0 8 -6 17 -12 19
-8 3 -6 6 4 6 10 1 22 -8 28 -19z m1639 7 c-2 -1 -12 -9 -22 -16 -15 -12 -17
-12 -11 3 3 9 13 16 22 16 8 0 13 -1 11 -3z m-532 -135 l2 -122 -30 2 c-16 1
-28 7 -25 13 2 5 7 9 12 8 5 -1 9 11 9 27 1 16 -3 26 -7 24 -5 -3 -6 -9 -4
-13 3 -4 0 -13 -5 -21 -11 -18 -6 63 7 94 5 14 4 17 -5 11 -10 -6 -11 -3 -2
12 7 14 7 24 -2 33 -9 10 -9 11 1 6 7 -4 12 -2 13 6 1 7 2 18 4 23 1 6 3 14 3
18 1 5 8 7 15 4 8 -2 13 -38 14 -125z m873 113 c-9 -10 -9 -15 -1 -15 6 0 11
-4 11 -10 0 -16 -17 -11 -24 7 -4 9 -1 20 6 25 19 12 22 10 8 -7z m-2009 -12
c13 -16 12 -17 -3 -4 -10 7 -18 15 -18 17 0 8 8 3 21 -13z m1711 -49 c-20 -26
-34 -33 -55 -32 -25 2 -27 4 -11 15 14 10 20 10 33 0 12 -9 13 -9 7 1 -4 6 -2
12 3 12 6 0 10 6 9 13 -2 6 3 11 10 10 6 -2 12 4 12 13 0 8 4 12 10 9 6 -4 -2
-21 -18 -41z m113 36 c17 -7 24 -7 20 0 -3 6 1 10 9 10 9 0 16 -6 16 -12 0 -9
4 -8 10 2 8 13 10 13 10 -2 0 -9 7 -18 16 -20 12 -2 13 -6 2 -20 -9 -12 -31
-17 -78 -19 -36 -1 -78 -6 -94 -10 l-28 -8 18 22 c63 75 58 73 99 57z m105 -6
c0 -2 -7 -4 -15 -4 -8 0 -15 4 -15 10 0 5 7 7 15 4 8 -4 15 -8 15 -10z m-2040
-16 c0 -4 5 -8 11 -8 5 0 7 5 4 10 -8 14 -2 13 31 -5 16 -8 41 -15 56 -15 15
0 30 -5 34 -12 5 -8 2 -9 -9 -5 -9 3 -19 2 -22 -3 -4 -6 2 -11 12 -12 10 -1
-22 -4 -72 -7 -84 -6 -90 -8 -93 -28 -4 -28 -42 -32 -42 -5 0 10 -5 23 -11 29
-6 6 -9 21 -7 34 2 19 11 25 38 29 50 7 70 7 70 -2z m2065 -8 c3 -6 -1 -7 -9
-4 -18 7 -21 14 -7 14 6 0 13 -4 16 -10z m-5 -26 c0 -2 -7 -4 -15 -4 -8 0 -15
4 -15 10 0 5 7 7 15 4 8 -4 15 -8 15 -10z m-1580 -43 c0 -20 6 -30 19 -34 25
-6 31 0 31 35 0 23 3 27 23 24 12 -3 34 -5 49 -5 23 -1 27 -6 30 -33 4 -46 36
-52 34 -7 -1 37 15 47 38 24 11 -11 16 -34 16 -74 0 -46 -6 -66 -30 -104 -16
-26 -36 -47 -45 -47 -19 0 -19 19 0 44 23 30 19 58 -6 54 -15 -2 -26 -17 -38
-48 -12 -32 -23 -46 -38 -48 -19 -3 -22 2 -25 39 -6 81 -73 81 -73 0 0 -40 -1
-42 -30 -39 -26 3 -30 8 -38 46 -6 33 -12 42 -25 40 -17 -4 -20 -25 -7 -65 13
-42 -24 -26 -55 24 -26 41 -30 57 -29 108 2 70 11 85 50 85 26 0 29 -4 29 -31
0 -38 24 -35 28 4 3 26 16 34 65 36 23 1 27 -3 27 -28z m1478 -9 c4 -44 40
-45 49 -2 6 30 7 31 57 28 47 -3 51 -5 54 -30 4 -36 32 -38 32 -3 0 18 5 25
20 25 18 0 20 -7 20 -65 0 -55 -5 -72 -31 -115 -17 -27 -38 -50 -47 -50 -13 0
-10 7 12 26 21 20 25 29 15 35 -10 6 -9 10 6 15 18 7 18 8 -1 15 -42 16 -53
10 -71 -41 -14 -40 -22 -50 -40 -50 -20 0 -23 5 -23 44 0 31 -5 46 -16 50 -26
10 -44 -13 -44 -56 0 -37 -2 -39 -27 -36 -21 2 -28 11 -37 43 -9 30 -17 41
-35 43 -23 4 -24 2 -18 -42 10 -70 -26 -59 -67 21 -21 42 -23 163 -2 163 8 0
21 3 30 6 11 4 17 -4 21 -30 8 -41 25 -39 25 4 0 25 4 29 33 32 73 7 82 4 85
-30z m572 -2 c0 -11 -7 -20 -15 -20 -27 0 -18 30 13 39 1 1 2 -8 2 -19z
m-2420 -5 c0 -8 -7 -15 -15 -15 -16 0 -20 12 -8 23 11 12 23 8 23 -8z m1620
-5 c0 -11 -5 -20 -11 -20 -5 0 -7 5 -4 10 3 6 1 10 -4 10 -6 0 -11 -4 -11 -10
0 -5 -7 -10 -16 -10 -12 0 -11 5 7 20 31 25 39 25 39 0z m-810 -69 c0 -39 11
-44 70 -36 43 6 49 10 52 33 3 26 6 27 66 30 l62 3 0 -31 c0 -29 1 -30 49 -30
48 0 50 1 48 28 -2 27 -1 27 58 27 57 0 60 -1 60 -25 0 -24 4 -25 63 -28 45
-2 62 1 63 10 1 7 2 19 3 27 1 17 26 28 26 12 0 -21 43 -30 67 -15 26 16 36 1
20 -31 -9 -18 -8 -19 6 -6 11 9 15 22 11 40 -4 20 -3 23 5 11 7 -10 11 -11 11
-2 0 7 14 12 35 12 34 0 35 -1 37 -42 0 -24 1 -49 1 -55 -1 -7 3 -10 8 -8 9 6
49 -66 49 -90 0 -13 -19 -15 -125 -15 l-125 0 -6 30 -6 30 -298 0 -298 0 -11
-30 c-10 -30 -10 -30 -90 -30 -56 0 -81 4 -81 12 0 9 -3 9 -12 0 -15 -15 -32
-16 -23 -2 9 14 -9 12 -24 -2 -10 -11 -11 -9 -5 6 5 13 4 17 -4 12 -8 -4 -10
-2 -6 7 3 8 15 20 28 26 23 13 61 81 45 81 -12 0 -7 53 6 62 5 4 45 8 88 8
l77 0 0 -29z m1560 -70 c0 -17 -8 -19 -70 -18 -57 0 -70 3 -71 16 0 11 -2 12
-6 3 -2 -6 -8 -10 -13 -7 -5 3 -21 0 -36 -5 -23 -9 -31 -8 -47 8 -19 20 -18
20 112 21 122 1 131 -1 131 -18z m40 10 c0 -5 -6 -14 -14 -21 -12 -9 -15 -8
-13 9 1 20 27 31 27 12z m68 -3 c-5 -14 -55 -35 -63 -26 -3 3 -3 13 1 22 7 19
68 23 62 4z m-2615 -38 c3 -11 1 -20 -4 -20 -5 0 -9 4 -9 9 0 5 -3 17 -7 27
-4 11 -3 15 4 11 6 -4 13 -16 16 -27z m83 -6 c-4 -9 -9 -15 -11 -12 -3 3 -3
13 1 22 4 9 9 15 11 12 3 -3 3 -13 -1 -22z m2181 -84 c2 -60 -1 -89 -14 -113
-15 -29 -17 -30 -23 -12 -4 11 -3 27 4 35 10 13 9 13 -6 1 -10 -7 -15 -18 -11
-24 3 -5 1 -7 -5 -3 -5 3 -13 0 -15 -6 -4 -9 -6 -8 -6 2 0 8 3 22 9 30 6 9 5
17 -3 22 -9 6 -9 8 1 8 6 0 12 8 12 18 0 10 6 24 13 31 10 10 8 11 -7 5 -13
-5 -17 -4 -13 3 4 6 3 13 -3 15 -6 2 -2 19 10 41 11 20 18 37 14 37 -3 0 -2 5
2 11 4 7 11 6 22 -5 11 -11 17 -39 19 -96z m294 76 c18 11 28 -32 34 -146 7
-139 9 -178 25 -360 16 -184 18 -211 24 -255 3 -22 8 -58 10 -80 l5 -40 -144
-3 -143 -2 -4 37 c-3 21 -2 52 2 69 5 22 4 31 -6 31 -7 0 -11 -4 -8 -9 3 -4 0
-8 -6 -8 -6 0 -9 -4 -5 -9 3 -5 1 -12 -5 -16 -5 -3 -10 -12 -10 -18 0 -8 3 -8
9 1 6 10 10 8 14 -10 12 -44 8 -64 -13 -64 -11 0 -20 7 -21 16 0 8 -2 26 -5
39 -2 13 1 30 7 37 8 10 8 14 0 14 -6 0 -11 7 -11 16 0 8 5 12 10 9 6 -3 10
-1 10 4 0 6 -5 11 -11 11 -8 0 -7 6 2 17 10 11 10 14 2 9 -15 -9 -16 -1 -4 42
6 18 6 30 1 27 -15 -9 -7 39 9 60 15 18 15 19 -1 6 -16 -12 -18 -11 -14 18 2
17 0 29 -3 27 -4 -3 -7 53 -9 122 -1 70 -5 139 -8 154 -3 14 0 29 6 33 5 3 7
12 3 18 -4 6 -8 55 -9 108 l-3 96 87 2 c47 1 88 3 90 5 1 2 22 0 45 -4 23 -5
45 -6 48 -4z m-1621 -85 c0 -3 -4 -12 -9 -19 -11 -19 -161 -18 -173 0 -6 10
-8 10 -8 1 0 -7 -7 -13 -16 -13 -8 0 -12 5 -9 10 3 6 0 11 -7 12 -21 2 102 13
165 14 31 0 57 -2 57 -5z m880 -12 c0 -20 -14 -22 -164 -20 -55 0 -75 10 -76
33 0 4 54 7 120 6 110 -1 120 -2 120 -19z m452 -151 c2 -21 2 -36 0 -34 -2 2
-14 -7 -27 -20 -13 -13 -30 -24 -37 -24 -9 0 -10 3 -2 8 14 9 24 61 12 68 -4
3 -8 2 -7 -3 1 -4 0 -19 -1 -33 -2 -18 -5 -14 -9 15 -6 36 1 54 20 55 4 0 9
-9 12 -20 5 -21 27 -28 27 -9 0 5 -4 7 -10 4 -14 -9 -13 11 3 35 13 22 13 20
19 -42z m7 -89 c1 -22 -4 -48 -11 -57 -10 -12 -10 -16 0 -19 6 -3 12 -14 11
-26 0 -20 -1 -20 -8 -4 -6 17 -8 17 -20 3 -9 -11 -10 -16 -2 -16 6 0 11 -9 11
-21 0 -11 4 -18 9 -14 13 7 10 -36 -3 -54 -9 -12 -7 -13 8 -8 15 6 17 4 11
-10 -4 -10 -8 -25 -10 -33 -2 -8 -4 -17 -5 -20 -1 -3 -2 -8 -1 -12 0 -5 -3 -8
-9 -8 -13 0 -13 13 2 28 9 9 6 14 -13 21 l-24 10 24 0 23 1 -23 20 c-23 18
-23 19 -4 20 20 1 20 1 0 13 -22 12 -23 52 -2 41 7 -3 1 3 -13 14 l-25 21 23
24 c20 21 22 29 14 58 -6 19 -11 28 -11 22 -1 -7 -6 -13 -13 -13 -6 0 1 14 17
30 16 17 32 30 35 30 3 0 7 -18 9 -41z m-39 -65 c0 -8 -19 -13 -24 -6 -3 5 1
9 9 9 8 0 15 -2 15 -3z m33 -263 c3 -13 0 -18 -7 -15 -7 3 -13 11 -13 19 0 22
14 18 20 -4z m-10 -66 c-3 -9 -8 -14 -10 -11 -3 3 -2 9 2 15 9 16 15 13 8 -4z"/>
<path d="M11750 3606 c0 -2 8 -10 18 -17 15 -13 16 -12 3 4 -13 16 -21 21 -21
13z"/>
<path d="M10236 2891 c-4 -7 -5 -15 -2 -18 9 -9 19 4 14 18 -4 11 -6 11 -12 0z"/>
<path d="M9967 2790 c12 -5 27 -18 33 -29 6 -12 15 -21 21 -21 5 0 0 10 -11
22 -19 21 -20 23 -3 30 12 4 4 7 -22 7 -33 0 -36 -2 -18 -9z"/>
<path d="M10102 2558 c4 -74 28 -77 28 -4 0 44 -3 56 -16 56 -12 0 -14 -10
-12 -52z"/>
<path d="M9983 2330 c1 -11 5 -20 9 -20 11 0 10 28 -1 35 -6 3 -9 -4 -8 -15z"/>
<path d="M9655 2110 c-3 -5 -1 -10 4 -10 6 0 11 5 11 10 0 6 -2 10 -4 10 -3 0
-8 -4 -11 -10z"/>
<path d="M9510 2189 c0 -5 5 -7 10 -4 6 3 10 8 10 11 0 2 -4 4 -10 4 -5 0 -10
-5 -10 -11z"/>
<path d="M9852 2108 c-8 -8 -12 -46 -12 -105 l0 -93 35 0 35 0 0 93 c0 90 -8
117 -35 117 -6 0 -16 -5 -23 -12z m42 -24 c3 -9 6 -49 6 -91 0 -65 -2 -74 -17
-71 -10 2 -19 12 -21 22 -3 11 0 16 7 12 6 -4 11 -2 11 3 0 6 -4 11 -10 11 -5
0 -10 10 -9 23 0 21 1 21 10 2 8 -18 8 -18 7 5 -1 14 2 31 6 39 7 11 6 12 -5
6 -12 -8 -12 -6 -1 8 15 18 7 41 -10 31 -7 -4 -8 -2 -4 4 10 17 23 15 30 -4z"/>
<path d="M9330 2280 c0 -5 5 -10 11 -10 5 0 7 5 4 10 -3 6 -8 10 -11 10 -2 0
-4 -4 -4 -10z"/>
<path d="M9057 2164 c-6 -6 1 -55 9 -63 2 -2 4 12 4 32 0 37 -2 42 -13 31z"/>
<path d="M9210 2137 c0 -20 4 -37 8 -37 10 0 9 56 -1 66 -4 4 -7 -9 -7 -29z"/>
<path d="M9490 1945 c0 -25 5 -45 10 -45 6 0 10 20 10 45 0 25 -4 45 -10 45
-5 0 -10 -20 -10 -45z"/>
<path d="M10240 1945 c0 -25 5 -45 10 -45 6 0 10 20 10 45 0 25 -4 45 -10 45
-5 0 -10 -20 -10 -45z"/>
<path d="M10072 1930 c0 -14 2 -19 5 -12 2 6 2 18 0 25 -3 6 -5 1 -5 -13z"/>
<path d="M8674 1842 c3 -5 0 -13 -6 -15 -8 -3 -6 -6 5 -6 19 -1 23 14 5 25 -6
4 -8 3 -4 -4z"/>
<path d="M9140 1748 c0 -9 7 -22 17 -29 15 -13 15 -12 3 11 -17 34 -20 36 -20
18z"/>
<path d="M10782 1782 c-5 -16 -6 -35 -2 -43 5 -7 6 -17 3 -23 -3 -5 -1 -6 5
-2 6 3 9 20 7 36 -3 23 0 28 13 23 15 -6 15 -5 2 13 -8 10 -15 20 -16 22 -1 2
-6 -10 -12 -26z"/>
<path d="M10830 1646 c0 -2 8 -10 18 -17 15 -13 16 -12 3 4 -13 16 -21 21 -21
13z"/>
<path d="M9973 1615 c0 -27 2 -38 4 -22 2 15 2 37 0 50 -2 12 -4 0 -4 -28z"/>
<path d="M9972 1535 c0 -16 2 -22 5 -12 2 9 2 23 0 30 -3 6 -5 -1 -5 -18z"/>
<path d="M9855 1530 c-3 -6 1 -7 9 -4 18 7 21 14 7 14 -6 0 -13 -4 -16 -10z"/>
<path d="M10645 1590 c-3 -5 -1 -10 4 -10 6 0 11 5 11 10 0 6 -2 10 -4 10 -3
0 -8 -4 -11 -10z"/>
<path d="M10257 1370 c-3 -11 -3 -20 -1 -20 2 0 8 9 14 20 6 11 7 20 2 20 -6
0 -12 -9 -15 -20z"/>
<path d="M9369 1318 c-31 -19 -32 -22 -14 -28 26 -10 45 1 19 11 -17 7 -17 8
4 8 12 1 22 7 22 14 0 8 4 7 10 -3 6 -9 10 -10 10 -3 0 22 -16 22 -51 1z"/>
<path d="M10852 1305 c4 -4 0 -14 -10 -22 -9 -8 -11 -11 -4 -8 7 4 19 0 26
-10 10 -15 12 -13 11 11 0 15 -7 29 -15 32 -8 3 -12 1 -8 -3z"/>
<path d="M10872 1220 c0 -14 2 -19 5 -12 2 6 2 18 0 25 -3 6 -5 1 -5 -13z"/>
<path d="M11046 1155 c-9 -25 -7 -103 3 -109 18 -11 32 24 29 70 -3 48 -20 69
-32 39z"/>
<path d="M10958 613 c5 -21 7 -23 10 -9 2 10 0 22 -6 28 -6 6 -7 0 -4 -19z"/>
<path d="M10882 960 c0 -14 2 -19 5 -12 2 6 2 18 0 25 -3 6 -5 1 -5 -13z"/>
<path d="M10215 3755 c22 -14 46 -25 54 -25 8 0 -7 11 -33 25 -60 32 -73 32
-21 0z"/>
<path d="M11431 3556 c-8 -10 -3 -11 19 -8 35 5 37 8 10 15 -10 3 -24 -1 -29
-7z"/>
<path d="M11550 3516 c0 -2 7 -7 16 -10 8 -3 12 -2 9 4 -6 10 -25 14 -25 6z"/>
<path d="M9715 2900 c-3 -5 -1 -10 4 -10 6 0 11 5 11 10 0 6 -2 10 -4 10 -3 0
-8 -4 -11 -10z"/>
<path d="M9696 2723 c-3 -3 -6 -21 -6 -40 0 -23 5 -33 15 -33 10 0 15 10 15
34 0 34 -11 52 -24 39z"/>
<path d="M8430 1473 c0 -62 3 -73 39 -126 21 -33 41 -54 45 -49 3 5 -2 16 -10
23 -41 34 -64 88 -64 148 0 38 4 61 13 64 7 3 5 6 -5 6 -16 1 -18 -9 -18 -66z"/>
<path d="M8492 1220 c0 -19 2 -27 5 -17 2 9 2 25 0 35 -3 9 -5 1 -5 -18z"/>
<path d="M10748 1203 c7 -3 16 -2 19 1 4 3 -2 6 -13 5 -11 0 -14 -3 -6 -6z"/>
<path d="M9370 1171 c0 -6 4 -13 10 -16 6 -3 7 1 4 9 -7 18 -14 21 -14 7z"/>
<path d="M9920 1160 c8 -5 20 -10 25 -10 6 0 3 5 -5 10 -8 5 -19 10 -25 10 -5
0 -3 -5 5 -10z"/>
<path d="M9411 1124 c0 -11 3 -14 6 -6 3 7 2 16 -1 19 -3 4 -6 -2 -5 -13z"/>
<path d="M9670 1065 c-24 -25 -42 -45 -39 -45 3 0 25 20 49 45 24 25 42 45 39
45 -3 0 -25 -20 -49 -45z"/>
<path d="M10085 1038 c22 -27 41 -48 43 -48 7 0 -36 56 -59 75 -12 11 -5 -1
16 -27z"/>
<path d="M9823 1039 c-49 -24 -113 -90 -141 -146 -45 -88 -55 -149 -54 -325
l1 -168 -32 -1 c-18 -1 -36 0 -42 1 -5 1 -6 -2 -2 -6 12 -13 91 -4 102 11 10
12 131 32 168 26 9 -1 17 2 17 8 0 6 -23 8 -60 6 l-60 -4 0 34 c0 19 4 35 10
35 5 0 7 -7 4 -15 -4 -8 -1 -15 5 -15 6 0 11 7 11 15 0 14 11 19 37 16 6 -1
14 3 18 9 3 5 2 10 -4 10 -12 0 -2 32 13 42 6 4 20 5 31 2 16 -4 17 -3 5 5 -8
6 -10 11 -5 11 6 0 16 14 22 30 6 17 10 30 7 30 -2 0 -10 -13 -19 -30 -9 -16
-19 -30 -23 -30 -12 0 -12 93 1 109 9 11 9 13 0 8 -7 -4 -16 0 -22 10 -10 17
-12 17 -26 -1 -8 -11 -15 -15 -15 -9 0 6 7 17 16 24 9 7 20 22 25 34 8 18 9
18 8 -5 -2 -38 0 -50 9 -49 20 3 28 -3 28 -21 0 -11 -4 -20 -8 -20 -4 0 -8 -8
-8 -17 0 -15 2 -14 14 2 8 11 12 23 10 27 -3 5 -1 8 5 8 5 0 13 10 16 23 12
42 27 77 34 77 4 0 8 -12 9 -27 1 -22 0 -25 -9 -13 -9 13 -10 13 -6 0 2 -8 10
-16 18 -16 8 -1 18 -2 23 -3 5 0 3 -8 -4 -16 -7 -9 -11 -17 -9 -18 2 -1 13 -9
24 -17 17 -12 18 -12 8 0 -17 19 -16 27 2 27 8 0 15 -5 15 -10 0 -17 14 2 17
23 3 23 -7 26 -26 8 -7 -7 -4 1 6 19 9 17 19 30 21 28 7 -7 11 -105 4 -102 -7
2 -12 -7 -12 -23 0 -6 5 -9 11 -8 6 2 14 -3 17 -11 3 -10 0 -12 -11 -8 -10 4
-17 -2 -20 -15 -5 -16 -3 -18 6 -9 6 6 13 11 17 11 3 0 6 -39 8 -87 3 -96 6
-104 30 -102 13 1 14 2 2 5 -12 4 -15 27 -15 129 0 72 4 125 10 125 5 0 4 5
-3 12 -16 16 -15 53 2 68 11 8 12 18 5 36 -11 31 -11 34 0 34 8 0 28 -103 24
-120 -1 -3 -5 -14 -8 -25 -6 -16 -5 -17 4 -5 9 12 11 13 11 1 0 -8 -8 -24 -17
-35 -15 -17 -15 -18 -2 -8 15 12 17 3 18 -95 2 -145 4 -149 53 -157 27 -4 45
-3 52 5 8 9 7 10 -7 6 -9 -4 -31 -4 -47 0 l-30 6 0 156 c0 182 -11 254 -50
331 -38 73 -140 170 -180 170 -8 0 -34 -9 -57 -21z m97 -234 c0 -5 -5 -3 -10
5 -5 8 -10 20 -10 25 0 6 5 3 10 -5 5 -8 10 -19 10 -25z m-34 -2 c13 -22 14
-25 2 -15 -13 10 -17 10 -22 -3 -3 -9 0 -15 9 -15 19 0 18 -10 -1 -35 -13 -17
-16 -18 -24 -5 -7 11 -5 16 7 19 13 2 13 5 2 12 -12 7 -12 12 -1 29 7 11 10
25 7 30 -15 24 5 7 21 -17z m155 3 c12 7 11 -7 -1 -26 -6 -9 -10 -10 -10 -3 0
6 -2 17 -3 25 -2 7 -2 10 0 5 3 -4 9 -5 14 -1z m-64 -3 c-4 -3 -2 -12 4 -19 6
-7 6 -14 1 -18 -6 -3 -13 1 -16 10 -6 16 0 34 11 34 4 0 3 -3 0 -7z m-23 -38
c3 -8 1 -15 -4 -15 -6 0 -10 7 -10 15 0 8 2 15 4 15 2 0 6 -7 10 -15z m-164
-85 c-8 -16 -6 -21 11 -31 15 -8 18 -14 10 -22 -6 -6 -11 -16 -11 -21 0 -6 5
-4 10 4 7 12 9 10 7 -7 -1 -18 -4 -20 -20 -12 -12 7 -16 17 -12 30 4 11 1 26
-5 34 -10 12 -10 18 0 30 17 21 23 19 10 -5z m0 -122 c0 -13 -20 -19 -20 -6
-1 9 -5 7 -14 -4 -18 -24 -29 -23 -16 1 9 18 50 26 50 9z"/>
<path d="M10619 1003 c-11 -28 -2 -113 12 -113 13 0 28 34 24 56 -2 10 -4 34
-4 52 -1 39 -18 42 -32 5z"/>
<path d="M9601 982 c-29 -41 -63 -132 -58 -156 4 -20 4 -20 6 1 2 31 38 120
62 155 11 15 18 28 15 28 -2 0 -14 -13 -25 -28z"/>
<path d="M11282 993 c-10 -22 -10 -53 1 -70 5 -7 4 -13 -1 -13 -5 0 -9 -7 -9
-15 0 -11 3 -12 14 -3 8 6 11 18 8 26 -3 9 0 19 7 23 10 7 10 11 0 21 -15 15
-16 42 0 32 7 -4 8 -3 4 4 -10 16 -14 15 -24 -5z"/>
<path d="M11332 986 c1 -14 5 -23 9 -20 7 4 0 44 -7 44 -2 0 -3 -11 -2 -24z"/>
<path d="M8471 974 c0 -11 3 -14 6 -6 3 7 2 16 -1 19 -3 4 -6 -2 -5 -13z"/>
<path d="M9444 956 c-8 -33 -1 -91 11 -91 6 0 11 26 13 58 3 58 -12 79 -24 33z"/>
<path d="M10152 935 c12 -24 23 -43 26 -41 4 5 -36 86 -43 86 -3 0 5 -20 17
-45z"/>
<path d="M8463 870 c0 -25 2 -35 4 -22 2 12 2 32 0 45 -2 12 -4 2 -4 -23z"/>
<path d="M10184 860 c3 -14 11 -47 17 -75 10 -44 19 -220 19 -355 l0 -45 58 1
c74 0 82 -3 82 -34 0 -14 2 -23 5 -20 6 6 56 470 54 503 -1 21 -45 -306 -52
-385 l-4 -45 -61 -3 c-54 -3 -62 -1 -64 15 0 10 -2 77 -3 148 -1 72 -5 139 -8
150 -3 11 -12 51 -20 88 -8 37 -18 71 -22 75 -4 4 -4 -4 -1 -18z"/>
<path d="M8455 808 c-2 -7 -7 -42 -10 -78 -4 -36 -9 -74 -10 -85 -12 -64 -26
-197 -23 -201 3 -2 15 71 27 163 12 93 23 178 25 191 3 24 -2 30 -9 10z"/>
<path d="M11335 810 c-3 -5 -1 -10 4 -10 6 0 11 5 11 10 0 6 -2 10 -4 10 -3 0
-8 -4 -11 -10z"/>
<path d="M11310 795 c0 -8 7 -15 16 -15 14 0 14 3 4 15 -7 8 -14 15 -16 15 -2
0 -4 -7 -4 -15z"/>
<path d="M9532 775 c0 -16 2 -22 5 -12 2 9 2 23 0 30 -3 6 -5 -1 -5 -18z"/>
<path d="M11374 792 c-6 -4 -8 -16 -4 -27 6 -17 7 -16 12 8 3 15 5 27 4 27 0
0 -6 -4 -12 -8z"/>
<path d="M11316 762 c-3 -5 1 -9 9 -9 8 0 12 4 9 9 -3 4 -7 8 -9 8 -2 0 -6 -4
-9 -8z"/>
<path d="M10057 730 c3 -11 7 -20 9 -20 2 0 4 9 4 20 0 11 -4 20 -9 20 -5 0
-7 -9 -4 -20z"/>
<path d="M11349 744 c-1 -5 -1 -12 0 -16 0 -5 -3 -8 -9 -8 -5 0 -10 -7 -10
-16 0 -9 -10 -25 -22 -35 l-23 -20 22 11 c23 11 60 76 49 87 -3 3 -7 2 -7 -3z"/>
<path d="M9523 680 c0 -36 2 -50 4 -32 2 17 2 47 0 65 -2 17 -4 3 -4 -33z"/>
<path d="M9907 677 c13 -13 14 -20 5 -26 -7 -4 -2 -11 16 -17 24 -9 28 -8 29
7 1 10 -7 21 -17 24 -11 3 -17 12 -14 18 3 8 -4 13 -15 13 -19 0 -19 -1 -4
-19z"/>
<path d="M11377 675 c-4 -8 -2 -17 3 -20 6 -4 10 3 10 14 0 25 -6 27 -13 6z"/>
<path d="M9971 604 c0 -11 3 -14 6 -6 3 7 2 16 -1 19 -3 4 -6 -2 -5 -13z"/>
<path d="M11396 575 c-3 -8 -1 -15 4 -15 6 0 10 7 10 15 0 8 -2 15 -4 15 -2 0
-6 -7 -10 -15z"/>
<path d="M9866 535 c-3 -9 0 -15 9 -15 9 0 12 6 9 15 -4 8 -7 15 -9 15 -2 0
-5 -7 -9 -15z"/>
<path d="M9820 526 c0 -2 7 -6 15 -10 8 -3 15 -1 15 4 0 6 -7 10 -15 10 -8 0
-15 -2 -15 -4z"/>
<path d="M11340 509 c0 -5 5 -7 10 -4 6 3 10 8 10 11 0 2 -4 4 -10 4 -5 0 -10
-5 -10 -11z"/>
<path d="M9757 480 c-3 -12 0 -20 8 -20 8 0 11 8 8 20 -3 11 -7 20 -8 20 -1 0
-5 -9 -8 -20z"/>
<path d="M8695 430 c-3 -5 3 -10 14 -10 12 0 21 5 21 10 0 6 -6 10 -14 10 -8
0 -18 -4 -21 -10z"/>
<path d="M10896 420 c6 -8 10 -23 9 -32 -3 -14 0 -16 15 -8 10 6 38 10 61 10
55 0 47 7 -14 13 -27 3 -56 12 -65 19 -15 11 -15 11 -6 -2z"/>
<path d="M9188 308 c5 -5 16 -8 23 -6 8 3 3 7 -10 11 -17 4 -21 3 -13 -5z"/>
<path d="M10633 303 c9 -2 23 -2 30 0 6 3 -1 5 -18 5 -16 0 -22 -2 -12 -5z"/>
</g>
</svg>
