<?xml version="1.0" encoding="UTF-8" standalone="yes"?>
<svg version="1.0" xmlns="http://www.w3.org/2000/svg" width="1024.000000pt" height="1024.000000pt" viewBox="0 0 1024.000000 1024.000000" preserveAspectRatio="xMidYMid meet">
  <metadata>
Created by potrace 1.16, written by Peter Selinger 2001-2019
</metadata>
  <g transform="translate(0.000000,1024.000000) scale(0.100000,-0.100000)" fill="#000000" stroke="none">
    <path d="M4582 9939 c-23 -11 -51 -34 -62 -49 -26 -36 -50 -104 -50 -139 1&#xA;-34 32 -103 60 -131 19 -19 20 -24 8 -38 -8 -9 -41 -48 -75 -87 -99 -115 -377&#xA;-478 -424 -553 -24 -39 -48 -71 -53 -72 -5 0 -68 58 -141 129 -72 70 -143 136&#xA;-158 145 l-26 18 28 36 c83 105 54 221 -67 274 -78 35 -167 5 -220 -72 -50&#xA;-74 -10 -199 76 -240 l32 -15 1 -147 c1 -82 2 -151 3 -155 1 -5 6 -69 10 -143&#xA;4 -74 14 -220 21 -325 31 -423 31 -417 -3 -547 -38 -142 -75 -238 -115 -298&#xA;-17 -25 -50 -73 -73 -106 -50 -75 -80 -180 -69 -252 8 -59 48 -149 82 -184&#xA;l26 -27 -51 -83 c-101 -166 -163 -342 -178 -503 l-6 -71 -51 -25 c-90 -42&#xA;-165 -97 -258 -186 -73 -71 -97 -101 -129 -167 -50 -102 -66 -196 -50 -287&#xA;l12 -63 -59 -49 c-118 -101 -441 -435 -509 -527 -297 -402 -352 -670 -205&#xA;-1004 48 -108 170 -245 304 -340 37 -26 67 -55 67 -63 0 -16 -72 -346 -117&#xA;-538 -100 -427 -222 -804 -329 -1018 -41 -81 -81 -141 -182 -275 -71 -96 -132&#xA;-206 -151 -277 -16 -59 -13 -152 5 -191 19 -40 94 -98 155 -120 150 -53 385&#xA;-54 664 -3 123 22 440 102 491 124 19 8 138 25 266 39 128 15 242 28 253 30&#xA;46 10 -75 -78 -165 -120 -282 -133 -441 -239 -511 -341 -44 -63 -52 -144 -19&#xA;-186 29 -37 101 -72 177 -87 90 -18 394 -7 568 20 367 56 570 110 828 220 245&#xA;104 241 98 239 287 l-2 135 28 -7 c63 -17 214 -32 315 -31 l107 1 -1 -50 c-1&#xA;-27 -4 -59 -7 -71 -4 -12 -54 -56 -112 -99 -151 -112 -298 -264 -341 -351 -30&#xA;-60 -34 -78 -34 -146 0 -82 12 -110 66 -150 95 -71 442 -63 754 17 377 97 750&#xA;264 859 385 34 38 36 44 36 108 0 37 -7 112 -15 166 -24 158 -34 143 103 151&#xA;64 3 164 11 222 16 58 6 154 10 214 11 109 0 110 0 190 -41 119 -61 207 -75&#xA;426 -67 96 3 211 9 256 12 68 5 86 3 120 -14 74 -37 219 -81 339 -102 134 -23&#xA;426 -28 545 -10 36 6 155 15 265 19 173 8 211 12 280 35 191 61 227 181 90&#xA;303 -55 49 -79 64 -274 174 -235 132 -365 301 -484 630 -58 160 -142 437 -196&#xA;644 -126 489 -199 754 -262 960 -140 452 -367 1026 -531 1342 l-68 131 21 48&#xA;c89 208 71 422 -50 605 -71 109 -205 232 -337 311 l-51 31 32 43 c51 66 68&#xA;131 63 233 -7 128 -34 189 -122 277 -39 39 -92 81 -118 93 l-48 23 0 73 c0&#xA;174 -67 311 -184 380 -31 18 -42 31 -44 52 -1 15 -9 45 -19 66 -16 37 -16 41&#xA;11 135 55 191 156 519 194 632 21 63 49 158 62 210 12 52 26 111 31 131 9 34&#xA;12 37 55 42 62 7 109 52 130 125 27 90 -3 170 -80 213 -45 25 -121 27 -165 5&#xA;-83 -44 -124 -153 -87 -236 5 -12 -13 -23 -86 -50 -51 -19 -149 -58 -218 -87&#xA;-68 -29 -127 -53 -131 -53 -3 0 -13 46 -23 103 -9 56 -34 192 -56 302 -58 300&#xA;-56 268 -15 299 75 57 97 162 52 247 -27 51 -107 99 -164 99 -64 0 -149 -61&#xA;-172 -123 -23 -59 -7 -147 33 -190 l24 -26 -97 -64 c-53 -36 -175 -120 -271&#xA;-187 -96 -68 -180 -124 -186 -127 -5 -2 -39 38 -74 89 -116 168 -143 203 -394&#xA;512 l-79 97 30 32 c67 70 81 148 41 227 -49 96 -172 137 -266 89z m171 -65&#xA;c105 -76 50 -244 -81 -246 -83 -1 -148 63 -137 136 13 90 68 140 146 133 25&#xA;-2 58 -12 72 -23z m-1 -350 c88 -99 295 -365 408 -526 94 -134 130 -178 146&#xA;-178 12 0 54 24 95 53 41 29 175 123 299 209 224 155 225 156 271 151 l46 -5&#xA;12 -97 c7 -53 25 -154 41 -226 15 -71 31 -152 34 -180 15 -112 40 -215 55&#xA;-229 14 -13 31 -8 151 43 74 32 186 79 248 105 l112 46 33 -22 c17 -13 33 -23&#xA;34 -23 11 -3 -221 -735 -251 -792 l-11 -23 -66 44 c-161 108 -444 239 -704&#xA;325 -275 92 -437 129 -725 167 -160 22 -673 27 -845 10 -227 -23 -452 -76&#xA;-502 -118 -7 -6 -15 -9 -16 -7 -8 10 -50 553 -54 705 l-6 171 28 7 c32 8 27&#xA;13 228 -184 75 -74 148 -141 161 -149 32 -19 52 -9 71 35 29 70 308 441 511&#xA;680 l43 50 59 -1 c56 -2 62 -4 94 -41z m1317 0 c55 -46 72 -103 47 -152 -52&#xA;-99 -181 -110 -236 -19 -35 57 -21 119 40 171 44 36 106 36 149 0z m-2428&#xA;-133 c29 -29 39 -47 39 -70 0 -73 -53 -121 -133 -121 -39 0 -49 5 -76 35 -70&#xA;80 -16 193 93 195 32 0 45 -7 77 -39z m3219 -456 c74 -38 81 -158 14 -220 -21&#xA;-20 -38 -25 -76 -25 -43 0 -55 5 -83 33 -47 47 -55 98 -25 153 35 67 107 92&#xA;170 59z m-1880 -629 c506 -63 1009 -236 1415 -486 39 -23 71 -43 72 -44 2 -2&#xA;-41 -145 -52 -174 -3 -10 -16 -5 -47 16 -24 16 -102 61 -173 101 -604 331&#xA;-1463 502 -2090 417 -182 -25 -353 -68 -437 -112 -16 -8 -31 -14 -33 -12 -1 2&#xA;-6 44 -10 94 l-7 91 50 21 c93 40 258 75 482 102 111 13 693 4 830 -14z m-230&#xA;-220 c14 -3 66 -10 115 -16 122 -15 338 -55 460 -86 92 -23 415 -121 422 -128&#xA;2 -1 -1 -16 -7 -32 -15 -47 -40 -266 -40 -357 0 -101 21 -219 50 -284 67 -148&#xA;78 -259 39 -414 -46 -184 -136 -315 -292 -424 -40 -28 -7 -27 50 0 91 45 180&#xA;141 237 255 55 112 76 209 76 348 -1 73 -6 111 -21 152 -87 229 -83 214 -84&#xA;370 0 134 19 334 35 359 15 26 299 -110 596 -284 17 -11 37 -35 47 -59 29 -70&#xA;26 -73 -52 -74 -101 0 -169 -23 -229 -77 -63 -57 -104 -121 -134 -210 -22 -68&#xA;-23 -79 -23 -450 -1 -391 -5 -454 -46 -620 -38 -158 -141 -320 -230 -366 l-39&#xA;-19 30 47 c40 62 59 128 67 230 4 61 3 83 -6 83 -6 0 -13 -6 -16 -12 -2 -7&#xA;-15 -55 -30 -107 -33 -119 -77 -192 -174 -288 -125 -125 -284 -213 -384 -213&#xA;l-25 0 28 30 c59 63 110 184 110 260 0 20 -6 13 -29 -32 -87 -172 -294 -346&#xA;-476 -401 -27 -8 -72 -26 -100 -38 -43 -20 -66 -23 -160 -24 -111 0 -111 0&#xA;-153 33 -23 19 -70 68 -104 110 -34 41 -64 70 -66 64 -6 -19 47 -125 81 -161&#xA;l32 -33 -35 7 c-59 12 -133 41 -176 67 -67 43 -185 142 -255 215 -77 79 -114&#xA;146 -145 258 l-21 80 -8 -48 c-10 -65 0 -129 30 -194 l24 -53 -27 6 c-67 15&#xA;-156 66 -207 119 -61 62 -120 173 -135 254 -15 80 -12 213 6 292 9 39 13 73&#xA;10 77 -21 21 -74 -104 -84 -198 l-5 -55 -18 42 c-66 155 -37 415 70 636 69&#xA;142 175 313 246 397 33 39 66 87 73 108 22 64 42 246 53 502 7 161 15 247 23&#xA;252 42 27 280 83 440 103 106 14 520 14 586 1z m-1094 -248 c-13 -243 -18&#xA;-305 -31 -428 -19 -168 -27 -190 -89 -257 -29 -32 -66 -77 -83 -100 -28 -39&#xA;-31 -41 -46 -25 -48 55 -71 149 -58 233 12 73 36 125 92 199 74 98 116 200&#xA;159 385 18 76 38 115 58 115 3 0 2 -55 -2 -122z m2865 -520 c31 -20 65 -48 77&#xA;-63 58 -74 87 -247 62 -381 -7 -38 -32 -111 -56 -163 -37 -79 -56 -106 -118&#xA;-165 -105 -102 -171 -138 -260 -146 -62 -4 -162 3 -172 13 -2 1 -5 135 -6 297&#xA;-3 258 -1 303 15 360 26 96 55 149 113 207 64 64 119 84 219 80 61 -3 79 -9&#xA;126 -39z m326 -547 c25 -24 59 -72 77 -110 27 -59 31 -76 31 -156 0 -112 -27&#xA;-177 -91 -212 -21 -13 -41 -23 -44 -23 -3 0 -5 35 -5 78 0 80 -15 127 -56 171&#xA;-33 35 -39 24 -17 -36 27 -78 21 -188 -15 -259 -45 -90 -123 -148 -212 -161&#xA;l-46 -6 32 51 c25 41 33 65 37 123 4 53 2 70 -7 65 -6 -4 -11 -13 -11 -19 0&#xA;-29 -53 -121 -95 -166 -61 -65 -142 -101 -245 -108 -96 -7 -183 11 -176 36 17&#xA;55 35 158 42 234 6 85 8 88 28 82 11 -4 62 -9 113 -12 127 -7 169 8 316 121&#xA;81 62 179 224 207 344 l12 52 40 -22 c22 -13 60 -43 85 -67z m-3683 -553 c3&#xA;-13 6 -32 6 -43 0 -46 45 -159 75 -189 18 -19 37 -52 45 -81 31 -117 107 -243&#xA;182 -306 19 -15 62 -41 95 -58 58 -30 77 -35 150 -45 22 -3 49 -22 95 -68 34&#xA;-35 95 -86 133 -113 39 -27 74 -52 79 -56 4 -4 -10 -17 -32 -28 -44 -23 -115&#xA;-98 -142 -151 -9 -19 -25 -60 -35 -90 -10 -30 -19 -56 -20 -57 -4 -5 -251 66&#xA;-339 97 -316 112 -592 324 -701 539 -88 176 4 398 238 574 65 49 141 95 158&#xA;97 4 0 9 -10 13 -22z m3776 -50 c208 -126 321 -248 383 -411 28 -74 31 -93 31&#xA;-197 0 -99 -4 -124 -25 -180 l-25 -65 -44 5 c-108 12 -305 3 -399 -18 -209&#xA;-48 -419 -128 -606 -231 -284 -156 -590 -262 -885 -308 -200 -30 -489 -23&#xA;-680 18 l-50 11 8 41 c12 69 6 168 -14 232 -10 33 -18 64 -19 68 0 4 57 27&#xA;126 51 123 42 198 78 287 139 40 26 52 29 135 31 78 1 103 6 162 32 88 38 177&#xA;98 259 174 51 48 70 60 96 60 95 0 242 154 290 304 12 36 14 38 44 30 17 -5&#xA;83 -9 146 -9 111 0 118 1 185 34 62 30 80 35 155 36 53 1 99 7 121 17 49 22&#xA;115 82 145 134 22 38 36 47 79 53 6 0 49 -22 95 -51z m-4140 -766 c72 -88 117&#xA;-130 220 -204 47 -34 86 -62 88 -63 1 -1 -24 -58 -56 -126 -33 -68 -71 -157&#xA;-86 -196 -15 -40 -30 -73 -32 -73 -2 0 -25 15 -51 34 -123 88 -236 136 -318&#xA;136 -63 0 -59 -22 8 -37 53 -13 212 -88 256 -122 l23 -18 -53 -17 c-147 -48&#xA;-285 -162 -351 -291 -89 -173 -122 -428 -79 -609 12 -49 37 -118 55 -153 19&#xA;-34 32 -63 30 -63 -3 0 -37 16 -77 36 -238 120 -386 285 -457 509 -16 53 -22&#xA;96 -22 180 -1 130 14 196 79 335 111 238 273 440 597 743 l129 121 21 -28 c12&#xA;-14 46 -57 76 -94z m4478 -135 c29 -35 260 -548 339 -752 225 -584 305 -840&#xA;488 -1560 83 -327 132 -497 194 -676 168 -488 281 -632 655 -835 119 -64 210&#xA;-142 222 -187 28 -116 -279 -196 -525 -137 -270 65 -455 237 -616 572 -149&#xA;311 -244 655 -410 1493 -103 522 -218 966 -330 1280 -26 72 -68 191 -95 265&#xA;-72 203 -117 315 -171 424 -27 54 -47 101 -45 103 21 21 278 29 294 10z m-314&#xA;-109 c204 -430 296 -864 296 -1400 l0 -147 -52 -19 c-155 -57 -332 -82 -548&#xA;-77 -230 6 -445 46 -563 106 l-39 20 9 82 c13 133 8 430 -10 548 -19 120 -67&#xA;293 -126 454 -22 60 -39 110 -38 110 1 1 43 18 92 40 50 21 171 80 271 131 99&#xA;50 223 109 275 130 103 41 331 112 366 113 19 1 30 -15 67 -91z m-2606 -8 c81&#xA;-11 154 -18 162 -15 27 8 41 -11 61 -85 23 -90 24 -149 3 -221 -23 -77 -57&#xA;-131 -120 -188 -73 -67 -144 -93 -254 -95 -135 -2 -153 5 -232 87 -95 98 -122&#xA;153 -120 237 3 148 77 270 199 330 34 16 37 16 94 -7 38 -15 114 -31 207 -43z&#xA;m-1107 -97 c112 -55 217 -93 400 -144 l149 -42 0 -31 c1 -17 7 -48 14 -68 15&#xA;-42 15 -42 -34 -28 -19 6 -73 15 -119 20 -107 12 -196 -3 -350 -59 l-114 -41&#xA;-65 26 c-36 14 -80 28 -99 31 -18 3 -36 9 -38 13 -2 4 25 76 60 159 76 177 94&#xA;213 103 209 4 -2 46 -22 93 -45z m2651 -415 c91 -277 107 -367 115 -634 l6&#xA;-201 -49 -10 c-523 -115 -725 -139 -1217 -150 l-278 -6 -48 54 c-60 67 -130&#xA;103 -257 132 l-95 21 4 71 c2 38 11 97 21 130 12 40 15 76 11 107 -3 29 -1 49&#xA;6 53 16 10 107 201 115 240 5 31 10 35 57 45 123 29 242 109 294 197 24 42 28&#xA;44 57 38 193 -42 453 -56 634 -36 139 17 377 64 472 95 41 14 80 25 85 25 6 1&#xA;36 -77 67 -171z m-2127 41 c100 -31 154 -61 206 -116 74 -77 97 -115 116 -185&#xA;15 -56 15 -70 4 -94 l-13 -29 -22 29 c-102 141 -252 217 -435 219 -123 2 -121&#xA;-14 4 -38 141 -28 251 -74 314 -131 111 -100 143 -262 64 -324 -38 -30 -60&#xA;-25 -82 18 -42 81 -152 148 -290 178 -74 15 -167 18 -175 5 -3 -4 41 -20 97&#xA;-35 113 -30 208 -71 262 -111 48 -37 89 -123 80 -167 -28 -129 -108 -143 -350&#xA;-63 l-130 43 -15 -38 c-43 -109 -187 -223 -297 -237 -126 -14 -225 38 -283&#xA;151 -33 65 -34 72 -34 179 -1 171 41 314 131 449 57 87 119 140 218 187 105&#xA;51 292 119 358 131 75 13 191 4 272 -21z m-743 -15 c46 -14 86 -29 90 -32 4&#xA;-4 -16 -18 -45 -32 -64 -31 -181 -146 -226 -223 -19 -32 -50 -104 -69 -159&#xA;-30 -89 -35 -118 -40 -230 -3 -85 -1 -148 8 -189 17 -81 75 -169 132 -203 64&#xA;-37 161 -59 228 -52 l55 6 -25 -20 c-14 -11 -63 -39 -109 -63 -82 -41 -88 -42&#xA;-180 -42 -88 0 -102 3 -163 33 -117 57 -215 185 -262 342 -24 77 -28 217 -10&#xA;335 42 278 185 466 404 531 97 29 112 29 212 -2z m1154 -196 c-2 -7 -11 -33&#xA;-18 -58 l-12 -45 -6 35 c-4 19 -10 45 -14 58 -7 20 -4 22 24 22 22 0 30 -4 26&#xA;-12z m3189 -460 c72 -252 131 -507 201 -861 112 -575 177 -845 266 -1117 98&#xA;-304 245 -583 382 -729 82 -87 200 -166 299 -201 l51 -18 -49 -8 c-94 -14&#xA;-423 -8 -530 11 -227 39 -410 122 -526 238 -85 86 -165 203 -212 312 -65 148&#xA;-146 437 -188 666 -11 64 -11 66 16 109 79 125 110 288 102 529 l-5 166 31 16&#xA;c18 9 39 29 49 45 29 50 49 266 53 559 3 240 0 327 -19 510 l-5 50 19 -60 c11&#xA;-33 41 -131 65 -217z m-3345 -97 c0 -60 -8 -71 -47 -71 -28 0 -34 3 -29 16 3&#xA;9 6 28 6 43 0 20 7 30 28 38 41 16 42 16 42 -26z m-388 -162 c46 -11 84 -22&#xA;86 -24 2 -2 -11 -17 -29 -35 -22 -21 -40 -30 -54 -26 -11 3 -69 10 -130 17&#xA;-60 6 -114 15 -120 20 -5 6 -5 9 2 9 6 0 21 24 33 54 l23 54 53 -24 c29 -13&#xA;90 -33 136 -45z m548 12 c99 -28 157 -59 195 -104 39 -46 74 -129 82 -198 6&#xA;-52 -12 -175 -34 -228 -19 -46 -68 -97 -116 -123 -60 -30 -198 -44 -312 -30&#xA;-167 21 -252 69 -302 170 -25 52 -28 66 -28 172 0 124 14 173 71 247 29 38&#xA;103 91 154 110 46 18 203 9 290 -16z m1820 -29 c0 -4 -13 -84 -30 -177 -16&#xA;-94 -30 -182 -30 -196 0 -22 -6 -27 -32 -32 -18 -3 -116 -22 -218 -41 -220&#xA;-42 -428 -72 -600 -86 -146 -12 -620 -26 -620 -18 0 3 7 25 16 49 19 49 25&#xA;259 11 317 l-9 32 229 1 c125 0 246 2 268 4 22 2 108 9 190 15 200 15 509 63&#xA;675 104 159 40 150 38 150 28z m-2580 -93 c19 -5 75 -12 123 -16 l89 -6 -7&#xA;-31 c-28 -132 -29 -237 -5 -301 9 -23 7 -25 -18 -25 -114 1 -438 69 -567 120&#xA;l-30 12 50 25 c66 34 130 87 166 137 16 23 48 55 71 73 44 33 46 33 128 12z&#xA;m2780 -117 c270 -87 731 -87 973 1 l67 25 0 -47 c0 -86 -29 -279 -45 -305 -44&#xA;-67 -385 -135 -619 -123 -280 15 -507 82 -564 167 -26 39 -26 61 4 230 23 131&#xA;18 124 72 96 26 -13 76 -33 112 -44z m-3779 20 c47 -20 107 -55 132 -77 l47&#xA;-40 -39 -200 c-96 -491 -183 -817 -308 -1155 -100 -269 -276 -619 -339 -671&#xA;-8 -7 -20 -21 -26 -33 -8 -15 0 -12 30 12 52 42 78 73 145 175 141 214 297&#xA;612 415 1062 60 228 117 488 149 678 14 89 20 106 33 101 8 -4 37 -13 64 -20&#xA;27 -8 51 -15 53 -18 2 -2 -16 -118 -41 -257 -24 -140 -56 -330 -70 -424 -14&#xA;-93 -42 -276 -62 -405 -45 -286 -50 -351 -34 -390 16 -38 66 -83 128 -114 111&#xA;-56 389 -123 592 -144 l75 -7 0 -95 0 -95 -55 -6 c-30 -4 -134 -14 -230 -24&#xA;-149 -14 -205 -25 -373 -71 -229 -63 -446 -108 -602 -125 -187 -20 -404 5&#xA;-483 55 -90 56 -106 112 -68 231 30 95 68 160 181 315 46 63 106 158 134 210&#xA;150 289 306 806 416 1380 9 47 21 109 26 138 6 28 13 52 17 52 4 0 46 -17 93&#xA;-38z m560 -196 c79 -44 243 -90 429 -120 19 -3 46 -8 60 -11 14 -3 59 -8 102&#xA;-11 75 -7 77 -7 113 -51 21 -25 50 -52 65 -61 l27 -17 -42 -211 c-72 -359&#xA;-133 -522 -231 -619 -97 -95 -206 -132 -363 -122 -150 9 -387 79 -458 135&#xA;l-22 17 25 160 c29 188 82 500 127 745 l32 175 40 6 c22 3 43 7 46 8 4 0 26&#xA;-10 50 -23z m2970 -115 l16 -38 -44 -69 c-127 -198 -183 -402 -137 -500 48&#xA;-100 185 -132 262 -61 l22 21 -7 -50 c-5 -27 -8 -94 -8 -149 0 -92 2 -104 28&#xA;-148 45 -76 117 -102 199 -73 31 11 40 11 48 1 23 -27 100 -55 153 -55 50 0&#xA;85 12 145 50 20 13 24 13 32 0 19 -29 9 -37 -67 -58 -43 -12 -112 -31 -153&#xA;-43 -408 -114 -964 -178 -1300 -149 -226 19 -341 49 -445 115 -177 113 -286&#xA;372 -339 805 -25 200 -24 218 4 237 14 9 35 25 46 35 20 18 42 20 260 23 207&#xA;3 440 16 539 30 17 2 75 9 130 15 124 13 306 43 445 75 148 33 152 33 171 -14z&#xA;m115 -105 c250 -122 634 -151 951 -72 78 20 93 21 97 9 10 -25 6 -304 -4 -370&#xA;-17 -102 -48 -188 -93 -254 -54 -80 -70 -86 -46 -17 21 60 24 154 8 211 -6 22&#xA;-13 37 -15 34 -3 -2 -9 -45 -14 -95 -23 -217 -150 -396 -253 -356 -12 4 -11&#xA;12 8 47 54 97 108 381 77 401 -7 4 -14 -4 -18 -21 -87 -380 -144 -473 -292&#xA;-473 -29 0 -59 8 -79 20 l-33 19 31 47 c18 25 42 76 55 112 24 71 50 241 41&#xA;267 -12 31 -25 13 -37 -52 -16 -85 -53 -210 -75 -254 -56 -110 -165 -154 -225&#xA;-89 -56 60 -60 133 -25 431 17 145 18 179 6 179 -5 0 -24 -44 -42 -97 -44&#xA;-135 -76 -172 -147 -173 -161 -1 -156 203 12 508 22 39 40 72 41 72 1 0 32&#xA;-15 71 -34z m-2082 -105 l29 -1 -7 -249 c-10 -386 -31 -603 -72 -766 -44 -171&#xA;-164 -275 -357 -312 -265 -50 -873 73 -951 192 -21 31 -20 52 4 193 32 183 23&#xA;168 78 125 179 -138 539 -180 717 -85 76 41 175 145 213 224 60 124 117 336&#xA;167 618 l17 96 66 -17 c37 -10 80 -18 96 -18z m314 -121 c22 -257 100 -567&#xA;178 -709 112 -203 279 -298 583 -331 140 -16 495 -13 646 5 72 8 153 18 180&#xA;21 192 22 464 80 663 140 63 19 117 33 119 30 6 -6 32 -217 33 -263 0 -26 -6&#xA;-35 -42 -56 -69 -39 -261 -101 -412 -132 -541 -110 -1178 -110 -1656 -1 -141&#xA;32 -208 59 -279 111 -146 108 -221 301 -251 655 -13 151 -1 619 16 639 2 2 32&#xA;6 66 8 35 3 79 8 98 13 19 4 37 8 40 9 3 1 11 -62 18 -139z m2715 -629 c12&#xA;-115 137 -556 190 -671 47 -101 135 -228 212 -307 l82 -83 -36 -7 c-20 -3&#xA;-130 -7 -246 -7 -205 -1 -212 0 -284 27 -99 36 -184 93 -263 175 -58 60 -138&#xA;182 -138 209 0 6 11 14 25 17 58 15 174 76 190 100 16 24 16 35 1 168 -8 79&#xA;-17 168 -18 199 l-3 56 42 12 c46 12 113 66 140 112 10 16 24 29 33 29 9 0 25&#xA;7 36 15 10 8 22 15 25 15 3 0 9 -26 12 -59z m-2929 -338 c47 -140 145 -264&#xA;251 -315 l46 -22 -3 -56 -3 -55 -100 -18 c-55 -10 -176 -20 -270 -23 -141 -5&#xA;-193 -2 -305 15 -221 33 -274 55 -289 122 l-8 36 55 2 c86 3 223 36 293 71 78&#xA;40 164 120 196 184 26 50 72 218 74 265 0 14 9 -8 18 -49 10 -41 30 -112 45&#xA;-157z m2406 -360 c0 -29 74 -156 123 -209 l49 -54 -53 0 c-30 0 -106 -6 -169&#xA;-14 -63 -8 -171 -16 -240 -18 l-125 -3 -7 45 c-3 25 -7 77 -7 117 l-1 71 73&#xA;12 c39 6 133 26 207 44 74 18 138 31 143 29 4 -2 7 -11 7 -20z m-1925 -33 c44&#xA;-10 131 -27 193 -36 127 -20 116 -10 127 -126 l7 -68 -119 0 c-105 0 -319 23&#xA;-331 34 -2 3 -1 55 3 116 6 97 9 110 24 105 9 -4 52 -15 96 -25z m1449 -82&#xA;c-1 -24 -2 -51 -3 -61 -1 -22 -78 -59 -187 -89 -70 -19 -104 -22 -309 -22&#xA;-244 0 -352 12 -501 55 l-71 21 -6 56 c-3 31 -5 58 -3 59 2 2 70 -2 152 -8&#xA;174 -13 613 -5 774 15 167 21 156 23 154 -26z m-2533 -2 c73 -33 183 -54 320&#xA;-61 63 -4 134 -8 159 -9 92 -6 294 15 396 40 20 5 21 2 27 -183 4 -103 4 -198&#xA;1 -210 -10 -37 -305 -163 -522 -223 -291 -80 -631 -130 -877 -130 -207 0 -295&#xA;26 -319 93 -31 87 147 244 429 378 138 65 161 69 279 44 86 -18 179 -61 263&#xA;-121 96 -69 98 -36 3 49 -62 56 -156 102 -257 126 l-76 18 30 21 c37 26 84&#xA;111 86 157 1 19 3 35 3 35 1 0 26 -11 55 -24z m2539 -221 c0 -33 7 -107 15&#xA;-165 18 -121 22 -211 11 -228 -11 -18 -101 -82 -183 -130 -301 -177 -910 -340&#xA;-1188 -318 -110 8 -153 22 -193 62 -33 33 -34 37 -30 93 6 89 47 161 153 267&#xA;49 50 123 117 163 149 l73 58 87 0 c149 -1 327 -54 456 -137 32 -20 60 -35 63&#xA;-32 10 9 -31 57 -79 92 -27 20 -80 49 -118 65 -66 28 -224 59 -302 59 l-37 0&#xA;14 34 c8 19 16 73 17 119 l2 85 55 -20 c121 -42 283 -61 501 -62 226 0 346 18&#xA;452 66 36 17 55 21 60 14 4 -6 8 -38 8 -71z"/>
    <path d="M4565 9147 c-136 -62 -206 -258 -161 -450 27 -115 96 -177 196 -177&#xA;141 0 239 144 228 334 -8 128 -55 234 -122 276 -43 26 -104 33 -141 17z m103&#xA;-61 c86 -45 132 -231 90 -366 -49 -162 -211 -202 -278 -69 -52 102 -46 251 14&#xA;351 51 86 113 116 174 84z"/>
    <path d="M4051 8004 c-139 -37 -256 -152 -236 -231 8 -32 34 -29 109 11 102&#xA;55 188 78 286 75 112 -2 107 -3 115 31 10 43 -2 68 -47 101 -36 25 -49 29&#xA;-107 28 -36 0 -90 -7 -120 -15z"/>
    <path d="M4903 7979 c-41 -12 -83 -62 -83 -100 0 -44 30 -58 130 -57 68 1 98&#xA;-4 152 -25 63 -24 179 -95 193 -117 3 -5 17 -10 30 -10 61 0 28 129 -50 198&#xA;-110 97 -263 143 -372 111z"/>
    <path d="M4043 7634 c-104 -38 -183 -150 -191 -268 -8 -125 38 -223 127 -274&#xA;l50 -28 -24 -35 c-14 -19 -30 -57 -37 -86 l-12 -51 -48 -5 c-26 -3 -80 -21&#xA;-120 -40 -167 -78 -252 -216 -204 -332 18 -43 50 -63 112 -71 36 -5 59 -16 86&#xA;-40 45 -40 121 -64 206 -64 57 0 68 -3 98 -30 77 -67 186 -100 336 -100 123 0&#xA;229 22 323 69 44 22 105 47 136 56 57 16 131 58 163 94 15 16 22 17 57 8 51&#xA;-12 106 3 140 39 35 38 34 122 -4 186 -71 122 -222 198 -390 198 -112 0 -136&#xA;-8 -158 -52 -62 -122 -202 -198 -364 -198 -169 0 -296 104 -312 254 -10 95 49&#xA;185 157 241 50 26 172 32 242 11 31 -9 64 -16 73 -16 27 0 12 23 -29 45 -21&#xA;11 -38 22 -38 25 0 3 8 32 17 65 22 73 16 183 -13 248 -23 51 -85 117 -134&#xA;143 -46 24 -188 29 -245 8z m223 -58 c87 -40 134 -126 133 -240 0 -33 -8 -81&#xA;-17 -106 l-18 -45 -64 -2 c-71 -3 -110 -13 -189 -52 l-53 -25 -47 25 c-69 39&#xA;-105 102 -109 194 -5 81 13 134 64 194 66 79 199 104 300 57z m-296 -766 c0&#xA;-60 91 -174 173 -216 109 -56 326 -47 437 19 55 32 110 88 136 140 l24 47 88&#xA;0 c135 0 231 -33 313 -107 98 -89 105 -203 12 -203 -35 0 -175 59 -187 79 -9&#xA;14 -46 14 -46 0 0 -7 20 -32 45 -57 25 -24 45 -46 45 -48 0 -11 -118 -67 -170&#xA;-80 -103 -26 -225 -3 -321 61 -44 29 -49 30 -49 12 0 -40 149 -136 215 -138&#xA;l30 -1 -32 -14 c-94 -41 -311 -51 -435 -19 -63 16 -138 51 -138 64 0 4 18 16&#xA;39 26 44 19 111 76 111 94 0 19 -36 12 -76 -15 -60 -41 -109 -54 -203 -54 -74&#xA;0 -95 4 -140 26 l-52 26 30 19 c31 18 68 66 59 75 -3 2 -28 -7 -55 -21 -98&#xA;-51 -203 -27 -203 47 0 117 167 252 318 257 26 1 32 -3 32 -19z"/>
    <path d="M4139 7391 c-25 -25 -29 -37 -29 -84 0 -91 57 -141 126 -112 40 16&#xA;67 69 60 113 -2 15 -5 32 -5 39 -1 6 -13 25 -27 42 -35 42 -84 43 -125 2z"/>
    <path d="M4856 7605 c-78 -30 -134 -83 -174 -165 -23 -47 -27 -68 -27 -145 0&#xA;-78 4 -97 28 -147 78 -159 248 -218 407 -141 116 56 180 161 180 292 0 187&#xA;-116 310 -299 318 -50 2 -89 -2 -115 -12z m193 -51 c134 -39 205 -193 160&#xA;-345 -20 -67 -109 -153 -178 -173 -68 -20 -84 -20 -152 0 -102 30 -179 140&#xA;-179 254 0 85 26 150 84 205 75 74 155 92 265 59z"/>
    <path d="M4948 7351 c-81 -64 -69 -194 20 -216 85 -21 154 103 107 194 -23 46&#xA;-83 56 -127 22z"/>
    <path d="M6303 7139 c-53 -26 -88 -66 -125 -144 -27 -58 -38 -138 -20 -149 4&#xA;-2 14 15 21 40 7 24 17 44 21 44 17 0 64 -46 76 -76 21 -49 17 -102 -11 -161&#xA;-28 -62 -13 -73 29 -23 70 84 54 231 -32 285 -17 11 -31 26 -32 34 0 8 22 36&#xA;50 64 49 49 51 49 100 45 55 -6 82 -24 100 -69 16 -38 30 -37 30 2 0 44 -29&#xA;88 -72 110 -48 25 -83 24 -135 -2z"/>
    <path d="M2950 5774 c0 -20 7 -51 16 -70 18 -38 87 -101 92 -84 4 12 -90 190&#xA;-100 190 -5 0 -8 -16 -8 -36z"/>
    <path d="M3432 5250 c10 -30 201 -160 215 -146 13 13 -34 61 -105 107 -72 46&#xA;-118 62 -110 39z"/>
    <path d="M6880 5713 c-76 -6 -148 -27 -224 -66 -44 -23 -74 -43 -68 -45 7 -2&#xA;80 12 164 32 84 19 177 38 206 42 28 4 52 10 52 15 0 5 -3 9 -7 9 -5 1 -26 4&#xA;-48 8 -22 4 -56 6 -75 5z"/>
    <path d="M6105 5446 c-69 -22 -165 -76 -211 -118 -24 -22 -44 -44 -44 -48 0&#xA;-5 26 5 58 20 31 16 118 54 192 85 74 31 139 60 145 66 14 14 -92 10 -140 -5z"/>
    <path d="M5178 5081 c-36 -10 -86 -30 -111 -44 -43 -25 -74 -54 -66 -61 8 -7&#xA;271 75 317 99 l47 24 -60 0 c-33 0 -90 -8 -127 -18z"/>
    <path d="M4094 5116 c-29 -13 -64 -40 -82 -64 -135 -171 -33 -403 177 -402 71&#xA;0 125 25 174 80 53 58 77 114 77 180 0 103 -50 170 -155 209 -72 27 -128 26&#xA;-191 -3z m149 -40 c92 -28 141 -84 139 -162 0 -41 -30 -112 -61 -148 -29 -33&#xA;-88 -56 -144 -56 -44 0 -62 5 -96 31 -46 33 -80 95 -81 144 0 38 40 123 71&#xA;152 26 24 85 52 110 53 9 0 36 -6 62 -14z"/>
    <path d="M7380 2802 c0 -29 7 -98 15 -155 62 -421 243 -906 385 -1032 28 -25&#xA;29 -26 -47 120 -115 226 -196 465 -268 790 -46 212 -71 314 -79 322 -3 4 -6&#xA;-17 -6 -45z"/>
    <path d="M3961 3637 c-32 -6 -56 -21 -90 -55 -56 -56 -75 -113 -69 -202 5 -73&#xA;40 -123 110 -158 57 -29 200 -41 268 -22 56 15 114 72 129 125 16 59 14 152&#xA;-6 192 -39 83 -216 146 -342 120z m152 -63 c130 -30 180 -110 141 -224 -17&#xA;-48 -25 -58 -64 -77 -89 -46 -256 -23 -305 41 -61 80 -33 201 59 257 38 23 76&#xA;24 169 3z"/>
  </g>
  <title>Król w koronie i pelerynie</title>
  <desc>Dobrotliwy król w koronie i długiej, królewskiej pelerynie. Rządzi swoim królestwem sprawiedliwie. Dzieci mogą ozdobić jego strój złotymi i purpurowymi kolorami.</desc>
</svg>