<?xml version="1.0" standalone="no"?>
<!DOCTYPE svg PUBLIC "-//W3C//DTD SVG 20010904//EN"
 "http://www.w3.org/TR/2001/REC-SVG-20010904/DTD/svg10.dtd">
<svg version="1.0" xmlns="http://www.w3.org/2000/svg"
 width="1024.000000pt" height="1024.000000pt" viewBox="0 0 1024.000000 1024.000000"
 preserveAspectRatio="xMidYMid meet">
<metadata>
Created by potrace 1.16, written by Peter Selinger 2001-2019
</metadata>
<g transform="translate(0.000000,1024.000000) scale(0.100000,-0.100000)"
fill="#000000" stroke="none">
<path d="M1080 9762 c-39 -39 -52 -88 -57 -218 -6 -135 7 -227 52 -360 72
-217 211 -445 379 -624 23 -25 46 -51 51 -59 17 -29 -145 93 -339 254 -299
248 -304 251 -345 199 -67 -85 -44 -331 54 -569 99 -241 253 -420 508 -588 59
-40 104 -73 100 -74 -9 -3 -74 19 -381 126 -96 34 -182 61 -193 61 -10 0 -29
-10 -40 -21 -19 -19 -21 -30 -17 -103 8 -145 86 -292 243 -455 169 -175 320
-254 665 -348 30 -8 17 -11 -95 -21 -71 -7 -205 -15 -297 -20 -195 -9 -208
-14 -208 -90 0 -90 77 -194 219 -296 159 -114 355 -175 577 -179 63 -1 114 -3
114 -5 0 -1 -65 -34 -144 -73 -79 -39 -158 -84 -175 -99 -89 -81 16 -221 214
-287 71 -24 95 -27 215 -27 102 1 158 6 230 22 52 12 98 22 102 22 4 0 -46
-47 -111 -105 -152 -134 -171 -157 -171 -204 0 -46 19 -74 73 -105 62 -37 150
-56 257 -57 112 -1 203 19 309 67 41 19 75 33 76 32 2 -2 -29 -50 -67 -108
-84 -127 -107 -175 -108 -217 0 -86 48 -118 175 -118 117 1 243 41 338 107
l27 19 0 -58 c1 -106 51 -173 129 -173 37 0 126 33 151 55 18 16 21 12 69 -91
78 -164 168 -291 308 -434 l123 -125 0 -90 c0 -122 20 -200 85 -332 46 -91 70
-127 139 -200 l84 -89 -31 -70 c-56 -122 -135 -270 -153 -285 -13 -10 -61 -16
-193 -20 -193 -7 -236 -17 -324 -78 -116 -79 -173 -249 -132 -388 20 -69 91
-143 135 -143 26 0 34 6 43 29 l11 29 21 -47 c27 -56 73 -98 120 -107 44 -8
65 8 65 50 0 17 5 49 11 71 l11 39 19 -39 c26 -55 82 -102 131 -110 53 -9 61
1 81 104 19 99 65 199 108 235 35 30 90 34 143 12 l34 -14 -19 -68 c-23 -83
-24 -134 -4 -202 26 -87 118 -164 163 -136 8 5 22 41 32 79 10 39 27 94 39
122 35 88 96 170 69 92 -6 -17 -8 -66 -6 -109 5 -94 36 -154 107 -208 36 -27
51 -32 85 -30 l40 3 12 95 c24 192 99 312 218 350 58 19 119 7 185 -34 77 -47
104 -47 135 2 29 44 41 98 32 147 -14 75 -124 155 -212 155 l-42 0 13 38 c17
48 83 200 147 334 49 103 53 108 82 108 38 0 89 30 112 65 10 15 25 50 34 78
l17 51 26 -44 c132 -227 179 -542 116 -788 -39 -154 -102 -233 -368 -463 -206
-177 -288 -285 -350 -463 -40 -113 -61 -234 -61 -349 0 -163 31 -270 73 -254
10 4 39 54 67 113 95 202 177 290 497 530 109 82 238 189 288 239 186 187 278
370 301 600 18 184 39 83 39 -190 0 -268 -19 -334 -205 -710 -137 -276 -160
-345 -167 -490 -6 -124 5 -193 42 -271 37 -77 76 -81 89 -10 9 46 43 117 94
196 20 30 154 174 297 320 277 281 334 353 414 520 137 285 132 657 -12 993
-24 56 -62 133 -85 170 -22 37 -37 67 -33 67 22 0 222 -229 294 -338 167 -250
240 -470 255 -767 7 -147 7 -150 30 -153 69 -10 189 208 228 413 19 105 15
285 -10 399 -55 247 -170 458 -354 648 -147 152 -299 252 -622 409 -123 61
-261 135 -306 164 -182 122 -310 274 -419 500 -64 133 -120 277 -113 294 1 5
36 -15 77 -45 169 -124 312 -185 439 -188 82 -1 84 -1 113 32 25 27 29 41 29
88 0 30 -5 64 -10 75 -13 24 -5 24 28 0 130 -91 384 -155 485 -122 108 36 124
113 47 228 -17 25 -29 47 -28 49 2 2 39 -8 82 -22 208 -66 427 -54 579 32 87
48 114 102 83 162 -17 33 -112 124 -184 176 -29 21 -52 40 -50 41 2 2 30 -3
63 -11 87 -21 257 -29 345 -15 175 27 346 114 417 212 76 106 50 146 -145 234
-180 81 -184 85 -92 85 91 0 248 23 349 50 286 79 531 284 531 446 0 67 -51
95 -200 108 -95 9 -304 35 -350 43 -31 6 -26 8 45 19 396 63 720 295 876 628
67 144 78 261 27 299 -24 18 -31 18 -80 7 -29 -7 -118 -34 -198 -61 -80 -26
-188 -60 -240 -74 -52 -14 -103 -28 -112 -31 -10 -3 -18 -1 -18 5 0 6 5 11 10
11 19 0 185 105 282 177 318 239 537 609 555 934 6 114 2 149 -23 173 -24 24
-57 19 -110 -17 -54 -37 -328 -231 -411 -291 -29 -21 -53 -36 -53 -33 0 2 30
40 66 83 182 216 314 479 358 709 17 90 15 236 -3 304 -14 49 -50 91 -79 91
-12 0 -51 -36 -99 -92 -280 -323 -689 -649 -1131 -902 -174 -100 -295 -160
-527 -263 -512 -227 -778 -436 -845 -663 -11 -36 -29 -139 -40 -230 -67 -538
-234 -843 -595 -1085 -78 -52 -236 -136 -284 -150 l-23 -7 8 133 c12 183 9
604 -4 659 -6 24 -9 46 -7 48 1 2 26 -8 55 -23 32 -16 64 -25 83 -23 l32 3 -2
80 c-3 105 -57 320 -124 485 -86 215 -197 391 -347 551 -40 42 -72 79 -72 82
0 3 17 8 38 12 94 17 193 101 240 203 43 94 40 192 -6 192 -9 0 -48 -21 -85
-46 -75 -50 -226 -128 -234 -121 -2 3 11 15 29 27 138 95 208 232 208 411 0
84 -20 163 -57 227 -29 49 -120 132 -145 132 -28 0 -46 -39 -53 -115 -20 -199
-94 -372 -208 -490 -72 -73 -77 -72 -20 7 132 183 113 410 -49 583 -61 66
-164 127 -235 141 -48 9 -59 -19 -34 -93 22 -64 41 -189 41 -261 0 -79 -28
-183 -71 -272 -34 -70 -58 -101 -133 -175 l-91 -90 -155 -64 c-186 -76 -290
-142 -387 -245 -40 -42 -78 -76 -86 -76 -18 0 -47 -32 -47 -53 0 -9 9 -21 20
-27 32 -17 26 -61 -14 -104 -19 -20 -50 -66 -68 -103 -29 -59 -33 -77 -33
-146 l0 -77 -40 -11 c-174 -45 -273 -134 -332 -297 -57 -156 -30 -389 58 -513
35 -49 61 -40 125 46 107 145 207 190 417 189 76 0 131 -4 138 -11 8 -8 3 -38
-15 -106 -41 -155 -98 -253 -178 -303 -79 -50 -24 -110 107 -115 31 -1 58 -5
60 -9 7 -12 -106 -140 -129 -146 -51 -12 -250 86 -375 186 -117 94 -236 241
-286 354 -52 119 -88 322 -100 571 -13 274 -17 334 -32 404 -24 124 -58 193
-130 270 -116 127 -224 201 -503 351 -615 329 -885 549 -1253 1021 -93 119
-122 149 -144 149 -2 0 -17 -13 -33 -28z m136 -165 c267 -342 526 -585 839
-785 66 -42 233 -139 370 -215 305 -170 430 -251 516 -337 109 -110 142 -200
159 -443 6 -84 15 -218 21 -299 21 -308 72 -482 197 -664 121 -178 346 -355
525 -413 20 -7 36 -16 36 -19 -1 -4 -41 -45 -90 -91 l-89 -84 -42 12 c-128 38
-312 160 -407 269 -214 243 -314 489 -366 902 -45 359 -101 530 -220 667 -59
70 -268 196 -289 176 -13 -14 -2 -24 82 -74 199 -120 291 -266 336 -529 17
-105 19 -114 41 -285 58 -449 231 -799 499 -1012 85 -67 232 -148 291 -159 19
-3 35 -8 35 -11 0 -3 -20 -37 -45 -77 -91 -146 -154 -315 -141 -379 9 -43 43
-77 78 -77 15 0 28 -1 28 -2 0 -2 -7 -39 -15 -83 -17 -95 -13 -253 9 -369 18
-90 16 -94 -48 -125 -81 -40 -154 -18 -158 47 -4 68 5 104 51 199 27 56 48
103 46 105 -2 2 -42 -32 -87 -77 -63 -61 -104 -91 -169 -123 -165 -82 -342
-96 -383 -30 -17 28 8 80 116 241 98 148 168 273 168 301 0 9 -31 -16 -69 -53
-69 -69 -151 -118 -264 -155 -121 -40 -302 -45 -399 -11 -47 16 -108 63 -108
83 0 20 48 68 233 231 190 167 268 241 254 241 -5 0 -50 -20 -101 -45 -252
-123 -562 -143 -745 -50 -61 30 -117 78 -136 115 -13 25 -12 29 8 48 12 11
149 81 304 155 263 126 350 173 340 184 -3 2 -47 -7 -98 -21 -253 -67 -515
-59 -725 23 -176 69 -345 206 -379 309 -10 31 -13 58 -8 63 4 4 100 13 213 19
112 6 242 15 290 20 47 5 157 16 245 25 174 18 220 26 220 41 0 5 -49 12 -110
16 -194 11 -440 73 -627 156 -221 100 -417 298 -505 510 -30 72 -49 170 -36
183 7 7 62 -8 166 -45 219 -78 356 -119 627 -185 239 -59 368 -82 356 -63 -3
5 -39 20 -78 32 -326 97 -581 242 -789 450 -129 128 -186 211 -249 362 -64
153 -93 275 -94 396 -1 146 7 151 109 65 201 -168 409 -331 510 -398 125 -83
478 -290 513 -300 47 -14 17 14 -125 117 -312 224 -576 551 -702 870 -75 190
-96 428 -49 550 6 15 14 26 18 23 5 -3 48 -56 96 -118z m8093 59 c24 -98 8
-266 -39 -406 -61 -181 -165 -359 -327 -560 -184 -229 -268 -294 -616 -475
-78 -41 -99 -61 -50 -49 52 13 208 85 308 141 134 76 545 344 791 517 51 36
95 62 98 59 11 -12 6 -130 -9 -210 -97 -512 -558 -956 -1172 -1129 -57 -16
-103 -32 -103 -36 0 -22 167 0 439 58 187 40 285 66 486 129 77 24 154 45 170
47 30 3 30 3 27 -42 -4 -71 -48 -189 -104 -281 -58 -96 -210 -254 -299 -312
-205 -133 -430 -197 -809 -227 -74 -6 -136 -13 -138 -15 -16 -16 302 -66 638
-100 283 -29 301 -35 280 -101 -66 -203 -406 -386 -762 -410 -100 -7 -302 15
-392 41 -49 15 -68 13 -50 -5 8 -8 573 -295 596 -302 21 -7 -8 -65 -54 -110
-64 -62 -187 -122 -298 -144 -65 -13 -114 -15 -210 -11 -154 7 -252 31 -382
96 -54 26 -98 43 -98 37 0 -16 146 -154 263 -248 181 -147 199 -174 149 -219
-33 -30 -121 -65 -196 -80 -116 -22 -285 -6 -416 39 -59 21 -194 87 -247 123
-18 11 -33 17 -33 12 0 -5 29 -43 64 -86 125 -150 166 -216 166 -266 0 -24 -6
-31 -31 -40 -104 -36 -331 27 -515 143 -32 21 -71 50 -86 64 -15 14 -31 22
-35 19 -3 -4 8 -40 25 -80 36 -83 56 -162 47 -194 -17 -71 -241 -19 -419 98
-97 64 -248 207 -294 279 -61 94 -56 4 4 -96 25 -40 44 -91 60 -159 62 -267
188 -500 365 -672 125 -121 217 -178 539 -336 230 -113 350 -187 470 -289 290
-249 452 -580 452 -923 -1 -146 -31 -276 -93 -401 -62 -125 -69 -126 -69 -8 0
258 -88 520 -261 779 -164 245 -345 406 -794 705 -202 134 -262 180 -335 254
-55 57 -70 66 -70 43 0 -48 133 -170 332 -303 304 -202 382 -272 476 -426 103
-169 188 -386 212 -543 16 -101 16 -301 1 -384 -17 -90 -64 -221 -106 -298
-69 -126 -130 -199 -362 -433 -128 -129 -258 -269 -289 -310 -65 -88 -114
-171 -114 -194 0 -30 -17 -16 -28 23 -54 178 -7 377 159 681 155 285 207 488
196 765 -13 314 -119 599 -349 940 -153 227 -209 299 -235 303 -41 6 -26 -26
66 -147 185 -243 295 -430 346 -591 54 -170 43 -412 -26 -591 -78 -203 -224
-363 -564 -619 -277 -208 -364 -300 -448 -469 l-42 -85 -8 75 c-16 144 24 357
97 513 51 111 137 208 331 376 190 165 260 241 305 335 54 113 64 173 64 365
-1 248 -35 383 -144 580 -58 103 -60 109 -60 181 0 41 -5 106 -11 144 -10 72
-70 260 -89 279 -17 17 -12 -58 9 -142 47 -184 47 -393 0 -502 -24 -56 -42
-70 -88 -70 -49 0 -92 55 -106 135 -4 22 -10 44 -13 49 -9 16 -22 -20 -22 -65
0 -85 -33 -149 -77 -149 -51 0 -166 103 -240 215 -79 118 -132 250 -163 400
-16 78 -24 89 -30 40 -8 -65 7 -167 37 -259 25 -75 27 -86 13 -86 -30 0 -243
67 -335 104 -217 90 -447 247 -631 430 -273 274 -407 594 -391 940 3 67 10
132 15 147 5 14 28 37 50 52 22 14 70 54 106 88 36 34 66 57 66 53 0 -5 -7
-41 -15 -79 -18 -88 -19 -220 -1 -306 36 -170 163 -319 270 -319 44 0 72 35
111 140 30 82 154 330 164 330 4 0 12 -21 19 -46 39 -144 165 -139 301 12 61
68 192 262 242 358 19 36 37 66 40 66 4 0 10 -11 13 -24 3 -13 22 -38 43 -56
31 -28 42 -32 78 -27 59 6 123 53 183 134 50 68 132 217 132 241 0 22 14 13
43 -28 38 -54 104 -92 163 -93 55 0 69 14 79 76 13 91 16 97 38 97 54 0 277
119 406 216 89 67 220 202 280 288 71 103 142 257 185 397 31 103 48 200 96
534 22 153 131 290 340 430 105 69 437 245 540 285 75 29 363 174 485 244 141
81 453 290 571 382 159 123 308 259 474 431 85 89 158 159 161 157 4 -2 12
-24 18 -48z m-4434 -199 c91 -46 194 -190 214 -302 28 -152 -33 -298 -188
-450 -77 -75 -89 -99 -43 -89 113 24 279 153 363 282 73 111 129 285 129 400
0 28 4 52 9 52 16 0 90 -88 107 -127 10 -24 18 -77 22 -146 4 -94 2 -115 -18
-170 -28 -78 -68 -136 -123 -180 -57 -47 -185 -117 -284 -158 -46 -19 -83 -37
-83 -41 0 -22 253 15 369 53 67 22 181 82 229 120 l27 21 3 -25 c6 -45 -37
-124 -94 -176 -64 -59 -120 -80 -232 -88 -45 -3 -81 -9 -80 -13 2 -4 38 -35
80 -69 184 -148 335 -363 443 -631 62 -153 151 -501 128 -500 -11 1 -69 45
-137 104 -31 27 -59 46 -63 42 -4 -3 1 -30 9 -59 9 -28 21 -85 28 -126 13 -91
14 -431 1 -566 -6 -55 -13 -161 -17 -235 -3 -74 -10 -143 -15 -152 -31 -58
-165 41 -200 147 -20 60 -24 60 -44 8 -10 -26 -40 -92 -68 -146 -100 -198
-204 -301 -268 -267 -29 16 -58 86 -65 159 -4 34 -10 61 -13 61 -3 0 -36 -62
-73 -138 -86 -176 -192 -337 -287 -434 -103 -105 -144 -113 -184 -37 -16 29
-17 50 -12 149 5 100 4 113 -9 97 -37 -47 -194 -343 -242 -455 -30 -70 -58
-134 -63 -142 -26 -47 -112 -1 -172 93 -60 92 -84 180 -84 307 1 125 24 219
86 341 22 45 38 83 35 86 -3 3 -55 -44 -115 -104 -154 -153 -308 -259 -343
-237 -24 15 -2 138 42 237 64 147 123 223 330 427 103 102 200 204 215 227 22
34 37 45 80 58 111 35 288 169 460 347 127 131 163 181 172 232 12 74 -33 107
-192 141 -138 30 -165 51 -275 215 -62 92 -83 109 -157 129 l-42 12 24 35 c31
46 39 89 32 172 -4 52 -2 71 10 84 8 9 18 38 20 63 5 36 3 45 -10 45 -9 0 -20
-8 -25 -17 -9 -14 -15 -12 -53 21 -42 36 -163 100 -204 109 -17 3 -7 17 60 84
91 90 181 147 317 199 231 88 383 232 465 440 26 65 27 78 27 229 0 136 -3
170 -21 223 l-21 63 21 -7 c12 -4 40 -16 62 -27z m-905 -1277 c12 -8 9 -10
-12 -10 -16 0 -28 5 -28 10 0 13 20 13 40 0z m101 -95 c47 -31 108 -112 109
-143 0 -19 -3 -21 -19 -12 -30 15 -79 12 -113 -7 -38 -23 -68 -79 -61 -116 l5
-27 -80 0 c-44 0 -94 -3 -111 -6 l-31 -6 0 55 c0 113 64 229 150 274 54 28 96
25 151 -12z m-76 -376 c33 -5 103 -16 156 -23 52 -8 105 -20 116 -27 12 -7 43
-49 69 -93 91 -154 147 -197 313 -245 57 -16 111 -37 119 -45 25 -24 -27 -97
-172 -241 -198 -197 -339 -295 -473 -330 -96 -25 -240 -16 -208 13 6 5 37 19
70 32 172 66 329 173 465 317 63 66 95 92 136 109 75 30 157 85 146 96 -6 6
-44 -2 -100 -21 -98 -33 -220 -52 -292 -46 -267 22 -371 27 -455 22 -187 -11
-294 -70 -391 -217 -15 -22 -32 -39 -38 -37 -23 7 -68 169 -73 263 -6 103 6
172 45 249 39 79 61 105 122 145 115 73 295 106 445 79z m333 -559 l126 0 -30
-31 c-51 -54 -207 -176 -284 -223 -72 -43 -94 -51 -73 -24 22 27 64 165 70
226 l6 64 30 -6 c16 -3 86 -6 155 -6z m88 -2953 c106 -60 226 -114 319 -143
41 -13 60 -25 66 -42 12 -32 11 -112 -2 -153 -15 -43 -57 -89 -82 -89 -40 0
-86 40 -114 100 -15 32 -31 59 -35 59 -4 1 -5 -25 -2 -57 5 -41 2 -68 -9 -95
-27 -63 -63 -62 -146 3 -140 111 -253 332 -268 523 l-6 78 90 -64 c50 -35 135
-89 189 -120z m576 -207 c22 0 35 -11 69 -62 23 -35 74 -93 112 -130 l69 -68
-11 -47 c-24 -93 -163 -396 -195 -422 -8 -7 -55 -21 -103 -32 -88 -19 -238
-74 -249 -90 -8 -14 -24 -11 -24 5 0 26 -48 72 -109 105 l-60 32 20 47 c61
146 206 392 230 392 25 0 78 51 100 96 17 37 22 63 21 124 l-1 77 52 -14 c28
-7 64 -13 79 -13z m490 -234 c17 -24 16 -27 -51 -168 -97 -202 -174 -386 -166
-398 3 -5 36 -10 73 -10 153 -1 243 -102 186 -211 l-15 -30 -32 21 c-106 71
-205 83 -300 36 -121 -59 -217 -227 -217 -378 0 -57 -13 -61 -61 -21 -43 36
-79 116 -79 175 0 90 33 154 129 247 75 73 82 83 56 77 -47 -11 -131 -57 -189
-103 -74 -58 -150 -175 -183 -283 -14 -47 -27 -87 -29 -89 -7 -8 -36 24 -62
68 -22 38 -26 56 -26 116 2 180 118 286 405 370 68 20 134 43 146 51 43 27
189 341 209 447 5 30 10 37 23 31 9 -3 34 -8 57 -11 36 -5 45 -2 68 23 14 16
26 37 26 46 0 24 12 22 32 -6z m-838 -74 c-85 -125 -204 -368 -204 -417 0 -27
34 -55 65 -55 33 0 85 -38 99 -72 13 -31 13 -32 -38 -78 l-51 -48 -35 19 c-47
26 -135 25 -175 -1 -63 -42 -132 -180 -150 -303 l-7 -46 -37 18 c-66 35 -93
118 -72 223 18 84 59 141 142 194 39 25 68 48 65 51 -3 4 -34 -5 -68 -18 -101
-39 -144 -90 -206 -248 -29 -72 -56 -154 -60 -183 l-8 -53 -41 40 c-46 46 -63
92 -63 175 0 71 13 114 49 172 45 71 106 100 280 134 13 3 20 8 17 11 -8 8
-139 6 -181 -3 -54 -11 -113 -53 -153 -109 -38 -52 -44 -69 -76 -200 -8 -33
-19 -73 -26 -89 l-11 -29 -23 22 c-12 12 -33 42 -46 67 -19 39 -22 57 -18 123
8 132 76 226 197 272 45 17 89 23 226 28 170 8 204 15 233 50 7 9 41 72 76
141 110 218 104 210 155 210 38 0 49 5 80 38 l36 39 27 -19 27 -19 -25 -37z"/>
<path d="M7740 8271 c-342 -140 -469 -207 -573 -301 -113 -103 -163 -204 -203
-410 -60 -318 -88 -422 -160 -588 -84 -193 -192 -353 -342 -506 -131 -133
-241 -218 -480 -370 -66 -42 -41 -44 40 -3 244 120 529 370 679 595 158 236
218 401 308 840 44 211 71 282 142 365 81 95 267 203 509 297 74 29 167 65
205 80 91 36 101 29 85 -60 -33 -183 -153 -353 -320 -455 -67 -41 -207 -95
-245 -95 -15 0 -25 -6 -25 -14 0 -24 95 -29 282 -16 95 6 175 12 178 12 35 2
62 -5 66 -17 11 -29 -7 -84 -47 -145 -94 -140 -290 -242 -514 -268 -87 -10
-78 -16 95 -67 142 -42 193 -65 216 -100 15 -23 15 -27 -6 -59 -11 -19 -43
-55 -70 -79 -115 -103 -346 -170 -483 -138 -84 20 -45 -21 103 -105 47 -27
109 -72 139 -101 52 -50 53 -53 39 -75 -42 -64 -162 -125 -292 -148 -83 -14
-250 -12 -319 4 -31 7 -60 10 -62 5 -3 -4 30 -35 72 -67 192 -147 254 -256
184 -321 -36 -33 -83 -48 -181 -56 -112 -10 -214 16 -362 93 -24 12 -1 -30 51
-92 110 -134 147 -229 103 -269 -38 -35 -95 -50 -185 -49 -101 1 -177 22 -299
83 -44 22 -83 38 -86 34 -11 -10 60 -73 117 -103 99 -52 157 -67 266 -67 90 0
106 3 158 29 112 54 127 136 48 259 -13 20 -22 40 -19 43 3 2 25 0 49 -5 65
-15 187 -13 254 4 193 51 218 180 65 339 l-60 63 102 6 c190 11 323 61 407
152 33 35 41 52 41 81 0 33 -8 45 -62 99 -35 33 -79 73 -98 87 l-35 27 35 1
c48 0 171 35 229 64 117 60 211 165 211 236 0 63 -35 92 -190 157 -24 9 -21
11 34 27 143 42 273 135 346 248 67 103 73 194 15 232 -26 17 -119 20 -212 7
-29 -4 -53 -5 -53 -2 0 3 21 17 47 31 60 32 167 137 218 214 81 125 127 311
93 376 -23 43 -65 37 -248 -39z"/>
<path d="M4761 8280 c-40 -11 -138 -51 -218 -90 -80 -38 -146 -70 -147 -70 -1
0 -2 12 -1 28 0 39 -26 35 -47 -8 -19 -38 -24 -105 -8 -115 5 -3 32 6 61 20
28 15 53 25 54 23 2 -2 -10 -23 -26 -48 -82 -122 -80 -305 5 -424 85 -120 209
-173 342 -146 245 50 370 315 255 539 -42 82 -177 191 -236 191 -35 0 -2 18
55 30 77 16 182 8 240 -19 79 -37 105 -22 51 28 -76 71 -243 98 -380 61z m52
-156 c26 -9 70 -36 97 -61 146 -131 152 -356 14 -483 -68 -62 -124 -85 -214
-85 -58 0 -84 5 -117 23 -190 100 -239 355 -98 511 89 98 206 133 318 95z"/>
<path d="M4766 7920 c-89 -27 -135 -147 -86 -227 22 -37 41 -48 93 -58 70 -13
127 50 127 143 0 101 -59 164 -134 142z"/>
<path d="M4130 7535 c-16 -19 3 -45 32 -45 24 0 34 26 18 45 -16 19 -34 19
-50 0z"/>
<path d="M1634 5478 c-91 -96 -129 -205 -122 -351 5 -118 31 -175 129 -283 95
-105 114 -142 112 -226 -2 -80 9 -89 64 -49 55 40 102 97 132 161 22 47 26 69
26 145 0 113 -15 142 -126 260 -49 53 -90 107 -106 141 -22 49 -24 65 -21 152
3 92 2 97 -18 100 -14 2 -36 -14 -70 -50z m33 -100 c1 -103 30 -164 135 -275
50 -53 99 -115 109 -137 38 -85 12 -206 -61 -288 l-39 -43 -1 30 c-1 52 -46
131 -121 212 -40 43 -83 101 -97 131 -43 94 -40 219 7 322 16 34 60 110 65
110 1 0 2 -28 3 -62z"/>
<path d="M8393 5243 c-18 -7 -16 -30 7 -91 28 -74 27 -178 -4 -262 -14 -36
-36 -96 -50 -135 -30 -81 -33 -161 -11 -226 30 -83 72 -103 101 -46 9 17 54
69 99 114 100 99 136 164 143 261 12 167 -76 316 -222 377 -37 16 -43 17 -63
8z m137 -130 c66 -67 93 -143 88 -243 -6 -98 -23 -128 -132 -240 -66 -67 -92
-87 -98 -78 -19 27 -2 151 32 233 59 145 73 241 51 338 -12 50 1 48 59 -10z"/>
<path d="M2705 4831 c-121 -43 -226 -114 -331 -223 -166 -173 -244 -357 -244
-578 0 -123 20 -214 76 -348 88 -212 107 -308 85 -438 -20 -116 -71 -206 -170
-303 l-86 -85 -6 110 c-3 65 -12 127 -23 154 -43 112 -123 209 -246 296 -91
64 -141 114 -171 174 -34 65 -32 169 4 271 32 90 33 95 7 102 -63 16 -243
-200 -310 -375 -88 -228 -53 -433 107 -621 160 -189 200 -278 190 -426 -7
-100 -18 -145 -50 -191 -34 -50 -69 -72 -115 -72 -88 1 -140 54 -178 180 -32
109 -36 117 -63 117 -20 0 -28 -15 -62 -105 -103 -279 -114 -458 -39 -619 64
-136 153 -220 377 -358 139 -85 206 -146 300 -270 54 -72 70 -85 135 -117 82
-41 214 -73 339 -82 l84 -7 0 -52 c0 -83 52 -124 192 -151 153 -29 356 -14
453 34 44 22 59 36 75 70 19 40 22 42 55 38 159 -21 328 -27 460 -19 80 6 203
9 275 9 l129 -1 -3 -51 c-2 -43 2 -54 24 -77 41 -41 88 -52 215 -52 138 0 179
8 214 40 20 18 26 34 26 65 0 23 -4 49 -9 59 -9 17 5 18 252 17 280 0 308 4
328 48 28 60 -40 122 -250 231 -104 53 -141 78 -180 121 -78 85 -94 156 -66
284 44 198 -1 366 -130 496 -67 66 -143 114 -182 114 -25 0 -25 -1 -18 -57 18
-138 0 -206 -96 -371 -78 -133 -90 -168 -98 -273 l-6 -87 -117 124 c-138 147
-168 199 -168 291 0 35 9 96 20 135 59 213 -16 414 -213 570 -61 48 -83 49
-92 6 -3 -18 -8 -45 -11 -60 -7 -36 -36 -37 -90 -2 -124 80 -174 282 -124 492
24 101 27 278 6 379 -22 105 -64 211 -113 287 -24 38 -111 137 -193 221 -199
204 -230 265 -231 452 0 127 25 225 96 368 40 81 51 113 43 122 -13 16 -21 16
-83 -6z m-19 -105 c-50 -85 -87 -219 -93 -335 -7 -132 6 -204 53 -300 30 -61
62 -100 188 -230 201 -206 243 -271 288 -435 28 -103 35 -295 15 -421 -26
-160 -27 -166 -18 -251 14 -137 76 -241 172 -290 82 -41 131 -29 150 36 l12
39 43 -37 c68 -58 132 -150 154 -221 27 -85 27 -202 -1 -300 -27 -97 -22 -174
16 -255 20 -42 63 -95 159 -195 72 -75 149 -163 170 -196 22 -33 41 -62 43
-64 2 -3 8 0 14 6 7 7 7 29 -1 72 -6 33 -12 105 -12 158 -2 109 -4 105 120
333 57 106 82 188 82 267 0 52 1 53 22 42 44 -24 127 -117 157 -177 17 -34 36
-93 43 -131 11 -63 10 -83 -11 -190 -19 -101 -21 -127 -12 -170 30 -139 105
-217 307 -319 128 -65 204 -118 204 -141 0 -17 -80 -23 -328 -26 -230 -3 -249
-2 -274 16 -103 74 -236 77 -331 7 l-32 -23 -415 0 c-486 0 -508 3 -541 67
-67 132 -222 218 -367 205 -92 -9 -174 -51 -260 -131 l-70 -67 -64 6 c-291 29
-393 75 -503 230 -58 83 -125 139 -279 237 -236 150 -328 245 -375 386 -23 69
-28 200 -11 293 15 78 71 252 79 242 4 -4 15 -34 25 -67 19 -63 77 -136 129
-163 35 -17 110 -19 152 -3 98 37 160 177 157 355 -2 147 -36 220 -182 395
-122 146 -160 234 -160 370 0 102 20 175 80 296 44 87 125 202 150 212 5 2 2
-18 -6 -44 -8 -26 -14 -76 -14 -110 0 -129 63 -227 214 -333 111 -77 160 -131
209 -229 35 -72 41 -93 45 -165 2 -48 -3 -113 -11 -157 -9 -43 -12 -79 -6 -84
5 -6 28 9 57 35 27 24 80 72 119 106 39 35 92 94 118 133 69 103 87 164 93
300 5 134 -6 188 -73 350 -61 150 -84 231 -91 324 -23 289 144 572 442 751 79
48 92 46 60 -9z m118 -3536 c97 -37 174 -122 191 -212 6 -32 3 -41 -18 -61
-43 -39 -92 -49 -263 -54 -262 -8 -365 32 -346 133 8 46 134 165 202 191 73
28 162 29 234 3z m1483 -210 c55 -32 93 -76 93 -109 0 -37 -36 -46 -180 -46
-112 0 -141 3 -169 18 -30 17 -33 22 -28 54 7 44 27 66 81 92 63 32 138 28
203 -9z"/>
<path d="M2636 3511 c-4 -5 1 -35 9 -67 20 -76 19 -211 -1 -293 -24 -99 -84
-213 -175 -335 -283 -379 -332 -511 -282 -753 9 -45 14 -85 10 -89 -9 -9 -73
34 -115 77 -64 64 -112 190 -112 289 0 84 -59 32 -134 -117 -90 -180 -94 -361
-12 -528 44 -89 121 -174 226 -250 150 -108 179 -134 222 -197 47 -69 65 -61
28 12 -31 60 -92 123 -196 201 -154 116 -238 222 -270 343 -18 68 -18 208 1
279 16 62 70 177 83 177 5 0 14 -22 21 -49 27 -106 125 -231 215 -276 60 -30
92 -32 101 -7 3 11 -4 68 -16 128 -26 135 -22 237 15 342 36 105 53 131 281
432 73 96 118 177 147 265 19 58 23 91 23 194 l0 123 62 -67 c171 -187 197
-394 84 -652 -58 -133 -74 -194 -74 -273 0 -97 23 -175 83 -280 93 -164 92
-163 101 -306 9 -139 20 -184 63 -258 31 -53 109 -119 162 -136 49 -17 57 -5
43 60 -6 30 -9 79 -6 109 6 62 34 161 45 161 4 0 14 -38 23 -85 25 -125 49
-165 179 -300 135 -140 173 -186 201 -249 22 -50 49 -62 49 -21 0 58 -74 162
-215 302 -51 50 -104 111 -118 135 -36 60 -57 149 -57 239 0 98 -13 105 -70
38 -62 -73 -83 -129 -89 -238 l-6 -93 -53 56 c-79 83 -94 125 -102 286 -8 150
-19 187 -79 282 -70 111 -103 193 -109 268 -5 81 7 139 60 272 21 54 46 126
54 160 19 74 22 245 4 308 -29 107 -127 248 -246 354 -44 39 -50 41 -58 27z"/>
<path d="M7520 4700 c-12 -7 -14 -32 -11 -118 3 -124 -3 -151 -67 -312 -45
-112 -46 -118 -47 -225 0 -102 2 -114 28 -164 38 -72 115 -147 184 -178 69
-32 85 -25 95 43 4 27 32 101 62 164 66 136 86 209 86 305 0 162 -69 292 -220
419 -91 76 -92 77 -110 66z m207 -258 c91 -154 87 -342 -12 -505 -19 -32 -45
-86 -57 -121 l-22 -64 -41 28 c-102 70 -149 153 -148 260 0 64 7 87 89 310 20
55 29 100 32 168 l4 94 65 -64 c35 -34 76 -82 90 -106z"/>
<path d="M3355 4249 c-53 -49 -84 -123 -92 -220 -8 -89 22 -185 77 -254 22
-27 54 -69 72 -92 42 -56 68 -57 107 -3 69 95 66 197 -10 347 -33 67 -55 125
-62 170 -19 108 -26 112 -92 52z m101 -238 c57 -115 67 -181 38 -261 -10 -27
-20 -50 -23 -50 -6 1 -36 40 -98 127 -70 97 -74 242 -11 343 l21 35 13 -49 c7
-26 34 -92 60 -145z"/>
<path d="M8263 4164 c-3 -9 2 -38 11 -63 36 -94 49 -158 49 -251 2 -211 -74
-339 -286 -487 -161 -113 -242 -223 -284 -383 -26 -102 -24 -313 6 -475 27
-152 24 -259 -10 -352 -56 -150 -180 -256 -301 -257 -47 -1 -62 3 -80 22 -21
20 -23 32 -23 114 0 60 -4 93 -12 95 -6 2 -35 -8 -65 -23 -128 -65 -273 -207
-330 -324 -52 -109 -61 -160 -53 -299 8 -132 -3 -206 -37 -261 l-22 -35 -8 39
c-21 98 -139 253 -175 230 -13 -8 -17 -27 -18 -80 0 -57 -6 -79 -30 -123 -53
-97 -137 -151 -310 -201 -127 -37 -242 -93 -257 -126 -15 -33 -2 -70 29 -83
61 -25 149 -31 435 -27 l297 4 7 -33 c14 -74 77 -99 254 -99 117 0 141 2 182
21 74 34 99 87 73 154 -5 14 2 18 37 21 34 4 49 0 70 -18 49 -40 94 -49 248
-49 128 0 150 3 185 21 31 16 43 30 53 61 l13 41 107 6 c213 13 397 58 453
112 30 29 37 62 17 82 -14 14 -18 9 59 56 207 123 397 318 464 473 50 118 64
293 35 445 -26 135 -44 147 -105 66 -21 -29 -54 -67 -72 -85 -34 -32 -196
-143 -209 -143 -4 0 -5 13 -2 29 8 59 -18 230 -54 347 -92 298 -86 394 45 674
111 236 138 346 128 510 -8 114 -24 178 -70 273 -67 141 -164 244 -327 349
-79 51 -107 58 -117 32z m200 -162 c125 -106 191 -206 233 -351 24 -84 26
-104 22 -214 -6 -147 -22 -203 -118 -407 -108 -230 -130 -328 -110 -481 6 -46
26 -134 45 -195 55 -176 66 -238 66 -356 -1 -122 3 -128 63 -108 56 18 185
107 257 177 77 74 75 77 84 -73 9 -125 -13 -236 -66 -344 -35 -72 -59 -102
-148 -190 -136 -136 -271 -227 -423 -285 -62 -24 -114 -47 -115 -52 -5 -15 44
-33 74 -28 121 18 136 9 47 -32 -64 -29 -223 -58 -371 -68 l-102 -6 -35 38
c-81 91 -227 128 -345 88 -70 -23 -138 -90 -147 -144 -6 -37 -9 -40 -46 -46
-32 -6 -46 -3 -70 15 -16 12 -57 34 -91 51 -132 62 -294 20 -352 -92 l-14 -26
-248 -7 c-227 -6 -410 2 -457 20 -13 5 -14 9 -4 21 20 25 79 49 208 87 141 42
237 93 294 157 44 48 86 132 86 172 0 38 11 34 42 -16 27 -42 58 -141 58 -183
0 -24 23 -38 49 -29 22 7 76 90 97 150 15 42 18 79 16 227 -2 153 0 184 17
231 25 72 64 128 143 205 59 57 164 141 179 142 3 0 7 -21 8 -46 2 -59 25
-108 65 -137 47 -33 143 -31 217 6 121 59 226 213 250 368 12 81 8 152 -23
339 -15 96 -19 149 -14 225 15 253 76 364 280 508 132 93 177 136 225 212 56
89 82 172 88 285 5 88 -9 202 -33 263 -6 16 -4 16 27 -2 19 -11 60 -42 92 -69z
m-718 -2951 c81 -36 131 -127 88 -162 -26 -22 -328 -20 -369 3 -38 21 -46 45
-29 85 37 88 193 125 310 74z m-599 -111 c139 -69 161 -158 47 -189 -51 -14
-248 -13 -298 3 -36 10 -40 15 -43 48 -6 66 42 124 127 154 57 21 103 16 167
-16z"/>
<path d="M8193 2965 c-88 -70 -165 -222 -193 -383 -11 -59 -11 -99 -1 -210 14
-155 7 -229 -33 -336 -52 -137 -131 -223 -306 -333 -180 -113 -263 -190 -316
-295 -26 -51 -54 -148 -54 -186 0 -40 23 -19 36 33 18 71 68 165 115 219 50
57 124 113 249 191 117 73 233 186 278 272 18 34 42 97 53 140 19 71 20 96 14
283 -7 227 -1 273 54 395 28 60 84 135 103 135 5 0 6 -5 3 -11 -4 -5 -7 -70
-7 -144 1 -158 13 -213 95 -416 82 -203 103 -323 76 -439 -17 -74 -74 -181
-136 -254 -194 -228 -229 -284 -240 -377 -7 -61 9 -65 26 -7 27 91 82 176 188
289 126 137 176 216 204 329 35 139 18 259 -68 465 -99 240 -121 377 -90 559
21 116 12 130 -50 81z"/>
<path d="M9027 3333 c-4 -3 -7 -20 -7 -37 -1 -56 -46 -163 -114 -266 -36 -55
-77 -122 -90 -149 -31 -59 -49 -156 -40 -213 9 -58 48 -124 86 -144 31 -16 32
-16 50 6 10 12 18 29 18 36 0 8 33 50 74 93 112 120 156 226 156 377 0 96 -24
185 -69 257 -28 44 -48 56 -64 40z m75 -233 c25 -147 -20 -275 -144 -407 -43
-45 -78 -87 -78 -93 0 -24 -19 -7 -34 30 -37 94 -14 182 93 345 39 61 84 143
99 182 l27 73 13 -30 c6 -17 17 -62 24 -100z"/>
<path d="M5460 1443 c-70 -36 -158 -124 -192 -193 -74 -148 -1 -319 157 -370
66 -22 183 -18 238 9 66 32 91 70 84 129 -4 40 -12 53 -55 92 -27 25 -68 58
-91 73 -28 18 -49 43 -63 73 -18 41 -18 52 -8 116 10 58 10 72 -2 84 -12 12
-22 10 -68 -13z m12 -112 c-7 -99 36 -166 151 -233 50 -29 82 -78 73 -112 -10
-40 -62 -61 -156 -60 -94 0 -142 17 -192 71 -89 93 -74 198 47 321 39 39 73
72 76 72 3 0 3 -27 1 -59z"/>
<path d="M1324 1224 c-61 -30 -81 -102 -44 -161 30 -50 91 -76 177 -75 92 0
134 15 173 59 26 29 31 42 26 66 -8 40 -40 73 -98 103 -38 19 -62 24 -125 24
-49 0 -89 -6 -109 -16z m178 -44 c45 -13 98 -55 98 -79 0 -68 -208 -83 -271
-20 -21 21 -26 74 -7 85 36 22 125 29 180 14z"/>
<path d="M3379 831 c-122 -40 -149 -173 -43 -217 50 -21 183 -18 245 5 68 26
89 47 89 86 0 71 -82 126 -195 131 -38 2 -82 0 -96 -5z m155 -55 c148 -45 94
-121 -85 -121 -71 0 -91 3 -108 19 -27 25 -27 47 2 74 46 43 109 52 191 28z"/>
</g>
</svg>
