<?xml version="1.0" encoding="UTF-8" standalone="yes"?>
<svg version="1.0" xmlns="http://www.w3.org/2000/svg" width="1024.000000pt" height="1024.000000pt" viewBox="0 0 1024.000000 1024.000000" preserveAspectRatio="xMidYMid meet">
  <metadata>
Created by potrace 1.16, written by Peter Selinger 2001-2019
</metadata>
  <g transform="translate(0.000000,1024.000000) scale(0.100000,-0.100000)" fill="#000000" stroke="none">
    <path d="M4979 9938 c-108 -130 -227 -301 -333 -481 -32 -54 -62 -97 -66 -95&#xA;-4 2 -37 40 -73 86 -117 149 -198 233 -220 230 -23 -3 -33 -47 -62 -263 -8&#xA;-60 -16 -123 -19 -140 -2 -16 -19 -158 -37 -314 l-34 -283 -55 -28 c-31 -16&#xA;-92 -55 -137 -89 -119 -88 -192 -185 -241 -324 -22 -62 -25 -90 -26 -197 -1&#xA;-92 4 -145 18 -200 20 -82 63 -184 96 -229 l20 -29 -27 -64 c-75 -177 -164&#xA;-327 -303 -513 -164 -220 -193 -286 -193 -440 0 -133 42 -268 103 -333 l21&#xA;-22 -48 -54 c-88 -99 -153 -250 -153 -351 0 -41 32 -125 48 -125 4 0 6 -40 4&#xA;-88 -5 -108 21 -224 67 -299 17 -28 31 -56 31 -63 0 -19 -67 -141 -99 -179&#xA;l-29 -35 -113 54 c-63 29 -177 82 -254 117 l-140 63 -11 72 c-16 99 -31 153&#xA;-61 213 -43 85 -83 136 -131 166 -39 24 -56 29 -112 29 l-66 0 -32 323 c-31&#xA;305 -59 566 -82 757 -5 47 -13 119 -16 160 -3 41 -9 93 -14 116 -7 40 -6 42&#xA;28 60 46 25 72 69 72 122 0 35 -6 49 -29 73 -16 16 -37 29 -45 29 -24 0 -20 7&#xA;36 67 140 146 236 315 264 463 38 202 -41 394 -193 466 -64 30 -140 40 -201&#xA;26 -23 -5 -42 -8 -42 -5 0 3 11 18 25 35 64 75 50 164 -31 199 -25 12 -56 18&#xA;-67 15 -19 -4 -25 2 -41 40 -34 83 -127 128 -183 89 -28 -19 -45 -74 -41 -127&#xA;3 -42 2 -43 -35 -49 -104 -17 -128 -142 -42 -218 l34 -29 -39 -7 c-65 -11&#xA;-172 -69 -222 -121 -120 -124 -142 -321 -56 -496 55 -111 246 -281 399 -355&#xA;l49 -23 -38 -34 c-33 -31 -37 -40 -37 -84 0 -36 6 -56 20 -72 25 -28 75 -50&#xA;114 -50 17 0 28 -5 28 -12 -2 -13 12 -171 18 -223 3 -16 14 -115 25 -220 12&#xA;-104 27 -244 35 -310 23 -186 63 -534 70 -597 7 -56 6 -58 -20 -68 -48 -18&#xA;-96 -63 -123 -114 -22 -42 -27 -65 -27 -131 -1 -44 -6 -90 -13 -102 -25 -45&#xA;-10 -154 27 -196 12 -14 15 -35 13 -80 -4 -69 17 -130 61 -183 27 -32 123 -84&#xA;155 -84 42 -1 41 1 102 -537 l10 -91 -31 -32 c-29 -28 -31 -35 -27 -81 6 -57&#xA;33 -101 68 -109 20 -5 26 -15 35 -60 8 -45 16 -58 45 -78 93 -63 234 23 211&#xA;128 -6 29 -3 41 16 67 56 74 32 158 -54 188 -2 1 -45 409 -57 533 -5 57 12 55&#xA;62 -11 89 -115 257 -258 419 -355 103 -62 274 -129 349 -137 l63 -7 -25 -57&#xA;c-92 -207 -223 -567 -240 -658 -4 -21 -36 -103 -71 -183 -71 -160 -110 -257&#xA;-123 -310 -4 -19 -63 -163 -130 -320 -231 -539 -565 -1385 -614 -1558 -26 -90&#xA;-26 -94 -10 -129 30 -63 124 -119 256 -152 l72 -19 -2 -40 c-3 -32 2 -46 27&#xA;-74 109 -124 591 -251 891 -234 63 3 148 12 188 20 l72 14 21 -29 c43 -61 233&#xA;-132 439 -165 112 -18 443 -27 550 -14 41 5 101 11 132 14 31 3 67 7 80 10&#xA;239 49 255 51 341 32 191 -41 240 -47 452 -53 465 -12 1072 73 1445 202 163&#xA;57 220 97 220 155 0 24 5 27 112 52 125 30 212 69 276 123 47 41 82 100 82&#xA;140 0 14 -25 72 -55 130 -30 58 -55 108 -55 112 0 10 192 -6 405 -34 259 -34&#xA;489 -35 609 -4 197 52 296 131 296 236 -1 111 -54 168 -250 265 -278 138 -438&#xA;273 -612 515 -273 381 -488 852 -756 1650 -162 483 -273 866 -253 873 25 8&#xA;157 120 209 176 212 234 281 539 185 829 -33 98 -81 173 -172 270 l-71 74 29&#xA;54 c52 97 75 191 75 314 2 229 -80 352 -354 534 -179 119 -298 233 -352 337&#xA;-45 85 -80 207 -108 369 -30 172 -73 315 -130 430 l-50 100 55 215 c30 118 80&#xA;310 110 425 30 116 64 247 74 292 23 103 18 111 -61 93 -68 -17 -275 -87 -412&#xA;-141 -58 -23 -108 -40 -110 -38 -2 2 -9 65 -16 139 -6 74 -13 146 -15 160 -2&#xA;14 -9 77 -15 140 -12 125 -22 160 -44 160 -13 0 -91 -41 -156 -82 -145 -91&#xA;-251 -163 -366 -250 -56 -42 -64 -45 -64 -24 0 22 -73 231 -110 316 -38 89&#xA;-178 370 -192 388 -19 22 -37 12 -89 -50z m148 -185 c96 -200 166 -374 192&#xA;-474 19 -75 40 -102 65 -84 7 6 57 43 110 83 164 124 425 292 436 281 2 -2 6&#xA;-15 7 -29 2 -14 8 -61 13 -105 12 -94 40 -388 40 -421 0 -46 28 -45 137 1 93&#xA;40 360 133 426 149 26 6 28 5 21 -16 -4 -13 -15 -54 -24 -93 -50 -196 -183&#xA;-717 -196 -762 l-14 -51 -36 35 c-107 104 -383 245 -671 344 -499 171 -1079&#xA;214 -1397 102 -22 -7 -40 -12 -42 -10 -3 3 9 103 36 302 5 39 23 178 40 310&#xA;17 132 33 251 36 264 l5 25 17 -25 c9 -14 53 -69 97 -124 44 -55 94 -119 110&#xA;-143 20 -28 36 -41 49 -40 13 2 52 56 120 169 56 91 112 181 125 200 61 87&#xA;207 279 212 279 3 0 42 -75 86 -167z m-3234 -1053 c30 -24 50 -76 45 -122 -3&#xA;-29 0 -33 24 -36 19 -2 28 2 33 17 8 27 54 28 85 3 19 -15 21 -24 15 -52 -8&#xA;-38 -92 -128 -162 -174 l-42 -28 -90 47 c-117 61 -152 114 -106 165 19 21 60&#xA;27 70 10 9 -14 42 -12 48 3 2 6 1 38 -3 69 -15 108 19 148 83 98z m3002 5&#xA;c361 -26 868 -175 1151 -337 217 -124 295 -193 349 -311 42 -92 88 -254 115&#xA;-404 45 -251 88 -370 176 -484 73 -96 199 -198 356 -290 103 -60 190 -153 239&#xA;-255 36 -75 42 -97 47 -173 5 -100 -15 -192 -74 -324 -19 -43 -34 -82 -34 -87&#xA;0 -6 31 -40 68 -77 118 -117 180 -233 207 -388 20 -114 19 -160 -5 -274 -33&#xA;-162 -114 -303 -247 -433 -109 -106 -199 -154 -324 -171 l-37 -5 -11 76 c-12&#xA;81 -68 256 -106 332 l-22 45 35 35 c135 136 150 469 29 674 -127 216 -325 379&#xA;-525 431 -163 42 -370 -10 -493 -125 -47 -43 -59 -50 -96 -50 -80 0 -130 72&#xA;-121 172 5 45 10 54 53 91 27 23 67 67 90 98 l42 57 28 -35 c53 -67 151 -91&#xA;223 -54 81 41 117 113 110 218 -4 66 -4 67 34 101 53 47 126 147 153 206 l21&#xA;48 28 -32 c37 -44 84 -138 117 -235 l28 -80 0 50 c1 66 -21 144 -64 231 -45&#xA;92 -122 165 -298 283 -246 164 -369 332 -413 559 -9 45 -15 137 -15 222 l-1&#xA;145 -22 -57 c-12 -31 -24 -60 -28 -63 -9 -10 -185 49 -283 95 -176 81 -349&#xA;194 -436 287 -53 55 -105 141 -123 204 -26 87 -32 90 -51 24 -45 -153 -299&#xA;-313 -779 -489 -147 -54 -189 -84 -100 -72 27 4 57 9 66 12 16 5 16 2 3 -43&#xA;-27 -93 -36 -180 -41 -415 l-5 -237 -49 -81 c-73 -122 -108 -239 -114 -390 -8&#xA;-184 36 -326 148 -478 110 -148 255 -258 444 -336 l82 -33 -67 -25 -67 -24&#xA;-31 45 c-42 60 -133 121 -223 150 -97 31 -221 27 -305 -12 -183 -84 -349 -255&#xA;-422 -433 l-23 -57 -10 35 c-27 98 64 304 178 401 22 18 40 37 40 42 0 4 -18&#xA;28 -41 52 -22 25 -50 64 -60 89 -28 63 -48 178 -44 254 6 127 32 177 197 393&#xA;127 166 232 349 293 511 l24 64 -31 64 c-154 317 -128 618 72 818 84 84 154&#xA;131 262 175 193 79 416 103 733 80z m-105 -186 c0 -21 88 -136 139 -181 135&#xA;-122 375 -254 582 -322 l127 -41 7 -70 c20 -202 76 -355 175 -480 27 -33 59&#xA;-71 73 -83 l25 -24 -19 -56 c-22 -63 -23 -87 -8 -130 17 -50 37 -48 32 3 -5&#xA;38 20 145 33 145 2 0 37 -24 77 -53 39 -30 97 -69 127 -89 30 -19 74 -51 97&#xA;-70 l41 -35 -28 -49 c-15 -27 -62 -89 -105 -137 l-77 -88 -43 40 c-71 66 -146&#xA;67 -217 3 -52 -46 -88 -122 -88 -183 0 -46 -1 -48 -109 -152 -158 -153 -269&#xA;-224 -446 -287 -437 -155 -872 -74 -1161 214 -82 83 -156 197 -190 296 -66&#xA;190 -23 475 94 629 35 44 36 50 40 144 4 95 10 108 38 89 6 -4 14 -36 17 -70&#xA;9 -83 35 -140 92 -201 57 -61 129 -94 203 -93 l54 0 -25 -26 c-33 -35 -58 -93&#xA;-52 -123 11 -57 97 -130 182 -155 61 -18 137 -14 172 8 44 27 31 35 -52 34&#xA;-67 -1 -91 3 -131 23 -58 28 -116 84 -116 111 0 10 37 59 83 107 156 168 202&#xA;321 136 460 -28 58 -108 128 -171 149 -88 29 -207 4 -274 -58 -20 -18 -24 -18&#xA;-60 -3 -21 9 -47 23 -58 33 -18 17 -18 16 -3 -15 9 -17 28 -40 41 -51 25 -19&#xA;25 -19 8 -55 -14 -30 -21 -35 -42 -30 -14 3 -29 8 -34 11 -10 5 0 176 20 352&#xA;7 69 14 130 14 137 0 6 24 19 53 29 262 85 553 240 663 351 51 52 64 60 64 42z&#xA;m-2541 -183 c96 -26 156 -80 202 -181 33 -72 33 -233 1 -322 -39 -111 -131&#xA;-248 -258 -386 -57 -62 -64 -67 -103 -67 -23 0 -73 -5 -111 -11 l-68 -12 -69&#xA;38 c-255 139 -397 289 -432 453 -16 78 -14 142 10 217 17 55 31 78 72 120 78&#xA;77 133 100 239 100 74 0 91 -3 117 -22 36 -28 67 -29 80 -5 11 21 101 72 145&#xA;83 51 12 118 10 175 -5z m2116 -607 c159 -43 221 -186 148 -340 -52 -110 -109&#xA;-155 -194 -152 -174 5 -300 213 -223 366 52 103 163 155 269 126z m-2140 -431&#xA;c28 -33 24 -59 -16 -92 -73 -61 -346 -72 -382 -15 -15 24 -1 64 29 84 41 27&#xA;189 55 273 52 65 -2 76 -5 96 -29z m-80 -210 c4 -21 37 -306 85 -733 19 -169&#xA;57 -546 62 -617 2 -27 -4 -43 -20 -61 -22 -23 -25 -24 -60 -11 -20 7 -46 13&#xA;-57 14 -19 0 -22 12 -39 158 -10 86 -19 171 -22 187 -19 148 -114 1024 -114&#xA;1054 0 17 8 20 58 24 31 2 67 4 79 5 16 1 24 -5 28 -20z m3856 -325 c138 -116&#xA;12 -355 -139 -263 -83 51 -79 190 7 263 43 36 89 36 132 0z m-458 -631 c10&#xA;-18 25 -36 33 -39 12 -5 10 -12 -14 -37 -16 -17 -57 -67 -92 -111 -131 -169&#xA;-295 -317 -421 -380 -249 -126 -586 -122 -722 7 -36 34 -39 41 -34 77 7 58 36&#xA;92 153 182 91 71 119 99 98 99 -3 0 -35 -14 -70 -31 -69 -32 -179 -128 -215&#xA;-186 -31 -50 -23 -132 17 -174 40 -42 98 -74 169 -94 33 -9 65 -18 72 -20 9&#xA;-3 5 -24 -13 -77 -47 -138 -65 -341 -44 -493 9 -69 18 -24 30 145 9 146 27&#xA;257 59 378 l11 40 103 1 c268 0 493 103 703 323 43 46 123 136 177 201 76 91&#xA;104 117 123 117 13 0 24 -2 24 -4 0 -2 -18 -41 -39 -87 -39 -83 -71 -187 -71&#xA;-229 0 -29 -166 -195 -279 -279 -144 -107 -298 -169 -524 -212 -57 -10 -59&#xA;-12 -78 -57 -28 -65 -55 -187 -70 -314 -12 -107 -8 -621 6 -663 5 -18 -3 -23&#xA;-74 -47 -67 -21 -82 -24 -91 -12 -7 7 -31 25 -55 38 -50 29 -51 34 -60 181 -3&#xA;55 -13 179 -22 275 -19 229 -19 492 1 589 9 40 13 77 10 82 -2 4 -30 16 -62&#xA;26 -112 35 -175 127 -189 276 -6 69 -6 69 -21 42 -32 -62 -17 -181 33 -256 31&#xA;-48 88 -90 146 -109 24 -7 45 -14 47 -15 1 -1 -5 -46 -13 -101 -26 -174 -15&#xA;-460 30 -787 23 -162 30 -155 -82 -88 -54 31 -120 73 -148 93 l-50 36 -33 139&#xA;c-26 107 -42 150 -70 193 -138 212 -173 388 -113 570 58 172 183 375 318 515&#xA;74 77 136 117 258 165 44 18 85 36 92 42 7 5 25 6 45 0 l33 -8 5 -80 c3 -43 9&#xA;-85 13 -92 17 -26 27 2 27 79 l0 79 118 1 c123 1 126 1 262 24 153 26 355 105&#xA;475 188 l50 34 5 -61 c3 -33 14 -76 23 -94z m732 93 c144 -38 284 -134 391&#xA;-268 129 -164 169 -278 161 -462 -8 -205 -77 -309 -218 -330 -58 -9 -66 2 -41&#xA;52 18 35 36 113 27 113 -3 0 -13 -17 -24 -37 -56 -109 -170 -185 -280 -186&#xA;-48 0 -73 6 -121 30 -64 32 -71 30 -40 -10 31 -40 116 -77 174 -77 59 0 157&#xA;42 195 84 l25 26 24 -22 c19 -19 35 -23 88 -23 l64 0 34 -80 c94 -220 116&#xA;-374 76 -523 -47 -172 -163 -297 -401 -431 l-57 -32 -4 63 c-5 80 -43 160&#xA;-109 232 -54 59 -152 116 -201 116 -15 0 -28 4 -28 8 0 5 51 59 114 119 104&#xA;102 118 112 168 123 32 7 94 11 146 8 50 -2 89 -1 86 3 -2 4 -24 15 -49 24&#xA;-35 14 -64 16 -132 12 -48 -3 -98 -8 -111 -12 -20 -7 -26 0 -61 76 -54 116&#xA;-56 126 -32 134 21 6 81 69 81 85 0 5 -27 -5 -60 -23 -127 -65 -233 -43 -342&#xA;70 -72 76 -100 127 -144 258 -31 95 -37 126 -41 230 -14 336 142 588 400 651&#xA;72 17 172 17 242 -1z m-2275 -47 c67 -21 146 -66 198 -113 l53 -48 -48 -32&#xA;c-67 -45 -187 -175 -261 -283 -124 -181 -191 -346 -206 -505 -2 -21 -7 -41&#xA;-10 -44 -3 -3 -27 5 -53 18 -60 31 -107 98 -124 177 -9 45 -13 53 -20 37 -13&#xA;-33 -10 -103 5 -140 8 -19 13 -35 11 -35 -2 0 -29 9 -59 21 -99 37 -157 142&#xA;-164 300 -5 120 9 188 61 292 56 113 207 265 317 320 110 55 204 66 300 35z&#xA;m-1534 -504 c113 -54 192 -237 213 -499 7 -76 14 -141 16 -143 2 -2 7 27 10&#xA;66 4 38 10 75 14 81 5 7 87 -26 242 -97 263 -122 245 -106 248 -230 2 -114&#xA;-58 -238 -166 -345 -103 -100 -97 -100 -189 -35 -72 51 -313 262 -329 289 -4&#xA;6 4 22 19 35 23 22 66 93 66 110 0 4 -22 -14 -48 -38 -53 -49 -90 -73 -100&#xA;-63 -5 5 -30 245 -32 303 l0 24 31 -26 c18 -16 43 -26 62 -26 l31 0 -41 35&#xA;c-47 40 -84 118 -84 178 0 23 3 76 6 117 5 51 3 85 -6 105 -12 29 -13 28 -21&#xA;-45 -15 -124 -51 -170 -131 -170 -58 0 -72 19 -71 97 2 84 31 164 81 223 58&#xA;67 115 84 179 54z m3143 -329 c30 -100 81 -201 134 -267 l47 -56 -36 -78 c-40&#xA;-88 -108 -281 -118 -334 -5 -30 -13 -38 -53 -57 -236 -106 -348 -151 -534&#xA;-214 -101 -34 -226 -77 -278 -96 -51 -18 -96 -31 -99 -28 -3 2 -6 141 -6 307&#xA;-1 321 7 424 47 583 l23 90 74 7 c234 24 468 143 659 336 l96 97 12 -110 c6&#xA;-60 21 -141 32 -180z m-3421 278 c16 -4 22 -11 18 -22 -3 -9 -14 -43 -25 -75&#xA;-12 -33 -21 -69 -21 -81 0 -20 -4 -22 -47 -18 -32 3 -68 -2 -107 -15 l-59 -20&#xA;6 48 c6 53 34 115 64 142 43 39 115 57 171 41z m-33 -282 c9 -56 43 -83 109&#xA;-89 36 -3 64 1 84 10 l29 15 14 -51 c12 -46 14 -104 3 -115 -3 -3 -11 5 -20&#xA;17 -28 41 -73 56 -174 59 -87 2 -127 -4 -223 -34 -21 -7 -47 49 -47 100 0 68&#xA;80 126 172 127 46 0 46 0 53 -39z m1386 -177 c29 -4 68 -16 87 -27 18 -11 47&#xA;-23 64 -26 37 -8 39 -12 67 -116 19 -69 43 -118 119 -246 15 -25 14 -28 -49&#xA;-114 -120 -166 -273 -311 -378 -358 -89 -39 -229 -13 -405 75 l-58 29 78 72&#xA;c140 130 199 255 192 407 -3 76 -2 80 17 74 32 -9 116 -68 163 -113 39 -39 42&#xA;-40 42 -18 0 35 -50 99 -107 135 -27 18 -54 32 -59 32 -5 0 -15 4 -22 9 -10 6&#xA;-3 23 32 73 25 36 54 86 65 112 l21 47 38 -20 c22 -11 63 -23 93 -27z m-1244&#xA;-45 c63 -32 72 -49 50 -93 -23 -49 -68 -66 -178 -66 -49 0 -89 -4 -89 -9 0 -5&#xA;22 -15 49 -22 l49 -12 4 -49 c4 -57 -2 -58 -71 -24 -85 44 -131 116 -131 207&#xA;0 29 6 41 27 55 74 48 207 54 290 13z m113 -360 c26 -284 49 -505 56 -546 l6&#xA;-33 -48 0 c-27 0 -64 -4 -82 -9 -23 -7 -32 -6 -32 2 0 10 -13 119 -34 299 -3&#xA;24 -12 108 -21 188 -8 80 -18 169 -21 198 -5 49 -4 52 18 52 34 1 105 35 120&#xA;59 7 11 13 19 15 17 1 -1 12 -103 23 -227z m3484 202 c28 -13 77 -26 111 -29&#xA;l62 -4 18 -52 c10 -28 31 -78 48 -110 l29 -59 -135 -134 -135 -134 -53 40&#xA;c-30 23 -78 53 -106 68 -29 16 -53 31 -53 35 0 36 147 412 159 405 3 -1 28&#xA;-14 55 -26z m1182 -313 c39 -182 288 -953 419 -1303 255 -677 516 -1147 791&#xA;-1418 125 -123 233 -200 415 -294 160 -82 202 -111 230 -157 39 -65 17 -129&#xA;-65 -181 -151 -96 -369 -117 -729 -70 -105 14 -258 28 -339 32 l-146 6 -62&#xA;131 c-53 112 -251 566 -367 846 -20 47 -48 114 -63 150 -114 268 -158 387&#xA;-154 410 10 46 -146 424 -257 625 -71 127 -223 359 -317 483 -36 47 -61 87&#xA;-56 89 22 8 224 138 275 178 l56 44 53 -187 c28 -103 58 -207 65 -232 8 -25&#xA;37 -123 65 -218 146 -495 304 -900 504 -1287 94 -183 130 -240 238 -381 131&#xA;-171 305 -321 469 -404 65 -33 189 -75 189 -65 0 2 -42 25 -92 50 -248 124&#xA;-493 363 -659 642 -248 418 -460 967 -694 1803 -31 113 -66 233 -76 268 l-19&#xA;64 24 31 c55 73 106 222 106 309 0 38 0 38 43 39 23 0 62 6 87 13 25 8 48 14&#xA;52 15 3 0 10 -14 14 -31z m-3128 -80 l20 -77 -67 -45 c-90 -61 -216 -168 -296&#xA;-252 -99 -104 -270 -336 -370 -501 -19 -32 -35 -55 -35 -51 0 7 59 162 175&#xA;460 37 95 39 97 86 117 27 11 70 34 96 52 67 45 248 232 308 317 28 39 53 68&#xA;56 64 4 -4 15 -42 27 -84z m1787 -82 c39 -25 80 -54 90 -66 20 -22 20 -22 -21&#xA;-58 -104 -95 -88 -88 -225 -95 -211 -10 -368 -65 -484 -170 -33 -30 -71 -76&#xA;-85 -103 -29 -59 -33 -138 -7 -177 13 -20 15 -39 11 -89 -7 -83 21 -143 81&#xA;-173 23 -11 47 -33 55 -49 23 -45 62 -69 117 -70 36 -1 54 -7 71 -24 26 -26&#xA;85 -30 138 -7 20 8 71 49 113 90 63 61 93 82 162 111 133 58 212 122 244 197&#xA;8 20 21 37 28 37 6 0 73 27 147 60 74 33 140 60 146 60 19 0 58 -52 179 -235&#xA;186 -282 305 -508 412 -779 19 -50 38 -97 40 -103 7 -18 -37 -33 -142 -49&#xA;-307 -47 -841 32 -1223 182 -535 208 -882 543 -1052 1011 -21 57 -35 105 -31&#xA;107 11 7 222 80 486 168 253 84 386 137 550 217 55 27 106 50 114 50 8 1 46&#xA;-19 86 -43z m325 -73 c36 -18 82 -46 103 -63 72 -60 129 -168 143 -269 l7 -50&#xA;-146 -70 c-80 -39 -148 -75 -152 -81 -5 -8 -11 -8 -20 0 -11 9 -18 3 -36 -34&#xA;-31 -68 -114 -138 -224 -190 -72 -34 -112 -61 -169 -115 -73 -69 -127 -101&#xA;-172 -101 -20 0 -24 5 -24 33 0 50 50 124 143 215 46 45 79 82 72 82 -22 0&#xA;-168 -114 -203 -159 -18 -23 -42 -62 -53 -86 -22 -50 -37 -55 -93 -31 -113 47&#xA;-4 240 229 407 54 39 52 48 -4 20 -155 -80 -276 -200 -314 -313 -10 -28 -34&#xA;-21 -57 17 -34 55 -36 95 -7 159 32 70 100 142 205 219 45 33 81 62 78 64 -2&#xA;3 -42 -15 -88 -38 -59 -31 -104 -64 -157 -116 -41 -41 -75 -72 -76 -71 -2 2&#xA;-5 18 -8 35 -7 47 34 123 96 179 113 101 279 154 485 154 l92 0 88 74 c48 40&#xA;110 94 137 119 28 26 52 45 55 44 3 -1 34 -17 70 -34z m-2028 -37 c28 -24 89&#xA;-66 135 -93 146 -83 283 -176 283 -191 0 -21 -117 -185 -206 -287 -163 -188&#xA;-377 -378 -564 -500 -175 -114 -445 -219 -668 -259 -40 -7 -40 -8 18 129 102&#xA;240 183 392 327 608 134 202 227 319 342 429 97 93 248 208 273 208 5 0 32&#xA;-20 60 -44z m-1512 -255 c27 -7 36 -35 26 -77 -9 -33 -77 -66 -152 -72 -82 -6&#xA;-110 2 -129 38 -29 56 -13 89 55 108 40 12 163 13 200 3z m1968 -235 c-24 -88&#xA;-8 -434 33 -695 12 -78 152 -848 179 -986 10 -55 42 -219 70 -365 28 -146 60&#xA;-303 70 -350 117 -525 158 -693 225 -919 25 -85 45 -154 43 -156 -2 -1 -59&#xA;-12 -128 -24 -411 -73 -824 -63 -1090 26 -148 49 -182 76 -175 137 14 114 58&#xA;442 70 526 17 110 62 391 70 435 52 286 73 395 111 580 47 232 116 532 159&#xA;700 15 55 31 118 36 140 6 22 26 94 46 160 19 66 53 183 75 260 21 77 68 234&#xA;104 350 36 115 70 230 76 254 l11 45 14 -39 c10 -30 11 -47 1 -79z m-1978 9&#xA;c0 -48 -29 -75 -80 -75 -49 0 -80 27 -80 69 0 32 9 35 118 39 42 2 42 2 42&#xA;-33z m1873 -70 c-165 -468 -368 -1236 -484 -1830 -17 -88 -33 -169 -35 -180&#xA;-34 -169 -103 -590 -139 -845 -64 -464 -52 -414 -105 -421 -25 -4 -58 -10 -75&#xA;-13 -87 -17 -294 -18 -410 -1 -208 29 -428 92 -525 148 -49 28 -90 68 -90 87&#xA;0 35 195 578 380 1060 69 179 136 375 165 483 48 179 12 97 -187 -418 -157&#xA;-408 -378 -1006 -378 -1025 0 -10 -11 -9 -93 11 -101 26 -217 101 -217 141 0&#xA;50 112 354 330 898 92 230 131 324 356 857 l89 212 32 1 c81 0 374 92 523 162&#xA;289 138 640 434 848 714 25 35 47 62 48 61 2 -1 -13 -47 -33 -102z m137 59 c0&#xA;-26 108 -224 177 -322 84 -121 259 -297 381 -382 349 -245 810 -404 1307 -450&#xA;197 -18 408 -8 518 24 l42 12 78 -190 c262 -638 479 -1133 602 -1372 l123&#xA;-241 -16 -32 c-19 -40 -80 -93 -138 -120 -60 -28 -200 -68 -254 -73 l-44 -3&#xA;-96 153 c-168 264 -256 429 -479 895 -63 130 -116 235 -118 233 -9 -9 74 -221&#xA;168 -431 140 -309 255 -519 478 -871 20 -32 29 -57 25 -68 -15 -40 -240 -125&#xA;-459 -175 -560 -126 -1250 -158 -1580 -73 l-70 18 -17 50 c-49 144 -177 635&#xA;-222 849 -8 39 -32 156 -55 260 -34 165 -102 501 -115 575 -2 14 -22 122 -45&#xA;240 -193 1020 -199 1063 -208 1339 -4 137 -3 182 6 177 6 -4 11 -14 11 -22z"/>
    <path d="M4885 9371 c-91 -41 -165 -174 -165 -297 0 -91 49 -188 112 -220 69&#xA;-36 168 -13 230 53 94 99 103 312 17 416 -53 65 -121 82 -194 48z m139 -75&#xA;c118 -125 36 -406 -119 -406 -29 0 -44 7 -70 33 -78 78 -69 244 18 344 66 74&#xA;120 84 171 29z"/>
    <path d="M4270 8106 c-123 -34 -210 -119 -186 -183 6 -14 12 -11 44 19 48 46&#xA;83 63 159 78 48 10 73 10 109 1 26 -7 49 -10 51 -7 3 3 1 17 -4 32 -19 57 -93&#xA;82 -173 60z"/>
    <path d="M5000 8078 c-42 -23 -81 -70 -69 -82 3 -3 21 -1 40 4 106 31 276 -12&#xA;368 -92 37 -33 58 -26 47 16 -19 75 -163 164 -278 173 -53 4 -70 1 -108 -19z"/>
    <path d="M5030 7741 c-79 -25 -159 -91 -198 -165 -24 -45 -27 -62 -27 -146 0&#xA;-83 3 -101 27 -145 30 -59 103 -129 156 -153 57 -25 186 -21 240 7 66 34 118&#xA;87 152 153 25 51 30 73 30 134 l0 72 42 7 c30 5 54 19 80 45 52 51 48 68 -6&#xA;29 -28 -19 -61 -33 -88 -36 -40 -5 -45 -3 -56 21 -15 33 -15 36 -1 36 6 0 26&#xA;7 45 16 34 16 53 43 69 94 7 21 0 18 -43 -22 -70 -66 -92 -69 -143 -23 -79 71&#xA;-193 102 -279 76z m160 -52 c89 -40 161 -135 175 -231 20 -133 -92 -275 -233&#xA;-294 -74 -9 -133 10 -191 62 -116 105 -124 284 -18 398 80 86 172 108 267 65z"/>
    <path d="M5123 7510 c-85 -51 -56 -230 37 -230 17 0 40 5 51 10 61 33 66 189&#xA;6 218 -43 21 -62 22 -94 2z"/>
    <path d="M6058 7062 c-31 -47 -55 -88 -52 -91 12 -12 62 40 87 91 48 94 27 94&#xA;-35 0z"/>
    <path d="M5034 6776 c-40 -42 -180 -111 -269 -132 -141 -32 -294 2 -415 92&#xA;-39 30 -76 54 -81 54 -35 0 31 -90 102 -139 77 -53 143 -73 259 -78 158 -7&#xA;267 27 390 121 30 24 63 46 73 49 13 5 17 15 15 34 -4 40 -36 39 -74 -1z"/>
    <path d="M1994 8186 c-28 -13 -59 -34 -67 -47 l-17 -23 -24 23 c-34 32 -121&#xA;40 -182 16 -72 -27 -121 -78 -140 -143 -43 -146 27 -308 186 -434 57 -45 219&#xA;-138 241 -138 25 0 161 137 207 208 22 34 55 97 73 140 28 67 33 88 33 167 0&#xA;73 -4 98 -21 130 -62 117 -172 156 -289 101z m163 -45 c32 -15 48 -31 67 -70&#xA;68 -134 -4 -353 -166 -507 -76 -71 -68 -71 -171 -10 -186 111 -293 274 -274&#xA;416 10 74 88 140 167 140 55 0 79 -14 96 -57 l15 -35 36 46 c37 48 119 96 162&#xA;96 15 0 45 -9 68 -19z"/>
    <path d="M4353 7580 c-72 -43 -64 -194 11 -225 45 -19 81 -2 105 49 12 23 21&#xA;55 21 69 0 60 -48 127 -90 127 -8 0 -29 -9 -47 -20z"/>
    <path d="M3761 2845 c-106 -259 -166 -431 -391 -1110 -126 -383 -215 -629&#xA;-287 -793 -10 -23 13 -12 34 16 67 91 118 228 450 1222 219 656 275 831 269&#xA;838 -2 1 -36 -76 -75 -173z"/>
    <path d="M5075 2608 c10 -64 72 -281 166 -582 192 -613 346 -999 474 -1192 61&#xA;-91 163 -204 184 -204 11 0 11 3 0 19 -251 341 -310 478 -659 1516 -128 381&#xA;-175 505 -165 443z"/>
  </g>
  <title>Królowa w sukni z berłem</title>
  <desc>Majestatyczna królowa w pięknej, królewskiej sukni, trzymająca w dłoni berło. Rządzi mądrze i sprawiedliwie. Jej strój i korona mogą lśnić od klejnotów.</desc>
</svg>