<?xml version="1.0" standalone="no"?>
<!DOCTYPE svg PUBLIC "-//W3C//DTD SVG 20010904//EN"
 "http://www.w3.org/TR/2001/REC-SVG-20010904/DTD/svg10.dtd">
<svg version="1.0" xmlns="http://www.w3.org/2000/svg"
 width="1024.000000pt" height="1024.000000pt" viewBox="0 0 1024.000000 1024.000000"
 preserveAspectRatio="xMidYMid meet">
<metadata>
Created by potrace 1.16, written by Peter Selinger 2001-2019
</metadata>
<g transform="translate(0.000000,1024.000000) scale(0.100000,-0.100000)"
fill="#000000" stroke="none">
<path d="M5462 9943 c-20 -22 -59 -77 -85 -123 -40 -71 -47 -92 -45 -128 3
-39 1 -43 -17 -37 -84 26 -605 4 -1185 -51 -555 -52 -711 -78 -832 -139 -134
-69 -620 -425 -679 -498 -58 -72 -73 -120 -77 -253 -7 -217 103 -980 214
-1489 19 -87 32 -165 30 -172 -3 -7 -19 -13 -36 -13 -41 0 -413 -64 -557 -96
-168 -37 -354 -99 -409 -137 -32 -21 -57 -48 -74 -82 -24 -47 -25 -57 -24
-215 1 -320 70 -600 167 -674 121 -92 433 -170 1079 -267 l357 -54 5 -35 c29
-181 76 -866 85 -1230 8 -283 11 -321 30 -374 11 -32 26 -65 32 -73 9 -10 5
-28 -20 -79 -17 -35 -40 -102 -51 -147 -22 -93 -110 -596 -165 -942 -47 -295
-138 -832 -169 -1000 -33 -176 -50 -327 -42 -379 4 -24 19 -63 35 -88 37 -58
104 -92 401 -204 219 -82 240 -88 311 -89 75 0 78 1 145 47 69 47 316 260 365
314 48 54 56 88 178 759 130 712 141 768 147 763 9 -10 122 -561 209 -1023 19
-104 40 -210 45 -235 6 -25 39 -207 75 -405 36 -198 70 -378 76 -400 26 -96
105 -183 271 -298 123 -86 212 -128 286 -134 96 -8 605 110 788 184 90 35 137
91 158 183 22 94 20 118 -13 250 -16 63 -50 225 -76 360 -104 539 -178 904
-221 1085 -227 972 -325 1355 -364 1425 -6 10 2 26 25 51 45 50 50 101 35 360
-6 116 -10 213 -7 215 3 3 245 -203 300 -256 5 -4 1 -19 -8 -34 -25 -38 -36
-96 -25 -136 5 -19 32 -62 59 -94 l49 -60 -38 -50 c-47 -62 -63 -102 -55 -135
9 -37 143 -191 182 -209 28 -13 44 -14 115 -3 117 17 155 30 188 64 23 24 42
32 90 39 76 10 112 28 147 75 15 21 102 135 193 253 296 385 399 528 406 564
10 54 -3 87 -61 164 -30 39 -55 74 -55 77 0 2 76 105 168 227 175 232 301 406
322 447 18 35 -2 98 -65 202 -30 50 -55 95 -55 100 0 6 18 42 41 81 31 52 49
72 72 81 64 21 205 99 232 127 31 32 46 87 40 145 -3 22 -9 108 -15 190 -6 83
-13 164 -16 181 -4 28 0 34 30 50 39 21 356 321 414 392 68 83 45 147 -73 202
-439 204 -482 217 -524 163 -12 -14 -24 -37 -27 -50 -5 -19 -10 -22 -28 -16
-11 4 -52 8 -90 8 -63 0 -70 -2 -89 -27 -11 -15 -23 -44 -26 -65 -7 -37 -7
-37 -19 -15 -11 19 -9 34 11 95 13 39 33 104 43 143 24 95 16 119 -91 281 -47
70 -85 135 -85 143 0 8 16 63 36 122 54 162 60 151 -241 440 -82 79 -192 182
-243 230 l-94 86 45 74 c24 40 51 87 61 105 22 43 21 120 -3 158 -31 52 -978
988 -1024 1013 -38 21 -55 23 -172 23 -71 1 -188 3 -258 6 l-129 5 -36 -39z
m268 -80 c7 -7 -28 -58 -43 -61 -14 -3 -96 57 -96 71 -1 8 129 -1 139 -10z
m-155 -34 c22 -23 58 -54 79 -70 29 -22 34 -29 20 -29 -21 0 -77 -91 -69 -112
3 -7 -7 -19 -22 -26 -26 -12 -30 -10 -90 50 l-62 63 35 55 c20 30 40 67 46 83
5 15 13 27 17 27 4 0 25 -19 46 -41z m687 -220 c609 -605 718 -713 718 -716 0
-2 -36 -3 -80 -3 l-79 0 -480 483 c-264 265 -481 483 -481 485 0 1 33 2 74 2
l74 0 254 -251z m487 -793 c-16 -28 -50 -90 -76 -138 -26 -49 -51 -88 -55 -88
-11 0 -341 297 -683 615 -143 133 -280 260 -304 282 l-44 40 33 66 c18 36 47
83 65 104 18 21 49 64 70 97 l37 59 493 -493 493 -493 -29 -51z m-1458 728
c41 -12 66 -28 102 -66 32 -33 47 -56 43 -66 -32 -99 -32 -103 -3 -126 17 -13
34 -42 42 -70 l15 -48 -88 -136 c-49 -76 -98 -154 -111 -174 l-23 -38 -77 0
-77 0 -23 103 c-31 140 -36 147 -114 147 -34 0 -141 -9 -237 -20 -96 -11 -180
-20 -186 -20 -43 0 -55 -76 -34 -205 5 -32 6 -63 2 -67 -5 -5 -62 -17 -127
-28 -68 -11 -124 -25 -133 -34 -13 -13 -13 -31 -3 -137 8 -78 9 -125 3 -131
-5 -5 -54 -16 -108 -24 -393 -56 -580 -87 -591 -96 -18 -15 -16 -70 12 -263
36 -246 32 -294 -22 -283 -14 2 -20 20 -30 83 -6 44 -27 184 -47 310 -98 637
-133 999 -106 1097 15 54 81 132 132 156 53 26 183 45 523 77 708 67 1167 88
1266 59z m423 -196 c78 -73 241 -223 361 -334 121 -110 265 -242 320 -293 55
-50 112 -94 127 -97 14 -4 39 -19 54 -35 l27 -28 -47 -74 c-59 -96 -70 -105
-93 -80 -10 11 -81 78 -158 149 -77 72 -246 229 -375 350 -129 120 -283 263
-342 318 l-107 99 42 78 c23 43 44 79 45 79 2 0 68 -60 146 -132z m-2314 33
c0 -6 -4 -13 -10 -16 -24 -15 -62 -99 -70 -156 -16 -115 50 -698 147 -1293 21
-132 23 -160 12 -167 -14 -9 -49 -12 -49 -5 0 2 -9 50 -21 107 -25 126 -40
153 -77 144 -58 -14 -142 -58 -148 -77 -8 -28 2 -104 42 -311 19 -99 34 -188
32 -200 -2 -13 -16 -25 -42 -34 -76 -26 -78 -33 -45 -194 26 -128 37 -143 101
-136 l47 6 6 -47 c3 -26 13 -82 21 -126 8 -43 14 -79 12 -80 -2 -2 -68 2 -148
8 -163 12 -196 25 -243 93 -44 63 -55 102 -111 380 -149 734 -234 1402 -196
1537 7 25 28 63 46 85 50 57 491 384 613 453 70 40 81 43 81 29z m2136 -548
c18 -131 34 -248 34 -260 0 -22 -4 -23 -79 -23 -51 0 -82 4 -89 13 -5 6 -17
57 -27 112 -10 55 -24 110 -32 123 -13 21 -8 31 68 153 45 71 84 128 86 125 3
-3 20 -112 39 -243z m128 170 c150 -134 716 -667 716 -675 0 -5 -16 -38 -35
-72 -38 -69 -45 -119 -20 -165 8 -16 123 -133 257 -262 134 -129 262 -253 285
-275 l43 -41 -34 -75 c-19 -41 -45 -97 -59 -124 -14 -27 -30 -66 -35 -88 -13
-45 -4 -68 61 -154 22 -29 38 -54 36 -56 -2 -1 -141 -8 -309 -15 -592 -22
-786 -31 -842 -35 -32 -2 -58 -3 -58 -1 0 2 25 27 55 56 30 28 64 71 76 96 50
103 32 375 -61 948 -22 132 -44 292 -50 355 -23 250 -32 331 -54 473 -12 81
-20 147 -18 147 2 0 23 -17 46 -37z m-617 -93 c16 -79 28 -119 40 -128 12 -9
40 -12 81 -10 34 2 62 0 62 -5 0 -4 -11 -25 -25 -45 l-25 -38 -86 4 c-107 6
-193 -12 -253 -52 -51 -35 -60 -55 -35 -81 20 -19 35 -17 123 20 64 27 186 53
197 42 4 -3 -13 -38 -37 -76 -36 -58 -50 -72 -80 -81 -119 -33 -189 -135 -204
-294 l-7 -79 -210 -331 c-116 -182 -215 -336 -222 -343 -8 -8 -20 -5 -50 14
-38 24 -38 25 -17 40 24 16 19 33 -9 33 -24 0 -77 -44 -95 -81 -19 -36 -4 -45
25 -14 l23 24 43 -31 c24 -17 44 -36 44 -42 0 -6 -58 -102 -128 -213 -70 -111
-148 -236 -174 -277 l-47 -76 -49 0 c-60 0 -139 38 -183 88 -66 74 -76 112
-169 632 -17 96 -34 178 -36 182 -3 5 14 17 38 27 24 10 49 26 57 35 16 19 12
73 -25 330 -13 92 -24 175 -24 182 0 8 11 14 26 14 15 0 68 7 118 15 50 8 177
26 281 41 105 14 213 32 242 40 48 13 53 17 59 49 5 26 11 34 23 31 61 -16 70
-16 81 3 15 29 13 39 -15 66 -14 15 -36 25 -53 25 -16 0 -34 6 -39 13 -14 17
-23 96 -12 103 5 3 58 12 117 20 59 9 118 22 131 31 22 14 23 19 18 87 -4 39
-9 94 -13 123 -6 49 -5 52 17 58 31 7 408 44 434 42 17 -2 23 -18 42 -117z
m1943 -67 c0 -5 -31 -60 -68 -123 l-68 -115 -83 -5 c-45 -3 -84 -3 -86 -1 -2
2 6 20 19 40 12 20 42 73 66 118 l43 82 61 4 c34 2 73 4 89 5 15 1 27 -1 27
-5z m-1676 -90 c3 -10 10 -49 16 -88 16 -102 28 -142 46 -149 9 -3 51 -6 94
-6 43 0 81 -4 84 -9 10 -15 125 -730 141 -871 8 -74 18 -193 21 -265 10 -200
-10 -245 -130 -300 -87 -40 -208 -72 -473 -125 -306 -61 -884 -140 -1026 -140
l-39 0 22 38 c12 20 88 141 168 268 l145 231 53 -24 c85 -39 185 -56 299 -50
112 6 157 17 205 50 56 37 47 47 -21 26 -82 -26 -216 -34 -309 -20 -97 15
-203 50 -197 65 3 6 42 70 88 142 46 71 134 210 194 307 61 97 113 176 116
177 4 0 14 -24 24 -52 40 -127 83 -155 220 -144 168 14 299 58 325 111 23 47
24 159 3 242 l-19 71 37 11 c35 10 79 51 79 72 0 5 -21 6 -46 2 -27 -3 -45 -2
-42 3 24 51 38 87 35 90 -2 3 -24 -5 -48 -16 -57 -25 -81 -25 -105 1 -23 27
-111 69 -142 69 -13 0 -22 3 -20 8 2 4 19 35 38 69 39 70 50 74 118 43 56 -26
57 -4 1 42 l-41 34 32 52 c34 55 45 63 54 35z m1664 -302 c181 -168 477 -452
480 -462 2 -5 -36 -9 -84 -9 l-87 0 -186 183 c-103 100 -234 225 -291 277 -58
52 -106 98 -108 102 -2 4 32 9 75 11 43 1 79 4 81 5 1 1 55 -47 120 -107z
m-150 -92 c248 -228 422 -400 422 -419 0 -24 -64 -200 -72 -197 -9 3 -254 234
-477 449 l-173 168 53 85 c30 47 55 85 57 85 1 0 87 -77 190 -171z m-1623 16
c35 -20 105 -105 105 -127 0 -3 -23 -3 -51 0 -62 6 -90 -8 -118 -59 -46 -80
-20 -219 47 -253 51 -26 85 -28 125 -6 39 21 49 14 19 -13 -27 -25 -204 -60
-304 -61 -78 -1 -89 1 -112 23 -26 25 -51 88 -61 156 -6 37 -1 49 85 180 138
213 125 198 178 191 25 -3 64 -17 87 -31z m-228 -8 c-8 -13 -41 -63 -72 -111
-31 -48 -59 -85 -61 -83 -7 7 15 96 32 128 14 29 87 89 107 89 5 0 2 -10 -6
-23z m1692 -199 c86 -84 237 -229 336 -322 99 -94 184 -177 189 -185 5 -9 42
-55 81 -104 117 -142 133 -182 127 -319 -1 -28 -7 -48 -13 -48 -6 0 -124 114
-263 253 -138 138 -357 354 -486 479 l-235 226 18 29 c10 15 31 54 47 86 17
31 33 57 37 57 3 0 76 -69 162 -152z m-1445 6 c23 -23 19 -51 -9 -70 -24 -16
-27 -16 -45 1 -11 10 -20 26 -20 36 0 21 26 49 45 49 7 0 21 -7 29 -16z
m-1859 -337 c22 -122 41 -151 96 -144 46 6 39 23 79 -203 53 -299 90 -480 112
-538 20 -53 95 -143 128 -154 35 -12 -5 -14 -180 -9 l-185 6 -11 35 c-7 19
-19 80 -29 135 -9 55 -21 106 -27 113 -6 7 -33 12 -63 12 l-52 0 -17 93 c-26
136 -28 125 34 150 48 19 55 26 58 52 2 17 -15 120 -37 230 -21 110 -42 220
-45 245 l-7 45 58 21 c32 11 61 18 64 15 4 -3 15 -50 24 -104z m4105 95 c0 -4
-15 -53 -33 -107 l-34 -100 -93 -3 c-72 -2 -91 0 -87 10 42 100 56 139 62 171
l7 37 89 0 c49 0 89 -4 89 -8z m-49 -274 c7 -13 41 -63 76 -113 l65 -90 -32
-8 c-18 -4 -48 -7 -68 -5 -32 3 -45 14 -123 108 -48 58 -88 108 -88 112 -1 4
27 9 62 11 34 2 70 4 79 5 10 1 23 -8 29 -20z m-41 -535 c11 -19 10 -31 -8
-85 l-22 -63 26 -38 c14 -21 24 -40 22 -42 -4 -3 -362 -53 -366 -50 -1 1 4 15
13 31 28 53 20 76 -70 199 -47 64 -85 122 -85 129 0 7 24 66 54 132 29 65 57
128 60 138 6 17 35 -8 184 -155 98 -96 184 -184 192 -196z m213 262 c6 -23 0
-57 -27 -144 -20 -63 -39 -118 -44 -123 -6 -6 -23 -6 -43 0 l-34 8 -1 130 c0
71 -4 137 -8 146 -7 16 0 17 70 15 78 -2 78 -3 87 -32z m545 -301 c61 -29 112
-57 112 -63 0 -6 8 -11 18 -11 24 0 172 -60 172 -70 0 -5 -22 -27 -49 -49
l-49 -41 -31 35 c-33 38 -41 42 -41 21 0 -8 16 -28 35 -44 l34 -31 -63 -59
c-37 -34 -76 -62 -94 -65 -23 -5 -33 -14 -41 -39 -12 -33 -67 -106 -74 -97 -3
2 -16 23 -31 47 -36 58 -63 57 -136 -7 -84 -73 -94 -50 -39 91 27 71 22 88
-29 88 -32 0 -41 5 -50 25 -21 45 -15 62 23 75 43 14 47 45 11 79 -29 28 -62
88 -53 97 4 4 44 -1 89 -10 82 -16 83 -16 100 4 10 12 20 37 24 56 8 42 4 42
162 -32z m-646 -13 c20 -5 35 -22 62 -75 20 -38 36 -70 36 -72 0 -1 -21 -6
-47 -9 -27 -3 -58 -8 -70 -10 -32 -7 -66 54 -57 104 13 76 13 77 76 62z
m-4622 -142 c16 -30 8 -33 -52 -18 l-53 13 40 12 c54 17 53 17 65 -7z m-82
-51 c112 -40 152 -61 152 -80 0 -13 -101 3 -140 22 -19 10 -75 30 -125 45
-134 39 -135 40 -17 53 8 1 66 -17 130 -40z m4185 1 c-10 -17 -25 -36 -33 -43
-32 -28 -291 -45 -707 -49 l-401 -3 156 47 157 48 330 14 c182 8 372 15 423
16 l93 1 -18 -31z m-1598 5 c63 -7 110 -23 68 -24 -13 0 -65 -13 -116 -30
-127 -40 -166 -83 -169 -181 l-1 -52 -34 42 c-69 83 -134 99 -436 108 -115 3
-203 9 -195 13 7 4 54 13 103 19 134 19 551 90 620 106 33 7 69 11 80 9 11 -2
47 -7 80 -10z m-2781 -36 c105 -28 116 -33 86 -38 -45 -6 -45 -22 0 -36 41
-14 303 -39 560 -54 178 -11 558 -45 618 -56 43 -8 34 -16 -53 -49 -96 -36
-305 -136 -305 -147 0 -16 35 -8 137 32 l103 40 40 -38 c22 -22 62 -54 89 -73
56 -38 62 -49 27 -49 -14 0 -36 -4 -50 -10 -23 -8 -26 -15 -26 -55 0 -92 39
-137 105 -121 14 4 25 5 25 3 0 -2 -23 -41 -50 -87 -46 -76 -49 -85 -36 -104
13 -19 22 -21 100 -18 l86 3 0 -59 c0 -44 -5 -63 -17 -74 -44 -38 -417 -226
-500 -252 -34 -11 -204 12 -878 119 -291 46 -610 125 -698 173 -74 40 -104
112 -142 342 -23 135 -31 366 -15 414 16 50 72 85 198 125 111 36 390 99 441
100 19 1 89 -14 155 -31z m5140 -14 c3 -25 3 -50 0 -55 -3 -5 -24 -9 -48 -9
-41 0 -42 1 -44 37 -2 20 -5 40 -8 44 -3 5 8 11 23 15 15 3 33 7 38 9 26 9 33
2 39 -41z m-1794 32 c0 -2 -37 -16 -82 -31 -103 -34 -174 -69 -182 -90 -3 -9
-6 -34 -6 -55 l0 -39 -57 -6 c-32 -4 -65 -9 -75 -11 -23 -7 -29 9 -22 54 8 51
35 66 230 132 131 44 194 59 194 46z m-230 -11 c0 -2 -21 -11 -47 -18 -27 -8
-75 -26 -108 -40 -57 -23 -227 -45 -208 -26 4 4 78 26 163 48 145 37 200 48
200 36z m1894 -42 c3 -26 3 -50 -1 -53 -8 -7 -155 -27 -793 -111 -206 -27
-553 -74 -770 -104 -217 -30 -537 -73 -710 -95 -173 -23 -535 -72 -804 -110
-269 -39 -500 -70 -512 -70 -20 0 -24 5 -24 30 0 34 0 34 -35 18 -25 -11 -34
-28 -15 -28 6 0 10 -7 10 -15 0 -16 -42 -31 -58 -21 -14 8 -25 57 -15 67 8 8
177 34 763 118 190 28 442 64 560 81 469 68 783 112 1165 165 220 30 582 82
805 114 223 33 410 59 416 60 6 1 14 -20 18 -46z m-3181 -60 c-7 -2 -21 -2
-30 0 -10 3 -4 5 12 5 17 0 24 -2 18 -5z m1902 -8 c-26 -10 -598 -86 -610 -81
-8 3 -13 17 -12 33 3 32 -24 27 242 42 146 8 397 12 380 6z m-844 -19 c2 -2 2
-27 1 -54 l-4 -49 -116 -17 c-65 -9 -123 -16 -129 -16 -19 0 -17 91 3 118 14
21 23 22 128 22 62 0 115 -2 117 -4z m-1082 -23 c8 -6 10 -93 3 -93 -4 0 -24
11 -44 25 -45 30 -70 31 -212 5 -60 -11 -110 -19 -111 -17 -15 24 -45 79 -45
82 0 11 53 13 220 8 102 -3 187 -7 189 -10z m3391 13 c0 -2 -9 -25 -20 -51
-11 -26 -20 -61 -20 -79 0 -38 35 -82 73 -91 25 -7 76 13 108 42 15 12 17 11
22 -14 12 -61 50 -520 45 -535 -6 -15 -132 -89 -174 -102 -20 -6 -22 -2 -26
48 -3 41 -20 86 -61 171 l-56 115 31 51 c43 68 40 102 -11 189 l-42 70 16 52
c8 28 15 66 15 85 0 26 5 34 23 37 78 17 77 17 77 12z m-2857 -27 c86 -13 136
-37 171 -81 l25 -33 -27 -7 c-15 -4 -124 -21 -243 -38 l-217 -32 -21 21 c-16
16 -33 21 -70 21 -34 0 -56 6 -75 21 -23 18 -26 28 -26 80 l0 59 206 0 c113 0
238 -5 277 -11z m2687 -17 c0 -10 -7 -42 -16 -71 -19 -65 -16 -79 37 -170 l41
-71 -38 -65 c-37 -62 -39 -65 -92 -76 -71 -14 -78 -6 -52 60 37 96 21 160 -66
263 l-23 28 26 46 c28 51 31 52 99 64 77 12 84 12 84 -8z m-225 -29 c-32 -74
-30 -87 14 -143 23 -30 51 -71 62 -92 l19 -37 -31 -69 c-30 -67 -30 -70 -15
-107 10 -22 13 -42 8 -49 -5 -6 -41 -51 -81 -101 -40 -49 -107 -141 -149 -202
-41 -62 -78 -113 -81 -113 -10 1 -151 219 -151 232 0 7 27 58 61 112 81 131
83 150 30 221 -23 30 -44 61 -47 68 -3 8 11 38 31 68 41 63 44 93 10 143 -17
26 -21 38 -12 41 14 5 279 42 316 44 18 1 22 -3 16 -16z m-3425 -17 c0 -8 -7
-16 -15 -20 -15 -5 -21 14 -8 27 11 12 23 8 23 -7z m3043 -63 l30 -42 -42 -64
c-22 -35 -41 -74 -41 -87 0 -13 21 -50 46 -82 34 -44 45 -65 40 -81 -3 -13
-30 -63 -61 -111 -84 -135 -84 -143 -1 -260 41 -57 51 -76 38 -76 -28 0 -822
39 -1006 50 -93 5 -173 13 -177 17 -14 16 -94 408 -114 560 l-7 52 44 5 c23 3
108 15 188 26 80 11 201 27 270 35 215 27 725 96 735 100 18 6 27 0 58 -42z
m-2619 -20 c47 -32 85 -61 86 -64 0 -3 -32 -11 -70 -18 l-70 -11 -81 61 c-44
34 -78 63 -76 65 5 6 80 22 104 23 13 1 61 -25 107 -56z m-234 11 c8 -8 40
-34 72 -56 32 -23 56 -43 54 -46 -3 -2 -33 -10 -68 -18 l-63 -13 -83 57 c-46
31 -86 60 -88 64 -5 7 82 25 132 27 18 0 37 -6 44 -15z m-142 -71 c45 -31 79
-60 75 -64 -4 -4 -28 -9 -53 -10 -42 -2 -53 3 -124 57 -73 54 -77 59 -55 65
53 15 75 8 157 -48z m1676 -165 c16 -105 78 -424 92 -475 6 -21 3 -23 -37 -22
-100 3 -100 3 -125 114 -36 154 -86 467 -77 476 7 7 37 12 109 17 20 2 23 -7
38 -110z m-171 -44 c10 -71 33 -199 51 -284 19 -85 33 -156 31 -158 -7 -8
-191 20 -211 32 -17 12 -33 45 -59 128 -32 101 -85 332 -85 370 0 11 29 18
118 30 64 8 121 14 126 13 6 -1 18 -60 29 -131z m-353 41 c0 -25 1 -48 3 -52
1 -5 -15 -9 -35 -11 -20 -2 -41 -9 -46 -15 -6 -7 -12 -54 -13 -105 -3 -108 -2
-107 -103 -115 -41 -3 -74 -11 -83 -20 -11 -11 -17 -46 -22 -119 l-6 -103 -83
-6 c-46 -4 -89 -12 -95 -18 -8 -8 -12 -49 -12 -116 0 -64 -4 -105 -10 -105 -5
1 -42 31 -82 68 l-72 67 -11 185 c-6 102 -13 199 -15 216 -4 20 4 47 22 85 28
53 28 54 78 57 59 4 73 13 77 55 3 36 -26 29 283 72 241 33 225 34 225 -20z
m-540 -33 c0 -14 -23 -32 -42 -32 -23 0 -23 16 0 29 21 13 42 14 42 3z m-120
-9 c-1 -5 -27 -42 -58 -83 -56 -73 -58 -75 -111 -83 -30 -4 -56 -5 -58 -3 -3
2 15 37 40 78 l44 73 64 11 c35 7 67 12 72 13 4 1 7 -2 7 -6z m-180 -28 c0 -3
-20 -37 -45 -77 l-45 -73 -72 -12 c-40 -6 -74 -10 -76 -8 -2 2 20 39 50 82 45
66 58 79 88 84 45 8 100 10 100 4z m-231 -108 l-52 -75 -60 -11 c-33 -6 -62
-9 -64 -8 -2 2 22 39 52 83 55 79 55 79 113 89 31 6 58 8 60 5 1 -4 -21 -41
-49 -83z m1081 68 c0 -3 4 -47 10 -98 33 -302 95 -1116 86 -1125 -3 -2 -56 42
-118 99 -62 58 -172 157 -244 221 -72 65 -148 132 -168 151 l-36 34 0 121 0
120 85 3 c115 5 120 11 120 138 l0 99 35 6 c19 3 54 6 76 6 26 0 51 7 65 19
22 17 24 29 27 115 l4 96 29 0 c16 0 29 -2 29 -5z m2482 -100 c88 -167 88
-229 5 -371 -58 -97 -59 -98 -174 -107 -35 -3 -63 -1 -63 3 0 4 31 55 68 112
37 56 74 118 81 136 20 47 9 110 -33 198 -20 42 -34 79 -32 82 8 7 70 20 91
19 14 -1 31 -23 57 -72z m-148 -74 c41 -102 35 -140 -40 -238 -19 -25 -56 -82
-83 -128 -27 -45 -150 -217 -273 -381 -124 -164 -244 -327 -268 -361 -24 -35
-47 -63 -52 -63 -4 0 -34 32 -67 72 l-59 72 21 31 c12 16 94 129 182 250 89
121 206 283 260 360 186 264 338 466 346 458 4 -5 19 -37 33 -72z m-2192 -179
c34 -50 80 -66 236 -82 58 -6 109 -13 112 -15 4 -2 10 -46 14 -97 11 -169 35
-581 38 -681 l3 -98 -65 -36 c-36 -19 -82 -46 -103 -60 l-39 -24 -96 89 -97
89 -7 134 c-8 139 -17 254 -43 519 -8 85 -19 205 -25 265 -5 61 -12 137 -15
170 l-6 60 33 -96 c18 -53 45 -114 60 -137z m-876 183 c-4 -11 -12 -15 -22
-11 -9 3 -50 6 -92 7 -89 1 -64 16 30 18 31 1 60 6 64 12 10 17 28 -6 20 -26z
m1 -58 c0 -1 4 -44 8 -94 l8 -93 -46 0 c-44 0 -51 4 -151 93 -57 50 -105 96
-105 101 -1 7 278 -1 286 -7z m-309 -44 c10 -10 48 -46 85 -80 77 -72 81 -68
-70 -57 l-81 7 21 29 c15 21 22 43 21 74 0 24 1 44 3 44 1 0 11 -8 21 -17z
m119 -182 l83 -1 57 -52 c70 -62 69 -61 77 -123 14 -104 28 -115 138 -115 l49
0 266 -237 c146 -130 287 -257 314 -282 l48 -46 3 -119 3 -119 -126 7 c-106 5
-128 4 -139 -8 -8 -11 -11 -48 -9 -123 l4 -108 -40 2 c-130 8 -1191 110 -1255
120 l-45 8 -6 108 c-4 61 -11 113 -18 120 -6 7 -53 17 -104 22 l-92 10 -27
290 c-15 160 -30 323 -34 364 l-7 74 47 -6 c25 -4 69 -2 96 4 46 10 402 179
443 210 13 11 38 12 105 7 48 -3 124 -7 169 -7z m203 -16 c10 -12 10 -15 -3
-15 -8 0 -20 7 -27 15 -10 12 -10 15 3 15 8 0 20 -7 27 -15z m1905 -55 c193
-10 414 -22 493 -26 78 -3 142 -9 142 -11 0 -6 -143 -201 -281 -385 -180 -238
-183 -251 -88 -377 39 -51 58 -85 53 -93 -7 -12 -96 -129 -380 -502 l-101
-133 -174 155 -174 154 -7 167 c-18 441 -47 933 -63 1045 l-6 39 118 -7 c65
-3 276 -15 468 -26z m-1756 -173 c1 -5 -18 -7 -41 -5 l-43 3 -3 44 -3 45 44
-40 c25 -21 46 -43 46 -47z m3030 25 c57 -97 93 -163 90 -166 -2 -2 -43 -6
-90 -10 l-86 -7 -61 103 c-34 57 -62 108 -64 113 -3 11 53 22 127 23 l50 1 34
-57z m-240 -19 c11 -21 38 -65 60 -98 23 -33 41 -70 41 -81 0 -17 -286 -407
-490 -671 -16 -21 -20 -22 -45 -9 -35 18 -148 145 -142 160 3 6 119 165 260
352 140 188 261 351 269 363 18 29 25 27 47 -16z m279 -250 c-100 -138 -417
-558 -447 -595 -8 -9 -181 -36 -181 -29 0 3 28 42 63 86 164 208 354 456 396
517 l46 67 65 3 c36 2 73 5 83 6 13 2 8 -11 -25 -55z m-2277 -464 c32 -29 59
-55 59 -58 0 -7 -111 -64 -115 -59 -4 4 -11 168 -7 168 2 0 30 -23 63 -51z
m-1773 -44 c5 -5 23 -179 18 -190 -3 -10 -149 -5 -160 6 -3 2 -8 49 -12 103
l-7 99 79 -8 c43 -4 80 -8 82 -10z m3289 -172 c-15 -21 -106 -141 -203 -268
-97 -126 -218 -285 -268 -352 l-91 -122 -51 50 c-82 81 -84 88 -39 156 21 32
102 141 180 243 78 102 190 249 250 328 l108 143 70 -70 70 -71 -26 -37z
m-1625 28 c4 -3 10 -54 14 -112 l7 -107 -44 5 c-24 2 -80 7 -124 11 l-80 7 -3
107 -3 107 113 -6 c62 -3 116 -8 120 -12z m1997 -84 c35 -43 62 -80 60 -81 -2
-2 -44 -10 -92 -18 l-88 -14 -66 84 c-36 46 -63 85 -62 86 9 7 175 31 180 27
3 -4 34 -41 68 -84z m-223 -60 l57 -78 -60 -77 c-33 -42 -113 -151 -178 -242
-108 -151 -317 -433 -335 -453 -7 -7 -160 159 -168 181 -1 4 65 95 148 202 83
107 216 284 298 392 146 196 147 197 164 175 10 -12 43 -57 74 -100z m-1342
42 c20 -23 26 -42 26 -77 0 -26 5 -154 11 -285 8 -171 8 -245 1 -262 -6 -14
-28 -35 -49 -48 -21 -13 -102 -65 -179 -115 -78 -51 -144 -92 -146 -92 -3 0
-3 24 0 52 3 29 0 143 -6 253 -7 110 -14 250 -17 310 l-5 110 157 92 c87 50
163 92 170 92 6 1 23 -13 37 -30z m-1934 -14 c302 -30 780 -75 1155 -110 149
-14 293 -28 320 -33 l50 -7 3 -108 c3 -107 3 -108 -20 -102 -24 5 -163 20
-723 80 -564 60 -704 74 -895 91 -102 9 -186 17 -187 17 -1 2 -5 187 -4 200 1
4 11 5 24 2 12 -2 137 -16 277 -30z m3543 -117 c-6 -7 -80 -105 -164 -218
-389 -516 -406 -537 -441 -543 -107 -19 -131 -20 -122 -6 4 8 74 102 154 209
80 107 181 245 225 305 43 61 99 137 123 170 25 33 47 62 48 64 6 7 118 29
153 30 25 1 31 -2 24 -11z m-3578 -123 c99 -9 340 -34 535 -55 663 -73 920
-100 968 -100 26 0 52 -4 58 -8 6 -4 16 -81 23 -177 17 -227 2 -317 -55 -331
-36 -9 -156 3 -164 16 -4 6 -15 65 -25 131 -13 92 -21 122 -35 129 -10 5 -155
23 -321 40 -167 17 -385 42 -484 55 -280 37 -467 57 -510 53 -47 -4 -53 -17
-54 -129 -1 -42 -4 -78 -7 -82 -9 -8 -115 31 -137 51 -45 41 -51 69 -55 255
l-4 179 44 -6 c23 -3 124 -13 223 -21z m425 -334 c218 -28 497 -60 620 -72
124 -12 228 -25 232 -28 7 -6 41 -222 35 -226 -2 -2 -417 45 -616 70 -117 15
-651 100 -698 112 -21 5 -23 11 -23 62 0 95 9 131 34 131 11 0 199 -22 416
-49z m2229 -231 l52 -60 -47 -66 c-26 -36 -50 -62 -54 -57 -4 4 -30 35 -58 69
l-50 61 45 56 c24 32 48 57 52 57 5 0 31 -27 60 -60z m-670 -72 c21 -68 66
-229 99 -358 52 -204 94 -383 232 -972 l27 -117 -61 -21 c-34 -11 -196 -54
-361 -96 -165 -42 -347 -89 -405 -104 -58 -15 -108 -26 -112 -24 -4 3 -12 30
-18 62 -25 124 -114 486 -181 735 -39 144 -93 352 -120 462 -27 110 -58 235
-69 279 -11 43 -18 82 -15 85 2 4 113 -5 247 -21 272 -31 301 -29 397 22 31
17 108 66 171 109 63 43 118 79 122 80 4 0 25 -54 47 -121z m-1952 78 c71 -14
250 -44 398 -66 149 -23 271 -43 273 -44 1 -2 -36 -33 -83 -70 -80 -64 -85
-66 -107 -52 -36 23 -319 138 -470 191 -76 26 -146 54 -155 62 -17 13 -17 14
-1 9 10 -3 75 -16 145 -30z m175 -148 c158 -60 300 -111 315 -113 36 -4 91 25
178 92 l70 55 55 -7 c30 -4 57 -8 59 -10 1 -2 -29 -34 -67 -72 -90 -87 -93
-103 -59 -259 18 -78 23 -123 17 -138 -4 -13 -29 -130 -55 -262 -25 -131 -48
-246 -51 -254 -2 -8 -47 -40 -100 -70 -52 -30 -101 -62 -109 -70 -14 -16 -32
-90 -37 -153 -2 -21 -14 -36 -46 -58 -25 -17 -46 -28 -48 -27 -2 2 35 197 81
432 82 419 97 506 110 634 11 103 -9 70 -34 -55 -12 -65 -47 -233 -77 -373
-30 -140 -71 -336 -90 -435 -47 -245 -42 -228 -62 -220 -9 4 -172 63 -362 132
-190 68 -349 128 -353 132 -4 4 24 206 63 447 99 606 115 683 161 776 l19 37
67 -25 c38 -14 197 -75 355 -136z m2562 13 l27 -28 -45 -12 c-76 -19 -81 -16
-49 29 15 22 31 40 34 40 3 0 18 -13 33 -29z m-1765 -248 c29 -120 93 -369
142 -553 89 -340 204 -819 197 -826 -10 -10 -79 33 -82 51 -2 11 -12 60 -23
110 l-18 89 -84 26 c-63 20 -86 32 -92 47 -4 12 -26 111 -49 220 -22 109 -56
266 -75 348 -35 154 -99 452 -110 515 -5 28 -1 42 20 70 25 35 105 116 116
119 3 0 29 -97 58 -216z m-353 -840 c-4 -21 -27 -141 -51 -268 -24 -126 -67
-358 -95 -515 -28 -157 -58 -306 -66 -333 -14 -41 -33 -62 -156 -170 -146
-128 -166 -142 -154 -111 4 10 25 122 47 249 21 126 63 362 91 524 l52 294 63
41 c67 44 78 63 89 149 4 29 10 58 14 66 7 14 148 109 164 110 4 1 5 -16 2
-36z m-1100 -72 c5 -5 52 -25 104 -45 155 -57 553 -198 586 -207 l31 -9 -24
-127 c-13 -71 -52 -301 -88 -513 -75 -441 -85 -483 -120 -506 -38 -25 -89 -14
-290 61 -325 121 -379 147 -395 186 -14 34 -3 163 31 349 11 58 44 254 74 435
31 182 58 342 61 358 6 28 14 33 30 18z m1573 -234 l65 -22 19 -104 19 -103
63 -28 c36 -16 65 -36 69 -47 12 -42 138 -689 186 -953 28 -157 59 -327 70
-379 11 -52 19 -96 17 -97 -4 -4 -201 146 -235 179 -55 53 -71 103 -113 344
-37 218 -66 373 -178 962 -28 145 -51 266 -51 268 0 4 -2 5 69 -20z m1231 -44
c0 -17 226 -1145 266 -1328 18 -82 14 -147 -13 -184 -42 -58 -247 -127 -594
-201 -210 -45 -236 -47 -284 -24 -50 23 -58 55 -130 479 -46 274 -172 932
-191 996 -3 12 4 18 28 23 81 15 808 206 853 224 57 23 65 25 65 15z"/>
<path d="M4133 8330 c-70 -15 -115 -41 -175 -103 -54 -57 -59 -59 -95 -54 -21
3 -48 9 -60 13 -36 10 -29 -19 13 -56 20 -17 34 -33 31 -36 -2 -3 -28 -7 -56
-11 -28 -3 -50 -10 -48 -16 6 -18 70 -47 103 -47 l31 0 6 -87 c6 -104 30 -187
61 -218 26 -25 19 -25 346 -5 115 8 150 13 170 28 41 31 54 69 54 162 -2 282
-171 473 -381 430z m153 -75 c51 -15 98 -51 129 -98 22 -35 18 -39 -29 -26
-30 8 -44 7 -73 -8 -54 -27 -76 -63 -81 -133 -8 -116 55 -210 141 -210 23 0
53 7 65 16 31 22 41 9 14 -18 -19 -20 -37 -23 -164 -30 -79 -5 -178 -12 -221
-16 -43 -4 -82 -5 -87 -2 -23 14 -52 107 -57 179 -12 172 73 309 215 347 63
17 89 17 148 -1z m66 -210 c9 -21 8 -28 -7 -45 -24 -27 -53 -25 -66 4 -15 32
4 66 37 66 16 0 28 -8 36 -25z"/>
<path d="M4775 7801 c-48 -10 -35 -24 25 -28 119 -7 157 -101 67 -167 -32 -24
-139 -34 -187 -18 -44 16 -40 -10 5 -31 48 -23 139 -22 190 2 64 30 88 63 89
122 1 46 -2 54 -36 85 -25 22 -48 34 -67 34 -16 0 -35 2 -43 4 -7 2 -26 1 -43
-3z"/>
<path d="M4590 7146 c14 -14 186 -14 199 -1 7 7 -24 11 -99 11 -79 0 -107 -3
-100 -10z"/>
<path d="M1852 6679 c2 -12 14 -30 28 -40 59 -44 378 -103 799 -149 152 -16
317 -34 368 -40 119 -13 283 -13 283 0 0 6 -3 10 -7 10 -14 0 -536 60 -658 76
-200 25 -636 94 -704 111 -35 9 -73 25 -83 35 -24 24 -30 23 -26 -3z"/>
<path d="M3434 6335 c-10 -25 62 -585 82 -645 4 -12 7 -12 16 3 21 39 -52 619
-83 651 -5 6 -11 2 -15 -9z"/>
</g>
</svg>
