<?xml version="1.0" standalone="no"?>
<!DOCTYPE svg PUBLIC "-//W3C//DTD SVG 20010904//EN"
 "http://www.w3.org/TR/2001/REC-SVG-20010904/DTD/svg10.dtd">
<svg version="1.0" xmlns="http://www.w3.org/2000/svg"
 width="1024.000000pt" height="1024.000000pt" viewBox="0 0 1024.000000 1024.000000"
 preserveAspectRatio="xMidYMid meet">
<metadata>
Created by potrace 1.16, written by Peter Selinger 2001-2019
</metadata>
<g transform="translate(0.000000,1024.000000) scale(0.100000,-0.100000)"
fill="#000000" stroke="none">
<path d="M8413 8608 c-33 -38 -101 -139 -318 -473 -468 -721 -595 -931 -544
-899 10 6 220 319 379 564 40 63 157 243 258 400 162 251 262 413 262 426 0
11 -19 2 -37 -18z"/>
<path d="M2900 8617 c0 -14 73 -161 170 -342 59 -110 135 -254 170 -320 34
-66 66 -124 70 -130 4 -5 36 -64 70 -130 173 -331 290 -527 290 -487 0 23
-311 625 -575 1112 -92 170 -167 293 -182 298 -7 2 -13 1 -13 -1z"/>
<path d="M9733 8559 c-190 -171 -1653 -1623 -1653 -1641 0 -5 4 -8 9 -8 28 0
1669 1614 1704 1677 19 32 -4 22 -60 -28z"/>
<path d="M1250 8578 c0 -8 50 -68 112 -133 288 -309 1555 -1605 1600 -1637 79
-56 18 19 -201 247 -814 849 -1428 1476 -1483 1516 -20 15 -28 17 -28 7z"/>
<path d="M6945 8454 c-91 -210 -275 -714 -275 -753 0 -50 50 58 163 354 107
278 151 415 139 427 -8 8 -15 -1 -27 -28z"/>
<path d="M4717 8453 c-3 -10 -13 -57 -22 -105 -29 -143 -61 -179 -187 -213
-37 -10 -58 -21 -58 -30 0 -9 22 -21 58 -31 134 -39 157 -66 189 -224 27 -128
43 -131 68 -13 24 121 45 167 92 196 29 20 141 57 169 57 2 0 4 6 4 13 0 8
-19 19 -42 26 -86 26 -127 43 -152 62 -26 20 -48 82 -78 213 -13 60 -32 82
-41 49z m69 -267 c11 -17 43 -41 79 -57 49 -22 56 -29 40 -34 -99 -33 -126
-60 -155 -153 -10 -32 -20 -50 -23 -42 -2 8 -10 34 -16 57 -15 55 -55 102
-109 125 -24 11 -42 22 -39 24 2 2 28 17 58 32 43 21 59 36 76 72 12 25 22 57
22 71 1 47 16 41 32 -13 8 -29 24 -67 35 -82z"/>
<path d="M7416 8361 c-4 -5 -13 -47 -22 -92 -32 -170 -59 -201 -211 -239 -66
-17 -54 -35 43 -65 110 -36 126 -55 163 -207 18 -73 33 -113 41 -113 9 0 21
37 37 110 31 143 51 170 154 205 113 39 106 35 91 52 -7 9 -29 18 -50 21 -56
10 -135 53 -155 86 -14 24 -32 89 -62 229 -6 23 -19 29 -29 13z m34 -205 c17
-63 53 -104 114 -131 l50 -22 -57 -26 c-61 -28 -88 -61 -109 -132 -17 -60 -24
-61 -37 -8 -19 72 -45 107 -107 140 l-57 31 36 11 c71 24 117 81 132 165 9 45
18 38 35 -28z"/>
<path d="M5840 8021 c-53 -17 -91 -43 -129 -91 -58 -73 -151 -248 -205 -385
-26 -66 -52 -131 -57 -144 -7 -17 -15 -22 -32 -18 -12 3 -76 13 -142 22 -66 9
-169 23 -230 32 -270 40 -520 6 -724 -97 -57 -28 -302 -194 -486 -329 -49 -37
-101 -74 -115 -83 -26 -18 -38 -27 -351 -255 -300 -218 -372 -293 -459 -476
-49 -103 -84 -224 -107 -369 -14 -91 -17 -179 -17 -458 0 -400 8 -521 70 -977
64 -472 196 -1079 301 -1378 98 -280 327 -515 603 -618 66 -25 298 -83 625
-157 99 -23 245 -56 325 -75 80 -19 237 -55 350 -80 113 -25 239 -54 280 -65
41 -10 181 -43 310 -71 231 -52 238 -53 405 -53 147 -1 181 2 254 22 207 56
267 94 606 377 99 83 292 243 430 355 309 254 382 322 449 424 123 185 175
329 211 583 8 59 24 160 35 223 38 227 87 662 112 1005 17 232 17 882 0 1055
-43 431 -140 689 -329 871 -162 157 -300 215 -714 299 -201 40 -557 101 -849
145 -91 14 -171 27 -178 30 -20 7 33 78 148 200 107 114 125 149 118 224 -6
61 -31 111 -85 171 -57 64 -122 106 -201 130 -65 20 -174 25 -222 11z m204
-153 c102 -38 203 -174 154 -204 -17 -11 -119 -7 -166 5 -107 29 -221 161
-177 205 24 24 120 21 189 -6z m-216 -72 c31 -84 155 -166 265 -174 31 -2 57
-6 57 -9 0 -2 -36 -45 -81 -96 -100 -114 -184 -240 -249 -372 -76 -156 -105
-246 -144 -440 l-22 -110 -65 -3 c-35 -2 -79 0 -96 3 -33 6 -33 6 -33 65 0 79
35 347 61 467 25 113 83 294 134 413 38 89 145 290 155 290 3 0 12 -15 18 -34z
m-633 -522 c138 -20 252 -37 253 -39 5 -4 -19 -110 -27 -123 -4 -6 -83 2 -206
19 -411 59 -513 59 -676 -1 -120 -44 -193 -92 -835 -557 -433 -313 -464 -340
-538 -483 -72 -138 -86 -238 -93 -630 -9 -531 39 -999 168 -1635 54 -269 155
-653 197 -753 48 -114 146 -239 252 -320 86 -66 245 -121 550 -187 116 -26
408 -92 745 -170 319 -74 623 -141 829 -184 163 -34 270 -24 389 35 157 79
238 214 273 454 15 107 18 219 5 205 -4 -6 -14 -50 -21 -100 -31 -219 -83
-356 -169 -440 -62 -61 -94 -81 -170 -106 -123 -41 -246 -26 -766 96 -74 17
-173 40 -480 109 -925 211 -998 230 -1100 284 -27 15 -91 67 -140 117 -134
133 -160 191 -254 551 -173 667 -274 1391 -273 1964 0 368 26 542 103 697 93
188 259 273 508 260 95 -5 510 -55 836 -102 216 -31 298 -39 268 -26 -44 19
-942 166 -1073 175 -47 4 -118 3 -157 -2 -40 -4 -73 -5 -73 -1 0 4 93 74 208
155 114 82 275 198 357 258 393 287 498 336 715 336 79 0 545 -52 593 -66 20
-6 20 -5 2 -124 -8 -52 -18 -148 -22 -213 l-6 -119 -33 7 c-68 12 -163 49
-278 107 -144 72 -170 67 -84 -16 71 -69 207 -137 344 -172 91 -23 111 -25
264 -21 144 4 180 8 284 35 158 42 296 108 296 143 0 3 -37 -4 -82 -17 -82
-22 -285 -64 -314 -64 -18 0 -17 5 27 182 40 160 56 198 84 198 51 0 810 -125
1117 -185 136 -26 345 -76 392 -95 36 -13 58 8 -224 -216 -368 -291 -509 -404
-613 -491 -54 -46 -102 -83 -108 -83 -5 0 -28 10 -51 21 -48 25 -132 53 -202
69 -67 15 -381 60 -419 60 -51 0 -18 -16 68 -34 405 -84 403 -83 517 -135 88
-40 179 -111 233 -184 114 -150 151 -287 180 -666 9 -107 18 -197 20 -199 23
-24 15 422 -11 547 -13 66 -56 203 -78 252 -5 11 34 47 156 144 90 71 313 250
495 397 183 148 336 268 339 268 11 0 73 -148 88 -210 99 -429 99 -1026 0
-1910 -18 -167 -68 -518 -94 -665 -59 -331 -124 -435 -430 -686 -84 -68 -238
-195 -344 -281 -105 -86 -192 -155 -194 -153 -4 4 9 168 29 355 33 325 68
1205 50 1251 -9 23 -10 23 -10 -7 -6 -295 -88 -1305 -127 -1559 -34 -227 -114
-370 -262 -468 -112 -75 -174 -92 -332 -91 -127 0 -150 4 -390 58 -549 123
-1594 365 -1730 400 -207 53 -301 104 -430 235 -104 106 -156 185 -213 326
-34 85 -108 348 -141 500 -9 39 -24 108 -35 155 -17 76 -73 373 -100 535 -61
355 -93 739 -94 1105 -1 462 23 610 134 832 66 131 132 192 475 440 44 31 156
112 249 180 288 209 529 376 597 412 82 43 211 84 302 96 104 13 231 4 511
-36z m1003 -149 c803 -130 1140 -198 1295 -260 244 -99 404 -318 471 -645 52
-258 60 -363 60 -785 -1 -558 -37 -970 -149 -1705 -47 -308 -100 -453 -230
-618 -57 -73 -109 -119 -440 -392 -103 -85 -260 -216 -349 -290 -162 -136
-279 -229 -305 -245 -8 -5 2 13 22 40 40 52 81 133 106 209 15 47 28 59 202
200 601 487 626 509 693 610 75 113 121 252 156 471 82 522 116 825 151 1385
14 220 6 680 -15 860 -42 350 -97 501 -236 641 -101 102 -187 144 -410 198
-204 49 -847 164 -1245 221 -115 17 -110 11 -75 80 25 50 35 60 56 60 14 0
123 -16 242 -35z m1318 -483 c60 -39 144 -125 144 -147 0 -6 -93 -86 -206
-176 -114 -90 -252 -201 -308 -246 -379 -307 -462 -373 -471 -372 -5 0 -29 24
-53 54 -23 30 -67 74 -97 97 -30 24 -54 45 -54 48 -1 3 29 29 67 57 76 58 212
167 622 496 156 125 287 227 290 227 4 0 34 -17 66 -38z"/>
<path d="M3543 6195 c-198 -61 -337 -291 -338 -557 0 -88 2 -98 24 -122 29
-31 59 -33 94 -6 19 15 36 50 62 134 64 199 124 278 267 351 105 54 126 70
140 104 12 34 -7 78 -43 96 -35 19 -148 19 -206 0z m205 -40 c12 -15 22 -32
22 -39 0 -22 -43 -53 -122 -90 -90 -41 -174 -114 -217 -190 -16 -28 -48 -107
-72 -174 -33 -99 -47 -126 -66 -135 -19 -8 -27 -7 -41 7 -14 14 -17 35 -17
114 1 261 155 490 356 532 70 14 130 4 157 -25z"/>
<path d="M4236 5869 c-117 -29 -255 -124 -315 -217 -59 -93 -33 -106 69 -37
101 67 195 95 323 95 122 0 133 3 153 41 18 35 10 70 -22 100 -21 20 -37 24
-97 26 -40 1 -90 -2 -111 -8z"/>
<path d="M5280 5774 c-61 -25 -79 -95 -37 -138 19 -19 39 -25 100 -30 156 -15
261 -63 377 -172 37 -35 73 -64 79 -64 23 0 10 66 -25 125 -77 128 -152 195
-277 247 -67 29 -183 45 -217 32z"/>
<path d="M4204 5495 c-77 -24 -130 -58 -200 -130 -170 -172 -241 -450 -185
-723 11 -51 29 -112 40 -136 12 -23 21 -45 21 -49 0 -4 -15 -7 -34 -7 -19 0
-41 -3 -50 -6 -37 -14 -11 -30 75 -47 170 -34 261 -82 392 -206 41 -39 77 -71
81 -71 3 0 6 7 6 15 0 8 9 15 20 15 14 0 20 -7 20 -22 1 -66 74 -156 149 -183
60 -21 99 -19 151 8 64 32 61 44 -9 39 -71 -5 -121 10 -167 50 -58 52 -63 120
-12 176 31 32 114 31 186 -3 63 -29 62 -29 62 -11 0 14 -53 65 -87 84 -16 10
-16 12 -1 29 9 10 32 45 52 77 l35 59 11 -29 c31 -85 49 -121 91 -182 40 -59
115 -132 166 -160 17 -10 17 -11 -1 -31 -25 -28 -3 -28 35 0 55 39 204 101
277 115 99 19 195 18 325 -5 59 -10 110 -14 113 -10 6 11 -51 46 -88 54 -15 4
-30 10 -32 14 -3 4 11 32 31 61 93 138 128 268 127 465 0 123 -4 151 -28 230
-72 236 -210 380 -410 431 -175 44 -384 -50 -510 -230 -24 -33 -46 -69 -49
-79 -8 -21 -27 -14 -27 9 0 9 -17 55 -37 102 -51 117 -145 216 -256 267 -68
32 -84 35 -159 34 -46 -1 -101 -7 -124 -14z m271 -76 c80 -37 175 -139 222
-239 62 -129 68 -168 43 -269 -16 -63 -21 -116 -21 -210 0 -70 2 -138 6 -153
9 -34 -36 -126 -92 -188 -38 -42 -48 -48 -93 -52 -43 -4 -57 -12 -104 -57 -73
-68 -98 -69 -154 -2 -50 59 -169 141 -249 171 -32 12 -66 28 -75 37 -25 22
-74 167 -88 258 -23 151 12 350 85 481 64 115 167 207 268 240 63 21 189 12
252 -17z m881 -73 c216 -57 351 -244 385 -530 20 -170 -28 -368 -124 -513
l-42 -63 -116 0 c-138 0 -233 -26 -337 -91 l-63 -39 -44 30 c-99 68 -177 188
-227 350 -32 106 -32 289 1 410 61 229 217 400 404 446 69 16 102 16 163 0z"/>
<path d="M4369 5184 c-163 -50 -264 -303 -215 -535 36 -168 150 -280 270 -267
171 20 292 254 259 500 -30 220 -164 349 -314 302z m226 -130 c41 -16 60 -126
31 -183 -13 -24 -52 -51 -76 -51 -22 0 -71 55 -80 90 -8 31 -7 47 6 80 24 60
68 83 119 64z"/>
<path d="M5069 5085 c-83 -43 -154 -152 -180 -274 -17 -84 -6 -262 20 -332 91
-239 355 -253 470 -26 55 109 75 258 52 379 -42 213 -211 332 -362 253z m279
-111 c32 -22 52 -67 52 -118 0 -36 -6 -52 -31 -81 -92 -104 -214 59 -127 170
34 43 71 54 106 29z"/>
<path d="M3216 5371 c-55 -60 -45 -239 17 -284 l27 -21 27 21 c16 11 33 38 40
59 23 77 11 194 -23 229 -21 21 -67 19 -88 -4z m92 -108 c9 -165 -76 -217 -93
-58 -12 110 26 188 70 145 14 -15 20 -37 23 -87z"/>
<path d="M5135 3920 c-4 -6 16 -20 44 -32 28 -11 51 -25 51 -30 0 -14 -149
-106 -210 -129 -133 -51 -315 -61 -455 -24 -88 23 -198 81 -266 142 -59 52
-79 63 -79 43 0 -47 104 -149 207 -203 110 -58 208 -80 343 -80 178 1 319 50
463 159 31 24 60 44 65 44 4 0 25 -25 47 -55 22 -30 43 -55 47 -55 4 0 8 13 8
29 0 68 -59 148 -135 182 -44 20 -120 25 -130 9z"/>
<path d="M4490 3502 c0 -4 15 -23 33 -40 38 -37 112 -68 183 -77 80 -11 234
34 234 67 0 6 -8 7 -17 4 -9 -4 -50 -11 -91 -17 -94 -13 -186 1 -272 42 -68
32 -70 33 -70 21z"/>
<path d="M9430 7176 c-84 -49 -560 -358 -697 -453 -68 -46 -123 -89 -123 -95
0 -5 8 -7 18 -4 55 21 699 433 835 534 78 60 57 71 -33 18z"/>
<path d="M9815 6776 c-153 -64 -419 -180 -880 -383 -327 -145 -594 -274 -578
-280 13 -5 180 59 355 135 62 27 156 68 208 90 52 22 142 62 200 87 58 26 170
75 250 110 438 190 611 272 618 294 6 19 -18 11 -173 -53z"/>
<path d="M1213 6796 c33 -27 249 -150 477 -271 91 -49 251 -134 355 -190 329
-176 546 -287 552 -281 3 2 2 9 -1 14 -8 13 -168 106 -391 227 -99 54 -198
108 -220 120 -147 82 -578 311 -662 354 -111 55 -159 67 -110 27z"/>
<path d="M950 6370 c0 -6 29 -24 65 -40 124 -56 749 -277 834 -295 44 -9 34 9
-17 31 -67 29 -514 195 -667 249 -175 61 -215 71 -215 55z"/>
<path d="M8680 5983 c-27 -142 -53 -215 -89 -247 -9 -8 -57 -28 -106 -44 -69
-23 -90 -34 -90 -48 0 -14 15 -22 65 -34 134 -34 167 -70 201 -219 25 -113 35
-141 49 -141 5 0 12 10 14 23 17 92 48 205 64 236 25 48 65 73 148 95 79 21
108 41 84 56 -8 5 -38 15 -65 21 -69 15 -135 49 -157 79 -10 14 -33 83 -50
153 -35 143 -50 159 -68 70z m44 -154 c10 -58 61 -128 109 -149 23 -11 50 -20
59 -20 33 0 28 -19 -9 -31 -88 -28 -142 -92 -167 -192 -7 -31 -26 -27 -26 6 0
38 -47 123 -81 150 -19 14 -49 29 -67 34 -40 10 -38 25 7 40 19 7 46 20 60 31
35 25 80 109 81 148 0 61 22 51 34 -17z"/>
<path d="M2140 5878 c-5 -13 -16 -61 -25 -108 -20 -105 -59 -188 -103 -217
-30 -20 -86 -39 -165 -57 -26 -6 -46 -30 -35 -42 3 -2 38 -14 78 -25 160 -44
187 -77 229 -282 18 -83 33 -118 47 -105 3 3 14 50 25 105 11 54 33 126 49
159 25 55 33 64 81 87 30 14 81 32 113 40 102 27 101 45 -4 72 -156 40 -195
87 -240 292 -11 51 -20 95 -20 98 0 15 -22 2 -30 -17z m30 -163 c0 -40 42
-136 74 -168 27 -27 69 -50 131 -71 16 -6 8 -12 -39 -31 -33 -13 -74 -38 -91
-55 -34 -33 -75 -124 -75 -166 0 -35 -17 -29 -25 9 -12 56 -63 152 -92 173
-15 11 -49 29 -75 39 -27 10 -48 21 -48 24 0 3 24 15 52 25 77 27 120 76 146
163 12 39 22 76 22 83 0 6 5 8 10 5 6 -3 10 -17 10 -30z"/>
<path d="M9205 5493 c-44 -208 -49 -216 -170 -251 -81 -24 -78 -41 10 -69 96
-31 117 -56 146 -177 29 -123 45 -125 70 -9 29 134 52 160 172 193 65 18 59
39 -18 62 -112 33 -121 43 -150 168 -9 41 -19 83 -22 93 -7 27 -32 20 -38 -10z
m39 -145 c10 -53 41 -94 90 -118 25 -12 46 -23 46 -25 0 -2 -20 -13 -44 -24
-46 -20 -71 -48 -90 -104 -14 -42 -29 -46 -37 -10 -12 59 -39 94 -91 118 l-50
23 46 20 c49 22 79 61 97 125 12 43 24 41 33 -5z"/>
<path d="M1445 5208 c-3 -7 -12 -47 -20 -88 -30 -143 -78 -200 -182 -216 -44
-6 -73 -29 -57 -43 5 -4 38 -15 73 -25 35 -9 77 -26 92 -37 32 -22 60 -92 79
-192 20 -111 42 -103 70 26 31 143 56 173 166 203 59 16 86 35 71 50 -3 3 -31
12 -64 21 -120 31 -147 65 -179 226 -11 59 -21 87 -31 87 -7 0 -16 -6 -18 -12z
m34 -186 c15 -53 61 -106 112 -128 47 -21 49 -30 9 -39 -45 -10 -95 -63 -116
-122 -19 -53 -34 -69 -34 -35 0 10 -12 41 -26 70 -21 43 -34 56 -80 78 l-54
27 48 22 c58 27 88 66 105 134 13 56 18 55 36 -7z"/>
<path d="M8492 4609 c5 -16 103 -44 348 -98 203 -45 300 -59 300 -42 0 6 -10
15 -22 20 -38 14 -325 78 -453 100 -66 12 -133 24 -149 27 -21 5 -27 3 -24 -7z"/>
<path d="M2230 4455 c-178 -38 -477 -110 -516 -126 -49 -18 -14 -29 56 -18
199 32 651 146 658 167 5 17 -23 14 -198 -23z"/>
<path d="M8340 4001 c0 -20 127 -95 357 -210 56 -28 104 -51 107 -51 38 0 -72
72 -279 183 -147 79 -185 95 -185 78z"/>
<path d="M9196 3838 c-2 -7 -13 -60 -25 -118 -12 -58 -34 -130 -49 -160 -24
-49 -34 -58 -90 -86 -35 -17 -87 -36 -117 -43 -62 -14 -87 -34 -58 -49 10 -5
47 -17 83 -27 79 -21 128 -45 157 -77 25 -27 54 -111 78 -228 10 -47 22 -89
26 -94 12 -14 39 13 39 38 0 31 49 214 65 247 26 49 74 78 181 111 60 19 104
37 104 45 0 7 -18 17 -39 23 -161 43 -216 73 -245 134 -14 30 -52 173 -72 274
-5 23 -32 31 -38 10z m53 -243 c13 -38 34 -85 48 -104 27 -35 112 -81 151 -81
23 0 31 -18 10 -24 -74 -21 -102 -33 -133 -58 -42 -35 -61 -69 -91 -163 -12
-38 -24 -63 -26 -55 -50 161 -53 166 -95 207 -30 30 -59 47 -98 58 -30 9 -55
19 -55 23 0 4 26 15 58 24 104 31 142 81 183 238 13 50 10 54 48 -65z"/>
<path d="M2450 3664 c-96 -52 -238 -132 -315 -177 -368 -213 -802 -467 -910
-532 -233 -139 -512 -303 -665 -390 -214 -122 -318 -191 -306 -203 8 -7 275
132 446 233 58 34 177 104 265 155 88 51 230 135 315 185 85 51 250 147 365
215 415 241 473 275 675 395 259 154 320 193 320 205 0 6 -3 10 -7 10 -5 0
-87 -43 -183 -96z"/>
<path d="M2703 3224 c-233 -197 -628 -542 -1103 -964 -566 -502 -709 -635
-696 -647 12 -12 150 104 552 462 105 93 281 249 390 345 468 412 856 762 913
824 46 49 13 37 -56 -20z"/>
<path d="M8295 3218 c-3 -13 -19 -90 -36 -171 -57 -275 -90 -315 -314 -382
-172 -51 -173 -57 -19 -102 131 -38 207 -75 240 -119 43 -56 54 -92 129 -431
7 -30 33 -30 39 0 3 12 17 80 31 150 39 192 74 272 138 321 30 23 155 69 260
96 63 17 65 45 5 60 -88 22 -224 72 -260 96 -67 43 -110 147 -148 354 -12 63
-24 123 -26 133 -7 24 -33 21 -39 -5z m35 -181 c0 -30 45 -191 66 -235 33 -70
93 -116 203 -153 56 -18 101 -36 101 -39 0 -3 -36 -16 -81 -29 -98 -30 -158
-67 -199 -122 -29 -40 -81 -188 -96 -272 -3 -21 -8 -36 -11 -34 -2 3 -12 40
-23 84 -54 225 -118 303 -287 349 -35 9 -63 20 -63 24 0 3 31 17 70 29 106 35
170 77 206 138 32 54 68 158 79 228 4 22 8 46 11 53 6 20 24 4 24 -21z"/>
<path d="M2715 2898 c-2 -7 -12 -49 -20 -93 -26 -129 -60 -216 -98 -251 -32
-30 -53 -39 -190 -80 -82 -24 -73 -40 40 -74 116 -35 152 -56 180 -105 22 -40
52 -139 73 -247 9 -45 15 -58 29 -58 15 0 22 17 36 93 39 204 77 258 212 301
120 37 133 43 133 60 0 14 -14 20 -124 51 -132 37 -169 87 -214 287 -25 111
-44 151 -57 116z m43 -234 c36 -118 72 -158 183 -199 50 -18 60 -25 44 -30
-94 -32 -129 -52 -163 -90 -35 -40 -82 -148 -82 -187 0 -36 -16 -16 -28 35
-22 91 -59 156 -111 188 -25 16 -64 35 -86 41 -48 14 -68 28 -38 28 11 0 51
16 89 35 82 41 116 87 142 194 9 38 20 67 23 63 4 -4 16 -39 27 -78z"/>
</g>
</svg>
