<?xml version="1.0" encoding="UTF-8" standalone="yes"?>
<svg version="1.0" xmlns="http://www.w3.org/2000/svg" width="1024.000000pt" height="1024.000000pt" viewBox="0 0 1024.000000 1024.000000" preserveAspectRatio="xMidYMid meet">
  <metadata>
Created by potrace 1.16, written by Peter Selinger 2001-2019
</metadata>
  <g transform="translate(0.000000,1024.000000) scale(0.100000,-0.100000)" fill="#000000" stroke="none">
    <path d="M6914 9275 c-77 -17 -134 -45 -190 -97 -48 -44 -104 -146 -104 -189&#xA;0 -27 0 -27 -42 -17 -24 5 -77 7 -118 3 -203 -18 -358 -125 -411 -282 -35&#xA;-106 -19 -266 35 -345 l23 -34 -24 -30 c-14 -16 -36 -54 -51 -83 -67 -144 -21&#xA;-373 94 -467 50 -41 157 -84 209 -84 l35 0 0 -89 c0 -48 7 -127 15 -174 14&#xA;-82 14 -88 -4 -119 -54 -93 -68 -251 -32 -367 l20 -63 -26 -57 c-83 -186 -114&#xA;-320 -115 -494 0 -173 41 -308 136 -441 93 -130 289 -286 417 -332 27 -10 49&#xA;-22 49 -26 0 -5 -45 -38 -100 -73 -107 -70 -106 -69 -112 -175 l-3 -45 -203&#xA;-135 c-111 -74 -230 -150 -265 -168 l-62 -34 -57 34 c-146 89 -334 115 -441&#xA;61 -76 -38 -91 -165 -25 -212 18 -12 16 -15 -34 -38 -118 -54 -162 -136 -124&#xA;-227 17 -40 75 -78 122 -80 28 -1 34 -5 34 -24 0 -38 25 -86 61 -116 29 -24&#xA;39 -27 76 -22 58 8 136 42 163 71 l23 24 31 -23 c53 -39 97 -51 181 -51 98 1&#xA;171 25 230 77 23 20 104 79 181 130 76 52 197 138 268 191 128 96 130 97 150&#xA;78 58 -52 84 -52 157 -1 32 22 60 40 63 40 8 0 22 -57 60 -252 55 -277 85&#xA;-397 108 -417 10 -10 42 -22 71 -25 28 -4 54 -9 58 -12 4 -2 -24 -54 -62 -116&#xA;-81 -130 -85 -153 -34 -205 l34 -35 -38 -77 c-67 -133 -124 -273 -124 -301 0&#xA;-15 8 -38 19 -53 40 -54 200 -144 376 -212 111 -42 106 -28 61 -159 -29 -86&#xA;-29 -107 0 -134 45 -43 398 -192 454 -192 35 0 71 57 104 161 17 57 33 105 34&#xA;107 1 1 26 -6 56 -17 56 -19 149 -37 254 -49 l60 -7 12 -78 c16 -104 30 -124&#xA;90 -132 118 -15 108 -8 138 -93 43 -118 80 -195 103 -216 20 -17 33 -18 129&#xA;-13 116 6 274 37 322 62 21 10 33 27 40 53 17 65 30 154 40 265 11 125 8 137&#xA;-77 322 -150 328 -156 339 -200 356 -34 13 -232 12 -402 -2 -82 -7 -152 -11&#xA;-154 -8 -2 2 -6 25 -10 50 l-7 46 77 6 c43 3 83 11 90 19 8 8 15 60 20 146 4&#xA;72 10 132 13 132 3 0 16 -33 28 -73 24 -77 66 -145 108 -173 34 -22 95 -21&#xA;133 1 22 13 34 16 44 8 26 -20 86 -25 118 -8 36 18 86 84 95 124 5 22 15 31&#xA;45 40 31 9 46 22 66 57 23 39 26 53 21 102 -7 83 -38 155 -118 276 -39 59 -73&#xA;122 -76 140 -3 18 5 120 16 227 29 259 40 493 25 529 -7 15 -53 70 -102 122&#xA;-98 102 -112 126 -112 192 0 28 -6 48 -16 57 -31 26 -179 109 -239 134 l-60&#xA;26 -19 97 c-9 53 -26 147 -37 207 -22 126 -32 156 -59 173 -11 6 -75 18 -142&#xA;27 -212 25 -229 28 -226 34 2 3 18 34 36 69 l32 62 28 -14 c42 -22 145 -46&#xA;195 -46 68 0 195 41 259 84 104 69 185 176 227 303 27 80 41 213 31 286 -8 55&#xA;-7 61 23 109 28 44 32 61 32 117 0 41 -6 78 -16 97 l-16 31 45 44 c95 93 126&#xA;236 83 378 -12 41 -34 85 -50 103 l-28 32 32 45 c53 76 60 105 60 236 0 104&#xA;-3 125 -22 161 -32 60 -84 101 -138 109 -25 4 -45 12 -45 17 0 23 -54 116 -88&#xA;151 -60 62 -125 91 -207 91 -38 1 -82 -2 -97 -7 -28 -7 -28 -7 -28 37 0 66&#xA;-35 167 -83 237 -54 81 -129 133 -221 156 -68 16 -101 14 -183 -12 -16 -5 -23&#xA;-2 -28 16 -10 31 -73 115 -121 161 -89 84 -239 132 -390 126 -72 -3 -101 -9&#xA;-142 -29 l-51 -26 -48 30 c-149 94 -374 142 -519 112z m261 -122 c90 -22 232&#xA;-99 258 -139 12 -19 27 -34 33 -34 7 0 29 17 50 39 80 79 255 82 405 6 102&#xA;-52 182 -169 215 -314 9 -39 20 -71 26 -71 12 0 48 79 48 107 0 50 125 71 206&#xA;34 117 -53 193 -207 194 -389 0 -88 15 -101 63 -54 81 78 193 69 285 -21 44&#xA;-43 82 -125 82 -177 0 -59 27 -80 52 -40 31 49 96 6 122 -80 21 -69 7 -178&#xA;-30 -233 -21 -33 -83 -86 -117 -101 -8 -3 -3 -12 13 -23 62 -43 109 -103 126&#xA;-160 21 -70 15 -163 -14 -218 -27 -52 -97 -120 -146 -140 l-39 -16 52 -48 c54&#xA;-50 63 -79 41 -137 l-10 -26 -51 47 c-27 25 -71 56 -97 68 -65 29 -197 35&#xA;-274 12 -64 -18 -166 -82 -199 -123 l-21 -27 -29 35 c-86 104 -123 220 -123&#xA;390 -1 214 66 354 213 445 59 36 44 48 -66 50 -110 2 -182 28 -252 91 -50 45&#xA;-101 130 -101 170 0 12 -7 27 -15 34 -13 10 -26 7 -75 -19 -110 -59 -213 -78&#xA;-330 -61 -187 27 -320 144 -320 283 0 28 -5 47 -11 47 -6 0 -38 -21 -70 -47&#xA;-79 -64 -173 -120 -234 -140 -76 -24 -228 -29 -303 -9 -124 32 -215 116 -228&#xA;213 -9 64 -14 83 -23 83 -16 0 -32 -57 -33 -116 -1 -65 16 -113 55 -160 l26&#xA;-30 -50 -100 c-32 -65 -59 -138 -77 -211 -31 -129 -25 -126 -139 -72 -108 51&#xA;-159 150 -151 288 5 88 30 144 80 185 18 15 41 34 51 42 17 14 16 18 -27 65&#xA;-146 162 -85 409 123 491 75 30 271 33 314 6 14 -10 35 -18 46 -18 20 0 35 25&#xA;25 42 -12 19 -4 108 12 141 29 58 64 97 107 119 87 45 207 53 332 21z m124&#xA;-1000 c19 -51 114 -143 181 -176 144 -70 360 -73 490 -7 23 12 43 20 44 18 2&#xA;-2 16 -27 31 -56 49 -91 142 -164 244 -192 l43 -11 -25 -27 c-37 -38 -83 -145&#xA;-101 -235 -48 -229 13 -478 149 -606 37 -35 55 -60 55 -76 0 -13 4 -26 9 -29&#xA;5 -3 43 28 84 69 102 102 162 130 277 130 100 0 143 -18 207 -87 56 -62 77&#xA;-130 70 -223 -6 -71 -44 -195 -75 -245 -88 -142 -218 -216 -367 -208 -63 3&#xA;-85 9 -154 45 -89 46 -84 48 -126 -37 -49 -99 -136 -224 -209 -299 -302 -314&#xA;-773 -449 -1173 -336 -170 48 -353 160 -460 280 -66 73 -128 191 -153 291 -42&#xA;163 -17 399 61 580 l19 46 46 -41 c58 -51 131 -87 204 -102 55 -11 57 -12 67&#xA;-52 17 -63 52 -107 112 -141 48 -26 65 -30 131 -31 67 0 81 3 118 27 28 19 40&#xA;33 36 43 -4 9 -13 13 -24 10 -39 -12 -156 -6 -198 10 -83 34 -118 109 -88 189&#xA;32 85 116 136 222 136 75 0 94 -10 137 -73 52 -75 130 -133 219 -164 63 -21&#xA;87 -24 173 -21 91 3 107 7 178 40 294 140 357 515 127 749 -103 104 -254 154&#xA;-392 131 -126 -22 -256 -108 -315 -210 l-26 -44 -19 51 c-28 74 -113 163 -196&#xA;203 -62 31 -73 33 -172 33 -93 0 -111 -3 -162 -27 -32 -15 -73 -39 -92 -53&#xA;l-34 -26 -8 57 c-20 160 19 395 89 544 50 107 46 103 93 81 98 -47 275 -52&#xA;409 -11 74 23 183 79 205 105 18 22 25 19 39 -22z m-444 -724 c69 -19 139 -72&#xA;183 -138 49 -73 59 -121 65 -291 l4 -125 -81 -1 c-131 -1 -228 -58 -271 -160&#xA;-15 -37 -15 -37 -63 -30 -108 15 -217 101 -270 214 -23 49 -27 70 -27 152 0&#xA;86 3 101 31 160 44 93 101 152 186 195 60 29 81 35 137 35 36 0 84 -5 106 -11z&#xA;m840 -50 c139 -52 229 -174 242 -330 10 -119 -25 -216 -108 -304 -175 -185&#xA;-465 -164 -598 43 -68 106 -81 290 -29 404 47 101 153 184 268 208 61 12 160&#xA;3 225 -21z m745 -1490 c231 -33 221 -22 99 -111 -57 -42 -150 -115 -207 -162&#xA;-56 -47 -105 -86 -109 -86 -4 0 -63 10 -131 22 -110 19 -153 35 -152 56 1 4&#xA;38 32 83 62 45 30 123 95 172 146 50 50 92 92 95 93 3 1 70 -8 150 -20z m249&#xA;-227 c25 -110 27 -146 7 -139 -7 3 -60 18 -117 33 -57 15 -106 29 -108 31 -2&#xA;2 24 29 59 61 76 68 132 113 136 109 2 -1 12 -44 23 -95z m-919 -150 c0 -5 9&#xA;-58 20 -118 11 -60 20 -112 20 -116 0 -10 -159 -10 -263 -2 -75 7 -77 8 -86&#xA;38 -6 17 -13 49 -17 71 l-6 41 94 22 c51 13 122 34 158 47 74 27 80 28 80 17z&#xA;m259 -22 c85 -17 156 -30 158 -30 1 0 3 -18 3 -40 0 -61 26 -224 65 -398 18&#xA;-86 54 -249 79 -362 24 -113 49 -234 56 -270 6 -36 14 -73 17 -84 5 -17 1 -18&#xA;-33 -11 -22 4 -97 17 -169 29 -124 21 -130 23 -133 46 -21 171 -156 852 -207&#xA;1043 -14 51 -25 95 -25 100 0 12 27 8 189 -23z m491 -25 c170 -43 450 -153&#xA;450 -177 0 -5 -47 -32 -105 -59 -77 -36 -110 -47 -123 -41 -21 12 -338 116&#xA;-407 134 -49 13 -50 14 -53 55 -3 40 -1 43 50 77 29 20 61 36 71 36 10 0 63&#xA;-11 117 -25z m-1526 -72 c4 -21 22 -87 41 -148 56 -182 95 -322 95 -338 0 -16&#xA;-89 -87 -109 -87 -7 0 -11 28 -12 78 0 42 -4 115 -8 162 l-8 84 -59 56 c-33&#xA;30 -86 69 -118 86 l-58 31 93 56 c114 69 134 71 143 20z m351 -47 c21 -105 42&#xA;-141 85 -150 18 -3 115 -6 215 -6 181 0 183 0 187 -22 92 -430 148 -725 160&#xA;-843 4 -39 30 -51 143 -66 50 -7 135 -19 190 -28 l100 -16 19 -98 c10 -53 16&#xA;-100 12 -104 -3 -4 -70 3 -149 15 -386 58 -543 84 -550 91 -4 4 -14 77 -22&#xA;162 -9 84 -18 161 -21 171 -7 22 -26 25 -229 38 -93 7 -173 15 -177 18 -4 4&#xA;-18 70 -33 148 -14 77 -38 192 -54 255 -16 62 -50 197 -76 299 -26 102 -48&#xA;189 -49 195 -2 13 54 22 150 24 l81 1 18 -84z m1149 -143 c77 -25 159 -53 182&#xA;-63 l42 -18 -9 -47 c-5 -26 -21 -93 -35 -149 -15 -55 -29 -111 -31 -123 -3&#xA;-13 -8 -23 -10 -23 -5 0 -254 139 -262 146 -5 5 -70 302 -71 322 0 16 17 12&#xA;194 -45z m-1696 -7 c15 -8 46 -34 70 -59 l43 -44 6 -102 c7 -122 18 -106 -162&#xA;-240 -170 -128 -316 -225 -385 -258 -30 -14 -70 -43 -88 -63 -63 -75 -190&#xA;-109 -277 -76 -104 40 -100 125 6 136 29 3 54 11 57 18 6 19 -66 45 -112 39&#xA;-49 -7 -79 -37 -103 -101 -35 -96 -166 -157 -202 -95 -25 45 -2 81 82 124 79&#xA;41 97 53 97 66 0 17 -58 9 -155 -21 -111 -34 -151 -37 -177 -13 -58 52 35 128&#xA;190 154 37 6 72 15 78 20 7 6 37 -1 78 -16 121 -46 181 -51 138 -12 -21 19&#xA;-194 93 -294 126 -99 33 -115 67 -43 96 48 21 115 19 188 -6 66 -22 231 -106&#xA;323 -165 102 -65 157 -23 70 53 -26 22 -46 43 -46 46 0 2 51 37 114 76 123 76&#xA;327 218 416 288 30 23 56 43 58 43 2 0 15 -6 30 -14z m2458 -268 l26 -37 -11&#xA;-178 c-7 -98 -21 -250 -31 -337 -29 -235 -30 -225 40 -312 73 -92 141 -226&#xA;148 -292 4 -43 1 -51 -19 -66 -31 -21 -39 -20 -39 7 -1 61 -102 247 -135 247&#xA;-21 0 -19 -21 9 -90 35 -85 59 -204 53 -256 -6 -54 -32 -86 -66 -82 -21 3 -26&#xA;11 -37 64 -22 111 -101 304 -124 304 -15 0 -12 -25 11 -120 11 -47 23 -117 26&#xA;-156 6 -69 5 -72 -21 -89 -57 -38 -87 4 -151 210 -45 147 -81 224 -109 231&#xA;-12 2 -58 -9 -104 -26 -108 -39 -122 -39 -122 3 0 64 77 150 178 197 34 17 67&#xA;30 72 30 6 0 15 10 20 23 9 21 42 309 55 482 l6 80 -48 46 c-26 25 -65 58 -85&#xA;74 -21 15 -38 32 -38 38 0 5 9 40 20 78 l20 67 102 61 102 61 113 -112 c63&#xA;-62 125 -130 139 -150z m-803 -169 c23 -12 74 -41 112 -64 99 -62 109 -63 188&#xA;-21 37 20 68 33 68 28 2 -12 -3 -112 -6 -130 -2 -9 -4 -33 -4 -54 l-1 -36&#xA;-156 -87 c-86 -48 -158 -85 -160 -82 -6 6 -92 467 -87 467 2 0 23 -10 46 -21z&#xA;m-902 -345 l96 -7 12 -135 c6 -74 10 -136 8 -139 -7 -6 -279 45 -287 54 -4 4&#xA;-17 53 -29 108 -13 55 -25 109 -28 119 -5 18 -1 18 63 13 38 -4 112 -9 165&#xA;-13z m1235 -107 c-7 -52 -7 -52 -63 -76 -59 -26 -158 -109 -168 -142 -12 -36&#xA;-21 -19 -36 62 l-15 82 70 32 c39 18 103 51 141 73 39 23 72 37 74 31 2 -6 0&#xA;-34 -3 -62z m-1009 -302 c200 -36 665 -105 706 -105 14 0 28 -11 39 -30 30&#xA;-53 104 -62 194 -24 20 8 38 13 40 11 3 -2 -1 -85 -7 -184 l-13 -180 -95 -7&#xA;c-121 -8 -349 -8 -378 0 -23 6 -23 9 -23 174 0 122 -3 170 -12 177 -7 6 -33&#xA;13 -58 16 -25 3 -87 13 -138 22 -107 19 -151 17 -166 -7 -18 -29 11 -46 104&#xA;-64 47 -8 90 -19 97 -23 19 -10 -101 -211 -126 -211 -38 0 -486 215 -511 245&#xA;-8 10 5 38 50 107 71 106 79 118 91 118 4 0 97 -16 206 -35z m358 -462 c-6&#xA;-26 -25 -28 -68 -10 l-28 12 48 66 48 66 3 -56 c2 -30 1 -65 -3 -78z m-545 71&#xA;c58 -28 120 -56 138 -63 17 -8 32 -17 32 -21 0 -5 -19 -47 -42 -95 -40 -85&#xA;-41 -88 -22 -102 33 -24 57 -11 101 56 24 36 44 68 45 73 3 7 176 -15 216 -28&#xA;9 -3 7 -15 -10 -46 -12 -24 -43 -104 -69 -178 -33 -96 -50 -134 -60 -131 -123&#xA;35 -303 96 -374 127 -104 46 -203 107 -212 130 -3 9 4 41 17 72 36 90 123 263&#xA;129 259 3 -2 53 -26 111 -53z m588 -223 c11 -7 13 -53 10 -232 -5 -234 -17&#xA;-310 -68 -426 l-19 -42 -83 33 c-117 46 -230 95 -247 105 -12 8 -10 23 15 98&#xA;21 63 34 87 44 85 8 -2 47 -6 85 -9 l70 -6 42 125 c83 251 108 296 151 269z&#xA;m410 -154 l-3 -132 30 0 c28 0 31 4 39 46 l9 46 97 1 97 1 11 -63 c12 -65 16&#xA;-273 6 -299 -5 -13 -13 -13 -60 3 -30 11 -142 33 -248 49 -106 17 -205 35&#xA;-219 40 -45 17 -51 42 -57 249 -3 107 -4 194 -3 195 1 1 69 1 153 -1 l151 -3&#xA;-3 -132z m609 -35 c11 -7 91 -176 182 -384 l43 -97 -11 -108 c-7 -59 -17 -134&#xA;-23 -165 l-10 -57 -67 -15 c-92 -21 -189 -36 -232 -36 -37 0 -37 0 -78 94 -45&#xA;102 -48 116 -27 116 26 0 45 29 66 101 17 55 19 74 9 85 -20 24 -37 16 -76&#xA;-37 l-38 -51 -60 7 c-102 11 -116 16 -126 43 -6 14 -9 33 -7 43 3 16 9 15 77&#xA;-7 94 -31 109 -30 123 4 14 37 16 376 1 424 -6 20 -8 39 -5 42 8 9 245 7 259&#xA;-2z"/>
    <path d="M6743 7890 c-44 -10 -113 -47 -146 -78 -78 -73 -75 -177 3 -122 52&#xA;37 157 81 209 87 33 4 67 1 92 -7 29 -10 46 -11 57 -3 41 25 14 95 -45 119&#xA;-34 15 -117 17 -170 4z"/>
    <path d="M7543 7842 c-30 -2 -51 -12 -73 -32 -35 -33 -37 -49 -11 -81 17 -22&#xA;21 -22 73 -11 98 22 203 -17 309 -114 126 -116 150 -11 28 121 -71 77 -206&#xA;126 -326 117z"/>
    <path d="M8722 6799 c-64 -32 -116 -84 -127 -127 -5 -20 2 -33 35 -67 60 -61&#xA;63 -99 15 -189 -43 -81 -37 -102 21 -71 38 20 78 80 89 132 9 44 -12 106 -52&#xA;152 l-33 39 47 29 c27 16 78 41 116 57 68 29 82 47 48 66 -36 19 -96 11 -159&#xA;-21z"/>
    <path d="M7485 6355 c-244 -90 -409 -118 -568 -95 -104 15 -130 4 -147 -60&#xA;-29 -108 84 -280 233 -353 81 -39 147 -50 267 -44 174 8 345 79 431 176 121&#xA;136 144 341 47 401 -54 33 -123 26 -263 -25z m195 -25 c37 -23 -62 -130 -169&#xA;-185 -140 -70 -379 -107 -464 -71 -32 14 -77 65 -77 89 0 4 26 7 58 7 140 0&#xA;294 40 481 126 95 43 142 53 171 34z m-60 -298 c0 -13 -79 -66 -155 -104 -66&#xA;-33 -203 -73 -214 -62 -20 20 89 103 188 143 73 29 181 43 181 23z"/>
    <path d="M6636 7099 c-33 -39 -40 -68 -32 -132 13 -115 110 -164 169 -85 25&#xA;33 34 122 17 172 -25 77 -107 101 -154 45z"/>
    <path d="M7385 7088 c-95 -74 -58 -278 50 -278 62 0 98 52 98 140 0 73 -26&#xA;128 -69 146 -43 18 -46 18 -79 -8z"/>
    <path d="M2600 8982 c-31 -10 -101 -44 -155 -76 -172 -98 -255 -113 -417 -75&#xA;-96 23 -131 20 -148 -11 -16 -31 16 -54 111 -81 165 -46 330 -27 455 53 27 17&#xA;80 46 119 64 57 28 81 34 135 34 81 -1 113 -12 240 -85 176 -101 287 -128 431&#xA;-106 123 20 241 85 225 126 -11 29 -38 28 -125 -1 -72 -24 -102 -29 -186 -29&#xA;-92 0 -105 3 -169 33 -37 17 -101 52 -141 77 -135 85 -269 112 -375 77z"/>
    <path d="M4698 8865 c-160 -40 -237 -245 -144 -383 23 -35 48 -56 96 -80 58&#xA;-30 72 -33 125 -29 98 7 173 56 218 142 16 30 21 58 21 110 0 134 -79 225&#xA;-211 243 -40 5 -77 5 -105 -3z m167 -119 c34 -22 55 -73 55 -129 0 -115 -125&#xA;-188 -232 -134 -48 25 -88 83 -88 131 0 40 35 111 65 130 55 36 147 37 200 2z"/>
    <path d="M2652 8505 c-75 -21 -92 -32 -92 -61 0 -36 32 -44 120 -28 134 24&#xA;159 20 347 -52 95 -37 101 -38 228 -38 111 0 138 3 187 22 99 40 136 86 87&#xA;112 -15 9 -34 7 -82 -9 -75 -25 -170 -39 -229 -34 -24 2 -104 25 -178 50 -119&#xA;41 -147 47 -235 50 -67 2 -118 -2 -153 -12z"/>
    <path d="M4595 7884 c-11 -3 -30 -7 -42 -9 -12 -3 -36 -17 -53 -31 -130 -110&#xA;-71 -321 97 -341 169 -19 281 159 188 299 -37 56 -129 96 -190 82z m101 -118&#xA;c39 -39 44 -77 18 -127 -18 -36 -74 -63 -114 -54 -15 3 -40 20 -56 36 -23 24&#xA;-29 39 -29 75 0 39 5 50 33 75 47 43 102 41 148 -5z"/>
    <path d="M1273 7817 c-138 -70 -140 -73 -147 -149 -33 -348 -36 -398 -25 -421&#xA;8 -18 38 -37 98 -65 47 -22 97 -43 110 -47 l24 -7 -7 -130 c-4 -72 -11 -138&#xA;-14 -149 -7 -17 -18 -14 -137 37 -72 31 -156 66 -187 80 -32 13 -69 24 -84 24&#xA;-36 0 -224 -108 -233 -134 -4 -12 -18 -112 -30 -224 -27 -239 -29 -233 77&#xA;-286 118 -59 113 -51 97 -191 -12 -101 -12 -122 -1 -140 8 -11 77 -49 155 -85&#xA;l141 -65 -6 -70 c-4 -38 -8 -72 -10 -74 -2 -2 -52 15 -111 38 -158 62 -179 63&#xA;-288 8 -127 -64 -130 -67 -144 -217 -23 -230 -24 -259 -11 -274 18 -23 201&#xA;-109 470 -221 135 -56 252 -104 260 -107 14 -5 12 -33 -16 -234 -61 -427 -61&#xA;-430 -37 -461 13 -18 46 -38 94 -56 212 -79 629 -241 626 -242 -1 -1 -139 -88&#xA;-307 -192 -384 -239 -506 -318 -515 -333 -16 -25 -1 -480 17 -513 5 -9 41 -33&#xA;81 -53 40 -20 122 -65 184 -101 145 -82 199 -106 228 -99 12 3 58 34 101 69&#xA;124 99 615 469 619 465 1 -1 10 -28 19 -59 9 -31 22 -61 29 -68 8 -6 54 -27&#xA;103 -46 246 -99 564 -240 564 -251 0 -7 -59 -69 -132 -138 l-132 -125 13 -158&#xA;c20 -256 28 -329 41 -352 6 -13 45 -38 88 -57 204 -94 437 -194 453 -194 16 0&#xA;88 78 298 322 46 54 87 95 91 93 5 -3 20 -41 35 -84 14 -43 36 -87 48 -98 34&#xA;-31 323 -109 359 -97 20 6 133 103 241 207 50 47 50 49 -42 281 -39 99 -70&#xA;180 -69 181 40 27 163 84 168 78 6 -7 153 -347 287 -663 48 -111 71 -145 106&#xA;-153 12 -3 74 -19 137 -36 187 -50 173 -55 339 106 121 118 141 142 141 168 0&#xA;17 -38 127 -84 245 -46 118 -82 217 -80 219 6 6 235 -172 344 -269 173 -153&#xA;293 -238 432 -306 364 -177 842 -191 1246 -35 181 70 337 173 416 277 66 87&#xA;51 110 -109 164 -436 149 -634 328 -940 846 -100 171 -186 285 -313 416 -115&#xA;119 -202 183 -337 251 -111 55 -337 134 -514 178 l-133 33 8 76 c9 88 6 197&#xA;-6 220 -10 19 -84 52 -294 133 l-139 54 124 45 c68 25 141 51 161 59 82 29 87&#xA;39 103 189 8 74 15 140 15 147 0 6 51 28 113 48 61 21 116 41 120 45 4 4 12&#xA;65 18 136 10 141 15 164 31 164 7 0 47 10 91 21 98 27 97 25 126 244 24 174&#xA;28 252 13 267 -17 17 -225 99 -290 114 -61 14 -64 14 -151 -15 -108 -36 -222&#xA;-87 -233 -104 -4 -7 -8 -70 -8 -141 0 -128 0 -128 -22 -124 -13 3 -51 11 -84&#xA;18 -61 13 -62 13 -145 -22 -128 -55 -129 -55 -129 -20 0 37 9 44 95 72 110 36&#xA;141 55 148 89 4 16 9 83 13 148 4 65 11 123 16 130 5 6 57 28 116 48 156 53&#xA;148 43 161 214 6 81 15 148 21 151 6 4 56 19 110 35 118 33 116 29 130 215 5&#xA;69 12 159 16 201 6 75 6 76 -24 101 -17 14 -81 41 -148 63 -221 71 -193 69&#xA;-351 16 -162 -56 -181 -65 -192 -94 -5 -13 -12 -91 -16 -175 -4 -84 -9 -152&#xA;-11 -152 -2 0 -41 11 -87 24 -63 18 -93 22 -118 16 -52 -12 -253 -79 -265 -87&#xA;-22 -16 -34 -53 -34 -106 0 -30 -3 -94 -6 -144 l-7 -90 -51 -18 c-254 -89&#xA;-276 -101 -276 -157 0 -20 -4 -28 -12 -25 -7 3 -31 12 -53 21 -57 22 -884 259&#xA;-1106 316 l-185 47 -135 -33 c-74 -18 -139 -33 -146 -34 -9 0 -12 26 -10 94 2&#xA;112 -4 123 -96 157 -105 38 -177 78 -177 97 0 9 7 84 15 165 7 82 12 154 9&#xA;160 -7 19 -81 61 -188 108 -54 23 -100 49 -103 56 -3 8 2 92 12 187 12 128 14&#xA;179 6 194 -6 12 -40 31 -83 47 -40 15 -162 63 -270 106 -109 44 -203 79 -210&#xA;79 -7 0 -59 -24 -115 -53z m317 -140 c91 -35 182 -70 203 -76 20 -7 37 -16 37&#xA;-19 -1 -4 -34 -22 -74 -40 l-73 -34 -94 39 c-182 76 -319 138 -319 143 0 14&#xA;107 59 130 56 14 -3 99 -34 190 -69z m-253 -88 c54 -23 153 -64 221 -91 l122&#xA;-50 -5 -47 c-36 -320 -37 -341 -22 -364 9 -14 60 -40 141 -72 104 -41 126 -54&#xA;126 -71 0 -11 -7 -93 -15 -182 -17 -175 -14 -195 30 -206 14 -4 73 -25 131&#xA;-47 l105 -41 -3 -46 -3 -47 -80 -21 c-44 -12 -102 -28 -130 -36 l-50 -15 -140&#xA;59 c-77 33 -141 60 -142 61 -1 1 5 74 12 162 16 191 23 176 -120 250 l-97 50&#xA;6 85 c4 47 12 121 18 164 11 77 10 79 -13 98 -13 11 -70 41 -126 68 -57 27&#xA;-103 53 -103 57 0 4 7 73 15 153 8 80 15 151 15 158 0 16 -5 18 107 -29z m654&#xA;-486 c60 -25 106 -49 102 -53 -4 -3 -41 -21 -81 -40 -82 -39 -76 -39 -220 27&#xA;l-77 36 80 38 c43 22 81 39 82 39 2 0 53 -21 114 -47z m3434 -83 c49 -16 97&#xA;-30 107 -30 10 0 18 -4 18 -9 0 -13 -154 -71 -189 -71 -16 0 -62 16 -102 35&#xA;-41 19 -79 35 -86 35 -7 0 -13 3 -13 8 0 5 138 55 171 61 3 1 45 -12 94 -29z&#xA;m-191 -136 c45 -20 93 -38 108 -41 16 -3 71 10 138 32 61 20 113 35 116 33 6&#xA;-7 -16 -272 -24 -280 -4 -4 -44 -19 -89 -32 -146 -44 -136 -30 -153 -207 l-15&#xA;-153 -100 -31 c-55 -18 -114 -39 -131 -48 -35 -18 -38 -32 -49 -202 -8 -112&#xA;-12 -135 -28 -135 -26 0 -202 -70 -212 -84 -6 -8 -17 -81 -25 -163 l-13 -148&#xA;-81 -27 c-45 -16 -84 -28 -88 -28 -3 0 -6 47 -5 103 2 118 -3 130 -64 149 -38&#xA;11 -39 12 -39 59 0 109 22 304 36 315 7 6 73 32 146 58 73 27 140 55 149 62&#xA;13 12 18 44 23 152 4 75 10 147 12 158 5 17 26 29 102 54 53 18 103 38 110 45&#xA;9 8 14 60 17 181 3 93 8 182 11 198 5 25 9 27 37 22 17 -3 67 -22 111 -42z&#xA;m-4136 -81 c100 -43 182 -80 182 -83 -1 -3 -31 -19 -68 -36 l-68 -31 -60 28&#xA;c-32 16 -112 52 -177 80 -64 29 -115 55 -112 58 10 10 100 59 110 60 6 1 92&#xA;-34 193 -76z m-257 -79 c35 -14 115 -50 176 -80 l113 -53 -6 -98 c-4 -54 -9&#xA;-133 -13 -177 -6 -64 -4 -82 8 -96 9 -10 83 -44 166 -75 82 -31 151 -58 153&#xA;-60 4 -3 -48 -398 -53 -403 -2 -2 -38 11 -81 27 -44 17 -85 31 -92 31 -12 0&#xA;-12 15 4 117 9 60 -3 80 -59 99 -29 9 -96 40 -150 67 l-99 51 7 71 c4 38 11&#xA;97 15 129 7 40 6 64 -1 72 -6 7 -53 36 -105 64 -52 28 -94 56 -94 63 0 7 7 71&#xA;15 142 8 72 15 131 15 133 0 6 22 0 81 -24z m697 -69 c4 -3 -19 -278 -23 -283&#xA;-1 -1 -32 11 -69 28 -63 28 -67 32 -62 57 3 16 8 69 11 118 3 50 8 102 11 117&#xA;l5 28 62 -31 c34 -17 63 -33 65 -34z m702 -42 c50 -20 90 -39 90 -43 0 -3 -36&#xA;-24 -80 -45 l-80 -39 -95 39 c-52 21 -95 41 -95 44 0 6 148 79 163 80 4 1 48&#xA;-16 97 -36z m2665 -12 l90 -28 -40 -18 c-22 -10 -67 -26 -100 -35 l-60 -17&#xA;-79 29 c-44 16 -84 32 -90 35 -11 7 137 61 169 62 11 0 61 -12 110 -28z m-238&#xA;-122 c54 -17 102 -35 106 -39 10 -9 -2 -232 -13 -250 -5 -9 -26 -5 -79 14&#xA;-124 45 -130 49 -126 98 2 24 4 80 4 126 1 45 3 82 6 82 3 0 49 -14 102 -31z&#xA;m-1749 -143 c226 -57 1036 -288 1151 -329 l33 -12 -7 -130 c-5 -104 -4 -133 7&#xA;-142 7 -6 67 -32 133 -58 66 -26 131 -52 145 -57 21 -9 -17 -22 -264 -93&#xA;l-288 -83 -367 123 c-201 69 -442 147 -536 175 -239 72 -876 248 -1087 301&#xA;-98 24 -178 47 -178 50 0 4 37 17 83 28 45 12 165 45 267 73 300 83 713 187&#xA;743 187 16 1 90 -14 165 -33z m-1450 -61 c53 -23 115 -48 137 -55 l40 -13 -79&#xA;-38 c-75 -35 -81 -36 -115 -24 -54 20 -254 104 -259 109 -8 9 144 74 161 69&#xA;10 -3 62 -24 115 -48z m3097 -116 c47 -17 83 -34 80 -38 -4 -3 -40 -20 -82&#xA;-37 -64 -27 -81 -30 -115 -22 -55 12 -145 51 -147 63 -2 10 131 64 161 64 9 1&#xA;56 -13 103 -30z m-253 -120 c46 -17 93 -35 106 -40 16 -6 22 -17 22 -41 0 -46&#xA;-21 -262 -26 -267 -2 -2 -51 16 -110 40 l-106 44 6 95 c3 52 6 119 6 148 0 28&#xA;4 52 9 52 6 0 47 -14 93 -31z m-2556 -65 c297 -79 1122 -315 1294 -369 80 -25&#xA;277 -89 439 -142 l293 -95 -5 -37 c-38 -263 -91 -634 -111 -781 -61 -442 -150&#xA;-1017 -160 -1027 -6 -6 -6 -6 -441 144 -543 188 -1341 479 -1708 623 l-58 23&#xA;6 51 c4 28 27 197 51 376 25 179 56 411 70 515 26 200 90 674 100 738 3 20 9&#xA;37 14 37 4 0 102 -25 216 -56z m3944 -59 c76 -26 108 -41 100 -48 -3 -2 -46&#xA;-16 -96 -30 l-91 -27 -87 31 c-47 18 -86 35 -86 39 0 8 138 58 165 59 11 1 54&#xA;-10 95 -24z m-112 -167 c28 -8 51 -3 139 26 57 20 108 36 112 36 9 0 -27 -282&#xA;-37 -291 -4 -3 -39 -16 -78 -28 -39 -13 -85 -31 -102 -41 -29 -18 -30 -19 -36&#xA;-137 -4 -65 -10 -126 -12 -135 -3 -12 -30 -25 -77 -39 -125 -37 -145 -48 -156&#xA;-82 -5 -18 -15 -83 -21 -144 -6 -62 -13 -119 -16 -126 -4 -12 -341 -146 -537&#xA;-214 -86 -30 -85 -30 -213 27 l-61 28 12 83 c7 46 16 117 20 157 4 39 11 72&#xA;16 72 4 0 50 -15 101 -34 l93 -33 164 58 c90 32 166 61 170 64 3 4 13 91 21&#xA;193 l15 187 150 57 c145 54 150 57 153 87 2 22 -3 36 -22 52 -25 22 -26 26&#xA;-26 140 l0 118 98 -36 c53 -19 112 -40 130 -45z m-4648 -83 c52 -19 128 -44&#xA;168 -56 l74 -22 -63 -35 -62 -35 -61 23 c-34 13 -112 41 -173 63 -62 22 -113&#xA;42 -113 46 0 9 92 49 115 50 11 1 63 -14 115 -34z m140 -227 c140 -55 257&#xA;-102 259 -104 5 -4 -36 -274 -43 -281 -6 -7 -373 146 -533 222 -73 35 -133 70&#xA;-133 77 0 7 7 60 15 118 8 58 15 110 15 117 0 14 66 -9 420 -149z m4217 89 c9&#xA;-10 9 -10 -120 -55 l-117 -42 -71 27 c-38 14 -67 29 -62 34 5 5 50 26 102 48&#xA;l94 39 84 -23 c46 -12 86 -25 90 -28z m-811 -94 c-8 -128 -39 -440 -61 -608&#xA;-8 -66 -27 -219 -41 -340 -14 -121 -41 -313 -60 -428 -19 -114 -34 -210 -34&#xA;-213 0 -3 -21 -14 -47 -26 -27 -11 -124 -55 -218 -98 -155 -71 -430 -190 -439&#xA;-190 -1 0 1 24 5 53 80 495 199 1301 245 1655 16 130 17 133 43 138 14 3 148&#xA;41 296 84 149 43 281 79 294 79 l24 1 -7 -107z m477 -39 l79 -26 -7 -122 c-4&#xA;-66 -10 -124 -14 -128 -4 -4 -44 7 -90 24 l-84 32 7 80 c3 45 6 100 6 124 0&#xA;27 4 42 12 42 7 0 48 -12 91 -26z m-90 -341 c42 -14 77 -29 77 -32 0 -4 -50&#xA;-23 -111 -44 l-111 -38 -69 27 c-38 15 -68 28 -67 30 6 6 184 83 193 84 6 0&#xA;45 -12 88 -27z m117 -599 c200 -69 358 -140 344 -154 -17 -15 -764 -341 -919&#xA;-400 l-21 -8 18 117 c10 64 27 181 39 261 11 80 22 147 24 148 2 2 27 -3 57&#xA;-11 66 -20 109 -12 250 42 57 22 104 40 105 40 0 1 47 -15 103 -35z m385 -256&#xA;c-3 -18 -23 -193 -45 -388 -21 -195 -46 -420 -55 -500 -9 -80 -18 -150 -20&#xA;-156 -2 -7 -45 -33 -96 -59 -51 -26 -152 -79 -224 -117 -71 -39 -215 -115&#xA;-320 -170 -294 -156 -464 -248 -532 -290 -35 -21 -63 -34 -63 -30 0 4 -16 124&#xA;-35 267 l-34 260 21 270 c11 149 24 279 28 290 5 14 45 36 121 69 211 91 237&#xA;105 246 132 8 23 47 42 298 149 282 119 425 181 610 264 50 22 94 40 98 40 4&#xA;1 5 -14 2 -31z m225 -267 c164 -43 308 -94 437 -156 181 -87 257 -145 397&#xA;-307 111 -128 168 -209 274 -391 205 -351 406 -563 646 -684 99 -50 298 -130&#xA;346 -139 17 -4 33 -10 35 -15 10 -15 -141 -122 -249 -176 -215 -108 -442 -163&#xA;-673 -163 -157 0 -249 13 -403 56 -219 62 -361 143 -585 336 -198 169 -304&#xA;252 -425 333 l-115 77 -57 136 c-32 75 -58 140 -58 143 0 4 30 21 68 39 37 17&#xA;74 38 83 46 15 13 29 6 135 -67 210 -145 285 -208 484 -408 218 -220 328 -307&#xA;475 -380 260 -129 494 -143 838 -50 63 17 45 37 -96 109 -71 36 -170 94 -220&#xA;130 -133 93 -301 267 -452 465 -290 382 -426 530 -580 630 -91 60 -263 148&#xA;-392 201 -48 20 -89 37 -91 39 -3 3 16 176 24 213 3 16 10 22 22 18 9 -2 69&#xA;-18 132 -35z m-3065 -189 c165 -60 290 -103 730 -255 198 -68 210 -73 210 -97&#xA;0 -14 -4 -73 -8 -131 l-9 -106 -111 -109 c-62 -60 -129 -125 -149 -143 l-37&#xA;-34 -118 43 c-100 37 -388 154 -540 220 -29 13 -44 26 -47 42 -2 13 -21 109&#xA;-41 213 -20 105 -45 235 -56 289 -22 116 -24 140 -6 133 6 -2 89 -32 182 -65z&#xA;m-503 -13 c79 -34 151 -65 161 -71 19 -10 9 -17 -420 -318 l-203 -141 -170 93&#xA;c-93 51 -169 95 -169 98 0 3 50 35 112 73 62 37 204 125 317 196 113 71 211&#xA;130 217 130 7 1 77 -26 155 -60z m3533 -151 c99 -39 269 -132 343 -188 148&#xA;-110 303 -281 487 -535 198 -275 409 -477 638 -610 37 -21 67 -42 67 -46 0&#xA;-14 -94 -23 -220 -22 -203 3 -382 60 -563 180 -42 28 -166 140 -299 270 -225&#xA;220 -336 312 -561 463 -67 45 -96 71 -97 85 0 11 11 119 25 240 14 121 25 221&#xA;25 222 0 2 24 -7 53 -18 28 -12 74 -30 102 -41z m-3264 -136 c12 -68 20 -124&#xA;18 -126 -2 -2 -90 -70 -195 -152 -355 -276 -475 -364 -479 -351 -4 14 -25 265&#xA;-25 307 0 23 23 42 183 153 100 70 245 171 322 225 113 80 141 96 147 83 4 -9&#xA;17 -71 29 -139z m1619 71 c0 -57 -39 -465 -45 -471 -5 -5 -42 10 -210 87&#xA;l-110 50 2 53 c2 29 5 81 9 115 l5 61 167 70 c92 39 170 71 175 71 4 1 7 -16&#xA;7 -36z m-2490 -315 l115 -63 13 -169 c7 -92 11 -170 9 -173 -5 -4 -324 170&#xA;-338 185 -4 4 -10 83 -14 175 l-7 169 53 -31 c30 -16 106 -58 169 -93z m2276&#xA;-179 c79 -33 146 -64 148 -68 5 -8 -36 -57 -351 -418 l-202 -231 -190 86&#xA;c-105 48 -189 90 -188 94 5 16 613 598 625 598 7 0 78 -27 158 -61z m209 -299&#xA;c8 -69 18 -139 21 -156 5 -29 -13 -54 -262 -352 -147 -177 -269 -321 -270&#xA;-319 -1 1 -12 82 -24 180 l-21 178 27 32 c15 18 61 70 103 117 145 160 176&#xA;196 291 329 63 73 116 129 117 124 1 -4 9 -64 18 -133z m1266 -31 c17 -41 80&#xA;-197 140 -347 l110 -273 -108 -103 -107 -103 -158 371 -157 370 22 15 c72 52&#xA;221 151 223 148 2 -2 18 -37 35 -78z m-437 -115 c39 -9 78 -19 86 -23 8 -5 51&#xA;-93 96 -197 44 -104 109 -253 142 -332 34 -78 62 -146 62 -151 0 -4 -43 4 -97&#xA;18 l-96 26 -127 295 c-161 377 -162 380 -149 380 6 0 43 -7 83 -16z m-1766&#xA;-203 c31 -16 107 -50 167 -76 61 -25 116 -52 122 -58 7 -7 19 -75 28 -157 8&#xA;-80 18 -157 21 -173 l6 -27 -74 34 c-40 18 -125 57 -188 86 -63 29 -116 54&#xA;-117 54 -7 5 -37 346 -31 346 5 0 34 -13 66 -29z m1379 -105 c19 -49 32 -94&#xA;29 -101 -7 -20 -169 -146 -177 -137 -10 10 -83 222 -78 226 16 16 176 105 183&#xA;103 5 -2 25 -43 43 -91z m-258 -163 c16 -54 28 -99 26 -101 -5 -5 -188 48&#xA;-196 56 -4 4 -9 18 -12 32 -5 22 2 29 66 67 40 23 75 42 79 42 3 1 20 -43 37&#xA;-96z"/>
    <path d="M1779 5311 c-59 -62 -83 -128 -84 -236 0 -138 48 -215 136 -215 108&#xA;0 201 158 186 314 -11 117 -67 186 -151 186 -34 0 -46 -7 -87 -49z"/>
    <path d="M3133 4970 c-70 -42 -114 -150 -114 -281 0 -145 28 -208 102 -230 83&#xA;-25 164 31 210 147 19 48 23 78 24 159 0 88 -3 105 -25 143 -44 78 -128 104&#xA;-197 62z"/>
    <path d="M2012 4728 c-6 -6 -12 -30 -12 -52 0 -98 113 -231 252 -295 114 -53&#xA;170 -64 318 -59 112 3 132 7 188 32 64 30 122 83 122 114 0 29 -29 62 -56 62&#xA;-17 0 -31 -10 -45 -34 -30 -52 -82 -69 -221 -74 -92 -3 -128 0 -170 13 -138&#xA;45 -235 124 -291 236 -33 65 -59 83 -85 57z"/>
    <path d="M3011 7263 c-13 -3 -42 -24 -66 -47 -146 -146 24 -379 205 -283 56&#xA;29 90 90 90 159 0 118 -103 195 -229 171z m116 -107 c22 -19 28 -32 28 -66 0&#xA;-35 -6 -47 -33 -71 -66 -59 -151 -22 -152 68 0 35 5 45 33 67 41 33 87 34 124&#xA;2z"/>
    <path d="M9470 6074 c-71 -31 -110 -86 -110 -154 0 -115 108 -202 213 -170 89&#xA;26 127 76 127 168 0 55 -35 119 -79 145 -41 24 -111 29 -151 11z m118 -94 c47&#xA;-44 36 -111 -22 -138 -34 -17 -70 -9 -103 24 -69 69 53 181 125 114z"/>
    <path d="M650 4548 c-59 -31 -82 -65 -88 -131 -8 -97 43 -158 136 -165 71 -5&#xA;132 22 163 71 29 47 23 132 -15 181 -52 69 -118 83 -196 44z m114 -80 c13 -13&#xA;27 -37 31 -55 5 -26 2 -37 -19 -58 -54 -54 -156 -13 -142 57 14 71 81 100 130&#xA;56z"/>
    <path d="M6760 3949 c-62 -25 -102 -88 -102 -160 0 -121 121 -193 238 -140 74&#xA;34 108 105 85 181 -29 96 -134 153 -221 119z m99 -84 c60 -30 63 -104 6 -141&#xA;-50 -33 -135 11 -135 70 1 27 29 63 60 75 34 13 37 13 69 -4z"/>
    <path d="M2095 2213 c-43 -11 -102 -63 -129 -113 -26 -47 -28 -59 -24 -120 7&#xA;-88 41 -149 104 -186 182 -107 403 65 343 267 -34 112 -171 183 -294 152z&#xA;m162 -104 c58 -54 71 -147 26 -200 -116 -138 -326 -9 -245 151 37 75 160 103&#xA;219 49z"/>
    <path d="M2649 1567 c-55 -37 -79 -81 -79 -146 0 -71 25 -114 84 -142 115 -57&#xA;238 36 223 168 -6 55 -31 90 -83 120 -50 29 -102 29 -145 0z m126 -82 c48 -47&#xA;18 -128 -52 -141 -72 -14 -113 89 -57 141 35 32 78 32 109 0z"/>
    <path d="M7665 1496 c-151 -68 -135 -283 25 -334 99 -32 215 45 227 150 8 67&#xA;-41 148 -109 184 -34 18 -103 17 -143 0z m140 -88 c83 -73 -6 -197 -110 -154&#xA;-37 16 -49 41 -43 97 2 25 12 39 37 56 43 29 83 29 116 1z"/>
  </g>
  <title>Axolotl</title>
  <desc>Axolotl</desc>
</svg>