<?xml version="1.0" standalone="no"?>
<!DOCTYPE svg PUBLIC "-//W3C//DTD SVG 20010904//EN"
 "http://www.w3.org/TR/2001/REC-SVG-20010904/DTD/svg10.dtd">
<svg version="1.0" xmlns="http://www.w3.org/2000/svg"
 width="1024.000000pt" height="1024.000000pt" viewBox="0 0 1024.000000 1024.000000"
 preserveAspectRatio="xMidYMid meet">
<metadata>
Created by potrace 1.16, written by Peter Selinger 2001-2019
</metadata>
<g transform="translate(0.000000,1024.000000) scale(0.100000,-0.100000)"
fill="#000000" stroke="none">
<path d="M4537 8105 c-87 -12 -177 -28 -200 -33 -53 -14 -215 -39 -335 -52
-147 -16 -167 -19 -362 -50 -102 -17 -216 -35 -255 -41 -105 -16 -285 -49
-330 -59 -22 -6 -121 -23 -220 -40 -99 -17 -234 -41 -300 -55 -179 -36 -580
-113 -660 -125 -201 -32 -661 -135 -682 -152 -30 -25 -52 -80 -71 -183 -36
-187 -72 -595 -97 -1090 -3 -70 -10 -112 -18 -117 -21 -13 -223 -74 -442 -133
-116 -31 -224 -65 -241 -76 -61 -37 -67 -67 -68 -326 l-1 -231 25 -27 c52 -57
211 -150 553 -325 81 -41 147 -78 147 -82 0 -4 -37 -26 -82 -49 -109 -55 -336
-196 -370 -230 -33 -32 -37 -87 -13 -157 13 -38 31 -66 129 -205 50 -72 194
-243 243 -290 142 -134 273 -217 344 -217 69 0 301 95 459 188 85 50 258 170
401 278 l96 72 104 -55 c57 -31 156 -86 219 -123 63 -37 153 -87 200 -112 131
-71 817 -411 893 -444 37 -15 67 -31 66 -34 0 -6 -249 -227 -334 -297 -33 -27
-116 -91 -185 -143 -196 -146 -216 -165 -234 -217 -20 -58 -20 -91 -1 -136 31
-74 167 -171 410 -292 211 -104 337 -156 506 -208 289 -88 449 -121 562 -115
65 3 80 8 142 46 226 142 470 380 637 622 165 239 259 488 287 759 6 51 12 96
15 98 3 3 36 8 73 10 65 5 73 3 173 -44 146 -69 504 -204 700 -264 192 -58
402 -71 720 -43 l65 6 27 -44 c98 -157 402 -370 628 -439 167 -51 318 -52 532
-4 183 41 313 86 514 177 309 141 335 205 182 443 -25 39 -53 79 -63 89 -24
24 -14 29 89 51 284 59 546 134 699 200 79 34 91 43 115 84 l27 46 1 430 c1
237 -4 538 -9 669 -9 211 -8 247 7 310 19 83 35 252 30 316 -7 79 -24 173 -45
244 -16 53 -22 108 -25 235 -8 271 -33 646 -54 801 -31 228 -76 484 -90 511
-22 40 -85 68 -205 91 -311 60 -1270 7 -2155 -118 -115 -16 -127 -18 -247 -34
-72 -10 -86 -9 -114 6 -111 57 -310 130 -824 304 -460 155 -729 237 -1371 415
-124 35 -147 35 -317 10z m391 -230 c201 -57 494 -145 501 -152 13 -10 -41
-22 -409 -89 -273 -50 -316 -58 -410 -77 l-65 -13 -245 84 c-135 46 -291 98
-347 114 -57 17 -103 35 -103 39 0 5 3 9 8 9 8 0 384 56 442 65 19 3 49 10 65
15 27 7 65 14 260 49 85 15 101 13 303 -44z m-1093 -181 c241 -74 447 -144
647 -220 46 -18 47 -18 200 14 84 18 200 41 258 52 58 11 116 22 130 25 58 12
431 77 496 87 80 12 45 20 399 -96 110 -36 277 -92 370 -125 410 -142 372
-128 364 -136 -5 -4 -291 -61 -429 -85 -170 -30 -568 -147 -627 -186 -21 -13
-32 -10 -135 32 -339 139 -493 197 -830 311 l-137 46 -133 -26 c-73 -15 -227
-43 -343 -62 -115 -20 -302 -54 -415 -76 -113 -22 -247 -48 -298 -58 l-93 -19
-147 60 c-81 33 -190 75 -242 94 -52 20 -140 52 -195 73 -55 21 -125 46 -155
56 -30 10 -59 21 -65 25 -5 4 -28 13 -50 20 -64 20 -61 26 22 39 43 7 105 19
138 26 58 14 250 48 565 101 85 15 227 39 315 54 88 15 171 28 185 29 14 1
106 -24 205 -55z m-1547 -244 c161 -54 214 -74 617 -225 170 -64 185 -70 185
-77 0 -6 -40 -15 -162 -37 -71 -13 -294 -55 -449 -86 l-126 -24 -119 45 c-65
25 -166 62 -224 83 -58 21 -175 68 -260 104 -86 36 -168 69 -183 72 -15 4 -30
11 -33 16 -3 5 -14 9 -25 9 -10 0 -19 3 -19 8 0 9 126 38 424 98 121 24 222
46 224 49 10 10 36 4 150 -35z m2279 -131 c24 -10 140 -50 478 -169 102 -35
478 -185 494 -197 2 -2 -3 -11 -12 -21 -9 -10 -29 -49 -45 -87 l-28 -69 -295
-42 c-161 -23 -362 -54 -445 -68 l-151 -26 -159 64 c-310 126 -409 167 -429
176 -11 6 -143 59 -293 119 -150 59 -275 111 -278 114 -3 3 11 9 32 13 22 3
104 20 184 35 134 27 320 61 515 94 117 20 400 72 402 74 1 0 14 -4 30 -10z
m4947 -10 c27 -5 50 -9 52 -9 15 0 63 -204 84 -360 16 -125 40 -458 40 -572 0
-98 -7 -127 -25 -98 -12 19 -158 113 -219 140 -261 117 -547 63 -789 -151
-106 -92 -204 -256 -243 -404 -28 -107 -25 -347 6 -475 33 -138 34 -132 -27
-145 -63 -12 -93 -37 -77 -63 10 -14 30 -17 140 -19 376 -6 563 -80 610 -241
18 -62 17 -213 -3 -312 -40 -203 -171 -388 -328 -466 -88 -43 -120 -52 -260
-70 -159 -21 -296 -10 -463 37 -119 34 -156 51 -232 108 -48 36 -110 110 -110
132 0 14 -53 35 -77 31 -83 -13 23 -189 167 -277 100 -61 259 -113 415 -135
165 -25 401 -8 485 35 14 7 43 18 64 25 95 31 237 146 321 260 80 108 133 250
144 380 l6 75 95 16 c181 30 302 86 417 192 23 21 44 33 47 28 9 -14 10 -738
1 -860 -9 -123 -12 -127 -116 -164 -195 -67 -694 -189 -934 -227 -71 -11 -161
-27 -200 -35 -38 -7 -122 -21 -185 -30 -260 -36 -398 -54 -455 -60 -33 -3 -71
-8 -85 -10 -74 -14 -406 -44 -665 -60 -456 -28 -451 -28 -730 61 -379 122
-675 238 -725 284 -35 32 -42 95 -58 475 -9 198 -7 1327 2 1490 3 66 11 242
16 390 17 436 35 549 98 591 134 91 730 228 1407 324 116 17 264 39 330 49
141 23 340 47 515 61 69 6 141 13 160 15 19 3 98 10 175 15 77 6 185 14 240
20 55 5 188 12 295 16 107 4 197 9 200 11 8 8 421 -8 474 -18z m-8064 -104
c75 -32 316 -128 393 -157 33 -13 33 -19 12 -203 -8 -71 -19 -191 -25 -265
-10 -123 -27 -261 -33 -267 -5 -4 -334 132 -461 191 l-79 37 6 77 c19 236 29
338 42 437 8 61 17 128 19 150 3 22 5 42 5 44 1 6 31 -5 121 -44z m1946 -181
c77 -31 193 -78 259 -104 303 -121 435 -175 435 -181 0 -3 -78 -19 -172 -36
-178 -32 -263 -48 -451 -84 l-107 -21 -258 102 c-141 55 -329 130 -418 166
-88 35 -166 64 -172 64 -6 0 -13 4 -16 9 -3 5 18 14 47 19 28 5 142 26 252 47
110 20 243 45 295 55 144 27 153 26 306 -36z m-1241 -104 c161 -68 472 -190
575 -226 l55 -19 -1 -55 c-1 -53 -19 -251 -49 -530 -8 -74 -21 -202 -30 -285
-8 -82 -21 -208 -29 -280 -8 -71 -17 -161 -21 -200 -12 -151 -18 -205 -21
-205 -2 0 -147 71 -322 159 -174 87 -359 178 -409 201 -106 49 -99 35 -83 183
5 51 14 144 20 207 6 63 13 135 15 160 3 25 9 101 15 170 6 69 20 206 31 305
10 99 22 209 25 245 3 36 10 103 15 150 5 47 9 89 9 93 0 12 26 3 205 -73z
m3288 -246 c-2 -10 -7 -67 -12 -126 -5 -59 -12 -111 -15 -116 -3 -5 -38 -14
-78 -21 -40 -8 -89 -17 -108 -22 -28 -7 -49 -3 -115 22 -84 33 -297 120 -352
145 -17 8 -36 14 -42 14 -6 0 -11 4 -11 9 0 12 12 14 305 57 138 19 286 41
330 49 94 15 101 14 98 -11z m-958 -94 c16 -8 394 -164 518 -213 15 -6 27 -14
27 -18 0 -6 -102 -29 -480 -104 -218 -44 -226 -45 -265 -29 -22 9 -125 53
-230 98 -104 46 -270 114 -367 152 -98 38 -178 72 -178 75 0 4 17 10 38 13 20
4 120 22 222 42 221 41 278 51 390 68 l85 12 110 -43 c61 -24 119 -48 130 -53z
m-1544 30 c41 -17 184 -76 319 -130 336 -136 461 -187 466 -193 3 -3 -4 -90
-16 -193 -12 -104 -24 -207 -26 -229 -18 -187 -42 -386 -47 -391 -3 -3 -58 17
-123 45 -436 183 -703 299 -721 314 -7 5 -11 19 -8 31 3 11 16 145 30 296 14
151 27 289 29 305 2 17 7 63 11 103 4 39 8 72 10 72 2 0 36 -14 76 -30z
m-1482 -248 c91 -41 202 -90 246 -107 l80 -33 -3 -63 c-2 -35 -7 -98 -12 -139
-5 -41 -12 -113 -15 -160 -3 -47 -8 -98 -10 -115 -2 -16 -6 -60 -10 -97 -4
-38 -11 -68 -16 -68 -5 0 -59 27 -121 59 -62 32 -174 90 -248 129 -127 65
-135 71 -134 98 1 41 23 403 30 502 8 98 -17 99 213 -6z m7911 -31 c141 -48
306 -181 379 -304 99 -167 134 -332 113 -530 -15 -151 -40 -217 -133 -358
-101 -152 -224 -239 -403 -285 -133 -34 -129 -35 -144 41 -26 138 -102 223
-252 283 -68 27 -212 58 -307 68 -40 3 -77 12 -81 18 -10 12 -36 117 -52 210
-36 210 18 446 141 612 98 133 293 249 449 268 84 10 226 -2 290 -23z m-3965
-188 c-4 -87 -10 -288 -14 -447 l-6 -289 -60 -18 c-33 -9 -77 -20 -97 -24 -21
-3 -50 -16 -64 -28 -30 -26 -27 -5 -50 -367 -9 -140 -21 -266 -27 -280 -11
-22 -31 -30 -152 -61 -77 -21 -155 -42 -174 -48 l-34 -10 7 116 c15 266 37
579 41 594 4 10 33 20 93 32 139 27 192 45 202 70 7 19 26 277 47 637 3 52 8
124 12 159 l6 64 123 23 c68 12 126 25 130 28 20 20 23 -8 17 -151z m-1535 86
c105 -40 365 -151 378 -162 9 -7 11 -23 8 -46 -4 -20 -13 -124 -21 -231 -16
-199 -21 -266 -30 -355 -3 -27 -7 -102 -10 -165 -4 -63 -14 -171 -25 -240 -10
-69 -29 -223 -41 -342 -13 -120 -26 -218 -30 -218 -5 0 -42 15 -83 34 -41 19
-85 37 -98 41 -24 8 -225 96 -358 157 -41 19 -107 49 -147 68 -66 30 -72 35
-68 59 2 14 9 78 15 141 20 203 51 485 55 489 4 4 60 -19 162 -65 118 -54 129
-39 153 202 11 104 29 272 41 374 11 102 23 206 26 233 3 26 8 47 12 47 3 0
31 -9 61 -21z m1176 -81 c-3 -40 -15 -217 -26 -392 -11 -176 -23 -323 -27
-326 -9 -8 -266 -68 -433 -101 -58 -12 -136 -27 -174 -35 -38 -8 -70 -13 -72
-12 -2 3 11 207 20 313 3 33 13 152 22 265 9 122 21 210 27 216 7 6 53 19 102
28 84 15 135 26 430 91 61 13 116 24 124 24 11 1 13 -13 7 -71z m-4031 -320
c16 -105 10 -99 235 -212 113 -57 260 -127 328 -157 67 -29 122 -56 122 -59 0
-3 -57 -20 -127 -36 l-126 -31 -306 152 c-168 83 -363 180 -433 214 -71 35
-128 65 -128 67 0 10 350 96 422 103 3 1 9 -18 13 -41z m1858 -122 c128 -61
429 -196 437 -196 24 0 29 -30 20 -106 -5 -43 -17 -149 -25 -234 -19 -198 -33
-322 -38 -326 -4 -4 -440 187 -516 225 l-43 23 6 46 c3 26 17 168 31 315 13
148 27 272 30 278 9 14 20 11 98 -25z m-2217 -95 c100 -49 184 -93 187 -97 5
-9 -19 -236 -28 -261 -2 -7 -49 13 -127 53 -68 36 -136 72 -153 80 -69 34 -70
34 -76 167 -5 120 -3 147 10 147 3 0 88 -40 187 -89z m347 -175 c352 -166 347
-163 347 -192 0 -64 -24 -254 -33 -254 -7 0 -416 206 -424 214 -7 7 22 266 29
266 5 0 41 -15 81 -34z m994 -175 c99 -49 247 -119 329 -156 82 -37 211 -96
287 -131 76 -35 142 -64 148 -64 6 0 9 -6 7 -12 -5 -14 -119 -52 -220 -73
l-67 -14 -78 43 c-43 23 -247 127 -453 230 -206 103 -381 193 -388 199 -10 10
13 18 110 39 68 14 128 26 135 27 6 0 92 -39 190 -88z m2697 -58 c-2 -38 -9
-113 -14 -168 -6 -55 -15 -183 -21 -285 -5 -102 -13 -188 -17 -192 -7 -7 -404
-110 -407 -106 -1 2 1 39 5 83 4 44 13 143 20 220 16 189 48 417 59 428 9 9
329 85 363 86 15 1 17 -7 12 -66z m-3026 -96 c206 -105 213 -109 208 -135 -3
-15 -10 -79 -17 -142 -6 -63 -13 -116 -14 -118 -7 -8 -376 192 -415 224 -14
11 -14 29 -3 146 6 73 12 135 12 136 1 5 -6 8 229 -111z m535 -268 c133 -66
245 -124 248 -127 7 -7 -36 -281 -45 -290 -8 -8 -62 17 -191 88 -66 37 -160
88 -208 114 l-88 48 5 46 c10 78 26 227 26 235 0 4 2 7 5 7 3 0 114 -54 248
-121z m3187 24 c0 -10 2 -61 4 -113 3 -52 8 -214 11 -360 4 -146 11 -305 15
-354 5 -49 7 -93 4 -97 -2 -4 -33 -10 -68 -14 -62 -7 -93 2 -154 43 -10 7 -7
36 12 143 31 170 52 315 80 557 23 202 27 212 74 212 14 0 22 -6 22 -17z
m-2417 -59 c152 -77 538 -254 664 -305 73 -30 133 -56 133 -59 0 -3 -26 -13
-57 -21 -32 -9 -110 -31 -173 -49 l-115 -32 -320 160 c-176 88 -365 181 -420
208 -56 27 -93 50 -85 52 65 22 269 80 283 81 10 1 51 -15 90 -35z m-1454
-166 c193 -94 351 -176 350 -182 0 -6 -52 -49 -116 -96 -64 -47 -163 -123
-222 -169 -169 -135 -313 -241 -325 -241 -34 1 -218 152 -265 219 l-20 27 84
90 c45 49 108 109 139 133 58 45 66 60 42 81 -27 22 -101 -26 -274 -177 l-60
-53 -43 58 c-23 31 -65 83 -93 115 l-49 57 26 28 c15 15 70 55 123 87 93 59
333 193 345 194 4 1 165 -76 358 -171z m1256 -91 c174 -89 220 -116 218 -131
-10 -121 -28 -263 -33 -269 -7 -8 -464 215 -474 231 -4 7 24 193 39 260 3 12
11 22 18 22 6 -1 111 -51 232 -113z m2295 -39 c1 -2 -1 -35 -5 -75 -5 -47 -13
-77 -24 -86 -17 -15 -36 -21 -326 -93 -99 -25 -193 -49 -210 -54 -16 -5 -112
-30 -213 -55 -100 -25 -209 -54 -241 -65 l-58 -18 -49 23 c-27 12 -92 42 -144
66 -52 24 -138 65 -190 90 -107 52 -107 49 15 83 33 10 103 31 156 48 l96 30
144 -55 144 -56 320 75 c176 41 376 92 445 113 110 35 131 39 140 29z m-1466
-378 c10 -10 -13 -298 -25 -305 -7 -5 -390 186 -486 242 -38 22 -43 29 -43 61
0 49 20 253 25 262 4 6 510 -243 529 -260z m326 -185 c0 -16 -5 -61 -10 -100
-9 -57 -16 -75 -43 -103 -53 -56 -58 -56 -134 -13 -61 34 -68 42 -71 72 -4 35
19 270 27 285 1 1 53 -24 116 -55 109 -53 115 -58 115 -86z m1023 -22 c83 -49
171 -100 196 -116 25 -15 67 -38 92 -52 54 -28 59 -38 59 -108 -1 -108 -17
-184 -86 -394 -43 -133 -180 -362 -299 -503 -155 -183 -385 -386 -485 -428
-74 -31 -288 6 -565 96 -176 58 -408 153 -420 172 -10 16 81 134 187 246 54
57 98 108 98 114 0 19 -29 23 -53 7 -50 -33 -193 -176 -249 -249 -32 -43 -62
-78 -65 -78 -12 0 -190 100 -231 130 -23 16 -42 36 -42 43 1 20 40 62 111 119
332 267 888 789 933 876 26 50 61 63 335 127 102 24 218 53 256 64 39 10 72
19 74 20 2 1 72 -38 154 -86z m3915 -487 c61 -74 112 -157 112 -183 0 -25
-315 -164 -330 -146 -4 5 -17 37 -30 73 -13 36 -43 111 -67 168 -23 57 -43
106 -43 111 0 8 214 48 266 50 27 1 39 -9 92 -73z m-371 -173 l81 -188 -36
-17 c-21 -9 -98 -31 -172 -48 -286 -67 -260 -70 -306 28 -162 343 -158 333
-142 344 7 4 20 8 28 8 8 1 110 14 225 29 116 16 217 29 225 30 11 1 40 -55
97 -186z m-689 70 c23 -34 184 -343 178 -343 -20 0 -155 49 -210 77 -108 54
-290 185 -323 232 -16 23 -15 23 157 45 163 21 176 20 198 -11z"/>
<path d="M8971 6979 c-18 -4 -43 -16 -54 -28 -18 -17 -19 -24 -9 -46 14 -31
48 -45 111 -45 69 0 195 -34 276 -75 77 -39 106 -43 126 -19 11 13 9 22 -9 57
-40 74 -127 120 -289 150 -83 16 -100 17 -152 6z"/>
<path d="M6310 6849 c-8 -15 -9 -49 -1 -127 6 -59 18 -192 27 -297 8 -104 20
-195 26 -202 15 -18 47 -16 55 3 5 14 -7 196 -21 309 -2 17 -7 91 -11 165 -4
74 -11 143 -17 153 -12 23 -45 22 -58 -4z"/>
<path d="M7173 6815 c-78 -17 -218 -90 -301 -156 -92 -73 -150 -171 -122 -204
23 -27 51 -16 118 48 107 100 181 143 332 192 103 33 110 39 110 79 0 58 -24
66 -137 41z"/>
<path d="M7197 6315 c-264 -53 -525 -251 -644 -490 -53 -105 -103 -317 -103
-435 0 -81 26 -218 55 -297 59 -154 179 -310 307 -397 190 -127 478 -190 698
-152 192 33 414 170 537 331 115 151 162 288 170 496 8 212 -18 338 -102 496
-89 167 -195 277 -358 367 -153 86 -375 117 -560 81z m380 -113 c117 -37 230
-108 323 -201 72 -72 94 -103 138 -191 74 -148 96 -252 89 -425 -9 -220 -72
-369 -218 -516 -76 -77 -98 -93 -201 -143 -169 -83 -309 -103 -504 -71 -186
30 -386 148 -493 291 -181 242 -201 606 -48 869 114 196 317 347 537 401 80
19 296 11 377 -14z"/>
<path d="M7667 5675 c-52 -18 -81 -47 -109 -108 -33 -75 -33 -229 0 -303 53
-116 143 -160 237 -114 57 27 89 74 111 160 27 108 6 242 -52 317 -46 61 -108
77 -187 48z"/>
<path d="M8396 4704 c-30 -30 -27 -33 106 -103 101 -53 135 -62 145 -35 15 40
-65 113 -147 133 -82 21 -89 21 -104 5z"/>
<path d="M6475 4564 c-18 -18 -18 -24 11 -479 23 -374 24 -388 36 -402 6 -7
19 -13 29 -13 32 0 39 31 29 121 -21 183 -37 402 -46 609 -7 176 -18 205 -59
164z"/>
<path d="M8925 5812 c-84 -54 -119 -141 -113 -278 6 -151 70 -249 168 -258 87
-8 142 28 180 117 58 134 17 350 -77 408 -49 31 -120 36 -158 11z"/>
<path d="M4782 3408 c-222 -346 -347 -497 -620 -753 -135 -125 -182 -175 -182
-192 0 -46 28 -36 140 52 259 204 489 464 657 746 85 142 110 203 93 224 -7 8
-16 15 -21 15 -4 0 -35 -42 -67 -92z"/>
<path d="M361 3891 c-26 -17 0 -51 72 -93 77 -45 311 -147 338 -148 33 0 29
29 -9 60 -36 30 -251 140 -340 174 -49 19 -43 18 -61 7z"/>
<path d="M2089 3594 c-12 -14 -10 -19 14 -38 15 -11 73 -42 129 -68 413 -188
509 -229 518 -223 17 11 11 40 -12 62 -59 52 -204 131 -368 200 -202 86 -255
98 -281 67z"/>
<path d="M2615 3560 c-14 -22 9 -49 68 -81 115 -61 172 -89 249 -123 65 -29
79 -32 89 -20 15 19 7 37 -33 67 -108 82 -355 186 -373 157z"/>
<path d="M1634 3486 c-17 -45 0 -54 290 -150 125 -42 305 -108 400 -146 95
-39 180 -70 188 -70 9 0 21 6 27 14 9 11 4 20 -26 45 -111 92 -649 303 -810
318 -52 5 -64 3 -69 -11z"/>
<path d="M1162 3338 c-7 -7 -12 -22 -12 -35 0 -37 51 -55 240 -88 107 -18 397
-94 512 -135 99 -34 111 -36 127 -16 21 25 0 43 -109 94 -254 118 -711 227
-758 180z"/>
<path d="M5733 2934 c-3 -9 -2 -24 4 -33 9 -15 149 -79 294 -135 167 -64 499
-223 654 -313 63 -37 105 -46 112 -25 7 18 -95 113 -163 152 -33 19 -77 45
-99 57 -53 31 -340 172 -385 188 -19 8 -73 30 -120 49 -162 69 -284 93 -297
60z"/>
<path d="M6340 2895 c0 -31 35 -55 176 -120 60 -27 241 -116 402 -198 162 -81
298 -145 303 -141 27 17 -10 59 -126 141 -217 155 -615 343 -726 343 -24 0
-29 -4 -29 -25z"/>
<path d="M7012 2813 c3 -31 31 -46 395 -221 170 -81 213 -95 213 -68 0 65
-463 316 -582 316 -26 0 -29 -3 -26 -27z"/>
<path d="M5196 2351 c-11 -17 7 -42 43 -61 51 -25 378 -150 395 -150 7 0 19 7
26 15 25 30 -42 75 -213 144 -130 52 -238 74 -251 52z"/>
</g>
</svg>
