<?xml version="1.0" standalone="no"?>
<!DOCTYPE svg PUBLIC "-//W3C//DTD SVG 20010904//EN"
 "http://www.w3.org/TR/2001/REC-SVG-20010904/DTD/svg10.dtd">
<svg version="1.0" xmlns="http://www.w3.org/2000/svg"
 width="1024.000000pt" height="1024.000000pt" viewBox="0 0 1024.000000 1024.000000"
 preserveAspectRatio="xMidYMid meet">
<metadata>
Created by potrace 1.16, written by Peter Selinger 2001-2019
</metadata>
<g transform="translate(0.000000,1024.000000) scale(0.100000,-0.100000)"
fill="#000000" stroke="none">
<path d="M5142 9981 c-36 -5 -59 -14 -76 -31 -26 -26 -311 -632 -541 -1147
-29 -65 -37 -71 -95 -69 -25 1 -34 5 -32 16 2 8 28 83 59 165 31 83 66 179 78
215 13 36 57 157 99 270 42 112 76 220 76 238 0 44 -28 70 -198 190 -214 149
-167 137 -522 137 -323 0 -358 -4 -397 -48 -11 -12 -39 -71 -61 -132 -53 -146
-193 -572 -232 -710 -17 -60 -47 -158 -66 -217 l-35 -107 -415 1 c-462 1 -449
2 -479 -70 -9 -20 -36 -118 -61 -217 -24 -99 -49 -192 -55 -207 -11 -28 -38
-41 -169 -83 -30 -10 -104 -37 -165 -60 -60 -23 -150 -57 -198 -75 -131 -49
-163 -96 -132 -192 46 -143 212 -457 267 -503 35 -30 50 -31 105 -6 23 11 43
17 46 15 2 -3 -2 -35 -10 -72 -8 -37 -18 -110 -21 -162 l-7 -95 -285 3 c-157
2 -328 -1 -380 -7 -86 -9 -97 -13 -122 -40 -16 -18 -31 -51 -38 -88 -7 -32
-23 -103 -36 -158 -12 -55 -37 -188 -54 -295 -17 -107 -43 -260 -56 -340 -23
-136 -59 -391 -71 -506 -5 -46 -3 -53 24 -80 17 -16 70 -52 119 -80 49 -28
163 -96 254 -151 223 -135 495 -292 549 -316 33 -15 75 -20 183 -24 97 -4 138
-9 135 -17 -3 -6 -17 -56 -32 -111 -30 -114 -66 -236 -101 -344 -40 -124 -26
-202 39 -219 45 -12 93 1 189 53 65 34 87 42 96 33 7 -7 12 -16 12 -21 0 -5
18 -55 41 -113 46 -119 70 -144 133 -144 51 0 71 13 226 144 69 58 130 106
135 106 6 0 23 -16 39 -36 24 -30 26 -38 15 -48 -8 -7 -160 -126 -339 -264
-179 -138 -408 -317 -510 -398 -102 -80 -240 -189 -308 -241 -67 -52 -138
-109 -157 -127 -53 -50 -49 -85 26 -231 65 -128 80 -153 267 -456 137 -220
115 -201 322 -282 222 -86 375 -145 413 -157 79 -25 92 -17 309 203 l198 202
20 -24 c11 -13 46 -69 77 -124 36 -63 67 -106 86 -117 16 -10 80 -31 141 -46
61 -15 129 -34 151 -41 99 -36 406 -114 467 -120 55 -5 72 -2 94 12 26 17 220
214 409 415 397 424 684 726 758 799 l76 74 76 -13 c43 -7 81 -18 86 -24 5 -6
54 -102 109 -212 95 -193 101 -202 139 -217 47 -19 254 -49 530 -77 113 -11
205 -21 206 -23 1 -1 13 -33 25 -72 29 -88 124 -327 220 -553 52 -122 81 -177
98 -188 14 -9 54 -20 91 -24 82 -11 375 -31 458 -32 91 -2 83 -9 335 305 153
191 168 214 168 265 0 62 -11 80 -218 370 -69 95 -123 174 -121 176 2 2 54 10
114 19 61 9 118 18 128 19 14 2 38 -31 101 -137 91 -153 321 -535 362 -602 45
-73 58 -77 213 -69 230 11 397 31 426 50 29 19 73 77 190 250 44 65 110 161
147 215 57 81 68 102 68 138 0 61 -9 79 -101 194 -46 57 -117 149 -159 204
-92 123 -154 202 -287 370 -235 297 -262 328 -292 344 -25 14 -186 30 -294 31
l-77 0 5 43 c4 23 10 69 15 102 5 33 21 163 35 289 14 127 28 244 30 260 7 48
33 290 55 513 20 202 25 233 40 233 7 0 176 182 319 344 114 130 201 245 207
274 11 56 -37 118 -267 338 -121 116 -128 121 -185 132 -140 27 -565 53 -606
37 -22 -9 -134 -155 -278 -365 -63 -91 -132 -190 -154 -220 -22 -30 -41 -56
-42 -58 0 -1 -77 28 -170 64 -184 72 -387 149 -919 349 -82 31 -206 78 -275
104 -69 27 -133 51 -142 54 -22 8 -23 4 6 117 105 405 124 477 130 496 6 19
17 21 194 30 l187 9 110 56 c61 30 187 96 280 146 94 50 224 119 290 153 225
118 290 169 315 245 22 67 -2 135 -183 525 -77 165 -126 257 -149 280 -98 103
-196 100 -593 -13 -49 -14 -157 -45 -240 -67 -163 -46 -238 -76 -358 -147 -43
-25 -81 -43 -84 -39 -4 3 132 283 301 621 302 602 308 615 296 649 -14 45
-143 165 -370 347 -96 77 -78 74 -440 75 -179 1 -349 -1 -378 -5z m481 -188
c57 -3 97 -10 97 -17 0 -5 -22 -58 -49 -116 -27 -58 -74 -159 -104 -225 l-55
-120 -76 0 c-356 2 -456 6 -456 18 0 7 11 37 25 65 14 29 25 54 25 57 0 2 21
48 46 102 26 54 62 131 80 171 l33 72 168 0 c92 0 212 -3 266 -7z m-1495 -29
c61 -7 60 3 6 -139 -19 -49 -53 -146 -77 -215 l-42 -125 -228 -3 c-227 -2
-228 -2 -222 18 4 12 22 74 41 138 42 143 93 300 106 326 9 17 20 18 187 12
97 -4 200 -9 229 -12z m1799 -86 c100 -76 193 -158 193 -171 0 -22 -222 -457
-234 -457 -6 0 -66 45 -134 100 l-122 101 14 32 c7 18 40 93 73 167 33 74 73
168 89 208 15 39 33 72 40 72 7 0 43 -23 81 -52z m-1549 1 c33 -23 78 -55 98
-73 l37 -32 -65 -169 c-36 -94 -75 -198 -88 -232 -12 -35 -24 -63 -27 -63 -5
0 -193 122 -193 125 0 5 131 401 146 443 9 23 19 42 23 42 4 0 35 -18 69 -41z
m814 -499 c111 -5 213 -10 226 -10 12 0 22 -5 22 -10 0 -13 -251 -520 -257
-520 -2 0 -31 19 -64 43 l-60 42 -180 3 c-208 4 -194 -9 -129 122 21 41 63
131 95 200 32 69 62 131 68 138 7 9 22 11 43 7 18 -3 124 -10 236 -15z m-1434
-36 c114 -4 208 -8 210 -9 3 -2 -126 -377 -132 -383 -4 -4 -438 -3 -442 1 -5
5 109 382 119 395 6 7 16 11 24 8 7 -3 107 -8 221 -12z m1946 -134 c64 -52
116 -101 116 -108 0 -10 -261 -532 -274 -549 0 -1 -56 41 -124 94 -98 76 -121
99 -117 114 4 10 46 101 94 201 48 101 105 220 126 266 22 47 44 82 51 80 7
-2 65 -46 128 -98z m-1497 13 l83 -53 -19 -47 c-10 -27 -28 -78 -40 -115 l-23
-68 -115 0 c-106 0 -115 1 -108 18 4 9 29 84 57 167 27 82 52 153 54 157 6 9
1 12 111 -59z m-797 -467 c157 -3 554 -8 883 -12 328 -3 597 -10 597 -15 0 -5
-18 -64 -39 -131 -80 -249 -102 -325 -113 -392 -11 -69 -11 -69 16 -93 33 -28
38 -28 65 -5 14 12 32 58 56 150 33 123 138 438 150 450 3 3 115 -78 250 -179
216 -162 268 -209 236 -209 -5 0 -52 -40 -104 -90 -108 -102 -122 -130 -83
-168 23 -24 28 -25 63 -14 21 7 88 49 150 94 187 138 431 288 521 319 82 29
504 135 608 153 108 19 175 20 197 4 30 -23 267 -548 267 -592 0 -31 -29 -61
-87 -91 -21 -11 -92 -50 -158 -86 -133 -74 -558 -300 -590 -314 -11 -5 -169
-11 -351 -14 -311 -6 -333 -7 -353 -25 -16 -15 -21 -29 -19 -54 4 -52 38 -72
136 -81 45 -4 83 -9 86 -11 2 -3 -23 -109 -55 -235 -125 -480 -306 -1203 -420
-1680 -82 -345 -131 -515 -147 -515 -8 0 -101 29 -206 64 -105 35 -236 78
-291 96 -282 88 -421 134 -428 140 -4 3 4 55 19 116 90 382 98 436 64 454 -25
13 -57 5 -69 -18 -5 -9 -25 -91 -45 -182 -20 -91 -47 -205 -60 -255 l-23 -90
-99 0 c-136 1 -622 14 -769 22 l-120 5 -145 106 c-80 58 -219 160 -310 227
-91 67 -178 130 -193 140 -22 14 -28 24 -24 44 2 14 27 161 55 326 27 165 55
329 62 365 6 36 28 170 48 299 l36 233 61 -6 c184 -18 536 -46 585 -46 51 0
58 3 68 25 17 36 15 59 -6 85 -21 26 -92 41 -307 67 -77 9 -141 17 -143 19 -2
1 4 48 13 104 13 75 16 138 13 238 -4 120 -9 149 -36 230 -61 179 -166 294
-316 349 -61 22 -190 18 -266 -7 -34 -12 -64 -19 -66 -18 -2 2 4 28 12 58 8
30 37 141 64 245 86 336 100 388 111 401 11 14 214 14 949 0z m-1288 -567 c-2
-8 -24 -99 -49 -204 -24 -104 -50 -200 -56 -213 -10 -20 -111 -72 -139 -72
-11 0 -91 148 -166 310 -25 56 -23 59 83 93 44 15 132 44 195 67 117 40 138
44 132 19z m475 -240 c104 -40 188 -152 230 -309 23 -86 22 -286 -1 -390 -9
-41 -20 -78 -25 -83 -4 -4 -18 -4 -31 1 -22 8 -23 12 -21 106 3 118 -13 192
-53 258 -41 68 -86 93 -148 84 -116 -17 -212 -157 -226 -331 l-7 -80 -110 4
c-60 2 -117 5 -125 7 -8 1 -24 3 -34 3 -18 1 -19 7 -13 104 20 313 165 575
350 633 65 20 148 17 214 -7z m-492 -900 c263 -12 429 -24 442 -32 7 -4 4 -50
-8 -129 -57 -386 -73 -485 -94 -598 -14 -69 -38 -206 -55 -304 -17 -99 -31
-181 -33 -182 -3 -4 -475 16 -567 24 -67 6 -85 10 -83 22 1 8 16 125 33 260
16 135 33 262 36 282 l6 38 271 136 c150 74 282 145 295 156 34 33 25 85 -19
108 -16 9 -42 0 -151 -56 -73 -37 -148 -76 -168 -87 -19 -11 -89 -47 -154 -80
-109 -54 -122 -58 -142 -46 -23 15 -150 127 -255 227 -36 34 -75 62 -85 62
-28 0 -64 -36 -64 -64 0 -31 101 -138 240 -255 82 -68 105 -93 104 -112 0 -13
-12 -114 -27 -224 -14 -110 -29 -227 -32 -260 -4 -33 -9 -70 -12 -83 l-5 -23
-258 3 c-142 2 -262 6 -266 11 -15 15 18 260 127 932 16 105 34 201 39 215 4
14 11 38 15 54 l6 29 327 -7 c180 -4 422 -11 537 -17z m6035 -460 c85 -7 159
-16 163 -20 5 -4 -31 -56 -80 -115 -90 -111 -396 -479 -417 -502 -10 -10 -26
-7 -82 17 -38 16 -100 42 -139 57 -38 15 -74 31 -78 34 -4 4 32 63 80 131 49
68 135 191 192 273 l104 148 51 -5 c28 -4 121 -12 206 -18z m-2320 -73 c19 -7
114 -44 210 -81 96 -37 337 -130 535 -205 402 -154 831 -322 1035 -406 74 -31
225 -92 335 -135 109 -44 202 -83 206 -87 3 -4 -2 -82 -12 -174 -24 -225 -24
-230 -59 -573 -27 -269 -35 -341 -45 -397 -2 -9 -14 -89 -26 -177 -21 -152
-22 -163 -6 -196 10 -21 26 -36 39 -39 13 -3 110 -7 216 -9 140 -4 197 -8 208
-18 25 -20 238 -290 328 -414 43 -60 90 -123 103 -138 12 -16 23 -35 23 -42 0
-7 -39 -67 -87 -132 -47 -65 -110 -155 -140 -200 -30 -45 -59 -85 -65 -89 -13
-8 -313 -64 -344 -64 -21 0 -86 102 -258 403 -39 68 -56 72 -206 53 -69 -9
-138 -21 -155 -26 -43 -12 -446 -63 -452 -56 -5 5 38 386 57 511 6 33 16 116
25 185 8 69 19 168 26 221 13 109 6 134 -38 145 -21 6 -31 2 -48 -18 -25 -29
-19 11 -90 -628 -25 -223 -47 -410 -49 -417 -5 -12 -156 17 -301 57 -38 11
-179 44 -311 74 -133 30 -309 71 -390 90 -82 20 -232 54 -334 76 -101 23 -186
43 -189 45 -2 3 48 60 111 127 128 137 138 152 138 202 0 40 -35 72 -67 62
-10 -3 -209 -205 -443 -448 -362 -377 -763 -791 -784 -808 -3 -3 -74 130 -156
295 -83 165 -158 308 -167 318 -19 20 -22 17 63 89 28 23 114 99 190 168 76
68 182 162 234 209 52 46 191 174 308 283 183 172 212 203 212 229 0 33 -31
69 -59 69 -11 0 -67 -44 -126 -97 -278 -255 -895 -807 -913 -817 -9 -5 -52 -3
-111 7 -53 9 -161 26 -241 37 -234 32 -360 53 -359 59 0 8 411 346 581 479
239 188 274 223 261 270 -3 12 -16 28 -29 37 -32 21 -32 20 -234 -137 -205
-161 -346 -268 -353 -268 -3 0 -36 39 -73 88 -157 203 -175 222 -205 222 -51
0 -66 -68 -27 -123 13 -18 62 -83 111 -146 48 -62 86 -118 85 -123 -2 -5 -65
-62 -139 -126 -265 -228 -529 -463 -544 -485 -32 -45 -28 -55 126 -323 55 -95
99 -178 99 -186 0 -13 -319 -338 -332 -338 -4 0 -20 21 -35 48 -15 26 -54 90
-88 142 -33 52 -94 153 -135 224 l-74 130 50 42 c27 24 112 96 189 161 147
124 166 151 128 185 -17 15 -110 58 -415 190 -65 28 -118 55 -118 59 0 5 28
30 62 57 34 26 89 70 123 97 35 28 120 95 190 150 71 55 198 155 283 223 l154
123 22 -19 c28 -26 58 -40 76 -37 66 12 97 53 123 161 8 32 40 147 72 254 31
107 71 247 88 310 18 63 37 115 42 115 6 0 161 -4 345 -9 314 -7 340 -9 420
-32 47 -14 101 -31 120 -39 46 -19 438 -135 455 -135 8 0 17 -5 20 -10 6 -10
-116 -10 -946 6 -304 6 -349 4 -376 -9 -46 -24 -57 -69 -25 -105 16 -19 33
-20 362 -27 190 -3 581 -7 870 -8 558 -1 571 0 600 46 20 33 102 337 321 1202
33 132 62 247 64 255 17 62 64 250 69 273 7 30 16 32 66 13z m2738 -115 c62
-60 112 -113 112 -119 0 -5 -24 -36 -52 -69 -29 -33 -109 -124 -178 -204 -69
-79 -146 -167 -173 -195 l-48 -52 -135 59 c-74 32 -139 61 -144 64 -11 7 23
53 167 226 48 58 142 172 208 252 66 81 123 147 126 147 3 0 56 -49 117 -109z
m-6438 -732 c146 -6 274 -14 286 -19 12 -4 75 -48 140 -97 65 -49 164 -122
219 -162 174 -126 181 -112 -55 -106 -113 3 -248 8 -300 10 -52 3 -169 7 -260
11 -253 9 -254 9 -441 114 -214 120 -449 260 -449 267 0 8 509 -3 860 -18z
m470 -544 c107 -3 294 -8 415 -11 121 -3 235 -7 253 -10 39 -6 39 -5 -10 -164
-15 -52 -53 -180 -83 -284 -30 -104 -57 -192 -61 -195 -3 -3 -8 -1 -12 5 -65
97 -147 207 -164 219 -45 31 -67 20 -219 -108 -80 -67 -154 -128 -163 -136
-23 -20 -26 -14 -77 139 -56 172 -82 190 -181 126 -65 -41 -139 -79 -144 -74
-2 3 15 65 37 139 23 74 54 183 69 243 16 60 34 112 41 117 7 4 33 6 58 4 26
-3 134 -7 241 -10z m-285 -1639 c105 -48 211 -97 238 -108 26 -12 46 -25 45
-29 -6 -16 -282 -239 -296 -239 -8 0 -31 9 -51 19 -20 11 -128 59 -241 107
-113 48 -207 89 -210 92 -11 10 299 255 315 248 6 -2 96 -43 200 -90z m1190 9
c99 -14 203 -29 230 -34 28 -6 96 -15 153 -22 56 -7 102 -16 102 -21 0 -8
-238 -220 -274 -243 -21 -14 -35 -13 -172 19 -82 18 -228 50 -324 71 -96 21
-178 40 -182 44 -4 4 29 38 74 76 44 39 86 75 92 80 57 51 81 66 100 61 12 -4
102 -17 201 -31z m2410 -101 c160 -41 289 -72 458 -109 86 -19 219 -50 295
-69 75 -18 211 -48 302 -66 l165 -33 130 17 c71 9 142 19 157 22 25 5 32 -2
84 -83 31 -48 59 -96 62 -106 3 -11 -22 -45 -74 -103 -44 -47 -111 -122 -150
-166 l-71 -81 -79 4 c-43 2 -134 3 -202 4 l-124 0 -78 209 c-98 262 -96 260
-240 275 -274 29 -607 70 -623 76 -13 5 -127 213 -127 232 0 6 15 3 115 -23z
m-1783 -104 c75 -134 299 -583 296 -595 -5 -19 -276 -297 -281 -288 -114 196
-219 382 -288 506 l-87 157 121 107 c67 59 137 122 156 140 19 18 39 32 44 30
5 -1 23 -27 39 -57z m4946 -55 c20 -27 55 -72 79 -99 24 -26 43 -54 43 -60 0
-7 -30 -55 -67 -107 -38 -52 -97 -138 -133 -192 -36 -53 -69 -95 -75 -94 -15
5 -175 248 -175 267 0 8 34 63 76 120 41 58 98 138 127 177 58 83 56 83 125
-12z m-6943 -237 l120 -54 52 -85 c28 -46 79 -131 114 -189 34 -58 73 -120 86
-138 14 -18 23 -35 21 -37 -2 -2 -49 14 -103 36 -55 22 -126 50 -159 61 -32
11 -70 27 -85 34 -14 8 -31 14 -38 14 -12 0 -36 37 -140 215 -31 55 -79 135
-105 178 -27 43 -48 82 -48 87 0 5 37 -8 83 -30 45 -21 136 -62 202 -92z
m1050 113 c139 -37 301 -81 371 -99 89 -24 90 -24 116 -75 11 -23 31 -56 44
-73 13 -17 24 -34 24 -38 0 -5 24 -49 54 -99 29 -51 65 -112 78 -137 52 -93
76 -136 97 -172 l23 -38 -29 10 c-15 5 -93 28 -173 51 -195 55 -195 55 -279
78 -40 12 -80 26 -87 32 -7 6 -30 41 -50 77 -21 37 -95 163 -166 280 -70 118
-128 216 -128 218 0 8 37 3 105 -15z m5489 -289 c17 -26 55 -82 85 -125 31
-42 54 -81 51 -84 -3 -4 -18 -8 -35 -9 -45 -2 -193 -13 -252 -20 -29 -3 -53
-2 -53 3 0 4 -29 57 -65 117 -36 60 -64 111 -62 113 6 5 249 51 277 52 19 1
32 -10 54 -47z m-940 -75 c36 -54 66 -104 66 -111 0 -7 -57 -80 -126 -162 -70
-82 -136 -162 -148 -177 l-22 -28 -69 135 -68 134 19 24 c63 79 269 297 274
291 4 -5 37 -52 74 -106z m-478 -269 c17 -19 114 -210 114 -225 0 -13 5 -14
-190 9 -58 6 -114 12 -126 12 -22 1 -54 23 -54 37 0 4 -13 36 -29 71 -51 111
-52 107 21 110 121 6 252 -1 264 -14z"/>
<path d="M6594 8189 c-43 -22 -83 -44 -89 -49 -5 -4 -89 -50 -185 -102 -528
-287 -755 -417 -777 -446 -27 -34 -2 -92 40 -92 8 0 82 37 164 82 81 44 213
117 293 161 80 43 190 105 245 136 55 32 173 97 263 147 90 49 172 97 183 107
37 34 15 97 -35 97 -12 0 -58 -18 -102 -41z"/>
<path d="M4233 7845 c-101 -22 -237 -99 -319 -180 -162 -161 -265 -422 -264
-674 1 -229 69 -410 206 -546 110 -109 226 -155 394 -156 118 -1 209 23 325
84 81 43 228 190 285 286 51 86 103 219 121 311 19 96 16 310 -5 395 -33 137
-139 302 -244 379 -140 102 -322 139 -499 101z m263 -119 c181 -48 328 -209
369 -404 31 -145 9 -364 -51 -499 -114 -258 -364 -435 -589 -417 -180 15 -311
105 -390 269 -45 92 -65 192 -65 320 0 296 124 541 342 672 104 63 272 89 384
59z"/>
<path d="M4095 7301 c-80 -37 -153 -140 -175 -248 -7 -32 -10 -94 -8 -139 9
-171 118 -305 248 -304 42 1 122 52 161 104 102 134 111 378 19 505 -66 91
-159 122 -245 82z"/>
<path d="M3726 6078 c-24 -34 -19 -57 19 -93 l36 -32 -64 -59 c-135 -126 -339
-192 -629 -203 -9 -1 -30 -13 -47 -27 -49 -41 -40 -116 27 -220 160 -247 465
-335 704 -201 174 98 308 355 296 571 -5 97 -26 144 -93 205 -60 55 -117 81
-182 81 -42 0 -55 -4 -67 -22z m142 -536 c10 -7 3 -24 -28 -70 -71 -107 -163
-161 -285 -169 -69 -5 -155 10 -155 27 0 18 121 117 187 152 105 56 241 85
281 60z"/>
<path d="M5107 2222 c-20 -22 -22 -64 -6 -95 17 -32 65 -89 372 -442 436 -500
640 -727 670 -746 32 -19 58 -16 83 12 15 16 15 25 6 57 -12 38 -116 181 -221
302 -31 36 -88 103 -126 150 -160 194 -459 532 -595 672 -89 91 -111 108 -136
108 -17 0 -38 -8 -47 -18z"/>
<path d="M6026 2084 c-54 -54 -27 -102 225 -389 52 -60 178 -209 279 -330 341
-409 385 -455 437 -455 27 0 63 36 63 63 0 12 -10 38 -23 58 -70 113 -690 851
-840 1001 -73 72 -108 85 -141 52z"/>
<path d="M5056 1494 c-26 -26 -24 -64 8 -110 73 -108 490 -534 522 -534 30 0
64 29 64 55 0 12 -16 46 -35 75 -48 72 -222 273 -357 413 -104 108 -116 117
-150 117 -20 0 -44 -7 -52 -16z"/>
<path d="M7285 1480 c-38 -42 -5 -106 149 -285 149 -174 176 -193 224 -159 27
19 29 58 3 99 -45 71 -253 328 -283 350 -31 21 -71 19 -93 -5z"/>
<path d="M4750 679 c-143 -6 -333 -23 -405 -34 -16 -3 -118 -16 -225 -30 -447
-56 -454 -57 -775 -116 -153 -29 -262 -65 -281 -94 -32 -48 17 -80 121 -78 22
1 177 15 345 32 168 18 385 38 482 46 97 8 180 15 185 16 28 5 20 -5 -27 -33
-64 -39 -85 -78 -57 -106 48 -48 635 -20 1197 58 218 29 889 92 965 89 13 0 3
-8 -25 -20 -86 -38 -115 -91 -68 -123 17 -12 49 -16 128 -16 136 0 578 41 857
79 239 33 493 63 734 86 194 19 323 41 369 63 30 15 35 22 35 52 0 31 -4 36
-36 47 -111 36 -634 19 -974 -33 -150 -22 -469 -63 -473 -60 -1 2 20 17 48 34
45 28 50 35 50 67 0 32 -4 38 -35 51 -40 17 -223 19 -355 4 -47 -5 -157 -16
-245 -24 -356 -34 -843 -87 -1097 -119 -54 -7 -98 -10 -98 -7 0 4 22 19 50 34
50 27 80 59 80 84 0 7 -11 24 -25 37 -23 24 -28 25 -157 23 -73 0 -203 -5
-288 -9z"/>
</g>
</svg>
