<?xml version="1.0" encoding="UTF-8" standalone="yes"?>
<svg version="1.0" xmlns="http://www.w3.org/2000/svg" width="1024.000000pt" height="1024.000000pt" viewBox="0 0 1024.000000 1024.000000" preserveAspectRatio="xMidYMid meet">
  <metadata>
Created by potrace 1.16, written by Peter Selinger 2001-2019
</metadata>
  <g transform="translate(0.000000,1024.000000) scale(0.100000,-0.100000)" fill="#000000" stroke="none">
    <path d="M3190 10158 l-1 -83 -112 -39 c-379 -130 -702 -247 -734 -264 -9 -6&#xA;-14 -39 -17 -112 -3 -58 -12 -138 -21 -179 l-17 -73 -32 6 c-17 4 -75 10 -129&#xA;13 l-97 6 -11 41 c-5 23 -12 46 -14 51 -8 23 -4 -206 5 -263 25 -149 -41 -592&#xA;-96 -653 -63 -70 -91 34 -104 396 -5 132 -16 292 -25 355 -9 63 -15 134 -12&#xA;157 5 44 -6 61 -48 78 -11 5 -200 69 -420 144 l-400 136 -3 80 c-3 107 -19&#xA;231 -33 256 -5 11 -18 19 -27 17 -15 -3 -17 -22 -14 -193 3 -153 6 -193 19&#xA;-207 22 -24 337 -139 696 -253 l177 -56 0 -37 c0 -20 6 -91 14 -157 8 -66 17&#xA;-186 21 -267 l8 -146 -29 -15 c-34 -17 -595 -198 -637 -205 l-28 -4 3 80 c3&#xA;96 -8 115 -86 137 -94 27 -950 225 -973 225 -8 0 -13 -13 -13 -30 0 -34 -16&#xA;-28 270 -96 102 -24 268 -63 370 -88 102 -24 224 -52 273 -62 l87 -17 0 -331&#xA;c1 -182 3 -364 6 -405 l6 -74 -28 8 c-149 38 -543 115 -589 115 -26 0 -28 -1&#xA;-14 -16 17 -16 394 -114 537 -139 47 -8 86 -16 88 -18 1 -1 3 -137 5 -302 l4&#xA;-300 -37 1 c-20 1 -90 11 -156 24 l-119 22 -11 182 c-12 187 -16 216 -35 216&#xA;-7 0 -8 -62 -4 -196 l6 -196 -22 5 c-31 8 -619 117 -629 117 -16 0 -8 -49 10&#xA;-54 81 -24 719 -153 847 -171 82 -12 81 -19 -7 -50 -46 -15 -175 -62 -288&#xA;-103 -113 -41 -275 -99 -360 -129 -85 -30 -167 -59 -182 -65 -22 -8 -28 -16&#xA;-28 -39 0 -16 4 -29 9 -29 40 0 1026 365 1059 392 9 8 12 128 12 539 0 369 3&#xA;529 11 529 6 0 55 -11 110 -25 149 -38 314 -72 408 -85 88 -12 143 -33 175&#xA;-69 20 -22 51 -170 38 -183 -4 -4 -42 -17 -84 -27 -94 -24 -306 -106 -330&#xA;-128 -22 -19 -15 -33 17 -33 35 0 176 46 279 92 148 65 132 66 155 -5 29 -85&#xA;55 -124 95 -143 93 -45 135 23 187 299 17 89 33 100 138 95 98 -5 155 -27 170&#xA;-67 14 -36 20 -91 31 -271 9 -172 27 -240 72 -273 18 -14 34 -18 53 -13 51 13&#xA;77 114 110 434 16 151 17 156 69 265 60 127 95 165 178 192 87 29 148 57 142&#xA;66 -8 14 -83 11 -135 -5 -127 -39 -172 -83 -240 -236 -48 -110 -51 -123 -70&#xA;-280 -40 -342 -50 -395 -72 -387 -7 2 -20 18 -30 35 -14 23 -20 67 -28 189&#xA;-12 204 -25 292 -47 323 -32 45 -107 75 -197 78 -100 4 -152 -12 -177 -54 -10&#xA;-16 -28 -84 -42 -150 -27 -137 -39 -172 -61 -180 -41 -16 -87 77 -120 244 -13&#xA;64 -31 126 -42 141 -35 49 -137 90 -314 126 -90 18 -218 45 -284 59 -66 14&#xA;-130 26 -142 26 -28 0 -29 4 -25 105 l3 85 177 56 c198 63 341 112 420 143 29&#xA;12 56 21 61 21 4 0 13 -41 20 -91 19 -149 55 -209 122 -209 81 0 120 80 162&#xA;335 l23 140 17 -32 c32 -61 81 -69 123 -21 35 43 60 103 84 202 10 45 34 149&#xA;54 231 19 83 41 190 48 238 9 65 17 91 30 98 23 12 309 117 571 209 115 40&#xA;223 83 240 94 32 22 32 22 35 119 l3 97 -41 0 -40 0 0 -82z m-965 -790 c53&#xA;-14 52 -12 25 -136 -34 -155 -84 -262 -110 -236 -17 17 -56 165 -70 259 -6 44&#xA;-13 90 -16 103 -4 21 -2 22 61 22 35 0 85 -5 110 -12z"/>
    <path d="M4480 10142 c0 -12 70 -76 123 -112 27 -17 85 -49 130 -70 84 -38&#xA;232 -79 244 -66 17 17 -21 43 -133 91 -65 29 -162 78 -213 109 -85 50 -151 71&#xA;-151 48z"/>
    <path d="M7605 10055 c-447 -76 -744 -134 -776 -150 -76 -40 -26 -52 118 -30&#xA;59 9 218 37 353 62 135 24 337 60 450 78 241 40 339 69 294 86 -40 16 -138 5&#xA;-439 -46z"/>
    <path d="M9255 10000 c-9 -131 2 -333 19 -375 9 -21 25 -34 52 -44 21 -7 161&#xA;-68 309 -136 149 -67 324 -146 390 -175 66 -29 124 -56 128 -60 5 -4 -13 -13&#xA;-40 -19 -69 -17 -402 -107 -508 -138 -123 -35 -276 -92 -297 -111 -13 -10 -18&#xA;-30 -18 -62 l0 -48 -42 -5 c-150 -21 -152 -21 -226 12 -39 17 -85 34 -102 37&#xA;-20 5 -30 12 -30 25 0 29 41 233 48 241 4 4 70 21 147 38 211 46 296 71 292&#xA;84 -7 21 -94 17 -235 -13 -78 -17 -164 -40 -191 -51 -48 -21 -49 -23 -75 -100&#xA;-14 -43 -39 -146 -55 -228 -36 -183 -51 -241 -102 -404 -37 -120 -51 -149 -62&#xA;-131 -10 16 -59 250 -83 396 -29 177 -73 368 -103 448 -20 53 -24 57 -68 70&#xA;-29 8 -105 13 -193 13 -148 1 -205 -9 -243 -42 -9 -8 -19 -13 -22 -10 -2 2&#xA;-12 69 -21 149 -18 159 -32 198 -89 247 -75 66 -158 93 -349 111 -149 15 -230&#xA;14 -355 -5 -229 -33 -722 -141 -743 -162 -5 -5 -31 -93 -58 -196 -27 -103 -54&#xA;-194 -61 -202 -7 -8 -24 -14 -38 -12 -39 4 -69 75 -101 238 -15 76 -36 154&#xA;-47 172 -28 49 -116 115 -175 133 -105 31 -264 16 -418 -39 -36 -13 -135 -40&#xA;-220 -61 -143 -34 -163 -37 -265 -33 -139 6 -247 41 -375 123 -140 88 -195&#xA;107 -327 113 -181 7 -346 -23 -748 -138 -99 -28 -212 -55 -251 -60 -85 -11&#xA;-127 -26 -122 -43 3 -6 43 -20 89 -29 82 -16 329 -114 329 -130 0 -5 -11 -8&#xA;-24 -8 -84 0 -560 -123 -934 -241 -59 -19 -25 -32 67 -26 62 4 128 19 236 52&#xA;138 42 407 111 647 165 l96 22 94 -65 c121 -84 141 -93 245 -118 70 -17 109&#xA;-20 193 -17 92 4 116 9 190 40 108 45 160 76 160 94 0 28 -33 27 -109 -5 -156&#xA;-64 -233 -73 -382 -45 -97 18 -137 37 -296 141 -65 43 -165 98 -221 123 -70&#xA;30 -97 47 -87 52 7 5 148 42 312 84 279 71 307 76 433 81 174 7 220 -5 351&#xA;-93 159 -106 281 -145 459 -147 91 -1 124 4 240 35 74 19 189 53 255 74 110&#xA;35 129 38 235 38 98 0 123 -3 166 -23 87 -38 102 -62 125 -192 33 -180 81&#xA;-302 130 -326 37 -19 93 -16 121 7 33 26 50 70 83 215 39 176 44 192 61 199&#xA;32 12 332 75 534 113 188 34 220 37 385 37 249 0 367 -26 429 -94 40 -45 42&#xA;-49 56 -185 6 -55 17 -138 25 -185 8 -47 16 -103 18 -126 l5 -41 -91 34 c-49&#xA;18 -162 69 -251 112 -254 124 -447 194 -469 171 -18 -17 28 -52 119 -90 44&#xA;-18 172 -75 286 -126 193 -88 307 -131 385 -148 41 -9 47 -18 62 -96 18 -95&#xA;108 -362 134 -401 30 -44 69 -58 105 -38 34 19 60 82 106 259 24 92 52 169 88&#xA;242 29 59 56 107 59 108 13 0 40 -123 88 -410 44 -259 91 -390 140 -390 31 0&#xA;68 38 90 92 36 92 81 249 103 363 12 61 25 114 29 118 4 5 48 -10 98 -34 l91&#xA;-42 77 12 c43 7 93 15 111 18 l32 5 0 -245 c0 -135 -4 -248 -8 -251 -5 -3 -40&#xA;-10 -77 -16 -84 -13 -208 -70 -292 -134 -82 -62 -222 -212 -255 -273 -27 -51&#xA;-37 -93 -93 -400 -36 -198 -73 -334 -90 -336 -24 -3 -67 139 -84 281 -6 48&#xA;-16 152 -22 232 -19 258 -37 308 -142 407 -135 126 -240 137 -311 34 -24 -34&#xA;-29 -55 -36 -138 -10 -121 -25 -189 -50 -231 -23 -37 -57 -42 -84 -13 -39 43&#xA;-77 194 -91 356 -15 184 -35 243 -102 306 -82 77 -193 133 -217 109 -14 -14&#xA;11 -37 113 -107 47 -32 93 -70 103 -84 20 -27 30 -87 47 -284 12 -139 31 -218&#xA;69 -295 32 -64 68 -93 113 -92 85 2 134 97 159 311 12 100 28 144 55 155 84&#xA;32 269 -114 302 -238 15 -55 40 -442 31 -467 -5 -12 -30 -17 -110 -22 -163&#xA;-10 -340 -36 -377 -56 -88 -45 -121 -128 -162 -404 -42 -288 -57 -337 -99&#xA;-337 -30 0 -45 42 -69 185 -36 219 -54 262 -131 310 -67 43 -199 71 -215 45&#xA;-7 -12 31 -31 117 -59 79 -26 133 -78 144 -138 34 -195 65 -330 82 -352 32&#xA;-44 64 -57 101 -41 59 24 89 111 126 369 30 207 44 266 79 326 31 52 20 48&#xA;230 75 94 13 185 31 224 45 37 13 67 23 67 22 0 -1 8 -38 17 -82 29 -146 88&#xA;-232 142 -207 45 20 88 137 121 322 8 46 16 84 18 86 2 2 48 8 103 14 54 6&#xA;146 18 203 26 57 8 109 13 116 10 16 -6 23 -53 35 -228 5 -79 12 -163 16 -188&#xA;l6 -45 -108 -18 c-157 -26 -303 -65 -350 -92 -44 -26 -81 -65 -157 -164 -58&#xA;-76 -95 -94 -245 -122 -145 -28 -211 -61 -295 -148 -65 -67 -128 -174 -112&#xA;-189 4 -4 21 10 39 32 151 185 193 217 321 242 223 42 264 62 332 154 58 80&#xA;115 140 144 156 24 12 197 54 410 100 25 6 25 4 42 -90 30 -169 71 -250 134&#xA;-262 27 -5 37 -1 62 23 35 35 46 72 66 218 29 217 34 233 95 355 59 117 70&#xA;130 116 130 63 0 96 -39 109 -130 14 -98 54 -198 93 -233 11 -10 35 -20 54&#xA;-23 30 -5 42 0 99 46 35 29 74 57 87 63 36 17 26 30 -19 24 -25 -3 -57 -19&#xA;-86 -41 -26 -20 -54 -36 -64 -36 -41 0 -75 65 -114 216 -29 112 -54 145 -126&#xA;164 -37 10 -47 9 -88 -12 -42 -22 -50 -32 -98 -128 -61 -124 -86 -212 -108&#xA;-375 -18 -135 -44 -209 -72 -203 -51 10 -106 263 -137 623 -14 173 -28 219&#xA;-72 235 -17 7 -83 1 -222 -19 -108 -16 -199 -28 -201 -25 -7 7 19 177 35 230&#xA;54 177 433 486 577 472 l30 -3 -2 -237 c-2 -163 1 -243 9 -258 12 -23 74 -53&#xA;270 -132 190 -77 663 -258 673 -258 4 0 7 16 5 36 l-3 36 -195 75 c-107 41&#xA;-275 106 -374 144 -98 39 -192 73 -208 76 -44 9 -22 19 67 32 100 16 674 120&#xA;698 127 10 3 17 15 17 30 0 16 -6 24 -17 24 -22 0 -265 -43 -598 -105 -137&#xA;-26 -254 -48 -260 -48 -11 -2 -11 46 -7 522 l2 279 123 41 c67 22 152 48 188&#xA;59 l67 19 -5 -141 c-8 -199 2 -212 138 -190 91 14 162 33 282 76 67 24 87 35&#xA;87 49 0 11 -7 19 -17 19 -10 0 -106 -25 -213 -55 -107 -30 -202 -55 -211 -55&#xA;-9 0 -20 7 -23 16 -8 21 -8 121 1 218 l6 77 59 30 c32 16 58 31 58 34 0 19&#xA;-360 -77 -522 -140 -14 -6 -17 6 -21 107 -3 62 -8 125 -12 139 -7 27 -6 27&#xA;162 82 92 31 263 83 378 116 116 33 242 71 280 84 68 23 70 25 73 59 l3 35&#xA;-208 102 c-114 56 -300 143 -412 194 -112 50 -200 92 -195 94 34 10 665 134&#xA;732 143 82 12 82 12 82 42 0 35 32 36 -265 -12 -175 -29 -595 -113 -630 -126&#xA;-11 -5 -15 1 -15 22 -1 167 -36 414 -59 414 -5 0 -12 -50 -16 -110z m-846&#xA;-806 c3 -3 -10 -39 -29 -82 -18 -42 -47 -111 -64 -152 -18 -41 -39 -86 -48&#xA;-100 -17 -24 -79 -229 -93 -302 -7 -39 -28 -64 -44 -54 -25 16 -171 519 -171&#xA;592 0 51 36 87 105 105 29 8 336 1 344 -7z"/>
    <path d="M8845 9563 c-136 -13 -456 -54 -488 -64 -22 -6 -37 -15 -34 -22 6&#xA;-19 148 -20 291 -2 133 17 218 42 258 75 13 11 21 19 18 18 -3 -1 -23 -3 -45&#xA;-5z"/>
    <path d="M360 9458 c0 -9 6 -20 13 -26 6 -5 113 -35 237 -66 124 -31 297 -76&#xA;385 -101 171 -49 479 -125 507 -125 31 0 50 137 29 210 -7 22 -9 18 -19 -28&#xA;-7 -29 -12 -64 -12 -78 0 -13 -6 -27 -13 -30 -7 -2 -78 14 -157 36 -666 185&#xA;-970 250 -970 208z"/>
    <path d="M3725 9016 c-60 -13 -173 -40 -250 -60 -77 -19 -255 -60 -395 -91&#xA;-140 -31 -308 -70 -372 -86 -96 -24 -138 -29 -233 -29 -121 0 -132 -5 -72 -37&#xA;24 -13 57 -17 137 -17 93 1 139 8 395 67 160 36 421 98 580 137 160 39 309 74&#xA;332 77 67 9 108 -4 196 -64 117 -81 162 -97 277 -97 77 0 106 4 154 23 126 50&#xA;125 97 -1 66 -146 -35 -260 -20 -368 50 -125 80 -222 95 -380 61z"/>
    <path d="M7123 9009 c-71 -12 -209 -68 -278 -114 -31 -21 -73 -59 -93 -84 -74&#xA;-92 -146 -155 -201 -175 -72 -26 -145 -17 -298 34 -161 53 -215 53 -155 -2 49&#xA;-45 270 -118 356 -118 109 0 209 49 273 132 126 162 190 205 406 272 61 19&#xA;121 42 132 50 19 14 16 15 -35 15 -30 -1 -79 -5 -107 -10z"/>
    <path d="M3975 8325 c-179 -28 -374 -95 -417 -142 -37 -40 -67 -151 -148 -548&#xA;-67 -323 -90 -528 -68 -605 6 -21 2 -28 -23 -42 -74 -43 -145 -305 -264 -978&#xA;-32 -180 -31 -177 -59 -184 -33 -8 -114 -83 -136 -126 -11 -21 -27 -79 -36&#xA;-129 -10 -57 -21 -90 -28 -88 -6 1 -59 64 -117 137 -138 176 -213 251 -285&#xA;286 -55 27 -68 29 -174 29 -108 0 -123 -2 -250 -44 -178 -57 -267 -95 -493&#xA;-207 -586 -293 -808 -470 -1002 -799 -58 -98 -70 -132 -61 -169 8 -31 24 -37&#xA;126 -43 266 -15 455 -133 602 -375 53 -86 91 -191 126 -345 34 -144 61 -208&#xA;92 -218 14 -4 56 10 128 44 146 69 219 85 353 77 238 -14 424 -96 604 -267 86&#xA;-82 140 -160 226 -328 79 -155 102 -185 138 -176 15 4 60 43 104 90 128 139&#xA;294 235 462 270 73 15 269 20 312 9 16 -4 30 -27 54 -87 36 -92 201 -433 249&#xA;-515 39 -67 98 -97 226 -115 84 -12 88 -14 97 -42 34 -108 128 -283 248 -461&#xA;86 -128 102 -137 246 -136 174 1 253 38 253 118 0 31 3 34 29 34 22 0 39 11&#xA;71 48 102 114 92 181 -54 341 l-50 56 179 7 c99 3 208 7 242 8 59 3 64 1 84&#xA;-26 67 -89 348 -336 437 -383 28 -15 138 -16 212 -1 73 13 192 73 225 112 27&#xA;32 29 56 10 114 -6 19 -2 22 33 28 70 11 86 32 90 121 6 111 -6 143 -85 214&#xA;-76 71 -298 222 -360 246 -24 10 -43 21 -43 25 0 4 27 40 61 80 101 121 134&#xA;176 134 228 l0 45 85 -6 c124 -9 228 -39 364 -106 127 -62 277 -168 405 -286&#xA;39 -36 80 -65 91 -65 27 0 60 49 123 181 71 152 122 226 226 329 129 127 271&#xA;195 495 235 76 14 127 16 220 12 144 -7 208 -23 340 -84 57 -27 119 -48 147&#xA;-51 68 -6 75 9 104 220 26 191 64 321 125 423 19 32 85 109 145 170 94 96 123&#xA;118 200 157 163 82 317 123 521 137 150 10 174 22 174 82 0 81 -87 208 -259&#xA;379 -351 349 -1050 659 -1873 829 -242 50 -399 57 -470 20 -44 -23 -114 -85&#xA;-321 -287 -319 -309 -484 -433 -764 -575 -155 -78 -273 -131 -279 -124 -2 2 8&#xA;44 21 93 37 133 97 391 150 644 26 124 49 230 51 237 1 6 44 21 95 33 122 28&#xA;165 47 189 80 87 122 261 588 314 840 41 195 48 272 47 530 0 140 -5 280 -11&#xA;310 -18 99 -52 115 -415 200 -254 59 -401 78 -617 82 -176 3 -184 2 -220 -20&#xA;-45 -28 -90 -100 -158 -253 -111 -248 -200 -521 -236 -719 -9 -52 -18 -96 -19&#xA;-98 -1 -1 -60 14 -131 33 -71 20 -191 47 -266 62 -125 24 -138 28 -138 47 0&#xA;12 10 84 22 161 19 118 22 180 22 395 0 351 -23 479 -98 534 -24 18 -48 22&#xA;-174 28 -385 17 -437 17 -527 3z m348 -106 l37 -10 0 -242 c0 -133 -5 -305&#xA;-10 -382 -11 -139 -34 -312 -44 -322 -7 -8 -116 7 -116 15 0 4 7 32 15 62 27&#xA;101 45 279 45 454 0 120 -4 176 -12 184 -25 25 -263 5 -357 -30 -87 -33 -125&#xA;-75 -150 -166 -31 -117 -89 -413 -102 -526 -7 -56 -17 -107 -23 -114 -8 -12&#xA;-157 -92 -170 -92 -14 0 -15 95 -1 201 28 220 158 824 184 853 77 89 521 161&#xA;704 115z m311 -29 c27 -27 35 -88 42 -335 5 -189 3 -242 -15 -380 -27 -215&#xA;-39 -265 -59 -265 -9 0 -64 8 -124 17 -126 20 -118 6 -87 163 23 116 38 482&#xA;29 703 -3 65 -4 119 -3 120 1 1 46 1 100 -1 79 -3 102 -7 117 -22z m1521 -161&#xA;c87 -11 248 -47 363 -81 l72 -21 0 -41 c0 -153 -39 -502 -76 -686 -42 -210&#xA;-180 -695 -219 -770 -11 -21 -36 -33 -122 -63 -59 -20 -111 -33 -115 -29 -4 4&#xA;1 50 12 101 17 84 23 99 58 135 55 57 135 183 165 258 88 223 157 546 157 738&#xA;0 95 -6 113 -57 166 -30 30 -55 45 -101 58 -110 31 -265 56 -344 56 l-77 0&#xA;-32 -46 c-72 -105 -157 -341 -233 -644 -24 -94 -45 -172 -47 -175 -3 -2 -45 8&#xA;-94 24 l-90 28 2 51 c8 176 186 689 321 921 l25 44 176 -7 c97 -4 212 -12 256&#xA;-17z m-1959 -115 c8 -32 -11 -353 -26 -439 -6 -33 -18 -90 -26 -126 l-16 -67&#xA;-111 -4 c-110 -4 -114 -5 -226 -57 -62 -29 -115 -50 -118 -48 -6 7 32 235 72&#xA;423 20 93 40 192 43 219 l7 50 70 23 c39 13 115 30 170 37 151 19 154 19 161&#xA;-11z m2549 -16 l82 -21 7 -90 c27 -381 -12 -686 -135 -1051 -66 -194 -177&#xA;-466 -192 -466 -4 0 -29 17 -55 39 -42 35 -92 67 -92 59 0 -2 25 -30 55 -63&#xA;30 -32 55 -62 55 -66 0 -4 -26 -13 -57 -19 -32 -6 -89 -21 -127 -32 l-69 -20&#xA;-48 48 c-27 27 -49 51 -49 54 0 3 48 25 108 48 l107 41 83 253 c155 478 213&#xA;763 228 1136 4 94 9 172 12 172 2 0 41 -10 87 -22z m-649 -138 c200 -34 266&#xA;-53 286 -84 13 -19 9 -186 -7 -289 -22 -150 -62 -314 -111 -465 -38 -116 -52&#xA;-146 -99 -207 -30 -39 -62 -79 -72 -88 -18 -15 -20 -14 -46 18 l-28 35 36 89&#xA;c34 87 43 131 27 131 -17 0 -42 -36 -73 -105 l-31 -68 -55 55 -55 56 45 138&#xA;c53 164 60 191 48 198 -18 12 -70 -76 -112 -191 -12 -32 -26 -68 -30 -80 l-8&#xA;-23 -73 35 c-40 19 -78 35 -86 35 -7 0 -15 6 -18 13 -3 8 18 101 45 208 79&#xA;310 172 558 222 592 30 22 51 21 195 -3z m-1978 -581 c100 -11 197 -26 505&#xA;-78 204 -35 268 -49 422 -93 61 -17 162 -43 225 -58 165 -39 383 -107 465&#xA;-145 54 -25 95 -56 179 -136 l109 -104 -22 -98 c-33 -151 -30 -175 28 -244 37&#xA;-46 116 -119 160 -150 8 -5 -172 -813 -219 -983 -10 -38 -4 -34 -170 -105&#xA;-110 -47 -134 -73 -126 -134 8 -61 57 -163 96 -201 29 -28 35 -30 108 -30 82&#xA;0 269 35 364 69 32 11 142 63 245 115 103 53 189 92 191 88 1 -4 34 -65 73&#xA;-137 182 -335 359 -804 458 -1211 23 -93 45 -180 49 -194 6 -18 1 -41 -16 -80&#xA;-40 -88 -35 -88 -125 -5 l-80 75 -34 118 c-49 171 -196 612 -265 797 -33 88&#xA;-89 217 -124 286 -63 123 -134 222 -150 206 -4 -4 33 -92 84 -195 95 -196 182&#xA;-427 311 -832 40 -124 79 -245 87 -269 7 -25 13 -46 11 -47 -1 -1 -27 13 -57&#xA;32 -179 115 -441 193 -589 177 -122 -13 -160 -42 -123 -93 l23 -30 -33 -48&#xA;c-43 -63 -314 -379 -450 -525 l-110 -117 -386 0 c-257 0 -510 7 -752 20 l-365&#xA;20 -23 27 c-102 121 -532 1166 -532 1292 0 36 27 113 43 123 24 15 108 7 323&#xA;-31 413 -75 548 -89 932 -98 172 -4 265 -10 270 -17 5 -6 51 -121 102 -256&#xA;205 -540 299 -763 356 -849 16 -24 37 -55 46 -70 40 -59 15 20 -73 239 -50&#xA;124 -138 349 -196 500 -58 151 -122 313 -144 359 -21 46 -39 85 -39 87 0 13&#xA;42 -2 125 -43 66 -33 98 -44 105 -37 18 18 2 39 -71 93 -123 92 -133 94 -499&#xA;106 -428 14 -708 50 -1160 151 -322 72 -539 138 -762 231 l-108 45 0 42 c0&#xA;110 79 703 110 830 22 90 32 103 113 158 40 27 64 52 74 77 9 20 35 142 59&#xA;271 76 416 112 578 167 760 l22 75 181 90 c221 111 411 189 472 194 7 1 56 -4&#xA;110 -10z m3567 -1184 c260 -37 629 -131 960 -245 486 -167 886 -392 1089 -611&#xA;59 -64 176 -215 176 -227 0 -4 -34 -7 -74 -7 l-75 0 -93 92 c-146 145 -239&#xA;213 -482 352 -225 128 -393 199 -756 316 -172 56 -225 70 -570 154 -320 78&#xA;-365 87 -374 73 -11 -18 41 -49 128 -77 l85 -28 -42 -30 c-82 -59 -190 -151&#xA;-305 -259 -166 -156 -394 -323 -717 -523 -213 -132 -438 -223 -686 -279 -148&#xA;-33 -157 -33 -170 2 -24 62 -47 167 -38 178 5 6 37 19 72 29 104 29 354 124&#xA;502 191 334 152 569 327 910 675 94 96 192 189 219 207 57 37 87 39 241 17z&#xA;m-5408 -179 c32 -24 132 -116 223 -203 91 -87 191 -181 223 -210 65 -59 66&#xA;-66 46 -224 -14 -117 -13 -115 -51 -87 -55 39 -196 163 -358 317 -85 81 -181&#xA;167 -212 190 -32 24 -58 47 -58 51 0 4 29 22 65 40 72 36 81 50 33 50 -78 0&#xA;-808 -372 -1092 -557 -138 -90 -222 -159 -361 -295 -119 -117 -120 -118 -167&#xA;-118 -27 0 -48 2 -48 5 0 10 103 172 152 237 100 136 289 280 593 453 160 91&#xA;469 243 591 290 122 48 300 103 336 104 16 1 47 -15 85 -43z m5748 -115 c241&#xA;-57 675 -197 870 -281 141 -60 417 -215 531 -297 44 -32 126 -96 181 -142&#xA;l101 -85 -106 -27 c-257 -65 -397 -143 -549 -303 -139 -146 -213 -277 -256&#xA;-448 l-23 -91 -72 136 c-92 174 -157 286 -245 417 -100 149 -253 354 -334 446&#xA;-38 44 -102 120 -143 169 -147 179 -370 393 -370 356 0 -15 59 -93 150 -196&#xA;302 -345 524 -627 687 -870 56 -84 228 -386 287 -502 26 -52 33 -108 20 -171&#xA;l-6 -30 -47 28 c-81 49 -222 99 -329 116 -205 32 -476 -15 -674 -118 -136 -70&#xA;-276 -206 -360 -348 l-37 -62 -9 38 c-5 22 -25 107 -45 189 -87 360 -293 890&#xA;-444 1140 -33 55 -68 114 -77 132 -16 31 -16 33 6 46 294 182 487 327 663 497&#xA;180 173 363 322 390 317 11 -3 119 -28 240 -56z m-5898 -159 c34 -28 64 -56&#xA;68 -62 4 -6 -17 -31 -45 -57 -236 -212 -625 -815 -780 -1208 -21 -55 -41 -93&#xA;-43 -85 -51 168 -155 332 -294 459 -84 77 -179 129 -289 158 -38 10 -72 21&#xA;-74 24 -8 9 263 231 375 308 157 107 517 308 825 462 158 78 176 85 185 69 6&#xA;-9 38 -40 72 -68z m189 -184 c75 -71 76 -73 54 -87 -26 -18 -174 -212 -268&#xA;-353 -113 -169 -345 -564 -427 -728 -42 -83 -70 -168 -59 -179 10 -10 35 29&#xA;119 184 122 225 333 575 442 735 51 74 123 180 161 236 l68 101 74 -70 c41&#xA;-38 119 -101 173 -139 93 -67 97 -72 92 -102 -12 -71 -25 -204 -25 -252 0 -63&#xA;17 -84 113 -137 37 -21 67 -41 67 -45 0 -4 -16 -52 -36 -107 -87 -241 -156&#xA;-497 -194 -725 -29 -176 -24 -169 -79 -102 -143 172 -339 301 -536 353 -62 16&#xA;-113 21 -225 23 -134 1 -151 -1 -220 -26 -41 -14 -104 -42 -139 -62 -35 -20&#xA;-65 -35 -67 -34 -1 2 -12 46 -25 99 l-21 95 56 132 c190 446 504 947 759 1210&#xA;28 28 55 52 59 52 4 0 42 -33 84 -72z m734 -887 c42 -16 159 -54 260 -83 l185&#xA;-54 -3 -39 c-2 -22 -4 -85 -4 -140 -1 -90 2 -111 36 -214 21 -63 60 -173 87&#xA;-244 27 -71 49 -132 49 -136 0 -3 -73 -6 -163 -6 -142 -1 -170 -4 -226 -23&#xA;-101 -37 -233 -105 -299 -156 -61 -47 -62 -47 -57 -19 3 15 14 82 25 148 20&#xA;118 93 412 151 612 31 107 50 236 31 218 -14 -14 -87 -215 -116 -320 -74 -273&#xA;-119 -496 -132 -656 -5 -73 -11 -90 -34 -119 l-28 -34 -66 133 -67 132 36 177&#xA;c50 242 87 388 146 577 86 275 91 287 103 281 6 -3 45 -18 86 -35z m3233&#xA;-1535 c198 -149 208 -159 209 -224 0 -28 -3 -56 -7 -62 -15 -24 -140 28 -275&#xA;114 -36 23 -85 53 -109 67 l-43 24 5 55 c6 68 34 140 54 140 8 0 83 -51 166&#xA;-114z m-289 -49 c5 -20 98 -106 310 -286 84 -71 93 -101 46 -146 l-31 -30 -56&#xA;30 c-31 17 -113 69 -182 118 -112 78 -169 105 -159 77 5 -17 190 -170 257&#xA;-213 l64 -42 -49 -11 c-134 -30 -119 -34 -250 65 -66 49 -146 114 -179 144&#xA;-53 49 -58 56 -40 62 93 29 213 139 236 213 14 47 24 53 33 19z m-992 -266&#xA;c41 -39 94 -95 118 -125 l42 -56 -33 -55 c-18 -30 -40 -55 -49 -55 -22 0 -91&#xA;57 -197 162 -81 79 -93 96 -93 125 0 58 17 73 81 73 57 0 57 0 131 -69z m-276&#xA;-18 c9 -16 45 -57 79 -93 129 -137 185 -215 185 -257 0 -40 -9 -49 -62 -60&#xA;l-48 -10 -33 41 c-18 22 -54 71 -80 107 -48 68 -77 99 -77 82 0 -29 37 -109&#xA;75 -165 l45 -63 -41 -3 c-23 -2 -47 -1 -54 2 -17 6 -206 289 -245 367 -20 40&#xA;-26 59 -18 60 7 1 38 1 68 0 30 -1 78 3 105 8 77 14 82 13 101 -16z"/>
    <path d="M3569 6833 c-87 -45 -159 -124 -159 -174 l0 -31 48 28 c90 52 143 75&#xA;207 89 72 17 100 14 162 -18 23 -11 45 -18 49 -15 12 13 -6 57 -38 94 -67 77&#xA;-156 85 -269 27z"/>
    <path d="M4843 6754 c-38 -19 -113 -82 -113 -95 0 -5 49 -9 108 -9 102 0 113&#xA;-2 173 -32 47 -23 91 -58 167 -135 56 -56 108 -103 114 -103 19 0 -1 78 -41&#xA;159 -71 141 -198 231 -324 231 -29 0 -66 -7 -84 -16z"/>
    <path d="M5731 6734 c-36 -46 -106 -286 -201 -694 -51 -217 -130 -550 -175&#xA;-740 -194 -807 -205 -855 -205 -894 0 -24 2 -27 15 -16 8 7 19 26 24 44 5 17&#xA;23 78 39 136 62 212 223 854 352 1400 50 212 113 467 140 567 28 100 50 191&#xA;50 202 0 28 -14 26 -39 -5z"/>
    <path d="M3525 6367 c-57 -28 -88 -59 -138 -137 -55 -88 -94 -172 -112 -241&#xA;-32 -120 -5 -322 46 -350 22 -12 22 -11 4 66 -19 78 -19 186 0 259 18 67 79&#xA;188 131 259 81 111 210 114 289 7 66 -90 86 -287 44 -443 l-22 -79 -81 8&#xA;c-103 10 -191 6 -231 -10 -25 -11 -33 -22 -42 -57 -6 -24 -23 -91 -38 -149&#xA;-24 -87 -29 -127 -29 -228 l-1 -124 30 -24 c69 -57 252 -128 397 -155 l66 -12&#xA;4 -86 c3 -66 10 -100 31 -144 58 -126 217 -238 368 -259 83 -12 190 4 289 41&#xA;72 27 172 104 215 166 92 129 85 307 -14 372 -45 30 -103 30 -242 -2 -120 -28&#xA;-229 -42 -229 -30 0 4 13 46 30 94 39 115 63 259 57 345 l-4 68 44 -6 c58 -8&#xA;54 7 -17 56 -74 52 -135 73 -291 98 -200 32 -264 46 -262 56 1 5 10 29 19 54&#xA;11 29 19 88 22 166 7 203 -42 347 -141 408 -65 40 -127 44 -192 13z m150 -723&#xA;c61 -8 225 -36 365 -62 l255 -47 -1 -80 c-1 -44 -7 -107 -14 -140 -14 -71 -77&#xA;-296 -85 -303 -8 -8 -90 -3 -235 13 -196 22 -329 57 -472 122 -59 27 -78 41&#xA;-83 61 -9 36 1 114 37 299 l32 162 46 -5 c25 -3 95 -12 155 -20z m1014 -890&#xA;c17 -4 31 -11 31 -16 0 -5 -26 -35 -57 -66 -85 -83 -174 -122 -319 -137 l-64&#xA;-7 0 26 c0 118 238 234 409 200z"/>
    <path d="M3548 5413 c-25 -56 -28 -137 -6 -159 13 -14 18 -13 46 11 37 31 56&#xA;84 49 132 -13 78 -58 86 -89 16z"/>
    <path d="M4005 5383 c-43 -42 -47 -122 -10 -159 14 -14 31 -24 38 -22 19 6 49&#xA;75 49 114 0 56 -47 98 -77 67z"/>
    <path d="M4768 6251 c-111 -44 -186 -118 -249 -243 -67 -133 -84 -254 -55&#xA;-400 21 -112 117 -228 221 -269 83 -32 210 -33 276 -2 73 33 191 151 223 223&#xA;120 266 38 575 -181 681 -64 31 -172 36 -235 10z m208 -85 c100 -46 171 -152&#xA;195 -290 35 -202 -51 -390 -214 -471 -142 -70 -238 -57 -350 47 -65 61 -68 66&#xA;-88 143 -16 63 -19 96 -14 158 12 152 47 230 144 327 108 107 219 137 327 86z"/>
    <path d="M4653 5856 c-35 -30 -53 -83 -53 -160 0 -69 20 -110 59 -124 42 -15&#xA;60 3 77 73 24 104 13 204 -26 225 -25 13 -24 14 -57 -14z"/>
    <path d="M3598 5993 c-35 -37 -48 -73 -48 -138 0 -85 40 -109 99 -59 37 31 55&#xA;91 46 151 -11 75 -51 94 -97 46z"/>
    <path d="M3042 5613 c4 -24 76 -63 116 -63 46 0 37 18 -18 40 -25 9 -58 22&#xA;-73 29 -25 10 -28 9 -25 -6z"/>
    <path d="M5656 5272 c-10 -17 24 -50 113 -111 79 -54 147 -91 166 -91 9 0&#xA;-170 151 -217 183 -44 29 -54 32 -62 19z"/>
    <path d="M4976 5221 c-13 -20 80 -54 135 -49 55 6 90 26 66 39 -25 15 -193 23&#xA;-201 10z"/>
    <path d="M5951 4501 c13 -83 162 -665 181 -710 12 -29 22 -41 28 -35 12 12&#xA;-16 154 -80 419 -59 247 -96 362 -118 367 -17 5 -18 1 -11 -41z"/>
    <path d="M5490 4324 c0 -57 95 -223 115 -202 7 7 -48 148 -78 201 -26 47 -37&#xA;47 -37 1z"/>
    <path d="M3944 3816 c-8 -21 12 -171 31 -233 20 -68 70 -141 121 -176 77 -54&#xA;174 -45 190 18 9 35 16 31 41 -22 33 -72 86 -128 155 -162 77 -39 111 -40 148&#xA;-3 21 22 30 42 35 85 4 31 4 68 1 82 l-6 25 47 -30 c63 -40 114 -41 154 -1 28&#xA;28 29 34 29 116 0 88 -31 209 -65 259 -15 20 -15 20 -15 -9 0 -17 7 -68 15&#xA;-115 32 -184 11 -245 -75 -210 -35 15 -108 91 -135 143 -11 20 -23 37 -28 37&#xA;-11 0 -7 -39 19 -183 17 -97 17 -111 3 -135 -11 -20 -24 -28 -51 -30 -31 -3&#xA;-43 4 -95 52 -67 62 -107 129 -138 231 -28 90 -48 93 -56 10 -3 -33 -13 -77&#xA;-22 -97 -14 -32 -21 -38 -47 -38 -86 0 -163 106 -196 270 -9 47 -20 95 -25&#xA;108 -10 25 -27 29 -35 8z"/>
    <path d="M7357 5328 c10 -17 70 -88 133 -157 305 -333 604 -705 843 -1051 48&#xA;-69 103 -143 122 -165 33 -39 34 -39 35 -14 0 37 -35 98 -171 298 -181 268&#xA;-473 633 -726 907 -153 166 -285 267 -236 182z"/>
    <path d="M7935 7591 c-10 -17 84 -64 136 -69 81 -8 61 25 -36 58 -64 22 -91&#xA;25 -100 11z"/>
    <path d="M1325 7511 c-3 -6 3 -15 14 -20 20 -11 333 -74 430 -87 l53 -7 -6&#xA;-126 c-4 -69 -9 -150 -13 -180 l-6 -53 -36 5 c-20 3 -100 17 -178 31 -165 29&#xA;-383 52 -408 42 -29 -11 0 -32 68 -49 34 -9 130 -25 212 -36 83 -12 163 -24&#xA;179 -27 21 -5 -47 -25 -269 -82 l-298 -75 -198 37 c-229 43 -384 57 -377 35 9&#xA;-28 87 -53 296 -95 118 -23 215 -44 217 -46 2 -2 6 -115 10 -252 l8 -248 -29&#xA;6 c-16 3 -90 15 -164 26 -74 11 -143 23 -152 26 -16 5 -18 20 -19 107 -1 87&#xA;-11 173 -19 157 -1 -3 -5 -60 -9 -127 -3 -67 -9 -124 -12 -127 -3 -3 -79 3&#xA;-170 14 -174 21 -289 25 -289 12 0 -20 67 -35 270 -62 118 -16 260 -36 315&#xA;-44 55 -8 131 -18 169 -22 78 -8 73 -14 -34 -38 -70 -17 -824 -210 -862 -222&#xA;-11 -3 -18 -15 -18 -30 0 -40 29 -35 490 92 445 123 525 146 553 160 l27 15 0&#xA;284 0 284 38 10 c274 71 450 119 559 151 72 22 138 40 146 40 21 0 41 27 53&#xA;74 12 48 3 48 169 3 l120 -32 3 -193 c2 -164 0 -192 -12 -192 -9 0 -64 6 -123&#xA;14 -220 30 -273 31 -273 7 0 -17 60 -30 238 -52 l182 -23 0 -70 c1 -118 17&#xA;-261 33 -292 l15 -29 7 65 c3 36 2 145 -4 244 -15 252 -15 346 3 346 30 0 274&#xA;-60 330 -81 101 -37 119 -70 131 -239 9 -133 61 -244 139 -291 55 -33 60 -20&#xA;12 31 -67 72 -80 111 -95 288 -19 220 -61 254 -387 321 l-139 28 -6 49 c-4 28&#xA;-14 64 -23 82 -17 34 -51 47 -226 90 l-75 18 -3 100 c-4 142 -6 138 89 164 89&#xA;24 153 50 184 74 19 15 19 15 -15 16 -19 0 -87 -14 -151 -31 l-116 -32 -260&#xA;37 c-291 40 -280 39 -288 27z"/>
    <path d="M2470 7197 c0 -43 100 -135 185 -172 53 -22 174 -45 238 -45 69 0 52&#xA;10 -102 60 -135 44 -170 62 -243 127 -49 43 -78 54 -78 30z"/>
    <path d="M8123 6987 c-28 -23 -76 -63 -105 -89 -30 -26 -81 -63 -113 -83 -54&#xA;-32 -56 -35 -29 -35 39 0 118 47 187 110 59 54 122 128 115 135 -2 2 -27 -15&#xA;-55 -38z"/>
    <path d="M9688 6695 c-4 -11 -10 -54 -13 -96 l-7 -76 -88 -7 c-98 -7 -215 -36&#xA;-237 -59 -24 -24 -32 -90 -33 -265 0 -160 0 -163 24 -186 15 -13 65 -33 128&#xA;-51 57 -15 179 -52 272 -82 93 -29 182 -53 198 -53 l29 0 -8 -107 c-11 -147&#xA;-10 -277 2 -283 11 -6 20 66 30 255 7 118 6 132 -10 145 -22 18 -132 61 -355&#xA;140 -179 63 -180 64 -35 75 284 21 611 67 642 90 44 34 -295 7 -711 -56 -180&#xA;-27 -170 -39 -163 175 3 87 9 162 14 167 5 5 65 20 134 34 259 51 245 48 221&#xA;58 -19 9 -22 19 -24 106 -2 53 -6 87 -10 76z"/>
    <path d="M9026 6403 c-19 -89 -18 -429 1 -410 7 7 17 437 11 437 -3 0 -8 -12&#xA;-12 -27z"/>
    <path d="M1262 6378 c7 -22 56 -39 157 -57 l96 -17 -2 -155 c-2 -85 -3 -157&#xA;-3 -160 0 -4 -21 -2 -47 2 -110 21 -295 39 -395 39 -172 0 -132 -30 67 -50 61&#xA;-6 182 -20 269 -30 175 -22 256 -25 256 -11 0 6 -20 13 -45 17 -25 3 -47 9&#xA;-49 13 -2 3 -6 88 -8 189 -1 100 -4 182 -4 182 -1 0 -56 11 -124 25 -139 28&#xA;-174 31 -168 13z"/>
    <path d="M10105 6363 c-72 -10 -245 -56 -245 -65 0 -17 290 17 354 42 63 23&#xA;-2 37 -109 23z"/>
    <path d="M7197 6242 c-43 -21 -162 -137 -197 -192 -21 -32 -30 -59 -28 -77 3&#xA;-26 5 -24 55 39 28 36 86 104 129 152 42 48 75 88 73 90 -2 1 -17 -4 -32 -12z"/>
    <path d="M456 5741 c-10 -16 19 -29 114 -49 97 -21 130 -25 188 -23 79 3 3 38&#xA;-142 66 -88 17 -152 19 -160 6z"/>
    <path d="M185 5390 c-6 -10 28 -34 65 -45 59 -17 60 -20 60 -246 0 -114 4&#xA;-210 9 -213 16 -10 21 53 21 248 0 213 -3 226 -66 252 -39 16 -80 18 -89 4z"/>
    <path d="M9843 4557 c-11 -12 -31 -43 -46 -68 -35 -62 -85 -105 -199 -172&#xA;-135 -80 -185 -142 -207 -262 -14 -74 -14 -240 -1 -266 22 -40 30 -17 30 84 1&#xA;228 45 314 209 405 103 58 153 101 187 158 25 42 58 134 51 141 -2 1 -13 -7&#xA;-24 -20z"/>
    <path d="M0 4283 c0 -28 50 -41 298 -79 62 -10 119 -22 127 -28 10 -8 14 -51&#xA;17 -166 3 -150 2 -155 -17 -153 -11 2 -77 6 -147 9 -95 5 -128 4 -128 -5 0&#xA;-19 39 -31 170 -49 l125 -18 3 -283 2 -283 -102 7 c-57 3 -143 11 -193 16&#xA;-145 14 -155 13 -155 -16 0 -29 -13 -26 235 -55 105 -12 278 -33 385 -46 107&#xA;-13 247 -28 310 -34 63 -6 184 -20 268 -31 84 -10 159 -19 167 -19 7 0 23 -9&#xA;36 -19 24 -19 24 -22 29 -251 l5 -232 -80 6 c-44 4 -109 9 -145 12 -70 5 -104&#xA;-6 -83 -27 10 -10 210 -36 289 -38 20 -1 21 -8 34 -311 7 -171 10 -313 6 -317&#xA;-3 -3 -61 -1 -129 6 -67 6 -183 15 -257 18 -124 5 -152 3 -346 -30 -116 -20&#xA;-276 -52 -355 -71 -79 -19 -173 -40 -209 -46 -151 -27 -160 -30 -160 -56 0&#xA;-15 6 -24 15 -24 28 0 211 29 276 44 111 26 613 106 662 106 16 0 17 -17 15&#xA;-252 l-3 -252 -105 -13 c-166 -21 -441 -70 -452 -81 -6 -6 -7 -16 -3 -22 10&#xA;-16 124 -8 342 25 90 14 175 25 188 25 l25 0 0 -384 c0 -370 5 -447 31 -511&#xA;l12 -30 9 35 c5 19 9 225 8 461 -1 235 2 429 7 432 4 2 76 -2 158 -9 83 -8&#xA;210 -18 283 -22 l134 -7 -1 -176 c-2 -187 5 -223 43 -233 36 -10 429 -19 481&#xA;-11 l50 7 -37 14 c-63 22 -182 34 -333 34 -125 0 -144 2 -149 17 -4 9 -10 100&#xA;-13 201 -6 174 -7 184 -27 192 -19 8 -230 27 -497 46 l-96 7 -6 251 c-3 138&#xA;-4 253 -1 255 4 4 378 -27 804 -68 171 -16 174 -16 181 -41 4 -14 7 -94 8&#xA;-177 1 -185 -3 -179 152 -193 180 -16 338 -9 301 14 -14 8 -285 36 -359 36&#xA;l-53 0 0 103 c0 56 -3 132 -7 169 l-6 68 54 0 c101 0 617 -57 696 -76 27 -7&#xA;30 -37 38 -379 9 -415 16 -489 44 -505 10 -5 113 -19 227 -30 214 -20 367 -38&#xA;395 -46 14 -4 17 -33 22 -217 4 -160 10 -225 23 -267 16 -51 17 -53 26 -30 5&#xA;14 12 60 15 104 l6 78 131 -8 c72 -5 223 -8 336 -6 231 2 415 -15 507 -49 32&#xA;-12 95 -46 140 -75 80 -53 113 -65 113 -42 0 25 -99 105 -185 150 -139 72&#xA;-196 81 -540 84 -159 1 -338 3 -396 3 l-106 1 -7 123 c-9 156 -18 191 -54 206&#xA;-39 16 -135 27 -389 47 l-222 17 -5 71 c-3 39 -8 157 -11 261 -11 405 -18 530&#xA;-28 543 -20 25 -63 41 -153 56 -105 18 -402 52 -529 61 -195 13 -621 46 -642&#xA;50 -19 5 -22 13 -27 97 -4 51 -10 314 -14 583 -8 543 -8 537 -74 568 -32 14&#xA;-240 42 -543 72 -305 29 -355 37 -364 54 -5 9 -12 189 -15 401 -7 482 -14 574&#xA;-41 594 -40 29 -194 59 -372 72 -88 6 -93 6 -93 -13z"/>
    <path d="M10175 4053 c-143 -19 -426 -66 -453 -74 -17 -6 -36 -18 -41 -27 -9&#xA;-18 -19 -127 -26 -287 l-5 -100 -42 -7 c-24 -4 -142 -24 -263 -43 -370 -59&#xA;-355 -52 -363 -169 l-4 -73 -92 -13 c-273 -38 -460 -70 -480 -84 -30 -19 -36&#xA;-58 -35 -231 0 -151 7 -187 27 -163 7 9 14 78 18 185 l7 171 96 11 c103 13&#xA;389 58 428 67 l23 6 0 -239 0 -240 -82 -12 c-46 -7 -213 -29 -373 -51 -473&#xA;-63 -528 -72 -567 -92 -60 -30 -65 -45 -73 -225 l-7 -163 -32 -5 c-17 -3 -96&#xA;-12 -176 -20 -244 -26 -268 -32 -317 -79 -57 -54 -67 -105 -61 -333 2 -95 3&#xA;-173 1 -173 -39 0 -441 -47 -562 -66 -189 -30 -204 -34 -227 -69 -27 -42 -35&#xA;-112 -42 -385 l-7 -255 -35 -3 c-49 -4 -334 -48 -469 -72 -129 -23 -191 -45&#xA;-264 -92 -152 -97 -158 -154 -7 -63 97 58 133 69 320 99 147 24 446 81 482 92&#xA;13 4 17 25 22 117 20 391 29 523 36 530 10 12 130 31 410 67 241 30 355 51&#xA;371 67 11 11 29 239 29 362 0 122 10 142 75 158 76 18 436 75 442 70 8 -9 -4&#xA;-1127 -12 -1135 -2 -2 -104 -12 -227 -22 -307 -26 -489 -49 -515 -66 -11 -7&#xA;-26 -28 -32 -46 -25 -82 -45 -700 -24 -763 l10 -30 16 55 c11 38 19 136 27&#xA;310 5 140 13 292 16 337 l7 81 31 6 c17 3 126 15 241 26 408 41 466 48 491 65&#xA;24 15 24 17 24 184 l0 169 33 5 c17 4 70 11 117 17 114 14 181 30 174 41 -7&#xA;13 -134 10 -231 -5 l-83 -12 0 231 c0 128 3 293 7 369 6 128 7 137 27 140 12&#xA;2 125 18 251 35 127 17 239 34 250 37 19 5 20 0 20 -168 l0 -173 46 -3 c63 -4&#xA;341 35 390 55 47 18 42 33 -12 33 -33 0 -277 -30 -361 -45 l-28 -4 -2 172 -3&#xA;172 -70 -2 c-38 -2 -158 -14 -266 -28 -108 -14 -205 -25 -217 -25 -22 0 -22 2&#xA;-22 179 0 177 0 179 23 184 41 10 438 66 757 107 173 22 396 51 495 65 99 14&#xA;204 28 234 31 l53 7 -7 -199 c-4 -109 -9 -206 -10 -215 -2 -9 -6 -135 -10&#xA;-280 -4 -145 -9 -275 -11 -289 -1 -14 -3 -66 -3 -117 l-1 -92 -98 6 c-93 5&#xA;-406 -12 -457 -25 -54 -15 -27 -27 65 -30 92 -3 423 14 466 24 20 5 21 1 26&#xA;-94 5 -104 14 -137 29 -109 9 15 23 203 35 451 l6 138 37 -6 c90 -16 314 -36&#xA;339 -30 61 13 65 16 51 25 -8 4 -36 11 -64 13 -27 3 -120 13 -205 22 -85 8&#xA;-156 17 -158 18 -1 2 4 140 13 307 8 167 15 346 15 397 0 91 0 92 23 87 12 -2&#xA;51 -11 87 -19 36 -8 108 -22 160 -31 52 -8 106 -18 120 -20 l25 -5 -3 -197&#xA;c-2 -108 0 -208 3 -221 6 -24 7 -24 98 -20 152 6 150 34 -2 37 l-64 1 6 191&#xA;c3 105 7 192 9 195 2 2 53 -6 113 -16 59 -11 110 -20 112 -20 2 0 3 13 3 29 0&#xA;29 -1 30 -108 55 -60 14 -191 39 -293 56 -101 16 -215 37 -252 46 -79 19 -142&#xA;16 -392 -20 -88 -12 -162 -22 -165 -20 -3 1 -2 67 1 146 4 78 7 223 8 321 0&#xA;97 2 177 4 177 24 0 264 36 398 60 96 17 188 34 206 37 57 10 60 20 65 221 2&#xA;109 8 186 15 193 5 5 66 19 134 29 364 56 379 60 379 96 0 25 -2 25 -65 17z"/>
    <path d="M790 3913 c0 -211 38 -279 178 -318 32 -8 72 -23 91 -33 45 -22 95&#xA;-92 121 -167 11 -33 27 -71 35 -85 12 -22 14 -23 20 -7 19 48 -29 186 -87 251&#xA;-45 52 -88 77 -163 95 -128 32 -145 56 -155 221 -4 76 -12 125 -23 145 -16 29&#xA;-16 26 -17 -102z"/>
    <path d="M9921 3442 c-6 -31 -16 -99 -21 -149 -5 -51 -12 -97 -15 -103 -3 -5&#xA;-23 -10 -43 -10 -108 0 -282 -46 -267 -70 9 -15 57 -12 192 10 67 11 166 24&#xA;220 30 185 20 256 68 83 56 -55 -3 -106 -7 -112 -9 -9 -1 -11 36 -9 144 3 157&#xA;-8 198 -28 101z"/>
    <path d="M8055 3366 c-154 -50 -263 -133 -319 -244 -15 -29 -38 -101 -51 -160&#xA;-14 -59 -30 -119 -36 -133 -26 -66 -107 -110 -254 -140 -52 -10 -115 -28 -140&#xA;-40 -93 -44 -208 -174 -234 -264 -6 -22 -16 -89 -21 -150 -6 -60 -15 -124 -21&#xA;-142 -16 -49 -58 -78 -151 -102 -141 -37 -167 -53 -110 -66 39 -8 166 19 222&#xA;48 49 25 85 71 99 126 5 20 14 89 20 154 12 136 28 178 96 255 66 74 118 101&#xA;258 133 139 31 181 47 226 85 46 38 65 83 94 216 52 234 111 296 375 393 56&#xA;20 105 41 108 46 10 17 -92 8 -161 -15z"/>
    <path d="M1610 3355 c0 -8 33 -39 73 -69 93 -69 121 -100 149 -161 20 -45 23&#xA;-72 29 -260 4 -133 11 -221 19 -240 l13 -30 8 35 c5 19 9 125 10 235 2 187 0&#xA;204 -21 260 -29 75 -117 166 -206 213 -71 37 -74 37 -74 17z"/>
    <path d="M2090 3269 c0 -5 18 -39 39 -75 54 -90 68 -159 91 -471 21 -272 34&#xA;-361 50 -332 5 8 10 50 11 93 l2 78 81 -7 c98 -8 194 -21 258 -36 55 -13 54&#xA;-8 63 -189 8 -155 23 -270 40 -296 8 -12 29 -24 47 -28 47 -8 286 -34 398 -42&#xA;105 -7 170 -27 171 -53 8 -288 18 -424 32 -445 19 -28 36 -31 270 -51 311 -27&#xA;590 -61 618 -76 22 -11 26 -41 49 -348 15 -206 23 -268 35 -281 9 -10 38 -20&#xA;68 -24 87 -11 620 -9 647 2 l25 10 -25 10 c-54 20 -235 34 -452 34 l-226 0 -6&#xA;72 c-3 39 -8 130 -11 201 -8 163 -22 292 -36 333 -10 28 -19 34 -77 51 -79 23&#xA;-84 24 -406 56 -138 14 -294 25 -347 25 l-97 0 -4 213 c-2 163 -6 219 -18 241&#xA;-28 56 -60 66 -312 92 -128 13 -250 24 -271 24 -21 0 -39 5 -42 13 -2 6 -9&#xA;102 -15 212 -13 224 -22 256 -81 287 -55 28 -144 41 -261 36 l-107 -4 -5 40&#xA;c-3 23 -10 107 -16 188 -12 176 -31 270 -67 344 -34 70 -113 142 -113 103z"/>
    <path d="M193 2843 c-18 -3 -33 -8 -33 -13 0 -23 40 -30 404 -71 86 -9 143&#xA;-22 147 -31 1 -2 4 -112 8 -245 6 -224 8 -244 26 -262 17 -17 45 -21 195 -31&#xA;240 -17 260 -17 260 1 0 24 -75 39 -254 51 l-186 12 0 216 c0 224 -7 277 -41&#xA;309 -26 24 -45 28 -237 46 -213 20 -252 22 -289 18z"/>
    <path d="M2955 2779 c4 -13 33 -55 64 -94 76 -93 111 -146 154 -231 64 -127&#xA;104 -150 402 -224 218 -55 320 -109 388 -207 18 -26 42 -58 54 -72 l22 -26 1&#xA;31 c0 41 -63 138 -126 192 -74 65 -160 100 -353 148 -97 23 -190 48 -206 54&#xA;-65 24 -105 62 -137 129 -59 124 -148 237 -239 302 l-31 22 7 -24z"/>
    <path d="M5531 1884 c32 -38 109 -59 278 -74 124 -12 144 -19 211 -78 73 -63&#xA;104 -75 177 -69 67 7 114 24 121 44 3 9 -18 12 -81 12 -95 -1 -114 6 -192 72&#xA;-69 58 -92 65 -240 78 -71 7 -157 16 -190 21 -88 14 -100 13 -84 -6z"/>
    <path d="M4395 1705 c45 -38 84 -46 265 -54 182 -8 232 -22 281 -77 104 -116&#xA;129 -139 181 -165 32 -16 88 -34 125 -41 67 -11 163 -5 163 11 0 9 -52 24&#xA;-156 45 -117 24 -149 44 -256 168 -89 102 -114 111 -338 120 -102 4 -210 10&#xA;-240 13 l-55 6 30 -26z"/>
    <path d="M10105 1219 c-55 -4 -215 -19 -355 -33 -140 -14 -322 -30 -405 -36&#xA;-227 -16 -521 -49 -562 -63 -63 -21 -71 -43 -77 -212 -12 -322 -18 -694 -12&#xA;-719 3 -14 13 -26 20 -26 20 0 33 76 41 230 4 69 7 126 8 126 1 1 54 5 117 8&#xA;261 15 397 27 464 41 39 8 73 15 76 15 2 0 -1 5 -8 12 -14 14 -68 13 -397 -6&#xA;-132 -8 -242 -12 -245 -9 -7 7 1 467 8 474 11 11 169 27 522 54 184 14 434 37&#xA;555 50 121 14 257 27 303 31 l82 7 0 33 c0 26 -4 34 -17 33 -10 -1 -63 -5&#xA;-118 -10z"/>
    <path d="M7035 1190 c-82 -10 -168 -24 -190 -31 -39 -11 -39 -12 -15 -21 30&#xA;-12 178 -5 358 17 133 16 192 30 192 46 0 14 -181 8 -345 -11z"/>
    <path d="M5450 1164 c-141 -8 -238 -26 -340 -63 -177 -65 -229 -73 -424 -66&#xA;-161 7 -170 6 -149 -10 42 -30 158 -47 288 -42 110 4 132 8 258 50 153 52 225&#xA;63 462 73 154 6 164 5 250 -21 181 -53 420 -70 485 -35 l25 13 -30 9 c-16 4&#xA;-77 13 -135 19 -124 12 -262 34 -343 55 -61 15 -232 24 -347 18z"/>
    <path d="M3628 1093 c-35 -6 -35 -16 -1 -32 65 -30 530 -44 552 -17 22 26 -96&#xA;42 -374 50 -82 2 -162 2 -177 -1z"/>
    <path d="M7923 535 c-197 -23 -263 -35 -293 -54 -30 -20 20 -23 158 -11 297&#xA;25 552 63 552 82 0 15 -213 6 -417 -17z"/>
    <path d="M2540 410 c-13 -9 -13 -11 0 -19 33 -22 529 -39 585 -21 22 7 33 16&#xA;28 21 -24 24 -579 41 -613 19z"/>
    <path d="M6022 399 c-163 -8 -236 -21 -229 -42 11 -35 747 -2 747 33 0 21&#xA;-191 25 -518 9z"/>
  </g>
  <title>Nietoperz</title>
  <desc>Mały, kwadratowy nietoperz, którego można spotkać w ciemnych jaskiniach. Jest stworzeniem pasywnym i nie atakuje gracza. Pokoloruj go na ciemnoszaro.</desc>
</svg>