<?xml version="1.0" encoding="UTF-8" standalone="yes"?>
<svg version="1.0" xmlns="http://www.w3.org/2000/svg" width="1024.000000pt" height="1024.000000pt" viewBox="0 0 1024.000000 1024.000000" preserveAspectRatio="xMidYMid meet">
  <metadata>
Created by potrace 1.16, written by Peter Selinger 2001-2019
</metadata>
  <g transform="translate(0.000000,1024.000000) scale(0.100000,-0.100000)" fill="#000000" stroke="none">
    <path d="M8210 9543 c-71 -12 -296 -79 -384 -113 -125 -49 -164 -73 -171 -103&#xA;-5 -19 28 -331 60 -572 3 -16 14 -113 25 -215 11 -102 25 -221 30 -265 6 -44&#xA;12 -100 15 -125 5 -45 32 -268 39 -325 3 -16 12 -102 22 -190 l17 -160 51 -50&#xA;c50 -50 231 -191 272 -213 11 -6 36 -8 55 -6 37 6 454 109 506 125 50 16 62&#xA;55 51 169 -12 132 -101 842 -137 1090 -16 113 -37 277 -46 365 -9 88 -18 179&#xA;-21 202 -4 34 -21 62 -84 140 -43 54 -111 133 -152 176 -75 79 -80 82 -148 70z&#xA;m20 -87 c0 -20 34 -305 50 -414 10 -75 28 -207 40 -292 11 -85 23 -169 25&#xA;-187 15 -102 36 -309 45 -443 6 -85 12 -180 15 -210 13 -168 16 -260 9 -260&#xA;-5 0 -112 -27 -239 -60 -126 -32 -230 -58 -231 -57 -2 2 -59 455 -69 547 -9&#xA;80 -15 132 -40 345 -14 116 -27 230 -30 255 -3 25 -10 77 -15 115 -5 39 -19&#xA;153 -30 255 -11 102 -23 200 -26 218 -6 36 -16 30 146 89 119 43 198 68 275&#xA;86 72 18 75 18 75 13z m243 -241 l43 -50 18 -195 c9 -107 34 -319 56 -470 50&#xA;-357 75 -545 100 -760 11 -96 23 -200 27 -230 l6 -54 -55 44 c-179 145 -175&#xA;141 -182 195 -3 28 -13 163 -21 300 -18 280 -41 489 -115 1030 -27 204 -50&#xA;372 -50 375 1 6 109 -110 173 -185z m88 -1716 c60 -51 109 -95 109 -98 0 -7&#xA;-267 -76 -374 -97 l-68 -13 -47 31 c-108 74 -192 140 -186 146 3 4 106 32 228&#xA;63 122 31 224 57 226 58 2 1 52 -40 112 -90z"/>
    <path d="M4640 9397 c-3 -3 -23 -7 -45 -11 -80 -11 -208 -50 -320 -96 -221&#xA;-92 -472 -254 -449 -291 12 -20 52 -5 202 75 198 105 324 159 530 226 146 48&#xA;163 55 160 74 -2 16 -11 22 -38 24 -20 2 -38 1 -40 -1z"/>
    <path d="M6097 9314 c-1 -1 -24 -4 -52 -8 -220 -26 -930 -204 -1600 -401 -88&#xA;-26 -173 -51 -190 -55 -218 -57 -939 -294 -1310 -430 -332 -122 -435 -166&#xA;-463 -197 -23 -26 -24 -30 -18 -157 4 -72 9 -187 11 -256 17 -398 59 -945 100&#xA;-1290 2 -19 18 -159 35 -310 18 -151 49 -382 70 -514 40 -249 51 -283 88 -260&#xA;25 16 26 52 3 172 -11 59 -27 159 -36 222 -8 63 -18 131 -21 150 -6 41 -61&#xA;530 -69 610 -3 30 -8 75 -10 100 -19 178 -58 689 -70 910 -3 58 -8 128 -10&#xA;155 -2 28 -7 130 -11 227 l-7 177 54 24 c30 13 135 54 234 91 99 37 196 74&#xA;215 81 51 20 449 157 560 193 444 143 675 213 1040 317 202 58 481 134 535&#xA;146 22 4 117 27 210 49 452 107 714 164 721 158 2 -2 13 -80 24 -173 11 -94&#xA;22 -186 25 -205 3 -19 12 -93 20 -165 8 -71 17 -148 20 -170 2 -22 14 -125 25&#xA;-230 11 -104 27 -253 35 -330 14 -127 41 -385 65 -620 5 -49 12 -121 15 -160&#xA;3 -38 8 -81 10 -95 2 -14 7 -52 9 -85 18 -194 65 -671 91 -920 25 -240 51&#xA;-576 47 -606 -3 -20 -11 -31 -26 -34 -11 -2 -79 -18 -151 -34 -252 -57 -492&#xA;-110 -630 -140 -77 -17 -221 -49 -320 -72 -284 -65 -298 -68 -335 -74 -19 -4&#xA;-62 -12 -95 -20 -33 -8 -130 -30 -215 -49 -85 -20 -222 -52 -305 -71 -82 -20&#xA;-276 -65 -430 -101 -384 -89 -425 -101 -452 -126 -25 -23 -30 -48 -10 -48 38&#xA;0 501 102 892 196 193 47 536 125 740 168 88 19 248 55 355 79 107 25 310 71&#xA;450 102 140 32 328 75 418 96 116 28 168 36 180 29 81 -46 943 -384 1111 -435&#xA;12 -4 19 -10 15 -14 -12 -10 -83 -35 -174 -60 -41 -12 -154 -43 -250 -70 -178&#xA;-51 -386 -101 -414 -101 -9 0 -16 8 -16 18 0 26 -28 133 -43 161 -8 16 -62 48&#xA;-172 103 -183 91 -156 88 -380 38 -242 -55 -271 -66 -281 -105 -8 -33 12 -210&#xA;37 -318 12 -48 19 -92 17 -98 -3 -10 -273 -109 -307 -112 -11 -2 -20 29 -36&#xA;123 -11 69 -24 131 -29 138 -4 7 -84 51 -177 97 -125 63 -179 85 -208 85 -41&#xA;0 -370 -81 -430 -106 -19 -8 -39 -20 -43 -27 -10 -16 -9 -185 2 -277 5 -41 12&#xA;-104 16 -140 l6 -65 -95 -24 c-53 -12 -100 -20 -105 -17 -5 3 -13 62 -17 130&#xA;-5 97 -11 128 -23 139 -10 8 -75 38 -147 67 -207 84 -190 80 -275 65 -76 -14&#xA;-282 -67 -333 -87 -47 -18 -67 -53 -67 -119 0 -33 -3 -59 -7 -59 -3 0 -67 21&#xA;-140 46 -150 51 -176 52 -181 12 -3 -24 3 -30 60 -56 35 -17 106 -45 158 -63&#xA;52 -17 100 -37 106 -43 7 -6 14 -51 18 -101 21 -313 56 -531 137 -864 88 -361&#xA;242 -733 405 -978 67 -101 196 -263 247 -312 l36 -34 83 12 c194 28 394 93&#xA;427 140 29 40 97 179 111 226 16 54 5 78 -98 225 -134 190 -233 393 -316 647&#xA;-49 150 -89 300 -106 403 -23 139 -41 249 -55 355 -8 61 -17 122 -20 136 -4&#xA;26 -2 27 88 48 51 12 99 24 108 27 13 4 20 -16 39 -113 114 -595 315 -1080&#xA;599 -1448 66 -85 108 -166 192 -365 75 -179 205 -438 280 -558 136 -218 296&#xA;-402 428 -491 62 -42 65 -43 122 -37 131 15 391 98 437 139 21 19 22 28 22&#xA;159 0 160 -5 175 -77 233 -87 71 -194 179 -277 280 -90 109 -176 229 -176 245&#xA;0 5 22 21 50 35 27 14 56 35 64 48 21 31 36 105 43 211 7 111 5 115 -107 246&#xA;-200 232 -293 369 -414 608 -114 226 -242 589 -295 836 -12 55 -18 103 -14&#xA;107 9 9 125 51 128 47 1 -2 16 -46 35 -98 78 -225 243 -616 345 -820 123 -247&#xA;353 -617 509 -821 144 -188 395 -454 545 -579 176 -147 372 -267 416 -256 31&#xA;8 270 239 330 319 67 88 62 134 -22 183 -92 54 -199 136 -320 246 -68 61 -123&#xA;114 -123 117 0 3 28 21 63 39 34 19 101 57 150 85 117 69 121 78 115 256 -6&#xA;185 4 169 -209 338 -143 114 -350 318 -446 439 -139 176 -240 361 -303 553&#xA;-36 113 -77 287 -69 295 2 2 12 6 22 8 16 2 26 -17 61 -117 97 -274 206 -472&#xA;351 -635 146 -163 306 -287 595 -460 302 -181 372 -232 525 -381 61 -59 121&#xA;-112 135 -117 51 -19 120 27 273 183 49 49 96 103 104 119 62 119 -136 299&#xA;-617 561 -118 65 -258 146 -311 180 -278 184 -476 402 -598 657 -28 58 -51&#xA;110 -51 116 0 6 15 14 33 17 75 16 328 99 393 130 50 22 74 40 79 55 9 28 -1&#xA;235 -21 455 -8 88 -21 234 -29 325 -8 91 -17 181 -20 200 -3 19 -12 100 -20&#xA;180 -8 80 -26 240 -40 355 -14 116 -34 282 -45 370 -10 88 -37 302 -59 475&#xA;-22 173 -45 353 -51 400 -6 47 -19 148 -30 225 -82 589 -83 597 -112 640 -23&#xA;34 -171 148 -328 252 -335 224 -968 557 -1003 527z m306 -236 c189 -100 335&#xA;-182 532 -301 116 -70 402 -262 426 -286 20 -19 57 -281 184 -1276 85 -673&#xA;119 -953 150 -1250 8 -82 20 -193 25 -245 17 -151 19 -172 40 -420 28 -340 28&#xA;-331 10 -324 -26 11 -410 154 -536 199 -66 24 -233 89 -372 145 -138 55 -256&#xA;100 -261 100 -22 0 -31 37 -45 200 -9 96 -18 195 -21 220 -6 67 -14 158 -20&#xA;220 -11 129 -28 306 -60 625 -19 187 -39 387 -44 445 -39 409 -82 851 -86 880&#xA;-3 19 -9 85 -15 145 -10 112 -40 380 -84 745 -33 279 -33 280 -23 280 5 0 95&#xA;-46 200 -102z m17 -4150 c0 -30 63 -287 97 -393 100 -316 340 -749 588 -1060&#xA;97 -122 286 -325 386 -414 109 -98 112 -101 215 -179 l76 -57 -27 -21 c-22&#xA;-17 -225 -134 -302 -173 -18 -9 -29 -6 -70 22 -149 100 -371 286 -494 413&#xA;-358 371 -665 923 -794 1429 -38 148 -71 353 -58 365 6 7 344 96 376 99 4 1 7&#xA;-13 7 -31z m86 3 c5 -6 55 -32 111 -60 56 -27 104 -54 107 -59 3 -6 22 -86 41&#xA;-180 88 -429 182 -644 403 -931 125 -161 388 -413 575 -549 l57 -43 0 -110 0&#xA;-111 -52 43 c-341 280 -552 511 -783 859 -200 300 -351 620 -420 890 -14 58&#xA;-35 136 -46 175 -10 38 -19 73 -19 77 0 11 14 10 26 -1z m-1266 -233 c1 -141&#xA;48 -434 110 -693 140 -586 462 -1142 944 -1632 l100 -102 -94 -44 c-52 -25&#xA;-141 -61 -198 -82 l-102 -37 -58 42 c-91 69 -299 285 -400 418 -229 300 -419&#xA;678 -521 1032 -86 298 -154 671 -168 916 l-6 112 44 12 c24 6 67 17 94 25 28&#xA;8 64 17 80 20 17 3 53 12 80 20 75 21 95 19 95 -7z m196 -59 c71 -34 130 -62&#xA;132 -64 2 -2 21 -106 42 -232 46 -270 86 -425 176 -680 142 -407 280 -649 555&#xA;-976 l141 -169 -7 -46 c-4 -26 -12 -71 -19 -101 l-12 -54 -85 84 c-114 113&#xA;-157 162 -275 309 -339 424 -523 776 -657 1260 -49 174 -142 730 -124 730 2 0&#xA;62 -27 133 -61z m1834 37 c0 -31 135 -278 200 -366 177 -239 396 -413 765&#xA;-607 183 -97 389 -220 470 -282 88 -67 165 -148 165 -174 0 -26 -135 -177&#xA;-213 -239 -73 -57 -83 -54 -198 66 -119 124 -216 198 -444 336 -343 208 -484&#xA;307 -597 422 -162 165 -260 324 -362 588 -31 80 -61 156 -67 169 -5 13 -7 26&#xA;-4 30 6 6 246 67 273 70 6 0 12 -5 12 -13z m-3086 -253 c18 -177 41 -362 61&#xA;-483 8 -47 17 -103 21 -125 41 -272 111 -578 185 -814 110 -346 300 -691 492&#xA;-895 21 -22 31 -39 24 -41 -60 -22 -355 -77 -368 -70 -4 3 -43 47 -85 98 -293&#xA;348 -514 886 -619 1505 -46 272 -90 772 -69 791 7 8 164 51 239 67 11 2 34 8&#xA;50 13 59 18 63 16 69 -46z m191 -9 l123 -47 6 -56 c3 -31 8 -94 12 -141 14&#xA;-211 79 -644 123 -825 87 -357 229 -669 427 -936 35 -48 64 -97 64 -109 0 -22&#xA;-82 -174 -100 -185 -16 -10 -190 216 -269 348 -229 382 -368 880 -486 1737&#xA;-14 102 -27 202 -30 223 -3 20 -2 37 1 37 3 0 62 -21 129 -46z m1683 -99 c47&#xA;-175 231 -574 362 -783 226 -362 561 -711 904 -943 75 -51 94 -59 127 -57 35&#xA;2 45 -4 92 -49 152 -147 228 -211 337 -283 52 -35 97 -64 99 -66 8 -7 -103&#xA;-135 -193 -222 -115 -111 -104 -111 -251 -15 -399 262 -810 745 -1139 1340&#xA;-139 252 -343 710 -436 980 l-39 113 47 14 c72 22 77 21 90 -29z m-182 -2223&#xA;c96 -83 102 -85 197 -51 l77 28 44 -87 c122 -243 370 -544 544 -662 28 -19 52&#xA;-38 52 -42 0 -10 -173 -63 -281 -87 l-87 -19 -79 68 c-169 144 -324 348 -459&#xA;604 -59 113 -194 401 -194 414 0 4 26 -19 58 -49 31 -30 89 -83 128 -117z&#xA;m482 -7 c75 -125 191 -267 339 -414 l155 -153 -7 -94 -7 -94 -61 43 c-127 89&#xA;-299 279 -431 477 -66 100 -136 221 -136 236 0 7 85 48 110 53 3 1 20 -24 38&#xA;-54z"/>
    <path d="M7070 7958 c0 -30 47 -384 61 -462 6 -33 15 -68 20 -78 12 -22 47&#xA;-24 55 -3 6 14 -53 389 -79 505 -10 45 -17 56 -35 58 -17 3 -22 -2 -22 -20z"/>
    <path d="M6823 7263 c-23 -8 -14 -42 15 -56 15 -8 65 -27 112 -42 47 -15 88&#xA;-30 92 -34 6 -5 38 -403 38 -468 l0 -22 -57 19 c-267 86 -278 87 -271 39 3&#xA;-20 23 -29 163 -76 176 -59 210 -61 222 -15 5 22 -19 396 -34 507 -3 22 -14&#xA;50 -25 62 -27 29 -226 96 -255 86z"/>
    <path d="M7240 6112 c0 -13 11 -27 28 -36 47 -24 163 -56 204 -56 35 0 39 3&#xA;36 22 -2 17 -19 27 -87 50 -46 15 -106 31 -133 34 -44 6 -48 5 -48 -14z"/>
    <path d="M7000 5656 c0 -7 6 -18 13 -25 19 -15 213 -93 354 -141 98 -34 119&#xA;-38 130 -27 36 36 2 54 -278 146 -198 65 -219 69 -219 47z"/>
    <path d="M3124 8952 c-119 -63 -251 -183 -238 -216 10 -27 29 -19 118 49 47&#xA;35 120 87 162 115 51 35 74 57 72 68 -5 29 -40 24 -114 -16z"/>
    <path d="M9120 8883 c0 -10 32 -71 71 -136 84 -140 110 -196 137 -297 32 -120&#xA;42 -179 49 -275 5 -91 18 -120 48 -109 49 19 26 277 -43 475 -40 115 -108 228&#xA;-190 317 -41 44 -72 54 -72 25z"/>
    <path d="M5443 8112 c-159 -139 -554 -465 -733 -604 -230 -178 -279 -211 -295&#xA;-198 -6 5 -22 54 -35 107 -26 113 -32 128 -51 128 -11 0 -14 -19 -14 -85 1&#xA;-131 59 -280 113 -288 12 -2 41 10 67 28 51 35 48 38 64 -65 22 -150 140 -312&#xA;271 -374 123 -59 267 -64 396 -16 269 101 451 330 470 593 16 219 -90 436&#xA;-267 548 l-43 27 59 51 c148 127 170 159 145 207 -20 36 -55 22 -147 -59z m28&#xA;-362 c102 -101 149 -216 149 -365 0 -97 -18 -167 -65 -261 -66 -130 -180 -234&#xA;-328 -297 -66 -29 -81 -32 -177 -31 -81 0 -116 4 -152 20 -52 21 -61 36 -26&#xA;44 61 15 90 126 64 249 -25 118 -92 191 -177 191 -64 0 -117 -99 -107 -198 5&#xA;-45 5 -46 -7 -17 -14 31 -41 183 -34 189 2 1 42 31 88 66 86 64 385 313 540&#xA;447 l83 73 42 -23 c22 -12 71 -51 107 -87z"/>
    <path d="M1572 7948 c-59 -32 -293 -203 -349 -254 -57 -54 -64 3 68 -614 28&#xA;-129 68 -318 89 -420 22 -102 48 -225 59 -275 11 -49 29 -133 41 -185 25 -118&#xA;43 -158 72 -164 136 -30 370 -67 395 -63 29 5 173 88 335 192 34 22 70 52 81&#xA;67 22 30 20 44 -28 253 -8 33 -42 191 -75 350 -34 160 -79 367 -101 460 -103&#xA;437 -121 512 -131 537 -9 24 -24 32 -127 63 -64 20 -136 43 -161 51 -81 27&#xA;-121 28 -168 2z m243 -120 c61 -17 117 -32 126 -35 11 -3 22 -28 33 -71 47&#xA;-196 149 -639 166 -722 20 -104 114 -542 139 -650 5 -24 9 -46 8 -47 -2 -1&#xA;-27 4 -57 11 -30 8 -95 22 -143 32 -62 12 -91 23 -98 35 -15 28 -114 446 -149&#xA;629 -17 91 -42 210 -55 266 -13 55 -42 197 -64 315 -22 118 -43 229 -47 248&#xA;-6 31 -5 34 12 27 10 -4 69 -21 129 -38z m-162 -226 c71 -383 158 -793 228&#xA;-1074 21 -87 39 -162 39 -167 0 -5 -33 -30 -72 -55 -214 -134 -263 -164 -267&#xA;-161 -5 5 -48 189 -87 375 -19 91 -39 183 -44 205 -19 78 -82 371 -95 440 -8&#xA;39 -33 157 -55 264 -22 107 -37 197 -33 201 43 36 324 230 333 230 3 0 26&#xA;-116 53 -258z m443 -1327 c58 -14 118 -25 132 -25 36 0 29 -5 -138 -106 l-145&#xA;-87 -131 16 c-72 9 -138 19 -147 23 -12 4 20 29 116 88 72 45 143 89 157 99&#xA;31 22 30 22 156 -8z"/>
    <path d="M2970 7688 c-41 -44 -30 -55 123 -128 l127 -60 -40 -52 c-51 -68&#xA;-107 -185 -125 -262 -49 -208 14 -448 155 -587 108 -106 221 -152 375 -152&#xA;198 0 349 85 468 261 59 87 107 241 109 349 1 44 5 53 19 53 28 0 42 36 35 89&#xA;-14 104 -51 241 -65 241 -22 0 -26 -24 -17 -95 5 -41 7 -77 4 -80 -10 -10&#xA;-411 142 -673 255 -164 71 -456 190 -465 190 -5 0 -18 -10 -30 -22z m511 -309&#xA;c190 -84 348 -151 409 -173 19 -8 55 -23 80 -35 25 -11 63 -27 85 -35 l40 -13&#xA;-3 -74 c-1 -41 -8 -99 -14 -129 l-13 -55 -3 40 c-5 78 -23 143 -51 187 -97&#xA;153 -232 -7 -187 -222 17 -81 52 -137 98 -154 15 -6 28 -13 28 -17 0 -4 -23&#xA;-28 -51 -53 -113 -102 -273 -145 -414 -112 -180 42 -310 178 -361 377 -33 128&#xA;4 321 87 450 45 70 68 99 79 99 4 0 90 -37 191 -81z"/>
    <path d="M8836 6879 c-94 -12 -348 -75 -401 -98 -24 -11 -50 -30 -58 -43 -9&#xA;-12 -23 -68 -32 -123 -24 -153 -42 -243 -90 -455 -25 -107 -92 -411 -151 -675&#xA;-58 -264 -115 -520 -126 -570 -11 -49 -22 -111 -25 -137 -7 -57 -17 -47 200&#xA;-194 l157 -107 165 2 c175 2 398 16 415 26 6 3 16 18 24 33 17 32 189 768 346&#xA;1472 28 126 88 437 96 496 l6 51 -67 71 c-58 62 -211 187 -285 234 -35 22 -93&#xA;27 -174 17z m64 -86 c0 -11 -44 -248 -86 -467 -36 -184 -130 -595 -259 -1126&#xA;-40 -168 -76 -322 -80 -342 -6 -36 -8 -38 -43 -39 -45 0 -89 -5 -257 -29 -71&#xA;-11 -131 -17 -134 -14 -4 4 27 161 83 414 22 100 134 608 141 640 2 8 31 137&#xA;64 285 51 230 71 333 107 552 6 37 -11 31 230 87 192 45 234 52 234 39z m143&#xA;-63 c40 -27 110 -84 155 -127 l84 -78 -47 -230 c-26 -126 -65 -311 -86 -410&#xA;-103 -463 -108 -484 -204 -890 -25 -104 -55 -233 -67 -285 -12 -52 -24 -99&#xA;-28 -103 -7 -7 -260 152 -301 189 -18 16 -10 58 91 474 166 677 257 1098 290&#xA;1325 13 95 31 185 37 185 3 0 37 -22 76 -50z m-451 -2048 c56 -38 119 -78 138&#xA;-90 l35 -22 -40 0 c-22 0 -114 -3 -206 -6 l-165 -7 -115 68 c-145 87 -148 89&#xA;-101 93 20 1 82 9 137 16 195 26 199 25 317 -52z"/>
    <path d="M777 6723 c-14 -13 -6 -181 12 -264 24 -106 60 -194 116 -279 79&#xA;-120 134 -160 150 -110 5 15 -5 36 -34 75 -93 123 -144 248 -182 445 -25 128&#xA;-38 157 -62 133z"/>
    <path d="M4935 6516 c-114 -22 -441 -136 -875 -303 -80 -31 -179 -69 -220 -85&#xA;-41 -15 -81 -35 -87 -45 -7 -9 -13 -35 -13 -58 0 -107 205 -719 251 -748 11&#xA;-7 87 15 285 81 428 145 537 178 774 237 135 34 393 67 545 70 l130 3 -1 93&#xA;c-5 318 -217 656 -465 739 -81 28 -227 35 -324 16z"/>
    <path d="M9654 5908 c3 -18 9 -72 12 -120 11 -148 -14 -259 -110 -478 -41 -94&#xA;-44 -107 -30 -120 14 -13 19 -11 45 20 45 52 127 224 149 314 43 171 12 416&#xA;-51 416 -19 0 -20 -4 -15 -32z"/>
    <path d="M3590 5703 c-158 -57 -402 -168 -520 -236 -58 -33 -141 -82 -185&#xA;-107 -125 -72 -383 -205 -455 -233 -89 -35 -131 -41 -154 -24 -17 13 -17 15&#xA;-2 45 9 17 53 71 98 119 122 131 130 153 66 194 -31 19 -43 20 -168 15 -330&#xA;-13 -622 -138 -844 -361 -69 -69 -118 -133 -138 -182 -7 -17 -12 -85 -12 -173&#xA;l-1 -145 -36 -75 c-47 -96 -75 -131 -177 -221 -46 -40 -90 -86 -99 -102 -22&#xA;-44 -37 -19 -43 71 l-5 77 -30 3 c-61 5 -207 -140 -280 -280 -51 -97 -74 -176&#xA;-81 -283 -15 -205 49 -384 190 -534 48 -51 54 -64 74 -145 40 -167 114 -288&#xA;226 -372 117 -88 330 -174 496 -200 67 -10 239 -7 295 6 28 6 61 18 74 27 20&#xA;13 22 20 17 52 -5 34 -3 39 20 50 41 18 102 23 184 14 83 -10 182 2 265 31&#xA;148 52 333 195 413 318 74 114 65 149 -37 158 l-61 5 115 115 c231 232 383&#xA;472 441 698 19 74 27 132 30 242 5 146 -2 187 -33 197 -6 2 -34 -17 -63 -42&#xA;-111 -98 -169 -117 -216 -70 -24 24 -25 30 -19 88 13 111 57 213 176 412 63&#xA;104 85 136 263 372 193 255 185 244 239 339 51 88 55 105 31 128 -16 16 -28&#xA;18 -54 9z m-27 -96 c-31 -50 -166 -236 -261 -357 -283 -363 -426 -628 -439&#xA;-810 -6 -84 6 -122 52 -158 57 -45 156 -31 240 32 18 14 36 26 39 26 12 0 6&#xA;-130 -10 -210 -49 -260 -193 -500 -461 -768 -144 -144 -157 -168 -112 -213 18&#xA;-18 28 -20 75 -14 30 3 54 3 54 0 0 -29 -137 -175 -210 -225 -152 -103 -251&#xA;-132 -438 -128 -137 3 -185 -6 -243 -45 -29 -20 -34 -29 -33 -59 1 -41 -2 -42&#xA;-143 -53 -131 -11 -356 42 -489 115 -188 104 -267 203 -327 411 -31 107 -42&#xA;128 -112 209 -125 145 -171 323 -135 521 22 121 113 290 205 379 32 31 35 32&#xA;35 12 0 -41 22 -122 38 -141 40 -46 50 -40 209 116 164 162 204 220 243 351&#xA;18 63 20 87 14 181 -6 103 -5 111 17 148 81 133 305 304 504 384 137 54 234&#xA;75 410 85 l110 7 -87 -90 c-122 -126 -154 -203 -105 -258 12 -14 36 -29 53&#xA;-34 37 -10 108 -5 149 11 153 59 343 157 595 306 122 72 226 125 515 262 48&#xA;23 59 24 48 7z"/>
    <path d="M1877 4794 c-93 -29 -225 -119 -312 -215 -58 -63 -176 -221 -290&#xA;-389 -55 -80 -128 -183 -162 -230 -126 -170 -185 -323 -176 -456 13 -211 139&#xA;-384 357 -492 140 -70 217 -87 391 -86 133 1 160 4 238 27 183 56 346 157 484&#xA;300 138 144 231 288 283 438 34 98 36 184 5 205 -18 12 -30 9 -105 -26 -101&#xA;-47 -141 -56 -178 -41 -38 16 -55 48 -53 99 2 60 34 133 150 346 122 222 139&#xA;261 156 349 12 64 12 70 -6 88 -22 22 -33 19 -108 -29 -79 -50 -263 -137 -356&#xA;-166 -97 -32 -184 -35 -208 -8 -24 26 -22 109 4 169 35 81 39 101 23 118 -19&#xA;19 -74 18 -137 -1z m48 -81 c-54 -132 -41 -233 35 -278 54 -31 171 -27 275 9&#xA;100 34 278 118 322 152 50 38 43 13 -43 -154 -243 -467 -244 -470 -230 -567 9&#xA;-58 56 -109 115 -125 51 -13 103 -4 189 35 28 13 52 19 52 14 0 -30 -56 -171&#xA;-97 -242 -159 -282 -399 -477 -670 -544 -98 -24 -306 -24 -393 1 -145 42 -290&#xA;130 -364 220 -20 25 -51 76 -68 113 -27 57 -33 82 -36 161 -7 160 23 229 217&#xA;500 46 64 138 194 205 287 170 239 311 373 443 421 50 18 56 17 48 -3z"/>
    <path d="M1040 5143 c-112 -123 -198 -285 -165 -313 20 -17 44 -1 67 44 26 52&#xA;76 123 144 203 30 35 54 70 54 77 0 16 -26 46 -40 46 -4 0 -31 -25 -60 -57z"/>
    <path d="M3434 4938 c-81 -88 -184 -239 -184 -270 0 -34 37 -19 89 37 62 68&#xA;164 232 157 251 -9 23 -30 16 -62 -18z"/>
    <path d="M8657 4123 c-20 -19 4 -45 101 -113 202 -142 344 -269 506 -453 51&#xA;-58 74 -77 90 -75 40 6 30 41 -35 124 -87 110 -249 275 -334 339 -88 67 -282&#xA;185 -305 185 -9 0 -20 -3 -23 -7z"/>
    <path d="M3259 3448 c-56 -104 -109 -220 -109 -236 0 -51 48 -32 91 36 31 50&#xA;69 158 69 198 0 32 -35 33 -51 2z"/>
    <path d="M3355 2581 c-89 -29 -420 -241 -439 -281 -10 -22 16 -115 81 -280 24&#xA;-63 55 -143 69 -178 86 -221 455 -982 502 -1035 27 -30 299 -105 343 -94 55&#xA;15 391 235 416 273 24 37 10 81 -87 259 -184 341 -378 752 -495 1053 -33 84&#xA;-44 95 -222 216 -108 74 -126 81 -168 67z m26 -133 c44 -160 168 -470 317&#xA;-788 90 -192 211 -438 241 -488 17 -29 31 -56 31 -60 0 -4 -60 -43 -133 -87&#xA;-72 -44 -150 -92 -171 -107 -21 -15 -43 -28 -47 -28 -11 0 -300 580 -383 769&#xA;-122 277 -242 590 -234 611 3 9 348 220 360 220 4 0 12 -19 19 -42z m173 -57&#xA;l103 -69 33 -89 c75 -202 161 -390 352 -770 111 -222 199 -405 196 -408 -11&#xA;-12 -183 55 -201 77 -24 30 -278 545 -353 714 -115 263 -251 614 -238 614 3 0&#xA;51 -31 108 -69z m536 -1366 c40 -14 82 -25 92 -25 10 0 18 -4 18 -9 0 -17&#xA;-282 -191 -311 -191 -27 0 -199 42 -199 49 0 4 44 33 98 64 53 32 124 75 157&#xA;97 33 21 63 39 66 39 3 1 39 -10 79 -24z"/>
    <path d="M8456 2353 c-5 -11 15 -36 71 -87 106 -95 297 -288 416 -419 96 -105&#xA;137 -131 137 -88 0 33 -219 315 -297 382 -10 8 -56 48 -102 88 -90 78 -181&#xA;141 -204 141 -8 0 -18 -7 -21 -17z"/>
    <path d="M2452 2287 c-25 -30 53 -227 130 -330 44 -59 66 -73 85 -55 12 13 7&#xA;26 -35 99 -45 78 -57 106 -109 244 -20 53 -49 69 -71 42z"/>
    <path d="M4937 1593 c-16 -16 -2 -41 70 -132 103 -128 231 -259 326 -336 89&#xA;-71 231 -155 263 -155 25 0 39 25 21 40 -7 5 -83 64 -170 131 -116 89 -202&#xA;167 -321 290 -90 93 -168 169 -173 169 -5 0 -13 -3 -16 -7z"/>
    <path d="M7674 1246 c-11 -29 4 -44 133 -130 202 -134 460 -256 519 -244 11 2&#xA;20 13 22 26 3 19 -6 27 -55 48 -150 68 -290 139 -424 217 -167 97 -187 105&#xA;-195 83z"/>
  </g>
  <title>Blaze</title>
  <desc>Blaze</desc>
</svg>