<?xml version="1.0" standalone="no"?>
<!DOCTYPE svg PUBLIC "-//W3C//DTD SVG 20010904//EN"
 "http://www.w3.org/TR/2001/REC-SVG-20010904/DTD/svg10.dtd">
<svg version="1.0" xmlns="http://www.w3.org/2000/svg"
 width="1024.000000pt" height="1024.000000pt" viewBox="0 0 1024.000000 1024.000000"
 preserveAspectRatio="xMidYMid meet">
<metadata>
Created by potrace 1.16, written by Peter Selinger 2001-2019
</metadata>
<g transform="translate(0.000000,1024.000000) scale(0.100000,-0.100000)"
fill="#000000" stroke="none">
<path d="M3272 9975 c-627 -48 -1169 -147 -1320 -242 -97 -61 -160 -140 -203
-252 -101 -267 -100 -1022 1 -1493 58 -267 172 -384 460 -471 63 -19 141 -40
172 -47 51 -12 59 -17 67 -44 15 -44 38 -250 51 -455 7 -95 18 -198 26 -228 8
-30 14 -55 14 -57 0 -2 -31 -15 -70 -30 -69 -27 -70 -28 -115 -10 -98 37 -251
-6 -319 -89 -69 -85 -79 -119 -86 -267 -6 -155 -3 -144 -137 -402 -178 -343
-211 -395 -289 -457 -39 -31 -85 -74 -102 -97 -63 -82 -78 -181 -42 -276 16
-43 18 -59 9 -91 -33 -123 64 -315 185 -367 24 -10 70 -21 102 -25 45 -6 66
-14 89 -36 47 -44 112 -69 181 -69 67 0 115 16 182 62 72 50 140 75 316 118
93 22 170 39 171 38 44 -66 72 -99 94 -115 48 -36 129 -73 193 -88 70 -16 242
-20 301 -6 37 9 39 8 32 -12 -17 -50 -17 -134 0 -168 19 -37 62 -78 83 -79 6
0 12 -5 12 -11 0 -9 -24 -10 -87 -5 -49 3 -174 9 -279 13 -227 7 -301 -3 -372
-52 -94 -64 -116 -124 -116 -310 1 -197 40 -316 122 -370 40 -26 229 -98 359
-136 53 -15 83 -29 83 -38 0 -8 -7 -37 -15 -65 -9 -28 -38 -131 -65 -228 -98
-352 -93 -340 -164 -405 -90 -82 -117 -128 -123 -206 -3 -37 -1 -79 6 -100 12
-35 11 -37 -24 -68 -74 -65 -96 -158 -66 -279 13 -54 12 -57 -34 -205 -25 -83
-66 -222 -90 -309 l-45 -159 -59 -62 c-71 -73 -98 -146 -86 -224 10 -66 10
-68 -21 -151 -25 -67 -28 -88 -28 -205 -1 -127 0 -131 27 -172 33 -48 149
-144 218 -178 56 -29 176 -50 227 -40 19 3 69 6 111 6 87 -1 381 25 457 40 29
5 64 21 83 37 66 57 65 206 -2 294 -18 22 -65 61 -107 86 -80 48 -174 123
-189 150 -6 11 -4 38 5 75 13 51 13 64 0 118 -9 33 -16 75 -16 92 0 38 139
455 174 524 14 29 44 63 73 85 70 53 107 124 106 204 0 34 -5 69 -11 79 -8 16
-1 27 43 69 80 77 93 148 54 306 l-21 86 27 100 c14 54 42 153 62 219 19 66
41 143 49 170 40 144 108 372 115 386 5 10 33 21 71 28 35 7 97 21 138 31 41
11 79 15 83 11 5 -5 23 -42 42 -82 18 -41 58 -129 89 -197 83 -180 216 -509
217 -535 0 -12 -3 -59 -7 -103 -9 -105 -1 -143 42 -199 33 -44 34 -46 18 -70
-9 -13 -18 -51 -21 -83 -5 -54 -2 -67 36 -149 l41 -90 0 -179 c0 -233 -12
-350 -39 -378 -41 -44 -62 -110 -59 -193 1 -60 -3 -92 -21 -138 -18 -48 -22
-76 -19 -140 3 -70 7 -86 33 -124 45 -67 96 -88 240 -101 95 -9 149 -21 260
-56 79 -26 175 -49 220 -54 44 -5 95 -13 112 -19 18 -5 74 -15 126 -21 114
-15 189 -3 250 38 23 16 65 41 92 55 79 40 178 119 198 157 24 47 18 134 -15
192 -31 56 -83 84 -211 114 -133 30 -511 159 -543 185 -7 5 -14 24 -18 42 -4
17 -18 50 -33 71 l-26 40 7 161 c4 88 13 212 20 275 11 109 14 118 49 163 49
64 63 117 47 182 -6 28 -11 93 -10 146 1 63 -3 107 -13 130 -9 24 -11 43 -5
64 12 42 3 116 -21 162 -22 43 -80 101 -129 129 -21 12 -44 38 -59 69 -34 66
-281 631 -285 650 -2 11 21 24 81 45 213 75 246 131 246 415 0 158 0 161 -30
220 -16 32 -46 72 -65 87 -68 54 -270 107 -406 108 -91 0 -136 -12 -295 -76
-62 -24 -113 -43 -115 -42 -1 2 -7 51 -12 108 -6 58 -17 123 -26 144 -10 24
-16 68 -16 116 0 52 -8 105 -24 160 l-23 82 21 8 c16 6 30 0 59 -24 171 -139
360 -245 475 -267 80 -15 184 -7 243 19 176 77 230 288 124 480 -23 42 -23 42
-3 53 11 6 21 9 23 7 1 -2 23 -61 48 -133 45 -130 340 -962 422 -1190 24 -66
70 -196 104 -290 l60 -170 -23 -25 c-13 -14 -32 -41 -41 -60 -10 -19 -37 -62
-60 -95 -89 -126 -135 -242 -135 -343 0 -101 37 -167 115 -203 81 -38 189 -14
236 52 13 19 38 74 54 123 36 106 55 124 90 83 33 -37 40 -85 26 -181 -6 -44
-11 -103 -11 -131 0 -58 29 -128 58 -144 33 -17 87 -13 115 10 37 28 48 80 46
211 -2 116 7 158 36 158 8 0 22 -15 32 -32 15 -28 18 -58 17 -198 0 -134 -5
-195 -28 -325 -29 -164 -30 -233 -6 -318 22 -76 95 -131 158 -119 36 7 88 67
101 117 15 61 13 262 -4 430 -28 268 -17 502 30 645 40 120 68 146 101 95 13
-21 15 -41 9 -129 -8 -115 1 -159 39 -195 53 -50 133 -42 173 17 32 48 38 109
24 257 -18 206 2 311 107 557 40 93 65 138 154 278 23 36 59 99 80 142 24 46
52 87 73 103 46 35 66 75 70 143 5 89 16 107 71 122 89 25 163 117 164 203 0
29 8 47 38 80 53 59 65 91 67 177 1 64 6 84 31 125 31 53 37 111 21 186 l-7
36 45 -7 c25 -4 56 -16 68 -28 13 -12 37 -26 54 -32 l31 -11 -23 -52 c-51
-116 -78 -219 -79 -307 -1 -82 1 -89 46 -185 81 -172 84 -227 29 -437 -70
-270 -79 -401 -31 -485 56 -101 186 -92 221 15 8 24 10 73 5 153 -7 118 1 162
29 173 19 7 52 -33 71 -84 27 -77 29 -189 4 -369 -36 -262 -19 -401 57 -461
33 -26 92 -26 125 0 59 46 77 151 53 309 -22 142 -17 203 29 316 53 130 56
178 16 295 -38 114 -43 189 -16 277 23 75 63 128 89 118 15 -6 17 -20 15 -119
-3 -128 8 -160 67 -196 48 -30 93 -21 134 25 52 60 65 166 36 303 -37 176 -22
320 49 469 49 102 69 128 121 153 24 12 58 37 75 56 24 28 30 44 30 82 0 85
-32 117 -291 297 -75 52 -139 95 -143 95 -3 0 -6 -26 -6 -57 l0 -58 73 -49
c130 -88 244 -178 257 -201 7 -13 10 -31 6 -40 -7 -19 -104 -65 -223 -105 -47
-16 -95 -36 -108 -44 -35 -23 -59 -84 -63 -161 -4 -79 -16 -121 -39 -129 -31
-12 -43 14 -43 89 0 64 -3 77 -26 104 -32 39 -45 39 -196 1 -143 -37 -178 -34
-178 11 0 16 10 49 21 72 23 45 97 144 123 166 24 20 20 28 -11 24 -16 -2 -89
5 -163 16 -154 23 -165 30 -156 99 7 56 22 82 46 82 38 0 285 -42 303 -52 26
-13 34 -2 14 20 -30 33 -78 150 -88 214 -12 80 -1 118 35 118 27 0 142 -59
247 -126 38 -24 72 -44 75 -44 3 0 4 25 3 56 -2 49 -6 58 -33 79 -54 40 -220
122 -263 130 -59 9 -124 -20 -146 -68 -20 -41 -22 -128 -6 -193 6 -25 9 -47 6
-50 -3 -4 -41 1 -83 10 -70 14 -80 14 -111 0 -30 -15 -43 -15 -156 1 -174 26
-160 15 -158 125 2 78 6 99 24 124 31 44 31 132 0 175 -20 26 -23 42 -23 128
0 270 -74 584 -196 824 -89 177 -159 280 -344 502 -236 283 -240 288 -240 330
0 42 -11 67 -46 110 -13 16 -24 37 -24 46 0 10 -19 39 -41 65 l-42 47 7 123
c6 103 4 130 -10 165 -20 52 -72 97 -126 112 -117 31 -220 -42 -266 -190 -25
-82 -22 -243 8 -341 12 -41 21 -92 21 -114 -1 -21 6 -61 15 -88 l16 -50 -50
-52 c-27 -28 -188 -211 -357 -406 -468 -541 -529 -610 -535 -610 -3 0 -11 15
-18 33 -7 18 -28 52 -47 74 l-34 41 14 68 c9 41 19 182 25 347 6 153 15 287
20 297 6 11 29 32 53 48 108 75 167 204 167 367 0 109 -29 197 -90 275 l-28
36 5 434 c8 596 -10 826 -74 956 -53 110 -155 193 -302 248 -147 55 -449 120
-733 157 -204 27 -614 33 -866 14z m847 -129 c364 -49 658 -118 784 -184 89
-46 159 -124 186 -206 12 -35 25 -117 31 -192 14 -165 17 -644 7 -919 l-8
-211 50 -68 c63 -85 76 -123 74 -218 -1 -94 -23 -163 -69 -217 -65 -76 -101
-83 -324 -67 -92 7 -109 5 -139 -11 -54 -28 -70 -59 -90 -174 -11 -59 -26
-120 -35 -136 -20 -39 -79 -63 -155 -63 l-58 0 -5 76 c-3 41 -10 80 -17 87 -8
8 -11 7 -11 -4 -1 -42 -22 -152 -32 -169 -23 -37 -75 -53 -175 -53 -117 -1
-128 7 -136 101 -3 37 -9 75 -13 85 -12 31 -27 12 -31 -39 -9 -135 -22 -149
-131 -148 -83 2 -144 21 -160 51 -6 10 -17 53 -26 95 -20 97 -28 117 -61 156
-36 43 -117 67 -199 59 -34 -3 -106 -20 -161 -38 -85 -28 -116 -32 -205 -33
-96 -1 -110 1 -156 26 -66 35 -154 132 -177 195 -44 124 -26 215 63 315 48 54
70 93 70 125 0 37 -178 -134 -216 -208 -35 -69 -38 -176 -6 -256 l20 -53 -21
0 c-39 0 -383 88 -446 114 -84 34 -155 88 -197 150 -94 138 -147 504 -147
1001 0 621 65 776 363 873 225 74 570 125 1180 176 114 9 671 -3 779 -18z
m2212 -1545 c23 -19 24 -24 24 -170 l0 -150 -42 -12 c-23 -6 -60 -27 -82 -45
-21 -19 -41 -34 -44 -34 -10 0 -27 128 -27 202 0 137 46 228 115 228 18 0 43
-9 56 -19z m103 -397 c10 -27 7 -32 -31 -39 -59 -11 -108 -41 -148 -90 -40
-49 -50 -53 -59 -29 -14 36 50 123 117 161 33 19 113 17 121 -3z m54 -107 c19
-19 7 -37 -24 -37 -52 0 -164 -82 -179 -131 -11 -35 -35 -14 -35 30 0 31 60
110 103 136 46 29 107 29 135 2z m38 -139 c39 -56 133 -170 248 -303 79 -92
182 -235 250 -347 99 -164 194 -425 230 -634 15 -89 41 -372 34 -379 -1 -1
-32 -4 -68 -6 l-65 -4 -6 140 c-10 205 -44 382 -110 572 -32 92 -139 307 -166
333 -8 8 2 -19 22 -60 135 -270 207 -548 222 -848 l6 -135 -39 7 c-101 17 -90
3 -98 134 -16 276 -83 541 -193 772 -45 93 -177 293 -306 463 -137 181 -157
210 -157 231 0 22 108 116 135 116 16 0 34 -15 61 -52z m-327 -58 c10 -29 5
-35 -161 -228 -94 -108 -250 -289 -346 -402 -97 -113 -239 -276 -317 -363 -77
-88 -153 -175 -170 -195 -78 -98 -179 -202 -193 -202 -60 1 -27 47 253 360 62
69 378 434 482 557 140 165 434 503 438 503 2 0 8 -14 14 -30z m110 -178 c31
-44 90 -124 131 -178 41 -55 102 -140 136 -191 68 -102 169 -291 160 -300 -3
-4 -16 -2 -29 4 -15 7 -28 28 -40 67 -28 87 -84 110 -124 50 -13 -21 -15 -44
-10 -147 7 -146 -3 -190 -45 -195 -20 -2 -31 4 -45 24 -21 32 -22 88 -9 359
10 182 5 219 -35 269 -27 35 -76 35 -113 1 -15 -14 -32 -25 -37 -25 -23 0 -42
77 -47 185 -4 102 -3 112 18 138 12 15 25 26 27 23 3 -3 31 -41 62 -84z
m-1483 19 c-4 -25 -13 -105 -21 -178 -16 -154 -28 -203 -61 -260 -24 -41 -96
-103 -121 -103 -19 0 -17 3 24 46 70 75 90 144 113 404 6 69 16 130 21 136 5
7 19 9 31 6 18 -4 20 -10 14 -51z m-2123 -10 c34 -32 85 -70 113 -84 l50 -25
12 -199 c11 -183 22 -262 51 -371 16 -57 30 -53 20 6 -5 26 -18 155 -29 287
-11 132 -23 247 -25 255 -4 13 8 15 77 11 45 -2 106 2 136 9 29 6 55 10 57 8
2 -2 13 -55 24 -118 11 -63 27 -135 36 -160 38 -108 128 -199 243 -246 108
-45 162 -26 192 66 20 60 29 64 121 56 80 -7 140 -24 153 -44 3 -6 9 -39 12
-74 8 -86 11 -93 29 -78 11 9 15 33 15 85 0 80 4 85 63 85 17 0 68 5 114 12
108 16 119 8 129 -100 6 -69 8 -74 21 -56 11 14 14 38 10 95 -4 66 -2 77 13
87 25 15 131 52 150 52 24 0 57 -40 65 -77 8 -40 28 -56 66 -55 59 2 140 72
178 156 23 50 36 118 56 311 8 76 19 142 23 146 4 4 36 4 72 0 l65 -6 -1 -40
c-3 -239 -18 -533 -29 -588 -23 -113 -68 -167 -184 -219 -111 -50 -382 -108
-681 -146 -191 -24 -703 -24 -842 1 -148 26 -354 82 -448 121 -169 71 -193
113 -210 363 -14 206 -38 417 -55 482 l-13 51 45 0 c41 0 50 -5 106 -59z m842
-51 c21 -22 32 -50 46 -116 11 -48 17 -90 14 -92 -6 -7 -34 17 -46 40 -5 10
-18 51 -29 91 -10 39 -21 80 -25 90 -11 26 8 20 40 -13z m2603 -83 c3 -96 29
-160 73 -182 39 -21 53 -19 80 10 31 32 57 32 71 -2 16 -38 15 -193 -2 -346
-18 -165 -8 -226 45 -274 59 -55 124 -42 160 33 15 31 17 59 14 172 -4 150 6
177 34 89 21 -67 50 -95 102 -99 l40 -3 28 -95 c43 -147 68 -291 75 -429 7
-118 6 -128 -15 -166 -26 -45 -29 -101 -10 -148 10 -22 12 -60 9 -120 -4 -75
-7 -87 -21 -83 -9 3 -63 12 -121 21 -58 9 -172 27 -255 40 -82 13 -213 34
-289 46 -117 18 -146 26 -179 50 -21 15 -55 33 -75 40 -20 7 -43 20 -49 30
-35 48 -96 82 -179 100 -62 13 -94 25 -123 48 -49 39 -311 310 -311 322 0 7
109 140 130 159 3 3 30 34 61 70 319 372 693 800 699 800 3 0 6 -37 8 -83z
m-1818 -307 c-26 -20 -50 -26 -50 -12 0 8 45 29 65 31 6 0 -1 -8 -15 -19z
m-712 -92 c-24 -66 -30 -72 -62 -64 l-26 6 27 55 c23 46 31 55 54 55 l27 0
-20 -52z m1434 -318 c10 -21 18 -55 18 -85 0 -49 -3 -54 -87 -153 -94 -111
-93 -110 -185 -91 -82 17 -81 16 -57 40 35 35 61 105 58 156 -3 45 -3 45 41
62 45 17 103 52 150 90 31 26 39 23 62 -19z m-2357 -45 c34 -20 109 -53 165
-74 80 -30 97 -40 78 -45 -51 -13 -96 -6 -128 20 -23 20 -34 24 -42 16 -21
-21 8 -60 69 -90 163 -80 278 -108 553 -132 215 -18 273 -34 378 -102 l63 -41
57 60 c31 34 71 67 87 76 24 11 139 51 242 82 8 3 10 -6 6 -29 -5 -33 26 -112
51 -128 6 -4 8 -9 5 -12 -8 -8 -159 -33 -249 -41 -41 -4 -90 -13 -110 -21 -43
-18 -330 -308 -354 -359 -19 -40 -16 -39 -81 -20 -54 17 -103 13 -164 -12 -48
-20 -76 -43 -116 -96 -42 -55 -63 -60 -196 -42 -164 22 -326 79 -408 146 -74
59 -116 184 -73 221 9 9 33 23 52 33 58 29 110 75 131 116 19 38 20 39 47 25
15 -7 72 -28 127 -45 55 -18 107 -35 115 -38 8 -2 -19 -15 -60 -27 -41 -12
-94 -32 -117 -44 l-42 -22 -12 21 c-6 12 -8 35 -5 50 5 27 4 29 -14 19 -56
-30 -26 -116 56 -162 102 -57 185 -71 429 -72 248 -1 330 12 373 60 29 34 30
101 1 138 -33 42 -67 54 -200 66 -168 16 -361 45 -461 70 -82 21 -198 67 -198
79 -1 3 -2 27 -4 54 -5 61 -47 147 -92 186 -20 18 -60 38 -95 48 -47 13 -63
22 -70 41 -11 29 -15 26 41 45 68 23 96 20 165 -18z m-341 -13 c16 -10 43 -37
60 -61 27 -37 41 -47 99 -66 113 -36 153 -93 145 -205 -6 -80 -37 -119 -138
-170 -82 -41 -122 -80 -178 -176 -123 -209 -223 -419 -276 -578 -5 -13 -12
-17 -29 -12 -150 43 -177 43 -261 -2 -53 -29 -101 -86 -111 -132 -6 -26 -9
-28 -43 -23 -25 3 -49 -2 -74 -15 -47 -25 -60 -13 -66 62 -5 67 21 121 80 168
129 101 170 163 379 575 l113 222 6 144 c5 133 8 147 33 190 57 96 172 131
261 79z m2366 -99 c0 -65 -57 -131 -117 -134 -38 -3 -303 33 -302 40 1 16 165
82 249 100 52 11 109 25 125 29 39 12 45 8 45 -35z m-870 -118 c-1 -35 -15
-114 -22 -121 -3 -2 -39 13 -79 35 -73 39 -81 42 -296 77 -23 3 -33 10 -33 23
0 17 13 18 215 17 l215 -1 0 -30z m1676 -389 c23 -15 68 -31 105 -37 57 -10
148 -53 136 -65 -2 -2 -49 2 -103 11 -181 28 -349 56 -349 58 -1 1 -37 45 -81
97 -44 52 -97 116 -118 142 l-38 47 44 51 43 51 160 -165 c88 -90 178 -176
201 -190z m-1003 237 c23 -34 66 -92 95 -128 28 -36 52 -67 52 -69 0 -1 -41 4
-91 12 l-92 15 -46 59 c-59 76 -121 170 -121 183 0 8 24 8 81 0 l80 -10 42
-62z m120 38 c43 -6 82 -11 87 -11 5 0 16 -15 25 -33 9 -19 47 -75 85 -125 39
-51 70 -94 70 -97 0 -5 -16 -3 -127 16 l-71 12 -56 81 c-31 45 -73 103 -93
130 -29 38 -33 47 -17 43 10 -3 54 -11 97 -16z m312 -56 c45 -13 59 -24 141
-122 116 -139 115 -137 73 -130 -19 3 -74 12 -123 19 l-89 13 -35 55 c-19 30
-57 85 -83 121 -27 37 -49 69 -49 71 0 7 107 -10 165 -27z m-683 -134 c68 -26
21 -110 -72 -130 -68 -15 -80 -14 -80 4 0 24 -35 87 -60 110 l-22 20 33 6 c45
8 170 2 201 -10z m-256 -38 c27 -32 59 -101 51 -110 -9 -8 -299 -74 -304 -69
-5 4 113 133 155 169 52 44 67 46 98 10z m-476 -22 c25 -11 36 -24 38 -42 4
-36 -14 -47 -94 -59 -111 -16 -104 -20 -104 60 l0 71 63 -7 c34 -3 78 -13 97
-23z m3490 2 c14 -3 86 -9 160 -12 l135 -6 3 -28 c2 -16 -5 -39 -17 -56 -12
-16 -21 -41 -21 -56 0 -26 -2 -27 -40 -21 -37 6 -152 49 -251 94 -47 22 -66
52 -53 86 6 16 12 16 84 -1z m-2184 -82 c230 -34 523 -77 649 -96 247 -37 572
-85 1160 -170 1024 -148 993 -143 986 -166 -2 -8 -6 -29 -9 -47 -4 -29 -7 -33
-27 -28 -21 5 -191 32 -465 72 -76 11 -115 22 -140 39 -19 13 -48 29 -63 34
-38 15 -123 14 -164 -1 -35 -13 -32 -13 -315 31 -70 11 -369 56 -665 101 -296
44 -551 82 -568 85 -16 3 -118 19 -225 35 -315 48 -362 57 -429 85 -37 15 -93
29 -132 32 l-68 6 20 29 c11 15 24 26 28 24 4 -3 196 -32 427 -65z m2249 -91
c55 -21 93 -41 85 -44 -17 -6 -174 -26 -202 -26 -15 0 -18 8 -18 61 0 54 2 60
18 54 9 -4 62 -24 117 -45z m-2555 -9 c34 -19 40 -30 40 -77 0 -48 -23 -73
-90 -98 -42 -16 -211 -47 -218 -41 -2 2 1 20 7 42 16 57 13 85 -14 139 -14 27
-25 51 -25 53 0 10 278 -6 300 -18z m-352 -25 c38 -44 46 -80 29 -137 -13 -43
-13 -49 9 -90 29 -55 30 -112 4 -181 -11 -32 -19 -75 -18 -108 2 -92 -49 -170
-111 -170 -56 1 -281 46 -336 68 -47 18 -50 22 -70 82 -11 34 -36 80 -55 102
-32 40 -33 42 -22 85 13 48 15 147 3 178 -11 28 14 97 47 128 27 25 34 27 312
70 14 3 59 5 101 6 76 1 77 0 107 -33z m-1758 3 c0 -6 14 -31 30 -56 l31 -45
-25 -32 c-35 -46 -56 -101 -70 -181 l-12 -69 -88 -24 c-48 -13 -90 -21 -94
-18 -7 8 208 436 219 436 5 0 9 -5 9 -11z m2364 -31 c50 -6 95 -14 99 -18 5
-4 -7 -16 -25 -27 -18 -11 -70 -52 -115 -92 -80 -69 -83 -71 -123 -65 -51 8
-57 17 -24 38 39 27 64 75 64 129 0 54 -8 52 124 35z m2489 -60 c-3 -29 -7
-54 -8 -56 -3 -3 -191 22 -279 37 -71 12 -52 28 41 35 48 4 115 13 148 20 106
24 105 24 98 -36z m-2221 17 c96 -15 117 -20 107 -28 -36 -29 -174 -130 -204
-150 l-41 -27 -94 16 c-52 8 -96 17 -99 19 -2 3 15 22 40 42 24 21 69 61 99
90 30 29 63 53 73 53 9 0 63 -7 119 -15z m348 -65 c47 -6 114 -16 149 -22 l64
-11 -36 -32 c-42 -39 -62 -76 -72 -132 -8 -48 -8 -48 -56 -32 -50 17 -74 44
-98 107 -11 32 -36 74 -54 94 -37 41 -38 47 -4 42 12 -2 60 -8 107 -14z
m-1899 -13 c52 -35 64 -82 44 -176 -8 -41 -20 -78 -25 -81 -5 -3 6 -18 24 -32
43 -34 66 -84 66 -142 0 -36 -6 -52 -31 -80 -41 -48 -82 -58 -183 -45 -44 6
-97 8 -117 5 -20 -3 -137 -44 -260 -90 -246 -91 -377 -133 -544 -171 -261 -60
-326 -84 -439 -162 -47 -32 -56 -35 -109 -31 -46 3 -63 10 -86 32 -39 37 -53
74 -49 127 l3 44 71 -3 c77 -4 115 7 194 58 41 26 60 31 170 40 287 25 584
104 860 228 106 48 132 56 177 54 129 -5 8 36 -132 45 -92 6 -243 -14 -441
-57 -246 -55 -478 -145 -621 -241 -95 -63 -131 -79 -181 -79 -48 0 -96 31
-136 88 -41 58 -49 154 -16 206 48 79 107 97 225 66 55 -14 94 -18 125 -14
100 14 935 221 1042 258 59 21 83 35 123 78 28 28 65 62 84 75 46 31 116 31
162 0z m-801 -42 c58 -24 103 -48 101 -52 -2 -4 -17 -16 -33 -25 -28 -18 -29
-18 -40 7 -21 47 -44 29 -39 -31 1 -19 -9 -24 -83 -43 -107 -26 -106 -27 -106
7 0 49 19 98 56 140 19 23 36 42 37 42 1 0 49 -20 107 -45z m3208 -20 c86 -13
243 -38 347 -54 133 -21 207 -37 248 -55 32 -14 66 -26 77 -26 25 0 25 -10 1
-52 -11 -18 -25 -55 -31 -83 -7 -27 -14 -56 -16 -63 -2 -8 -28 6 -73 40 -202
154 -409 243 -614 263 -51 5 -75 13 -95 31 -15 13 -21 24 -14 24 7 0 83 -11
170 -25z m-706 -22 c14 -16 39 -58 56 -94 41 -91 128 -159 204 -159 22 0 40
-10 67 -38 49 -50 96 -71 184 -81 62 -7 108 -25 327 -125 219 -100 261 -122
305 -165 54 -53 117 -91 150 -91 12 0 34 -14 51 -31 16 -17 43 -39 61 -50 38
-24 35 -48 -12 -99 -47 -50 -55 -71 -55 -138 0 -56 -5 -69 -64 -174 -118 -208
-300 -398 -521 -542 -214 -141 -285 -186 -293 -186 -5 0 -13 15 -19 33 -6 17
-41 115 -78 217 -36 102 -82 230 -101 285 -19 55 -48 136 -64 180 -26 71 -89
251 -280 795 -32 91 -74 209 -93 263 l-35 97 86 65 c47 36 88 65 92 65 3 0 18
-12 32 -27z m518 2 c13 -14 29 -25 36 -25 7 0 47 -30 89 -67 131 -119 348
-224 577 -282 139 -35 151 -46 113 -116 -18 -34 -25 -63 -25 -102 0 -53 0 -53
-22 -42 -13 6 -46 34 -75 61 -38 35 -92 67 -198 118 -81 39 -149 70 -151 70
-3 0 -58 24 -122 54 -121 56 -145 63 -224 70 -94 9 -141 54 -142 136 -1 55 20
91 74 128 41 27 41 27 70 -3z m-1257 -55 c35 -10 37 -13 37 -53 0 -80 -46
-114 -166 -124 -74 -6 -77 -5 -69 13 21 49 33 117 28 150 l-6 37 69 -6 c38 -3
86 -11 107 -17z m247 -41 c41 -6 81 -16 88 -21 32 -27 3 -77 -64 -112 -34 -17
-172 -37 -179 -26 -2 4 5 25 16 47 11 22 20 61 21 86 0 42 3 46 22 42 11 -2
55 -9 96 -16z m2205 1 c23 -11 54 -33 70 -50 l29 -30 -28 0 c-44 0 -93 -28
-135 -78 -26 -30 -44 -43 -54 -39 -24 9 -47 62 -49 113 -2 41 1 50 30 75 39
35 78 37 137 9z m-863 -20 c51 -17 122 -47 158 -67 80 -43 202 -124 197 -129
-15 -16 -301 110 -409 180 -89 57 -80 59 54 16z m-1021 -295 c55 -154 126
-356 159 -450 71 -206 219 -620 329 -924 45 -123 81 -231 81 -240 0 -15 -38
-57 -44 -49 -2 2 -35 93 -74 203 -39 110 -118 335 -177 500 -58 165 -128 361
-155 435 -27 74 -74 207 -104 295 -30 88 -82 238 -115 333 -34 95 -61 175 -61
178 0 3 14 4 31 2 l31 -3 99 -280z m2100 245 c5 0 9 -4 9 -10 0 -5 -11 -10
-25 -10 -16 0 -25 6 -25 16 0 11 5 14 16 10 9 -3 20 -6 25 -6z m-431 -25 c0
-40 28 -97 66 -136 30 -31 33 -39 25 -61 -18 -46 -100 -62 -145 -27 -23 18
-26 28 -26 77 0 35 8 74 21 101 33 74 59 94 59 46z m678 -46 c28 -28 32 -38
32 -86 0 -68 -11 -88 -59 -112 l-38 -20 5 67 c4 59 1 75 -22 119 l-26 52 33 4
c17 2 35 5 38 5 3 1 20 -12 37 -29z m-362 13 c16 -10 36 -104 38 -177 1 -76
-18 -105 -71 -105 -39 0 -63 21 -94 82 -31 61 -31 119 1 153 39 43 99 65 126
47z m240 -47 c26 -40 34 -92 20 -138 -10 -38 -15 -42 -46 -45 -18 -2 -48 -1
-65 2 -32 6 -32 7 -38 79 -4 39 -8 81 -9 92 -2 14 5 21 27 26 64 14 94 10 111
-16z m-2841 -47 c-19 -62 -89 -121 -156 -132 -23 -4 -43 -5 -46 -3 -2 2 8 28
22 58 14 30 25 62 25 71 0 14 12 18 63 21 34 2 70 4 80 5 15 2 17 -3 12 -20z
m3403 0 c37 -3 39 -10 12 -48 -71 -99 -63 -223 15 -256 49 -20 107 -17 233 11
61 14 118 25 126 25 13 0 16 -12 16 -55 0 -60 19 -109 45 -119 9 -3 31 -6 48
-6 62 1 93 46 102 153 7 68 10 80 34 96 29 21 175 75 169 64 -1 -5 -17 -37
-35 -73 -71 -146 -94 -338 -58 -505 19 -92 19 -165 -1 -216 -19 -45 -53 -66
-84 -49 -36 19 -42 46 -34 153 6 101 6 103 -21 135 -63 75 -152 20 -193 -119
-31 -103 -29 -178 8 -292 17 -52 30 -112 30 -135 0 -22 -16 -80 -35 -130 -36
-94 -54 -179 -49 -234 2 -18 9 -75 15 -126 13 -102 7 -188 -17 -233 -13 -25
-20 -30 -46 -27 -88 9 -104 150 -53 468 20 129 19 202 -5 296 -30 118 -87 177
-154 160 -15 -4 -36 -21 -47 -39 -18 -29 -20 -46 -17 -178 3 -134 1 -149 -16
-168 -27 -30 -73 -25 -100 12 -18 25 -21 42 -21 135 1 90 7 132 39 262 43 174
56 309 37 387 -7 26 -33 92 -58 147 -45 97 -46 99 -40 180 3 47 18 121 36 176
47 153 51 161 70 156 9 -3 31 -7 49 -8z m-3147 -33 c67 -35 118 -151 105 -238
-19 -129 -155 -194 -315 -152 -82 21 -124 42 -235 119 -82 56 -86 61 -60 64
85 8 164 26 202 47 l42 24 53 -24 c57 -27 141 -33 168 -12 20 15 40 52 33 60
-3 3 -22 -1 -41 -10 -37 -15 -52 -8 -53 23 0 6 -13 30 -30 52 -16 23 -30 46
-30 52 0 16 127 12 161 -5z m-1712 -29 c-11 -10 -252 -90 -351 -116 -111 -29
-316 -66 -324 -58 -14 14 337 124 486 152 165 31 204 36 189 22z m-1309 -141
c6 -31 27 -78 46 -107 34 -49 35 -54 24 -97 -6 -25 -9 -57 -8 -71 3 -23 0 -25
-30 -22 -82 8 -147 64 -177 151 -38 112 6 199 102 201 30 0 32 -2 43 -55z
m2083 33 c20 -7 37 -18 37 -25 0 -21 -194 -194 -290 -258 -175 -117 -273 -150
-440 -149 -94 0 -125 5 -173 23 -65 26 -172 116 -147 125 154 53 264 79 345
81 102 4 168 23 280 84 56 30 83 39 122 39 61 0 127 28 168 71 17 19 36 30 45
27 8 -3 32 -11 53 -18z m3030 -18 c-27 -112 -63 -234 -71 -242 -13 -13 -70 38
-87 79 -17 41 -19 103 -5 153 l10 35 79 0 80 0 -6 -25z m426 -32 c22 -8 23
-12 18 -67 -6 -74 -30 -121 -60 -121 -64 0 -197 64 -197 94 0 8 -3 21 -6 30
-5 13 2 16 39 16 36 0 54 7 89 34 44 35 57 36 117 14z m169 -17 c5 -52 -24
-117 -62 -141 -46 -28 -71 -27 -61 3 14 41 17 115 6 136 -11 19 -9 21 16 22
15 0 37 4 48 9 35 15 50 7 53 -29z m-495 -25 c-3 -24 0 -53 7 -65 10 -19 9
-26 -8 -44 -11 -12 -27 -37 -36 -54 -17 -34 -36 -44 -36 -20 0 8 14 56 30 107
17 51 30 99 30 107 0 7 4 13 9 13 5 0 6 -20 4 -44z m-3029 -103 c10 -37 18
-142 11 -162 -8 -27 -60 -49 -155 -67 -84 -15 -246 -19 -254 -5 -3 5 29 31 72
59 42 28 113 83 157 121 72 63 84 71 122 71 31 0 43 -4 47 -17z m3122 -61 c12
-11 57 -28 113 -42 43 -11 43 -12 38 -50 -3 -22 -15 -53 -26 -69 -19 -26 -26
-29 -54 -24 -39 7 -62 18 -104 51 -28 20 -33 31 -33 65 0 56 37 94 66 69z
m294 -80 c0 -25 -7 -46 -21 -61 -23 -24 -77 -51 -104 -51 -14 0 -13 3 2 26 9
15 18 45 19 68 2 40 2 41 45 47 24 3 47 7 52 7 4 1 7 -15 7 -36z m-463 0 c6
-4 15 -21 19 -37 12 -50 96 -122 167 -144 55 -17 62 -21 59 -42 -6 -37 -16
-42 -76 -35 -46 6 -73 18 -146 68 -50 34 -90 67 -90 75 0 8 5 11 10 8 6 -3 10
4 10 17 0 31 19 98 28 98 4 0 12 -4 19 -8z m-2908 -177 c5 -22 11 -69 12 -105
3 -61 1 -66 -23 -78 -41 -19 -182 -35 -284 -30 -51 2 -95 6 -98 9 -10 10 -48
208 -43 222 4 11 37 16 144 19 100 4 153 11 193 25 55 19 55 19 72 -2 9 -11
21 -38 27 -60z m2875 -43 c71 -45 120 -63 196 -71 42 -5 56 -10 58 -24 6 -32
-8 -67 -31 -78 -31 -14 -130 12 -222 58 -85 42 -105 59 -105 87 0 21 25 66 37
66 3 0 33 -17 67 -38z m-3360 -58 c10 -78 8 -94 -13 -94 -24 0 -61 45 -61 74
0 29 27 66 49 66 14 0 20 -11 25 -46z m3308 -96 c29 -17 55 -33 57 -34 7 -6
-72 -148 -138 -249 -42 -65 -110 -145 -191 -229 -147 -152 -126 -151 31 2 127
122 182 193 275 350 41 68 72 111 80 108 6 -2 30 -10 53 -17 23 -7 41 -16 41
-21 0 -19 -72 -150 -131 -238 -76 -114 -244 -290 -356 -374 -99 -74 -188 -127
-388 -231 -82 -42 -168 -90 -190 -105 l-41 -28 -26 19 c-36 27 -66 77 -70 119
l-3 35 217 145 c119 80 245 168 281 197 148 121 301 311 394 490 26 51 49 93
50 93 2 0 26 -14 55 -32z m-2103 -9 c192 -45 214 -73 214 -279 0 -211 -20
-245 -174 -298 -140 -48 -1279 -288 -1421 -299 l-76 -6 -22 42 c-30 60 -46
199 -33 293 6 40 9 75 7 77 -2 2 -11 -12 -19 -32 -34 -81 -28 -253 10 -330 8
-16 15 -32 15 -34 0 -20 -351 101 -447 155 -47 26 -86 230 -68 367 6 48 13 65
39 91 47 47 96 56 270 53 263 -6 450 -4 492 3 l42 8 11 -44 c13 -55 38 -84 76
-91 28 -5 28 -5 8 6 -19 10 -23 21 -23 58 0 25 -5 79 -10 120 -11 86 -7 93 49
80 84 -20 249 -1 321 36 18 9 34 14 37 11 3 -2 13 -61 22 -131 16 -115 16
-127 2 -134 -14 -8 -200 -40 -316 -55 -22 -3 -73 -10 -114 -16 -41 -5 -129
-14 -196 -20 -151 -14 -192 -8 -418 67 -93 30 -171 52 -174 49 -8 -8 -12 -6
110 -60 149 -66 271 -106 343 -113 64 -6 210 5 504 38 243 27 670 128 865 206
141 56 181 88 65 52 -70 -22 -246 -65 -430 -105 -63 -13 -126 -27 -140 -30
l-25 -5 0 80 -1 81 46 17 c25 9 97 36 160 61 63 24 133 47 155 52 51 11 138 4
244 -21z m2056 -696 c-17 -43 -42 -121 -55 -173 -21 -88 -22 -109 -15 -287 5
-160 4 -196 -9 -220 -31 -61 -70 -66 -104 -15 -14 21 -17 50 -17 159 0 130 0
133 -27 159 -31 32 -74 36 -112 11 -59 -39 -101 -180 -117 -393 -11 -142 -8
-226 22 -564 13 -140 8 -227 -16 -283 -30 -73 -96 -72 -131 2 -30 62 -29 168
1 341 37 209 43 374 20 471 -28 112 -83 155 -144 113 -40 -29 -51 -73 -51
-209 0 -70 -5 -135 -10 -146 -14 -26 -66 -26 -80 1 -6 12 -9 85 -8 193 3 171
3 174 -23 213 l-25 39 23 34 c13 19 33 39 46 45 12 7 33 28 46 48 19 30 56 54
207 132 302 158 405 224 539 349 33 31 63 56 67 57 3 0 -9 -35 -27 -77z
m-2185 -35 c0 -15 236 -558 303 -697 34 -71 48 -87 128 -141 59 -41 83 -79 77
-126 l-3 -28 -82 0 c-66 -1 -87 -5 -109 -22 -42 -31 -62 -63 -77 -124 -12 -46
-19 -58 -48 -73 -69 -36 -185 7 -208 76 -9 25 -9 53 -1 98 5 35 10 81 10 102
0 34 -42 157 -91 264 -10 24 -19 46 -19 49 0 6 -72 171 -141 322 -16 35 -29
65 -29 67 0 2 -16 37 -35 78 -19 41 -35 78 -35 84 0 6 18 15 40 21 l40 10 40
-77 c50 -94 204 -424 255 -548 64 -153 53 -100 -23 112 -50 141 -71 188 -160
369 -40 82 -71 150 -70 151 7 7 224 52 231 48 4 -2 7 -9 7 -15z m1180 -190 c1
-49 32 -108 78 -150 48 -44 52 -55 17 -64 -59 -15 -145 89 -145 176 0 29 6 47
18 56 26 20 32 17 32 -18z m-2076 -5 c-4 -16 -27 -93 -51 -173 -93 -305 -183
-653 -183 -704 1 -28 7 -78 15 -111 8 -33 15 -81 15 -107 0 -43 -4 -52 -40
-88 -22 -22 -44 -40 -50 -40 -5 0 -10 21 -10 48 0 113 -118 193 -255 172 -57
-9 -94 -35 -120 -86 -11 -21 -21 -41 -22 -43 -6 -9 -56 33 -73 62 -24 38 -26
106 -5 146 8 16 44 54 79 86 52 45 70 68 86 113 23 60 145 484 177 612 16 63
23 76 42 78 47 7 49 0 30 -95 -26 -131 -101 -415 -147 -553 -2 -8 3 -6 11 6
32 42 148 418 171 552 8 46 16 85 18 88 3 2 67 16 144 30 76 14 141 27 143 30
2 2 10 4 18 4 10 0 12 -8 7 -27z m2015 -177 c12 -19 38 -45 57 -57 28 -17 32
-24 23 -35 -6 -8 -25 -14 -42 -14 -40 0 -87 51 -112 122 -18 54 -18 57 0 84
l18 27 17 -46 c10 -25 27 -62 39 -81z m-99 -67 c14 -22 40 -52 58 -66 26 -19
31 -28 22 -38 -7 -8 -26 -58 -43 -112 -31 -95 -33 -98 -70 -110 -32 -11 -43
-10 -67 2 -37 19 -50 43 -50 94 0 65 88 271 115 271 6 0 21 -19 35 -41z m-528
-630 c37 -20 47 -136 17 -203 -17 -37 -68 -66 -118 -66 -34 0 -49 6 -73 31
-29 29 -30 33 -26 97 6 82 29 129 71 148 33 14 95 11 129 -7z m-1819 -205 c64
-32 79 -75 57 -156 -13 -47 -59 -93 -101 -102 -41 -8 -108 10 -137 37 -53 49
-49 151 8 209 25 24 36 28 85 28 31 0 70 -7 88 -16z m1557 -10 c0 -29 40 -81
74 -98 51 -24 156 -22 190 5 30 24 46 18 46 -17 0 -32 -15 -61 -52 -100 -27
-28 -31 -43 -43 -140 -7 -60 -19 -205 -25 -322 l-13 -214 32 -44 c22 -32 31
-56 31 -84 0 -37 -3 -40 -46 -60 -26 -11 -48 -20 -50 -20 -1 0 -3 21 -3 48 0
26 -5 63 -11 82 -5 19 -10 78 -10 130 0 117 35 436 55 510 15 53 12 150 -4
150 -3 0 -11 -19 -18 -42 -6 -24 -22 -74 -36 -113 -43 -118 -61 -446 -37 -658
9 -79 8 -91 -9 -126 -35 -68 -131 -91 -216 -52 -97 45 -114 111 -53 202 20 30
39 65 42 79 3 14 10 115 16 226 12 247 3 336 -45 446 -40 90 -38 132 5 178 22
24 37 30 72 31 23 0 52 4 63 9 31 13 45 11 45 -6z m-1847 -111 c4 -2 7 -13 7
-24 0 -29 28 -90 53 -118 35 -37 95 -61 160 -61 63 0 99 14 136 54 30 32 35
32 49 1 30 -65 9 -118 -73 -189 -72 -62 -98 -116 -194 -410 -84 -255 -89 -283
-67 -359 9 -30 16 -66 16 -80 0 -26 -34 -77 -52 -77 -5 0 -40 14 -78 30 -76
33 -148 39 -212 16 -43 -15 -48 -13 -48 26 0 48 28 99 89 163 118 122 233 429
235 625 l1 85 -49 78 c-27 42 -53 77 -58 77 -12 0 0 -45 27 -107 l23 -52 -23
-30 c-60 -82 -148 -378 -162 -544 -6 -66 -8 -72 -54 -119 -63 -65 -85 -122
-71 -180 13 -51 9 -58 -29 -58 -64 0 -99 45 -99 126 0 45 3 51 63 108 62 60
63 62 96 176 18 63 62 210 98 327 36 116 65 229 65 250 1 21 -5 67 -12 103
-11 56 -11 70 3 102 21 50 70 80 117 72 19 -4 38 -9 43 -11z m-53 -516 c-21
-91 -94 -303 -98 -283 -5 22 16 99 65 251 37 111 55 129 33 32z m2365 -539
c77 -27 179 -63 228 -80 48 -16 87 -34 87 -40 0 -6 -9 -8 -20 -5 -36 9 -104
-12 -130 -42 -20 -22 -36 -29 -77 -33 -93 -9 -169 -96 -161 -186 l3 -37 -40 4
c-39 3 -204 54 -276 85 -44 18 -69 75 -69 156 0 66 22 107 78 147 57 42 194
95 222 86 8 -3 78 -27 155 -55z m-530 -81 c60 -2 64 -3 57 -22 -10 -27 -9
-165 1 -192 8 -22 6 -23 -51 -23 -92 0 -163 17 -192 45 -21 21 -25 34 -24 83
0 31 8 80 18 109 l17 51 55 -25 c38 -17 74 -25 119 -26z m1010 -62 c72 -19 82
-27 97 -76 9 -31 8 -44 -2 -64 -18 -34 -27 -31 -34 10 -10 52 -49 92 -117 116
-32 12 -59 23 -59 25 0 9 60 3 115 -11z m-92 -65 c61 -23 82 -42 92 -82 11
-42 -1 -71 -35 -91 -37 -22 -50 -15 -50 25 0 23 -11 42 -43 73 -35 36 -53 46
-105 56 -34 7 -62 16 -62 21 0 33 111 32 203 -2z m-2785 -24 c31 -13 75 -27
97 -31 32 -6 56 -23 118 -83 42 -42 77 -80 77 -84 0 -5 -8 -8 -19 -8 -10 0
-30 -9 -45 -21 -25 -20 -28 -20 -67 -5 -21 9 -53 16 -70 16 -36 0 -97 -24
-124 -50 -21 -20 -21 -20 -60 0 -48 25 -88 25 -140 1 -52 -24 -74 -50 -95
-110 l-16 -49 -52 48 c-51 47 -52 50 -52 103 0 59 21 184 39 231 9 23 15 27
34 22 63 -19 97 -18 173 7 133 43 130 43 202 13z m2542 -27 c156 -43 187 -66
193 -144 2 -26 -4 -33 -38 -50 -49 -24 -128 -24 -235 2 l-75 18 -3 49 c-4 58
11 99 46 126 30 24 22 24 112 -1z m-2133 -240 c67 -32 93 -70 93 -135 0 -68
-18 -81 -115 -86 l-70 -3 -6 61 c-5 59 -39 134 -60 134 -21 0 -7 29 19 38 44
17 93 13 139 -9z m-241 -38 c65 -47 77 -66 82 -130 2 -32 0 -61 -5 -64 -5 -3
-56 -7 -114 -8 l-104 -2 -5 59 c-3 33 -13 73 -23 91 -9 18 -17 34 -17 37 0 3
17 14 38 25 54 29 101 27 148 -8z m-277 -20 c46 -33 65 -68 69 -131 l4 -60
-49 0 c-66 0 -163 18 -190 36 -17 11 -23 24 -23 50 0 52 24 89 72 113 47 23
77 21 117 -8z"/>
<path d="M3955 9709 c-384 -21 -766 -86 -900 -152 -46 -22 -108 -67 -102 -73
2 -2 24 7 48 20 182 101 790 176 1423 176 166 0 276 4 270 9 -28 27 -425 38
-739 20z"/>
<path d="M2066 9571 c11 -5 96 -19 189 -31 186 -24 255 -40 330 -74 72 -33
119 -77 146 -138 22 -52 23 -62 26 -412 2 -336 12 -492 43 -723 5 -40 7 -80 4
-88 -4 -8 -1 -15 5 -15 14 0 14 167 1 400 -5 91 -10 282 -11 425 -1 291 -8
357 -46 427 -60 111 -161 169 -359 208 -105 21 -365 38 -328 21z"/>
<path d="M4538 9074 c-45 -14 -88 -53 -88 -80 0 -25 39 -37 85 -25 115 29 237
2 318 -69 58 -51 72 -52 52 -2 -33 79 -132 155 -234 178 -68 16 -74 16 -133
-2z"/>
<path d="M3490 9046 c-67 -18 -178 -83 -226 -133 -42 -43 -91 -129 -81 -140 4
-3 28 14 54 37 117 103 235 149 347 135 123 -14 131 -13 134 19 5 40 -29 72
-90 85 -60 13 -81 13 -138 -3z"/>
<path d="M4522 8704 c-61 -30 -101 -75 -142 -159 -80 -161 -79 -449 0 -606 12
-23 45 -66 74 -94 61 -62 113 -79 215 -73 62 3 76 8 127 43 71 49 113 110 145
206 21 65 24 92 24 224 0 162 -16 238 -70 331 -30 51 -103 119 -151 139 -59
25 -160 20 -222 -11z m214 -49 c112 -56 170 -175 181 -372 10 -181 -28 -305
-119 -392 -36 -36 -124 -78 -136 -67 -2 3 11 18 30 35 169 148 170 595 3 780
-43 48 -31 52 41 16z"/>
<path d="M3448 8671 c-188 -76 -289 -250 -290 -501 0 -214 86 -378 241 -456
50 -26 66 -29 151 -29 86 0 101 3 154 30 145 74 225 237 226 458 0 229 -81
405 -222 482 -70 38 -188 45 -260 16z m228 -60 c65 -29 108 -75 142 -148 85
-184 80 -435 -10 -576 -38 -59 -115 -122 -166 -137 -57 -15 -59 -13 -16 24 56
48 89 99 116 181 20 60 23 90 23 210 -1 207 -39 327 -137 424 -38 38 -39 41
-17 41 13 0 42 -9 65 -19z"/>
<path d="M4122 7915 c-47 -53 -78 -112 -111 -211 -36 -108 -39 -156 -11 -184
31 -31 74 -26 119 15 42 38 62 43 82 19 17 -21 64 -44 89 -44 12 0 35 14 52
30 29 29 30 34 26 94 -3 48 -13 83 -42 141 -42 86 -121 175 -153 175 -12 0
-35 -16 -51 -35z m98 -52 c37 -46 83 -140 99 -207 10 -41 9 -52 -4 -72 -8 -13
-24 -24 -34 -24 -16 0 -18 5 -12 28 14 50 -23 165 -79 248 -28 42 -32 64 -10
64 5 0 23 -17 40 -37z"/>
<path d="M6431 6313 c-48 -24 -71 -67 -71 -135 0 -46 5 -62 25 -86 70 -83 185
-57 216 48 18 59 4 109 -42 152 -45 43 -74 47 -128 21z m86 -48 c26 -19 47
-77 38 -107 -12 -38 -46 -68 -77 -68 -21 0 -33 8 -48 33 -29 47 -26 93 9 128
33 33 47 35 78 14z"/>
<path d="M2142 6233 c6 -21 8 -56 4 -79 -7 -56 -71 -201 -160 -364 -91 -166
-168 -321 -164 -326 10 -10 252 413 285 500 9 23 19 46 24 51 13 18 39 118 39
149 0 40 -19 106 -30 106 -4 0 -4 -17 2 -37z"/>
<path d="M7936 4705 c5 -11 10 -51 11 -90 1 -38 2 -80 2 -92 2 -61 92 -86 130
-37 17 21 21 41 21 96 0 77 -14 84 -25 12 -10 -72 -24 -95 -54 -92 -23 3 -26
8 -29 43 -5 78 -23 143 -44 161 -21 19 -21 19 -12 -1z"/>
<path d="M8156 5566 c30 -30 34 -40 34 -89 0 -73 25 -107 80 -107 21 0 42 5
45 10 3 6 20 17 36 25 27 14 33 14 65 -1 46 -22 52 -13 14 20 -38 32 -81 34
-122 5 -24 -18 -34 -20 -54 -10 -20 9 -24 18 -24 51 0 66 -45 130 -91 130 -13
0 -8 -9 17 -34z"/>
<path d="M8310 5233 c-8 -3 -34 -23 -57 -46 -36 -34 -46 -39 -73 -33 -26 5
-31 3 -28 -12 2 -12 15 -18 45 -20 36 -3 47 2 83 34 l42 38 60 -16 c68 -19 94
-12 133 33 20 22 20 22 0 15 -69 -27 -72 -27 -124 -6 -55 21 -57 22 -81 13z"/>
<path d="M8456 3850 c-35 -42 -36 -107 -2 -147 19 -22 32 -28 65 -28 83 0 127
93 79 165 -20 30 -30 35 -70 38 -40 3 -48 0 -72 -28z m102 -32 c19 -19 14 -63
-8 -83 -44 -39 -104 32 -65 75 20 22 55 26 73 8z"/>
<path d="M7720 3468 c-54 -58 -99 -306 -70 -392 25 -76 112 -102 162 -48 45
47 52 72 51 167 0 135 -60 295 -109 295 -7 0 -23 -10 -34 -22z m63 -99 c12
-34 21 -92 24 -154 4 -88 2 -104 -16 -132 -12 -20 -29 -33 -41 -33 -31 0 -60
56 -60 115 0 77 46 268 63 262 6 -2 19 -28 30 -58z"/>
<path d="M8077 2803 c-45 -7 -103 -72 -111 -124 -26 -178 179 -263 262 -108
62 115 -26 249 -151 232z m84 -82 c23 -23 29 -38 29 -71 0 -51 -13 -76 -48
-94 -62 -32 -122 13 -122 91 0 36 6 50 29 74 18 17 40 29 56 29 16 0 38 -12
56 -29z"/>
<path d="M6466 2521 c-40 -27 -55 -57 -56 -114 0 -86 53 -147 127 -147 78 1
128 55 128 140 0 59 -23 102 -68 127 -33 19 -98 15 -131 -6z m121 -53 c17 -16
23 -33 23 -64 0 -48 -22 -80 -62 -90 -22 -5 -33 0 -58 24 -78 79 16 206 97
130z"/>
<path d="M6083 1700 c-103 -62 -82 -242 33 -280 44 -15 91 0 129 40 24 26 30
40 33 93 4 75 -18 123 -69 149 -44 23 -86 23 -126 -2z m98 -40 c49 -27 63
-127 23 -171 -46 -51 -134 2 -134 81 0 27 8 48 26 69 27 32 52 38 85 21z"/>
</g>
</svg>
