<?xml version="1.0" encoding="UTF-8" standalone="yes"?>
<svg version="1.0" xmlns="http://www.w3.org/2000/svg" width="1024.000000pt" height="1024.000000pt" viewBox="0 0 1024.000000 1024.000000" preserveAspectRatio="xMidYMid meet">
  <metadata>
Created by potrace 1.16, written by Peter Selinger 2001-2019
</metadata>
  <g transform="translate(0.000000,1024.000000) scale(0.100000,-0.100000)" fill="#000000" stroke="none">
    <path d="M5130 9538 c-210 -37 -732 -150 -920 -199 -278 -73 -365 -102 -391&#xA;-129 -39 -40 -39 -45 -64 -795 -8 -242 -17 -492 -20 -555 -2 -63 -8 -281 -11&#xA;-485 -8 -417 -6 -433 58 -459 18 -8 132 -28 253 -46 289 -41 265 -34 265 -85&#xA;0 -63 27 -92 95 -100 31 -4 57 -11 60 -15 3 -4 -38 -79 -90 -166 -52 -87 -96&#xA;-162 -98 -167 -1 -5 -90 11 -197 37 -205 48 -463 96 -516 96 -66 0 -68 8 -15&#xA;69 68 79 94 131 95 196 0 63 -21 100 -75 128 -44 24 -136 17 -217 -15 l-57&#xA;-24 0 96 c0 91 -2 99 -29 134 -39 52 -105 80 -167 73 -124 -15 -269 -126 -331&#xA;-255 l-35 -73 -27 45 c-37 64 -69 86 -124 86 -60 0 -124 -32 -155 -78 -95&#xA;-137 -107 -314 -30 -453 2 -4 -19 -9 -46 -13 -27 -4 -132 -27 -233 -52 -213&#xA;-53 -230 -64 -249 -154 -6 -30 -12 -130 -13 -222 -2 -164 -3 -167 -29 -202&#xA;-42 -54 -85 -152 -103 -234 -31 -139 0 -329 71 -442 l25 -39 -38 -10 c-20 -5&#xA;-82 -19 -137 -31 -248 -54 -373 -101 -394 -146 -21 -46 -6 -508 18 -552 6 -12&#xA;22 -29 34 -37 12 -8 157 -41 320 -74 164 -32 300 -61 303 -64 2 -2 -12 -46&#xA;-32 -98 -53 -134 -74 -222 -74 -303 0 -96 15 -144 59 -187 55 -55 132 -72 208&#xA;-45 l39 14 28 -54 c16 -29 47 -71 71 -93 114 -105 193 -111 420 -32 83 29 154&#xA;53 160 54 5 1 18 -158 31 -399 32 -594 27 -573 139 -613 58 -20 473 -144 764&#xA;-227 161 -46 295 -85 297 -87 2 -1 -19 -63 -47 -137 -28 -74 -52 -140 -54&#xA;-147 -3 -9 -20 -8 -67 3 -122 29 -593 104 -650 104 -31 0 -69 -5 -85 -11 -36&#xA;-14 -278 -252 -309 -306 -17 -28 -24 -53 -22 -75 5 -53 28 -59 230 -56 l176 3&#xA;-19 -25 c-80 -102 -96 -153 -59 -190 21 -21 28 -22 114 -15 50 4 143 15 206&#xA;26 141 23 136 23 118 2 -27 -31 -48 -81 -48 -113 0 -76 41 -91 162 -60 105 27&#xA;963 312 1005 333 41 21 73 63 73 95 0 15 -14 39 -38 62 -47 47 -126 73 -247&#xA;79 -6 1 10 64 35 142 l45 140 35 -6 c19 -4 100 -22 180 -42 202 -48 213 -49&#xA;400 -19 272 44 917 177 1118 230 39 11 52 11 49 3 -71 -175 -170 -427 -187&#xA;-475 -13 -34 -26 -62 -31 -62 -20 0 -435 -73 -548 -96 -145 -30 -164 -37 -209&#xA;-71 -43 -33 -238 -266 -263 -315 -38 -74 -13 -128 60 -128 43 0 276 38 414 68&#xA;48 10 87 18 87 16 0 -2 -20 -34 -45 -71 -76 -112 -57 -187 42 -168 28 5 400&#xA;119 520 160 9 3 11 -18 7 -88 -6 -84 -5 -94 16 -120 49 -62 117 -27 292 150&#xA;147 149 173 179 236 265 38 52 52 61 184 128 79 39 155 84 171 101 79 85 -23&#xA;160 -241 176 -70 5 -83 9 -79 22 30 104 213 675 226 700 12 26 27 38 66 52&#xA;634 230 841 317 866 366 17 35 26 501 25 1348 -1 528 -2 573 -19 598 -9 15&#xA;-28 33 -40 42 -29 19 -201 64 -459 120 -110 24 -201 45 -203 47 -2 2 -5 38 -6&#xA;81 l-4 78 59 24 c69 28 93 48 101 85 3 15 -1 124 -9 241 -8 118 -21 297 -27&#xA;399 l-12 185 82 162 c90 180 96 209 62 291 -11 26 -41 101 -66 167 -65 169&#xA;-73 176 -252 220 -103 25 -113 29 -113 50 0 12 6 27 13 32 10 9 112 49 476&#xA;191 83 32 90 56 110 377 6 94 13 197 16 230 14 172 43 660 64 1060 5 88 8 254&#xA;7 368 -1 233 1 227 -76 247 -39 10 -346 47 -705 85 -132 14 -301 32 -375 40&#xA;-710 76 -1280 109 -1430 83z m535 -113 c287 -16 487 -33 825 -70 437 -48 892&#xA;-95 923 -95 18 0 27 -4 21 -9 -5 -4 -221 -61 -479 -125 l-471 -117 -104 10&#xA;c-58 6 -204 17 -325 26 -121 8 -344 24 -495 35 -151 11 -437 29 -635 40 -198&#xA;11 -389 22 -425 25 -118 9 -384 25 -424 25 -73 0 -56 5 274 90 258 65 574 133&#xA;810 173 53 9 256 6 505 -8z m1938 -442 c-1 -258 -16 -575 -43 -958 -10 -148&#xA;-26 -394 -35 -545 -9 -151 -20 -284 -25 -296 -6 -15 -58 -42 -197 -99 -316&#xA;-131 -473 -195 -483 -195 -6 0 -9 109 -7 280 2 250 0 281 -15 296 -9 9 -23 14&#xA;-31 11 -15 -5 -18 -59 -33 -452 -4 -93 -9 -173 -13 -176 -9 -9 -281 -102 -285&#xA;-98 -2 2 0 63 5 134 4 72 13 240 19 375 6 135 20 430 30 655 11 226 23 548 27&#xA;717 5 269 8 308 22 313 9 2 85 20 169 40 180 41 732 184 827 214 17 5 39 9 50&#xA;8 19 -2 20 -9 18 -224z m-3338 108 c127 -11 340 -28 475 -36 543 -35 703 -46&#xA;875 -60 99 -8 270 -19 380 -25 238 -12 457 -29 464 -35 4 -5 -17 -608 -24&#xA;-680 -2 -22 -7 -96 -10 -165 -9 -208 -44 -922 -55 -1135 -6 -110 -13 -209 -17&#xA;-219 -5 -18 -13 -18 -107 -12 -188 12 -517 44 -523 50 -4 3 -5 60 -4 126 3&#xA;146 -6 230 -26 237 -8 3 -19 1 -24 -4 -9 -9 -21 -135 -35 -372 l-6 -113 -87 6&#xA;c-98 8 -245 24 -279 32 l-24 5 7 237 c7 215 6 239 -9 251 -15 12 -19 12 -31 0&#xA;-15 -16 -35 -161 -35 -260 0 -36 -3 -101 -7 -144 l-6 -77 -76 6 c-90 9 -286&#xA;42 -302 52 -7 4 -9 25 -5 58 9 72 10 381 2 395 -12 20 -46 12 -55 -12 -5 -13&#xA;-12 -69 -15 -123 -3 -54 -8 -146 -12 -204 l-6 -106 -128 16 c-71 8 -134 20&#xA;-139 25 -7 7 -12 99 -13 234 -3 203 -5 225 -21 235 -37 22 -45 -7 -73 -282&#xA;l-6 -53 -31 5 c-18 3 -117 17 -222 32 -104 14 -198 30 -207 35 -16 9 -18 28&#xA;-18 177 0 388 53 1902 68 1926 2 5 35 6 71 3 36 -4 170 -15 296 -26z m-1092&#xA;-2093 c39 -53 18 -197 -50 -331 -49 -98 -4 -131 69 -51 99 109 180 160 266&#xA;171 44 5 51 3 66 -18 9 -13 16 -32 16 -42 0 -38 -46 -105 -122 -179 l-80 -77&#xA;-67 -5 c-150 -13 -297 -62 -429 -142 -56 -34 -83 -44 -115 -44 -100 0 -241&#xA;118 -273 227 -32 111 0 257 68 307 23 16 31 18 53 8 32 -15 89 -129 119 -241&#xA;20 -69 24 -76 48 -79 30 -4 32 1 43 98 23 207 98 334 238 401 77 36 121 36&#xA;150 -3z m3882 -302 c60 -24 118 -46 128 -50 10 -3 16 -9 14 -13 -2 -5 -26 -44&#xA;-52 -88 -27 -44 -109 -192 -183 -330 -74 -137 -178 -324 -231 -415 -54 -91&#xA;-110 -186 -125 -212 -15 -27 -29 -48 -31 -48 -3 0 -39 14 -82 31 -43 17 -134&#xA;50 -203 74 -69 23 -125 46 -125 51 0 13 424 853 446 885 13 18 52 40 121 68&#xA;57 23 123 53 148 66 25 13 49 24 55 25 5 0 59 -20 120 -44z m-2301 -121 c76&#xA;-13 140 -25 141 -27 5 -5 -182 -349 -251 -463 -34 -55 -69 -115 -78 -133 -10&#xA;-19 -19 -32 -21 -30 -1 1 -8 50 -14 107 -11 106 -44 203 -80 235 -9 8 -35 19&#xA;-58 25 l-41 11 85 128 c131 195 122 184 152 177 14 -3 88 -16 165 -30z m2556&#xA;-112 c22 -60 45 -118 50 -131 17 -39 12 -54 -61 -197 -159 -314 -280 -533&#xA;-426 -773 l-75 -122 -80 112 c-44 62 -82 118 -85 125 -2 6 49 103 115 215 153&#xA;261 234 403 334 591 90 169 163 287 177 287 5 0 28 -48 51 -107z m-2170 28&#xA;c69 -11 162 -25 207 -32 45 -7 87 -15 93 -19 9 -6 35 -311 27 -316 -2 -1 -325&#xA;51 -443 71 -35 6 -36 8 -50 223 l-7 103 24 -5 c13 -3 80 -14 149 -25z m1040&#xA;-116 c90 -6 148 2 213 30 20 8 -4 -48 -104 -248 l-54 -108 -45 6 c-127 16&#xA;-305 23 -317 13 -41 -34 12 -56 177 -73 79 -8 145 -17 147 -18 1 -2 -31 -68&#xA;-72 -146 -41 -78 -75 -147 -75 -153 0 -7 -28 -9 -84 -5 -91 6 -118 -4 -93 -35&#xA;14 -18 69 -38 103 -38 66 0 -15 -77 -216 -204 -115 -74 -167 -102 -172 -93 -4&#xA;7 -8 45 -8 86 0 122 -46 966 -55 1007 -3 12 -3 23 0 25 2 3 129 -6 282 -18&#xA;153 -12 321 -25 373 -28z m-2685 -10 c192 -24 396 -62 595 -111 102 -26 191&#xA;-49 198 -53 7 -4 -83 -33 -200 -66 -117 -32 -263 -75 -324 -97 -101 -35 -115&#xA;-37 -165 -29 -30 5 -97 15 -149 21 -52 6 -162 23 -245 36 -216 34 -392 59&#xA;-625 89 -287 36 -437 59 -446 68 -4 4 2 7 13 7 12 0 63 11 115 25 51 13 117&#xA;29 147 35 53 10 54 10 91 -24 68 -62 183 -97 263 -82 20 4 76 34 126 67 179&#xA;119 333 148 606 114z m1382 -113 c2 -37 8 -129 13 -206 l10 -138 -41 -67 c-69&#xA;-109 -247 -374 -272 -405 l-24 -29 -7 185 -7 185 29 49 c178 297 282 481 282&#xA;497 0 6 3 7 7 4 4 -4 8 -38 10 -75z m-2517 -136 c238 -37 1032 -148 1231 -171&#xA;l56 -7 7 -66 c3 -37 6 -115 6 -174 l0 -107 -46 49 c-104 111 -221 163 -369&#xA;163 -150 0 -265 -51 -367 -161 -52 -57 -105 -158 -128 -242 -15 -54 -18 -206&#xA;-6 -274 8 -44 7 -48 -8 -43 -9 4 -52 10 -96 13 -44 4 -80 8 -80 9 0 0 8 19 19&#xA;41 43 90 59 290 32 404 -19 78 -73 187 -121 242 -82 95 -233 156 -353 144 -32&#xA;-3 -86 -17 -121 -31 -34 -14 -66 -25 -71 -25 -8 0 1 208 12 262 6 30 6 30 62&#xA;25 31 -3 184 -26 341 -51z m2049 -5 c17 -30 29 -144 36 -311 3 -85 7 -193 10&#xA;-240 6 -108 13 -272 25 -580 27 -721 32 -879 27 -893 -7 -18 -62 -49 -420&#xA;-231 -198 -102 -288 -143 -291 -134 -3 7 -7 99 -11 203 -3 105 -8 237 -11 295&#xA;-2 58 -9 204 -14 325 -6 121 -15 262 -21 313 -11 87 -10 99 12 170 31 105 32&#xA;247 2 352 -17 62 -22 116 -28 315 -3 132 -7 243 -8 248 -3 15 584 184 645 186&#xA;27 1 40 -4 47 -18z m769 -16 c92 -14 197 -30 233 -36 l65 -10 2 -52 c1 -29 5&#xA;-103 8 -166 l6 -114 -28 5 c-16 3 -101 17 -189 31 -88 15 -181 29 -207 32 -44&#xA;6 -48 9 -49 33 0 15 -6 89 -13 165 -6 75 -8 137 -3 137 5 0 84 -11 175 -25z&#xA;m-2893 -266 c111 -41 195 -134 236 -261 37 -117 27 -286 -25 -410 -16 -37 -18&#xA;-38 -67 -38 -28 0 -49 3 -47 8 63 122 52 239 -31 317 -29 27 -39 30 -98 30&#xA;-64 0 -66 -1 -103 -43 -67 -75 -78 -196 -25 -289 14 -25 25 -47 25 -49 0 -2&#xA;-12 -4 -27 -4 -16 0 -70 -9 -120 -19 -92 -18 -93 -18 -111 3 -29 32 -68 105&#xA;-88 166 -22 68 -25 224 -5 295 67 238 284 370 486 294z m2635 -122 c0 -93 38&#xA;-368 55 -393 14 -22 47 -35 128 -50 20 -3 39 -10 42 -14 7 -11 -15 -110 -23&#xA;-110 -17 0 -261 -32 -390 -51 -79 -11 -145 -19 -147 -17 -2 2 -5 47 -7 100 -3&#xA;87 -1 99 18 120 27 29 304 448 304 460 0 4 5 8 10 8 6 0 10 -24 10 -53z m2310&#xA;-44 c0 -49 3 -98 6 -109 5 -19 -5 -26 -81 -58 -102 -42 -109 -43 -94 -13 35&#xA;68 155 267 161 267 5 0 8 -39 8 -87z m-3840 28 c146 -55 257 -204 292 -391 15&#xA;-81 5 -205 -22 -270 -82 -197 -286 -305 -480 -256 -93 24 -143 51 -209 112&#xA;-157 145 -195 389 -94 602 49 104 169 198 283 222 65 13 166 5 230 -19z m1840&#xA;-16 c91 -14 188 -30 216 -35 l51 -11 6 -97 c4 -53 7 -128 7 -166 l0 -68 -27 4&#xA;c-125 21 -400 82 -410 91 -10 10 -43 234 -43 290 0 22 2 22 200 -8z m1102&#xA;-125 c111 -39 203 -71 204 -73 1 -1 -20 -36 -47 -78 -47 -73 -55 -79 -177&#xA;-154 -70 -43 -257 -161 -415 -262 -331 -210 -344 -218 -360 -205 -7 5 -74 57&#xA;-150 115 l-138 106 53 27 c167 84 371 199 531 300 180 113 205 135 252 226 20&#xA;37 38 68 41 68 3 0 96 -32 206 -70z m912 -142 c3 -24 7 -92 8 -153 l3 -110&#xA;-180 -62 c-99 -34 -185 -62 -192 -62 -6 -1 -14 23 -18 58 l-7 59 64 109 65&#xA;108 111 40 c61 22 114 43 118 48 15 15 23 6 28 -35z m-602 -71 c31 -45 70&#xA;-101 87 -123 l31 -42 -68 -111 -67 -111 -115 -73 c-133 -86 -844 -507 -856&#xA;-507 -2 0 -4 17 -4 38 0 20 -9 91 -20 157 -11 66 -20 127 -20 135 0 8 33 36&#xA;73 61 39 25 144 92 232 149 88 57 242 154 341 216 195 122 224 147 282 236 20&#xA;32 39 58 42 58 3 -1 30 -38 62 -83z m-1297 -117 c97 -18 97 -18 -9 -72 -54&#xA;-27 -100 -47 -103 -44 -3 3 1 35 8 71 10 51 16 64 28 61 9 -3 43 -10 76 -16z&#xA;m-2804 -190 c190 -18 247 -30 253 -54 3 -11 23 -44 45 -73 l40 -52 -37 -10&#xA;c-20 -6 -107 -27 -192 -47 -85 -21 -188 -47 -228 -60 -65 -20 -77 -21 -117 -9&#xA;-24 8 -181 37 -347 66 -167 29 -345 59 -397 69 l-93 16 143 32 c314 70 657&#xA;130 755 131 40 1 118 -3 175 -9z m2538 -4 c-2 -2 -38 -21 -79 -41 -41 -21&#xA;-106 -56 -143 -78 -58 -34 -84 -42 -165 -54 -52 -7 -97 -12 -98 -10 -6 6 -7&#xA;104 -1 114 6 9 93 25 352 62 66 9 141 13 134 7z m162 -114 c30 -21 100 -73&#xA;157 -115 56 -42 109 -80 118 -85 15 -8 63 -266 64 -343 0 -36 0 -36 -57 -47&#xA;-32 -6 -80 -14 -108 -18 -58 -8 -78 -17 -123 -55 -43 -38 -105 -69 -137 -69&#xA;-47 0 -65 17 -65 61 0 82 76 185 198 268 67 45 84 68 61 82 -32 19 -137 -33&#xA;-223 -112 -48 -44 -102 -130 -120 -191 -7 -22 -37 -23 -76 -3 -38 20 -50 43&#xA;-50 97 0 76 41 143 151 250 54 53 99 104 99 112 0 28 -35 17 -111 -33 -89 -58&#xA;-167 -139 -198 -203 -25 -52 -41 -58 -71 -28 -25 25 -27 106 -4 174 24 70 109&#xA;151 213 205 99 51 190 90 212 91 9 0 40 -17 70 -38z m1872 -179 l7 -198 -38&#xA;-33 c-20 -19 -84 -68 -142 -110 -226 -164 -477 -352 -494 -371 -16 -18 -18&#xA;-30 -12 -93 4 -40 10 -90 13 -110 4 -27 2 -38 -7 -38 -7 0 -87 -36 -177 -81&#xA;-91 -44 -166 -79 -168 -77 -1 2 -8 107 -14 233 -6 127 -14 250 -16 275 l-6 45&#xA;123 71 c68 39 157 91 198 116 41 25 152 89 245 143 167 97 199 120 189 136 -3&#xA;5 -31 16 -62 25 -31 8 -63 17 -71 20 -9 3 -6 10 13 25 15 11 33 35 40 53 12&#xA;30 24 36 132 74 66 23 142 53 169 66 28 14 55 25 61 25 7 1 13 -63 17 -196z&#xA;m-3423 -163 c6 -124 17 -368 23 -544 l12 -318 -60 5 c-33 2 -169 22 -302 43&#xA;l-243 39 0 32 c0 17 -7 134 -16 259 -8 124 -12 230 -7 234 4 4 31 15 59 24 79&#xA;26 83 34 94 182 5 71 10 135 10 142 0 8 17 12 49 12 27 0 78 9 113 20 71 22&#xA;197 104 225 147 l18 27 7 -40 c3 -21 12 -140 18 -264z m-1995 192 c88 -17 246&#xA;-44 350 -62 105 -17 207 -35 228 -41 l37 -10 0 -239 c0 -141 -4 -240 -9 -240&#xA;-5 0 -135 25 -288 55 -153 30 -361 70 -461 89 -105 19 -190 40 -198 48 -12 11&#xA;-16 61 -21 220 -3 113 -4 212 0 220 4 13 19 13 104 2 54 -6 170 -25 258 -42z&#xA;m1328 -21 c42 -22 92 -43 112 -47 l37 -7 -7 -101 c-10 -166 9 -145 -188 -216&#xA;-95 -35 -248 -91 -342 -125 -200 -73 -245 -88 -250 -83 -2 2 -5 113 -7 246&#xA;l-3 242 150 35 c256 61 400 94 411 94 6 1 45 -17 87 -38z m1675 22 c-43 -83&#xA;-52 -115 -55 -188 -6 -107 19 -158 92 -195 42 -21 51 -31 58 -63 13 -53 65&#xA;-103 129 -122 28 -8 59 -15 67 -15 9 0 24 -12 34 -25 l17 -24 -42 -12 c-24 -6&#xA;-52 -11 -63 -11 -17 0 -311 105 -321 114 -2 3 -17 387 -18 488 l-1 45 45 6&#xA;c25 3 49 7 53 7 5 1 7 -1 5 -5z m2623 -53 c52 -11 144 -31 204 -44 61 -13 135&#xA;-30 165 -36 68 -15 82 -27 44 -36 -37 -9 -458 -159 -583 -208 -52 -20 -95 -35&#xA;-97 -33 -2 2 28 27 67 56 91 68 100 88 92 220 -4 66 -2 101 5 101 5 0 52 -9&#xA;103 -20z m-742 -70 c63 -11 116 -22 118 -24 2 -2 -58 -36 -134 -76 -76 -40&#xA;-227 -126 -335 -192 l-198 -119 -117 11 c-65 6 -131 15 -148 19 l-30 7 40 28&#xA;c69 48 446 267 555 322 58 30 112 52 120 49 8 -2 66 -13 129 -25z m1252 -297&#xA;c2 -296 -3 -1300 -6 -1363 -2 -30 -4 -94 -4 -143 -1 -74 -4 -90 -21 -104 -26&#xA;-23 -474 -202 -750 -301 -600 -213 -1148 -354 -1853 -475 -140 -24 -200 -31&#xA;-203 -23 -2 6 -3 483 -2 1060 l3 1049 65 19 c36 10 75 18 86 18 12 0 58 11&#xA;103 23 93 27 86 33 96 -78 3 -38 26 -256 51 -483 38 -348 43 -416 32 -432 -7&#xA;-10 -70 -81 -140 -159 -147 -162 -141 -145 -112 -333 17 -109 33 -151 62 -167&#xA;24 -13 612 -131 652 -131 45 0 65 13 160 104 47 45 117 108 157 139 l72 58 98&#xA;4 c283 9 687 171 806 324 25 32 28 43 25 91 l-4 56 69 39 c37 22 94 63 127 92&#xA;135 122 171 240 104 339 l-25 36 48 52 c125 136 150 311 52 361 -41 22 -62 16&#xA;-232 -61 -78 -36 -157 -71 -174 -79 -32 -14 -43 -38 -23 -50 16 -10 121 21&#xA;241 70 60 25 119 45 129 45 34 0 44 -35 25 -93 -54 -164 -239 -298 -512 -371&#xA;-72 -19 -88 -27 -88 -42 0 -17 8 -19 85 -18 95 1 149 15 283 77 l88 40 26 -25&#xA;c32 -33 27 -74 -19 -143 -62 -93 -180 -168 -368 -233 -154 -54 -150 -52 -150&#xA;-72 0 -27 27 -32 109 -20 78 11 121 6 121 -15 0 -24 -93 -94 -190 -144 -147&#xA;-76 -385 -150 -483 -151 l-37 0 77 69 c43 38 89 80 101 94 33 35 43 89 32 167&#xA;-15 104 -79 713 -86 813 l-7 92 49 34 c27 19 100 73 162 119 77 57 137 93 190&#xA;114 215 84 862 307 890 308 9 0 12 -47 13 -197z m-4834 -170 c9 -61 10 -540 1&#xA;-573 -6 -19 -23 -32 -70 -51 -111 -47 -298 -112 -304 -107 -3 3 1 26 8 49 19&#xA;66 16 399 -5 462 -18 56 -36 38 148 142 66 37 138 80 160 95 22 16 43 29 47&#xA;29 4 1 10 -20 15 -46z m2811 11 c103 -9 188 -17 188 -18 5 -4 14 -175 19 -336&#xA;4 -102 9 -198 12 -214 l5 -29 -103 6 c-57 3 -181 15 -276 28 l-172 22 -6 51&#xA;c-32 294 -44 429 -39 438 4 5 27 23 52 39 55 35 63 35 320 13z m-1032 -95&#xA;l144 -52 0 -981 c0 -539 3 -1011 7 -1048 5 -63 4 -68 -13 -68 -11 0 -118 25&#xA;-239 55 -646 163 -1696 477 -1709 510 -10 28 -43 480 -52 736 l-7 176 26 7&#xA;c18 4 78 -10 189 -44 89 -28 233 -65 319 -82 l157 -33 98 75 c55 41 120 91&#xA;145 112 25 21 49 38 54 38 4 0 5 -78 2 -174 -6 -190 -3 -203 50 -224 41 -16&#xA;180 -50 238 -57 39 -6 54 -4 64 8 10 13 9 19 -8 36 -12 12 -28 21 -36 21 -23&#xA;0 -229 51 -236 59 -4 3 -9 94 -11 202 l-5 195 33 22 c18 11 87 67 155 124 175&#xA;148 194 162 315 225 124 66 154 99 154 169 0 25 5 44 11 44 6 0 76 -23 155&#xA;-51z m-2579 -80 c123 -34 166 -42 253 -44 l105 -3 8 -58 c13 -89 1 -329 -18&#xA;-393 -24 -77 -69 -121 -126 -121 -85 0 -172 66 -203 155 -8 22 -18 67 -23 100&#xA;-7 55 -10 60 -33 60 -19 0 -26 -6 -30 -28 -3 -19 -19 -38 -49 -58 -52 -34&#xA;-102 -38 -130 -10 -21 21 -41 80 -41 121 0 39 26 137 60 233 28 75 35 87 55&#xA;87 13 0 90 -19 172 -41z m4267 -385 c3 -48 20 -210 37 -362 l30 -275 -33 -35&#xA;c-18 -19 -127 -115 -243 -214 -115 -100 -236 -206 -267 -236 -32 -31 -59 -54&#xA;-61 -51 -2 2 -11 45 -21 96 l-18 92 44 53 c25 29 80 100 122 158 89 122 84 87&#xA;61 435 -8 121 -15 230 -15 241 0 18 27 35 158 98 86 43 164 81 172 85 8 5 18&#xA;7 21 5 3 -2 9 -42 13 -90z m-774 -80 c63 -8 165 -17 227 -21 l112 -6 5 -46 c8&#xA;-68 28 -412 24 -416 -2 -2 -24 1 -49 6 -24 5 -141 27 -259 48 -207 36 -214 38&#xA;-216 62 -10 81 -44 390 -44 395 0 4 19 3 43 0 23 -4 94 -14 157 -22z m200&#xA;-529 c85 -15 161 -28 167 -30 8 -3 -32 -63 -98 -150 -61 -80 -114 -147 -118&#xA;-149 -6 -4 -222 34 -230 41 -2 2 25 33 61 70 84 88 122 145 113 172 -3 12 -12&#xA;21 -19 21 -8 0 -64 -56 -126 -126 -62 -69 -118 -123 -124 -121 -13 5 -142 31&#xA;-209 42 l-38 6 123 130 c68 72 126 136 130 143 6 10 28 9 110 -5 57 -10 173&#xA;-30 258 -44z m-434 -325 l50 -11 13 -90 c7 -50 11 -93 8 -95 -5 -5 -229 35&#xA;-236 42 -5 5 -30 143 -30 170 -1 23 4 23 195 -16z m264 -57 c52 -9 96 -17 97&#xA;-18 5 -2 43 -188 40 -192 -2 -2 -33 3 -68 11 -35 8 -89 19 -120 26 l-56 11&#xA;-12 77 c-7 42 -15 86 -18 96 -4 16 -1 18 18 12 13 -3 67 -14 119 -23z m1000&#xA;-878 c-44 -147 -80 -276 -80 -285 0 -36 56 -40 71 -6 13 27 14 27 172 -4 140&#xA;-28 146 -19 -106 -154 -78 -42 -94 -56 -143 -123 -85 -114 -306 -347 -356&#xA;-374 -15 -8 -18 -6 -18 13 1 47 21 166 46 267 18 73 23 106 15 114 -17 17 -46&#xA;-17 -77 -87 l-27 -63 -273 -90 c-151 -50 -274 -88 -274 -85 0 19 166 247 228&#xA;313 74 79 86 109 43 109 -23 0 -114 -73 -167 -134 l-39 -44 -190 -36 c-230&#xA;-43 -359 -65 -362 -62 -12 12 227 283 262 296 40 15 317 69 515 100 107 17&#xA;203 36 213 43 10 7 53 103 101 227 104 270 99 260 140 260 50 0 251 37 321 58&#xA;33 11 61 18 63 17 1 -1 -33 -123 -78 -270z m-2428 60 l116 -37 -35 -100 c-19&#xA;-55 -33 -109 -31 -121 3 -25 43 -36 61 -18 6 6 27 11 47 11 54 0 172 -28 188&#xA;-44 13 -12 9 -17 -24 -33 -63 -31 -992 -338 -1000 -330 -14 14 72 126 178 230&#xA;106 103 126 137 83 137 -22 0 -91 -44 -158 -102 l-58 -50 -167 -24 c-92 -13&#xA;-193 -27 -224 -32 -32 -5 -58 -6 -58 -4 0 27 269 302 331 339 41 24 39 53 -4&#xA;53 -36 0 -107 -44 -204 -126 l-52 -44 -193 2 -193 3 134 133 c110 108 139 132&#xA;163 132 48 0 471 -69 622 -101 77 -16 146 -27 153 -25 13 5 32 45 63 131 10&#xA;28 23 62 29 77 l10 27 53 -23 c30 -13 106 -41 170 -61z"/>
    <path d="M4141 8297 c-13 -17 -40 -332 -41 -484 0 -89 0 -89 148 -108 118 -15&#xA;489 -55 515 -55 9 0 21 9 27 21 13 23 39 338 40 471 0 79 -2 88 -22 102 -12 9&#xA;-41 16 -63 16 -22 0 -117 9 -212 20 -278 31 -376 36 -392 17z"/>
    <path d="M5359 8184 c-9 -11 -18 -77 -26 -203 -16 -253 -16 -366 0 -379 7 -6&#xA;82 -18 167 -26 85 -8 232 -22 326 -32 186 -19 219 -16 227 18 3 13 14 141 23&#xA;286 16 241 16 265 1 279 -12 12 -56 20 -179 30 -90 7 -229 20 -309 28 -185 19&#xA;-213 19 -230 -1z"/>
    <path d="M4950 7713 c-40 -63 -70 -145 -73 -201 l-2 -46 40 -7 c22 -4 83 -9&#xA;135 -11 95 -3 95 -3 99 22 7 52 -21 248 -38 263 -9 8 -42 17 -74 21 l-57 6&#xA;-30 -47z"/>
    <path d="M3040 5349 c-39 -16 -61 -40 -86 -94 -42 -89 -28 -185 38 -260 87&#xA;-99 209 -80 265 41 57 125 14 274 -90 313 -35 13 -93 13 -127 0z"/>
    <path d="M4532 3667 c-15 -18 -20 -613 -5 -628 6 -6 19 -9 29 -7 18 3 19 20&#xA;22 306 2 290 -2 342 -27 342 -5 0 -13 -6 -19 -13z"/>
    <path d="M3227 3183 c-4 -3 -7 -106 -7 -228 0 -255 -6 -239 100 -274 89 -29&#xA;239 -61 256 -54 17 6 18 39 2 50 -7 4 -76 26 -153 48 l-140 40 -1 190 c0 131&#xA;-4 197 -12 213 -12 22 -32 29 -45 15z"/>
  </g>
  <title>Chicken Jockey</title>
  <desc>Chicken Jockey</desc>
</svg>