<?xml version="1.0" standalone="no"?>
<!DOCTYPE svg PUBLIC "-//W3C//DTD SVG 20010904//EN"
 "http://www.w3.org/TR/2001/REC-SVG-20010904/DTD/svg10.dtd">
<svg version="1.0" xmlns="http://www.w3.org/2000/svg"
 width="1024.000000pt" height="1024.000000pt" viewBox="0 0 1024.000000 1024.000000"
 preserveAspectRatio="xMidYMid meet">
<metadata>
Created by potrace 1.16, written by Peter Selinger 2001-2019
</metadata>
<g transform="translate(0.000000,1024.000000) scale(0.100000,-0.100000)"
fill="#000000" stroke="none">
<path d="M1532 9537 c-6 -6 -15 -50 -21 -97 -19 -143 -16 -138 -60 -83 -61 77
-77 88 -106 75 -44 -20 -33 -58 43 -151 37 -46 71 -89 76 -96 9 -12 -12 -305
-22 -305 -19 0 -232 124 -236 138 -3 9 -10 37 -16 62 -32 125 -41 148 -62 153
-30 8 -58 -10 -58 -36 0 -12 7 -46 14 -74 8 -29 12 -53 9 -53 -4 0 -41 20 -84
45 -110 64 -127 69 -155 50 -28 -18 -31 -55 -6 -77 9 -9 51 -34 92 -58 41 -23
79 -45 84 -50 4 -5 -26 -24 -68 -44 -70 -32 -76 -37 -76 -64 0 -30 14 -42 48
-42 10 0 64 20 122 44 l105 43 129 -65 128 -65 -105 -104 -104 -105 -110 1
c-60 1 -117 -1 -126 -5 -20 -7 -23 -57 -4 -72 9 -7 86 -18 155 -22 2 0 -28
-35 -67 -77 -71 -77 -82 -98 -59 -121 26 -26 57 -12 128 56 39 38 72 66 74 63
1 -3 3 -37 5 -76 3 -81 17 -119 48 -123 43 -6 52 27 46 182 l-6 141 93 85 c51
47 97 85 101 85 5 0 44 -53 89 -119 l80 -118 -45 -114 c-25 -62 -45 -120 -45
-128 0 -24 49 -52 68 -40 9 6 30 44 47 85 17 41 34 74 39 74 5 0 29 -37 54
-83 54 -100 83 -119 119 -77 27 30 23 44 -38 140 -23 36 -39 68 -36 71 3 3 31
1 63 -5 78 -15 100 -14 118 5 24 24 19 52 -11 67 -16 8 -78 22 -138 32 l-111
17 -38 62 c-22 33 -59 91 -82 128 -24 37 -44 70 -44 72 0 8 39 18 164 42 l128
24 92 -80 c89 -78 120 -92 144 -68 26 26 13 56 -53 114 -44 39 -61 60 -53 65
7 4 47 14 88 24 110 25 120 30 120 64 0 58 -41 66 -170 32 -41 -11 -76 -18
-78 -16 -3 2 8 34 22 71 25 62 26 68 11 90 -33 51 -70 25 -108 -77 -44 -117
-51 -126 -105 -138 -27 -5 -78 -15 -113 -20 -35 -6 -75 -13 -88 -16 -23 -4
-23 -3 -18 43 4 26 9 88 13 137 3 50 12 100 20 111 7 12 55 54 107 92 51 39
99 78 106 86 18 22 10 48 -21 65 -26 15 -29 14 -104 -38 l-77 -53 7 53 c3 30
9 73 12 96 5 33 2 45 -15 62 -24 24 -53 27 -69 8z"/>
<path d="M6549 9309 c-15 -28 3 -69 30 -69 24 0 51 26 51 49 0 42 -61 57 -81
20z"/>
<path d="M3253 9298 c-113 -19 -208 -114 -233 -231 -26 -129 38 -260 155 -317
61 -30 177 -25 249 10 169 81 220 308 100 448 -60 71 -170 108 -271 90z m164
-125 c50 -40 83 -98 83 -148 -1 -171 -225 -273 -337 -153 -51 54 -67 151 -38
221 16 39 85 103 119 111 11 2 47 3 78 2 47 -2 65 -8 95 -33z"/>
<path d="M8382 9148 c-5 -7 -17 -59 -27 -116 -29 -176 -18 -171 -119 -43 -97
122 -123 138 -159 102 -21 -20 -21 -22 -4 -54 10 -17 65 -92 122 -166 l105
-133 0 -138 0 -138 -107 55 c-60 31 -113 61 -119 67 -6 6 -19 34 -29 61 -86
242 -114 285 -159 239 -23 -22 -20 -48 19 -149 19 -49 32 -91 31 -93 -2 -1
-45 15 -95 38 -123 54 -171 52 -171 -6 0 -29 18 -41 141 -94 l102 -44 -114
-56 c-108 -52 -114 -57 -117 -87 -3 -27 1 -35 22 -44 22 -10 43 -3 182 60
l156 71 109 -51 c60 -29 109 -56 109 -60 0 -5 -29 -39 -65 -77 l-64 -69 -148
-26 c-122 -21 -151 -30 -166 -48 -21 -26 -19 -47 5 -63 16 -10 132 2 196 20
20 6 15 -6 -38 -87 -33 -52 -65 -105 -71 -119 -15 -35 1 -55 42 -55 31 0 38 6
81 70 26 39 59 88 75 109 l27 40 7 -26 c4 -15 10 -59 14 -100 9 -90 27 -128
60 -128 46 0 53 28 39 142 -8 57 -16 132 -19 168 l-6 65 54 59 c34 37 58 56
66 52 7 -4 37 -46 68 -93 l55 -85 -23 -173 c-25 -192 -23 -205 32 -205 37 0
45 20 61 146 7 52 15 94 18 94 3 0 38 -50 78 -110 57 -87 77 -110 95 -110 13
0 28 5 35 12 26 26 12 67 -53 163 -36 52 -65 97 -65 99 0 2 33 -4 73 -15 90
-23 130 -24 149 -1 19 20 9 55 -20 71 -10 5 -76 20 -146 32 l-128 22 -70 105
c-38 57 -68 105 -66 107 10 10 293 85 303 81 7 -2 68 -43 134 -91 127 -90 161
-101 185 -62 16 25 2 42 -108 127 -86 66 -94 76 -74 81 232 67 274 89 244 134
-21 31 -75 24 -259 -31 -16 -5 -14 3 11 53 52 103 66 151 52 168 -16 20 -54
19 -71 -1 -8 -9 -43 -73 -79 -142 l-65 -126 -55 -17 c-111 -35 -243 -69 -247
-65 -5 5 -6 60 -4 189 l1 87 108 69 c162 104 182 119 182 139 0 22 -30 52 -52
52 -8 0 -61 -29 -117 -65 -69 -44 -101 -59 -98 -47 3 9 13 67 23 129 15 92 16
114 5 127 -16 19 -64 21 -79 4z"/>
<path d="M6200 8889 c-88 -35 -114 -137 -54 -208 37 -45 85 -57 139 -36 112
42 113 196 2 240 -43 17 -52 18 -87 4z m68 -85 c28 -19 28 -48 1 -75 -32 -32
-79 -11 -79 38 0 19 32 53 50 53 3 0 16 -7 28 -16z"/>
<path d="M4580 8304 c-329 -129 -890 -373 -1092 -475 -86 -43 -114 -79 -105
-133 3 -17 48 -121 101 -230 53 -110 95 -200 94 -200 -2 -1 -39 -17 -83 -35
-182 -77 -342 -160 -368 -191 -51 -60 -41 -99 110 -418 14 -29 23 -55 20 -58
-2 -3 -74 -40 -160 -84 -197 -99 -262 -141 -283 -181 -18 -36 -64 -367 -64
-470 l0 -67 -111 -47 -111 -46 -52 50 c-28 28 -85 77 -127 109 -42 31 -127 96
-190 143 -170 128 -374 261 -494 321 -90 45 -140 44 -165 -2 -10 -19 -36 -185
-95 -610 -14 -96 -36 -251 -49 -345 -14 -93 -32 -224 -40 -290 -32 -249 -57
-431 -108 -787 l-53 -367 21 -28 c43 -58 109 -44 464 97 273 109 370 151 568
245 l172 83 81 -28 c44 -16 82 -30 84 -32 1 -1 -3 -61 -10 -133 -7 -71 -16
-173 -20 -226 l-7 -96 31 -35 c35 -40 142 -115 214 -149 26 -13 46 -27 44 -33
-2 -5 -59 -59 -128 -121 -119 -107 -124 -113 -127 -155 -3 -41 -1 -45 65 -109
163 -160 654 -455 779 -469 41 -4 45 -2 91 45 51 52 199 256 299 410 38 60 65
92 77 93 10 0 62 -11 115 -24 366 -93 832 -165 1294 -202 69 -5 77 -8 68 -22
-5 -10 -77 -96 -161 -192 -192 -222 -209 -245 -209 -285 0 -38 17 -55 120
-118 121 -74 430 -213 559 -251 75 -22 142 -21 173 3 29 23 143 204 221 351
60 113 197 413 216 470 l11 35 382 2 c567 4 1010 33 1447 94 220 31 284 56
319 124 15 31 54 220 118 570 7 44 19 107 25 140 7 36 23 77 41 102 71 103
102 210 96 335 -3 79 -9 104 -35 158 l-31 65 48 285 c30 179 56 302 69 331 38
85 55 193 45 299 -12 137 -10 216 15 490 28 320 38 652 22 703 -21 64 -48 78
-366 187 -122 42 -583 188 -640 203 -11 3 -69 19 -130 37 -349 101 -1136 284
-1420 330 -221 36 -359 22 -715 -76 -158 -44 -161 -44 -167 -26 -17 47 -212
462 -265 562 -72 136 -211 350 -262 403 -52 52 -78 49 -276 -29z m263 -190
c37 -54 90 -139 118 -189 92 -161 289 -576 289 -608 0 -3 -39 -18 -87 -32 -49
-15 -130 -40 -181 -57 -51 -16 -98 -28 -105 -25 -7 3 -25 36 -41 73 -72 170
-213 444 -315 613 -61 101 -110 185 -109 186 3 1 88 37 248 104 52 22 100 38
105 37 6 -1 40 -47 78 -102z m-505 -111 c45 -65 208 -345 254 -437 57 -112
189 -399 185 -400 -1 -1 -85 -29 -187 -63 -102 -34 -191 -64 -198 -65 -15 -4
-19 3 -122 211 -44 90 -102 200 -127 245 -74 129 -163 277 -194 323 -16 23
-29 43 -29 46 0 3 66 33 148 67 81 34 165 70 187 80 54 25 61 24 83 -7z m-498
-181 c0 -4 57 -102 126 -217 109 -183 314 -575 314 -601 0 -7 -320 -139 -337
-139 -7 0 -158 300 -227 451 -33 71 -88 184 -123 252 l-63 123 107 50 c60 27
126 58 148 69 45 21 55 23 55 12z m2600 -532 c552 -117 1285 -305 1800 -461
167 -51 403 -139 435 -163 15 -11 17 -31 16 -192 -1 -98 -3 -192 -5 -209 -2
-16 -7 -102 -10 -190 -4 -88 -9 -177 -12 -198 l-6 -37 -51 46 c-223 200 -538
129 -681 -155 -63 -125 -87 -280 -62 -400 34 -164 125 -287 259 -355 40 -20
95 -40 122 -44 80 -13 194 2 254 33 29 14 54 25 56 23 5 -5 -49 -288 -54 -288
-3 0 -35 25 -70 55 -120 102 -386 217 -651 282 -158 38 -392 44 -527 13 -295
-68 -499 -198 -672 -430 -112 -150 -174 -300 -175 -425 -1 -95 32 -153 106
-191 46 -23 59 -25 137 -21 47 2 160 14 251 26 200 28 339 24 540 -13 144 -26
171 -33 435 -101 264 -68 339 -79 418 -64 28 5 63 15 79 23 26 14 28 13 28 -7
0 -23 -35 -203 -70 -362 -10 -49 -25 -118 -31 -152 -12 -61 -13 -63 -44 -63
-37 0 -235 40 -525 105 -411 93 -653 143 -1060 220 -359 68 -993 205 -1006
218 -7 7 66 618 81 685 3 13 10 55 15 95 5 40 23 175 40 301 17 127 42 322 55
435 50 428 64 548 70 611 3 36 10 103 15 150 8 72 21 207 45 470 14 156 35
427 46 603 l13 198 61 -7 c33 -3 184 -32 335 -64z m-499 -167 c-11 -114 -23
-242 -26 -283 -3 -41 -10 -122 -16 -180 -5 -58 -23 -249 -39 -425 -17 -176
-36 -372 -44 -435 -8 -63 -17 -144 -21 -180 -4 -36 -8 -76 -10 -90 -3 -14 -11
-83 -20 -155 -8 -71 -22 -182 -30 -245 -9 -63 -20 -151 -26 -195 -29 -237
-136 -988 -151 -1057 -6 -29 -16 -49 -26 -52 -49 -16 -405 -63 -607 -80 -33
-3 -112 -10 -175 -16 -484 -43 -1211 -38 -1609 11 -194 23 -373 54 -450 75
l-53 15 7 132 c4 73 8 139 10 147 1 8 6 56 10 105 9 122 2 130 -147 180 -62
20 -114 38 -115 39 -9 8 78 708 115 931 l27 160 150 60 c146 59 150 61 157 95
4 19 21 152 38 295 34 293 25 272 130 325 89 45 463 213 630 283 616 259 1293
492 1912 658 203 54 391 99 396 94 2 -2 -6 -97 -17 -212z m-2211 -154 l80
-160 -62 -29 c-176 -80 -325 -142 -346 -143 -21 -2 -31 15 -92 156 l-69 157
24 16 c13 8 79 40 147 70 67 30 146 65 173 78 28 13 54 22 58 19 4 -3 44 -76
87 -164z m-1884 -944 c135 -89 319 -226 443 -330 46 -38 95 -79 108 -90 l24
-20 -16 -115 c-8 -63 -15 -116 -15 -117 0 -1 -26 11 -57 27 -111 56 -654 276
-743 301 -25 7 -48 15 -52 19 -9 7 47 407 62 445 l9 24 59 -33 c33 -18 113
-68 178 -111z m6617 -143 c141 -63 226 -246 214 -466 -11 -223 -94 -342 -266
-382 -77 -19 -118 -17 -191 6 -79 25 -117 49 -168 104 -166 180 -147 501 40
670 84 76 140 97 244 92 52 -2 97 -11 127 -24z m-6630 -388 c233 -92 510 -212
536 -231 5 -3 -17 -187 -25 -216 -4 -12 -12 -15 -27 -12 -12 3 -105 14 -207
25 -102 11 -201 23 -220 25 -61 8 -293 34 -360 41 -36 3 -67 8 -70 11 -5 5 58
451 66 464 3 5 8 9 11 9 2 0 136 -52 296 -116z m-198 -459 c66 -8 246 -29 400
-46 154 -17 283 -35 287 -38 9 -8 -11 -243 -22 -255 -12 -13 -148 -37 -785
-141 -49 -8 -101 -18 -114 -22 l-24 -6 7 74 c4 41 14 110 21 154 8 44 19 128
26 188 l12 107 36 0 c20 0 90 -7 156 -15z m6123 -104 c204 -45 447 -144 592
-240 84 -56 179 -149 207 -205 55 -108 35 -251 -51 -380 -83 -123 -206 -186
-336 -173 -51 6 -281 61 -510 122 -279 75 -535 93 -792 56 -271 -39 -297 -38
-335 19 -31 45 -29 96 6 198 55 157 183 337 307 430 116 87 297 166 444 193
83 15 366 3 468 -20z m-5472 -428 c-4 -54 -10 -101 -14 -105 -9 -9 -335 -157
-462 -210 -300 -125 -520 -209 -520 -200 0 22 52 365 61 404 9 39 15 48 37 52
15 3 128 21 252 41 284 45 499 82 570 100 89 21 84 27 76 -82z m777 -1039
l109 -36 -89 -92 c-48 -50 -112 -117 -141 -148 -29 -32 -55 -58 -58 -58 -9 0
-118 77 -158 112 l-38 33 39 35 c153 136 216 189 223 190 3 0 54 -16 113 -36z
m307 -93 c67 -16 127 -34 132 -39 10 -10 -24 -51 -231 -282 -47 -52 -87 -97
-88 -99 -5 -8 -75 29 -146 76 -47 31 -65 49 -60 58 5 7 49 60 98 117 50 57
107 124 128 151 21 26 40 47 42 47 1 0 58 -13 125 -29z m141 -272 c27 -12 49
-23 49 -26 0 -3 -154 -209 -170 -226 -6 -7 -114 34 -128 48 -4 4 64 94 138
183 19 23 41 42 48 42 7 0 36 -10 63 -21z m1832 -449 c51 0 77 -4 75 -11 -6
-17 -132 -178 -140 -179 -5 0 -42 19 -83 42 -49 28 -72 46 -67 54 4 7 27 33
51 59 33 36 49 45 65 41 11 -3 56 -6 99 -6z m288 -10 c38 0 69 -4 69 -8 0 -11
-114 -215 -141 -253 -11 -16 -29 -29 -40 -29 -19 0 -159 66 -159 75 0 4 122
168 156 208 9 11 22 16 30 13 9 -3 47 -6 85 -6z m264 -107 c-31 -60 -77 -139
-103 -178 l-47 -70 -44 3 c-84 5 -85 10 -27 115 28 52 66 126 85 165 l35 72
79 0 78 0 -56 -107z"/>
<path d="M6572 6874 c-93 -31 -169 -79 -218 -138 -72 -86 -84 -125 -45 -146
20 -10 36 -2 113 56 131 100 275 144 405 123 40 -6 79 -9 87 -6 45 17 -14 95
-92 122 -68 23 -164 19 -250 -11z"/>
<path d="M6579 6428 c-83 -21 -139 -49 -204 -101 -77 -63 -142 -144 -186 -233
-126 -258 -79 -592 110 -784 113 -115 226 -156 408 -148 97 4 108 7 190 48
168 82 296 246 337 430 73 328 -48 637 -297 755 -121 58 -222 67 -358 33z
m226 -79 c86 -16 151 -53 226 -128 52 -53 72 -82 99 -146 30 -71 34 -93 38
-196 8 -223 -35 -349 -162 -475 -159 -156 -343 -198 -522 -119 -110 49 -231
205 -265 345 -22 89 -18 262 8 345 54 173 205 327 362 371 58 16 141 17 216 3z"/>
<path d="M6785 5994 c-87 -45 -130 -134 -122 -254 9 -127 58 -204 146 -231 62
-18 107 -4 161 50 63 63 85 127 77 231 -10 146 -76 220 -197 220 -19 0 -48 -7
-65 -16z"/>
<path d="M8208 6368 c-16 -12 -22 -29 -19 -54 0 -7 46 -31 100 -54 106 -44
198 -115 241 -186 50 -81 93 -4 51 91 -30 67 -111 148 -180 179 -71 32 -168
44 -193 24z"/>
<path d="M4774 6616 c-78 -17 -148 -37 -156 -44 -19 -15 -34 -108 -50 -296
-11 -145 -11 -147 10 -168 20 -21 24 -21 89 -9 37 7 108 19 156 26 49 8 94 18
101 24 15 13 30 77 50 221 28 195 31 244 12 263 -23 22 -45 21 -212 -17z m141
-78 c-4 -20 -24 -165 -39 -283 -3 -22 -5 -40 -6 -40 0 -1 -15 -2 -32 -3 -18
-1 -60 -7 -93 -12 -112 -18 -108 -20 -101 58 7 69 23 190 32 229 4 24 20 30
144 56 96 21 101 21 95 -5z"/>
<path d="M4099 6195 c-3 -2 -65 -14 -139 -25 -225 -35 -234 -38 -245 -95 -10
-54 -25 -258 -25 -342 0 -72 2 -84 21 -97 12 -8 34 -13 48 -11 14 3 90 14 168
26 85 13 147 27 154 35 6 8 15 67 20 131 5 65 15 171 22 236 12 106 12 119 -3
132 -9 8 -19 13 -21 10z m-66 -222 c-7 -65 -16 -141 -19 -170 -4 -37 -10 -54
-23 -58 -27 -8 -216 -33 -220 -29 -2 2 2 79 10 172 l14 167 90 16 c50 9 106
17 126 18 l36 1 -14 -117z"/>
<path d="M3212 5938 c-15 -19 -21 -79 -48 -476 -10 -154 4 -161 240 -121 128
21 166 37 166 69 0 23 -29 41 -56 34 -10 -2 -75 -13 -143 -23 l-123 -18 6 156
c4 86 9 172 11 191 15 142 16 172 5 185 -15 18 -44 19 -58 3z"/>
<path d="M5029 5789 c-52 -52 -113 -251 -151 -494 -29 -184 -32 -547 -6 -695
26 -144 63 -264 118 -377 49 -100 76 -130 107 -119 21 8 15 42 -36 206 -87
285 -110 555 -76 905 22 232 35 311 86 516 19 74 0 100 -42 58z"/>
<path d="M3045 5090 c-27 -5 -81 -11 -120 -15 -93 -10 -112 -18 -119 -52 -3
-15 -13 -109 -22 -208 l-16 -179 22 -18 c12 -10 35 -18 51 -18 49 0 233 22
256 31 26 10 26 10 48 251 21 230 23 226 -100 208z m21 -137 c-3 -27 -8 -79
-12 -118 -6 -71 -13 -128 -17 -131 -1 -1 -42 -5 -91 -9 l-89 -8 6 59 c4 33 9
98 13 146 l7 88 31 5 c35 6 88 11 129 13 29 2 29 2 23 -45z"/>
<path d="M3438 5054 c-37 -20 -44 -36 -62 -140 -39 -232 -54 -567 -34 -759 12
-114 37 -245 54 -277 32 -62 119 -72 253 -28 l63 21 52 -50 c57 -53 109 -74
160 -64 39 8 159 74 228 126 247 186 358 274 450 354 l106 93 -4 258 c-2 141
-7 271 -9 288 -5 28 -11 32 -73 52 -193 63 -622 118 -1062 137 -70 3 -102 0
-122 -11z m432 -145 c85 -6 265 -24 400 -40 135 -16 259 -29 277 -29 17 0 35
-5 39 -11 4 -7 7 -46 7 -88 l-1 -76 -73 -7 c-41 -3 -110 -9 -154 -13 -44 -3
-96 -8 -115 -10 -19 -3 -89 -9 -155 -15 -66 -5 -227 -19 -359 -30 -131 -11
-244 -20 -250 -20 -12 0 -12 12 4 195 15 168 5 155 124 155 55 0 171 -5 256
-11z m720 -408 c0 -44 2 -86 5 -93 3 -8 -4 -19 -17 -26 -181 -89 -910 -384
-1006 -406 -47 -11 -64 -12 -67 -3 -15 41 -27 167 -32 328 l-6 186 84 7 c46 4
98 9 114 11 17 3 152 14 300 25 149 11 284 22 300 25 17 2 80 7 140 11 61 4
112 8 114 10 2 2 19 4 38 4 l33 0 0 -79z"/>
<path d="M8192 5640 c-129 -93 -134 -341 -10 -433 34 -26 105 -26 148 0 42 25
86 94 101 158 46 207 -100 376 -239 275z"/>
<path d="M7255 4592 c-104 -10 -229 -54 -315 -112 -95 -65 -190 -180 -176
-216 8 -22 40 -16 67 12 74 79 217 131 334 120 84 -7 544 -99 780 -157 164
-39 172 -40 208 -26 32 14 37 20 37 49 0 42 -31 93 -67 111 -39 20 -436 150
-558 183 -94 25 -242 43 -310 36z"/>
<path d="M2915 8252 c-95 -44 -139 -156 -100 -250 54 -128 201 -160 306 -65
89 80 75 234 -27 301 -48 31 -129 38 -179 14z m125 -87 c16 -8 34 -24 40 -34
23 -44 2 -131 -35 -145 -54 -21 -139 13 -151 59 -24 95 60 164 146 120z"/>
<path d="M0 7586 c0 -25 2 -46 4 -46 2 0 78 -14 168 -31 242 -45 337 -69 342
-88 5 -17 51 -439 61 -561 3 -41 8 -97 10 -125 3 -27 12 -129 20 -225 8 -96
20 -199 26 -228 11 -54 33 -77 64 -65 15 5 16 16 11 77 -14 173 -19 386 -9
386 6 0 96 -19 199 -41 104 -23 201 -44 217 -47 15 -2 32 -12 37 -22 5 -10 17
-78 25 -151 31 -262 34 -284 41 -317 11 -53 67 -67 76 -19 12 64 -34 520 -56
555 -3 5 -18 14 -33 21 -25 10 -382 89 -475 105 -28 5 -39 13 -43 29 -5 24
-30 259 -40 377 -4 41 -13 128 -20 194 -15 128 -29 158 -83 170 -170 36 -430
86 -480 92 l-62 7 0 -47z"/>
<path d="M2074 7484 c-84 -43 -87 -186 -4 -229 47 -24 86 -19 126 18 42 38 57
95 40 147 -21 62 -102 94 -162 64z m73 -72 c7 -4 16 -22 19 -40 6 -27 3 -33
-20 -43 -20 -9 -29 -9 -41 1 -20 17 -19 60 3 76 20 16 23 16 39 6z"/>
<path d="M9350 7300 c-24 -24 -25 -38 -5 -67 23 -32 54 -35 81 -8 31 31 30 49
-2 74 -33 26 -49 26 -74 1z"/>
<path d="M2410 6592 c-29 -24 -21 -67 15 -84 52 -23 89 54 43 86 -28 20 -31
20 -58 -2z"/>
<path d="M9452 6233 c-50 -43 -24 -123 39 -123 35 0 79 39 79 70 0 28 -44 70
-73 70 -14 0 -34 -8 -45 -17z"/>
<path d="M0 5591 c0 -49 1 -51 28 -51 23 0 207 -26 322 -46 95 -16 315 -65
322 -72 9 -9 19 -81 53 -377 30 -263 35 -280 78 -294 95 -30 239 -62 264 -59
23 2 29 8 31 35 4 39 -4 43 -118 73 -123 32 -140 39 -140 64 0 19 -9 109 -25
246 -23 199 -35 291 -45 337 -14 62 10 52 -270 113 -171 37 -297 58 -442 75
l-58 6 0 -50z"/>
<path d="M9389 4796 c-87 -31 -139 -104 -139 -196 1 -152 136 -250 268 -194
145 60 176 248 59 351 -57 50 -121 63 -188 39z m141 -111 c35 -34 45 -74 30
-120 -17 -52 -62 -85 -117 -85 -38 0 -50 5 -80 35 -34 34 -35 38 -31 92 4 48
10 61 38 86 29 26 38 29 82 25 36 -4 57 -13 78 -33z"/>
<path d="M497 4283 c-17 -16 -2 -56 61 -158 73 -119 111 -150 97 -78 -11 62
-76 202 -103 223 -26 21 -44 25 -55 13z"/>
<path d="M9071 3824 c-37 -30 -56 -88 -47 -138 19 -100 141 -142 214 -74 100
94 46 238 -90 238 -35 0 -54 -6 -77 -26z m120 -70 c22 -26 20 -50 -6 -74 -21
-20 -28 -22 -50 -12 -13 6 -27 23 -31 37 -12 50 55 88 87 49z"/>
<path d="M1939 3433 c-4 -26 10 -75 71 -251 38 -108 76 -216 85 -239 19 -46
42 -62 52 -37 13 34 -116 440 -161 509 -15 23 -45 34 -47 18z"/>
<path d="M1360 3375 c0 -14 15 -74 34 -133 56 -175 92 -307 131 -487 29 -132
42 -174 59 -190 15 -15 69 -31 177 -54 222 -47 391 -90 415 -106 23 -15 71
-164 124 -390 56 -238 62 -260 76 -282 15 -24 48 -31 59 -13 20 32 -110 598
-163 708 -30 62 -99 86 -456 157 -93 19 -172 37 -177 42 -4 4 -30 103 -58 218
-28 116 -61 242 -72 280 -29 94 -87 236 -106 258 -23 25 -43 21 -43 -8z"/>
<path d="M644 3327 c-6 -17 19 -112 52 -199 21 -57 36 -77 89 -124 36 -31 66
-63 69 -72 2 -10 13 -60 25 -112 80 -367 98 -426 124 -417 21 7 11 113 -26
277 -61 273 -70 297 -138 361 -53 49 -65 68 -105 164 -24 60 -50 115 -56 122
-13 17 -27 17 -34 0z"/>
<path d="M9099 2981 c-49 -51 -80 -97 -121 -177 -113 -222 -168 -459 -194
-834 -3 -52 -8 -96 -9 -98 -2 -2 -8 30 -15 70 -37 235 -91 478 -130 580 -26
69 -71 112 -108 103 -69 -17 -103 -69 -122 -188 -27 -169 2 -322 124 -642 25
-66 46 -124 46 -128 0 -5 -36 36 -79 90 -112 139 -185 193 -261 193 -35 0 -80
-38 -80 -68 0 -39 40 -148 75 -207 20 -33 66 -91 103 -129 39 -40 59 -66 47
-62 -61 17 -306 69 -414 87 -95 16 -182 22 -351 25 -355 5 -524 -29 -1111
-221 -501 -165 -639 -195 -891 -195 -121 0 -329 27 -443 58 -38 11 -151 45
-250 77 -206 65 -412 118 -535 137 -96 14 -483 17 -630 5 -52 -4 -133 -14
-180 -21 -47 -7 -85 -13 -86 -12 -1 1 -20 96 -43 211 -25 126 -49 220 -59 234
-22 30 -143 74 -363 131 -90 24 -167 48 -171 54 -4 6 -21 55 -38 109 -40 128
-133 357 -171 421 -24 40 -52 45 -57 10 -2 -12 27 -102 64 -200 37 -99 81
-223 99 -277 18 -54 41 -107 51 -118 9 -10 40 -26 68 -34 28 -8 121 -36 206
-60 231 -68 238 -71 250 -114 27 -102 82 -373 77 -377 -5 -4 -469 -96 -603
-119 l-152 -27 -363 180 c-200 99 -407 197 -459 217 -378 147 -713 231 -1084
271 -163 18 -530 24 -659 10 l-77 -8 0 -50 c0 -44 2 -49 17 -43 10 4 135 10
278 12 367 7 606 -22 985 -117 301 -75 530 -166 944 -375 396 -199 479 -237
811 -372 271 -110 563 -209 730 -246 94 -21 206 -30 225 -18 27 18 -8 37 -110
61 -269 63 -679 218 -1062 400 -35 17 -36 30 -2 30 38 0 215 27 399 60 213 39
203 37 329 55 61 9 125 18 141 20 132 19 369 27 520 16 231 -16 330 -36 620
-126 387 -120 499 -144 725 -152 275 -9 434 22 910 181 722 241 1079 281 1620
180 201 -38 412 -93 433 -113 17 -16 15 -18 -40 -41 -215 -87 -526 -224 -688
-300 -672 -319 -1052 -420 -1575 -420 -142 0 -170 -2 -181 -16 -20 -24 10 -41
89 -50 68 -7 414 1 487 11 466 66 742 159 1482 499 245 112 625 264 753 300
91 26 336 65 482 78 162 14 305 3 516 -37 112 -22 323 -77 385 -101 15 -5 17
1 17 44 l0 51 -83 25 c-109 34 -224 60 -377 88 -105 19 -159 22 -340 22 -118
0 -237 -5 -265 -11 -27 -6 -52 -9 -54 -7 -10 9 48 101 237 377 114 165 158
268 167 387 7 89 -2 127 -37 153 -61 45 -147 -13 -252 -171 -63 -95 -170 -288
-213 -387 -12 -27 -22 -45 -23 -40 -1 41 101 398 163 570 96 265 115 337 123
452 8 106 -5 166 -42 207 -41 44 -70 36 -145 -43z m111 -104 c0 -87 -25 -194
-80 -347 -77 -213 -119 -344 -154 -485 -36 -142 -106 -531 -106 -588 0 -23 -3
-28 -11 -20 -8 8 -10 90 -6 290 7 390 39 622 114 837 71 206 197 413 235 390
5 -3 8 -38 8 -77z m-657 -379 c28 -77 74 -272 92 -388 3 -19 12 -71 20 -115 8
-44 29 -163 45 -265 17 -102 40 -216 50 -254 20 -72 20 -94 0 -56 -24 45 -210
554 -240 657 -48 165 -53 397 -8 450 17 21 24 16 41 -29z m898 -255 c-29 -130
-110 -282 -250 -472 -44 -59 -105 -154 -137 -212 -65 -118 -63 -114 -69 -108
-2 3 3 25 11 49 9 25 25 81 36 125 66 260 355 742 412 685 6 -6 4 -32 -3 -67z
m-1102 -461 c53 -53 124 -138 158 -188 64 -94 135 -225 126 -234 -2 -3 -23 15
-46 40 -22 25 -81 88 -130 140 -108 114 -167 192 -201 265 -51 107 -28 101 93
-23z"/>
<path d="M1181 2727 c-19 -19 -12 -65 37 -263 45 -179 69 -244 92 -244 17 0
22 48 10 107 -20 99 -80 347 -91 375 -13 31 -32 41 -48 25z"/>
<path d="M7292 2328 c-19 -19 -14 -56 8 -68 43 -23 82 19 59 62 -11 20 -49 24
-67 6z"/>
<path d="M6816 2198 c-24 -34 -20 -73 10 -97 15 -12 32 -21 39 -21 7 0 24 9
39 21 32 25 36 77 8 102 -27 25 -78 22 -96 -5z"/>
<path d="M3826 2148 c-21 -30 -20 -54 4 -78 41 -41 110 -14 110 43 0 35 -25
57 -65 57 -24 0 -39 -7 -49 -22z"/>
<path d="M815 1293 c-57 -10 -65 -14 -65 -33 0 -19 49 -40 97 -40 49 0 214
-40 293 -71 70 -28 230 -123 250 -149 17 -23 177 -115 242 -140 110 -42 200
-60 373 -71 194 -13 271 -34 420 -115 292 -158 419 -205 564 -208 57 -1 85 3
88 11 6 16 -41 39 -97 48 -127 21 -270 83 -483 211 -141 85 -249 113 -507 134
-74 6 -166 18 -205 27 -90 19 -212 84 -346 181 -174 128 -338 194 -514 208
-38 3 -74 7 -80 8 -5 1 -19 1 -30 -1z"/>
<path d="M7115 1091 c-38 -10 -108 -33 -155 -53 -74 -30 -85 -37 -85 -58 0
-16 7 -26 18 -28 9 -2 73 15 142 37 92 30 153 43 226 50 109 9 134 20 106 48
-25 25 -163 28 -252 4z"/>
<path d="M9110 973 c-40 -7 -152 -44 -192 -65 -25 -12 -38 -25 -38 -39 0 -30
23 -33 92 -11 35 11 92 26 128 32 36 7 89 17 118 22 96 18 75 69 -27 67 -31
-1 -67 -4 -81 -6z"/>
<path d="M4313 943 c-19 -7 -16 -40 5 -48 9 -3 54 -13 100 -21 105 -18 357
-89 532 -149 74 -25 176 -53 225 -62 113 -19 268 -14 293 11 10 10 13 19 7 25
-6 5 -77 14 -160 20 -147 11 -154 13 -370 86 -330 111 -570 164 -632 138z"/>
<path d="M8440 709 c-82 -16 -140 -47 -140 -74 0 -24 33 -25 112 -4 95 26 129
49 109 73 -15 18 -16 18 -81 5z"/>
</g>
</svg>
