<?xml version="1.0" standalone="no"?>
<!DOCTYPE svg PUBLIC "-//W3C//DTD SVG 20010904//EN"
 "http://www.w3.org/TR/2001/REC-SVG-20010904/DTD/svg10.dtd">
<svg version="1.0" xmlns="http://www.w3.org/2000/svg"
 width="1024.000000pt" height="1024.000000pt" viewBox="0 0 1024.000000 1024.000000"
 preserveAspectRatio="xMidYMid meet">
<metadata>
Created by potrace 1.16, written by Peter Selinger 2001-2019
</metadata>
<g transform="translate(0.000000,1024.000000) scale(0.100000,-0.100000)"
fill="#000000" stroke="none">
<path d="M4090 9979 c-58 -4 -215 -13 -350 -19 -627 -29 -1085 -77 -1241 -131
-320 -109 -1317 -771 -1678 -1114 -91 -87 -128 -140 -147 -211 -16 -65 -18
-210 -4 -344 6 -52 17 -160 26 -240 21 -194 55 -443 153 -1110 68 -457 80
-548 101 -720 22 -176 42 -319 65 -465 8 -49 26 -166 40 -260 74 -486 116
-689 160 -775 45 -88 121 -139 277 -184 88 -25 411 -96 440 -96 9 0 20 -6 25
-12 10 -13 -33 -474 -71 -768 -15 -111 -130 -824 -141 -875 -3 -11 -22 -28
-45 -39 -30 -13 -55 -38 -91 -90 -73 -103 -287 -463 -348 -586 -50 -98 -53
-109 -48 -162 9 -103 101 -287 237 -478 95 -134 143 -185 198 -212 46 -23 53
-23 352 -23 233 0 314 3 344 14 23 8 65 40 103 77 37 38 65 59 68 52 3 -12 10
-77 31 -318 4 -43 15 -92 26 -115 27 -54 281 -304 398 -392 156 -117 159 -118
335 -116 294 2 830 104 919 174 55 43 105 182 156 434 37 179 54 331 47 403
-8 73 -32 105 -209 277 -81 79 -144 146 -140 149 5 3 77 15 160 27 l153 22 48
-54 c107 -122 256 -297 292 -344 36 -48 40 -60 69 -224 34 -195 44 -223 91
-267 88 -82 354 -233 494 -280 75 -25 88 -26 205 -21 214 10 496 65 680 134
121 45 147 64 176 127 55 121 98 437 98 731 1 190 0 202 -22 247 -18 36 -39
58 -90 91 -120 79 -407 230 -553 291 l-66 28 -6 241 c-4 133 -12 294 -19 357
-7 70 -12 274 -13 525 0 345 4 460 24 722 14 172 28 318 32 324 3 6 150 40
325 75 621 123 809 167 967 224 138 50 206 113 240 224 23 73 40 275 32 383
-4 51 -4 96 -1 101 3 5 81 -19 173 -55 379 -144 647 -228 696 -217 62 13 127
164 182 423 14 69 30 130 35 136 7 8 89 14 258 19 421 12 731 34 766 54 50 29
58 75 53 322 -3 170 -9 238 -26 324 -30 147 -68 264 -99 305 l-25 34 -76 -6
c-86 -7 -288 -48 -496 -102 -221 -57 -399 -95 -407 -87 -4 4 -28 49 -52 100
-25 51 -50 92 -56 92 -5 0 -10 -3 -10 -7 1 -24 52 -189 65 -210 33 -50 58 -49
405 18 517 99 578 109 590 94 26 -32 77 -355 86 -550 7 -152 1 -230 -20 -238
-7 -3 -85 -11 -172 -17 -338 -25 -761 -61 -793 -68 -45 -10 -67 -42 -87 -127
-32 -137 -74 -275 -105 -344 -28 -62 -35 -71 -58 -71 -14 0 -240 72 -501 160
-261 89 -596 201 -743 251 -147 50 -275 89 -285 87 -18 -4 203 -107 393 -183
66 -27 125 -53 132 -59 7 -7 13 -53 15 -121 l3 -110 -35 -17 c-37 -18 -126
-42 -196 -53 l-41 -6 -12 123 c-17 174 -33 179 -29 8 l3 -135 -40 -7 c-22 -4
-67 -11 -100 -15 l-60 -8 -6 -175 c-3 -96 -11 -187 -17 -201 -7 -17 -20 -28
-39 -31 -15 -3 -118 -23 -228 -46 -503 -103 -1117 -210 -1415 -247 -25 -3
-109 -14 -186 -25 -273 -38 -702 -87 -919 -104 -317 -26 -390 -28 -449 -16
-93 19 -133 65 -161 182 -21 90 -71 390 -90 543 -41 338 -163 1219 -179 1300
l-14 70 -1 -50 c0 -27 4 -88 9 -135 14 -125 26 -239 60 -595 35 -362 70 -664
105 -905 38 -261 62 -359 101 -401 8 -9 12 -19 7 -22 -12 -7 -189 9 -418 39
-154 19 -203 29 -213 42 -46 60 -88 308 -127 747 -20 226 -37 279 -29 90 11
-286 48 -608 85 -731 36 -122 36 -117 3 -110 -16 3 -108 19 -204 36 -191 32
-435 77 -462 86 -45 14 -100 264 -158 714 -48 376 -42 346 -72 353 -11 3 -59
3 -107 0 -65 -4 -90 -2 -96 7 -6 10 -54 320 -55 358 0 6 -5 12 -11 12 -13 0
-6 -128 16 -275 8 -49 11 -93 9 -97 -6 -9 -135 -9 -214 0 -53 7 -54 8 -62 44
-11 55 -142 954 -183 1258 -19 146 -42 312 -50 370 -23 164 -26 153 62 210 42
28 81 49 87 47 6 -2 16 -51 22 -108 16 -149 65 -424 78 -437 10 -9 7 40 -10
149 -9 57 -24 174 -34 259 l-18 155 24 20 c47 40 544 280 604 291 l28 6 12
-88 c11 -83 72 -496 105 -713 24 -154 57 -322 63 -317 2 3 0 40 -7 83 -15 105
-72 533 -74 558 -4 39 443 250 703 333 123 40 181 55 187 48 3 -3 25 -132 49
-288 48 -309 62 -388 71 -388 8 0 -2 116 -21 255 -20 140 -92 674 -101 740
-21 164 -79 603 -105 798 -17 126 -28 232 -25 236 12 20 450 121 525 121 10 0
21 -8 24 -17 9 -31 54 -265 67 -355 12 -82 29 -119 29 -64 0 46 -31 260 -50
346 -10 47 -15 89 -10 93 4 5 82 16 171 26 l164 16 3 35 c8 76 -42 341 -83
443 -15 38 -26 70 -24 72 2 2 74 8 159 14 663 46 1744 48 2213 5 l68 -7 26
-50 c27 -53 67 -204 78 -297 12 -92 9 -90 143 -91 167 -2 173 -4 188 -62 7
-27 27 -139 45 -250 17 -111 36 -218 40 -238 l9 -36 147 -6 c152 -7 228 -18
244 -34 18 -18 105 -565 159 -999 17 -137 43 -343 59 -459 49 -356 61 -449 61
-481 0 -33 3 -31 -394 -333 -75 -57 -136 -107 -136 -113 0 -11 -16 -21 229
135 183 116 411 272 680 465 114 82 154 125 146 155 -4 12 -20 50 -36 83 -16
34 -29 66 -29 71 0 6 26 30 58 55 63 50 336 241 394 276 l37 23 30 -44 c75
-110 195 -368 216 -465 7 -32 6 -32 -67 -67 -40 -18 -210 -94 -378 -169 -615
-272 -1160 -529 -1147 -542 8 -8 277 88 394 141 30 13 33 13 43 -4 5 -10 12
-68 16 -127 l6 -109 -214 -70 c-163 -54 -205 -71 -180 -73 45 -4 150 18 392
84 257 69 487 141 495 154 11 17 -69 11 -206 -16 -96 -18 -134 -22 -139 -14
-4 6 -10 57 -14 113 -4 56 -8 111 -9 122 -2 17 16 27 108 63 61 24 166 68 235
97 69 29 198 83 286 119 315 127 447 194 464 235 22 55 -59 300 -151 452 -67
112 -116 174 -153 194 -31 17 -34 17 -72 -3 -56 -29 -243 -161 -350 -248 -106
-85 -164 -147 -164 -172 0 -9 14 -46 30 -80 17 -35 30 -70 30 -77 0 -7 -68
-61 -151 -120 -160 -115 -169 -117 -169 -48 0 17 -9 103 -20 190 -25 205 -57
467 -75 618 -38 314 -136 962 -186 1228 -101 543 -167 749 -265 836 -105 92
-346 128 -1224 181 -197 11 -1219 11 -1380 -1z m2005 -204 c191 -16 445 -64
484 -92 42 -30 79 -118 120 -284 40 -159 135 -628 129 -635 -2 -2 -22 1 -44 8
-21 6 -104 13 -184 17 l-145 6 -7 65 c-26 217 -77 474 -101 497 -12 13 -146
24 -283 23 -6 0 -17 34 -23 78 -19 119 -49 238 -71 282 -11 21 -20 42 -20 45
0 3 17 3 38 1 20 -3 69 -8 107 -11z m-2628 -89 c27 -68 65 -238 88 -392 l6
-41 -128 -12 c-249 -24 -572 -79 -707 -122 -34 -10 -66 -19 -72 -19 -14 0 -45
293 -45 424 0 112 14 146 70 170 63 27 517 75 676 72 l80 -1 32 -79z m-924
-48 c-27 -106 38 -661 174 -1493 30 -187 56 -355 57 -374 l1 -34 -75 -19
c-106 -26 -249 -74 -360 -120 -102 -43 -406 -193 -428 -211 -10 -8 -16 -7 -21
1 -4 6 -20 101 -35 209 -16 109 -33 206 -38 216 -5 9 -18 17 -29 17 -21 0
-189 -67 -292 -115 -32 -15 -60 -25 -64 -22 -13 14 -71 367 -104 637 -21 173
-36 499 -26 541 5 18 56 59 184 149 98 68 218 152 267 186 49 35 92 61 97 59
4 -3 5 -36 2 -73 -8 -103 57 -580 87 -631 13 -23 13 -7 -5 119 -47 323 -58
452 -50 546 l7 73 157 99 c222 140 458 271 489 272 10 0 12 -8 5 -32z m-1270
-975 c3 -109 13 -254 21 -323 24 -184 75 -516 92 -588 8 -35 14 -67 14 -72 0
-6 -33 -26 -72 -46 -97 -49 -293 -160 -346 -196 -24 -17 -46 -27 -50 -24 -7 7
-37 252 -77 623 -28 257 -31 375 -13 436 16 52 101 138 268 267 71 55 132 104
135 110 17 28 23 -7 28 -187z m433 -3166 c6 -3 14 -44 18 -89 24 -291 92 -734
130 -848 14 -41 23 -76 21 -79 -13 -12 -385 79 -443 108 -72 37 -112 154 -172
506 -29 170 -60 376 -60 399 0 12 487 15 506 3z m5534 -347 c0 -62 -21 -192
-35 -220 -34 -65 -125 -110 -328 -160 -136 -34 -152 -36 -140 -17 4 6 10 88
13 182 l5 169 115 13 c155 17 260 38 312 61 24 10 46 17 51 15 4 -2 7 -22 7
-43z m-1584 -992 c-14 -172 -18 -199 -35 -207 -56 -30 -599 -120 -746 -124
l-70 -2 -3 120 -3 120 228 44 c255 49 596 121 602 127 2 2 11 4 19 4 12 0 13
-14 8 -82z m-3344 -142 c92 -25 174 -46 181 -46 32 0 34 -25 13 -217 -12 -106
-25 -195 -29 -199 -19 -19 -412 179 -412 207 0 27 27 284 31 298 5 16 4 16
216 -43z m2459 -97 c4 -74 7 -165 8 -204 2 -86 21 -70 21 17 l0 56 88 7 c48 4
141 15 207 25 66 9 123 16 126 14 3 -2 9 -124 13 -271 9 -346 16 -462 31 -477
17 -16 156 -4 265 24 45 12 85 19 87 16 3 -3 11 -94 19 -203 7 -109 16 -228
19 -264 4 -48 2 -69 -7 -76 -37 -30 -378 -110 -493 -115 l-60 -3 -6 111 c-4
62 -10 126 -14 142 -11 52 -23 55 -122 37 -231 -43 -698 -109 -713 -100 -4 2
-10 91 -14 197 -10 292 -23 318 -25 48 -1 -229 2 -265 22 -273 28 -10 312 27
582 75 94 16 186 31 205 32 l35 1 8 -65 c12 -96 12 -580 1 -615 -10 -29 -14
-31 -140 -57 -174 -36 -354 -68 -694 -123 -157 -25 -306 -49 -333 -54 -26 -4
-50 -5 -52 -1 -3 4 2 52 10 106 19 124 20 343 3 367 -12 16 -22 16 -151 1 -76
-9 -140 -14 -143 -11 -3 3 -1 56 5 118 13 131 13 246 2 304 -6 32 -9 17 -15
-80 -14 -247 -24 -338 -38 -347 -15 -10 -463 -6 -474 4 -4 4 1 76 10 160 21
199 46 523 47 618 0 41 3 92 7 112 l7 37 195 5 c193 5 370 25 419 49 38 18 43
62 45 364 l1 272 35 5 c19 3 114 17 210 31 184 28 640 102 700 115 19 4 40 7
45 5 6 -1 13 -60 16 -136z m-2005 -13 c88 -19 192 -40 232 -47 l72 -13 0 -36
c0 -20 -4 -94 -10 -166 -5 -71 -17 -250 -26 -399 -9 -148 -21 -335 -28 -415
-11 -136 -13 -145 -31 -142 -61 10 -329 165 -393 226 -21 20 -22 27 -13 67 13
55 -4 77 -17 23 -6 -22 -20 -103 -33 -181 -12 -78 -25 -147 -29 -154 -5 -7
-53 19 -141 79 -217 145 -379 277 -379 307 0 7 18 136 40 286 22 150 40 289
40 309 0 63 9 65 93 20 88 -48 84 -33 62 -195 -18 -132 -19 -163 -5 -149 5 5
19 70 30 144 12 74 23 136 25 139 3 2 10 -1 17 -6 23 -18 185 -83 206 -83 26
0 35 42 58 252 19 186 18 182 48 174 13 -3 95 -21 182 -40z m2867 -17 c-2 -13
-6 -180 -9 -371 l-7 -347 -26 -10 c-80 -31 -294 -71 -308 -58 -9 9 -30 734
-22 741 2 1 51 10 109 20 58 9 137 25 175 35 83 22 91 22 88 -10z m-1897 -96
c7 -101 -1 -459 -12 -487 -7 -19 -17 -22 -139 -42 -114 -18 -462 -31 -474 -18
-4 5 -5 142 -2 304 l6 295 110 2 c100 2 230 13 375 33 30 4 71 8 92 9 l36 1 8
-97z m-1734 -824 c18 -17 75 -62 126 -100 50 -39 92 -72 92 -73 0 -2 -9 -45
-20 -97 -22 -109 -50 -312 -50 -370 0 -21 -2 -39 -5 -39 -11 0 -251 191 -262
209 -13 21 -12 33 42 336 25 141 31 165 40 165 2 0 19 -14 37 -31z m583 -89
c22 -35 286 -192 371 -220 l36 -12 -7 -77 c-3 -42 -17 -193 -31 -336 -13 -143
-27 -307 -31 -363 -4 -69 -10 -105 -19 -109 -22 -8 -539 343 -683 464 l-44 37
6 100 c6 94 51 389 63 407 2 5 52 -23 109 -61 102 -67 141 -87 151 -77 8 7 44
188 44 218 0 35 20 53 35 29z m3078 -461 c3 -67 3 -147 0 -177 -8 -72 4 -67
-378 -162 -109 -27 -201 -47 -203 -46 -2 2 2 32 8 65 6 34 11 117 10 184 -1
67 -1 128 -1 135 1 6 14 12 29 12 69 0 455 84 499 108 10 6 20 9 24 7 3 -3 9
-59 12 -126z m-3814 -11 l70 -82 -20 -31 c-11 -16 -42 -63 -67 -102 -26 -40
-51 -73 -57 -73 -10 0 -79 82 -123 146 l-22 32 56 88 c52 83 69 103 86 104 3
0 38 -37 77 -82z m101 -127 c0 -5 58 -70 130 -144 l130 -135 -126 -198 c-69
-110 -155 -243 -191 -298 l-65 -98 -30 28 c-17 16 -48 53 -70 82 l-39 53 47
80 c25 44 44 82 41 85 -5 5 -65 -75 -87 -116 l-13 -24 -16 21 c-79 102 -71 96
-93 76 -11 -9 -35 -46 -55 -80 -19 -35 -36 -63 -38 -63 -6 0 -92 162 -110 205
l-16 41 106 192 c58 106 117 211 131 234 l27 42 26 -31 c110 -127 133 -153
140 -153 5 0 39 47 77 105 61 92 94 126 94 96z m1880 -118 c0 -121 -23 -330
-38 -345 -17 -17 -643 -88 -780 -88 l-55 0 6 43 c26 216 60 472 61 475 2 1 49
-3 106 -8 110 -12 351 -1 545 25 55 7 112 13 128 14 l27 1 0 -117z m2048 -124
c56 -30 102 -57 102 -60 0 -4 -40 -16 -89 -27 -97 -23 -161 -46 -161 -59 0 -5
41 -35 92 -68 101 -66 148 -102 148 -115 0 -5 -26 -14 -57 -20 -32 -7 -144
-34 -250 -62 l-192 -50 -135 89 c-75 48 -136 93 -136 99 0 6 46 25 103 42 115
37 155 56 92 46 -70 -11 -158 -35 -198 -54 l-38 -19 -99 62 c-55 34 -100 65
-100 69 0 3 53 18 118 33 268 62 525 135 589 169 32 16 49 10 211 -75z m236
-128 c39 -21 91 -50 116 -65 25 -15 60 -34 78 -43 42 -22 41 -31 -5 -38 -21
-4 -94 -18 -162 -31 l-124 -25 -36 31 c-45 38 -180 130 -192 130 -5 0 -9 6 -9
14 0 8 28 19 78 31 42 9 91 21 107 25 54 15 77 10 149 -29z m-3832 -102 c34
-68 68 -137 75 -153 l13 -29 -77 7 c-85 8 -210 30 -219 39 -3 3 6 23 19 44 14
22 46 81 72 132 25 51 48 91 50 89 3 -2 32 -60 67 -129z m389 -1 c43 -33 110
-100 159 -159 122 -147 113 -127 96 -211 -8 -40 -18 -124 -22 -185 -3 -62 -9
-113 -12 -113 -9 0 -214 194 -239 226 -19 26 -28 55 -38 136 -8 57 -23 159
-35 228 -11 69 -20 133 -20 143 0 21 -9 26 111 -65z m2324 11 c64 -43 76 -55
71 -73 -9 -30 -34 -154 -40 -198 -5 -41 10 -63 19 -26 3 13 14 63 24 112 11
48 24 93 30 99 7 7 57 -21 159 -87 82 -53 157 -105 167 -116 16 -18 19 -55 25
-417 4 -219 4 -401 1 -405 -13 -15 -376 181 -454 244 -24 20 -30 37 -47 133
-39 214 -51 269 -65 294 -7 14 -50 68 -94 120 -45 52 -81 100 -81 107 0 19
186 264 201 264 4 0 42 -23 84 -51z m-1033 -195 c62 -59 114 -110 116 -114 1
-4 -26 -10 -60 -14 -57 -6 -188 -34 -196 -42 -2 -1 26 -37 62 -80 36 -42 66
-81 66 -85 0 -8 -9 -10 -234 -34 -82 -9 -210 -27 -283 -39 -123 -21 -136 -21
-153 -7 -31 28 -180 209 -180 219 0 14 111 43 243 62 65 10 120 20 124 23 6 7
-28 57 -75 111 -19 21 -30 42 -25 46 4 4 85 15 178 25 94 9 190 21 215 25 86
14 83 16 202 -96z m2446 -9 c1 -55 -1 -143 -5 -195 l-8 -95 -80 -24 c-129 -38
-116 -57 -118 177 -1 111 -2 202 -2 202 0 3 184 37 195 36 12 -1 16 -21 18
-101z m-3272 43 c103 7 188 11 189 9 0 -1 26 -32 58 -69 32 -37 54 -69 50 -71
-5 -3 -39 -8 -78 -12 -103 -10 -212 -32 -248 -50 -30 -15 -32 -15 -57 12 -109
115 -170 183 -170 192 0 6 15 4 35 -6 31 -15 53 -15 221 -5z m-1481 -80 c33
-51 82 -115 108 -144 l48 -52 -52 -81 c-44 -70 -53 -80 -67 -69 -22 19 -123
156 -166 227 l-37 60 43 75 c24 42 48 76 53 76 6 0 37 -42 70 -92z m4509 55
c9 -60 7 -361 -3 -368 -5 -3 -56 -15 -113 -26 -57 -12 -109 -26 -115 -31 -8
-6 -13 -35 -13 -74 0 -58 -2 -65 -23 -73 -53 -20 -236 -51 -303 -51 l-74 0 0
43 c0 24 -5 137 -11 251 -7 138 -7 212 0 219 10 10 134 41 336 84 66 14 156
33 200 43 114 25 111 26 119 -17z m-3954 -19 c57 -9 119 -14 137 -11 37 6 43
0 107 -116 l37 -68 -94 -107 -94 -107 -146 -3 c-81 -1 -147 0 -147 2 0 3 14
25 30 49 17 25 30 50 30 56 0 12 -53 27 -132 36 -32 3 -58 10 -58 15 0 5 21
43 48 84 26 40 64 102 85 136 34 57 40 62 65 56 15 -3 74 -13 132 -22z m1986
-216 c46 -45 84 -85 84 -90 0 -4 -30 -8 -67 -9 -38 0 -102 -4 -143 -8 -73 -9
-76 -8 -98 18 -99 113 -113 131 -100 136 11 4 187 30 227 34 7 0 51 -36 97
-81z m-1081 -90 c75 -89 134 -166 132 -172 -5 -14 -30 -192 -66 -481 -18 -141
-31 -220 -39 -220 -23 0 -221 168 -339 288 -120 121 -123 125 -123 168 0 24
-7 100 -14 169 -8 69 -17 159 -21 199 l-7 75 125 -117 c119 -111 157 -136 157
-102 0 27 30 309 35 333 3 12 9 22 14 22 5 0 71 -73 146 -162z m-1157 8 c42
-6 72 -15 72 -21 0 -7 -14 -31 -30 -53 l-30 -42 -69 0 c-78 0 -131 8 -131 21
0 4 19 33 42 64 30 41 46 54 57 49 9 -4 49 -12 89 -18z m4432 -39 c0 -31 -51
-317 -65 -364 l-15 -51 -73 -26 c-88 -31 -307 -89 -313 -83 -3 2 0 33 6 68 5
35 10 129 10 209 0 80 4 150 8 155 4 6 63 21 132 34 69 13 161 34 205 47 96
27 105 28 105 11z m-2097 -14 c10 -17 -46 -386 -63 -413 -7 -12 -318 -72 -331
-64 -3 2 -4 46 -1 99 l5 95 -25 0 c-13 0 -75 -7 -137 -15 -62 -8 -117 -12
-123 -9 -5 3 -7 13 -4 22 3 10 7 58 10 107 l5 90 42 8 c43 9 570 84 601 86 9
1 19 -2 21 -6z m-694 -212 l-4 -116 40 -3 c22 -2 83 3 135 11 52 8 99 11 103
7 5 -4 4 -42 -2 -83 -15 -108 -13 -111 71 -103 37 3 114 15 170 26 56 11 104
17 107 15 6 -7 -36 -155 -60 -212 -16 -37 -24 -44 -71 -58 -55 -16 -317 -69
-402 -80 -48 -6 -49 -6 -42 17 4 13 10 57 13 98 6 69 5 74 -10 62 -37 -31
-377 -58 -403 -32 -6 6 -2 64 12 167 12 87 26 203 32 257 6 55 16 102 22 106
6 4 55 13 109 19 54 7 113 16 132 20 19 4 38 6 43 3 4 -2 7 -57 5 -121z m2315
-83 c-13 -146 -25 -213 -39 -224 -25 -19 -350 -62 -363 -49 -5 5 -4 129 2 255
1 24 3 25 76 27 66 1 277 37 289 49 2 2 13 4 23 4 16 0 17 -7 12 -62z m-2274
-385 c0 -14 -33 -128 -39 -135 -8 -8 -276 -38 -347 -38 l-54 0 6 43 c4 23 9
57 13 76 l6 33 145 4 c80 2 163 7 185 13 51 11 85 13 85 4z"/>
<path d="M6090 8630 c-118 -19 -250 -81 -358 -167 -31 -25 -107 -95 -169 -155
-132 -130 -144 -133 -184 -49 -24 48 -33 80 -54 189 -10 51 -25 38 -25 -23 0
-106 33 -221 78 -267 29 -32 91 -39 112 -13 18 21 44 20 35 -2 -23 -60 -45
-225 -45 -346 0 -493 240 -881 615 -997 225 -69 546 -3 680 141 17 17 26 30
20 27 -5 -2 -48 -22 -95 -45 -47 -22 -123 -50 -170 -61 -94 -22 -220 -35 -244
-26 -25 9 -8 24 27 24 50 1 157 43 223 88 149 101 259 277 310 497 26 113 25
344 -3 475 -49 230 -166 431 -320 552 -76 60 -68 73 22 33 72 -31 85 -32 56
-1 -30 32 -152 92 -225 111 -75 19 -216 26 -286 15z m165 -125 c188 -48 346
-197 435 -411 90 -218 108 -471 50 -701 -22 -83 -94 -243 -111 -243 -5 0 -35
13 -67 29 -103 51 -299 101 -399 101 -38 0 -40 7 -13 60 46 90 69 275 51 405
-15 109 -45 190 -101 272 -110 162 -277 219 -422 145 -33 -18 -63 -31 -64 -29
-7 7 39 113 67 153 16 24 57 66 90 93 150 121 325 166 484 126z m-531 -516
c22 -19 38 -43 42 -65 20 -107 -103 -178 -178 -104 -29 30 -30 33 -24 93 5 49
12 67 32 85 37 32 85 29 128 -9z m593 -774 c92 -15 257 -65 275 -83 24 -24
-81 -120 -182 -166 -147 -67 -353 -55 -496 29 -54 32 -164 133 -164 151 0 17
108 50 226 68 120 19 230 19 341 1z"/>
<path d="M3775 8505 c-188 -36 -352 -133 -467 -278 -56 -71 -47 -76 25 -15
132 115 189 144 119 61 -82 -99 -144 -223 -184 -368 -29 -103 -36 -351 -14
-468 55 -291 203 -528 405 -652 123 -74 312 -124 426 -112 66 7 81 -8 24 -23
-115 -31 -272 -39 -404 -20 -58 9 -175 44 -247 75 -10 4 -18 3 -18 -3 0 -13
102 -65 175 -90 128 -43 210 -55 338 -49 231 9 419 85 573 230 196 184 283
371 309 662 13 159 -29 409 -97 573 -17 40 -28 76 -25 79 3 3 19 1 34 -4 88
-30 144 71 142 256 0 77 -12 131 -22 101 -2 -8 -10 -55 -16 -105 -14 -104 -45
-178 -77 -183 -15 -2 -75 33 -175 101 -166 112 -260 165 -354 197 -139 48
-328 62 -470 35z m275 -85 c170 -21 366 -107 457 -202 52 -54 137 -182 124
-186 -6 -2 -26 8 -45 23 -95 72 -252 86 -355 30 -101 -55 -185 -176 -217 -312
-12 -51 -15 -100 -11 -198 5 -149 31 -249 92 -349 43 -71 44 -86 6 -86 -92 0
-328 -83 -453 -160 -26 -17 -52 -30 -57 -30 -19 0 -114 133 -151 212 -66 141
-91 258 -97 444 -4 127 -2 178 11 245 67 329 306 567 581 578 17 0 69 -4 115
-9z m201 -497 c35 -21 59 -69 59 -118 0 -55 -52 -105 -110 -105 -36 0 -48 6
-76 36 -29 31 -34 42 -34 86 0 44 4 54 34 84 39 39 80 45 127 17z m288 -848
c40 -10 75 -25 78 -32 6 -15 -51 -88 -112 -146 -80 -75 -234 -131 -392 -144
-91 -7 -211 14 -307 53 -69 28 -186 103 -186 120 0 12 144 82 220 107 59 19
178 45 260 57 106 14 354 6 439 -15z"/>
<path d="M5141 6970 c-119 -24 -221 -63 -252 -96 -22 -24 -24 -33 -22 -118 1
-51 6 -145 13 -209 6 -64 9 -121 6 -125 -3 -5 -31 -14 -63 -21 -192 -42 -360
-106 -415 -158 -65 -62 -88 -185 -88 -468 0 -345 38 -737 88 -900 37 -122 70
-137 325 -143 351 -8 869 55 1251 153 243 62 349 121 376 210 18 60 24 370 11
577 -22 351 -65 607 -116 694 -45 77 -134 109 -360 131 -77 8 -80 9 -87 38 -4
17 -24 95 -43 175 -66 271 -70 274 -340 277 -154 2 -208 -1 -284 -17z m337
-79 c45 -9 71 -25 59 -38 -4 -4 -58 -10 -120 -14 -61 -4 -149 -13 -195 -19
-81 -11 -122 -4 -122 20 0 41 252 75 378 51z m226 -487 c13 -5 16 -22 16 -83
0 -42 -4 -81 -8 -88 -15 -24 -70 -36 -187 -40 -95 -4 -123 -3 -132 8 -13 16
-37 178 -28 187 3 3 54 9 113 12 159 10 209 11 226 4z m274 -14 c46 -5 87 -12
92 -15 6 -4 10 -21 10 -38 0 -46 -29 -188 -41 -203 -25 -31 -206 -46 -228 -20
-7 8 -16 29 -22 48 -11 34 -30 228 -24 239 5 6 97 2 213 -11z m-660 -12 c13
-13 17 -165 4 -185 -15 -24 -70 -36 -190 -41 -105 -4 -125 -2 -141 12 -25 23
-58 156 -41 166 10 6 119 24 320 54 14 2 27 4 31 5 3 0 10 -4 17 -11z m-411
-74 c8 -20 -13 -243 -26 -277 -13 -34 -31 -39 -152 -45 -104 -4 -107 -4 -122
19 -17 25 -77 186 -77 205 0 17 65 41 215 80 151 39 154 39 162 18z m472 -798
c121 -41 207 -101 306 -216 50 -58 55 -67 49 -99 -12 -72 -7 -68 -90 -63 -94
6 -198 -12 -248 -42 -36 -21 -41 -22 -80 -9 -70 25 -259 -3 -318 -47 l-27 -20
-22 50 c-12 28 -31 57 -43 65 -27 20 -135 19 -211 -1 -103 -26 -124 -61 -141
-231 -3 -40 -10 -73 -13 -73 -4 0 -16 7 -28 15 -40 28 -63 151 -84 439 -15
198 -22 182 104 216 68 19 99 22 182 17 156 -7 291 -63 437 -180 33 -27 62
-46 65 -43 16 15 -118 164 -174 195 -35 18 -28 29 30 39 104 19 229 14 306
-12z m673 -369 c15 -37 29 -84 30 -104 l3 -37 -85 -22 c-173 -44 -211 -51
-217 -40 -10 15 -12 148 -3 196 4 23 13 47 19 53 15 15 84 25 161 23 l65 -1
27 -68z m-1153 -99 c28 -67 64 -209 54 -219 -7 -7 -134 -11 -290 -10 l-53 1 0
43 c1 54 24 175 37 188 13 13 129 37 186 38 47 1 48 0 66 -41z m797 21 c23
-19 45 -149 26 -149 -4 0 -77 -12 -161 -26 -103 -17 -156 -22 -161 -15 -3 6
-7 42 -8 79 -2 63 0 71 20 84 22 15 94 33 163 42 41 5 106 -3 121 -15z m-372
-48 c20 -22 43 -138 29 -152 -9 -9 -248 -39 -315 -39 l-38 0 0 69 c0 62 3 72
24 89 14 10 51 24 83 30 32 7 67 13 78 16 57 11 122 5 139 -13z"/>
<path d="M8105 6083 c-98 -11 -226 -38 -263 -54 -57 -24 -66 -51 -82 -224 -6
-77 -16 -145 -21 -151 -6 -8 -32 -7 -91 2 -46 7 -123 18 -173 25 -57 8 -95 18
-102 27 -7 9 -13 45 -14 81 0 36 -4 92 -8 124 -4 31 -5 61 -2 66 4 5 38 12 77
16 81 8 110 19 79 32 -49 20 -743 -2 -779 -25 -24 -15 47 -21 251 -21 l221 -1
6 -67 c4 -38 9 -93 12 -125 2 -31 1 -59 -5 -62 -5 -3 -89 5 -187 19 -189 27
-234 30 -219 16 23 -20 596 -142 832 -176 120 -18 142 -14 163 26 7 11 19 97
29 191 16 164 18 171 41 180 13 5 91 27 174 49 83 22 155 44 160 49 10 10 -34
11 -99 3z"/>
<path d="M2511 5344 c0 -11 3 -14 6 -6 3 7 2 16 -1 19 -3 4 -6 -2 -5 -13z"/>
</g>
</svg>
