<?xml version="1.0" standalone="no"?>
<!DOCTYPE svg PUBLIC "-//W3C//DTD SVG 20010904//EN"
 "http://www.w3.org/TR/2001/REC-SVG-20010904/DTD/svg10.dtd">
<svg version="1.0" xmlns="http://www.w3.org/2000/svg"
 width="1024.000000pt" height="1024.000000pt" viewBox="0 0 1024.000000 1024.000000"
 preserveAspectRatio="xMidYMid meet">
<metadata>
Created by potrace 1.16, written by Peter Selinger 2001-2019
</metadata>
<g transform="translate(0.000000,1024.000000) scale(0.100000,-0.100000)"
fill="#000000" stroke="none">
<path d="M3635 7656 c-93 -23 -433 -124 -535 -161 -82 -29 -79 -26 -430 -575
-128 -201 -321 -502 -428 -670 -107 -168 -285 -447 -395 -620 -110 -173 -218
-341 -239 -373 l-39 -58 -30 21 c-16 12 -32 33 -35 48 -26 110 -137 201 -229
188 l-41 -7 -24 51 c-27 58 -105 136 -147 146 -31 8 -331 -39 -398 -63 -109
-38 -113 -55 -74 -316 24 -163 35 -212 58 -258 61 -121 113 -163 199 -158 46
3 47 3 54 -31 4 -19 19 -91 33 -160 38 -180 66 -235 154 -301 39 -30 71 -57
71 -62 0 -4 -22 -32 -49 -60 -27 -29 -59 -72 -72 -97 -13 -24 -38 -66 -56 -93
-18 -27 -33 -55 -33 -63 0 -7 -20 -36 -45 -64 -47 -53 -75 -99 -75 -123 0 -8
-22 -37 -48 -64 -43 -44 -57 -68 -76 -125 -3 -10 -20 -20 -43 -24 -21 -3 -103
-19 -183 -34 -144 -29 -145 -29 -184 -71 l-39 -41 6 -102 c7 -127 63 -505 83
-569 20 -61 109 -159 165 -181 31 -13 57 -15 103 -10 97 10 488 73 523 85 37
12 90 68 99 106 4 14 2 65 -4 112 -6 47 -18 139 -27 205 l-15 119 36 40 c20
22 45 60 56 86 12 25 41 66 66 91 25 25 58 72 74 106 15 33 41 70 56 81 15 11
40 44 56 74 16 30 42 69 58 87 15 18 39 55 53 82 14 28 28 50 32 50 4 0 38
-24 77 -53 39 -30 82 -61 96 -70 35 -24 121 -21 270 8 158 31 157 31 165 -5 8
-38 76 -143 106 -164 30 -20 98 -21 231 -1 233 35 285 59 307 141 12 45 3 151
-29 332 -23 127 -35 161 -80 228 -43 61 -82 84 -146 84 l-51 0 -23 51 c-32 66
-96 125 -155 140 -25 6 -47 15 -50 19 -4 7 62 101 424 600 90 124 201 277 247
340 45 63 145 201 221 306 76 105 184 256 241 335 57 79 166 232 243 339 196
272 183 238 176 455 -7 189 -20 299 -61 504 -38 190 -69 210 -251 167z m147
-95 c12 -73 27 -572 19 -618 -5 -24 -21 -62 -36 -85 -37 -56 -329 -448 -420
-563 -251 -317 -918 -1201 -1104 -1462 -40 -57 -78 -103 -84 -103 -7 1 -23 10
-36 21 -22 18 -24 23 -11 42 7 12 157 213 334 445 177 233 400 528 496 655
301 399 612 809 663 876 l49 65 -7 90 c-10 142 -35 398 -41 423 -4 13 -11 23
-17 23 -16 0 -306 -76 -410 -107 -77 -23 -93 -32 -122 -67 -47 -59 -888 -1357
-1264 -1953 -57 -90 -106 -165 -110 -167 -9 -6 -71 35 -71 47 0 4 22 40 48 80
27 40 176 273 333 520 156 246 309 486 340 535 528 824 695 1083 718 1112 15
19 44 43 63 52 38 18 288 96 478 148 63 17 120 33 125 35 6 2 21 3 35 2 21 -2
26 -9 32 -46z m73 -292 c9 -68 19 -194 21 -279 l5 -155 -24 45 c-24 43 -25 54
-29 300 -3 140 -2 245 3 234 4 -12 15 -77 24 -145z m-266 -6 c20 -139 42 -414
34 -427 -5 -7 -69 -93 -143 -191 -92 -121 -136 -172 -138 -159 -1 10 -13 115
-26 232 -13 118 -27 216 -30 220 -4 3 -102 -17 -219 -45 -117 -28 -213 -50
-214 -49 -3 2 193 309 222 349 18 24 45 33 235 82 117 31 216 58 219 60 2 3
14 5 27 5 20 0 23 -7 33 -77z m-315 -375 c3 -18 15 -127 27 -241 l21 -209 -28
-38 c-165 -222 -348 -460 -350 -457 -5 4 -44 237 -44 259 0 11 20 22 69 37 39
12 73 25 76 31 6 9 -30 259 -39 267 -7 8 -258 -48 -274 -60 -10 -8 -12 -25 -7
-61 3 -28 7 -59 8 -70 2 -16 -17 -24 -123 -52 -68 -18 -126 -31 -128 -29 -4 4
245 394 315 494 l38 55 210 52 c116 28 213 52 216 53 4 0 9 -14 13 -31z m576
-44 c11 -25 17 -51 13 -57 -11 -19 -258 -365 -428 -602 -87 -121 -191 -265
-230 -320 -100 -139 -273 -379 -368 -510 -44 -60 -115 -157 -157 -215 -42 -58
-127 -175 -188 -260 -62 -85 -130 -179 -152 -208 l-40 -52 -55 41 c-30 23 -55
43 -55 45 0 19 683 930 1105 1474 142 183 435 573 501 667 16 24 30 43 32 43
1 0 12 -21 22 -46z m-840 -457 c7 -57 9 -101 4 -106 -5 -4 -37 -16 -71 -26
-35 -10 -63 -23 -64 -29 -3 -25 3 -68 23 -188 18 -110 19 -130 7 -147 -43 -61
-394 -519 -396 -517 -2 2 -33 222 -33 238 0 4 45 21 99 38 55 17 104 36 109
43 6 8 0 68 -17 167 l-26 155 -37 -3 c-47 -4 -290 -70 -302 -82 -6 -6 -5 -47
3 -106 6 -54 8 -101 4 -104 -8 -7 -188 -50 -210 -50 -9 0 318 523 346 553 5 4
71 24 147 44 76 19 145 40 152 46 9 7 11 25 6 65 -3 30 -7 61 -8 69 -1 12 27
22 119 42 105 23 121 24 126 11 3 -8 12 -59 19 -113z m-360 -538 c12 -77 20
-142 19 -144 -2 -1 -50 -17 -106 -34 l-103 -32 0 -34 c0 -18 7 -85 16 -148
l16 -115 -208 -276 c-115 -155 -212 -275 -219 -273 -20 8 -365 259 -364 266 0
3 21 39 47 79 26 39 109 168 185 285 l138 213 97 23 c53 13 114 27 136 33 l39
10 -7 71 c-4 40 -9 88 -12 108 l-6 36 133 36 c74 19 144 36 155 36 20 1 23 -9
44 -140z m-1592 -281 c10 -13 47 -178 40 -182 -2 -1 -52 -12 -111 -23 -60 -12
-111 -24 -115 -27 -3 -4 0 -48 8 -99 22 -152 28 -140 -65 -154 -99 -16 -121
-12 -130 26 -18 84 -51 368 -44 382 10 19 94 42 255 69 135 22 149 23 162 8z
m94 -116 c20 -45 18 -62 -11 -62 -14 0 -20 11 -24 45 -4 25 -9 57 -12 72 -6
27 -6 28 10 8 10 -11 26 -39 37 -63z m197 -109 c20 -76 30 -128 25 -133 -3 -2
-60 -14 -127 -25 -111 -18 -122 -22 -125 -42 -2 -12 13 -112 33 -221 20 -110
38 -222 42 -250 l5 -49 -75 -26 c-72 -24 -76 -24 -91 -8 -9 10 -25 59 -36 110
-25 113 -111 614 -106 618 9 9 330 61 383 62 l62 1 10 -37z m77 -70 c17 -39
18 -79 3 -89 -15 -9 -26 11 -34 65 -3 25 -9 57 -11 71 -5 25 -5 25 11 5 10
-11 23 -34 31 -52z m-37 -145 c10 -50 81 -464 81 -472 0 -13 333 -246 350
-246 12 0 92 15 178 34 205 45 256 55 259 52 1 -1 12 -53 24 -115 24 -120 22
-130 -25 -131 -23 0 -428 -89 -434 -95 -3 -3 -4 -37 -3 -76 1 -39 -2 -69 -7
-68 -15 6 -696 511 -720 534 -12 10 -2 17 55 35 37 12 72 26 76 30 5 4 -10
113 -32 241 -22 129 -41 247 -43 264 l-3 30 100 16 c144 24 132 26 144 -33z
m194 -26 c51 -38 205 -149 342 -247 391 -280 437 -315 412 -315 -3 0 -99 -21
-214 -46 -334 -73 -305 -70 -355 -32 -24 18 -96 71 -160 117 l-116 84 -21 131
c-12 72 -30 180 -40 241 -22 121 -18 135 31 135 21 0 56 -20 121 -68z m-670
-69 c4 -21 9 -52 13 -69 6 -32 6 -32 -45 -39 -69 -9 -103 6 -141 64 -16 26
-30 51 -30 54 0 4 19 7 43 8 23 0 60 4 82 8 70 15 72 14 78 -26z m252 -582
c55 -41 102 -76 104 -78 10 -7 -24 -33 -36 -29 -40 16 -157 115 -174 148 -33
64 -35 65 106 -41z m1292 39 c6 -14 24 -110 39 -213 22 -150 25 -190 15 -196
-7 -5 -52 -14 -99 -20 -48 -7 -148 -24 -222 -38 -221 -41 -302 -52 -327 -42
-21 8 -23 15 -23 84 0 41 1 75 3 75 1 0 96 20 210 45 115 25 216 45 226 45 9
0 25 6 34 13 15 11 14 21 -5 122 -11 61 -21 117 -22 125 -1 17 47 29 114 26
37 -1 47 -5 57 -26z m84 -83 c31 -66 30 -77 -5 -77 -21 0 -24 6 -30 53 -4 28
-10 63 -13 76 -11 43 17 13 48 -52z m-1118 -147 c67 -49 131 -96 142 -104 19
-14 19 -15 -10 -56 -16 -23 -39 -49 -51 -57 -12 -8 -25 -29 -28 -47 -8 -42
-61 -116 -82 -116 -32 0 -174 83 -233 136 -72 66 -75 84 -25 142 34 40 66 53
79 33 6 -11 125 -95 157 -112 13 -6 19 -7 13 -2 -8 8 -158 128 -174 139 -11 8
14 60 45 94 20 22 38 40 41 40 2 0 59 -40 126 -90z m1297 55 c7 -9 24 -103 38
-211 25 -193 25 -195 6 -214 -21 -21 -329 -84 -386 -78 l-32 3 -18 99 c-10 55
-16 101 -15 102 2 2 50 11 107 20 58 9 111 22 118 29 10 9 10 32 -3 120 -8 59
-12 111 -9 114 8 9 104 29 145 30 22 1 42 -5 49 -14z m84 -122 c21 -60 58
-321 54 -375 l-3 -42 -31 48 c-26 40 -30 54 -24 77 8 25 -18 267 -35 338 -11
44 22 5 39 -46z m-1178 -124 c20 -54 16 -76 -23 -147 -62 -115 -81 -135 -116
-128 -30 6 -30 6 -12 -14 15 -17 16 -23 5 -50 -20 -47 -64 -90 -94 -90 -26 0
-35 -13 -17 -24 26 -16 -73 -166 -118 -181 -12 -3 -21 -19 -26 -42 -7 -39 -41
-98 -72 -125 -19 -17 -21 -17 -51 18 -18 20 -32 38 -32 40 0 2 17 27 39 55 21
28 44 69 50 90 7 23 31 59 57 85 25 25 55 66 66 92 12 26 40 65 63 88 23 22
48 58 55 80 7 21 26 51 42 66 16 14 38 48 50 75 11 26 38 67 59 90 22 24 39
48 39 54 0 22 24 2 36 -32z m178 -86 c40 -26 54 -43 73 -89 13 -32 21 -59 19
-61 -2 -2 -53 33 -112 78 -60 46 -111 84 -112 85 -2 1 -7 17 -12 36 -4 18 -11
42 -16 52 -5 13 11 5 52 -25 32 -24 81 -58 108 -76z m-651 6 c40 -33 106 -77
147 -96 41 -20 76 -37 78 -38 9 -7 -24 -62 -62 -103 -24 -26 -47 -58 -51 -72
-15 -50 -95 -140 -124 -140 -34 0 -139 59 -193 109 -47 43 -58 59 -58 84 0 40
32 106 70 142 l29 28 49 -45 c53 -49 130 -104 137 -96 3 2 -17 21 -43 40 -26
20 -65 55 -86 77 -38 39 -39 41 -28 79 11 36 46 92 58 92 3 0 38 -27 77 -61z
m1141 -35 c4 -31 5 -58 4 -60 -8 -7 -353 -72 -360 -68 -10 6 -43 70 -52 102
-7 20 -4 22 31 22 21 1 103 14 183 29 201 40 186 42 194 -25z m515 -144 c40
-65 39 -77 -6 -89 -101 -27 -322 -56 -357 -47 -19 5 -86 88 -86 107 0 3 22 6
49 7 75 3 332 49 344 61 18 18 24 14 56 -39z m-1916 -145 c36 -45 129 -108
195 -131 28 -10 52 -22 52 -27 0 -15 -52 -112 -73 -134 -27 -30 -60 -29 -125
5 -56 29 -158 122 -168 154 -3 11 -3 35 0 53 7 37 60 115 79 115 6 0 25 -16
40 -35z m-129 -162 c35 -68 127 -141 217 -172 l54 -19 17 -119 c9 -65 20 -156
23 -203 11 -127 18 -122 -255 -176 -124 -25 -262 -47 -306 -51 -97 -7 -95 -9
-118 118 -22 117 -66 446 -66 495 0 64 17 73 223 115 100 20 185 38 189 38 4
1 14 -11 22 -26z m361 -352 c4 -36 15 -126 26 -199 22 -154 23 -176 8 -167
-21 13 -69 88 -62 98 10 17 4 160 -12 274 -8 58 -15 109 -15 112 1 3 12 -7 25
-23 17 -22 26 -48 30 -95z m-7 -354 c46 -64 50 -62 -208 -106 -350 -60 -362
-60 -422 -3 -35 32 -35 42 -3 42 69 0 537 90 575 110 19 11 19 10 58 -43z"/>
<path d="M658 3282 c-54 -10 -102 -22 -107 -27 -6 -6 -4 -50 4 -113 18 -131
21 -142 48 -142 35 0 199 30 217 40 19 10 18 51 -4 185 -13 83 -11 83 -158 57z
m141 -102 c14 -111 14 -118 -6 -124 -57 -17 -188 -34 -194 -24 -9 15 -33 198
-26 204 9 9 202 41 209 35 4 -3 12 -44 17 -91z"/>
<path d="M8655 7303 c-11 -3 -125 -29 -253 -58 -128 -30 -241 -60 -252 -68
-28 -20 -51 -50 -136 -188 -139 -223 -445 -733 -470 -781 -33 -65 -31 -135 6
-278 58 -220 67 -243 107 -282 46 -43 300 -213 361 -240 48 -21 54 -21 230 13
56 11 107 19 112 17 8 -3 -120 -208 -996 -1593 -513 -810 -494 -778 -494 -849
0 -50 29 -136 62 -183 20 -31 69 -69 163 -132 143 -95 203 -118 278 -108 83
11 103 35 354 437 461 736 711 1137 792 1268 45 74 97 157 115 185 19 29 118
189 222 357 103 168 190 308 194 312 3 4 32 -10 65 -32 53 -36 67 -40 120 -40
94 0 332 44 363 67 31 22 70 79 251 362 72 112 134 220 137 239 5 23 -4 79
-29 178 -31 127 -40 151 -80 207 -44 61 -106 124 -142 144 -16 9 -14 15 19 67
49 77 49 121 -3 224 -47 94 -64 109 -215 206 -99 63 -126 76 -161 76 -23 0
-50 -7 -61 -15 -24 -18 -34 -19 -34 -2 0 48 -36 124 -88 185 -68 81 -61 75
-202 169 -200 133 -254 155 -335 136z m191 -129 c59 -36 135 -84 168 -107 60
-42 61 -43 78 -117 9 -41 31 -149 47 -240 35 -190 26 -176 177 -271 331 -208
424 -272 429 -292 26 -109 51 -285 45 -313 -7 -29 -230 -374 -301 -465 -32
-41 -52 -46 -247 -69 -109 -14 -60 -37 -422 201 l-255 168 -181 -39 c-99 -21
-240 -50 -313 -64 l-133 -26 -37 22 c-71 44 -186 126 -203 144 -29 33 -107
324 -108 402 0 18 10 52 21 75 51 99 534 885 563 914 29 29 47 35 241 79 116
26 224 50 240 54 62 16 82 10 191 -56z m316 -249 c22 -25 33 -55 53 -154 l25
-124 -22 -36 -23 -36 -32 165 c-17 91 -34 181 -38 200 -4 19 -3 31 2 25 4 -5
20 -24 35 -40z m337 -231 c128 -81 141 -91 141 -119 0 -12 -27 -67 -61 -123
l-61 -102 -37 22 c-125 77 -261 170 -261 179 0 6 29 56 65 110 49 75 70 99 86
99 12 0 69 -30 128 -66z m223 -262 c0 -15 -16 -53 -35 -86 -20 -32 -38 -63
-40 -69 -6 -19 -98 45 -93 65 2 9 30 60 62 114 l57 96 24 -47 c14 -26 25 -59
25 -73z m105 -374 c41 -67 105 -298 83 -298 -14 0 -79 80 -84 102 -2 13 -12
68 -21 123 -10 55 -20 106 -22 113 -3 6 -1 12 4 12 5 0 23 -24 40 -52z m46
-290 c46 -55 57 -25 -107 -276 -67 -103 -139 -214 -160 -246 -29 -46 -40 -56
-47 -45 -19 28 -59 109 -59 119 0 6 41 70 92 142 122 177 218 329 218 346 0
22 21 9 63 -40z m-1361 -183 c-15 -24 -32 -46 -38 -49 -33 -13 -404 -68 -425
-63 -13 4 -34 15 -47 25 -23 18 -21 18 165 55 103 21 224 46 268 56 110 26
108 27 77 -24z m92 -14 c-48 -72 -285 -449 -570 -906 -174 -280 -387 -620
-471 -754 -85 -134 -171 -271 -192 -305 -21 -33 -106 -171 -190 -306 -107
-172 -151 -252 -149 -269 2 -20 25 -38 107 -88 58 -35 110 -63 116 -63 19 0
32 19 262 385 533 849 750 1195 793 1265 72 116 553 885 556 888 4 6 37 -7 57
-22 16 -13 10 -26 -92 -187 -61 -96 -125 -199 -144 -229 -19 -30 -83 -131
-142 -225 -92 -145 -234 -371 -485 -770 -96 -153 -366 -580 -500 -790 -69
-110 -145 -231 -168 -270 -64 -106 -84 -125 -132 -125 -44 0 -276 139 -304
182 -22 34 -10 67 75 200 39 62 120 190 179 283 204 324 515 816 780 1235 301
476 531 841 557 887 24 42 25 42 49 26 24 -15 24 -16 8 -42z m142 -58 c57 -38
104 -71 104 -75 0 -4 -46 -78 -101 -165 -56 -87 -241 -381 -412 -653 -171
-272 -375 -598 -455 -725 -79 -126 -248 -396 -375 -600 -126 -203 -235 -376
-241 -382 -9 -10 -34 1 -114 49 -56 34 -102 68 -102 76 0 8 53 98 119 200 210
332 1326 2116 1410 2255 29 48 55 87 58 87 3 0 52 -30 109 -67z m250 -234 l26
-56 -103 -164 c-56 -90 -131 -211 -167 -269 -35 -58 -86 -139 -112 -180 -57
-89 -211 -337 -365 -585 -61 -99 -196 -315 -300 -480 -104 -165 -240 -383
-303 -485 -232 -375 -265 -420 -311 -420 -5 0 -20 28 -35 61 l-27 62 30 26
c16 14 143 206 282 426 138 220 305 483 369 585 98 155 522 827 882 1398 50
79 95 141 100 140 5 -2 20 -28 34 -59z m73 24 c63 -35 71 -43 98 -100 16 -35
26 -63 23 -63 -4 0 -37 21 -75 48 -53 36 -75 59 -96 100 -14 28 -25 52 -22 52
2 0 34 -17 72 -37z m440 -53 c17 -33 31 -64 31 -69 0 -8 -148 -35 -260 -47
l-55 -6 -32 65 -32 66 57 6 c31 4 100 15 152 24 52 10 98 19 102 20 4 0 21
-26 37 -59z m-2456 -2379 c117 -74 170 -101 200 -101 19 0 27 -11 49 -65 14
-36 21 -65 16 -65 -32 0 -259 143 -302 190 -34 38 -72 100 -61 100 3 0 47 -26
98 -59z"/>
<path d="M8785 7063 c-11 -2 -123 -24 -250 -49 -126 -25 -238 -47 -248 -50
-23 -7 -38 -30 -313 -487 l-222 -368 30 -112 c47 -179 77 -280 85 -288 5 -5
49 1 98 11 411 87 813 176 840 186 8 4 15 4 15 2 0 -5 44 -210 55 -257 6 -25
17 -26 152 -5 l41 6 12 -58 c17 -88 33 -136 44 -140 15 -6 325 71 337 83 6 6
2 44 -11 103 -11 52 -17 97 -12 101 4 3 41 14 82 24 90 21 110 31 110 52 0 21
-70 287 -79 302 -6 8 -34 6 -106 -9 -54 -10 -100 -18 -102 -17 -5 5 -33 121
-33 137 0 9 -6 24 -12 33 -12 15 -20 14 -103 -3 -49 -11 -97 -19 -106 -20 -18
0 -15 -10 -105 405 -29 138 -63 289 -75 338 l-21 87 -42 -1 c-22 -1 -50 -3
-61 -6z m89 -30 c12 -44 126 -576 124 -578 -8 -7 -143 -33 -148 -29 -3 3 -28
94 -56 202 -47 185 -52 197 -75 200 -38 4 -330 -55 -345 -70 -12 -13 -137
-214 -310 -502 -46 -76 -84 -145 -84 -155 0 -24 38 -153 49 -164 5 -5 86 6
200 28 106 21 194 36 196 33 4 -4 34 -142 31 -145 -2 -3 -221 -52 -400 -89
-123 -26 -171 -33 -176 -24 -4 6 -29 92 -55 189 l-47 178 117 194 c65 107 177
291 248 409 71 118 133 219 137 223 7 8 527 114 567 116 13 1 24 -6 27 -16z
m-108 -388 c65 -253 62 -245 85 -245 11 0 49 7 85 16 36 9 67 15 69 12 2 -2
13 -46 25 -98 12 -52 26 -100 33 -107 10 -10 32 -8 107 7 52 11 98 20 101 20
4 0 17 -41 29 -90 12 -50 25 -92 29 -94 3 -2 44 4 91 15 47 10 92 19 100 19
11 0 24 -35 48 -128 19 -70 36 -134 38 -143 4 -13 -13 -21 -88 -39 -51 -13
-98 -27 -104 -32 -9 -6 -6 -34 9 -104 11 -55 16 -98 11 -103 -5 -4 -73 -23
-152 -41 -114 -27 -145 -32 -151 -21 -5 7 -16 51 -26 98 -10 46 -23 87 -29 89
-7 3 -47 -2 -91 -11 -43 -8 -80 -13 -82 -11 -3 2 -17 64 -33 136 -17 73 -32
135 -35 138 -3 3 -82 -12 -176 -32 -94 -21 -172 -36 -173 -34 -1 2 -10 38 -20
80 -10 43 -21 80 -25 82 -4 3 -94 -11 -199 -31 -105 -21 -194 -34 -197 -31 -3
3 -15 37 -26 76 l-20 71 147 238 c81 131 168 275 195 320 49 81 49 82 101 92
192 39 245 49 263 48 17 -2 26 -24 61 -162z"/>
<path d="M5425 6965 c-362 -59 -999 -186 -1045 -210 -57 -30 -71 -74 -56 -182
l8 -52 -44 -11 c-109 -27 -119 -31 -138 -63 -11 -18 -20 -48 -20 -67 0 -44 32
-161 52 -193 25 -38 134 -90 192 -92 47 -2 51 -4 64 -36 8 -19 23 -45 35 -57
31 -34 110 -72 149 -72 18 0 239 34 491 76 253 42 463 72 467 67 5 -4 10 -30
12 -57 l3 -50 -36 -7 c-81 -18 -103 -41 -261 -278 -83 -124 -166 -246 -183
-271 -17 -25 -116 -169 -220 -320 -104 -151 -266 -387 -360 -525 -187 -272
-205 -301 -205 -340 0 -14 -4 -25 -10 -25 -21 0 -94 -77 -112 -119 -10 -24
-36 -61 -58 -83 -21 -21 -41 -51 -45 -66 -3 -16 -26 -48 -51 -72 -49 -47 -77
-95 -89 -148 -4 -20 -24 -49 -51 -74 -25 -24 -60 -72 -80 -112 -19 -39 -51
-83 -70 -99 -39 -32 -74 -94 -74 -130 0 -14 -22 -51 -52 -88 -75 -93 -92 -138
-84 -216 10 -98 44 -254 65 -293 10 -20 43 -53 75 -75 55 -38 62 -40 148 -44
103 -4 263 21 319 50 36 18 76 62 117 129 11 19 37 47 56 62 19 15 47 53 62
85 16 31 46 73 68 92 21 20 53 65 71 101 21 44 54 88 102 135 53 53 75 84 89
124 12 32 30 61 46 73 16 10 46 50 68 88 22 38 45 72 51 76 36 22 61 143 38
185 -8 16 -6 26 14 52 13 18 105 145 204 282 193 270 341 473 681 938 268 367
272 374 277 469 5 82 1 79 106 92 l55 7 16 -98 c113 -676 152 -890 171 -936
28 -65 136 -136 208 -137 32 0 38 -4 55 -42 22 -50 99 -113 157 -129 59 -16
179 3 229 36 45 30 52 54 46 146 -4 57 -3 69 11 73 9 2 48 12 87 21 53 12 79
24 100 47 48 50 47 58 -127 1028 -47 257 -84 432 -98 459 -16 30 -82 82 -129
103 -30 14 -60 19 -95 16 l-52 -3 -23 130 c-47 271 -84 450 -97 475 -20 39
-110 117 -143 125 -21 4 -396 -65 -648 -120 -18 -4 -23 2 -33 38 -16 53 -36
78 -96 116 -64 40 -105 40 -380 -4z m327 -110 c28 -120 28 -120 -44 -133 -126
-21 -1223 -223 -1260 -231 -21 -5 -40 -6 -42 -2 -2 3 -7 47 -11 98 -7 83 -6
92 11 101 31 16 463 106 799 166 376 67 427 74 485 72 l45 -1 17 -70z m84 -43
c17 -59 18 -57 -13 -66 -18 -6 -23 -3 -28 16 -18 80 -25 115 -25 132 0 38 50
-24 66 -82z m751 29 c7 -10 19 -68 28 -127 9 -60 31 -209 50 -330 19 -122 35
-230 35 -241 0 -18 -9 -21 -67 -27 -38 -4 -82 -9 -100 -12 -38 -7 -30 -34 -87
269 -24 125 -47 232 -52 237 -9 9 -94 -6 -389 -69 -77 -16 -143 -27 -147 -23
-3 4 -17 49 -31 100 -17 66 -21 95 -13 98 29 11 695 142 726 143 24 1 39 -5
47 -18z m101 -177 c12 -60 38 -198 57 -308 19 -109 38 -202 40 -207 6 -8 -42
-25 -50 -17 -4 4 -21 103 -75 443 -17 105 -33 204 -36 220 l-5 30 24 -26 c17
-19 29 -54 45 -135z m-898 4 c44 -168 46 -173 72 -176 13 -2 73 8 132 21 58
13 108 21 110 18 3 -3 9 -35 16 -71 19 -112 33 -175 40 -183 4 -5 62 3 129 18
67 15 127 25 134 22 7 -3 20 -51 31 -117 12 -74 23 -113 33 -117 8 -3 60 -1
115 6 56 6 103 9 105 7 3 -2 33 -170 68 -373 156 -901 176 -1019 181 -1035 4
-13 -8 -19 -63 -32 -37 -8 -86 -18 -108 -21 l-40 -7 -37 219 c-21 120 -67 382
-103 583 -36 200 -65 369 -65 374 0 9 -91 4 -191 -10 l-45 -6 -37 132 c-20 73
-39 135 -42 139 -3 3 -54 -3 -113 -14 -170 -29 -153 -38 -177 92 -12 62 -24
116 -28 119 -3 4 -60 2 -126 -5 -65 -6 -128 -11 -138 -11 -16 0 -22 15 -37 88
-26 127 -20 120 -118 106 -99 -15 -607 -103 -835 -144 -90 -17 -169 -30 -177
-30 -15 0 -62 170 -53 194 3 7 27 17 54 21 49 7 1165 210 1238 225 22 4 45 8
52 9 7 1 17 -18 23 -41z m594 -100 c3 -13 14 -67 24 -120 l18 -97 -89 -21
c-139 -32 -167 -35 -167 -19 0 8 -9 61 -19 119 -10 58 -17 107 -14 110 5 6
191 47 220 49 16 1 24 -6 27 -21z m-1972 -198 c9 -45 20 -91 23 -100 5 -15 -8
-20 -85 -35 -111 -22 -113 -20 -134 82 -18 82 -14 101 21 109 62 16 139 31
147 30 6 -1 18 -40 28 -86z m1153 28 c19 -80 32 -154 26 -159 -9 -9 -876 -179
-961 -188 -41 -4 -85 -4 -97 0 -22 8 -46 69 -60 152 -5 32 -3 37 13 37 18 0
725 121 929 159 136 25 144 25 150 -1z m330 -180 c2 -13 12 -64 21 -115 l16
-92 -69 -106 c-37 -59 -85 -129 -107 -156 -21 -28 -36 -52 -34 -54 7 -7 70 74
146 187 48 72 80 109 95 112 89 19 131 26 134 22 5 -5 -10 -23 -127 -150 -73
-80 -104 -126 -185 -276 -93 -174 -138 -233 -267 -352 -288 -265 -320 -303
-442 -523 -85 -153 -44 -109 59 63 89 150 159 230 341 393 159 141 220 218
329 415 88 161 135 225 267 367 60 63 79 78 106 80 l34 2 18 -71 c10 -39 25
-94 34 -122 8 -28 12 -53 8 -56 -4 -2 -33 -7 -64 -11 -62 -8 -72 0 -38 30 25
23 64 84 58 91 -3 2 -27 -26 -55 -63 l-49 -68 -76 -13 c-50 -9 -78 -18 -82
-28 -3 -9 -6 -48 -6 -88 0 -64 -4 -78 -33 -127 -33 -55 -182 -251 -637 -839
-391 -505 -509 -666 -538 -733 l-12 -27 -35 22 c-19 13 -35 26 -35 29 0 16 73
166 102 207 17 26 93 110 168 187 145 149 181 197 279 370 40 72 80 127 114
159 29 27 43 43 32 36 -58 -39 -114 -107 -177 -215 -93 -157 -138 -215 -264
-338 -152 -147 -210 -230 -265 -375 l-9 -23 -44 31 c-25 16 -48 35 -51 40 -3
5 18 42 48 82 80 109 130 185 171 263 44 83 21 59 -34 -36 -29 -49 -172 -250
-206 -288 -4 -5 -74 39 -74 48 0 4 18 25 41 46 61 60 116 149 229 369 55 109
115 220 133 245 51 76 125 149 252 249 176 141 263 234 324 351 23 42 -7 13
-48 -48 -65 -95 -138 -168 -286 -286 -214 -171 -251 -218 -389 -492 -47 -95
-102 -198 -122 -230 -52 -81 -135 -183 -150 -183 -19 0 -44 41 -44 73 0 43
-67 -59 704 1066 104 150 236 345 294 432 110 165 125 180 205 194 l38 7 -21
-53 c-37 -94 -82 -159 -196 -280 -61 -65 -127 -142 -147 -171 -55 -84 -102
-198 -81 -198 27 0 165 154 164 184 0 6 -11 -2 -23 -19 -29 -40 -119 -136
-123 -132 -2 2 17 43 43 91 35 66 74 116 161 209 166 176 189 216 277 462 40
112 119 230 158 238 12 2 25 5 29 6 4 0 10 -9 13 -21z m-1445 -18 c0 -32 -78
-44 -135 -20 -34 14 -33 15 55 33 73 15 80 14 80 -13z m1331 -9 c-35 -44 -84
-134 -94 -171 -3 -13 -9 -22 -11 -19 -5 5 -46 192 -46 210 0 4 28 10 63 12 34
2 75 4 90 5 l29 2 -31 -39z m-171 -6 c0 -19 -6 -25 -32 -29 -18 -3 -143 -24
-278 -46 -135 -22 -335 -56 -445 -75 -207 -36 -260 -41 -269 -26 -3 4 34 14
82 20 48 7 272 50 497 96 226 46 418 84 428 84 12 1 17 -7 17 -24z m1343 -59
c7 -8 24 -63 36 -123 81 -400 155 -821 191 -1091 18 -130 20 -165 10 -177 -14
-17 -90 -40 -162 -50 l-46 -7 -11 54 c-6 29 -40 226 -76 438 -37 212 -86 502
-111 645 -24 143 -44 267 -44 275 0 12 21 20 88 32 113 20 108 20 125 4z m96
-67 c36 -60 274 -1370 253 -1391 -5 -5 -26 5 -48 20 -37 27 -40 32 -36 69 6
63 -46 415 -124 838 -39 212 -93 482 -102 503 -9 26 37 -6 57 -39z m-500 -456
c18 -104 48 -273 67 -378 82 -469 104 -594 104 -598 0 -9 -159 -29 -178 -23
-28 9 -36 38 -76 271 -55 316 -116 671 -136 780 -10 55 -16 102 -13 105 4 5
135 26 179 29 19 1 23 -13 53 -186z m-257 127 c5 -33 14 -30 -147 -55 l-100
-16 -22 28 c-21 25 -21 28 -5 32 18 4 238 38 258 40 7 0 14 -12 16 -29z m-280
-67 c9 -16 19 -59 23 -98 8 -86 -2 -107 -137 -290 -51 -69 -113 -155 -138
-190 -62 -88 -241 -334 -388 -533 -67 -92 -204 -282 -303 -422 -100 -140 -191
-263 -202 -273 -24 -21 -52 -15 -85 19 l-24 23 28 48 c34 57 245 339 520 695
613 790 652 843 671 907 9 34 13 70 9 98 -6 49 3 55 26 16z m1228 -989 c22
-15 40 -29 40 -33 0 -3 -44 -16 -98 -28 l-97 -21 -37 25 c-43 29 -48 43 -15
44 12 0 51 8 87 18 36 10 68 19 73 20 4 0 25 -11 47 -25z m-275 -56 c17 -76
24 -153 14 -164 -15 -18 -122 -40 -176 -35 -13 1 -37 77 -46 143 -5 33 -3 39
16 43 12 3 49 11 82 19 89 20 104 20 110 -6z m69 -22 c24 -20 29 -34 39 -105
6 -44 8 -84 4 -87 -3 -3 -19 3 -35 15 -26 18 -30 28 -36 88 -4 37 -9 78 -13
91 -7 28 4 28 41 -2z m-302 -41 c3 -29 2 -30 -45 -33 -35 -2 -58 3 -87 19 -50
28 -51 39 -2 40 20 0 55 4 77 8 47 9 52 6 57 -34z m323 -181 c-1 -12 -124 -34
-155 -27 -14 2 -37 13 -50 23 l-24 18 49 8 c28 4 66 12 85 19 32 12 38 11 65
-10 17 -12 30 -26 30 -31z m-2563 -327 c62 -46 149 -108 192 -138 44 -30 84
-62 90 -71 13 -22 -10 -73 -58 -126 -20 -21 -44 -58 -54 -83 -11 -24 -34 -57
-51 -74 l-31 -29 -78 38 c-103 51 -183 109 -270 196 -49 50 -72 81 -72 97 0
31 21 72 53 102 l26 23 66 -66 c59 -59 235 -186 258 -186 10 0 -22 26 -108 90
-78 57 -195 169 -195 187 0 24 39 91 62 107 12 9 30 16 40 16 10 0 69 -37 130
-83z m-308 -272 c67 -77 195 -177 292 -226 46 -24 84 -47 84 -51 0 -23 -43
-88 -87 -133 -27 -27 -62 -76 -77 -107 -16 -34 -46 -74 -74 -98 -27 -25 -53
-59 -63 -84 -19 -51 -96 -166 -110 -166 -17 0 -138 83 -211 144 -37 31 -93 86
-123 123 -72 88 -73 114 -9 183 l47 50 91 -88 c51 -48 112 -97 137 -110 l44
-23 -40 32 c-22 18 -80 72 -129 120 l-89 86 34 68 c20 40 49 81 71 98 l37 30
73 -65 c83 -73 160 -133 192 -149 11 -5 -1 9 -29 33 -27 23 -87 78 -132 122
-88 85 -95 99 -69 160 14 34 72 106 86 106 4 0 29 -25 54 -55z m665 6 c33 -46
22 -113 -24 -151 -9 -8 -27 -34 -41 -59 -28 -55 -52 -84 -81 -100 -12 -6 -27
-27 -32 -47 -20 -72 -86 -160 -142 -188 -14 -7 -33 -37 -50 -79 -30 -75 -50
-102 -91 -123 -18 -9 -31 -29 -43 -64 -18 -54 -63 -110 -90 -110 -13 0 -71 25
-84 36 -2 2 19 28 47 59 28 30 56 72 63 92 6 21 39 67 73 104 34 36 68 81 76
100 7 18 38 60 67 91 30 32 63 79 75 105 11 26 40 66 63 88 26 25 47 55 53 78
6 22 27 55 48 75 20 19 45 55 56 79 10 24 23 43 28 43 5 0 18 -13 29 -29z
m-1086 -584 c14 -22 13 -28 -15 -85 -38 -75 -47 -142 -25 -176 20 -29 48 -25
77 12 31 39 23 48 -10 12 -25 -27 -33 -30 -45 -20 -27 22 -13 113 27 178 l20
33 67 -63 c36 -35 83 -77 103 -92 l37 -28 -28 -51 c-33 -59 -46 -97 -34 -97 4
0 16 19 26 43 9 23 26 53 36 66 l18 24 57 -37 57 -36 -20 -28 c-38 -51 -56
-70 -76 -80 -24 -12 -293 -57 -300 -50 -3 3 15 36 40 73 42 64 52 85 40 85 -2
0 -18 -21 -36 -47 -37 -56 -79 -103 -91 -103 -15 0 -28 48 -48 176 -17 107
-18 129 -7 162 13 39 93 152 107 152 4 0 15 -10 23 -23z m434 -349 c18 -7 33
-17 33 -23 0 -17 -77 -122 -94 -128 -10 -4 -25 6 -40 25 l-24 32 41 53 c23 29
44 53 46 53 3 0 20 -5 38 -12z m-117 -134 c32 -33 22 -39 -87 -54 -125 -18
-192 -16 -233 6 -29 15 -32 19 -15 22 11 2 79 14 150 26 168 30 158 30 185 0z"/>
</g>
</svg>
