<?xml version="1.0" standalone="no"?>
<!DOCTYPE svg PUBLIC "-//W3C//DTD SVG 20010904//EN"
 "http://www.w3.org/TR/2001/REC-SVG-20010904/DTD/svg10.dtd">
<svg version="1.0" xmlns="http://www.w3.org/2000/svg"
 width="1024.000000pt" height="1024.000000pt" viewBox="0 0 1024.000000 1024.000000"
 preserveAspectRatio="xMidYMid meet">
<metadata>
Created by potrace 1.16, written by Peter Selinger 2001-2019
</metadata>
<g transform="translate(0.000000,1024.000000) scale(0.100000,-0.100000)"
fill="#000000" stroke="none">
<path d="M5105 9920 c-242 -89 -350 -136 -377 -165 -16 -16 -86 -127 -157
-245 -70 -118 -134 -216 -142 -218 -8 -1 -90 41 -184 94 -271 154 -260 149
-345 152 -53 3 -123 -5 -240 -27 -91 -17 -172 -34 -180 -36 -8 -3 -134 -27
-280 -54 -356 -67 -937 -182 -1140 -226 -234 -51 -432 -95 -450 -100 -8 -2
-118 -29 -243 -59 -125 -30 -241 -63 -258 -73 -34 -20 -78 -80 -84 -114 -2
-13 -6 -44 -9 -69 -3 -25 -14 -126 -25 -225 -11 -99 -30 -272 -42 -385 -11
-113 -23 -208 -25 -211 -5 -8 -22 -164 -29 -264 -11 -158 -1 -146 -125 -165
-154 -24 -323 -61 -347 -77 -50 -33 -62 -79 -78 -286 -33 -442 -31 -490 13
-531 16 -13 269 -94 400 -128 55 -14 61 -29 51 -143 -43 -532 -44 -655 -2
-697 11 -10 80 -42 154 -70 151 -57 714 -254 859 -301 52 -17 97 -32 99 -33 2
-2 -55 -85 -127 -186 -190 -268 -331 -487 -338 -524 -13 -70 24 -128 96 -149
14 -4 104 -41 200 -83 191 -82 336 -140 593 -238 212 -81 242 -83 301 -21 37
39 221 374 381 694 25 51 49 94 54 97 4 3 44 -8 87 -25 43 -17 135 -53 204
-79 69 -26 208 -79 310 -118 197 -75 418 -164 775 -312 121 -50 267 -111 325
-135 499 -206 1121 -512 1450 -713 211 -129 275 -179 242 -190 -17 -5 -248
-275 -266 -311 -25 -48 -19 -87 26 -174 67 -130 453 -628 541 -701 63 -51 88
-48 189 20 276 188 599 437 722 556 79 77 116 106 129 102 9 -3 54 -26 100
-51 111 -62 164 -86 464 -207 314 -126 673 -262 762 -287 104 -30 119 -23 242
100 121 121 136 153 112 232 -7 24 -29 100 -49 169 -36 123 -127 377 -164 455
-10 22 -28 61 -39 87 -22 54 -58 80 -235 173 -208 111 -687 304 -887 359 -31
9 -61 21 -67 28 -6 7 -38 96 -71 198 -90 275 -229 647 -367 983 l-28 68 22
127 c13 70 31 176 42 236 11 60 43 265 70 455 28 190 57 389 65 441 8 52 29
217 46 367 41 344 48 320 -124 469 -298 259 -806 630 -1277 933 -228 147 -368
234 -474 296 -64 37 -116 69 -116 71 0 3 11 22 24 43 14 22 67 115 119 207
180 323 192 354 162 417 -14 29 -411 455 -472 507 -10 8 -58 53 -108 99 -49
46 -123 109 -164 140 -72 54 -76 56 -145 58 -57 2 -86 -3 -151 -27z m-33 -266
c-259 -442 -316 -534 -332 -534 -20 0 -189 92 -190 103 0 16 236 419 262 446
15 15 71 46 125 69 103 44 226 90 231 87 1 -1 -42 -78 -96 -171z m264 134
c105 -69 694 -670 694 -708 0 -16 -269 -512 -289 -532 -4 -5 -61 24 -126 63
-120 72 -610 352 -737 423 l-67 36 61 98 c64 103 218 361 300 502 55 93 95
150 107 150 4 0 30 -15 57 -32z m-1303 -436 c56 -28 147 -77 202 -108 55 -31
156 -88 225 -126 69 -39 159 -90 200 -113 41 -23 134 -75 205 -115 232 -130
307 -172 500 -284 105 -60 215 -124 245 -141 68 -39 373 -225 535 -327 598
-374 1311 -887 1528 -1099 68 -66 69 -67 63 -110 -3 -24 -17 -129 -30 -234
-14 -104 -30 -237 -36 -295 -10 -94 -16 -134 -35 -249 -3 -19 -24 -154 -46
-300 -22 -146 -49 -315 -60 -375 -36 -194 -59 -340 -59 -384 0 -27 17 -85 49
-165 84 -214 148 -378 201 -522 28 -77 64 -174 79 -215 66 -174 132 -393 127
-416 -5 -20 -33 -69 -143 -252 -17 -27 -21 -46 -17 -72 8 -51 123 -383 145
-419 20 -33 49 -40 69 -16 10 12 5 36 -30 127 -102 271 -110 298 -96 298 23 0
212 -68 293 -106 41 -18 76 -34 78 -34 4 0 509 -220 615 -268 36 -16 70 -35
77 -43 19 -24 210 -533 229 -613 6 -26 5 -28 -12 -22 -10 4 -75 29 -144 55
-643 246 -890 346 -1040 421 -63 32 -129 61 -147 65 -25 5 -43 21 -79 73 -145
206 -435 560 -695 852 -158 177 -451 471 -501 504 -16 10 -28 23 -28 28 0 5
38 55 83 111 96 116 107 135 107 174 0 39 -21 70 -147 213 -255 291 -466 536
-580 672 -149 176 -239 263 -285 273 -100 22 -426 147 -751 289 -205 90 -251
101 -280 68 -36 -40 -100 -234 -147 -445 -18 -82 -25 -98 -39 -94 -9 3 -97 42
-196 87 -342 155 -558 240 -612 240 -48 0 -97 -4 -468 -40 -360 -36 -407 -46
-374 -86 11 -14 28 -15 117 -9 57 3 109 8 115 10 7 2 44 6 82 9 39 3 179 15
312 26 l243 21 87 -37 c121 -50 288 -127 558 -258 l230 -112 81 -115 c45 -63
114 -157 155 -209 41 -52 123 -158 181 -235 227 -297 263 -340 306 -364 50
-27 290 -116 542 -201 96 -32 215 -72 264 -90 203 -71 247 -71 323 2 l41 40
177 -173 c314 -308 592 -622 896 -1014 158 -203 182 -236 176 -241 -11 -11
-199 -44 -284 -50 l-92 -7 -83 70 c-231 197 -405 329 -748 569 -104 73 -313
203 -437 272 -91 51 -567 291 -653 330 -378 170 -987 427 -1365 577 -554 219
-765 299 -1055 400 -69 24 -222 78 -340 120 -386 136 -897 312 -1245 429 -217
73 -295 103 -295 116 0 4 46 10 103 14 268 17 624 48 645 57 17 6 22 16 20 32
-3 19 -10 22 -56 25 -52 3 -665 -40 -807 -57 -78 -9 -115 -1 -115 26 0 29 19
283 26 343 3 30 8 111 11 180 3 69 8 129 13 133 4 5 68 -8 141 -27 137 -36
375 -89 463 -103 47 -8 50 -11 81 -67 92 -170 272 -299 512 -366 251 -71 557
5 754 187 69 65 136 155 168 228 45 100 63 258 39 337 -14 48 -59 88 -99 88
-16 0 -84 -25 -150 -55 -66 -30 -127 -55 -135 -55 -17 0 -18 40 0 275 14 199
14 262 -2 291 -17 31 -356 182 -630 280 -171 61 -162 54 -162 122 -1 201 -99
363 -258 422 -78 30 -97 33 -174 33 -187 -1 -351 -145 -414 -362 -18 -63 -25
-77 -44 -79 -22 -4 -23 -2 -16 45 7 48 29 250 66 603 67 639 59 595 118 619
26 10 335 85 567 138 305 69 984 204 1645 328 107 20 200 38 205 39 6 2 23 6
39 11 59 16 193 34 234 31 27 -2 83 -23 145 -54z m-2377 -1450 c73 -37 106
-74 150 -167 26 -55 59 -182 50 -192 -1 -1 -43 14 -94 33 -51 19 -128 44 -171
55 l-79 22 -186 -33 c-103 -18 -189 -30 -192 -28 -7 7 34 117 60 162 32 55
125 142 178 167 35 16 59 19 133 16 77 -3 99 -8 151 -35z m112 -456 c108 -41
268 -99 355 -130 261 -93 517 -197 526 -215 9 -16 -29 -524 -39 -535 -7 -6
-218 50 -390 104 -69 22 -222 69 -340 105 -118 36 -258 80 -310 96 -130 42
-131 42 -934 -76 -98 -14 -181 -23 -184 -21 -8 9 18 538 28 557 15 27 52 36
400 94 184 30 378 64 430 75 193 40 211 38 458 -54z m-171 -682 c98 -30 225
-70 283 -89 58 -18 146 -45 195 -60 248 -73 378 -118 364 -125 -24 -13 -224
-50 -332 -61 -113 -12 -246 -6 -352 16 -102 22 -123 20 -155 -15 -15 -16 -38
-30 -49 -30 -73 0 -958 258 -993 289 -4 4 97 19 225 35 273 33 547 73 591 85
17 5 34 10 38 10 4 1 87 -24 185 -55z m1373 -429 c0 -28 -67 -124 -129 -186
-125 -123 -304 -199 -474 -199 -66 0 -68 1 -62 23 19 60 125 175 215 232 66
42 215 104 285 120 61 13 165 19 165 10z m1933 -326 c209 -95 411 -181 587
-251 105 -42 186 -80 203 -96 16 -15 83 -94 150 -177 67 -82 225 -269 352
-415 280 -323 328 -380 324 -385 -4 -3 -125 38 -564 193 -126 44 -260 90 -297
102 -47 15 -72 29 -84 48 -21 33 -162 213 -443 567 -133 166 -351 454 -351
461 0 8 12 3 123 -47z m-182 -16 c65 -95 185 -249 489 -625 171 -210 310 -388
310 -394 0 -21 -209 -274 -227 -274 -5 0 -25 21 -43 46 -32 46 -88 116 -350
449 -70 88 -159 205 -200 260 -40 55 -86 114 -102 132 -28 29 -30 34 -23 84 4
29 27 122 51 206 24 85 44 156 44 159 0 17 24 -4 51 -43z m-2580 -805 c49 -18
89 -36 89 -41 0 -5 -20 -34 -43 -65 -58 -76 -181 -262 -301 -454 -54 -86 -104
-162 -111 -168 -11 -9 -31 -6 -87 15 -40 14 -80 30 -88 34 -37 20 -49 2 364
609 38 56 74 102 79 102 5 0 50 -14 98 -32z m486 -169 c175 -61 322 -115 326
-119 5 -4 -22 -65 -58 -136 -140 -269 -318 -600 -332 -615 -13 -16 -19 -15
-71 7 -31 13 -187 75 -347 138 -159 62 -291 118 -293 125 -9 27 428 711 454
711 2 0 146 -50 321 -111z m3278 -203 c143 -53 294 -110 335 -125 41 -16 123
-46 182 -67 l107 -38 -19 -25 c-10 -14 -63 -75 -118 -136 -75 -84 -104 -109
-121 -108 -23 3 -625 210 -808 279 -57 21 -103 41 -103 45 0 3 27 39 61 79 33
40 85 106 116 146 54 72 55 73 82 60 14 -8 143 -57 286 -110z m2227 -1140
c104 -34 396 -145 543 -206 124 -52 418 -203 423 -218 4 -15 -151 -172 -169
-172 -7 0 -64 23 -128 52 -113 50 -397 172 -534 229 -37 16 -140 56 -230 90
-89 33 -163 62 -165 64 -1 1 25 46 59 99 40 62 68 96 80 96 10 0 64 -15 121
-34z m-1464 -498 c40 -29 72 -57 72 -61 0 -5 -24 -30 -52 -55 -29 -26 -111
-102 -182 -170 -71 -67 -132 -119 -136 -115 -18 19 -60 110 -60 128 0 21 24
54 124 171 90 104 139 154 151 154 6 0 44 -24 83 -52z m2535 -115 c25 -60 64
-169 87 -243 23 -74 53 -170 66 -212 13 -42 24 -86 24 -98 0 -12 -27 -47 -67
-86 l-67 -65 -14 26 c-7 15 -34 84 -59 153 -25 70 -77 204 -115 297 -38 94
-71 179 -74 190 -3 15 7 28 44 52 26 18 61 46 77 63 16 16 34 30 41 30 7 0 32
-48 57 -107z m-2176 -164 c114 -92 224 -174 243 -184 30 -15 50 -17 164 -11
l131 8 -20 -22 c-11 -12 -108 -85 -215 -163 -107 -77 -255 -185 -329 -239 -74
-54 -139 -98 -146 -98 -14 0 -115 118 -299 348 l-139 174 119 112 c159 151
267 246 276 243 4 -1 101 -77 215 -168z"/>
<path d="M3872 9328 c-11 -14 -24 -99 -47 -323 -9 -82 -18 -166 -20 -185 -3
-19 -14 -132 -25 -250 -11 -119 -23 -237 -26 -262 -6 -45 -5 -47 21 -54 38 -9
55 15 55 79 0 27 4 90 10 140 5 51 17 169 25 262 51 566 52 595 29 602 -6 2
-16 -2 -22 -9z"/>
<path d="M3114 8692 c-153 -34 -162 -44 -150 -155 9 -87 13 -89 135 -79 126
10 214 2 355 -32 60 -15 117 -24 128 -21 36 12 63 102 47 160 -30 107 -302
174 -515 127z"/>
<path d="M1460 8560 c-175 -28 -264 -106 -254 -223 5 -61 20 -90 42 -84 10 3
58 20 107 37 80 29 106 33 223 38 128 4 134 6 149 29 10 15 18 55 21 102 6
101 1 105 -132 108 -55 1 -126 -2 -156 -7z"/>
<path d="M3193 8165 c-79 -17 -178 -64 -241 -114 -160 -126 -246 -415 -196
-659 42 -211 164 -348 367 -415 91 -29 257 -29 352 0 140 44 256 145 319 278
49 103 61 163 60 305 0 110 -4 135 -28 205 -67 195 -188 327 -351 383 -81 28
-203 35 -282 17z m200 -90 c37 -8 91 -27 120 -42 153 -82 257 -288 257 -507 0
-162 -44 -270 -150 -370 -100 -94 -180 -126 -320 -126 -91 0 -145 12 -218 48
-105 51 -187 152 -234 287 -30 84 -32 304 -4 385 61 177 179 290 339 325 81
18 128 18 210 0z"/>
<path d="M3275 7726 c-42 -19 -90 -73 -117 -131 -33 -73 -33 -219 1 -288 33
-67 68 -107 116 -128 118 -54 237 14 281 161 32 104 0 271 -64 344 -44 49
-153 70 -217 42z"/>
<path d="M3745 6888 c-11 -6 -21 -12 -23 -13 -2 -2 -12 -130 -22 -286 -11
-156 -25 -341 -31 -412 -6 -70 -8 -134 -5 -142 8 -23 44 -18 60 8 9 14 16 65
20 137 4 63 13 205 21 315 18 246 21 383 9 395 -5 5 -18 4 -29 -2z"/>
<path d="M1473 7458 c-5 -7 -15 -94 -22 -193 -6 -99 -14 -213 -18 -252 -5 -64
-4 -73 12 -79 24 -10 47 7 56 39 15 55 27 466 15 486 -9 15 -31 14 -43 -1z"/>
<path d="M8615 4665 c-93 -43 -165 -175 -165 -300 0 -46 4 -60 25 -80 32 -32
56 -31 134 5 137 65 209 144 215 235 8 110 -107 188 -209 140z m96 -95 c32
-18 24 -62 -20 -108 -47 -48 -129 -98 -141 -86 -15 16 29 131 64 169 34 36 62
43 97 25z"/>
<path d="M3442 4103 c-69 -34 -108 -118 -99 -214 7 -83 60 -165 149 -233 81
-62 343 -186 393 -186 9 0 27 11 40 24 28 28 28 38 -11 181 -54 195 -165 364
-276 419 -61 31 -145 35 -196 9z m146 -94 c50 -24 118 -104 161 -189 34 -66
85 -205 80 -219 -7 -18 -248 107 -301 157 -92 86 -116 180 -59 241 34 37 59
39 119 10z"/>
<path d="M4484 3589 c-47 -13 -94 -71 -96 -117 -8 -178 22 -236 339 -662 151
-204 202 -277 264 -380 50 -83 98 -193 106 -248 6 -34 6 -35 -23 -28 -16 4
-76 36 -134 70 -200 120 -289 156 -387 156 -60 0 -96 -15 -133 -55 -22 -24
-25 -35 -25 -103 0 -66 4 -85 28 -128 42 -76 163 -188 336 -312 173 -125 317
-252 385 -343 57 -76 59 -106 6 -101 -48 5 -188 38 -285 67 -44 13 -117 31
-162 38 -263 46 -351 -123 -124 -238 85 -42 274 -120 329 -135 55 -14 84 -6
80 23 -2 18 -42 41 -195 117 -192 95 -238 124 -226 143 13 21 148 0 293 -46
172 -54 232 -67 306 -67 69 0 109 20 123 61 16 46 14 57 -19 128 -49 104 -268
315 -458 442 -218 147 -322 261 -322 353 0 29 5 38 30 51 53 28 155 -10 368
-137 186 -111 257 -128 302 -70 26 33 26 91 -1 178 -42 138 -138 298 -335 564
-131 176 -274 376 -302 421 -58 96 -81 238 -42 259 31 16 78 -9 159 -85 136
-129 214 -252 521 -820 146 -271 273 -449 418 -587 63 -61 98 -72 123 -42 13
16 9 86 -21 329 -49 390 -36 596 39 652 42 31 133 -82 205 -254 43 -103 104
-326 151 -548 69 -331 114 -520 140 -581 13 -32 18 -35 47 -32 36 3 44 19 66
139 22 120 118 304 158 304 41 0 71 -114 94 -355 23 -240 40 -258 133 -135 25
33 93 107 151 163 125 123 142 128 140 37 -1 -33 -5 -79 -9 -102 -9 -52 5 -73
47 -73 41 0 112 70 261 255 167 208 331 370 424 418 84 44 161 58 182 34 17
-21 2 -67 -48 -144 -39 -60 -62 -88 -237 -284 -156 -175 -319 -384 -356 -455
-31 -61 -32 -65 -18 -91 26 -46 64 -42 161 15 91 53 184 89 251 97 96 11 89
-33 -22 -149 -44 -46 -80 -88 -80 -93 0 -6 6 -16 13 -22 30 -24 213 116 243
186 31 72 8 133 -58 155 -56 19 -170 8 -266 -27 -38 -14 -72 -25 -76 -25 -10
0 130 166 297 352 243 271 297 355 297 460 0 54 -3 63 -32 92 -42 42 -100 52
-181 31 -153 -40 -292 -148 -483 -378 -42 -51 -104 -125 -138 -165 l-61 -73
-6 41 c-11 77 -82 120 -166 98 -35 -8 -65 -31 -150 -114 -59 -56 -111 -101
-115 -98 -4 3 -8 25 -8 50 0 24 -7 90 -15 147 -26 172 -82 257 -171 257 -64 0
-109 -45 -175 -172 -35 -68 -54 -97 -59 -87 -4 8 -22 88 -40 179 -39 205 -112
509 -146 615 -14 44 -51 131 -81 193 -114 235 -244 304 -351 188 -58 -63 -74
-122 -79 -296 -4 -106 1 -196 16 -335 12 -104 21 -196 21 -204 0 -23 -36 15
-117 123 -86 115 -141 207 -286 476 -226 422 -330 582 -462 715 -108 108 -194
148 -271 124z"/>
<path d="M5210 3434 c-49 -20 -100 -98 -100 -153 0 -77 115 -181 200 -181 50
0 65 11 93 65 40 80 29 157 -31 225 -35 39 -43 43 -92 46 -30 2 -62 1 -70 -2z
m71 -94 c45 -25 60 -110 24 -140 -10 -8 -22 -2 -54 28 -46 44 -51 66 -19 99
25 27 23 26 49 13z"/>
<path d="M3754 3003 c-12 -2 -39 -19 -59 -36 -30 -26 -38 -41 -42 -79 -7 -62
1 -91 39 -133 60 -69 145 -97 293 -96 121 0 283 31 302 57 19 26 16 62 -7 99
-69 112 -369 219 -526 188z m194 -113 c82 -20 155 -52 202 -89 14 -11 22 -22
19 -25 -3 -4 -62 -9 -131 -13 -142 -7 -212 5 -259 44 -31 26 -39 69 -17 91 18
18 92 15 186 -8z"/>
<path d="M3390 2130 c-109 -13 -298 -31 -430 -40 -164 -11 -800 -5 -1060 10
-132 8 -321 10 -530 6 -179 -3 -498 -9 -710 -12 -234 -4 -390 -10 -397 -16
-15 -12 -17 -44 -4 -52 5 -4 47 -14 93 -23 99 -19 395 -22 618 -5 151 11 1155
8 1240 -4 25 -4 173 -7 330 -8 271 -1 380 5 795 44 145 14 384 12 590 -5 242
-20 359 -20 375 0 17 21 -2 42 -49 54 -148 39 -697 72 -861 51z"/>
<path d="M8815 2080 c-280 -27 -371 -44 -389 -73 -8 -13 -7 -21 6 -33 15 -15
30 -15 165 -5 81 7 166 15 188 19 89 15 416 6 550 -16 108 -17 168 -20 355
-19 176 2 232 6 255 17 35 18 42 41 20 64 -14 14 -47 16 -238 16 -149 0 -257
5 -327 15 -125 19 -458 27 -585 15z"/>
<path d="M8376 1795 c-106 -27 -277 -138 -290 -189 -16 -65 34 -102 186 -135
203 -43 387 1 438 105 26 52 25 89 -3 139 -44 80 -192 115 -331 80z m228 -106
c15 -12 26 -30 26 -44 0 -30 -49 -71 -103 -86 -80 -22 -293 4 -304 37 -4 13
97 74 160 95 76 26 187 25 221 -2z"/>
<path d="M1992 1748 c-39 -4 -118 -19 -175 -32 -168 -41 -254 -49 -457 -41
-162 6 -188 5 -199 -9 -18 -21 -9 -31 48 -50 126 -41 398 -44 556 -6 115 28
242 47 333 49 80 2 263 -19 387 -45 147 -31 407 -28 555 6 25 6 126 13 225 16
160 6 193 4 295 -15 75 -15 143 -21 195 -19 73 3 80 5 83 24 4 28 -17 35 -223
73 -258 47 -351 48 -605 5 -139 -24 -385 -24 -490 -1 -251 56 -351 64 -528 45z"/>
<path d="M9322 1499 c-168 -6 -219 -11 -238 -24 -49 -32 -21 -51 93 -64 149
-16 482 3 536 31 26 13 21 47 -9 58 -28 11 -63 11 -382 -1z"/>
<path d="M4046 1204 c-43 -8 -133 -32 -201 -54 -95 -31 -130 -48 -157 -74 -36
-35 -53 -81 -41 -113 12 -36 55 -84 91 -102 144 -73 465 -143 857 -186 104
-12 123 -12 143 1 18 12 20 18 12 34 -13 25 -18 26 -210 54 -221 33 -544 100
-655 137 -87 29 -145 67 -145 96 0 17 113 68 217 98 46 13 131 29 190 35 142
14 161 18 173 40 7 13 5 22 -9 34 -22 20 -151 21 -265 0z"/>
<path d="M8058 1153 c-31 -5 -52 -27 -45 -46 4 -10 39 -16 134 -21 229 -12
430 -56 484 -107 35 -33 36 -39 4 -78 -38 -44 -155 -78 -444 -127 -162 -28
-184 -36 -179 -67 2 -18 11 -23 45 -25 97 -7 475 66 570 110 23 11 60 40 83
64 34 37 40 50 40 88 0 108 -123 172 -390 205 -81 11 -246 12 -302 4z"/>
<path d="M1830 1060 c-245 -27 -446 -34 -580 -21 -233 24 -304 25 -319 7 -23
-28 3 -43 114 -65 234 -46 469 -51 716 -14 148 22 367 21 469 -1 241 -54 405
-57 878 -20 79 6 99 22 68 52 -19 19 -150 22 -441 10 -171 -7 -239 -1 -503 48
-153 28 -178 28 -402 4z"/>
<path d="M4486 983 c-15 -39 71 -78 313 -142 84 -23 156 -43 160 -45 12 -8
373 -64 496 -78 175 -19 570 -16 715 5 109 16 301 59 420 92 119 34 371 28
590 -15 108 -21 313 -19 425 4 11 2 66 14 121 25 130 27 228 57 244 76 6 8 10
22 8 32 -5 24 -47 23 -173 -6 -185 -42 -269 -50 -465 -47 -122 3 -209 9 -255
20 -38 9 -118 21 -178 28 -127 14 -296 0 -390 -32 -65 -22 -224 -53 -357 -70
-47 -6 -119 -16 -160 -22 -87 -14 -344 -17 -445 -5 -415 49 -519 66 -799 137
-132 33 -245 60 -252 60 -6 0 -15 -8 -18 -17z"/>
<path d="M4295 464 c-16 -2 -87 -11 -157 -20 -156 -19 -218 -35 -232 -57 -19
-31 10 -38 129 -33 292 14 553 17 610 7 301 -54 401 -65 615 -65 167 0 235 4
305 17 255 51 327 59 455 54 69 -3 220 -20 335 -37 297 -44 399 -47 624 -20
207 25 348 24 576 -5 168 -22 408 -17 433 9 13 13 14 20 6 34 -9 14 -30 17
-120 20 -131 3 -271 16 -414 38 -125 19 -402 14 -600 -11 -167 -21 -256 -15
-565 41 -124 23 -179 27 -320 28 -171 0 -216 -6 -570 -74 -121 -23 -424 1
-640 50 -66 15 -136 22 -265 25 -96 2 -188 2 -205 -1z"/>
</g>
</svg>
