<?xml version="1.0" encoding="UTF-8" standalone="yes"?>
<svg version="1.0" xmlns="http://www.w3.org/2000/svg" width="1024.000000pt" height="1024.000000pt" viewBox="0 0 1024.000000 1024.000000" preserveAspectRatio="xMidYMid meet">
  <metadata>
Created by potrace 1.16, written by Peter Selinger 2001-2019
</metadata>
  <g transform="translate(0.000000,1024.000000) scale(0.100000,-0.100000)" fill="#000000" stroke="none">
    <path d="M7748 9634 c-53 -8 -195 -39 -315 -70 -448 -116 -552 -135 -753 -135&#xA;-187 0 -289 17 -635 106 -310 80 -370 89 -585 89 -226 0 -315 -14 -707 -115&#xA;-566 -145 -709 -170 -962 -170 -185 0 -208 2 -371 32 -101 18 -171 38 -530&#xA;147 -304 92 -438 112 -725 107 -280 -5 -284 -5 -825 -158 -107 -30 -240 -63&#xA;-295 -73 -125 -22 -363 -25 -452 -5 -69 15 -93 7 -93 -30 0 -58 284 -88 500&#xA;-54 115 19 234 49 483 121 340 98 564 131 807 121 216 -10 374 -42 700 -142&#xA;234 -71 339 -100 435 -119 331 -64 581 -43 1100 89 596 153 673 167 910 169&#xA;200 1 289 -13 659 -105 400 -99 534 -114 771 -84 135 17 175 26 535 118 532&#xA;135 629 133 1245 -28 228 -59 357 -78 555 -79 207 -1 302 13 443 64 87 32 117&#xA;53 117 82 0 33 -29 32 -148 -6 -149 -46 -221 -57 -390 -57 -213 -1 -343 17&#xA;-612 87 -96 25 -227 59 -290 76 -102 26 -135 30 -295 33 -125 3 -210 0 -277&#xA;-11z"/>
    <path d="M7945 9229 c-132 -9 -210 -26 -482 -108 -376 -113 -502 -136 -743&#xA;-135 -215 1 -318 18 -655 109 -375 101 -471 118 -660 119 -244 2 -375 -23&#xA;-784 -149 -373 -114 -552 -152 -776 -162 -253 -11 -500 33 -875 156 -245 81&#xA;-362 109 -533 127 -248 26 -453 -1 -945 -127 -358 -91 -491 -113 -642 -106&#xA;-73 4 -144 14 -195 28 -44 12 -96 23 -115 23 -31 1 -35 -2 -35 -24 0 -19 9&#xA;-29 39 -43 66 -32 186 -58 292 -64 165 -10 307 15 734 127 320 84 495 111 718&#xA;111 228 0 311 -16 669 -132 566 -183 863 -203 1319 -89 88 22 199 53 249 69&#xA;358 115 477 144 660 166 256 30 428 12 745 -75 451 -125 595 -153 790 -152&#xA;205 1 446 46 746 142 267 85 410 110 584 105 144 -4 261 -30 500 -107 389&#xA;-127 531 -155 753 -145 145 6 265 33 380 85 69 31 87 56 62 81 -14 14 -24 12&#xA;-108 -17 -137 -47 -209 -62 -342 -68 -87 -5 -151 -2 -235 10 -149 22 -189 33&#xA;-475 126 -351 114 -445 131 -640 119z"/>
    <path d="M1649 8520 c-42 -12 -79 -41 -96 -74 -22 -42 -22 -126 0 -160 34 -51&#xA;117 -86 172 -72 40 10 104 74 116 116 36 118 -74 226 -192 190z m100 -84 c25&#xA;-20 32 -55 17 -91 -25 -59 -88 -74 -131 -30 -73 72 33 185 114 121z"/>
    <path d="M6345 8258 c-71 -4 -366 -22 -655 -38 -289 -17 -640 -37 -780 -45&#xA;-140 -8 -462 -26 -715 -40 -891 -50 -905 -51 -926 -72 -12 -12 -21 -39 -24&#xA;-69 -9 -84 -73 -890 -85 -1054 -6 -85 -13 -175 -15 -200 -4 -43 -9 -119 -20&#xA;-290 -3 -41 -7 -104 -10 -140 -6 -70 -51 -800 -60 -965 -3 -55 -8 -129 -10&#xA;-165 -2 -36 -7 -137 -11 -225 -6 -148 -5 -161 12 -177 19 -17 338 -168 355&#xA;-168 29 0 -6 -21 -119 -72 -70 -32 -190 -86 -267 -122 -77 -35 -143 -62 -147&#xA;-60 -12 7 -147 249 -187 336 -38 80 -102 273 -116 350 -8 45 -23 58 -83 78&#xA;l-46 15 -31 110 c-17 61 -60 181 -94 267 -55 138 -68 162 -104 194 -115 99&#xA;-402 265 -456 263 -16 0 -96 -48 -206 -122 -152 -103 -180 -126 -183 -149 -3&#xA;-27 38 -181 60 -226 6 -12 43 -42 82 -66 79 -49 120 -89 129 -123 7 -29 5 -29&#xA;-34 6 -83 76 -259 136 -433 147 l-103 7 -138 -209 c-76 -115 -140 -221 -143&#xA;-236 -3 -20 5 -41 30 -75 19 -26 49 -74 67 -105 18 -32 37 -61 43 -64 6 -4 45&#xA;-6 87 -5 43 1 89 -2 103 -8 19 -7 47 -45 98 -133 440 -749 559 -925 759 -1127&#xA;122 -124 230 -212 388 -317 181 -120 175 -118 405 -122 170 -3 203 -1 230 13&#xA;167 86 879 427 882 423 3 -3 23 -727 33 -1143 6 -266 9 -278 81 -283 l42 -3 1&#xA;-82 c0 -45 4 -104 7 -132 l7 -49 75 -29 c174 -67 487 -129 820 -162 451 -46&#xA;940 -23 1315 60 145 32 342 96 410 133 l50 27 3 131 3 132 29 12 c57 24 55 4&#xA;60 539 l5 496 60 -85 60 -85 12 -115 c16 -153 24 -559 13 -690 -16 -183 -40&#xA;-351 -71 -500 -17 -80 -33 -169 -36 -198 -6 -61 -17 -48 176 -207 75 -61 113&#xA;-85 132 -85 16 0 108 7 206 15 397 34 735 101 761 152 31 58 49 933 29 1383&#xA;-9 209 -34 558 -46 654 -10 76 -19 91 -149 256 -67 84 -112 137 -242 285 -73&#xA;83 -333 355 -444 464 l-115 115 62 16 c76 20 206 76 229 99 12 11 18 40 22&#xA;101 19 288 28 416 41 585 8 105 28 399 45 655 39 605 57 874 70 1040 5 74 15&#xA;207 20 295 6 88 13 176 16 196 3 28 0 39 -18 56 -23 21 -390 283 -812 581&#xA;l-229 162 -66 -1 c-36 -1 -124 -6 -196 -11z m213 -180 c-4 -57 -14 -215 -23&#xA;-353 -8 -137 -19 -313 -25 -390 -9 -141 -12 -194 -30 -520 -24 -439 -31 -559&#xA;-41 -705 -6 -85 -11 -155 -12 -156 -16 -8 -117 -65 -210 -119 -81 -46 -121&#xA;-75 -128 -92 -5 -14 -10 -134 -12 -266 -2 -240 -2 -242 19 -245 12 -2 24 4 27&#xA;12 4 9 7 86 9 173 1 87 4 190 6 229 l4 72 51 28 c29 15 90 53 137 83 47 31 88&#xA;57 92 59 4 2 5 -12 2 -30 -5 -37 -40 -680 -50 -922 l-7 -158 -181 6 c-100 3&#xA;-496 8 -881 11 -385 3 -770 8 -855 10 -85 2 -366 7 -625 11 -258 4 -490 8&#xA;-515 9 -25 1 -80 2 -124 3 l-78 2 6 123 c14 257 56 965 61 1017 2 30 7 102 10&#xA;160 6 101 20 314 30 450 3 36 9 126 15 200 40 540 97 1210 103 1217 2 2 89 8&#xA;193 13 104 6 250 15 324 20 74 6 154 10 178 10 l43 0 -7 -92 c-5 -84 -3 -101&#xA;21 -173 l27 -79 -54 -51 c-30 -27 -98 -90 -151 -140 l-97 -90 0 -100 c0 -104&#xA;8 -132 33 -122 11 4 17 29 22 96 l7 89 112 98 c143 127 206 190 206 208 0 8&#xA;-15 57 -33 108 -31 89 -32 97 -23 174 l9 81 106 6 c58 4 183 11 276 17 458 27&#xA;697 41 875 50 107 6 227 12 265 15 39 3 167 10 285 16 118 6 274 14 345 18 72&#xA;5 162 9 200 9 l70 2 -7 -102z m302 -84 c113 -80 211 -149 219 -153 11 -7 11&#xA;-23 2 -92 -9 -76 -18 -177 -36 -414 l-6 -80 38 -28 c21 -16 65 -47 98 -70 l60&#xA;-42 -3 -50 c-1 -27 -9 -117 -17 -198 -8 -82 -13 -153 -9 -158 9 -15 33 -10 42&#xA;9 18 35 36 181 36 302 l1 125 -97 65 c-97 64 -98 65 -93 100 3 19 14 133 25&#xA;254 10 120 21 221 24 223 2 3 104 -66 225 -153 166 -118 221 -163 221 -178 0&#xA;-12 -16 -241 -35 -511 -52 -716 -72 -1006 -95 -1341 -11 -164 -22 -326 -25&#xA;-359 -3 -33 -12 -145 -20 -250 -28 -365 -24 -335 -48 -335 -12 1 -67 7 -122&#xA;14 -55 8 -196 27 -314 42 l-214 28 7 131 c20 412 20 434 2 441 -10 4 -22 2&#xA;-27 -3 -10 -10 -34 -244 -44 -433 l-7 -125 -100 9 -101 9 7 211 c4 116 9 225&#xA;11 241 2 17 6 86 10 155 5 117 29 494 40 640 2 36 10 154 16 264 l13 199 41&#xA;51 c58 71 175 236 188 264 6 12 8 25 4 28 -15 15 -49 -15 -132 -116 -49 -61&#xA;-92 -110 -93 -110 -2 0 -1 42 2 93 4 50 13 207 21 347 8 140 17 291 20 335 10&#xA;147 45 736 45 751 0 8 3 14 8 14 4 0 99 -66 212 -146z m-5016 -2155 c141 -72&#xA;341 -209 325 -223 -23 -19 -268 -196 -272 -196 -3 0 -61 35 -129 79 -68 43&#xA;-165 102 -216 131 -52 29 -90 56 -85 60 20 19 277 190 286 190 5 0 46 -19 91&#xA;-41z m-197 -340 c239 -148 226 -137 258 -226 15 -43 40 -105 55 -139 l27 -61&#xA;-64 -99 c-58 -91 -63 -102 -58 -139 9 -59 24 -104 56 -165 15 -30 35 -72 43&#xA;-93 17 -42 39 -55 61 -37 22 18 19 33 -26 137 -22 53 -38 97 -36 99 2 3 40 -9&#xA;83 -25 43 -16 103 -37 133 -47 l55 -19 51 -150 c29 -82 71 -199 94 -259 22&#xA;-60 40 -111 38 -112 -1 -1 -54 -10 -117 -18 -178 -24 -378 -37 -549 -35 l-156&#xA;1 -125 215 c-234 404 -274 467 -304 481 -15 8 -66 15 -113 17 l-85 3 -39 58&#xA;c-21 32 -37 60 -34 62 7 7 190 -18 244 -34 51 -14 103 -49 201 -133 38 -33 59&#xA;-38 78 -19 22 22 13 36 -63 98 -41 34 -75 65 -75 70 0 11 191 249 229 284 l31&#xA;30 34 -33 c39 -38 91 -130 110 -194 9 -31 17 -43 34 -45 61 -9 63 37 11 258&#xA;-33 141 -35 142 -156 232 -69 51 -83 67 -91 100 -13 49 -21 52 165 -63z m596&#xA;-44 c46 -113 102 -284 95 -291 -3 -3 -114 25 -211 53 -12 4 -30 -8 -57 -37&#xA;-22 -24 -42 -41 -44 -39 -14 16 -86 214 -82 225 3 7 38 38 78 68 40 30 96 73&#xA;123 94 28 22 51 39 52 38 1 0 22 -51 46 -111z m-907 -125 c38 -10 91 -29 118&#xA;-40 l49 -22 -75 -77 c-56 -57 -178 -195 -202 -228 -1 -1 -24 4 -51 12 -27 9&#xA;-103 22 -169 30 -65 8 -121 17 -123 19 -2 2 45 79 104 170 l108 167 86 -6 c47&#xA;-3 117 -14 155 -25z m962 -248 c72 -19 132 -40 132 -44 0 -5 -26 -46 -58 -91&#xA;-32 -45 -73 -107 -91 -137 -18 -30 -34 -56 -36 -58 -3 -3 -144 43 -228 75 -51&#xA;19 -67 29 -63 40 7 18 142 221 164 246 9 10 22 15 31 12 9 -4 76 -23 149 -43z&#xA;m306 -422 l37 -85 -83 -172 c-46 -94 -85 -172 -88 -172 -10 -2 -170 446 -170&#xA;474 0 17 24 57 119 199 l66 99 41 -129 c23 -71 58 -167 78 -214z m1326 75&#xA;c146 -3 414 -7 595 -10 695 -10 1024 -15 1420 -20 237 -4 479 -12 575 -21 167&#xA;-15 301 -32 307 -38 2 -2 -20 -21 -49 -43 l-53 -40 -365 6 c-201 4 -648 8&#xA;-995 9 -617 2 -1058 7 -1522 17 l-232 6 -133 62 c-73 35 -144 68 -158 75 -20&#xA;10 10 11 160 7 102 -2 304 -7 450 -10z m3228 -131 c51 -4 95 -10 97 -14 3 -5&#xA;-25 -13 -63 -19 -37 -7 -74 -14 -82 -16 -8 -3 -33 11 -55 31 -36 31 -37 35&#xA;-15 30 14 -3 67 -8 118 -12z m-71 -163 c92 -87 209 -201 259 -252 109 -112&#xA;365 -391 361 -395 -1 -1 -31 4 -67 11 -85 19 -139 19 -146 1 -5 -12 3 -51 22&#xA;-118 4 -13 -15 -27 -85 -63 -50 -25 -93 -45 -96 -45 -3 0 -68 56 -145 125&#xA;-184 166 -198 165 -156 -7 13 -56 27 -119 30 -138 6 -37 7 -37 -145 -108 -8&#xA;-4 -228 239 -419 463 -84 99 -162 189 -172 201 -19 21 -18 21 114 125 378 294&#xA;462 359 469 359 4 0 83 -72 176 -159z m-3397 32 l160 -76 0 -88 c0 -81 -2 -88&#xA;-21 -94 -12 -4 -86 -39 -165 -77 l-143 -70 -102 74 c-57 40 -108 76 -114 81&#xA;-6 5 0 16 18 31 45 37 34 64 -46 111 l-67 40 32 15 c18 8 87 41 153 72 66 31&#xA;123 57 127 58 5 0 80 -34 168 -77z m143 37 c9 0 17 -7 17 -15 0 -18 1 -18 -44&#xA;0 -40 17 -49 31 -13 21 12 -3 30 -6 40 -6z m409 0 l249 0 -1 -181 c-1 -118 2&#xA;-185 9 -192 6 -6 57 -12 119 -13 59 -1 110 -2 113 -3 3 0 8 -64 11 -141 4 -91&#xA;10 -145 18 -155 10 -12 46 -15 214 -15 144 0 205 3 214 12 8 8 12 57 12 155&#xA;l0 143 28 1 c15 1 76 3 136 5 75 2 112 7 118 16 5 7 6 36 4 63 -3 28 -8 105&#xA;-12 173 l-7 123 318 -5 c175 -3 319 -7 320 -8 2 -2 5 -181 9 -398 3 -217 8&#xA;-496 11 -620 3 -124 7 -441 10 -705 3 -264 8 -528 11 -588 l5 -107 -186 2&#xA;-187 3 -57 103 c-56 102 -82 127 -106 101 -7 -8 -47 -81 -90 -164 -43 -82 -78&#xA;-151 -79 -152 -1 -2 -20 21 -41 50 -91 120 -128 158 -155 155 -17 -2 -31 -15&#xA;-45 -41 l-20 -39 -255 6 c-140 4 -318 9 -395 11 -77 3 -230 7 -340 11 -110 3&#xA;-201 7 -202 8 -1 1 -5 115 -9 254 l-7 252 174 2 174 3 0 248 c0 231 -1 250&#xA;-19 262 -10 8 -30 12 -45 10 -14 -2 -87 -7 -162 -10 l-137 -5 -6 237 c-4 131&#xA;-9 265 -11 298 -2 33 -7 209 -10 390 -4 182 -8 354 -10 384 -5 67 -1 75 37 67&#xA;17 -3 143 -6 280 -6z m-1512 -82 c82 -149 401 -569 443 -584 10 -3 28 1 41 9&#xA;12 8 76 40 142 70 l120 54 -3 -191 c-2 -105 -6 -241 -9 -302 l-6 -112 -81 -38&#xA;c-45 -20 -158 -75 -251 -121 -94 -46 -181 -83 -197 -83 -34 0 -135 89 -374&#xA;329 -82 83 -155 151 -162 151 -58 0 71 -159 320 -396 l102 -97 -120 7 c-137 7&#xA;-144 10 -305 119 -284 192 -483 393 -672 681 -43 66 -78 122 -78 125 0 3 114&#xA;6 253 7 241 1 269 3 518 41 36 5 37 5 90 -73 166 -247 471 -614 540 -650 26&#xA;-13 49 -4 49 19 0 4 -42 54 -93 110 -162 178 -292 342 -441 555 l-58 83 64&#xA;132 c36 73 75 156 88 185 13 28 26 52 29 52 3 0 26 -37 51 -82z m2671 33 c0&#xA;-20 4 -89 7 -154 l7 -117 -132 0 c-121 0 -133 -2 -143 -19 -5 -11 -9 -28 -8&#xA;-38 0 -10 0 -71 0 -135 l-2 -118 -159 0 -158 0 -5 140 c-4 91 -10 145 -18 155&#xA;-10 12 -37 15 -128 15 l-115 0 6 68 c4 37 7 106 7 154 l0 88 420 -1 420 -1 1&#xA;-37z m1126 21 l83 -7 -200 -154 c-110 -85 -201 -159 -201 -165 -3 -27 10 -53&#xA;118 -241 64 -110 122 -211 129 -225 10 -18 14 -71 14 -192 l0 -168 -32 -1&#xA;c-123 -3 -148 -9 -148 -34 0 -32 63 -42 177 -29 68 9 75 26 71 173 -2 61 -1&#xA;111 2 111 3 -1 47 -67 97 -148 l93 -147 -3 -545 -2 -544 -60 -12 c-33 -6 -74&#xA;-14 -92 -17 l-31 -6 -4 337 c-2 259 -6 342 -16 361 -32 55 -37 9 -40 -353 l-3&#xA;-354 -42 -10 c-58 -15 -206 -36 -211 -31 -2 2 -7 229 -11 504 -3 275 -8 520&#xA;-10 545 -2 25 -7 341 -11 703 l-7 657 129 -1 c71 -1 166 -4 211 -7z m-3320&#xA;-149 c64 -35 65 -37 46 -53 -32 -26 -44 -55 -30 -73 13 -17 200 -153 220 -160&#xA;17 -6 14 -8 -108 -61 -60 -26 -115 -49 -121 -52 -15 -7 -293 330 -282 341 6 6&#xA;192 93 201 94 5 1 38 -16 74 -36z m653 -250 c0 -43 3 -175 6 -293 l7 -215&#xA;-167 -82 c-91 -46 -170 -83 -175 -83 -4 0 -7 12 -5 28 2 15 4 117 5 227 2 110&#xA;4 232 7 271 l3 70 152 76 c84 42 155 77 160 77 4 1 7 -34 7 -76z m2651 -290&#xA;c85 -102 246 -280 332 -370 41 -41 58 -67 54 -77 -4 -9 -7 -52 -8 -96 -1 -44&#xA;-3 -80 -5 -80 -6 0 -125 184 -256 394 -56 88 -123 196 -150 239 -26 42 -46 77&#xA;-44 77 2 0 37 -39 77 -87z m1174 -57 c85 -13 91 -15 123 -52 64 -74 222 -287&#xA;222 -299 0 -7 7 -73 15 -147 8 -73 19 -225 24 -338 6 -113 13 -245 16 -295 17&#xA;-262 5 -950 -21 -1182 l-5 -51 -67 -17 c-37 -10 -82 -21 -101 -26 l-33 -8 7&#xA;91 c11 135 -3 378 -22 385 -8 3 -18 0 -23 -6 -4 -7 -9 -116 -12 -242 -3 -126&#xA;-7 -231 -10 -234 -5 -5 -200 -34 -231 -35 -17 0 -17 10 -10 168 4 92 7 185 6&#xA;207 0 22 -1 61 -2 88 -1 40 -4 47 -21 47 -23 0 -27 -20 -35 -180 -3 -63 -8&#xA;-165 -11 -226 l-7 -112 -46 -6 c-25 -4 -94 -9 -153 -13 -89 -5 -108 -4 -108 8&#xA;0 8 7 73 15 144 60 523 67 1085 21 1584 l-14 145 -128 122 c-71 67 -127 124&#xA;-124 127 3 3 46 27 95 54 103 56 108 65 81 171 -9 33 -16 64 -16 68 0 5 24&#xA;-14 53 -42 102 -98 137 -124 164 -124 27 0 235 100 262 125 11 11 11 20 -3 61&#xA;-9 26 -16 49 -16 51 0 5 21 3 115 -11z m-632 -559 l87 -82 15 -185 c18 -241&#xA;31 -680 19 -680 -5 0 -36 9 -69 21 l-60 21 -3 191 c-2 106 -9 266 -17 356 -14&#xA;160 -15 165 -49 215 -35 51 -35 51 -29 139 3 48 9 87 12 87 3 0 45 -37 94 -83z&#xA;m-2783 -287 l0 -201 -147 3 -147 3 -3 35 c-1 19 -4 106 -6 192 l-4 157 26 3&#xA;c14 2 83 5 154 6 l127 4 0 -202z m2852 -706 l59 -17 -6 -126 c-10 -211 -48&#xA;-654 -61 -719 -5 -23 -6 -22 -52 17 -26 22 -66 57 -90 78 l-42 38 25 120 c28&#xA;130 69 410 80 543 4 48 12 82 18 82 6 0 37 -7 69 -16z m-1406 -151 c23 -40 27&#xA;-43 67 -41 23 1 113 1 199 0 l156 -2 4 -137 c2 -76 3 -139 2 -140 -2 -8 -279&#xA;-44 -394 -51 -271 -18 -653 -11 -811 14 -37 6 -39 9 -39 43 0 44 -13 66 -34&#xA;58 -14 -6 -21 -32 -19 -76 1 -10 -14 -12 -75 -6 -161 14 -494 84 -609 127&#xA;l-53 19 0 67 c0 37 -3 84 -7 106 -5 34 -4 38 13 33 10 -3 111 -8 224 -11 113&#xA;-4 250 -8 305 -11 55 -3 208 -7 341 -11 l241 -6 20 28 20 27 78 -101 c108&#xA;-141 120 -140 199 19 29 57 62 124 75 148 l22 43 26 -48 c14 -27 36 -68 49&#xA;-91z m934 -63 l0 -111 -44 -19 c-94 -40 -370 -119 -381 -109 -4 4 -9 190 -6&#xA;241 1 24 6 28 47 34 25 3 118 21 207 39 89 18 165 34 170 34 4 1 7 -49 7 -109z"/>
    <path d="M5541 7844 c-54 -69 -85 -241 -59 -339 12 -48 15 -51 63 -67 130 -44&#xA;289 -7 422 99 l41 33 11 -32 c12 -34 15 -29 -60 -118 -26 -30 -49 -64 -52 -75&#xA;-4 -12 9 -60 31 -115 30 -75 42 -95 57 -95 17 0 20 6 18 38 -2 21 -14 65 -29&#xA;97 l-26 59 53 66 c29 36 55 65 57 65 3 0 29 -12 59 -26 44 -22 63 -26 109 -22&#xA;63 5 95 27 75 52 -9 11 -26 13 -64 10 -103 -10 -187 67 -187 172 0 72 -34 78&#xA;-59 11 -13 -32 -116 -111 -190 -144 -66 -29 -169 -40 -230 -23 l-43 11 4 107&#xA;c3 77 11 125 27 170 31 86 16 122 -28 66z"/>
    <path d="M4645 7136 c-17 -25 -41 -127 -51 -218 l-6 -56 -72 -4 c-39 -2 -322&#xA;-5 -630 -7 -348 -1 -566 -6 -577 -12 -26 -13 -25 -65 0 -79 11 -5 36 -10 56&#xA;-10 l35 0 -19 -39 c-34 -65 -61 -181 -61 -256 0 -200 112 -377 293 -465 107&#xA;-51 168 -64 302 -64 129 1 225 24 338 80 139 70 275 237 321 393 27 93 18 252&#xA;-19 344 -6 14 -2 17 24 17 40 0 78 36 85 81 39 251 44 294 34 306 -16 20 -36&#xA;16 -53 -11z m-164 -403 c117 -303 -81 -644 -416 -718 -107 -24 -297 -17 -374&#xA;14 -175 71 -285 216 -298 396 -6 81 14 177 54 267 l26 58 426 3 c234 1 459 3&#xA;499 5 71 2 73 1 83 -25z"/>
    <path d="M4123 6555 c-21 -15 -43 -82 -43 -132 0 -90 67 -183 133 -183 75 0&#xA;127 94 127 230 0 90 -11 100 -116 100 -54 0 -86 -5 -101 -15z"/>
    <path d="M4866 7107 c-17 -13 -49 -147 -61 -254 -10 -81 3 -93 95 -93 l68 0&#xA;-20 -57 c-14 -38 -23 -91 -26 -153 -7 -172 42 -304 154 -415 71 -71 146 -117&#xA;257 -159 79 -29 88 -31 237 -30 143 0 161 2 234 27 214 75 354 214 412 412 26&#xA;90 25 300 -3 378 l-20 57 49 0 c61 0 88 14 88 44 0 47 -16 50 -223 43 -106 -4&#xA;-327 -13 -492 -21 -553 -27 -725 -30 -725 -15 0 8 7 55 15 104 8 50 15 98 15&#xA;107 0 25 -33 40 -54 25z m1272 -362 c23 -64 27 -247 7 -325 -65 -250 -276&#xA;-398 -569 -401 -179 -1 -326 52 -438 159 -140 134 -186 360 -108 540 l22 52&#xA;182 1 c99 1 332 5 516 8 184 3 344 6 354 6 13 0 24 -13 34 -40z"/>
    <path d="M5199 6585 c-37 -20 -54 -68 -54 -150 0 -50 6 -81 20 -110 22 -44 75&#xA;-85 110 -85 70 0 145 110 145 213 0 85 -20 122 -75 136 -59 15 -114 13 -146&#xA;-4z"/>
    <path d="M5030 6082 c0 -54 126 -187 221 -234 124 -60 284 -95 389 -84 72 7&#xA;154 34 180 59 34 31 11 40 -58 23 -133 -35 -239 -31 -382 16 -109 35 -161 67&#xA;-251 154 -47 46 -88 84 -92 84 -4 0 -7 -8 -7 -18z"/>
    <path d="M4137 5914 c-37 -19 -109 -49 -160 -66 -87 -29 -98 -30 -199 -25 -60&#xA;4 -108 3 -108 -1 0 -14 55 -41 105 -52 96 -21 251 21 397 109 63 39 87 71 51&#xA;71 -10 -1 -49 -17 -86 -36z"/>
    <path d="M4565 5719 c-139 -20 -234 -48 -314 -91 -267 -144 -456 -375 -438&#xA;-535 7 -64 40 -95 109 -101 50 -4 61 0 198 71 219 114 253 122 495 122 194 0&#xA;204 -1 327 -33 154 -40 266 -84 415 -163 89 -48 121 -60 160 -60 226 -6 231&#xA;319 9 546 -134 136 -318 215 -590 251 -135 18 -215 16 -371 -7z m-257 -280&#xA;l-3 -132 -75 -22 c-41 -13 -81 -24 -89 -26 -10 -3 -13 17 -13 98 0 55 3 106 7&#xA;112 7 12 155 101 168 101 4 0 6 -59 5 -131z m986 -140 c59 -30 105 -77 132&#xA;-134 21 -45 32 -114 19 -126 -2 -3 -64 25 -137 61 -119 58 -338 140 -378 140&#xA;-20 1 13 27 60 48 104 46 228 50 304 11z"/>
    <path d="M7012 6257 c-12 -14 -23 -122 -43 -419 -11 -161 -11 -180 4 -196 9&#xA;-10 59 -42 112 -72 l95 -55 -6 -85 c-16 -247 -21 -406 -12 -417 17 -21 37 -15&#xA;44 15 3 15 7 32 9 39 2 6 7 117 11 246 l7 234 -108 64 -107 64 7 75 c16 160&#xA;31 447 25 479 -6 38 -21 49 -38 28z"/>
    <path d="M1820 4488 c-38 -85 -19 -197 45 -260 22 -22 31 -25 46 -17 25 13 25&#xA;14 -13 72 -34 54 -42 116 -24 205 8 39 7 42 -13 42 -16 0 -27 -11 -41 -42z"/>
    <path d="M5443 3599 c-17 -17 -18 -400 -2 -416 12 -12 298 -5 315 9 9 6 11 55&#xA;8 166 -5 177 -9 215 -27 230 -7 6 -73 14 -147 17 -105 6 -138 4 -147 -6z m210&#xA;-55 l45 -6 1 -149 2 -149 -106 0 -105 0 1 155 2 155 57 0 c31 0 78 -3 103 -6z"/>
    <path d="M7637 2964 c-4 -4 -7 -60 -7 -125 l0 -118 -50 -27 -50 -27 -2 -185&#xA;-3 -185 -55 -19 c-63 -21 -85 -40 -77 -62 8 -21 32 -20 110 4 93 29 101 39 93&#xA;119 -3 36 -6 116 -8 176 l-2 110 47 25 c25 14 49 28 53 32 11 12 4 206 -9 245&#xA;-12 36 -27 50 -40 37z"/>
    <path d="M7916 2482 c-2 -4 -1 -119 3 -256 6 -250 13 -289 41 -237 26 50 22&#xA;350 -6 468 -6 22 -30 38 -38 25z"/>
    <path d="M8073 8128 c-34 -44 -14 -98 36 -98 51 0 80 60 45 94 -19 19 -68 21&#xA;-81 4z"/>
    <path d="M1195 7902 c-98 -34 -163 -101 -191 -200 -38 -130 26 -266 156 -333&#xA;64 -33 185 -33 253 -1 76 36 129 96 155 175 26 79 27 115 7 184 -44 150 -220&#xA;230 -380 175z m178 -68 c80 -27 137 -111 137 -201 -1 -64 -28 -121 -80 -165&#xA;-137 -118 -360 -18 -360 162 0 97 67 179 170 211 41 12 84 10 133 -7z"/>
    <path d="M8705 7543 c-69 -36 -97 -82 -97 -155 0 -153 181 -202 276 -75 29 40&#xA;33 132 7 174 -26 42 -56 60 -111 67 -31 4 -54 1 -75 -11z m112 -85 c39 -36 25&#xA;-106 -26 -132 -36 -19 -71 -9 -95 26 -24 34 -19 66 13 99 36 35 75 38 108 7z"/>
    <path d="M1919 7177 c-53 -20 -95 -52 -121 -95 -30 -49 -32 -158 -4 -216 23&#xA;-45 83 -92 139 -107 138 -37 279 84 264 226 -11 113 -86 192 -188 201 -32 2&#xA;-68 -1 -90 -9z m127 -83 c45 -21 70 -59 79 -114 5 -37 3 -51 -17 -79 -36 -54&#xA;-73 -76 -123 -75 -132 3 -194 159 -97 247 40 37 106 45 158 21z"/>
    <path d="M1434 6596 c-50 -22 -87 -79 -92 -141 -6 -74 12 -120 60 -155 72 -52&#xA;151 -49 219 7 119 100 48 302 -106 302 -27 0 -64 -6 -81 -13z m142 -87 c30&#xA;-29 37 -62 20 -103 -30 -71 -115 -87 -163 -31 -36 41 -31 89 12 132 31 31 40&#xA;35 72 30 20 -4 46 -16 59 -28z"/>
    <path d="M8442 6464 c-71 -37 -121 -128 -108 -199 14 -74 90 -145 155 -145 52&#xA;0 121 38 154 85 34 49 40 131 13 183 -37 71 -147 110 -214 76z m101 -75 c95&#xA;-49 62 -188 -45 -189 -28 0 -42 7 -62 31 -69 81 15 205 107 158z"/>
    <path d="M8173 5505 c-64 -28 -85 -128 -37 -184 32 -38 78 -48 127 -27 94 39&#xA;101 174 12 212 -42 17 -61 17 -102 -1z m75 -77 c19 -19 14 -45 -10 -62 -21&#xA;-15 -24 -14 -42 4 -17 16 -18 23 -8 45 12 27 40 33 60 13z"/>
    <path d="M9161 4866 c-18 -19 -44 -64 -58 -102 -49 -131 -41 -400 17 -588 18&#xA;-57 18 -61 0 -143 -10 -47 -20 -87 -23 -89 -3 -3 -8 30 -11 73 -13 140 -17&#xA;167 -38 232 -14 44 -33 77 -62 107 -37 38 -48 44 -84 44 -55 0 -77 -23 -92&#xA;-97 -11 -48 -10 -73 3 -147 22 -125 62 -200 159 -300 l79 -81 -36 -205 c-19&#xA;-113 -35 -214 -35 -225 0 -34 -16 -2 -34 70 -54 212 -148 335 -256 335 -42 0&#xA;-67 -15 -85 -50 -34 -65 -8 -198 61 -311 39 -65 142 -165 223 -218 l56 -36 -5&#xA;-179 -5 -179 -71 109 c-138 211 -271 298 -351 230 -25 -22 -28 -31 -27 -79 4&#xA;-150 201 -344 410 -403 l61 -16 7 -147 c4 -80 9 -173 12 -206 l6 -60 -32 35&#xA;c-164 179 -238 232 -327 234 -37 1 -49 -4 -69 -27 -40 -47 -30 -129 27 -213&#xA;52 -77 174 -135 327 -156 l88 -12 16 -155 c9 -86 15 -157 14 -158 -1 -1 -30&#xA;24 -64 57 -38 36 -92 74 -137 96 -64 31 -81 36 -122 31 -62 -7 -93 -40 -93&#xA;-101 0 -76 72 -152 187 -197 45 -18 78 -23 149 -24 l92 0 6 -44 c3 -24 6 -65&#xA;6 -90 0 -25 9 -111 19 -191 11 -80 18 -146 16 -148 -1 -1 -21 27 -45 63 -113&#xA;173 -300 199 -300 41 0 -50 25 -100 67 -135 46 -38 144 -78 213 -87 49 -6 52&#xA;-8 47 -33 -12 -61 -19 -152 -13 -175 8 -33 41 -35 57 -4 7 13 16 63 20 112 5&#xA;49 14 93 20 97 7 4 29 10 51 13 50 8 155 59 202 98 76 62 98 160 50 217 -23&#xA;27 -32 31 -78 31 -63 0 -120 -32 -182 -103 l-42 -47 -11 77 c-15 108 -32 306&#xA;-26 312 3 2 38 13 78 23 39 10 104 34 144 53 150 74 216 213 128 271 -60 39&#xA;-202 -12 -299 -108 -32 -32 -59 -58 -60 -56 -5 8 -36 216 -36 240 0 24 6 28&#xA;73 48 98 30 236 103 301 162 99 88 138 220 83 283 -35 42 -101 45 -174 10 -80&#xA;-39 -188 -149 -249 -255 l-49 -84 -6 84 c-4 47 -10 139 -14 206 l-7 120 84 23&#xA;c140 37 221 83 314 176 67 67 85 91 99 136 13 41 14 60 6 81 -44 114 -240 61&#xA;-411 -112 -47 -47 -90 -94 -97 -105 -10 -16 -12 7 -12 121 -1 168 4 204 30&#xA;204 31 0 146 46 205 81 93 56 179 142 215 214 34 70 40 115 20 163 -14 34 -63&#xA;62 -108 62 -57 0 -181 -98 -259 -205 -26 -36 -49 -64 -50 -62 -4 5 52 343 59&#xA;353 4 7 24 15 44 19 77 14 194 85 278 170 121 120 160 217 120 295 -34 65&#xA;-105 69 -194 9 -65 -43 -96 -78 -149 -168 -48 -81 -33 -25 34 126 69 157 120&#xA;305 135 390 16 89 1 153 -52 227 -66 92 -123 109 -178 52z m101 -73 c68 -73&#xA;75 -151 27 -298 -39 -124 -99 -266 -108 -260 -15 9 -36 192 -36 310 0 121 15&#xA;195 51 253 19 29 35 28 66 -5z m-334 -479 c46 -32 73 -115 92 -279 6 -49 13&#xA;-102 15 -117 2 -16 1 -28 -4 -28 -24 0 -130 170 -144 231 -14 57 -18 155 -8&#xA;182 12 31 18 33 49 11z m570 -106 c47 -47 -55 -201 -195 -294 -57 -38 -123&#xA;-69 -123 -57 0 4 23 49 52 101 57 103 150 212 207 242 43 23 44 23 59 8z&#xA;m-736 -565 c53 -48 97 -143 132 -287 15 -60 25 -110 23 -112 -2 -2 -25 10 -51&#xA;27 -103 69 -206 241 -206 347 0 27 3 52 7 55 16 17 56 4 95 -30z m646 -65 c47&#xA;-47 -37 -177 -178 -274 -59 -40 -170 -92 -170 -79 0 13 56 114 90 165 39 56&#xA;121 139 175 178 34 24 65 28 83 10z m-790 -522 c48 -25 176 -168 229 -256 28&#xA;-47 50 -87 48 -89 -3 -2 -39 13 -82 33 -130 62 -228 162 -254 259 -17 65 2 82&#xA;59 53z m837 -46 c11 -18 -33 -94 -83 -144 -26 -26 -75 -64 -110 -83 -60 -34&#xA;-167 -73 -198 -73 -23 0 22 71 99 155 54 59 85 83 149 115 79 39 131 50 143&#xA;30z m13 -559 c6 -80 -77 -166 -233 -241 -115 -56 -121 -54 -77 27 61 111 183&#xA;230 260 253 41 12 47 7 50 -39z m-743 -85 c50 -30 222 -209 206 -214 -19 -6&#xA;-163 29 -202 49 -47 23 -92 68 -113 112 -19 42 -21 84 -3 90 18 6 63 -9 112&#xA;-37z m705 -479 c0 -22 -60 -86 -104 -112 -44 -26 -148 -65 -173 -65 -11 0 -11&#xA;5 1 28 22 42 101 110 159 138 57 26 117 32 117 11z m-614 -57 c33 -16 84 -53&#xA;113 -82 l52 -53 -33 -3 c-86 -9 -213 45 -261 110 -17 22 -18 30 -7 43 19 23&#xA;71 18 136 -15z m584 -535 c18 -22 4 -63 -33 -98 -33 -31 -129 -80 -180 -93&#xA;l-28 -6 37 63 c45 79 69 106 114 130 43 22 74 24 90 4z m-480 -54 c33 -26 100&#xA;-116 100 -134 0 -29 -160 41 -190 83 -20 28 -26 70 -13 84 14 13 67 -4 103&#xA;-33z"/>
    <path d="M1112 3603 c-28 -11 -54 -84 -54 -153 0 -77 13 -112 94 -253 l53 -92&#xA;0 -90 c0 -88 -1 -92 -44 -170 -145 -261 -166 -323 -159 -461 5 -103 35 -165&#xA;127 -266 193 -211 220 -298 152 -483 -72 -196 -85 -280 -59 -383 20 -81 106&#xA;-287 121 -290 8 -2 21 4 30 12 19 20 10 64 -39 184 -37 93 -54 180 -47 246 3&#xA;22 21 83 40 134 53 144 63 182 63 249 0 111 -48 203 -189 363 -90 103 -119&#xA;153 -128 228 -11 99 9 158 142 412 68 130 83 189 68 274 -11 64 -16 77 -102&#xA;239 -53 101 -65 162 -41 208 15 27 30 24 101 -23 143 -96 246 -219 290 -350&#xA;32 -95 23 -227 -31 -423 -84 -307 -64 -435 98 -618 99 -112 139 -213 128 -327&#xA;-7 -80 -28 -140 -95 -282 -81 -170 -94 -245 -70 -415 12 -89 22 -113 48 -113&#xA;32 0 39 21 30 85 -13 93 -13 215 1 265 6 25 34 92 62 150 73 153 89 204 95&#xA;305 9 146 -22 240 -117 350 -164 189 -184 293 -111 562 54 200 65 270 57 365&#xA;-13 154 -83 286 -222 417 -115 109 -234 168 -292 144z"/>
    <path d="M1345 2777 c-47 -101 -75 -215 -82 -327 -9 -156 33 -285 138 -416 48&#xA;-60 78 -126 91 -202 11 -64 9 -78 -28 -253 -36 -170 -39 -195 -37 -329 3 -226&#xA;32 -335 77 -290 14 13 13 26 -1 110 -26 155 -22 280 16 469 28 138 32 180 29&#xA;260 -6 116 -23 160 -111 280 -78 108 -108 188 -114 306 -6 106 12 217 57 350&#xA;34 102 36 115 14 115 -9 0 -28 -28 -49 -73z"/>
    <path d="M1989 2766 c-108 -73 -188 -205 -214 -352 -23 -132 2 -225 109 -412&#xA;31 -55 61 -115 66 -133 28 -97 0 -169 -119 -309 -135 -159 -156 -216 -162&#xA;-430 l-4 -135 27 -3 c38 -5 44 14 52 161 9 183 26 219 196 422 62 74 90 145&#xA;90 230 0 78 -19 133 -87 246 -94 156 -119 269 -89 389 26 101 81 187 159 247&#xA;66 51 71 47 63 -52 -4 -46 -16 -130 -27 -185 -38 -196 -22 -276 77 -398 66&#xA;-81 84 -123 84 -207 0 -107 -27 -154 -170 -300 -157 -161 -176 -201 -220 -474&#xA;-11 -68 -11 -76 6 -88 10 -7 21 -13 26 -13 19 0 37 52 52 145 17 108 39 193&#xA;63 239 9 17 71 87 139 157 157 160 179 202 179 334 -1 107 -18 153 -93 248&#xA;-94 119 -105 166 -73 327 25 122 37 262 27 312 -8 42 -39 78 -69 78 -12 0 -52&#xA;-20 -88 -44z"/>
    <path d="M651 2605 c-41 -53 -84 -312 -85 -515 -1 -141 0 -147 28 -204 22 -44&#xA;58 -88 138 -165 124 -121 127 -128 128 -276 0 -150 27 -227 125 -356 31 -41&#xA;62 -87 69 -104 16 -38 41 -59 61 -51 44 16 23 75 -74 210 -87 121 -112 199&#xA;-109 340 2 137 -11 163 -145 292 -137 132 -153 163 -150 305 2 101 24 295 42&#xA;369 5 19 12 47 15 63 9 37 22 34 46 -12 21 -43 44 -168 58 -321 11 -124 35&#xA;-171 156 -305 127 -140 132 -156 119 -333 -15 -201 5 -319 79 -452 51 -92 82&#xA;-117 107 -86 10 11 2 36 -38 118 -82 168 -94 249 -70 453 18 156 0 199 -156&#xA;367 -86 92 -105 129 -117 228 -35 291 -57 369 -119 425 -47 42 -80 45 -108 10z"/>
    <path d="M3306 2274 c-103 -16 -235 -54 -312 -91 -192 -91 -238 -250 -109&#xA;-379 61 -62 124 -95 241 -129 99 -29 127 -31 143 -11 14 17 -10 46 -38 46 -49&#xA;0 -217 71 -278 118 -71 53 -92 135 -54 199 43 69 183 135 368 172 95 19 144&#xA;25 323 36 119 8 142 13 138 33 -3 15 -23 17 -168 19 -100 1 -200 -4 -254 -13z"/>
    <path d="M3588 2016 c-84 -30 -128 -85 -114 -142 12 -47 105 -128 197 -173&#xA;178 -85 507 -171 655 -171 62 0 86 12 66 32 -5 5 -70 23 -143 39 -311 68 -430&#xA;104 -553 167 -101 51 -159 103 -154 135 4 30 62 66 119 73 54 7 67 17 49 39&#xA;-15 18 -73 19 -122 1z"/>
    <path d="M6462 1440 c-196 -53 -296 -69 -512 -81 -205 -12 -421 -2 -633 30&#xA;-112 17 -118 17 -127 1 -12 -23 3 -36 66 -55 107 -32 243 -47 462 -52 320 -8&#xA;533 20 792 103 119 39 148 57 129 80 -15 18 -8 19 -177 -26z"/>
    <path d="M3551 1411 c-27 -17 -1 -42 81 -81 305 -143 871 -243 1383 -244 256&#xA;-1 288 3 283 37 -3 22 -5 22 -258 28 -477 12 -973 93 -1330 218 -80 28 -145&#xA;51 -145 51 0 0 -6 -4 -14 -9z"/>
    <path d="M6658 1109 c-197 -65 -387 -91 -688 -95 -278 -3 -250 -1 -250 -18 0&#xA;-21 52 -35 179 -47 243 -23 549 18 784 104 84 30 116 55 102 77 -9 15 -31 11&#xA;-127 -21z"/>
  </g>
  <title>Utopiec</title>
  <desc>Utopiec, podwodna wersja zombie, która czasami trzyma w ręku trójząb. Można go spotkać w rzekach i oceanach. Pokoloruj go na zgniłozielony kolor.</desc>
</svg>