<?xml version="1.0" standalone="no"?>
<!DOCTYPE svg PUBLIC "-//W3C//DTD SVG 20010904//EN"
 "http://www.w3.org/TR/2001/REC-SVG-20010904/DTD/svg10.dtd">
<svg version="1.0" xmlns="http://www.w3.org/2000/svg"
 width="1024.000000pt" height="1024.000000pt" viewBox="0 0 1024.000000 1024.000000"
 preserveAspectRatio="xMidYMid meet">
<metadata>
Created by potrace 1.16, written by Peter Selinger 2001-2019
</metadata>
<g transform="translate(0.000000,1024.000000) scale(0.100000,-0.100000)"
fill="#000000" stroke="none">
<path d="M7960 9763 c-90 -9 -278 -50 -525 -113 -608 -156 -731 -157 -1315
-15 -322 78 -401 93 -553 103 -233 15 -434 -14 -862 -124 -422 -108 -520 -129
-790 -169 -60 -9 -392 -5 -465 5 -177 25 -255 45 -575 145 -375 117 -553 149
-815 149 -292 -1 -393 -19 -880 -159 -381 -109 -571 -133 -786 -100 -112 18
-117 18 -130 1 -7 -10 -10 -25 -7 -33 21 -55 308 -81 526 -48 111 17 368 81
509 126 112 37 296 81 438 105 80 14 158 18 325 18 299 0 402 -19 845 -155
407 -125 577 -154 850 -146 253 8 431 43 1039 202 300 79 538 112 731 102 185
-10 318 -36 740 -145 359 -93 626 -92 986 2 71 19 199 52 284 75 85 22 225 52
310 67 139 24 171 26 315 21 168 -7 271 -24 505 -87 303 -81 391 -99 585 -121
310 -33 730 54 730 151 0 22 -4 25 -35 24 -19 -1 -80 -16 -135 -33 -109 -35
-284 -61 -408 -61 -88 0 -291 23 -412 46 -44 8 -200 47 -347 85 -147 38 -304
74 -350 79 -79 9 -254 11 -328 3z"/>
<path d="M8026 9319 c-111 -11 -195 -31 -474 -113 -610 -179 -839 -186 -1363
-46 -445 119 -548 140 -740 147 -252 10 -448 -25 -859 -152 -406 -126 -581
-162 -831 -172 -273 -10 -511 31 -869 150 -593 198 -869 203 -1550 26 -333
-87 -379 -97 -487 -113 -179 -26 -334 -17 -470 26 -38 12 -76 22 -86 23 -19 2
-47 -19 -47 -34 0 -18 41 -42 111 -65 118 -38 213 -49 367 -43 154 7 258 27
562 108 398 106 597 139 828 139 249 0 372 -23 696 -131 373 -124 613 -173
866 -173 265 -1 489 45 960 194 440 139 726 169 1050 111 63 -11 210 -47 325
-80 400 -114 566 -145 770 -145 217 1 470 49 783 148 376 120 579 140 847 85
55 -12 195 -52 310 -91 364 -120 498 -148 711 -148 149 0 254 17 390 62 101
33 160 72 149 100 -12 30 -40 29 -118 -2 -231 -92 -501 -103 -786 -30 -42 10
-189 55 -326 100 -359 115 -510 141 -719 119z"/>
<path d="M1452 8578 c-108 -36 -145 -182 -68 -265 105 -114 286 -38 286 120 0
48 -26 96 -71 130 -32 23 -101 30 -147 15z m106 -84 c35 -24 44 -59 28 -99
-16 -37 -42 -55 -80 -55 -38 0 -55 10 -71 41 -22 42 -18 67 14 100 33 33 74
38 109 13z"/>
<path d="M6280 8300 c-146 -10 -310 -21 -365 -24 -55 -3 -129 -8 -165 -11 -36
-3 -231 -14 -435 -25 -203 -11 -449 -24 -545 -30 -96 -6 -380 -22 -630 -35
-943 -51 -950 -52 -977 -77 -25 -23 -22 -2 -59 -458 -49 -622 -82 -1074 -119
-1675 -8 -132 -24 -366 -34 -520 -33 -467 -45 -759 -33 -782 11 -20 30 -30
264 -139 114 -53 148 -74 118 -74 -5 0 -33 -11 -62 -24 -29 -13 -93 -42 -143
-64 -49 -22 -147 -67 -217 -100 -117 -56 -128 -59 -142 -43 -24 26 -162 274
-196 351 -38 87 -71 186 -104 309 -14 52 -29 98 -34 103 -4 4 -32 16 -62 26
l-53 18 -27 100 c-31 116 -61 199 -126 354 -46 110 -48 113 -120 170 -92 74
-233 160 -351 218 l-92 44 -43 -25 c-24 -14 -115 -74 -203 -134 -135 -91 -160
-112 -163 -136 -3 -27 39 -193 60 -234 6 -12 45 -44 87 -71 90 -59 127 -96
137 -137 l7 -30 -24 25 c-39 41 -139 97 -223 124 -70 23 -266 56 -332 56 -21
0 -46 -32 -174 -227 -89 -134 -150 -236 -150 -250 0 -13 11 -39 25 -58 14 -18
47 -68 73 -112 l47 -78 109 -6 c125 -6 108 6 193 -139 452 -775 618 -1018 844
-1235 156 -150 405 -332 538 -393 53 -24 68 -26 251 -30 l195 -4 180 88 c99
48 317 154 485 234 l305 147 7 -91 c3 -50 11 -284 17 -521 23 -881 21 -846 47
-872 15 -15 35 -23 57 -23 l34 0 7 -127 c5 -114 9 -130 27 -146 51 -42 365
-123 650 -167 455 -71 1071 -75 1454 -10 287 49 579 136 663 197 l32 24 0 134
c0 134 0 135 24 141 13 3 34 16 46 29 21 23 21 23 21 539 0 284 1 516 3 516 2
0 32 -39 67 -88 71 -98 70 -97 86 -352 25 -415 -7 -853 -87 -1185 -44 -184
-49 -168 83 -277 61 -52 131 -109 155 -128 l43 -34 212 18 c209 17 424 44 563
71 99 19 241 64 255 82 27 31 41 310 42 818 1 275 -1 572 -6 660 -12 263 -27
483 -41 611 -15 135 -18 141 -134 289 -180 228 -377 448 -653 728 -120 122
-219 223 -219 225 0 1 10 2 23 2 52 0 261 84 288 116 12 15 19 63 28 214 7
107 21 310 32 450 17 234 55 814 79 1205 6 88 19 286 29 440 11 154 23 332 27
395 3 63 12 166 18 227 l12 113 -25 24 c-34 31 -219 165 -896 644 l-199 142
-61 -1 c-33 -1 -179 -10 -325 -19z m329 -332 c-20 -297 -54 -862 -69 -1138
-14 -271 -31 -530 -35 -560 -2 -14 -6 -81 -9 -150 -12 -236 -11 -231 -64 -261
-124 -68 -298 -172 -304 -182 -17 -27 -33 -510 -17 -538 13 -24 36 -24 49 0 6
11 10 96 11 198 1 98 4 205 8 238 5 52 10 62 36 78 17 10 81 50 143 88 62 38
115 69 117 69 3 0 3 -17 0 -37 -7 -49 -55 -978 -55 -1061 l0 -64 -157 6 c-87
3 -473 8 -858 11 -385 4 -765 8 -845 10 -80 2 -381 7 -670 11 -289 4 -536 8
-550 9 -14 1 -97 3 -184 4 l-159 1 7 148 c13 283 71 1238 101 1667 8 116 17
246 20 290 12 183 45 596 55 680 5 50 17 173 25 275 24 291 18 267 73 274 26
3 106 8 177 11 72 4 146 8 165 10 98 11 372 25 379 20 5 -3 7 -29 3 -58 -12
-98 -6 -160 22 -232 l26 -70 -97 -90 c-54 -49 -126 -117 -160 -151 l-63 -61 0
-105 c0 -80 3 -108 15 -118 24 -20 32 -4 44 95 l12 95 62 59 c34 32 98 90 143
127 44 38 91 84 105 103 l24 34 -36 101 c-34 100 -35 104 -26 189 l9 87 32 4
c31 5 175 13 1041 61 242 13 478 27 525 30 47 3 218 12 380 20 162 8 320 17
350 18 30 2 91 4 135 5 l81 2 -17 -252z m267 100 c88 -61 187 -131 221 -155
35 -24 66 -50 70 -56 8 -13 6 -58 -7 -137 -5 -30 -14 -129 -20 -220 -6 -91
-13 -182 -15 -203 -5 -44 10 -61 128 -139 72 -49 77 -54 73 -83 -3 -16 -8 -77
-11 -135 -4 -58 -11 -136 -16 -174 -8 -59 -7 -72 6 -85 40 -39 65 57 81 306 4
56 4 113 0 126 -4 16 -38 45 -107 91 l-101 67 6 42 c3 23 12 125 21 227 19
227 24 270 33 270 6 0 114 -76 425 -298 l38 -27 -6 -105 c-3 -58 -17 -262 -30
-455 -32 -455 -34 -479 -45 -615 -5 -63 -11 -158 -15 -210 -14 -245 -49 -738
-70 -990 -8 -102 -20 -250 -25 -330 -6 -80 -13 -169 -16 -197 -6 -52 -7 -53
-39 -53 -18 0 -110 11 -206 24 -96 14 -239 33 -318 42 l-143 18 8 195 c5 108
9 243 9 301 0 97 -1 105 -19 105 -29 0 -34 -32 -52 -315 -9 -140 -18 -260 -19
-265 -2 -7 -38 -7 -110 -1 l-108 9 6 131 c12 236 47 848 57 971 5 66 17 250
26 409 l18 289 44 54 c74 91 202 274 202 289 0 48 -89 -32 -199 -178 -19 -26
-36 -46 -38 -44 -4 4 15 347 62 1126 14 228 25 432 25 453 0 20 4 37 9 37 5 0
80 -50 167 -112z m-5198 -2310 c88 -47 251 -150 311 -197 13 -10 21 -23 17
-29 -4 -6 -44 -37 -89 -69 -45 -31 -106 -76 -135 -100 -62 -49 -45 -53 -192
42 -53 34 -145 90 -205 125 -61 34 -112 65 -115 67 -3 3 8 14 24 26 56 42 271
186 279 187 5 0 52 -23 105 -52z m-51 -455 c39 -25 75 -52 78 -62 4 -9 22 -57
40 -107 18 -50 42 -109 54 -132 l21 -41 -61 -93 c-34 -51 -65 -103 -70 -115
-11 -28 23 -149 62 -223 16 -30 35 -72 43 -93 17 -42 39 -55 61 -37 23 19 19
43 -26 147 -22 52 -38 97 -36 100 3 2 47 -11 99 -30 51 -19 113 -41 138 -49
49 -16 44 -6 111 -203 17 -49 53 -150 81 -223 27 -74 48 -135 46 -137 -7 -7
-241 -35 -378 -45 -80 -6 -221 -10 -315 -8 l-169 3 -46 75 c-25 41 -88 149
-140 240 -149 261 -225 383 -252 403 -19 14 -50 20 -124 24 l-99 6 -41 63
c-47 73 -52 69 76 54 177 -22 200 -33 369 -177 29 -25 51 -29 69 -11 23 23 11
47 -44 90 -31 24 -68 52 -82 64 l-26 21 70 88 c104 133 185 226 201 232 36 14
104 -86 171 -249 8 -20 19 -28 36 -28 41 0 48 20 37 105 -17 120 -61 298 -78
318 -16 17 -163 130 -188 145 -14 7 -46 88 -38 96 2 2 66 -34 141 -81 75 -47
169 -106 209 -130z m461 56 c45 -112 107 -298 100 -304 -2 -3 -47 7 -99 22
-150 41 -151 41 -188 -6 -36 -45 -46 -50 -54 -23 -2 9 -23 63 -45 119 l-40
102 71 53 c40 29 99 74 132 101 32 26 64 46 70 44 5 -2 29 -51 53 -108z m-958
-129 c82 -21 170 -56 170 -68 0 -4 -21 -28 -46 -52 -35 -34 -176 -192 -233
-262 -4 -4 -28 -1 -55 7 -27 8 -103 22 -170 31 -66 8 -127 17 -134 19 -8 3 31
69 105 181 l118 177 84 -7 c46 -3 119 -15 161 -26z m960 -246 c84 -20 190 -56
190 -66 0 -6 -31 -54 -68 -107 -38 -53 -81 -117 -96 -143 -15 -27 -29 -48 -30
-48 -11 0 -257 85 -278 96 -20 10 -25 19 -21 32 8 21 115 182 155 234 l29 37
47 -15 c26 -8 58 -17 72 -20z m294 -235 c22 -72 57 -170 78 -217 21 -47 38
-90 38 -95 0 -12 -174 -366 -180 -366 -3 0 -22 50 -43 112 -21 62 -61 176 -88
254 l-49 141 53 84 c81 129 142 218 147 218 3 0 23 -59 44 -131z m1451 -144
c110 -3 394 -7 630 -10 237 -3 536 -7 665 -10 129 -3 469 -7 755 -10 498 -6
679 -15 923 -47 50 -6 92 -14 92 -17 0 -4 -24 -25 -52 -47 l-53 -41 -340 7
c-187 3 -673 7 -1080 8 -407 1 -803 4 -880 7 -77 3 -326 7 -553 10 l-413 6
-104 49 c-57 27 -127 59 -157 71 -29 12 -57 26 -63 32 -6 5 73 7 210 3 121 -3
310 -8 420 -11z m3428 -141 c48 -4 87 -10 87 -14 0 -4 -39 -15 -87 -23 l-86
-16 -33 27 c-42 35 -42 46 -1 38 17 -3 71 -8 120 -12z m-111 -148 c84 -79 210
-202 279 -273 218 -221 429 -459 381 -429 -4 2 -48 12 -97 20 -112 20 -123 14
-107 -60 6 -27 14 -57 17 -66 5 -14 -13 -27 -94 -68 l-101 -50 -48 42 c-26 24
-90 82 -143 130 -93 85 -133 106 -145 75 -2 -7 11 -77 29 -155 l34 -142 -83
-44 -84 -43 -160 178 c-88 97 -212 240 -276 316 -64 76 -133 157 -155 180 -21
23 -39 44 -39 47 0 2 59 51 132 108 413 324 484 378 495 378 7 0 81 -65 165
-144z m-3563 22 c86 -39 161 -76 168 -82 6 -6 13 -48 15 -96 l3 -85 -165 -82
c-91 -45 -172 -80 -182 -79 -23 5 -228 149 -228 161 0 5 12 19 27 30 41 33 27
64 -52 109 -60 36 -80 56 -54 56 6 0 77 31 157 70 81 38 149 70 151 70 2 0 74
-32 160 -72z m164 32 c9 0 17 -7 17 -15 0 -19 -13 -19 -50 0 -35 18 -39 30 -7
21 12 -3 30 -6 40 -6z m692 -193 c0 -230 -9 -217 151 -217 l111 0 5 -150 c3
-100 9 -154 18 -165 10 -13 46 -15 224 -15 152 0 215 3 224 12 8 8 12 59 12
165 l0 153 88 1 c232 3 221 -2 211 121 -4 45 -9 125 -10 176 l-3 93 334 -1
c184 0 335 -2 336 -3 1 -1 5 -240 8 -532 4 -291 8 -600 11 -685 3 -85 7 -387
11 -670 3 -283 7 -545 8 -583 l1 -67 -195 2 -195 3 -56 104 c-31 57 -64 108
-74 113 -30 17 -49 -11 -166 -244 l-51 -101 -16 26 c-9 14 -46 62 -82 106 -86
107 -127 118 -156 44 l-15 -38 -412 11 c-496 14 -841 25 -843 27 -1 1 -5 120
-9 265 l-8 262 175 0 c122 0 178 4 186 12 9 9 12 72 12 224 0 240 -6 301 -29
313 -9 4 -92 4 -185 -1 -93 -4 -170 -7 -171 -6 -4 5 -15 314 -25 738 -5 223
-12 471 -15 551 -3 80 -3 147 -1 150 2 2 136 2 298 -1 l293 -5 0 -188z m-1839
91 c79 -141 435 -608 462 -608 4 0 21 9 39 19 35 22 255 121 268 121 4 0 5
-80 1 -177 -3 -98 -7 -238 -7 -312 l-1 -133 -217 -104 c-119 -58 -237 -116
-262 -129 -79 -42 -97 -37 -212 64 -56 48 -175 163 -265 255 -89 92 -167 164
-172 161 -6 -3 -10 -13 -10 -22 0 -36 160 -218 330 -377 58 -54 110 -103 115
-109 7 -6 -32 -8 -114 -4 -140 7 -156 13 -316 120 -291 195 -497 402 -695 697
-118 177 -126 157 63 154 175 -2 423 15 579 40 54 9 100 16 102 16 2 0 30 -37
62 -82 171 -246 338 -454 481 -600 86 -88 110 -101 133 -74 9 12 -9 38 -106
143 -166 182 -322 382 -494 631 -15 22 -11 31 79 217 53 107 96 195 97 195 1
0 28 -46 60 -102z m2795 21 c4 -35 8 -107 10 -159 l4 -95 -137 -3 c-96 -2
-139 -6 -147 -15 -6 -8 -12 -75 -13 -161 l-3 -147 -145 0 c-80 0 -155 0 -166
0 -20 1 -21 7 -26 146 -3 95 -9 150 -18 160 -10 12 -37 15 -133 15 l-120 0 7
77 c3 42 6 116 6 164 l0 88 438 -3 437 -4 6 -63z m1269 44 c3 -2 -2 -8 -11
-13 -8 -5 -78 -58 -155 -117 -76 -60 -165 -128 -196 -152 -36 -27 -58 -51 -58
-63 0 -27 59 -137 239 -443 l41 -70 0 -168 c0 -128 -3 -169 -13 -173 -7 -2
-49 -8 -92 -12 -67 -6 -80 -10 -83 -26 -2 -10 2 -22 10 -27 15 -10 151 -12
197 -3 43 9 54 51 49 187 -3 99 2 128 15 93 3 -8 47 -79 96 -157 l91 -142 -2
-571 -3 -570 -60 -12 c-33 -6 -77 -14 -97 -17 l-38 -6 -1 317 c0 174 -4 339
-8 365 -9 56 -27 80 -41 57 -6 -9 -10 -170 -10 -382 l0 -367 -52 -10 c-102
-21 -219 -38 -222 -32 -2 3 -5 139 -6 301 -1 162 -3 311 -5 330 -7 83 -28
1869 -22 1885 7 16 22 17 220 10 116 -4 214 -9 217 -12z m-3574 -149 c35 -20
64 -38 64 -41 0 -3 -12 -16 -26 -30 -43 -40 -31 -59 96 -150 63 -45 116 -86
117 -90 2 -4 -50 -30 -115 -56 -64 -26 -122 -50 -128 -53 -14 -7 -294 332
-294 355 0 6 200 101 213 101 5 0 38 -16 73 -36z m693 -485 c7 -166 9 -305 4
-309 -13 -14 -351 -179 -355 -174 -6 5 1 411 8 530 l6 91 156 80 c86 44 160
81 163 82 3 0 11 -134 18 -300z m2776 -80 c75 -90 256 -291 347 -385 l59 -61
-3 -106 c-2 -59 -5 -107 -8 -107 -6 0 -238 361 -360 560 -46 74 -89 145 -98
158 -30 46 -2 19 63 -59z m1233 -64 c51 -7 99 -19 107 -25 13 -11 192 -239
232 -296 17 -24 25 -60 37 -165 51 -447 71 -1310 41 -1749 -9 -124 -17 -230
-19 -236 -4 -10 -130 -49 -184 -56 l-23 -3 0 210 c1 224 -5 278 -31 283 -24 5
-28 -27 -28 -214 0 -94 -3 -198 -6 -232 l-7 -60 -61 -11 c-33 -6 -91 -13 -128
-17 l-68 -7 0 44 c0 24 5 116 10 204 12 197 5 285 -21 285 -25 0 -26 -8 -40
-290 -6 -135 -14 -248 -18 -252 -8 -8 -309 -33 -316 -26 -3 3 3 93 15 199 62
597 66 1009 19 1629 l-11 145 -137 132 c-156 151 -153 132 -24 199 99 50 99
50 84 141 -7 42 -16 83 -19 92 -3 9 22 -9 56 -39 113 -100 142 -120 174 -120
34 0 264 116 272 137 3 7 -1 34 -9 60 -8 27 -15 49 -15 51 0 4 25 2 118 -13z
m-661 -583 l92 -87 15 -200 c9 -110 19 -316 22 -459 l7 -258 -24 7 c-13 4 -44
15 -69 25 l-45 18 -7 213 c-5 118 -14 287 -22 376 -14 161 -14 162 -50 211
l-36 49 7 97 c3 53 9 96 12 96 3 -1 47 -40 98 -88z m-2927 -302 l0 -211 -152
3 -152 3 -2 50 c-2 28 -5 118 -8 202 l-4 152 76 4 c43 1 114 4 160 5 l82 2 0
-210z m3055 -899 c-8 -183 -47 -659 -61 -749 l-5 -32 -87 76 c-48 43 -91 80
-95 84 -4 4 6 74 22 156 32 156 65 389 76 534 4 47 8 90 10 97 3 8 24 5 75
-10 l71 -21 -6 -135z m-1551 32 c14 -27 29 -54 34 -61 7 -10 60 -15 218 -19
115 -3 210 -6 211 -7 1 0 3 -65 5 -143 l3 -141 -55 -11 c-304 -57 -944 -71
-1217 -25 -31 5 -33 8 -33 43 0 41 -20 67 -45 57 -10 -3 -15 -19 -15 -45 0
-22 -3 -42 -7 -44 -27 -15 -509 74 -664 123 l-96 30 -7 61 c-3 34 -6 84 -6
111 l0 50 88 -6 c48 -4 231 -11 407 -16 176 -5 400 -12 497 -16 l177 -6 25 27
c14 15 29 24 35 21 5 -3 42 -49 82 -101 59 -77 77 -95 98 -95 14 0 32 4 39 8
7 5 46 78 88 162 l75 154 19 -32 c11 -17 31 -53 44 -79z m999 -113 l-8 -113
-90 -34 c-81 -31 -310 -93 -342 -93 -10 0 -13 33 -13 140 0 84 4 140 10 140
16 0 373 69 405 79 17 4 34 5 38 1 5 -4 5 -58 0 -120z"/>
<path d="M5552 7875 c-56 -71 -89 -265 -63 -363 14 -50 38 -68 115 -83 115
-24 275 23 389 114 38 29 40 30 53 12 8 -10 14 -24 14 -31 0 -7 -29 -49 -65
-94 -36 -45 -65 -89 -64 -98 0 -10 17 -60 38 -112 29 -74 41 -95 57 -95 16 0
19 6 17 42 -1 24 -14 70 -29 103 l-27 60 58 70 c32 39 61 69 64 67 85 -46 126
-59 174 -54 59 7 91 31 77 57 -8 14 -18 17 -54 13 -129 -15 -203 54 -218 202
-4 43 -39 42 -52 -3 -11 -39 -100 -110 -196 -156 -59 -28 -74 -31 -160 -31
-52 0 -103 3 -112 7 -27 11 -25 170 3 263 35 117 26 168 -19 110z"/>
<path d="M4612 7138 c-17 -22 -40 -112 -53 -212 l-12 -96 -136 0 c-471 0
-1208 -14 -1218 -23 -39 -30 6 -87 68 -87 22 0 39 -3 37 -7 -75 -149 -96 -300
-63 -441 18 -74 77 -181 133 -239 225 -232 673 -242 942 -20 100 83 195 227
225 344 26 98 16 271 -20 356 -6 14 -2 17 25 17 21 0 41 9 59 28 24 24 30 41
40 117 7 50 19 124 26 165 14 80 8 110 -24 110 -10 0 -23 -6 -29 -12z m-179
-435 c32 -63 48 -174 37 -260 -19 -146 -105 -290 -228 -381 -127 -94 -210
-122 -377 -129 -142 -6 -205 4 -301 51 -130 64 -218 168 -255 304 -32 114 -19
237 39 365 l31 67 403 2 c222 2 456 4 520 6 l117 3 14 -28z"/>
<path d="M4056 6511 c-35 -38 -46 -138 -25 -216 13 -45 64 -101 101 -110 46
-12 94 18 124 76 35 70 46 204 20 244 -16 24 -21 25 -110 25 -78 0 -96 -3
-110 -19z"/>
<path d="M4837 7092 c-17 -18 -49 -157 -62 -265 -10 -83 5 -97 101 -97 l72 0
-20 -57 c-49 -138 -36 -320 32 -460 74 -150 235 -270 435 -324 70 -19 98 -21
215 -17 111 5 149 10 214 32 299 101 456 321 456 637 0 90 -22 211 -42 237 -8
9 2 12 44 12 32 0 62 6 76 16 25 17 29 56 8 73 -16 13 -196 13 -421 0 -212
-12 -353 -18 -675 -29 -168 -5 -326 -12 -352 -14 -46 -3 -48 -2 -48 23 0 14 7
68 15 120 14 87 14 95 -1 112 -21 24 -27 24 -47 1z m1345 -402 c21 -83 22
-235 2 -320 -46 -197 -223 -359 -445 -406 -103 -22 -290 -14 -379 16 -304 101
-454 384 -359 677 11 34 26 66 33 73 9 7 185 13 547 19 294 4 545 8 559 7 22
-1 27 -8 42 -66z"/>
<path d="M5187 6549 c-27 -16 -47 -63 -53 -127 -14 -127 49 -232 138 -232 35
0 47 6 83 43 48 48 65 94 65 180 0 84 -19 123 -67 136 -48 14 -142 14 -166 0z"/>
<path d="M5016 6031 c-13 -20 38 -104 97 -162 70 -68 162 -119 278 -153 160
-46 293 -44 411 6 43 18 66 43 53 56 -3 3 -34 0 -68 -8 -163 -35 -275 -30
-417 21 -121 43 -164 70 -261 166 -53 52 -89 81 -93 74z"/>
<path d="M4095 5853 c-173 -91 -274 -118 -406 -109 -55 4 -99 3 -99 -1 0 -14
52 -40 105 -52 96 -22 220 8 375 91 84 44 110 65 110 85 0 20 -29 15 -85 -14z"/>
<path d="M4554 5645 c-202 -26 -317 -68 -472 -172 -277 -186 -425 -455 -313
-567 28 -27 38 -31 89 -31 60 0 96 14 237 95 39 22 113 54 165 72 95 32 95 32
305 33 306 0 443 -33 733 -176 158 -78 190 -91 237 -92 47 -1 60 3 92 30 64
51 78 85 77 185 0 83 -2 92 -48 183 -50 102 -133 201 -213 257 -137 94 -327
160 -527 184 -143 16 -226 16 -362 -1z m-304 -306 l-5 -133 -85 -27 c-47 -16
-89 -29 -93 -29 -4 0 -6 50 -4 111 3 109 4 112 31 132 39 28 149 86 156 82 3
-2 3 -63 0 -136z m1036 -139 c57 -28 121 -92 145 -143 18 -41 26 -137 12 -137
-5 0 -42 19 -83 41 -130 70 -386 169 -437 169 -40 0 -25 20 35 47 122 57 241
65 328 23z"/>
<path d="M7091 6203 c-10 -21 -25 -175 -42 -447 l-13 -190 28 -20 c15 -12 66
-44 114 -71 l87 -51 -3 -89 c-1 -50 -7 -166 -11 -260 -8 -145 -7 -172 5 -185
14 -13 17 -13 33 7 16 19 19 50 25 210 6 189 8 276 7 324 -1 22 -16 36 -88 81
-49 31 -99 61 -112 68 -20 10 -22 17 -18 48 3 21 13 151 23 290 12 189 14 259
6 278 -14 28 -28 31 -41 7z"/>
<path d="M1662 4377 c-45 -54 -55 -163 -21 -230 47 -92 80 -117 108 -83 9 11
5 23 -19 58 -36 51 -49 116 -37 178 5 25 10 54 11 65 1 23 -26 31 -42 12z"/>
<path d="M5449 3409 c-14 -14 -17 -45 -18 -217 -2 -220 2 -234 57 -227 15 2
82 4 149 4 95 1 125 4 137 16 13 13 15 41 11 178 -6 184 -10 221 -29 236 -7 6
-75 14 -152 19 -122 6 -141 5 -155 -9z m258 -63 c3 -3 8 -73 11 -154 l5 -149
-103 -6 c-57 -4 -107 -4 -111 -1 -5 3 -9 78 -9 166 l0 161 101 -6 c55 -3 103
-8 106 -11z"/>
<path d="M7744 2736 c-3 -8 -4 -67 -2 -130 l3 -115 -50 -28 -50 -29 -3 -196
-2 -196 -43 -11 c-83 -21 -135 -71 -91 -88 22 -8 164 34 188 55 16 15 18 28
12 122 -3 58 -7 141 -8 185 l-1 80 49 28 c27 16 53 34 57 41 13 17 0 251 -15
275 -15 24 -36 27 -44 7z"/>
<path d="M8047 1978 c3 -145 9 -267 14 -272 42 -46 65 239 35 426 -16 95 -20
108 -41 108 -11 0 -13 -44 -8 -262z"/>
<path d="M8207 8162 c-35 -39 -9 -102 41 -102 29 0 62 34 62 63 0 50 -70 76
-103 39z"/>
<path d="M1005 7939 c-22 -6 -65 -26 -95 -47 -198 -134 -177 -412 40 -523 65
-33 194 -34 264 -1 139 67 214 231 171 377 -23 80 -107 166 -185 189 -58 17
-132 19 -195 5z m190 -90 c68 -32 125 -119 125 -192 0 -87 -67 -190 -146 -223
-18 -8 -58 -14 -88 -14 -146 0 -263 144 -227 278 12 41 57 105 93 131 64 44
171 54 243 20z"/>
<path d="M8875 7556 c-16 -7 -46 -30 -65 -50 -33 -35 -35 -40 -35 -109 0 -92
24 -130 93 -150 83 -25 157 5 199 79 43 74 20 178 -47 217 -40 24 -109 30
-145 13z m109 -87 c56 -44 19 -152 -52 -152 -67 0 -105 76 -66 131 30 44 78
52 118 21z"/>
<path d="M1741 7165 c-146 -46 -199 -238 -99 -360 89 -107 257 -107 346 1 60
72 67 185 17 269 -53 92 -152 125 -264 90z m161 -96 c59 -42 80 -145 40 -198
-93 -127 -274 -74 -276 80 -1 59 23 95 85 127 51 27 104 24 151 -9z"/>
<path d="M1267 6565 c-82 -21 -127 -83 -127 -174 0 -104 57 -171 154 -179 114
-9 199 68 199 182 0 60 -20 103 -63 140 -28 23 -44 29 -100 40 -9 2 -37 -2
-63 -9z m119 -96 c29 -28 38 -63 24 -105 -22 -66 -87 -92 -150 -59 -51 26 -64
79 -35 135 31 60 112 75 161 29z"/>
<path d="M8616 6430 c-39 -12 -94 -66 -117 -115 -64 -138 65 -292 205 -245
176 58 181 299 7 358 -39 14 -54 14 -95 2z m121 -115 c36 -41 31 -99 -11 -141
-36 -36 -67 -42 -111 -22 -70 32 -72 145 -4 185 36 20 99 10 126 -22z"/>
<path d="M8309 5411 c-52 -29 -78 -100 -56 -154 40 -95 163 -103 217 -14 65
106 -51 227 -161 168z m92 -93 c8 -15 7 -24 -7 -39 -24 -27 -52 -24 -66 7 -11
23 -10 29 10 45 26 20 48 16 63 -13z"/>
<path d="M9366 4759 c-33 -26 -70 -97 -90 -176 -33 -127 -17 -403 33 -563 21
-68 22 -54 -14 -217 -10 -44 -20 -22 -23 50 -8 184 -42 293 -111 361 -31 31
-46 37 -80 38 -81 1 -105 -47 -99 -194 7 -166 54 -263 189 -398 l66 -65 -38
-210 c-21 -115 -39 -221 -39 -234 0 -38 -12 -16 -31 57 -59 235 -157 362 -277
362 -96 0 -128 -105 -77 -257 46 -136 131 -240 276 -339 l69 -48 0 -188 c0
-103 -2 -188 -4 -188 -2 0 -34 46 -70 103 -72 113 -190 237 -250 262 -56 24
-93 19 -128 -16 -29 -28 -30 -34 -25 -86 3 -30 17 -79 31 -107 66 -135 249
-273 411 -311 l50 -11 6 -115 c4 -63 10 -161 13 -219 l6 -105 -26 30 c-136
155 -165 183 -232 218 -89 47 -150 50 -189 11 -23 -23 -25 -31 -21 -88 12
-145 110 -234 313 -286 43 -11 99 -20 125 -20 l47 0 12 -127 c6 -71 15 -148
18 -173 l6 -45 -71 66 c-97 90 -179 133 -255 134 -54 0 -61 -3 -88 -33 -68
-76 -16 -187 119 -256 86 -43 158 -59 239 -52 56 4 73 3 71 -7 -5 -29 35 -424
48 -469 10 -35 -13 -17 -39 30 -33 61 -102 130 -152 153 -122 56 -207 -23
-164 -152 7 -19 23 -47 38 -62 38 -41 156 -96 234 -109 57 -9 67 -14 62 -29
-11 -35 -21 -189 -12 -204 11 -20 30 -19 51 4 12 13 20 48 26 116 5 53 12 100
15 104 2 5 24 12 49 15 24 4 74 22 112 40 156 76 226 185 179 276 -20 39 -43
50 -102 50 -65 0 -141 -44 -190 -110 -20 -27 -38 -48 -39 -47 -5 4 -32 239
-39 327 l-6 86 59 12 c103 21 209 71 268 125 62 56 84 92 86 140 3 90 -76 121
-196 76 -68 -25 -168 -97 -192 -138 -10 -17 -21 -31 -24 -31 -8 0 -31 141 -37
220 l-5 65 89 28 c164 51 322 157 378 253 51 87 44 199 -16 229 -114 60 -325
-91 -438 -313 -12 -23 -25 -42 -29 -42 -4 0 -8 42 -9 93 -2 50 -8 143 -14 205
-6 63 -9 116 -6 118 2 2 39 13 82 24 136 35 236 91 330 183 88 89 119 140 119
201 0 31 -6 44 -33 68 -32 29 -38 30 -97 25 -119 -9 -302 -138 -406 -287 -17
-24 -17 -21 -16 100 0 69 4 149 7 179 l6 54 50 13 c122 31 250 109 341 206
125 136 141 279 34 322 -22 9 -48 16 -58 16 -55 0 -219 -138 -291 -245 -29
-45 -32 -47 -27 -20 3 17 15 100 27 185 12 85 26 160 31 166 5 7 25 15 46 19
97 18 261 128 342 229 75 94 92 132 87 200 -3 51 -8 63 -35 87 -47 42 -93 39
-168 -9 -75 -49 -125 -105 -164 -183 -17 -33 -34 -59 -37 -56 -8 8 25 103 62
177 78 158 155 395 155 479 0 119 -106 271 -188 271 -11 0 -31 -9 -46 -21z
m100 -101 c82 -98 72 -207 -44 -480 -25 -59 -48 -105 -52 -103 -13 8 -35 213
-35 330 1 86 6 137 19 180 33 112 63 131 112 73z m-353 -498 c39 -31 66 -119
88 -279 22 -164 22 -161 11 -161 -15 0 -94 111 -124 176 -24 52 -32 83 -36
153 -4 84 5 131 27 131 5 0 20 -9 34 -20z m600 -122 c26 -41 -46 -160 -149
-248 -47 -40 -166 -110 -187 -110 -11 0 48 115 98 190 69 104 173 195 214 188
8 -2 19 -10 24 -20z m-815 -552 c79 -42 130 -145 187 -386 8 -30 12 -57 9 -59
-18 -18 -155 108 -200 184 -61 104 -91 234 -62 263 16 16 33 15 66 -2z m706
-92 c46 -18 -6 -146 -91 -224 -75 -69 -243 -164 -259 -147 -3 3 14 43 37 88
46 86 131 187 212 251 48 37 69 44 101 32z m-824 -550 c40 -27 148 -135 185
-185 41 -55 107 -170 101 -176 -10 -11 -164 71 -213 114 -93 79 -164 211 -133
248 16 19 30 19 60 -1z m880 -61 c0 -31 -57 -119 -104 -160 -72 -63 -241 -143
-303 -143 -32 0 77 154 151 215 99 81 256 135 256 88z m18 -570 c8 -78 -94
-186 -244 -259 -130 -64 -137 -59 -72 50 81 136 212 249 283 243 26 -2 30 -6
33 -34z m-795 -91 c47 -25 227 -202 227 -224 0 -25 -194 26 -248 66 -68 50
-119 149 -92 181 15 18 47 12 113 -23z m747 -502 c0 -67 -135 -161 -264 -186
l-38 -7 15 29 c24 45 87 101 157 139 63 33 130 46 130 25z m-640 -65 c45 -23
170 -129 170 -144 0 -13 -148 7 -192 27 -52 23 -114 75 -123 103 -18 54 52 61
145 14z m608 -557 c32 -32 3 -89 -70 -138 -58 -38 -154 -77 -165 -66 -3 3 14
38 38 78 63 104 158 165 197 126z m-540 -37 c42 -22 89 -69 120 -122 29 -49
28 -52 -15 -44 -116 21 -219 125 -171 173 16 16 22 15 66 -7z"/>
<path d="M899 3412 c-35 -24 -59 -90 -59 -162 0 -71 16 -114 102 -265 96 -169
87 -233 -67 -500 -25 -44 -57 -117 -72 -163 -22 -71 -25 -95 -21 -175 6 -115
32 -174 122 -273 215 -238 245 -334 165 -542 -95 -247 -92 -325 19 -592 40
-97 57 -114 86 -85 21 22 21 21 -60 246 -13 36 -26 97 -29 135 -7 75 1 108 69
299 42 116 47 206 18 290 -24 69 -96 174 -191 280 -57 62 -87 106 -102 144
-39 106 -22 223 53 365 190 360 193 390 62 643 -65 125 -74 149 -74 196 0 29
6 61 13 71 13 18 15 18 48 1 130 -66 264 -201 330 -331 l44 -87 0 -126 c-1
-108 -5 -141 -29 -226 -61 -215 -67 -243 -73 -320 -10 -143 35 -260 152 -395
36 -41 79 -101 95 -133 78 -156 65 -258 -68 -538 -71 -148 -85 -243 -61 -416
14 -98 22 -115 57 -111 23 3 27 7 25 33 -1 17 -5 85 -9 151 -9 150 -3 176 82
357 36 75 71 167 79 205 28 128 14 265 -34 360 -11 21 -51 76 -90 123 -83 97
-127 179 -142 264 -14 77 -8 122 47 335 82 318 69 473 -57 657 -121 177 -359
335 -430 285z"/>
<path d="M1172 2607 c-20 -24 -72 -165 -93 -254 -28 -111 -30 -233 -6 -334 18
-77 62 -160 150 -284 24 -34 51 -83 60 -110 24 -74 16 -210 -22 -375 -42 -181
-48 -291 -26 -455 19 -143 26 -165 55 -165 28 0 38 26 29 78 -39 231 -38 309
8 532 29 140 33 181 30 270 -4 124 -21 172 -104 288 -30 41 -65 96 -78 121
-75 150 -74 339 6 587 16 50 29 96 29 103 0 15 -25 14 -38 -2z"/>
<path d="M1818 2535 c-114 -77 -197 -212 -224 -367 -25 -139 8 -257 123 -448
111 -185 101 -255 -66 -453 -104 -123 -137 -181 -156 -276 -15 -74 -23 -289
-11 -309 4 -6 16 -12 26 -12 36 0 47 38 54 175 3 72 11 146 16 166 14 48 72
137 155 234 93 109 126 182 127 277 0 86 -17 135 -91 263 -93 162 -123 274
-102 378 23 113 115 257 195 306 18 12 36 21 40 21 15 0 4 -162 -20 -277 -30
-146 -30 -244 1 -307 10 -22 47 -77 82 -124 35 -46 68 -101 74 -122 16 -53 7
-177 -16 -225 -11 -22 -78 -101 -150 -175 -118 -122 -134 -143 -163 -213 -18
-42 -39 -117 -48 -165 -8 -48 -19 -110 -25 -138 -11 -56 -6 -79 19 -89 33 -12
58 35 72 135 14 104 42 216 67 263 8 17 74 90 144 163 139 142 170 191 190
299 19 106 -14 210 -102 320 -94 117 -105 169 -69 351 10 55 22 147 26 205 6
90 4 110 -11 139 -33 65 -66 66 -157 5z"/>
<path d="M420 2372 c-19 -20 -32 -48 -44 -99 -33 -146 -49 -290 -50 -443 l-1
-155 33 -67 c26 -54 53 -86 133 -160 55 -51 107 -104 116 -117 11 -18 18 -64
23 -170 11 -193 35 -260 144 -397 23 -29 54 -75 69 -104 22 -40 32 -51 49 -48
60 9 44 66 -64 217 -97 135 -110 175 -117 351 -7 175 -6 172 -157 319 -158
154 -172 196 -149 446 9 95 42 295 54 328 14 37 24 34 49 -16 23 -46 45 -170
60 -333 13 -136 37 -184 162 -323 55 -61 107 -125 117 -143 19 -37 20 -84 8
-293 -7 -125 -6 -135 20 -220 42 -138 117 -275 150 -275 7 0 20 7 29 15 13 13
9 25 -33 107 -88 175 -94 214 -80 548 4 101 3 107 -25 157 -15 28 -70 97 -122
153 -51 57 -102 121 -113 144 -13 27 -27 98 -40 207 -31 249 -67 341 -152 385
-37 18 -36 19 -69 -14z"/>
<path d="M3290 2033 c-127 -12 -305 -59 -417 -108 -58 -26 -146 -103 -170
-150 -24 -44 -21 -132 4 -180 46 -88 164 -167 305 -204 113 -30 135 -32 148
-16 22 26 4 40 -81 64 -234 66 -349 169 -318 285 36 132 277 219 690 250 100
8 186 19 191 24 8 8 7 16 -2 27 -10 12 -38 15 -164 13 -83 0 -167 -3 -186 -5z"/>
<path d="M3484 1744 c-79 -28 -126 -105 -97 -161 36 -71 121 -133 266 -195
218 -94 648 -181 690 -139 20 20 -13 36 -108 55 -121 23 -340 79 -445 111
-181 57 -340 155 -340 210 0 31 44 62 111 77 67 14 84 25 68 44 -15 18 -92 17
-145 -2z"/>
<path d="M6620 1170 c-90 -30 -306 -78 -430 -94 -265 -34 -579 -29 -874 14
-67 10 -125 14 -129 10 -18 -17 -1 -45 34 -57 133 -43 312 -63 582 -63 317 0
529 30 759 106 125 41 159 63 139 88 -16 20 -13 20 -81 -4z"/>
<path d="M3454 1105 c-10 -25 12 -41 121 -89 185 -81 390 -135 681 -181 300
-47 454 -59 741 -60 243 0 274 2 289 17 14 14 15 20 4 32 -10 14 -44 16 -215
16 -475 0 -1048 92 -1464 234 -74 25 -139 46 -143 46 -5 0 -11 -7 -14 -15z"/>
<path d="M6765 809 c-99 -32 -293 -77 -415 -95 -81 -12 -187 -17 -360 -18
-217 -1 -245 -3 -248 -18 -5 -24 45 -37 188 -49 263 -23 597 21 827 110 86 34
109 51 99 76 -7 19 -17 18 -91 -6z"/>
</g>
</svg>
