<?xml version="1.0" standalone="no"?>
<!DOCTYPE svg PUBLIC "-//W3C//DTD SVG 20010904//EN"
 "http://www.w3.org/TR/2001/REC-SVG-20010904/DTD/svg10.dtd">
<svg version="1.0" xmlns="http://www.w3.org/2000/svg"
 width="1024.000000pt" height="1024.000000pt" viewBox="0 0 1024.000000 1024.000000"
 preserveAspectRatio="xMidYMid meet">
<metadata>
Created by potrace 1.16, written by Peter Selinger 2001-2019
</metadata>
<g transform="translate(0.000000,1024.000000) scale(0.100000,-0.100000)"
fill="#000000" stroke="none">
<path d="M3806 9950 c-101 -38 -386 -176 -457 -222 -83 -53 -87 -69 -61 -247
36 -250 110 -664 127 -710 8 -24 23 -58 34 -75 10 -17 62 -115 115 -218 53
-102 107 -206 121 -230 35 -60 33 -68 -18 -68 -49 0 -529 -54 -622 -70 -33 -5
-204 -30 -380 -56 -176 -25 -351 -52 -390 -60 -38 -8 -104 -21 -145 -30 -187
-38 -226 -63 -281 -178 -28 -60 -42 -108 -54 -186 -9 -57 -18 -106 -20 -108
-2 -2 -113 66 -247 151 -255 163 -281 177 -329 177 -53 0 -87 -28 -195 -158
-288 -346 -351 -465 -292 -551 35 -52 762 -532 912 -602 l69 -32 -7 -81 c-3
-45 -13 -218 -21 -386 -9 -168 -19 -343 -23 -390 l-7 -85 -220 5 c-121 3 -317
5 -435 5 -277 -1 -294 -7 -334 -127 -37 -108 -73 -495 -63 -678 7 -135 20
-167 87 -211 71 -47 312 -171 387 -199 72 -27 188 -28 377 -5 71 9 130 14 133
12 2 -3 -3 -157 -11 -343 -24 -521 -39 -1042 -33 -1116 8 -95 47 -177 113
-237 l53 -48 -151 -119 c-82 -66 -176 -139 -208 -164 -31 -25 -99 -78 -151
-118 -275 -216 -321 -270 -299 -353 24 -87 199 -374 281 -458 47 -49 105 -77
312 -153 172 -62 291 -98 329 -98 16 0 43 7 61 16 78 40 283 216 685 587 l204
188 25 -16 c13 -9 77 -48 141 -87 65 -39 218 -133 341 -210 257 -161 348 -212
410 -228 24 -6 98 -11 165 -11 219 1 1020 33 1101 43 19 3 20 -5 27 -126 16
-308 61 -740 82 -791 10 -22 34 -46 72 -70 70 -45 200 -119 268 -153 l49 -24
186 12 c214 13 394 34 466 55 114 33 129 65 127 270 -1 83 -4 161 -7 175 -5
22 -50 532 -57 638 l-2 43 119 4 c66 2 278 6 470 10 l350 6 75 -103 c155 -212
342 -438 368 -445 31 -8 369 33 477 57 51 12 85 26 96 38 17 22 37 170 47 367
l7 120 71 8 71 9 164 -114 c90 -63 218 -148 284 -189 114 -70 123 -74 178 -74
58 1 59 1 108 55 124 137 339 447 359 519 28 103 11 128 -275 409 l-244 239 9
64 c4 35 11 186 14 334 4 149 9 298 12 331 l6 61 65 7 c213 22 386 94 532 224
44 38 70 72 97 126 l36 74 10 209 c5 114 8 282 6 373 -4 186 -11 212 -74 250
-37 23 -68 27 -523 60 -74 5 -138 13 -143 18 -5 5 -7 71 -6 147 l3 138 30 3
c16 2 81 8 145 14 275 26 302 43 338 208 13 63 16 136 15 395 -1 205 -5 341
-13 385 -11 61 -17 72 -64 117 -74 72 -329 254 -379 270 -23 8 -59 16 -80 17
l-38 4 -4 187 c-2 104 -9 205 -14 225 -15 55 -51 104 -216 293 -82 95 -163
187 -178 206 l-28 33 33 28 c362 300 922 850 1027 1009 39 59 42 124 9 191
-53 105 -409 553 -535 672 -86 81 -87 82 -130 77 -86 -9 -204 -100 -794 -606
-156 -134 -319 -278 -361 -319 -43 -42 -79 -74 -81 -71 -237 279 -353 391
-467 447 -70 34 -81 36 -165 36 -49 -1 -157 -11 -240 -22 -82 -12 -178 -24
-213 -28 l-63 -7 6 49 c6 52 58 642 75 854 5 69 12 148 15 175 6 66 -9 126
-37 149 -17 14 -34 17 -71 13 -46 -4 -55 -10 -139 -93 -103 -102 -265 -289
-359 -414 -93 -124 -717 -855 -752 -881 -5 -3 -61 -12 -125 -18 -65 -6 -134
-17 -155 -23 -20 -6 -39 -9 -41 -7 -6 8 -410 745 -481 879 -103 193 -222 416
-296 554 -112 209 -144 229 -283 176z m112 -130 c12 -11 28 -33 36 -48 15 -29
62 -205 107 -402 85 -369 106 -434 137 -428 14 3 17 14 16 58 -1 60 -43 280
-76 400 -27 98 -31 120 -25 120 3 0 43 -73 90 -162 105 -205 250 -471 428
-794 76 -138 139 -260 139 -271 0 -11 -8 -44 -18 -74 -10 -30 -25 -83 -32
-117 l-13 -64 -82 159 c-45 87 -103 196 -130 243 -219 389 -265 460 -297 460
-10 0 -18 -3 -18 -7 0 -5 39 -87 86 -183 47 -96 104 -215 127 -265 23 -49 95
-197 160 -329 89 -181 115 -241 107 -251 -15 -18 -71 -29 -317 -65 -111 -17
-214 -35 -229 -40 -55 -21 -57 -19 -154 173 -51 100 -112 218 -135 262 -186
353 -318 609 -326 637 -21 70 -111 627 -120 738 l-4 44 170 87 c154 80 295
138 336 139 8 0 25 -9 37 -20z m2468 -737 c-19 -214 -38 -427 -42 -474 l-7
-86 -151 -17 c-83 -10 -194 -24 -246 -32 -200 -30 -174 -34 -267 40 -45 36
-86 66 -92 66 -24 0 -8 -41 35 -89 26 -29 45 -53 43 -54 -10 -8 -329 -41 -327
-35 3 8 32 41 411 477 434 500 490 563 582 665 l90 99 3 -87 c1 -47 -13 -260
-32 -473z m2548 -180 c46 -49 114 -124 149 -168 98 -122 290 -375 322 -423
l28 -42 -36 -53 c-140 -203 -623 -678 -933 -917 -89 -69 -108 -80 -119 -69 -7
8 -63 73 -125 144 l-111 130 58 55 c67 63 320 280 568 489 319 268 468 422
452 465 -12 30 -40 16 -101 -50 -34 -37 -124 -117 -201 -179 -172 -137 -379
-314 -545 -466 -239 -217 -281 -252 -289 -243 -45 48 -375 442 -378 452 -3 7
1 20 8 29 25 30 701 605 881 750 176 140 237 182 270 183 9 0 55 -39 102 -87z
m-1829 -459 c75 -36 165 -121 314 -294 63 -74 165 -190 225 -258 77 -87 110
-131 111 -150 1 -15 5 -108 9 -207 14 -345 31 -474 59 -446 9 9 12 85 12 287
0 150 2 274 5 274 6 0 32 -30 220 -255 138 -165 422 -491 565 -650 123 -136
125 -141 138 -308 6 -89 7 -165 1 -202 l-9 -60 -120 -28 c-66 -15 -147 -36
-180 -46 -33 -10 -159 -44 -280 -75 -121 -31 -240 -63 -265 -70 -25 -8 -57
-16 -71 -20 l-26 -6 -6 98 c-4 53 -7 141 -7 194 0 94 -1 98 -31 132 -33 38
-151 126 -168 126 -6 0 -11 -11 -11 -24 0 -16 21 -43 69 -88 l69 -65 -1 -198
-2 -199 -35 -8 c-101 -25 -228 -63 -253 -75 -57 -29 -60 -51 -61 -454 -1 -351
0 -368 19 -389 22 -24 268 -189 360 -241 59 -33 62 -34 181 -34 l121 0 6 -319
c5 -258 9 -323 21 -341 27 -41 341 -275 369 -275 8 0 18 8 21 17 9 22 -78 105
-221 212 -62 46 -113 86 -113 90 -1 263 -1 609 0 617 0 7 36 13 93 17 241 17
515 37 545 41 l33 5 -2 -782 c-2 -743 -11 -1238 -25 -1464 l-6 -102 -100 82
c-284 233 -645 522 -730 585 -31 23 -65 42 -74 42 -39 0 -82 -43 -181 -185
-133 -189 -217 -301 -256 -342 l-30 -32 -37 33 c-83 75 -265 198 -360 244 -83
41 -155 54 -255 47 -44 -2 -156 -7 -250 -10 -1213 -36 -1449 -43 -1611 -50
l-112 -5 -30 128 c-16 70 -42 180 -58 245 -22 94 -33 124 -56 149 l-29 31
-157 -7 c-86 -4 -179 -9 -207 -11 -27 -2 -99 -6 -160 -10 -150 -9 -213 -26
-248 -67 -15 -18 -96 -135 -179 -260 -150 -226 -152 -228 -187 -228 -20 0
-245 -7 -501 -15 -256 -8 -598 -17 -760 -20 -162 -4 -305 -8 -317 -11 -23 -4
-42 -48 -28 -62 14 -14 1097 -3 1453 15 67 3 122 3 122 1 0 -3 -25 -48 -55
-99 -60 -101 -78 -151 -76 -214 0 -22 30 -137 66 -255 36 -118 76 -249 89
-291 28 -93 62 -156 99 -183 28 -20 38 -21 345 -18 344 3 414 10 449 45 53 52
399 708 444 839 16 49 20 75 15 118 -14 112 -29 99 124 105 74 2 250 7 390 10
140 3 316 7 390 10 74 3 239 7 365 10 127 3 357 10 512 16 269 10 283 10 325
-9 38 -17 123 -72 329 -214 37 -25 73 -48 80 -50 15 -5 10 -18 -36 -82 -41
-56 -45 -100 -15 -139 11 -14 60 -56 108 -93 48 -38 184 -145 302 -239 118
-94 270 -213 337 -265 67 -52 121 -95 120 -96 -2 -2 -197 -12 -547 -29 -58 -3
-193 -9 -300 -15 -276 -13 -1137 -33 -1155 -26 -8 3 -15 14 -15 24 0 29 -23
44 -200 132 l-165 82 -385 -5 c-212 -3 -393 -9 -403 -13 -28 -11 -37 -47 -37
-153 l0 -98 -87 -7 c-184 -13 -727 -31 -933 -31 -258 0 -219 -14 -555 194
-126 79 -356 220 -510 315 -375 230 -752 468 -965 608 -260 171 -277 201 -267
473 4 88 7 161 7 162 0 4 109 13 215 18 172 9 233 16 252 31 17 13 17 15 -2
30 -18 14 -47 15 -243 10 l-223 -7 5 123 c4 68 11 242 16 388 9 236 14 350 35
775 13 263 46 818 55 910 5 55 11 147 15 205 43 792 109 1603 151 1870 16 107
51 190 93 219 40 29 183 66 366 95 567 91 1392 197 1404 182 4 -6 50 -92 101
-191 51 -99 102 -190 113 -202 16 -18 31 -23 71 -23 58 0 581 74 639 91 54 15
74 39 87 106 32 163 64 302 77 335 18 45 -20 38 593 113 157 19 301 37 320 40
19 2 170 20 335 40 271 31 558 66 705 86 30 4 96 6 145 5 76 -3 100 -8 150
-32z m-5732 -827 c73 -46 192 -122 265 -168 l133 -84 -6 -50 c-12 -110 -26
-261 -45 -484 -11 -129 -21 -236 -23 -238 -10 -10 -204 111 -567 353 -339 225
-335 223 -326 257 13 52 227 348 329 455 61 63 81 60 240 -41z m7572 -1555
c113 -39 362 -239 387 -310 19 -56 17 -671 -3 -730 l-14 -43 -80 58 c-193 142
-315 202 -405 203 -142 0 -1126 -115 -1270 -150 -19 -4 -48 -11 -63 -14 l-29
-7 4 325 c2 216 7 329 14 336 6 6 103 35 215 64 279 73 578 153 614 165 60 20
322 84 415 101 121 23 153 23 215 2z m-7320 -643 c6 -9 -8 -304 -20 -439 -2
-24 -7 -97 -11 -161 l-7 -117 -61 -6 c-33 -3 -128 -10 -211 -16 -82 -5 -168
-12 -190 -15 -97 -12 -419 -35 -424 -29 -14 13 -12 319 3 479 18 198 40 284
76 302 33 17 835 19 845 2z m7346 -310 c63 -34 143 -81 179 -104 36 -23 81
-50 100 -60 32 -16 33 -19 14 -26 -11 -4 -54 -12 -95 -18 -76 -11 -878 -74
-1160 -91 l-157 -10 -58 34 c-121 71 -254 158 -254 166 0 17 35 22 580 85 168
19 379 44 470 55 91 11 181 21 200 23 19 2 42 5 51 5 9 1 67 -26 130 -59z
m-7389 -581 c-2 -46 -5 -84 -7 -86 -4 -5 -135 -20 -283 -33 -130 -12 -134 -12
-190 11 -90 37 -283 132 -278 137 2 3 141 13 308 24 166 10 312 21 323 23 11
2 45 4 75 5 l55 1 -3 -82z m7688 -173 c151 -14 279 -30 285 -36 12 -12 14
-423 2 -435 -4 -4 -62 5 -130 19 -221 48 -493 113 -505 121 -9 5 -12 57 -12
182 l0 174 43 0 c24 0 166 -11 317 -25z m-85 -478 c127 -30 248 -57 270 -61
101 -17 95 -12 95 -69 0 -132 -47 -255 -96 -250 -10 1 -136 42 -279 90 l-260
88 -3 134 -3 134 23 -6 c13 -3 127 -30 253 -60z m-57 -366 c103 -33 207 -65
232 -71 l44 -12 -24 -19 c-14 -10 -65 -39 -115 -63 -90 -45 -177 -68 -292 -81
l-63 -7 0 162 c0 142 2 161 15 156 9 -3 100 -33 203 -65z m-4568 -243 c0 -6
-26 -61 -59 -122 -32 -61 -127 -246 -211 -410 l-152 -299 6 -55 c8 -65 111
-537 126 -578 6 -15 7 -31 2 -36 -4 -4 -154 -9 -333 -11 l-324 -2 -18 38 c-11
21 -43 117 -73 215 -30 97 -69 221 -86 275 -37 118 -34 150 22 255 34 62 272
430 408 630 24 35 54 67 66 72 31 12 335 33 549 38 53 1 77 -2 77 -10z m111
-403 c56 -270 55 -252 23 -331 -44 -113 -315 -638 -344 -668 -4 -4 -13 18 -20
50 -14 71 -48 216 -90 381 l-31 123 76 132 c42 73 131 243 198 377 l121 243
13 -53 c7 -30 31 -144 54 -254z m3230 148 c8 -9 84 -73 169 -142 544 -442 920
-757 920 -771 0 -10 -22 -39 -189 -250 -144 -183 -223 -297 -219 -318 9 -46
46 -13 231 211 63 75 138 171 168 211 30 41 59 75 65 75 6 1 63 -56 128 -125
110 -117 118 -128 112 -157 -18 -91 -321 -507 -369 -507 -28 0 -81 32 -297
178 -184 125 -570 409 -822 605 -322 251 -433 339 -436 348 -2 5 40 55 94 112
104 110 227 269 339 440 39 59 75 107 81 107 6 0 18 -7 25 -17z m-5914 -615
l204 -132 -33 -25 c-18 -14 -101 -83 -185 -153 -85 -70 -287 -236 -450 -369
-233 -190 -300 -239 -312 -232 -39 24 -231 343 -231 384 0 25 61 78 325 287
132 104 290 230 350 280 61 50 114 91 119 91 4 1 100 -58 213 -131z m442 -274
c86 -54 173 -108 194 -121 l39 -24 -119 -113 c-262 -250 -623 -568 -705 -620
-24 -16 -31 -16 -85 -2 -127 33 -473 162 -473 177 0 3 46 41 101 85 118 92
393 314 530 429 53 44 140 116 194 160 54 44 110 90 124 102 14 12 30 23 35
23 6 0 80 -43 165 -96z m3279 -691 c21 -248 31 -392 48 -678 3 -60 10 -124 14
-142 5 -21 4 -35 -3 -41 -7 -5 -142 -16 -302 -25 -277 -16 -291 -16 -314 1
-33 24 -38 48 -56 237 -12 133 -65 844 -65 875 0 18 73 22 605 38 l51 2 22
-267z m119 209 c26 -15 83 -45 126 -66 43 -21 80 -44 82 -50 3 -12 24 -251 56
-646 20 -253 24 -416 10 -424 -4 -3 -55 17 -112 45 -57 28 -113 55 -125 59
-19 7 -22 19 -27 107 -11 179 -37 555 -52 759 -16 218 -17 244 -10 244 2 0 26
-13 52 -28z m2225 -179 c3 -16 2 -81 -1 -146 l-6 -119 -70 138 c-38 76 -71
142 -73 146 -2 4 30 8 71 8 73 0 75 0 79 -27z m-135 -186 c57 -109 102 -201
99 -204 -6 -6 -372 -52 -418 -53 -37 0 -85 44 -173 160 -40 52 -105 135 -144
185 -39 49 -71 93 -71 97 0 8 216 14 458 13 l143 0 106 -198z m-2000 -819 c51
-24 92 -46 93 -49 0 -13 -396 -50 -507 -48 -78 1 -88 4 -157 44 -41 23 -83 46
-93 51 -11 4 83 13 225 20 133 7 248 15 255 17 39 16 97 5 184 -35z"/>
<path d="M3837 8905 c-65 -17 -126 -40 -135 -49 -16 -16 -16 -18 3 -32 25 -18
64 -13 189 28 112 36 142 54 125 74 -16 20 -47 16 -182 -21z"/>
<path d="M5907 8984 c-31 -32 149 -169 198 -151 27 11 5 34 -89 96 -96 64 -99
65 -109 55z"/>
<path d="M8750 7916 c0 -31 23 -81 53 -113 26 -29 51 -31 42 -3 -11 34 -54
106 -75 125 -20 18 -20 17 -20 -9z"/>
<path d="M7013 8288 c-4 -7 -6 -628 -4 -1379 l4 -1365 -142 -12 c-100 -8 -155
-17 -187 -32 -97 -42 -32 -54 215 -37 l114 8 -8 -718 c-4 -395 -9 -736 -10
-758 -1 -22 -6 -236 -10 -475 -7 -400 -6 -437 9 -450 15 -11 20 -11 36 6 38
39 41 106 57 1189 16 1002 6 3996 -12 4026 -9 13 -52 11 -62 -3z"/>
<path d="M6264 7908 c-12 -19 -22 -240 -12 -260 5 -10 15 -18 22 -18 25 0 34
47 33 166 -2 102 -4 119 -19 122 -9 2 -20 -3 -24 -10z"/>
<path d="M6373 7493 c-28 -67 0 -211 36 -189 12 8 16 182 5 210 -10 26 -24 18
-41 -21z"/>
<path d="M2790 7501 c-13 -25 -13 -281 0 -315 12 -33 28 -33 41 1 11 29 13
290 3 317 -8 22 -31 20 -44 -3z"/>
<path d="M5595 7249 c-286 -20 -455 -39 -487 -56 -62 -31 -16 -53 98 -47 130
8 486 45 524 55 48 12 67 26 55 37 -17 16 -75 19 -190 11z"/>
<path d="M7416 7228 c-8 -30 -8 -262 0 -282 9 -24 41 -19 48 7 10 38 7 232 -5
266 -13 36 -34 41 -43 9z"/>
<path d="M3356 7059 c-75 -8 -110 -29 -87 -51 9 -9 46 -12 134 -10 196 5 294
27 273 61 -8 13 -212 13 -320 0z"/>
<path d="M8193 6848 c-4 -7 -9 -65 -11 -128 -3 -93 -1 -119 12 -135 16 -20 16
-20 31 -1 11 15 14 44 11 130 -3 109 -10 146 -26 146 -5 0 -12 -6 -17 -12z"/>
<path d="M4517 6793 c-25 -47 -59 -170 -77 -277 l-17 -101 -48 -8 c-26 -4 -71
-7 -99 -5 l-51 3 -42 88 c-44 92 -67 113 -89 83 -17 -24 -7 -81 23 -134 14
-24 23 -46 20 -48 -23 -24 -1130 -36 -1357 -15 -155 14 -292 38 -346 62 -58
24 -110 80 -131 140 -19 54 -39 72 -54 48 -13 -21 -11 -59 7 -119 28 -95 157
-200 246 -200 22 0 22 2 -1 -46 -49 -101 -65 -167 -69 -291 -5 -151 12 -240
70 -354 120 -241 414 -399 741 -399 185 0 381 50 529 136 43 24 81 44 85 44
14 0 -63 -72 -127 -120 -95 -70 -222 -135 -325 -166 -78 -24 -107 -27 -220
-27 -91 0 -149 5 -194 17 -80 22 -190 73 -255 120 -37 26 -53 33 -63 24 -10
-8 -9 -16 7 -38 50 -71 158 -133 285 -165 116 -30 278 -34 399 -10 96 18 283
99 379 164 86 58 215 181 278 266 24 33 62 83 84 110 142 176 217 502 164 705
-3 11 15 17 87 25 l92 11 -6 -123 c-18 -421 181 -720 567 -852 134 -46 360
-63 528 -40 262 35 495 155 612 313 113 153 156 288 155 491 -1 145 -21 242
-73 346 l-29 58 59 12 c78 15 179 67 199 101 13 24 13 29 0 43 -14 13 -22 12
-77 -11 -58 -23 -198 -49 -468 -88 -224 -31 -309 -41 -920 -102 -427 -43 -457
-45 -462 -41 -2 3 3 69 12 148 18 155 17 240 -2 246 -6 3 -18 -8 -26 -24z
m1626 -380 c76 -167 91 -281 57 -441 -35 -168 -83 -255 -197 -362 -122 -114
-252 -173 -448 -206 -135 -22 -337 -15 -455 16 -353 91 -572 360 -570 700 0
52 2 120 4 150 l4 55 164 12 c376 29 957 91 1223 132 192 30 176 34 218 -56z
m-3278 -143 c238 -17 816 -9 1201 15 l120 8 15 -34 c20 -48 18 -217 -4 -297
-79 -295 -373 -550 -722 -629 -102 -22 -289 -28 -380 -10 -236 45 -423 173
-510 349 -85 174 -85 367 0 546 l35 75 48 -7 c26 -3 115 -11 197 -16z"/>
<path d="M5066 6136 c-47 -18 -91 -58 -119 -111 -32 -58 -32 -212 0 -271 45
-84 118 -124 201 -110 174 28 221 362 66 468 -49 34 -98 42 -148 24z"/>
<path d="M3466 6070 c-92 -46 -130 -120 -131 -250 0 -75 3 -91 29 -137 42 -75
93 -108 170 -108 52 0 68 5 106 32 152 105 144 392 -14 464 -53 24 -111 23
-160 -1z"/>
<path d="M4570 5560 c0 -23 36 -99 74 -155 148 -222 397 -365 635 -365 72 0
91 12 49 30 -13 5 -61 19 -108 31 -242 62 -405 171 -565 377 -67 86 -85 104
-85 82z"/>
<path d="M6217 5502 c-78 -114 -203 -221 -356 -304 -46 -25 -40 -41 12 -33 97
15 268 125 346 224 55 69 87 181 52 181 -4 0 -28 -31 -54 -68z"/>
<path d="M4230 4833 c-83 -9 -253 -47 -355 -80 -287 -92 -495 -214 -670 -392
-109 -110 -187 -241 -142 -241 6 0 63 47 125 105 175 161 266 226 444 316 101
51 314 122 429 143 92 18 336 36 409 31 254 -19 294 -26 497 -91 266 -85 518
-231 694 -401 53 -51 101 -93 107 -93 24 0 11 57 -25 119 -78 131 -270 283
-507 400 -267 132 -527 192 -821 189 -82 -1 -166 -3 -185 -5z"/>
<path d="M2252 4748 c-18 -22 -32 -133 -38 -303 -5 -133 -4 -163 9 -179 14
-19 15 -19 33 15 16 29 19 62 22 248 4 207 -1 248 -26 219z"/>
<path d="M6435 4556 c-25 -38 -35 -431 -12 -461 11 -14 19 -17 27 -9 15 15 33
229 28 360 -3 125 -15 153 -43 110z"/>
<path d="M5755 4439 c9 -17 44 -68 79 -115 166 -225 200 -416 84 -475 -56 -29
-140 -25 -237 10 -67 24 -82 27 -91 16 -17 -21 26 -59 108 -98 163 -77 324
-30 365 105 27 87 3 200 -70 333 -65 119 -296 336 -238 224z"/>
<path d="M8433 4323 c-12 -30 129 -129 164 -116 26 10 11 31 -59 81 -76 56
-95 62 -105 35z"/>
<path d="M2987 4299 c-47 -39 -108 -127 -155 -227 -32 -66 -37 -89 -40 -162
-4 -82 -3 -87 30 -135 39 -59 119 -111 186 -121 112 -17 347 75 304 118 -9 9
-28 8 -79 -4 -108 -27 -146 -29 -208 -13 -106 28 -145 77 -145 182 1 75 22
136 94 261 67 117 71 149 13 101z"/>
<path d="M4200 4193 c-151 -25 -295 -77 -334 -122 -17 -19 -18 -23 -5 -36 12
-13 25 -11 97 14 161 56 216 66 372 65 158 -1 230 -13 388 -65 70 -23 97 -28
105 -20 36 36 -106 111 -276 146 -110 24 -265 32 -347 18z"/>
<path d="M7564 3883 c-4 -10 -9 -102 -12 -206 -3 -140 -1 -191 8 -202 19 -23
37 -2 44 56 9 63 9 331 0 353 -8 21 -30 21 -40 -1z"/>
<path d="M2367 3580 c-3 -8 -10 -31 -17 -50 -15 -48 -26 -325 -13 -333 29 -18
48 58 58 238 6 99 4 123 -8 140 -13 16 -16 17 -20 5z"/>
<path d="M8401 3282 c-16 -30 -25 -255 -12 -281 12 -21 14 -21 30 -7 14 13 19
39 24 124 9 140 -12 220 -42 164z"/>
<path d="M5687 3200 c-84 -8 -115 -23 -96 -46 22 -27 419 -14 419 13 0 2 -5
13 -10 24 -10 17 -21 19 -123 18 -62 -1 -147 -5 -190 -9z"/>
<path d="M6086 2461 c-15 -24 16 -54 173 -171 114 -85 171 -110 171 -77 0 24
-130 135 -247 211 -73 47 -88 53 -97 37z"/>
<path d="M2830 2382 c-21 -17 -22 -22 -11 -36 18 -22 188 -23 217 -2 18 14 18
15 1 33 -14 14 -37 19 -100 21 -70 3 -86 1 -107 -16z"/>
<path d="M5203 2220 c-70 -8 -100 -25 -82 -46 26 -32 344 -7 344 26 0 27 -122
36 -262 20z"/>
<path d="M6698 1833 c-31 -5 -55 -30 -42 -43 10 -10 106 -14 245 -11 50 1 82
6 95 16 19 15 19 15 0 30 -16 12 -47 15 -145 14 -69 -1 -138 -4 -153 -6z"/>
<path d="M8839 5964 c-19 -23 -27 -588 -8 -610 18 -22 29 -17 45 21 12 29 14
88 12 317 -3 249 -5 283 -19 286 -9 1 -22 -5 -30 -14z"/>
<path d="M3668 2419 c-106 -7 -178 -23 -178 -39 0 -27 35 -31 280 -29 213 1
253 4 267 17 14 14 13 18 -11 39 -25 21 -35 23 -139 22 -62 -1 -160 -5 -219
-10z"/>
</g>
</svg>
