<?xml version="1.0" standalone="no"?>
<!DOCTYPE svg PUBLIC "-//W3C//DTD SVG 20010904//EN"
 "http://www.w3.org/TR/2001/REC-SVG-20010904/DTD/svg10.dtd">
<svg version="1.0" xmlns="http://www.w3.org/2000/svg"
 width="1024.000000pt" height="1024.000000pt" viewBox="0 0 1024.000000 1024.000000"
 preserveAspectRatio="xMidYMid meet">
<metadata>
Created by potrace 1.16, written by Peter Selinger 2001-2019
</metadata>
<g transform="translate(0.000000,1024.000000) scale(0.100000,-0.100000)"
fill="#000000" stroke="none">
<path d="M9795 9315 c-16 -8 -84 -35 -149 -60 -382 -147 -1022 -456 -1496
-720 -96 -54 -200 -111 -230 -128 -233 -128 -763 -465 -927 -589 -62 -47 -63
-47 -98 -33 -22 10 -69 15 -128 15 -126 0 -168 -21 -211 -105 -104 -203 -115
-263 -71 -385 54 -148 57 -113 -45 -425 -105 -317 -186 -541 -302 -830 -103
-258 -89 -235 -137 -221 -22 6 -42 14 -45 16 -2 3 5 41 16 85 11 44 24 109 30
144 12 83 30 64 -224 237 -53 36 -99 45 -229 45 -107 0 -120 -8 -144 -82 -22
-64 -55 -205 -55 -232 0 -43 -10 -47 -80 -30 -36 8 -66 16 -67 17 -2 1 4 37
12 80 24 126 21 149 -22 183 -50 39 -215 136 -277 164 -45 19 -62 21 -160 16
-61 -3 -119 -8 -129 -12 -33 -13 -63 -113 -92 -303 l-7 -44 -72 9 c-125 14
-171 11 -199 -15 -24 -22 -93 -209 -112 -299 -4 -18 -8 -33 -10 -33 -13 0 -75
32 -75 39 0 6 13 66 30 135 47 198 69 341 60 384 -11 47 -92 123 -170 159 -50
23 -63 24 -145 19 -49 -3 -132 -17 -184 -30 -92 -24 -111 -25 -111 -5 0 5 -25
78 -55 162 -65 179 -122 402 -166 652 -29 160 -32 199 -30 351 l2 171 -82 109
c-94 126 -133 170 -171 190 -36 19 -58 18 -123 -5 l-54 -19 -129 82 c-611 394
-1372 751 -1983 931 -159 47 -164 48 -193 41 -34 -9 -157 -121 -184 -169 l-22
-41 43 -45 c92 -96 154 -212 191 -360 50 -199 46 -330 -16 -561 -45 -163 -160
-382 -289 -549 -25 -31 -24 -75 1 -99 11 -10 46 -26 77 -36 134 -42 261 -124
367 -236 248 -264 369 -664 300 -998 -15 -73 -15 -76 5 -95 20 -20 22 -20 88
-4 267 64 520 39 682 -67 86 -57 169 -134 150 -140 -8 -2 -29 -9 -48 -15 -19
-6 -55 -11 -80 -11 -95 0 -521 -98 -552 -126 -26 -23 -37 -91 -46 -270 -8
-167 -10 -580 -2 -699 l4 -70 -40 -3 c-22 -1 -104 -11 -181 -22 -78 -11 -160
-20 -182 -20 -34 0 -45 -6 -75 -39 -35 -39 -42 -62 -49 -160 -3 -34 -3 -34
-83 -53 -112 -26 -115 -31 -115 -182 0 -124 15 -396 25 -454 9 -49 40 -64 131
-63 43 0 92 3 109 7 31 5 33 4 39 -30 11 -57 34 -104 58 -118 27 -14 202 -12
230 3 24 13 43 52 59 122 7 32 15 60 19 62 6 4 101 13 370 35 69 6 135 12 146
15 26 6 60 -41 93 -128 21 -58 21 -59 2 -86 -11 -15 -87 -93 -169 -172 -81
-79 -163 -161 -181 -182 -31 -37 -33 -38 -56 -23 -52 34 -152 4 -248 -75 -40
-33 -48 -70 -25 -112 10 -19 7 -24 -18 -42 -45 -32 -90 -83 -109 -124 -17 -38
-17 -40 20 -167 50 -174 95 -291 125 -321 l24 -25 211 5 c499 13 1108 42 1128
54 12 8 83 82 366 382 85 90 197 200 248 245 51 44 157 140 236 213 l143 131
49 -10 c28 -5 107 -10 177 -11 71 -1 128 -4 128 -6 0 -2 7 -46 16 -98 l16 -94
-143 -212 c-78 -117 -200 -289 -270 -384 -167 -224 -154 -203 -209 -361 -104
-296 -107 -302 -168 -367 -32 -33 -75 -82 -97 -109 -37 -45 -40 -54 -39 -105
3 -121 83 -341 165 -456 42 -58 76 -69 185 -60 84 7 84 7 119 -24 20 -17 43
-31 53 -31 36 0 272 42 377 67 133 31 146 42 224 197 70 139 67 162 -38 286
l-30 35 13 116 c15 130 26 156 172 409 214 373 433 794 469 903 l26 78 -20
208 c-11 114 -24 222 -27 239 l-6 32 103 -60 c57 -33 107 -60 111 -60 4 0 44
-17 90 -38 46 -22 98 -45 116 -52 17 -7 32 -14 32 -16 0 -1 -16 -67 -35 -145
-43 -177 -49 -272 -17 -316 61 -86 366 -336 509 -418 1 0 -9 -23 -23 -50 -13
-27 -34 -75 -45 -106 -13 -36 -55 -101 -117 -180 -52 -68 -120 -160 -150 -203
l-54 -80 5 -75 c8 -143 73 -428 129 -568 22 -55 25 -58 68 -66 59 -11 616 0
700 13 90 15 141 42 194 104 65 77 70 94 45 169 -11 33 -27 73 -35 89 -19 37
-18 38 16 38 86 0 181 90 261 246 l53 104 -54 269 -53 268 42 176 c23 98 45
177 48 177 3 0 61 -53 128 -118 67 -65 180 -165 251 -222 112 -90 130 -108
136 -139 12 -70 20 -280 22 -581 l2 -305 43 -85 c64 -124 116 -204 163 -245
l41 -38 96 7 c53 4 112 9 131 11 19 2 87 9 150 15 63 6 138 18 165 25 28 7 81
21 118 30 82 21 91 32 112 140 19 99 19 200 0 285 -8 36 -14 86 -15 111 0 39
-90 396 -119 472 -5 14 -39 139 -75 278 -95 366 -114 433 -123 436 -4 2 -55
31 -113 66 -82 49 -104 67 -103 82 8 57 35 253 38 270 4 21 7 20 137 -13 372
-94 885 -27 1277 166 144 71 225 125 351 230 194 162 415 441 510 644 40 85
90 243 90 282 0 44 -32 130 -59 157 -21 20 -42 29 -84 34 -72 9 -115 1 -162
-31 l-38 -25 -21 20 c-37 35 -62 26 -146 -51 -99 -91 -108 -108 -80 -172 29
-69 8 -87 -50 -45 -39 29 -76 21 -170 -37 -127 -78 -134 -91 -105 -174 17 -49
19 -70 6 -70 -5 0 -12 14 -16 30 -12 53 -44 65 -175 65 -126 -1 -187 -18 -197
-54 -5 -19 -7 -19 -42 9 -77 62 -173 88 -275 76 -74 -10 -107 -38 -136 -118
-29 -78 -36 -87 -55 -67 -14 14 -13 20 4 60 37 84 55 166 43 194 -19 41 -247
198 -299 206 -37 6 -69 -13 -106 -61 -21 -28 -42 -50 -46 -50 -3 0 -30 24 -58
53 l-52 52 54 73 c75 102 82 128 52 189 -29 56 -137 177 -194 215 -21 15 -60
30 -87 34 l-49 7 -78 -82 c-86 -90 -88 -90 -142 -33 l-28 29 20 71 c11 39 22
95 26 125 7 51 5 56 -25 90 -17 20 -40 39 -51 42 -27 9 -24 22 9 28 167 34
204 39 297 34 176 -8 386 -81 543 -189 58 -40 88 -33 110 25 39 100 125 257
176 318 76 93 181 161 309 200 88 28 117 32 212 32 62 0 157 -7 219 -18 l108
-18 19 24 c25 32 24 45 -11 178 -74 282 -62 557 32 745 76 151 226 332 357
429 60 45 252 147 276 147 8 0 24 14 35 32 24 39 18 52 -72 159 -112 136 -219
339 -253 482 -64 266 -1 559 171 798 54 74 221 244 278 283 27 18 28 22 23 75
-8 78 -61 268 -82 291 -21 24 -67 26 -110 5z m75 -184 l28 -92 -22 -14 c-11
-8 -57 -29 -101 -48 -220 -94 -807 -395 -1150 -590 -409 -232 -839 -502 -1135
-714 -201 -144 -204 -147 -188 -173 7 -12 23 -23 36 -27 26 -6 39 2 277 172
232 166 450 308 685 447 176 103 466 269 575 328 44 23 103 55 130 70 185 101
715 369 715 363 0 -3 -24 -33 -53 -67 -109 -124 -168 -227 -215 -376 -110
-345 -38 -708 206 -1034 42 -56 43 -58 18 -52 -115 29 -379 78 -506 95 -85 12
-191 26 -235 31 -161 22 -307 30 -635 36 -408 8 -895 -13 -992 -42 -25 -7 -30
-34 -12 -62 16 -24 18 -25 103 -18 455 35 1051 38 1391 7 303 -28 353 -35 788
-116 50 -9 92 -20 92 -24 0 -3 -25 -17 -56 -30 -178 -77 -398 -297 -505 -503
-88 -172 -118 -337 -100 -559 6 -79 17 -172 24 -206 8 -35 13 -63 11 -63 -1 0
-105 103 -231 229 -262 263 -514 474 -783 657 -47 31 -112 76 -145 98 -116 80
-254 167 -387 242 -256 146 -297 162 -322 122 -16 -26 1 -48 65 -82 260 -138
628 -370 854 -538 274 -205 556 -448 715 -615 127 -134 170 -181 170 -187 0
-3 -55 -2 -123 1 -333 16 -572 -120 -753 -429 -21 -37 -41 -68 -44 -68 -3 0
-32 62 -64 137 -33 76 -74 169 -92 208 -227 491 -242 523 -447 910 -96 183
-235 417 -279 468 -22 26 -30 30 -44 21 -41 -25 -38 -34 96 -269 273 -478 542
-1019 705 -1420 16 -38 32 -75 37 -81 19 -25 -8 -18 -95 27 -199 102 -442 131
-688 83 -166 -32 -324 -114 -539 -277 -69 -53 -126 -94 -127 -93 -1 1 17 56
42 122 104 283 321 969 410 1294 20 74 40 146 45 160 23 62 69 261 64 275 -7
18 -36 28 -57 19 -16 -6 -29 -42 -67 -194 -84 -334 -294 -1015 -451 -1465 -28
-82 -64 -184 -78 -225 l-26 -75 -109 -3 c-85 -2 -107 0 -103 10 3 7 29 69 57
138 29 69 77 190 107 270 30 80 77 201 103 270 100 258 154 410 265 743 63
188 135 402 160 476 25 73 45 146 45 160 0 51 -49 70 -71 29 -7 -13 -35 -92
-64 -178 -177 -531 -290 -863 -320 -939 -18 -47 -66 -174 -106 -281 -39 -107
-110 -289 -157 -405 -46 -115 -89 -222 -95 -237 -6 -16 -15 -28 -20 -28 -11 0
-178 129 -236 183 l-45 41 42 76 c67 120 227 446 272 555 133 323 179 440 242
615 38 107 78 215 88 240 10 25 32 92 49 150 18 58 38 121 46 140 8 19 24 68
37 109 l23 74 95 -8 c52 -5 124 -9 159 -9 92 -1 94 6 43 143 -23 61 -42 122
-42 134 0 54 52 207 70 207 4 0 10 -18 14 -39 7 -45 59 -165 76 -176 6 -4 22
-4 36 -1 27 7 32 35 13 83 -6 15 -20 59 -30 97 -11 38 -26 80 -33 95 -7 14
-11 31 -9 38 5 14 167 139 273 210 277 186 635 397 1005 593 66 35 152 81 190
102 358 197 1315 636 1359 625 5 -2 21 -45 36 -96z m-8995 -167 c548 -168
1295 -525 1820 -871 27 -18 54 -34 59 -36 5 -2 0 -19 -12 -39 -42 -67 -28
-105 98 -274 45 -60 89 -121 98 -136 22 -38 49 -45 81 -20 54 43 170 122 178
122 4 0 8 -69 9 -153 1 -154 24 -322 74 -535 38 -160 151 -514 180 -565 7 -12
6 -25 -3 -45 -8 -15 -20 -58 -27 -97 -7 -38 -15 -74 -17 -78 -10 -16 -131 371
-263 838 -16 55 -42 159 -59 230 -36 150 -47 181 -68 189 -23 9 -53 -12 -53
-37 0 -25 67 -294 141 -567 28 -102 98 -327 156 -500 l105 -315 -18 -78 c-10
-43 -20 -80 -23 -81 -3 -2 -36 -7 -74 -11 l-67 -7 -14 34 c-34 80 -250 809
-337 1137 -27 101 -54 190 -60 198 -14 16 -41 17 -57 1 -22 -22 -27 -3 136
-578 17 -58 48 -166 70 -240 22 -74 52 -173 65 -220 14 -47 44 -141 66 -209
22 -69 39 -126 38 -128 -5 -4 -159 -25 -162 -21 -2 2 1 46 7 98 5 52 8 126 6
164 -4 77 -14 90 -92 113 -51 16 -236 17 -382 2 -200 -19 -223 -33 -249 -149
-9 -41 -19 -130 -22 -197 l-6 -123 -36 -5 c-20 -3 -48 -8 -63 -10 -23 -4 -35
5 -80 56 -112 128 -263 215 -423 244 -110 20 -344 18 -382 -3 -49 -27 -18 15
120 161 239 255 395 413 544 549 160 147 457 386 640 516 126 89 144 112 108
142 -24 20 -52 6 -180 -85 -391 -279 -767 -618 -1163 -1047 -79 -87 -145 -158
-146 -158 0 0 -2 48 -2 108 -3 207 -35 350 -123 538 -85 179 -209 338 -345
441 -65 49 -208 123 -238 123 -10 0 -18 4 -18 9 0 4 39 16 88 25 48 10 150 33
227 51 244 58 671 122 975 145 74 5 164 12 200 15 36 4 211 8 390 11 344 5
360 7 346 51 -11 35 -70 43 -297 43 -365 0 -765 -27 -1064 -71 -238 -35 -761
-143 -824 -170 -38 -16 -37 -3 7 59 140 199 252 543 252 771 0 158 -56 379
-126 498 -14 24 -23 43 -20 43 38 0 421 -174 746 -339 418 -211 635 -340 963
-571 97 -69 205 -144 238 -167 78 -56 107 -63 130 -34 10 12 16 28 13 36 -6
14 -274 206 -494 352 -163 109 -349 221 -485 293 -55 29 -104 56 -110 61 -23
17 -579 290 -678 333 -116 50 -325 130 -370 141 -15 4 -30 12 -33 17 -7 12 20
43 69 79 l39 28 56 -21 c32 -12 134 -45 227 -74z m2132 -932 c11 -7 183 -230
183 -237 0 -2 -16 -9 -36 -15 -19 -7 -65 -32 -101 -56 -36 -24 -67 -44 -68
-44 -2 0 -13 19 -25 43 -12 23 -38 62 -59 87 -92 113 -108 148 -79 166 11 7
154 60 168 63 3 0 10 -3 17 -7z m3878 -334 c3 -3 -11 -33 -33 -65 -21 -33 -44
-86 -52 -118 l-14 -58 -109 6 c-59 4 -112 9 -117 12 -4 3 2 24 14 48 12 23 33
69 46 102 34 85 37 87 157 83 56 -2 105 -6 108 -10z m-141 -327 c38 -6 39 -8
56 -69 10 -35 23 -69 29 -75 20 -20 11 -28 -25 -21 -20 4 -70 9 -112 13 l-76
6 -33 75 c-17 41 -32 78 -32 81 -1 7 133 0 193 -10z m-2884 -998 c-10 -27 -37
-131 -60 -233 -23 -102 -43 -190 -45 -196 -3 -9 -322 -30 -331 -21 -2 1 6 39
18 82 11 44 35 143 52 220 l32 140 100 27 c63 17 127 27 176 27 l76 1 -18 -47z
m122 29 c2 -4 24 -25 49 -46 l46 -38 -23 -107 c-13 -58 -35 -162 -50 -231 -14
-69 -27 -126 -29 -128 -3 -4 -127 47 -137 56 -3 4 4 52 18 107 29 122 92 365
98 382 6 14 22 17 28 5z m836 -26 c3 -4 -40 -220 -54 -269 -5 -16 -13 -17 -67
-11 -34 3 -66 10 -71 14 -5 5 2 66 14 139 l23 130 46 4 c46 4 101 0 109 -7z
m256 -110 c38 -23 69 -43 69 -46 0 -3 -6 -42 -13 -87 -10 -66 -16 -83 -29 -83
-30 0 -242 29 -250 35 -5 2 -2 31 6 62 7 32 21 95 30 140 l15 81 52 -30 c28
-17 82 -49 120 -72z m582 -13 c-3 -10 -10 -39 -16 -66 -14 -64 -70 -237 -76
-237 -25 0 -134 36 -134 45 0 5 14 70 31 143 l32 132 84 0 c76 0 84 -2 79 -17z
m249 -128 c16 -10 16 -15 1 -100 -23 -119 -36 -156 -56 -151 -8 3 -53 15 -100
26 -47 12 -88 25 -92 29 -4 3 10 60 31 126 21 66 41 134 45 152 l7 31 73 -51
c40 -29 81 -57 91 -62z m-3381 -47 c-7 -46 -22 -123 -32 -172 -20 -103 -15
-99 -146 -111 l-75 -7 5 58 c13 149 36 279 51 291 8 6 43 14 76 17 34 3 76 7
92 9 17 1 33 2 36 0 4 -1 0 -40 -7 -85z m300 81 l38 -11 -7 -119 c-11 -186 0
-172 -141 -186 -65 -7 -127 -14 -137 -17 -13 -3 -16 0 -13 12 6 20 56 306 56
322 0 13 153 13 204 -1z m1671 -119 c55 -6 120 -15 145 -20 41 -9 250 -38 549
-76 160 -20 151 -12 130 -136 -9 -57 -33 -211 -53 -343 -20 -132 -41 -267 -46
-300 -6 -33 -21 -134 -35 -225 -14 -91 -32 -199 -40 -240 -9 -41 -36 -203 -61
-360 -50 -315 -71 -420 -84 -420 -30 0 -401 42 -425 49 l-30 7 -1 83 0 83 51
-6 c61 -7 89 8 83 44 -4 28 -20 37 -81 45 l-48 6 3 56 3 57 110 18 c105 17
249 64 289 93 14 11 21 34 27 92 10 98 10 512 0 657 -7 97 -10 111 -31 128
-13 10 -33 18 -45 16 -15 -2 -41 15 -84 55 -93 86 -108 91 -203 77 -44 -6 -82
-10 -84 -7 -2 2 -8 25 -13 51 -5 26 -16 55 -25 65 -10 11 -76 49 -147 86 -101
52 -129 70 -125 83 3 9 14 53 25 97 18 71 54 175 68 198 3 5 21 6 42 3 20 -3
81 -10 136 -16z m1155 -204 c74 -19 186 -45 248 -57 108 -23 113 -25 107 -46
-7 -28 -74 -164 -188 -384 -48 -91 -87 -174 -87 -183 0 -40 218 -233 353 -311
40 -23 64 -28 136 -33 123 -7 214 5 250 31 16 12 103 78 192 146 l162 123 32
-38 c18 -22 130 -120 249 -219 152 -126 216 -185 216 -200 0 -11 -9 -60 -19
-110 -10 -49 -22 -114 -26 -144 -9 -68 -34 -92 -123 -122 -190 -62 -457 -180
-472 -208 -11 -22 -56 -225 -76 -348 -9 -57 -20 -103 -23 -103 -3 0 -28 50
-55 111 -92 206 -312 599 -458 817 l-49 72 -48 0 c-40 0 -74 -12 -190 -70
-192 -95 -381 -198 -408 -223 -13 -11 -23 -28 -22 -36 0 -9 20 -65 44 -126 39
-100 43 -117 41 -185 -3 -87 -34 -301 -45 -313 -6 -6 -222 155 -279 208 -14
13 -14 12 59 422 10 56 32 196 49 310 17 115 44 294 60 398 17 105 53 341 80
525 27 184 52 340 54 347 4 10 16 9 53 -3 26 -8 109 -30 183 -48z m-1805 -28
c71 -29 568 -259 581 -269 7 -5 14 -71 18 -161 12 -241 17 -736 8 -742 -5 -3
-87 -12 -183 -21 -96 -9 -232 -22 -304 -29 -71 -7 -133 -10 -137 -7 -4 3 -9
267 -12 585 -6 607 -5 595 -48 596 -43 0 -42 11 -41 -1218 1 -899 4 -1176 13
-1187 14 -17 38 -19 60 -5 13 8 16 87 20 577 4 445 8 567 17 566 7 -2 144 9
303 23 160 14 298 23 306 20 13 -5 15 -47 10 -333 -3 -181 -8 -375 -12 -434
l-7 -105 -206 -114 c-113 -62 -264 -146 -336 -187 -145 -82 -168 -86 -295 -58
-101 22 -141 19 -186 -13 -110 -81 -390 -347 -737 -700 -109 -111 -200 -196
-202 -189 -2 6 -15 55 -29 107 -14 52 -30 109 -35 127 -9 31 -9 32 272 304
155 150 363 354 462 454 234 234 251 266 270 511 8 104 3 109 -103 101 -119
-10 -477 -99 -712 -177 -134 -44 -153 -48 -250 -49 -147 -2 -676 -35 -721 -45
-13 -3 -143 -15 -289 -26 -146 -12 -330 -28 -409 -36 -182 -18 -320 -19 -326
-1 -9 22 -23 439 -16 466 7 23 16 28 97 46 l89 21 8 64 c4 36 10 84 13 107 6
49 -15 43 261 70 134 12 186 14 194 6 6 -6 12 -47 13 -92 0 -48 6 -85 13 -92
10 -10 40 -10 145 0 73 7 196 15 273 18 l140 6 10 -34 c8 -27 16 -35 37 -37
36 -4 44 15 58 143 6 55 14 103 18 107 5 5 62 12 128 18 65 5 158 12 205 16
l86 7 7 -39 c3 -22 9 -173 13 -337 6 -279 7 -299 25 -308 14 -8 26 -6 45 6
l25 17 -4 219 c-2 179 -1 218 10 214 66 -25 365 -87 404 -83 30 3 33 6 33 38
l0 35 -125 33 c-122 31 -218 53 -291 66 -36 6 -36 7 -42 65 -11 130 -53 166
-179 157 -74 -6 -80 -5 -72 11 11 27 11 504 -1 519 -13 18 -114 43 -350 88
-307 59 -373 74 -423 96 -46 21 -47 21 -63 2 -8 -11 -21 -50 -28 -88 -11 -62
-11 -69 5 -81 10 -7 23 -13 30 -13 20 0 44 30 44 55 0 13 3 26 8 28 4 2 68
-11 142 -29 74 -19 198 -46 275 -60 77 -14 148 -29 158 -32 9 -4 -108 -8 -260
-9 -153 -1 -288 -5 -299 -8 -12 -2 -24 -13 -26 -22 -3 -10 -1 -106 3 -213 6
-147 13 -215 28 -275 29 -109 60 -168 91 -176 17 -4 4 -8 -45 -14 -38 -4 -89
-11 -112 -15 -40 -7 -41 -6 -47 23 -3 16 -6 41 -6 56 0 15 -9 45 -21 66 -21
39 -21 51 -21 485 0 245 4 465 9 490 l8 45 150 38 c245 62 484 100 905 147
102 11 208 25 235 30 73 14 737 80 900 89 179 10 268 4 330 -21z m890 -440
c24 -18 44 -36 45 -39 0 -5 -83 -18 -217 -35 -33 -4 -33 -4 -33 40 l0 44 53
10 c88 16 105 14 152 -20z m170 -364 c4 -130 4 -291 -1 -358 l-9 -121 -39 -18
c-45 -21 -250 -77 -283 -77 -18 0 -23 6 -24 28 0 15 -2 72 -3 127 -2 55 -5
217 -7 360 -3 224 -2 260 11 263 32 6 267 30 306 31 l42 1 7 -236z m2165 183
c47 -23 65 -37 65 -52 1 -31 -30 -150 -39 -150 -8 0 -194 166 -195 175 -1 7
81 58 94 59 6 0 39 -14 75 -32z m-4992 -203 l60 -7 7 -81 c4 -44 3 -135 -2
-201 l-8 -120 -57 -3 c-32 -2 -58 0 -58 3 0 3 9 18 20 33 24 33 44 132 37 190
-9 79 -75 118 -159 93 -32 -10 -43 -20 -59 -54 -37 -83 -20 -238 31 -269 16
-10 15 -14 -6 -46 -13 -19 -24 -41 -24 -49 0 -12 -21 -13 -132 -7 -73 3 -136
9 -140 13 -12 11 -47 163 -57 251 -12 93 -14 220 -5 244 5 14 37 16 249 16
133 0 269 -3 303 -6z m5414 -71 c10 -9 18 -20 18 -25 0 -6 -23 -43 -51 -84
l-51 -74 -33 28 c-19 15 -34 31 -34 35 -1 9 118 137 127 137 3 0 14 -7 24 -17z
m141 -139 c26 -28 47 -57 47 -64 0 -7 -18 -39 -39 -71 -22 -32 -41 -64 -44
-71 -3 -8 -26 8 -62 43 l-57 56 23 44 c34 67 69 121 77 117 4 -2 29 -26 55
-54z m277 -654 c30 -24 58 -46 62 -50 4 -3 3 -21 -2 -40 -5 -19 -30 -174 -55
-345 -25 -170 -48 -315 -50 -322 -3 -9 -36 -1 -114 25 -61 21 -113 41 -116 44
-3 3 0 82 6 175 l11 171 -127 238 c-70 132 -136 254 -147 272 -19 31 -20 39
-9 150 7 64 14 132 17 151 l5 34 232 -230 c128 -126 257 -249 287 -273z m1900
472 c0 -4 -15 -28 -32 -54 -18 -25 -48 -68 -67 -94 -49 -69 -125 -156 -224
-253 -219 -215 -477 -331 -738 -331 l-99 0 6 28 c9 35 11 37 28 23 25 -21 190
-23 276 -5 99 22 108 27 115 72 11 64 13 67 33 48 10 -9 29 -16 43 -16 73 1
279 145 279 196 0 12 -7 40 -14 62 -15 43 -7 63 14 37 7 -8 22 -15 35 -15 26
0 123 65 182 123 38 37 42 44 39 83 -4 48 -2 51 38 82 27 21 86 31 86 14z
m-231 -73 c12 -39 11 -43 -16 -71 -47 -49 -60 -53 -78 -19 -8 17 -15 35 -15
40 0 16 70 91 85 91 6 0 17 -19 24 -41z m-3659 5 c0 -3 -23 -62 -51 -131 -60
-150 -117 -266 -128 -261 -87 34 -281 136 -279 146 3 12 430 250 451 252 4 0
7 -3 7 -6z m3949 -93 c-16 -59 -88 -217 -141 -306 -43 -73 -159 -234 -169
-235 -3 0 -6 16 -7 35 -1 20 -4 40 -7 45 -3 6 -13 35 -21 66 l-14 56 87 87
c80 79 146 160 243 297 32 45 35 47 38 25 2 -13 -2 -45 -9 -70z m-3764 -97
c198 -327 322 -569 441 -862 80 -199 79 -191 43 -308 -17 -54 -33 -101 -35
-103 -3 -3 -44 34 -92 82 -48 47 -103 93 -122 101 -30 12 -54 44 -164 221
-139 223 -356 591 -356 604 0 4 22 55 49 112 27 57 66 150 87 206 22 57 43
102 49 100 5 -2 50 -71 100 -153z m1912 12 c50 -30 95 -61 101 -68 7 -9 2 -36
-17 -95 l-28 -81 -79 65 c-43 36 -100 86 -126 111 l-48 46 42 43 c24 24 48 41
54 39 7 -3 52 -29 101 -60z m1304 -88 c11 -21 17 -43 14 -48 -8 -13 -141 -100
-153 -100 -9 0 -32 73 -32 103 0 19 118 97 136 90 8 -3 24 -23 35 -45z m-2116
-245 c-43 -250 -74 -413 -79 -422 -3 -4 -28 -153 -56 -331 -28 -178 -56 -330
-62 -337 -6 -7 -21 -13 -33 -13 -12 0 -103 -16 -201 -35 -98 -19 -180 -32
-183 -29 -7 7 10 78 64 257 l46 157 -20 82 c-25 97 -26 138 -6 289 29 223 68
386 100 415 34 32 457 200 463 184 2 -5 -13 -102 -33 -217z m150 145 c9 -24
60 -124 112 -223 90 -169 96 -183 94 -235 -1 -53 -40 -464 -61 -657 -5 -50
-10 -114 -10 -142 0 -58 9 -67 150 -148 l85 -48 46 -185 c62 -248 182 -677
215 -770 16 -45 30 -111 34 -165 5 -49 13 -117 19 -150 11 -58 5 -235 -8 -235
-3 1 -23 22 -43 48 -20 26 -56 72 -79 102 -32 41 -49 76 -65 135 -12 44 -47
175 -78 290 -67 250 -136 485 -159 538 -9 20 -26 41 -39 46 -51 20 -287 261
-417 427 -48 60 -54 74 -52 109 3 58 24 182 141 820 59 323 56 306 71 408 7
42 15 77 19 77 5 0 15 -19 25 -42z m-1782 -51 c33 -15 79 -33 104 -40 55 -14
65 -27 163 -202 63 -112 242 -420 330 -567 l28 -47 -51 -10 c-60 -13 -184 -31
-210 -31 -19 0 -15 -9 -213 425 -141 310 -226 508 -216 503 4 -2 33 -16 65
-31z m2818 13 c-2 -8 -11 -50 -19 -92 -9 -43 -19 -78 -24 -78 -5 0 -23 7 -39
16 -35 18 -35 32 6 122 22 48 27 53 52 50 19 -2 27 -8 24 -18z m147 -20 l42
-19 0 -85 c0 -125 1 -124 -99 -94 l-34 10 7 67 c11 108 18 141 30 141 6 0 30
-9 54 -20z m272 -34 c0 -61 -11 -96 -31 -96 -27 0 -32 16 -24 76 6 49 9 54 31
54 21 0 24 -5 24 -34z m144 18 c3 -9 6 -36 6 -60 0 -42 -1 -44 -30 -44 l-30 0
0 60 c0 57 1 60 24 60 13 0 27 -7 30 -16z m513 -147 c7 -43 18 -88 24 -100 11
-19 2 -30 -87 -117 -55 -53 -130 -120 -169 -148 -60 -46 -70 -51 -76 -35 -7
20 -32 303 -27 308 2 1 39 21 83 43 44 23 109 61 145 86 36 24 71 44 79 43 10
-1 19 -27 28 -80z m-1220 -36 c78 -39 174 -80 214 -91 40 -11 73 -21 74 -22 2
-2 -1 -41 -5 -88 -4 -47 -14 -158 -20 -248 -15 -194 -4 -182 -170 -182 -102 0
-167 8 -250 30 -19 5 -61 14 -93 21 -47 8 -57 14 -53 27 3 9 12 62 20 117 8
55 17 109 19 120 3 11 17 106 32 210 15 105 29 196 31 203 3 10 11 9 31 -6 16
-11 92 -52 170 -91z m-2685 -113 c27 -62 70 -158 94 -212 24 -55 42 -102 39
-104 -2 -2 -54 22 -115 54 l-112 58 5 51 c18 174 31 275 34 271 3 -3 27 -56
55 -118z m-860 83 c73 -11 178 -25 234 -32 l101 -12 84 -69 c46 -38 102 -84
124 -103 l40 -34 -115 0 c-63 -1 -205 6 -315 14 -110 8 -229 15 -264 15 l-64
0 6 83 c4 45 7 99 7 120 0 44 -11 43 162 18z m4362 -201 c4 -74 9 -151 11
-171 l5 -36 -100 -47 c-95 -44 -344 -126 -383 -126 -16 0 -17 7 -12 58 4 48
25 382 25 410 0 5 64 12 143 15 84 4 173 14 217 25 41 10 78 16 81 13 4 -3 9
-67 13 -141z m-5785 14 c-24 -64 19 -19 -664 -696 l-270 -266 -55 -6 c-30 -3
-104 -8 -165 -11 -60 -3 -189 -12 -285 -20 -358 -28 -740 -36 -766 -14 -13 10
-10 18 22 50 l37 38 29 -24 c18 -16 38 -23 51 -21 30 6 137 23 224 36 39 5
105 10 145 10 41 0 126 6 190 14 64 8 167 18 229 21 144 8 276 23 311 37 15 6
37 25 47 42 11 18 39 50 63 71 24 22 174 165 333 319 357 344 539 509 543 492
2 -7 -7 -39 -19 -72z m-924 -6 c10 -10 -4 -85 -18 -96 -18 -14 -92 -21 -111
-10 -24 13 -57 89 -46 103 10 12 164 14 175 3z m-1292 -86 c5 -6 -16 -79 -25
-87 -1 -1 -29 -5 -62 -7 -58 -5 -58 -5 -72 27 -22 53 -21 58 11 66 42 9 143
11 148 1z m3451 -39 c13 -42 59 -436 60 -513 l1 -85 -76 -155 c-103 -212 -509
-952 -528 -964 -4 -3 -35 57 -69 133 l-63 137 122 199 c208 344 379 648 379
675 0 14 -10 45 -21 70 -61 132 -135 359 -123 377 5 8 61 42 124 77 123 69
183 84 194 49z m357 -8 c96 -8 258 -19 360 -23 l186 -9 129 -65 c71 -36 144
-69 162 -73 18 -4 39 -16 46 -28 20 -31 68 -148 63 -153 -4 -4 -317 43 -477
72 -114 21 -214 48 -275 73 -110 47 -445 216 -445 224 0 5 18 7 39 3 21 -3
117 -13 212 -21z m-2085 -107 c5 -7 -69 -87 -197 -212 l-203 -201 -8 44 c-9
55 -31 89 -63 97 -40 10 -184 -40 -229 -78 l-38 -33 16 -75 c8 -41 12 -78 8
-81 -4 -4 -47 -10 -96 -13 -73 -6 -88 -5 -79 6 5 7 50 67 99 132 48 66 131
163 184 216 119 120 199 163 353 190 120 22 243 25 253 8z m1334 -74 c0 -20
79 -262 97 -297 8 -16 12 -31 9 -35 -5 -4 -132 8 -247 24 l-37 5 -21 83 c-11
45 -23 90 -26 98 -5 12 12 27 67 59 40 23 89 52 108 64 37 24 50 23 50 -1z
m3555 -45 c5 -6 3 -9 -7 -9 -9 0 -23 -3 -32 -6 -12 -4 -16 0 -16 16 0 18 4 20
23 15 12 -4 26 -11 32 -16z m204 -63 c31 -8 86 -18 124 -21 37 -4 67 -11 67
-17 0 -10 -56 -4 -190 18 -47 8 -88 14 -92 14 -5 0 -8 5 -8 10 0 14 32 12 99
-4z m-2539 -71 c85 -17 154 -35 153 -40 -1 -6 -9 -60 -19 -122 -16 -103 -19
-112 -42 -118 -32 -8 -341 -5 -346 3 -3 7 49 283 59 309 2 8 12 10 22 6 9 -4
87 -21 173 -38z m885 -52 c-4 -20 -21 -82 -40 -137 -18 -56 -58 -182 -89 -281
-31 -99 -75 -228 -96 -286 -22 -58 -40 -110 -40 -116 0 -6 -6 -13 -14 -16 -22
-9 -347 -30 -353 -23 -3 3 22 70 57 148 198 452 290 671 290 690 0 10 25 17
98 26 53 7 111 16 127 21 60 18 68 15 60 -26z m262 -123 l43 -35 -30 -135
c-56 -260 -209 -832 -221 -828 -8 3 -144 159 -201 229 l-37 46 75 219 c82 243
145 440 176 554 11 41 22 81 24 89 3 9 25 -6 67 -45 34 -33 81 -75 104 -94z
m-754 104 c74 -11 116 -22 113 -28 -3 -6 -35 -84 -73 -173 -37 -90 -72 -163
-78 -163 -5 0 -44 33 -87 73 l-76 72 8 50 c5 28 14 83 20 123 11 68 14 73 34
68 11 -2 74 -13 139 -22z m-3443 -63 c0 -15 9 -39 19 -52 19 -24 19 -25 -11
-58 -24 -27 -38 -34 -82 -38 l-53 -6 -8 68 c-4 36 -5 68 -2 71 6 6 110 42 125
43 7 1 12 -11 12 -28z m-952 -83 c18 -35 52 -131 48 -135 -8 -8 -162 -31 -167
-25 -15 17 -40 105 -33 112 14 14 118 70 130 70 6 0 16 -10 22 -22z m2761 -13
c68 -8 126 -17 129 -20 3 -2 0 -10 -6 -17 -5 -7 -68 -114 -139 -238 -169 -293
-290 -492 -305 -502 -7 -4 -39 -8 -71 -8 -59 0 -299 20 -305 25 -2 1 53 80
121 174 69 94 190 267 268 386 107 160 149 215 164 215 11 0 76 -7 144 -15z
m2958 -187 c80 -106 172 -207 290 -323 133 -128 139 -117 -70 -134 -106 -9
-133 -9 -155 3 -82 43 -515 426 -499 442 2 3 69 16 148 29 79 14 160 29 179
34 19 5 40 9 47 10 6 1 33 -27 60 -61z m-1512 -5 c33 -28 73 -62 89 -75 l29
-24 -48 -107 c-26 -59 -50 -107 -52 -107 -2 0 -60 39 -129 87 -133 92 -337
260 -330 271 2 4 89 7 193 7 l189 0 59 -52z m-3211 -141 c8 -13 53 -189 61
-239 l6 -41 -53 -6 c-114 -13 -910 -42 -1103 -40 l-80 0 -42 134 c-23 73 -40
137 -38 140 3 4 26 3 52 -1 51 -10 505 13 663 32 75 10 303 23 472 27 31 1 59
-2 62 -6z m5225 -399 c46 -180 88 -335 113 -423 37 -130 73 -272 82 -326 l7
-41 -73 -11 c-67 -10 -189 -21 -420 -37 l-88 -6 0 258 c0 142 -5 330 -10 417
-6 87 -9 160 -8 162 2 1 86 11 188 22 102 11 188 20 192 21 4 0 12 -16 17 -36z
m-1646 -155 c-50 -216 -73 -327 -80 -390 -3 -31 -8 -61 -12 -66 -3 -6 -35 -12
-71 -13 -79 -3 -82 2 -50 102 13 40 20 79 16 93 -8 31 -43 44 -63 23 -17 -17
-53 -138 -53 -178 0 -31 -19 -39 -98 -39 l-54 0 8 33 c3 17 18 55 32 83 25 53
25 80 -3 90 -40 16 -112 -88 -119 -172 l-4 -39 -57 -9 c-32 -5 -60 -5 -65 0
-5 5 -10 41 -11 79 l-3 70 120 160 c67 88 141 189 165 225 l45 65 164 12 c91
7 176 14 190 15 14 2 28 3 31 1 3 -1 -9 -67 -28 -145z m127 84 c0 -5 42 -55
93 -111 50 -57 96 -109 101 -116 6 -8 -2 -27 -22 -57 -37 -54 -78 -170 -87
-250 -8 -67 11 -162 55 -274 l31 -76 -36 -44 c-20 -24 -40 -44 -45 -44 -10 0
-125 232 -165 335 -15 38 -34 75 -43 81 -13 10 -14 21 -3 90 12 72 48 246 84
401 8 34 12 65 9 68 -3 3 2 5 11 5 10 0 17 -4 17 -8z m380 -50 c0 -11 9 -45
20 -77 20 -58 41 -166 42 -215 1 -38 -112 -217 -125 -199 -8 10 -52 207 -52
229 0 14 11 37 25 51 18 19 32 55 49 128 13 55 28 101 32 101 5 0 9 -8 9 -18z
m-2842 -9 l143 -6 -6 -26 c-28 -134 -67 -421 -72 -523 -3 -71 -6 -128 -7 -128
-16 -7 -148 -25 -150 -21 -2 3 1 38 5 76 12 93 6 115 -30 115 -19 0 -31 -7
-39 -22 -13 -25 -32 -148 -25 -161 6 -10 -32 -23 -90 -30 l-49 -7 6 28 c28
153 29 163 13 179 -10 10 -24 13 -41 9 -30 -7 -43 -47 -49 -141 l-3 -60 -70
-11 c-38 -7 -72 -9 -75 -6 -7 7 -29 104 -29 127 0 8 43 59 95 113 l94 99 45
124 c24 68 56 156 70 194 15 39 29 76 32 84 3 10 15 12 47 7 23 -3 106 -9 185
-13z m252 -178 c13 -33 41 -96 62 -139 42 -89 46 -123 23 -226 -8 -36 -14 -73
-15 -82 0 -10 25 -45 55 -78 30 -34 57 -70 60 -80 6 -18 -61 -180 -74 -180 -7
0 -79 94 -166 215 l-57 79 7 121 c3 66 15 165 26 220 10 55 24 128 31 163 6
34 15 59 18 55 4 -5 17 -35 30 -68z m2450 -368 c-4 -4 -20 -9 -36 -10 -28 -2
-29 0 -32 45 -2 26 2 66 9 90 l12 43 27 -80 c14 -44 23 -84 20 -88z m-855
-162 c18 -55 47 -137 65 -183 17 -46 29 -86 26 -89 -3 -3 -40 -2 -82 3 l-77 9
-28 82 c-27 75 -82 284 -76 289 1 1 31 6 67 11 55 7 66 6 68 -7 2 -8 19 -60
37 -115z m232 10 c24 -66 57 -155 73 -198 l29 -78 -76 3 -75 3 -58 170 c-31
94 -60 180 -64 192 -6 19 -3 22 26 26 18 2 48 4 67 3 l33 -1 45 -120z m231 83
c10 -24 23 -54 27 -68 10 -34 77 -167 109 -218 24 -38 24 -42 8 -50 -9 -5 -51
-13 -92 -16 l-76 -7 -16 38 c-55 129 -79 186 -104 253 -15 41 -31 80 -36 86
-14 19 3 24 83 24 l77 0 20 -42z m1963 -190 c30 -40 71 -92 93 -116 21 -23 36
-45 33 -48 -3 -4 -36 -13 -73 -20 l-68 -15 -26 33 c-69 90 -125 143 -150 143
-49 0 -40 -60 21 -129 23 -26 39 -50 35 -53 -3 -4 -30 -8 -59 -10 l-52 -5 -50
82 c-75 123 -89 135 -120 104 -25 -25 1 -105 53 -167 21 -24 10 -31 -61 -35
-55 -3 -65 -1 -84 20 -21 23 -136 219 -131 223 6 5 212 26 353 36 122 9 225
21 231 28 1 1 25 -32 55 -71z m-4075 -90 l92 -126 -57 -16 c-86 -24 -96 -22
-140 34 -53 66 -137 201 -131 208 3 3 12 7 20 8 8 1 35 7 60 12 25 5 49 9 54
8 6 -1 51 -59 102 -128z m-279 -8 c35 -58 77 -122 94 -142 16 -20 26 -39 21
-41 -4 -3 -37 -8 -73 -12 l-67 -7 -45 63 c-24 35 -63 101 -85 145 l-41 81 52
10 c29 6 58 10 66 9 8 0 43 -48 78 -106z m-283 75 c3 -13 26 -66 51 -116 24
-51 42 -96 39 -101 -3 -4 -30 -8 -60 -8 -52 0 -55 2 -85 43 -30 39 -68 115
-83 163 -6 19 -1 22 46 31 81 16 85 15 92 -12z"/>
<path d="M3469 5510 c-10 -5 -57 -21 -105 -34 -286 -80 -589 -176 -758 -240
-80 -31 -76 -30 -76 -11 0 22 -36 38 -60 25 -15 -8 -20 -21 -20 -54 0 -53 28
-137 51 -153 14 -11 17 -32 18 -140 1 -151 26 -371 48 -425 23 -56 53 -68 176
-68 172 0 341 19 555 62 119 24 112 16 138 148 30 154 16 550 -22 591 -9 10
-26 20 -39 23 -21 5 -344 -45 -385 -60 -8 -3 -93 -16 -190 -29 -96 -14 -190
-27 -207 -30 -48 -9 -40 12 10 26 23 6 107 33 187 59 173 58 382 123 465 145
33 9 95 28 138 42 42 13 82 23 88 21 7 -2 17 -19 23 -38 10 -31 15 -35 46 -35
35 0 35 0 33 41 -2 62 -42 138 -73 141 -14 2 -32 -2 -41 -7z m-118 -397 c20
-51 23 -317 5 -429 -9 -56 -16 -104 -16 -106 0 -3 -15 -8 -32 -11 -18 -3 -71
-13 -118 -22 -97 -18 -385 -45 -477 -45 -57 0 -63 2 -68 23 -10 45 -38 224
-45 287 -9 82 0 211 14 216 6 2 139 22 296 44 157 23 312 47 345 54 84 19 84
19 96 -11z"/>
<path d="M2973 4975 c-29 -21 -43 -73 -43 -168 0 -144 30 -204 107 -214 54 -7
100 18 120 65 20 49 23 224 4 269 -7 18 -24 39 -37 48 -31 20 -123 20 -151 0z"/>
<path d="M2296 5417 c-36 -27 -48 -210 -21 -326 18 -75 29 -91 61 -91 33 0 46
29 32 71 -6 19 -12 103 -13 188 -2 118 -6 155 -16 162 -19 12 -22 11 -43 -4z"/>
<path d="M2056 4391 c-4 -5 -9 -36 -12 -68 -9 -82 -2 -87 126 -78 55 4 103 12
106 17 4 6 9 39 12 74 l5 64 -116 0 c-64 0 -118 -4 -121 -9z"/>
<path d="M960 4361 c-36 -4 -71 -11 -78 -15 -13 -8 -6 -113 8 -129 4 -5 50 -4
101 2 152 19 140 12 137 84 l-3 62 -50 1 c-27 1 -79 -2 -115 -5z"/>
</g>
</svg>
