<?xml version="1.0" standalone="no"?>
<!DOCTYPE svg PUBLIC "-//W3C//DTD SVG 20010904//EN"
 "http://www.w3.org/TR/2001/REC-SVG-20010904/DTD/svg10.dtd">
<svg version="1.0" xmlns="http://www.w3.org/2000/svg"
 width="1024.000000pt" height="1024.000000pt" viewBox="0 0 1024.000000 1024.000000"
 preserveAspectRatio="xMidYMid meet">
<metadata>
Created by potrace 1.16, written by Peter Selinger 2001-2019
</metadata>
<g transform="translate(0.000000,1024.000000) scale(0.100000,-0.100000)"
fill="#000000" stroke="none">
<path d="M5620 9966 c-15 -39 -15 -113 -1 -130 18 -22 48 -20 61 3 14 27 13
124 -2 139 -20 20 -48 14 -58 -12z"/>
<path d="M5980 9810 c-6 -12 -10 -35 -8 -53 2 -26 8 -33 29 -35 29 -3 44 11
54 49 5 21 2 30 -16 43 -31 21 -46 20 -59 -4z"/>
<path d="M7143 9728 c-16 -20 -67 -288 -57 -298 15 -14 268 -80 276 -72 5 5
19 53 33 108 13 54 31 119 39 143 9 24 16 45 16 48 0 8 -67 32 -145 51 -123
31 -151 34 -162 20z m135 -84 c37 -9 71 -20 76 -25 7 -6 -27 -157 -40 -177 -1
-2 -37 6 -80 16 -77 19 -79 20 -77 48 3 46 34 154 45 154 5 0 39 -7 76 -16z"/>
<path d="M5295 9599 c-49 -4 -126 -10 -170 -13 -873 -66 -1596 -146 -1625
-181 -7 -8 -13 -130 -16 -346 -3 -184 -6 -361 -7 -394 l-3 -60 -59 -8 c-88
-12 -95 -24 -95 -161 0 -61 5 -131 11 -156 16 -69 66 -163 110 -206 l39 -38 0
-432 c0 -263 4 -443 10 -459 13 -35 63 -56 240 -99 148 -36 473 -96 523 -96
23 0 27 -4 27 -30 0 -30 0 -30 -58 -30 -76 0 -155 -24 -192 -58 -27 -24 -33
-44 -65 -196 -83 -400 -218 -909 -355 -1341 -16 -49 -59 -189 -95 -310 -37
-121 -107 -346 -155 -500 -112 -355 -240 -778 -292 -965 -64 -231 -229 -887
-263 -1040 -7 -36 -32 -146 -55 -245 -84 -368 -93 -421 -93 -565 -1 -156 0
-162 113 -396 72 -149 109 -194 158 -194 142 0 481 62 507 93 6 7 23 19 39 27
34 17 41 37 57 159 8 59 8 90 1 106 -6 13 -62 57 -125 99 -63 41 -117 81 -119
88 -5 13 9 168 16 175 2 2 36 -30 76 -72 68 -70 76 -75 115 -75 28 0 55 9 86
28 93 60 143 136 162 247 l11 63 -54 104 c-29 56 -71 132 -93 166 l-40 64 22
106 c12 59 54 238 92 397 38 160 88 367 110 460 55 232 284 1162 309 1255 11
41 47 185 80 320 82 330 80 321 90 315 6 -4 10 -125 11 -298 1 -161 4 -303 8
-317 8 -30 50 -52 111 -60 l45 -5 -3 -45 c-2 -25 -16 -148 -32 -275 -32 -251
-70 -579 -100 -860 -18 -169 -29 -278 -65 -655 -16 -169 -58 -712 -75 -960 -6
-85 -12 -180 -15 -210 -2 -30 -9 -154 -15 -275 -6 -121 -17 -353 -25 -515 -8
-162 -16 -335 -17 -385 l-3 -90 41 -3 41 -3 6 48 c3 26 6 77 6 113 3 175 42
942 61 1200 6 74 17 234 25 355 17 252 23 327 65 780 47 508 159 1501 197
1738 l6 37 135 0 135 0 -7 -52 c-4 -29 -14 -100 -22 -158 -23 -177 -52 -428
-64 -565 -6 -71 -24 -267 -40 -435 -51 -539 -70 -818 -95 -1395 -6 -158 -14
-446 -20 -785 -3 -151 -8 -411 -11 -577 l-7 -303 32 0 31 0 0 93 c0 177 19
1203 25 1307 2 58 7 173 10 255 14 362 46 885 70 1125 8 80 28 294 45 475 38
419 45 482 81 750 40 292 32 267 77 263 33 -3 37 -6 35 -28 -2 -14 -14 -133
-28 -265 -72 -673 -129 -1427 -150 -1970 -3 -82 -7 -204 -10 -270 -9 -249 -18
-1485 -10 -1608 l7 -127 37 0 38 0 6 828 c9 1107 20 1397 93 2287 36 452 72
812 105 1063 l11 82 138 0 c123 0 139 -2 144 -17 3 -10 8 -74 11 -143 19 -406
40 -755 55 -930 37 -423 72 -793 85 -900 18 -149 20 -172 40 -360 14 -135 62
-540 70 -585 2 -11 15 -112 29 -225 14 -113 35 -263 46 -335 11 -71 29 -191
40 -265 10 -74 33 -216 49 -314 17 -98 31 -181 31 -182 0 -2 20 -4 45 -4 30 0
45 4 45 13 0 7 -13 91 -29 187 -88 522 -192 1286 -236 1730 -8 85 -17 166 -19
180 -8 43 -35 317 -51 500 -8 96 -19 220 -24 275 -9 90 -33 386 -46 570 -2 39
-7 117 -10 175 -3 58 -9 186 -15 285 -5 99 -11 218 -12 265 l-3 85 136 3 136
3 6 -154 c4 -84 11 -198 16 -252 5 -55 13 -156 16 -225 9 -158 38 -489 69
-785 42 -391 45 -426 60 -555 34 -290 169 -1268 181 -1310 2 -8 9 -55 15 -105
12 -104 53 -363 75 -480 8 -44 24 -129 35 -190 44 -233 38 -215 71 -215 16 0
29 5 29 13 0 6 -16 91 -34 187 -36 183 -111 641 -145 890 -11 80 -36 258 -55
395 -20 138 -45 322 -55 410 -11 88 -34 268 -51 400 -16 132 -37 314 -45 405
-9 91 -18 181 -20 200 -27 211 -105 1193 -105 1323 0 41 3 48 18 45 12 -2 18
-14 20 -43 4 -63 40 -469 62 -700 49 -503 83 -799 135 -1150 8 -55 19 -136 24
-180 54 -420 186 -1212 307 -1835 76 -393 65 -360 120 -360 43 0 46 2 41 23
-13 51 -90 439 -131 662 -112 606 -255 1510 -300 1900 -9 72 -25 204 -36 295
-29 235 -83 795 -116 1191 -16 206 -16 207 4 227 29 29 31 65 38 732 4 322 7
599 8 615 1 17 3 48 4 69 1 22 4 37 7 34 6 -6 159 -479 227 -703 107 -351 215
-798 282 -1165 92 -505 193 -1313 213 -1701 l6 -115 -125 -106 c-156 -133
-244 -228 -250 -269 -8 -51 10 -221 28 -268 13 -34 25 -47 58 -62 22 -10 52
-19 66 -19 46 0 147 57 230 131 l83 73 -6 -105 c-4 -57 -15 -138 -25 -179
l-18 -75 -65 3 c-54 3 -70 0 -99 -20 -44 -30 -70 -101 -77 -215 -6 -78 -5 -82
20 -106 31 -28 157 -70 276 -92 107 -19 141 -19 171 2 21 15 43 17 125 14 92
-3 102 -1 130 21 46 36 62 57 105 143 84 168 116 396 91 660 -6 66 -18 192
-26 280 -8 88 -17 189 -20 225 -3 36 -8 83 -10 105 -3 22 -7 65 -10 95 -25
239 -67 556 -111 830 -13 85 -29 187 -35 225 -6 39 -17 99 -25 135 -7 36 -25
126 -39 200 -61 317 -169 769 -245 1020 -16 52 -50 165 -75 250 -87 292 -207
651 -347 1043 -77 216 -153 431 -170 479 -16 48 -38 98 -49 112 -30 38 -99 55
-239 57 -118 2 -127 4 -152 28 -35 31 -35 46 0 48 74 4 334 26 467 39 138 14
206 31 221 56 18 29 36 658 37 1298 2 679 2 696 -18 728 -35 58 -268 197 -663
395 l-223 112 -152 1 c-84 1 -192 -2 -242 -7z m326 -289 c7 -197 12 -620 7
-625 -2 -1 -113 -5 -248 -9 -135 -3 -319 -11 -410 -16 -91 -5 -199 -10 -240
-10 -88 -2 -136 -14 -145 -38 -13 -34 -5 -297 10 -348 31 -106 104 -186 219
-240 98 -47 167 -58 341 -57 158 0 261 12 387 44 42 10 79 19 82 19 8 0 8
-316 -1 -567 -5 -173 -8 -203 -22 -207 -9 -2 -126 -7 -261 -10 -135 -4 -312
-8 -395 -11 -82 -3 -303 -10 -490 -15 -187 -5 -398 -12 -470 -15 -175 -7 -394
-9 -399 -4 -6 7 -16 779 -10 779 3 0 31 -8 62 -17 85 -26 375 -26 452 1 198
68 280 219 280 516 0 97 -3 120 -17 131 -13 11 -70 13 -307 9 -160 -2 -331 -5
-381 -5 l-90 0 0 165 c0 91 2 250 5 355 l5 190 60 7 c263 33 625 70 805 83 47
3 101 8 120 10 137 18 833 61 975 60 l70 0 6 -175z m313 36 c133 -68 264 -136
291 -151 28 -15 101 -54 163 -87 l113 -60 -2 -546 c-1 -301 -6 -623 -10 -717
-4 -93 -10 -269 -13 -390 -4 -121 -9 -235 -12 -253 -5 -30 -8 -33 -32 -28 -15
3 -112 21 -217 41 -104 20 -266 50 -360 68 l-170 32 1 145 c0 80 1 261 3 402
l3 258 28 20 c40 28 85 104 110 185 16 55 22 99 23 203 l2 134 -28 24 c-15 13
-46 29 -70 35 -23 7 -47 17 -53 23 -13 12 -30 786 -18 786 4 0 115 -56 248
-124z m-300 -762 c13 -5 16 -23 16 -95 0 -226 -68 -336 -252 -405 -31 -12 -90
-18 -215 -21 -157 -5 -178 -3 -245 17 -102 31 -139 52 -186 105 -59 67 -76
127 -77 259 l0 110 45 1 c25 1 171 7 325 14 154 6 330 13 390 14 61 2 127 4
147 5 20 1 43 -1 52 -4z m125 -13 c11 -7 13 -29 8 -103 -12 -201 -58 -309
-152 -360 -27 -15 -51 -25 -54 -23 -2 3 14 24 37 49 79 85 103 155 109 319 5
109 8 127 22 127 9 0 22 -4 30 -9z m-1482 -165 c-9 -177 -44 -258 -138 -316
-59 -36 -115 -50 -234 -57 -232 -14 -393 59 -461 210 -24 54 -28 75 -28 162
l-1 99 40 3 c22 1 211 7 420 13 209 7 382 13 384 16 2 2 8 1 14 -3 6 -4 8 -50
4 -127z m1618 -1266 c132 -27 238 -50 235 -51 -15 -6 -437 -24 -445 -18 -26
17 -102 19 -342 10 -303 -12 -567 -20 -820 -25 -100 -2 -186 -7 -192 -10 -15
-10 -499 60 -488 70 5 5 411 21 737 29 135 3 268 8 295 10 28 2 190 7 360 11
258 6 338 10 415 22 3 1 113 -21 245 -48z m-272 -857 c-4 -1019 -10 -1654 -16
-1659 -7 -8 -1136 -4 -1187 4 l-45 7 0 1155 0 1155 265 8 c146 4 380 11 520
16 140 4 303 9 361 9 l105 2 -3 -697z m111 637 l27 -41 -27 -32 c-22 -27 -25
-37 -20 -74 5 -41 95 -305 146 -433 24 -59 24 -101 5 -740 -3 -85 -7 -337 -11
-560 -3 -223 -7 -406 -8 -407 -1 -1 -40 -5 -86 -9 l-83 -6 6 744 c4 408 7 935
7 1171 0 235 4 427 9 427 4 0 20 -18 35 -40z m381 -126 c68 -7 80 -14 90 -51
3 -15 60 -178 127 -362 124 -348 307 -881 338 -986 10 -34 36 -119 58 -190
282 -894 486 -1971 572 -3020 5 -66 17 -196 26 -290 29 -299 4 -506 -79 -671
-48 -94 -68 -111 -144 -120 -35 -3 -63 -4 -63 -2 0 3 16 40 36 83 43 93 70
214 79 359 6 93 5 107 -9 112 -9 4 -19 4 -22 1 -3 -2 -12 -50 -19 -106 -32
-224 -96 -393 -176 -463 -17 -15 -25 -15 -86 -2 -166 36 -243 57 -254 70 -20
25 7 177 35 187 17 7 108 -11 120 -23 15 -15 41 -12 58 8 38 42 84 337 74 469
-13 168 -28 174 -150 53 -106 -105 -195 -170 -235 -170 -51 0 -62 19 -72 116
-14 133 -11 142 84 228 45 42 125 108 177 147 52 39 99 78 103 86 13 21 9 178
-8 359 -8 88 -17 184 -20 214 -20 215 -106 881 -135 1044 -15 89 -31 184 -35
211 -4 28 -27 151 -51 275 -121 604 -331 1315 -616 2085 -119 319 -121 326
-108 339 22 22 151 27 305 10z m-1835 -181 c0 -120 -5 -196 -15 -237 -8 -34
-32 -149 -54 -256 -47 -225 -160 -677 -265 -1060 -40 -146 -106 -386 -145
-535 -40 -148 -93 -344 -117 -435 -48 -178 -273 -1074 -374 -1490 -52 -215
-60 -259 -51 -284 9 -23 14 -26 25 -16 8 6 48 149 90 318 241 984 308 1247
445 1752 40 146 99 364 132 485 32 121 79 294 104 385 71 258 205 792 205 814
0 12 5 28 10 36 6 10 9 -66 10 -212 l0 -227 -90 -353 c-50 -194 -106 -418
-126 -498 -19 -80 -91 -370 -159 -645 -193 -779 -332 -1357 -381 -1580 -8 -38
-22 -98 -30 -132 -23 -100 -20 -115 50 -237 35 -61 78 -139 95 -173 l31 -62
-20 -53 c-11 -29 -31 -65 -45 -80 -28 -32 -92 -78 -109 -78 -6 0 -48 48 -93
108 -45 59 -111 142 -147 185 -76 88 -101 96 -156 50 -78 -65 -116 -189 -127
-408 -7 -162 4 -212 88 -384 33 -68 58 -125 56 -128 -3 -2 -47 -5 -98 -6 l-93
-2 -58 110 c-32 61 -72 146 -90 190 -30 75 -32 88 -32 200 1 113 11 189 49
355 8 36 28 126 44 200 70 318 249 1039 315 1270 75 256 173 584 226 750 32
102 91 291 130 420 40 129 89 289 110 355 178 556 345 1166 430 1570 17 83 36
154 40 159 14 14 100 35 148 35 l42 1 0 -177z m-1087 -4613 l38 -50 -17 -77
c-13 -54 -18 -121 -19 -218 0 -136 1 -142 31 -205 17 -36 49 -96 73 -134 23
-38 39 -71 36 -74 -3 -3 -35 -14 -70 -23 -47 -12 -67 -14 -74 -5 -5 6 -33 58
-63 116 -90 176 -103 236 -85 415 11 114 26 194 44 230 16 32 52 75 62 75 3
-1 23 -23 44 -50z m238 -566 c13 -12 14 -24 6 -77 -5 -34 -13 -66 -17 -71 -8
-8 -98 159 -114 212 -7 21 -3 20 51 -14 32 -20 65 -43 74 -50z"/>
<path d="M4747 8998 c-51 -64 -61 -87 -42 -94 19 -8 39 9 77 60 55 76 24 106
-35 34z"/>
<path d="M6207 8864 c-13 -13 -7 -45 17 -92 27 -54 50 -77 66 -67 17 10 11 37
-23 99 -31 59 -46 73 -60 60z"/>
<path d="M6038 7788 c-48 -59 -58 -81 -48 -99 13 -19 36 -4 78 50 33 44 43 91
18 91 -7 0 -29 -19 -48 -42z"/>
<path d="M5318 6633 c-23 -27 -58 -99 -58 -122 0 -49 39 -33 71 30 35 69 26
136 -13 92z"/>
<path d="M4601 5808 c-34 -47 -37 -73 -6 -73 23 0 67 61 63 89 -5 34 -25 28
-57 -16z"/>
<path d="M4740 5700 c-26 -52 -32 -125 -10 -125 34 0 74 151 43 162 -7 2 -21
-14 -33 -37z"/>
<path d="M2535 9383 c-9 -21 -32 -83 -51 -137 -28 -81 -32 -102 -22 -112 21
-20 261 -93 277 -85 17 10 110 227 111 259 0 14 -8 26 -22 31 -51 21 -247 81
-262 81 -9 0 -23 -17 -31 -37z m155 -74 c41 -13 76 -24 77 -24 4 -2 -36 -104
-52 -136 l-15 -28 -76 24 c-42 13 -80 27 -84 32 -5 4 2 35 15 68 13 33 26 68
29 79 3 10 12 16 19 13 6 -2 46 -15 87 -28z"/>
<path d="M8180 9372 c0 -12 34 -42 98 -87 142 -100 250 -212 296 -306 20 -42
41 -100 46 -130 12 -63 23 -78 48 -63 47 30 12 179 -72 303 -88 129 -274 271
-388 295 -23 5 -28 3 -28 -12z"/>
<path d="M1501 9309 c-39 -15 -143 -129 -177 -194 -46 -86 -60 -159 -44 -224
10 -41 25 -66 77 -122 73 -80 83 -100 83 -171 0 -62 -34 -127 -122 -236 -128
-158 -168 -245 -171 -372 -1 -68 2 -84 31 -143 34 -68 93 -130 119 -125 38 7
36 33 -4 87 -48 62 -63 108 -63 185 0 94 34 163 162 325 93 117 119 179 119
284 0 73 -20 117 -84 185 -30 31 -62 71 -71 89 -43 86 5 216 132 354 29 31 52
62 52 67 0 17 -13 20 -39 11z"/>
<path d="M2997 9143 c-14 -13 -6 -50 13 -68 17 -15 24 -16 45 -7 29 14 32 42
7 65 -19 17 -53 22 -65 10z"/>
<path d="M7811 9006 c-21 -25 -7 -42 71 -81 354 -179 568 -417 568 -632 0
-108 -50 -171 -216 -272 -114 -70 -225 -151 -252 -186 -46 -59 -48 -137 -3
-181 30 -31 81 -57 206 -108 371 -153 505 -322 451 -574 -21 -101 -59 -170
-139 -258 -113 -122 -249 -208 -477 -299 -136 -55 -196 -91 -250 -152 -47 -53
-64 -101 -57 -155 9 -70 49 -106 198 -181 179 -90 240 -129 288 -183 53 -60
61 -108 29 -172 -32 -64 -105 -120 -291 -221 -173 -94 -234 -139 -224 -164 11
-28 40 -20 149 41 56 33 148 83 203 113 121 65 224 161 243 225 26 90 6 166
-64 244 -53 58 -101 89 -273 176 -145 72 -191 107 -191 144 0 30 56 95 116
135 32 21 117 62 188 90 169 66 223 94 323 167 322 232 415 593 216 837 -71
85 -191 159 -447 272 -177 79 -193 109 -102 194 30 27 103 79 162 115 230 138
288 213 286 372 -1 117 -44 212 -157 347 -108 128 -220 214 -392 300 -121 61
-145 67 -162 47z"/>
<path d="M7083 8960 c-13 -5 -23 -18 -23 -29 0 -23 8 -26 130 -41 218 -28 434
-107 586 -215 205 -146 305 -342 231 -454 -34 -51 -91 -84 -241 -139 -181 -65
-242 -98 -317 -172 -99 -97 -121 -184 -73 -286 35 -74 97 -121 264 -201 193
-92 221 -107 294 -156 159 -107 222 -233 181 -358 -14 -40 -34 -68 -84 -118
-85 -84 -170 -134 -296 -172 -364 -109 -419 -134 -515 -229 -70 -69 -90 -111
-90 -187 0 -142 85 -227 307 -306 142 -51 259 -121 295 -174 21 -33 23 -94 4
-131 -29 -55 -193 -191 -337 -280 -20 -12 -42 -28 -48 -36 -50 -61 202 54 323
146 110 84 166 184 151 267 -21 113 -99 177 -330 271 -214 86 -262 120 -287
201 -16 56 5 112 64 172 61 61 153 104 333 157 293 86 366 122 486 240 59 59
81 88 97 133 27 72 28 156 3 230 -51 147 -178 259 -408 361 -191 85 -216 97
-259 127 -132 91 -121 222 26 321 55 37 216 110 319 143 78 25 171 93 206 150
26 42 30 58 29 114 -1 76 -18 128 -65 207 -83 138 -242 269 -421 346 -181 78
-459 129 -535 98z"/>
<path d="M2405 8755 c-140 -39 -342 -168 -455 -293 -117 -128 -181 -265 -183
-391 -1 -87 22 -136 110 -238 38 -45 76 -95 83 -112 34 -82 -30 -163 -195
-246 -181 -91 -247 -135 -330 -219 -128 -130 -191 -268 -202 -446 -10 -165 39
-302 151 -419 103 -108 207 -167 425 -243 142 -49 181 -69 215 -108 68 -81 2
-193 -218 -375 -204 -167 -299 -291 -341 -442 -55 -198 44 -394 257 -512 40
-22 155 -68 257 -102 233 -77 336 -124 390 -178 85 -85 48 -151 -169 -301
-133 -92 -203 -159 -240 -234 -89 -178 7 -280 405 -429 140 -52 175 -60 195
-48 34 22 -39 69 -220 141 -211 84 -308 147 -330 215 -24 73 57 170 255 305
155 105 213 177 216 267 5 135 -106 220 -426 324 -104 34 -221 77 -260 96
-151 76 -234 169 -264 298 -34 145 69 329 278 497 214 173 276 245 307 354 21
77 8 129 -47 189 -46 50 -95 76 -274 146 -265 103 -385 200 -445 356 -68 179
-5 426 148 585 76 80 160 139 314 223 134 73 170 102 202 167 50 100 30 179
-75 301 -102 118 -116 170 -79 289 27 88 82 175 165 260 117 120 219 185 417
267 70 30 96 50 81 65 -10 10 -64 5 -118 -9z"/>
<path d="M9020 8755 c-19 -22 -4 -64 25 -71 47 -12 73 36 39 70 -20 20 -48 20
-64 1z"/>
<path d="M2825 8476 c-230 -60 -468 -212 -568 -363 -105 -158 -87 -271 65
-405 115 -102 127 -114 134 -142 19 -79 -39 -134 -273 -255 -98 -50 -208 -114
-244 -141 -103 -77 -202 -187 -243 -271 -125 -255 -31 -416 298 -514 154 -46
180 -55 263 -95 99 -48 193 -132 218 -193 25 -62 21 -147 -10 -215 -38 -82
-63 -111 -204 -232 -259 -220 -335 -334 -335 -500 0 -101 27 -162 104 -234 76
-70 159 -104 420 -173 231 -61 330 -103 383 -162 121 -134 42 -291 -218 -436
-119 -66 -213 -145 -240 -201 -12 -26 -16 -53 -13 -96 4 -53 8 -63 44 -98 65
-66 221 -105 255 -64 10 13 10 17 -2 25 -8 5 -23 9 -35 9 -34 0 -117 31 -152
57 -104 78 -44 186 169 307 143 82 203 128 253 196 92 125 84 261 -21 364 -66
65 -177 111 -403 167 -246 62 -336 100 -402 170 -85 90 -98 189 -40 308 33 68
147 189 297 316 181 153 238 248 239 395 1 126 -41 203 -159 290 -86 64 -158
95 -344 150 -188 56 -299 123 -331 200 -36 86 26 246 139 359 76 77 166 138
302 206 208 104 309 178 343 250 23 48 21 129 -5 175 -12 20 -62 75 -112 121
-109 100 -133 144 -117 214 14 61 46 110 113 172 118 107 290 202 462 254 133
40 150 49 150 79 0 23 -4 25 -45 27 -25 1 -86 -8 -135 -21z"/>
<path d="M9031 8373 c-35 -127 -43 -173 -32 -187 6 -7 54 -26 106 -41 111 -33
113 -32 144 58 12 34 29 79 38 100 14 33 14 40 2 52 -16 16 -171 55 -217 55
-27 0 -32 -5 -41 -37z m135 -44 c40 -10 45 -15 40 -33 -8 -33 -36 -96 -42 -96
-20 0 -94 24 -94 31 0 4 5 31 11 59 12 55 15 56 85 39z"/>
<path d="M7090 8375 c-20 -24 -60 -114 -60 -135 0 -22 30 -42 98 -66 65 -23
77 -17 104 56 33 88 30 101 -22 127 -65 32 -103 38 -120 18z m92 -72 c4 -2 0
-19 -9 -38 -14 -30 -18 -32 -39 -23 -28 13 -30 25 -9 55 14 20 28 22 57 6z"/>
<path d="M2891 7823 c-9 -17 -14 -54 -12 -81 1 -7 13 -17 27 -23 36 -13 70 10
76 50 5 35 1 44 -29 60 -31 16 -51 14 -62 -6z"/>
<path d="M8813 7693 c-7 -2 -13 -9 -13 -14 0 -5 42 -51 93 -102 97 -97 170
-202 214 -309 20 -48 26 -81 27 -138 1 -90 -24 -151 -103 -255 -86 -112 -58
-132 45 -33 118 113 165 252 130 386 -35 140 -147 311 -261 402 -50 40 -108
74 -118 69 -1 0 -8 -3 -14 -6z"/>
<path d="M7012 7218 c-24 -31 -23 -56 4 -77 34 -27 45 -26 73 2 26 28 21 47
-18 70 -35 20 -45 21 -59 5z"/>
<path d="M940 7181 c-24 -46 -9 -74 47 -84 36 -7 53 11 53 56 0 19 -8 28 -31
36 -45 15 -57 14 -69 -8z"/>
<path d="M2788 7092 c-42 -15 -83 -32 -89 -39 -18 -18 16 -176 43 -199 18 -17
23 -17 102 9 46 15 95 37 109 48 l26 19 -18 53 c-32 91 -55 132 -76 134 -11 2
-55 -10 -97 -25z m91 -83 c6 -18 11 -37 11 -44 0 -12 -97 -51 -106 -42 -3 2
-6 24 -7 47 -2 40 0 43 33 56 51 18 57 17 69 -17z"/>
<path d="M7363 6980 c-24 -14 -33 -27 -33 -46 0 -61 39 -80 100 -49 23 12 30
22 30 46 0 68 -36 86 -97 49z"/>
<path d="M6862 6788 c-16 -16 -15 -33 4 -52 12 -12 20 -13 35 -6 23 13 24 33
3 54 -19 19 -26 20 -42 4z"/>
<path d="M2394 6720 c-31 -12 -35 -22 -23 -63 10 -37 19 -42 64 -37 30 3 45
20 45 51 0 49 -36 69 -86 49z"/>
<path d="M3460 6691 c-117 -38 -270 -132 -344 -211 -72 -76 -100 -141 -100
-230 -1 -90 10 -114 94 -203 93 -99 97 -133 24 -197 -40 -35 -147 -89 -223
-112 -51 -15 -71 -43 -47 -66 13 -14 21 -14 80 2 189 51 316 153 316 253 0 57
-19 93 -93 173 -67 73 -77 94 -77 153 1 121 133 250 365 357 124 58 120 55
120 76 0 26 -45 28 -115 5z"/>
<path d="M8838 6369 c-20 -11 -70 -123 -62 -142 6 -17 82 -56 115 -60 17 -1
29 12 55 58 19 33 33 69 32 79 -5 34 -109 82 -140 65z m62 -93 c0 -8 -6 -19
-14 -25 -20 -16 -30 3 -16 29 11 21 30 19 30 -4z"/>
<path d="M1140 5839 c-47 -17 -93 -39 -104 -49 -18 -17 -17 -21 26 -131 l45
-114 39 2 c60 2 214 61 214 81 0 22 -68 213 -82 229 -15 19 -43 15 -138 -18z
m116 -116 c13 -34 20 -64 16 -67 -5 -3 -31 -14 -60 -25 l-52 -21 -25 56 c-36
82 -36 83 20 104 28 9 56 17 64 16 8 0 24 -29 37 -63z"/>
<path d="M8725 5850 c-14 -22 9 -47 95 -108 104 -72 154 -134 171 -209 11 -46
10 -55 -10 -95 -28 -60 -73 -93 -216 -164 -94 -46 -133 -72 -181 -119 -69 -68
-84 -104 -84 -200 0 -67 18 -114 74 -195 63 -92 68 -156 19 -253 -52 -105
-136 -163 -372 -258 -179 -73 -244 -111 -284 -169 -36 -51 -47 -134 -27 -194
15 -48 95 -128 190 -191 208 -140 280 -267 219 -392 -39 -80 -118 -130 -295
-186 -128 -40 -168 -59 -207 -96 -39 -35 -57 -73 -57 -116 0 -54 23 -89 100
-150 78 -62 90 -79 90 -126 0 -41 -50 -90 -148 -143 -81 -44 -107 -68 -99 -91
10 -24 34 -18 129 32 148 78 198 134 198 222 0 37 -6 48 -58 99 -32 31 -77 72
-100 90 -31 24 -42 40 -42 60 0 60 57 99 215 147 187 56 296 130 347 235 31
65 31 169 -1 233 -37 76 -122 159 -251 246 -128 87 -159 124 -167 194 -10 89
67 149 304 236 140 52 238 106 303 170 143 140 163 318 52 459 -65 83 -78 151
-43 227 26 59 76 97 215 165 143 70 204 119 242 195 21 45 26 65 22 108 -10
120 -90 228 -224 298 -83 44 -110 53 -119 39z"/>
<path d="M7138 5643 c-36 -43 -26 -86 23 -98 32 -8 59 23 59 67 0 44 -53 64
-82 31z"/>
<path d="M3054 5285 c-16 -24 -16 -27 1 -45 31 -34 85 -21 85 20 0 21 -31 50
-53 50 -9 0 -24 -11 -33 -25z"/>
<path d="M2546 5139 c-17 -25 -12 -45 16 -60 43 -23 84 27 51 63 -22 24 -49
23 -67 -3z"/>
<path d="M1021 5075 c-73 -115 -89 -296 -37 -410 65 -142 322 -310 470 -307
52 1 89 23 70 42 -6 6 -44 19 -84 31 -199 55 -376 195 -411 323 -16 59 -5 169
26 261 25 76 27 105 5 105 -6 0 -23 -20 -39 -45z"/>
<path d="M7230 4955 c-19 -23 -4 -45 29 -45 36 0 41 7 30 38 -10 25 -41 29
-59 7z"/>
<path d="M7573 4828 c-19 -24 -95 -257 -87 -269 13 -21 214 -110 242 -107 23
3 33 17 79 122 30 66 53 129 51 140 -2 15 -30 32 -108 67 -124 55 -163 65
-177 47z m118 -98 c41 -17 77 -34 81 -38 12 -12 -55 -162 -72 -162 -20 0 -140
57 -140 67 0 4 9 37 21 73 12 36 23 71 25 78 4 16 0 17 85 -18z"/>
<path d="M8996 4198 c-24 -38 -23 -59 5 -80 32 -24 60 -13 84 32 14 27 14 30
-11 49 -34 27 -60 27 -78 -1z"/>
<path d="M6170 4035 c-19 -20 -22 -30 -14 -42 6 -9 15 -18 22 -21 17 -5 52 36
52 63 0 33 -29 33 -60 0z"/>
<path d="M1513 3933 c-7 -2 -17 -23 -23 -45 -14 -48 -3 -65 48 -74 29 -6 39
-3 54 16 10 12 18 37 18 56 0 30 -4 34 -37 43 -41 12 -42 12 -60 4z"/>
<path d="M8627 3843 c-4 -3 -7 -30 -7 -59 0 -48 2 -54 24 -60 13 -3 35 -4 47
-2 21 3 24 9 27 56 3 48 1 53 -23 62 -30 12 -59 13 -68 3z"/>
<path d="M6267 3582 c-38 -43 -23 -92 27 -92 29 0 44 17 48 54 2 24 -2 31 -28
42 -28 11 -34 11 -47 -4z"/>
<path d="M1272 3568 c-22 -22 -14 -57 13 -64 47 -12 77 44 36 66 -25 13 -34
13 -49 -2z"/>
<path d="M7667 3467 c-9 -7 -21 -25 -27 -41 -13 -36 9 -66 49 -66 40 0 53 14
55 55 1 34 -3 40 -30 51 -25 10 -35 10 -47 1z"/>
<path d="M1788 3215 c-165 -83 -254 -161 -308 -272 -29 -58 -34 -78 -34 -143
0 -65 4 -82 29 -128 51 -94 119 -139 297 -201 200 -68 213 -80 172 -157 -15
-27 -35 -66 -46 -86 -75 -142 15 -275 234 -347 119 -38 178 -39 178 -1 0 19
-33 34 -160 75 -80 25 -159 73 -181 109 -29 48 -24 88 26 188 54 109 57 144
15 192 -23 26 -54 42 -133 71 -56 20 -128 46 -160 57 -77 27 -131 69 -167 125
-85 133 8 317 225 447 96 58 145 94 145 107 0 19 -48 6 -132 -36z"/>
<path d="M8704 3108 c-31 -35 -48 -65 -88 -157 -27 -62 -34 -87 -26 -96 28
-33 226 -139 246 -131 18 7 124 222 124 252 0 18 -21 35 -111 88 -61 36 -114
66 -118 66 -4 0 -16 -10 -27 -22z m108 -105 c35 -20 65 -38 66 -39 7 -5 -63
-154 -72 -154 -16 0 -136 71 -136 81 0 12 69 149 74 149 3 0 33 -17 68 -37z"/>
<path d="M3940 2965 c-17 -21 -8 -50 17 -53 28 -4 50 32 32 54 -15 18 -33 18
-49 -1z"/>
<path d="M2275 2929 c-93 -40 -101 -48 -85 -91 7 -18 23 -62 35 -98 22 -63 24
-65 56 -64 51 2 178 62 185 88 2 12 -10 59 -28 106 -31 79 -36 85 -63 87 -17
1 -61 -12 -100 -28z m98 -91 c19 -47 17 -51 -36 -73 -37 -15 -37 -15 -47 10
-6 14 -14 36 -20 50 -9 23 -6 27 23 39 52 23 63 20 80 -26z"/>
<path d="M8426 2328 c-13 -19 -14 -25 -2 -43 17 -26 59 -31 80 -10 21 21 20
31 -4 55 -26 26 -55 25 -74 -2z"/>
<path d="M8058 2093 c-24 -55 -19 -69 35 -90 43 -18 61 -8 83 42 15 36 5 59
-36 80 -46 24 -59 19 -82 -32z"/>
<path d="M1563 1844 c-9 -24 10 -49 38 -49 20 0 24 5 24 30 0 25 -4 30 -28 33
-18 2 -29 -2 -34 -14z"/>
<path d="M5197 1532 c-32 -35 -15 -82 28 -82 43 0 71 60 43 88 -18 18 -53 15
-71 -6z"/>
<path d="M7974 1505 c-21 -52 -18 -74 14 -85 15 -6 35 -15 44 -20 25 -14 26
-14 48 23 29 47 26 72 -14 96 -50 31 -74 27 -92 -14z"/>
<path d="M2246 1321 c-9 -10 -19 -34 -22 -53 -5 -30 -3 -35 20 -46 41 -18 63
-15 85 14 29 38 26 61 -11 84 -41 25 -51 25 -72 1z"/>
<path d="M3595 886 c-19 -29 -10 -54 21 -62 47 -12 72 37 36 69 -25 23 -39 21
-57 -7z"/>
</g>
</svg>
