<?xml version="1.0" encoding="UTF-8" standalone="yes"?>
<svg version="1.0" xmlns="http://www.w3.org/2000/svg" width="1024.000000pt" height="1024.000000pt" viewBox="0 0 1024.000000 1024.000000" preserveAspectRatio="xMidYMid meet">
  <metadata>
Created by potrace 1.16, written by Peter Selinger 2001-2019
</metadata>
  <g transform="translate(0.000000,1024.000000) scale(0.100000,-0.100000)" fill="#000000" stroke="none">
    <path d="M2455 7290 c-444 -15 -594 -36 -663 -95 -50 -44 -66 -84 -92 -232&#xA;-18 -107 -90 -650 -90 -680 0 -10 -24 -13 -87 -13 -196 -1 -248 -42 -274 -219&#xA;-35 -242 49 -497 233 -703 l33 -37 -12 -168 c-7 -92 -15 -308 -19 -478 -9&#xA;-415 -22 -389 247 -533 165 -88 371 -182 490 -223 49 -17 89 -35 89 -39 0 -4&#xA;-15 -39 -34 -76 -56 -116 -93 -239 -142 -478 -52 -252 -43 -330 39 -366 59&#xA;-26 208 -42 407 -43 134 -1 175 2 217 16 81 28 96 56 144 264 68 295 149 513&#xA;204 549 22 14 44 15 166 9 91 -5 142 -11 143 -19 35 -133 63 -184 118 -212&#xA;l30 -16 -7 -71 c-3 -40 -13 -106 -21 -147 -19 -100 -18 -139 6 -177 29 -48 89&#xA;-62 309 -69 338 -12 353 0 416 311 9 43 21 85 27 93 9 10 54 12 237 6 124 -4&#xA;227 -7 228 -8 1 -1 -4 -47 -12 -101 -24 -171 -19 -206 38 -241 29 -17 57 -19&#xA;278 -22 l247 -4 6 -36 c3 -21 6 -59 6 -85 0 -54 27 -115 61 -135 41 -26 143&#xA;-32 341 -22 170 8 197 12 237 33 83 42 85 53 91 362 l5 270 30 2 c119 10 668&#xA;43 711 43 l54 0 0 -112 c0 -195 12 -371 26 -399 21 -42 70 -77 117 -84 24 -4&#xA;126 -5 227 -3 181 3 186 4 232 30 72 43 83 82 75 266 -4 81 -10 190 -13 244&#xA;l-7 96 74 6 c41 3 140 10 222 16 81 5 153 11 159 13 16 3 24 -43 43 -248 19&#xA;-208 26 -243 61 -284 40 -48 76 -54 278 -48 202 6 239 13 281 57 25 26 30 40&#xA;33 98 5 79 -21 312 -47 432 -21 93 -18 100 34 100 49 0 247 40 280 57 39 20&#xA;74 52 90 84 40 76 114 454 156 797 33 272 32 275 -226 413 -93 50 -175 95&#xA;-182 101 -7 5 -10 30 -7 65 4 74 -10 172 -32 218 -10 23 -37 50 -68 71 -58 38&#xA;-277 128 -610 250 -126 46 -234 88 -240 93 -7 6 -12 38 -13 71 -1 34 -7 77&#xA;-13 95 -13 41 -72 96 -137 128 -100 51 -426 142 -893 250 l-55 13 -7 142 c-10&#xA;208 -24 240 -138 297 -195 98 -988 405 -1095 424 -72 12 -378 28 -680 36 -414&#xA;9 -2110 13 -2360 5z m2535 -155 c58 -2 164 -6 235 -9 72 -2 138 -7 147 -11 28&#xA;-11 30 -37 13 -172 -29 -235 -34 -287 -51 -518 -10 -126 -18 -231 -19 -233 -1&#xA;-1 -22 9 -46 22 -85 47 -107 48 -1279 62 -460 6 -519 5 -547 -9 -59 -31 -85&#xA;-125 -84 -314 0 -141 13 -210 58 -318 134 -320 422 -524 819 -581 203 -29 402&#xA;2 593 91 217 103 358 250 432 448 l19 52 -4 -45 c-3 -25 -8 -108 -11 -185 -3&#xA;-77 -17 -279 -30 -450 -13 -170 -28 -390 -34 -489 -6 -105 -15 -184 -22 -192&#xA;-10 -12 -122 -14 -703 -14 -380 1 -846 5 -1036 10 -190 5 -534 14 -765 19&#xA;-1049 25 -1025 24 -1051 52 -14 15 -16 43 -15 191 0 176 20 660 27 667 2 2 40&#xA;-13 85 -33 179 -82 438 -127 620 -107 404 44 693 276 805 648 25 80 27 104 28&#xA;263 1 153 -1 180 -18 213 -37 75 -1 72 -749 75 l-668 3 6 32 c3 18 21 160 40&#xA;317 46 369 62 447 95 471 64 46 489 58 1925 52 594 -2 1127 -6 1185 -8z m637&#xA;-64 c59 -21 173 -67 253 -101 79 -34 219 -91 310 -125 202 -77 376 -153 396&#xA;-172 18 -19 18 -125 -1 -438 -8 -132 -17 -285 -20 -340 -5 -93 -9 -152 -20&#xA;-295 -2 -30 -11 -170 -20 -310 -8 -140 -20 -316 -26 -390 -6 -74 -14 -202 -19&#xA;-285 -34 -591 -34 -596 -71 -616 -16 -8 -36 -6 -87 10 -37 11 -233 61 -437&#xA;111 -573 140 -578 141 -592 170 -9 19 -8 51 2 145 14 114 23 250 45 670 5 105&#xA;14 255 20 335 5 80 14 226 20 325 11 199 18 271 60 680 16 154 34 357 40 450&#xA;13 190 16 215 30 215 5 0 58 -17 117 -39z m1322 -871 c257 -65 571 -152 646&#xA;-181 33 -12 72 -35 87 -50 33 -32 34 -49 18 -273 -5 -77 -14 -229 -20 -336 -6&#xA;-107 -15 -242 -20 -300 -5 -58 -17 -197 -25 -310 -37 -484 -71 -781 -99 -873&#xA;-26 -83 -30 -85 -55 -18 -29 81 -75 138 -139 174 -161 90 -469 101 -572 19&#xA;-54 -43 -82 -109 -81 -187 1 -77 14 -101 80 -149 51 -38 87 -74 80 -81 -9 -8&#xA;-382 -35 -580 -42 -222 -7 -201 -15 -214 79 l-6 47 118 37 c65 20 151 47 192&#xA;60 89 27 163 76 190 124 24 43 38 152 46 370 6 148 39 713 50 850 3 36 10 133&#xA;16 215 15 229 37 541 44 630 10 133 13 178 14 213 1 22 6 32 17 32 9 0 105&#xA;-22 213 -50z m-2793 -65 c77 -3 282 -5 455 -4 524 2 535 1 566 -33 15 -17 18&#xA;-36 17 -128 -4 -267 -86 -458 -252 -593 -81 -65 -124 -90 -219 -128 -131 -52&#xA;-203 -64 -378 -64 -192 0 -260 16 -430 100 -132 65 -213 128 -280 218 -112&#xA;147 -150 261 -150 447 0 145 12 181 60 191 31 6 368 3 611 -6z m-1123 -14 c18&#xA;-18 20 -169 3 -274 -59 -359 -291 -579 -677 -642 -216 -35 -386 -7 -594 98&#xA;-83 42 -114 65 -186 137 -71 71 -94 103 -133 181 -68 137 -93 303 -67 439 17&#xA;83 -50 77 846 74 552 -1 800 -5 808 -13z m4947 -490 c80 -26 231 -83 335 -125&#xA;367 -149 355 -142 355 -228 0 -32 -16 -199 -35 -371 -20 -171 -42 -373 -50&#xA;-447 -25 -232 -46 -393 -57 -443 l-10 -47 -38 34 c-78 71 -260 109 -417 88&#xA;-117 -16 -156 -28 -192 -58 -37 -31 -51 -77 -51 -169 l0 -69 55 -52 55 -52&#xA;-34 -12 c-33 -11 -171 -12 -264 -2 l-42 4 20 33 c65 105 95 309 160 1085 26&#xA;306 46 587 55 753 4 70 8 127 9 127 1 0 67 -22 146 -49z m1114 -825 c23 -61&#xA;-93 -786 -144 -903 -16 -37 -24 -44 -69 -57 -61 -18 -248 -43 -257 -34 -3 4 1&#xA;37 9 75 22 94 59 370 102 743 20 173 38 325 40 337 5 20 13 17 157 -57 117&#xA;-60 155 -85 162 -104z m-6975 -616 c124 -5 422 -14 661 -20 239 -6 500 -12&#xA;580 -15 389 -13 651 -16 1175 -13 314 1 606 2 650 2 64 0 124 -11 305 -56 244&#xA;-62 748 -168 793 -168 15 0 27 -4 27 -10 0 -5 -3 -10 -7 -10 -5 -1 -75 -18&#xA;-158 -39 l-150 -38 -35 28 c-63 51 -190 79 -348 79 -234 -1 -363 -57 -393&#xA;-170 -15 -58 0 -117 42 -165 27 -30 28 -35 13 -36 -58 -2 -438 2 -443 5 -3 2&#xA;-206 7 -451 11 -245 4 -456 9 -470 10 -14 1 -71 3 -127 4 l-103 1 -39 36 c-36&#xA;32 -61 87 -48 101 3 3 248 5 544 5 510 0 794 7 840 22 12 4 24 13 27 21 8 23&#xA;-13 62 -38 69 -11 4 -190 9 -396 11 -870 11 -1175 16 -1525 24 -358 9 -373 10&#xA;-460 36 -96 28 -386 141 -577 224 -64 28 -121 51 -127 51 -5 0 -13 5 -17 12&#xA;-5 8 -2 9 11 5 9 -4 119 -12 244 -17z m5096 -239 c124 -44 169 -120 199 -340&#xA;22 -158 40 -526 26 -551 -16 -30 -50 -35 -228 -35 -143 0 -165 2 -176 17 -9&#xA;12 -15 92 -20 268 -3 138 -11 274 -17 303 -20 93 -59 147 -149 207 -42 29 -50&#xA;39 -50 66 0 35 37 72 83 83 71 17 263 7 332 -18z m1095 8 c49 -16 117 -67 141&#xA;-105 41 -67 134 -546 127 -658 -3 -45 -6 -52 -32 -65 -34 -16 -230 -27 -300&#xA;-17 -29 5 -50 14 -56 25 -5 10 -18 114 -29 232 -23 247 -34 306 -64 351 -21&#xA;30 -35 41 -119 93 -38 23 -58 67 -42 93 35 58 259 88 374 51z m-5768 -163&#xA;c128 -39 167 -43 351 -45 l118 -1 -19 -28 c-49 -68 -131 -312 -177 -527 -36&#xA;-170 -20 -160 -268 -158 -227 2 -295 10 -311 35 -18 29 48 371 105 548 33 101&#xA;90 212 105 206 8 -3 51 -16 96 -30z m3289 -18 c86 -36 112 -98 134 -327 24&#xA;-242 18 -472 -13 -503 -16 -16 -85 -26 -239 -33 -164 -9 -208 -3 -225 28 -9&#xA;16 -13 95 -13 292 0 309 -3 320 -89 413 -63 67 -60 94 14 133 60 31 355 29&#xA;431 -3z m-1637 -338 c-3 -34 -46 -224 -56 -246 -15 -32 -43 -36 -250 -32 -124&#xA;2 -181 7 -189 15 -10 10 -9 37 5 130 10 65 23 126 28 136 8 16 27 17 236 15&#xA;195 -3 227 -5 226 -18z m1159 -102 c8 -118 4 -135 -36 -141 -64 -11 -396 -2&#xA;-408 10 -9 9 -9 34 1 110 7 54 15 101 17 106 2 4 98 7 212 7 l208 0 6 -92z"/>
    <path d="M3135 4848 c-142 -11 -243 -28 -341 -59 -105 -33 -147 -65 -142 -107&#xA;4 -38 35 -39 166 -8 126 30 321 46 552 46 266 0 392 -21 543 -93 92 -43 107&#xA;-43 131 -4 16 25 -16 77 -72 114 -145 96 -472 140 -837 111z"/>
    <path d="M4411 5890 c-72 -11 -108 -47 -127 -126 -16 -69 -18 -137 -4 -217 19&#xA;-118 46 -142 180 -158 136 -17 228 -1 269 47 40 45 54 100 54 219 0 162 -25&#xA;220 -103 236 -54 10 -195 9 -269 -1z"/>
    <path d="M2397 5891 c-97 -20 -143 -145 -118 -324 19 -138 40 -157 194 -177&#xA;122 -17 219 0 263 44 45 45 59 101 58 233 -1 124 -19 194 -57 215 -26 14 -282&#xA;21 -340 9z"/>
  </g>
  <title>Endermite</title>
  <desc>Endermite</desc>
</svg>