<?xml version="1.0" standalone="no"?>
<!DOCTYPE svg PUBLIC "-//W3C//DTD SVG 20010904//EN"
 "http://www.w3.org/TR/2001/REC-SVG-20010904/DTD/svg10.dtd">
<svg version="1.0" xmlns="http://www.w3.org/2000/svg"
 width="1024.000000pt" height="1024.000000pt" viewBox="0 0 1024.000000 1024.000000"
 preserveAspectRatio="xMidYMid meet">
<metadata>
Created by potrace 1.16, written by Peter Selinger 2001-2019
</metadata>
<g transform="translate(0.000000,1024.000000) scale(0.100000,-0.100000)"
fill="#000000" stroke="none">
<path d="M3370 8967 c-29 -4 -88 -23 -132 -42 -43 -19 -87 -35 -96 -35 -10 0
-22 -4 -27 -9 -6 -5 -41 -20 -80 -34 -38 -14 -102 -39 -141 -56 -39 -17 -93
-38 -120 -47 -27 -9 -74 -28 -104 -42 -30 -14 -102 -46 -160 -71 -101 -45
-106 -49 -130 -96 -27 -57 -27 -21 -19 -800 l4 -420 -105 -33 c-58 -18 -136
-45 -175 -61 -38 -15 -87 -34 -108 -40 -21 -7 -72 -28 -113 -47 -68 -31 -77
-38 -96 -80 -19 -44 -20 -59 -14 -333 4 -225 9 -1035 7 -1137 -1 -21 -4 -21
-152 -17 -90 3 -168 1 -193 -6 -22 -6 -57 -12 -76 -15 -83 -10 -215 -58 -274
-99 -89 -62 -106 -92 -108 -191 0 -45 -1 -88 -2 -96 -1 -25 13 -183 18 -209 3
-12 8 -42 10 -65 9 -69 25 -148 45 -211 11 -33 28 -89 39 -125 34 -108 123
-314 155 -355 4 -5 26 -38 49 -73 22 -34 72 -98 110 -142 37 -43 68 -81 68
-84 0 -3 -11 -6 -24 -6 -44 0 -406 -160 -481 -213 -16 -12 -36 -22 -44 -24 -9
-1 -17 -7 -19 -12 -2 -6 -10 -11 -18 -11 -8 0 -17 -7 -20 -15 -4 -8 -10 -15
-16 -15 -16 0 -80 -51 -133 -105 -99 -102 -169 -222 -185 -319 -5 -28 -7 -150
-6 -271 4 -235 11 -279 62 -386 38 -77 63 -111 148 -199 42 -43 76 -84 76 -89
0 -6 6 -11 13 -12 6 0 26 -10 43 -22 41 -29 144 -100 158 -109 6 -4 36 -19 66
-33 30 -15 57 -30 60 -34 3 -4 24 -17 47 -28 23 -12 50 -27 60 -32 10 -6 39
-19 66 -31 26 -11 66 -28 90 -39 23 -10 74 -30 112 -45 39 -15 78 -31 87 -36
10 -6 26 -10 36 -10 10 0 22 -3 26 -8 4 -4 11 -7 14 -8 4 0 14 -3 22 -6 8 -4
49 -16 90 -28 41 -12 136 -41 210 -65 74 -23 151 -45 170 -48 43 -7 64 -12
115 -26 22 -6 51 -12 65 -15 14 -2 25 -5 25 -6 0 -1 16 -4 35 -7 19 -2 39 -9
45 -14 5 -5 21 -9 36 -9 14 0 39 -4 55 -10 16 -5 45 -11 64 -13 19 -3 42 -7
50 -10 24 -8 119 -26 190 -36 36 -5 97 -17 135 -26 39 -9 93 -18 120 -20 28
-2 50 -5 50 -5 0 -1 14 -3 30 -4 17 -2 39 -6 50 -9 24 -6 124 -18 180 -22 22
-1 65 -7 95 -13 30 -6 98 -14 150 -17 52 -4 113 -11 135 -15 22 -5 100 -11
174 -15 74 -3 137 -8 141 -10 3 -2 57 -6 120 -9 63 -4 129 -8 145 -11 17 -2
88 -7 159 -10 70 -3 133 -8 138 -11 13 -8 874 -7 1013 1 61 3 167 8 237 10
226 7 444 26 570 51 60 12 85 116 81 348 -2 81 -5 94 -33 138 -16 27 -30 53
-30 57 0 4 -21 40 -46 81 -25 41 -50 85 -55 98 -5 12 -25 48 -46 80 -40 62
-67 112 -131 237 -9 17 -19 32 -22 35 -4 3 -17 23 -29 45 -12 22 -30 55 -41
73 -23 37 -20 39 18 14 15 -11 59 -40 97 -65 39 -26 81 -55 95 -67 14 -11 30
-20 37 -20 6 0 18 -6 25 -12 14 -14 40 -32 203 -136 61 -39 115 -76 122 -81 7
-6 15 -11 18 -11 7 0 82 -48 125 -81 19 -14 55 -37 80 -50 25 -13 70 -41 100
-62 30 -20 91 -61 135 -89 44 -28 82 -54 85 -58 3 -4 16 -13 30 -20 14 -7 43
-28 66 -47 23 -18 46 -33 52 -33 6 0 17 -6 24 -13 12 -11 151 -97 173 -106 5
-2 18 -13 30 -23 46 -44 80 -52 163 -38 42 7 86 14 97 15 78 11 118 19 174 36
35 10 72 19 84 19 11 0 46 9 76 19 31 11 103 34 160 51 57 18 115 39 130 46
14 8 34 14 44 14 9 0 17 4 17 9 0 5 17 12 38 16 20 4 42 10 47 15 6 4 21 11
35 15 14 4 85 36 157 71 73 35 134 64 136 64 15 0 237 134 316 191 138 99 148
107 227 184 151 150 207 291 229 582 7 92 7 250 0 286 -17 90 -21 106 -35 142
-10 27 -67 123 -80 135 -3 3 -18 22 -33 43 -70 93 -215 211 -329 267 -27 13
-48 27 -48 30 0 4 -21 15 -47 25 -27 10 -55 23 -63 30 -32 27 -257 126 -315
139 -33 8 -195 60 -222 72 -17 8 -37 14 -44 14 -12 0 -38 6 -203 45 -32 8 -60
16 -63 18 -2 2 15 31 37 64 22 33 40 65 40 71 0 5 12 30 26 56 54 97 178 504
199 655 3 18 7 36 9 40 2 3 7 49 11 101 4 52 9 98 12 103 2 4 4 52 4 106 0
114 -6 130 -80 199 -32 30 -62 47 -101 58 -30 8 -66 19 -80 24 -14 5 -45 12
-70 16 -49 7 -75 12 -75 14 0 3 -36 8 -78 12 -23 2 -48 8 -54 15 -10 8 -13 68
-13 225 0 117 0 229 1 248 1 19 1 211 0 425 -1 215 -2 439 -2 498 1 119 -16
194 -53 235 -43 49 -81 57 -248 54 -64 -1 -120 2 -123 7 -3 6 4 28 16 50 11
22 22 46 23 53 1 7 5 18 9 24 13 21 28 162 31 293 2 71 7 134 10 139 3 6 19
13 35 17 34 7 49 36 46 90 -1 22 -5 198 -9 390 -8 445 -12 471 -63 494 -19 9
-150 13 -437 16 -226 3 -616 7 -866 10 -426 4 -460 3 -525 -15 -85 -23 -145
-44 -194 -69 -41 -22 -48 -25 -191 -82 -58 -23 -114 -47 -125 -54 -44 -25 -50
-16 -50 75 0 101 -6 120 -44 143 -26 15 -98 17 -782 22 -415 3 -836 6 -935 8
-100 1 -205 -1 -234 -6z m540 -139 c85 0 272 1 415 1 585 2 892 -1 902 -7 7
-4 14 -57 17 -132 3 -69 8 -150 11 -180 3 -30 8 -118 11 -195 3 -77 7 -166 9
-197 1 -38 -2 -58 -9 -59 -12 0 -168 1 -201 2 -11 0 -411 0 -888 0 -720 -1
-873 -3 -895 -15 -15 -8 -70 -28 -121 -45 -52 -18 -109 -38 -125 -46 -17 -8
-71 -28 -120 -45 -120 -40 -129 -50 -122 -120 6 -54 16 -333 19 -542 2 -113
11 -136 47 -122 8 4 53 10 100 14 85 8 108 12 360 51 161 25 152 23 165 31 6
4 33 -10 60 -31 156 -118 312 -176 570 -212 320 -45 596 -11 860 103 101 44
94 40 164 87 28 19 51 38 51 43 0 4 5 8 10 8 6 0 21 11 34 23 l24 24 387 1
387 1 56 -45 c31 -26 66 -50 77 -55 11 -5 27 -13 35 -19 22 -14 155 -69 176
-73 11 -2 33 -9 49 -16 17 -7 65 -19 108 -26 43 -8 81 -17 86 -19 18 -12 270
-15 361 -6 107 12 110 12 165 28 22 6 42 11 45 11 10 0 117 40 165 62 58 26
139 79 177 117 l26 27 159 -3 c149 -3 231 -14 234 -30 3 -15 7 -163 8 -277 0
-66 1 -149 2 -185 0 -36 1 -72 1 -80 0 -8 0 -91 -1 -185 0 -93 0 -195 0 -225
0 -148 0 -258 -2 -290 -2 -61 -2 -791 1 -873 2 -42 1 -79 -1 -81 -2 -2 -94 -7
-204 -11 -262 -10 -255 -9 -266 -26 -27 -43 4 -63 84 -56 34 4 121 9 192 12
72 3 145 8 163 11 l33 5 -5 -413 c-8 -658 -9 -678 -28 -689 -9 -5 -23 -15 -30
-22 -7 -6 -29 -24 -48 -38 -19 -15 -48 -39 -65 -54 -16 -14 -46 -38 -65 -53
-52 -40 -70 -60 -70 -77 0 -11 -12 -15 -45 -15 -42 0 -45 2 -45 28 0 21 15 39
66 82 36 30 75 63 87 74 12 10 37 30 55 43 18 14 49 41 69 59 20 19 43 34 50
34 15 0 18 26 3 35 -5 3 -24 -4 -42 -17 -38 -26 -191 -151 -228 -186 -50 -46
-57 -46 -65 4 -7 49 -13 41 81 114 17 14 66 53 107 88 42 34 80 62 86 62 6 0
11 7 11 15 0 39 -65 1 -214 -125 -84 -71 -76 -69 -76 -13 0 47 2 51 35 69 19
10 35 21 35 25 0 4 9 9 20 12 24 6 27 37 3 37 -9 0 -31 -11 -49 -25 -18 -14
-36 -25 -41 -25 -4 0 -8 71 -8 158 -1 160 -12 383 -21 407 -8 19 -40 25 -60
10 -16 -11 -17 -42 -10 -426 5 -228 9 -434 11 -459 1 -25 3 -88 4 -142 l1 -96
38 -39 c45 -47 119 -113 192 -173 30 -24 77 -66 103 -93 l49 -49 -24 -25 c-34
-37 -112 -73 -157 -73 -28 0 -48 8 -69 25 -17 14 -35 25 -41 25 -5 0 -15 9
-21 20 -6 11 -15 20 -20 20 -9 0 -107 66 -120 80 -3 3 -17 13 -32 23 -38 24
-75 22 -89 -5 -12 -22 -9 -43 27 -200 25 -104 2 -127 -136 -135 -87 -6 -156 9
-164 35 -8 28 -35 164 -40 202 -6 43 -32 118 -47 137 -18 21 -46 15 -68 -15
-11 -15 -33 -44 -48 -65 -15 -21 -48 -61 -73 -89 -25 -28 -51 -59 -58 -70 -12
-16 -23 -18 -70 -14 -54 5 -205 44 -230 60 -19 12 -13 38 18 81 17 22 33 48
36 58 4 9 10 17 15 17 5 0 9 6 9 13 0 6 23 48 51 92 81 125 116 203 118 260 1
28 4 64 6 80 2 17 7 73 10 125 3 52 8 102 10 110 4 16 13 114 20 219 2 35 6
87 9 115 16 147 24 382 13 409 -8 20 -40 23 -56 4 -10 -13 -44 -270 -56 -427
-3 -41 -8 -98 -11 -126 l-5 -52 -137 -7 c-200 -10 -255 -13 -377 -20 -60 -4
-144 -8 -185 -10 -41 -2 -127 -6 -190 -9 -63 -3 -212 -8 -330 -12 -118 -3
-242 -7 -275 -9 -33 -2 -114 -4 -180 -5 -66 -1 -126 -6 -132 -12 -10 -8 -13
-5 -14 13 -1 33 -4 53 -23 137 -9 40 -18 96 -21 125 -5 60 -40 254 -50 279 -9
22 -25 27 -52 17 -20 -7 -26 -19 -25 -49 0 -12 13 -106 31 -230 10 -74 22
-155 25 -180 18 -130 44 -287 61 -355 8 -33 24 -114 35 -179 21 -125 36 -156
75 -156 12 0 48 -13 81 -28 32 -16 75 -34 94 -41 35 -13 55 -22 141 -60 25
-12 49 -21 53 -21 4 0 22 -7 39 -15 18 -8 68 -28 112 -45 107 -42 162 -75 179
-108 13 -27 13 -28 -52 -77 l-65 -49 -56 21 c-147 56 -221 90 -283 130 -74 47
-111 54 -128 23 -18 -34 -3 -57 83 -116 45 -32 84 -61 85 -66 2 -4 8 -8 13 -8
14 0 52 -40 74 -77 17 -29 18 -35 4 -48 -19 -19 -111 -43 -199 -51 -65 -6 -73
-5 -112 21 -41 28 -157 133 -268 246 -94 95 -121 105 -141 52 -13 -34 -2 -49
95 -146 106 -105 142 -158 126 -186 -6 -12 -12 -21 -14 -21 -2 0 -37 -8 -77
-18 -63 -15 -107 -18 -187 -13 -6 1 -72 61 -145 135 -219 222 -244 248 -359
385 -16 19 -23 50 -33 160 -7 75 -15 143 -18 151 -3 8 -8 53 -11 100 -4 47 -8
105 -11 130 -2 25 -7 74 -10 110 -3 36 -9 103 -15 150 -5 47 -12 110 -15 140
-7 67 -23 110 -40 110 -18 0 -45 -28 -46 -48 -2 -36 1 -130 5 -182 3 -30 8
-98 12 -150 3 -52 7 -97 9 -100 1 -3 -15 -18 -37 -35 -80 -61 -153 -127 -160
-143 -9 -24 -10 -4 -12 473 -1 395 -2 420 -19 423 -48 9 -48 12 -45 -497 l3
-476 24 -3 c16 -3 31 5 45 20 12 14 59 58 106 99 47 41 88 78 91 82 8 11 20
-90 12 -108 -3 -8 -9 -15 -14 -15 -19 0 -139 -109 -139 -126 0 -32 -154 3
-205 47 -11 9 -31 20 -45 24 -14 4 -44 20 -68 36 -24 16 -47 29 -51 29 -5 0
-14 7 -21 15 -7 8 -16 13 -20 10 -12 -8 -76 15 -93 33 -12 14 -13 27 -6 72 13
77 17 138 25 342 7 204 3 238 -31 238 -35 0 -46 -22 -52 -102 -3 -40 -7 -75
-9 -76 -4 -5 -236 36 -308 55 -33 8 -77 13 -98 10 -21 -3 -38 -1 -38 5 0 13
-160 207 -235 284 -16 17 -37 39 -45 50 -26 31 -199 188 -223 201 -12 7 -27
12 -34 13 -16 0 -43 -28 -43 -46 0 -8 55 -70 122 -138 199 -199 304 -321 413
-480 33 -47 65 -94 70 -104 22 -37 79 -117 87 -120 4 -2 8 -9 8 -16 0 -7 21
-44 48 -82 47 -69 113 -176 126 -204 4 -8 13 -26 21 -40 23 -39 18 -66 -14
-87 -16 -10 -109 -94 -206 -188 -278 -267 -288 -276 -330 -303 -22 -14 -57
-26 -79 -28 -79 -6 -206 39 -206 72 0 25 41 78 87 114 96 74 171 141 177 157
24 62 -53 75 -110 18 -9 -8 -32 -27 -52 -42 -21 -15 -67 -52 -103 -83 -37 -30
-82 -64 -100 -75 -38 -21 -107 -43 -129 -40 -8 1 -38 5 -67 9 -110 14 -213 65
-213 106 0 13 53 70 66 70 2 0 26 15 52 33 26 19 52 36 58 38 33 13 144 85
148 96 10 24 -16 63 -40 63 -27 0 -94 -30 -94 -42 0 -4 -6 -8 -14 -8 -8 0 -76
-40 -150 -90 -135 -90 -135 -90 -199 -90 -52 0 -71 5 -101 25 -20 14 -40 25
-44 25 -4 0 -19 12 -35 25 -39 35 -35 64 16 100 41 29 184 104 200 105 15 0
161 74 203 102 23 16 45 28 49 28 4 0 34 16 66 36 l59 35 27 -19 c38 -26 165
-68 263 -88 14 -3 58 -12 99 -20 41 -8 126 -15 189 -15 101 -1 118 2 129 18
20 27 12 66 -17 80 -14 6 -52 14 -85 17 -33 3 -71 8 -85 10 -14 3 -43 7 -65
10 -114 14 -291 67 -389 117 -126 64 -212 124 -276 193 -96 103 -112 122 -124
151 -8 17 -23 40 -35 53 -12 12 -19 22 -16 22 5 0 -2 10 -31 43 -6 7 -33 59
-61 117 -60 125 -111 266 -147 410 -2 8 -9 35 -16 58 -24 89 -41 211 -47 334
l-6 128 40 37 c40 38 52 45 123 76 68 30 213 55 350 62 169 8 654 -100 792
-175 10 -6 25 -10 33 -10 8 0 15 -4 15 -9 0 -5 15 -14 33 -21 17 -7 46 -24 64
-37 17 -12 36 -23 41 -23 11 0 145 -129 177 -170 11 -14 36 -45 55 -70 36 -45
38 -49 78 -116 12 -22 32 -55 44 -74 11 -19 35 -71 52 -115 28 -70 35 -80 59
-83 21 -3 29 2 38 22 32 69 -116 363 -275 548 l-39 46 1 181 2 181 -25 6 c-33
8 -55 -1 -56 -23 0 -10 -1 -73 -2 -140 -1 -68 -4 -123 -8 -123 -3 0 -23 13
-43 30 -78 61 -342 171 -516 215 -30 7 -81 21 -113 29 -32 9 -68 16 -80 16
l-22 0 2 308 c1 169 2 314 2 323 1 17 4 17 156 35 22 3 104 16 183 29 79 14
147 25 152 25 14 0 21 32 9 46 -11 13 -37 13 -119 0 -14 -2 -92 -14 -175 -25
-82 -12 -162 -23 -177 -26 -15 -2 -30 0 -33 5 -3 5 -8 150 -11 322 -3 172 -7
324 -8 338 -1 14 2 39 7 55 10 33 11 34 177 95 47 17 94 35 105 40 11 6 83 30
160 55 77 25 147 49 155 55 13 8 15 51 13 297 -1 295 -2 380 -1 411 0 34 -1
218 -3 292 -5 259 -8 248 79 287 37 17 101 45 142 62 41 18 83 36 92 41 10 6
25 10 33 10 8 0 15 5 15 10 0 6 9 10 19 10 11 0 23 5 26 10 3 6 16 10 28 10
13 0 31 6 42 13 11 7 38 18 60 25 22 8 49 17 60 22 11 4 67 24 125 45 58 20
125 45 150 56 41 17 62 18 225 13 99 -3 250 -6 335 -6z m2980 -23 c382 -4 711
-8 730 -10 19 -2 40 -4 47 -4 6 -1 14 -20 17 -43 14 -105 23 -678 12 -696 -6
-11 -1679 -12 -1689 -2 -3 3 -8 133 -11 290 -5 265 -9 331 -22 352 -8 12 -44
-10 -44 -27 0 -8 -11 -20 -24 -27 -41 -22 -117 -98 -110 -110 4 -7 3 -8 -5 -4
-7 5 -87 -69 -219 -203 l-207 -210 4 52 c3 45 9 57 45 94 22 23 66 69 96 103
72 80 225 233 345 345 53 50 98 91 100 93 1 2 20 5 41 8 21 3 39 6 40 7 1 1
38 1 81 1 43 -1 391 -5 773 -9z m-1011 -29 c-2 -2 -22 -19 -44 -36 -89 -71
-452 -438 -447 -453 1 -5 -3 -7 -10 -5 -8 3 -12 20 -12 41 2 34 16 51 175 208
141 138 188 178 248 210 63 33 105 50 90 35z m-264 -118 c-3 -7 -19 -21 -36
-30 -18 -11 -27 -22 -23 -29 4 -7 3 -9 -3 -6 -6 4 -33 -17 -59 -46 -27 -29
-61 -60 -76 -70 -14 -9 -29 -26 -33 -37 -10 -33 -22 -14 -23 37 0 46 2 50 53
95 36 31 73 52 112 64 32 10 62 21 68 26 14 12 25 10 20 -4z m314 -118 c1 -66
-1 -78 -13 -74 -17 7 -506 -473 -506 -496 0 -32 -19 8 -25 50 -5 43 -4 46 44
95 28 27 150 152 273 278 123 125 224 227 224 227 1 0 2 -36 3 -80z m1 -155
c0 -39 -5 -58 -17 -67 -43 -33 -266 -265 -322 -335 -22 -27 -42 -43 -56 -43
-13 0 -42 -7 -65 -15 -50 -18 -70 -19 -70 -4 0 5 4 8 8 5 10 -6 33 15 157 149
55 60 115 122 134 139 38 34 35 31 145 145 43 44 81 81 82 81 2 0 4 -25 4 -55z
m-1 -185 c1 -52 -1 -60 -16 -60 -18 0 -84 -53 -154 -122 -23 -24 -47 -38 -63
-38 -13 0 -36 -4 -50 -9 -17 -7 -5 11 44 62 158 165 225 233 231 230 3 -1 7
-29 8 -63z m4 -156 c-3 -8 -9 -11 -14 -8 -5 3 -9 1 -9 -4 0 -5 -22 -14 -50
-19 -27 -6 -50 -6 -50 -2 0 5 4 9 9 9 5 0 31 20 57 45 l49 44 7 -25 c4 -14 4
-32 1 -40z m-1716 -159 c1 -27 5 -79 9 -115 3 -36 8 -101 9 -145 3 -87 14
-121 60 -178 58 -74 174 -111 300 -96 110 14 182 71 238 189 30 64 30 68 31
227 1 101 5 163 11 164 78 6 387 1 395 -7 11 -11 15 -264 5 -319 -15 -83 -39
-166 -51 -176 -8 -6 -14 -18 -14 -26 0 -7 -6 -21 -12 -30 -26 -32 -91 -93
-100 -93 -5 0 -18 -9 -29 -19 -24 -22 -129 -80 -176 -98 -18 -6 -47 -19 -65
-27 -18 -8 -51 -20 -73 -25 -22 -5 -67 -16 -100 -24 -33 -9 -91 -18 -130 -22
-74 -7 -300 -7 -325 0 -8 2 -44 6 -80 10 -116 11 -289 62 -407 122 -29 14 -53
30 -53 35 0 4 -6 8 -13 8 -7 0 -20 9 -29 19 -9 10 -22 23 -30 27 -17 11 -99
110 -113 138 -13 24 -28 53 -42 81 -23 47 -35 133 -36 272 l-2 148 135 5 c74
3 259 6 410 5 l276 0 1 -50z m2123 45 c3 -1 15 -1 28 0 18 1 22 -4 23 -32 1
-18 3 -97 5 -176 4 -165 13 -191 84 -263 42 -42 110 -88 110 -74 0 3 10 0 22
-6 33 -18 124 -12 198 13 49 16 76 33 116 72 70 71 84 117 90 298 3 79 7 148
9 155 3 9 73 11 292 7 158 -3 290 -7 293 -10 3 -3 6 -58 6 -122 1 -109 -16
-231 -35 -257 -4 -5 -14 -32 -21 -60 -22 -84 -92 -170 -187 -231 -60 -39 -157
-85 -187 -89 -12 -1 -33 -7 -48 -13 -41 -17 -224 -41 -318 -43 -240 -4 -506
76 -660 200 -65 52 -76 64 -105 117 -33 58 -39 114 -40 339 l0 170 100 -2 c55
-2 114 1 130 6 25 8 76 8 95 1z m-3043 -28 c-1 -14 -17 -23 -69 -36 -37 -10
-70 -22 -73 -27 -4 -5 -16 -9 -29 -9 -12 0 -26 -3 -30 -7 -4 -4 -24 -13 -44
-19 -20 -7 -61 -21 -91 -33 -30 -11 -57 -19 -59 -16 -8 7 19 35 34 35 8 0 14
3 14 8 0 4 15 12 33 18 118 41 198 69 237 85 58 24 79 24 77 1z m2581 -94
c-96 -83 -360 -362 -382 -404 -1 -1 -23 -5 -49 -8 -46 -7 -48 -7 -38 12 6 11
17 26 23 34 7 7 53 58 103 113 49 55 120 129 158 165 38 36 99 94 136 128 l66
64 3 -42 c3 -33 -1 -46 -20 -62z m-78 62 c0 -5 -4 -10 -8 -10 -20 0 -359 -349
-429 -442 -53 -70 -57 -38 -11 85 6 15 16 27 23 27 6 0 17 11 24 24 12 22 138
148 253 255 57 52 148 90 148 61z m-2495 -140 c4 -63 7 -122 7 -130 0 -13 14
-70 34 -140 4 -14 23 -53 41 -87 19 -34 30 -63 26 -65 -4 -3 -26 -5 -48 -7
-22 -1 -67 -6 -100 -11 -33 -5 -82 -12 -110 -15 -27 -3 -96 -11 -153 -18
l-102 -13 1 248 c1 194 4 246 14 238 12 -10 44 -3 100 20 77 32 278 101 281
97 1 -1 5 -54 9 -117z m2269 58 c-84 -78 -129 -122 -166 -168 l-38 -45 5 55
c5 52 9 58 72 117 47 45 77 65 107 72 67 15 68 13 20 -31z m-159 -26 c-17 -15
-32 -27 -33 -26 -10 6 11 43 26 47 35 9 36 6 7 -21z m393 -153 c-128 -133
-178 -189 -178 -200 0 -5 -21 -9 -47 -9 l-48 0 27 23 c15 12 43 42 63 67 20
25 89 100 153 166 l117 121 8 -31 c7 -29 2 -36 -95 -137z m22 -117 c-74 -78
-86 -88 -125 -92 l-44 -6 42 46 c23 25 46 50 52 56 5 6 42 46 80 89 l70 77 3
-41 c3 -40 0 -46 -78 -129z m98 -1 c1 -19 -5 -38 -17 -50 -10 -10 -20 -23 -22
-29 -2 -5 -15 -11 -29 -12 -62 -5 -63 -1 -6 56 31 30 56 60 56 65 0 24 16 -3
18 -30z m22 -92 c0 -5 -10 -9 -21 -9 -18 0 -19 2 -9 15 12 15 30 12 30 -6z
m-3080 -229 c0 -5 -2 -10 -4 -10 -3 0 -8 5 -11 10 -3 6 -1 10 4 10 6 0 11 -4
11 -10z m-513 -886 c-3 -3 -12 -4 -19 -1 -8 3 -5 6 6 6 11 1 17 -2 13 -5z
m-330 -50 c-3 -3 -12 -4 -19 -1 -8 3 -5 6 6 6 11 1 17 -2 13 -5z m6173 -710
c19 -3 55 -9 80 -14 25 -6 56 -12 70 -14 50 -8 80 -18 80 -27 0 -5 8 -9 18 -9
10 0 29 -12 43 -26 21 -22 24 -35 23 -92 -1 -37 -5 -96 -9 -132 -4 -36 -8 -78
-10 -95 -2 -16 -8 -51 -14 -77 -6 -27 -15 -76 -21 -110 -5 -35 -11 -72 -14
-83 -3 -11 -11 -40 -17 -65 -7 -25 -14 -52 -17 -60 -7 -19 -7 -18 -16 -64 -4
-22 -21 -68 -38 -103 -33 -67 -47 -80 -195 -177 l-81 -54 -4 36 c-8 85 -7 85
175 200 57 35 67 49 44 58 -9 3 -40 -10 -71 -30 -31 -20 -60 -36 -65 -36 -5 0
-11 -4 -13 -8 -6 -15 -66 -52 -70 -42 -1 5 -1 38 1 72 l3 63 74 48 c41 27 74
55 74 63 0 8 -3 14 -7 14 -12 0 -96 -44 -111 -57 -17 -16 -46 -17 -36 -1 4 6
8 38 8 71 1 48 5 62 20 71 11 6 25 15 30 19 6 4 19 13 28 20 13 9 15 16 8 27
-8 13 -15 12 -49 -7 l-40 -23 0 163 c0 89 0 171 -1 182 -3 90 1 299 6 306 3 6
22 7 42 4 21 -3 53 -8 72 -11z m-485 -544 c3 -5 1 -10 -4 -10 -6 0 -11 5 -11
10 0 6 2 10 4 10 3 0 8 -4 11 -10z m-175 -4 c0 -3 -4 -8 -10 -11 -5 -3 -10 -1
-10 4 0 6 5 11 10 11 6 0 10 -2 10 -4z m840 -506 c0 -5 -5 -10 -11 -10 -5 0
-7 5 -4 10 3 6 8 10 11 10 2 0 4 -4 4 -10z m-97 -96 c-10 -22 -21 -40 -25 -42
-5 -2 -8 -8 -8 -13 0 -14 -29 -39 -100 -88 -36 -25 -69 -50 -73 -55 -4 -6 -6
13 -4 43 l3 53 109 73 c60 41 111 72 113 71 1 -2 -5 -21 -15 -42z m-56 -139
c-23 -22 -33 -18 -12 5 10 11 20 18 23 16 2 -3 -3 -12 -11 -21z m-44 -58 c-11
-12 -28 -36 -36 -53 -14 -27 -55 -64 -72 -64 -3 0 -5 19 -3 42 3 39 6 43 63
74 66 35 79 36 48 1z m-5518 -78 c33 -6 67 -12 75 -13 8 -2 22 -6 30 -9 8 -4
33 -9 55 -11 22 -3 40 -5 40 -6 0 -2 17 -5 84 -16 43 -7 43 -7 38 -41 -8 -46
-25 -66 -51 -58 -12 3 -30 7 -41 9 -11 2 -66 14 -123 26 l-102 23 -40 54 c-23
29 -37 53 -33 53 4 0 35 -5 68 -11z m5640 -89 c211 -42 468 -116 557 -161 21
-11 44 -19 53 -19 8 0 15 -4 15 -10 0 -5 8 -10 18 -10 21 0 286 -132 311 -154
9 -8 34 -25 57 -38 129 -73 281 -258 320 -388 19 -65 19 -185 -1 -251 -22 -73
-97 -222 -105 -209 -36 58 -476 170 -768 196 -68 6 -72 5 -72 -13 0 -30 18
-40 80 -47 94 -9 258 -40 440 -82 99 -23 242 -74 268 -95 l24 -19 -44 -47
c-74 -80 -110 -111 -193 -168 -132 -91 -184 -123 -208 -130 -12 -4 -31 -16
-42 -26 -11 -10 -22 -17 -25 -17 -5 1 -22 -6 -164 -71 -48 -23 -125 -55 -170
-72 -44 -17 -91 -35 -103 -40 -58 -23 -73 -28 -148 -49 -44 -12 -89 -24 -100
-27 -40 -9 -50 -12 -52 -13 -4 -3 -12 -5 -63 -14 -25 -5 -51 -13 -57 -18 -10
-8 -13 -5 -13 10 0 19 -42 59 -80 76 -8 3 -31 16 -50 28 -19 11 -69 39 -110
60 -108 57 -135 72 -138 81 -2 4 -10 7 -19 7 -8 0 -27 8 -41 18 -23 16 -185
96 -247 122 -11 5 -48 21 -82 35 -67 30 -98 30 -98 1 0 -19 38 -46 86 -61 52
-16 315 -149 494 -250 22 -12 58 -32 80 -45 147 -82 145 -81 139 -104 -11 -46
13 -50 157 -22 72 14 137 29 143 34 10 8 27 13 139 44 36 10 79 25 162 58 84
33 137 56 183 76 29 13 59 24 67 24 8 0 15 5 15 10 0 6 6 10 13 10 15 0 142
65 261 133 109 62 178 116 275 215 l74 76 -6 -76 c-6 -83 -27 -141 -63 -173
-78 -70 -207 -165 -284 -211 -25 -14 -63 -38 -85 -53 -42 -28 -336 -177 -395
-200 -19 -7 -63 -24 -96 -36 -34 -13 -77 -30 -95 -38 -93 -43 -405 -140 -489
-153 -19 -3 -62 -12 -95 -20 -33 -8 -85 -17 -117 -21 -53 -5 -59 -4 -96 26
-22 17 -42 31 -45 31 -10 0 -143 84 -177 111 -19 16 -40 29 -47 29 -7 0 -13 4
-13 9 0 5 -10 13 -22 17 -12 3 -28 13 -36 20 -17 18 -107 80 -107 74 0 -4 -13
4 -122 74 -40 25 -76 46 -82 46 -5 0 -11 4 -13 8 -3 8 -125 92 -134 92 -5 0
-96 58 -237 152 -65 43 -120 78 -122 78 -3 0 -37 21 -76 48 -83 55 -75 49
-198 129 -53 34 -147 97 -209 140 -63 43 -124 81 -135 84 -27 7 -57 -16 -57
-44 0 -17 20 -71 40 -107 5 -8 41 -78 80 -155 40 -77 81 -152 91 -167 11 -14
19 -28 19 -31 0 -3 30 -58 66 -123 82 -147 116 -208 167 -304 22 -41 46 -86
54 -100 22 -42 17 -51 -29 -49 -42 1 -182 -7 -263 -16 -22 -2 -103 -7 -180
-10 -77 -4 -171 -8 -210 -10 -38 -2 -185 -4 -325 -3 -140 0 -268 0 -284 -1
-26 0 -27 1 -12 12 15 11 17 25 12 87 -2 41 -5 132 -5 202 -1 100 -4 130 -16
142 -9 8 -22 13 -30 10 -19 -8 -16 -414 4 -438 12 -14 -5 -15 -175 -11 -104 2
-220 7 -259 9 -97 8 -194 14 -375 26 -155 10 -211 16 -262 26 -15 3 -51 7 -80
9 -93 7 -184 16 -333 34 -44 6 -102 13 -130 16 -27 3 -61 8 -75 10 -14 3 -47
7 -75 10 -27 3 -77 10 -110 16 -33 6 -87 14 -120 19 -33 5 -71 11 -85 13 -41
9 -143 28 -175 33 -16 3 -66 14 -110 24 -132 31 -179 42 -200 46 -110 21 -259
64 -219 64 6 0 19 8 30 18 41 39 259 174 367 228 29 15 54 30 57 34 5 6 87 47
341 169 47 22 90 41 95 41 5 1 27 9 49 20 22 11 46 19 53 20 6 0 12 4 12 8 0
4 9 8 20 9 11 1 46 13 77 27 30 14 62 26 69 26 19 0 18 49 -1 56 -15 6 -197
-62 -301 -112 -28 -13 -54 -24 -58 -24 -10 0 -55 -20 -161 -70 -44 -21 -116
-55 -160 -76 -44 -20 -93 -48 -110 -60 -16 -12 -42 -26 -58 -29 -15 -4 -27
-11 -27 -15 0 -4 -27 -22 -60 -39 -34 -18 -91 -53 -127 -77 -36 -24 -68 -44
-71 -44 -16 0 -92 -74 -92 -91 0 -23 4 -22 -62 -5 -193 51 -562 176 -685 232
-32 14 -83 38 -113 51 -120 54 -188 88 -249 125 -34 21 -65 38 -67 38 -2 0
-25 16 -51 36 -27 20 -61 45 -76 57 -16 11 -58 49 -94 84 -64 60 -66 64 -47
78 27 20 122 65 138 65 7 0 25 9 40 21 36 28 18 54 -30 44 -40 -7 -171 -60
-192 -77 -12 -10 -20 -6 -44 22 -56 68 -87 255 -54 333 8 20 12 38 8 41 -3 3
0 6 6 6 6 0 16 16 23 35 7 19 17 35 21 35 4 0 8 4 8 9 0 34 229 220 323 261
24 11 46 23 51 27 4 4 11 8 14 8 4 0 45 19 92 41 80 38 112 50 284 110 l69 24
53 -36 c29 -20 51 -41 48 -46 -4 -5 -116 -63 -250 -129 -134 -65 -244 -123
-244 -129 0 -5 -5 -10 -12 -10 -19 0 -88 -72 -88 -91 0 -10 -5 -21 -10 -24 -6
-3 -10 -23 -10 -43 0 -31 9 -47 48 -90 26 -28 69 -63 96 -77 55 -29 162 -46
213 -35 29 7 33 5 33 -13 0 -51 98 -133 195 -163 64 -19 221 -29 268 -16 34
10 37 9 62 -27 38 -56 121 -92 249 -107 98 -12 180 35 351 202 88 87 93 90
181 117 49 15 96 27 104 27 8 0 56 14 105 30 169 57 211 70 231 74 10 2 30 8
44 14 14 5 31 7 38 5 6 -3 12 0 12 6 0 5 8 10 18 10 9 0 48 7 86 16 56 14 73
15 95 5 25 -12 22 -14 -69 -42 -182 -56 -385 -121 -395 -127 -5 -3 -12 -6 -15
-7 -3 0 -16 -5 -30 -11 -14 -6 -40 -14 -58 -18 -22 -5 -32 -12 -32 -26 0 -10
2 -19 5 -19 8 0 159 50 180 60 31 15 298 100 313 100 7 0 20 4 30 9 9 6 55 19
102 31 47 11 110 27 140 35 30 8 70 15 88 15 56 0 32 -22 -44 -41 -147 -36
-504 -160 -504 -175 0 -8 6 -14 14 -14 14 0 304 93 341 109 18 8 89 28 125 35
15 3 38 11 78 27 32 12 32 12 32 -16 0 -19 -7 -26 -27 -31 -53 -12 -188 -55
-218 -69 -16 -7 -41 -17 -55 -21 -29 -8 -50 -23 -50 -35 0 -16 31 -10 134 27
55 20 124 42 151 49 28 7 56 14 64 16 11 3 58 -59 49 -66 -2 -1 -59 -21 -128
-45 -149 -51 -180 -66 -180 -85 0 -8 3 -15 8 -15 12 0 96 31 107 39 5 4 30 14
55 21 25 8 56 20 70 27 14 7 31 13 38 13 7 0 21 5 31 12 17 10 40 -10 218
-188 224 -227 296 -295 315 -298 7 -1 18 -5 25 -9 30 -19 236 -8 258 14 5 5
17 9 27 9 43 0 107 59 108 98 l0 24 31 -27 c70 -58 156 -81 239 -62 74 16 87
19 110 29 44 19 85 41 104 57 29 25 45 71 35 99 -13 33 -5 38 34 24 47 -17 87
-15 129 6 55 29 144 109 162 146 19 40 21 107 4 124 -9 9 -8 12 3 16 8 2 43
14 78 26 35 12 68 23 75 25 14 3 43 13 76 27 14 6 32 12 40 14 21 3 535 180
549 188 6 4 11 2 11 -3 0 -6 -4 -11 -10 -11 -5 0 -16 -12 -23 -27 -15 -27 -34
-35 -407 -164 -123 -43 -159 -61 -160 -81 0 -24 9 -23 103 15 45 19 91 38 102
42 11 4 29 10 40 12 11 1 29 8 40 13 30 15 219 79 223 75 2 -2 -3 -13 -10 -25
-15 -25 -64 -49 -163 -80 -79 -25 -90 -32 -82 -54 5 -12 16 -11 77 10 38 13
79 28 90 34 24 13 24 12 4 -29 -20 -39 -22 -115 -4 -137 21 -24 112 -74 136
-74 12 0 40 -6 62 -14 52 -19 154 -29 202 -21 26 4 53 21 86 53 55 52 84 88
84 101 0 14 30 22 34 8 2 -6 16 -58 31 -114 24 -91 32 -107 66 -138 23 -21 50
-35 67 -36 119 -5 255 4 297 21 31 13 74 58 81 86 4 14 4 63 2 109 l-6 84 42
-33 c168 -134 258 -141 422 -34 59 39 70 52 85 99 10 33 9 42 -17 88 -26 50
-88 116 -129 139 -32 17 -11 25 72 26 70 2 97 -4 168 -33 74 -31 239 -90 280
-100 72 -18 195 -23 248 -9 38 9 57 22 82 53 34 42 69 142 59 169 -4 11 0 16
14 16 27 0 81 24 115 50 64 51 72 159 16 222 -16 18 -29 36 -29 41 0 4 -6 7
-14 7 -7 0 -19 7 -26 15 -6 8 -91 40 -188 71 -98 31 -193 62 -212 70 -32 12
-58 20 -195 56 -22 6 -42 12 -44 14 -2 2 11 21 29 43 24 32 35 39 48 32 9 -5
44 -14 77 -21z m-1765 -40 c0 -5 -2 -10 -4 -10 -3 0 -8 5 -11 10 -3 6 -1 10 4
10 6 0 11 -4 11 -10z m-3689 -52 c104 -22 109 -24 109 -48 0 -39 -13 -52 -41
-42 -13 5 -49 10 -79 11 -60 3 -72 11 -110 75 -21 35 -22 39 -6 33 10 -4 67
-17 127 -29z m3629 14 c0 -4 -12 -15 -27 -24 -16 -9 -37 -25 -48 -35 -11 -10
-38 -31 -60 -48 -22 -16 -45 -34 -51 -40 -7 -5 -31 -26 -55 -45 -24 -19 -85
-72 -135 -116 l-90 -82 -72 -4 c-40 -2 -72 -1 -72 3 0 4 4 9 9 11 6 2 31 22
58 45 26 22 113 94 193 159 80 65 156 130 170 145 25 28 33 29 153 37 15 1 27
-2 27 -6z m76 -24 c-2 -18 -4 -38 -5 -44 0 -6 -40 -42 -88 -80 -48 -38 -106
-86 -128 -108 -22 -21 -69 -60 -105 -87 -57 -44 -70 -49 -115 -49 -45 1 -48 2
-31 15 10 8 41 36 69 62 28 26 64 58 81 71 17 12 45 34 61 47 94 79 128 106
147 116 12 6 31 22 43 35 12 13 27 24 32 24 6 0 16 7 23 15 18 22 20 19 16
-17z m-289 8 c-7 -6 -32 -27 -57 -46 -25 -19 -47 -37 -50 -40 -3 -3 -23 -19
-45 -35 -48 -35 -70 -53 -100 -80 -13 -11 -45 -38 -71 -60 -27 -22 -59 -49
-70 -61 -44 -42 -90 -64 -137 -64 l-46 0 67 62 c37 34 69 65 72 68 3 3 52 46
110 96 58 50 125 109 149 131 42 38 45 40 117 40 56 1 71 -2 61 -11z m-202 -6
c-3 -5 -40 -37 -83 -71 -82 -66 -189 -159 -287 -250 l-60 -57 -74 -4 -74 -4
34 26 c18 14 52 43 75 65 62 61 159 145 263 228 93 74 95 75 153 76 32 0 56
-4 53 -9z m-381 -30 c-16 -16 -32 -30 -36 -30 -5 0 -16 -8 -26 -17 -11 -10
-52 -47 -93 -83 -41 -36 -100 -90 -131 -120 -132 -127 -117 -118 -197 -125
l-74 -7 44 39 c24 21 56 49 70 63 55 54 158 147 199 180 24 19 53 44 64 55 59
55 69 60 130 66 33 3 65 7 70 7 5 1 -4 -11 -20 -28z m186 22 c0 -4 -10 -14
-22 -22 -12 -8 -45 -35 -74 -60 -28 -25 -76 -65 -105 -90 -73 -63 -191 -171
-209 -193 -11 -13 -33 -19 -80 -22 l-65 -3 29 21 c17 12 48 40 71 62 55 54
122 113 171 152 69 55 117 97 133 116 9 9 19 17 24 17 5 0 15 7 23 15 16 15
104 22 104 7z m-374 -15 c5 -4 0 -9 -131 -124 -55 -48 -125 -113 -156 -143
-103 -102 -125 -117 -170 -126 -42 -7 -69 -7 -78 2 -5 5 83 85 208 191 18 15
45 39 60 51 84 76 145 127 152 130 5 2 9 10 9 17 0 10 13 13 51 10 28 -2 53
-6 55 -8z m-521 -6 c25 -2 17 -15 -35 -51 -27 -19 -50 -38 -50 -42 0 -5 -6 -8
-12 -8 -7 0 -31 -17 -53 -36 l-40 -36 -8 35 c-12 50 10 78 102 132 15 9 44 11
96 6z m200 -8 c-11 -10 -42 -36 -69 -58 -27 -21 -60 -48 -72 -60 -12 -11 -53
-47 -90 -80 -38 -33 -84 -75 -101 -93 -32 -33 -33 -33 -33 -9 0 13 -5 39 -12
57 -10 30 -9 35 13 52 102 81 158 128 187 155 39 38 70 49 142 52 53 2 54 1
35 -16z m129 -21 c-22 -20 -79 -70 -127 -110 -128 -108 -247 -223 -247 -239 0
-7 -6 -13 -12 -14 -7 0 -26 -2 -43 -4 -20 -3 -34 1 -42 12 -14 18 -5 28 117
131 30 26 69 61 87 78 17 17 53 49 80 70 26 22 50 42 51 47 2 4 9 7 16 7 7 0
19 11 26 25 15 28 27 32 90 34 l45 0 -41 -37z m-513 8 c-24 -21 -41 -19 -41 6
0 9 11 14 33 14 l32 -1 -24 -19z m3327 -3 c6 -5 12 -7 12 -4 0 4 19 -2 43 -12
23 -10 47 -19 52 -19 30 -4 71 -15 81 -23 6 -5 19 -10 30 -12 10 -1 44 -12 74
-24 61 -24 279 -93 293 -93 18 0 77 -33 77 -43 0 -5 7 -15 15 -21 21 -15 0
-53 -45 -84 -52 -36 -143 -27 -275 26 -55 22 -111 43 -125 47 -14 4 -32 13
-40 20 -24 21 -91 30 -101 14 -17 -28 -10 -67 14 -75 27 -8 161 -69 202 -92
17 -9 30 -15 30 -13 0 3 27 -6 92 -31 49 -19 57 -28 68 -78 5 -19 -13 -43 -44
-60 -30 -16 -161 -16 -222 0 -24 6 -82 25 -129 42 -47 17 -116 42 -155 55 -38
14 -115 44 -169 67 l-100 41 45 7 c65 9 95 24 138 65 54 55 76 133 80 285 1
32 3 36 24 31 12 -3 28 -10 35 -16z m-179 -87 c-2 -47 -6 -54 -57 -105 l-55
-55 -71 0 -70 0 39 40 c22 21 45 39 52 40 6 0 13 4 15 8 2 4 23 23 47 42 24
19 55 45 67 58 13 12 26 22 29 22 3 0 5 -23 4 -50z m-5049 15 c8 -2 23 -4 33
-4 11 -1 17 -9 17 -25 0 -32 -9 -36 -53 -27 -40 10 -66 30 -60 48 2 6 -4 14
-14 16 -18 6 50 -2 77 -8z m3644 -22 c-12 -55 -26 -93 -34 -93 -4 0 -24 -15
-43 -32 -20 -18 -45 -40 -56 -48 -12 -8 -21 -20 -21 -27 0 -9 -20 -13 -72 -13
l-72 0 45 32 c41 31 112 92 148 130 22 22 94 76 104 77 4 1 5 -11 1 -26z
m-3620 -82 c4 -5 2 -20 -3 -33 -6 -12 -10 -17 -10 -9 -1 8 -8 23 -18 33 -15
17 -15 18 5 18 11 0 23 -4 26 -9z m3603 -106 c-5 -12 -97 -27 -97 -15 0 3 22
19 48 36 43 29 47 30 50 12 2 -11 1 -25 -1 -33z m-2782 -106 c4 -22 5 -42 3
-44 -7 -7 -118 -11 -118 -4 0 3 12 15 26 25 15 10 36 29 47 42 28 31 34 28 42
-19z m-648 -17 c8 -5 -6 -12 -37 -18 -28 -6 -50 -9 -50 -8 0 1 3 9 6 18 7 17
59 22 81 8z m3371 -27 c-4 -4 -249 -89 -358 -124 -47 -16 -96 -33 -110 -39
-34 -15 -237 -84 -340 -116 -52 -16 -86 -22 -88 -16 -2 5 -10 10 -18 10 -31 0
-12 20 29 30 23 5 76 23 117 39 41 16 113 42 160 57 47 15 90 31 96 36 7 5 16
8 20 7 5 -1 16 1 24 4 42 18 77 30 90 32 8 2 65 19 125 40 105 35 215 56 243
47 7 -3 12 -6 10 -7z m1268 -27 c12 -6 53 -21 90 -33 l69 -24 -77 2 c-75 2
-78 3 -125 45 l-48 42 35 -11 c19 -6 45 -15 56 -21z m-4567 17 c13 -4 20 -9
17 -13 -8 -8 -220 -61 -225 -56 -14 13 101 70 120 58 4 -2 10 -1 13 4 6 10 45
14 75 7z m2996 -6 c-16 -6 -66 -22 -110 -36 -44 -14 -91 -30 -105 -36 -49 -19
-366 -129 -395 -137 -16 -4 -34 -9 -40 -11 -5 -2 -27 3 -48 11 l-37 14 42 13
c24 8 66 20 93 28 28 7 129 41 225 75 96 34 195 66 219 71 24 5 47 11 49 14 3
3 35 5 71 4 57 0 62 -2 36 -10z m-290 -9 c-38 -14 -330 -108 -413 -133 -68
-21 -90 -23 -120 -15 -30 8 -33 12 -19 20 10 5 28 11 40 12 12 2 39 10 61 19
21 10 44 17 52 17 7 0 15 4 18 9 3 5 26 12 51 15 24 4 47 11 50 17 4 5 16 9
29 9 12 0 27 5 34 12 7 7 12 9 12 6 0 -3 24 0 53 7 56 13 186 17 152 5z m1770
-10 c3 -5 1 -10 -4 -10 -6 0 -11 5 -11 10 0 6 2 10 4 10 3 0 8 -4 11 -10z
m-2111 -10 c-18 -4 -40 -11 -50 -15 -23 -10 -24 -10 -94 -31 -90 -27 -156 -37
-185 -30 -36 9 -23 19 45 35 30 7 61 20 68 29 8 11 12 12 12 3 0 -9 6 -11 18
-6 26 12 101 22 162 23 45 0 49 -1 24 -8z m-2264 -10 c8 -5 12 -10 10 -12 -11
-9 -244 -75 -285 -82 -40 -7 -121 -29 -140 -39 -15 -8 -14 -4 6 17 16 16 53
34 95 46 38 11 114 33 169 49 111 33 124 35 145 21z m1980 -2 c0 -4 -8 -8 -17
-8 -9 0 -31 -5 -48 -11 -32 -12 -113 -4 -100 9 14 15 165 24 165 10z m-1875
-59 c25 -17 26 -19 7 -14 -22 6 -131 -16 -177 -36 -11 -4 -40 -13 -65 -19 -25
-6 -70 -20 -100 -31 -77 -27 -324 -98 -328 -94 -5 5 48 52 72 63 11 6 118 36
236 67 118 32 235 63 260 70 60 18 61 18 95 -6z m-1357 -394 c-3 -3 -9 2 -12
12 -6 14 -5 15 5 6 7 -7 10 -15 7 -18z m6989 -11 c-3 -3 -12 -4 -19 -1 -8 3
-5 6 6 6 11 1 17 -2 13 -5z m-8344 -125 c-7 -8 -16 -30 -19 -47 -12 -58 -19
-33 -21 71 l-2 102 27 -55 c23 -45 25 -58 15 -71z m41 45 c3 -8 2 -12 -4 -9
-6 3 -10 10 -10 16 0 14 7 11 14 -7z m8952 -56 c-12 -74 -25 -134 -35 -158 -8
-22 -9 -20 -6 15 1 22 -1 50 -6 63 -6 17 -3 35 14 67 26 53 40 58 33 13z
m-8884 -83 c66 -61 142 -124 177 -147 88 -59 168 -107 179 -108 6 0 12 -3 12
-7 0 -5 17 -16 38 -25 20 -10 80 -37 132 -61 52 -24 111 -50 130 -57 19 -8 37
-16 40 -19 6 -7 53 -25 150 -57 41 -14 89 -31 105 -38 69 -31 408 -139 490
-156 28 -6 61 -15 75 -20 14 -5 39 -12 55 -14 55 -10 130 -28 165 -41 19 -8
51 -16 70 -19 19 -3 89 -16 155 -30 66 -13 143 -27 170 -30 68 -8 99 -13 122
-20 23 -7 136 -24 313 -46 47 -5 94 -12 105 -14 11 -2 58 -7 104 -11 47 -4 94
-9 105 -11 36 -7 96 -13 236 -24 74 -6 162 -15 195 -20 73 -11 164 -18 350
-26 77 -4 160 -8 185 -9 424 -26 1129 -23 1445 6 61 5 144 12 185 15 109 7
171 13 180 19 5 3 8 -47 7 -112 l-2 -118 -55 -7 c-30 -4 -68 -10 -85 -13 -41
-7 -255 -22 -450 -31 -166 -8 -940 -11 -1150 -5 -66 3 -151 7 -190 12 -38 4
-124 10 -190 14 -66 3 -129 8 -140 11 -11 2 -60 6 -110 8 -49 3 -142 10 -205
16 -112 11 -143 14 -245 26 -27 3 -63 8 -80 10 -29 3 -99 11 -160 19 -16 2
-32 4 -35 6 -3 1 -8 1 -11 1 -3 -1 -35 4 -70 9 -123 19 -204 31 -240 34 -19 2
-57 9 -82 15 -26 5 -64 13 -85 16 -20 3 -91 17 -157 30 -66 14 -147 29 -179
35 -33 5 -63 12 -67 14 -3 3 -24 7 -45 11 -89 13 -521 133 -629 174 -43 16
-260 93 -270 95 -34 7 -296 134 -346 167 -19 13 -46 29 -61 37 -16 8 -28 18
-28 23 0 4 -7 8 -15 8 -12 0 -98 52 -115 70 -3 3 -35 29 -71 58 -94 73 -175
163 -183 202 -13 69 -4 195 14 188 4 -2 32 -25 62 -53z m5276 -80 c-3 -3 -9 2
-12 12 -6 14 -5 15 5 6 7 -7 10 -15 7 -18z m3346 -70 c-4 -8 -11 -15 -16 -15
-6 0 -5 6 2 15 7 8 14 15 16 15 2 0 1 -7 -2 -15z m-54 -39 c0 -2 -8 -10 -17
-17 -16 -13 -17 -12 -4 4 13 16 21 21 21 13z m-6420 -11 c0 -2 -10 -9 -22 -15
-22 -11 -22 -10 -4 4 21 17 26 19 26 11z m-1740 -45 c8 -5 11 -10 5 -10 -5 0
-17 5 -25 10 -8 5 -10 10 -5 10 6 0 17 -5 25 -10z m6395 -110 c3 -6 -1 -7 -9
-4 -18 7 -21 14 -7 14 6 0 13 -4 16 -10z m1495 -4 c0 -2 -7 -7 -16 -10 -8 -3
-12 -2 -9 4 6 10 25 14 25 6z m-1415 -44 c-3 -3 -11 0 -18 7 -9 10 -8 11 6 5
10 -3 15 -9 12 -12z m-6740 -12 c3 -5 1 -10 -4 -10 -6 0 -11 5 -11 10 0 6 2
10 4 10 3 0 8 -4 11 -10z m6830 -30 c3 -5 1 -10 -4 -10 -6 0 -11 5 -11 10 0 6
2 10 4 10 3 0 8 -4 11 -10z m75 -46 c0 -2 -9 0 -20 6 -11 6 -20 13 -20 16 0 2
9 0 20 -6 11 -6 20 -13 20 -16z m980 2 c0 -2 -7 -7 -16 -10 -8 -3 -12 -2 -9 4
6 10 25 14 25 6z m-6450 -41 c0 -2 -10 -9 -22 -15 -22 -11 -22 -10 -4 4 21 17
26 19 26 11z m2744 -111 c3 -8 2 -12 -4 -9 -6 3 -10 10 -10 16 0 14 7 11 14
-7z m6 -66 c0 -18 -2 -20 -9 -8 -6 8 -7 18 -5 22 9 14 14 9 14 -14z m-3 -50
c-3 -8 -6 -5 -6 6 -1 11 2 17 5 13 3 -3 4 -12 1 -19z m1063 -208 c0 -5 -5 -10
-11 -10 -5 0 -7 5 -4 10 3 6 8 10 11 10 2 0 4 -4 4 -10z m80 6 c0 -3 -4 -8
-10 -11 -5 -3 -10 -1 -10 4 0 6 5 11 10 11 6 0 10 -2 10 -4z m-195 -16 c-3 -5
-12 -10 -18 -10 -7 0 -6 4 3 10 19 12 23 12 15 0z m-1208 -16 c-3 -3 -12 -4
-19 -1 -8 3 -5 6 6 6 11 1 17 -2 13 -5z m210 -10 c-3 -3 -12 -4 -19 -1 -8 3
-5 6 6 6 11 1 17 -2 13 -5z m596 -1 c-7 -2 -19 -2 -25 0 -7 3 -2 5 12 5 14 0
19 -2 13 -5z"/>
<path d="M3337 8728 c-14 -12 -16 -42 -14 -275 3 -271 5 -289 43 -281 22 4 22
12 26 351 2 164 -1 200 -13 208 -19 12 -22 11 -42 -3z m28 -318 c3 -5 1 -10
-4 -10 -6 0 -11 5 -11 10 0 6 2 10 4 10 3 0 8 -4 11 -10z"/>
<path d="M3442 7007 c-10 -11 -12 -62 -11 -202 0 -11 0 -76 1 -145 0 -69 2
-217 4 -330 1 -113 3 -470 4 -795 1 -363 6 -597 12 -608 5 -10 15 -16 22 -14
8 3 11 -4 8 -24 -5 -34 -31 -30 228 -29 96 1 303 3 460 4 157 1 291 5 298 9
16 11 15 32 -3 51 -13 13 -76 14 -477 10 -255 -3 -467 -6 -473 -8 -6 -2 -10
94 -11 273 0 152 -4 598 -8 991 -4 393 -7 722 -6 730 3 84 -18 123 -48 87z
m25 -474 c-3 -10 -5 -4 -5 12 0 17 2 24 5 18 2 -7 2 -21 0 -30z m0 -75 c-3 -7
-5 -2 -5 12 0 14 2 19 5 13 2 -7 2 -19 0 -25z m13 -438 c0 -5 -2 -10 -4 -10
-3 0 -8 5 -11 10 -3 6 -1 10 4 10 6 0 11 -4 11 -10z m0 -600 c0 -5 -5 -10 -11
-10 -5 0 -7 5 -4 10 3 6 8 10 11 10 2 0 4 -4 4 -10z m-3 -457 c-3 -10 -5 -4
-5 12 0 17 2 24 5 18 2 -7 2 -21 0 -30z m260 -69 c-3 -3 -12 -4 -19 -1 -8 3
-5 6 6 6 11 1 17 -2 13 -5z m310 0 c-3 -3 -12 -4 -19 -1 -8 3 -5 6 6 6 11 1
17 -2 13 -5z"/>
<path d="M5709 6306 c-2 -2 -71 -7 -154 -11 -82 -4 -159 -9 -170 -11 -11 -3
-51 -7 -90 -9 -65 -4 -110 -7 -255 -21 -30 -3 -104 -11 -165 -19 -60 -8 -130
-17 -155 -20 -25 -4 -110 -22 -190 -41 -177 -42 -199 -49 -321 -108 -42 -20
-79 -36 -83 -36 -14 0 -172 -108 -218 -150 -35 -30 -48 -49 -48 -69 0 -68 56
-68 130 0 54 50 140 111 150 107 3 -1 26 12 53 30 26 18 47 31 47 28 0 -3 21
5 48 19 26 13 74 31 107 40 33 9 71 21 85 26 31 11 249 54 324 64 22 2 58 7
80 10 23 3 61 8 86 9 25 2 97 8 160 14 63 6 158 14 210 18 145 10 169 11 255
19 157 15 954 7 1110 -10 65 -7 169 -17 185 -17 21 0 212 -25 240 -31 8 -2 33
-8 55 -12 55 -12 54 -12 60 -15 3 -1 8 -3 13 -5 4 -1 14 -4 22 -7 8 -4 24 -9
35 -12 54 -14 140 -48 154 -60 9 -7 30 -21 47 -29 17 -9 54 -39 82 -66 29 -28
61 -51 72 -51 30 0 44 44 26 78 -27 51 -111 123 -186 159 -67 32 -120 53 -135
53 -9 0 -25 5 -36 11 -29 15 -251 64 -338 73 -29 4 -83 11 -120 16 -36 5 -118
12 -181 15 -63 4 -118 9 -123 12 -9 5 -862 14 -868 9z"/>
<path d="M484 2103 c-8 -29 -15 -20 130 -148 85 -75 249 -186 341 -233 39 -19
93 -46 120 -60 28 -14 52 -26 55 -27 3 -1 22 -8 42 -17 20 -9 65 -26 100 -38
35 -12 72 -26 83 -30 55 -23 239 -70 274 -70 40 0 55 20 35 48 -8 12 -24 22
-35 22 -11 0 -41 6 -67 14 -146 45 -182 57 -232 76 -30 12 -67 25 -81 30 -14
4 -34 13 -45 19 -10 6 -64 31 -119 56 -55 25 -107 49 -115 54 -8 6 -51 31 -95
57 -103 61 -139 89 -287 227 -60 55 -94 62 -104 20z m68 -33 c12 -11 17 -20
11 -20 -5 0 -18 9 -28 20 -10 11 -15 20 -11 20 4 0 16 -9 28 -20z m158 -140
c14 -11 21 -20 17 -20 -5 0 -20 9 -34 20 -14 11 -22 20 -17 20 5 0 20 -9 34
-20z"/>
<path d="M9045 1693 c-72 -48 -258 -143 -360 -184 -55 -22 -109 -44 -120 -49
-17 -7 -153 -49 -260 -80 -27 -8 -98 -23 -166 -35 -116 -21 -266 -45 -319 -51
-36 -4 -72 -8 -80 -10 -8 -1 -20 -3 -27 -3 -18 -1 -26 -40 -12 -57 15 -18 19
-17 274 20 61 8 133 20 160 26 28 6 64 13 80 16 17 3 46 10 65 16 19 6 42 12
50 13 8 1 22 5 30 8 8 3 56 17 105 31 178 51 346 120 505 208 130 73 165 100
165 128 0 35 -40 36 -90 3z"/>
</g>
</svg>
