<?xml version="1.0" standalone="no"?>
<!DOCTYPE svg PUBLIC "-//W3C//DTD SVG 20010904//EN"
 "http://www.w3.org/TR/2001/REC-SVG-20010904/DTD/svg10.dtd">
<svg version="1.0" xmlns="http://www.w3.org/2000/svg"
 width="1024.000000pt" height="1024.000000pt" viewBox="0 0 1024.000000 1024.000000"
 preserveAspectRatio="xMidYMid meet">
<metadata>
Created by potrace 1.16, written by Peter Selinger 2001-2019
</metadata>
<g transform="translate(0.000000,1024.000000) scale(0.100000,-0.100000)"
fill="#000000" stroke="none">
<path d="M3280 9166 c-36 -7 -103 -29 -149 -49 -47 -20 -92 -37 -101 -37 -9 0
-20 -4 -25 -9 -9 -8 -51 -24 -200 -78 -22 -8 -44 -18 -50 -22 -5 -4 -30 -14
-55 -21 -54 -16 -113 -41 -200 -85 -36 -18 -102 -47 -148 -65 -76 -30 -84 -36
-101 -74 -37 -82 -35 -24 -25 -696 5 -398 7 -556 5 -576 -1 -12 -39 -27 -166
-67 -44 -14 -106 -37 -139 -51 -32 -14 -65 -26 -72 -26 -7 0 -37 -11 -66 -24
-29 -13 -76 -34 -105 -46 -44 -18 -56 -30 -75 -69 -21 -42 -23 -57 -20 -181 2
-74 4 -416 5 -760 l2 -624 -50 4 c-134 11 -352 -4 -440 -31 -16 -5 -61 -18
-100 -29 -82 -25 -149 -65 -204 -125 l-41 -45 -2 -87 c-4 -210 30 -475 82
-633 11 -36 35 -108 52 -160 62 -194 195 -424 328 -567 28 -30 50 -57 50 -62
0 -5 -15 -11 -34 -14 -70 -11 -408 -163 -495 -223 -20 -13 -40 -24 -45 -24
-28 0 -276 -211 -276 -235 0 -3 -13 -23 -30 -43 -16 -20 -46 -73 -67 -117
l-38 -80 1 -265 c1 -223 4 -275 19 -325 24 -83 62 -161 106 -220 56 -74 198
-215 258 -255 29 -19 73 -50 97 -68 24 -17 50 -32 57 -33 6 0 26 -9 42 -20 17
-10 37 -22 45 -26 7 -4 42 -24 77 -45 34 -21 65 -38 68 -38 2 0 30 -12 62 -26
32 -14 72 -32 88 -39 17 -7 57 -24 90 -38 33 -14 71 -28 85 -32 14 -3 35 -10
48 -16 12 -5 32 -13 45 -18 12 -5 76 -26 142 -46 66 -20 131 -40 145 -45 99
-31 233 -70 275 -79 28 -5 114 -26 192 -46 79 -19 155 -37 170 -40 16 -2 45
-8 65 -13 20 -5 39 -7 42 -4 3 2 11 0 18 -5 7 -6 29 -13 48 -16 164 -26 238
-39 320 -56 53 -11 123 -22 155 -25 33 -3 87 -9 120 -15 33 -5 101 -15 150
-20 50 -6 128 -15 175 -21 47 -5 105 -10 130 -11 25 0 65 -5 90 -11 25 -5 74
-11 110 -13 178 -12 207 -14 485 -35 349 -27 446 -30 780 -30 426 0 560 3
1020 26 151 8 153 8 225 17 30 4 73 10 95 13 125 15 138 21 160 64 17 34 35
236 30 343 -2 52 -9 78 -32 115 -15 26 -33 59 -39 73 -7 14 -30 55 -53 91 -22
36 -41 69 -41 75 0 5 -21 40 -46 78 -45 69 -124 214 -124 228 0 4 -15 29 -34
56 -19 27 -47 72 -62 100 -14 28 -30 54 -35 57 -5 3 -9 10 -9 15 0 6 14 -1 31
-15 17 -14 34 -26 39 -26 5 0 54 -31 110 -70 56 -38 103 -70 105 -70 5 0 134
-85 165 -108 14 -10 36 -25 50 -32 14 -7 89 -56 168 -109 79 -53 174 -114 212
-136 37 -22 92 -56 121 -76 30 -20 91 -60 137 -89 45 -29 82 -57 82 -62 0 -4
6 -8 13 -8 7 0 39 -20 72 -45 33 -25 63 -45 66 -45 4 0 34 -18 67 -40 33 -22
65 -40 71 -40 6 0 11 -4 11 -9 0 -5 15 -16 33 -26 17 -9 57 -32 87 -51 41 -26
62 -33 82 -29 15 4 42 8 60 10 60 5 270 45 287 54 9 5 36 12 61 16 25 4 65 14
90 22 25 8 74 23 110 32 79 22 364 129 458 172 37 17 103 49 147 70 44 22 83
39 87 39 16 0 255 144 313 189 35 28 68 51 73 51 17 0 202 161 241 210 70 88
120 187 142 283 5 20 13 56 19 80 29 122 32 469 6 571 -18 69 -68 160 -135
246 -102 130 -248 238 -486 360 -50 26 -99 52 -110 58 -78 44 -472 182 -520
182 -13 0 -27 5 -30 10 -3 6 -16 10 -28 10 -30 0 -200 42 -214 53 -9 7 -2 24
27 67 22 33 40 61 40 64 0 3 15 36 33 73 47 98 127 333 161 478 10 39 21 86
26 105 13 50 28 134 36 210 4 36 9 79 11 95 2 17 5 79 7 139 4 98 2 114 -17
151 -30 57 -95 112 -159 135 -30 10 -115 31 -189 45 -74 14 -150 30 -171 36
l-36 9 -1 673 c0 369 0 729 0 799 0 69 -4 129 -10 132 -5 3 -12 21 -15 40 -8
44 -61 91 -118 107 -24 6 -103 11 -177 10 -104 -1 -132 1 -128 11 69 156 77
196 85 408 l7 165 35 17 c51 26 60 43 55 107 -2 31 -7 189 -10 351 -10 525
-13 548 -77 569 -20 6 -254 12 -588 16 -305 3 -702 8 -883 10 -403 6 -414 5
-622 -90 -27 -12 -108 -46 -180 -75 -71 -29 -140 -59 -152 -66 -12 -8 -31 -14
-43 -14 -19 0 -20 5 -16 88 3 62 0 95 -10 114 -30 58 -2 56 -855 63 -928 7
-782 6 -971 6 -87 0 -163 1 -170 3 -7 2 -42 -1 -78 -8z m315 -143 c132 -4 256
-7 275 -6 19 0 329 1 689 2 459 1 658 -2 667 -10 9 -8 13 -40 13 -107 0 -54 5
-160 10 -237 19 -263 23 -445 9 -445 -7 -1 -468 -1 -1025 -1 -916 0 -1015 -1
-1050 -16 -21 -9 -78 -31 -128 -48 -212 -76 -353 -131 -369 -145 -14 -11 -17
-24 -12 -64 7 -55 15 -252 20 -515 5 -191 9 -202 74 -183 22 7 59 12 83 12 24
0 82 6 129 14 47 8 110 17 140 19 82 8 252 37 269 47 15 8 42 -5 94 -47 80
-64 285 -153 422 -182 314 -65 700 -48 945 42 62 23 192 80 217 95 46 28 155
107 161 117 11 18 47 35 59 27 6 -4 181 -5 389 -2 l378 5 57 -45 c84 -66 166
-110 279 -147 25 -8 59 -21 75 -28 81 -35 248 -58 425 -58 205 0 271 10 460
70 61 20 181 81 203 104 10 10 22 19 27 19 4 0 27 18 50 39 36 34 46 38 70 31
15 -4 87 -9 159 -9 73 -1 149 -7 169 -14 l37 -12 3 -80 c5 -100 4 -2216 0
-2220 -2 -2 -302 -15 -442 -19 -38 -1 -62 -34 -43 -60 13 -17 24 -18 188 -7
96 6 203 12 239 13 l64 3 -2 -345 c-2 -393 -11 -757 -18 -782 -3 -9 -28 -34
-57 -55 -29 -21 -60 -45 -69 -53 -9 -8 -53 -44 -97 -80 -44 -36 -80 -73 -81
-82 0 -12 -8 -18 -22 -18 -13 0 -33 -3 -45 -6 -21 -6 -23 -3 -23 32 1 36 6 43
66 89 36 28 76 60 90 72 13 12 40 34 61 50 20 15 53 43 72 60 20 18 42 33 49
33 14 0 16 26 2 35 -14 9 -99 -51 -220 -155 -57 -49 -107 -90 -111 -90 -6 0
-19 50 -19 75 0 6 45 50 101 96 56 46 111 92 122 102 12 11 34 25 50 33 28 15
34 28 17 39 -13 8 -127 -68 -215 -144 -38 -34 -72 -61 -75 -61 -3 0 -4 15 -3
32 1 18 2 41 2 50 1 9 26 32 56 50 30 18 55 38 55 45 0 25 -22 23 -65 -6 -24
-16 -46 -27 -48 -23 -2 4 -4 55 -4 114 -1 105 -15 419 -22 471 -2 15 -46 25
-65 15 -18 -10 -19 -24 -12 -407 4 -218 9 -409 11 -426 2 -16 5 -98 5 -181 1
-140 3 -154 23 -180 28 -36 123 -126 202 -189 114 -92 146 -120 161 -143 15
-22 14 -26 -7 -48 -34 -36 -116 -75 -160 -76 -23 0 -50 7 -65 18 -15 11 -35
24 -46 30 -10 6 -29 20 -41 31 -20 18 -102 77 -176 125 -46 31 -91 17 -93 -29
0 -10 9 -65 21 -122 31 -149 29 -165 -16 -187 -52 -25 -244 -27 -268 -3 -17
17 -38 94 -55 205 -14 91 -40 163 -64 176 -24 13 -60 -5 -75 -38 -9 -20 -65
-92 -158 -202 -38 -44 -67 -44 -221 -3 -74 20 -122 44 -122 61 0 6 15 32 33
58 18 26 53 81 77 122 24 41 58 98 75 125 64 100 83 148 89 226 3 41 10 121
16 179 18 186 21 214 25 280 3 36 9 121 15 190 18 203 26 372 20 415 -4 35 -9
40 -32 43 -21 3 -30 -2 -37 -20 -10 -23 -36 -221 -46 -348 -24 -295 -19 -275
-63 -277 -38 -1 -429 -21 -587 -29 -49 -3 -115 -7 -145 -8 -30 -2 -163 -6
-295 -10 -132 -3 -258 -8 -280 -11 -22 -2 -146 -7 -275 -10 -129 -3 -245 -8
-257 -11 -18 -3 -23 0 -24 18 0 13 -2 30 -4 38 -17 79 -36 182 -39 210 -2 19
-11 82 -20 140 -29 182 -37 199 -90 186 -29 -7 -35 -27 -24 -81 4 -22 11 -58
14 -80 3 -22 9 -67 14 -100 5 -33 15 -109 24 -170 18 -129 57 -358 85 -500 11
-55 26 -133 33 -174 l13 -74 195 -79 c107 -43 263 -106 345 -139 179 -73 228
-100 244 -136 11 -25 10 -29 -11 -45 -13 -10 -40 -32 -60 -48 -20 -17 -46 -30
-57 -30 -36 0 -290 108 -351 150 -67 45 -113 52 -130 20 -17 -31 -3 -57 48
-92 187 -128 255 -200 219 -235 -21 -21 -159 -53 -230 -53 -37 0 -67 6 -85 17
-31 20 -216 187 -315 285 -38 38 -74 68 -82 68 -17 0 -32 -19 -40 -52 -6 -24
4 -38 95 -131 56 -58 113 -123 126 -145 23 -38 23 -41 6 -60 -9 -11 -33 -25
-52 -31 -45 -16 -189 -26 -226 -17 -40 10 -363 339 -533 542 -20 25 -25 47
-38 174 -7 80 -16 159 -18 175 -2 17 -7 75 -10 130 -4 55 -9 103 -12 107 -2 5
-6 36 -9 70 -2 35 -6 83 -9 108 -2 25 -7 70 -10 101 -21 220 -36 258 -87 212
-21 -19 -23 -77 -8 -248 5 -60 12 -139 14 -175 l5 -65 -39 -30 c-51 -39 -85
-67 -137 -117 l-43 -41 -1 219 c0 121 0 333 0 472 0 217 -2 254 -15 259 -8 3
-23 -2 -34 -12 -19 -17 -19 -33 -15 -507 3 -270 7 -494 11 -499 9 -16 52 -10
59 9 3 9 27 34 53 54 26 21 72 60 102 88 30 27 57 50 60 50 3 0 6 -8 7 -17 1
-10 2 -35 4 -57 2 -27 -2 -41 -14 -48 -38 -21 -147 -120 -147 -134 0 -22 -66
-17 -142 12 -36 14 -72 32 -78 40 -7 8 -20 14 -29 14 -9 0 -40 16 -68 35 -29
19 -56 35 -61 35 -5 0 -15 6 -21 14 -6 8 -31 17 -56 20 -46 7 -99 41 -89 57 3
5 8 26 10 47 2 20 6 48 9 62 5 26 11 137 20 365 5 138 -4 185 -35 185 -32 0
-48 -32 -55 -118 -6 -71 -10 -82 -23 -77 -17 6 -224 48 -349 69 -40 7 -76 9
-80 5 -5 -5 -31 22 -58 59 -115 155 -399 450 -480 497 -52 31 -85 23 -85 -22
0 -21 24 -51 108 -133 136 -134 209 -212 303 -325 76 -92 169 -220 169 -234 0
-4 11 -18 25 -31 14 -13 25 -27 25 -31 0 -4 19 -36 43 -70 65 -95 76 -113 83
-129 4 -8 17 -29 30 -46 48 -65 164 -270 164 -289 0 -11 -14 -29 -30 -41 -17
-11 -112 -100 -213 -196 -379 -363 -365 -354 -479 -344 -78 6 -141 29 -166 58
-9 11 -6 22 12 49 13 19 34 43 47 54 235 198 239 203 203 240 -10 10 -24 13
-38 9 -23 -6 -142 -95 -244 -181 -34 -29 -67 -53 -72 -53 -5 0 -17 -8 -27 -18
-45 -46 -172 -46 -310 -1 -57 19 -113 63 -113 89 0 14 85 75 216 156 67 41
125 82 128 91 9 22 -20 63 -45 63 -26 0 -215 -105 -257 -143 -10 -9 -22 -17
-25 -17 -4 0 -34 -18 -66 -40 -54 -37 -63 -40 -128 -40 -66 0 -73 2 -142 48
-65 42 -72 50 -69 77 2 21 14 37 43 57 40 28 195 108 209 108 11 0 159 72 176
86 8 7 47 29 85 49 39 20 84 45 101 56 29 18 31 18 62 -1 41 -25 182 -72 302
-100 69 -17 137 -24 246 -28 l151 -4 12 30 c15 35 8 67 -17 77 -9 4 -51 11
-92 16 -157 17 -414 70 -475 99 -11 5 -36 16 -55 24 -19 8 -55 27 -80 42 -41
24 -69 42 -165 108 -41 28 -196 197 -207 225 -4 13 -32 58 -61 100 -60 86
-120 200 -149 281 -117 335 -152 501 -153 727 l0 132 35 30 c93 78 227 117
475 137 145 12 546 -69 790 -160 52 -19 195 -94 216 -112 8 -8 19 -14 23 -14
15 0 94 -67 141 -120 137 -153 237 -313 302 -485 17 -44 23 -50 48 -50 44 0
52 24 33 97 -22 86 -77 201 -150 316 -33 54 -63 99 -67 102 -4 3 -14 15 -23
28 -8 12 -30 39 -49 60 l-34 37 0 190 0 190 -34 3 c-19 2 -37 -1 -40 -7 -4 -6
-7 -74 -6 -151 0 -148 -4 -159 -43 -117 -21 22 -160 97 -247 132 -139 57 -445
145 -505 145 -19 0 -20 9 -22 327 -2 224 0 331 8 341 6 8 24 16 40 18 184 21
463 69 477 83 18 18 -5 46 -39 46 -31 -1 -85 -9 -209 -30 -91 -16 -181 -27
-240 -29 -48 -1 -43 -30 -46 279 -2 127 -5 273 -9 325 -10 157 2 179 114 215
22 7 66 23 96 35 30 12 60 23 65 24 6 1 28 10 50 20 21 9 95 35 165 56 69 22
132 44 140 50 13 8 15 52 14 302 -1 161 -2 311 -3 333 -2 36 -4 194 -3 255 0
25 0 215 -1 326 0 33 5 70 11 81 10 17 126 83 147 83 3 0 31 11 61 25 30 14
57 25 60 25 6 0 16 4 114 48 25 10 56 23 70 27 14 4 30 11 35 16 6 4 33 15 60
24 28 9 59 20 70 25 42 18 222 80 232 80 6 0 35 11 64 24 30 14 61 23 69 21 8
-2 123 -7 255 -12z m3570 -29 c297 -3 551 -8 565 -9 14 -2 30 -4 37 -4 20 -2
29 -80 32 -271 1 -102 4 -248 5 -325 2 -77 1 -150 -1 -162 l-5 -23 -878 3
c-483 1 -881 4 -883 7 -3 3 -8 131 -11 284 -7 268 -12 361 -22 378 -10 15 -36
8 -41 -11 -3 -11 -24 -32 -46 -47 -23 -15 -159 -144 -301 -288 -143 -144 -257
-253 -253 -243 4 10 7 35 7 56 0 32 10 48 87 131 218 236 528 534 547 527 8
-3 26 -3 40 1 26 7 125 7 1121 -4z m-1316 -71 c-69 -61 -276 -262 -343 -333
-28 -30 -68 -71 -88 -90 -21 -20 -38 -41 -38 -48 0 -7 -4 -10 -10 -7 -5 3 -10
23 -10 43 0 34 12 48 184 217 194 189 199 193 285 237 76 40 81 35 20 -19z
m-243 -97 c-15 -11 -75 -67 -133 -123 -57 -57 -105 -103 -107 -103 -2 0 -4 24
-4 53 0 51 1 53 53 99 36 31 73 52 112 64 32 10 67 24 77 31 32 20 34 3 2 -21z
m346 -103 c-3 -63 -6 -71 -30 -85 -35 -21 -505 -493 -513 -516 -6 -15 -8 -15
-15 3 -4 11 -8 39 -9 63 0 42 1 43 280 326 154 157 282 283 285 281 3 -2 4
-34 2 -72z m0 -170 c0 -49 -3 -60 -23 -73 -34 -22 -285 -285 -351 -368 -10
-12 -28 -22 -41 -22 -13 0 -45 -7 -71 -16 -26 -9 -49 -15 -51 -13 -5 5 326
353 343 361 7 3 121 122 163 170 13 15 26 25 28 23 2 -3 4 -30 3 -62z m-1
-145 c7 -97 6 -98 -36 -117 -22 -10 -67 -46 -100 -80 -56 -57 -79 -70 -148
-85 -25 -6 -22 0 35 61 111 120 233 243 241 243 4 0 8 -10 8 -22z m8 -191 c1
-19 -50 -46 -104 -54 -28 -5 -26 -2 30 50 62 56 72 57 74 4z m-1798 -141 c4
-32 19 -259 24 -356 2 -56 20 -94 65 -147 98 -113 312 -135 443 -45 56 39 93
87 123 164 23 55 25 74 26 224 0 114 4 164 12 165 49 5 398 4 406 -1 13 -8 18
-173 9 -292 -7 -98 -35 -216 -55 -239 -8 -9 -12 -18 -9 -20 6 -7 -94 -119
-106 -119 -5 0 -28 -15 -52 -33 -40 -31 -117 -71 -217 -115 -25 -11 -99 -34
-165 -52 -108 -28 -138 -32 -297 -37 -132 -3 -205 0 -286 12 -112 16 -270 54
-326 79 -17 7 -51 22 -76 32 -66 27 -184 118 -237 183 -53 65 -105 167 -123
241 -7 29 -13 120 -14 204 l-1 151 140 6 c252 10 715 7 716 -5z m2244 5 l30
-6 5 -180 c5 -160 8 -185 28 -226 53 -109 180 -183 295 -173 98 10 173 41 231
98 74 72 88 119 95 321 l6 160 299 -3 c266 -3 301 -5 313 -20 9 -12 11 -52 8
-147 -5 -143 -12 -186 -44 -258 -11 -27 -21 -56 -21 -66 0 -36 -137 -201 -167
-201 -7 0 -13 -3 -13 -8 0 -8 -8 -13 -91 -53 -63 -31 -89 -42 -109 -45 -8 -2
-62 -15 -120 -29 -336 -83 -728 -6 -970 190 -66 53 -118 131 -127 192 -11 72
-17 443 -8 447 6 2 55 3 110 2 55 -1 114 1 130 5 37 9 81 9 120 0z m-3205 -30
c0 -14 -15 -22 -67 -36 -38 -10 -75 -22 -83 -26 -8 -5 -61 -24 -118 -44 -56
-19 -111 -39 -122 -45 -16 -9 -20 -8 -20 4 0 14 38 40 65 46 6 1 26 10 45 19
19 10 55 24 80 31 25 7 49 17 55 22 5 4 17 8 26 8 9 0 36 9 60 20 56 25 79 25
79 1z m2722 -33 c-5 -37 -19 -55 -136 -174 -159 -160 -276 -289 -276 -303 0
-6 -8 -11 -17 -11 -10 0 -35 -3 -57 -7 -34 -5 -38 -4 -30 10 17 30 209 241
288 316 44 42 112 106 150 143 39 38 74 68 78 68 3 0 4 -19 0 -42z m-102 2 c0
-5 -4 -10 -9 -10 -20 0 -401 -393 -454 -467 -12 -18 -28 -33 -34 -33 -15 0
-18 26 -4 34 5 3 14 27 21 53 7 30 23 59 43 78 18 17 50 51 73 75 61 68 236
233 265 252 23 14 49 23 87 27 6 0 12 -3 12 -9z m-2612 -72 c6 -230 23 -316
82 -430 22 -42 40 -79 40 -82 0 -6 -44 -13 -130 -21 -36 -3 -110 -12 -165 -20
-55 -8 -133 -17 -172 -21 l-73 -7 1 258 c0 177 3 255 10 248 12 -12 27 -8 150
38 94 36 242 88 250 89 3 0 6 -24 7 -52z m2361 -25 c-63 -58 -84 -80 -160
-163 l-41 -45 6 55 c5 52 9 59 71 118 48 48 76 67 112 77 77 21 77 18 12 -42z
m-154 -18 c-38 -31 -47 -31 -33 -1 6 14 20 27 32 28 33 6 33 -1 1 -27z m514
-35 c1 -8 -38 -56 -86 -106 -143 -149 -180 -190 -192 -213 -9 -17 -21 -21 -59
-21 l-47 0 28 24 c15 13 41 41 58 62 16 22 87 99 157 172 128 135 139 141 141
82z m1 -114 c0 -31 -6 -50 -22 -68 -143 -156 -140 -153 -185 -158 -44 -6 -56
2 -27 18 8 4 40 37 71 73 105 121 156 179 160 179 1 0 3 -20 3 -44z m20 -133
c-1 -47 -33 -88 -75 -96 -57 -11 -57 6 0 62 30 29 55 57 55 62 0 5 5 9 10 9 6
0 10 -17 10 -37z m20 -93 c0 -5 -7 -10 -16 -10 -8 0 -12 5 -9 10 3 6 10 10 16
10 5 0 9 -4 9 -10z m-3750 -1164 c0 -3 -4 -8 -10 -11 -5 -3 -10 -1 -10 4 0 6
5 11 10 11 6 0 10 -2 10 -4z m-350 -56 c0 -5 -4 -10 -10 -10 -5 0 -10 5 -10
10 0 6 5 10 10 10 6 0 10 -4 10 -10z m6555 -761 c88 -17 115 -25 185 -58 8 -4
23 -24 33 -44 17 -33 17 -47 7 -149 -23 -231 -60 -426 -120 -636 -41 -146 -62
-172 -218 -278 -40 -27 -82 -55 -93 -63 -18 -13 -19 -11 -19 52 0 65 0 66 38
88 20 13 39 25 42 28 3 4 12 11 21 16 65 41 129 87 134 96 4 6 3 15 -2 20 -9
9 -138 -63 -202 -113 -14 -10 -27 -14 -30 -9 -3 5 -4 38 -1 74 l5 65 78 52
c74 50 87 63 69 74 -8 5 -114 -45 -138 -65 -9 -7 -12 11 -11 66 0 72 2 76 31
98 17 13 39 26 49 30 19 7 23 32 7 42 -6 4 -27 -3 -46 -14 -19 -12 -36 -21
-37 -21 -5 0 -5 665 0 673 7 11 82 3 218 -24z m-795 -559 c0 -5 -4 -10 -10
-10 -5 0 -10 5 -10 10 0 6 5 10 10 10 6 0 10 -4 10 -10z m800 -584 c0 -11 -58
-115 -71 -128 -12 -12 -123 -91 -157 -112 -10 -6 -12 3 -10 44 l3 51 65 41
c36 23 85 56 109 75 40 30 61 40 61 29z m-104 -223 c-20 -26 -51 -68 -69 -93
-45 -61 -67 -65 -67 -11 0 39 2 42 52 69 29 15 66 41 83 59 43 46 43 32 1 -24z
m-5716 -118 c30 -8 103 -22 163 -32 100 -16 107 -19 107 -41 0 -28 -28 -85
-38 -78 -5 3 -26 7 -48 10 -21 3 -77 15 -124 26 -47 12 -93 22 -103 24 -20 3
-76 64 -77 84 0 6 -4 12 -10 12 -5 0 -10 5 -10 11 0 12 48 6 140 -16z m785 15
c3 -5 1 -10 -4 -10 -6 0 -11 5 -11 10 0 6 2 10 4 10 3 0 8 -4 11 -10z m-940
-50 c3 -5 1 -10 -4 -10 -6 0 -11 5 -11 10 0 6 2 10 4 10 3 0 8 -4 11 -10z
m5985 -46 c41 -9 93 -20 115 -25 159 -33 348 -90 465 -141 25 -11 54 -23 65
-28 76 -31 292 -140 348 -176 37 -24 71 -44 75 -44 12 0 155 -131 182 -166
105 -139 138 -204 147 -294 9 -93 3 -155 -22 -233 -29 -90 -89 -205 -99 -189
-17 27 -219 105 -305 118 -20 3 -43 7 -51 10 -44 16 -349 70 -446 79 -59 6
-72 5 -77 -8 -13 -33 16 -45 163 -67 80 -12 179 -30 222 -41 42 -10 87 -19 99
-19 12 0 36 -4 53 -10 17 -5 72 -21 121 -36 96 -28 185 -71 185 -88 0 -23
-193 -196 -291 -261 -144 -96 -437 -241 -619 -308 -52 -19 -104 -38 -115 -43
-27 -10 -169 -50 -285 -80 -52 -13 -103 -27 -112 -30 -13 -4 -18 0 -18 15 0
24 -58 64 -198 138 -48 25 -115 63 -149 84 -34 22 -68 39 -76 39 -7 0 -17 4
-22 9 -23 20 -190 102 -308 151 -117 48 -130 51 -145 37 -13 -13 -13 -19 -2
-32 13 -15 22 -20 140 -70 60 -25 327 -161 410 -208 19 -11 62 -35 95 -53 34
-18 87 -49 120 -69 32 -19 63 -35 68 -35 5 0 6 -13 2 -28 -10 -47 8 -53 105
-35 47 8 94 16 105 18 11 2 52 13 90 25 39 12 107 33 153 46 45 14 106 35 135
48 28 13 79 34 112 46 33 13 88 36 122 52 34 15 66 28 70 28 13 0 246 120 264
136 8 8 19 14 22 14 15 0 116 67 183 122 40 31 99 87 133 124 l61 67 0 -46 c0
-104 -42 -212 -92 -238 -13 -6 -39 -26 -58 -44 -19 -17 -57 -47 -85 -66 -27
-18 -61 -43 -75 -55 -36 -30 -214 -131 -395 -223 -82 -42 -170 -81 -265 -116
-19 -7 -62 -24 -95 -38 -33 -14 -76 -30 -95 -35 -19 -6 -73 -24 -120 -42 -93
-35 -183 -60 -330 -91 -232 -50 -253 -50 -297 -9 -18 17 -36 30 -41 30 -5 0
-66 39 -137 86 -70 47 -135 89 -144 92 -9 3 -22 12 -29 19 -19 18 -99 73 -107
73 -10 0 -127 72 -148 91 -9 9 -30 22 -45 30 -15 7 -43 26 -63 41 -20 15 -39
28 -43 28 -8 0 -192 116 -390 246 -16 10 -36 24 -45 29 -8 6 -55 36 -103 68
-48 31 -89 57 -91 57 -3 0 -58 36 -123 80 -363 245 -356 241 -385 214 -24 -22
-24 -47 0 -93 10 -20 31 -61 46 -91 97 -191 148 -288 203 -382 34 -59 62 -110
62 -113 0 -4 8 -19 19 -33 10 -15 39 -65 63 -112 25 -47 69 -129 98 -183 28
-54 50 -101 47 -103 -3 -3 -47 -7 -99 -9 -51 -2 -142 -9 -203 -14 -184 -17
-285 -21 -687 -27 -362 -5 -416 -2 -380 20 8 5 8 130 -2 335 -5 100 -21 136
-49 113 -10 -9 -12 -53 -9 -224 2 -117 8 -217 13 -222 5 -6 9 -13 9 -18 0 -13
-677 15 -890 37 -25 2 -74 7 -110 10 -36 4 -92 10 -125 15 -33 5 -98 12 -145
15 -47 4 -170 17 -275 31 -104 13 -208 26 -230 28 -53 7 -105 14 -190 27 -38
6 -97 15 -130 19 -62 9 -71 11 -165 29 -30 6 -80 15 -110 20 -30 5 -84 17
-120 26 -36 9 -112 27 -170 40 -58 13 -125 28 -150 35 -25 6 -57 14 -72 17
-16 3 -28 9 -28 13 0 17 112 93 310 211 105 62 193 109 335 178 258 125 270
131 279 131 8 0 27 8 128 54 31 14 62 26 68 26 6 0 36 11 66 25 55 25 66 43
39 65 -17 14 -36 8 -195 -60 -36 -16 -101 -42 -145 -60 -104 -40 -91 -34 -305
-139 -192 -95 -208 -103 -351 -188 -207 -123 -309 -199 -294 -222 8 -14 9 -14
-67 5 -160 39 -404 119 -598 194 -88 35 -244 101 -255 108 -5 5 -37 18 -70 31
-33 13 -67 30 -76 37 -8 8 -19 14 -22 14 -5 0 -93 50 -154 88 -63 39 -292 238
-282 246 37 27 77 48 137 71 85 33 99 46 77 69 -9 9 -20 15 -23 12 -4 -2 -34
-11 -67 -22 -33 -10 -84 -30 -114 -46 -65 -33 -69 -31 -112 59 -39 82 -53 210
-31 288 8 28 17 52 21 55 3 3 17 26 30 51 51 103 227 241 431 340 168 82 155
76 285 124 55 20 110 41 123 46 13 5 32 9 42 9 26 0 122 -69 114 -81 -3 -6
-90 -51 -192 -100 -259 -125 -290 -142 -312 -161 -11 -10 -23 -18 -28 -18 -17
0 -81 -77 -97 -117 -24 -59 -8 -99 63 -164 81 -74 127 -92 239 -93 78 -1 93
-4 93 -17 0 -28 58 -97 104 -124 93 -54 287 -85 393 -61 28 6 33 4 49 -24 26
-43 81 -76 166 -100 85 -23 138 -25 200 -6 63 18 104 49 240 177 108 101 126
114 191 136 40 13 92 28 117 33 25 4 83 21 130 37 47 17 119 40 160 53 41 13
91 29 111 36 20 7 39 10 43 7 3 -3 11 -1 18 4 7 6 20 11 28 11 8 1 45 9 83 18
64 15 117 13 117 -5 0 -5 -21 -14 -47 -20 -27 -7 -55 -16 -63 -20 -9 -5 -31
-12 -50 -16 -45 -9 -216 -63 -255 -80 -16 -7 -74 -28 -127 -46 -76 -25 -98
-37 -98 -51 0 -19 20 -24 36 -8 5 5 38 17 74 26 36 9 70 20 75 24 6 4 33 15
60 24 28 8 96 31 153 51 57 19 110 35 118 35 8 0 22 4 32 9 9 5 58 19 107 31
50 12 115 28 145 36 30 7 72 14 93 14 57 0 42 -23 -24 -36 -56 -12 -268 -77
-444 -137 -66 -23 -101 -40 -103 -51 -5 -23 23 -21 94 7 32 13 82 29 109 36
28 7 60 17 73 22 12 5 32 13 45 18 40 17 165 51 184 51 11 0 23 3 27 7 3 4 22
12 40 18 31 11 35 10 40 -8 7 -27 -1 -37 -28 -37 -13 0 -45 -8 -72 -19 -27
-10 -80 -29 -119 -41 -87 -27 -137 -51 -143 -67 -6 -19 30 -16 90 8 29 12 82
30 118 41 36 10 87 26 114 34 l50 15 23 -28 c12 -16 21 -32 19 -38 -1 -5 -43
-23 -92 -40 -49 -17 -98 -34 -109 -39 -11 -5 -29 -11 -39 -13 -27 -5 -79 -36
-83 -49 -8 -24 26 -21 83 7 32 16 63 29 69 29 5 0 51 16 101 36 l93 36 250
-251 c166 -166 262 -255 287 -266 66 -27 259 -23 289 6 5 5 21 9 37 9 38 0
108 67 108 104 l0 28 35 -31 c81 -71 144 -85 275 -61 75 13 177 60 212 97 18
19 23 35 22 75 0 46 1 49 20 43 51 -15 103 -16 137 -3 52 22 175 133 188 170
14 39 14 105 1 113 -22 13 -6 23 78 49 48 15 110 36 137 46 28 10 59 20 70 23
19 5 148 50 335 115 47 16 114 39 150 50 36 11 74 24 85 28 19 7 19 6 2 -12
-9 -10 -25 -29 -35 -41 -11 -14 -59 -35 -142 -61 -69 -22 -165 -56 -214 -76
-49 -20 -95 -36 -102 -36 -30 0 -124 -54 -124 -72 0 -19 25 -25 35 -8 3 6 13
10 20 10 8 0 43 13 78 29 35 16 86 36 113 44 27 9 102 34 166 56 64 23 119 41
122 41 3 0 -5 -15 -17 -34 -12 -18 -25 -32 -29 -29 -4 2 -18 -3 -30 -11 -13
-8 -45 -21 -73 -29 -82 -24 -125 -45 -125 -61 0 -9 6 -16 13 -16 22 0 141 41
165 56 22 14 30 7 13 -11 -4 -6 -13 -31 -19 -56 -25 -101 21 -147 195 -194
156 -43 232 -42 295 4 24 17 63 58 87 91 24 33 47 60 52 60 8 0 14 -16 24 -70
28 -148 75 -223 149 -240 48 -11 207 -5 278 9 41 9 63 21 89 47 l34 35 0 108
0 108 47 -36 c157 -120 232 -135 358 -74 166 80 205 152 139 254 -30 47 -87
105 -125 128 -32 18 2 30 81 30 61 -1 93 -10 245 -66 240 -89 378 -112 482
-81 74 22 140 123 142 216 0 23 5 32 17 32 9 0 34 7 55 16 188 77 146 291 -72
367 -74 26 -100 35 -221 71 -27 8 -88 28 -138 45 -49 16 -117 37 -150 46 -33
9 -66 18 -73 21 -9 3 -3 16 19 44 21 25 38 38 48 35 9 -2 50 -12 91 -21z
m-5707 -96 l118 -23 -3 -35 c-3 -32 -5 -35 -33 -33 -67 5 -149 14 -156 19 -5
2 -22 25 -38 50 -32 47 -41 75 -18 56 6 -6 65 -21 130 -34z m3797 12 c0 -5 -4
-10 -9 -10 -13 0 -251 -191 -384 -307 l-105 -93 -74 0 -73 0 27 23 c14 12 111
91 215 176 103 85 199 167 213 182 26 28 37 31 158 37 17 1 32 -2 32 -8z m76
-37 c-3 -25 -7 -47 -9 -48 -35 -25 -199 -157 -217 -176 -14 -14 -47 -43 -75
-65 -27 -21 -52 -41 -55 -44 -25 -25 -50 -34 -97 -37 l-56 -3 69 63 c38 35
103 91 144 125 41 33 82 67 90 74 35 30 98 78 103 78 5 0 62 47 81 67 21 23
29 13 22 -34z m-348 -14 c-35 -28 -70 -55 -78 -62 -8 -7 -35 -28 -60 -47 -25
-19 -96 -79 -159 -134 -122 -105 -158 -126 -218 -126 l-38 1 65 62 c36 34 136
124 222 199 86 76 159 142 162 146 3 5 41 9 86 9 l81 1 -63 -49z m-188 10
c-19 -17 -57 -49 -85 -71 -59 -48 -184 -158 -275 -244 l-65 -62 -72 -4 c-40
-2 -73 -1 -73 3 0 4 12 15 28 25 15 10 61 49 102 88 89 84 167 152 270 235 75
60 75 60 140 60 l65 0 -35 -30z m-350 16 c0 -2 -28 -28 -62 -56 -90 -74 -186
-160 -297 -266 -83 -81 -101 -93 -131 -93 -19 0 -53 -3 -75 -6 -22 -3 -35 -2
-28 3 6 4 64 58 130 119 98 93 218 199 307 273 10 9 46 19 80 22 33 3 64 7 69
7 4 1 7 0 7 -3z m151 -23 c-19 -15 -58 -47 -86 -72 -28 -25 -76 -65 -105 -90
-88 -74 -214 -191 -223 -206 -6 -10 -27 -14 -70 -14 l-62 1 25 20 c14 11 59
53 100 92 41 40 88 82 103 94 16 12 48 40 72 62 24 23 48 41 54 41 5 0 14 6
18 14 4 8 28 30 53 50 39 30 52 35 100 35 l55 1 -34 -28z m-383 9 c24 -2 11
-20 -56 -74 -38 -30 -116 -100 -173 -154 -187 -178 -190 -180 -241 -188 -26
-4 -55 -4 -64 -1 -14 5 -12 11 12 33 45 43 115 104 173 153 30 25 64 54 76 65
13 11 53 47 90 80 38 33 73 65 79 71 16 16 38 22 66 18 14 -1 31 -3 38 -3z
m-518 -20 c0 -7 -82 -71 -130 -102 -14 -9 -35 -26 -47 -38 -31 -29 -40 -27
-47 14 -6 30 -3 39 23 62 63 60 83 72 119 75 44 4 82 -2 82 -11z m195 2 c-11
-10 -47 -40 -80 -68 -134 -111 -285 -250 -285 -262 0 -7 -4 -13 -10 -13 -5 0
-10 18 -10 41 0 22 -5 50 -12 62 -10 19 -7 24 17 42 45 32 209 168 220 182 16
19 51 29 118 31 60 3 61 2 42 -15z m159 -4 c-10 -12 -36 -34 -57 -50 -97 -71
-357 -316 -357 -336 0 -7 -6 -13 -12 -14 -7 0 -30 -2 -50 -5 -30 -4 -38 -1
-43 15 -6 20 49 78 170 178 33 27 67 58 75 67 8 10 40 38 71 62 32 24 71 57
87 74 26 26 38 30 83 30 l52 0 -19 -21z m-561 -10 c-22 -22 -43 -19 -43 7 0 9
11 14 32 14 l32 0 -21 -21z m3472 1 c10 -7 83 -31 140 -45 17 -5 35 -9 40 -11
24 -7 84 -29 125 -47 46 -20 109 -40 265 -84 70 -19 97 -32 123 -58 31 -32 33
-36 20 -61 -41 -84 -174 -96 -323 -29 -16 8 -59 25 -95 40 -36 14 -76 32 -90
39 -14 8 -42 17 -62 21 -34 7 -39 5 -48 -19 -5 -14 -7 -33 -4 -41 6 -14 133
-79 219 -112 22 -8 49 -19 60 -23 11 -4 45 -18 76 -30 96 -36 108 -118 23
-150 -45 -18 -171 -13 -244 9 -74 22 -235 77 -265 91 -11 5 -45 18 -75 28
-182 66 -233 92 -180 92 43 0 104 27 146 63 64 56 91 144 93 309 1 32 3 36 24
31 12 -3 27 -9 32 -13z m-181 -96 c-6 -51 -11 -62 -59 -110 l-54 -53 -75 -4
c-88 -6 -89 -1 -9 63 31 25 87 71 125 103 38 31 72 57 74 57 3 0 2 -25 -2 -56z
m-5344 26 c0 -5 -4 -10 -10 -10 -5 0 -10 5 -10 10 0 6 5 10 10 10 6 0 10 -4
10 -10z m95 -14 c21 -3 31 -33 17 -53 -9 -15 -78 0 -101 22 -24 23 -6 47 31
40 18 -3 42 -7 53 -9z m3773 -48 c-8 -49 -15 -60 -46 -82 -52 -35 -102 -82
-102 -94 0 -13 -72 -25 -120 -20 l-35 3 42 30 c23 17 78 64 123 105 80 73 141
122 146 117 1 -1 -2 -28 -8 -59z m-3774 -56 c3 -5 1 -22 -4 -38 -6 -23 -8 -24
-9 -8 -1 12 -8 24 -16 28 -8 3 -15 10 -15 16 0 12 37 14 44 2z m3766 -92 c0
-36 -12 -42 -70 -38 l-43 3 49 32 c27 18 52 33 57 33 4 0 7 -14 7 -30z m-2904
-176 c-1 -1 -32 -4 -70 -7 -38 -3 -65 -2 -60 2 5 5 34 30 64 57 l55 48 6 -50
c3 -27 6 -50 5 -50z m-682 29 c3 -4 -15 -12 -41 -19 -54 -14 -56 -13 -47 10 6
16 73 24 88 9z m3526 -22 c0 -5 -28 -18 -62 -29 -55 -17 -309 -106 -468 -163
-30 -11 -84 -29 -120 -41 -36 -11 -69 -23 -75 -27 -5 -4 -37 -14 -70 -21 -33
-7 -64 -17 -70 -21 -23 -16 -71 -18 -89 -4 -11 8 -18 16 -15 19 2 2 45 16 94
31 50 15 95 31 100 35 6 4 57 22 115 40 58 18 110 36 115 40 6 3 57 21 115 39
58 18 143 46 190 63 47 17 119 34 160 38 41 4 76 8 78 9 1 0 2 -3 2 -8z m1423
-70 c32 -9 55 -19 52 -22 -3 -4 -38 -5 -77 -3 -64 3 -75 7 -103 34 -17 16 -36
30 -42 30 -6 0 -13 7 -17 15 -4 11 11 8 62 -11 37 -14 93 -34 125 -43z m-4863
49 c16 -10 20 -8 -55 -29 -91 -25 -167 -42 -172 -38 -2 3 8 14 24 24 29 21 66
33 117 39 16 3 32 6 34 9 8 8 36 5 52 -5z m3136 2 c-3 -5 -27 -13 -53 -17 -27
-4 -52 -10 -58 -15 -5 -4 -32 -15 -60 -23 -27 -9 -70 -24 -95 -33 -25 -9 -135
-47 -244 -85 -199 -68 -200 -68 -233 -51 l-33 17 78 23 c42 12 104 32 137 43
33 12 94 32 135 46 41 13 109 37 150 52 41 16 93 33 115 37 59 14 168 17 161
6z m-326 -11 c0 -3 -69 -28 -153 -55 -83 -27 -166 -55 -184 -63 -17 -7 -37
-13 -45 -13 -7 0 -40 -9 -72 -19 -46 -14 -65 -16 -88 -7 -38 14 -35 22 10 31
20 4 51 13 67 20 68 30 288 96 360 108 34 5 105 4 105 -2z m-325 -21 c-3 -5
-17 -10 -30 -10 -14 0 -71 -15 -127 -34 -124 -42 -188 -52 -218 -36 -28 15
-25 17 46 35 32 9 66 18 74 22 8 3 22 7 30 9 113 23 235 31 225 14z m-2396
-14 c27 -15 18 -24 -30 -30 -19 -2 -45 -9 -59 -14 -34 -15 -118 -38 -225 -63
-49 -11 -98 -25 -108 -31 -19 -10 -19 -9 -1 15 22 28 42 37 149 64 44 11 116
32 160 46 95 31 85 29 114 13z m2066 -7 c-4 -5 -12 -8 -18 -6 -7 2 -25 -2 -41
-10 -24 -13 -36 -13 -70 -3 -34 11 -38 14 -21 20 33 12 157 11 150 -1z m-1960
-54 c0 -5 -37 -19 -82 -30 -46 -12 -86 -24 -90 -28 -3 -4 -14 -7 -23 -7 -10 0
-75 -18 -146 -41 -71 -22 -167 -52 -214 -66 -47 -14 -95 -29 -107 -34 -35 -13
-28 4 17 41 29 24 63 39 127 56 49 12 135 34 193 49 58 14 112 29 120 32 8 3
26 8 40 10 14 2 45 10 70 18 49 15 95 16 95 0z m5635 -385 c0 -5 -5 -10 -11
-10 -5 0 -7 5 -4 10 3 6 8 10 11 10 2 0 4 -4 4 -10z m60 -10 c0 -5 -2 -10 -4
-10 -3 0 -8 5 -11 10 -3 6 -1 10 4 10 6 0 11 -4 11 -10z m-8531 -95 c18 -40
18 -48 5 -72 -7 -16 -14 -36 -14 -45 0 -9 -4 -19 -8 -22 -5 -3 -10 36 -10 85
-1 50 -5 96 -9 102 -3 6 -1 7 5 3 6 -4 20 -27 31 -51z m9411 -61 c0 -8 -4 -34
-9 -57 -6 -23 -12 -55 -16 -70 -7 -36 -21 -27 -28 19 -4 26 0 48 16 80 23 45
37 56 37 28z m-9176 -199 c61 -50 183 -132 261 -175 33 -18 65 -36 70 -40 6
-4 21 -11 33 -15 13 -4 67 -27 120 -52 133 -63 223 -100 312 -129 41 -13 83
-29 92 -34 23 -13 96 -37 298 -100 210 -64 210 -64 365 -100 72 -17 144 -35
160 -41 17 -6 59 -16 95 -23 36 -7 112 -22 170 -33 58 -12 141 -26 185 -33 44
-6 105 -18 135 -25 30 -8 78 -16 105 -19 28 -3 88 -10 135 -16 136 -17 206
-25 320 -35 36 -3 88 -10 115 -15 28 -5 113 -14 190 -20 77 -6 167 -15 200
-20 51 -8 175 -16 540 -35 491 -26 1179 -24 1520 5 61 5 148 12 195 15 107 7
170 14 191 20 15 5 17 -6 15 -108 -2 -63 -6 -119 -9 -124 -4 -6 -35 -14 -69
-18 -35 -4 -72 -9 -83 -11 -43 -7 -298 -24 -460 -31 -338 -15 -1424 -6 -1454
11 -3 2 -67 7 -141 11 -74 3 -144 8 -155 11 -11 2 -60 6 -110 8 -118 6 -336
26 -485 45 -41 5 -77 9 -80 9 -3 -1 -16 2 -30 6 -25 7 -41 9 -165 21 -63 6
-111 12 -215 30 -19 4 -73 13 -120 20 -128 21 -304 52 -410 74 -52 10 -113 22
-135 26 -22 3 -53 10 -70 15 -16 5 -66 16 -110 25 -44 10 -98 23 -120 31 -22
7 -100 29 -174 49 -211 57 -592 188 -669 229 -15 8 -72 36 -126 62 -54 26
-114 58 -133 71 -19 13 -37 23 -42 23 -4 0 -16 9 -26 20 -10 11 -24 20 -31 20
-8 0 -35 16 -61 35 -27 19 -74 54 -106 77 -80 59 -200 182 -214 221 -15 40
-17 172 -2 198 10 19 14 17 73 -38 34 -32 83 -76 110 -98z m5406 19 c0 -8 -4
-12 -10 -9 -5 3 -10 10 -10 16 0 5 5 9 10 9 6 0 10 -7 10 -16z m3730 -4 c0 -5
-4 -10 -10 -10 -5 0 -10 5 -10 10 0 6 5 10 10 10 6 0 10 -4 10 -10z m-240 -80
c0 -5 -5 -10 -11 -10 -5 0 -7 5 -4 10 3 6 8 10 11 10 2 0 4 -4 4 -10z m-2065
-130 c3 -5 1 -10 -4 -10 -6 0 -11 5 -11 10 0 6 2 10 4 10 3 0 8 -4 11 -10z
m290 -140 c3 -5 1 -10 -4 -10 -6 0 -11 5 -11 10 0 6 2 10 4 10 3 0 8 -4 11
-10z m55 -40 c0 -5 -2 -10 -4 -10 -3 0 -8 5 -11 10 -3 6 -1 10 4 10 6 0 11 -4
11 -10z m-2760 -271 c0 -5 -4 -9 -10 -9 -5 0 -10 7 -10 16 0 8 5 12 10 9 6 -3
10 -10 10 -16z m0 -39 c0 -5 -4 -10 -10 -10 -5 0 -10 5 -10 10 0 6 5 10 10 10
6 0 10 -4 10 -10z m1110 -230 c0 -5 -7 -10 -16 -10 -8 0 -12 5 -9 10 3 6 10
10 16 10 5 0 9 -4 9 -10z m-130 -10 c0 -5 -5 -10 -11 -10 -5 0 -7 5 -4 10 3 6
8 10 11 10 2 0 4 -4 4 -10z m-756 -18 c3 -5 -1 -9 -9 -9 -8 0 -15 4 -15 9 0 4
4 8 9 8 6 0 12 -4 15 -8z m333 -8 c-3 -3 -12 -4 -19 -1 -8 3 -5 6 6 6 11 1 17
-2 13 -5z"/>
<path d="M3248 8919 c-16 -9 -18 -34 -17 -283 0 -217 3 -278 14 -292 11 -15
18 -17 32 -8 21 13 21 3 24 322 3 214 1 255 -11 262 -18 12 -21 12 -42 -1z"/>
<path d="M3351 7116 c-9 -11 -10 -148 -6 -548 4 -293 7 -776 8 -1073 1 -297 6
-546 10 -552 5 -7 14 -13 20 -13 7 0 13 -12 12 -27 l0 -28 350 2 c319 3 475 3
515 2 76 -3 161 6 171 17 14 17 -5 54 -29 55 -23 2 -609 -1 -815 -4 l-168 -3
2 51 c1 27 -1 383 -5 790 -12 1317 -12 1326 -27 1336 -19 12 -25 11 -38 -5z
m26 -488 c-3 -8 -6 -5 -6 6 -1 11 2 17 5 13 3 -3 4 -12 1 -19z m8 -128 c3 -5
1 -10 -4 -10 -6 0 -11 5 -11 10 0 6 2 10 4 10 3 0 8 -4 11 -10z m15 -1505 c0
-8 -4 -15 -10 -15 -5 0 -10 7 -10 15 0 8 5 15 10 15 6 0 10 -7 10 -15z"/>
<path d="M5718 6385 c-1 -1 -64 -6 -138 -10 -74 -3 -171 -10 -215 -15 -44 -5
-127 -11 -185 -15 -58 -3 -154 -12 -215 -20 -60 -7 -150 -19 -200 -25 -111
-14 -363 -71 -470 -107 -44 -15 -109 -42 -145 -60 -36 -18 -69 -33 -73 -33
-12 0 -167 -100 -201 -130 -93 -80 -106 -109 -66 -145 26 -24 56 -14 105 33
44 42 120 102 128 102 4 0 30 14 59 31 125 74 264 125 433 159 50 10 100 21
113 24 29 7 231 34 302 41 153 15 292 27 350 30 36 2 90 7 120 10 53 6 114 10
280 20 98 6 603 6 750 1 137 -6 323 -16 365 -21 17 -2 59 -6 95 -9 36 -4 99
-11 140 -16 41 -6 93 -12 115 -15 22 -3 64 -11 93 -19 28 -8 52 -12 52 -9 0 3
6 1 13 -5 6 -5 28 -13 47 -17 19 -4 46 -12 60 -18 14 -5 45 -17 70 -26 61 -22
183 -104 219 -147 31 -38 65 -43 84 -13 45 71 -151 230 -357 290 -112 33 -266
68 -326 74 -30 3 -66 8 -80 11 -42 8 -90 12 -235 24 -77 6 -165 13 -195 15
-63 6 -886 15 -892 10z"/>
<path d="M268 1994 c-12 -25 -9 -29 37 -72 183 -166 315 -259 501 -352 60 -30
111 -58 114 -61 3 -3 18 -9 34 -13 15 -4 47 -15 70 -26 101 -46 383 -130 435
-130 33 0 54 20 45 43 -7 19 -16 22 -129 52 -49 13 -135 40 -190 60 -55 20
-111 40 -125 45 -14 4 -43 17 -65 28 -22 11 -87 42 -145 70 -115 55 -285 159
-339 207 -19 16 -70 63 -113 103 -44 39 -88 72 -99 72 -11 0 -24 -11 -31 -26z
m64 -34 c12 -11 17 -20 11 -20 -5 0 -18 9 -28 20 -10 11 -15 20 -11 20 4 0 16
-9 28 -20z m178 -162 c0 -12 -6 -9 -26 13 -19 22 -19 22 4 8 12 -8 22 -17 22
-21z"/>
<path d="M9204 1562 c-108 -73 -279 -158 -449 -224 -235 -91 -599 -173 -852
-193 -63 -5 -86 -11 -99 -27 -14 -15 -16 -23 -7 -36 9 -14 24 -16 74 -15 71 3
387 49 434 63 17 5 82 21 145 36 63 15 120 30 125 34 6 4 33 12 60 19 28 7 73
21 100 31 28 11 82 31 120 46 64 24 109 45 265 125 30 15 84 47 120 71 51 34
65 49 65 68 0 37 -48 38 -101 2z"/>
</g>
</svg>
