<?xml version="1.0" encoding="UTF-8" standalone="yes"?>
<svg version="1.0" xmlns="http://www.w3.org/2000/svg" width="1024.000000pt" height="1024.000000pt" viewBox="0 0 1024.000000 1024.000000" preserveAspectRatio="xMidYMid meet">
  <metadata>
Created by potrace 1.16, written by Peter Selinger 2001-2019
</metadata>
  <g transform="translate(0.000000,1024.000000) scale(0.100000,-0.100000)" fill="#000000" stroke="none">
    <path d="M7344 9747 c-22 -13 -81 -54 -130 -90 -49 -37 -95 -67 -101 -67 -7 0&#xA;-13 -4 -13 -10 0 -5 -10 -14 -21 -21 -14 -7 -19 -7 -15 0 4 5 0 26 -8 45 -17&#xA;41 -40 49 -186 65 -52 6 -151 18 -219 27 -200 26 -272 14 -344 -57 -7 -8 -27&#xA;-23 -43 -34 -60 -41 -134 -125 -135 -153 -2 -76 2 -294 7 -342 8 -87 13 -85&#xA;-188 -70 -95 7 -188 12 -207 11 -54 -3 -89 -35 -127 -120 -36 -78 -55 -115&#xA;-119 -236 -73 -136 -136 -268 -142 -296 -9 -46 23 -97 119 -190 l88 -86 -27&#xA;-74 c-15 -41 -28 -76 -29 -78 -5 -6 -74 40 -74 50 0 5 -6 9 -12 9 -7 0 -35 11&#xA;-62 25 -65 33 -108 40 -141 23 -23 -11 -67 -75 -101 -148 -4 -8 -20 -33 -34&#xA;-55 -15 -22 -39 -67 -54 -100 -14 -33 -35 -76 -46 -95 -11 -19 -34 -64 -52&#xA;-100 -17 -36 -34 -67 -38 -70 -21 -16 -60 -115 -60 -151 0 -45 0 -45 128 -157&#xA;40 -35 72 -71 72 -80 -1 -40 -13 -44 -172 -52 -144 -7 -198 -19 -198 -42 0 -4&#xA;-4 -17 -9 -30 -5 -13 -10 -27 -12 -33 -2 -5 -46 -93 -97 -195 -105 -207 -122&#xA;-252 -122 -326 l0 -50 115 -114 c63 -62 115 -115 115 -118 0 -8 -60 -164 -70&#xA;-182 -4 -8 -14 -13 -22 -11 -7 1 -26 5 -43 7 -16 2 -77 13 -135 24 -58 12&#xA;-132 25 -165 30 -33 5 -84 13 -114 19 -29 6 -56 9 -60 6 -4 -2 -35 2 -70 10&#xA;-118 28 -313 28 -451 1 -34 -7 -153 -26 -162 -26 -19 0 -133 213 -180 335 -17&#xA;44 -37 89 -44 100 -8 11 -14 25 -14 32 0 7 -20 56 -45 107 -25 52 -45 100 -45&#xA;106 0 14 -89 100 -103 100 -9 0 -93 40 -147 69 -8 5 -42 21 -75 36 -156 72&#xA;-199 78 -355 46 -52 -11 -144 -29 -205 -40 -60 -10 -141 -25 -180 -32 -38 -7&#xA;-87 -23 -107 -36 -64 -39 -173 -153 -391 -407 l-48 -56 -73 0 c-40 0 -76 3&#xA;-80 7 -3 4 -17 8 -29 10 -82 12 -197 35 -227 44 -19 6 -51 14 -70 19 -19 4&#xA;-62 15 -95 24 -107 30 -161 31 -198 6 -19 -13 -39 -39 -46 -59 -35 -98 -91&#xA;-289 -96 -325 -17 -123 -17 -119 12 -153 18 -20 54 -41 103 -59 41 -15 105&#xA;-42 142 -59 l68 -31 -50 -101 c-28 -56 -50 -115 -50 -130 0 -31 2 -32 160&#xA;-116 52 -28 104 -56 115 -64 11 -7 27 -13 37 -13 10 0 18 -4 18 -9 0 -24 277&#xA;-147 393 -174 48 -11 61 -10 202 26 33 8 86 21 118 28 32 7 60 16 63 20 2 4&#xA;26 11 52 14 53 8 113 44 132 80 7 14 17 25 21 25 5 0 16 14 24 30 9 17 28 43&#xA;43 58 16 15 61 69 101 120 40 50 76 92 80 92 3 0 17 18 31 40 27 44 38 51 69&#xA;43 26 -7 27 -32 6 -158 -22 -133 -24 -143 -45 -230 -30 -123 -41 -172 -61&#xA;-275 -10 -52 -24 -126 -32 -165 -8 -38 -22 -110 -31 -160 -9 -49 -26 -130 -36&#xA;-180 -11 -49 -24 -124 -30 -165 -7 -41 -16 -94 -21 -117 -5 -23 -9 -55 -9 -70&#xA;0 -32 14 -26 -185 -70 -83 -18 -120 -36 -160 -77 -25 -26 -75 -111 -75 -128 0&#xA;-9 -151 -283 -165 -298 -8 -9 -15 -21 -15 -26 -1 -16 -34 -49 -65 -66 -16 -9&#xA;-75 -26 -130 -38 -55 -12 -113 -26 -130 -31 -16 -5 -94 -23 -173 -41 -108 -24&#xA;-150 -38 -172 -58 -35 -29 -37 -37 -27 -155 4 -49 12 -155 18 -235 17 -242 49&#xA;-481 70 -525 30 -64 88 -77 256 -55 43 6 114 15 158 20 500 59 508 60 650 90&#xA;122 26 143 42 234 175 19 28 41 57 50 67 9 9 41 48 71 88 30 39 68 85 83 103&#xA;15 18 53 75 85 128 56 95 57 96 107 106 28 6 73 16 100 23 28 6 65 13 84 16&#xA;19 3 40 9 45 14 6 4 38 15 71 23 55 14 125 38 233 83 23 9 45 15 48 12 3 -4&#xA;-6 -30 -19 -60 -13 -29 -28 -64 -32 -78 -4 -14 -20 -44 -36 -68 -16 -24 -29&#xA;-46 -29 -51 0 -19 -96 -81 -126 -81 -4 0 -34 -13 -68 -29 -34 -15 -74 -31 -91&#xA;-35 -56 -13 -135 -58 -157 -89 -19 -26 -21 -42 -20 -121 2 -93 26 -304 42&#xA;-366 5 -19 16 -71 25 -115 32 -163 61 -232 106 -247 15 -6 205 6 244 15 12 3&#xA;48 8 80 12 71 9 155 29 187 46 13 6 51 41 84 78 49 53 82 77 165 120 57 30&#xA;122 64 145 75 61 32 144 95 151 114 3 9 24 62 45 117 22 55 55 143 73 195 36&#xA;103 77 207 100 255 8 17 34 82 59 145 24 63 51 119 60 125 11 6 26 5 48 -4 18&#xA;-7 76 -28 128 -47 52 -19 104 -39 115 -44 11 -5 61 -22 110 -39 181 -58 195&#xA;-68 209 -146 9 -48 53 -208 68 -248 12 -30 66 -62 173 -102 126 -47 180 -69&#xA;185 -76 3 -3 16 -10 30 -14 14 -4 27 -11 30 -15 5 -7 200 -102 245 -120 55&#xA;-21 96 -31 105 -25 5 3 10 2 10 -3 0 -6 10 -12 23 -16 23 -5 23 -8 14 -58 -5&#xA;-29 -14 -69 -18 -89 l-9 -36 -173 -43 c-273 -67 -361 -111 -356 -175 2 -17 1&#xA;-35 -3 -40 -5 -10 -10 -299 -8 -602 0 -139 4 -180 17 -208 9 -19 20 -32 25&#xA;-29 4 3 8 1 8 -5 0 -25 92 -21 310 15 19 3 51 7 70 10 19 3 42 7 50 10 8 3 41&#xA;7 72 9 67 3 309 42 355 56 17 5 72 16 121 23 68 10 104 22 148 48 33 19 79 45&#xA;104 57 132 68 285 158 298 174 50 62 78 157 112 377 4 30 11 66 14 80 3 14 13&#xA;68 21 120 44 271 68 402 85 465 6 22 15 65 20 95 4 30 17 87 28 125 52 181 65&#xA;231 64 248 -1 17 5 18 46 13 26 -3 96 -10 155 -15 110 -10 136 -21 137 -59 0&#xA;-7 5 -23 12 -35 7 -12 13 -26 15 -32 11 -41 52 -147 61 -157 5 -7 31 -69 57&#xA;-137 42 -111 78 -195 135 -316 22 -47 87 -197 132 -305 17 -41 41 -97 54 -125&#xA;57 -126 75 -170 94 -225 24 -72 75 -144 113 -161 23 -10 44 -9 115 6 48 10 94&#xA;19 102 20 8 1 29 5 45 9 38 9 92 21 223 47 57 11 124 27 150 35 26 8 60 17 75&#xA;20 15 3 43 12 62 20 42 17 534 504 559 552 16 32 16 33 -20 105 -19 39 -41 79&#xA;-48 87 -7 8 -21 32 -31 53 -18 34 -67 102 -109 150 -9 9 -16 20 -16 23 0 6 -9&#xA;18 -103 146 -31 42 -57 81 -57 87 0 6 -3 11 -8 11 -4 0 -16 17 -27 37 -11 20&#xA;-29 49 -41 63 -11 14 -34 50 -51 80 -16 30 -50 87 -74 125 -24 39 -60 102 -79&#xA;140 -18 39 -38 73 -42 76 -5 3 -10 15 -13 27 -2 12 -18 42 -34 66 -17 25 -31&#xA;47 -31 49 0 3 -20 40 -45 81 -25 42 -45 81 -45 86 0 6 -3 10 -7 10 -9 0 -29&#xA;33 -75 120 -27 51 -89 127 -132 160 -10 8 -41 17 -70 21 -28 4 -98 17 -156 28&#xA;-58 12 -114 23 -125 25 -11 2 -32 8 -46 14 -15 6 -29 8 -32 6 -3 -3 -15 -1&#xA;-26 6 -19 10 -107 23 -226 35 -22 2 -71 11 -110 19 -38 9 -80 16 -92 16 -18 0&#xA;-23 7 -28 48 -16 132 -29 206 -50 297 -13 55 -29 127 -35 160 -7 33 -16 71&#xA;-21 85 -14 41 -51 253 -50 284 1 16 5 34 10 40 4 6 16 38 25 71 10 33 26 80&#xA;36 105 9 25 25 70 35 100 33 103 25 103 133 -1 54 -52 125 -118 159 -148 34&#xA;-29 79 -69 100 -88 21 -19 57 -45 80 -59 l41 -25 298 11 c164 6 350 13 413 14&#xA;114 3 114 3 140 33 37 44 82 120 101 173 10 25 36 90 59 145 50 119 50 165 1&#xA;205 -17 14 -34 25 -38 26 -4 0 -20 6 -37 13 -87 36 -143 54 -167 54 -16 0 -28&#xA;4 -28 8 0 5 -8 9 -18 9 -10 0 -22 4 -28 9 -5 4 -38 14 -74 20 -36 7 -86 17&#xA;-112 22 l-47 10 0 95 c-1 75 2 94 14 94 7 0 17 -4 20 -10 4 -6 141 -8 373 -5&#xA;395 5 517 10 601 25 29 5 57 7 62 4 7 -4 171 22 174 29 0 1 13 19 28 39 15 20&#xA;27 44 27 53 0 9 12 51 26 92 14 41 27 85 28 97 2 11 15 62 29 111 56 189 131&#xA;578 136 703 2 48 -1 56 -26 78 -15 13 -34 24 -40 24 -7 0 -13 3 -13 8 -1 22&#xA;-187 83 -315 102 -69 11 -88 16 -195 50 -30 10 -73 21 -95 24 -22 3 -71 9&#xA;-110 15 -38 5 -157 12 -262 16 l-193 7 0 72 c0 73 22 386 40 561 6 55 13 136&#xA;15 180 3 44 8 94 10 111 4 21 -1 39 -14 56 -22 27 -44 36 -221 93 -63 20 -126&#xA;41 -140 45 -14 5 -85 28 -158 52 l-133 43 6 34 c4 18 10 41 15 50 5 9 21 48&#xA;35 86 26 66 57 139 120 280 15 33 33 78 40 100 8 22 20 58 28 80 14 37 21 85&#xA;18 127 -1 16 -49 57 -74 62 -7 2 -19 6 -27 9 -8 4 -40 16 -70 26 -111 40 -146&#xA;53 -175 66 -16 7 -104 43 -195 78 -202 80 -279 92 -346 54z m82 -149 c-12 -63&#xA;-14 -73 -25 -101 -6 -15 -10 -31 -9 -35 1 -4 -1 -14 -4 -22 -23 -66 -40 -127&#xA;-57 -200 -10 -47 -33 -129 -50 -184 -17 -54 -31 -111 -31 -126 0 -14 -3 -30&#xA;-7 -34 -4 -3 -7 -14 -8 -24 -1 -9 -8 -41 -15 -69 -13 -51 -15 -53 -49 -53 -20&#xA;0 -53 3 -73 6 l-36 6 19 34 c10 19 19 39 19 45 0 5 17 46 39 92 41 88 94 217&#xA;161 391 23 60 48 123 55 140 7 17 22 51 33 76 11 25 23 55 26 68 11 33 19 26&#xA;12 -10z m140 -32 c34 -13 76 -31 95 -42 19 -11 42 -23 53 -27 12 -5 15 -11 9&#xA;-20 -5 -6 -15 -32 -22 -57 -21 -77 -52 -183 -68 -230 -9 -25 -17 -61 -20 -80&#xA;-2 -19 -8 -39 -12 -45 -5 -5 -12 -26 -16 -45 -4 -19 -28 -93 -53 -163 l-46&#xA;-129 -96 7 c-52 4 -97 9 -99 11 -5 4 19 143 31 184 6 19 17 64 23 100 7 36 33&#xA;144 59 240 26 96 52 210 58 253 9 65 14 77 27 71 9 -3 44 -16 77 -28z m-1076&#xA;-25 c5 -11 10 -57 10 -103 0 -46 4 -99 10 -117 5 -19 12 -100 15 -180 3 -80 7&#xA;-159 10 -176 20 -133 25 -305 10 -442 -9 -89 -3 -100 35 -65 20 18 80 150 80&#xA;175 0 23 18 25 155 15 72 -5 156 -11 187 -13 32 -2 61 -6 65 -8 5 -3 62 -8&#xA;128 -12 66 -3 156 -10 200 -15 166 -20 293 -30 388 -31 53 -1 97 -4 97 -8 0&#xA;-5 63 -27 100 -35 3 -1 11 -5 18 -10 7 -4 23 -9 35 -11 12 -1 42 -10 67 -19&#xA;25 -9 117 -40 205 -70 133 -44 159 -56 157 -71 -2 -9 -8 -22 -13 -29 -5 -6&#xA;-15 -19 -22 -28 -16 -24 -70 -25 -240 -9 -148 14 -227 9 -227 -15 0 -12 20&#xA;-24 126 -69 16 -7 75 -25 129 -40 82 -22 110 -26 165 -20 81 8 80 9 65 -117&#xA;l-10 -86 -24 19 c-53 43 -227 70 -301 46 -25 -8 -57 -18 -72 -21 -35 -8 -94&#xA;-63 -109 -101 -15 -40 -32 -210 -31 -317 0 -94 12 -142 49 -200 18 -30 29 -38&#xA;53 -38 38 0 39 18 4 96 -34 77 -41 170 -20 252 9 35 16 76 17 90 1 35 46 109&#xA;82 136 25 18 41 21 118 19 l90 -1 47 -43 c45 -42 46 -45 47 -104 3 -112 3&#xA;-114 30 -121 23 -6 25 -10 26 -73 0 -36 2 -74 4 -83 3 -15 -5 -18 -38 -19&#xA;-133 -4 -122 -6 -119 21 10 95 9 177 -3 201 -15 28 -69 59 -103 59 -33 0 -86&#xA;-44 -109 -90 -50 -105 -54 -218 -9 -294 l24 -41 314 -1 c172 -1 347 -5 388 -8&#xA;184 -15 219 -19 280 -31 36 -8 90 -21 120 -29 30 -9 69 -16 86 -16 17 0 34 -3&#xA;38 -7 4 -5 24 -13 44 -19 44 -14 38 -14 -439 -14 -291 0 -325 2 -384 30 -113&#xA;53 -223 79 -283 65 -35 -7 -55 -51 -72 -155 -17 -107 -47 -247 -56 -262 -4 -6&#xA;-13 -36 -20 -67 -7 -31 -17 -72 -23 -91 -5 -19 -17 -60 -25 -90 -20 -68 -23&#xA;-127 -8 -142 13 -13 38 39 66 137 34 119 46 161 65 220 10 33 24 87 31 120 7&#xA;33 16 69 22 80 5 12 10 27 12 35 1 8 8 38 16 66 13 50 13 51 44 43 102 -25&#xA;189 -51 231 -69 46 -20 47 -21 42 -58 -5 -35 -40 -223 -71 -382 -8 -41 -21&#xA;-115 -30 -163 -9 -49 -18 -92 -21 -97 -3 -4 -12 -41 -20 -81 -9 -40 -22 -96&#xA;-30 -124 l-16 -52 -50 8 c-28 4 -56 12 -62 18 -7 5 -41 19 -77 31 -70 23 -101&#xA;36 -196 81 -34 16 -65 29 -69 29 -4 0 -19 8 -33 18 -15 11 -42 24 -59 30 -18&#xA;6 -38 16 -45 22 -7 6 -38 27 -69 48 -174 115 -205 136 -219 149 -8 8 -37 34&#xA;-64 58 -62 58 -107 63 -174 21 -67 -42 -89 -87 -105 -211 -18 -148 -10 -194&#xA;60 -333 74 -146 205 -300 300 -350 12 -7 28 -19 37 -27 34 -34 336 -195 365&#xA;-195 6 0 11 -4 11 -10 0 -13 -36 -103 -69 -175 -16 -33 -31 -68 -34 -77 -11&#xA;-30 -8 -32 -148 95 -28 26 -55 44 -60 41 -5 -3 -8 -1 -7 4 4 12 -103 113 -162&#xA;154 -43 30 -131 101 -175 143 -12 11 -30 27 -41 35 -10 8 -48 38 -84 66 -77&#xA;60 -259 184 -271 184 -5 0 -53 33 -106 74 -95 71 -155 109 -218 140 -16 8 -52&#xA;30 -80 50 -104 74 -183 124 -218 137 -21 7 -37 17 -37 21 0 4 -7 8 -15 8 -8 0&#xA;-15 4 -15 9 0 5 -16 15 -35 22 -42 16 -57 49 -79 180 -9 51 -21 108 -25 124&#xA;-5 17 -17 56 -26 88 -10 39 -21 57 -32 57 -14 0 -15 -16 -9 -147 13 -292 19&#xA;-340 47 -361 13 -11 40 -34 59 -51 19 -18 49 -39 65 -48 17 -9 48 -28 70 -43&#xA;22 -15 79 -53 127 -85 48 -32 90 -66 93 -77 7 -19 -17 -103 -61 -215 -13 -34&#xA;-24 -70 -24 -80 0 -10 -7 -31 -16 -48 -14 -27 -29 -74 -55 -175 -11 -45 -31&#xA;-99 -47 -127 -10 -19 -26 -69 -47 -153 -11 -39 -56 -183 -65 -205 -4 -11 -14&#xA;-42 -21 -70 -6 -27 -25 -90 -41 -140 -16 -49 -31 -99 -33 -110 -2 -11 -14 -62&#xA;-27 -112 -20 -82 -21 -95 -8 -106 27 -25 269 -46 575 -49 252 -3 290 -1 290&#xA;12 0 16 -28 26 -175 59 -84 19 -125 21 -362 21 -309 0 -290 -9 -232 105 20 39&#xA;58 134 84 212 26 78 51 146 54 151 9 14 83 223 112 317 14 44 48 145 74 225&#xA;64 193 90 282 90 313 0 14 7 33 16 41 14 15 17 14 32 -1 9 -9 24 -26 32 -38 8&#xA;-13 47 -56 85 -97 39 -41 93 -101 120 -133 28 -33 84 -95 126 -140 144 -151&#xA;157 -165 173 -190 21 -33 20 -77 -4 -129 -21 -48 -119 -332 -151 -440 -18 -59&#xA;-19 -74 -9 -112 14 -48 21 -53 66 -47 24 4 35 14 52 46 11 23 25 54 29 69 11&#xA;37 31 23 38 -27 3 -22 10 -60 16 -85 5 -25 21 -100 34 -168 14 -68 34 -149 44&#xA;-180 22 -68 45 -162 40 -166 -2 -2 -89 -25 -194 -51 -213 -53 -265 -71 -265&#xA;-91 0 -7 -6 -17 -14 -21 -7 -4 -28 -53 -46 -108 -18 -55 -36 -104 -40 -110 -4&#xA;-5 -24 -59 -44 -120 -21 -60 -44 -124 -52 -142 -8 -17 -14 -37 -14 -43 0 -12&#xA;-13 -11 -70 2 -7 2 -22 11 -32 21 -10 9 -25 17 -33 17 -8 0 -15 5 -15 10 0 6&#xA;-4 10 -10 10 -5 0 -41 20 -79 45 -38 25 -74 45 -79 45 -5 0 -17 9 -26 19 -16&#xA;18 -134 59 -321 111 -44 12 -81 23 -82 24 -1 1 -14 58 -27 126 -14 69 -35 168&#xA;-46 220 -42 198 -60 300 -60 342 0 24 -7 74 -15 113 -8 38 -15 83 -15 100 0&#xA;28 -30 182 -63 325 -23 97 -53 162 -74 158 -16 -3 -18 -14 -16 -78 1 -41 7&#xA;-112 14 -157 6 -45 8 -87 4 -93 -4 -6 -2 -17 4 -23 5 -7 11 -31 12 -52 1 -22&#xA;5 -56 9 -75 5 -19 11 -64 14 -100 4 -36 11 -92 17 -125 6 -33 19 -118 30 -190&#xA;30 -211 56 -375 73 -455 21 -97 21 -95 -13 -117 -17 -10 -64 -49 -107 -88 -42&#xA;-38 -97 -83 -123 -99 -62 -42 -101 -77 -101 -92 0 -7 19 -18 43 -25 85 -23&#xA;246 -101 412 -200 49 -29 77 -43 338 -167 70 -34 130 -68 134 -77 3 -10 -4&#xA;-58 -16 -109 -12 -50 -22 -98 -22 -106 0 -8 -3 -22 -6 -30 -3 -8 -7 -28 -8&#xA;-45 -2 -16 -10 -68 -19 -115 -9 -47 -21 -121 -26 -165 -6 -44 -17 -109 -25&#xA;-145 -17 -74 -51 -278 -75 -435 -12 -83 -32 -147 -50 -156 -8 -4 -32 -14 -52&#xA;-23 -21 -9 -53 -22 -70 -30 -175 -77 -347 -146 -362 -146 -4 0 -6 24 -2 53 6&#xA;47 -5 182 -34 437 -13 109 -6 176 18 189 9 5 19 9 22 9 29 -4 102 17 110 30 5&#xA;9 10 12 10 5 0 -10 6 -10 25 -1 30 13 50 70 66 183 6 44 20 106 31 138 18 52&#xA;18 60 5 81 -14 21 -93 66 -116 66 -5 0 -14 7 -21 15 -7 8 -21 15 -31 15 -19 0&#xA;-59 18 -314 140 -77 37 -155 71 -172 74 -18 4 -33 11 -33 15 0 4 -25 15 -55&#xA;26 -31 10 -60 24 -65 30 -10 12 -26 83 -60 270 -11 61 -25 121 -30 135 -6 14&#xA;-17 63 -25 110 -8 47 -26 137 -40 200 -15 63 -33 146 -41 184 -7 37 -21 80&#xA;-29 95 -8 14 -17 34 -21 44 -13 35 -29 10 -32 -49 -3 -54 23 -328 33 -344 5&#xA;-7 35 -193 35 -215 0 -8 -7 -15 -16 -15 -15 0 -174 51 -229 74 -16 7 -46 18&#xA;-65 25 -19 7 -64 24 -100 38 -36 13 -84 28 -107 33 -23 5 -50 13 -60 19 -10 5&#xA;-40 17 -68 26 -27 9 -59 20 -70 25 -69 28 -217 81 -255 91 -25 7 -54 19 -65&#xA;25 -11 7 -24 14 -30 15 -12 2 -22 5 -60 20 -16 7 -34 13 -40 15 -42 10 -473&#xA;179 -483 189 -11 10 -10 28 2 101 9 49 16 108 16 132 0 24 5 42 11 42 6 0 9 6&#xA;6 13 -2 7 1 41 9 77 7 36 20 117 29 180 8 63 22 156 31 205 22 130 29 206 29&#xA;327 -1 121 -11 146 -45 112 -15 -15 -26 -52 -40 -138 -11 -66 -18 -121 -16&#xA;-123 2 -3 0 -19 -5 -36 -5 -18 -12 -52 -15 -77 -3 -25 -12 -83 -21 -130 -19&#xA;-107 -41 -237 -52 -315 -5 -33 -20 -116 -34 -185 -36 -180 -48 -258 -53 -320&#xA;-3 -30 -9 -73 -14 -95 -5 -22 -14 -77 -21 -123 -11 -82 -12 -83 -50 -102 -21&#xA;-11 -47 -20 -58 -20 -11 0 -23 -4 -26 -10 -3 -5 -14 -10 -23 -10 -9 0 -28 -6&#xA;-42 -13 -55 -29 -131 -48 -168 -41 -47 8 -181 44 -201 54 -27 13 -125 40 -173&#xA;46 l-45 6 -49 -97 c-27 -53 -56 -104 -64 -114 -8 -9 -23 -32 -34 -50 -10 -18&#xA;-47 -72 -82 -119 -35 -47 -64 -91 -64 -97 0 -7 -7 -18 -16 -26 -8 -7 -27 -36&#xA;-41 -63 -29 -58 -60 -96 -80 -96 -15 0 -121 -32 -218 -67 -72 -26 -88 -30&#xA;-141 -40 -36 -6 -34 -9 -80 202 -13 61 -30 141 -39 178 -28 128 -49 287 -38&#xA;297 10 8 194 43 199 37 3 -2 -2 -30 -11 -63 -19 -75 -20 -71 14 -88 26 -14 30&#xA;-14 48 7 24 27 78 112 93 147 5 14 19 39 30 55 11 17 34 57 52 90 17 33 39 72&#xA;47 88 9 15 32 58 51 95 19 37 49 89 67 117 18 27 33 56 33 65 1 30 36 58 95&#xA;74 217 61 223 62 241 39 8 -10 21 -32 30 -50 22 -44 91 -116 103 -108 16 9 13&#xA;30 -10 83 -12 26 -28 61 -35 79 -18 39 -18 101 0 178 8 33 17 85 21 115 4 30&#xA;9 62 11 70 1 8 10 56 19 105 8 50 19 113 24 140 5 28 12 73 15 100 4 28 18&#xA;102 32 165 13 63 29 151 34 195 5 44 16 99 24 123 9 24 29 116 47 205 17 89&#xA;37 177 45 195 8 19 14 45 14 58 0 32 34 45 91 34 24 -4 73 -13 109 -19 143&#xA;-25 209 -39 280 -56 49 -13 417 -85 531 -105 25 -5 65 -14 90 -20 24 -7 76&#xA;-18 114 -26 39 -7 120 -24 180 -38 61 -14 146 -32 190 -41 44 -9 118 -25 165&#xA;-36 47 -10 94 -19 105 -19 11 0 56 -9 100 -19 89 -22 329 -71 366 -74 24 -3&#xA;106 -19 187 -37 23 -6 55 -10 71 -10 15 0 41 -4 57 -10 70 -24 325 -52 340&#xA;-37 4 3 -1 13 -10 22 -9 9 -16 13 -16 9 0 -3 -6 -2 -12 3 -7 6 -20 11 -28 11&#xA;-8 0 -46 9 -85 20 -38 11 -126 32 -195 47 -69 15 -181 42 -250 60 -69 18 -143&#xA;36 -165 39 -22 4 -96 20 -165 36 -185 43 -269 60 -330 70 -30 5 -80 17 -110&#xA;25 -30 9 -77 18 -105 21 -27 3 -59 9 -70 13 -21 9 -101 28 -150 37 -16 2 -68&#xA;13 -115 24 -47 10 -150 30 -230 45 -184 32 -243 44 -305 60 -48 12 -107 24&#xA;-150 30 -42 6 -210 46 -215 51 -3 3 4 5 15 3 11 -1 31 1 45 4 14 4 57 9 95 11&#xA;71 5 179 18 315 36 41 6 111 15 155 20 44 5 103 14 130 19 88 17 300 2 375&#xA;-27 8 -3 17 -5 20 -4 19 3 238 -29 255 -37 25 -12 332 -61 383 -61 30 0 42 -6&#xA;62 -31 14 -17 45 -52 70 -79 25 -26 62 -68 82 -94 20 -26 53 -65 72 -86 31&#xA;-35 39 -38 59 -29 22 10 77 110 77 140 0 8 7 24 15 36 8 12 33 70 54 130 36&#xA;101 72 185 150 358 18 39 36 78 42 87 5 10 9 22 9 28 0 6 8 29 19 53 22 51 73&#xA;184 96 252 9 28 23 64 29 80 7 17 23 57 35 90 12 33 33 84 47 113 13 29 24 59&#xA;24 67 0 13 9 36 56 140 10 22 18 42 19 45 6 19 27 68 36 84 6 10 12 27 14 37&#xA;2 10 20 58 40 106 20 49 47 115 60 148 12 33 34 86 49 118 14 32 26 62 26 68&#xA;0 6 11 34 24 62 13 29 37 86 54 127 17 41 52 125 78 185 25 61 57 137 69 170&#xA;13 33 35 89 50 125 14 36 30 74 34 85 5 11 22 50 40 87 32 68 52 91 59 70 6&#xA;-18 104 -132 113 -132 5 0 12 12 15 26 7 29 -37 156 -67 189 -26 30 -39 194&#xA;-39 496 l0 258 67 58 c36 32 73 66 82 76 20 22 38 22 51 -2z m275 -22 c74 -7&#xA;126 -17 135 -26 13 -11 16 -62 18 -306 2 -161 1 -325 -3 -365 l-7 -74 -61 7&#xA;c-34 3 -95 7 -135 8 -86 2 -77 -22 -92 247 -6 102 -15 226 -20 275 -5 50 -10&#xA;128 -10 174 l0 83 28 -5 c15 -4 81 -12 147 -18z m1185 -104 c63 -21 117 -39&#xA;119 -42 6 -4 -19 -76 -29 -83 -3 -3 -26 -54 -49 -115 -23 -60 -53 -135 -65&#xA;-165 -32 -75 -39 -94 -40 -102 -1 -3 -4 -10 -8 -14 -5 -4 -8 -13 -8 -21 0 -7&#xA;-8 -32 -19 -56 -10 -23 -24 -57 -31 -76 l-13 -33 -118 3 c-64 2 -120 7 -124&#xA;11 -7 6 13 78 36 133 5 11 18 53 29 94 19 72 65 216 82 256 4 11 15 52 23 90&#xA;9 39 20 81 25 95 4 14 11 37 14 52 5 24 9 26 34 18 15 -5 79 -25 142 -45z&#xA;m-2172 -565 c7 -11 19 -20 26 -20 8 0 16 -4 18 -8 2 -5 30 -26 63 -48 78 -52&#xA;190 -129 219 -151 l23 -18 -30 -65 c-110 -231 -203 -419 -209 -420 -3 0 -33&#xA;22 -65 48 -32 27 -65 53 -74 58 -9 5 -32 21 -50 36 -19 15 -67 53 -107 84 -76&#xA;60 -81 74 -46 115 8 8 14 19 14 23 0 6 98 216 122 261 6 10 21 37 32 60 41 76&#xA;43 77 64 45z m1422 -190 c0 -5 -2 -10 -4 -10 -3 0 -8 5 -11 10 -3 6 -1 10 4&#xA;10 6 0 11 -4 11 -10z m-1862 -824 c4 -6 25 -24 47 -41 52 -38 214 -174 242&#xA;-202 l22 -22 -33 -103 c-18 -57 -39 -123 -45 -148 -7 -25 -17 -54 -23 -64 -13&#xA;-25 -45 -116 -66 -188 -9 -32 -20 -58 -25 -58 -5 0 -42 29 -82 65 -40 36 -75&#xA;65 -77 65 -3 0 -23 17 -44 38 -56 54 -164 146 -178 151 -6 2 -18 12 -27 23 -9&#xA;10 -21 18 -28 18 -21 0 -11 35 29 104 22 37 40 72 40 76 0 8 11 33 94 199 25&#xA;51 46 97 46 102 0 5 7 17 17 28 16 19 17 19 50 -6 18 -14 37 -31 41 -37z&#xA;m3639 -672 c-3 -3 -12 -4 -19 -1 -8 3 -5 6 6 6 11 1 17 -2 13 -5z m680 -117&#xA;c-2 -39 -16 -121 -30 -182 -15 -60 -31 -132 -37 -160 -20 -92 -33 -140 -41&#xA;-151 -5 -6 -11 -21 -13 -35 -3 -13 -5 -25 -5 -26 -1 -2 -1 -4 0 -5 0 -2 -7&#xA;-20 -16 -41 -9 -21 -20 -61 -26 -90 -6 -29 -13 -63 -15 -77 -3 -14 -9 -29 -15&#xA;-35 -5 -5 -9 -25 -9 -46 l0 -36 -52 -7 c-82 -9 -928 -7 -928 3 0 5 11 47 25&#xA;94 13 46 32 118 41 158 9 41 20 79 24 84 4 6 11 42 14 80 4 39 12 88 18 110&#xA;12 46 27 131 34 190 2 22 12 80 22 130 17 78 22 90 43 96 13 3 112 7 219 8&#xA;107 1 196 4 199 6 2 3 128 5 279 5 l274 0 -5 -73z m-4747 -204 c21 -18 41 -33&#xA;45 -33 3 0 27 -15 53 -32 26 -18 55 -37 64 -43 47 -28 128 -88 170 -127 l48&#xA;-43 -36 -74 c-19 -40 -38 -87 -41 -103 -3 -15 -10 -31 -14 -34 -5 -3 -9 -12&#xA;-9 -20 0 -7 -16 -49 -36 -91 -19 -43 -40 -100 -45 -127 -5 -28 -13 -54 -17&#xA;-58 -5 -5 -29 10 -54 32 -25 22 -49 40 -53 40 -7 0 -85 63 -147 119 -21 19&#xA;-48 41 -60 49 -13 9 -47 39 -76 66 -30 28 -60 54 -67 59 -8 4 -23 21 -35 37&#xA;l-21 29 41 71 c22 40 40 73 40 75 0 2 22 50 49 107 26 56 52 114 56 128 14 47&#xA;23 50 67 27 22 -12 57 -36 78 -54z m-2256 -41 c39 -26 89 -56 110 -67 50 -25&#xA;96 -71 129 -127 30 -52 198 -386 222 -443 9 -22 29 -65 45 -96 l29 -57 -100&#xA;-13 c-92 -11 -100 -11 -119 6 -11 10 -20 22 -20 26 0 8 -59 92 -152 213 -29&#xA;39 -86 117 -126 175 -40 58 -88 122 -107 142 -40 43 -143 98 -240 129 -38 12&#xA;-75 26 -80 30 -6 5 -42 18 -80 28 l-70 20 30 12 c17 7 42 14 57 16 15 2 58 13&#xA;95 25 84 28 170 39 247 32 49 -4 71 -12 130 -51z m-609 -104 c33 -11 74 -26&#xA;90 -33 100 -44 126 -54 180 -71 33 -10 78 -28 100 -41 22 -13 55 -30 73 -39&#xA;29 -13 86 -78 100 -114 3 -8 27 -43 54 -77 26 -35 48 -66 48 -70 0 -5 18 -26&#xA;39 -48 21 -22 45 -54 54 -70 8 -17 40 -56 71 -88 31 -31 56 -61 56 -66 0 -9&#xA;-43 -20 -145 -37 -22 -4 -47 -7 -56 -8 -19 -1 -63 49 -179 205 -100 134 -153&#xA;189 -179 189 -11 0 -22 4 -26 9 -3 5 -31 15 -63 21 -56 12 -129 33 -186 53&#xA;-17 6 -37 12 -45 13 -9 1 -28 5 -43 9 -22 6 -32 1 -65 -35 -21 -23 -83 -85&#xA;-137 -138 -118 -114 -199 -196 -388 -389 -105 -107 -146 -143 -165 -143 -25 0&#xA;-39 7 -206 103 -54 32 -100 57 -102 57 -2 0 -44 24 -94 54 -49 29 -110 63&#xA;-135 75 -55 27 -56 35 -22 147 13 43 29 112 36 152 13 74 21 83 49 58 9 -8 54&#xA;-34 101 -57 47 -23 92 -47 100 -54 20 -16 226 -91 273 -100 21 -4 40 -11 43&#xA;-16 3 -5 27 -9 53 -9 48 0 49 1 116 78 38 42 75 84 84 92 9 8 52 56 96 105&#xA;124 141 147 166 200 220 28 29 58 62 68 74 21 26 48 24 152 -11z m39 -374 c32&#xA;-8 92 -26 132 -39 41 -14 85 -25 98 -25 37 0 72 -35 142 -139 35 -53 82 -118&#xA;104 -144 22 -27 40 -52 40 -57 0 -4 -12 -10 -27 -13 -16 -3 -47 -11 -70 -17&#xA;-42 -12 -44 -12 -86 23 -24 20 -84 74 -132 120 -49 47 -94 83 -100 80 -21 -7&#xA;-548 -561 -647 -679 l-61 -72 -51 20 c-90 35 -208 89 -321 146 -60 31 -131 67&#xA;-157 79 -28 14 -48 31 -48 40 0 29 34 125 46 130 6 2 46 -14 90 -35 85 -42 87&#xA;-43 181 -77 70 -25 75 -24 118 35 32 43 313 328 425 430 46 41 117 108 159&#xA;148 50 47 81 70 91 66 8 -3 41 -12 74 -20z m-741 -50 c9 -10 -25 -64 -40 -64&#xA;-14 0 -123 59 -123 66 0 7 156 4 163 -2z m6175 -149 c12 3 39 -3 62 -15 22&#xA;-11 43 -20 47 -19 30 5 60 -8 133 -57 46 -31 92 -66 102 -78 63 -76 111 -236&#xA;82 -274 -9 -11 -17 -13 -21 -7 -8 10 -19 16 -91 56 -57 31 -204 129 -317 211&#xA;-41 30 -114 130 -121 166 l-6 29 54 -8 c29 -5 63 -7 76 -4z m842 -621 c50 -4&#xA;129 -1 192 6 112 13 167 8 151 -13 -5 -7 -24 -47 -43 -89 -18 -43 -37 -78 -41&#xA;-78 -5 0 -9 -6 -9 -14 0 -23 -51 -50 -110 -58 -69 -10 -296 -26 -462 -34 -116&#xA;-5 -128 -4 -128 11 0 19 97 253 113 273 11 14 116 13 337 -4z m-890 -1464 c25&#xA;-5 97 -19 160 -30 63 -12 144 -28 180 -36 36 -9 81 -18 100 -20 19 -3 51 -9&#xA;70 -14 19 -5 71 -16 115 -25 43 -9 91 -23 106 -31 36 -18 88 -84 126 -159 16&#xA;-33 45 -87 63 -120 17 -33 50 -93 71 -132 22 -40 57 -99 78 -130 20 -32 55&#xA;-89 77 -127 21 -37 44 -77 50 -88 6 -10 20 -29 30 -41 26 -30 94 -131 122&#xA;-180 12 -22 40 -64 63 -93 22 -29 38 -57 35 -62 -3 -6 -20 -12 -38 -15 -31 -5&#xA;-111 -20 -273 -52 -150 -30 -236 -45 -254 -45 -13 0 -23 14 -35 48 -10 26 -26&#xA;63 -36 82 -35 67 -62 115 -74 129 -13 16 -41 70 -145 278 -41 81 -84 164 -96&#xA;183 -12 19 -27 51 -35 70 -8 19 -17 37 -20 40 -4 3 -24 43 -46 90 -112 240&#xA;-146 290 -193 290 -28 0 -94 13 -296 59 -71 16 -150 32 -175 36 -59 9 -201 43&#xA;-207 49 -3 3 12 7 33 11 22 3 55 10 74 15 32 8 144 25 215 33 35 4 92 -1 155&#xA;-13z m-340 -156 c80 -19 186 -44 235 -56 50 -11 119 -28 155 -38 36 -10 88&#xA;-22 115 -26 48 -9 51 -11 78 -64 16 -30 38 -77 49 -105 11 -27 27 -58 35 -67&#xA;9 -10 13 -18 10 -18 -7 0 82 -175 149 -295 22 -38 46 -86 53 -105 8 -19 20&#xA;-42 28 -51 7 -8 13 -19 13 -22 0 -4 17 -35 38 -70 21 -34 71 -129 111 -210&#xA;l73 -147 -81 -79 c-45 -44 -81 -81 -81 -84 0 -3 -21 -27 -47 -55 -27 -27 -64&#xA;-68 -83 -91 -53 -64 -97 -111 -102 -111 -3 0 -18 35 -33 78 -15 42 -32 81 -36&#xA;87 -5 5 -9 15 -9 21 0 7 -5 25 -11 41 -7 15 -13 35 -14 43 -3 17 -98 248 -121&#xA;294 -8 16 -14 35 -14 42 0 7 -3 14 -8 16 -6 2 -53 105 -101 223 -38 92 -77&#xA;164 -94 175 -18 11 -91 24 -192 35 -34 4 -117 19 -186 34 -26 5 -65 12 -86 15&#xA;-87 10 -266 69 -296 96 l-21 20 28 88 c16 48 37 103 47 123 10 20 16 39 13 41&#xA;-2 3 6 27 18 54 12 27 31 83 43 124 19 68 23 76 50 82 45 10 116 0 275 -38z&#xA;m-3968 -75 c21 -30 46 -70 55 -89 10 -19 31 -55 47 -79 31 -47 27 -59 -24 -62&#xA;-39 -3 -76 -12 -148 -35 -80 -26 -87 -16 -53 78 11 29 22 71 26 93 4 22 10 45&#xA;15 50 4 6 11 32 14 58 5 29 12 47 19 44 6 -2 28 -28 49 -58z m2733 -189 c194&#xA;-58 223 -71 337 -145 8 -5 53 -35 99 -65 102 -66 106 -69 192 -115 97 -51 245&#xA;-115 267 -115 10 0 31 -5 45 -12 26 -12 27 -14 20 -78 -11 -104 -15 -130 -39&#xA;-225 -41 -159 -96 -438 -146 -735 -50 -302 -67 -380 -84 -399 -14 -15 -23 -18&#xA;-36 -11 -10 5 -20 7 -22 4 -3 -2 -47 -13 -99 -24 -52 -11 -132 -28 -179 -38&#xA;-53 -12 -86 -15 -89 -9 -3 9 3 42 39 212 5 22 16 103 25 180 9 77 20 156 26&#xA;175 13 49 39 262 33 272 -3 4 -2 14 3 21 9 15 12 27 18 92 2 28 14 97 25 155&#xA;46 233 46 237 -3 262 -18 9 -95 46 -172 83 -77 38 -167 84 -200 104 -33 20&#xA;-93 52 -133 70 -40 18 -129 61 -197 96 l-125 64 28 21 c15 12 43 33 63 48 20&#xA;15 57 45 83 67 43 36 103 75 116 75 3 0 50 -14 105 -30z m-3623 -254 c19 -8&#xA;46 -16 59 -18 13 -2 34 -9 46 -16 12 -7 29 -12 37 -12 28 0 22 -13 -54 -125&#xA;-11 -16 -45 -68 -77 -115 -65 -98 -144 -203 -155 -208 -4 -2 -8 -8 -8 -13 0&#xA;-6 -17 -34 -37 -64 -31 -44 -45 -55 -75 -60 -21 -4 -40 -11 -44 -16 -3 -5 -14&#xA;-9 -26 -9 -11 0 -32 -8 -46 -19 -15 -10 -43 -21 -62 -23 -19 -3 -69 -13 -110&#xA;-22 -69 -16 -170 -21 -230 -11 -14 2 -28 4 -32 4 -23 3 -1 19 45 34 127 40&#xA;256 77 271 77 19 0 53 32 98 90 34 46 98 146 98 155 0 3 32 56 70 119 39 63&#xA;70 117 70 120 0 3 14 25 30 49 17 25 30 48 30 53 0 15 33 44 50 44 10 0 33 -6&#xA;52 -14z m942 -351 c30 -27 117 -96 169 -132 18 -13 47 -37 65 -55 30 -30 32&#xA;-37 27 -73 -6 -44 -14 -54 -61 -82 -18 -10 -67 -40 -110 -67 -248 -155 -231&#xA;-146 -247 -128 -14 16 -83 208 -90 248 -1 11 -5 24 -9 29 -3 6 -13 37 -23 70&#xA;-9 33 -21 65 -26 71 -14 17 -10 19 221 126 47 22 53 22 84 -7z m611 -82 c-4&#xA;-10 -18 -58 -32 -107 -13 -49 -30 -98 -38 -110 -8 -11 -15 -30 -15 -42 0 -12&#xA;-7 -24 -15 -28 -8 -3 -15 -11 -15 -19 0 -7 -15 -18 -33 -25 -19 -7 -99 -56&#xA;-178 -109 l-144 -97 -112 0 c-62 -1 -113 0 -113 1 0 2 138 81 183 105 18 9 75&#xA;45 127 80 79 53 95 68 101 95 5 24 34 59 114 135 59 57 115 111 124 121 8 9&#xA;24 17 34 17 14 0 17 -4 12 -17z m1185 -64 c0 -6 -4 -7 -10 -4 -5 3 -10 11 -10&#xA;16 0 6 5 7 10 4 6 -3 10 -11 10 -16z m3987 -231 c13 -12 23 -26 23 -31 0 -5&#xA;22 -39 48 -76 27 -36 52 -74 55 -83 4 -10 22 -43 42 -73 19 -31 35 -57 35 -59&#xA;0 -2 -20 -9 -45 -16 -25 -7 -48 -17 -51 -21 -3 -5 -15 -9 -26 -9 -12 0 -44 -7&#xA;-72 -15 -28 -8 -96 -28 -151 -45 -55 -16 -117 -32 -138 -36 -20 -3 -40 -10&#xA;-43 -15 -3 -5 -16 -9 -29 -9 -17 0 -25 7 -29 28 -10 38 -133 288 -168 339 -15&#xA;23 -28 46 -28 50 0 8 112 26 295 49 22 2 54 7 70 9 17 3 57 8 90 11 33 4 67&#xA;10 75 15 21 12 21 12 47 -13z m-2547 -1002 c0 -2 -38 -28 -85 -57 -47 -30&#xA;-115 -72 -150 -95 -57 -36 -77 -43 -157 -53 -51 -6 -145 -21 -208 -33 -63 -11&#xA;-133 -22 -155 -24 l-40 -4 40 15 c22 9 44 20 49 25 6 6 16 10 23 10 7 0 36 11&#xA;65 24 29 13 87 36 128 50 41 15 91 37 110 50 42 27 78 39 185 62 44 9 96 20&#xA;115 24 40 9 80 12 80 6z"/>
    <path d="M6810 8513 c0 -14 23 -40 58 -65 l22 -15 -31 -94 c-18 -52 -38 -110&#xA;-45 -129 -11 -30 -54 -170 -86 -280 -6 -19 -14 -44 -19 -55 -13 -32 -47 -139&#xA;-53 -166 -7 -32 -54 -176 -73 -218 -7 -18 -16 -52 -19 -75 -3 -22 -7 -46 -9&#xA;-53 -2 -6 2 -17 10 -23 10 -8 17 -7 29 5 9 9 16 20 16 25 0 5 11 33 24 62 13&#xA;29 35 89 49 133 59 179 117 347 128 367 6 12 29 76 50 142 21 67 47 146 58&#xA;176 11 30 22 66 25 80 11 49 20 53 62 29 21 -12 51 -30 66 -40 14 -11 29 -19&#xA;32 -19 4 0 23 -11 44 -23 66 -42 307 -128 355 -127 40 1 121 27 125 40 8 23&#xA;-56 62 -225 136 -18 8 -48 21 -67 29 -19 8 -37 15 -41 15 -4 0 -48 18 -98 39&#xA;-198 84 -270 108 -339 114 -35 3 -48 0 -48 -10z"/>
    <path d="M7063 8074 c-169 -81 -257 -324 -209 -577 23 -118 78 -230 102 -209&#xA;4 4 4 1 0 -6 -17 -29 138 -137 212 -148 109 -16 225 -16 321 2 55 10 101 22&#xA;101 26 0 4 18 26 39 48 36 38 80 130 87 183 1 12 7 55 13 96 6 40 11 114 10&#xA;163 -1 81 -5 97 -35 159 -30 60 -114 159 -136 159 -4 0 -13 6 -20 13 -7 7 -47&#xA;28 -88 46 -41 19 -92 42 -112 51 -26 13 -64 18 -135 18 -85 1 -105 -2 -150&#xA;-24z m287 -68 c58 -7 133 -26 147 -38 18 -15 88 -119 125 -186 29 -52 32 -67&#xA;34 -157 3 -106 -3 -141 -42 -246 -17 -45 -37 -77 -67 -105 -42 -40 -107 -81&#xA;-107 -68 0 3 -6 2 -12 -4 -7 -5 -46 -17 -85 -26 -71 -16 -74 -16 -120 6 -48&#xA;21 -134 81 -184 128 -51 49 -140 286 -135 365 3 57 35 142 73 198 18 26 33 50&#xA;33 53 0 8 61 58 84 68 49 21 139 25 256 12z"/>
    <path d="M7387 7831 c-34 -7 -97 -67 -97 -92 0 -10 -4 -20 -9 -23 -16 -10 -41&#xA;-104 -41 -156 0 -85 24 -149 78 -207 41 -45 54 -53 84 -53 84 0 129 42 169&#xA;156 39 110 19 244 -49 321 -20 22 -87 64 -100 62 -4 -1 -20 -4 -35 -8z"/>
    <path d="M7340 6829 c-95 -20 -170 -42 -170 -50 0 -5 -7 -9 -15 -9 -8 0 -15&#xA;-3 -15 -8 0 -4 -13 -13 -29 -20 -16 -7 -37 -24 -46 -39 -15 -22 -15 -27 -2&#xA;-40 19 -19 43 -11 89 30 26 23 64 41 130 61 136 40 149 47 146 65 -4 19 -29&#xA;22 -88 10z"/>
    <path d="M8832 6892 c-21 -18 -39 -61 -68 -157 -26 -88 -33 -119 -28 -127 3&#xA;-4 32 -8 64 -8 73 0 79 7 114 144 32 121 32 130 1 150 -32 21 -57 20 -83 -2z"/>
    <path d="M9402 6901 c-16 -10 -92 -225 -92 -262 0 -30 19 -39 86 -39 50 0 57&#xA;8 71 85 35 187 37 206 22 216 -18 11 -70 11 -87 0z"/>
    <path d="M2150 8157 c0 -30 18 -46 105 -93 39 -20 86 -47 105 -59 34 -20 146&#xA;-75 155 -75 2 0 26 -13 53 -29 26 -15 66 -34 88 -41 21 -7 41 -16 44 -19 11&#xA;-14 232 -121 249 -121 10 0 24 -7 31 -15 7 -8 18 -15 25 -15 7 0 30 -9 52 -19&#xA;200 -100 433 -211 441 -211 6 0 37 -13 70 -30 34 -16 66 -30 72 -30 6 0 28 -9&#xA;50 -20 41 -21 100 -27 100 -10 0 21 -124 90 -465 258 -195 96 -302 148 -380&#xA;182 -62 27 -127 60 -275 136 -63 33 -117 60 -120 61 -3 1 -66 30 -140 66 -74&#xA;35 -151 68 -170 72 -19 4 -44 14 -55 21 -27 20 -35 17 -35 -9z"/>
    <path d="M1478 7714 c-15 -15 -7 -25 35 -45 23 -11 60 -30 83 -42 71 -39 389&#xA;-183 479 -218 28 -11 61 -24 75 -30 14 -6 39 -17 55 -24 17 -7 64 -26 105 -44&#xA;41 -17 81 -31 88 -31 20 0 10 31 -13 44 -11 6 -38 23 -60 37 -39 25 -227 119&#xA;-239 119 -3 0 -39 15 -79 34 -40 18 -84 37 -97 41 -14 4 -50 20 -80 35 -30 16&#xA;-89 42 -130 60 -41 17 -90 37 -108 45 -41 19 -105 29 -114 19z"/>
    <path d="M770 4856 c0 -7 6 -18 13 -23 17 -14 158 -76 247 -109 82 -30 143&#xA;-56 205 -86 22 -10 69 -30 105 -44 36 -14 76 -30 90 -36 14 -6 30 -12 35 -14&#xA;6 -1 71 -25 145 -52 159 -59 210 -70 210 -47 0 17 -93 80 -143 97 -18 6 -34&#xA;14 -37 18 -3 3 -32 17 -65 30 -33 13 -88 36 -123 52 -34 15 -64 28 -66 28 -2&#xA;0 -43 18 -90 40 -48 22 -108 47 -134 56 -26 8 -54 18 -62 21 -8 4 -17 7 -20 8&#xA;-3 1 -12 4 -20 7 -8 4 -49 16 -90 28 -41 12 -89 26 -106 31 -46 14 -94 11 -94&#xA;-5z"/>
    <path d="M542 4403 c3 -19 65 -52 218 -118 47 -20 148 -67 225 -105 269 -131&#xA;351 -162 366 -138 14 22 -54 66 -270 176 -213 108 -397 180 -499 196 -38 6&#xA;-43 4 -40 -11z"/>
    <path d="M4373 2446 c-14 -21 149 -104 368 -186 108 -41 164 -48 164 -20 0 31&#xA;-249 155 -394 196 -85 24 -128 27 -138 10z"/>
    <path d="M1480 1904 c-29 -12 -59 -47 -65 -75 -7 -33 46 -155 91 -208 43 -51&#xA;23 -54 -49 -6 -38 25 -71 45 -74 45 -4 0 -22 12 -42 28 -20 15 -52 35 -71 46&#xA;-19 10 -43 25 -52 33 -65 57 -323 141 -392 128 -56 -11 -87 -28 -100 -54 -33&#xA;-63 63 -207 198 -300 62 -43 196 -111 218 -111 30 0 20 23 -22 53 -73 51 -195&#xA;167 -264 249 -57 68 -52 74 57 65 86 -7 110 -17 247 -101 58 -36 130 -79 160&#xA;-97 49 -29 129 -84 288 -196 87 -62 132 -84 154 -72 10 5 18 14 18 19 0 5 -43&#xA;69 -94 142 -52 73 -104 151 -116 173 -11 22 -32 60 -46 84 -35 60 -29 70 41&#xA;60 178 -24 278 -71 390 -185 105 -105 207 -257 254 -376 8 -20 18 -28 36 -28&#xA;28 0 32 10 43 107 l7 61 70 -28 c39 -15 102 -40 141 -54 62 -23 214 -110 259&#xA;-148 38 -32 78 -73 92 -95 10 -15 24 -23 37 -21 33 5 34 65 0 103 -14 17 -32&#xA;42 -40 58 -8 15 -19 27 -23 27 -5 0 -22 11 -38 24 -40 34 -246 140 -323 166&#xA;-36 12 -84 31 -107 41 -51 23 -106 25 -123 4 -7 -8 -16 -15 -20 -15 -5 0 -30&#xA;30 -56 68 -26 37 -93 113 -149 169 -86 86 -115 107 -186 141 -46 22 -106 48&#xA;-134 57 -51 18 -188 30 -215 19z"/>
    <path d="M3690 1881 c0 -10 67 -56 98 -65 12 -4 22 -12 22 -17 0 -5 7 -9 15&#xA;-9 8 0 38 -11 67 -25 81 -37 392 -159 498 -194 52 -17 104 -36 115 -41 26 -12&#xA;100 -39 147 -53 29 -8 41 -8 50 1 9 9 8 15 -8 27 -27 22 -210 109 -329 157&#xA;-55 22 -133 56 -173 74 -41 19 -79 34 -86 34 -7 0 -16 4 -21 9 -15 13 -174 68&#xA;-264 91 -85 21 -131 25 -131 11z"/>
    <path d="M2513 1793 c-28 -11 -13 -42 30 -62 122 -57 288 -131 295 -131 5 0&#xA;32 -11 60 -25 29 -14 57 -25 64 -25 6 0 19 -6 27 -13 9 -7 34 -19 56 -26 22&#xA;-8 81 -33 132 -57 50 -24 94 -44 97 -44 3 0 53 -22 111 -50 58 -27 108 -50&#xA;110 -50 2 0 57 -25 122 -56 189 -88 205 -96 243 -109 3 -1 28 -12 55 -24 54&#xA;-24 89 -39 237 -100 54 -23 100 -41 103 -41 2 0 41 -18 86 -40 45 -22 86 -40&#xA;90 -40 5 0 45 -18 90 -40 45 -22 86 -40 90 -40 5 0 56 -23 114 -51 57 -28 109&#xA;-48 115 -44 5 3 10 2 10 -3 0 -12 319 -170 397 -197 29 -10 56 -16 59 -12 14&#xA;13 -14 53 -57 82 -24 17 -50 36 -57 43 -7 6 -19 12 -26 12 -7 0 -24 8 -37 19&#xA;-57 44 -649 341 -681 341 -8 0 -23 7 -34 15 -10 8 -25 15 -32 15 -7 0 -29 10&#xA;-50 23 -20 13 -53 29 -72 36 -47 18 -84 34 -151 65 -31 14 -60 26 -65 26 -5 0&#xA;-31 12 -59 25 -27 14 -56 25 -62 25 -7 0 -13 5 -13 10 0 6 -11 10 -25 10 -14&#xA;0 -25 5 -25 10 0 6 -8 10 -17 10 -10 0 -31 7 -47 15 -15 8 -32 15 -37 15 -5 0&#xA;-51 20 -102 45 -52 25 -97 45 -101 45 -4 0 -41 16 -82 35 -41 19 -81 35 -88&#xA;35 -7 0 -19 7 -26 15 -7 8 -19 15 -26 15 -8 0 -54 18 -103 40 -49 22 -92 40&#xA;-96 40 -4 0 -21 6 -38 14 -92 40 -160 66 -171 66 -8 0 -51 15 -97 34 -84 33&#xA;-293 107 -300 105 -2 0 -10 -3 -16 -6z"/>
    <path d="M3420 1658 c0 -17 340 -188 374 -188 8 0 31 -9 53 -20 21 -11 85 -40&#xA;143 -66 98 -43 176 -78 276 -125 23 -10 45 -19 49 -19 5 0 42 -16 84 -36 42&#xA;-20 103 -49 136 -64 33 -15 131 -62 217 -104 87 -42 176 -83 198 -91 22 -8 64&#xA;-27 93 -43 29 -16 95 -45 147 -66 52 -20 127 -52 165 -71 139 -70 285 -120&#xA;285 -99 0 12 -46 46 -95 70 -27 14 -57 29 -65 34 -65 39 -580 280 -598 280 -6&#xA;0 -12 3 -14 8 -5 11 -111 62 -130 62 -9 0 -19 4 -23 9 -6 11 -134 81 -147 81&#xA;-4 0 -50 20 -102 45 -53 25 -100 45 -104 45 -5 0 -39 15 -78 34 -158 78 -285&#xA;136 -294 136 -6 0 -39 13 -73 29 -34 16 -84 36 -112 44 -27 8 -68 23 -90 32&#xA;-55 24 -223 81 -262 90 -25 5 -33 3 -33 -7z"/>
    <path d="M7133 1338 c-15 -26 99 -94 282 -169 44 -17 85 -36 91 -41 6 -4 35&#xA;-17 65 -27 52 -18 103 -40 236 -102 134 -62 376 -144 399 -135 16 6 14 11 -21&#xA;41 -42 35 -163 100 -255 135 -30 12 -91 39 -135 60 -44 21 -116 53 -160 71&#xA;-44 17 -84 35 -90 39 -5 4 -28 13 -50 20 -22 7 -45 17 -51 21 -6 5 -35 18 -65&#xA;28 -30 10 -79 27 -109 38 -73 26 -128 35 -137 21z"/>
    <path d="M3312 1141 c-26 -16 75 -73 303 -171 139 -60 207 -82 218 -71 8 8 6&#xA;15 -9 26 -41 32 -460 225 -488 225 -6 0 -17 -4 -24 -9z"/>
    <path d="M6422 948 c4 -25 137 -98 258 -140 41 -15 129 -48 195 -73 153 -59&#xA;220 -79 241 -71 15 6 15 9 -6 31 -12 13 -48 36 -79 52 -31 15 -58 30 -61 33&#xA;-10 11 -191 90 -206 90 -8 0 -23 5 -34 10 -11 6 -29 15 -40 20 -11 6 -28 10&#xA;-38 10 -10 0 -22 3 -26 7 -3 4 -14 8 -22 9 -9 1 -30 9 -47 17 -18 8 -56 17&#xA;-85 20 -50 6 -53 5 -50 -15z"/>
    <path d="M5910 859 c0 -18 9 -28 33 -39 17 -8 35 -13 40 -12 4 1 6 -3 5 -9 -2&#xA;-5 18 -19 44 -29 27 -10 85 -35 130 -55 126 -57 157 -70 228 -95 36 -12 82&#xA;-31 102 -41 46 -24 58 -24 58 -1 0 19 -120 104 -195 139 -22 10 -41 21 -43 26&#xA;-2 4 -11 7 -21 7 -9 0 -21 4 -26 9 -6 5 -50 26 -100 46 -49 20 -99 40 -110 45&#xA;-11 5 -33 12 -50 15 -100 19 -95 19 -95 -6z"/>
  </g>
  <title>Horse</title>
  <desc>Horse</desc>
</svg>