<?xml version="1.0" standalone="no"?>
<!DOCTYPE svg PUBLIC "-//W3C//DTD SVG 20010904//EN"
 "http://www.w3.org/TR/2001/REC-SVG-20010904/DTD/svg10.dtd">
<svg version="1.0" xmlns="http://www.w3.org/2000/svg"
 width="1024.000000pt" height="1024.000000pt" viewBox="0 0 1024.000000 1024.000000"
 preserveAspectRatio="xMidYMid meet">
<metadata>
Created by potrace 1.16, written by Peter Selinger 2001-2019
</metadata>
<g transform="translate(0.000000,1024.000000) scale(0.100000,-0.100000)"
fill="#000000" stroke="none">
<path d="M2133 9570 c-50 -12 -115 -54 -151 -99 -34 -42 -92 -156 -92 -180 0
-9 -6 -11 -17 -6 -82 35 -178 27 -239 -20 -34 -26 -84 -115 -84 -151 0 -20 -5
-21 -82 -22 -196 -3 -338 -92 -338 -212 0 -78 45 -113 172 -134 58 -10 1737
-7 1804 3 71 11 139 42 155 72 17 33 5 104 -25 144 -16 20 -53 47 -94 67 -63
31 -73 33 -177 33 -60 0 -125 -4 -142 -8 -30 -8 -34 -6 -44 20 -26 69 -100
112 -193 113 -56 0 -58 1 -52 23 4 12 9 58 12 102 5 71 3 85 -18 124 -13 25
-39 58 -59 74 -65 51 -237 81 -336 57z m160 -70 c178 -26 216 -110 151 -333
-16 -52 -16 -59 -2 -73 14 -14 20 -13 67 6 38 17 64 21 101 18 67 -7 98 -35
106 -99 9 -68 19 -73 92 -43 119 48 281 27 354 -46 67 -67 44 -102 -77 -118
-89 -12 -1329 -14 -1611 -3 -244 10 -267 16 -272 72 -3 31 2 41 30 64 74 63
213 94 300 68 71 -21 80 -13 93 79 12 90 83 155 155 143 19 -3 58 -18 86 -32
28 -15 57 -24 65 -21 9 3 22 38 33 81 27 115 91 202 171 231 48 18 70 18 158
6z"/>
<path d="M6605 9333 c-33 -1 -179 -7 -325 -13 -146 -6 -285 -13 -310 -15 -25
-2 -130 -9 -235 -15 -246 -14 -709 -53 -775 -65 -14 -3 -119 -16 -235 -29
-311 -37 -433 -60 -462 -88 -52 -48 -59 -78 -92 -388 -19 -175 -51 -550 -51
-598 0 -15 -6 -22 -19 -22 -10 0 -28 -8 -40 -17 -27 -24 -44 -156 -40 -308 4
-123 18 -155 66 -155 21 0 23 -3 19 -37 -3 -21 -8 -137 -11 -258 -3 -121 -8
-263 -10 -315 -3 -52 -12 -266 -20 -475 -8 -209 -17 -411 -20 -450 -2 -38 -4
-118 -5 -177 l0 -108 -80 0 c-77 0 -80 1 -80 23 0 49 -49 96 -101 97 -19 0
-40 5 -47 12 -8 8 -12 58 -12 159 l0 146 36 6 c87 14 86 57 -3 205 -87 146
-216 318 -245 326 -13 4 -140 10 -283 13 -228 5 -265 4 -292 -11 -33 -17 -145
-154 -282 -346 -78 -109 -82 -116 -75 -155 9 -54 9 -55 58 -55 l42 0 -3 -147
c-2 -81 -5 -149 -8 -151 -2 -3 -10 0 -17 5 -7 5 -35 18 -61 27 -39 15 -49 23
-54 47 -8 42 -61 83 -137 109 -36 12 -69 26 -72 32 -11 17 -8 284 2 279 5 -3
17 -15 27 -28 14 -17 29 -23 58 -23 36 0 42 5 99 77 33 42 63 87 66 99 7 26
-4 42 -156 236 -58 73 -199 253 -314 400 -114 147 -219 277 -234 289 -25 20
-34 21 -147 14 -150 -8 -499 -38 -593 -51 -37 -6 -50 -15 -105 -78 -249 -282
-637 -780 -637 -818 0 -24 28 -77 78 -148 39 -55 39 -55 96 -58 l57 -3 -2
-112 c-1 -62 -4 -133 -7 -159 l-4 -48 -52 0 c-108 -1 -196 -75 -196 -166 0
-17 -8 -27 -24 -34 -13 -4 -33 -21 -46 -37 -19 -24 -21 -36 -16 -84 5 -46 4
-58 -9 -62 -8 -4 -15 -11 -15 -18 0 -8 58 -9 212 -5 117 3 411 8 653 11 829
10 1180 17 1191 27 9 6 11 66 8 208 -5 224 -11 210 74 185 61 -18 82 -44 82
-101 0 -54 18 -70 61 -55 24 8 39 7 65 -4 60 -25 101 -124 52 -126 -60 -2
-112 -23 -105 -42 2 -8 46 -13 138 -15 139 -4 971 13 1213 25 l139 6 -6 -74
c-4 -41 -6 -86 -7 -100 0 -25 -3 -27 -102 -43 -57 -9 -109 -18 -117 -20 -8 -1
-28 4 -45 13 -27 14 -70 16 -296 13 -565 -6 -940 -26 -1092 -58 -15 -3 -43
-23 -62 -44 -63 -70 -432 -632 -616 -940 -51 -85 -143 -236 -203 -335 -231
-378 -462 -780 -689 -1195 -254 -466 -258 -475 -258 -544 0 -54 6 -71 64 -180
35 -67 91 -166 124 -221 101 -165 331 -496 424 -608 114 -138 132 -147 301
-147 69 0 204 4 299 10 95 5 268 14 383 20 116 6 233 13 260 15 28 3 169 12
315 20 146 8 317 20 380 25 63 5 153 11 200 15 47 3 120 8 163 12 l78 6 -6
-39 c-4 -22 -20 -109 -37 -194 -88 -463 -87 -457 -66 -478 7 -7 25 -12 41 -12
35 0 49 29 73 161 10 51 21 98 25 103 4 4 74 -4 156 -18 81 -14 285 -50 453
-79 l305 -54 5 -62 c5 -59 17 -80 46 -81 32 0 36 29 35 266 l-2 237 38 -6 c21
-3 234 -39 473 -80 421 -73 697 -118 925 -153 61 -9 113 -19 118 -23 4 -4 10
-78 12 -165 5 -164 13 -196 45 -196 33 0 40 33 40 194 0 86 3 156 8 156 4 0
131 -18 282 -41 318 -46 761 -109 772 -109 5 0 8 -67 8 -149 0 -130 2 -152 18
-172 23 -27 48 -21 62 15 5 14 10 84 11 155 1 124 2 131 21 131 11 0 124 -13
251 -29 128 -16 261 -32 297 -36 36 -3 82 -8 103 -11 l37 -6 0 -100 c0 -106 9
-138 40 -138 34 0 53 44 59 138 l6 87 40 -2 c22 -1 104 -7 182 -12 220 -17
290 -15 329 9 57 36 103 139 224 498 128 384 223 729 625 2257 42 160 97 362
122 450 28 97 48 193 53 245 4 47 8 347 9 668 2 632 2 621 -53 657 -33 22
-335 61 -931 121 -27 2 -66 7 -85 9 -100 13 -351 35 -900 81 -130 11 -143 17
-79 34 114 31 125 49 133 235 14 298 15 308 39 327 12 10 49 32 83 50 l61 32
37 -18 c44 -21 66 -10 66 33 0 33 26 71 48 71 15 0 17 -15 14 -152 -4 -205 0
-193 -66 -193 -80 0 -140 -50 -153 -128 -4 -30 -2 -38 12 -44 13 -4 23 1 34
18 29 45 69 79 93 79 13 0 41 -9 62 -21 24 -12 42 -17 48 -11 5 5 16 40 23 77
22 106 80 165 160 165 72 0 115 -55 115 -149 0 -89 17 -100 83 -55 48 32 95
40 122 20 17 -12 20 -25 18 -80 l-1 -66 51 -1 c29 0 59 -2 67 -3 8 -2 112 -6
230 -10 240 -8 287 -10 580 -32 232 -18 289 -19 303 -5 12 12 0 30 -28 41 -21
8 -22 11 -12 59 5 27 6 67 2 87 -9 50 -60 100 -117 115 l-44 12 4 56 c2 44 -1
63 -18 89 -21 34 -81 68 -135 75 -25 3 -32 11 -47 51 -29 81 -80 120 -147 112
-38 -4 -39 -3 -45 32 -3 21 -6 161 -6 313 l0 277 76 4 c52 2 78 8 84 18 5 8
10 58 10 109 l0 95 -52 49 c-180 169 -627 532 -687 557 -30 12 -33 11 -168
-92 -449 -340 -523 -398 -547 -431 -18 -24 -21 -43 -21 -132 0 -118 13 -145
69 -145 17 0 41 -3 54 -6 l23 -7 -7 -236 c-4 -130 -8 -252 -9 -271 -1 -19 -3
-61 -4 -92 -1 -54 -3 -58 -28 -64 -54 -11 -72 -24 -93 -64 -17 -34 -25 -40
-52 -40 -17 0 -60 -16 -95 -35 -62 -34 -63 -34 -64 -12 -2 28 -2 9 5 182 14
307 26 562 31 640 3 44 10 175 15 290 6 116 21 431 35 700 35 691 36 663 -37
731 -46 43 -392 282 -578 400 -218 139 -236 144 -485 142 -110 -1 -227 -3
-260 -5z m431 -235 c-4 -57 -9 -123 -11 -148 -3 -25 -9 -107 -14 -183 -5 -77
-11 -141 -14 -143 -2 -2 -75 -13 -163 -24 -87 -11 -175 -22 -194 -25 -19 -2
-89 -11 -155 -19 -375 -47 -779 -99 -910 -117 -129 -18 -179 -20 -350 -15
-110 4 -234 9 -275 11 -70 5 -463 22 -612 27 -62 3 -68 5 -68 24 0 52 51 475
60 498 5 14 13 26 18 26 5 0 69 9 143 21 284 43 800 97 1099 114 58 3 119 8
135 10 17 2 93 7 170 10 77 4 163 8 190 10 28 2 147 7 265 11 118 4 216 8 218
9 1 1 109 3 239 4 l236 2 -7 -103z m193 20 c137 -82 528 -350 620 -425 l23
-19 -11 -185 c-6 -101 -15 -290 -21 -419 -5 -129 -12 -271 -15 -315 -14 -246
-25 -464 -45 -950 -5 -126 -12 -268 -15 -315 -9 -160 -14 -265 -20 -400 -11
-289 -17 -355 -28 -366 -7 -6 -34 -19 -62 -29 -103 -36 -582 -228 -627 -251
-84 -43 -81 -50 -74 164 9 272 19 518 36 927 13 296 18 432 30 745 12 306 28
663 35 780 3 47 10 175 15 285 12 252 27 485 40 640 5 66 10 135 10 153 0 17
5 32 11 32 6 0 50 -23 98 -52z m-233 -630 c-3 -35 -8 -133 -11 -218 -3 -85 -7
-195 -10 -245 -4 -86 -8 -171 -20 -525 -3 -85 -8 -202 -10 -260 -2 -58 -7
-177 -10 -265 -3 -88 -7 -203 -10 -255 -3 -52 -7 -176 -10 -275 -3 -99 -8
-214 -10 -255 -2 -41 -7 -172 -11 -290 -4 -118 -9 -276 -13 -350 l-6 -135
-645 -1 c-721 -1 -1147 10 -1570 41 -516 38 -520 39 -520 59 0 6 5 112 10 236
20 455 30 688 35 835 3 83 7 193 10 245 3 52 7 178 10 280 10 343 17 485 24
493 4 4 8 -34 9 -85 2 -104 14 -169 47 -243 27 -62 102 -162 144 -193 39 -28
190 -102 209 -102 12 0 13 -14 8 -77 -7 -79 -8 -88 -25 -253 -6 -52 -14 -184
-17 -293 l-7 -199 -43 -40 c-50 -47 -95 -128 -87 -158 8 -31 24 -24 75 32 l47
53 1 -197 0 -198 25 -16 c13 -9 42 -20 62 -25 68 -15 335 -33 498 -34 l160 0
135 93 c74 51 153 108 175 126 l40 34 3 165 3 166 57 7 c31 4 113 4 182 1 215
-10 404 -73 561 -187 75 -55 84 -58 93 -34 16 42 -93 150 -214 214 -144 74
-317 110 -554 113 l-126 2 0 150 c0 83 -3 254 -6 380 l-5 230 23 -30 c84 -110
192 -191 309 -230 63 -22 86 -24 188 -22 135 4 207 27 324 105 116 78 216 230
234 358 10 74 -15 52 -75 -69 -42 -82 -69 -122 -119 -172 -140 -141 -351 -199
-525 -145 -62 19 -186 96 -218 135 -14 17 -13 18 10 11 173 -51 283 -59 413
-30 114 26 190 69 289 163 139 131 191 259 192 468 l1 111 35 6 c19 3 47 6 63
6 53 0 67 29 67 135 0 164 -36 346 -68 345 -40 -1 -264 -30 -582 -74 -212 -30
-405 -57 -430 -60 -216 -27 -370 -47 -392 -52 l-28 -6 0 62 c0 58 -1 61 -22
58 -18 -2 -27 -16 -43 -62 l-20 -59 -140 7 c-120 6 -334 24 -470 41 -22 2 -67
7 -100 9 -129 11 -282 26 -319 32 l-39 6 7 87 c3 47 9 117 13 155 l6 68 151
-7 c83 -3 219 -10 301 -15 83 -4 157 -8 165 -8 8 1 101 -3 205 -8 276 -13 378
-10 585 19 102 15 208 29 235 32 47 6 100 13 375 50 58 8 197 26 310 41 113
14 243 32 290 39 133 20 122 24 116 -47z m1838 -768 c73 -114 233 -375 232
-377 -5 -7 -856 -14 -856 -7 1 5 29 30 63 56 34 25 163 123 287 217 124 94
227 171 230 171 3 0 23 -27 44 -60z m-2192 -95 c14 -90 -15 -226 -67 -320 -38
-69 -127 -158 -199 -200 -66 -39 -163 -64 -272 -71 -78 -6 -103 -3 -165 16
-210 63 -321 185 -360 394 -12 64 -4 155 15 161 6 3 92 9 191 15 250 15 322
19 462 30 67 6 166 13 220 16 54 4 100 8 103 11 2 2 18 3 35 1 28 -3 30 -7 37
-53z m2569 -140 c196 -156 211 -170 184 -173 -37 -5 -217 16 -226 26 -5 5
-145 233 -207 336 -8 14 14 -2 249 -189z m-3996 6 l0 -104 -45 -19 c-25 -11
-80 -37 -123 -59 -43 -21 -80 -39 -81 -39 -1 0 -1 25 2 55 9 108 -51 194 -126
181 -143 -23 -181 -233 -53 -291 l40 -18 -64 -48 c-35 -27 -70 -57 -77 -68
-13 -19 -16 -18 -96 19 -137 64 -216 163 -256 316 -17 67 -20 104 -10 153 l7
31 441 -2 441 -3 0 -104z m275 32 c0 -43 3 -87 6 -99 5 -20 2 -20 -100 -20
l-106 1 0 91 c0 50 3 94 7 97 3 4 48 7 100 7 l93 0 0 -77z m-3997 -455 c-146
-183 -295 -368 -331 -410 l-64 -78 -294 0 c-162 0 -294 3 -294 8 0 15 563 706
606 743 14 12 58 20 158 29 181 15 202 17 326 25 58 4 107 9 109 11 2 2 15 4
28 4 19 0 -21 -54 -244 -332z m424 215 c83 -106 306 -393 460 -592 l112 -145
-30 -43 c-17 -24 -33 -43 -37 -43 -4 0 -19 18 -34 38 -15 21 -120 153 -235
293 -114 140 -226 278 -248 306 -44 57 -59 67 -81 55 -19 -10 -101 -109 -359
-432 -117 -146 -222 -273 -233 -283 -20 -18 -20 -17 -41 38 -15 40 -18 61 -11
74 5 10 87 115 181 232 95 118 240 298 322 402 83 103 154 187 158 187 4 0 38
-39 76 -87z m3586 26 c20 -5 37 -13 37 -17 0 -4 -60 -65 -133 -137 -73 -71
-141 -142 -151 -157 -26 -40 -35 -194 -42 -739 -7 -485 -6 -505 33 -466 11 11
16 46 18 138 2 68 7 221 10 339 9 310 32 675 43 697 6 10 63 70 127 133 l116
115 20 -25 c20 -25 20 -36 14 -590 -4 -311 -8 -592 -10 -625 -2 -33 -3 -70 -4
-82 -1 -17 -32 -42 -128 -106 -179 -118 -157 -110 -297 -103 -344 17 -444 28
-459 49 -14 22 7 749 28 953 2 27 9 99 15 159 19 200 16 192 74 235 59 44 367
206 429 226 51 15 208 18 260 3z m3587 -98 l0 -51 -112 -1 c-62 0 -268 -1
-458 -2 l-345 -2 -3 47 -3 47 83 3 c46 2 253 4 461 6 l377 3 0 -50z m203 29
c43 -5 101 -10 128 -10 40 0 49 -3 50 -17 0 -10 2 -35 5 -55 5 -45 17 -43
-161 -23 -71 8 -136 15 -142 15 -9 0 -13 18 -13 55 0 54 0 54 28 50 15 -3 62
-9 105 -15z m-288 -340 c-1 -346 -14 -1040 -20 -1050 -7 -11 -94 -12 -135 -1
-14 3 -25 12 -26 19 -1 6 -2 23 -2 37 -1 14 -17 42 -36 63 -32 34 -39 37 -88
37 -29 0 -62 -3 -74 -8 -18 -6 -22 -2 -33 35 -18 62 -54 112 -94 131 -48 23
-133 22 -181 -3 l-39 -19 7 277 c8 367 16 568 22 619 l5 42 117 3 c64 2 221 3
347 3 l230 0 0 -185z m235 172 l75 -7 3 -618 2 -618 -87 5 c-49 2 -107 5 -129
5 l-42 1 3 48 c2 26 7 303 10 617 4 313 9 573 11 577 3 4 22 5 42 2 20 -3 71
-9 112 -12z m-7279 -164 c68 -84 155 -191 194 -238 40 -47 77 -95 83 -107 13
-24 12 -829 -2 -851 -5 -8 -39 -12 -107 -12 l-99 0 0 271 c0 167 -4 278 -10
290 -10 17 -23 19 -164 19 -143 0 -154 -1 -172 -21 -17 -19 -19 -42 -22 -283
-2 -143 -5 -266 -7 -272 -2 -8 -58 -11 -176 -10 l-173 1 3 355 3 355 41 57
c97 132 473 598 483 598 2 0 58 -69 125 -152z m1285 -199 c87 -1 181 -4 208
-8 l49 -6 118 -184 c65 -102 117 -186 116 -188 -4 -3 -136 -11 -313 -18 l-141
-6 -43 73 c-24 40 -83 132 -131 205 -88 131 -88 132 -61 135 15 2 30 3 33 1 3
-1 77 -3 165 -4z m-171 -206 c68 -103 121 -191 117 -195 -4 -4 -125 -10 -270
-14 -222 -6 -262 -5 -262 7 0 13 276 389 286 389 2 0 60 -84 129 -187z m-1953
-44 c9 -24 17 -47 17 -51 1 -5 -134 -8 -298 -8 l-299 0 -26 46 c-14 26 -26 48
-26 50 0 7 106 9 355 8 l260 -2 17 -43z m8385 -128 c11 -14 17 -46 25 -121 3
-24 5 -25 76 -25 65 0 76 -3 93 -24 24 -30 24 -58 -1 -122 -27 -67 -17 -79 60
-79 44 0 64 -5 85 -22 25 -19 27 -26 22 -69 -3 -27 -10 -57 -16 -67 -11 -20
-3 -20 -236 7 -49 6 -113 11 -142 11 -89 0 -83 -18 -83 247 0 147 4 242 11
254 21 40 80 45 106 10z m-8270 -316 c-3 -174 -7 -318 -9 -320 -2 -2 -127 -7
-278 -11 l-273 -7 6 239 c4 131 7 276 7 321 0 70 3 82 18 85 9 2 134 5 276 7
l259 3 -6 -317z m2414 -5 c-1 -123 -5 -227 -7 -230 -3 -2 -84 -6 -180 -8
l-174 -4 2 228 3 229 50 6 c28 3 108 6 179 5 l129 -1 -2 -225z m-431 -9 l0
-229 -57 -4 c-106 -7 -99 -18 -94 156 4 181 3 182 -93 178 -33 -2 -64 -6 -68
-10 -4 -4 -8 -69 -9 -145 -3 -200 3 -187 -85 -187 l-74 0 2 228 3 227 90 3
c50 1 101 4 115 5 14 2 80 4 148 5 l122 2 0 -229z m-1262 107 l3 -108 -41 -6
c-34 -6 -41 -10 -38 -28 2 -16 11 -22 41 -24 l37 -3 0 -120 0 -119 -115 0
-115 0 0 255 0 254 93 4 c50 2 101 3 112 3 19 -1 20 -9 23 -108z m-1379 -179
l31 -11 0 -118 0 -118 -52 -6 c-29 -3 -87 -8 -130 -11 -71 -6 -77 -5 -83 14
-12 40 2 58 51 64 62 7 71 17 54 67 -18 54 -5 90 40 112 41 21 47 21 89 7z
m3227 -103 c9 -36 -2 -46 -47 -46 -36 0 -39 2 -39 28 0 37 6 42 46 42 27 0 35
-5 40 -24z m3759 -366 c96 -10 120 -12 400 -35 169 -14 209 -18 310 -30 22 -3
76 -7 120 -11 93 -7 122 -18 79 -28 -72 -18 -492 -192 -515 -213 -29 -27 -48
-67 -76 -158 -16 -54 -21 -60 -43 -58 -14 2 -212 14 -440 28 -486 29 -626 37
-660 40 -14 1 -59 3 -100 3 -45 1 -70 6 -65 11 11 10 147 83 540 289 132 69
258 136 280 148 46 27 49 27 170 14z m-3514 -54 c20 -17 46 -26 86 -31 32 -3
96 -10 143 -15 47 -5 153 -14 235 -20 83 -6 174 -13 203 -16 l52 -5 0 -110 c0
-108 0 -109 -22 -105 -13 3 -113 10 -223 16 -110 6 -263 15 -340 20 -77 6
-315 22 -530 36 -214 14 -392 27 -394 30 -7 6 80 40 189 72 201 60 406 115
485 133 44 9 82 17 84 18 2 1 16 -10 32 -23z m-616 -15 c-6 -5 -41 -19 -80
-31 -113 -37 -231 -90 -251 -112 -16 -17 -20 -42 -24 -169 -3 -81 -9 -152 -15
-158 -6 -6 -201 -12 -489 -17 -405 -5 -478 -4 -471 7 70 119 294 439 308 439
6 0 84 7 172 15 134 13 333 21 800 33 34 1 55 -2 50 -7z m5660 -81 c424 -46
475 -52 475 -60 0 -4 -73 -65 -162 -135 -90 -71 -171 -135 -180 -143 -15 -12
-32 -13 -115 -3 -138 17 -512 60 -613 71 -212 23 -357 41 -380 46 -23 6 -20 9
30 31 30 14 163 66 295 115 132 50 251 97 265 104 16 9 41 12 70 9 25 -3 167
-19 315 -35z m-3815 -15 c30 -2 264 -7 520 -11 256 -4 488 -7 515 -8 l50 -1 3
-127 3 -128 -44 0 c-38 0 -389 18 -682 35 -49 3 -223 12 -385 20 -162 9 -311
17 -330 18 l-35 3 -3 108 -3 108 168 -7 c92 -4 193 -8 223 -10z m1579 -18 c-8
-8 -406 -227 -411 -227 -11 0 -7 215 5 222 11 7 415 12 406 5z m2799 -584 c-4
-669 -6 -694 -60 -882 l-45 -153 -213 263 c-117 145 -219 271 -226 279 -11 13
2 72 70 343 45 180 89 334 97 342 17 17 372 285 377 285 2 0 2 -215 0 -477z
m-6150 420 l62 -6 0 -61 c0 -54 15 -140 35 -203 7 -21 4 -23 -36 -23 -169 0
-328 -232 -329 -477 0 -86 5 -103 34 -103 12 0 82 36 156 80 163 96 234 165
269 258 l23 61 84 -87 85 -86 -28 -66 c-35 -85 -36 -86 -84 -94 -128 -20 -224
-139 -270 -334 -31 -128 -18 -318 25 -377 14 -20 15 -20 59 2 65 31 173 137
227 220 l47 73 22 -56 c28 -67 114 -164 145 -164 39 0 90 87 132 227 22 73 27
109 27 209 l1 120 41 -22 c41 -23 71 -35 234 -99 100 -38 157 -73 205 -124 17
-17 40 -31 53 -31 37 0 45 30 28 111 -64 301 -169 481 -340 579 -55 31 -249
100 -283 100 -31 0 -34 13 -21 82 6 35 11 105 11 156 1 87 2 92 22 92 19 0
221 -13 396 -25 131 -9 560 -34 690 -40 69 -3 145 -8 170 -10 25 -3 182 -12
350 -20 168 -9 382 -20 475 -25 94 -5 217 -12 275 -15 58 -4 168 -10 245 -16
77 -5 221 -14 320 -19 99 -6 248 -14 330 -20 83 -5 191 -12 240 -15 115 -6
205 -16 205 -21 0 -6 -366 -1279 -450 -1564 -15 -52 -55 -192 -90 -310 -34
-118 -65 -219 -69 -223 -8 -8 -96 -2 -396 27 -228 23 -226 22 -262 66 -60 70
-300 274 -483 411 -193 144 -490 319 -635 375 -61 23 -85 27 -195 28 -127 1
-419 -11 -455 -20 -11 -2 -112 -11 -225 -19 -347 -25 -729 -54 -850 -65 -343
-30 -521 -42 -528 -36 -8 9 -13 1523 -5 1580 l6 39 121 -7 c66 -3 149 -9 184
-13z m444 -29 l88 -7 9 -34 c10 -36 1 -162 -19 -247 -13 -58 -67 -202 -88
-234 l-15 -23 -69 68 c-153 150 -213 283 -209 457 l1 39 108 -6 c59 -4 146 -9
194 -13z m4239 -89 c14 -1 50 -5 80 -9 30 -3 77 -9 104 -11 28 -3 104 -12 170
-20 66 -8 185 -22 265 -30 80 -8 174 -19 210 -25 36 -5 86 -12 113 -15 39 -5
47 -10 47 -27 0 -22 -137 -565 -146 -580 -8 -13 -105 -9 -314 12 -366 37 -685
70 -770 80 -47 5 -91 10 -99 10 -19 0 -15 16 81 348 l82 284 76 -7 c41 -4 87
-9 101 -10z m-5121 -199 c0 -26 -6 -57 -14 -69 -26 -40 -424 -754 -572 -1025
-80 -147 -151 -272 -157 -279 -14 -14 -42 -19 -152 -28 -142 -12 -549 -54
-583 -61 -40 -8 -57 -34 -38 -59 12 -17 24 -18 222 -6 115 7 286 19 379 27 94
7 187 14 208 14 l37 0 -105 -202 c-58 -112 -153 -297 -212 -413 -58 -115 -106
-211 -107 -212 -2 -3 -257 -19 -431 -28 -60 -3 -148 -7 -195 -10 -47 -3 -164
-7 -260 -10 -96 -3 -232 -8 -303 -11 -71 -3 -127 -1 -127 4 0 25 312 598 543
997 237 409 669 1127 811 1347 l36 58 213 2 c116 2 346 5 510 7 l297 3 0 -46z
m583 -103 c-3 -67 -33 -130 -89 -185 -48 -47 -242 -173 -252 -163 -3 3 0 38 6
78 14 80 63 194 108 246 41 49 117 82 179 79 l50 -3 -2 -52z m543 -49 c49 -14
117 -39 151 -55 75 -36 168 -119 215 -191 29 -46 122 -297 113 -306 -2 -2 -22
8 -45 23 -23 15 -106 51 -184 82 -180 70 -226 95 -282 155 -76 81 -113 183
-100 272 9 55 11 56 132 20z m-1116 -599 l0 -555 -32 -1 c-18 0 -44 -2 -58 -4
-14 -2 -128 -13 -255 -25 -126 -11 -247 -23 -267 -26 -28 -4 -38 -2 -38 8 0
24 633 1157 647 1158 1 0 3 -250 3 -555z m930 428 c0 -9 17 -45 38 -81 20 -35
43 -75 51 -89 7 -14 18 -70 24 -125 9 -84 9 -112 -5 -176 -18 -86 -50 -178
-73 -208 -14 -18 -16 -18 -45 16 -136 158 -151 409 -39 632 28 55 49 68 49 31z
m4106 -193 c324 -34 459 -48 529 -55 28 -3 93 -10 145 -16 52 -5 123 -13 157
-16 61 -6 63 -6 57 -32 -4 -14 -43 -161 -86 -326 -97 -364 -122 -459 -181
-685 -42 -160 -69 -260 -173 -650 -38 -141 -171 -617 -225 -805 -17 -60 -34
-113 -38 -116 -6 -6 -174 7 -321 26 -19 3 -57 7 -85 10 -27 3 -64 8 -82 10
-34 5 -342 40 -486 55 -49 6 -101 12 -115 14 -15 3 -108 15 -207 26 -99 12
-184 25 -188 29 -4 4 27 104 69 222 134 375 191 532 217 599 l24 65 54 -2 c30
0 180 -17 334 -37 l280 -36 17 20 c20 25 14 48 -16 55 -11 3 -79 14 -151 25
-226 33 -280 43 -288 50 -5 4 17 95 48 201 31 107 88 302 127 434 96 329 278
958 278 962 0 5 24 3 306 -27z m-4303 -160 c4 -132 -8 -187 -57 -265 -44 -67
-165 -180 -179 -166 -16 16 -21 160 -7 241 12 72 68 199 107 243 19 21 112 69
126 64 4 -1 9 -54 10 -117z m5492 -270 c130 -164 215 -278 215 -292 0 -25
-104 -430 -246 -963 -168 -626 -269 -991 -329 -1190 -72 -239 -191 -579 -228
-651 l-25 -49 -16 38 c-9 20 -23 54 -32 75 -50 118 -208 541 -249 664 l-19 57
82 288 c45 158 188 686 317 1173 291 1090 299 1120 311 1120 2 0 100 -121 219
-270z m-4045 -314 c0 -2 -19 -37 -43 -78 -61 -103 -210 -382 -314 -588 l-88
-175 -358 -29 c-196 -16 -360 -26 -363 -23 -9 8 406 815 432 841 8 9 52 16
121 20 59 4 135 9 168 13 150 14 445 27 445 19z m250 -67 c227 -110 522 -308
754 -509 157 -135 162 -139 150 -140 -15 0 -209 19 -249 25 -16 2 -73 7 -126
11 l-95 7 -43 -44 c-87 -90 -355 -518 -501 -802 -36 -70 -68 -127 -72 -127 -3
0 -17 19 -31 43 -13 23 -64 110 -112 192 -83 142 -239 435 -277 518 l-18 39
104 201 c98 190 207 393 307 570 42 75 45 78 74 73 16 -3 77 -29 135 -57z
m-1070 16 c0 -1 -247 -475 -367 -705 -36 -69 -71 -131 -78 -139 -15 -16 -112
-26 -465 -51 -80 -5 -173 -12 -206 -15 -166 -14 -748 -54 -751 -51 -1 1 93
191 210 422 l212 419 55 7 c30 4 114 12 185 18 72 6 148 13 170 15 82 9 636
54 810 66 99 6 182 13 183 15 3 2 42 2 42 -1z m-1534 -140 c-14 -38 -406 -800
-418 -814 -12 -14 -50 -19 -218 -29 -111 -7 -204 -11 -206 -10 -4 5 393 784
420 825 2 2 182 21 276 29 47 3 87 8 89 10 2 2 18 4 34 4 21 0 28 -4 23 -15z
m3194 -605 c77 -9 191 -20 370 -36 36 -3 76 -7 90 -10 14 -2 128 -13 255 -25
126 -11 230 -21 231 -22 1 -1 -59 -166 -133 -367 -73 -201 -146 -400 -161
-442 -15 -43 -33 -78 -39 -78 -7 0 -97 11 -200 25 -191 26 -204 27 -328 45
-38 5 -137 19 -220 30 -300 40 -455 64 -466 71 -13 7 22 74 159 314 170 296
312 505 342 505 8 0 53 -5 100 -10z m-1194 -267 c121 -233 369 -657 445 -765
l19 -26 -27 -6 c-33 -7 -296 -44 -368 -52 -27 -3 -79 -9 -115 -14 -36 -5 -106
-12 -156 -16 l-91 -7 -150 264 c-166 290 -373 677 -373 696 0 15 25 18 325 43
132 11 256 21 275 23 19 2 58 5 87 5 l51 2 78 -147z m-831 -60 c100 -195 246
-462 358 -652 54 -91 97 -171 97 -178 0 -7 -8 -13 -17 -13 -10 0 -101 -9 -203
-20 -306 -32 -656 -62 -980 -85 -94 -7 -305 -23 -390 -30 -30 -2 -111 -7 -180
-11 l-126 -7 -131 219 c-223 374 -440 769 -426 777 8 5 37 7 413 32 340 22
381 25 430 30 25 3 88 7 140 10 52 3 120 8 150 10 105 10 456 35 565 42 61 3
112 7 114 9 2 2 29 4 60 4 l56 0 70 -137z m-2042 -83 c97 -188 248 -458 378
-675 78 -129 140 -237 138 -239 -4 -3 -248 -19 -489 -31 -392 -21 -489 -25
-597 -25 l-122 0 -37 32 c-31 28 -127 146 -174 214 -8 12 -60 87 -115 166 -56
78 -117 168 -137 198 -68 105 -208 344 -208 356 0 16 59 22 295 29 229 6 765
33 890 45 142 12 134 15 178 -70z m3782 -525 c149 -20 365 -50 480 -66 116
-16 244 -33 285 -39 153 -21 137 -13 159 -88 35 -119 192 -744 189 -751 -3 -7
-87 4 -558 73 -844 124 -1717 273 -2058 351 -78 18 -86 26 -99 101 -6 38 -8
37 177 54 286 26 906 103 980 122 66 16 118 45 125 69 9 28 -1 78 -30 144 -36
80 -35 83 28 74 28 -4 174 -24 322 -44z m1305 -175 c227 -28 499 -60 680 -79
41 -5 171 -19 289 -32 l214 -24 15 -35 c16 -37 138 -367 227 -610 29 -80 56
-153 60 -162 6 -16 1 -18 -46 -18 -165 0 -804 69 -1314 140 -115 17 -212 30
-216 30 -10 0 -23 47 -129 456 -50 192 -88 354 -86 360 2 6 17 9 33 7 15 -2
138 -17 273 -33z m-3018 -260 c37 -159 67 -183 278 -220 118 -21 110 -8 104
-171 -2 -79 -6 -144 -8 -146 -3 -3 -243 37 -693 118 -100 17 -187 35 -194 39
-9 6 -6 42 14 151 15 79 29 161 33 182 3 20 10 39 14 42 12 8 64 13 230 26 85
6 157 13 160 16 2 2 15 3 29 1 19 -2 27 -11 33 -38z"/>
<path d="M4280 7052 c0 -47 92 -140 177 -179 62 -29 156 -30 161 -2 2 12 -10
20 -45 29 -85 23 -167 66 -225 119 -31 28 -59 51 -62 51 -3 0 -6 -8 -6 -18z"/>
<path d="M5831 7513 c-48 -25 -73 -63 -79 -122 -10 -104 28 -173 103 -187 49
-9 112 22 140 69 25 42 26 139 2 184 -33 62 -107 87 -166 56z"/>
<path d="M8559 6943 c-18 -21 -25 -212 -10 -242 10 -19 21 -21 89 -21 115 0
119 5 121 134 3 144 1 146 -103 146 -65 0 -87 -4 -97 -17z"/>
<path d="M9172 6923 c-12 -23 -25 -207 -17 -234 4 -13 15 -19 36 -19 l30 0 -3
132 c-3 115 -5 133 -20 136 -9 2 -21 -5 -26 -15z"/>
<path d="M9181 6326 c-8 -9 -11 -50 -9 -117 3 -91 5 -104 21 -107 38 -8 47 15
47 123 0 85 -3 104 -16 109 -23 9 -30 8 -43 -8z"/>
<path d="M840 6181 c-5 -11 -10 -63 -10 -116 0 -133 2 -135 104 -135 62 0 87
4 96 15 20 24 20 233 0 245 -8 5 -52 10 -97 10 -71 0 -84 -3 -93 -19z"/>
<path d="M3470 6102 c-19 -2 -38 -9 -42 -15 -13 -20 -9 -144 5 -154 11 -10 55
-8 86 2 10 4 13 22 9 81 -3 41 -9 78 -14 82 -5 4 -25 6 -44 4z"/>
<path d="M5131 4406 c-17 -20 -3 -44 27 -50 39 -8 114 -15 227 -21 55 -3 120
-8 145 -10 25 -3 92 -7 150 -10 58 -3 168 -10 245 -15 77 -6 178 -13 225 -15
47 -3 141 -10 210 -15 69 -5 168 -12 220 -15 52 -3 185 -12 295 -20 488 -35
566 -38 582 -23 20 21 6 47 -30 52 -18 3 -108 10 -202 16 -93 6 -298 19 -455
30 -157 10 -364 24 -460 30 -96 5 -202 12 -235 15 -52 4 -351 24 -630 41 -49
3 -134 9 -189 15 -122 11 -111 12 -125 -5z"/>
<path d="M8722 8961 c-66 -23 -133 -86 -162 -153 l-21 -48 -60 0 c-33 0 -76
-7 -97 -16 -147 -61 -184 -272 -55 -315 27 -8 184 -12 577 -13 498 -1 545 0
587 17 53 20 75 56 64 105 -12 57 -92 102 -180 102 -42 0 -44 2 -73 54 -44 78
-86 101 -185 102 l-78 0 -23 50 c-28 58 -57 87 -111 109 -60 26 -123 28 -183
6z m173 -81 c43 -27 64 -60 72 -115 3 -25 11 -53 18 -62 12 -16 16 -16 58 5
52 26 106 28 148 7 34 -18 69 -69 69 -101 0 -33 20 -43 90 -42 69 1 140 -21
140 -44 -1 -44 7 -43 -502 -43 -266 0 -521 2 -568 5 -78 5 -85 7 -99 31 -13
24 -13 31 3 73 25 65 65 91 141 91 33 -1 74 -7 92 -15 18 -8 35 -11 39 -7 4 4
11 32 15 63 9 68 46 127 96 153 52 28 144 28 188 1z"/>
<path d="M3045 8226 c-61 -28 -96 -68 -121 -135 -17 -48 -20 -51 -52 -51 -77
0 -202 -89 -202 -145 0 -14 13 -39 29 -57 l29 -33 444 -3 c244 -2 462 0 486 3
61 9 82 33 82 94 0 74 -58 131 -135 131 -17 0 -31 10 -47 35 -33 50 -96 79
-161 72 -51 -4 -52 -4 -89 38 -21 23 -53 50 -72 59 -50 24 -131 20 -191 -8z
m147 -46 c45 -13 85 -58 94 -106 9 -47 25 -51 71 -20 21 14 50 26 65 26 36 0
75 -36 90 -85 l13 -40 61 0 c68 0 94 -14 94 -51 0 -17 -8 -28 -26 -34 -15 -6
-201 -10 -458 -10 -467 0 -472 1 -446 49 19 37 69 56 145 56 l69 0 12 57 c18
89 61 142 129 159 43 10 46 10 87 -1z"/>
<path d="M1490 5430 c0 -15 48 -107 59 -114 5 -3 14 1 21 9 18 21 4 81 -23
100 -25 17 -57 20 -57 5z"/>
<path d="M1286 5411 c-3 -4 6 -19 20 -32 14 -13 35 -41 45 -62 25 -48 53 -47
57 1 3 26 -3 39 -31 67 -34 34 -79 47 -91 26z"/>
<path d="M1100 5385 c0 -15 74 -74 111 -87 49 -18 28 62 -23 88 -37 19 -88 19
-88 -1z"/>
<path d="M741 5121 c-10 -17 -6 -25 30 -58 43 -40 89 -73 102 -73 12 0 8 39
-7 68 -34 65 -105 101 -125 63z"/>
<path d="M920 5115 c0 -18 82 -105 98 -105 29 0 -1 77 -40 104 -28 20 -58 21
-58 1z"/>
</g>
</svg>
