<?xml version="1.0" standalone="no"?>
<!DOCTYPE svg PUBLIC "-//W3C//DTD SVG 20010904//EN"
 "http://www.w3.org/TR/2001/REC-SVG-20010904/DTD/svg10.dtd">
<svg version="1.0" xmlns="http://www.w3.org/2000/svg"
 width="1024.000000pt" height="1024.000000pt" viewBox="0 0 1024.000000 1024.000000"
 preserveAspectRatio="xMidYMid meet">
<metadata>
Created by potrace 1.16, written by Peter Selinger 2001-2019
</metadata>
<g transform="translate(0.000000,1024.000000) scale(0.100000,-0.100000)"
fill="#000000" stroke="none">
<path d="M4725 9978 c-16 -6 -50 -17 -74 -26 -51 -17 -111 -74 -141 -133 -27
-52 -30 -161 -6 -208 25 -48 75 -100 117 -122 50 -25 149 -25 205 0 50 23 112
93 120 138 14 74 -20 143 -70 143 -25 0 -66 -41 -66 -67 0 -8 -11 -25 -25 -38
-33 -34 -77 -33 -104 1 -25 32 -26 55 -6 94 27 52 63 63 237 70 170 7 202 17
214 65 10 39 -9 52 -107 74 -97 23 -241 27 -294 9z m300 -56 c17 -5 30 -15 30
-23 0 -11 -29 -15 -150 -20 -168 -6 -200 -15 -255 -73 -31 -33 -35 -43 -35
-92 0 -52 3 -58 39 -91 35 -33 42 -35 87 -31 58 6 85 26 111 86 23 51 42 50
46 -3 5 -55 -16 -94 -67 -126 -91 -58 -227 -26 -270 64 -32 67 -29 150 8 209
37 58 66 78 150 100 51 14 90 17 171 13 58 -2 119 -8 135 -13z"/>
<path d="M6103 9945 c-45 -32 -47 -125 -7 -430 26 -203 63 -277 123 -245 29
15 41 50 41 121 0 56 2 60 28 70 157 62 244 131 258 204 16 89 -41 168 -169
229 -139 67 -228 83 -274 51z m188 -65 c106 -44 155 -76 184 -118 61 -90 15
-159 -155 -234 -100 -44 -100 -44 -100 -86 0 -62 -12 -112 -26 -112 -18 0 -31
52 -48 205 -9 72 -21 173 -27 225 -15 127 -7 150 54 150 26 0 74 -12 118 -30z"/>
<path d="M6211 9806 c-17 -20 -12 -212 5 -227 26 -21 204 79 204 115 0 20 -51
62 -114 95 -65 35 -79 37 -95 17z m108 -74 c24 -15 44 -31 45 -37 1 -12 -72
-53 -96 -54 -15 -1 -18 8 -18 59 0 69 4 71 69 32z"/>
<path d="M4000 9886 c-130 -27 -293 -78 -361 -112 -51 -25 -72 -63 -58 -101 8
-23 39 -35 93 -37 34 -1 46 -19 66 -96 6 -25 18 -70 26 -100 10 -38 13 -78 9
-132 l-6 -77 27 -7 c46 -12 77 7 104 61 26 52 33 138 16 201 -7 28 -5 33 15
39 37 11 59 36 59 65 0 57 -77 104 -100 61 -15 -28 -42 -28 -38 1 2 17 16 25
72 41 72 20 85 16 86 -25 0 -26 65 -215 84 -243 22 -33 61 -42 86 -20 29 27
27 137 -5 246 -13 46 -25 90 -25 97 0 7 15 26 34 42 41 37 49 64 27 91 -24 30
-81 32 -211 5z m165 -41 c0 -5 -15 -18 -34 -27 -19 -9 -37 -22 -41 -28 -4 -7
7 -58 25 -113 38 -118 52 -227 29 -227 -20 0 -51 75 -81 195 -29 117 -38 130
-77 115 -59 -22 -306 -81 -328 -78 -13 2 -24 10 -26 19 -2 13 15 23 65 42 228
85 468 137 468 102z m-330 -272 c45 -86 55 -180 28 -257 -28 -76 -39 -68 -39
26 0 60 -8 110 -27 179 -31 112 -32 119 -13 119 8 0 31 -30 51 -67z m103 20
c-2 -10 -8 -18 -13 -18 -5 0 -11 8 -13 18 -2 10 3 17 13 17 10 0 15 -7 13 -17z"/>
<path d="M3292 9650 c-58 -36 -159 -147 -191 -211 -41 -81 -41 -130 -2 -169
38 -39 72 -46 155 -31 38 6 71 10 73 7 3 -2 -18 -32 -46 -66 -85 -106 -98
-158 -46 -182 35 -16 100 20 182 100 104 101 142 197 104 259 -34 55 -65 68
-153 66 -43 -1 -78 1 -78 6 0 4 21 34 46 67 26 32 53 74 61 92 12 30 12 37 -2
58 -19 30 -58 31 -103 4z m58 -42 c0 -7 -30 -52 -65 -100 -36 -47 -66 -97 -67
-110 -3 -23 -2 -23 89 -20 107 4 157 -12 173 -54 14 -37 1 -73 -52 -142 -42
-54 -134 -132 -156 -132 -22 0 -12 20 53 103 111 140 105 156 -56 136 l-112
-13 -19 24 c-44 54 13 160 150 283 44 38 62 46 62 25z"/>
<path d="M5674 9570 c-22 -5 -101 -29 -175 -55 -134 -47 -190 -64 -349 -112
-47 -13 -112 -35 -145 -48 -33 -13 -107 -38 -165 -55 -58 -18 -177 -55 -265
-82 -88 -28 -207 -66 -265 -84 -58 -18 -177 -56 -265 -84 -88 -29 -194 -62
-235 -75 -335 -103 -367 -115 -421 -165 -31 -28 -37 -29 -108 -27 -91 2 -122
-12 -192 -85 -101 -105 -159 -267 -159 -444 0 -98 5 -114 144 -438 59 -137
129 -303 155 -370 27 -67 63 -150 80 -185 38 -74 111 -241 111 -252 0 -11 -43
-33 -115 -57 -67 -23 -169 -61 -325 -120 -58 -22 -168 -62 -245 -90 -77 -27
-232 -84 -345 -127 -113 -42 -234 -87 -270 -100 -36 -13 -96 -35 -135 -50 -38
-14 -133 -48 -210 -75 -592 -206 -719 -263 -830 -375 -77 -76 -120 -152 -152
-265 -16 -56 -18 -100 -16 -330 1 -146 8 -377 17 -515 14 -223 29 -547 56
-1200 18 -441 42 -823 58 -905 25 -131 96 -266 187 -355 39 -38 96 -84 126
-101 203 -117 377 -215 459 -260 240 -132 497 -276 550 -309 19 -12 80 -46
135 -75 55 -29 181 -99 280 -155 99 -56 205 -115 235 -130 30 -15 170 -93 310
-172 140 -80 298 -169 350 -198 52 -29 159 -90 238 -134 79 -45 145 -81 147
-81 3 0 53 -29 112 -63 60 -35 142 -82 183 -104 41 -22 149 -82 240 -134 206
-116 387 -209 465 -239 81 -32 289 -35 375 -7 50 17 301 138 325 157 6 4 30
18 55 32 79 44 280 158 455 258 94 53 265 150 380 215 116 65 273 155 350 200
77 45 172 99 210 120 39 21 230 127 425 235 195 108 380 211 410 227 30 17
123 68 205 113 83 46 195 108 250 138 249 137 693 386 720 405 134 92 217 222
255 396 18 84 28 224 50 746 11 254 43 971 60 1330 5 127 15 269 20 316 13
109 13 472 1 513 -5 17 -17 58 -26 91 -39 138 -110 231 -245 322 -87 58 -112
69 -360 158 -102 36 -225 82 -275 102 -49 20 -148 56 -218 79 -205 70 -621
229 -644 247 -7 5 -15 30 -19 56 -9 66 -43 132 -83 158 -42 28 -55 29 -81 3
-16 -16 -20 -33 -20 -80 0 -69 -4 -71 -78 -41 -26 11 -105 41 -175 67 -134 49
-177 74 -177 102 0 21 -30 101 -63 167 -46 94 -421 882 -542 1140 -26 55 -82
174 -125 265 -142 300 -222 474 -270 585 -64 149 -176 373 -206 412 -14 18
-33 37 -42 42 -27 14 -103 20 -148 11z m118 -167 c12 -27 52 -113 90 -192 37
-79 68 -147 68 -152 0 -16 -18 -10 -153 50 -72 32 -204 89 -292 126 -88 37
-164 71 -170 77 -15 13 4 22 145 67 189 60 222 69 258 70 29 1 34 -3 54 -46z
m-460 -159 c57 -25 139 -61 184 -79 44 -19 141 -60 215 -93 73 -32 163 -69
198 -82 l64 -24 44 -95 c25 -53 76 -161 113 -241 38 -80 80 -174 95 -210 15
-36 44 -99 66 -140 39 -74 169 -348 169 -355 0 -2 47 -100 104 -217 58 -117
108 -225 111 -241 8 -29 -1 -56 -48 -152 -16 -33 -42 -94 -58 -135 -17 -41
-36 -88 -43 -105 -7 -16 -35 -84 -60 -150 -79 -200 -72 -189 -124 -208 -26
-10 -126 -45 -222 -77 -96 -32 -229 -79 -295 -103 -104 -40 -378 -135 -655
-228 -47 -15 -110 -38 -140 -49 -30 -12 -107 -39 -170 -61 -162 -56 -240 -88
-280 -115 -28 -20 -47 -24 -105 -24 -106 0 -153 -37 -212 -165 -20 -45 -28
-80 -31 -142 -4 -74 -2 -89 21 -135 41 -85 106 -109 177 -68 64 37 116 58 176
70 52 11 210 63 359 120 93 35 350 122 389 131 21 6 48 15 60 21 26 15 145 58
296 108 137 46 319 110 490 172 69 25 195 71 280 102 222 79 360 133 375 146
12 10 11 18 -5 48 -28 54 -43 127 -36 167 11 54 30 44 58 -30 9 -22 35 -80 58
-129 41 -86 42 -89 24 -106 -11 -10 -86 -42 -169 -70 -82 -28 -204 -72 -270
-97 -66 -25 -203 -75 -305 -110 -263 -92 -337 -118 -405 -144 -33 -12 -136
-48 -230 -80 -183 -62 -409 -142 -748 -263 -115 -42 -136 -46 -216 -46 -87 0
-90 -1 -132 -36 -57 -48 -91 -64 -134 -64 -70 0 -140 55 -191 150 -27 52 -24
188 6 258 13 29 20 55 17 58 -8 9 -28 -33 -53 -111 -23 -71 -31 -82 -44 -55
-90 179 -93 189 -88 259 4 54 15 87 56 172 51 107 120 193 146 183 8 -3 39
-59 70 -125 30 -65 60 -119 66 -119 15 0 12 36 -6 78 -9 20 -23 59 -31 86 -24
80 -255 646 -353 866 -23 52 -73 167 -110 255 -37 88 -83 196 -103 240 -19 44
-53 123 -76 175 -23 52 -61 136 -86 185 -25 50 -71 153 -104 230 -90 212 -171
375 -187 375 -20 0 -19 -8 32 -132 l46 -113 -28 -20 c-89 -61 -180 -187 -199
-272 -3 -18 -12 -33 -18 -33 -7 0 -25 34 -41 75 -22 59 -28 91 -29 157 -1 134
35 234 119 327 l48 54 81 -7 c88 -6 106 0 152 54 14 17 49 35 105 52 253 81
378 121 513 162 223 70 587 186 875 281 140 46 261 84 267 85 7 0 59 -21 115
-46z m-1916 -995 c11 -30 25 -65 31 -79 13 -32 8 -44 -24 -61 -64 -34 -150
-165 -168 -258 -13 -62 -31 -77 -41 -34 -4 15 -16 46 -27 67 -29 58 -19 129
34 236 43 87 137 196 162 188 6 -3 21 -29 33 -59z m81 -196 c13 -39 238 -573
270 -643 19 -41 61 -138 93 -215 51 -122 103 -240 208 -469 l27 -59 -30 -21
c-73 -52 -127 -112 -160 -179 -19 -38 -35 -78 -35 -88 0 -34 -11 -51 -26 -38
-8 6 -14 15 -14 20 0 8 -37 98 -200 484 -85 202 -264 621 -310 726 -46 103
-48 127 -20 227 47 170 171 330 197 255z m3312 -808 c65 -136 131 -290 131
-308 0 -22 -18 -33 -111 -61 -47 -15 -138 -46 -203 -70 -64 -24 -119 -40 -122
-35 -6 11 11 57 96 259 34 80 75 181 92 225 33 87 46 108 59 100 4 -3 30 -52
58 -110z m790 -413 c74 -105 43 -286 -72 -417 -45 -50 -110 -95 -123 -83 -3 4
14 35 38 70 25 35 52 81 60 103 29 77 51 198 45 257 -9 98 12 126 52 70z
m-4067 -87 c83 -198 161 -379 196 -455 22 -47 72 -164 112 -260 203 -494 265
-597 400 -662 75 -36 138 -36 215 1 36 17 78 40 92 51 21 16 41 20 112 20 70
0 101 6 171 31 47 17 132 46 190 66 58 19 294 102 525 183 231 82 458 162 505
178 138 49 357 128 465 167 55 20 145 52 200 71 155 54 277 102 312 124 91 55
93 165 7 305 -62 100 -95 167 -90 181 5 14 80 -10 186 -58 25 -12 108 -43 185
-70 77 -27 144 -53 149 -58 9 -9 -39 -102 -84 -160 -56 -72 -61 -108 -19 -131
15 -8 32 -4 77 16 67 31 121 80 169 153 25 39 39 52 51 48 10 -3 73 -26 142
-51 69 -25 131 -48 138 -50 6 -2 12 -9 12 -14 0 -10 -29 -25 -213 -110 -155
-71 -210 -136 -187 -221 10 -35 58 -90 81 -90 17 0 9 -29 -11 -35 -27 -9 -58
-51 -70 -96 -22 -82 26 -128 237 -225 54 -25 143 -68 198 -94 55 -27 126 -60
158 -74 31 -14 57 -29 57 -33 0 -5 -91 -54 -202 -110 -112 -56 -223 -114 -248
-127 -25 -14 -162 -86 -305 -160 -143 -73 -309 -161 -370 -194 -376 -203 -470
-256 -559 -309 -92 -55 -137 -94 -90 -80 23 7 274 117 369 162 216 102 664
319 1049 509 241 119 440 216 442 216 6 0 5 -265 -3 -486 l-6 -200 -83 -43
c-138 -70 -151 -95 -138 -267 l7 -91 -34 -25 c-19 -14 -56 -37 -84 -51 -93
-47 -99 -59 -105 -209 l-5 -131 -100 -52 c-136 -72 -138 -75 -143 -235 -4
-127 -5 -131 -31 -148 -27 -19 -319 -176 -428 -231 -94 -47 -93 -47 -93 64 0
88 -2 98 -25 120 -13 14 -33 25 -43 25 -11 0 -54 -18 -97 -40 -43 -21 -82 -37
-87 -34 -4 3 -8 45 -8 93 0 74 -3 93 -21 115 -28 36 -68 34 -153 -9 -39 -19
-73 -35 -77 -35 -4 0 -9 50 -11 111 -3 102 -5 112 -27 130 -33 27 -55 24 -143
-21 -43 -22 -79 -37 -80 -33 -1 4 -2 136 -3 293 -1 190 -6 305 -14 345 -31
143 -57 163 -506 386 -55 28 -109 55 -119 61 -10 5 -55 26 -100 45 -117 52
-179 50 -304 -7 l-94 -42 -101 43 c-83 35 -114 42 -167 43 -60 0 -75 -5 -195
-63 -313 -152 -540 -276 -583 -319 -85 -84 -86 -92 -90 -464 -2 -181 -7 -328
-12 -328 -4 0 -45 21 -91 46 -69 38 -88 45 -109 37 -39 -13 -53 -55 -52 -152
2 -97 -7 -123 -35 -103 -44 31 -121 62 -155 62 -52 0 -65 -25 -74 -137 -4 -58
-11 -93 -18 -93 -6 0 -45 18 -86 40 -41 22 -81 40 -88 40 -7 0 -24 -12 -37
-26 -23 -25 -25 -35 -25 -121 0 -74 -3 -95 -15 -99 -20 -8 -447 207 -522 263
l-33 24 0 122 c0 159 -5 167 -139 236 -56 29 -101 57 -102 64 0 7 0 60 1 120
2 137 -11 162 -108 208 -106 49 -102 42 -102 196 0 108 -3 139 -17 159 -9 14
-55 45 -105 70 -49 25 -91 50 -93 57 -7 23 -12 646 -5 658 5 7 132 -51 371
-169 905 -447 1471 -713 1485 -699 4 3 3 10 0 16 -8 13 -192 122 -321 191 -55
29 -118 63 -140 75 -22 12 -80 44 -130 70 -49 27 -110 59 -135 73 -91 50 -443
233 -742 386 -170 87 -308 162 -308 167 0 5 11 14 25 19 55 21 542 264 565
282 81 63 77 160 -9 211 -35 21 -40 43 -12 52 26 8 79 69 87 100 9 37 -30 108
-75 138 -21 14 -102 58 -180 97 -78 39 -141 76 -139 82 4 12 75 40 308 124 85
30 178 64 205 75 113 43 387 143 480 176 55 19 115 43 135 54 19 10 41 17 49
16 8 -1 27 -33 43 -72z m3258 -11 c0 -14 -42 -74 -52 -74 -15 0 -629 -210
-658 -225 -14 -7 -52 -23 -85 -36 -33 -12 -73 -28 -90 -34 -16 -7 -39 -16 -49
-19 -10 -4 -16 -9 -13 -12 3 -3 38 5 79 19 40 14 134 44 208 67 74 23 214 69
310 102 321 110 310 108 310 64 0 -28 -14 -41 -60 -54 -19 -5 -96 -32 -170
-60 -74 -28 -147 -54 -162 -57 -29 -8 -60 -35 -39 -35 18 0 333 103 412 134 9
4 23 -2 34 -14 36 -39 10 -56 -185 -115 -41 -13 -127 -42 -190 -65 -63 -23
-209 -75 -325 -115 -212 -74 -379 -134 -490 -175 -33 -12 -80 -28 -105 -36
-25 -7 -97 -31 -160 -54 -63 -22 -169 -59 -235 -81 -66 -23 -178 -63 -250 -89
-153 -57 -263 -90 -296 -90 -13 0 -50 -16 -83 -37 l-59 -36 -18 22 c-46 57
-32 182 31 280 l40 61 65 0 c53 0 87 8 192 49 213 81 371 137 518 185 77 24
212 70 300 101 88 32 302 106 475 165 480 165 660 227 715 249 52 20 85 26 85
15z m-2633 -219 l33 -79 -66 -59 c-71 -65 -112 -133 -140 -236 -10 -34 -21
-60 -26 -59 -5 2 -22 36 -38 75 -27 67 -28 76 -19 135 6 35 25 91 45 128 41
79 135 183 161 178 11 -2 29 -31 50 -83z m4043 -225 c47 -16 86 -34 88 -39 2
-6 -57 -40 -130 -77 -169 -84 -188 -98 -188 -133 0 -32 27 -60 90 -91 l44 -23
-26 -21 c-15 -11 -38 -29 -53 -39 -37 -27 -53 -64 -34 -82 17 -17 157 -86 329
-162 142 -63 187 -92 221 -142 l24 -36 0 -331 c0 -350 2 -364 47 -364 10 0 45
14 78 30 33 17 66 30 74 30 10 0 15 -22 18 -99 4 -108 19 -141 64 -141 21 0
143 60 318 157 43 23 82 43 87 43 15 0 11 -206 -3 -218 -33 -27 -509 -262
-531 -262 -32 0 -37 15 -37 116 0 77 -2 87 -25 110 -29 29 -47 26 -140 -18
-69 -32 -100 -35 -109 -11 -4 9 -4 204 0 432 7 408 7 417 -14 463 -24 55 -80
95 -219 157 -147 65 -500 239 -507 249 -3 5 25 27 62 49 121 72 123 124 10
183 -75 39 -84 57 -40 88 26 19 402 212 412 212 3 0 43 -14 90 -30z m-5954
-21 c43 -23 124 -64 179 -92 177 -90 190 -107 104 -147 -54 -26 -99 -70 -99
-99 0 -23 56 -75 105 -98 84 -38 93 -33 -504 -315 -103 -49 -124 -63 -148 -99
l-28 -43 -2 -440 c-2 -243 -5 -447 -8 -453 -8 -23 -66 -13 -131 22 -73 41 -94
43 -120 14 -15 -17 -20 -41 -24 -116 -4 -83 -8 -98 -26 -109 -22 -15 -11 -20
-409 187 l-130 68 -9 106 c-5 58 -6 108 -3 112 6 6 45 -13 197 -97 155 -85
229 -111 259 -92 18 13 30 83 24 151 -6 83 1 88 82 52 91 -42 112 -41 131 6
14 32 15 71 7 297 -5 144 -6 283 -1 310 17 109 76 162 280 249 152 66 288 136
295 153 8 23 -6 43 -58 83 -24 18 -45 38 -47 45 -1 6 14 20 35 31 92 50 106
86 51 129 -18 13 -89 53 -157 88 -69 34 -126 68 -128 75 -3 6 18 18 49 27 29
9 60 20 68 26 31 20 86 10 166 -31z m-267 -108 c60 -33 134 -71 164 -85 30
-14 58 -29 61 -34 3 -5 -25 -27 -62 -48 -58 -34 -67 -43 -70 -71 -3 -29 2 -35
47 -65 28 -18 51 -38 51 -44 0 -6 -46 -32 -102 -59 -303 -142 -331 -158 -374
-200 -27 -27 -47 -59 -54 -85 -11 -42 -15 -543 -5 -604 10 -58 -6 -63 -78 -22
-106 59 -125 49 -133 -66 -7 -107 -13 -138 -27 -138 -7 0 -43 16 -82 36 -38
20 -126 65 -194 100 -68 34 -125 65 -127 67 -5 5 -8 60 -25 449 -14 329 -9
388 38 482 37 73 70 113 130 157 57 43 108 64 388 164 105 38 224 81 265 96
41 15 76 28 78 28 2 1 52 -26 111 -58z m6531 14 c213 -80 284 -106 405 -150
159 -58 198 -79 257 -143 115 -123 125 -185 109 -662 -7 -195 -14 -363 -17
-372 -3 -9 -15 -20 -27 -24 -12 -4 -102 -47 -200 -95 -98 -49 -182 -87 -187
-84 -4 2 -11 50 -15 105 -10 142 -22 150 -138 95 -28 -14 -57 -25 -64 -25 -11
0 -12 52 -7 298 8 338 5 360 -57 427 -39 42 -115 84 -334 184 -118 54 -158 76
-163 89 -1 5 17 22 42 36 25 15 51 36 57 47 16 30 -13 67 -72 92 -64 27 -63
47 3 78 28 13 101 52 162 86 123 70 110 69 246 18z m-3517 -1542 c108 -54 145
-54 258 -2 63 29 107 43 135 42 31 0 90 -25 260 -110 278 -139 393 -201 422
-227 13 -12 36 -41 50 -66 l27 -45 3 -310 c2 -170 -1 -371 -6 -447 -11 -179
-17 -187 -211 -297 -74 -42 -87 -67 -94 -188 -9 -147 -13 -152 -267 -294 -309
-172 -409 -213 -485 -197 -81 17 -553 264 -613 322 -50 46 -59 71 -66 181 -9
133 -7 130 -171 230 -41 25 -77 56 -94 82 -27 41 -28 45 -34 230 -8 243 1 668
14 711 26 79 77 113 484 316 109 55 215 103 235 107 47 8 73 2 153 -38z
m-2972 -184 l48 -22 3 -136 c4 -166 11 -179 125 -239 l77 -40 0 -120 c1 -117
2 -121 31 -163 24 -34 51 -54 120 -89 l90 -46 5 -132 5 -132 40 -39 c24 -24
92 -67 165 -104 69 -36 195 -101 280 -145 134 -70 162 -81 205 -81 83 0 105
30 105 148 0 45 4 81 9 81 5 0 42 -16 82 -35 88 -42 108 -43 140 -9 21 22 24
37 27 115 2 51 8 89 14 89 6 0 39 -14 74 -31 81 -38 127 -37 158 4 18 25 21
40 18 113 -3 103 3 107 85 65 l60 -30 7 -71 c12 -133 85 -234 218 -301 31 -16
62 -38 68 -48 5 -11 10 -51 10 -90 0 -80 26 -161 64 -202 72 -78 106 -99 456
-276 l245 -125 1 -722 c0 -456 5 -801 13 -940 9 -150 9 -222 2 -229 -23 -23
-150 31 -401 171 -210 117 -459 256 -620 347 -91 51 -268 151 -395 221 -126
70 -247 138 -267 151 -21 12 -40 23 -42 23 -2 0 -53 28 -113 62 -126 71 -257
144 -363 201 -41 22 -136 75 -210 117 -127 72 -189 107 -530 298 -74 42 -200
112 -280 157 -80 45 -228 129 -330 185 -292 164 -318 184 -368 285 -53 107
-61 159 -77 480 -8 165 -19 372 -25 460 -8 126 -40 734 -40 768 0 13 28 8 62
-11 364 -201 431 -230 489 -213 77 23 119 82 119 167 0 49 3 51 51 27 46 -23
127 -23 162 0 15 10 37 38 49 62 12 25 24 45 27 45 2 0 26 -10 52 -21z m6273
-13 c8 -42 53 -83 101 -92 35 -6 94 8 133 34 12 8 25 12 28 10 3 -3 7 -31 9
-61 6 -85 40 -137 101 -157 51 -17 117 6 356 126 168 84 210 101 214 89 4 -9
-1 -158 -10 -333 -9 -174 -21 -423 -26 -552 -16 -375 -31 -621 -42 -675 -29
-141 -110 -237 -284 -336 -55 -31 -139 -80 -189 -109 -49 -28 -115 -66 -145
-82 -30 -17 -161 -90 -290 -163 -129 -73 -262 -147 -295 -165 -33 -18 -150
-83 -260 -145 -213 -119 -329 -184 -765 -425 -266 -148 -700 -392 -905 -510
-55 -32 -122 -70 -150 -86 -27 -15 -108 -61 -180 -102 -310 -178 -510 -268
-544 -247 -11 6 -3 1886 8 1896 3 3 31 16 61 29 187 78 523 254 611 320 86 65
118 129 120 245 2 97 5 102 104 162 149 89 183 140 200 296 l7 66 60 30 c33
17 64 31 69 31 5 0 9 -42 9 -94 0 -85 2 -95 25 -120 32 -35 71 -34 152 5 35
17 71 28 78 25 11 -4 14 -25 12 -90 -2 -77 0 -87 22 -110 33 -35 62 -33 150 9
40 19 74 35 76 35 2 0 5 -40 7 -90 3 -80 6 -92 29 -115 50 -51 79 -46 255 46
87 45 217 112 289 148 203 103 234 146 220 303 -4 50 -2 84 5 98 6 11 41 36
79 54 81 41 126 77 148 120 14 26 23 121 23 252 0 6 19 19 42 30 143 64 167
104 168 271 l0 113 38 24 c52 35 68 33 76 -8z"/>
<path d="M3500 8561 c0 -13 29 -94 65 -180 35 -86 88 -217 118 -291 106 -263
214 -520 277 -660 21 -47 50 -114 64 -150 30 -79 101 -243 194 -450 38 -85 99
-222 136 -303 113 -252 156 -330 156 -280 0 10 -21 68 -46 128 -25 61 -73 178
-106 260 -64 161 -151 370 -255 610 -36 83 -83 193 -105 245 -21 52 -45 109
-53 125 -38 84 -104 234 -155 355 -215 502 -290 656 -290 591z"/>
<path d="M3190 6522 c-61 -30 -52 -80 18 -103 50 -16 80 -45 88 -86 8 -44 -2
-80 -31 -109 -30 -30 -72 -31 -124 -4 -50 25 -80 75 -98 158 -31 154 -105 158
-161 9 -76 -202 13 -440 196 -529 59 -28 77 -32 147 -32 62 0 89 5 120 21 55
29 77 56 73 90 l-3 28 -100 6 c-152 9 -215 43 -97 51 161 12 263 122 265 286
1 155 -167 278 -293 214z m150 -54 c64 -33 84 -66 88 -147 5 -88 -10 -134 -62
-186 -75 -75 -176 -83 -290 -25 -33 17 -61 28 -64 25 -10 -10 19 -84 44 -114
40 -48 132 -88 219 -96 41 -4 75 -12 75 -17 0 -16 -68 -38 -119 -38 -117 0
-228 77 -290 201 -29 57 -31 70 -31 163 0 86 4 109 25 154 14 29 29 51 34 47
6 -3 22 -44 36 -91 22 -73 34 -94 75 -134 51 -52 93 -67 154 -56 143 27 164
238 29 298 -24 10 -41 23 -38 29 11 16 70 10 115 -13z"/>
<path d="M7011 6092 c-29 -28 -61 -115 -81 -214 -13 -65 -20 -69 -79 -39 -48
25 -160 46 -195 37 -21 -5 -26 -12 -26 -36 0 -43 46 -89 144 -144 48 -27 86
-52 86 -56 0 -4 -8 -18 -19 -31 -40 -52 -62 -109 -59 -156 6 -89 58 -84 137
12 61 74 96 99 173 121 63 19 120 47 137 68 22 26 17 77 -10 98 -18 15 -35 19
-79 16 l-55 -3 2 35 c1 19 5 89 9 156 6 115 6 122 -15 143 -27 27 -37 27 -70
-7z m41 -128 c-2 -38 -10 -109 -17 -159 -8 -49 -11 -93 -7 -97 4 -4 23 -3 42
2 53 15 110 13 116 -5 10 -24 -14 -43 -75 -61 -104 -30 -133 -48 -207 -123
-65 -66 -74 -72 -74 -51 0 31 48 116 84 149 44 41 43 41 -90 109 -78 41 -134
86 -121 98 8 8 109 -22 180 -53 31 -14 60 -23 63 -20 3 3 17 50 30 104 31 125
53 185 68 180 7 -3 10 -27 8 -73z"/>
<path d="M6435 5766 c-40 -13 -103 -27 -180 -41 -141 -25 -187 -36 -226 -56
-56 -28 -66 -74 -23 -108 33 -26 93 -27 236 -6 133 20 132 21 133 -117 0 -101
-1 -105 -34 -157 -19 -29 -58 -71 -88 -93 -113 -86 -36 -145 103 -79 85 40
136 89 168 161 36 80 41 137 23 250 -9 52 -18 120 -22 150 -3 30 -12 63 -19
72 -12 17 -52 30 -71 24z m39 -88 c2 -18 12 -79 22 -135 10 -58 15 -122 11
-150 -12 -106 -76 -199 -162 -239 -79 -37 -83 -29 -19 34 64 61 93 111 101
173 6 43 -12 190 -29 232 -12 32 -21 32 -133 12 -89 -16 -225 -20 -225 -6 0
26 85 54 244 80 65 11 121 22 124 25 3 3 18 6 33 6 24 0 29 -5 33 -32z"/>
<path d="M3601 5709 c-61 -61 -31 -157 54 -173 41 -8 83 11 114 50 25 32 27
64 6 104 -20 38 -43 50 -99 50 -36 0 -50 -6 -75 -31z m125 -44 c32 -49 -22
-104 -74 -76 -29 16 -37 48 -18 76 23 34 70 34 92 0z"/>
<path d="M3735 5519 c-110 -20 -201 -43 -222 -56 -85 -52 80 -299 257 -385 84
-40 155 -58 235 -58 97 0 207 33 258 78 20 18 23 57 5 69 -7 4 -64 6 -126 5
-88 -2 -119 0 -137 12 -29 19 -50 84 -69 211 -20 138 -43 152 -201 124z m133
-56 c5 -10 13 -40 16 -68 12 -86 37 -179 59 -214 28 -47 75 -64 167 -59 90 4
105 -10 35 -34 -104 -35 -254 -19 -370 40 -100 50 -248 236 -229 286 3 9 7 16
8 16 0 1 55 11 121 24 152 30 182 31 193 9z"/>
<path d="M3670 5391 c-14 -4 -26 -14 -28 -24 -8 -38 90 -141 176 -186 33 -18
38 6 18 97 -28 123 -27 122 -88 121 -29 -1 -64 -4 -78 -8z m109 -73 c17 -48
-2 -57 -39 -19 -34 33 -32 51 5 51 17 0 26 -8 34 -32z"/>
<path d="M6185 5487 c-57 -57 -43 -119 35 -151 73 -29 140 24 126 99 -10 50
-35 75 -83 82 -39 5 -46 2 -78 -30z m96 -27 c27 -15 26 -66 -2 -80 -43 -24
-92 43 -57 78 15 15 33 15 59 2z"/>
<path d="M5034 5421 c-54 -25 -114 -79 -130 -118 -8 -18 -14 -53 -14 -78 0
-94 74 -118 225 -75 83 24 85 24 85 7 0 -21 -106 -76 -188 -97 -47 -13 -108
-20 -162 -20 -88 0 -110 -8 -110 -41 0 -88 215 -132 385 -79 185 57 325 193
325 313 0 42 -5 54 -33 82 -47 47 -106 53 -219 21 -49 -13 -88 -21 -88 -17 0
4 7 16 15 27 21 28 18 61 -7 78 -28 20 -34 20 -84 -3z m46 -44 c0 -7 -16 -28
-35 -47 -41 -39 -44 -57 -12 -65 27 -7 131 9 201 30 72 22 113 19 141 -10 88
-88 -81 -274 -300 -330 -69 -18 -152 -18 -214 -2 -75 20 -61 33 45 41 149 10
243 48 340 138 48 44 55 71 25 88 -19 10 -64 3 -196 -30 -55 -13 -109 -12
-123 2 -33 33 6 120 79 174 37 27 49 30 49 11z"/>
<path d="M5670 6171 c-208 -69 -714 -248 -785 -278 -118 -49 -131 -56 -113
-60 10 -3 28 3 40 11 12 9 30 16 40 16 17 0 178 52 533 173 362 124 451 160
440 177 -4 6 -7 10 -8 10 -1 -1 -67 -23 -147 -49z"/>
<path d="M5310 6159 c-14 -6 -124 -43 -245 -83 -468 -156 -598 -206 -582 -223
12 -12 667 207 809 271 77 34 91 62 18 35z"/>
<path d="M1180 5755 c0 -43 333 -218 370 -195 28 17 -32 61 -187 136 -157 76
-183 85 -183 59z"/>
<path d="M8965 5736 c-39 -18 -95 -45 -126 -60 -64 -30 -149 -91 -149 -108 0
-7 14 -8 41 -4 69 11 331 158 337 189 5 26 -25 21 -103 -17z"/>
<path d="M4745 4454 c-55 -31 -148 -81 -208 -111 -119 -61 -202 -129 -225
-183 -18 -43 -29 -417 -17 -615 l7 -130 33 -31 c18 -17 59 -43 91 -59 91 -43
94 -48 95 -129 1 -129 11 -166 59 -208 58 -52 472 -258 531 -265 39 -4 60 2
159 47 121 55 319 157 382 197 61 38 71 61 78 189 4 84 10 118 20 125 8 5 35
21 60 36 90 52 118 75 132 106 10 25 13 110 13 372 l0 340 -25 45 c-32 58
-108 109 -353 234 -123 63 -199 96 -220 96 -17 0 -75 -20 -127 -45 -52 -25
-99 -45 -105 -45 -5 0 -53 20 -105 45 -128 60 -148 60 -275 -11z m266 -50
c108 -55 119 -55 240 5 87 43 122 50 154 27 11 -7 97 -52 190 -100 189 -97
265 -144 265 -164 0 -7 -17 -20 -37 -28 -21 -8 -105 -49 -188 -91 -212 -107
-343 -193 -329 -215 9 -14 36 -3 308 134 142 71 265 127 272 124 12 -4 14 -57
13 -293 0 -158 -3 -306 -7 -328 -8 -42 -15 -48 -132 -115 -35 -19 -68 -46 -76
-62 -9 -16 -14 -61 -15 -115 -2 -148 3 -139 -134 -209 -66 -33 -178 -91 -248
-128 -71 -38 -131 -65 -134 -62 -3 3 0 92 6 198 10 148 10 236 2 380 -12 194
-22 251 -43 230 -21 -21 -32 -383 -20 -602 6 -108 7 -199 2 -204 -4 -4 -78 29
-167 77 -87 46 -195 103 -240 126 -45 22 -89 51 -97 63 -12 17 -16 48 -16 123
0 128 -13 151 -107 199 -37 18 -79 43 -93 54 l-25 20 -2 322 c-2 261 0 322 11
326 8 3 49 -13 92 -35 222 -114 414 -208 452 -220 46 -15 62 -10 43 13 -27 33
-313 193 -518 290 -48 22 -50 26 -25 48 18 17 267 157 317 180 17 7 54 28 84
46 30 17 68 32 83 32 16 0 69 -21 119 -46z"/>
<path d="M7482 9324 c-31 -22 -28 -37 24 -110 50 -70 114 -205 114 -241 0 -27
-12 -29 -45 -7 -37 24 -94 34 -121 22 -45 -21 -26 -83 45 -153 48 -46 52 -70
14 -79 -85 -21 -104 -28 -113 -46 -15 -28 2 -56 50 -80 50 -25 95 -25 162 0
57 21 124 82 151 136 29 57 41 156 28 220 -24 122 -107 248 -209 317 -51 35
-74 40 -100 21z m144 -127 c104 -109 144 -234 114 -357 -16 -68 -94 -152 -155
-169 -49 -13 -95 -14 -115 -1 -13 9 -13 11 0 20 8 5 21 10 28 10 26 0 112 51
112 66 0 9 -30 50 -66 91 -47 55 -63 78 -55 86 13 13 62 -10 120 -56 34 -27
36 -27 49 -10 18 23 10 118 -15 188 -20 56 -77 160 -93 170 -12 8 -13 35 -1
35 5 0 39 -33 77 -73z"/>
<path d="M2595 9318 c-52 -19 -116 -71 -143 -118 -49 -83 -30 -202 42 -253 41
-29 114 -30 152 -1 60 44 49 134 -17 134 -36 0 -48 23 -25 49 29 32 66 33 98
1 41 -41 39 -99 -7 -190 -51 -101 -61 -156 -40 -226 18 -62 51 -99 96 -109 45
-10 63 10 54 60 -18 93 -12 127 32 198 44 71 73 150 73 202 0 132 -119 266
-234 264 -28 0 -64 -5 -81 -11z m132 -49 c75 -28 127 -113 128 -209 0 -62 -3
-71 -55 -160 -53 -92 -55 -97 -54 -168 0 -79 -8 -86 -38 -31 -26 47 -19 96 27
200 80 175 46 300 -83 303 -37 1 -48 -4 -72 -31 -16 -18 -32 -49 -36 -69 -6
-32 -3 -40 16 -56 12 -10 31 -18 41 -18 25 0 35 -26 19 -45 -15 -18 -69 -19
-91 -2 -45 34 -63 131 -35 185 44 85 152 132 233 101z"/>
<path d="M6910 9315 c-7 -8 -10 -27 -7 -42 31 -159 31 -159 17 -221 -24 -113
-88 -181 -181 -190 -71 -7 -91 13 -87 86 3 62 -11 79 -55 68 -42 -10 -76 -47
-89 -98 -10 -40 -9 -52 6 -86 23 -51 56 -82 124 -117 46 -24 61 -27 127 -23
41 2 75 2 75 1 0 -1 -20 -14 -45 -29 -25 -14 -52 -35 -60 -47 -23 -34 5 -57
69 -57 79 0 121 16 181 72 154 141 189 361 90 565 -52 105 -129 161 -165 118z
m99 -105 c54 -83 75 -168 68 -272 -11 -174 -91 -289 -228 -328 -47 -14 -42 6
10 39 51 33 90 81 116 143 30 74 13 90 -36 34 -45 -52 -121 -86 -192 -86 -69
0 -111 17 -158 66 -28 29 -34 43 -34 79 0 33 6 50 22 67 29 29 38 18 22 -26
-12 -32 -11 -39 7 -63 40 -54 144 -64 224 -23 116 60 168 207 136 383 -4 26
-5 47 -2 47 4 0 24 -27 45 -60z"/>
<path d="M6607 9287 c-55 -17 -101 -59 -131 -118 -32 -65 -34 -111 -4 -139 12
-11 26 -20 31 -20 5 0 36 26 70 58 34 33 70 62 80 65 50 18 97 -42 97 -122 0
-31 4 -41 20 -46 30 -9 60 12 81 58 47 104 -3 225 -108 261 -54 18 -83 19
-136 3z m132 -52 c54 -28 81 -71 81 -130 0 -92 -23 -118 -34 -37 -7 51 -18 69
-56 95 -50 34 -134 8 -187 -58 -15 -19 -31 -35 -35 -35 -17 0 -7 57 16 94 45
75 145 108 215 71z"/>
<path d="M2169 8677 c-80 -49 -140 -118 -192 -223 -46 -91 -59 -165 -55 -309
3 -121 5 -134 34 -195 39 -80 125 -177 191 -212 131 -72 275 -49 390 61 95 90
136 213 114 342 -26 157 -110 250 -239 266 -73 8 -130 -12 -183 -66 -54 -54
-76 -121 -64 -198 11 -77 84 -130 141 -104 22 10 24 16 24 75 0 73 14 96 60
96 42 0 80 -49 80 -103 0 -164 -123 -262 -249 -197 -73 37 -131 166 -131 289
1 128 62 288 152 398 21 25 38 53 38 62 0 45 -54 54 -111 18z m-7 -104 c-48
-72 -75 -135 -101 -240 -39 -154 -19 -294 58 -391 51 -64 98 -92 165 -99 67
-7 127 19 180 77 80 89 75 252 -10 319 -37 29 -100 28 -138 -2 -24 -20 -30
-33 -35 -87 -7 -70 -21 -84 -47 -45 -21 33 -21 122 0 163 24 46 79 84 131 90
129 14 236 -104 239 -263 2 -144 -66 -264 -181 -318 -55 -25 -73 -29 -131 -25
-145 8 -264 118 -308 283 -18 65 -18 236 0 303 15 57 64 149 103 196 21 25
102 96 111 96 1 0 -15 -26 -36 -57z"/>
<path d="M7459 8421 c-21 -17 -24 -30 -27 -100 -4 -76 -6 -81 -26 -81 -12 0
-34 -12 -48 -27 -28 -29 -78 -127 -78 -153 0 -8 -4 -21 -9 -29 -7 -11 -21 -4
-67 34 -33 26 -60 51 -62 55 -2 4 21 45 51 91 30 46 60 101 68 121 12 34 11
40 -7 65 -13 18 -32 29 -51 31 -34 3 -65 -29 -163 -170 -30 -43 -59 -78 -66
-78 -7 0 -21 27 -30 61 -20 71 -47 109 -77 109 -68 -1 -82 -72 -48 -235 23
-109 36 -139 66 -155 36 -19 68 -9 85 27 8 18 20 33 25 33 6 0 46 -32 90 -71
124 -110 193 -159 226 -159 57 0 66 22 122 284 14 68 29 80 47 36 23 -54 78
-67 106 -25 33 50 2 267 -47 329 -24 31 -48 33 -80 7z m-244 -51 c7 -11 -54
-135 -96 -197 -16 -23 -29 -48 -29 -57 0 -17 166 -166 185 -166 19 0 31 20 50
85 21 76 55 155 66 155 20 0 17 -29 -21 -176 -43 -168 -45 -174 -62 -174 -35
0 -284 217 -294 256 -6 23 23 73 128 217 49 66 61 76 73 57z m305 -12 c14 -32
40 -217 33 -234 -10 -26 -28 -9 -45 43 -19 57 -34 174 -25 197 9 23 26 20 37
-6z m-621 -125 c41 -139 49 -195 31 -223 -16 -26 -38 8 -60 94 -40 159 -14
275 29 129z"/>
<path d="M7735 7856 c-13 -13 -27 -35 -30 -49 -7 -28 20 -88 63 -139 15 -18
40 -52 55 -75 34 -53 69 -77 101 -69 58 14 191 179 203 249 5 31 1 40 -25 67
-17 16 -40 30 -52 30 -36 0 -80 -32 -97 -72 -9 -21 -20 -38 -25 -38 -4 0 -19
17 -32 39 -51 81 -115 103 -161 57z m99 -56 c14 -17 38 -53 53 -80 15 -27 34
-52 40 -55 8 -3 27 25 51 73 34 71 39 77 67 77 44 0 46 -41 5 -105 -37 -57
-126 -143 -143 -138 -14 5 -157 208 -157 224 0 15 22 34 41 34 10 0 29 -14 43
-30z"/>
<path d="M7413 7571 c-109 -37 -181 -112 -202 -212 -23 -105 -9 -180 48 -263
39 -57 87 -86 139 -86 36 0 42 3 48 25 5 18 -1 37 -21 66 -74 113 -72 231 7
279 70 42 147 11 182 -73 20 -47 20 -50 2 -138 -20 -99 -15 -119 32 -119 35 0
107 74 121 125 16 60 13 163 -6 220 -33 92 -144 175 -253 188 -30 4 -63 0 -97
-12z m148 -48 c67 -22 139 -90 156 -148 20 -70 25 -130 14 -173 -12 -43 -54
-102 -66 -90 -3 3 -1 42 6 85 12 77 11 81 -14 136 -44 96 -134 138 -219 102
-107 -44 -153 -216 -85 -317 39 -56 39 -58 21 -58 -23 0 -83 66 -105 115 -62
135 23 311 171 356 40 12 64 10 121 -8z"/>
<path d="M1842 7537 c-41 -44 -65 -132 -70 -255 -5 -134 8 -179 69 -242 46
-47 74 -60 131 -60 158 0 236 194 123 307 -25 25 -42 33 -69 33 -41 0 -56 -20
-36 -46 9 -10 22 -13 41 -9 24 6 31 2 49 -27 17 -26 20 -45 17 -87 -3 -46 -9
-59 -36 -83 -59 -53 -158 -33 -215 45 -19 25 -21 42 -21 145 1 113 14 184 37
198 7 4 8 -12 3 -52 -13 -115 26 -199 102 -225 43 -14 65 -6 61 23 -2 19 -9
23 -35 23 -20 0 -41 9 -55 23 -22 21 -23 29 -20 147 2 114 1 126 -18 145 -25
25 -32 25 -58 -3z"/>
<path d="M2453 7494 c-25 -26 -26 -26 -19 -139 l7 -112 -45 -27 c-71 -41 -85
-85 -41 -126 20 -19 31 -22 64 -16 27 4 41 2 44 -7 3 -6 2 -55 -1 -109 -5 -94
-4 -97 22 -123 25 -25 29 -26 49 -12 34 22 65 85 77 159 7 42 18 71 27 77 14
8 14 11 -1 32 -25 37 -20 47 44 79 57 29 60 29 70 11 5 -11 10 -41 10 -68 0
-77 52 -143 100 -128 43 14 55 60 53 205 -2 152 -9 186 -44 212 -28 21 -29 21
-178 -41 -40 -17 -77 -31 -81 -31 -5 0 -19 32 -31 70 -15 49 -31 78 -51 95
-37 31 -43 31 -75 -1z m54 -36 c6 -7 21 -53 34 -102 13 -49 29 -90 35 -93 6
-2 62 19 125 47 62 28 122 50 133 48 25 -4 34 -56 34 -178 0 -94 -9 -135 -28
-135 -11 0 -18 27 -30 107 -9 59 -19 110 -23 114 -6 7 -178 -67 -203 -87 -6
-5 -14 -55 -17 -112 -6 -110 -22 -177 -44 -177 -10 0 -13 28 -13 126 l0 126
-27 -5 c-16 -3 -45 -8 -65 -12 -58 -12 -50 18 16 55 30 17 56 36 59 43 2 7 0
46 -4 87 -15 143 -10 183 18 148z"/>
<path d="M7460 7337 c-39 -20 -55 -62 -41 -108 14 -45 35 -59 89 -59 65 0 100
66 68 128 -26 50 -67 64 -116 39z m68 -49 c30 -30 2 -86 -37 -73 -29 9 -36 42
-15 66 20 22 35 24 52 7z"/>
</g>
</svg>
