<?xml version="1.0" standalone="no"?>
<!DOCTYPE svg PUBLIC "-//W3C//DTD SVG 20010904//EN"
 "http://www.w3.org/TR/2001/REC-SVG-20010904/DTD/svg10.dtd">
<svg version="1.0" xmlns="http://www.w3.org/2000/svg"
 width="1024.000000pt" height="1024.000000pt" viewBox="0 0 1024.000000 1024.000000"
 preserveAspectRatio="xMidYMid meet">
<metadata>
Created by potrace 1.16, written by Peter Selinger 2001-2019
</metadata>
<g transform="translate(0.000000,1024.000000) scale(0.100000,-0.100000)"
fill="#000000" stroke="none">
<path d="M5987 9972 c-26 -29 -72 -139 -102 -247 -15 -55 -34 -120 -41 -145
-33 -104 -27 -198 12 -183 23 9 43 54 106 248 70 215 84 287 65 328 -10 22
-20 22 -40 -1z"/>
<path d="M3155 9892 c-37 -8 -45 -23 -45 -87 0 -102 50 -225 151 -376 41 -60
73 -86 118 -95 58 -12 104 44 95 114 -6 46 -57 166 -102 241 -84 138 -165 214
-217 203z m73 -139 c35 -46 113 -189 137 -256 43 -116 -30 -40 -105 108 -83
167 -97 230 -32 148z"/>
<path d="M7474 9766 c-102 -32 -260 -180 -318 -296 -48 -99 -60 -196 -27 -229
23 -23 40 -22 121 6 158 56 380 312 380 438 -1 49 -18 73 -61 85 -41 12 -44
12 -95 -4z m56 -104 c0 -30 -73 -132 -141 -199 -59 -56 -151 -123 -171 -123
-32 0 30 117 111 209 90 103 201 165 201 113z"/>
<path d="M4843 9598 c-14 -23 -6 -262 11 -302 19 -45 51 -49 67 -8 17 43 6
265 -15 296 -18 28 -49 34 -63 14z"/>
<path d="M1892 9298 c-17 -17 -15 -27 14 -65 36 -47 287 -269 350 -309 75 -48
105 -44 84 11 -12 32 -214 233 -318 316 -72 58 -106 71 -130 47z"/>
<path d="M7942 9045 c-65 -49 -126 -118 -142 -160 -13 -34 -13 -33 10 -45 24
-13 78 18 141 82 54 56 79 97 79 129 0 43 -25 41 -88 -6z"/>
<path d="M5930 9000 c-25 -5 -130 -20 -235 -34 -104 -15 -228 -33 -275 -41
-47 -8 -191 -28 -320 -45 -129 -17 -242 -33 -250 -35 -9 -3 -76 -14 -150 -25
-119 -17 -284 -44 -420 -70 -25 -5 -126 -23 -225 -40 -322 -56 -557 -99 -735
-134 -226 -43 -856 -171 -940 -191 -36 -8 -133 -26 -215 -40 -81 -14 -169 -32
-194 -39 -25 -8 -77 -19 -116 -26 -131 -23 -162 -54 -180 -175 -19 -132 -32
-676 -34 -1425 -1 -839 -9 -1625 -17 -1648 -2 -8 -4 -198 -4 -422 -1 -445 0
-449 56 -502 16 -14 83 -57 149 -95 66 -38 210 -121 320 -185 376 -216 1124
-636 1445 -810 125 -68 285 -146 325 -159 52 -16 202 -14 391 6 283 30 339 36
354 41 9 2 117 18 240 34 387 53 441 60 615 91 94 16 226 39 295 50 292 48
428 70 625 105 77 14 190 34 250 45 61 10 153 28 205 39 52 11 149 32 215 45
289 58 512 106 540 115 17 5 82 21 145 35 148 33 144 32 532 136 126 34 169
67 182 139 3 19 8 46 11 60 3 14 9 95 15 180 6 85 13 187 15 225 6 89 33 494
40 605 3 47 8 114 10 150 2 36 9 146 15 245 6 99 15 241 20 315 6 74 15 223
20 330 6 107 13 215 15 240 10 93 39 653 50 945 4 83 8 160 10 171 8 36 7 698
0 747 -6 41 -13 52 -49 76 -57 39 -120 70 -288 141 -79 34 -156 67 -173 75
-90 39 -168 70 -680 262 -106 40 -272 101 -405 148 -52 19 -144 52 -205 75
-60 23 -128 47 -150 55 -22 8 -116 41 -210 73 -458 161 -427 152 -512 151 -43
-1 -98 -5 -123 -9z m176 -217 c22 -9 129 -47 239 -84 189 -64 227 -82 180 -86
-11 -1 -96 -13 -190 -28 -93 -14 -273 -42 -400 -61 -126 -19 -277 -43 -335
-54 -58 -10 -144 -24 -192 -31 -98 -14 -66 -21 -333 81 -55 21 -129 48 -165
61 -36 12 -69 25 -73 29 -10 8 70 23 208 40 50 6 171 24 270 40 99 16 239 37
310 45 72 9 137 18 145 20 8 3 33 7 55 11 22 3 74 12 115 19 104 18 122 17
166 -2z m-1501 -214 c22 -6 54 -17 70 -25 17 -7 91 -33 165 -58 74 -24 173
-58 220 -76 172 -64 224 -80 259 -80 20 0 115 14 211 31 96 17 189 33 206 36
21 3 55 -5 115 -30 46 -20 143 -58 214 -85 72 -28 183 -71 248 -96 65 -25 125
-46 133 -46 8 0 14 -4 14 -8 0 -5 -44 -14 -97 -21 -54 -7 -107 -14 -118 -16
-11 -1 -132 -19 -270 -39 -137 -20 -256 -39 -263 -42 -12 -3 -219 -36 -404
-64 -32 -5 -61 -11 -67 -14 -5 -3 -44 -11 -87 -16 -44 -6 -106 -15 -139 -21
-56 -11 -64 -10 -120 16 -80 36 -216 88 -350 135 -60 21 -162 60 -225 86 -137
56 -247 99 -315 123 -27 10 -77 31 -110 46 -63 29 -180 79 -227 97 -16 5 -28
14 -28 19 0 5 12 9 28 9 15 0 77 9 137 21 61 11 178 31 260 44 83 14 197 34
255 45 223 42 233 43 285 29z m2195 -26 c19 -8 161 -59 315 -115 154 -55 316
-113 360 -130 44 -17 107 -41 140 -53 33 -12 96 -36 140 -53 44 -17 123 -47
175 -66 52 -19 131 -49 175 -66 44 -17 106 -41 137 -53 58 -22 74 -37 41 -37
-19 -1 -122 -15 -323 -44 -233 -35 -307 -46 -399 -61 l-94 -16 -81 35 c-234
101 -562 231 -696 276 -124 41 -338 119 -380 138 -25 11 -108 44 -185 72 -153
57 -180 69 -155 70 45 2 507 78 690 114 68 14 83 13 140 -11z m-3380 -202 c82
-22 168 -49 275 -89 39 -14 110 -40 159 -56 49 -17 91 -36 93 -42 2 -6 -67
-20 -179 -37 -212 -32 -313 -49 -493 -84 -71 -13 -173 -33 -225 -43 -52 -10
-133 -28 -180 -39 -47 -11 -143 -32 -214 -47 -120 -25 -132 -25 -160 -11 -60
30 -263 124 -373 173 -62 27 -113 52 -113 56 0 5 13 8 29 8 16 0 92 12 168 26
76 14 201 36 278 49 77 13 187 32 245 43 58 11 150 28 205 37 55 9 114 21 130
27 23 7 205 39 270 47 6 0 44 -8 85 -18z m825 -280 c352 -143 443 -180 475
-194 19 -9 114 -48 210 -86 96 -38 252 -100 345 -139 94 -38 196 -78 227 -88
32 -11 58 -21 58 -24 0 -6 -86 -24 -280 -60 -63 -12 -162 -31 -220 -42 -58
-11 -161 -31 -230 -43 -69 -13 -170 -33 -225 -44 -55 -11 -187 -37 -293 -57
l-194 -37 -86 33 c-159 59 -266 102 -367 145 -55 23 -163 68 -240 99 -187 76
-301 124 -445 189 -25 11 -72 30 -105 43 -93 35 -155 64 -155 73 0 4 30 13 68
20 37 6 103 20 147 31 149 35 419 90 543 110 67 10 127 22 131 24 5 3 91 19
192 36 101 16 204 36 229 44 69 22 86 19 215 -33z m2489 -26 c107 -45 417
-162 481 -181 82 -25 83 -26 10 -40 -38 -7 -83 -15 -100 -18 -16 -3 -109 -18
-205 -32 -96 -14 -206 -32 -245 -40 -38 -8 -133 -26 -210 -39 -77 -13 -255
-45 -395 -70 -140 -25 -273 -48 -295 -51 -34 -5 -70 7 -240 76 -110 45 -253
101 -317 123 -65 23 -118 44 -118 48 0 3 17 9 38 12 20 3 78 13 127 22 50 9
104 18 120 21 31 4 60 10 105 20 14 3 75 13 135 24 181 30 462 79 585 101 154
27 356 56 404 58 24 1 69 -12 120 -34z m-4779 -25 c22 -10 67 -30 100 -45 33
-15 103 -46 155 -70 52 -24 136 -61 185 -82 l90 -39 0 -65 c0 -35 -3 -127 -8
-204 -4 -77 -10 -196 -13 -265 -3 -69 -7 -145 -9 -170 -2 -25 -7 -103 -11
-173 -4 -70 -11 -130 -15 -133 -5 -2 -16 0 -26 6 -27 15 -341 136 -486 188
l-78 27 1 235 c0 129 5 267 10 305 5 39 10 140 10 225 0 85 3 185 7 223 7 75
5 75 88 37z m6575 -177 c3 -136 -4 -560 -9 -603 l-6 -54 -125 -22 c-69 -12
-210 -39 -315 -59 -409 -80 -479 -91 -614 -100 l-104 -7 8 73 c4 41 10 200 14
354 l6 279 95 18 c185 34 943 143 1023 147 23 1 27 -3 27 -26z m-5804 -164
c77 -34 232 -101 345 -149 114 -48 216 -93 229 -100 21 -11 22 -15 16 -133 -4
-67 -9 -144 -11 -172 -2 -27 -9 -187 -16 -355 -6 -168 -14 -309 -18 -313 -4
-4 -41 6 -82 22 -41 16 -117 46 -169 66 -52 20 -147 57 -210 82 -63 24 -146
57 -185 73 -38 15 -78 31 -88 34 -16 5 -18 13 -12 58 8 74 45 778 45 864 0 60
4 84 15 84 2 0 65 -28 141 -61z m4579 -127 c-3 -75 -10 -232 -14 -348 -5 -116
-11 -216 -14 -221 -4 -6 -28 -16 -54 -22 -91 -23 -197 -93 -296 -196 -115
-119 -186 -268 -218 -455 -18 -107 -15 -329 7 -437 57 -291 180 -442 430 -525
90 -30 303 -33 402 -5 321 88 531 349 591 735 21 139 5 303 -44 447 -57 168
-204 349 -334 411 l-36 18 190 36 c105 21 240 47 300 58 61 12 151 30 200 41
50 10 93 17 98 14 8 -5 3 -182 -13 -449 -5 -89 -19 -329 -30 -535 -11 -206
-25 -432 -30 -504 -6 -71 -13 -184 -17 -250 -3 -66 -9 -127 -14 -136 -6 -12
-40 -20 -126 -32 -170 -24 -344 -53 -449 -75 -157 -34 -160 -37 -168 -207 -10
-194 -46 -813 -56 -950 -5 -66 -9 -163 -9 -216 -1 -67 -5 -100 -14 -107 -22
-18 -539 -133 -841 -187 l-39 -6 7 107 c4 59 8 110 10 113 4 5 13 145 19 270
2 41 5 45 42 61 195 85 298 155 372 252 171 222 243 597 152 785 -49 103 -129
152 -259 160 -77 5 -105 0 -370 -70 -87 -23 -281 -58 -390 -72 -25 -3 -148
-10 -275 -15 -126 -5 -255 -14 -285 -20 -88 -19 -198 -76 -255 -134 -90 -90
-133 -256 -122 -470 12 -233 99 -377 286 -470 85 -43 297 -86 422 -86 109 0
328 27 454 56 61 14 121 28 134 31 19 5 22 3 17 -13 -5 -19 -29 -255 -41 -417
-6 -79 -9 -88 -28 -92 -12 -2 -96 -16 -187 -30 -91 -14 -199 -32 -240 -40 -41
-8 -138 -24 -215 -35 -77 -11 -213 -33 -302 -48 -89 -14 -164 -24 -168 -21 -3
3 2 99 10 214 18 244 19 319 5 346 -14 24 -88 26 -210 3 -156 -28 -265 -44
-308 -44 l-43 0 5 68 c3 37 8 128 11 202 3 74 8 191 10 260 3 69 8 175 11 235
5 102 4 112 -15 129 -19 17 -27 18 -118 6 -253 -31 -709 -112 -745 -131 -35
-19 -41 -7 -39 84 1 48 4 96 6 106 2 10 8 139 14 287 18 459 22 537 26 609 2
39 7 209 11 378 3 169 7 320 9 335 1 19 27 52 92 115 97 95 163 177 141 177
-7 0 -34 -20 -59 -44 -67 -65 -151 -136 -161 -136 -5 0 -6 30 -4 68 6 72 15
341 18 488 l1 91 181 41 c100 22 197 44 216 47 19 4 67 13 105 20 139 28 430
86 450 89 44 8 209 40 370 71 255 50 242 48 250 28 9 -23 20 -763 11 -763 -4
0 -44 10 -89 22 -107 29 -343 31 -451 5 -197 -49 -415 -195 -543 -362 -44 -58
-138 -240 -158 -305 -70 -235 -56 -454 42 -650 38 -78 63 -111 133 -181 69
-69 101 -93 170 -127 117 -56 185 -72 326 -79 91 -4 141 -1 205 11 143 29 325
130 463 256 60 55 162 190 200 266 111 218 138 534 64 748 -34 99 -82 169
-182 263 l-95 90 -1 419 c-1 416 -1 418 20 426 21 8 359 69 625 113 83 14 206
36 275 50 69 13 161 30 205 36 44 7 130 22 190 34 61 12 125 22 144 23 l33 1
-7 -137z m-3862 -176 c18 -8 61 -26 97 -41 36 -14 74 -30 85 -35 40 -18 213
-89 315 -130 58 -23 108 -45 111 -48 4 -4 3 -38 -1 -77 -5 -38 -11 -173 -14
-300 -4 -126 -9 -243 -11 -260 -2 -16 -7 -151 -10 -300 -3 -148 -11 -314 -16
-368 -6 -53 -7 -101 -4 -106 15 -24 -23 -18 -112 18 -54 22 -172 69 -263 105
-91 35 -190 75 -220 89 l-55 25 12 333 c34 981 40 1109 50 1109 3 0 19 -6 36
-14z m-1233 -624 c85 -34 198 -77 250 -96 52 -19 127 -48 165 -64 l70 -29 -3
-169 c-1 -93 -7 -241 -12 -329 -6 -88 -15 -241 -20 -340 -12 -204 -17 -245
-30 -245 -5 0 -37 13 -72 29 -35 16 -106 48 -158 71 -52 23 -122 55 -155 70
-113 52 -317 141 -369 160 l-51 20 3 517 c1 285 5 524 7 530 5 14 105 -20 375
-125z m5422 62 c124 -39 193 -97 269 -225 43 -73 65 -137 89 -254 26 -129 25
-158 -5 -296 -32 -147 -39 -164 -107 -287 -142 -256 -480 -368 -751 -248 -101
44 -187 149 -246 299 -37 93 -53 337 -31 470 24 152 98 297 206 404 158 157
360 205 576 137z m-4707 -335 c180 -65 316 -119 333 -132 11 -9 12 -54 7 -231
l-7 -221 23 -21 c13 -12 35 -25 49 -29 14 -4 39 -13 55 -20 17 -7 74 -29 127
-49 144 -53 279 -106 313 -123 16 -9 58 -26 94 -38 l65 -23 -3 -108 c-4 -202
-20 -586 -24 -590 -2 -2 -75 30 -163 70 -87 40 -226 102 -309 136 -143 59
-672 295 -725 323 -24 12 -25 17 -23 98 1 46 4 116 7 154 2 39 10 192 16 340
14 353 22 515 24 515 1 0 65 -23 141 -51z m2643 36 c87 -20 155 -56 241 -128
89 -73 151 -160 185 -262 24 -68 28 -96 28 -191 0 -116 -9 -202 -22 -219 -4
-5 -11 -26 -15 -45 -27 -123 -155 -300 -305 -420 -116 -93 -212 -140 -324
-160 -210 -36 -446 30 -580 164 -124 123 -197 323 -181 496 19 214 104 391
259 538 174 165 346 239 559 241 48 1 118 -6 155 -14z m-3578 -856 c63 -28
148 -67 189 -86 l73 -34 -6 -92 c-3 -51 -9 -246 -12 -433 -7 -329 -6 -342 12
-354 10 -6 87 -41 169 -78 203 -91 185 -75 174 -152 -5 -36 -12 -181 -15 -322
-5 -165 -11 -258 -17 -258 -6 0 -18 6 -26 14 -9 8 -83 49 -166 92 -82 42 -224
122 -315 177 -91 55 -180 109 -197 120 -32 18 -33 21 -34 90 -3 183 3 1383 7
1389 3 4 15 1 27 -6 12 -8 74 -38 137 -67z m411 -188 c48 -16 435 -185 658
-287 l84 -38 -7 -176 c-3 -96 -9 -274 -12 -395 -4 -121 -8 -221 -9 -223 -1 -2
-82 36 -179 83 -97 47 -178 85 -181 85 -3 0 -80 36 -172 80 -93 45 -189 91
-215 103 -26 12 -48 27 -50 32 -2 6 -2 178 0 383 2 300 5 372 16 372 7 0 37
-8 67 -19z m6008 -408 c-4 -38 -12 -167 -19 -288 -7 -121 -14 -233 -16 -250
-4 -30 -5 -48 -25 -340 -14 -213 -28 -348 -37 -356 -8 -9 -280 -90 -302 -91
-3 0 -16 -5 -29 -10 -21 -7 -286 -68 -299 -68 -5 0 8 332 13 340 2 3 6 46 9
95 16 248 13 234 66 292 57 62 136 178 151 222 21 61 2 52 -61 -30 -88 -112
-117 -145 -124 -138 -3 3 2 135 12 294 l17 288 135 23 c74 13 191 33 260 44
69 11 145 24 170 29 90 18 87 20 79 -56z m-5085 11 c56 -25 119 -54 141 -65
22 -10 117 -52 210 -93 94 -41 196 -86 228 -101 l58 -27 -6 -127 c-3 -69 -10
-268 -16 -441 -6 -173 -12 -327 -14 -342 -2 -14 -6 -113 -9 -220 -12 -373 -21
-526 -32 -537 -7 -7 -127 56 -449 234 -88 48 -184 103 -213 122 -53 33 -54 34
-48 76 3 23 8 157 12 297 3 140 7 269 9 285 2 17 5 197 6 400 2 387 8 585 17
585 2 0 50 -21 106 -46z m1563 -636 c-4 -84 -10 -282 -13 -440 -7 -271 -6
-289 11 -308 10 -12 25 -18 32 -16 8 3 75 13 149 21 75 9 183 25 242 36 58 10
110 15 114 11 6 -6 -2 -148 -17 -267 -2 -16 -7 -78 -11 -137 l-7 -106 -36 -8
c-20 -4 -43 -9 -51 -11 -27 -8 -473 -73 -605 -89 -217 -26 -386 -44 -455 -49
-36 -3 -86 -8 -112 -10 -69 -8 -130 4 -124 24 3 9 7 120 11 246 3 127 10 336
15 465 5 129 12 323 16 430 3 107 8 198 10 202 3 4 21 10 42 13 20 4 57 13 82
20 48 15 150 36 290 60 47 8 110 20 140 26 71 14 217 36 254 38 l29 1 -6 -152z
m1203 62 c174 -50 323 -145 405 -257 50 -67 97 -152 90 -163 -6 -10 -200 -57
-290 -70 -109 -15 -335 -12 -423 6 -102 20 -230 83 -281 139 -53 58 -88 129
-101 206 -5 35 -10 67 -10 71 0 17 128 70 213 88 77 16 313 5 397 -20z m-3272
-104 c77 -36 176 -83 221 -105 l81 -41 -6 -343 c-4 -188 -10 -346 -14 -350 -4
-5 -70 26 -146 69 -77 43 -177 99 -224 124 l-85 45 3 220 c3 274 12 445 22
445 4 0 71 -29 148 -64z"/>
<path d="M4415 5268 c20 -69 69 -153 114 -196 50 -48 158 -119 166 -110 3 3
-33 43 -81 89 -47 46 -110 119 -140 162 -57 80 -70 93 -59 55z"/>
<path d="M2082 6315 c-9 -36 -9 -65 0 -135 7 -50 15 -90 19 -90 10 0 19 69 19
157 0 120 -16 149 -38 68z"/>
<path d="M7124 6421 c-27 -12 -79 -72 -97 -113 -57 -127 -47 -327 21 -438 123
-200 311 -43 314 263 2 131 -23 207 -86 266 -28 27 -113 39 -152 22z"/>
<path d="M5638 6151 c-36 -23 -53 -44 -79 -97 -34 -68 -34 -69 -34 -215 0
-142 1 -147 30 -204 36 -70 72 -95 143 -98 46 -2 54 1 87 33 71 68 110 191
109 340 -1 136 -35 210 -116 251 -52 26 -87 24 -140 -10z"/>
<path d="M3448 4293 c-1 -32 -2 -77 -1 -100 1 -50 30 -143 45 -143 17 0 -15
284 -33 296 -5 3 -10 -21 -11 -53z"/>
<path d="M1266 8745 c-32 -32 19 -89 171 -190 84 -55 146 -67 151 -29 4 25
-80 101 -194 176 -85 56 -107 64 -128 43z"/>
<path d="M8744 8725 c-27 -13 -86 -54 -131 -90 -80 -63 -103 -96 -90 -130 17
-44 215 78 293 181 22 28 24 37 14 49 -17 20 -28 19 -86 -10z"/>
<path d="M639 8134 c-9 -11 -10 -21 -3 -32 15 -25 133 -81 299 -141 44 -16
103 -38 131 -49 81 -31 120 -36 128 -16 14 38 -55 85 -238 163 -202 87 -290
107 -317 75z"/>
<path d="M9415 7711 c-136 -48 -235 -107 -235 -140 0 -42 102 -25 234 40 99
49 136 81 120 107 -16 25 -31 25 -119 -7z"/>
<path d="M782 7270 c-12 -11 -19 -27 -16 -34 14 -37 161 -79 279 -80 83 -1 90
0 90 19 0 31 -71 63 -200 91 -138 29 -126 29 -153 4z"/>
<path d="M9475 6735 c-130 -23 -254 -85 -276 -137 -19 -46 -4 -77 48 -100 41
-18 60 -20 167 -15 129 5 199 23 269 68 41 28 57 56 57 104 0 43 -27 69 -85
84 -54 14 -90 13 -180 -4z m146 -105 c-25 -22 -101 -46 -178 -59 -54 -8 -123
-3 -123 9 0 9 97 46 155 59 22 5 69 9 105 10 l65 0 -24 -19z"/>
<path d="M660 6354 c-58 -12 -123 -37 -150 -61 -25 -21 -30 -32 -30 -70 0 -58
34 -92 122 -119 67 -20 248 -27 338 -11 56 9 160 43 181 60 44 33 52 102 16
135 -49 46 -129 64 -297 68 -85 1 -166 0 -180 -2z m349 -105 c31 -6 50 -16 48
-22 -13 -40 -310 -63 -415 -32 -29 9 -52 20 -52 25 0 7 54 28 115 44 31 8 247
-2 304 -15z"/>
<path d="M9191 5733 c-35 -29 -22 -58 34 -72 69 -17 240 -14 259 5 23 22 4 51
-42 64 -20 5 -80 13 -132 16 -85 6 -98 4 -119 -13z"/>
<path d="M995 5385 c-110 -25 -185 -60 -185 -86 0 -4 7 -15 17 -24 18 -19 87
-15 178 10 28 7 68 18 91 24 55 15 100 56 84 76 -16 19 -101 18 -185 0z"/>
<path d="M9106 4851 c-4 -6 -4 -21 -1 -32 12 -36 116 -74 399 -145 79 -20 130
-16 134 12 4 31 -85 74 -253 124 -149 43 -267 61 -279 41z"/>
<path d="M995 4560 c-92 -30 -198 -92 -214 -124 -11 -24 -11 -30 3 -44 14 -14
21 -14 73 2 122 38 247 121 241 161 -4 27 -31 28 -103 5z"/>
<path d="M8966 3794 c-31 -30 16 -77 147 -148 97 -52 138 -63 156 -42 27 32
-33 88 -173 161 -95 50 -107 52 -130 29z"/>
<path d="M1592 3535 c-42 -19 -129 -75 -222 -146 -129 -98 -180 -163 -159
-202 6 -9 16 -17 23 -17 19 0 102 58 230 163 188 152 223 190 194 209 -18 11
-28 10 -66 -7z"/>
<path d="M2212 3082 c-51 -28 -140 -119 -166 -170 -39 -78 -42 -107 -12 -137
33 -33 66 -32 142 4 107 51 173 137 177 232 2 43 -2 54 -22 70 -29 23 -75 24
-119 1z m55 -79 c-2 -5 -12 -25 -22 -46 -18 -39 -96 -107 -122 -107 -11 0 -11
6 4 32 25 45 109 128 128 128 9 0 14 -3 12 -7z"/>
<path d="M8180 3035 c-20 -24 -2 -51 83 -125 123 -107 187 -133 187 -75 0 42
-193 215 -240 215 -10 0 -23 -7 -30 -15z"/>
<path d="M7330 2860 c-40 -40 -16 -150 62 -279 89 -146 170 -214 260 -215 43
-1 53 3 75 28 23 27 25 36 21 101 -6 95 -49 177 -141 268 -106 106 -226 148
-277 97z m124 -89 c91 -63 183 -185 200 -268 10 -44 -4 -47 -57 -13 -53 33
-117 111 -157 189 -28 57 -47 121 -35 121 3 0 26 -13 49 -29z"/>
<path d="M3033 2698 c-62 -75 -263 -379 -302 -456 -12 -24 -20 -51 -17 -59 9
-22 59 11 111 72 129 152 329 475 311 504 -16 25 -46 7 -103 -61z"/>
<path d="M6139 2648 c-20 -35 -72 -137 -116 -228 -44 -91 -107 -212 -138 -270
-142 -256 -155 -290 -121 -303 40 -16 140 110 254 323 76 141 75 138 135 275
83 188 95 257 47 263 -22 2 -30 -6 -61 -60z"/>
<path d="M4572 2588 c-13 -17 -49 -95 -122 -268 -34 -80 -113 -251 -176 -380
-63 -129 -114 -243 -114 -253 0 -28 26 -31 60 -5 124 90 436 774 407 891 -8
29 -37 37 -55 15z"/>
<path d="M5485 2546 c-14 -24 -49 -97 -79 -162 -61 -136 -101 -217 -208 -429
-42 -82 -79 -162 -83 -177 -6 -25 -4 -28 18 -28 18 0 39 16 74 55 129 144 353
611 353 735 0 46 -2 50 -25 50 -18 0 -31 -11 -50 -44z"/>
<path d="M6711 2481 c-35 -22 28 -286 76 -318 20 -13 23 -12 38 11 16 23 16
31 0 113 -10 48 -26 110 -37 138 -25 63 -44 77 -77 56z"/>
<path d="M3637 2448 c-59 -80 -260 -480 -288 -576 -16 -54 -3 -72 34 -47 53
35 124 156 222 381 61 139 88 228 79 256 -8 26 -20 22 -47 -14z"/>
<path d="M5850 1334 c-120 -10 -300 -40 -405 -68 -9 -2 -97 -29 -260 -78 -78
-24 -228 -28 -280 -8 -52 21 -197 40 -296 40 -82 0 -314 -20 -399 -34 -166
-29 -221 -39 -315 -61 -225 -53 -297 -73 -684 -184 -117 -34 -184 -46 -205
-38 -12 5 -8 19 19 72 42 79 44 121 10 179 -64 109 -116 128 -370 134 -213 5
-372 -7 -580 -44 -218 -39 -274 -51 -410 -88 -337 -91 -598 -187 -636 -232 -9
-11 -10 -20 -2 -32 16 -26 84 -18 283 33 572 148 982 215 1325 218 153 1 175
-1 216 -20 26 -11 49 -26 53 -31 4 -6 -10 -45 -29 -87 -46 -96 -53 -136 -30
-171 51 -78 239 -71 580 22 115 31 384 100 425 109 8 1 33 8 55 13 22 6 119
22 215 36 96 15 202 31 236 37 34 6 130 11 215 11 123 1 171 -3 239 -20 139
-34 200 -42 259 -36 61 7 178 36 208 52 26 14 237 70 348 93 188 38 388 47
525 25 88 -15 148 -27 180 -37 19 -5 59 -17 88 -25 64 -17 241 -89 377 -152
97 -46 102 -47 190 -45 50 0 171 13 270 28 99 14 212 31 250 36 95 14 399 13
510 -1 144 -18 374 -67 450 -95 39 -15 128 -51 198 -81 132 -57 167 -61 167
-22 0 42 -102 134 -210 188 -128 64 -363 125 -610 158 -71 9 -412 9 -470 0
-25 -4 -88 -12 -140 -18 -52 -6 -103 -13 -115 -15 -47 -11 -254 -35 -304 -35
-48 0 -73 9 -195 69 -317 157 -646 228 -946 205z"/>
<path d="M4620 804 c-99 -9 -279 -35 -345 -49 -38 -9 -142 -31 -230 -49 -88
-19 -232 -53 -320 -76 -88 -23 -209 -53 -270 -67 -60 -14 -119 -29 -130 -34
-23 -9 -188 -40 -350 -65 -177 -28 -413 -24 -607 10 -87 15 -188 36 -225 47
-186 55 -214 62 -219 56 -3 -3 2 -17 12 -32 38 -58 277 -149 517 -197 148 -30
491 -32 662 -5 110 17 420 85 700 153 312 75 443 106 540 125 131 26 341 64
435 79 130 22 172 57 106 89 -29 14 -192 22 -276 15z"/>
<path d="M5360 765 c-286 -50 -540 -121 -1170 -327 -175 -57 -304 -115 -308
-139 -2 -10 8 -21 27 -29 62 -25 286 18 646 125 191 57 474 138 560 162 443
120 519 145 532 179 4 11 -1 22 -12 30 -24 18 -171 17 -275 -1z"/>
<path d="M6203 770 c-77 -11 -87 -13 -246 -44 -70 -14 -167 -37 -215 -52 -154
-47 -426 -134 -447 -144 -11 -5 -63 -24 -115 -43 -322 -117 -439 -178 -415
-217 14 -23 198 -1 330 40 77 25 363 112 485 150 52 16 160 47 240 70 80 23
181 52 225 65 71 21 197 50 394 89 57 12 80 26 81 49 0 32 -194 54 -317 37z"/>
<path d="M6895 688 c-198 -19 -567 -104 -832 -194 -239 -80 -353 -141 -353
-188 0 -47 125 -24 620 114 149 41 449 107 645 140 158 27 177 31 208 47 56
28 19 70 -75 83 -70 10 -89 10 -213 -2z"/>
<path d="M7700 640 c0 -5 11 -12 25 -16 33 -8 32 -29 -2 -42 -71 -27 -162 -43
-483 -87 -102 -13 -198 -29 -215 -34 -16 -6 -70 -20 -120 -32 -133 -32 -195
-67 -175 -99 20 -31 405 -3 695 51 262 49 389 95 438 162 29 38 15 78 -33 94
-43 15 -130 17 -130 3z"/>
</g>
</svg>
