<?xml version="1.0" standalone="no"?>
<!DOCTYPE svg PUBLIC "-//W3C//DTD SVG 20010904//EN"
 "http://www.w3.org/TR/2001/REC-SVG-20010904/DTD/svg10.dtd">
<svg version="1.0" xmlns="http://www.w3.org/2000/svg"
 width="1024.000000pt" height="1024.000000pt" viewBox="0 0 1024.000000 1024.000000"
 preserveAspectRatio="xMidYMid meet">
<metadata>
Created by potrace 1.16, written by Peter Selinger 2001-2019
</metadata>
<g transform="translate(0.000000,1024.000000) scale(0.100000,-0.100000)"
fill="#000000" stroke="none">
<path d="M4495 9362 c-11 -2 -51 -14 -90 -27 -165 -54 -827 -402 -1285 -675
-237 -142 -274 -165 -655 -408 -316 -200 -641 -419 -668 -450 -25 -28 -43 -99
-126 -502 -73 -355 -114 -574 -155 -825 -74 -449 -153 -956 -191 -1225 -19
-140 -47 -329 -60 -420 -83 -559 -131 -974 -137 -1197 -3 -93 -3 -95 25 -117
16 -13 54 -31 85 -40 31 -10 120 -38 197 -63 161 -51 334 -105 625 -193 113
-34 322 -99 465 -145 143 -46 337 -107 430 -135 94 -29 233 -72 310 -95 247
-77 393 -122 720 -220 176 -53 410 -124 520 -159 110 -35 241 -76 290 -90 50
-15 196 -61 325 -102 129 -41 252 -80 272 -86 33 -10 49 -7 145 27 111 39 548
197 663 240 36 13 178 65 315 115 509 185 1070 394 1140 426 17 7 66 27 110
43 171 63 359 142 376 157 26 24 55 105 100 284 201 787 224 882 375 1540 100
434 247 1114 314 1452 22 112 49 248 60 303 12 55 34 179 51 275 16 96 47 276
69 400 58 331 81 459 89 513 11 66 -2 126 -30 148 -13 10 -44 26 -69 35 -25 9
-81 32 -125 51 -194 84 -718 257 -1270 418 -143 42 -298 88 -345 102 -47 14
-116 33 -155 43 -38 10 -119 32 -180 50 -152 44 -274 76 -380 100 -122 28
-232 55 -410 100 -354 91 -1098 259 -1395 314 -136 26 -308 44 -345 38z m275
-216 c124 -24 189 -39 430 -97 69 -16 135 -32 148 -35 17 -3 22 -11 22 -33 0
-26 -14 -144 -25 -207 -2 -12 -6 -47 -10 -78 l-7 -55 -39 19 c-69 36 -76 32
-206 -106 -65 -69 -122 -135 -128 -146 -12 -26 -3 -33 165 -138 l125 -78 0
-58 c0 -52 2 -59 20 -59 14 0 22 10 28 40 6 22 11 42 13 44 4 5 184 -103 184
-111 0 -5 -9 -8 -20 -8 -26 0 -167 -54 -224 -86 -72 -40 -182 -150 -243 -242
-113 -172 -177 -369 -176 -542 1 -287 142 -533 394 -685 90 -55 230 -110 334
-132 111 -24 336 -13 440 21 254 82 431 273 512 551 8 28 16 116 19 200 5 130
3 163 -16 245 -23 103 -68 205 -106 241 -13 12 -24 28 -24 35 0 6 29 62 65
125 36 62 65 116 65 120 0 32 -184 162 -560 393 -69 42 -132 81 -140 86 -8 5
-64 37 -125 71 -60 35 -152 87 -203 117 l-93 54 5 37 c3 20 13 90 21 156 26
198 23 188 48 181 12 -3 83 -19 157 -37 170 -39 634 -156 678 -170 23 -8 32
-17 32 -32 0 -32 -59 -406 -70 -447 -15 -55 -12 -88 9 -99 13 -8 22 -7 29 2 8
10 68 349 88 500 4 29 11 47 20 47 22 0 309 -76 689 -182 198 -55 380 -106
405 -112 28 -8 46 -19 48 -29 4 -20 -5 -76 -48 -310 -16 -93 -28 -173 -25
-178 11 -17 35 -9 45 14 8 18 62 295 85 430 3 20 10 37 15 37 14 0 520 -150
539 -159 9 -5 32 -11 51 -15 45 -8 366 -111 535 -171 72 -26 159 -56 195 -68
36 -12 67 -22 69 -24 4 -3 0 -27 -55 -373 -54 -338 -95 -574 -102 -582 -4 -4
-39 1 -77 11 -39 11 -122 33 -187 50 -64 17 -128 31 -141 31 -32 0 -48 -37
-23 -55 14 -11 225 -73 359 -106 27 -6 51 -17 53 -23 4 -11 -179 -932 -187
-940 -2 -2 -112 25 -244 60 -288 77 -307 81 -323 61 -10 -12 -8 -20 13 -45 13
-16 35 -32 47 -35 118 -26 475 -120 481 -127 5 -4 -5 -70 -22 -146 -17 -77
-44 -202 -60 -279 -48 -233 -121 -558 -126 -563 -2 -2 -43 7 -90 22 -184 57
-469 139 -548 156 -51 12 -58 16 -53 34 2 12 19 95 36 186 17 91 42 219 55
285 22 106 23 121 10 135 -35 35 -46 4 -106 -295 -32 -159 -63 -303 -69 -319
-25 -72 -17 -79 114 -107 32 -7 60 -18 63 -24 3 -10 -85 -434 -92 -443 -2 -2
-83 20 -181 49 -223 65 -504 137 -565 145 -26 3 -49 2 -52 -3 -3 -5 -17 -65
-31 -133 -37 -182 -169 -774 -172 -779 -4 -4 -89 20 -269 76 -132 41 -530 157
-635 185 -41 11 -76 20 -77 21 0 1 23 112 53 247 29 135 54 255 54 267 0 27
-37 41 -55 22 -10 -12 -68 -259 -106 -457 -9 -50 -15 -62 -28 -58 -9 3 -50 14
-91 25 -41 10 -129 35 -195 55 -66 19 -226 62 -355 95 -294 75 -280 71 -280
85 0 6 14 83 31 171 31 164 42 223 59 321 5 31 12 64 15 73 11 37 -19 51 -235
112 -118 33 -220 62 -226 64 -9 2 -8 19 2 62 7 32 20 96 28 143 8 47 36 182
60 300 25 118 43 223 40 232 -3 10 -15 20 -27 23 -12 2 -125 27 -252 55 -126
28 -233 54 -237 58 -3 4 14 113 38 242 50 264 88 473 106 570 6 36 13 66 14
68 3 4 125 -29 403 -110 119 -34 214 -57 227 -54 29 8 41 43 21 63 -8 9 -71
30 -139 47 -205 54 -441 114 -471 121 -27 6 -28 8 -22 48 12 75 115 642 120
657 2 8 16 80 30 160 34 194 51 279 57 286 3 3 61 -12 129 -32 186 -55 349
-95 373 -92 16 2 21 10 21 32 0 27 -4 30 -70 48 -240 63 -445 126 -445 135 0
21 64 405 101 603 4 25 15 82 23 128 8 45 25 118 37 162 21 78 22 80 53 80 17
0 87 -11 156 -24z m-410 -183 c-35 -214 -99 -575 -106 -605 -3 -9 -16 -19 -30
-22 -32 -8 -271 -114 -375 -166 -44 -23 -83 -39 -85 -37 -5 5 10 93 62 372 41
223 64 339 67 341 1 1 90 47 197 103 107 56 215 113 240 126 25 13 46 22 48
20 2 -2 -6 -61 -18 -132z m-550 -169 c0 -7 -71 -401 -106 -586 -15 -76 -24
-144 -21 -153 13 -31 52 -28 133 13 122 61 415 194 418 191 2 -2 -7 -62 -19
-134 -115 -651 -137 -770 -146 -786 -5 -11 -16 -19 -23 -19 -46 0 -728 -245
-930 -335 -32 -14 -60 -24 -62 -22 -2 2 12 82 31 178 19 96 54 289 78 429 38
214 43 257 31 269 -11 12 -34 5 -161 -49 -81 -35 -179 -78 -217 -97 -37 -19
-69 -33 -71 -31 -2 3 73 454 91 547 9 42 13 46 99 99 50 30 164 98 255 150 91
52 181 104 200 115 19 11 114 63 210 115 96 52 179 98 185 103 10 10 25 12 25
3z m-1044 -616 c-3 -13 -10 -45 -15 -73 -6 -27 -18 -97 -26 -155 -8 -58 -24
-155 -36 -216 l-20 -110 -180 -89 c-98 -49 -190 -100 -203 -114 -27 -30 -29
-35 -67 -250 -16 -91 -32 -168 -36 -172 -5 -3 -51 -25 -103 -48 -52 -24 -136
-62 -185 -85 -122 -58 -139 -63 -131 -39 3 10 15 68 27 128 28 151 134 651
148 700 10 38 20 46 201 160 105 66 226 142 268 170 191 124 338 214 350 215
8 0 11 -8 8 -22z m3028 -304 c83 -48 203 -118 266 -157 63 -39 139 -86 169
-104 30 -18 66 -33 80 -33 47 -1 107 -111 136 -252 20 -92 19 -255 -1 -337
-27 -112 -103 -257 -178 -337 -150 -163 -331 -237 -561 -230 -219 7 -389 77
-542 221 -96 90 -144 161 -195 290 -32 78 -32 84 -32 230 0 124 4 164 23 234
53 199 145 334 298 436 67 45 129 73 228 101 131 37 137 36 309 -62z m-2679
-161 c-26 -183 -59 -383 -85 -508 -52 -255 -57 -282 -49 -303 15 -41 47 -35
239 43 101 41 186 72 188 70 6 -6 -35 -268 -60 -380 -31 -143 -34 -162 -62
-325 -15 -85 -30 -158 -34 -161 -4 -4 -110 -43 -237 -88 -126 -46 -248 -89
-270 -98 -93 -36 -235 -81 -235 -75 0 7 26 165 60 357 32 187 35 224 16 231
-16 6 -351 -103 -409 -133 -16 -8 -31 -12 -34 -10 -2 3 0 31 6 64 6 32 27 157
47 278 19 121 42 249 49 285 8 36 28 144 45 240 17 96 32 175 33 176 1 1 36
18 77 37 41 19 125 58 185 87 61 29 180 85 265 126 85 40 178 84 205 98 28 14
53 25 58 25 4 1 5 -16 2 -36z m941 -480 c-4 -16 -13 -64 -21 -108 -7 -44 -30
-165 -50 -270 -20 -104 -58 -307 -85 -450 -102 -548 -122 -650 -124 -652 -2
-2 -216 -78 -406 -145 -80 -28 -154 -59 -164 -68 -23 -22 -15 -50 14 -50 12 0
114 32 228 71 255 87 302 102 308 97 2 -2 -14 -101 -36 -219 -22 -118 -49
-263 -60 -324 -58 -325 -91 -490 -98 -496 -6 -6 -327 -126 -614 -230 -100 -36
-108 -37 -108 -19 0 10 11 83 24 162 14 79 28 163 31 188 4 25 10 64 16 87 5
22 18 106 30 185 11 78 23 159 26 179 4 29 2 37 -13 43 -37 14 -40 3 -75 -264
-6 -47 -17 -90 -23 -97 -6 -7 -67 -32 -136 -57 -140 -49 -474 -180 -564 -220
-33 -14 -61 -25 -63 -22 -2 2 12 95 31 207 19 112 37 227 41 254 3 28 9 56 13
62 4 6 48 28 97 48 50 20 100 47 113 59 23 23 30 60 77 411 24 185 26 193 38
203 13 10 137 57 407 152 298 105 377 137 397 161 6 8 17 52 23 99 6 47 22
137 35 200 40 198 73 381 91 502 9 64 20 121 23 126 10 16 317 136 521 205 61
21 62 21 56 -10z m-1902 -400 c-7 -43 -29 -170 -48 -281 -44 -247 -47 -290
-24 -305 13 -9 25 -9 45 0 16 6 60 24 98 41 39 16 115 43 170 61 55 18 108 37
118 42 14 8 17 5 17 -18 0 -16 -7 -64 -15 -108 -17 -87 -100 -601 -135 -840
-13 -82 -26 -159 -30 -170 -5 -13 -40 -33 -101 -59 -104 -43 -278 -120 -323
-142 -16 -8 -31 -14 -33 -14 -2 0 -1 21 2 48 11 101 36 300 45 362 5 36 10 80
10 98 0 28 -3 32 -25 32 -25 0 -194 -60 -324 -114 -35 -15 -64 -26 -66 -24 -3
3 1 27 86 548 33 201 70 421 84 490 13 69 27 146 30 172 4 26 12 54 19 61 9
13 391 197 407 197 3 0 0 -35 -7 -77z m2081 -954 c116 -28 211 -52 212 -53 1
-1 -13 -76 -32 -166 -18 -91 -45 -237 -61 -325 -15 -88 -30 -163 -33 -167 -3
-4 -85 11 -181 33 -96 22 -196 44 -222 50 -27 6 -48 15 -48 21 0 11 36 215 76
428 47 251 44 241 62 236 9 -3 112 -28 227 -57z m-2381 -564 c-14 -99 -28
-214 -31 -256 -5 -72 -4 -78 17 -89 18 -10 39 -5 137 35 63 25 118 44 121 41
4 -5 -16 -143 -38 -261 -10 -54 -55 -315 -86 -500 -36 -213 -53 -298 -62 -306
-4 -4 -56 -28 -117 -53 -60 -25 -192 -79 -292 -120 l-183 -75 0 32 c0 34 26
333 35 407 4 25 9 48 13 52 4 4 61 25 127 48 66 22 129 49 139 59 24 24 14 51
-18 51 -20 0 -142 -40 -227 -74 -13 -6 -14 2 -6 66 27 220 139 984 145 990 12
11 343 138 349 134 1 -1 -9 -83 -23 -181z m2253 -179 c180 -44 673 -175 680
-180 1 -1 -2 -21 -7 -46 -5 -25 -23 -119 -39 -210 -46 -247 -54 -284 -57 -291
-4 -7 -36 1 -329 81 -99 27 -270 70 -380 96 -110 25 -204 50 -209 55 -9 8 12
156 60 413 13 71 24 130 24 132 0 11 58 -1 257 -50z m3839 -165 c16 -6 121
-35 234 -67 113 -31 208 -59 212 -63 7 -6 -17 -111 -113 -506 -44 -184 -96
-365 -108 -378 -7 -7 -95 16 -439 116 -85 25 -162 42 -173 40 -24 -7 -19 10
-116 -432 -7 -36 -15 -66 -17 -68 -1 -2 -29 6 -62 16 -72 24 -272 87 -414 131
-162 50 -149 42 -139 92 7 36 91 447 145 708 26 123 25 121 43 116 9 -3 45
-12 81 -21 78 -20 567 -161 628 -181 50 -17 76 -7 86 30 3 13 26 116 51 228
25 112 47 213 50 226 6 25 10 26 51 13z m-5110 -244 c-10 -67 -13 -81 -42
-249 l-27 -157 -111 -47 c-61 -25 -138 -57 -171 -71 -157 -65 -480 -191 -484
-188 -1 2 4 39 12 82 16 78 40 226 53 316 6 46 9 50 53 69 95 41 706 285 720
287 2 1 0 -19 -3 -42z m1058 -323 c211 -51 529 -136 590 -157 l39 -13 -207
-88 -206 -89 -158 48 -157 47 -188 -82 -188 -82 -112 35 c-137 44 -293 91
-370 112 -32 9 -57 18 -55 20 7 6 108 45 218 85 63 23 196 72 295 110 99 37
198 75 220 83 22 8 51 15 64 16 13 1 109 -20 215 -45z m959 -254 c281 -73 416
-111 667 -183 124 -36 279 -80 345 -97 143 -38 158 -45 124 -55 -13 -4 -46
-18 -74 -30 -27 -13 -147 -64 -265 -114 -118 -50 -242 -104 -275 -120 -33 -16
-91 -43 -130 -59 -38 -16 -114 -48 -168 -72 -57 -24 -108 -40 -120 -37 -12 2
-74 20 -137 40 -165 50 -406 120 -542 158 -65 18 -118 36 -118 39 0 4 24 16
53 27 84 32 441 175 457 183 8 4 16 18 18 32 2 18 -4 27 -25 37 -32 15 -340
101 -360 101 -8 0 -30 7 -51 16 l-37 15 135 55 c74 30 164 67 200 83 36 16 76
30 88 30 13 1 110 -22 215 -49z m-1978 -69 c49 -16 158 -50 240 -76 83 -26
183 -57 223 -70 85 -28 77 -30 272 57 80 35 156 69 170 74 19 8 44 5 115 -17
309 -92 575 -170 603 -175 18 -4 34 -10 37 -14 2 -4 -89 -46 -203 -94 -114
-48 -220 -93 -237 -100 -16 -8 -95 -40 -174 -71 l-143 -57 -192 57 c-105 31
-290 88 -410 126 -199 63 -223 69 -250 58 -17 -7 -79 -34 -139 -60 l-107 -48
-193 55 c-249 71 -390 115 -385 118 3 3 612 246 648 259 25 9 32 8 125 -22z
m4850 -80 c175 -55 258 -80 343 -103 l82 -23 -6 -35 c-10 -66 -84 -412 -89
-418 -4 -4 -224 60 -408 120 -147 47 -158 53 -152 72 6 20 32 138 70 316 23
108 25 112 43 107 10 -3 62 -19 117 -36z m-5555 -245 c91 -29 218 -70 283 -91
65 -20 117 -38 115 -40 -10 -9 -500 -215 -512 -215 -13 0 -152 41 -426 127
-184 57 -176 49 -90 87 41 18 122 51 180 73 133 52 285 112 285 112 0 1 74
-23 165 -53z m4001 20 c24 -7 96 -28 159 -46 241 -68 677 -200 725 -220 l20
-8 -20 -7 c-37 -13 -249 -96 -295 -115 -25 -10 -122 -48 -217 -84 l-172 -67
-373 115 c-205 63 -409 124 -453 136 -44 12 -83 25 -87 29 -8 7 627 278 658
280 6 1 30 -5 55 -13z m-2951 -142 c468 -151 520 -166 553 -160 18 3 87 28
154 55 l122 49 148 -45 c81 -24 186 -55 233 -67 47 -13 183 -54 304 -90 120
-37 227 -68 237 -69 10 -1 44 11 76 25 117 54 300 128 316 128 16 0 612 -177
861 -256 60 -19 126 -34 147 -34 34 0 116 26 270 85 l45 18 225 -72 c123 -40
257 -83 297 -97 40 -13 79 -24 87 -24 37 0 7 -18 -87 -54 -57 -21 -130 -48
-163 -61 -33 -14 -121 -46 -195 -73 -74 -28 -179 -66 -233 -86 -54 -20 -102
-34 -106 -32 -4 3 -119 37 -256 76 -138 40 -297 87 -355 105 -58 18 -168 52
-245 75 -77 23 -180 55 -228 71 l-89 28 -121 -48 c-67 -27 -164 -67 -216 -90
l-94 -41 -86 26 c-47 14 -106 33 -131 41 -25 8 -133 39 -240 68 -107 29 -265
74 -350 100 -85 25 -186 55 -225 67 -38 11 -140 42 -227 68 -188 59 -140 66
-523 -80 -60 -24 -138 -53 -173 -66 l-62 -23 -108 35 c-59 19 -177 55 -262 80
-132 39 -296 90 -350 110 -9 4 5 14 40 28 30 13 181 76 335 140 154 64 298
125 320 135 81 37 90 39 110 34 11 -3 121 -39 245 -79z m4072 -193 c159 -45
515 -168 507 -175 -2 -2 -84 -36 -183 -75 -150 -61 -185 -72 -215 -66 -41 7
-151 40 -326 95 -66 21 -155 48 -198 61 -43 12 -79 25 -81 28 -3 4 352 149
391 160 2 1 49 -12 105 -28z m-3533 -225 c152 -46 320 -97 374 -112 53 -15 97
-31 97 -34 0 -3 -100 -46 -221 -94 -148 -59 -230 -86 -248 -83 -14 2 -141 40
-281 84 -140 44 -301 93 -357 109 -57 16 -103 31 -103 34 0 4 366 146 459 179
2 0 128 -37 280 -83z m1936 -271 c233 -71 514 -159 613 -191 23 -8 49 -14 57
-14 31 0 13 -16 -42 -36 -320 -119 -432 -158 -453 -157 -14 0 -88 19 -165 42
-279 84 -312 94 -440 132 l-130 38 -208 -80 -208 -80 -92 27 c-131 38 -719
222 -723 227 -3 3 321 141 413 176 48 18 39 20 323 -67 91 -28 191 -57 222
-65 l57 -15 193 83 c106 45 200 84 208 87 8 3 40 -3 70 -13 30 -10 168 -52
305 -94z m-233 -358 c157 -50 285 -95 282 -98 -2 -4 -74 -31 -160 -59 l-156
-52 -122 36 c-66 20 -201 63 -299 94 l-179 58 149 61 c94 39 157 59 173 56 14
-2 154 -45 312 -96z"/>
<path d="M8135 7949 c-93 -17 -167 -32 -675 -138 -242 -51 -539 -127 -558
-144 -12 -10 -14 -32 -8 -123 3 -61 9 -125 12 -142 5 -24 2 -31 -14 -36 -36
-12 -147 -134 -189 -209 -99 -177 -128 -413 -73 -589 11 -35 20 -64 20 -65 0
-1 -35 -3 -77 -5 -70 -3 -78 -5 -78 -22 0 -22 26 -31 235 -81 131 -31 313 -86
378 -115 l44 -20 -7 -47 c-13 -91 -105 -293 -133 -293 -5 0 -34 9 -65 19 -76
27 -400 101 -437 101 -29 0 -38 -13 -22 -36 6 -10 429 -163 515 -186 52 -15
79 2 124 73 l35 57 46 -14 c26 -8 65 -19 87 -26 22 -6 94 -12 160 -12 98 -1
133 3 190 22 295 94 498 367 534 719 18 170 -11 324 -90 490 -53 112 -134 209
-223 269 -57 38 -63 35 99 59 313 45 381 58 394 70 15 15 16 9 -23 190 -17 78
-22 108 -32 171 -11 77 -36 86 -169 63z m-385 -590 c32 -17 90 -63 130 -103
56 -56 81 -91 120 -172 72 -148 89 -222 85 -369 -6 -198 -48 -327 -149 -462
-89 -118 -182 -186 -326 -238 -62 -23 -93 -28 -175 -28 -94 -1 -220 17 -230
33 -3 4 7 40 21 81 28 81 40 154 30 193 -4 18 -22 34 -56 51 -45 23 -245 82
-388 115 -59 14 -71 27 -97 104 -76 229 -15 495 155 677 54 57 56 59 86 48 29
-12 185 14 549 92 113 23 169 19 245 -22z"/>
<path d="M6995 7092 c-47 -29 -86 -88 -111 -169 -28 -86 -30 -149 -9 -220 41
-139 183 -145 263 -13 42 71 54 117 56 210 1 87 -22 159 -61 190 -33 25 -98
26 -138 2z"/>
<path d="M4715 6596 c-21 -31 -63 -218 -76 -341 -37 -325 59 -719 232 -954 84
-114 260 -260 395 -329 134 -68 419 -163 614 -205 87 -18 136 -22 290 -22 172
0 192 2 284 28 171 47 306 128 442 262 131 129 265 375 273 501 2 35 -2 45
-24 62 -15 12 -43 24 -64 27 -138 22 -467 94 -666 146 -401 106 -845 279
-1120 439 -157 91 -354 239 -468 352 -63 63 -88 71 -112 34z m567 -486 c122
-69 266 -135 470 -216 27 -10 48 -23 48 -28 0 -13 -39 -75 -79 -126 -61 -76
-56 -74 -109 -61 -148 37 -399 161 -454 224 -41 48 -62 101 -61 157 0 49 23
130 37 130 3 0 69 -36 148 -80z m-367 -436 c61 -20 145 -54 188 -76 148 -77
290 -237 360 -409 39 -93 74 -215 65 -224 -13 -14 -212 75 -318 143 -180 114
-328 310 -406 535 -16 47 -19 67 -10 67 6 0 61 -16 121 -36z m1735 -54 c19 -6
91 -22 160 -36 182 -36 200 -42 200 -63 0 -10 -15 -47 -32 -82 -39 -76 -82
-109 -142 -109 -33 0 -181 37 -308 77 -22 7 -22 24 -2 94 40 135 47 141 124
119z"/>
<path d="M6062 7363 c-77 -38 -132 -166 -132 -309 0 -65 5 -94 22 -130 55
-117 180 -106 250 22 81 151 68 355 -28 415 -38 23 -68 24 -112 2z"/>
<path d="M2934 9211 c-284 -137 -747 -503 -936 -739 -104 -131 -81 -122 139
55 137 111 625 480 829 628 44 32 69 57 69 69 0 31 -16 29 -101 -13z"/>
<path d="M2358 9107 c-236 -121 -490 -316 -739 -567 -299 -302 -562 -670 -693
-969 -38 -86 -57 -171 -39 -171 12 0 60 69 133 195 320 544 721 978 1348 1454
67 51 122 97 122 102 0 18 -32 8 -132 -44z"/>
<path d="M1143 6603 c-70 -102 -183 -618 -223 -1022 -13 -130 -13 -368 0 -376
27 -17 50 75 70 290 28 284 91 664 165 993 19 84 25 126 18 133 -7 7 -17 2
-30 -18z"/>
<path d="M8955 4736 c-9 -14 -43 -130 -76 -258 -33 -128 -92 -339 -131 -468
-77 -257 -95 -327 -83 -338 34 -34 162 289 245 618 42 165 85 470 67 470 -4 0
-14 -11 -22 -24z"/>
<path d="M1676 2991 c-8 -12 40 -33 159 -71 536 -169 985 -404 1377 -722 148
-120 412 -385 515 -518 122 -156 129 -164 136 -154 10 17 -49 141 -109 226
-83 120 -192 244 -355 403 -411 402 -866 646 -1513 810 -138 35 -200 43 -210
26z"/>
<path d="M3125 2640 c3 -5 43 -38 88 -72 276 -208 589 -509 742 -713 150 -199
283 -411 389 -622 42 -85 62 -95 51 -27 -20 135 -176 445 -338 669 -124 173
-304 359 -495 513 -114 91 -265 193 -359 241 -44 22 -89 28 -78 11z"/>
<path d="M6955 2445 c-201 -84 -465 -245 -672 -412 -109 -88 -274 -258 -297
-308 -37 -77 -14 -71 99 29 247 218 539 421 854 596 156 86 174 99 161 116
-19 21 -57 16 -145 -21z"/>
<path d="M4280 2176 c0 -14 44 -112 98 -218 142 -280 229 -514 282 -760 12
-57 27 -111 32 -121 15 -30 28 -9 28 46 0 138 -50 380 -115 554 -58 156 -182
391 -257 486 -35 43 -68 50 -68 13z"/>
<path d="M5984 2115 c-103 -51 -315 -247 -433 -399 -148 -190 -291 -469 -291
-566 0 -55 24 -32 90 86 156 280 343 528 557 740 84 83 153 154 153 157 0 13
-27 7 -76 -18z"/>
<path d="M2534 2003 c-9 -35 13 -52 178 -136 117 -60 194 -103 291 -164 39
-24 57 -23 57 3 0 19 -106 119 -180 170 -73 50 -192 109 -271 134 -35 11 -65
20 -66 20 -2 0 -6 -12 -9 -27z"/>
<path d="M5141 1906 c-63 -67 -174 -370 -211 -579 -25 -138 -37 -321 -22 -331
16 -10 27 17 52 124 70 300 105 420 188 642 29 75 52 144 52 152 0 24 -34 19
-59 -8z"/>
<path d="M6568 1740 c-49 -15 -161 -82 -243 -145 -95 -74 -111 -91 -120 -127
-16 -62 26 -49 250 78 213 121 231 138 185 184 -22 22 -30 23 -72 10z"/>
<path d="M2663 1604 c-21 -9 -15 -52 10 -68 26 -17 204 -72 265 -81 34 -5 42
-4 42 8 0 25 -88 95 -149 118 -56 22 -145 34 -168 23z"/>
<path d="M3362 1368 c-7 -7 -12 -19 -12 -28 0 -28 55 -103 141 -190 117 -120
240 -253 236 -256 -2 -2 -90 10 -197 27 -245 38 -484 67 -620 75 -122 7 -146
-2 -135 -49 6 -22 24 -36 87 -68 44 -22 78 -42 77 -43 -2 -2 -74 -7 -159 -10
-85 -4 -168 -9 -185 -11 -16 -2 -55 -7 -85 -10 -73 -7 -120 -23 -120 -41 0
-19 5 -20 465 -9 188 4 325 12 333 17 27 22 10 40 -73 79 -47 21 -85 41 -85
44 0 3 15 3 33 0 17 -2 102 -13 187 -25 85 -11 237 -32 336 -46 199 -28 251
-28 268 -2 21 34 -57 142 -237 333 -52 55 -94 101 -93 102 5 5 181 -74 292
-131 119 -60 220 -115 359 -193 145 -82 175 -81 83 2 -113 101 -395 271 -600
361 -181 79 -268 100 -296 72z"/>
<path d="M6406 1360 c-78 -31 -107 -70 -72 -99 16 -14 45 -10 133 20 76 25
117 56 108 82 -10 24 -104 22 -169 -3z"/>
<path d="M5845 1220 c-134 -45 -195 -73 -310 -140 -115 -68 -213 -146 -215
-171 0 -4 10 -9 22 -12 16 -4 46 8 103 42 113 68 196 112 300 159 162 74 163
72 32 -77 -65 -73 -117 -139 -117 -146 0 -8 9 -24 21 -36 17 -17 28 -19 77
-14 188 19 297 24 462 20 102 -2 194 -6 205 -9 11 -2 38 -5 60 -6 38 -2 38 -3
-15 -11 -260 -42 -315 -56 -315 -80 0 -16 21 -17 165 -6 178 13 545 37 570 37
14 0 31 4 39 9 12 8 12 13 -1 33 -13 19 -38 31 -115 51 -246 65 -649 91 -957
61 l-59 -6 77 86 c121 136 158 206 124 233 -27 21 -47 19 -153 -17z"/>
<path d="M4987 753 c-4 -3 -7 -16 -7 -28 0 -23 35 -45 73 -45 12 0 46 -11 75
-25 61 -28 97 -32 105 -11 17 43 -101 116 -189 116 -28 0 -54 -3 -57 -7z"/>
<path d="M4500 676 c-44 -10 -55 -16 -55 -32 0 -18 9 -19 190 -20 139 0 212
-5 273 -18 79 -16 102 -15 102 4 0 16 -71 47 -147 64 -84 19 -278 20 -363 2z"/>
</g>
</svg>
