<?xml version="1.0" standalone="no"?>
<!DOCTYPE svg PUBLIC "-//W3C//DTD SVG 20010904//EN"
 "http://www.w3.org/TR/2001/REC-SVG-20010904/DTD/svg10.dtd">
<svg version="1.0" xmlns="http://www.w3.org/2000/svg"
 width="1024.000000pt" height="1024.000000pt" viewBox="0 0 1024.000000 1024.000000"
 preserveAspectRatio="xMidYMid meet">
<metadata>
Created by potrace 1.16, written by Peter Selinger 2001-2019
</metadata>
<g transform="translate(0.000000,1024.000000) scale(0.100000,-0.100000)"
fill="#000000" stroke="none">
<path d="M3030 9883 c-57 -10 -417 -97 -575 -139 -371 -98 -618 -185 -671
-235 -32 -30 -37 -61 -24 -180 8 -86 53 -323 75 -404 4 -11 8 -31 11 -45 2
-14 14 -64 26 -111 l22 -86 -43 -38 c-23 -21 -48 -50 -56 -65 -54 -105 -144
-1543 -145 -2327 0 -94 -4 -174 -9 -177 -4 -3 -30 22 -57 57 -121 156 -392
409 -499 466 -46 25 -97 27 -115 6 -52 -62 114 -462 295 -712 52 -72 95 -136
95 -141 0 -6 -32 1 -71 15 -83 29 -232 58 -339 67 -155 14 -587 -35 -659 -74
-25 -13 -35 -44 -22 -68 35 -65 617 -250 891 -284 20 -2 2 -15 -85 -61 -124
-66 -274 -183 -341 -265 -50 -62 -62 -95 -43 -119 19 -22 164 -13 358 22 306
55 489 118 632 216 39 27 73 48 74 47 1 -2 41 -47 88 -100 47 -54 132 -154
189 -224 57 -69 140 -172 185 -227 45 -56 81 -103 79 -105 -2 -2 -26 11 -53
27 -76 47 -206 105 -330 147 l-112 39 -36 -19 c-84 -45 -439 -442 -645 -721
-115 -155 -123 -170 -116 -209 11 -60 308 -532 465 -741 97 -129 343 -425 362
-435 40 -22 561 -160 602 -160 27 0 158 73 233 130 85 64 86 64 79 -11 -12
-118 -20 -139 -52 -139 -8 0 -61 -13 -118 -30 -93 -27 -105 -29 -131 -15 -16
7 -58 18 -94 24 -131 21 -469 52 -615 58 -166 6 -203 1 -520 -78 -306 -76
-305 -76 -305 -162 0 -134 64 -527 175 -1067 56 -271 79 -351 111 -383 30 -30
110 -53 379 -106 305 -61 592 -106 675 -105 71 0 94 7 400 118 179 65 359 130
400 146 41 15 149 56 240 90 91 34 223 82 293 106 l128 45 167 -20 c243 -28
767 -93 769 -96 2 -1 14 -82 28 -181 48 -339 36 -321 250 -363 107 -21 479
-74 635 -91 52 -6 156 -17 230 -25 74 -8 158 -17 185 -21 45 -6 65 0 190 49
589 231 1474 619 1992 873 208 101 256 129 272 155 32 53 61 394 61 732 0 104
4 186 10 198 9 17 18 18 68 13 31 -4 58 -8 60 -9 2 -2 -10 -38 -26 -81 -17
-44 -32 -90 -36 -104 -10 -48 -35 -376 -47 -618 -11 -229 -10 -244 7 -263 33
-36 56 -21 105 72 59 111 107 177 177 239 59 52 72 59 72 36 0 -18 -41 -140
-85 -255 -57 -147 -36 -165 84 -73 141 109 251 174 251 151 0 -6 -15 -37 -34
-68 -82 -136 -94 -181 -51 -181 34 0 92 60 145 149 60 101 72 139 54 173 -27
52 -106 50 -218 -6 -39 -19 -72 -33 -74 -32 -1 2 2 15 7 29 17 44 43 209 36
234 -17 69 -148 8 -302 -140 l-72 -69 4 68 c9 159 27 396 36 489 8 82 15 109
41 154 47 84 50 156 10 247 l-31 70 14 150 c7 82 21 241 29 354 23 287 31 341
65 408 16 31 34 89 40 129 11 69 10 77 -14 135 -30 74 -30 92 -6 278 11 80 27
204 36 275 8 72 20 140 25 152 5 12 39 57 76 100 37 43 69 79 70 81 1 2 34
-28 72 -67 57 -58 87 -79 165 -117 163 -77 298 -119 329 -103 29 15 22 50 -31
156 -60 118 -127 196 -228 264 l-74 51 113 55 c96 47 125 67 189 132 80 81
148 173 181 247 18 42 18 47 4 70 -20 30 -52 31 -127 5 -60 -20 -162 -70 -222
-108 -21 -13 -40 -23 -42 -21 -2 2 10 55 26 118 39 154 69 321 72 404 2 56 -1
70 -16 80 -37 24 -101 -40 -236 -239 -132 -193 -147 -246 -157 -535 -6 -156
-10 -191 -27 -225 -21 -44 -97 -144 -109 -145 -5 0 -8 26 -8 58 0 47 7 73 40
141 47 98 53 166 20 228 -27 51 -26 121 5 351 14 103 32 248 39 322 13 121 18
143 52 215 49 101 58 186 25 238 -11 19 -21 40 -21 47 0 8 18 42 41 76 38 59
45 64 97 79 250 69 590 194 727 268 52 28 60 36 63 64 2 25 -2 35 -21 48 -48
31 -479 67 -611 51 -82 -11 -108 -40 -212 -234 -47 -89 -89 -160 -92 -158 -9
10 73 605 85 617 4 4 48 30 96 57 130 75 203 130 294 223 253 258 419 529 361
587 -42 42 -258 -41 -447 -171 -97 -67 -162 -126 -217 -199 -26 -33 -48 -57
-50 -55 -3 2 9 35 25 73 123 288 225 749 247 1109 6 93 4 112 -9 123 -13 11
-19 11 -36 0 -61 -38 -299 -467 -366 -661 -21 -59 -40 -106 -42 -104 -2 2 -17
72 -33 155 -69 348 -156 632 -193 632 -22 0 -48 -35 -58 -77 -13 -57 -77 -580
-88 -723 -12 -150 -5 -219 39 -360 34 -110 70 -189 151 -331 l49 -85 -11 -77
c-6 -42 -14 -77 -18 -77 -3 0 -21 28 -40 63 -80 147 -191 262 -426 439 -55 41
-131 100 -169 132 -111 91 -137 73 -91 -63 142 -421 331 -684 590 -822 44 -23
81 -43 82 -43 1 -1 -2 -21 -7 -46 -5 -25 -21 -126 -36 -225 -14 -99 -33 -192
-42 -207 -9 -15 -31 -35 -50 -45 -18 -10 -40 -30 -47 -44 -22 -42 -29 -147
-12 -200 8 -27 13 -74 11 -112 -4 -70 -81 -712 -89 -738 -3 -9 -19 -28 -35
-42 -31 -28 -36 -40 -44 -127 -4 -39 0 -76 14 -126 l20 -70 -30 -280 c-17
-153 -35 -333 -41 -399 -12 -141 -17 -168 -28 -161 -4 3 -11 29 -14 58 -3 29
-9 64 -12 78 -3 14 -21 108 -40 210 -49 258 -99 488 -145 671 -37 146 -150
533 -184 627 -15 42 -15 43 13 75 83 95 81 131 -16 310 -42 78 -138 257 -213
397 -76 140 -158 293 -185 339 -26 47 -51 96 -56 109 -6 17 -1 81 16 205 22
155 49 408 70 647 3 36 11 97 17 136 16 110 1 136 -157 264 l-127 103 74 27
c102 36 149 61 170 90 12 16 30 86 49 185 81 433 139 757 139 785 0 45 -21 88
-71 146 -181 208 -244 275 -323 341 l-90 76 -240 -7 c-133 -4 -254 -9 -271
-11 -75 -9 -275 -25 -430 -36 -307 -20 -462 -48 -504 -93 -34 -36 -99 -377
-136 -718 l-6 -58 -55 0 c-31 0 -187 4 -347 10 -543 17 -786 19 -1140 10 -193
-5 -370 -11 -392 -12 l-39 -3 -27 145 c-37 203 -89 430 -105 462 -26 50 -290
265 -380 308 -39 19 -101 24 -164 13z m103 -136 c39 -17 213 -148 283 -214 43
-41 53 -58 63 -103 31 -138 52 -244 69 -345 11 -60 21 -116 23 -124 3 -11 -16
-18 -81 -27 -47 -7 -107 -14 -135 -15 l-49 -3 -33 134 c-121 500 -144 585
-158 599 -29 30 -33 -2 -14 -114 31 -181 58 -312 96 -469 26 -110 32 -150 24
-156 -17 -10 -283 -22 -293 -12 -4 4 -27 90 -52 190 -44 183 -61 222 -97 222
-11 0 -60 -13 -111 -29 -51 -16 -163 -50 -248 -76 -156 -48 -190 -65 -190 -94
0 -9 16 -80 36 -159 20 -78 34 -149 31 -156 -3 -7 -28 -16 -56 -20 -27 -4 -85
-15 -127 -26 -43 -11 -81 -17 -86 -12 -11 11 -105 381 -123 486 -8 49 -15 113
-15 142 0 48 3 55 28 68 71 37 478 163 712 220 180 45 386 92 430 99 14 2 29
5 33 6 4 0 22 -5 40 -12z m4164 -76 c96 -85 127 -118 237 -250 52 -63 86 -113
86 -126 0 -20 -97 -544 -145 -785 -9 -41 -21 -81 -28 -88 -14 -14 -173 -75
-224 -86 -26 -6 -40 0 -94 41 -59 45 -64 51 -61 83 3 36 42 266 68 400 18 96
60 364 79 504 19 143 20 260 1 275 -8 7 -16 8 -19 4 -3 -4 -15 -73 -27 -153
-11 -80 -41 -258 -65 -396 -25 -139 -56 -321 -69 -406 -14 -85 -30 -167 -36
-182 l-10 -28 -48 36 c-26 20 -80 60 -120 89 l-73 52 6 80 c3 44 15 143 27
220 22 149 30 357 13 374 -6 5 -130 11 -293 13 -279 3 -284 3 -301 -18 -16
-20 -31 -117 -49 -334 l-7 -75 -60 1 c-79 0 -116 4 -198 17 l-68 12 5 50 c3
27 8 84 11 125 7 82 58 397 75 459 18 69 66 81 450 110 401 31 631 46 777 49
l83 2 77 -69z m-1827 -867 c397 -15 598 -31 765 -61 151 -26 369 -147 653
-360 153 -115 554 -435 571 -456 19 -24 -3 -270 -83 -902 -14 -110 -33 -281
-41 -380 -33 -384 -159 -1453 -173 -1466 -10 -9 -541 -113 -892 -175 -106 -19
-235 -20 -475 -4 -88 6 -338 13 -555 17 -217 3 -396 6 -397 7 -1 1 14 41 33
89 38 93 67 227 62 279 -2 27 -8 34 -29 36 -34 4 -51 -22 -74 -118 -27 -110
-96 -240 -163 -308 -162 -164 -420 -262 -686 -262 -176 0 -306 47 -391 142
-41 46 -103 153 -93 163 2 2 23 -3 46 -11 84 -28 240 -47 356 -41 138 6 203
23 336 88 90 45 116 64 196 143 66 66 100 109 123 156 92 190 75 483 -34 597
-23 24 -50 43 -59 43 -10 0 -43 -22 -73 -50 -80 -73 -190 -143 -348 -220 -127
-62 -361 -150 -400 -150 -28 0 -96 175 -119 307 -6 39 3 47 74 63 70 16 233
85 285 120 71 49 78 62 78 143 1 122 -13 225 -33 249 l-18 23 -354 0 c-312 0
-361 -2 -426 -19 -53 -13 -83 -27 -108 -51 -34 -32 -34 -33 -34 -123 0 -108
17 -241 33 -261 32 -38 196 -88 357 -108 l65 -8 8 -40 c5 -22 28 -101 52 -175
28 -88 40 -137 33 -141 -21 -13 -225 -40 -343 -46 -191 -9 -388 36 -414 93
-18 41 -34 285 -27 429 9 176 37 348 62 376 29 32 75 52 224 99 74 23 196 67
270 99 l135 56 292 -2 c246 -3 322 -7 480 -28 103 -14 212 -30 241 -36 87 -17
118 -53 257 -299 57 -100 69 -118 138 -188 97 -101 229 -160 407 -182 172 -22
343 1 498 68 130 56 210 111 302 209 85 90 135 178 161 283 22 88 19 414 -5
515 -82 356 -272 673 -522 874 -143 116 -333 210 -487 242 -113 24 -275 26
-377 5 -217 -45 -380 -199 -439 -416 -52 -192 -76 -602 -46 -805 10 -66 22
-131 27 -144 4 -13 7 -26 4 -28 -2 -2 -55 3 -117 11 -184 25 -431 37 -615 30
l-172 -7 -5 314 c-8 498 -45 659 -183 789 -173 164 -511 185 -801 50 -128 -59
-229 -142 -344 -281 -142 -171 -270 -391 -302 -517 -24 -96 -32 -78 -25 56 3
70 12 228 18 352 6 124 13 241 15 260 2 19 6 95 10 169 5 116 15 210 51 476 4
28 15 60 27 72 26 29 107 59 222 84 50 11 117 26 150 34 55 13 397 69 575 94
41 6 140 15 220 21 80 5 240 16 355 24 182 13 540 31 800 39 171 6 839 -4
1215 -19z m3340 -419 c29 -118 44 -205 95 -525 9 -58 19 -192 22 -297 5 -166
4 -193 -9 -193 -20 0 -151 273 -184 385 -25 86 -26 97 -20 260 3 94 15 242 26
329 11 88 20 167 20 175 0 41 21 -16 50 -134z m493 23 c-37 -271 -108 -536
-198 -741 -20 -45 -44 -99 -53 -119 -32 -72 -41 -37 -30 117 15 197 77 443
157 620 38 84 120 225 130 225 4 0 2 -46 -6 -102z m-4088 -413 c435 -110 787
-533 890 -1070 17 -85 19 -260 4 -339 -46 -249 -311 -469 -622 -516 -144 -21
-335 8 -457 70 -51 26 -156 123 -183 169 -21 37 -18 37 50 11 111 -42 260 -25
378 44 63 38 175 163 212 238 61 125 68 159 68 323 -1 145 -2 153 -34 237 -56
150 -134 254 -249 332 -287 196 -657 75 -789 -259 -13 -33 -15 129 -3 255 28
299 120 444 320 509 107 34 271 33 415 -4z m-2152 -125 c31 -12 79 -39 106
-60 89 -70 147 -228 169 -460 5 -52 7 -97 5 -99 -2 -3 -27 20 -56 51 -167 176
-350 211 -572 108 -203 -93 -330 -292 -342 -535 -6 -127 13 -222 66 -331 50
-101 104 -163 171 -194 l52 -24 -7 -65 c-4 -35 -9 -70 -12 -77 -11 -30 -184
-64 -291 -57 -159 9 -303 81 -376 186 -132 191 -119 587 29 904 82 176 244
393 374 499 101 84 245 152 369 174 83 15 250 5 315 -20z m6671 -72 c-127
-216 -357 -459 -535 -565 -57 -34 -112 -65 -121 -69 -44 -16 -8 56 101 206
146 201 266 305 460 399 90 44 107 48 95 29z m-1375 -315 c47 -37 130 -110
183 -161 77 -75 105 -110 139 -174 51 -99 80 -180 69 -192 -25 -25 -279 199
-356 315 -43 65 -134 247 -134 269 0 17 10 12 99 -57z m-3197 -36 c138 -68
230 -195 278 -381 76 -299 -65 -599 -312 -662 -125 -32 -254 1 -336 87 -47 49
-48 65 -2 25 44 -36 129 -37 181 -2 73 50 128 206 115 328 -15 151 -105 249
-212 233 -167 -25 -256 -264 -166 -447 16 -32 27 -58 26 -58 -1 0 -28 27 -60
60 -33 34 -79 70 -106 83 -44 20 -48 25 -55 67 -14 87 -6 251 16 333 67 252
228 381 467 374 82 -3 99 -7 166 -40z m-2073 -107 c82 -39 168 -128 217 -223
l36 -72 -7 -130 c-4 -71 -8 -140 -9 -153 -2 -21 -52 -62 -76 -62 -4 0 -6 25
-3 55 9 88 -24 157 -102 209 -49 34 -90 33 -147 -3 -87 -55 -131 -155 -126
-285 l3 -78 -50 -20 c-71 -28 -111 -62 -125 -105 -18 -56 -25 -59 -68 -30 -49
32 -104 114 -133 198 -27 78 -37 247 -19 332 16 80 71 183 127 241 103 105
212 155 343 155 63 1 85 -4 139 -29z m5863 -202 c-4 -50 -2 -55 32 -87 27 -26
34 -40 30 -60 -3 -14 -22 -162 -43 -328 -37 -297 -39 -361 -15 -440 5 -20 3
-23 -19 -23 -27 0 -199 29 -204 34 -2 2 10 26 27 52 18 30 34 74 40 109 5 33
21 134 35 225 15 91 31 179 37 195 6 17 16 71 24 120 26 173 45 255 58 255 1
0 1 -24 -2 -52z m746 -404 c23 -4 42 -10 42 -14 0 -10 -240 -104 -355 -138
-158 -48 -175 -52 -175 -40 0 14 87 166 109 192 15 17 27 18 176 12 88 -3 179
-9 203 -12z m-2135 -262 c49 -92 143 -270 209 -395 l121 -228 -19 -24 c-59
-74 -287 -380 -324 -435 -75 -110 -600 -799 -611 -800 -3 0 -13 23 -23 50
l-18 50 56 128 c89 204 82 194 151 208 117 25 149 38 172 73 13 19 23 48 23
65 0 17 16 153 35 301 31 235 125 1109 125 1158 0 9 3 17 8 17 4 -1 47 -76 95
-168z m-6400 -51 c257 -210 461 -506 525 -763 20 -78 26 -118 18 -118 -44 0
-432 482 -506 629 -52 104 -128 311 -115 311 4 0 39 -26 78 -59z m642 -28 c15
-66 70 -157 129 -216 158 -161 419 -215 674 -141 22 6 22 6 22 -112 1 -66 5
-163 9 -216 12 -132 32 -167 128 -220 40 -22 76 -44 79 -49 3 -6 -50 -69 -118
-142 -69 -73 -168 -181 -222 -242 -54 -60 -105 -114 -113 -119 -29 -16 -36 10
-13 55 63 123 55 366 -19 569 -54 146 -138 268 -176 254 -46 -18 -95 -222 -98
-406 -1 -70 -4 -128 -5 -128 -2 0 -44 34 -94 76 -50 41 -105 85 -124 97 -19
12 -36 31 -38 42 -2 11 -16 72 -30 136 -25 111 -26 130 -26 421 0 295 4 368
20 368 4 0 11 -12 15 -27z m1878 -18 c27 -11 20 -25 -20 -43 -51 -22 -410 -25
-460 -3 -49 20 -42 36 21 52 39 9 435 5 459 -6z m5187 -255 c86 -12 115 -20
113 -31 -1 -8 -17 -50 -37 -94 -40 -90 -43 -108 -87 -497 -28 -248 -37 -392
-28 -428 3 -13 -8 -15 -71 -12 -83 3 -221 20 -229 27 -2 3 8 18 23 34 39 41
54 116 101 526 29 243 35 373 21 454 l-9 53 44 -7 c24 -4 96 -15 159 -25z
m-7710 -433 c52 -14 132 -40 177 -57 78 -30 193 -96 207 -119 19 -30 -457 13
-654 60 -110 25 -370 110 -370 120 0 4 26 10 58 14 31 3 66 8 77 10 11 2 108
2 215 0 172 -2 206 -6 290 -28z m1092 -133 c71 -181 94 -402 53 -493 l-21 -44
-41 51 c-40 50 -41 56 -50 150 -15 176 -3 417 20 409 7 -2 24 -35 39 -73z
m7062 -48 c-7 -41 -26 -115 -43 -164 -34 -103 -110 -262 -124 -262 -6 0 -8 38
-4 98 4 73 12 115 30 161 24 59 135 241 148 241 3 0 0 -33 -7 -74z m-1407
-163 c30 -103 81 -291 114 -417 l60 -230 -68 -100 c-38 -56 -118 -173 -178
-261 -304 -448 -457 -645 -664 -858 -83 -85 -257 -239 -356 -315 l-29 -23 -8
21 c-11 30 8 63 192 335 193 285 200 297 200 356 0 44 -86 337 -144 492 -15
37 -26 75 -26 85 0 9 35 62 77 117 137 179 496 656 627 834 90 122 131 170
138 163 6 -6 35 -95 65 -199z m-3436 167 c36 -20 19 -74 -50 -161 -62 -79
-148 -145 -253 -194 -91 -43 -165 -62 -273 -71 -85 -7 -85 -7 -85 17 0 13 13
52 30 87 78 165 219 278 395 317 73 16 209 19 236 5z m-2547 -241 c86 -84 209
-212 272 -285 63 -74 123 -138 132 -143 24 -13 168 -41 208 -41 55 0 39 31
-45 87 -7 5 125 145 149 158 20 10 33 10 71 -1 26 -8 52 -21 59 -29 16 -20 36
-19 44 1 6 16 -48 77 -88 99 -17 10 -8 23 91 137 61 70 115 134 120 142 8 14
27 16 131 14 l122 -3 -98 -121 c-53 -67 -135 -168 -181 -225 -46 -57 -97 -131
-115 -164 -21 -41 -45 -69 -76 -89 -69 -47 -184 -161 -176 -174 12 -20 29 -14
81 30 66 54 135 98 155 98 11 0 35 -35 68 -98 98 -188 224 -342 318 -388 49
-24 63 -44 29 -44 -24 0 -128 -60 -180 -104 -28 -24 -71 -71 -95 -105 l-45
-62 -13 63 c-7 34 -22 81 -33 105 -31 65 -151 217 -291 370 -69 76 -192 217
-274 313 -151 179 -230 269 -411 467 -92 101 -120 143 -94 143 4 0 79 -68 165
-151z m1542 59 c27 -50 70 -118 97 -151 27 -32 47 -60 45 -62 -2 -2 -46 6 -97
17 -84 20 -96 20 -120 7 -34 -19 -39 -60 -12 -105 12 -19 21 -37 21 -39 0 -2
-83 -2 -185 -2 -150 2 -184 5 -180 15 7 19 218 274 289 349 33 35 67 63 77 63
13 0 32 -28 65 -92z m-1805 11 l22 -22 -24 -19 c-75 -58 -340 -151 -559 -196
-190 -39 -230 -44 -230 -32 0 15 127 117 200 160 89 54 236 108 317 119 37 5
110 9 161 10 82 1 94 -1 113 -20z m7919 -137 c0 -32 -108 -140 -195 -194 -58
-36 -195 -98 -195 -88 0 17 137 147 195 185 65 43 175 104 188 105 4 0 7 -4 7
-8z m-930 -222 c46 -5 111 -10 143 -10 40 0 59 -4 63 -14 3 -8 -9 -42 -26 -76
-27 -54 -33 -80 -46 -213 -8 -84 -23 -219 -34 -302 -44 -347 -57 -562 -36
-627 l8 -28 -103 1 c-57 1 -131 4 -164 8 -52 5 -60 9 -63 28 -2 12 8 39 22 60
26 39 35 93 66 393 6 58 22 213 36 345 30 284 31 336 10 394 -18 49 -14 63 17
56 12 -3 60 -9 107 -15z m523 -231 c68 -34 146 -99 209 -173 32 -38 58 -74 58
-79 0 -13 -37 0 -147 54 -76 37 -111 60 -137 92 -38 47 -60 93 -52 114 7 18
20 16 69 -8z m-2413 -35 c0 -37 -286 -507 -437 -718 -123 -173 -450 -585 -512
-647 -9 -9 -54 -60 -101 -115 -117 -137 -174 -190 -211 -198 -17 -3 -157 -6
-311 -6 -244 0 -279 -2 -285 -16 -3 -8 2 -23 11 -32 15 -15 52 -17 333 -17
l316 0 114 120 c380 399 774 915 1078 1409 l48 78 69 -193 c87 -242 168 -493
168 -521 0 -62 -449 -702 -725 -1033 -105 -127 -318 -350 -348 -367 -22 -12
-1076 8 -1226 23 -58 5 -119 16 -137 24 -32 13 -93 89 -81 101 3 3 64 0 135
-7 151 -14 182 -10 182 26 0 47 -73 72 -325 111 -179 27 -213 21 -327 -59 -50
-34 -60 -38 -74 -26 -25 21 -174 251 -174 269 0 14 176 131 242 161 49 21 49
69 1 69 -25 0 -177 -76 -256 -128 -20 -14 -39 -23 -41 -21 -22 24 -177 312
-174 324 1 9 77 63 168 119 138 87 165 108 165 127 0 46 -46 37 -158 -32 -56
-34 -128 -77 -159 -96 -31 -19 -62 -32 -68 -28 -6 4 -40 64 -75 135 l-64 129
37 29 c45 36 211 143 309 200 69 41 74 42 160 42 48 0 147 -7 218 -15 140 -15
589 -61 695 -71 36 -3 151 -17 255 -31 281 -38 325 -39 353 -13 18 17 20 25
11 41 -15 29 -37 35 -299 88 -154 30 -235 51 -235 59 0 7 94 129 208 272 l208
260 42 0 c23 -1 197 -9 387 -19 235 -12 356 -15 380 -8 19 5 80 32 135 60 105
53 341 155 363 156 6 1 12 -6 12 -15z m-4740 -123 c25 -11 49 -23 52 -26 4 -4
-41 -66 -99 -138 -58 -73 -117 -147 -132 -166 l-27 -34 -124 61 c-69 34 -133
64 -143 67 -17 5 -17 7 4 37 13 18 78 88 144 155 l121 124 80 -30 c43 -16 99
-38 124 -50z m195 -125 c44 -36 174 -186 193 -222 10 -18 -2 -37 -104 -160
-63 -76 -118 -140 -124 -142 -5 -2 -51 34 -102 79 -51 45 -114 98 -140 118
-27 19 -48 39 -48 44 0 31 246 317 272 317 6 0 30 -15 53 -34z m5939 -138 c70
-323 137 -786 171 -1178 5 -61 10 -106 19 -190 3 -19 10 -116 17 -215 22 -323
-2 -1148 -36 -1236 -11 -29 -625 -323 -640 -307 -3 2 -9 148 -15 324 -15 469
-26 642 -45 670 -8 13 -29 26 -47 29 -36 7 -220 -34 -588 -130 -118 -31 -231
-61 -250 -66 -47 -12 -226 -11 -270 1 -28 8 -40 19 -55 52 -12 25 -33 50 -52
61 -32 19 -238 48 -679 97 l-192 21 -103 -20 c-57 -11 -193 -40 -303 -66 -109
-25 -209 -45 -222 -45 -33 0 -43 25 -50 135 l-7 98 39 -6 c21 -3 143 -9 269
-12 127 -3 356 -8 510 -12 154 -3 298 -7 320 -8 85 -5 128 29 325 257 66 76
171 203 235 283 109 136 119 145 151 145 l34 0 0 -112 c0 -97 -5 -231 -24
-613 -4 -93 3 -145 20 -145 36 0 43 73 70 686 4 84 9 156 13 161 3 6 43 34 88
64 180 119 438 367 666 641 94 113 268 354 471 651 59 86 111 157 115 157 4 0
24 -78 45 -172z m-6590 -77 c41 -16 99 -42 130 -58 l57 -29 -117 -154 c-64
-85 -127 -167 -141 -181 l-24 -26 -67 32 c-37 18 -98 43 -136 56 -37 13 -71
30 -73 37 -10 25 249 350 280 351 10 1 51 -12 91 -28z m1110 -86 c72 -107 81
-132 79 -228 -2 -88 -20 -194 -34 -203 -11 -6 -29 29 -50 96 l-17 55 30 59
c36 72 33 113 -13 148 -94 72 -100 79 -94 112 15 71 15 71 41 40 13 -16 39
-51 58 -79z m1206 51 c14 -2 88 -7 165 -10 77 -4 181 -9 230 -12 50 -3 221
-11 382 -18 161 -6 295 -15 299 -18 8 -8 -81 -125 -104 -137 -10 -5 -85 -3
-182 5 -226 17 -426 34 -481 39 -83 7 -264 7 -284 -1 -30 -12 -128 -69 -233
-137 -51 -33 -95 -58 -97 -55 -3 2 -30 46 -61 98 -47 78 -103 216 -104 254 0
9 412 2 470 -8z m-561 -120 c12 -30 56 -107 97 -171 l75 -116 -51 -57 c-28
-32 -74 -103 -103 -159 -29 -57 -57 -103 -62 -103 -6 0 -19 14 -29 31 -29 49
-159 201 -207 243 -24 21 -57 45 -74 53 -16 9 -31 17 -33 18 -7 6 43 93 84
146 51 66 134 125 213 150 31 10 59 18 62 18 3 1 15 -23 28 -53z m-1369 -80
c63 -52 127 -107 142 -123 l28 -29 -113 -156 c-61 -86 -124 -170 -138 -189
l-25 -32 -95 89 c-52 49 -119 110 -149 135 l-54 47 109 143 c106 141 163 209
175 209 3 0 57 -42 120 -94z m571 32 c27 -22 49 -49 49 -58 0 -34 -134 -221
-302 -423 l-24 -29 -62 53 c-34 28 -62 60 -62 69 0 9 15 37 33 62 30 44 308
367 315 368 2 0 26 -19 53 -42z m-1191 -295 c47 -19 117 -54 155 -78 72 -45
274 -239 262 -251 -3 -4 -52 -2 -107 3 -142 14 -173 6 -132 -35 13 -13 47 -23
108 -31 49 -6 114 -18 144 -25 52 -12 58 -16 99 -77 168 -245 272 -389 309
-430 48 -53 82 -64 82 -26 0 21 -129 219 -287 441 -35 49 -63 95 -63 103 0 14
60 109 112 175 l29 38 92 -75 c88 -73 107 -82 141 -69 20 8 172 182 240 277
28 37 52 67 55 67 3 0 19 -25 35 -55 34 -66 106 -135 140 -135 19 0 32 14 65
70 23 39 46 70 50 70 5 0 11 -24 15 -52 8 -62 58 -347 87 -501 l21 -108 -42
-36 c-50 -43 -349 -260 -434 -315 -33 -21 -71 -38 -86 -38 -15 0 -96 17 -181
39 -85 21 -192 47 -239 56 -78 17 -89 22 -131 65 -86 87 -317 388 -446 580
-56 84 -205 326 -229 372 l-16 30 34 -7 c18 -4 71 -23 118 -42z m1730 -160
c35 -37 90 -108 122 -157 56 -85 59 -93 52 -131 -15 -79 -9 -102 69 -258 181
-362 336 -603 498 -772 72 -75 79 -79 105 -70 15 6 55 42 89 80 33 39 65 72
70 75 13 7 105 -244 114 -313 4 -33 14 -63 22 -68 181 -108 163 -90 292 -278
l120 -174 8 -76 c4 -42 8 -120 8 -175 l1 -99 -52 8 c-29 4 -60 8 -68 10 -8 1
-46 7 -85 13 -108 19 -580 80 -673 88 -45 3 -84 9 -86 13 -6 9 -44 223 -62
340 -7 53 -18 116 -24 141 -5 25 -31 155 -56 290 -61 325 -59 315 -92 329 -35
14 -262 63 -422 91 -169 30 -168 28 -152 167 l12 108 53 50 c29 28 76 72 105
98 47 44 52 53 52 90 0 34 -43 303 -65 407 -9 45 -35 209 -35 225 0 27 17 16
80 -52z m5669 21 c2 -2 -12 -39 -32 -81 -27 -59 -39 -100 -47 -168 -23 -205
-50 -520 -56 -660 -6 -140 -5 -154 15 -199 11 -27 21 -50 21 -52 0 -2 -31 -4
-70 -4 l-70 0 0 113 c0 219 -56 883 -86 1041 l-6 28 163 -7 c90 -4 166 -9 168
-11z m-5199 -144 c29 -52 59 -108 68 -123 16 -27 16 -30 -27 -110 -67 -123
-115 -200 -128 -204 -14 -5 -98 157 -108 208 -4 23 2 59 19 114 30 92 104 231
116 219 5 -5 32 -52 60 -104z m208 -379 c39 -70 72 -138 72 -151 0 -12 -20
-54 -44 -94 -24 -39 -57 -97 -72 -128 -16 -32 -33 -58 -39 -58 -9 0 -112 164
-149 238 l-17 32 62 113 c79 144 99 177 107 177 4 0 40 -58 80 -129z m230
-375 c51 -74 92 -140 92 -147 0 -22 -154 -219 -171 -219 -14 0 -50 39 -177
192 -13 15 -8 29 43 125 64 119 104 183 115 183 4 0 48 -60 98 -134z m446
-163 c38 -63 74 -104 121 -142 28 -22 29 -24 11 -35 -90 -53 -171 -114 -220
-166 -32 -33 -59 -60 -60 -58 -1 2 -12 35 -25 73 -13 39 -43 110 -67 159 -35
73 -41 93 -31 105 43 55 153 120 204 121 28 0 36 -7 67 -57z m-2494 -138 c102
-8 205 -17 228 -20 45 -7 49 -16 9 -22 -31 -5 -83 -19 -226 -60 l-123 -35
-182 21 c-302 36 -356 44 -356 51 0 9 77 29 215 59 111 24 198 25 435 6z
m1065 -30 c116 -19 211 -35 213 -35 11 0 -1 -20 -13 -20 -19 0 -244 -61 -411
-111 -71 -21 -137 -39 -145 -39 -11 0 -19 21 -28 78 -21 123 -25 113 54 138
39 13 81 23 95 23 14 1 120 -15 235 -34z m-498 -47 c6 -7 18 -58 27 -113 10
-55 22 -115 28 -133 13 -42 14 -41 191 22 109 39 321 104 574 177 35 10 65 14
68 10 7 -12 175 -1023 175 -1054 0 -15 -1 -27 -3 -27 -3 0 -50 -17 -507 -185
-146 -53 -357 -131 -470 -171 -113 -41 -223 -81 -245 -89 -21 -8 -42 -12 -47
-7 -10 10 -32 115 -78 382 -21 124 -48 275 -59 335 -10 61 -22 130 -25 155
-11 82 -46 293 -72 429 -14 73 -23 135 -21 138 7 7 420 141 438 142 9 1 21 -5
26 -11z m2205 -32 c5 -10 14 -50 20 -89 5 -39 17 -85 25 -102 49 -94 437 -630
519 -717 57 -59 65 -87 44 -142 -26 -70 -182 -191 -237 -184 -21 2 -35 16 -63
63 -54 93 -409 619 -494 733 -59 80 -86 107 -124 126 -65 33 -77 48 -61 78 18
34 127 145 182 185 52 39 127 70 159 68 11 -1 25 -9 30 -19z m-3501 -42 l67
-6 12 -62 c7 -33 14 -70 16 -81 6 -27 13 -65 19 -95 7 -37 12 -60 24 -110 19
-81 18 -83 -41 -76 -29 3 -83 8 -120 12 l-67 6 -16 92 c-29 163 -51 326 -46
332 3 3 24 3 46 0 22 -3 70 -8 106 -12z m304 -34 c60 -6 112 -16 116 -22 4 -6
10 -32 14 -57 4 -25 20 -115 36 -200 16 -85 27 -156 25 -158 -5 -5 -257 24
-263 30 -5 5 -73 376 -73 398 0 22 0 22 145 9z m320 -45 c114 -9 123 -12 134
-48 13 -40 61 -325 61 -361 0 -31 -1 -31 -130 -11 -52 8 -98 15 -102 15 -4 0
-10 17 -14 38 -3 20 -19 106 -35 190 -34 183 -35 195 -11 188 9 -2 53 -7 97
-11z m4010 -84 c94 -12 194 -23 224 -27 29 -3 49 -9 45 -13 -22 -20 -361 -111
-412 -111 -20 0 -125 11 -232 24 -107 14 -244 30 -303 37 -155 17 -154 22 18
59 55 11 141 30 190 40 108 23 218 21 470 -9z m1710 -1 c12 -20 30 -426 30
-695 l0 -269 -160 -69 c-88 -37 -250 -108 -360 -157 -478 -211 -996 -421
-1009 -409 -5 5 -25 138 -43 296 -18 159 -44 383 -59 498 -31 253 -64 552 -64
574 0 12 32 25 123 50 67 19 164 47 215 64 51 16 95 28 97 26 1 -2 11 -58 20
-124 20 -145 28 -156 87 -133 24 9 264 89 533 178 270 89 501 165 515 170 35
12 68 12 75 0z m-2490 -194 c25 -60 28 -79 14 -74 -15 5 -67 85 -68 105 -2 24
42 -1 54 -31z m303 -8 c39 -6 72 -14 73 -17 0 -3 10 -91 23 -195 l22 -188 -85
6 c-47 4 -89 10 -93 12 -24 15 -128 169 -137 201 -6 21 -13 76 -17 122 l-7 84
74 -7 c41 -4 107 -12 147 -18z m308 -33 c60 -8 114 -17 120 -19 6 -3 15 -40
19 -83 3 -43 10 -96 15 -118 5 -22 12 -76 16 -119 l7 -79 -69 7 c-38 3 -101
12 -141 18 l-72 12 -6 65 c-4 36 -11 84 -15 106 -5 22 -12 82 -16 133 -8 108
-23 100 142 77z m-4436 -105 c45 -7 432 -52 744 -87 l70 -8 37 -230 c44 -271
85 -506 103 -590 11 -50 11 -61 -1 -63 -26 -6 -498 69 -510 81 -1 2 -19 80
-38 173 -61 289 -57 274 -79 274 -7 0 -20 -6 -30 -13 -17 -12 -16 -20 8 -152
15 -77 31 -151 35 -165 5 -14 12 -40 15 -58 l6 -34 -53 6 c-28 4 -93 16 -144
27 -81 19 -93 24 -102 47 -18 47 -49 181 -105 462 -50 251 -60 311 -57 333 1
9 30 8 101 -3z m4418 -374 c112 -13 205 -26 207 -28 12 -11 99 -857 90 -866
-7 -7 -379 31 -553 55 -99 14 -115 19 -122 38 -4 11 -17 92 -28 179 -10 86
-24 162 -29 167 -7 7 -19 6 -36 -2 -32 -14 -34 -35 -13 -154 8 -44 18 -106 21
-139 l8 -59 -29 6 c-48 8 -206 35 -245 41 -39 6 -89 23 -89 30 0 2 -11 80 -24
173 -21 146 -33 254 -51 446 -2 26 0 47 5 47 5 0 57 -73 115 -162 59 -90 119
-173 134 -185 36 -32 70 -29 156 14 144 71 229 159 261 270 14 49 14 55 -5 99
-12 26 -21 48 -21 50 0 7 44 4 248 -20z"/>
<path d="M4967 8616 c-96 -26 -183 -114 -194 -196 -8 -54 5 -61 69 -42 79 23
252 12 348 -22 149 -52 315 -146 477 -267 35 -27 45 -30 58 -19 79 65 -143
379 -342 483 -133 69 -298 94 -416 63z"/>
<path d="M6376 8578 c-7 -29 -33 -389 -40 -568 -18 -450 -19 -504 -3 -525 l16
-20 15 20 c24 33 30 126 47 686 7 218 9 404 6 413 -9 23 -34 20 -41 -6z"/>
<path d="M2686 8504 c-120 -29 -284 -120 -393 -218 -90 -81 -184 -248 -177
-316 3 -36 5 -40 17 -40 6 0 57 37 112 81 148 119 267 185 445 245 80 27 95
29 238 28 l153 0 6 24 c7 30 -4 54 -55 118 -57 72 -107 94 -208 93 -43 0 -105
-7 -138 -15z"/>
<path d="M4324 6465 c-118 -58 -145 -78 -126 -97 20 -20 214 64 257 111 17 20
13 41 -8 40 -7 0 -62 -24 -123 -54z"/>
<path d="M6276 6301 c-7 -11 -28 -187 -62 -536 -53 -541 -24 -859 36 -391 45
358 72 923 43 933 -6 2 -14 0 -17 -6z"/>
<path d="M3170 4029 c-97 -60 -186 -169 -137 -169 18 0 207 160 207 176 0 20
-30 17 -70 -7z"/>
<path d="M4545 2199 c-79 -50 -135 -100 -135 -120 0 -11 6 -19 14 -19 31 0
216 139 216 162 0 18 -49 6 -95 -23z"/>
<path d="M5175 1286 c-66 -43 -117 -102 -113 -129 2 -12 8 -22 15 -22 16 0
203 162 203 175 0 21 -57 8 -105 -24z"/>
<path d="M781 1187 c-18 -18 -12 -57 12 -77 71 -60 206 -154 230 -161 32 -9
43 6 33 45 -7 27 -131 148 -178 172 -50 26 -85 33 -97 21z"/>
<path d="M624 946 c-11 -29 5 -46 70 -77 81 -38 156 -48 176 -24 20 24 4 45
-62 78 -70 36 -174 49 -184 23z"/>
<path d="M7939 871 c-72 -74 -109 -139 -109 -188 0 -35 30 -53 55 -33 12 10
156 210 179 248 4 7 2 19 -4 27 -24 29 -54 16 -121 -54z"/>
<path d="M8214 820 c-32 -16 -81 -49 -108 -73 -43 -37 -48 -46 -42 -70 5 -20
13 -27 30 -27 21 0 179 92 219 127 25 23 21 52 -9 63 -32 12 -21 15 -90 -20z"/>
</g>
</svg>
