<?xml version="1.0" encoding="UTF-8" standalone="yes"?>
<svg version="1.0" xmlns="http://www.w3.org/2000/svg" width="1024.000000pt" height="1024.000000pt" viewBox="0 0 1024.000000 1024.000000" preserveAspectRatio="xMidYMid meet">
  <metadata>
Created by potrace 1.16, written by Peter Selinger 2001-2019
</metadata>
  <g transform="translate(0.000000,1024.000000) scale(0.100000,-0.100000)" fill="#000000" stroke="none">
    <path d="M3235 9703 c-11 -2 -94 -20 -184 -39 -205 -44 -595 -150 -766 -209&#xA;-274 -93 -290 -106 -279 -245 7 -102 42 -287 94 -505 l38 -160 -39 -33 c-66&#xA;-56 -67 -62 -109 -412 -27 -233 -75 -1199 -86 -1727 -3 -189 -10 -343 -14&#xA;-343 -4 0 -29 28 -56 63 -26 34 -98 113 -159 175 -220 227 -380 331 -425 277&#xA;-26 -32 11 -187 84 -350 54 -121 104 -206 201 -344 52 -74 93 -136 91 -138 -2&#xA;-2 -30 5 -62 16 -251 84 -587 90 -905 17 -60 -14 -99 -41 -99 -68 0 -59 465&#xA;-222 785 -276 l110 -19 -95 -48 c-154 -80 -369 -266 -387 -334 -15 -58 26 -70&#xA;177 -51 344 42 624 127 790 240 34 23 65 38 70 34 62 -68 210 -241 273 -319&#xA;45 -55 119 -147 166 -204 47 -57 81 -102 75 -100 -5 3 -67 34 -139 69 -71 36&#xA;-176 80 -232 99 -91 30 -105 33 -132 21 -48 -19 -302 -287 -463 -488 -149&#xA;-186 -267 -347 -280 -381 -9 -26 31 -108 142 -287 149 -240 289 -441 409 -589&#xA;198 -244 233 -284 263 -298 41 -19 536 -147 569 -147 28 0 147 68 234 133 33&#xA;25 61 44 64 42 5 -6 -10 -161 -18 -173 -4 -7 -61 -28 -126 -46 -107 -31 -121&#xA;-33 -146 -21 -33 18 -111 30 -314 50 -88 9 -176 17 -195 20 -19 2 -98 7 -175&#xA;11 -160 7 -172 5 -520 -82 -121 -30 -231 -63 -245 -73 -34 -25 -38 -51 -24&#xA;-171 40 -334 188 -1120 235 -1246 24 -65 45 -80 139 -105 234 -61 788 -159&#xA;915 -161 71 -1 165 32 1190 414 218 82 213 81 465 48 85 -11 268 -34 406 -52&#xA;l251 -32 12 -80 c6 -45 20 -143 30 -219 26 -186 26 -186 221 -226 194 -39 920&#xA;-131 1039 -131 36 0 107 25 317 109 583 235 1339 570 1803 798 243 120 233&#xA;110 250 254 17 138 31 403 31 586 0 94 3 178 6 187 5 12 21 16 65 16 70 0 73&#xA;-8 35 -94 -13 -29 -27 -67 -30 -82 -11 -54 -35 -358 -47 -602 -11 -228 -10&#xA;-244 6 -262 35 -38 51 -26 107 82 42 81 70 120 134 186 44 45 86 82 93 82 19&#xA;0 7 -45 -56 -208 -30 -79 -52 -150 -49 -158 11 -30 36 -26 83 13 104 86 236&#xA;173 262 173 7 0 -13 -47 -44 -105 -58 -107 -64 -137 -31 -143 27 -6 113 90&#xA;157 174 50 94 54 115 27 149 -20 25 -25 27 -80 23 -41 -3 -78 -15 -129 -41&#xA;-53 -27 -69 -32 -64 -19 11 28 45 195 45 223 0 90 -128 44 -284 -102 l-76 -71&#xA;0 44 c0 58 28 483 35 532 3 22 21 71 40 110 44 89 47 148 9 231 -27 58 -31&#xA;104 -19 204 5 43 32 358 45 525 11 135 16 159 54 231 38 73 46 183 17 248 -23&#xA;53 -26 108 -11 201 5 34 21 153 36 266 14 112 32 213 39 223 7 9 40 50 74 91&#xA;l63 73 55 -58 c72 -75 127 -111 260 -165 180 -73 243 -79 243 -22 0 35 -98&#xA;212 -149 269 -27 30 -82 77 -122 104 -69 46 -71 49 -48 58 129 52 195 93 269&#xA;165 76 76 175 212 186 259 10 39 -11 73 -44 73 -54 0 -201 -61 -306 -127 l-39&#xA;-25 7 23 c27 92 76 324 91 423 17 117 16 119 -3 138 -18 18 -23 19 -48 7 -15&#xA;-8 -50 -41 -76 -74 -65 -80 -195 -275 -213 -320 -30 -70 -46 -183 -52 -355 -5&#xA;-147 -9 -181 -26 -215 -20 -42 -97 -144 -109 -145 -3 0 -4 28 -1 63 3 41 16&#xA;86 39 136 41 88 45 159 14 221 -26 51 -25 99 4 317 14 98 32 241 40 318 13&#xA;125 18 148 52 219 48 101 57 178 25 229 -11 19 -21 40 -21 47 0 8 17 40 38 72&#xA;30 48 44 60 77 69 216 59 489 158 668 242 86 40 109 55 114 75 15 60 -24 75&#xA;-259 96 -290 26 -396 20 -444 -25 -14 -13 -64 -97 -111 -188 -48 -91 -88 -160&#xA;-91 -153 -2 7 3 66 12 130 9 64 25 187 36 272 12 85 25 164 29 175 5 11 60 50&#xA;122 88 183 109 295 215 470 447 133 177 178 292 127 324 -28 17 -123 -9 -243&#xA;-68 -179 -88 -290 -174 -412 -322 l-33 -39 17 40 c112 280 185 547 222 810 41&#xA;297 49 406 28 423 -8 7 -22 9 -31 6 -57 -22 -292 -443 -370 -662 l-33 -94 -22&#xA;114 c-78 403 -154 658 -195 658 -26 0 -48 -40 -61 -109 -14 -72 -58 -437 -74&#xA;-616 -24 -267 18 -439 170 -700 l58 -100 -11 -72 c-6 -40 -14 -73 -17 -73 -3&#xA;1 -31 42 -61 93 -62 104 -176 224 -309 327 -47 36 -131 102 -188 147 -129 103&#xA;-137 108 -157 87 -9 -8 -16 -19 -16 -24 0 -17 103 -280 144 -365 111 -234 270&#xA;-412 453 -507 49 -25 81 -48 78 -55 -2 -7 -18 -106 -35 -220 -18 -118 -38&#xA;-218 -46 -231 -9 -13 -30 -32 -48 -43 -18 -10 -38 -31 -45 -46 -19 -42 -25&#xA;-145 -11 -188 19 -57 15 -118 -29 -476 -23 -179 -41 -329 -41 -332 0 -4 -16&#xA;-25 -36 -47 -32 -35 -37 -49 -44 -110 -7 -68 -5 -94 19 -169 8 -27 5 -89 -14&#xA;-270 -14 -130 -32 -310 -42 -401 -9 -91 -19 -169 -23 -173 -4 -5 -10 11 -14&#xA;35 -26 172 -132 690 -182 889 -39 158 -118 437 -167 591 l-34 107 38 51 c60&#xA;80 61 109 7 210 -139 264 -375 703 -414 770 -63 107 -73 140 -63 203 27 166&#xA;51 370 69 563 11 120 25 253 31 295 17 115 3 140 -150 264 l-122 98 73 27&#xA;c101 37 155 66 168 91 23 43 183 913 176 957 -6 41 -29 72 -162 223 -125 141&#xA;-247 257 -294 278 -31 14 -64 15 -240 9 -113 -4 -308 -14 -435 -23 -567 -38&#xA;-708 -62 -739 -124 -26 -50 -83 -357 -111 -596 -10 -77 -18 -141 -19 -143 -2&#xA;-1 -167 4 -367 12 -370 14 -1159 14 -1404 0 l-131 -7 -23 134 c-24 142 -83&#xA;407 -99 450 -17 44 -234 224 -353 292 -45 26 -112 34 -174 20z m221 -212 c66&#xA;-49 138 -109 160 -132 38 -40 44 -53 67 -159 51 -229 78 -393 65 -401 -6 -4&#xA;-55 -10 -107 -14 -53 -3 -106 -8 -117 -10 -21 -5 -26 13 -107 341 -50 205 -91&#xA;353 -101 362 -29 29 -35 2 -19 -83 40 -218 77 -391 104 -499 17 -65 27 -122&#xA;22 -126 -4 -5 -72 -11 -149 -15 l-141 -7 -47 187 c-25 103 -51 194 -57 201 -6&#xA;8 -21 14 -33 14 -40 0 -501 -143 -521 -161 -19 -19 -19 -20 19 -173 21 -85 35&#xA;-159 32 -164 -3 -5 -27 -12 -53 -16 -27 -3 -82 -15 -123 -25 -55 -14 -77 -16&#xA;-82 -8 -19 30 -103 359 -123 482 -20 119 -19 158 3 178 35 32 529 184 826 254&#xA;83 19 174 41 201 48 28 7 75 13 106 14 56 1 58 0 175 -88z m3850 51 c95 -69&#xA;354 -366 354 -406 0 -12 -24 -150 -54 -307 -30 -156 -64 -337 -76 -402 -12&#xA;-65 -29 -124 -36 -132 -17 -16 -106 -51 -190 -73 l-61 -16 -60 46 -60 47 9 63&#xA;c4 35 15 97 23 138 98 502 151 938 118 971 -7 7 -15 10 -19 7 -3 -4 -16 -77&#xA;-29 -165 -12 -87 -44 -277 -70 -423 -25 -146 -57 -325 -70 -398 -13 -74 -26&#xA;-136 -28 -139 -3 -2 -49 29 -102 71 -53 41 -106 81 -117 88 -21 14 -21 17 -10&#xA;119 6 57 21 169 32 249 21 145 23 271 5 289 -6 6 -127 11 -282 13 -244 3 -274&#xA;1 -289 -14 -18 -17 -36 -129 -49 -307 l-8 -94 -91 6 c-206 14 -226 18 -221 41&#xA;2 12 7 62 10 111 13 194 69 499 96 526 37 37 190 55 819 98 394 27 409 27 456&#xA;-7z m-1716 -878 c377 -15 598 -33 744 -60 93 -18 245 -91 400 -191 176 -114&#xA;756 -565 776 -604 7 -13 8 -50 1 -117 -6 -53 -13 -126 -16 -162 -8 -87 -39&#xA;-341 -69 -576 -14 -105 -30 -249 -36 -320 -21 -246 -33 -353 -114 -1044 -8&#xA;-69 -17 -152 -21 -185 -3 -33 -10 -84 -16 -114 -5 -30 -9 -69 -9 -87 0 -18 -4&#xA;-35 -8 -38 -5 -3 -145 -32 -313 -65 -630 -125 -565 -115 -774 -115 -104 0&#xA;-293 5 -418 12 -126 7 -343 12 -484 12 -239 0 -255 1 -248 18 63 145 105 314&#xA;90 362 -9 28 -51 26 -67 -2 -7 -13 -23 -59 -35 -103 -51 -176 -132 -293 -267&#xA;-383 -148 -99 -358 -162 -541 -162 -229 0 -372 77 -457 244 -30 59 -30 59 -6&#xA;52 180 -55 357 -70 489 -42 157 34 291 106 405 220 118 118 173 248 174 409 0&#xA;73 -25 197 -52 254 -20 42 -78 103 -99 103 -6 0 -34 -21 -63 -47 -104 -95&#xA;-299 -207 -498 -287 -118 -47 -238 -80 -249 -69 -14 14 -75 191 -89 257 -8 41&#xA;-9 61 -1 69 6 6 48 21 93 34 104 30 255 104 293 143 26 27 29 36 29 107 0 119&#xA;-13 210 -34 235 l-18 23 -339 0 c-378 0 -447 -9 -514 -65 -33 -27 -34 -29 -33&#xA;-103 2 -104 13 -223 24 -253 18 -45 175 -100 345 -121 l70 -8 8 -40 c14 -64&#xA;68 -237 84 -268 8 -16 12 -31 9 -34 -2 -3 -55 -14 -118 -25 -156 -28 -377 -30&#xA;-473 -4 -93 25 -144 51 -155 82 -43 112 -23 674 27 752 23 37 69 60 228 111&#xA;83 27 202 70 265 97 l115 48 160 4 c293 6 735 -29 862 -69 46 -15 99 -80 167&#xA;-205 82 -151 124 -211 195 -276 70 -66 154 -109 266 -139 113 -31 345 -31 458&#xA;-1 157 43 324 138 417 238 136 146 180 271 180 512 0 323 -109 627 -325 907&#xA;-116 149 -250 259 -429 350 -332 168 -720 138 -904 -70 -127 -144 -175 -355&#xA;-176 -770 0 -193 3 -254 17 -313 24 -103 24 -106 -15 -98 -126 26 -324 39&#xA;-570 39 l-268 0 0 237 c0 659 -88 856 -419 941 -237 61 -545 -29 -753 -220&#xA;-159 -146 -335 -413 -402 -611 -21 -64 -47 -115 -33 -65 3 11 11 144 17 295&#xA;17 462 42 786 75 995 16 105 31 122 130 155 99 32 477 104 773 145 186 26 906&#xA;73 1367 88 169 6 817 -4 1175 -19z m3230 -452 c60 -262 97 -548 99 -780 1&#xA;-117 -1 -153 -10 -150 -18 6 -123 219 -161 328 -32 94 -33 98 -32 260 1 100&#xA;10 235 23 341 11 97 21 180 22 185 2 25 33 -72 59 -184z m455 17 c-28 -183&#xA;-62 -327 -114 -483 -36 -107 -125 -310 -144 -331 -17 -18 0 244 23 353 28 138&#xA;88 320 144 434 46 94 105 193 111 187 1 -2 -8 -74 -20 -160z m-3991 -330 c200&#xA;-36 444 -182 584 -349 219 -261 342 -575 342 -871 0 -139 -14 -209 -58 -294&#xA;-121 -230 -416 -381 -708 -362 -157 11 -248 41 -350 117 -43 33 -124 126 -124&#xA;143 0 3 24 -3 53 -13 173 -60 325 -22 468 120 125 124 183 269 182 455 -1 372&#xA;-270 665 -588 642 -193 -14 -346 -117 -429 -290 l-35 -72 0 75 c-1 109 17 294&#xA;35 363 45 173 139 276 299 327 82 27 213 30 329 9z m-2084 -119 c152 -29 253&#xA;-133 293 -300 25 -105 52 -320 40 -320 -4 0 -19 16 -33 36 -50 74 -182 153&#xA;-289 175 -189 37 -437 -101 -540 -300 -141 -273 -59 -665 162 -778 l49 -24 -6&#xA;-47 c-15 -105 -10 -98 -95 -121 -218 -59 -448 4 -557 152 -61 82 -85 164 -91&#xA;312 -13 299 75 567 273 831 197 263 412 390 665 393 42 1 100 -4 129 -9z&#xA;m6474 -127 c-63 -100 -190 -256 -276 -340 -103 -99 -327 -248 -346 -228 -11&#xA;11 41 100 125 214 135 182 239 271 421 362 53 26 101 49 105 49 4 0 -9 -26&#xA;-29 -57z m-1289 -274 c121 -96 230 -203 272 -268 59 -90 111 -231 85 -231 -16&#xA;0 -98 58 -164 116 -133 118 -199 210 -282 398 -16 37 -21 56 -13 56 7 0 53&#xA;-32 102 -71z m-3152 1 c288 -89 439 -521 284 -814 -86 -165 -256 -259 -411&#xA;-227 -33 7 -73 19 -89 27 -36 19 -105 81 -119 108 -8 15 -1 12 26 -11 33 -30&#xA;43 -33 98 -33 60 0 63 1 104 44 116 121 123 367 14 476 -45 45 -88 57 -149 40&#xA;-54 -14 -106 -60 -139 -124 -24 -46 -27 -61 -27 -151 1 -85 4 -107 25 -150 13&#xA;-27 26 -54 28 -59 3 -6 -23 20 -57 56 -38 41 -78 73 -106 85 -52 21 -55 29&#xA;-56 188 -1 127 17 217 61 311 95 199 310 297 513 234z m-1943 -127 c74 -37&#xA;171 -137 211 -218 l32 -66 -7 -127 c-9 -176 -8 -170 -41 -192 -16 -11 -33 -20&#xA;-38 -20 -4 0 -4 25 -1 55 6 47 3 62 -20 110 -38 76 -84 110 -151 110 -67 0&#xA;-122 -42 -162 -123 -25 -50 -28 -68 -28 -153 l0 -97 -49 -17 c-64 -24 -113&#xA;-68 -127 -116 -7 -21 -15 -39 -19 -39 -3 0 -22 11 -41 25 -163 120 -211 455&#xA;-93 652 93 154 238 241 405 242 62 1 84 -4 129 -26z m5653 -194 c-6 -48 -4&#xA;-52 31 -88 20 -21 34 -44 32 -52 -11 -30 -76 -579 -76 -636 0 -33 7 -77 16&#xA;-98 l15 -37 -68 7 c-63 6 -153 24 -162 31 -2 2 7 18 21 36 31 41 44 81 58 183&#xA;22 154 51 320 65 365 8 25 21 97 30 162 14 104 31 178 41 178 1 0 0 -23 -3&#xA;-51z m732 -397 c23 -4 35 -11 28 -15 -49 -31 -500 -184 -510 -173 -6 6 62 130&#xA;95 175 l25 34 161 -7 c89 -3 179 -10 201 -14z m-1930 -511 c160 -301 176 -336&#xA;165 -355 -7 -11 -52 -70 -100 -131 -47 -60 -131 -173 -185 -250 -86 -122 -380&#xA;-513 -552 -735 -33 -41 -63 -75 -68 -75 -5 0 -15 21 -23 46 l-15 47 62 143&#xA;c35 79 67 148 71 153 5 5 51 20 102 32 118 30 136 47 148 140 42 304 93 725&#xA;105 859 3 39 17 176 31 305 13 129 24 239 24 245 0 14 32 -44 235 -424z&#xA;m-6153 67 c158 -160 297 -396 346 -591 16 -64 27 -117 23 -117 -13 0 -154 152&#xA;-242 260 -188 231 -256 341 -322 520 -57 156 -59 151 29 79 44 -35 118 -103&#xA;166 -151z m468 100 c20 -71 47 -114 110 -181 98 -105 238 -164 410 -174 88 -4&#xA;186 8 243 32 15 6 17 1 18 -41 0 -27 2 -65 4 -84 1 -19 6 -82 10 -140 7 -113&#xA;18 -170 41 -205 8 -12 48 -41 89 -65 42 -23 74 -46 73 -50 -2 -5 -55 -64 -118&#xA;-132 -63 -68 -160 -174 -214 -236 -120 -134 -166 -152 -111 -42 73 145 26 480&#xA;-95 679 -50 83 -72 105 -98 97 -46 -15 -89 -185 -99 -387 l-6 -129 -51 45&#xA;c-28 24 -83 68 -123 97 -60 45 -72 58 -73 83 0 17 -10 64 -22 105 -20 68 -22&#xA;103 -26 380 -3 295 1 390 17 390 4 0 14 -19 21 -42z m1778 6 c49 -6 51 -21 6&#xA;-43 -33 -17 -298 -28 -387 -17 -66 9 -99 28 -79 48 22 22 313 30 460 12z&#xA;m5022 -251 c63 -9 117 -18 119 -20 2 -1 -13 -39 -33 -82 -37 -80 -42 -101 -66&#xA;-311 -6 -52 -20 -171 -31 -265 -11 -93 -21 -212 -22 -263 l-1 -93 -56 6 c-30&#xA;2 -80 7 -110 9 -65 6 -120 17 -120 23 0 3 11 18 25 35 33 39 40 70 69 303 48&#xA;383 60 543 48 605 -18 83 -18 84 26 76 20 -3 89 -13 152 -23z m-7543 -394&#xA;c158 -22 416 -123 474 -186 l24 -25 -110 6 c-165 10 -368 34 -480 56 -112 23&#xA;-415 118 -415 130 0 5 30 11 68 15 37 3 74 8 82 9 38 9 286 5 357 -5z m1171&#xA;-162 c66 -184 85 -365 48 -461 l-19 -50 -33 40 c-19 21 -38 50 -43 64 -33 82&#xA;-25 516 9 495 5 -3 22 -42 38 -88z m6806 -39 c-24 -127 -105 -339 -148 -393&#xA;-16 -19 -17 -14 -13 80 2 78 9 113 28 160 27 64 126 225 139 225 4 0 1 -33 -6&#xA;-72z m-1394 -30 c65 -212 115 -392 157 -561 l46 -188 -163 -242 c-347 -513&#xA;-504 -719 -710 -931 -69 -70 -159 -156 -200 -189 -41 -33 -97 -79 -123 -101&#xA;-39 -33 -50 -38 -57 -26 -6 8 -10 21 -10 28 0 7 80 133 179 280 98 147 186&#xA;281 195 299 30 60 24 91 -90 432 -36 106 -63 199 -61 205 3 6 123 167 268 358&#xA;145 190 291 384 325 430 171 233 205 278 213 278 5 0 19 -33 31 -72z m-3276&#xA;36 c53 -20 -38 -170 -158 -260 -119 -90 -242 -137 -388 -149 l-88 -7 0 29 c0&#xA;63 93 208 178 275 55 44 147 88 216 103 64 14 213 19 240 9z m-2463 -224 c79&#xA;-74 194 -195 256 -268 63 -73 124 -139 136 -146 24 -16 160 -46 206 -46 16 0&#xA;32 4 35 9 6 9 -30 43 -68 66 -14 9 -5 21 56 87 40 43 80 78 88 79 31 4 89 -14&#xA;106 -32 21 -23 40 -24 48 -3 8 21 -14 50 -59 81 -20 13 -35 28 -33 33 2 5 46&#xA;57 98 117 52 60 102 119 110 131 14 22 20 23 132 20 l118 -3 -121 -150 c-66&#xA;-82 -140 -175 -165 -205 -25 -30 -65 -88 -89 -129 -32 -53 -57 -82 -93 -107&#xA;-65 -43 -152 -129 -152 -148 0 -27 29 -18 78 23 67 56 122 91 143 91 12 0 33&#xA;-30 69 -97 97 -182 224 -336 311 -375 l48 -22 -74 -37 c-92 -45 -158 -100&#xA;-216 -179 l-44 -61 -12 60 c-7 33 -22 80 -34 103 -33 65 -153 217 -291 368&#xA;-68 75 -184 207 -258 295 -134 160 -208 244 -392 447 -86 94 -120 147 -88 136&#xA;5 -1 73 -64 151 -138z m1451 123 c8 -10 34 -54 57 -98 24 -44 64 -104 89 -134&#xA;41 -49 44 -54 22 -48 -173 42 -171 41 -199 26 -34 -19 -37 -48 -12 -98 12 -22&#xA;21 -42 21 -44 0 -3 -81 -4 -180 -3 -99 0 -180 4 -180 7 0 9 253 315 303 367&#xA;46 47 57 50 79 25z m-1696 -64 c18 -20 18 -21 -6 -39 -93 -71 -396 -169 -664&#xA;-215 -49 -8 -91 -13 -94 -10 -15 15 148 140 248 190 136 67 239 91 406 94 80&#xA;1 93 -1 110 -20z m7634 -133 c0 -23 -98 -124 -163 -168 -59 -40 -205 -113&#xA;-212 -106 -10 10 112 130 177 173 59 40 185 114 196 115 1 0 2 -6 2 -14z&#xA;m-878 -216 c46 -6 107 -10 136 -10 29 0 52 -5 52 -10 0 -6 -13 -37 -29 -69&#xA;-30 -57 -42 -123 -56 -291 -4 -41 -15 -138 -25 -215 -48 -355 -58 -529 -35&#xA;-603 l8 -23 -114 2 c-213 3 -233 13 -185 84 15 21 26 43 26 49 0 6 5 40 10 76&#xA;5 36 14 110 19 165 6 55 24 228 41 385 32 302 35 365 21 402 -4 13 -11 36 -15&#xA;52 -7 28 -6 28 28 22 20 -4 73 -11 118 -16z m506 -231 c89 -51 272 -239 233&#xA;-239 -19 0 -176 73 -217 101 -48 32 -91 92 -100 137 -5 27 -4 32 12 32 11 0&#xA;43 -14 72 -31z m-2350 -33 c-7 -37 -266 -463 -393 -645 -63 -91 -181 -248&#xA;-262 -350 -175 -220 -483 -574 -521 -599 -23 -15 -61 -17 -313 -20 -304 -3&#xA;-332 -8 -290 -46 17 -16 49 -18 303 -19 156 -1 295 1 310 6 29 8 253 242 403&#xA;422 295 354 550 703 730 999 l78 128 65 -183 c99 -285 153 -450 158 -494 5&#xA;-36 -1 -49 -52 -130 -262 -410 -617 -875 -854 -1118 l-125 -128 -230 5 c-127&#xA;3 -372 8 -545 11 -340 6 -498 18 -541 41 -29 15 -79 73 -79 92 0 7 11 9 28 6&#xA;15 -3 84 -6 152 -7 120 -2 125 -1 128 19 4 28 -20 51 -66 64 -93 26 -276 53&#xA;-367 54 l-100 1 -79 -54 c-43 -29 -81 -49 -85 -45 -63 87 -171 261 -169 272 2&#xA;8 62 50 133 93 106 64 130 83 130 101 0 41 -42 33 -156 -31 -59 -32 -118 -66&#xA;-132 -76 l-25 -16 -49 83 c-87 147 -123 215 -123 231 0 9 62 54 154 112 85 53&#xA;160 102 166 110 18 22 4 45 -27 45 -22 0 -183 -90 -320 -177 -20 -14 -23 -10&#xA;-87 116 -36 71 -66 133 -66 138 0 9 163 119 309 208 l94 58 131 -6 c72 -3 165&#xA;-10 206 -16 78 -11 362 -41 610 -66 80 -7 217 -23 305 -34 244 -31 296 -30&#xA;309 6 9 22 -20 51 -63 63 -19 5 -128 28 -241 51 -113 23 -208 44 -213 48 -4 4&#xA;86 123 199 265 l206 257 96 -5 c177 -10 526 -27 602 -29 74 -2 77 -1 225 70&#xA;158 76 311 141 334 142 9 1 12 -7 9 -23z m-4661 -70 c116 -45 143 -57 143 -68&#xA;0 -5 -44 -64 -97 -132 -54 -67 -110 -137 -124 -156 l-25 -33 -124 61 c-68 34&#xA;-129 62 -137 62 -7 0 -13 4 -13 9 0 21 259 291 279 291 5 0 49 -15 98 -34z&#xA;m6007 -291 c87 -398 149 -856 191 -1403 26 -339 13 -1175 -20 -1310 -5 -19&#xA;-47 -44 -218 -127 -250 -122 -398 -187 -406 -179 -3 3 -9 139 -13 302 -9 411&#xA;-24 629 -43 658 -32 49 -60 45 -620 -101 -273 -72 -347 -81 -478 -61 -45 7&#xA;-50 10 -67 51 -12 29 -30 50 -50 60 -32 17 -205 42 -622 90 -249 29 -217 32&#xA;-596 -56 -117 -27 -222 -49 -232 -49 -29 0 -38 27 -46 130 l-7 93 89 -7 c49&#xA;-3 307 -10 574 -15 381 -7 491 -6 515 4 51 21 300 299 505 563 60 78 66 83 98&#xA;80 l34 -3 -1 -130 c-1 -71 -6 -206 -11 -300 -15 -265 -13 -405 5 -405 37 0 48&#xA;88 65 520 7 157 15 290 19 297 3 7 45 38 93 70 160 107 424 359 619 593 101&#xA;120 271 355 454 625 124 184 128 190 132 179 1 -5 18 -81 37 -169z m-5689 93&#xA;c82 -84 155 -175 155 -191 -1 -15 -199 -256 -222 -271 -15 -9 -28 -1 -75 45&#xA;-70 68 -187 165 -205 171 -18 6 22 64 133 193 86 100 112 124 134 125 5 0 41&#xA;-33 80 -72z m-669 -166 c38 -16 95 -42 127 -58 l58 -30 -132 -172 c-72 -95&#xA;-135 -172 -140 -172 -5 0 -32 11 -59 25 -28 14 -89 39 -136 56 l-85 31 17 27&#xA;c75 115 247 321 268 321 7 0 44 -13 82 -28z m1114 -146 c17 -31 32 -74 36&#xA;-107 6 -57 -8 -187 -26 -235 l-11 -28 -19 42 c-43 95 -44 115 -10 183 39 77&#xA;34 98 -46 160 -62 48 -66 59 -49 128 6 22 9 19 50 -34 25 -31 58 -80 75 -109z&#xA;m1145 108 c80 -7 820 -43 923 -45 51 -1 94 -5 97 -9 2 -4 -21 -37 -51 -74&#xA;l-56 -68 -56 6 c-118 13 -717 56 -776 56 -69 0 -129 -29 -299 -140 -50 -33&#xA;-93 -60 -97 -60 -4 0 -12 12 -19 28 -7 15 -30 55 -52 88 -33 51 -88 193 -89&#xA;228 0 9 355 1 475 -10z m-561 -116 c12 -29 55 -103 93 -165 l71 -111 -30 -29&#xA;c-34 -32 -103 -140 -144 -225 -16 -32 -31 -58 -34 -58 -3 1 -27 32 -54 70 -71&#xA;102 -178 213 -230 241 -25 13 -46 29 -46 36 0 23 102 163 143 197 57 45 152&#xA;91 200 95 4 1 18 -23 31 -51z m-1380 -27 c80 -62 198 -164 209 -181 7 -12 -6&#xA;-38 -53 -105 -102 -147 -191 -265 -200 -265 -5 0 -55 44 -112 98 -57 54 -118&#xA;108 -135 120 -18 13 -33 28 -33 34 0 11 189 266 233 316 11 12 25 22 30 22 6&#xA;0 33 -18 61 -39z m619 -25 l47 -44 -22 -39 c-38 -66 -109 -165 -187 -262 -42&#xA;-51 -82 -102 -90 -112 -7 -11 -19 -19 -25 -19 -6 0 -38 24 -71 54 l-60 53 36&#xA;51 c50 71 302 362 314 362 6 0 31 -20 58 -44z m-1212 -256 c159 -59 235 -106&#xA;351 -219 60 -57 108 -108 108 -113 0 -5 -51 -6 -125 -2 -75 4 -125 3 -125 -2&#xA;0 -31 32 -52 87 -58 32 -4 96 -15 141 -24 l84 -17 96 -140 c195 -287 273 -385&#xA;303 -385 32 0 23 43 -24 112 -24 35 -79 115 -122 178 -43 63 -100 146 -128&#xA;183 -58 80 -60 72 32 195 56 76 64 83 79 69 106 -91 159 -127 184 -127 22 0&#xA;43 18 109 93 44 50 106 127 137 169 31 42 59 77 62 78 3 0 18 -25 34 -55 32&#xA;-62 106 -135 135 -135 14 0 33 21 62 70 23 39 45 70 49 70 4 0 11 -26 15 -57&#xA;5 -45 67 -393 100 -563 4 -21 -4 -32 -47 -66 -96 -76 -422 -306 -456 -322 -31&#xA;-15 -39 -14 -145 12 -62 15 -168 41 -237 57 -69 16 -135 34 -146 40 -43 22&#xA;-296 342 -450 569 -110 161 -264 420 -250 420 3 0 42 -14 87 -30z m1711 -162&#xA;c55 -57 138 -170 169 -229 16 -33 17 -43 7 -93 l-12 -56 102 -203 c107 -212&#xA;244 -441 340 -567 89 -116 181 -210 207 -210 21 0 87 62 143 135 28 35 29 34&#xA;73 -80 31 -82 54 -163 64 -226 5 -33 13 -40 94 -88 l88 -52 115 -167 c63 -92&#xA;117 -175 121 -184 3 -10 9 -87 13 -171 l7 -154 -59 8 c-32 4 -153 21 -269 37&#xA;-115 17 -295 40 -400 52 -104 12 -195 23 -201 25 -10 3 -46 183 -84 430 -19&#xA;123 -105 572 -115 606 -3 9 -17 21 -32 28 -28 13 -272 67 -437 97 -54 10 -105&#xA;25 -114 33 -14 15 -13 84 4 191 7 44 12 51 104 130 41 36 80 72 87 80 20 25&#xA;15 86 -26 327 -44 255 -57 353 -46 353 4 0 30 -24 57 -52z m5477 6 c2 -2 -12&#xA;-39 -31 -81 -38 -84 -52 -162 -63 -353 -3 -58 -10 -134 -15 -170 -12 -89 -25&#xA;-313 -23 -378 2 -29 11 -73 22 -98 l20 -44 -68 0 -68 0 -6 178 c-4 97 -9 209&#xA;-12 247 -3 39 -10 126 -15 195 -15 194 -20 247 -36 365 -8 60 -14 120 -14 133&#xA;l0 24 153 -7 c83 -4 154 -9 156 -11z m-5000 -161 c34 -62 61 -118 61 -124 0&#xA;-13 -84 -175 -125 -239 -14 -22 -30 -40 -35 -40 -11 0 -94 161 -104 203 -9 38&#xA;16 121 66 222 45 91 58 109 69 98 4 -4 35 -58 68 -120z m194 -355 c37 -64 67&#xA;-124 67 -131 0 -8 -24 -55 -52 -104 -29 -49 -62 -108 -73 -131 -11 -23 -23&#xA;-42 -27 -42 -3 0 -31 39 -61 88 -83 134 -97 158 -97 171 0 7 35 74 77 151 58&#xA;104 81 136 89 127 6 -7 40 -65 77 -129z m213 -348 c44 -63 83 -121 87 -127 10&#xA;-16 -4 -42 -73 -133 -88 -116 -84 -114 -142 -50 -27 30 -68 79 -90 107 l-40&#xA;53 47 87 c69 127 115 197 124 187 4 -5 44 -61 87 -124z m435 -165 c22 -35 64&#xA;-85 92 -111 33 -30 47 -49 39 -52 -36 -12 -163 -107 -216 -161 l-60 -60 -26&#xA;77 c-15 42 -44 111 -64 154 -20 42 -36 81 -36 86 0 17 80 81 135 107 78 38 89&#xA;35 136 -40z m-2396 -130 c288 -22 285 -21 113 -65 -81 -21 -161 -43 -179 -49&#xA;-43 -15 -89 -14 -207 4 -53 7 -152 19 -218 24 -67 6 -132 15 -145 20 -24 8 -4&#xA;14 246 70 61 14 181 13 390 -4z m872 -4 c26 -5 113 -20 193 -32 80 -13 149&#xA;-26 153 -29 4 -4 -41 -19 -100 -35 -59 -15 -181 -49 -271 -76 -89 -27 -169&#xA;-49 -176 -49 -9 0 -18 27 -27 83 -8 45 -14 86 -14 92 0 14 113 54 157 54 20 1&#xA;59 -3 85 -8z m-307 -193 c14 -70 30 -133 37 -139 8 -8 31 -4 90 19 147 56 652&#xA;212 685 212 11 0 19 -11 23 -32 6 -36 126 -742 152 -901 10 -60 13 -101 7&#xA;-106 -9 -8 -619 -235 -1014 -377 -112 -41 -207 -70 -211 -66 -10 10 -44 173&#xA;-73 352 -14 85 -37 220 -51 300 -14 80 -37 219 -51 310 -14 91 -37 223 -50&#xA;294 -14 70 -23 130 -20 133 12 13 404 132 426 130 23 -2 26 -9 50 -129z m2105&#xA;65 c16 -119 26 -148 87 -238 130 -193 386 -542 441 -601 60 -64 69 -92 48&#xA;-147 -25 -65 -166 -177 -223 -177 -22 0 -33 7 -46 32 -23 43 -381 579 -467&#xA;699 -89 123 -101 137 -158 165 -26 14 -50 31 -54 39 -8 22 21 61 102 140 78&#xA;77 178 135 231 135 32 0 33 -2 39 -47z m-3392 -9 c37 -3 69 -9 71 -13 8 -13&#xA;80 -401 75 -405 -6 -7 -212 15 -221 23 -8 7 -53 262 -62 354 l-6 59 37 -6 c21&#xA;-3 68 -8 106 -12z m367 -43 l44 -6 12 -65 c7 -36 24 -127 39 -204 14 -76 24&#xA;-140 22 -142 -3 -3 -249 25 -253 29 -4 4 -74 379 -74 394 0 13 13 14 83 8 45&#xA;-4 102 -10 127 -14z m274 -40 c43 -5 83 -14 88 -19 10 -10 68 -327 68 -369 0&#xA;-19 -5 -23 -35 -23 -31 0 -186 20 -192 25 -4 2 -73 376 -73 391 0 9 11 11 33&#xA;8 17 -2 67 -8 111 -13z m4102 -114 c4 -4 -95 -33 -273 -82 -113 -31 -117 -31&#xA;-372 0 -331 40 -391 48 -385 54 11 11 307 74 419 89 44 6 600 -49 611 -61z&#xA;m1395 -128 c16 -274 28 -643 22 -707 l-6 -60 -226 -98 c-124 -54 -350 -151&#xA;-501 -217 -426 -184 -743 -308 -751 -294 -4 7 -12 62 -19 122 -6 61 -27 241&#xA;-46 400 -53 439 -82 683 -89 751 l-7 61 34 7 c19 3 115 31 213 61 98 30 179&#xA;54 180 52 1 -1 9 -56 19 -122 19 -137 29 -153 80 -130 40 18 807 273 956 318&#xA;63 20 119 32 123 28 4 -4 12 -82 18 -172z m-2412 -31 c7 -22 15 -46 18 -54 3&#xA;-8 0 -14 -5 -14 -9 0 -72 98 -72 112 0 3 11 3 24 1 17 -4 27 -15 35 -45z m211&#xA;11 c47 -6 97 -12 113 -14 15 -1 30 -4 33 -7 5 -6 44 -316 44 -357 0 -23 -1&#xA;-23 -72 -16 -40 4 -81 10 -90 14 -9 3 -43 43 -76 88 -54 75 -61 90 -71 158 -6&#xA;42 -11 91 -11 110 0 41 0 41 130 24z m387 -45 c59 -9 111 -20 114 -26 6 -9 39&#xA;-302 39 -345 0 -21 -5 -23 -47 -22 -27 0 -86 6 -133 12 l-84 12 -7 40 c-3 22&#xA;-11 99 -18 170 -7 72 -14 140 -17 153 -5 27 5 28 153 6z m-4172 -114 c261 -31&#xA;502 -58 588 -66 44 -3 80 -11 82 -18 2 -6 17 -101 34 -211 31 -197 96 -567&#xA;108 -614 6 -24 6 -24 -58 -17 -110 13 -436 69 -444 78 -3 2 -20 81 -39 175&#xA;-47 233 -53 253 -75 253 -44 0 -45 -20 -6 -215 20 -103 35 -189 32 -191 -6 -7&#xA;-260 45 -270 55 -15 15 -91 350 -150 664 l-24 127 26 0 c14 0 103 -9 196 -20z&#xA;m4183 -350 c84 -9 155 -20 158 -23 7 -6 25 -154 49 -387 8 -80 17 -167 20&#xA;-195 16 -149 25 -231 25 -242 0 -8 -14 -13 -35 -13 -45 0 -449 47 -545 63&#xA;l-75 13 -13 104 c-30 245 -40 271 -87 236 -19 -14 -19 -15 3 -167 12 -84 20&#xA;-154 17 -157 -2 -3 -68 5 -145 17 -134 21 -200 37 -200 48 0 3 -13 100 -30&#xA;216 -33 233 -50 416 -39 423 8 5 67 -76 161 -222 67 -104 97 -134 133 -134 32&#xA;0 154 63 213 109 66 53 116 121 137 188 16 50 16 54 -4 99 -12 25 -21 48 -21&#xA;51 0 4 39 1 278 -27z"/>
    <path d="M5110 8485 c-103 -29 -186 -110 -197 -193 -7 -51 6 -59 68 -41 59 16&#xA;208 12 282 -7 149 -38 321 -125 462 -234 84 -64 96 -68 115 -45 18 22 5 78&#xA;-38 160 -49 94 -201 247 -291 294 -134 70 -292 96 -401 66z"/>
    <path d="M6465 8461 c-7 -12 -21 -178 -30 -361 -4 -69 -8 -147 -10 -175 -9&#xA;-135 -17 -495 -11 -518 7 -30 32 -36 40 -9 17 57 23 154 33 472 12 387 10 592&#xA;-4 597 -6 2 -14 -1 -18 -6z"/>
    <path d="M2880 8367 c-268 -80 -515 -311 -523 -489 -1 -29 3 -52 9 -55 5 -2&#xA;61 37 124 86 121 96 270 178 415 228 74 26 92 28 230 28 l150 0 3 31 c4 44&#xA;-68 139 -130 170 -63 32 -172 32 -278 1z"/>
    <path d="M4479 6404 c-111 -54 -133 -70 -123 -86 9 -14 33 -9 113 23 82 32&#xA;151 80 151 105 0 23 -21 17 -141 -42z"/>
    <path d="M6365 6250 c-20 -32 -97 -884 -93 -1019 3 -103 19 -131 37 -64 36&#xA;138 101 894 89 1042 -3 43 -19 63 -33 41z"/>
    <path d="M3380 4062 c-75 -37 -186 -167 -142 -167 19 0 202 155 202 171 0 18&#xA;-17 17 -60 -4z"/>
    <path d="M4684 2281 c-91 -60 -128 -95 -121 -114 5 -14 11 -15 34 -6 38 14&#xA;170 114 183 139 18 34 -30 25 -96 -19z"/>
    <path d="M5309 1411 c-90 -58 -143 -135 -103 -148 14 -5 188 143 192 163 6 24&#xA;-41 16 -89 -15z"/>
    <path d="M1059 1296 c-11 -24 -10 -30 12 -51 52 -51 215 -165 235 -165 44 0&#xA;33 53 -24 114 -43 45 -147 115 -180 122 -27 6 -33 3 -43 -20z"/>
    <path d="M910 1075 c-18 -22 28 -59 109 -85 82 -26 135 -24 139 6 4 27 -21 47&#xA;-91 73 -67 25 -139 28 -157 6z"/>
    <path d="M8024 1061 c-72 -45 -167 -183 -162 -236 4 -40 48 -48 73 -13 111&#xA;156 155 223 155 234 0 26 -35 34 -66 15z"/>
    <path d="M8243 965 c-26 -12 -72 -41 -101 -64 -47 -37 -53 -46 -50 -74 3 -28&#xA;6 -32 32 -30 34 3 192 99 213 131 12 17 13 25 4 36 -20 24 -48 24 -98 1z"/>
  </g>
  <title>Panda</title>
  <desc>Urocza panda, którą można znaleźć w bambusowej dżungli. Pandy w Minecrafcie mają różne charaktery - mogą być leniwe, zabawne lub smutne. Uwielbiają jeść bambus.</desc>
</svg>