<?xml version="1.0" standalone="no"?>
<!DOCTYPE svg PUBLIC "-//W3C//DTD SVG 20010904//EN"
 "http://www.w3.org/TR/2001/REC-SVG-20010904/DTD/svg10.dtd">
<svg version="1.0" xmlns="http://www.w3.org/2000/svg"
 width="1024.000000pt" height="1024.000000pt" viewBox="0 0 1024.000000 1024.000000"
 preserveAspectRatio="xMidYMid meet">
<metadata>
Created by potrace 1.16, written by Peter Selinger 2001-2019
</metadata>
<g transform="translate(0.000000,1024.000000) scale(0.100000,-0.100000)"
fill="#000000" stroke="none">
<path d="M5200 9931 c-59 -13 -299 -107 -438 -172 -34 -16 -68 -29 -75 -29 -8
0 -63 -25 -124 -55 -131 -65 -148 -87 -132 -169 5 -27 13 -54 17 -60 8 -9 106
-194 133 -248 23 -45 32 -63 75 -140 26 -46 56 -101 68 -123 103 -188 99 -179
174 -306 23 -39 42 -76 42 -80 0 -5 5 -9 10 -9 6 0 10 -7 10 -15 0 -8 13 -34
29 -57 42 -62 160 -249 222 -353 29 -49 80 -126 111 -170 32 -44 65 -94 73
-112 21 -43 60 -69 170 -113 11 -4 56 -22 100 -40 110 -43 304 -117 400 -152
44 -16 89 -33 100 -38 11 -5 49 -19 85 -31 81 -27 177 -72 209 -97 l25 -20
-60 -12 c-32 -6 -66 -14 -74 -17 -33 -11 -117 -31 -160 -38 -25 -3 -54 -10
-65 -15 -11 -4 -69 -18 -130 -30 -122 -24 -113 -21 -210 -48 -85 -24 -235 -58
-290 -67 -22 -4 -51 -10 -65 -15 -14 -5 -38 -11 -53 -15 -38 -8 -114 -79 -126
-118 -14 -42 -19 -164 -27 -662 -4 -225 -8 -435 -9 -465 -1 -30 -3 -119 -3
-197 -1 -79 -5 -143 -10 -143 -11 0 -91 68 -258 220 -195 177 -230 211 -322
301 -42 42 -85 79 -94 82 -10 4 -18 13 -18 22 0 8 -4 15 -8 15 -5 0 -90 80
-189 178 -194 191 -371 355 -417 387 -16 11 -59 49 -95 83 -36 35 -113 107
-170 160 -155 145 -254 245 -354 362 -49 58 -111 128 -137 155 -25 28 -51 57
-56 66 -7 14 -172 194 -252 275 -12 13 -44 50 -71 81 -26 32 -68 78 -92 103
-25 25 -60 65 -79 90 -19 25 -53 65 -75 90 -117 127 -152 167 -165 186 -8 12
-55 69 -105 127 -89 103 -176 207 -266 316 -25 31 -60 72 -78 91 -18 19 -46
54 -62 77 -16 23 -32 43 -36 45 -5 1 -28 29 -51 61 -24 32 -73 90 -109 128
-73 77 -103 89 -168 66 -52 -19 -255 -120 -325 -163 -30 -18 -68 -40 -85 -48
-31 -16 -49 -27 -100 -61 -44 -30 -86 -54 -122 -70 -17 -8 -43 -29 -56 -47
-49 -65 -28 -110 171 -372 20 -27 51 -65 69 -85 28 -31 159 -193 251 -310 15
-19 56 -69 92 -112 161 -192 191 -229 185 -229 -12 0 -67 34 -120 72 -27 21
-56 38 -64 38 -8 0 -38 18 -67 40 -29 22 -58 40 -64 40 -6 0 -35 18 -64 40
-29 22 -57 40 -63 40 -5 0 -29 14 -53 31 -24 18 -95 63 -158 101 -63 38 -136
85 -162 104 -85 61 -144 56 -198 -20 -26 -36 -72 -159 -61 -162 2 0 -1 -7 -7
-15 -7 -8 -15 -30 -19 -49 -4 -19 -11 -39 -15 -45 -4 -5 -15 -41 -25 -80 -10
-38 -22 -74 -26 -80 -4 -5 -9 -23 -12 -40 -3 -16 -11 -46 -17 -65 -6 -19 -13
-42 -15 -50 -2 -8 -15 -53 -30 -100 -50 -161 -57 -192 -50 -227 7 -40 49 -84
135 -142 129 -87 228 -157 269 -190 24 -20 66 -49 92 -66 26 -16 121 -79 211
-139 90 -60 184 -123 210 -140 46 -30 65 -56 31 -41 -10 5 -50 14 -89 21 -40
7 -107 22 -150 33 -71 18 -276 63 -336 75 -13 2 -40 7 -60 11 -49 9 -102 -9
-117 -41 -18 -41 -14 -140 13 -299 2 -11 11 -49 19 -85 8 -36 27 -128 42 -205
15 -77 29 -151 32 -165 4 -14 7 -27 7 -30 1 -3 5 -10 9 -16 4 -7 11 -40 16
-76 12 -85 30 -144 50 -163 21 -18 158 -68 276 -100 50 -13 108 -31 130 -39
22 -8 49 -15 59 -16 11 0 42 -7 70 -15 28 -8 110 -31 181 -50 72 -20 154 -43
184 -51 96 -26 112 -20 -257 -95 -87 -17 -174 -48 -189 -67 -44 -56 -45 -68
-12 -128 17 -32 51 -87 77 -123 25 -36 64 -93 86 -126 22 -33 56 -80 76 -105
21 -25 42 -54 48 -65 9 -19 82 -116 219 -292 60 -78 127 -115 194 -108 74 8
171 25 232 41 61 16 77 14 60 -8 -19 -24 -24 -86 -10 -120 8 -19 54 -69 103
-113 49 -44 91 -82 94 -85 5 -6 133 -117 220 -191 25 -21 65 -56 90 -77 25
-21 78 -60 118 -87 l73 -49 68 17 c38 9 97 33 131 53 64 37 79 36 80 -7 0 -8
12 -27 28 -41 36 -35 201 -151 301 -213 44 -27 81 -53 81 -57 0 -3 19 -18 43
-32 87 -53 85 -44 23 -138 -82 -124 -89 -132 -127 -135 -43 -2 -222 -27 -399
-54 -74 -11 -146 -22 -160 -23 -14 -2 -97 -15 -185 -30 -163 -26 -531 -83
-595 -91 -19 -3 -73 -12 -120 -21 -47 -8 -116 -19 -153 -24 -74 -10 -80 -13
-123 -50 -25 -22 -193 -218 -276 -321 -82 -103 -103 -130 -153 -196 -30 -40
-55 -76 -55 -79 0 -3 -14 -24 -31 -45 -27 -35 -30 -44 -24 -82 6 -32 17 -50
47 -77 22 -19 63 -57 92 -85 28 -27 78 -72 111 -100 33 -27 66 -56 75 -63 50
-44 318 -248 350 -267 64 -38 87 -47 114 -47 36 0 108 20 182 50 27 11 87 35
134 53 47 18 90 35 95 39 6 4 48 21 95 39 47 18 99 38 115 46 46 21 383 155
445 177 30 11 83 33 117 49 34 15 74 31 89 35 15 4 39 13 53 20 14 8 29 14 33
14 3 0 41 16 83 36 42 20 79 34 81 31 3 -3 -25 -29 -61 -58 -37 -30 -102 -85
-144 -122 -42 -38 -92 -79 -111 -92 -19 -12 -44 -33 -56 -46 -11 -13 -51 -51
-89 -84 -38 -33 -92 -81 -120 -106 -27 -25 -88 -77 -135 -116 -47 -38 -110
-97 -141 -131 -47 -50 -58 -68 -61 -104 -5 -43 9 -84 34 -105 39 -32 260 -83
295 -68 10 5 26 7 36 6 10 -2 27 5 38 15 24 22 38 10 17 -13 -52 -58 -74 -154
-48 -204 22 -41 160 -88 277 -94 108 -5 147 17 258 149 47 56 102 120 122 143
19 23 43 53 51 65 9 13 21 28 27 33 7 6 29 32 51 60 21 27 91 113 154 190 63
77 135 166 159 197 24 32 48 58 53 58 11 0 4 -12 -32 -60 -37 -49 -180 -258
-180 -264 0 -5 -45 -76 -81 -128 -11 -15 -19 -34 -19 -43 0 -8 -4 -15 -9 -15
-5 0 -18 -31 -31 -69 -19 -61 -20 -73 -8 -97 50 -104 415 -182 544 -116 23 12
67 22 109 24 123 9 168 40 271 185 23 32 54 81 69 108 15 28 35 61 44 75 9 14
23 39 31 55 8 17 21 38 29 48 8 9 11 17 7 17 -3 0 5 21 18 48 13 26 34 68 45
94 26 58 37 65 64 41 42 -38 172 -127 224 -154 57 -30 68 -31 228 -9 39 6 97
13 130 16 33 3 67 10 75 14 8 4 47 11 85 14 39 4 142 15 230 26 88 11 189 22
225 25 36 4 76 10 90 15 14 5 52 11 85 14 33 3 74 7 90 10 17 3 98 15 180 26
83 12 182 26 220 32 39 7 75 11 81 10 6 -1 30 5 54 13 24 8 45 13 48 11 8 -8
60 23 88 52 68 72 212 313 381 640 46 90 93 178 103 195 10 18 43 79 73 137
29 58 65 123 78 145 14 22 31 56 39 75 8 19 17 37 20 40 4 3 14 25 24 50 10
25 22 50 27 56 5 7 30 52 55 100 25 49 74 143 109 209 164 313 189 363 200
399 8 26 18 40 31 42 10 2 30 5 44 8 67 12 247 36 274 36 42 0 148 52 168 81
20 32 40 134 63 324 21 178 38 281 50 306 20 38 19 83 -2 101 -10 8 -48 29
-85 47 -62 30 -67 35 -63 59 5 29 30 189 41 262 3 25 8 48 11 52 3 7 73 -36
176 -107 24 -17 46 -45 62 -81 14 -30 25 -57 25 -59 0 -2 23 -55 51 -117 28
-62 54 -122 59 -133 120 -282 128 -295 170 -295 51 0 180 157 317 384 29 49
53 90 53 93 0 2 19 41 41 86 23 45 52 111 66 147 13 36 32 83 43 106 10 22 26
67 34 100 9 32 24 82 35 110 11 29 17 54 14 58 -3 3 -1 12 6 20 15 18 31 70
37 121 3 22 9 51 14 65 11 33 56 291 70 405 20 170 23 210 24 322 1 106 0 113
-24 138 -14 15 -38 34 -54 42 -36 19 -194 59 -268 68 -41 5 -59 12 -61 24 -3
9 -5 66 -6 126 -1 107 -3 185 -16 615 -7 221 -18 284 -61 333 -13 15 -39 31
-56 34 -54 10 -257 8 -1258 -12 -729 -15 -836 -21 -1041 -62 -47 -9 -92 -14
-101 -10 -9 3 -21 27 -27 57 -6 28 -29 106 -51 173 -22 66 -40 127 -40 135 0
8 -14 60 -31 116 -17 56 -34 115 -36 131 -3 17 -9 37 -13 45 -10 18 -45 146
-65 235 -17 75 -27 113 -53 195 -12 36 -30 101 -42 145 -11 44 -27 96 -34 115
-8 19 -24 76 -36 125 -12 50 -30 122 -40 160 -11 39 -27 99 -36 135 -28 107
-84 292 -103 340 -29 74 -101 110 -154 76 -12 -8 -62 -28 -112 -46 -49 -17
-100 -38 -112 -46 -62 -40 -75 -163 -30 -275 15 -36 27 -73 27 -81 0 -14 63
-253 91 -348 12 -38 44 -170 59 -238 5 -24 13 -48 16 -54 4 -6 9 -21 11 -32 6
-40 49 -191 57 -204 4 -7 6 -16 3 -18 -2 -3 9 -53 25 -112 25 -94 84 -316 107
-408 5 -18 11 -37 15 -43 4 -6 2 -11 -4 -11 -12 0 -50 59 -50 79 0 8 -6 22
-14 30 -7 9 -32 52 -56 96 -49 91 -130 245 -153 290 -8 17 -24 48 -36 70 -64
122 -313 632 -371 760 -13 28 -40 86 -60 130 -21 44 -61 134 -90 200 -29 66
-65 147 -80 180 -15 33 -53 119 -84 190 -32 72 -68 140 -82 153 -26 23 -80 28
-154 13z m100 -313 c28 -68 63 -148 77 -178 14 -30 29 -64 34 -75 44 -102 130
-298 138 -312 25 -47 101 -212 101 -218 0 -3 29 -66 64 -138 35 -73 77 -161
94 -197 121 -258 164 -348 174 -365 11 -19 18 -34 36 -72 5 -10 16 -31 25 -48
29 -54 137 -286 137 -296 0 -5 5 -18 12 -29 19 -29 3 -35 -35 -11 -19 11 -63
30 -97 41 -35 11 -68 24 -74 28 -6 5 -47 21 -91 36 -44 16 -87 34 -95 41 -8 7
-26 15 -40 18 -35 8 -151 51 -177 65 -13 7 -23 19 -23 26 0 7 -9 21 -21 32
-19 17 -169 237 -169 247 0 2 -43 69 -96 148 -53 79 -104 158 -114 174 -23 41
-93 162 -105 183 -6 9 -23 40 -39 67 -16 28 -46 79 -66 115 -61 105 -212 371
-235 415 -12 22 -38 70 -58 107 -39 69 -44 88 -26 88 5 0 35 11 65 25 30 14
57 25 59 25 3 0 28 11 57 25 28 14 56 25 62 25 10 0 92 30 141 51 77 34 221
87 226 83 4 -2 30 -59 59 -126z m1007 -196 c7 -15 33 -103 57 -195 25 -92 47
-171 50 -175 2 -4 7 -27 11 -52 4 -25 9 -49 12 -53 3 -5 9 -23 13 -41 23 -92
73 -277 86 -315 15 -44 42 -146 89 -326 31 -122 110 -401 143 -505 14 -47 27
-92 29 -100 4 -25 25 -101 44 -164 11 -33 17 -61 15 -64 -5 -4 -69 -21 -106
-27 -14 -2 -31 -5 -39 -7 -7 -2 -17 4 -21 12 -12 20 -64 203 -101 350 -11 47
-27 110 -36 140 -8 30 -16 62 -17 70 -7 34 -18 76 -26 95 -5 11 -21 67 -35
124 -15 58 -31 113 -36 124 -6 10 -11 33 -11 50 0 18 -3 37 -7 42 -3 6 -13 42
-23 80 -46 196 -56 233 -62 243 -4 6 -15 49 -26 94 -30 134 -60 259 -76 318
-28 102 -64 245 -64 256 0 8 94 50 120 53 3 1 11 -11 17 -27z m-4752 -419 c33
-42 74 -92 92 -111 18 -19 63 -75 101 -126 38 -50 94 -118 123 -152 30 -33
140 -161 244 -285 105 -123 215 -251 246 -284 30 -33 109 -123 175 -200 136
-161 189 -220 288 -326 39 -41 88 -95 110 -120 52 -60 186 -206 330 -362 l119
-129 -21 -41 c-12 -23 -40 -76 -63 -117 -38 -69 -182 -348 -285 -550 -44 -86
-61 -152 -50 -188 7 -21 132 -149 193 -197 21 -16 67 -58 103 -92 36 -34 78
-73 95 -86 l29 -25 -44 -58 c-25 -33 -50 -63 -56 -69 -6 -5 -35 -41 -64 -80
-29 -38 -76 -97 -104 -130 -28 -33 -77 -94 -109 -135 -99 -128 -147 -185 -155
-185 -5 0 -75 63 -156 140 -81 77 -158 147 -171 155 -12 8 -43 36 -68 62 -51
54 -50 48 -97 328 -16 96 -36 207 -43 245 -8 39 -22 111 -31 160 -9 50 -22
108 -27 130 -11 40 -6 102 10 133 5 9 20 40 33 67 13 28 36 68 50 90 14 22 28
51 33 65 4 14 19 45 33 70 14 25 25 45 23 45 -1 0 14 29 34 65 57 100 85 169
85 209 0 48 -24 77 -294 356 -123 127 -242 253 -266 280 -24 28 -47 52 -51 53
-5 2 -9 8 -9 14 0 5 -20 31 -44 57 -24 25 -77 87 -117 136 -72 89 -216 257
-263 305 -43 45 -196 240 -196 250 0 6 -4 10 -9 10 -14 0 -341 404 -341 421 0
14 56 47 230 134 96 49 183 95 193 104 18 15 71 38 92 39 6 1 37 -33 70 -75z
m-846 -917 c84 -55 178 -115 210 -132 62 -35 74 -42 80 -51 7 -10 54 -41 101
-66 19 -11 81 -50 137 -88 56 -37 121 -78 145 -91 24 -13 97 -59 163 -102 228
-150 290 -191 315 -206 93 -56 158 -100 199 -133 25 -20 79 -63 119 -95 41
-31 90 -70 111 -87 21 -16 62 -48 92 -71 89 -67 87 -59 28 -171 -58 -109 -126
-243 -190 -376 -23 -49 -49 -91 -57 -95 -14 -5 -113 42 -197 94 -22 14 -56 32
-75 40 -42 19 -136 75 -204 123 -27 18 -63 40 -80 47 -39 18 -61 32 -107 67
-20 15 -40 27 -44 27 -4 0 -21 10 -38 23 -34 24 -63 42 -87 53 -8 5 -60 37
-115 72 -55 36 -134 86 -175 113 -41 26 -79 52 -85 56 -9 8 -351 236 -386 258
-148 93 -141 80 -106 188 16 50 36 106 43 124 8 17 14 37 14 44 0 16 38 144
55 184 7 17 22 66 34 110 26 93 51 165 59 165 3 0 22 -11 41 -24z m8682 -726
c4 -19 6 -134 3 -255 -2 -121 -4 -308 -5 -415 -1 -107 -3 -205 -6 -216 -5 -22
-5 -22 -355 -23 -192 -1 -373 -3 -401 -6 -29 -2 -160 -7 -292 -10 -316 -7
-352 -11 -371 -41 -16 -24 -21 -72 -49 -439 -8 -115 -26 -273 -39 -350 -13
-77 -29 -183 -35 -235 -6 -52 -24 -205 -41 -340 -16 -135 -32 -270 -34 -300
-3 -30 -11 -116 -20 -190 -8 -74 -17 -168 -21 -208 l-6 -72 38 -17 c33 -13 72
-15 303 -9 146 4 283 9 305 11 22 2 78 6 125 10 47 3 94 6 105 8 17 2 19 -3
16 -38 -2 -22 -7 -47 -11 -56 -5 -9 -16 -71 -24 -138 -8 -67 -17 -125 -20
-130 -6 -10 -65 -17 -251 -31 -71 -6 -155 -12 -185 -15 -30 -2 -102 -7 -160
-10 -58 -4 -118 -8 -135 -10 -16 -1 -57 -6 -90 -9 -33 -3 -85 -9 -115 -12 -30
-3 -71 -8 -90 -10 -19 -1 -61 -6 -94 -9 l-58 -6 6 218 c4 120 9 261 11 313 2
52 7 262 11 465 3 204 7 391 8 416 1 40 8 53 57 110 31 35 62 75 69 89 7 14
26 41 41 61 16 20 29 46 29 58 0 12 4 21 9 21 5 0 11 8 14 18 3 9 15 42 26 72
12 30 31 104 42 165 18 93 21 133 16 265 -3 85 -13 189 -22 230 -38 176 -125
347 -238 462 l-51 53 1 280 2 280 193 1 c106 1 335 5 508 8 173 3 478 7 678
10 200 2 365 6 368 9 2 2 55 4 116 3 l112 -1 7 -35z m-2090 -137 c0 -65 2
-169 4 -230 2 -62 1 -113 -2 -113 -3 0 -31 8 -62 19 -31 10 -74 24 -95 31 -39
12 -217 16 -266 6 -39 -9 -78 -25 -179 -73 -207 -101 -380 -336 -452 -615 -39
-150 -50 -261 -38 -395 11 -138 21 -190 54 -282 86 -242 228 -403 420 -475
119 -45 133 -48 246 -47 127 1 279 42 345 93 l27 22 -7 -580 c-4 -318 -9 -604
-11 -634 -1 -30 -3 -79 -4 -107 -1 -65 -8 -66 -117 -18 -43 20 -95 43 -114 51
-19 9 -62 28 -95 44 -33 15 -71 33 -85 38 -14 6 -50 21 -80 35 -30 13 -71 30
-90 37 -45 17 -102 42 -281 128 -80 38 -160 73 -177 77 -51 11 -41 -21 28 -87
57 -54 216 -168 235 -168 5 0 16 -7 26 -16 16 -15 14 -23 -51 -147 -38 -73
-89 -170 -114 -217 -25 -47 -82 -157 -127 -245 -45 -88 -95 -185 -111 -215
-16 -30 -49 -93 -73 -140 -25 -47 -57 -107 -73 -135 -42 -73 -93 -169 -143
-264 -24 -46 -61 -113 -81 -150 -20 -36 -46 -84 -57 -106 -11 -22 -41 -76 -65
-120 -25 -44 -53 -96 -63 -115 -9 -19 -25 -46 -34 -60 -22 -34 -98 -172 -201
-370 -22 -41 -47 -86 -56 -100 -10 -14 -26 -42 -37 -64 -11 -21 -25 -40 -31
-43 -14 -5 -58 23 -176 115 -87 67 -254 188 -286 207 -10 6 -53 37 -97 71 -44
34 -125 92 -181 130 -104 71 -191 133 -257 181 -20 16 -62 46 -92 68 -30 22
-109 81 -176 130 -67 50 -144 106 -170 125 -27 19 -85 61 -129 93 -98 70 -220
184 -220 204 0 8 13 32 29 52 15 20 34 47 41 61 7 13 26 38 41 55 16 16 29 36
29 42 0 7 9 18 20 25 11 7 20 16 20 20 0 13 100 158 109 158 5 0 31 -9 58 -21
73 -32 91 -32 145 -4 44 23 91 53 318 205 90 60 210 151 210 160 0 7 127 103
337 257 32 24 113 85 181 136 177 136 155 131 248 56 44 -35 92 -76 107 -91
16 -16 38 -28 50 -28 28 0 101 53 309 222 59 49 110 88 114 88 4 0 64 54 134
120 135 127 170 176 170 239 0 37 -9 48 -173 212 -96 96 -247 244 -337 329
-89 85 -167 161 -174 168 -6 7 -19 23 -29 34 -18 18 -19 34 -13 211 3 106 8
329 11 497 10 580 15 825 21 876 l5 51 137 27 c75 15 171 36 212 46 41 10 113
26 160 35 47 9 107 23 134 31 27 8 51 12 54 9 3 -2 12 0 22 5 9 5 61 18 116
29 54 12 164 35 244 52 80 17 156 33 170 36 14 2 34 9 45 14 11 5 45 13 75 18
69 11 275 56 355 77 32 9 77 18 99 21 23 2 43 6 45 9 16 16 21 -10 22 -113z
m-3638 -578 c176 -172 338 -326 516 -491 35 -32 118 -111 185 -174 67 -64 152
-145 191 -180 38 -36 97 -92 130 -125 33 -33 110 -106 170 -163 61 -57 155
-147 210 -200 55 -54 132 -126 170 -161 88 -80 150 -138 400 -378 110 -105
229 -219 265 -253 l65 -61 -25 -17 c-13 -9 -67 -53 -120 -97 -52 -44 -129
-107 -170 -139 -41 -33 -117 -95 -168 -139 l-93 -79 -35 29 c-19 15 -48 38
-65 50 -16 12 -69 57 -117 100 -48 43 -116 103 -152 132 -36 29 -101 88 -146
130 -86 81 -196 178 -224 198 -9 6 -32 26 -51 44 -19 17 -59 52 -89 78 -30 25
-80 68 -110 96 -31 27 -84 75 -119 105 -35 30 -78 69 -95 85 -93 86 -122 112
-155 138 -20 16 -54 45 -76 66 -41 38 -181 162 -223 197 -13 10 -51 45 -85 76
-34 32 -67 58 -74 58 -7 0 -16 6 -20 14 -4 7 -18 18 -30 25 -13 6 -23 17 -23
24 0 7 -15 24 -32 37 -65 48 -193 165 -330 300 l-87 87 40 79 c102 198 149
291 158 314 6 14 35 70 65 125 30 55 73 137 96 183 24 46 46 82 50 80 5 -2 96
-88 203 -193z m3427 169 c91 -9 191 -59 273 -135 89 -81 123 -132 187 -284 34
-81 53 -178 57 -294 5 -110 1 -169 -22 -333 -3 -21 -16 -63 -30 -93 -13 -30
-22 -55 -20 -55 8 0 -37 -83 -79 -145 -70 -105 -170 -201 -262 -251 -49 -26
-153 -57 -212 -61 -75 -7 -203 12 -256 38 -22 10 -43 19 -48 19 -4 0 -29 16
-55 36 -118 90 -216 229 -248 350 -8 30 -17 59 -20 64 -15 24 -43 191 -39 234
1 19 5 71 8 117 7 94 12 128 25 179 5 19 15 55 21 80 25 95 107 243 180 327
31 35 116 106 161 135 77 49 225 92 289 83 14 -2 54 -7 90 -11z m-6385 -234
c114 -35 170 -50 220 -60 28 -6 66 -15 85 -20 19 -4 62 -13 95 -20 33 -7 67
-16 76 -21 9 -4 59 -19 110 -33 98 -26 153 -41 304 -83 50 -13 126 -33 170
-44 44 -11 87 -23 95 -26 8 -4 22 -8 30 -10 8 -1 69 -17 136 -34 l121 -32 17
-71 c9 -39 18 -89 21 -111 3 -22 11 -69 20 -105 8 -36 17 -83 20 -105 3 -22
19 -112 35 -201 36 -191 37 -207 13 -200 -10 3 -45 12 -78 19 -33 8 -94 24
-135 35 -41 11 -124 33 -185 47 -113 28 -227 61 -257 76 -10 5 -31 9 -47 9
-17 0 -33 5 -36 10 -4 6 -12 10 -18 8 -7 -1 -37 6 -67 15 -30 9 -57 16 -60 15
-3 -1 -14 4 -26 10 -11 6 -39 13 -62 16 -23 3 -47 8 -52 11 -10 6 -290 77
-380 96 -49 10 -55 12 -87 23 -18 6 -24 18 -29 57 -4 27 -11 52 -15 55 -5 3
-7 9 -5 13 3 4 0 25 -5 47 -5 21 -18 82 -29 134 -10 52 -26 127 -35 165 -10
39 -18 79 -20 90 -2 11 -11 54 -20 95 -9 41 -19 95 -22 119 -6 42 -5 43 18 36
13 -4 51 -15 84 -25z m8795 -329 c141 -12 249 -29 263 -41 4 -4 -45 -15 -110
-24 -65 -9 -147 -21 -183 -26 -36 -6 -121 -17 -190 -25 -139 -17 -198 -29
-212 -43 -5 -5 -2 -66 7 -153 9 -79 17 -157 19 -174 3 -31 18 -173 36 -330 5
-49 17 -155 26 -235 8 -80 25 -215 36 -300 11 -85 22 -171 24 -190 2 -19 6
-46 9 -60 11 -44 15 -140 6 -140 -12 0 -21 26 -21 61 0 16 -7 46 -15 66 -12
33 -39 143 -76 323 -5 25 -12 56 -15 70 -10 46 -82 544 -89 610 -3 36 -8 79
-11 95 -3 17 -7 50 -9 75 -2 25 -6 59 -9 75 -2 17 -7 68 -11 115 -4 47 -11 91
-15 99 -9 17 -226 75 -417 112 -35 7 -63 16 -63 20 0 6 142 18 205 18 34 -1
340 12 342 14 6 6 361 -3 473 -12z m-5920 -819 c58 -52 132 -120 165 -151 33
-31 85 -77 115 -101 30 -25 96 -81 145 -126 50 -44 105 -94 124 -110 19 -16
55 -48 80 -71 l46 -42 -30 -32 c-17 -18 -78 -83 -136 -144 -58 -60 -170 -177
-248 -260 -79 -82 -147 -151 -151 -153 -9 -3 -102 72 -220 179 -47 42 -100 90
-119 105 -161 136 -236 201 -276 239 -17 17 -53 48 -78 70 -53 45 -57 61 -24
102 12 15 29 38 37 49 39 57 140 186 190 243 55 64 115 138 192 241 47 62 58
71 73 62 5 -3 57 -48 115 -100z m-1206 -188 c20 -24 74 -75 119 -114 45 -38
116 -99 157 -136 41 -36 86 -76 100 -87 117 -100 190 -170 190 -182 0 -8 -18
-18 -42 -24 -24 -5 -61 -15 -83 -21 -22 -6 -62 -15 -90 -20 -27 -6 -70 -15
-95 -20 -25 -6 -61 -13 -80 -15 -19 -3 -62 -12 -95 -20 -33 -8 -96 -21 -140
-29 -44 -9 -129 -27 -190 -41 -60 -14 -164 -37 -230 -50 l-120 -25 -25 29
c-62 71 -126 154 -149 194 -14 24 -33 51 -41 59 -8 9 -33 39 -55 68 -22 29
-52 67 -67 85 -16 18 -28 37 -28 43 0 5 -7 15 -15 22 -19 16 -128 170 -123
175 6 7 218 44 458 81 58 9 128 22 155 30 50 13 97 18 290 30 55 3 106 10 114
14 23 13 47 0 85 -46z m5774 -23 c28 -15 42 -27 38 -36 -3 -8 3 -42 13 -77 18
-58 37 -109 105 -277 14 -36 26 -68 26 -73 0 -10 34 -89 60 -138 10 -19 33
-42 52 -51 18 -9 64 -30 102 -48 37 -18 67 -33 65 -34 -2 -1 -62 0 -133 3
-128 5 -130 5 -137 30 -3 14 -30 84 -58 155 -28 72 -55 139 -60 150 -4 11 -24
54 -43 95 -20 41 -54 118 -77 170 -50 116 -56 205 -12 166 9 -7 35 -23 59 -35z
m-3767 -504 c26 -23 71 -62 99 -87 29 -25 65 -57 79 -71 15 -15 56 -50 91 -79
36 -30 90 -76 120 -104 30 -28 82 -73 115 -101 33 -27 82 -71 109 -96 l50 -47
-33 -28 c-19 -16 -73 -56 -120 -91 -47 -34 -102 -74 -121 -88 -19 -14 -51 -37
-70 -50 -19 -13 -60 -40 -90 -61 -30 -21 -75 -54 -100 -73 -25 -20 -60 -47
-78 -59 l-33 -24 -41 27 c-22 15 -59 44 -82 64 -22 21 -57 48 -76 61 -19 13
-70 54 -113 91 -43 37 -104 87 -135 111 -31 23 -86 67 -122 97 -36 31 -67 57
-69 58 -3 2 22 31 56 66 33 34 93 98 134 142 41 44 126 134 191 200 64 66 128
135 143 153 15 17 32 32 38 32 7 0 33 -19 58 -43z m-1308 -90 c3 -8 54 -55
114 -106 150 -129 340 -291 377 -323 l31 -27 -27 -10 c-14 -5 -71 -31 -125
-56 -54 -26 -123 -58 -153 -72 -30 -15 -66 -34 -80 -43 -14 -10 -70 -38 -125
-63 -55 -25 -142 -65 -193 -90 l-93 -45 -157 130 c-270 223 -372 314 -372 330
0 5 26 20 58 34 72 32 323 158 422 211 84 46 247 128 270 136 27 10 48 7 53
-6z m637 -557 c0 -5 7 -10 15 -10 8 0 15 -4 15 -8 0 -5 48 -47 106 -93 59 -46
137 -109 174 -139 36 -30 98 -80 135 -110 38 -30 84 -69 103 -85 l34 -31 -211
-142 -211 -142 -50 35 c-27 19 -52 35 -54 35 -5 0 -187 115 -226 143 -26 18
-102 71 -232 159 -43 29 -78 55 -77 58 0 5 79 66 184 143 33 24 107 78 164
120 98 73 131 90 131 67z m3065 -243 c61 -30 193 -95 295 -144 l185 -90 85 3
c83 3 224 12 285 19 17 2 93 9 170 15 77 6 153 13 168 16 27 6 28 4 22 -17
-10 -33 -154 -310 -171 -330 -8 -8 -14 -20 -14 -26 0 -6 -33 -70 -72 -143
-131 -237 -177 -324 -204 -380 -15 -30 -32 -62 -39 -70 -7 -8 -43 -73 -80
-145 -104 -198 -136 -259 -145 -270 -4 -5 -33 -58 -64 -116 -31 -59 -100 -187
-155 -285 -98 -177 -99 -179 -137 -185 -119 -21 -189 -31 -223 -35 -21 -2 -59
-8 -83 -13 -24 -6 -94 -15 -154 -21 -166 -15 -186 -18 -224 -24 -42 -7 -95
-14 -170 -21 -30 -3 -62 -8 -70 -10 -8 -3 -42 -7 -75 -11 -33 -3 -63 -8 -66
-10 -6 -3 -133 -19 -238 -30 -25 -2 -87 -11 -138 -19 -51 -8 -98 -15 -104 -15
-12 0 -2 38 16 60 7 8 37 62 66 120 29 58 58 112 65 120 6 8 29 47 50 85 20
39 49 91 63 116 14 26 44 80 65 120 21 41 76 142 121 224 45 83 89 164 97 180
8 17 27 53 42 80 56 105 114 213 168 318 38 74 84 156 99 179 11 14 19 32 19
40 0 8 4 18 9 24 8 8 78 141 253 484 21 41 42 82 47 90 5 8 22 42 37 75 42 87
64 118 77 106 7 -5 62 -34 122 -64z m-3470 -954 c-4 -10 -9 -47 -12 -83 l-5
-65 48 -48 c37 -38 44 -51 33 -58 -8 -5 -20 -9 -27 -9 -19 0 -562 -136 -595
-149 -16 -6 -90 -27 -165 -46 -75 -19 -189 -48 -252 -64 -63 -16 -178 -43
-255 -61 -77 -17 -158 -38 -180 -45 -37 -13 -153 -42 -199 -51 -59 -11 -163
-38 -178 -45 -10 -5 -30 -9 -46 -9 -15 0 -52 -6 -82 -14 -30 -8 -57 -13 -59
-10 -6 6 26 50 78 106 26 29 74 85 107 123 32 39 67 79 77 90 11 11 26 30 34
43 9 12 22 22 29 22 8 0 14 4 14 9 0 6 27 41 60 79 54 62 65 71 103 75 23 2
53 7 67 10 23 5 178 30 365 57 96 14 182 30 230 41 22 5 123 20 225 34 102 13
208 29 237 34 28 6 82 13 120 16 37 3 86 10 108 15 35 8 61 13 114 19 9 1 11
-5 6 -16z m262 -379 c37 -26 80 -56 96 -66 l27 -20 -157 -78 c-87 -43 -212
-103 -278 -135 -142 -67 -141 -67 -180 -87 -16 -9 -57 -28 -90 -43 -33 -15
-134 -64 -225 -108 -260 -126 -263 -127 -277 -127 -7 0 -13 4 -13 9 0 5 -27
29 -59 53 -48 35 -221 174 -329 263 l-24 21 128 33 c342 90 391 103 414 108
14 2 54 13 90 23 78 22 160 44 255 69 39 11 97 27 130 36 153 43 363 93 392
94 22 1 52 -13 100 -45z m481 -366 c106 -71 144 -108 113 -108 -9 0 -126 -117
-400 -400 l-150 -155 -33 16 c-104 51 -224 112 -234 120 -7 6 83 104 258 281
148 150 279 285 291 300 12 15 24 28 27 28 3 0 60 -37 128 -82z m-2053 -27
c22 -20 69 -58 104 -86 35 -27 105 -84 156 -125 51 -41 101 -80 111 -87 19
-12 19 -13 -1 -25 -18 -11 -90 -45 -220 -103 -27 -13 -88 -41 -135 -64 -47
-23 -90 -41 -96 -41 -6 0 -38 21 -71 48 -33 26 -102 79 -153 117 -50 39 -133
103 -184 143 -50 41 -103 81 -118 90 -16 9 -28 19 -28 22 0 6 308 93 445 127
33 8 71 18 85 22 36 12 59 3 105 -38z m2518 -311 c29 -21 63 -47 75 -58 l24
-18 -22 -40 c-12 -21 -58 -96 -101 -166 -44 -70 -79 -131 -79 -136 0 -5 -9
-17 -20 -27 -11 -10 -20 -24 -20 -31 0 -7 -4 -16 -10 -19 -12 -8 -180 71 -180
85 0 5 39 74 86 152 48 79 89 150 93 158 14 34 84 140 93 140 5 0 32 -18 61
-40z m-1250 -302 c12 -7 24 -14 27 -16 2 -2 -1 -6 -7 -10 -6 -4 -57 -50 -113
-102 -100 -93 -214 -179 -236 -180 -6 0 -17 -6 -23 -14 -11 -13 -61 -29 -61
-19 0 17 31 50 102 109 46 38 126 108 178 156 52 49 98 88 103 88 4 0 17 -6
30 -12z m271 -175 c5 -11 -6 -30 -33 -57 -22 -23 -68 -76 -103 -118 -117 -143
-251 -293 -268 -300 -9 -3 -23 -2 -30 2 -10 6 4 29 54 88 36 44 70 82 74 84 4
2 39 39 77 83 39 44 88 100 111 125 23 25 54 60 70 77 33 37 39 39 48 16z
m756 -154 c0 -15 -80 -143 -92 -147 -4 -2 -8 -8 -8 -13 0 -5 -16 -33 -35 -64
-23 -35 -42 -55 -55 -55 -30 0 -34 20 -11 48 11 15 35 47 53 72 57 82 130 170
139 170 5 0 9 -5 9 -11z"/>
<path d="M7032 6395 c-50 -22 -102 -65 -131 -109 -34 -50 -36 -55 -51 -91 -7
-16 -16 -38 -21 -48 -42 -82 -45 -317 -7 -442 35 -111 119 -201 212 -226 57
-15 148 -7 181 17 15 10 35 24 44 29 128 78 203 361 156 590 -41 195 -131 290
-280 293 -43 1 -83 -4 -103 -13z"/>
<path d="M710 3883 c1 -20 68 -74 115 -94 17 -7 63 -27 103 -46 40 -18 75 -33
78 -33 3 0 76 -32 162 -71 86 -39 171 -76 187 -83 17 -7 64 -28 105 -46 41
-18 136 -57 210 -87 74 -29 144 -58 155 -63 109 -50 266 -100 293 -93 l23 6
-32 33 c-18 19 -38 34 -45 34 -6 0 -18 7 -25 16 -7 9 -22 20 -34 25 -11 5 -33
18 -50 29 -16 11 -46 27 -65 36 -37 17 -131 63 -165 81 -24 13 -57 26 -105 43
-19 7 -75 32 -125 55 -168 80 -425 177 -619 236 -146 44 -166 47 -166 22z"/>
<path d="M598 3243 c-10 -2 -18 -9 -18 -14 0 -20 50 -59 107 -85 32 -14 77
-34 100 -45 24 -10 46 -19 49 -19 3 0 39 -15 78 -34 40 -18 83 -37 97 -40 13
-4 34 -11 47 -17 12 -5 32 -13 45 -18 66 -28 207 -71 230 -71 89 0 -52 91
-338 218 -49 22 -106 45 -125 50 -19 6 -57 19 -85 29 -27 11 -71 25 -96 31
-26 6 -53 13 -60 16 -8 2 -22 2 -31 -1z"/>
<path d="M6063 944 c-6 -17 25 -55 60 -72 12 -5 76 -35 142 -66 66 -31 145
-69 175 -85 30 -15 96 -40 145 -56 50 -15 95 -31 100 -35 19 -13 80 -31 122
-36 106 -11 37 45 -207 165 -69 34 -132 66 -141 71 -8 4 -47 20 -85 35 -38 15
-87 35 -109 45 -33 14 -168 50 -190 50 -3 0 -8 -7 -12 -16z"/>
<path d="M5520 665 c-26 -32 13 -61 214 -160 106 -52 199 -95 206 -95 6 0 23
-9 37 -20 14 -11 32 -20 40 -20 8 0 31 -7 51 -16 117 -51 223 -76 236 -56 10
16 -144 122 -250 172 -27 13 -63 34 -81 46 -17 13 -37 24 -43 24 -6 0 -46 16
-88 36 -147 68 -176 79 -237 89 -22 3 -47 8 -56 11 -9 2 -22 -2 -29 -11z"/>
</g>
</svg>
