<?xml version="1.0" encoding="UTF-8" standalone="yes"?>
<svg version="1.0" xmlns="http://www.w3.org/2000/svg" width="1024.000000pt" height="1024.000000pt" viewBox="0 0 1024.000000 1024.000000" preserveAspectRatio="xMidYMid meet">
  <metadata>
Created by potrace 1.16, written by Peter Selinger 2001-2019
</metadata>
  <g transform="translate(0.000000,1024.000000) scale(0.100000,-0.100000)" fill="#000000" stroke="none">
    <path d="M2205 9624 c-11 -2 -51 -12 -90 -20 -169 -39 -297 -146 -360 -301&#xA;l-22 -53 -29 31 c-78 82 -202 95 -292 30 l-30 -21 -12 30 c-18 43 -77 100&#xA;-129 124 -34 15 -66 21 -121 21 -64 0 -82 -4 -121 -27 -90 -53 -136 -145 -126&#xA;-253 l6 -62 -51 -6 c-143 -17 -245 -125 -247 -261 -1 -60 29 -127 69 -156 28&#xA;-20 145 -49 760 -190 460 -106 1370 -317 1505 -350 381 -91 471 -103 591 -75&#xA;135 31 218 128 231 270 17 179 -120 304 -332 305 -33 0 -75 -4 -92 -9 l-33 -9&#xA;7 59 c19 181 -139 277 -366 224 -35 -9 -65 -14 -66 -13 -2 2 1 26 5 53 13 78&#xA;11 184 -5 253 -42 178 -181 329 -354 383 -64 20 -249 34 -296 23z m298 -124&#xA;c77 -29 146 -86 199 -165 83 -122 100 -266 53 -430 -39 -134 -20 -157 86 -102&#xA;150 79 326 68 360 -21 15 -39 6 -119 -20 -174 -37 -76 -11 -104 61 -70 125 60&#xA;280 51 356 -21 114 -106 61 -305 -92 -346 -112 -31 -165 -23 -663 94 -614 143&#xA;-834 195 -1338 310 -253 58 -496 114 -540 125 -44 10 -115 26 -159 35 -97 20&#xA;-110 26 -127 67 -46 112 43 229 175 229 28 0 64 -4 79 -10 40 -16 55 -14 67 9&#xA;8 15 5 30 -15 70 -31 62 -41 126 -26 172 16 49 70 98 121 109 121 27 230 -51&#xA;249 -180 5 -37 10 -47 28 -49 16 -2 28 5 41 28 24 38 75 77 113 85 63 14 156&#xA;-56 201 -150 23 -50 48 -65 76 -47 6 5 16 43 22 87 5 43 21 102 34 131 29 63&#xA;104 146 161 179 128 73 354 89 498 35z"/>
    <path d="M8015 9573 c-291 -36 -549 -242 -701 -558 -131 -275 -134 -535 -8&#xA;-800 140 -297 414 -499 754 -559 314 -55 680 97 850 351 82 122 69 143 -71&#xA;113 -106 -22 -276 -27 -361 -9 -95 20 -210 82 -282 154 -122 122 -185 261&#xA;-194 426 -16 309 136 534 451 669 82 36 90 47 60 89 -22 32 -163 97 -238 110&#xA;-67 12 -214 20 -260 14z m295 -114 c63 -20 91 -39 57 -39 -28 0 -178 -103&#xA;-243 -168 -115 -114 -179 -250 -204 -435 -30 -217 52 -452 214 -612 124 -123&#xA;287 -185 491 -187 61 -1 130 2 154 7 l45 7 -34 -42 c-82 -104 -254 -203 -415&#xA;-240 -122 -29 -297 -24 -415 10 -105 31 -256 111 -336 178 -250 210 -372 550&#xA;-305 849 26 115 96 266 170 364 98 133 267 258 410 304 125 41 290 42 411 4z"/>
    <path d="M4558 9174 l-41 -65 -54 7 c-89 11 -109 -27 -48 -95 l35 -39 -20 -43&#xA;c-42 -93 -16 -123 71 -83 l54 25 35 -41 c57 -66 87 -51 92 44 l3 58 55 22 c49&#xA;20 55 26 58 54 3 29 -1 34 -32 47 -19 8 -44 15 -55 15 -26 0 -41 29 -41 77 0&#xA;21 -7 49 -16 61 -27 39 -51 28 -96 -44z m69 -152 c16 -10 16 -12 -9 -32 -18&#xA;-14 -25 -26 -21 -37 6 -14 2 -14 -20 3 -14 10 -27 27 -27 37 0 9 -4 17 -10 17&#xA;-5 0 -10 5 -10 10 0 6 7 10 15 10 8 0 23 9 32 20 17 20 18 20 25 1 4 -11 15&#xA;-24 25 -29z"/>
    <path d="M6534 9135 c-34 -52 15 -112 71 -87 20 9 25 19 25 46 0 64 -63 91&#xA;-96 41z"/>
    <path d="M9197 8972 c-20 -22 -22 -73 -5 -90 18 -18 63 -14 81 6 20 22 22 73&#xA;5 90 -18 18 -63 14 -81 -6z"/>
    <path d="M6113 8608 c-6 -7 -27 -43 -47 -80 l-38 -68 -72 0 c-110 0 -125 -30&#xA;-51 -109 25 -26 45 -55 45 -63 0 -8 -11 -46 -24 -84 -25 -74 -21 -114 10 -114&#xA;9 0 45 18 80 40 35 22 66 40 69 40 3 0 31 -25 62 -55 56 -55 93 -69 110 -42 4&#xA;6 8 52 8 101 l0 90 59 32 c70 38 85 64 54 94 -12 11 -27 20 -33 20 -6 0 -35 7&#xA;-63 15 -58 18 -71 35 -92 123 -15 63 -52 92 -77 60z m37 -181 c13 -37 21 -44&#xA;63 -56 26 -8 47 -17 47 -20 0 -3 -19 -17 -41 -30 l-42 -23 7 -61 6 -60 -38 41&#xA;c-43 46 -65 51 -102 22 -36 -28 -39 -25 -22 27 l16 47 -39 33 -38 33 51 0 52&#xA;0 26 51 c14 28 28 48 32 44 4 -3 14 -25 22 -48z"/>
    <path d="M863 7935 c-29 -20 -107 -128 -193 -265 l-72 -115 6 -75 c3 -41 14&#xA;-129 25 -195 11 -66 32 -192 46 -280 84 -521 118 -711 128 -722 7 -7 62 -21&#xA;122 -32 187 -33 328 -73 430 -124 185 -91 347 -267 457 -493 29 -58 62 -113&#xA;74 -121 15 -9 61 -16 141 -19 142 -5 258 -24 390 -64 125 -37 182 -62 213 -95&#xA;23 -24 23 -27 11 -78 -7 -28 -23 -86 -37 -127 -24 -75 -23 -118 2 -163 13 -22&#xA;529 -578 696 -749 73 -75 184 -188 245 -252 l113 -115 392 -129 c216 -71 440&#xA;-142 497 -158 86 -24 107 -34 126 -59 25 -32 220 -354 303 -500 29 -49 58 -98&#xA;66 -107 8 -12 52 -26 127 -42 100 -21 117 -27 134 -52 62 -86 81 -100 172&#xA;-124 49 -12 123 -33 166 -47 67 -21 81 -22 104 -11 28 13 32 22 74 177 11 41&#xA;24 82 30 93 12 22 22 18 114 -52 36 -28 75 -50 86 -50 34 0 65 46 127 188 84&#xA;191 83 181 25 228 -119 96 -304 289 -460 480 l-42 50 54 150 c84 235 101 276&#xA;121 288 33 19 481 14 594 -7 127 -24 285 -70 368 -107 82 -38 267 -161 344&#xA;-229 31 -28 64 -51 73 -51 10 0 62 42 115 94 272 260 603 356 1010 289 96 -15&#xA;245 -58 332 -95 66 -28 87 -20 128 49 70 119 221 343 325 483 99 132 157 206&#xA;343 433 53 65 67 91 88 160 30 99 60 248 69 339 7 62 6 67 -16 81 -35 22 -451&#xA;85 -764 116 -60 7 -153 16 -205 21 -331 34 -942 70 -1192 70 -33 0 -48 -10&#xA;-115 -71 -236 -215 -637 -470 -986 -628 -140 -64 -357 -146 -357 -136 0 6 131&#xA;316 186 439 24 55 44 110 44 122 0 32 -77 198 -290 629 -218 440 -240 479&#xA;-279 499 -81 43 -2112 596 -2185 596 -25 0 -54 -35 -195 -235 -197 -278 -231&#xA;-334 -231 -384 0 -33 6 -49 28 -71 l29 -28 -39 -79 c-21 -43 -46 -104 -56&#xA;-136 -22 -70 -18 -73 -124 98 -157 252 -269 475 -287 571 -11 55 -19 63 -151&#xA;139 -257 146 -1558 805 -1591 805 -2 0 -14 -7 -26 -15z m412 -270 c424 -208&#xA;1201 -611 1234 -641 2 -2 -11 -23 -30 -46 -37 -47 -145 -190 -170 -226 -15&#xA;-21 -18 -21 -50 -8 -19 8 -122 62 -229 121 -186 101 -854 438 -1177 594 -84&#xA;40 -153 77 -153 82 0 5 39 68 88 140 110 165 105 159 118 159 6 0 172 -79 369&#xA;-175z m-294 -374 c313 -149 547 -267 904 -456 138 -74 271 -143 296 -155 37&#xA;-18 54 -36 90 -94 24 -39 85 -136 136 -215 87 -135 92 -145 77 -162 -15 -16&#xA;-16 -52 -9 -360 l7 -341 -22 7 c-85 27 -163 46 -231 56 -44 6 -79 15 -79 20 0&#xA;79 -105 891 -120 927 -8 19 -17 22 -62 22 -64 1 -296 25 -303 32 -3 3 -16 76&#xA;-30 163 -14 87 -29 163 -35 169 -6 6 -157 11 -410 12 -221 1 -403 4 -406 7 -3&#xA;3 -21 102 -40 219 -18 117 -36 228 -39 246 -3 17 -4 32 -2 32 3 0 128 -58 278&#xA;-129z m2804 -176 c77 -20 187 -49 245 -65 58 -15 220 -58 360 -95 320 -85 931&#xA;-252 1110 -303 l135 -39 -3 -29 c-2 -16 -32 -117 -67 -224 -35 -107 -76 -234&#xA;-90 -282 -28 -95 -30 -97 -95 -78 -41 12 -196 36 -295 45 -38 3 -137 15 -220&#xA;25 -82 11 -249 29 -369 40 -120 10 -220 21 -223 23 -2 2 6 48 17 102 26 128&#xA;27 175 1 175 -21 0 -35 -35 -70 -175 -45 -184 -41 -205 41 -205 44 0 49 -2 43&#xA;-17 -46 -112 -64 -245 -45 -338 18 -93 82 -216 142 -275 176 -173 434 -217&#xA;651 -112 31 16 57 27 57 26 0 -1 -58 -150 -129 -331 -71 -180 -146 -385 -167&#xA;-455 -21 -71 -42 -128 -48 -128 -34 0 -566 138 -816 211 -406 120 -1248 397&#xA;-1276 420 -17 14 -4 60 77 282 39 105 88 242 109 302 21 61 63 172 93 247 49&#xA;125 67 154 67 109 0 -35 69 -158 114 -204 104 -107 290 -143 476 -91 73 21&#xA;138 64 200 131 53 57 123 190 135 255 5 27 13 38 28 40 29 4 57 57 118 226 52&#xA;145 54 168 14 160 -20 -3 -118 -170 -137 -230 l-11 -36 -86 51 c-47 28 -163&#xA;96 -256 152 -94 56 -231 135 -305 175 -74 40 -137 74 -139 76 -7 6 53 98 199&#xA;302 l150 210 62 -18 c35 -10 126 -34 203 -55z m-1135 -385 c32 -63 66 -129 76&#xA;-146 l18 -31 -89 -122 c-49 -66 -92 -121 -96 -121 -4 0 -54 79 -113 176 l-106&#xA;176 82 107 c44 58 93 119 107 134 l26 28 19 -43 c11 -24 45 -95 76 -158z&#xA;m-1470 119 l369 0 6 -37 c44 -274 50 -301 78 -306 35 -8 248 -26 300 -26 26 0&#xA;47 -4 47 -9 0 -6 11 -85 25 -178 13 -92 36 -269 50 -393 14 -124 27 -244 31&#xA;-267 l5 -43 -78 0 -79 0 -35 72 c-44 94 -153 256 -223 335 -164 181 -403 294&#xA;-726 344 l-76 12 -37 226 c-21 124 -41 239 -44 255 -3 20 -2 26 6 21 6 -3 178&#xA;-6 381 -6z m4649 -581 c71 -145 179 -366 240 -491 96 -197 111 -233 103 -255&#xA;-8 -25 -16 -13 -95 145 -47 94 -108 213 -134 265 -27 51 -61 121 -76 156 -47&#xA;104 -56 94 -127 -128 -34 -105 -83 -250 -111 -321 -27 -72 -49 -144 -49 -160&#xA;0 -21 26 -65 91 -154 50 -69 96 -125 104 -125 20 0 30 19 58 105 36 109 151&#xA;405 157 404 3 0 35 -62 73 -137 l67 -137 -90 -225 c-49 -124 -90 -230 -90&#xA;-237 0 -17 -5 -19 -115 -41 -144 -29 -220 -38 -210 -23 11 18 -3 61 -20 61&#xA;-16 0 -54 -71 -129 -238 l-46 -102 78 -153 c43 -83 92 -183 109 -221 l30 -69&#xA;-70 -141 c-38 -78 -71 -143 -74 -146 -5 -5 -67 62 -104 112 l-19 26 60 118 61&#xA;117 -36 51 c-19 28 -79 97 -131 154 -76 82 -95 107 -91 125 3 12 51 140 106&#xA;284 56 144 101 272 101 283 0 43 -43 34 -64 -14 -3 -6 -45 31 -94 82 l-89 94&#xA;18 49 c11 27 39 86 63 132 56 102 93 212 102 300 l7 67 34 0 c23 0 41 8 57 25&#xA;22 23 66 151 101 295 37 148 98 330 112 330 2 0 62 -118 132 -262z m-2434 151&#xA;c210 -107 389 -204 446 -241 l46 -31 -9 -51 c-15 -83 -73 -191 -137 -255 -85&#xA;-85 -132 -104 -268 -109 -127 -5 -183 8 -253 59 -51 37 -114 133 -130 199 -28&#xA;116 -13 203 66 381 46 103 60 129 73 129 4 0 79 -36 166 -81z m-480 -133 l76&#xA;-110 -57 -142 -57 -142 -56 61 c-65 70 -169 200 -200 251 l-23 36 35 42 c18&#xA;24 60 80 92 126 l57 84 28 -49 c15 -26 62 -97 105 -157z m-264 -266 c42 -52&#xA;103 -120 136 -151 l59 -56 -74 -204 c-41 -112 -76 -206 -78 -208 -2 -2 -20 11&#xA;-40 29 -21 18 -52 38 -69 46 l-32 13 -7 108 c-3 59 -9 200 -12 313 -2 113 -7&#xA;221 -9 240 l-4 35 27 -35 c15 -19 61 -77 103 -130z m3244 -101 l66 -131 -50&#xA;-113 c-42 -94 -101 -237 -142 -344 -9 -22 -13 -18 -67 59 l-57 83 72 216 c40&#xA;119 80 249 89 289 10 39 19 72 21 72 1 0 32 -59 68 -131z m-1354 81 c79 -11&#xA;232 -33 339 -49 107 -16 229 -35 270 -41 41 -6 90 -13 109 -16 l33 -5 -6 -80&#xA;c-24 -264 -142 -424 -359 -480 -176 -47 -352 4 -476 137 -116 123 -153 276&#xA;-110 446 14 53 38 108 48 108 4 0 73 -9 152 -20z m3224 -280 c278 -13 455 -25&#xA;825 -56 349 -29 384 -33 733 -81 l269 -36 -7 -46 c-3 -25 -16 -84 -29 -131&#xA;-13 -47 -29 -106 -36 -132 -12 -47 -14 -48 -50 -48 -21 0 -136 13 -257 30&#xA;-549 74 -1457 160 -1690 160 -74 0 -93 3 -93 14 0 23 58 315 65 326 8 12 0 12&#xA;270 0z m-376 -98 c-6 -17 -21 -89 -33 -161 l-22 -131 -110 -85 c-103 -81 -307&#xA;-225 -317 -225 -5 0 25 110 71 257 l28 93 84 56 c97 65 272 198 291 220 17 21&#xA;21 12 8 -24z m-505 -432 c-20 -63 -38 -137 -41 -164 l-6 -49 -121 -57 c-236&#xA;-111 -582 -207 -866 -239 -126 -14 -320 -24 -320 -17 0 4 15 41 34 82 33 71&#xA;36 74 69 74 109 0 383 65 576 136 118 44 529 244 630 307 41 26 76 45 77 44 1&#xA;-1 -13 -54 -32 -117z m756 90 c107 -5 247 -15 310 -20 63 -5 198 -17 300 -25&#xA;202 -17 719 -71 815 -84 356 -50 375 -54 362 -72 -52 -72 -234 -298 -241 -298&#xA;-4 -1 -211 80 -458 179 -248 99 -461 180 -475 180 -22 0 -33 -17 -99 -155 -41&#xA;-86 -74 -160 -74 -165 0 -16 -11 -13 -187 56 -300 118 -319 124 -336 111 -26&#xA;-20 -353 -559 -478 -787 -39 -72 -74 -130 -78 -128 -3 2 -42 22 -86 44 -44 22&#xA;-108 51 -142 64 l-63 22 5 37 c7 47 42 412 51 522 l7 87 60 28 c136 64 344&#xA;211 496 348 53 49 90 75 100 72 9 -3 104 -10 211 -16z m-2323 -159 l39 -44&#xA;-120 -301 c-65 -166 -120 -302 -121 -304 -5 -6 -175 163 -175 174 0 7 38 109&#xA;83 226 46 117 100 257 121 310 l37 97 49 -57 c27 -31 66 -77 87 -101z m3457&#xA;-251 c201 -80 365 -149 366 -153 0 -5 -26 -43 -58 -85 -81 -106 -197 -278&#xA;-266 -394 l-58 -97 -66 26 c-100 39 -269 80 -388 94 -377 44 -755 -80 -998&#xA;-330 l-49 -50 -86 66 c-47 37 -92 72 -99 78 -11 10 0 37 64 146 107 184 435&#xA;732 444 743 5 4 115 -33 245 -83 130 -50 247 -91 260 -91 29 0 37 13 114 185&#xA;35 77 65 143 67 147 3 4 35 -8 74 -25 38 -18 233 -98 434 -177z m-5769 -45&#xA;c116 -40 219 -75 230 -79 17 -5 243 -279 253 -306 2 -5 -80 13 -181 39 l-185&#xA;48 -68 74 c-38 41 -120 128 -184 193 -63 65 -106 116 -95 112 11 -4 115 -40&#xA;230 -81z m3700 -92 c-3 -49 -10 -122 -15 -163 -5 -41 -12 -102 -15 -135 -12&#xA;-128 -27 -225 -35 -220 -13 8 -190 43 -250 49 -221 22 -396 16 -590 -21 -69&#xA;-13 -85 -14 -88 -3 -3 8 -40 85 -83 172 -44 88 -79 160 -79 162 0 2 42 6 93&#xA;10 397 28 792 111 1012 212 28 12 52 23 53 23 2 1 1 -38 -3 -86z m-3040 -121&#xA;c165 -50 354 -106 420 -125 l120 -33 116 -169 116 -170 104 -36 c57 -20 201&#xA;-67 320 -105 l215 -68 130 -169 c71 -93 130 -173 132 -177 2 -4 -73 12 -165&#xA;36 -92 24 -180 44 -194 44 -37 0 -44 -25 -11 -40 36 -17 259 -83 352 -105 67&#xA;-16 78 -22 102 -56 15 -22 24 -39 18 -39 -43 0 -391 98 -870 245 -459 141&#xA;-478 148 -527 197 -50 49 -54 60 -15 48 15 -5 151 -49 302 -98 470 -153 497&#xA;-159 488 -115 -2 13 -32 27 -108 51 -58 18 -244 78 -415 132 -170 55 -322 102&#xA;-338 106 -30 7 -95 80 -308 344 -172 213 -315 404 -298 398 8 -3 149 -46 314&#xA;-96z m1461 -232 c9 0 27 26 46 68 16 37 32 69 35 72 3 3 19 -11 36 -31 18 -20&#xA;65 -74 105 -118 57 -65 72 -87 66 -103 -14 -44 -187 -408 -194 -408 -4 0 -26&#xA;24 -48 53 -22 28 -77 102 -124 162 -46 61 -112 149 -146 197 l-63 87 37 111&#xA;38 112 98 -101 c54 -56 105 -101 114 -101z m-1722 15 c82 -18 152 -37 156 -42&#xA;4 -4 56 -69 115 -143 60 -74 156 -191 213 -259 57 -68 98 -121 91 -118 -8 3&#xA;-72 24 -144 47 l-130 42 -80 81 c-279 285 -425 436 -425 441 0 3 12 1 28 -5&#xA;15 -6 94 -26 176 -44z m1129 -26 l242 -62 116 -156 c65 -86 116 -157 115 -159&#xA;-3 -3 -290 84 -433 131 l-102 34 -68 94 c-85 117 -125 179 -117 179 3 0 114&#xA;-28 247 -61z m1230 -251 c-22 -58 -26 -61 -18 -13 9 46 13 55 26 55 5 0 1 -19&#xA;-8 -42z m-108 -174 l17 -46 -42 -132 c-23 -72 -51 -160 -61 -196 -10 -36 -24&#xA;-80 -32 -98 l-14 -34 -58 84 c-32 45 -92 127 -132 180 l-73 98 45 90 45 90 63&#xA;-77 c99 -122 108 -122 169 2 23 47 45 85 49 85 3 0 14 -21 24 -46z m162 -470&#xA;c100 -117 203 -222 296 -299 46 -40 47 -41 35 -73 -7 -18 -15 -31 -18 -30 -17&#xA;8 -336 361 -425 471 -36 44 -45 62 -39 79 l7 22 21 -26 c11 -14 67 -79 123&#xA;-144z m-15 -119 c80 -93 182 -210 225 -260 l80 -90 -28 -63 -29 -64 -90 84&#xA;c-50 46 -148 150 -218 231 -183 214 -167 190 -149 218 8 13 22 48 32 77 9 30&#xA;20 50 24 45 4 -4 73 -84 153 -178z m-842 86 c91 -27 189 -55 218 -62 l52 -13&#xA;119 -180 c113 -174 266 -422 277 -450 4 -11 -18 -8 -96 11 l-101 26 -47 61&#xA;c-26 33 -100 133 -165 221 -64 87 -124 163 -132 168 -16 9 -35 2 -35 -13 0 -5&#xA;41 -70 91 -145 49 -76 89 -138 87 -139 -2 -1 -31 4 -65 12 l-62 13 -82 142&#xA;c-80 138 -186 313 -223 370 -10 15 -14 27 -9 27 5 0 83 -22 173 -49z m491&#xA;-123 c62 -11 70 -10 89 7 25 22 9 39 180 -182 l111 -142 -26 -38 c-14 -21 -37&#xA;-76 -52 -123 -24 -78 -43 -120 -43 -94 0 18 -140 248 -306 501 -59 89 -63 98&#xA;-37 89 9 -4 47 -12 84 -18z"/>
    <path d="M4411 6783 c-35 -42 -94 -176 -89 -201 2 -9 12 -17 23 -17 16 0 33&#xA;26 76 115 31 63 54 121 51 128 -8 22 -30 13 -61 -25z"/>
    <path d="M3225 5430 c-15 -6 -36 -52 -78 -169 -33 -89 -57 -167 -54 -174 7&#xA;-19 368 -138 782 -258 193 -55 393 -114 445 -129 99 -29 114 -29 125 -2 26 63&#xA;105 299 105 313 0 10 -11 26 -25 37 -44 35 -268 121 -462 176 -103 30 -231 69&#xA;-283 86 -109 35 -488 130 -516 129 -10 0 -28 -4 -39 -9z m200 -87 c39 -9 71&#xA;-18 73 -19 1 -1 -26 -47 -60 -103 -72 -115 -63 -120 -102 47 l-24 104 21 -6&#xA;c12 -3 54 -13 92 -23z m873 -257 c45 -15 82 -32 82 -36 0 -11 -87 -115 -123&#xA;-149 -32 -29 -33 -27 -46 84 -6 44 -13 96 -17 115 -6 29 -5 33 7 24 8 -6 51&#xA;-24 97 -38z"/>
    <path d="M3601 6184 c-57 -47 -80 -187 -40 -238 69 -88 204 72 169 202 -17 66&#xA;-74 82 -129 36z"/>
    <path d="M4905 5837 c-37 -37 -65 -116 -65 -185 0 -35 6 -49 30 -73 31 -32 60&#xA;-32 107 -3 28 18 70 99 79 152 19 117 -75 185 -151 109z"/>
    <path d="M2591 7711 c-25 -25 -27 -49 -5 -79 38 -55 121 0 98 65 -12 37 -63&#xA;44 -93 14z"/>
    <path d="M5095 7686 c-13 -19 -14 -29 -5 -45 20 -39 80 -21 80 24 0 47 -49 60&#xA;-75 21z"/>
    <path d="M7080 7051 c-5 -11 -15 -42 -21 -70 l-11 -51 -58 0 c-61 0 -85 -14&#xA;-78 -47 3 -14 56 -53 90 -65 4 -2 -2 -29 -13 -60 -12 -31 -19 -64 -16 -73 10&#xA;-25 46 -17 94 22 37 30 48 35 61 25 42 -30 75 -43 92 -37 25 8 25 28 0 82&#xA;l-19 42 50 36 c29 20 49 43 49 54 0 25 -51 45 -94 38 -32 -5 -34 -3 -40 26 -8&#xA;43 -42 97 -61 97 -8 0 -19 -9 -25 -19z"/>
    <path d="M9030 6860 c-43 -43 -10 -110 53 -110 20 0 41 8 50 18 22 25 21 75&#xA;-1 95 -25 23 -78 21 -102 -3z"/>
    <path d="M8040 6300 c-37 -37 -17 -100 31 -100 25 0 69 43 69 68 0 25 -31 52&#xA;-58 52 -12 0 -31 -9 -42 -20z"/>
    <path d="M1015 5555 c-34 -33 -33 -77 1 -104 15 -12 32 -21 39 -21 21 0 54 33&#xA;61 62 5 22 0 33 -24 58 -37 36 -46 37 -77 5z"/>
    <path d="M1356 4828 c-8 -13 -26 -49 -40 -80 l-26 -58 -66 0 c-120 0 -137 -36&#xA;-52 -111 l51 -46 -25 -81 c-21 -66 -23 -85 -14 -104 18 -36 43 -33 118 17 l70&#xA;47 32 -29 c54 -51 88 -73 112 -73 33 0 40 37 25 128 -7 41 -11 75 -9 76 2 2&#xA;24 15 50 30 63 37 74 51 60 81 -9 19 -24 26 -71 36 -34 6 -68 17 -76 23 -9 6&#xA;-23 38 -31 71 -9 33 -23 68 -31 78 -22 24 -60 21 -77 -5z m49 -134 c12 -65 25&#xA;-84 59 -84 17 0 37 -4 45 -9 12 -8 7 -14 -22 -31 -40 -24 -46 -45 -28 -108 11&#xA;-39 8 -39 -31 -7 -36 31 -66 32 -112 4 -40 -23 -46 -13 -21 31 21 37 18 52&#xA;-15 88 -16 18 -30 35 -30 38 0 2 18 4 39 4 47 0 66 17 82 70 15 50 25 51 34 4z"/>
    <path d="M658 3955 c-9 -19 -8 -29 6 -50 18 -27 36 -31 65 -15 25 13 32 35 21&#xA;65 -8 20 -16 25 -45 25 -28 0 -38 -5 -47 -25z"/>
    <path d="M2591 3796 c-7 -8 -11 -30 -9 -48 2 -26 9 -35 32 -43 24 -8 31 -6 47&#xA;14 10 13 19 34 19 47 0 39 -64 60 -89 30z"/>
    <path d="M9089 3425 c-37 -59 -43 -64 -70 -60 -16 3 -42 7 -58 9 -59 10 -69&#xA;-43 -16 -94 19 -19 35 -39 35 -46 0 -6 -11 -37 -25 -69 -38 -85 -11 -107 80&#xA;-63 l45 22 43 -42 c72 -71 107 -50 94 57 l-6 47 55 27 c85 42 85 81 0 103 -64&#xA;17 -72 26 -79 90 -11 104 -41 110 -98 19z m43 -122 c2 -20 9 -29 26 -31 27 -4&#xA;28 -13 2 -30 -11 -7 -20 -21 -20 -32 0 -23 -8 -25 -34 -5 -13 10 -24 11 -37 4&#xA;-17 -9 -18 -7 -8 14 8 18 8 30 0 46 -10 18 -9 21 9 21 11 0 25 9 32 20 17 27&#xA;26 25 30 -7z"/>
    <path d="M1645 3410 c-180 -29 -327 -121 -424 -266 -62 -92 -101 -208 -101&#xA;-300 0 -36 -3 -64 -7 -62 -98 50 -109 53 -198 52 -111 0 -175 -23 -259 -91&#xA;-67 -55 -128 -148 -146 -225 -26 -105 21 -203 119 -253 63 -31 470 -143 1656&#xA;-455 1102 -290 1105 -290 1206 -255 72 26 108 61 148 144 32 69 36 84 35 157&#xA;0 99 -23 152 -95 219 -127 119 -338 165 -507 111 -21 -7 -23 -6 -17 14 4 12 7&#xA;56 7 97 -1 60 -6 86 -27 128 -79 162 -296 235 -502 170 -43 -13 -87 -31 -98&#xA;-39 -32 -25 -34 -19 -13 47 28 83 34 266 12 357 -35 149 -154 293 -304 368&#xA;-145 72 -338 105 -485 82z m282 -95 c101 -23 222 -86 293 -151 173 -160 198&#xA;-428 66 -707 -50 -106 -12 -127 81 -46 130 114 286 156 429 114 149 -43 226&#xA;-186 176 -325 -11 -30 -26 -70 -33 -87 -12 -29 -11 -35 3 -50 16 -15 22 -14&#xA;96 20 158 74 342 55 469 -49 91 -74 114 -190 61 -305 -37 -81 -90 -114 -178&#xA;-110 -91 3 -2622 672 -2718 718 -72 34 -95 71 -88 141 9 96 86 196 192 248 49&#xA;24 72 29 134 29 91 0 144 -23 224 -96 58 -53 67 -57 86 -34 9 11 9 28 -4 78&#xA;-53 210 36 425 227 548 128 83 302 106 484 64z"/>
    <path d="M7262 2898 c-17 -17 -15 -53 3 -68 20 -17 62 -5 70 20 14 44 -41 80&#xA;-73 48z"/>
    <path d="M3827 2872 c-22 -24 -21 -55 1 -75 38 -35 102 -8 102 43 0 48 -70 69&#xA;-103 32z"/>
    <path d="M7977 2391 c-296 -65 -529 -288 -627 -601 l-27 -85 -27 44 c-80 127&#xA;-233 211 -381 211 -123 -1 -300 -66 -391 -144 -77 -66 -135 -171 -147 -266 -3&#xA;-25 -6 -47 -6 -49 -1 -2 -7 1 -13 7 -25 20 -123 42 -187 42 -161 0 -293 -74&#xA;-350 -195 -47 -99 -38 -177 25 -216 19 -11 112 -39 207 -60 214 -50 1300 -293&#xA;1422 -319 50 -11 140 -31 200 -45 61 -14 290 -66 510 -116 972 -219 994 -223&#xA;1103 -213 238 22 432 192 434 382 1 151 -111 262 -263 262 -45 0 -50 2 -44 18&#xA;38 91 45 189 19 266 -34 98 -153 193 -273 216 -109 20 -244 3 -343 -45 -27&#xA;-13 -48 -22 -48 -21 0 1 13 40 29 86 115 331 22 595 -271 763 -25 15 -88 41&#xA;-139 58 -124 41 -279 49 -412 20z m353 -86 c179 -46 323 -161 399 -318 32 -66&#xA;47 -191 32 -278 -15 -92 -51 -193 -101 -287 -43 -78 -47 -108 -18 -126 14 -8&#xA;26 -4 60 22 148 113 206 135 353 136 99 1 116 -2 165 -25 103 -49 156 -125&#xA;154 -224 -1 -64 -28 -129 -86 -211 -44 -62 -13 -103 53 -68 18 9 58 19 90 21&#xA;79 8 160 -30 189 -87 26 -52 26 -131 0 -186 -29 -59 -108 -129 -188 -167 -64&#xA;-31 -72 -32 -192 -32 -101 0 -147 5 -240 27 -63 15 -200 45 -305 68 -104 22&#xA;-287 63 -405 90 -118 27 -336 76 -485 110 -148 33 -340 76 -425 95 -85 20&#xA;-346 78 -580 130 -600 133 -902 204 -917 217 -30 24 -4 110 50 166 79 83 229&#xA;116 346 77 26 -8 71 -36 100 -60 29 -25 56 -45 60 -45 4 0 16 9 25 19 17 19&#xA;17 22 1 72 -52 156 73 339 282 410 52 18 90 24 164 24 90 0 99 -2 171 -38 49&#xA;-24 90 -53 113 -79 40 -48 90 -148 104 -209 22 -96 75 -84 86 20 23 216 98&#xA;389 228 527 122 131 261 200 462 228 54 8 192 -3 255 -19z"/>
    <path d="M9352 2287 c-40 -43 -22 -97 33 -97 56 0 87 67 47 103 -26 23 -55 21&#xA;-80 -6z"/>
    <path d="M4762 1856 c-15 -24 -35 -59 -45 -76 -17 -32 -18 -33 -76 -27 -96 10&#xA;-109 -28 -32 -93 l49 -42 -23 -66 c-36 -103 -10 -128 75 -72 25 16 49 30 55&#xA;30 5 0 30 -21 56 -46 41 -41 49 -45 68 -35 20 11 21 17 15 89 l-6 77 53 25&#xA;c44 20 54 30 54 50 0 21 -8 28 -60 46 -66 24 -68 26 -91 107 -13 50 -34 77&#xA;-59 77 -3 0 -18 -20 -33 -44z m97 -182 l35 -11 -25 -13 c-32 -17 -39 -29 -39&#xA;-69 l0 -34 -23 21 c-28 26 -45 27 -77 5 -23 -16 -23 -16 -15 3 19 45 17 71 -6&#xA;88 l-23 16 32 0 c26 0 35 5 43 28 34 85 30 82 48 27 14 -42 21 -52 50 -61z"/>
    <path d="M1236 1408 c-49 -69 31 -145 92 -88 44 41 16 110 -43 110 -24 0 -39&#xA;-7 -49 -22z"/>
    <path d="M2516 1181 c-10 -11 -24 -37 -31 -58 l-13 -38 -65 3 c-59 3 -66 2&#xA;-72 -18 -8 -25 6 -44 57 -76 l37 -24 -24 -52 c-47 -102 -25 -132 56 -76 l50&#xA;35 39 -39 c65 -65 99 -33 66 61 l-14 42 54 26 c97 46 94 86 -5 98 l-58 7 -6&#xA;50 c-9 76 -36 98 -71 59z"/>
    <path d="M4033 870 c-55 -33 -42 -100 19 -100 57 0 90 74 46 104 -28 20 -26&#xA;20 -65 -4z"/>
  </g>
  <title>Phantom</title>
  <desc>Phantom</desc>
</svg>