<?xml version="1.0" standalone="no"?>
<!DOCTYPE svg PUBLIC "-//W3C//DTD SVG 20010904//EN"
 "http://www.w3.org/TR/2001/REC-SVG-20010904/DTD/svg10.dtd">
<svg version="1.0" xmlns="http://www.w3.org/2000/svg"
 width="1024.000000pt" height="1024.000000pt" viewBox="0 0 1024.000000 1024.000000"
 preserveAspectRatio="xMidYMid meet">
<metadata>
Created by potrace 1.16, written by Peter Selinger 2001-2019
</metadata>
<g transform="translate(0.000000,1024.000000) scale(0.100000,-0.100000)"
fill="#000000" stroke="none">
<path d="M6680 9654 c-920 -40 -2015 -126 -2725 -215 -566 -70 -623 -81 -683
-125 -59 -45 -60 -52 -68 -385 -4 -185 -11 -309 -17 -317 -6 -7 -27 -20 -46
-28 -74 -31 -171 -150 -374 -459 -121 -186 -332 -532 -358 -590 -23 -49 -24
-123 -4 -172 35 -83 172 -222 313 -316 93 -63 208 -117 247 -117 19 0 74 16
122 35 48 19 88 35 90 35 2 0 3 -182 3 -405 0 -460 3 -491 59 -547 46 -45 78
-54 261 -68 80 -6 156 -13 169 -16 19 -4 -8 -26 -165 -133 -104 -70 -236 -161
-294 -203 l-104 -76 -26 18 c-55 39 -248 220 -306 286 -111 127 -104 110 -104
255 0 159 -10 210 -65 324 -64 133 -211 350 -303 447 l-36 38 -13 217 c-22
379 -33 514 -44 534 -14 28 -27 32 -333 103 -320 76 -364 82 -441 66 -48 -10
-390 -141 -602 -230 -85 -36 -88 -50 -69 -288 53 -639 51 -626 97 -649 13 -7
161 -53 329 -103 353 -106 344 -105 515 -41 60 23 111 41 115 41 3 0 12 -17
19 -37 7 -21 33 -71 57 -111 24 -40 44 -79 44 -86 0 -7 -27 -36 -59 -64 l-59
-52 -54 35 c-29 20 -111 59 -183 87 -201 80 -261 74 -397 -39 -54 -44 -143
-151 -181 -216 -30 -51 -57 -144 -57 -197 0 -122 66 -213 289 -402 286 -241
444 -338 627 -383 54 -13 103 -30 109 -37 7 -7 48 -54 92 -103 87 -98 279
-274 438 -402 201 -161 343 -241 467 -264 169 -31 327 43 723 341 l145 109 0
-37 c0 -20 -4 -75 -10 -122 -18 -160 -60 -785 -70 -1040 -6 -140 -17 -355 -25
-478 -22 -313 -21 -359 3 -391 22 -30 70 -50 127 -51 72 -1 72 6 26 -236 -23
-121 -46 -239 -51 -264 -6 -25 -28 -146 -50 -270 -23 -124 -59 -322 -80 -440
-67 -366 -80 -458 -70 -485 21 -55 38 -59 580 -141 252 -38 391 -55 425 -51
30 3 133 39 260 91 242 99 275 123 275 199 0 55 44 846 66 1172 16 247 22 285
48 285 22 0 95 58 111 89 8 17 15 46 15 66 0 23 5 38 16 42 20 7 256 -16 267
-26 5 -5 13 -55 19 -112 15 -150 25 -180 70 -202 20 -10 65 -21 100 -25 l63
-7 6 -100 c4 -55 12 -221 19 -370 6 -148 20 -441 31 -650 10 -209 19 -394 19
-412 0 -42 41 -90 88 -103 48 -13 836 -101 927 -103 60 -2 79 2 123 25 87 45
338 214 356 239 20 29 20 80 1 207 -20 133 -149 1059 -175 1260 -12 89 -19
173 -16 186 4 18 21 28 76 47 39 13 83 34 98 46 l27 21 -2 164 -2 163 82 42
c218 113 445 339 733 733 193 264 342 528 396 700 19 61 23 97 22 190 0 105
-3 123 -33 202 -95 254 -405 691 -834 1178 -42 47 -72 88 -69 91 4 4 48 14 97
24 159 30 249 54 275 73 14 10 34 36 45 58 18 36 20 68 26 367 4 180 9 330 12
333 3 4 26 -25 50 -62 51 -80 73 -101 115 -113 72 -21 340 54 549 154 253 121
383 236 383 339 0 108 -352 628 -728 1074 -75 90 -152 182 -169 204 l-33 40 0
214 c0 237 -5 261 -59 306 -64 55 -652 347 -1001 498 -229 100 -198 96 -710
74z m408 -142 c18 -18 19 -62 25 -832 11 -1360 9 -2511 -6 -2540 -21 -43 -70
-58 -247 -74 -818 -75 -2233 -68 -3190 14 -129 11 -249 22 -267 25 -36 6 -88
60 -100 103 -10 34 -10 673 0 1412 4 316 10 784 13 1040 3 258 10 479 16 497
12 41 54 71 121 89 94 24 755 104 1237 149 615 57 1346 107 1780 122 102 3
187 7 189 9 2 2 96 4 208 4 184 0 205 -2 221 -18z m337 -84 c188 -82 850 -415
886 -445 l29 -25 0 -134 c0 -74 -3 -134 -6 -134 -4 0 -29 21 -56 46 -91 85
-101 87 -407 80 -146 -4 -278 -12 -292 -17 -15 -6 -31 -22 -38 -35 -14 -31
-15 -335 -1 -383 5 -19 42 -89 82 -155 l73 -121 3 -350 c2 -192 8 -358 13
-367 10 -19 34 -24 43 -9 3 5 13 94 22 197 9 104 19 195 23 201 8 16 227 -530
275 -687 75 -243 79 -270 77 -534 -1 -135 -6 -247 -12 -257 -16 -30 -56 -45
-209 -78 -146 -31 -508 -94 -610 -106 -49 -6 -58 -4 -75 15 -19 21 -20 42 -21
883 0 474 -2 1223 -3 1664 -1 442 1 808 4 814 10 16 43 5 200 -63z m726 -737
c55 -36 79 -62 277 -293 415 -490 822 -1058 822 -1150 0 -36 -30 -70 -109
-123 -145 -96 -363 -187 -545 -226 -88 -20 -90 -20 -115 -1 -47 35 -171 268
-435 816 -79 163 -192 367 -289 521 -114 181 -111 173 -115 318 -3 89 0 133 7
140 8 8 76 14 189 18 97 3 197 6 223 7 35 2 55 -5 90 -27z m-4961 -253 c0 -13
3 -212 7 -443 l6 -420 -43 -50 c-82 -95 -201 -303 -232 -407 -6 -21 -17 -38
-23 -38 -26 0 -196 121 -270 191 -94 89 -130 146 -122 194 7 45 175 322 390
645 112 167 167 241 226 303 51 53 61 57 61 25z m-1445 -753 c121 -25 235 -48
253 -52 17 -3 32 -9 32 -13 0 -9 -326 -158 -427 -196 -35 -13 -77 -24 -94 -24
-30 0 -505 112 -542 128 -28 11 453 200 513 201 25 1 144 -19 265 -44z m379
-235 c5 -74 21 -402 21 -439 0 -8 -29 -22 -75 -35 -42 -12 -92 -32 -112 -44
-55 -34 -113 -103 -132 -158 -32 -92 -34 -94 -134 -131 -52 -19 -97 -31 -102
-27 -10 11 -35 652 -27 685 6 22 41 41 269 141 195 85 266 112 275 104 6 -6
14 -49 17 -96z m-958 -54 c148 -35 277 -67 287 -71 9 -4 19 -17 22 -29 8 -38
28 -654 22 -670 -4 -9 -15 -16 -25 -16 -9 0 -130 34 -267 75 -250 75 -285 91
-285 133 0 8 -12 150 -26 315 -24 288 -25 327 -6 327 5 0 130 -29 278 -64z
m2014 -152 l0 -115 -76 -35 c-42 -19 -79 -32 -82 -30 -14 15 127 296 150 296
4 0 8 -52 8 -116z m-953 -449 c73 -76 232 -309 279 -410 42 -87 55 -170 52
-322 -2 -84 1 -125 11 -142 44 -78 376 -403 469 -458 62 -37 90 -28 236 77 69
50 135 90 146 90 61 0 175 -82 251 -180 91 -116 151 -274 162 -421 6 -82 -10
-130 -60 -175 -107 -96 -407 -308 -533 -377 -202 -110 -352 -66 -690 202 -216
171 -366 316 -469 453 -45 60 -57 68 -101 68 -40 0 -193 46 -253 76 -78 40
-253 162 -318 222 -123 114 -138 235 -51 407 46 90 182 229 263 268 47 24 60
26 85 17 78 -30 154 -128 154 -199 0 -36 -10 -54 -90 -161 -110 -146 -139
-220 -86 -220 36 0 76 39 144 137 119 175 136 232 102 331 l-22 64 81 76 c101
95 102 105 30 223 -94 154 -110 217 -73 294 31 67 116 124 184 125 30 0 43 -9
97 -65z m-722 -539 l40 -17 -31 -27 c-18 -15 -57 -48 -87 -74 -65 -56 -146
-173 -177 -255 -12 -32 -27 -93 -33 -135 l-11 -78 -44 42 c-128 125 -128 244
-2 402 60 76 121 133 164 152 39 18 127 13 181 -10z m6181 -242 c45 -22 203
-188 331 -348 l104 -131 -76 -7 c-151 -14 -341 -77 -485 -162 -83 -48 -201
-152 -244 -215 -16 -23 -34 -41 -41 -41 -18 0 -192 208 -254 304 -64 98 -87
172 -96 306 -8 121 0 151 45 179 39 23 208 64 415 101 188 33 254 36 301 14z
m-2865 -141 c5 -5 12 -59 15 -119 9 -194 11 -198 129 -209 111 -10 105 -5 106
-93 0 -99 12 -172 30 -183 8 -5 73 -9 146 -9 165 0 163 -2 163 123 0 141 -6
134 111 139 133 5 131 2 142 175 5 76 11 148 13 161 l4 22 464 0 464 0 10 -32
c6 -18 13 -109 16 -203 14 -386 32 -565 57 -565 26 0 29 65 24 429 l-6 376 36
-39 c39 -44 55 -89 86 -243 33 -168 118 -370 224 -532 74 -115 231 -365 243
-388 15 -27 15 -53 1 -53 -5 0 -36 17 -67 39 -68 46 -133 79 -227 116 -38 15
-135 59 -214 97 -126 61 -152 70 -215 75 -54 4 -85 0 -131 -15 -118 -39 -1200
-505 -1478 -636 -131 -62 -174 -89 -262 -166 l-59 -53 -111 7 c-60 4 -213 16
-340 27 -297 25 -281 12 -271 219 8 157 35 447 67 710 39 329 111 815 122 829
10 11 70 13 355 9 197 -3 347 -9 353 -15z m761 -3 c2 -5 1 -64 -2 -132 l-5
-122 -40 -1 c-134 -3 -144 -5 -169 -27 -23 -21 -26 -32 -32 -136 l-7 -113 -86
3 -86 3 -3 119 c-1 66 -7 125 -13 132 -11 14 -58 23 -134 25 -85 4 -85 4 -85
133 0 62 3 116 7 119 11 11 651 8 655 -3z m-1691 -10 c19 -6 46 -21 59 -35 21
-23 23 -30 17 -107 -6 -84 -50 -420 -65 -493 l-8 -40 -28 82 c-50 150 -157
288 -286 374 -44 29 -80 54 -80 55 0 4 176 124 210 143 51 29 122 37 181 21z
m4382 -515 c176 -234 311 -458 358 -596 27 -82 29 -209 4 -294 -24 -83 -124
-289 -197 -410 -211 -344 -582 -780 -763 -897 -75 -49 -208 -100 -318 -124
-71 -15 -347 -20 -347 -6 0 4 40 20 89 35 153 48 331 175 359 255 16 47 -6 42
-81 -18 -77 -63 -194 -121 -312 -156 -168 -49 -460 -42 -543 12 l-26 17 23 16
c13 9 98 58 190 110 193 109 288 171 380 248 41 34 90 64 125 77 37 13 67 32
80 49 33 45 15 49 -130 32 -163 -19 -217 -19 -283 1 -71 21 -109 57 -119 114
-15 87 10 151 76 196 29 20 112 38 431 95 79 13 136 44 151 79 12 28 5 130
-16 257 -5 26 -1 35 28 60 75 63 231 220 250 251 39 64 -8 84 -76 32 -22 -17
-45 -30 -52 -30 -14 0 -185 219 -198 254 -25 66 113 217 286 315 137 77 305
120 458 118 l105 -2 68 -90z m-1481 -596 c119 -48 241 -100 270 -115 60 -30
188 -105 188 -109 0 -2 -37 -21 -82 -43 -46 -22 -231 -110 -413 -197 -181 -86
-508 -242 -725 -346 -473 -226 -436 -218 -622 -133 -189 87 -561 270 -583 287
-19 15 -14 19 105 75 148 70 1518 656 1570 672 36 11 54 6 292 -91z m497 -351
c26 -148 26 -155 0 -171 -13 -8 -69 -20 -124 -27 -122 -14 -308 -52 -355 -73
-59 -25 -118 -75 -142 -119 -20 -37 -23 -58 -23 -148 0 -93 3 -111 25 -155 31
-61 97 -108 175 -126 30 -7 52 -16 49 -20 -10 -17 -144 -89 -624 -339 -267
-139 -489 -256 -494 -261 -19 -17 -65 -10 -77 12 -15 28 -74 637 -65 672 7 31
17 36 691 365 738 360 930 452 941 452 7 0 17 -28 23 -62z m-3114 -358 c105
-11 250 -24 323 -29 74 -5 137 -12 140 -16 7 -6 -67 -396 -78 -408 -7 -8 -288
21 -505 53 -117 18 -132 22 -154 47 -23 27 -24 29 -17 176 4 82 9 159 12 170
5 28 23 38 59 32 17 -3 116 -14 220 -25z m969 -176 c199 -96 372 -186 385
-199 23 -22 26 -38 47 -267 13 -134 28 -281 34 -328 15 -126 16 -123 -22 -115
-72 16 -871 420 -900 456 -27 33 -23 97 27 355 25 128 45 243 45 254 0 11 5
20 12 20 6 0 174 -79 372 -176z m-1149 -308 c50 -8 122 -18 160 -21 39 -4 81
-9 95 -11 14 -2 86 -9 160 -15 l135 -12 -3 -56 c-5 -91 8 -103 258 -229 118
-60 244 -125 280 -144 248 -135 458 -240 495 -247 23 -4 75 -9 116 -10 69 -2
91 3 297 73 230 78 350 103 428 91 24 -3 47 -11 52 -18 5 -7 15 -68 21 -136
11 -133 25 -167 55 -141 13 10 16 36 16 131 0 66 2 119 6 119 3 0 55 -13 117
-30 62 -16 143 -34 181 -40 118 -19 367 -40 464 -40 l92 0 0 -78 0 -78 -32
-12 c-85 -32 -539 -184 -542 -181 -2 2 -19 34 -40 70 -20 36 -44 74 -55 83
-17 16 -20 16 -36 0 -13 -13 -15 -28 -11 -63 3 -25 7 -75 8 -111 l3 -65 -45 2
c-214 11 -609 35 -625 38 -11 2 -50 4 -86 4 -101 1 -107 9 -124 161 -18 154
-21 166 -41 174 -9 3 -111 15 -227 26 -117 11 -320 31 -452 45 -302 31 -295
31 -295 2 0 -33 28 -55 79 -63 l43 -7 -6 -81 c-15 -181 -18 -197 -35 -192 -30
10 -336 45 -536 62 -110 9 -208 21 -217 26 -16 8 -18 25 -18 132 0 67 -3 126
-6 129 -10 9 -41 -10 -89 -54 -55 -51 -86 -62 -136 -49 -69 19 -73 33 -60 237
7 98 14 201 16 228 2 28 7 113 11 190 6 119 9 157 13 173 2 4 27 2 116 -12z
m115 -1067 c22 -11 151 -30 355 -54 176 -21 323 -41 328 -45 8 -7 5 -25 -68
-525 -58 -402 -66 -443 -80 -449 -6 -2 -139 11 -296 29 -156 18 -322 36 -369
40 -97 8 -130 24 -130 61 0 21 137 799 171 972 l11 53 21 -33 c12 -18 38 -40
57 -49z m1040 -131 c0 -29 -7 -150 -15 -268 -8 -118 -20 -278 -25 -355 -5 -77
-10 -151 -10 -165 0 -29 1 -29 -195 -96 -127 -43 -169 -52 -178 -36 -5 8 -5 7
69 527 30 209 56 386 59 393 3 7 23 12 52 12 26 1 77 9 113 19 36 10 80 19 98
20 l32 1 0 -52z m2064 43 c10 -16 127 -855 129 -925 l2 -69 -130 -68 c-71 -38
-134 -67 -140 -66 -18 6 -16 -9 -110 752 -21 169 -30 274 -24 280 13 13 230
103 251 104 9 1 19 -3 22 -8z m-757 -117 c210 -12 274 -13 316 -4 67 15 94 4
102 -43 2 -17 25 -196 49 -397 76 -619 71 -569 54 -587 -17 -16 -29 -15 -607
43 -79 8 -160 14 -180 14 -64 0 -73 14 -81 131 -11 140 -17 255 -31 571 -10
212 -10 270 0 281 9 11 26 14 64 11 29 -2 170 -11 314 -20z m-1377 -1043 c-7
-118 -16 -193 -24 -206 -14 -21 -374 -171 -384 -160 -5 5 22 310 36 403 l7 44
160 58 c88 31 171 62 185 67 20 8 26 7 28 -5 2 -8 -1 -98 -8 -201z m-1077 159
c59 -6 114 -13 122 -17 19 -7 19 -52 0 -158 -8 -44 -21 -127 -30 -185 -10 -58
-18 -107 -20 -108 -5 -6 -248 36 -278 47 -36 14 -46 43 -35 105 58 349 55 339
100 332 18 -3 82 -10 141 -16z m467 -56 c192 -22 173 -9 165 -117 -7 -98 -19
-225 -31 -320 -7 -56 -8 -58 -33 -53 -22 5 -259 43 -384 62 -37 6 -39 7 -33
38 5 31 56 404 56 413 0 6 73 -1 260 -23z m2920 -171 c12 -87 25 -186 27 -220
l5 -62 -58 -36 c-110 -67 -227 -135 -230 -133 -2 3 -39 276 -50 370 -3 31 -2
63 3 72 7 14 253 161 274 165 3 1 16 -70 29 -156z m-1023 35 l152 -12 5 -46
c9 -73 29 -400 25 -405 -2 -2 -53 3 -114 10 -60 7 -139 16 -175 20 -36 4 -76
12 -90 18 -29 14 -33 37 -45 286 l-8 154 49 -6 c27 -3 117 -12 201 -19z m464
-43 c84 -9 158 -20 165 -26 6 -5 15 -35 19 -67 13 -108 17 -137 31 -241 20
-147 21 -141 -25 -141 -21 0 -61 4 -89 10 -29 5 -102 14 -164 21 -62 6 -120
15 -129 20 -17 8 -20 33 -34 234 -3 39 -8 100 -11 138 l-6 67 45 0 c24 0 113
-7 198 -15z"/>
<path d="M5738 8880 c-54 -7 -88 -33 -88 -67 0 -22 31 -63 49 -63 4 0 48 -7
97 -15 146 -25 251 -68 382 -157 80 -54 109 -58 129 -19 18 38 -4 79 -78 138
-152 123 -356 199 -491 183z"/>
<path d="M4190 8781 c-105 -34 -199 -91 -288 -175 -81 -76 -106 -143 -63 -166
34 -18 49 -12 153 68 127 95 204 137 294 158 77 17 104 36 104 70 0 59 -92 80
-200 45z"/>
<path d="M5785 8080 c-61 -25 -107 -122 -113 -240 -5 -111 9 -163 59 -213 38
-38 41 -39 91 -35 40 4 57 11 75 32 65 75 70 271 11 391 -33 66 -72 87 -123
65z"/>
<path d="M4214 8020 c-47 -19 -79 -91 -89 -197 -6 -67 4 -122 35 -199 12 -28
11 -33 -33 -92 -49 -66 -128 -221 -148 -290 l-12 -43 -46 44 c-60 58 -83 69
-143 69 -170 -2 -308 -220 -308 -486 0 -159 39 -266 130 -358 69 -68 114 -84
274 -93 89 -6 124 -13 195 -40 186 -72 432 -100 813 -92 327 6 516 35 697 107
64 25 90 25 236 0 201 -34 398 -23 522 32 123 53 245 158 327 282 41 62 96
177 96 201 0 23 10 19 50 -19 79 -77 101 -27 33 73 -47 67 -130 130 -214 161
-35 13 -70 28 -77 34 -8 5 -33 51 -56 100 -61 131 -134 188 -257 201 -47 6
-62 3 -109 -22 -106 -54 -125 -134 -116 -473 4 -124 3 -230 -1 -236 -15 -21
-135 -93 -187 -112 -101 -38 -91 -49 -88 96 4 136 0 173 -54 467 -60 327 -96
426 -194 525 -117 119 -258 169 -500 177 -216 8 -407 -21 -546 -83 l-54 -24 0
78 c0 166 -73 254 -176 212z m1001 -314 c142 -48 215 -110 265 -221 34 -74 49
-128 94 -325 63 -284 69 -322 70 -440 1 -97 -2 -122 -20 -161 -35 -75 -100
-115 -246 -153 -178 -46 -345 -59 -665 -53 -407 7 -583 43 -702 143 -40 34
-50 53 -61 117 -19 123 87 560 185 761 120 247 405 370 835 362 149 -3 173 -6
245 -30z m1072 -411 c53 -22 71 -41 109 -117 62 -123 86 -225 91 -390 l5 -147
-56 -59 c-99 -104 -222 -151 -393 -152 -82 0 -183 16 -183 28 0 4 29 22 64 40
88 46 148 94 174 141 22 38 22 47 20 308 -3 292 1 321 51 348 34 19 73 19 118
0z m-2430 -130 c13 -14 30 -50 39 -81 15 -53 15 -58 -10 -163 -41 -171 -49
-299 -26 -390 5 -19 8 -37 5 -39 -11 -11 -135 12 -170 31 -48 27 -99 107 -114
179 -42 192 43 467 152 496 45 12 98 -2 124 -33z m2801 -207 c18 -11 32 -28
32 -39 0 -24 -50 -124 -79 -159 l-20 -25 -1 60 c0 33 -3 91 -7 129 l-6 68 24
-7 c13 -4 39 -16 57 -27z"/>
<path d="M5020 7251 c-46 -48 -70 -128 -77 -257 -14 -234 64 -354 229 -354
109 0 165 42 177 134 14 100 -7 201 -70 335 -65 139 -108 181 -185 181 -30 0
-44 -7 -74 -39z m168 -188 c71 -153 90 -267 51 -317 -24 -31 -57 -33 -91 -6
-42 32 -51 70 -46 178 6 102 27 232 38 232 4 0 25 -39 48 -87z"/>
<path d="M4393 7220 c-39 -23 -69 -70 -110 -170 -60 -145 -88 -273 -73 -329
32 -118 225 -162 323 -73 57 52 94 193 84 326 -11 144 -47 224 -113 252 -45
19 -73 17 -111 -6z m125 -254 c6 -118 -10 -196 -50 -242 -35 -39 -57 -43 -84
-13 -40 44 -2 210 77 334 28 44 32 47 41 30 6 -10 13 -59 16 -109z"/>
<path d="M2035 5938 c-16 -6 -45 -22 -63 -35 -28 -21 -32 -28 -20 -39 11 -11
27 -10 93 3 64 12 90 13 131 4 65 -15 132 -57 174 -110 18 -23 37 -41 42 -41
20 0 6 69 -22 108 -70 97 -226 148 -335 110z"/>
<path d="M3252 990 c-87 -20 -41 -42 83 -38 111 4 139 13 110 35 -21 14 -137
16 -193 3z"/>
<path d="M5354 939 c-13 -21 15 -31 75 -27 65 5 84 14 61 28 -21 13 -127 12
-136 -1z"/>
<path d="M7700 791 c-22 -4 -35 -12 -35 -21 0 -22 173 -27 212 -6 l28 14 -28
11 c-30 12 -118 13 -177 2z"/>
</g>
</svg>
