<?xml version="1.0" standalone="no"?>
<!DOCTYPE svg PUBLIC "-//W3C//DTD SVG 20010904//EN"
 "http://www.w3.org/TR/2001/REC-SVG-20010904/DTD/svg10.dtd">
<svg version="1.0" xmlns="http://www.w3.org/2000/svg"
 width="1024.000000pt" height="1024.000000pt" viewBox="0 0 1024.000000 1024.000000"
 preserveAspectRatio="xMidYMid meet">
<metadata>
Created by potrace 1.16, written by Peter Selinger 2001-2019
</metadata>
<g transform="translate(0.000000,1024.000000) scale(0.100000,-0.100000)"
fill="#000000" stroke="none">
<path d="M7045 9974 c-33 -2 -177 -8 -320 -14 -559 -23 -1642 -96 -1925 -130
-47 -6 -204 -22 -350 -36 -466 -44 -1051 -120 -1156 -149 -64 -18 -113 -51
-137 -93 -18 -30 -20 -60 -24 -350 -6 -351 -6 -350 -71 -377 -71 -30 -143
-114 -324 -380 -111 -162 -401 -631 -447 -722 -65 -131 -37 -218 123 -379 103
-103 213 -182 345 -250 97 -49 137 -49 250 -1 46 20 88 34 93 31 4 -3 8 -200
8 -438 -1 -494 2 -521 60 -577 47 -45 87 -55 275 -69 151 -11 195 -18 195 -28
0 -4 -75 -56 -167 -117 -92 -60 -230 -156 -307 -212 -124 -91 -141 -100 -158
-89 -90 63 -323 290 -406 395 l-42 53 0 141 c0 171 -14 239 -75 359 -67 133
-224 362 -319 466 l-40 43 -17 317 c-10 174 -21 350 -24 390 -10 109 -19 116
-195 158 -80 18 -219 52 -310 73 -201 49 -259 56 -333 42 -92 -17 -665 -248
-704 -283 -40 -37 -41 -22 16 -701 20 -238 25 -249 107 -281 27 -10 186 -59
354 -108 350 -103 322 -102 515 -29 60 23 112 41 116 41 4 0 9 -10 13 -22 3
-13 30 -66 61 -120 30 -53 55 -102 55 -110 0 -7 -28 -38 -61 -67 -61 -54 -61
-54 -88 -37 -53 34 -179 94 -276 132 -164 63 -235 53 -368 -53 -67 -52 -173
-182 -215 -262 -41 -75 -57 -170 -43 -246 20 -107 73 -174 265 -339 375 -321
508 -399 792 -461 11 -2 50 -39 86 -82 77 -90 181 -193 323 -319 301 -266 511
-403 676 -440 134 -31 257 5 461 133 94 59 447 318 460 337 18 27 20 -15 9
-142 -24 -266 -62 -789 -71 -987 -6 -110 -19 -366 -30 -570 -26 -475 -26 -480
4 -510 26 -26 83 -45 137 -45 71 0 72 -6 38 -173 -58 -288 -197 -1049 -260
-1424 -35 -209 -34 -226 15 -258 25 -17 155 -46 281 -64 39 -6 189 -29 335
-51 146 -23 306 -44 355 -47 86 -5 94 -4 180 30 284 110 380 153 415 187 l37
35 12 235 c7 129 16 291 21 360 6 69 15 215 20 325 6 110 17 295 25 410 8 116
15 222 15 237 0 23 8 32 48 52 86 44 122 91 122 160 0 19 6 38 13 43 7 6 63 4
152 -6 l139 -16 7 -35 c4 -19 12 -84 18 -143 6 -59 15 -117 21 -127 17 -31 66
-51 141 -57 38 -3 73 -11 77 -17 5 -6 14 -139 21 -296 31 -754 63 -1358 73
-1382 11 -29 56 -61 98 -71 26 -6 807 -91 940 -103 103 -8 151 10 330 126 264
171 250 144 215 388 -81 579 -107 765 -129 917 -13 94 -37 271 -53 393 l-28
224 24 19 c13 11 35 22 50 25 14 4 49 17 77 31 73 33 77 49 73 240 l-4 156 83
42 c148 78 265 173 442 360 219 233 536 677 663 932 130 258 161 415 117 586
-65 255 -376 715 -870 1285 -63 73 -116 137 -118 142 -4 11 5 13 188 50 177
36 224 57 254 115 18 36 21 66 28 375 8 339 10 365 20 375 3 3 24 -24 48 -60
23 -36 58 -79 78 -96 35 -31 36 -32 119 -26 64 5 122 19 246 60 336 112 597
269 657 393 33 67 24 113 -45 237 -150 267 -438 664 -750 1030 -55 66 -117
139 -137 164 l-38 45 0 230 c0 222 -1 230 -24 277 -15 28 -40 58 -64 73 -121
81 -875 448 -1137 554 l-120 49 -145 1 c-80 1 -172 0 -205 -2z m219 -145 c14
-7 28 -19 31 -28 4 -9 9 -816 12 -1793 6 -1647 5 -1779 -11 -1802 -9 -14 -29
-32 -45 -41 -49 -25 -424 -58 -831 -74 -874 -35 -1841 -18 -2643 45 -448 35
-452 36 -493 75 -58 56 -59 63 -58 519 1 581 23 2528 30 2627 4 63 11 89 27
109 27 35 105 69 192 83 114 18 536 68 905 106 343 36 399 41 725 70 271 24
862 63 1215 80 179 9 388 20 465 24 221 13 451 13 479 0z m269 -58 c279 -112
1056 -502 1077 -541 15 -29 13 -290 -2 -290 -7 1 -31 19 -53 41 -22 22 -59 52
-83 66 l-43 26 -284 -2 c-156 -1 -296 -4 -312 -7 -15 -2 -40 -18 -55 -34 l-28
-30 0 -168 c0 -105 5 -186 13 -218 7 -27 47 -106 88 -174 l74 -124 5 -383 c5
-347 7 -384 23 -400 35 -35 45 -3 63 212 16 200 26 250 40 210 13 -37 81 -209
157 -395 79 -195 128 -343 174 -525 28 -108 28 -114 26 -380 -3 -266 -3 -269
-26 -292 -35 -36 -400 -114 -788 -168 -127 -18 -155 -14 -163 28 -9 41 -21
3522 -13 3550 11 34 22 34 110 -2z m878 -830 c56 -36 109 -92 295 -311 249
-293 415 -503 620 -790 124 -174 264 -408 264 -442 0 -103 -379 -307 -704
-379 -88 -20 -90 -20 -115 -1 -48 35 -161 243 -406 747 -150 309 -264 518
-390 720 -103 165 -99 153 -103 309 -3 89 0 142 7 149 6 6 91 13 208 17 109 4
216 7 239 8 29 2 52 -6 85 -27z m-5289 -718 c2 -261 -1 -477 -6 -488 -5 -11
-24 -37 -43 -58 -77 -86 -197 -299 -233 -412 -7 -22 -16 -44 -20 -48 -11 -13
-145 73 -252 162 -109 91 -178 183 -178 236 0 35 74 164 274 478 241 379 405
597 448 597 4 0 8 -210 10 -467z m-1562 -358 c277 -57 320 -68 320 -75 0 -4
-37 -23 -82 -43 -46 -20 -135 -59 -198 -88 -156 -69 -238 -99 -281 -99 -55 0
-562 121 -582 140 -4 4 31 22 79 40 48 18 164 64 258 101 131 53 183 69 221
69 28 0 147 -20 265 -45z m420 -350 c5 -105 13 -236 16 -291 l7 -102 -44 -7
c-157 -26 -275 -124 -315 -261 -8 -29 -20 -56 -27 -62 -25 -19 -200 -83 -208
-75 -4 4 -12 134 -18 288 -6 154 -14 316 -17 361 -6 100 -1 107 116 159 47 20
168 74 270 119 138 62 188 80 197 72 9 -8 16 -75 23 -201z m-1119 60 c203 -46
372 -89 401 -100 24 -9 26 -29 38 -350 14 -380 14 -404 -6 -412 -8 -3 -48 4
-87 16 -40 13 -153 47 -252 76 -99 29 -191 58 -205 63 -50 19 -57 38 -69 192
-44 539 -45 560 -23 560 5 0 97 -20 203 -45z m2249 -172 c0 -65 -4 -123 -8
-129 -8 -12 -163 -86 -169 -81 -17 18 143 327 170 327 4 0 7 -53 7 -117z
m-1031 -481 c104 -107 284 -382 331 -507 20 -53 24 -82 27 -239 3 -215 -7
-192 178 -384 192 -199 351 -332 399 -332 26 0 110 49 215 124 116 84 122 87
161 76 127 -36 270 -191 350 -378 60 -142 82 -321 47 -388 -36 -70 -467 -389
-639 -473 -224 -111 -393 -46 -827 318 -149 124 -300 276 -376 376 -50 65 -67
81 -95 86 -214 42 -299 76 -463 188 -135 92 -229 179 -256 236 -49 104 -34
232 41 360 72 121 238 268 319 281 87 14 228 -150 205 -239 -3 -14 -43 -74
-87 -134 -126 -168 -161 -253 -104 -253 70 0 284 309 285 411 0 15 -10 58 -21
95 l-21 69 75 70 c118 110 121 124 41 250 -77 121 -97 168 -96 232 1 106 108
212 216 213 34 0 45 -7 95 -58z m-766 -588 c20 -10 37 -20 37 -24 0 -3 -22
-22 -48 -43 -112 -85 -221 -224 -262 -335 -12 -32 -27 -94 -33 -140 l-11 -83
-44 43 c-25 24 -57 63 -73 87 -25 38 -29 55 -29 112 0 56 6 77 35 136 41 83
166 221 227 252 51 27 140 24 201 -5z m6628 -273 c54 -33 202 -194 342 -371
l99 -125 -73 -7 c-307 -31 -642 -202 -779 -397 -19 -28 -42 -50 -50 -51 -29 0
-253 283 -309 390 -50 97 -62 152 -64 292 -2 128 1 136 64 168 78 41 518 127
655 129 61 1 76 -3 115 -28z m-3131 -129 l55 -7 7 -125 c13 -212 14 -213 133
-224 39 -4 82 -12 98 -18 l27 -10 0 -117 c0 -166 -6 -161 176 -161 187 0 184
-3 184 148 0 71 4 112 12 120 7 7 43 12 94 12 44 0 95 5 112 11 41 14 47 41
59 224 l8 140 497 3 496 2 10 -32 c6 -18 13 -118 17 -223 9 -258 31 -549 45
-574 6 -12 15 -21 19 -21 25 0 29 75 24 457 l-6 398 26 -24 c39 -35 65 -100
88 -214 52 -262 125 -427 340 -765 197 -308 204 -322 181 -336 -5 -3 -45 19
-88 48 -47 31 -152 84 -250 126 -93 40 -212 94 -264 121 -157 81 -241 79 -444
-10 -61 -27 -199 -86 -306 -131 -523 -219 -919 -392 -1150 -503 -137 -65 -196
-104 -284 -185 l-48 -45 -122 7 c-288 16 -601 47 -623 61 -12 8 -26 29 -30 45
-23 87 68 1032 137 1425 10 61 24 155 30 210 7 55 16 117 21 138 l10 37 327
-1 c180 -1 352 -4 382 -7z m858 -139 l-3 -138 -25 -2 c-235 -19 -221 -9 -235
-174 l-10 -123 -81 1 c-45 0 -86 3 -93 7 -7 5 -11 49 -11 131 0 150 1 149
-135 160 -49 3 -94 10 -99 15 -15 15 -21 227 -6 245 11 13 61 15 357 15 l344
0 -3 -137z m-1781 108 c57 -26 67 -49 60 -140 -9 -124 -70 -561 -78 -561 -4 0
-15 26 -24 57 -51 174 -185 348 -336 435 -32 18 -57 37 -55 43 5 18 243 173
272 178 67 10 121 6 161 -12z m4645 -521 c96 -123 283 -408 332 -505 69 -138
87 -202 88 -314 1 -118 -21 -191 -122 -396 -178 -363 -641 -950 -897 -1137
-69 -51 -165 -94 -299 -134 -77 -23 -113 -27 -263 -32 -143 -4 -173 -2 -169 9
2 7 18 16 34 20 55 12 164 58 236 100 79 46 201 160 211 197 10 39 -19 37 -70
-5 -123 -103 -292 -180 -449 -208 -204 -35 -520 1 -502 57 2 6 94 62 204 125
234 133 303 178 403 262 73 62 119 91 141 91 50 0 132 82 96 96 -8 3 -81 -2
-163 -11 -216 -25 -320 -9 -382 58 -65 72 -32 236 57 281 39 19 180 52 307 71
160 24 235 42 272 68 52 36 56 55 34 207 -10 74 -16 140 -12 146 3 6 33 34 66
61 96 81 233 227 241 257 14 57 -34 60 -101 6 -21 -17 -43 -29 -49 -27 -16 5
-205 249 -212 274 -14 51 67 165 179 252 178 136 401 212 617 208 l114 -2 58
-75z m-1707 -600 c50 -21 144 -59 210 -85 66 -26 149 -61 185 -78 69 -32 230
-125 230 -133 0 -5 -152 -79 -875 -424 -187 -90 -367 -175 -400 -190 -33 -15
-145 -69 -250 -120 -115 -56 -207 -95 -233 -98 -54 -6 -77 3 -409 159 -313
148 -433 210 -433 224 0 6 26 23 58 37 147 68 402 181 562 248 41 18 89 38
105 46 17 7 127 54 245 104 118 50 343 146 500 212 356 151 349 149 385 142
17 -4 71 -23 120 -44z m658 -377 c3 -5 13 -55 22 -112 l18 -105 -22 -17 c-13
-10 -48 -20 -89 -24 -143 -15 -346 -55 -414 -82 -72 -28 -133 -77 -165 -130
-26 -45 -28 -55 -28 -163 0 -99 3 -121 22 -156 39 -73 107 -120 213 -148 l45
-12 -95 -56 c-52 -30 -275 -149 -495 -263 -220 -115 -452 -236 -515 -270 -146
-78 -145 -77 -170 -57 -19 16 -24 38 -40 202 -10 102 -26 262 -36 357 -17 169
-17 173 2 194 10 11 100 61 199 109 194 95 591 289 985 483 339 166 533 257
547 257 6 0 14 -3 16 -7z m-3306 -438 c65 -8 201 -21 302 -29 101 -8 185 -16
186 -18 2 -2 -15 -101 -38 -221 l-41 -217 -41 0 c-103 0 -640 74 -661 90 -31
26 -36 76 -25 235 7 85 14 162 18 171 5 15 18 16 95 10 48 -3 141 -13 205 -21z
m1058 -204 c266 -132 384 -196 394 -212 9 -16 24 -128 42 -319 15 -162 31
-325 35 -362 8 -84 6 -85 -126 -25 -178 81 -845 427 -862 448 -28 33 -22 110
27 379 58 321 50 293 83 285 15 -3 198 -91 407 -194z m-1174 -325 c107 -14
263 -30 347 -37 l152 -13 0 -68 c0 -94 15 -109 225 -212 94 -46 289 -147 435
-225 437 -234 408 -222 541 -227 l114 -5 216 74 c119 42 254 83 300 92 93 19
203 16 224 -6 8 -9 18 -63 24 -142 11 -132 21 -167 46 -167 27 0 35 38 35 159
0 67 3 121 6 121 3 0 52 -13 108 -30 55 -16 142 -36 191 -45 122 -20 399 -45
512 -45 l92 0 6 -42 c4 -24 5 -61 3 -82 -3 -39 -5 -41 -63 -63 -71 -28 -535
-183 -546 -183 -5 0 -25 30 -45 68 -45 82 -62 102 -84 102 -27 0 -31 -23 -24
-150 l7 -118 -44 4 c-24 2 -199 13 -389 24 -190 12 -361 23 -380 25 -19 2 -44
4 -56 4 -48 2 -55 19 -74 181 -13 114 -22 157 -34 165 -9 7 -49 15 -88 19 -40
4 -140 13 -223 21 -82 8 -262 26 -400 40 -337 34 -325 33 -339 12 -9 -15 -6
-23 22 -48 18 -16 43 -29 56 -29 49 0 57 -9 51 -59 -2 -25 -7 -71 -10 -101
-12 -128 -16 -140 -39 -135 -60 13 -268 36 -572 65 -117 11 -219 23 -228 26
-13 5 -16 29 -18 142 -2 89 -7 137 -14 139 -6 2 -42 -21 -79 -52 -37 -30 -79
-58 -93 -62 -38 -9 -93 9 -114 38 -19 26 -19 30 1 365 26 416 31 484 41 484 4
0 95 -11 201 -24z m-18 -1085 c19 -28 38 -43 63 -50 21 -6 188 -29 373 -52
185 -23 341 -46 347 -51 8 -5 8 -25 2 -60 -4 -29 -37 -255 -73 -502 -36 -247
-70 -455 -76 -462 -15 -19 -46 -18 -234 6 -88 12 -258 31 -378 44 -135 15
-223 29 -233 37 -21 17 -16 71 25 275 17 82 55 295 86 474 60 354 65 380 69
380 2 0 15 -18 29 -39z m1158 -353 c-31 -509 -46 -699 -59 -707 -7 -4 -91 -34
-187 -66 -135 -46 -176 -56 -187 -47 -16 13 -8 102 32 357 11 72 36 240 55
375 20 135 38 251 40 258 3 7 23 12 52 12 26 1 93 11 148 24 57 13 104 20 109
15 6 -6 5 -89 -3 -221z m2215 211 c4 -6 15 -71 25 -143 10 -72 36 -255 58
-406 60 -413 67 -486 51 -505 -16 -19 -281 -155 -291 -149 -8 5 -21 88 -70
484 -22 179 -49 388 -59 465 -14 108 -15 143 -6 153 16 17 235 110 263 111 12
1 25 -4 29 -10z m-760 -125 c157 -10 236 -11 274 -4 119 23 116 28 145 -220
32 -264 70 -572 90 -729 24 -183 59 -171 -376 -127 -195 20 -391 39 -437 42
-70 6 -86 10 -97 28 -14 23 -29 194 -45 506 -23 463 -23 499 -10 515 15 18 31
17 456 -11z m-1514 -956 c-8 -179 -21 -354 -27 -370 -4 -9 -21 -23 -38 -31
-78 -38 -370 -148 -375 -142 -11 11 37 459 51 471 6 7 66 30 132 53 66 22 147
52 180 65 33 13 65 25 70 25 7 1 9 -26 7 -71z m-1111 9 l94 -12 3 -36 c2 -20
-7 -92 -18 -160 -12 -68 -27 -160 -33 -204 -6 -44 -11 -81 -13 -83 -7 -10
-287 43 -315 60 -31 19 -31 20 -25 76 4 31 18 116 31 190 14 73 25 141 25 151
0 45 17 47 251 18z m427 -51 c111 -13 197 -27 201 -34 12 -20 -28 -475 -44
-490 -2 -2 -66 5 -142 18 -348 55 -338 53 -330 74 2 6 17 106 32 221 15 116
29 216 31 223 5 16 25 15 252 -12z m3145 -198 c40 -268 40 -271 25 -290 -11
-14 -281 -178 -292 -178 -7 0 -35 178 -52 323 -19 163 -21 157 88 212 38 20
97 53 131 74 34 22 64 40 67 40 3 1 18 -81 33 -181z m-1073 48 l145 -11 3 -50
c1 -27 9 -135 17 -240 8 -104 13 -191 11 -193 -8 -7 -382 40 -406 51 -21 10
-26 22 -32 72 -12 100 -26 369 -20 384 4 10 19 11 71 6 36 -4 131 -13 211 -19z
m536 -50 c64 -7 119 -18 123 -24 9 -16 65 -471 58 -478 -3 -3 -81 4 -173 15
-93 12 -190 24 -216 27 -74 9 -75 11 -87 174 -6 80 -14 183 -18 229 l-6 84
102 -7 c56 -4 154 -13 217 -20z"/>
<path d="M5836 9140 c-36 -5 -55 -13 -72 -34 -29 -33 -30 -46 -4 -78 16 -22
35 -27 131 -42 161 -25 275 -71 415 -167 80 -55 115 -62 139 -25 32 49 -19
114 -160 207 -154 102 -325 154 -449 139z"/>
<path d="M4245 9053 c-212 -54 -455 -236 -455 -339 0 -35 21 -54 59 -54 11 0
53 26 93 58 145 116 234 165 357 195 74 19 103 41 99 75 -6 47 -89 82 -153 65z"/>
<path d="M5844 8245 c-54 -56 -77 -128 -77 -240 0 -108 17 -161 63 -207 31
-32 44 -38 79 -38 64 0 96 22 127 87 25 51 28 70 28 153 0 168 -59 290 -140
290 -31 0 -44 -7 -80 -45z"/>
<path d="M4180 8191 c-46 -49 -65 -111 -64 -221 0 -66 5 -96 22 -134 12 -27
22 -55 22 -62 0 -7 -25 -49 -55 -94 -59 -87 -127 -221 -144 -287 -7 -24 -14
-43 -17 -43 -3 0 -26 22 -52 48 -56 58 -110 76 -184 62 -63 -12 -95 -30 -139
-77 -113 -119 -172 -320 -150 -517 17 -152 53 -230 146 -314 70 -64 123 -81
275 -89 99 -5 126 -10 195 -38 178 -73 420 -105 790 -106 396 0 646 35 854
118 72 29 48 30 291 -12 107 -18 262 -18 365 0 160 28 340 144 452 290 55 71
143 237 143 268 0 25 8 22 56 -23 73 -68 103 -47 58 41 -50 100 -132 163 -303
235 -41 17 -46 24 -90 119 -59 126 -110 175 -213 206 -139 43 -250 -13 -291
-145 -8 -29 -12 -128 -12 -333 0 -330 10 -290 -87 -354 -39 -25 -187 -89 -208
-89 -3 0 -4 64 -2 142 2 95 -2 174 -12 233 -74 449 -103 572 -162 694 -70 142
-201 241 -390 293 -70 19 -105 22 -294 22 -245 0 -338 -14 -494 -77 l-86 -34
0 86 c0 71 -5 96 -26 141 -32 70 -57 89 -113 90 -38 0 -49 -5 -81 -39z m1012
-285 c93 -18 190 -57 250 -101 112 -82 160 -205 253 -655 62 -301 59 -457 -12
-539 -61 -72 -152 -106 -413 -153 -113 -20 -156 -22 -455 -22 -347 0 -420 7
-609 55 -122 31 -225 92 -258 153 -38 69 -24 233 38 473 92 357 173 521 307
620 115 85 290 148 480 172 105 14 339 12 419 -3z m1243 -465 c50 -23 65 -40
104 -118 70 -137 101 -277 101 -450 0 -133 -6 -150 -81 -217 -70 -63 -176
-113 -269 -127 -105 -16 -320 -3 -320 20 0 3 28 21 63 40 92 50 150 95 183
142 l29 42 0 301 c0 248 3 306 15 331 28 55 100 70 175 36z m-2617 -129 c38
-38 62 -95 62 -150 0 -17 -12 -79 -27 -139 -22 -90 -27 -131 -28 -243 0 -74 4
-148 8 -164 l8 -29 -69 5 c-38 3 -87 14 -108 24 -49 24 -109 110 -129 184 -31
116 -13 279 44 405 47 104 94 145 164 145 30 0 44 -7 75 -38z m2999 -223 c17
-11 34 -27 37 -36 7 -18 -48 -138 -84 -183 l-20 -25 -1 75 c0 41 -4 100 -8
130 -5 30 -6 59 -4 63 6 10 40 0 80 -24z"/>
<path d="M5092 7420 c-70 -43 -108 -191 -100 -388 5 -100 9 -120 34 -170 26
-49 37 -61 93 -89 80 -42 144 -44 217 -8 59 29 84 67 91 139 16 151 -103 457
-199 516 -42 25 -94 25 -136 0z m150 -203 c72 -144 101 -276 75 -339 -27 -64
-97 -62 -136 3 -29 47 -34 112 -17 229 24 161 28 180 37 174 5 -3 23 -33 41
-67z"/>
<path d="M4415 7376 c-16 -7 -37 -22 -47 -32 -78 -90 -182 -410 -164 -506 19
-104 169 -169 282 -122 111 46 161 172 152 381 -8 162 -49 252 -131 282 -36
14 -55 13 -92 -3z m114 -206 c34 -159 -11 -348 -87 -367 -33 -8 -72 35 -72 79
0 86 104 338 139 338 5 0 14 -23 20 -50z"/>
<path d="M1900 6001 c-40 -12 -83 -37 -103 -59 -15 -16 -15 -21 -4 -31 11 -8
33 -7 92 5 136 28 237 -4 323 -102 26 -29 50 -54 55 -54 4 0 7 17 7 38 0 125
-224 247 -370 203z"/>
<path d="M3206 710 c-57 -10 -78 -26 -56 -41 21 -14 226 -7 242 9 21 21 -5 34
-74 37 -34 2 -85 0 -112 -5z"/>
<path d="M5431 651 c-27 -17 1 -31 62 -31 65 0 94 10 83 29 -8 13 -125 15
-145 2z"/>
<path d="M7930 492 c-56 -11 -45 -36 18 -42 104 -11 214 11 188 37 -10 10
-160 13 -206 5z"/>
</g>
</svg>
