<?xml version="1.0" standalone="no"?>
<!DOCTYPE svg PUBLIC "-//W3C//DTD SVG 20010904//EN"
 "http://www.w3.org/TR/2001/REC-SVG-20010904/DTD/svg10.dtd">
<svg version="1.0" xmlns="http://www.w3.org/2000/svg"
 width="1024.000000pt" height="1024.000000pt" viewBox="0 0 1024.000000 1024.000000"
 preserveAspectRatio="xMidYMid meet">
<metadata>
Created by potrace 1.16, written by Peter Selinger 2001-2019
</metadata>
<g transform="translate(0.000000,1024.000000) scale(0.100000,-0.100000)"
fill="#000000" stroke="none">
<path d="M1710 9449 c-123 -21 -252 -112 -311 -221 -33 -61 -34 -66 -34 -178
0 -134 15 -178 87 -256 53 -57 100 -88 187 -121 141 -53 298 -9 415 118 75 81
99 146 100 269 1 131 -24 192 -113 281 -96 96 -202 130 -331 108z m193 -117
c50 -22 118 -85 142 -132 9 -17 20 -56 25 -87 22 -134 -46 -265 -172 -334 -56
-30 -72 -34 -138 -34 -63 0 -84 5 -135 30 -122 62 -187 156 -188 274 -1 132
80 241 216 292 66 25 183 21 250 -9z"/>
<path d="M8354 9292 c-32 -22 -81 -59 -109 -84 -36 -32 -65 -48 -102 -57 -80
-19 -194 -64 -269 -106 -83 -46 -174 -132 -174 -164 0 -102 189 -219 430 -267
92 -18 97 -20 167 -80 87 -76 120 -94 172 -94 72 0 91 48 46 114 -14 20 -25
40 -25 45 0 4 41 13 91 20 135 17 299 79 368 137 l29 24 89 -63 c113 -82 248
-159 269 -155 35 7 39 32 20 147 -21 121 -19 157 16 338 18 93 20 114 9 127
-8 9 -21 16 -31 16 -48 0 -181 -79 -292 -173 -36 -31 -69 -57 -72 -57 -3 0
-22 12 -43 26 -87 60 -271 138 -373 159 -37 8 -70 31 -70 49 0 18 -50 120 -63
128 -18 11 -19 11 -83 -30z m76 -109 c0 -9 -15 -13 -45 -13 -25 0 -45 3 -45 8
0 4 15 17 33 29 29 19 33 20 45 5 6 -9 12 -22 12 -29z m120 -119 c101 -22 237
-79 323 -134 42 -27 77 -54 77 -59 0 -16 -71 -69 -130 -97 -92 -44 -150 -61
-276 -79 -219 -32 -478 -4 -621 69 -78 39 -133 81 -133 101 0 40 157 137 298
185 121 40 317 46 462 14z m746 -1 c-31 -105 -43 -265 -26 -338 5 -22 7 -41 5
-44 -6 -5 -228 143 -245 164 -13 16 -7 24 55 84 67 63 187 151 207 151 5 0 7
-8 4 -17z m-867 -499 c12 -19 21 -37 21 -40 0 -6 -70 31 -92 49 -26 21 -22 27
16 27 28 0 38 -6 55 -36z"/>
<path d="M8206 8927 c4 -44 2 -78 -10 -116 -18 -60 -10 -84 22 -65 65 41 67
244 2 244 -19 0 -20 -4 -14 -63z"/>
<path d="M8015 8935 c-14 -13 -25 -30 -25 -38 0 -20 43 -57 67 -57 46 0 71 71
35 103 -26 24 -49 21 -77 -8z"/>
<path d="M5812 9086 c-64 -69 -135 -177 -226 -348 l-57 -107 -247 0 c-227 -1
-287 -5 -537 -37 l-50 -6 -35 58 c-19 32 -73 110 -119 174 -227 311 -301 343
-341 145 -17 -85 -33 -217 -48 -399 l-7 -78 -130 -43 c-153 -49 -342 -127
-475 -196 l-94 -48 -131 81 c-182 114 -347 198 -389 198 -39 0 -76 -37 -76
-76 0 -44 60 -319 91 -419 l31 -99 -54 -50 c-29 -27 -90 -85 -135 -129 -67
-65 -87 -78 -105 -74 -13 3 -68 17 -123 31 -143 36 -282 58 -316 51 -40 -9
-63 -46 -55 -88 5 -27 91 -193 161 -312 l18 -31 -95 -139 c-117 -171 -170
-260 -234 -393 l-49 -102 -124 0 c-235 0 -375 -44 -357 -113 13 -53 216 -241
314 -291 23 -12 31 -22 28 -34 -33 -104 -82 -393 -94 -549 l-7 -86 -107 -43
c-302 -118 -400 -198 -338 -277 36 -46 230 -130 371 -161 l75 -17 13 -107 c17
-144 55 -347 85 -457 l25 -90 -76 -70 c-102 -93 -222 -231 -244 -279 -22 -51
-10 -79 43 -101 33 -13 79 -15 252 -14 l211 1 63 -108 c77 -134 178 -285 255
-381 31 -40 57 -77 57 -82 0 -5 -23 -56 -51 -113 -102 -203 -138 -325 -107
-356 33 -33 162 1 340 91 l126 63 33 -29 c176 -149 304 -242 444 -322 55 -31
103 -60 108 -64 4 -4 3 -52 -2 -107 -6 -54 -13 -149 -16 -209 -8 -149 7 -187
70 -171 33 8 182 134 278 235 l78 82 162 -55 c161 -54 337 -99 516 -133 l94
-18 32 -96 c51 -150 84 -218 116 -235 51 -26 90 5 150 121 14 27 40 78 58 113
l33 62 191 -2 191 -3 51 -90 c28 -50 73 -124 101 -165 43 -65 55 -75 83 -78
18 -2 39 2 46 8 22 18 55 114 80 233 13 60 25 110 27 113 2 2 54 10 114 19 60
8 148 22 194 30 l85 15 25 -32 c120 -155 206 -226 255 -214 43 11 54 50 58
206 l3 143 85 28 c84 27 338 136 391 167 34 20 25 23 180 -84 139 -96 276
-174 309 -174 32 0 59 28 59 61 0 30 -84 350 -100 379 -15 28 -8 26 70 -20
165 -97 225 -112 254 -67 13 19 13 31 1 87 -7 36 -29 111 -49 167 l-35 103
158 157 c157 158 241 258 348 419 31 46 59 84 63 84 4 0 43 -9 86 -20 111 -27
328 -53 380 -45 53 8 89 45 79 85 -14 56 -107 177 -259 338 l-69 72 32 83 c18
45 46 124 64 175 17 50 35 92 39 92 5 0 97 -42 206 -94 108 -51 273 -124 367
-161 215 -86 294 -96 330 -41 26 39 68 368 80 626 4 69 9 131 11 139 11 33 14
638 4 799 -22 374 -21 371 -72 402 -39 23 -77 20 -233 -20 -157 -41 -494 -163
-596 -215 -34 -18 -45 -15 -52 17 -2 13 -17 79 -31 148 -15 69 -34 149 -43
177 -9 29 -15 54 -12 56 2 1 33 20 69 42 111 66 349 256 370 295 28 53 -6 91
-99 109 -106 21 -313 41 -427 41 l-112 0 -51 103 c-28 56 -83 158 -121 226
l-71 124 120 191 c117 187 181 300 181 322 0 6 -9 23 -21 38 -18 22 -28 26
-75 26 -30 0 -90 -7 -132 -16 -84 -17 -331 -85 -400 -110 l-43 -16 -67 64
c-78 74 -182 159 -303 246 l-86 62 19 72 c23 91 68 360 68 409 0 52 -28 83
-73 82 -53 -1 -137 -51 -322 -190 l-166 -124 -67 32 c-89 42 -299 113 -440
149 -62 15 -115 30 -116 31 -2 2 -17 87 -35 189 -45 268 -60 324 -94 365 -42
51 -64 47 -135 -29z m86 -123 c36 -170 102 -596 102 -659 0 -90 45 -140 83
-93 17 22 19 34 13 122 -6 77 -4 97 6 97 20 0 150 -37 273 -77 390 -128 695
-299 1032 -581 l103 -86 -47 -25 c-52 -29 -69 -50 -60 -75 13 -33 31 -29 442
98 154 48 288 89 298 92 9 3 17 1 17 -5 0 -6 -34 -66 -77 -133 -42 -68 -94
-152 -116 -188 -22 -36 -82 -130 -134 -209 -51 -79 -93 -151 -93 -160 0 -22
19 -41 41 -41 17 0 82 65 114 113 9 15 20 27 24 27 18 0 179 -296 252 -462
173 -393 278 -815 305 -1226 l6 -104 -48 35 c-92 65 -341 177 -458 206 -38 9
-56 9 -78 0 -15 -6 -28 -15 -28 -19 0 -17 45 -44 161 -96 132 -59 272 -128
303 -150 17 -11 15 -14 -25 -35 -24 -12 -132 -52 -239 -88 -201 -68 -220 -80
-189 -118 38 -45 401 60 546 157 24 17 46 30 48 30 2 0 2 -21 0 -47 -2 -27 -7
-86 -10 -133 -17 -233 -89 -551 -181 -797 -47 -126 -158 -358 -225 -470 -140
-234 -268 -399 -447 -577 l-100 -99 -47 94 c-61 122 -131 226 -156 234 -23 7
-49 -10 -49 -32 0 -8 22 -57 50 -108 77 -143 240 -545 221 -545 -13 0 -145 86
-271 175 -300 214 -345 239 -376 208 -31 -31 -14 -48 214 -223 39 -30 72 -57
72 -60 0 -10 -239 -147 -389 -221 -145 -72 -354 -159 -384 -159 -9 0 -18 27
-26 78 -27 172 -61 233 -97 177 -15 -23 -15 -39 0 -212 9 -104 16 -228 16
-278 l-1 -90 -40 45 c-38 42 -105 129 -237 308 -46 63 -58 73 -80 70 -41 -5
-39 -38 7 -124 27 -50 37 -76 28 -79 -6 -2 -41 -9 -77 -15 -36 -7 -72 -13 -80
-15 -190 -35 -612 -62 -781 -49 l-95 6 28 107 c16 58 27 122 26 141 -3 30 -7
35 -30 38 -29 4 -44 -16 -68 -93 -48 -153 -184 -475 -201 -475 -15 0 -64 158
-119 380 -43 174 -62 210 -100 190 -28 -15 -30 -33 -13 -130 8 -49 13 -96 10
-104 -6 -16 -217 25 -403 79 -153 45 -524 187 -524 202 0 3 81 89 180 190 176
179 219 235 207 267 -17 43 -54 17 -242 -166 l-188 -183 8 195 c14 320 14 334
-12 338 -53 8 -83 -121 -90 -385 -3 -101 -8 -183 -12 -183 -17 0 -175 95 -283
170 -308 213 -563 467 -745 740 -359 539 -513 1039 -513 1664 0 366 53 713
158 1031 81 247 166 417 330 664 l96 145 20 -29 c69 -95 113 -124 144 -93 20
20 15 33 -45 120 -119 174 -250 404 -238 416 12 13 225 -39 423 -103 214 -70
232 -71 232 -21 0 15 -16 31 -54 54 -30 17 -59 32 -64 32 -70 0 134 194 378
362 239 164 560 322 805 397 39 12 77 24 86 27 14 4 17 -7 21 -72 3 -60 7 -79
22 -90 21 -15 50 -5 65 24 5 9 12 78 15 152 13 267 41 578 54 592 10 10 155
-189 295 -404 124 -189 149 -215 183 -187 18 15 18 43 -1 80 -12 23 -13 30 -3
34 37 14 211 26 436 32 284 7 269 11 227 -71 -29 -57 -31 -79 -9 -96 11 -10
23 -11 41 -4 35 12 82 90 273 449 80 150 122 215 141 215 4 0 12 -21 17 -47z
m1248 -475 c-18 -156 -53 -328 -67 -328 -6 0 -34 16 -64 35 -30 19 -86 51
-125 70 -38 19 -70 39 -70 43 1 13 311 242 329 242 2 0 0 -28 -3 -62z m-3933
-266 c64 -41 117 -77 117 -81 0 -4 -26 -22 -57 -41 -32 -19 -92 -61 -135 -92
l-77 -57 -15 47 c-25 78 -74 274 -82 326 l-7 48 69 -38 c38 -21 122 -71 187
-112z m5331 -1492 c153 -11 186 -16 185 -28 0 -11 -166 -143 -250 -200 l-77
-51 -51 140 c-28 76 -51 141 -51 144 0 8 93 6 244 -5z m-6605 -184 c8 -5 -45
-176 -62 -204 -6 -9 -25 0 -70 35 -99 75 -178 145 -172 152 13 12 286 28 304
17z m7412 -505 c4 -18 10 -91 14 -162 l7 -128 -23 -5 c-13 -2 -94 -14 -179
-26 -85 -11 -253 -39 -373 -62 -120 -22 -220 -39 -222 -37 -2 2 -6 49 -10 104
l-7 100 34 14 c138 60 206 86 345 131 179 58 371 111 393 107 8 -1 17 -17 21
-36z m27 -600 c1 -118 -1 -218 -5 -222 -5 -4 -100 -1 -213 7 -113 8 -288 20
-389 27 l-184 12 -3 127 c-2 89 0 129 9 136 13 11 274 62 442 87 61 9 146 23
190 30 44 8 96 13 115 12 l35 -2 3 -214z m-7641 -126 c1 -74 -1 -135 -3 -135
-2 0 -41 13 -87 29 -132 46 -237 92 -231 102 11 19 274 139 304 139 13 0 15
-22 17 -135z m7093 -149 c107 -8 272 -20 365 -27 94 -6 173 -14 176 -18 6 -7
-19 -412 -26 -420 -3 -3 -38 5 -78 17 -39 12 -157 47 -262 78 -104 30 -247 73
-318 95 l-127 40 6 82 c3 45 8 91 9 102 2 11 4 30 4 43 1 27 -7 27 251 8z
m-93 -377 c92 -28 265 -79 383 -114 l215 -63 -3 -38 c-7 -86 -33 -238 -42
-249 -13 -16 -109 17 -325 110 -158 68 -429 198 -451 216 -8 7 -9 21 -2 47 5
20 14 57 19 82 12 61 17 72 28 65 6 -3 85 -28 178 -56z m-6812 -531 c9 -24 30
-73 47 -111 17 -37 28 -70 25 -73 -8 -8 -232 -12 -293 -5 l-49 6 115 113 c63
61 120 112 126 112 7 0 19 -19 29 -42z m6569 -396 c32 -40 56 -76 52 -79 -15
-16 -361 50 -354 67 2 4 28 55 58 114 l55 107 65 -68 c36 -37 92 -101 124
-141z m-5948 -759 c-6 -14 -155 -87 -162 -80 -7 6 49 139 83 196 l26 45 29
-75 c15 -41 26 -79 24 -86z"/>
<path d="M4907 8142 c-37 -40 -75 -174 -106 -373 -28 -175 -32 -228 -21 -250
14 -25 56 -25 69 0 6 10 22 89 36 175 29 183 54 305 65 325 12 22 63 -58 232
-364 22 -38 47 -78 57 -89 23 -22 57 -14 66 16 16 50 -258 516 -329 559 -39
24 -49 24 -69 1z"/>
<path d="M6675 8049 c-86 -60 -171 -133 -338 -292 -151 -143 -166 -165 -125
-191 26 -16 64 8 195 125 221 200 301 269 308 269 16 0 -6 -192 -47 -413 -41
-226 -43 -254 -11 -264 42 -14 80 97 128 375 32 184 36 399 9 419 -30 22 -58
15 -119 -28z"/>
<path d="M3645 8064 c-15 -15 -17 -29 -12 -83 6 -66 71 -317 109 -421 11 -30
25 -70 31 -87 16 -49 60 -98 80 -90 32 12 30 39 -16 181 -51 154 -109 367
-102 374 2 3 46 -26 97 -64 349 -256 339 -249 366 -222 30 30 4 63 -133 170
-108 85 -348 246 -376 253 -18 4 -32 1 -44 -11z"/>
<path d="M4670 7266 c-31 -6 -80 -25 -110 -42 -116 -66 -111 -179 6 -129 161
70 353 70 499 0 39 -19 106 -64 149 -100 79 -66 100 -74 119 -44 25 40 -36
129 -140 208 -67 50 -156 91 -243 110 -60 14 -211 12 -280 -3z"/>
<path d="M3128 7256 c-139 -54 -298 -220 -269 -282 15 -34 42 -30 82 12 80 84
208 146 305 147 50 1 72 -5 136 -37 63 -31 80 -36 97 -26 29 15 27 61 -5 99
-14 16 -51 45 -82 63 -50 28 -67 32 -142 35 -55 2 -98 -2 -122 -11z"/>
<path d="M7215 7153 c-175 -37 -205 -49 -205 -88 0 -35 28 -39 145 -16 55 10
101 18 103 17 1 -2 -22 -54 -52 -117 -90 -191 -99 -239 -42 -239 29 0 36 11
119 187 111 235 112 264 8 262 -31 -1 -65 -3 -76 -6z"/>
<path d="M4657 6854 c-148 -32 -249 -87 -352 -193 -125 -128 -184 -268 -192
-462 -10 -219 43 -366 181 -503 134 -134 259 -185 452 -186 302 0 583 207 674
499 80 254 -13 557 -219 716 -159 121 -358 169 -544 129z m311 -95 c176 -55
332 -215 383 -394 23 -81 19 -256 -8 -341 -43 -136 -161 -282 -287 -353 -134
-75 -351 -99 -484 -53 -168 58 -291 177 -353 342 -21 57 -24 81 -24 200 0 122
3 143 28 215 109 310 436 478 745 384z"/>
<path d="M4460 6381 c-71 -37 -130 -149 -130 -246 0 -68 27 -141 68 -184 94
-99 237 -65 310 73 22 43 27 64 27 131 0 162 -65 245 -192 245 -28 0 -63 -8
-83 -19z"/>
<path d="M6305 6806 c-189 -63 -214 -75 -221 -102 -3 -12 -3 -28 1 -35 12 -19
94 -4 211 40 59 23 109 39 111 37 2 -2 -30 -77 -71 -168 -82 -182 -87 -198
-67 -221 32 -40 66 -2 140 154 100 215 120 289 85 323 -23 23 -45 20 -189 -28z"/>
<path d="M2980 6782 c-94 -27 -134 -46 -205 -97 -124 -88 -236 -247 -276 -390
-22 -78 -19 -296 5 -364 46 -134 150 -253 269 -310 80 -38 134 -50 226 -51 66
0 72 -2 66 -17 -4 -10 -10 -52 -12 -94 -6 -87 11 -162 57 -247 l29 -53 -27
-57 c-23 -49 -27 -70 -27 -152 0 -88 3 -101 33 -162 85 -174 303 -273 490
-224 104 28 196 90 244 165 29 46 37 91 16 91 -6 0 -34 -22 -63 -49 -155 -147
-381 -160 -528 -31 -62 54 -89 111 -95 195 -4 70 -2 78 32 144 20 38 36 78 36
87 0 9 -16 41 -36 71 -53 80 -67 130 -62 226 4 99 29 158 100 233 72 76 130
98 238 91 139 -9 257 -76 337 -191 62 -90 106 -68 59 28 -47 96 -159 189 -267
223 -32 10 -59 21 -59 25 0 4 14 29 30 56 78 124 108 302 76 445 -42 186 -172
338 -341 398 -87 30 -257 36 -345 11z m305 -86 c87 -32 160 -80 205 -138 135
-170 143 -381 24 -609 l-35 -66 -59 -6 c-111 -10 -227 -85 -286 -184 l-26 -45
-107 4 c-87 4 -118 10 -174 33 -118 48 -219 163 -253 287 -21 77 -19 238 5
315 98 319 428 510 706 409z"/>
<path d="M3212 6420 c-19 -4 -52 -25 -74 -46 -105 -102 -118 -285 -27 -388 95
-107 240 -82 308 55 41 82 44 186 7 264 -25 54 -73 102 -109 109 -58 12 -74
13 -105 6z"/>
<path d="M7640 6490 c-84 -11 -100 -18 -100 -46 0 -37 33 -44 211 -44 124 0
160 -3 157 -12 -3 -7 -51 -48 -109 -91 -150 -111 -189 -146 -189 -168 0 -57
79 -30 215 73 148 111 215 177 215 211 0 39 -30 64 -86 71 -80 10 -255 14
-314 6z"/>
<path d="M7060 6114 c-228 -61 -549 -181 -793 -298 -75 -36 -140 -66 -142 -66
-3 0 -5 6 -5 14 0 7 -7 19 -15 26 -36 30 -40 0 -41 -298 -1 -277 -2 -291 -28
-397 -56 -230 -61 -262 -47 -279 7 -9 22 -16 32 -16 20 0 49 36 49 62 0 35 22
28 88 -25 158 -129 555 -370 659 -401 44 -14 117 48 158 135 17 36 17 36 54
23 75 -27 137 -6 175 60 100 171 173 693 137 971 -38 297 -68 411 -121 467
-42 43 -66 46 -160 22z m114 -172 c16 -57 46 -238 46 -278 0 -19 -9 -22 -117
-33 -255 -25 -591 -72 -846 -117 -49 -8 -92 -13 -95 -9 -6 5 -7 13 -13 90 -3
37 -1 41 36 62 175 98 926 368 966 347 3 -2 14 -30 23 -62z m56 -519 c0 -137
-14 -310 -25 -321 -3 -3 -74 4 -158 16 -240 36 -414 59 -662 87 -126 15 -231
28 -232 29 -1 1 1 42 4 92 l6 90 261 42 c316 51 624 90 789 101 15 1 17 -12
17 -136z m-815 -303 c216 -26 573 -76 743 -105 33 -6 33 -7 27 -48 -4 -23 -23
-90 -42 -149 -39 -123 -33 -119 -150 -92 -208 48 -847 255 -876 283 -4 4 -3
32 3 62 18 86 14 83 73 75 28 -3 129 -15 222 -26z"/>
<path d="M3394 5512 c-70 -56 -73 -180 -7 -285 l24 -37 -27 -45 c-16 -29 -28
-66 -31 -102 -4 -50 -1 -63 19 -93 65 -95 208 -57 275 74 36 68 44 207 18 287
-30 93 -89 174 -147 205 -37 19 -98 17 -124 -4z"/>
<path d="M4026 5477 c-87 -114 -109 -330 -50 -503 20 -59 66 -128 100 -151 23
-15 27 -15 41 0 15 15 13 23 -25 105 -71 152 -81 293 -32 445 17 52 30 104 30
116 0 33 -35 26 -64 -12z"/>
<path d="M2295 5178 c-65 -35 -268 -209 -307 -262 -34 -47 -35 -75 -5 -104 29
-28 89 -39 253 -48 145 -7 174 -1 174 42 0 34 -22 40 -185 48 -76 4 -142 9
-145 12 -3 3 54 63 127 132 72 70 135 137 138 149 8 28 -22 46 -50 31z"/>
<path d="M5397 4924 c-16 -17 -2 -59 78 -237 47 -103 85 -192 85 -197 0 -10
-90 27 -265 109 -116 55 -158 62 -163 25 -2 -15 8 -31 32 -51 65 -53 334 -178
412 -190 49 -8 84 18 84 61 0 72 -97 301 -182 431 -31 46 -63 66 -81 49z"/>
<path d="M7631 4497 c-25 -25 -5 -54 125 -190 81 -83 131 -143 123 -146 -7 -2
-71 2 -143 10 -187 20 -286 19 -300 -3 -32 -51 93 -80 427 -102 130 -8 180 28
138 99 -48 82 -294 326 -340 338 -11 2 -24 0 -30 -6z"/>
<path d="M2730 4161 c-56 -79 -154 -340 -166 -442 -15 -125 34 -129 250 -21
188 94 241 130 241 162 0 19 -6 26 -23 28 -30 4 -54 -5 -226 -90 -76 -38 -140
-67 -142 -66 -7 7 40 158 88 284 39 104 49 140 41 153 -17 27 -40 24 -63 -8z"/>
<path d="M6710 4158 c-9 -19 -3 -48 30 -153 58 -180 93 -306 87 -312 -3 -2
-100 41 -215 97 -116 56 -218 100 -228 98 -9 -1 -22 -11 -28 -21 -9 -15 -6
-23 20 -46 76 -68 426 -241 488 -241 39 0 63 19 72 57 13 50 -94 385 -159 498
-27 47 -52 56 -67 23z"/>
<path d="M4693 3908 c-5 -7 -21 -42 -35 -78 -91 -226 -142 -340 -152 -340 -6
0 -58 91 -116 202 -58 112 -112 204 -120 205 -8 2 -22 -1 -30 -6 -25 -17 4
-113 79 -266 134 -270 184 -316 253 -238 28 32 166 398 184 487 7 38 -41 63
-63 34z"/>
<path d="M5608 3463 c-7 -17 -13 -122 -16 -265 -2 -131 -7 -238 -11 -238 -3 0
-74 68 -156 150 -82 83 -157 150 -166 150 -24 0 -42 -27 -35 -53 3 -13 50 -73
104 -133 194 -215 277 -269 328 -213 14 15 20 43 24 112 9 128 1 476 -11 499
-15 27 -48 23 -61 -9z"/>
<path d="M1335 8159 c-52 -16 -125 -77 -146 -122 -32 -72 -19 -187 28 -239 59
-67 215 -91 285 -43 80 54 118 178 84 269 -18 47 -88 120 -132 136 -31 12 -78
11 -119 -1z m125 -99 c87 -62 77 -197 -17 -237 -75 -31 -163 6 -184 77 -39
131 93 237 201 160z"/>
<path d="M9251 7895 c-30 -14 -77 -41 -103 -61 -27 -19 -71 -39 -98 -45 -99
-21 -210 -122 -210 -191 0 -16 12 -41 31 -62 34 -39 150 -102 207 -112 21 -4
55 -23 80 -45 74 -65 169 -87 186 -44 3 9 -1 32 -8 50 -8 19 -12 36 -8 38 4 2
35 10 69 17 35 7 97 30 140 50 l76 38 41 -30 c91 -66 176 -109 209 -106 43 4
45 29 11 109 -33 79 -35 146 -5 250 29 105 15 133 -54 105 -40 -17 -142 -85
-190 -128 l-35 -30 -32 20 c-18 11 -61 30 -95 42 -75 27 -85 37 -98 104 -9 44
-14 51 -35 54 -14 1 -49 -9 -79 -23z m49 -85 c0 -5 -9 -10 -21 -10 -11 0 -17
5 -14 10 3 6 13 10 21 10 8 0 14 -4 14 -10z m479 -92 c-12 -45 -11 -138 2
-177 6 -18 9 -34 7 -36 -7 -8 -143 100 -146 116 -2 14 121 129 139 129 4 0 3
-15 -2 -32z m-410 -10 c53 -13 156 -59 186 -83 l20 -16 -20 -15 c-101 -77
-342 -122 -470 -89 -77 20 -149 65 -153 94 -7 46 74 103 170 121 62 10 200 5
267 -12z"/>
<path d="M9154 7698 c-4 -7 -8 -45 -9 -86 -1 -54 2 -75 12 -79 18 -7 41 23 49
64 11 57 -30 136 -52 101z"/>
<path d="M9028 7669 c-21 -12 -24 -49 -6 -67 7 -7 24 -12 38 -12 31 0 50 17
50 45 0 40 -42 58 -82 34z"/>
<path d="M1412 7137 c-13 -15 -19 -78 -9 -94 4 -6 25 -13 48 -17 54 -9 79 12
79 65 0 28 -5 41 -19 49 -27 14 -86 13 -99 -3z"/>
<path d="M1057 4452 c-24 -26 -21 -55 7 -81 31 -29 66 -24 86 12 13 24 13 30
0 55 -20 34 -68 42 -93 14z"/>
<path d="M9214 3156 c-42 -19 -108 -79 -154 -141 -148 -200 -195 -525 -126
-869 36 -177 40 -260 22 -384 -17 -110 -46 -225 -54 -217 -3 3 -7 24 -9 48 -8
93 -45 206 -114 346 -114 233 -110 217 -139 541 -12 137 -23 181 -55 217 -20
24 -31 28 -75 28 -47 0 -54 -3 -90 -41 -50 -54 -71 -122 -77 -257 -9 -176 24
-288 142 -493 89 -153 115 -212 131 -304 17 -97 13 -110 -33 -110 -189 0 -439
35 -793 110 -299 63 -328 68 -485 85 -184 19 -383 18 -586 -5 -274 -31 -471
-79 -929 -225 -162 -52 -417 -124 -495 -140 -198 -41 -449 -74 -555 -75 -62 0
-208 39 -470 125 -397 131 -541 158 -940 175 -468 20 -627 85 -1001 405 -223
191 -348 274 -539 357 -251 110 -479 149 -875 149 -193 0 -559 -21 -638 -37
-24 -5 -27 -10 -27 -48 l0 -42 87 12 c359 48 822 44 1083 -11 266 -56 547
-197 793 -398 240 -197 342 -269 474 -335 180 -90 349 -125 658 -137 351 -13
543 -51 955 -189 221 -73 336 -107 565 -164 353 -89 526 -113 840 -115 339 -3
528 13 584 49 53 35 15 39 -372 37 -454 -2 -628 13 -907 81 -63 15 -63 16 95
41 222 35 378 76 810 211 471 148 733 200 1050 211 264 9 403 -9 888 -111 260
-55 560 -96 703 -96 54 0 73 -10 51 -28 -6 -6 -55 -25 -107 -42 -119 -41 -365
-140 -534 -214 -343 -153 -570 -216 -774 -216 -95 0 -132 -10 -132 -35 0 -49
191 -53 406 -10 131 27 304 90 648 237 367 157 751 277 1001 313 202 30 354
20 690 -45 61 -11 123 -21 138 -22 26 -1 46 14 47 34 1 39 -412 128 -611 131
-55 1 -99 5 -99 8 0 3 25 44 56 90 151 226 283 588 260 712 -9 48 -56 87 -105
87 -51 0 -123 -47 -155 -102 -31 -54 -60 -145 -81 -263 -22 -119 -31 -131 -40
-59 -4 33 -18 115 -31 184 -43 224 -32 338 51 525 72 165 95 243 95 327 0 60
-3 72 -25 93 -27 28 -46 30 -91 11z m18 -189 c-6 -23 -40 -114 -76 -203 -100
-245 -105 -330 -41 -654 34 -171 33 -259 -5 -404 -43 -166 -52 -186 -89 -186
-17 0 -31 3 -31 8 0 4 14 54 32 112 28 95 31 118 32 240 0 108 -4 151 -21 215
-97 361 -35 755 147 934 l55 54 3 -37 c2 -21 -1 -56 -6 -79z m-709 -345 c19
-20 31 -99 47 -302 6 -74 16 -155 21 -180 5 -25 48 -124 94 -220 96 -198 115
-261 115 -372 0 -85 3 -80 -67 -102 -21 -7 -22 -5 -22 89 -1 156 -33 250 -154
448 -106 173 -143 298 -134 447 6 91 19 139 49 183 23 32 29 33 51 9z m984
-339 c-11 -134 -111 -376 -258 -625 -56 -95 -83 -127 -96 -115 -2 3 19 60 48
128 92 222 99 242 134 384 19 77 41 160 50 185 20 56 70 110 103 110 25 0 25
-1 19 -67z"/>
<path d="M1142 1638 c-17 -17 -15 -26 12 -43 14 -9 56 -18 102 -21 104 -7 178
-20 278 -49 129 -37 218 -83 401 -205 185 -122 370 -218 498 -256 108 -32 282
-45 413 -30 54 6 178 10 274 10 205 0 255 -10 487 -100 262 -101 434 -133 546
-100 110 32 80 66 -57 66 -113 0 -263 33 -401 88 -141 56 -276 98 -375 118
-97 19 -273 21 -420 5 -135 -15 -277 -13 -360 4 -179 38 -304 95 -530 245
-257 170 -387 232 -563 265 -97 18 -288 20 -305 3z"/>
<path d="M8880 1009 c-71 -10 -136 -32 -230 -79 -41 -20 -97 -42 -125 -49
-110 -27 -126 -33 -132 -48 -8 -21 23 -43 62 -43 48 0 158 33 285 87 l115 48
245 0 c228 0 250 2 311 23 70 23 96 43 83 63 -5 8 -26 9 -78 3 -81 -9 -295
-11 -406 -3 -41 3 -100 2 -130 -2z"/>
</g>
</svg>
