<?xml version="1.0" encoding="UTF-8" standalone="yes"?>
<svg version="1.0" xmlns="http://www.w3.org/2000/svg" width="1024.000000pt" height="1024.000000pt" viewBox="0 0 1024.000000 1024.000000" preserveAspectRatio="xMidYMid meet">
  <metadata>
Created by potrace 1.16, written by Peter Selinger 2001-2019
</metadata>
  <g transform="translate(0.000000,1024.000000) scale(0.100000,-0.100000)" fill="#000000" stroke="none">
    <path d="M3620 9623 c-27 -3 -54 -13 -67 -25 -12 -11 -43 -77 -68 -147 -59&#xA;-158 -339 -995 -387 -1156 -65 -216 -161 -530 -163 -533 -1 -1 -51 2 -111 7&#xA;-132 13 -361 28 -546 37 -162 8 -187 1 -223 -60 -39 -66 -167 -411 -299 -806&#xA;-25 -74 -75 -223 -111 -330 -128 -375 -302 -934 -361 -1152 -74 -279 -134&#xA;-529 -134 -561 0 -48 28 -79 123 -135 45 -27 177 -107 292 -176 116 -70 269&#xA;-156 340 -192 121 -60 143 -67 315 -104 102 -21 239 -48 305 -60 66 -12 123&#xA;-25 128 -29 4 -4 -30 -34 -75 -67 -117 -83 -625 -465 -800 -602 -175 -135&#xA;-218 -179 -218 -223 0 -34 237 -512 278 -561 12 -14 39 -32 60 -39 20 -6 120&#xA;-46 222 -87 255 -103 419 -162 451 -162 16 0 47 15 74 36 155 118 325 252 358&#xA;281 22 19 40 33 42 31 2 -2 33 -68 70 -148 115 -250 145 -309 166 -320 37 -20&#xA;714 -240 757 -247 43 -6 44 -5 99 53 62 67 753 887 949 1127 l129 159 115 -6&#xA;c63 -3 133 -6 156 -6 37 0 44 -4 74 -47 19 -27 79 -109 133 -183 219 -297 197&#xA;-280 348 -256 57 10 184 33 282 53 98 19 180 34 182 32 1 -2 74 -114 160 -249&#xA;233 -362 242 -375 269 -388 25 -11 271 -61 406 -82 52 -8 83 -9 100 -2 27 11&#xA;233 172 288 225 42 40 41 68 -5 143 -57 93 -215 362 -256 435 l-37 67 40 16&#xA;c22 9 44 16 49 16 8 0 148 -222 261 -415 97 -166 139 -225 173 -240 40 -18&#xA;397 -74 479 -75 43 0 91 36 348 259 270 234 300 266 300 318 -1 24 -43 89&#xA;-172 263 -271 368 -420 571 -565 773 -95 132 -167 224 -184 233 -37 18 -62 18&#xA;-198 -6 -62 -11 -120 -20 -128 -20 -15 0 -15 33 2 360 17 321 15 307 41 321&#xA;58 31 72 62 251 569 79 224 83 244 51 287 -71 97 -322 385 -346 397 -29 15&#xA;-756 123 -897 133 -113 8 -119 2 -190 -202 -70 -200 -72 -204 -90 -211 -9 -4&#xA;-97 10 -198 29 -156 31 -384 70 -689 118 -43 6 -78 15 -78 19 0 9 92 280 148&#xA;437 61 170 59 185 -30 258 -126 103 -278 236 -278 244 0 14 589 1368 687 1581&#xA;79 170 123 280 123 308 0 20 -14 48 -42 85 -250 324 -301 388 -327 406 -16 12&#xA;-55 28 -87 36 -73 18 -516 91 -642 105 -121 13 -143 3 -182 -83 -33 -74 -308&#xA;-744 -357 -872 -133 -346 -307 -810 -345 -918 l-23 -69 -60 7 c-33 4 -61 8&#xA;-63 10 -2 1 20 65 48 141 80 216 180 494 180 499 0 3 22 67 50 143 172 477&#xA;260 736 260 764 0 54 -51 125 -197 274 -110 113 -145 143 -173 148 -40 8 -691&#xA;15 -760 9z m621 -170 l27 -8 -58 -170 c-57 -166 -221 -638 -355 -1020 -37&#xA;-104 -96 -273 -131 -375 -52 -151 -67 -185 -81 -183 -184 18 -360 34 -444 39&#xA;l-107 7 25 81 c175 582 522 1624 542 1629 30 8 556 7 582 0z m294 -416 c-29&#xA;-84 -83 -237 -120 -342 -95 -268 -194 -554 -283 -810 -41 -121 -76 -221 -77&#xA;-223 -2 -2 -269 19 -272 22 -1 1 57 168 128 371 72 204 166 471 209 595 60&#xA;175 172 491 265 748 3 8 45 -32 104 -98 l100 -111 -54 -152z m883 343 c261&#xA;-39 411 -65 419 -73 3 -4 -69 -183 -162 -399 -92 -215 -232 -545 -310 -732&#xA;-144 -343 -299 -706 -316 -738 -8 -15 -18 -10 -84 37 -93 66 -132 81 -270 100&#xA;-60 9 -131 20 -157 26 l-46 11 38 106 c114 320 368 971 532 1362 121 290 139&#xA;330 149 330 5 0 98 -13 207 -30z m642 -303 c60 -75 110 -142 110 -147 0 -5&#xA;-66 -159 -146 -342 -80 -183 -244 -560 -364 -838 -229 -531 -259 -600 -267&#xA;-600 -4 0 -214 157 -250 186 -11 9 -10 16 1 40 39 79 316 709 406 924 225 537&#xA;338 808 360 863 13 31 27 56 32 55 4 -2 57 -65 118 -141z m-3550 -1447 c80 -5&#xA;197 -15 260 -20 63 -6 198 -17 300 -25 173 -14 659 -59 760 -70 25 -2 99 -9&#xA;165 -15 265 -23 455 -42 560 -56 61 -7 117 -14 125 -14 46 -1 45 -11 -35 -253&#xA;-55 -166 -76 -243 -71 -261 8 -33 49 -45 75 -22 10 9 55 120 101 246 45 127&#xA;86 230 90 230 23 0 646 -489 843 -661 l39 -34 -306 -920 c-168 -506 -328 -992&#xA;-356 -1080 -120 -372 -202 -621 -210 -628 -4 -5 -195 84 -425 197 -347 171&#xA;-416 208 -412 223 3 10 21 72 41 138 156 532 167 574 156 595 -13 25 -51 26&#xA;-72 3 -18 -21 -48 -115 -147 -467 -39 -137 -73 -251 -75 -253 -15 -16 -1392&#xA;222 -2361 406 l-250 48 3 34 c5 58 84 332 254 879 39 124 77 251 86 283 9 31&#xA;19 57 23 57 3 0 9 -21 13 -47 7 -57 52 -155 91 -201 62 -73 209 -142 302 -142&#xA;59 0 133 19 191 49 24 12 45 21 47 19 2 -2 62 -77 134 -168 l132 -165 -6 -95&#xA;c-3 -52 -8 -125 -11 -162 l-6 -66 -51 15 c-102 29 -165 64 -217 119 -75 80&#xA;-102 144 -101 248 1 70 -2 86 -19 101 -25 23 -63 13 -78 -20 -16 -35 -15 -128&#xA;2 -192 23 -88 58 -145 131 -218 79 -78 159 -124 270 -153 l69 -19 33 -84 c40&#xA;-102 88 -167 170 -230 92 -70 156 -92 289 -97 174 -6 283 33 389 142 110 113&#xA;189 290 202 452 11 134 -49 263 -141 305 -52 23 -123 25 -148 2 -31 -28 -18&#xA;-81 24 -95 20 -7 -55 -92 -126 -143 -80 -57 -150 -88 -251 -114 -76 -19 -239&#xA;-41 -306 -41 l-31 0 6 73 c3 39 8 109 12 154 l6 83 147 87 c80 48 184 107 231&#xA;131 94 50 125 74 146 114 32 61 11 114 -59 149 -43 23 -293 67 -500 90 l-114&#xA;13 38 59 c83 129 130 306 130 497 0 117 -15 190 -61 284 -34 72 -128 171 -186&#xA;197 -64 29 -172 42 -241 30 -60 -11 -182 -66 -218 -98 -12 -10 -31 -27 -43&#xA;-38 l-23 -19 11 29 c7 17 59 162 116 324 58 162 107 297 109 301 2 3 46 2 97&#xA;-2 51 -4 158 -12 238 -18z m-102 -610 c141 -61 215 -240 192 -466 -17 -166&#xA;-57 -275 -157 -426 -44 -67 -161 -184 -185 -186 -7 0 -38 -8 -68 -16 -82 -23&#xA;-155 -20 -219 9 -109 51 -160 113 -196 239 -14 46 -16 83 -12 165 6 126 32&#xA;231 86 346 46 99 73 137 155 223 104 109 177 144 286 138 39 -2 86 -12 118&#xA;-26z m4889 -860 c310 -44 403 -58 403 -64 0 -14 -142 -351 -147 -349 -5 0&#xA;-154 33 -333 72 -179 39 -344 73 -367 77 -24 4 -43 10 -43 15 0 5 17 53 38&#xA;106 21 54 46 119 56 146 10 26 23 47 29 47 7 0 171 -23 364 -50z m568 -187&#xA;c28 -37 80 -102 117 -146 l67 -79 -33 -92 c-18 -50 -60 -163 -92 -251 l-59&#xA;-160 -5 177 -5 177 -30 31 c-16 17 -55 40 -87 52 -32 11 -61 25 -64 29 -3 5&#xA;15 55 40 112 25 57 55 129 66 160 12 31 24 57 28 57 4 0 30 -30 57 -67z&#xA;m-5285 -34 c148 -18 472 -68 477 -73 2 -2 -28 -23 -69 -47 -40 -23 -93 -56&#xA;-118 -74 -25 -18 -85 -54 -133 -80 l-89 -48 -31 38 c-18 21 -73 91 -123 154&#xA;-75 95 -90 119 -82 135 8 15 17 17 51 12 23 -4 76 -11 117 -17z m3190 1 c663&#xA;-108 1782 -339 1919 -396 l34 -14 -7 -268 c-8 -330 -23 -744 -36 -1001 -12&#xA;-222 -7 -244 49 -249 44 -4 68 19 77 73 7 50 -3 46 167 71 102 15 120 16 131&#xA;3 8 -8 85 -115 173 -239 88 -124 231 -322 318 -440 87 -118 194 -263 237 -321&#xA;43 -58 78 -108 78 -111 0 -6 -228 -211 -361 -325 -55 -47 -104 -82 -108 -77&#xA;-10 10 -294 459 -435 686 -71 114 -105 159 -125 168 -33 13 -23 17 -477 -168&#xA;-176 -72 -333 -134 -349 -138 l-28 -7 7 244 c6 249 12 429 21 738 5 147 3 177&#xA;-10 197 -18 27 -56 32 -75 9 -20 -24 -31 -234 -46 -905 -4 -151 -8 -277 -10&#xA;-279 -2 -3 -82 12 -177 33 -117 25 -176 42 -185 54 -11 13 -13 57 -8 212 3&#xA;107 8 382 11 610 4 228 8 425 10 436 6 27 22 31 342 88 353 63 364 64 528 31&#xA;126 -25 137 -26 160 -11 33 21 41 58 21 89 -17 25 -81 48 -231 83 -93 21 -163&#xA;16 -475 -41 -443 -79 -462 -85 -479 -152 -11 -46 -21 -399 -21 -787 l0 -289&#xA;-332 7 c-183 4 -334 9 -337 10 -4 2 -94 7 -201 11 -107 4 -196 8 -198 10 -2 2&#xA;33 50 78 107 188 238 192 243 188 285 -3 35 -5 38 -37 41 -31 3 -40 -3 -99&#xA;-65 -79 -84 -227 -258 -590 -695 -641 -770 -792 -948 -802 -948 -4 0 -10 8&#xA;-13 18 -3 9 -33 84 -67 166 l-61 149 28 31 c15 17 62 67 104 111 300 317 447&#xA;477 451 493 9 33 -9 62 -39 62 -23 0 -54 -27 -168 -144 l-140 -144 -33 14&#xA;c-19 8 -120 40 -225 70 -361 104 -360 104 -345 121 15 18 381 363 566 533&#xA;l121 111 128 -15 c70 -9 189 -20 263 -26 244 -20 261 -17 300 66 20 41 594&#xA;1747 656 1952 14 45 28 82 32 82 4 0 63 -9 132 -20z m-2315 -917 c-72 -113&#xA;-153 -185 -247 -219 -45 -16 -161 -24 -173 -12 -11 11 30 71 81 118 65 60 249&#xA;137 333 139 23 1 23 1 6 -26z m-1850 -257 c171 -38 905 -175 1255 -235 96 -17&#xA;238 -42 315 -56 192 -34 701 -115 724 -115 16 0 736 -349 720 -350 -4 0 -44 6&#xA;-90 14 -46 8 -109 17 -139 20 -69 8 -408 68 -605 106 -82 16 -242 46 -355 65&#xA;-570 100 -1313 247 -1385 275 -14 5 -106 54 -203 109 -97 54 -215 119 -262&#xA;145 -47 26 -76 45 -65 42 11 -3 52 -12 90 -20z m1450 -641 c83 -15 220 -40&#xA;305 -56 85 -15 179 -31 208 -35 28 -4 52 -9 51 -13 0 -3 -35 -31 -77 -62 -42&#xA;-31 -138 -101 -212 -156 -354 -262 -553 -403 -561 -398 -11 7 -193 71 -424&#xA;150 -93 32 -181 62 -194 67 -22 8 -19 12 50 62 41 29 180 130 310 224 313 227&#xA;350 252 374 247 11 -2 88 -16 170 -30z m870 -149 c33 -8 82 -17 108 -21 27 -3&#xA;47 -10 45 -15 -3 -9 -121 -121 -533 -510 -318 -299 -306 -289 -461 -411 -253&#xA;-200 -477 -374 -484 -377 -8 -3 -41 74 -111 257 l-43 114 33 27 c18 16 94 72&#xA;169 126 76 54 307 222 515 373 653 476 617 451 662 451 22 0 67 -6 100 -14z&#xA;m-1695 -516 c0 -4 -37 -36 -82 -71 -46 -34 -106 -82 -135 -106 l-52 -44 -106&#xA;42 -105 41 47 37 c26 20 87 68 136 107 l88 71 105 -35 c57 -19 104 -38 104&#xA;-42z m298 -97 c116 -37 140 -48 125 -56 -10 -6 -80 -57 -155 -115 l-137 -104&#xA;-63 21 c-97 33 -228 85 -227 91 1 10 284 208 299 209 8 1 79 -20 158 -46z&#xA;m3622 32 c113 -2 215 -4 228 -5 21 0 22 -4 22 -80 0 -46 6 -95 14 -114 l13&#xA;-32 -86 -19 c-47 -10 -151 -30 -230 -46 l-144 -27 -21 25 c-29 37 -216 303&#xA;-216 309 0 2 48 2 108 -1 59 -3 199 -7 312 -10z m1794 -157 c43 -68 147 -231&#xA;232 -362 85 -131 153 -241 150 -243 -4 -5 -276 34 -297 42 -8 3 -56 74 -106&#xA;158 -224 376 -255 429 -251 433 6 6 181 92 189 93 3 1 41 -54 83 -121z m-6094&#xA;-77 c84 -28 83 -27 159 -190 92 -199 88 -189 70 -175 -8 6 -39 19 -69 29 -30&#xA;10 -60 22 -66 27 -11 8 -174 331 -174 344 0 3 10 0 23 -8 12 -8 38 -20 57 -27z&#xA;m1729 -51 c57 -16 105 -30 106 -32 2 -2 -50 -59 -115 -127 l-119 -124 -123 43&#xA;c-68 23 -125 45 -128 47 -3 3 2 8 11 13 20 11 86 70 168 147 36 35 73 63 81&#xA;63 8 -1 62 -14 119 -30z m3757 -78 c56 -100 235 -405 247 -421 9 -11 1 -23&#xA;-37 -57 -26 -24 -60 -53 -75 -63 l-27 -20 -64 120 c-71 134 -98 169 -133 169&#xA;-63 0 -61 -48 8 -189 30 -62 55 -114 55 -115 0 -7 -296 57 -307 67 -7 5 -70&#xA;101 -140 213 -71 112 -147 234 -171 271 -31 49 -39 69 -28 71 7 2 69 -11 136&#xA;-27 162 -41 205 -40 360 13 69 23 128 41 132 39 4 -2 24 -34 44 -71z m-5141&#xA;-2 c61 -24 115 -49 122 -57 6 -8 31 -63 54 -121 23 -59 50 -126 61 -149 10&#xA;-23 18 -44 18 -47 0 -2 -37 12 -82 31 -46 19 -96 39 -113 44 -26 8 -40 30&#xA;-110 169 -92 184 -92 185 -74 178 8 -4 64 -25 124 -48z m1774 -33 l111 -32&#xA;-123 -131 -122 -131 -35 13 c-19 7 -82 27 -139 44 l-104 32 95 96 c52 54 106&#xA;109 119 124 29 33 37 32 198 -15z m-639 -238 c47 -17 91 -36 98 -42 7 -5 29&#xA;-44 48 -86 20 -42 53 -111 74 -153 24 -52 33 -78 24 -78 -23 0 -189 62 -207&#xA;78 -22 19 -35 46 -103 201 -41 95 -49 122 -36 118 9 -3 55 -20 102 -38z m330&#xA;-112 c47 -14 97 -28 112 -31 33 -7 64 -57 114 -183 20 -48 45 -105 55 -125 11&#xA;-21 18 -38 17 -38 -2 0 -55 18 -118 39 l-115 38 -70 134 c-39 74 -78 145 -88&#xA;159 -20 29 -22 44 -4 38 6 -3 50 -17 97 -31z"/>
    <path d="M4030 6975 c-201 -34 -352 -143 -476 -343 -92 -147 -133 -279 -141&#xA;-460 -10 -200 36 -340 156 -473 94 -105 201 -154 361 -166 181 -12 322 47 475&#xA;201 69 69 101 110 132 171 83 162 120 334 110 514 -10 185 -59 296 -186 421&#xA;-74 73 -139 112 -226 135 -69 18 -103 18 -205 0z m193 -110 c137 -36 252 -161&#xA;303 -331 14 -44 18 -92 18 -189 -1 -112 -5 -143 -28 -220 -39 -129 -99 -235&#xA;-176 -314 -116 -117 -234 -172 -373 -172 -231 0 -384 121 -443 351 -22 87 -15&#xA;264 16 370 48 167 189 367 306 436 92 54 140 67 304 83 9 0 42 -6 73 -14z"/>
    <path d="M3985 6508 c-38 -20 -106 -93 -135 -143 -57 -100 -79 -247 -51 -343&#xA;23 -82 98 -142 176 -142 50 0 84 20 140 82 190 211 154 559 -59 558 -28 0 -60&#xA;-6 -71 -12z"/>
    <path d="M2272 6641 c-60 -47 -84 -80 -122 -165 -74 -162 -52 -332 48 -383 97&#xA;-48 191 6 266 155 86 171 69 360 -37 411 -65 31 -97 27 -155 -18z"/>
    <path d="M5326 2544 c-40 -39 -14 -64 179 -175 195 -111 462 -288 610 -404&#xA;106 -82 399 -324 440 -362 56 -52 248 -214 266 -223 11 -6 32 -10 47 -8 33 4&#xA;41 42 18 86 -19 36 -288 310 -417 425 -302 268 -782 574 -1026 656 -75 25 -96&#xA;26 -117 5z"/>
    <path d="M6455 2276 c-34 -25 -9 -64 85 -135 107 -80 206 -163 445 -371 319&#xA;-278 329 -285 370 -240 17 18 16 21 -8 62 -47 81 -399 406 -592 548 -88 65&#xA;-236 150 -260 150 -12 0 -30 -6 -40 -14z"/>
    <path d="M4861 2238 c-29 -10 -28 -58 2 -85 12 -11 83 -55 157 -98 314 -182&#xA;606 -372 820 -534 132 -100 182 -126 213 -109 61 32 16 89 -228 289 -183 149&#xA;-515 361 -738 470 -137 67 -187 82 -226 67z"/>
    <path d="M5417 1274 c-1 -1 -60 -4 -130 -8 -70 -3 -234 -15 -365 -26 -210 -19&#xA;-326 -30 -707 -70 -267 -28 -876 -106 -1051 -135 -77 -13 -172 -34 -209 -47&#xA;-58 -19 -70 -27 -76 -50 -9 -35 8 -49 64 -55 38 -4 335 23 692 63 72 8 218 23&#xA;325 34 107 11 215 22 240 25 25 2 95 10 155 16 61 6 155 17 210 24 54 8 100&#xA;13 102 11 1 -1 -75 -28 -170 -60 -220 -74 -274 -99 -289 -132 -11 -24 -10 -29&#xA;17 -51 29 -25 31 -25 150 -19 66 4 143 9 170 11 308 27 430 38 545 50 292 31&#xA;532 55 690 70 229 21 361 35 390 42 48 11 6 -13 -55 -31 -33 -10 -77 -27 -97&#xA;-37 -58 -30 -61 -80 -8 -109 32 -17 583 46 1270 145 96 14 240 35 320 46 146&#xA;21 310 52 343 64 29 12 34 55 7 77 -33 27 -150 25 -515 -7 -200 -18 -630 -73&#xA;-855 -110 -38 -6 -36 -4 47 30 35 15 51 49 33 70 -26 31 -80 38 -255 31 -216&#xA;-8 -603 -36 -705 -51 -14 -2 -61 -6 -105 -10 -44 -4 -93 -8 -110 -11 -16 -2&#xA;-68 -8 -115 -14 -47 -6 -122 -15 -168 -21 -46 -6 -85 -9 -87 -7 -2 2 71 25&#xA;163 52 263 77 293 87 313 107 24 24 24 41 2 68 -15 17 -32 21 -96 23 -43 2&#xA;-79 2 -80 2z"/>
  </g>
  <title>Rabbit</title>
  <desc>Rabbit</desc>
</svg>