<?xml version="1.0" standalone="no"?>
<!DOCTYPE svg PUBLIC "-//W3C//DTD SVG 20010904//EN"
 "http://www.w3.org/TR/2001/REC-SVG-20010904/DTD/svg10.dtd">
<svg version="1.0" xmlns="http://www.w3.org/2000/svg"
 width="1024.000000pt" height="1024.000000pt" viewBox="0 0 1024.000000 1024.000000"
 preserveAspectRatio="xMidYMid meet">
<metadata>
Created by potrace 1.16, written by Peter Selinger 2001-2019
</metadata>
<g transform="translate(0.000000,1024.000000) scale(0.100000,-0.100000)"
fill="#000000" stroke="none">
<path d="M1170 9804 c-101 -30 -173 -70 -252 -143 -55 -50 -71 -82 -48 -96 6
-4 38 15 73 40 167 126 358 171 552 130 104 -22 187 -67 265 -144 89 -88 125
-163 142 -295 8 -55 18 -101 23 -103 6 -2 39 24 74 57 144 137 397 207 601
166 113 -23 179 -54 245 -117 96 -91 106 -171 39 -305 -48 -96 -21 -114 95
-61 169 77 381 77 523 0 71 -39 141 -118 163 -183 10 -30 22 -60 27 -67 7 -9
42 -10 126 -6 133 6 205 -7 308 -57 55 -27 96 -72 76 -83 -72 -41 -837 -62
-1114 -31 -131 15 -151 15 -164 2 -92 -92 758 -131 1234 -56 89 13 111 30 119
85 5 38 2 45 -37 87 -50 54 -154 108 -243 126 -32 6 -101 10 -153 9 l-95 -3
-25 54 c-53 114 -156 202 -288 242 -106 33 -262 31 -371 -5 -43 -14 -80 -25
-82 -24 -1 1 2 20 7 42 17 73 12 126 -20 192 -130 276 -613 340 -937 124 l-73
-49 0 28 c0 48 -38 154 -78 216 -73 113 -188 193 -332 233 -109 31 -266 28
-380 -5z"/>
<path d="M9190 9512 c-172 -58 -306 -175 -389 -341 -23 -45 -35 -60 -44 -53
-7 5 -38 19 -71 31 -78 29 -224 30 -311 3 -141 -44 -270 -157 -355 -314 l-29
-53 -153 0 c-131 -1 -161 -4 -211 -23 -178 -66 -304 -174 -330 -283 -10 -38 6
-46 108 -53 50 -4 113 -9 142 -12 97 -9 798 -6 958 5 298 20 345 27 345 50 0
17 -40 18 -734 17 -404 -1 -738 2 -742 7 -13 13 87 106 161 150 38 22 96 49
128 59 73 23 194 24 288 2 38 -9 76 -14 83 -11 8 3 33 45 56 94 76 155 213
270 353 294 102 17 168 6 264 -43 67 -35 84 -40 96 -29 9 7 36 55 62 107 80
165 209 272 379 315 102 25 266 -7 405 -81 58 -31 81 -33 81 -5 0 41 -89 103
-217 151 -94 35 -244 42 -323 16z"/>
<path d="M4357 9390 c-49 -9 -97 -33 -97 -50 0 -20 40 -28 170 -33 101 -3 153
-10 205 -27 102 -32 233 -103 297 -160 84 -74 120 -66 66 14 -98 148 -449 288
-641 256z"/>
<path d="M250 9247 l0 -44 113 -16 c61 -9 135 -19 162 -22 58 -8 367 -63 371
-67 1 -2 7 -128 13 -281 5 -152 13 -282 16 -287 3 -6 16 -10 27 -10 l21 0 -7
285 -6 285 24 0 c27 0 297 -38 332 -46 18 -5 22 -16 28 -67 11 -96 25 -483 26
-674 0 -146 2 -174 16 -188 16 -15 18 -15 35 2 16 16 19 46 25 276 4 141 8
257 10 257 2 0 49 -9 106 -19 57 -11 122 -23 146 -26 71 -11 72 -15 72 -200 0
-191 27 -611 42 -638 5 -10 17 -17 26 -15 15 3 17 27 17 245 0 133 3 244 6
247 3 3 86 -8 185 -24 127 -22 184 -36 197 -48 17 -18 24 -100 50 -665 2 -43
8 -82 14 -88 6 -6 82 -24 169 -40 110 -21 165 -36 177 -48 20 -20 44 -166 68
-419 11 -108 16 -135 30 -143 12 -6 22 -4 33 6 11 12 13 33 9 110 -7 111 -20
103 130 79 147 -23 143 -20 162 -108 17 -77 34 -103 60 -92 37 14 5 202 -39
231 -21 14 -107 36 -202 51 -21 3 -57 9 -79 13 l-40 7 -16 114 c-31 229 -30
227 -289 274 l-115 21 2 199 c2 110 5 201 7 204 3 2 46 -8 97 -22 291 -84 557
-224 879 -465 74 -56 140 -101 147 -101 78 0 -179 234 -417 380 -184 113 -419
213 -636 270 l-82 22 -7 73 c-8 93 -29 172 -50 195 -19 21 -129 49 -314 80
-69 12 -128 23 -133 26 -4 3 -8 59 -8 125 0 198 -3 201 -253 250 -83 16 -152
31 -154 32 -2 2 -7 58 -13 125 -12 152 -22 198 -51 228 -30 32 -56 38 -294 69
-110 14 -263 36 -340 50 -77 13 -207 33 -290 45 -82 11 -165 23 -182 26 l-33
6 0 -45z"/>
<path d="M9795 8391 c-202 -32 -349 -117 -722 -417 -60 -47 -113 -88 -120 -91
-7 -3 -26 2 -43 10 -81 41 -197 60 -347 59 -214 -2 -430 -84 -808 -307 -110
-65 -234 -137 -275 -161 -139 -80 -205 -128 -208 -152 -2 -12 3 -24 11 -28 16
-6 145 60 327 166 436 256 511 295 650 341 136 44 263 69 354 69 110 0 270
-33 263 -54 -3 -10 -113 -102 -184 -154 -25 -19 -27 -22 -12 -37 14 -14 19
-14 50 -1 45 19 145 91 349 252 340 269 430 329 585 390 90 36 218 58 282 48
43 -6 43 -6 43 24 0 17 -4 33 -10 37 -17 10 -133 14 -185 6z"/>
<path d="M4835 8345 c-44 -26 -96 -57 -115 -69 -96 -64 -307 -200 -405 -261
-193 -120 -489 -318 -512 -343 -13 -14 -23 -35 -23 -48 0 -13 21 -70 46 -126
26 -57 64 -143 84 -193 21 -49 70 -163 109 -253 39 -90 71 -165 71 -167 0 -2
-26 -11 -57 -20 -88 -25 -531 -171 -673 -221 -228 -81 -384 -147 -418 -179
-39 -35 -44 -64 -66 -328 -8 -93 -15 -169 -17 -171 -2 -1 -110 -39 -239 -83
-129 -44 -262 -91 -296 -104 l-60 -23 -75 50 c-339 228 -1064 603 -1171 606
-42 1 -86 -45 -92 -96 -10 -80 -16 -227 -27 -686 -6 -256 -13 -467 -15 -469
-2 -3 -53 -3 -112 -2 -116 3 -254 -12 -342 -35 -116 -31 -157 -61 -127 -92 13
-12 25 -11 88 7 100 28 263 50 384 53 l100 3 -2 -100 c-2 -55 -5 -123 -8 -151
l-6 -50 -119 -17 c-177 -24 -330 -81 -330 -123 0 -28 29 -26 192 15 90 22 182
43 206 46 40 6 42 5 42 -17 0 -14 -4 -49 -10 -79 -19 -102 -101 -634 -115
-747 -8 -62 -17 -156 -21 -210 -6 -90 -5 -99 16 -124 50 -64 160 -27 710 245
162 80 354 179 425 220 72 40 166 94 210 119 44 25 94 53 111 63 31 18 34 18
145 -3 63 -11 163 -30 223 -42 60 -11 111 -22 113 -24 2 -2 -3 -54 -11 -115
-9 -62 -16 -140 -16 -175 0 -60 2 -66 32 -91 18 -15 56 -39 85 -53 29 -15 53
-29 53 -33 0 -3 -65 -66 -145 -139 -181 -165 -265 -256 -265 -285 0 -15 20
-42 58 -76 69 -64 313 -230 467 -319 61 -35 131 -78 156 -97 77 -54 95 -49
206 59 52 51 165 172 251 268 87 96 177 196 202 223 l46 49 144 -12 c125 -9
152 -15 197 -38 l52 -27 36 19 c35 19 40 19 238 3 111 -10 270 -24 352 -31 83
-8 209 -17 280 -20 72 -4 162 -9 200 -11 60 -4 376 -18 413 -18 6 0 12 -4 12
-8 0 -4 -49 -66 -110 -139 -72 -86 -110 -140 -110 -156 0 -54 92 -125 347
-266 268 -148 450 -228 519 -228 24 0 42 9 66 33 82 82 281 396 390 615 l61
122 132 0 c114 0 499 17 810 35 192 12 697 59 745 71 42 9 79 54 109 133 35
91 106 392 156 661 20 107 41 224 48 259 l12 65 75 14 c43 7 83 21 93 31 10
10 24 44 32 77 21 91 57 343 56 399 0 59 -19 79 -81 90 -22 4 -42 11 -45 16
-3 4 5 109 19 231 43 382 49 475 50 763 0 288 -14 476 -39 525 -19 37 -36 47
-220 127 -546 240 -1089 423 -2000 675 -228 63 -231 63 -355 62 -111 -1 -156
-8 -395 -58 -148 -30 -272 -52 -276 -48 -3 4 -32 77 -64 162 -114 306 -288
743 -310 776 -21 33 -204 90 -480 150 -12 3 -53 -14 -100 -41z m143 -132 c11
-21 25 -56 32 -78 7 -22 44 -119 82 -215 69 -174 257 -667 261 -684 2 -8 -253
-74 -289 -76 -5 0 -45 89 -87 198 -42 108 -101 258 -132 332 -31 74 -69 168
-86 208 -16 40 -43 99 -59 132 l-30 59 33 23 c89 64 215 137 234 138 16 0 28
-11 41 -37z m231 -32 c57 -16 109 -35 116 -43 42 -45 347 -839 329 -858 -3 -3
-46 -12 -95 -21 -64 -12 -91 -13 -98 -5 -8 10 -111 273 -231 591 -21 55 -63
158 -94 229 -31 72 -56 131 -56 133 0 7 32 1 129 -26z m-568 -168 c6 -20 41
-102 77 -182 35 -80 84 -193 107 -251 119 -293 158 -387 171 -411 l13 -27 -62
-16 c-276 -72 -358 -92 -365 -87 -5 3 -35 71 -67 151 -66 167 -125 307 -167
400 -95 205 -98 213 -88 225 9 11 51 40 270 184 41 27 80 50 87 50 6 1 17 -16
24 -36z m-432 -282 c11 -21 57 -121 102 -222 44 -101 91 -206 104 -234 46
-101 108 -256 104 -259 -11 -11 -305 -84 -310 -78 -4 4 -20 39 -37 77 -78 182
-175 404 -212 481 -22 47 -38 90 -34 95 5 8 254 179 261 179 2 0 11 -17 22
-39z m2815 -596 c479 -119 1094 -317 1461 -470 411 -171 450 -190 456 -221 13
-58 9 -541 -7 -777 -25 -396 -41 -597 -47 -603 -5 -6 -192 42 -213 54 -9 5 -7
23 7 67 49 158 51 360 4 462 -30 66 -92 136 -147 164 -120 62 -265 8 -331
-123 -40 -79 -67 -254 -67 -435 0 -1 -19 5 -42 13 -86 30 -245 64 -304 64 -38
0 -118 -15 -220 -41 -87 -23 -215 -54 -284 -70 -69 -16 -135 -31 -147 -34 -18
-4 -26 2 -38 26 -9 17 -15 32 -13 33 2 2 28 8 58 14 157 34 264 208 277 452 6
115 -7 190 -51 286 -26 57 -91 125 -145 151 -47 22 -135 28 -190 13 -88 -23
-188 -149 -225 -280 -30 -109 -30 -317 1 -396 5 -15 1 -16 -41 -10 -26 4 -66
4 -87 1 -33 -6 -40 -11 -37 -28 2 -17 20 -26 93 -47 50 -14 111 -37 135 -52
60 -35 133 -110 176 -180 26 -42 41 -58 57 -58 86 1 457 64 585 100 20 5 41
10 45 10 7 0 6 -27 -8 -155 -2 -16 -7 -72 -11 -123 -8 -111 -4 -107 -154 -152
-90 -27 -121 -32 -220 -33 -134 -1 -204 15 -325 73 -78 38 -163 101 -208 157
-24 29 -67 100 -67 110 0 13 109 -11 149 -33 60 -33 81 -32 81 5 0 91 -190
168 -289 117 -37 -19 -89 -80 -97 -112 -9 -34 13 -48 43 -29 12 8 26 15 31 15
5 0 12 -53 15 -117 15 -271 114 -483 305 -649 96 -84 190 -137 322 -179 82
-27 95 -28 380 -35 286 -7 299 -8 415 -38 180 -46 421 -93 439 -86 17 7 36 35
36 53 0 6 -17 18 -37 26 -39 17 -325 95 -510 141 -62 15 -113 30 -113 34 0 4
32 27 71 50 39 23 102 69 140 102 53 45 75 59 92 55 12 -3 92 -9 177 -13 85
-4 162 -8 170 -10 8 -1 53 -3 99 -3 l84 -1 -7 -32 c-4 -18 -23 -127 -42 -243
-55 -326 -130 -650 -170 -726 -12 -25 -16 -26 -56 -18 -278 53 -397 78 -593
126 -126 31 -246 59 -265 63 -208 46 -356 80 -645 149 -187 45 -398 95 -470
112 -71 17 -184 43 -250 59 -66 15 -139 31 -162 35 -24 4 -45 10 -47 13 -3 6
31 192 60 330 6 28 16 28 179 -4 137 -26 215 -28 223 -6 2 7 -11 18 -30 26
-36 15 -288 66 -326 66 -31 0 -36 18 -23 97 6 37 24 172 41 298 17 127 42 311
55 410 14 99 36 272 49 385 14 113 36 297 50 410 32 259 62 528 83 740 8 91
17 167 19 169 4 5 89 -16 269 -66 236 -67 244 -68 257 -55 15 15 -5 39 -51 58
-41 18 -270 92 -383 125 -91 26 -85 10 -67 194 16 170 -5 158 206 115 98 -21
263 -59 367 -85z m-660 58 c-3 -32 -10 -94 -15 -138 -5 -44 -9 -85 -9 -91 0
-16 -9 -19 -182 -54 -170 -35 -314 -72 -347 -90 -13 -6 -21 -19 -19 -28 6 -28
56 -21 458 63 36 7 67 11 69 9 3 -3 -1 -53 -7 -112 -53 -461 -105 -924 -113
-1007 -11 -121 -62 -529 -89 -715 -10 -74 -29 -205 -40 -290 -11 -85 -27 -201
-35 -258 -8 -56 -15 -104 -15 -106 0 -2 -24 -7 -52 -11 -97 -13 -234 -42 -256
-54 -25 -13 -29 -39 -7 -47 8 -3 79 3 157 14 79 11 144 18 146 17 4 -4 -48
-330 -57 -350 -7 -18 -27 -24 -127 -39 -66 -10 -157 -24 -204 -31 -47 -8 -132
-19 -190 -25 -58 -6 -170 -19 -250 -30 -174 -23 -252 -29 -248 -21 3 7 60 81
169 220 141 180 236 306 247 328 24 44 13 67 -121 244 -174 232 -205 269 -234
280 -22 8 -23 13 -18 56 3 27 26 253 50 503 25 250 49 487 55 525 9 65 31 228
50 390 5 39 21 153 35 255 15 102 34 241 43 310 l18 125 224 43 c124 24 369
72 545 107 176 34 332 63 348 64 l27 1 -6 -57z m-1244 -205 c0 -7 -13 -107
-29 -223 -16 -115 -32 -235 -36 -265 l-6 -55 -132 -29 c-235 -50 -251 -55
-262 -70 -6 -8 -17 -70 -24 -137 -7 -67 -19 -163 -26 -213 -8 -51 -15 -113
-16 -139 -2 -26 -8 -52 -14 -57 -5 -5 -105 -21 -220 -35 -316 -40 -335 -45
-321 -81 6 -14 15 -16 69 -10 34 4 112 11 172 17 148 13 289 36 329 53 40 17
36 1 71 311 14 127 27 235 29 241 3 6 19 14 38 17 18 3 76 15 128 25 178 37
171 36 165 10 -2 -13 -12 -88 -20 -168 -13 -125 -40 -381 -75 -705 -5 -49 -19
-184 -30 -300 -11 -115 -24 -232 -28 -259 l-7 -50 -250 -58 c-138 -32 -320
-75 -405 -94 -137 -32 -255 -64 -594 -159 -107 -31 -143 -54 -151 -99 -8 -41
4 -66 279 -577 25 -48 46 -88 46 -91 0 -6 -523 1 -589 8 l-53 6 6 46 c12 99
19 379 9 385 -6 4 -18 0 -28 -7 -18 -13 -23 -50 -41 -328 l-6 -98 -61 4 c-316
22 -292 19 -290 41 0 9 6 115 12 234 7 119 19 314 27 434 9 120 13 225 10 233
-8 21 -34 17 -46 -7 -12 -22 -61 -429 -53 -441 7 -13 -12 -10 -202 27 -204 39
-429 75 -469 75 -26 0 -26 1 -25 73 1 39 6 146 12 237 l12 165 35 7 c19 4 109
14 199 23 91 8 168 18 172 22 11 11 31 247 27 308 -2 37 -7 51 -20 53 -27 5
-37 -29 -46 -167 -5 -73 -12 -135 -15 -138 -6 -6 -257 -32 -314 -33 -30 0 -31
1 -27 38 2 20 8 84 14 142 6 58 18 157 26 220 9 63 19 137 22 165 l7 49 75 29
c112 44 684 236 691 232 3 -2 -1 -66 -8 -142 -6 -76 -12 -153 -13 -172 l0 -34
63 6 c34 3 113 11 175 17 62 7 115 10 118 7 3 -3 -2 -87 -11 -186 -9 -100 -14
-188 -11 -197 4 -9 15 -14 28 -12 25 3 22 -16 52 293 11 107 12 153 4 162 -8
10 -28 12 -72 8 -88 -9 -216 -25 -250 -31 l-29 -6 7 73 c7 77 41 335 81 608
14 92 30 170 37 177 7 6 40 22 73 34 94 34 338 110 342 106 2 -2 -8 -76 -22
-166 -14 -89 -28 -193 -31 -231 l-7 -69 29 0 c16 0 91 9 167 21 76 12 140 19
143 16 4 -3 -1 -66 -10 -139 -9 -73 -17 -164 -19 -203 -2 -66 -1 -70 20 -73
27 -4 24 -17 58 243 15 110 28 207 31 215 9 35 -10 43 -77 31 -166 -29 -261
-42 -266 -37 -9 9 49 410 61 423 22 22 693 223 748 223 6 0 8 -21 4 -57 -9
-91 -11 -227 -2 -241 6 -10 34 -17 37 -9 1 1 6 76 12 167 l12 165 205 52 c333
83 534 132 553 132 9 1 17 -5 17 -11z m-3876 -820 c306 -148 504 -253 711
-381 72 -44 132 -82 135 -85 3 -2 -4 -9 -14 -16 -11 -6 -34 -23 -51 -38 -30
-26 -33 -34 -39 -108 -4 -44 -11 -80 -17 -80 -13 0 -598 237 -784 318 l-160
70 -3 44 c-7 83 10 368 21 368 6 0 97 -41 201 -92z m5944 -112 c43 -23 99 -87
124 -141 20 -44 23 -66 23 -170 -1 -136 -22 -225 -74 -307 -67 -106 -210 -138
-281 -63 l-22 24 35 30 c54 48 79 118 85 236 5 123 -8 177 -54 223 -27 27 -40
33 -64 30 -17 -3 -30 -3 -30 -1 0 30 88 125 130 142 37 14 97 13 128 -3z
m-6078 -327 c41 -17 127 -54 190 -82 63 -27 234 -99 380 -159 146 -60 269
-113 274 -118 8 -8 -17 -246 -27 -256 -6 -6 -492 15 -722 31 -104 7 -194 10
-199 7 -6 -3 -7 101 -3 259 4 145 7 286 7 313 0 34 4 47 13 43 6 -3 46 -20 87
-38z m7410 -6 c99 -58 138 -258 89 -463 -28 -120 -31 -124 -94 -105 -27 9 -67
20 -89 26 -36 10 -38 12 -32 42 21 101 25 169 15 224 -19 104 -44 135 -116
145 l-23 3 24 50 c26 57 41 72 93 91 42 15 94 10 133 -13z m-540 -538 c52 -14
138 -37 190 -50 52 -14 124 -34 160 -45 36 -10 110 -31 165 -45 55 -15 159
-44 232 -66 72 -22 171 -50 220 -62 l88 -22 -3 -34 c-6 -51 -58 -320 -64 -326
-12 -13 -242 41 -593 137 -121 33 -260 70 -310 83 -160 40 -265 76 -265 89 0
7 11 93 25 192 14 98 25 180 25 182 0 2 8 1 18 -2 9 -3 60 -17 112 -31z
m-6660 -119 c146 -8 339 -18 430 -22 91 -3 167 -8 169 -10 6 -5 2 -149 -5
-200 l-6 -41 -121 -22 c-304 -58 -495 -96 -652 -132 -93 -21 -171 -36 -174
-34 -2 3 1 51 7 107 7 57 15 162 18 233 4 76 11 133 18 138 6 4 20 5 31 3 11
-3 139 -12 285 -20z m3699 -376 c135 -177 178 -237 199 -271 l22 -37 -142
-135 c-169 -158 -457 -416 -682 -611 -89 -76 -180 -156 -203 -177 -24 -21 -44
-39 -46 -39 -11 0 -150 238 -145 250 2 5 86 64 188 132 274 184 691 493 714
530 8 13 7 21 0 28 -9 9 -50 -15 -155 -86 -266 -180 -726 -511 -749 -539 -27
-33 -23 -39 -197 264 -18 31 -33 61 -33 67 0 6 15 17 33 25 65 26 313 132 365
155 29 13 54 24 57 24 2 0 56 25 120 55 65 30 119 55 122 55 2 0 78 36 169 79
133 65 164 84 164 100 0 34 -30 26 -213 -55 -95 -43 -230 -103 -302 -134 -71
-31 -202 -90 -290 -130 -233 -106 -256 -114 -271 -98 -44 48 -165 280 -152
294 7 6 149 44 343 89 83 20 245 60 360 90 178 46 533 133 600 148 55 12 63 8
124 -73z m-3121 -92 l-3 -123 -45 -23 c-25 -12 -180 -81 -345 -153 -165 -72
-372 -164 -460 -205 -184 -84 -175 -88 -152 53 9 48 23 153 33 232 16 126 20
144 38 152 12 4 203 44 426 89 223 44 421 84 440 89 75 19 71 25 68 -111z
m5237 -93 c109 -78 189 -177 209 -259 7 -28 7 -28 -30 -22 -148 28 -334 178
-411 331 -45 88 -45 88 69 38 57 -25 130 -64 163 -88z m-5250 -154 c5 -24 15
-32 48 -43 26 -8 46 -22 52 -35 5 -13 13 -23 17 -23 30 0 -13 -28 -154 -100
-90 -45 -212 -110 -273 -143 -132 -73 -655 -329 -731 -357 -22 -9 -24 -7 -24
23 0 29 39 268 45 275 1 1 49 22 106 46 142 60 528 226 674 290 155 68 218 95
227 96 3 0 9 -13 13 -29z m1152 -828 c43 -21 80 -39 82 -40 2 -1 -2 -10 -10
-19 -22 -27 -257 -234 -335 -296 l-71 -57 -79 51 c-43 27 -82 53 -87 57 -4 4
23 32 60 63 93 76 353 278 358 278 3 0 40 -17 82 -37z m218 -89 c36 -14 65
-31 65 -38 0 -21 -256 -340 -333 -415 l-35 -33 -96 58 -96 59 38 35 c21 19 94
83 163 142 148 126 219 194 219 208 0 14 1 13 75 -16z m233 -95 c83 -28 91
-33 80 -47 -32 -42 -173 -207 -282 -329 -88 -100 -123 -132 -136 -128 -30 10
-130 66 -130 74 0 4 51 66 113 138 61 73 144 174 182 227 39 52 72 95 75 95 3
1 47 -13 98 -30z m2562 -177 c0 -11 -146 -228 -203 -301 -26 -34 -54 -64 -61
-67 -10 -4 -146 68 -176 94 -3 2 60 66 140 142 l145 139 78 1 c42 0 77 -4 77
-8z m329 -8 c9 -8 -221 -420 -275 -491 l-25 -33 -119 60 -119 60 70 87 c39 49
107 142 151 209 l79 120 117 -4 c64 -2 119 -6 121 -8z m317 -18 c-17 -67 -155
-327 -273 -513 -48 -76 -71 -103 -86 -103 -24 0 -186 72 -187 83 0 7 40 77
190 327 32 52 70 120 85 150 42 84 34 80 162 80 l115 0 -6 -24z"/>
<path d="M7155 6587 c-122 -41 -245 -148 -245 -214 0 -49 34 -41 114 25 26 22
70 47 98 56 64 20 180 20 233 -1 61 -24 99 -23 103 4 4 28 -49 88 -102 115
-50 26 -147 33 -201 15z"/>
<path d="M8438 6300 c-10 -6 -23 -20 -29 -31 -14 -27 10 -55 55 -65 97 -21
204 -105 255 -200 11 -21 28 -48 36 -59 16 -20 16 -20 35 3 53 65 -58 265
-183 328 -55 28 -143 41 -169 24z"/>
<path d="M5555 6208 c-72 -63 -161 -217 -224 -390 -130 -355 -129 -702 4 -974
37 -76 117 -174 141 -174 35 0 29 34 -23 150 -32 70 -69 214 -84 327 -25 186
10 469 87 701 32 99 111 270 138 302 29 33 38 61 25 76 -16 20 -24 18 -64 -18z"/>
<path d="M3778 5126 c-81 -6 -152 -16 -157 -21 -11 -11 -38 -267 -43 -410 -3
-69 -1 -80 14 -83 28 -6 36 30 52 237 9 107 19 198 23 202 5 4 91 12 192 17
190 11 222 19 208 56 -7 19 -61 19 -289 2z"/>
<path d="M252 8228 l3 -32 120 -19 c66 -10 183 -26 260 -35 l140 -18 12 -85
c7 -46 23 -198 38 -337 14 -140 27 -258 31 -263 9 -16 33 -10 45 12 7 14 9 57
4 134 l-7 113 43 -8 c24 -5 108 -18 185 -30 78 -13 147 -26 154 -30 19 -12 28
-72 45 -295 13 -170 19 -213 33 -227 18 -17 124 -45 277 -73 116 -22 246 -62
266 -83 25 -26 52 -206 64 -432 6 -106 29 -224 48 -248 18 -22 30 3 58 116 24
99 101 279 131 307 16 15 2 -139 -22 -254 -11 -52 -20 -105 -20 -119 0 -24 1
-24 18 -9 10 10 33 46 51 82 40 80 121 157 220 209 40 21 75 36 77 33 3 -2
-38 -71 -91 -152 -116 -177 -148 -236 -137 -247 6 -6 34 4 68 22 59 30 178 60
191 46 4 -3 -29 -42 -72 -86 -59 -60 -76 -83 -68 -91 16 -16 64 15 129 83 85
88 97 114 68 142 -18 18 -100 22 -153 6 -19 -5 -36 -8 -38 -7 -1 2 17 29 41
61 60 80 129 217 124 247 -3 22 -7 24 -58 24 -68 -1 -166 -44 -227 -102 l-42
-39 5 55 c2 31 1 79 -4 106 -7 47 -9 50 -36 48 -16 -1 -39 -12 -53 -24 -29
-28 -109 -164 -118 -202 -16 -62 -23 -27 -28 141 -8 281 -36 348 -163 390 -38
13 -154 44 -258 67 -103 24 -190 46 -192 48 -2 2 -13 95 -24 208 -11 112 -23
220 -26 239 -12 66 -36 79 -194 105 -52 8 -136 22 -186 31 l-92 15 -7 77 c-12
131 -35 283 -46 304 -15 28 -60 44 -164 58 -49 6 -152 20 -228 31 -76 10 -152
19 -168 19 -28 0 -30 -2 -27 -32z"/>
<path d="M6380 8072 c0 -13 27 -31 92 -62 90 -44 216 -127 270 -177 51 -48 67
4 18 60 -98 112 -380 245 -380 179z"/>
<path d="M9425 7490 c-57 -42 -95 -62 -131 -70 -57 -12 -130 -53 -236 -131
-94 -70 -108 -101 -68 -152 26 -33 137 -86 197 -94 25 -3 57 -16 72 -28 67
-56 130 -70 155 -33 13 19 19 20 41 10 28 -13 74 -16 99 -6 20 8 20 41 0 89
-8 20 -14 38 -12 39 76 57 95 64 154 59 92 -8 99 2 99 127 0 93 -2 104 -21
116 -19 13 -27 11 -79 -16 -52 -27 -62 -29 -92 -19 l-33 11 6 58 c12 118 -29
129 -151 40z m95 -44 c0 -42 -4 -45 -55 -38 l-39 5 39 33 c22 19 43 34 48 34
4 0 7 -15 7 -34z m-14 -102 c38 -9 78 -23 89 -31 28 -19 42 -17 90 16 24 16
45 28 47 26 2 -2 1 -31 0 -64 -4 -56 -6 -61 -27 -61 -13 0 -27 5 -30 10 -11
18 -32 10 -100 -39 -66 -48 -68 -49 -101 -35 -65 27 -114 14 -114 -32 0 -25
24 -38 48 -25 27 15 92 -29 92 -63 0 -11 -24 -6 -65 14 -26 13 -79 24 -142 30
-103 10 -194 37 -235 70 l-23 18 20 22 c28 31 129 102 200 140 54 29 66 31
121 26 33 -3 92 -13 130 -22z"/>
<path d="M9229 7234 c-11 -14 -10 -18 6 -30 25 -19 50 -18 70 3 16 16 16 17
-1 30 -24 18 -59 16 -75 -3z"/>
<path d="M8386 7346 c-55 -42 -107 -71 -149 -85 -72 -24 -119 -63 -99 -83 10
-10 23 -8 60 6 71 27 306 35 366 12 42 -16 46 -16 96 4 29 11 55 18 58 15 6
-6 3 -107 -4 -114 -2 -3 -25 3 -51 12 -45 17 -46 17 -104 -9 -60 -27 -70 -42
-45 -63 11 -9 23 -8 54 4 36 15 44 15 94 0 62 -17 102 -9 112 22 9 29 11 197
2 211 -11 19 -52 14 -105 -12 -36 -19 -56 -23 -77 -17 -28 7 -29 11 -34 75 -3
44 -10 70 -20 76 -35 22 -70 10 -154 -54z m112 -44 l3 -32 -55 0 c-31 0 -56 3
-56 8 0 11 83 62 95 59 6 -2 11 -18 13 -35z"/>
<path d="M579 7141 c-17 -14 -21 -23 -14 -30 6 -6 74 -20 150 -32 246 -37 436
-76 462 -96 30 -21 49 -70 88 -218 29 -111 37 -127 62 -118 18 7 16 44 -6 155
-27 127 -56 203 -89 227 -54 38 -191 70 -475 111 -167 24 -150 24 -178 1z"/>
<path d="M9578 6709 c-38 -22 -89 -47 -115 -55 -52 -16 -180 -98 -197 -127
-16 -27 26 -59 115 -87 53 -17 87 -35 119 -65 25 -22 60 -47 78 -54 30 -13 36
-12 60 6 29 22 40 59 23 76 -21 21 -11 36 38 59 43 21 51 22 81 10 51 -20 70
4 77 99 5 63 3 78 -12 92 -20 21 -43 16 -97 -19 -53 -34 -60 -31 -55 20 5 46
-12 86 -36 86 -7 0 -42 -18 -79 -41z m60 -41 c-6 -17 -36 -34 -45 -24 -4 4 1
14 11 22 24 17 39 18 34 2z m162 -98 c0 -45 1 -44 -35 -30 -21 8 -35 4 -83
-23 -48 -27 -71 -33 -147 -38 -76 -6 -98 -4 -142 13 -29 11 -53 23 -53 28 0 5
29 25 63 45 75 41 120 44 239 16 l77 -18 33 23 c18 13 36 23 41 24 4 0 7 -18
7 -40z m-203 -175 c9 -25 -2 -27 -28 -6 l-24 20 23 1 c12 0 25 -7 29 -15z"/>
<path d="M503 6664 c-3 -8 -2 -19 3 -23 10 -9 294 -81 319 -81 27 0 17 39 -16
55 -35 19 -230 65 -272 65 -16 0 -30 -7 -34 -16z"/>
<path d="M454 6235 c-9 -22 9 -38 86 -71 36 -16 99 -48 140 -71 83 -47 110
-53 110 -24 0 23 -90 85 -195 136 -91 43 -133 52 -141 30z"/>
<path d="M9745 5949 c-205 -16 -494 -88 -547 -136 -38 -34 7 -56 60 -29 93 48
422 115 567 116 33 0 84 3 113 6 46 6 52 9 52 30 0 23 -3 24 -72 23 -40 -1
-118 -5 -173 -10z"/>
<path d="M9900 5723 c-332 -37 -630 -145 -630 -229 0 -54 77 -95 279 -149 132
-35 211 -68 218 -92 11 -31 -140 -100 -312 -143 -104 -26 -179 -51 -187 -62
-9 -16 10 -38 34 -38 30 0 213 48 313 82 122 42 179 72 204 107 59 83 -13 143
-239 201 -126 32 -240 76 -240 91 0 31 247 116 492 170 131 28 158 37 158 52
0 18 -10 19 -90 10z"/>
<path d="M9935 4879 c-226 -52 -480 -190 -500 -272 -12 -47 19 -107 90 -178
80 -78 125 -146 125 -186 0 -103 -177 -223 -464 -314 -121 -39 -162 -75 -123
-107 28 -23 252 41 398 113 136 67 234 147 270 217 45 89 16 162 -115 292 -53
51 -96 98 -97 102 0 5 -2 17 -4 27 -6 31 44 75 148 131 88 47 230 108 305 130
15 5 22 15 22 32 0 13 -3 24 -7 23 -5 -1 -26 -5 -48 -10z"/>
<path d="M2160 3699 c-262 -109 -598 -280 -679 -346 -13 -11 -21 -25 -17 -31
10 -16 89 15 398 156 122 56 413 200 446 221 35 23 45 61 15 61 -10 0 -83 -28
-163 -61z"/>
<path d="M9764 3542 c-16 -10 -89 -58 -160 -108 -136 -96 -343 -228 -479 -306
-156 -89 -489 -250 -692 -334 -338 -140 -438 -196 -474 -266 -26 -51 -21 -103
14 -150 14 -18 66 -66 115 -106 97 -80 129 -117 143 -165 22 -78 -30 -144
-201 -252 -224 -142 -397 -215 -953 -401 -459 -154 -530 -179 -747 -265 -320
-128 -814 -387 -1005 -529 -97 -71 -238 -186 -263 -213 -62 -66 55 -21 196 76
410 283 966 542 1572 732 64 20 451 151 590 200 423 148 814 379 891 528 28
53 28 132 1 189 -22 44 -100 124 -215 221 -32 27 -57 56 -57 67 0 28 77 86
189 141 56 27 103 49 106 49 13 0 306 130 460 204 382 184 758 422 941 596 81
77 87 85 72 98 -9 7 -22 5 -44 -6z"/>
<path d="M4515 2913 c-370 -187 -716 -342 -1040 -467 -320 -124 -495 -195
-565 -229 -65 -32 -87 -61 -55 -74 53 -20 502 133 875 297 384 169 563 259
845 426 77 46 153 94 169 107 30 24 29 47 -2 47 -9 -1 -111 -49 -227 -107z"/>
<path d="M1824 2990 c-238 -62 -474 -177 -756 -367 -76 -51 -140 -93 -143 -93
-3 0 20 37 51 83 63 90 134 233 134 266 0 39 -28 79 -64 91 -117 38 -370 -93
-733 -381 -61 -49 -63 -52 -63 -96 0 -35 3 -43 13 -36 381 299 622 443 739
443 21 0 29 -6 34 -25 7 -29 -15 -68 -187 -325 -145 -218 -143 -214 -123 -231
13 -11 22 -9 52 7 20 10 48 28 62 40 30 25 233 165 345 239 170 112 393 221
575 283 85 28 121 35 190 36 l85 1 3 -33 c3 -28 -4 -40 -55 -90 -87 -86 -199
-157 -681 -433 -179 -102 -232 -143 -214 -161 18 -18 80 5 250 94 368 189 680
407 751 522 26 42 28 117 4 142 -47 47 -148 56 -269 24z"/>
<path d="M8060 2964 c-427 -111 -741 -242 -872 -363 -115 -106 -124 -170 -37
-287 56 -76 61 -108 24 -152 -56 -67 -384 -207 -680 -290 -337 -95 -525 -144
-825 -216 -395 -95 -738 -230 -1080 -427 -413 -237 -846 -401 -1300 -492 -265
-53 -348 -69 -429 -82 -89 -15 -107 -24 -98 -49 8 -21 161 -22 317 -1 534 70
999 234 1560 547 259 145 522 263 705 316 39 11 124 37 190 57 66 20 221 61
345 91 715 176 1161 330 1318 453 118 93 128 185 32 286 -33 35 -59 91 -54
120 4 28 94 108 167 149 79 45 317 140 522 210 213 73 320 118 320 136 0 22
-21 21 -125 -6z"/>
<path d="M9890 2776 c-126 -93 -245 -163 -477 -282 -309 -159 -400 -222 -434
-300 -15 -32 -16 -48 -8 -75 14 -51 44 -80 156 -153 56 -36 113 -80 127 -97
73 -86 -12 -197 -264 -346 -89 -52 -639 -338 -991 -515 -134 -68 -205 -109
-207 -121 -7 -33 57 -20 236 52 93 37 553 253 577 271 6 4 75 40 154 80 391
197 600 373 601 508 0 75 -44 130 -169 214 -90 60 -151 116 -151 138 0 39 118
118 365 246 242 125 388 219 528 337 45 39 57 55 57 78 0 16 -3 29 -7 29 -5
-1 -46 -29 -93 -64z"/>
<path d="M2341 2495 c-199 -45 -391 -143 -421 -215 -11 -25 -10 -34 5 -56 l17
-26 172 5 c316 9 515 76 542 182 8 34 -20 80 -63 101 -49 24 -167 28 -252 9z
m192 -66 c27 -7 37 -15 37 -30 0 -55 -214 -115 -453 -127 -71 -4 -131 -4 -133
-1 -7 12 175 99 271 128 143 43 207 50 278 30z"/>
<path d="M4905 2403 c-243 -123 -494 -235 -680 -304 -553 -207 -1399 -451
-1975 -570 -251 -52 -284 -62 -277 -82 7 -22 113 -18 328 13 373 53 903 193
1539 407 456 153 648 229 885 352 254 130 426 244 410 271 -12 20 -41 8 -230
-87z"/>
<path d="M5584 2275 c-178 -90 -264 -130 -379 -175 -38 -15 -104 -43 -145 -60
-41 -18 -151 -62 -245 -97 -200 -75 -285 -113 -285 -124 0 -22 42 -30 97 -19
55 12 368 111 408 130 11 5 65 28 120 50 241 98 536 256 622 333 24 21 20 47
-6 47 -10 0 -94 -38 -187 -85z"/>
<path d="M1252 1920 c-309 -33 -785 -174 -969 -289 -25 -16 -33 -28 -33 -50
l0 -30 83 36 c312 136 782 244 1137 260 192 8 340 -19 340 -62 0 -24 -71 -68
-182 -116 -176 -75 -433 -206 -486 -249 -59 -46 -82 -84 -82 -134 0 -89 113
-144 370 -180 394 -56 1061 -31 1580 58 177 31 235 47 235 66 0 17 -48 19
-155 7 -36 -4 -146 -14 -245 -23 -790 -67 -1219 -71 -1515 -13 -308 61 -274
126 167 318 343 149 401 190 390 275 -8 54 -48 91 -122 111 -71 20 -383 29
-513 15z"/>
</g>
</svg>
