<?xml version="1.0" encoding="UTF-8" standalone="yes"?>
<svg version="1.0" xmlns="http://www.w3.org/2000/svg" width="1024.000000pt" height="1024.000000pt" viewBox="0 0 1024.000000 1024.000000" preserveAspectRatio="xMidYMid meet">
  <metadata>
Created by potrace 1.16, written by Peter Selinger 2001-2019
</metadata>
  <g transform="translate(0.000000,1024.000000) scale(0.100000,-0.100000)" fill="#000000" stroke="none">
    <path d="M975 9946 c-44 -12 -100 -33 -125 -45 -92 -48 -210 -153 -210 -187 0&#xA;-32 32 -23 102 30 87 65 152 96 267 125 132 33 265 25 390 -25 76 -30 117 -57&#xA;184 -121 98 -93 140 -182 157 -330 5 -47 13 -90 18 -95 5 -5 26 8 48 32 96&#xA;103 232 172 404 204 100 19 161 20 264 1 137 -24 258 -99 313 -193 41 -69 37&#xA;-135 -12 -240 -31 -68 -36 -84 -25 -97 18 -21 47 -19 94 9 85 50 180 71 316&#xA;70 111 0 133 -3 194 -27 75 -30 110 -53 170 -113 37 -38 76 -110 76 -142 0 -8&#xA;7 -23 15 -33 14 -15 32 -16 143 -12 109 5 138 3 205 -16 43 -12 96 -30 117&#xA;-41 41 -21 83 -67 77 -84 -19 -57 -1104 -75 -1310 -22 -17 4 -47 -17 -47 -33&#xA;0 -25 41 -35 260 -66 76 -11 638 -14 765 -4 180 13 357 38 381 54 30 19 39 77&#xA;19 118 -9 17 -37 49 -63 70 -99 79 -194 107 -364 107 l-117 0 -31 66 c-56 116&#xA;-169 207 -315 250 -44 13 -91 18 -175 18 -112 -1 -125 -3 -274 -51 -16 -5 -18&#xA;-3 -12 13 4 10 10 52 13 92 6 69 4 76 -31 146 -43 89 -99 142 -200 191 -231&#xA;113 -595 77 -800 -79 -25 -20 -48 -36 -51 -36 -3 0 -5 11 -5 25 0 42 -46 173&#xA;-80 225 -43 67 -143 158 -215 197 -100 53 -192 73 -330 72 -92 0 -139 -6 -200&#xA;-23z"/>
    <path d="M9460 9649 c-111 -17 -229 -80 -330 -178 -60 -59 -131 -160 -152&#xA;-217 -7 -19 -15 -34 -19 -34 -4 0 -36 11 -73 25 -135 51 -295 43 -423 -21&#xA;-120 -60 -241 -186 -304 -316 l-23 -48 -40 8 c-74 13 -247 6 -311 -13 -145&#xA;-42 -317 -163 -356 -250 -19 -42 -25 -90 -11 -99 38 -23 883 -43 1142 -26 220&#xA;14 423 31 453 36 34 7 38 41 5 46 -13 2 -95 1 -183 -2 -229 -8 -1207 -9 -1290&#xA;-1 l-70 6 65 65 c67 68 147 116 246 150 72 25 216 27 315 4 38 -9 76 -14 83&#xA;-11 7 3 31 43 53 89 55 112 90 157 177 227 97 76 151 95 282 96 100 0 101 0&#xA;188 -45 69 -36 90 -42 104 -34 9 6 39 55 65 108 84 170 197 269 370 326 125&#xA;42 303 13 464 -77 61 -33 83 -36 83 -9 0 23 -41 67 -94 101 -66 42 -173 80&#xA;-261 93 -77 11 -89 11 -155 1z"/>
    <path d="M4338 9509 c-81 -9 -120 -27 -116 -53 4 -27 34 -33 173 -35 77 -1&#xA;133 -7 185 -21 114 -32 265 -109 338 -174 95 -85 137 -71 67 23 -106 146 -447&#xA;282 -647 260z"/>
    <path d="M0 9357 l0 -46 48 -7 c26 -3 56 -8 66 -10 11 -2 56 -8 100 -14 45 -6&#xA;135 -21 201 -32 66 -12 152 -26 190 -32 l70 -11 7 -90 c3 -49 9 -178 13 -285&#xA;8 -208 14 -244 43 -238 15 3 17 20 18 178 0 96 -3 231 -6 300 -4 69 -6 126 -6&#xA;127 1 1 42 -4 91 -11 50 -8 133 -20 185 -26 52 -7 102 -17 112 -21 13 -7 17&#xA;-32 23 -126 4 -65 9 -126 11 -137 2 -10 6 -173 10 -363 7 -310 9 -345 24 -353&#xA;19 -10 47 13 48 40 4 172 16 530 16 530 14 0 330 -61 334 -64 6 -7 11 -97 17&#xA;-351 2 -126 7 -241 9 -255 2 -14 7 -74 11 -135 4 -60 11 -117 16 -127 11 -20&#xA;34 -24 45 -7 4 7 6 126 5 265 -1 140 2 254 6 254 33 0 388 -72 398 -80 16 -13&#xA;23 -76 30 -275 3 -82 8 -161 10 -175 2 -14 7 -95 11 -180 3 -85 10 -160 15&#xA;-166 9 -11 91 -29 266 -60 56 -10 97 -22 106 -32 18 -20 77 -455 77 -563 0&#xA;-27 35 -43 54 -24 12 13 14 34 9 118 l-6 103 129 -19 c71 -10 139 -25 151 -33&#xA;15 -9 25 -31 33 -71 15 -76 31 -108 55 -108 18 0 20 7 20 80 -1 153 -31 178&#xA;-264 217 l-127 21 -18 136 c-10 75 -24 150 -33 168 -21 46 -75 68 -244 99&#xA;l-145 27 0 214 1 214 33 -6 c18 -3 75 -19 126 -35 279 -86 553 -235 880 -480&#xA;74 -55 142 -100 150 -100 35 0 12 41 -62 112 -85 81 -269 222 -374 287 -195&#xA;119 -453 226 -689 286 l-67 17 -7 67 c-19 189 -38 228 -120 250 -61 16 -230&#xA;48 -321 61 l-82 12 -6 36 c-3 21 -6 83 -6 140 0 120 -13 156 -65 178 -18 7&#xA;-105 27 -192 45 -87 17 -161 34 -165 37 -4 4 -12 66 -18 137 -13 165 -22 201&#xA;-58 237 -25 26 -41 31 -133 43 -206 29 -328 47 -569 85 -135 22 -281 44 -325&#xA;49 -44 5 -99 13 -122 17 l-43 7 0 -46z"/>
    <path d="M10008 8450 c-189 -32 -320 -107 -677 -388 -183 -143 -185 -145 -215&#xA;-132 -139 56 -314 79 -456 61 -224 -29 -422 -113 -820 -348 -47 -28 -134 -80&#xA;-195 -115 -171 -102 -226 -136 -246 -154 -23 -20 -25 -52 -4 -60 18 -7 183 79&#xA;446 233 389 228 489 278 664 326 130 37 244 51 344 43 92 -6 231 -35 231 -47&#xA;0 -8 -134 -121 -187 -158 -39 -27 -44 -61 -10 -61 37 0 117 54 342 230 420&#xA;329 546 413 691 464 84 30 223 50 281 41 l43 -6 0 34 c0 32 -3 35 -37 41 -49&#xA;8 -135 6 -195 -4z"/>
    <path d="M4830 8414 c-36 -20 -103 -61 -150 -92 -155 -100 -213 -138 -385&#xA;-246 -279 -177 -544 -357 -565 -384 -27 -33 -25 -63 6 -124 14 -28 82 -182&#xA;151 -342 69 -160 131 -306 139 -324 12 -26 12 -33 2 -37 -7 -2 -47 -13 -88&#xA;-25 -260 -74 -882 -292 -1043 -366 -100 -45 -106 -60 -132 -369 -8 -99 -17&#xA;-185 -19 -191 -2 -6 -44 -23 -93 -39 -96 -29 -286 -96 -428 -151 -49 -19 -96&#xA;-34 -103 -34 -7 0 -45 22 -85 48 -292 197 -918 530 -1155 616 -67 24 -76 25&#xA;-107 12 -45 -19 -64 -60 -70 -148 -5 -90 -22 -600 -30 -918 -3 -129 -8 -236&#xA;-11 -239 -2 -3 -77 -6 -167 -7 -171 -3 -227 -10 -345 -46 -99 -30 -135 -65&#xA;-92 -88 14 -8 38 -5 92 10 106 28 241 48 385 56 l126 7 -7 -129 c-4 -71 -9&#xA;-143 -12 -160 l-6 -31 -121 -17 c-125 -17 -272 -61 -317 -95 -31 -23 -33 -55&#xA;-4 -59 12 -2 63 9 114 23 100 28 271 65 301 65 25 0 25 -1 -20 -293 -104 -665&#xA;-130 -861 -117 -911 11 -43 41 -66 86 -66 42 0 194 54 320 113 195 91 557 271&#xA;665 329 219 119 445 246 477 269 l31 22 221 -42 c122 -24 229 -45 239 -48 20&#xA;-5 20 -9 2 -143 -8 -58 -15 -134 -15 -168 0 -58 3 -67 28 -90 16 -15 57 -40&#xA;90 -56 34 -16 62 -33 62 -36 0 -4 -74 -76 -165 -160 -195 -180 -265 -257 -265&#xA;-293 0 -18 16 -40 57 -77 72 -64 340 -245 503 -341 68 -39 141 -84 163 -100&#xA;27 -19 52 -29 77 -29 34 0 47 11 186 153 82 83 201 210 264 281 63 72 135 152&#xA;160 179 l45 49 70 -6 c38 -3 111 -9 160 -12 68 -5 100 -12 131 -30 48 -28 71&#xA;-30 103 -8 19 14 40 16 130 10 58 -4 124 -9 146 -11 262 -30 568 -52 965 -71&#xA;178 -8 325 -16 326 -17 1 -1 -52 -67 -117 -146 -138 -166 -143 -181 -81 -238&#xA;125 -118 706 -428 841 -449 20 -3 48 -1 63 5 62 24 294 373 443 669 l67 132&#xA;101 0 c210 0 911 38 1207 66 242 22 441 43 471 50 95 19 167 245 284 889 14&#xA;77 31 173 37 214 l13 75 80 13 c108 18 117 28 144 180 29 162 51 319 51 364 0&#xA;45 -31 74 -90 84 -22 4 -42 11 -46 16 -3 5 1 71 10 147 59 536 65 632 61 977&#xA;-4 279 -17 430 -41 477 -7 14 -28 35 -46 46 -69 42 -522 231 -788 329 -340&#xA;126 -1003 333 -1385 433 -104 28 -233 62 -285 76 -170 46 -193 44 -569 -31&#xA;-183 -36 -335 -65 -337 -62 -2 2 -42 104 -88 228 -46 123 -102 269 -124 324&#xA;-22 55 -69 172 -104 259 -34 87 -71 169 -81 182 -13 17 -55 35 -146 64 -127&#xA;40 -333 90 -368 90 -10 0 -47 -17 -83 -36z m127 -116 c6 -7 46 -107 91 -223&#xA;44 -115 112 -293 151 -395 150 -389 170 -444 166 -448 -2 -2 -50 -15 -107 -28&#xA;-57 -13 -125 -28 -151 -35 -27 -6 -50 -10 -51 -8 -5 5 -69 163 -160 396 -96&#xA;242 -179 441 -218 518 l-30 59 33 28 c19 16 66 47 104 70 39 23 81 50 94 60&#xA;27 21 64 24 78 6z m365 -94 c40 -12 387 -909 355 -919 -50 -15 -191 -35 -198&#xA;-28 -8 8 -40 89 -114 288 -47 129 -178 458 -236 596 -27 64 -49 119 -49 122 0&#xA;4 179 -39 242 -59z m-679 -211 c25 -60 70 -164 100 -233 30 -69 94 -222 142&#xA;-340 48 -118 94 -228 102 -243 8 -16 12 -31 10 -34 -12 -11 -441 -113 -447&#xA;-106 -4 4 -43 96 -85 203 -72 180 -170 408 -232 537 -13 30 -22 60 -19 69 3 8&#xA;79 62 168 120 90 59 172 112 183 120 11 7 23 13 26 13 3 1 27 -47 52 -106z&#xA;m-464 -265 c18 -40 78 -174 133 -298 55 -124 106 -238 113 -255 38 -82 64&#xA;-160 58 -166 -7 -6 -301 -89 -316 -89 -4 0 -14 22 -92 200 -18 41 -56 129 -85&#xA;195 -29 66 -70 157 -91 201 -22 45 -39 87 -39 92 0 9 267 192 281 192 3 0 20&#xA;-33 38 -72z m2247 -535 c-20 -207 -28 -252 -46 -258 -10 -3 -94 -21 -187 -40&#xA;-308 -64 -382 -89 -367 -128 3 -9 14 -17 24 -17 15 0 247 47 468 95 l62 13 0&#xA;-30 c0 -29 -76 -736 -105 -973 -8 -66 -17 -147 -20 -180 -19 -184 -183 -1436&#xA;-189 -1442 -2 -2 -70 -16 -153 -31 -158 -29 -201 -46 -190 -76 6 -16 15 -18&#xA;65 -13 71 8 208 26 244 33 22 4 26 2 23 -13 -2 -10 -16 -94 -31 -188 -15 -93&#xA;-32 -175 -38 -181 -10 -10 -417 -72 -581 -89 -33 -3 -145 -17 -248 -31 -104&#xA;-14 -199 -24 -213 -22 -23 3 -23 4 19 58 227 291 386 499 396 517 27 51 17 70&#xA;-162 308 -149 198 -188 242 -229 257 -4 2 2 89 12 193 11 105 36 348 55 540&#xA;20 193 38 359 40 370 3 11 12 79 20 150 8 72 24 198 35 280 11 83 28 218 39&#xA;300 26 193 62 429 66 434 4 4 226 47 515 101 183 34 482 93 585 115 103 22 98&#xA;25 91 -52z m346 22 c508 -111 1000 -250 1433 -405 44 -16 139 -49 210 -75 72&#xA;-25 149 -55 172 -66 24 -10 45 -19 47 -19 3 0 221 -92 424 -180 35 -15 68 -32&#xA;75 -39 26 -26 19 -645 -13 -1016 -5 -60 -14 -188 -21 -283 -7 -95 -16 -175&#xA;-21 -178 -6 -4 -215 50 -235 61 -1 0 8 35 22 76 35 112 50 259 36 355 -29 198&#xA;-170 339 -322 321 -178 -21 -264 -171 -276 -483 l-6 -131 -61 18 c-33 11 -108&#xA;31 -166 45 -129 32 -155 30 -390 -30 -149 -38 -439 -106 -455 -106 -5 0 -35&#xA;55 -35 65 0 3 8 5 18 5 10 0 41 7 70 15 79 24 156 100 203 200 51 112 64 172&#xA;64 310 0 106 -3 130 -29 203 -22 67 -39 94 -82 141 -73 79 -133 105 -229 99&#xA;-84 -6 -118 -22 -180 -85 -51 -53 -94 -128 -120 -213 -31 -104 -31 -341 2&#xA;-425 4 -11 -7 -13 -50 -8 -30 3 -72 3 -92 -1 -30 -6 -36 -11 -33 -29 2 -18 16&#xA;-25 83 -43 44 -12 101 -30 126 -41 64 -28 167 -129 213 -207 l38 -65 47 5&#xA;c200 23 428 64 628 111 21 5 22 2 18 -23 -9 -54 -35 -303 -35 -338 0 -33 -3&#xA;-36 -52 -54 -142 -53 -210 -66 -338 -66 -147 -1 -231 19 -363 85 -93 47 -196&#xA;142 -240 223 l-27 49 53 -6 c29 -3 78 -17 109 -33 62 -30 88 -27 88 10 0 64&#xA;-97 127 -205 133 -59 3 -76 0 -110 -19 -44 -26 -105 -100 -105 -128 0 -26 30&#xA;-30 66 -8 l31 18 6 -128 c14 -276 108 -488 295 -663 109 -101 201 -156 345&#xA;-205 l112 -38 305 -6 305 -6 180 -43 c416 -99 435 -100 447 -36 2 14 -7 24&#xA;-33 36 -29 15 -590 169 -653 181 -14 2 4 17 63 51 45 26 115 77 155 112 64 55&#xA;77 63 107 60 82 -9 206 -16 364 -21 94 -4 173 -9 177 -13 9 -8 -70 -459 -123&#xA;-701 -37 -168 -97 -360 -115 -367 -24 -9 -311 49 -709 143 -104 25 -266 63&#xA;-360 84 -147 33 -1036 243 -1330 314 -55 14 -121 28 -148 31 -26 4 -49 11 -52&#xA;14 -2 4 4 50 15 102 10 52 26 136 35 187 14 77 20 92 34 88 63 -18 309 -57&#xA;348 -54 57 4 67 23 21 42 -28 12 -191 45 -340 71 -23 3 -38 12 -38 20 0 8 9&#xA;74 19 147 11 73 22 156 26 183 8 70 42 314 66 480 11 77 33 253 49 390 16 138&#xA;40 340 54 450 13 110 30 250 36 310 6 61 13 124 15 140 2 17 16 140 31 275 15&#xA;135 28 246 29 247 2 4 333 -84 439 -116 54 -17 102 -28 107 -25 19 11 8 44&#xA;-20 59 -43 22 -305 110 -419 140 l-98 27 13 146 c16 175 19 192 37 192 8 0&#xA;106 -20 218 -45z m-1646 -233 c-5 -9 -60 -401 -71 -513 l-7 -67 -49 -6 c-90&#xA;-12 -353 -75 -366 -88 -11 -12 -34 -170 -66 -470 -8 -82 -15 -109 -26 -113&#xA;-15 -4 -186 -28 -296 -40 -105 -13 -247 -35 -256 -40 -5 -4 -9 -18 -9 -32 0&#xA;-30 -35 -31 315 11 244 30 312 46 320 79 5 22 30 216 41 317 21 196 29 243 44&#xA;246 8 2 84 17 169 33 85 17 157 31 161 31 3 0 -4 -80 -16 -177 -13 -98 -32&#xA;-270 -44 -383 -11 -113 -27 -266 -35 -340 -8 -74 -24 -234 -35 -355 -29 -304&#xA;-32 -328 -50 -331 -111 -21 -885 -207 -1040 -250 -349 -98 -401 -117 -414&#xA;-149 -13 -35 -5 -84 22 -136 16 -30 64 -121 107 -204 43 -82 81 -154 85 -160&#xA;4 -5 35 -63 69 -127 l62 -118 -88 5 c-99 5 -422 15 -527 15 l-69 0 6 53 c4 28&#xA;10 132 13 230 l7 177 -22 0 c-14 0 -25 -9 -31 -25 -7 -19 -30 -329 -30 -414 0&#xA;-14 8 -14 -280 5 -47 4 -88 9 -92 13 -4 3 -3 56 2 116 5 61 11 175 15 255 3&#xA;80 8 168 10 195 3 28 10 126 16 219 10 150 9 170 -5 184 -36 36 -48 -9 -76&#xA;-282 -11 -110 -22 -202 -25 -204 -3 -3 -65 7 -137 21 -208 41 -457 85 -527 93&#xA;l-64 7 7 131 c12 254 19 361 22 365 2 2 90 12 196 22 106 10 203 21 215 24 29&#xA;7 33 33 36 225 2 153 2 155 -20 158 -28 4 -31 -6 -42 -176 -5 -74 -13 -137&#xA;-16 -140 -7 -7 -345 -41 -355 -36 -12 6 53 584 70 630 6 14 32 30 82 48 149&#xA;57 720 247 725 242 3 -3 0 -56 -6 -118 -26 -255 -25 -237 -6 -244 10 -4 72 0&#xA;139 9 127 18 240 22 233 10 -9 -14 -39 -382 -33 -398 6 -16 24 -19 42 -7 17&#xA;10 60 460 46 474 -14 14 -110 11 -241 -7 -58 -8 -108 -15 -113 -15 -16 0 -6&#xA;120 37 415 7 55 26 183 40 285 15 102 32 190 38 196 19 17 230 92 375 134 47&#xA;13 62 14 62 5 0 -7 -13 -103 -30 -213 -32 -217 -35 -257 -20 -267 6 -3 85 6&#xA;176 21 91 14 168 24 171 21 3 -4 -4 -86 -17 -184 -24 -201 -24 -256 2 -261 11&#xA;-2 21 5 27 20 9 23 62 403 64 468 2 33 0 35 -28 34 -16 0 -48 -3 -70 -7 -201&#xA;-31 -256 -39 -259 -36 -2 2 10 104 27 226 l31 223 150 49 c144 47 323 102 376&#xA;115 14 4 76 20 137 36 62 17 119 30 128 30 11 0 14 -11 10 -52 -16 -198 -16&#xA;-255 0 -268 30 -25 39 5 50 174 5 91 12 167 15 170 16 15 742 194 793 195 16&#xA;1 26 -3 23 -7z m-4094 -859 c276 -131 507 -254 727 -386 181 -109 183 -111&#xA;160 -126 -77 -51 -86 -66 -94 -156 -4 -47 -10 -85 -14 -85 -15 0 -435 171&#xA;-720 293 l-284 121 6 196 c4 107 7 205 7 218 0 12 2 22 5 22 3 0 96 -44 207&#xA;-97z m6274 -131 c12 -6 42 -34 67 -62 64 -71 82 -142 74 -293 -10 -195 -64&#xA;-316 -167 -369 -77 -41 -154 -36 -208 14 l-22 22 34 28 c70 57 101 165 94 320&#xA;-3 70 -10 103 -26 135 -25 49 -72 78 -109 68 l-25 -6 24 42 c59 107 173 150&#xA;264 101z m-6186 -429 c110 -48 597 -251 653 -272 31 -12 31 -12 12 -156 -8&#xA;-60 -15 -116 -15 -123 0 -11 -14 -12 -62 -8 -35 3 -124 8 -198 11 -141 6 -630&#xA;34 -689 39 l-34 3 2 94 c0 52 4 196 7 320 l7 227 101 -43 c56 -23 153 -65 216&#xA;-92z m7580 84 c37 -26 77 -90 95 -151 14 -47 16 -84 12 -175 -5 -111 -33 -251&#xA;-55 -273 -9 -9 -167 27 -185 43 -5 4 -4 32 3 63 26 126 6 289 -40 331 -11 10&#xA;-38 21 -60 24 l-40 6 24 52 c15 32 38 61 63 78 34 23 45 26 100 22 33 -3 71&#xA;-11 83 -20z m-480 -587 c107 -28 213 -57 235 -65 22 -7 94 -27 160 -45 66 -18&#xA;206 -57 310 -87 105 -30 213 -60 241 -67 27 -7 55 -15 61 -19 11 -7 1 -87 -37&#xA;-275 -11 -57 -20 -106 -20 -109 0 -14 -747 174 -1075 272 -44 13 -98 28 -121&#xA;34 l-41 11 8 52 c5 29 16 107 24 173 23 179 25 186 44 181 9 -3 104 -28 211&#xA;-56z m-7185 -100 c88 -5 237 -12 330 -16 94 -4 186 -8 205 -9 19 -2 70 -3 114&#xA;-4 l78 -1 -7 -122 c-3 -68 -10 -126 -13 -130 -4 -4 -99 -25 -212 -47 -382 -76&#xA;-455 -90 -595 -121 -77 -17 -151 -33 -166 -36 l-25 -6 12 114 c6 62 15 174 19&#xA;248 4 81 12 138 19 143 6 4 27 5 46 2 19 -3 107 -9 195 -15z m4043 -482 c71&#xA;-95 137 -188 148 -207 l19 -33 -115 -111 c-112 -108 -492 -452 -609 -552 -55&#xA;-47 -299 -259 -365 -317 -17 -15 -34 -27 -38 -28 -8 0 -103 152 -138 219 -20&#xA;41 -21 45 -5 54 61 34 413 278 585 406 325 241 360 269 360 291 0 11 -6 20&#xA;-14 20 -16 0 -205 -126 -429 -287 -89 -64 -213 -152 -276 -195 -62 -43 -146&#xA;-105 -187 -138 -41 -33 -77 -60 -81 -60 -9 1 -213 354 -213 368 0 6 26 20 58&#xA;33 213 85 723 313 922 412 103 51 132 79 95 93 -17 7 -66 -13 -375 -151 -220&#xA;-99 -520 -232 -643 -286 -49 -22 -92 -37 -97 -34 -4 3 -37 53 -72 113 -64 107&#xA;-106 198 -96 208 6 6 99 29 403 103 110 27 299 74 420 104 427 108 580 146&#xA;597 146 10 1 66 -65 146 -171z m-3342 96 c-3 -9 -6 -66 -6 -128 l0 -112 -57&#xA;-27 c-32 -14 -177 -79 -323 -143 -422 -186 -531 -234 -590 -264 -30 -15 -66&#xA;-31 -79 -35 -23 -7 -23 -6 -16 46 4 30 13 90 20 135 8 45 21 139 30 210 9 70&#xA;18 130 20 132 5 5 317 71 505 107 80 15 213 42 295 60 176 39 210 42 201 19z&#xA;m5332 -113 c51 -23 118 -57 149 -77 119 -76 220 -196 238 -283 l7 -34 -37 7&#xA;c-167 32 -382 213 -445 376 -7 19 -18 41 -24 49 -13 17 -19 19 112 -38z&#xA;m-5299 -301 c27 -10 48 -26 61 -47 l19 -32 -142 -72 c-78 -39 -194 -100 -257&#xA;-134 -195 -106 -775 -392 -830 -410 -23 -7 -23 -7 -16 66 4 41 15 114 24 163&#xA;l17 89 135 57 c155 65 509 217 685 295 66 28 147 63 180 77 l60 25 11 -31 c8&#xA;-23 21 -35 53 -46z m1172 -830 c44 -22 77 -45 74 -50 -10 -16 -266 -243 -342&#xA;-303 -39 -31 -75 -61 -78 -67 -4 -7 -14 -6 -28 1 -39 20 -167 104 -167 110 0&#xA;5 172 143 375 302 33 26 66 47 73 47 7 0 49 -18 93 -40z m237 -96 c28 -13 52&#xA;-27 52 -33 0 -19 -300 -391 -364 -450 l-25 -24 -63 40 c-35 22 -80 50 -101 63&#xA;-45 27 -58 10 113 156 187 160 279 246 286 266 6 21 17 20 102 -18z m319 -128&#xA;c4 -4 -334 -401 -417 -490 -18 -18 -20 -17 -94 25 -42 24 -76 45 -76 48 0 4&#xA;43 56 96 116 89 102 219 265 272 339 l23 33 96 -34 c54 -19 98 -35 100 -37z&#xA;m2600 -150 c8 -8 -184 -288 -244 -355 l-39 -45 -87 53 c-48 29 -87 55 -87 59&#xA;-1 4 68 73 151 153 l152 146 76 -4 c42 -3 77 -6 78 -7z m342 -12 c12 -11 -258&#xA;-497 -300 -539 -6 -6 -54 13 -135 53 l-125 63 65 82 c36 45 107 144 158 220&#xA;l93 138 120 -6 c66 -4 122 -8 124 -11z m341 -5 c0 -41 -177 -377 -296 -560&#xA;-48 -75 -69 -99 -85 -99 -21 0 -175 64 -193 80 -4 5 18 51 50 103 89 145 198&#xA;333 239 415 l37 72 124 0 c80 0 124 -4 124 -11z"/>
    <path d="M5577 6161 c-48 -43 -131 -166 -172 -256 -182 -399 -213 -802 -85&#xA;-1121 66 -165 187 -297 198 -218 2 12 -13 57 -33 100 -82 178 -121 387 -111&#xA;600 13 283 119 645 241 823 58 84 32 133 -38 72z"/>
    <path d="M7243 6552 c-116 -41 -248 -163 -241 -221 5 -42 37 -37 103 15 91 70&#xA;134 86 240 88 74 1 100 -3 147 -23 31 -13 63 -21 72 -18 42 16 -3 98 -79 143&#xA;-61 35 -168 42 -242 16z"/>
    <path d="M8612 6260 c-12 -5 -27 -21 -34 -35 -15 -34 8 -59 70 -75 107 -26&#xA;187 -90 253 -202 47 -80 57 -88 79 -60 34 42 -12 177 -89 264 -69 78 -216 134&#xA;-279 108z"/>
    <path d="M3800 5029 c-63 -4 -140 -10 -170 -13 -30 -3 -60 -5 -67 -6 -25 0&#xA;-34 -46 -53 -277 -16 -194 -18 -240 -7 -250 10 -11 16 -11 29 -1 12 10 20 64&#xA;36 237 12 123 23 225 24 227 2 1 91 7 198 13 171 9 197 13 214 30 16 17 17 23&#xA;6 35 -14 17 -28 18 -210 5z"/>
    <path d="M0 8286 c0 -29 4 -35 28 -40 53 -11 465 -66 493 -66 18 0 29 -6 33&#xA;-17 9 -33 42 -324 66 -593 6 -65 16 -117 22 -121 7 -4 21 -3 31 3 19 10 20 18&#xA;14 143 l-7 132 48 -8 c26 -5 94 -15 152 -24 133 -20 210 -36 215 -46 11 -16&#xA;32 -214 41 -379 8 -131 21 -175 55 -182 202 -43 450 -102 494 -119 37 -14 59&#xA;-28 65 -43 17 -46 40 -218 50 -381 10 -160 30 -282 49 -314 18 -28 38 -3 50&#xA;61 19 98 39 153 99 278 53 108 57 113 60 80 5 -42 -14 -192 -33 -270 -12 -50&#xA;-19 -100 -16 -124 2 -14 51 54 68 94 23 52 82 123 138 165 46 34 185 110 185&#xA;101 0 -2 -50 -81 -110 -175 -129 -199 -148 -237 -133 -252 8 -8 22 -3 51 16&#xA;59 39 222 82 222 58 0 -5 -34 -42 -75 -83 -69 -69 -93 -110 -62 -110 21 0 124&#xA;87 167 141 44 55 51 93 21 109 -27 14 -109 13 -163 -4 l-45 -13 55 76 c65 90&#xA;132 221 132 256 0 73 -190 22 -299 -80 l-50 -46 6 73 c2 40 1 91 -4 113 -8 36&#xA;-12 40 -38 38 -15 -1 -38 -12 -51 -24 -29 -27 -99 -141 -121 -197 -9 -23 -20&#xA;-42 -24 -42 -4 0 -8 63 -8 139 -1 145 -21 292 -47 346 -37 78 -100 104 -423&#xA;176 -95 21 -175 39 -177 41 -1 2 -14 116 -28 252 -24 239 -26 250 -51 276 -28&#xA;29 -94 46 -270 70 -44 6 -107 17 -140 23 l-60 13 -8 74 c-33 307 -41 341 -95&#xA;361 -29 11 -496 79 -543 79 -26 0 -29 -3 -29 -34z"/>
    <path d="M6445 8130 c-11 -18 5 -30 108 -82 110 -55 159 -86 244 -155 86 -70&#xA;116 -38 41 43 -105 114 -363 242 -393 194z"/>
    <path d="M9670 7524 c-87 -64 -122 -84 -145 -84 -49 0 -226 -104 -312 -183&#xA;-76 -70 -52 -127 76 -184 29 -13 79 -30 110 -37 36 -8 76 -27 105 -50 57 -43&#xA;106 -49 130 -14 13 19 19 20 41 10 28 -13 67 -15 103 -6 27 8 29 37 5 95 -14&#xA;35 -14 43 -2 50 8 4 29 19 48 33 30 22 40 24 95 19 52 -4 65 -2 86 15 23 19&#xA;25 28 28 115 5 117 -5 142 -53 134 -18 -3 -50 -17 -72 -31 -35 -23 -42 -24&#xA;-76 -14 l-37 11 4 66 c2 36 -1 74 -6 84 -16 30 -61 20 -128 -29z m76 -56 c-2&#xA;-18 -4 -36 -5 -40 -1 -10 -50 -9 -74 0 -15 6 -11 12 25 39 24 17 46 32 50 32&#xA;4 1 6 -14 4 -31z m-46 -108 c52 -11 109 -27 127 -37 34 -18 46 -16 111 27 l32&#xA;22 0 -71 c0 -78 -11 -88 -58 -56 -26 19 -37 14 -121 -50 l-55 -42 -42 14 c-24&#xA;8 -57 13 -76 11 -29 -3 -33 -7 -36 -36 -4 -36 15 -50 44 -34 30 17 94 -21 94&#xA;-55 0 -18 -25 -16 -69 6 -24 13 -76 23 -147 30 -108 10 -191 35 -245 73 l-24&#xA;18 45 41 c95 87 224 159 285 159 22 0 83 -9 135 -20z"/>
    <path d="M9453 7250 c-27 -11 -29 -23 -7 -44 18 -19 38 -20 65 -6 27 15 24 39&#xA;-7 50 -14 6 -26 10 -27 9 -1 0 -12 -4 -24 -9z"/>
    <path d="M8650 7422 c-26 -12 -135 -89 -149 -106 -7 -8 -50 -29 -96 -47 -90&#xA;-34 -137 -71 -117 -91 9 -9 24 -8 65 4 82 26 100 29 232 29 87 0 134 -5 159&#xA;-15 37 -15 57 -13 129 18 l37 16 0 -65 c0 -74 -7 -78 -75 -49 -36 15 -39 14&#xA;-101 -15 -59 -28 -64 -32 -54 -51 13 -24 29 -25 75 -5 31 12 40 12 76 0 23 -8&#xA;56 -15 75 -15 52 0 64 26 64 145 0 136 -14 149 -112 99 -43 -22 -58 -25 -86&#xA;-18 -33 9 -34 10 -37 74 -4 51 -9 69 -26 83 -22 18 -35 20 -59 9z m20 -109 l0&#xA;-38 -60 3 -61 4 38 27 c37 27 59 38 76 40 4 1 7 -16 7 -36z"/>
    <path d="M348 7150 c-10 -6 -18 -19 -18 -29 0 -21 36 -29 230 -56 158 -21 358&#xA;-63 400 -83 19 -9 40 -28 47 -42 10 -21 39 -118 84 -282 7 -28 15 -38 30 -38&#xA;30 0 33 23 15 118 -35 176 -70 265 -118 296 -35 23 -158 54 -318 80 -254 43&#xA;-329 50 -352 36z"/>
    <path d="M9814 6690 c-34 -21 -86 -47 -117 -58 -58 -19 -149 -71 -199 -113&#xA;-27 -22 -29 -28 -19 -47 14 -26 64 -53 146 -78 35 -11 68 -29 79 -43 25 -31&#xA;105 -81 128 -81 10 0 30 7 43 16 29 19 34 74 9 95 -14 11 -9 16 40 41 52 26&#xA;60 28 97 17 56 -17 70 -1 77 89 7 100 -1 122 -41 122 -19 0 -50 -13 -76 -30&#xA;-24 -16 -47 -28 -51 -25 -4 3 -5 25 -2 50 3 35 0 50 -13 65 -24 27 -31 26&#xA;-101 -20z m48 -62 c-5 -5 -20 -8 -33 -6 -24 3 -23 4 6 20 30 16 48 7 27 -14z&#xA;m174 -125 c-2 -3 -17 -1 -33 4 -23 8 -38 4 -88 -22 -52 -28 -73 -33 -158 -39&#xA;-83 -5 -106 -3 -152 15 -30 11 -55 23 -55 27 0 4 31 24 69 45 81 44 129 47&#xA;257 18 l81 -18 39 27 39 26 3 -39 c2 -21 1 -41 -2 -44z m-209 -148 c9 -25 -2&#xA;-27 -28 -6 l-24 20 23 1 c12 0 25 -7 29 -15z"/>
    <path d="M273 6653 c-19 -7 -16 -31 5 -42 20 -10 306 -81 328 -81 10 0 14 8&#xA;12 22 -4 30 -47 49 -184 82 -109 26 -137 29 -161 19z"/>
    <path d="M212 6179 c2 -12 10 -26 18 -30 8 -4 60 -30 115 -57 55 -27 123 -62&#xA;152 -78 42 -23 54 -27 65 -16 19 19 0 41 -83 94 -77 49 -213 108 -249 108 -16&#xA;0 -21 -5 -18 -21z"/>
    <path d="M9998 5889 c-251 -19 -583 -105 -602 -156 -15 -38 19 -42 94 -13 144&#xA;57 372 105 545 115 195 11 205 13 205 41 0 25 -1 25 -72 22 -40 -1 -117 -5&#xA;-170 -9z"/>
    <path d="M10130 5649 c-210 -29 -400 -76 -515 -128 -69 -32 -135 -85 -135&#xA;-110 0 -54 105 -111 285 -156 123 -30 201 -59 227 -82 27 -24 6 -50 -67 -85&#xA;-58 -26 -274 -98 -297 -98 -6 0 -41 -10 -79 -21 -61 -18 -70 -24 -67 -43 2&#xA;-13 11 -22 27 -24 51 -8 392 92 490 142 41 22 81 73 81 105 0 66 -78 113 -269&#xA;161 -123 31 -247 75 -256 91 -7 10 90 60 167 88 112 40 142 48 413 107 104 23&#xA;105 24 105 45 0 21 -7 22 -110 8z"/>
    <path d="M10185 4763 c-152 -37 -380 -137 -462 -201 -104 -83 -94 -147 49&#xA;-299 92 -99 108 -124 108 -174 0 -107 -185 -234 -475 -324 -138 -43 -183 -80&#xA;-140 -115 30 -25 274 44 425 120 89 45 166 99 220 154 124 126 110 208 -67&#xA;383 -110 108 -120 129 -87 178 30 45 281 172 447 225 29 9 37 17 37 36 0 24&#xA;-10 28 -55 17z"/>
    <path d="M1955 3496 c-314 -138 -488 -225 -622 -313 -80 -53 -82 -82 -3 -56&#xA;59 19 483 215 675 310 150 75 195 105 195 130 0 27 -60 10 -245 -71z"/>
    <path d="M9858 3256 c-449 -309 -841 -523 -1304 -710 -362 -145 -464 -217&#xA;-464 -325 0 -61 26 -98 133 -188 51 -42 107 -93 124 -112 86 -94 56 -194 -86&#xA;-290 -278 -187 -484 -276 -1194 -512 -230 -77 -505 -174 -610 -215 -445 -176&#xA;-910 -422 -1161 -614 -54 -41 -117 -89 -140 -106 -88 -67 -121 -102 -110 -114&#xA;16 -16 64 8 229 116 224 146 403 248 660 374 318 156 483 220 1064 415 632&#xA;212 732 249 936 350 256 126 462 268 524 361 52 79 50 178 -4 264 -13 21 -51&#xA;62 -86 91 -128 111 -179 163 -179 180 0 44 122 113 430 244 484 205 912 444&#xA;1224 684 102 78 218 190 213 205 -9 27 -42 10 -199 -98z"/>
    <path d="M4710 2800 c-14 -4 -162 -75 -330 -158 -168 -82 -341 -166 -385 -185&#xA;-44 -19 -114 -51 -155 -70 -120 -56 -161 -73 -430 -178 -140 -55 -318 -124&#xA;-395 -155 -250 -98 -334 -149 -279 -171 89 -34 898 277 1431 549 287 147 583&#xA;326 583 353 0 19 -11 23 -40 15z"/>
    <path d="M1690 2783 c-45 -7 -243 -75 -331 -113 -130 -55 -330 -168 -495 -280&#xA;-82 -55 -150 -98 -152 -96 -1 2 23 41 54 87 72 106 134 236 134 282 0 78 -70&#xA;111 -185 87 -120 -25 -393 -192 -643 -394 -70 -56 -72 -60 -72 -102 0 -24 2&#xA;-44 5 -44 3 0 69 49 147 108 316 240 531 362 640 362 44 0 47 -37 8 -107 -28&#xA;-50 -197 -308 -282 -431 -53 -76 -18 -105 62 -52 25 16 122 84 215 150 198&#xA;139 324 215 490 298 229 114 407 172 526 172 77 0 87 -10 64 -65 -36 -88 -220&#xA;-215 -700 -485 -209 -118 -295 -176 -295 -201 0 -19 4 -21 33 -15 81 16 537&#xA;267 767 423 96 65 243 202 264 247 32 68 15 130 -44 161 -28 14 -145 19 -210&#xA;8z"/>
    <path d="M8225 2749 c-454 -124 -680 -210 -855 -324 -102 -67 -180 -161 -180&#xA;-219 0 -38 38 -117 85 -174 72 -89 32 -144 -176 -241 -253 -119 -507 -197&#xA;-1224 -377 -436 -109 -575 -150 -768 -228 -189 -77 -359 -159 -537 -261 -464&#xA;-264 -840 -407 -1360 -519 -155 -33 -366 -75 -469 -91 -86 -14 -117 -30 -102&#xA;-53 15 -24 295 -11 486 23 316 57 639 151 915 267 127 53 412 196 585 293 256&#xA;143 450 232 675 308 134 45 412 125 550 158 144 34 590 151 730 193 212 62&#xA;462 156 601 227 112 57 169 103 205 165 42 71 26 127 -66 235 -17 19 -33 52&#xA;-37 73 -6 35 -3 40 53 94 89 87 312 192 619 292 101 33 331 121 373 142 31 16&#xA;28 38 -5 37 -16 -1 -59 -10 -98 -20z"/>
    <path d="M10155 2562 c-138 -102 -272 -182 -505 -302 -271 -141 -362 -195&#xA;-418 -251 -61 -63 -77 -101 -62 -154 14 -52 50 -87 150 -150 158 -100 191&#xA;-140 171 -206 -27 -89 -193 -217 -466 -359 -77 -40 -169 -89 -205 -108 -36&#xA;-19 -247 -127 -470 -240 -223 -112 -410 -212 -417 -220 -7 -8 -10 -19 -7 -23&#xA;24 -39 297 73 815 331 330 165 436 224 579 324 251 174 315 313 206 443 -15&#xA;18 -69 60 -119 94 -104 68 -167 125 -167 149 0 42 136 132 405 269 205 104&#xA;425 245 548 354 42 37 48 46 45 75 l-3 33 -80 -59z"/>
    <path d="M2197 2254 c-99 -21 -250 -78 -318 -120 -121 -73 -155 -128 -109&#xA;-174 19 -19 32 -21 153 -19 260 2 498 60 570 136 86 92 3 193 -158 192 -38 0&#xA;-101 -7 -138 -15z m224 -74 c44 -24 15 -64 -68 -94 -107 -38 -414 -83 -504&#xA;-74 l-34 3 50 32 c121 76 329 142 453 142 46 1 92 -4 103 -9z"/>
    <path d="M4862 2140 c-134 -66 -245 -120 -248 -120 -3 0 -60 -25 -127 -56&#xA;-300 -137 -736 -289 -1272 -443 -543 -155 -820 -226 -1139 -291 -232 -47 -278&#xA;-63 -261 -90 14 -23 281 6 565 60 328 63 1056 269 1465 414 88 32 210 75 270&#xA;96 225 79 347 130 558 236 222 112 406 223 450 272 19 21 16 42 -6 42 -7 0&#xA;-122 -54 -255 -120z"/>
    <path d="M5740 2086 c-30 -13 -131 -62 -225 -109 -181 -92 -375 -174 -790&#xA;-335 -233 -90 -247 -99 -205 -122 14 -8 37 -8 74 -1 68 13 309 91 441 143 55&#xA;22 132 53 170 68 239 95 630 320 623 358 -5 25 -27 24 -88 -2z"/>
    <path d="M1071 1649 c-315 -28 -838 -182 -1029 -302 -34 -22 -42 -33 -42 -57&#xA;l0 -30 38 16 c184 79 257 105 417 151 227 64 337 86 685 133 91 13 315 12 385&#xA;-1 71 -13 115 -34 115 -54 0 -26 -83 -75 -253 -150 -260 -114 -403 -192 -471&#xA;-255 -53 -51 -59 -60 -63 -105 -6 -63 15 -93 91 -130 82 -40 201 -65 436 -90&#xA;124 -14 756 -14 875 0 28 3 122 12 210 20 88 8 189 19 225 25 332 50 442 73&#xA;461 96 21 25 -17 27 -189 10 -179 -17 -445 -39 -687 -56 -251 -18 -744 -24&#xA;-900 -11 -133 12 -302 40 -372 62 -43 14 -83 47 -83 69 0 44 135 125 390 235&#xA;236 102 342 158 379 201 30 34 33 42 29 86 -6 60 -33 92 -98 113 -99 33 -332&#xA;43 -549 24z"/>
  </g>
  <title>Salmon</title>
  <desc>Salmon</desc>
</svg>