<?xml version="1.0" standalone="no"?>
<!DOCTYPE svg PUBLIC "-//W3C//DTD SVG 20010904//EN"
 "http://www.w3.org/TR/2001/REC-SVG-20010904/DTD/svg10.dtd">
<svg version="1.0" xmlns="http://www.w3.org/2000/svg"
 width="1024.000000pt" height="1024.000000pt" viewBox="0 0 1024.000000 1024.000000"
 preserveAspectRatio="xMidYMid meet">
<metadata>
Created by potrace 1.16, written by Peter Selinger 2001-2019
</metadata>
<g transform="translate(0.000000,1024.000000) scale(0.100000,-0.100000)"
fill="#000000" stroke="none">
<path d="M6050 8443 c-91 -7 -276 -21 -412 -33 -303 -25 -410 -33 -848 -65
-462 -33 -630 -46 -660 -50 -14 -2 -68 -6 -120 -10 -52 -3 -124 -8 -160 -10
-36 -2 -110 -7 -165 -10 -55 -3 -120 -8 -145 -10 -25 -3 -119 -9 -210 -15 -91
-6 -181 -13 -200 -15 -19 -2 -73 -6 -120 -10 -47 -3 -134 -10 -195 -15 -60 -5
-168 -15 -240 -21 -71 -6 -139 -12 -150 -14 -11 -1 -103 -8 -205 -14 -167 -10
-326 -23 -480 -37 -111 -10 -266 -36 -291 -49 -38 -20 -57 -55 -68 -126 -17
-106 -31 -1313 -16 -1351 4 -10 26 -28 48 -41 155 -89 368 -213 400 -233 l37
-24 0 -703 0 -703 -187 -29 c-104 -15 -206 -30 -228 -33 -69 -7 -103 -27 -113
-64 -5 -18 -11 -159 -12 -313 -1 -154 -3 -300 -4 -325 -2 -25 -4 -217 -6 -427
-3 -339 -1 -385 13 -407 15 -22 72 -70 408 -341 173 -139 921 -720 1159 -899
80 -60 165 -126 190 -146 25 -21 76 -58 113 -84 78 -53 113 -57 247 -32 41 8
91 17 110 20 34 5 238 42 290 52 33 6 664 114 710 121 73 11 844 145 1025 178
50 9 169 29 265 46 223 38 377 65 515 90 61 11 126 22 145 25 19 2 55 9 80 14
25 5 88 16 140 25 52 8 106 17 120 20 14 2 131 22 260 45 332 57 399 69 450
80 25 5 59 11 75 14 42 6 147 24 230 41 39 8 93 17 120 21 28 3 52 7 55 9 3 2
84 17 180 34 299 53 494 93 523 108 15 8 32 24 36 36 10 25 19 141 26 337 3
74 7 191 10 260 2 69 7 190 10 270 9 237 15 379 21 486 l6 101 -38 42 c-25 29
-67 56 -128 85 -293 139 -525 245 -550 252 l-29 7 7 371 c4 204 9 502 12 661
l6 290 56 6 c31 4 89 10 127 13 39 4 142 16 230 26 88 11 187 22 220 26 107
11 140 41 149 134 2 30 8 328 12 662 8 692 10 670 -68 721 -24 15 -175 80
-338 144 -162 64 -459 181 -660 260 -201 80 -419 164 -485 188 -66 24 -205 76
-310 115 -176 67 -377 140 -585 212 -95 33 -120 33 -410 11z m440 -162 c125
-40 296 -101 480 -173 41 -16 116 -44 165 -63 303 -113 695 -264 720 -278 25
-13 26 -16 10 -17 -11 0 -36 -3 -55 -5 -32 -4 -199 -20 -475 -46 -133 -12
-137 -13 -133 -41 4 -29 -34 -11 528 -246 104 -43 112 -49 69 -56 -56 -9 -218
-25 -314 -31 -49 -4 -148 -13 -220 -21 -225 -26 -287 -32 -390 -39 -55 -4
-106 -8 -115 -10 -8 -1 -67 -6 -130 -10 -63 -3 -122 -8 -130 -10 -8 -2 -58 -7
-110 -10 -52 -4 -134 -10 -183 -14 l-87 -8 -278 140 -277 139 -95 -6 c-52 -3
-198 -15 -325 -26 -126 -10 -295 -24 -375 -30 -284 -21 -289 -22 -277 -54 9
-23 49 -36 94 -31 21 2 76 6 123 10 118 8 349 26 505 40 28 2 86 7 130 10 44
3 101 8 127 11 44 4 62 -2 268 -102 121 -59 220 -110 220 -113 0 -3 -17 -6
-38 -7 -45 -1 -333 -23 -382 -29 -19 -2 -100 -9 -180 -15 -80 -6 -169 -13
-197 -15 -75 -7 -147 -13 -228 -20 -38 -3 -92 -8 -120 -10 -95 -9 -213 -17
-400 -30 -49 -4 -108 -8 -130 -10 -22 -2 -101 -9 -175 -15 -207 -15 -283 -22
-303 -26 -10 -1 -73 -6 -140 -9 -67 -4 -128 -8 -135 -11 -8 -2 -91 38 -185 90
-95 51 -248 133 -342 181 -359 186 -356 184 -332 189 12 3 117 12 232 21 569
44 711 58 722 68 15 16 -29 50 -126 97 -61 30 -110 55 -108 56 1 1 31 5 67 8
36 4 126 13 200 21 74 8 171 17 215 20 109 9 116 11 106 38 -13 35 -43 36
-301 13 -30 -3 -89 -8 -130 -11 -41 -4 -85 -8 -98 -10 -13 -2 -71 -7 -130 -11
-75 -4 -112 -11 -125 -22 -17 -15 -17 -16 0 -33 10 -9 67 -39 126 -65 59 -27
104 -50 100 -51 -4 -1 -91 -9 -193 -18 -182 -16 -251 -22 -320 -30 -19 -2
-114 -9 -210 -15 l-175 -12 -260 133 c-143 73 -342 174 -442 223 -101 50 -183
93 -183 97 0 3 8 6 18 6 27 -2 239 13 332 23 47 5 126 12 175 15 50 3 162 13
250 20 88 8 225 19 305 25 136 10 178 13 305 25 28 3 91 7 140 10 91 6 409 30
520 40 33 3 150 10 259 15 109 6 202 12 205 14 10 6 128 15 271 21 74 3 149 8
165 10 17 2 147 11 290 20 l260 17 110 -52 c61 -29 142 -67 180 -85 39 -18
162 -76 275 -130 113 -53 223 -104 245 -112 38 -14 105 -13 235 2 19 2 98 9
174 15 150 12 201 16 343 31 51 5 112 9 136 9 29 0 49 6 58 16 11 14 9 20 -15
41 -25 21 -35 23 -85 18 -65 -6 -264 -22 -366 -29 -38 -3 -129 -10 -200 -16
-239 -20 -235 -21 -365 42 -63 30 -215 101 -337 158 -123 57 -222 104 -220
106 1 1 36 4 77 8 140 12 205 18 228 21 12 2 96 9 185 15 89 7 227 18 307 24
211 17 238 15 390 -33z m-4933 -389 c26 -16 126 -66 222 -113 l174 -84 -7
-300 c-4 -164 -8 -301 -10 -303 -2 -1 -19 6 -37 16 -19 11 -69 38 -112 60
l-78 42 3 -51 3 -50 175 -90 c178 -92 402 -209 408 -215 8 -6 -5 -613 -12
-621 -1 -2 -76 43 -167 98 -90 56 -258 155 -374 221 -115 66 -222 132 -237
146 l-28 26 5 235 c5 256 15 861 15 954 0 31 2 57 5 57 2 0 26 -13 52 -28z
m6801 -322 c166 -66 307 -120 314 -120 7 0 8 -3 2 -9 -5 -5 -43 -12 -84 -15
-41 -4 -113 -11 -160 -16 -47 -5 -128 -12 -180 -15 -52 -3 -123 -8 -157 -11
-60 -6 -67 -4 -255 73 -106 44 -242 99 -301 123 -59 23 -106 44 -104 47 6 5
524 60 582 62 30 1 119 -30 343 -119z m-6100 -34 c125 -62 250 -127 277 -143
28 -16 135 -74 239 -128 l189 -99 -7 -327 c-7 -310 -6 -329 11 -346 10 -10
126 -79 257 -153 l238 -135 -6 -195 c-3 -107 -6 -252 -6 -322 l0 -128 -39 0
c-38 0 -167 66 -446 229 -49 29 -157 91 -240 136 -82 46 -196 112 -253 147
l-103 63 2 345 c3 258 0 351 -9 367 -11 21 -75 59 -267 159 l-80 42 1 99 c1
54 3 189 4 301 1 111 3 202 6 202 2 0 107 -51 232 -114z m6522 -450 c0 -134
-3 -264 -6 -289 -8 -54 11 -48 -242 -76 l-147 -16 -3 -38 -3 -38 58 6 c181 18
269 25 300 25 l34 0 -2 -227 c-1 -126 -4 -244 -6 -264 l-5 -36 -101 -12 c-56
-7 -122 -15 -147 -17 -42 -4 -168 -19 -250 -29 -19 -2 -57 -7 -85 -10 -27 -3
-108 -12 -180 -20 -71 -8 -138 -15 -147 -15 -16 0 -18 24 -20 326 -3 294 -5
328 -20 337 -12 8 -90 6 -275 -6 -142 -10 -308 -20 -369 -24 l-111 -6 -6 39
c-8 67 2 467 13 474 5 3 85 12 177 19 93 7 251 21 353 31 102 10 217 21 255
25 125 10 189 16 225 20 19 2 91 7 160 10 69 4 208 17 310 30 102 12 197 23
213 24 l27 1 0 -244z m-1795 -506 c14 -12 115 -7 450 20 66 6 166 13 222 17
l103 6 -5 -299 c-3 -164 -8 -301 -12 -305 -5 -3 -84 -14 -178 -23 -151 -15
-366 -37 -495 -51 -25 -3 -133 -14 -240 -25 -107 -11 -229 -25 -270 -30 -83
-10 -114 -13 -380 -35 -102 -9 -203 -18 -225 -20 -22 -2 -71 -7 -110 -10 -38
-3 -86 -8 -105 -10 -19 -2 -66 -6 -105 -10 -38 -3 -83 -8 -99 -11 l-29 -6 7
345 c7 404 12 383 -88 374 -34 -4 -178 -18 -321 -32 -143 -14 -315 -28 -382
-32 -116 -6 -123 -5 -124 13 -1 10 -1 129 -1 264 l0 245 93 7 c467 36 565 44
659 53 25 3 77 7 115 10 39 3 111 10 160 15 50 5 119 12 155 15 36 3 187 16
335 30 149 13 306 27 350 30 44 3 91 8 105 10 14 2 72 7 130 11 58 3 141 9
185 12 l80 7 3 -286 c2 -235 5 -289 17 -299z m-3786 467 c86 -45 182 -96 214
-112 l59 -30 -6 -95 c-3 -52 -6 -189 -6 -303 0 -195 -1 -207 -17 -197 -10 5
-106 61 -213 122 l-195 113 -2 293 c-1 160 1 292 4 292 3 0 76 -37 162 -83z
m1319 -372 c-4 -243 -3 -288 10 -306 14 -21 20 -21 131 -15 64 4 130 8 146 10
17 2 68 7 115 11 47 3 139 13 205 20 66 8 165 17 219 21 l99 7 -7 -313 c-3
-172 -8 -316 -11 -320 -2 -4 -39 -10 -82 -14 -43 -3 -94 -8 -113 -11 -66 -9
-315 -34 -395 -40 -44 -4 -91 -8 -105 -10 -68 -10 -286 -35 -437 -50 -241 -24
-660 -72 -706 -81 l-28 -6 3 651 c2 357 6 652 8 654 3 3 52 8 110 12 58 4 107
8 110 10 3 1 59 6 125 9 66 4 136 9 155 11 19 2 76 7 125 11 50 3 133 10 185
14 52 4 106 8 119 9 l24 1 -5 -285z m-2303 -593 c116 -65 262 -151 325 -190
64 -38 206 -120 315 -182 110 -62 206 -117 213 -123 11 -9 13 -57 8 -251 -4
-133 -9 -266 -12 -296 -7 -69 -2 -74 161 -165 66 -37 126 -72 134 -78 11 -9
12 -64 7 -312 -7 -321 -17 -679 -20 -682 -1 -1 -112 72 -246 163 -135 91 -253
171 -262 177 -16 11 -18 32 -18 208 0 195 0 196 -25 219 l-24 23 -11 -27 c-5
-15 -10 -102 -10 -192 0 -105 -4 -164 -10 -162 -5 2 -181 120 -391 263 l-381
260 8 425 c4 234 7 435 6 448 -1 12 0 22 1 22 10 0 355 -194 370 -208 18 -16
19 -31 12 -289 l-8 -272 27 -12 c16 -8 30 -9 35 -3 5 5 11 50 15 99 9 140 10
498 2 517 -4 9 -106 72 -227 140 l-218 123 -1 243 c0 134 3 241 8 239 4 -3
102 -59 217 -125z m5761 -464 c-3 -161 -8 -405 -11 -543 -6 -282 -17 -699 -19
-701 0 -1 -35 -4 -76 -8 -41 -3 -117 -12 -168 -19 -51 -7 -95 -10 -98 -5 -3 4
-3 92 0 195 3 104 8 350 11 548 3 198 8 410 11 470 11 256 15 310 22 317 7 6
195 30 291 36 l43 3 -6 -293z m-921 177 c201 -53 357 -222 426 -462 68 -240 3
-492 -176 -681 -79 -84 -186 -143 -321 -177 -196 -50 -380 -19 -552 94 -130
86 -219 207 -258 351 -24 93 -25 282 0 380 33 132 117 262 234 363 115 98 161
113 407 132 50 4 91 8 93 10 9 8 98 2 147 -10z m-1504 -164 c92 -59 194 -173
252 -281 61 -114 72 -160 72 -305 -1 -120 -3 -137 -33 -224 -73 -210 -201
-355 -397 -447 -268 -125 -547 -93 -767 90 -178 148 -255 325 -245 561 5 128
32 217 98 328 45 75 132 167 203 214 52 35 117 46 431 73 302 27 332 26 386
-9z m-2247 -169 c43 -18 95 -32 115 -32 36 0 228 24 283 36 25 5 26 4 22 -33
-2 -21 -5 -172 -8 -336 -2 -164 -6 -300 -8 -302 -2 -2 -35 -5 -74 -6 -70 -3
-70 -3 -205 71 -74 41 -168 92 -209 115 l-75 40 0 180 c-1 99 1 217 3 262 l4
82 36 -23 c20 -12 72 -37 116 -54z m844 -397 c-3 -3 -9 2 -12 12 -6 14 -5 15
5 6 7 -7 10 -15 7 -18z m-514 -358 l78 6 -7 -339 c-4 -186 -9 -370 -10 -409
-2 -38 -4 -95 -4 -126 l-1 -55 -112 -18 c-62 -9 -121 -19 -130 -22 -16 -5 -18
10 -18 198 0 112 3 341 6 510 l7 307 57 -29 c52 -26 62 -28 134 -23z m-1790
-1 c1 -30 9 -38 93 -97 549 -381 604 -418 993 -680 413 -278 483 -321 515
-315 17 3 53 8 80 12 28 3 127 17 220 30 226 33 209 31 385 54 85 11 218 29
295 41 77 11 154 22 170 24 92 12 650 89 765 105 74 11 158 22 185 25 28 3 93
12 145 20 52 8 113 16 135 19 22 3 90 13 150 21 61 9 128 18 150 21 22 3 83
11 135 19 127 18 162 23 245 34 169 23 449 62 550 76 61 9 169 25 240 35 127
18 400 58 700 103 139 21 150 25 153 45 3 16 -5 26 -32 39 -35 16 -36 19 -36
71 0 40 3 53 13 49 6 -3 89 -39 182 -80 94 -41 199 -88 235 -104 36 -17 74
-34 85 -38 16 -7 9 -10 -30 -16 -155 -23 -194 -29 -230 -34 -113 -16 -380 -57
-455 -70 -47 -8 -132 -21 -190 -29 -140 -20 -180 -26 -210 -31 -14 -3 -45 -7
-70 -10 -25 -3 -126 -19 -225 -35 -99 -16 -200 -32 -225 -35 -25 -4 -88 -13
-140 -21 -52 -8 -225 -32 -385 -54 -159 -22 -328 -46 -375 -54 -99 -18 -171
-28 -370 -56 -80 -11 -194 -27 -255 -36 -60 -8 -128 -17 -150 -20 -46 -5 -199
-28 -330 -49 -49 -8 -128 -19 -175 -25 -129 -17 -128 -17 -395 -55 -137 -19
-311 -44 -385 -55 -74 -11 -175 -25 -225 -30 -121 -15 -288 -39 -352 -51 -58
-11 -74 -6 -173 61 -30 21 -107 70 -169 109 -63 40 -174 114 -245 165 -371
262 -999 699 -1253 872 l-32 22 42 11 c36 9 128 23 217 34 33 4 33 3 34 -37z
m-315 -128 c136 -92 195 -133 280 -192 l83 -59 -7 -296 c-3 -163 -7 -297 -8
-298 -2 -1 -90 56 -196 128 -106 71 -207 137 -224 145 l-30 16 6 237 c4 130 7
266 7 304 0 37 3 67 6 67 4 0 41 -23 83 -52z m688 -481 c76 -54 245 -173 376
-265 l238 -166 -6 -266 c-6 -284 -14 -430 -22 -430 -3 0 -35 22 -72 48 -71 52
-149 107 -278 195 l-83 57 -14 -23 c-10 -16 -16 -76 -20 -217 -4 -107 -9 -236
-13 -287 -5 -81 -8 -91 -22 -83 -15 8 -144 108 -445 345 l-128 100 8 280 c4
154 8 292 7 308 0 26 19 38 31 18 3 -5 37 -28 76 -51 61 -37 73 -41 85 -29 19
19 24 95 25 396 l1 253 59 -43 c33 -23 122 -86 197 -140z m4557 135 c3 -5 -1
-9 -9 -9 -8 0 -15 4 -15 9 0 4 4 8 9 8 6 0 12 -4 15 -8z m1922 -149 c-3 -27
-10 -140 -17 -253 -6 -113 -15 -208 -18 -211 -3 -4 -37 -10 -76 -13 -38 -3
-122 -16 -185 -27 -63 -12 -124 -22 -135 -24 -166 -24 -318 -48 -347 -56 l-38
-10 -1 -72 c0 -40 -2 -85 -4 -102 -2 -16 -6 -138 -10 -270 -6 -225 -13 -345
-20 -353 -7 -7 -106 -27 -415 -83 -30 -5 -75 -14 -100 -18 -25 -5 -166 -29
-315 -55 -148 -25 -281 -48 -294 -51 l-23 -6 7 258 c7 233 6 260 -9 272 -14
12 -49 8 -239 -23 -122 -20 -244 -41 -272 -46 -27 -5 -105 -19 -173 -30 -67
-10 -127 -22 -132 -25 -15 -10 -12 -55 5 -61 11 -5 584 85 729 113 l28 6 -6
-154 c-8 -190 -16 -312 -21 -317 -4 -5 -379 -74 -680 -126 -82 -15 -256 -45
-385 -67 -129 -22 -309 -53 -400 -69 -91 -16 -230 -40 -310 -55 -80 -14 -161
-28 -180 -31 -54 -7 -173 -26 -195 -30 -11 -2 -60 -11 -110 -19 -49 -8 -102
-17 -117 -20 l-28 -4 0 374 0 375 23 4 c12 3 58 10 102 17 44 6 89 13 100 15
11 2 92 15 180 29 88 14 183 30 210 36 28 6 60 12 72 15 14 2 25 16 31 36 6
18 13 163 16 322 4 159 8 292 11 294 7 8 142 30 396 66 140 20 304 45 364 56
61 10 162 26 225 34 63 9 158 22 210 30 198 30 447 65 505 71 33 4 112 15 175
26 63 10 135 21 160 24 25 4 95 15 155 25 61 10 135 21 165 25 30 4 168 24
305 45 138 22 266 41 285 43 19 3 114 16 210 30 96 14 198 28 225 32 124 15
319 46 324 50 2 3 13 5 23 5 16 0 18 -6 14 -47z m-7126 -238 l101 -70 -7 -305
c-3 -168 -7 -306 -8 -307 -3 -4 -98 76 -166 141 l-65 61 1 160 c0 88 1 215 2
282 2 145 -9 142 142 38z m1645 -441 l60 -41 0 -374 c0 -363 -11 -903 -19
-944 -3 -11 -5 -42 -5 -68 l-1 -48 -32 22 c-18 13 -51 38 -73 55 -45 37 -502
390 -651 503 l-97 74 7 281 c4 154 9 282 11 284 2 2 96 -62 209 -142 113 -80
214 -146 224 -146 11 0 24 6 29 13 9 10 22 422 23 679 l0 68 128 -87 c70 -48
154 -106 187 -129z m1661 69 c-3 -49 -6 -176 -8 -284 l-3 -196 -70 -17 c-57
-13 -371 -63 -576 -91 -76 -11 -74 -4 -77 -197 l-4 -173 -131 -22 c-73 -12
-240 -40 -372 -62 -132 -23 -246 -41 -254 -41 -11 0 -12 35 -7 203 3 111 8
319 12 462 3 143 8 268 10 277 3 10 22 22 42 27 36 10 208 35 314 46 29 4 76
10 103 15 28 5 86 14 130 20 44 6 91 12 105 15 14 2 97 13 185 25 198 26 372
50 405 56 14 3 48 7 75 11 28 3 52 7 54 9 2 2 20 4 38 4 l34 0 -5 -87z m3795
55 c2 -17 2 2 -5 -213 -7 -203 -23 -439 -32 -467 -6 -19 -12 -21 -99 -37 -33
-6 -116 -22 -185 -35 -150 -30 -373 -66 -401 -66 -20 0 -20 3 -14 243 4 133 8
267 10 297 2 30 4 83 4 116 l1 62 93 16 c50 9 121 20 157 25 36 5 99 15 140
21 41 7 129 20 195 30 66 10 123 18 128 19 4 0 8 -5 8 -11z m-4535 -1285 c-4
-109 -10 -201 -14 -204 -4 -3 -52 -13 -107 -22 -84 -14 -410 -70 -535 -92 -19
-3 -52 -10 -72 -14 -20 -5 -39 -7 -41 -5 -4 5 4 398 8 403 2 2 138 25 302 52
164 27 330 55 368 63 39 7 76 14 84 15 11 1 13 -31 7 -196z"/>
<path d="M6595 5343 c-44 -23 -84 -63 -108 -108 -18 -33 -22 -57 -22 -131 0
-84 2 -94 30 -134 43 -63 90 -90 155 -91 64 -1 94 9 139 46 55 47 85 118 85
205 1 79 -13 120 -58 168 -52 58 -156 79 -221 45z"/>
<path d="M5353 5251 c-45 -21 -95 -81 -114 -138 -18 -56 -7 -181 21 -230 62
-111 202 -136 290 -51 53 53 81 125 79 204 -4 115 -61 197 -154 223 -55 15
-73 14 -122 -8z"/>
</g>
</svg>
