<?xml version="1.0" standalone="no"?>
<!DOCTYPE svg PUBLIC "-//W3C//DTD SVG 20010904//EN"
 "http://www.w3.org/TR/2001/REC-SVG-20010904/DTD/svg10.dtd">
<svg version="1.0" xmlns="http://www.w3.org/2000/svg"
 width="1024.000000pt" height="1024.000000pt" viewBox="0 0 1024.000000 1024.000000"
 preserveAspectRatio="xMidYMid meet">
<metadata>
Created by potrace 1.16, written by Peter Selinger 2001-2019
</metadata>
<g transform="translate(0.000000,1024.000000) scale(0.100000,-0.100000)"
fill="#000000" stroke="none">
<path d="M8742 8079 c-46 -60 -223 -323 -293 -436 -77 -125 -190 -299 -208
-321 -22 -25 -37 -23 -161 17 -63 21 -68 30 -51 105 6 28 25 121 42 206 18 85
37 177 43 204 10 48 10 48 -26 81 -34 32 -143 75 -188 75 -33 0 -80 -51 -111
-119 -17 -36 -62 -140 -100 -230 -39 -91 -72 -168 -75 -172 -2 -4 -34 1 -71
11 -78 20 -122 13 -258 -40 -44 -17 -123 -47 -175 -65 -52 -19 -138 -50 -190
-69 l-95 -35 -85 23 c-47 13 -139 40 -205 60 -156 48 -150 49 -490 -59 -168
-53 -138 -54 -330 8 -60 19 -162 51 -225 71 -63 20 -124 40 -135 45 -11 5 -58
19 -105 31 -47 12 -116 34 -153 48 l-68 25 -92 -23 c-103 -25 -241 -66 -272
-80 -11 -5 -63 -21 -115 -36 -132 -37 -351 -110 -570 -189 -102 -37 -212 -76
-245 -87 -71 -25 -102 -43 -118 -72 -6 -12 -14 -70 -17 -131 l-5 -110 -25 4
c-57 10 -119 2 -192 -25 -42 -16 -80 -25 -84 -21 -11 10 85 243 163 398 34 70
63 138 63 151 0 33 -33 74 -66 82 -28 7 -89 -26 -110 -61 -63 -103 -151 -309
-214 -498 -24 -71 -48 -135 -54 -141 -12 -13 -136 -45 -147 -38 -4 2 -3 21 2
41 22 100 59 302 59 329 0 41 -24 71 -67 83 -47 13 -77 -4 -91 -51 -13 -40
-45 -205 -67 -348 -9 -58 -20 -108 -23 -111 -4 -4 -52 4 -107 17 -55 13 -147
35 -204 48 -57 14 -105 27 -108 29 -2 3 10 60 28 128 39 156 46 294 15 328
-15 16 -29 21 -55 19 -48 -4 -76 -47 -91 -141 -6 -39 -23 -121 -38 -182 l-27
-110 -40 -6 c-22 -3 -47 -8 -55 -10 -13 -3 -15 27 -15 231 -1 227 -9 330 -42
520 -18 103 -31 120 -90 120 -100 0 -111 -32 -84 -241 12 -85 25 -187 29 -228
10 -86 8 -319 -3 -403 -7 -56 -9 -58 -44 -68 -82 -22 -80 -23 -110 65 -47 137
-163 348 -217 397 -54 47 -144 7 -144 -65 0 -23 13 -54 43 -97 84 -126 108
-166 142 -248 19 -46 35 -95 35 -108 0 -30 -12 -35 -230 -100 -114 -34 -382
-124 -503 -168 -119 -44 -166 -67 -192 -96 -23 -25 -21 44 -17 -810 1 -256 0
-529 -1 -608 l-3 -142 -39 -21 c-112 -59 -243 -134 -271 -154 -54 -41 -59 -75
-46 -342 7 -131 14 -344 17 -473 5 -259 6 -264 74 -304 46 -27 289 -114 519
-186 56 -18 105 -36 107 -40 3 -5 -25 -35 -62 -67 -130 -112 -163 -148 -163
-180 0 -16 13 -50 29 -75 29 -46 140 -142 198 -172 67 -34 48 -42 549 242 51
29 102 52 115 52 21 0 168 -39 469 -124 47 -13 162 -47 255 -76 94 -28 199
-54 236 -57 l66 -5 219 120 c212 116 393 219 478 273 22 14 109 65 191 113
149 86 150 87 153 61 5 -41 -14 -145 -54 -293 -43 -159 -50 -169 -227 -352
-62 -63 -136 -141 -166 -173 l-53 -58 4 -61 c4 -56 8 -65 41 -93 47 -41 236
-145 262 -145 11 0 60 30 108 68 48 37 100 76 115 87 49 36 235 198 298 260
42 41 66 76 79 110 29 78 144 380 187 490 109 275 113 289 136 450 17 117 18
120 50 142 39 26 209 93 236 93 10 0 44 -14 75 -32 107 -61 356 -212 388 -235
37 -28 62 -79 113 -228 88 -257 192 -540 230 -631 39 -90 107 -96 280 -22 137
58 142 66 141 197 -1 56 -3 112 -6 124 -2 12 -9 90 -15 172 -17 230 -64 499
-116 653 -13 40 -24 74 -24 77 0 2 28 17 63 33 34 17 158 75 276 131 l214 101
101 -55 c56 -29 113 -67 129 -84 15 -16 43 -72 62 -123 19 -51 62 -167 95
-258 34 -91 76 -205 95 -255 51 -141 66 -168 105 -188 49 -25 90 -18 226 44
165 74 169 83 139 302 -30 213 -47 312 -65 382 -10 39 -28 116 -39 173 -24
113 -52 205 -74 249 -24 45 -86 112 -121 130 -39 20 -45 30 -37 59 7 26 97 74
311 164 140 58 113 60 285 -20 55 -26 107 -50 115 -52 15 -5 150 -245 150
-266 0 -11 53 -134 70 -164 5 -10 10 -22 10 -27 0 -5 22 -56 48 -113 27 -56
60 -129 73 -161 55 -134 99 -145 266 -70 115 52 163 94 163 142 0 54 -50 336
-86 481 -80 328 -146 468 -249 536 -95 63 -106 74 -95 94 6 10 10 39 10 64 0
78 -2 78 128 26 64 -26 137 -56 162 -67 25 -11 56 -24 70 -28 38 -12 91 -49
131 -91 43 -45 253 -325 349 -463 99 -143 110 -154 156 -154 43 0 205 76 282
132 l42 31 0 67 c0 64 -4 74 -82 227 -108 214 -242 458 -289 527 -54 80 -93
110 -202 154 -53 22 -97 43 -97 46 0 3 35 21 78 39 133 59 138 63 146 123 3
28 6 82 6 118 0 36 3 100 6 141 l7 75 61 34 c202 111 585 303 830 416 147 68
154 72 164 103 16 48 14 183 -2 222 -33 77 -62 77 -356 -2 -63 -17 -142 -39
-175 -50 -86 -28 -427 -121 -430 -118 -2 2 69 84 157 183 88 99 167 192 177
208 10 15 65 80 123 145 127 141 235 269 255 299 27 41 32 88 13 130 -9 21
-26 46 -36 55 -25 22 -87 48 -115 48 -35 0 -209 -121 -618 -432 -99 -76 -187
-138 -194 -138 -8 0 -25 8 -37 18 l-21 17 21 50 c12 28 37 93 55 145 68 191
104 287 144 390 23 58 51 130 63 160 12 30 24 78 26 106 4 49 3 53 -29 76 -42
32 -121 58 -171 58 -35 0 -42 -5 -86 -61z m120 -124 c2 -3 -22 -71 -55 -153
-86 -212 -185 -467 -209 -537 -11 -33 -24 -64 -28 -68 -8 -9 -170 40 -170 51
0 21 91 181 176 310 53 80 109 166 124 191 123 206 140 228 162 206z m-937
-310 c-19 -88 -38 -176 -42 -195 -8 -33 -11 -35 -46 -34 -74 3 -74 11 6 194
85 195 96 215 108 203 5 -5 -6 -75 -26 -168z m1635 -152 c0 -10 -54 -76 -179
-220 -51 -59 -172 -199 -269 -310 -96 -111 -178 -200 -182 -198 -4 3 -4 24 1
47 4 24 8 87 9 140 l0 97 93 73 c149 118 505 376 520 377 4 1 7 -2 7 -6z
m-4422 -148 c478 -154 679 -218 752 -240 82 -24 766 -247 823 -267 15 -6 27
-14 27 -18 0 -9 -612 -260 -635 -260 -2 0 -28 -11 -57 -24 -29 -13 -75 -31
-103 -41 -27 -10 -96 -38 -153 -62 -57 -24 -109 -43 -115 -43 -7 0 -105 34
-217 76 -113 41 -248 91 -300 109 -138 49 -218 80 -225 86 -5 5 116 55 284
116 85 31 112 29 228 -13 54 -19 123 -43 153 -54 30 -10 98 -35 150 -55 86
-34 98 -36 133 -25 40 12 57 34 39 52 -10 10 -116 49 -424 153 -175 60 -197
62 -294 30 -43 -14 -106 -36 -139 -50 -33 -13 -109 -42 -169 -65 l-109 -41
-231 75 c-127 41 -258 83 -291 94 -180 58 -375 127 -375 133 0 10 237 96 325
118 44 11 99 25 122 32 48 15 27 20 356 -87 214 -69 269 -77 308 -45 l24 20
-36 15 c-30 13 -183 62 -434 141 l-40 13 29 11 c16 7 93 32 170 58 78 25 173
56 211 69 39 13 78 23 88 24 9 0 66 -16 125 -35z m2446 -4 c151 -49 404 -127
521 -161 185 -54 538 -174 542 -185 1 -5 -48 -30 -110 -54 -61 -24 -130 -52
-152 -62 -78 -36 -297 -119 -312 -119 -7 0 -13 11 -13 25 0 75 -43 104 -275
180 -77 26 -147 51 -155 55 -17 10 -20 9 75 35 52 15 70 16 141 5 87 -14 131
-9 141 15 10 28 -18 43 -114 65 l-96 22 -86 -22 c-47 -13 -118 -33 -157 -46
l-70 -23 -145 51 c-79 27 -166 58 -193 67 -28 10 -51 22 -53 27 -2 6 52 30
119 53 68 24 157 56 198 71 41 16 81 28 89 29 7 1 55 -12 105 -28z m-1044
-122 c80 -22 161 -47 181 -56 19 -8 71 -25 115 -38 43 -12 187 -59 319 -103
132 -44 321 -106 420 -137 99 -32 186 -62 192 -68 19 -14 8 -23 -45 -42 -60
-22 -198 -73 -327 -121 -258 -96 -390 -144 -394 -144 -2 0 0 80 4 179 l7 178
-28 22 c-15 12 -66 33 -113 47 -100 30 -672 221 -716 240 l-30 12 30 12 c17 6
73 21 125 32 52 11 97 22 99 24 7 7 10 6 161 -37z m-2640 -355 c69 -25 208
-71 310 -104 240 -76 669 -219 790 -264 52 -19 165 -60 250 -91 85 -31 202
-75 259 -97 l104 -42 -7 -120 c-3 -67 -8 -398 -11 -736 -6 -652 -9 -740 -28
-740 -7 0 -59 20 -117 44 l-105 43 0 109 c0 135 13 778 22 1091 5 208 4 234
-11 258 -20 31 -38 39 -226 106 -80 28 -201 71 -270 96 -133 47 -374 126 -610
200 -80 24 -208 64 -285 88 -77 25 -156 48 -175 53 -35 8 -35 9 -38 66 -3 60
1 86 15 86 4 0 64 -21 133 -46z m4885 -208 c-4 -132 -9 -244 -11 -248 -6 -9
-95 -55 -154 -78 -25 -10 -88 -38 -140 -62 -52 -25 -110 -50 -127 -58 -29 -11
-33 -17 -33 -51 0 -28 4 -39 15 -39 19 0 130 45 294 119 74 34 137 61 140 61
3 0 5 -127 3 -282 -2 -202 -7 -286 -15 -294 -7 -6 -86 -46 -177 -89 -193 -91
-508 -242 -532 -255 -20 -11 -24 0 -22 65 1 28 2 95 3 151 l1 100 58 27 c31
14 93 42 137 62 43 20 87 43 97 52 22 20 23 46 3 63 -13 11 -38 3 -150 -45
-74 -32 -137 -57 -139 -54 -2 2 0 90 5 194 4 105 8 271 9 370 1 99 4 198 8
220 l7 40 130 51 c72 28 153 61 180 72 28 12 104 42 170 67 66 25 145 56 175
69 30 13 59 21 64 18 4 -2 5 -113 1 -246z m-1929 -253 c-16 -762 -26 -1105
-32 -1115 -6 -9 -31 -21 -199 -93 -135 -59 -155 -71 -155 -99 0 -48 42 -49
128 -2 15 8 43 22 62 30 19 8 66 28 103 45 l69 30 -7 -317 c-4 -174 -8 -323
-11 -330 -2 -8 -55 14 -164 68 -194 98 -232 112 -279 104 -42 -7 -97 -22 -126
-34 -124 -52 -178 -92 -194 -143 -15 -51 -21 -159 -11 -202 9 -42 40 -73 98
-100 17 -9 32 -21 32 -26 0 -15 -420 -209 -451 -209 -6 0 -8 60 -5 148 7 181
14 441 22 800 l7 273 41 18 c50 23 316 131 321 131 3 0 6 -44 7 -97 l3 -98 29
2 c16 1 33 6 37 10 13 13 13 283 0 296 -7 7 -35 0 -93 -23 -129 -51 -338 -130
-345 -130 -9 0 6 923 15 932 4 4 50 25 102 46 398 163 472 192 496 198 l27 7
-6 -184 c-4 -101 -7 -203 -7 -225 0 -40 -1 -42 -47 -59 -27 -10 -74 -31 -105
-46 -56 -28 -57 -30 -51 -62 8 -43 20 -49 62 -28 20 10 66 29 103 42 88 31
107 46 118 94 5 22 10 144 10 271 l0 231 188 76 c103 41 193 76 201 76 12 1
13 -47 7 -306z m1061 95 c-4 -112 -10 -327 -13 -479 l-7 -276 -46 -21 c-25
-12 -84 -37 -131 -56 -47 -19 -101 -41 -120 -49 -19 -8 -46 -18 -59 -22 l-24
-7 7 188 c4 104 4 197 1 207 -4 9 -15 17 -24 17 -17 0 -153 -54 -316 -125
-105 -46 -187 -77 -191 -72 -6 5 -4 427 1 506 2 23 7 47 12 51 4 4 60 27 123
50 186 69 230 85 330 125 140 55 217 83 287 106 34 10 81 28 105 39 75 34 72
44 65 -182z m-4246 146 c57 -20 145 -47 194 -61 50 -13 131 -37 180 -53 50
-16 142 -45 205 -64 269 -81 332 -102 455 -149 72 -27 175 -64 230 -82 120
-39 157 -55 152 -68 -2 -8 -52 -29 -137 -57 -14 -5 -63 -22 -110 -40 -225 -83
-546 -190 -557 -185 -10 3 -13 37 -13 122 0 74 -5 127 -13 142 -26 52 -49 61
-402 156 -277 74 -295 79 -295 87 0 4 20 27 45 52 24 25 48 58 51 73 10 37
-14 76 -56 89 -29 10 -41 9 -70 -6 -34 -17 -103 -85 -145 -142 l-20 -27 -60
20 c-113 38 -106 32 -89 84 18 52 32 61 144 94 41 12 93 29 115 36 61 20 83
18 196 -21z m6157 19 c-2 -9 -44 -37 -98 -65 -146 -75 -801 -398 -806 -398 -6
0 -3 160 5 195 5 24 14 32 51 43 90 28 349 104 530 156 102 29 210 60 240 69
72 20 82 20 78 0z m-7733 -115 c-4 -18 -9 -40 -11 -49 -3 -9 7 -31 22 -48 51
-61 117 -34 146 61 14 49 24 53 79 37 24 -7 123 -31 219 -54 l175 -41 5 -109
c5 -112 16 -147 50 -165 30 -16 50 -12 81 19 27 28 29 34 29 111 0 92 4 96 72
83 34 -7 43 -13 41 -29 -15 -124 -14 -160 7 -192 18 -30 24 -33 62 -30 55 4
76 33 86 120 5 37 11 70 14 73 5 5 117 -20 124 -28 2 -2 -10 -40 -26 -86 -17
-45 -30 -96 -30 -115 0 -65 75 -93 125 -46 14 13 43 61 65 107 22 46 43 83 47
83 8 0 62 -15 293 -79 234 -66 261 -74 257 -84 -5 -15 -263 -124 -662 -282
-93 -36 -221 -90 -284 -118 -63 -29 -120 -50 -125 -49 -6 2 -60 15 -121 28
-125 27 -245 63 -245 73 0 4 98 50 217 102 119 52 218 99 220 106 3 6 -5 21
-16 32 -27 27 -45 22 -325 -98 -131 -56 -246 -103 -255 -103 -9 -1 -68 15
-131 35 -63 20 -151 46 -195 58 -44 11 -109 30 -145 41 -36 11 -119 36 -185
54 -66 18 -181 51 -255 72 -243 71 -353 103 -462 134 -60 17 -108 33 -108 37
0 9 629 217 634 209 1 -1 8 -21 15 -43 31 -90 79 -127 131 -100 35 18 54 73
39 112 -5 13 -9 40 -9 59 0 29 5 36 36 49 46 19 42 20 49 -18 10 -51 36 -78
82 -84 35 -5 43 -2 56 18 9 13 21 53 27 89 7 36 14 68 16 72 3 5 21 8 40 8 35
0 35 -1 29 -32z m945 -8 c0 -5 -4 -10 -10 -10 -5 0 -10 5 -10 10 0 6 5 10 10
10 6 0 10 -4 10 -10z m-2118 -486 c70 -18 162 -44 205 -58 162 -51 291 -89
383 -111 52 -13 138 -37 190 -53 52 -17 147 -44 210 -62 128 -34 279 -80 385
-116 39 -13 144 -42 235 -64 91 -23 172 -43 180 -45 120 -34 171 -52 175 -63
6 -16 6 -991 0 -1212 -2 -85 -6 -348 -10 -585 -6 -507 -14 -685 -27 -702 -17
-21 -183 -112 -215 -119 -27 -5 -296 61 -568 141 -44 13 -138 40 -210 59 -71
20 -191 53 -265 75 -74 21 -184 53 -245 70 -235 68 -616 193 -845 279 l-75 28
-7 229 c-3 127 -9 323 -12 438 l-5 207 37 23 c52 33 211 117 220 117 4 0 27
-29 50 -64 151 -231 420 -306 666 -187 91 44 157 98 212 172 l37 51 31 -94
c40 -120 104 -212 195 -278 93 -69 156 -91 271 -97 188 -10 326 42 451 166
150 150 207 351 165 575 -42 218 -209 396 -421 451 -210 54 -459 -44 -576
-227 l-32 -50 -14 32 c-7 18 -13 38 -13 45 0 7 -19 50 -41 95 -96 191 -281
310 -481 310 -120 0 -258 -53 -344 -132 -24 -23 -46 -39 -48 -37 -6 7 -14 828
-8 834 3 3 13 3 21 -1 9 -3 73 -21 143 -40z m4299 -36 c2 -75 2 -183 1 -343
l-2 -170 -52 -19 c-29 -10 -78 -29 -108 -42 -62 -26 -317 -124 -324 -124 -3 0
-3 21 -1 48 3 26 7 152 9 281 3 128 7 235 9 238 5 4 74 31 192 73 44 16 116
43 160 59 105 39 115 39 116 -1z m-1093 -290 l-3 -242 -90 -39 c-49 -21 -130
-57 -178 -79 -49 -22 -91 -37 -95 -33 -4 4 -7 115 -7 247 l0 240 95 40 c52 22
131 55 175 74 44 18 86 34 93 34 11 0 13 -47 10 -242z m3317 141 c0 -8 -4 -94
-8 -193 -8 -184 -5 -206 32 -206 9 0 104 38 211 84 122 53 199 81 205 75 13
-13 3 -519 -10 -519 -2 0 -55 20 -118 45 -129 50 -168 54 -245 25 -201 -77
-248 -130 -257 -294 -3 -44 -8 -62 -22 -70 -42 -25 -258 -114 -266 -109 -4 2
-6 44 -3 91 3 48 7 251 11 452 3 201 8 384 11 406 5 41 6 43 77 74 249 110
363 158 372 156 6 -2 10 -9 10 -17z m-2780 -191 c-3 -101 -7 -246 -8 -323 l-2
-140 35 1 c19 1 76 17 125 37 208 82 389 147 394 141 8 -8 1 -368 -7 -375 -4
-4 -78 -32 -164 -64 -159 -58 -198 -81 -198 -114 0 -44 22 -42 176 13 82 29
157 57 167 61 18 8 19 -4 15 -303 -1 -171 -6 -313 -10 -317 -3 -4 -56 19 -116
50 -66 35 -127 59 -154 62 -89 10 -366 -108 -427 -181 -20 -23 -41 -116 -41
-177 0 -64 17 -93 75 -129 19 -12 35 -25 35 -28 0 -4 -39 -21 -88 -39 -48 -17
-111 -40 -141 -52 -105 -40 -95 -71 -92 294 2 176 6 346 9 379 l7 58 130 69
c72 37 134 74 138 81 12 18 -9 68 -28 68 -9 0 -65 -25 -124 -55 -60 -30 -112
-55 -116 -55 -14 0 11 1079 25 1094 11 11 349 126 373 126 17 0 18 -11 12
-182z m-1006 -115 c2 -270 9 -336 37 -347 10 -4 98 29 215 79 109 47 201 85
204 85 7 0 3 -744 -5 -969 l-5 -154 -188 -96 c-179 -92 -227 -121 -227 -139 0
-4 6 -16 13 -27 13 -17 24 -13 202 69 104 47 191 83 194 80 3 -3 4 -105 2
-227 -2 -182 -6 -225 -18 -239 -9 -10 -102 -65 -207 -124 -257 -143 -391 -220
-576 -329 -169 -100 -304 -175 -314 -175 -6 0 3 956 10 978 2 7 45 33 96 56
208 98 271 126 285 126 14 0 13 -140 -3 -466 -6 -124 0 -139 51 -126 19 5 32
17 36 33 4 13 7 162 8 330 1 397 16 378 -214 269 -150 -72 -247 -112 -253
-106 -2 3 0 163 4 357 l9 352 140 65 c77 35 161 72 186 82 l46 17 7 -75 c3
-41 6 -142 6 -224 0 -82 4 -158 10 -168 11 -20 42 -17 62 7 15 18 12 537 -4
566 -13 25 -23 22 -249 -79 -104 -46 -194 -82 -199 -79 -6 4 -10 116 -10 276
l0 270 67 30 c37 16 81 36 97 44 63 28 134 57 216 90 47 19 123 50 169 69 47
19 88 33 91 31 4 -2 8 -98 9 -212z m4960 -173 c56 -27 107 -50 114 -50 20 0
84 -57 116 -103 36 -52 207 -383 278 -536 39 -86 50 -118 42 -128 -20 -23
-121 -76 -128 -66 -191 283 -348 495 -419 569 -52 54 -98 79 -227 126 -110 40
-195 79 -195 89 0 5 21 18 48 29 26 11 94 43 152 70 58 27 108 49 111 50 4 0
52 -22 108 -50z m-7346 -65 c88 -23 136 -52 210 -126 102 -102 147 -217 147
-372 -1 -93 -13 -146 -56 -232 -63 -129 -149 -207 -282 -255 -52 -19 -76 -22
-159 -18 -124 5 -188 32 -277 118 -75 72 -119 149 -146 257 -24 94 -25 139 -5
232 59 281 318 461 568 396z m1015 -190 c85 -20 149 -54 216 -116 77 -70 115
-128 143 -218 34 -111 32 -224 -5 -330 -35 -97 -66 -144 -146 -218 -144 -133
-365 -170 -529 -87 -66 34 -167 135 -201 202 -56 110 -73 274 -41 397 45 170
181 315 339 360 97 27 143 29 224 10z m5492 -148 c128 -63 234 -132 283 -182
29 -30 44 -61 72 -148 64 -197 137 -523 139 -621 1 -67 0 -70 -29 -87 -16 -10
-42 -20 -56 -24 -24 -6 -28 -1 -81 117 -31 68 -82 182 -113 253 -99 225 -163
350 -200 387 -36 36 -52 44 -264 142 -63 28 -119 60 -125 69 -21 32 12 69 104
115 105 53 123 52 270 -21z m-2280 -399 c94 -39 86 -14 78 -272 -4 -127 -12
-234 -17 -239 -6 -6 -29 2 -60 22 -28 17 -54 31 -57 31 -3 0 -30 16 -60 35
l-56 36 4 212 c1 117 6 217 10 224 8 11 33 4 158 -49z m1065 -90 c160 -80 333
-176 372 -205 47 -34 71 -107 134 -403 24 -113 69 -427 69 -481 0 -34 -4 -41
-37 -58 -21 -10 -52 -22 -68 -25 -30 -6 -31 -5 -52 51 -29 78 -174 453 -224
578 -58 145 -73 165 -171 215 -87 45 -349 188 -387 212 -19 11 -22 19 -18 57
6 52 23 68 112 106 83 34 122 28 270 -47z m-1604 -270 c48 -16 236 -119 349
-191 313 -198 347 -228 379 -334 35 -119 80 -413 113 -748 15 -144 10 -161
-50 -186 -26 -11 -59 -23 -73 -26 -23 -4 -27 -1 -37 34 -19 71 -190 557 -225
645 -59 143 -84 186 -130 219 -53 39 -385 236 -537 319 -137 75 -150 85 -150
120 0 34 28 59 110 100 116 58 184 71 251 48z m-669 -662 c-4 -72 -18 -121
-82 -286 -29 -74 -65 -171 -80 -215 -25 -70 -52 -141 -132 -339 -24 -60 -36
-75 -164 -197 -109 -104 -277 -242 -318 -260 -22 -10 -32 -7 -78 22 -51 32
-68 47 -68 60 0 3 64 73 142 155 211 223 233 251 263 345 14 44 25 86 25 93 0
7 9 42 20 77 11 35 30 124 41 199 12 74 25 143 31 153 11 21 51 47 190 123
108 59 148 89 148 110 0 12 34 24 55 19 6 -1 9 -26 7 -59z m-2964 -514 c73
-20 90 -28 80 -38 -20 -19 -337 -193 -361 -199 -16 -4 -36 7 -72 39 l-50 44
20 22 c29 32 180 149 207 160 28 11 54 7 176 -28z"/>
<path d="M2295 6244 c-89 -36 -125 -56 -125 -69 0 -19 23 -35 50 -35 24 0 224
71 237 84 4 3 -2 15 -12 26 -24 27 -73 24 -150 -6z"/>
<path d="M1065 5722 c-77 -29 -106 -46 -157 -94 -53 -49 -63 -91 -30 -121 28
-26 44 -21 87 25 46 48 119 83 191 93 55 7 173 -15 211 -40 49 -33 97 -10 91
42 -3 24 -14 34 -82 67 -71 35 -89 39 -170 43 -71 3 -102 0 -141 -15z"/>
<path d="M2187 5495 c-65 -18 -79 -31 -75 -74 l3 -36 45 3 c25 1 90 4 145 5
95 2 104 0 165 -30 36 -18 91 -55 123 -83 65 -55 88 -61 111 -28 25 36 19 56
-34 106 -134 128 -322 181 -483 137z"/>
<path d="M767 4122 c-49 -54 6 -137 149 -224 l81 -49 6 -80 c14 -215 209 -406
519 -510 75 -25 115 -32 210 -36 266 -13 479 66 654 241 119 119 174 251 145
348 -17 55 -77 113 -134 129 -55 15 -163 6 -224 -20 -57 -24 -160 -52 -298
-82 -103 -22 -272 -30 -350 -16 -22 4 -67 12 -100 18 -186 32 -405 132 -546
250 -58 48 -89 57 -112 31z m1551 -472 c26 -12 42 -26 42 -37 0 -9 -33 -49
-72 -88 -137 -133 -327 -204 -518 -191 -92 6 -155 21 -166 37 -4 6 23 39 58
73 160 153 522 267 656 206z"/>
<path d="M1224 4943 c-79 -74 -108 -196 -66 -279 69 -134 231 -44 232 129 0
139 -90 220 -166 150z"/>
<path d="M2073 4756 c-16 -13 -39 -45 -52 -71 -20 -39 -23 -58 -19 -125 3 -74
5 -81 38 -114 26 -28 42 -36 69 -36 77 0 129 65 138 170 6 76 -6 126 -44 170
-32 39 -88 41 -130 6z"/>
</g>
</svg>
