<?xml version="1.0" standalone="no"?>
<!DOCTYPE svg PUBLIC "-//W3C//DTD SVG 20010904//EN"
 "http://www.w3.org/TR/2001/REC-SVG-20010904/DTD/svg10.dtd">
<svg version="1.0" xmlns="http://www.w3.org/2000/svg"
 width="1024.000000pt" height="1024.000000pt" viewBox="0 0 1024.000000 1024.000000"
 preserveAspectRatio="xMidYMid meet">
<metadata>
Created by potrace 1.16, written by Peter Selinger 2001-2019
</metadata>
<g transform="translate(0.000000,1024.000000) scale(0.100000,-0.100000)"
fill="#000000" stroke="none">
<path d="M7026 9150 c-34 -31 -66 -85 -66 -114 0 -29 35 -17 77 27 47 49 67
83 59 103 -8 22 -32 17 -70 -16z"/>
<path d="M5890 9109 c-36 -4 -101 -10 -145 -13 -44 -4 -96 -9 -115 -11 -19 -2
-69 -7 -110 -10 -41 -3 -136 -12 -210 -20 -74 -8 -162 -17 -195 -20 -96 -9
-588 -65 -615 -70 -26 -4 -72 -10 -170 -19 -46 -5 -279 -32 -445 -52 -95 -11
-564 -75 -655 -89 -14 -2 -61 -9 -105 -15 -86 -12 -94 -13 -200 -30 -38 -6
-88 -13 -110 -16 -110 -14 -463 -79 -515 -96 -49 -15 -76 -43 -89 -91 -12 -46
-47 -253 -56 -332 -3 -27 -10 -88 -15 -135 -15 -124 -38 -346 -60 -580 -11
-113 -22 -227 -25 -255 -8 -78 -54 -553 -60 -620 -3 -33 -7 -85 -10 -115 -17
-202 -31 -361 -40 -485 -3 -44 -8 -98 -10 -120 -2 -22 -7 -78 -10 -125 -3 -47
-10 -125 -15 -175 -5 -49 -11 -121 -14 -160 -10 -136 -28 -381 -35 -468 -7
-94 2 -141 36 -179 10 -11 66 -44 125 -74 95 -48 625 -294 633 -294 2 0 47
-21 101 -46 220 -102 838 -371 919 -399 53 -18 169 -17 395 5 52 5 133 11 180
15 47 3 103 7 125 10 22 2 69 7 105 10 36 3 103 10 150 15 47 5 119 12 160 15
41 4 86 8 100 10 14 2 95 11 180 19 85 9 261 27 390 41 129 14 267 27 305 30
39 3 131 12 205 20 74 7 167 16 205 20 68 6 123 12 195 20 19 2 60 7 90 10 70
6 253 25 305 30 22 2 67 7 100 10 146 15 449 56 547 74 190 35 199 47 222 256
28 265 35 329 40 390 3 33 12 123 21 200 15 147 21 217 30 325 2 36 11 153 20
260 19 251 23 311 30 450 3 63 8 135 10 160 2 25 7 155 10 290 3 135 8 281 10
325 9 183 14 717 6 800 -12 143 -9 140 -300 358 -141 106 -366 272 -500 367
-278 200 -350 252 -560 405 -83 61 -179 127 -213 148 l-63 38 -110 -3 c-60 -1
-139 -5 -175 -9z m236 -566 c-4 -263 -9 -541 -11 -618 -3 -77 -7 -230 -10
-340 -3 -110 -7 -245 -10 -300 -3 -55 -7 -167 -10 -250 -9 -238 -28 -564 -50
-870 -2 -33 -7 -100 -10 -150 -7 -98 -33 -440 -41 -520 -2 -27 -6 -72 -9 -100
-2 -27 -7 -81 -11 -120 -3 -38 -7 -71 -8 -71 0 -1 -48 -4 -105 -8 -57 -4 -248
-18 -425 -31 -177 -14 -350 -27 -386 -29 -36 -3 -99 -8 -140 -11 -155 -10
-327 -23 -410 -30 -30 -3 -89 -7 -130 -10 -41 -3 -95 -8 -120 -10 -25 -3 -83
-7 -130 -10 -47 -3 -101 -7 -120 -10 -19 -2 -82 -7 -140 -10 -58 -4 -116 -8
-130 -10 -14 -2 -77 -7 -140 -10 -63 -4 -117 -8 -120 -10 -3 -2 -59 -6 -124
-10 -66 -4 -127 -8 -135 -10 -9 -1 -68 -6 -131 -10 -63 -4 -117 -8 -120 -10
-3 -2 -43 -6 -90 -9 -122 -10 -308 -26 -355 -31 -22 -2 -74 -7 -115 -10 -41
-3 -122 -10 -180 -15 -58 -6 -134 -13 -170 -16 -36 -4 -68 -8 -73 -11 -4 -2
-10 3 -13 12 -5 13 17 383 31 520 3 22 7 69 10 105 3 36 14 171 25 300 11 129
23 264 26 300 3 36 7 81 9 100 2 19 9 94 15 165 11 133 37 414 65 700 8 88 17
187 20 220 3 33 7 76 10 95 2 19 7 71 10 115 3 44 7 96 10 115 2 19 7 62 10
95 11 115 76 661 88 739 14 94 -10 81 237 126 91 17 176 32 190 35 14 3 52 9
85 14 33 5 121 19 195 30 132 20 531 75 760 106 96 12 320 39 510 61 25 2 61
7 80 9 19 3 62 8 95 11 33 3 67 8 75 9 8 2 51 6 95 11 44 4 82 8 85 9 3 1 43
5 90 10 47 5 87 9 90 10 3 1 43 5 90 9 47 5 92 10 100 11 8 1 49 6 90 10 41 3
86 8 100 10 14 2 54 6 90 10 36 3 83 8 105 10 22 2 76 7 120 10 44 4 87 8 95
10 8 2 60 7 115 11 55 3 129 9 165 13 36 3 94 8 129 9 l64 3 -7 -478z m299
287 c72 -53 252 -181 400 -285 266 -185 851 -621 877 -652 29 -36 6 -1218 -38
-1883 -8 -126 -27 -360 -49 -605 -2 -27 -9 -104 -15 -170 -6 -66 -12 -133 -15
-150 -2 -16 -7 -68 -10 -115 -4 -47 -8 -96 -11 -109 -2 -14 -6 -74 -10 -135
-4 -61 -8 -118 -10 -126 -1 -8 -3 -32 -3 -53 -1 -35 -3 -38 -22 -32 -12 4
-142 62 -288 130 -146 67 -291 134 -321 148 -113 51 -318 146 -395 182 -165
77 -461 212 -478 218 -12 4 -17 13 -13 24 2 10 7 52 11 93 3 41 12 147 20 235
7 88 16 198 20 245 3 47 8 112 10 145 3 33 9 134 15 225 6 91 12 197 15 235 4
64 16 268 31 530 3 55 7 129 9 165 2 36 7 164 10 285 4 121 8 231 10 244 3 13
7 245 10 515 6 440 11 749 14 829 l1 28 48 -33 c26 -18 106 -75 177 -128z
m-218 -3799 c120 -54 261 -119 313 -144 195 -92 312 -147 316 -147 2 0 140
-63 308 -140 168 -77 310 -140 315 -140 6 0 11 -4 11 -9 0 -4 -19 -11 -42 -14
-159 -21 -533 -67 -578 -72 -30 -3 -190 -19 -355 -35 -165 -16 -320 -32 -345
-35 -25 -2 -124 -11 -220 -20 -150 -14 -273 -26 -515 -51 -27 -2 -61 -7 -75
-9 -14 -2 -61 -7 -105 -10 -44 -3 -91 -8 -105 -10 -14 -3 -117 -14 -230 -25
-258 -25 -307 -30 -350 -35 -96 -11 -320 -30 -465 -40 -44 -3 -98 -8 -120 -10
-22 -3 -81 -7 -132 -10 -94 -5 -115 -1 -228 50 -59 27 -122 54 -265 115 -79
34 -194 84 -255 112 -60 27 -123 55 -140 63 -353 157 -644 287 -843 377 -24
11 -42 22 -40 24 4 3 417 43 613 59 39 3 120 10 180 15 61 5 148 12 195 15 47
3 105 8 130 10 53 5 156 13 260 20 164 11 237 16 270 20 19 2 78 7 130 10 84
5 216 15 390 30 57 5 162 13 265 20 33 2 92 6 130 9 39 3 111 8 160 11 50 3
106 8 125 10 19 2 76 7 125 10 50 3 108 8 130 10 22 3 76 7 120 10 88 6 183
14 260 20 28 2 91 7 140 11 50 3 119 9 155 13 146 15 133 18 367 -88z"/>
<path d="M5120 8488 c-268 -19 -525 -228 -621 -504 -97 -281 -48 -544 136
-730 80 -80 145 -121 260 -160 70 -24 96 -27 210 -28 107 -1 144 3 209 22 216
62 387 200 479 387 104 210 104 440 0 655 -49 101 -186 240 -288 292 -124 64
-212 79 -385 66z m275 -102 c95 -36 153 -76 224 -151 196 -210 230 -517 84
-764 -45 -75 -177 -204 -251 -244 -151 -82 -337 -108 -490 -68 -113 29 -189
69 -264 140 -117 110 -168 229 -170 401 -4 280 160 545 408 662 111 52 142 58
274 54 95 -3 127 -8 185 -30z"/>
<path d="M4830 7911 c-48 -32 -95 -96 -110 -150 -25 -92 -5 -210 46 -267 46
-52 152 -71 213 -39 103 53 158 223 115 352 -41 123 -164 171 -264 104z"/>
<path d="M3165 8233 c-62 -9 -162 -44 -228 -81 -140 -78 -246 -192 -322 -345
-55 -112 -77 -208 -76 -342 1 -170 38 -263 152 -378 62 -62 94 -85 161 -117
97 -45 147 -58 261 -66 103 -7 246 20 341 65 140 67 268 197 342 346 56 115
77 197 77 310 0 388 -319 661 -708 608z m255 -103 c73 -21 168 -75 218 -123
54 -52 111 -147 137 -230 57 -178 14 -370 -119 -542 -126 -161 -281 -245 -466
-251 -125 -3 -200 10 -285 51 -181 88 -272 220 -282 411 -7 115 14 218 68 329
140 293 441 439 729 355z"/>
<path d="M3335 7763 c-92 -48 -141 -150 -133 -276 7 -110 67 -176 166 -182
123 -8 218 88 230 232 8 101 -41 198 -115 229 -43 18 -111 17 -148 -3z"/>
<path d="M5044 6929 c-28 -5 -158 -44 -290 -88 -268 -89 -390 -123 -509 -141
-44 -7 -89 -14 -100 -17 -11 -2 -90 -6 -175 -8 -180 -4 -277 10 -490 70 -184
52 -259 53 -353 7 -85 -42 -138 -105 -167 -199 -34 -110 -21 -244 39 -400 100
-257 363 -463 716 -558 434 -117 901 -60 1236 150 214 135 407 373 469 578 42
141 54 306 30 398 -48 177 -182 246 -406 208z m-93 -158 c-28 -55 -132 -164
-206 -216 -203 -143 -411 -202 -705 -199 -236 2 -366 68 -458 229 -31 55 -31
57 -10 51 174 -50 418 -58 663 -21 193 29 286 52 530 133 110 37 201 66 203
65 2 0 -6 -19 -17 -42z m274 -416 c60 -12 95 -27 95 -41 0 -52 -130 -241 -237
-345 -138 -134 -250 -202 -436 -264 -140 -46 -253 -64 -451 -72 l-169 -6 7 39
c32 173 180 372 368 497 72 48 116 71 243 128 38 16 180 52 260 64 77 13 259
12 320 0z"/>
<path d="M7397 7294 c-24 -24 17 -149 48 -149 17 0 20 6 18 39 -4 63 -45 131
-66 110z"/>
<path d="M6434 6825 c-13 -32 66 -215 93 -215 7 0 13 6 13 13 0 27 -42 173
-56 195 -16 25 -42 29 -50 7z"/>
<path d="M7254 5607 c-5 -15 19 -120 38 -162 11 -25 34 -39 49 -29 19 11 8 75
-24 135 -35 65 -53 81 -63 56z"/>
<path d="M6292 4578 c6 -44 171 -109 200 -80 25 25 -109 102 -178 102 -21 0
-25 -4 -22 -22z"/>
<path d="M3372 4524 c4 -24 123 -85 169 -87 25 -2 35 3 37 16 3 13 -13 25 -62
48 -36 17 -84 33 -107 36 -36 5 -41 4 -37 -13z"/>
<path d="M7370 8947 c-89 -51 -162 -103 -173 -123 -10 -17 8 -44 30 -44 45 0
278 155 278 185 0 37 -52 30 -135 -18z"/>
<path d="M8081 8286 c-15 -17 -9 -44 11 -50 7 -2 45 -9 83 -16 90 -17 159 -40
248 -86 252 -128 441 -332 492 -533 8 -34 17 -47 32 -49 40 -6 41 69 2 174
-62 166 -266 367 -484 477 -152 77 -353 121 -384 83z"/>
<path d="M1383 8155 c-14 -11 -16 -18 -7 -32 12 -20 319 -181 347 -182 10 -1
21 7 24 16 8 21 -34 57 -137 117 -133 77 -200 101 -227 81z"/>
<path d="M8182 7712 c-8 -5 -12 -20 -10 -32 2 -18 21 -31 90 -60 234 -102 448
-302 448 -421 0 -68 -28 -100 -150 -174 -117 -71 -164 -161 -130 -250 19 -49
115 -137 240 -220 230 -153 309 -220 382 -327 133 -197 112 -358 -68 -499 -99
-78 -83 -122 25 -68 165 82 251 301 185 467 -76 189 -182 302 -453 482 -128
85 -223 169 -233 206 -11 43 18 81 109 142 139 94 173 142 173 245 0 149 -200
361 -447 473 -80 37 -140 50 -161 36z"/>
<path d="M1218 7700 c-23 -14 -23 -46 -1 -54 9 -4 89 -13 177 -21 89 -9 170
-17 182 -20 28 -6 57 17 53 40 -7 33 -105 56 -259 61 -88 3 -141 1 -152 -6z"/>
<path d="M1555 7081 c-168 -60 -380 -218 -492 -366 -74 -98 -105 -175 -111
-277 -4 -80 -2 -93 22 -142 32 -65 69 -95 201 -162 148 -76 144 -95 -44 -251
-212 -174 -305 -279 -374 -418 -44 -87 -60 -159 -60 -255 1 -203 149 -354 408
-417 110 -26 138 -27 160 -3 20 22 20 22 -2 40 -12 10 -43 21 -68 24 -174 27
-322 116 -383 231 -23 44 -27 61 -26 140 0 69 5 103 22 147 56 140 191 299
396 463 124 101 159 147 160 214 1 65 -25 92 -153 160 -55 28 -113 65 -130 83
-65 67 -65 153 0 286 32 66 59 102 127 171 101 101 175 155 330 241 61 33 114
66 118 71 8 14 -15 39 -35 38 -9 0 -39 -8 -66 -18z"/>
<path d="M8282 6133 c-27 -40 -82 -177 -82 -206 0 -33 21 -49 118 -93 105 -47
125 -43 164 36 40 82 61 148 54 174 -4 18 -30 36 -96 70 -105 54 -131 57 -158
19z m116 -92 c28 -14 52 -29 52 -33 0 -14 -49 -118 -55 -118 -5 0 -106 49
-112 55 -5 4 51 125 56 123 4 -2 30 -14 59 -27z"/>
<path d="M8523 5270 c-50 -30 -48 -80 3 -126 66 -60 120 -44 144 41 15 52 6
69 -47 92 -44 18 -62 16 -100 -7z m78 -60 c5 0 9 -7 9 -15 0 -18 -14 -19 -41
-4 -22 11 -15 34 8 25 8 -3 19 -6 24 -6z"/>
<path d="M8160 4884 c0 -30 21 -54 114 -123 269 -203 481 -447 662 -763 39
-69 56 -81 72 -52 21 38 -23 150 -118 293 -150 228 -315 400 -535 557 -134 96
-195 124 -195 88z"/>
<path d="M1419 4446 c-72 -26 -147 -69 -157 -91 -14 -30 -4 -63 44 -155 54
-101 63 -103 171 -45 107 57 113 62 113 87 0 24 -99 192 -121 206 -10 7 -26 6
-50 -2z m45 -130 c14 -25 26 -49 26 -54 0 -11 -98 -57 -106 -49 -3 3 -17 29
-30 56 l-23 51 37 20 c54 28 67 25 96 -24z"/>
<path d="M7974 4299 c-11 -18 15 -52 79 -102 317 -245 549 -551 717 -944 23
-55 54 -71 67 -36 27 70 -120 378 -286 600 -126 168 -340 373 -478 456 -63 38
-87 45 -99 26z"/>
<path d="M7125 3976 c-25 -18 -12 -35 63 -77 193 -109 446 -300 616 -467 124
-122 298 -332 404 -489 49 -72 58 -79 78 -62 34 28 -9 116 -150 304 -174 231
-419 461 -666 627 -110 73 -299 178 -321 178 -3 0 -14 -6 -24 -14z"/>
<path d="M2219 3951 c-131 -84 -328 -298 -360 -391 -10 -26 -9 -35 4 -47 23
-24 41 -11 90 64 65 100 182 226 293 314 45 36 58 55 50 75 -8 21 -27 17 -77
-15z"/>
<path d="M2913 3762 c-139 -90 -345 -303 -459 -475 -123 -185 -224 -401 -209
-448 4 -10 14 -19 24 -19 13 0 31 29 67 107 133 291 313 530 557 740 61 53 97
91 97 104 0 26 -26 23 -77 -9z"/>
<path d="M6539 3778 c-3 -30 5 -56 32 -111 76 -149 145 -327 210 -537 47 -152
58 -169 93 -134 20 20 15 69 -24 203 -50 176 -173 458 -239 549 -30 41 -70 57
-72 30z"/>
<path d="M5877 3758 c-7 -22 15 -69 86 -187 151 -252 270 -523 356 -817 32
-108 71 -127 71 -34 0 175 -176 622 -353 897 -81 126 -145 182 -160 141z"/>
<path d="M4277 3683 c-22 -21 -2 -47 76 -97 158 -102 335 -253 522 -446 163
-167 270 -304 418 -533 70 -107 96 -133 111 -108 11 17 -41 149 -92 233 -178
295 -500 632 -802 840 -145 101 -212 133 -233 111z"/>
<path d="M5260 3665 c-18 -22 -6 -42 98 -161 177 -204 290 -372 425 -632 58
-113 83 -152 96 -150 81 15 -100 395 -322 676 -105 134 -251 282 -277 282 -4
0 -13 -7 -20 -15z"/>
<path d="M3005 3264 c-32 -35 -34 -95 -4 -123 52 -48 112 -21 124 56 6 37 3
46 -19 68 -33 33 -70 32 -101 -1z m56 -61 c1 -5 -5 -9 -14 -11 -12 -3 -15 1
-11 13 6 15 18 14 25 -2z"/>
<path d="M7466 3119 c-63 -42 -148 -153 -203 -267 -55 -112 -65 -175 -35 -212
18 -23 22 -23 60 -12 98 30 292 195 356 304 35 59 43 125 22 166 -21 41 -44
52 -104 52 -38 0 -59 -7 -96 -31z m133 -48 c38 -25 -38 -156 -141 -243 -82
-68 -158 -119 -158 -105 0 28 32 112 67 179 44 83 89 133 147 159 46 21 64 23
85 10z"/>
<path d="M4413 2759 c-48 -24 -83 -72 -83 -116 0 -110 217 -216 470 -230 131
-7 180 8 180 55 0 57 -108 172 -223 236 -135 76 -261 96 -344 55z m257 -101
c69 -34 209 -139 217 -164 8 -25 -242 15 -347 55 -71 27 -130 75 -130 106 0
36 26 46 110 42 62 -3 89 -10 150 -39z"/>
<path d="M8508 2455 c-76 -57 -82 -115 -19 -168 55 -46 142 -54 187 -16 69 57
45 167 -46 203 -57 23 -71 20 -122 -19z m102 -67 c43 -30 47 -45 17 -59 -28
-13 -62 -7 -91 14 -19 14 -19 16 -3 41 21 32 34 32 77 4z"/>
<path d="M3398 2431 c-111 -44 -153 -107 -146 -218 4 -62 7 -68 45 -103 65
-61 174 -85 267 -59 56 15 152 113 162 163 10 56 -10 108 -57 151 -82 74 -187
100 -271 66z m140 -76 c75 -39 112 -79 112 -121 0 -30 -46 -84 -87 -100 -62
-26 -161 -8 -210 38 -46 44 -24 136 44 183 47 31 81 32 141 0z"/>
<path d="M7538 2424 c-164 -29 -387 -125 -561 -241 -101 -67 -269 -197 -343
-265 l-41 -38 -6 58 c-17 162 -114 282 -265 329 -50 15 -186 20 -243 8 -111
-22 -236 -88 -321 -170 -52 -51 -138 -173 -138 -197 0 -7 -4 -20 -10 -28 -8
-12 -11 -12 -27 2 -68 62 -220 92 -277 55 -37 -25 -66 -75 -66 -116 l0 -34
-32 27 c-164 133 -390 242 -570 276 -78 14 -227 18 -281 8 -128 -26 -197 -100
-197 -210 0 -68 39 -137 114 -204 l54 -49 -151 0 c-175 0 -272 -18 -354 -65
-91 -52 -110 -130 -48 -199 61 -67 184 -110 450 -156 252 -43 648 -62 673 -32
22 27 -5 35 -143 46 -77 7 -151 14 -165 16 -14 2 -56 7 -95 10 -174 15 -399
57 -534 100 -93 30 -152 73 -144 106 7 24 77 61 153 80 77 19 349 16 472 -5
135 -22 174 -21 181 4 6 22 -21 42 -173 130 -81 47 -173 128 -196 172 -37 71
-5 138 78 163 208 61 607 -72 860 -287 66 -56 103 -63 119 -21 9 25 8 40 -7
104 -5 21 0 31 23 49 50 39 138 15 256 -71 37 -27 61 -39 67 -33 5 5 14 34 20
63 32 170 211 335 408 376 155 33 279 1 362 -93 46 -52 67 -109 81 -217 17
-141 19 -142 127 -47 360 316 724 508 976 514 75 2 128 -16 140 -47 12 -32 6
-90 -13 -121 -32 -53 -144 -153 -286 -254 -196 -141 -227 -173 -183 -189 17
-6 51 2 133 31 258 93 462 143 620 153 117 7 163 -8 176 -58 6 -24 2 -35 -29
-69 -62 -69 -172 -136 -307 -188 -52 -20 -71 -33 -73 -48 -5 -30 28 -36 111
-18 132 29 521 36 672 12 120 -19 213 -39 260 -57 128 -48 106 -90 -78 -143
-78 -23 -353 -66 -517 -81 -147 -14 -226 -27 -242 -42 -22 -20 -16 -29 25 -41
17 -6 58 -18 89 -27 31 -10 65 -26 74 -36 16 -18 15 -20 -27 -38 -89 -39 -268
-64 -574 -80 -159 -9 -1158 -7 -1225 2 -19 3 -86 8 -149 12 -106 7 -113 7
-110 -10 3 -13 34 -28 116 -56 117 -39 173 -70 173 -95 0 -33 -152 -74 -330
-89 -41 -3 -93 -9 -115 -12 -90 -12 -875 -10 -1060 2 -104 8 -230 16 -280 20
-49 3 -106 8 -125 10 -19 2 -57 7 -85 10 -71 8 -145 26 -145 35 0 5 25 21 55
35 48 24 53 30 44 46 -9 17 -23 19 -162 20 -84 0 -172 2 -197 4 -25 2 -101 6
-170 9 -469 22 -738 57 -872 115 -85 36 -99 73 -46 123 44 41 73 54 180 83
102 27 132 46 108 69 -12 11 -73 15 -267 20 -340 9 -491 33 -510 82 -10 26 46
72 121 98 69 25 184 48 296 61 30 3 71 8 90 10 69 9 137 14 302 25 91 5 174
13 182 16 26 10 19 43 -10 50 -50 13 -454 -9 -582 -31 -15 -2 -56 -9 -92 -14
-182 -29 -307 -78 -365 -143 -33 -35 -36 -45 -32 -77 8 -49 61 -94 135 -114
70 -20 202 -33 360 -36 l82 -1 -41 -37 c-68 -61 -84 -114 -54 -173 65 -126
472 -193 1218 -202 153 -1 185 -6 157 -23 -16 -10 -12 -51 8 -67 39 -34 157
-55 422 -73 47 -3 108 -8 135 -10 257 -21 1087 -28 1288 -12 326 27 454 87
433 202 l-7 36 103 -6 c130 -7 842 -8 951 -1 45 3 127 8 182 11 380 21 597 96
582 200 -2 16 -7 37 -11 46 -6 14 8 18 106 29 328 35 561 106 608 183 95 155
-186 258 -693 253 l-177 -1 27 20 c100 72 144 134 145 201 1 52 -21 88 -73
119 -30 18 -51 20 -169 19 -118 -1 -150 -5 -255 -33 -144 -38 -174 -47 -200
-56 -13 -4 -9 2 10 16 62 46 203 196 225 238 29 58 26 151 -8 198 -47 66 -150
91 -284 67z"/>
</g>
</svg>
