<?xml version="1.0" standalone="no"?>
<!DOCTYPE svg PUBLIC "-//W3C//DTD SVG 20010904//EN"
 "http://www.w3.org/TR/2001/REC-SVG-20010904/DTD/svg10.dtd">
<svg version="1.0" xmlns="http://www.w3.org/2000/svg"
 width="1024.000000pt" height="1024.000000pt" viewBox="0 0 1024.000000 1024.000000"
 preserveAspectRatio="xMidYMid meet">
<metadata>
Created by potrace 1.16, written by Peter Selinger 2001-2019
</metadata>
<g transform="translate(0.000000,1024.000000) scale(0.100000,-0.100000)"
fill="#000000" stroke="none">
<path d="M1265 9930 c-147 -24 -303 -92 -387 -169 -31 -29 -60 -60 -63 -70 -3
-11 -41 -42 -83 -69 -105 -68 -175 -145 -218 -236 -46 -100 -64 -175 -64 -266
0 -88 12 -138 47 -193 21 -33 25 -53 28 -135 3 -110 18 -164 68 -255 44 -79
156 -186 235 -226 110 -55 186 -73 302 -70 91 3 113 0 165 -20 82 -33 279 -41
375 -17 180 46 311 161 365 320 15 44 30 67 62 93 90 74 158 216 173 358 16
156 -25 296 -115 394 -37 39 -57 72 -67 108 -76 260 -345 446 -663 457 -60 3
-132 1 -160 -4z m320 -140 c212 -67 355 -199 396 -365 9 -39 25 -64 71 -112
87 -92 103 -134 103 -268 0 -165 -40 -261 -145 -350 -36 -31 -51 -52 -64 -95
-25 -77 -57 -129 -109 -178 -128 -117 -326 -156 -489 -96 -62 23 -90 27 -188
29 -63 0 -140 7 -170 14 -135 32 -273 150 -326 279 -22 55 -28 87 -32 177 -2
68 -9 116 -17 125 -38 45 -49 86 -48 170 2 185 98 347 251 424 33 16 62 41 81
69 44 64 96 106 180 144 116 53 169 63 311 59 93 -3 143 -9 195 -26z"/>
<path d="M1458 9609 c-25 -14 -22 -41 5 -67 26 -25 47 -28 65 -10 19 19 14 45
-14 67 -30 24 -32 24 -56 10z"/>
<path d="M842 8878 c-17 -17 -15 -46 9 -98 38 -85 103 -132 137 -98 19 19 14
35 -23 77 -19 21 -44 59 -55 85 -21 47 -44 58 -68 34z"/>
<path d="M4299 9522 c-24 -22 -32 -37 -31 -61 1 -42 19 -62 112 -119 94 -58
290 -190 308 -207 16 -15 -17 -21 -168 -30 -110 -7 -900 -81 -1008 -94 -77
-10 -107 -26 -123 -70 -21 -53 -61 -427 -119 -1108 -4 -56 -11 -107 -14 -112
-4 -6 -21 -5 -46 4 -22 8 -96 26 -164 40 -180 37 -246 22 -296 -67 -35 -61
-34 -138 2 -199 45 -76 282 -287 438 -390 l23 -15 -12 -175 c-7 -96 -15 -205
-17 -244 -2 -38 -9 -106 -14 -150 -6 -44 -17 -177 -25 -295 -9 -118 -20 -273
-25 -345 -23 -314 -23 -357 -1 -392 13 -21 94 -81 233 -173 117 -78 214 -145
216 -149 2 -5 -16 -7 -40 -5 -141 11 -366 11 -394 -1 -52 -22 -70 -55 -78
-142 -10 -121 -23 -220 -30 -231 -3 -5 -52 -12 -108 -16 -141 -9 -372 -25
-435 -30 -36 -3 -53 -1 -53 7 0 6 -49 162 -110 347 -60 184 -112 349 -115 365
-6 27 -2 33 42 59 233 143 392 250 402 272 6 14 11 37 11 53 0 46 -129 424
-153 448 -12 12 -69 47 -127 77 -121 63 -98 29 -216 321 -137 338 -144 351
-175 374 -22 17 -73 31 -182 51 -84 16 -217 43 -297 61 -80 17 -174 33 -210
36 l-65 5 -450 -227 c-278 -140 -460 -238 -477 -256 -35 -37 -36 -70 -4 -204
36 -155 161 -572 288 -965 55 -169 117 -331 137 -354 19 -23 102 -61 228 -106
l91 -32 62 -182 c34 -99 90 -255 124 -346 35 -91 87 -230 116 -310 88 -240
179 -472 203 -519 12 -25 35 -54 50 -65 44 -32 66 -31 1105 63 106 9 195 14
197 11 3 -5 -28 -306 -54 -515 -6 -44 -22 -191 -36 -327 -29 -270 -28 -280 26
-320 30 -23 159 -47 252 -48 44 0 67 -4 67 -12 0 -8 -77 -10 -307 -5 -170 4
-343 4 -386 1 -86 -8 -133 -30 -154 -74 -10 -23 -33 -163 -77 -475 -9 -60 -25
-200 -36 -310 -11 -110 -27 -261 -35 -335 -8 -74 -24 -223 -35 -330 -11 -107
-30 -269 -40 -360 -25 -204 -25 -223 -2 -243 22 -20 65 -22 80 -4 9 10 30 167
48 362 3 33 9 85 14 115 5 30 19 143 30 250 11 107 31 292 44 410 13 118 27
249 31 290 10 114 25 217 80 546 7 41 25 44 184 34 215 -15 632 -49 721 -60
78 -9 344 -32 535 -45 44 -3 132 -10 195 -15 63 -5 149 -12 190 -15 104 -7
325 -24 385 -29 56 -5 50 -5 565 -46 206 -16 413 -34 460 -40 47 -5 165 -15
264 -22 126 -8 180 -16 183 -25 3 -7 -9 -113 -26 -235 -17 -123 -38 -277 -46
-343 -8 -66 -22 -163 -30 -215 -8 -52 -26 -187 -40 -300 -14 -113 -29 -236
-35 -275 -34 -264 -43 -384 -31 -399 16 -19 45 -21 59 -4 5 7 19 90 30 183 11
94 34 278 51 410 17 132 51 411 76 620 73 608 65 560 95 558 110 -10 514 -69
635 -93 83 -16 160 -30 172 -30 34 0 35 -14 8 -72 -38 -82 -34 -111 39 -253
68 -133 118 -207 254 -373 89 -109 106 -122 207 -153 35 -11 66 -23 69 -27 2
-4 -2 -43 -9 -87 -8 -44 -28 -189 -45 -322 -33 -260 -32 -277 14 -289 29 -7
63 9 70 33 3 10 21 149 41 308 32 256 41 326 44 331 1 1 49 -11 109 -27 191
-52 599 -149 625 -149 69 0 117 45 239 220 119 173 259 410 335 566 73 151 86
208 59 278 l-17 45 139 278 c142 283 246 507 257 554 4 17 -10 85 -40 195 -26
93 -53 193 -61 222 -10 36 -29 68 -56 98 -86 94 -629 428 -1228 756 -80 43
-150 85 -157 91 -8 9 -8 30 -2 77 6 36 16 124 23 195 18 171 22 166 -152 225
-73 25 -132 48 -132 52 0 5 55 8 123 8 204 0 250 26 261 146 4 38 16 143 26
234 33 273 68 590 75 670 3 41 15 158 25 260 10 102 26 259 35 350 9 91 18
179 20 195 7 45 70 698 95 980 6 66 22 239 36 384 14 145 23 275 19 288 -3 14
-29 50 -57 80 -74 77 -609 514 -923 753 -82 62 -168 128 -191 147 -52 42 -99
60 -149 57 -69 -3 -546 -34 -620 -39 -38 -3 -113 -7 -165 -10 -52 -3 -216 -15
-365 -25 -148 -11 -304 -22 -345 -25 -268 -18 -507 -36 -517 -40 -7 -2 -59 34
-115 81 -120 100 -294 217 -414 280 -104 54 -148 58 -195 16z m2741 -401 c0
-51 -56 -884 -75 -1111 -10 -119 -14 -179 -20 -265 -3 -49 -12 -175 -20 -280
-29 -388 -35 -472 -41 -545 -3 -41 -21 -259 -39 -485 -32 -370 -45 -521 -61
-655 -23 -209 -44 -396 -44 -402 0 -4 -21 -5 -47 -2 -27 2 -190 11 -363 19
-404 19 -506 24 -610 30 -47 3 -191 10 -320 15 -129 6 -341 17 -470 25 -253
16 -704 41 -890 50 -252 12 -813 45 -816 49 -2 2 32 474 56 771 5 61 18 232
30 380 12 149 25 274 29 278 4 4 44 -16 87 -46 502 -343 928 -517 1265 -517
90 0 119 4 192 29 209 70 344 245 363 472 l7 79 39 -36 c170 -153 417 -216
648 -165 189 43 339 140 478 311 182 224 226 584 106 856 -86 195 -268 365
-457 427 -94 31 -293 30 -402 -2 -212 -62 -384 -191 -502 -377 -40 -64 -48
-73 -51 -53 -26 224 -131 455 -259 568 -61 55 -174 115 -256 137 -133 35 -356
5 -501 -68 -145 -73 -293 -223 -370 -376 -81 -160 -106 -275 -103 -464 2 -82
2 -148 1 -148 -1 0 -19 6 -40 14 -22 7 -69 19 -105 25 -36 7 -71 16 -78 20 -9
6 -9 34 -1 122 5 63 17 197 25 299 15 176 37 406 55 570 5 41 12 105 16 143 4
37 12 67 18 67 6 1 58 5 116 10 58 5 164 15 235 20 471 39 619 51 765 65 232
21 223 21 273 -24 54 -49 78 -61 120 -61 46 0 87 40 87 86 0 31 2 33 43 38 23
3 80 7 127 10 47 3 209 15 360 26 151 10 311 22 355 25 44 3 172 12 285 20
113 8 313 22 445 31 132 9 242 18 244 20 2 2 19 4 38 4 30 0 33 -3 33 -29z
m302 -186 c409 -317 854 -678 886 -717 10 -13 10 -43 -3 -164 -8 -82 -17 -165
-20 -184 -3 -19 -14 -132 -25 -250 -11 -118 -22 -235 -25 -260 -6 -57 -53
-560 -66 -705 -5 -60 -20 -213 -34 -340 -13 -126 -27 -261 -30 -300 -3 -38
-12 -135 -20 -215 -8 -80 -18 -172 -21 -205 -3 -33 -14 -134 -25 -225 -10 -91
-26 -232 -35 -315 -9 -82 -19 -153 -22 -157 -4 -3 -34 5 -67 19 -33 14 -186
78 -340 143 -154 65 -368 155 -475 200 -107 45 -198 84 -202 88 -4 4 4 97 18
207 28 234 77 726 99 1000 4 39 13 138 21 220 17 182 41 458 49 580 3 50 12
169 20 265 8 96 16 213 20 260 3 47 12 173 20 280 8 107 21 296 30 420 8 124
17 250 20 280 2 30 7 95 11 143 3 48 10 87 15 85 5 -2 96 -70 201 -153z
m-2789 -370 c200 -42 374 -219 432 -440 51 -197 31 -432 -54 -618 l-30 -67
-63 0 c-157 0 -640 54 -808 91 -52 11 -138 29 -190 40 -52 11 -98 24 -102 27
-13 13 -28 112 -28 187 0 232 94 452 258 607 165 155 375 218 585 173z m1457
-261 c215 -50 372 -205 461 -454 20 -56 23 -85 23 -205 1 -152 -12 -211 -74
-335 -88 -176 -284 -337 -463 -380 -161 -40 -248 -37 -392 12 -205 71 -374
268 -421 490 -19 88 -14 252 11 343 52 194 204 377 395 475 122 63 322 87 460
54z m-2935 -669 c226 -43 545 -127 555 -146 34 -63 15 -208 -35 -267 -29 -34
-31 -54 -10 -72 23 -19 64 14 98 81 26 49 28 61 24 139 -2 47 -7 94 -12 104
-7 16 -5 18 16 14 13 -3 84 -18 158 -34 l134 -28 15 -35 c9 -22 16 -71 17
-124 3 -91 10 -112 37 -102 39 15 46 107 16 203 -5 18 -7 36 -4 39 3 3 49 -2
103 -12 54 -9 107 -18 118 -20 93 -15 92 -14 121 -78 22 -49 29 -81 32 -152 5
-103 15 -125 45 -98 29 27 21 166 -15 245 l-27 58 77 -6 c154 -13 152 -12 186
-80 71 -139 82 -276 35 -437 -21 -72 -21 -79 -6 -94 15 -16 18 -15 41 6 34 32
58 135 57 246 0 103 -18 179 -62 266 -16 34 -29 63 -26 65 2 2 49 5 104 6 120
2 150 -11 200 -85 60 -89 78 -150 77 -267 0 -84 -5 -116 -22 -162 -43 -109
-131 -196 -240 -240 -49 -19 -76 -22 -187 -22 -148 0 -211 12 -392 75 -234 82
-494 224 -848 464 -245 166 -318 220 -441 327 -85 73 -174 172 -174 193 0 3 7
17 16 30 21 32 51 32 219 0z m1964 -202 c1 -13 -31 -18 -42 -7 -3 4 1 21 10
38 l17 31 7 -25 c4 -14 7 -31 8 -37z m-3593 -358 c82 -19 185 -43 229 -54 44
-10 100 -22 123 -26 24 -4 40 -11 35 -15 -4 -5 -94 -54 -200 -109 l-192 -100
-72 25 c-39 14 -146 47 -237 75 -91 27 -172 54 -180 58 -12 7 20 27 124 79 76
39 153 77 169 86 17 9 35 16 41 16 5 0 77 -16 160 -35z m536 -260 c22 -55 64
-158 94 -230 51 -119 54 -130 38 -142 -37 -27 -411 -243 -421 -243 -6 0 -14
12 -18 27 -3 15 -27 79 -51 143 -25 63 -62 157 -82 208 -27 72 -33 97 -25 110
13 21 393 232 412 229 9 -1 31 -45 53 -102z m-885 -10 c125 -41 234 -79 242
-84 9 -6 -42 -38 -175 -107 -104 -55 -200 -103 -212 -108 -33 -12 -57 -4 -459
145 -35 13 -63 26 -63 29 0 11 393 199 417 199 12 1 124 -33 250 -74z m361
-202 c11 -32 45 -130 75 -218 100 -291 106 -303 149 -291 13 3 66 29 119 58
52 29 157 85 232 123 l136 70 103 -52 c160 -81 159 -65 11 -166 -253 -171
-378 -263 -381 -279 -4 -22 25 -48 46 -41 9 4 78 48 153 99 284 195 344 233
352 225 10 -10 77 -239 77 -265 0 -16 -28 -39 -107 -90 -157 -102 -312 -200
-448 -281 -66 -40 -214 -130 -330 -200 -115 -71 -224 -137 -242 -147 -17 -10
-34 -15 -37 -10 -3 4 -14 40 -24 78 -33 117 -69 237 -111 371 -198 636 -253
825 -244 833 4 4 100 56 213 115 113 59 209 111 215 116 17 16 22 10 43 -48z
m-853 -89 c83 -31 183 -70 223 -86 l72 -31 16 -56 c8 -31 22 -76 31 -101 8
-25 50 -164 93 -310 65 -224 199 -667 230 -762 5 -15 5 -30 0 -33 -14 -9 -420
136 -448 160 -32 28 -420 1259 -405 1287 2 4 12 3 21 -2 9 -5 85 -35 167 -66z
m2890 -1058 c188 -11 263 -15 485 -26 118 -6 289 -15 380 -20 91 -5 217 -12
280 -15 63 -3 147 -8 185 -10 39 -3 270 -14 515 -25 245 -12 504 -25 575 -30
72 -5 285 -16 475 -26 l345 -16 165 -70 c91 -39 228 -96 305 -128 387 -161
531 -222 537 -228 14 -14 -455 -2 -497 12 -22 8 -139 49 -260 91 -121 43 -242
81 -270 85 -27 5 -165 11 -305 15 -140 3 -289 8 -330 11 -41 2 -298 11 -570
19 -272 9 -614 20 -760 25 -146 5 -362 12 -480 15 -298 7 -410 14 -434 27 -70
35 -474 293 -470 300 3 5 8 6 12 4 4 -2 57 -7 117 -10z m-1274 -426 c67 -206
130 -383 139 -394 17 -17 24 -17 206 -2 322 27 444 31 444 15 0 -21 -20 -191
-25 -215 -5 -21 -12 -22 -177 -29 -95 -3 -181 -9 -191 -12 -14 -3 -17 -13 -15
-36 l3 -32 65 1 c36 0 121 4 189 9 119 8 123 7 118 -11 -3 -10 -11 -66 -18
-122 -7 -57 -17 -106 -23 -107 -6 -2 -103 -11 -216 -20 -205 -16 -247 -20
-500 -48 -74 -9 -161 -17 -193 -19 l-59 -3 -109 300 c-60 165 -151 412 -200
549 -50 136 -87 252 -82 256 24 25 508 309 514 302 4 -4 62 -176 130 -382z
m-674 -117 c28 -76 65 -176 83 -223 18 -47 38 -103 45 -125 7 -22 40 -110 73
-195 32 -85 81 -211 107 -280 l48 -125 -34 -26 c-19 -15 -72 -57 -118 -94 -46
-36 -87 -63 -91 -58 -12 12 -65 141 -122 293 -27 74 -70 189 -95 255 -24 66
-74 201 -109 300 -35 99 -69 191 -75 205 -19 43 -59 163 -59 177 0 11 6 10 32
-3 17 -9 56 -18 87 -21 48 -3 63 0 106 26 28 16 55 29 61 30 6 1 34 -61 61
-136z m2073 122 c113 -3 241 -8 285 -10 44 -3 152 -7 240 -10 88 -3 225 -7
305 -10 80 -3 213 -7 295 -10 331 -11 465 -16 570 -20 61 -2 205 -7 320 -10
116 -3 262 -8 325 -10 63 -2 223 -7 355 -10 313 -7 348 -11 340 -35 -8 -25
-12 -58 -35 -265 -69 -639 -142 -1278 -150 -1325 -5 -30 -17 -127 -26 -215
-33 -326 -74 -676 -80 -686 -6 -11 -85 -8 -339 11 -66 6 -158 12 -205 15 -197
12 -387 25 -420 30 -19 3 -107 9 -195 15 -88 6 -178 12 -200 15 -22 2 -83 7
-135 10 -52 3 -153 10 -225 15 -266 20 -543 40 -640 46 -55 3 -212 14 -350 25
-137 10 -351 26 -475 34 -124 9 -234 20 -246 24 -20 9 -20 11 -7 147 22 236
77 728 88 784 2 14 9 75 15 135 6 61 13 124 15 140 4 26 78 681 106 940 6 50
16 122 24 162 8 40 15 75 15 79 0 3 51 4 113 0 61 -3 204 -8 317 -11z m3240
-154 c63 -21 126 -43 140 -50 14 -6 97 -36 185 -66 88 -31 219 -78 290 -105
72 -27 175 -64 230 -83 94 -32 100 -36 103 -63 3 -32 -24 -253 -32 -261 -3 -3
-78 33 -168 80 -319 166 -364 187 -405 187 -21 0 -48 -6 -59 -14 -28 -20 -242
-453 -253 -511 -11 -60 11 -146 79 -310 5 -11 18 -47 30 -80 12 -33 31 -70 43
-83 12 -13 134 -93 272 -179 334 -208 325 -201 325 -216 0 -7 -9 -87 -20 -178
-11 -90 -22 -186 -25 -214 -5 -44 -11 -53 -46 -78 -43 -31 -137 -149 -256
-320 -41 -59 -81 -111 -87 -113 -7 -3 -104 18 -217 46 -112 28 -280 69 -374
91 -93 22 -171 41 -172 43 -2 2 3 45 11 97 8 52 17 112 20 134 3 22 10 76 15
120 6 44 23 181 37 305 13 124 27 243 29 265 3 22 25 225 50 450 25 226 47
421 50 435 2 14 7 54 10 90 3 36 10 101 15 145 5 44 16 152 25 240 19 189 25
235 34 235 4 0 58 -17 121 -39z m468 -537 c668 -352 945 -505 1307 -719 220
-130 458 -280 520 -328 22 -17 41 -32 43 -33 2 -1 -89 -185 -201 -410 -112
-225 -215 -435 -228 -466 -13 -32 -29 -58 -34 -58 -6 0 -31 21 -55 46 -68 69
-182 153 -236 173 -27 11 -110 29 -184 41 -74 12 -138 25 -142 29 -4 4 35 94
87 201 52 107 109 230 126 273 38 93 37 95 -74 153 -40 21 -100 55 -135 76
-34 21 -65 38 -67 38 -3 0 -45 24 -93 54 -48 29 -152 91 -232 136 -80 46 -194
113 -255 150 -60 37 -188 113 -282 169 -99 58 -173 108 -173 116 0 8 32 84 71
167 39 84 80 174 91 201 11 26 25 47 30 47 5 0 57 -25 116 -56z m-4393 -376
c-16 -115 -8 -104 -78 -112 -34 -3 -213 -20 -397 -36 -184 -17 -371 -35 -415
-40 -44 -5 -123 -12 -175 -15 -110 -8 -111 -16 17 93 47 39 84 63 105 66 35 5
203 21 383 37 61 5 142 12 180 15 71 7 336 30 368 33 15 1 16 -5 12 -41z
m4438 -301 c177 -107 439 -260 582 -342 143 -81 270 -153 282 -161 l22 -14
-51 -90 c-36 -65 -55 -90 -65 -86 -34 13 -692 424 -878 548 l-140 93 -28 80
c-15 44 -32 91 -36 105 -5 14 -12 33 -16 43 -4 9 -4 17 0 17 3 0 151 -87 328
-193z m1917 -694 l38 -136 -46 -101 c-60 -130 -275 -562 -304 -612 l-22 -38
-74 80 c-64 70 -72 83 -68 109 3 17 80 179 172 360 202 402 256 503 262 486 2
-7 21 -73 42 -148z m-1448 44 c46 -29 122 -77 170 -105 l87 -53 -32 -57 c-18
-31 -43 -81 -56 -110 -23 -49 -26 -52 -55 -47 -17 3 -78 12 -135 20 -57 7
-105 16 -108 19 -4 4 29 358 36 384 2 6 16 -2 93 -51z m5 -478 c293 -33 581
-90 596 -117 2 -4 -20 -52 -50 -107 -30 -55 -79 -147 -110 -205 -31 -58 -107
-199 -171 -313 l-115 -208 -31 6 c-78 17 -411 117 -422 128 -4 3 2 19 12 34
10 15 63 102 117 193 73 123 96 169 89 180 -29 47 -59 13 -198 -226 -49 -84
-95 -154 -102 -154 -11 0 -76 18 -314 87 -10 3 -18 10 -18 15 0 39 310 492
448 656 30 35 52 52 68 52 13 0 103 -9 201 -21z m-3577 -104 c184 -13 391 -29
460 -35 69 -5 256 -19 415 -30 652 -47 900 -69 1160 -105 344 -48 835 -146
835 -167 0 -4 -4 -8 -9 -8 -5 0 -14 -13 -21 -30 -7 -16 -20 -30 -29 -30 -9 0
-86 14 -171 30 -194 38 -363 66 -550 90 -244 32 -309 39 -485 50 -93 6 -181
13 -195 15 -14 3 -124 12 -245 20 -121 9 -265 20 -320 25 -55 5 -219 19 -365
30 -146 11 -308 24 -360 30 -52 5 -156 14 -230 20 -74 5 -193 14 -265 20 -71
5 -224 17 -340 25 -330 24 -355 26 -355 36 0 5 42 9 93 9 50 0 146 5 212 10
66 5 172 12 235 16 63 4 117 9 120 11 3 3 21 2 40 -1 19 -4 186 -17 370 -31z
m4646 -488 c38 -51 44 -65 39 -91 -8 -40 -86 -202 -165 -341 -78 -138 -301
-475 -315 -475 -6 0 -92 98 -192 218 -253 303 -227 264 -205 304 70 124 127
223 207 358 50 85 127 218 170 295 l78 139 169 -174 c93 -95 189 -201 214
-233z m-1535 -279 l76 -23 143 -190 c78 -104 165 -216 192 -247 35 -41 44 -58
33 -58 -43 0 -272 69 -335 100 -55 28 -214 240 -303 403 -20 37 -37 72 -37 76
0 5 35 -2 78 -15 42 -13 111 -34 153 -46z m384 -119 c72 -21 155 -45 185 -53
53 -15 59 -21 150 -132 52 -64 139 -170 193 -236 l98 -119 -38 6 c-94 17 -384
92 -393 102 -30 33 -380 473 -380 478 0 7 33 -1 185 -46z"/>
<path d="M6430 8869 c-36 -4 -108 -17 -160 -28 -52 -11 -106 -22 -120 -25 -14
-2 -43 -9 -65 -15 -75 -20 -379 -82 -454 -92 -41 -6 -87 -17 -102 -25 -33 -16
-69 -65 -69 -91 0 -31 38 -82 74 -99 32 -16 42 -15 162 6 71 12 203 40 294 62
274 66 440 100 535 110 105 12 131 22 151 61 39 75 -36 150 -146 146 -19 -1
-64 -5 -100 -10z"/>
<path d="M6049 6659 c-195 -94 -517 -212 -724 -263 -310 -77 -761 -97 -1022
-46 -62 12 -120 20 -128 16 -18 -7 -20 -50 -2 -64 6 -5 39 -18 72 -28 77 -23
81 -26 94 -81 59 -231 282 -464 540 -564 221 -85 517 -86 740 -2 401 151 678
495 698 868 5 93 4 102 -19 135 -28 42 -80 70 -129 70 -21 0 -69 -17 -120 -41z
m-30 -588 c25 -16 -87 -133 -214 -223 -133 -94 -313 -154 -480 -159 -144 -5
-151 2 -77 73 113 109 292 219 437 267 132 43 299 64 334 42z"/>
<path d="M4570 7942 c-65 -32 -95 -74 -119 -170 -39 -153 17 -276 131 -289 84
-10 144 44 178 156 36 121 20 211 -48 275 -24 22 -43 30 -79 32 -26 2 -55 0
-63 -4z"/>
<path d="M5430 7842 c-76 -11 -139 -112 -147 -240 -7 -100 8 -156 56 -203 104
-105 237 -33 270 146 15 79 14 112 -5 176 -27 89 -89 132 -174 121z"/>
<path d="M1981 4841 c-9 -6 -12 -19 -8 -37 7 -38 85 -225 101 -242 16 -16 46
-5 46 17 0 16 -81 239 -95 261 -8 12 -25 13 -44 1z"/>
<path d="M4611 4639 c-81 -24 -141 -82 -181 -174 -30 -68 -24 -168 13 -241 98
-193 378 -208 484 -26 77 131 54 285 -56 385 -64 57 -172 81 -260 56z"/>
<path d="M4444 3726 c-112 -51 -178 -158 -178 -286 0 -80 10 -107 66 -186 62
-87 192 -125 313 -90 45 14 69 29 109 69 63 64 86 124 86 223 0 59 -5 81 -31
132 -35 70 -72 105 -147 139 -69 30 -149 30 -218 -1z"/>
<path d="M7447 3980 c-3 -10 0 -26 7 -34 14 -17 272 -164 303 -172 62 -16 72
34 16 69 -102 64 -278 157 -298 157 -14 0 -25 -7 -28 -20z"/>
<path d="M8652 3067 c-24 -29 -153 -312 -150 -330 5 -30 34 -45 52 -27 24 24
157 323 154 345 -4 24 -40 32 -56 12z"/>
<path d="M8946 9360 c-118 -36 -191 -180 -156 -308 13 -51 77 -125 130 -151
113 -57 255 -12 320 102 71 124 9 296 -126 353 -37 15 -123 17 -168 4z m150
-110 c44 -28 78 -99 70 -148 -11 -71 -75 -122 -154 -122 -36 0 -49 6 -85 39
-41 39 -42 41 -42 104 0 56 4 69 25 92 51 56 128 70 186 35z"/>
<path d="M9299 7355 c-88 -18 -142 -46 -204 -109 -77 -77 -117 -168 -123 -279
-4 -79 -2 -96 23 -158 37 -94 113 -177 204 -222 63 -30 71 -32 181 -32 109 0
118 2 175 32 131 68 215 182 234 317 17 117 -6 200 -85 307 -85 117 -251 176
-405 144z m203 -113 c112 -49 188 -164 188 -283 0 -56 -6 -77 -35 -137 -73
-145 -221 -205 -385 -156 -76 22 -159 107 -184 189 -45 140 14 294 140 365 31
18 71 37 88 41 48 12 138 3 188 -19z"/>
<path d="M8896 4227 c-37 -27 -15 -49 109 -112 318 -163 621 -412 833 -688 87
-113 104 -127 131 -110 33 21 21 48 -71 168 -216 279 -541 549 -827 687 -58
28 -114 54 -123 59 -24 12 -31 11 -52 -4z"/>
<path d="M730 3610 c-48 -9 -110 -42 -142 -77 -39 -41 -58 -94 -58 -163 0
-152 105 -254 261 -254 57 0 74 4 115 30 55 33 108 105 125 167 13 49 6 124
-15 165 -49 95 -176 154 -286 132z m120 -110 c101 -51 113 -166 26 -247 -38
-36 -51 -43 -86 -43 -79 0 -153 57 -166 127 -23 124 112 221 226 163z"/>
<path d="M1095 2371 c-192 -25 -384 -125 -476 -248 -13 -18 -49 -49 -79 -69
-156 -105 -247 -256 -281 -464 -20 -126 -3 -227 56 -324 23 -39 35 -71 35 -95
0 -52 26 -147 58 -210 56 -113 218 -243 357 -287 28 -9 106 -20 175 -24 92 -6
141 -14 185 -31 49 -18 80 -23 170 -23 182 -1 316 54 442 181 60 61 133 184
133 224 0 10 25 46 56 81 110 125 154 249 151 423 -4 179 -54 295 -178 415
-31 30 -68 78 -82 106 -75 150 -233 272 -419 324 -83 23 -215 32 -303 21z
m270 -136 c155 -41 294 -152 358 -286 27 -56 46 -83 71 -98 81 -51 149 -166
168 -286 23 -148 -23 -295 -127 -404 -45 -47 -58 -70 -71 -117 -36 -138 -141
-246 -297 -306 -65 -25 -76 -27 -157 -34 -56 -5 -77 -1 -155 26 -72 26 -114
34 -210 40 -146 9 -205 27 -282 83 -129 96 -194 202 -201 332 -3 68 -8 85 -31
115 -64 83 -79 172 -53 302 34 165 102 273 222 353 36 24 80 63 98 88 77 102
231 184 397 211 51 8 208 -3 270 -19z"/>
<path d="M1357 1763 c-11 -11 -8 -48 5 -61 19 -19 66 -15 78 7 13 25 13 27 -6
45 -15 16 -65 22 -77 9z"/>
<path d="M574 1405 c-22 -55 27 -197 89 -262 36 -38 60 -42 81 -11 17 24 21
15 -56 130 -20 30 -43 77 -51 104 -10 37 -19 50 -36 52 -12 2 -24 -3 -27 -13z"/>
<path d="M4075 1917 c-28 -7 -59 -29 -102 -72 -50 -50 -65 -72 -78 -120 -73
-249 166 -474 389 -366 191 93 230 351 76 500 -66 64 -177 87 -285 58z"/>
<path d="M7020 1425 c-6 -8 -14 -34 -17 -57 -9 -87 -33 -264 -38 -288 -3 -14
-9 -49 -12 -78 l-6 -53 33 3 c42 4 42 3 70 258 18 161 20 203 10 215 -16 19
-24 19 -40 0z"/>
<path d="M3895 987 c-167 -81 -223 -291 -119 -444 103 -150 291 -175 424 -56
127 114 137 307 22 435 -54 59 -103 81 -197 85 -69 4 -87 1 -130 -20z"/>
</g>
</svg>
