<?xml version="1.0" encoding="UTF-8" standalone="yes"?>
<svg version="1.0" xmlns="http://www.w3.org/2000/svg" width="1024.000000pt" height="1024.000000pt" viewBox="0 0 1024.000000 1024.000000" preserveAspectRatio="xMidYMid meet">
  <metadata>
Created by potrace 1.16, written by Peter Selinger 2001-2019
</metadata>
  <g transform="translate(0.000000,1024.000000) scale(0.100000,-0.100000)" fill="#000000" stroke="none">
    <path d="M1596 9648 c-37 -4 -91 -12 -120 -19 -133 -32 -293 -124 -336 -193&#xA;-11 -20 -53 -56 -92 -82 -91 -61 -150 -123 -193 -205 -47 -90 -68 -183 -63&#xA;-290 3 -73 8 -94 35 -146 25 -47 31 -69 26 -96 -10 -61 16 -174 60 -259 96&#xA;-187 305 -306 521 -296 78 4 97 1 150 -20 82 -34 241 -42 336 -18 180 45 308&#xA;158 359 318 7 22 38 63 75 100 78 79 121 173 135 301 19 165 -17 283 -119 392&#xA;-24 25 -44 60 -54 95 -76 264 -397 450 -720 418z m206 -123 c209 -44 378 -185&#xA;419 -350 9 -38 25 -64 66 -107 66 -71 95 -132 101 -220 10 -140 -39 -270 -134&#xA;-358 -45 -40 -57 -60 -76 -117 -67 -207 -351 -317 -577 -223 -36 14 -77 20&#xA;-182 22 -136 3 -137 4 -213 42 -161 82 -246 222 -246 408 0 65 -4 83 -24 113&#xA;-105 155 -4 441 191 542 38 20 63 43 87 79 52 77 166 142 311 177 46 11 209 6&#xA;277 -8z"/>
    <path d="M1722 9338 c-18 -18 -15 -32 11 -56 29 -27 53 -28 67 -3 13 26 13 27&#xA;-12 51 -25 23 -48 26 -66 8z"/>
    <path d="M1150 8655 c-18 -22 1 -82 43 -136 42 -55 62 -67 85 -53 27 18 25 39&#xA;-8 77 -16 19 -39 56 -51 81 -21 49 -45 59 -69 31z"/>
    <path d="M4389 9261 c-53 -54 -37 -93 64 -157 135 -85 317 -209 317 -216 0 -5&#xA;-22 -8 -49 -8 -123 0 -1093 -96 -1134 -112 -15 -6 -35 -23 -43 -39 -18 -36&#xA;-42 -240 -89 -764 -3 -33 -12 -133 -19 -223 -8 -90 -16 -165 -19 -168 -3 -3&#xA;-63 9 -133 27 -197 49 -282 42 -332 -28 -46 -65 -47 -145 -3 -217 32 -51 181&#xA;-189 308 -283 61 -45 113 -88 115 -94 2 -6 0 -47 -4 -92 -4 -45 -14 -176 -23&#xA;-292 -8 -115 -17 -230 -20 -255 -2 -25 -7 -94 -11 -155 -3 -60 -8 -117 -9&#xA;-125 -2 -8 -11 -131 -21 -273 -16 -239 -16 -260 -1 -292 13 -27 59 -63 222&#xA;-170 113 -75 205 -139 205 -142 0 -3 -94 -3 -209 -2 -268 5 -259 11 -280 -196&#xA;-20 -181 -5 -162 -129 -169 -59 -4 -154 -11 -212 -16 -58 -5 -134 -10 -170&#xA;-11 l-65 -3 -16 55 c-10 30 -60 187 -113 349 -52 162 -94 295 -93 296 1 1 72&#xA;45 157 99 263 164 264 165 274 208 8 33 2 61 -53 230 -38 117 -71 201 -84 214&#xA;-12 12 -65 44 -117 71 -113 59 -101 40 -235 372 -50 126 -100 241 -109 255&#xA;-25 39 -61 50 -291 95 -115 23 -244 50 -287 61 -42 10 -93 19 -113 19 -27 0&#xA;-140 -53 -463 -216 -235 -119 -437 -227 -449 -241 -31 -33 -30 -78 7 -221 74&#xA;-294 294 -997 364 -1164 22 -52 51 -71 196 -123 l129 -47 37 -112 c74 -225&#xA;400 -1095 437 -1166 32 -61 74 -82 147 -76 30 3 93 8 140 12 47 3 177 14 290&#xA;25 419 39 681 61 685 57 3 -2 -2 -62 -10 -134 -13 -112 -56 -515 -70 -644 -2&#xA;-25 -9 -90 -15 -145 -14 -120 -7 -146 47 -173 44 -23 155 -42 239 -42 32 0 54&#xA;-3 50 -8 -4 -4 -166 -7 -359 -7 -451 0 -430 9 -462 -200 -34 -227 -44 -306&#xA;-69 -540 -14 -132 -33 -301 -41 -375 -9 -74 -18 -155 -20 -180 -3 -25 -21&#xA;-184 -40 -355 -31 -278 -33 -312 -19 -332 16 -26 65 -31 82 -11 9 12 44 300&#xA;87 723 9 83 18 166 20 185 10 66 44 365 50 435 8 90 30 249 55 398 11 65 20&#xA;122 20 127 0 22 140 18 480 -15 85 -8 245 -22 355 -30 211 -16 288 -22 370&#xA;-30 28 -3 113 -10 190 -15 77 -6 158 -12 180 -15 22 -3 135 -12 250 -20 116&#xA;-8 228 -17 250 -20 22 -2 81 -7 130 -10 50 -4 182 -15 295 -25 113 -11 358&#xA;-31 545 -45 400 -30 405 -30 405 -53 0 -14 -30 -227 -45 -322 -2 -14 -13 -99&#xA;-25 -190 -11 -91 -23 -181 -26 -200 -3 -19 -9 -66 -14 -105 -6 -38 -19 -140&#xA;-30 -225 -11 -85 -24 -189 -30 -230 -30 -228 -40 -363 -29 -376 14 -17 43 -18&#xA;56 -1 6 6 22 116 37 242 15 127 36 295 46 375 10 80 21 168 24 195 14 123 51&#xA;432 61 511 3 17 11 86 20 155 8 68 17 138 20 155 l5 30 98 -12 c268 -36 339&#xA;-46 508 -76 101 -17 188 -34 194 -38 8 -5 4 -22 -14 -58 -14 -28 -26 -67 -26&#xA;-87 0 -56 107 -250 220 -400 148 -195 161 -207 259 -240 l83 -27 -6 -47 c-12&#xA;-86 -37 -266 -52 -381 -8 -63 -17 -132 -20 -154 -6 -44 15 -76 52 -76 20 0 54&#xA;23 54 37 0 9 31 257 35 281 2 12 12 86 21 165 10 78 18 143 19 144 1 1 154&#xA;-36 341 -83 388 -97 385 -97 460 -19 49 51 250 351 327 490 152 273 186 371&#xA;153 449 l-16 38 119 237 c161 321 255 530 254 566 -1 17 -17 84 -36 150 -19&#xA;66 -43 153 -53 194 -13 51 -29 85 -53 113 -69 81 -644 434 -1195 734 -60 32&#xA;-111 65 -113 72 -3 7 5 92 17 189 27 220 31 212 -121 263 -160 55 -159 54 -9&#xA;60 197 8 224 27 235 165 3 44 13 132 20 195 8 63 17 138 20 165 27 245 39 353&#xA;60 565 32 306 61 603 74 740 6 58 15 148 20 200 12 116 34 339 66 695 34 365&#xA;34 369 46 458 15 115 8 129 -124 246 -166 145 -826 671 -1000 796 -38 27 -50&#xA;30 -122 31 -44 0 -120 -3 -170 -7 -49 -4 -144 -10 -210 -13 -66 -3 -145 -8&#xA;-175 -11 -30 -2 -100 -7 -155 -10 -55 -3 -185 -12 -290 -20 -104 -8 -224 -17&#xA;-265 -20 -118 -8 -478 -34 -556 -41 l-72 -6 -63 54 c-148 124 -272 210 -405&#xA;279 -113 59 -152 63 -195 20z m2571 -373 c0 -35 -39 -617 -45 -668 -2 -25 -7&#xA;-92 -10 -150 -10 -173 -51 -747 -91 -1245 -41 -531 -128 -1428 -140 -1446 -3&#xA;-5 -17 -6 -32 -4 -15 3 -124 9 -242 15 -410 20 -806 40 -905 45 -55 3 -147 8&#xA;-205 10 -58 3 -136 8 -175 10 -38 3 -162 9 -275 15 -113 6 -329 17 -480 26&#xA;-151 8 -358 19 -460 24 -179 9 -514 31 -516 34 0 0 5 75 12 166 6 91 15 210&#xA;18 265 4 55 9 114 11 130 2 17 7 66 10 110 3 44 10 130 15 190 13 143 18 214&#xA;30 359 5 65 11 120 13 123 3 2 62 -34 133 -80 465 -303 766 -429 1079 -452&#xA;312 -23 549 170 572 467 l6 76 61 -50 c148 -124 365 -181 552 -145 317 60 565&#xA;307 630 626 21 107 15 286 -14 376 -95 299 -325 501 -596 521 -153 12 -338&#xA;-38 -471 -127 -89 -60 -207 -183 -257 -270 l-38 -64 0 41 c0 62 -45 226 -84&#xA;308 -89 185 -215 296 -389 342 -69 18 -210 18 -305 -2 -282 -57 -517 -303&#xA;-593 -620 -18 -75 -20 -111 -17 -227 4 -118 2 -137 -10 -132 -8 3 -45 12 -81&#xA;21 -136 31 -126 26 -125 64 0 33 12 185 34 420 5 58 14 157 19 220 13 137 44&#xA;444 45 447 2 2 275 28 466 43 74 6 180 15 235 20 55 5 207 17 337 27 l238 17&#xA;37 -36 c48 -46 73 -58 117 -58 41 0 76 37 76 81 0 35 5 36 160 44 69 3 132 8&#xA;140 10 8 2 60 6 115 9 55 4 125 8 155 11 115 9 190 15 345 25 88 6 178 13 200&#xA;15 22 3 155 12 295 20 140 9 264 17 275 19 11 2 44 4 73 5 48 1 52 -1 52 -21z&#xA;m247 -148 c327 -253 837 -663 862 -694 11 -13 12 -35 2 -129 -6 -61 -16 -157&#xA;-21 -212 -23 -239 -41 -423 -45 -460 -3 -22 -18 -184 -35 -360 -16 -176 -32&#xA;-340 -35 -365 -2 -25 -7 -74 -10 -110 -6 -68 -12 -127 -20 -207 -2 -27 -9&#xA;-100 -15 -163 -6 -63 -13 -128 -15 -145 -2 -16 -13 -124 -24 -240 -18 -181&#xA;-27 -265 -46 -408 -2 -15 -11 -95 -21 -178 -11 -99 -21 -148 -28 -145 -188 81&#xA;-551 235 -676 286 -246 102 -332 139 -335 142 -1 2 8 84 21 183 13 99 35 297&#xA;49 440 14 143 27 274 30 290 2 17 7 75 10 130 4 55 8 107 10 115 3 16 12 119&#xA;20 230 3 36 10 117 15 180 22 256 30 349 35 435 3 50 8 104 11 120 2 17 17&#xA;224 34 460 16 237 32 464 35 505 3 41 8 122 11 180 3 58 8 114 9 125 2 11 4&#xA;42 4 68 1 27 5 47 11 45 5 -1 76 -55 157 -118z m-2591 -371 c201 -37 369 -211&#xA;424 -442 24 -99 26 -252 6 -361 -18 -90 -74 -234 -98 -249 -20 -13 -271 4&#xA;-513 34 -176 22 -555 95 -569 109 -20 20 -30 178 -18 276 23 183 90 322 217&#xA;450 152 153 352 220 551 183z m1367 -244 c211 -44 391 -227 447 -454 57 -230&#xA;-1 -461 -159 -633 -139 -150 -310 -228 -503 -228 -272 0 -526 216 -585 498&#xA;-20 98 -13 240 17 337 104 335 454 550 783 480z m-2770 -624 c55 -11 200 -43&#xA;324 -73 257 -60 244 -52 245 -168 1 -67 -22 -131 -56 -159 -20 -17 -21 -57 0&#xA;-65 25 -10 62 23 90 80 23 47 26 62 22 131 -3 43 -8 87 -13 97 -7 16 -5 18 16&#xA;14 13 -3 81 -18 150 -33 l126 -28 14 -36 c7 -20 14 -70 15 -112 1 -98 13 -118&#xA;48 -83 19 18 22 109 5 167 -6 22 -8 41 -5 45 4 3 50 -2 104 -11 53 -9 117 -19&#xA;141 -23 41 -6 44 -9 69 -63 20 -44 27 -76 30 -148 4 -95 17 -118 48 -92 21 18&#xA;17 133 -7 199 -36 98 -36 91 7 86 22 -3 69 -8 107 -12 l68 -6 29 -57 c60 -119&#xA;74 -243 44 -376 -23 -96 -23 -129 -2 -133 39 -8 78 107 79 233 0 97 -13 156&#xA;-57 253 l-33 72 103 0 c134 0 154 -12 215 -132 37 -72 45 -98 49 -160 11 -172&#xA;-70 -323 -213 -396 -212 -107 -609 -7 -1070 271 -120 72 -430 278 -535 355&#xA;-169 124 -340 290 -340 329 0 5 7 19 16 31 19 27 40 28 167 3z m1870 -178 c5&#xA;-27 3 -33 -12 -33 -28 0 -31 10 -15 42 18 34 19 34 27 -9z m-3278 -373 c121&#xA;-28 236 -54 255 -58 l35 -8 -85 -46 c-47 -25 -131 -69 -188 -98 l-103 -53&#xA;-117 37 c-64 21 -173 55 -242 76 l-125 37 160 81 c88 45 167 81 175 81 8 1&#xA;113 -22 235 -49z m469 -349 c48 -117 85 -215 84 -216 -2 -2 -94 -57 -206 -124&#xA;l-203 -120 -10 27 c-5 15 -44 117 -86 226 -53 138 -73 203 -67 213 13 21 387&#xA;224 395 215 4 -4 46 -103 93 -221z m-872 112 c125 -42 225 -80 221 -84 -16&#xA;-16 -372 -199 -386 -199 -32 0 -467 159 -467 171 0 8 371 187 389 188 7 1 117&#xA;-34 243 -76z m397 -383 c45 -129 89 -245 97 -257 19 -29 45 -29 97 0 52 29&#xA;271 145 350 185 l59 29 101 -54 c56 -31 106 -59 110 -63 4 -4 -95 -78 -220&#xA;-165 -125 -86 -233 -164 -240 -172 -16 -20 0 -53 26 -53 10 0 42 17 72 38 136&#xA;95 401 272 408 272 7 0 81 -234 81 -257 0 -14 -55 -52 -275 -190 -378 -237&#xA;-809 -493 -817 -485 -5 5 -21 53 -37 108 -39 134 -211 703 -271 894 -27 85&#xA;-51 164 -54 175 -5 17 21 34 207 131 116 61 215 108 218 105 4 -3 44 -112 88&#xA;-241z m-800 88 c113 -43 206 -80 208 -81 2 -2 41 -132 87 -288 46 -156 114&#xA;-383 151 -504 104 -343 116 -387 110 -393 -8 -8 -241 71 -342 116 -78 34 -83&#xA;39 -98 82 -10 25 -30 79 -45 120 -49 131 -224 698 -299 968 l-20 73 22 -7 c12&#xA;-4 114 -42 226 -86z m2706 -968 c88 -5 210 -12 270 -15 61 -3 144 -7 185 -10&#xA;41 -3 125 -7 185 -10 61 -3 142 -7 180 -10 39 -3 124 -7 190 -10 66 -3 192&#xA;-10 280 -15 88 -5 216 -12 285 -15 69 -3 163 -7 210 -10 91 -5 157 -9 490 -25&#xA;118 -6 242 -13 275 -15 33 -2 139 -7 235 -10 l175 -7 245 -103 c135 -57 274&#xA;-115 309 -129 35 -14 141 -59 235 -98 l170 -73 -213 -3 -214 -2 -101 36 c-358&#xA;128 -419 146 -511 150 -162 7 -885 33 -1090 39 -110 3 -243 8 -295 10 -188 8&#xA;-584 21 -930 30 -124 3 -244 8 -267 11 -32 4 -96 39 -260 141 -120 75 -222&#xA;140 -227 144 -12 11 -7 11 189 -1z m-1259 -398 c64 -196 122 -363 129 -371 11&#xA;-11 35 -12 147 -2 159 14 208 18 357 27 l113 7 -5 -29 c-3 -16 -9 -58 -12 -94&#xA;-3 -36 -8 -77 -11 -91 l-5 -27 -177 -8 -177 -9 0 -30 0 -30 65 0 c36 1 116 5&#xA;179 9 109 9 113 8 108 -10 -3 -10 -11 -62 -18 -114 -7 -52 -17 -98 -22 -101&#xA;-5 -4 -53 -10 -106 -13 -53 -4 -188 -16 -301 -27 -113 -10 -230 -21 -260 -24&#xA;-30 -3 -95 -9 -145 -14 -49 -5 -93 -6 -96 -3 -4 4 -27 66 -52 137 -25 72 -107&#xA;296 -181 500 -75 203 -136 375 -136 381 0 17 468 305 482 297 4 -2 60 -165&#xA;124 -361z m-626 -122 c64 -178 223 -600 279 -745 50 -126 51 -130 32 -145 -71&#xA;-56 -203 -155 -207 -155 -9 0 -55 113 -157 385 -215 575 -283 767 -275 776 3&#xA;2 21 -3 41 -11 59 -24 124 -19 182 14 44 26 51 27 57 13 4 -10 26 -69 48 -132z&#xA;m1835 130 c143 -5 348 -12 455 -15 107 -3 254 -7 325 -10 175 -7 368 -13 750&#xA;-25 176 -5 365 -12 420 -15 55 -2 282 -9 505 -15 223 -6 424 -13 448 -16 41&#xA;-5 43 -7 38 -32 -3 -15 -8 -49 -11 -77 -12 -114 -56 -508 -85 -755 -17 -146&#xA;-35 -305 -40 -355 -5 -49 -20 -184 -34 -300 -14 -115 -27 -239 -31 -275 -3&#xA;-36 -8 -81 -10 -100 -7 -46 -10 -77 -29 -250 -9 -80 -19 -162 -22 -184 l-6&#xA;-38 -122 7 c-180 10 -868 59 -1671 119 -110 8 -393 29 -630 45 -236 17 -485&#xA;35 -553 41 -67 5 -142 10 -167 10 -24 0 -54 4 -67 9 l-24 9 12 124 c26 258 50&#xA;476 69 633 8 66 28 242 45 390 17 149 37 326 45 395 38 322 56 469 61 520 4&#xA;30 8 62 9 70 1 8 6 34 10 58 5 34 11 42 28 42 12 0 139 -4 282 -10z m3175&#xA;-161 c80 -27 299 -106 487 -175 188 -68 347 -124 353 -124 5 0 10 -17 10 -37&#xA;-1 -53 -26 -232 -33 -239 -4 -4 -17 0 -29 8 -79 51 -479 248 -505 248 -17 0&#xA;-41 -9 -55 -19 -31 -25 -226 -415 -238 -479 -8 -43 -5 -60 47 -212 64 -190 71&#xA;-206 110 -241 15 -14 143 -97 283 -184 140 -87 257 -159 259 -161 3 -3 -23&#xA;-241 -40 -358 -9 -65 -12 -71 -60 -114 -53 -48 -121 -134 -233 -294 -37 -54&#xA;-71 -98 -75 -98 -11 0 -705 171 -709 174 -1 2 4 52 13 112 13 96 75 603 89&#xA;739 3 28 24 210 46 405 22 195 42 378 45 405 3 28 12 113 20 190 9 77 22 205&#xA;31 285 18 176 25 220 33 220 3 0 71 -23 151 -51z m469 -526 c446 -232 954&#xA;-514 1266 -703 204 -124 387 -243 404 -263 10 -13 -17 -73 -158 -354 -93 -186&#xA;-190 -382 -215 -437 l-46 -98 -71 63 c-157 141 -184 154 -384 189 -71 12 -131&#xA;24 -133 25 -1 1 42 94 97 206 109 225 138 297 128 322 -3 9 -30 28 -59 43 -29&#xA;15 -118 65 -198 112 -80 47 -215 125 -300 175 -310 179 -690 410 -690 419 0&#xA;28 169 388 182 388 6 0 85 -39 177 -87z m-4183 -289 c-3 -9 -6 -34 -6 -57 0&#xA;-73 81 -58 -798 -142 -151 -15 -276 -25 -278 -22 -2 2 35 37 82 77 l86 73 132&#xA;13 c72 7 185 18 251 24 66 6 137 13 159 15 21 2 104 9 185 16 80 6 148 13 150&#xA;15 2 2 13 4 24 4 13 0 17 -5 13 -16z m4134 -296 c151 -91 403 -239 560 -328&#xA;157 -90 286 -164 288 -165 3 -3 -84 -162 -94 -174 -3 -3 -72 39 -504 308 -143&#xA;88 -440 281 -458 296 -3 2 -82 227 -82 232 0 5 -24 19 290 -169z m1841 -748&#xA;c9 -44 8 -49 -76 -229 -46 -100 -124 -258 -172 -349 l-87 -166 -73 79 c-40 43&#xA;-73 82 -73 86 0 7 389 783 407 813 6 9 52 -139 74 -234z m-1305 81 c80 -50&#xA;150 -91 155 -93 7 -2 -80 -187 -97 -207 -4 -4 -166 14 -228 26 -28 5 -28 5&#xA;-23 67 17 187 32 296 39 296 5 0 74 -40 154 -89z m-71 -401 c260 -32 459 -69&#xA;538 -99 l28 -11 -29 -53 c-16 -28 -67 -122 -112 -207 -156 -295 -283 -520&#xA;-293 -520 -14 0 -245 65 -340 97 -52 17 -77 29 -73 38 2 7 50 88 106 180 55&#xA;93 99 175 98 184 -2 9 -13 17 -25 19 -26 4 -46 -24 -163 -223 -45 -77 -84&#xA;-142 -86 -144 -5 -6 -306 79 -317 89 -19 16 201 348 386 583 56 70 74 87 95&#xA;87 15 0 99 -9 187 -20z m-3579 -80 c55 -5 135 -12 179 -15 44 -3 107 -7 140&#xA;-10 108 -9 184 -14 735 -55 300 -22 570 -42 600 -45 30 -3 127 -12 215 -20&#xA;172 -16 413 -51 590 -85 123 -23 448 -92 453 -95 6 -5 -40 -75 -49 -75 -5 0&#xA;-65 11 -133 25 -281 57 -678 113 -916 130 -47 3 -161 12 -255 20 -435 37 -756&#xA;63 -1100 90 -264 20 -557 43 -770 60 -99 8 -243 19 -319 25 -77 6 -141 12&#xA;-143 14 -2 1 75 9 169 16 95 7 216 16 268 20 145 11 229 11 336 0z m4361 -234&#xA;c141 -145 225 -241 247 -284 13 -24 12 -34 -4 -80 -40 -112 -221 -429 -358&#xA;-625 -41 -59 -79 -106 -83 -105 -13 5 -379 452 -379 463 0 6 50 96 110 200 61&#xA;105 158 274 217 378 59 103 110 187 114 187 3 0 65 -60 136 -134z m-1201 -505&#xA;c49 -12 53 -15 137 -131 48 -66 126 -168 174 -227 47 -59 90 -114 96 -121 7&#xA;-9 6 -11 -4 -8 -8 3 -60 16 -117 31 -194 49 -222 65 -323 195 -67 85 -199 300&#xA;-199 323 0 3 42 -7 93 -23 50 -15 115 -33 143 -39z m357 -111 c100 -28 189&#xA;-55 197 -59 8 -4 49 -48 90 -98 108 -129 274 -336 278 -344 3 -7 -245 50 -339&#xA;79 l-58 17 -172 215 c-94 118 -176 221 -182 228 -5 6 -6 12 -2 12 4 0 89 -23&#xA;188 -50z"/>
    <path d="M6415 8653 c-72 -9 -262 -46 -386 -73 -195 -44 -357 -77 -415 -85&#xA;-125 -16 -170 -101 -94 -176 24 -24 37 -29 78 -29 59 0 223 33 472 95 204 50&#xA;389 85 455 85 34 0 50 6 75 30 28 27 32 35 27 66 -13 78 -79 105 -212 87z"/>
    <path d="M5990 6562 c-170 -81 -281 -123 -462 -177 -303 -91 -497 -120 -793&#xA;-120 -190 1 -235 4 -333 24 -62 13 -119 20 -127 17 -18 -7 -20 -52 -2 -63 6&#xA;-4 41 -17 77 -28 l64 -21 16 -55 c47 -155 181 -333 328 -433 179 -122 448&#xA;-179 672 -142 327 53 590 234 753 518 46 80 97 249 103 341 6 92 -8 134 -57&#xA;170 -55 40 -102 34 -239 -31z m13 -531 c16 -6 10 -16 -42 -73 -110 -120 -262&#xA;-215 -413 -259 -82 -23 -318 -40 -318 -22 0 16 131 136 197 181 111 75 257&#xA;137 393 166 71 16 154 19 183 7z"/>
    <path d="M4630 7772 c-51 -28 -88 -93 -101 -182 -14 -93 -2 -146 45 -197 27&#xA;-29 41 -36 82 -40 57 -5 103 19 141 75 41 61 56 202 29 265 -35 82 -124 118&#xA;-196 79z"/>
    <path d="M5391 7654 c-56 -50 -76 -108 -76 -219 0 -103 17 -143 75 -182 131&#xA;-89 272 97 230 304 -10 45 -21 66 -50 95 -34 34 -43 38 -89 38 -44 0 -56 -5&#xA;-90 -36z"/>
    <path d="M2228 4879 c-26 -15 -23 -30 30 -155 40 -96 50 -113 70 -114 31 0 29&#xA;19 -18 146 -45 122 -56 138 -82 123z"/>
    <path d="M4674 4684 c-101 -36 -174 -141 -174 -249 0 -87 25 -150 80 -206 101&#xA;-101 258 -103 362 -4 36 33 58 77 73 141 48 204 -148 386 -341 318z"/>
    <path d="M4545 3837 c-166 -64 -233 -259 -145 -414 49 -85 134 -133 235 -133&#xA;229 0 351 291 198 470 -67 78 -196 112 -288 77z"/>
    <path d="M7343 4074 c-11 -28 9 -44 151 -126 142 -82 178 -92 184 -51 4 25&#xA;-14 38 -185 132 -118 64 -140 71 -150 45z"/>
    <path d="M8466 3207 c-33 -50 -136 -278 -136 -301 0 -33 36 -45 55 -19 8 10&#xA;30 54 49 98 19 44 48 109 65 144 23 49 28 69 20 83 -13 25 -35 23 -53 -5z"/>
    <path d="M8739 9106 c-92 -33 -144 -106 -148 -212 -5 -115 84 -219 202 -237&#xA;84 -13 194 49 238 134 52 102 -5 255 -114 308 -49 24 -123 27 -178 7z m151&#xA;-102 c87 -74 78 -195 -19 -239 -70 -31 -140 -5 -177 67 -31 60 -4 138 61 175&#xA;54 30 96 29 135 -3z"/>
    <path d="M9045 7226 c-70 -22 -119 -53 -167 -104 -112 -119 -142 -284 -79&#xA;-426 27 -63 105 -143 171 -176 240 -121 512 16 561 284 14 77 2 160 -33 229&#xA;-25 49 -92 123 -139 153 -80 50 -223 69 -314 40z m234 -105 c60 -31 103 -73&#xA;131 -128 21 -40 25 -62 25 -133 0 -75 -3 -91 -30 -138 -51 -92 -129 -142 -236&#xA;-150 -95 -7 -159 17 -224 82 -78 79 -102 175 -70 283 27 91 97 164 192 199 51&#xA;19 159 12 212 -15z"/>
    <path d="M8690 4291 c-6 -12 -8 -26 -5 -31 4 -6 46 -31 95 -55 296 -149 573&#xA;-371 772 -620 120 -150 117 -147 141 -143 44 6 33 44 -41 141 -206 275 -512&#xA;532 -798 672 -117 58 -148 64 -164 36z"/>
    <path d="M1027 3716 c-98 -27 -167 -114 -167 -213 0 -139 103 -243 243 -243&#xA;90 0 166 50 213 140 29 56 26 154 -8 211 -31 53 -89 94 -150 109 -54 12 -72&#xA;12 -131 -4z m134 -96 c102 -52 105 -190 7 -250 -63 -38 -150 -16 -195 50 -52&#xA;75 -9 189 79 210 53 13 66 11 109 -10z"/>
    <path d="M1380 2560 c-179 -27 -349 -117 -431 -227 -13 -18 -46 -48 -74 -66&#xA;-100 -68 -183 -172 -228 -283 -9 -23 -23 -82 -33 -130 -25 -138 -8 -244 56&#xA;-344 22 -35 30 -59 30 -94 0 -56 31 -152 67 -209 43 -68 139 -153 217 -191 96&#xA;-48 174 -66 277 -66 64 0 98 -5 130 -19 24 -11 82 -25 129 -32 73 -10 96 -10&#xA;164 4 202 42 366 177 426 351 13 38 37 76 69 112 68 74 110 166 129 279 13 82&#xA;13 102 -1 183 -22 132 -60 208 -151 297 -41 40 -77 83 -81 96 -9 29 -58 103&#xA;-94 143 -68 75 -200 150 -316 181 -73 19 -211 27 -285 15z m291 -136 c142 -45&#xA;253 -138 311 -261 22 -46 42 -72 78 -98 80 -59 136 -168 147 -290 11 -127 -38&#xA;-263 -126 -350 -39 -38 -53 -60 -62 -100 -25 -107 -91 -192 -202 -258 -121&#xA;-73 -278 -85 -407 -33 -50 21 -80 26 -145 26 -194 0 -349 91 -430 253 -30 59&#xA;-35 80 -35 139 0 61 -3 74 -29 106 -63 82 -79 186 -46 312 36 140 109 246 214&#xA;311 28 16 63 47 78 69 129 175 412 250 654 174z"/>
    <path d="M1637 1993 c-17 -16 -6 -54 19 -65 43 -20 83 22 54 57 -13 15 -61 20&#xA;-73 8z"/>
    <path d="M904 1655 c-20 -52 33 -204 88 -250 33 -28 48 -31 66 -13 21 21 13&#xA;48 -25 95 -21 25 -47 75 -59 112 -17 50 -28 67 -43 69 -13 2 -24 -3 -27 -13z"/>
    <path d="M4180 2138 c-19 -7 -60 -37 -92 -68 -83 -83 -106 -175 -73 -287 21&#xA;-71 74 -136 137 -167 215 -107 456 124 369 354 -44 115 -119 171 -235 176 -39&#xA;2 -87 -2 -106 -8z"/>
    <path d="M6941 1677 c-6 -8 -13 -29 -16 -48 -8 -56 -46 -352 -48 -374 -2 -16&#xA;4 -20 27 -20 37 0 39 5 66 242 17 145 19 187 10 198 -15 18 -24 19 -39 2z"/>
    <path d="M4050 1281 c-75 -24 -132 -75 -171 -151 -32 -64 -33 -176 -1 -242 49&#xA;-100 139 -158 245 -158 74 0 123 19 177 67 146 131 117 377 -55 465 -43 23&#xA;-152 33 -195 19z"/>
  </g>
  <title>Snow Golem</title>
  <desc>Snow Golem</desc>
</svg>