<?xml version="1.0" standalone="no"?>
<!DOCTYPE svg PUBLIC "-//W3C//DTD SVG 20010904//EN"
 "http://www.w3.org/TR/2001/REC-SVG-20010904/DTD/svg10.dtd">
<svg version="1.0" xmlns="http://www.w3.org/2000/svg"
 width="1024.000000pt" height="1024.000000pt" viewBox="0 0 1024.000000 1024.000000"
 preserveAspectRatio="xMidYMid meet">
<metadata>
Created by potrace 1.16, written by Peter Selinger 2001-2019
</metadata>
<g transform="translate(0.000000,1024.000000) scale(0.100000,-0.100000)"
fill="#000000" stroke="none">
<path d="M5980 9983 c-1234 -27 -1630 -52 -1685 -107 -35 -36 -78 -228 -100
-451 -3 -33 -8 -76 -10 -95 -3 -19 -10 -105 -15 -190 -19 -290 -31 -465 -45
-655 -24 -329 -39 -629 -32 -657 12 -46 41 -56 177 -64 69 -4 166 -9 215 -13
l90 -6 -4 -202 -3 -202 83 -25 c46 -13 147 -32 224 -41 77 -9 168 -20 202 -25
34 -4 179 -19 322 -31 l261 -23 0 -31 c0 -16 -3 -41 -7 -53 -5 -21 -10 -23
-37 -18 -50 11 -422 63 -531 75 -228 25 -292 31 -540 46 -143 8 -292 18 -331
21 l-72 5 5 107 5 107 38 40 c21 22 43 50 49 62 14 28 14 90 0 99 -6 4 -61 13
-122 20 -60 8 -111 15 -112 16 -1 2 -71 145 -155 318 -202 417 -331 675 -451
896 -90 168 -97 185 -87 212 15 40 -13 109 -69 172 l-43 48 49 42 c61 50 95
102 86 130 -4 12 -61 64 -126 117 l-120 96 -51 -12 c-196 -45 -830 -677 -1086
-1082 -59 -92 -61 -115 -20 -160 18 -19 43 -42 54 -50 22 -14 21 -15 -37 -134
-66 -136 -117 -282 -150 -434 l-23 -103 -45 6 c-25 3 -85 8 -134 12 -48 4 -87
8 -87 10 0 2 16 26 35 53 55 76 46 113 -32 133 -58 14 -67 16 -228 37 l-150
19 -238 -121 c-228 -117 -318 -172 -341 -209 -8 -13 -5 -23 14 -44 27 -29 293
-257 399 -342 105 -84 105 -84 293 -90 l166 -5 26 26 c30 30 29 41 -14 150
-32 78 -43 73 108 57 143 -16 145 -17 131 -41 -19 -37 -14 -139 10 -191 13
-26 29 -52 36 -58 11 -9 9 -20 -13 -63 -22 -42 -27 -64 -27 -127 0 -69 3 -82
32 -128 30 -48 31 -52 18 -89 -23 -62 -19 -161 8 -208 26 -45 87 -91 135 -101
18 -3 34 -9 36 -13 3 -3 6 -33 7 -66 l3 -59 -60 -18 c-116 -34 -131 -51 -114
-133 6 -30 47 -125 90 -212 135 -272 310 -549 477 -755 l62 -77 -37 -6 c-173
-25 -295 -55 -318 -76 -39 -36 -76 -200 -113 -493 -18 -144 -20 -150 -47 -170
-59 -40 -126 -121 -158 -190 -96 -201 -70 -432 67 -594 42 -51 44 -55 36 -95
-14 -71 -21 -425 -12 -559 8 -113 12 -131 32 -152 13 -14 36 -28 52 -31 16 -4
29 -10 28 -13 0 -4 -39 -38 -86 -77 -158 -128 -704 -686 -817 -834 -77 -102
-53 -168 132 -362 74 -79 99 -98 167 -129 116 -54 270 -103 299 -96 13 3 74
61 137 128 61 68 202 218 313 333 110 116 228 239 261 274 33 35 157 152 275
260 378 345 380 346 395 322 3 -6 -15 -45 -41 -88 -59 -99 -196 -372 -263
-525 -101 -230 -97 -241 142 -367 l98 -51 102 15 c119 17 252 50 285 71 33 22
64 73 141 239 67 144 100 208 256 502 l70 132 125 -5 c169 -7 192 -11 186 -32
-16 -55 -71 -471 -81 -619 -6 -89 -5 -93 18 -117 30 -30 100 -52 215 -67 149
-20 240 2 375 91 64 41 76 54 89 91 8 24 15 67 17 94 3 73 30 403 37 453 6 39
9 43 28 38 159 -45 487 -120 541 -123 61 -5 173 9 274 34 23 6 23 5 17 -63 -3
-38 -8 -132 -11 -209 -7 -175 -20 -390 -45 -750 -23 -330 -26 -384 -40 -615
-6 -96 -12 -199 -15 -228 -11 -130 47 -160 357 -184 211 -16 240 -9 340 77
l75 65 12 132 c20 218 21 239 37 608 8 195 17 546 21 780 3 234 8 428 12 431
10 11 174 59 182 54 12 -8 156 -459 234 -735 47 -167 164 -615 235 -901 46
-184 76 -277 97 -301 29 -32 139 -20 368 38 117 30 299 114 316 145 13 24 7
84 -17 194 -32 141 -107 452 -124 515 -10 36 -37 135 -60 220 -47 177 -103
365 -126 428 -9 24 -14 45 -12 48 5 4 86 -101 224 -291 72 -99 193 -280 488
-727 53 -81 106 -153 118 -159 39 -21 95 -11 181 32 134 68 356 207 386 243
20 24 15 88 -9 137 -95 185 -633 995 -739 1111 -13 15 -22 30 -19 34 4 3 78
-54 165 -127 87 -73 241 -203 343 -288 194 -163 289 -244 405 -346 146 -128
184 -155 221 -155 39 0 89 23 182 84 56 36 74 57 156 181 115 172 136 213 136
263 0 36 -7 46 -87 124 -49 47 -115 110 -148 139 -32 30 -86 79 -120 109 -176
161 -803 655 -1099 865 l-56 40 6 565 c7 608 -3 934 -30 975 -17 26 -116 60
-306 104 -176 41 -579 121 -798 158 -88 15 -93 17 -87 37 13 43 17 211 6 252
-27 99 -90 136 -242 142 -116 4 -220 -12 -348 -54 -40 -13 -75 -24 -77 -24 -3
0 -3 48 -2 107 l3 106 63 44 63 44 69 -17 c106 -25 228 -16 430 35 91 22 184
50 207 62 39 20 42 25 48 73 9 73 -18 243 -42 262 -26 21 -60 34 -89 34 -36 0
-29 17 10 24 18 4 50 21 71 39 47 41 52 79 36 269 l-12 134 35 59 c41 68 51
107 43 180 -9 88 -55 157 -132 198 -52 28 -184 30 -232 4 -24 -13 -57 -17
-135 -17 -82 0 -323 -18 -442 -33 -17 -2 -22 8 -32 63 -6 36 -10 68 -8 71 7
13 245 29 509 34 863 18 1085 28 1135 55 37 20 63 125 129 510 67 391 100 623
152 1065 40 343 57 533 51 579 -6 46 -53 85 -179 149 -321 163 -794 323 -1061
358 -70 10 -761 18 -1012 12z m738 -93 c111 -2 204 -6 206 -9 5 -10 -20 -341
-49 -671 -39 -427 -47 -514 -61 -635 -8 -71 -19 -182 -24 -245 -5 -63 -12
-133 -15 -155 -3 -22 -12 -121 -20 -220 -9 -98 -18 -181 -20 -184 -5 -4 -279
-33 -454 -48 -114 -10 -104 10 -121 -240 -7 -98 -15 -181 -19 -185 -3 -4 -44
-10 -91 -14 l-85 -6 0 123 c0 151 -23 232 -84 298 l-38 41 -99 0 c-93 0 -435
14 -606 25 -194 12 -266 -68 -282 -314 -3 -35 -8 -67 -13 -72 -9 -9 -158 13
-170 25 -3 3 -5 64 -4 135 2 130 -6 260 -18 278 -3 6 -69 16 -146 22 -77 6
-149 13 -160 15 -11 3 -53 5 -94 5 l-73 1 6 43 c3 23 10 123 16 222 5 99 12
221 15 270 26 447 27 463 45 720 22 312 26 351 46 465 8 47 19 108 24 137 10
60 25 93 43 93 7 0 75 7 152 15 158 17 375 31 640 40 99 4 207 8 240 10 33 2
251 7 485 11 234 3 426 8 428 9 1 1 46 1 100 0 53 -2 188 -4 300 -5z m387 -40
c144 -27 490 -137 685 -217 89 -36 275 -131 323 -165 l28 -20 -6 -92 c-14
-207 -35 -381 -115 -993 -52 -397 -151 -945 -174 -971 -17 -18 -216 -28 -736
-37 -168 -3 -365 -8 -438 -11 -116 -5 -133 -3 -138 11 -4 9 -1 81 6 160 l13
145 31 4 c102 16 211 26 295 27 126 1 186 10 186 28 0 19 -41 29 -153 37 -64
5 -95 11 -99 21 -6 14 -3 39 62 703 45 448 72 727 80 810 2 25 14 160 25 300
12 140 23 261 26 268 2 7 12 11 21 8 10 -2 45 -10 78 -16z m-3952 -305 c42
-33 76 -63 77 -66 0 -4 -53 -48 -117 -100 -273 -216 -706 -698 -845 -940 -18
-32 -38 -59 -44 -59 -10 0 -166 101 -207 133 -17 14 -16 18 19 78 171 293 640
785 949 996 48 34 62 39 75 30 9 -7 51 -39 93 -72z m37 -307 c53 -56 58 -74
27 -105 l-24 -25 -54 57 c-30 31 -56 61 -57 66 -4 11 38 48 55 49 7 0 30 -19
53 -42z m-60 -173 c0 -6 -59 -69 -131 -140 -157 -155 -355 -390 -475 -561 -83
-119 -87 -124 -108 -111 -11 8 -45 29 -73 46 -29 18 -53 35 -53 38 0 10 102
156 201 285 131 171 281 340 418 469 l105 100 58 -58 c32 -31 58 -62 58 -68z
m126 -48 c6 -12 90 -177 188 -366 98 -189 206 -403 241 -475 34 -72 99 -205
144 -295 44 -91 79 -166 77 -169 -2 -2 -55 2 -118 9 -62 7 -127 9 -143 5 -18
-4 -57 -35 -99 -79 -38 -40 -72 -71 -75 -70 -8 2 -184 20 -376 38 -82 8 -170
17 -195 20 -25 2 -99 9 -165 15 -66 6 -136 13 -155 15 -19 2 -63 7 -98 10 -34
4 -64 10 -66 13 -5 8 68 225 113 335 17 43 31 84 31 91 0 7 -11 30 -25 50
l-25 37 59 87 c122 182 302 393 514 604 82 82 152 148 155 148 4 0 12 -10 18
-23z m-1078 -712 c45 -27 82 -55 82 -62 0 -7 -22 -68 -49 -135 -53 -133 -97
-271 -109 -340 l-8 -43 -69 2 c-39 1 -90 5 -114 8 l-43 7 7 44 c22 147 185
585 213 572 4 -2 44 -25 90 -53z m222 -140 c82 -50 83 -52 55 -113 -32 -69
-115 -309 -115 -332 0 -30 -16 -33 -101 -20 -74 12 -79 14 -73 34 3 11 12 41
20 66 7 25 27 92 45 150 38 129 87 250 101 250 6 0 36 -16 68 -35z m-1115
-260 c149 -18 175 -24 175 -37 0 -10 -185 -244 -201 -254 -8 -5 -368 38 -482
58 -37 6 -66 15 -64 21 4 14 409 227 432 227 11 0 74 -7 140 -15z m3933 -256
c3 -39 -1 -48 -28 -74 -26 -25 -40 -30 -79 -30 -61 0 -97 24 -112 75 -17 58 0
72 93 80 109 8 122 3 126 -51z m-3598 21 c298 -27 710 -71 710 -75 0 -2 -27
-31 -60 -65 l-61 -63 -422 42 c-232 24 -425 45 -429 48 -14 8 -9 24 22 68 47
68 56 75 88 65 15 -5 83 -14 152 -20z m4206 -19 c17 -33 4 -61 -37 -83 -47
-25 -82 -23 -118 8 -23 19 -31 34 -31 58 0 18 3 36 7 40 4 4 43 6 87 4 73 -3
82 -5 92 -27z m-2022 -7 l28 -6 -43 -44 c-46 -47 -71 -53 -161 -38 -45 8 -48
21 -10 56 53 50 75 53 186 32z m2673 -21 c-3 -16 -14 -88 -24 -160 -14 -103
-21 -133 -33 -134 -8 0 -24 -2 -35 -3 -11 -2 -51 -7 -89 -11 l-69 -8 7 154 c4
85 11 157 14 161 8 7 133 25 196 27 37 1 38 0 33 -26z m-2414 -7 c48 -7 92
-17 98 -23 8 -8 1 -22 -27 -52 l-39 -40 -125 16 c-69 9 -127 18 -129 20 -3 2
15 24 39 48 49 50 49 50 183 31z m-3126 -30 c92 -14 200 -28 239 -32 40 -3 76
-9 82 -13 7 -4 92 -163 120 -223 2 -5 -54 -8 -125 -8 -104 0 -136 3 -164 18
-30 15 -260 186 -344 256 l-30 25 27 1 c14 0 102 -11 195 -24z m1636 -26 c67
-25 127 -86 162 -166 21 -47 25 -72 25 -150 0 -79 3 -95 18 -103 9 -5 85 -12
167 -16 83 -4 161 -9 175 -10 14 -2 106 -6 205 -10 134 -6 194 -12 235 -26 59
-20 208 -44 330 -53 25 -2 47 -6 50 -9 3 -3 -37 -58 -88 -121 l-94 -116 -499
0 -499 0 0 68 c0 73 -10 98 -33 89 -18 -7 -32 -54 -42 -139 -4 -33 -15 -67
-26 -82 -25 -32 -123 -65 -147 -50 -21 14 -40 133 -41 257 -1 87 0 90 33 129
45 52 66 113 73 210 6 83 -3 108 -38 108 -20 0 -25 -13 -33 -99 -6 -62 -44
-146 -80 -180 -33 -31 -106 -40 -142 -17 -42 28 -57 79 -51 171 9 141 66 251
156 303 62 35 113 38 184 12z m637 -51 c223 -22 446 -44 495 -49 50 -5 149
-15 220 -21 72 -7 136 -17 143 -22 13 -10 16 -95 4 -114 -6 -9 -46 -8 -177 7
-94 11 -289 31 -435 45 -402 38 -571 56 -614 63 -34 6 -43 14 -77 71 -22 34
-39 64 -39 66 0 2 17 1 38 -1 20 -2 219 -23 442 -45z m2462 -96 c62 -29 158
-111 158 -134 0 -15 -219 -5 -385 16 -60 8 -125 15 -142 15 -40 0 -41 9 -8 49
58 68 121 92 232 87 65 -3 95 -10 145 -33z m-3644 -24 c114 -10 142 -16 137
-27 -3 -7 -8 -38 -11 -68 -4 -33 -14 -60 -25 -70 -22 -20 -25 -44 -5 -44 13 0
36 -47 36 -73 0 -14 -195 -2 -242 15 -64 23 -123 72 -146 121 -27 56 -27 85
-5 133 18 36 18 36 68 31 27 -3 114 -12 193 -18z m997 -88 c94 -11 229 -25
302 -32 l131 -13 5 -30 c3 -17 3 -33 1 -35 -5 -6 -436 20 -580 35 -48 5 -52 7
-58 36 -14 68 -32 65 199 39z m627 -67 c43 -5 50 -10 78 -53 16 -26 30 -51 30
-55 0 -9 -97 3 -132 16 -24 9 -98 86 -98 102 0 6 19 4 122 -10z m278 -24 c112
-11 116 -12 148 -45 17 -19 32 -44 32 -55 0 -24 -33 -26 -159 -9 -80 11 -84
13 -124 56 -58 62 -64 75 -35 69 13 -3 75 -10 138 -16z m2243 -7 c3 -5 8 -35
12 -68 l6 -60 -118 -16 c-100 -13 -133 -14 -216 -3 -55 7 -101 15 -105 18 -3
3 -7 31 -10 61 l-4 55 78 1 c44 1 113 5 154 9 108 10 198 11 203 3z m-1648
-78 c143 -9 271 -19 284 -21 22 -5 23 -8 18 -57 -3 -29 -9 -86 -13 -129 l-7
-76 31 -16 c17 -9 61 -20 97 -25 37 -6 70 -12 73 -15 3 -3 -254 -6 -572 -6
l-577 0 19 28 c57 77 160 197 173 199 8 1 36 5 63 8 32 4 57 15 72 31 24 23
24 25 9 60 -8 20 -15 39 -15 41 0 3 19 3 43 0 23 -4 159 -13 302 -22z m695
-60 c202 -24 294 -37 302 -44 7 -6 -15 -218 -24 -226 -2 -2 -26 1 -53 6 -50
10 -406 65 -480 75 -22 3 -46 7 -52 9 -14 5 -16 50 -6 145 l6 63 91 -7 c50 -4
147 -13 216 -21z m-3363 -10 c72 -34 205 -52 285 -38 63 11 63 11 91 -18 52
-56 27 -136 -58 -178 -56 -28 -195 -40 -261 -22 -125 34 -183 147 -129 251 9
17 17 30 18 30 2 0 26 -11 54 -25z m5219 -6 c47 -29 84 -95 84 -150 0 -46 -38
-122 -96 -194 -13 -16 -54 -73 -91 -125 -204 -291 -579 -750 -611 -750 -5 0
-16 26 -25 58 -20 72 -78 134 -143 152 -24 7 -44 14 -44 17 0 2 41 56 91 120
50 64 145 193 212 287 67 94 136 191 154 216 18 25 75 108 126 185 105 155
140 193 189 206 48 12 115 2 154 -22z m-336 -15 c0 -3 -13 -24 -28 -47 -16
-23 -47 -74 -70 -113 l-41 -71 -88 -6 c-187 -13 -359 -28 -383 -33 -14 -3 -36
-7 -50 -9 -30 -4 -123 14 -130 26 -4 6 9 168 15 176 1 2 125 16 276 33 151 16
308 34 349 38 93 12 150 14 150 6z m-970 -39 c63 -9 117 -18 119 -21 5 -4 -2
-81 -33 -379 -8 -77 -22 -234 -31 -349 -8 -115 -17 -211 -19 -214 -7 -7 -256
-3 -267 4 -15 9 -7 286 15 529 42 482 38 456 74 450 15 -3 79 -12 142 -20z
m-3368 -22 c2 -10 5 -54 7 -98 1 -44 9 -127 17 -185 24 -159 23 -216 -1 -234
-17 -13 -153 -66 -169 -66 -6 0 -29 80 -24 85 2 1 22 14 44 28 61 38 89 88 89
163 0 55 -4 66 -32 102 l-33 40 20 44 c11 24 20 62 20 85 0 35 3 42 23 46 12
2 25 5 28 6 4 0 9 -7 11 -16z m-496 -254 c51 -13 208 -7 286 12 53 12 59 12
79 -6 17 -16 20 -28 16 -58 -8 -58 -32 -86 -105 -120 -58 -27 -80 -32 -162
-34 -84 -3 -100 -1 -140 20 -57 29 -83 76 -75 131 8 53 23 79 42 72 9 -4 35
-11 59 -17z m4634 -5 c0 -3 -16 -25 -35 -48 -40 -50 -1 -48 -342 -15 -110 10
-206 19 -212 19 -6 0 -11 3 -11 8 0 4 82 8 183 9 100 1 229 8 287 16 130 18
130 18 130 11z m-1053 -21 c-1 -1 -94 -9 -207 -18 -369 -29 -459 -39 -476 -57
-32 -32 -36 -320 -6 -350 16 -15 122 -14 257 2 88 11 353 56 388 66 11 4 17 0
17 -10 0 -10 -13 -17 -37 -21 -123 -21 -539 -109 -591 -126 -17 -6 -37 -19
-42 -29 -24 -45 3 -285 37 -323 16 -18 27 -19 108 -14 96 7 312 56 460 106
105 35 161 46 168 34 3 -4 8 -43 12 -85 l7 -77 -52 -28 c-28 -15 -129 -74
-225 -130 -95 -57 -178 -103 -184 -103 -5 0 -54 22 -108 49 -122 61 -254 106
-357 121 -137 21 -182 5 -294 -104 -140 -135 -250 -312 -267 -430 l-8 -49 -56
7 c-31 3 -294 9 -586 13 l-530 6 -62 55 c-35 30 -63 58 -63 63 0 5 27 43 60
85 75 94 79 110 46 169 l-25 46 112 133 c62 73 186 226 277 340 91 114 246
310 346 434 l181 227 851 0 c468 0 850 -1 849 -2z m-1807 -8 c0 -3 -37 -51
-82 -107 -46 -55 -94 -115 -108 -132 -13 -17 -115 -141 -225 -276 -110 -135
-243 -299 -297 -365 -96 -120 -145 -172 -152 -164 -21 25 -153 210 -188 266
-95 147 -187 336 -202 414 -6 35 -5 38 39 63 60 36 68 54 60 135 l-7 66 73 19
c52 13 82 28 108 52 l36 33 473 1 c259 0 472 -2 472 -5z m1805 -152 c-3 -43
-8 -88 -10 -99 -5 -24 3 -22 -275 -63 -315 -45 -342 -48 -347 -34 -6 15 3 212
10 219 2 2 94 13 203 24 277 27 271 26 352 28 l74 2 -7 -77z m559 47 c39 -5
138 -14 220 -20 82 -6 151 -12 153 -13 1 -2 -36 -55 -83 -119 l-86 -115 -62
14 c-33 7 -106 22 -161 34 -55 11 -103 24 -108 28 -8 8 8 184 18 202 4 6 14 8
23 4 8 -3 47 -10 86 -15z m1051 -167 l0 -66 -40 -14 c-62 -22 -196 -55 -201
-50 -2 2 17 31 43 64 27 33 80 103 118 157 l70 96 5 -61 c3 -33 5 -90 5 -126z
m-4923 -9 c18 -40 24 -35 -84 -70 -44 -15 -51 -15 -65 -2 -8 9 -16 30 -16 49
l-2 33 65 12 c36 6 70 12 75 13 6 0 18 -15 27 -35z m172 -86 c53 -200 155
-391 365 -684 l51 -72 -71 -57 c-39 -31 -75 -53 -79 -48 -53 60 -243 333 -297
428 -99 170 -190 362 -178 374 6 5 176 65 198 69 4 1 9 -4 11 -10z m3719 -42
c122 -24 133 -28 123 -44 -8 -13 -269 51 -274 67 -3 9 2 11 14 7 11 -3 72 -16
137 -30z m-3955 -142 c117 -277 409 -726 593 -910 l91 -91 -124 -7 c-67 -4
-133 -10 -145 -13 -24 -5 -67 36 -169 164 -65 81 -241 343 -311 463 -91 154
-195 366 -196 401 l-2 33 105 37 c58 20 108 33 111 30 3 -3 24 -51 47 -107z
m3350 0 l-3 -107 -185 -54 c-198 -58 -304 -83 -349 -83 -26 0 -29 4 -45 78
-10 42 -18 90 -19 106 -2 34 -8 32 203 76 80 17 197 44 260 60 63 15 121 29
128 29 10 1 12 -24 10 -105z m542 61 c40 -14 81 -25 91 -25 32 0 30 -18 -6
-69 -27 -37 -53 -58 -104 -84 -91 -46 -99 -41 -90 60 4 43 8 93 8 111 1 39 6
39 101 7z m987 -9 c4 -3 -242 -66 -260 -66 -4 0 7 18 24 40 l32 40 100 -5 c55
-2 102 -6 104 -9z m105 -82 c4 -16 9 -63 11 -104 l2 -75 -85 -22 c-183 -49
-311 -71 -390 -68 -78 3 -120 11 -120 23 0 4 31 43 68 87 l69 81 174 46 c96
26 190 51 209 57 46 12 52 10 62 -25z m-867 -159 c42 -42 45 -48 45 -99 0 -66
-2 -67 -176 -166 -66 -37 -204 -123 -305 -190 -101 -67 -230 -152 -286 -190
l-102 -67 -27 52 c-28 56 -99 135 -146 163 -16 9 -27 21 -25 26 4 11 216 136
477 280 107 60 236 132 285 161 130 76 126 74 173 75 37 0 48 -6 87 -45z
m-397 -5 c1 -10 -26 -29 -81 -57 -46 -24 -87 -43 -90 -43 -9 0 -9 105 0 114 4
4 43 5 87 4 62 -2 81 -6 84 -18z m396 -318 c-1 -20 -2 -69 -3 -108 l-1 -71
-62 -26 c-190 -80 -264 -87 -336 -29 l-24 18 114 74 c136 89 289 180 303 180
6 0 9 -17 9 -38z m-1425 -38 c79 -26 319 -147 415 -208 127 -81 165 -210 99
-341 -31 -63 -110 -104 -195 -105 -102 0 -118 46 -51 144 36 52 40 89 11 94
-22 4 -101 -69 -122 -113 -14 -29 -21 -34 -44 -30 -98 16 -195 35 -198 38 -2
2 3 27 11 56 13 40 33 69 96 137 83 87 94 116 50 122 -47 7 -177 -147 -212
-250 -20 -60 -3 -56 -181 -43 -90 7 -108 11 -108 24 0 26 113 214 164 274 26
30 58 60 72 67 27 15 41 47 26 62 -37 37 -141 -64 -245 -237 -42 -70 -77 -133
-77 -140 0 -25 -26 -34 -83 -28 -67 7 -69 12 -37 115 25 81 98 186 209 301 64
66 95 90 120 96 54 11 197 -7 280 -35z m-1979 -105 c12 -22 -4 -53 -68 -129
l-30 -34 -28 34 c-16 19 -29 37 -29 42 0 11 118 107 132 108 7 0 17 -9 23 -21z
m4043 -38 c20 -19 22 -32 21 -119 -1 -193 -90 -366 -236 -458 -44 -28 -58 -22
-58 23 0 13 -9 46 -20 75 -16 44 -19 68 -14 152 6 116 -2 141 -56 169 -25 13
-47 16 -75 12 -75 -11 -231 -111 -321 -207 -45 -47 -65 -91 -84 -180 -13 -66
-5 -63 -133 -44 -50 8 -125 18 -165 21 -41 4 -75 12 -77 19 -22 80 -67 182
-102 234 -24 35 -43 66 -40 68 10 11 221 144 228 144 4 0 30 -15 58 -34 56
-38 118 -52 181 -42 22 3 106 33 188 65 259 104 384 132 560 127 111 -3 126
-5 145 -25z m-378 -251 c12 -14 18 -35 17 -66 0 -53 -7 -63 -30 -46 -56 40
-144 48 -202 17 -19 -10 -68 -51 -107 -90 -40 -40 -73 -69 -73 -65 0 49 131
178 235 230 89 45 133 50 160 20z m-979 -131 c27 -53 65 -151 61 -156 -2 -1
-32 0 -68 4 -60 6 -66 8 -94 46 l-30 41 34 73 c34 71 35 72 54 55 11 -9 30
-38 43 -63z m1640 -28 c88 -16 201 -39 250 -49 49 -11 150 -33 224 -48 74 -15
184 -37 244 -50 60 -13 118 -24 130 -24 52 0 -15 -23 -219 -75 -121 -31 -263
-68 -315 -82 -141 -37 -531 -138 -726 -188 l-172 -44 -78 20 c-44 11 -85 22
-92 24 -18 6 192 231 227 243 71 25 259 201 295 276 15 32 21 37 44 32 15 -4
99 -19 188 -35z m-2896 0 c69 -6 139 -14 156 -16 l30 -5 -17 -128 c-10 -70
-29 -242 -43 -382 -15 -140 -29 -278 -32 -305 l-6 -50 -82 80 c-90 89 -159
130 -259 151 -299 64 -580 -107 -683 -416 -19 -56 -26 -226 -12 -280 26 -102
66 -176 133 -248 71 -77 202 -144 315 -163 143 -23 330 6 415 63 16 12 52 42
78 67 l48 46 -5 -65 c-3 -36 -8 -132 -11 -215 -4 -82 -8 -161 -10 -175 -2 -14
-9 -121 -16 -237 l-13 -213 -105 0 c-276 1 -836 46 -1246 100 -44 6 -96 12
-115 15 -334 40 -854 134 -879 159 -14 15 -16 54 -16 326 0 169 3 312 7 316 4
3 33 -6 65 -21 77 -38 213 -46 309 -20 125 34 239 128 298 246 113 227 78 470
-95 642 -92 92 -171 129 -291 135 -50 2 -108 -1 -134 -7 -26 -7 -49 -9 -52 -6
-11 11 55 418 84 518 13 41 143 61 659 101 112 8 1407 -3 1525 -13z m2200 -20
c67 -53 93 -131 72 -209 -4 -13 -126 -147 -272 -298 -226 -234 -266 -273 -275
-258 -43 75 -147 144 -217 144 -34 0 -38 3 -38 25 0 20 60 88 275 307 152 154
286 289 298 298 47 37 104 33 157 -9z m-1715 -36 c22 -4 68 -13 103 -21 35 -8
73 -14 86 -14 12 0 35 -14 52 -31 39 -43 82 -59 152 -59 66 0 127 18 173 51
24 17 33 19 42 10 20 -20 12 -418 -12 -638 -11 -103 -22 -224 -26 -268 -8
-110 -35 -403 -40 -441 -2 -16 -7 -59 -10 -95 -3 -35 -10 -102 -15 -149 -5
-47 -19 -173 -30 -280 -12 -107 -26 -209 -31 -226 -18 -57 1 -50 -434 -165
-123 -32 -411 -99 -428 -99 -5 0 -6 25 -3 58 4 31 13 183 21 337 29 564 33
607 60 674 35 86 44 187 26 297 -19 115 -18 139 2 319 9 83 30 287 48 455 17
167 32 307 35 311 3 5 91 -5 229 -26z m983 -171 c116 -15 212 -30 212 -33 -1
-3 -34 -41 -74 -85 l-74 -78 -143 41 c-214 62 -199 53 -199 121 0 31 3 59 6
63 4 3 18 4 33 2 14 -2 122 -16 239 -31z m2392 -46 c0 -29 3 -152 7 -274 5
-185 -13 -1072 -22 -1082 -2 -2 -36 19 -77 46 -205 138 -223 140 -364 46 -54
-36 -130 -93 -168 -127 -114 -98 -102 -91 -128 -73 -12 9 -40 16 -62 16 -40 0
-222 -57 -288 -91 -21 -11 -39 -19 -42 -19 -2 0 -27 35 -54 78 -27 42 -60 87
-73 99 -44 40 -173 48 -264 17 -22 -8 -44 -14 -49 -14 -4 0 -6 28 -2 63 3 34
8 118 11 187 3 69 7 168 10 220 2 52 7 199 11 325 l6 231 270 68 c149 37 298
76 331 87 34 11 174 48 312 84 246 63 367 94 535 139 47 13 88 24 93 25 4 0 7
-23 7 -51z m-2496 -172 c50 -15 91 -28 93 -30 2 -2 -12 -26 -30 -54 -19 -27
-37 -66 -41 -86 -5 -25 -21 -49 -51 -77 -79 -73 -96 -177 -47 -299 11 -30 47
-120 78 -200 31 -80 90 -214 130 -297 41 -84 74 -155 74 -158 0 -3 -5 -5 -11
-5 -17 0 -168 -78 -208 -108 -88 -65 -201 -162 -258 -222 -42 -43 -63 -59 -63
-48 0 10 7 84 15 165 8 82 20 195 25 253 5 58 21 224 35 370 14 146 36 379 50
519 13 139 24 256 23 260 0 3 0 20 1 38 l1 31 48 -13 c26 -7 87 -25 136 -39z
m813 -155 c47 -15 59 -23 62 -42 1 -13 -2 -154 -8 -314 -6 -159 -14 -384 -17
-500 -4 -115 -10 -214 -14 -218 -4 -5 -17 4 -28 20 -22 31 -382 770 -382 785
0 5 60 74 133 154 149 162 130 154 254 115z m-4186 -85 c165 -38 297 -200 307
-377 11 -196 -75 -362 -234 -446 -60 -32 -158 -55 -204 -49 -142 20 -270 117
-337 255 -61 126 -57 285 8 414 83 162 275 247 460 203z m3598 -37 c58 -33 76
-65 76 -136 0 -100 -53 -154 -158 -161 -52 -3 -67 0 -96 20 -103 70 -91 231
21 287 50 26 101 22 157 -10z m-1790 -32 c35 -15 88 -45 117 -68 58 -45 134
-149 160 -220 25 -69 30 -223 9 -294 -38 -133 -120 -247 -212 -298 -148 -80
-398 -73 -542 15 -202 125 -268 383 -156 615 58 119 219 246 348 273 78 17
205 6 276 -23z m2027 -377 c47 -96 99 -202 114 -235 131 -283 152 -320 209
-380 91 -95 90 -138 -6 -274 -53 -74 -273 -295 -316 -318 -26 -13 -36 -12
-123 17 -52 18 -94 34 -94 37 0 10 95 130 147 185 64 69 74 118 17 85 -42 -24
-81 -64 -157 -159 l-77 -97 -47 20 c-27 11 -57 24 -68 29 -11 5 -33 14 -49 20
l-28 10 27 38 c15 20 61 69 102 109 71 67 85 94 52 101 -22 4 -143 -101 -191
-165 -23 -32 -43 -59 -43 -60 -2 -5 -170 69 -180 79 -15 15 184 201 290 270
50 32 119 68 155 79 l65 20 17 -23 c46 -62 60 -78 69 -78 26 0 -1 76 -97 270
-93 189 -179 381 -198 447 -7 20 -5 21 52 16 35 -3 75 0 98 7 55 18 119 66
140 106 10 18 22 30 26 26 4 -4 46 -86 94 -182z m1786 -457 c35 -20 102 -63
150 -96 l87 -60 -30 -37 c-16 -20 -67 -71 -112 -113 -45 -41 -87 -80 -93 -87
-9 -9 -36 5 -110 56 -136 92 -234 164 -234 173 0 25 233 201 267 201 7 0 40
-16 75 -37z m-1122 -103 c19 -6 43 -20 53 -33 19 -23 106 -155 144 -217 l22
-35 -85 -2 c-74 -1 -177 -13 -251 -29 -15 -3 -43 -37 -84 -99 l-62 -96 -22 48
c-20 42 -21 51 -9 68 8 11 31 49 51 85 32 54 38 75 39 124 0 32 -5 75 -12 95
-7 21 -9 40 -4 45 12 12 140 55 165 56 11 0 36 -5 55 -10z m565 -106 c18 -7
185 -193 185 -206 0 -4 -8 -8 -17 -8 -45 0 -160 -67 -264 -152 -25 -21 -48
-38 -51 -38 -3 0 -16 24 -28 53 -12 28 -44 96 -71 150 -49 97 -49 97 -26 107
107 45 243 99 249 100 3 0 14 -3 23 -6z m971 -81 c126 -95 184 -140 358 -278
83 -66 169 -133 191 -149 22 -16 42 -31 43 -32 9 -6 -206 -284 -220 -284 -5 0
-104 80 -221 178 -117 97 -277 228 -355 291 -78 63 -142 119 -142 124 0 5 51
60 113 122 82 83 116 111 127 105 8 -5 56 -39 106 -77z m-803 65 c12 -6 53
-34 92 -62 38 -28 101 -71 140 -96 39 -25 80 -52 93 -61 l22 -16 -32 -59 c-17
-32 -33 -61 -35 -64 -3 -3 -14 7 -26 21 -12 14 -65 77 -117 139 -52 63 -112
133 -132 156 -49 54 -50 67 -5 42z m-473 -249 c58 -86 264 -592 346 -849 18
-58 42 -132 53 -164 12 -33 21 -62 21 -65 0 -4 -64 -12 -142 -19 -79 -7 -163
-16 -188 -19 l-45 -5 -23 78 c-52 176 -267 777 -342 958 -38 91 -38 92 60 101
36 4 70 8 75 11 6 2 46 2 90 0 69 -4 82 -7 95 -27z m663 -134 c177 -222 316
-402 426 -553 57 -78 108 -145 113 -148 5 -4 -32 -31 -84 -62 -51 -31 -116
-73 -145 -93 l-51 -38 -18 27 c-22 36 -200 286 -239 337 -86 114 -211 263
-313 373 l-114 123 22 24 c31 33 146 108 195 128 83 33 89 30 208 -118z m354
13 c139 -115 561 -465 577 -479 5 -4 -12 -36 -38 -70 -25 -34 -50 -69 -55 -77
-7 -12 -29 3 -116 79 -59 52 -165 141 -234 199 -222 183 -351 291 -351 294 0
1 16 33 35 72 19 38 35 75 35 82 0 6 2 12 5 12 3 0 66 -51 142 -112z m-1364
-54 c127 -335 337 -944 337 -979 0 -6 -25 -40 -55 -75 -30 -36 -55 -68 -55
-72 0 -5 -4 -8 -9 -8 -8 0 -55 138 -102 300 -81 282 -175 561 -243 722 -9 21
-16 46 -16 58 0 26 81 161 95 157 5 -2 27 -48 48 -103z m-1292 57 c35 -16 101
-43 147 -61 45 -17 82 -34 82 -38 0 -17 -257 -392 -268 -392 -19 0 -99 56
-149 103 -30 29 -43 49 -43 68 0 23 153 349 163 349 3 0 33 -13 68 -29z m1032
-28 c9 -21 39 -105 67 -186 34 -104 46 -149 37 -152 -48 -15 -128 -35 -141
-35 -13 0 -16 15 -17 93 0 50 -4 133 -8 182 -8 84 -7 92 13 112 12 13 24 23
27 23 3 0 13 -17 22 -37z m913 -186 c168 -186 297 -349 456 -573 122 -172 116
-152 66 -228 -39 -58 -68 -83 -68 -57 0 13 -267 368 -335 445 -46 53 -61 81
-104 198 -29 76 -67 175 -87 220 -19 46 -38 89 -41 96 -14 33 21 2 113 -101z
m-1045 71 c0 -18 3 -44 5 -58 6 -35 6 -1001 0 -1007 -2 -2 -49 2 -103 11 -91
14 -162 21 -318 30 l-60 4 -3 437 c-2 430 1 488 31 529 12 17 16 17 77 -8 35
-14 90 -31 122 -38 72 -15 99 -3 179 78 29 30 57 54 61 54 4 0 8 -15 9 -32z
m-558 6 c26 -9 47 -18 47 -21 0 -3 -22 -57 -49 -121 -27 -65 -53 -129 -56
-145 -5 -16 -16 -29 -30 -33 -78 -19 -191 -41 -197 -38 -4 3 220 355 238 373
0 1 21 -6 47 -15z m-3552 -40 c68 -14 151 -30 184 -35 33 -5 66 -11 72 -14 10
-3 -315 -325 -329 -325 -5 0 -174 189 -208 233 l-21 27 33 27 c18 16 53 47 78
70 25 23 50 43 56 43 6 0 67 -12 135 -26z m2927 -66 c-29 -69 -29 -118 1 -159
l24 -32 -43 7 c-24 4 -124 27 -224 51 -99 25 -188 45 -198 45 -10 0 -18 4 -18
9 0 4 73 27 163 50 89 22 196 54 237 69 41 16 76 25 78 21 2 -4 -7 -31 -20
-61z m3972 -60 c63 -50 150 -122 192 -159 l77 -68 -106 -143 c-59 -79 -108
-144 -109 -146 -1 -2 -38 26 -81 63 -43 36 -131 110 -195 163 -65 53 -117 101
-118 105 0 13 204 276 215 276 6 1 62 -40 125 -91z m-6356 32 c82 -11 151 -20
154 -20 3 0 -14 -17 -39 -37 -24 -21 -118 -105 -208 -188 -229 -210 -245 -224
-254 -225 -11 0 -189 119 -216 145 -4 4 189 191 273 264 33 28 66 60 74 72 10
15 21 19 40 15 15 -4 94 -15 176 -26z m571 -66 c76 -6 145 -15 145 -19 0 -2
-26 -53 -59 -112 -32 -59 -91 -171 -131 -248 -39 -77 -74 -142 -76 -144 -3 -4
-174 86 -234 124 l-40 25 21 43 c12 23 60 111 107 196 l85 153 71 -7 c39 -4
89 -9 111 -11z m-1378 -104 c44 -52 94 -110 112 -129 l32 -34 -63 -66 c-35
-36 -102 -106 -149 -156 -47 -49 -107 -112 -133 -140 l-47 -50 -124 130 c-69
72 -125 134 -125 138 0 15 394 408 406 405 6 -2 47 -46 91 -98z m1773 67 c26
-4 25 -10 -12 -77 -20 -36 -74 -137 -122 -225 l-86 -160 -110 -15 c-60 -9
-110 -14 -110 -11 0 9 158 316 209 404 l56 99 80 -6 c44 -4 87 -8 95 -9z m820
-24 c-4 -21 -20 -104 -35 -185 -32 -172 -12 -158 -187 -132 -129 20 -142 27
-129 69 5 17 15 73 21 125 7 52 17 101 22 108 7 7 39 12 87 13 42 1 105 9 141
19 92 25 89 25 80 -17z m172 -25 l36 -11 -5 -56 c-3 -31 -8 -83 -12 -116 l-6
-59 -83 -24 c-46 -13 -86 -21 -89 -18 -3 2 7 63 21 134 14 72 26 140 26 152 0
20 3 22 38 15 20 -3 53 -11 74 -17z m1062 -394 c-3 -385 -3 -386 -25 -410 -12
-13 -27 -24 -32 -24 -5 0 -6 35 -3 83 3 45 13 191 22 325 9 134 17 257 18 275
2 18 4 56 5 85 0 28 5 52 10 52 4 0 7 -173 5 -386z m3115 141 c79 -66 163
-135 186 -153 l42 -34 -59 -60 c-32 -33 -58 -64 -58 -69 0 -22 -30 -1 -168
119 -81 70 -165 141 -186 158 l-39 31 53 76 c46 66 56 75 69 64 9 -6 81 -66
160 -132z m669 -23 l124 -117 -87 -135 c-48 -74 -92 -141 -98 -147 -10 -10
-41 14 -145 108 -72 67 -132 125 -132 130 0 17 197 279 210 279 3 0 61 -53
128 -118z m-7305 -29 c53 -37 97 -71 97 -74 0 -4 -46 -53 -102 -111 -57 -57
-141 -144 -187 -193 -69 -74 -86 -87 -100 -78 -9 6 -58 37 -108 69 -51 32 -93
62 -93 68 0 22 370 398 386 392 6 -2 54 -35 107 -73z m2463 -55 c-3 -24 -8
-86 -12 -138 -4 -52 -10 -102 -14 -110 -9 -16 -186 -107 -194 -99 -3 2 -1 36
4 74 4 39 11 111 15 162 l7 92 92 30 c50 16 95 29 100 30 4 1 6 -18 2 -41z
m-371 -8 c50 -6 95 -13 101 -15 7 -2 6 -38 -2 -116 -7 -63 -13 -140 -14 -172
l0 -58 -62 7 c-35 4 -99 14 -143 23 l-80 16 3 75 c2 77 21 250 28 261 2 4 21
3 41 -1 21 -5 79 -14 128 -20z m-1365 -35 c43 -24 103 -55 134 -69 31 -14 56
-27 56 -29 0 -11 -161 -337 -167 -337 -10 0 -205 109 -232 129 l-25 19 51 114
c91 203 98 218 102 218 2 0 39 -20 81 -45z m5352 3 c14 -18 80 -118 148 -223
96 -147 120 -191 109 -197 -8 -5 -61 -35 -119 -67 -58 -32 -119 -67 -137 -77
-17 -10 -33 -16 -35 -14 -2 3 -35 55 -73 115 -38 61 -100 157 -138 214 -37 57
-65 107 -60 110 63 47 258 171 268 171 7 0 24 -15 37 -32z m-6822 -90 c57 -62
112 -121 123 -130 18 -17 18 -19 -25 -66 -190 -215 -271 -302 -278 -302 -13 0
-154 153 -194 213 l-39 57 24 34 c30 42 272 306 280 306 4 0 53 -51 109 -112z
m1950 -9 c0 -8 -116 -265 -124 -276 -3 -3 -241 -51 -244 -48 -4 4 125 286 136
297 4 4 51 14 103 22 123 18 129 18 129 5z m5878 -144 l103 -97 -77 -44 c-43
-24 -81 -44 -86 -44 -12 0 -237 192 -237 203 -1 5 27 37 60 73 l62 64 36 -29
c20 -16 82 -73 139 -126z m-1331 7 c79 -118 243 -381 243 -390 0 -12 -81 -112
-91 -112 -10 0 -281 410 -277 419 7 18 83 131 88 131 3 0 19 -22 37 -48z
m-506 9 c12 -11 159 -551 159 -583 0 -20 7 -18 -184 -48 -77 -12 -145 -24
-151 -26 -8 -3 -17 14 -25 43 -31 121 -147 505 -166 552 -8 19 -12 36 -10 39
4 4 39 8 236 31 65 7 129 4 141 -8z m-5634 -157 c29 -16 53 -33 53 -37 0 -5
-40 -52 -89 -105 -50 -53 -112 -121 -138 -151 l-49 -53 -119 47 c-66 26 -123
50 -127 53 -8 8 144 186 245 289 l60 62 56 -38 c31 -21 80 -51 108 -67z m5277
-134 c25 -80 60 -201 78 -269 l32 -124 -74 -68 c-41 -37 -77 -65 -80 -63 -4 5
-65 233 -132 497 -26 101 -27 97 56 193 l50 57 12 -39 c7 -21 33 -104 58 -184z
m-1041 85 c70 -8 148 -20 174 -26 l46 -12 -6 -156 c-13 -322 -19 -436 -22
-447 -3 -8 -30 -6 -95 7 -50 10 -95 21 -100 24 -12 7 -205 35 -245 35 l-35 0
6 283 c3 155 7 288 9 295 6 17 109 16 268 -3z m2558 -73 c9 -15 55 -92 103
-171 48 -79 86 -144 84 -145 -56 -38 -269 -168 -272 -165 -1 2 -53 80 -115
173 -94 140 -111 171 -99 182 21 21 251 152 268 153 8 1 22 -11 31 -27z
m-2898 -249 l-6 -268 -40 -55 c-56 -78 -59 -80 -53 -40 3 19 10 121 16 225 17
310 19 331 49 370 14 19 29 34 33 35 4 0 5 -120 1 -267z m2648 -95 c57 -88
104 -164 103 -167 0 -3 -29 -21 -64 -39 -51 -27 -66 -30 -75 -20 -7 7 -49 70
-94 140 l-82 126 48 61 c26 33 51 61 54 61 4 0 53 -73 110 -162z m-698 -165
c41 -156 78 -316 73 -320 -2 -2 -55 -13 -117 -23 -63 -11 -130 -24 -149 -30
-19 -5 -49 -10 -65 -10 l-31 0 -44 188 c-24 103 -45 203 -48 224 l-4 36 69 7
c37 4 102 13 143 20 41 7 91 13 110 14 l35 1 28 -107z m-396 -185 c28 -112 48
-208 46 -215 -7 -18 -122 -85 -140 -81 -13 2 -23 27 -39 98 -12 52 -31 133
-43 178 -18 70 -20 87 -9 100 20 25 122 121 129 122 4 0 29 -91 56 -202z
m-1347 102 c227 -35 304 -50 313 -59 9 -9 -8 -317 -22 -390 l-7 -34 -69 2
c-39 2 -83 5 -100 7 -16 2 -88 9 -158 16 l-128 12 6 181 c7 226 13 285 28 285
7 0 68 -9 137 -20z m-225 -97 c-3 -27 -8 -124 -11 -216 l-6 -168 -39 -26 c-33
-22 -67 -25 -55 -5 2 4 7 57 10 117 14 239 14 240 58 295 22 27 41 50 43 50 2
0 2 -21 0 -47z m1775 -262 c0 -5 -19 -12 -42 -16 -24 -3 -56 -9 -73 -12 -25
-4 -28 -3 -17 8 10 11 51 20 120 28 6 0 12 -3 12 -8z m-1623 -177 c48 -4 130
-12 182 -19 88 -11 94 -13 68 -23 -38 -16 -149 -15 -282 3 -60 8 -114 15 -120
15 -5 0 1 9 15 20 14 11 30 18 37 15 7 -2 52 -7 100 -11z"/>
<path d="M5631 9014 c-27 -34 -41 -83 -48 -169 -7 -85 7 -118 67 -166 28 -23
39 -38 34 -48 -39 -95 -55 -265 -32 -345 20 -69 81 -150 148 -195 72 -47 102
-57 227 -73 221 -27 399 58 498 237 76 137 73 333 -6 456 -48 75 -58 77 -297
44 -421 -56 -464 -58 -527 -20 -61 35 -68 78 -36 223 19 89 11 106 -28 56z
m829 -335 c55 -103 52 -280 -7 -397 -32 -64 -107 -136 -169 -164 -62 -27 -154
-39 -242 -31 -69 6 -73 7 -67 27 4 12 9 51 12 88 4 57 1 75 -20 121 -30 67
-71 90 -113 62 -34 -22 -56 -77 -58 -142 0 -29 -3 -53 -6 -53 -8 0 -55 81 -71
120 -28 71 -7 248 35 302 15 20 57 26 441 63 132 12 243 23 247 24 4 0 12 -8
18 -20z"/>
<path d="M5997 9019 c-23 -13 -51 -69 -40 -80 10 -10 93 60 93 79 0 14 -28 15
-53 1z"/>
<path d="M5146 8859 c-9 -14 -12 -33 -9 -55 9 -54 -10 -67 -79 -60 -51 6 -216
36 -273 50 -37 9 -210 48 -245 56 -19 4 -47 11 -61 14 -43 12 -48 -13 -10 -45
33 -27 33 -28 15 -47 -11 -11 -35 -47 -54 -78 -35 -58 -35 -59 -35 -174 1
-108 3 -119 32 -183 44 -93 67 -122 136 -173 199 -147 479 -73 596 159 50 100
60 235 23 319 -16 36 -17 48 -7 61 19 27 27 94 15 138 -12 44 -22 48 -44 18z
m-521 -115 c72 -14 148 -27 389 -69 44 -8 85 -20 93 -28 23 -22 32 -112 18
-180 -15 -76 -24 -97 -69 -167 l-35 -55 -1 63 c0 53 -4 67 -25 87 -36 37 -88
34 -126 -6 -32 -34 -43 -76 -44 -168 l0 -63 -60 4 c-36 2 -80 13 -110 28 -52
25 -127 94 -149 139 -51 99 -63 244 -27 327 17 37 58 104 64 104 1 0 38 -7 82
-16z"/>
<path d="M5364 8361 c-41 -25 -67 -62 -120 -176 -61 -130 -58 -175 12 -175 23
0 44 12 79 42 31 28 50 38 53 30 2 -7 15 -26 29 -42 19 -23 33 -30 59 -30 22
0 37 6 40 15 7 18 -39 230 -62 283 -15 36 -42 72 -53 72 -3 0 -20 -9 -37 -19z"/>
<path d="M6550 8067 c-25 -13 -87 -103 -77 -113 11 -11 46 17 81 65 48 65 47
74 -4 48z"/>
<path d="M4650 7989 c-25 -16 24 -49 74 -49 42 0 136 28 136 41 0 18 -184 26
-210 8z"/>
<path d="M5830 7930 c0 -14 32 -28 79 -36 53 -9 54 9 1 30 -45 18 -80 21 -80
6z"/>
<path d="M7456 9115 c-3 -9 6 -44 21 -79 16 -40 23 -73 20 -88 -4 -13 -31 -57
-62 -98 -71 -94 -91 -161 -64 -213 7 -12 29 -42 49 -67 20 -25 50 -65 66 -90
43 -67 43 -67 54 -50 21 31 -14 113 -77 183 -39 44 -56 82 -48 108 3 9 33 52
65 95 71 91 87 133 71 190 -11 42 -64 124 -80 124 -5 0 -12 -7 -15 -15z"/>
<path d="M7206 8044 c-4 -16 0 -46 10 -75 15 -42 16 -57 6 -112 -15 -82 -15
-97 1 -97 22 0 49 71 54 145 4 60 1 77 -19 115 -28 53 -43 60 -52 24z"/>
<path d="M2754 4832 c-6 -4 -22 -32 -36 -62 -45 -96 -41 -95 -131 -59 -85 33
-234 59 -282 49 -20 -4 -31 -13 -33 -26 -3 -19 7 -23 90 -39 98 -19 250 -66
273 -85 30 -25 59 -7 92 55 51 95 67 193 27 167z"/>
<path d="M3731 4754 c-11 -15 -19 -30 -16 -34 2 -4 28 -10 56 -14 67 -9 155
-42 203 -77 44 -32 66 -29 66 10 0 47 -74 97 -187 126 -79 21 -98 19 -122 -11z"/>
<path d="M2770 3110 c-129 -17 -229 -66 -243 -120 -7 -26 16 -26 69 -1 151 71
425 52 614 -44 25 -13 79 -49 120 -79 104 -79 125 -47 35 53 -117 129 -393
218 -595 191z"/>
<path d="M3847 3038 c-14 -22 -12 -26 23 -68 20 -25 51 -67 69 -93 18 -26 38
-46 44 -44 22 7 19 57 -6 100 -29 48 -95 127 -107 127 -4 0 -14 -10 -23 -22z"/>
<path d="M2347 2978 c-32 -92 -39 -125 -32 -149 8 -24 31 -25 43 -1 9 16 32
164 32 204 0 39 -19 15 -43 -54z"/>
<path d="M3545 2988 c27 -85 54 -200 54 -236 1 -30 6 -45 17 -49 27 -10 35 18
31 102 -5 85 -24 145 -59 182 -29 31 -53 31 -43 1z"/>
<path d="M4756 4584 c-3 -9 -6 -23 -6 -32 0 -27 74 -192 86 -192 6 0 16 10 21
23 9 19 4 39 -23 106 -43 108 -64 133 -78 95z"/>
<path d="M4787 3640 c-15 -45 -13 -70 14 -173 31 -118 59 -197 71 -197 12 0
21 68 14 105 -8 42 -72 240 -86 264 -7 14 -9 14 -13 1z"/>
<path d="M7145 4288 c-33 -10 -121 -34 -195 -54 -74 -19 -141 -40 -148 -47
-18 -14 -14 -379 4 -397 10 -10 73 3 227 46 16 5 17 -7 18 -143 2 -178 6 -207
35 -211 35 -5 411 115 435 139 13 13 15 41 12 180 -4 250 -5 252 -75 226 -54
-20 -185 -50 -199 -45 -8 3 -11 47 -10 134 2 130 -6 177 -31 186 -7 3 -40 -4
-73 -14z m28 -202 c-1 -71 -4 -130 -5 -131 -10 -11 -294 -82 -301 -76 -4 4 -6
66 -5 137 l3 129 140 36 c77 21 147 36 155 35 13 -1 15 -22 13 -130z m287
-280 l0 -143 -142 -46 c-79 -25 -155 -49 -170 -52 l-27 -7 -3 148 -3 147 32
13 c33 14 279 82 301 83 9 1 12 -34 12 -143z"/>
<path d="M2253 4022 c-12 -9 -31 -37 -42 -62 -44 -101 -35 -222 21 -286 26
-30 36 -34 78 -34 78 0 124 48 150 157 16 72 -7 152 -60 205 -32 33 -44 38
-81 38 -26 0 -53 -7 -66 -18z"/>
<path d="M3585 3935 c-44 -46 -65 -112 -65 -202 0 -126 45 -189 128 -180 53 6
86 35 118 102 43 90 27 225 -33 287 -21 22 -36 28 -71 28 -38 0 -50 -5 -77
-35z"/>
<path d="M5976 3675 c-5 -14 135 -298 177 -358 20 -29 40 -31 45 -5 3 16 -68
159 -151 306 -40 71 -59 86 -71 57z"/>
</g>
</svg>
