<?xml version="1.0" encoding="UTF-8" standalone="yes"?>
<svg version="1.0" xmlns="http://www.w3.org/2000/svg" width="1024.000000pt" height="1024.000000pt" viewBox="0 0 1024.000000 1024.000000" preserveAspectRatio="xMidYMid meet">
  <metadata>
Created by potrace 1.16, written by Peter Selinger 2001-2019
</metadata>
  <g transform="translate(0.000000,1024.000000) scale(0.100000,-0.100000)" fill="#000000" stroke="none">
    <path d="M4840 9758 c-36 -5 -236 -34 -445 -64 -209 -30 -438 -63 -510 -73&#xA;-71 -11 -193 -29 -271 -40 -260 -38 -278 -45 -302 -117 -22 -66 -33 -423 -35&#xA;-1189 l-2 -734 25 -25 c25 -24 29 -25 317 -84 l83 -17 0 -193 c0 -187 1 -194&#xA;23 -215 22 -23 29 -25 305 -75 l94 -17 -230 -184 -230 -184 -144 -54 c-155&#xA;-58 -499 -181 -588 -209 -88 -28 -488 -169 -565 -199 -38 -15 -81 -39 -95 -52&#xA;l-25 -24 3 -177 c3 -138 7 -182 19 -201 9 -13 50 -39 94 -60 l79 -35 0 -66 c0&#xA;-91 28 -290 44 -315 17 -26 199 -94 274 -101 56 -6 58 -5 152 55 52 34 101 69&#xA;108 78 6 9 12 39 12 66 0 38 3 48 14 44 40 -15 89 -18 116 -7 33 14 63 69 121&#xA;223 20 55 41 94 55 103 12 8 134 66 270 128 424 193 385 168 734 465 74 63&#xA;154 133 178 155 40 39 42 39 42 16 1 -57 21 -213 30 -230 7 -12 30 -22 67 -30&#xA;32 -6 128 -26 213 -45 85 -18 174 -37 197 -40 40 -6 41 -8 45 -48 3 -23 4 -44&#xA;2 -45 -1 -2 -25 1 -53 7 -50 11 -55 9 -271 -68 -122 -43 -230 -87 -241 -96&#xA;-16 -15 -19 -32 -19 -109 l0 -92 -72 -13 c-85 -15 -413 -104 -460 -124 -58&#xA;-25 -63 -36 -142 -310 -9 -33 -13 -37 -36 -32 -70 14 -453 75 -476 75 -14 0&#xA;-83 -18 -152 -39 -70 -22 -239 -70 -377 -106 -451 -121 -890 -245 -963 -271&#xA;-29 -11 -47 -25 -54 -43 -6 -16 -13 -178 -17 -411 l-6 -384 -75 -59 c-41 -32&#xA;-208 -159 -370 -283 -672 -512 -630 -476 -630 -527 0 -38 51 -131 141 -258 72&#xA;-102 114 -143 132 -132 12 7 2 -6 -99 -128 -72 -89 -140 -186 -148 -214 -3&#xA;-11 2 -34 13 -51 15 -25 140 -127 239 -194 22 -15 21 -16 -83 -164 -67 -95&#xA;-105 -157 -103 -170 6 -42 192 -164 444 -292 137 -70 236 -103 268 -91 9 4 40&#xA;44 69 89 134 207 293 464 438 708 87 146 162 270 166 277 6 9 75 -7 268 -63&#xA;411 -119 1187 -311 1296 -321 50 -5 65 -1 140 34 46 22 165 85 264 140 299&#xA;167 517 282 778 412 221 109 251 121 275 112 15 -5 65 -26 112 -45 115 -48&#xA;143 -47 218 9 32 24 65 51 72 60 18 22 35 19 147 -27 l102 -42 61 27 c43 18&#xA;62 22 65 14 7 -19 33 -408 65 -967 68 -1204 71 -1231 124 -1244 57 -14 234&#xA;-28 371 -30 130 -1 154 1 177 17 15 10 84 49 155 86 166 88 170 93 149 228&#xA;-37 244 -233 1617 -251 1763 -2 19 -19 125 -36 234 -31 193 -31 200 -13 213&#xA;10 7 25 12 33 11 8 -2 41 -74 78 -168 325 -840 452 -1176 668 -1778 81 -224&#xA;114 -289 149 -298 36 -9 418 71 485 102 53 24 281 244 281 271 0 13 -16 65&#xA;-36 116 -36 92 -75 175 -341 737 -80 168 -175 370 -210 450 -36 80 -76 170&#xA;-90 200 -14 30 -72 161 -130 290 -58 129 -134 300 -170 378 -35 79 -63 145&#xA;-61 147 2 1 22 12 45 24 l42 21 144 -167 c135 -159 364 -437 716 -868 467&#xA;-573 716 -855 754 -855 30 0 109 48 193 117 39 32 127 103 195 159 139 113&#xA;219 194 219 221 0 10 -9 32 -19 48 -21 33 -259 309 -576 670 -115 131 -280&#xA;318 -365 415 -268 305 -362 411 -482 544 -65 72 -118 133 -118 136 0 3 30 19&#xA;68 34 125 54 478 234 492 252 19 22 26 234 30 1014 4 739 4 743 -9 769 -15 28&#xA;-55 47 -116 55 -27 4 -135 23 -238 42 -199 36 -483 86 -912 160 -494 84 -503&#xA;85 -650 55 -49 -11 -93 -16 -96 -12 -3 3 -11 24 -17 46 -5 22 -26 98 -46 170&#xA;l-36 129 48 51 c27 27 52 58 56 69 9 27 -82 380 -105 405 -25 26 -67 37 -219&#xA;54 l-125 13 60 17 c183 53 578 183 658 217 120 51 147 80 148 158 1 31 3 68 4&#xA;82 8 67 26 1736 20 1777 -4 30 -16 55 -34 73 -25 25 -35 28 -171 38 -166 14&#xA;-379 27 -660 42 -237 12 -338 19 -410 25 -85 8 -309 25 -470 36 -80 5 -185 14&#xA;-235 19 -109 12 -227 11 -315 -2z m354 -103 c343 -33 987 -80 1329 -97 147 -7&#xA;231 -15 216 -20 -32 -11 -550 -117 -889 -182 l-275 -53 -260 23 c-302 27 -637&#xA;58 -850 79 -363 36 -578 55 -687 61 -65 4 -118 10 -118 14 0 4 24 10 53 13 28&#xA;3 203 28 387 56 184 27 425 61 535 75 110 15 223 31 250 35 77 13 144 12 309&#xA;-4z m1852 -302 c-3 -87 -8 -410 -12 -718 -4 -308 -8 -573 -9 -590 -2 -16 -3&#xA;-114 -4 -217 l-1 -188 -37 -18 c-73 -37 -950 -316 -962 -306 -2 2 -6 58 -10&#xA;126 -6 117 -7 123 -28 126 -38 6 -46 -27 -38 -159 4 -66 5 -119 2 -119 -3 0&#xA;-71 -18 -151 -40 -80 -22 -147 -40 -149 -40 -2 0 -4 424 -5 943 -1 518 -5 970&#xA;-8 1004 l-6 62 38 10 c22 5 253 53 514 106 261 52 558 113 660 134 102 22 191&#xA;40 198 40 11 1 13 -28 8 -156z m-3403 47 c116 -11 253 -24 302 -30 103 -11&#xA;903 -87 1319 -125 154 -14 281 -27 284 -29 4 -5 3 -1978 -1 -1983 -4 -3 -362&#xA;70 -445 91 -76 20 -108 20 -116 0 -3 -9 -6 -115 -6 -235 0 -205 -1 -220 -17&#xA;-215 -10 3 -49 10 -88 16 -38 5 -85 12 -102 15 l-33 6 0 128 c0 138 -7 160&#xA;-50 146 -19 -6 -20 -14 -20 -134 l0 -127 -132 21 -133 21 -3 124 c-3 143 -16&#xA;174 -56 134 -13 -12 -16 -39 -16 -130 0 -63 -3 -114 -7 -114 -22 0 -229 43&#xA;-236 49 -4 5 -9 60 -9 124 -1 99 -4 119 -19 133 -15 14 -21 14 -34 4 -12 -10&#xA;-15 -37 -15 -132 l0 -120 -27 5 c-16 3 -62 11 -104 17 l-77 12 -6 37 c-3 20&#xA;-3 109 0 198 5 149 3 164 -14 181 -13 13 -67 28 -188 50 -93 18 -181 35 -196&#xA;38 -27 5 -28 7 -28 77 -2 848 2 1265 16 1615 6 140 8 152 25 152 11 0 115 -9&#xA;232 -20z m1558 -2200 c12 0 20 -172 8 -187 -7 -7 -43 -36 -80 -63 l-69 -50 0&#xA;169 0 170 67 -20 c38 -10 71 -19 74 -19z m929 0 c36 -5 115 -14 177 -20 61 -6&#xA;123 -14 138 -18 l26 -7 -43 -35 c-24 -19 -86 -76 -138 -126 l-95 -92 -85 14&#xA;c-47 8 -130 21 -185 29 -169 25 -165 10 -29 144 130 129 126 127 234 111z&#xA;m-667 -108 c-87 -79 -96 -84 -137 -76 l-36 6 0 82 0 82 115 -21 116 -20 -58&#xA;-53z m326 0 c-46 -43 -103 -96 -126 -116 l-42 -37 -86 17 -86 17 28 29 c52 54&#xA;133 111 164 114 37 5 209 51 217 59 3 3 7 3 10 1 2 -3 -34 -40 -79 -84z m761&#xA;-99 c12 -60 27 -119 32 -132 8 -22 -2 -35 -112 -140 -103 -99 -121 -113 -126&#xA;-96 -3 11 -24 67 -47 124 l-41 104 127 124 c70 67 131 123 136 123 4 0 18 -48&#xA;31 -107z m-1185 -63 c22 -20 99 -42 212 -60 l71 -11 35 -57 c56 -92 69 -122&#xA;55 -122 -7 0 -86 16 -176 36 -89 20 -169 33 -179 30 -14 -6 -15 -21 -10 -134&#xA;4 -70 18 -237 32 -371 14 -135 25 -252 23 -261 -3 -15 -13 -14 -118 3 -63 10&#xA;-116 19 -116 20 -1 1 -9 74 -18 162 -9 88 -28 267 -42 398 -14 131 -24 240&#xA;-22 241 55 37 111 83 141 114 42 43 73 46 112 12z m-912 -70 c55 -11 101 -21&#xA;103 -23 4 -4 -534 -452 -571 -476 -20 -12 -32 -8 -138 49 -64 34 -117 65 -117&#xA;70 0 4 6 10 13 13 14 5 361 283 446 357 l53 47 56 -9 c31 -5 101 -18 155 -28z&#xA;m1530 -3 c108 -19 199 -36 201 -38 12 -15 93 -235 87 -237 -13 -5 -414 57&#xA;-421 65 -4 5 -15 31 -25 58 -20 59 -82 176 -99 188 -13 10 -9 9 257 -36z&#xA;m-1163 -57 c69 -12 146 -20 173 -17 l47 4 0 -51 c0 -28 3 -68 6 -88 6 -32 4&#xA;-36 -12 -32 -11 2 -93 20 -184 39 -91 20 -174 40 -186 44 -15 7 -23 21 -27 52&#xA;-7 54 7 83 36 75 12 -2 78 -15 147 -26z m-260 -107 c0 -44 23 -77 59 -89 l33&#xA;-11 -124 -104 c-68 -57 -206 -175 -307 -262 -209 -180 -191 -177 -212 -36&#xA;l-13 82 34 26 c30 24 274 223 444 364 39 31 74 57 78 57 4 0 8 -12 8 -27z&#xA;m1072 -63 c77 -16 147 -35 156 -43 10 -9 29 -19 44 -22 28 -7 32 -17 40 -95 4&#xA;-30 2 -30 -182 6 -199 39 -240 53 -240 79 0 12 -3 44 -7 70 l-6 48 28 -7 c15&#xA;-4 90 -20 167 -36z m916 -117 c17 -60 70 -261 116 -447 l85 -340 -21 -35 c-89&#xA;-147 -382 -530 -562 -735 l-60 -69 -18 98 -18 98 78 85 c129 142 361 413 423&#xA;494 45 58 59 85 59 110 0 18 -40 204 -89 413 l-88 380 25 28 c14 15 29 27 33&#xA;27 3 0 20 -48 37 -107z m-1625 41 c96 -19 114 -27 79 -38 -9 -3 -42 -22 -72&#xA;-42 l-55 -36 -79 17 c-128 27 -126 24 -54 78 35 26 68 45 73 43 6 -2 54 -12&#xA;108 -22z m1106 -58 c19 -8 28 -25 38 -70 7 -33 12 -60 11 -61 -69 -44 -215&#xA;-125 -226 -125 -21 0 -315 61 -326 67 -5 3 17 30 49 60 l58 53 115 -21 c161&#xA;-29 192 -17 192 73 l0 50 33 -7 c17 -4 43 -12 56 -19z m273 -3 c38 -4 63 -2&#xA;72 6 11 10 15 8 20 -6 7 -26 50 -209 107 -453 27 -118 52 -222 54 -231 4 -12&#xA;-23 -6 -126 28 -73 23 -133 44 -135 46 -2 1 -37 135 -77 297 -41 162 -78 304&#xA;-83 314 -7 18 -4 19 52 12 32 -4 85 -9 116 -13z m-1242 -48 l0 -35 -42 6 c-24&#xA;4 -44 8 -45 9 -4 2 70 53 80 54 4 1 7 -15 7 -34z m482 -4 c5 -4 -10 -24 -31&#xA;-45 l-39 -38 -3 52 -4 51 35 -6 c19 -4 38 -10 42 -14z m-1781 -72 c65 -33 119&#xA;-64 119 -69 0 -4 -44 -27 -97 -51 -125 -54 -510 -217 -544 -230 -23 -9 -50 0&#xA;-185 62 -88 39 -163 74 -168 77 -12 7 -12 7 294 112 140 49 296 104 345 123&#xA;50 19 96 35 103 36 8 1 67 -26 133 -60z m1114 5 c215 -42 201 -36 204 -91 1&#xA;-27 5 -74 10 -106 4 -31 6 -59 4 -61 -3 -2 -19 0 -36 5 -18 5 -113 27 -212 50&#xA;-99 22 -183 43 -186 47 -4 4 -9 52 -13 108 l-6 101 53 -14 c28 -7 111 -25 182&#xA;-39z m1235 -126 c6 -24 17 -64 24 -90 l13 -46 -102 -69 -103 -70 -11 104 c-7&#xA;57 -9 108 -6 113 7 11 155 100 167 100 4 0 12 -19 18 -42z m1175 -23 c182 -31&#xA;400 -69 485 -85 299 -55 625 -112 690 -119 48 -6 60 -10 45 -16 -11 -4 -92&#xA;-38 -180 -75 -151 -63 -1158 -463 -1237 -491 -34 -11 -53 -9 -206 26 l-170 38&#xA;45 68 c86 134 85 128 46 297 -18 81 -47 197 -62 257 -16 61 -28 111 -27 112 5&#xA;5 184 40 211 42 17 0 179 -24 360 -54z m-1687 1 c53 -13 131 -31 173 -40 88&#xA;-19 82 -10 95 -158 l7 -77 -49 15 c-105 30 -279 61 -296 53 -23 -12 -25 -7&#xA;-32 91 -4 47 -9 97 -12 113 -7 33 -7 33 114 3z m-1653 -78 c9 -51 19 -103 22&#xA;-115 4 -20 -7 -28 -114 -79 -65 -31 -202 -93 -305 -139 -102 -46 -200 -91&#xA;-217 -99 l-30 -16 -6 32 c-11 66 -25 174 -25 199 0 24 9 30 98 67 53 23 201&#xA;86 327 141 127 55 231 100 231 100 1 1 9 -41 19 -91z m-974 -110 c103 -47 179&#xA;-87 179 -95 0 -18 -127 -253 -149 -276 -10 -10 -24 -15 -34 -11 -15 5 -15 10&#xA;5 47 11 23 36 68 55 99 20 32 33 64 30 72 -7 18 -181 116 -207 116 -11 0 -66&#xA;-20 -122 -45 l-103 -46 -113 47 c-62 26 -111 49 -109 51 9 8 352 122 371 122&#xA;10 1 99 -36 197 -81z m3225 -138 c4 -31 0 -41 -44 -90 -27 -30 -61 -68 -75&#xA;-85 l-27 -30 3 125 2 124 55 39 55 38 13 -43 c7 -24 15 -59 18 -78z m2429&#xA;-412 c-3 -271 -8 -542 -10 -603 -2 -60 -5 -214 -5 -342 l0 -232 -127 -64&#xA;c-149 -76 -383 -184 -416 -192 -19 -5 -38 13 -128 117 -58 68 -149 178 -202&#xA;245 -70 88 -105 123 -125 127 -31 7 -67 1 -272 -47 -80 -19 -166 -37 -192 -41&#xA;l-48 -7 -1 413 c-1 227 -2 433 -3 457 -1 30 4 45 14 49 13 4 190 74 730 286&#xA;237 93 644 259 720 294 36 17 66 31 68 31 2 1 0 -221 -3 -491z m-6158 400 c59&#xA;-22 109 -42 111 -44 3 -2 -96 -204 -104 -213 -2 -3 -31 8 -63 24 -48 23 -60&#xA;33 -65 58 -9 47 -7 217 3 217 5 0 58 -19 118 -42z m3196 22 l58 -12 -7 -196&#xA;c-4 -108 -10 -202 -15 -208 -6 -7 -47 -1 -134 21 -68 17 -128 34 -131 38 -3 3&#xA;-7 72 -8 152 l-1 147 51 19 c28 11 60 29 70 40 11 12 26 18 39 15 11 -2 46&#xA;-10 78 -16z m-2743 -15 l49 -25 -56 -87 c-76 -122 -175 -327 -180 -377 -5 -38&#xA;21 -239 33 -258 10 -15 -17 -8 -111 29 l-93 36 -11 91 c-7 50 -16 123 -20 161&#xA;l-8 70 70 147 71 148 90 44 c50 25 97 45 104 45 7 1 35 -10 62 -24z m2926 -30&#xA;c50 -13 59 -13 86 1 16 9 31 14 33 12 3 -3 8 -201 6 -225 -1 -12 -159 -103&#xA;-180 -103 -8 0 -11 46 -10 165 0 91 2 165 4 165 2 0 29 -7 61 -15z m-663 -30&#xA;c62 -14 123 -28 137 -31 20 -4 1 -15 -95 -54 -66 -26 -142 -57 -168 -69 -47&#xA;-22 -49 -22 -100 -5 -29 10 -99 29 -156 44 l-105 26 160 56 c87 31 172 57 187&#xA;57 16 1 79 -10 140 -24z m-1978 -114 l16 -94 -34 -86 c-19 -47 -41 -104 -50&#xA;-126 -13 -35 -19 -40 -44 -37 -53 5 -53 5 -53 110 l0 99 44 67 c25 37 57 92&#xA;73 122 15 29 29 50 30 46 1 -4 9 -49 18 -101z m3196 48 c68 -23 126 -43 128&#xA;-44 2 -2 -19 -30 -47 -62 -27 -32 -97 -112 -154 -179 -146 -171 -288 -327&#xA;-313 -343 -19 -12 -32 -8 -133 43 -78 39 -110 60 -105 69 12 19 493 556 499&#xA;557 1 0 57 -18 125 -41z m-1061 -86 c0 -24 -17 -39 -126 -113 -69 -47 -132&#xA;-89 -140 -93 -11 -7 -14 4 -14 56 l0 64 48 21 c94 43 207 90 220 91 7 1 12&#xA;-11 12 -26z m-542 -39 c92 -25 171 -49 175 -54 5 -4 11 -54 14 -110 4 -72 11&#xA;-107 22 -120 15 -17 158 -54 474 -122 123 -26 126 -12 -20 -117 l-81 -59 -194&#xA;43 c-106 24 -211 49 -233 57 l-40 13 -5 142 c-4 108 -9 146 -20 157 -8 9 -65&#xA;29 -126 45 -154 40 -150 37 -146 110 2 34 6 61 8 61 3 0 80 -21 172 -46z&#xA;m-1864 -309 l8 -80 -55 -37 -54 -36 -13 103 -12 104 54 113 53 112 6 -99 c3&#xA;-55 9 -136 13 -180z m2416 193 c0 -25 21 -33 166 -69 138 -34 144 -36 128 -47&#xA;-6 -4 -31 -32 -56 -63 l-45 -56 -94 22 c-212 48 -339 80 -339 86 0 3 44 35 99&#xA;72 54 37 104 74 111 82 11 13 15 13 21 3 5 -7 9 -21 9 -30z m-697 -69 c48 -13&#xA;87 -26 87 -29 0 -3 -28 -12 -63 -21 -34 -9 -128 -35 -209 -59 l-146 -43 -114&#xA;36 c-62 19 -106 38 -98 40 8 3 53 16 100 28 347 89 306 84 443 48z m1187 15&#xA;c0 -12 -144 -176 -167 -191 -46 -30 -34 -3 41 96 61 80 82 101 101 101 14 0&#xA;25 -3 25 -6z m1030 -89 l145 -32 3 -456 c1 -251 1 -457 0 -458 -2 0 -56 -8&#xA;-120 -18 l-118 -18 0 317 c0 306 -1 318 -21 344 -21 27 -72 45 -185 66 l-61&#xA;12 5 51 c3 34 13 62 28 82 13 17 45 58 71 91 55 71 27 69 253 19z m-2054 -232&#xA;c-10 -11 -429 -151 -440 -148 -6 2 -23 6 -37 9 l-27 6 20 107 c10 59 21 109&#xA;23 111 2 3 78 26 167 53 90 26 192 58 228 71 l65 23 3 -114 c1 -62 0 -116 -2&#xA;-118z m-563 98 c15 -6 27 -12 27 -14 0 -7 -41 -202 -43 -203 -2 -2 -251 43&#xA;-284 51 -21 5 -21 6 20 128 l40 123 106 -37 c58 -20 118 -42 134 -48z m1573&#xA;-122 l114 -61 -50 -45 c-27 -25 -89 -78 -137 -118 l-87 -74 -95 51 c-128 68&#xA;-151 81 -151 89 0 3 24 22 53 42 28 20 93 67 142 106 50 39 91 70 93 71 2 0&#xA;55 -27 118 -61z m602 -91 l-7 -93 -68 -65 c-58 -56 -154 -130 -168 -130 -3 0&#xA;-11 13 -20 29 -15 30 -15 30 40 88 31 32 92 104 137 161 45 56 84 102 88 102&#xA;3 0 2 -42 -2 -92z m-2996 37 c35 -8 160 -30 278 -50 118 -20 343 -60 500 -90&#xA;157 -30 350 -66 430 -80 80 -15 217 -44 304 -66 88 -21 162 -39 165 -40 3 0&#xA;-91 -33 -209 -73 -118 -40 -400 -137 -626 -214 -226 -78 -419 -142 -430 -142&#xA;-20 0 -243 43 -693 135 -323 66 -451 94 -822 180 -152 36 -286 65 -299 65 -15&#xA;0 -20 4 -15 9 10 8 400 118 915 257 129 34 278 76 330 93 116 36 97 34 172 16z&#xA;m1625 -41 c98 -25 194 -50 213 -55 l36 -9 -20 -100 -19 -101 -21 25 c-28 33&#xA;-133 63 -447 126 -136 28 -251 50 -255 50 -11 1 307 108 323 109 6 1 91 -20&#xA;190 -45z m1523 10 c27 -4 50 -10 50 -13 0 -4 -29 -16 -65 -28 l-65 -21 0 40&#xA;c0 31 3 39 15 34 8 -3 37 -8 65 -12z m-555 -100 l14 -79 -102 -96 c-56 -53&#xA;-138 -142 -182 -198 -44 -56 -81 -96 -83 -89 -1 7 6 74 17 148 l19 134 58 51&#xA;c32 27 99 87 149 132 49 44 91 80 93 78 1 -1 9 -38 17 -81z m675 -253 l0 -268&#xA;-88 -41 c-48 -22 -112 -50 -142 -61 -65 -25 -71 -29 -93 -60 -12 -18 -50 -37&#xA;-132 -66 l-115 -42 5 36 c3 20 17 128 31 241 22 184 27 207 47 220 62 43 171&#xA;136 215 185 46 50 58 57 153 89 57 19 107 35 112 35 4 1 7 -120 7 -268z&#xA;m-1137 107 c65 -38 67 -41 62 -71 -2 -18 -14 -99 -26 -182 -12 -82 -22 -151&#xA;-23 -152 -8 -9 -247 168 -254 188 -4 9 20 145 44 251 l15 67 57 -31 c31 -17&#xA;88 -49 125 -70z m548 -173 c-7 -49 -23 -160 -36 -245 -36 -237 -95 -673 -95&#xA;-706 0 -23 -14 -43 -60 -89 -43 -42 -60 -54 -60 -41 0 10 11 86 25 169 14 84&#xA;43 269 65 412 22 143 44 287 50 320 5 33 17 110 26 170 14 94 20 113 42 133&#xA;l25 24 15 -28 c13 -25 13 -42 3 -119z m-922 -586 l1 -495 -27 -25 c-16 -14&#xA;-66 -55 -113 -91 -129 -100 -120 -81 -143 -298 -10 -105 -16 -202 -13 -216 5&#xA;-20 24 -33 86 -61 77 -34 79 -37 59 -51 -12 -8 -177 -94 -368 -192 -190 -97&#xA;-449 -232 -575 -299 -126 -67 -229 -120 -230 -119 -2 2 0 173 2 381 l4 378 54&#xA;34 c30 19 94 55 143 79 49 25 96 52 105 61 14 14 16 52 16 305 0 282 -5 332&#xA;-32 342 -7 3 -69 -16 -137 -43 -69 -27 -126 -49 -128 -49 -2 0 -3 128 -3 284&#xA;l0 284 43 16 c55 20 381 134 567 197 80 27 264 91 410 143 l265 94 7 -82 c3&#xA;-44 6 -304 7 -577z m-3086 570 c521 -126 841 -195 1347 -293 157 -30 303 -59&#xA;325 -64 l40 -8 3 -292 2 -292 -57 0 c-55 0 -198 22 -366 56 -70 14 -81 14&#xA;-101 0 -30 -19 -35 -45 -42 -257 -8 -256 16 -357 100 -409 38 -23 176 -59 331&#xA;-85 55 -10 105 -19 112 -21 12 -3 11 -198 -3 -613 l-6 -193 -46 6 c-171 23&#xA;-1077 255 -1427 366 -33 10 -134 42 -225 70 -91 28 -175 56 -187 60 l-23 9 0&#xA;364 0 364 148 -44 c227 -69 298 -63 344 28 16 30 18 66 18 291 l0 257 -27 14&#xA;c-16 8 -84 29 -153 46 -69 18 -171 46 -227 63 l-103 31 -2 46 c-1 25 -1 75 -1&#xA;111 1 311 4 440 8 440 4 0 101 -23 218 -51z m3827 -165 c-16 -115 -45 -306&#xA;-65 -424 -19 -118 -44 -276 -56 -350 -12 -74 -22 -136 -23 -137 -1 -1 -40 13&#xA;-86 31 -47 18 -118 45 -158 61 -41 15 -76 34 -79 42 -3 8 4 94 16 191 29 245&#xA;51 439 51 452 0 6 14 5 36 -5 75 -31 88 -22 235 170 91 119 150 188 155 182 3&#xA;-2 -9 -98 -26 -213z m-482 -94 c2 -5 -8 -102 -22 -217 -14 -114 -27 -221 -28&#xA;-237 -3 -24 -12 -32 -66 -57 l-62 -28 0 339 1 338 87 -65 c48 -35 88 -68 90&#xA;-73z m2238 -12 c130 -164 121 -145 88 -180 -26 -26 -119 -101 -150 -121 -7 -4&#xA;-41 28 -85 81 -40 48 -95 114 -123 146 -28 32 -46 61 -40 63 6 2 40 25 75 50&#xA;74 54 108 73 130 73 10 0 57 -50 105 -112z m-360 48 c-47 -27 -73 -35 -135&#xA;-40 -42 -4 -116 -11 -166 -16 -205 -21 -318 -31 -322 -26 -7 7 79 22 318 56&#xA;119 18 241 38 270 45 89 21 98 17 35 -19z m-97 -153 c-11 -27 -35 -79 -52&#xA;-117 l-32 -68 -34 47 c-18 25 -44 51 -58 56 -13 5 -161 9 -329 9 l-305 0 16&#xA;29 c14 27 20 30 87 35 40 3 174 13 298 22 124 9 259 20 300 24 41 4 87 8 102&#xA;9 l27 1 -20 -47z m323 -247 c4 -8 -25 -54 -73 -114 -44 -56 -82 -102 -83 -102&#xA;-2 0 -47 47 -99 103 l-96 104 61 141 61 141 111 -131 c61 -72 114 -136 118&#xA;-142z m353 82 c22 -28 103 -119 179 -202 77 -83 214 -236 306 -341 92 -104&#xA;201 -228 243 -275 42 -47 77 -88 77 -91 0 -5 -232 -119 -243 -119 -8 0 -241&#xA;263 -378 425 -70 83 -173 205 -230 273 -57 67 -125 148 -151 179 l-48 57 52&#xA;35 c28 20 72 53 97 74 25 20 48 37 51 37 3 -1 23 -24 45 -52z m-1088 25 l82&#xA;-6 -79 -26 c-79 -27 -80 -27 -197 -14 -135 14 -333 44 -333 49 0 7 439 4 527&#xA;-3z m278 -158 c67 -151 73 -171 48 -178 -84 -24 -253 -60 -258 -56 -7 8 -106&#xA;271 -103 274 11 9 236 84 247 82 7 -1 37 -56 66 -122z m-676 70 c118 -19 218&#xA;-35 223 -35 4 0 -6 -22 -22 -49 -17 -27 -35 -63 -41 -80 l-11 -32 -17 32 c-29&#xA;59 -31 59 -370 155 -51 15 -53 16 -36 34 11 12 26 18 39 15 12 -3 117 -21 235&#xA;-40z m-4400 -64 c57 -17 105 -32 108 -34 2 -3 4 -95 3 -207 0 -111 4 -210 10&#xA;-219 8 -16 62 -37 148 -58 31 -8 32 -9 17 -31 -27 -37 -107 -27 -342 44 l-83&#xA;25 0 260 c0 244 1 261 18 256 9 -3 64 -19 121 -36z m4143 -20 c29 -11 79 -27&#xA;111 -36 32 -9 57 -19 55 -21 -6 -6 -230 -25 -236 -20 -5 6 7 96 13 96 2 0 28&#xA;-9 57 -19z m609 -128 c27 -68 49 -132 49 -142 0 -10 -30 -56 -67 -102 l-67&#xA;-83 -28 59 c-53 116 -62 154 -48 194 24 67 104 223 108 209 3 -7 26 -68 53&#xA;-135z m985 -45 c77 -90 184 -217 239 -283 80 -97 304 -357 397 -461 18 -20 17&#xA;-22 -53 -125 -39 -57 -76 -110 -83 -117 -13 -14 -90 74 -366 417 -68 84 -195&#xA;236 -282 337 -87 101 -158 187 -158 191 0 5 34 49 75 98 41 50 75 93 75 98 0&#xA;21 29 -8 156 -155z m-5976 -147 l0 -219 -52 -38 c-29 -21 -95 -69 -146 -107&#xA;-52 -38 -95 -67 -97 -65 -21 23 -175 262 -175 271 1 6 90 78 199 160 108 81&#xA;213 163 231 182 19 19 35 35 37 35 2 0 3 -99 3 -219z m4699 177 c12 -39 61&#xA;-281 61 -303 0 -12 -14 -15 -72 -15 -40 0 -113 -5 -161 -11 -49 -6 -90 -9 -93&#xA;-7 -6 7 -53 322 -49 327 4 4 240 37 282 40 16 1 24 -7 32 -31z m861 -81 c59&#xA;-71 71 -91 59 -98 -29 -20 -51 -30 -54 -27 -6 6 -95 216 -95 224 0 9 -3 13 90&#xA;-99z m-1964 21 c-4 -29 -8 -53 -9 -54 -1 -1 -21 -13 -44 -28 l-42 -26 -6 34&#xA;c-13 66 -4 87 45 106 25 10 49 18 54 19 5 1 5 -23 2 -51z m738 -140 c10 -73&#xA;19 -141 22 -150 3 -12 -10 -34 -38 -63 l-43 -46 4 178 c3 166 10 213 30 213 4&#xA;0 16 -60 25 -132z m1086 102 c0 -12 166 -397 285 -660 53 -118 107 -240 120&#xA;-271 l22 -56 -126 -32 c-69 -18 -138 -35 -152 -38 -26 -5 -28 0 -124 244 -54&#xA;136 -145 362 -202 502 -57 140 -102 255 -101 256 12 7 265 71 271 68 4 -2 7&#xA;-8 7 -13z m-3083 -260 c-2 -132 -5 -241 -8 -244 -2 -2 -33 -16 -69 -31 -36&#xA;-15 -71 -32 -78 -37 -10 -9 -12 40 -10 247 l3 259 75 27 c41 15 78 25 83 22 4&#xA;-2 6 -112 4 -243z m-657 205 c47 -8 109 -20 138 -26 l52 -10 1 -182 c0 -197 8&#xA;-238 49 -269 14 -10 60 -24 103 -30 76 -12 78 -13 72 -38 -12 -46 -23 -51 -89&#xA;-44 -102 11 -359 73 -386 92 -50 36 -62 81 -65 235 -2 78 -1 175 2 215 6 83&#xA;-2 79 123 57z m2065 -76 c44 -16 116 -44 160 -60 44 -17 81 -32 82 -33 5 -5&#xA;-238 -216 -338 -293 -13 -10 -35 -5 -125 31 -140 55 -254 107 -254 115 1 7&#xA;140 115 269 208 47 35 95 63 106 63 11 0 56 -14 100 -31z m1357 -36 c66 -161&#xA;357 -893 362 -911 5 -16 -2 -38 -28 -80 -43 -70 -92 -129 -101 -121 -3 4 -84&#xA;206 -179 450 -96 244 -183 467 -194 495 l-21 51 30 29 c17 16 46 50 66 77 19&#xA;26 38 47 42 47 5 0 15 -17 23 -37z m-1009 -359 c-102 -109 -381 -370 -387&#xA;-363 -1 2 -8 68 -15 146 l-12 142 43 39 c24 22 59 52 78 68 78 63 249 213 320&#xA;279 l75 70 3 -133 3 -133 -108 -115z m-4533 103 l95 -143 -28 -23 c-16 -13&#xA;-72 -55 -125 -94 -54 -38 -137 -102 -187 -142 -49 -39 -95 -75 -102 -78 -7 -5&#xA;-41 35 -90 105 -77 112 -113 166 -113 172 0 6 440 344 450 345 3 0 48 -64 100&#xA;-142z m5206 125 c6 -4 14 -19 17 -33 9 -34 82 -539 107 -739 11 -85 23 -170&#xA;26 -188 l6 -33 -83 6 c-46 4 -122 10 -169 13 l-85 7 -17 105 c-9 58 -30 204&#xA;-48 325 -17 121 -41 287 -54 368 -16 103 -19 150 -12 153 6 2 70 7 141 12 72&#xA;5 137 10 145 10 8 1 20 -2 26 -6z m-348 -364 c23 -161 53 -366 65 -455 l23&#xA;-163 -85 -97 -86 -96 -7 39 c-4 21 -14 145 -23 274 -13 190 -35 426 -59 620&#xA;-2 19 12 41 56 89 32 35 58 68 58 72 0 5 3 9 8 9 4 0 26 -132 50 -292z m532&#xA;116 c0 -1 -9 -4 -20 -7 -21 -5 -25 2 -35 73 -3 25 -8 59 -11 75 -2 17 11 -8&#xA;31 -54 19 -47 35 -86 35 -87z m-4947 46 l-1 -100 -39 -48 c-21 -26 -67 -82&#xA;-101 -123 l-64 -76 -91 45 c-51 24 -98 49 -105 54 -13 11 33 60 173 183 61 54&#xA;212 165 224 165 3 0 5 -45 4 -100z m3307 19 c36 -17 98 -44 138 -60 41 -16 91&#xA;-38 111 -49 l38 -19 13 -108 c6 -59 16 -127 20 -150 4 -25 4 -43 -2 -43 -16 0&#xA;-168 61 -297 120 l-126 57 1 59 c1 101 16 224 28 224 6 0 40 -14 76 -31z&#xA;m3725 -158 c28 -32 98 -112 156 -177 119 -133 269 -313 269 -323 0 -7 -74 -56&#xA;-176 -116 l-73 -44 -49 57 c-57 66 -266 325 -364 451 l-67 86 122 61 c67 33&#xA;124 61 127 62 3 0 28 -25 55 -57z m-2862 -79 c8 -61 11 -114 8 -118 -15 -15&#xA;-94 -42 -109 -38 -41 14 -142 59 -141 64 0 3 30 30 66 60 36 30 86 79 111 109&#xA;26 29 47 49 49 45 1 -5 9 -60 16 -122z m-4153 -367 c8 -10 30 -24 48 -32 l33&#xA;-14 -74 -107 c-41 -59 -96 -138 -122 -177 -26 -38 -51 -69 -55 -68 -3 1 -42&#xA;23 -86 49 -43 26 -112 62 -151 80 l-73 33 161 213 c88 117 190 247 227 288&#xA;l67 76 5 -162 c4 -123 9 -165 20 -179z m6790 160 c47 -60 142 -178 213 -262&#xA;126 -152 127 -154 113 -182 -16 -30 -146 -194 -151 -189 -1 2 -26 32 -56 68&#xA;-30 36 -113 136 -184 223 -72 88 -152 185 -178 217 l-48 58 83 112 82 112 20&#xA;-24 c12 -14 59 -74 106 -133z m-7171 72 l111 -52 -226 -305 c-124 -168 -229&#xA;-309 -234 -314 -11 -11 -60 17 -167 97 l-82 60 32 45 c73 102 433 521 448 522&#xA;3 0 56 -24 118 -53z m6398 -539 c102 -222 149 -334 142 -339 -7 -4 -39 -12&#xA;-73 -19 -73 -14 -224 -49 -247 -55 -11 -4 -20 6 -31 32 -133 325 -248 617&#xA;-248 629 0 8 8 14 18 14 9 0 71 16 137 35 66 18 127 34 135 34 10 0 65 -109&#xA;167 -331z m-5787 215 c33 -10 60 -21 60 -24 0 -3 -45 -81 -101 -175 -55 -93&#xA;-117 -197 -137 -231 -21 -35 -40 -62 -44 -60 -11 3 -108 120 -108 129 0 4 38&#xA;63 85 130 47 68 104 151 127 186 23 34 46 62 51 62 4 0 35 -8 67 -17z m5388&#xA;-339 c67 -165 124 -312 127 -326 5 -20 -7 -41 -65 -117 -40 -51 -73 -91 -75&#xA;-89 -2 2 -51 131 -110 288 -58 157 -115 307 -126 333 l-20 48 54 72 c30 40 60&#xA;82 68 94 9 16 16 19 20 10 4 -6 61 -147 127 -313z m2007 170 c72 -81 133 -152&#xA;138 -160 5 -9 -25 -38 -98 -96 -59 -46 -112 -84 -119 -86 -23 -5 -322 327&#xA;-301 335 6 2 62 37 125 77 63 41 117 75 120 75 4 1 64 -65 135 -145z m-2722&#xA;-23 c4 -4 17 -65 28 -134 20 -125 88 -621 85 -623 0 -1 -26 2 -56 7 -30 5&#xA;-111 15 -180 22 l-125 12 -7 75 c-10 93 -45 409 -62 553 l-12 109 160 -7 c89&#xA;-4 164 -10 169 -14z m-5286 -81 c65 -33 131 -70 146 -82 l28 -23 -180 -269&#xA;c-99 -147 -182 -270 -184 -273 -3 -2 -79 37 -170 87 l-166 91 68 97 c37 53&#xA;101 142 142 197 41 55 97 130 124 168 27 37 55 67 62 67 7 0 65 -27 130 -60z&#xA;m4929 -313 l38 -349 -40 -34 c-128 -112 -184 -154 -188 -142 -2 7 -11 159 -21&#xA;338 -9 179 -18 336 -20 350 -3 20 13 42 88 117 59 60 94 88 98 80 4 -6 24&#xA;-169 45 -360z m2809 150 c39 -44 82 -94 97 -112 l27 -32 -52 -45 c-63 -54&#xA;-137 -108 -148 -108 -5 0 -65 66 -134 146 l-126 147 26 31 c14 17 51 63 82&#xA;103 l56 71 51 -61 c28 -33 83 -97 121 -140z m-7422 -80 l40 -49 -18 -31 c-28&#xA;-49 -276 -441 -285 -450 -4 -5 -38 7 -76 26 -115 59 -112 50 -52 142 54 81&#xA;241 352 286 413 23 32 24 33 44 15 11 -10 38 -40 61 -66z m6344 -252 c68 -134&#xA;233 -502 233 -522 0 -6 -19 -16 -42 -23 -52 -16 -333 -88 -334 -86 -4 4 -182&#xA;435 -228 552 l-55 139 162 42 c89 22 169 40 177 40 9 -1 46 -62 87 -142z&#xA;m-398 -225 c44 -107 103 -249 131 -315 28 -66 52 -124 53 -129 2 -8 -134 -109&#xA;-184 -136 -18 -10 -17 -12 -159 385 -40 110 -76 207 -80 214 -6 10 13 41 62&#xA;100 39 47 73 92 76 100 4 12 7 11 14 -5 4 -10 43 -107 87 -214z m-1000 -15&#xA;c79 -8 145 -16 147 -17 1 -2 14 -86 29 -188 14 -102 37 -254 51 -338 13 -84&#xA;24 -159 24 -167 0 -15 -65 -14 -310 4 l-85 6 -3 40 c-3 49 -51 526 -61 613&#xA;l-7 62 35 0 c20 0 101 -7 180 -15z m-249 -395 c24 -250 28 -317 18 -323 -61&#xA;-38 -226 -127 -235 -127 -8 0 -13 13 -13 33 0 17 -7 138 -15 267 -8 129 -16&#xA;258 -17 286 l-3 51 110 90 c109 90 110 90 117 64 4 -14 21 -168 38 -341z&#xA;m1780 -14 c0 -2 -24 -22 -52 -44 -46 -35 -72 -45 -192 -75 -76 -20 -134 -32&#xA;-130 -28 81 67 105 79 203 105 57 15 113 31 125 36 22 9 46 12 46 6z m-1520&#xA;-377 l165 -12 -105 -55 -105 -55 -115 7 c-63 3 -141 9 -173 12 l-57 7 67 35&#xA;c37 19 81 44 98 54 36 21 21 21 225 7z"/>
    <path d="M3486 8594 c-19 -18 -19 -20 -6 -44 5 -10 26 -24 45 -30 27 -9 33&#xA;-15 25 -24 -18 -23 -32 -175 -28 -310 3 -112 7 -138 27 -179 13 -26 35 -54 50&#xA;-61 51 -26 431 -81 513 -74 132 11 183 123 176 388 -2 106 0 129 15 150 23 33&#xA;24 142 1 161 -26 22 -49 -1 -52 -55 -3 -39 -6 -46 -24 -46 -72 0 -471 73 -626&#xA;115 -111 30 -97 29 -116 9z m337 -146 l177 -32 0 -177 c0 -154 2 -179 18 -197&#xA;21 -24 72 -42 121 -42 l36 -1 -29 -26 c-27 -23 -35 -25 -90 -20 -137 13 -388&#xA;56 -411 71 -33 22 -38 59 -33 259 4 161 9 197 26 197 4 0 87 -14 185 -32z"/>
    <path d="M4496 8514 c-3 -9 -6 -38 -6 -66 0 -42 5 -54 28 -76 l29 -27 -5 -135&#xA;c-6 -209 28 -331 112 -395 46 -35 70 -41 290 -66 199 -22 234 -20 293 18 67&#xA;44 103 167 109 378 3 122 7 152 20 162 9 6 14 22 12 35 -3 20 -9 23 -53 25&#xA;-102 5 -514 35 -635 46 l-125 12 -3 30 c-5 62 -12 75 -36 75 -13 0 -27 -7 -30&#xA;-16z m416 -200 l97 -7 3 -179 3 -180 26 -23 c19 -15 50 -26 99 -33 40 -6 75&#xA;-14 78 -17 4 -4 -6 -18 -23 -32 -29 -23 -34 -24 -125 -18 -133 8 -308 34 -347&#xA;50 -69 29 -113 196 -99 369 l8 89 92 -7 c50 -3 135 -9 188 -12z"/>
    <path d="M4279 7894 c-9 -11 -23 -32 -32 -49 -22 -45 -77 -222 -77 -249 0 -30&#xA;38 -61 85 -70 46 -9 75 7 75 42 0 52 17 56 29 8 13 -54 42 -77 104 -83 75 -7&#xA;80 8 53 162 -35 199 -38 207 -74 228 -17 10 -58 21 -90 24 -47 4 -60 2 -73&#xA;-13z"/>
    <path d="M7444 5856 c-76 -36 -90 -53 -69 -82 12 -17 17 -16 90 20 80 39 95&#xA;56 75 81 -16 20 -15 20 -96 -19z"/>
    <path d="M7559 5810 c-44 -23 -63 -45 -55 -65 8 -21 33 -19 94 10 44 20 53 29&#xA;50 47 -4 30 -42 34 -89 8z"/>
    <path d="M8316 5512 c-97 -40 -121 -62 -95 -87 13 -14 25 -11 113 25 118 48&#xA;129 55 115 81 -14 26 -31 24 -133 -19z"/>
    <path d="M7600 5235 c-123 -43 -160 -63 -160 -84 0 -11 4 -22 9 -25 12 -8 217&#xA;63 243 84 19 15 20 20 9 34 -17 20 -22 20 -101 -9z"/>
    <path d="M7527 5030 c-82 -36 -127 -66 -127 -86 0 -27 28 -26 97 4 37 16 82&#xA;35 100 42 40 15 55 33 47 54 -9 23 -39 19 -117 -14z"/>
    <path d="M8315 4441 c-114 -54 -137 -74 -113 -97 14 -14 28 -10 134 39 104 47&#xA;119 57 119 78 0 37 -29 33 -140 -20z"/>
    <path d="M3975 4721 c-110 -33 -135 -46 -135 -70 0 -42 22 -42 141 -5 124 39&#xA;161 62 139 88 -17 22 -40 19 -145 -13z"/>
    <path d="M4184 4657 c-133 -48 -167 -75 -131 -106 10 -8 43 1 133 35 127 49&#xA;150 63 141 88 -9 23 -40 19 -143 -17z"/>
    <path d="M4280 4102 c-62 -30 -76 -42 -78 -63 -5 -39 15 -40 97 -9 97 38 123&#xA;56 119 83 -5 36 -52 32 -138 -11z"/>
    <path d="M4845 4076 c-22 -7 -59 -23 -83 -35 -34 -17 -43 -27 -40 -44 5 -33&#xA;37 -32 112 2 69 31 88 54 65 76 -11 10 -22 11 -54 1z"/>
    <path d="M4704 3858 c-48 -33 -65 -61 -46 -80 13 -13 140 51 148 74 15 48 -35&#xA;50 -102 6z"/>
    <path d="M4371 3506 c-7 -9 -14 -64 -17 -143 -5 -105 -3 -132 10 -148 12 -16&#xA;18 -18 33 -9 16 10 18 27 18 160 0 128 -2 149 -16 152 -9 1 -21 -4 -28 -12z"/>
    <path d="M2116 4415 c-14 -14 -16 -34 -14 -124 l3 -106 51 -25 c29 -14 84 -36&#xA;123 -50 94 -32 97 -29 109 115 8 92 7 113 -5 127 -14 16 -146 62 -214 73 -27&#xA;5 -40 2 -53 -10z"/>
    <path d="M3248 4164 c-5 -4 -8 -63 -8 -130 l0 -123 28 -14 c52 -27 222 -62&#xA;240 -51 21 14 31 65 31 171 1 78 0 83 -25 99 -49 33 -247 69 -266 48z"/>
    <path d="M2661 3782 c-7 -13 -11 -91 -11 -205 0 -161 2 -187 18 -206 13 -16&#xA;47 -27 141 -46 218 -44 211 -50 211 195 0 96 -4 181 -9 188 -4 7 -70 29 -147&#xA;49 -192 49 -190 49 -203 25z m194 -93 l95 -23 0 -143 c0 -82 -4 -143 -9 -143&#xA;-5 0 -40 6 -78 14 -37 8 -85 17 -105 20 l-38 7 0 151 c0 146 1 150 20 145 11&#xA;-3 63 -15 115 -28z"/>
    <path d="M2180 3070 c-12 -8 -16 -43 -18 -193 l-4 -184 27 -22 c15 -11 46 -26&#xA;69 -31 22 -6 94 -27 158 -46 105 -32 119 -34 145 -22 36 17 40 40 42 207 1&#xA;119 3 132 17 127 9 -4 71 -20 138 -37 66 -16 151 -39 188 -50 l67 -20 0 -139&#xA;c0 -185 7 -211 61 -232 62 -24 260 -79 305 -84 84 -10 86 -4 83 226 -3 159 -6&#xA;194 -18 200 -14 7 -292 82 -755 202 -156 41 -461 108 -484 108 -3 0 -13 -5&#xA;-21 -10z m185 -100 c50 -12 105 -26 123 -31 l32 -11 0 -139 c0 -100 -3 -139&#xA;-12 -139 -6 0 -72 19 -145 42 l-134 42 2 120 c2 136 5 149 28 142 9 -3 57 -15&#xA;106 -26z m855 -219 c63 -16 127 -32 143 -35 l27 -6 0 -150 0 -150 -27 6 c-72&#xA;17 -259 77 -270 86 -19 15 -18 278 0 278 7 0 64 -13 127 -29z"/>
  </g>
  <title>Stray Spider Jockey</title>
  <desc>Stray Spider Jockey</desc>
</svg>