<?xml version="1.0" standalone="no"?>
<!DOCTYPE svg PUBLIC "-//W3C//DTD SVG 20010904//EN"
 "http://www.w3.org/TR/2001/REC-SVG-20010904/DTD/svg10.dtd">
<svg version="1.0" xmlns="http://www.w3.org/2000/svg"
 width="1024.000000pt" height="1024.000000pt" viewBox="0 0 1024.000000 1024.000000"
 preserveAspectRatio="xMidYMid meet">
<metadata>
Created by potrace 1.16, written by Peter Selinger 2001-2019
</metadata>
<g transform="translate(0.000000,1024.000000) scale(0.100000,-0.100000)"
fill="#000000" stroke="none">
<path d="M4060 9809 c-262 -39 -1119 -257 -1255 -319 -123 -55 -156 -105 -194
-297 -20 -98 -73 -598 -91 -853 -5 -74 -18 -232 -29 -350 -27 -291 -42 -555
-43 -763 0 -231 14 -282 91 -321 51 -27 221 -64 641 -141 228 -42 438 -81 465
-88 l50 -12 -1 -45 c-1 -25 -5 -92 -9 -149 l-7 -103 -37 6 c-190 32 -671 80
-719 71 -41 -8 -65 -57 -60 -122 3 -41 2 -43 -35 -58 -20 -8 -42 -15 -48 -15
-10 0 -372 -152 -567 -238 l-112 -50 -72 145 c-39 80 -77 147 -83 150 -10 3
-8 19 6 66 52 171 80 521 56 690 -9 62 -35 101 -65 95 -14 -3 -59 -55 -87
-102 -8 -13 -24 18 -74 146 -93 236 -116 285 -141 298 -35 18 -67 -1 -81 -50
-7 -22 -16 -40 -21 -40 -5 0 -63 51 -130 113 -201 187 -290 257 -328 257 -15
0 -26 -11 -38 -37 -14 -33 -16 -82 -17 -360 0 -178 -3 -323 -7 -323 -3 0 -30
11 -60 25 -73 34 -108 22 -108 -38 0 -50 45 -125 192 -319 48 -64 88 -119 88
-121 0 -3 -33 -6 -74 -9 -84 -4 -116 -23 -116 -69 0 -75 262 -215 632 -338 93
-31 129 -47 133 -61 3 -11 35 -66 71 -122 35 -57 64 -108 64 -113 0 -6 -63
-41 -140 -77 -188 -89 -353 -184 -412 -237 -99 -89 -125 -174 -114 -385 6
-134 23 -219 50 -261 50 -76 405 -251 996 -493 135 -55 262 -105 282 -111 24
-8 65 -40 115 -90 43 -43 91 -87 106 -99 l28 -21 -20 -123 c-11 -68 -25 -175
-31 -239 -16 -165 -15 -166 139 -254 l123 -69 -7 -33 c-8 -43 -119 -412 -196
-655 -71 -222 -127 -340 -312 -653 -74 -126 -162 -279 -195 -340 l-60 -110
-74 0 c-52 0 -81 -5 -100 -17 -35 -23 -110 -181 -188 -393 -84 -231 -90 -312
-24 -364 l24 -19 -27 -5 c-15 -3 -81 -6 -147 -6 -186 -3 -339 -17 -372 -34
l-29 -15 30 -12 c22 -9 108 -11 333 -6 l303 7 167 -112 c211 -142 332 -202
417 -207 101 -7 519 34 618 59 20 5 52 23 70 38 32 28 33 28 203 33 167 6 229
17 207 39 -16 16 -129 29 -251 29 -103 0 -113 2 -108 18 14 43 46 273 46 324
0 54 -3 61 -38 95 -35 36 -137 100 -295 187 -38 21 -71 44 -73 51 -3 7 38 100
92 206 129 259 309 635 351 736 38 93 142 473 199 733 30 138 43 180 62 199
l23 23 337 -7 c185 -4 340 -9 344 -11 13 -8 121 -157 293 -409 292 -424 280
-404 278 -452 -1 -35 -65 -453 -106 -698 l-12 -70 -65 -8 c-76 -9 -117 -31
-142 -73 -21 -36 -78 -452 -81 -592 -3 -123 23 -157 133 -178 36 -7 10 -10
-125 -15 -93 -4 -183 -12 -199 -18 -28 -11 -28 -13 -12 -29 15 -15 49 -17 329
-18 307 -1 313 -1 404 -28 157 -45 343 -86 419 -93 78 -6 189 5 416 43 152 25
192 36 218 59 11 9 70 14 225 17 241 5 282 14 183 44 -51 15 -91 19 -212 18
l-148 -2 6 47 c50 382 34 456 -112 522 -82 37 -254 93 -367 120 -49 11 -94 24
-98 28 -4 5 -3 53 2 107 6 54 20 194 30 309 47 501 51 617 25 668 -9 17 -70
101 -134 187 -65 85 -144 193 -177 240 -33 47 -96 136 -141 198 -45 63 -82
117 -82 122 0 4 21 13 46 19 63 16 121 47 138 74 21 32 96 414 97 496 2 113
-35 163 -167 229 -110 55 -340 150 -400 166 -37 9 -113 16 -201 17 -79 1 -143
4 -143 7 0 25 44 279 50 285 8 9 29 14 444 108 170 38 311 68 312 66 2 -2 -26
-36 -61 -77 -58 -66 -65 -77 -65 -116 0 -67 18 -74 178 -74 l133 0 29 -63 c30
-66 125 -295 370 -892 83 -203 206 -498 273 -654 67 -157 117 -286 112 -288
-41 -15 -184 -115 -202 -142 -43 -63 -21 -173 51 -258 22 -27 26 -38 20 -71
-4 -28 -1 -49 14 -78 28 -55 118 -137 175 -159 41 -16 53 -16 90 -5 170 51
728 426 1037 697 174 153 440 428 534 553 202 267 386 573 386 643 0 24 -10
40 -48 74 l-48 44 26 76 25 77 51 11 c105 24 163 81 190 185 11 43 15 87 11
134 -4 66 -3 71 29 113 30 40 74 152 74 190 0 11 5 13 18 7 9 -4 65 -24 125
-43 83 -28 106 -39 101 -51 -36 -94 -54 -254 -31 -284 32 -43 110 -13 290 111
l107 74 0 -31 c0 -20 9 -40 25 -56 24 -23 26 -24 60 -10 33 14 89 51 245 161
30 21 106 74 168 118 62 43 120 90 128 102 20 30 15 39 -91 175 -46 58 -129
177 -185 265 -113 176 -162 235 -197 235 -29 0 -65 -49 -93 -127 -13 -35 -25
-63 -27 -63 -3 0 -55 52 -115 115 -117 122 -183 171 -218 160 -38 -12 -42 -37
-34 -216 l7 -169 -50 0 c-27 0 -73 -7 -102 -16 -42 -12 -57 -23 -73 -51 l-21
-35 -65 5 c-35 3 -70 11 -76 18 -9 10 -11 39 -5 109 4 52 8 134 8 182 l1 88
38 19 c49 25 62 55 62 146 0 225 -95 631 -220 945 -164 410 -428 818 -776
1197 -102 111 -125 121 -210 95 -80 -25 -198 -95 -226 -135 -16 -23 -23 -47
-25 -86 l-1 -55 -64 -43 c-90 -61 -116 -110 -86 -166 6 -12 47 -66 90 -119 43
-53 78 -100 78 -105 0 -42 -291 -382 -1045 -1218 -60 -66 -119 -126 -131 -134
-21 -14 -28 -9 -141 85 l-118 99 135 5 c80 3 144 10 157 17 72 42 128 208 140
418 9 154 -13 188 -137 214 -30 6 -58 17 -62 24 -13 20 -9 61 8 85 14 20 24
22 98 22 101 0 140 12 155 48 15 37 48 168 56 225 10 68 18 71 143 61 290 -23
371 0 410 114 35 102 145 1085 157 1402 11 293 12 356 4 567 -9 272 -31 368
-94 409 -57 37 -423 120 -705 159 -102 14 -277 39 -390 55 -557 79 -962 111
-1398 109 -158 -1 -251 -6 -342 -20z m761 -109 c250 -11 594 -41 749 -65 52
-9 202 -29 332 -45 319 -40 842 -136 900 -166 69 -36 76 -80 84 -504 6 -322 4
-364 -20 -635 -34 -370 -83 -785 -132 -1107 -3 -20 -16 -48 -29 -62 -28 -31
-55 -32 -246 -14 -197 18 -246 -4 -269 -120 -37 -195 -39 -201 -68 -204 -31
-3 -250 17 -257 24 -3 3 -1 49 5 102 11 106 7 141 -18 151 -25 9 -32 -6 -43
-101 -6 -49 -17 -104 -25 -122 l-13 -33 -133 7 c-73 4 -142 11 -152 16 -17 9
-18 19 -13 112 7 108 2 146 -18 146 -16 0 -30 -37 -49 -133 -9 -43 -20 -87
-26 -97 -12 -23 -26 -24 -155 -10 -49 5 -112 10 -140 11 -27 1 -56 7 -62 12
-9 6 -13 43 -13 117 0 83 -3 110 -15 120 -28 23 -43 4 -55 -72 -6 -40 -15 -86
-19 -103 l-7 -30 -85 2 c-46 1 -118 10 -159 20 l-75 18 -5 127 c-6 145 -18
173 -86 196 -50 18 -193 9 -323 -18 -122 -26 -191 -26 -222 -1 -23 19 -24 22
-21 163 3 143 -5 190 -26 152 -15 -28 -22 -74 -31 -201 -4 -62 -10 -115 -13
-118 -9 -10 -318 49 -351 66 -31 17 -37 28 -37 75 0 26 7 51 19 65 17 22 29
25 117 29 80 4 99 8 102 21 5 26 -59 50 -137 52 -57 2 -75 -2 -98 -19 -46 -34
-66 -79 -71 -158 -7 -116 24 -154 138 -170 25 -4 76 -12 114 -18 l68 -12 -6
-75 c-3 -42 -9 -126 -12 -188 -4 -61 -10 -116 -13 -122 -5 -8 -87 4 -267 38
-142 27 -326 61 -409 76 -341 60 -382 68 -422 85 -23 10 -47 29 -54 41 -22 43
-1 549 46 1069 9 91 22 242 30 335 8 94 21 229 29 300 8 72 20 180 26 240 20
212 56 366 92 397 11 10 63 31 115 48 131 42 677 183 853 220 132 28 235 52
284 67 16 5 18 1 12 -28 -5 -31 -15 -184 -46 -709 -6 -96 -18 -263 -26 -370
-8 -107 -18 -269 -20 -360 -5 -151 -4 -163 11 -145 31 39 30 27 95 760 19 213
27 308 50 650 14 213 11 203 63 208 92 8 436 6 658 -3z m2746 -2137 c193 -229
252 -308 423 -567 139 -210 323 -602 394 -836 49 -163 126 -552 126 -637 0
-50 -29 -69 -123 -83 -45 -7 -95 -11 -112 -9 -29 4 -30 6 -42 79 -63 373 -116
562 -232 825 -153 344 -368 689 -649 1040 -120 148 -129 164 -113 193 16 30
72 70 128 92 87 34 90 33 200 -97z m-6268 -107 c161 -150 242 -216 268 -216
18 0 28 9 41 41 l17 40 64 -168 c93 -244 118 -295 144 -291 12 2 35 22 52 45
16 23 33 42 38 42 4 1 5 -81 3 -181 -4 -183 -21 -304 -60 -438 -23 -79 -31
-87 -45 -53 -10 24 -8 50 13 154 14 68 28 154 32 192 6 62 5 67 -13 67 -23 0
-33 -27 -59 -165 -9 -49 -20 -96 -23 -102 -6 -12 -129 185 -145 231 -4 11 -1
93 5 183 7 90 9 166 6 170 -15 14 -36 -23 -52 -90 -10 -40 -21 -78 -25 -85 -4
-9 -38 43 -91 143 -88 164 -109 189 -138 160 -15 -15 -9 -31 86 -215 145 -280
146 -257 -5 -199 -127 50 -167 57 -167 29 0 -27 86 -72 321 -170 30 -12 169
-250 146 -250 -9 0 -57 12 -107 26 -120 34 -238 55 -249 44 -20 -20 151 -93
316 -134 71 -17 89 -26 102 -48 22 -36 21 -38 -19 -38 -74 0 -664 237 -688
276 -3 5 34 9 82 9 91 0 121 11 121 44 0 9 -70 108 -155 220 -85 113 -153 206
-152 208 2 1 27 -7 56 -19 90 -38 87 -49 83 302 -2 166 -1 327 3 358 l7 55 46
-45 c26 -24 90 -84 141 -132z m6034 -194 c190 -227 297 -378 439 -617 109
-184 246 -497 296 -681 80 -289 102 -443 102 -706 0 -183 -9 -241 -40 -258
-31 -17 -39 -12 -45 28 -12 70 -45 157 -79 208 -31 46 -34 58 -41 149 -18 281
-88 582 -190 820 -168 394 -398 773 -624 1030 -87 98 -87 98 -48 127 43 33 90
57 100 51 4 -2 63 -70 130 -151z m-3198 -147 c-7 -38 -20 -300 -19 -391 2
-144 27 -195 117 -241 114 -57 221 -79 245 -50 6 7 17 49 24 92 l14 80 39 -1
c68 -1 279 -36 291 -48 9 -8 7 -38 -6 -116 -20 -115 -16 -133 29 -128 24 3 27
9 46 103 11 55 24 106 28 113 9 14 98 15 216 3 107 -10 109 -15 85 -183 -6
-45 -6 -47 21 -54 38 -10 49 8 68 112 9 48 18 88 20 90 2 2 67 0 145 -4 183
-10 183 -10 160 -123 -19 -91 -17 -105 18 -112 32 -6 37 5 59 121 10 51 21 95
26 97 13 8 256 -23 280 -36 21 -11 22 -16 16 -108 -10 -174 -53 -312 -103
-331 -45 -17 -222 -11 -794 30 -161 11 -507 46 -615 61 -88 12 -107 17 -350
94 -110 35 -239 75 -286 89 -92 28 -125 53 -135 102 -3 16 -1 102 5 189 5 88
15 243 21 345 6 102 13 195 16 208 4 22 6 22 164 20 153 -3 159 -4 155 -23z
m3069 -232 c-132 -156 -463 -536 -768 -883 -186 -212 -396 -452 -465 -533
-107 -126 -135 -152 -185 -177 -33 -17 -62 -28 -65 -25 -2 3 18 29 46 58 27
28 115 126 194 217 79 91 315 358 524 594 581 657 624 706 679 778 50 67 51
68 70 49 19 -20 19 -20 -30 -78z m225 -223 c136 -235 275 -542 335 -742 51
-166 108 -503 92 -543 -3 -9 -19 -15 -40 -15 -55 0 -136 -35 -199 -87 -48 -39
-66 -63 -95 -125 -42 -88 -42 -88 -151 -63 -36 9 -173 31 -305 51 -271 39
-412 67 -471 93 -57 25 -422 304 -433 330 -1 4 68 88 155 187 86 98 315 359
507 579 193 220 379 431 415 468 l65 68 18 -23 c9 -13 57 -93 107 -178z
m-4323 -320 c71 -18 253 -79 422 -142 63 -23 63 -23 59 -58 -3 -29 -28 -173
-43 -256 -3 -20 -4 -20 -91 8 -48 15 -113 34 -144 43 l-56 16 -11 90 c-15 126
-48 184 -122 221 -33 17 -81 31 -117 34 -63 7 -70 13 -57 48 8 22 62 21 160
-4z m349 -25 c200 -25 244 -35 271 -62 l26 -26 -64 7 c-35 3 -124 26 -198 51
-74 25 -124 44 -110 41 14 -2 48 -7 75 -11z m-376 -132 c43 -32 65 -89 69
-178 3 -71 1 -84 -20 -114 -15 -23 -40 -41 -73 -54 -93 -38 -599 -264 -830
-372 -130 -61 -243 -108 -260 -108 -16 0 -74 18 -127 41 -102 44 -164 53 -175
26 -3 -8 1 -21 8 -29 21 -20 222 -106 434 -185 392 -147 675 -267 675 -286 0
-7 -111 -229 -119 -237 -5 -5 -66 14 -137 42 -71 27 -244 95 -384 149 -400
156 -455 175 -484 168 -14 -3 -26 -10 -26 -15 0 -4 50 -32 112 -61 100 -47
238 -101 737 -290 84 -33 155 -60 157 -62 3 -4 -74 -220 -82 -227 -11 -11
-297 97 -649 246 -219 92 -567 268 -599 302 -30 31 -30 32 -34 174 l-4 143 63
-3 c68 -4 111 10 117 39 2 13 -12 17 -84 23 l-86 7 6 31 c16 79 114 153 375
286 307 156 1156 540 1239 561 56 14 151 5 181 -17z m782 -33 c207 -21 449
-78 488 -115 11 -11 10 -32 -5 -135 l-19 -122 -85 6 c-277 21 -588 47 -605 51
-20 4 -20 9 -13 103 8 108 23 189 40 209 13 16 63 16 199 3z m-1865 -157 l35
-62 -45 -20 c-25 -12 -49 -21 -55 -21 -12 0 -38 37 -84 123 l-37 68 44 19 c24
10 47 24 51 30 7 12 13 4 91 -137z m2614 -3 c85 -12 163 -23 173 -26 20 -6 20
-17 7 -99 -5 -33 -21 -145 -35 -250 -23 -168 -72 -472 -107 -654 -14 -75 -11
-73 -168 -101 -63 -11 -146 -27 -184 -36 -38 -8 -70 -14 -71 -12 -2 2 19 131
45 288 44 257 120 742 135 863 7 56 -7 54 205 27z m680 -66 c179 -14 327 -28
329 -29 4 -5 -26 -196 -33 -202 -12 -13 -103 -15 -188 -4 -51 6 -146 18 -211
26 -65 8 -156 15 -203 15 -47 0 -94 5 -105 10 -22 13 -25 51 -8 147 l11 63 42
0 c22 0 187 -12 366 -26z m-2054 -119 c-9 -45 -32 -64 -53 -42 -15 15 -14 19
18 54 37 42 44 40 35 -12z m2572 -105 c44 -34 85 -67 92 -74 14 -18 -69 -122
-199 -250 l-90 -89 -34 26 c-23 18 -37 38 -41 61 -9 49 -32 73 -111 114 -63
33 -70 40 -73 70 l-3 32 113 0 c148 0 171 11 216 103 18 37 37 67 42 67 4 0
44 -27 88 -60z m-2443 -80 c72 -23 134 -46 138 -50 4 -4 1 -38 -8 -75 -8 -37
-19 -112 -24 -167 -4 -54 -11 -101 -14 -105 -10 -10 -247 76 -327 119 -114 60
-113 59 -105 148 11 129 26 234 36 246 7 8 32 0 92 -31 45 -23 141 -61 212
-85z m-422 -42 c-11 -94 -12 -160 -3 -243 1 -5 -7 -33 -17 -61 l-19 -50 -47
16 c-26 9 -169 43 -317 76 -148 32 -270 61 -270 64 0 3 40 23 88 45 352 159
588 265 592 265 3 0 0 -51 -7 -112z m849 -42 c95 -8 216 -17 268 -20 52 -4
121 -9 153 -12 l59 -7 -6 -31 c-3 -17 -8 -51 -11 -76 -12 -87 -36 -232 -42
-246 -6 -17 22 -18 -298 11 -415 38 -385 33 -385 64 0 28 15 155 32 264 12 79
-14 73 230 53z m2359 -87 c22 -17 84 -70 139 -118 90 -79 188 -145 295 -199
27 -14 117 -33 270 -57 127 -19 282 -44 345 -54 l115 -18 -589 4 -589 4 -100
105 c-156 164 -151 132 -40 257 53 59 100 107 106 107 5 0 27 -14 48 -31z
m-1196 -3 c61 -8 181 -22 268 -31 215 -22 240 -33 243 -113 l1 -47 -171 0
c-235 0 -256 -15 -201 -134 14 -30 24 -56 22 -58 -3 -2 -58 3 -123 11 -66 8
-145 18 -176 21 l-58 6 0 37 c0 36 35 270 46 305 6 21 10 21 149 3z m3442
-233 c-4 -82 -7 -167 -7 -190 l0 -43 -80 0 -80 0 1 53 c1 28 6 110 13 182 13
146 9 142 110 144 l49 1 -6 -147z m880 -173 c26 0 38 19 47 75 9 53 35 133 46
140 4 3 47 -58 95 -136 48 -77 131 -198 185 -268 l98 -129 -116 -80 c-65 -44
-162 -112 -216 -151 -55 -39 -103 -71 -108 -71 -4 0 -8 9 -8 21 0 40 -29 79
-60 79 -8 0 -87 -47 -174 -105 -87 -58 -162 -105 -167 -105 -15 0 -10 32 22
160 19 76 27 126 21 132 -5 5 -40 16 -78 23 -38 8 -89 22 -113 31 l-43 16 7
122 c8 149 9 152 48 172 24 13 47 15 105 10 50 -4 80 -2 88 5 18 15 18 149 0
284 l-13 100 156 -162 c109 -114 163 -163 178 -163z m-6947 220 c380 -89 560
-140 560 -159 0 -4 -14 -26 -31 -50 -21 -28 -37 -41 -48 -38 -9 3 -63 25 -121
50 -58 24 -219 86 -358 138 -190 70 -247 96 -230 100 13 4 30 5 38 3 8 -2 94
-22 190 -44z m776 -14 c32 -12 68 -27 79 -31 21 -9 24 -8 -122 -30 l-53 -8 0
40 c0 62 8 64 96 29z m4752 10 c66 -35 112 -112 136 -229 38 -182 -1 -278
-105 -264 -54 7 -85 38 -138 137 l-42 79 -49 -6 c-83 -10 -99 26 -60 129 19
52 87 130 135 156 28 16 91 15 123 -2z m-1925 -148 c48 -50 87 -95 87 -100 0
-4 -40 -8 -88 -8 l-88 0 -67 77 c-37 42 -67 79 -67 83 0 5 94 34 125 39 6 1
49 -40 98 -91z m-593 32 c34 -25 110 -107 110 -120 0 -6 -28 -10 -68 -10 -66
0 -69 1 -103 38 -20 20 -48 53 -64 72 l-28 35 24 7 c36 10 98 0 129 -22z m331
-37 c30 -32 64 -69 74 -82 l20 -24 -105 5 -105 5 -62 69 c-35 37 -63 72 -63
76 0 4 42 8 93 8 l93 0 55 -57z m-2280 11 c65 -19 218 -95 276 -137 24 -17 42
-31 40 -32 -1 -1 -46 2 -100 5 -94 7 -103 10 -220 68 -67 34 -142 73 -167 87
l-45 25 81 0 c44 0 105 -7 135 -16z m-236 -52 c63 -30 291 -168 299 -181 13
-21 -36 -136 -191 -446 -94 -187 -179 -351 -190 -364 l-19 -23 -72 25 c-88 31
-197 97 -276 169 l-60 54 0 75 c-1 83 10 111 159 414 149 305 202 347 350 277z
m2840 -149 c-14 -31 -17 -100 -6 -122 10 -18 8 -21 -15 -27 -15 -4 -120 -4
-233 -1 -113 4 -248 7 -298 7 l-93 0 0 73 c0 41 3 76 6 80 3 3 150 6 326 7
304 1 320 0 313 -17z m-745 -53 c0 -46 -4 -61 -17 -69 -10 -5 -202 -50 -428
-100 -392 -86 -779 -173 -912 -205 l-63 -14 0 35 c0 30 9 44 61 94 34 32 66
59 73 59 27 0 1110 220 1226 249 60 15 60 16 60 -49z m2038 44 c178 -4 338
-10 355 -13 24 -5 38 -17 56 -49 13 -24 21 -46 18 -48 -7 -7 -780 -22 -1256
-25 l-374 -2 -19 23 c-22 28 -23 78 -1 109 l16 24 441 -7 c243 -3 586 -9 764
-12z m-3485 -36 c30 -16 57 -70 57 -115 0 -37 -6 -49 -39 -82 -48 -48 -82 -56
-200 -48 -95 7 -119 1 -98 -25 13 -17 106 -51 171 -63 l39 -8 -6 -56 c-9 -83
-23 -124 -60 -164 -39 -44 -73 -50 -174 -35 -165 24 -165 -36 -1 -74 l47 -11
-26 -49 c-38 -70 -101 -124 -165 -142 -45 -14 -64 -14 -127 -3 -47 8 -78 18
-84 28 -8 13 8 54 73 185 46 93 95 187 108 209 57 90 182 347 198 403 16 56
20 61 48 65 47 7 218 -4 239 -15z m4671 -4 c4 -15 4 -50 1 -78 l-7 -51 -206 3
c-114 2 -209 6 -210 7 -2 2 6 30 17 62 12 32 24 64 26 71 3 9 50 12 189 12
l184 0 6 -26z m148 -56 c-5 -132 -2 -126 -37 -96 -28 25 -29 29 -27 94 2 38 6
72 8 76 3 4 17 8 32 8 l27 0 -3 -82z m-4461 25 c6 -6 8 -16 5 -22 -10 -16
-104 -41 -157 -41 -45 0 -47 1 -52 33 -3 17 -8 39 -11 47 -5 13 7 14 98 5 58
-5 110 -15 117 -22z m3581 -283 l-2 -133 -31 -19 c-41 -25 -69 -89 -69 -160 0
-33 -4 -58 -10 -58 -15 0 -81 36 -108 59 -32 28 -52 82 -52 143 0 65 -9 100
-24 95 -18 -5 -46 -69 -46 -105 0 -27 -3 -32 -17 -28 -10 3 -110 31 -223 61
-486 132 -823 231 -870 255 -35 19 -27 19 558 20 325 0 592 -3 592 -7 0 -5 5
-15 10 -23 8 -12 12 -11 32 7 21 20 37 23 133 25 61 2 115 3 120 2 6 0 9 -51
7 -134z m-2015 122 c21 -13 -134 -158 -182 -171 -48 -13 -95 -14 -95 -3 0 15
140 171 158 175 29 8 106 7 119 -1z m293 -8 c0 -24 -92 -115 -154 -153 -55
-33 -58 -33 -132 -26 l-76 7 89 93 88 92 93 2 c77 1 92 -1 92 -15z m-536 -6
c-4 -7 -29 -48 -56 -90 l-49 -76 -97 5 c-53 3 -99 8 -102 10 -2 2 32 40 76 84
l81 79 77 0 c59 0 75 -3 70 -12z m2756 -4 c147 -4 240 -10 249 -17 18 -15 10
-79 -17 -139 -15 -35 -31 -52 -60 -67 -96 -49 -309 -53 -477 -8 -111 29 -133
41 -141 73 -6 25 4 152 13 168 3 4 49 5 102 2 53 -3 202 -9 331 -12z m-1923
-104 c136 -49 770 -228 938 -265 l149 -32 26 -46 c29 -55 52 -73 123 -95 51
-17 52 -18 49 -52 -4 -44 -93 -231 -180 -375 -174 -288 -448 -588 -784 -857
-96 -76 -248 -182 -253 -176 -17 20 -290 650 -550 1273 -90 215 -170 407 -179
428 l-16 37 106 0 107 0 66 49 c36 28 101 86 145 129 l79 80 42 -33 c24 -18
83 -47 132 -65z m-1947 -72 c0 -11 -65 -380 -98 -553 l-17 -90 -197 -3 c-184
-2 -198 -1 -198 15 0 26 47 342 66 444 9 48 21 95 27 103 7 9 69 27 152 45
265 57 265 57 265 39z m1224 -190 c45 -122 577 -1365 665 -1553 l60 -130 -25
-13 c-14 -8 -27 -12 -29 -10 -32 36 -222 484 -565 1334 -87 215 -167 409 -178
432 l-20 42 27 0 c26 0 30 -7 65 -102z m-1724 78 c0 -19 -27 -146 -35 -168 -5
-13 -19 -16 -74 -15 l-67 2 41 51 c22 28 52 72 67 97 18 32 34 47 48 47 11 0
20 -6 20 -14z m4035 -26 c140 -34 282 -46 391 -32 53 7 100 9 106 6 15 -9 3
-135 -15 -171 -40 -76 -99 -98 -262 -96 -190 2 -332 48 -383 123 -20 30 -23
44 -20 94 4 46 9 63 27 77 29 24 56 24 156 -1z m-3100 -253 c117 -50 356 -171
385 -195 l25 -20 -27 5 c-15 3 -40 2 -55 -2 l-28 -7 24 -19 c13 -10 41 -22 62
-25 22 -4 39 -12 39 -18 0 -12 -36 -224 -61 -364 -22 -123 -57 -135 -410 -152
-425 -20 -1329 -33 -1343 -19 -4 3 3 62 14 130 22 138 50 343 50 370 0 24 -55
74 -109 101 l-45 22 60 13 c32 8 71 16 86 19 31 7 128 -34 202 -85 l44 -30 4
-95 c3 -76 8 -99 23 -117 l20 -22 552 6 c576 7 622 10 666 51 21 20 25 35 31
125 6 79 5 106 -6 118 -20 24 -218 118 -314 150 -96 31 -99 30 -118 -43 l-12
-49 -82 -3 c-47 -2 -91 2 -103 8 -18 10 -20 17 -13 68 9 76 19 101 46 112 13
6 85 8 168 6 139 -4 148 -5 225 -39z m-989 -12 c7 -16 -24 -195 -35 -207 -3
-4 -31 9 -61 29 -30 19 -83 48 -117 64 -35 15 -63 33 -63 39 0 24 52 79 78 83
15 2 64 5 110 6 66 1 84 -2 88 -14z m4052 -90 c46 -15 52 -19 46 -38 -15 -51
-167 -350 -225 -442 -306 -488 -759 -916 -1339 -1267 -198 -119 -187 -115
-222 -81 -58 55 -85 138 -55 175 6 8 92 66 190 128 209 132 367 245 524 377
433 363 748 768 889 1144 l29 76 55 -27 c30 -15 79 -35 108 -45z m-4955 1 c45
-18 138 -52 207 -74 69 -22 161 -56 205 -76 66 -28 81 -39 83 -59 2 -14 -6
-80 -17 -148 -11 -68 -25 -170 -32 -226 -7 -57 -17 -103 -22 -103 -15 0 -230
115 -397 212 -96 55 -146 91 -149 103 -4 22 30 405 36 405 2 0 41 -15 86 -34z
m1897 -66 c129 -58 135 -64 135 -151 0 -83 -9 -94 -89 -104 -60 -8 -223 17
-242 37 -10 10 -10 35 3 128 23 175 17 161 61 146 20 -8 80 -33 132 -56z
m3329 24 c2 -2 -1 -22 -8 -44 -15 -51 -53 -75 -128 -85 -30 -4 -57 -5 -59 -2
-11 11 44 123 64 133 20 10 120 8 131 -2z m1 -223 c39 -24 45 -32 42 -57 -2
-16 -17 -51 -34 -79 -17 -27 -46 -76 -64 -108 -93 -162 -273 -400 -443 -585
-265 -288 -648 -597 -1058 -854 -244 -153 -292 -166 -364 -101 -22 20 -47 49
-54 64 -18 34 -17 35 150 134 694 414 1174 880 1510 1468 37 65 74 121 81 124
13 5 134 20 169 21 11 0 40 -12 65 -27z m-4956 -456 c93 -48 136 -65 166 -65
56 0 120 -27 120 -51 0 -27 -124 -545 -166 -692 -19 -67 -46 -153 -61 -192
-56 -148 -447 -949 -475 -973 -35 -29 -294 -44 -304 -18 -6 16 16 60 202 417
74 140 134 258 134 262 0 4 -9 7 -19 7 -30 0 -106 -125 -321 -527 -61 -115
-97 -173 -108 -173 -19 0 -152 133 -152 152 0 17 291 544 422 763 52 88 106
180 118 205 43 83 138 381 281 883 11 37 24 67 29 67 4 0 65 -29 134 -65z
m1825 -181 c42 -61 139 -199 216 -307 233 -326 255 -359 261 -396 11 -54 -25
-551 -61 -860 -15 -130 -29 -167 -68 -176 -38 -9 -211 -35 -231 -35 -23 0 -22
8 28 329 36 224 48 372 33 387 -4 5 -16 3 -25 -2 -13 -8 -21 -43 -35 -135 -23
-165 -87 -571 -92 -586 -3 -9 -19 -8 -66 3 -87 20 -143 53 -147 84 -2 14 25
188 59 385 80 473 94 565 86 595 -3 14 -128 198 -276 410 -178 254 -266 388
-260 395 9 9 261 20 443 20 l59 0 76 -111z m-2874 -1691 c39 -44 124 -142 189
-218 66 -75 142 -155 170 -177 28 -22 52 -43 54 -47 1 -4 -15 -80 -37 -167
-21 -88 -42 -181 -46 -207 -4 -26 -11 -47 -16 -47 -20 0 -168 81 -259 140 -52
35 -152 105 -222 157 l-127 94 16 52 c25 85 53 164 110 312 77 197 76 196 88
192 5 -2 42 -40 80 -84z m2525 -4 c77 -62 304 -178 604 -310 99 -43 183 -82
187 -86 11 -12 -24 -423 -36 -423 -44 0 -831 215 -854 233 -11 9 -12 31 -8 97
7 88 45 447 53 488 5 27 21 28 54 1z m931 -128 c123 -35 332 -107 368 -126
l26 -14 -31 -1 c-17 0 -120 -18 -229 -40 -109 -22 -207 -40 -217 -40 -35 0
-417 174 -406 185 2 2 44 9 93 15 50 6 122 19 160 29 98 26 118 25 236 -8z
m-2728 -82 c34 -18 87 -48 117 -67 30 -20 79 -50 108 -68 l53 -32 -63 -6 c-35
-3 -115 -8 -178 -10 -63 -3 -160 -9 -215 -12 l-100 -7 -89 97 c-70 76 -86 100
-75 107 8 5 59 9 114 10 82 1 170 7 253 17 7 1 41 -12 75 -29z m3153 -121 c16
-25 -6 -382 -24 -400 -9 -9 -244 -51 -405 -72 l-99 -13 6 56 c3 31 11 123 17
206 6 94 15 152 22 157 7 4 30 8 52 8 22 1 119 16 215 34 204 39 207 40 216
24z m-2820 -140 c-3 -18 -15 -90 -26 -159 -22 -144 -31 -174 -58 -188 -28 -15
-316 -50 -469 -58 -126 -6 -132 -5 -127 13 2 10 24 101 48 202 24 101 45 184
47 186 2 2 117 9 254 16 138 7 252 14 254 16 2 2 22 4 43 4 38 0 39 0 34 -32z"/>
<path d="M4367 8812 c-23 -25 -21 -41 6 -52 30 -13 546 -123 727 -155 79 -14
170 -25 202 -25 51 0 60 3 74 26 20 29 24 108 8 124 -18 18 -51 2 -65 -32 -12
-30 -13 -30 -68 -24 -31 4 -223 40 -427 81 -205 41 -387 75 -406 75 -21 0 -42
-7 -51 -18z"/>
<path d="M5851 8691 c-16 -29 -13 -123 5 -146 14 -19 27 -20 222 -20 227 0
631 13 644 21 4 3 8 18 8 33 0 45 -26 50 -216 41 -93 -5 -269 -12 -391 -16
l-222 -7 -6 39 c-3 22 -7 45 -8 53 -3 23 -25 24 -36 2z"/>
<path d="M4445 8436 c-107 -48 -149 -180 -150 -476 0 -171 1 -176 27 -226 32
-62 74 -99 148 -132 155 -69 424 -101 572 -68 85 19 143 55 176 108 57 93 92
288 93 520 0 159 -11 195 -66 221 -97 46 -722 88 -800 53z m672 -532 c23 -23
25 -31 21 -100 -3 -64 -7 -77 -30 -101 -51 -51 -123 -25 -135 50 -21 133 68
227 144 151z"/>
<path d="M5893 8339 c-88 -25 -143 -200 -143 -453 0 -240 62 -361 207 -406
100 -31 268 -46 357 -32 143 22 206 67 250 177 52 131 93 478 66 574 -16 59
-57 97 -123 111 -145 31 -541 50 -614 29z m89 -468 c49 -39 59 -145 17 -190
-59 -63 -129 -12 -129 93 0 55 15 90 44 104 31 15 40 14 68 -7z"/>
<path d="M5543 7734 c-17 -22 -69 -98 -117 -170 -93 -142 -104 -176 -65 -215
27 -27 70 -20 121 22 42 33 47 32 91 -18 26 -30 35 -34 71 -31 32 2 44 9 56
30 14 25 13 35 -8 117 -25 96 -84 256 -105 286 -12 16 -16 14 -44 -21z"/>
<path d="M2773 7453 c-11 -29 -7 -205 5 -249 7 -22 22 -50 34 -61 32 -29 156
-77 200 -77 80 -1 56 30 -51 65 -36 12 -77 34 -92 48 -23 23 -26 36 -32 123
-9 129 -42 208 -64 151z"/>
<path d="M9075 4937 c-104 -39 -206 -90 -215 -107 -14 -25 3 -41 115 -108 142
-85 172 -99 188 -83 16 16 -15 43 -129 113 -99 61 -100 59 30 108 93 36 121
52 136 80 10 18 8 20 -27 19 -21 0 -65 -10 -98 -22z"/>
<path d="M2936 2211 c-16 -18 -16 -20 9 -40 15 -11 43 -23 63 -27 41 -8 128 7
126 21 -1 6 -35 20 -75 31 -41 12 -81 24 -90 28 -9 4 -22 -1 -33 -13z"/>
<path d="M5235 2222 c-31 -6 -41 -12 -43 -29 -4 -30 36 -40 103 -26 79 17 110
32 97 45 -13 13 -101 19 -157 10z"/>
<path d="M9455 9155 c-5 -2 -73 -22 -150 -45 -77 -23 -194 -63 -260 -88 -108
-42 -126 -52 -180 -107 -34 -33 -82 -85 -107 -115 l-47 -55 -1 65 c0 79 -19
113 -58 108 -31 -4 -70 -52 -163 -204 -35 -58 -71 -115 -80 -126 l-16 -21 -39
26 c-49 34 -69 34 -91 0 -16 -24 -18 -61 -21 -341 l-3 -315 -39 -51 c-50 -67
-86 -144 -72 -158 17 -17 54 -1 119 52 34 27 70 50 80 50 11 0 59 -9 109 -20
126 -28 339 -60 404 -60 147 0 202 59 125 136 -34 34 -44 54 -26 54 5 0 82 41
172 90 180 99 234 144 220 182 -12 34 -60 58 -142 71 l-73 12 112 94 c62 51
116 100 121 109 19 38 201 596 201 618 0 34 -49 54 -95 39z m-99 -353 c-46
-139 -92 -262 -102 -273 -10 -12 -57 -53 -104 -92 -123 -103 -180 -159 -180
-179 0 -26 40 -48 90 -48 61 0 150 -11 150 -19 0 -8 -210 -127 -317 -180 -44
-22 -83 -46 -86 -53 -7 -19 12 -49 52 -85 l36 -32 -70 0 c-38 0 -101 6 -140
13 -38 7 -130 23 -202 37 -73 13 -133 26 -133 29 0 3 18 15 40 28 32 18 152
50 397 107 23 5 53 31 53 46 0 15 -38 11 -179 -21 -74 -17 -139 -29 -144 -27
-5 1 80 88 188 192 232 223 358 365 325 365 -28 0 -69 -29 -148 -104 -68 -65
-70 -64 -41 28 13 40 11 53 -6 60 -21 8 -59 -63 -85 -157 l-22 -79 -121 -121
c-81 -80 -123 -116 -125 -105 -2 8 4 46 13 84 16 69 11 92 -19 81 -16 -7 -48
-100 -67 -199 -9 -46 -19 -69 -38 -85 -14 -13 -29 -23 -33 -23 -5 0 -8 113 -8
251 l0 251 31 -26 c17 -14 34 -26 38 -26 16 0 61 61 131 175 102 168 100 166
97 61 -2 -75 1 -90 16 -100 23 -15 40 -3 106 75 148 176 198 229 233 249 35
19 449 162 455 156 1 -1 -35 -115 -81 -254z"/>
<path d="M1779 3572 c-61 -54 -145 -165 -219 -286 -58 -97 -34 -86 -245 -112
-240 -29 -275 -41 -275 -93 0 -23 11 -39 46 -68 l45 -39 -93 -61 c-132 -86
-250 -176 -287 -219 -24 -27 -31 -44 -29 -67 5 -47 35 -58 151 -55 53 2 97 1
97 0 0 -2 -9 -38 -20 -81 -30 -119 -80 -378 -80 -417 0 -89 44 -96 151 -26 88
58 213 156 286 225 36 34 54 45 57 36 2 -8 10 -32 17 -54 44 -145 108 -185
152 -93 17 35 65 214 92 341 l17 78 39 -36 c42 -37 78 -45 99 -19 21 25 16
176 -8 270 -46 174 -72 244 -96 255 l-23 11 50 101 c58 119 167 392 167 418 0
10 -9 23 -19 29 -16 8 -28 2 -72 -38z m-105 -299 c-37 -84 -103 -214 -126
-245 -10 -15 -50 -87 -88 -160 -42 -79 -70 -124 -70 -110 0 48 279 572 305
572 2 0 -7 -26 -21 -57z m-219 -185 c-4 -13 -73 -160 -154 -328 -82 -168 -146
-307 -144 -309 9 -11 69 63 114 141 53 92 69 111 69 81 0 -28 29 -63 51 -63
11 0 23 10 28 23 26 67 189 347 203 347 10 0 97 -307 98 -344 0 -6 -12 2 -27
16 -33 29 -74 58 -85 58 -14 0 -46 -74 -57 -135 -26 -129 -73 -315 -81 -315
-4 0 -13 28 -19 61 -30 153 -50 153 -211 7 -71 -64 -271 -220 -276 -215 -6 6
60 312 88 410 39 137 36 143 -80 139 -42 -1 -90 -5 -107 -8 -30 -5 -30 -5 14
36 25 23 123 92 218 155 204 135 209 146 103 201 l-35 18 40 8 c22 4 85 14
140 22 55 7 104 14 108 15 5 0 5 -9 2 -21z"/>
<path d="M3935 773 c-11 -3 -24 -9 -30 -14 -18 -18 18 -29 96 -29 105 0 178
27 117 44 -26 7 -153 6 -183 -1z"/>
</g>
</svg>
