<?xml version="1.0" standalone="no"?>
<!DOCTYPE svg PUBLIC "-//W3C//DTD SVG 20010904//EN"
 "http://www.w3.org/TR/2001/REC-SVG-20010904/DTD/svg10.dtd">
<svg version="1.0" xmlns="http://www.w3.org/2000/svg"
 width="1024.000000pt" height="1024.000000pt" viewBox="0 0 1024.000000 1024.000000"
 preserveAspectRatio="xMidYMid meet">
<metadata>
Created by potrace 1.16, written by Peter Selinger 2001-2019
</metadata>
<g transform="translate(0.000000,1024.000000) scale(0.100000,-0.100000)"
fill="#000000" stroke="none">
<path d="M4675 9969 c-261 -38 -493 -72 -640 -94 -82 -12 -296 -44 -475 -70
-179 -26 -336 -52 -349 -58 -33 -16 -60 -56 -72 -103 -17 -71 -30 -610 -32
-1301 -2 -679 -2 -681 19 -710 19 -25 36 -31 145 -55 68 -15 160 -35 204 -46
l80 -18 0 -155 c0 -233 2 -247 28 -273 18 -18 55 -28 215 -56 106 -18 191 -37
190 -41 -3 -7 -331 -272 -433 -350 -31 -23 -93 -53 -160 -78 -61 -21 -128 -47
-150 -57 -22 -9 -182 -65 -355 -125 -679 -232 -803 -278 -838 -313 -23 -22
-23 -28 -23 -187 1 -90 4 -178 7 -196 8 -41 34 -64 119 -105 l70 -34 2 -49 c6
-103 35 -329 46 -346 18 -28 203 -101 290 -114 51 -8 69 0 194 82 86 56 90 63
95 138 2 30 7 39 18 36 43 -11 109 -12 127 -2 25 13 69 101 118 233 l36 97
112 55 c62 30 135 63 162 74 71 28 410 188 443 209 34 22 100 75 227 184 192
164 354 299 358 299 3 0 8 -39 12 -87 8 -101 19 -161 33 -175 5 -5 61 -20 123
-33 111 -22 324 -69 384 -83 26 -7 31 -13 36 -50 6 -47 4 -48 -67 -32 -46 11
-61 6 -409 -122 -138 -51 -129 -40 -135 -159 l-5 -102 -90 -19 c-105 -21 -370
-92 -435 -115 -91 -34 -84 -22 -156 -248 -21 -66 -39 -121 -40 -123 -1 -2 -42
4 -91 12 -250 45 -412 67 -448 63 -22 -2 -92 -21 -155 -42 -63 -20 -135 -41
-160 -47 -25 -5 -88 -22 -140 -38 -52 -16 -160 -45 -240 -65 -222 -56 -471
-125 -489 -134 -9 -5 -99 -32 -201 -60 -120 -33 -191 -58 -205 -71 -27 -27
-33 -121 -34 -532 l-1 -318 -117 -93 c-65 -51 -244 -188 -398 -305 -468 -355
-579 -441 -602 -467 -44 -50 -30 -86 109 -292 82 -121 119 -165 151 -176 6 -2
-21 -41 -59 -88 -124 -148 -185 -235 -191 -272 -5 -32 -1 -40 39 -79 37 -37
174 -139 233 -174 17 -9 7 -26 -93 -169 -62 -88 -112 -167 -112 -176 0 -34
110 -113 315 -229 160 -91 241 -131 323 -159 80 -27 108 -27 135 3 41 45 592
939 658 1068 10 20 23 39 29 43 5 3 87 -17 182 -44 462 -133 611 -172 1324
-340 73 -17 144 -31 159 -31 35 0 229 93 430 207 284 160 384 214 718 380 350
176 333 170 412 130 56 -28 166 -67 190 -67 26 0 94 42 157 98 l48 41 106 -45
c58 -24 114 -44 125 -44 10 0 43 11 73 24 50 22 56 23 60 8 3 -9 12 -120 21
-247 8 -126 17 -257 20 -290 3 -33 14 -238 25 -455 12 -217 25 -460 30 -540 5
-80 14 -228 20 -330 5 -102 12 -203 15 -225 2 -22 7 -69 11 -104 7 -77 17
-107 42 -120 22 -12 170 -28 360 -40 152 -10 188 -5 252 34 19 12 85 48 147
79 110 56 163 100 163 134 0 9 -7 62 -16 117 -25 164 -112 764 -144 995 -17
118 -48 341 -70 495 -21 154 -44 321 -50 370 -12 98 -58 390 -66 417 -7 23 49
54 64 35 5 -6 41 -95 80 -197 101 -264 203 -528 282 -730 37 -96 91 -238 118
-315 160 -442 383 -1040 396 -1060 9 -14 28 -32 41 -41 24 -16 33 -15 138 5
159 32 357 81 392 99 16 8 87 69 157 135 95 90 128 127 128 145 0 30 -79 226
-160 397 -34 72 -96 202 -137 290 -42 88 -112 234 -155 325 -44 91 -124 264
-178 385 -54 121 -133 297 -175 390 -42 94 -101 224 -130 290 -29 66 -76 171
-104 232 -28 62 -51 115 -51 117 0 2 20 15 44 29 l44 25 34 -37 c80 -85 279
-323 743 -892 227 -277 642 -778 693 -834 110 -122 217 -225 233 -225 27 0
160 93 294 206 66 55 147 121 180 146 33 25 81 68 108 96 70 76 68 87 -52 229
-172 204 -319 374 -532 615 -113 128 -297 337 -408 463 -112 127 -253 286
-314 355 -62 68 -149 166 -194 217 -46 50 -83 96 -83 100 1 4 126 69 278 143
152 74 286 142 297 152 18 17 21 36 27 216 3 108 9 517 13 907 9 807 12 770
-66 798 -24 9 -228 48 -454 87 -225 38 -495 86 -600 105 -620 114 -765 128
-924 92 -41 -9 -76 -15 -78 -14 -3 4 -41 135 -78 271 l-27 99 51 51 c66 67 72
86 51 155 -10 31 -32 116 -50 188 -41 166 -59 187 -175 198 -131 14 -226 30
-210 36 11 4 85 26 165 49 190 56 418 131 546 181 136 53 160 79 168 181 17
228 39 1848 26 1938 -12 84 -34 105 -121 113 -118 12 -513 38 -1019 67 -85 5
-207 13 -270 19 -63 5 -187 15 -275 21 -88 6 -236 18 -328 26 -211 18 -308 16
-472 -7z m324 -89 c293 -31 1138 -93 1522 -112 137 -7 247 -14 245 -16 -7 -6
-743 -157 -1056 -216 l-185 -34 -155 14 c-85 7 -261 23 -390 34 -129 11 -332
29 -450 40 -118 11 -291 27 -385 36 -93 8 -208 19 -255 24 -47 5 -151 15 -232
22 -81 6 -145 15 -143 18 3 4 30 10 62 13 32 3 182 24 333 46 151 22 428 61
615 86 187 25 345 47 350 49 15 7 24 6 124 -4z m2067 -276 c0 -103 -5 -461
-21 -1429 -6 -368 -8 -422 -22 -432 -32 -25 -1020 -340 -1030 -329 -2 1 -6 61
-10 132 -7 113 -10 129 -26 132 -10 2 -25 -2 -34 -10 -14 -11 -15 -31 -9 -144
l6 -131 -92 -27 c-157 -46 -228 -64 -228 -58 2 53 -10 2038 -12 2066 l-3 38
100 25 c55 13 323 68 595 122 272 55 556 113 630 129 74 16 140 29 145 28 6
-2 10 -48 11 -112z m-3611 1 c94 -8 235 -22 315 -30 151 -15 478 -46 685 -65
170 -15 712 -67 885 -85 80 -8 148 -15 153 -15 4 0 7 -468 7 -1040 l0 -1040
-22 0 c-13 0 -115 20 -228 45 -320 71 -317 70 -334 55 -14 -11 -16 -47 -16
-247 l0 -235 -32 6 c-18 4 -64 11 -103 17 -128 18 -115 1 -115 145 0 129 -8
164 -38 164 -36 0 -42 -20 -42 -152 0 -128 0 -128 -22 -123 -13 2 -66 12 -118
20 -158 25 -140 6 -140 154 0 105 -3 131 -16 142 -11 9 -20 10 -32 2 -14 -8
-17 -31 -20 -129 -1 -65 -6 -122 -10 -126 -10 -10 -232 30 -247 44 -5 5 -12
66 -15 135 -4 101 -8 128 -21 136 -9 6 -24 7 -33 4 -14 -5 -16 -25 -16 -137
l0 -131 -37 7 c-90 15 -176 34 -182 40 -3 3 -6 100 -6 214 0 140 -4 213 -11
220 -9 9 -238 58 -396 85 l-38 6 -1 67 c-2 224 3 1317 6 1417 3 66 7 193 11
283 l6 162 27 0 c14 0 103 -7 196 -15z m1619 -2300 c32 -8 60 -16 62 -17 1 -2
4 -46 6 -98 l3 -94 -75 -58 c-41 -31 -78 -57 -82 -58 -4 0 -7 79 -6 175 1 155
3 175 17 170 9 -2 43 -11 75 -20z m1170 -30 c198 -23 239 -31 207 -43 -18 -6
-82 -63 -191 -169 l-85 -82 -195 29 c-107 17 -206 33 -219 36 -23 5 -14 15
100 129 89 88 131 123 149 124 14 0 119 -10 234 -24z m-889 -21 c58 -10 104
-20 103 -24 -2 -4 -37 -37 -79 -74 -74 -64 -78 -66 -115 -58 l-39 8 -3 88 c-2
74 0 88 12 83 8 -3 62 -14 121 -23z m445 -27 c-25 -23 -86 -80 -135 -125 l-89
-84 -61 11 c-109 21 -115 23 -115 31 0 16 154 140 173 140 24 0 218 50 237 61
36 20 32 5 -10 -34z m756 -185 l32 -137 -66 -60 c-37 -32 -93 -85 -124 -117
-58 -59 -68 -66 -68 -47 0 6 -21 63 -46 127 l-46 117 137 133 c75 74 140 131
143 127 3 -3 20 -67 38 -143z m-1258 -28 c12 -21 74 -41 190 -61 53 -9 105
-23 115 -32 21 -18 100 -158 95 -169 -2 -5 -83 9 -181 31 -97 21 -184 37 -192
33 -23 -8 -19 -119 16 -489 18 -180 30 -329 28 -331 -3 -3 -238 34 -246 38 -1
1 -18 168 -38 371 -19 204 -39 392 -44 418 l-8 48 71 53 c39 29 82 65 95 80
28 30 84 36 99 10z m522 -60 c47 -8 142 -25 212 -38 71 -12 129 -24 131 -27
10 -12 97 -242 93 -246 -8 -9 -431 58 -442 70 -6 7 -23 44 -38 82 -14 39 -42
96 -61 128 l-35 59 27 -6 c16 -4 66 -13 113 -22z m-1609 6 c30 -6 65 -13 79
-15 14 -3 52 -10 85 -16 33 -6 66 -12 73 -15 8 -2 -47 -54 -125 -118 -76 -63
-214 -178 -308 -255 -93 -77 -176 -141 -183 -141 -8 0 -44 17 -80 39 -37 21
-92 51 -122 66 l-55 28 25 16 c14 9 83 63 155 121 71 57 164 131 205 164 41
33 94 77 117 98 46 41 53 43 134 28z m503 -86 c83 -14 172 -24 197 -21 l46 4
6 -86 c3 -47 3 -88 1 -90 -2 -2 -36 3 -76 12 -195 41 -314 70 -329 78 -27 14
-29 129 -3 129 3 0 74 -12 158 -26z m-251 -136 c6 -45 35 -78 68 -78 10 0 19
-3 18 -7 0 -5 -35 -36 -77 -70 -42 -33 -151 -125 -242 -203 -91 -79 -198 -171
-239 -206 -41 -35 -77 -64 -82 -64 -9 0 -28 86 -35 160 l-5 55 48 35 c26 19
109 85 183 146 291 242 343 283 350 279 4 -3 10 -24 13 -47z m983 -13 c27 -8
102 -26 168 -40 65 -13 126 -31 135 -39 9 -8 28 -18 44 -21 27 -7 30 -12 42
-87 6 -36 5 -38 -21 -38 -15 0 -53 7 -83 15 -31 8 -105 23 -165 35 -140 27
-176 42 -176 73 0 13 -3 45 -6 71 -8 52 -7 52 62 31z m1088 -110 c16 -52 134
-514 201 -783 l22 -93 -114 -167 c-63 -92 -151 -212 -196 -267 -45 -55 -119
-147 -165 -204 -101 -126 -192 -231 -201 -231 -3 0 -13 44 -22 98 l-16 97 84
95 c310 348 498 577 505 614 4 21 -71 370 -150 693 l-39 162 31 30 c17 17 33
27 36 23 4 -4 14 -34 24 -67z m-1686 -2 c50 -10 92 -21 92 -25 0 -5 -4 -8 -8
-8 -4 0 -39 -20 -76 -45 l-69 -45 -91 22 c-50 11 -95 24 -99 28 -14 12 115
102 138 95 11 -3 62 -13 113 -22z m1119 -46 c24 -7 47 -17 51 -22 9 -10 35
-126 29 -130 -1 -2 -52 -32 -113 -68 l-112 -66 -53 9 c-56 9 -274 58 -297 65
-8 3 8 23 40 51 29 26 56 52 59 57 4 6 55 1 134 -13 119 -21 130 -22 161 -7
37 18 49 46 42 102 -4 39 -2 40 59 22z m310 -13 c51 -5 77 -3 87 5 13 11 16 9
20 -11 3 -12 24 -102 47 -198 59 -249 74 -313 98 -419 12 -52 25 -99 28 -104
8 -14 -49 1 -172 44 l-110 39 -77 308 c-42 169 -80 318 -84 331 -7 24 -6 24
42 17 27 -3 82 -9 121 -12z m-1296 -85 c-8 -9 -81 1 -81 11 0 4 17 19 38 32
l37 25 6 -31 c3 -17 3 -34 0 -37z m492 34 c15 -3 27 -6 27 -8 0 -5 -80 -85
-85 -85 -3 0 -5 25 -5 56 0 49 2 55 18 49 9 -3 29 -9 45 -12z m-1910 -54 c34
-17 91 -47 126 -67 l64 -35 -37 -19 c-20 -10 -143 -64 -274 -119 -130 -56
-273 -116 -316 -135 l-80 -34 -170 77 c-191 86 -181 81 -174 88 3 4 158 59
344 124 187 65 355 125 374 134 51 23 74 20 143 -14z m1207 -20 c107 -22 202
-42 211 -45 12 -3 18 -29 26 -117 6 -61 10 -113 9 -114 -1 -2 -416 93 -444
101 -20 7 -22 14 -22 70 0 35 -3 85 -7 111 -6 45 -5 48 13 41 10 -5 107 -26
214 -47z m1330 -188 c12 -46 20 -87 18 -91 -4 -11 -200 -141 -205 -136 -4 4
-23 162 -23 197 0 21 14 34 87 77 48 29 90 49 95 44 4 -4 17 -45 28 -91z
m1255 21 c326 -56 580 -101 905 -162 63 -12 169 -30 235 -40 81 -12 114 -20
100 -25 -11 -4 -87 -36 -170 -70 -214 -89 -360 -148 -690 -278 -571 -226 -652
-257 -664 -257 -7 0 -88 18 -181 41 l-169 41 60 97 c34 55 60 110 61 127 1 32
-35 200 -87 403 -19 74 -35 138 -35 143 0 4 17 8 38 9 20 0 66 9 102 19 36 10
81 17 100 16 19 -2 197 -31 395 -64z m-1623 -36 l77 -17 5 -42 c17 -126 22
-178 18 -181 -2 -3 -15 -1 -28 4 -39 15 -307 68 -334 66 -25 -1 -25 0 -35 117
-5 65 -9 120 -7 121 1 2 53 -10 115 -25 61 -15 147 -34 189 -43z m-1932 46 c0
-5 9 -57 20 -117 19 -106 19 -125 -1 -125 -5 0 -71 -30 -146 -66 -223 -106
-535 -246 -539 -241 -9 8 -34 251 -27 258 4 4 76 37 158 73 83 36 233 101 335
145 191 83 200 87 200 73z m-1012 -199 c105 -48 192 -91 192 -95 0 -15 -91
-190 -132 -255 -35 -55 -42 -61 -59 -53 -18 10 -18 12 7 63 15 29 40 71 56 95
45 65 38 79 -72 139 -52 29 -105 53 -117 53 -13 0 -70 -21 -129 -47 l-106 -46
-102 40 c-55 22 -110 43 -120 47 -10 4 -17 9 -14 11 7 8 371 133 388 134 8 1
102 -38 208 -86z m3376 -92 c9 -39 16 -76 16 -83 -1 -7 -36 -51 -79 -98 l-79
-84 2 129 1 130 55 37 c30 21 58 38 62 38 3 0 14 -31 22 -69z m2562 -348 c-3
-208 -8 -598 -12 -868 -3 -269 -7 -495 -9 -501 -4 -15 -554 -284 -581 -284 -5
0 -240 276 -337 397 -70 88 -105 123 -125 127 -31 7 -49 4 -327 -58 -110 -25
-203 -42 -208 -37 -4 4 -6 220 -5 479 l3 473 175 70 c96 39 222 89 280 111 58
23 155 60 215 83 205 79 629 252 780 318 83 36 152 66 154 66 2 1 1 -169 -3
-376z m-6448 275 c56 -22 102 -41 102 -44 0 -12 -111 -224 -118 -224 -4 0 -34
15 -67 33 l-60 32 -3 128 -3 129 23 -8 c13 -3 69 -24 126 -46z m3350 28 l44
-11 -1 -205 c-1 -146 -5 -208 -14 -217 -9 -9 -28 -8 -82 6 -38 11 -95 24 -125
30 -30 6 -60 15 -67 19 -7 5 -14 62 -18 164 l-7 157 28 7 c40 9 98 39 114 58
13 17 35 16 128 -8z m-2894 -14 l55 -28 -20 -29 c-80 -120 -181 -309 -214
-402 -21 -60 -21 -66 -8 -165 8 -57 18 -118 23 -135 11 -43 2 -42 -115 5 l-90
37 -12 70 c-6 39 -16 116 -21 173 l-11 103 48 97 c27 53 59 121 72 151 22 53
24 54 123 102 56 26 104 48 108 48 4 1 32 -12 62 -27z m3164 -27 c19 9 36 14
38 13 6 -7 7 -235 0 -246 -8 -14 -168 -102 -185 -102 -8 0 -11 48 -11 168 0
93 3 171 6 174 3 3 31 -1 62 -9 51 -13 60 -13 90 2z m-793 -36 c77 -17 147
-33 155 -36 8 -2 -46 -29 -120 -59 -74 -31 -152 -63 -173 -71 -35 -15 -41 -15
-125 10 -48 15 -120 34 -160 43 -40 9 -71 18 -69 20 3 3 75 29 162 59 87 30
160 57 163 60 9 8 20 6 167 -26z m-2071 -116 l17 -101 -34 -89 c-19 -48 -42
-109 -52 -136 -13 -34 -22 -46 -34 -43 -9 2 -28 7 -43 10 l-28 6 0 103 0 103
55 84 c30 46 64 103 76 127 12 24 22 43 24 41 1 -2 10 -49 19 -105z m3359 46
c73 -23 134 -43 136 -45 2 -2 -22 -31 -52 -66 -30 -35 -110 -126 -176 -203
-185 -214 -300 -339 -320 -348 -14 -7 -49 6 -135 49 -64 32 -116 61 -116 64 0
8 147 174 339 384 75 82 146 162 159 177 13 16 26 29 29 29 3 0 64 -19 136
-41z m-1115 -90 c3 -22 -14 -37 -132 -117 -74 -51 -141 -95 -150 -98 -14 -5
-16 4 -16 59 l0 64 93 40 c50 23 112 50 137 61 54 24 64 23 68 -9z m-503 -60
c61 -17 113 -34 117 -38 5 -4 11 -55 15 -115 4 -77 11 -113 22 -126 15 -16
202 -65 534 -138 l78 -17 -97 -70 c-54 -38 -103 -74 -111 -78 -16 -10 -70 0
-300 55 -95 22 -181 46 -190 54 -16 11 -18 30 -18 141 -1 70 -2 136 -3 146 -3
29 -59 54 -179 82 -62 15 -116 31 -120 38 -7 11 -5 116 3 129 2 3 35 -2 72
-13 37 -11 117 -34 177 -50z m-2021 -314 l8 -71 -57 -42 c-32 -24 -58 -42 -60
-40 -1 2 -8 51 -15 110 l-12 108 58 117 58 118 6 -115 c4 -63 10 -147 14 -185z
m2545 186 c6 -4 76 -25 156 -46 131 -35 160 -47 137 -57 -6 -2 -92 -104 -98
-116 -1 -2 -97 19 -213 47 -116 28 -218 51 -226 51 -34 0 -19 20 48 63 40 26
95 64 122 86 l50 39 7 -31 c3 -16 11 -33 17 -36z m-775 -40 c50 -16 100 -31
111 -33 15 -4 17 -6 5 -10 -38 -14 -417 -118 -430 -119 -21 0 -230 65 -230 71
0 3 35 13 78 24 42 10 140 35 217 56 77 21 144 38 149 39 5 1 50 -12 100 -28z
m1276 8 c0 -6 -34 -50 -76 -99 -73 -86 -116 -124 -127 -114 -6 7 127 194 150
212 21 15 53 16 53 1z m998 -75 c70 -15 152 -32 182 -38 l55 -12 3 -481 2
-481 -62 -10 c-90 -15 -182 -26 -186 -21 -2 2 -3 153 -2 334 l0 331 -27 25
c-35 32 -66 44 -168 64 -44 9 -81 17 -82 19 -2 1 1 28 5 59 6 50 15 67 77 146
39 49 71 90 73 90 1 1 60 -11 130 -25z m-2068 -143 l0 -119 -32 -12 c-18 -7
-120 -43 -226 -80 -163 -57 -199 -66 -229 -60 -19 5 -36 10 -39 12 -6 6 35
221 44 229 4 4 63 24 132 44 69 20 170 52 225 70 55 18 106 34 113 34 9 1 12
-29 12 -118z m-705 24 c70 -24 130 -46 132 -49 4 -4 -34 -217 -40 -222 -1 -1
-45 7 -97 17 -52 11 -122 24 -155 30 -33 7 -62 13 -64 15 -6 5 81 254 89 254
5 0 65 -20 135 -45z m1765 -168 l118 -63 -93 -82 c-149 -131 -201 -172 -211
-162 -5 5 -54 32 -109 61 -152 79 -149 70 -47 147 48 36 114 87 147 113 33 27
64 48 68 49 5 0 62 -28 127 -63z m633 -44 c-14 -160 -8 -146 -86 -220 -67 -64
-159 -133 -175 -133 -4 0 -13 14 -19 31 -12 31 -11 34 51 100 35 38 99 113
142 169 43 55 82 100 85 100 4 0 5 -21 2 -47z m-2849 -68 c144 -24 374 -64
511 -90 138 -25 284 -53 325 -60 191 -35 461 -94 585 -127 40 -10 39 -10 -220
-100 -143 -49 -431 -149 -640 -221 -344 -119 -386 -131 -445 -130 -37 0 -207
30 -390 68 -179 36 -368 75 -420 85 -142 28 -585 125 -750 165 -80 19 -189 45
-242 57 -54 13 -98 25 -98 28 0 4 24 12 53 19 115 29 495 133 536 147 24 8
179 50 345 94 166 43 342 92 391 108 87 28 92 28 144 15 30 -8 172 -34 315
-58z m1296 40 c47 -14 148 -40 225 -59 77 -18 140 -37 140 -42 0 -5 -9 -53
-19 -106 l-18 -97 -21 24 c-35 39 -207 86 -577 156 -85 16 -157 29 -160 29 -4
0 308 109 340 119 3 1 43 -10 90 -24z m1718 -21 c23 -4 42 -9 42 -13 0 -4 -26
-15 -57 -25 -32 -9 -64 -20 -70 -23 -9 -3 -13 6 -13 30 0 40 8 50 35 43 11 -3
39 -8 63 -12z m-592 -105 l14 -83 -112 -107 c-62 -59 -147 -150 -188 -202 -41
-53 -78 -96 -83 -97 -4 0 -5 10 -3 23 3 12 13 80 22 150 l17 128 76 67 c42 37
112 100 155 139 44 40 81 71 83 69 2 -2 11 -41 19 -87z m705 -263 l1 -280 -39
-20 c-21 -11 -90 -41 -153 -68 -85 -35 -123 -57 -145 -82 -24 -29 -51 -43
-142 -74 -62 -21 -113 -36 -113 -32 0 4 14 116 30 248 17 133 30 244 30 246 0
3 35 31 78 62 42 32 111 91 152 133 72 73 79 77 180 112 58 20 109 36 113 35
4 -1 8 -127 8 -280z m-1246 145 l120 -68 -3 -49 c-2 -27 -12 -107 -23 -179
-10 -71 -19 -136 -19 -142 0 -27 -34 -10 -150 78 -88 67 -120 97 -120 113 0
24 36 222 51 279 5 20 13 37 17 37 4 0 61 -31 127 -69z m641 -118 c4 -13 1
-49 -5 -80 -28 -146 -138 -925 -144 -1017 -2 -34 -11 -46 -65 -94 -34 -30 -62
-48 -62 -41 0 8 11 79 25 159 14 80 57 354 96 610 68 438 73 467 98 493 24 26
26 27 39 10 7 -10 15 -28 18 -40z m-983 -130 c4 -58 7 -330 7 -604 l0 -498
-42 -35 c-24 -20 -80 -65 -126 -101 -45 -36 -88 -76 -96 -88 -8 -12 -19 -71
-26 -132 -6 -60 -13 -130 -16 -155 -10 -93 -11 -133 -6 -153 3 -13 33 -33 90
-59 49 -23 81 -43 76 -48 -5 -5 -180 -96 -389 -203 -350 -179 -541 -279 -766
-401 -47 -25 -89 -46 -93 -46 -4 0 -5 51 -1 113 4 61 7 242 9 400 l2 289 75
45 c41 25 106 60 144 78 125 58 116 28 115 381 -1 300 -5 346 -32 356 -7 3
-63 -13 -123 -37 -61 -23 -120 -45 -132 -49 l-23 -7 0 298 0 298 48 17 c26 9
144 50 262 91 118 41 368 128 555 193 187 65 365 128 395 140 88 37 86 39 93
-83z m797 -73 c-10 -80 -23 -170 -28 -200 -21 -119 -84 -504 -109 -665 -15
-93 -27 -171 -28 -172 -1 -1 -35 10 -76 26 -40 15 -113 43 -161 61 -49 18 -93
39 -99 46 -9 11 -7 47 5 147 22 171 46 374 53 460 3 37 9 70 14 73 4 2 25 -2
45 -11 67 -28 80 -18 214 160 86 113 181 227 186 222 1 -1 -6 -67 -16 -147z
m-4012 86 c450 -108 856 -196 1315 -287 l467 -92 -2 -306 -3 -306 -70 4 c-38
1 -155 18 -260 36 -202 34 -231 33 -240 -9 -2 -12 -7 -34 -10 -51 -11 -49 -6
-443 5 -486 27 -101 80 -146 207 -178 74 -18 279 -57 333 -63 l25 -3 -2 -220
c-2 -121 -5 -312 -9 -424 l-6 -203 -52 6 c-105 13 -847 193 -1106 269 -47 14
-130 37 -185 52 -55 15 -138 40 -185 55 -47 15 -168 54 -270 85 -102 32 -188
61 -192 64 -3 3 -8 176 -10 384 -4 304 -2 377 9 377 7 0 74 -18 150 -41 76
-22 167 -43 203 -46 57 -4 69 -2 100 19 67 45 70 61 70 359 0 244 -1 267 -18
282 -10 9 -103 39 -208 66 -206 54 -282 77 -302 94 -10 8 -12 67 -11 266 2
283 6 351 21 351 5 0 111 -24 236 -54z m3376 -173 c34 -27 75 -57 91 -68 l28
-21 -28 -244 c-15 -135 -29 -251 -31 -257 -3 -11 -105 -63 -123 -63 -3 0 -6
157 -6 350 0 192 1 350 3 350 1 0 31 -21 66 -47z m2472 -116 c54 -67 101 -128
107 -135 12 -16 -23 -55 -108 -119 -33 -25 -65 -50 -71 -55 -8 -6 -29 13 -65
59 -30 37 -87 104 -126 148 -74 82 -84 99 -59 108 8 3 47 29 87 58 70 49 115
71 131 62 5 -2 51 -59 104 -126z m-336 94 c0 -22 -106 -68 -170 -74 -36 -4
-159 -16 -275 -27 -115 -11 -220 -23 -232 -26 -13 -4 -23 -2 -23 4 0 14 27 20
200 42 204 26 461 69 480 81 19 11 20 11 20 0z m-130 -146 c0 -12 -103 -235
-109 -235 -3 1 -21 21 -39 46 -18 25 -45 49 -58 55 -14 5 -166 9 -340 9 l-315
0 6 23 c4 12 11 26 15 30 4 5 74 13 154 18 213 12 659 49 665 54 6 7 21 6 21
0z m160 -116 c41 -49 94 -112 118 -140 23 -28 42 -57 42 -64 0 -12 -156 -215
-165 -215 -1 0 -48 49 -104 109 l-101 108 63 146 c34 81 64 146 67 146 3 0 39
-40 80 -90z m544 -122 c32 -40 125 -144 206 -232 81 -88 234 -259 340 -380
106 -121 213 -242 237 -269 23 -26 43 -52 43 -56 0 -5 -57 -36 -126 -70 l-126
-61 -53 58 c-123 136 -308 350 -443 513 -81 96 -190 226 -244 289 -54 62 -98
117 -98 121 0 4 37 35 83 68 46 33 89 68 96 76 8 9 16 16 20 15 3 0 32 -33 65
-72z m-1195 45 c69 -1 121 -6 115 -10 -18 -16 -150 -52 -189 -52 -22 1 -87 8
-145 16 -58 8 -144 20 -192 26 -49 6 -88 14 -88 18 0 5 213 6 499 2z m296 -94
c85 -191 105 -239 105 -248 0 -5 -10 -12 -22 -15 -13 -2 -77 -18 -143 -34 -66
-16 -123 -26 -127 -22 -8 8 -110 282 -106 286 6 6 243 84 256 85 7 0 24 -24
37 -52z m-847 27 c53 -9 164 -27 245 -40 82 -14 154 -25 159 -25 7 0 6 -5 -1
-14 -7 -8 -27 -44 -45 -81 l-33 -67 -21 35 c-11 20 -31 42 -44 51 -13 8 -103
37 -202 65 -98 27 -181 52 -184 55 -5 5 16 36 24 36 2 0 48 -7 102 -15z
m-4469 -89 c67 -19 125 -38 131 -41 6 -4 10 -90 10 -225 l0 -219 25 -19 c14
-11 56 -28 95 -37 38 -9 70 -20 70 -25 0 -4 -9 -15 -20 -25 -16 -15 -30 -17
-82 -12 -71 8 -338 81 -347 96 -8 12 -15 541 -7 541 2 0 59 -15 125 -34z
m4541 -87 c0 -6 -93 -16 -210 -22 -35 -2 -35 -2 -33 38 2 22 5 45 7 51 5 12
236 -54 236 -67z m420 60 c0 -6 23 -68 50 -138 28 -70 50 -136 50 -148 0 -20
-124 -183 -139 -183 -8 0 -60 114 -78 173 -17 57 -16 61 50 200 45 96 67 128
67 96z m1058 -151 c66 -79 171 -204 233 -278 102 -122 399 -468 455 -530 l23
-25 -74 -109 c-41 -61 -80 -116 -88 -123 -15 -16 -64 39 -352 397 -104 129
-221 271 -259 316 -157 180 -236 273 -236 278 0 4 36 50 80 103 44 53 80 100
80 105 0 22 26 -3 138 -134z m-6248 -187 l0 -230 -102 -73 c-57 -41 -126 -91
-155 -112 l-52 -37 -91 137 c-50 75 -90 144 -88 153 2 8 97 86 212 173 115 86
223 170 240 187 17 17 32 31 33 31 2 0 3 -103 3 -229z m4928 202 c5 -10 15
-49 22 -88 7 -38 18 -92 25 -120 8 -27 15 -70 17 -95 l3 -45 -136 -6 c-75 -4
-150 -10 -166 -13 -19 -5 -34 -3 -38 4 -9 15 -56 332 -50 338 5 5 246 38 292
41 12 0 26 -7 31 -16z m835 -6 c3 -7 37 -52 77 -101 40 -48 71 -88 69 -90 -39
-26 -63 -36 -69 -29 -7 6 -41 85 -97 221 -3 6 -1 12 5 12 5 0 12 -6 15 -13z
m-1987 -54 c-3 -21 -6 -46 -6 -55 0 -15 -74 -68 -94 -68 -4 0 -6 28 -4 61 l3
61 45 18 c63 25 63 25 56 -17z m774 -163 c11 -74 23 -144 25 -155 2 -13 -12
-37 -41 -69 -25 -27 -46 -47 -47 -45 -1 2 0 88 3 190 4 138 9 190 19 203 8 9
15 15 17 14 1 -2 12 -64 24 -138z m1220 -90 c47 -113 129 -299 182 -415 182
-398 195 -435 151 -435 -10 0 -76 -16 -146 -36 -72 -21 -132 -33 -136 -28 -5
5 -50 115 -101 244 -51 129 -144 363 -207 519 -63 156 -113 284 -111 286 2 2
28 10 58 19 30 8 84 24 120 35 36 11 74 19 84 18 15 -2 38 -47 106 -207z
m-3317 93 c3 -49 4 -110 3 -138 -1 -27 -3 -103 -4 -168 l-2 -117 -82 -38 -83
-38 -5 255 c-3 164 -1 260 5 268 12 13 123 61 146 62 13 1 17 -15 22 -86z
m-631 32 c76 -14 139 -25 140 -25 2 0 3 -91 3 -202 0 -174 3 -208 17 -235 20
-36 76 -61 159 -71 48 -6 54 -10 57 -33 2 -15 -5 -32 -17 -43 -19 -17 -25 -17
-120 -2 -136 21 -330 73 -361 95 -51 37 -61 71 -67 219 -3 75 -2 181 2 234 7
94 8 98 28 93 12 -3 84 -16 159 -30z m2104 -65 c196 -73 249 -96 249 -105 0
-5 -52 -55 -115 -110 -200 -175 -242 -207 -259 -199 -9 3 -50 19 -92 35 -85
31 -260 108 -272 119 -15 13 356 289 389 290 11 0 56 -13 100 -30z m1457 -107
c91 -216 357 -891 357 -907 0 -9 -20 -47 -45 -84 -64 -95 -84 -117 -96 -105
-5 5 -56 131 -114 279 -57 148 -138 357 -180 464 -128 328 -117 290 -97 315
56 72 118 145 123 145 3 0 27 -48 52 -107z m-1070 -290 c-135 -147 -162 -174
-293 -289 -101 -89 -141 -116 -133 -92 2 4 -1 40 -6 80 -6 40 -13 103 -16 139
l-6 65 178 151 c98 83 221 190 273 238 l95 88 3 -137 3 -137 -98 -106z m-4774
84 l99 -147 -41 -34 c-23 -18 -70 -52 -104 -74 -33 -23 -121 -89 -194 -148
l-133 -107 -18 24 c-83 115 -162 229 -174 251 -14 27 -14 27 94 112 166 132
356 274 364 273 4 -1 52 -68 107 -150z m5467 135 c14 -8 27 -89 84 -492 50
-362 73 -541 68 -545 -6 -6 -332 17 -340 24 -6 6 -137 848 -150 966 l-3 30
145 11 c80 6 154 12 165 12 11 1 25 -2 31 -6z m-362 -422 c26 -184 54 -384 62
-444 8 -60 18 -121 20 -136 5 -22 -9 -42 -85 -128 -49 -56 -92 -99 -94 -94 -7
11 -16 108 -32 347 -9 121 -22 283 -30 360 -9 77 -18 175 -22 217 l-6 77 62
67 c33 37 61 72 61 77 0 7 3 7 9 2 4 -6 29 -161 55 -345z m524 238 c16 -43 26
-78 22 -78 -5 0 -15 -3 -23 -6 -12 -4 -17 10 -27 68 -6 40 -14 82 -17 93 -12
46 17 -4 45 -77z m-5168 -29 c0 -116 6 -104 -124 -259 -44 -52 -81 -97 -83
-99 -3 -5 -184 78 -209 96 -15 11 -8 21 62 88 119 115 321 275 347 275 4 0 7
-45 7 -101z m3480 20 c36 -17 113 -51 173 -76 59 -25 110 -50 115 -57 10 -16
49 -316 40 -316 -17 0 -173 63 -303 122 l-140 64 1 64 c0 36 4 102 8 148 10
96 11 96 106 51z m3992 -266 c170 -187 358 -409 358 -422 -1 -9 -43 -38 -157
-107 l-103 -63 -53 62 c-29 34 -91 109 -137 167 -47 58 -107 132 -135 165 -28
33 -79 97 -114 143 -72 95 -72 94 29 131 30 11 80 36 110 54 43 27 57 31 66
21 5 -7 67 -75 136 -151z m-3094 53 c20 -159 20 -159 -39 -183 -45 -20 -54
-20 -88 -8 -53 18 -121 54 -120 63 0 4 30 32 66 62 36 30 86 79 111 108 25 28
49 52 52 52 4 0 12 -42 18 -94z m-4376 -223 c-3 -177 3 -198 56 -225 19 -9 36
-19 39 -21 6 -7 -246 -373 -256 -370 -3 1 -37 20 -73 42 -37 23 -107 60 -155
83 -48 24 -89 44 -91 44 -5 3 283 390 341 459 62 73 129 145 137 145 3 0 4
-71 2 -157z m7139 -19 c47 -60 149 -186 227 -281 l140 -171 -26 -39 c-35 -52
-143 -183 -151 -182 -3 0 -58 66 -121 146 -63 80 -172 213 -241 295 l-126 151
86 118 86 118 20 -23 c11 -12 59 -72 106 -132z m-7527 70 c64 -31 116 -59 116
-62 0 -4 -72 -104 -160 -222 -89 -118 -190 -255 -225 -305 -103 -144 -90 -132
-128 -112 -49 27 -211 145 -215 157 -5 13 50 86 191 254 87 105 298 345 303
346 1 0 54 -25 118 -56z m6606 -316 c24 -51 83 -181 133 -288 75 -164 129
-279 145 -312 4 -8 -25 -16 -198 -53 -69 -14 -135 -29 -146 -31 -19 -5 -25 4
-52 68 -16 40 -62 151 -101 246 -89 214 -145 371 -136 380 7 7 271 80 296 81
10 1 30 -30 59 -91z m-5936 -37 l46 -17 -31 -49 c-17 -27 -83 -137 -146 -244
-63 -108 -116 -197 -118 -199 -3 -4 -70 67 -106 112 l-21 26 103 148 c57 81
119 171 138 200 40 58 42 59 135 23z m5640 -361 l140 -349 -73 -95 c-40 -53
-76 -96 -81 -96 -4 0 -13 12 -18 28 -6 15 -38 99 -72 187 -34 88 -79 210 -101
270 -22 61 -49 133 -61 162 l-21 51 63 83 c34 46 64 89 67 96 3 7 8 13 12 13
3 0 69 -158 145 -350z m2061 239 c50 -56 114 -129 143 -163 l53 -61 -28 -23
c-87 -72 -207 -162 -216 -162 -15 0 -317 334 -317 351 0 3 19 15 43 27 23 12
80 47 127 77 47 30 90 54 95 55 6 0 51 -46 100 -101z m-2857 -68 l47 -6 12
-65 c20 -113 104 -723 100 -726 -1 -1 -43 4 -93 11 -50 7 -134 16 -187 20 -88
7 -98 9 -101 29 -3 11 -12 98 -21 191 -14 153 -47 445 -59 534 l-5 34 130 -8
c72 -4 152 -10 177 -14z m-5572 -57 c88 -41 231 -121 239 -134 5 -7 -317 -498
-368 -562 -13 -17 -27 -11 -185 75 -155 83 -190 108 -164 119 5 2 33 39 62 83
29 44 74 107 99 140 26 33 88 117 140 188 51 70 94 127 95 127 2 0 39 -16 82
-36z m5207 -101 c9 -71 28 -239 43 -376 l27 -247 -63 -58 c-83 -75 -156 -132
-167 -132 -5 0 -15 104 -22 233 -7 127 -16 297 -21 377 l-8 145 91 93 c50 50
94 92 97 92 4 0 14 -57 23 -127z m2898 -8 c41 -49 104 -124 142 -165 37 -41
66 -78 65 -82 -5 -13 -192 -158 -204 -158 -10 0 -88 87 -261 292 -13 15 -5 28
73 123 69 84 90 103 99 93 7 -7 45 -53 86 -103z m-7727 -159 c31 -35 56 -66
56 -70 0 -7 -149 -249 -253 -409 l-69 -107 -89 47 c-49 26 -89 52 -89 57 0 10
88 142 233 351 124 178 137 195 147 195 4 0 33 -29 64 -64z m6684 -302 c77
-154 155 -325 217 -477 23 -54 23 -57 5 -67 -31 -17 -374 -100 -382 -92 -13
13 -288 690 -288 708 0 7 66 28 151 49 83 20 160 40 172 45 12 5 26 8 31 6 6
-1 48 -79 94 -172z m-512 -1 c10 -34 169 -421 243 -592 22 -52 38 -98 35 -102
-8 -13 -204 -142 -209 -138 -2 3 -44 117 -94 254 -49 138 -102 284 -117 326
l-28 76 72 87 c40 48 72 92 72 97 0 16 20 10 26 -8z m-986 -229 c91 -9 168
-20 172 -23 4 -3 25 -130 48 -281 22 -151 47 -315 56 -363 9 -49 14 -91 11
-93 -5 -6 -382 14 -403 21 -6 2 -14 42 -18 92 -3 48 -11 120 -16 158 -11 72
-50 460 -50 489 0 20 -1 20 200 0z m-276 -66 c12 -72 67 -680 63 -685 -10 -10
-251 -143 -259 -143 -4 0 -8 19 -8 43 0 23 -9 175 -19 337 -19 290 -19 295 0
308 11 7 61 49 112 92 50 43 95 79 99 79 4 1 9 -14 12 -31z m1861 -404 c-31
-28 -69 -50 -100 -59 -63 -19 -249 -64 -252 -61 -2 1 24 21 56 44 41 28 83 47
137 61 44 11 104 29 134 40 78 28 81 25 25 -25z m-1617 -354 c40 -5 108 -10
152 -11 44 -2 80 -5 79 -8 0 -3 -48 -30 -107 -60 l-107 -53 -135 7 c-74 4
-155 11 -180 14 l-45 7 105 56 c112 60 125 63 238 48z"/>
<path d="M3326 8751 c-24 -26 -7 -58 37 -69 35 -10 34 -4 16 -115 -6 -38 -9
-139 -7 -225 4 -178 21 -237 75 -265 25 -14 214 -47 433 -78 143 -20 203 5
255 106 30 58 30 59 33 248 2 171 4 192 22 214 14 19 20 41 20 80 0 62 -13 93
-38 93 -29 0 -42 -21 -42 -67 0 -41 -1 -43 -31 -43 -82 0 -592 94 -683 125
-54 19 -70 19 -90 -4z m319 -141 c44 -11 113 -25 153 -31 l72 -12 0 -188 c0
-176 1 -189 20 -207 23 -21 84 -42 124 -42 33 0 33 -13 1 -34 -37 -25 -47 -24
-432 36 -54 8 -78 17 -95 35 -22 24 -23 30 -23 221 0 108 4 210 8 226 8 27 10
28 50 22 23 -4 78 -15 122 -26z"/>
<path d="M4389 8669 c-6 -13 -9 -44 -6 -72 3 -40 11 -56 33 -77 l30 -26 -4
-143 c-5 -152 6 -235 39 -311 22 -50 70 -104 111 -126 29 -15 147 -33 353 -54
182 -19 237 4 289 119 37 83 48 154 50 318 1 127 3 144 20 156 14 10 17 21 12
40 -6 26 -9 27 -74 27 -109 0 -674 43 -749 56 -31 6 -33 9 -33 48 0 23 -5 47
-12 54 -19 19 -46 14 -59 -9z m428 -205 l112 -7 3 -189 3 -190 26 -23 c19 -15
51 -26 108 -35 46 -7 81 -17 81 -24 0 -6 -16 -22 -35 -35 -32 -22 -42 -23
-113 -17 -171 15 -329 39 -368 56 -80 35 -121 179 -107 383 l6 100 86 -6 c47
-4 136 -9 198 -13z"/>
<path d="M4162 8028 c-37 -48 -116 -277 -110 -324 4 -34 41 -62 94 -70 49 -7
74 12 74 56 0 42 17 46 24 6 10 -54 40 -83 98 -95 44 -10 54 -9 69 5 23 21 24
68 4 144 -8 30 -20 91 -25 135 -6 44 -18 90 -26 102 -25 40 -178 70 -202 41z"/>
<path d="M7480 5877 c-72 -39 -90 -61 -67 -84 14 -14 22 -13 79 14 35 17 74
39 88 50 21 18 22 23 11 37 -20 23 -41 20 -111 -17z"/>
<path d="M7594 5825 c-48 -29 -59 -48 -37 -66 12 -11 25 -10 71 7 59 21 79 41
69 68 -9 24 -55 20 -103 -9z"/>
<path d="M8415 5526 c-110 -44 -125 -54 -125 -77 0 -42 30 -38 177 23 73 31
92 50 72 74 -16 20 -33 17 -124 -20z"/>
<path d="M7630 5221 c-132 -51 -150 -60 -150 -81 0 -10 5 -22 10 -25 14 -9
224 62 252 84 26 22 18 51 -14 51 -13 -1 -57 -14 -98 -29z"/>
<path d="M7580 5015 c-94 -39 -133 -64 -138 -89 -6 -30 29 -29 101 2 40 17 89
38 110 46 42 17 55 39 37 61 -16 19 -11 20 -110 -20z"/>
<path d="M8405 4397 c-126 -61 -147 -79 -122 -104 15 -15 26 -12 142 43 116
54 126 60 123 84 -2 13 -10 26 -18 27 -8 2 -64 -21 -125 -50z"/>
<path d="M3855 4694 c-106 -29 -149 -52 -153 -82 -6 -39 39 -39 162 2 61 21
117 43 124 48 17 15 15 45 -4 52 -22 8 -28 8 -129 -20z"/>
<path d="M4054 4617 c-142 -53 -168 -75 -130 -106 11 -9 41 -2 138 35 136 51
169 73 148 98 -18 22 -30 20 -156 -27z"/>
<path d="M4175 4046 c-76 -36 -99 -56 -93 -83 6 -29 65 -21 152 21 70 34 77
40 74 64 -4 39 -47 39 -133 -2z"/>
<path d="M4699 3988 c-53 -27 -64 -37 -64 -58 0 -16 6 -26 18 -28 25 -5 127
37 156 64 21 19 22 25 11 38 -19 24 -50 19 -121 -16z"/>
<path d="M4620 3788 c-65 -40 -81 -62 -60 -82 13 -13 23 -11 79 18 74 37 91
57 72 80 -19 22 -30 20 -91 -16z"/>
<path d="M4259 3413 c-11 -12 -14 -53 -14 -161 0 -124 2 -146 17 -155 12 -8
21 -7 32 2 24 20 24 316 0 325 -21 8 -20 8 -35 -11z"/>
<path d="M1893 4369 c-9 -9 -13 -49 -13 -126 0 -132 -8 -122 138 -177 98 -38
140 -44 147 -23 3 6 9 62 14 122 7 86 6 114 -4 131 -9 13 -44 30 -104 48 -113
35 -162 42 -178 25z"/>
<path d="M3077 4103 c-4 -3 -7 -64 -7 -134 0 -122 1 -129 22 -140 27 -15 215
-69 238 -69 39 0 49 30 52 154 3 117 3 119 -23 138 -47 35 -260 74 -282 51z"/>
<path d="M2464 3708 c-4 -7 -10 -96 -12 -200 -5 -195 2 -239 36 -253 34 -13
288 -60 308 -57 12 2 26 14 33 28 16 36 15 375 -2 397 -8 11 -68 31 -170 57
-175 44 -183 45 -193 28z m151 -89 c28 -6 74 -18 103 -26 l52 -14 0 -150 c0
-82 -3 -149 -7 -149 -5 0 -59 9 -120 21 l-113 21 0 160 c0 147 1 159 18 154 9
-3 40 -10 67 -17z"/>
<path d="M1973 2959 c-28 -10 -32 -42 -34 -237 -1 -106 2 -167 10 -176 15 -18
70 -40 181 -72 200 -57 198 -56 227 -42 36 17 40 40 42 209 0 75 3 138 6 141
5 5 83 -14 215 -52 36 -10 97 -28 137 -40 l72 -21 0 -154 c0 -212 2 -215 123
-254 135 -43 247 -71 283 -71 61 0 65 14 65 238 0 150 -3 203 -12 209 -7 4
-85 26 -173 49 -88 23 -218 58 -290 78 -191 53 -503 131 -640 160 -66 14 -136
30 -155 34 -20 5 -45 6 -57 1z m202 -115 c66 -14 126 -31 133 -37 14 -11 18
-282 3 -291 -4 -3 -35 3 -67 13 -33 11 -99 31 -147 46 l-88 26 2 77 c3 150 10
203 28 198 9 -2 70 -17 136 -32z m906 -231 l149 -37 0 -158 c0 -87 -2 -158 -4
-158 -12 0 -250 71 -280 84 l-36 15 0 145 c0 97 4 146 11 146 5 0 77 -17 160
-37z"/>
</g>
</svg>
