<?xml version="1.0" encoding="UTF-8" standalone="yes"?>
<svg version="1.0" xmlns="http://www.w3.org/2000/svg" width="1024.000000pt" height="1024.000000pt" viewBox="0 0 1024.000000 1024.000000" preserveAspectRatio="xMidYMid meet">
  <metadata>
Created by potrace 1.16, written by Peter Selinger 2001-2019
</metadata>
  <g transform="translate(0.000000,1024.000000) scale(0.100000,-0.100000)" fill="#000000" stroke="none">
    <path d="M5285 9494 c-82 -13 -276 -47 -430 -74 -154 -28 -347 -62 -430 -76&#xA;-82 -15 -267 -49 -410 -76 -143 -27 -332 -62 -420 -78 -88 -16 -324 -58 -525&#xA;-95 -334 -60 -778 -138 -858 -151 -43 -7 -98 -56 -114 -102 -9 -29 -12 -193&#xA;-12 -722 1 -684 1 -685 -20 -700 -12 -8 -69 -58 -128 -112 -306 -281 -448&#xA;-452 -448 -540 0 -22 35 -63 178 -207 246 -250 231 -250 409 -15 l22 29 -1&#xA;-560 c-2 -644 -6 -613 84 -664 57 -33 243 -108 412 -167 58 -20 112 -41 120&#xA;-48 16 -12 -12 -77 -221 -506 l-80 -165 -109 -94 c-60 -51 -158 -139 -219&#xA;-196 -147 -137 -289 -261 -312 -273 -12 -7 -74 -8 -168 -4 -83 4 -211 4 -285&#xA;0 -287 -16 -651 -75 -688 -112 -44 -44 28 -45 498 -6 241 19 444 25 487 14 19&#xA;-5 17 -10 -28 -53 -44 -43 -49 -52 -49 -92 0 -24 6 -70 14 -101 l13 -57 -181&#xA;0 c-346 1 -536 -45 -536 -129 0 -23 26 -52 87 -98 l28 -22 -40 -11 c-22 -6&#xA;-134 -20 -250 -31 -207 -21 -307 -40 -321 -61 -15 -25 27 -30 216 -25 426 11&#xA;582 86 430 206 -31 25 -38 35 -28 41 36 20 246 42 429 45 l197 2 28 -76 c40&#xA;-113 81 -189 111 -209 20 -14 46 -17 122 -16 116 1 253 19 300 39 19 8 77 57&#xA;129 109 l93 95 72 0 c171 0 445 -44 526 -83 81 -40 66 -52 -114 -91 -90 -20&#xA;-113 -29 -133 -51 -19 -22 -21 -30 -10 -42 18 -22 149 -12 258 20 67 20 91 33&#xA;117 61 68 73 25 158 -103 206 -68 25 -246 57 -405 73 l-120 12 183 181 183&#xA;181 141 12 c170 13 407 14 529 1 50 -5 164 -23 255 -39 91 -17 203 -32 250&#xA;-34 68 -2 84 -6 82 -17 -2 -8 -45 -107 -96 -220 -51 -113 -121 -272 -156 -355&#xA;-35 -82 -67 -155 -72 -161 -4 -6 -56 -14 -115 -17 -234 -15 -387 -85 -400&#xA;-184 -4 -32 0 -45 22 -71 34 -41 62 -55 187 -97 155 -52 185 -84 106 -111 -98&#xA;-34 -416 -47 -569 -23 -66 10 -74 10 -86 -7 -36 -49 76 -83 302 -91 321 -11&#xA;500 40 499 143 0 77 -51 117 -241 184 -91 32 -131 59 -118 80 10 17 75 46 135&#xA;61 32 7 110 13 185 13 135 0 207 -14 380 -74 73 -26 179 -27 267 -4 95 24 136&#xA;49 170 105 17 27 32 49 34 49 13 0 115 -43 119 -51 11 -17 95 -342 90 -347 -2&#xA;-3 -67 1 -144 8 -79 7 -176 10 -222 6 -159 -13 -306 -54 -344 -96 -37 -41 18&#xA;-51 135 -25 103 23 302 30 454 15 74 -7 139 -16 145 -19 9 -6 74 -232 68 -237&#xA;-1 -1 -59 -4 -129 -8 -184 -9 -386 -45 -498 -88 -114 -45 -160 -86 -167 -150&#xA;-11 -101 108 -182 357 -244 267 -66 585 -103 638 -75 27 14 28 33 2 56 -14 13&#xA;-65 23 -197 41 -370 48 -595 108 -670 177 -13 11 -23 26 -23 33 0 65 332 146&#xA;622 153 76 2 87 0 91 -16 3 -10 13 -50 22 -90 10 -42 26 -82 39 -96 36 -39&#xA;166 -82 337 -112 118 -21 148 -19 263 16 189 58 266 106 266 164 0 13 -13 65&#xA;-30 115 -16 50 -30 93 -30 93 0 1 26 1 57 -1 311 -13 585 -79 675 -160 70 -63&#xA;52 -84 -123 -140 -187 -60 -229 -85 -243 -145 -11 -45 33 -80 125 -101 128&#xA;-28 142 -58 45 -95 -123 -46 -316 -52 -668 -20 -326 29 -380 21 -468 -71 -68&#xA;-71 -86 -75 -309 -67 -133 5 -178 11 -306 42 -326 79 -524 100 -881 92 -269&#xA;-6 -386 -24 -484 -75 -67 -36 -95 -70 -95 -122 0 -81 67 -118 425 -234 222&#xA;-72 349 -127 357 -152 6 -18 -74 -52 -147 -63 -187 -30 -471 4 -745 89 -289&#xA;90 -431 109 -845 111 -335 3 -444 10 -598 40 -120 23 -263 72 -287 99 -60 66&#xA;53 113 456 190 119 22 241 48 270 56 128 38 189 91 189 162 0 148 -221 247&#xA;-890 397 -257 58 -426 123 -465 177 -22 33 -19 46 18 68 57 35 136 60 397 126&#xA;351 87 429 128 417 219 -11 82 -73 108 -352 150 -93 14 -187 30 -210 35 -64&#xA;15 -171 12 -184 -4 -18 -21 1 -51 40 -65 38 -13 155 -34 349 -61 168 -24 253&#xA;-46 248 -63 -7 -23 -111 -64 -231 -92 -242 -54 -283 -65 -352 -88 -216 -74&#xA;-298 -171 -235 -275 53 -87 225 -150 780 -282 310 -74 507 -150 554 -213 16&#xA;-21 18 -32 10 -45 -17 -27 -125 -58 -335 -97 -428 -80 -573 -137 -594 -235&#xA;-29 -132 150 -226 535 -281 41 -6 253 -14 470 -19 456 -9 476 -11 790 -100&#xA;256 -72 327 -86 528 -102 246 -20 408 10 491 89 39 38 43 46 37 75 -17 84&#xA;-138 150 -481 263 -213 70 -305 111 -305 135 0 18 61 41 158 61 188 38 666 35&#xA;898 -5 43 -8 139 -28 211 -45 213 -50 319 -63 488 -59 179 5 202 13 293 100&#xA;l63 61 122 -7 c67 -3 178 -12 247 -20 166 -19 489 -15 579 8 129 33 211 97&#xA;211 163 0 29 -8 44 -38 72 -21 20 -58 43 -82 50 -24 7 -55 17 -69 23 l-26 10&#xA;25 10 c14 5 64 20 112 33 166 43 238 97 245 182 7 83 -49 143 -190 202 -144&#xA;59 -320 94 -572 112 -77 5 -143 13 -147 17 -8 9 -276 839 -351 1087 -58 191&#xA;-93 332 -86 339 2 2 67 9 144 16 77 6 219 22 315 36 273 38 508 32 723 -17 26&#xA;-6 47 -13 47 -16 0 -20 -193 -710 -200 -717 -6 -5 -18 -10 -27 -11 -173 -16&#xA;-412 -83 -465 -132 -23 -21 -23 -50 1 -62 13 -8 44 -3 112 16 140 38 290 73&#xA;321 73 26 0 26 0 21 -60 -5 -54 -3 -63 18 -86 84 -91 312 -129 529 -90 188 34&#xA;206 48 221 156 6 41 14 79 19 83 10 11 425 -64 604 -108 158 -40 327 -103 371&#xA;-139 l30 -25 -40 -17 c-44 -18 -157 -41 -369 -74 -208 -33 -315 -76 -357 -143&#xA;-22 -35 -21 -96 2 -123 20 -25 97 -60 197 -89 50 -16 92 -32 92 -36 0 -5 -23&#xA;-15 -51 -23 -48 -15 -94 -19 -329 -31 -181 -9 -270 -28 -270 -56 0 -36 42 -42&#xA;270 -35 240 7 341 21 418 60 55 28 88 73 77 107 -11 33 -67 65 -181 103 -126&#xA;42 -150 55 -141 80 14 36 167 78 392 106 189 23 334 71 369 122 24 34 20 82&#xA;-9 116 -28 33 -174 109 -271 141 -141 47 -501 127 -679 152 -119 16 -115 11&#xA;-98 121 13 89 78 486 87 538 2 14 5 31 5 38 1 7 17 12 44 12 71 0 360 29 542&#xA;55 440 62 527 60 1000 -15 185 -30 223 -33 512 -37 325 -5 466 4 512 34 66 43&#xA;-56 61 -424 64 -298 2 -402 9 -580 38 -333 55 -335 55 -565 55 -202 0 -246 -4&#xA;-435 -32 -404 -62 -592 -80 -588 -56 1 7 8 62 15 122 l12 111 -73 163 c-144&#xA;320 -302 681 -299 684 4 3 326 71 583 123 377 76 685 143 741 161 84 28 103&#xA;51 117 141 23 151 12 2941 -13 3316 -10 140 -23 182 -63 207 -33 21 -447 132&#xA;-917 246 -488 118 -567 138 -1223 304 -346 88 -513 126 -550 125 -28 0 -119&#xA;-12 -202 -25z m347 -128 c73 -19 216 -58 318 -86 102 -28 338 -88 525 -135&#xA;367 -90 1234 -302 1354 -330 46 -11 68 -21 60 -25 -30 -17 -521 -111 -944&#xA;-181 -99 -16 -268 -45 -375 -64 -1035 -181 -1202 -209 -1570 -260 -375 -52&#xA;-461 -66 -504 -80 -36 -13 -49 -10 -225 41 -102 30 -375 117 -606 194 -231 76&#xA;-541 175 -690 220 -318 96 -541 167 -562 178 -9 6 34 17 124 31 76 12 235 40&#xA;353 62 118 22 325 60 460 84 135 24 369 67 520 95 151 28 365 67 475 86 110&#xA;19 272 48 360 64 292 52 749 133 787 139 4 1 67 -14 140 -33z m-3342 -607 c79&#xA;-21 589 -184 1340 -429 251 -81 521 -167 600 -190 80 -23 148 -45 152 -49 5&#xA;-4 11 -507 14 -1119 5 -843 4 -1112 -5 -1112 -6 0 -78 27 -159 59 -187 75&#xA;-229 88 -244 73 -20 -20 20 -62 85 -91 34 -15 123 -53 197 -85 l135 -57 -3&#xA;-108 -3 -109 -92 40 c-51 22 -173 73 -272 113 -99 41 -205 85 -235 99 -45 21&#xA;-57 23 -68 12 -10 -10 -10 -18 -2 -37 15 -33 19 -35 200 -112 85 -36 220 -93&#xA;300 -126 80 -34 151 -65 159 -70 20 -13 30 -847 10 -839 -8 3 -203 81 -434&#xA;173 -469 186 -946 368 -1195 455 -401 141 -534 197 -545 229 -4 12 -5 356 -3&#xA;764 2 408 -1 1032 -6 1387 -8 554 -9 749 -6 1093 0 31 1 57 3 57 1 0 36 -9 77&#xA;-21z m5824 -101 c3 -35 8 -308 12 -608 3 -300 7 -563 9 -585 7 -81 6 -1717 -1&#xA;-1933 -6 -192 -9 -224 -23 -232 -9 -5 -66 -18 -126 -29 -61 -12 -122 -24 -136&#xA;-27 l-26 -5 -6 133 c-9 188 -27 237 -74 203 -16 -12 -18 -30 -18 -186 l0 -173&#xA;-60 -12 c-33 -7 -61 -11 -63 -9 -2 2 -10 73 -18 159 -13 144 -34 236 -55 236&#xA;-25 0 -31 -49 -27 -231 1 -104 3 -189 2 -189 0 0 -57 -11 -125 -25 -68 -14&#xA;-149 -30 -179 -36 -30 -6 -210 -44 -400 -85 -190 -41 -428 -92 -530 -114 -102&#xA;-21 -237 -50 -300 -64 -611 -132 -789 -167 -1100 -220 -284 -48 -320 -52 -331&#xA;-35 -8 13 -14 829 -6 829 2 0 30 5 62 11 103 19 143 53 93 80 -21 11 -105 8&#xA;-140 -6 -14 -5 -17 2 -23 47 -3 29 -5 82 -3 118 l3 64 58 11 c71 12 89 33 56&#xA;66 -18 18 -29 21 -70 16 l-49 -6 0 1124 c0 1075 1 1125 18 1134 29 15 213 47&#xA;557 96 398 57 404 58 1105 185 118 21 377 66 575 100 438 74 916 167 1125 219&#xA;85 21 167 39 182 40 25 1 27 -1 32 -61z m-6015 -1503 l0 -110 -56 -45 c-61&#xA;-49 -204 -203 -272 -292 -24 -32 -47 -58 -51 -58 -9 0 -84 82 -107 117 -14 21&#xA;-11 27 55 110 63 79 232 252 367 376 62 56 64 53 64 -98z m-83 -512 c-47 -65&#xA;-94 -129 -105 -143 l-20 -25 -57 56 -57 57 33 48 c18 27 90 107 159 177 l126&#xA;128 3 -90 3 -90 -85 -118z m973 -1609 l150 -56 -105 -209 c-91 -183 -107 -208&#xA;-122 -200 -32 19 -215 166 -224 181 -7 11 12 60 68 178 42 89 79 162 80 162 2&#xA;0 71 -25 153 -56z m307 -120 c27 -9 54 -21 60 -26 8 -6 -19 -70 -89 -211 -54&#xA;-111 -125 -256 -157 -322 -31 -66 -72 -140 -90 -164 -32 -43 -32 -43 -86 -39&#xA;-30 3 -56 7 -59 10 -12 11 352 768 369 768 1 0 25 -7 52 -16z m399 -149 c205&#xA;-79 474 -186 516 -205 32 -15 39 -36 75 -232 l27 -147 -37 -60 c-20 -33 -57&#xA;-103 -80 -154 -44 -93 -44 -94 -85 -101 -46 -7 -165 5 -346 35 -282 48 -489&#xA;59 -705 40 -58 -5 -107 -8 -109 -6 -2 3 38 48 89 101 l92 97 127 261 c70 144&#xA;147 305 172 359 33 74 47 96 59 91 8 -3 101 -39 205 -79z m2645 -220 c48 -121&#xA;111 -291 140 -378 l54 -158 -14 -67 c-19 -97 -13 -92 -83 -75 -203 50 -510 53&#xA;-812 10 -241 -35 -405 -51 -415 -40 -4 4 -15 42 -24 83 l-17 75 41 87 c22 48&#xA;80 182 129 299 49 117 95 215 103 220 7 4 153 37 323 74 171 37 335 74 365 81&#xA;30 7 70 12 89 11 l34 -2 87 -220z m515 -20 c50 -116 119 -270 153 -344 37 -79&#xA;62 -145 60 -159 -3 -23 -11 -27 -83 -42 -44 -9 -95 -20 -112 -24 -27 -6 -33&#xA;-5 -33 9 0 9 -31 88 -70 175 -94 214 -189 453 -192 481 -3 20 10 31 77 71 44&#xA;27 87 47 95 45 9 -1 51 -87 105 -212z m-4081 49 c64 -48 116 -91 116 -95 0&#xA;-14 -121 -274 -134 -287 -10 -10 -33 5 -122 81 -60 51 -115 100 -121 109 -11&#xA;12 -1 39 55 151 38 78 72 134 79 132 6 -2 63 -43 127 -91z m2516 -9 c0 -3 -31&#xA;-78 -69 -168 -37 -89 -74 -179 -82 -199 -7 -21 -16 -38 -21 -38 -8 0 -10 7&#xA;-63 219 -20 79 -35 145 -33 146 2 1 50 11 108 22 109 21 160 27 160 18z m1314&#xA;-250 c40 -99 90 -219 111 -267 l38 -88 -42 -357 c-48 -402 -71 -566 -103 -730&#xA;-25 -130 -16 -124 -139 -98 -88 19 -139 42 -139 64 0 9 14 63 30 121 49 171&#xA;227 847 250 950 12 52 20 113 17 135 -2 22 -38 140 -80 262 -43 122 -77 228&#xA;-77 236 0 9 6 17 13 20 15 5 27 -20 121 -248z m-1680 133 c51 -178 161 -578&#xA;196 -717 23 -90 44 -170 47 -178 3 -8 -3 -13 -18 -13 -13 0 -81 -14 -152 -31&#xA;-70 -17 -130 -30 -132 -28 -2 2 -38 139 -80 304 -42 165 -99 382 -127 483 -28&#xA;100 -49 185 -46 187 6 7 220 43 260 44 36 1 37 0 52 -51z m-2359 -218 c66 -60&#xA;120 -114 120 -118 0 -5 -54 -58 -120 -118 -189 -172 -506 -486 -643 -637 -68&#xA;-76 -128 -135 -132 -130 -5 7 -32 73 -65 165 -5 12 11 26 64 58 78 47 89 70&#xA;42 90 -26 10 -35 8 -84 -20 l-55 -31 -17 53 c-9 29 -20 65 -25 80 -8 26 -2 33&#xA;113 130 67 56 203 175 302 264 194 174 367 323 375 324 3 0 59 -50 125 -110z&#xA;m2055 -165 c83 -343 181 -694 275 -985 30 -91 75 -232 100 -315 80 -257 170&#xA;-533 230 -703 31 -90 55 -166 52 -169 -3 -3 -28 0 -56 7 -56 13 -56 13 -86&#xA;152 -18 85 -42 125 -68 115 -21 -8 -22 -41 -2 -143 8 -43 13 -80 10 -82 -2 -2&#xA;-21 2 -42 11 -35 14 -39 19 -55 83 -10 38 -74 290 -144 559 -69 270 -153 589&#xA;-186 710 -87 316 -227 866 -228 893 0 12 4 22 10 22 5 0 35 18 67 40 l57 41&#xA;14 -38 c7 -21 31 -110 52 -198z m-1765 -19 l40 -12 -200 -201 c-110 -110 -284&#xA;-288 -387 -395 l-187 -195 -88 -13 c-49 -7 -97 -11 -108 -9 -34 7 209 257 650&#xA;669 196 184 194 183 280 156z m1521 -131 c14 -66 42 -167 60 -224 21 -63 32&#xA;-113 28 -125 -11 -35 -195 -440 -204 -450 -9 -9 -226 120 -250 148 -10 13 7&#xA;59 96 258 118 267 236 520 240 515 2 -1 15 -56 30 -122z m2679 -47 c-41 -270&#xA;-95 -602 -99 -605 -6 -6 -199 -44 -203 -40 -2 3 1 33 6 69 6 35 20 142 31 238&#xA;11 96 25 210 31 252 l11 78 37 10 c58 17 155 38 174 39 16 1 18 -4 12 -41z&#xA;m-1858 -439 c6 -19 55 -173 109 -344 129 -416 251 -781 313 -943 28 -74 51&#xA;-140 51 -148 0 -29 -269 -130 -289 -109 -14 16 -135 377 -283 845 -204 645&#xA;-209 663 -201 671 7 5 101 29 248 62 32 7 39 3 52 -34z m-663 -70 l27 -90 -57&#xA;-130 c-77 -175 -99 -204 -169 -224 -30 -9 -59 -15 -64 -13 -5 2 36 107 91 233&#xA;55 127 108 249 117 273 8 23 18 42 22 42 3 0 18 -41 33 -91z m-351 -295 c26&#xA;-13 47 -27 47 -29 0 -20 -62 -136 -76 -142 -13 -5 -270 69 -282 82 -2 1 18 52&#xA;43 113 l47 109 86 -54 c48 -30 108 -66 135 -79z m2757 84 c0 -24 -37 -287 -45&#xA;-324 -5 -23 -73 -47 -173 -59 -41 -6 -51 -4 -47 7 6 16 41 223 50 295 4 29 12&#xA;56 18 62 13 10 136 38 175 40 16 1 22 -5 22 -21z m-2334 -69 c13 -43 4 -51&#xA;-29 -26 -15 10 -16 17 -6 45 13 38 19 35 35 -19z"/>
    <path d="M6484 8926 c-11 -29 17 -44 126 -66 58 -11 155 -34 216 -50 124 -34&#xA;189 -38 198 -15 8 21 -24 39 -134 74 -119 38 -215 58 -319 67 -71 6 -81 5 -87&#xA;-10z"/>
    <path d="M6210 8880 c-19 -35 2 -55 72 -68 35 -6 121 -30 193 -52 149 -47 178&#xA;-48 183 -8 4 33 10 30 -173 86 -109 34 -225 62 -256 62 -5 0 -13 -9 -19 -20z"/>
    <path d="M3720 7934 c-25 -25 -80 -70 -122 -100 -75 -53 -100 -87 -83 -113 11&#xA;-19 30 -12 102 39 82 58 173 153 173 181 0 10 1 22 3 26 1 4 -5 9 -13 11 -8 1&#xA;-35 -18 -60 -44z"/>
    <path d="M3663 7688 c-11 -13 -50 -77 -88 -143 -87 -155 -198 -323 -277 -420&#xA;-106 -130 -113 -146 -78 -165 29 -15 63 6 141 87 111 115 231 321 323 556 36&#xA;90 24 135 -21 85z"/>
    <path d="M3193 7446 c-29 -40 -113 -142 -188 -226 -121 -135 -136 -156 -133&#xA;-184 2 -24 8 -32 27 -34 19 -3 42 14 108 80 201 198 344 439 261 438 -17 0&#xA;-37 -20 -75 -74z"/>
    <path d="M2362 6238 c-8 -8 -12 -56 -12 -150 0 -126 2 -138 19 -148 36 -19 51&#xA;21 51 135 0 130 -8 175 -29 175 -9 0 -22 -5 -29 -12z"/>
    <path d="M2578 6148 c-10 -17 -13 -79 -13 -240 0 -209 1 -218 21 -239 40 -40&#xA;45 -20 43 174 -4 302 -15 368 -51 305z"/>
    <path d="M6976 8074 c-36 -35 -5 -132 62 -197 20 -19 61 -47 90 -62 28 -14 52&#xA;-27 52 -29 0 -2 -28 -14 -62 -26 -133 -48 -225 -134 -298 -280 -51 -100 -70&#xA;-170 -70 -250 0 -82 30 -204 67 -273 43 -80 165 -202 238 -238 217 -107 527&#xA;-24 660 177 155 232 129 567 -56 744 -33 32 -81 69 -105 82 -24 12 -44 26 -44&#xA;29 0 4 16 9 36 12 66 11 94 56 56 90 -14 13 -39 17 -108 17 -170 1 -318 43&#xA;-376 106 -15 16 -44 48 -64 72 -39 46 -54 51 -78 26z m385 -374 c223 -43 369&#xA;-226 369 -465 0 -295 -202 -488 -495 -473 -105 6 -176 38 -254 115 -68 69&#xA;-115 158 -137 263 -18 87 -12 146 22 237 49 133 137 237 239 284 97 46 165 56&#xA;256 39z"/>
    <path d="M7000 7254 c-86 -73 -91 -220 -10 -305 32 -34 43 -39 82 -39 57 0 93&#xA;27 119 87 38 89 16 212 -46 261 -40 32 -104 30 -145 -4z"/>
    <path d="M5993 8042 c-10 -11 -35 -40 -56 -65 -20 -26 -57 -60 -81 -77 -116&#xA;-79 -320 -159 -501 -195 -98 -20 -125 -35 -125 -72 0 -37 39 -47 135 -35 44 6&#xA;81 9 82 8 2 -1 -18 -18 -45 -36 -267 -190 -337 -567 -155 -834 82 -120 196&#xA;-200 341 -237 301 -77 590 84 704 393 39 106 50 273 24 380 -35 148 -121 273&#xA;-248 358 -68 45 -131 66 -233 77 l-70 8 65 34 c133 69 222 155 236 228 13 68&#xA;-32 108 -73 65z m-23 -459 c92 -44 182 -129 220 -206 108 -221 63 -497 -109&#xA;-667 -158 -156 -371 -190 -576 -90 -237 114 -339 400 -232 655 50 120 137 209&#xA;272 278 108 55 160 67 265 64 82 -3 104 -7 160 -34z"/>
    <path d="M5870 7132 c-63 -62 -79 -171 -37 -252 55 -108 155 -113 224 -11 49&#xA;72 34 202 -32 268 -27 27 -41 33 -75 33 -36 0 -48 -6 -80 -38z"/>
    <path d="M7665 6293 c-1 -128 -19 -212 -54 -249 -31 -33 -168 -56 -371 -61&#xA;-174 -5 -369 5 -880 46 -181 15 -538 13 -680 -3 -131 -15 -264 -46 -344 -80&#xA;-62 -26 -158 -100 -201 -155 -112 -143 -174 -335 -129 -399 24 -34 68 -28 226&#xA;32 207 77 286 102 442 136 78 17 147 37 158 46 15 15 18 33 18 134 0 99 3 119&#xA;16 124 45 17 341 28 609 22 160 -4 304 -9 320 -11 17 -2 134 -7 261 -11 l232&#xA;-7 6 -61 c10 -87 25 -136 43 -143 30 -12 43 25 43 123 l0 91 57 7 c185 22 253&#xA;59 295 164 18 48 22 77 23 177 0 103 -3 125 -20 155 -14 22 -30 36 -45 38&#xA;l-25 3 0 -118z m-1915 -521 l0 -89 -57 -12 c-209 -45 -288 -69 -510 -157 -34&#xA;-13 -66 -24 -72 -24 -38 0 36 129 112 196 52 46 156 103 232 128 63 20 197 44&#xA;253 45 l42 1 0 -88z"/>
    <path d="M3395 3620 c-109 -17 -169 -50 -149 -82 23 -37 180 -49 367 -28 108&#xA;13 157 31 157 59 0 41 -42 54 -183 57 -73 2 -159 -1 -192 -6z"/>
    <path d="M5776 3600 c-68 -11 -109 -34 -104 -58 5 -28 98 -42 259 -40 128 3&#xA;150 5 168 22 30 28 26 45 -16 63 -46 19 -221 26 -307 13z"/>
    <path d="M8271 3555 c-51 -13 -125 -40 -165 -59 l-71 -34 -260 -6 c-143 -3&#xA;-273 -8 -290 -11 -76 -14 -92 -19 -127 -36 -41 -21 -47 -39 -23 -59 13 -11 42&#xA;-10 153 4 187 22 472 33 472 17 0 -18 -26 -64 -47 -83 -10 -10 -51 -22 -93&#xA;-29 -97 -15 -118 -23 -132 -55 -16 -35 -1 -42 65 -33 77 11 251 10 432 -2 173&#xA;-11 284 -4 444 31 111 24 167 44 207 75 18 14 42 25 53 25 32 0 127 -39 145&#xA;-59 55 -61 -109 -125 -404 -157 -314 -34 -370 -42 -406 -64 -19 -13 -34 -30&#xA;-34 -41 0 -21 8 -22 65 -9 54 12 189 27 310 35 199 12 348 40 453 85 117 50&#xA;148 137 74 210 -29 30 -56 44 -122 63 -47 14 -103 29 -124 32 -29 5 -55 21&#xA;-100 64 -79 74 -102 88 -178 106 -91 21 -188 18 -297 -10z m293 -84 c16 -6 13&#xA;-10 -21 -33 -95 -62 -123 -72 -218 -71 -98 0 -185 10 -185 21 0 14 66 47 140&#xA;69 76 22 241 31 284 14z"/>
    <path d="M5711 3279 c-94 -18 -121 -67 -53 -96 29 -12 61 -14 152 -10 148 7&#xA;189 22 190 69 0 32 -52 48 -152 47 -51 -1 -113 -5 -137 -10z"/>
    <path d="M9365 3087 c-32 -10 -40 -17 -40 -37 0 -36 56 -52 206 -58 139 -5&#xA;172 3 167 41 -2 16 -16 26 -53 39 -69 23 -229 31 -280 15z"/>
    <path d="M1525 3079 c-154 -8 -270 -41 -334 -95 -33 -28 -42 -70 -16 -80 8 -3&#xA;56 8 107 24 144 47 180 53 318 53 114 0 154 -5 357 -47 220 -45 234 -47 408&#xA;-48 141 -1 193 3 239 16 66 19 92 38 83 62 -5 13 -36 15 -224 14 -234 -1 -287&#xA;6 -533 62 -156 36 -264 47 -405 39z"/>
    <path d="M8982 2818 c-58 -10 -82 -25 -82 -52 0 -35 41 -48 177 -54 103 -4&#xA;126 -2 148 12 39 26 32 54 -17 76 -47 20 -160 29 -226 18z"/>
    <path d="M5937 2636 c-11 -28 61 -64 198 -99 176 -45 266 -59 435 -64 146 -5&#xA;171 -3 220 14 30 11 56 26 58 35 3 13 -23 16 -185 21 -203 6 -343 26 -545 77&#xA;-129 33 -173 37 -181 16z"/>
    <path d="M8790 2404 c-305 -23 -504 -84 -544 -168 -22 -47 -20 -69 10 -106 39&#xA;-45 79 -62 274 -115 321 -87 458 -144 538 -222 69 -69 51 -132 -59 -203 -103&#xA;-67 -230 -105 -449 -135 -496 -68 -699 -124 -750 -208 -24 -39 -25 -60 -3 -97&#xA;22 -39 84 -71 229 -118 67 -22 131 -45 143 -52 22 -11 22 -12 4 -32 -44 -49&#xA;-145 -79 -343 -102 -218 -24 -627 -15 -749 18 -48 13 -91 39 -91 56 0 3 39 25&#xA;88 47 142 67 179 126 114 184 -42 38 -110 56 -260 70 -286 26 -631 -28 -750&#xA;-118 -38 -29 -41 -66 -5 -71 12 -2 84 15 160 36 179 52 317 67 526 58 178 -7&#xA;254 -20 236 -42 -6 -7 -43 -25 -82 -40 -204 -78 -175 -213 59 -275 69 -19 116&#xA;-22 386 -26 408 -7 558 12 716 89 80 40 112 76 112 129 0 70 -47 101 -255 168&#xA;-71 23 -134 46 -138 50 -14 14 42 50 112 71 83 26 283 66 426 86 386 53 595&#xA;122 699 233 70 76 82 145 40 229 -59 120 -223 199 -639 312 -120 33 -195 65&#xA;-202 87 -5 16 39 38 112 57 152 39 280 49 528 43 224 -5 345 -19 575 -67 120&#xA;-25 167 -24 167 4 0 10 -11 27 -25 37 -47 35 -286 97 -455 118 -93 11 -375 20&#xA;-455 15z"/>
    <path d="M2057 2385 c-181 -25 -252 -58 -346 -161 -85 -93 -77 -146 24 -159&#xA;28 -4 92 -15 144 -26 144 -29 264 -33 476 -15 318 28 455 55 470 93 8 23 -20&#xA;60 -63 82 -20 10 -77 35 -126 55 -60 24 -103 49 -135 79 -36 34 -61 47 -100&#xA;56 -67 14 -220 12 -344 -4z m317 -94 c3 -5 -43 -28 -102 -51 l-107 -42 -102&#xA;21 c-151 32 -158 35 -95 50 96 24 395 40 406 22z"/>
    <path d="M3304 2164 c-95 -23 -129 -67 -79 -100 63 -42 424 -56 494 -20 57 30&#xA;35 71 -60 108 -72 28 -266 34 -355 12z"/>
    <path d="M7965 1951 c-91 -26 -152 -56 -170 -85 -9 -14 -22 -54 -28 -91 -9&#xA;-55 -9 -67 4 -80 28 -28 355 -77 424 -63 286 55 325 68 325 116 0 47 -26 68&#xA;-158 132 -192 93 -272 107 -397 71z m221 -91 c34 -13 30 -16 -67 -50 -63 -23&#xA;-70 -23 -138 -10 -39 7 -71 17 -71 21 0 9 72 36 124 47 49 9 114 6 152 -8z"/>
    <path d="M2720 1819 c-164 -12 -242 -53 -204 -107 40 -57 371 -64 476 -11 33&#xA;17 39 24 36 47 -6 56 -126 83 -308 71z"/>
    <path d="M916 1759 c-49 -12 -76 -35 -76 -64 0 -51 64 -73 232 -82 166 -8 248&#xA;16 248 73 0 32 -33 52 -116 69 -76 16 -227 18 -288 4z"/>
    <path d="M7106 1648 c-196 -18 -287 -82 -183 -128 60 -27 219 -44 351 -38 163&#xA;8 227 40 196 99 -30 56 -183 84 -364 67z"/>
    <path d="M8871 1224 c-105 -28 -161 -87 -115 -121 50 -36 265 -63 376 -45 105&#xA;16 177 42 195 69 14 22 14 25 -3 44 -22 25 -48 36 -124 55 -73 18 -260 17&#xA;-329 -2z"/>
    <path d="M4761 1055 c-86 -16 -154 -40 -171 -60 -18 -22 -1 -55 35 -71 135&#xA;-56 624 -62 752 -9 39 16 51 49 28 75 -59 65 -433 103 -644 65z"/>
  </g>
  <title>Wędrowiec (Strider)</title>
  <desc>Wędrowiec, dziwne stworzenie, które spaceruje po lawie w Netherze. Można go oswoić i na nim jeździć, używając grzyba na patyku, by bezpiecznie przeprawić się przez morza lawy.</desc>
</svg>