<?xml version="1.0" standalone="no"?>
<!DOCTYPE svg PUBLIC "-//W3C//DTD SVG 20010904//EN"
 "http://www.w3.org/TR/2001/REC-SVG-20010904/DTD/svg10.dtd">
<svg version="1.0" xmlns="http://www.w3.org/2000/svg"
 width="1024.000000pt" height="1024.000000pt" viewBox="0 0 1024.000000 1024.000000"
 preserveAspectRatio="xMidYMid meet">
<metadata>
Created by potrace 1.16, written by Peter Selinger 2001-2019
</metadata>
<g transform="translate(0.000000,1024.000000) scale(0.100000,-0.100000)"
fill="#000000" stroke="none">
<path d="M6255 9659 c-91 -10 -678 -42 -1250 -69 -205 -10 -403 -22 -697 -45
-179 -13 -201 -20 -235 -72 -20 -30 -20 -13 -3 -468 6 -143 13 -287 16 -320
l6 -60 -253 -43 c-317 -55 -326 -57 -361 -94 l-28 -30 0 -213 0 -213 -72 -12
c-40 -6 -107 -20 -148 -30 -41 -10 -271 -62 -510 -115 -843 -186 -1111 -250
-1288 -307 -76 -24 -104 -38 -131 -66 l-33 -36 4 -1186 3 -1187 -60 -22 c-79
-28 -335 -142 -364 -161 -45 -31 -48 -64 -40 -530 8 -483 22 -743 43 -775 21
-32 147 -95 308 -155 l148 -54 0 -333 c0 -393 -1 -390 89 -424 101 -38 493
-180 626 -226 226 -78 410 -145 419 -153 4 -5 -25 -82 -64 -172 -72 -161 -144
-345 -182 -464 -16 -53 -18 -68 -8 -104 15 -56 55 -95 105 -104 22 -4 128 -40
235 -81 107 -40 267 -96 355 -125 88 -28 231 -76 318 -106 109 -37 175 -54
209 -54 83 0 113 39 265 340 71 140 162 328 202 417 40 90 79 167 85 172 11
10 487 122 571 136 48 7 52 4 203 -185 215 -270 422 -518 502 -601 22 -23 52
-42 78 -49 40 -10 68 -5 405 79 527 131 841 232 866 279 5 9 10 220 12 469 l4
451 162 31 c88 17 163 31 166 31 3 0 54 -57 113 -127 139 -165 293 -339 380
-430 65 -68 72 -73 112 -73 23 0 57 6 75 13 29 13 268 169 452 296 39 26 121
81 184 122 161 104 402 284 423 317 20 30 23 83 8 113 -6 10 -129 137 -274
281 -144 145 -266 272 -270 283 -4 11 -4 179 0 373 l7 352 43 0 c23 0 63 -9
88 -20 58 -24 373 -220 486 -302 47 -34 155 -105 240 -158 85 -53 202 -126
260 -162 58 -36 120 -69 139 -73 44 -9 114 11 143 42 l23 25 -3 711 c-2 392 2
874 7 1072 25 851 31 1045 36 1134 3 52 10 234 15 405 5 171 13 385 16 476 6
153 5 169 -14 212 -31 71 -54 81 -201 89 -69 4 -173 14 -230 23 -75 12 -114
13 -140 6 -36 -10 -92 -55 -357 -289 -230 -203 -436 -370 -494 -401 -13 -7
-15 34 -16 365 -1 366 -1 373 -24 419 -12 26 -32 53 -44 61 -23 14 -220 40
-236 30 -6 -3 -10 -4 -10 -2 0 2 96 165 214 361 118 196 218 370 221 386 14
63 -16 116 -78 139 -16 6 -70 11 -122 11 -92 0 -423 19 -719 41 -141 10 -150
10 -175 -8 -14 -11 -75 -94 -136 -184 -60 -90 -141 -207 -178 -258 -37 -52
-83 -122 -102 -155 l-35 -62 -87 28 c-49 15 -106 32 -129 38 l-41 10 8 50 c14
91 33 777 30 1085 -4 344 1 328 -98 365 -56 21 -75 22 -188 9z m105 -463 c0
-171 -4 -267 -10 -271 -6 -4 -111 -24 -233 -45 -122 -21 -239 -41 -261 -45
l-38 -8 4 296 c2 163 6 298 9 301 5 5 380 32 487 35 l42 1 0 -264z m-639 -78
c-1 -167 -5 -305 -7 -307 -6 -7 -705 -104 -709 -99 -1 2 -5 154 -8 339 l-5
336 272 15 c149 8 314 16 366 16 l95 2 -4 -302z m-830 158 c0 -53 0 -206 -1
-340 l0 -244 -72 -12 c-40 -7 -150 -27 -244 -45 -95 -19 -199 -37 -232 -41
l-59 -6 -6 93 c-4 52 -10 223 -13 380 l-7 285 314 15 c173 8 316 14 317 13 2
-1 3 -45 3 -98z m1453 -658 c-3 -106 -9 -258 -13 -338 l-6 -145 -95 -17 c-134
-25 -414 -67 -418 -64 -1 2 1 152 4 335 7 309 8 331 25 331 16 0 77 11 384 69
55 10 106 19 113 20 11 1 12 -35 6 -191z m-629 -15 c-3 -54 -8 -204 -11 -334
l-6 -237 -37 -5 c-20 -3 -146 -25 -281 -50 -135 -25 -273 -49 -307 -53 l-63
-7 0 341 0 340 83 12 c61 8 557 80 620 89 4 0 5 -43 2 -96z m-814 -325 c0
-161 2 -312 4 -335 l5 -41 -73 -12 c-66 -11 -455 -84 -503 -95 -20 -4 -22 0
-28 73 -13 153 -25 488 -19 543 l6 56 81 12 c44 7 169 30 276 51 107 21 207
39 223 39 l27 1 1 -292z m2664 251 c88 -5 198 -14 245 -19 47 -5 127 -9 178
-9 l93 -1 -12 -22 c-7 -13 -55 -90 -108 -173 -53 -82 -130 -203 -171 -268 -41
-64 -82 -126 -90 -137 -15 -19 -18 -19 -230 19 -230 41 -520 108 -520 120 0
12 103 159 337 479 23 31 27 32 71 27 26 -3 119 -10 207 -16z m-3381 -326 c4
-137 10 -289 14 -340 l8 -92 -41 -9 c-41 -11 -302 -61 -437 -85 l-77 -14 -3
76 c-3 42 -5 196 -6 344 -2 210 0 268 10 271 15 4 497 93 514 95 8 1 14 -71
18 -246z m2436 -264 c63 -16 277 -71 475 -120 198 -50 378 -95 400 -101 39
-11 38 -12 -100 -39 -77 -15 -254 -49 -394 -75 -249 -46 -255 -46 -300 -31
-58 20 -549 133 -946 217 -150 31 -179 40 -134 40 14 0 175 27 359 59 184 33
360 64 390 69 92 16 130 13 250 -19z m-3154 -179 l9 -100 -25 0 c-14 0 -79 6
-145 14 -66 8 -151 17 -190 21 -88 7 -217 27 -212 31 15 15 473 131 523 133
l31 1 9 -100z m2219 -43 c232 -59 546 -133 705 -167 153 -33 153 -34 -55 -66
-55 -8 -187 -29 -294 -46 -157 -24 -198 -28 -219 -18 -25 11 -478 120 -747
180 -224 50 -285 65 -285 70 0 3 98 23 218 45 119 21 246 44 282 51 98 19 155
12 395 -49z m-2978 -53 c53 -8 100 -17 104 -20 5 -3 97 -14 206 -24 109 -11
234 -25 278 -31 l79 -12 -44 -12 c-108 -29 -444 -119 -545 -146 -60 -17 -161
-41 -225 -55 -63 -13 -146 -34 -185 -45 l-70 -20 -185 49 c-102 27 -251 62
-332 78 -82 16 -148 31 -148 34 0 3 46 13 103 23 56 10 217 44 357 77 140 33
311 73 380 89 69 16 126 29 128 30 1 1 46 -6 99 -15z m1908 -48 c22 -4 157
-36 300 -71 143 -35 303 -73 355 -85 122 -27 331 -79 350 -87 19 -8 -96 -31
-454 -94 l-290 -50 -95 26 c-53 15 -213 62 -356 105 -309 93 -509 150 -530
150 -8 0 -15 5 -15 10 0 6 17 10 38 11 20 0 170 24 332 53 162 29 302 49 310
45 8 -3 33 -10 55 -13z m3377 -371 l-4 -371 -299 -50 -299 -51 -2 372 -3 371
129 18 c70 10 178 31 240 48 113 30 227 49 236 39 3 -3 4 -173 2 -376z m-4172
196 c135 -40 371 -110 526 -157 155 -46 290 -84 300 -85 32 -1 -140 -46 -341
-89 -187 -40 -514 -113 -669 -150 -50 -12 -86 -15 -96 -10 -29 15 -335 98
-635 171 -312 76 -438 110 -431 116 2 2 145 40 317 83 173 43 411 106 529 139
118 33 224 58 235 57 11 -2 130 -36 265 -75z m5488 -34 l72 -12 -87 -70 c-106
-85 -538 -436 -644 -523 l-76 -62 -123 25 c-67 14 -125 25 -128 25 -3 0 26 22
64 49 38 27 213 171 389 321 l320 271 70 -7 c39 -3 103 -11 143 -17z m-2826
-35 c3 -10 5 -192 6 -404 l0 -386 -51 -6 c-29 -4 -187 -32 -352 -62 -165 -29
-306 -54 -314 -54 -8 0 -11 6 -7 16 3 9 6 186 7 394 l0 378 42 7 c188 28 474
86 592 119 67 19 72 19 77 -2z m-4897 -27 c66 -14 234 -55 375 -90 140 -35
269 -65 285 -67 l30 -3 3 -359 c2 -339 1 -358 -15 -351 -10 3 -198 52 -418
107 -220 56 -402 102 -404 104 -2 2 -7 159 -10 348 -6 342 -6 345 14 341 11
-3 74 -16 140 -30z m7853 -187 c-3 -84 -12 -234 -18 -334 l-13 -180 -75 -50
c-42 -27 -220 -147 -395 -266 -175 -120 -320 -218 -323 -218 -2 0 -4 119 -4
264 l0 264 287 234 c159 128 344 279 412 336 68 56 126 102 130 102 3 0 3 -69
-1 -152z m-6783 -78 c324 -92 359 -101 550 -145 88 -20 195 -48 238 -62 l77
-25 0 -584 c0 -321 -2 -584 -4 -584 -3 0 -25 14 -50 30 -169 114 -425 156
-621 100 -197 -55 -320 -159 -422 -355 -89 -171 -119 -331 -103 -540 17 -212
91 -392 233 -562 159 -189 284 -253 497 -253 146 0 307 63 417 164 l54 49 -5
-109 c-5 -103 -15 -1013 -17 -1694 -1 -173 -4 -344 -7 -378 l-5 -64 -32 6
c-17 4 -85 27 -151 52 -166 63 -603 224 -609 224 -3 0 -75 27 -160 61 l-155
60 0 244 0 244 35 -6 c46 -7 110 17 185 72 140 104 107 146 -63 81 -82 -32
-121 -33 -167 -5 -44 27 -170 138 -170 150 0 5 17 9 38 9 49 0 222 43 292 72
96 40 313 159 365 200 28 22 78 66 111 99 l61 58 33 -84 c33 -84 33 -85 68
-85 l35 0 -6 43 c-12 82 -38 148 -90 225 -83 121 -186 185 -246 151 -45 -25
-38 -44 31 -82 35 -19 74 -47 87 -61 l24 -25 -49 -45 c-109 -102 -382 -209
-624 -246 -229 -36 -565 -51 -628 -29 -27 9 -32 17 -38 56 -4 25 -4 170 -1
322 4 152 7 362 7 466 l1 190 257 85 c262 86 332 115 332 135 0 13 -190 109
-309 157 -79 32 -207 66 -381 102 l-105 21 -6 65 c-10 95 -23 1520 -15 1520 4
0 161 -38 349 -85 409 -101 473 -115 537 -115 46 0 49 1 55 31 4 18 4 193 0
390 -6 302 -5 359 6 359 8 0 127 -32 264 -70z m1981 -514 l-1 -493 -85 -17
c-158 -31 -564 -105 -720 -131 -85 -15 -165 -29 -177 -32 l-23 -5 0 470 c0
440 1 471 18 476 9 2 78 17 152 31 163 32 504 111 690 159 74 19 138 35 141
35 4 1 6 -221 5 -493z m3663 114 c142 -30 183 -47 201 -81 13 -23 13 -170 0
-739 -6 -256 -14 -729 -18 -1052 -4 -322 -10 -589 -13 -592 -3 -4 -46 21 -95
54 -88 61 -89 61 -152 58 l-63 -3 6 856 c6 775 -2 1351 -20 1492 -3 20 -1 37
3 37 5 0 73 -14 151 -30z m-1024 -247 c-4 -126 -7 -325 -8 -443 l-3 -215 -169
-33 c-489 -94 -529 -101 -537 -89 -9 14 -8 400 1 686 l6 195 30 8 c17 5 145
29 285 54 140 25 273 49 295 54 22 4 55 8 73 9 l32 1 -5 -227z m2121 -465 c-4
-287 -8 -523 -9 -525 -2 -1 -66 -9 -142 -18 -77 -9 -169 -22 -205 -30 -73 -16
-163 -30 -290 -45 -47 -6 -102 -13 -122 -16 l-38 -6 1 254 c0 139 6 288 12
332 l12 78 132 82 c73 44 192 121 265 170 225 149 373 244 382 245 6 1 6 -209
2 -521z m-3724 -55 c-2 -241 -6 -439 -7 -441 -1 -1 -60 -11 -131 -21 -71 -11
-174 -29 -229 -40 -55 -11 -192 -36 -305 -56 -113 -19 -215 -38 -227 -40 l-23
-5 0 434 0 434 48 10 c64 14 677 128 782 145 47 8 88 15 91 16 4 0 4 -196 1
-436z m-1047 -1150 c-4 -665 -11 -1218 -16 -1230 -11 -30 -23 -35 -188 -83
-219 -63 -762 -190 -814 -190 -4 0 -5 51 -3 113 3 61 10 292 16 512 16 604 9
540 74 682 75 163 96 252 103 434 8 222 -29 368 -129 511 l-44 63 -3 103 c-1
56 1 102 5 102 13 0 857 160 919 174 33 8 66 14 74 15 11 1 12 -192 6 -1206z
m3359 720 c-8 -393 11 -336 -191 -589 -111 -140 -96 -144 -329 87 -146 145
-196 189 -215 189 -58 0 -200 -133 -322 -300 -155 -212 -250 -335 -261 -338
-6 -1 -127 112 -269 253 -307 303 -287 293 -402 195 -38 -33 -73 -60 -76 -60
-3 0 -114 -115 -245 -255 -131 -140 -242 -255 -247 -255 -4 0 -69 64 -144 143
-75 78 -219 223 -319 322 -100 99 -187 189 -192 200 -6 11 -12 43 -13 70 l-3
50 39 7 c22 4 173 32 335 63 479 92 846 160 1345 251 442 80 1455 280 1464
290 2 2 15 4 28 4 l24 0 -7 -327z m-4868 236 c247 -43 434 -168 521 -349 56
-115 73 -193 73 -327 0 -498 -342 -888 -734 -835 -103 13 -155 35 -239 98
-146 110 -202 187 -259 351 -102 301 -83 592 53 797 138 209 352 307 585 265z
m6265 -421 c0 -23 0 -797 -1 -890 0 -37 -4 -48 -16 -48 -21 0 -105 37 -440
193 -160 75 -302 139 -317 142 l-27 7 0 258 0 258 33 6 c17 3 129 17 247 31
118 15 278 35 355 45 77 10 146 18 153 19 6 0 12 -9 13 -21z m-7951 -398 c61
-24 96 -25 108 -4 8 14 19 12 103 -12 52 -15 130 -41 174 -58 44 -18 122 -45
173 -61 50 -16 92 -31 92 -34 -1 -3 -104 -40 -231 -81 l-230 -76 -157 53
c-254 85 -452 156 -452 163 0 12 304 129 337 129 18 1 55 -8 83 -19z m5948
-284 c107 -112 264 -257 288 -268 29 -14 72 16 116 80 17 26 69 93 114 149 81
99 82 101 86 70 1 -18 0 -97 -3 -177 -4 -80 -10 -232 -15 -339 -6 -160 -10
-197 -24 -211 -9 -9 -52 -24 -96 -34 -43 -10 -162 -37 -264 -61 -278 -66 -422
-94 -533 -106 -114 -11 -153 -28 -164 -67 -5 -15 -7 -213 -7 -440 l2 -412 -22
-5 c-11 -3 -76 -19 -143 -34 l-123 -28 0 51 c0 28 -3 83 -5 121 -2 39 -7 161
-10 273 -5 229 -11 251 -78 320 -52 54 -70 63 -192 103 -54 17 -154 56 -224
86 -194 85 -153 87 -846 -38 -242 -43 -452 -81 -466 -83 l-26 -5 -6 317 c-6
322 -1 505 14 500 13 -4 339 -331 339 -339 0 -4 52 -53 116 -108 77 -68 123
-101 139 -101 18 0 36 15 67 58 23 31 98 118 167 192 70 75 171 186 226 248
72 81 124 129 183 169 46 30 84 54 86 52 61 -72 138 -154 313 -331 156 -159
221 -218 238 -218 16 0 39 20 81 73 32 39 103 126 159 192 55 66 153 193 218
282 65 89 125 167 135 172 26 14 82 -22 160 -103z m-6168 -21 c85 -36 196 -80
247 -97 51 -18 94 -37 96 -42 6 -16 -7 -954 -13 -959 -8 -9 -510 173 -532 192
-4 3 -10 230 -14 504 l-6 498 33 -15 c19 -8 104 -44 189 -81z m7535 -85 c183
-76 595 -269 621 -291 11 -9 14 -62 14 -296 l0 -285 -57 32 c-112 62 -406 246
-576 360 -149 100 -172 119 -171 140 1 14 2 112 3 218 l1 192 38 -16 c20 -9
78 -33 127 -54z m-785 -1042 c0 -189 -3 -360 -6 -380 -6 -34 -10 -38 -53 -47
-25 -6 -87 -23 -138 -39 -91 -29 -91 -29 -97 -8 -3 12 -6 182 -6 378 l0 357
83 25 c99 30 188 54 205 55 9 1 12 -74 12 -341z m-412 -524 c-10 -9 -533 -124
-564 -124 -2 0 -4 172 -4 383 l0 383 158 34 c86 18 216 46 287 60 l130 27 3
-375 c2 -292 -1 -379 -10 -388z m-1580 607 c20 -10 102 -42 182 -71 139 -50
200 -77 200 -91 0 -12 -670 -141 -829 -159 -76 -9 -76 -9 -261 52 -102 34
-216 76 -253 94 -63 30 -66 33 -40 38 15 3 208 35 428 70 220 36 418 69 440
75 62 14 93 13 133 -8z m-1354 -189 c3 -5 1 -130 -4 -278 -5 -148 -10 -370
-11 -492 -1 -123 -4 -235 -8 -250 -7 -24 -16 -27 -186 -64 -99 -21 -277 -64
-395 -95 -118 -30 -246 -62 -285 -69 -38 -7 -85 -16 -104 -20 l-34 -7 7 534
c4 293 9 535 11 537 1 2 50 12 109 22 58 11 255 54 438 96 287 66 388 87 445
93 6 0 14 -3 17 -7z m421 -107 c105 -40 212 -80 238 -90 91 -34 89 -24 85
-386 l-3 -317 -40 29 c-22 15 -92 71 -155 123 -63 53 -158 131 -210 175 -52
43 -109 94 -127 112 l-32 34 9 165 c5 91 9 182 10 204 0 32 3 37 18 31 9 -4
103 -40 207 -80z m-3404 44 c125 -29 143 -31 270 -26 l136 5 123 -123 123
-123 -7 -254 c-4 -139 -10 -255 -12 -257 -2 -2 -70 20 -151 51 -82 30 -257 90
-390 133 l-243 79 0 273 c0 150 4 273 8 273 4 0 69 -14 143 -31z m4773 -206
c12 -288 25 -1318 16 -1326 -18 -19 -253 -100 -414 -143 -93 -25 -173 -47
-176 -49 -12 -8 -363 -85 -367 -81 -2 2 -1 368 3 813 l7 810 191 27 c105 15
304 46 441 70 138 24 260 44 271 45 21 1 21 -4 28 -166z m1972 -201 c52 -57
94 -107 94 -111 0 -20 -440 -312 -455 -302 -5 3 -76 74 -157 156 l-148 151
133 43 c156 51 237 90 266 127 28 36 43 96 35 142 l-6 37 72 -70 c40 -38 114
-116 166 -173z m-3441 -242 c44 -35 156 -129 248 -209 l169 -144 -3 -399 c-2
-219 -7 -398 -10 -398 -14 0 -128 131 -224 255 -55 72 -158 199 -229 284
l-128 154 11 51 c6 28 13 158 17 289 l6 239 32 -29 c17 -17 67 -58 111 -93z
m2814 -61 l164 -171 -24 -23 c-26 -25 -326 -195 -345 -195 -7 0 -60 60 -120
133 -169 207 -195 238 -247 293 l-48 52 148 27 c81 15 173 33 203 40 103 24
90 31 269 -156z m-4926 -469 l188 -65 -6 -31 c-3 -16 -23 -88 -45 -158 -22
-70 -58 -196 -81 -279 -22 -84 -44 -155 -47 -158 -13 -11 -457 139 -454 153 2
7 25 69 52 138 27 69 72 188 100 265 71 192 78 207 93 203 7 -2 97 -32 200
-68z m613 -221 c64 -12 193 1 263 26 24 8 46 14 48 12 1 -2 -33 -73 -76 -158
-43 -85 -116 -233 -160 -329 -45 -96 -88 -183 -96 -193 -15 -21 -25 -19 -315
75 -85 28 -160 52 -166 53 -8 2 10 73 52 202 35 109 74 234 85 278 11 44 24
96 30 116 l9 36 135 -54 c74 -29 160 -58 191 -64z"/>
<path d="M3014 5379 c-55 -16 -127 -90 -163 -167 -34 -76 -61 -182 -61 -249 0
-66 28 -193 55 -248 126 -258 375 -223 490 70 24 60 28 85 28 175 1 89 -3 117
-27 186 -62 180 -188 272 -322 233z"/>
</g>
</svg>
