<?xml version="1.0" encoding="UTF-8" standalone="yes"?>
<svg version="1.0" xmlns="http://www.w3.org/2000/svg" width="1024.000000pt" height="1024.000000pt" viewBox="0 0 1024.000000 1024.000000" preserveAspectRatio="xMidYMid meet">
  <metadata>
Created by potrace 1.16, written by Peter Selinger 2001-2019
</metadata>
  <g transform="translate(0.000000,1024.000000) scale(0.100000,-0.100000)" fill="#000000" stroke="none">
    <path d="M8521 9371 c-77 -29 -149 -78 -178 -123 -14 -21 -29 -38 -33 -38 -4&#xA;0 -18 -24 -31 -52 -33 -75 -34 -209 -1 -290 48 -120 181 -208 325 -216 72 -4&#xA;83 -2 143 28 36 18 81 45 100 62 70 62 119 174 123 285 2 44 -24 147 -48 193&#xA;-27 53 -96 117 -151 142 -66 30 -180 34 -249 9z m200 -131 c64 -29 76 -41 104&#xA;-101 29 -63 32 -119 9 -200 -30 -105 -110 -169 -212 -169 -28 0 -53 4 -56 9&#xA;-3 4 -19 11 -36 14 -43 9 -116 80 -136 133 -20 51 -15 133 11 187 55 117 205&#xA;178 316 127z"/>
    <path d="M4382 9078 c-28 -28 -13 -56 49 -99 148 -100 360 -168 545 -173 111&#xA;-4 272 15 419 49 61 13 162 37 225 51 91 21 143 27 250 28 74 0 154 -2 177 -6&#xA;130 -22 242 -73 399 -179 103 -70 132 -80 154 -54 21 25 3 61 -52 108 -109 91&#xA;-250 170 -378 213 -80 26 -95 28 -270 28 -193 1 -217 -2 -485 -64 -343 -79&#xA;-478 -79 -735 2 -52 17 -130 48 -173 69 -82 41 -106 46 -125 27z"/>
    <path d="M1862 9058 c-16 -16 -15 -43 1 -56 22 -18 228 -123 280 -142 96 -36&#xA;182 -50 308 -51 132 0 176 5 419 51 85 16 169 32 185 35 52 9 241 6 291 -5 68&#xA;-15 164 -55 244 -101 76 -44 90 -47 114 -20 14 15 15 24 7 39 -34 65 -204 159&#xA;-336 188 -104 22 -297 14 -490 -22 -276 -51 -324 -56 -460 -51 -141 6 -214 22&#xA;-320 75 -74 36 -178 72 -208 72 -13 0 -28 -5 -35 -12z"/>
    <path d="M1091 8388 c-17 -44 76 -113 238 -177 215 -84 358 -81 671 14 149 45&#xA;205 56 270 51 109 -10 141 -20 270 -89 69 -36 152 -73 185 -82 127 -33 337 -8&#xA;476 55 36 16 53 54 36 80 -18 31 -40 33 -114 12 -125 -36 -164 -43 -252 -43&#xA;-102 0 -128 8 -281 89 -153 81 -213 96 -360 89 -101 -4 -133 -10 -263 -51&#xA;-172 -54 -269 -76 -336 -76 -55 0 -223 40 -270 64 -67 35 -205 86 -233 86 -20&#xA;0 -31 -6 -37 -22z"/>
    <path d="M8142 8357 c-64 -24 -138 -91 -168 -154 -63 -131 -36 -276 70 -369&#xA;119 -104 293 -96 405 18 86 89 112 247 58 359 -31 67 -99 130 -155 147 -50 15&#xA;-167 14 -210 -1z m187 -142 c36 -18 64 -57 79 -112 15 -50 8 -83 -26 -139 -48&#xA;-77 -131 -100 -214 -58 -55 28 -76 56 -94 124 -16 63 -3 114 41 156 57 53 144&#xA;66 214 29z"/>
    <path d="M4960 7833 c-30 -7 -131 -29 -225 -49 -237 -49 -277 -58 -475 -97&#xA;-96 -20 -231 -49 -300 -66 -69 -16 -141 -32 -160 -36 -19 -3 -53 -10 -75 -15&#xA;-22 -5 -134 -30 -250 -55 -323 -71 -819 -190 -1100 -264 -60 -16 -188 -50&#xA;-282 -75 -220 -58 -431 -123 -459 -141 -30 -20 -36 -63 -49 -380 -10 -225 -12&#xA;-256 -21 -265 -5 -5 -106 -31 -224 -59 -220 -52 -377 -94 -465 -128 -70 -26&#xA;-82 -54 -91 -223 -8 -150 -9 -174 -1 -194 10 -26 393 -270 769 -490 75 -44 98&#xA;-62 99 -79 5 -94 20 -120 89 -158 19 -11 73 -43 120 -72 47 -30 135 -84 195&#xA;-122 61 -37 112 -69 114 -71 13 -12 -147 -148 -214 -182 -71 -35 -174 -62&#xA;-242 -62 -70 0 -181 25 -286 65 -79 29 -90 30 -111 9 -48 -47 6 -102 150 -152&#xA;96 -33 188 -45 285 -38 171 13 294 76 451 233 l67 66 198 -123 c109 -68 202&#xA;-127 206 -131 12 -10 -49 -120 -98 -175 -5 -6 -35 -42 -65 -79 -135 -166 -369&#xA;-293 -517 -279 -16 1 -35 2 -44 3 -9 1 -40 17 -68 36 -28 19 -59 35 -69 35&#xA;-10 0 -43 -13 -73 -29 -30 -16 -88 -41 -129 -54 -188 -62 -308 -39 -516 100&#xA;-66 44 -88 54 -115 51 -27 -2 -35 -8 -37 -27 -9 -60 212 -217 359 -254 69 -18&#xA;194 -21 267 -7 31 6 97 27 145 47 l89 36 42 -22 c58 -28 176 -40 262 -25 160&#xA;27 307 115 455 274 l101 109 62 -41 c33 -22 73 -49 87 -58 49 -34 287 -178&#xA;328 -199 23 -12 39 -26 35 -32 -23 -38 -520 -378 -752 -515 -46 -27 -96 -56&#xA;-110 -65 -68 -41 -527 -296 -700 -389 -243 -130 -230 -110 -215 -329 6 -88 16&#xA;-168 22 -179 6 -12 48 -47 93 -79 46 -31 88 -61 93 -66 10 -8 72 -51 478 -330&#xA;97 -67 235 -162 305 -210 70 -48 157 -106 195 -129 63 -38 71 -40 130 -36 47&#xA;3 80 13 137 42 206 105 306 171 470 311 44 37 205 198 246 245 16 19 70 80&#xA;118 134 145 164 458 552 584 725 9 12 42 55 73 95 30 39 92 122 138 183 94&#xA;128 76 124 191 46 35 -24 97 -60 137 -79 l72 -35 88 11 c117 15 372 72 519&#xA;115 65 19 132 35 147 35 47 0 494 -163 521 -190 15 -15 -50 -77 -204 -193 -74&#xA;-55 -150 -115 -167 -131 -44 -40 -44 -81 -1 -125 39 -40 164 -130 270 -194 42&#xA;-25 101 -62 130 -80 29 -19 132 -75 228 -125 153 -79 185 -92 255 -102 161&#xA;-24 407 -4 503 42 43 20 127 114 191 213 14 22 29 42 32 45 15 12 324 488 393&#xA;606 42 72 84 138 94 146 9 8 64 27 122 42 58 16 113 33 123 38 72 38 153 160&#xA;191 288 9 30 16 56 16 58 0 1 0 6 0 11 0 5 48 11 108 13 220 9 313 71 362 242&#xA;16 58 26 72 112 157 106 106 144 165 207 323 55 140 71 220 72 359 1 99 -2&#xA;123 -30 212 -36 113 -38 141 -45 544 -5 297 5 273 -130 311 -44 13 -218 63&#xA;-386 113 -452 133 -477 139 -535 133 -82 -10 -173 -27 -297 -57 -64 -16 -120&#xA;-29 -123 -29 -6 0 -3 87 10 255 3 33 7 113 11 177 l6 117 -62 48 c-77 61 -210&#xA;137 -470 270 -113 58 -232 120 -265 139 -34 18 -83 42 -110 52 -28 11 -113 50&#xA;-190 87 -77 37 -169 80 -205 97 -36 16 -78 35 -95 43 -132 64 -729 321 -850&#xA;367 -44 16 -125 47 -180 68 -167 63 -208 71 -285 53z m182 -157 c259 -93 724&#xA;-283 751 -306 5 -4 -27 -15 -70 -25 -43 -9 -163 -42 -268 -72 -104 -30 -235&#xA;-65 -290 -78 -55 -14 -173 -46 -262 -71 -90 -25 -169 -43 -175 -40 -7 3 -29&#xA;16 -48 28 -50 30 -644 329 -710 357 l-55 23 50 14 c28 7 163 36 300 64 138 29&#xA;331 69 430 90 166 36 211 45 242 49 6 0 53 -14 105 -33z m-1262 -265 c88 -25&#xA;213 -78 340 -143 175 -91 363 -191 393 -208 l28 -17 -28 -11 c-15 -6 -122 -34&#xA;-238 -62 -115 -28 -246 -62 -290 -75 -44 -13 -201 -56 -350 -96 -404 -107&#xA;-462 -123 -686 -188 -113 -33 -242 -74 -287 -91 l-81 -31 -108 62 c-60 34&#xA;-137 78 -173 97 -36 19 -154 86 -262 148 -109 63 -218 124 -243 136 -25 12&#xA;-45 25 -45 28 0 4 177 56 225 66 6 1 60 16 120 32 175 49 399 105 700 177 154&#xA;36 336 80 405 97 201 49 432 96 475 97 22 1 69 -7 105 -18z m2352 -195 c433&#xA;-189 829 -382 1077 -524 68 -40 126 -74 128 -76 3 -2 -22 -9 -54 -15 -55 -11&#xA;-243 -53 -468 -106 -339 -80 -504 -115 -533 -115 -30 0 -152 41 -177 60 -5 4&#xA;-50 29 -100 55 -49 26 -117 62 -150 80 -33 19 -177 90 -320 158 -143 68 -332&#xA;159 -420 202 l-160 78 55 18 c30 9 141 41 245 69 105 29 249 69 320 90 72 21&#xA;168 45 215 54 196 36 196 36 342 -28z m-1246 -312 c221 -97 1123 -542 1163&#xA;-573 l24 -19 -49 -11 c-27 -6 -107 -26 -179 -45 -71 -19 -193 -51 -270 -71&#xA;-254 -67 -349 -92 -470 -124 -281 -75 -397 -106 -590 -156 -71 -18 -195 -51&#xA;-275 -73 -80 -22 -186 -49 -235 -62 l-90 -22 -40 22 c-22 13 -74 41 -115 63&#xA;-41 22 -120 65 -175 97 -127 73 -435 242 -635 350 -190 103 -229 127 -209 134&#xA;64 23 418 130 534 161 374 102 779 208 895 235 47 11 119 28 160 39 41 10 93&#xA;22 115 26 22 4 51 9 65 11 14 3 32 7 40 9 14 4 30 7 130 25 89 15 145 11 206&#xA;-16z m-3160 -80 c179 -102 416 -235 599 -336 99 -55 186 -107 193 -116 15 -19&#xA;16 -223 3 -387 -5 -60 -12 -144 -16 -185 -3 -41 -8 -97 -11 -125 -2 -27 -7&#xA;-153 -10 -280 -3 -126 -7 -231 -9 -233 -2 -3 -161 96 -430 267 -71 46 -146 93&#xA;-165 105 -19 12 -74 48 -121 79 -47 31 -91 57 -97 57 -33 0 -61 697 -44 1118&#xA;2 50 5 92 6 92 2 0 48 -25 102 -56z m5710 -401 c-2 -49 -8 -152 -12 -230 -4&#xA;-78 -10 -146 -13 -151 -3 -5 -69 -24 -146 -41 -77 -17 -158 -35 -180 -41 -22&#xA;-5 -83 -18 -135 -29 -196 -42 -336 -73 -495 -111 -91 -22 -168 -40 -172 -40&#xA;-16 0 67 75 137 124 84 58 157 98 213 116 47 15 63 47 46 97 -21 65 -113 93&#xA;-194 59 -74 -31 -200 -139 -264 -225 -60 -82 -79 -118 -87 -169 -7 -46 3 -41&#xA;-214 -92 -146 -34 -326 -83 -484 -133 -161 -50 -193 -100 -198 -307 l-3 -114&#xA;-80 -24 c-44 -12 -109 -32 -145 -42 -36 -11 -114 -33 -175 -51 -60 -17 -147&#xA;-42 -192 -55 l-81 -24 -10 -48 c-6 -26 -13 -94 -16 -150 -7 -115 -15 -138 -54&#xA;-153 -35 -14 -344 -107 -374 -113 -13 -3 -63 -16 -111 -29 l-89 -24 7 136 c4&#xA;75 8 147 10 161 2 14 6 102 10 195 3 94 10 215 15 270 8 92 22 307 24 397 1&#xA;21 6 42 11 47 14 13 163 54 555 152 69 17 132 34 140 37 8 3 20 6 26 7 7 2 70&#xA;19 140 38 71 20 190 52 264 71 74 20 306 81 515 137 330 88 452 119 515 134 8&#xA;2 159 40 335 85 519 133 549 140 742 175 102 19 188 37 191 40 3 3 11 5 19 5&#xA;11 0 13 -18 9 -87z m-4506 -275 c74 -41 205 -112 290 -158 85 -46 198 -109&#xA;250 -140 52 -31 127 -74 165 -95 39 -21 103 -56 144 -78 l73 -40 -6 -146 c-4&#xA;-80 -9 -177 -11 -216 -3 -38 -9 -155 -15 -260 -18 -344 -20 -369 -26 -465 -4&#xA;-52 -8 -97 -10 -99 -8 -9 -686 339 -759 389 -22 15 -57 35 -77 43 -20 8 -63&#xA;32 -97 54 -33 21 -102 61 -152 88 l-91 50 6 250 c3 138 8 270 11 295 2 25 7&#xA;90 9 145 3 55 8 138 11 185 10 161 14 225 14 287 l1 61 68 -37 c37 -21 128&#xA;-72 202 -113z m-1446 25 c7 -86 11 -150 26 -418 5 -99 13 -222 16 -273 l7 -93&#xA;-49 29 c-168 99 -409 248 -531 328 l-143 93 -1 43 c-1 69 2 153 7 157 2 2 30&#xA;-19 63 -47 85 -74 293 -219 386 -268 113 -60 198 -77 175 -35 -20 37 -215 182&#xA;-411 304 -58 37 -113 75 -123 86 -17 19 -17 20 21 31 38 11 532 138 544 139 4&#xA;1 10 -34 13 -76z m6881 -262 c176 -51 327 -95 335 -98 17 -6 5 -10 -255 -77&#xA;-99 -26 -241 -63 -315 -82 -175 -46 -826 -211 -908 -231 l-63 -15 -52 54&#xA;c-127 132 -253 188 -417 188 -359 -1 -650 -241 -705 -580 -62 -388 69 -718&#xA;335 -847 131 -64 209 -84 322 -85 103 0 171 15 268 59 30 14 69 31 87 39 75&#xA;34 202 175 249 278 32 71 64 224 64 308 0 126 -44 367 -84 459 -6 13 8 20 81&#xA;39 48 12 97 24 108 26 67 13 1067 269 1303 334 85 23 157 39 160 35 4 -4 9&#xA;-138 12 -298 6 -291 6 -292 35 -377 27 -77 30 -97 30 -210 -1 -82 -7 -152 -19&#xA;-205 -21 -92 -100 -264 -146 -315 l-31 -35 7 35 c37 191 32 427 -10 552 -28&#xA;80 -89 199 -132 255 -29 38 -67 51 -90 32 -23 -19 -11 -61 41 -142 24 -38 57&#xA;-106 72 -151 26 -76 28 -91 28 -251 0 -172 -10 -257 -47 -395 -69 -263 -72&#xA;-270 -137 -301 -127 -60 -310 -43 -566 52 -77 28 -103 33 -180 33 -81 1 -99&#xA;-3 -181 -36 -228 -94 -390 -96 -529 -6 -19 13 -35 26 -35 29 0 7 132 69 148&#xA;69 17 0 15 26 -4 44 -18 19 -95 21 -163 5 -104 -24 -217 -100 -256 -173 -18&#xA;-33 -18 -37 -3 -52 15 -15 22 -14 91 22 l76 38 58 -55 c32 -30 80 -68 106 -84&#xA;26 -17 74 -49 107 -73 147 -107 344 -144 492 -93 86 30 192 95 235 147 l40 45&#xA;64 -16 c97 -24 109 -31 109 -62 -1 -61 -84 -219 -129 -242 -32 -17 -437 -116&#xA;-611 -150 -477 -91 -885 -149 -967 -136 -26 4 -47 13 -52 24 -6 10 -10 89 -10&#xA;177 -1 176 -4 201 -25 223 -12 11 -18 12 -29 2 -16 -13 -25 -78 -33 -251 -3&#xA;-63 -6 -116 -8 -117 -2 -2 -52 18 -112 45 -60 27 -201 82 -314 121 -113 40&#xA;-243 88 -290 106 -47 18 -137 52 -200 75 -170 61 -345 136 -430 184 -81 45&#xA;-89 59 -75 132 5 30 11 35 60 50 30 10 67 30 81 45 24 25 28 41 40 146 42 397&#xA;45 416 56 430 9 12 121 53 144 53 10 0 13 -74 14 -332 0 -183 2 -344 4 -358 3&#xA;-14 7 -55 11 -92 9 -97 63 -171 84 -116 16 42 20 151 22 534 2 339 7 502 23&#xA;743 3 41 6 125 7 188 3 168 2 166 174 220 131 40 512 140 704 183 47 11 154&#xA;35 236 55 83 19 202 47 265 61 63 13 210 47 325 74 116 27 255 58 310 69 55&#xA;12 161 35 235 52 376 87 340 89 755 -30z m-1554 -407 c119 -35 175 -76 236&#xA;-171 32 -50 83 -146 83 -156 0 -2 -26 -3 -57 -2 -224 7 -572 -75 -858 -202&#xA;-55 -24 -106 -47 -112 -50 -31 -13 0 159 49 266 46 104 163 227 266 280 111&#xA;58 268 72 393 35z m-5006 -69 c28 -18 84 -54 125 -80 348 -222 825 -509 1055&#xA;-635 94 -51 216 -118 271 -149 75 -42 504 -261 521 -267 7 -2 -21 -364 -28&#xA;-364 -9 0 -141 73 -279 155 -58 34 -170 99 -250 145 -80 46 -179 104 -220 130&#xA;-41 25 -124 75 -183 110 -59 36 -125 76 -147 90 -21 14 -60 38 -87 54 -26 16&#xA;-167 104 -313 196 -146 91 -308 192 -360 224 -52 32 -128 78 -167 103 l-73 46&#xA;0 61 c0 34 -3 108 -7 165 l-6 103 49 -28 c27 -15 72 -42 99 -59z m5359 -405&#xA;c29 -28 29 -234 -1 -364 -48 -213 -226 -378 -440 -408 -159 -22 -328 31 -444&#xA;139 -78 74 -141 180 -164 278 -9 39 -18 76 -20 82 -8 25 178 118 360 180 66&#xA;22 285 83 300 83 4 0 4 -12 1 -26 -13 -50 -7 -208 9 -254 26 -78 45 -109 94&#xA;-155 66 -63 174 -28 221 72 38 81 44 150 25 265 -9 55 -19 108 -22 116 -5 12&#xA;0 14 33 8 21 -4 43 -11 48 -16z m-1946 -132 l-3 -101 -130 -42 c-71 -23 -142&#xA;-45 -156 -48 -64 -16 -77 -49 -93 -237 -13 -150 -27 -284 -30 -287 -2 -3 -527&#xA;-161 -591 -178 -27 -8 -111 -32 -185 -54 -74 -22 -139 -41 -143 -41 -8 0 -5&#xA;103 9 290 8 101 -21 82 229 155 409 120 485 148 505 186 6 11 15 57 20 102 17&#xA;152 22 192 25 195 2 2 25 9 51 17 182 51 433 125 454 134 14 5 29 10 33 10 4&#xA;1 6 -45 5 -101z m-2281 -636 c137 -82 267 -159 291 -172 l42 -24 -37 -38 c-20&#xA;-21 -44 -38 -53 -38 -35 0 -550 306 -550 327 0 9 50 93 55 93 3 0 116 -67 252&#xA;-148z m564 -328 c156 -94 309 -174 332 -173 12 0 63 11 112 23 50 13 92 22 94&#xA;20 4 -4 -256 -351 -418 -558 -203 -258 -477 -555 -731 -791 -99 -92 -437 -355&#xA;-455 -355 -8 0 -70 37 -139 83 -69 45 -184 120 -256 166 -71 46 -130 87 -130&#xA;90 0 3 51 35 113 71 373 214 477 279 487 304 11 31 -8 49 -43 42 -31 -6 -343&#xA;-167 -457 -236 -181 -108 -188 -112 -212 -99 -33 17 -317 209 -322 217 -2 4&#xA;113 72 257 151 800 440 1085 620 1437 907 69 56 145 123 170 148 24 25 49 46&#xA;56 46 6 0 54 -25 105 -56z m1044 -11 c-9 -52 -49 -170 -75 -229 -45 -98 -192&#xA;-312 -441 -644 -411 -547 -785 -963 -1027 -1143 -150 -112 -353 -224 -383&#xA;-212 -14 5 -95 210 -115 289 -8 33 4 47 74 87 155 86 322 228 617 524 265 265&#xA;471 510 842 998 98 130 108 140 167 166 61 28 118 80 131 120 4 13 21 25 48&#xA;32 23 7 67 20 97 30 74 24 73 24 65 -18z m169 -128 c25 -20 46 -39 46 -43 0&#xA;-4 -7 -43 -15 -88 -7 -44 -15 -119 -16 -167 -2 -54 -7 -87 -13 -87 -21 1 -171&#xA;98 -174 113 -2 8 14 50 36 94 21 43 47 108 58 146 10 37 22 67 25 67 3 0 27&#xA;-16 53 -35z m2916 -24 c0 -9 -11 -28 -24 -40 -20 -19 -35 -23 -94 -23 -70 0&#xA;-212 27 -212 42 0 4 42 13 93 20 50 7 97 15 102 19 6 3 26 11 45 17 42 13 90&#xA;-6 90 -35z m-2655 -136 c89 -43 245 -110 318 -136 20 -7 37 -16 37 -20 0 -13&#xA;-321 -90 -431 -104 l-56 -7 -6 144 c-4 78 -9 159 -13 178 l-7 34 34 -22 c19&#xA;-12 75 -42 124 -67z m2594 -417 c-36 -72 -343 -546 -442 -683 -82 -113 -104&#xA;-133 -161 -144 -107 -21 -277 -34 -314 -24 -20 5 -17 11 36 72 59 66 171 214&#xA;232 305 84 125 147 286 110 286 -11 0 -41 -31 -79 -80 -166 -221 -437 -550&#xA;-451 -550 -4 0 -57 25 -116 56 -60 31 -126 65 -148 76 l-39 20 39 31 c93 77&#xA;139 140 123 169 -13 25 -38 22 -80 -10 -179 -135 -172 -131 -194 -120 -37 19&#xA;-209 136 -243 165 l-33 28 108 80 c59 44 146 116 193 161 l85 81 70 -26 c60&#xA;-22 85 -26 180 -25 201 2 764 89 1090 169 28 6 51 11 53 9 2 -1 -7 -22 -19&#xA;-46z m-6056 -640 c96 -61 150 -98 387 -263 96 -66 243 -167 326 -224 83 -56&#xA;156 -112 163 -124 14 -27 61 -180 57 -184 -3 -3 -140 88 -451 300 -66 45 -218&#xA;148 -337 230 -119 81 -219 154 -222 163 -10 25 -20 154 -12 154 4 0 44 -24 89&#xA;-52z"/>
    <path d="M8229 5034 c-25 -31 -5 -155 30 -181 37 -28 81 1 81 53 0 101 -68&#xA;179 -111 128z"/>
    <path d="M7954 4996 c-14 -57 57 -166 108 -166 55 0 64 55 19 117 -54 74 -115&#xA;97 -127 49z"/>
    <path d="M5571 4141 c-30 -19 -43 -283 -17 -346 19 -46 49 -47 67 -2 21 48 20&#xA;334 -1 347 -19 12 -31 12 -49 1z"/>
    <path d="M5753 3923 c-21 -32 -24 -165 -5 -200 19 -34 57 -30 72 7 15 36 6&#xA;185 -12 207 -16 20 -36 15 -55 -14z"/>
    <path d="M8761 7503 c-96 -50 -150 -154 -137 -263 12 -103 92 -197 192 -226&#xA;53 -15 62 -15 116 0 152 42 227 159 201 313 -23 131 -97 194 -238 201 -73 4&#xA;-85 1 -134 -25z m189 -115 c44 -30 72 -84 64 -123 -20 -101 -80 -148 -160&#xA;-126 -60 16 -114 81 -114 136 0 103 125 170 210 113z"/>
    <path d="M8390 6745 c-71 -32 -103 -78 -114 -161 -11 -91 27 -162 110 -200 80&#xA;-37 141 -31 217 20 67 45 92 172 51 251 -43 83 -177 129 -264 90z m147 -127&#xA;c29 -27 30 -76 2 -112 -16 -21 -29 -26 -64 -26 -35 0 -48 5 -64 26 -23 29 -27&#xA;74 -10 105 23 43 94 47 136 7z"/>
    <path d="M2365 4346 c-169 -91 -313 -133 -492 -142 -126 -7 -156 -15 -151 -42&#xA;9 -49 160 -74 309 -52 202 29 436 159 442 245 3 42 -16 41 -108 -9z"/>
    <path d="M8530 2874 c-14 -2 -81 -14 -150 -25 -144 -24 -180 -39 -180 -73 0&#xA;-54 52 -57 235 -17 180 39 314 23 475 -59 201 -103 379 -116 544 -41 73 33 91&#xA;52 82 86 -9 37 -43 40 -122 10 -85 -32 -208 -43 -285 -25 -30 7 -97 32 -149&#xA;57 -153 72 -193 83 -315 88 -60 2 -121 2 -135 -1z"/>
    <path d="M4917 2693 c-4 -3 -7 -19 -7 -34 0 -34 38 -65 136 -111 65 -31 75&#xA;-32 184 -33 97 0 126 4 185 25 50 18 73 32 82 50 25 50 -26 63 -142 35 -38 -9&#xA;-84 -13 -125 -9 -68 6 -211 47 -245 70 -21 15 -57 19 -68 7z"/>
    <path d="M4635 1992 c-47 -4 -65 -17 -65 -46 0 -37 14 -45 101 -61 47 -8 117&#xA;-28 155 -44 38 -15 112 -47 165 -70 145 -61 211 -74 359 -68 102 4 142 10 220&#xA;34 231 73 295 87 410 87 134 0 212 -26 469 -153 214 -106 357 -160 477 -181&#xA;35 -6 175 -9 325 -8 288 2 337 -5 469 -65 75 -35 104 -41 129 -27 21 11 28 44&#xA;13 67 -13 21 -129 80 -208 107 -120 39 -201 47 -433 40 -240 -8 -289 -2 -456&#xA;58 -99 35 -186 75 -330 153 -270 145 -483 161 -820 59 -177 -53 -282 -68 -375&#xA;-54 -79 13 -120 27 -320 108 -125 51 -211 70 -285 64z"/>
    <path d="M4405 1280 c-79 -17 -161 -41 -413 -122 -116 -37 -176 -48 -297 -54&#xA;-163 -9 -255 11 -524 110 -49 19 -77 14 -86 -14 -11 -35 14 -59 108 -105 162&#xA;-78 289 -108 457 -108 155 0 263 17 400 63 361 121 525 150 705 124 60 -8 233&#xA;-70 348 -124 113 -52 231 -93 321 -109 238 -44 607 49 536 134 -17 20 -66 19&#xA;-185 -6 -131 -26 -283 -26 -385 0 -41 10 -158 55 -260 99 -270 117 -295 124&#xA;-480 128 -127 3 -171 0 -245 -16z"/>
  </g>
  <title>Żółw morski</title>
  <desc>Duży żółw morski, który pływa w oceanach i składa jaja na plażach. Z jego skorupy można zrobić hełm, który pozwala dłużej oddychać pod wodą.</desc>
</svg>