<?xml version="1.0" standalone="no"?>
<!DOCTYPE svg PUBLIC "-//W3C//DTD SVG 20010904//EN"
 "http://www.w3.org/TR/2001/REC-SVG-20010904/DTD/svg10.dtd">
<svg version="1.0" xmlns="http://www.w3.org/2000/svg"
 width="1024.000000pt" height="1024.000000pt" viewBox="0 0 1024.000000 1024.000000"
 preserveAspectRatio="xMidYMid meet">
<metadata>
Created by potrace 1.16, written by Peter Selinger 2001-2019
</metadata>
<g transform="translate(0.000000,1024.000000) scale(0.100000,-0.100000)"
fill="#000000" stroke="none">
<path d="M8900 9810 c-8 -4 -35 -14 -60 -21 -152 -46 -290 -229 -290 -387 0
-68 33 -174 74 -235 37 -57 118 -115 204 -147 52 -19 76 -22 150 -18 73 3 96
9 141 33 86 47 143 105 184 187 112 221 10 505 -207 576 -67 22 -167 29 -196
12z m197 -170 c57 -28 62 -34 93 -101 30 -66 32 -77 27 -142 -13 -154 -99
-253 -229 -265 -33 -2 -69 0 -81 5 -12 6 -41 18 -64 28 -152 63 -192 276 -76
405 66 74 118 98 214 99 43 1 69 -6 116 -29z"/>
<path d="M4267 9478 c-10 -5 -17 -21 -17 -38 0 -35 51 -77 170 -139 202 -104
457 -151 694 -125 88 9 425 79 606 125 19 5 90 12 157 16 195 10 328 -19 503
-108 108 -56 110 -57 198 -122 95 -69 143 -74 150 -14 6 53 -137 168 -331 266
-162 82 -228 96 -462 96 -203 0 -242 -5 -470 -60 -77 -19 -196 -44 -265 -56
-271 -47 -562 0 -825 133 -56 29 -89 37 -108 26z"/>
<path d="M1460 9439 c-13 -23 9 -66 38 -75 9 -3 35 -15 57 -26 22 -11 74 -38
115 -59 265 -135 446 -140 1025 -29 78 15 149 21 245 21 172 0 252 -20 407
-101 63 -33 123 -60 134 -60 10 0 26 11 35 26 17 25 16 26 -22 65 -48 50 -166
124 -225 143 -24 8 -67 21 -95 30 -62 19 -237 27 -347 16 -45 -5 -160 -22
-255 -39 -338 -60 -468 -68 -622 -40 -82 15 -117 27 -200 66 -168 80 -269 102
-290 62z"/>
<path d="M611 8708 c-12 -34 11 -61 94 -113 190 -119 433 -176 622 -146 66 10
220 52 368 100 116 38 180 44 287 28 90 -14 108 -21 227 -86 163 -91 234 -113
366 -112 162 0 367 50 405 98 26 34 25 55 -4 82 l-25 23 -83 -25 c-137 -41
-177 -48 -283 -48 -115 0 -129 4 -287 87 -201 106 -212 109 -388 109 -110 0
-167 -4 -195 -15 -22 -8 -42 -15 -45 -15 -3 -1 -12 -4 -20 -8 -40 -15 -234
-69 -300 -82 -148 -31 -271 -15 -455 61 -182 75 -208 84 -243 84 -25 0 -35 -5
-41 -22z"/>
<path d="M8437 8672 c-26 -10 -72 -36 -101 -59 -110 -85 -156 -254 -105 -388
27 -72 106 -156 176 -187 99 -44 229 -32 318 30 43 30 110 113 118 146 3 12
11 39 17 61 6 22 11 71 10 108 0 55 -6 80 -29 125 -35 69 -100 134 -161 161
-57 26 -174 27 -243 3z m214 -163 c58 -41 95 -129 83 -197 -10 -53 -58 -119
-106 -143 -123 -63 -278 39 -278 183 0 89 46 152 130 177 49 15 137 5 171 -20z"/>
<path d="M4905 8093 c-33 -8 -89 -20 -125 -27 -36 -8 -153 -32 -260 -54 -107
-22 -222 -47 -255 -55 -33 -9 -114 -25 -180 -37 -66 -12 -156 -30 -200 -42
-146 -37 -208 -50 -405 -89 -105 -20 -230 -48 -238 -52 -4 -3 -66 -17 -137
-32 -273 -54 -1265 -304 -1645 -414 -203 -58 -269 -86 -275 -115 -5 -21 -36
-519 -35 -566 0 -14 0 -41 0 -60 0 -20 -5 -43 -12 -52 -8 -9 -64 -26 -138 -43
-69 -15 -145 -33 -170 -40 -25 -7 -111 -29 -193 -49 -166 -41 -303 -89 -329
-114 -13 -12 -20 -45 -27 -117 -17 -165 -20 -303 -7 -319 26 -33 575 -377 908
-569 33 -19 48 -35 49 -50 6 -97 8 -102 47 -137 22 -19 57 -45 78 -57 21 -13
115 -70 209 -129 93 -58 187 -115 207 -127 21 -11 38 -24 38 -28 0 -13 -123
-121 -183 -160 -32 -21 -79 -46 -105 -55 -26 -10 -51 -21 -57 -25 -5 -4 -38
-13 -73 -19 -98 -20 -188 -8 -342 44 -74 25 -145 46 -157 46 -24 0 -53 -34
-53 -61 0 -20 59 -68 110 -91 19 -9 73 -28 120 -44 77 -26 98 -29 220 -28 116
0 144 3 200 23 132 48 214 100 342 220 47 44 89 81 92 81 3 0 65 -37 137 -82
72 -46 169 -106 215 -134 47 -28 89 -55 94 -60 14 -14 -88 -167 -189 -287 -46
-53 -86 -97 -90 -97 -3 0 -31 -20 -61 -45 -63 -52 -188 -120 -258 -140 -26 -7
-77 -16 -114 -19 -79 -7 -131 9 -186 54 -41 33 -67 37 -99 15 -40 -28 -178
-82 -250 -99 -178 -40 -316 -4 -526 141 -68 46 -86 54 -111 49 -79 -16 -54
-70 79 -171 147 -111 257 -154 415 -162 120 -6 203 10 346 70 l81 34 38 -23
c21 -12 70 -28 109 -35 118 -20 240 3 385 72 120 57 204 125 339 276 l73 82
117 -78 c126 -84 341 -215 409 -250 23 -11 44 -25 47 -30 11 -17 -394 -307
-634 -455 -282 -174 -392 -239 -520 -309 -30 -17 -107 -60 -170 -95 -63 -36
-187 -103 -275 -151 -88 -47 -202 -108 -254 -136 -127 -67 -135 -82 -127 -230
4 -60 12 -148 18 -193 11 -75 16 -87 44 -110 43 -36 339 -243 737 -515 609
-417 577 -397 647 -397 31 0 72 5 91 12 54 18 285 144 368 201 99 66 288 223
375 312 254 259 689 789 1120 1368 65 86 119 157 121 157 3 0 49 -29 103 -65
55 -35 133 -81 173 -100 l75 -35 109 16 c137 20 135 20 165 27 14 4 78 18 142
32 65 14 177 44 250 65 72 22 146 40 163 40 26 0 114 -24 175 -47 8 -4 17 -7
20 -8 3 -1 12 -5 20 -8 8 -4 58 -22 111 -41 126 -45 269 -106 269 -116 0 -16
-112 -111 -250 -214 -193 -143 -210 -161 -210 -207 0 -30 8 -43 48 -81 85 -80
453 -313 642 -407 47 -24 113 -58 147 -77 142 -80 380 -94 653 -38 126 26 165
67 413 434 74 109 242 366 278 425 27 44 22 37 102 174 32 55 65 105 73 112
13 11 58 25 204 65 87 24 154 76 201 156 45 77 83 173 94 235 l7 43 101 -1
c96 0 128 6 242 43 23 7 62 34 91 63 45 45 55 63 82 146 l30 94 109 110 c69
70 121 131 141 168 60 113 113 260 151 420 14 59 15 281 1 305 -5 9 -22 58
-37 107 -25 87 -26 101 -34 440 -4 193 -7 365 -8 383 -1 40 -38 78 -84 87 -18
4 -70 18 -117 32 -47 14 -130 38 -185 54 -55 15 -145 41 -200 58 -55 16 -170
49 -255 74 -85 25 -168 51 -185 57 -42 17 -200 15 -255 -3 -25 -8 -65 -18 -89
-21 -25 -4 -91 -18 -148 -32 -56 -14 -106 -23 -111 -20 -4 2 -5 44 -1 93 14
167 29 490 24 505 -7 16 -150 124 -210 158 -22 12 -94 51 -160 86 -66 35 -127
68 -135 73 -8 5 -80 42 -160 82 -79 41 -175 91 -212 111 -38 20 -79 40 -91 44
-12 3 -62 26 -112 50 -131 62 -327 154 -350 164 -11 5 -59 27 -107 49 -47 23
-91 41 -96 41 -6 0 -23 7 -39 15 -90 47 -515 235 -531 235 -4 0 -20 7 -37 16
-51 27 -486 196 -580 226 -64 20 -121 23 -180 11z m196 -172 c46 -16 111 -40
144 -54 33 -14 123 -49 199 -78 175 -65 489 -202 493 -216 2 -6 -16 -13 -39
-16 -57 -8 -63 -9 -288 -72 -107 -31 -251 -69 -320 -86 -69 -17 -168 -44 -220
-60 -52 -16 -142 -41 -200 -55 l-105 -27 -85 48 c-111 62 -724 368 -772 386
-21 7 -38 16 -38 19 0 15 335 91 550 125 25 4 72 14 105 22 119 30 421 91 456
92 19 1 73 -12 120 -28z m-1347 -312 c38 -11 99 -34 135 -51 162 -75 241 -113
301 -148 36 -21 128 -70 205 -110 77 -40 144 -75 148 -79 10 -10 -28 -21 -253
-76 -300 -74 -373 -93 -405 -105 -16 -6 -113 -33 -215 -60 -695 -182 -1170
-319 -1257 -362 -32 -16 -54 -7 -215 86 -82 47 -181 102 -220 124 -40 22 -117
65 -171 96 -54 31 -100 56 -102 56 -2 0 -39 21 -82 48 -43 26 -97 56 -120 67
-24 11 -43 23 -43 27 0 7 59 27 175 58 96 26 184 50 205 55 8 3 128 33 265 69
225 57 410 102 870 211 83 20 157 38 165 40 42 13 132 31 285 60 184 34 198
34 329 -6z m2576 -206 c74 -34 216 -97 315 -142 356 -160 992 -490 1003 -519
1 -4 -7 -8 -18 -9 -28 -2 -360 -76 -535 -118 -267 -65 -550 -128 -598 -132
-51 -5 -136 25 -252 88 -205 112 -338 180 -655 331 -310 149 -565 272 -570
276 -9 7 24 20 118 46 53 14 162 45 242 67 193 54 185 52 340 94 74 20 151 41
170 46 63 18 204 38 255 35 36 -2 89 -20 185 -63z m-1404 -337 c32 -13 140
-63 239 -111 99 -48 259 -126 355 -172 425 -205 720 -357 720 -372 0 -4 -93
-30 -207 -59 -203 -51 -398 -102 -753 -197 -96 -26 -268 -71 -381 -100 -113
-29 -230 -60 -260 -69 -30 -9 -115 -32 -189 -50 -295 -76 -520 -135 -555 -146
-35 -11 -40 -10 -113 33 -42 24 -88 48 -102 52 -14 4 -32 13 -40 20 -14 11
-250 145 -405 230 -38 21 -124 68 -190 105 -66 37 -198 109 -293 160 -96 51
-183 101 -195 110 -20 17 -19 18 54 40 40 12 121 37 179 55 143 46 587 168
965 266 127 33 237 62 245 64 80 25 594 137 720 158 73 12 149 6 206 -17z
m-3346 -179 c223 -125 427 -240 495 -277 178 -97 221 -123 233 -137 15 -21 16
-242 1 -423 -5 -69 -14 -183 -19 -255 -6 -71 -12 -150 -14 -175 -3 -25 -7
-144 -10 -264 -3 -121 -8 -221 -9 -223 -5 -4 -189 111 -762 479 -71 46 -134
84 -141 86 -35 9 -66 812 -47 1205 l6 136 41 -24 c23 -12 124 -70 226 -128z
m6182 -333 c-2 -38 -7 -125 -12 -193 -6 -68 -10 -152 -10 -186 0 -38 -5 -66
-12 -72 -14 -11 -83 -28 -278 -68 -69 -14 -172 -37 -230 -51 -58 -13 -166 -38
-240 -54 -74 -16 -205 -45 -290 -65 -240 -55 -224 -56 -160 7 86 82 219 165
332 208 51 19 58 25 63 54 15 80 -43 136 -140 136 -61 0 -100 -18 -193 -88
-143 -110 -249 -245 -274 -351 -6 -29 -19 -56 -27 -60 -9 -5 -79 -22 -156 -40
-257 -59 -422 -103 -590 -160 -104 -35 -125 -46 -156 -80 -52 -58 -67 -119
-68 -281 l-1 -105 -88 -27 c-48 -15 -118 -36 -157 -47 -38 -11 -133 -38 -210
-60 -77 -22 -171 -48 -209 -58 -48 -13 -73 -25 -84 -41 -10 -16 -18 -68 -23
-165 -5 -78 -14 -154 -20 -168 -8 -20 -27 -33 -77 -53 -54 -21 -368 -113 -449
-131 -10 -2 -43 -11 -73 -19 -88 -25 -83 -34 -75 122 3 75 8 153 10 172 2 19
6 98 10 175 11 272 16 361 25 470 6 61 13 166 16 235 4 72 11 130 18 137 13
14 131 50 301 93 227 56 620 158 639 166 25 10 254 70 531 139 121 31 229 60
240 65 11 4 79 23 150 41 72 17 191 49 265 69 74 21 151 41 170 45 19 4 73 18
120 31 76 21 318 80 410 99 19 4 41 11 50 16 8 4 92 27 185 50 94 23 202 50
240 60 39 10 153 33 255 50 102 18 201 38 220 45 19 7 40 11 45 10 6 -2 9 -32
7 -72z m-5276 -173 c8 -8 60 -38 254 -143 36 -20 88 -49 115 -65 28 -16 82
-45 120 -65 127 -65 218 -115 420 -233 77 -45 185 -106 240 -135 166 -87 152
-74 148 -139 -4 -70 -42 -787 -47 -896 -3 -44 -8 -144 -12 -222 -4 -79 -10
-143 -13 -143 -3 0 -58 25 -121 56 -63 31 -128 62 -145 70 -16 7 -59 30 -95
50 -36 19 -144 76 -240 126 -96 50 -195 104 -219 120 -23 16 -66 40 -95 54
-28 15 -87 48 -131 74 -44 26 -120 69 -169 96 l-88 49 6 298 c4 164 9 310 11
325 2 15 7 77 10 137 2 61 10 182 15 270 6 88 11 197 11 243 0 79 4 92 25 73z
m-1322 -176 c3 -38 8 -119 11 -180 3 -60 12 -226 21 -368 9 -142 14 -261 11
-263 -8 -8 -409 236 -674 409 l-123 80 0 108 c0 70 4 109 11 109 5 0 47 -31
92 -68 207 -173 451 -321 555 -338 36 -6 42 -4 42 11 0 10 -18 35 -41 56 -56
52 -264 199 -378 268 -98 59 -191 126 -191 139 0 4 33 15 73 25 39 10 153 38
252 63 99 24 212 53 250 63 l70 19 7 -32 c4 -17 10 -62 12 -101z m7349 -165
c66 -16 160 -43 210 -59 95 -30 222 -67 362 -104 86 -23 91 -25 84 -31 -5 -5
-130 -39 -419 -113 -118 -30 -285 -72 -370 -94 -85 -22 -162 -42 -170 -44 -8
-3 -80 -21 -160 -40 -80 -20 -230 -58 -335 -85 -281 -73 -248 -73 -332 8 -73
71 -182 143 -256 170 -71 26 -274 28 -384 3 -274 -60 -486 -254 -571 -521 -41
-128 -53 -403 -22 -510 6 -19 10 -37 10 -40 0 -22 38 -128 67 -187 88 -178
224 -290 443 -363 165 -55 379 -39 515 39 17 9 50 23 74 31 60 19 188 141 246
235 53 85 80 155 101 268 28 144 4 417 -51 577 -37 108 -39 102 40 122 39 10
216 54 395 98 179 44 332 82 340 85 8 2 110 27 225 56 116 28 217 53 225 56
31 11 559 152 571 153 14 0 19 -74 20 -320 1 -268 5 -303 54 -465 25 -84 26
-99 22 -220 -7 -164 -29 -267 -79 -375 -44 -95 -115 -210 -130 -210 -5 0 -7
12 -4 28 40 178 36 474 -7 607 -31 95 -106 239 -154 295 -38 44 -70 51 -98 24
-20 -21 -14 -54 22 -109 55 -83 93 -158 114 -223 39 -126 36 -428 -6 -622 -26
-119 -92 -338 -109 -364 -22 -35 -99 -72 -175 -86 -110 -20 -285 9 -486 81
-99 35 -136 43 -210 46 -97 5 -109 2 -305 -69 -114 -42 -107 -41 -250 -42 -94
-1 -124 3 -160 18 -56 24 -129 69 -130 78 0 9 114 68 133 68 24 0 48 25 42 42
-27 71 -255 34 -381 -61 -42 -31 -124 -126 -124 -141 1 -3 7 -14 15 -25 15
-19 17 -18 101 23 l86 43 63 -59 c34 -33 98 -81 141 -108 44 -26 97 -63 120
-81 47 -38 134 -79 190 -89 22 -3 47 -11 56 -16 10 -4 58 -9 106 -9 154 -1
325 73 428 184 l51 55 94 -27 94 -28 -1 -40 c-1 -50 -71 -196 -113 -237 -31
-30 -67 -41 -326 -107 -428 -108 -1347 -256 -1459 -235 -57 11 -59 18 -63 244
-3 190 -5 208 -23 227 -18 18 -21 18 -36 3 -9 -9 -18 -31 -20 -50 -2 -18 -6
-42 -8 -53 -3 -11 -6 -63 -7 -115 -1 -52 -4 -118 -6 -146 l-6 -52 -91 44
c-105 49 -329 136 -531 204 -77 26 -207 73 -290 104 -82 32 -204 78 -270 103
-126 48 -347 154 -377 180 -12 11 -18 31 -18 57 0 67 9 84 49 97 56 18 110 50
127 77 15 22 28 118 55 397 6 61 16 137 22 169 l12 60 80 28 c44 15 83 28 87
28 4 0 7 -163 8 -361 0 -316 8 -499 25 -576 6 -28 53 -83 70 -83 32 0 37 66
39 585 3 439 8 618 25 785 4 41 9 127 10 190 4 215 5 228 27 257 13 16 38 32
65 39 24 7 73 21 109 32 36 11 103 32 150 46 47 15 155 42 240 62 85 19 166
39 180 45 32 12 471 115 740 174 202 44 386 85 510 115 69 17 197 45 285 64
88 19 228 50 310 69 239 56 281 58 438 17z m-1453 -526 c30 -9 86 -32 124 -52
56 -29 78 -49 117 -102 47 -62 119 -189 119 -206 0 -5 -62 -10 -137 -12 -189
-3 -299 -25 -631 -123 -60 -18 -286 -110 -331 -135 -24 -13 -45 -24 -47 -24
-11 0 -1 97 17 171 78 309 345 522 634 503 44 -3 105 -12 135 -20z m-5515 -99
c44 -28 130 -82 190 -120 61 -37 133 -83 160 -100 68 -43 252 -157 295 -182
19 -11 133 -79 253 -152 120 -72 220 -131 222 -131 3 0 23 -11 43 -24 83 -52
567 -311 837 -448 l161 -81 -4 -91 c-1 -50 -7 -113 -13 -139 -5 -26 -9 -75 -9
-107 0 -34 -4 -60 -10 -60 -11 0 -217 114 -321 177 -35 22 -118 70 -184 108
-192 108 -728 432 -1005 607 -140 88 -275 173 -300 189 -25 15 -74 45 -110 66
-36 21 -105 63 -155 95 -49 31 -120 76 -158 99 -42 26 -69 50 -72 63 -2 11 -6
95 -9 184 l-6 164 58 -32 c31 -18 93 -56 137 -85z m5911 -428 c32 -33 37 -245
9 -382 -58 -276 -290 -475 -559 -479 -106 -1 -193 18 -292 65 -152 72 -280
238 -324 420 -23 99 -31 87 101 154 157 79 292 128 498 181 122 31 125 31 117
-2 -4 -14 -7 -72 -7 -127 0 -117 21 -194 73 -267 42 -59 65 -77 110 -90 48
-14 92 4 145 57 39 40 65 104 78 195 7 49 -20 254 -36 274 -5 6 -6 14 -2 18
10 10 75 -3 89 -17z m-2158 -149 l-3 -112 -80 -24 c-44 -13 -109 -34 -145 -47
-36 -13 -79 -26 -96 -30 -17 -3 -41 -16 -53 -29 -25 -27 -30 -61 -61 -416 -6
-69 -14 -128 -18 -131 -7 -7 -119 -41 -472 -145 -102 -30 -198 -59 -215 -64
-157 -47 -328 -91 -333 -86 -3 4 0 95 7 204 9 153 16 200 27 209 9 6 48 19 87
29 40 9 117 32 172 50 55 18 120 37 145 44 81 20 288 89 332 110 24 11 49 29
56 40 11 18 21 86 38 265 3 33 9 63 13 67 7 8 133 45 246 74 38 9 77 21 85 25
8 5 67 23 130 40 63 16 116 32 119 35 17 16 21 -10 19 -108z m-2740 -575 c68
-43 289 -176 352 -211 25 -13 52 -30 60 -37 8 -7 38 -24 65 -38 28 -14 61 -34
75 -45 l25 -20 -30 -32 c-45 -47 -59 -53 -98 -36 -44 18 -315 172 -397 226
-115 75 -171 114 -176 122 -6 10 48 108 59 108 4 0 34 -16 65 -37z m764 -448
c20 -14 39 -25 41 -25 2 0 44 -24 93 -54 138 -83 283 -156 308 -156 13 0 68
11 122 24 54 14 100 23 102 21 7 -6 -83 -128 -382 -513 -438 -567 -794 -928
-1273 -1290 -131 -99 -107 -100 -290 18 -275 180 -413 271 -413 275 0 3 80 51
338 201 273 159 332 200 332 229 0 59 -56 44 -275 -72 -165 -88 -230 -124
-398 -225 l-97 -59 -190 126 c-105 69 -190 130 -190 135 0 5 24 22 52 37 29
16 172 95 318 175 376 207 575 319 655 369 39 25 113 71 165 102 333 202 728
495 885 656 27 28 52 51 55 51 3 0 22 -11 42 -25z m1238 -27 c-1 -32 -31 -131
-65 -218 -46 -116 -125 -248 -267 -445 -101 -140 -152 -208 -353 -473 -295
-388 -726 -877 -900 -1022 -97 -80 -211 -164 -283 -208 -114 -70 -243 -133
-265 -130 -14 2 -28 16 -39 38 -30 66 -99 282 -96 304 2 13 26 36 68 63 251
162 375 267 691 583 245 245 340 349 459 505 30 40 96 122 145 182 153 188
229 285 375 480 73 97 91 113 155 134 42 15 135 98 135 122 0 24 23 36 126 66
118 35 114 34 114 19z m177 -168 c29 -23 53 -45 53 -50 0 -6 -7 -49 -15 -97
-8 -49 -16 -132 -17 -185 -2 -54 -7 -98 -11 -98 -13 0 -150 81 -174 103 -13
11 -23 26 -23 33 0 7 20 53 44 101 24 48 52 121 62 161 10 39 20 72 23 72 2 0
28 -18 58 -40z m3207 9 c44 -21 42 -60 -6 -93 -34 -24 -165 -21 -255 6 -40 12
-73 25 -73 28 0 4 42 12 93 19 88 11 159 29 173 44 11 10 40 8 68 -4z m-3046
-118 c60 -42 300 -152 465 -214 31 -11 57 -24 57 -29 0 -18 -427 -118 -506
-118 l-31 0 -6 158 c-4 86 -9 172 -13 190 -8 37 -2 39 34 13z m3032 -489 c0
-22 -132 -232 -362 -578 -196 -294 -245 -358 -290 -373 -49 -17 -329 -45 -372
-37 l-37 7 54 62 c80 91 250 321 289 389 18 33 42 74 53 91 58 91 75 212 24
174 -12 -10 -189 -230 -344 -431 -47 -60 -215 -256 -221 -256 -7 0 -201 98
-272 137 l-63 35 43 36 c106 89 149 149 134 187 -11 31 -52 13 -163 -71 -105
-81 -115 -86 -139 -75 -59 26 -305 197 -304 210 1 3 56 47 123 96 67 50 162
129 212 176 l90 87 90 -30 c114 -37 173 -38 445 -4 289 36 362 45 380 51 8 2
29 7 45 10 263 48 378 70 465 89 130 29 120 28 120 18z m-6635 -822 c72 -47
211 -142 310 -211 99 -69 262 -181 362 -248 134 -91 186 -131 196 -154 13 -26
67 -185 67 -194 0 -16 -102 50 -430 277 -125 87 -290 199 -535 365 -71 48
-138 95 -147 104 -13 12 -19 40 -24 105 l-7 90 39 -24 c21 -13 98 -62 169
-110z"/>
<path d="M8535 4996 c-15 -10 -18 -25 -17 -69 2 -69 22 -120 57 -143 25 -16
27 -16 50 6 29 27 33 81 11 143 -26 70 -61 93 -101 63z"/>
<path d="M8232 4968 c-40 -40 35 -187 105 -204 31 -8 63 20 63 56 0 31 -42 93
-89 133 -35 29 -60 34 -79 15z"/>
<path d="M5581 4001 c-31 -20 -44 -321 -16 -387 18 -44 52 -44 75 1 21 41 22
354 1 378 -15 19 -38 22 -60 8z"/>
<path d="M5783 3763 c-27 -40 -26 -202 1 -232 28 -31 55 -27 71 12 17 40 13
195 -7 226 -18 29 -44 26 -65 -6z"/>
<path d="M9156 7745 c-198 -76 -256 -320 -112 -474 78 -84 174 -115 271 -86
121 35 188 102 215 214 32 134 -24 272 -133 328 -64 33 -180 41 -241 18z m175
-148 c73 -49 94 -134 48 -199 -10 -15 -19 -33 -19 -41 0 -7 -21 -21 -47 -30
-57 -20 -105 -11 -153 30 -60 50 -76 119 -43 187 33 70 147 98 214 53z"/>
<path d="M8718 6890 c-87 -26 -132 -99 -133 -212 0 -69 3 -80 30 -119 77 -109
241 -129 341 -41 54 46 83 154 62 229 -24 88 -118 154 -218 152 -30 0 -67 -4
-82 -9z m155 -150 c37 -41 36 -83 -2 -121 -73 -73 -193 4 -159 102 22 64 110
75 161 19z"/>
<path d="M2008 4220 c-201 -103 -326 -138 -523 -146 -139 -6 -177 -17 -173
-48 7 -49 122 -76 273 -64 212 17 415 98 522 210 32 33 49 97 28 104 -5 2 -63
-23 -127 -56z"/>
<path d="M8885 2597 c-159 -20 -323 -50 -353 -64 -30 -14 -33 -20 -30 -52 3
-36 3 -36 54 -39 27 -2 107 9 176 23 146 29 280 33 372 9 33 -8 113 -40 176
-69 63 -30 151 -64 194 -75 149 -38 342 -18 451 46 59 34 72 57 50 90 -20 31
-47 31 -132 -2 -50 -19 -94 -27 -168 -31 -123 -6 -189 9 -330 76 -172 82 -307
108 -460 88z"/>
<path d="M4850 2367 c0 -50 65 -101 190 -148 54 -20 82 -24 170 -23 168 0 319
61 297 119 -10 25 -57 29 -149 10 -138 -28 -285 -8 -410 56 -20 10 -51 19 -68
19 -27 0 -30 -3 -30 -33z"/>
<path d="M4544 1622 c-54 -4 -78 -29 -69 -71 5 -24 13 -31 38 -36 131 -21 166
-30 239 -59 46 -19 110 -47 143 -64 133 -65 247 -92 395 -93 131 -1 204 12
398 71 199 60 306 76 417 62 119 -15 205 -48 475 -180 252 -123 399 -175 540
-191 54 -7 207 -10 355 -9 246 3 265 2 350 -21 50 -13 110 -34 135 -46 25 -13
64 -28 87 -35 38 -12 45 -11 63 5 24 21 26 58 5 78 -26 27 -159 94 -220 112
-173 50 -156 48 -453 46 -167 -1 -309 3 -345 9 -136 24 -252 69 -514 201 -284
142 -326 154 -553 153 -180 0 -204 -4 -420 -69 -166 -49 -182 -53 -274 -60
-102 -7 -211 16 -346 72 -248 104 -347 132 -446 125z"/>
<path d="M4420 850 c-130 -13 -319 -60 -445 -109 -11 -5 -56 -19 -100 -31 -44
-13 -102 -29 -130 -38 -145 -42 -377 -52 -490 -22 -127 34 -201 57 -299 94
-88 33 -113 33 -128 0 -8 -18 -9 -30 -1 -42 28 -45 263 -149 403 -177 155 -32
449 -20 580 25 52 17 215 68 395 123 44 13 131 32 193 42 210 31 375 -3 665
-139 130 -60 284 -112 377 -127 217 -33 580 45 580 125 0 54 -41 56 -255 18
-160 -28 -319 -20 -450 23 -22 7 -130 52 -240 100 -227 98 -300 121 -435 135
-104 11 -111 11 -220 0z"/>
</g>
</svg>
