<?xml version="1.0" standalone="no"?>
<!DOCTYPE svg PUBLIC "-//W3C//DTD SVG 20010904//EN"
 "http://www.w3.org/TR/2001/REC-SVG-20010904/DTD/svg10.dtd">
<svg version="1.0" xmlns="http://www.w3.org/2000/svg"
 width="1024.000000pt" height="1024.000000pt" viewBox="0 0 1024.000000 1024.000000"
 preserveAspectRatio="xMidYMid meet">
<metadata>
Created by potrace 1.16, written by Peter Selinger 2001-2019
</metadata>
<g transform="translate(0.000000,1024.000000) scale(0.100000,-0.100000)"
fill="#000000" stroke="none">
<path d="M4950 9504 c-82 -15 -225 -36 -360 -54 -257 -32 -541 -85 -588 -109
-88 -45 -102 -126 -83 -475 6 -115 8 -213 4 -217 -4 -4 -57 -13 -118 -19 -108
-11 -801 -108 -928 -130 -35 -7 -78 -20 -95 -30 -86 -52 -92 -154 -66 -1153
l7 -238 -112 83 c-241 179 -331 243 -471 335 -193 128 -419 270 -505 318 -38
21 -124 71 -190 110 -423 252 -498 286 -597 271 -144 -22 -187 -129 -195 -491
-9 -353 25 -740 94 -1085 98 -494 174 -642 451 -881 222 -192 576 -444 966
-688 269 -169 399 -242 647 -367 252 -125 392 -187 519 -229 47 -15 89 -31 93
-35 12 -10 -323 -450 -342 -450 -4 0 -22 16 -41 35 -18 19 -48 41 -66 50 -38
18 -101 19 -130 2 -19 -11 -169 -174 -241 -261 l-31 -39 -37 59 c-42 67 -229
345 -320 476 -33 48 -91 133 -130 189 -173 252 -151 240 -480 249 -137 4 -344
7 -458 6 l-209 -1 -29 -33 c-47 -53 -47 -53 76 -547 37 -148 72 -288 77 -310
11 -44 44 -78 125 -128 300 -184 833 -522 833 -528 0 -3 -46 -48 -102 -100
-168 -155 -193 -220 -122 -316 47 -63 137 -155 197 -204 41 -32 56 -39 94 -39
61 0 95 23 193 130 45 50 88 90 95 90 7 0 19 -7 26 -17 8 -9 37 -31 66 -49 36
-24 53 -42 58 -63 10 -45 68 -106 125 -130 36 -15 71 -22 118 -22 77 0 111 9
187 47 l55 28 39 -38 c32 -31 38 -43 31 -57 -17 -30 -11 -92 11 -129 30 -49
160 -173 202 -193 88 -42 140 -14 304 160 141 150 163 182 163 241 0 60 -17
88 -109 174 -83 78 -131 108 -175 108 -14 0 -26 3 -26 6 0 4 24 37 53 73 175
216 280 377 492 756 90 161 126 217 133 211 6 -7 51 -166 102 -363 22 -83 64
-230 94 -328 97 -315 155 -422 248 -460 27 -11 97 -21 185 -28 l142 -11 6 -50
c19 -143 79 -334 158 -496 87 -179 174 -299 322 -446 145 -143 137 -127 150
-279 9 -95 41 -261 64 -326 27 -78 86 -174 123 -201 46 -32 100 -29 140 8 42
41 56 72 78 176 11 50 22 93 25 96 2 3 31 -20 63 -50 96 -88 174 -112 231 -71
50 37 56 65 55 228 -1 83 -7 185 -13 228 -6 42 -16 119 -21 170 -25 218 -54
272 -240 444 -241 223 -317 327 -355 489 -22 93 -18 116 22 127 17 5 47 22 65
37 29 25 32 30 23 56 l-10 29 -105 3 c-58 2 -150 -2 -205 -8 -284 -30 -816
-21 -872 15 -54 36 -142 286 -238 680 -20 83 -49 193 -65 245 -46 154 -125
506 -195 875 -20 105 -42 221 -50 258 -9 51 -10 69 -1 72 10 3 175 14 561 35
192 11 447 29 495 35 48 6 336 32 500 45 74 6 232 20 350 32 173 16 218 18
234 8 24 -15 552 -439 646 -518 115 -98 251 -236 272 -277 26 -49 34 -149 19
-230 -16 -89 -107 -397 -174 -592 -25 -72 -60 -196 -77 -275 -55 -252 -81
-317 -158 -401 -53 -56 -110 -86 -164 -87 l-37 0 49 66 c28 36 57 79 66 95 19
38 15 89 -9 103 -16 9 -24 5 -50 -29 -43 -55 -144 -152 -189 -183 -31 -20 -46
-24 -79 -19 -23 3 -49 13 -58 21 -14 15 -8 23 66 99 89 90 103 111 103 155 0
27 -14 42 -40 42 -4 0 -52 -41 -107 -90 -54 -50 -121 -102 -150 -116 -46 -23
-56 -25 -87 -14 -42 13 -66 43 -66 81 0 30 58 120 136 210 77 89 87 141 28
147 -34 3 -45 -5 -148 -118 l-60 -64 -20 44 c-11 25 -22 73 -24 107 -4 53 0
68 24 112 37 70 97 122 193 170 l80 41 107 207 c128 247 133 269 85 368 -33
66 -192 240 -496 543 -137 135 -164 151 -185 111 -33 -60 32 -150 324 -448
152 -155 248 -260 252 -277 9 -36 -11 -88 -92 -240 -79 -150 -98 -174 -169
-209 -87 -42 -168 -124 -212 -213 -35 -70 -38 -83 -37 -156 1 -89 23 -160 70
-227 17 -25 24 -46 21 -60 -10 -36 11 -130 38 -170 31 -47 88 -78 162 -87 53
-7 57 -9 69 -44 25 -72 118 -275 167 -363 155 -280 352 -505 534 -607 62 -35
66 -41 82 -128 7 -36 26 -117 42 -180 68 -258 106 -340 183 -385 114 -67 199
4 232 193 9 48 17 88 18 89 1 2 31 -25 67 -58 77 -74 115 -99 150 -99 34 0 78
35 95 76 29 69 14 250 -47 582 -35 194 -68 301 -109 364 -17 25 -100 110 -185
188 -197 183 -264 264 -359 437 -47 86 -55 105 -47 127 6 13 32 116 60 228 43
174 107 384 129 425 5 7 60 -32 152 -109 283 -234 477 -371 646 -456 237 -119
369 -97 692 114 123 80 168 118 278 227 136 137 232 268 293 397 55 117 36
225 -59 333 -181 205 -895 565 -1344 678 -47 12 -86 24 -86 28 0 4 35 24 78
45 198 98 590 348 877 559 217 160 533 427 660 558 196 202 265 332 345 649
91 363 122 625 124 1040 1 560 -50 821 -174 885 -117 60 -372 -42 -960 -385
-169 -98 -561 -360 -690 -461 -335 -262 -669 -575 -854 -801 -48 -60 -92 -108
-98 -108 -7 0 -9 66 -4 208 3 114 11 440 18 724 13 577 13 575 -52 638 -35 34
-475 265 -620 325 -36 15 -101 45 -145 67 -130 65 -280 118 -313 112 l-29 -6
-6 186 c-4 120 -11 196 -19 214 -17 35 -124 89 -271 136 -357 114 -333 108
-467 111 -69 2 -136 1 -150 -1z m103 -422 c6 -332 25 -293 -158 -311 -117 -12
-175 -19 -607 -77 -114 -16 -210 -26 -213 -23 -7 8 -14 129 -20 347 l-4 193
23 9 c26 9 299 56 566 96 96 14 209 32 250 39 41 7 94 13 117 12 l42 -2 4
-283z m320 227 c173 -54 314 -105 335 -122 9 -7 12 -54 12 -173 l0 -164 -82 0
c-46 -1 -162 -11 -258 -24 -96 -13 -177 -21 -180 -19 -3 3 -6 102 -8 221 -1
119 -3 243 -5 275 -1 42 1 57 11 57 8 0 87 -23 175 -51z m477 -584 c10 -12 13
-123 14 -488 2 -469 2 -473 28 -592 34 -159 47 -205 57 -205 4 0 11 224 14
498 6 469 0 713 -18 756 -7 16 -5 17 16 11 96 -29 880 -412 916 -448 l23 -22
-10 -245 c-5 -135 -11 -447 -15 -695 -3 -247 -7 -511 -10 -585 -3 -74 -7 -292
-10 -485 -7 -391 -22 -816 -31 -838 -3 -8 -16 -19 -29 -25 -49 -22 -246 -52
-480 -72 -272 -24 -291 -22 -299 32 -3 18 -7 249 -10 513 -5 468 -12 600 -38
671 -22 62 -31 46 -49 -86 -7 -58 -10 -248 -8 -602 4 -478 3 -519 -13 -534
-14 -14 -52 -20 -180 -31 -90 -7 -206 -18 -258 -23 -179 -17 -565 -50 -710
-60 -80 -5 -165 -12 -190 -15 -191 -22 -1055 -67 -1297 -69 -347 -1 -320 -15
-333 165 -20 277 -30 458 -40 739 -6 162 -15 351 -21 421 -16 182 -12 191 36
94 59 -117 183 -241 296 -295 139 -67 280 -85 419 -56 36 8 65 13 66 12 0 0 6
-41 12 -90 18 -142 66 -216 172 -264 142 -66 422 -19 529 89 58 58 86 149 46
149 -7 0 -51 -18 -99 -40 -125 -59 -229 -83 -336 -78 -98 5 -129 19 -156 71
-37 69 -27 274 14 309 9 8 55 20 102 27 201 28 336 54 357 67 18 12 20 18 13
45 -18 60 -23 62 -144 55 -101 -6 -108 -5 -101 11 4 10 19 54 33 98 35 112 37
319 4 443 -47 172 -81 235 -146 269 -65 34 -720 -3 -938 -53 -82 -19 -134 -59
-169 -131 -20 -42 -23 -44 -31 -24 -14 38 -15 1182 -1 1213 10 21 21 28 55 32
24 4 90 13 148 22 131 19 526 72 640 86 47 5 168 21 270 34 232 32 610 80 721
93 46 6 156 20 244 31 145 19 466 55 731 81 55 5 114 14 130 19 42 12 50 12
64 -5z m3700 -315 c63 -34 96 -350 87 -825 -3 -166 -9 -308 -12 -317 -4 -9
-41 -26 -93 -41 -90 -27 -280 -82 -636 -187 -249 -72 -297 -92 -336 -136 -45
-51 -45 -80 -6 -259 19 -88 38 -179 42 -201 6 -41 5 -42 -27 -52 -111 -35
-359 -108 -518 -152 -209 -57 -241 -71 -276 -112 -38 -45 -33 -91 41 -345 78
-268 86 -302 80 -319 -3 -7 -139 -56 -303 -110 -353 -115 -373 -124 -373 -162
0 -36 17 -52 53 -52 65 0 590 157 687 205 81 41 85 77 30 264 -16 53 -47 157
-69 231 -22 74 -43 153 -47 176 l-6 41 49 12 c89 22 547 151 647 183 60 19
111 42 129 58 28 24 30 32 28 86 -1 32 -16 127 -33 209 -18 83 -32 165 -32
184 l-1 35 110 33 c108 33 679 200 784 229 29 8 55 13 58 11 7 -8 -53 -333
-81 -442 -66 -250 -108 -343 -214 -475 -214 -265 -972 -858 -1415 -1107 -140
-78 -359 -182 -512 -243 -71 -28 -182 -73 -245 -100 -63 -26 -125 -51 -136
-54 -17 -5 -42 10 -118 74 -120 101 -451 366 -483 387 -13 9 -20 19 -16 23 4
4 78 13 163 20 265 21 350 52 390 143 26 59 38 229 45 647 3 190 8 392 12 450
l6 105 105 140 c58 77 143 183 188 235 244 282 742 706 1090 928 399 254 597
367 863 492 206 96 260 112 301 90z m-8609 -360 c75 -21 874 -498 1124 -670
182 -126 342 -240 460 -329 77 -57 155 -115 173 -128 l32 -24 0 -117 c0 -129
18 -593 25 -657 2 -22 7 -92 10 -155 3 -63 8 -155 10 -205 3 -49 12 -205 20
-345 8 -140 19 -279 25 -307 31 -144 123 -185 405 -178 100 3 532 23 590 28
32 3 26 -18 -22 -73 -25 -30 -91 -116 -146 -190 -55 -74 -105 -138 -110 -141
-19 -13 -235 54 -407 126 -120 50 -484 233 -582 292 -229 138 -290 177 -295
189 -4 12 51 184 151 469 71 202 72 236 6 270 -54 28 -224 86 -484 165 -142
44 -260 81 -262 83 -2 2 19 75 47 163 27 87 57 190 65 228 14 69 14 70 -8 92
-13 12 -61 38 -108 57 -135 55 -648 229 -787 266 -31 9 -44 18 -47 34 -3 12
-12 130 -22 262 -34 484 -13 766 58 795 30 12 37 12 79 0z m3040 -905 c10 -22
25 -75 33 -117 17 -83 22 -253 7 -262 -5 -3 -18 22 -31 55 -12 34 -37 78 -55
98 -30 32 -39 36 -82 36 -137 0 -237 -180 -205 -367 14 -80 32 -120 74 -164
36 -38 32 -61 -15 -97 -50 -37 -104 -51 -207 -51 -130 -1 -232 33 -338 112
-46 35 -147 163 -172 220 -46 101 -62 246 -39 354 13 60 52 150 74 168 26 21
387 55 700 66 110 3 202 8 204 10 9 8 35 -23 52 -61z m-2816 -419 c452 -153
479 -162 483 -175 2 -6 -17 -84 -42 -174 -67 -239 -69 -252 -51 -287 16 -31
52 -47 210 -95 203 -60 555 -176 559 -184 3 -5 -8 -48 -25 -97 -16 -49 -56
-176 -89 -283 -32 -106 -61 -196 -64 -199 -9 -8 -431 277 -626 424 -392 295
-480 402 -565 689 -30 99 -105 441 -105 477 0 6 8 8 18 5 9 -3 143 -49 297
-101z m2765 -1925 c0 -20 92 -490 117 -599 l25 -112 -52 -103 c-73 -140 -182
-335 -245 -437 -29 -47 -78 -129 -110 -184 -105 -181 -333 -496 -359 -496 -6
0 -42 29 -81 65 -86 81 -111 99 -128 92 -7 -2 -32 -44 -56 -91 -23 -48 -49
-90 -57 -93 -25 -9 -85 47 -112 105 -29 63 -32 142 -8 229 15 54 34 87 99 165
l39 47 38 -19 c47 -24 114 -99 126 -142 6 -19 20 -38 34 -45 22 -11 27 -10 43
8 24 29 22 102 -4 156 -19 38 -67 84 -125 119 -18 10 -16 13 16 40 178 147
196 202 99 308 l-50 55 103 129 c186 233 234 295 341 444 109 150 285 368 299
368 5 0 8 -4 8 -9z m3686 -122 c308 -73 506 -145 819 -299 256 -126 472 -261
576 -360 72 -68 79 -79 79 -113 0 -42 -40 -129 -97 -210 -66 -93 -164 -207
-179 -207 -8 0 -41 16 -72 37 -137 88 -542 328 -597 354 -86 42 -145 35 -145
-16 0 -39 37 -64 408 -279 157 -91 302 -184 302 -194 -1 -12 -144 -120 -234
-176 -116 -73 -205 -108 -292 -114 -63 -4 -78 -1 -145 28 -156 68 -549 350
-813 583 l-49 43 30 110 c59 206 65 243 61 360 -4 132 -19 170 -109 268 -34
36 -59 66 -57 66 1 0 37 14 78 31 101 43 293 118 301 119 4 0 65 -14 135 -31z
m-5850 -95 l81 -6 60 -81 c33 -45 113 -161 176 -257 240 -362 379 -559 438
-623 33 -37 59 -71 57 -76 -1 -5 -32 -39 -67 -76 l-64 -66 -382 380 c-209 210
-389 381 -398 381 -24 0 -31 -24 -16 -52 35 -68 213 -269 520 -588 101 -105
185 -195 187 -199 1 -5 -20 -32 -47 -62 -49 -52 -51 -54 -75 -39 -14 8 -67 42
-118 74 -51 33 -198 125 -326 205 -128 80 -317 200 -419 267 l-187 120 -32
130 c-17 71 -53 221 -78 334 -26 113 -50 215 -53 228 l-5 23 333 -6 c184 -3
370 -8 415 -11z m1237 -733 c45 -43 98 -92 117 -110 l35 -31 -40 -37 c-23 -21
-92 -84 -155 -139 -63 -56 -164 -153 -224 -215 -60 -63 -231 -237 -379 -386
l-271 -272 -55 52 c-68 64 -131 135 -131 148 0 9 226 250 241 257 3 1 26 -13
52 -33 25 -19 55 -35 65 -35 36 0 255 207 401 378 84 99 88 122 40 195 l-31
47 73 82 c104 118 162 178 171 178 5 0 46 -35 91 -79z m-253 -941 c7 -19 18
-41 24 -49 12 -15 -4 -29 -68 -63 -67 -35 -193 -21 -217 23 -10 20 -4 35 27
64 6 6 55 61 110 124 l99 114 6 -89 c3 -49 12 -105 19 -124z m476 -137 c52
-49 94 -90 94 -94 0 -10 -102 -119 -112 -119 -19 0 -124 98 -142 133 l-19 34
39 66 c22 37 40 67 42 67 2 0 46 -39 98 -87z m3721 -150 c62 -94 167 -213 268
-300 137 -118 201 -187 228 -243 42 -88 166 -726 147 -759 -7 -14 -48 25 -231
222 -31 33 -48 44 -57 38 -16 -10 -37 -104 -57 -253 -8 -59 -21 -124 -30 -144
l-15 -37 -26 24 c-15 13 -35 44 -45 68 -27 60 -84 266 -108 390 -12 58 -29
118 -39 135 -10 16 -56 56 -102 87 -155 105 -268 222 -399 417 -42 63 -214
383 -208 388 1 2 32 4 67 5 51 2 75 -2 108 -20 115 -59 238 -28 366 94 l39 37
20 -33 c11 -19 44 -71 74 -116z m-4042 84 c48 -41 43 -60 -21 -89 -68 -30
-150 -34 -193 -10 -19 10 -36 23 -38 28 -2 6 23 18 54 28 32 9 76 30 98 46 22
15 45 29 51 29 6 1 28 -14 49 -32z m2635 -49 c0 -51 40 -187 80 -273 52 -112
114 -190 243 -303 172 -150 226 -207 253 -267 22 -50 48 -196 84 -470 10 -78
13 -215 4 -215 -20 0 -107 76 -195 170 -57 61 -110 109 -118 108 -19 -4 -26
-32 -40 -151 -13 -110 -49 -267 -62 -267 -32 0 -98 213 -119 383 -30 236 -29
235 -183 379 -109 101 -202 225 -285 378 -42 78 -97 227 -153 413 -28 92 -31
110 -18 117 8 5 91 10 184 10 94 0 190 5 215 9 25 5 60 9 78 10 30 1 32 -1 32
-31z m-1954 -70 l55 -58 -19 -27 c-37 -52 -244 -263 -257 -263 -7 0 -47 32
-89 71 l-77 72 119 121 c65 66 127 133 136 148 18 28 18 28 48 10 16 -9 54
-43 84 -74z"/>
<path d="M5305 8055 c-316 -166 -770 -393 -775 -390 -4 2 -13 29 -20 59 -15
65 -42 96 -68 80 -41 -25 -65 -173 -42 -256 13 -44 52 -78 90 -78 33 0 191 77
320 155 52 31 144 81 205 109 61 29 147 74 190 101 44 26 127 73 185 103 58
30 113 62 123 70 41 35 8 90 -60 99 -33 4 -55 -3 -148 -52z"/>
<path d="M2996 7839 c-33 -26 -33 -39 2 -71 34 -34 75 -51 347 -150 435 -158
560 -199 622 -205 89 -8 97 1 89 97 -14 162 -109 248 -128 115 -4 -26 -10 -51
-15 -56 -4 -4 -78 21 -163 57 -85 35 -220 85 -300 109 -80 24 -196 62 -258 85
-128 45 -158 49 -196 19z"/>
<path d="M5370 7571 c-124 -26 -322 -67 -440 -91 -276 -55 -365 -81 -412 -120
-45 -37 -92 -132 -107 -214 -18 -99 -14 -282 9 -372 65 -257 246 -442 506
-516 109 -31 303 -31 417 0 134 37 221 86 318 182 126 125 182 248 210 459 21
157 -7 426 -56 537 -46 105 -133 186 -197 183 -13 0 -124 -22 -248 -48z m279
-150 c61 -65 108 -287 98 -458 -21 -368 -252 -593 -611 -596 -186 -1 -329 56
-444 177 -99 105 -154 230 -168 380 -11 124 32 310 79 341 12 7 76 23 142 35
66 11 179 33 250 47 200 40 556 101 593 102 25 1 41 -7 61 -28z"/>
<path d="M5375 7121 c-89 -40 -130 -133 -129 -291 1 -72 7 -109 23 -152 28
-74 86 -128 137 -128 71 0 116 40 165 144 57 121 52 319 -9 391 -48 58 -113
70 -187 36z"/>
<path d="M4815 5806 c-162 -31 -377 -117 -453 -181 -56 -47 -91 -138 -59 -151
7 -2 78 27 158 65 211 103 291 125 459 125 133 1 136 0 201 -31 74 -37 100
-40 124 -17 27 27 -8 104 -65 142 -78 52 -233 73 -365 48z"/>
</g>
</svg>
