<?xml version="1.0" encoding="UTF-8" standalone="yes"?>
<svg version="1.0" xmlns="http://www.w3.org/2000/svg" width="1024.000000pt" height="1024.000000pt" viewBox="0 0 1024.000000 1024.000000" preserveAspectRatio="xMidYMid meet">
  <metadata>
Created by potrace 1.16, written by Peter Selinger 2001-2019
</metadata>
  <g transform="translate(0.000000,1024.000000) scale(0.100000,-0.100000)" fill="#000000" stroke="none">
    <path d="M2690 9622 c-209 -65 -568 -182 -700 -229 -486 -174 -604 -230 -631&#xA;-301 -10 -25 -12 -749 -3 -1108 6 -285 10 -2041 4 -2254 l-5 -184 -110 -28&#xA;c-166 -42 -154 -13 -148 -381 l5 -304 -111 -13 c-119 -14 -164 -30 -193 -70&#xA;-10 -14 -49 -110 -88 -215 -39 -104 -105 -282 -147 -395 -90 -242 -97 -284&#xA;-60 -380 28 -75 103 -237 258 -563 60 -126 108 -231 105 -235 -2 -4 -7 -52&#xA;-10 -107 -6 -101 -13 -216 -21 -335 -2 -36 -7 -175 -11 -310 -3 -135 -12 -346&#xA;-19 -470 -16 -282 -19 -767 -6 -803 8 -21 17 -27 40 -27 15 0 34 7 42 16 13&#xA;16 22 118 33 389 4 83 13 260 21 395 8 135 17 317 20 405 4 88 8 194 10 235 2&#xA;41 7 148 11 237 4 89 10 160 15 158 4 -3 40 -62 80 -133 229 -404 478 -791&#xA;554 -861 26 -23 88 -62 138 -86 114 -54 326 -146 391 -170 l49 -18 -7 -161&#xA;c-4 -88 -8 -183 -10 -211 -2 -27 -7 -127 -11 -220 -7 -149 -6 -172 8 -184 47&#xA;-38 64 39 87 389 14 221 20 302 26 322 5 15 21 11 147 -33 724 -257 1251 -419&#xA;1365 -419 52 0 136 35 224 94 29 20 56 36 61 36 4 0 5 -96 1 -213 -6 -193 -5&#xA;-215 10 -230 24 -24 55 -21 65 6 10 27 21 192 22 353 2 165 8 195 55 246 22&#xA;24 51 58 65 76 l26 34 102 -23 102 -23 -5 -31 c-3 -16 -6 -158 -8 -314 -2&#xA;-265 -1 -284 16 -297 26 -19 54 -1 60 39 3 17 8 131 11 252 5 184 12 324 19&#xA;332 0 1 24 -4 51 -10 30 -6 164 -11 335 -11 312 -1 399 8 693 66 115 23 161&#xA;28 169 20 6 -6 16 -92 24 -194 23 -320 34 -399 60 -425 29 -29 39 -29 70 2&#xA;l25 25 -7 147 c-4 82 -12 207 -19 278 -6 72 -11 154 -11 183 l1 53 67 23 c150&#xA;53 288 158 329 251 27 61 35 143 19 199 -23 83 -102 154 -197 177 -60 15 -69&#xA;22 -77 59 -10 50 -36 79 -123 136 l-83 55 0 84 0 83 103 -55 c91 -50 148 -78&#xA;295 -144 284 -128 662 -227 879 -231 86 -1 93 1 174 40 46 22 113 59 149 82&#xA;121 78 343 269 382 328 13 19 45 30 169 62 398 100 770 283 973 478 109 105&#xA;250 351 326 567 53 152 37 232 -84 412 -49 74 -78 109 -206 253 -77 86 -158&#xA;167 -249 247 l-34 30 22 139 c13 76 25 189 28 249 6 110 5 111 -27 175 -57&#xA;113 -395 635 -482 745 -61 77 -95 90 -248 100 -52 3 -117 7 -145 10 -192 17&#xA;-242 17 -276 0 -85 -44 -630 -541 -664 -606 -14 -26 -55 -224 -95 -454 -57&#xA;-333 -101 -622 -101 -664 0 -25 14 -89 30 -141 17 -52 29 -96 26 -98 -4 -4&#xA;-42 47 -385 513 -133 182 -258 350 -277 375 -30 39 -34 50 -29 85 3 22 12 80&#xA;20 129 10 68 11 94 2 108 -6 10 -46 35 -90 55 l-78 37 6 126 c4 69 9 150 11&#xA;180 4 63 13 314 20 570 3 96 7 220 10 275 8 163 14 327 20 550 3 116 8 257 10&#xA;315 5 143 15 891 19 1415 2 474 -4 688 -23 722 -28 53 -92 65 -431 78 -85 4&#xA;-182 8 -215 10 -33 2 -125 6 -205 10 -80 3 -242 10 -360 15 -389 18 -905 37&#xA;-1195 46 -121 3 -242 7 -270 9 -27 2 -185 6 -350 10 l-300 5 -125 -38z m783&#xA;-127 c7 -2 112 -6 233 -10 122 -3 253 -8 290 -10 38 -2 159 -7 269 -10 110 -3&#xA;297 -10 415 -15 118 -5 323 -14 455 -20 132 -5 278 -12 325 -15 47 -2 153 -7&#xA;235 -10 160 -6 269 -14 297 -21 11 -3 19 -19 22 -47 7 -56 13 -1457 6 -1457&#xA;-3 0 -18 31 -33 69 -32 81 -62 127 -97 153 -22 16 -32 17 -80 8 -30 -6 -120&#xA;-22 -200 -36 -80 -13 -253 -47 -385 -75 -132 -28 -254 -53 -271 -56 l-31 -5&#xA;-19 78 c-16 65 -22 79 -39 79 -18 0 -19 -8 -22 -120 -1 -66 -4 -194 -7 -285&#xA;-3 -91 -6 -220 -6 -287 l0 -123 -159 0 -158 0 1 108 1 107 43 0 c48 1 52 5 83&#xA;85 28 74 46 166 55 277 8 116 -1 193 -30 235 -24 37 -52 44 -49 13 2 -11 6&#xA;-57 9 -102 l7 -83 -28 0 c-16 0 -69 5 -119 11 -173 20 -421 50 -541 65 -66 9&#xA;-253 31 -415 49 -345 39 -329 42 -368 -65 -45 -125 -68 -335 -39 -359 8 -6 38&#xA;-14 68 -17 30 -3 55 -7 56 -8 1 -1 -3 -20 -9 -42 -6 -21 -11 -84 -12 -139 -1&#xA;-176 59 -311 195 -439 174 -164 421 -226 642 -161 98 28 188 70 236 111 17 14&#xA;34 24 37 21 14 -13 -84 -694 -102 -712 -7 -7 -38 -15 -69 -19 -200 -23 -462&#xA;-212 -609 -438 -110 -170 -188 -365 -205 -515 -11 -103 -3 -147 27 -151 12 -2&#xA;22 1 22 7 0 46 27 180 50 251 84 259 275 520 476 653 78 51 197 102 264 113&#xA;l43 7 -6 -69 c-4 -38 -10 -96 -13 -130 -5 -50 -3 -66 12 -89 25 -38 301 -267&#xA;412 -343 176 -118 230 -141 347 -145 44 -1 80 -7 82 -13 4 -13 -56 -42 -106&#xA;-50 -57 -9 -133 17 -312 107 -88 43 -196 94 -241 113 -235 97 -440 104 -586&#xA;20 -92 -54 -172 -145 -172 -196 0 -42 25 -46 68 -9 63 53 148 109 193 128 35&#xA;14 71 18 169 18 122 -1 129 -2 260 -47 74 -25 202 -76 283 -112 197 -87 273&#xA;-110 346 -103 86 7 163 54 196 118 13 24 20 26 112 33 54 3 124 11 156 18 32&#xA;6 61 7 65 4 14 -14 3 -92 -22 -162 -31 -85 -32 -94 -8 -94 45 0 108 107 126&#xA;212 11 67 12 68 56 90 25 13 51 35 57 49 37 77 51 1010 19 1226 -4 29 2 39 64&#xA;100 61 60 93 114 77 129 -3 3 -30 -15 -61 -40 -90 -73 -91 -73 -112 -18 -11&#xA;26 -20 50 -22 53 -1 3 24 33 57 66 103 105 151 233 151 406 0 73 -5 110 -20&#xA;149 -11 29 -20 54 -20 54 0 1 35 10 77 19 43 10 84 20 91 23 12 4 13 -10 8&#xA;-79 -3 -46 -8 -226 -11 -399 -4 -173 -8 -351 -10 -395 -2 -44 -7 -188 -10&#xA;-320 -3 -132 -8 -271 -10 -310 -2 -38 -7 -155 -10 -260 -3 -104 -8 -230 -10&#xA;-280 -3 -49 -10 -180 -15 -290 -12 -244 -29 -424 -40 -446 -11 -19 -48 -25&#xA;-270 -39 -85 -5 -186 -13 -224 -16 -63 -6 -69 -5 -63 10 4 10 10 42 13 72 6&#xA;46 4 55 -11 60 -31 12 -49 -11 -86 -112 -62 -173 -117 -263 -176 -287 -80 -32&#xA;-442 -67 -695 -67 -105 0 -125 3 -201 30 -46 17 -164 75 -262 130 l-178 98&#xA;-86 -4 c-193 -9 -307 -14 -516 -25 -121 -6 -222 -11 -225 -11 -3 0 -15 0 -28&#xA;1 l-23 1 5 158 c17 483 25 2044 10 2159 -7 61 -29 87 -49 60 -25 -34 -32 -218&#xA;-40 -1072 -3 -302 -8 -588 -10 -635 -3 -47 -7 -182 -10 -300 -3 -118 -7 -215&#xA;-9 -217 -1 -1 -18 19 -38 46 -73 98 -104 116 -353 207 -272 100 -655 233 -777&#xA;270 l-87 26 -1 1032 c0 567 -2 1105 -4 1196 -3 91 -6 438 -8 772 -3 530 -1&#xA;609 12 622 47 46 1139 426 1225 426 l23 0 1 -352 c1 -433 9 -798 31 -1303 5&#xA;-126 11 -297 14 -380 4 -140 5 -150 26 -167 22 -18 24 -18 42 -1 19 17 19 30&#xA;14 298 -3 154 -9 507 -12 785 -3 278 -9 611 -13 740 -4 129 -7 273 -7 320 1&#xA;81 2 84 26 92 24 7 568 1 593 -7z m2302 -1925 c41 -79 25 -287 -32 -406 -25&#xA;-53 -121 -154 -147 -154 -6 0 -64 26 -128 59 -63 32 -121 60 -128 63 -9 3 -6&#xA;16 10 48 26 52 38 147 21 178 -16 30 -85 72 -117 72 -45 0 -108 -73 -123 -143&#xA;-14 -63 -6 -60 -101 -36 -19 5 -48 9 -64 9 l-29 0 7 112 c4 62 11 115 17 119&#xA;14 9 267 45 519 75 118 14 217 27 219 30 2 2 17 4 32 4 22 0 32 -7 44 -30z&#xA;m-1870 -29 c165 -16 327 -32 360 -35 135 -12 145 -20 145 -120 0 -172 -114&#xA;-357 -263 -427 -171 -79 -359 -78 -527 4 -88 43 -210 162 -247 243 -25 54 -28&#xA;69 -28 174 0 67 6 133 13 159 l14 44 116 -7 c64 -3 252 -19 417 -35z m1126&#xA;-411 c143 -48 438 -183 496 -227 51 -39 63 -71 73 -205 11 -132 6 -1004 -6&#xA;-1076 -4 -25 -14 -47 -24 -52 -57 -31 -594 -64 -675 -41 -53 14 -218 122 -417&#xA;273 l-160 121 5 51 c3 28 20 166 37 306 42 349 68 577 81 690 6 52 14 99 19&#xA;104 5 5 67 -35 141 -90 73 -55 162 -119 198 -144 l66 -45 -1 -145 c0 -80 -4&#xA;-287 -7 -460 -12 -521 -11 -580 7 -598 43 -44 54 27 71 468 3 85 8 193 10 240&#xA;8 153 7 528 -2 543 -4 9 -87 71 -184 139 -197 138 -229 163 -229 174 0 4 99 4&#xA;219 1 185 -5 229 -9 282 -27z m3025 -1290 c78 -5 152 -12 165 -15 16 -4 45&#xA;-37 83 -93 94 -138 308 -473 304 -477 -7 -7 -327 -95 -345 -95 -13 0 -42 33&#xA;-93 108 -40 59 -110 159 -156 222 -66 93 -204 340 -204 366 0 3 24 3 53 0 28&#xA;-4 115 -11 193 -16z m-248 -137 c54 -100 61 -118 47 -125 -36 -21 -147 -120&#xA;-300 -270 l-163 -159 -96 87 c-53 48 -96 90 -96 95 0 17 519 489 538 489 4 0&#xA;35 -53 70 -117z m147 -241 c27 -42 81 -119 120 -170 38 -52 83 -111 99 -132&#xA;l28 -38 -16 -70 c-13 -56 -99 -559 -122 -713 -5 -34 -18 -46 -147 -142 -78&#xA;-58 -182 -137 -232 -175 -49 -39 -92 -69 -96 -66 -7 4 -235 345 -278 417 -17&#xA;28 -22 47 -18 70 3 18 31 154 61 302 31 149 56 284 56 300 -1 26 30 60 237&#xA;262 131 128 243 232 248 233 6 0 32 -35 60 -78z m-6548 -156 c286 -91 1051&#xA;-357 1153 -402 45 -19 71 -65 308 -539 l180 -360 -8 -81 c-12 -123 -21 -184&#xA;-28 -184 -4 0 -25 28 -47 62 -86 135 -426 614 -575 813 -169 224 -229 292&#xA;-269 302 -36 9 -547 -29 -823 -62 l-46 -5 -6 37 c-3 21 -8 134 -12 251 -6 204&#xA;-5 212 13 212 11 0 83 -20 160 -44z m5828 -105 c22 -19 59 -51 82 -72 l41 -38&#xA;-38 -188 c-56 -275 -87 -414 -99 -446 -6 -15 -25 -36 -42 -45 -17 -9 -65 -38&#xA;-107 -64 -43 -25 -79 -45 -81 -43 -8 9 146 894 164 944 5 12 8 12 23 -1 9 -8&#xA;35 -29 57 -47z m1395 -26 c0 -67 -141 -904 -166 -987 -4 -13 -135 -118 -148&#xA;-118 -2 0 -43 46 -90 102 -68 80 -86 108 -86 132 0 28 12 108 56 396 8 52 23&#xA;155 33 229 20 150 27 161 104 182 23 6 92 25 152 44 126 38 145 41 145 20z&#xA;m-2536 -34 c25 -28 29 0 -163 -1116 -101 -586 -121 -909 -98 -1614 l2 -75&#xA;-167 -27 c-93 -16 -193 -38 -227 -52 l-60 -24 -108 37 c-202 70 -363 136 -565&#xA;229 -38 17 -68 33 -68 35 0 3 72 42 161 87 241 124 285 184 282 384 -2 152&#xA;-50 258 -130 291 -19 8 -69 14 -123 14 -49 0 -90 2 -90 3 0 4 35 315 49 441 5&#xA;43 13 81 18 85 4 5 71 14 148 20 77 7 146 17 152 23 20 17 31 75 39 205 l7&#xA;122 41 5 c22 3 95 8 161 12 186 9 198 12 212 56 7 21 17 117 24 215 6 98 12&#xA;179 12 179 1 1 43 5 92 8 135 10 247 26 274 39 51 25 59 51 77 250 9 103 20&#xA;187 24 187 4 0 15 -9 24 -19z m2666 -145 c0 -86 -99 -740 -116 -768 -3 -4 -12&#xA;-8 -20 -8 -21 0 -18 45 20 256 19 104 44 250 56 324 31 198 40 240 51 240 5 0&#xA;9 -20 9 -44z m-6547 -361 c160 -213 920 -1296 955 -1361 9 -17 7 -20 -16 -22&#xA;-74 -5 -291 -48 -397 -78 -154 -44 -245 -86 -245 -112 0 -34 23 -44 64 -27 60&#xA;25 252 72 391 95 162 27 258 27 405 0 63 -11 220 -36 349 -55 128 -19 236 -37&#xA;240 -41 3 -3 -5 -14 -19 -23 -151 -99 -285 -335 -341 -603 -26 -125 -16 -120&#xA;-156 -88 -90 22 -493 132 -643 177 -344 102 -566 173 -631 201 -31 14 -57 35&#xA;-81 68 -59 81 -502 793 -647 1039 -230 393 -488 861 -479 870 5 6 192 31 328&#xA;44 94 10 167 15 515 41 55 4 147 7 205 6 l105 -1 98 -130z m4000 88 c14 -17&#xA;132 -178 431 -587 94 -129 126 -181 116 -184 -8 -3 -67 -31 -130 -63 -205&#xA;-103 -345 -209 -414 -313 -45 -68 -55 -110 -30 -120 14 -5 38 14 103 81 116&#xA;119 283 227 444 288 98 37 102 34 62 -32 -113 -187 -152 -441 -106 -694 22&#xA;-120 52 -204 121 -341 97 -192 209 -360 323 -484 27 -30 47 -58 43 -61 -10&#xA;-10 -244 34 -361 68 -187 53 -409 143 -636 255 l-227 112 -4 49 c-5 66 -2 369&#xA;6 528 12 220 57 607 86 740 5 22 11 54 14 70 55 320 112 641 123 683 6 27 15&#xA;28 36 5z m-729 -78 c3 -13 4 -48 1 -77 -2 -29 -7 -86 -10 -127 -3 -41 -7 -76&#xA;-8 -78 -2 -1 -81 -7 -176 -12 -217 -12 -233 -20 -244 -126 -4 -27 -9 -94 -12&#xA;-147 l-7 -98 -36 -1 c-115 -1 -244 -17 -258 -30 -18 -18 -37 -130 -59 -349&#xA;-11 -112 -37 -305 -42 -312 -2 -5 -11 -8 -20 -8 -8 0 -80 -27 -160 -60 -79&#xA;-33 -146 -60 -148 -60 -3 0 -5 8 -5 18 0 45 104 531 119 558 3 6 60 58 126&#xA;116 170 149 320 309 450 478 47 62 65 77 100 87 59 18 133 87 180 171 43 78&#xA;41 76 156 80 42 2 47 -1 53 -23z m-1626 -118 c133 -90 239 -148 310 -172 47&#xA;-15 79 -16 235 -11 192 6 429 22 487 33 l34 6 -31 -39 c-17 -21 -125 -135&#xA;-239 -252 l-209 -212 -60 21 c-54 19 -74 21 -207 16 l-148 -6 0 145 c0 205&#xA;-14 224 -151 210 -30 -3 -128 -8 -218 -12 -133 -5 -165 -4 -172 7 -5 8 -9 87&#xA;-9 177 l0 162 135 0 134 0 109 -73z m-497 -152 c5 -277 -6 -261 187 -257 75 1&#xA;183 5 239 8 102 6 102 6 108 -18 3 -13 5 -28 4 -34 -1 -5 -1 -62 0 -127 1&#xA;-112 2 -119 26 -143 l25 -25 169 7 c96 4 170 3 173 -2 7 -10 -20 -221 -51&#xA;-399 -11 -66 -25 -158 -30 -204 -6 -47 -15 -89 -21 -95 -6 -6 -32 0 -72 17&#xA;-78 32 -116 41 -293 67 -77 12 -216 36 -309 54 l-168 32 -45 60 c-25 32 -77&#xA;106 -115 164 l-70 105 7 130 c3 72 10 162 15 200 22 164 23 161 -106 411 -65&#xA;125 -112 229 -108 234 9 9 227 26 360 29 l72 1 3 -215z m-2360 20 c424 -757&#xA;829 -1425 1017 -1679 l62 -85 263 -85 c144 -46 315 -101 379 -120 152 -46 603&#xA;-162 738 -190 67 -14 104 -27 102 -34 -4 -24 -2 -408 3 -462 12 -117 25 -237&#xA;31 -270 16 -106 47 -265 55 -287 5 -13 9 -29 9 -34 0 -27 -76 -6 -635 180&#xA;-475 157 -898 319 -1158 444 -149 72 -153 75 -198 138 -213 294 -442 677 -682&#xA;1139 -108 207 -314 641 -351 739 -34 86 -37 69 61 325 36 94 84 223 107 286&#xA;47 127 72 180 85 180 4 0 55 -83 112 -185z m7907 -87 c164 -159 351 -400 389&#xA;-502 l18 -47 -33 -97 c-44 -128 -148 -342 -205 -418 -170 -231 -728 -501&#xA;-1180 -571 -152 -23 -473 -23 -652 1 -165 22 -267 43 -282 59 -21 22 -101 191&#xA;-127 269 -43 127 -55 368 -26 503 20 93 93 238 149 298 31 35 78 60 96 53 14&#xA;-5 225 -311 225 -326 0 -5 -28 -23 -63 -40 -80 -39 -198 -127 -214 -160 -10&#xA;-20 -10 -28 2 -39 11 -12 28 -6 112 36 54 28 129 63 166 78 l68 28 62 -21 c57&#xA;-20 81 -22 284 -22 135 0 224 -4 228 -10 3 -5 -5 -29 -19 -52 -60 -103 -113&#xA;-311 -87 -342 31 -37 47 -15 76 104 20 78 74 220 83 220 8 0 108 -133 157&#xA;-207 15 -24 33 -43 39 -43 19 0 36 22 36 47 0 12 -49 118 -109 236 -59 117&#xA;-110 228 -113 245 -7 48 21 100 86 159 57 52 182 123 218 123 24 0 44 -22 114&#xA;-127 131 -196 207 -385 222 -550 7 -75 8 -78 34 -81 21 -3 30 3 42 27 22 43&#xA;20 161 -4 257 -39 153 -173 394 -283 511 -27 29 -46 56 -43 61 12 20 144 91&#xA;213 116 83 29 101 26 150 -26 94 -100 199 -275 238 -398 24 -76 26 -95 21&#xA;-180 -3 -53 -13 -120 -22 -149 -17 -59 -14 -81 14 -81 38 0 79 71 103 179 15&#xA;70 6 240 -16 306 -41 123 -113 241 -238 394 -46 56 -66 89 -62 100 4 9 11 39&#xA;16 66 13 69 19 85 31 85 5 0 44 -33 86 -72z m-1645 16 c27 -56 166 -261 235&#xA;-348 73 -91 71 -61 26 -296 -14 -74 -30 -139 -34 -144 -21 -22 -79 50 -267&#xA;336 -150 228 -217 343 -208 358 8 13 205 130 220 130 6 0 19 -16 28 -36z m917&#xA;-193 c52 -58 93 -111 91 -116 -2 -6 -29 -19 -60 -31 -110 -39 -271 -177 -316&#xA;-268 -16 -34 -25 -72 -27 -115 l-3 -64 -147 -3 c-82 -1 -148 0 -148 4 0 4 4&#xA;34 10 67 5 33 14 107 20 164 8 86 14 109 33 129 12 13 90 73 172 133 83 59&#xA;177 130 210 158 33 27 62 49 65 49 3 0 48 -48 100 -107z m-3258 -981 c21 -26&#xA;38 -105 38 -178 0 -81 -30 -137 -100 -184 -62 -42 -322 -172 -477 -239 -95&#xA;-40 -103 -46 -103 -71 0 -30 24 -48 62 -48 13 0 58 14 101 30 l78 31 42 -34&#xA;c101 -82 245 -150 592 -278 293 -109 385 -179 385 -292 0 -73 -29 -126 -86&#xA;-155 -40 -21 -255 39 -572 160 -198 75 -234 84 -240 55 -6 -28 15 -45 110 -93&#xA;217 -109 527 -211 668 -220 74 -5 89 -3 117 15 45 28 87 89 108 158 10 32 21&#xA;61 25 66 8 10 124 -20 170 -43 63 -32 93 -73 98 -132 3 -47 0 -58 -27 -95 -71&#xA;-98 -185 -132 -581 -173 -224 -23 -479 -21 -646 5 -117 19 -371 75 -499 110&#xA;-179 50 -436 115 -454 115 -39 0 -43 22 -46 242 -4 229 4 328 35 480 26 128&#xA;66 238 120 332 86 150 92 154 351 256 74 29 193 78 264 108 194 82 273 103&#xA;370 97 65 -4 83 -8 97 -25z m2219 -586 c154 -29 303 -42 458 -41 l153 2 -67&#xA;-63 c-72 -67 -202 -156 -298 -206 l-57 -30 -36 35 c-63 59 -244 292 -244 313&#xA;0 8 -5 8 91 -10z m-1187 -374 c33 -13 67 -35 85 -56 29 -33 40 -64 24 -64 -14&#xA;0 -378 -79 -394 -85 -12 -4 -24 6 -42 37 -14 24 -49 65 -77 91 l-52 46 28 7&#xA;c56 14 260 42 316 43 36 1 78 -7 112 -19z m281 -236 c72 -34 106 -125 71 -193&#xA;-24 -45 -94 -101 -172 -137 -40 -19 -77 -34 -82 -34 -6 0 -7 14 -1 38 13 57&#xA;11 140 -5 170 -17 33 -59 73 -105 101 -41 24 -42 23 89 51 52 12 97 23 100 26&#xA;8 9 66 -3 105 -22z m-2366 -463 c80 -26 185 -59 234 -71 48 -13 87 -27 87 -32&#xA;0 -16 -121 -138 -187 -188 -34 -26 -87 -60 -117 -76 -68 -35 -83 -29 -108 45&#xA;-26 75 -76 371 -62 371 4 0 73 -22 153 -49z"/>
    <path d="M5040 8670 c-220 -65 -509 -81 -790 -45 -120 16 -145 11 -124 -23 26&#xA;-40 263 -73 494 -67 91 2 179 7 195 10 214 42 335 90 335 131 0 19 -30 17&#xA;-110 -6z"/>
    <path d="M5355 8515 c-98 -25 -202 -72 -350 -158 -92 -53 -132 -92 -115 -112&#xA;18 -21 28 -19 95 21 123 74 345 183 400 195 73 16 94 31 76 53 -16 19 -37 19&#xA;-106 1z"/>
    <path d="M3618 8433 c-93 -8 -88 -59 6 -55 30 1 99 -4 153 -13 95 -14 336 -75&#xA;371 -94 22 -12 263 -78 331 -91 57 -11 91 -1 91 25 0 26 -46 45 -201 85 -85&#xA;21 -210 54 -279 73 -215 59 -354 80 -472 70z"/>
    <path d="M3174 7096 c-27 -110 97 -310 242 -388 142 -77 330 -83 483 -18 103&#xA;45 93 78 -13 44 -153 -48 -295 -41 -421 21 -136 68 -206 148 -240 278 -23 85&#xA;-40 106 -51 63z"/>
    <path d="M4196 6771 c-74 -91 -239 -248 -299 -286 -46 -30 -62 -49 -52 -65 13&#xA;-21 144 48 214 114 49 46 169 203 197 258 37 72 7 62 -60 -21z"/>
    <path d="M4140 7408 c-72 -20 -120 -101 -120 -206 0 -37 6 -50 34 -78 58 -58&#xA;129 -41 180 44 50 83 45 177 -12 219 -42 30 -45 31 -82 21z"/>
    <path d="M5088 6831 c-58 -8 -67 -16 -45 -39 15 -15 44 -17 214 -20 107 -2&#xA;206 -1 219 2 28 7 32 40 7 52 -22 10 -330 13 -395 5z"/>
    <path d="M8086 8378 c-15 -24 -26 -168 -29 -383 l-2 -110 -90 -7 c-49 -3 -324&#xA;-9 -610 -11 -286 -3 -521 -6 -523 -6 -2 -1 -9 -16 -17 -33 -11 -26 -14 -119&#xA;-15 -458 0 -470 1 -487 54 -498 17 -3 33 -6 36 -5 3 1 263 5 578 9 l572 7 0&#xA;-261 c0 -146 4 -272 10 -286 13 -34 52 -53 83 -39 19 9 85 61 262 208 22 19&#xA;96 79 165 135 69 56 199 163 289 238 176 146 227 189 392 321 57 46 110 91&#xA;117 99 21 27 14 71 -16 100 -54 52 -487 421 -743 633 -57 47 -180 150 -273&#xA;228 -180 151 -209 166 -240 119z m154 -228 c3 -3 61 -53 130 -111 69 -58 157&#xA;-132 196 -165 185 -155 322 -272 517 -443 60 -51 105 -97 100 -102 -4 -4 -85&#xA;-70 -179 -146 -94 -76 -314 -255 -489 -398 -174 -143 -323 -264 -331 -268 -12&#xA;-7 -14 28 -14 228 0 216 -2 237 -19 254 -17 17 -102 37 -118 28 -5 -3 -255 -8&#xA;-557 -12 l-549 -8 6 353 c4 194 8 354 9 356 2 1 266 5 588 9 322 4 594 9 605&#xA;12 54 14 55 20 55 246 l0 210 23 -19 c12 -10 24 -21 27 -24z"/>
  </g>
  <title>Villager</title>
  <desc>Villager</desc>
</svg>