<?xml version="1.0" standalone="no"?>
<!DOCTYPE svg PUBLIC "-//W3C//DTD SVG 20010904//EN"
 "http://www.w3.org/TR/2001/REC-SVG-20010904/DTD/svg10.dtd">
<svg version="1.0" xmlns="http://www.w3.org/2000/svg"
 width="1024.000000pt" height="1024.000000pt" viewBox="0 0 1024.000000 1024.000000"
 preserveAspectRatio="xMidYMid meet">
<metadata>
Created by potrace 1.16, written by Peter Selinger 2001-2019
</metadata>
<g transform="translate(0.000000,1024.000000) scale(0.100000,-0.100000)"
fill="#000000" stroke="none">
<path d="M5890 9983 c-445 -16 -1454 -147 -2067 -269 -148 -29 -185 -46 -247
-114 -67 -76 -74 -108 -82 -406 -4 -140 -11 -257 -15 -260 -5 -3 -48 -12 -96
-20 -123 -22 -166 -43 -202 -99 -42 -66 -51 -123 -58 -340 -10 -333 25 -396
251 -450 l91 -22 3 -275 2 -274 -33 -89 c-29 -80 -37 -92 -68 -107 -60 -28
-74 -60 -74 -163 0 -108 13 -144 65 -180 26 -18 41 -37 45 -58 4 -18 24 -68
45 -112 34 -72 39 -90 44 -185 17 -304 37 -581 46 -624 l10 -49 -51 -59 c-57
-65 -294 -394 -335 -464 -25 -42 -29 -45 -58 -38 -77 16 -161 67 -232 140 -93
96 -108 98 -197 14 -36 -33 -69 -60 -75 -60 -6 0 -26 -15 -45 -33 -18 -19 -45
-37 -59 -40 -15 -4 -40 -18 -56 -32 -25 -21 -34 -23 -63 -15 -51 15 -126 12
-162 -6 -71 -36 -98 -80 -98 -160 0 -56 6 -75 166 -456 l57 -136 -61 -73 c-92
-110 -111 -193 -71 -322 11 -36 35 -87 54 -114 25 -37 36 -66 41 -109 10 -79
35 -133 88 -191 27 -30 52 -72 66 -110 26 -69 85 -144 135 -170 17 -9 77 -28
134 -42 l103 -26 24 -60 c14 -35 38 -72 57 -88 18 -16 155 -116 303 -224 513
-372 591 -433 620 -486 l27 -49 -17 -264 c-20 -305 -16 -369 27 -454 47 -94
116 -139 288 -185 36 -10 68 -21 72 -24 4 -3 19 -148 33 -321 27 -329 32 -366
57 -415 42 -79 85 -104 291 -166 380 -114 543 -138 663 -96 l41 15 43 -50 c62
-72 179 -120 491 -202 393 -103 446 -95 824 123 216 125 256 157 292 228 l28
58 3 382 3 382 111 61 c219 121 317 202 360 298 32 70 34 213 8 462 -25 247
-46 504 -56 698 l-7 144 100 101 c107 110 253 270 349 383 187 220 262 397
251 594 -5 93 -87 435 -155 645 -121 374 -343 930 -406 1019 -18 25 -53 61
-79 81 l-47 36 0 72 c0 79 -23 143 -66 188 l-24 26 19 44 c34 76 40 161 45
604 6 501 21 794 42 811 8 6 40 14 72 18 80 10 141 43 178 99 35 51 47 105 64
282 28 308 0 384 -170 451 l-72 29 6 95 c3 52 11 166 16 254 19 281 -8 330
-251 459 -255 135 -948 446 -1129 507 -72 24 -170 36 -270 33z m165 -148 c126
-29 745 -302 1110 -488 239 -122 245 -128 245 -246 0 -95 -30 -464 -39 -473
-5 -6 -276 86 -556 188 -69 25 -446 159 -620 220 -126 44 -158 45 -534 19
-352 -25 -408 -30 -796 -65 -121 -11 -326 -29 -455 -40 -129 -11 -352 -31
-494 -45 -143 -14 -268 -25 -278 -25 -18 0 -18 9 -12 178 13 397 21 440 92
484 85 53 1284 229 1952 287 69 6 139 13 155 15 75 8 175 5 230 -9z m375 -969
c184 -65 391 -137 460 -161 545 -190 695 -246 719 -270 25 -25 26 -30 24 -133
-3 -120 -19 -282 -34 -327 -13 -43 -57 -65 -139 -72 -61 -5 -70 -4 -70 11 0
13 11 16 59 16 33 0 62 4 66 10 3 5 -20 16 -52 25 -32 9 -78 23 -103 31 -25 7
-151 39 -280 69 -129 31 -408 99 -620 152 l-385 96 -151 5 c-83 2 -266 -1
-405 -7 -140 -6 -488 -20 -774 -31 -830 -32 -1341 -62 -1359 -80 -6 -6 -8 -10
-5 -11 120 -16 152 -25 155 -43 2 -16 -2 -18 -32 -13 -18 3 -72 17 -119 32
-118 36 -119 37 -123 240 -2 88 1 194 7 235 8 64 14 79 39 101 17 15 47 30 68
33 55 9 732 73 964 91 107 9 368 31 580 50 212 19 464 39 560 46 96 6 218 15
270 19 52 4 151 7 220 6 l125 -3 335 -117z m-513 -653 c-17 -117 -47 -759 -47
-1016 l0 -78 -106 3 -106 3 -27 80 c-33 101 -106 220 -172 279 -69 62 -190
121 -278 136 -258 43 -526 -142 -595 -412 -7 -29 -16 -52 -20 -50 -3 1 -34 2
-69 2 l-63 0 -11 58 c-14 70 -55 182 -61 164 -3 -9 -12 -1 -26 21 -151 244
-465 302 -687 126 l-39 -31 0 325 0 325 98 6 c53 3 210 11 347 16 138 6 459
19 715 30 256 11 598 24 760 30 162 6 304 12 315 14 11 2 33 4 49 5 27 1 28 0
23 -36z m188 2 c66 -15 183 -41 260 -60 185 -45 515 -123 749 -179 103 -25
190 -47 192 -49 3 -2 0 -55 -5 -118 -19 -215 -31 -504 -36 -904 -3 -220 -8
-419 -11 -443 -10 -82 -36 -102 -419 -317 -232 -131 -588 -341 -750 -443 -158
-100 -211 -122 -300 -122 -38 0 -75 4 -82 8 -8 5 -14 126 -20 437 -7 303 -13
437 -21 452 -17 31 -41 42 -108 49 -90 9 -90 9 -45 61 53 60 95 134 117 206
l18 57 76 0 c41 0 91 -3 110 -6 l35 -6 4 -416 c2 -230 4 -499 5 -600 1 -100 4
-182 7 -182 4 0 13 15 20 33 17 39 18 237 5 793 l-9 381 49 12 c27 6 179 55
338 107 158 52 297 94 308 92 16 -2 28 -24 53 -98 34 -95 55 -125 101 -136 52
-13 120 28 144 87 17 39 4 98 -45 213 -58 134 -114 186 -200 186 -37 0 -305
-67 -575 -144 -85 -24 -158 -41 -162 -37 -4 3 -3 74 2 156 16 267 34 707 34
837 0 124 0 127 20 123 12 -2 75 -16 141 -30z m-2003 -693 c79 -39 164 -125
206 -209 17 -33 39 -99 49 -147 11 -55 22 -85 29 -82 50 19 166 14 230 -11 6
-2 17 26 27 72 36 161 131 291 259 354 162 79 327 62 484 -50 85 -62 160 -185
194 -318 l16 -66 75 -6 c41 -4 114 -7 162 -8 l88 -1 -3 -62 -3 -63 -157 0
c-90 0 -161 -4 -167 -10 -5 -6 -16 -37 -26 -70 -24 -85 -57 -145 -115 -208
-105 -115 -220 -163 -370 -155 -64 4 -102 12 -141 30 -130 60 -232 183 -282
339 -15 47 -36 94 -46 104 -44 39 -132 54 -203 35 -35 -10 -39 -15 -54 -68
-18 -62 -42 -95 -88 -119 -27 -14 -28 -14 -21 3 91 211 60 432 -82 580 -72 75
-129 99 -233 99 -76 0 -91 -3 -139 -30 -260 -144 -277 -586 -29 -766 41 -29
114 -55 172 -61 l29 -3 -30 -32 -31 -33 -53 16 c-225 66 -370 344 -315 603 29
138 108 264 202 322 112 69 252 77 366 21z m-142 -79 c-1 -5 -21 -21 -47 -37
-96 -61 -158 -203 -156 -362 1 -137 39 -238 120 -325 25 -27 43 -49 41 -49 -3
0 -24 7 -47 15 -102 36 -185 128 -223 249 -28 88 -21 229 14 308 29 62 92 136
144 168 43 27 155 50 154 33z m161 -80 c33 -31 62 -72 87 -122 32 -68 36 -86
40 -171 l4 -95 -24 27 c-31 36 -59 48 -109 48 -125 0 -183 -178 -101 -309 l31
-51 -34 0 c-80 0 -174 119 -202 257 -38 183 32 373 165 443 60 31 86 26 143
-27z m2589 -143 c27 -27 85 -145 105 -214 15 -52 15 -59 1 -81 -20 -30 -54
-42 -70 -24 -6 8 -24 53 -40 101 -35 105 -53 128 -104 128 -35 0 -219 -55
-514 -152 l-138 -46 0 48 c0 27 -3 55 -6 63 -4 11 14 20 78 36 46 12 187 51
313 86 275 76 260 72 313 74 30 1 48 -5 62 -19z m-3240 -134 c0 -55 -15 -81
-31 -55 -10 16 -12 93 -2 102 3 4 12 7 20 7 9 0 13 -16 13 -54z m724 -105 c25
-28 18 -85 -11 -89 -24 -4 -63 29 -63 53 0 16 34 55 48 55 5 0 17 -9 26 -19z
m366 -73 c11 -12 20 -25 20 -29 0 -4 -35 -5 -77 -3 -43 2 -77 7 -76 11 11 43
11 43 62 43 39 0 55 -5 71 -22z m-3 -81 c25 -10 39 -28 71 -89 l40 -77 -42
-27 c-22 -15 -71 -51 -108 -81 -91 -72 -93 -80 -92 -368 2 -214 29 -743 39
-754 14 -13 18 23 18 156 0 82 -6 252 -13 378 -16 289 -12 471 12 503 9 13 58
57 109 98 l92 74 31 -37 c43 -51 44 -56 45 -168 1 -55 8 -226 16 -380 8 -154
15 -330 15 -391 0 -132 5 -125 -143 -221 -153 -99 -174 -107 -277 -99 -128 9
-260 35 -305 59 -60 33 -72 68 -90 257 -19 220 -38 660 -30 729 14 125 44 172
143 229 220 127 263 152 316 186 63 38 97 43 153 23z m-811 -414 c4 -154 23
-429 34 -498 4 -27 6 -52 3 -55 -11 -12 -80 38 -95 70 -17 34 -30 180 -54 578
l-6 113 57 -40 58 -41 3 -127z m104 91 l25 -6 1 -329 c0 -235 -3 -329 -11
-329 -45 0 -54 52 -75 445 -13 257 -14 239 13 231 12 -4 33 -9 47 -12z m1679
-14 c40 -5 80 -15 87 -21 10 -9 14 -42 14 -128 0 -64 5 -255 11 -424 6 -173 7
-312 3 -316 -12 -10 -761 81 -772 94 -5 6 -12 88 -16 183 l-6 172 66 0 c82 0
194 25 258 57 27 14 73 47 102 75 l53 50 28 -41 c15 -22 31 -40 36 -41 4 0 7
15 7 33 0 71 -105 151 -174 133 -45 -11 -32 -28 38 -50 40 -13 -105 -104 -211
-131 -59 -16 -198 -21 -206 -7 -3 4 -8 87 -12 185 l-7 177 77 -37 c70 -33 88
-37 180 -41 114 -5 201 14 280 62 46 28 62 29 164 16z m1702 -282 c32 -18 42
-31 54 -72 8 -27 15 -76 15 -107 l0 -58 -47 -6 c-67 -9 -170 -40 -247 -75
-281 -126 -538 -461 -535 -700 l0 -55 13 35 c43 115 148 293 234 396 121 146
334 277 502 310 166 32 201 3 314 -265 170 -402 333 -873 413 -1196 36 -149
38 -301 3 -390 -32 -83 -90 -173 -188 -290 -103 -122 -415 -449 -657 -686
l-180 -177 -1 257 c0 215 -4 274 -22 371 -36 198 -127 416 -215 516 -94 107
-322 243 -447 267 -33 6 -60 14 -60 17 0 3 42 27 93 53 50 26 126 65 167 88
42 22 106 46 145 54 150 31 369 11 515 -48 35 -15 65 -25 67 -23 6 6 -61 53
-112 78 -113 57 -280 84 -414 68 -46 -6 -85 -9 -88 -7 -9 10 87 81 152 112 90
44 174 63 303 72 75 4 100 9 92 17 -7 7 -64 11 -158 10 -135 -1 -153 -3 -222
-29 -81 -30 -130 -58 -183 -105 l-35 -30 -5 28 c-3 15 -16 116 -28 225 -25
207 -33 227 -65 165 -14 -27 -16 -51 -10 -148 3 -63 13 -164 21 -225 l15 -110
-25 -20 c-14 -11 -116 -69 -227 -129 -112 -60 -238 -128 -281 -152 -51 -28
-79 -39 -82 -31 -2 7 -23 100 -45 207 -49 233 -64 282 -101 337 -39 57 -85 83
-144 83 -40 0 -59 7 -102 37 -50 34 -53 39 -47 67 8 42 27 58 104 89 151 63
288 227 350 420 6 21 17 40 24 41 62 15 138 54 305 153 301 180 673 354 978
458 61 22 110 42 107 47 -15 24 -150 -14 -389 -107 -42 -17 0 11 147 96 84 49
161 89 171 89 11 0 37 -10 58 -22z m-3519 -412 c18 -8 46 -18 62 -21 23 -5 27
-10 22 -28 -16 -60 -17 -221 -1 -504 9 -171 15 -318 12 -325 -3 -8 -8 -4 -15
12 -30 72 -136 175 -225 221 -58 30 -64 18 -11 -21 68 -51 164 -167 208 -254
33 -63 41 -92 49 -170 l11 -95 -35 -39 c-19 -22 -37 -41 -41 -41 -5 -1 -8 14
-8 32 0 110 -94 324 -188 427 -54 60 -173 146 -270 194 l-53 27 54 77 c29 42
84 122 122 177 143 208 248 341 272 345 1 0 17 -6 35 -14z m178 -70 c0 -8 5
-60 10 -117 15 -151 31 -198 83 -246 49 -46 78 -57 192 -76 l79 -13 35 -59
c42 -72 110 -142 184 -189 57 -36 67 -57 67 -131 l0 -32 -97 -12 c-186 -24
-336 -71 -464 -144 l-77 -44 -7 166 c-3 91 -13 279 -21 416 -20 349 -17 495 7
495 5 0 9 -6 9 -14z m1803 -227 c58 -7 97 -16 97 -23 0 -6 -13 -39 -29 -73
-86 -182 -196 -289 -355 -349 -39 -14 -52 -25 -63 -53 l-15 -35 -17 23 c-21
27 -59 26 -123 -3 l-38 -16 0 58 c0 33 3 93 6 135 l7 77 36 5 c160 23 204 40
262 102 38 40 59 74 83 136 12 29 20 37 33 33 10 -2 62 -10 116 -17z m-283
-95 c-31 -37 -102 -66 -192 -80 -122 -18 -129 -26 -137 -141 l-6 -88 -53 -3
-53 -3 6 133 c4 73 8 139 10 146 3 8 27 12 72 12 78 0 332 26 341 34 13 13 23
5 12 -10z m-2585 -73 c57 -54 105 -80 244 -135 322 -127 475 -255 551 -465 32
-87 50 -197 50 -307 0 -82 13 -96 46 -46 31 47 136 152 204 202 174 128 347
179 725 215 217 21 403 57 522 101 l94 36 18 -24 c11 -12 17 -26 15 -30 -7
-11 -167 -65 -307 -104 -76 -20 -137 -40 -137 -44 0 -22 277 35 403 83 69 26
82 28 103 17 13 -8 24 -17 24 -20 0 -4 -33 -19 -72 -33 -40 -14 -257 -89 -483
-167 -225 -78 -518 -179 -650 -225 -133 -45 -264 -93 -292 -105 l-51 -22 -38
25 c-78 48 -152 69 -246 69 -83 -1 -87 0 -104 26 -10 15 -40 47 -68 72 -93 84
-597 495 -814 664 l-83 64 27 21 c15 12 30 21 34 21 5 0 44 -26 87 -58 131
-97 246 -162 260 -149 2 3 -47 41 -109 86 -62 44 -129 94 -148 110 l-35 29 29
30 28 31 59 -49 c78 -65 154 -108 330 -190 259 -119 374 -219 451 -390 31 -68
68 -206 68 -252 0 -16 5 -28 11 -28 16 0 4 158 -17 230 -38 128 -119 244 -226
325 -35 26 -139 85 -233 130 -191 94 -316 168 -359 214 l-30 31 29 30 c16 17
31 30 33 30 3 0 28 -22 57 -49z m1712 -93 c33 -31 81 -56 137 -72 l41 -12 6
-129 c4 -72 3 -133 0 -137 -4 -5 -34 -11 -67 -14 -58 -6 -61 -5 -67 17 -4 13
-7 43 -7 66 0 36 -5 46 -37 72 -138 111 -165 136 -192 175 -17 25 -31 48 -31
53 0 4 43 8 95 8 88 0 96 -2 122 -27z m-2166 -66 c52 -39 777 -621 884 -710
119 -99 125 -107 125 -154 0 -95 138 -163 331 -163 105 0 105 0 160 37 40 28
134 64 364 143 171 58 405 139 520 180 283 100 724 250 757 258 20 5 34 1 57
-19 36 -30 39 -44 11 -44 -22 0 -276 -84 -775 -255 -187 -64 -458 -156 -603
-205 -222 -75 -269 -94 -302 -124 -83 -75 -209 -82 -388 -24 -148 49 -208 107
-199 194 4 32 0 39 -38 67 -23 18 -211 167 -416 332 -206 165 -425 340 -486
389 -62 48 -113 91 -113 96 0 6 49 26 70 29 3 0 21 -12 41 -27z m-31 -135 c41
-34 118 -96 170 -137 52 -41 238 -188 412 -328 l318 -253 -6 -57 c-8 -73 15
-135 390 -1074 91 -229 166 -422 166 -427 0 -6 -44 22 -97 62 -211 159 -413
307 -513 376 -152 106 -191 140 -206 180 -8 20 -19 44 -25 54 -6 11 -9 20 -7
21 2 1 16 10 31 20 15 9 35 33 44 52 15 30 15 41 4 87 -7 28 -24 72 -37 96
-15 27 -22 52 -18 66 9 37 -22 126 -66 192 -22 34 -40 72 -40 86 0 15 -10 52
-21 83 -30 79 -80 124 -183 164 l-83 33 -118 281 c-65 154 -137 327 -161 384
-24 56 -40 102 -36 102 4 0 41 -28 82 -63z m2615 -42 c78 -2 120 -7 119 -14
-1 -6 -2 -17 -2 -25 -2 -14 -120 -47 -224 -61 l-48 -7 0 62 c0 55 2 61 18 55
9 -4 71 -8 137 -10z m675 -355 c13 -25 195 -785 203 -849 2 -14 -56 -61 -75
-61 -12 0 -13 2 -92 312 l-72 283 -65 0 c-79 0 -108 17 -138 79 -11 25 -27 46
-35 46 -15 0 -970 -318 -1027 -342 l-35 -15 3 -59 c5 -72 -17 -113 -77 -144
-22 -11 -40 -24 -40 -29 0 -4 30 -93 66 -197 36 -104 108 -313 160 -464 52
-151 106 -305 120 -342 l26 -68 61 0 c77 0 116 -22 141 -79 11 -22 22 -41 27
-41 6 0 467 134 572 166 10 3 17 0 17 -9 0 -8 7 -28 16 -46 9 -18 14 -34 12
-37 -13 -13 -827 -246 -847 -242 -8 2 -24 32 -37 68 -12 36 -45 130 -74 210
-67 189 -145 408 -268 760 -55 157 -123 347 -151 423 -28 75 -51 139 -51 142
0 2 123 45 273 94 149 49 337 112 417 140 354 122 944 321 951 321 5 0 13 -9
19 -20z m-3160 -260 l30 -60 -27 -11 c-26 -10 -22 -13 79 -48 171 -61 199 -84
223 -188 18 -75 9 -86 -80 -91 -74 -5 -205 30 -266 71 -63 42 -115 170 -99
242 7 33 86 143 102 145 4 0 21 -27 38 -60z m2891 -20 c29 -52 112 -95 164
-87 33 5 35 4 44 -31 5 -20 35 -138 66 -262 30 -124 58 -233 61 -242 5 -16 -6
-17 -133 -15 -132 2 -140 1 -188 -24 -27 -14 -75 -34 -105 -44 -71 -23 -130
-53 -130 -66 0 -19 33 -22 62 -5 16 10 31 16 33 14 6 -6 -27 -102 -42 -119
-15 -18 -8 -49 12 -49 8 0 16 -19 20 -47 4 -27 13 -63 21 -82 10 -23 12 -50 8
-82 -7 -52 11 -168 32 -211 8 -14 28 -36 44 -48 23 -17 30 -29 28 -47 -3 -23
-13 -29 -98 -55 -165 -50 -442 -128 -454 -128 -6 0 -21 16 -33 35 -32 49 -66
67 -135 74 l-61 6 -44 130 c-76 223 -241 696 -271 780 l-30 79 47 42 c53 48
76 103 66 158 l-7 34 64 20 c145 47 682 226 798 266 69 24 128 44 132 45 4 0
17 -17 29 -39z m-1659 -93 c29 -14 62 -32 73 -41 19 -14 16 -15 -42 -16 -91 0
-273 47 -273 70 0 30 171 21 242 -13z m2532 -32 c48 -14 115 -38 149 -54 79
-36 208 -132 270 -201 117 -130 205 -410 225 -710 9 -150 -2 -405 -19 -446
-15 -33 -274 -275 -349 -325 -42 -28 -50 -30 -120 -27 -84 3 -171 39 -243 99
-34 28 -37 33 -22 42 13 7 38 -1 103 -34 137 -71 200 -59 254 45 62 121 68
497 12 791 -57 302 -113 393 -332 543 -117 80 -204 120 -265 123 -91 5 -71 32
78 110 55 28 104 56 110 60 15 15 59 10 149 -16z m-2692 -207 c114 -31 242
-30 315 2 29 12 58 29 64 36 10 12 19 -7 50 -98 l38 -113 -25 -22 c-44 -40
-124 -56 -248 -51 -116 5 -191 26 -266 73 -33 21 -65 81 -128 243 -3 8 20 1
56 -17 33 -17 98 -40 144 -53z m2433 -52 c69 -32 214 -128 273 -181 87 -78
131 -189 172 -430 11 -66 23 -176 27 -246 l6 -125 -136 -125 c-178 -163 -288
-228 -388 -229 -89 0 -288 49 -379 95 -58 29 -85 60 -99 110 -21 76 -22 76 87
42 70 -21 119 -29 175 -30 116 -1 116 16 -2 42 -120 27 -297 94 -329 125 -35
34 -71 196 -43 196 5 0 33 -11 64 -25 105 -46 229 -69 318 -59 67 8 76 20 22
29 -94 17 -238 56 -314 87 -106 43 -117 60 -126 190 l-6 95 36 35 c19 20 60
48 91 63 53 26 59 27 119 16 165 -29 269 -5 362 82 44 42 55 59 55 84 0 35
-17 53 -26 29 -12 -31 -32 -16 -42 32 -27 126 -27 122 4 122 16 0 52 -11 79
-24z m-3471 -25 c24 -11 80 -25 123 -32 68 -10 86 -10 138 6 59 17 59 17 77
-5 22 -27 51 -122 46 -152 -5 -37 -43 -50 -133 -44 -85 5 -184 34 -236 69 -38
26 -69 81 -76 137 -6 46 -2 48 61 21z m1543 -199 l22 -57 -27 -22 c-42 -35
-144 -63 -228 -63 -93 0 -163 15 -240 51 -53 25 -63 34 -84 79 -13 27 -21 53
-18 56 3 3 25 -4 48 -16 131 -67 378 -64 465 5 16 13 32 24 35 24 3 1 15 -25
27 -57z m-1276 -91 c31 -1 75 6 98 14 l41 14 15 -36 c27 -64 29 -82 10 -103
-15 -16 -31 -20 -90 -20 -126 0 -215 42 -255 119 -10 21 -17 41 -15 43 3 2 35
-4 72 -13 38 -10 93 -18 124 -18z m1376 -199 c34 -97 88 -251 121 -342 33 -91
62 -175 66 -187 6 -19 0 -26 -46 -49 -121 -63 -353 -33 -470 59 -9 7 -43 78
-74 158 -31 79 -90 227 -131 328 -40 101 -71 186 -69 188 2 3 18 -3 35 -11
121 -63 353 -58 451 9 19 13 40 24 45 24 6 1 38 -79 72 -177z m3143 -444 c0
-90 21 -375 45 -613 24 -239 24 -235 -37 -288 -151 -127 -531 -334 -848 -461
-186 -74 -299 -106 -374 -106 -62 0 -281 32 -407 60 -102 22 -123 36 -150 95
-24 55 -111 465 -152 719 l-34 208 32 14 c17 7 52 18 77 24 38 10 50 9 69 -4
83 -54 316 -109 441 -104 76 2 79 1 120 -33 128 -106 212 -142 333 -143 98 0
126 13 245 115 122 105 505 466 570 537 30 33 58 60 63 61 4 0 7 -36 7 -81z
m-3290 -204 c128 -27 262 -12 324 37 31 25 29 26 50 -25 26 -62 22 -72 -41
-103 -54 -26 -67 -28 -178 -28 -119 0 -121 0 -197 38 -76 37 -94 55 -112 114
l-7 23 48 -21 c26 -11 77 -27 113 -35z m457 -224 c23 -62 40 -118 36 -123 -3
-5 -29 -20 -57 -33 -62 -29 -173 -33 -257 -8 -70 21 -160 68 -193 103 -24 25
-89 161 -81 169 2 2 34 -9 72 -24 61 -25 81 -28 183 -29 109 0 118 2 175 31
33 17 65 30 70 29 6 -1 29 -53 52 -115z m837 -2 c79 -502 158 -878 199 -940
12 -18 42 -43 67 -55 44 -22 305 -74 440 -88 171 -18 410 60 833 272 224 111
489 277 505 315 2 5 8 8 13 8 14 0 11 -157 -5 -193 -19 -45 -65 -85 -186 -162
-239 -151 -817 -414 -979 -445 -80 -15 -165 -12 -266 9 -441 95 -523 118 -555
158 -11 14 -29 54 -39 88 -50 160 -201 1000 -183 1017 7 6 128 46 144 47 4 1
9 -14 12 -31z m-394 -81 c0 -21 -43 -610 -50 -692 -20 -218 -24 -225 -114
-225 -41 0 -121 15 -237 44 -325 83 -443 122 -481 161 -29 28 -48 86 -48 141
l0 39 143 -46 c229 -76 388 -120 455 -126 56 -5 65 -4 87 17 36 34 43 69 65
330 29 350 19 314 98 338 72 21 82 24 82 19z m-200 -66 c0 -5 -11 -125 -25
-267 -14 -142 -25 -266 -25 -275 0 -10 -7 -25 -16 -33 -31 -31 -86 -21 -404
75 -183 55 -255 86 -255 109 0 8 4 93 9 188 8 154 10 172 25 166 9 -4 59 -22
111 -40 81 -29 108 -34 186 -34 101 0 133 8 216 57 31 18 80 39 110 47 65 18
68 18 68 7z m366 -288 c17 -13 36 -23 42 -23 7 0 14 -10 17 -22 22 -95 94
-452 92 -455 -2 -2 -60 10 -128 25 -117 28 -124 30 -122 53 11 154 50 456 58
451 5 -3 24 -16 41 -29z m-581 -702 c339 -77 519 -123 547 -137 39 -20 88 -59
106 -85 17 -24 44 -181 33 -192 -4 -4 -62 4 -127 18 -178 40 -585 145 -614
158 -27 13 -32 36 -43 185 -4 52 -3 72 6 72 7 0 48 -9 92 -19z m2381 -192 c-2
-73 3 -69 -157 -149 -64 -33 -124 -66 -133 -75 -12 -12 -16 -35 -16 -90 l0
-73 -119 -61 c-66 -34 -126 -61 -134 -61 -13 0 -24 100 -32 283 0 5 47 30 105
56 58 26 129 58 159 71 30 14 114 55 185 92 72 37 134 67 137 68 3 0 5 -27 5
-61z m-1440 -28 c5 -5 61 -21 124 -36 63 -15 198 -46 300 -71 208 -49 253 -59
326 -74 l52 -11 7 -145 c4 -80 5 -147 2 -150 -3 -3 -94 20 -203 50 -110 30
-289 78 -399 106 -110 28 -203 54 -207 58 -7 7 -28 198 -28 255 0 28 9 34 26
18z m-942 -91 c133 -38 552 -139 621 -150 38 -6 71 -13 74 -16 3 -2 5 -71 5
-152 l1 -147 -65 1 c-103 3 -487 100 -606 154 -52 23 -64 33 -73 62 -12 37
-37 268 -28 268 1 0 33 -9 71 -20z m2383 -187 c-3 -98 -10 -192 -16 -208 -6
-17 -26 -42 -44 -56 -101 -79 -463 -279 -505 -279 -17 0 -18 4 -10 53 4 28 8
90 7 136 l-2 85 141 71 c78 39 148 80 157 90 9 13 15 45 15 90 l1 70 122 61
c67 34 126 62 131 63 5 0 6 -76 3 -176z m-1020 -163 l392 -104 6 -40 c3 -23 5
-88 3 -146 l-3 -105 -65 1 c-104 2 -592 131 -689 183 -35 19 -50 63 -56 167
-3 55 -8 112 -10 128 -4 23 -2 27 13 24 9 -3 193 -51 409 -108z"/>
<path d="M5995 9677 c0 -56 -4 -209 -9 -339 -9 -236 -3 -285 22 -200 22 73 42
545 23 556 -5 3 -12 21 -15 41 -13 66 -21 43 -21 -58z"/>
<path d="M6040 8770 c0 -91 -7 -212 -15 -269 -8 -57 -13 -106 -11 -109 7 -7
28 39 42 93 20 73 29 298 15 370 -21 113 -31 87 -31 -85z"/>
<path d="M4937 8110 c-111 -19 -161 -87 -162 -223 0 -72 2 -80 25 -99 22 -18
33 -19 140 -13 172 10 276 -21 469 -140 39 -24 68 -35 86 -33 65 7 97 126 56
207 -68 132 -283 278 -446 301 -79 11 -101 11 -168 0z m203 -71 c153 -42 296
-143 353 -248 25 -45 27 -55 17 -90 -6 -22 -15 -43 -21 -47 -6 -3 -30 8 -52
25 -62 46 -154 97 -232 128 -66 26 -78 28 -224 27 l-153 -1 4 66 c7 96 23 122
83 143 67 23 135 22 225 -3z"/>
<path d="M4055 8096 c-157 -38 -336 -216 -338 -335 -1 -54 33 -121 61 -121 9
0 58 25 107 55 146 90 234 109 385 83 62 -11 72 -10 86 4 42 42 19 217 -35
272 -19 18 -48 33 -87 42 -70 16 -112 16 -179 0z m203 -68 c36 -18 55 -60 60
-137 l4 -64 -33 6 c-177 32 -285 10 -435 -89 -59 -39 -70 -41 -79 -14 -29 90
145 271 299 311 41 11 150 3 184 -13z"/>
<path d="M4987 7450 c-113 -36 -212 -137 -259 -265 -32 -87 -31 -224 1 -324
92 -281 396 -389 608 -215 123 100 184 288 149 454 -37 176 -152 309 -305 354
-70 20 -122 19 -194 -4z m232 -64 c249 -127 309 -466 118 -674 -60 -64 -144
-102 -227 -102 -86 0 -100 9 -65 44 38 38 55 87 55 159 0 127 -77 227 -173
227 -65 0 -137 -75 -137 -142 0 -15 -4 -29 -9 -33 -17 -10 -34 100 -29 187 9
169 112 308 268 359 47 16 142 3 199 -25z m-196 -430 c20 -29 19 -58 -2 -79
-20 -20 -23 -21 -49 -7 -33 19 -41 63 -16 91 18 20 51 17 67 -5z"/>
<path d="M4047 6553 c-16 -16 -2 -20 81 -26 48 -4 119 -10 157 -13 90 -8 78
10 -21 31 -71 15 -205 20 -217 8z"/>
<path d="M5116 5936 c-49 -26 -75 -32 -150 -36 l-91 -6 37 -17 c81 -37 202
-11 248 52 12 18 21 33 19 35 -2 1 -31 -11 -63 -28z"/>
<path d="M6224 5635 c-76 -79 -112 -246 -134 -625 -11 -193 -11 -518 -1 -565
l7 -30 7 25 c4 14 12 106 17 205 34 586 42 687 59 771 21 100 48 170 86 220
28 37 30 44 13 44 -6 0 -31 -20 -54 -45z"/>
<path d="M3120 4832 c160 -126 246 -230 309 -375 19 -42 38 -77 44 -77 19 0
-3 76 -49 169 -55 112 -143 206 -250 269 -80 48 -105 54 -54 14z"/>
<path d="M4305 4649 c-85 -13 -233 -64 -301 -105 -75 -45 -159 -117 -195 -167
-43 -59 -35 -64 21 -15 91 79 144 118 205 152 74 42 224 101 293 117 29 7 52
16 52 21 0 4 -3 7 -7 7 -5 -1 -35 -5 -68 -10z"/>
<path d="M4215 4506 c-112 -31 -177 -61 -273 -123 -74 -49 -122 -96 -110 -108
2 -2 42 21 88 52 87 58 273 151 348 173 23 7 42 17 42 22 0 11 -1 10 -95 -16z"/>
<path d="M5277 4101 c-48 -16 -94 -34 -101 -40 -16 -13 -13 -31 23 -142 33
-101 36 -102 161 -61 101 34 102 36 69 160 -20 76 -39 113 -57 112 -4 -1 -47
-14 -95 -29z m107 -93 c24 -84 24 -84 -54 -109 -38 -13 -71 -21 -72 -18 -14
22 -48 143 -41 149 13 13 138 49 144 42 4 -4 14 -32 23 -64z"/>
<path d="M5074 3986 c-3 -9 3 -46 15 -83 11 -37 17 -71 12 -76 -4 -4 -24 -10
-43 -13 -35 -6 -35 -6 -47 43 -20 84 -38 128 -54 131 -8 2 -18 -1 -21 -6 -8
-13 48 -201 65 -218 12 -11 25 -10 82 7 78 24 80 29 47 139 -22 73 -45 105
-56 76z"/>
<path d="M4766 3941 c-28 -9 -51 -22 -54 -29 -4 -14 47 -202 61 -219 13 -18
37 -16 37 3 0 9 -12 54 -26 101 -14 47 -22 89 -17 93 4 5 24 11 44 15 34 6 37
5 44 -22 8 -34 24 -55 36 -47 13 8 11 50 -5 89 -17 41 -41 44 -120 16z"/>
<path d="M4464 3835 c-6 -15 51 -201 69 -222 13 -17 34 -16 98 4 81 24 85 31
64 94 -21 65 -42 91 -69 87 -25 -4 -35 -38 -11 -38 14 0 45 -54 45 -78 0 -8
-65 -32 -88 -32 -6 0 -20 28 -31 63 -38 126 -62 162 -77 122z"/>
<path d="M4955 3553 c-92 -23 -334 -108 -347 -121 -17 -17 -17 -21 2 -86 20
-72 34 -96 55 -96 23 0 371 108 405 125 31 16 32 19 26 61 -3 24 -14 60 -23
81 -16 34 -22 38 -58 40 -22 0 -49 -1 -60 -4z m90 -84 c9 -28 15 -51 14 -53
-6 -4 -120 -42 -194 -64 -38 -12 -98 -30 -133 -41 -34 -10 -64 -16 -66 -12 -9
17 -28 102 -24 106 9 9 343 114 365 114 17 1 25 -9 38 -50z"/>
<path d="M6105 3573 c-77 -52 -158 -103 -180 -113 -68 -33 -118 -27 -413 46
-79 20 -146 33 -150 29 -32 -32 299 -127 448 -129 110 -1 156 20 310 143 131
105 135 109 129 115 -2 2 -67 -39 -144 -91z"/>
<path d="M5954 3135 c30 -274 52 -435 58 -435 27 0 -24 447 -54 475 -7 7 -8
-5 -4 -40z"/>
<path d="M6060 2279 c0 -227 40 -589 71 -639 24 -38 -38 738 -62 780 -5 9 -9
-50 -9 -141z"/>
</g>
</svg>
