<?xml version="1.0" standalone="no"?>
<!DOCTYPE svg PUBLIC "-//W3C//DTD SVG 20010904//EN"
 "http://www.w3.org/TR/2001/REC-SVG-20010904/DTD/svg10.dtd">
<svg version="1.0" xmlns="http://www.w3.org/2000/svg"
 width="1024.000000pt" height="1024.000000pt" viewBox="0 0 1024.000000 1024.000000"
 preserveAspectRatio="xMidYMid meet">
<metadata>
Created by potrace 1.16, written by Peter Selinger 2001-2019
</metadata>
<g transform="translate(0.000000,1024.000000) scale(0.100000,-0.100000)"
fill="#000000" stroke="none">
<path d="M4725 9901 c-438 -120 -434 -119 -466 -150 -15 -15 -31 -45 -35 -65
-3 -21 -3 -312 2 -648 l9 -610 33 -27 c32 -27 32 -28 32 -118 l0 -91 -33 -20
c-23 -13 -61 -63 -121 -157 -73 -114 -88 -144 -88 -176 l1 -39 -48 0 c-39 0
-71 -12 -177 -66 -211 -109 -300 -162 -337 -203 -50 -55 -60 -123 -53 -353 7
-224 2 -240 -60 -191 -21 17 -115 70 -208 118 l-170 87 -62 -5 c-54 -4 -85
-16 -220 -87 -248 -129 -304 -173 -335 -265 -22 -62 -16 -523 7 -583 14 -38
15 -49 3 -90 -10 -33 -14 -104 -13 -242 1 -164 5 -204 21 -251 16 -48 17 -61
7 -90 -8 -21 -13 -95 -13 -195 -1 -201 10 -247 78 -313 54 -53 329 -212 430
-248 36 -14 77 -35 91 -48 29 -27 156 -105 170 -105 6 0 10 -53 10 -133 0 -86
5 -151 14 -180 12 -39 12 -52 0 -84 -17 -50 -17 -123 1 -201 14 -57 13 -68 -1
-113 -23 -69 -16 -400 10 -472 16 -46 16 -51 -1 -95 -24 -62 -23 -254 1 -323
15 -43 15 -49 -1 -85 -13 -31 -18 -79 -21 -226 -4 -170 -2 -194 17 -258 21
-67 21 -71 5 -102 -25 -47 -31 -214 -11 -298 14 -58 14 -71 0 -125 -18 -69
-13 -196 9 -259 13 -34 12 -44 -5 -95 -16 -45 -18 -73 -14 -141 3 -47 12 -105
20 -130 12 -39 12 -49 -2 -80 -24 -53 -23 -388 1 -447 16 -39 16 -43 0 -75
-22 -42 -29 -325 -12 -429 l12 -69 48 0 49 0 -10 33 c-13 41 -24 329 -15 388
4 24 10 50 15 57 6 10 73 -23 272 -136 145 -82 289 -162 319 -177 30 -15 70
-40 90 -56 73 -58 177 -109 222 -109 l43 0 -105 58 c-126 69 -150 85 -150 94
0 3 40 29 89 57 l89 51 49 -29 c26 -15 69 -40 95 -55 27 -15 48 -34 49 -44 0
-9 0 -43 -1 -74 -1 -52 1 -58 19 -58 21 0 21 4 21 195 0 107 2 195 4 195 3 0
58 -30 123 -66 470 -264 451 -254 571 -290 6 -2 12 -10 12 -19 0 -22 27 -18
33 5 3 12 14 20 26 20 34 0 121 37 215 90 49 28 94 49 102 46 17 -7 34 -69 34
-128 0 -36 4 -48 15 -48 21 0 20 118 0 167 -12 29 -13 38 -3 45 48 31 299 168
307 168 8 0 11 -62 11 -190 0 -183 1 -190 20 -190 18 0 20 7 20 78 l0 77 38
17 c20 9 64 32 97 51 l60 35 94 -53 c109 -62 116 -46 -64 -144 -108 -60 -109
-61 -69 -61 44 0 186 69 234 114 14 13 50 36 80 51 30 15 106 56 168 91 l113
63 15 -34 c10 -24 14 -73 14 -160 0 -121 1 -125 21 -125 21 0 21 3 17 132 -3
103 -8 141 -22 167 -21 39 -29 30 94 98 47 25 102 57 124 71 45 28 52 23 62
-47 7 -47 -2 -334 -12 -388 l-6 -33 45 0 c38 0 46 4 52 23 4 12 9 109 12 214
5 161 3 201 -11 242 -15 45 -15 55 -1 108 11 39 16 106 17 203 0 121 -3 153
-19 194 -18 45 -18 52 -5 100 21 74 22 272 1 310 -14 26 -14 32 0 70 19 50 22
251 4 281 -9 16 -8 34 3 80 21 91 18 260 -5 312 -19 41 -19 42 1 105 18 54 21
88 20 238 0 151 -3 184 -21 237 -20 59 -20 63 -4 100 25 56 25 294 1 342 -17
32 -17 37 -1 80 25 70 31 402 9 470 -14 45 -15 55 -1 108 19 73 19 164 0 208
-12 31 -12 40 1 78 11 29 16 83 17 174 l2 132 74 46 c41 25 90 59 108 75 19
17 43 30 53 30 40 0 400 200 458 254 52 48 72 98 83 199 11 97 4 276 -12 340
-8 30 -6 50 8 90 25 73 26 416 2 463 -14 28 -14 34 -1 59 32 61 42 535 13 626
-26 83 -109 146 -380 285 -106 55 -119 59 -182 59 -65 0 -75 -3 -211 -74 -79
-40 -170 -91 -202 -113 -37 -24 -63 -35 -69 -29 -5 5 -10 111 -11 243 -2 333
14 311 -334 494 l-188 99 -85 149 c-46 83 -130 231 -186 330 -126 224 -147
256 -183 269 l-29 11 -3 561 c-3 528 -4 562 -22 591 -10 17 -30 38 -45 47 -59
34 -604 227 -639 226 -15 -1 -171 -40 -347 -88z m645 -97 c145 -52 270 -99
277 -102 7 -4 -77 -32 -185 -61 -369 -101 -547 -153 -555 -160 -4 -5 -67 18
-140 49 -73 31 -199 83 -280 115 -108 43 -144 61 -130 66 10 4 110 33 223 63
113 31 261 71 330 90 69 19 141 35 160 35 21 1 143 -38 300 -95z m-780 -237
c102 -41 206 -84 231 -95 l46 -20 6 -258 c4 -141 7 -426 7 -633 l0 -376 -280
137 c-228 112 -280 142 -284 160 -7 36 -17 1184 -10 1191 7 6 8 6 284 -106z
m1109 -360 l1 -417 -26 -10 c-37 -15 -47 -13 -38 8 4 9 9 44 11 77 5 74 -24
138 -77 173 -69 46 -175 10 -218 -74 l-18 -35 -24 26 c-13 14 -41 30 -62 35
-156 43 -289 -183 -192 -326 14 -20 24 -38 22 -39 -5 -5 -145 -45 -157 -45 -8
0 -11 104 -12 388 0 213 -4 408 -8 433 l-7 46 165 46 c91 26 256 72 366 103
273 77 259 74 267 50 3 -12 6 -209 7 -439z m-150 -195 c19 -9 43 -33 53 -52
22 -42 24 -130 4 -169 -19 -36 -84 -93 -99 -88 -7 3 -37 13 -68 23 l-57 19
-12 88 c-12 87 -12 89 13 126 26 38 76 70 112 71 11 0 35 -8 54 -18z m-269
-71 c119 -88 63 -303 -83 -318 -88 -9 -142 61 -135 173 3 52 9 70 34 100 58
73 125 89 184 45z m420 -345 c0 -134 -3 -166 -15 -176 -9 -7 -17 -11 -20 -8
-2 2 -7 79 -11 170 -7 178 -9 169 39 177 4 0 7 -73 7 -163z m-80 99 l0 -45
-35 17 -35 17 33 27 c17 16 33 28 35 29 1 0 2 -20 2 -45z m-115 -31 c46 -20
90 -43 97 -52 10 -11 13 -72 13 -246 l0 -230 -79 -23 c-44 -12 -80 -22 -82
-20 -1 1 -4 108 -7 238 l-5 237 37 5 c39 5 117 35 110 41 -3 4 -92 -18 -145
-35 -6 -2 -38 11 -72 30 l-61 34 27 34 c31 42 42 41 167 -13z m-137 -84 l52
-30 0 -225 0 -225 -60 30 -60 30 0 98 c0 53 -3 154 -7 225 -7 146 -8 144 75
97z m-108 -51 c0 -64 -1 -67 -26 -72 -14 -2 -42 0 -62 5 -20 5 -50 12 -67 14
l-30 5 27 -25 c28 -25 101 -43 138 -33 19 5 20 0 20 -68 l0 -74 -57 -17 c-32
-9 -86 -25 -120 -35 l-63 -18 0 183 0 183 33 10 c17 5 71 9 119 9 l88 -1 0
-66z m-270 -143 l0 -184 -32 -11 c-17 -6 -33 -9 -36 -6 -2 2 -7 85 -10 184
l-5 180 29 6 c16 4 34 8 39 10 6 2 11 4 13 4 1 1 2 -82 2 -183z m900 -84 c52
-92 146 -257 208 -366 62 -109 111 -204 109 -210 -6 -16 -570 -201 -574 -189
-2 6 -46 83 -98 173 -52 90 -94 164 -93 165 2 0 64 21 138 46 113 37 137 48
150 71 13 25 13 31 -10 75 -21 41 -26 66 -30 170 l-5 123 28 11 c32 13 47 37
47 73 0 18 5 26 18 26 12 0 46 -52 112 -168z m-1275 -42 l225 -109 -1 -128 c0
-87 -3 -123 -10 -113 -5 8 -44 76 -85 150 -89 158 -98 170 -133 170 -23 0
-167 -38 -215 -56 -14 -5 -16 7 -16 95 0 56 2 101 5 101 2 0 106 -49 230 -110z
m647 -77 c3 -45 6 -49 45 -71 42 -23 63 -56 45 -74 -5 -5 -31 -15 -58 -22 -27
-7 -59 -16 -71 -20 -22 -7 -23 -5 -23 42 0 60 -15 77 -54 62 -54 -20 -66 -14
-66 33 l0 42 83 26 c45 15 85 27 89 28 4 1 8 -20 10 -46z m-557 -135 c101
-183 172 -298 193 -315 24 -19 73 -10 236 43 112 36 142 42 151 32 16 -18 185
-315 185 -326 0 -12 -621 -212 -658 -212 -23 0 -37 8 -56 33 -24 31 -446 785
-446 796 0 6 275 88 301 90 10 1 43 -49 94 -141z m345 57 c0 -64 9 -72 66 -56
21 6 39 9 40 8 1 -1 5 -52 9 -113 l7 -110 -115 -37 c-63 -20 -119 -37 -125
-37 -6 0 -23 17 -37 37 -24 36 -25 44 -25 185 l0 148 33 0 c17 0 52 7 77 14
70 22 70 22 70 -39z m600 -52 l0 -68 -123 -38 c-67 -21 -125 -38 -129 -37 -5
0 -8 34 -8 76 l0 76 39 -7 c41 -7 163 24 198 50 10 8 19 15 21 15 1 0 2 -30 2
-67z m-1185 -309 c99 -179 199 -360 223 -401 44 -76 87 -113 130 -113 13 0
161 45 329 101 167 55 306 99 309 97 2 -2 -14 -31 -35 -64 -21 -32 -50 -78
-64 -100 l-26 -42 -333 -111 c-183 -61 -336 -111 -340 -111 -5 0 16 39 46 88
59 96 77 137 55 130 -8 -3 -45 -55 -82 -116 -38 -62 -73 -110 -77 -107 -12 7
-78 124 -233 410 -245 453 -234 430 -217 459 81 135 125 206 130 206 3 0 86
-147 185 -326z m1235 281 c0 -14 -4 -25 -10 -25 -5 0 -10 11 -10 25 0 14 5 25
10 25 6 0 10 -11 10 -25z m-343 -131 c-2 -3 -39 -15 -81 -28 l-77 -24 3 51 3
51 75 22 75 21 3 -45 c2 -24 1 -46 -1 -48z m155 -204 c53 -91 93 -168 90 -171
-10 -8 -93 -31 -98 -26 -8 8 -185 320 -187 330 -2 11 60 37 83 34 8 -1 58 -76
112 -167z m-1427 6 c46 -21 54 -31 103 -119 28 -53 52 -98 52 -101 0 -3 -63
-37 -140 -77 -81 -41 -155 -85 -174 -105 -32 -33 -35 -34 -48 -17 -20 29 -62
55 -200 126 l-128 66 28 19 c29 21 372 209 407 223 32 12 47 10 100 -15z
m2435 -131 c186 -99 183 -86 27 -165 -72 -38 -152 -85 -176 -106 -34 -29 -46
-35 -49 -24 -9 27 -58 64 -130 100 -39 19 -72 38 -72 42 0 3 38 63 85 132 47
69 85 131 85 137 0 6 24 -3 53 -19 28 -17 108 -60 177 -97z m-339 88 c-5 -10
-36 -56 -68 -103 -55 -81 -61 -86 -118 -105 -33 -11 -154 -52 -268 -91 -114
-39 -206 -66 -204 -60 3 6 32 54 66 106 l61 95 258 87 c141 47 263 87 270 87
9 1 10 -4 3 -16z m-648 -284 c-58 -88 -74 -105 -107 -116 -22 -7 -40 -12 -42
-11 -1 2 26 48 61 103 55 89 67 102 106 116 24 10 45 16 47 14 2 -2 -27 -49
-65 -106z m-1253 31 c19 -37 20 -58 20 -424 l0 -384 -121 -67 -122 -67 -45 23
c-62 30 -117 39 -176 28 -41 -8 -177 -76 -320 -160 l-36 -21 0 69 0 70 177 94
c97 52 193 110 215 130 l38 36 1 159 c0 87 4 205 8 262 9 121 5 116 160 199
55 29 115 62 133 73 18 11 36 20 40 20 4 0 17 -18 28 -40z m-588 -43 c73 -40
145 -81 161 -91 l27 -18 0 -234 c0 -137 -4 -235 -10 -239 -5 -3 -84 34 -175
82 l-166 88 6 35 c2 19 5 128 5 243 0 119 4 207 9 207 5 0 69 -33 143 -73z
m3002 55 c3 -9 5 -119 3 -243 l-2 -225 -163 -88 c-90 -48 -167 -85 -170 -81
-4 4 -8 109 -10 235 l-3 229 35 28 c33 26 282 163 298 163 4 0 9 -8 12 -18z
m-519 -75 c144 -77 137 -59 143 -351 4 -207 7 -250 22 -273 15 -25 153 -109
358 -218 l52 -28 0 -69 c0 -37 -2 -68 -4 -68 -2 0 -33 17 -67 39 -35 21 -110
62 -166 91 -125 66 -180 71 -280 26 l-61 -28 -103 60 c-57 32 -159 89 -226
126 l-123 67 0 160 c0 87 2 159 5 159 4 0 20 -7 36 -16 52 -26 58 -11 61 149
l3 140 125 43 c69 23 125 43 126 43 0 1 45 -23 99 -52z m-393 -164 c-2 -65 -6
-119 -7 -121 -2 -2 -15 4 -29 13 -25 17 -26 21 -26 110 l0 92 33 11 c17 5 33
10 33 11 1 1 -1 -52 -4 -116z m-1309 -57 c111 -198 109 -197 265 -145 51 17
95 29 97 27 7 -6 18 -758 11 -758 -3 0 -59 33 -124 73 -64 40 -168 104 -229
141 l-113 67 1 377 c0 250 3 372 10 362 5 -8 42 -73 82 -144z m1167 -220 l0
-374 -115 -46 c-63 -25 -117 -46 -120 -46 -3 0 -5 171 -5 379 l0 379 43 16
c63 24 181 64 190 65 4 1 7 -167 7 -373z m-272 -98 l-3 -382 -73 -29 c-40 -16
-74 -28 -76 -26 -2 2 -5 174 -7 383 l-4 378 75 28 c41 16 78 29 83 29 4 1 6
-171 5 -381z m-200 -74 l-3 -385 -142 -53 -143 -53 -2 363 c-1 200 -2 376 -2
391 -1 25 6 29 134 74 74 26 141 47 148 48 10 1 12 -79 10 -385z m-2025 296
c158 -80 202 -110 212 -141 8 -26 6 -28 -175 -130 -179 -101 -203 -119 -225
-164 l-17 -37 -20 33 c-31 53 -29 52 -303 202 -60 33 -112 62 -114 64 -18 14
98 86 324 203 83 43 106 51 138 47 22 -3 103 -38 180 -77z m4243 41 c166 -81
344 -190 344 -211 0 -5 -66 -43 -147 -86 -210 -110 -246 -134 -270 -183 l-21
-42 -21 45 c-25 50 -42 63 -231 171 -74 43 -142 84 -151 92 -19 16 -15 45 9
67 34 30 352 186 379 186 16 0 65 -17 109 -39z m-3694 -243 c167 -89 171 -92
149 -107 -49 -34 -356 -198 -363 -194 -5 2 -8 59 -9 126 0 67 -4 147 -9 177
-7 50 -6 57 14 72 11 10 27 18 34 18 7 0 90 -41 184 -92z m3066 74 c21 -16 22
-21 12 -71 -5 -30 -10 -112 -10 -182 0 -71 -3 -129 -6 -129 -9 0 -314 169
-346 192 -16 11 -28 23 -28 27 0 4 23 18 52 32 28 13 101 52 162 86 61 35 118
63 126 63 8 0 25 -8 38 -18z m-3359 -662 c1 -34 -2 -37 -97 -91 -53 -31 -147
-86 -209 -122 -62 -36 -114 -63 -117 -59 -2 4 -7 124 -11 267 -8 279 -3 324
38 369 12 14 101 70 197 124 l175 100 12 -276 c6 -153 12 -293 12 -312z m3477
581 c5 -5 81 -51 169 -101 88 -51 168 -99 177 -107 10 -9 25 -35 34 -59 15
-40 16 -74 10 -317 -4 -149 -9 -273 -11 -275 -1 -2 -63 33 -136 76 -74 44
-166 98 -205 121 -40 22 -74 47 -78 56 -3 8 -1 93 4 188 5 94 10 229 10 300 0
121 4 139 26 118z m-4209 -96 c188 -100 226 -131 242 -192 8 -28 30 -427 31
-551 0 -15 -139 55 -326 165 l-112 65 -16 57 c-13 45 -16 107 -16 297 0 211 3
254 16 254 2 0 83 -43 181 -95z m5094 54 c11 -73 -2 -462 -18 -519 -9 -30 -16
-62 -15 -70 0 -9 -41 -38 -106 -74 -229 -126 -325 -177 -328 -173 -8 8 17 553
27 589 5 21 20 49 32 64 24 27 375 225 392 220 6 -1 12 -18 16 -37z m-1813
-228 c101 -57 181 -105 179 -108 -3 -2 -74 -43 -158 -89 -85 -47 -168 -100
-186 -116 -61 -59 -66 -80 -74 -338 -4 -129 -8 -255 -8 -280 -1 -49 -12 -45
-30 11 -17 52 -60 89 -204 173 l-127 74 96 38 c54 22 102 47 110 59 9 15 13
75 15 229 l2 208 36 15 c115 47 121 56 121 175 l0 80 23 -14 c12 -8 104 -61
205 -117z m-1633 -60 c4 -7 38 -33 75 -57 l68 -44 4 -80 c2 -44 2 -80 2 -80
-1 0 -34 22 -75 49 -41 26 -123 74 -182 106 -59 31 -106 60 -102 63 3 3 47 28
98 56 l92 52 6 -27 c3 -14 9 -31 14 -38z m-211 -152 c189 -102 306 -174 306
-188 0 -5 -68 -49 -152 -97 -157 -91 -208 -127 -196 -139 7 -7 175 83 294 157
34 21 64 38 66 38 3 0 9 -96 12 -212 4 -117 7 -244 9 -282 l2 -70 -183 -108
c-101 -59 -185 -108 -187 -108 -1 0 -5 120 -9 268 -8 301 -14 328 -84 375 -46
31 -360 207 -425 238 -26 13 -46 28 -44 34 4 12 242 148 307 176 27 11 59 17
79 14 18 -2 111 -46 205 -96z m2421 24 c152 -84 195 -111 195 -122 0 -5 -33
-26 -72 -46 -213 -111 -416 -229 -434 -252 l-22 -26 -33 25 c-19 14 -103 65
-187 113 l-153 88 28 28 c27 26 176 112 378 218 124 66 135 65 300 -26z
m-1045 -46 l0 -104 -144 -56 c-79 -32 -147 -57 -150 -57 -3 0 -6 46 -6 103 l0
103 103 37 c56 21 120 46 142 56 22 11 43 20 48 20 4 1 7 -46 7 -102z m-797
-22 l97 -58 0 -140 c0 -155 4 -149 -69 -102 -39 24 -41 28 -41 74 l0 50 -59
35 c-66 41 -71 50 -71 155 l0 73 23 -14 c12 -8 66 -41 120 -73z m455 -111 l-3
-106 -150 -59 c-82 -33 -156 -63 -162 -66 -10 -4 -13 25 -13 127 0 122 1 132
18 125 37 -16 51 -13 172 34 69 27 129 49 133 50 4 1 6 -47 5 -105z m-1456
-82 c95 -54 201 -113 236 -132 103 -54 103 -56 109 -348 5 -279 12 -328 53
-367 25 -24 27 -31 18 -54 -16 -38 -16 -398 0 -434 l12 -27 -53 26 c-85 44
-498 274 -554 310 -83 53 -87 64 -91 244 -4 184 8 289 37 326 20 25 21 39 21
271 0 233 5 283 30 283 6 0 88 -44 182 -98z m3072 76 c3 -13 6 -129 6 -258 0
-252 5 -279 50 -290 35 -8 42 -55 38 -235 -5 -198 -11 -210 -133 -280 -138
-79 -881 -497 -960 -540 -38 -21 -88 -48 -110 -61 l-40 -23 0 182 c0 154 -3
187 -17 214 -10 18 -18 34 -18 37 0 7 79 51 232 129 190 97 318 171 350 200
15 14 31 42 36 63 6 22 13 153 16 293 7 276 13 306 65 337 124 71 458 253 467
254 7 0 14 -10 18 -22z m-1276 -119 l-3 -41 -116 -47 c-112 -46 -117 -47 -148
-32 -31 14 -32 17 -29 69 l3 54 145 57 145 58 3 -39 c2 -21 2 -56 0 -79z
m-2856 44 c62 -37 114 -67 116 -68 1 -1 -5 -19 -14 -40 -13 -32 -15 -73 -12
-244 2 -150 7 -212 17 -230 12 -21 3 -19 -75 24 -175 94 -174 91 -174 400 0
116 3 215 7 218 11 12 20 8 135 -60z m763 -183 c0 -127 -2 -230 -5 -230 -10 0
-285 153 -326 180 -76 53 -82 45 129 167 106 61 194 112 197 112 3 1 5 -103 5
-229z m1253 131 l3 -50 70 -43 69 -43 -2 -55 c-2 -44 -7 -56 -21 -58 -10 -2
-61 22 -113 53 l-94 56 0 120 0 121 43 -25 c40 -24 42 -28 45 -76z m2408 -12
c107 -61 194 -114 194 -118 0 -4 -8 -15 -17 -23 -21 -18 -358 -208 -370 -208
-4 0 -8 103 -8 230 0 126 1 230 3 230 2 0 91 -50 198 -111z m708 -97 c-2 -246
1 -239 -149 -324 -66 -37 -123 -68 -127 -68 -3 0 -2 17 4 37 13 46 16 300 5
365 l-8 46 128 71 c87 48 131 67 138 60 6 -6 9 -79 9 -187z m-1747 55 c83 -48
157 -87 163 -87 8 0 10 -11 7 -32 -3 -18 -9 -149 -13 -290 -4 -142 -8 -258
-10 -258 -2 0 -68 38 -146 85 -79 47 -161 95 -183 108 l-40 23 8 250 c4 137
10 264 13 282 5 32 6 33 27 19 12 -7 90 -53 174 -100z m-867 9 l0 -43 -48 -5
c-33 -3 -80 -22 -157 -64 -60 -32 -113 -60 -117 -62 -4 -2 -8 16 -8 40 l0 44
163 66 c89 36 163 66 165 67 1 0 2 -19 2 -43z m-2270 -36 c51 -25 85 -50 96
-68 9 -16 39 -44 66 -61 43 -29 341 -197 360 -203 4 -2 3 -21 -2 -43 -5 -22
-10 -115 -10 -207 l0 -168 -25 -16 c-16 -10 -36 -14 -53 -11 -29 6 -290 145
-432 231 -96 58 -107 74 -122 179 -11 77 -6 360 7 390 10 25 26 22 115 -23z
m4584 -31 c10 -50 7 -271 -4 -330 -6 -30 -18 -65 -28 -78 -13 -18 -542 -331
-559 -331 -1 0 3 15 8 32 12 42 12 343 0 385 l-10 33 107 57 c59 31 150 83
202 117 106 67 249 145 266 146 6 0 14 -14 18 -31z m-2222 -110 c150 -76 293
-160 327 -194 l34 -33 -94 -47 c-51 -26 -156 -83 -232 -127 -100 -58 -144 -78
-160 -74 -17 4 -378 202 -447 244 -34 21 55 82 325 221 61 31 112 51 132 51
19 0 69 -18 115 -41z m-633 -40 l71 -41 -39 -28 c-35 -26 -81 -98 -81 -128 0
-7 -4 -12 -9 -12 -6 0 -11 56 -13 125 -2 69 -2 125 -1 125 1 0 33 -18 72 -41z
m3129 -192 c8 -21 12 -94 12 -198 0 -178 -10 -220 -61 -265 -24 -21 -318 -188
-372 -212 -53 -23 -52 -25 -52 171 0 163 -2 186 -20 223 l-21 41 131 73 c116
66 266 149 335 186 34 19 34 19 48 -19z m-5086 -86 c68 -38 174 -99 237 -135
62 -36 118 -67 124 -69 7 -2 4 -18 -8 -43 -17 -33 -20 -59 -19 -174 0 -74 3
-147 7 -162 7 -26 7 -26 -28 -17 -47 13 -360 188 -407 228 -50 42 -58 78 -58
248 0 124 9 193 24 193 3 0 61 -31 128 -69z m2203 -56 c83 -47 176 -98 208
-113 l59 -27 -6 -50 c-3 -27 -6 -159 -6 -292 l0 -243 -27 12 c-46 20 -437 240
-448 252 -12 13 -4 544 8 563 10 15 6 17 212 -102z m760 83 c2 -13 6 -141 7
-285 l3 -262 -155 -87 c-228 -129 -293 -163 -311 -164 -15 0 -17 29 -18 288
l-1 287 97 53 c54 29 152 83 218 121 66 38 128 69 137 70 11 1 20 -8 23 -21z
m-1105 -43 l30 -16 0 -197 c0 -108 3 -208 7 -221 6 -22 -8 -17 -149 56 -85 45
-179 96 -209 114 -104 63 -112 49 93 171 100 59 186 108 191 108 4 0 21 -7 37
-15z m1455 -90 c99 -58 181 -109 183 -113 1 -4 -8 -14 -20 -21 -84 -53 -419
-235 -422 -229 0 2 1 101 4 221 l5 219 25 13 c14 8 30 14 35 15 6 0 91 -47
190 -105z m1255 -134 c5 -20 10 -102 10 -183 0 -183 -9 -212 -83 -261 -85 -57
-577 -327 -595 -327 -4 0 -6 72 -4 160 4 163 -5 239 -33 270 -15 17 -40 2 390
246 269 152 276 156 291 143 8 -6 18 -28 24 -48z m-3962 -99 c213 -112 401
-220 429 -245 38 -34 51 -99 55 -280 5 -189 11 -179 -77 -134 -80 40 -492 270
-547 305 -85 55 -91 71 -96 242 -4 165 3 200 43 200 15 0 101 -40 193 -88z
m1109 -81 c92 -49 179 -92 193 -96 14 -4 38 -17 53 -28 58 -40 388 -225 442
-247 l55 -22 0 -229 0 -229 -35 0 c-19 0 -47 5 -62 12 -28 12 -606 325 -737
400 -142 80 -149 97 -144 349 1 101 7 190 11 197 7 11 13 10 33 -2 13 -9 99
-56 191 -105z m-969 61 c-3 -18 -5 -19 -22 -7 -16 12 -17 17 -6 30 16 19 33 6
28 -23z m3102 -267 c7 -20 12 -102 12 -192 1 -179 -8 -214 -63 -255 -46 -34
-374 -216 -402 -223 l-22 -6 -2 170 c-1 93 -7 189 -13 213 -6 23 -12 49 -13
56 -2 13 448 271 475 272 10 0 21 -13 28 -35z m-934 -22 c13 -29 15 -70 12
-204 -3 -164 -4 -169 -28 -193 -25 -25 -192 -121 -328 -190 l-72 -36 0 207 c0
115 -3 217 -6 228 -4 17 3 23 43 37 26 10 113 56 193 102 80 46 151 85 158 85
7 1 20 -15 28 -36z m-1785 17 c18 -10 18 -12 4 -27 -18 -17 -20 -17 -29 15 -8
25 -4 27 25 12z m389 -210 c168 -93 321 -179 341 -193 54 -37 68 -95 71 -299
3 -191 11 -179 -87 -133 -87 41 -565 313 -639 364 -72 50 -78 68 -74 246 3
134 5 156 22 174 13 15 26 19 40 15 12 -4 158 -82 326 -174z m1810 -131 c13
-109 13 -274 0 -320 -17 -61 -21 -64 -485 -324 -248 -139 -279 -154 -323 -155
l-32 0 2 232 3 232 55 22 c30 13 213 110 405 218 193 107 353 191 358 187 4
-4 12 -45 17 -92z m-2465 -48 c72 -39 144 -76 162 -82 l32 -10 3 -147 c2 -81
3 -148 3 -149 0 -1 -88 47 -195 107 -240 133 -240 134 -240 302 l0 108 53 -29
c28 -16 111 -62 182 -100z m3450 -86 c-11 -75 -28 -89 -240 -205 -110 -60
-200 -108 -200 -107 0 1 2 68 5 149 l5 147 165 84 c91 46 188 97 215 114 l50
29 3 -85 c2 -47 1 -104 -3 -126z m-2347 18 c15 -9 29 -18 31 -20 5 -3 -30 -32
-40 -33 -3 0 -10 16 -16 35 -13 40 -12 41 25 18z m78 -42 c8 -7 125 -71 252
-136 23 -13 70 -29 103 -36 l59 -13 -2 -231 -3 -230 -25 3 c-37 5 -118 44
-274 130 -189 105 -189 105 -187 297 1 144 6 170 39 208 17 19 24 21 38 8z
m-715 -154 c90 -51 205 -115 254 -142 50 -27 103 -57 118 -68 l28 -19 -2 -124
c-2 -68 -6 -124 -10 -124 -21 0 -576 304 -604 331 -17 17 -20 36 -23 161 l-4
142 39 -32 c22 -17 113 -73 204 -125z m2514 -94 c-4 -25 -16 -51 -32 -67 -14
-14 -129 -80 -257 -148 -127 -67 -252 -134 -278 -150 l-48 -27 0 132 0 132 66
45 c74 50 74 50 194 109 47 22 146 76 220 119 l135 77 3 -90 c2 -49 0 -109 -3
-132z m-3056 82 c62 -36 115 -65 116 -65 2 0 77 -42 167 -94 90 -51 181 -103
204 -114 l41 -21 -8 -48 c-4 -26 -8 -85 -8 -130 -1 -46 -3 -83 -6 -83 -3 0
-56 29 -118 64 -61 35 -130 74 -152 86 -327 180 -348 194 -366 235 -36 82 -33
235 4 235 7 0 63 -29 126 -65z m3529 -4 c8 -91 -25 -193 -71 -215 -18 -8 -158
-85 -312 -170 l-280 -156 -6 122 c-4 68 -4 126 0 129 5 6 383 216 576 320 40
21 74 34 79 29 5 -5 11 -31 14 -59z m-2510 -250 c20 -10 55 -24 77 -31 22 -7
54 -25 70 -40 68 -62 365 -221 452 -242 l50 -12 -1 -203 c-1 -158 -4 -203 -14
-203 -15 0 -206 99 -452 234 l-175 96 -6 54 c-4 33 -15 65 -28 81 -19 25 -21
40 -21 156 0 71 2 129 5 129 3 0 22 -8 43 -19z m1382 -111 c0 -117 -2 -134
-21 -159 -11 -16 -24 -52 -27 -82 l-7 -53 -245 -134 c-260 -142 -328 -177
-372 -187 l-28 -7 0 205 0 205 47 7 c52 8 191 77 463 233 96 55 178 101 183
101 4 1 7 -58 7 -129z m-2487 99 c33 -17 304 -167 315 -174 1 -1 -5 -19 -14
-40 -13 -32 -15 -73 -12 -251 l3 -212 -40 24 c-22 12 -89 50 -150 83 -60 32
-118 70 -128 83 -33 44 -49 160 -45 328 3 138 8 180 24 180 3 0 24 -10 47 -21z
m3606 -16 c14 -48 14 -279 1 -356 -19 -119 -19 -118 -260 -254 l-55 -30 3 217
c3 181 1 224 -12 255 -9 21 -15 39 -14 40 2 1 55 31 118 65 63 35 129 71 145
81 47 28 63 24 74 -18z m-2789 -369 c0 -133 3 -268 6 -301 l6 -59 -82 -47
c-45 -26 -86 -47 -90 -47 -4 0 -10 41 -14 92 -7 112 -8 645 0 674 5 21 9 20
90 -25 l84 -46 0 -241z m2085 303 c9 -32 2 -744 -7 -752 -4 -4 -46 14 -94 41
l-86 49 6 44 c3 24 6 159 6 300 l0 256 78 42 c42 23 80 42 84 42 4 1 10 -9 13
-22z m347 -109 c10 -17 13 -81 13 -235 0 -199 -1 -213 -21 -239 -17 -23 -293
-189 -300 -181 -1 1 0 120 3 264 l6 262 136 75 c75 42 139 76 143 76 4 0 13
-10 20 -22z m-2772 -74 l120 -66 1 -122 c1 -66 4 -182 8 -256 4 -74 6 -137 4
-139 -6 -9 -249 138 -267 162 -19 26 -21 44 -24 220 -4 187 5 267 29 267 5 0
64 -30 129 -66z m735 -218 c50 -27 140 -77 200 -111 144 -81 229 -124 288
-144 l47 -16 3 -268 2 -269 -30 6 c-16 4 -61 21 -100 40 -106 50 -488 266
-502 284 -10 12 -13 83 -13 275 0 142 3 257 8 255 4 -1 48 -25 97 -52z m1225
-215 l0 -269 -121 -66 c-67 -37 -123 -65 -124 -64 -1 2 2 35 7 73 15 105 5
361 -16 410 -9 22 -13 41 -9 43 4 1 64 34 133 72 69 38 126 70 128 70 1 0 2
-121 2 -269z m-2421 135 c25 -12 134 -72 241 -133 160 -90 338 -187 347 -188
1 -1 -4 -19 -12 -40 -17 -47 -20 -243 -5 -294 5 -19 9 -36 7 -37 -1 -1 -40 20
-87 46 -47 26 -184 103 -305 171 -212 120 -221 126 -243 171 -20 40 -24 64
-25 155 -1 72 3 119 12 141 7 17 16 32 18 32 3 0 26 -11 52 -24z m3583 2 c9
-16 13 -63 13 -143 -1 -168 -13 -190 -131 -257 -324 -183 -517 -289 -519 -286
-2 2 2 30 7 63 12 74 3 228 -16 267 -14 28 -14 29 27 49 50 25 303 165 472
261 66 37 123 68 127 68 4 0 13 -10 20 -22z m-1443 -82 c14 -56 14 -388 1
-438 -7 -23 -24 -47 -43 -62 -49 -38 -250 -136 -291 -143 l-36 -6 0 272 c0
263 1 271 20 271 33 0 121 38 220 94 52 30 100 55 106 55 7 1 17 -19 23 -43z
m-1198 -194 l104 -58 3 -102 c1 -56 -1 -102 -5 -102 -18 0 -363 187 -386 209
-6 6 156 111 173 111 4 0 53 -26 111 -58z m1832 6 c105 -60 113 -45 -78 -153
-148 -83 -223 -121 -229 -114 -2 2 -1 49 1 104 l5 100 102 57 c55 32 103 57
105 58 2 0 44 -23 94 -52z m140 -124 c5 -21 7 -94 5 -161 -3 -102 -7 -127 -23
-149 -15 -20 -432 -264 -451 -264 -2 0 1 12 6 26 6 14 10 101 10 194 l0 168
28 7 c31 7 342 179 376 206 29 25 39 19 49 -27z m-2245 12 c57 -37 313 -175
350 -188 l32 -12 0 -156 c0 -85 4 -172 9 -192 8 -36 8 -37 -13 -26 -71 38
-385 213 -403 225 -35 23 -48 77 -48 203 0 118 8 170 25 170 6 0 27 -11 48
-24z m-563 -91 c83 -47 156 -89 163 -93 10 -6 9 -17 -5 -53 -14 -36 -17 -78
-16 -244 0 -114 5 -211 11 -226 10 -24 -4 -18 -143 59 -150 83 -154 86 -177
136 -21 48 -23 64 -23 241 0 132 4 201 13 228 8 20 17 37 20 37 4 0 75 -38
157 -85z m3477 48 c9 -27 13 -96 13 -233 0 -178 -2 -199 -21 -241 -19 -40 -33
-53 -90 -85 -38 -20 -110 -61 -161 -90 l-92 -52 7 32 c4 17 7 126 7 241 0 188
-2 214 -18 239 -10 15 -17 29 -15 30 2 2 70 41 153 87 82 46 159 89 170 96 30
17 32 16 47 -24z m-2270 -142 c266 -148 301 -165 369 -185 l55 -16 -1 -270 c0
-149 -3 -270 -7 -270 -37 0 -433 202 -575 294 -63 40 -70 85 -65 404 1 89 4
162 7 162 3 0 100 -53 217 -119z m1113 -83 c6 -207 -1 -290 -29 -332 -15 -23
-486 -286 -555 -311 -76 -26 -71 -45 -71 253 l0 267 74 23 c63 20 518 262 551
293 5 5 12 9 16 9 4 0 10 -91 14 -202z m-1983 -11 c62 -35 205 -115 318 -177
113 -63 288 -160 388 -217 101 -57 188 -103 193 -103 13 0 11 -7 -7 -34 -33
-51 -43 -386 -14 -486 5 -17 6 -30 1 -28 -8 3 -347 192 -561 313 -438 247
-442 249 -458 280 -14 25 -17 64 -17 250 0 215 6 265 34 265 5 0 60 -29 123
-63z m2757 22 c14 -41 15 -435 1 -475 -6 -16 -18 -34 -28 -40 -29 -18 -392
-223 -692 -391 l-285 -159 0 236 c0 200 -2 240 -17 267 l-16 33 96 54 c53 29
212 117 352 194 140 77 323 179 405 226 83 46 155 85 162 85 6 1 16 -13 22
-30z m-2977 -493 c1261 -709 1385 -776 1466 -796 l52 -14 0 -188 c0 -175 -1
-188 -18 -188 -18 0 -169 82 -677 370 -148 84 -394 222 -545 307 -485 273
-537 303 -554 321 -36 41 -47 248 -16 315 7 15 14 27 16 27 1 0 125 -69 276
-154z m3378 -18 c0 -65 -5 -113 -17 -145 -9 -26 -17 -57 -18 -68 -2 -23 -15
-31 -540 -320 -198 -109 -477 -264 -620 -343 -499 -278 -533 -296 -584 -296
l-46 -1 -3 192 -2 193 27 5 c103 21 124 32 793 408 157 88 323 181 370 208 47
26 202 113 345 192 l260 145 17 -36 c13 -27 18 -63 18 -134z m-2101 -97 c58
-33 136 -70 174 -82 l67 -22 0 -275 0 -275 -37 6 c-39 6 -206 86 -286 137 -70
44 -80 91 -75 329 4 182 14 241 41 241 6 0 58 -27 116 -59z m642 43 c10 -12
16 -70 21 -198 8 -197 0 -281 -31 -324 -24 -34 -260 -158 -319 -168 l-42 -7 0
276 0 276 43 11 c60 15 102 35 209 96 51 29 96 54 99 54 4 0 13 -7 20 -16z
m-1961 -297 c47 -27 87 -51 89 -53 2 -2 -2 -11 -9 -19 -17 -21 -26 -217 -12
-267 6 -21 7 -38 3 -38 -21 0 -284 155 -297 175 -40 61 -54 242 -24 307 l13
28 76 -42 c42 -23 114 -64 161 -91z m3416 47 c9 -51 -2 -151 -23 -209 l-19
-50 -324 -185 c-179 -102 -381 -217 -450 -255 -69 -38 -154 -86 -189 -108 -35
-21 -110 -65 -165 -96 l-101 -57 1 150 1 151 84 48 c217 123 1165 646 1171
647 4 0 10 -16 14 -36z m-3106 -222 c137 -76 688 -388 707 -400 10 -6 10 -17
3 -42 -12 -44 -13 -212 0 -265 5 -22 8 -41 7 -42 -3 -2 -183 102 -258 150 -24
15 -127 74 -229 130 -392 217 -412 230 -427 264 -17 42 -18 284 -1 301 9 9 19
7 42 -7 17 -10 87 -50 156 -89z m-52 -352 c113 -64 131 -78 126 -95 -3 -11 -8
-75 -11 -142 -3 -68 -8 -123 -11 -123 -2 0 -59 31 -126 69 -66 38 -141 80
-166 93 -182 100 -287 163 -302 182 -36 45 -49 244 -18 281 11 14 10 15 508
-265z m3153 238 c15 -58 4 -193 -22 -263 -19 -52 -25 -58 -104 -104 -45 -27
-96 -56 -111 -64 l-29 -15 0 142 c0 117 -3 145 -17 165 l-18 25 138 78 c75 42
140 78 144 78 4 0 12 -19 19 -42z m-310 -160 c17 -32 18 -258 0 -291 -9 -17
-64 -53 -165 -109 l-151 -84 -3 145 c-1 89 -7 150 -14 158 -7 9 -8 17 -1 24
16 16 297 178 310 178 7 1 18 -9 24 -21z m-3131 -262 c56 -32 94 -59 92 -67
-19 -78 -24 -145 -19 -289 3 -91 9 -173 12 -183 5 -11 -30 4 -101 45 -181 102
-180 101 -201 160 -23 67 -26 326 -4 400 l13 47 57 -29 c31 -17 99 -54 151
-84z m1451 -88 c37 -20 83 -41 103 -48 l36 -12 0 -159 c0 -126 -3 -159 -13
-159 -46 0 -223 83 -404 189 -86 50 -93 68 -93 240 0 76 3 140 6 143 3 4 71
-31 152 -76 81 -46 177 -99 213 -118z m-878 107 l47 -27 0 -241 c0 -133 3
-272 6 -308 l7 -65 -89 -51 -89 -50 -6 71 c-11 122 -10 683 1 711 l10 27 33
-20 c17 -11 53 -32 80 -47z m1574 -72 c-2 -81 -8 -138 -17 -155 -9 -20 -56
-51 -174 -116 -177 -97 -242 -127 -299 -137 l-38 -7 3 158 3 159 57 6 c47 5
89 23 230 99 95 51 182 99 193 107 42 28 45 20 42 -114z m621 -231 c1 -194 -1
-373 -5 -396 l-8 -43 -85 49 c-71 41 -85 52 -84 73 0 14 1 153 2 309 l2 284
73 41 c39 22 79 39 87 38 13 -2 15 -51 18 -355z m672 307 c12 -45 15 -249 4
-295 -4 -16 -15 -50 -26 -76 -21 -50 -45 -69 -178 -141 -36 -19 -148 -81 -248
-137 -101 -56 -185 -100 -186 -98 -1 2 0 105 2 230 l4 227 261 145 c144 80
280 156 302 170 22 13 43 22 47 20 4 -3 12 -23 18 -45z m-3168 -173 l126 -69
4 -251 c2 -138 3 -253 2 -254 -1 -2 -61 29 -132 69 -88 48 -134 80 -143 98 -9
18 -14 88 -17 219 -4 205 1 265 22 260 6 -2 69 -34 138 -72z m2064 -22 c-3 -9
-6 -82 -6 -164 l0 -148 -87 -48 c-49 -26 -182 -101 -297 -166 -212 -119 -300
-158 -317 -141 -5 5 -8 81 -7 173 l3 164 58 12 c70 14 154 55 432 213 116 65
214 119 219 120 4 1 5 -6 2 -15z m-1313 -65 c72 -40 166 -91 207 -114 137 -78
240 -126 298 -139 l57 -13 3 -172 2 -172 -27 7 c-49 11 -146 59 -364 182 -118
66 -237 131 -265 145 l-51 26 -2 160 c-1 89 0 161 3 161 4 0 66 -32 139 -71z"/>
<path d="M5315 9249 c-126 -30 -325 -143 -325 -185 0 -30 33 -94 49 -94 9 0
48 22 88 49 86 59 163 90 258 104 59 9 83 7 147 -8 42 -10 83 -15 91 -12 14 5
27 49 27 92 0 37 -65 58 -190 61 -58 2 -123 -1 -145 -7z"/>
<path d="M5486 8884 c-19 -18 -21 -75 -4 -92 31 -31 78 0 78 52 0 52 -40 74
-74 40z"/>
<path d="M5242 8834 c-16 -11 -22 -25 -22 -53 0 -40 14 -61 41 -61 46 0 67 80
31 113 -23 21 -22 21 -50 1z"/>
</g>
</svg>
