<?xml version="1.0" standalone="no"?>
<!DOCTYPE svg PUBLIC "-//W3C//DTD SVG 20010904//EN"
 "http://www.w3.org/TR/2001/REC-SVG-20010904/DTD/svg10.dtd">
<svg version="1.0" xmlns="http://www.w3.org/2000/svg"
 width="1024.000000pt" height="1024.000000pt" viewBox="0 0 1024.000000 1024.000000"
 preserveAspectRatio="xMidYMid meet">
<metadata>
Created by potrace 1.16, written by Peter Selinger 2001-2019
</metadata>
<g transform="translate(0.000000,1024.000000) scale(0.100000,-0.100000)"
fill="#000000" stroke="none">
<path d="M2770 9975 c-25 -7 -110 -34 -190 -58 -364 -112 -936 -311 -1110
-385 -124 -53 -201 -101 -224 -142 -20 -34 -21 -45 -17 -685 2 -357 5 -668 6
-690 9 -118 6 -2448 -3 -2457 -6 -6 -36 -16 -69 -23 -150 -35 -177 -45 -201
-74 -10 -12 -12 -90 -10 -346 l3 -330 -65 -7 c-144 -16 -200 -30 -231 -55 -38
-32 -43 -43 -100 -198 -26 -71 -86 -236 -134 -365 -145 -393 -138 -367 -133
-434 3 -48 18 -92 68 -201 34 -77 82 -183 105 -235 23 -52 88 -189 144 -303
56 -114 100 -211 97 -215 -2 -4 -7 -64 -11 -132 -4 -69 -8 -139 -10 -156 -4
-36 -22 -474 -30 -734 -6 -208 -13 -356 -25 -505 -4 -60 -9 -222 -10 -358 -1
-261 5 -308 41 -328 29 -15 67 12 73 53 5 30 17 272 32 603 2 66 7 138 9 160
2 22 7 96 11 165 3 69 8 136 9 150 2 14 6 115 10 225 3 110 10 261 15 335 6
74 10 171 10 215 l0 80 19 -24 c10 -14 74 -122 141 -240 207 -364 459 -750
535 -820 43 -39 79 -59 275 -149 69 -31 291 -125 324 -136 18 -6 19 -16 12
-199 -4 -105 -11 -250 -16 -322 -5 -71 -9 -171 -10 -222 0 -82 2 -94 20 -103
16 -8 22 -6 34 12 20 32 44 211 56 423 15 263 21 329 31 340 10 10 37 2 319
-99 284 -103 854 -292 965 -321 55 -15 134 -36 175 -47 41 -10 109 -20 150
-21 85 -2 132 16 254 98 36 24 67 41 67 37 1 -4 1 -109 -1 -234 -2 -218 -1
-227 19 -247 25 -25 35 -26 54 -6 19 19 25 82 32 365 7 255 1 235 107 353 l53
59 108 -23 109 -23 -6 -40 c-3 -23 -7 -173 -8 -334 -1 -287 -1 -293 20 -314
21 -21 22 -21 41 -3 27 24 29 40 36 334 7 301 11 343 34 337 78 -24 496 -38
651 -22 199 20 268 29 395 51 77 13 168 31 203 39 52 12 64 12 76 1 12 -13 17
-52 41 -360 22 -271 37 -325 89 -325 41 0 61 35 61 104 -1 126 -8 280 -16 354
-5 43 -12 122 -15 177 -3 55 -7 104 -8 108 -1 11 15 20 99 51 157 58 284 158
333 263 22 48 27 72 27 139 0 72 -3 86 -30 130 -38 61 -123 121 -195 137 -29
7 -56 19 -60 27 -49 107 -56 116 -125 163 -119 81 -115 76 -115 167 0 44 3 80
8 80 4 0 54 -25 112 -56 417 -221 859 -367 1192 -394 158 -13 237 13 434 143
130 86 357 285 395 345 11 19 35 28 126 47 478 103 971 362 1175 615 93 116
209 340 278 538 28 79 32 103 28 156 -9 102 -87 243 -229 412 -140 167 -246
278 -358 376 l-64 56 27 184 c15 102 28 224 30 271 2 81 0 91 -30 151 -83 162
-475 760 -549 838 -55 59 -98 67 -460 89 -195 11 -202 11 -240 -9 -47 -24
-175 -134 -410 -352 -227 -210 -298 -286 -312 -335 -21 -71 -59 -290 -159
-895 l-45 -275 36 -124 c19 -68 34 -126 31 -128 -3 -4 -41 46 -174 227 -42 58
-133 182 -202 275 -69 94 -181 245 -249 337 l-122 167 20 138 c17 116 19 140
7 158 -7 11 -50 38 -96 60 l-82 40 6 135 c4 74 9 169 11 210 5 96 14 318 20
535 5 159 7 228 20 595 6 168 13 325 20 460 12 231 20 918 20 1675 0 882 1
866 -51 900 -34 22 -100 33 -249 39 -71 4 -168 8 -215 11 -162 9 -286 15 -560
25 -151 5 -315 12 -365 15 -49 3 -162 7 -250 10 -88 3 -203 7 -255 10 -93 5
-473 19 -820 31 -96 3 -215 7 -265 10 -49 3 -196 7 -325 9 -183 4 -245 1 -280
-10z m525 -160 c116 -3 237 -8 270 -10 33 -2 141 -6 240 -9 99 -4 239 -9 310
-11 72 -3 204 -7 295 -10 289 -9 443 -15 525 -20 44 -3 136 -7 205 -10 964
-37 1083 -44 1102 -63 8 -8 13 -208 15 -694 2 -376 5 -736 6 -801 1 -64 -2
-116 -7 -114 -5 2 -22 36 -38 77 -33 82 -63 128 -106 159 -24 17 -35 18 -68
10 -21 -5 -118 -23 -214 -40 -231 -39 -510 -94 -639 -126 -64 -15 -107 -21
-113 -15 -5 5 -16 40 -23 78 -8 37 -22 75 -30 83 -34 34 -33 40 -51 -631 l-7
-248 -167 0 -167 0 1 118 1 117 42 0 c54 0 67 14 98 104 37 106 58 255 53 388
-4 101 -7 115 -32 153 -29 44 -52 48 -49 9 1 -13 5 -63 9 -111 l7 -88 -29 0
c-35 1 -375 40 -644 75 -179 23 -372 46 -510 60 -30 3 -117 12 -193 20 -76 7
-144 12 -151 9 -65 -25 -152 -442 -100 -485 9 -7 43 -15 76 -17 55 -4 59 -6
54 -26 -15 -53 -27 -186 -21 -241 8 -76 47 -195 84 -261 126 -218 419 -370
676 -350 136 11 295 68 388 139 26 21 50 37 53 37 6 0 -1 -73 -16 -155 -5 -27
-19 -124 -31 -215 -39 -302 -56 -402 -70 -411 -8 -5 -28 -9 -44 -9 -92 0 -280
-81 -395 -168 -95 -72 -222 -209 -291 -314 -112 -170 -200 -395 -218 -553 -10
-98 -6 -138 15 -156 23 -19 41 6 47 69 9 86 53 246 93 336 119 271 338 517
559 628 60 31 177 68 213 68 l25 0 -6 -75 c-4 -41 -12 -95 -18 -119 -21 -84
-2 -110 191 -272 200 -168 359 -277 480 -331 66 -29 85 -33 163 -33 52 0 87
-4 87 -10 0 -17 -62 -49 -108 -56 -72 -11 -138 11 -348 115 -305 151 -420 192
-575 205 -87 8 -216 -15 -287 -51 -106 -53 -217 -175 -210 -231 5 -42 33 -39
91 10 120 102 179 131 295 148 147 22 345 -31 688 -184 242 -107 308 -122 410
-91 55 16 126 71 149 115 13 26 19 27 103 34 49 3 122 13 162 22 40 8 79 13
87 10 22 -9 15 -89 -13 -163 -43 -111 -35 -147 23 -99 45 38 81 114 96 202
l13 79 47 22 c78 38 79 41 94 378 10 237 8 847 -4 955 l-9 85 63 59 c71 66
108 119 99 142 -5 13 -13 10 -47 -18 -65 -53 -102 -78 -116 -78 -12 0 -31 35
-47 86 -4 15 10 36 58 86 112 115 160 245 160 438 0 97 -4 123 -22 164 -13 27
-21 50 -20 51 11 8 184 42 189 37 4 -4 3 -41 -1 -82 -5 -41 -11 -241 -14 -445
-4 -203 -8 -395 -10 -425 -2 -30 -7 -185 -10 -345 -4 -159 -9 -324 -11 -365
-3 -41 -7 -160 -10 -265 -3 -104 -8 -228 -10 -275 -3 -47 -10 -182 -15 -300
-12 -244 -26 -421 -38 -465 -11 -38 -30 -42 -267 -60 -301 -21 -340 -22 -337
-6 2 8 6 43 9 78 6 62 6 63 -19 63 -35 0 -52 -24 -78 -110 -45 -153 -129 -292
-194 -320 -45 -21 -222 -45 -391 -55 -60 -4 -130 -9 -155 -11 -25 -2 -110 -4
-190 -5 -139 0 -149 1 -229 31 -79 29 -273 129 -405 208 -58 35 -59 35 -165
33 -58 -2 -122 -4 -141 -6 -19 -1 -109 -6 -200 -10 -91 -4 -167 -9 -170 -10
-3 -2 -78 -6 -167 -10 l-162 -7 -6 23 c-3 13 -3 44 0 69 13 113 19 579 20
1476 0 943 -1 973 -19 993 -18 19 -21 20 -37 5 -9 -8 -19 -34 -23 -57 -8 -59
-15 -405 -21 -1017 -5 -555 -13 -921 -21 -1007 -2 -29 -5 -111 -5 -183 -1 -71
-5 -130 -9 -130 -4 0 -19 17 -32 38 -14 20 -52 62 -84 91 -49 45 -76 60 -164
92 -58 20 -168 61 -245 89 -77 29 -294 105 -482 169 l-343 116 0 1025 c0 564
-2 1198 -5 1410 -12 914 -14 1407 -7 1435 9 36 28 46 213 116 418 158 1000
353 1097 366 l42 6 0 -349 c0 -296 16 -999 24 -1114 2 -19 8 -188 15 -375 16
-496 17 -513 31 -530 17 -20 43 -19 63 3 15 16 16 44 12 248 -3 126 -7 389
-10 584 -2 195 -9 546 -14 780 -6 234 -12 503 -13 599 l-3 173 35 12 c37 12
82 12 415 1z m2694 -2076 c48 -78 32 -311 -29 -435 -28 -57 -135 -174 -160
-174 -8 0 -234 108 -272 130 -17 9 -16 13 4 51 29 56 37 169 14 204 -24 36
-75 65 -115 65 -52 0 -113 -67 -130 -142 -7 -32 -15 -60 -19 -62 -6 -4 -139
19 -181 30 -19 6 -6 224 15 240 13 10 351 60 564 84 52 6 131 17 175 24 113
20 113 20 134 -15z m-2049 -35 c206 -18 402 -36 436 -39 135 -11 144 -19 144
-123 -1 -180 -113 -381 -252 -450 -122 -60 -187 -76 -313 -76 -106 0 -129 3
-193 26 -147 54 -239 123 -316 236 -26 37 -53 92 -61 122 -25 92 -16 271 17
333 11 21 -24 23 538 -29z m1250 -444 c186 -63 489 -205 550 -257 64 -55 65
-67 65 -723 0 -316 -4 -601 -8 -633 -10 -68 -16 -71 -135 -88 -246 -34 -556
-44 -634 -20 -48 15 -209 123 -432 290 l-178 133 7 52 c4 28 9 60 11 71 6 34
51 414 84 710 33 288 52 410 62 410 6 0 173 -120 385 -276 l52 -39 -5 -242
c-3 -134 -7 -283 -9 -333 -10 -182 -18 -663 -12 -688 8 -31 36 -43 55 -24 20
20 39 404 57 1122 5 226 4 231 -93 296 -153 103 -362 254 -362 263 0 5 101 7
238 4 210 -5 244 -8 302 -28z m3205 -1385 c66 -3 150 -11 186 -16 l67 -10 119
-177 c169 -249 276 -423 266 -433 -11 -10 -331 -99 -359 -99 -17 0 -40 25 -91
98 -38 53 -113 158 -166 234 -91 127 -227 371 -227 405 0 13 8 15 43 10 23 -3
96 -9 162 -12z m-218 -146 c34 -63 62 -118 62 -124 1 -5 -32 -36 -73 -68 -40
-32 -154 -136 -252 -232 -99 -96 -181 -175 -183 -175 -10 -1 -201 184 -201
195 0 20 558 526 575 521 5 -1 37 -54 72 -117z m183 -299 c22 -36 85 -123 140
-195 55 -71 100 -136 100 -145 0 -8 -5 -35 -11 -60 -12 -52 -102 -569 -129
-746 l-11 -71 -146 -109 c-81 -60 -192 -144 -247 -186 -55 -43 -103 -78 -108
-78 -13 0 -328 481 -328 500 1 13 32 165 44 210 17 63 78 387 83 437 l6 62
136 133 c75 73 192 187 260 253 l123 120 24 -30 c13 -17 42 -59 64 -95z
m-7175 -103 c91 -28 700 -228 720 -237 17 -8 195 -72 573 -207 41 -14 83 -35
93 -47 11 -11 106 -192 211 -401 105 -209 210 -415 234 -457 l42 -77 -9 -73
c-5 -40 -14 -104 -18 -141 -9 -67 -20 -94 -28 -70 -2 6 -54 85 -116 175 -357
523 -705 993 -787 1062 -26 21 -42 26 -88 26 -64 0 -391 -24 -552 -40 -58 -6
-148 -14 -200 -19 -52 -5 -103 -13 -112 -16 -13 -5 -20 0 -28 19 -11 29 -26
486 -17 510 4 9 12 14 19 12 7 -3 36 -11 63 -19z m6361 -131 c30 -24 76 -64
103 -88 l49 -44 -14 -65 c-7 -35 -18 -84 -23 -109 -6 -25 -29 -135 -51 -245
-57 -274 -62 -291 -112 -316 -22 -11 -71 -40 -109 -65 -38 -24 -74 -44 -80
-44 -7 0 -9 14 -5 38 43 281 52 331 120 707 48 260 51 275 62 275 4 0 31 -20
60 -44z m1519 -58 c-3 -18 -12 -82 -21 -143 -25 -181 -103 -656 -119 -720 -8
-33 -17 -76 -20 -95 -15 -99 -14 -98 -95 -159 -42 -33 -81 -56 -87 -53 -5 4
-48 53 -96 110 -102 120 -99 109 -67 323 12 74 32 211 45 304 40 273 47 319
56 337 9 16 73 39 289 102 117 34 123 34 115 -6z m-2729 -23 c15 -23 15 -37
-10 -212 -15 -104 -42 -273 -61 -378 -19 -104 -57 -323 -85 -485 -27 -162 -52
-306 -55 -320 -52 -242 -91 -836 -80 -1215 4 -137 8 -286 9 -329 l1 -80 -160
-27 c-88 -15 -191 -37 -230 -49 -38 -12 -81 -24 -95 -27 -32 -6 -364 116 -600
219 -176 78 -208 94 -200 101 3 2 78 41 166 86 192 97 232 129 276 218 31 64
33 72 32 182 0 142 -25 230 -83 291 -43 45 -119 65 -218 57 -55 -4 -63 -3 -63
13 0 38 59 552 64 557 2 2 70 10 152 18 83 8 156 17 165 20 32 12 42 51 52
200 5 83 12 153 16 157 3 4 60 9 126 13 140 7 281 22 295 30 22 14 32 88 46
338 3 64 9 119 13 121 4 3 70 9 146 15 185 15 240 26 277 60 l31 28 20 211
c11 117 24 212 29 212 4 0 15 -11 24 -25z m2870 -194 c-4 -42 -25 -193 -47
-336 -66 -436 -77 -480 -109 -460 -15 9 -8 86 21 225 11 52 33 176 49 275 36
216 60 355 66 373 2 7 9 10 15 6 8 -5 9 -30 5 -83z m-7006 -410 c158 -213 207
-282 405 -566 61 -88 159 -227 216 -310 217 -309 369 -533 369 -542 0 -5 -44
-15 -97 -22 -190 -25 -393 -76 -531 -133 -84 -35 -107 -62 -73 -89 20 -16 24
-16 98 11 135 50 337 91 540 111 95 9 116 7 280 -21 98 -17 239 -40 313 -50
166 -23 311 -48 317 -54 3 -3 -19 -22 -47 -42 -84 -60 -155 -155 -225 -299
-73 -151 -89 -196 -119 -343 l-22 -107 -39 4 c-68 6 -638 158 -905 241 -52 16
-169 52 -260 80 -180 55 -324 106 -355 126 -20 13 -128 176 -307 464 -221 354
-356 575 -430 703 -43 76 -103 177 -132 225 -29 48 -74 128 -101 177 -54 101
-121 222 -219 400 -36 66 -66 125 -66 131 0 14 25 19 200 38 340 38 770 72
930 75 l105 1 155 -209z m4320 77 c145 -191 540 -734 540 -741 0 -3 -55 -32
-122 -65 -143 -69 -315 -181 -386 -250 -66 -65 -124 -153 -125 -193 -3 -59 24
-47 119 51 123 127 290 235 473 305 51 20 95 34 97 32 2 -2 -21 -53 -51 -113
-77 -152 -96 -233 -102 -425 -9 -260 25 -406 149 -651 97 -193 194 -338 340
-509 26 -31 48 -60 48 -64 0 -4 -26 -4 -57 0 -283 34 -703 181 -1095 383
l-168 86 -1 46 c-12 431 20 949 76 1240 15 76 55 309 70 400 20 123 68 383 91
488 10 46 20 72 27 69 7 -2 41 -42 77 -89z m-844 -3 c6 -26 -11 -288 -20 -303
-3 -5 -83 -11 -179 -14 -245 -8 -263 -19 -273 -179 -4 -52 -9 -123 -13 -159
l-6 -65 -130 -3 c-144 -4 -192 -17 -199 -54 -2 -13 -9 -48 -15 -78 -6 -30 -24
-176 -41 -325 -17 -148 -36 -275 -41 -281 -5 -7 -29 -17 -52 -23 -23 -6 -98
-35 -167 -65 -69 -29 -129 -50 -134 -45 -9 8 2 71 48 284 15 66 36 166 47 221
l21 102 151 133 c154 137 354 352 474 509 46 60 75 90 88 90 30 0 118 54 153
94 18 20 41 56 53 79 50 98 55 101 181 105 43 2 48 0 54 -23z m-1801 -95 c98
-69 239 -154 321 -192 l69 -33 265 2 c146 1 325 8 398 16 73 7 135 11 137 7 4
-6 -343 -377 -448 -479 l-56 -54 -43 19 c-37 17 -65 19 -225 18 l-183 -1 0
158 c0 96 -4 168 -11 183 -20 43 -49 48 -234 36 -252 -15 -332 -14 -339 6 -3
9 -6 91 -6 184 0 198 -19 177 165 178 l120 1 70 -49z m-484 -142 c0 -274 6
-310 54 -328 11 -4 130 -4 265 0 177 5 247 4 252 -4 4 -6 8 -78 8 -159 l0
-149 29 -29 30 -29 179 6 c127 5 181 4 186 -4 8 -13 -15 -196 -49 -397 -13
-77 -29 -184 -35 -239 -6 -54 -13 -103 -16 -108 -8 -12 -28 -8 -119 25 -38 14
-146 38 -240 52 -93 14 -247 42 -342 61 -94 19 -180 34 -191 34 -20 0 -54 40
-159 191 -118 169 -117 165 -109 298 4 64 14 168 22 231 23 186 29 164 -111
429 -69 131 -125 242 -125 249 0 18 12 21 146 28 71 4 131 8 133 10 2 2 46 4
98 4 l93 0 1 -172z m-2578 35 c41 -71 105 -184 142 -253 37 -69 109 -195 158
-280 50 -85 123 -211 162 -280 155 -270 484 -799 613 -985 73 -106 140 -185
157 -185 8 0 94 -27 192 -59 166 -55 485 -157 522 -167 9 -2 129 -34 266 -70
138 -36 266 -70 285 -75 19 -6 93 -22 163 -37 l129 -27 3 -240 c4 -246 12
-364 40 -565 20 -141 53 -308 66 -331 5 -11 5 -20 0 -23 -17 -11 -202 44 -659
195 -553 183 -1017 362 -1299 501 l-126 62 -71 97 c-115 157 -153 214 -245
363 -155 250 -280 471 -475 839 -94 176 -352 721 -382 805 l-27 77 40 115 c61
172 235 623 246 638 5 6 13 12 17 12 5 0 42 -57 83 -127z m8553 -165 c162
-156 342 -382 406 -512 l32 -65 -28 -93 c-34 -114 -168 -391 -228 -474 -115
-154 -385 -327 -718 -459 -358 -142 -726 -203 -1060 -176 -170 14 -460 59
-486 76 -49 32 -161 294 -183 430 -16 97 -17 308 -1 380 35 163 134 343 215
391 l47 27 22 -24 c13 -13 71 -94 129 -180 80 -118 103 -159 94 -167 -6 -5
-37 -22 -67 -37 -122 -61 -230 -150 -230 -190 0 -37 24 -36 106 7 42 23 118
59 168 80 96 42 117 44 191 14 32 -12 87 -15 282 -16 153 0 244 -4 248 -10 4
-6 -6 -32 -20 -58 -64 -113 -122 -335 -95 -367 20 -24 46 -18 58 13 6 15 21
67 32 116 24 98 75 220 89 214 8 -2 74 -90 186 -246 13 -18 20 -20 36 -12 38
21 25 74 -52 215 -81 147 -155 310 -165 361 -5 26 0 44 20 79 45 76 204 190
292 209 27 6 35 2 63 -30 48 -54 137 -196 196 -310 72 -140 115 -289 115 -397
0 -58 12 -77 47 -77 60 0 74 165 28 325 -52 180 -176 401 -297 530 l-59 63 43
30 c102 70 256 130 303 118 43 -11 197 -216 264 -353 76 -155 92 -258 61 -403
-12 -58 -24 -108 -27 -113 -2 -4 -1 -16 2 -27 11 -34 49 -25 78 18 43 63 59
128 65 253 4 95 1 130 -17 198 -34 136 -113 276 -256 451 -34 41 -64 80 -68
87 -4 6 0 42 8 80 8 37 18 78 20 91 3 12 10 22 15 22 6 0 49 -37 96 -82z
m-1756 -10 c51 -86 175 -269 240 -351 25 -33 49 -65 55 -72 10 -14 -50 -382
-64 -398 -4 -4 -15 -5 -24 -1 -24 9 -158 193 -299 411 -140 217 -204 331 -192
343 13 12 228 140 235 140 4 0 26 -33 49 -72z m1013 -228 c37 -41 63 -78 59
-81 -4 -4 -31 -14 -61 -24 -112 -37 -299 -193 -347 -292 -19 -37 -26 -71 -28
-122 l-3 -71 -157 -3 c-86 -2 -158 -2 -159 0 -2 2 0 27 5 56 4 28 15 110 23
181 10 94 19 134 32 149 10 11 79 65 153 120 230 170 320 239 326 248 5 9 19
-5 157 -161z m-3583 -989 c39 -11 61 -61 67 -150 8 -116 -2 -165 -44 -212 -54
-59 -253 -166 -553 -296 -58 -25 -111 -50 -117 -55 -18 -14 -16 -43 3 -62 23
-24 73 -19 164 14 l82 30 41 -33 c117 -94 296 -177 692 -321 262 -96 365 -179
365 -295 0 -71 -37 -138 -91 -166 -22 -12 -37 -12 -95 0 -101 21 -334 98 -539
178 -192 74 -237 84 -243 54 -6 -32 29 -58 163 -123 169 -81 288 -124 490
-179 225 -61 280 -58 353 17 32 34 91 156 92 191 0 22 3 21 106 -4 74 -19 93
-28 135 -68 46 -42 51 -51 56 -101 5 -50 2 -59 -28 -105 -64 -94 -169 -131
-494 -172 -265 -34 -639 -38 -820 -10 -131 20 -414 83 -575 128 -63 17 -198
53 -298 79 -101 26 -188 52 -194 58 -15 15 -22 410 -9 547 13 139 40 278 77
388 30 94 114 243 171 307 45 50 95 75 378 184 77 29 188 75 246 100 59 26
140 55 180 66 73 19 191 24 239 11z m2535 -667 c140 -23 203 -28 353 -28 100
-1 182 -2 182 -4 0 -6 -46 -49 -105 -99 -73 -61 -214 -154 -287 -188 l-53 -26
-77 81 c-78 82 -218 267 -218 289 0 7 8 10 18 7 9 -3 94 -17 187 -32z m-1422
-375 c75 -19 175 -105 151 -129 -6 -6 -99 -30 -208 -55 -108 -24 -206 -47
-217 -50 -15 -5 -23 1 -37 27 -9 18 -45 61 -79 96 -35 35 -63 65 -63 67 0 11
268 51 358 54 29 0 72 -4 95 -10z m333 -265 c52 -25 94 -87 94 -139 0 -83 -77
-162 -223 -229 -68 -31 -82 -32 -72 -8 4 9 9 51 12 93 5 67 3 81 -17 117 -23
40 -72 86 -118 111 -13 7 -21 16 -17 19 13 13 240 60 272 57 18 -2 48 -11 69
-21z m-2536 -503 c85 -27 193 -60 239 -73 47 -13 86 -29 89 -36 5 -15 -113
-139 -189 -197 -73 -57 -186 -118 -204 -111 -29 11 -56 89 -79 229 -36 215
-39 250 -24 244 7 -3 83 -28 168 -56z"/>
<path d="M5215 8924 c-269 -77 -618 -97 -889 -49 -107 18 -134 10 -107 -34 25
-39 318 -76 541 -68 281 10 545 81 558 150 4 21 -31 22 -103 1z"/>
<path d="M5523 8750 c-84 -22 -208 -79 -350 -162 -107 -62 -146 -98 -136 -125
8 -21 48 -12 112 26 135 80 345 182 424 206 85 27 99 39 75 63 -16 16 -39 15
-125 -8z"/>
<path d="M3680 8664 c-62 -8 -80 -14 -80 -29 0 -23 35 -32 127 -33 92 -2 268
-37 418 -83 462 -144 545 -159 545 -99 0 29 -36 48 -136 71 -118 28 -329 83
-432 114 -142 42 -350 70 -442 59z"/>
<path d="M3197 7244 c-14 -14 -7 -96 14 -156 78 -233 320 -375 590 -347 114
13 270 82 244 108 -8 8 -28 5 -66 -9 -218 -76 -446 -38 -603 101 -76 69 -108
120 -132 217 -21 82 -31 101 -47 86z"/>
<path d="M4297 6882 c-73 -89 -259 -269 -322 -312 -54 -36 -65 -48 -65 -69 0
-36 131 28 223 110 75 65 247 297 247 331 0 25 -34 0 -83 -60z"/>
<path d="M4230 7560 c-54 -13 -105 -75 -120 -145 -7 -32 -10 -77 -7 -99 12
-84 108 -125 178 -75 66 47 108 178 79 248 -10 25 -76 83 -91 80 -2 -1 -20 -5
-39 -9z"/>
<path d="M5263 6942 c-62 -4 -85 -24 -59 -50 15 -15 44 -17 246 -17 251 0 275
5 232 48 -22 21 -30 22 -195 22 -94 1 -195 -1 -224 -3z"/>
<path d="M8482 8605 c-22 -28 -31 -127 -35 -390 l-2 -140 -65 -6 c-36 -4 -327
-9 -647 -13 -320 -3 -588 -9 -596 -12 -35 -13 -38 -52 -44 -508 -6 -478 -3
-525 39 -547 15 -8 187 -9 630 -4 335 4 614 8 621 8 50 1 47 18 47 -282 0
-154 4 -291 10 -305 5 -14 22 -32 38 -40 25 -13 32 -13 58 0 16 8 43 28 59 43
17 15 102 86 190 157 195 157 324 262 616 504 123 102 274 226 334 274 61 49
113 94 117 100 4 6 8 27 8 47 0 32 -7 42 -57 85 -32 27 -115 98 -184 159 -133
116 -252 218 -384 327 -309 257 -597 497 -632 530 -52 46 -92 51 -121 13z
m133 -215 c5 -8 201 -176 480 -410 152 -129 464 -398 522 -452 l51 -47 -229
-188 c-126 -104 -244 -199 -262 -213 -18 -14 -118 -95 -221 -180 -104 -85
-232 -190 -285 -233 l-96 -78 -2 248 c-2 166 -7 255 -15 271 -15 29 -77 45
-142 38 -28 -3 -304 -8 -614 -12 l-563 -7 3 381 c2 209 5 382 8 385 3 2 290 8
638 11 349 4 641 10 650 13 51 18 52 21 52 260 0 204 5 246 25 213z"/>
</g>
</svg>
