<?xml version="1.0" standalone="no"?>
<!DOCTYPE svg PUBLIC "-//W3C//DTD SVG 20010904//EN"
 "http://www.w3.org/TR/2001/REC-SVG-20010904/DTD/svg10.dtd">
<svg version="1.0" xmlns="http://www.w3.org/2000/svg"
 width="1024.000000pt" height="1024.000000pt" viewBox="0 0 1024.000000 1024.000000"
 preserveAspectRatio="xMidYMid meet">
<metadata>
Created by potrace 1.16, written by Peter Selinger 2001-2019
</metadata>
<g transform="translate(0.000000,1024.000000) scale(0.100000,-0.100000)"
fill="#000000" stroke="none">
<path d="M970 9383 c-203 -15 -234 -39 -260 -207 -14 -86 -14 -422 0 -536 10
-92 7 -100 -41 -100 -39 0 -90 -40 -105 -82 -17 -50 -32 -239 -45 -583 -21
-566 -26 -776 -28 -1274 l-1 -503 -31 -43 c-36 -50 -59 -134 -59 -217 0 -45 5
-62 23 -84 l23 -27 -23 -85 c-40 -151 -115 -496 -116 -538 -2 -55 18 -77 119
-126 l81 -39 2 -132 c2 -195 14 -257 41 -207 7 13 10 75 8 170 -2 83 1 150 5
150 5 0 16 -4 25 -9 22 -11 78 12 91 37 6 10 21 84 35 163 14 79 32 178 40
219 8 41 18 112 22 158 6 69 9 82 23 78 9 -3 49 -15 90 -27 l73 -22 -6 -66
c-4 -36 -11 -115 -17 -174 -5 -60 -13 -127 -19 -150 -18 -84 -28 -197 -20
-234 13 -55 56 -89 121 -97 30 -4 66 -9 80 -12 l26 -5 -4 -287 c-5 -313 -1
-335 41 -292 23 24 24 33 30 190 3 91 6 213 6 271 l0 107 75 4 c58 3 79 8 95
23 27 27 40 106 40 239 0 61 7 154 15 206 8 52 15 116 15 143 0 44 2 47 26 47
l27 0 -7 -127 c-4 -71 -11 -168 -16 -218 -14 -140 -31 -526 -25 -556 4 -15 2
-45 -4 -66 -16 -59 -30 -173 -32 -252 -1 -57 2 -76 17 -92 40 -45 112 -59 303
-60 116 0 125 1 148 23 53 49 54 58 56 374 l2 294 53 0 c47 0 53 -2 48 -18 -4
-10 -8 -77 -11 -148 -2 -71 -9 -167 -15 -214 -5 -47 -10 -120 -10 -162 0 -76
0 -77 38 -107 l37 -31 125 4 c148 6 188 16 234 59 28 27 35 42 41 91 4 32 5
91 1 132 l-7 74 88 -57 c48 -31 89 -57 91 -58 1 -1 -4 -44 -13 -96 -31 -193
-15 -360 49 -504 30 -69 31 -73 31 -230 0 -149 -3 -295 -19 -780 -31 -946 -24
-862 -64 -871 -15 -3 -35 -8 -44 -11 -16 -4 -18 5 -18 100 0 107 -12 167 -35
167 -7 0 -18 -12 -24 -28 -13 -32 -31 -150 -31 -209 l0 -41 -50 -11 c-28 -6
-76 -11 -107 -11 l-55 0 6 113 c7 121 -1 170 -27 175 -27 5 -45 -52 -53 -166
-4 -56 -9 -102 -12 -102 -21 0 -202 63 -210 73 -6 7 -13 84 -16 177 -6 188
-10 1450 -4 1455 1 1 63 10 136 19 137 17 187 31 210 59 15 18 8 52 -11 60 -7
2 -75 -1 -152 -8 -77 -7 -221 -16 -320 -20 -99 -4 -188 -11 -197 -16 -22 -12
-24 -62 -4 -78 8 -7 30 -15 50 -18 l36 -6 0 -56 c0 -31 -4 -175 -10 -321 -12
-354 -18 -551 -26 -880 -4 -151 -8 -295 -9 -320 -2 -25 -3 -95 -4 -157 l-1
-112 -37 -10 c-21 -5 -50 -12 -65 -15 l-28 -6 0 124 c0 135 -10 179 -37 174
-24 -4 -30 -41 -32 -185 0 -67 -5 -124 -9 -127 -12 -7 -290 -36 -347 -36 l-45
0 0 146 c0 146 -7 184 -36 184 -25 0 -34 -47 -34 -181 0 -71 -2 -129 -4 -129
-15 0 -258 94 -284 110 l-32 20 -1 137 c-1 76 -3 154 -4 173 -2 33 -8 344 -21
1080 -5 318 -18 594 -30 623 -7 18 -32 30 -46 21 -5 -4 -15 -19 -22 -34 -11
-27 -13 -28 -46 -15 -171 63 -184 66 -207 56 -32 -15 -30 -54 3 -80 39 -31
126 -69 183 -82 28 -6 53 -14 55 -17 4 -8 12 -450 22 -1162 3 -245 9 -514 13
-598 7 -142 9 -154 32 -178 34 -37 183 -106 323 -150 119 -37 120 -37 245 -30
204 10 436 50 518 88 73 34 75 46 88 663 3 138 10 435 15 660 5 226 10 458 10
518 l0 107 30 0 29 0 3 -829 c3 -966 -11 -864 129 -920 192 -77 261 -85 489
-51 194 28 226 37 255 71 35 42 43 83 49 264 10 258 17 424 21 525 12 254 26
891 20 900 -3 5 -2 10 3 10 5 0 43 -37 84 -82 144 -158 250 -256 380 -350 17
-12 16 -27 -17 -268 -19 -140 -40 -291 -46 -336 -12 -77 -11 -83 9 -116 l21
-34 -34 -178 c-19 -98 -35 -203 -35 -233 0 -49 4 -59 33 -88 32 -32 137 -72
317 -121 36 -9 68 -20 72 -23 8 -7 -3 -73 -39 -231 -14 -63 -27 -125 -28 -137
-2 -13 -6 -41 -10 -62 -18 -108 103 -204 350 -280 291 -89 631 -122 897 -86
151 20 227 57 264 127 23 44 18 138 -12 215 -22 59 -25 78 -20 143 3 41 13
181 21 310 20 314 19 308 59 315 17 4 50 5 71 3 l40 -3 -3 -65 c-2 -36 -9
-190 -17 -344 -7 -155 -10 -288 -5 -300 11 -28 67 -79 109 -101 158 -79 571
-154 891 -160 354 -7 583 60 605 177 10 51 -11 138 -45 191 -37 59 -91 98
-218 159 -107 51 -113 57 -126 128 l-6 35 84 33 c47 18 104 47 127 64 l42 30
-6 172 c-4 94 -16 322 -26 506 -38 652 -46 850 -34 850 6 0 41 -14 78 -31 68
-30 270 -108 358 -136 l47 -16 0 -301 c0 -166 2 -476 5 -691 l4 -390 29 -26
c40 -36 173 -53 407 -54 l180 0 90 43 c164 78 177 94 191 213 l7 62 75 -7 c41
-3 97 -6 124 -6 l49 0 -5 -167 c-2 -91 0 -177 4 -189 21 -54 94 -75 340 -100
265 -26 386 -6 556 94 107 62 134 102 134 197 l0 40 129 -3 c106 -3 143 0 209
17 181 47 270 98 283 161 4 19 12 141 18 270 6 129 13 276 16 325 2 50 7 142
10 205 3 63 8 153 10 200 2 47 7 146 10 220 3 74 15 281 25 460 37 626 40 697
40 970 -1 385 -23 538 -98 686 -24 47 -75 95 -132 124 -78 40 -145 51 -389 64
l-45 2 -16 84 c-9 47 -21 94 -28 106 -8 15 -9 73 -3 205 8 199 6 822 -3 1414
-10 583 -18 714 -48 781 -6 13 -31 37 -54 53 l-43 28 -4 299 c-3 239 -7 309
-19 347 -25 73 -60 112 -125 139 -55 22 -70 23 -293 23 -331 -1 -382 -15 -411
-116 -13 -48 -18 -523 -6 -616 l6 -53 -172 0 -172 0 0 313 c-1 350 -7 400 -56
441 -40 34 -95 41 -309 40 -200 -1 -352 -17 -387 -39 -39 -26 -46 -100 -40
-425 4 -162 9 -304 12 -316 6 -19 2 -21 -60 -27 -82 -8 -122 -30 -149 -82 -21
-39 -21 -49 -21 -695 0 -360 4 -875 8 -1145 4 -269 9 -581 10 -692 l2 -202 32
-33 32 -33 -10 -165 c-25 -431 -25 -388 5 -419 26 -27 26 -28 16 -102 -6 -41
-10 -94 -9 -119 3 -40 1 -45 -17 -42 -29 4 -127 114 -179 200 -26 43 -80 145
-122 229 l-75 151 75 76 c124 125 188 249 207 402 19 146 8 224 -84 637 -20
86 -38 172 -41 190 -3 17 -10 48 -15 67 -34 132 -32 339 6 624 23 177 22 304
-4 403 -42 157 -74 224 -157 320 l-36 42 -3 203 c-3 224 -16 307 -52 355 -27
35 -116 89 -213 128 -164 67 -477 137 -781 176 -256 32 -791 29 -1040 -6 -14
-2 -50 -6 -80 -10 -90 -10 -368 -64 -467 -91 -140 -36 -208 -61 -313 -112
-112 -55 -173 -110 -191 -174 -24 -89 10 -458 65 -698 l24 -105 -25 -55 c-76
-166 -140 -377 -173 -576 -61 -369 -99 -541 -165 -759 -81 -264 -91 -323 -69
-435 21 -110 68 -206 166 -336 21 -28 38 -54 38 -59 0 -4 -40 -49 -89 -100
-131 -135 -262 -315 -380 -522 l-52 -93 -62 42 c-63 42 -197 157 -197 168 0 3
48 12 108 19 125 15 209 36 238 60 44 35 47 54 40 235 -7 163 -22 357 -31 402
-4 16 4 28 29 45 47 32 67 80 73 171 7 91 -8 156 -43 189 l-24 22 0 357 0 356
49 13 c79 20 112 69 130 196 14 95 41 619 41 793 0 116 -1 124 -23 146 -23 23
-100 46 -153 46 l-24 0 7 128 c5 70 8 208 8 307 0 203 -4 218 -69 249 -20 9
-78 22 -129 27 -50 6 -92 11 -93 12 0 1 3 56 7 122 15 264 19 462 11 508 -16
82 -73 123 -202 148 -87 16 -358 12 -466 -6 -171 -30 -179 -50 -179 -420 0
-148 2 -290 5 -315 l5 -45 -133 -3 -133 -3 6 43 c3 24 6 178 8 343 3 382 2
383 -155 420 -59 14 -310 18 -448 8z m435 -124 c27 -5 53 -13 58 -18 7 -7 11
-660 4 -667 -1 -1 -31 -4 -66 -5 l-64 -3 2 230 c3 284 6 277 -115 275 -59 -1
-82 -5 -91 -17 -19 -26 -24 -99 -21 -299 l3 -189 -60 1 -60 1 -3 198 c-2 110
0 267 3 351 l7 152 47 4 c65 6 297 -3 356 -14z m-500 -348 l1 -349 -41 -5
c-22 -2 -44 -1 -48 3 -15 13 -21 448 -8 558 15 127 16 130 49 135 15 2 32 5
37 6 6 0 10 -121 10 -348z m1560 323 c38 -8 75 -20 83 -26 10 -9 13 -64 11
-262 -1 -138 -5 -278 -8 -311 l-6 -60 -51 -2 -52 -1 5 211 c3 135 1 222 -5
238 -10 24 -17 28 -79 34 -74 7 -116 -3 -132 -32 -5 -10 -11 -96 -12 -191 -1
-94 -5 -191 -8 -214 l-6 -42 -55 3 c-30 1 -55 3 -55 4 0 1 2 151 5 332 l5 330
50 6 c75 9 231 0 310 -17z m-443 -321 c-2 -181 -6 -330 -8 -333 -7 -6 -85 -2
-93 5 -3 4 -6 140 -6 303 0 219 3 303 12 319 12 19 30 26 83 32 13 1 15 -40
12 -326z m-756 -130 c-4 -108 -11 -202 -16 -208 -5 -7 -20 -11 -32 -10 l-23 2
-3 206 -2 207 41 0 42 0 -7 -197z m1106 55 c-2 -68 -7 -154 -10 -192 l-7 -69
-34 -1 -34 -1 7 95 c3 52 6 139 6 193 l0 97 38 0 37 0 -3 -122z m5373 97 l73
-7 6 -37 c3 -20 9 -168 12 -328 l7 -293 -82 0 c-70 0 -81 2 -82 18 0 9 -2 24
-3 32 -2 8 -6 96 -10 195 -8 202 -14 220 -72 231 -58 11 -146 -3 -166 -26 -30
-37 -38 -107 -28 -281 5 -90 7 -165 6 -166 -1 -2 -36 -4 -77 -5 l-74 -3 -5
120 c-8 192 3 522 18 537 22 22 299 29 477 13z m1155 -13 l35 -8 -1 -189 c0
-105 -1 -252 -2 -328 l-2 -138 -67 3 -68 3 -5 212 c-6 254 -1 244 -122 254
-153 13 -160 3 -158 -245 0 -102 3 -193 7 -201 5 -14 -5 -15 -73 -13 l-79 3 2
285 c1 157 5 304 8 327 l6 42 67 4 c99 6 412 -1 452 -11z m131 -129 c0 -21 2
-152 5 -290 5 -227 4 -253 -10 -253 -14 0 -16 32 -16 290 0 187 4 290 10 290
6 0 10 -17 11 -37z m-1447 -215 c3 -46 7 -134 9 -195 l2 -113 -51 0 -52 0 -6
78 c-14 180 -18 291 -12 301 4 6 29 11 56 11 l48 0 6 -82z m1127 -119 c3 -101
5 -186 3 -189 -1 -3 -28 -4 -61 -2 l-59 4 -3 183 c-3 206 -7 195 74 191 l40
-3 6 -184z m-3366 150 c55 -4 132 -11 170 -14 91 -7 141 -14 295 -40 163 -28
396 -96 517 -150 99 -46 108 -65 123 -283 7 -90 10 -165 7 -168 -2 -2 -29 7
-59 20 -250 111 -489 151 -908 155 -500 4 -892 -64 -1001 -173 -41 -41 -52
-70 -84 -221 -38 -181 -51 -228 -116 -400 -36 -99 -106 -272 -153 -383 -175
-411 -308 -786 -340 -957 -33 -180 -29 -402 8 -477 8 -15 12 -28 9 -28 -3 0
-31 15 -62 34 -135 81 -215 106 -276 86 -36 -12 -60 -42 -52 -64 3 -7 24 -16
47 -19 54 -7 61 -15 30 -36 -14 -9 -46 -36 -72 -59 l-47 -44 -54 84 c-106 164
-122 209 -121 348 1 94 6 122 49 270 95 327 110 391 156 665 37 220 67 346
116 490 45 132 175 398 268 550 178 289 239 405 215 405 -23 0 -64 -36 -119
-104 -81 -99 -204 -282 -246 -367 -20 -39 -38 -69 -40 -68 -8 8 -55 301 -63
389 -15 174 -4 248 44 292 33 29 186 96 294 128 257 77 437 109 790 140 117
10 553 10 675 -1z m-2545 -158 l35 -7 3 -245 c1 -135 -1 -263 -6 -285 l-8 -39
-130 4 c-107 3 -133 7 -153 22 -29 23 -83 25 -115 4 -18 -12 -56 -15 -192 -13
-190 2 -264 -6 -295 -31 -34 -28 -79 -372 -100 -776 -7 -122 -9 -242 -5 -267
13 -85 66 -114 261 -143 173 -25 314 -35 508 -35 l187 0 -2 -342 -3 -343 -85
-17 c-155 -31 -282 -40 -648 -45 -240 -4 -414 -1 -510 7 -163 13 -283 28 -291
36 -3 3 -8 80 -11 173 -4 124 -9 172 -19 185 -13 16 -16 16 -30 1 -13 -13 -16
-44 -16 -184 l0 -168 -101 19 c-117 21 -309 75 -409 115 l-70 28 1 165 c0 231
14 957 19 1005 2 22 7 171 10 330 4 160 8 308 10 330 2 22 6 130 10 240 3 110
9 210 12 222 4 18 14 23 61 28 32 4 68 8 81 10 13 2 102 7 198 11 169 7 175 6
170 -12 -3 -10 -11 -107 -16 -214 -6 -107 -13 -224 -16 -260 -17 -245 -27
-1252 -12 -1267 5 -4 21 6 36 23 l28 31 7 399 c3 219 11 498 16 619 20 450 32
680 37 685 2 3 122 6 266 8 144 1 287 3 317 5 118 5 937 -5 970 -12z m6015
-302 c3 -4 8 -262 10 -575 2 -313 7 -686 10 -829 3 -143 8 -441 11 -661 l7
-402 -29 -6 c-157 -31 -898 -38 -1264 -11 -258 19 -478 43 -501 56 -16 8 -18
50 -21 476 -5 732 2 1927 12 1937 5 5 118 12 252 16 275 9 1504 8 1513 -1z
m232 -20 c43 -6 83 -16 90 -23 8 -8 14 -96 18 -291 3 -154 8 -350 10 -435 2
-85 7 -474 11 -863 l7 -708 -24 -17 c-47 -34 -124 -73 -173 -87 -27 -8 -50
-14 -51 -12 -2 1 -5 322 -9 712 -7 805 -23 1647 -32 1687 -3 15 -3 32 1 38 8
13 55 13 152 -1z m-3217 -125 c330 -34 535 -109 676 -249 155 -153 184 -309
141 -760 -28 -298 -21 -424 37 -669 18 -78 41 -172 50 -211 9 -38 19 -79 22
-90 29 -110 46 -249 41 -350 -6 -125 -26 -193 -84 -288 -39 -64 -180 -215
-222 -237 -23 -12 -24 -11 -17 11 4 13 12 56 20 94 7 42 24 88 41 115 71 113
98 214 97 363 -1 82 -9 128 -47 275 -61 236 -112 542 -129 772 -2 36 0 128 5
205 11 164 12 263 4 360 -6 61 -5 68 8 53 21 -26 65 -40 87 -28 42 23 53 95
24 156 -52 109 -219 175 -584 230 -136 21 -531 23 -725 5 -481 -46 -586 -95
-652 -302 -17 -52 -45 -146 -62 -209 -33 -123 -89 -291 -196 -590 -145 -404
-194 -611 -202 -847 -5 -154 -3 -182 16 -268 31 -132 77 -218 167 -314 41 -43
74 -81 74 -84 0 -7 -31 0 -110 25 -93 30 -268 131 -313 181 -213 237 -188 567
91 1242 38 94 109 265 156 380 48 116 97 235 110 265 50 115 96 271 131 440
20 96 40 182 45 190 17 31 105 68 210 89 342 66 728 82 1090 45z m-3591 -219
c47 -3 86 -7 89 -9 2 -3 -4 -88 -13 -190 l-17 -185 22 -35 c25 -42 43 -48 130
-44 64 3 65 3 87 43 31 55 33 175 3 205 -43 43 -73 14 -80 -79 l-5 -66 -34 -3
-34 -4 6 129 c4 70 9 150 13 177 l7 48 276 -4 c170 -3 287 -9 304 -16 l27 -12
0 -170 0 -170 -45 0 -45 0 0 78 c0 66 -3 82 -20 97 -18 16 -21 16 -44 2 -20
-14 -26 -29 -36 -104 -12 -83 -12 -90 8 -123 19 -34 21 -35 98 -40 l77 -5 -2
-145 c-1 -80 -4 -147 -7 -149 -4 -5 -238 -2 -270 3 -18 3 -19 12 -16 129 3
132 -4 167 -37 167 -41 0 -50 -29 -53 -165 l-3 -130 -207 3 c-114 2 -216 1
-227 -3 -23 -7 -33 -39 -17 -58 29 -37 63 -40 609 -51 109 -2 203 -8 208 -13
13 -13 -10 -79 -37 -104 -19 -18 -42 -23 -151 -31 -142 -11 -445 -4 -568 12
-44 6 -129 19 -189 28 -105 16 -110 18 -117 44 -13 50 1 431 27 692 8 82 14
176 14 209 l0 59 93 -6 c50 -3 130 -9 176 -11z m3704 -215 c137 -11 257 -41
352 -87 l58 -28 4 -53 c4 -51 3 -52 -19 -47 -145 33 -225 43 -393 50 -130 6
-142 5 -172 -14 -18 -11 -33 -29 -33 -38 0 -10 -2 -142 -4 -293 l-4 -275 56
-35 c85 -53 224 -195 255 -260 56 -118 74 -280 42 -387 -16 -55 -65 -108 -111
-119 -81 -20 -240 29 -363 112 -141 95 -145 96 -246 91 -113 -7 -230 -43 -316
-98 -152 -99 -281 -285 -329 -476 l-11 -43 -53 0 -54 0 -6 43 c-7 53 -14 197
-21 397 -2 85 -10 310 -16 500 l-11 345 32 105 c18 58 56 185 83 282 51 176
51 177 77 170 14 -3 95 -6 180 -6 199 0 391 36 640 120 86 29 181 52 226 53
17 1 88 -4 157 -9z m-76 -424 c1 -1 -12 -17 -28 -36 l-28 -35 -1 43 c0 41 1
42 28 36 15 -4 28 -7 29 -8z m523 -91 c0 -52 -3 -95 -7 -95 -5 1 -18 22 -30
48 -12 26 -38 66 -58 89 -19 23 -35 44 -35 47 0 3 29 6 65 6 l65 0 0 -95z
m-235 66 c89 -40 165 -147 180 -252 18 -125 -54 -266 -164 -323 -28 -15 -29
-15 -62 37 -19 29 -35 55 -37 59 -2 5 11 22 28 40 40 40 50 66 50 134 0 61
-15 96 -55 134 -71 67 -193 -6 -198 -119 -1 -23 -3 -41 -5 -41 -14 0 -84 44
-89 56 -9 25 25 134 59 187 17 26 47 61 66 77 33 27 43 30 112 30 51 0 88 -6
115 -19z m230 -592 c13 -391 15 -619 7 -619 -5 0 -29 25 -52 55 -24 31 -60 69
-80 85 l-38 30 -5 117 c-3 65 -7 125 -10 133 -2 8 -7 33 -12 55 -4 22 -11 47
-16 56 -7 13 5 27 55 64 67 49 120 113 132 159 3 15 8 25 10 23 2 -2 6 -73 9
-158z m-1920 -62 c0 -237 16 -820 24 -917 11 -121 33 -233 61 -316 11 -31 20
-59 20 -61 0 -2 -20 10 -44 26 -64 45 -149 143 -189 219 -58 111 -72 184 -72
362 1 201 8 234 125 598 34 105 65 192 69 192 3 0 6 -46 6 -103z m2029 -394
c63 -227 73 -404 31 -551 -26 -89 -26 -88 -39 288 -4 107 -9 214 -11 238 -5
41 9 59 19 25z m-5906 -82 c114 -58 365 -128 593 -165 305 -49 533 -65 845
-60 309 5 538 28 731 74 47 11 89 20 94 20 10 0 13 -159 3 -185 -10 -24 -54
-43 -166 -70 -279 -66 -732 -94 -1155 -70 -361 20 -715 104 -938 224 -82 43
-90 51 -93 80 -3 26 12 96 33 159 6 16 9 15 53 -7z m5120 -132 c115 -12 199
-33 267 -67 122 -61 146 -97 153 -232 6 -120 -1 -160 -35 -200 -34 -41 -76
-61 -128 -63 -36 -2 -49 3 -74 27 -17 17 -31 35 -31 41 0 6 -10 21 -23 33 -21
20 -35 22 -180 25 -179 3 -178 4 -226 -72 -39 -61 -77 -76 -163 -67 -87 9
-151 45 -174 98 -23 54 -22 189 1 244 59 141 240 231 488 243 15 0 71 -4 125
-10z m3502 -220 c4 -74 4 -75 -67 -106 -229 -102 -462 -132 -1063 -138 -454
-5 -633 4 -920 46 -118 17 -124 22 -128 102 -2 37 1 67 6 67 4 0 53 -7 108
-15 261 -38 513 -50 1014 -49 430 0 554 8 743 45 117 24 198 52 252 89 45 31
51 27 55 -41z m-8510 -48 c0 -26 -38 -253 -44 -258 -3 -3 -48 12 -101 33 -83
33 -96 42 -92 59 2 11 17 76 32 145 l28 125 88 -44 c58 -28 89 -49 89 -60z
m370 -91 c19 -6 64 -15 100 -20 36 -6 89 -15 119 -21 l54 -11 -7 -111 c-4 -61
-10 -115 -13 -120 -11 -18 -277 14 -300 37 -4 3 7 256 11 256 1 0 17 -5 36
-10z m1705 -96 c6 -85 4 -108 -6 -115 -18 -12 -155 -55 -200 -64 l-36 -7 -6
78 c-10 116 -9 164 6 168 6 2 46 10 87 17 41 7 84 16 95 20 50 19 52 16 60
-97z m6807 40 c9 -3 30 -36 46 -77 54 -130 92 -371 92 -582 l0 -103 -37 -15
c-65 -26 -142 -46 -147 -39 -2 4 -7 68 -11 142 -8 186 -22 298 -51 413 -30
120 -49 169 -86 225 -15 24 -28 46 -28 49 0 6 195 -6 222 -13z m-7148 -106 c8
-132 4 -428 -5 -428 -4 0 -27 24 -53 54 -52 61 -53 70 -35 220 15 120 8 149
-44 187 -68 49 -67 56 16 67 128 17 114 28 121 -100z m1372 12 c130 -90 195
-130 359 -219 37 -21 55 -39 71 -72 23 -47 80 -265 88 -339 3 -25 10 -69 16
-98 28 -149 51 -622 29 -622 -5 0 -22 14 -37 32 -31 36 -113 91 -175 115 -54
22 -176 104 -177 119 0 6 14 44 30 84 97 235 132 585 64 641 -15 13 -19 -1
-29 -96 -16 -157 -65 -341 -139 -520 -18 -45 -29 -60 -43 -58 -10 1 -63 18
-118 37 -106 38 -151 44 -178 24 -21 -16 -13 -29 40 -58 36 -20 49 -37 25 -34
-18 2 -182 -70 -226 -99 -195 -130 -356 -413 -382 -673 -4 -35 -10 -64 -14
-64 -4 0 -34 33 -67 73 -149 179 -193 287 -201 489 -8 214 41 382 181 623 172
297 451 624 647 758 46 31 86 57 88 57 2 0 68 -45 148 -100z m5416 -5 l14
-105 -63 -30 c-34 -17 -76 -33 -91 -36 l-29 -6 -7 69 c-4 37 -10 87 -13 111
-4 32 -2 42 8 42 8 0 46 14 84 30 39 16 73 29 76 29 3 1 13 -46 21 -104z
m-7465 -12 c-18 -243 -29 -494 -23 -517 6 -25 57 -61 69 -49 4 3 13 0 22 -7
12 -10 15 -36 15 -121 l0 -109 -62 0 c-77 0 -240 19 -251 29 -6 6 3 247 17
451 3 36 8 143 12 238 l7 172 100 0 100 0 -6 -87z m383 65 c0 -34 13 -49 61
-72 30 -15 45 -29 50 -48 9 -34 5 -37 -69 -44 -76 -8 -137 11 -236 76 -70 46
-95 77 -81 100 4 6 61 10 141 10 132 0 134 0 134 -22z m7203 -25 c59 -110 107
-360 107 -558 0 -215 24 -291 91 -289 50 2 208 53 229 74 57 57 23 519 -56
744 -13 38 -22 71 -20 74 3 2 21 -4 41 -14 119 -56 158 -288 147 -855 l-2
-107 -41 -16 c-139 -56 -405 -121 -468 -114 l-32 3 1 285 c0 157 3 307 6 333
7 48 -21 394 -36 455 -12 46 3 40 33 -15z m-2004 -52 c5 -1 -8 -173 -13 -178
-1 -2 -54 0 -117 4 l-114 8 4 95 c2 52 5 98 7 101 2 3 54 -2 116 -12 62 -10
115 -18 117 -18z m1625 -8 c3 -27 8 -109 11 -183 12 -283 14 -301 45 -332 35
-34 48 -35 150 -2 45 14 84 23 86 21 7 -7 5 -371 -2 -454 -6 -65 -4 -74 17
-105 21 -29 24 -45 25 -134 1 -56 5 -107 9 -114 14 -22 49 -29 68 -12 14 12
17 32 17 114 0 97 1 99 26 108 14 6 27 10 30 10 2 0 4 -44 4 -97 0 -76 4 -100
17 -115 19 -21 58 -24 70 -5 4 6 10 62 13 122 5 104 6 110 27 113 22 3 22 1
25 -110 l3 -113 26 -3 c41 -5 56 29 64 149 6 95 14 118 37 119 4 0 9 -48 10
-106 2 -88 6 -109 20 -118 13 -8 22 -5 41 13 23 21 25 30 26 128 2 115 3 118
32 134 19 10 20 8 15 -43 -3 -29 -8 -107 -11 -173 -8 -197 -15 -345 -20 -425
-11 -186 -32 -592 -40 -795 -3 -77 -8 -169 -10 -205 -2 -36 -9 -189 -16 -340
-6 -151 -15 -280 -21 -287 -11 -14 -128 -60 -175 -69 l-33 -7 0 127 c0 169 3
166 -166 166 l-127 0 7 123 c3 67 10 219 16 337 11 237 14 291 30 555 6 99 13
185 15 191 2 6 42 30 90 53 109 53 188 125 183 167 -2 16 -10 30 -18 32 -8 1
-89 -35 -180 -80 l-165 -83 -6 -80 c-31 -385 -55 -802 -74 -1280 -2 -71 -8
-201 -11 -287 l-7 -158 -46 -29 c-86 -55 -224 -111 -208 -83 5 8 14 203 22
482 3 102 7 232 10 290 3 58 7 213 11 345 3 132 7 260 9 285 7 80 20 905 20
1261 0 279 -3 349 -14 362 -7 10 -17 17 -21 17 -28 0 -32 -77 -46 -905 -3
-192 -7 -381 -9 -420 -2 -38 -7 -187 -10 -330 -3 -143 -8 -314 -10 -380 -8
-245 -18 -641 -17 -661 2 -21 -1 -22 -106 -17 -127 4 -405 22 -408 26 -1 1 -4
189 -8 417 -3 228 -9 501 -12 606 l-7 191 44 7 c51 8 101 37 123 71 12 18 26
25 47 25 44 0 89 23 131 66 42 44 58 80 58 128 0 19 9 45 21 60 46 59 33 169
-28 237 -61 67 -210 157 -398 240 -49 21 -102 49 -117 62 l-28 22 40 59 c54
82 73 123 78 176 6 68 -14 128 -59 174 -38 38 -41 39 -94 33 -57 -6 -105 -29
-237 -114 -37 -24 -96 -56 -131 -72 l-63 -28 -36 29 c-42 33 -99 45 -253 53
-55 2 -134 7 -177 11 l-76 6 -5 31 c-2 18 -5 79 -6 136 l-2 103 53 -5 c167
-19 182 -19 216 3 l33 20 0 193 c-1 105 1 206 3 222 2 17 5 52 5 78 l1 49 103
-8 c56 -4 113 -8 127 -8 l25 -1 -3 -120 c-2 -66 -7 -160 -12 -210 -6 -49 -10
-117 -10 -151 0 -54 3 -63 31 -90 30 -29 31 -29 173 -32 151 -4 208 5 248 37
l23 19 0 265 c0 146 2 267 5 270 3 2 61 7 129 11 l124 7 -8 -193 c-14 -361
-15 -345 24 -380 l34 -30 101 6 c173 10 253 32 277 78 9 16 10 61 4 163 -4 77
-8 196 -9 265 l-1 125 55 11 c88 19 87 19 94 -33z m-234 -87 l0 -93 -37 -7
c-21 -3 -75 -6 -120 -6 l-83 0 -1 28 c0 15 -2 55 -5 89 l-6 61 89 7 c48 3 95
8 103 9 60 13 60 13 60 -88z m-8256 72 c19 -8 24 -17 21 -32 -6 -27 -35 -187
-35 -192 0 -3 -13 2 -30 11 -16 9 -30 21 -30 28 0 13 28 152 36 180 6 20 6 20
38 5z m7582 -40 c-2 -18 -4 -61 -5 -96 l-1 -64 -130 4 c-80 2 -133 7 -141 15
-8 8 -9 35 -4 92 l7 81 139 0 139 0 -4 -32z m-6187 -17 c20 -15 55 -39 78 -52
39 -22 43 -28 43 -62 0 -46 32 -144 70 -214 15 -29 25 -55 22 -58 -7 -7 -145
-6 -208 1 l-51 6 1 204 c1 112 3 204 5 204 2 0 20 -13 40 -29z m-1229 -22 c0
-22 -30 -181 -36 -191 -6 -9 -64 19 -64 30 0 16 32 187 36 193 8 13 64 -15 64
-32z m2159 -132 c2 -122 0 -128 -51 -141 -28 -6 -28 -6 -29 51 -5 187 -7 174
30 194 19 10 37 16 41 14 4 -2 8 -55 9 -118z m-1716 56 c32 -7 32 10 5 -176
l-12 -79 -40 7 c-23 3 -45 10 -50 15 -5 5 -1 57 8 122 9 62 16 117 16 122 0 4
10 5 23 2 12 -4 35 -9 50 -13z m1177 -13 c0 -33 -11 -38 -30 -15 -15 18 -6 45
15 45 10 0 15 -10 15 -30z m-154 12 c12 -4 50 -45 84 -92 160 -217 349 -418
472 -501 32 -22 58 -44 58 -49 0 -23 -33 -90 -45 -90 -17 0 -123 80 -198 149
-92 85 -323 344 -363 407 -36 56 -84 156 -84 174 0 11 43 12 76 2z m534 -95
c0 -67 -4 -107 -12 -115 -7 -7 -34 -12 -60 -12 l-48 0 0 109 0 110 38 4 c91 9
82 20 82 -96z m6614 22 c11 -108 8 -137 -14 -149 -26 -14 -27 -10 -34 107 -7
92 -4 100 30 102 6 1 14 -25 18 -60z m-7937 -56 c-3 -60 -8 -116 -12 -125 -6
-15 -20 -18 -72 -18 l-65 0 7 88 c3 48 8 104 11 125 l6 37 65 0 66 0 -6 -107z
m7815 -63 l3 -65 -30 0 -30 0 -3 97 c-3 94 -2 97 20 100 26 3 34 -20 40 -132z
m-4691 114 c85 -6 100 -10 159 -45 124 -74 119 -65 140 -224 71 -540 62 -1235
-36 -2485 -51 -665 -44 -607 -82 -617 -45 -13 -468 -9 -587 6 -236 28 -457 75
-644 137 -111 37 -132 48 -126 67 3 7 7 23 9 37 3 14 17 70 31 125 14 55 25
112 25 127 0 39 13 42 82 18 151 -52 257 -71 433 -77 152 -5 179 -3 254 15 45
12 120 41 165 64 70 37 84 49 103 88 37 75 85 383 99 637 7 131 7 132 33 138
46 11 70 45 97 133 16 52 32 85 42 89 36 13 83 56 103 95 18 36 21 55 17 147
-3 97 -6 112 -39 181 -44 93 -124 182 -190 212 -48 22 -49 24 -49 68 0 25 -3
88 -5 140 -2 52 -7 147 -10 210 -13 296 -59 527 -142 719 -5 10 -2 13 9 8 9
-3 58 -9 109 -13z m2715 -8 c0 0 -1 -45 -4 -99 l-4 -98 -37 3 -36 3 3 95 c2
52 6 99 9 103 4 6 64 0 69 -7z m-615 -53 c76 -181 204 -384 318 -505 19 -21
33 -39 30 -42 -2 -2 -30 -18 -61 -36 -64 -35 -121 -93 -116 -118 7 -37 53 -25
154 43 l98 66 76 -18 c41 -9 77 -18 79 -19 1 -2 -13 -29 -33 -62 -73 -117
-120 -274 -151 -502 -19 -141 -18 -254 4 -380 10 -58 17 -108 14 -112 -3 -6
-328 122 -381 151 -20 11 -22 19 -22 112 0 483 -107 1209 -177 1209 -18 0 -17
-16 28 -420 31 -281 44 -513 54 -910 3 -135 10 -319 15 -410 19 -338 30 -519
40 -649 6 -73 8 -141 5 -151 -5 -17 -57 -36 -114 -42 -19 -2 -25 2 -27 22 -1
14 -3 365 -5 780 -3 1010 -13 1389 -49 1775 l-9 100 42 35 c23 19 65 56 92 82
28 26 56 48 63 48 7 0 22 -21 33 -47z m783 25 c0 -10 -1 -56 -2 -103 l-2 -85
-35 0 c-34 0 -35 1 -36 43 -1 40 -1 159 1 165 0 2 17 2 38 0 28 -2 37 -7 36
-20z m1407 -25 c2 -75 1 -175 -3 -178 -2 -2 -21 -5 -42 -7 l-40 -3 -1 107 c-2
116 -3 114 58 117 25 1 27 -2 28 -36z m-178 -84 l-2 -104 -35 -6 c-20 -3 -38
-4 -41 -1 -3 3 -5 54 -5 114 l0 108 43 -4 42 -4 -2 -103z m-510 -110 c-4 -4
-29 -10 -55 -14 l-48 -7 0 110 0 111 53 3 52 3 3 -99 c1 -55 -1 -103 -5 -107z
m-188 134 c-13 -156 -11 -150 -53 -148 -36 2 -37 4 -40 46 -2 24 -1 72 3 107
l7 62 44 0 45 0 -6 -67z m-2807 -220 c46 -113 149 -223 269 -286 l64 -34 2
-236 c1 -152 -2 -237 -8 -238 -5 0 -43 -3 -82 -5 l-73 -5 0 28 c-1 95 -14 300
-19 322 -5 17 -26 36 -64 59 -107 62 -284 250 -293 310 -6 45 -24 220 -24 236
0 10 31 -2 103 -39 102 -54 102 -54 125 -112z m1186 50 c5 -43 18 -244 31
-468 22 -408 32 -1305 19 -1805 -10 -360 2 -397 118 -387 35 4 77 9 94 12 l31
7 2 -104 c2 -56 3 -116 4 -133 2 -36 -18 -48 -175 -100 -110 -36 -324 -83
-333 -73 -6 6 -7 276 -1 1518 2 487 1 973 -4 1080 -4 108 -9 239 -11 292 l-4
96 105 55 c58 30 108 55 112 56 3 0 9 -20 12 -46z m-3981 -121 c48 -53 89
-101 90 -107 2 -9 -137 -32 -205 -34 -27 -1 -28 0 -28 58 0 32 3 86 6 120 10
89 28 84 137 -37z m3040 34 c47 -14 142 -30 211 -37 l125 -12 -17 -30 c-23
-40 -133 -137 -155 -137 -42 0 -175 85 -230 147 -34 37 -77 103 -77 116 0 4
13 1 29 -8 16 -8 67 -26 114 -39z m617 -77 c0 -56 -3 -65 -45 -119 -24 -32
-84 -94 -132 -139 l-88 -80 -1 -58 c-6 -267 -6 -271 -28 -277 -12 -3 -47 -6
-78 -6 l-58 0 -1 38 c-7 178 -7 259 -2 335 l6 88 41 21 c51 26 144 118 184
183 31 50 32 50 109 65 43 9 81 14 86 12 4 -2 7 -30 7 -63z m2246 -136 c10
-40 -12 -111 -54 -172 -64 -92 -82 -125 -82 -150 0 -43 86 -114 207 -172 354
-170 413 -211 413 -288 l0 -31 -61 45 c-91 67 -255 140 -361 160 -21 4 -27 11
-30 36 -3 30 -4 29 -63 -46 -113 -145 -171 -241 -155 -260 6 -7 44 -15 86 -19
84 -8 243 -46 298 -73 56 -26 59 -77 7 -127 -23 -22 -39 -27 -107 -33 -167
-12 -434 30 -582 93 -90 38 -207 108 -231 138 -28 34 0 309 46 446 22 67 87
203 106 221 8 9 64 36 124 59 106 42 223 102 332 167 68 41 98 43 107 6z
m-6528 -28 c1 -1 -2 -22 -7 -46 -5 -24 -13 -86 -17 -138 l-7 -93 -45 6 c-25 3
-47 8 -50 11 -9 9 -5 102 8 188 l13 88 51 -6 c28 -4 52 -8 54 -10z m212 -126
c0 -66 -5 -129 -10 -140 -9 -16 -22 -19 -75 -19 -35 0 -66 4 -69 8 -3 5 0 65
6 135 l11 126 51 4 c28 2 59 4 69 5 15 2 17 -10 17 -119z m544 21 c4 -54 5
-109 1 -120 -7 -23 -42 -40 -81 -40 l-24 0 0 124 c0 137 -2 132 66 135 l31 1
7 -100z m2551 39 c53 -54 161 -129 185 -129 4 0 10 -81 12 -179 3 -175 4 -180
28 -206 l25 -28 210 7 c261 9 263 9 293 40 25 25 26 29 30 194 l5 170 48 37
c27 21 70 60 94 88 25 27 48 48 50 45 2 -2 7 -182 10 -400 l6 -396 -40 -4
c-37 -3 -42 -1 -63 32 -40 62 -71 70 -238 60 -80 -5 -193 -9 -252 -9 -105 -1
-108 -2 -142 -32 -19 -17 -40 -45 -47 -63 l-11 -32 -67 3 c-36 2 -95 8 -131
14 l-65 10 0 257 c0 141 -2 330 -5 420 -3 89 -3 162 0 162 3 0 32 -27 65 -61z
m-2732 -39 c-6 -153 -10 -170 -41 -171 -37 -2 -56 1 -66 11 -4 5 -5 62 -1 127
l7 118 52 0 52 0 -3 -85z m5325 3 l23 -6 -30 -31 c-111 -116 -173 -323 -187
-626 -7 -163 5 -289 41 -412 14 -50 18 -78 11 -78 -20 1 -169 37 -249 60 -92
27 -89 23 -111 173 -47 312 13 655 151 871 l44 69 142 -7 c78 -4 152 -10 165
-13z m-3666 -160 l91 -46 -59 -21 c-144 -53 -320 -192 -420 -332 -105 -147
-174 -350 -174 -516 0 -43 -3 -78 -7 -78 -11 0 -107 78 -152 124 l-44 45 13
113 c19 179 77 335 176 474 62 87 134 149 232 196 80 39 211 87 240 88 7 0 54
-21 104 -47z m258 -150 l41 -36 -71 -18 c-39 -10 -94 -31 -123 -46 -73 -40
-184 -155 -240 -251 -103 -175 -150 -345 -150 -544 0 -74 -3 -118 -10 -118 -5
0 -47 20 -92 45 l-82 45 -5 72 c-23 308 159 643 430 795 73 41 204 92 239 92
13 1 41 -15 63 -36z m341 -164 c96 -51 164 -141 193 -254 28 -104 15 -175 -37
-217 -25 -19 -37 -15 -37 14 0 12 -19 60 -41 107 -69 143 -214 268 -227 197
-2 -11 10 -33 30 -55 110 -116 178 -259 178 -373 0 -77 -60 -148 -124 -148
-23 0 -26 4 -26 33 0 117 -112 337 -172 337 -25 0 -23 -12 17 -96 74 -159 90
-252 57 -327 -17 -39 -26 -47 -56 -53 -20 -3 -51 -3 -70 0 -31 6 -38 14 -69
80 -19 40 -54 94 -78 118 l-44 46 -90 7 c-121 9 -165 21 -165 44 0 60 86 264
150 355 47 68 132 144 190 170 64 29 149 43 274 45 81 1 93 -2 147 -30z m3804
-99 c137 -43 284 -129 311 -182 24 -47 18 -78 -26 -120 -48 -45 -65 -48 -73
-10 -19 91 -204 190 -359 192 -21 0 -38 4 -38 9 0 8 24 46 72 113 10 15 24 25
31 23 7 -2 44 -13 82 -25z m-2501 -172 c19 -27 21 -198 6 -394 -11 -140 -21
-169 -64 -184 -27 -9 -305 -29 -422 -30 -74 0 -76 6 -75 176 2 225 12 386 26
414 13 25 13 25 181 28 93 2 171 6 173 8 2 2 39 4 82 4 69 0 80 -2 93 -22z
m164 -240 l-3 -173 -37 -3 -38 -3 0 169 c0 93 3 172 7 175 3 4 21 7 40 7 l33
0 -2 -172z m-868 133 l65 -6 -2 -145 c-1 -80 -5 -160 -8 -179 l-6 -34 -120 6
c-67 3 -123 7 -125 10 -3 3 -2 87 2 187 l7 182 61 -7 c34 -4 90 -10 126 -14z
m2488 -98 c34 -21 62 -40 62 -43 -1 -16 -103 -141 -113 -137 -17 5 -43 100
-50 181 l-6 68 22 -16 c12 -9 50 -33 85 -53z m272 -105 c47 -11 88 -24 93 -28
6 -5 -2 -245 -18 -520 -4 -82 -10 -187 -20 -402 -3 -57 -7 -175 -11 -263 -7
-188 -6 -188 -120 -235 -40 -16 -76 -30 -80 -30 -3 0 -3 56 0 124 4 69 4 140
1 159 l-7 35 -146 7 c-81 3 -178 10 -217 15 -38 6 -85 11 -104 12 -18 1 -35 7
-37 13 -1 5 -4 223 -6 483 -3 384 -1 471 10 467 52 -20 199 -48 257 -49 60 0
78 4 117 27 67 39 121 111 152 201 5 13 12 17 29 12 12 -4 60 -16 107 -28z
m362 -57 c7 -7 17 -440 20 -861 l1 -275 -44 -3 c-24 -2 -77 -1 -118 3 l-74 7
8 176 c3 98 8 202 10 232 2 30 6 206 10 390 4 184 9 338 11 342 5 8 166 -2
176 -11z m-4467 -1 c3 -5 33 -17 65 -26 33 -9 60 -19 60 -21 0 -15 -67 -97
-107 -133 l-48 -42 -5 43 c-9 78 0 189 15 189 8 0 16 -4 20 -10z m244 -94 c20
-32 20 -36 7 -137 -8 -57 -20 -169 -26 -249 -6 -80 -13 -158 -14 -175 -2 -23
-7 -30 -22 -28 -144 13 -480 70 -536 92 -24 9 -26 13 -18 43 5 18 16 91 24
162 9 71 18 131 20 133 2 3 23 -5 47 -17 73 -38 168 -70 205 -70 19 0 52 9 74
20 58 30 147 126 182 197 17 35 32 63 34 63 1 0 12 -15 23 -34z m1962 -58 c1
-13 1 -26 1 -29 -1 -3 -3 -204 -6 -445 -5 -337 -9 -441 -18 -446 -20 -12 -380
-66 -513 -78 -66 -6 -229 -13 -362 -17 l-242 -6 4 49 c3 27 12 132 20 234 13
165 20 263 41 585 7 119 6 116 51 110 21 -2 77 -7 125 -11 l87 -6 18 -36 c25
-51 71 -72 155 -72 37 0 69 -3 71 -7 2 -5 -2 -75 -10 -158 -10 -115 -11 -157
-2 -178 11 -26 13 -27 29 -12 19 17 31 86 47 265 l8 85 153 8 c184 9 204 16
237 90 12 29 25 60 28 69 5 15 23 22 65 27 6 0 13 -9 13 -21z m-1546 -110 c-3
-40 -15 -143 -26 -228 -12 -85 -25 -189 -30 -230 -18 -151 -26 -172 -84 -205
-51 -30 -157 -63 -215 -67 l-45 -3 3 55 c2 30 9 111 17 180 7 69 19 209 26
313 7 103 16 187 19 187 4 0 23 -6 42 -14 18 -8 61 -18 95 -21 77 -9 121 10
152 65 12 22 29 40 38 40 13 0 14 -11 8 -72z m-965 -431 c98 -28 252 -48 367
-48 61 1 119 4 128 7 15 6 17 1 12 -42 -4 -27 -9 -88 -12 -136 l-7 -87 -61 5
c-208 15 -451 78 -510 132 -17 15 -18 58 -1 142 1 8 3 23 3 34 1 10 6 16 14
13 6 -2 37 -11 67 -20z m6074 -333 c3 -9 3 -65 0 -126 l-7 -109 -108 5 c-60 2
-112 7 -116 9 -5 3 -7 57 -5 121 l3 116 114 0 c95 0 114 -3 119 -16z m-2234
-130 l61 -7 -3 -126 -3 -126 -69 2 c-43 2 -73 7 -78 15 -10 16 -11 242 -1 252
4 3 13 4 19 2 7 -3 40 -8 74 -12z m-1340 -61 c0 -27 2 -103 5 -169 l5 -122
-27 -7 c-84 -21 -535 13 -591 44 -15 8 -17 61 -7 151 1 14 3 32 4 42 1 17 18
20 156 33 106 10 278 36 360 54 44 10 83 19 88 20 4 0 7 -20 7 -46z m1647 37
l44 0 -7 -122 c-4 -68 -8 -124 -9 -126 -2 -3 -76 -5 -142 -3 l-53 1 0 131 0
132 61 -7 c34 -3 82 -6 106 -6z m-2616 -95 c3 -2 -2 -88 -11 -191 -14 -162
-18 -188 -35 -201 -104 -78 -310 -115 -635 -117 -243 -1 -332 12 -480 67 l-85
32 3 35 c1 19 4 36 6 38 2 2 53 -6 112 -17 166 -30 311 -43 509 -43 191 0 298
12 355 40 41 20 51 49 76 240 l17 122 82 0 c45 0 84 -2 86 -5z m3555 -30 c8
-2 10 -42 7 -132 l-4 -128 -86 3 c-48 2 -92 7 -98 12 -5 4 -9 31 -9 59 1 28 2
85 3 127 l1 75 88 -6 c48 -4 92 -8 98 -10z m324 -22 c5 -5 0 -246 -5 -252 -7
-6 -214 -3 -225 4 -6 4 -10 59 -10 135 l0 130 118 -6 c64 -4 119 -8 122 -11z
m-2524 -290 l-1 -48 -100 -7 c-222 -15 -428 -83 -408 -134 7 -20 31 -18 205
15 84 16 194 35 243 41 l90 13 80 -32 c166 -64 265 -155 259 -237 -2 -21 -7
-41 -11 -45 -19 -18 -141 -50 -225 -59 -330 -35 -888 36 -1099 139 l-54 26 3
180 c2 99 5 182 7 183 2 2 45 -4 97 -13 51 -9 150 -19 219 -22 160 -7 489 13
599 35 47 10 87 17 91 16 3 -2 5 -24 5 -51z m-2532 -178 c155 -63 208 -70 511
-70 293 1 401 13 540 61 39 13 74 25 80 26 7 3 9 -141 1 -149 -1 -1 -24 5 -51
13 -69 22 -290 30 -411 15 -191 -24 -394 -83 -394 -116 0 -31 26 -33 148 -9
190 36 272 43 477 39 254 -5 245 -3 274 -78 13 -33 24 -77 25 -96 1 -33 -3
-38 -46 -59 -173 -86 -712 -61 -1041 50 -152 50 -267 118 -267 156 0 15 61
252 64 252 1 0 42 -16 90 -35z"/>
<path d="M1530 8149 c-58 -3 -115 -11 -127 -17 -42 -23 -38 -108 6 -131 24
-13 419 -14 474 -2 45 11 66 35 67 74 0 35 -40 76 -77 79 -65 4 -246 3 -343
-3z"/>
<path d="M2312 8138 c-36 -39 -28 -118 14 -137 31 -14 398 -15 424 -1 19 10
40 59 40 95 0 47 -21 52 -245 59 l-210 7 -23 -23z"/>
<path d="M1613 7900 c-47 -29 -67 -73 -67 -155 -1 -114 49 -174 136 -162 72
10 111 67 111 162 0 74 -23 127 -68 155 -41 25 -71 25 -112 0z"/>
<path d="M7152 7904 c-18 -12 -22 -25 -22 -67 0 -31 6 -62 15 -74 16 -22 17
-22 243 -17 262 7 264 8 266 89 1 38 -4 50 -23 66 -21 17 -41 19 -240 19 -180
0 -220 -3 -239 -16z"/>
<path d="M8066 7905 c-8 -8 -18 -24 -21 -36 -9 -27 2 -84 18 -97 6 -5 128 -12
269 -15 282 -7 280 -8 293 53 7 34 -1 67 -23 93 -14 15 -40 17 -268 17 -212 0
-255 -2 -268 -15z"/>
<path d="M7313 7660 c-38 -23 -63 -68 -67 -118 -2 -37 -2 -37 -56 -44 -68 -8
-109 -47 -111 -106 -6 -145 9 -635 20 -671 6 -18 22 -49 37 -68 17 -22 27 -50
29 -77 1 -23 10 -56 18 -73 40 -77 120 -93 462 -92 285 1 330 7 419 59 92 52
99 64 106 193 14 236 -10 709 -45 876 -21 99 -10 96 -277 99 -187 3 -245 0
-305 -13 -75 -17 -75 -17 -90 5 -15 22 -70 50 -95 50 -7 0 -27 -9 -45 -20z
m742 -122 c18 -83 37 -496 33 -732 l-3 -219 -80 -41 -80 -41 -274 -3 c-285 -4
-339 1 -379 38 -11 10 -19 30 -18 47 l1 28 310 0 c228 1 316 4 332 13 41 23
53 63 52 169 -1 142 -9 187 -35 191 -36 5 -43 -18 -46 -154 l-3 -129 -165 0
-165 0 -5 120 c-5 118 -5 120 -29 123 -41 6 -51 -20 -51 -135 l0 -103 -125 0
c-168 0 -159 -14 -163 263 l-4 208 54 -3 53 -3 -3 -75 c-3 -62 0 -80 15 -99
16 -19 22 -21 46 -12 25 10 27 15 29 68 4 182 -10 203 -143 203 l-49 0 0 74
c0 53 4 75 13 79 8 3 90 11 184 18 133 9 202 10 318 0 82 -6 153 -15 159 -20
17 -14 20 -121 4 -122 -7 -1 -48 -2 -90 -3 -70 -1 -81 -4 -104 -28 -30 -29
-43 -83 -44 -179 0 -69 10 -89 45 -89 37 0 45 20 45 106 0 55 4 85 13 92 7 6
51 12 97 14 84 3 84 3 108 38 23 33 24 41 18 134 -3 54 -10 104 -16 110 -12
16 -214 39 -342 40 -53 0 -95 3 -92 5 20 20 123 30 336 30 l238 1 5 -22z"/>
<path d="M8282 7634 c-90 -46 -103 -236 -21 -297 31 -22 85 -25 125 -5 79 38
90 226 17 291 -30 26 -82 31 -121 11z"/>
<path d="M5320 7378 c-312 -22 -570 -47 -590 -58 -50 -27 -67 -139 -27 -185
17 -20 37 -28 92 -36 39 -6 71 -12 73 -14 1 -1 -11 -17 -29 -36 -71 -76 -104
-201 -87 -332 20 -160 178 -294 357 -305 90 -5 131 5 211 54 122 73 207 193
217 310 10 112 -30 239 -97 313 -17 18 -30 35 -28 36 2 2 23 6 48 10 54 7 111
22 127 33 42 27 38 149 -7 194 -31 30 -43 31 -260 16z m-4 -274 c41 -20 96
-79 125 -136 16 -31 24 -67 27 -126 4 -80 3 -86 -32 -157 -74 -150 -229 -230
-378 -195 -68 16 -100 33 -149 77 -50 45 -64 71 -79 151 -14 70 -2 159 30 222
25 49 101 117 157 141 90 38 242 50 299 23z"/>
<path d="M5198 6923 c-119 -74 -72 -293 62 -293 68 0 116 52 123 134 6 67 -7
113 -39 147 -23 24 -36 29 -73 29 -25 0 -58 -8 -73 -17z"/>
<path d="M4820 6374 c0 -15 66 -63 117 -86 67 -31 181 -31 243 -1 93 45 107
76 23 52 -99 -29 -238 -15 -365 36 -10 4 -18 3 -18 -1z"/>
<path d="M5485 5690 c-118 -30 -176 -78 -144 -116 15 -18 53 -15 119 12 31 12
82 19 167 22 105 3 131 1 185 -17 72 -25 91 -26 107 -7 17 20 -19 59 -77 84
-101 44 -243 53 -357 22z"/>
<path d="M7607 3943 c-16 -16 -13 -19 50 -45 87 -37 124 -66 170 -133 43 -62
63 -69 63 -25 0 50 -24 93 -79 142 -75 68 -169 96 -204 61z"/>
<path d="M5354 3455 c-18 -18 -22 -37 -27 -143 -7 -125 -1 -165 28 -176 9 -3
81 -6 160 -6 132 0 145 2 155 19 5 11 10 82 10 159 0 182 7 175 -172 170 -118
-3 -135 -5 -154 -23z m252 -132 c-3 -38 -6 -78 -6 -90 0 -22 -3 -23 -96 -23
l-97 0 7 82 c4 44 9 85 12 90 3 4 46 8 96 8 l90 0 -6 -67z"/>
<path d="M1165 3623 c-13 -30 -34 -733 -34 -1164 -1 -322 2 -409 12 -423 13
-18 15 -17 34 7 18 23 21 46 26 204 7 196 11 686 10 1087 -1 189 -4 265 -14
282 -15 29 -24 30 -34 7z"/>
</g>
</svg>
