<?xml version="1.0" standalone="no"?>
<!DOCTYPE svg PUBLIC "-//W3C//DTD SVG 20010904//EN"
 "http://www.w3.org/TR/2001/REC-SVG-20010904/DTD/svg10.dtd">
<svg version="1.0" xmlns="http://www.w3.org/2000/svg"
 width="1024.000000pt" height="1024.000000pt" viewBox="0 0 1024.000000 1024.000000"
 preserveAspectRatio="xMidYMid meet">
<metadata>
Created by potrace 1.16, written by Peter Selinger 2001-2019
</metadata>
<g transform="translate(0.000000,1024.000000) scale(0.100000,-0.100000)"
fill="#000000" stroke="none">
<path d="M5880 9394 c-8 -2 -94 -8 -190 -14 -222 -14 -694 -55 -915 -80 -93
-11 -271 -30 -395 -44 -124 -14 -259 -30 -300 -35 -41 -6 -145 -17 -230 -26
-85 -8 -175 -19 -200 -25 -25 -5 -67 -12 -95 -15 -183 -19 -521 -67 -536 -76
-49 -26 -56 -61 -74 -399 -3 -63 -10 -194 -15 -290 -6 -96 -13 -421 -17 -722
-3 -302 -8 -548 -10 -548 -3 0 -68 38 -146 84 -78 46 -177 103 -221 126 l-78
43 -122 -6 c-66 -4 -132 -9 -146 -11 -14 -2 -63 -7 -110 -10 -137 -11 -715
-73 -1015 -111 -22 -2 -116 -14 -210 -25 -93 -11 -204 -24 -245 -30 -41 -5
-118 -15 -170 -21 -111 -13 -136 -26 -149 -76 -5 -21 -13 -171 -16 -333 -4
-162 -8 -329 -10 -370 -1 -41 -6 -406 -10 -810 -9 -817 -12 -778 57 -813 18
-9 141 -57 273 -106 132 -49 293 -110 358 -135 l117 -45 313 14 c171 8 373 17
447 20 250 10 512 25 965 55 l160 11 155 -63 155 -63 522 3 521 3 7 -40 c4
-22 4 -45 0 -51 -4 -6 -122 -10 -345 -10 -315 0 -349 -2 -487 -25 -176 -30
-203 -38 -233 -70 -29 -31 -29 -61 5 -391 20 -203 30 -264 44 -284 17 -23 25
-25 132 -31 63 -4 267 -7 454 -8 187 -1 367 -4 400 -6 33 -2 75 -4 93 -4 21
-1 32 -6 32 -15 0 -13 -50 -14 -358 -9 l-358 6 -95 -37 c-51 -21 -125 -50
-163 -65 -41 -16 -77 -37 -89 -53 -22 -29 -26 16 38 -433 31 -220 31 -217 53
-245 16 -19 32 -23 132 -30 63 -5 185 -11 270 -14 151 -6 225 -9 535 -22 83
-3 152 -8 154 -10 2 -2 28 -147 57 -323 28 -175 55 -330 59 -342 22 -68 266
-383 664 -854 155 -184 174 -204 200 -214 28 -12 686 -30 755 -21 26 3 45 13
57 30 18 24 67 195 132 462 l31 127 -119 178 c-65 98 -162 239 -215 313 -53
74 -124 176 -158 225 l-62 90 -24 135 c-13 74 -25 142 -27 150 -3 13 32 15
269 17 273 1 273 1 311 26 75 50 229 179 233 195 4 18 -16 385 -29 536 -13
140 24 130 -489 134 -382 2 -425 4 -422 18 3 15 35 16 291 15 l288 -2 72 41
c102 57 106 60 161 105 l49 39 -6 314 c-5 221 -11 322 -20 341 -24 51 -53 54
-494 52 l-403 -3 0 60 c0 34 3 63 8 65 4 3 167 8 362 11 195 4 432 11 525 16
94 5 287 12 430 16 325 8 347 11 355 44 7 32 30 35 315 44 116 4 239 9 275 11
113 7 260 15 405 20 77 3 174 8 215 10 41 3 183 9 315 15 1039 44 960 37 989
83 18 27 28 129 56 617 11 190 22 386 25 435 12 204 35 1008 35 1245 l0 255
-172 169 c-242 236 -453 416 -487 416 -25 -1 -85 -6 -496 -44 -93 -9 -201 -20
-240 -26 -38 -5 -151 -17 -250 -25 -99 -9 -191 -18 -205 -20 -14 -2 -81 -9
-150 -15 -69 -6 -165 -15 -215 -20 -49 -5 -180 -19 -290 -30 -267 -27 -294
-30 -495 -55 -63 -8 -128 -15 -144 -15 l-29 0 7 223 c3 122 11 317 16 432 5
116 10 220 10 232 1 63 -500 556 -799 786 -63 49 -79 57 -115 56 -22 -1 -48
-3 -56 -5z m11 -161 c2 -189 -2 -952 -6 -1138 -12 -483 -25 -998 -30 -1145 -3
-85 -8 -234 -10 -330 -3 -96 -8 -215 -10 -265 l-4 -90 -38 -6 c-21 -4 -96 -10
-168 -13 -71 -4 -200 -11 -285 -16 -85 -6 -328 -19 -540 -30 -212 -11 -504
-27 -650 -35 -146 -8 -312 -17 -370 -20 -161 -9 -271 -16 -315 -20 -22 -2
-103 -7 -180 -10 -77 -3 -170 -8 -207 -11 -61 -5 -68 -3 -78 16 -8 15 -10 87
-6 243 3 122 8 515 11 872 8 945 35 1729 61 1755 6 6 44 14 85 20 124 16 720
88 789 95 106 10 144 15 365 40 22 3 110 14 195 24 85 11 259 29 385 40 127
12 280 26 340 31 103 10 264 23 465 37 47 3 87 7 89 9 2 2 28 4 58 4 l53 0 1
-57z m299 -137 c58 -49 207 -192 333 -317 l227 -228 0 -73 c0 -40 -5 -237 -12
-437 l-12 -364 -33 -20 c-64 -38 -69 -62 -78 -384 -4 -117 -8 -227 -10 -245
-2 -18 -6 -125 -9 -238 -4 -113 -8 -263 -11 -335 -3 -71 -7 -222 -11 -335 -3
-113 -7 -206 -8 -208 -2 -1 -44 21 -95 48 -51 28 -186 98 -299 155 -114 58
-217 113 -228 122 -21 18 -21 21 -14 248 11 294 19 553 25 780 3 99 7 250 10
335 3 85 8 272 12 415 3 143 7 271 8 285 2 14 3 236 4 493 l1 468 47 -38 c27
-21 95 -78 153 -127z m3082 -1456 c-4 -287 -22 -982 -26 -1020 -3 -19 -7 -199
-11 -400 -4 -201 -8 -401 -10 -445 -2 -44 -6 -192 -10 -330 -4 -137 -10 -253
-13 -256 -4 -4 -86 -10 -182 -13 -96 -4 -319 -13 -495 -21 -176 -8 -383 -17
-460 -20 -77 -3 -160 -8 -185 -10 -114 -10 -856 -52 -1072 -61 l-158 -7 0 394
c0 453 19 1171 40 1554 13 239 19 368 20 455 0 41 4 81 8 87 8 12 61 21 252
43 52 6 131 15 175 20 105 12 339 36 550 55 94 9 253 25 355 36 221 23 217 23
450 44 25 2 92 9 150 14 58 6 188 18 290 27 102 8 212 19 245 24 98 13 90 28
87 -170z m442 -174 l189 -181 -7 -485 c-4 -267 -9 -507 -11 -535 -2 -27 -6
-131 -10 -230 -8 -235 -47 -962 -60 -1110 -2 -24 -8 -39 -15 -37 -6 1 -42 20
-78 40 -172 98 -341 197 -377 221 l-40 27 0 144 c0 145 12 688 20 875 2 55 7
226 10 380 3 154 8 345 10 425 2 80 7 285 11 455 3 171 8 313 11 317 6 11 132
-100 347 -306z m-7318 -653 c-3 -252 -9 -564 -11 -693 -16 -714 -27 -1125 -30
-1131 -11 -16 -564 -54 -1240 -84 -187 -9 -405 -19 -485 -23 -80 -4 -179 -7
-220 -7 l-75 0 0 265 c-1 611 28 1897 42 1911 5 5 103 20 218 34 116 14 255
32 310 40 241 36 1289 140 1444 144 l54 1 -7 -457z m274 330 c80 -47 167 -99
193 -116 l49 -30 -3 -456 c-3 -405 -1 -459 13 -486 24 -45 57 -71 131 -105
l67 -30 0 -48 c0 -26 -4 -119 -10 -207 -5 -88 -10 -184 -11 -213 -2 -29 -7
-56 -12 -59 -6 -3 -57 -9 -113 -13 -88 -5 -107 -10 -128 -29 -27 -25 -32 -59
-42 -306 -6 -169 -10 -215 -18 -223 -3 -3 -59 18 -123 47 -65 29 -140 63 -167
75 l-49 21 7 235 c9 365 36 1805 36 2009 0 42 -5 44 180 -66z m3485 -1123
c260 -133 323 -171 283 -167 -11 2 -153 -12 -198 -18 -8 -1 -150 -15 -315 -30
l-300 -28 -55 33 c-30 18 -111 64 -180 103 -147 82 -163 85 -375 68 -161 -14
-352 -27 -510 -35 -282 -16 -287 -17 -293 -120 l-4 -66 -52 0 c-49 0 -190 -7
-306 -14 -47 -3 -71 3 -175 46 -66 27 -190 78 -275 113 -85 35 -180 75 -210
89 l-55 25 85 2 c47 1 90 3 95 4 6 1 84 5 175 9 91 4 192 9 225 11 33 2 110 7
170 10 221 11 321 16 365 20 25 2 106 7 180 10 169 8 801 44 895 51 82 6 466
31 510 32 20 1 123 -46 320 -148z m-983 -708 l3 -574 32 -26 c72 -61 128 -94
211 -126 48 -19 108 -44 135 -56 l47 -21 0 -64 0 -63 -72 -27 c-196 -73 -193
-71 -190 -182 7 -222 41 -605 56 -627 13 -21 25 -24 127 -30 62 -4 117 -10
121 -12 4 -3 8 -18 8 -34 0 -26 -9 -33 -106 -82 -59 -29 -113 -63 -121 -74
-12 -19 -11 -50 12 -245 14 -123 31 -271 37 -329 16 -146 21 -150 170 -150 62
0 118 -4 125 -8 6 -4 23 -73 38 -152 14 -80 32 -164 40 -187 7 -23 94 -156
193 -295 98 -139 216 -309 262 -377 l83 -123 -52 -216 c-28 -119 -55 -220 -59
-224 -9 -9 -242 268 -427 506 -78 101 -230 294 -316 402 -11 14 -27 133 -79
593 -22 200 -43 374 -45 385 -3 12 -21 192 -40 401 -42 446 -48 531 -85 1036
-6 78 -13 146 -16 150 -9 15 -51 10 -64 -6 -10 -12 -11 -47 -7 -143 12 -230
60 -811 93 -1117 2 -27 12 -115 20 -195 21 -205 62 -588 74 -695 5 -49 19
-152 31 -228 11 -76 18 -141 15 -144 -2 -3 -132 0 -288 6 -156 6 -313 11 -350
11 -66 0 -66 0 -77 33 -18 53 -161 999 -200 1322 -6 44 -17 136 -26 205 -9 69
-25 199 -35 290 -11 91 -26 224 -34 295 -18 150 -61 643 -76 855 -5 80 -12
174 -15 210 -14 166 -25 407 -25 526 l0 132 53 6 c28 3 135 11 237 17 102 6
271 16 375 23 105 7 193 10 197 7 3 -3 8 -264 10 -579z m-1777 493 c88 -37
185 -77 215 -90 30 -12 77 -32 104 -44 48 -21 55 -21 270 -12 122 5 223 7 226
4 3 -2 5 -53 5 -111 l0 -107 -135 -6 c-74 -4 -216 -9 -315 -13 -99 -3 -211 -8
-250 -11 -38 -3 -119 -7 -180 -10 -60 -4 -119 -7 -130 -8 -12 -1 -20 4 -20 13
0 31 16 308 21 388 4 56 10 82 18 78 6 -2 83 -35 171 -71z m2063 -36 l113 -64
-3 -110 -4 -110 -104 -8 c-58 -5 -111 -13 -117 -19 -19 -15 -16 -42 6 -62 20
-18 1 -18 376 -1 671 31 815 37 829 32 14 -6 16 -31 16 -194 0 -209 9 -247 73
-296 32 -24 160 -87 178 -87 5 0 9 -3 9 -7 0 -5 -30 -8 -67 -8 -88 0 -584 -15
-643 -20 -57 -4 -656 -20 -769 -20 -82 0 -84 1 -87 25 -7 54 -17 1029 -10
1045 5 15 10 15 49 -7 23 -14 93 -54 155 -89z m1110 -116 l-3 -128 -245 -11
c-135 -7 -341 -15 -459 -19 l-214 -8 8 99 c4 55 8 100 10 102 3 3 164 19 760
73 66 6 122 13 124 15 17 16 21 -12 19 -123z m-2333 -420 c4 -65 13 -197 20
-293 7 -96 12 -176 11 -177 0 -1 -215 -4 -476 -8 -261 -4 -477 -9 -480 -11
-13 -6 -418 -7 -429 0 -6 4 -10 15 -7 24 3 10 8 80 11 157 7 163 22 355 27
360 4 5 1106 61 1244 64 l72 1 7 -117z m5241 -270 c123 -71 224 -131 224 -135
0 -5 -21 -8 -47 -8 -52 0 -477 -16 -638 -25 -55 -2 -156 -7 -225 -10 -69 -3
-267 -12 -440 -20 -173 -7 -385 -16 -470 -20 -147 -5 -215 -8 -457 -20 -58 -3
-110 -1 -120 4 -10 6 -49 24 -88 41 -38 18 -115 53 -170 79 -55 26 -135 62
-177 81 -42 19 -75 37 -72 39 2 2 30 6 62 7 31 2 190 10 352 19 162 8 369 20
460 25 91 5 244 12 340 16 96 3 177 8 180 9 3 2 104 6 225 10 121 4 222 9 225
10 3 2 102 6 220 10 118 4 217 9 219 11 2 2 42 4 89 4 l85 0 223 -127z m-6897
-158 c94 -41 174 -75 179 -75 14 0 28 -21 36 -52 6 -26 4 -27 -46 -32 -29 -3
-107 -8 -173 -11 -66 -3 -205 -9 -310 -15 -418 -22 -800 -40 -995 -46 l-205
-6 -200 75 c-110 41 -237 88 -282 104 -46 15 -83 31 -83 34 0 3 93 9 208 13
199 7 571 25 907 45 88 6 279 17 425 26 146 8 276 17 290 19 47 7 80 -3 249
-79z m4508 -81 c54 -26 108 -49 120 -53 48 -13 24 -24 -57 -27 -246 -7 -586
-15 -1025 -25 -269 -6 -493 -13 -497 -15 -4 -3 -58 15 -120 39 -62 25 -122 47
-132 51 -10 4 -17 8 -15 10 2 2 137 6 299 10 162 4 329 9 370 11 41 2 185 6
320 10 417 9 594 17 610 26 22 12 20 13 127 -37z m-2802 -109 c4 -36 5 -68 2
-71 -3 -3 -225 -8 -494 -11 l-489 -6 -130 50 c-71 28 -137 53 -146 56 -39 14
-14 22 59 20 60 -2 787 14 1145 26 l46 1 7 -65z m2105 -311 c0 -3 -21 -14 -46
-26 -45 -19 -58 -20 -408 -14 -198 4 -365 7 -371 7 -5 0 1 6 15 12 17 8 145
14 405 17 209 3 386 7 393 8 6 1 12 -1 12 -4z m-2755 -44 c3 -5 1 -10 -4 -10
-6 0 -11 5 -11 10 0 6 2 10 4 10 3 0 8 -4 11 -10z m675 0 c0 -6 -113 -10 -319
-10 -203 0 -322 4 -326 10 -4 7 105 10 319 10 211 0 326 -4 326 -10z m2205
-270 c8 -303 17 -270 -93 -334 -35 -20 -65 -36 -66 -36 -2 0 -6 73 -10 163 -3
89 -9 214 -12 278 l-6 116 53 26 c30 14 68 34 84 45 17 11 33 17 36 13 4 -3
10 -125 14 -271z m-2652 181 l463 -1 28 -262 c16 -145 31 -269 34 -277 5 -12
-44 -13 -349 -8 -195 4 -425 7 -512 7 -154 0 -158 1 -167 23 -5 12 -19 114
-30 227 -11 113 -23 224 -26 247 -6 38 -4 42 17 45 13 2 36 2 52 2 15 -1 235
-2 490 -3z m2376 -7 c5 -5 21 -324 24 -479 l2 -90 -220 -2 c-121 -2 -301 0
-400 5 l-180 7 -7 80 c-17 178 -37 478 -34 484 5 7 808 2 815 -5z m-1828 -760
c5 -3 9 -19 9 -36 l0 -31 -297 8 c-164 4 -323 9 -353 10 -30 2 -93 3 -139 4
-46 0 -81 4 -77 8 4 4 33 18 64 30 57 23 60 23 420 18 200 -3 368 -7 373 -11z
m2059 -21 c0 -5 -22 -21 -49 -36 l-50 -28 -375 1 c-207 1 -376 5 -376 9 0 4
19 16 43 27 38 17 80 19 417 24 206 3 378 7 383 8 4 1 7 -1 7 -5z m113 -170
c4 -71 10 -183 13 -251 7 -119 6 -123 -17 -148 -38 -41 -129 -107 -136 -100
-4 4 -14 120 -23 259 -15 250 -15 252 5 269 45 39 130 98 141 98 7 0 13 -44
17 -127z m-2718 52 c344 -7 565 -17 570 -25 2 -3 18 -112 34 -241 17 -129 33
-249 37 -268 l5 -34 -118 6 c-65 4 -264 11 -443 17 -423 13 -449 16 -459 43
-5 12 -16 76 -25 142 -9 66 -25 172 -34 236 -10 64 -16 122 -14 128 3 8 31 10
100 7 54 -3 210 -8 347 -11z m2447 -44 c8 -7 23 -196 34 -409 l6 -143 -288 3
c-159 1 -336 5 -394 8 l-105 5 -7 54 c-20 139 -56 486 -52 493 6 10 795 -1
806 -11z m-1069 -1357 c125 -5 213 -11 221 -18 7 -6 58 -67 112 -136 54 -69
132 -168 174 -220 42 -52 107 -135 145 -185 38 -49 121 -151 183 -225 l113
-135 -128 -3 c-70 -2 -218 0 -328 3 l-200 7 -132 152 c-73 83 -142 165 -154
181 -13 17 -48 59 -79 95 -31 36 -126 153 -212 260 -85 107 -162 201 -171 209
-37 30 -19 34 116 28 72 -4 225 -10 340 -13z"/>
<path d="M4474 8415 c-14 -22 -16 -45 -12 -161 6 -163 18 -183 95 -159 l23 7
-17 -38 c-31 -74 -11 -457 33 -603 23 -80 14 -79 349 -46 126 13 271 25 345
30 286 19 325 30 342 91 32 113 40 155 53 279 9 82 13 192 10 265 -3 99 -1
129 10 147 17 26 24 138 9 153 -12 12 -590 -53 -764 -85 -104 -19 -384 -55
-395 -51 -10 4 -15 30 -17 98 -3 87 -4 93 -25 96 -15 2 -27 -5 -39 -23z m1124
-391 c4 -232 -26 -444 -66 -459 -30 -11 -671 -65 -783 -65 -45 0 -58 4 -64 18
-21 51 -36 166 -41 327 -6 198 0 228 46 233 14 1 93 11 175 22 355 46 408 52
555 69 85 10 160 17 165 16 6 -1 11 -65 13 -161z"/>
<path d="M5004 8016 c-68 -30 -104 -118 -99 -243 6 -150 65 -213 179 -192 83
15 128 79 134 193 9 150 -49 256 -141 256 -23 -1 -56 -7 -73 -14z"/>
<path d="M4146 8354 c-12 -11 -16 -35 -16 -86 l0 -71 -142 7 c-79 3 -300 9
-492 13 -332 6 -350 5 -362 -12 -18 -25 -18 -87 1 -131 10 -26 12 -42 4 -61
-26 -70 -20 -352 13 -528 13 -71 41 -130 67 -145 25 -13 149 -13 438 0 310 15
412 24 429 42 44 43 100 409 87 569 -5 73 -5 77 22 103 l27 27 -4 129 c-4 128
-13 160 -44 160 -7 0 -20 -7 -28 -16z m-79 -336 c16 -13 18 -228 3 -331 -13
-87 -38 -198 -49 -216 -12 -19 -305 -39 -561 -37 l-195 1 -19 75 c-16 62 -19
113 -20 285 -1 116 3 219 7 229 7 19 20 19 414 12 266 -4 412 -11 420 -18z"/>
<path d="M3790 7923 c-27 -10 -71 -57 -93 -98 -31 -60 -29 -186 4 -246 29 -53
76 -79 141 -79 90 0 138 76 138 219 0 89 -22 147 -67 179 -31 22 -97 36 -123
25z"/>
<path d="M5183 7168 c-154 -11 -355 -28 -518 -44 -82 -8 -204 -19 -270 -24
-190 -15 -676 -58 -844 -74 -158 -16 -190 -26 -211 -67 -7 -12 -14 -104 -17
-219 l-5 -198 26 -17 c24 -16 44 -17 174 -11 81 3 203 9 272 12 69 3 202 9
295 15 225 13 490 25 940 44 403 18 395 16 414 79 5 17 12 117 15 223 l6 192
-31 36 c-40 45 -80 66 -118 63 -17 -2 -74 -6 -128 -10z m139 -120 c2 -18 1
-105 -2 -193 l-5 -160 -70 -6 c-38 -3 -148 -9 -244 -13 l-173 -7 7 178 c5 146
10 180 23 191 9 6 45 12 81 13 36 0 129 7 206 14 77 7 148 13 157 14 12 1 18
-8 20 -31z m-567 -45 c-2 -16 -7 -95 -10 -178 -3 -82 -9 -153 -13 -156 -4 -4
-74 -9 -157 -13 -82 -3 -219 -9 -302 -13 l-153 -6 0 170 0 171 48 6 c26 3 126
13 222 21 96 8 191 16 210 18 19 2 63 5 97 5 l63 2 -5 -27z m-720 -155 c4 -68
5 -143 3 -168 l-3 -45 -85 -6 c-47 -4 -151 -10 -233 -13 l-147 -7 1 160 c0 89
3 161 7 162 210 20 385 37 413 38 l37 1 7 -122z"/>
<path d="M8870 7164 c-316 -30 -708 -73 -737 -79 -48 -11 -56 -43 -61 -238 -5
-203 16 -445 45 -537 27 -84 31 -85 302 -70 256 14 242 13 451 30 174 14 197
20 209 53 21 56 39 285 46 593 5 202 4 213 -16 238 -24 30 -31 31 -239 10z
m170 -186 c0 -139 -18 -471 -29 -536 -4 -29 -12 -57 -17 -62 -17 -17 -442 -45
-674 -45 l-115 0 -18 85 c-14 64 -19 144 -23 327 -2 135 0 244 5 247 16 10
708 80 839 85 l32 1 0 -102z"/>
<path d="M8411 6778 c-55 -37 -74 -79 -79 -173 -5 -97 7 -140 49 -181 26 -25
38 -29 82 -28 105 1 154 58 164 189 7 87 -14 160 -54 189 -15 11 -49 21 -77
24 -41 3 -58 -1 -85 -20z"/>
<path d="M7639 7036 c-2 -3 -40 -8 -84 -11 -44 -3 -156 -13 -250 -20 -93 -8
-237 -20 -320 -26 -183 -13 -186 -15 -197 -121 -16 -160 5 -588 33 -660 6 -15
23 -31 37 -36 43 -15 758 19 809 39 12 4 26 17 32 27 16 31 30 256 33 525 2
271 2 269 -57 281 -17 4 -33 5 -36 2z m10 -273 c-3 -190 -13 -391 -24 -444
l-7 -35 -206 -14 c-114 -8 -274 -14 -356 -14 l-149 -1 -8 28 c-23 86 -40 510
-23 574 7 25 26 29 194 38 94 5 297 20 390 28 19 2 70 5 113 5 l78 2 -2 -167z"/>
<path d="M7384 6680 c-100 -40 -129 -259 -45 -335 16 -13 41 -20 85 -23 59 -4
65 -2 99 28 42 37 57 79 57 168 0 75 -26 134 -70 157 -31 16 -92 19 -126 5z"/>
<path d="M8035 5905 c-915 -69 -875 -65 -940 -94 -86 -39 -115 -102 -115 -254
0 -84 15 -139 48 -174 l24 -26 176 7 c98 3 211 8 252 11 503 34 818 53 980 60
296 13 389 22 414 38 34 23 49 99 45 228 -4 91 -8 110 -32 151 -44 76 -82 88
-263 87 -82 -1 -347 -16 -589 -34z m740 -78 c54 -31 65 -57 65 -158 0 -123 5
-120 -181 -129 -218 -12 -343 -19 -509 -30 -80 -5 -275 -17 -435 -25 -159 -9
-364 -20 -455 -25 -91 -5 -168 -6 -171 -2 -27 30 -37 139 -18 189 29 76 85 97
304 113 432 30 575 40 620 45 28 3 122 10 210 15 88 6 194 15 235 19 41 4 125
8 185 9 98 2 114 0 150 -21z"/>
<path d="M2139 6666 c-2 -2 -89 -11 -194 -20 -104 -9 -228 -21 -275 -26 -47
-5 -110 -12 -141 -15 -91 -10 -94 -16 -94 -214 0 -336 26 -503 81 -517 14 -4
147 1 297 10 365 22 414 27 433 41 27 19 34 94 41 412 4 235 3 306 -7 318 -9
10 -31 15 -75 15 -34 0 -64 -2 -66 -4z m71 -273 c0 -187 -14 -371 -28 -384 -6
-6 -249 -26 -544 -46 -76 -5 -78 -5 -87 20 -17 43 -31 220 -31 378 0 173 -21
152 165 169 66 6 143 14 170 17 59 7 300 30 333 32 l22 1 0 -187z"/>
<path d="M1904 6341 c-39 -24 -54 -65 -54 -148 0 -105 37 -163 106 -163 91 0
135 51 141 164 7 114 -32 166 -122 166 -22 0 -54 -9 -71 -19z"/>
<path d="M1045 6560 c-33 -5 -91 -11 -130 -14 -197 -17 -404 -37 -432 -41 -54
-9 -58 -28 -57 -240 0 -227 19 -406 45 -438 15 -19 26 -22 81 -20 250 7 543
30 581 45 15 6 29 20 32 32 17 78 25 208 25 409 0 298 6 286 -145 267z m57
-320 c-5 -283 -8 -301 -47 -311 -41 -10 -502 -32 -513 -25 -16 10 -33 224 -30
370 l3 140 29 7 c15 4 125 15 245 24 119 9 221 18 226 20 6 2 28 3 50 2 l40
-2 -3 -225z"/>
<path d="M933 6273 c-99 -19 -129 -232 -43 -308 16 -14 36 -20 71 -20 41 0 53
5 79 31 74 73 61 233 -22 284 -33 20 -43 21 -85 13z"/>
<path d="M1580 5613 c-390 -19 -562 -42 -724 -99 -91 -32 -144 -63 -193 -117
-79 -86 -106 -226 -52 -270 21 -17 35 -18 129 -13 58 4 123 9 145 11 39 5 582
28 965 41 262 9 278 18 246 143 -22 84 -47 131 -103 186 -91 91 -218 128 -413
118z m237 -113 c32 -11 73 -33 93 -48 44 -36 89 -107 96 -154 l6 -35 -193 -7
c-251 -8 -401 -15 -629 -27 -102 -5 -234 -11 -295 -14 -60 -3 -137 -8 -169
-11 l-59 -5 6 38 c14 85 103 158 245 203 141 44 424 76 700 79 119 1 152 -2
199 -19z"/>
</g>
</svg>
