<?xml version="1.0" standalone="no"?>
<!DOCTYPE svg PUBLIC "-//W3C//DTD SVG 20010904//EN"
 "http://www.w3.org/TR/2001/REC-SVG-20010904/DTD/svg10.dtd">
<svg version="1.0" xmlns="http://www.w3.org/2000/svg"
 width="1024.000000pt" height="1024.000000pt" viewBox="0 0 1024.000000 1024.000000"
 preserveAspectRatio="xMidYMid meet">
<metadata>
Created by potrace 1.16, written by Peter Selinger 2001-2019
</metadata>
<g transform="translate(0.000000,1024.000000) scale(0.100000,-0.100000)"
fill="#000000" stroke="none">
<path d="M5085 9785 c-755 -143 -1111 -210 -1220 -230 -176 -33 -351 -72 -373
-84 -9 -5 -26 -19 -37 -31 -18 -20 -20 -42 -27 -308 -10 -430 -15 -1260 -9
-1489 5 -164 9 -205 22 -218 8 -8 62 -26 120 -40 57 -14 122 -30 145 -36 l41
-11 7 -186 c4 -102 12 -194 17 -204 14 -26 51 -43 189 -82 67 -20 124 -37 126
-39 5 -5 -239 -183 -362 -263 l-117 -78 -266 -73 c-146 -40 -411 -109 -589
-153 -178 -44 -332 -85 -343 -90 -10 -6 -26 -24 -34 -40 -21 -41 -53 -249 -66
-443 -15 -212 -9 -239 59 -269 26 -12 81 -40 123 -64 63 -37 84 -44 125 -43
108 2 130 26 140 146 l7 83 82 -79 c76 -73 89 -82 165 -105 56 -18 87 -23 98
-17 9 5 69 87 132 181 l115 173 295 107 c162 58 311 115 330 125 37 19 270
192 385 285 39 31 101 80 139 109 77 57 86 56 86 -16 0 -33 5 -46 23 -57 20
-13 132 -42 368 -96 l95 -22 10 -124 c8 -95 14 -128 27 -142 12 -11 58 -24
140 -37 l122 -20 3 -39 c2 -21 0 -42 -5 -46 -4 -5 -73 8 -152 27 -169 42 -142
45 -426 -42 -112 -34 -199 -66 -212 -78 -17 -15 -23 -32 -23 -62 0 -23 -3 -63
-6 -87 l-6 -46 -217 -42 c-119 -24 -230 -49 -247 -55 -26 -11 -36 -25 -59 -86
-39 -104 -94 -211 -104 -204 -21 13 -520 125 -556 125 -22 0 -69 -9 -105 -20
-36 -11 -254 -75 -485 -141 -797 -228 -898 -260 -936 -298 l-26 -27 -7 -293
c-5 -162 -10 -299 -12 -305 -3 -6 -60 -54 -127 -106 -330 -256 -921 -757 -946
-802 -21 -37 -10 -57 138 -256 66 -89 121 -164 121 -166 0 -2 -43 -57 -95
-122 -53 -64 -98 -128 -101 -141 -9 -36 15 -64 151 -174 83 -68 122 -106 116
-113 -47 -60 -196 -267 -208 -290 -26 -49 -10 -89 57 -145 75 -62 228 -169
300 -209 68 -37 229 -100 279 -108 46 -7 43 -11 178 206 230 367 569 900 582
913 4 4 106 -26 227 -67 345 -118 1124 -336 1201 -336 58 0 85 12 276 117 179
99 436 235 834 441 l233 121 131 -59 c190 -86 179 -86 301 0 57 40 108 74 114
77 7 2 62 -16 122 -41 61 -25 121 -46 134 -46 13 1 52 18 88 40 35 22 65 38
66 37 1 -1 10 -137 18 -302 9 -165 20 -381 26 -480 5 -99 17 -315 25 -480 27
-514 55 -972 61 -1005 4 -17 16 -37 28 -45 35 -22 166 -35 362 -35 l184 0 70
38 c84 44 194 126 224 165 l20 27 -68 548 c-37 301 -101 817 -142 1147 -41
330 -74 610 -74 621 0 17 5 20 26 16 14 -2 31 -14 39 -26 7 -11 63 -145 125
-296 62 -151 157 -383 212 -515 55 -132 156 -375 223 -540 120 -293 286 -682
340 -798 41 -88 49 -91 190 -67 171 30 283 58 342 85 56 25 243 193 262 235
17 37 -3 86 -204 510 -54 113 -135 286 -180 385 -46 99 -125 268 -175 375 -50
107 -122 265 -160 350 -37 85 -134 297 -215 470 -165 353 -187 401 -182 406 1
2 22 -21 45 -51 39 -50 589 -713 792 -955 49 -58 187 -225 307 -371 353 -431
493 -589 521 -589 13 0 89 44 175 102 120 81 181 131 290 238 109 108 137 141
137 163 0 19 -21 51 -79 114 -43 49 -154 176 -247 284 -93 107 -221 254 -284
325 -214 239 -260 291 -606 699 -61 72 -155 183 -208 249 l-98 119 99 51 c194
102 457 250 473 266 13 13 19 43 23 121 21 332 28 483 37 844 6 220 13 453 17
517 7 132 -3 170 -46 192 -14 7 -84 27 -156 45 -350 84 -921 216 -1193 276
l-302 67 -78 -24 c-42 -14 -113 -39 -158 -56 l-81 -30 -17 176 c-9 97 -13 178
-9 180 4 1 35 17 68 35 41 22 63 40 69 60 7 18 6 98 -2 229 -10 175 -14 204
-30 221 -14 14 -64 26 -198 49 -171 29 -193 34 -183 42 2 1 146 56 319 120
173 65 349 134 390 154 113 56 107 31 125 518 8 225 17 456 19 514 10 195 19
906 13 932 -16 61 -75 75 -682 162 -719 104 -1282 176 -1351 175 -27 0 -103
-11 -169 -24z m585 -116 c477 -60 1340 -184 1374 -197 21 -9 -162 -55 -679
-172 -170 -39 -337 -77 -370 -85 -33 -8 -154 -35 -270 -61 -205 -46 -212 -46
-280 -34 -38 6 -452 76 -920 155 -467 78 -843 145 -835 148 22 9 538 110 805
157 127 23 322 59 433 81 339 66 285 65 742 8z m1529 -601 c-4 -189 -9 -426
-13 -528 -20 -553 -26 -715 -32 -814 l-6 -108 -82 -38 c-44 -21 -223 -90 -396
-154 -640 -235 -1105 -403 -1109 -400 -5 4 -1 1986 4 1995 3 3 17 9 32 12 73
15 805 182 1018 231 132 31 314 76 405 100 91 24 170 45 175 45 7 1 8 -115 4
-341z m-3369 227 c146 -24 351 -58 455 -75 312 -49 1159 -190 1178 -196 16 -5
17 -61 17 -1001 0 -991 0 -995 -20 -990 -11 3 -83 18 -160 34 -123 24 -142 26
-150 13 -5 -8 -10 -62 -11 -120 0 -110 -8 -232 -14 -239 -7 -6 -250 51 -264
62 -11 9 -12 41 -6 168 9 214 30 196 -285 253 -416 76 -430 78 -446 65 -11 -9
-14 -47 -14 -180 0 -137 -3 -169 -14 -169 -31 0 -221 61 -235 75 -13 13 -17
51 -21 205 -5 173 -7 190 -25 204 -10 7 -79 29 -153 47 -74 19 -139 37 -145
41 -9 6 -11 193 -8 745 1 406 4 749 6 763 2 14 4 98 4 188 l1 162 23 -5 c12
-2 141 -25 287 -50z m627 -2149 c148 -30 281 -58 296 -61 l27 -7 0 -150 c0
-138 -1 -149 -17 -144 -36 10 -525 106 -543 106 -40 0 -51 27 -46 114 2 44 5
107 5 139 1 31 3 57 5 57 3 0 126 -24 273 -54z m2048 -14 l140 -27 -50 -31
c-28 -17 -93 -54 -146 -83 l-97 -51 -148 25 c-82 14 -162 25 -178 25 -42 0
-31 8 129 94 100 54 150 75 175 75 19 0 98 -12 175 -27z m250 -292 l7 -109
-162 -81 c-89 -45 -163 -80 -164 -78 -1 2 -13 68 -26 147 -23 139 -23 144 -5
155 10 6 89 50 174 98 l156 86 6 -55 c4 -30 10 -104 14 -163z m-1388 126 c44
-11 48 -15 51 -46 8 -80 -1 -92 -104 -149 -52 -29 -98 -51 -101 -47 -7 7 -5
166 3 224 l7 44 47 -7 c27 -4 70 -12 97 -19z m344 -57 l176 -32 7 -66 c3 -36
6 -90 6 -119 0 -49 -1 -52 -22 -47 -13 2 -117 21 -233 40 -115 20 -216 38
-223 40 -9 3 -2 15 21 37 31 30 35 40 41 106 7 65 9 72 29 72 12 0 101 -14
198 -31z m469 -16 c68 -13 126 -25 128 -27 4 -4 52 -264 52 -283 0 -7 -10 -13
-22 -13 -24 0 -341 60 -347 65 -3 4 -30 248 -31 282 0 15 44 10 220 -24z
m-1838 -121 c76 -16 140 -31 143 -34 8 -7 -27 -34 -296 -230 l-227 -165 -115
56 c-64 31 -116 58 -116 61 -1 3 11 13 27 22 43 26 395 278 417 299 11 10 22
19 25 19 3 0 67 -13 142 -28z m1018 -89 c0 -27 28 -551 36 -681 l7 -113 -34 5
c-19 3 -66 10 -104 16 -39 6 -75 14 -81 18 -10 6 -55 576 -54 676 0 27 2 28
35 22 29 -6 47 0 107 33 83 46 88 48 88 24z m-795 -104 c4 -55 6 -101 4 -103
-41 -30 -380 -294 -449 -350 l-95 -76 -12 76 c-7 42 -13 94 -15 115 l-3 38
275 200 c151 110 278 200 281 201 4 0 10 -45 14 -101z m2070 -296 c48 -535 55
-618 55 -643 0 -26 -105 -167 -113 -152 -22 37 -66 212 -71 287 -6 79 -58 577
-70 662 -4 31 -2 33 82 77 48 24 88 43 90 41 2 -2 14 -124 27 -272z m-1771
222 c107 -25 196 -45 199 -45 7 0 14 -51 23 -162 5 -75 5 -78 -16 -78 -19 0
-242 51 -356 81 l-42 11 -11 74 c-14 95 -14 164 0 164 6 0 97 -20 203 -45z
m1415 -11 c41 -8 76 -16 79 -18 3 -4 62 -516 77 -674 6 -58 4 -71 -6 -68 -8 3
-60 19 -115 36 l-102 30 -6 43 c-7 48 -66 643 -66 663 0 14 5 14 139 -12z
m-2484 -152 c46 -24 73 -43 65 -46 -8 -2 -64 -18 -125 -36 -60 -17 -197 -58
-302 -92 l-193 -61 -126 58 -126 59 284 78 c156 42 306 84 333 91 57 16 61 15
190 -51z m1895 24 l175 -31 9 -128 c5 -70 6 -131 2 -134 -5 -5 -416 73 -422
80 -1 1 -4 59 -7 130 l-6 127 37 -6 c20 -3 116 -20 212 -38z m383 -3 c4 -27
10 -85 13 -129 l7 -82 -67 -37 c-37 -20 -69 -35 -71 -33 -2 2 -7 62 -11 133
l-6 130 58 31 c33 17 62 32 65 33 4 0 9 -20 12 -46z m1288 -177 c178 -41 495
-115 704 -164 209 -50 409 -97 445 -105 60 -13 63 -15 40 -25 -14 -5 -149 -61
-300 -124 -151 -63 -503 -206 -782 -318 l-507 -204 -155 42 c-85 23 -167 47
-181 52 -26 10 -26 10 -9 39 9 16 48 68 86 116 68 86 68 87 68 148 -1 34 -9
163 -19 287 -10 124 -17 226 -16 228 3 4 287 101 296 102 3 0 151 -33 330 -74z
m-3421 -62 c7 -66 9 -119 4 -124 -9 -9 -54 -26 -382 -146 -112 -41 -207 -74
-212 -74 -9 0 -23 58 -40 160 -6 36 -13 72 -16 81 -4 13 17 24 98 53 137 49
499 164 519 165 14 1 19 -19 29 -115z m-914 -6 c86 -39 158 -77 161 -85 3 -7
-12 -46 -32 -86 -45 -86 -153 -265 -165 -272 -5 -3 -35 5 -66 18 l-57 24 27
18 c26 17 128 195 141 245 4 18 0 34 -15 53 -28 35 -77 36 -230 2 l-112 -25
-85 46 c-46 26 -82 49 -79 51 4 5 326 80 348 82 4 1 78 -31 164 -71z m-493
-105 c45 -31 83 -57 84 -58 1 0 -7 -31 -18 -67 -28 -94 -59 -272 -59 -339 0
-31 -3 -70 -6 -87 l-6 -31 -71 35 -70 36 7 161 c7 188 36 407 52 407 3 0 42
-26 87 -57z m3582 -88 l7 -110 -37 -35 -38 -35 7 144 c5 115 10 149 23 164 16
17 17 17 24 0 3 -10 10 -67 14 -128z m-532 117 l88 -18 -100 -51 -101 -52 0
47 c0 26 -3 57 -6 70 -8 27 -1 27 119 4z m402 -209 l-7 -168 -64 -65 c-35 -35
-67 -61 -71 -56 -4 4 -10 106 -11 227 l-4 220 49 -6 c26 -4 59 -2 73 4 14 5
29 10 33 10 5 1 5 -74 2 -166z m-3045 146 c0 -20 -63 -130 -90 -158 -14 -14
-39 -33 -55 -42 -43 -22 -125 -215 -125 -293 0 -68 -7 -86 -33 -86 -19 0 -20
4 -14 118 6 110 51 399 66 414 6 7 202 54 234 57 9 0 17 -4 17 -10z m315 -143
l17 -104 -83 -130 c-46 -72 -86 -131 -89 -131 -3 0 -20 32 -38 72 l-33 73 91
147 c50 82 94 155 97 163 12 31 20 10 38 -90z m5391 -133 c-8 -186 -14 -377
-21 -658 -5 -184 -33 -698 -38 -701 -138 -85 -559 -307 -565 -297 -16 23 -349
430 -373 455 -48 49 -58 48 -352 -47 -150 -48 -278 -90 -284 -92 -10 -4 -13
81 -13 405 l0 410 123 50 c67 28 336 136 597 242 701 282 836 337 878 359 20
11 41 20 46 21 5 0 6 -63 2 -147z m-2348 -4 c56 -18 102 -36 102 -39 0 -12
-425 -490 -436 -490 -2 0 -50 18 -106 41 -57 23 -114 45 -127 51 -24 9 -14 20
210 244 129 129 239 233 244 230 6 -2 56 -18 113 -37z m-1093 -30 c88 -19 140
-37 133 -44 -12 -13 -326 -125 -349 -125 -23 0 -220 68 -258 89 -8 5 15 16 65
30 44 11 120 34 169 51 97 31 100 31 240 -1z m-2271 -73 c32 -17 45 -33 67
-86 15 -36 26 -67 24 -69 -17 -16 -165 113 -196 171 -10 18 -7 19 28 12 21 -3
56 -16 77 -28z m3586 -117 l23 -57 -106 -137 c-149 -193 -321 -404 -329 -405
-4 0 -12 19 -18 41 -6 23 -24 75 -40 117 l-29 75 42 47 c23 26 123 136 222
244 l179 197 17 -33 c9 -18 26 -58 39 -89z m-1722 -4 c81 -31 150 -59 154 -63
3 -4 10 -29 13 -56 7 -47 7 -48 -16 -41 -13 3 -90 27 -171 52 l-148 46 0 59
c0 35 4 58 11 58 6 0 77 -25 157 -55z m515 -135 c133 -33 249 -63 257 -66 10
-4 -35 -54 -150 -165 l-165 -160 -95 33 -95 33 -6 50 c-4 28 -10 114 -14 193
-7 129 -6 142 9 142 9 0 126 -27 259 -60z m-603 -32 l125 -42 -215 -53 c-118
-29 -223 -53 -233 -53 -17 0 -193 95 -202 110 -4 7 327 77 375 79 14 1 81 -18
150 -41z m2030 -85 c91 -25 171 -51 178 -56 9 -7 12 -93 11 -381 0 -204 -4
-389 -8 -411 -6 -39 -8 -40 -76 -63 -39 -12 -81 -20 -94 -17 -22 6 -23 9 -17
68 10 108 21 380 18 432 -2 28 -9 56 -17 64 -7 7 -48 26 -91 41 l-79 28 -3
171 c-1 94 1 171 5 171 4 0 82 -21 173 -47z m-2485 -79 c39 -20 72 -39 74 -40
5 -4 -30 -144 -36 -144 -12 0 -267 61 -271 65 -2 2 11 41 31 87 19 46 37 91
41 101 6 18 9 17 49 -6 23 -14 74 -42 112 -63z m719 15 c6 -65 8 -139 3 -139
-2 0 -91 -30 -198 -66 l-194 -66 -97 23 c-54 12 -102 26 -108 29 -13 8 14 117
34 137 11 11 493 140 532 142 19 1 22 -6 28 -60z m808 4 c70 -27 128 -50 128
-53 0 -4 -50 -61 -201 -226 l-37 -42 -139 55 c-76 30 -140 57 -142 59 -4 4
250 253 259 254 3 0 62 -21 132 -47z m697 -125 l0 -153 -140 -110 c-77 -60
-143 -111 -148 -113 -5 -2 9 50 30 115 22 65 43 129 48 143 7 22 197 270 207
270 2 0 4 -69 3 -152z m-2817 -23 c358 -82 869 -208 1153 -284 194 -52 217
-60 193 -69 -14 -6 -118 -42 -230 -81 -111 -38 -372 -131 -578 -206 -206 -75
-392 -140 -413 -144 -40 -9 -137 14 -747 179 -272 74 -749 201 -923 247 -54
15 -94 30 -90 34 8 7 396 122 963 286 162 47 306 89 320 93 44 14 64 11 352
-55z m2326 8 c6 -16 23 -70 37 -121 l27 -93 -49 -57 c-26 -31 -103 -113 -170
-182 l-122 -125 -1 168 0 167 128 134 c70 74 130 134 133 135 4 0 11 -11 17
-26z m-848 -121 l115 -39 7 -39 c4 -21 7 -98 7 -169 1 -157 5 -164 105 -210
l72 -33 -32 -193 c-17 -107 -34 -215 -38 -241 l-7 -46 -84 -36 c-46 -20 -92
-39 -101 -43 -15 -6 -16 26 -9 418 7 406 6 425 -11 441 -17 14 -197 74 -379
124 l-59 17 119 43 c66 23 134 43 150 43 17 1 82 -16 145 -37z m400 -80 l95
-38 3 -182 c2 -137 -1 -182 -10 -182 -6 0 -72 29 -145 65 l-133 65 0 174 0
174 48 -18 c26 -10 90 -36 142 -58z m1034 -4 c-78 -23 -80 -23 -42 11 29 26
35 27 66 17 l35 -10 -59 -18z m-454 -100 c-26 -67 -36 -131 -110 -647 -33
-234 -65 -430 -70 -436 -11 -14 -149 -79 -155 -74 -2 2 8 65 21 139 13 74 51
295 84 490 34 195 64 364 69 375 8 18 169 205 177 205 2 0 -5 -24 -16 -52z
m546 -153 c-4 -113 -9 -212 -12 -219 -3 -8 -44 -28 -92 -45 -144 -52 -174 -71
-199 -123 l-23 -47 -47 5 c-29 4 -76 -1 -117 -10 -38 -9 -71 -14 -73 -12 -5 5
44 392 53 416 3 8 47 42 97 76 75 49 114 67 212 97 66 19 138 42 160 50 22 8
42 15 44 16 2 0 1 -91 -3 -204z m-4166 -96 c267 -72 544 -146 615 -165 72 -20
231 -62 355 -95 123 -33 228 -63 232 -65 9 -6 11 -357 2 -402 l-6 -30 -57 19
c-114 40 -518 159 -538 159 -11 0 -25 -6 -30 -12 -21 -27 -33 -470 -14 -506
12 -23 120 -64 419 -159 l214 -68 -6 -325 c-4 -179 -9 -379 -12 -446 l-6 -121
-140 34 c-468 112 -1347 395 -1602 515 l-88 42 6 206 c12 353 28 754 46 1165
6 116 10 258 10 316 l0 106 58 -19 c31 -10 275 -77 542 -149z m2599 -336 c-2
-263 -6 -509 -9 -548 l-5 -70 -94 -65 c-71 -49 -97 -72 -102 -94 -13 -48 -40
-274 -42 -349 -2 -62 0 -71 22 -88 14 -12 20 -23 15 -28 -10 -10 -175 -98
-574 -306 -135 -71 -313 -166 -397 -212 -140 -77 -181 -95 -170 -75 3 4 8 192
12 417 4 226 11 416 15 424 4 8 81 50 171 95 119 59 167 88 176 106 18 35 18
491 1 508 -21 21 -49 13 -195 -52 l-143 -64 0 203 0 203 93 36 c50 19 148 55
217 80 69 24 289 102 490 174 201 71 397 141 435 155 39 14 74 25 79 26 4 1 7
-214 5 -476z m726 86 c-25 -145 -59 -349 -77 -454 -17 -104 -34 -193 -37 -197
-6 -7 -144 40 -259 87 l-43 18 6 46 c13 91 108 646 112 651 2 2 34 -7 72 -20
40 -14 77 -21 92 -17 13 3 58 40 98 81 41 42 76 74 78 72 2 -1 -17 -121 -42
-267z m1861 96 c54 -69 99 -130 99 -137 0 -11 -197 -118 -216 -118 -10 0 -189
234 -186 243 3 11 180 135 193 136 6 1 55 -55 110 -124z m-296 90 c0 -14 -105
-60 -241 -104 -170 -56 -172 -56 -167 -39 3 9 247 97 406 147 1 1 2 -1 2 -4z
m-175 -235 c-25 -50 -50 -88 -55 -85 -11 7 -52 116 -46 122 6 6 127 52 139 52
4 1 -13 -40 -38 -89z m-531 45 c23 -10 64 -15 109 -14 63 1 137 -14 126 -25
-2 -3 -50 -22 -105 -45 l-101 -40 -92 40 c-50 21 -96 39 -101 39 -42 0 67 58
111 59 9 1 33 -6 53 -14z m736 -97 c46 -62 83 -118 84 -125 1 -7 -35 -58 -79
-113 l-80 -101 -53 58 c-30 32 -63 77 -73 100 l-19 42 62 125 c34 70 65 126
69 126 3 0 44 -50 89 -112z m-867 -34 c121 -52 117 -46 78 -135 -18 -40 -20
-41 -20 -16 -1 36 -20 53 -118 106 -76 42 -80 46 -70 68 5 13 13 23 16 23 3 0
55 -21 114 -46z m563 -127 c34 -75 53 -132 48 -137 -5 -5 -65 -24 -134 -43
l-125 -34 -71 141 c-40 78 -71 142 -69 144 1 1 62 25 136 51 l134 49 12 -21
c7 -12 38 -80 69 -150z m805 72 c35 -42 146 -172 246 -290 100 -118 252 -297
337 -399 l156 -185 -122 -59 -122 -59 -26 30 c-14 16 -90 106 -170 199 -249
289 -600 711 -600 720 0 10 220 124 231 121 4 -1 35 -36 70 -78z m-1556 -11
c47 -23 85 -45 85 -49 0 -4 -42 -12 -92 -18 -51 -7 -109 -16 -130 -20 -34 -8
-39 -6 -79 35 -27 28 -40 47 -34 53 6 6 44 16 85 24 41 8 76 16 77 16 2 1 41
-18 88 -41z m-4580 -265 l-7 -208 -41 -39 c-23 -21 -87 -78 -143 -127 l-101
-88 -96 140 -96 139 102 84 c273 225 373 304 380 305 4 1 5 -92 2 -206z m5011
39 l43 -92 -73 -88 c-90 -108 -102 -118 -110 -97 -3 9 -11 67 -17 130 l-11
115 31 74 c17 40 36 87 42 102 l11 29 20 -40 c12 -22 41 -82 64 -133z m-676
98 c0 -10 -72 -141 -76 -137 -2 2 3 41 11 88 8 46 15 85 15 87 0 5 49 -33 50
-38z m1752 -328 c163 -196 338 -406 388 -465 49 -59 90 -111 90 -115 0 -4 -29
-42 -64 -85 -36 -42 -73 -89 -84 -104 l-19 -26 -89 108 c-49 59 -227 274 -396
478 l-306 370 81 98 c45 54 87 98 92 98 6 0 144 -161 307 -357z m-1341 326 c0
-7 8 -91 17 -186 16 -156 16 -174 2 -181 -8 -5 -81 -11 -161 -14 l-145 -6 -19
175 c-10 96 -16 176 -14 178 2 1 72 12 154 23 83 12 153 21 158 22 4 0 7 -5 8
-11z m-1181 -65 c0 -9 -5 -45 -11 -79 l-11 -63 -69 -46 c-39 -25 -75 -48 -82
-51 -9 -3 -11 19 -9 89 l3 94 82 36 c95 42 97 42 97 20z m815 -268 l7 -100
-71 -75 -70 -75 -1 132 c0 111 3 137 19 165 10 18 36 65 57 103 l39 70 7 -60
c3 -33 9 -105 13 -160z m-2110 13 c-4 -123 -11 -197 -19 -205 -10 -10 -180
-90 -244 -114 l-23 -9 2 143 c2 78 5 172 7 209 l4 67 49 16 c27 9 87 32 132
50 45 19 86 34 90 35 5 0 6 -87 2 -192z m3191 81 c23 -52 114 -254 204 -449
176 -387 236 -527 228 -535 -10 -10 -253 -63 -260 -56 -4 3 -50 103 -103 221
-54 118 -160 354 -237 524 -77 169 -136 312 -131 316 11 11 235 80 248 76 5
-1 28 -45 51 -97z m-3646 20 l100 -31 0 -207 0 -208 -115 36 -115 35 0 209 c0
184 2 208 15 203 9 -3 60 -20 115 -37z m-336 -15 c33 -32 33 -106 0 -152 -21
-31 -64 -26 -81 8 -18 35 -16 111 3 138 18 26 56 29 78 6z m3819 -484 c175
-393 257 -583 257 -593 0 -12 -180 -197 -192 -197 -4 0 -15 14 -23 30 -20 39
-241 570 -340 818 l-77 193 38 47 c21 26 58 71 83 101 l46 55 53 -115 c30 -63
99 -215 155 -339z m-1602 396 c52 -19 116 -44 143 -56 l49 -22 -26 -22 c-83
-70 -294 -243 -303 -249 -7 -4 -56 13 -110 37 -55 24 -127 54 -161 66 -35 12
-63 25 -63 29 0 3 24 23 53 43 28 20 106 75 172 122 66 47 127 85 136 86 9 0
59 -15 110 -34z m468 -183 l1 -122 -32 -22 c-18 -13 -107 -78 -198 -144 -91
-67 -207 -151 -257 -188 l-93 -67 0 155 0 154 128 102 c70 56 161 131 203 166
49 40 105 75 155 97 78 33 79 33 86 12 3 -12 6 -76 7 -143z m-4614 0 c53 -75
94 -142 93 -148 -3 -10 -298 -285 -376 -350 l-34 -28 -24 29 c-58 71 -185 254
-182 262 1 5 73 69 158 143 85 73 180 155 209 181 30 26 56 48 57 48 2 0 46
-62 99 -137z m5254 -70 c7 -70 34 -310 60 -532 l47 -404 -159 5 c-87 3 -162 9
-167 14 -14 15 -119 1008 -107 1020 7 7 126 18 243 22 l70 3 13 -128z m-4823
-39 l-6 -147 -57 -76 c-31 -42 -60 -79 -63 -84 -4 -4 -62 19 -129 51 l-123 58
188 172 c104 94 191 172 193 172 2 0 1 -66 -3 -146z m4468 -369 c26 -247 49
-465 53 -483 5 -30 -1 -39 -93 -132 -53 -55 -99 -98 -101 -97 -3 3 -24 369
-44 773 l-12 242 69 80 c38 44 72 77 75 74 4 -4 27 -209 53 -457z m-936 81 c2
-115 -1 -166 -8 -166 -7 0 -89 36 -183 80 l-172 79 -3 38 c-4 37 16 251 24
265 2 3 80 -24 172 -62 l167 -68 3 -166z m1405 223 c18 -50 17 -73 -3 -53 -12
12 -30 104 -21 104 3 0 14 -23 24 -51z m-741 -155 l3 -92 -71 -46 c-39 -25
-77 -46 -85 -46 -20 1 -148 53 -151 63 -4 10 286 226 294 218 3 -3 8 -47 10
-97z m2965 -201 c245 -277 267 -303 262 -307 -18 -17 -226 -146 -235 -146 -11
0 -475 549 -482 570 -3 9 210 117 234 119 6 1 106 -106 221 -236z m-7477 107
c25 -10 67 -28 93 -39 l48 -21 -118 -154 c-65 -84 -170 -221 -233 -304 -63
-83 -117 -151 -120 -151 -9 -1 -235 179 -238 190 -5 12 261 329 400 476 l49
53 37 -16 c20 -9 57 -24 82 -34z m315 -157 c4 -17 28 -34 85 -63 44 -22 80
-43 80 -46 0 -3 -40 -60 -88 -127 -49 -67 -107 -150 -131 -184 -23 -35 -47
-63 -54 -63 -18 1 -262 176 -262 189 0 6 81 117 180 247 l180 236 3 -83 c1
-46 4 -94 7 -106z m6881 -163 c124 -151 228 -280 231 -287 5 -13 -37 -78 -110
-170 l-49 -61 -239 290 c-131 159 -239 293 -239 296 0 4 36 50 80 102 44 52
80 98 80 103 0 22 35 -17 246 -273z m-6558 2 l72 -28 -128 -194 c-70 -107
-141 -216 -157 -242 -17 -27 -33 -48 -36 -48 -9 0 -114 132 -112 141 5 15 276
399 282 399 4 0 39 -13 79 -28z m5754 -309 c64 -137 141 -301 171 -365 31 -65
53 -119 49 -122 -20 -12 -284 -58 -291 -50 -5 5 -61 133 -126 284 -65 151
-135 313 -156 359 -22 46 -38 86 -35 88 7 7 212 52 242 52 30 1 31 -1 146
-246z m-298 -205 l159 -373 -109 -102 c-60 -56 -112 -99 -116 -95 -4 4 -75
171 -157 372 l-151 365 102 102 c57 57 105 103 108 103 3 0 76 -168 164 -372z
m1823 225 c159 -186 148 -170 132 -190 -20 -23 -195 -153 -208 -153 -10 0
-281 309 -281 320 0 5 221 157 232 159 3 0 59 -61 125 -136z m-7969 44 c31
-24 92 -67 135 -96 52 -35 77 -57 73 -67 -5 -13 -370 -539 -387 -558 -13 -15
-299 169 -299 193 0 14 408 571 418 571 2 0 29 -19 60 -43z m5273 -103 c35 -5
37 -8 42 -47 34 -259 89 -738 86 -742 -10 -9 -349 19 -349 29 0 16 -69 705
-74 745 l-5 34 132 -7 c73 -4 148 -9 168 -12z m-345 -266 c13 -139 30 -311 37
-382 l13 -129 -73 -58 c-85 -67 -163 -123 -167 -117 -3 3 -21 346 -33 606 l-6
143 98 99 c55 55 101 98 103 96 2 -2 14 -118 28 -258z m2783 63 l120 -143
-102 -89 c-56 -49 -105 -88 -108 -86 -6 2 -89 97 -192 220 l-57 67 52 68 c28
37 67 87 86 110 l35 44 22 -24 c13 -12 77 -88 144 -167z m-7314 -40 c-3 -7
-47 -79 -98 -160 -51 -80 -120 -190 -153 -244 -68 -114 -61 -112 -190 -53 -54
25 -73 39 -68 48 5 7 45 65 89 128 45 63 130 187 190 274 l109 160 63 -70 c36
-39 61 -75 58 -83z m6423 -513 c104 -220 152 -324 152 -334 0 -2 -6 -4 -13 -4
-7 0 -73 -19 -146 -43 l-134 -44 -49 106 c-88 187 -219 473 -221 484 -1 6 16
14 38 19 59 14 228 46 246 47 12 1 48 -65 127 -231z m-346 -155 c71 -158 130
-291 131 -294 2 -7 -243 -172 -248 -167 -10 11 -76 154 -155 336 -91 209 -92
214 -74 233 46 45 209 187 213 183 2 -2 62 -133 133 -291z m-1257 52 c130 -8
188 -15 196 -23 12 -13 83 -632 73 -641 -8 -7 -155 1 -300 15 l-52 5 -6 42
c-5 33 -66 601 -66 615 0 2 12 1 28 -2 15 -3 72 -8 127 -11z m-164 -618 l3
-38 -99 -53 c-55 -29 -117 -63 -137 -75 l-37 -22 -5 33 c-3 18 -10 114 -16
213 -6 99 -13 223 -16 275 l-6 96 123 91 124 92 32 -287 c17 -158 33 -304 34
-325z m1809 252 c-78 -70 -112 -88 -229 -118 -63 -17 -116 -29 -118 -27 -2 2
27 23 64 48 41 27 119 64 193 91 69 25 127 46 130 46 3 0 -15 -18 -40 -40z
m-1520 -368 l75 -6 -45 -29 c-110 -72 -132 -77 -311 -74 -101 2 -164 7 -164
13 1 6 46 34 100 63 l100 53 85 -7 c47 -4 119 -10 160 -13z"/>
<path d="M3575 8350 c-16 -17 -17 -37 -12 -212 5 -204 16 -264 51 -296 32 -31
120 -56 354 -103 230 -45 253 -45 271 4 15 38 18 454 4 468 -6 6 -67 25 -135
41 -98 23 -510 118 -514 118 0 0 -9 -9 -19 -20z m218 -119 c65 -15 119 -30
121 -32 7 -8 11 -359 4 -359 -52 0 -245 58 -252 75 -3 9 -8 53 -11 98 -4 45
-8 99 -10 120 -6 52 5 127 19 127 6 0 64 -13 129 -29z"/>
<path d="M4614 8156 c-18 -13 -19 -29 -19 -233 0 -255 4 -274 69 -297 76 -28
521 -106 604 -106 96 0 103 16 123 307 14 211 11 226 -48 242 -42 11 -500 76
-603 86 -36 3 -74 8 -86 10 -11 3 -29 -2 -40 -9z m231 -101 c50 -8 99 -17 110
-20 19 -4 20 -12 20 -195 0 -168 -2 -190 -16 -190 -27 0 -223 42 -241 51 -9 5
-22 26 -28 47 -11 41 -14 214 -4 286 8 53 -12 50 159 21z"/>
<path d="M7223 5676 c-76 -22 -100 -37 -89 -55 10 -16 42 -14 126 10 86 23 98
32 80 54 -16 19 -27 18 -117 -9z"/>
<path d="M7370 5624 c-82 -31 -101 -48 -79 -69 13 -13 25 -12 104 15 49 17 93
34 98 39 9 9 -29 41 -48 41 -5 -1 -39 -12 -75 -26z"/>
<path d="M7432 4885 c-68 -30 -130 -60 -138 -66 -19 -16 -14 -53 8 -57 27 -5
277 118 283 139 7 22 -1 39 -18 38 -7 0 -68 -25 -135 -54z"/>
<path d="M3813 4536 c-76 -22 -100 -37 -89 -55 10 -16 31 -14 127 10 101 26
120 35 113 54 -8 21 -63 18 -151 -9z"/>
<path d="M4004 4499 c-69 -21 -93 -41 -75 -63 9 -11 28 -8 113 15 56 16 104
32 107 35 10 10 -32 34 -58 33 -14 0 -54 -9 -87 -20z"/>
<path d="M2040 4144 c-14 -15 -28 -205 -29 -376 -1 -74 2 -91 18 -107 24 -24
266 -104 291 -96 38 12 49 39 54 125 18 330 18 345 4 363 -11 15 -284 107
-317 107 -5 0 -14 -7 -21 -16z m252 -261 c28 -26 18 -134 -16 -163 -20 -16
-71 11 -80 42 -11 43 -6 101 11 120 20 22 61 23 85 1z"/>
<path d="M2181 3216 c-18 -21 -19 -372 -2 -413 14 -34 58 -55 234 -113 63 -20
69 -21 92 -6 20 13 25 26 27 59 0 23 2 47 3 52 2 6 3 60 4 121 l1 111 28 -4
c15 -3 102 -29 193 -59 l166 -55 5 -171 c5 -147 8 -174 25 -197 15 -20 52 -37
162 -75 l143 -49 23 24 c22 23 23 34 30 210 8 232 12 224 -150 274 -261 80
-642 201 -789 251 -88 30 -165 54 -171 54 -7 0 -18 -6 -24 -14z m164 -116 c49
-17 95 -34 102 -38 13 -8 29 -302 16 -302 -22 0 -171 55 -195 72 l-28 19 0
140 c0 76 3 139 7 139 5 0 48 -14 98 -30z m796 -251 l99 -31 0 -154 0 -154
-27 6 c-16 3 -64 20 -108 38 -95 37 -93 33 -94 204 -1 105 1 122 15 122 9 0
60 -14 115 -31z"/>
</g>
</svg>
