<?xml version="1.0" standalone="no"?>
<!DOCTYPE svg PUBLIC "-//W3C//DTD SVG 20010904//EN"
 "http://www.w3.org/TR/2001/REC-SVG-20010904/DTD/svg10.dtd">
<svg version="1.0" xmlns="http://www.w3.org/2000/svg"
 width="1024.000000pt" height="1024.000000pt" viewBox="0 0 1024.000000 1024.000000"
 preserveAspectRatio="xMidYMid meet">
<metadata>
Created by potrace 1.16, written by Peter Selinger 2001-2019
</metadata>
<g transform="translate(0.000000,1024.000000) scale(0.100000,-0.100000)"
fill="#000000" stroke="none">
<path d="M5755 9089 c-55 -4 -190 -15 -300 -24 -110 -9 -240 -20 -290 -25 -49
-6 -180 -19 -290 -30 -208 -21 -250 -25 -555 -59 -185 -21 -224 -26 -290 -35
-19 -3 -60 -8 -90 -11 -61 -6 -365 -43 -420 -50 -348 -47 -362 -50 -380 -86
-16 -29 -32 -227 -46 -564 -3 -82 -7 -160 -9 -172 -2 -12 -7 -255 -11 -540 -3
-285 -7 -519 -8 -519 0 -1 -41 23 -91 53 -49 30 -142 84 -205 120 l-115 65
-115 -6 c-63 -3 -126 -8 -140 -10 -14 -2 -59 -7 -100 -10 -41 -4 -154 -15
-250 -26 -96 -10 -265 -28 -375 -40 -110 -12 -267 -30 -350 -40 -82 -11 -190
-24 -240 -30 -49 -6 -121 -15 -160 -20 -38 -6 -97 -13 -130 -16 -106 -10 -135
-22 -150 -57 -21 -52 -40 -846 -40 -1669 0 -463 0 -468 21 -489 12 -12 138
-65 285 -120 494 -187 443 -171 539 -165 47 3 144 8 215 11 72 3 168 7 215 10
47 2 148 7 225 10 77 3 169 7 205 10 36 2 110 7 165 10 150 8 261 14 457 25
l177 11 143 -58 143 -58 485 0 485 0 3 -42 3 -42 -343 -4 c-301 -3 -357 -6
-458 -25 -199 -38 -212 -47 -211 -140 0 -50 29 -353 47 -487 7 -59 13 -74 33
-84 9 -5 235 -13 502 -17 266 -4 491 -8 499 -9 8 -1 17 -10 18 -20 2 -9 0 -15
-5 -12 -6 4 -159 7 -340 7 l-331 2 -122 -46 c-227 -86 -217 -72 -189 -258 10
-73 29 -196 40 -273 25 -171 27 -180 47 -198 23 -20 71 -25 307 -32 110 -3
229 -8 265 -10 36 -2 148 -7 250 -11 102 -3 187 -8 189 -10 2 -2 21 -115 42
-251 49 -317 64 -380 98 -434 54 -86 358 -464 609 -760 120 -141 148 -169 175
-173 91 -14 686 -23 718 -11 27 10 46 66 110 322 l63 249 -134 199 c-74 110
-185 272 -248 360 -63 88 -120 174 -127 190 -7 17 -20 75 -29 130 -9 55 -19
113 -22 128 l-6 28 256 -2 255 -1 53 38 c29 21 86 65 127 98 l73 61 -5 115
c-12 250 -30 466 -40 478 -31 39 -68 42 -458 42 -330 0 -379 2 -379 15 0 13
38 15 278 15 l278 0 73 45 c40 25 76 45 79 45 4 0 27 18 51 40 l44 41 -6 296
c-5 229 -10 301 -21 318 -26 40 -64 43 -454 37 l-369 -5 -5 59 c-3 32 -5 60
-4 61 5 6 179 13 446 18 162 3 336 8 385 10 50 2 194 7 320 10 250 6 385 14
398 22 4 3 12 15 17 28 9 25 3 24 380 40 63 3 165 7 225 10 61 3 214 10 340
15 127 6 273 12 325 15 52 3 253 12 445 20 193 8 379 17 415 20 36 2 87 5 113
5 39 0 54 5 76 28 34 34 36 47 56 397 8 149 19 347 25 440 5 94 12 258 15 365
4 107 8 215 10 240 2 25 7 248 11 495 l7 450 -199 192 c-240 231 -382 353
-410 353 -26 0 -347 -30 -539 -50 -49 -6 -187 -19 -305 -30 -118 -11 -303 -29
-410 -40 -107 -11 -220 -22 -250 -25 -80 -8 -239 -25 -280 -30 -19 -2 -62 -7
-95 -10 -33 -3 -78 -8 -100 -10 -67 -7 -159 -17 -178 -21 -10 -2 -56 -6 -103
-10 l-84 -7 5 114 c3 63 10 253 16 422 9 267 8 312 -4 331 -22 33 -215 239
-305 325 -101 96 -355 318 -427 372 -64 48 -79 51 -230 38z m89 -425 c-1 -362
-14 -1233 -19 -1267 -2 -12 -6 -137 -10 -277 -14 -610 -26 -935 -33 -941 -4
-4 -68 -10 -142 -13 -74 -4 -162 -9 -195 -11 -33 -3 -265 -16 -515 -30 -501
-27 -618 -33 -730 -40 -41 -3 -160 -9 -265 -15 -104 -6 -221 -12 -260 -15
-129 -8 -359 -19 -440 -19 l-80 -1 1 310 c4 1272 13 1793 38 2154 9 118 17
215 19 217 5 5 145 26 332 49 324 41 449 55 545 65 109 10 245 26 300 35 28 5
288 33 365 41 28 2 95 9 150 14 283 28 619 57 780 66 61 4 112 8 114 10 2 2
13 2 25 0 20 -3 21 -6 20 -332z m246 177 c184 -155 547 -519 552 -553 3 -22
-4 -265 -16 -553 -3 -77 -6 -163 -6 -192 0 -46 -3 -53 -27 -65 -14 -7 -35 -24
-45 -38 -20 -27 -21 -41 -33 -325 -3 -77 -7 -185 -10 -240 -9 -188 -15 -350
-21 -610 -4 -143 -8 -278 -9 -300 -1 -22 -3 -57 -4 -77 l-1 -37 -83 43 c-45
24 -152 78 -237 121 -85 43 -183 94 -217 114 l-63 36 5 85 c5 93 12 293 20
605 3 110 7 243 10 295 3 52 8 246 11 430 4 184 8 346 9 360 2 14 3 251 4 528
l1 502 53 -41 c28 -23 77 -62 107 -88z m2895 -1317 c0 -54 -2 -205 -6 -334 -4
-129 -10 -365 -13 -525 -4 -159 -11 -429 -16 -600 -5 -170 -12 -438 -16 -595
-3 -157 -9 -288 -13 -291 -3 -4 -85 -10 -181 -13 -96 -4 -213 -9 -260 -11 -47
-3 -182 -10 -300 -15 -118 -6 -264 -12 -325 -15 -106 -5 -219 -11 -355 -20
-36 -2 -119 -7 -185 -10 -66 -3 -192 -10 -280 -15 -88 -5 -234 -12 -324 -16
l-164 -7 7 604 c3 332 8 647 11 699 2 52 12 286 20 520 18 485 20 510 41 510
8 0 155 16 327 34 172 19 341 38 377 41 36 3 101 10 145 15 44 5 112 12 150
15 39 3 90 8 115 10 89 9 458 45 615 60 253 24 268 25 305 30 19 2 94 9 165
16 72 6 132 13 134 15 18 17 26 -14 26 -102z m302 -123 c76 -71 171 -163 212
-204 l74 -76 -7 -443 c-5 -244 -9 -456 -11 -473 -1 -16 -5 -122 -9 -235 -4
-113 -9 -227 -11 -255 -3 -27 -9 -147 -15 -265 -6 -118 -12 -240 -15 -270 -2
-30 -7 -108 -11 -172 -3 -65 -7 -118 -9 -118 -12 0 -434 247 -459 269 -17 15
-18 31 -12 271 3 140 8 296 11 345 2 50 7 209 10 355 3 146 8 312 10 370 3 58
7 242 10 410 3 168 8 389 11 492 l7 188 38 -31 c21 -16 100 -88 176 -158z
m-6691 -688 c-16 -1018 -34 -1721 -46 -1728 -4 -2 -81 -9 -171 -15 -90 -5
-225 -15 -299 -20 -74 -5 -182 -12 -240 -15 -175 -8 -331 -16 -415 -20 -44 -3
-138 -7 -210 -10 -71 -3 -166 -7 -210 -10 -44 -2 -135 -7 -202 -11 l-123 -6 0
113 c-1 313 2 730 5 864 2 83 7 292 10 465 7 390 15 583 24 593 10 10 616 86
1021 127 210 22 252 26 345 36 145 16 434 42 474 43 l44 1 -7 -407z m312 248
l163 -96 -2 -426 c-1 -513 -8 -484 135 -549 l69 -31 -7 -102 c-3 -56 -9 -158
-12 -227 -3 -69 -7 -134 -8 -145 -3 -18 -12 -21 -102 -25 -54 -3 -109 -11
-121 -18 -33 -18 -41 -65 -48 -277 -7 -177 -10 -224 -17 -230 -2 -2 -59 22
-128 52 -69 30 -140 61 -158 69 l-34 15 6 217 c4 119 8 264 11 322 2 58 7 314
11 570 3 256 7 521 9 590 2 69 4 191 4 273 l1 148 33 -17 c17 -9 105 -60 195
-113z m3188 -1013 c306 -159 297 -149 134 -162 -41 -3 -142 -13 -225 -21 -82
-8 -209 -20 -281 -26 l-130 -12 -130 75 c-201 117 -211 121 -279 119 -162 -4
-843 -52 -863 -61 -28 -12 -42 -48 -42 -106 l0 -44 -62 -1 c-35 -1 -76 -2 -93
-4 -16 -2 -77 -4 -135 -6 -101 -2 -108 -1 -195 35 -114 48 -269 112 -410 170
l-110 46 65 1 c36 0 72 2 80 3 8 2 85 6 170 10 85 4 189 9 230 11 41 3 199 12
350 20 151 8 307 17 345 20 39 2 120 7 180 10 61 3 187 10 280 15 94 5 213 12
265 15 52 3 127 8 165 10 39 2 126 7 195 11 69 4 126 7 127 8 2 1 23 3 48 5
42 2 72 -12 321 -141z m-924 -648 c3 -289 8 -533 12 -542 15 -33 137 -110 234
-148 164 -64 152 -54 152 -124 l0 -61 -105 -39 c-128 -46 -145 -64 -139 -139
2 -29 11 -153 19 -277 25 -363 20 -350 139 -350 111 0 136 -7 136 -39 0 -24
-11 -32 -96 -76 -146 -75 -139 -46 -97 -395 26 -225 39 -301 52 -320 17 -24
24 -25 134 -30 63 -3 118 -7 121 -10 2 -3 17 -71 31 -150 16 -86 36 -165 50
-195 14 -27 86 -135 160 -239 75 -105 179 -254 231 -332 l96 -141 -51 -202
c-28 -110 -51 -203 -51 -207 0 -28 -126 125 -574 694 l-128 163 -28 227 c-80
636 -151 1362 -194 1978 -9 140 -14 169 -28 178 -13 8 -23 8 -35 0 -16 -10
-18 -27 -16 -130 2 -100 32 -525 48 -689 14 -135 45 -468 50 -530 3 -38 10
-101 15 -140 5 -38 19 -157 30 -264 12 -107 23 -211 26 -230 2 -20 13 -108 24
-196 11 -88 20 -166 20 -174 0 -11 -20 -12 -102 -7 -57 3 -204 8 -326 12 -215
7 -224 8 -233 28 -11 24 -61 336 -119 731 -53 365 -109 795 -135 1040 -50 470
-75 732 -95 1005 -6 80 -15 204 -20 275 -5 72 -12 219 -16 327 l-7 197 24 5
c41 9 774 53 781 47 3 -3 8 -242 10 -531z m-1744 491 c37 -16 105 -45 152 -64
47 -19 130 -54 185 -76 l100 -42 200 8 c110 4 205 8 210 8 6 0 10 -42 10 -105
l0 -105 -170 -7 c-246 -10 -607 -27 -704 -34 l-84 -7 8 154 c4 85 9 170 10
189 1 19 3 52 4 73 0 20 4 37 7 37 3 0 36 -13 72 -29z m1978 -53 l143 -81 -4
-36 c-1 -20 -3 -66 -4 -102 l-1 -66 -97 -7 c-54 -4 -103 -12 -110 -18 -20 -16
-15 -46 8 -59 21 -11 221 -8 444 6 39 3 147 7 240 11 94 4 193 8 220 9 28 1
88 4 135 5 l85 3 5 -189 c3 -117 9 -197 17 -209 22 -39 69 -74 150 -113 l81
-39 -221 -7 c-230 -7 -427 -13 -677 -21 -80 -3 -238 -8 -351 -11 l-206 -6 -6
143 c-9 183 -9 869 -1 869 4 0 71 -37 150 -82z m1061 -244 c-3 -3 -314 -17
-652 -29 -93 -4 -176 -9 -184 -11 -12 -4 -13 11 -7 88 4 51 10 96 14 99 4 4
48 10 97 13 89 7 252 22 330 31 22 2 117 11 210 20 94 9 175 17 180 19 9 2 21
-221 12 -230z m-2162 -291 c4 -71 8 -139 11 -153 2 -14 7 -80 10 -147 l7 -123
-184 -2 c-101 -1 -199 -2 -217 -3 -18 -1 -204 -5 -415 -9 -210 -4 -399 -8
-420 -10 -21 -1 -42 1 -47 4 -9 6 4 372 16 468 5 42 5 42 47 43 23 0 51 2 62
4 11 1 81 6 155 9 74 4 185 9 245 12 61 3 223 12 360 19 138 7 275 13 306 14
l57 1 7 -127z m4869 -235 c118 -68 213 -124 212 -125 -1 -2 -166 -10 -367 -18
-200 -8 -404 -17 -454 -20 -49 -2 -146 -7 -215 -10 -69 -3 -217 -10 -330 -15
-276 -13 -384 -18 -585 -26 -93 -3 -190 -7 -215 -9 -38 -2 -72 10 -220 78
-303 138 -323 148 -319 151 2 2 78 7 169 11 91 4 181 8 200 10 19 2 102 6 185
10 82 4 161 8 175 10 14 2 90 6 170 10 80 3 174 8 210 10 36 2 128 7 205 10
77 3 174 8 215 10 153 9 604 31 693 33 56 2 62 0 271 -120z m-6509 -104 c44
-19 128 -55 187 -81 96 -41 106 -48 110 -74 5 -35 2 -36 -192 -44 -74 -3 -198
-10 -275 -15 -77 -5 -212 -12 -300 -16 -88 -3 -171 -8 -185 -9 -14 -2 -164 -9
-335 -15 l-310 -13 -180 67 c-99 37 -207 78 -240 90 -33 13 -73 28 -90 33 -27
9 -23 11 40 16 39 4 138 9 220 12 83 3 179 8 215 10 36 3 169 10 295 15 127 6
257 13 290 15 33 2 182 11 330 20 149 8 279 17 290 19 42 7 52 5 130 -30z
m4300 -124 c59 -27 114 -50 123 -50 10 0 12 -3 7 -9 -6 -5 -161 -12 -345 -15
-184 -4 -380 -9 -435 -11 -55 -2 -237 -7 -405 -11 -168 -3 -308 -8 -312 -11
-4 -2 -54 14 -110 36 -57 21 -112 42 -122 45 -10 4 -17 8 -15 10 4 3 163 9
754 26 612 17 720 22 735 31 8 4 16 9 17 9 1 0 49 -22 108 -50z m-2615 -104
l0 -65 -307 -1 c-170 -1 -378 -3 -463 -3 l-155 -2 -105 42 c-58 23 -118 48
-135 55 -25 10 43 14 430 23 253 5 522 11 598 13 l137 3 0 -65z m1946 -291
c-33 -25 -120 -36 -243 -31 -65 3 -210 6 -323 6 -166 1 -200 4 -180 13 17 8
137 14 380 17 195 3 362 6 370 7 11 2 10 -2 -4 -12z m-2073 -32 c-89 -2 -237
-2 -330 0 -92 1 -19 3 162 3 182 0 257 -2 168 -3z m2198 -155 c2 -90 3 -206 4
-258 l0 -94 -74 -43 c-40 -24 -75 -43 -76 -41 -4 4 -26 510 -23 513 6 6 153
84 160 84 3 1 8 -72 9 -161z m-2465 73 l430 -1 18 -162 c10 -90 24 -205 31
-257 l12 -93 -476 7 c-262 4 -477 8 -479 10 -9 8 -52 390 -52 457 0 39 12 47
60 42 14 -1 219 -3 456 -3z m2210 -4 c5 -6 14 -166 20 -341 l7 -199 -368 6
c-203 4 -372 10 -376 14 -4 4 -14 109 -23 233 -9 124 -19 238 -22 254 -4 16
-2 31 4 35 9 5 754 3 758 -2z m-1791 -706 l100 -6 3 -29 4 -29 -359 8 c-197 4
-380 10 -408 14 l-50 6 55 21 c51 20 74 22 305 22 138 0 295 -3 350 -7z m2000
-31 c-18 -30 -84 -49 -171 -50 -255 -4 -614 1 -614 8 0 4 26 18 58 29 54 20
77 21 395 22 220 0 336 -3 332 -9z m113 -222 c19 -305 24 -278 -55 -343 -37
-30 -71 -55 -75 -55 -4 0 -9 10 -9 23 -1 12 -2 33 -4 47 -3 26 -11 150 -21
315 l-6 100 73 52 c41 29 77 53 80 53 3 0 11 -87 17 -192z m-2468 117 c247 -6
463 -15 467 -19 3 -2 21 -129 48 -326 8 -63 18 -130 21 -149 l5 -33 -133 6
c-73 3 -176 8 -228 11 -52 3 -180 7 -285 10 -260 8 -294 12 -305 40 -4 12 -14
66 -20 120 -6 54 -20 153 -30 219 -10 66 -16 124 -13 128 2 5 57 7 121 4 65
-3 223 -8 352 -11z m1900 -29 c173 -4 316 -9 317 -10 3 -3 22 -250 29 -385 l7
-134 -363 6 c-200 4 -365 9 -368 11 -2 3 -10 62 -18 133 -8 70 -16 144 -19
163 -16 119 -25 212 -21 218 2 4 30 6 63 6 32 -1 200 -4 373 -8z m-720 -1272
c124 -3 230 -9 237 -13 14 -7 165 -195 404 -501 91 -117 210 -262 258 -314
l36 -38 -310 6 c-225 5 -313 10 -321 19 -140 156 -414 485 -544 652 -47 60
-102 128 -122 151 -21 23 -38 45 -38 49 0 4 39 5 88 1 48 -3 188 -8 312 -12z"/>
<path d="M4531 8184 c-18 -23 -21 -40 -20 -118 0 -127 9 -168 38 -182 18 -9
29 -9 42 -1 24 15 33 4 19 -22 -25 -48 -16 -367 15 -510 28 -129 23 -126 201
-112 143 11 196 16 294 26 25 2 88 7 140 10 52 3 109 8 125 10 17 2 61 7 98
11 93 9 111 27 137 129 29 113 41 247 39 417 -2 105 1 151 10 162 19 23 25
118 9 138 -12 16 -35 15 -363 -27 -192 -24 -363 -46 -380 -49 -70 -12 -311
-46 -327 -46 -16 0 -18 11 -18 89 0 72 -3 90 -16 95 -22 8 -20 9 -43 -20z
m1036 -431 c-4 -178 -8 -231 -25 -286 -11 -37 -21 -70 -24 -72 -2 -3 -49 -9
-104 -15 -54 -6 -117 -12 -139 -15 -22 -2 -80 -7 -130 -11 -49 -3 -100 -7
-112 -9 -12 -2 -85 -7 -162 -11 -165 -8 -152 -19 -176 144 -17 113 -18 362 -2
378 7 7 67 16 327 49 173 22 511 62 534 64 18 1 18 -9 13 -216z"/>
<path d="M5000 7798 c-53 -36 -71 -83 -73 -185 -1 -149 38 -213 132 -213 97 0
152 66 159 189 5 89 -22 177 -65 211 -36 28 -110 27 -153 -2z"/>
<path d="M4222 8128 c-7 -7 -12 -41 -12 -82 l0 -69 -137 7 c-76 3 -281 9 -455
13 -250 5 -320 3 -333 -7 -19 -16 -20 -95 -1 -131 10 -20 11 -31 2 -45 -15
-27 -14 -350 2 -444 20 -111 40 -169 68 -187 22 -14 52 -15 242 -9 119 4 235
9 257 11 22 2 94 7 160 10 73 4 128 12 141 20 44 28 87 259 88 465 0 141 1
146 24 164 23 18 24 22 20 141 -2 84 -7 127 -17 138 -16 20 -32 22 -49 5z
m-71 -320 c24 -37 1 -349 -34 -468 -11 -39 -17 -45 -47 -52 -51 -10 -330 -23
-510 -23 l-154 0 -19 70 c-21 80 -34 321 -22 430 l7 68 385 -6 c305 -4 388 -8
394 -19z"/>
<path d="M3884 7721 c-122 -53 -136 -328 -19 -377 127 -53 214 38 203 213 -5
78 -20 108 -69 145 -29 22 -86 31 -115 19z"/>
<path d="M5259 7026 c-2 -2 -49 -7 -104 -10 -93 -6 -621 -49 -745 -61 -30 -2
-134 -12 -230 -20 -96 -9 -245 -23 -330 -31 -85 -9 -193 -19 -240 -23 -89 -8
-124 -20 -139 -49 -5 -9 -12 -99 -16 -198 -10 -242 -21 -229 194 -220 180 7
953 43 1116 51 170 8 307 14 465 21 203 8 192 -5 203 251 9 220 9 222 -63 271
-29 19 -97 31 -111 18z m53 -266 c-2 -96 -5 -176 -5 -177 -6 -6 -107 -13 -264
-19 l-183 -6 0 140 c0 169 5 201 34 207 11 2 64 6 116 10 171 10 265 17 270
22 2 2 11 2 20 1 13 -3 15 -26 12 -178z m-526 72 c-3 -31 -8 -106 -11 -167 -4
-60 -7 -110 -8 -111 -2 -2 -169 -10 -409 -20 l-158 -7 0 161 c0 161 0 162 23
163 31 1 110 7 347 28 113 10 208 16 213 14 4 -3 5 -30 3 -61z m-668 -152 l4
-160 -44 -1 c-23 0 -63 -2 -88 -4 -25 -2 -103 -6 -175 -10 l-130 -6 3 148 c2
81 5 150 7 152 4 3 342 38 395 40 l25 1 3 -160z"/>
<path d="M8700 7023 c-74 -8 -550 -54 -655 -64 -140 -13 -151 -18 -166 -71
-26 -97 5 -632 42 -699 23 -44 47 -45 414 -24 372 22 446 30 460 49 25 34 50
319 54 610 3 215 2 215 -149 199z m63 -293 c-2 -184 -16 -388 -29 -431 -5 -20
-40 -26 -184 -34 -58 -4 -130 -8 -160 -10 -30 -2 -132 -7 -226 -11 l-170 -7
-20 99 c-15 79 -19 143 -19 314 l0 215 230 22 c385 38 529 51 555 49 l25 -1
-2 -205z"/>
<path d="M8194 6666 c-50 -22 -77 -76 -82 -166 -5 -92 8 -140 49 -175 37 -30
86 -33 145 -6 34 16 45 28 60 67 25 65 25 186 1 232 -30 55 -107 76 -173 48z"/>
<path d="M7470 6897 c-3 -3 -169 -17 -370 -32 -418 -31 -411 -29 -422 -111
-22 -166 6 -612 41 -656 15 -18 28 -20 151 -19 74 1 198 6 275 11 77 5 178 12
225 15 115 8 139 14 150 35 26 48 48 716 25 739 -12 12 -68 25 -75 18z m5
-324 c-8 -253 -18 -362 -35 -373 -12 -7 -369 -29 -544 -33 l-109 -2 -8 28
c-25 93 -39 490 -19 543 8 19 18 21 142 28 73 4 160 9 193 12 136 12 234 19
308 22 l79 3 -7 -228z"/>
<path d="M7220 6557 c-48 -31 -70 -75 -77 -150 -7 -83 20 -149 69 -166 77 -27
157 1 184 64 21 52 18 173 -6 212 -38 63 -112 80 -170 40z"/>
<path d="M8155 5868 c-55 -4 -282 -21 -505 -38 -540 -40 -536 -40 -609 -51
-136 -21 -177 -70 -188 -224 -6 -91 6 -146 41 -189 27 -34 34 -35 236 -23 69
4 163 10 210 12 47 3 195 12 330 20 398 24 576 34 735 41 243 10 250 16 250
209 0 109 -2 124 -25 165 -15 27 -41 53 -65 67 -37 21 -51 23 -175 21 -74 -1
-180 -5 -235 -10z m372 -96 c43 -24 53 -51 53 -148 0 -61 -4 -95 -12 -102 -7
-5 -71 -13 -143 -16 -158 -8 -443 -24 -545 -31 -192 -12 -560 -33 -695 -40
-66 -3 -144 -8 -173 -11 l-52 -5 -16 37 c-11 26 -15 58 -12 101 7 118 52 138
353 158 118 7 227 15 295 21 186 15 593 44 695 50 66 4 121 7 122 8 7 6 112
-12 130 -22z"/>
<path d="M2320 6549 c-41 -4 -129 -13 -195 -19 -66 -6 -138 -13 -160 -16 -22
-2 -82 -9 -134 -14 -63 -6 -100 -14 -110 -25 -14 -14 -16 -48 -14 -238 1 -258
18 -380 55 -410 24 -20 2 -20 383 4 232 14 294 21 312 34 25 18 32 92 39 390
6 248 5 272 -10 288 -19 18 -44 19 -166 6z m99 -321 c-3 -134 -9 -253 -13
-265 -4 -13 -17 -25 -29 -28 -27 -6 -266 -23 -438 -32 l-127 -6 -12 54 c-6 30
-14 145 -17 256 l-6 202 24 5 c24 5 535 53 594 55 l30 1 -6 -242z"/>
<path d="M2155 6261 c-67 -29 -88 -125 -53 -238 18 -60 84 -81 148 -48 75 39
94 212 30 270 -22 20 -95 29 -125 16z"/>
<path d="M1379 6456 c-2 -2 -42 -6 -89 -9 -299 -20 -483 -41 -504 -58 -20 -16
-21 -26 -22 -191 -1 -159 13 -353 30 -406 13 -41 32 -43 284 -27 292 18 349
24 362 40 19 23 29 160 30 396 0 170 -3 238 -12 247 -11 11 -69 17 -79 8z m12
-98 c6 -82 -6 -484 -15 -489 -7 -4 -388 -25 -441 -25 l-70 1 -12 85 c-6 47
-12 154 -12 237 -1 150 -1 153 22 157 23 5 198 21 352 32 50 3 92 8 94 10 11
10 81 3 82 -8z"/>
<path d="M1209 6175 c-54 -29 -78 -163 -41 -235 45 -91 173 -73 202 28 40 145
-54 265 -161 207z"/>
<path d="M1879 5576 c-2 -2 -69 -6 -149 -10 -488 -22 -717 -100 -796 -270 -28
-59 -31 -131 -8 -164 14 -20 24 -22 97 -22 45 0 152 4 237 10 247 15 430 23
815 35 198 7 217 10 240 35 21 23 16 70 -16 154 -42 114 -165 208 -287 221
-31 3 -73 8 -93 10 -20 3 -38 3 -40 1z m201 -117 c82 -39 135 -100 155 -180
l7 -27 -89 -6 c-48 -3 -164 -8 -258 -11 -222 -7 -420 -15 -470 -20 -22 -2
-103 -6 -180 -10 -77 -3 -166 -8 -197 -11 -56 -6 -58 -5 -58 18 1 66 83 145
195 187 136 51 443 89 700 87 129 -1 144 -3 195 -27z"/>
</g>
</svg>
