<?xml version="1.0" standalone="no"?>
<!DOCTYPE svg PUBLIC "-//W3C//DTD SVG 20010904//EN"
 "http://www.w3.org/TR/2001/REC-SVG-20010904/DTD/svg10.dtd">
<svg version="1.0" xmlns="http://www.w3.org/2000/svg"
 width="1024.000000pt" height="1024.000000pt" viewBox="0 0 1024.000000 1024.000000"
 preserveAspectRatio="xMidYMid meet">
<metadata>
Created by potrace 1.16, written by Peter Selinger 2001-2019
</metadata>
<g transform="translate(0.000000,1024.000000) scale(0.100000,-0.100000)"
fill="#000000" stroke="none">
<path d="M6739 9986 c-2 -2 -125 -7 -274 -10 -148 -4 -306 -9 -350 -11 -346
-19 -701 -36 -925 -45 -279 -11 -349 -14 -625 -31 -494 -29 -820 -61 -864 -83
-17 -9 -38 -27 -46 -39 -18 -28 -30 -156 -50 -537 -2 -47 -9 -170 -14 -275 -6
-104 -13 -242 -16 -305 -3 -63 -10 -172 -16 -242 -5 -70 -8 -130 -7 -135 1 -4
-2 -66 -6 -138 -8 -137 -11 -196 -21 -415 -3 -74 -8 -178 -10 -230 -3 -52 -10
-196 -15 -319 -6 -124 -13 -227 -15 -229 -4 -5 -36 21 -310 243 -229 186 -405
289 -573 335 -218 59 -379 66 -483 18 -99 -45 -191 -155 -310 -369 -69 -125
-95 -183 -145 -314 -53 -141 -48 -159 68 -270 167 -161 463 -379 815 -602 175
-111 408 -241 547 -306 159 -74 150 -68 157 -112 8 -56 31 -96 84 -143 l46
-40 -53 -6 c-29 -3 -109 -8 -178 -11 -163 -8 -251 -21 -323 -47 -68 -25 -91
-52 -105 -128 -26 -133 -56 -441 -67 -665 l-3 -70 -83 -21 c-233 -60 -321
-124 -355 -261 -8 -32 -17 -119 -21 -193 -6 -133 -5 -136 18 -163 13 -15 35
-30 49 -32 44 -9 223 -22 316 -24 l52 -1 4 -117 c5 -130 15 -157 72 -192 43
-27 146 -58 236 -71 41 -6 76 -12 78 -14 1 -2 -11 -19 -28 -37 -17 -19 -48
-68 -68 -109 -32 -66 -37 -84 -36 -145 2 -118 56 -188 167 -216 32 -8 47 -17
47 -28 0 -37 31 -273 40 -313 6 -24 13 -52 15 -63 29 -149 106 -330 187 -440
103 -140 300 -260 566 -346 72 -23 132 -45 132 -49 0 -7 -187 -178 -337 -309
l-86 -75 -19 25 c-11 13 -47 69 -80 124 -108 177 -248 343 -342 406 -83 56
-134 50 -162 -16 -18 -44 -18 -94 1 -191 8 -43 13 -79 12 -80 -2 -2 -25 13
-53 32 -81 58 -235 141 -303 164 -77 26 -121 21 -151 -17 -54 -68 -12 -142
229 -402 81 -87 100 -113 81 -108 -14 3 -68 9 -120 12 -88 7 -97 6 -122 -15
-63 -49 -24 -129 100 -213 281 -189 904 -404 1287 -446 177 -19 250 24 204
120 -18 37 -169 187 -232 229 -20 14 -37 27 -37 30 0 15 645 635 659 634 9 -1
56 -7 105 -13 310 -41 802 -59 1141 -42 234 12 509 36 525 46 5 3 62 -43 127
-102 66 -60 167 -151 226 -203 59 -52 107 -97 107 -100 0 -3 -42 -23 -92 -44
-137 -57 -443 -212 -510 -257 -127 -87 -114 -187 29 -205 58 -7 280 1 342 12
l34 7 -77 -89 c-88 -100 -116 -148 -116 -198 0 -41 33 -72 86 -82 101 -19 484
164 692 329 104 84 116 102 184 282 76 202 132 436 144 598 6 75 4 85 -18 117
-20 29 -31 36 -64 38 -71 5 -144 -36 -238 -133 -45 -47 -87 -85 -92 -84 -10 1
-187 192 -192 208 -2 6 3 11 11 11 14 0 155 43 367 112 121 39 280 114 356
166 67 46 164 143 216 217 86 121 168 338 213 560 25 128 58 398 70 587 l7 98
37 27 c55 41 191 191 254 280 61 87 91 165 90 234 -1 57 -15 84 -53 104 -36
19 -70 19 -140 0 -30 -8 -55 -13 -57 -12 -1 2 18 43 42 92 72 145 77 232 15
287 -28 26 -37 28 -113 28 -90 0 -174 -17 -252 -52 -112 -50 -258 -160 -357
-269 l-75 -82 -139 17 c-199 23 -296 46 -288 65 13 32 23 100 25 172 1 41 4
77 6 82 2 4 16 -1 31 -12 43 -30 189 -101 287 -138 92 -36 148 -40 180 -13 39
32 407 527 487 655 81 129 251 425 315 550 42 81 122 279 139 339 12 45 11 54
-5 92 -61 138 -298 346 -628 552 -45 28 -136 79 -202 112 -67 34 -121 66 -121
71 0 9 148 5 374 -12 72 -5 162 -9 201 -9 103 0 110 10 125 170 6 69 13 145
15 170 4 42 9 104 35 439 6 69 12 142 15 161 9 62 16 137 40 430 8 102 19 237
25 300 10 121 11 130 35 440 62 805 63 838 39 868 -13 15 -63 38 -149 67 -210
72 -652 214 -755 241 -52 14 -121 34 -152 45 -31 11 -69 22 -85 24 -15 2 -66
15 -113 29 -47 13 -128 34 -180 46 -52 12 -109 25 -126 31 -29 9 -226 13 -235
5z m164 -166 c-1 -36 -6 -135 -12 -220 -34 -477 -44 -647 -71 -1115 -10 -166
-15 -234 -25 -325 -3 -25 -10 -124 -15 -220 -19 -317 -31 -514 -36 -555 -7
-63 -12 -138 -23 -305 -15 -222 -24 -351 -27 -380 -1 -14 -3 -29 -3 -34 -1 -9
-372 2 -383 13 -4 3 -10 33 -13 66 -10 90 -25 165 -35 165 -10 0 -23 -91 -24
-175 -1 -57 -2 -60 -26 -60 -59 1 -720 18 -765 20 -220 10 -353 15 -495 20
-91 3 -219 8 -285 11 -66 2 -237 9 -380 14 -424 16 -669 30 -679 40 -15 15
-13 100 19 835 3 66 10 226 15 355 17 393 20 463 26 515 3 28 7 88 9 135 4 77
20 399 45 898 5 100 11 186 14 191 3 5 39 12 78 17 93 9 98 10 128 17 14 4
111 11 215 17 105 5 354 19 555 30 201 10 446 24 545 30 99 5 284 15 410 21
127 5 244 12 260 14 29 4 467 23 650 28 50 2 144 3 210 3 l120 -1 -2 -65z
m772 -129 c94 -27 271 -84 395 -126 190 -64 259 -86 379 -121 11 -4 12 -19 7
-71 -4 -37 -13 -150 -21 -252 -17 -224 -22 -282 -40 -476 -8 -82 -21 -249 -30
-370 -9 -121 -22 -292 -30 -380 -8 -88 -15 -187 -15 -221 0 -84 -12 -97 -75
-85 -28 5 -139 20 -248 33 l-199 23 7 110 c3 61 11 172 16 249 12 157 11 161
-56 169 -185 24 -276 30 -288 18 -9 -10 -7 -16 11 -31 23 -19 115 -34 241 -39
l34 -1 -7 -157 c-6 -153 -12 -227 -21 -305 -4 -32 -1 -40 20 -54 13 -9 39 -18
57 -20 110 -15 160 -22 163 -25 1 -2 -2 -85 -7 -183 -12 -206 -14 -200 75
-211 73 -9 207 -34 217 -40 5 -3 6 -17 4 -33 -4 -33 -22 -236 -30 -357 -4 -49
-11 -96 -17 -103 -8 -10 -28 -12 -76 -8 -36 3 -176 9 -311 12 -135 4 -285 9
-335 13 l-90 6 3 70 c1 39 4 93 7 120 3 28 2 55 -2 62 -5 6 -82 20 -176 32
-93 11 -172 23 -177 26 -5 3 -7 11 -5 18 2 7 6 57 10 112 12 189 15 230 20
291 5 44 3 64 -7 72 -8 6 -49 13 -93 17 -44 3 -100 8 -124 11 l-44 6 7 111 c3
62 11 177 16 257 5 80 14 228 20 330 13 224 30 463 45 640 4 47 13 168 19 270
l11 185 55 -3 c56 -3 206 -27 364 -59 l89 -18 -8 -160 c-9 -167 -10 -243 -4
-249 11 -11 276 -42 291 -35 18 10 32 130 26 229 -3 47 -6 55 -23 55 -18 0
-21 -10 -30 -115 -9 -106 -12 -115 -30 -113 -41 4 -102 12 -144 19 l-43 7 6
61 c3 34 9 122 12 197 8 159 16 146 -112 175 l-82 18 6 138 c4 119 3 138 -10
138 -9 0 -20 -6 -26 -12 -11 -14 -34 -217 -26 -230 14 -22 -30 -20 -183 7 -10
2 -42 6 -71 10 l-54 8 7 111 c11 196 26 399 30 407 5 8 455 -107 700 -180z
m490 -2151 c143 -17 135 -11 129 -88 -14 -175 -22 -253 -26 -257 -2 -3 -29 0
-59 5 -30 6 -85 16 -124 23 l-70 12 3 40 c2 43 15 174 17 190 1 6 3 27 3 48 2
43 -3 41 127 27z m-5713 -81 c231 -48 501 -199 751 -421 l48 -43 -15 -70 c-38
-182 -140 -431 -309 -763 l-27 -52 -50 25 c-81 41 -205 82 -365 120 -289 69
-284 66 -493 227 -111 85 -189 154 -181 162 10 10 157 -24 217 -51 31 -14 143
-74 249 -135 106 -60 200 -108 210 -106 10 2 24 22 34 48 17 44 17 45 58 42
89 -8 203 77 296 218 68 104 88 149 75 166 -19 22 -42 3 -129 -110 -87 -113
-154 -172 -206 -182 -26 -5 -48 1 -97 26 -82 42 -98 57 -98 94 0 66 107 243
214 354 105 110 221 129 338 56 111 -70 144 -81 133 -41 -9 27 -78 101 -121
127 -17 11 -62 25 -101 32 -149 25 -265 -38 -400 -217 -177 -235 -199 -346
-88 -444 20 -17 42 -31 50 -31 10 0 15 -10 15 -31 l0 -31 -32 20 c-179 108
-271 159 -343 193 -82 37 -85 40 -79 66 29 112 250 479 376 623 36 41 38 45
22 57 -28 21 -45 16 -83 -25 -131 -138 -357 -522 -368 -626 -4 -33 -10 -46
-19 -42 -30 11 -93 25 -148 31 -67 8 -66 2 -22 120 53 142 164 348 268 498 35
49 98 96 164 122 43 16 161 14 256 -6z m4487 -44 l92 -8 -6 -91 c-4 -50 -10
-116 -15 -146 -16 -100 -23 -247 -12 -254 6 -3 79 -15 164 -26 84 -12 162 -23
172 -26 17 -6 18 -14 12 -96 -3 -49 -8 -94 -11 -99 -3 -4 -51 -8 -106 -8 -56
1 -105 -3 -111 -9 -12 -12 -350 -3 -358 9 -3 5 -3 48 1 96 4 48 10 126 13 173
13 190 38 476 42 489 2 7 10 11 18 8 7 -3 55 -9 105 -12z m-3506 -553 c54 -41
57 -46 57 -86 0 -58 35 -90 119 -110 70 -16 143 -62 251 -157 75 -65 103 -73
223 -61 43 4 81 4 83 0 14 -23 43 -324 46 -483 l3 -179 -40 -12 c-100 -29 -97
-29 -139 25 -42 57 -79 82 -163 115 -78 30 -128 31 -194 7 -91 -34 -140 -105
-121 -175 10 -36 10 -36 -22 -36 -37 0 -60 13 -359 215 -122 82 -224 150 -226
152 -2 1 13 28 32 60 132 218 284 586 313 758 4 22 9 43 11 48 5 8 33 -10 126
-81z m582 -217 c39 -2 102 -4 140 -5 171 -5 276 -13 268 -21 -7 -7 -88 -27
-251 -60 -23 -5 -78 -9 -122 -10 -85 -3 -86 -2 -180 81 l-35 31 55 -6 c30 -4
87 -8 125 -10z m870 -167 c1 -88 5 -142 12 -149 7 -7 82 -13 202 -17 l191 -5
0 -142 c0 -105 3 -145 13 -153 7 -6 74 -14 149 -18 128 -7 136 -6 146 12 6 11
14 80 18 153 l7 132 146 -6 c80 -3 188 -8 240 -11 129 -6 127 -9 130 158 1 73
5 136 8 141 6 10 235 2 301 -10 l33 -5 -5 -52 c-3 -28 -8 -145 -11 -261 -3
-115 -12 -365 -20 -555 -8 -190 -17 -428 -20 -530 -7 -238 -16 -390 -24 -394
-3 -1 -82 3 -176 10 -93 7 -222 16 -285 20 -63 3 -118 8 -122 11 -7 3 -143 14
-378 29 -58 3 -143 9 -190 13 l-85 6 -6 130 c-10 227 -33 250 -294 295 -66 11
-173 30 -239 42 l-118 22 5 66 c9 93 18 481 20 860 2 179 6 331 11 338 6 9 48
12 174 10 l167 -3 0 -137z m233 126 l52 -7 0 -37 c0 -20 -3 -71 -6 -113 l-7
-77 -104 0 -105 0 3 108 c1 59 4 113 7 120 5 13 73 16 160 6z m640 -20 c9 -3
12 -31 10 -116 l-3 -113 -92 0 c-54 0 -96 -5 -103 -11 -7 -7 -14 -66 -17 -143
-4 -77 -11 -134 -17 -138 -17 -11 -87 -15 -133 -8 l-43 6 0 135 c0 75 -5 144
-10 155 -9 15 -22 19 -65 19 -37 0 -55 4 -56 13 -4 31 2 201 7 208 5 8 495 2
522 -7z m313 -119 c-1 -60 -5 -113 -7 -117 -3 -5 -57 -8 -120 -8 l-114 0 0
113 c0 63 3 117 7 121 4 3 59 5 122 4 l115 -3 -3 -110z m1219 101 c137 -43
454 -189 448 -206 -2 -5 -73 -85 -158 -177 -169 -181 -290 -322 -290 -335 0
-4 -5 -8 -11 -8 -10 0 -193 90 -314 154 -27 15 -95 47 -150 72 -55 25 -101 47
-103 49 -11 11 43 72 226 258 l206 207 50 0 c28 0 71 -7 96 -14z m-402 -15
l94 -1 -144 -149 c-163 -170 -222 -255 -215 -312 8 -63 78 -147 276 -334 106
-99 196 -181 201 -183 19 -7 10 -31 -18 -51 -42 -30 -333 -346 -396 -430 -54
-72 -60 -87 -57 -141 2 -26 48 -148 63 -164 4 -6 8 -13 8 -16 0 -9 -206 -4
-220 5 -7 5 -9 24 -6 54 3 25 8 134 11 241 3 107 7 220 10 250 2 30 7 145 10
255 7 262 24 723 30 805 2 36 4 91 5 122 l0 57 78 3 c42 2 100 0 127 -4 28 -3
92 -7 143 -7z m-2454 -231 c1 -96 0 -240 -3 -319 l-6 -144 -69 -24 c-39 -12
-73 -20 -77 -16 -4 5 -9 116 -12 248 -3 132 -11 273 -17 314 -7 46 -8 77 -2
83 14 14 112 37 150 35 l33 -2 3 -175z m3606 -133 c122 -82 173 -121 254 -197
91 -85 154 -151 183 -193 24 -35 25 -40 14 -80 -19 -62 -83 -210 -134 -307
-135 -260 -412 -711 -435 -710 -4 0 -21 24 -39 53 -61 100 -211 293 -274 352
-101 93 -347 244 -482 294 l-29 11 151 146 c84 81 151 154 151 164 0 10 -17
32 -37 50 -25 23 -34 36 -27 45 12 17 172 200 215 246 19 20 83 88 143 153
l109 116 66 -36 c36 -20 113 -68 171 -107z m-5546 2 c207 -57 292 -89 372
-139 155 -97 478 -315 481 -325 2 -6 -11 -16 -29 -23 -29 -11 -39 -9 -93 17
-203 96 -327 161 -455 237 -154 91 -400 250 -400 259 0 8 8 7 124 -26z m4313
-186 c77 -35 468 -246 483 -260 13 -12 8 -21 -42 -69 l-58 -56 -33 29 c-163
138 -397 354 -397 368 0 8 7 6 47 -12z m-2926 -184 c59 -33 120 -111 158 -203
30 -73 54 -196 43 -224 -4 -11 -57 -13 -261 -10 l-256 3 -75 40 c-122 65 -188
152 -146 193 40 40 208 5 329 -68 36 -22 71 -40 76 -40 24 0 8 47 -38 109 -74
101 -86 135 -61 181 30 55 148 65 231 19z m545 -226 c-8 -212 -13 -243 -34
-242 -10 0 -64 6 -121 12 l-104 12 -4 75 c-3 67 -19 147 -37 191 -6 13 8 21
66 42 86 30 219 74 231 76 5 0 6 -74 3 -166z m2730 -272 c146 -71 360 -207
412 -263 l22 -24 -37 -45 c-170 -201 -283 -321 -297 -316 -6 3 -83 49 -171
103 -88 55 -206 122 -262 149 -56 28 -102 54 -103 58 -1 29 316 377 344 377 7
0 48 -17 92 -39z m-2781 -70 c246 -24 475 -57 535 -75 25 -8 64 -19 87 -25 38
-10 44 -16 53 -52 19 -69 14 -671 -6 -877 -6 -60 -8 -63 -56 -98 -58 -43 -78
-79 -112 -205 -14 -52 -30 -110 -36 -129 -22 -71 -43 -150 -91 -355 -70 -294
-87 -376 -105 -487 -18 -111 -14 -126 53 -190 63 -61 313 -245 378 -278 54
-27 235 -84 355 -111 80 -18 292 -39 403 -39 106 0 109 1 137 29 21 21 31 42
36 80 4 28 9 51 11 51 3 0 28 -15 56 -34 118 -78 232 -125 389 -162 98 -23
128 -25 228 -21 63 3 126 10 140 15 14 6 50 18 81 27 82 24 140 85 147 153 5
62 -10 112 -49 153 -16 17 -29 32 -29 34 0 1 35 6 78 10 178 15 281 56 337
133 37 51 51 110 41 168 -8 41 -68 112 -102 120 -38 10 -29 18 42 38 248 71
446 270 405 407 -7 23 -25 48 -44 62 -101 76 -465 161 -867 203 -79 8 -146 17
-148 18 -2 3 106 67 260 155 25 14 39 13 162 -8 73 -12 153 -25 177 -27 24 -3
88 -11 142 -19 120 -18 120 -18 212 88 112 130 276 248 399 289 33 11 91 22
127 25 64 5 68 4 84 -21 31 -46 0 -130 -106 -287 -32 -48 -84 -115 -115 -148
-49 -54 -55 -64 -43 -76 16 -16 15 -17 126 52 72 45 203 93 250 93 64 0 67
-35 13 -145 -47 -96 -161 -230 -273 -324 -51 -42 -77 -71 -77 -85 -1 -31 -19
-275 -24 -323 -62 -543 -156 -815 -348 -999 -110 -106 -191 -150 -428 -234
-188 -66 -270 -88 -620 -165 -349 -76 -981 -112 -1508 -86 -390 20 -572 43
-927 121 -385 84 -662 214 -775 364 -91 121 -170 315 -203 501 -23 125 -37
228 -37 268 0 31 4 35 38 45 21 7 47 21 57 32 10 11 21 20 26 20 4 0 12 -22
19 -50 17 -72 61 -127 124 -156 46 -21 59 -23 108 -14 31 5 74 18 96 29 57 29
125 110 158 188 28 65 29 74 29 228 0 126 -4 173 -19 220 -10 33 -22 65 -27
71 -7 8 6 23 40 49 79 57 168 161 208 242 32 65 36 81 35 150 0 56 -7 98 -25
149 -53 153 -112 266 -167 324 -93 98 -167 116 -520 126 -113 3 -210 7 -216 9
-8 2 -8 24 2 77 7 40 13 117 13 170 1 120 -14 159 -74 188 -82 40 -145 18
-168 -57 -30 -98 -36 -130 -42 -203 -5 -67 -1 -97 20 -166 6 -20 2 -21 -66
-28 -45 -4 -76 -3 -83 4 -9 9 3 241 19 356 2 17 7 60 10 95 10 105 43 280 55
294 36 43 351 64 905 60 336 -3 474 -8 630 -24z m3343 -374 c38 -51 91 -125
117 -165 l47 -74 -33 -46 c-89 -128 -230 -312 -236 -312 -5 1 -72 79 -150 175
l-142 173 96 104 c52 56 122 136 155 175 33 40 64 70 69 68 4 -3 39 -47 77
-98z m-925 -3 c28 -15 103 -58 167 -97 206 -124 279 -167 287 -167 4 -1 28
-26 53 -57 25 -31 92 -113 149 -181 103 -123 104 -125 70 -119 -50 10 -260
116 -365 185 -172 113 -310 252 -389 393 -19 33 -35 63 -35 65 0 8 11 4 63
-22z m-1288 -114 c290 -20 615 -41 753 -47 78 -3 145 -10 148 -15 3 -5 2 -60
-2 -122 l-7 -114 -196 -120 c-108 -66 -246 -149 -307 -185 -61 -35 -142 -85
-180 -111 -80 -53 -67 -52 -324 -31 -200 17 -330 34 -330 44 1 6 192 125 544
337 111 67 202 128 204 137 2 9 -6 21 -18 27 -17 9 -39 2 -143 -51 -67 -34
-171 -90 -232 -124 l-110 -62 -78 10 -79 10 6 66 c3 36 5 135 6 220 l0 154
103 -7 c56 -3 165 -11 242 -16z m1300 -135 c39 -47 109 -117 158 -156 l87 -70
0 -83 c0 -46 -3 -110 -6 -143 -5 -50 -11 -62 -33 -75 -14 -9 -53 -33 -86 -53
-33 -21 -127 -78 -209 -127 -228 -136 -528 -328 -558 -356 -38 -35 -51 -83
-97 -340 -21 -123 -41 -226 -45 -229 -3 -3 -74 38 -158 92 -84 54 -191 122
-237 152 -47 29 -86 55 -88 56 -1 2 11 73 28 158 39 197 35 177 58 299 11 58
23 122 26 143 7 43 -14 28 315 227 124 75 283 172 353 214 76 46 132 87 137
100 6 18 18 164 20 243 0 26 7 27 155 31 l110 3 70 -86z m-3347 -234 c129 -6
251 -15 273 -21 66 -18 111 -68 172 -193 67 -134 89 -199 91 -269 l1 -53 -145
-12 c-224 -18 -534 -31 -645 -27 -55 2 -284 14 -509 26 l-408 22 -9 24 c-15
40 11 274 37 324 15 29 59 66 112 92 89 45 331 83 562 89 47 1 119 3 160 5 41
1 180 -2 308 -7z m1742 -131 c0 -6 -44 -30 -55 -30 -7 0 -6 35 0 42 8 7 55 -3
55 -12z m101 -295 c140 -14 262 -28 271 -31 13 -4 15 -10 8 -32 -5 -15 -14
-58 -19 -97 -6 -38 -27 -151 -47 -250 -20 -99 -38 -195 -41 -213 -4 -24 -10
-31 -22 -28 -25 7 -124 23 -374 61 -126 19 -232 37 -236 39 -11 7 105 468 136
544 16 40 -1 39 324 7z m-1321 -192 c0 -17 -104 -144 -151 -187 -64 -58 -172
-111 -269 -133 -104 -24 -337 -21 -550 6 -270 34 -275 37 -285 175 -4 52 -4
100 0 106 6 9 34 11 103 7 52 -4 96 -8 97 -9 2 -2 0 -23 -5 -48 -9 -47 4 -94
31 -117 43 -35 113 -46 294 -47 173 -1 183 0 254 26 96 36 155 75 225 148 l57
60 77 9 c105 12 122 12 122 4z m2982 -68 c293 -29 662 -119 719 -176 52 -52
-17 -160 -161 -251 -91 -58 -279 -102 -485 -115 -142 -9 -125 -39 40 -73 190
-39 281 -94 279 -170 -2 -55 -34 -94 -112 -132 l-67 -33 -180 -2 c-99 0 -205
2 -235 7 -60 8 -89 -2 -70 -26 6 -7 49 -31 96 -54 46 -23 106 -63 134 -89 44
-41 50 -52 50 -87 0 -31 -6 -46 -27 -66 -68 -63 -147 -82 -311 -75 -108 4
-141 10 -222 37 -121 41 -181 68 -267 118 -118 70 -110 34 -64 297 90 507 120
658 138 677 9 10 71 52 137 93 67 41 144 91 171 110 l50 35 120 -5 c66 -3 186
-12 267 -20z m-3223 -342 c22 -99 28 -155 27 -245 -2 -132 -23 -187 -101 -265
-73 -73 -125 -94 -175 -68 -56 29 -98 128 -107 252 -5 70 -9 83 -23 83 -11 0
-27 -17 -40 -42 -62 -122 -169 -167 -277 -119 -109 50 -95 198 34 340 l53 59
147 -5 c162 -6 294 7 377 36 73 26 73 26 85 -26z m1186 -29 c66 -8 528 -84
531 -87 1 -1 -4 -31 -11 -67 -7 -36 -26 -144 -41 -240 -15 -96 -29 -178 -33
-182 -3 -4 -89 10 -191 31 -266 55 -405 81 -435 81 -29 0 -31 15 -15 83 5 23
26 118 46 212 19 93 38 173 41 178 3 4 17 6 31 3 15 -3 50 -8 77 -12z m1026
-386 l56 -36 -23 -114 c-13 -62 -31 -161 -40 -219 -20 -132 -23 -137 -60 -111
-16 11 -121 75 -234 142 -113 68 -207 124 -209 126 -5 5 14 138 39 264 10 52
21 118 25 145 12 93 -2 95 203 -39 103 -68 212 -139 243 -158z m-1063 -168
c189 -38 466 -90 480 -90 15 0 461 -261 462 -270 0 -11 -169 2 -285 21 -193
31 -348 73 -423 115 -104 57 -363 244 -339 244 5 0 52 -9 105 -20z m-1693
-1123 c100 -104 187 -224 321 -446 133 -219 146 -237 162 -227 18 11 15 29
-14 93 l-25 58 73 70 c41 38 156 144 256 233 l183 164 149 -28 c83 -15 150
-30 150 -33 0 -3 -95 -96 -211 -206 -223 -211 -439 -430 -439 -444 0 -5 17
-24 39 -42 294 -255 300 -264 182 -260 -234 8 -923 229 -1205 387 -98 54 -156
98 -156 117 0 17 228 0 314 -22 81 -22 116 -26 116 -15 0 4 -82 91 -182 193
-272 277 -360 395 -280 377 87 -20 291 -144 451 -275 125 -101 119 -97 132
-84 8 8 5 21 -9 49 -18 36 -82 200 -96 251 -4 11 -11 46 -16 77 -18 110 9 113
105 13z m3761 -219 c206 -226 213 -233 226 -220 9 9 8 21 -5 47 -9 20 -17 42
-17 51 0 20 174 189 210 204 46 19 60 8 60 -49 0 -111 -86 -461 -151 -615 -64
-149 -62 -147 -204 -248 -145 -104 -353 -214 -475 -252 -75 -24 -100 -24 -100
-1 0 25 93 139 216 265 160 164 162 177 18 131 -129 -42 -331 -74 -431 -69
-46 2 -86 8 -90 12 -18 18 79 76 353 212 160 79 298 144 306 144 9 0 21 -7 29
-16 20 -24 96 -74 113 -74 39 0 21 29 -80 132 -99 100 -350 332 -433 401 -18
15 -31 30 -28 33 3 3 40 12 83 19 44 8 111 21 149 28 39 8 79 15 91 16 14 1
61 -44 160 -151z"/>
<path d="M6409 9640 c-21 -17 -22 -21 -9 -30 8 -6 24 -8 35 -5 11 2 29 5 40 5
11 0 26 4 34 9 12 8 12 12 2 25 -19 22 -74 20 -102 -4z"/>
<path d="M4478 9389 c-36 -21 -21 -39 33 -39 47 0 50 2 47 23 -2 16 -10 23
-33 24 -16 2 -38 -2 -47 -8z"/>
<path d="M5494 9326 c-45 -45 -44 -59 4 -50 68 12 92 40 60 72 -18 18 -27 15
-64 -22z"/>
<path d="M5320 9338 c-49 -18 -82 -88 -41 -88 21 0 67 33 81 60 14 25 -7 40
-40 28z"/>
<path d="M6340 9303 c-58 -19 -164 -60 -208 -79 -29 -13 -57 -24 -62 -24 -11
0 -394 -141 -535 -197 -49 -19 -146 -62 -214 -94 -68 -32 -126 -59 -129 -59
-3 0 -2 38 0 85 3 47 2 85 -2 85 -22 0 -43 -45 -52 -117 -17 -135 7 -349 51
-448 16 -35 17 -51 9 -106 -21 -138 17 -303 100 -428 100 -150 337 -250 547
-230 212 20 394 104 515 236 97 106 158 283 147 432 -6 92 -45 218 -91 294
-19 31 -31 59 -27 61 4 3 33 14 64 26 82 31 90 54 61 185 -8 39 -26 122 -39
185 -37 177 -38 180 -105 195 -8 2 -22 1 -30 -2z m22 -115 c3 -13 17 -75 32
-138 41 -183 45 -208 31 -220 -7 -5 -83 -28 -170 -51 -87 -22 -177 -46 -199
-54 -23 -7 -77 -23 -121 -35 -79 -22 -120 -34 -345 -104 -63 -19 -155 -45
-205 -56 -49 -12 -97 -23 -106 -26 -14 -4 -20 9 -33 68 -22 100 -26 117 -32
165 l-7 41 64 30 c117 54 262 114 424 174 88 32 228 84 310 115 168 63 312
111 336 112 10 1 19 -9 21 -21z m-21 -566 c100 -172 112 -371 31 -530 -104
-206 -323 -328 -579 -325 -166 2 -303 52 -393 142 -61 61 -117 175 -131 266
-11 67 -8 203 6 236 3 10 33 22 78 32 268 62 349 82 487 123 216 65 432 123
450 121 8 -1 31 -30 51 -65z"/>
<path d="M5445 8346 c-54 -24 -69 -51 -73 -129 -11 -209 76 -322 205 -268 35
14 52 46 60 113 7 57 -13 189 -34 236 -27 56 -93 77 -158 48z"/>
<path d="M3892 9122 c-35 -49 -111 -325 -112 -404 0 -56 14 -69 100 -88 30 -7
58 -14 62 -17 4 -2 -8 -23 -26 -47 -29 -39 -55 -100 -95 -227 -18 -56 -13
-177 10 -265 50 -190 167 -308 369 -370 75 -23 98 -26 190 -22 97 4 112 7 184
42 58 28 97 57 148 107 119 120 168 255 168 470 0 85 4 124 16 148 l16 31 25
-20 c37 -29 103 -27 132 4 31 33 20 46 -39 46 -45 0 -51 3 -66 31 -19 38 -22
184 -5 286 36 219 39 239 30 256 -8 13 -14 15 -29 7 -17 -9 -35 -68 -65 -217
-4 -18 -10 -33 -15 -33 -4 0 -218 70 -475 155 -257 85 -475 155 -485 155 -10
0 -28 -13 -38 -28z m388 -169 c146 -47 331 -107 413 -134 81 -27 154 -49 162
-49 9 0 18 -6 21 -13 4 -13 -32 -242 -41 -257 -3 -5 -22 -4 -42 2 -20 5 -113
27 -207 48 -94 21 -250 58 -346 83 -96 24 -209 52 -250 61 -91 21 -110 31
-110 57 0 55 52 260 73 287 13 17 9 18 327 -85z m-120 -397 c88 -21 369 -89
420 -102 8 -2 61 -14 117 -27 55 -14 106 -28 112 -31 16 -10 13 -158 -4 -240
-23 -110 -66 -189 -142 -265 -89 -88 -158 -122 -267 -128 -365 -23 -599 308
-465 657 39 103 84 173 107 166 9 -3 64 -16 122 -30z"/>
<path d="M4590 8323 c-51 -19 -82 -86 -95 -208 -10 -94 25 -158 92 -171 54
-10 89 11 119 71 31 64 43 182 24 239 -19 57 -84 89 -140 69z"/>
<path d="M6453 7878 c-133 -176 -243 -238 -420 -238 -77 0 -89 -9 -49 -35 35
-23 64 -29 132 -28 132 1 302 121 372 262 57 114 38 135 -35 39z"/>
<path d="M4019 7673 c17 -33 66 -72 121 -97 64 -30 79 -31 106 -12 17 13 17
16 4 30 -8 8 -52 29 -96 45 -45 16 -91 34 -102 40 -31 17 -44 14 -33 -6z"/>
<path d="M5165 7644 c-272 -40 -496 -102 -622 -170 -170 -93 -188 -125 -188
-344 0 -125 3 -150 18 -174 19 -28 19 -28 95 -21 43 4 93 9 112 10 19 2 82 8
140 14 309 33 639 33 805 1 28 -5 59 -9 70 -9 11 0 70 -7 130 -16 61 -9 146
-19 191 -22 80 -6 81 -5 103 23 21 26 23 36 18 99 -9 107 -78 280 -144 363
-77 95 -232 196 -352 228 -55 15 -314 27 -376 18z m530 -378 c111 -21 179 -42
199 -65 17 -19 56 -146 56 -183 0 -22 -12 -22 -156 -4 -60 8 -147 17 -194 21
-47 3 -103 8 -125 10 -22 2 -111 7 -197 11 -87 4 -158 10 -158 13 0 5 188 133
229 156 8 4 44 18 80 31 77 28 151 30 266 10z"/>
<path d="M3876 7154 c-9 -23 -7 -92 2 -98 23 -14 57 68 40 98 -11 20 -34 21
-42 0z"/>
<path d="M6416 7103 c-12 -12 -6 -100 10 -154 18 -61 27 -74 46 -66 26 10 -7
209 -36 220 -8 3 -17 3 -20 0z"/>
<path d="M4020 6965 c-15 -40 -13 -85 5 -85 22 0 47 45 43 77 -4 38 -35 43
-48 8z"/>
<path d="M7742 9448 c-6 -6 -12 -29 -12 -50 0 -31 4 -38 19 -38 25 0 28 6 32
55 4 42 -14 58 -39 33z"/>
<path d="M7131 8908 c-5 -13 -10 -61 -12 -108 -4 -85 -4 -85 21 -85 22 0 25 6
33 49 4 27 7 74 5 105 -2 44 -7 57 -20 59 -11 2 -21 -5 -27 -20z"/>
<path d="M8147 8864 c-26 -26 31 -67 85 -62 39 4 46 22 16 42 -28 18 -90 30
-101 20z"/>
<path d="M7269 8568 c0 -2 -3 -12 -6 -23 -3 -11 -8 -44 -10 -72 -4 -44 -2 -54
13 -60 29 -11 45 24 42 92 -2 48 -7 60 -20 63 -10 2 -18 2 -19 0z"/>
<path d="M7940 8515 c-5 -14 -10 -49 -10 -76 0 -42 3 -49 20 -49 14 0 21 9 25
33 15 80 -12 152 -35 92z"/>
<path d="M8113 8183 c-8 -20 16 -41 54 -49 25 -5 34 -3 39 10 9 23 -6 36 -50
46 -29 6 -39 5 -43 -7z"/>
<path d="M7220 7744 c-24 -28 24 -51 98 -45 22 2 14 48 -10 55 -40 10 -75 7
-88 -10z"/>
<path d="M7543 7284 c-9 -24 12 -37 72 -42 53 -4 55 -4 55 20 0 22 -5 26 -46
32 -67 9 -74 8 -81 -10z"/>
<path d="M4456 4988 c-3 -13 -8 -131 -11 -263 -3 -132 -10 -303 -15 -380 -5
-77 -14 -237 -20 -355 -5 -118 -12 -273 -16 -345 -3 -71 -7 -143 -9 -158 -5
-43 6 -97 20 -97 24 0 33 26 40 115 4 50 9 104 11 120 5 35 28 447 44 760 12
245 15 599 5 615 -12 19 -44 11 -49 -12z"/>
<path d="M4051 4864 c-63 -26 -107 -180 -99 -342 6 -110 23 -147 85 -174 58
-25 103 -18 137 23 29 35 41 72 56 187 11 83 1 212 -19 250 -28 52 -106 79
-160 56z"/>
<path d="M3584 2485 c-9 -35 12 -135 41 -201 83 -188 307 -327 434 -269 42 19
76 58 87 99 3 14 8 26 11 26 2 0 41 -18 86 -39 212 -101 387 -68 387 74 0 31
-8 45 -46 84 -43 43 -47 44 -60 27 -11 -16 -10 -24 6 -57 42 -80 12 -114 -95
-107 -78 5 -198 62 -294 139 -89 71 -114 64 -80 -24 25 -64 24 -90 -7 -126
-75 -89 -254 15 -362 210 -23 42 -48 100 -55 130 -16 61 -42 78 -53 34z"/>
<path d="M3475 4194 c-19 -20 -27 -52 -23 -95 4 -45 28 -44 50 1 33 66 14 134
-27 94z"/>
</g>
</svg>
