<?xml version="1.0" encoding="UTF-8" standalone="yes"?>
<svg version="1.0" xmlns="http://www.w3.org/2000/svg" width="1024.000000pt" height="1024.000000pt" viewBox="0 0 1024.000000 1024.000000" preserveAspectRatio="xMidYMid meet">
  <metadata>
Created by potrace 1.16, written by Peter Selinger 2001-2019
</metadata>
  <g transform="translate(0.000000,1024.000000) scale(0.100000,-0.100000)" fill="#000000" stroke="none">
    <path d="M5065 10006 c-17 -7 -46 -31 -65 -52 -37 -43 -119 -209 -170 -347&#xA;-23 -62 -40 -92 -54 -97 -12 -5 -86 -13 -166 -19 -170 -13 -321 -37 -369 -59&#xA;-73 -34 -92 -120 -42 -190 31 -42 157 -156 278 -251 40 -31 72 -64 73 -73 0&#xA;-10 -21 -102 -46 -205 -52 -210 -64 -310 -43 -349 15 -29 57 -54 89 -54 43 0&#xA;-250 -339 -536 -621 -262 -259 -442 -409 -779 -654 -202 -146 -258 -194 -281&#xA;-237 -42 -80 12 -161 150 -224 92 -42 152 -55 289 -61 70 -3 127 -8 127 -10 0&#xA;-2 -37 -61 -81 -131 -220 -344 -426 -599 -695 -862 -139 -135 -196 -184 -448&#xA;-380 -163 -126 -199 -216 -121 -308 55 -65 227 -130 390 -147 54 -5 163 2 299&#xA;21 l49 7 -40 -59 c-60 -88 -319 -381 -469 -529 -238 -237 -402 -369 -736 -594&#xA;-223 -150 -263 -188 -273 -255 -18 -120 115 -228 353 -289 73 -18 113 -21 244&#xA;-21 l157 2 -21 -28 c-23 -31 -211 -202 -309 -281 -86 -69 -237 -170 -385 -257&#xA;-191 -112 -238 -186 -185 -291 41 -79 122 -130 265 -166 l91 -23 5 -156 5&#xA;-156 29 -23 29 -23 -8 -386 c-5 -271 -4 -391 4 -405 14 -27 653 -346 690 -345&#xA;14 0 89 15 166 32 77 17 172 37 210 45 39 8 182 37 319 65 137 27 253 50 257&#xA;50 5 0 9 -29 9 -63 0 -48 4 -68 18 -79 9 -9 103 -47 207 -86 105 -39 278 -105&#xA;385 -147 107 -41 209 -76 226 -77 52 -2 874 201 900 223 11 9 14 40 14 130 l0&#xA;119 133 0 c122 1 213 8 312 25 l40 7 3 -69 c2 -48 8 -73 20 -84 9 -9 123 -53&#xA;252 -99 129 -45 288 -103 354 -127 l119 -45 526 137 c289 75 543 141 563 146&#xA;53 14 68 40 68 122 0 51 3 68 13 64 49 -18 780 -207 803 -207 16 0 101 24 189&#xA;54 88 30 274 91 413 136 198 64 255 86 267 104 13 19 16 129 22 743 l6 721&#xA;-23 12 c-13 7 -100 25 -193 41 -94 16 -173 32 -176 34 -2 3 5 15 16 28 57 62&#xA;90 187 73 275 -22 120 -94 193 -204 208 -57 8 -167 -24 -225 -66 -42 -31 -43&#xA;-31 -69 -14 -15 10 -90 81 -167 158 l-140 141 110 6 c326 18 580 176 533 331&#xA;-18 62 -67 108 -260 246 -251 180 -411 314 -627 526 -257 253 -388 405 -576&#xA;665 l-38 53 79 -8 c299 -32 585 54 649 196 18 40 18 42 -1 87 -22 53 -64 91&#xA;-280 250 -334 246 -692 605 -964 967 -39 51 -70 96 -70 99 0 4 51 7 113 7 314&#xA;1 557 146 483 288 -21 41 -58 71 -213 175 -284 190 -466 339 -684 557 -205&#xA;207 -421 465 -603 723 l-48 67 37 0 c29 0 45 8 71 34 51 51 47 96 -35 401 -23&#xA;82 -41 161 -41 175 0 21 15 39 67 81 92 73 239 215 274 263 22 30 29 50 29 86&#xA;0 111 -77 139 -467 171 l-151 12 -28 66 c-52 126 -154 320 -186 357 -53 60&#xA;-112 77 -173 50z m100 -172 c17 -22 68 -120 114 -219 45 -99 89 -186 96 -193&#xA;13 -14 52 -20 340 -47 166 -16 205 -25 205 -46 0 -18 -100 -115 -235 -227 -83&#xA;-68 -131 -115 -133 -129 -3 -22 41 -205 99 -412 19 -69 26 -108 19 -115 -13&#xA;-13 -70 15 -314 151 -148 83 -210 113 -236 113 -25 0 -88 -30 -240 -114 -198&#xA;-111 -268 -146 -290 -146 -17 0 -12 27 52 267 51 193 59 237 50 257 -6 13 -86&#xA;85 -179 159 -92 74 -176 144 -186 155 -18 20 -18 20 0 26 32 10 204 35 350 51&#xA;78 8 154 20 168 27 29 13 48 46 120 213 88 204 133 281 159 272 6 -2 25 -21&#xA;41 -43z m122 -1350 c87 -48 161 -92 165 -98 75 -127 446 -616 545 -718 45 -46&#xA;46 -47 33 -80 -92 -232 -383 -529 -732 -748 -349 -219 -860 -404 -1242 -451&#xA;-110 -13 -347 -7 -412 11 l-41 12 53 96 c52 95 63 125 46 136 -5 3 -64 0 -131&#xA;-6 -201 -18 -392 13 -459 75 -47 44 -42 49 283 287 422 308 674 536 1001 905&#xA;90 101 254 308 319 402 50 71 51 72 225 167 96 53 178 96 182 96 5 0 79 -39&#xA;165 -86z m953 -1086 c1 -17 -108 -122 -148 -141 -44 -21 -46 -24 -58 -83 -16&#xA;-79 -51 -147 -108 -211 -57 -63 -115 -93 -183 -93 -60 0 -77 -16 -87 -78 -17&#xA;-110 -106 -221 -227 -281 -99 -50 -164 -59 -247 -36 -73 21 -77 18 -121 -59&#xA;-58 -104 -178 -176 -307 -184 -65 -4 -80 -1 -127 22 -30 14 -60 26 -67 26 -7&#xA;0 -43 -29 -80 -64 -84 -79 -162 -117 -251 -124 -87 -6 -132 10 -195 70 l-51&#xA;48 -37 -25 c-66 -45 -97 -56 -165 -62 -91 -8 -164 14 -224 68 -26 22 -47 47&#xA;-47 55 0 27 44 84 60 77 112 -48 335 -65 521 -39 304 43 736 185 1034 340 296&#xA;155 468 278 675 486 146 145 225 248 287 372 l28 58 62 -68 c34 -37 62 -70 63&#xA;-74z m182 -153 c144 -124 299 -240 473 -355 205 -136 212 -145 155 -194 -50&#xA;-41 -150 -67 -280 -73 -98 -4 -134 -1 -244 21 -147 30 -160 27 -132 -31 32&#xA;-68 150 -236 268 -384 318 -400 596 -668 961 -927 165 -117 192 -144 176 -173&#xA;-14 -27 -74 -65 -144 -90 -47 -17 -90 -23 -197 -27 -153 -5 -239 8 -391 59&#xA;-107 35 -117 36 -117 6 0 -52 207 -355 394 -577 106 -126 364 -408 383 -418&#xA;32 -18 -179 -178 -344 -260 -416 -210 -947 -274 -1618 -196 -814 94 -1658 403&#xA;-2260 827 -164 116 -355 275 -355 297 0 4 24 35 54 68 100 112 88 142 -36 89&#xA;-98 -42 -253 -81 -392 -98 -265 -32 -539 53 -486 151 6 11 74 68 151 126 78&#xA;58 187 145 242 194 231 199 509 513 712 805 26 39 50 72 51 74 2 2 26 -17 54&#xA;-42 115 -104 307 -124 438 -46 l34 19 36 -28 c56 -44 99 -63 156 -69 111 -11&#xA;265 48 357 138 l50 49 59 -20 c100 -34 194 -23 324 38 76 35 137 89 173 149&#xA;21 36 30 43 47 39 92 -26 195 -8 317 55 121 63 227 188 248 292 6 28 12 32 64&#xA;44 31 7 76 22 99 34 89 46 173 164 212 300 14 49 24 62 69 95 29 22 66 60 82&#xA;86 17 26 33 47 38 47 4 1 57 -42 119 -94z m-3307 -2611 c211 -185 363 -296&#xA;599 -436 643 -382 1492 -642 2286 -699 326 -23 710 1 975 63 285 66 599 222&#xA;775 385 l60 55 75 -68 c41 -37 75 -69 75 -71 0 -12 -53 -102 -73 -125 -100&#xA;-110 -262 -161 -425 -133 -59 10 -77 0 -97 -50 -25 -67 -102 -146 -182 -186&#xA;-65 -33 -73 -34 -178 -34 -106 0 -113 1 -189 38 -81 38 -106 45 -106 26 0 -25&#xA;-103 -118 -163 -145 -56 -26 -72 -29 -167 -29 -93 0 -111 3 -163 27 -31 15&#xA;-82 51 -113 80 -40 38 -59 50 -69 43 -147 -105 -191 -120 -335 -113 -121 6&#xA;-197 42 -290 140 l-69 72 -48 -23 c-130 -64 -223 -80 -332 -57 -150 32 -277&#xA;118 -322 221 -11 25 -26 45 -32 45 -7 0 -38 -9 -69 -20 -147 -52 -279 -47&#xA;-391 12 -75 40 -128 101 -162 186 -40 99 -39 97 -76 95 -19 -2 -81 -4 -139 -5&#xA;-90 -2 -113 1 -165 22 -111 43 -224 187 -225 283 0 38 -15 48 -92 62 -41 7&#xA;-92 22 -114 33 -53 27 -130 111 -154 168 -34 79 -34 86 5 132 20 23 40 42 43&#xA;42 4 -1 25 -17 47 -36z m-166 -203 c40 -62 135 -152 191 -182 25 -12 69 -28&#xA;99 -34 l54 -11 22 -61 c76 -212 259 -327 489 -309 l81 7 32 -68 c65 -140 197&#xA;-233 364 -254 74 -10 94 -9 169 9 47 11 92 23 101 27 12 5 25 -7 47 -44 55&#xA;-88 189 -176 314 -206 121 -28 251 -14 355 39 l47 23 56 -56 c96 -97 226 -151&#xA;365 -151 89 0 158 19 241 64 l66 37 36 -32 c65 -57 213 -109 312 -109 100 0&#xA;227 52 310 127 51 46 52 46 79 30 82 -48 221 -59 346 -27 125 32 197 81 276&#xA;190 l48 65 73 -3 c202 -9 376 79 477 239 l37 58 35 -28 c18 -15 115 -86 214&#xA;-156 240 -170 285 -209 285 -245 0 -20 -8 -35 -27 -48 -56 -39 -135 -73 -221&#xA;-93 -78 -19 -107 -21 -275 -16 -210 5 -215 4 -179 -57 40 -68 177 -231 304&#xA;-362 l129 -132 -67 -92 -68 -91 -22 60 c-51 143 -147 258 -260 312 -172 82&#xA;-310 31 -399 -148 -57 -113 -35 -230 56 -305 l42 -35 -164 -31 c-90 -17 -183&#xA;-34 -206 -38 -73 -11 -78 -19 -81 -133 l-4 -101 -34 0 c-44 0 -219 26 -309 45&#xA;-160 35 -298 95 -460 200 -120 77 -119 77 -122 -104 -2 -127 -4 -146 -25 -183&#xA;-33 -59 -77 -80 -158 -76 -83 4 -187 52 -285 131 -38 31 -78 57 -87 57 -10 0&#xA;-32 -17 -50 -37 -163 -183 -304 -250 -508 -241 -104 5 -175 28 -276 89 -66 41&#xA;-168 138 -214 204 -41 59 -80 167 -80 221 0 25 -6 47 -15 54 -13 10 -31 -3&#xA;-114 -82 -140 -135 -309 -243 -440 -282 -110 -32 -194 -14 -238 53 -30 45 -31&#xA;134 -2 226 18 59 19 70 6 82 -12 12 -22 9 -75 -22 -150 -88 -418 -163 -555&#xA;-156 -28 1 -28 2 20 40 182 144 224 336 104 473 -116 132 -308 118 -444 -32&#xA;-44 -49 -160 -234 -181 -290 -4 -10 -20 -15 -51 -15 -25 0 -45 3 -45 7 0 4&#xA;-29 38 -64 76 -112 118 -221 158 -357 130 -41 -8 -83 -19 -94 -23 -11 -5 5 13&#xA;35 40 116 102 389 382 419 429 57 91 41 102 -81 62 -219 -71 -502 -74 -680 -7&#xA;-76 29 -121 61 -133 95 -9 26 -6 31 30 63 22 19 132 97 245 173 113 76 270&#xA;192 350 257 173 141 482 448 635 630 61 73 113 132 116 132 4 1 21 -21 38 -48z&#xA;m4901 -1676 c114 -58 170 -146 206 -324 13 -64 23 -120 24 -126 0 -5 -17 24&#xA;-37 65 -48 100 -136 188 -216 218 -88 33 -117 26 -117 -28 0 -32 18 -49 85&#xA;-83 28 -14 66 -43 86 -64 36 -38 79 -96 79 -106 0 -10 -193 59 -256 91 -101&#xA;51 -155 134 -140 215 8 45 62 125 100 149 38 24 133 20 186 -7z m843 -17 c26&#xA;-13 48 -42 64 -83 43 -111 -39 -254 -173 -304 -59 -23 -274 -75 -280 -69 -7 8&#xA;106 91 156 114 120 55 124 58 133 91 14 46 4 63 -37 63 -72 0 -183 -61 -288&#xA;-158 -32 -30 -58 -51 -58 -48 0 20 163 250 211 299 90 90 206 131 272 95z&#xA;m-5615 -12 c31 -16 64 -50 82 -85 19 -36 13 -118 -11 -168 -39 -82 -170 -176&#xA;-322 -233 -32 -12 -60 -20 -62 -18 -2 2 31 52 74 110 114 152 122 173 76 198&#xA;-22 12 -28 10 -61 -15 -31 -24 -97 -106 -130 -161 -10 -17 -12 -17 -27 -2 -10&#xA;9 -17 23 -17 30 0 23 106 205 150 258 72 86 177 123 248 86z m-823 -210 c50&#xA;-23 92 -63 133 -122 21 -31 21 -32 3 -48 -11 -10 -24 -30 -31 -46 l-12 -28&#xA;-59 41 c-51 36 -68 42 -124 45 -71 5 -83 -4 -71 -52 4 -18 21 -30 68 -49 35&#xA;-13 77 -28 94 -31 31 -7 93 -61 82 -71 -8 -8 -177 22 -228 40 -101 36 -180&#xA;125 -180 203 0 39 5 50 39 82 67 63 194 79 286 36z m-421 -51 c-28 -68 -9&#xA;-146 55 -231 l38 -51 -121 -12 c-159 -17 -196 -37 -196 -105 0 -14 -1 -26 -3&#xA;-26 -2 0 -30 5 -62 11 -139 25 -213 101 -152 156 12 11 85 58 162 104 77 46&#xA;171 107 210 136 38 28 73 52 77 52 4 1 0 -15 -8 -34z m775 -184 c82 -77 -6&#xA;-191 -114 -146 -41 17 -57 38 -58 81 -1 29 5 42 31 65 45 40 98 40 141 0z&#xA;m5133 -20 c24 -11 52 -23 63 -27 14 -5 0 -11 -50 -21 -61 -12 -84 -12 -185 3&#xA;-63 8 -116 17 -118 19 -4 4 189 43 220 44 15 1 47 -8 70 -18z m1043 -22 l100&#xA;-13 -75 -18 c-66 -17 -86 -17 -167 -7 -51 7 -93 15 -93 19 0 10 93 39 115 35&#xA;11 -2 65 -9 120 -16z m-5203 -55 c-15 -123 92 -235 237 -250 148 -16 359 76&#xA;558 243 56 47 63 50 63 28 0 -8 23 -59 52 -114 l52 -99 -13 -70 -12 -70 -58&#xA;-21 c-31 -11 -73 -33 -94 -48 -40 -31 -111 -118 -142 -176 l-19 -36 -32 68&#xA;c-56 122 -135 187 -238 198 -61 6 -120 -18 -155 -64 -96 -126 -105 -150 -82&#xA;-229 l9 -32 -82 -16 c-136 -27 -121 -62 -118 281 1 164 -2 304 -6 311 -5 7&#xA;-35 20 -68 28 -89 24 -95 30 -44 43 25 7 74 22 110 36 86 31 87 31 82 -11z&#xA;m4753 -23 c72 -11 134 -21 139 -21 48 -1 -165 -50 -219 -50 -30 0 -326 48&#xA;-332 54 -2 2 38 13 89 24 104 24 133 23 323 -7z m-1882 -69 c53 -28 132 -62&#xA;175 -76 97 -33 300 -73 412 -82 l85 -6 -3 -134 c-2 -74 -7 -134 -11 -134 -4 0&#xA;-22 5 -40 11 -27 10 -31 16 -31 47 0 43 -31 116 -63 150 -62 67 -173 85 -256&#xA;42 -53 -27 -120 -88 -167 -152 -20 -26 -41 -48 -48 -48 -7 0 -57 19 -112 41&#xA;-82 35 -114 42 -185 46 -157 9 -231 -36 -247 -153 l-7 -49 -104 -23 c-57 -12&#xA;-105 -21 -108 -19 -19 19 -62 374 -48 396 4 7 18 3 38 -13 124 -93 313 -133&#xA;413 -87 55 25 111 76 135 122 16 32 38 138 39 188 0 12 3 11 18 -2 9 -8 61&#xA;-38 115 -65z m957 53 c80 -14 156 -28 169 -31 l24 -5 -7 -662 c-4 -364 -9&#xA;-663 -10 -664 -1 -1 -30 5 -64 15 l-62 16 0 346 c0 257 -4 351 -13 370 -10 20&#xA;-34 31 -125 59 l-113 35 6 210 c8 292 12 336 34 336 9 0 82 -11 161 -25z&#xA;m1666 -377 c-3 -222 -9 -518 -12 -658 l-7 -255 -106 -34 c-58 -18 -110 -35&#xA;-116 -37 -10 -4 -5 1320 5 1329 6 5 209 55 229 56 11 1 13 -62 7 -401z m-5898&#xA;328 l73 -23 -68 -6 c-54 -5 -85 -2 -153 17 -92 25 -88 33 15 35 38 0 87 -8&#xA;133 -23z m-1054 -5 l60 -18 -85 -12 c-76 -11 -92 -11 -145 5 -32 10 -52 19&#xA;-44 21 14 3 123 19 145 22 6 0 37 -8 69 -18z m5722 -475 c-4 -248 -9 -551 -12&#xA;-674 l-6 -224 -27 7 c-14 3 -50 13 -78 21 l-53 15 0 233 c0 128 3 428 7 667&#xA;l6 435 85 -15 84 -15 -6 -450z m909 -273 l-7 -582 -39 -15 c-42 -17 -73 -21&#xA;-66 -8 3 4 8 304 12 667 4 363 9 662 12 665 2 3 23 10 46 16 l42 10 3 -85 c2&#xA;-48 0 -348 -3 -668z m-5912 710 c37 -10 67 -20 67 -24 0 -3 -30 -9 -66 -13&#xA;-54 -6 -79 -3 -137 16 -61 19 -68 23 -47 29 45 13 114 9 183 -8z m5737 -559&#xA;c-5 -307 -10 -613 -10 -679 l0 -120 -113 -34 c-61 -19 -118 -36 -124 -39 -10&#xA;-3 -13 138 -13 686 l0 690 93 21 c130 29 172 38 174 36 2 -1 -1 -253 -7 -561z&#xA;m-470 522 l115 -21 3 -692 2 -692 -152 41 c-84 22 -156 42 -160 44 -8 5 -1&#xA;996 8 1221 l6 132 32 -6 c17 -4 83 -16 146 -27z m-6259 -17 l129 -40 0 -203 0&#xA;-204 -122 46 c-68 24 -126 47 -130 51 -7 6 -16 391 -10 391 2 0 62 -18 133&#xA;-41z m682 2 c71 -18 78 -31 18 -31 -20 0 -74 -7 -121 -15 -83 -15 -87 -15&#xA;-162 7 -43 13 -78 25 -78 28 0 11 195 38 235 33 22 -3 70 -13 108 -22z m877&#xA;-99 c0 -60 3 -183 6 -273 l7 -165 -74 -11 c-111 -18 -111 -19 -107 -221 l3&#xA;-164 33 -27 32 -27 0 -151 0 -150 -92 -18 c-51 -10 -99 -20 -105 -22 -10 -4&#xA;-13 128 -13 641 0 355 1 646 3 647 1 0 67 11 147 23 80 13 148 24 153 25 4 0&#xA;7 -48 7 -107z m-383 -199 c-4 -137 -7 -428 -7 -649 l0 -401 -84 -16 c-47 -10&#xA;-89 -17 -95 -17 -8 0 -11 195 -11 650 l0 649 33 6 c26 5 104 16 161 24 6 1 7&#xA;-99 3 -246z m-802 174 l70 -24 2 -194 c2 -107 -1 -200 -6 -207 -8 -14 -54 -1&#xA;-188 53 l-43 17 0 204 0 203 48 -14 c26 -8 79 -25 117 -38z m525 -622 l0 -655&#xA;-22 -5 c-56 -14 -352 -74 -352 -72 -1 1 0 300 2 664 3 645 4 662 23 668 14 5&#xA;290 48 342 54 4 1 7 -294 7 -654z m2027 544 c255 -108 471 -117 687 -28 39 17&#xA;75 31 81 32 5 1 21 -61 35 -138 21 -116 23 -142 12 -150 -26 -20 -32 -93 -32&#xA;-402 l0 -312 -52 -10 c-108 -22 -196 -31 -315 -31 l-123 0 0 85 c0 50 4 85 10&#xA;85 6 0 19 9 30 20 18 18 20 33 20 188 0 148 -2 171 -18 185 -9 8 -112 41 -227&#xA;73 -116 32 -211 58 -213 59 -1 1 11 28 28 61 17 32 35 85 40 116 12 63 1 104&#xA;-45 164 -43 56 -41 56 82 3z m2101 21 c38 -23 71 -88 72 -138 0 -52 -64 -114&#xA;-151 -146 -39 -14 -71 -26 -73 -26 -1 0 0 15 2 33 3 27 13 38 64 70 51 32 58&#xA;40 53 59 -4 13 -14 30 -21 38 -13 13 -20 12 -58 -9 -24 -12 -54 -33 -66 -46&#xA;-20 -21 -23 -22 -51 -8 -16 8 -29 18 -29 22 0 18 60 100 88 120 39 27 91 50&#xA;117 51 11 0 35 -9 53 -20z m-2269 -80 c10 -5 24 -22 30 -38 23 -54 -20 -163&#xA;-87 -224 -44 -40 -81 -54 -162 -62 l-55 -5 89 83 90 84 -18 27 c-11 17 -23 24&#xA;-33 21 -8 -3 -21 -6 -28 -6 -8 0 -44 -28 -80 -61 -36 -34 -65 -56 -65 -49 0 7&#xA;14 39 32 72 36 67 110 139 160 155 43 14 104 16 127 3z m-609 -19 c42 -22 72&#xA;-64 100 -137 19 -53 19 -56 3 -79 -23 -31 -25 -31 -45 3 -27 44 -105 120 -163&#xA;159 -30 19 -52 40 -49 45 19 31 105 36 154 9z m2312 -38 c24 -9 61 -28 83 -42&#xA;35 -23 40 -32 43 -70 3 -39 1 -43 -15 -36 -10 4 -44 12 -75 18 -67 12 -88 2&#xA;-88 -44 0 -24 5 -30 38 -38 20 -6 49 -11 65 -11 47 0 29 -17 -32 -30 -89 -19&#xA;-175 5 -228 62 -49 53 -59 143 -18 183 22 22 32 25 104 25 51 0 96 -6 123 -17z&#xA;m-2455 -96 c37 -29 152 -157 140 -157 -26 0 -143 46 -166 66 -30 25 -49 79&#xA;-37 109 8 21 15 19 63 -18z m3348 -58 c37 -11 38 -12 17 -20 -58 -22 -292 -69&#xA;-341 -69 l-56 1 56 30 c31 17 75 50 99 74 l42 43 72 -24 c39 -14 89 -29 111&#xA;-35z m-579 20 c9 -15 -16 -39 -40 -39 -26 0 -46 18 -46 40 0 12 9 15 40 12 22&#xA;-2 43 -8 46 -13z m-4751 -57 l100 -37 3 -120 c2 -66 0 -233 -3 -371 l-7 -251&#xA;-104 50 -104 51 0 206 c0 167 10 510 14 510 1 0 46 -17 101 -38z m4132 -32&#xA;l31 -50 -38 -11 c-33 -10 -49 -8 -134 21 -54 18 -95 34 -93 37 4 3 181 50 197&#xA;51 3 1 19 -21 37 -48z m-1782 -39 c0 -28 -25 -47 -49 -38 -19 7 -22 53 -3 61&#xA;28 11 52 1 52 -23z m3135 -396 c0 -352 -2 -415 -14 -415 -8 0 -21 -3 -30 -6&#xA;-12 -5 -14 1 -10 28 8 49 -31 118 -79 142 -49 23 -96 15 -142 -25 -43 -38 -59&#xA;-86 -52 -160 l5 -57 -43 -11 c-24 -6 -46 -11 -49 -11 -3 0 -6 186 -6 414 l0&#xA;414 118 27 c64 15 155 37 202 50 47 12 88 23 93 24 4 0 7 -186 7 -414z m-5180&#xA;354 l110 -41 0 -389 c0 -214 -2 -389 -5 -389 -3 0 -57 26 -121 58 l-116 57 3&#xA;373 c2 204 7 372 11 372 4 0 57 -19 118 -41z m1634 21 c45 -22 44 -23 -74 -44&#xA;-81 -15 -88 -15 -140 3 -30 11 -53 20 -50 21 13 5 187 38 205 39 12 0 38 -8&#xA;59 -19z m2838 6 c43 1 76 -2 73 -6 -8 -13 -58 -27 -258 -70 l-188 -40 -104 32&#xA;c-58 18 -105 37 -105 42 0 4 10 5 23 2 106 -33 137 -38 197 -33 83 8 157 30&#xA;201 61 25 18 41 23 59 18 14 -4 60 -6 102 -6z m-887 -42 c44 -15 83 -30 88&#xA;-33 4 -4 1 -24 -8 -44 -18 -43 -20 -121 -3 -168 38 -110 140 -151 225 -90 48&#xA;35 73 91 73 162 0 40 3 50 14 46 8 -3 32 -11 55 -18 l41 -12 0 -211 c0 -116 3&#xA;-304 7 -418 3 -118 2 -208 -3 -208 -5 0 -137 46 -294 101 -157 56 -291 103&#xA;-298 105 -9 3 -12 22 -10 71 3 66 3 67 35 75 123 32 123 262 -1 313 l-31 13 3&#xA;171 c2 125 6 171 15 171 7 0 48 -12 92 -26z m-1035 -23 c74 -21 128 -41 120&#xA;-44 -25 -8 -135 -27 -156 -27 -30 0 -224 52 -224 60 0 4 15 11 33 14 19 3 42&#xA;13 53 21 10 8 24 14 29 15 6 0 71 -18 145 -39z m-1239 -47 l139 -45 0 -116 c0&#xA;-88 -3 -114 -12 -111 -7 3 -70 24 -139 47 -121 40 -127 43 -133 73 -8 38 -8&#xA;198 0 198 3 0 68 -20 145 -46z m524 27 c-12 -10 -129 -31 -171 -30 -39 1 -22&#xA;7 67 23 94 17 116 18 104 7z m2855 -416 l0 -414 -42 -11 c-24 -6 -90 -24 -148&#xA;-39 -173 -47 -330 -84 -334 -80 -2 2 -5 193 -7 424 l-4 420 250 57 c138 31&#xA;258 57 268 57 16 1 17 -25 17 -414z m-846 371 c28 -12 36 -22 42 -50 19 -104&#xA;-72 -179 -136 -111 -31 33 -39 109 -15 154 18 36 36 38 109 7z m-1620 -17 c45&#xA;-12 84 -25 88 -28 4 -4 -67 -19 -158 -35 l-165 -28 -80 23 c-43 12 -79 26 -79&#xA;30 0 11 224 56 284 58 16 1 66 -9 110 -20z m623 -245 c-1 -2 -76 -19 -165 -37&#xA;l-163 -35 3 117 3 116 160 31 160 31 3 -110 c1 -60 1 -111 -1 -113z m-1270&#xA;189 l53 -17 0 -114 c0 -95 -2 -113 -14 -109 -8 3 -33 11 -55 17 l-41 11 0 99&#xA;c0 54 -3 105 -6 114 -8 20 -3 20 63 -1z m380 -126 c2 -3 2 -53 1 -113 l-3&#xA;-110 -122 39 -123 39 0 113 0 113 121 -39 c67 -21 123 -40 126 -42z m479 -144&#xA;c-3 -4 -141 -29 -364 -68 l-33 -6 3 113 3 112 195 36 195 35 3 -109 c1 -60 1&#xA;-111 -2 -113z m-1083 17 l97 -33 0 -228 c0 -126 -1 -229 -3 -229 -2 0 -48 17&#xA;-103 39 l-99 38 -6 119 c-12 221 -10 337 4 332 6 -3 56 -20 110 -38z m2151 -9&#xA;c10 -11 20 -37 23 -59 4 -32 1 -44 -16 -61 -12 -12 -26 -19 -31 -16 -12 8 -13&#xA;155 -2 155 5 0 17 -9 26 -19z m-714 -266 l0 -224 -37 -10 c-21 -5 -82 -21&#xA;-135 -34 l-98 -25 0 232 0 232 128 26 c70 14 130 26 135 27 4 0 7 -100 7 -224z&#xA;m-1207 199 l47 -16 0 -233 0 -234 -52 18 -53 18 -3 231 c-1 128 1 232 6 232 5&#xA;0 29 -7 55 -16z m256 -82 l114 -38 -2 -239 c-1 -132 -4 -241 -5 -243 -2 -2&#xA;-56 18 -120 44 l-116 46 0 234 c0 129 4 234 8 234 4 0 59 -17 121 -38z m601&#xA;-195 l0 -233 -194 -47 c-107 -26 -198 -47 -202 -47 -5 0 -8 110 -6 244 l3 245&#xA;27 5 c15 3 92 17 172 31 80 14 152 27 160 29 41 10 40 14 40 -227z m2599 71&#xA;c23 -40 6 -78 -42 -97 -34 -12 -40 -12 -54 1 -21 21 -19 85 3 109 26 29 74 22&#xA;93 -13z"/>
    <path d="M5455 7876 c-95 -29 -150 -102 -149 -196 2 -111 73 -189 180 -198&#xA;125 -10 224 77 224 198 0 133 -131 233 -255 196z m99 -98 c77 -34 77 -162 0&#xA;-196 -34 -16 -59 -15 -94 3 -40 21 -60 53 -60 98 0 31 7 46 34 73 37 37 74 44&#xA;120 22z"/>
    <path d="M4678 7793 c-8 -10 -27 -39 -42 -64 -27 -47 -27 -47 -94 -54 -37 -4&#xA;-75 -11 -84 -16 -31 -17 -20 -51 32 -104 l50 -50 -25 -70 c-46 -129 -29 -148&#xA;73 -86 38 23 72 41 76 41 5 0 33 -23 63 -51 37 -33 63 -49 77 -47 19 3 21 10&#xA;24 99 3 93 3 95 32 112 51 31 90 68 90 88 0 24 -21 34 -94 48 -32 6 -65 16&#xA;-72 21 -7 6 -22 42 -33 81 -23 73 -42 87 -73 52z"/>
    <path d="M4000 7065 c-84 -38 -124 -107 -118 -206 3 -57 8 -74 34 -106 70 -87&#xA;190 -108 276 -47 158 111 91 360 -99 371 -38 2 -70 -2 -93 -12z m156 -109 c29&#xA;-29 34 -41 34 -81 0 -40 -5 -52 -34 -81 -28 -28 -42 -34 -76 -34 -34 0 -48 6&#xA;-76 34 -29 29 -34 41 -34 79 0 71 44 115 119 116 25 1 41 -7 67 -33z"/>
    <path d="M6020 6613 c-29 -10 -40 -37 -40 -99 l0 -63 -61 -32 c-257 -137 -257&#xA;-497 0 -618 47 -22 70 -26 141 -26 76 0 93 3 152 33 123 61 198 176 198 306 0&#xA;170 -101 294 -272 334 l-68 16 0 66 c0 38 -5 71 -12 78 -13 13 -15 13 -38 5z&#xA;m175 -278 c51 -29 98 -87 116 -142 15 -45 7 -139 -16 -184 -63 -125 -218 -182&#xA;-340 -125 -113 52 -162 176 -123 310 16 54 99 138 158 159 64 24 148 16 205&#xA;-18z"/>
    <path d="M5215 5781 c-48 -12 -90 -38 -120 -73 -37 -43 -47 -73 -48 -139 -1&#xA;-103 73 -188 179 -205 46 -7 120 20 162 59 55 51 83 148 62 213 -20 59 -84&#xA;121 -143 139 -28 8 -53 15 -56 14 -3 -1 -19 -4 -36 -8z m85 -106 c58 -30 77&#xA;-94 45 -155 -17 -32 -61 -60 -95 -60 -55 0 -110 57 -110 115 0 58 52 114 108&#xA;115 13 0 36 -7 52 -15z"/>
    <path d="M3858 5759 c-11 -6 -18 -22 -18 -38 0 -69 -10 -89 -49 -96 -105 -19&#xA;-208 -96 -257 -192 -27 -53 -29 -67 -29 -163 0 -99 2 -109 32 -166 107 -205&#xA;358 -240 544 -76 195 172 138 495 -103 584 l-58 21 0 68 c0 65 -1 69 -22 69&#xA;-13 0 -31 -5 -40 -11z m99 -235 c52 -19 125 -97 141 -152 31 -101 1 -204 -81&#xA;-279 -60 -56 -108 -75 -182 -75 -146 0 -245 102 -245 252 1 136 90 244 223&#xA;269 49 9 86 5 144 -15z"/>
    <path d="M6459 5534 c-8 -9 -27 -42 -44 -73 l-30 -56 -65 -8 c-66 -8 -110 -28&#xA;-110 -50 0 -6 24 -34 55 -62 l55 -50 -20 -63 c-46 -145 -17 -164 107 -71 l42&#xA;32 67 -51 c68 -53 110 -65 121 -35 6 15 -7 109 -22 159 -5 17 3 28 44 59 28&#xA;20 56 46 63 58 16 31 -19 55 -93 63 l-60 7 -37 76 c-20 41 -42 77 -48 79 -6 1&#xA;-17 -5 -25 -14z"/>
    <path d="M4605 5071 c-44 -19 -91 -69 -107 -110 -5 -14 -9 -50 -9 -79 0 -66&#xA;31 -126 87 -165 161 -113 375 67 299 251 -44 105 -165 151 -270 103z m138 -82&#xA;c58 -30 76 -114 37 -169 -59 -83 -190 -50 -207 53 -6 41 22 97 59 115 30 14&#xA;84 15 111 1z"/>
    <path d="M5748 4773 c-9 -10 -27 -41 -42 -70 -26 -51 -26 -52 -83 -58 -104&#xA;-11 -116 -34 -49 -99 l45 -45 -19 -55 c-26 -77 -28 -107 -8 -119 12 -8 25 -5&#xA;55 14 100 66 83 65 148 9 70 -62 90 -62 90 0 0 25 -3 63 -7 86 -7 39 -7 41 37&#xA;68 98 62 97 91 -6 116 l-64 16 -23 59 c-37 98 -47 109 -74 78z"/>
    <path d="M6680 4471 c-76 -25 -127 -70 -159 -141 -42 -92 -15 -209 64 -279 53&#xA;-46 94 -61 167 -61 113 0 211 79 238 190 34 143 -75 286 -227 296 -32 2 -69 0&#xA;-83 -5z m155 -112 c95 -56 86 -211 -15 -261 -100 -51 -217 17 -227 130 -11&#xA;121 131 198 242 131z"/>
    <path d="M2935 3800 c-14 -23 -31 -52 -37 -66 -6 -13 -16 -24 -22 -24 -48 -1&#xA;-154 -23 -166 -35 -13 -13 -8 -22 43 -73 l57 -57 -31 -79 c-51 -131 -29 -154&#xA;84 -86 l67 41 67 -57 c63 -53 67 -55 81 -38 10 15 12 38 7 100 l-6 80 43 28&#xA;c119 78 116 100 -17 136 l-60 15 -25 75 c-30 91 -48 99 -85 40z"/>
    <path d="M3708 3255 c-78 -41 -119 -110 -120 -200 -1 -130 97 -229 227 -229&#xA;213 0 312 267 150 402 -70 57 -177 68 -257 27z m155 -69 c18 -7 45 -28 60 -45&#xA;37 -45 43 -89 19 -144 -35 -80 -134 -111 -203 -64 -95 63 -89 193 11 245 51&#xA;26 69 27 113 8z"/>
    <path d="M5338 3039 c-14 -8 -18 -23 -18 -70 0 -48 -3 -61 -17 -66 -144 -48&#xA;-242 -143 -278 -268 -46 -156 38 -331 193 -403 49 -23 70 -27 147 -27 78 0 98&#xA;4 146 28 67 32 151 118 182 184 18 39 22 66 22 143 0 89 -2 99 -34 158 -51 93&#xA;-145 164 -238 179 l-33 6 0 73 0 74 -27 0 c-16 0 -36 -5 -45 -11z m142 -251&#xA;c60 -25 97 -62 126 -123 96 -203 -111 -431 -327 -360 -97 33 -179 142 -179&#xA;240 0 90 63 196 141 235 82 42 154 45 239 8z"/>
    <path d="M6855 2911 c-123 -32 -189 -118 -189 -246 0 -163 107 -275 272 -283&#xA;63 -4 79 -1 127 23 100 48 155 140 155 257 0 72 -20 121 -68 171 -57 59 -105&#xA;80 -192 83 -41 2 -88 0 -105 -5z m171 -110 c103 -47 131 -173 58 -261 -37 -43&#xA;-75 -60 -136 -60 -154 1 -244 174 -148 284 49 55 149 72 226 37z"/>
    <path d="M7017 2644 c-9 -10 2 -24 19 -24 8 0 14 7 14 15 0 15 -21 21 -33 9z"/>
    <path d="M7189 1211 c-69 -69 -6 -177 82 -141 34 14 62 70 53 105 -8 32 -49&#xA;65 -81 65 -14 0 -37 -13 -54 -29z"/>
    <path d="M5984 798 c-26 -12 -44 -49 -44 -89 0 -39 48 -89 85 -89 72 0 102&#xA;105 46 161 -31 30 -52 35 -87 17z"/>
    <path d="M6578 1162 c-60 -31 -71 -129 -19 -176 9 -9 32 -19 49 -22 27 -6 37&#xA;-1 67 29 28 28 35 43 35 75 0 76 -69 125 -132 94z"/>
    <path d="M6525 710 c-76 -31 -110 -151 -62 -220 50 -76 126 -87 193 -28 56 49&#xA;66 131 26 200 -28 48 -103 71 -157 48z m83 -86 c49 -34 16 -119 -44 -112 -51&#xA;6 -60 98 -11 118 30 12 30 12 55 -6z"/>
    <path d="M6456 8148 c-7 -18 -18 -46 -23 -63 -8 -25 -18 -32 -63 -45 -29 -8&#xA;-58 -24 -64 -34 -9 -15 -4 -24 36 -59 46 -41 47 -43 38 -82 -13 -54 -12 -112&#xA;1 -121 6 -3 25 7 42 23 79 72 71 69 124 35 99 -63 126 -41 82 69 l-20 52 47&#xA;48 c60 60 55 76 -26 85 l-60 7 -32 58 c-36 69 -62 77 -82 27z"/>
    <path d="M2696 6338 c-8 -18 -22 -52 -32 -76 -20 -49 -31 -57 -95 -66 -96 -14&#xA;-101 -45 -17 -101 l44 -30 -18 -70 c-9 -38 -18 -75 -18 -81 0 -28 32 -21 79&#xA;16 28 22 56 40 62 40 7 0 31 -18 55 -40 46 -42 51 -45 73 -31 11 7 11 18 2 60&#xA;-19 89 -17 94 44 124 30 15 55 32 55 38 0 27 -24 49 -84 74 l-65 28 -11 56&#xA;c-14 68 -22 85 -43 89 -11 2 -22 -8 -31 -30z"/>
  </g>
  <title>Choinka z prezentami</title>
  <desc>Pięknie udekorowana choinka z gwiazdą na czubku, a pod nią góra prezentów. Ta kolorowanka to kwintesencja świąt. Dzieci mogą ozdobić bombki według własnego pomysłu.</desc>
</svg>