<?xml version="1.0" standalone="no"?>
<!DOCTYPE svg PUBLIC "-//W3C//DTD SVG 20010904//EN"
 "http://www.w3.org/TR/2001/REC-SVG-20010904/DTD/svg10.dtd">
<svg version="1.0" xmlns="http://www.w3.org/2000/svg"
 width="1024.000000pt" height="1024.000000pt" viewBox="0 0 1024.000000 1024.000000"
 preserveAspectRatio="xMidYMid meet">
<metadata>
Created by potrace 1.16, written by Peter Selinger 2001-2019
</metadata>
<g transform="translate(0.000000,1024.000000) scale(0.100000,-0.100000)"
fill="#000000" stroke="none">
<path d="M1646 9393 c-3 -42 -6 -280 -6 -530 l0 -453 -163 0 c-122 0 -168 -3
-182 -14 -17 -12 -18 -28 -16 -197 1 -111 6 -189 13 -196 7 -9 41 -13 109 -13
l99 0 0 -298 c0 -165 3 -333 6 -375 l7 -77 -132 0 c-73 0 -141 -5 -152 -10
-18 -10 -19 -23 -19 -188 0 -97 4 -184 10 -192 7 -11 33 -14 116 -15 89 0 108
3 117 17 8 12 7 21 -2 32 -10 12 -33 16 -98 16 l-84 0 3 138 3 137 176 3 c147
2 179 5 190 18 11 14 10 18 -6 30 -10 8 -29 14 -42 14 -23 0 -23 1 -23 135 l0
135 104 0 c80 0 106 3 116 15 10 13 10 19 -5 35 -16 17 -31 20 -117 20 -54 0
-98 1 -98 3 0 1 -3 93 -7 205 l-6 202 145 0 c99 0 148 4 156 12 8 8 12 67 12
198 0 131 -4 190 -12 198 -7 7 -40 12 -80 12 l-67 0 -3 185 -3 185 238 0 237
0 0 -347 c0 -192 3 -401 7 -465 l6 -117 -119 -3 c-113 -3 -119 -4 -122 -24 -4
-27 36 -36 151 -33 l82 2 5 -33 c6 -39 35 -63 50 -40 11 16 14 1689 4 1728 -5
16 -14 22 -35 22 l-29 0 0 -150 0 -150 -147 -1 c-82 0 -188 -1 -237 -2 l-89
-2 -2 115 c-2 192 -2 190 -29 190 -22 0 -23 -5 -30 -77z m212 -419 l3 -131
-75 -2 c-91 -2 -90 -5 -80 155 l7 115 71 -3 71 -3 3 -131z m322 6 l0 -130 -72
0 c-40 -1 -99 -2 -130 -3 l-58 -2 0 132 0 133 130 0 130 0 0 -130z m-380 -770
c0 -77 -1 -143 -2 -147 -2 -5 -30 -7 -63 -7 -33 1 -135 2 -227 3 l-168 1 0
145 0 145 230 0 230 0 0 -140z"/>
<path d="M2780 9031 c-5 -11 -10 -67 -10 -125 0 -116 5 -126 69 -126 l30 0 3
-470 c3 -501 4 -514 49 -474 l22 19 -7 463 -7 462 66 0 65 0 0 -474 c0 -407 2
-475 15 -486 8 -7 22 -10 30 -6 14 5 15 62 13 485 l-3 480 90 4 c50 2 952 3
2005 3 l1915 -1 -1 -265 c0 -146 -1 -361 -2 -478 l-2 -213 -77 3 -78 3 -3 259
c-1 164 -6 264 -13 272 -6 7 -29 14 -52 16 l-42 3 -3 92 c-3 117 -2 116 -159
107 l-118 -6 -46 -44 -45 -45 -43 51 -42 50 -145 0 c-81 0 -154 -5 -165 -10
-17 -9 -19 -22 -19 -99 l0 -89 -70 -4 c-38 -2 -75 -9 -82 -16 -10 -10 -13 -77
-13 -278 l0 -264 -178 0 -178 0 7 168 c8 208 7 212 -76 212 l-60 0 0 130 c0
184 26 170 -309 170 -169 0 -280 -4 -300 -11 l-31 -11 0 -134 0 -134 -53 0
c-29 0 -58 -5 -65 -12 -8 -8 -12 -66 -12 -195 l0 -183 -135 0 -135 0 0 289 c0
250 -2 292 -16 305 -11 12 -36 16 -95 16 l-79 0 0 94 c0 52 -3 101 -6 110 -5
13 -23 16 -92 16 l-86 0 -58 -57 -58 -57 -58 57 -58 57 -91 0 c-68 0 -94 -4
-103 -15 -8 -10 -11 -44 -9 -107 l4 -93 -85 -3 c-46 -2 -90 -8 -97 -14 -10 -8
-13 -76 -13 -305 l0 -295 -44 5 c-55 7 -87 -12 -70 -40 10 -16 34 -19 250 -24
131 -4 934 -7 1784 -8 850 0 1607 -1 1683 -1 l137 0 0 -79 c0 -81 12 -107 42
-96 13 5 16 65 23 401 4 217 5 485 4 597 l-4 202 45 0 c88 2 79 64 82 -582 3
-556 4 -575 22 -589 12 -8 24 -10 29 -5 5 5 9 251 8 589 l0 580 57 8 57 9 3
107 c2 97 1 109 -18 128 -20 20 -21 20 -2350 20 -2293 0 -2329 0 -2340 -19z
m4373 -50 l277 -1 0 -62 0 -63 -2305 -1 -2305 -2 0 64 0 64 1048 2 c991 3
2678 2 3285 -1z m-3353 -443 c30 -31 50 -61 50 -75 0 -22 -3 -22 -99 -22 l-98
0 -7 52 c-12 100 -13 97 49 97 53 0 57 -2 105 -52z m328 -20 l-3 -71 -104 -1
c-68 -1 -106 3 -108 10 -2 6 25 39 59 72 59 58 66 62 111 62 l48 0 -3 -72z
m2279 -40 c35 -34 53 -61 53 -76 0 -22 -3 -24 -31 -18 -17 3 -92 6 -165 6
l-134 0 0 64 c0 76 -5 73 130 75 l94 1 53 -52z m379 -23 l-4 -66 -124 -1
c-122 -2 -123 -2 -126 21 -3 17 8 36 39 67 l43 44 88 0 89 0 -5 -65z m-1836
-125 l0 -110 -52 0 -53 0 -3 110 -3 110 55 0 56 0 0 -110z m220 0 l0 -110 -80
0 -80 0 0 110 0 110 80 0 80 0 0 -110z m180 0 l0 -110 -65 0 -65 0 0 110 0
110 65 0 65 0 0 -110z m-1650 -65 l0 -115 -125 0 -125 0 0 115 0 115 125 0
125 0 0 -115z m320 -3 c0 -117 0 -119 -22 -116 -13 1 -71 3 -130 3 l-108 1 0
115 0 115 130 0 130 0 0 -118z m290 -2 l0 -121 -112 3 -113 3 -3 118 -3 117
116 0 115 0 0 -120z m1873 62 l77 -2 0 -245 0 -245 -145 0 -145 0 0 244 0 245
38 3 c20 2 51 3 67 2 17 0 65 -1 108 -2z m297 -247 l0 -245 -80 0 -80 0 0 245
0 245 80 0 80 0 0 -245z m236 133 c-3 -62 -5 -173 -6 -245 l0 -133 -85 0 -85
0 0 245 0 245 91 0 91 0 -6 -112z m184 -133 l0 -245 -70 0 -70 0 0 245 0 245
70 0 70 0 0 -245z m-1938 75 l38 0 0 -160 0 -160 -139 0 -138 0 -6 68 c-4 37
-7 112 -7 166 l0 99 107 -6 c58 -4 123 -7 145 -7z m288 -160 l0 -160 -95 0
-95 0 0 160 0 160 95 0 95 0 0 -160z m240 0 l0 -160 -95 0 -95 0 0 160 0 160
95 0 95 0 0 -160z m-1790 -30 l0 -130 -125 0 -125 0 0 130 0 130 125 0 125 0
0 -130z m320 0 l0 -130 -127 0 -128 0 -4 130 -3 130 131 0 131 0 0 -130z m286
117 c2 -1 4 -56 5 -122 l1 -120 -113 0 -114 0 -3 129 -3 129 112 -6 c62 -4
113 -8 115 -10z"/>
<path d="M8443 9038 c-6 -7 -41 -67 -78 -133 -131 -229 -223 -354 -373 -503
-78 -78 -83 -85 -80 -120 4 -49 47 -72 136 -72 l64 0 -33 -42 c-18 -24 -106
-118 -196 -209 -181 -183 -188 -196 -131 -244 30 -25 35 -26 130 -23 54 2 98
0 98 -3 0 -3 -25 -33 -56 -67 -56 -62 -64 -92 -26 -92 19 0 82 62 147 143 21
26 54 55 74 63 46 19 81 52 81 77 0 16 -5 18 -32 14 -18 -3 -67 -18 -108 -32
-75 -27 -211 -44 -246 -31 -14 5 8 32 117 140 74 73 168 176 208 228 44 59 84
101 102 108 43 18 71 57 58 81 -13 25 -26 24 -69 -6 -39 -27 -149 -43 -212
-31 l-34 6 101 104 c115 119 187 215 298 400 43 72 80 132 82 134 2 2 20 -29
41 -69 84 -169 241 -401 349 -517 46 -50 54 -63 40 -68 -24 -9 -155 4 -215 22
-28 8 -55 12 -60 9 -13 -8 -13 -52 1 -60 6 -4 31 -39 56 -79 70 -110 205 -283
286 -369 71 -74 73 -78 49 -84 -33 -8 -165 4 -227 20 -58 16 -75 13 -75 -15 0
-41 129 -207 287 -369 104 -106 112 -117 91 -123 -33 -8 -165 -6 -218 4 -25 4
-62 11 -82 15 -30 6 -39 4 -44 -9 -19 -49 89 -89 241 -90 77 -1 107 3 132 17
37 20 63 53 63 80 0 10 -57 78 -127 151 -71 72 -149 159 -174 192 l-47 59 74
-3 c144 -8 204 15 204 79 0 25 -16 47 -83 117 -46 48 -108 119 -138 157 -57
71 -149 199 -149 206 0 3 33 3 74 1 116 -6 170 19 168 79 0 22 -17 47 -62 97
-121 131 -272 357 -372 557 -56 111 -80 135 -105 103z"/>
<path d="M2655 7714 c-11 -2 -58 -12 -105 -20 -185 -34 -388 -132 -558 -269
-130 -105 -254 -264 -356 -455 -72 -136 -156 -413 -156 -513 0 -33 -2 -35 -43
-40 -138 -19 -240 -123 -257 -262 -20 -160 60 -290 208 -335 35 -11 79 -20 96
-20 44 0 135 28 169 52 16 11 30 19 31 17 2 -2 16 -35 31 -74 94 -239 234
-430 376 -513 97 -56 219 -72 302 -37 13 6 17 2 17 -17 0 -29 -34 -63 -73 -72
-49 -12 -159 -67 -242 -122 -91 -59 -251 -219 -312 -309 -139 -208 -243 -531
-246 -770 -2 -90 1 -106 26 -161 l29 -62 -67 -121 c-80 -144 -135 -267 -135
-301 0 -28 24 -71 82 -147 31 -41 37 -56 30 -70 -18 -33 -52 -234 -52 -303 l0
-69 -52 -5 c-29 -3 -84 -8 -123 -11 -38 -3 -75 -11 -82 -17 -18 -15 -16 -47 4
-55 16 -6 143 1 503 27 111 8 276 23 850 75 91 8 171 15 178 15 9 0 12 -45 12
-189 l0 -189 29 -24 c67 -54 632 -355 718 -382 22 -7 210 20 343 49 36 8 92
19 125 24 53 9 449 88 705 141 52 10 112 22 133 26 23 4 42 14 49 28 8 14 13
113 16 311 2 160 5 291 6 292 1 1 88 10 193 20 167 15 193 15 209 3 9 -8 33
-15 53 -15 l36 0 5 -115 c5 -105 7 -115 25 -118 11 -2 79 -16 150 -32 72 -16
166 -36 210 -45 97 -20 311 -65 500 -106 335 -71 382 -78 427 -60 13 5 73 25
133 45 127 40 414 142 528 188 57 22 78 36 82 52 2 11 9 46 15 76 9 49 15 57
50 78 22 12 40 27 40 32 0 6 20 10 44 10 64 0 229 36 278 61 55 27 96 66 113
105 l13 31 208 12 c115 7 283 19 374 27 91 8 243 19 339 24 176 11 223 21 229
52 7 34 -45 34 -568 -4 -259 -19 -240 -22 -257 36 -12 42 -12 50 0 65 61 70
97 196 97 339 -1 218 -74 505 -180 700 l-30 55 46 49 c65 69 87 126 88 221 l1
78 50 -7 c115 -17 187 -2 260 54 58 44 92 91 101 139 8 43 -10 64 -71 82 -114
34 -193 124 -243 280 l-30 94 39 73 c133 251 145 390 36 418 -23 6 -37 16 -37
25 0 9 -9 44 -20 78 -19 60 -19 63 0 170 11 59 20 123 22 141 3 38 6 39 44 10
47 -36 234 -200 234 -205 0 -3 -18 -25 -40 -50 -40 -46 -70 -120 -70 -173 0
-91 70 -199 157 -240 134 -65 313 4 373 142 62 143 -3 295 -156 365 l-54 24 0
53 c0 143 -69 398 -160 591 -152 322 -426 544 -827 669 -92 28 -327 66 -416
66 -149 0 -391 -40 -547 -90 -216 -70 -442 -211 -611 -382 -45 -46 -77 -66
-160 -103 -115 -51 -133 -64 -160 -116 -43 -86 -120 -394 -108 -434 2 -6 -7
-43 -20 -83 -20 -60 -23 -86 -19 -155 8 -119 37 -187 115 -264 l63 -63 0 -102
c0 -70 -8 -142 -25 -223 -26 -126 -32 -258 -15 -332 9 -38 7 -46 -34 -120
-110 -200 -136 -346 -81 -459 43 -88 116 -129 223 -123 47 3 64 -1 97 -21 22
-14 54 -32 71 -40 l32 -15 -75 -93 -74 -93 -29 25 c-56 46 -91 43 -280 -26
-136 -50 -173 -71 -195 -111 -16 -30 -17 -40 -6 -82 7 -26 21 -65 31 -86 11
-21 20 -40 20 -43 0 -2 -15 -7 -32 -11 -29 -6 -95 -24 -287 -81 -30 -9 -64
-27 -77 -40 -23 -22 -24 -30 -24 -158 0 -130 -1 -135 -21 -138 -12 -2 -31 -16
-43 -31 -18 -25 -21 -44 -23 -155 -2 -88 1 -138 11 -162 8 -22 12 -56 9 -90
l-5 -56 -162 -13 c-88 -7 -170 -13 -181 -15 -11 -1 -5 2 13 7 l32 11 1 200 c1
232 1 237 -14 252 -7 6 -52 25 -102 43 -243 88 -238 86 -209 102 43 23 102 97
120 152 34 101 12 234 -57 342 -40 63 -123 150 -181 190 -26 17 -63 52 -82 77
-31 41 -369 353 -471 435 l-40 32 35 28 c188 148 291 313 321 513 12 81 15 88
60 136 157 168 380 617 382 768 1 39 -4 52 -22 67 -41 34 -147 21 -222 -26
l-37 -24 -6 92 c-3 51 -6 153 -6 227 0 153 -34 355 -65 391 -20 21 -196 109
-258 129 -26 8 -45 24 -62 50 -13 21 -58 79 -100 129 -190 226 -480 392 -800
457 -77 16 -414 29 -460 18z m510 -112 c276 -73 472 -186 651 -376 94 -99 109
-122 77 -112 -70 21 -246 39 -373 39 -421 -2 -814 -132 -1145 -378 -135 -100
-301 -273 -362 -376 -10 -16 -21 -29 -26 -29 -15 0 2 187 30 331 31 163 25
212 -25 181 -7 -5 -23 -64 -36 -132 l-24 -124 -48 -40 c-81 -67 -243 -228
-281 -278 -19 -27 -39 -48 -44 -48 -16 0 -10 154 11 274 35 198 128 415 259
599 156 220 391 387 651 463 126 37 186 43 390 39 165 -3 197 -7 295 -33z
m4448 -192 c322 -23 691 -193 883 -403 146 -161 266 -413 313 -657 19 -100 34
-268 26 -307 -6 -36 -8 -37 -21 -18 -37 51 -264 270 -319 308 l-62 42 -7 170
c-4 97 -12 175 -18 183 -6 7 -21 12 -32 10 -21 -3 -21 -7 -23 -283 -1 -154 -6
-298 -10 -320 l-9 -40 -44 79 c-98 177 -263 366 -440 500 -259 197 -527 306
-865 351 -145 20 -366 16 -487 -8 -38 -8 -68 -11 -68 -8 2 18 222 174 330 233
160 88 374 152 560 167 134 11 150 12 293 1z m-3832 -356 c250 -47 486 -140
509 -200 13 -34 40 -224 40 -284 l0 -52 -42 37 c-190 163 -608 213 -1045 125
-227 -45 -508 -166 -693 -298 -112 -79 -280 -243 -334 -325 -27 -42 -43 -57
-55 -54 -9 3 -59 23 -111 45 -70 29 -96 44 -98 59 -5 30 81 189 154 286 243
324 624 558 1049 646 142 29 131 28 346 30 142 1 220 -3 280 -15z m3354 -133
c307 -72 557 -201 785 -405 168 -151 335 -399 404 -603 13 -39 22 -74 18 -77
-3 -3 -22 -6 -43 -6 -21 0 -75 -12 -119 -26 -45 -14 -83 -24 -85 -22 -1 2 -17
31 -34 65 -63 127 -220 314 -370 442 -228 195 -547 338 -846 381 -92 13 -333
13 -415 -1 -151 -24 -294 -89 -391 -176 l-42 -38 8 35 c14 72 68 246 85 281
31 60 207 131 435 175 50 9 129 12 275 10 186 -4 217 -7 335 -35z m-3307 -285
c57 -8 104 -15 106 -17 14 -19 65 -112 79 -144 14 -32 16 -47 8 -69 -13 -33
-19 -33 -176 25 -144 53 -165 57 -165 31 0 -11 7 -36 15 -57 16 -36 12 -74 -8
-87 -12 -8 -98 17 -152 44 -36 19 -255 223 -255 239 0 6 174 37 245 43 99 7
208 5 303 -8z m2867 -48 c-56 -193 -242 -351 -530 -453 -44 -15 -85 -33 -92
-39 -7 -7 -13 -47 -15 -98 -1 -49 -4 -88 -6 -88 -14 0 -56 68 -78 128 -58 158
-10 297 148 425 111 89 292 143 496 146 82 1 83 1 77 -21z m-2549 -35 c140
-67 198 -144 199 -263 0 -36 -4 -78 -8 -95 l-9 -30 -16 48 c-20 56 -87 149
-182 251 -38 41 -76 89 -85 106 -16 32 -16 32 7 25 13 -4 55 -23 94 -42z
m-893 -15 c58 -85 178 -201 243 -235 77 -41 166 -66 204 -58 35 8 69 51 77 99
l5 35 82 -31 c134 -51 168 -58 188 -41 10 9 22 31 28 49 7 19 15 34 20 34 9 0
93 -105 125 -155 15 -24 19 -49 18 -120 0 -77 -7 -115 -47 -258 -52 -184 -58
-250 -31 -347 8 -30 15 -96 15 -148 0 -79 -4 -104 -30 -171 -80 -206 -246
-367 -462 -448 -115 -43 -214 -57 -368 -49 -333 15 -634 185 -785 443 -46 79
-82 170 -71 180 9 9 -14 33 -31 33 -8 0 -29 -10 -46 -22 -25 -18 -43 -21 -101
-20 -171 3 -323 145 -460 432 -51 106 -108 278 -99 294 9 14 122 -1 213 -30
89 -28 239 -97 340 -159 55 -33 64 -44 101 -118 65 -130 121 -175 162 -129 9
9 41 80 72 157 31 77 64 154 75 172 10 18 33 76 51 130 28 84 33 117 38 238
l6 140 55 27 c105 51 314 125 361 127 9 1 32 -23 52 -51z m3692 32 c381 -84
734 -314 952 -618 66 -92 129 -200 121 -207 -2 -2 -31 -19 -65 -39 -34 -20
-87 -59 -118 -87 -30 -29 -57 -50 -59 -48 -3 2 -22 38 -44 79 -42 80 -54 118
-72 245 -7 44 -16 87 -21 96 -4 9 -52 31 -106 48 -264 87 -412 168 -539 295
-91 91 -189 256 -152 256 7 0 54 -9 103 -20z m-157 -47 c45 -123 139 -247 242
-322 l40 -28 -59 -12 c-62 -12 -98 -39 -87 -67 5 -12 13 -15 34 -9 15 3 59 9
98 12 85 6 114 -5 192 -73 54 -48 82 -52 82 -13 0 15 5 19 15 15 9 -3 62 -20
118 -37 56 -17 106 -35 110 -39 4 -4 14 -46 22 -93 19 -116 32 -160 68 -234
40 -83 92 -143 123 -143 16 0 44 21 87 63 116 115 316 203 489 214 l87 6 6
-26 c20 -78 -165 -422 -284 -529 -110 -99 -246 -141 -335 -104 -70 29 -95 18
-156 -74 -111 -167 -297 -284 -541 -341 -143 -34 -358 -33 -494 3 -181 47
-302 115 -411 229 -33 35 -73 86 -89 113 -31 53 -65 178 -65 241 0 37 23 190
51 330 11 57 10 88 -7 342 l-7 92 27 11 c36 13 36 14 36 -15 0 -36 24 -32 77
15 66 58 144 75 203 45 33 -17 60 -11 60 15 0 20 -21 40 -56 55 -23 10 -20 13
57 70 45 33 96 78 114 100 43 52 102 165 111 210 3 19 10 35 14 35 4 0 17 -26
28 -57z m-4876 -285 c-7 -15 -18 -51 -26 -80 l-13 -53 -39 4 c-21 1 -40 4 -41
5 -2 1 -16 54 -33 117 l-30 114 93 93 92 93 5 -133 c4 -96 2 -141 -8 -160z
m773 -103 c-14 -55 -49 -152 -79 -215 -29 -63 -66 -145 -82 -182 l-28 -68 -51
98 c-45 88 -56 101 -112 138 -34 23 -68 44 -75 46 -20 7 3 44 94 148 80 92
185 182 293 252 l60 39 3 -78 c2 -58 -4 -104 -23 -178z m-1205 146 c0 -71 25
-111 70 -111 22 0 39 13 78 57 l50 56 15 -54 c30 -107 31 -119 8 -119 -35 0
-55 -43 -48 -105 5 -52 4 -55 -29 -84 -85 -75 -257 -45 -328 58 -67 96 -52
238 32 314 25 23 87 46 125 47 26 0 27 -1 27 -59z m3135 -71 c8 -13 -35 -164
-74 -259 -17 -40 -58 -122 -92 -181 -61 -107 -183 -280 -198 -280 -14 0 -34
117 -29 174 4 53 7 57 102 158 101 106 131 150 122 174 -10 27 -33 13 -100
-62 -38 -41 -70 -74 -71 -72 -8 8 45 142 59 150 9 5 29 35 45 67 26 50 37 62
92 91 53 28 94 44 131 49 4 1 10 -4 13 -9z m4391 -233 c45 -39 64 -81 64 -142
0 -60 -19 -103 -63 -142 -114 -100 -291 -50 -333 94 -17 58 -10 103 26 161 29
48 45 49 83 8 19 -20 44 -36 56 -36 31 0 60 34 67 79 l6 40 29 -15 c16 -8 45
-29 65 -47z m-641 -817 c39 -111 132 -209 233 -249 61 -24 61 -24 48 -50 -51
-98 -213 -133 -331 -71 -31 17 -63 30 -70 30 -22 0 -26 -32 -10 -84 32 -105
10 -208 -62 -294 l-28 -34 -48 65 c-84 115 -201 209 -309 249 -41 15 -58 26
-58 39 0 10 -12 45 -26 77 l-26 60 41 52 c23 29 45 59 50 68 8 14 17 14 78 3
156 -28 323 48 442 202 l46 59 7 -38 c4 -22 14 -59 23 -84z m-5896 -63 c102
-179 307 -344 525 -421 15 -5 -9 -25 -110 -92 -211 -141 -234 -148 -281 -89
-114 143 -192 356 -193 525 0 49 17 120 28 120 4 0 18 -19 31 -43z m-119 -103
c0 -52 7 -127 16 -167 34 -151 123 -325 207 -404 44 -41 52 -45 84 -40 56 10
131 50 249 136 60 44 110 78 112 76 2 -2 -5 -47 -14 -101 -25 -138 -22 -170
13 -148 18 11 34 72 54 207 7 48 15 86 19 85 4 -2 62 -62 128 -134 137 -149
174 -172 242 -154 25 7 50 24 69 47 37 45 95 153 111 208 11 38 15 41 106 79
l94 38 137 -123 c76 -68 163 -146 193 -174 30 -27 78 -70 107 -95 l52 -45 -77
0 c-68 0 -84 -4 -140 -34 -78 -42 -161 -130 -199 -210 -15 -33 -31 -59 -34
-58 -4 1 -54 44 -110 96 -57 51 -113 97 -125 101 -21 8 -21 9 10 99 29 85 30
91 14 107 -25 25 -42 7 -74 -79 -14 -40 -51 -129 -80 -200 -30 -70 -54 -131
-54 -136 0 -25 -23 -19 -58 14 -83 79 -201 135 -286 135 -90 0 -258 -68 -368
-149 l-38 -28 -81 29 c-45 16 -112 33 -149 38 -47 7 -91 22 -144 51 -42 22
-76 45 -76 49 0 16 70 284 93 353 21 66 21 69 3 82 -10 8 -24 11 -32 8 -19 -7
-65 -155 -122 -388 -7 -25 -14 -31 -50 -37 -64 -11 -158 -66 -208 -121 -72
-81 -41 -120 37 -47 53 49 109 83 165 100 39 12 43 11 82 -17 23 -17 55 -36
72 -43 37 -15 38 -25 5 -46 -39 -26 -114 -131 -158 -222 -33 -68 -41 -97 -45
-158 l-5 -75 -31 7 c-46 10 -182 80 -254 131 -86 62 -146 124 -174 180 -75
154 35 599 215 868 46 69 211 241 277 290 43 32 197 115 213 115 4 0 7 -43 7
-96z m3740 -11 c13 -27 65 -89 115 -139 80 -79 105 -97 205 -147 62 -31 120
-57 127 -57 7 0 13 -1 13 -3 0 -2 -31 -35 -68 -73 -38 -38 -78 -82 -90 -97
-20 -27 -24 -28 -55 -18 -53 18 -113 67 -143 119 -24 39 -29 62 -34 137 -5 82
-7 90 -25 90 -14 0 -24 -11 -32 -35 -21 -62 -14 -137 22 -222 11 -27 -53 -24
-96 5 -78 52 -99 164 -54 292 29 82 78 194 85 195 3 0 16 -21 30 -47z m1562
-216 c15 -48 2 -103 -47 -202 -65 -133 -181 -219 -295 -219 -69 0 -119 25
-181 91 -44 46 -105 140 -97 149 3 2 41 11 85 19 161 31 342 107 443 189 62
49 70 47 92 -27z m156 -134 c113 -55 265 -228 350 -398 113 -227 180 -545 153
-728 -21 -148 -123 -286 -262 -355 l-64 -31 -7 97 c-5 53 -15 120 -24 147 -20
63 -77 158 -111 185 -14 11 -24 22 -22 23 22 16 103 43 157 51 62 11 67 13 67
36 0 22 -5 25 -43 28 -40 3 -115 -8 -153 -23 -13 -5 -20 14 -42 102 -74 298
-102 383 -127 383 -4 0 -15 -7 -23 -15 -13 -13 -11 -27 14 -122 69 -251 100
-375 97 -377 -2 -2 -34 -11 -73 -21 -38 -10 -108 -34 -154 -52 -46 -19 -85
-32 -88 -29 -3 2 -6 58 -6 123 -2 142 9 132 -191 165 l-136 23 0 68 c0 77 -17
126 -51 148 -54 35 -229 78 -320 79 -30 0 -89 -37 -185 -118 -63 -53 -72 -58
-99 -50 -17 5 -60 10 -97 11 -63 2 -67 4 -82 32 -8 17 -26 49 -40 71 l-26 42
131 166 c128 164 248 300 256 292 2 -2 5 -35 7 -72 6 -132 58 -204 145 -204
27 0 57 7 71 16 40 27 110 96 131 132 12 17 24 32 28 32 3 0 15 -16 25 -35 25
-47 112 -127 167 -155 29 -15 68 -25 116 -28 64 -4 78 -1 137 26 115 54 220
173 267 304 13 34 28 58 36 58 8 0 40 -12 71 -27z m-4428 -22 c47 0 108 4 135
9 28 4 52 6 54 4 8 -8 -64 -137 -99 -177 l-37 -41 -36 23 c-20 12 -66 58 -102
102 -37 43 -71 79 -76 79 -5 0 -9 4 -9 9 0 4 19 5 43 0 23 -4 80 -8 127 -8z
m3462 -26 c13 -1 42 -3 66 -4 l43 -1 -23 -42 c-13 -22 -49 -67 -80 -100 -56
-56 -85 -69 -115 -50 -28 18 -49 102 -44 185 l1 28 65 -7 c35 -4 75 -8 87 -9z
m-2440 -408 c127 -61 237 -203 267 -346 26 -121 -63 -256 -179 -271 -66 -8
-66 8 0 49 52 32 86 73 75 91 -11 17 -31 12 -96 -27 -96 -58 -209 -59 -209 -2
0 9 34 48 76 85 89 81 117 121 112 165 -5 50 -23 45 -66 -18 -22 -32 -58 -73
-81 -91 -23 -19 -54 -52 -69 -75 -33 -51 -40 -57 -74 -57 -85 0 -51 178 57
298 83 92 40 132 -46 43 -56 -58 -108 -161 -116 -232 -5 -42 -10 -52 -30 -60
-39 -15 -62 -11 -88 16 -70 69 18 306 150 406 106 80 190 87 317 26z m1744
-73 c22 -32 53 -80 67 -106 l27 -47 -28 -16 c-16 -10 -37 -30 -48 -46 -10 -16
-21 -29 -24 -29 -3 0 -25 30 -50 66 -45 66 -124 140 -184 171 l-31 16 95 32
c59 20 103 29 115 25 11 -4 38 -34 61 -66z m-2409 -84 l119 -115 -8 -44 c-4
-24 -9 -46 -12 -48 -2 -3 -51 -11 -108 -18 -57 -8 -122 -17 -145 -21 -33 -5
-43 -3 -43 7 0 8 -11 35 -25 61 l-25 48 55 114 c30 63 55 120 55 126 0 20 14
8 137 -110z m2123 15 c27 -14 74 -48 105 -77 l57 -53 -82 3 c-52 3 -86 0 -93
-7 -18 -18 14 -42 64 -47 119 -11 178 -31 210 -70 13 -16 12 -17 -6 -10 -10 4
-53 11 -93 16 -154 20 -204 50 -254 155 -33 70 -35 90 -10 104 27 16 49 13
102 -14z m1063 2 l87 -22 -97 -43 c-132 -57 -132 -57 -111 -79 21 -20 40 -15
165 42 80 37 83 36 83 -38 0 -52 -31 -122 -61 -137 -12 -7 -61 -22 -109 -35
l-87 -22 15 27 c24 41 8 116 -33 157 -27 27 -40 33 -76 33 -24 -1 -69 -10 -99
-21 -112 -41 -107 -32 58 102 69 55 77 59 125 59 29 0 91 -11 140 -23z m-3683
-29 c90 -43 199 -154 229 -232 34 -90 28 -137 -20 -161 l-28 -15 -16 55 c-21
75 -121 182 -210 226 -63 31 -105 33 -105 6 0 -7 36 -36 80 -65 128 -86 189
-169 190 -259 0 -32 -5 -45 -22 -57 -36 -26 -52 -19 -71 29 -39 93 -233 228
-331 229 -51 1 -64 -28 -19 -45 167 -63 286 -161 307 -252 5 -22 2 -29 -16
-38 -19 -8 -46 0 -157 46 -73 30 -144 55 -157 55 -13 0 -50 -17 -83 -39 -72
-46 -174 -76 -225 -67 -19 4 -49 18 -66 32 -68 58 -25 185 110 323 154 158
387 279 505 264 22 -2 69 -19 105 -35z m-695 -89 c44 -11 82 -22 85 -24 3 -2
-26 -37 -65 -78 -39 -41 -87 -104 -106 -139 -31 -58 -34 -70 -34 -150 0 -78 2
-89 25 -113 14 -15 43 -35 65 -45 l40 -17 -54 -20 c-44 -16 -63 -18 -105 -11
-62 11 -184 76 -211 113 -29 38 -27 149 4 228 32 83 115 201 168 242 54 41 78
43 188 14z m3895 -18 c0 -5 -7 -11 -15 -15 -20 -7 -75 -95 -75 -118 0 -14 -8
-18 -35 -18 -115 0 -152 85 -62 140 24 15 50 20 110 20 42 0 77 -4 77 -9z
m282 -68 c21 -19 24 -78 6 -118 -13 -30 -9 -30 -125 -5 -50 10 -110 20 -132
22 -23 1 -41 5 -41 9 0 15 60 44 155 76 118 38 113 38 137 16z m-910 -63 c28
-20 64 -34 102 -40 32 -5 60 -11 63 -13 2 -2 -31 -14 -73 -27 -83 -24 -81 -24
-297 12 l-129 21 74 20 c40 11 102 28 138 38 83 23 73 24 122 -11z m1396 -14
c73 -14 103 -26 65 -26 -11 0 -49 -11 -84 -24 -49 -18 -76 -23 -116 -19 l-53
6 38 38 c42 43 49 44 150 25z m-3361 -70 c-10 -54 -11 -55 -49 -61 -22 -4 -51
-17 -65 -29 l-26 -23 -66 44 c-36 23 -69 43 -73 43 -5 0 -8 9 -8 19 0 16 14
21 113 35 61 9 123 18 137 20 14 2 30 4 36 5 7 1 8 -15 1 -53z m2418 4 c13 -6
15 -9 5 -9 -8 -1 -50 -15 -93 -32 -71 -27 -85 -29 -148 -23 -39 4 -67 10 -62
14 4 4 40 15 78 24 39 9 86 20 105 25 45 12 90 12 115 1z m1115 -52 c0 -87 -7
-108 -36 -108 -22 0 -150 -25 -186 -36 -16 -5 -18 3 -18 65 l0 70 108 35 c59
19 113 35 120 35 8 1 12 -18 12 -61z m-3301 18 l22 -23 -64 -42 -64 -41 -34
32 c-28 26 -34 38 -29 58 5 23 11 25 63 26 31 0 60 4 64 7 11 11 18 8 42 -17z
m1456 -1 c72 -13 163 -30 203 -37 l73 -13 -1 -499 c0 -275 -2 -501 -4 -503 -2
-2 -50 6 -107 18 -57 12 -140 29 -184 38 l-80 16 -3 93 c-2 76 0 92 12 92 20
0 27 26 27 107 0 37 0 84 1 103 0 19 0 44 0 55 -1 11 1 52 4 91 7 88 -10 131
-53 136 -40 4 -52 49 -52 201 -1 114 1 127 17 127 9 0 76 -11 147 -25z m958 0
c38 -8 125 -24 195 -35 194 -32 191 -29 67 -62 -60 -16 -114 -30 -120 -31 -9
-2 -69 8 -330 52 l-100 17 85 28 c47 15 92 32 100 37 20 11 24 11 103 -6z
m497 -4 c21 -6 16 -9 -35 -22 -46 -11 -71 -12 -109 -4 l-49 11 39 11 c45 12
118 14 154 4z m-5205 -156 c145 -141 327 -235 525 -271 l91 -17 -8 -31 c-26
-107 -4 -119 230 -133 l107 -6 0 -104 c0 -82 -3 -103 -14 -103 -8 0 -21 -2
-29 -6 -11 -4 -15 11 -20 77 -5 82 -22 119 -46 104 -17 -10 -68 -116 -76 -157
-6 -34 -9 -36 -58 -42 -235 -28 -503 50 -737 215 -89 63 -226 199 -257 255
l-22 40 42 95 c41 91 98 199 121 228 8 10 16 5 40 -25 16 -22 66 -75 111 -119z
m2501 69 c13 -3 38 -4 54 -2 24 4 30 1 30 -13 0 -24 -54 -67 -93 -73 -54 -9
-302 -24 -307 -19 -9 9 73 71 154 117 l79 45 29 -24 c16 -14 41 -28 54 -31z
m2794 -29 l0 -75 -40 -20 c-64 -32 -91 -116 -55 -167 17 -24 14 -28 -30 -37
l-30 -7 3 166 c2 91 4 165 6 165 1 0 34 11 72 25 38 13 70 24 72 25 1 0 2 -34
2 -75z m-3483 22 c41 -27 83 -72 83 -87 0 -4 -26 3 -57 16 -32 13 -66 24 -75
24 -9 0 -40 5 -68 11 -52 11 -68 29 -26 29 14 0 37 11 53 24 15 13 32 21 38
18 5 -3 29 -19 52 -35z m2401 18 c40 -8 75 -15 78 -15 2 0 4 -230 4 -510 l0
-510 -22 4 c-13 3 -58 13 -100 22 l-78 16 0 509 0 509 23 -5 c12 -3 55 -12 95
-20z m-2091 -41 c16 -22 16 -64 0 -85 -26 -34 -93 -51 -123 -31 -12 7 -68 112
-62 117 2 1 21 7 43 13 56 15 126 8 142 -14z m2349 -3 c54 -10 146 -27 204
-36 57 -10 110 -19 117 -22 10 -4 13 -111 13 -524 l0 -519 -22 5 c-157 36
-214 48 -274 60 -39 7 -90 19 -113 25 l-41 11 0 509 c0 281 4 510 9 510 4 0
53 -9 107 -19z m1542 -46 c78 -85 97 -143 97 -297 0 -140 -8 -163 -72 -201
-26 -15 -174 -59 -180 -53 -1 1 8 23 21 48 29 57 41 171 26 248 -14 77 -56
156 -107 208 -25 24 -43 46 -40 48 11 11 146 53 173 53 26 1 41 -9 82 -54z
m-928 -110 c0 -148 -1 -156 -25 -191 -30 -44 -33 -102 -7 -134 18 -22 18 -24
0 -59 -25 -49 -23 -83 7 -111 l25 -24 -2 -170 -3 -171 -105 -37 c-58 -21 -106
-38 -107 -38 -4 0 10 1025 14 1030 5 6 172 57 191 59 9 1 12 -36 12 -154z
m-2242 46 c89 -31 162 -59 162 -62 0 -4 -26 -10 -57 -13 -32 -4 -130 -21 -218
-37 l-160 -31 -108 53 c-117 58 -119 67 -17 68 78 1 127 17 168 57 22 20 43
31 52 28 8 -4 88 -32 178 -63z m-1123 34 c39 -7 84 -19 100 -26 l30 -12 -35
-8 c-105 -24 -271 -59 -283 -59 -7 0 -22 6 -32 14 -16 12 -17 16 -6 30 8 9 32
24 55 34 22 11 47 26 55 36 8 10 21 14 30 11 9 -4 48 -12 86 -20z m-490 -31
l40 -18 -37 -6 c-68 -12 -68 -13 -68 -206 0 -96 -2 -174 -4 -174 -10 0 -198
88 -206 96 -4 5 -10 64 -12 131 l-3 123 70 34 c39 19 79 41 90 49 20 16 38 12
130 -29z m4443 22 c39 -21 107 -94 131 -143 52 -105 52 -230 -2 -310 -57 -85
-249 -200 -379 -227 -86 -18 -155 -11 -188 19 -37 34 -25 42 73 48 111 7 172
26 172 53 0 22 -3 22 -176 9 -121 -9 -167 -3 -197 26 -28 25 -28 35 3 63 22
21 32 22 112 19 107 -5 241 10 260 30 13 12 12 16 -2 31 -11 10 -25 14 -37 10
-12 -3 -57 -10 -102 -14 -156 -14 -246 4 -246 49 0 44 83 77 275 111 115 21
165 39 165 61 0 19 -34 22 -132 9 -87 -12 -104 -12 -127 1 -73 41 -10 102 154
150 75 22 206 24 243 5z m-2142 -81 c10 -21 33 -45 55 -58 41 -23 58 -64 44
-106 l-7 -22 -36 22 c-59 34 -102 85 -102 118 0 30 15 81 24 81 3 0 13 -16 22
-35z m-1202 -38 l115 -64 -84 -14 -84 -15 -105 50 c-102 50 -124 66 -88 66 10
0 26 6 37 14 21 14 47 23 77 25 9 0 69 -28 132 -62z m-909 19 l50 -13 -42 -11
c-41 -12 -46 -11 -120 19 l-28 12 25 8 c14 4 34 5 45 3 11 -3 43 -11 70 -18z
m621 -60 l115 -63 -98 -18 c-54 -10 -149 -25 -211 -35 l-114 -17 -76 34 c-43
19 -102 44 -132 56 l-54 21 34 8 c326 68 357 74 398 77 13 0 75 -28 138 -63z
m-746 6 c36 -15 70 -31 77 -35 8 -5 12 -110 12 -395 1 -213 4 -449 7 -524 4
-76 4 -138 1 -138 -3 0 -40 18 -81 41 l-76 41 0 301 c0 166 -3 400 -7 520 -3
119 -4 217 -2 217 3 0 34 -12 69 -28z m1780 -145 l0 -162 -117 -19 c-65 -10
-169 -27 -231 -37 -63 -10 -120 -19 -128 -19 -12 0 -14 27 -12 158 l3 157 25
3 c31 3 282 48 370 67 36 7 71 13 78 14 9 1 12 -38 12 -162z m-2296 114 c-12
-56 27 -87 77 -61 14 8 19 7 19 -2 0 -7 3 -30 6 -50 l7 -38 -39 0 c-89 0 -176
13 -181 27 -11 28 38 112 76 132 20 10 37 19 38 20 1 0 0 -12 -3 -28z m1738
-203 c8 -385 7 -867 -2 -873 -13 -8 -221 -47 -226 -43 -2 2 -4 237 -6 521 l-3
517 30 5 c17 3 62 12 100 19 115 23 104 38 107 -146z m-880 69 l56 -26 1 -160
c1 -89 -2 -161 -6 -160 -4 0 -60 21 -123 47 l-115 47 -3 167 -2 166 67 -28
c38 -15 93 -39 125 -53z m1945 7 c32 -6 52 -35 45 -66 -5 -26 -63 -23 -97 4
-27 21 -55 73 -55 103 0 12 8 10 38 -10 20 -13 51 -27 69 -31z m2863 37 c0 -5
3 -16 6 -25 5 -13 -1 -16 -32 -16 l-37 0 24 24 c26 26 39 31 39 17z m-4230
-160 c0 -182 11 -163 -105 -181 -38 -6 -115 -19 -170 -30 -55 -10 -119 -21
-142 -24 l-43 -6 0 164 0 165 58 6 c31 4 125 19 207 35 220 41 195 58 195
-129z m-2295 -60 c85 -59 210 -124 301 -156 83 -29 85 -29 -186 -50 -113 -8
-226 -18 -252 -22 l-48 -6 0 39 c1 62 19 184 36 242 l15 54 32 -26 c18 -14 64
-47 102 -75z m3657 44 c33 -6 37 -10 43 -47 4 -21 4 -42 1 -45 -10 -10 -73 7
-89 25 -8 9 -18 32 -22 50 -6 30 -5 33 11 29 11 -3 36 -9 56 -12z m-2479 -25
c63 -28 65 -30 70 -72 2 -24 5 -164 6 -311 l2 -269 -48 27 c-100 54 -92 36
-98 250 -3 105 -7 238 -10 298 -2 59 -1 107 4 107 4 0 38 -13 74 -30z m1904
-262 c-4 -106 -7 -245 -7 -310 l0 -116 -47 -10 c-96 -21 -289 -61 -325 -67
l-38 -6 0 319 0 318 123 22 c148 26 232 39 271 41 l29 1 -6 -192z m2184 29
c12 -10 42 -23 66 -30 l43 -11 0 -52 0 -53 -52 -19 c-29 -11 -63 -23 -75 -26
l-23 -7 1 143 c1 98 4 132 9 108 5 -19 19 -43 31 -53z m-3599 10 l107 -42 1
-135 c0 -74 3 -222 7 -327 3 -115 2 -193 -3 -193 -5 0 -65 27 -132 61 l-122
60 0 316 c0 296 1 315 18 309 9 -4 65 -26 124 -49z m631 -74 c4 -58 7 -206 7
-327 l0 -221 -225 -44 c-123 -25 -226 -43 -228 -40 -3 2 -7 151 -11 331 l-7
327 23 5 c13 3 66 13 118 21 52 9 133 24 180 35 47 10 97 18 111 19 l26 1 6
-107z m3349 39 c-3 -26 -11 -31 -101 -60 -53 -18 -100 -32 -104 -32 -13 0 -7
61 6 64 6 2 49 12 95 22 46 9 85 21 88 26 11 18 20 7 16 -20z"/>
<path d="M3120 6377 c-49 -18 -124 -71 -143 -101 -41 -62 -3 -86 51 -33 75 73
177 95 275 60 37 -13 50 -14 59 -5 15 15 3 37 -36 66 -34 26 -153 33 -206 13z"/>
<path d="M3963 6213 c-58 -12 -54 -63 4 -63 54 0 113 -18 150 -46 36 -27 61
-31 69 -9 22 56 -132 138 -223 118z"/>
<path d="M3130 6085 c-74 -21 -125 -57 -160 -112 -44 -69 -65 -139 -64 -219 0
-60 5 -82 33 -138 38 -78 86 -118 162 -136 115 -28 214 8 265 95 37 64 37 115
0 154 -58 61 -148 45 -193 -35 -25 -42 -30 -112 -12 -146 15 -28 5 -33 -42
-19 -118 35 -177 174 -135 315 54 179 257 244 376 121 68 -70 98 -27 33 46
-70 77 -160 102 -263 74z"/>
<path d="M3874 5984 c-39 -13 -104 -70 -104 -90 0 -26 22 -25 63 2 48 32 114
42 157 24 66 -27 101 -120 82 -215 -19 -92 -54 -159 -103 -194 -47 -35 -58
-34 -35 1 60 92 -13 230 -91 172 -51 -38 -67 -69 -67 -134 -1 -33 -5 -60 -11
-60 -15 0 -83 25 -91 33 -4 4 -8 28 -8 54 -1 35 -5 48 -17 51 -18 3 -39 -61
-39 -120 0 -33 1 -34 83 -61 89 -29 137 -64 137 -101 0 -53 -86 -116 -160
-116 -38 0 -107 28 -147 60 -33 26 -43 25 -43 -3 0 -51 117 -126 196 -127 58
0 159 52 189 99 34 51 39 83 21 119 -21 40 -20 42 9 42 40 0 90 25 139 70 67
62 99 157 95 278 -4 81 -7 95 -34 133 -16 23 -42 51 -57 62 -36 27 -117 37
-164 21z"/>
<path d="M1903 5903 c-25 -9 -12 -38 25 -59 20 -12 79 -54 131 -94 79 -61 92
-75 86 -94 -18 -57 -20 -84 -12 -119 10 -38 56 -97 76 -97 16 0 14 41 -4 83
-17 41 -20 93 -5 102 5 3 26 -13 47 -36 59 -65 63 -69 84 -69 24 0 24 21 0 68
-23 43 -65 85 -179 175 -127 101 -219 153 -249 140z"/>
<path d="M2980 5293 c-67 -60 -32 -183 82 -288 155 -144 349 -135 503 24 55
57 44 74 -56 82 -137 12 -226 49 -343 142 -62 49 -99 67 -142 67 -8 0 -28 -12
-44 -27z m132 -77 c24 -19 73 -55 111 -81 66 -45 67 -46 67 -91 0 -25 -5 -54
-10 -64 -9 -16 -14 -17 -43 -8 -44 15 -105 54 -145 92 -56 52 -94 145 -71 172
18 22 44 17 91 -20z"/>
<path d="M6305 5864 c-51 -28 -76 -57 -106 -119 -25 -52 -29 -71 -29 -150 1
-168 61 -234 219 -238 l67 -2 -4 -60 c-7 -110 58 -169 182 -163 53 3 71 8 82
23 21 28 0 47 -50 45 -83 -3 -97 0 -127 29 -31 31 -38 75 -19 112 6 10 38 33
70 49 62 32 74 52 40 70 -15 8 -27 7 -47 -3 -16 -8 -38 -18 -50 -21 -21 -7
-21 -5 -13 25 14 49 -8 132 -41 149 -78 42 -160 -58 -132 -162 9 -34 8 -38 -8
-38 -24 0 -76 45 -96 84 -21 40 -21 148 1 198 38 89 118 142 176 118 38 -16
96 -80 117 -128 26 -61 30 -67 46 -70 20 -4 26 31 14 78 -13 53 -54 111 -104
149 -37 29 -55 35 -101 38 -39 2 -66 -2 -87 -13z"/>
<path d="M7070 5871 c-96 -30 -205 -148 -166 -180 10 -8 21 -1 46 30 41 51 99
78 168 79 113 0 204 -88 219 -211 11 -93 -49 -186 -134 -208 -95 -23 -96 -23
-87 -4 14 32 16 111 4 147 -16 50 -62 86 -109 86 -121 0 -125 -206 -5 -281 52
-32 178 -24 258 15 233 114 146 499 -119 529 -27 3 -61 2 -75 -2z"/>
<path d="M8196 5604 c-153 -94 -249 -179 -312 -273 -22 -34 -24 -44 -14 -56
22 -26 44 -16 84 40 22 30 45 55 52 55 16 0 26 -44 18 -85 -5 -27 -2 -36 10
-41 44 -17 68 61 41 133 l-18 46 34 29 c19 15 68 51 109 79 89 62 130 98 130
116 0 26 -47 11 -134 -43z"/>
<path d="M6927 5045 c-92 -70 -184 -84 -278 -44 -38 17 -53 19 -62 10 -14 -14
-2 -36 37 -65 23 -18 42 -21 124 -21 87 0 103 3 154 29 67 34 121 86 116 112
-6 31 -30 25 -91 -21z"/>
<path d="M6536 4188 c-16 -25 -35 -99 -36 -136 0 -19 5 -23 23 -20 18 2 27 17
46 75 13 40 21 79 18 88 -9 22 -34 18 -51 -7z"/>
<path d="M3564 7646 c-15 -39 0 -45 123 -48 65 -2 840 -5 1723 -7 1488 -3
1607 -2 1619 13 38 45 89 44 -1736 51 -1579 7 -1723 6 -1729 -9z"/>
<path d="M4970 7428 c-24 -13 -25 -18 -28 -121 l-3 -107 -103 0 c-87 0 -105
-3 -119 -18 -15 -16 -17 -49 -17 -260 l0 -241 -72 -3 c-66 -3 -73 -5 -76 -25
-2 -13 4 -25 15 -31 10 -5 286 -10 634 -11 541 -2 617 -1 628 13 25 30 9 51
-39 54 l-45 3 3 237 c2 195 0 241 -12 257 -13 18 -28 20 -144 23 l-129 4 0
100 c-1 70 -5 105 -15 114 -20 20 -443 31 -478 12z m191 -62 c2 -2 3 -41 1
-85 l-4 -81 -79 0 -79 0 0 85 0 85 78 0 c43 0 81 -2 83 -4z m239 -81 l0 -85
-90 0 -90 0 0 85 0 85 90 0 90 0 0 -85z m-434 -377 l-1 -223 -99 0 -98 0 -4
223 -4 222 103 0 104 0 -1 -222z m309 0 l-5 -223 -120 -3 -120 -3 0 33 c0 18
-3 120 -7 226 l-6 192 131 0 132 0 -5 -222z m217 180 c2 -24 2 -125 0 -225
l-3 -183 -74 0 -75 0 -1 43 c-1 23 -2 124 -3 224 l-1 183 77 0 77 0 3 -42z
m188 -183 l0 -225 -60 0 -60 0 0 225 0 225 60 0 60 0 0 -225z"/>
<path d="M4618 6482 c-24 -5 -23 -39 1 -52 14 -7 206 -9 582 -8 519 3 563 4
573 20 7 11 7 21 1 27 -9 8 -1119 21 -1157 13z"/>
<path d="M5080 5880 l-35 -5 -3 -97 -3 -98 -104 0 c-81 0 -107 -3 -119 -16
-13 -13 -16 -44 -16 -185 l0 -169 -195 0 c-165 0 -197 -2 -201 -15 -15 -37 9
-42 249 -49 127 -3 447 -7 710 -8 428 -1 480 0 494 15 21 21 2 47 -36 47 l-27
0 4 158 c4 180 -3 212 -45 212 -50 0 -56 11 -59 105 -2 48 -6 91 -11 96 -9 9
-546 17 -603 9z m186 -64 c1 0 4 -31 6 -68 l4 -68 -88 0 -88 0 0 68 c0 38 3
72 7 76 5 5 153 -2 159 -8z m358 -12 c3 -9 6 -40 6 -70 l0 -54 -145 0 -145 0
0 70 0 70 139 0 c117 0 140 -2 145 -16z m-616 -191 l82 -6 0 -148 0 -149 -114
0 -114 0 -1 145 c-1 80 1 150 4 155 7 12 31 12 143 3z m431 -110 c-1 -60 -4
-130 -7 -157 l-4 -49 -127 6 c-69 4 -132 7 -138 7 -10 0 -13 37 -13 150 l0
150 145 0 146 0 -2 -107z m291 -48 l0 -155 -120 0 -120 0 0 155 0 155 120 0
120 0 0 -155z"/>
<path d="M1198 5342 c-26 -5 -29 -31 -8 -52 19 -19 34 -20 318 -20 218 0 301
3 310 12 16 16 15 47 -2 54 -16 6 -590 11 -618 6z"/>
<path d="M1187 5093 c-12 -11 -8 -51 6 -56 6 -2 85 -2 175 1 l162 5 0 -172 0
-171 -163 0 c-167 0 -187 -4 -187 -41 0 -21 20 -29 76 -29 l44 0 0 -150 0
-150 -49 0 c-52 0 -76 -16 -65 -44 6 -15 25 -16 157 -14 131 3 151 5 161 21
16 26 -7 37 -80 37 l-60 0 -1 150 -1 150 86 1 c227 1 248 5 240 45 -2 14 -15
20 -48 24 l-45 5 -3 167 -2 167 147 3 148 3 0 25 0 25 -346 3 c-190 1 -348 -1
-352 -5z"/>
<path d="M4800 5090 l-445 -5 0 -25 0 -25 138 -3 137 -3 0 -164 c0 -137 3
-166 16 -180 12 -12 19 -13 30 -4 11 9 14 48 14 180 l0 169 558 0 c588 0 605
1 589 44 -5 13 -22 16 -89 17 -266 4 -554 3 -948 -1z"/>
<path d="M4895 4564 c-12 -12 -13 -19 -4 -30 8 -10 52 -14 183 -16 l171 -3 3
-130 c1 -71 7 -134 11 -138 5 -5 18 -4 30 2 20 11 21 20 21 141 l0 130 99 0
c75 0 101 4 111 15 10 12 10 18 0 30 -11 13 -58 15 -311 15 -260 0 -300 -2
-314 -16z"/>
<path d="M8592 4278 c-17 -17 -15 -35 4 -42 9 -3 66 -6 128 -6 l113 0 7 -52
c3 -29 6 -101 6 -160 l0 -108 -111 0 -110 0 3 -27 3 -28 226 -3 c203 -2 227
-1 233 14 13 33 -12 44 -100 44 l-84 0 0 160 0 159 98 3 c96 3 97 3 97 28 l0
25 -250 3 c-187 2 -254 -1 -263 -10z"/>
<path d="M8230 2855 c-41 -12 -119 -35 -174 -51 -80 -24 -100 -33 -107 -52 -5
-13 -9 -122 -9 -243 0 -120 -2 -219 -5 -219 -3 0 -103 30 -222 67 l-216 67
-66 -17 c-84 -22 -466 -144 -508 -162 -20 -9 -35 -24 -39 -40 -11 -44 0 -613
12 -625 10 -10 150 -66 239 -95 22 -8 90 -32 150 -55 178 -67 166 -66 275 -26
232 85 495 187 502 194 4 4 11 130 14 279 4 150 11 270 15 268 22 -14 251 -65
291 -65 56 0 382 111 413 141 12 12 25 528 13 551 -10 20 -28 25 -244 73 -183
40 -231 42 -334 10z m307 -76 c73 -13 130 -26 125 -29 -4 -4 -63 -26 -131 -49
l-123 -43 -91 26 c-50 14 -119 31 -154 38 -35 6 -63 14 -63 18 0 11 235 68
270 65 19 -1 95 -13 167 -26z m203 -212 c0 -79 -3 -179 -7 -221 -6 -72 -8 -78
-32 -88 -59 -23 -275 -98 -276 -95 -1 1 1 101 4 222 l6 219 80 29 c44 16 107
39 140 52 33 13 66 24 73 24 9 1 12 -34 12 -142z m-560 93 c69 -17 140 -35
158 -41 l34 -11 -4 -223 c-1 -123 -6 -226 -9 -229 -3 -3 -32 1 -65 10 -32 8
-94 24 -137 35 -43 11 -93 30 -112 42 l-34 22 -1 219 0 218 23 -6 c12 -4 78
-20 147 -36z m-617 -336 c68 -15 110 -34 76 -34 -8 0 -47 -11 -87 -24 l-72
-23 -68 18 c-98 28 -101 29 -72 41 32 12 121 36 138 37 7 1 45 -6 85 -15z
m297 -91 c41 -14 76 -26 78 -28 1 -1 -36 -15 -83 -30 l-85 -28 -100 33 c-55
19 -98 36 -96 38 2 2 35 14 72 28 78 27 97 26 214 -13z m-552 5 c75 -21 105
-38 67 -38 -9 0 -55 -14 -103 -30 l-87 -30 -90 28 -90 28 95 31 c52 17 102 32
110 32 8 1 52 -9 98 -21z m261 -84 c48 -14 93 -27 101 -30 8 -3 -32 -23 -89
-43 l-104 -37 -96 33 c-53 18 -98 33 -101 34 -8 1 174 66 189 68 8 0 53 -10
100 -25z m440 -191 c-2 -115 -4 -233 -7 -263 l-4 -55 -86 -33 c-48 -18 -90
-32 -94 -32 -5 0 -8 117 -8 259 l0 260 78 29 c102 39 106 40 115 41 4 1 7 -92
6 -206z m-959 158 l95 -28 3 -268 c2 -252 1 -267 -15 -260 -10 3 -53 18 -95
32 l-77 26 -3 91 c-5 130 -9 436 -6 436 2 0 46 -13 98 -29z m689 -307 c-2
-173 -6 -267 -13 -272 -6 -3 -51 -21 -101 -38 -49 -18 -98 -35 -108 -39 -16
-7 -17 7 -11 256 3 145 9 267 13 272 5 5 170 70 219 86 2 1 2 -119 1 -265z
m-404 218 l110 -37 2 -274 c2 -254 1 -272 -15 -266 -9 4 -61 23 -114 42 l-98
35 0 223 c0 122 -3 243 -6 269 -4 25 -3 46 2 46 5 0 59 -17 119 -38z"/>
<path d="M7630 2633 c-60 -9 -70 -14 -70 -34 0 -26 17 -32 76 -22 36 6 50 13
52 27 4 16 -14 38 -28 34 -3 0 -16 -2 -30 -5z"/>
<path d="M1755 2491 c-40 -10 -100 -42 -152 -80 -114 -83 -181 -275 -149 -428
27 -130 80 -205 184 -257 26 -13 187 -87 357 -164 171 -77 358 -163 417 -191
275 -131 444 -164 649 -125 46 9 217 50 379 91 162 41 320 81 350 88 30 7 116
29 190 49 74 20 155 41 180 47 60 15 189 51 330 93 63 18 129 37 147 40 37 8
58 29 49 51 -7 20 -58 42 -258 110 -124 43 -164 53 -174 44 -36 -29 -16 -43
142 -99 l155 -55 -88 -26 c-170 -51 -309 -89 -465 -128 l-157 -40 -53 19 c-57
20 -161 63 -383 157 -77 33 -150 63 -161 67 -16 5 -23 18 -28 48 -10 61 -63
154 -113 198 -61 54 -121 81 -518 239 -192 76 -413 165 -490 196 -127 52 -148
58 -225 61 -47 2 -98 0 -115 -5z m562 -232 c236 -94 437 -174 448 -178 16 -6
10 -11 -32 -25 -241 -80 -362 -404 -233 -623 11 -18 17 -33 15 -33 -2 0 -31
16 -65 36 -33 19 -129 66 -213 103 -320 144 -593 272 -617 289 -99 74 -124
276 -51 421 52 102 170 176 288 180 21 1 191 -62 460 -170z m659 -258 c105
-48 165 -143 172 -276 3 -64 0 -91 -17 -136 -40 -105 -120 -174 -243 -207 -55
-15 -63 -21 -62 -41 1 -21 -2 -22 -35 -16 -46 8 -136 49 -177 80 -18 14 -46
53 -63 86 -27 54 -31 73 -31 140 0 89 29 185 75 245 85 112 274 174 381 125z
m367 -362 c186 -78 296 -123 335 -139 l44 -17 -114 -31 c-170 -47 -330 -88
-453 -116 -123 -27 -285 -42 -285 -26 0 5 17 10 39 10 54 0 154 54 206 112 50
55 79 111 96 183 6 28 13 56 15 63 3 10 9 10 24 2 12 -6 53 -25 93 -41z"/>
<path d="M2828 1871 c-79 -16 -158 -98 -178 -186 -23 -104 23 -195 120 -235
43 -18 115 4 115 35 0 16 -9 21 -55 27 -79 11 -110 47 -110 127 0 72 26 114
89 148 61 32 105 30 142 -6 31 -31 36 -64 18 -104 -13 -29 -71 -66 -77 -49 -9
29 -40 55 -56 49 -15 -6 -17 -15 -11 -50 14 -93 30 -102 111 -62 95 47 134
133 96 217 -31 72 -113 107 -204 89z"/>
<path d="M5054 2386 c-13 -34 13 -41 165 -44 126 -3 149 -1 161 13 26 31 -3
39 -165 43 -138 4 -155 3 -161 -12z"/>
<path d="M5580 2196 c-41 -13 -131 -40 -200 -61 -200 -59 -219 -66 -235 -82
-12 -12 -15 -54 -16 -231 -1 -119 -2 -243 -3 -275 -1 -32 1 -62 4 -67 12 -20
483 -180 528 -180 17 0 97 23 179 51 81 27 196 66 255 85 71 23 111 41 118 54
6 11 10 126 10 294 0 275 0 276 -22 290 -13 8 -36 18 -53 21 -16 4 -73 20
-125 35 -134 39 -289 79 -330 85 -22 3 -63 -4 -110 -19z m213 -83 c108 -27
109 -27 75 -39 -19 -6 -59 -17 -89 -24 -51 -11 -60 -10 -158 21 l-103 32 63
17 c88 23 88 23 212 -7z m-280 -72 c60 -16 110 -31 113 -33 2 -2 -35 -14 -82
-26 l-85 -23 -87 26 c-48 15 -91 30 -95 34 -4 4 16 13 45 20 29 6 60 16 68 21
8 5 15 10 15 10 0 0 49 -13 108 -29z m556 -1 c25 -13 -144 -63 -196 -57 -76 8
-70 22 24 49 84 25 137 28 172 8z m81 -277 l0 -228 -103 -33 c-56 -18 -105
-32 -110 -32 -4 0 -6 102 -5 227 l3 227 100 33 c55 18 103 32 108 33 4 0 7
-102 7 -227z m-840 183 l105 -33 7 -39 c8 -48 11 -424 3 -424 -3 0 -55 16
-115 36 l-110 37 0 228 c0 126 1 229 3 229 1 0 49 -15 107 -34z m465 20 c55
-15 55 -16 -57 -45 -62 -17 -83 -18 -110 -9 -45 15 -58 28 -27 29 13 0 47 9
74 19 61 22 58 22 120 6z m88 -293 c-3 -126 -8 -230 -10 -233 -3 -4 -50 -20
-171 -61 -10 -3 -13 43 -12 231 0 128 3 236 5 238 6 6 157 50 177 51 16 1 17
-15 11 -226z m-313 200 l60 -16 0 -237 0 -237 -60 21 -60 21 -1 210 c0 115 -2
220 -5 233 -5 26 -8 26 66 5z"/>
<path d="M6546 1930 c-52 -4 -72 -9 -80 -23 -17 -28 10 -39 79 -32 62 7 85 18
85 41 0 18 -7 20 -84 14z"/>
<path d="M8580 1859 c-91 -5 -171 -11 -177 -14 -19 -6 -16 -45 3 -52 18 -7
428 15 451 24 8 3 13 15 11 27 -3 19 -10 21 -63 22 -33 1 -134 -3 -225 -7z"/>
<path d="M8316 1575 c-11 -29 20 -42 107 -44 67 -2 86 1 98 15 24 29 -13 44
-112 44 -67 0 -88 -3 -93 -15z"/>
<path d="M1535 1499 c-76 -10 -91 -19 -81 -45 6 -15 19 -16 129 -10 130 8 163
20 137 50 -14 18 -71 19 -185 5z"/>
<path d="M4645 1403 c-11 -2 -30 -6 -43 -9 -17 -3 -22 -10 -20 -27 3 -21 6
-22 108 -19 113 4 146 16 120 46 -9 12 -30 16 -79 15 -36 -1 -75 -3 -86 -6z"/>
<path d="M1895 1344 c-85 -11 -95 -15 -95 -34 0 -29 13 -32 104 -24 98 8 116
15 100 41 -11 18 -50 24 -109 17z"/>
</g>
</svg>
