<?xml version="1.0" standalone="no"?>
<!DOCTYPE svg PUBLIC "-//W3C//DTD SVG 20010904//EN"
 "http://www.w3.org/TR/2001/REC-SVG-20010904/DTD/svg10.dtd">
<svg version="1.0" xmlns="http://www.w3.org/2000/svg"
 width="1024.000000pt" height="1024.000000pt" viewBox="0 0 1024.000000 1024.000000"
 preserveAspectRatio="xMidYMid meet">
<metadata>
Created by potrace 1.16, written by Peter Selinger 2001-2019
</metadata>
<g transform="translate(0.000000,1024.000000) scale(0.100000,-0.100000)"
fill="#000000" stroke="none">
<path d="M5675 8865 c-115 -29 -304 -116 -430 -199 -187 -122 -399 -308 -471
-411 -23 -34 -48 -58 -63 -62 -51 -13 -177 -76 -220 -111 -56 -46 -81 -87 -81
-138 0 -35 -5 -45 -40 -73 -22 -17 -52 -53 -67 -79 -25 -41 -28 -57 -27 -129
0 -60 5 -88 18 -109 32 -48 69 -73 117 -80 l47 -6 4 -87 c3 -52 14 -114 28
-159 21 -64 23 -77 12 -115 -7 -23 -22 -89 -33 -147 -11 -58 -22 -107 -24
-109 -5 -5 -54 52 -55 63 0 5 -6 17 -14 25 -22 25 -93 169 -116 235 l-20 58
33 45 c29 41 32 52 32 118 0 65 -4 82 -35 140 -19 37 -50 83 -69 102 l-34 35
7 231 c12 383 22 503 46 542 52 85 150 41 150 -67 0 -36 26 -78 49 -78 6 0 38
26 72 58 48 43 61 52 57 35 -9 -34 8 -37 32 -6 18 24 21 36 16 78 -9 69 -58
165 -108 212 -82 75 -217 93 -320 44 -168 -81 -231 -251 -230 -621 1 -96 4
-205 7 -241 l7 -67 -44 -13 c-36 -12 -47 -21 -67 -62 -19 -39 -22 -53 -13 -72
9 -18 8 -26 -4 -36 -30 -24 -36 -54 -40 -170 -4 -118 -4 -119 27 -169 17 -28
47 -62 66 -75 35 -24 36 -24 37 -102 1 -70 4 -82 30 -116 16 -21 41 -44 55
-52 18 -9 30 -28 39 -57 22 -73 116 -258 170 -333 155 -217 415 -410 667 -495
l79 -26 17 -110 c15 -93 25 -124 68 -209 28 -55 51 -110 51 -121 0 -14 -43
-64 -118 -140 -113 -115 -201 -216 -272 -316 -18 -27 -35 -48 -37 -48 -2 0
-43 16 -92 35 -164 65 -207 74 -265 55 -17 -5 -139 -44 -271 -86 -286 -91
-445 -143 -660 -217 -274 -95 -368 -122 -373 -107 -3 8 -22 32 -43 54 -32 36
-35 44 -24 59 7 9 10 28 7 42 -5 30 -132 152 -197 190 -38 23 -45 32 -40 49 3
12 9 41 12 66 3 25 15 56 27 70 12 14 32 47 46 73 14 26 28 47 31 47 4 0 12
-14 19 -30 19 -46 114 -138 166 -161 25 -12 73 -25 106 -29 33 -5 63 -11 66
-14 3 -3 -2 -38 -10 -77 -28 -124 10 -185 110 -177 83 7 98 24 147 170 24 70
46 132 49 137 4 5 28 13 54 17 63 9 104 26 151 65 61 48 118 182 100 234 -2 6
5 31 15 57 34 87 -9 174 -90 185 -41 5 -42 5 -28 32 8 14 14 30 14 36 0 5 9
32 19 60 11 27 27 70 35 95 23 65 28 70 76 81 84 19 111 -29 85 -152 -22 -108
-20 -122 20 -158 45 -39 90 -41 145 -6 42 26 56 59 81 186 29 147 -29 286
-146 355 -60 35 -186 44 -270 20 -51 -15 -70 -27 -125 -85 -81 -83 -116 -147
-155 -281 -29 -101 -32 -105 -60 -108 -63 -8 -115 -75 -130 -169 -4 -26 -12
-43 -20 -43 -13 0 -83 79 -213 240 l-60 75 37 11 c214 64 437 265 503 453 32
94 24 251 -28 498 -5 28 -2 36 29 65 19 18 40 43 46 55 24 47 42 169 39 263
-3 87 -1 95 17 98 41 8 65 33 65 67 0 27 -9 41 -47 75 -38 33 -44 43 -33 50 8
6 20 10 25 10 6 0 26 13 46 29 50 41 95 140 102 224 7 85 -3 92 -72 47 -65
-41 -146 -70 -197 -70 -38 0 -42 2 -48 30 -3 17 -23 57 -45 89 -72 105 -151
158 -257 171 -61 8 -66 11 -156 90 -302 267 -640 473 -874 534 -34 9 -99 16
-145 16 -110 0 -184 -33 -273 -123 -107 -107 -236 -287 -304 -423 -49 -98 -89
-265 -94 -401 -2 -42 -7 -63 -15 -63 -20 0 -90 -67 -103 -100 -19 -46 -9 -141
21 -184 47 -70 151 -95 234 -57 48 22 69 44 91 96 24 59 21 116 -10 168 -14
26 -36 53 -47 61 -21 15 -21 15 26 86 53 79 208 239 213 218 1 -7 -2 -65 -6
-128 -5 -63 -10 -216 -10 -340 -2 -204 2 -277 24 -438 l7 -52 -44 15 c-51 19
-156 30 -191 22 -13 -4 -34 -16 -47 -28 -20 -19 -22 -28 -17 -71 9 -68 52
-200 88 -273 52 -104 159 -237 228 -283 l61 -41 -28 -15 c-37 -20 -83 -64 -83
-80 0 -34 78 -65 163 -66 l38 0 -24 -32 c-34 -47 -38 -64 -19 -81 28 -23 53
-28 136 -28 53 0 101 8 143 22 36 11 66 19 69 16 2 -2 -30 -18 -72 -36 -99
-42 -138 -67 -196 -127 -74 -77 -126 -152 -173 -249 -38 -78 -95 -246 -95
-277 0 -6 -11 -19 -25 -30 -38 -30 -57 -74 -51 -116 5 -35 2 -41 -59 -105 -90
-96 -135 -172 -135 -231 0 -54 9 -74 56 -133 l34 -42 -29 -21 c-71 -50 -178
-255 -207 -396 -23 -111 -15 -180 26 -217 19 -17 26 -29 18 -31 -93 -27 -179
-73 -159 -86 15 -9 63 5 301 90 96 34 225 79 285 100 61 20 166 58 235 82 69
25 174 62 233 82 l109 37 63 -60 c56 -54 68 -61 103 -61 24 0 45 6 53 16 9 11
22 14 44 10 43 -8 90 10 104 40 9 20 16 23 36 18 20 -5 32 1 61 30 34 34 36
40 31 84 -3 26 -7 54 -9 61 -4 16 43 34 357 137 197 65 455 150 1044 346 128
42 176 48 241 27 84 -27 266 -102 395 -164 77 -36 167 -79 200 -95 33 -15 68
-31 78 -34 10 -3 17 -15 17 -31 0 -27 31 -65 55 -65 8 0 22 -14 30 -30 22 -43
76 -68 115 -53 17 6 32 7 35 3 12 -19 66 -22 91 -5 40 26 88 12 257 -74 84
-43 177 -88 207 -101 62 -25 331 -146 430 -192 231 -109 297 -138 309 -138 8
0 -2 -17 -22 -39 -47 -53 -68 -95 -72 -145 -2 -40 -5 -43 -91 -100 -110 -73
-203 -165 -233 -231 -13 -27 -28 -78 -34 -112 -12 -67 -11 -71 48 -170 l25
-41 -43 -24 c-216 -121 -372 -171 -421 -135 -15 11 -16 15 -2 47 8 19 29 46
45 58 35 28 54 82 41 118 -21 54 -106 78 -192 54 -56 -16 -132 -81 -169 -147
-30 -51 -34 -67 -34 -129 0 -67 3 -75 39 -128 22 -32 58 -70 80 -85 102 -68
297 -99 412 -66 92 26 344 146 944 451 201 103 225 125 217 204 -9 85 -106
138 -228 124 l-50 -6 3 33 c2 24 8 33 23 34 78 6 137 55 158 132 20 76 23 75
263 -42 119 -58 220 -105 225 -105 15 0 11 -10 -16 -42 -14 -16 -28 -47 -31
-68 -6 -37 -12 -42 -128 -114 -66 -41 -141 -92 -165 -113 -50 -43 -110 -130
-130 -189 -12 -38 -20 -44 -110 -88 -108 -54 -528 -285 -696 -384 -60 -35
-141 -82 -180 -105 -38 -22 -86 -50 -105 -62 -19 -12 -86 -51 -148 -86 -132
-75 -202 -125 -220 -159 -18 -34 -8 -113 18 -150 25 -36 80 -70 111 -70 30 0
86 29 364 190 230 132 428 245 530 300 33 18 112 63 175 98 63 36 133 74 155
85 22 10 93 50 157 89 98 58 120 67 137 59 26 -14 74 -14 88 0 8 8 19 5 41
-11 57 -42 135 -10 149 61 4 19 17 34 42 47 106 57 127 70 167 105 47 41 69
92 59 136 -6 28 -5 29 42 36 40 6 56 16 99 58 28 29 53 58 56 66 3 10 48 -8
168 -69 91 -45 199 -101 240 -125 41 -23 120 -66 175 -95 55 -29 161 -85 235
-125 142 -76 180 -92 180 -77 0 23 -45 55 -199 143 l-165 93 42 14 c22 7 60
30 83 51 l42 37 51 -55 c86 -91 164 -111 204 -52 82 118 67 319 -39 532 l-38
76 30 29 c38 37 69 102 69 147 0 70 -31 183 -75 274 -31 64 -45 105 -45 134 0
34 -6 47 -33 73 -23 21 -36 45 -40 71 -10 60 -109 251 -180 346 -36 47 -96
113 -133 145 -60 52 -163 113 -216 128 -31 9 -19 24 25 31 82 14 168 68 197
125 l19 38 -32 15 c-18 9 -52 20 -76 26 -23 5 -45 12 -49 15 -3 4 7 19 21 34
15 16 27 31 27 35 0 4 13 28 29 54 87 144 163 447 132 526 -19 48 -50 54 -138
25 -43 -14 -79 -25 -81 -23 -2 1 2 43 9 91 19 143 15 684 -6 795 -5 24 14 20
85 -17 70 -36 100 -58 168 -126 64 -64 73 -82 47 -91 -8 -4 -24 -25 -36 -48
-43 -86 -7 -214 73 -255 45 -24 135 -21 188 6 61 31 95 91 95 165 0 51 -5 67
-30 102 -33 47 -59 64 -99 66 -21 2 -26 7 -26 28 0 53 -52 205 -106 311 -66
128 -127 224 -214 333 -144 181 -241 262 -344 290 -61 17 -65 16 -140 -4 -76
-21 -153 -53 -269 -112 -244 -125 -490 -311 -794 -603 -73 -69 -139 -126 -148
-126 -36 0 -129 -57 -172 -105 -80 -88 -149 -203 -167 -277 -5 -23 -12 -28
-39 -29 -144 -4 -193 -14 -212 -43 -38 -57 33 -172 129 -212 l44 -18 -76 -57
c-43 -31 -92 -72 -110 -92 l-33 -34 26 -21 c31 -24 108 -36 199 -30 l63 4 7
-91 c8 -121 37 -230 90 -337 40 -83 43 -92 35 -136 -26 -137 -15 -288 29 -386
29 -63 136 -169 227 -222 79 -47 197 -104 214 -104 17 0 14 -6 -36 -72 -64
-83 -204 -228 -269 -279 -29 -22 -56 -50 -60 -61 -3 -11 -11 -17 -18 -15 -6 3
-34 1 -61 -3 -37 -6 -54 -4 -65 6 -15 13 -338 172 -505 248 l-79 37 44 26 c25
14 62 42 82 61 l37 35 108 -50 c124 -58 137 -63 187 -65 44 -2 72 21 80 66 15
77 -65 275 -147 367 -53 59 -126 109 -158 109 -16 0 -29 2 -29 4 0 2 16 27 35
56 67 100 78 209 31 300 -42 80 -172 244 -263 331 l-79 75 -12 95 c-7 52 -29
138 -48 194 -20 55 -38 107 -40 115 -3 10 14 23 55 42 33 16 83 50 113 77 37
33 65 50 93 55 98 18 153 98 180 261 16 97 -51 264 -148 371 l-58 63 26 50
c72 142 102 323 60 356 -20 16 -71 15 -152 -1 l-31 -6 -1 292 c0 224 3 289 12
282 7 -5 79 -44 162 -86 82 -42 150 -78 152 -79 1 -2 -4 -23 -11 -48 -17 -54
-8 -118 21 -158 64 -87 225 -78 288 17 73 111 -5 265 -127 249 -25 -3 -38 -1
-38 6 0 21 -61 130 -125 222 -86 125 -169 265 -255 430 -114 217 -162 280
-245 315 -53 23 -132 25 -210 5z m216 -74 c65 -44 80 -64 150 -196 105 -202
177 -323 294 -495 98 -145 145 -224 145 -244 0 -18 -51 0 -142 50 -56 31 -142
76 -192 99 -50 23 -96 48 -102 56 -5 8 -16 42 -23 77 -6 35 -21 93 -33 130
-20 63 -21 65 -29 39 -4 -16 -6 -34 -4 -40 2 -7 6 -32 9 -57 3 -25 10 -76 16
-115 11 -78 25 -445 17 -445 -3 0 -22 28 -43 63 -128 212 -311 363 -546 451
-154 57 -383 83 -535 60 -31 -4 -43 -3 -43 6 0 21 163 173 282 262 281 211
519 328 669 328 56 0 72 -4 110 -29z m-3821 -96 c193 -45 396 -153 677 -361
123 -90 251 -195 252 -205 1 -3 -23 -6 -51 -8 -97 -3 -233 -33 -343 -73 -132
-48 -325 -165 -437 -264 -131 -117 -276 -308 -358 -472 -23 -46 -44 -82 -46
-79 -2 2 -7 84 -10 183 -8 227 10 556 42 772 36 243 38 258 29 249 -17 -15
-57 -140 -75 -232 -12 -58 -15 -63 -120 -167 -114 -111 -186 -201 -226 -280
-39 -77 -47 -63 -42 75 4 107 9 135 41 227 55 163 137 298 290 478 80 94 133
134 210 157 56 18 89 18 167 0z m2313 -16 c20 -11 23 -77 6 -127 -9 -28 -13
-30 -35 -21 -42 16 -90 10 -126 -15 -20 -13 -40 -21 -45 -17 -20 12 -46 77
-44 106 2 38 14 49 76 73 51 20 131 20 168 1z m126 -113 c11 -24 22 -58 26
-78 6 -33 4 -38 -48 -82 -62 -53 -76 -57 -72 -20 1 14 -1 41 -5 60 -6 25 -3
48 11 84 10 28 19 67 19 87 l0 36 24 -23 c14 -12 34 -41 45 -64z m-401 -55 c8
-14 27 -38 41 -53 20 -23 23 -31 14 -51 -6 -13 -14 -49 -18 -80 -4 -32 -9 -57
-11 -57 -3 0 -20 6 -38 14 -44 18 -86 74 -86 114 0 39 25 116 54 162 l21 35 3
-29 c2 -16 11 -41 20 -55z m-28 -278 c30 -17 54 -33 53 -36 -2 -4 -3 -63 -3
-132 0 -69 -4 -125 -9 -125 -5 0 -32 21 -60 46 -61 55 -71 85 -71 213 0 89 1
93 18 79 9 -9 42 -29 72 -45z m1195 -87 c341 -85 605 -308 697 -593 35 -106
44 -163 26 -163 -8 0 -36 -14 -62 -31 -27 -16 -49 -29 -50 -27 -1 2 -12 27
-24 57 -31 77 -97 163 -198 262 -317 306 -780 431 -1132 303 -40 -14 -75 -24
-78 -21 -7 7 35 89 55 105 57 47 256 117 386 136 78 11 283 -3 380 -28z
m-2088 -87 c76 -15 155 -87 206 -186 26 -49 23 -54 -30 -47 -85 12 -276 8
-365 -9 -185 -34 -396 -127 -565 -248 -175 -126 -390 -364 -467 -516 -14 -29
-31 -53 -36 -53 -20 0 -150 70 -150 81 0 24 53 165 82 218 188 340 434 566
758 696 171 68 409 95 567 64z m834 -109 c19 -16 49 -35 67 -42 l33 -12 -3
-111 c-3 -125 -10 -133 -57 -68 -16 23 -39 44 -49 47 -17 6 -20 17 -21 97 -1
49 -4 96 -7 104 -9 22 -1 19 37 -15z m1019 -24 c101 -23 163 -44 258 -88 l46
-20 -99 -53 c-180 -97 -660 -239 -799 -236 -58 2 -81 13 -100 49 -39 77 -22
173 41 234 128 123 403 171 653 114z m-1316 -98 c-44 -142 -96 -187 -256 -222
-16 -4 -28 -10 -28 -14 0 -4 36 -26 80 -47 92 -45 118 -66 98 -83 -70 -56
-365 -29 -506 48 -55 30 -82 37 -82 23 0 -5 12 -28 25 -52 30 -51 26 -56 -48
-66 -109 -15 -365 33 -478 90 l-52 27 29 23 c42 35 208 119 290 148 177 63
230 71 494 72 221 1 252 3 315 23 39 12 79 28 90 36 28 22 37 19 29 -6z m2877
-3 c54 -28 65 -106 24 -161 -49 -64 -142 -69 -190 -12 -24 28 -27 39 -23 90 2
32 7 60 11 64 3 3 18 -3 33 -15 15 -11 32 -21 39 -21 19 0 48 38 42 55 -8 20
24 20 64 0z m-1111 -102 c162 -109 299 -267 340 -396 11 -35 10 -40 -23 -85
-19 -26 -46 -68 -59 -94 l-25 -48 -12 57 c-15 75 -14 83 7 83 21 0 62 27 62
41 0 5 -8 9 -17 9 -10 0 -47 14 -82 30 -81 39 -184 141 -236 234 -39 70 -85
184 -85 211 0 29 46 14 130 -42z m-1496 -4 c49 -39 71 -104 42 -128 -11 -10
-23 -8 -55 8 -22 12 -55 23 -73 25 -52 5 -58 59 -10 96 32 26 63 25 96 -1z
m1336 -21 c37 -145 143 -299 271 -394 44 -32 46 -36 53 -96 8 -79 21 -127 44
-156 20 -26 48 -22 58 10 3 11 22 48 43 83 55 95 197 199 311 227 80 20 100
14 100 -27 0 -115 -151 -409 -263 -512 -64 -59 -137 -77 -193 -49 -34 18 -42
14 -61 -32 -48 -116 -223 -291 -346 -348 -163 -74 -412 -68 -577 16 -178 90
-270 213 -270 363 0 65 27 236 46 293 14 42 14 52 0 113 -9 36 -17 115 -18
175 -3 123 -10 111 79 129 l32 6 -15 -34 c-21 -52 -17 -65 9 -23 29 47 64 75
108 83 26 5 39 2 48 -9 20 -24 34 -19 29 9 -5 22 -1 26 36 36 122 32 350 118
417 158 19 11 37 20 41 20 4 1 12 -18 18 -41z m-3992 -28 c38 -36 41 -36 77
-9 l27 22 26 -27 c35 -34 36 -105 4 -158 -33 -53 -109 -70 -171 -38 -75 38
-91 132 -36 204 15 20 31 36 35 36 4 0 21 -13 38 -30z m2800 -48 c19 -11 47
-41 67 -75 66 -109 69 -186 11 -253 -30 -35 -32 -42 -24 -76 12 -54 63 -179
100 -245 38 -68 124 -190 138 -195 5 -2 14 -28 20 -58 30 -162 173 -313 361
-380 41 -14 53 -23 51 -37 -12 -89 -8 -144 13 -196 7 -16 5 -17 -11 -9 -10 6
-54 26 -96 46 -262 119 -494 347 -624 612 -35 72 -64 138 -64 146 0 9 13 29
28 45 27 26 29 36 37 133 9 136 7 335 -6 382 -5 20 -20 50 -33 65 -18 22 -22
37 -18 71 2 23 7 42 11 42 3 -1 21 -9 39 -18z m-187 -55 c64 -21 116 -77 103
-111 -8 -20 -41 -20 -74 -1 -14 8 -52 14 -87 15 l-63 0 0 39 c0 64 42 84 121
58z m4342 -29 c181 -66 505 -510 577 -792 21 -82 26 -146 12 -146 -4 0 -32 32
-62 71 -88 115 -189 192 -304 230 -55 17 -54 16 -81 139 -16 72 -38 120 -51
108 -3 -4 4 -73 15 -155 11 -81 25 -211 31 -288 17 -238 11 -665 -10 -665 -3
0 -28 32 -55 71 -167 244 -495 492 -768 580 -84 27 -254 67 -319 75 -29 4 -60
8 -68 10 -8 1 -50 3 -93 3 l-77 1 122 113 c249 228 463 394 641 496 99 57 216
115 267 132 14 4 43 15 65 23 55 21 88 20 158 -6z m-313 -28 c0 -5 -5 -10 -11
-10 -5 0 -7 5 -4 10 3 6 8 10 11 10 2 0 4 -4 4 -10z m-5478 -41 c75 -46 137
-67 260 -89 133 -24 236 -26 306 -5 45 14 52 19 52 42 0 21 4 24 23 20 12 -3
58 -15 102 -26 44 -12 108 -24 142 -27 l62 -7 3 -71 c2 -39 -1 -152 -5 -251
-7 -159 -6 -191 11 -275 24 -117 27 -257 8 -328 -23 -84 -62 -140 -172 -249
-86 -85 -116 -108 -186 -142 -171 -81 -389 -94 -560 -34 -194 68 -348 189
-409 323 -39 84 -45 95 -56 94 -159 -27 -264 14 -391 152 -105 114 -202 317
-202 425 0 42 -3 40 75 43 82 3 282 -78 371 -150 26 -20 67 -75 106 -141 52
-86 70 -109 90 -111 14 -2 29 3 35 10 18 22 41 101 70 238 18 91 29 126 34
112 21 -56 60 -24 103 87 38 99 48 155 45 267 -3 138 2 144 83 93z m1605 -191
c-4 -93 -10 -176 -15 -184 -6 -11 -15 -8 -44 16 -51 43 -70 87 -62 152 5 45
11 57 40 78 18 14 34 33 34 42 0 24 33 77 44 71 5 -4 6 -74 3 -175z m-1728 80
c-2 -82 -33 -207 -66 -272 -18 -34 -26 -25 -37 39 -11 62 -27 108 -36 98 -4
-4 -16 -64 -25 -133 -16 -125 -43 -246 -72 -330 l-15 -46 -43 82 c-23 45 -56
100 -74 122 -17 22 -31 45 -31 52 0 19 125 201 175 255 103 111 208 215 217
215 5 0 8 -37 7 -82z m1581 56 l55 -16 -28 -24 c-36 -31 -62 -30 -83 2 -15 22
-19 23 -26 10 -9 -17 23 -70 49 -80 14 -6 19 -86 6 -86 -15 0 -81 67 -97 98
-16 31 -22 93 -9 105 11 12 78 7 133 -9z m-413 -158 c-2 -100 -6 -129 -24
-166 l-21 -45 -1 165 0 165 24 1 25 2 -3 -122z m508 -216 c17 -8 32 -16 34
-17 2 -2 -1 -15 -8 -29 -10 -23 -16 -26 -43 -20 -65 13 -78 30 -78 102 l0 66
33 -44 c18 -23 46 -49 62 -58z m2176 -201 c50 -83 70 -146 70 -221 1 -112 -42
-198 -118 -237 -27 -14 -28 -13 -6 30 21 41 22 124 3 159 -14 24 -15 23 -21
-36 -8 -70 -51 -161 -98 -212 -36 -39 -137 -102 -162 -102 -9 0 -33 25 -54 58
-40 61 -107 121 -166 150 l-36 17 5 70 c4 62 10 78 51 143 42 66 48 72 71 65
102 -29 223 43 317 188 l38 58 33 -31 c18 -18 51 -62 73 -99z m1058 -130 c459
-74 827 -317 1097 -723 36 -55 38 -60 20 -70 -55 -33 -151 -100 -174 -121 -15
-14 -30 -25 -33 -25 -4 0 -18 17 -32 38 -61 90 -235 249 -387 352 -120 81
-334 172 -495 210 -189 43 -338 47 -543 14 -52 -9 -96 -13 -99 -10 -3 3 7 29
22 58 79 152 170 246 269 278 52 17 78 19 176 15 63 -3 144 -10 179 -16z
m1707 -131 c60 -56 63 -144 6 -201 -25 -24 -41 -31 -86 -35 -63 -5 -105 17
-132 70 -34 67 8 180 56 150 35 -22 69 -15 88 18 9 16 20 30 25 30 4 0 23 -15
43 -32z m-3393 -108 c-4 -5 -21 -6 -37 -3 l-29 6 34 28 34 28 3 -26 c2 -14 0
-29 -5 -33z m-21 -60 c122 -37 195 -104 260 -235 108 -217 143 -467 97 -696
-27 -139 -95 -291 -116 -263 -4 5 -25 23 -46 39 -33 25 -48 29 -102 29 l-63 0
22 45 c56 111 70 170 70 286 0 87 -6 132 -27 215 -41 160 -82 289 -95 302 -27
27 -20 -28 28 -230 28 -119 50 -235 50 -266 0 -53 -1 -55 -32 -65 -79 -24 -97
-24 -120 2 -21 22 -36 26 -156 37 -123 11 -135 10 -153 -6 -19 -17 -20 -16
-49 11 -39 37 -108 177 -120 244 -6 30 -11 111 -11 180 -1 131 -5 161 -19 161
-6 0 -20 -61 -24 -112 -4 -40 -48 22 -66 93 -9 35 -9 56 0 88 10 37 14 42 33
37 12 -4 59 -9 104 -13 80 -6 82 -7 88 -34 4 -15 23 -47 44 -70 34 -39 41 -42
85 -42 33 1 59 9 87 27 58 39 123 132 138 199 7 32 16 57 21 57 4 0 37 -9 72
-20z m-3579 -24 l70 -1 12 -35 c7 -19 26 -59 44 -88 l31 -53 -36 -15 c-42 -18
-151 -29 -188 -20 l-27 7 39 47 c46 54 65 89 58 101 -3 4 -29 2 -58 -6 -31 -8
-75 -12 -108 -9 -30 3 -58 5 -62 6 -20 1 -3 21 40 48 37 24 54 29 81 25 19 -3
66 -6 104 -7z m3442 -18 c-20 -66 -112 -161 -166 -173 -34 -8 -69 17 -95 67
-19 36 -19 35 24 42 55 10 163 47 197 68 39 24 48 23 40 -4z m1711 -32 c85
-13 233 -54 275 -76 17 -10 10 -19 -69 -91 -160 -147 -319 -238 -415 -239
l-47 0 25 51 c35 69 31 91 -12 55 -82 -69 -296 -136 -436 -136 -118 0 -119 4
-20 77 104 77 154 123 147 135 -3 4 -18 8 -33 8 -44 0 -143 55 -170 94 -47 70
-36 78 128 91 73 5 231 24 321 38 59 10 222 6 306 -7z m-3329 -64 c-22 -24
-57 -103 -57 -129 0 -13 -19 -47 -42 -77 l-42 -54 -23 31 c-30 41 -37 68 -30
120 9 67 75 108 201 126 5 0 2 -7 -7 -17z m170 -30 c45 -30 71 -59 97 -110
l17 -33 -50 7 c-28 4 -63 2 -81 -4 -26 -10 -35 -8 -68 14 -28 19 -45 24 -70
20 -30 -4 -32 -3 -26 17 33 109 101 142 181 89z m3538 -20 c6 -4 19 -34 29
-67 10 -33 32 -87 48 -120 41 -82 180 -288 265 -392 l30 -37 25 27 26 28 6
-38 c3 -21 8 -64 11 -95 5 -42 12 -62 27 -72 36 -26 60 -6 108 91 50 101 117
185 197 248 115 90 323 177 345 143 12 -19 2 -86 -33 -213 -93 -333 -276 -552
-456 -544 -59 3 -66 -1 -70 -37 -13 -92 -107 -248 -204 -338 -179 -166 -371
-236 -568 -207 -217 32 -474 187 -537 325 -27 59 -47 172 -40 224 25 193 25
194 -22 289 -48 95 -81 219 -89 334 l-6 85 59 14 c33 7 82 24 109 36 l50 23
13 -25 c12 -22 19 -24 85 -24 60 0 85 6 148 34 91 39 236 146 334 245 66 68
87 80 110 63z m264 -148 c9 -7 45 -34 81 -60 71 -52 233 -212 261 -258 17 -29
17 -29 -21 -85 -21 -31 -47 -76 -60 -99 -12 -24 -23 -42 -24 -40 -2 1 -6 28
-10 58 -12 103 -56 265 -71 265 -14 0 -35 -70 -37 -122 -2 -24 -5 -43 -8 -43
-3 0 -34 44 -70 96 -36 53 -89 130 -118 172 -51 75 -104 173 -117 219 -5 20 6
15 86 -34 51 -31 100 -62 108 -69z m-4207 43 c-5 -45 20 -101 55 -123 15 -10
30 -19 32 -21 2 -1 -7 -26 -19 -55 -13 -29 -29 -75 -35 -103 -10 -42 -15 -50
-37 -53 -22 -3 -28 4 -46 46 -47 108 -48 128 -12 217 28 71 55 125 63 125 2 0
1 -15 -1 -33z m-1187 -107 c11 -34 65 -99 116 -140 80 -63 141 -53 157 25 l8
40 54 -1 c115 -3 104 4 96 -65 -7 -71 -56 -180 -95 -210 -30 -24 -26 -26 -81
64 -34 54 -69 73 -103 56 -12 -7 -48 -39 -80 -72 -39 -42 -60 -58 -68 -50 -38
38 -139 335 -139 410 l0 42 65 -40 c35 -23 67 -49 70 -59z m-187 48 c2 -85 91
-346 144 -420 39 -55 77 -45 156 44 24 26 52 48 62 48 11 0 29 -20 49 -55 34
-60 73 -87 107 -75 29 11 76 71 109 138 20 41 30 77 33 130 5 70 5 72 31 71
20 0 34 -12 63 -57 20 -31 78 -106 128 -166 l92 -109 -36 -36 c-54 -56 -81
-123 -80 -207 0 -54 5 -79 22 -108 l22 -37 -22 7 c-61 18 -121 59 -170 114
-66 74 -79 109 -62 159 13 38 17 83 15 166 -2 66 -12 47 -44 -82 -35 -136 -79
-222 -158 -301 -49 -49 -69 -58 -76 -33 -6 24 -41 36 -75 28 -13 -4 -66 -7
-118 -8 -93 -1 -160 -17 -160 -38 0 -30 -87 2 -114 41 -23 33 -20 84 15 231
31 135 50 291 32 272 -11 -12 -100 -351 -109 -415 -5 -38 -11 -48 -35 -59 -40
-18 -38 -41 5 -41 29 0 35 -5 46 -32 30 -81 46 -113 82 -160 21 -29 35 -55 31
-58 -5 -4 -24 -13 -43 -20 -19 -8 -50 -24 -69 -36 -44 -29 -111 -111 -111
-135 0 -32 -17 -22 -68 40 -118 142 -181 295 -190 458 -6 122 7 194 54 317 44
115 118 236 191 314 45 48 79 73 148 107 50 24 93 44 96 45 4 0 7 -19 7 -42z
m1870 -14 c25 -17 25 -42 1 -135 l-9 -37 -34 34 c-21 21 -44 34 -60 34 -25 0
-26 2 -26 54 0 60 3 63 70 65 20 0 46 -6 58 -15z m-1543 -73 c83 -26 90 -30
87 -52 -6 -41 -19 -45 -66 -21 -34 18 -129 103 -114 102 1 0 44 -13 93 -29z
m1480 -106 c32 -31 32 -52 1 -66 -52 -24 -105 15 -92 67 9 33 58 33 91 -1z
m-510 -161 c-8 -17 -15 -37 -15 -43 0 -6 -4 -11 -10 -11 -5 0 -7 13 -4 30 4
17 -1 51 -10 80 -9 28 -14 61 -10 75 6 23 9 20 35 -36 28 -59 29 -64 14 -95z
m-97 93 c6 -7 16 -34 23 -60 10 -43 10 -50 -7 -68 -15 -17 -75 -49 -91 -49 -2
0 -10 15 -18 34 -26 62 14 143 76 155 4 0 11 -5 17 -12z m321 -93 c23 -29 27
-74 10 -105 -10 -19 -10 -19 -40 2 -17 12 -59 26 -99 32 -42 6 -70 15 -70 23
0 25 38 57 76 64 77 15 101 12 123 -16z m2394 -155 c59 -63 125 -145 153 -191
44 -74 48 -85 47 -139 -3 -92 -45 -162 -178 -294 -99 -99 -121 -115 -215 -162
-93 -46 -274 -103 -330 -103 -21 0 -100 34 -100 43 0 7 62 54 162 123 34 24
52 47 74 93 15 35 36 67 46 72 25 13 58 82 58 119 0 18 12 49 29 73 70 103
116 243 127 387 4 49 10 90 15 90 4 0 54 -50 112 -111z m-2659 46 c-14 -22
-18 -51 -19 -148 -1 -95 -5 -129 -18 -154 -10 -18 -21 -33 -26 -33 -5 0 -19
21 -31 47 -20 42 -22 60 -18 144 l5 97 38 33 c33 30 74 51 83 43 2 -1 -4 -14
-14 -29z m215 -28 c42 -28 49 -50 35 -103 l-6 -22 -41 23 c-32 18 -131 45
-164 45 -8 0 -2 53 8 72 16 30 112 22 168 -15z m-400 14 c9 -6 10 -11 2 -15
-14 -9 -41 -61 -47 -89 -2 -12 1 -38 6 -59 8 -29 6 -53 -10 -114 -11 -43 -22
-80 -25 -83 -12 -11 -58 25 -77 59 -15 27 -18 50 -16 100 5 83 29 132 86 176
47 36 58 39 81 25z m2081 -22 c47 -7 91 -17 98 -24 14 -12 42 -137 42 -183 0
-22 -2 -23 -82 -17 -46 3 -101 9 -123 13 -38 7 -41 10 -52 54 -6 26 -13 69
-16 95 -3 26 -9 56 -13 67 -6 17 -4 18 27 12 19 -3 72 -11 119 -17z m-2041
-70 c-11 -30 -23 -56 -25 -59 -10 -9 -23 26 -18 45 6 20 55 78 61 72 1 -2 -7
-28 -18 -58z m1860 -95 c17 -10 31 -23 31 -29 0 -40 77 -68 212 -79 66 -4 69
-3 109 30 22 19 45 34 51 34 5 0 -5 -26 -23 -57 -18 -32 -42 -77 -53 -100 -15
-30 -28 -43 -49 -47 -16 -3 -66 -23 -112 -45 -95 -44 -164 -110 -206 -194 -14
-28 -30 -51 -35 -50 -5 1 -80 36 -167 77 -87 42 -174 83 -193 91 -18 7 -34 18
-34 22 1 21 141 191 255 311 l127 132 28 -39 c16 -22 43 -47 59 -57z m-1569
50 c25 -8 53 -21 64 -29 18 -14 18 -15 -9 -47 -15 -18 -35 -38 -44 -44 -15
-11 -144 -55 -148 -51 -1 1 3 21 9 43 l11 42 34 -15 c38 -15 48 -12 56 16 4
15 -4 23 -39 36 -37 14 -64 39 -64 59 0 17 62 13 130 -10z m-257 -200 c12 -18
28 -34 35 -34 16 0 13 -13 -26 -117 -15 -40 -31 -73 -37 -73 -18 0 -53 64 -66
122 -11 53 -10 63 17 149 l28 91 14 -51 c7 -29 23 -68 35 -87z m5157 -5 l52
-11 -22 -23 c-45 -48 -193 -89 -247 -68 -21 8 -16 13 55 60 84 57 88 58 162
42z m-6816 -107 c29 -119 97 -232 200 -333 47 -45 66 -71 66 -89 0 -14 7 -36
16 -48 15 -21 14 -22 -19 -22 -102 0 -323 110 -439 218 -64 60 -92 111 -78
147 15 40 64 108 126 175 l56 59 28 -20 c21 -16 32 -37 44 -87z m854 95 c8 -9
7 -32 -3 -79 -17 -83 -39 -126 -68 -133 -35 -9 -120 -21 -137 -19 -8 0 -28 2
-45 3 -16 1 -38 8 -49 16 -18 14 -18 16 4 105 12 49 27 94 34 98 6 4 56 10
111 13 55 3 110 6 121 7 12 1 26 -4 32 -11z m3170 -2 c63 -26 91 -102 59 -164
-17 -34 -33 -36 -41 -7 -3 14 -16 30 -27 37 -24 12 -38 4 -21 -13 7 -7 12 -38
12 -71 0 -71 -25 -114 -97 -162 -26 -18 -80 -67 -120 -109 -39 -42 -79 -76
-88 -76 -24 0 -29 27 -15 73 12 42 79 117 145 165 l30 21 -34 1 c-51 0 -130
-64 -164 -132 -14 -29 -31 -68 -38 -85 -8 -24 -18 -33 -34 -33 -31 0 -46 22
-47 68 -1 55 26 105 95 179 60 63 69 85 26 63 -46 -25 -112 -96 -140 -151 -32
-65 -39 -71 -59 -59 -34 21 37 170 111 233 54 46 133 84 234 109 62 16 80 24
66 29 -10 4 -21 11 -24 16 -10 16 28 54 68 68 51 18 57 18 103 0z m2487 -115
c10 -11 27 -22 38 -26 18 -6 19 -12 13 -68 -8 -85 -27 -152 -86 -314 -51 -140
-106 -236 -146 -254 -26 -12 -61 8 -135 79 -73 70 -86 64 -151 -82 -33 -71
-56 -72 -120 -3 -27 29 -56 65 -64 81 -14 26 -13 28 11 37 15 6 31 10 37 10 6
0 45 17 86 37 l75 38 15 -23 c10 -16 24 -22 50 -22 77 0 162 138 280 458 24
64 30 72 53 72 14 0 34 -9 44 -20z m-4971 -35 c4 -21 21 -50 41 -69 l34 -35
-28 -6 c-39 -8 -78 9 -83 37 -5 29 10 108 21 108 5 0 12 -16 15 -35z m-539
-15 c76 -45 190 -153 182 -173 -4 -10 -14 -17 -23 -17 -9 0 -45 -18 -80 -40
-90 -57 -103 -58 -171 -17 -32 19 -79 42 -106 52 -43 16 -107 72 -107 94 0 5
27 11 60 15 50 6 62 11 80 36 12 17 27 30 33 30 7 0 26 11 42 25 17 13 32 24
35 25 3 0 28 -14 55 -30z m5689 -62 c133 -48 244 -143 349 -303 68 -103 132
-233 141 -287 10 -53 -20 -104 -112 -197 -77 -77 -152 -128 -231 -156 -31 -10
-41 -11 -41 -2 0 11 41 131 69 201 22 55 52 216 49 263 -3 44 -28 76 -28 35 0
-26 -63 -269 -94 -362 -77 -233 -193 -432 -341 -588 l-88 -93 -23 48 c-30 63
-65 96 -151 141 l-71 37 73 109 c120 179 206 371 274 606 40 138 87 283 108
329 8 18 17 50 19 70 12 133 18 171 27 171 5 0 37 -10 71 -22z m-6067 -60 c59
-36 66 -48 28 -48 -36 0 -115 -42 -154 -82 -42 -42 -61 -86 -61 -142 0 -49
-14 -61 -50 -43 -55 28 -80 101 -61 174 20 75 140 171 216 173 16 0 53 -14 82
-32z m4038 -38 c127 -87 260 -360 200 -410 -22 -18 -56 -8 -178 50 -89 42
-108 54 -102 68 24 58 28 72 22 79 -5 4 -12 1 -17 -7 -17 -28 -85 -107 -106
-123 -20 -15 -21 -14 -22 34 -1 61 -17 112 -50 162 l-26 39 35 26 c19 15 57
48 84 75 43 41 54 47 82 43 18 -3 53 -19 78 -36z m-3849 -90 c112 -54 161 -97
198 -175 41 -86 50 -120 36 -145 -12 -22 -50 -27 -50 -7 0 8 -13 40 -30 73
-33 67 -100 138 -124 132 -14 -2 -8 -15 28 -67 48 -68 80 -146 74 -183 -2 -13
-15 -29 -31 -36 -25 -12 -31 -12 -46 2 -10 9 -23 33 -29 54 -6 21 -24 54 -39
74 -31 41 -91 93 -98 86 -3 -3 9 -24 26 -48 58 -80 88 -177 59 -195 -16 -10
-62 20 -107 68 -24 25 -76 69 -116 97 -69 47 -97 81 -97 116 0 39 43 111 85
143 89 67 139 69 261 11z m396 -27 c38 -41 53 -73 34 -73 -8 0 -53 -13 -100
-29 l-86 -28 -26 44 c-14 25 -24 45 -22 46 47 27 138 66 154 67 11 0 32 -12
46 -27z m5011 -55 c-43 -61 -61 -77 -85 -78 -33 0 -18 25 47 79 36 29 65 59
66 65 0 8 2 7 5 -1 3 -6 -12 -35 -33 -65z m-6280 -24 c50 -30 95 -61 99 -68 4
-7 -4 -28 -17 -47 -40 -56 -51 -146 -29 -234 l7 -29 -29 18 c-69 45 -101 77
-124 125 -13 28 -27 51 -32 51 -16 0 -8 -58 16 -104 l24 -47 -22 -11 c-11 -6
-52 -41 -91 -78 -38 -37 -81 -71 -94 -75 -60 -19 -79 85 -40 219 45 152 164
336 218 336 12 0 63 -25 114 -56z m4426 11 c35 -41 55 -105 47 -154 -5 -35
-52 -111 -68 -111 -8 0 -60 23 -300 132 -69 31 -85 48 -47 48 64 0 297 82 315
111 9 16 21 10 53 -26z m-4046 -135 c86 -8 105 -14 162 -47 36 -21 65 -41 65
-44 0 -3 -19 -11 -42 -18 -44 -13 -52 -15 -278 -100 -74 -27 -144 -51 -154
-53 -38 -6 -59 122 -34 202 7 22 15 40 18 40 3 0 17 -19 32 -43 15 -23 41 -58
59 -77 l32 -35 -7 30 c-4 17 -23 64 -42 106 -19 42 -34 79 -34 82 0 3 28 -4
62 -15 35 -10 107 -23 161 -28z m5367 -40 l115 0 24 -46 c30 -56 121 -140 162
-149 41 -9 71 19 111 107 l32 68 35 -33 c57 -54 105 -86 138 -93 26 -5 37 0
74 32 29 27 40 33 35 19 -5 -11 -16 -47 -26 -80 -38 -126 -102 -275 -118 -275
-18 0 -101 45 -152 83 -30 22 -97 79 -148 125 -78 72 -95 83 -106 71 -7 -8
-45 -53 -85 -102 -40 -48 -108 -119 -150 -159 -78 -73 -219 -188 -230 -188 -4
0 -15 15 -25 34 -25 47 -90 108 -159 149 l-57 35 37 32 c101 86 224 216 278
294 48 70 64 86 80 81 11 -2 72 -5 135 -5z m-5764 -227 l36 -27 -24 -12 c-22
-12 -201 -74 -212 -74 -3 0 28 32 70 70 41 39 80 70 85 70 6 0 26 -12 45 -27z
m6061 -94 l90 -87 -28 -16 c-15 -9 -64 -43 -108 -76 -84 -62 -111 -94 -93
-112 7 -7 -9 -29 -51 -69 -34 -33 -65 -59 -69 -59 -4 0 -51 22 -105 49 -54 27
-108 52 -121 55 -20 7 -14 14 65 80 94 79 255 240 292 294 13 18 27 32 31 30
5 -2 48 -42 97 -89z m1324 -104 c33 -73 59 -172 59 -226 0 -44 -43 -114 -94
-152 -20 -16 -79 -48 -129 -73 -150 -70 -275 -91 -414 -69 -144 24 -193 41
-164 59 4 3 38 51 75 106 l66 100 50 0 c116 0 321 101 423 209 36 38 68 79 72
90 11 35 25 24 56 -44z m-2146 -43 c93 -45 185 -147 185 -202 0 -39 -26 -96
-52 -114 -30 -21 -57 -20 -64 2 -19 58 -43 97 -84 136 -58 54 -147 90 -202 81
-21 -4 -38 -4 -38 0 0 4 14 25 32 47 58 73 140 92 223 50z m1002 -51 l33 -64
-22 -36 c-11 -20 -31 -47 -44 -60 l-23 -24 -37 33 c-46 40 -109 69 -149 70
l-30 0 39 32 c65 53 170 119 186 116 8 -2 30 -32 47 -67z m93 22 c0 -5 -5 -15
-10 -23 -9 -13 -11 -13 -20 0 -8 13 -1 21 28 29 1 1 2 -2 2 -6z m-1223 -133
c24 -10 66 -42 94 -70 l51 -51 -6 -52 c-4 -29 -10 -70 -13 -92 -3 -22 -18 -91
-34 -154 -35 -142 -64 -178 -123 -155 -21 8 -20 34 6 132 18 71 19 85 7 93 -8
5 -17 9 -20 9 -7 0 -185 -184 -235 -243 l-40 -48 -27 21 c-15 12 -27 29 -27
37 0 38 81 180 131 231 28 28 49 52 46 52 -17 0 -87 -49 -120 -83 -42 -44 -66
-87 -91 -164 -10 -29 -20 -53 -22 -53 -3 0 -11 15 -19 34 -13 30 -13 40 -1 74
22 61 50 112 101 180 25 35 44 66 41 69 -22 22 -176 -173 -176 -223 0 -13 -5
-24 -11 -24 -19 0 -3 94 25 156 32 69 95 129 234 224 61 41 115 85 121 98 13
28 50 29 108 2z m975 -60 c91 -60 99 -95 27 -113 -19 -5 -50 -16 -70 -24 -35
-14 -38 -14 -113 23 l-76 38 36 37 c73 75 126 85 196 39z m153 -200 c93 -43
155 -116 155 -182 -1 -61 -83 -178 -125 -178 -23 0 -23 1 -9 28 21 40 17 66
-17 122 -26 42 -42 56 -103 85 -55 26 -86 35 -125 35 l-52 0 16 30 c15 30 85
84 120 93 31 8 75 -2 140 -33z m1152 -46 c77 -141 107 -346 63 -441 -34 -75
-83 -66 -165 30 -39 45 -39 46 -7 136 30 81 15 94 -24 21 -45 -84 -79 -126
-125 -155 -21 -14 -40 -25 -42 -25 -2 0 4 24 14 53 20 58 24 144 9 196 -8 30
-5 42 28 103 30 55 43 70 72 80 19 6 55 24 80 39 25 16 50 27 55 26 6 -2 25
-30 42 -63z m-1899 -69 c38 -45 22 -89 -44 -123 -17 -9 -28 -6 -57 15 -26 18
-54 28 -93 31 l-56 5 7 36 c9 47 22 60 76 69 67 12 140 -2 167 -33z m1242 21
c123 -25 188 -27 283 -10 49 8 91 13 93 11 2 -2 -17 -33 -43 -70 -27 -36 -74
-102 -107 -147 -32 -45 -55 -84 -52 -87 3 -3 40 29 82 71 42 43 79 75 82 71 4
-4 6 -36 4 -73 -1 -48 -10 -83 -33 -133 -34 -74 -35 -74 -99 -33 -37 23 -236
130 -358 191 -40 20 -71 39 -70 42 2 4 24 48 48 99 42 85 47 92 70 87 14 -2
59 -11 100 -19z m-231 -89 c-29 -49 -35 -55 -52 -45 -19 10 -17 13 29 58 27
26 50 47 52 45 1 -1 -12 -27 -29 -58z m-394 18 c74 -35 115 -78 115 -119 0 -9
-19 -46 -43 -83 -42 -65 -69 -93 -150 -156 -48 -36 -90 -99 -111 -167 -22 -69
-32 -80 -67 -80 -65 0 -78 90 -28 192 70 143 70 166 0 73 -55 -72 -84 -149
-77 -197 6 -34 4 -38 -20 -44 -38 -10 -77 23 -88 75 -12 58 7 110 71 196 29
38 53 73 53 77 0 20 -26 4 -76 -47 -57 -57 -93 -121 -94 -167 0 -38 -16 -43
-45 -14 -19 19 -25 35 -25 68 0 96 104 211 294 325 60 36 116 75 125 85 13 16
24 19 66 13 28 -3 73 -17 100 -30z m-1081 -54 c-7 -34 -29 -50 -44 -35 -6 6 1
23 17 42 30 39 36 37 27 -7z m324 -32 c17 -6 32 -14 32 -18 0 -5 -66 -41 -146
-80 l-146 -72 -104 33 c-57 18 -104 36 -104 39 0 3 11 18 25 33 20 22 28 25
44 16 11 -5 28 -10 39 -10 10 0 29 -11 42 -25 28 -30 75 -40 113 -26 40 15 56
34 74 87 l16 46 41 -6 c22 -4 56 -11 74 -17z m-1144 -55 c25 -24 19 -47 -20
-85 -20 -18 -43 -49 -50 -66 -19 -45 -52 -44 -93 2 -58 66 -55 110 9 143 53
26 131 30 154 6z m540 -89 c23 -17 59 -19 85 -6 12 7 41 3 96 -14 43 -14 82
-28 87 -33 4 -4 -41 -31 -100 -60 l-107 -53 -55 22 c-30 11 -86 31 -124 44
l-69 22 44 25 c24 14 60 34 79 46 43 25 41 25 64 7z m-728 -101 c27 -26 58
-46 78 -49 l33 -7 -19 -36 c-21 -42 -18 -100 7 -139 19 -28 11 -29 -47 -3 -49
22 -96 64 -135 122 -21 32 -25 46 -21 90 2 29 13 71 23 92 l19 40 9 -33 c4
-18 28 -52 53 -77z m2147 -2 c-2 -10 -16 -31 -31 -46 -30 -29 -142 -99 -142
-87 0 15 153 149 172 150 3 1 4 -7 1 -17z m-1573 -37 c52 -14 99 -30 104 -35
6 -6 18 -10 28 -10 38 0 14 -19 -88 -69 l-106 -51 -66 38 c-37 21 -84 47 -104
57 -21 11 -35 21 -33 23 4 4 153 68 165 71 3 0 48 -10 100 -24z m-304 -76 c18
-16 99 -66 154 -95 l24 -13 -44 -20 c-45 -19 -81 -24 -172 -22 -41 1 -50 5
-73 36 -30 38 -45 113 -26 124 22 14 118 7 137 -10z m1194 -13 c8 -22 48 -60
72 -68 12 -4 -32 -97 -54 -115 -7 -6 -53 -32 -103 -58 -49 -26 -96 -52 -102
-57 -19 -15 -16 -3 16 60 15 31 43 97 62 145 24 65 40 92 58 102 35 19 40 18
51 -9z m-140 -51 c0 -13 -46 -126 -68 -165 -68 -124 -79 -136 -185 -196 -56
-31 -114 -66 -129 -76 -27 -19 -27 -18 11 54 22 40 54 109 71 153 17 44 37 85
43 91 7 7 44 29 82 50 39 21 90 50 115 65 44 27 60 33 60 24z m275 -66 c8 -13
6 -15 -23 -24 -22 -6 -22 -5 -10 14 14 23 24 26 33 10z m-595 -106 c0 -3 -34
-75 -76 -160 l-76 -153 -136 -75 c-74 -41 -136 -74 -137 -73 -2 2 19 46 45
100 26 53 56 120 65 148 13 38 26 57 47 69 16 9 80 46 141 83 111 67 127 74
127 61z m-360 -210 c0 -4 -27 -62 -60 -129 -62 -125 -116 -198 -166 -224 -16
-8 -59 -32 -95 -52 -77 -45 -85 -46 -64 -14 17 25 69 163 87 228 9 33 21 44
92 85 44 26 101 58 126 71 25 14 49 28 55 33 11 11 25 12 25 2z m-390 -314
c-59 -162 -108 -212 -165 -168 -60 48 -50 132 21 181 71 48 169 98 173 87 1
-5 -11 -50 -29 -100z"/>
<path d="M5210 7547 c-14 -7 -25 -19 -25 -27 0 -12 11 -14 50 -12 44 3 57 -1
104 -33 30 -19 59 -39 65 -42 10 -7 -17 32 -51 73 -35 42 -102 61 -143 41z"/>
<path d="M4663 7310 c-18 -10 -40 -34 -49 -52 -23 -44 -30 -156 -14 -213 16
-57 30 -59 19 -2 -26 144 60 262 167 227 69 -23 114 -117 116 -241 1 -75 15
-58 21 26 5 66 -13 150 -40 192 -9 14 -35 39 -57 54 -48 36 -114 39 -163 9z"/>
<path d="M5205 7296 c-58 -25 -94 -92 -94 -171 0 -37 1 -38 11 -15 48 117 80
150 146 150 109 0 196 -135 165 -252 -6 -21 -7 -38 -3 -38 15 0 38 76 34 114
-3 32 2 45 26 73 27 31 40 73 23 73 -4 0 -19 -12 -34 -26 l-27 -26 -15 28
c-44 84 -151 126 -232 90z"/>
<path d="M6075 7253 c-77 -39 -112 -69 -160 -141 -39 -58 -94 -196 -83 -208 2
-2 19 26 37 61 19 36 36 65 39 65 13 0 -8 -124 -27 -156 -27 -46 -22 -52 17
-20 39 34 56 98 42 161 -13 58 1 87 70 146 113 96 125 108 120 113 -3 2 -28
-7 -55 -21z"/>
<path d="M4745 7085 c-19 -18 -25 -35 -25 -70 0 -109 74 -150 126 -69 21 31
13 117 -12 145 -24 26 -60 24 -89 -6z"/>
<path d="M5182 7060 c-38 -61 14 -200 75 -200 65 0 78 133 20 198 -26 28 -77
30 -95 2z"/>
<path d="M4955 6959 c-8 -23 -42 -39 -85 -39 -98 0 -112 -140 -19 -187 37 -19
110 -16 144 7 17 11 26 20 20 21 -5 0 -41 1 -79 2 -62 2 -71 5 -88 28 -29 39
-17 66 34 74 52 9 88 44 88 85 0 35 -6 39 -15 9z"/>
<path d="M5185 6717 c-84 -58 -112 -73 -170 -86 -37 -9 -59 -9 -79 -1 -50 19
-66 -19 -18 -44 15 -8 36 -24 47 -36 27 -30 84 -58 132 -65 53 -8 100 18 145
83 37 53 66 148 54 178 -9 25 -49 15 -111 -29z m30 -102 c-27 -48 -60 -75 -92
-78 -27 -2 -114 33 -108 43 2 4 25 13 51 19 25 7 74 29 108 51 71 46 83 36 41
-35z"/>
<path d="M3183 7354 c-17 -8 -39 -24 -48 -35 -19 -20 -13 -54 8 -46 6 3 35 13
63 23 l51 17 59 -29 c32 -15 62 -30 66 -32 17 -9 -7 41 -36 74 -27 31 -39 37
-81 41 -33 2 -61 -2 -82 -13z"/>
<path d="M2632 7335 c-55 -24 -93 -56 -123 -103 -44 -70 -35 -80 25 -28 77 66
136 90 202 83 65 -7 88 11 59 43 -22 24 -112 27 -163 5z"/>
<path d="M3165 7127 c-36 -17 -93 -79 -100 -110 -17 -74 -20 -108 -14 -173 11
-112 24 -115 24 -6 0 159 50 240 155 250 43 4 51 1 84 -29 46 -43 63 -118 47
-206 -14 -73 -13 -76 9 -28 12 26 19 64 19 109 2 138 -38 197 -136 203 -35 2
-70 -2 -88 -10z"/>
<path d="M2655 7103 c-50 -13 -106 -46 -138 -83 -74 -87 -89 -259 -26 -316 20
-18 20 -18 9 11 -19 49 -14 168 9 212 43 84 121 129 203 118 92 -13 144 -93
136 -212 -4 -69 7 -68 22 1 12 61 6 114 -20 166 -23 45 -44 64 -100 89 -45 21
-59 23 -95 14z"/>
<path d="M1610 6943 c0 -5 26 -22 58 -38 63 -31 167 -99 177 -115 3 -6 -1 -18
-11 -27 -26 -27 -46 -83 -39 -112 9 -37 51 -88 86 -107 30 -15 30 -15 -10 36
-23 29 -41 63 -41 76 0 29 26 84 40 84 5 0 23 -20 41 -45 31 -43 79 -84 79
-68 0 5 -9 22 -21 38 -11 17 -31 50 -44 75 -32 64 -109 135 -180 170 -63 31
-135 48 -135 33z"/>
<path d="M3180 6837 c-34 -17 -62 -74 -56 -114 4 -31 3 -33 -25 -33 -19 0 -38
9 -54 25 -25 28 -43 18 -25 -14 16 -31 51 -51 88 -51 66 0 122 -46 122 -100 0
-79 -63 -116 -188 -108 -73 5 -74 5 -51 -13 42 -32 140 -39 188 -15 48 26 101
92 101 129 0 33 -21 72 -50 94 -13 11 -13 13 1 25 54 44 65 118 24 162 -27 29
-39 31 -75 13z"/>
<path d="M2680 6792 c-52 -52 -50 -132 4 -167 22 -14 28 -15 60 -1 69 29 89
150 32 188 -25 17 -68 7 -96 -20z"/>
<path d="M2583 6430 c-34 -20 -49 -68 -18 -56 10 4 17 -3 20 -22 24 -113 59
-167 136 -206 29 -14 66 -26 82 -26 42 0 114 39 151 81 17 20 46 44 64 53 35
18 42 42 15 49 -10 3 -44 5 -75 5 -115 1 -263 57 -311 119 -22 28 -24 28 -64
3z m102 -104 c54 -33 108 -50 203 -63 23 -3 42 -9 42 -14 0 -16 -76 -69 -107
-75 -19 -4 -47 -1 -63 6 -48 20 -106 83 -123 134 -9 25 -14 46 -13 46 2 0 29
-15 61 -34z"/>
<path d="M7296 5900 c-37 -11 -76 -48 -76 -72 0 -23 -3 -23 75 8 78 31 120 28
213 -16 34 -16 62 -26 62 -22 0 15 -85 91 -113 101 -33 13 -120 13 -161 1z"/>
<path d="M6769 5777 c-39 -26 -79 -82 -79 -110 0 -16 7 -12 41 22 51 50 94 61
158 37 76 -28 85 18 10 56 -46 24 -89 22 -130 -5z"/>
<path d="M8446 5758 c-54 -28 -187 -163 -218 -223 -16 -32 -28 -74 -32 -115
l-6 -65 35 73 c20 39 40 72 45 72 5 0 17 -11 26 -25 20 -30 14 -66 -21 -138
l-25 -52 45 47 c33 35 45 55 47 80 2 56 -1 72 -24 116 l-23 42 100 100 c54 55
97 101 94 104 -2 2 -21 -5 -43 -16z"/>
<path d="M7325 5666 c-116 -43 -150 -216 -72 -361 20 -38 21 -33 2 29 -30 99
-15 203 35 251 26 24 40 30 94 33 107 7 178 -39 221 -142 23 -53 27 -141 10
-182 -8 -19 -10 -34 -5 -34 12 0 50 104 50 137 0 15 -7 53 -16 85 -39 139
-195 229 -319 184z"/>
<path d="M6833 5559 c-75 -48 -83 -155 -19 -283 20 -42 42 -76 48 -76 7 0 7 4
0 13 -17 21 -62 164 -62 197 0 37 32 95 60 110 34 18 92 11 131 -15 49 -35 86
-106 100 -196 17 -109 33 -113 26 -7 -12 173 -91 278 -209 278 -26 0 -56 -8
-75 -21z"/>
<path d="M7345 5360 c-28 -30 -16 -112 21 -151 37 -38 87 -37 116 2 59 78 -72
221 -137 149z"/>
<path d="M6945 5305 c-41 -40 -32 -127 17 -165 18 -15 18 -18 2 -55 -32 -77
-3 -159 74 -207 55 -34 151 -30 206 9 40 28 84 89 72 100 -3 3 -15 -5 -26 -20
-11 -14 -39 -35 -63 -46 -107 -52 -225 -1 -229 99 -1 37 3 47 29 69 17 14 46
35 65 46 39 23 76 91 60 107 -8 8 -16 -1 -27 -30 -12 -28 -25 -44 -45 -51
l-29 -10 6 48 c6 53 -13 103 -46 121 -29 15 -39 13 -66 -15z"/>
<path d="M7559 4943 c-1 -5 -1 -12 0 -17 1 -5 -17 -29 -41 -53 -44 -45 -109
-76 -188 -87 -88 -13 -102 -18 -92 -28 12 -12 137 -11 180 1 49 15 123 65 155
106 16 20 36 35 45 34 53 -5 57 16 7 37 -38 15 -64 18 -66 7z"/>
<path d="M5295 5468 c4 -29 12 -58 18 -65 7 -6 41 -15 76 -19 59 -6 63 -6 58
12 -3 10 -8 36 -12 56 -7 44 -21 53 -94 62 l-53 7 7 -53z"/>
<path d="M2411 5171 c-74 -6 -74 -6 -87 -41 -7 -19 -13 -45 -13 -57 -1 -21 3
-23 57 -23 71 0 95 7 109 29 14 22 27 102 16 99 -4 -1 -41 -4 -82 -7z"/>
<path d="M3830 4760 c-212 -71 -428 -145 -480 -164 -336 -121 -472 -170 -520
-186 -30 -11 -127 -44 -215 -75 -88 -31 -236 -83 -330 -115 -93 -33 -235 -82
-315 -110 -80 -28 -181 -64 -225 -79 -218 -76 -327 -198 -312 -347 15 -149
107 -236 323 -306 91 -30 110 -32 229 -32 107 0 142 4 200 22 149 48 208 101
208 186 0 74 -53 126 -130 126 -21 0 -70 -9 -108 -21 -83 -25 -230 -30 -290
-10 -59 20 -125 52 -125 61 0 11 117 59 265 109 66 22 208 72 315 111 107 39
377 137 600 216 223 80 461 166 530 191 496 179 819 282 932 295 109 12 147
30 178 80 29 48 25 82 -13 124 -40 44 -80 53 -227 54 l-106 0 -384 -130z m497
21 c-24 -32 -49 -72 -56 -89 -11 -25 -22 -33 -74 -47 -34 -10 -95 -30 -135
-46 -87 -35 -91 -35 -65 -6 11 12 39 54 63 92 23 39 52 81 64 94 34 38 98 58
193 60 l53 1 -43 -59z m186 18 c22 -27 22 -41 -1 -69 -18 -23 -110 -50 -170
-50 l-33 0 32 48 c59 87 80 104 119 98 19 -3 43 -15 53 -27z m-505 -106 c-35
-49 -70 -99 -78 -110 -10 -13 -64 -39 -140 -67 -138 -51 -150 -54 -128 -28 9
9 25 36 37 59 25 50 76 126 93 140 14 12 271 103 276 98 2 -1 -25 -43 -60 -92z
m-304 -50 c-10 -16 -33 -53 -50 -83 -74 -126 -67 -120 -218 -172 -75 -26 -136
-44 -134 -40 2 4 16 32 30 62 15 30 42 77 60 105 32 48 37 51 143 88 61 21
124 45 140 52 44 20 49 18 29 -12z m-374 -147 c-17 -24 -30 -47 -30 -52 0 -4
-18 -35 -40 -70 -36 -54 -48 -64 -98 -84 -88 -35 -207 -80 -210 -80 -2 0 10
19 26 43 16 23 43 74 62 114 23 52 39 74 59 82 22 8 178 65 231 84 29 10 29 7
0 -37z m-350 -148 c-38 -76 -92 -143 -134 -169 -17 -11 -62 -29 -101 -41 -38
-12 -88 -29 -110 -39 -40 -18 -81 -26 -59 -11 6 4 37 55 69 114 43 80 65 110
86 118 55 23 274 97 277 94 2 -1 -10 -31 -28 -66z m-374 -125 c-20 -38 -56
-93 -80 -123 -42 -52 -49 -57 -162 -99 -66 -25 -125 -47 -132 -49 -8 -3 2 20
22 50 19 30 49 85 67 121 36 72 41 75 199 126 36 12 72 26 80 31 38 25 40 8 6
-57z m-354 -134 c-26 -44 -69 -104 -97 -134 -43 -45 -61 -56 -130 -79 -44 -14
-83 -26 -87 -26 -16 0 82 213 104 227 19 11 231 92 245 92 7 1 -9 -35 -35 -80z
m-335 -151 c-48 -103 -55 -113 -94 -130 -22 -10 -54 -21 -71 -24 -28 -6 -30
-4 -41 39 -6 25 -11 66 -11 90 0 43 1 45 43 62 41 17 205 73 219 74 3 1 -17
-49 -45 -111z m-263 -25 c-4 -25 11 -101 30 -144 6 -14 0 -16 -42 -11 -36 3
-56 0 -76 -13 -29 -19 -66 -82 -66 -112 0 -15 -2 -16 -10 -3 -5 8 -10 45 -10
81 0 59 4 73 33 115 20 31 52 61 87 81 30 18 55 33 57 33 1 0 0 -12 -3 -27z
m67 -235 c37 -39 39 -44 28 -75 -14 -43 4 -132 33 -163 l22 -23 -33 6 c-45 9
-193 80 -210 101 -8 9 -16 38 -18 64 -7 77 37 130 110 131 20 1 39 -11 68 -41z
m599 -73 c27 -25 27 -82 -2 -112 -36 -38 -69 -29 -187 55 -39 28 -59 48 -50
51 102 34 205 37 239 6z m-388 -9 c52 -7 84 -18 100 -32 34 -31 140 -100 166
-108 12 -4 22 -11 22 -15 0 -19 -128 -44 -225 -45 -85 -1 -104 2 -127 19 -37
27 -78 114 -78 166 l0 42 33 -8 c17 -4 67 -13 109 -19z"/>
<path d="M4530 4616 c-118 -41 -240 -83 -270 -94 -30 -11 -131 -47 -225 -80
-93 -32 -251 -89 -349 -126 -98 -38 -197 -74 -220 -81 -40 -13 -531 -199 -756
-287 -218 -86 -237 -99 -247 -178 -13 -93 47 -150 155 -150 93 0 94 1 682 232
168 66 319 125 335 133 17 7 91 36 165 64 74 29 180 69 235 91 55 21 138 53
185 70 47 17 117 44 155 60 39 15 86 32 105 38 60 17 374 129 428 152 65 28
83 49 89 104 5 40 2 48 -24 75 -36 35 -88 51 -168 50 -48 0 -105 -15 -275 -73z
m388 4 c33 -20 43 -55 21 -77 -9 -9 -17 -6 -33 9 -28 27 -115 68 -144 68 -13
0 -20 4 -17 10 3 6 36 10 73 10 49 0 76 -5 100 -20z m-154 -54 c36 -13 77 -31
92 -41 34 -22 33 -22 -113 -70 l-112 -36 -43 22 c-50 25 -162 59 -197 59 -41
0 -15 13 102 52 132 44 183 46 271 14z m-368 -115 c64 -12 166 -50 160 -60 -3
-4 -69 -29 -148 -55 l-144 -48 -70 30 c-38 17 -100 37 -137 44 l-69 14 84 28
c46 15 97 33 113 41 35 16 142 19 211 6z m-346 -138 c80 -21 140 -43 140 -53
0 -4 -26 -17 -57 -29 -32 -11 -91 -32 -132 -47 -73 -27 -73 -27 -120 -10 -69
27 -177 56 -205 56 -33 0 -42 16 -13 23 12 3 74 23 137 46 123 43 137 44 250
14z m-333 -139 c40 -8 89 -22 110 -30 l38 -16 -95 -34 c-52 -19 -116 -44 -142
-56 l-47 -21 -58 26 c-32 14 -105 34 -163 44 l-105 19 139 46 c152 50 176 52
323 22z m-320 -149 c88 -21 112 -30 102 -38 -2 -2 -67 -27 -144 -56 l-141 -52
-92 30 c-51 17 -122 36 -160 42 -37 7 -62 14 -57 16 6 2 60 24 120 48 107 43
112 44 194 38 46 -3 126 -15 178 -28z m-360 -142 c57 -14 101 -29 96 -34 -4
-4 -59 -28 -121 -53 l-114 -46 -119 40 c-66 22 -134 40 -150 40 -38 0 -37 12
4 29 140 57 161 62 230 56 38 -3 116 -17 174 -32z m-376 -107 c30 -8 77 -23
104 -34 l50 -20 -40 -17 c-52 -22 -164 -40 -199 -31 -38 9 -66 41 -66 74 0 16
3 32 7 35 11 12 86 8 144 -7z"/>
<path d="M5140 4456 c-30 -7 -77 -22 -105 -33 -200 -81 -472 -189 -585 -233
-399 -155 -1047 -416 -1265 -510 -49 -21 -182 -77 -295 -125 -113 -48 -228
-100 -256 -116 -132 -74 -198 -207 -169 -340 40 -183 283 -322 560 -320 166 1
262 25 366 91 103 67 116 185 26 240 -41 25 -98 25 -195 0 -109 -27 -176 -31
-262 -13 -81 16 -153 48 -148 65 8 23 135 83 428 203 85 35 211 87 280 115 69
29 251 103 405 165 154 63 404 166 555 230 151 65 303 128 337 141 34 13 70
28 80 34 34 19 209 87 438 170 67 24 95 53 102 109 4 30 0 43 -22 69 -15 18
-41 40 -57 48 -41 21 -152 26 -218 10z m224 -75 c42 -40 29 -89 -30 -111 -18
-7 -29 -2 -62 30 -23 21 -66 47 -99 59 -32 12 -65 25 -73 28 -26 11 50 21 147
20 82 -2 94 -5 117 -26z m-284 -52 c55 -12 108 -35 145 -64 17 -14 18 -17 5
-25 -8 -5 -19 -10 -25 -10 -5 0 -52 -18 -104 -41 l-95 -40 -52 25 c-59 29
-154 56 -196 56 -15 0 -28 4 -28 9 0 14 251 110 275 106 11 -2 45 -9 75 -16z
m-335 -148 c61 -10 128 -27 149 -36 l40 -17 -30 -13 c-16 -8 -87 -39 -158 -70
-113 -49 -131 -54 -145 -41 -42 36 -135 68 -234 80 -21 2 -40 6 -43 8 -2 3 28
15 67 28 39 13 103 36 143 51 39 16 78 28 86 29 8 0 65 -9 125 -19z m-360
-156 c81 -17 165 -44 165 -53 -1 -11 -264 -123 -288 -123 -9 0 -56 14 -104 31
-50 17 -118 33 -162 37 -42 3 -76 9 -76 12 0 6 212 84 270 99 54 14 118 13
195 -3z m-418 -160 c108 -16 213 -42 213 -54 0 -3 -58 -28 -128 -56 -70 -27
-138 -55 -152 -62 -30 -15 -53 -16 -66 -3 -15 15 -152 48 -233 56 -39 3 -71
10 -71 14 0 4 42 24 93 45 50 21 110 46 132 55 51 23 79 24 212 5z m-466 -155
c30 -5 96 -17 147 -25 52 -8 105 -21 118 -28 23 -12 19 -15 -88 -56 -62 -24
-139 -55 -171 -69 l-58 -25 -93 31 c-55 19 -125 34 -174 38 -45 4 -82 10 -82
13 0 4 26 17 58 28 31 12 100 40 152 62 104 44 112 46 191 31z m-296 -189
c145 -26 174 -34 155 -47 -41 -26 -275 -112 -285 -104 -16 14 -152 50 -240 65
-52 9 -73 15 -60 20 11 3 63 23 115 45 113 45 158 48 315 21z m-370 -135 c105
-19 190 -45 179 -56 -5 -4 -38 -20 -74 -36 -36 -15 -81 -38 -102 -51 -29 -18
-42 -20 -67 -13 -38 11 -95 -4 -137 -36 -39 -28 -74 -98 -74 -145 l0 -34 -20
25 c-10 14 -24 46 -31 73 -19 82 7 161 78 229 64 62 106 69 248 44z m-65 -230
c0 -25 7 -40 26 -55 15 -12 33 -21 41 -21 11 0 12 -8 7 -35 -8 -45 16 -110 63
-172 l35 -46 -38 8 c-66 12 -197 56 -233 78 -60 36 -78 124 -41 197 21 41 76
79 118 80 19 0 22 -5 22 -34z m620 -96 c37 -26 47 -63 26 -95 -21 -31 -38 -39
-69 -31 -29 7 -177 102 -177 114 0 11 140 40 170 34 14 -2 36 -12 50 -22z
m-352 -15 c44 -3 61 -10 100 -42 25 -20 77 -54 116 -74 l70 -37 -40 -17 c-63
-26 -140 -44 -204 -46 -52 -2 -64 1 -86 22 -47 44 -114 162 -114 202 0 6 20 7
53 2 28 -4 76 -9 105 -10z"/>
<path d="M5610 4245 c-44 -12 -77 -26 -245 -105 -245 -113 -526 -239 -715
-320 -41 -18 -129 -56 -195 -85 -66 -29 -210 -92 -320 -140 -388 -170 -552
-250 -565 -275 -6 -12 -14 -46 -17 -76 -6 -52 -5 -55 34 -93 69 -69 152 -67
348 11 55 22 123 49 150 60 28 11 74 31 103 44 29 13 54 24 56 24 2 0 66 30
142 66 77 36 159 75 184 86 132 59 430 198 535 248 139 66 212 100 218 100 3
0 69 31 148 69 79 37 176 81 214 96 183 72 220 101 220 169 0 86 -68 136 -185
135 -36 0 -85 -7 -110 -14z m195 -50 c64 -31 72 -101 15 -125 -29 -12 -33 -11
-64 19 -22 21 -62 42 -117 61 -46 16 -79 29 -74 30 6 0 33 7 60 15 67 18 140
18 180 0z m-235 -84 c55 -12 107 -34 138 -59 l24 -18 -79 -36 c-136 -62 -143
-63 -188 -41 -49 25 -173 58 -235 63 -16 1 147 73 215 95 22 7 49 11 60 9 11
-2 40 -8 65 -13z m-205 -175 c39 -12 68 -26 65 -31 -3 -6 -63 -36 -134 -69
l-129 -58 -76 31 c-42 17 -107 35 -146 41 -38 6 -71 13 -73 14 -1 2 35 18 80
36 46 18 88 37 93 41 45 33 204 31 320 -5z m-429 -141 c49 -8 106 -23 127 -32
45 -20 52 -14 -116 -89 l-118 -53 -47 21 c-58 25 -125 45 -176 54 -84 13 -81
17 36 66 128 52 160 56 294 33z m-321 -161 c96 -23 136 -37 133 -46 -2 -5 -63
-36 -135 -69 l-133 -62 -48 21 c-42 18 -182 53 -262 65 -23 3 -24 4 -5 12 11
4 61 25 110 46 50 21 106 43 125 48 41 12 130 6 215 -15z m-330 -169 c98 -18
125 -25 125 -34 0 -4 -68 -38 -152 -75 -143 -65 -153 -68 -182 -56 -88 37
-174 61 -232 67 -66 6 -82 16 -40 27 21 5 117 46 196 84 30 15 169 8 285 -13z
m-381 -165 c59 -16 113 -33 118 -38 9 -9 -162 -78 -254 -102 -91 -24 -168 14
-168 83 0 61 68 101 155 90 22 -3 89 -18 149 -33z"/>
<path d="M6005 4009 c-28 -9 -138 -61 -245 -114 -342 -171 -737 -363 -1005
-490 -143 -67 -332 -157 -419 -200 -88 -42 -205 -97 -260 -122 -103 -46 -338
-165 -391 -198 -195 -120 -260 -192 -292 -324 -15 -62 -15 -79 -4 -133 17 -83
34 -113 97 -174 60 -57 168 -114 266 -142 86 -23 315 -22 408 3 88 23 227 96
274 144 66 68 78 165 27 225 -37 43 -125 59 -184 32 -172 -78 -280 -107 -364
-99 -44 4 -132 31 -150 46 -38 29 17 88 139 149 40 20 201 99 358 177 157 77
328 163 380 192 52 28 208 108 345 179 961 490 991 505 1225 605 36 15 80 38
98 52 28 21 32 29 32 73 0 43 -5 54 -35 84 -57 57 -193 73 -300 35z m225 -45
c71 -29 83 -89 24 -123 -37 -22 -37 -22 -58 -2 -37 34 -112 68 -180 81 -37 7
-64 15 -61 19 15 14 124 39 177 40 33 0 75 -6 98 -15z m-199 -104 c35 -11 77
-30 93 -43 l30 -24 -40 -13 c-21 -7 -77 -31 -124 -52 -81 -38 -87 -39 -115
-25 -45 22 -175 55 -235 59 -32 3 -26 7 80 60 104 51 122 57 181 57 41 1 92
-7 130 -19z m-262 -180 l84 -23 -149 -74 -149 -73 -60 23 c-54 22 -151 42
-230 50 -26 3 -13 11 85 58 63 31 122 59 130 62 31 14 206 0 289 -23z m-364
-175 c33 -9 64 -20 68 -24 4 -4 -54 -38 -128 -75 l-136 -68 -62 27 c-63 27
-201 49 -244 39 -14 -4 -23 -2 -23 5 0 6 4 11 9 11 5 0 61 25 123 56 l113 55
110 -5 c61 -3 137 -13 170 -21z m-410 -166 c85 -11 155 -28 154 -38 0 -3 -66
-38 -147 -77 l-147 -70 -50 18 c-95 36 -160 51 -232 52 -40 0 -73 4 -73 7 0 6
56 32 193 89 97 41 122 42 302 19z m-340 -184 c39 -7 83 -19 100 -25 l29 -11
-44 -26 c-25 -14 -88 -46 -141 -72 -92 -46 -98 -47 -125 -33 -50 26 -276 78
-293 67 -4 -2 -12 0 -19 4 -7 4 37 29 107 62 l118 55 99 -4 c54 -1 131 -9 169
-17z m-340 -177 c55 -11 107 -24 115 -28 10 -6 -30 -30 -139 -83 -151 -73
-154 -75 -187 -61 -61 26 -176 45 -276 46 -54 0 -98 2 -98 4 0 2 69 37 152 78
l153 75 90 -5 c49 -3 135 -14 190 -26z m-352 -190 c59 -12 107 -25 107 -28 0
-3 -55 -34 -122 -68 -68 -34 -143 -73 -167 -87 -32 -18 -49 -22 -62 -15 -10 6
-38 10 -62 10 -74 0 -158 -75 -190 -170 -13 -39 -17 -42 -24 -25 -4 11 -8 52
-8 90 0 54 6 82 25 120 84 172 242 227 503 173z m-259 -287 c-4 -29 -2 -51 4
-55 6 -4 2 -20 -10 -43 -23 -44 -19 -132 8 -184 8 -17 13 -33 11 -36 -10 -9
-132 55 -174 92 -38 33 -43 41 -43 80 0 106 77 195 168 195 l43 0 -7 -49z
m697 -38 c31 -19 42 -42 41 -85 -2 -58 -10 -60 -97 -20 -44 20 -96 46 -115 56
l-35 19 30 10 c17 5 39 16 50 23 27 19 91 17 126 -3z m-512 -93 c24 0 31 -6
44 -37 22 -55 71 -119 117 -152 l41 -29 -67 -7 c-88 -10 -188 -1 -219 19 -52
34 -93 173 -66 224 l11 21 55 -20 c30 -10 68 -19 84 -19z m372 -27 c66 -32
118 -62 116 -68 -4 -12 -161 -92 -194 -98 -31 -6 -113 51 -163 115 -23 28 -39
56 -37 62 3 9 104 39 151 45 4 0 62 -25 127 -56z"/>
<path d="M1556 3239 c-193 -25 -345 -175 -334 -328 12 -167 230 -415 341 -387
41 10 92 51 110 89 15 33 16 41 4 70 -8 18 -30 45 -49 59 -48 37 -128 145
-128 173 0 50 92 78 166 50 39 -15 233 -151 300 -211 12 -10 92 -77 179 -149
87 -71 201 -166 254 -211 201 -169 368 -299 411 -322 76 -39 172 -16 206 49
18 36 18 82 0 118 -15 28 -124 123 -351 303 -66 53 -165 132 -220 177 -293
240 -562 445 -623 475 -60 31 -154 58 -185 55 -7 -1 -43 -6 -81 -10z m90 -118
c7 -34 15 -70 19 -80 5 -16 -1 -17 -55 -15 -54 2 -65 7 -100 38 -37 33 -52 40
-105 48 -43 7 82 63 180 81 35 6 49 -9 61 -72z m199 5 l52 -34 6 -109 c3 -59
4 -110 2 -111 -9 -9 -167 123 -177 146 -11 28 -37 138 -38 159 0 19 97 -12
155 -51z m-372 -94 l31 -32 -27 -28 c-15 -15 -27 -33 -27 -40 0 -6 -7 -9 -15
-6 -23 9 -83 -15 -105 -43 -11 -14 -20 -39 -20 -54 0 -43 -14 -35 -28 16 -23
86 -10 157 38 205 34 34 111 24 153 -18z m582 -65 l100 -83 0 -111 0 -110 -70
57 c-90 74 -100 86 -118 140 -17 53 -32 190 -20 190 4 -1 53 -38 108 -83z
m-558 -158 l52 -70 -30 -27 c-16 -15 -35 -43 -42 -64 l-13 -36 -42 35 c-54 44
-75 85 -74 141 1 53 32 92 71 92 20 0 37 -15 78 -71z m801 -37 l83 -67 2 -116
2 -116 -71 59 c-98 81 -102 85 -112 153 -10 59 -5 155 7 155 3 0 43 -31 89
-68z m-668 -127 c0 -54 -96 -100 -119 -57 -26 49 61 131 102 95 9 -9 17 -26
17 -38z m919 -75 l92 -75 -7 -50 c-5 -27 -7 -78 -7 -112 l1 -62 -82 68 c-96
80 -114 119 -115 244 -1 91 -11 92 118 -13z m256 -206 l108 -87 -26 -14 c-28
-14 -57 -60 -66 -106 l-6 -28 -55 41 c-64 47 -89 94 -90 166 0 58 9 114 19
114 4 0 56 -39 116 -86z m165 -155 c27 -49 -15 -109 -76 -109 -44 0 -49 13
-29 66 25 66 81 89 105 43z"/>
<path d="M8040 2947 c-140 -38 -222 -88 -271 -165 -37 -58 -38 -104 -4 -148
52 -68 118 -67 237 4 59 35 171 72 218 72 31 0 139 -59 156 -86 10 -15 10 -26
-1 -58 -17 -48 -73 -99 -178 -163 -42 -27 -95 -59 -116 -73 -54 -35 -228 -143
-250 -155 -10 -6 -33 -20 -52 -33 -68 -45 -333 -209 -501 -311 -227 -136 -334
-208 -343 -229 -16 -38 -22 -96 -14 -127 5 -18 27 -49 49 -69 34 -31 47 -36
88 -36 44 0 66 10 238 115 104 63 254 153 334 200 80 47 183 110 230 139 47
29 168 105 270 169 418 261 475 304 519 392 110 219 -64 518 -329 566 -120 21
-189 20 -280 -4z m120 -31 c0 -2 -11 -23 -24 -47 -13 -24 -30 -64 -37 -88 -11
-37 -19 -46 -58 -64 -25 -12 -49 -23 -52 -24 -4 -2 -9 18 -13 44 -3 26 -15 63
-26 81 -11 18 -20 34 -20 36 0 5 108 40 165 54 45 11 65 14 65 8z m165 -21
c70 -19 131 -48 171 -81 l29 -24 -36 6 c-45 7 -117 -11 -145 -37 -19 -18 -26
-19 -67 -8 -25 6 -66 9 -91 7 -39 -3 -46 0 -46 15 0 47 69 137 105 137 11 0
48 -7 80 -15z m-413 -112 c35 -102 33 -124 -15 -142 -42 -16 -56 -14 -87 17
-37 38 -31 70 27 127 25 25 48 45 52 45 4 0 14 -21 23 -47z m634 -53 c54 -33
99 -144 90 -222 -6 -52 -33 -114 -64 -142 -21 -18 -21 -18 -11 19 19 69 -3
116 -107 229 -101 110 -103 119 -31 134 46 9 90 3 123 -18z m-30 -278 c8 -41
-2 -105 -22 -144 -9 -18 -53 -54 -115 -94 -134 -87 -136 -88 -106 -28 23 46
67 199 67 234 0 9 18 33 40 55 21 21 42 52 46 69 l7 31 38 -45 c22 -25 42 -60
45 -78z m-238 -119 c-25 -85 -80 -196 -123 -248 -26 -31 -209 -155 -229 -155
-3 0 12 37 33 83 40 84 81 197 81 220 0 6 21 24 48 39 26 15 81 50 122 77 41
27 78 50 82 50 3 1 -3 -29 -14 -66z m-288 -128 c0 -10 -95 -225 -122 -278 -29
-53 -39 -62 -142 -124 -61 -37 -121 -73 -134 -81 -21 -14 -21 -11 9 54 37 83
79 201 79 225 0 11 47 47 140 105 77 48 143 91 146 95 5 9 24 12 24 4z m-376
-287 c-36 -99 -88 -200 -124 -241 -16 -19 -72 -60 -124 -91 -52 -31 -98 -61
-101 -66 -3 -6 -10 -10 -15 -10 -5 0 6 33 24 73 18 39 43 108 56 152 15 51 31
85 44 95 38 27 251 159 258 159 4 1 -4 -32 -18 -71z m-324 -158 c0 -48 -86
-236 -131 -288 l-29 -33 -1 38 c-1 48 -18 94 -46 127 -13 15 -23 28 -23 30 0
6 209 133 223 135 4 1 7 -4 7 -9z m-233 -197 c11 -17 18 -46 18 -82 0 -51 -2
-56 -23 -59 -52 -8 -101 79 -80 138 14 41 60 42 85 3z"/>
<path d="M4975 2937 c-163 -52 -259 -128 -275 -219 -17 -90 34 -158 120 -158
52 0 109 20 130 45 7 9 41 31 75 50 73 41 135 46 202 16 40 -19 73 -61 73 -94
0 -24 -130 -116 -400 -282 -140 -87 -302 -188 -360 -224 -58 -37 -120 -76
-138 -87 -140 -83 -319 -204 -338 -229 -33 -44 -39 -79 -20 -129 27 -70 57
-91 130 -91 69 0 106 16 241 104 39 25 75 48 80 51 15 7 151 93 263 165 51 33
224 141 384 240 221 136 308 196 358 245 93 90 105 116 105 220 0 76 -4 92
-33 152 -43 85 -111 150 -206 193 -131 60 -267 71 -391 32z m235 -35 l35 -8
-31 -17 c-38 -20 -92 -79 -99 -110 -4 -16 -19 -26 -48 -35 -23 -7 -59 -24 -79
-38 -21 -13 -41 -24 -44 -24 -4 0 -4 30 -2 68 7 89 31 136 77 154 42 17 140
21 191 10z m156 -57 c57 -29 124 -81 124 -98 0 -8 -17 -11 -53 -9 -39 3 -66
-2 -99 -18 -45 -21 -47 -21 -80 -4 -18 10 -46 20 -62 23 -16 4 -31 11 -33 16
-5 17 58 86 91 101 43 19 55 17 112 -11z m-446 11 c0 -3 -5 -17 -12 -33 -6
-15 -12 -66 -12 -113 l-1 -85 -36 -9 c-51 -13 -86 -1 -105 35 -22 44 -11 88
34 134 39 40 132 89 132 71z m590 -185 c77 -54 67 -193 -20 -276 l-30 -29 0
37 c0 21 -6 53 -14 71 -15 35 -63 86 -82 86 -7 0 -14 12 -17 28 -3 15 -9 39
-12 53 -6 22 -2 28 22 37 61 24 111 22 153 -7z m-143 -166 c43 -30 58 -132 26
-181 -8 -13 -50 -45 -92 -71 -42 -26 -91 -58 -109 -71 -18 -14 -35 -23 -37
-20 -3 3 2 22 11 44 9 21 19 76 22 121 l5 83 51 43 c48 41 84 66 96 67 3 0 15
-7 27 -15z m-220 -177 c-3 -35 -17 -96 -32 -136 l-28 -73 -109 -65 c-61 -36
-112 -63 -114 -61 -2 2 8 31 23 63 17 37 29 82 31 122 4 56 7 65 35 85 39 27
191 126 196 126 2 1 1 -27 -2 -61z m-267 -136 c0 -39 -36 -145 -71 -213 -26
-49 -41 -62 -130 -117 -55 -35 -107 -66 -116 -69 -14 -6 -14 -4 0 18 21 33 64
164 72 219 7 45 8 46 118 117 62 39 115 72 120 72 4 1 7 -12 7 -27z m-296
-189 c-7 -42 -56 -170 -82 -218 -20 -37 -53 -75 -63 -75 -5 0 -47 -25 -94 -55
-46 -30 -87 -55 -89 -55 -3 0 5 21 16 47 12 26 26 86 32 133 l12 85 54 36 c62
41 213 137 218 138 2 1 0 -16 -4 -36z m-329 -242 c-15 -75 -49 -164 -71 -182
-22 -18 -70 7 -88 46 -20 42 -20 64 2 92 16 21 149 113 163 113 4 0 1 -31 -6
-69z"/>
<path d="M7135 2567 c-200 -64 -503 -287 -529 -390 -15 -61 52 -137 121 -137
32 0 66 21 293 180 140 98 250 143 289 119 17 -11 17 -13 -1 -47 -22 -44 -23
-74 -3 -115 25 -51 62 -72 124 -71 48 0 57 4 86 36 25 27 37 54 50 113 19 83
16 123 -11 182 -64 134 -236 187 -419 130z m278 -49 c62 -35 110 -107 115
-177 l4 -56 -25 24 c-19 17 -40 24 -79 27 -40 2 -54 7 -59 21 -16 44 -149 112
-248 128 l-44 7 34 15 c55 24 160 43 212 38 27 -2 67 -15 90 -27z m-208 -103
l40 -18 -40 -12 c-48 -15 -141 -61 -149 -74 -4 -5 -23 -5 -48 1 -24 5 -83 8
-131 5 -49 -2 -85 -1 -80 3 4 4 46 34 93 65 l85 58 95 -6 c58 -3 111 -12 135
-22z m262 -137 c12 -6 27 -24 34 -40 10 -25 9 -33 -8 -56 -37 -50 -134 -35
-149 22 -6 25 11 77 29 88 14 9 62 2 94 -14z m-487 -17 c0 -3 -21 -21 -47 -39
-27 -18 -77 -53 -112 -78 -54 -38 -70 -45 -105 -42 -32 2 -44 9 -55 30 -14 25
-14 29 5 54 33 45 68 65 125 73 68 9 189 11 189 2z"/>
<path d="M1805 2423 c-167 -60 -241 -161 -234 -320 5 -106 36 -166 136 -266
132 -131 279 -227 349 -227 66 0 134 73 134 144 0 46 -32 80 -139 145 -134 81
-213 158 -235 228 -10 31 43 63 103 63 60 0 134 -52 351 -246 288 -258 566
-482 627 -505 42 -16 85 -10 120 17 78 60 83 154 9 210 -13 11 -68 57 -122
104 -55 47 -211 176 -347 285 -462 372 -471 377 -612 382 -68 3 -103 -1 -140
-14z m170 -53 c16 -18 68 -150 61 -157 -1 -1 -20 4 -41 12 -22 8 -59 14 -82
15 -36 0 -43 4 -62 35 -11 19 -34 43 -51 54 -35 21 -31 26 34 47 64 20 120 17
141 -6z m138 -34 c107 -70 108 -71 117 -171 5 -50 12 -101 16 -115 l7 -25 -29
25 c-16 14 -31 27 -34 30 -3 3 -26 23 -51 43 -40 32 -48 45 -54 84 -4 26 -15
73 -25 105 -10 32 -14 58 -8 58 5 0 32 -15 61 -34z m-346 -46 c17 -10 37 -28
43 -40 10 -18 7 -26 -19 -56 -17 -19 -31 -41 -31 -49 0 -7 -8 -13 -18 -12 -34
2 -81 -25 -94 -54 -19 -44 -28 -35 -28 29 0 77 15 126 52 167 35 40 50 43 95
15z m603 -148 l81 -68 2 -116 2 -115 -66 59 c-72 63 -90 97 -108 202 -13 73
-14 119 -2 112 5 -3 46 -36 91 -74z m-590 -72 c0 -4 10 -18 23 -32 50 -55 49
-53 26 -97 -17 -33 -20 -51 -15 -94 l7 -52 -70 69 c-39 39 -74 81 -79 95 -13
37 8 103 36 117 23 11 72 8 72 -6z m825 -118 l80 -65 0 -113 c0 -63 -2 -114
-5 -114 -3 0 -38 27 -77 60 -64 53 -74 66 -87 113 -17 60 -19 73 -17 145 1 62
-6 63 106 -26z m-631 -64 c73 -50 75 -52 55 -66 -25 -17 -49 -70 -49 -107 0
-14 -3 -25 -6 -25 -3 0 -25 13 -49 30 -36 25 -45 37 -54 78 -5 27 -8 57 -6 68
13 64 16 74 24 74 5 0 43 -23 85 -52z m806 -80 c21 -18 67 -57 104 -86 36 -29
66 -57 66 -61 0 -4 -11 -13 -26 -19 -25 -12 -58 -72 -56 -104 0 -10 -1 -18 -4
-18 -2 0 -31 21 -64 46 -63 49 -67 59 -71 154 -3 67 0 120 7 120 4 0 23 -15
44 -32z m-641 -32 c12 -26 12 -33 -5 -63 -21 -41 -45 -55 -82 -51 -26 3 -27 6
-25 53 1 40 7 54 29 73 34 30 65 25 83 -12z m876 -176 c35 -38 -15 -120 -73
-120 -49 0 -56 45 -17 103 29 42 61 49 90 17z"/>
<path d="M3289 2011 c-30 -30 -39 -46 -39 -73 0 -45 23 -73 123 -152 119 -93
151 -129 142 -157 -4 -13 -41 -56 -81 -95 -66 -64 -74 -76 -74 -109 0 -46 33
-103 69 -117 98 -39 245 52 316 197 34 69 37 80 33 142 -7 116 -73 215 -222
331 -69 53 -113 71 -180 72 -43 0 -52 -4 -87 -39z m174 -32 c23 -12 52 -30 65
-39 l22 -18 -51 -12 c-27 -7 -64 -24 -81 -38 -29 -24 -31 -25 -56 -9 -15 8
-38 29 -51 46 l-23 30 30 31 c37 37 84 40 145 9z m177 -145 c45 -41 85 -119
94 -184 l7 -45 -26 37 c-32 47 -79 72 -128 69 -32 -2 -46 4 -77 33 -21 19 -50
42 -64 51 -14 10 -26 22 -26 27 0 17 84 48 132 48 41 0 54 -5 88 -36z m33
-205 c12 -15 17 -39 17 -81 0 -59 0 -60 -59 -119 -33 -32 -64 -59 -70 -59 -6
0 -11 14 -11 31 0 22 -10 41 -35 66 -38 38 -37 46 11 85 19 16 30 37 48 92 5
15 13 18 44 13 20 -4 45 -16 55 -28z m-196 -191 c22 -21 33 -41 33 -60 0 -35
-20 -44 -57 -26 -34 16 -54 77 -33 102 17 21 19 21 57 -16z"/>
<path d="M6337 1970 c-28 -8 -148 -69 -472 -235 -185 -95 -334 -147 -408 -143
-46 3 -52 6 -55 26 -3 18 13 41 63 93 64 66 67 72 62 106 -8 45 -37 76 -87 93
-100 33 -252 -65 -294 -188 -20 -58 -20 -85 0 -153 44 -149 188 -239 379 -239
130 0 266 45 475 157 47 25 141 75 210 111 147 77 246 136 278 165 31 29 46
89 32 132 -21 63 -108 99 -183 75z m118 -66 c14 -15 25 -33 25 -41 0 -16 -28
-73 -36 -73 -3 0 -31 18 -62 40 -31 22 -68 42 -82 44 -14 3 -27 5 -30 6 -3 0
20 12 50 25 73 32 105 32 135 -1z m-1000 -59 c33 -32 31 -47 -10 -84 -41 -35
-46 -36 -84 -17 -15 8 -52 18 -81 22 l-54 7 34 29 c46 38 109 68 143 68 16 0
38 -10 52 -25z m837 -25 c49 -19 106 -56 97 -64 -2 -1 -43 -24 -91 -49 l-87
-47 -35 24 c-19 13 -64 34 -99 46 l-64 23 81 42 c93 49 124 53 198 25z m-1004
-104 c35 -8 65 -16 68 -19 3 -3 0 -23 -7 -45 -6 -22 -9 -51 -5 -65 10 -41 82
-140 125 -172 22 -16 41 -33 41 -36 0 -3 -27 -2 -60 3 -152 20 -270 132 -270
256 0 56 13 92 33 92 7 -1 40 -7 75 -14z m800 -48 c59 -28 64 -32 47 -44 -33
-24 -193 -104 -208 -104 -8 0 -41 16 -72 35 -32 19 -73 38 -92 41 -18 3 -33 9
-33 13 0 3 44 27 98 53 85 42 103 47 145 42 27 -3 78 -19 115 -36z m-351 -118
c43 -17 91 -38 106 -48 l28 -19 -68 -31 c-117 -53 -161 -62 -213 -45 -70 24
-170 101 -170 132 0 3 24 5 52 3 34 -2 73 4 108 16 73 26 67 26 157 -8z"/>
</g>
</svg>
