<?xml version="1.0" standalone="no"?>
<!DOCTYPE svg PUBLIC "-//W3C//DTD SVG 20010904//EN"
 "http://www.w3.org/TR/2001/REC-SVG-20010904/DTD/svg10.dtd">
<svg version="1.0" xmlns="http://www.w3.org/2000/svg"
 width="1024.000000pt" height="1024.000000pt" viewBox="0 0 1024.000000 1024.000000"
 preserveAspectRatio="xMidYMid meet">
<metadata>
Created by potrace 1.16, written by Peter Selinger 2001-2019
</metadata>
<g transform="translate(0.000000,1024.000000) scale(0.100000,-0.100000)"
fill="#000000" stroke="none">
<path d="M8005 9639 c-299 -39 -616 -201 -882 -453 -140 -132 -368 -412 -435
-534 -11 -20 -34 -38 -68 -53 -34 -14 -69 -42 -104 -81 -116 -128 -170 -296
-135 -421 10 -36 8 -40 -27 -79 -50 -56 -87 -140 -79 -178 10 -47 51 -73 102
-66 l42 6 -10 -28 c-6 -14 -11 -49 -11 -76 -1 -44 2 -52 35 -82 20 -19 47 -34
61 -34 34 0 41 -15 56 -115 7 -49 16 -99 20 -111 5 -13 1 -42 -12 -80 -27 -80
-22 -229 9 -289 21 -41 21 -41 1 -65 -57 -72 -120 -180 -138 -239 -12 -36 -24
-107 -27 -157 -15 -231 59 -428 229 -609 130 -138 268 -220 476 -285 56 -17
102 -34 102 -36 0 -3 -8 -21 -19 -42 -29 -57 -61 -170 -61 -214 0 -31 7 -46
31 -70 28 -29 34 -30 87 -25 31 3 84 17 117 30 115 47 106 52 103 -53 l-3 -91
-105 -41 c-58 -22 -112 -41 -119 -41 -8 -1 -38 33 -65 75 -86 131 -230 368
-280 460 -26 48 -59 97 -73 108 -31 24 -85 26 -122 4 -33 -20 -37 -25 -206
-309 -76 -126 -143 -236 -150 -243 -10 -11 -30 -1 -111 53 -96 66 -231 173
-267 212 -17 19 -15 22 59 79 41 32 96 86 121 119 49 64 103 167 104 200 0 11
4 28 8 39 6 16 23 6 132 -81 174 -139 189 -147 189 -108 0 13 -130 126 -245
214 -54 42 -73 63 -84 95 -14 42 -135 169 -193 204 -25 15 -28 22 -28 72 0
102 -41 208 -107 274 -45 46 -88 66 -142 66 -38 0 -39 1 -45 38 -3 20 -28 174
-55 342 -72 441 -69 405 -33 418 l30 10 4 109 c3 103 5 112 32 147 34 46 95
75 154 76 50 0 118 -32 181 -84 45 -38 61 -42 92 -26 13 8 19 21 19 48 0 124
-126 329 -235 382 l-45 22 -112 -22 c-161 -30 -674 -157 -710 -176 -27 -14
-29 -19 -24 -49 l6 -33 -37 14 c-21 7 -48 13 -59 14 -12 0 -29 10 -38 23 -44
63 -34 62 -142 11 -55 -25 -106 -49 -114 -53 -49 -25 -52 -251 -5 -381 32 -87
99 -194 152 -240 42 -37 61 -36 173 9 108 44 118 53 126 111 11 80 24 85 124
45 47 -19 95 -35 107 -35 15 0 24 -7 27 -22 10 -54 66 -690 61 -697 -2 -5 -21
-12 -40 -15 -74 -14 -144 -112 -130 -183 4 -21 0 -43 -10 -62 -18 -36 -19
-122 -1 -171 7 -21 11 -63 8 -100 -3 -56 0 -70 20 -100 30 -45 96 -81 161 -89
l52 -6 17 -150 c9 -82 17 -178 17 -212 1 -80 13 -108 53 -130 50 -26 173 -22
268 10 l74 25 70 -64 c83 -78 192 -161 276 -210 38 -23 59 -42 56 -50 -3 -7
-53 -87 -112 -176 -132 -202 -148 -234 -142 -303 7 -88 61 -141 150 -148 38
-3 43 -6 42 -28 -1 -13 -2 -38 -3 -54 l-1 -30 -97 7 c-78 5 -418 11 -469 9 -6
-1 -48 -66 -94 -146 l-82 -145 -78 162 c-42 90 -86 182 -97 204 l-20 42 36 -5
c85 -11 96 47 33 182 -23 50 -64 157 -92 238 -27 81 -59 166 -70 187 -32 63
-80 78 -117 38 -30 -34 -293 -554 -293 -581 0 -59 66 -88 118 -51 12 8 22 12
22 8 0 -12 -48 -91 -141 -232 -49 -73 -91 -148 -95 -167 -12 -66 41 -109 106
-87 28 10 29 10 20 -8 -5 -10 -44 -65 -87 -122 -97 -130 -133 -187 -133 -210
0 -10 13 -32 29 -50 27 -30 34 -33 89 -33 l59 1 -33 -49 c-19 -27 -34 -53 -34
-58 0 -17 37 -9 57 14 37 39 125 188 119 203 -4 10 -25 3 -84 -29 -69 -36 -83
-40 -108 -32 -53 19 -44 48 51 175 100 133 225 338 225 369 0 35 -23 24 -79
-40 -62 -71 -111 -99 -136 -79 -8 7 -15 18 -15 25 0 7 31 59 68 116 38 57 81
124 97 148 39 63 125 238 125 255 0 31 -22 26 -68 -14 -77 -68 -122 -84 -122
-43 0 9 35 79 79 157 43 77 101 188 128 246 28 58 58 114 67 125 16 20 16 20
31 0 8 -10 38 -88 65 -172 28 -84 70 -197 95 -250 52 -110 57 -138 23 -128
-39 12 -95 53 -123 90 -15 19 -34 35 -41 35 -24 0 -15 -35 20 -82 19 -25 57
-94 84 -154 27 -60 77 -166 111 -236 35 -69 61 -134 59 -145 -5 -28 -43 -27
-100 4 -46 25 -73 54 -140 145 -16 22 -17 22 -24 4 -12 -31 42 -122 99 -167
27 -22 52 -39 56 -39 4 0 15 -24 23 -54 l15 -55 -110 -178 c-60 -98 -125 -202
-143 -232 -59 -96 -38 -198 49 -240 l44 -21 -8 -48 c-4 -26 -8 -68 -8 -94 l-1
-47 -46 -7 c-54 -8 -152 0 -209 16 -37 12 -88 55 -110 94 -10 18 -14 17 -73
-14 -87 -45 -139 -50 -179 -16 -49 41 -76 29 -49 -23 29 -56 133 -68 217 -25
l50 25 39 -35 c22 -20 51 -38 65 -42 25 -6 25 -7 25 -114 l0 -107 -42 8 c-67
13 -117 10 -155 -8 -71 -33 -53 -72 21 -47 64 22 137 14 177 -21 17 -14 34
-25 37 -25 4 0 36 5 72 11 36 6 88 8 115 4 l50 -6 1 -89 2 -89 -32 -6 c-17 -3
-96 -12 -176 -21 -80 -9 -152 -20 -161 -25 -27 -14 -214 -235 -312 -368 -37
-50 -47 -72 -47 -102 0 -43 24 -75 64 -85 l24 -6 1 -289 c1 -346 1 -349 82
-368 30 -7 162 -37 293 -67 l239 -55 101 26 c156 40 448 125 476 138 36 18 41
62 38 323 l-3 232 28 15 c30 18 47 53 47 96 0 29 -44 104 -99 172 l-35 41 40
-6 c33 -5 445 -46 467 -46 4 0 7 -47 7 -104 0 -70 4 -107 12 -112 6 -4 58 -9
114 -12 l103 -5 72 47 c79 50 88 52 232 40 l76 -7 3 -66 3 -66 145 0 c141 0
149 1 295 43 289 83 540 164 557 179 9 8 19 34 22 57 6 46 16 320 16 434 0 72
0 73 22 61 42 -23 177 -4 316 44 70 24 134 47 142 51 11 5 19 -6 32 -41 23
-64 88 -129 166 -166 58 -27 70 -29 140 -25 161 11 353 104 505 247 53 50 75
64 101 66 21 1 54 16 84 38 l50 35 29 -36 c71 -89 144 -219 163 -292 16 -63
36 -90 64 -90 81 0 173 185 197 396 13 119 -6 276 -56 457 -92 338 -173 438
-322 398 -51 -14 -135 -88 -188 -166 -21 -30 -42 -55 -47 -55 -11 0 -14 -12
37 125 33 88 51 125 71 140 84 61 130 104 138 127 10 29 -23 155 -79 297 l-36
91 47 57 c73 90 97 151 102 258 6 157 -59 349 -200 585 -175 293 -443 602
-637 735 -57 39 -72 55 -87 94 -24 65 -76 141 -133 194 l-49 46 27 66 c15 36
30 68 33 71 3 3 33 -4 67 -16 75 -25 177 -26 246 -2 73 25 197 115 272 196
141 155 266 401 324 641 49 205 5 295 -144 295 -53 0 -54 0 -49 28 2 16 -10
70 -27 122 -31 91 -31 95 -16 139 23 68 36 250 27 389 -6 101 -5 121 6 117 13
-5 252 -174 252 -178 0 -1 -9 -26 -20 -55 -24 -61 -26 -139 -6 -187 23 -53
101 -130 157 -154 113 -49 242 -17 319 80 49 62 64 107 64 189 0 76 -27 146
-77 199 -37 39 -120 81 -159 81 -21 0 -29 6 -32 23 -2 12 -9 51 -16 87 -14 79
-73 237 -130 349 -155 310 -396 589 -644 749 -158 101 -382 193 -558 227 -98
20 -284 26 -383 14z m397 -79 c252 -52 549 -205 732 -378 232 -220 469 -616
536 -896 11 -45 20 -86 20 -92 0 -6 -20 -19 -43 -28 -24 -9 -62 -32 -85 -51
-22 -19 -43 -35 -46 -35 -3 0 -48 33 -99 73 -52 41 -117 88 -145 106 -47 31
-51 37 -57 85 -10 80 -53 266 -79 342 -15 46 -29 70 -41 72 -15 3 -17 -2 -12
-35 2 -21 16 -82 30 -135 34 -128 57 -282 66 -452 8 -145 0 -353 -16 -394 -9
-22 -13 -19 -63 55 -340 491 -1201 893 -1915 893 -128 0 -354 -23 -400 -40
-15 -6 -30 -8 -33 -5 -7 7 51 91 155 220 341 425 735 678 1115 714 117 11 267
4 380 -19z m-943 -946 c390 -57 712 -171 1042 -367 333 -198 568 -439 661
-677 14 -36 29 -86 32 -111 l7 -47 -53 -12 c-29 -7 -84 -26 -122 -42 -38 -15
-70 -27 -71 -26 -1 2 -13 23 -27 48 -110 192 -394 429 -693 578 -312 156 -604
242 -930 272 -310 29 -554 -4 -777 -104 l-98 -44 -6 25 c-11 41 3 154 26 215
28 77 99 169 158 206 57 37 156 68 277 86 127 20 441 20 574 0z m-32 -453
c251 -38 503 -117 753 -237 l118 -56 -20 -45 c-81 -183 -54 -506 61 -728 40
-78 129 -175 160 -175 14 0 21 -6 21 -20 0 -40 37 -22 68 33 78 134 173 221
357 322 169 93 345 136 413 101 56 -29 64 -69 37 -196 -33 -159 -124 -366
-228 -523 -62 -92 -186 -217 -259 -260 -27 -15 -77 -35 -113 -44 -77 -19 -148
-9 -233 34 -31 16 -56 23 -61 17 -5 -5 -16 -34 -26 -64 -40 -125 -132 -271
-241 -382 -277 -281 -751 -392 -1135 -267 -177 57 -304 133 -413 242 -89 91
-147 179 -188 288 -31 82 -32 88 -32 249 -1 129 3 174 16 208 19 50 68 133
106 180 l27 33 48 -45 47 -45 -12 -51 c-23 -102 36 -207 154 -271 59 -32 69
-34 158 -34 82 0 103 4 150 26 69 33 100 63 100 94 0 32 -20 32 -51 -1 -40
-43 -98 -67 -177 -72 -157 -10 -292 89 -292 214 1 84 57 156 149 189 59 20
117 19 215 -5 46 -12 87 -20 92 -19 5 2 34 -22 65 -53 72 -71 143 -100 250
-100 139 -1 244 48 325 151 68 86 88 147 88 267 1 96 0 103 -37 176 -43 88
-108 152 -197 196 -49 24 -66 27 -160 27 -90 0 -112 -3 -153 -23 -47 -24 -147
-115 -147 -135 0 -6 -13 6 -28 27 -106 142 -298 187 -450 106 -35 -18 -81 -53
-102 -77 l-38 -43 -6 32 c-51 289 -4 512 143 680 57 64 99 88 173 97 102 13
361 4 505 -18z m-719 -60 c-96 -107 -162 -263 -174 -408 -6 -78 -8 -83 -30
-83 -58 0 -70 68 -29 176 14 36 25 73 25 80 0 22 -25 17 -77 -16 -86 -55 -122
-30 -83 57 29 66 73 109 153 149 59 30 228 93 250 94 5 0 -11 -22 -35 -49z
m3109 18 c15 -5 43 -25 62 -42 75 -72 93 -181 44 -277 -51 -100 -138 -141
-246 -119 -68 15 -149 91 -167 158 -26 99 40 225 145 272 45 21 119 24 162 8z
m-3861 -191 c58 -55 110 -134 139 -210 24 -66 16 -74 -32 -33 -61 52 -118 75
-189 75 -78 0 -156 -37 -201 -98 -40 -53 -53 -98 -53 -183 l0 -67 -132 -32
c-73 -18 -138 -35 -145 -37 -7 -3 -14 13 -18 44 -10 83 -36 184 -80 316 -28
84 -39 130 -31 132 32 10 330 78 455 105 79 16 147 32 149 35 3 3 23 5 44 5
33 0 47 -8 94 -52z m2453 -130 c122 -78 260 -189 341 -274 93 -99 179 -216
163 -221 -33 -11 -215 -147 -257 -192 -26 -29 -49 -51 -51 -49 -10 12 -49 150
-54 192 -5 42 -9 51 -26 51 -16 0 -21 -8 -23 -38 -3 -40 29 -170 54 -219 13
-25 13 -35 4 -59 -7 -16 -19 -29 -26 -29 -8 0 -35 19 -60 42 -158 146 -224
485 -158 811 3 15 11 27 17 27 6 0 40 -19 76 -42z m-3215 -92 c36 -113 90
-346 81 -354 -2 -3 -29 5 -59 18 l-55 22 17 26 c12 18 17 47 17 97 0 77 -16
119 -63 170 -25 26 -52 82 -52 106 0 7 45 27 66 28 6 1 27 -50 48 -113z m-299
30 c94 -151 154 -322 155 -439 l0 -48 -74 -35 c-41 -19 -76 -34 -78 -34 -2 0
-4 37 -4 83 -2 139 -61 306 -147 419 -26 34 -32 49 -24 57 6 6 15 11 19 11 4
0 29 13 56 30 26 16 48 30 49 30 1 0 22 -34 48 -74z m165 -45 c52 -42 72 -83
77 -159 3 -51 0 -75 -14 -102 -10 -19 -22 -35 -27 -35 -4 0 -17 34 -27 75 -11
41 -41 117 -67 170 -26 52 -48 99 -50 103 -7 15 72 -23 108 -52z m-300 -126
c68 -135 85 -208 81 -340 l-2 -40 -39 45 c-49 55 -105 165 -125 245 -15 60
-21 216 -8 229 11 11 38 -29 93 -139z m2261 -101 c53 -17 118 -69 149 -119
l22 -35 -22 -63 c-32 -92 -37 -208 -13 -279 11 -32 17 -58 14 -58 -3 0 -46 7
-96 15 -51 9 -111 13 -137 9 l-48 -6 0 30 c0 18 -11 43 -26 61 -58 69 -149 13
-125 -75 6 -20 18 -45 27 -56 17 -18 17 -20 -8 -44 l-25 -26 -42 44 c-23 23
-56 72 -74 108 -29 59 -32 73 -32 155 0 80 4 97 31 155 81 171 234 240 405
184z m651 -22 c74 -37 134 -96 170 -170 30 -61 33 -74 33 -162 0 -82 -4 -103
-27 -152 -31 -67 -96 -140 -152 -173 -130 -73 -328 -49 -417 52 -44 51 -87
147 -95 215 -14 119 47 265 149 354 60 53 93 63 202 61 71 -2 100 -7 137 -25z
m-2098 -129 c3 -16 13 -77 21 -138 25 -170 95 -593 101 -610 4 -8 2 -15 -4
-15 -6 0 -31 -15 -55 -34 l-45 -34 -28 29 c-15 16 -42 32 -61 35 -18 3 -33 9
-33 13 0 12 -60 629 -66 684 l-6 54 78 21 c44 11 82 20 86 21 3 1 9 -11 12
-26z m237 -810 c56 -11 121 -85 148 -171 21 -63 23 -86 18 -175 -2 -56 -12
-122 -21 -146 -15 -42 -74 -130 -87 -131 -3 0 -11 39 -18 88 -7 48 -21 124
-32 170 -12 52 -17 98 -13 122 8 47 -10 78 -32 59 -8 -6 -14 -21 -14 -33 -1
-29 -33 -97 -57 -118 -11 -10 -34 -21 -51 -24 -28 -6 -37 -1 -72 34 -33 33
-40 46 -40 78 0 81 79 201 155 235 44 20 65 22 116 12z m-292 -23 c43 -25 43
-24 11 -91 -16 -35 -30 -70 -30 -78 0 -21 -94 -7 -150 22 -53 27 -61 55 -30
105 28 45 72 64 134 57 27 -4 57 -10 65 -15z m-178 -199 c24 -11 68 -23 96
-27 51 -6 53 -8 63 -45 11 -40 62 -99 86 -99 28 0 13 -17 -25 -28 -91 -28
-221 -4 -265 49 -20 24 -26 41 -26 80 0 43 13 89 24 89 2 0 23 -9 47 -19z
m453 -276 c13 -77 41 -234 62 -349 43 -242 49 -222 -70 -258 -55 -17 -82 -19
-139 -14 -39 4 -72 8 -74 10 -2 2 -10 71 -18 152 -30 314 -30 293 -9 300 124
39 173 108 147 207 -10 36 -9 39 17 52 14 7 32 21 40 30 7 8 14 14 16 12 2 -1
14 -66 28 -142z m2756 3 c22 -34 52 -98 66 -144 24 -76 26 -96 22 -202 -8
-190 -34 -226 -150 -202 -35 7 -87 22 -117 32 -63 21 -97 23 -104 6 -2 -7 -1
-53 4 -103 11 -129 11 -293 -1 -356 -11 -60 -37 -103 -66 -107 -48 -7 -165
103 -260 246 -50 74 -63 70 -110 -35 -53 -119 -105 -197 -153 -229 -39 -25
-42 -26 -66 -10 -59 38 -95 168 -95 343 0 61 -4 114 -8 117 -5 3 -54 -15 -108
-39 -109 -49 -184 -65 -209 -45 -29 24 -15 99 44 235 l21 50 188 0 188 1 23
-54 c14 -31 38 -64 59 -80 49 -37 144 -38 216 -3 113 56 244 217 323 396 22
50 60 118 85 150 25 33 57 79 73 102 l27 42 34 -25 c19 -15 52 -53 74 -86z
m-2348 -108 c6 -63 -17 -155 -55 -219 -29 -49 -157 -180 -196 -201 -15 -7 -20
13 -45 170 l-29 177 41 41 c48 48 77 100 92 168 7 27 14 55 16 63 3 10 32 -13
88 -70 75 -76 84 -89 88 -129z m-559 105 c0 -18 -7 -44 -16 -58 -32 -48 -178
-74 -250 -43 -50 20 -87 70 -87 115 l0 38 58 -20 c72 -24 179 -21 237 8 46 23
56 16 58 -40z m2532 -231 c-53 -120 -173 -254 -269 -302 -54 -27 -111 -28
-153 -2 -36 22 -63 62 -45 68 6 2 39 26 73 53 34 27 69 49 78 49 28 0 214 97
276 144 33 25 61 45 62 46 2 0 -8 -25 -22 -56z m746 -164 c235 -233 483 -610
575 -875 24 -69 28 -96 28 -195 1 -102 -2 -121 -23 -165 -36 -73 -131 -161
-254 -234 -146 -85 -147 -86 -147 -24 0 98 -56 232 -142 340 -27 34 -61 71
-75 81 l-26 19 49 33 c82 56 164 132 164 151 0 30 -21 22 -85 -30 l-60 -49
-51 97 c-28 54 -75 133 -105 177 -62 89 -185 224 -205 224 -28 0 -12 -38 42
-101 30 -35 75 -91 99 -125 43 -60 175 -289 175 -303 0 -14 -74 -41 -200 -71
-69 -17 -133 -35 -143 -40 -14 -8 -25 -6 -46 9 -54 39 -174 90 -249 107 -181
40 -318 -17 -423 -178 -32 -50 -37 -55 -42 -35 -3 12 -28 112 -56 222 -49 187
-51 201 -34 210 46 25 115 114 160 205 l49 98 28 -44 c44 -70 163 -191 209
-213 24 -12 56 -21 71 -21 37 0 90 53 106 105 16 56 24 272 12 380 -5 50 -8
91 -8 92 1 1 38 -10 81 -24 49 -16 104 -26 143 -27 60 -1 65 1 92 31 44 49 64
129 65 259 l0 111 60 -46 c32 -25 107 -93 166 -151z m-2128 18 c9 -7 41 -59
71 -114 67 -126 202 -342 413 -659 88 -134 166 -260 173 -280 36 -110 -63
-140 -161 -48 -51 48 -79 52 -79 11 -1 -46 -78 -108 -136 -108 -49 0 -127 46
-188 111 -47 50 -60 58 -72 49 -8 -7 -14 -18 -14 -24 0 -19 -51 -63 -92 -80
-46 -20 -128 -21 -171 -2 -41 17 -83 66 -92 106 -10 44 -36 38 -84 -19 -94
-112 -217 -120 -251 -17 -18 57 3 112 100 256 72 108 209 328 363 585 66 110
129 210 140 223 23 25 55 28 80 10z m710 -639 c28 -82 52 -119 86 -132 25 -9
30 -22 70 -181 24 -94 55 -207 70 -252 17 -53 24 -91 20 -110 -11 -50 -10
-135 3 -176 7 -23 25 -51 43 -65 l31 -25 -15 -79 c-8 -43 -17 -79 -21 -79 -3
0 -32 54 -65 119 -100 203 -150 234 -332 208 l-53 -8 0 108 0 108 46 -4 c54
-4 84 10 107 49 42 70 19 129 -138 360 l-98 144 34 15 c82 35 175 69 182 67 5
-1 18 -31 30 -67z m722 -404 c101 -21 238 -92 307 -159 113 -108 180 -247 179
-373 0 -76 -20 -117 -62 -132 -76 -26 -139 -7 -220 67 l-53 49 46 27 c59 35
75 53 60 68 -16 16 -99 -25 -167 -81 -61 -51 -139 -91 -176 -91 -16 0 -40 10
-55 23 l-26 23 27 54 c36 71 124 157 203 199 45 23 62 38 60 49 -5 25 -44 17
-106 -21 -82 -49 -127 -91 -178 -168 -49 -75 -67 -88 -93 -72 -78 48 -17 207
116 301 36 26 77 57 92 69 24 20 25 22 7 29 -29 11 -121 -41 -186 -106 -59
-58 -110 -146 -110 -191 0 -57 -58 -63 -80 -9 -21 51 -8 175 24 240 56 111
133 181 224 206 62 17 83 16 167 -1z m663 -123 c96 -97 162 -247 162 -370 0
-153 -55 -211 -238 -247 -84 -17 -192 -14 -192 6 0 5 8 9 18 9 28 0 81 37 102
72 65 108 4 343 -128 488 -50 56 -52 60 -30 65 13 2 66 15 118 28 62 15 101
20 113 14 10 -5 44 -34 75 -65z m-2456 34 c79 -98 257 -106 369 -16 l36 29 34
-35 c35 -36 139 -94 170 -94 16 0 17 -29 18 -449 l2 -449 -38 4 c-86 9 -340
24 -525 30 l-198 7 -1 331 c-2 463 1 590 15 595 6 2 27 21 46 41 19 21 37 38
40 39 3 0 17 -14 32 -33z m860 -493 l3 -452 -90 -29 c-49 -16 -92 -27 -94 -25
-2 1 -5 200 -6 441 l-2 439 49 22 c26 12 60 37 75 56 26 33 29 34 45 17 15
-15 17 -62 20 -469z m-1317 271 c138 -4 252 -5 255 -3 11 9 16 -188 19 -657
l2 -491 -23 -7 c-94 -25 -221 27 -270 110 -11 19 -25 34 -32 34 -7 0 -27 -15
-45 -34 -44 -46 -123 -79 -186 -79 -69 0 -127 32 -171 93 -20 28 -37 50 -39
50 -2 0 -19 -14 -37 -30 -78 -71 -234 -66 -285 9 -37 54 -28 105 32 186 52 69
414 674 471 788 18 35 29 47 42 43 9 -3 130 -8 267 -12z m1556 -104 c70 -20
71 -17 -63 -284 l-123 -247 -5 88 c-3 48 -3 168 -2 265 l4 177 56 4 c32 2 66
4 77 5 11 1 36 -3 56 -8z m1934 -218 c20 -62 35 -119 32 -126 -12 -31 -131
-106 -234 -146 -168 -65 -303 -91 -524 -97 -218 -6 -242 0 -285 73 -35 59 -56
57 -95 -6 -18 -29 -40 -52 -54 -56 -26 -7 -137 25 -319 92 l-124 45 -20 46
c-17 41 -18 51 -7 82 6 20 20 71 29 114 10 42 19 77 21 77 2 0 17 -13 33 -30
22 -22 40 -30 65 -30 26 0 36 -5 40 -19 3 -11 20 -29 38 -41 53 -33 120 -24
210 28 l72 42 52 -49 c52 -50 102 -81 129 -81 8 0 25 -14 37 -31 42 -60 128
-73 271 -44 97 20 169 57 215 108 21 24 72 62 113 86 41 23 109 71 150 106
l75 63 22 -47 c12 -25 38 -97 58 -159z m-1686 -161 c265 -535 279 -574 226
-626 -37 -38 -105 -28 -105 15 0 29 -181 390 -196 390 -30 0 -18 -40 62 -206
l85 -177 -5 -541 c-3 -297 -8 -556 -12 -573 -6 -32 -8 -33 -173 -87 -233 -76
-530 -160 -539 -151 -4 3 -9 275 -12 603 -5 551 -4 599 12 617 18 22 87 166
150 315 37 89 349 720 356 720 2 0 69 -134 151 -299z m405 -225 c48 -14 97
-26 108 -26 30 0 73 29 93 62 l17 30 42 -40 c61 -60 80 -65 261 -64 225 2 376
27 540 91 63 24 75 26 70 13 -4 -9 -17 -46 -30 -82 -59 -169 -183 -487 -231
-594 -30 -65 -54 -125 -54 -132 0 -8 8 -14 19 -14 18 0 58 76 133 255 40 94
44 97 79 56 48 -58 78 -179 64 -268 -6 -41 -15 -55 -73 -112 -124 -119 -270
-209 -411 -251 -91 -28 -151 -23 -229 17 -114 60 -151 148 -133 317 11 99 53
271 95 395 15 41 26 85 26 97 0 27 -13 31 -173 39 -111 7 -119 6 -115 -11 2
-11 17 -22 38 -28 19 -5 37 -11 39 -12 1 -2 -28 -65 -67 -141 -96 -192 -148
-321 -134 -335 18 -18 39 -2 54 44 9 24 37 89 63 146 52 111 48 108 159 128
36 6 39 5 32 -12 -26 -65 -69 -262 -73 -340 l-6 -91 -31 -11 c-17 -6 -77 -26
-134 -46 -105 -37 -241 -56 -295 -42 l-26 6 -3 245 -3 244 36 -5 c77 -13 149
50 149 128 0 45 -16 87 -109 286 -39 84 -71 154 -71 156 0 2 44 -13 98 -34 53
-21 137 -50 186 -64z m1474 1 c61 -55 165 -341 192 -527 19 -130 9 -306 -23
-405 -27 -81 -84 -190 -101 -190 -5 0 -25 41 -46 91 -20 50 -69 140 -108 200
l-72 108 29 30 c43 46 54 71 37 86 -12 9 -27 -1 -77 -50 -63 -62 -147 -126
-155 -117 -2 2 0 16 6 31 34 91 -19 287 -95 354 l-34 30 27 76 c26 72 29 76
58 76 31 0 106 -42 136 -76 10 -11 27 -41 38 -67 37 -83 70 -44 35 41 -18 42
-77 107 -117 128 -16 8 -28 18 -28 23 0 5 30 41 67 81 101 109 171 132 231 77z
m-2402 -109 c-7 -18 -42 -98 -76 -178 -34 -80 -65 -148 -68 -152 -4 -4 -7 63
-7 149 l0 156 75 28 c41 15 78 28 83 28 4 1 1 -14 -7 -31z m-781 7 c147 -6
578 -35 582 -39 1 -1 4 -363 5 -804 3 -730 2 -802 -13 -802 -9 0 -43 3 -77 6
l-61 7 -3 326 c-4 355 -8 379 -67 463 -35 50 -72 69 -141 75 -107 10 -193 -51
-238 -169 -14 -36 -17 -94 -20 -343 l-3 -301 -65 7 c-36 3 -67 8 -69 11 -7 6
-10 519 -7 1071 2 479 3 508 20 503 9 -2 80 -7 157 -11z m2042 -177 c-2 -7
-10 -30 -18 -50 -11 -33 -17 -38 -45 -38 -18 0 -45 -5 -60 -10 -15 -6 -29 -9
-31 -7 -2 3 9 30 24 61 l28 56 54 0 c38 0 52 -3 48 -12z m-3022 -88 c9 -29 83
-79 143 -96 78 -23 164 -1 248 62 l31 23 50 -48 c65 -62 130 -86 221 -78 l65
5 -7 -336 c-4 -185 -8 -337 -9 -338 -1 -1 -67 2 -147 6 -80 5 -191 9 -248 9
-93 1 -103 -1 -100 -16 3 -16 24 -19 168 -30 91 -6 202 -12 248 -12 l82 -1 0
-113 0 -113 -72 7 c-40 3 -163 15 -273 25 l-201 18 -84 115 c-47 64 -107 138
-134 165 -48 48 -49 48 -100 43 -28 -4 -67 -9 -86 -13 l-35 -6 -4 344 -3 343
57 -3 c60 -4 133 17 155 44 17 19 27 18 35 -6z m-295 -389 l0 -118 -52 9 c-29
6 -80 8 -113 5 l-60 -6 3 110 3 109 77 -5 c64 -5 92 -2 140 14 1 1 2 -52 2
-118z m1494 -202 c-42 -67 -55 -152 -61 -402 l-6 -228 -41 -21 c-22 -11 -54
-30 -69 -40 -16 -11 -30 -19 -32 -17 -2 2 0 135 4 294 7 244 11 296 26 330 40
92 82 124 163 125 l42 0 -26 -41z m-1274 -169 c10 -5 63 -69 118 -142 54 -73
134 -176 177 -228 94 -117 112 -150 99 -188 -8 -23 -18 -29 -69 -40 -33 -7
-134 -31 -225 -52 -91 -21 -205 -44 -253 -51 l-89 -12 -26 34 c-48 62 -120
134 -128 126 -11 -11 10 -49 70 -130 l55 -72 6 -245 c3 -135 8 -260 11 -279 5
-28 3 -33 -11 -27 -9 3 -116 28 -238 56 -328 74 -294 59 -302 134 -8 73 0 531
10 546 3 5 12 10 20 10 19 0 135 109 135 126 0 27 -37 13 -95 -36 -117 -99
-203 -70 -124 41 18 24 88 115 157 201 l126 157 40 -57 c152 -213 288 -377
340 -407 68 -40 137 -28 188 34 24 27 30 30 53 21 39 -15 122 -12 155 5 49 25
92 105 57 105 -7 0 -26 -13 -42 -30 -40 -41 -83 -54 -137 -40 -24 7 -49 17
-55 22 -18 15 -39 4 -55 -29 -17 -36 -76 -68 -110 -60 -35 9 -92 69 -215 226
-59 75 -122 153 -142 173 -21 23 -31 41 -26 47 6 4 85 16 178 26 92 9 193 23
225 30 74 16 99 17 122 5z m328 -899 c-2 -137 -6 -252 -9 -256 -5 -5 -394
-112 -501 -139 l-28 -6 0 82 c0 46 -3 167 -7 269 l-6 187 99 17 c54 10 173 35
264 56 91 20 171 38 178 38 11 1 13 -47 10 -248z"/>
<path d="M6840 7882 c-76 -26 -119 -49 -157 -85 -62 -58 -30 -86 44 -39 67 43
143 62 240 62 94 0 113 14 75 53 -30 29 -127 34 -202 9z"/>
<path d="M7435 7869 c-41 -10 -85 -43 -85 -66 0 -16 24 -21 141 -26 89 -4 101
-7 190 -50 52 -26 115 -59 141 -74 36 -22 50 -25 59 -16 9 9 9 19 -1 42 -31
75 -186 172 -306 191 -69 11 -85 11 -139 -1z"/>
<path d="M9150 7203 c-71 -36 -246 -204 -366 -352 -95 -117 -137 -192 -116
-213 14 -14 29 -3 51 40 11 20 35 55 54 77 l35 40 22 -48 c28 -62 28 -132 1
-185 -12 -23 -21 -46 -21 -52 0 -22 30 -8 57 26 48 63 43 192 -9 267 -23 32
-28 23 80 144 80 90 200 192 265 225 44 22 59 37 51 50 -10 15 -50 8 -104 -19z"/>
<path d="M7874 6640 c-12 -4 -61 -40 -110 -79 -95 -77 -242 -155 -355 -189
-36 -11 -140 -33 -230 -48 -134 -23 -168 -32 -186 -51 -32 -31 -29 -51 16
-120 66 -102 155 -161 306 -203 166 -46 347 0 523 133 92 70 190 229 212 345
8 43 6 62 -8 104 -26 79 -109 132 -168 108z m76 -50 c21 -21 24 -37 14 -64 -8
-20 -127 -116 -207 -166 -142 -89 -409 -173 -533 -168 -65 3 -69 4 -87 36 -24
41 -18 47 59 57 80 10 264 60 349 96 84 35 187 99 284 177 70 57 91 62 121 32z
m-10 -325 c0 -27 -142 -160 -213 -200 -78 -43 -181 -80 -249 -90 -43 -5 -48
-4 -48 12 0 62 115 170 255 241 91 46 107 50 188 51 54 1 67 -2 67 -14z"/>
<path d="M7340 7010 c-45 -45 -38 -122 16 -169 90 -79 182 11 128 125 -9 19
-26 41 -38 49 -29 21 -82 19 -106 -5z"/>
<path d="M6555 5050 c-4 -6 -4 -40 -1 -74 6 -55 5 -65 -15 -90 -51 -65 -128
-67 -183 -5 -27 30 -46 31 -46 2 0 -27 75 -93 106 -94 79 -3 120 13 154 62 22
30 22 30 44 11 11 -11 31 -25 43 -31 48 -25 141 -5 190 40 l21 21 38 -42 c66
-73 124 -88 184 -47 43 28 77 84 62 99 -8 8 -24 0 -56 -30 -53 -49 -82 -53
-126 -16 -51 43 -62 74 -48 134 8 36 9 53 1 61 -17 17 -29 4 -49 -52 -20 -55
-76 -114 -119 -125 -72 -18 -130 26 -156 116 -15 53 -33 78 -44 60z"/>
<path d="M6600 4341 c-151 -46 -254 -237 -223 -415 15 -86 50 -160 106 -222
112 -123 267 -124 383 -2 145 150 149 392 9 546 -71 79 -189 119 -275 93z
m170 -75 c59 -39 89 -75 123 -146 58 -122 37 -271 -55 -374 -75 -87 -150 -106
-243 -62 -60 27 -109 80 -144 156 -22 47 -26 68 -26 150 1 83 4 102 28 152 29
60 88 120 141 144 45 21 129 11 176 -20z"/>
<path d="M6657 4263 c-4 -3 -7 -56 -7 -117 0 -100 -2 -112 -20 -124 -22 -14
-27 -51 -8 -70 19 -19 66 -15 78 8 6 11 8 25 4 32 -4 6 -8 66 -9 133 -1 67 -5
127 -9 133 -8 13 -19 15 -29 5z"/>
<path d="M6450 4090 c0 -16 5 -21 23 -18 12 2 22 10 22 18 0 8 -10 16 -22 18
-18 3 -23 -2 -23 -18z"/>
<path d="M6820 3985 c0 -10 11 -15 35 -15 24 0 35 5 35 15 0 10 -11 15 -35 15
-24 0 -35 -5 -35 -15z"/>
<path d="M6660 3731 c0 -35 3 -41 21 -41 17 0 20 5 17 37 -2 27 -8 39 -20 41
-15 3 -18 -4 -18 -37z"/>
<path d="M7182 4158 c-11 -14 -9 -234 2 -246 3 -2 12 -2 21 2 14 5 16 23 14
116 -2 115 -14 155 -37 128z"/>
<path d="M5852 3958 c-25 -25 -4 -106 37 -142 12 -11 42 -21 71 -24 48 -4 51
-3 95 40 31 31 45 54 45 72 0 33 -25 35 -41 4 -24 -47 -51 -68 -89 -68 -45 0
-78 32 -87 84 -7 42 -15 50 -31 34z"/>
<path d="M5505 3661 c-12 -38 15 -109 56 -146 31 -28 47 -35 80 -35 45 0 84
17 113 49 l20 21 30 -29 c17 -16 41 -34 53 -40 34 -17 104 -13 139 8 37 22 84
81 84 104 0 34 -23 27 -68 -22 -44 -47 -52 -51 -94 -51 -41 0 -50 4 -82 40
-20 22 -36 45 -36 50 0 22 -32 8 -67 -31 -21 -23 -47 -45 -60 -50 -55 -21
-123 42 -123 115 0 29 -4 36 -19 36 -11 0 -22 -9 -26 -19z"/>
<path d="M7566 3498 c-10 -38 -7 -205 4 -234 8 -21 13 -25 23 -15 8 8 12 53
12 139 0 109 -2 127 -16 130 -10 2 -19 -6 -23 -20z"/>
<path d="M7372 2816 c-56 -48 -65 -89 -70 -309 -5 -231 -2 -247 36 -247 28 1
150 25 157 31 10 11 14 233 6 353 -8 112 -13 144 -29 165 -26 36 -62 38 -100
7z m56 -43 c16 -31 21 -94 23 -267 l1 -170 -47 -14 c-26 -7 -49 -11 -52 -8
-10 9 -4 330 7 385 14 76 48 112 68 74z"/>
<path d="M7630 2798 c-31 -50 -35 -88 -35 -293 l0 -190 55 3 c30 2 66 9 80 15
l25 12 0 190 c-1 193 -9 247 -42 280 -25 26 -61 18 -83 -17z m60 -65 c6 -21
14 -111 17 -199 l6 -161 -37 -5 -36 -4 0 146 c0 142 14 260 31 260 4 0 13 -17
19 -37z"/>
<path d="M7488 2132 c-125 -32 -232 -62 -237 -67 -6 -6 -7 -16 -2 -24 7 -11
53 -3 250 45 132 32 246 61 252 65 17 10 3 39 -18 39 -10 -1 -120 -27 -245
-58z"/>
<path d="M6516 3303 c-9 -10 -7 -126 3 -142 18 -28 31 1 31 69 0 49 -4 69 -14
73 -8 3 -17 3 -20 0z"/>
<path d="M6766 3285 c-3 -9 -6 -54 -6 -100 0 -82 12 -114 31 -84 13 20 7 192
-7 196 -6 2 -14 -3 -18 -12z"/>
<path d="M5417 2865 c-4 -9 -7 -63 -7 -120 0 -89 3 -106 18 -113 30 -16 172
-24 188 -11 11 9 14 39 14 125 0 62 -4 115 -8 118 -4 2 -51 8 -103 11 -85 7
-97 6 -102 -10z m132 -41 l31 -6 0 -81 0 -80 -37 7 c-21 3 -48 6 -60 6 -22 0
-23 4 -23 80 l0 80 29 0 c16 0 43 -3 60 -6z"/>
<path d="M5836 2851 c-13 -21 -7 -224 6 -237 14 -12 193 -35 215 -27 10 4 13
36 13 128 0 68 -3 126 -8 129 -4 2 -55 8 -113 11 -75 5 -108 4 -113 -4z m162
-51 c21 0 22 -4 22 -80 l0 -80 -29 0 c-15 0 -49 3 -75 6 l-46 7 0 80 0 80 53
-7 c28 -3 62 -6 75 -6z"/>
<path d="M4772 1657 c-12 -14 -5 -235 8 -257 10 -16 75 -29 144 -30 l59 0 -6
133 c-4 72 -7 135 -7 139 0 6 -34 13 -131 23 -41 4 -59 2 -67 -8z m153 -49 c1
-2 5 -45 7 -95 l4 -93 -52 0 c-29 0 -55 4 -58 8 -3 5 -8 50 -12 102 l-7 93 58
-6 c31 -3 58 -7 60 -9z"/>
<path d="M5446 1585 c-32 -7 -62 -19 -67 -26 -10 -16 -12 -179 -3 -203 7 -19
42 -20 114 -5 71 15 83 31 76 93 -3 28 -6 75 -6 104 0 50 -1 52 -27 51 -16 -1
-54 -7 -87 -14z m74 -104 c0 -39 -4 -72 -9 -75 -5 -4 -29 -9 -54 -12 l-44 -6
-2 70 -2 71 43 9 c71 16 68 18 68 -57z"/>
<path d="M1975 9485 c-99 -19 -302 -77 -386 -111 -421 -171 -737 -500 -869
-902 -16 -52 -33 -118 -36 -147 l-6 -53 -46 -6 c-71 -10 -131 -45 -179 -106
-55 -70 -77 -136 -70 -206 11 -107 68 -191 162 -239 212 -107 451 108 379 341
-10 32 -18 63 -19 68 0 8 246 127 252 122 2 -2 -2 -29 -9 -62 -7 -32 -12 -140
-13 -239 0 -150 3 -186 17 -218 17 -37 17 -41 -2 -98 -12 -36 -20 -85 -20
-129 0 -64 -2 -70 -20 -70 -38 0 -97 -38 -110 -70 -28 -67 8 -234 91 -422 l39
-89 -39 -77 c-22 -43 -84 -146 -140 -230 -121 -183 -166 -269 -192 -370 -36
-143 -16 -332 48 -441 41 -71 130 -152 211 -193 49 -25 92 -58 132 -100 33
-34 60 -64 60 -66 0 -1 -27 -43 -60 -93 -103 -152 -218 -367 -252 -469 -26
-81 -31 -111 -32 -200 -1 -97 1 -109 28 -160 15 -30 44 -76 62 -102 l34 -48
-26 -57 c-41 -93 -99 -250 -129 -352 -30 -104 -35 -179 -13 -213 9 -13 66 -47
131 -78 l115 -55 30 -75 c17 -41 30 -75 29 -76 -1 0 -32 1 -68 4 l-66 4 -22
52 c-107 255 -316 247 -487 -20 -48 -75 -115 -217 -151 -319 -26 -75 -28 -90
-28 -250 l0 -170 34 -73 c37 -79 91 -136 162 -173 124 -63 288 -94 362 -70 49
17 77 54 77 104 0 40 -57 172 -115 265 -35 56 -13 57 57 1 73 -57 142 -91 156
-77 9 9 19 5 39 -14 68 -62 221 -146 276 -150 15 -1 27 -6 27 -11 0 -10 -43
-95 -95 -187 -57 -100 -61 -114 -36 -139 23 -23 79 -28 112 -11 10 6 19 7 19
2 0 -15 -79 -123 -156 -214 -41 -47 -78 -97 -83 -110 -19 -50 26 -98 93 -98
l39 0 -82 -85 c-44 -46 -91 -105 -103 -130 -21 -42 -21 -48 -8 -73 35 -63 127
-76 247 -36 l53 17 42 -39 43 -40 -3 -80 -3 -81 -65 -6 c-77 -7 -154 -39 -154
-63 0 -14 6 -15 43 -9 120 22 232 20 263 -6 8 -7 31 -5 70 7 46 13 80 15 156
11 83 -5 98 -4 98 9 0 20 -52 40 -126 49 -59 6 -60 7 -56 34 2 15 -1 50 -6 78
-9 50 -8 53 19 79 l28 26 47 -16 c70 -24 144 -21 185 7 71 48 63 108 -32 232
-84 111 -84 112 -46 107 40 -5 82 26 90 65 5 27 -20 75 -177 331 -6 11 -3 13
12 7 12 -3 34 1 52 10 47 25 42 68 -30 217 l-59 124 -1 338 c-1 214 2 342 8
348 7 7 21 -2 42 -25 17 -20 57 -49 88 -64 51 -25 67 -28 158 -28 93 1 105 3
168 34 l67 33 36 -37 c47 -48 101 -72 196 -86 89 -13 181 3 266 46 l51 25 2
-597 c2 -329 1 -645 -2 -703 l-5 -105 -47 80 c-26 44 -65 119 -87 168 -40 87
-40 87 -16 81 16 -4 35 0 50 10 36 23 33 70 -10 164 -20 42 -70 162 -113 266
-88 213 -110 243 -156 212 -38 -24 -51 -49 -125 -228 -37 -90 -93 -205 -124
-256 -72 -121 -74 -126 -43 -157 27 -26 58 -31 100 -15 14 5 26 7 26 4 0 -4
-21 -42 -47 -85 -30 -50 -53 -79 -64 -79 -9 0 -53 7 -96 15 -72 14 -79 14 -91
-2 -17 -24 -8 -29 76 -46 41 -9 76 -18 79 -20 2 -3 -16 -32 -41 -64 -73 -94
-78 -147 -17 -173 17 -7 46 -10 66 -8 19 2 35 2 35 -2 0 -3 -41 -50 -90 -105
-105 -118 -126 -151 -116 -189 16 -64 121 -84 239 -45 l64 21 28 -26 c15 -14
32 -26 38 -26 6 0 7 -34 4 -87 -4 -49 -6 -99 -7 -112 0 -21 -3 -23 -37 -18
-74 9 -193 -27 -193 -60 0 -12 7 -14 33 -10 123 22 156 26 191 20 23 -3 53
-12 69 -20 22 -11 39 -11 94 -2 41 7 95 9 142 4 115 -11 144 -11 148 1 6 19
-71 46 -147 51 l-75 6 1 31 c0 17 -2 62 -5 100 -7 68 -6 69 27 102 33 33 34
33 63 18 37 -19 116 -29 162 -20 43 8 87 50 87 84 0 40 -34 101 -110 195 l-69
87 38 0 c22 0 44 6 51 15 11 13 15 11 32 -10 16 -21 28 -25 68 -25 75 0 299
35 502 79 101 22 233 49 293 60 61 11 133 25 160 31 28 6 108 21 178 35 223
42 315 66 334 87 17 19 18 58 17 710 l-1 690 71 -7 c39 -4 81 -11 94 -16 98
-37 181 42 152 145 -6 23 -35 73 -63 112 -70 97 -245 300 -304 355 -26 24 -58
65 -70 91 -14 30 -81 110 -190 225 -92 98 -208 222 -256 275 -58 63 -100 100
-120 107 -18 5 -126 12 -242 16 -115 3 -259 10 -320 15 -60 5 -162 10 -225 11
-63 1 -118 4 -122 6 -4 2 16 52 46 111 29 59 66 141 81 182 16 41 30 77 31 78
1 2 35 -31 75 -73 135 -142 256 -215 435 -260 176 -45 345 -41 445 11 l30 15
-6 -79 c-7 -78 -7 -80 22 -112 24 -27 38 -33 81 -38 66 -6 98 3 117 32 16 23
55 281 55 357 l0 39 58 0 c110 0 178 37 213 115 20 44 25 115 8 132 -7 7 -4
23 12 53 29 55 31 125 5 165 -13 20 -19 48 -20 94 -1 51 -7 75 -25 104 -31 50
-90 80 -148 75 l-44 -3 6 75 c6 64 54 373 58 376 1 0 32 17 68 36 l65 36 14
-32 c7 -18 15 -90 17 -171 4 -92 10 -149 19 -167 29 -56 112 -74 170 -39 69
42 97 182 70 344 -26 154 -103 280 -202 328 -65 31 -191 24 -257 -14 -100 -59
-190 -201 -220 -347 -8 -41 -26 -158 -38 -260 l-23 -185 -53 3 c-45 3 -59 0
-86 -21 -45 -34 -93 -128 -108 -209 -12 -66 -14 -68 -66 -103 l-53 -35 -59 29
c-74 38 -192 131 -257 204 -54 61 -59 69 -94 162 -13 33 -38 86 -56 117 l-33
58 27 6 c150 34 254 72 372 137 104 56 175 112 265 209 62 67 88 105 130 193
64 131 84 200 91 320 10 150 -33 295 -120 408 -34 44 -36 52 -27 79 6 16 13
58 17 92 l6 61 51 20 c55 22 79 47 61 65 -8 8 -22 6 -50 -9 -54 -29 -70 -27
-78 11 -6 29 -1 37 43 83 64 65 116 152 143 238 30 100 23 228 -19 317 -27 59
-28 68 -17 95 17 40 17 174 0 256 -28 129 -110 251 -214 318 -26 16 -59 33
-74 36 -20 5 -46 34 -95 104 -78 110 -254 291 -363 372 -208 155 -470 269
-770 336 -147 33 -445 42 -575 18z m485 -65 c405 -65 739 -231 1011 -500 92
-91 196 -217 187 -225 -2 -3 -19 0 -37 5 -160 46 -560 51 -785 11 -525 -95
-1049 -347 -1385 -665 -75 -72 -204 -223 -227 -268 -12 -24 -18 -28 -25 -17
-15 23 -10 316 6 419 51 318 113 498 236 691 55 85 59 102 27 97 -40 -5 -153
-188 -218 -352 -13 -32 -37 -113 -54 -180 l-31 -121 -148 -73 -148 -73 -38 34
c-21 19 -55 40 -75 47 -40 13 -39 3 -10 123 29 119 104 283 187 407 176 264
377 420 713 553 248 99 543 131 814 87z m1064 -759 c210 -37 314 -79 386 -157
76 -83 120 -206 120 -341 0 -111 -3 -112 -76 -44 -75 71 -211 142 -327 171
-103 26 -352 36 -511 21 -376 -36 -733 -159 -1100 -379 -239 -144 -484 -358
-581 -510 -26 -41 -45 -61 -55 -58 -8 2 -57 19 -107 38 -87 31 -93 35 -99 65
-15 81 48 232 149 358 305 379 832 679 1417 808 63 14 158 30 210 36 52 6 109
13 125 15 79 9 338 -4 449 -23z m-107 -405 c4 -3 -23 -87 -46 -145 -50 -125
-182 -287 -306 -376 -89 -63 -184 -107 -340 -158 -204 -66 -465 -127 -465
-108 0 3 11 38 24 76 33 99 42 168 22 184 -13 11 -17 9 -26 -14 -5 -14 -10
-32 -10 -39 0 -7 -13 -52 -30 -100 -61 -182 -189 -397 -317 -536 -36 -38 -68
-70 -71 -70 -4 0 -19 19 -34 43 -59 92 -245 256 -345 304 -18 8 -33 18 -33 22
0 12 106 146 164 209 154 164 450 362 735 492 286 130 536 198 806 219 74 6
264 4 272 -3z m213 -23 c59 -14 167 -60 197 -84 6 -6 20 -45 32 -88 25 -92 28
-249 9 -463 l-12 -137 -33 39 c-19 21 -59 51 -91 67 -48 24 -69 28 -137 28
-70 -1 -89 -5 -150 -34 -76 -37 -182 -135 -205 -190 -7 -17 -15 -31 -19 -31
-4 0 -15 16 -25 35 -41 76 -185 183 -251 186 -11 0 -29 4 -40 8 -17 7 -13 11
27 29 230 102 468 370 519 587 6 28 13 56 15 64 5 15 54 10 164 -16z m-2885
-42 c82 -38 124 -98 132 -191 10 -105 -41 -195 -134 -237 -69 -32 -124 -28
-191 14 -103 64 -141 198 -87 308 28 57 73 100 122 115 48 14 116 10 158 -9z
m3278 -230 c61 -114 62 -252 4 -375 -49 -104 -154 -236 -133 -168 10 30 34
253 41 372 7 105 -1 198 -21 280 -6 22 -1 20 39 -19 25 -24 56 -64 70 -90z
m-318 -435 c60 -27 109 -80 144 -156 22 -48 25 -69 26 -160 0 -95 -3 -111 -29
-167 -18 -40 -48 -81 -82 -113 -59 -56 -80 -64 -58 -22 23 45 18 90 -15 123
-53 52 -129 28 -152 -49 l-11 -37 -91 0 c-51 0 -100 -2 -111 -5 -14 -4 -21 3
-30 30 -8 24 -17 35 -30 33 -15 -1 -17 4 -12 25 14 65 16 160 4 212 l-14 55
37 55 c114 170 285 241 424 176z m-686 -41 c107 -59 190 -189 199 -315 17
-239 -153 -416 -380 -397 -133 11 -233 79 -293 199 -31 64 -35 79 -35 152 0
182 101 330 259 381 74 24 185 15 250 -20z m-417 -30 c-30 -27 -63 -71 -83
-110 -28 -55 -37 -65 -54 -60 -66 19 -77 18 -73 -1 2 -10 20 -28 41 -39 27
-14 37 -26 35 -40 -3 -23 -38 -23 -75 1 -51 32 -74 2 -27 -35 14 -11 41 -23
59 -27 31 -6 33 -8 39 -67 17 -164 163 -317 331 -348 67 -12 176 2 242 31 51
23 142 106 168 154 24 44 53 53 61 21 3 -13 3 -28 0 -34 -10 -15 26 -22 64
-11 19 6 62 10 96 10 85 0 141 -30 173 -93 29 -60 23 -99 -24 -155 -65 -75
-176 -92 -273 -43 -47 24 -72 27 -72 8 0 -17 36 -50 79 -72 53 -27 171 -17
238 20 77 41 108 91 110 177 l1 70 59 27 c53 26 114 80 141 127 11 18 13 17
37 -11 38 -46 82 -139 96 -203 17 -85 6 -271 -21 -352 -114 -337 -428 -569
-847 -627 -351 -48 -774 82 -1007 310 -78 77 -133 162 -186 290 -33 76 -47 90
-69 63 -6 -8 -35 -24 -63 -36 -71 -30 -169 -25 -251 15 -72 34 -173 127 -228
209 -56 84 -203 384 -233 476 -37 113 -52 195 -40 227 14 41 71 60 138 46 82
-17 205 -69 301 -126 106 -63 252 -201 316 -299 24 -38 49 -68 56 -68 18 0 26
19 13 35 -9 10 -7 15 8 20 32 10 162 153 223 245 31 47 74 121 97 165 l40 80
43 -3 c50 -4 217 28 299 57 77 27 78 26 22 -24z m-1426 -687 c3 -13 31 -66 62
-118 152 -260 407 -387 590 -292 l36 18 49 -98 c27 -55 48 -100 46 -102 -2 -2
-38 -21 -79 -41 -263 -132 -444 -329 -374 -406 16 -17 13 -21 -36 -66 -30 -27
-93 -94 -141 -150 l-88 -102 -46 51 c-92 103 -136 228 -137 393 -1 88 4 127
22 188 17 55 20 81 12 89 -44 44 -101 -162 -89 -327 3 -46 17 -115 30 -154 13
-39 21 -71 17 -71 -17 0 -100 62 -137 102 -89 98 -129 219 -120 368 9 152 37
217 203 470 60 91 120 189 133 218 27 57 36 63 47 30z m3380 -497 c23 -10 44
-23 47 -28 10 -15 -213 -203 -241 -203 -6 0 -14 12 -18 28 -3 15 -14 56 -25
92 l-19 65 28 23 c54 44 158 55 228 23z m107 -113 c30 -52 53 -117 62 -179 l7
-45 -60 -27 c-85 -38 -102 -36 -102 11 0 20 -11 69 -25 107 l-24 70 52 52 c29
28 55 52 59 52 3 1 17 -18 31 -41z m-378 -47 c19 -91 19 -143 -1 -250 -22
-123 -21 -122 -55 -81 -16 19 -41 57 -55 84 -32 60 -29 117 11 204 26 56 74
127 81 120 2 -2 10 -37 19 -77z m-2213 -61 c61 -62 82 -90 93 -127 8 -27 34
-79 57 -118 77 -124 208 -202 358 -212 67 -5 79 -3 110 18 19 13 45 45 58 70
l23 46 52 -9 c61 -10 246 -12 270 -3 30 12 127 -167 143 -264 5 -30 2 -48 -11
-67 -16 -24 -21 -26 -67 -20 -51 7 -117 34 -200 82 -50 28 -78 27 -78 -5 0
-30 -49 -190 -76 -252 -14 -31 -40 -71 -58 -88 -38 -37 -97 -51 -123 -30 -25
22 -74 102 -142 237 -34 67 -67 122 -72 122 -5 0 -43 -28 -84 -62 -176 -148
-290 -185 -330 -108 -43 84 -58 295 -31 448 12 69 11 74 -7 84 -55 29 -202 19
-315 -23 -84 -30 -110 -23 -98 26 9 37 107 136 191 194 60 42 236 139 254 141
2 0 39 -36 83 -80z m201 -157 c21 -13 75 -40 120 -59 45 -20 109 -49 143 -65
35 -17 86 -32 122 -35 34 -4 62 -10 62 -13 0 -10 -33 -55 -49 -68 -66 -49
-247 7 -353 110 -38 37 -108 141 -108 161 0 8 3 6 63 -31z m2452 -120 c-14
-75 -81 -114 -133 -77 -18 12 -22 25 -22 68 l0 54 53 17 c28 9 63 23 77 30 24
13 25 12 28 -23 2 -20 1 -51 -3 -69z m-560 2 c22 -30 50 -60 64 -67 23 -12 23
-16 17 -87 -3 -41 -6 -101 -6 -135 l-1 -61 -42 -20 -42 -20 -34 50 -34 50 12
130 c12 129 22 215 25 215 1 0 19 -25 41 -55z m-2248 -29 c2 -2 -1 -25 -7 -52
-17 -76 -15 -289 4 -357 34 -125 74 -167 157 -167 66 0 182 65 281 159 21 19
39 33 41 30 3 -2 33 -60 67 -128 79 -155 137 -221 194 -221 111 0 197 111 253
327 l19 71 39 -24 c22 -13 43 -25 47 -26 12 -5 -12 -176 -42 -293 -38 -148
-171 -481 -189 -473 -3 2 -37 18 -74 37 -157 79 -355 45 -554 -94 -53 -37 -68
-43 -84 -35 -10 6 -115 35 -231 65 -277 71 -274 70 -270 86 7 29 113 241 201
399 50 90 91 170 91 177 0 18 -19 26 -35 13 -34 -28 -277 -480 -308 -574 -2
-5 -23 -2 -47 8 -38 15 -45 15 -58 2 -13 -13 -11 -17 16 -34 32 -19 171 -68
274 -97 l57 -15 -59 -60 c-93 -96 -145 -228 -138 -356 2 -42 -1 -64 -8 -64
-44 0 -277 105 -391 176 -86 53 -182 155 -220 233 -25 50 -28 67 -27 151 0
127 36 235 140 418 119 210 212 342 340 483 154 169 230 216 379 238 54 7 134
6 142 -3z m2473 -271 c65 -33 89 -109 56 -174 -28 -52 -145 -111 -224 -111
l-37 0 -2 70 c-2 64 0 71 24 90 16 12 41 20 64 20 26 0 46 7 59 20 26 26 18
40 -21 40 -22 0 -29 5 -29 20 0 38 59 52 110 25z m-339 -42 c78 -71 106 -166
71 -245 -14 -32 -28 -48 -50 -56 -47 -16 -74 3 -97 72 -21 63 -39 80 -50 47
-9 -30 13 -102 45 -142 l29 -37 -10 -128 c-5 -71 -12 -140 -15 -153 -5 -24 -6
-23 -47 18 -62 60 -106 138 -118 209 -9 53 -8 78 10 169 30 152 48 199 90 244
50 52 86 53 142 2z m-566 -234 c33 -24 80 -53 103 -63 l43 -19 -57 -58 c-38
-38 -55 -63 -51 -73 10 -26 22 -20 99 50 40 36 85 74 99 85 l27 19 4 -83 c7
-129 69 -243 174 -319 38 -27 45 -37 42 -62 -5 -45 -78 -67 -238 -73 -110 -4
-137 -1 -224 21 -55 14 -127 39 -160 54 -87 41 -211 137 -284 219 l-63 71 25
99 c14 54 29 133 35 176 5 43 11 80 13 82 1 1 26 -2 54 -8 63 -13 100 -4 133
33 l26 29 70 -69 c39 -37 97 -87 130 -111z m1003 -5 c5 -56 -21 -97 -82 -130
-42 -23 -67 -29 -136 -32 -76 -4 -88 -2 -112 18 -32 25 -35 46 -10 77 14 17
30 22 89 25 60 3 84 10 150 45 43 22 83 40 88 39 6 -2 11 -20 13 -42z m-394
-142 c8 -16 21 -34 29 -41 12 -9 13 -20 6 -44 -13 -46 -1 -98 32 -132 l29 -31
-11 -89 c-5 -49 -11 -90 -13 -92 -1 -2 -34 7 -72 20 l-69 22 2 95 c1 52 7 146
14 208 12 119 25 139 53 84z m376 -59 c0 -77 -56 -129 -150 -140 -103 -12
-175 43 -135 103 14 21 23 24 78 24 62 0 163 23 182 41 18 17 25 9 25 -28z
m-1825 -394 c102 -38 195 -155 195 -246 0 -75 -72 -126 -98 -69 -31 69 -151
159 -260 196 -52 17 -67 18 -79 8 -13 -11 -12 -14 7 -30 12 -10 28 -18 36 -18
28 0 120 -49 163 -86 90 -78 121 -146 84 -186 -26 -29 -66 -23 -102 17 -65 71
-230 155 -306 155 -56 0 -37 -44 23 -55 58 -10 199 -83 232 -121 25 -29 28
-37 19 -58 -26 -56 -83 -58 -221 -11 -106 37 -173 43 -173 16 0 -8 18 -20 40
-26 l40 -12 -70 -34 c-60 -29 -81 -34 -142 -34 -62 0 -76 3 -95 23 -20 20 -23
32 -23 105 1 69 5 90 27 132 33 64 90 121 192 198 186 138 372 188 511 136z
m1458 -8 l57 -16 -6 -60 c-10 -90 -16 -98 -76 -93 -73 7 -79 18 -71 116 5 71
8 82 22 76 9 -4 42 -14 74 -23z m-2163 -105 c25 -8 57 -17 72 -20 l28 -6 -60
-62 c-70 -71 -105 -138 -119 -224 -11 -74 0 -136 34 -180 l24 -31 -27 -33 -28
-32 -64 16 c-88 23 -141 54 -163 96 -15 29 -18 54 -15 140 3 95 6 112 35 170
20 40 56 89 95 128 61 61 64 63 103 57 22 -3 60 -12 85 -19z m1280 -21 c140
-8 307 -16 371 -19 64 -2 123 -7 131 -12 8 -5 62 -61 118 -124 57 -63 167
-181 245 -261 93 -96 149 -162 165 -195 14 -30 62 -88 121 -149 110 -112 235
-264 280 -340 49 -84 34 -145 -36 -145 -28 0 -38 7 -68 48 -19 26 -92 110
-163 186 -71 77 -171 189 -223 250 -139 164 -160 187 -324 354 -103 103 -158
152 -173 152 -24 0 -180 -202 -404 -520 -254 -362 -382 -531 -430 -569 -66
-52 -152 -75 -262 -69 -101 5 -161 30 -214 87 -22 22 -44 41 -49 41 -6 0 -26
-11 -46 -24 -78 -53 -200 -70 -299 -40 -40 12 -66 29 -107 70 l-54 54 -41 -21
c-88 -45 -206 -31 -228 26 -22 58 13 133 132 286 41 52 127 167 192 257 l119
162 51 0 c72 0 216 48 258 87 15 13 23 13 77 -6 67 -23 140 -27 174 -10 12 6
36 25 54 42 21 19 44 31 69 33 50 4 77 24 99 73 12 28 24 41 38 41 11 0 36 17
57 38 49 49 60 99 36 162 -33 86 -35 81 25 75 30 -3 169 -12 309 -20z m-2090
-274 c104 -72 365 -191 420 -191 11 0 41 -21 67 -48 48 -47 138 -92 187 -92
36 0 37 -10 7 -49 -15 -20 -61 -81 -101 -136 -120 -163 -182 -238 -189 -227
-3 6 -35 18 -71 27 -149 38 -324 101 -457 165 -142 68 -143 69 -143 102 0 30
73 255 146 450 l28 77 26 -20 c14 -11 50 -37 80 -58z m2615 -154 c44 -50 118
-132 166 -182 47 -49 110 -119 140 -155 29 -35 111 -127 181 -203 l127 -137 2
-383 c1 -470 -1 -1141 -5 -1144 -6 -6 -296 -71 -331 -75 l-37 -3 1 165 c2 180
-6 239 -44 345 -53 147 -134 215 -255 215 -81 0 -129 -22 -193 -86 -115 -115
-166 -330 -151 -636 l7 -136 -59 -12 c-33 -6 -72 -14 -89 -17 -75 -15 -291
-39 -297 -34 -4 4 -8 354 -8 779 l-1 773 64 82 c35 45 148 201 252 347 266
374 430 591 443 589 4 0 43 -42 87 -92z m-2942 -461 c39 -17 73 -53 117 -126
21 -35 28 -56 21 -58 -51 -17 -145 -120 -134 -148 9 -23 23 -16 66 32 64 72
124 88 235 63 48 -11 51 -14 80 -75 28 -59 28 -64 11 -64 -58 0 -140 -60 -183
-135 -48 -81 -73 -226 -51 -294 7 -23 5 -22 -40 10 -65 47 -122 111 -148 167
-31 66 -36 72 -52 65 -23 -8 -18 -36 20 -109 19 -37 34 -68 33 -69 -2 -2 -49
-26 -105 -54 -57 -28 -103 -56 -103 -61 0 -18 55 -11 120 16 62 25 64 25 78 7
26 -35 122 -238 122 -259 0 -11 -9 -29 -21 -40 -55 -50 -292 9 -416 103 -70
54 -109 192 -100 356 7 125 24 191 85 327 78 175 167 296 250 339 44 24 72 26
115 7z m368 -70 c31 -13 190 -59 296 -86 l41 -10 -20 -60 c-27 -78 -19 -117
32 -163 42 -38 102 -54 166 -44 l34 6 0 -242 c0 -133 3 -260 6 -282 5 -33 -4
-22 -50 70 -59 115 -84 145 -120 145 -38 0 -66 -43 -112 -169 -24 -67 -48
-129 -53 -139 -10 -16 -10 -16 -11 1 0 9 -7 17 -14 17 -27 0 -169 79 -240 134
-114 87 -116 90 -116 146 0 166 88 310 190 310 36 0 37 -2 79 -85 24 -47 48
-85 53 -85 22 0 17 36 -15 112 -35 82 -146 343 -173 406 -16 37 -17 36 27 18z
m3339 -266 c0 -3 -22 -3 -50 -2 l-50 4 0 51 0 51 50 -49 c28 -27 50 -52 50
-55z m-2884 -557 c25 -54 66 -143 91 -197 24 -55 62 -134 84 -177 37 -75 46
-108 33 -122 -12 -12 -62 15 -99 53 -62 63 -94 50 -46 -18 16 -22 42 -64 57
-93 15 -30 60 -109 100 -176 74 -124 87 -159 59 -169 -27 -11 -64 6 -115 51
-54 48 -65 53 -73 31 -5 -12 27 -63 190 -301 55 -80 60 -98 31 -125 -34 -32
-110 -24 -179 19 -52 32 -79 34 -79 7 0 -29 -24 -68 -51 -81 -25 -14 -37 -13
-100 0 -27 6 -71 43 -104 88 l-20 27 -75 -26 c-89 -31 -171 -37 -196 -13 -14
15 -14 19 -1 45 9 16 51 67 94 114 95 102 185 219 177 231 -9 14 -40 10 -55
-7 -22 -27 -89 -55 -122 -52 -53 5 -46 34 24 114 89 100 140 170 187 262 23
44 42 82 42 85 0 3 -7 8 -15 11 -9 3 -37 -9 -67 -29 -50 -35 -108 -47 -108
-22 0 6 16 39 36 71 57 96 84 153 146 316 33 85 64 160 70 167 22 27 38 10 84
-84z m916 -190 c20 -48 67 -158 103 -243 73 -169 85 -210 64 -210 -22 1 -93
35 -108 53 -7 10 -20 17 -27 17 -24 0 -15 -35 16 -65 17 -16 30 -34 30 -39 0
-20 106 -240 149 -310 24 -38 41 -78 39 -90 -5 -35 -59 -25 -122 23 -53 41
-70 48 -80 32 -5 -8 103 -169 191 -283 24 -32 50 -73 59 -93 13 -33 13 -36 -7
-56 -18 -18 -29 -21 -75 -16 -29 3 -76 17 -104 31 -29 14 -55 26 -60 26 -5 0
-14 -16 -20 -35 -15 -46 -44 -65 -99 -65 -55 0 -125 38 -147 81 -11 22 -21 29
-32 25 -9 -3 -48 -17 -87 -30 -85 -31 -145 -33 -169 -8 -15 18 -15 21 10 58
14 21 50 64 78 94 78 83 196 242 196 264 0 15 -35 3 -64 -21 -58 -49 -150 -71
-162 -39 -7 20 6 42 94 160 102 138 199 336 163 336 -5 0 -35 -13 -66 -30 -63
-33 -95 -38 -95 -15 0 9 23 54 51 102 29 47 82 153 119 237 91 206 99 220 113
207 7 -5 29 -49 49 -98z m1247 -87 c112 -83 170 -280 158 -539 -3 -65 -7 -120
-9 -123 -3 -2 -18 -6 -34 -10 l-30 -6 4 121 c5 140 -11 293 -40 368 -39 105
-109 141 -203 106 -115 -43 -157 -171 -171 -520 -5 -107 -11 -163 -18 -163 -6
0 -21 -3 -33 -6 l-23 -6 0 163 c1 310 49 496 154 585 47 41 81 52 157 53 44 1
62 -4 88 -23z m-38 -144 c45 -40 69 -135 76 -303 3 -75 3 -160 -1 -190 l-7
-55 -127 -22 c-70 -13 -140 -26 -156 -29 l-29 -6 6 169 c7 172 30 323 60 380
43 82 121 107 178 56z m-2117 -987 c10 -87 9 -92 -31 -107 -43 -18 -108 -5
-98 20 3 7 5 42 5 76 l0 63 59 -1 59 -1 6 -50z m864 -165 c1 0 8 0 16 0 9 0
16 -18 20 -57 4 -32 9 -72 12 -88 5 -29 3 -31 -43 -41 -33 -8 -55 -8 -70 -1
-21 9 -23 17 -23 86 0 112 4 120 48 110 21 -4 38 -8 40 -9z"/>
<path d="M2815 7899 c-88 -31 -185 -104 -185 -141 0 -27 13 -22 84 31 82 62
149 85 227 78 67 -6 84 6 49 35 -30 24 -98 23 -175 -3z"/>
<path d="M3533 7987 c-42 -15 -65 -38 -54 -55 6 -10 15 -9 44 3 80 33 176 12
224 -51 28 -38 53 -44 53 -14 0 28 -54 85 -104 109 -47 23 -113 26 -163 8z"/>
<path d="M2947 7000 c-51 -40 -58 -121 -15 -167 59 -63 171 21 153 114 -3 19
-15 43 -26 54 -25 25 -79 25 -112 -1z"/>
<path d="M1220 7216 c0 -8 42 -49 93 -91 90 -75 123 -108 214 -212 l45 -53
-26 -52 c-35 -69 -36 -150 -3 -199 12 -19 31 -35 41 -37 21 -4 20 -3 -9 78
-14 38 -15 52 -5 85 26 86 32 86 96 -9 36 -53 66 -86 77 -86 22 0 22 1 -9 63
-86 170 -282 394 -424 486 -67 43 -90 50 -90 27z"/>
<path d="M2651 6571 c-70 -18 -87 -130 -36 -231 35 -69 138 -170 209 -205 148
-73 302 -73 442 -2 88 45 147 130 129 186 -7 23 -35 33 -155 56 -114 22 -274
76 -390 132 -115 55 -167 72 -199 64z m178 -97 c117 -58 200 -89 319 -119 105
-27 122 -36 103 -59 -35 -41 -138 -44 -253 -5 -139 46 -343 184 -317 215 19
23 52 16 148 -32z m-111 -91 c31 -20 94 -58 138 -84 82 -49 121 -86 150 -142
l16 -30 -46 5 c-122 14 -308 160 -341 266 -10 33 16 29 83 -15z"/>
<path d="M3351 4199 c-85 -93 -128 -124 -213 -153 l-61 -21 -1 -66 c-2 -130
-93 -254 -203 -277 -26 -6 -52 -18 -58 -28 -73 -126 -158 -189 -271 -200 -53
-6 -69 -3 -118 19 -48 22 -60 33 -77 71 -11 25 -24 48 -29 51 -6 4 -36 -21
-68 -54 -56 -58 -100 -81 -160 -81 -64 0 -133 59 -152 131 -6 22 -16 39 -22
37 -35 -12 -21 -97 24 -145 37 -40 98 -67 154 -67 56 0 145 37 182 77 l22 23
49 -47 c63 -60 121 -76 217 -59 37 6 88 22 114 35 51 26 130 107 152 155 8 19
20 30 33 30 34 1 102 37 148 79 59 54 100 139 105 218 4 58 6 62 32 68 40 9
138 70 183 113 54 52 117 136 117 155 0 33 -26 16 -99 -64z"/>
<path d="M3603 3720 c-90 -32 -142 -86 -168 -174 -43 -144 10 -297 119 -347
98 -44 236 -10 297 74 105 144 59 382 -85 448 -52 23 -97 23 -163 -1z m145
-44 c15 -8 37 -25 49 -38 27 -29 62 -105 63 -135 0 -20 -5 -23 -42 -24 -24 0
-61 -3 -84 -5 l-41 -5 -7 47 c-3 26 -6 75 -6 110 0 58 2 64 20 64 12 0 33 -6
48 -14z m-108 -100 l0 -103 -61 -7 c-114 -11 -113 -12 -105 37 9 57 49 121 94
152 67 45 72 40 72 -79z m220 -158 c0 -7 -13 -41 -29 -75 -23 -48 -39 -67 -74
-87 -61 -36 -81 -35 -73 5 3 17 6 62 6 100 l0 69 85 0 c61 0 85 -3 85 -12z
m-221 -93 c2 -95 2 -95 -22 -95 -74 0 -192 167 -129 183 9 3 47 5 83 6 l65 1
3 -95z"/>
<path d="M4032 3050 c-125 -14 -141 -18 -148 -44 -3 -13 -4 -105 -2 -203 2
-131 7 -184 16 -196 27 -32 282 -4 302 33 11 21 12 350 1 390 -6 22 -13 25
-51 26 -25 1 -78 -2 -118 -6z m126 -117 l-3 -78 -45 0 -45 0 -3 72 c-3 78 -2
79 66 82 l33 1 -3 -77z m-138 -12 c0 -74 -6 -80 -67 -81 -22 0 -23 4 -23 74
l0 75 38 3 c20 2 40 2 45 0 4 -2 7 -34 7 -71z m140 -173 c0 -35 -4 -69 -9 -76
-4 -8 -27 -16 -50 -19 l-41 -6 0 76 0 76 33 4 c72 9 67 13 67 -55z m-140 -28
l0 -80 -45 0 -45 0 0 74 c0 74 0 75 28 79 66 10 62 14 62 -73z"/>
<path d="M3205 2968 c-60 -5 -113 -12 -117 -16 -10 -10 -13 -416 -4 -431 4 -6
32 -11 63 -11 68 0 243 29 261 42 17 14 17 399 0 416 -13 13 -42 13 -203 0z
m165 -108 c0 -60 -3 -70 -17 -70 -10 0 -35 -3 -55 -6 l-38 -7 0 71 c0 78 -2
76 83 81 l27 1 0 -70z m-152 -11 l3 -66 -32 -7 c-59 -12 -59 -12 -59 70 l0 75
42 -3 43 -3 3 -66z m152 -183 c0 -81 3 -77 -67 -91 l-33 -7 -1 59 c0 32 -2 66
-4 75 -4 23 21 37 68 38 l37 0 0 -74z m-150 -21 l0 -85 -29 0 c-16 0 -36 -3
-45 -6 -14 -5 -16 5 -16 79 0 93 -1 91 68 96 21 1 22 -2 22 -84z"/>
<path d="M3747 1983 c-3 -4 -2 -32 0 -61 5 -42 9 -52 22 -50 24 5 23 111 -1
116 -9 2 -18 -1 -21 -5z"/>
<path d="M1967 2825 c-4 -9 -7 -115 -7 -236 0 -257 -4 -247 110 -273 124 -29
154 -30 170 -11 22 27 28 466 7 483 -17 14 -122 38 -213 48 -52 5 -62 4 -67
-11z m109 -48 c1 -1 5 -38 9 -81 l7 -79 -24 6 c-12 4 -31 7 -40 7 -16 0 -18
11 -18 81 l0 82 32 -7 c17 -3 32 -7 34 -9z m127 -24 c4 -2 7 -38 7 -80 0 -73
-1 -75 -22 -69 -13 3 -31 6 -40 6 -16 0 -18 11 -18 81 l0 81 33 -7 c17 -4 35
-9 40 -12z m-129 -179 c13 -5 16 -25 16 -111 0 -100 -1 -104 -20 -99 -11 3
-29 9 -40 12 -18 5 -20 14 -20 105 0 98 0 99 24 99 13 0 31 -3 40 -6z m115
-21 c23 -6 23 -7 19 -105 -3 -54 -7 -100 -9 -102 -2 -2 -19 -1 -36 1 l-33 5 0
104 c0 113 0 113 59 97z"/>
<path d="M8407 2120 c-20 -6 -54 -18 -75 -29 -39 -20 -112 -93 -112 -111 0 -6
-10 -10 -22 -10 -33 -1 -107 -36 -114 -55 -12 -32 12 -38 57 -15 37 19 55 22
126 18 50 -3 87 0 90 5 9 15 -35 47 -65 47 l-25 0 24 26 c68 73 208 103 325
70 32 -10 72 -26 87 -38 29 -20 33 -20 102 6 78 29 195 14 267 -35 53 -36 60
-36 56 -2 -4 34 -51 68 -127 90 -64 18 -184 12 -230 -12 -27 -13 -32 -12 -87
17 -52 29 -69 33 -149 35 -49 1 -107 -2 -128 -7z"/>
<path d="M705 1943 c-123 -17 -175 -42 -162 -78 6 -13 13 -12 59 6 46 18 67
20 153 16 55 -3 113 -9 128 -13 25 -6 28 -4 25 12 -6 37 -120 69 -203 57z"/>
<path d="M7725 1629 c-28 -44 184 -144 592 -279 128 -42 145 -50 166 -81 27
-41 60 -47 104 -20 77 48 107 201 51 261 -24 25 -56 21 -102 -12 l-28 -20
-172 46 c-374 99 -592 137 -611 105z m237 -64 c153 -30 505 -121 521 -135 4
-3 2 -23 -5 -42 l-13 -37 -175 59 c-155 51 -446 163 -459 175 -7 8 -1 7 131
-20z m658 -134 c0 -45 -21 -103 -45 -127 -32 -32 -42 -30 -49 11 -14 72 44
184 79 155 8 -7 15 -24 15 -39z"/>
<path d="M6304 1446 c-71 -31 -55 -131 33 -209 24 -21 68 -15 82 11 8 15 24
11 143 -27 73 -24 178 -57 233 -73 163 -48 275 -54 275 -15 0 35 -65 68 -324
163 -246 91 -276 104 -276 119 0 41 -99 60 -166 31z m106 -31 c0 -4 -8 -20
-17 -38 -10 -18 -23 -45 -29 -61 l-10 -29 -23 31 c-29 42 -25 84 9 93 32 9 70
11 70 4z m215 -125 c359 -125 446 -173 175 -94 -234 67 -375 118 -378 137 -5
27 19 22 203 -43z"/>
<path d="M3972 1428 c-30 -15 -38 -50 -17 -82 l17 -26 -78 -36 c-111 -50 -317
-154 -328 -164 -5 -6 -23 3 -43 20 -40 36 -56 37 -83 8 -26 -28 -26 -98 -1
-153 20 -46 92 -115 119 -115 33 0 62 38 62 82 1 19 22 35 127 93 69 39 171
98 226 132 93 58 103 62 144 56 56 -7 83 14 83 66 0 48 -29 94 -73 114 -39 19
-120 21 -155 5z m134 -49 c33 -20 49 -51 42 -84 -2 -13 -17 -7 -75 30 -73 47
-84 59 -60 68 27 11 61 6 93 -14z m-71 -89 c7 -11 6 -12 -235 -153 l-195 -114
-18 26 -17 26 222 111 c123 61 226 112 230 113 4 0 9 -3 13 -9z m-496 -259
c30 -56 40 -101 23 -101 -11 0 -67 60 -81 87 -6 12 -11 41 -11 64 0 41 1 42
19 25 10 -9 33 -43 50 -75z"/>
</g>
</svg>
