<?xml version="1.0" standalone="no"?>
<!DOCTYPE svg PUBLIC "-//W3C//DTD SVG 20010904//EN"
 "http://www.w3.org/TR/2001/REC-SVG-20010904/DTD/svg10.dtd">
<svg version="1.0" xmlns="http://www.w3.org/2000/svg"
 width="1024.000000pt" height="1024.000000pt" viewBox="0 0 1024.000000 1024.000000"
 preserveAspectRatio="xMidYMid meet">
<metadata>
Created by potrace 1.16, written by Peter Selinger 2001-2019
</metadata>
<g transform="translate(0.000000,1024.000000) scale(0.100000,-0.100000)"
fill="#000000" stroke="none">
<path d="M5830 9540 c-19 -4 -49 -10 -67 -14 -105 -21 -352 -139 -521 -249
-213 -140 -454 -355 -538 -481 -25 -38 -46 -58 -63 -62 -14 -3 -42 -12 -61
-21 -19 -8 -52 -21 -72 -29 -44 -15 -143 -81 -175 -116 -30 -32 -53 -90 -53
-135 0 -33 -6 -44 -48 -79 -26 -22 -61 -65 -77 -95 -27 -49 -30 -62 -29 -144
0 -102 12 -134 69 -183 36 -33 55 -40 115 -44 l35 -3 -3 -75 c-2 -58 3 -95 24
-165 35 -121 39 -155 21 -212 -16 -49 -41 -164 -53 -242 l-6 -44 -24 29 c-67
79 -143 220 -189 348 l-32 88 25 27 c39 41 54 88 54 169 0 65 -4 82 -38 150
-22 42 -59 97 -83 121 l-43 44 6 231 c4 127 9 260 11 296 3 36 7 112 10 170 7
129 20 198 43 228 21 27 87 45 113 32 28 -15 59 -78 59 -120 0 -119 63 -118
174 3 l39 42 -6 -32 c-7 -38 1 -41 34 -14 54 43 9 224 -80 324 -84 93 -232
134 -350 96 -94 -30 -199 -114 -232 -188 -26 -58 -59 -151 -54 -151 3 0 0 -11
-5 -24 -5 -13 -12 -50 -15 -83 -4 -32 -9 -67 -12 -78 -8 -27 -6 -423 3 -514 7
-79 1 -91 -43 -91 -52 0 -114 -109 -94 -163 8 -19 6 -28 -5 -38 -27 -22 -45
-69 -44 -112 1 -23 0 -62 -1 -87 -7 -103 -2 -145 21 -185 32 -54 48 -73 93
-106 l39 -28 1 -93 c2 -87 4 -96 32 -132 16 -21 47 -49 68 -63 21 -13 37 -27
34 -29 -7 -8 49 -149 95 -239 22 -44 66 -118 96 -164 61 -93 237 -281 316
-339 28 -20 53 -39 56 -43 3 -3 41 -30 85 -58 101 -66 255 -140 366 -176 72
-24 86 -31 81 -47 -7 -29 28 -207 54 -273 14 -33 42 -90 64 -127 22 -36 40
-77 40 -91 0 -17 -39 -62 -143 -168 -154 -155 -212 -221 -297 -339 -29 -41
-57 -78 -60 -83 -4 -4 -53 11 -109 33 -226 90 -237 91 -372 50 -192 -58 -541
-171 -869 -282 -381 -128 -602 -200 -604 -196 -13 23 -66 87 -83 101 -21 17
-22 20 -8 40 30 43 20 67 -68 153 -45 45 -109 98 -142 119 -33 21 -62 39 -63
41 -2 1 2 20 9 41 6 21 11 53 11 72 -1 25 7 43 29 68 16 19 43 59 60 89 l31
54 39 -59 c75 -113 185 -188 288 -198 57 -6 101 -22 101 -37 0 -6 -7 -33 -15
-60 -8 -27 -15 -67 -15 -89 0 -125 119 -175 242 -102 11 6 38 71 69 160 28 82
55 157 60 166 5 10 27 19 56 24 65 9 123 26 123 37 0 4 7 8 15 8 8 0 34 17 57
38 67 60 135 224 111 267 -7 11 -2 31 15 65 34 68 25 127 -27 182 -31 34 -44
41 -79 42 -23 0 -42 3 -42 6 0 3 16 48 36 100 20 52 37 100 38 105 9 43 45
120 61 130 11 7 38 16 60 19 33 5 45 2 70 -18 24 -20 29 -31 28 -62 -2 -60
-10 -116 -22 -147 -15 -40 -14 -89 4 -114 23 -33 79 -63 116 -63 48 0 111 39
131 80 30 61 61 228 55 297 -9 116 -89 243 -184 291 -98 50 -271 49 -373 -3
-113 -57 -227 -234 -278 -430 -26 -104 -27 -105 -57 -105 -82 0 -158 -113
-165 -242 0 -5 -6 -8 -13 -8 -20 0 -96 85 -256 285 l-72 90 33 8 c160 39 345
164 478 321 39 46 70 87 70 91 0 4 8 19 19 33 37 53 61 157 61 269 0 97 -25
289 -51 387 -13 47 1 87 38 107 59 32 98 186 91 365 -4 106 -3 114 15 114 27
0 87 49 87 72 0 41 -44 98 -105 134 -16 9 -10 14 39 38 98 48 163 163 172 304
6 92 -3 97 -92 43 -85 -51 -157 -78 -218 -82 l-47 -3 -23 55 c-23 58 -86 147
-132 190 -70 64 -142 95 -238 103 -53 4 -63 9 -105 49 -271 261 -670 527 -961
640 -124 49 -181 61 -291 61 -103 1 -107 0 -184 -38 -55 -27 -98 -58 -144
-105 -174 -175 -333 -418 -405 -621 -29 -79 -66 -291 -66 -376 0 -46 -3 -52
-24 -58 -36 -9 -84 -53 -106 -97 -33 -64 -22 -186 21 -232 10 -12 19 -24 19
-27 0 -3 18 -16 39 -28 57 -32 117 -38 187 -17 100 29 154 107 154 222 0 55
-45 145 -83 164 -12 6 -24 13 -26 15 -6 5 58 102 111 169 26 33 82 91 123 128
l75 68 -1 -33 c0 -18 -6 -103 -14 -188 -18 -213 -13 -687 9 -790 9 -41 16 -87
16 -102 l0 -27 -62 18 c-89 25 -209 27 -248 4 -38 -22 -44 -41 -35 -112 27
-217 206 -532 360 -636 71 -48 77 -56 50 -70 -37 -18 -92 -70 -99 -91 -14 -45
97 -91 199 -82 l43 3 -30 -34 c-43 -49 -53 -81 -31 -101 46 -44 211 -46 339
-6 41 13 74 20 74 15 0 -5 -6 -9 -12 -9 -7 0 -58 -22 -113 -48 -151 -73 -260
-182 -357 -357 -63 -115 -105 -218 -129 -315 -17 -73 -26 -91 -62 -128 -40
-41 -42 -46 -42 -106 l-1 -63 -77 -84 c-179 -191 -202 -313 -82 -429 l34 -33
-54 -54 c-110 -109 -219 -343 -240 -516 -9 -74 9 -158 41 -188 14 -13 27 -23
30 -21 2 1 5 -1 7 -5 1 -3 -27 -16 -63 -28 -114 -38 -172 -77 -132 -87 21 -6
342 101 597 198 39 15 104 37 145 49 41 13 100 33 130 45 72 28 449 161 475
167 15 3 33 -8 65 -42 96 -99 147 -119 209 -79 15 11 47 18 82 18 59 1 85 15
99 52 7 16 15 21 30 17 32 -8 78 16 101 54 17 27 20 44 16 81 -3 26 -9 55 -12
64 -8 21 2 25 250 108 105 34 213 71 240 81 47 17 1252 413 1304 428 51 15
204 -26 368 -100 23 -11 44 -19 46 -19 3 0 60 -27 128 -59 320 -152 383 -181
395 -181 9 0 14 -11 14 -29 0 -35 35 -81 61 -81 11 0 29 -16 43 -38 13 -20 40
-46 60 -57 31 -17 40 -18 68 -7 20 7 36 8 43 2 6 -5 29 -12 52 -16 34 -5 45
-2 62 15 33 33 86 19 246 -65 77 -40 183 -91 235 -114 107 -47 155 -69 255
-115 39 -18 122 -55 185 -83 63 -27 180 -81 260 -119 80 -38 166 -78 191 -88
l47 -19 -39 -44 c-50 -58 -79 -119 -79 -170 l0 -41 -107 -73 c-201 -136 -288
-245 -314 -393 -13 -77 -7 -120 21 -150 11 -12 31 -42 43 -66 l22 -44 -129
-67 c-70 -37 -160 -79 -200 -94 -74 -27 -201 -42 -224 -26 -23 15 -2 62 55
124 47 51 53 63 53 101 0 34 -6 49 -27 69 -55 53 -126 62 -218 27 -69 -26
-159 -111 -195 -184 -32 -65 -38 -156 -15 -224 18 -55 86 -138 138 -169 87
-53 279 -95 382 -85 73 8 152 31 256 78 168 75 1100 544 1136 571 43 33 62 62
67 104 12 116 -96 189 -266 178 l-63 -4 3 38 c3 29 8 38 23 38 29 0 112 30
133 49 23 20 66 108 66 137 0 11 10 26 23 33 20 10 40 3 177 -61 85 -41 180
-87 210 -103 30 -17 80 -41 111 -55 l55 -24 -29 -42 c-15 -22 -31 -59 -34 -82
-5 -41 -9 -44 -92 -94 -157 -94 -257 -166 -302 -216 -45 -50 -106 -159 -112
-199 -2 -16 -35 -38 -142 -93 -121 -63 -234 -124 -615 -335 -41 -23 -91 -51
-110 -62 -68 -40 -276 -162 -419 -245 -140 -81 -167 -96 -286 -167 -107 -63
-155 -119 -155 -179 0 -95 87 -192 172 -192 45 0 143 52 468 245 30 18 118 67
195 110 77 42 169 94 205 115 36 20 110 62 165 93 55 30 118 65 140 78 130 73
270 151 335 185 41 22 114 64 163 94 78 48 90 52 113 42 32 -15 79 -15 103 0
17 10 23 8 38 -10 28 -34 113 -32 155 5 9 8 22 34 29 57 11 39 18 45 97 86
169 89 230 159 218 250 l-6 47 50 6 c28 3 63 14 78 23 25 15 74 70 106 118 12
18 21 15 167 -58 85 -43 206 -106 269 -141 450 -245 719 -385 740 -385 6 0 5
11 -4 28 -10 19 -66 56 -193 129 -98 56 -192 109 -208 117 l-28 15 29 6 c43
10 89 35 136 76 l42 36 44 -51 c83 -95 161 -132 219 -104 37 17 81 100 94 177
21 118 -22 314 -106 481 l-43 85 48 53 c69 77 78 120 55 258 -15 89 -80 257
-116 301 -7 7 -13 41 -13 75 -1 57 -3 62 -38 93 -21 18 -38 37 -38 44 0 26
-44 141 -87 226 -61 121 -165 264 -256 353 -79 77 -214 165 -279 183 -46 12
-42 24 9 34 100 18 208 84 242 147 31 58 18 67 -138 105 l-34 8 30 35 c70 80
149 255 199 440 35 127 40 304 10 326 -29 20 -73 17 -161 -11 -43 -14 -79 -24
-82 -22 -2 2 1 35 6 73 20 139 25 223 26 404 0 215 -17 540 -30 578 -7 20 13
14 89 -24 87 -44 155 -95 221 -163 70 -73 72 -79 41 -105 -94 -78 -72 -272 39
-345 35 -23 50 -26 116 -25 67 1 83 5 123 30 125 78 143 240 37 345 -40 41
-51 46 -83 44 -27 -2 -35 0 -32 10 7 17 -31 171 -62 253 -25 66 -117 245 -163
317 -76 118 -265 353 -341 422 -66 61 -154 112 -223 129 -62 16 -71 15 -134 0
-37 -9 -97 -29 -133 -43 -75 -29 -310 -145 -349 -172 -14 -10 -73 -49 -131
-86 -190 -122 -426 -317 -670 -554 -104 -101 -144 -133 -175 -142 -69 -19
-143 -68 -203 -135 -71 -79 -158 -221 -178 -291 -11 -36 -21 -53 -32 -53 -9
-1 -41 -3 -69 -5 -29 -3 -74 -7 -100 -9 -108 -9 -131 -40 -101 -137 16 -57 70
-113 138 -148 l60 -30 -74 -53 c-81 -58 -176 -144 -176 -158 0 -4 17 -19 38
-32 33 -21 51 -23 167 -25 l130 -3 3 -57 c7 -168 56 -347 133 -490 26 -48 28
-57 19 -101 -32 -169 -17 -363 35 -466 69 -136 270 -289 487 -371 l47 -17 -56
-75 c-89 -121 -215 -251 -330 -341 -28 -23 -54 -50 -58 -62 -5 -17 -15 -20
-61 -20 -31 0 -64 -4 -74 -10 -13 -7 -21 -5 -31 7 -15 17 -221 122 -474 239
-202 95 -205 96 -205 104 0 3 19 17 43 30 23 13 63 44 90 69 l47 44 129 -62
c142 -68 219 -88 262 -66 41 22 51 40 50 102 -1 196 -205 500 -354 528 -20 4
-37 10 -37 13 0 3 11 19 24 36 83 110 108 253 61 354 -50 108 -159 248 -307
395 -84 84 -108 114 -108 135 0 89 -54 295 -114 435 -15 35 -15 37 2 37 36 0
142 62 199 116 44 41 68 56 98 61 22 3 52 12 66 19 31 15 92 82 112 121 41 81
51 238 22 339 -25 85 -93 200 -161 272 l-61 64 22 46 c96 203 129 378 80 432
-22 25 -100 27 -164 4 -24 -8 -46 -12 -50 -9 -3 4 -6 159 -6 345 l0 337 24
-18 c13 -11 27 -19 32 -19 10 0 203 -95 281 -139 l56 -32 -15 -31 c-9 -17 -16
-56 -16 -87 0 -149 124 -227 277 -175 35 12 57 29 87 66 21 27 40 60 40 71 1
12 2 29 3 37 3 39 -16 106 -40 138 -33 43 -86 65 -139 60 l-40 -5 -30 65 c-16
35 -52 96 -78 136 -168 249 -243 375 -372 621 -119 226 -185 301 -296 336 -63
20 -100 22 -159 9z m191 -97 c27 -14 64 -45 83 -67 31 -38 48 -68 156 -271 85
-161 183 -323 275 -455 99 -142 154 -231 179 -292 l16 -37 -28 9 c-15 4 -116
53 -225 109 -108 55 -203 101 -210 101 -7 0 -27 13 -44 28 -23 22 -33 41 -38
78 -3 27 -13 78 -22 114 -46 183 -77 160 -47 -35 20 -123 25 -199 30 -405 l5
-235 -28 51 c-128 224 -310 397 -539 513 -170 85 -374 133 -565 133 -107 0
-227 -10 -242 -19 -5 -3 -2 8 7 24 21 41 170 181 306 287 333 260 663 417 839
400 24 -2 65 -16 92 -31z m-4456 -124 c57 -15 188 -65 274 -106 153 -73 362
-210 574 -377 70 -56 148 -117 172 -136 l45 -35 -27 -6 c-16 -4 -49 -7 -74 -8
-74 -2 -242 -39 -346 -76 -106 -38 -299 -140 -397 -210 -228 -162 -430 -403
-564 -669 l-50 -100 -7 65 c-9 75 -9 537 -1 672 7 95 34 353 42 397 2 14 7 43
10 65 3 22 9 56 14 75 16 67 23 166 11 154 -18 -17 -69 -177 -84 -262 l-14
-79 -145 -144 c-138 -137 -228 -251 -262 -334 -35 -83 -51 -39 -42 113 9 149
45 281 114 422 33 67 165 274 195 305 7 7 23 25 36 41 89 106 140 159 176 183
44 30 136 68 175 73 28 4 115 -8 175 -23z m2688 -10 c13 -8 17 -23 17 -68 0
-32 -5 -72 -11 -89 l-10 -30 -36 14 c-45 19 -100 11 -149 -22 -30 -21 -39 -23
-52 -12 -22 19 -52 88 -52 124 0 38 10 47 86 79 50 21 69 24 124 19 36 -3 73
-10 83 -15z m111 -74 c57 -74 84 -169 58 -202 -22 -27 -111 -103 -121 -103 -7
0 -15 54 -22 145 0 6 9 37 20 69 12 33 21 74 21 93 0 42 11 42 44 -2z m-3214
21 c0 -3 -4 -8 -10 -11 -5 -3 -10 -1 -10 4 0 6 5 11 10 11 6 0 10 -2 10 -4z
m2758 -75 c1 -38 33 -99 70 -134 29 -28 30 -30 17 -61 -16 -38 -23 -76 -24
-128 l-1 -37 -37 15 c-68 28 -123 95 -123 148 0 42 77 226 94 226 2 0 3 -13 4
-29z m-1638 -185 c0 -3 -4 -8 -10 -11 -5 -3 -10 -1 -10 4 0 6 5 11 10 11 6 0
10 -2 10 -4z m1635 -217 l56 -23 -7 -155 c-4 -86 -8 -158 -10 -160 -4 -5 -43
24 -89 68 -54 51 -65 92 -65 235 l0 118 30 -30 c16 -16 54 -40 85 -53z m1345
-84 c333 -71 584 -232 767 -492 48 -67 102 -192 127 -292 26 -102 26 -121 3
-121 -7 0 -38 -16 -70 -35 -67 -41 -67 -41 -67 -17 0 35 -68 158 -129 235
-173 214 -454 402 -721 480 -157 46 -221 57 -360 62 -141 4 -296 -24 -417 -76
-24 -10 -45 -14 -48 -9 -9 15 42 107 73 128 102 73 272 132 447 156 65 9 323
-3 395 -19z m-2472 -105 c104 -12 154 -34 214 -96 44 -45 126 -180 115 -190
-2 -3 -65 0 -138 7 -122 10 -189 8 -289 -7 -82 -12 -271 -64 -345 -93 -91 -36
-280 -134 -310 -160 -11 -10 -31 -24 -45 -33 -83 -51 -295 -246 -391 -359 -63
-75 -151 -203 -184 -269 -15 -30 -29 -57 -31 -59 -3 -3 -45 15 -95 39 l-90 45
6 35 c26 138 148 362 304 555 246 307 609 521 971 574 149 22 200 24 308 11z
m1053 -141 c19 -17 52 -38 73 -48 l39 -17 -2 -125 c-1 -68 -5 -127 -9 -131
-10 -10 -21 0 -65 54 -20 26 -45 49 -55 52 -15 5 -18 21 -21 118 -1 62 -5 116
-7 120 -12 19 16 5 47 -23z m1170 -18 c78 -16 222 -63 308 -102 l72 -32 -43
-24 c-175 -99 -277 -141 -542 -217 -352 -102 -506 -123 -560 -77 -72 63 -68
215 10 300 69 77 256 153 415 169 84 8 257 -1 340 -17z m-1527 -128 c-4 -16
-20 -57 -38 -92 -44 -91 -126 -143 -258 -166 -21 -3 -38 -10 -38 -14 0 -5 42
-29 93 -54 146 -72 159 -103 55 -128 -129 -30 -407 15 -544 90 -54 29 -84 38
-84 26 0 -3 13 -32 30 -64 36 -72 37 -71 -105 -78 -92 -5 -156 2 -297 32 -58
12 -214 67 -246 87 -31 19 -33 22 -16 31 11 6 21 13 24 17 3 4 21 15 40 26 19
10 37 21 40 24 6 6 57 34 130 71 56 28 217 82 345 115 60 16 113 19 360 19
265 1 296 3 363 23 41 12 88 30 105 41 43 26 48 25 41 -6z m3403 -8 c29 -20
43 -53 43 -107 0 -114 -164 -181 -244 -101 -33 33 -39 58 -32 125 9 92 6 88
48 53 16 -14 38 -25 48 -25 23 0 50 36 50 67 0 19 3 21 31 13 17 -5 42 -16 56
-25z m-1329 -106 c98 -66 121 -85 210 -172 84 -81 150 -176 181 -257 28 -74
27 -90 -12 -141 -18 -24 -47 -72 -64 -106 l-31 -62 -10 42 c-6 23 -13 61 -17
85 -7 42 -6 42 23 42 27 0 84 33 72 42 -3 2 -30 12 -60 22 -163 55 -301 200
-393 413 -44 103 -54 143 -36 153 18 12 48 -2 137 -61z m-1740 -21 c50 -48 66
-106 35 -140 -16 -17 -18 -17 -59 7 -24 14 -61 26 -83 28 -34 2 -42 7 -52 29
-9 23 -8 33 10 61 37 60 94 65 149 15z m1605 -148 c29 -64 95 -159 153 -222
45 -49 151 -138 164 -138 4 0 10 -28 14 -62 12 -111 45 -212 72 -222 26 -10
39 5 88 98 40 79 58 102 110 143 128 103 178 130 288 159 108 27 122 5 83
-131 -33 -113 -86 -225 -157 -335 -76 -116 -111 -158 -169 -201 -60 -46 -143
-62 -184 -35 -35 23 -62 20 -69 -7 -11 -45 -108 -181 -184 -257 -118 -118
-204 -177 -302 -206 -61 -18 -248 -45 -280 -40 -14 3 -47 7 -75 11 -236 31
-453 161 -532 320 -35 69 -46 140 -39 239 7 100 26 211 51 295 16 50 15 58 -1
120 -10 38 -20 124 -23 204 -6 132 -5 138 14 142 116 26 127 27 108 3 -12 -15
-27 -78 -19 -78 3 0 15 18 28 39 48 80 128 116 179 80 30 -21 45 -12 34 21 -5
16 1 21 37 30 53 14 186 57 213 69 11 5 69 28 129 52 60 23 132 55 160 70 l51
28 17 -67 c9 -37 28 -92 41 -122z m-4743 100 c16 -30 46 -34 90 -9 l40 22 24
-26 c35 -37 42 -88 22 -142 -24 -62 -52 -93 -89 -100 -18 -3 -44 -7 -59 -9
-45 -7 -110 33 -137 84 -33 62 -24 121 25 179 30 34 39 39 55 31 10 -6 23 -19
29 -30z m3303 -60 c23 -14 49 -46 80 -103 48 -84 53 -107 48 -204 0 -12 -19
-43 -41 -68 -22 -25 -40 -49 -40 -53 0 -4 9 -41 21 -82 38 -139 171 -384 250
-461 16 -16 30 -43 34 -66 14 -86 50 -167 104 -239 34 -45 156 -153 174 -154
4 0 24 -11 44 -24 19 -14 68 -35 107 -47 39 -13 73 -24 75 -26 2 -1 -2 -16 -9
-32 -17 -42 -15 -150 4 -196 19 -45 20 -50 4 -38 -7 6 -44 22 -83 37 -205 81
-474 294 -628 498 -74 98 -134 204 -188 330 l-43 99 26 22 c14 12 33 33 41 47
18 30 29 194 27 397 -1 152 -11 201 -53 257 -19 25 -22 40 -19 79 5 53 14 57
65 27z m-222 -63 c67 -22 126 -88 114 -127 -8 -25 -31 -25 -86 0 -30 13 -66
20 -111 20 l-68 0 0 40 c0 73 56 98 151 67z m5093 -27 c71 -24 131 -68 222
-162 215 -223 398 -525 464 -767 31 -114 38 -175 21 -186 -6 -3 -15 5 -22 17
-7 13 -15 25 -18 28 -4 3 -18 21 -30 40 -13 19 -58 69 -100 110 -78 77 -171
134 -274 169 -43 15 -53 23 -59 47 -4 16 -16 70 -28 119 -36 153 -71 171 -52
27 49 -366 55 -448 56 -747 1 -165 -3 -340 -7 -389 l-9 -88 -34 48 c-86 124
-120 165 -207 255 -159 164 -341 298 -542 399 -81 40 -256 104 -330 120 -22 5
-67 15 -100 24 -82 20 -129 26 -281 33 l-131 5 86 83 c99 94 175 162 326 291
86 73 292 226 393 291 89 58 290 164 372 197 71 28 114 44 130 50 34 11 100 5
154 -14z m-354 -34 c0 -3 -4 -8 -10 -11 -5 -3 -10 -1 -10 4 0 6 5 11 10 11 6
0 10 -2 10 -4z m-6467 -42 c159 -108 527 -170 689 -117 48 16 53 21 56 50 l3
32 37 -14 c34 -13 97 -31 147 -41 11 -3 58 -10 105 -16 47 -7 89 -17 93 -22 9
-12 1 -412 -9 -427 -13 -21 -3 -153 18 -251 30 -136 32 -347 5 -425 -29 -81
-92 -171 -190 -266 -103 -101 -152 -137 -245 -179 -129 -59 -192 -72 -357 -72
-154 -1 -164 1 -310 51 -76 25 -204 95 -274 149 -91 70 -159 162 -211 288
l-20 49 -43 -8 c-90 -15 -105 -14 -171 5 -195 55 -383 270 -469 535 -35 107
-41 148 -27 174 10 19 19 22 68 20 97 -3 229 -42 332 -97 112 -60 170 -115
225 -210 86 -149 103 -172 128 -172 12 0 27 4 34 8 25 16 68 163 98 339 10 56
22 100 27 97 4 -3 8 -13 8 -23 0 -25 35 -33 54 -12 29 32 86 168 102 241 18
86 25 212 13 273 -6 33 -4 44 9 54 24 18 33 16 75 -13z m1905 -95 c5 -89 -8
-343 -18 -359 -12 -20 -73 29 -106 85 -24 41 -25 51 -19 113 4 37 11 69 17 71
19 6 72 64 74 80 4 32 29 81 39 78 5 -2 11 -32 13 -68z m-2036 -53 c-1 -51 -7
-107 -13 -122 -6 -16 -10 -31 -10 -34 2 -12 -51 -159 -64 -176 -15 -21 -12
-28 -37 91 -13 62 -25 95 -36 95 -4 0 -18 -71 -30 -157 -23 -163 -43 -258 -81
-379 l-23 -71 -54 105 c-30 57 -70 122 -89 143 -19 22 -35 45 -35 52 0 23 148
239 206 301 33 34 84 89 115 121 74 80 139 138 146 131 3 -3 5 -48 5 -100z
m1833 83 c66 -17 87 -30 73 -46 -6 -8 -24 -21 -40 -29 -33 -17 -63 -6 -73 26
-8 24 -21 26 -29 4 -8 -21 17 -60 52 -82 24 -15 27 -22 24 -65 l-3 -49 -27 18
c-39 25 -82 74 -98 111 -15 34 -19 105 -7 116 10 10 83 8 128 -4z m-455 -176
c0 -128 -11 -189 -44 -250 -14 -26 -15 -13 -13 169 2 213 -2 197 50 207 4 0 7
-56 7 -126z m500 -168 c0 -24 94 -115 118 -115 27 0 28 -20 4 -50 -15 -19 -25
-22 -54 -16 -20 4 -48 16 -62 27 -24 19 -26 27 -26 95 0 43 4 74 10 74 6 0 10
-7 10 -15z m2610 -270 c124 -168 160 -320 111 -468 -21 -63 -54 -103 -113
-140 -32 -20 -35 -10 -13 34 22 41 25 115 8 172 -8 27 -17 47 -19 44 -3 -3 -7
-27 -9 -54 -8 -106 -76 -240 -157 -306 -41 -34 -141 -87 -163 -87 -5 0 -28 30
-49 66 -43 72 -129 151 -203 187 -28 14 -42 26 -38 35 3 7 5 41 5 76 0 58 3
67 55 146 30 46 56 88 57 92 2 4 23 1 47 -8 39 -13 49 -13 95 0 101 30 182 98
263 222 55 83 53 83 123 -11z m1262 -219 c16 -2 47 -7 70 -11 61 -10 252 -60
320 -84 79 -27 286 -132 361 -183 175 -117 351 -283 477 -448 79 -102 130
-180 130 -196 0 -7 -21 -25 -47 -40 -64 -37 -141 -92 -178 -127 l-30 -28 -20
28 c-148 201 -400 409 -640 528 -292 144 -550 207 -815 200 -92 -3 -148 -10
-322 -41 -28 -5 -38 -3 -38 6 0 24 82 164 136 231 122 154 187 181 419 174 83
-2 162 -6 177 -9z m2033 -157 c70 -65 82 -138 35 -213 -24 -39 -69 -63 -131
-71 -115 -13 -196 118 -143 230 19 40 41 51 64 30 9 -8 31 -15 48 -15 26 0 36
7 52 32 10 17 17 35 14 40 -14 22 22 3 61 -33z m-3975 -86 c0 -44 -13 -56 -50
-48 l-32 7 33 34 c40 41 49 42 49 7z m-57 -107 c188 -49 310 -189 397 -455 45
-138 61 -225 67 -362 9 -194 -24 -370 -95 -514 -47 -95 -51 -100 -69 -75 -8
11 -35 32 -60 47 -39 23 -58 27 -115 27 -37 -1 -68 0 -68 1 0 2 14 31 31 66
55 110 70 167 76 284 7 131 -12 236 -83 475 -46 157 -58 185 -76 174 -13 -9
-5 -55 43 -254 41 -168 69 -313 69 -362 0 -33 -15 -42 -97 -59 l-62 -13 -29
32 c-26 28 -37 32 -81 32 -27 0 -96 5 -151 11 -99 12 -101 11 -125 -11 -21
-20 -27 -21 -41 -9 -48 39 -147 221 -158 290 -3 19 -8 47 -11 64 -2 16 -5 97
-6 180 -1 82 -5 159 -9 170 -7 18 -9 17 -20 -10 -6 -16 -14 -54 -17 -82 -3
-29 -9 -53 -13 -53 -8 0 -44 49 -54 75 -16 43 -23 119 -14 162 9 42 12 45 37
39 14 -3 69 -9 122 -12 l97 -7 11 -37 c14 -48 83 -126 116 -132 55 -11 111 11
173 68 69 62 106 120 123 190 18 74 18 74 28 74 6 0 34 -6 64 -14z m-4213 -33
l105 -2 8 -32 c9 -33 61 -133 84 -160 11 -14 10 -17 -13 -27 -29 -14 -180 -41
-209 -38 -11 1 -30 6 -42 10 -22 7 -20 10 31 71 52 60 74 100 62 112 -3 3 -37
-2 -76 -12 -73 -18 -174 -15 -194 5 -12 12 -14 9 54 53 32 21 61 33 70 30 8
-4 62 -8 120 -10z m4054 -64 c-35 -63 -132 -155 -175 -164 -23 -5 -38 -2 -58
12 -24 19 -77 100 -70 108 2 1 20 5 39 8 56 7 171 45 230 76 30 16 56 25 58
20 2 -5 -9 -31 -24 -60z m2051 1 c65 -10 309 -81 322 -94 4 -3 -88 -94 -152
-151 -152 -134 -305 -217 -430 -231 -64 -8 -67 -3 -31 59 52 91 40 112 -30 56
-68 -55 -214 -112 -355 -139 -59 -12 -226 -14 -252 -4 -13 5 12 28 100 94 170
126 191 153 124 158 -48 4 -134 39 -168 70 -17 15 -40 46 -52 69 -20 40 -20
43 -4 51 22 12 74 20 178 27 109 8 240 23 300 35 134 27 268 27 450 0z m-3949
-93 c-30 -39 -56 -108 -56 -148 0 -16 -4 -29 -9 -29 -6 0 -27 -24 -47 -54 -37
-52 -38 -53 -57 -35 -33 30 -47 69 -47 131 0 55 3 63 33 90 43 41 123 78 170
78 l38 0 -25 -33z m192 -4 c48 -23 97 -74 127 -132 l24 -49 -64 5 c-36 3 -77
1 -96 -6 -28 -10 -36 -9 -45 3 -16 23 -91 49 -119 42 -31 -8 -32 4 -5 59 44
92 98 116 178 78z m4176 -33 c14 -5 26 -17 26 -26 0 -71 124 -309 245 -470 16
-22 39 -53 50 -68 65 -92 114 -151 128 -154 10 -2 24 9 35 28 l19 31 18 -116
c19 -127 33 -149 86 -138 21 4 34 22 72 101 87 179 186 287 351 381 100 57
185 91 248 98 l51 6 -7 -73 c-17 -182 -115 -446 -226 -610 -51 -75 -137 -152
-208 -187 -48 -23 -70 -28 -135 -28 -86 0 -77 8 -93 -75 -8 -38 -54 -139 -89
-195 -101 -161 -300 -325 -457 -379 -234 -78 -440 -56 -688 76 -145 77 -255
171 -300 258 -43 81 -59 251 -37 384 17 100 13 126 -36 221 -61 122 -101 281
-109 434 l-3 64 95 28 c52 15 112 37 133 48 35 19 37 19 37 2 0 -10 9 -26 20
-36 17 -15 31 -17 92 -12 175 15 339 112 548 322 52 52 98 95 102 95 4 0 18
-4 32 -10z m291 -159 c28 -19 63 -44 80 -55 16 -12 34 -26 40 -32 5 -6 26 -21
45 -34 44 -28 249 -238 272 -277 17 -29 17 -30 -20 -79 -20 -27 -52 -80 -71
-117 -19 -37 -37 -67 -41 -67 -4 0 -8 23 -9 51 -1 29 -3 54 -5 58 -2 3 -7 28
-11 56 -7 53 -52 204 -65 219 -14 14 -29 -29 -43 -115 l-12 -82 -37 54 c-20
30 -53 77 -73 104 -107 149 -182 268 -217 341 -21 45 -38 87 -38 93 0 11 114
-55 205 -118z m-4919 16 c1 -63 25 -110 72 -139 22 -14 30 -24 23 -32 -13 -16
-71 -184 -71 -207 0 -10 -6 -19 -12 -19 -7 0 -23 -3 -34 -6 -15 -4 -23 0 -27
13 -3 10 -20 58 -36 106 l-31 88 40 102 c33 85 64 147 73 147 1 0 2 -24 3 -53z
m-1592 -211 c25 -90 102 -280 132 -325 49 -75 97 -66 187 34 33 36 67 65 77
65 13 0 31 -21 55 -62 43 -74 69 -97 109 -98 83 0 214 258 191 377 -6 32 -5
33 27 32 29 0 38 -7 71 -59 45 -70 145 -196 220 -277 l54 -57 -35 -30 c-77
-68 -120 -182 -107 -290 7 -65 16 -89 48 -123 27 -31 19 -29 -71 12 -83 39
-169 118 -218 201 l-25 43 20 66 c21 67 26 166 12 215 -7 24 -8 23 -19 -15 -7
-22 -21 -78 -32 -125 -11 -47 -36 -117 -55 -156 -60 -125 -181 -258 -212 -233
-7 6 -13 17 -13 25 0 18 -35 27 -81 19 -23 -4 -92 -8 -154 -10 -115 -3 -146
-12 -175 -47 -15 -19 -18 -19 -50 -6 -19 8 -50 27 -67 42 -30 25 -33 33 -33
84 0 32 10 95 21 142 53 227 75 391 50 376 -5 -3 -16 -36 -26 -73 -9 -38 -32
-123 -51 -190 -34 -122 -41 -155 -49 -228 -2 -22 -4 -42 -4 -45 -1 -4 -17 -12
-36 -19 -51 -18 -46 -41 10 -41 25 0 44 -3 43 -7 -8 -29 54 -163 102 -225 42
-53 50 -78 24 -78 -67 0 -223 -129 -246 -202 -6 -21 -13 -38 -14 -38 -2 0 -22
19 -44 43 -64 67 -148 198 -185 289 -59 147 -68 196 -63 353 4 125 8 151 37
235 61 182 198 406 295 483 21 18 85 55 140 82 l101 51 12 -76 c6 -41 19 -101
27 -134z m108 169 c58 -36 77 -54 93 -88 23 -50 148 -175 184 -184 68 -17 107
-2 121 45 5 20 10 45 10 55 0 15 11 17 95 17 l95 0 -5 -64 c-7 -99 -69 -230
-127 -270 -27 -19 -29 -18 -57 41 -36 74 -78 113 -120 113 -31 0 -44 -10 -107
-75 -39 -41 -78 -75 -86 -75 -23 0 -103 188 -143 335 -22 82 -39 195 -29 195
2 0 36 -20 76 -45z m2064 -27 c24 -11 26 -15 20 -63 -4 -27 -12 -71 -18 -96
l-11 -46 -42 43 c-33 35 -49 44 -75 44 -31 0 -32 1 -26 31 3 17 6 47 6 65 l0
34 60 0 c32 0 71 -5 86 -12z m-1778 -98 c61 -18 72 -24 67 -38 -4 -9 -8 -24
-9 -32 -4 -21 -39 -24 -74 -6 -28 14 -132 109 -132 119 0 3 17 -1 38 -8 20 -8
70 -24 110 -35z m1703 -111 c34 -36 37 -64 10 -79 -36 -19 -78 -12 -100 16
-59 76 24 134 90 63z m-600 -115 l21 -35 -26 -54 c-14 -30 -27 -55 -28 -55 -2
0 -3 28 -3 63 -1 38 -7 74 -18 93 -13 26 -14 37 -4 63 l12 31 12 -36 c7 -20
22 -52 34 -70z m-106 14 c7 -18 16 -50 20 -71 7 -33 4 -42 -20 -67 -31 -32
-92 -57 -105 -44 -16 18 -30 77 -23 102 10 41 44 93 67 102 36 15 47 11 61
-22z m366 -87 c22 -23 29 -39 29 -68 0 -22 -6 -47 -13 -57 -12 -17 -15 -16
-59 7 -30 16 -73 27 -117 32 -74 7 -82 15 -61 55 14 25 45 42 95 51 78 13 95
10 126 -20z m2770 -128 c175 -180 280 -332 287 -418 6 -74 -19 -151 -75 -226
-181 -247 -430 -402 -721 -450 -68 -11 -76 -11 -122 11 -43 20 -47 25 -37 42
7 10 56 48 110 84 104 71 137 106 156 166 7 21 28 52 48 70 41 39 73 105 73
154 0 23 11 50 35 82 88 123 152 338 154 520 1 23 4 42 9 42 4 0 42 -35 83
-77z m-3069 14 c-15 -18 -44 -106 -38 -116 3 -5 6 -53 7 -107 1 -85 -2 -106
-22 -147 -13 -26 -27 -47 -32 -47 -4 0 -20 25 -33 55 -19 40 -26 73 -26 118
-1 85 12 187 23 187 5 0 26 15 45 33 45 40 106 60 76 24z m-247 -83 c-35 -51
-40 -77 -26 -139 11 -48 10 -63 -13 -146 -14 -50 -27 -93 -29 -95 -10 -10 -74
45 -89 76 -28 56 -25 173 7 237 38 75 135 145 163 117 10 -10 7 -20 -13 -50z
m480 40 c63 -43 68 -50 59 -97 -4 -23 -7 -46 -6 -50 2 -5 -1 -7 -5 -5 -83 42
-130 59 -185 68 -61 11 -68 14 -68 36 0 12 5 35 12 49 10 23 16 25 83 25 61 0
78 -4 110 -26z m1920 -10 c33 -7 83 -14 111 -14 65 0 92 -21 100 -75 3 -22 7
-51 10 -65 2 -14 7 -46 10 -73 l6 -47 -48 0 c-74 2 -228 22 -241 32 -6 5 -15
28 -18 51 -4 23 -9 51 -11 62 -3 11 -6 38 -8 60 -3 22 -8 53 -12 69 -6 27 -5
29 17 22 13 -5 51 -14 84 -22z m-2318 -55 c-8 -19 -22 -51 -31 -72 -18 -43
-36 -41 -36 4 0 19 12 42 36 69 20 22 39 39 41 37 2 -3 -3 -20 -10 -38z m2101
-75 c13 -19 43 -49 67 -66 25 -18 45 -40 45 -50 0 -38 94 -71 238 -83 89 -7
103 -3 156 50 24 24 46 33 46 18 -1 -5 -17 -35 -36 -68 -19 -33 -46 -84 -59
-112 -18 -38 -30 -53 -45 -53 -24 0 -106 -31 -179 -68 -76 -38 -169 -133 -205
-210 -16 -34 -33 -62 -37 -62 -4 0 -65 27 -136 61 -70 33 -159 76 -198 94 -38
18 -80 36 -92 39 -46 14 -48 32 -7 88 86 120 391 458 413 458 3 0 16 -16 29
-36z m-1760 -16 c84 -31 88 -38 49 -87 -42 -53 -62 -66 -127 -85 -30 -8 -66
-18 -79 -22 -21 -6 -23 -5 -17 12 4 10 10 34 13 52 3 17 7 32 10 32 2 0 22 -9
43 -19 42 -20 55 -15 62 23 2 15 -7 24 -38 35 -55 21 -74 39 -74 69 0 24 1 24
51 18 28 -4 76 -16 107 -28z m-317 -230 c13 -20 32 -39 41 -41 20 -6 19 -8
-34 -155 l-31 -83 -23 22 c-28 27 -60 100 -69 160 -6 38 -1 66 26 151 l34 105
16 -61 c9 -34 27 -78 40 -98z m6108 -15 c23 -9 23 -10 -19 -46 -64 -54 -172
-85 -255 -73 -25 4 -45 11 -45 15 0 4 15 14 33 23 17 8 57 34 87 57 53 41 57
42 115 37 33 -2 71 -9 84 -13z m-8123 -8 c3 -8 14 -17 24 -20 12 -4 21 -20 25
-47 22 -129 115 -295 238 -424 48 -50 87 -100 87 -111 0 -10 9 -36 19 -56 l19
-38 -46 6 c-211 30 -521 216 -594 358 -16 33 -17 44 -8 73 14 42 92 148 164
222 54 55 63 60 72 37z m1072 -2 c11 -21 -7 -115 -36 -188 -18 -46 -23 -51
-64 -61 -113 -29 -232 -25 -266 9 -14 15 -13 24 8 104 39 148 31 143 188 142
52 0 96 2 99 5 14 13 63 5 71 -11z m3752 -10 c56 -33 75 -107 46 -177 -20 -49
-33 -52 -50 -12 -15 36 -50 63 -61 47 -3 -5 -1 -12 4 -15 14 -9 24 -108 16
-147 -8 -36 -114 -149 -139 -149 -8 0 -56 -45 -107 -100 -102 -111 -131 -124
-137 -62 -6 65 64 162 170 233 58 39 21 56 -49 22 -78 -37 -156 -137 -177
-228 -10 -40 -24 -55 -52 -55 -42 0 -57 27 -51 91 6 70 38 127 118 212 32 34
59 65 59 69 0 13 -33 -4 -82 -40 -52 -39 -92 -90 -132 -170 -32 -64 -59 -68
-64 -10 -8 90 112 242 243 310 39 20 114 47 168 59 92 22 96 24 72 36 -31 17
-31 24 0 61 43 51 141 63 205 25z m2919 -135 l51 -33 -6 -60 c-6 -62 -32 -177
-57 -255 -32 -98 -88 -242 -112 -291 -30 -58 -101 -139 -122 -139 -20 0 -65
33 -135 97 -92 84 -116 76 -169 -60 -33 -82 -44 -97 -74 -97 -46 0 -199 183
-163 194 7 3 31 10 53 16 22 7 75 30 117 51 l77 38 30 -29 c16 -17 38 -30 48
-30 31 0 81 37 117 87 65 88 168 311 220 475 19 61 24 68 47 68 15 0 50 -15
78 -32z m-5845 -77 c11 -24 31 -48 43 -54 13 -6 23 -13 23 -17 0 -16 -70 -21
-98 -8 -23 11 -27 20 -30 64 -2 28 2 63 9 80 l11 29 11 -25 c5 -14 20 -45 31
-69z m-528 -74 c52 -49 94 -93 94 -97 0 -4 -13 -13 -30 -18 -16 -6 -63 -31
-105 -57 -89 -53 -128 -64 -153 -42 -22 19 -170 94 -205 102 -14 4 -32 17 -40
28 -8 12 -25 32 -37 45 -12 13 -20 25 -19 26 2 2 36 8 74 14 61 10 74 16 100
46 17 18 39 37 50 40 11 3 34 17 50 30 l30 24 49 -26 c27 -15 91 -66 142 -115z
m6659 -10 c141 -71 300 -255 416 -483 62 -122 81 -183 68 -226 -20 -71 -130
-197 -238 -275 -56 -41 -207 -110 -217 -101 -2 2 3 22 11 43 8 22 30 85 50
140 74 208 106 405 70 435 -8 7 -15 10 -15 6 0 -3 -13 -66 -30 -139 -95 -422
-242 -732 -471 -986 -101 -113 -126 -132 -135 -104 -28 86 -104 161 -207 208
-37 17 -67 33 -67 36 0 3 14 24 31 45 50 64 138 211 205 344 84 167 131 295
200 540 42 152 68 227 119 347 9 21 10 33 4 35 -8 3 -8 16 -1 43 6 22 13 68
17 102 l7 62 71 -26 c40 -14 90 -35 112 -46z m-7261 -12 c18 -9 48 -29 67 -45
l34 -29 -35 -1 c-47 0 -131 -44 -184 -97 -52 -51 -80 -115 -74 -172 3 -33 0
-42 -18 -50 -31 -14 -79 23 -104 81 -24 56 -25 69 -5 135 12 40 28 63 75 106
85 80 173 105 244 72z m4772 -56 c101 -69 192 -201 240 -347 57 -173 12 -192
-210 -86 -66 32 -122 59 -124 60 -2 1 6 17 17 35 12 19 21 48 21 64 l-1 30
-21 -30 c-12 -16 -50 -59 -85 -95 l-63 -65 0 51 c0 68 -26 150 -63 202 l-31
43 40 32 c21 17 67 58 102 90 60 55 66 59 100 52 19 -4 55 -20 78 -36z m-4605
-80 c75 -24 153 -66 226 -120 44 -33 60 -54 98 -132 58 -121 58 -164 -2 -182
-18 -5 -23 -2 -23 13 0 39 -70 159 -120 206 -46 43 -80 59 -80 37 0 -5 18 -31
39 -59 103 -129 130 -256 62 -280 -39 -14 -76 13 -85 61 -9 48 -59 119 -119
169 -59 50 -58 37 7 -61 70 -105 86 -192 38 -199 -17 -3 -41 14 -95 65 -40 38
-110 96 -156 129 -116 82 -133 126 -86 220 27 54 101 118 163 140 50 18 59 17
133 -7z m545 -61 c17 -18 37 -44 46 -57 l15 -25 -116 -38 c-64 -21 -117 -34
-119 -30 -1 4 -15 27 -30 51 l-28 45 85 42 c47 24 93 43 102 43 8 1 29 -14 45
-31z m5932 -29 c-37 -66 -97 -129 -123 -129 -28 0 -41 27 -17 35 9 3 46 34 82
69 36 35 69 64 73 65 4 0 -3 -17 -15 -40z m-7470 -38 c31 -21 82 -51 113 -67
59 -31 69 -54 37 -91 -44 -53 -62 -165 -44 -271 l8 -44 -28 18 c-71 45 -122
96 -142 142 -12 27 -28 55 -37 62 -35 29 -7 -109 30 -150 16 -17 15 -19 -7
-31 -13 -6 -62 -49 -110 -95 -138 -133 -188 -126 -188 26 0 137 137 439 234
515 43 34 68 31 134 -14z m5255 -8 c36 -39 60 -99 60 -158 1 -51 -14 -88 -55
-138 -27 -33 -15 -35 -177 40 -51 23 -95 43 -98 43 -12 0 -183 84 -183 90 0 3
28 12 63 18 98 19 217 59 282 96 33 19 65 35 71 35 5 1 22 -11 37 -26z m-4937
-139 c30 -8 96 -19 147 -24 51 -4 108 -12 128 -18 36 -9 168 -82 169 -92 0 -4
-57 -26 -127 -49 -71 -24 -141 -50 -158 -57 -100 -42 -251 -96 -273 -97 -24
-2 -28 3 -38 48 -17 72 -16 143 2 192 15 40 34 57 34 32 0 -24 114 -168 125
-157 6 6 -43 135 -75 198 -24 47 -25 54 -5 46 9 -3 41 -13 71 -22z m6492 -75
l138 -1 24 -45 c55 -104 178 -203 233 -189 23 5 77 85 111 164 11 23 22 42 25
42 4 0 25 -18 46 -41 51 -52 119 -98 157 -106 24 -5 37 2 80 38 35 29 49 37
44 24 -4 -11 -18 -54 -31 -95 -51 -164 -113 -307 -136 -315 -9 -3 -29 1 -45
10 -16 8 -32 15 -36 15 -7 0 -43 24 -118 78 -25 18 -93 78 -152 133 -58 54
-111 99 -117 99 -6 0 -16 -10 -22 -22 -18 -35 -159 -195 -241 -274 -123 -119
-293 -256 -301 -243 -44 70 -85 122 -115 145 -52 41 -136 94 -150 94 -26 0 -7
23 86 103 54 47 120 109 146 138 71 78 186 235 186 253 0 12 5 14 25 6 14 -5
87 -10 163 -11z m-6769 -277 l33 -28 -83 -31 c-99 -36 -179 -63 -191 -63 -4 0
33 38 83 85 99 92 94 91 158 37z m7088 -72 c37 -36 85 -79 105 -97 l36 -31
-66 -46 c-153 -105 -183 -128 -198 -157 -12 -24 -13 -33 -3 -45 10 -12 8 -18
-12 -31 -13 -9 -47 -40 -76 -69 l-51 -54 -131 65 c-73 36 -138 65 -146 65 -27
0 -15 15 72 85 102 83 279 258 336 333 22 29 46 52 53 50 7 -2 44 -32 81 -68z
m1619 -220 c44 -116 54 -211 28 -266 -63 -132 -319 -263 -569 -290 -73 -7
-277 22 -347 51 l-26 10 45 60 c24 33 65 93 90 133 l46 72 64 0 c78 0 154 25
295 97 116 60 217 148 273 236 l30 46 19 -30 c10 -16 34 -70 52 -119z m-1926
80 c0 -5 -2 -10 -4 -10 -3 0 -8 5 -11 10 -3 6 -1 10 4 10 6 0 11 -4 11 -10z
m-599 -78 c31 -17 80 -55 109 -84 81 -80 97 -136 61 -221 -29 -66 -121 -102
-121 -46 0 68 -97 181 -193 225 -47 21 -76 27 -119 27 -32 -1 -58 3 -58 8 0
18 54 79 88 100 70 45 145 42 233 -9z m1152 -44 l39 -77 -35 -58 c-20 -32 -45
-64 -57 -71 -18 -11 -24 -9 -46 17 -32 39 -137 91 -183 91 l-36 0 26 25 c43
44 213 153 234 152 14 -2 31 -24 58 -79z m102 3 c-8 -26 -21 -27 -28 -2 -3 13
1 21 12 24 22 5 24 2 16 -22z m-1399 -152 c31 -19 75 -56 96 -84 39 -49 40
-50 33 -110 -13 -122 -23 -174 -59 -308 -38 -143 -73 -184 -133 -155 -32 15
-32 28 -2 147 43 167 18 164 -158 -16 -73 -76 -140 -150 -149 -165 -8 -16 -21
-28 -30 -28 -19 0 -64 44 -64 64 0 36 102 214 155 269 30 31 53 57 50 57 -19
0 -89 -46 -129 -85 -44 -42 -115 -170 -116 -207 -1 -7 -7 -24 -15 -38 l-14
-25 -16 39 c-10 24 -14 52 -11 70 13 66 71 168 166 289 34 43 1 34 -55 -15
-57 -50 -135 -167 -142 -214 -3 -19 -10 -34 -16 -34 -20 0 0 118 31 185 45 96
104 150 327 299 47 31 86 65 93 81 12 25 16 27 57 22 26 -2 69 -19 101 -38z
m1090 -38 c21 -11 58 -38 82 -61 l43 -42 -22 -24 c-12 -13 -33 -24 -45 -24
-13 0 -47 -9 -75 -21 l-52 -20 -90 43 -91 44 45 45 c79 78 134 94 205 60z
m116 -215 c209 -64 311 -198 249 -331 -29 -62 -86 -122 -121 -127 -16 -3 -30
-4 -30 -2 0 1 7 15 15 30 17 33 20 100 5 109 -5 3 -17 22 -26 41 -9 19 -31 46
-49 60 -53 40 -154 76 -217 78 -32 0 -58 3 -58 6 0 3 9 19 19 37 21 34 88 84
136 101 17 6 30 11 30 11 0 0 21 -6 47 -13z m1447 -94 c18 -37 36 -74 40 -83
21 -38 53 -197 55 -272 3 -148 -43 -242 -109 -217 -32 12 -109 83 -135 125
-20 32 -20 32 0 72 22 47 41 123 33 136 -3 4 -25 -27 -50 -71 -48 -86 -78
-122 -134 -165 -53 -40 -60 -35 -39 27 22 62 27 173 11 233 -11 40 -10 45 31
119 40 71 73 103 110 105 7 0 40 18 73 38 38 24 64 35 71 30 6 -5 26 -40 43
-77z m-789 -52 c146 -33 327 -31 441 5 31 10 22 -10 -43 -97 -133 -176 -195
-268 -181 -268 15 0 97 76 135 126 24 29 46 54 50 54 15 0 20 -74 10 -137 -11
-64 -63 -193 -79 -193 -4 0 -22 9 -39 19 -53 32 -376 206 -512 275 -26 13 -31
20 -22 30 16 20 100 193 100 207 0 7 9 9 23 6 12 -3 65 -15 117 -27z m-1496 6
c39 -16 76 -60 76 -91 0 -24 -54 -79 -89 -90 -14 -4 -30 1 -47 14 -35 27 -119
54 -155 49 -26 -4 -29 -2 -28 21 3 81 39 109 142 110 37 1 82 -5 101 -13z
m1240 -109 c-35 -62 -39 -65 -61 -54 -24 11 -24 11 34 68 32 31 59 56 61 54 2
-2 -13 -32 -34 -68z m-528 42 c115 -35 194 -101 194 -160 0 -61 -95 -180 -230
-288 -48 -39 -120 -143 -120 -175 -1 -41 -37 -103 -64 -110 -53 -13 -87 26
-89 104 -1 36 7 65 38 126 45 91 66 144 55 144 -4 0 -28 -27 -54 -59 -61 -79
-100 -180 -92 -242 l6 -45 -37 -2 c-53 -3 -89 32 -99 94 -11 76 11 129 113
262 65 85 34 85 -52 -1 -79 -80 -112 -140 -114 -215 -1 -34 -40 -25 -67 15
-27 41 -22 99 15 167 61 114 171 206 384 321 27 14 62 39 79 55 37 36 46 36
134 9z m-1199 -46 c-3 -5 -10 -27 -16 -50 -12 -44 -36 -58 -48 -27 -3 9 7 28
28 50 31 32 46 43 36 27z m349 -74 c83 -26 90 -19 -131 -130 -156 -78 -163
-80 -191 -67 -16 8 -68 28 -116 44 -49 16 -88 33 -88 37 0 5 13 22 29 37 l29
29 43 -16 c24 -9 57 -28 72 -42 24 -22 37 -26 93 -26 58 0 66 3 89 29 13 15
31 50 40 77 20 58 28 60 131 28z m-1321 -69 c28 -23 16 -55 -40 -114 -30 -31
-55 -66 -55 -77 0 -11 -7 -22 -16 -26 -30 -11 -67 11 -101 61 -45 66 -43 111
6 140 73 42 166 49 206 16z m629 -105 c22 -17 63 -19 99 -6 16 6 43 4 88 -9
73 -20 139 -46 139 -55 0 -3 -57 -33 -126 -66 l-127 -60 -86 34 c-47 19 -112
41 -143 48 -32 8 -58 16 -58 20 0 5 178 107 190 108 3 0 14 -6 24 -14z m-856
-114 c42 -43 67 -60 93 -65 l37 -6 -20 -38 c-23 -43 -20 -128 6 -167 9 -14 16
-26 16 -29 0 -2 -26 6 -57 17 -41 16 -73 38 -111 77 -68 70 -80 94 -83 161 -2
57 3 82 29 138 l16 35 8 -33 c5 -18 34 -57 66 -90z m2527 -3 c-4 -13 -15 -34
-24 -48 -20 -28 -171 -125 -171 -109 0 17 173 177 193 179 5 0 5 -10 2 -22z
m-1845 -51 c52 -14 115 -34 140 -45 l45 -19 -129 -63 -130 -62 -70 38 c-107
57 -139 75 -161 90 -20 14 -20 14 0 20 11 3 56 20 100 39 44 18 87 32 95 31 8
-2 58 -15 110 -29z m-367 -81 c5 -12 147 -101 192 -119 20 -8 20 -9 0 -23 -34
-25 -87 -37 -185 -40 -78 -3 -98 0 -114 14 -29 26 -56 92 -56 140 l0 42 79 0
c57 0 80 -4 84 -14z m1469 -85 l37 -24 -23 -46 c-35 -69 -52 -84 -151 -136
-49 -27 -105 -56 -122 -66 -18 -10 -33 -16 -33 -14 0 3 13 31 28 63 16 31 48
107 71 167 38 98 47 113 79 132 l37 21 20 -37 c11 -20 37 -47 57 -60z m-247
-61 c-32 -83 -88 -191 -131 -252 -23 -34 -56 -58 -135 -103 -57 -32 -123 -71
-146 -86 l-43 -28 42 82 c23 45 60 129 83 187 l43 105 73 39 c41 22 110 61
154 86 44 26 82 45 84 44 2 -2 -9 -35 -24 -74z m332 -37 c-34 -19 -39 -15 -22
18 16 29 17 30 30 12 12 -16 11 -20 -8 -30z m-776 -287 c-85 -174 -92 -185
-133 -206 -45 -23 -102 -55 -207 -114 -35 -20 -66 -35 -68 -32 -2 2 14 39 35
82 50 100 66 135 92 206 23 62 33 72 145 133 39 21 104 60 145 86 41 27 76 44
78 39 2 -5 -37 -92 -87 -194z m-356 -111 c-67 -150 -143 -282 -186 -322 -25
-22 -251 -153 -257 -148 -2 2 3 14 12 27 19 29 106 266 106 289 0 16 31 37
255 167 39 22 75 41 82 41 8 1 3 -19 -12 -54z m-426 -287 c-76 -222 -143 -292
-211 -220 -39 40 -50 76 -38 123 13 46 49 75 177 146 46 24 86 50 90 56 5 8 8
8 10 0 3 -7 -10 -54 -28 -105z"/>
<path d="M5224 7980 c-28 -11 -39 -29 -26 -42 5 -5 39 -10 75 -11 56 -2 71 -7
113 -36 27 -19 55 -41 62 -49 30 -37 8 8 -26 53 -56 75 -137 110 -198 85z"/>
<path d="M4632 7718 c-88 -19 -136 -105 -134 -240 1 -53 28 -165 38 -156 2 2
0 27 -5 54 -22 142 32 262 125 280 118 22 203 -94 207 -281 3 -108 22 -64 22
50 0 95 -2 109 -27 166 -22 49 -46 76 -93 104 -52 29 -80 34 -133 23z"/>
<path d="M5225 7684 c-73 -40 -106 -97 -119 -206 -7 -56 10 -46 28 16 27 93
89 146 171 146 64 0 139 -58 169 -132 18 -43 22 -169 6 -198 -8 -15 -7 -18 3
-14 24 9 40 56 42 120 1 53 5 66 33 100 19 23 32 50 32 66 0 36 -7 35 -42 -4
l-28 -33 -17 22 c-10 12 -26 33 -36 47 -46 65 -180 104 -242 70z"/>
<path d="M6230 7625 c-92 -50 -163 -124 -215 -226 -20 -39 -66 -172 -60 -177
5 -5 53 71 74 117 l16 36 3 -45 c4 -55 -13 -125 -39 -162 -17 -23 -18 -28 -5
-28 24 0 65 51 77 95 7 23 8 63 4 95 -13 99 -13 99 68 175 42 38 94 85 116
104 38 31 51 51 34 51 -5 0 -37 -16 -73 -35z"/>
<path d="M4676 7429 c-21 -25 -26 -41 -26 -85 0 -110 61 -155 130 -97 32 27
32 27 28 102 -4 62 -9 78 -28 93 -34 28 -74 23 -104 -13z"/>
<path d="M5196 7408 c-49 -70 11 -238 85 -238 53 0 78 56 64 147 -13 90 -109
148 -149 91z"/>
<path d="M4931 7299 c-2 -28 -40 -52 -98 -60 -73 -10 -104 -39 -105 -97 -1
-53 28 -102 72 -124 48 -25 124 -23 166 3 38 23 46 44 12 33 -31 -9 -136 -6
-157 6 -10 5 -24 22 -30 39 -19 44 -2 65 63 80 30 7 59 17 64 24 18 23 29 72
21 92 -5 15 -8 16 -8 4z"/>
<path d="M5198 7001 c-88 -66 -131 -87 -206 -101 -47 -10 -69 -10 -87 -2 -28
13 -51 7 -59 -13 -5 -15 29 -45 51 -45 6 0 21 -14 33 -30 24 -34 96 -74 152
-84 56 -10 114 11 152 56 53 62 85 136 88 203 l3 60 -30 3 c-23 2 -46 -10 -97
-47z m61 -63 c-14 -50 -71 -126 -103 -140 -17 -7 -41 -11 -54 -10 -36 3 -114
40 -108 51 4 5 30 15 59 21 32 6 81 29 127 60 41 27 78 49 82 49 4 1 2 -13 -3
-31z"/>
<path d="M2842 7749 c-23 -12 -51 -33 -63 -47 -17 -22 -18 -28 -6 -40 13 -12
19 -12 45 2 16 8 49 20 73 25 45 10 54 7 182 -57 15 -8 6 16 -24 62 -52 78
-122 97 -207 55z"/>
<path d="M2161 7710 c-29 -16 -60 -35 -68 -41 -20 -17 -85 -129 -81 -141 2 -5
28 13 58 41 30 27 79 62 108 77 47 24 60 26 128 22 62 -4 76 -2 83 11 9 18 3
42 -13 53 -6 4 -45 8 -86 8 -64 0 -83 -5 -129 -30z"/>
<path d="M2812 7474 c-90 -45 -132 -134 -132 -279 0 -84 12 -139 37 -165 12
-13 12 -10 2 18 -18 53 -7 197 21 262 29 68 45 87 92 111 69 35 153 16 193
-45 25 -38 38 -142 26 -216 -6 -35 -9 -66 -7 -68 11 -10 38 108 39 171 3 149
-51 227 -161 235 -47 3 -67 -2 -110 -24z"/>
<path d="M2207 7449 c-115 -28 -190 -107 -216 -227 -23 -112 -5 -208 49 -257
18 -16 18 -15 -2 36 -27 73 -22 184 13 254 44 91 143 143 242 130 41 -6 58
-15 92 -50 35 -34 45 -54 55 -101 7 -32 10 -82 7 -111 -7 -63 5 -62 23 2 23
83 -4 208 -58 265 -24 25 -92 57 -132 63 -19 3 -52 1 -73 -4z"/>
<path d="M1000 7257 c8 -8 47 -31 85 -52 39 -20 77 -43 86 -51 8 -8 20 -14 25
-14 5 -1 24 -14 42 -29 l33 -29 -32 -45 c-47 -68 -46 -119 4 -181 39 -46 120
-103 88 -60 -8 10 -28 33 -43 50 -38 41 -46 93 -23 144 10 22 21 40 26 40 4 0
26 -24 49 -52 23 -29 55 -64 72 -77 l31 -24 -13 24 c-90 175 -174 272 -282
327 -71 36 -175 56 -148 29z"/>
<path d="M2843 7145 c-45 -19 -66 -57 -67 -121 l-1 -54 -37 0 c-36 0 -78 29
-78 54 0 6 -5 5 -11 -1 -19 -19 8 -69 46 -87 18 -9 47 -16 64 -16 18 0 49 -9
69 -19 109 -56 84 -188 -42 -222 -40 -11 -143 -7 -179 6 -29 12 -19 -10 15
-30 21 -12 58 -20 108 -23 91 -5 117 5 178 72 35 38 42 52 42 86 0 48 -13 77
-46 106 l-25 20 36 38 c31 34 35 43 35 92 0 48 -4 60 -29 85 -33 33 -35 33
-78 14z"/>
<path d="M2245 7086 c-77 -82 -41 -218 54 -202 61 10 101 67 101 144 0 58 -30
92 -82 92 -33 0 -46 -6 -73 -34z"/>
<path d="M2138 6664 c-47 -25 -63 -79 -20 -67 13 3 18 -2 19 -19 6 -86 33
-146 90 -199 68 -63 91 -74 168 -74 63 0 75 3 118 34 27 18 58 49 70 67 13 19
36 39 55 45 17 6 37 19 42 29 15 28 -11 37 -101 37 -130 1 -296 61 -363 132
-33 35 -40 36 -78 15z m104 -117 c64 -41 123 -61 223 -78 41 -7 75 -16 75 -20
0 -14 -45 -56 -77 -73 -96 -49 -230 30 -268 159 -8 25 -12 45 -10 45 3 0 28
-15 57 -33z"/>
<path d="M7675 6036 c-58 -22 -105 -82 -77 -100 4 -2 39 9 77 25 88 38 146 35
249 -15 39 -19 73 -33 75 -31 8 8 -62 85 -96 106 -46 29 -168 37 -228 15z"/>
<path d="M7071 5902 c-45 -22 -89 -78 -97 -122 l-7 -35 39 36 c79 73 123 85
197 54 20 -8 43 -15 52 -15 22 0 18 33 -7 58 -48 44 -119 54 -177 24z"/>
<path d="M9002 5850 c-70 -47 -176 -157 -215 -222 -28 -47 -57 -150 -57 -202
0 -38 6 -30 45 55 43 93 51 101 76 70 34 -42 21 -122 -35 -205 l-19 -28 21 11
c30 16 81 81 91 116 13 46 4 103 -25 158 l-26 50 116 115 c64 63 116 116 116
118 0 13 -36 -2 -88 -36z"/>
<path d="M7736 5769 c-116 -28 -173 -149 -146 -306 10 -62 47 -159 56 -150 2
2 -3 26 -11 54 -44 149 -13 282 77 329 33 17 127 18 181 2 40 -12 100 -63 129
-109 44 -71 60 -198 33 -274 l-14 -40 19 25 c23 28 50 111 50 149 0 34 -23
118 -44 162 -53 112 -211 188 -330 158z"/>
<path d="M7196 5659 c-113 -18 -164 -135 -116 -273 24 -71 80 -176 93 -176 6
0 6 4 -1 13 -20 25 -72 196 -72 239 0 34 7 55 29 86 36 48 39 50 82 56 118 14
218 -108 235 -289 11 -105 27 -90 21 20 -6 125 -32 201 -91 260 -53 53 -113
74 -180 64z"/>
<path d="M7745 5405 c-64 -63 -3 -215 86 -215 58 0 84 28 83 87 -1 59 -26 106
-72 133 -44 26 -68 25 -97 -5z"/>
<path d="M7261 5334 c-43 -55 -23 -170 34 -196 22 -10 23 -12 8 -34 -66 -101
-12 -237 113 -284 49 -18 64 -19 111 -10 69 12 116 41 154 93 44 61 36 76 -17
28 -57 -53 -99 -71 -165 -71 -38 0 -64 7 -96 25 -51 31 -73 68 -73 128 0 50
20 75 97 117 54 29 82 63 89 107 8 52 -15 49 -37 -4 -15 -36 -29 -53 -53 -64
l-32 -15 1 77 c0 68 -3 80 -24 103 -33 36 -82 35 -110 0z"/>
<path d="M7986 4912 c-3 -6 -4 -17 -1 -24 8 -20 -84 -104 -139 -128 -40 -17
-89 -28 -198 -45 -92 -14 6 -42 113 -32 76 7 159 48 220 110 27 27 49 54 49
60 0 5 13 7 29 4 42 -9 61 16 29 37 -30 19 -94 31 -102 18z"/>
<path d="M5325 5539 c10 -82 13 -88 53 -98 53 -14 127 -17 127 -6 0 6 -6 38
-14 72 -13 61 -14 62 -52 67 -22 3 -57 9 -80 12 l-41 6 7 -53z"/>
<path d="M1933 5183 l-92 -4 -10 -32 c-5 -18 -13 -48 -16 -69 -8 -43 4 -50 80
-43 90 8 106 15 120 48 17 42 28 108 18 105 -4 -1 -49 -4 -100 -5z"/>
<path d="M3924 4806 c-72 -24 -146 -49 -165 -54 -77 -24 -659 -225 -849 -295
-113 -41 -245 -88 -295 -105 -49 -17 -128 -45 -175 -62 -47 -18 -116 -42 -155
-55 -38 -13 -135 -47 -215 -75 -80 -28 -235 -82 -345 -120 -661 -228 -720
-251 -816 -326 -69 -55 -91 -84 -114 -153 -40 -123 -1 -268 97 -356 53 -47
180 -115 216 -115 11 0 23 -4 26 -9 3 -5 16 -11 28 -14 128 -31 176 -38 258
-39 120 -1 162 6 279 44 114 36 160 65 190 119 50 88 20 184 -69 224 -44 20
-47 19 -220 -21 -133 -30 -245 -29 -340 4 -56 20 -120 53 -120 62 0 13 63 40
280 116 129 45 280 98 335 119 55 20 168 61 250 90 83 30 193 70 245 89 228
83 328 119 365 131 43 13 375 133 515 185 185 68 519 183 825 283 151 49 205
62 303 72 113 11 168 36 199 91 31 54 30 104 -3 144 -48 56 -74 63 -244 67
l-155 3 -131 -44z m269 -77 c-26 -35 -56 -82 -66 -105 -18 -39 -22 -41 -110
-68 -51 -16 -119 -39 -152 -53 -33 -13 -67 -27 -75 -30 -10 -4 -8 2 6 18 11
13 48 69 82 125 70 114 81 126 137 148 32 13 211 37 223 30 2 -1 -19 -30 -45
-65z m181 37 c55 -23 61 -89 11 -122 -28 -18 -132 -43 -182 -44 l-32 0 23 40
c12 22 40 62 62 89 43 55 62 61 118 37z m-538 -115 c-93 -137 -136 -189 -164
-200 -34 -13 -275 -101 -278 -101 -4 0 80 142 120 203 20 32 47 62 59 68 29
12 300 107 310 108 4 1 -17 -34 -47 -78z m-366 -68 c0 -3 -11 -20 -24 -37 -12
-17 -47 -73 -75 -124 -34 -59 -62 -97 -79 -106 -43 -22 -302 -109 -307 -104
-3 3 18 47 46 99 88 163 73 149 211 198 68 23 143 51 168 61 51 21 60 23 60
13z m-437 -165 c-11 -13 -28 -41 -39 -63 -10 -22 -39 -73 -64 -113 l-45 -72
-130 -51 c-71 -27 -140 -54 -153 -59 -41 -17 -43 -11 -9 33 17 23 52 83 76
134 50 104 26 88 256 172 130 47 135 48 108 19z m-410 -165 c-55 -121 -146
-234 -205 -256 -24 -8 -92 -33 -153 -55 -60 -22 -118 -43 -128 -47 -16 -7 -15
-3 5 27 13 18 46 78 73 132 28 54 59 105 70 112 21 14 322 122 342 123 9 1 8
-10 -4 -36z m-465 -193 c-23 -45 -67 -110 -96 -145 -45 -55 -61 -67 -120 -89
-121 -45 -234 -86 -237 -86 -2 0 16 28 39 63 23 34 59 97 81 140 22 44 48 83
58 88 9 6 77 30 150 56 72 25 139 49 147 53 8 5 16 7 18 5 2 -2 -16 -40 -40
-85z m-370 -82 c-8 -13 -28 -45 -43 -73 -32 -56 -111 -159 -147 -191 -19 -18
-205 -94 -229 -94 -9 0 20 68 81 196 l39 80 68 24 c37 13 102 36 143 51 96 35
107 36 88 7z m-392 -150 c-7 -18 -36 -78 -62 -133 -49 -100 -49 -100 -104
-122 -101 -40 -105 -40 -118 4 -20 67 -26 169 -10 179 18 11 280 103 296 103
10 1 9 -6 -2 -31z m-354 -141 c-3 -38 10 -103 32 -157 5 -12 -4 -15 -50 -13
-40 1 -65 -4 -90 -19 -36 -21 -74 -82 -74 -118 0 -35 -17 -13 -24 31 -18 112
27 206 132 277 35 23 67 42 70 42 4 0 6 -20 4 -43z m48 -232 c0 -8 17 -28 39
-45 l38 -31 -13 -39 c-21 -61 0 -162 42 -205 9 -9 15 -18 12 -20 -6 -7 -136
43 -199 77 -87 47 -94 58 -94 140 0 68 1 71 37 104 32 29 45 34 88 34 37 0 50
-4 50 -15z m30 1 c0 -3 -4 -8 -10 -11 -5 -3 -10 -1 -10 4 0 6 5 11 10 11 6 0
10 -2 10 -4z m667 -98 c51 -22 63 -38 63 -85 0 -35 -6 -49 -26 -68 -47 -43
-81 -33 -217 63 -80 56 -86 71 -27 72 14 1 48 7 75 15 63 17 97 18 132 3z
m-407 -34 c66 -5 79 -10 110 -39 40 -36 130 -97 187 -125 l38 -18 -30 -12
c-130 -51 -347 -56 -403 -10 -37 31 -82 129 -82 181 0 25 3 48 6 52 3 3 27 -1
52 -8 26 -8 81 -17 122 -21z"/>
<path d="M4600 4585 c-70 -21 -350 -118 -575 -198 -55 -20 -170 -60 -255 -91
-85 -30 -186 -66 -225 -81 -38 -15 -149 -55 -245 -90 -96 -35 -229 -85 -295
-110 -66 -26 -156 -60 -200 -75 -103 -36 -270 -100 -365 -140 -41 -17 -95 -38
-120 -46 -68 -24 -201 -80 -248 -104 -109 -57 -108 -231 1 -281 82 -37 203
-18 407 63 41 16 91 36 110 43 19 7 121 47 225 89 105 41 309 122 455 180 471
186 864 336 1050 402 36 12 124 43 195 68 271 94 379 135 404 154 34 24 61 78
61 121 0 42 -50 94 -105 110 -67 18 -191 12 -275 -14z m282 -51 c32 -17 45
-53 28 -83 -11 -21 -30 -29 -30 -12 0 16 -94 68 -156 88 l-59 18 60 6 c72 7
120 2 157 -17z m-164 -72 c76 -31 127 -60 119 -68 -8 -8 -234 -83 -270 -89
-25 -5 -43 -1 -71 16 -44 26 -187 69 -230 69 -51 0 -18 17 124 65 160 53 211
54 328 7z m-481 -126 c99 -12 230 -57 218 -76 -3 -4 -62 -27 -133 -50 -70 -22
-144 -48 -164 -57 -36 -15 -40 -15 -97 11 -93 42 -197 73 -251 76 -28 1 -31 0
163 67 112 39 145 43 264 29z m-387 -163 c85 -22 180 -56 180 -64 0 -6 -47
-25 -244 -97 -60 -22 -72 -24 -100 -13 -43 18 -223 68 -268 76 -45 7 -49 21
-10 28 15 2 83 25 152 51 136 50 168 52 290 19z m365 -33 c-3 -5 -12 -10 -18
-10 -7 0 -6 4 3 10 19 12 23 12 15 0z m-760 -129 c50 -11 112 -28 139 -39 54
-21 57 -18 -54 -57 -36 -12 -102 -37 -147 -55 l-82 -32 -84 30 c-46 17 -132
38 -191 48 -58 9 -105 18 -104 20 2 1 52 19 111 39 60 20 123 43 140 50 45 20
167 18 272 -4z m-415 -166 c98 -21 180 -47 180 -57 0 -4 -6 -8 -12 -8 -7 0
-85 -28 -172 -61 -146 -57 -163 -61 -190 -50 -17 7 -38 14 -46 16 -8 2 -27 8
-43 14 -43 17 -179 50 -215 53 -44 3 -40 11 16 30 26 9 88 33 137 52 84 33 96
35 180 31 50 -3 124 -12 165 -20z m-510 -150 c14 -3 47 -10 74 -15 54 -11 186
-49 186 -54 0 -3 -77 -35 -206 -86 l-82 -31 -133 44 c-74 25 -151 47 -172 50
-21 3 -41 7 -43 10 -3 3 41 23 98 45 57 22 110 42 118 46 16 6 120 1 160 -9z
m-293 -161 c32 -8 82 -24 112 -36 l53 -21 -28 -15 c-40 -21 -160 -52 -202 -52
-34 0 -97 24 -108 42 -14 23 -20 65 -12 87 8 22 11 23 68 17 33 -4 85 -14 117
-22z"/>
<path d="M5091 4323 c-46 -13 -96 -30 -113 -39 -17 -9 -60 -27 -97 -40 -36
-14 -79 -31 -96 -38 -16 -8 -129 -53 -250 -101 -121 -48 -269 -106 -330 -130
-60 -24 -141 -56 -180 -70 -38 -14 -97 -36 -130 -49 -84 -32 -484 -195 -520
-212 -16 -7 -64 -26 -105 -43 -98 -38 -331 -134 -500 -206 -584 -246 -637
-274 -708 -364 -84 -106 -98 -253 -35 -372 139 -267 633 -383 978 -231 33 14
62 29 65 32 3 3 24 20 47 38 41 32 55 60 67 132 8 47 -28 109 -74 132 -49 24
-99 22 -219 -8 -144 -35 -252 -36 -376 -3 -50 14 -115 47 -115 59 0 12 44 42
100 68 118 55 214 97 310 137 466 192 648 266 800 327 96 38 240 97 320 130
202 84 562 235 640 268 36 15 110 46 165 69 55 23 109 46 120 51 73 35 388
156 495 190 92 29 134 67 145 128 12 71 -44 137 -137 163 -61 16 -177 9 -267
-18z m264 -46 c50 -20 74 -42 81 -75 5 -25 1 -35 -20 -55 -43 -40 -74 -40
-108 -1 -31 35 -128 87 -185 99 -50 10 -40 21 30 32 85 14 166 14 202 0z
m-280 -87 c60 -13 107 -35 159 -72 l38 -28 -26 -10 c-15 -5 -31 -10 -35 -10
-5 0 -57 -21 -117 -46 l-109 -45 -60 29 c-54 27 -127 48 -240 70 l-40 8 45 18
c25 10 92 38 150 62 111 45 132 47 235 24z m-383 -176 c48 -7 115 -24 150 -37
l63 -24 -45 -21 c-102 -46 -163 -72 -170 -72 -5 0 -42 -16 -83 -35 l-75 -35
-51 34 c-52 36 -193 76 -265 76 -20 0 -36 3 -36 8 0 4 39 21 88 37 48 16 123
44 167 61 87 35 91 35 257 8z m-410 -188 c105 -27 168 -50 165 -59 -1 -5 -34
-22 -72 -39 -141 -61 -259 -108 -271 -108 -6 0 -36 11 -65 24 -83 36 -204 64
-286 65 -44 1 -57 14 -25 24 9 3 69 24 132 47 63 23 138 47 165 55 60 16 179
12 257 -9z m-455 -191 c89 -16 183 -44 183 -55 0 -4 -60 -30 -132 -60 -73 -29
-151 -61 -173 -70 -63 -27 -68 -28 -99 -13 -44 22 -150 49 -251 63 -49 6 -97
14 -105 17 -8 2 23 20 70 39 47 19 94 39 105 44 97 47 141 58 227 54 47 -2
126 -11 175 -19z m-546 -185 c235 -36 313 -64 232 -85 -16 -3 -41 -13 -58 -20
-40 -18 -275 -109 -305 -117 -8 -3 -35 4 -60 14 -61 26 -199 59 -285 67 l-70
7 40 18 c123 56 324 135 346 135 15 1 86 -8 160 -19z m-451 -204 c47 -8 118
-22 158 -32 89 -21 86 -26 -58 -84 -181 -73 -203 -80 -215 -70 -21 17 -227 71
-296 77 -38 3 -71 9 -74 13 -2 3 22 15 53 25 31 11 93 34 137 52 92 37 157 41
295 19z m-650 -150 c0 -2 -7 -7 -16 -10 -8 -3 -12 -2 -9 4 6 10 25 14 25 6z
m274 -21 c97 -19 184 -44 191 -55 3 -4 -13 -15 -34 -23 -67 -27 -175 -79 -202
-98 -17 -12 -30 -15 -40 -8 -22 14 -83 11 -124 -7 -82 -34 -149 -140 -138
-219 3 -29 3 -29 -13 -10 -63 78 -71 203 -18 293 16 27 52 70 80 94 l52 45 83
2 c46 1 119 -5 163 -14z m-100 -254 c-8 -39 9 -67 57 -92 31 -15 39 -24 34
-37 -14 -35 -13 -52 5 -101 18 -50 46 -97 83 -138 11 -13 19 -25 16 -27 -2 -2
-45 6 -95 19 -206 54 -263 90 -282 177 -9 38 -9 63 -1 91 19 70 98 136 161
137 25 0 27 -3 22 -29z m688 -101 c11 0 36 -16 55 -35 30 -30 35 -40 29 -67
-8 -40 -43 -78 -71 -78 -23 0 -137 65 -200 114 l-39 31 89 21 c50 12 96 20
103 18 8 -2 23 -4 34 -4z m-459 -35 c23 -3 67 -7 99 -9 51 -3 61 -7 109 -49
30 -26 88 -64 131 -84 43 -21 78 -40 78 -43 0 -7 -107 -49 -155 -61 -22 -5
-74 -12 -116 -15 -74 -6 -76 -6 -111 25 -57 49 -128 180 -128 234 0 15 5 18
25 13 14 -4 44 -9 68 -11z"/>
<path d="M5710 4095 c-47 -13 -234 -95 -425 -185 -114 -54 -286 -131 -685
-305 -129 -56 -271 -118 -315 -138 -140 -63 -356 -158 -470 -207 -149 -64
-354 -159 -442 -205 -70 -36 -74 -40 -88 -88 -20 -66 -19 -90 4 -135 30 -59
89 -87 181 -86 62 1 95 8 185 42 122 45 294 114 340 136 17 8 84 39 150 69
233 105 781 359 965 446 102 49 226 107 275 129 50 22 135 61 190 87 55 26
159 72 230 102 170 71 208 94 230 139 31 67 7 133 -68 181 -36 24 -53 28 -127
29 -47 1 -105 -4 -130 -11z m205 -55 c38 -14 75 -59 75 -90 0 -32 -16 -53 -54
-73 -28 -14 -30 -13 -59 20 -34 38 -80 65 -147 84 -61 17 -57 16 -82 18 -21 1
-21 3 -5 12 51 30 222 48 272 29z m-220 -120 c67 -23 145 -66 145 -80 0 -6 -5
-10 -10 -10 -6 0 -64 -23 -130 -52 l-119 -51 -59 26 c-63 29 -210 67 -256 67
-16 0 -26 3 -22 8 4 4 67 33 139 64 124 54 136 57 193 53 33 -3 87 -14 119
-25z m-370 -171 c64 -13 175 -52 175 -61 0 -4 -10 -10 -22 -13 -13 -4 -51 -20
-86 -36 -35 -16 -65 -29 -67 -29 -3 0 -37 -16 -76 -35 l-72 -35 -86 34 c-47
19 -124 42 -170 50 -47 9 -86 18 -88 20 -2 2 9 8 24 14 15 6 73 30 128 53 55
23 114 45 130 49 35 9 137 3 210 -11z m-380 -198 c99 -21 145 -36 145 -48 0
-5 -56 -32 -123 -62 -67 -30 -136 -62 -153 -72 -30 -16 -33 -16 -75 3 -65 30
-186 68 -217 69 -15 0 -45 6 -66 12 l-39 12 139 57 c137 56 140 57 219 53 44
-3 121 -13 170 -24z m-409 -182 c76 -18 154 -45 154 -53 0 -2 -72 -36 -161
-76 -152 -70 -163 -73 -193 -61 -86 35 -274 81 -330 81 -36 0 -27 9 39 37 28
12 77 34 110 49 130 58 214 63 381 23z m-391 -198 c173 -37 175 -30 -37 -126
l-186 -84 -49 23 c-76 37 -215 75 -298 81 -16 2 -32 3 -35 4 -3 1 27 15 65 32
39 16 79 34 90 39 112 55 137 61 250 55 61 -3 151 -14 200 -24z m-570 -166
c95 -18 255 -65 255 -75 0 -17 -257 -113 -334 -124 -125 -19 -218 92 -138 166
55 51 90 57 217 33z"/>
<path d="M6200 3824 c-30 -8 -217 -94 -415 -191 -894 -438 -1088 -532 -1255
-608 -63 -29 -209 -98 -323 -154 -114 -56 -231 -111 -258 -121 -42 -17 -477
-235 -528 -265 -127 -75 -243 -177 -288 -253 -27 -45 -63 -168 -63 -215 0 -59
33 -159 69 -207 62 -83 120 -124 283 -201 9 -5 54 -18 100 -31 66 -18 108 -22
208 -22 138 1 172 5 275 32 124 33 289 127 338 193 32 44 46 126 31 177 -15
53 -37 79 -83 98 -59 25 -111 17 -244 -36 -231 -93 -320 -103 -462 -55 -62 21
-75 32 -75 59 1 49 63 89 367 237 386 188 543 268 829 421 56 30 198 103 315
161 118 58 243 123 279 143 136 77 920 464 1018 503 210 84 237 105 237 185 0
66 -28 106 -92 134 -64 27 -190 35 -263 16z m230 -66 c84 -43 92 -109 18 -151
l-38 -21 -27 25 c-58 53 -146 90 -246 104 -27 4 -46 9 -44 12 3 3 41 16 84 28
105 32 194 32 253 3z m-248 -116 c69 -23 153 -71 141 -82 -4 -4 -39 -20 -78
-35 -38 -15 -101 -43 -138 -62 l-68 -34 -28 20 c-15 11 -39 22 -52 25 -13 2
-60 14 -103 25 -44 12 -100 21 -125 22 -46 1 -46 1 94 69 137 68 142 69 221
70 52 0 100 -6 136 -18z m-406 -192 c32 -6 92 -21 133 -32 l73 -22 -172 -83
c-94 -46 -177 -83 -183 -83 -7 0 -39 11 -72 24 -74 30 -189 56 -244 56 -23 0
-41 3 -41 8 1 4 65 37 143 74 139 66 144 68 223 68 44 0 107 -5 140 -10z
m-395 -216 c52 -9 111 -23 132 -32 l39 -17 -166 -82 -165 -82 -63 29 c-75 35
-148 51 -245 52 -40 0 -73 5 -73 9 0 5 6 9 14 9 8 0 72 29 142 64 126 63 131
65 210 65 44 1 123 -6 175 -15z m-519 -198 c94 -6 236 -29 281 -45 19 -7 -5
-22 -153 -97 -96 -49 -179 -88 -185 -87 -5 1 -35 11 -65 23 -90 35 -160 51
-260 59 l-95 7 80 38 c147 70 260 115 280 111 11 -2 63 -6 117 -9z m-318 -223
c109 -20 180 -43 169 -54 -5 -5 -79 -45 -164 -88 l-155 -79 -39 21 c-67 34
-259 76 -360 78 l-40 1 70 31 c39 18 104 49 145 69 74 37 76 37 189 36 63 -1
147 -8 185 -15z m-404 -209 c79 -14 153 -30 164 -36 18 -10 -2 -22 -159 -99
l-180 -88 -55 19 c-31 10 -67 21 -80 24 -14 2 -32 7 -40 10 -31 11 -98 17
-197 17 -57 0 -103 3 -102 7 0 4 77 44 171 90 l171 82 81 0 c45 0 147 -12 226
-26z m-449 -215 c30 -6 59 -12 64 -13 6 -1 36 -8 68 -16 31 -7 57 -16 57 -20
0 -3 -62 -37 -137 -75 -76 -38 -162 -83 -192 -101 -44 -27 -58 -31 -74 -22
-28 15 -122 11 -155 -6 -56 -29 -120 -105 -144 -171 -18 -53 -24 -61 -33 -47
-5 9 -10 58 -10 107 1 82 4 96 34 155 55 107 149 181 261 206 70 16 192 17
261 3z m-253 -295 c21 -6 22 -10 16 -55 -4 -31 -2 -54 5 -63 9 -11 7 -22 -10
-50 -18 -31 -21 -48 -17 -109 3 -44 13 -89 26 -114 11 -24 16 -43 10 -43 -31
0 -162 74 -208 118 -50 48 -52 52 -49 98 7 130 126 245 227 218z m840 -103
c12 -6 27 -21 33 -32 20 -37 11 -129 -13 -129 -24 0 -259 120 -253 130 3 5 12
10 18 10 7 0 25 7 42 16 63 33 118 34 173 5z m-716 -82 c50 -20 76 -25 125
-28 16 -1 25 -11 34 -38 23 -72 138 -203 178 -203 11 0 12 -3 4 -11 -14 -14
-228 -20 -280 -9 -91 21 -162 163 -133 269 6 22 13 41 15 41 2 0 28 -9 57 -21z
m548 -59 c77 -39 140 -74 140 -79 0 -11 -191 -105 -231 -115 -27 -6 -95 30
-152 83 -39 36 -92 121 -81 130 8 7 91 30 159 44 11 3 21 5 23 6 1 0 65 -31
142 -69z"/>
<path d="M941 2907 c-101 -11 -169 -37 -247 -92 -225 -161 -218 -391 21 -636
69 -71 124 -106 180 -114 59 -9 139 40 167 101 26 60 13 101 -49 151 -52 43
-128 138 -148 186 -13 32 -13 36 8 55 27 25 69 42 106 42 95 0 211 -80 657
-455 65 -55 133 -111 151 -125 18 -14 119 -97 226 -185 368 -304 386 -317 461
-323 107 -9 186 54 186 147 0 74 -16 92 -274 302 -330 267 -703 566 -889 712
-65 50 -131 102 -145 115 -15 13 -68 43 -118 68 -105 51 -178 64 -293 51z m84
-115 c4 -26 13 -67 21 -91 8 -25 14 -45 14 -46 0 -1 -34 -1 -76 1 -66 3 -78 7
-95 28 -30 38 -82 66 -123 66 -20 0 -36 4 -36 9 0 12 108 67 160 79 108 27
126 21 135 -46z m190 12 c27 -14 65 -37 82 -50 33 -25 33 -26 33 -107 -1 -45
3 -106 8 -134 l9 -52 -37 27 c-147 108 -170 129 -185 166 -14 33 -45 163 -45
186 0 13 79 -8 135 -36z m-430 -110 c18 -8 43 -26 56 -40 l23 -24 -32 -33
c-18 -18 -32 -40 -32 -49 0 -11 -6 -15 -19 -11 -10 2 -36 0 -59 -6 -47 -13
-80 -52 -89 -106 -3 -19 -9 -32 -13 -30 -12 7 -32 101 -32 145 1 47 31 119 63
148 28 27 86 29 134 6z m725 -106 l118 -93 -2 -131 -1 -131 -70 58 c-117 96
-132 116 -153 199 -20 73 -29 190 -17 190 4 0 60 -42 125 -92z m-686 -146 c8
-15 33 -49 56 -75 41 -46 42 -49 24 -62 -11 -8 -23 -15 -27 -15 -4 0 -21 -27
-37 -61 l-28 -60 -60 59 c-68 66 -83 103 -70 171 10 53 30 79 67 83 35 5 58
-7 75 -40z m898 -25 c14 -12 61 -48 103 -81 l76 -58 -6 -72 c-3 -39 -2 -100 3
-136 5 -36 9 -66 8 -67 -1 -1 -47 36 -103 82 -93 77 -102 88 -112 132 -12 53
-14 81 -12 166 1 31 4 57 9 57 4 0 19 -10 34 -23z m-714 -206 c3 -25 -3 -38
-28 -61 -59 -55 -129 -32 -107 34 14 42 27 57 62 72 40 17 69 -1 73 -45z
m1091 -96 l101 -80 -7 -60 c-4 -33 -7 -93 -6 -133 0 -65 -1 -71 -16 -60 -9 7
-52 42 -97 79 -71 60 -83 73 -98 122 -9 30 -19 98 -22 152 l-5 97 24 -18 c14
-11 71 -55 126 -99z m236 -190 c39 -30 75 -58 80 -63 6 -4 31 -25 57 -47 l47
-39 -27 -16 c-39 -24 -52 -43 -70 -104 l-17 -56 -66 50 c-74 55 -89 81 -96
161 -6 61 4 169 15 169 4 0 39 -25 77 -55z m252 -227 c11 -12 17 -40 14 -64 0
-6 -13 -23 -28 -38 -22 -23 -34 -26 -72 -24 -46 3 -46 3 -43 37 1 19 11 49 22
66 32 53 76 62 107 23z"/>
<path d="M8553 2560 c-162 -42 -251 -95 -313 -185 -17 -24 -33 -63 -36 -87 -5
-37 -2 -49 24 -84 37 -51 92 -78 140 -71 36 6 64 19 175 82 68 37 160 64 226
65 39 0 138 -50 174 -88 24 -26 24 -29 11 -73 -17 -57 -81 -116 -214 -198 -50
-31 -247 -154 -438 -274 -407 -256 -348 -219 -502 -314 -142 -87 -286 -174
-364 -219 -175 -103 -223 -172 -195 -279 14 -52 86 -124 125 -127 16 0 36 -2
44 -3 31 -3 92 26 207 96 65 39 233 141 373 226 140 84 264 159 275 166 160
99 387 241 450 282 44 28 127 79 185 114 131 78 274 183 323 237 165 183 97
500 -140 657 -78 51 -135 73 -248 93 -112 20 -154 17 -282 -16z m147 -36 c0
-3 -10 -20 -22 -36 -11 -17 -31 -61 -42 -99 -21 -69 -21 -69 -82 -98 l-61 -29
-11 58 c-7 32 -23 74 -37 94 l-25 37 45 19 c80 34 235 70 235 54z m234 -35
c79 -27 123 -51 166 -88 l35 -30 -38 10 c-63 17 -137 -1 -184 -43 -19 -18 -26
-19 -76 -8 -30 7 -80 11 -111 8 -45 -4 -56 -2 -56 10 0 24 48 115 77 146 24
26 30 28 77 22 28 -3 78 -15 110 -27z m-614 -73 c0 -3 -4 -8 -10 -11 -5 -3
-10 -1 -10 4 0 6 5 11 10 11 6 0 10 -2 10 -4z m87 -53 c20 -52 27 -92 24 -131
-2 -20 -69 -44 -102 -37 -39 9 -79 58 -72 87 12 46 90 137 118 138 6 0 20 -26
32 -57z m734 -48 c60 -32 119 -153 119 -246 0 -64 -33 -148 -71 -185 -26 -24
-30 -26 -26 -9 29 103 5 178 -84 258 -32 30 -59 58 -59 63 0 4 -19 28 -42 51
-38 38 -41 45 -27 58 32 32 137 37 190 10z m-35 -304 c21 -44 15 -141 -14
-197 -20 -40 -37 -53 -234 -178 l-57 -36 29 65 c39 88 70 189 75 249 4 42 10
55 50 94 25 25 50 60 57 78 l12 33 32 -37 c18 -20 41 -52 50 -71z m-267 -163
c-28 -103 -100 -246 -153 -305 -29 -32 -85 -74 -156 -116 -60 -36 -110 -63
-110 -61 0 3 18 43 40 90 23 47 55 129 72 183 l31 97 134 84 c74 46 136 87
139 92 3 4 9 8 14 8 5 0 0 -33 -11 -72z m-366 -220 c-34 -87 -48 -118 -104
-234 l-49 -100 -102 -59 c-57 -33 -125 -75 -152 -93 -27 -18 -50 -31 -53 -29
-2 2 17 48 41 103 24 54 54 135 66 179 l23 80 146 90 c80 50 154 98 165 107
40 33 45 20 19 -44z m-419 -280 c-77 -206 -141 -302 -242 -358 -31 -18 -88
-53 -126 -77 -38 -24 -66 -38 -63 -31 3 7 22 49 41 94 20 45 46 120 59 168
l22 87 65 41 c191 122 264 166 271 167 4 1 -8 -41 -27 -91z m-393 -230 c-28
-100 -78 -208 -124 -270 -23 -32 -45 -58 -49 -58 -3 0 -6 22 -6 49 -1 58 -23
115 -60 155 -15 16 -22 30 -17 32 6 3 66 38 135 79 69 41 128 74 132 75 4 0
-1 -28 -11 -62z m-278 -169 c32 -24 50 -79 45 -134 -3 -37 -5 -40 -37 -43 -24
-3 -40 3 -57 19 -56 53 -52 179 6 179 9 0 29 -9 43 -21z"/>
<path d="M4950 2551 c-157 -51 -254 -114 -300 -195 -112 -193 104 -338 282
-189 112 95 213 116 315 69 55 -26 87 -69 81 -109 -6 -40 -109 -113 -488 -345
-58 -35 -177 -109 -265 -165 -88 -55 -245 -154 -350 -220 -296 -186 -322 -204
-350 -241 -71 -93 -22 -226 92 -255 87 -23 124 -5 481 221 130 83 262 166 292
185 30 19 147 91 260 161 459 285 529 332 595 404 78 84 98 132 99 233 0 170
-99 316 -274 401 -159 78 -322 93 -470 45z m303 -41 c18 0 4 -19 -23 -30 -39
-16 -94 -78 -111 -123 -9 -26 -20 -37 -41 -41 -41 -8 -110 -41 -136 -66 -19
-18 -23 -19 -28 -5 -13 33 3 152 26 199 19 37 31 48 59 55 20 5 45 12 56 15
11 2 58 3 105 1 47 -3 88 -5 93 -5z m163 -70 c52 -26 144 -102 144 -119 0 -3
-29 -4 -66 -3 -54 3 -74 -1 -117 -22 l-53 -25 -49 24 c-26 14 -61 25 -77 25
-32 0 -34 9 -14 48 19 37 54 68 96 86 50 22 69 20 136 -14z m-542 -7 c-4 -16
-10 -37 -15 -49 -4 -11 -5 -60 -2 -107 4 -87 4 -87 -22 -97 -38 -15 -97 -12
-121 5 -84 58 -32 183 105 251 59 30 63 29 55 -3z m702 -194 c65 -40 86 -148
45 -233 -12 -23 -38 -62 -59 -86 l-37 -44 -6 54 c-10 85 -32 126 -83 158 -32
19 -45 34 -46 50 0 13 -7 37 -16 53 -14 29 -14 32 3 44 48 37 143 39 199 4z
m-163 -200 c51 -39 65 -155 28 -214 -7 -12 -45 -41 -84 -65 -39 -25 -100 -64
-135 -87 -35 -24 -65 -43 -68 -43 -2 0 6 24 17 53 15 35 23 83 27 150 l5 97
44 38 c51 42 123 92 133 92 4 0 19 -9 33 -21z m-259 -196 c-6 -55 -55 -226
-71 -249 -11 -15 -263 -165 -263 -156 0 4 14 41 30 84 17 43 33 107 36 147 l7
71 125 80 c69 44 130 80 134 80 5 0 6 -26 2 -57z m-318 -184 c-12 -92 -76
-248 -121 -295 -20 -21 -159 -114 -170 -114 -3 0 -23 -11 -43 -25 -39 -27 -61
-33 -44 -12 30 37 92 230 92 288 0 26 9 35 75 77 42 26 104 66 138 89 34 22
66 41 71 42 5 1 6 -22 2 -50z m-343 -201 c-7 -42 -64 -190 -96 -254 -14 -27
-36 -58 -49 -70 -18 -16 -154 -103 -246 -158 -8 -5 -4 10 9 35 25 50 44 126
55 218 l7 63 71 45 c39 24 109 68 156 98 47 29 88 54 92 54 4 1 5 -14 1 -31z
m-380 -235 c-20 -125 -73 -268 -103 -276 -27 -7 -74 20 -93 52 -28 47 -22 95
16 132 28 28 162 117 178 118 3 1 4 -11 2 -26z"/>
<path d="M7575 2137 c-130 -29 -285 -102 -420 -196 -115 -80 -250 -204 -276
-253 -47 -88 48 -207 152 -188 38 7 93 42 303 192 116 84 236 147 300 159 31
5 45 3 63 -11 18 -14 20 -20 10 -29 -8 -6 -19 -29 -26 -51 -16 -55 -1 -106 44
-150 34 -33 40 -35 106 -35 69 0 71 1 108 41 31 33 41 54 56 119 44 199 -30
334 -218 395 -48 15 -150 19 -202 7z m203 -62 c93 -28 170 -126 179 -227 4
-40 2 -58 -6 -58 -6 0 -11 4 -11 9 0 18 -80 48 -120 45 -35 -3 -41 0 -54 25
-18 33 -68 73 -122 96 -59 25 -165 55 -199 55 l-30 1 28 15 c44 24 167 53 228
53 30 1 79 -6 107 -14z m-266 -121 c35 -9 74 -22 87 -29 23 -12 22 -12 -24
-24 -53 -13 -128 -49 -164 -78 -21 -17 -31 -18 -68 -11 -24 6 -91 8 -148 6
-58 -1 -105 0 -105 5 0 4 3 7 8 7 4 0 32 19 62 42 96 73 154 98 225 98 35 0
92 -7 127 -16z m377 -183 c54 -38 48 -117 -11 -142 -67 -28 -157 36 -143 101
11 52 39 73 88 65 23 -4 53 -14 66 -24z m-601 -11 l37 0 -55 -37 c-30 -20 -82
-58 -115 -84 -110 -85 -165 -100 -210 -54 -37 36 -32 62 20 110 35 33 57 45
102 54 62 12 149 19 171 14 8 -2 30 -3 50 -3z"/>
<path d="M1217 1946 c-175 -62 -265 -169 -274 -326 -6 -92 14 -178 56 -247 61
-97 280 -287 407 -351 92 -47 178 -35 226 29 38 51 49 91 36 135 -10 36 -59
94 -80 94 -15 0 -201 126 -253 172 -47 41 -105 129 -105 160 0 29 61 58 122
58 43 0 64 -6 104 -31 43 -28 194 -149 234 -189 78 -77 447 -394 569 -488 212
-164 242 -182 301 -182 97 0 173 91 156 185 -8 42 -19 54 -155 170 -51 44 -99
85 -105 90 -17 16 -178 148 -331 270 -503 403 -527 420 -627 454 -86 29 -192
28 -281 -3z m206 -68 c20 -27 67 -154 67 -182 0 -4 -13 0 -29 9 -36 18 -62 23
-121 24 -43 1 -47 4 -72 46 -15 25 -41 53 -59 64 -19 12 -26 21 -19 26 29 18
110 40 157 43 48 3 53 1 76 -30z m234 -88 l51 -40 7 -87 c7 -87 8 -99 21 -157
7 -28 1 -24 -77 43 -46 41 -88 77 -92 81 -5 4 -19 54 -32 111 -13 57 -27 115
-31 128 -7 23 -6 23 47 -8 30 -17 77 -48 106 -71z m-478 -4 c15 -8 36 -27 45
-42 18 -26 17 -27 -13 -58 -16 -17 -34 -42 -39 -55 -6 -16 -18 -25 -37 -27
-50 -5 -82 -24 -101 -60 -10 -19 -23 -34 -28 -34 -13 0 -1 183 14 210 6 12 27
39 47 60 37 42 41 42 112 6z m612 -92 c7 -9 55 -50 106 -91 51 -41 91 -78 88
-83 -8 -13 -8 -182 0 -225 l8 -40 -49 45 c-28 25 -66 60 -86 77 -42 37 -74
123 -84 222 -3 31 -7 68 -9 84 -5 30 6 35 26 11z m-602 -166 c2 -7 23 -33 47
-58 l42 -45 -21 -30 c-18 -24 -22 -44 -22 -106 0 -90 4 -90 -94 10 -35 36 -70
80 -78 99 -29 70 27 161 92 148 16 -4 32 -12 34 -18z m987 -151 l82 -62 -2
-137 c-1 -89 -4 -134 -11 -129 -38 28 -115 91 -142 116 -52 50 -78 149 -66
262 l6 61 26 -24 c14 -14 63 -53 107 -87z m-834 -5 c2 -5 37 -31 78 -58 41
-26 77 -50 79 -51 3 -2 -7 -16 -21 -31 -34 -36 -47 -62 -52 -107 -3 -20 -6
-39 -8 -41 -2 -2 -27 12 -55 31 -33 22 -55 45 -62 66 -23 66 -7 199 24 199 7
0 15 -4 17 -8z m1077 -194 c24 -17 52 -38 61 -47 9 -9 33 -31 54 -49 l37 -33
-33 -23 c-37 -24 -79 -101 -72 -128 3 -10 3 -18 0 -18 -16 0 -145 116 -150
134 -12 47 -18 152 -11 201 l6 53 32 -30 c18 -16 52 -43 76 -60z m-814 19 c23
-33 18 -69 -16 -110 -25 -31 -37 -37 -69 -37 -52 0 -60 14 -45 75 23 88 92
126 130 72z m1033 -217 c28 -26 28 -49 -1 -91 -30 -45 -71 -65 -103 -50 -40
18 -31 84 19 139 25 27 57 28 85 2z"/>
<path d="M2992 1490 c-71 -44 -93 -133 -46 -189 14 -17 69 -65 122 -108 133
-106 170 -147 164 -181 -3 -17 -39 -60 -94 -113 -83 -81 -88 -88 -88 -127 0
-135 126 -194 252 -118 100 60 145 105 189 188 67 129 69 225 7 346 -35 69
-169 206 -262 267 -83 55 -186 70 -244 35z m198 -76 c27 -15 57 -35 66 -45 16
-18 16 -19 -4 -19 -34 0 -122 -37 -149 -62 -23 -21 -25 -21 -51 -6 -15 9 -40
32 -55 51 -35 42 -30 66 16 97 42 27 109 21 177 -16z m198 -170 c49 -52 87
-127 101 -198 10 -57 1 -66 -23 -22 -27 51 -91 87 -148 85 -40 -2 -52 2 -86
32 -21 19 -55 47 -76 62 -20 15 -36 32 -36 38 0 22 85 49 154 49 l69 0 45 -46z
m25 -234 c23 -25 27 -39 27 -86 0 -40 -6 -67 -21 -90 -25 -41 -129 -135 -141
-128 -4 3 -8 21 -8 41 0 30 -8 44 -42 77 l-43 40 51 52 c33 33 55 65 59 85 11
49 14 52 54 45 23 -3 46 -17 64 -36z m-226 -222 c38 -40 49 -76 30 -102 -21
-29 -82 -6 -96 36 -14 40 -14 71 1 86 19 19 32 15 65 -20z m173 -72 c0 -2 -7
-7 -16 -10 -8 -3 -12 -2 -9 4 6 10 25 14 25 6z"/>
<path d="M6534 1405 c-23 -8 -89 -39 -145 -69 -582 -301 -711 -357 -844 -369
-118 -11 -127 32 -26 131 38 37 72 78 76 90 27 88 -66 172 -176 159 -151 -18
-298 -190 -285 -331 14 -149 111 -271 260 -325 63 -23 85 -26 206 -26 130 0
139 1 243 37 100 35 301 131 457 218 36 20 119 65 185 100 264 138 316 193
283 303 -24 81 -133 119 -234 82z m140 -56 c48 -22 57 -97 16 -134 -17 -16
-21 -14 -71 25 -28 22 -71 46 -95 52 -24 7 -44 15 -44 19 0 11 103 48 137 48
18 1 43 -4 57 -10z m-1160 -80 c43 -34 32 -81 -30 -119 -34 -21 -37 -22 -72
-7 -52 23 -122 39 -138 33 -34 -13 -19 16 25 48 93 69 166 84 215 45z m1044
-62 c28 -17 52 -36 52 -42 0 -5 -47 -34 -103 -63 l-104 -53 -59 35 c-32 19
-85 42 -116 52 -54 17 -76 34 -43 34 8 0 49 19 92 41 43 23 89 45 103 49 33 9
113 -14 178 -53z m-1203 -102 c43 -12 42 -9 29 -97 -6 -42 -3 -54 30 -111 22
-40 62 -89 102 -126 61 -55 64 -61 38 -57 -16 3 -48 8 -71 11 -108 14 -223 96
-268 190 -30 64 -34 157 -9 193 14 20 21 22 62 16 26 -4 65 -12 87 -19z m877
-37 c109 -41 112 -49 36 -91 -35 -20 -93 -50 -130 -68 -75 -37 -63 -39 -178
28 -25 14 -65 32 -89 38 l-45 12 100 48 c175 84 172 84 306 33z m-405 -143
c79 -30 173 -76 173 -86 0 -6 -86 -44 -184 -80 -82 -30 -125 -27 -200 15 -52
29 -146 113 -146 130 0 3 28 5 63 5 34 0 91 9 127 19 86 26 89 26 167 -3z"/>
</g>
</svg>
