<?xml version="1.0" standalone="no"?>
<!DOCTYPE svg PUBLIC "-//W3C//DTD SVG 20010904//EN"
 "http://www.w3.org/TR/2001/REC-SVG-20010904/DTD/svg10.dtd">
<svg version="1.0" xmlns="http://www.w3.org/2000/svg"
 width="1024.000000pt" height="1024.000000pt" viewBox="0 0 1024.000000 1024.000000"
 preserveAspectRatio="xMidYMid meet">
<metadata>
Created by potrace 1.16, written by Peter Selinger 2001-2019
</metadata>
<g transform="translate(0.000000,1024.000000) scale(0.100000,-0.100000)"
fill="#000000" stroke="none">
<path d="M4242 9149 c-60 -24 -174 -168 -287 -364 -110 -190 -275 -538 -275
-578 0 -8 -18 -21 -40 -30 -41 -16 -41 -16 -34 6 30 92 30 146 2 182 -19 24
-26 27 -64 22 -84 -9 -245 -124 -401 -286 l-72 -74 -52 59 c-69 78 -316 322
-409 405 -243 214 -473 359 -571 359 -79 0 -126 -68 -183 -270 -74 -259 -109
-508 -110 -780 -1 -237 12 -401 45 -560 6 -30 15 -75 20 -100 22 -108 145
-296 285 -438 l92 -93 -18 -54 c-10 -30 -31 -76 -47 -102 -38 -65 -158 -189
-270 -280 -102 -81 -116 -106 -87 -150 29 -45 113 -120 222 -201 l103 -75 -30
-14 c-43 -21 -64 -49 -64 -85 0 -25 9 -40 43 -69 86 -74 383 -209 640 -290 58
-18 106 -34 107 -34 2 -1 -11 -34 -28 -75 -41 -96 -37 -141 16 -187 35 -30 36
-32 22 -60 -8 -15 -20 -50 -26 -77 -13 -52 -17 -222 -6 -255 4 -12 -8 -58 -28
-113 -61 -162 -104 -279 -157 -423 -28 -77 -72 -183 -97 -235 -42 -86 -46 -93
-59 -75 -21 28 -17 94 10 171 13 38 38 109 55 158 49 140 64 241 59 391 -4
113 -9 142 -37 220 -47 135 -111 235 -221 345 -172 173 -407 305 -632 356
-183 41 -316 44 -353 8 -22 -23 -19 -58 15 -134 87 -198 83 -385 -14 -667 -75
-218 -105 -330 -121 -450 -47 -359 32 -640 242 -863 97 -103 158 -149 276
-206 164 -79 322 -107 526 -93 93 7 143 16 205 37 76 26 83 27 109 12 35 -19
44 -54 53 -205 11 -206 10 -235 -4 -235 -31 0 -79 -65 -91 -120 -19 -91 -68
-418 -82 -537 -11 -100 -11 -116 5 -156 32 -86 154 -168 381 -260 231 -93 337
-117 512 -117 113 1 167 11 238 46 104 52 154 126 155 227 0 31 2 57 4 57 2 0
75 -20 163 -45 182 -51 316 -75 425 -75 263 0 465 126 444 277 -18 136 -131
256 -284 303 -35 11 -79 20 -98 20 -19 0 -34 2 -34 4 0 3 18 72 40 153 22 81
40 163 40 181 0 33 -23 64 -64 87 -17 10 -17 16 -6 69 7 33 15 109 19 170 l6
110 77 46 c133 78 166 124 148 203 -12 55 -55 171 -114 309 -40 92 -46 116
-46 174 0 37 -7 105 -16 151 -14 77 -14 86 0 108 9 14 21 48 27 77 9 40 22 65
54 98 23 25 44 52 46 58 3 9 24 4 74 -20 58 -26 83 -32 142 -32 63 -1 76 2
115 29 35 25 46 41 62 88 10 31 23 57 29 57 6 0 29 9 52 20 57 27 75 63 75
147 0 57 4 75 26 107 30 44 54 114 54 160 0 26 7 34 38 48 21 10 74 42 118 72
52 35 96 56 125 61 74 12 161 60 218 120 71 75 103 146 101 227 -3 99 6 115
75 144 33 13 61 24 63 24 1 0 2 -12 2 -27 1 -41 35 -194 49 -220 10 -20 9 -23
-6 -24 -10 -1 -37 -2 -61 -3 -28 -1 -50 -9 -64 -24 -20 -19 -22 -31 -19 -114
l2 -93 -43 -20 c-64 -29 -189 -158 -222 -228 -32 -69 -56 -171 -56 -243 0 -52
0 -52 -78 -126 -145 -135 -309 -247 -496 -338 -96 -47 -118 -71 -118 -126 0
-46 28 -76 107 -115 117 -57 269 -73 421 -44 43 8 79 13 81 11 2 -2 -25 -37
-61 -78 -109 -124 -271 -260 -441 -368 -55 -35 -124 -78 -153 -97 -92 -58
-104 -125 -36 -190 64 -60 274 -103 399 -83 33 5 64 10 68 10 5 0 -18 -30 -51
-66 -68 -73 -81 -108 -58 -152 26 -50 134 -82 278 -82 174 0 418 62 586 150
39 20 72 36 72 35 0 -2 -14 -33 -31 -70 -26 -54 -30 -71 -21 -90 34 -74 229
-49 418 55 l74 41 0 -33 c0 -38 -22 -236 -46 -413 -10 -73 -22 -124 -30 -131
-8 -6 -33 -14 -55 -18 -59 -9 -241 -64 -329 -98 -203 -80 -386 -195 -419 -263
-12 -25 -12 -32 0 -54 26 -46 62 -56 199 -55 140 1 205 17 205 50 0 18 -8 19
-135 16 -88 -3 -145 0 -165 8 l-30 12 35 30 c97 82 317 181 550 248 74 21 136
38 137 36 2 -2 -6 -41 -17 -87 -25 -104 -26 -145 -4 -153 27 -10 50 20 72 97
44 153 80 406 117 827 6 64 7 65 77 140 40 41 76 79 80 84 4 6 35 -17 70 -50
35 -33 77 -69 95 -79 30 -17 32 -23 37 -89 21 -299 30 -388 51 -533 37 -250
78 -369 150 -431 35 -32 68 -41 80 -22 3 5 -15 48 -41 95 -46 86 -80 175 -65
175 4 0 50 -9 102 -20 241 -51 422 -123 570 -224 44 -31 84 -56 89 -56 4 0 13
7 20 15 22 27 -94 130 -215 192 -99 50 -272 116 -350 133 -22 4 -84 17 -138
28 -54 11 -101 22 -103 25 -9 8 -31 174 -48 347 -22 238 -25 280 -17 280 4 0
35 -14 68 -30 101 -51 202 -81 288 -87 70 -5 83 -3 105 15 30 25 31 80 1 148
-12 26 -21 49 -21 53 0 4 46 -16 102 -43 259 -123 496 -175 648 -140 138 31
155 78 63 176 -48 50 -54 60 -33 54 161 -44 199 -49 355 -50 183 -1 244 12
332 69 58 38 69 61 54 108 -9 26 -30 44 -116 95 -150 90 -249 167 -349 272
-77 82 -156 183 -156 201 0 4 78 9 173 11 155 4 180 8 254 32 93 32 141 67
149 112 8 40 -19 65 -154 147 -56 34 -138 91 -182 126 -157 125 -333 333 -417
492 -30 58 -31 61 -10 55 63 -19 220 -29 289 -20 131 19 258 98 258 160 0 46
-21 67 -158 157 -226 151 -368 283 -519 482 -72 96 -145 213 -139 223 2 4 19
9 38 10 129 9 298 120 298 196 0 34 -36 70 -139 139 -244 162 -374 294 -544
552 -65 99 -127 204 -127 217 0 2 46 3 103 3 85 0 108 3 137 20 30 18 35 27
38 61 3 37 -2 46 -68 120 -180 200 -310 445 -420 790 -119 374 -133 411 -172
438 -33 23 -75 20 -103 -8 -35 -35 -57 -84 -123 -276 -85 -248 -107 -301 -169
-422 -101 -198 -248 -381 -446 -553 -50 -44 -57 -55 -57 -87 0 -29 7 -42 35
-67 19 -16 54 -35 77 -42 47 -12 210 -6 266 10 17 5 32 7 32 3 0 -14 -73 -128
-141 -220 -39 -52 -106 -130 -150 -174 -66 -68 -82 -79 -101 -74 -124 37 -226
30 -369 -25 -67 -26 -92 -43 -164 -110 -46 -44 -107 -111 -135 -148 l-50 -68
-59 -7 c-105 -12 -247 -101 -331 -207 -45 -57 -132 -105 -275 -152 -93 -30
-216 -60 -223 -53 -2 3 35 33 84 68 274 198 479 399 626 615 70 104 208 377
208 412 0 35 -10 43 -80 71 -84 33 -268 127 -317 162 -36 27 -46 41 -59 87
-30 110 -127 418 -163 522 -26 75 -35 113 -29 128 13 37 29 142 35 236 14 240
-108 731 -274 1100 -50 111 -104 194 -163 249 -41 38 -55 46 -87 45 -21 0 -48
-4 -61 -10z m108 -136 c52 -59 161 -283 219 -447 55 -158 115 -390 142 -551
17 -103 20 -156 16 -255 -3 -69 -8 -133 -12 -142 -6 -15 -25 -1 -106 75 l-98
92 6 120 c5 106 4 122 -11 135 -32 26 -50 1 -59 -81 -5 -41 -10 -85 -13 -97
l-5 -24 -32 24 c-49 38 -167 103 -219 123 -27 10 -48 21 -48 25 0 3 11 17 25
30 30 29 33 77 6 111 -18 24 -18 27 14 179 39 184 66 292 106 418 28 89 38
172 21 172 -51 0 -165 -323 -232 -658 -11 -51 -16 -62 -29 -56 -29 12 -195 16
-238 6 -24 -5 -43 -8 -43 -5 0 13 212 421 263 507 133 222 229 346 267 346 10
0 37 -21 60 -47z m-2189 -313 c110 -63 231 -154 379 -284 139 -122 332 -314
419 -416 35 -41 69 -78 75 -82 29 -20 56 -1 175 119 125 126 212 198 284 234
36 19 37 19 37 1 0 -29 -30 -123 -56 -174 -27 -53 -31 -86 -11 -94 7 -2 45 11
84 30 200 99 378 128 492 80 l36 -15 -32 -29 c-18 -16 -49 -32 -70 -36 -44 -8
-124 -46 -141 -67 -14 -16 -7 -43 13 -51 7 -2 30 0 51 6 21 5 72 8 113 6 67
-3 89 -9 174 -50 175 -85 329 -205 479 -375 50 -56 59 -77 108 -233 97 -313
163 -500 185 -522 33 -34 166 -110 275 -158 52 -24 97 -44 99 -46 6 -6 -86
-197 -137 -284 -176 -301 -501 -596 -897 -817 -70 -39 -84 -54 -155 -173 -14
-23 -56 -73 -94 -110 l-69 -69 -28 38 c-67 93 -139 149 -139 108 0 -7 23 -45
50 -84 28 -39 50 -73 50 -76 0 -2 -12 -2 -27 0 -184 28 -326 80 -454 165 l-84
56 -185 5 c-102 3 -201 9 -220 12 -100 18 -345 93 -465 142 -180 74 -380 177
-370 192 2 5 33 18 67 31 57 20 88 42 88 61 0 5 -32 29 -72 55 -140 90 -328
242 -328 264 0 4 25 24 55 45 69 47 218 202 270 280 41 63 84 158 85 188 0 32
50 217 96 358 65 200 178 410 321 597 34 46 63 91 63 101 0 54 -142 335 -251
498 -90 134 -249 324 -333 399 -81 71 -95 79 -108 66 -15 -15 9 -54 99 -162
226 -273 358 -474 457 -694 l45 -98 -77 -104 c-42 -57 -79 -103 -82 -103 -3 0
-25 28 -50 62 -106 149 -160 195 -176 152 -7 -17 4 -37 105 -181 l74 -106 -66
-134 -66 -134 -82 92 c-93 104 -97 108 -115 101 -19 -7 -25 -32 -13 -56 16
-29 82 -111 136 -168 l43 -45 -41 -140 c-22 -76 -43 -141 -45 -143 -16 -17
-218 238 -264 334 -53 110 -82 272 -102 557 -14 210 -2 393 43 663 25 149 103
419 130 451 20 25 60 15 150 -36z m4823 -697 c9 -21 41 -120 71 -220 72 -242
114 -352 191 -503 77 -152 175 -301 260 -396 35 -40 64 -75 64 -79 0 -4 -37
-5 -82 -3 -149 8 -262 71 -388 215 -58 67 -67 72 -77 47 -19 -50 78 -184 190
-260 47 -32 64 -51 77 -85 27 -72 126 -244 197 -342 168 -234 350 -407 546
-522 37 -21 67 -45 67 -51 0 -21 -72 -73 -125 -91 -27 -9 -90 -20 -140 -23
l-90 -5 2 -34 c3 -61 104 -232 234 -397 133 -167 321 -331 523 -455 47 -28 83
-56 80 -61 -3 -4 -33 -23 -67 -40 -54 -27 -75 -32 -164 -36 -91 -4 -112 -2
-190 23 -48 15 -101 34 -117 42 -28 15 -31 14 -47 -6 -22 -27 -17 -48 55 -193
67 -139 186 -298 316 -426 111 -109 199 -177 329 -256 52 -31 96 -58 98 -59
10 -11 -90 -50 -159 -62 -162 -29 -330 -14 -459 40 -65 28 -192 110 -224 145
-28 31 -55 26 -55 -11 0 -46 90 -128 203 -184 88 -44 91 -47 123 -110 93 -181
285 -373 504 -503 139 -83 134 -76 70 -106 -139 -64 -360 -54 -604 25 -104 34
-196 83 -354 186 -109 72 -140 83 -150 54 -7 -22 119 -134 216 -191 51 -31 97
-66 106 -82 9 -15 53 -65 96 -112 44 -46 80 -86 80 -89 0 -2 -26 -7 -57 -11
-191 -21 -516 89 -762 258 -148 101 -152 94 -72 -94 33 -78 62 -154 63 -168 3
-24 0 -27 -27 -24 -169 18 -459 185 -565 326 -53 70 -68 86 -80 86 -5 0 -35
-39 -66 -87 -126 -196 -343 -348 -526 -370 l-49 -6 47 79 c87 146 120 233 94
249 -6 4 -59 -25 -118 -63 -177 -115 -286 -163 -475 -212 -96 -24 -139 -30
-228 -30 -117 0 -197 14 -206 36 -3 8 36 57 93 117 114 119 133 149 114 172
-17 21 -49 19 -107 -6 -120 -52 -370 -41 -472 22 -33 20 -33 21 -15 38 10 10
66 46 124 81 185 111 374 260 486 383 72 79 165 209 195 270 21 43 22 49 7 63
-14 15 -23 13 -105 -24 -130 -59 -201 -76 -318 -75 -86 0 -109 3 -170 28 -74
30 -115 53 -115 64 0 4 37 25 82 46 174 84 425 253 517 348 l33 35 36 -71
c135 -273 486 -368 741 -200 234 153 314 464 180 699 -36 63 -121 149 -187
189 l-50 30 -4 103 c-4 122 -11 132 -95 132 -50 0 -53 1 -43 19 8 16 50 245
50 275 0 4 15 -5 34 -22 19 -17 43 -33 53 -36 10 -3 27 -19 36 -36 17 -29 65
-50 112 -50 44 0 123 48 152 92 24 38 28 55 31 136 3 66 -1 107 -12 142 -9 26
-20 81 -26 122 -6 40 -22 96 -36 125 -31 65 -115 143 -194 181 l-60 28 51 50
c130 127 256 301 345 478 42 83 54 118 52 145 -4 48 -26 50 -82 7 -77 -58
-140 -76 -271 -76 -63 0 -115 4 -115 9 0 5 45 51 100 102 175 161 295 318 394
517 59 118 94 206 168 422 81 236 82 238 112 173z m-860 -1867 c96 -56 143
-169 134 -319 -10 -155 -95 -248 -175 -192 -19 14 -20 17 -7 52 7 21 13 58 14
83 1 183 -138 250 -267 127 l-33 -31 0 30 c-1 66 -41 71 -59 7 -6 -21 -11 -48
-11 -59 0 -12 -10 -28 -22 -36 -20 -13 -21 -17 -9 -32 27 -32 112 -11 174 44
59 51 83 63 106 51 25 -14 31 -32 31 -94 0 -104 -73 -191 -210 -248 -63 -27
-92 -33 -185 -38 -92 -5 -110 -9 -113 -23 -6 -29 43 -51 124 -56 l75 -5 -23
-24 c-30 -33 -90 -63 -124 -63 -63 0 -142 94 -164 195 -12 56 -5 129 17 184
26 61 116 192 198 284 80 91 147 142 225 170 69 25 79 26 171 23 73 -2 92 -6
133 -30z m240 -148 c58 -68 79 -136 74 -248 -3 -83 -7 -102 -31 -143 -44 -74
-113 -105 -163 -72 l-25 16 41 45 c67 73 75 99 75 259 0 96 -4 147 -13 163
-21 36 4 25 42 -20z m-1050 -273 c-94 -277 101 -572 315 -475 24 11 46 18 50
15 10 -11 -33 -76 -83 -124 -62 -58 -143 -91 -223 -91 -82 0 -190 55 -238 120
-50 69 -82 144 -96 228 -22 132 16 219 133 307 51 39 157 98 165 91 1 0 -9
-32 -23 -71z m735 -174 c22 -17 23 -20 12 -92 -15 -98 -33 -169 -42 -164 -3 3
-15 56 -25 120 -17 111 -17 115 1 135 22 24 24 24 54 1z m406 -47 c-36 -47
-66 -65 -117 -70 l-43 -4 41 13 c51 17 106 58 124 93 8 14 16 21 18 15 2 -7
-8 -27 -23 -47z m-1501 -43 c-5 -122 48 -277 124 -362 46 -51 121 -104 165
-114 15 -4 27 -10 27 -14 0 -4 -29 -21 -65 -39 l-66 -32 -30 34 c-76 87 -207
136 -365 136 -92 0 -214 -24 -271 -53 l-28 -15 -1 117 c-1 88 -6 132 -22 181
-12 35 -20 65 -19 65 1 1 54 9 117 18 119 17 290 67 376 110 27 14 52 25 55
26 3 1 4 -26 3 -58z m-3349 -131 c324 -66 656 -304 786 -562 30 -60 69 -201
69 -253 0 -29 -1 -28 -62 34 -63 62 -191 138 -219 129 -10 -3 -13 -50 -14
-189 -1 -121 -6 -195 -14 -216 l-13 -33 -121 127 c-140 145 -209 203 -242 203
-46 0 -223 -210 -315 -373 -17 -31 -36 -55 -41 -51 -18 11 -69 93 -89 144
l-21 53 60 181 c103 315 124 426 101 552 -14 81 -45 184 -71 236 -11 21 -19
40 -19 44 0 9 121 -4 225 -26z m2726 -32 c28 -63 38 -213 19 -301 -10 -52 -16
-59 -81 -111 -54 -44 -73 -54 -87 -47 -33 18 -121 122 -150 178 -11 19 -4 29
71 106 46 46 104 116 128 155 25 41 51 72 60 72 10 0 26 -20 40 -52z m-1186
-75 l190 -5 81 -49 c44 -27 114 -63 155 -80 76 -31 259 -79 304 -79 15 0 25
-6 25 -14 0 -31 -71 -180 -105 -222 -91 -111 -160 -99 -415 68 -160 105 -267
154 -399 184 -160 36 -173 47 -146 125 28 78 42 92 83 85 21 -4 122 -9 227
-13z m2995 -168 c0 -62 -1 -65 -27 -72 -37 -10 -171 -10 -205 0 -27 7 -28 10
-28 72 0 75 -7 72 158 67 l102 -3 0 -64z m-1235 -95 c76 -26 131 -62 155 -103
26 -42 26 -112 0 -155 l-21 -33 -49 44 c-69 62 -124 93 -211 117 -118 32 -219
24 -219 -19 0 -25 28 -41 74 -41 175 0 376 -139 376 -259 0 -31 -6 -44 -26
-60 -15 -12 -31 -21 -36 -21 -6 0 -30 23 -55 50 -25 28 -66 62 -90 77 -104 61
-289 71 -309 18 -4 -9 -4 -18 -1 -22 4 -3 48 -12 99 -19 164 -24 268 -95 268
-181 0 -47 -16 -72 -56 -89 -43 -18 -93 -11 -149 21 -92 53 -166 49 -190 -9
-27 -64 -178 -176 -237 -176 -32 0 -104 81 -128 145 -18 50 -21 74 -17 140 14
242 214 477 486 572 89 32 102 34 186 29 52 -3 115 -14 150 -26z m-1866 -35
c138 -48 315 -169 460 -314 l104 -103 -61 -29 c-100 -49 -178 -156 -120 -167
10 -2 39 14 65 36 52 43 88 64 153 86 38 13 41 13 34 -2 -4 -10 -10 -68 -12
-130 -6 -176 32 -311 113 -401 21 -23 36 -43 34 -45 -2 -2 -49 -10 -104 -16
-210 -25 -336 16 -508 163 -56 48 -153 166 -209 253 -138 216 -184 487 -112
660 l15 36 56 -7 c30 -4 72 -13 92 -20z m994 -62 c26 -34 61 -72 77 -85 l30
-24 -25 -34 c-15 -19 -32 -34 -40 -32 -8 1 -51 -2 -96 -7 -103 -13 -187 -51
-238 -106 l-39 -43 -38 39 -38 39 44 0 c57 0 137 37 173 79 33 40 89 141 112
204 10 26 21 44 25 40 4 -4 28 -36 53 -70z m1952 31 c50 -2 109 1 133 7 58 13
114 -12 193 -87 68 -66 111 -145 130 -242 25 -129 -32 -293 -134 -389 -91 -86
-166 -114 -311 -114 -210 -1 -374 134 -418 345 -27 126 27 291 126 389 57 57
152 111 176 101 8 -3 56 -8 105 -10z m-1958 -349 c-17 -48 -21 -84 -22 -180 0
-112 2 -124 29 -182 39 -86 107 -149 171 -158 29 -5 61 -3 83 4 21 7 44 15 52
17 8 3 -12 -20 -45 -51 -105 -99 -223 -139 -338 -116 -76 16 -134 74 -179 180
-29 69 -32 88 -36 196 -4 131 5 182 41 236 33 50 119 96 197 107 36 4 66 8 67
7 1 0 -8 -27 -20 -60z m-1689 -30 c72 -65 112 -128 112 -176 0 -62 -26 -167
-75 -304 -40 -111 -47 -142 -49 -211 -1 -78 1 -84 31 -121 l31 -40 -89 -138
c-49 -76 -89 -146 -89 -155 0 -30 56 -105 133 -176 l77 -72 -68 -17 c-281 -73
-630 23 -834 229 -118 119 -179 221 -225 377 -25 87 -27 107 -28 269 0 96 4
193 8 214 l8 39 29 -49 c38 -65 104 -134 129 -134 15 0 30 21 62 83 48 96 105
179 201 295 l69 82 27 -19 c26 -18 205 -198 294 -295 52 -57 78 -57 101 2 23
58 39 198 35 304 l-3 96 29 -16 c16 -10 54 -39 84 -67z m482 -118 c0 -24 69
-156 121 -234 62 -91 202 -240 267 -283 l46 -30 -50 6 c-156 20 -423 149 -484
234 l-20 28 53 150 c45 131 67 172 67 129z m-12 -490 c102 -54 215 -96 326
-122 112 -26 172 -33 360 -40 71 -3 131 -7 133 -9 3 -2 1 -58 -3 -124 l-7
-121 -64 -7 c-136 -14 -372 18 -533 72 -171 58 -354 160 -413 230 -26 31 -27
35 -14 61 7 15 24 60 37 100 l24 71 43 -38 c24 -20 73 -53 111 -73z m1541
-159 c1 -87 1 -87 -31 -111 -62 -46 -60 -49 -57 64 4 145 9 166 44 189 l30 20
7 -38 c4 -20 7 -76 7 -124z m-165 25 c-2 -21 -6 -96 -10 -167 -6 -121 -8 -130
-33 -158 -22 -25 -40 -32 -104 -44 -142 -24 -267 -29 -311 -10 l-39 16 6 108
c4 59 9 134 13 168 l6 60 107 25 c84 19 116 22 156 16 36 -7 71 -5 120 6 98
21 94 22 89 -20z m-1596 -91 c110 -94 265 -170 457 -225 161 -45 204 -51 387
-52 l177 0 8 -29 c12 -44 51 -67 122 -73 l63 -6 -7 -36 c-3 -20 -24 -102 -47
-183 l-41 -147 -36 -13 c-25 -9 -98 -13 -236 -13 -171 0 -217 4 -315 24 -221
45 -511 166 -652 270 -75 56 -148 142 -148 175 0 12 28 65 63 119 35 53 81
128 103 167 21 38 40 70 42 70 2 0 29 -22 60 -48z m1830 -194 c23 -51 55 -133
72 -183 l31 -90 -43 -37 c-47 -40 -263 -156 -273 -146 -4 3 -23 73 -42 154
-34 143 -35 149 -17 159 43 23 92 84 99 122 5 32 14 43 63 75 31 21 60 38 63
38 3 0 24 -42 47 -92z m-347 -265 c12 -54 30 -129 40 -168 11 -38 19 -80 19
-93 0 -32 18 -36 90 -17 34 9 64 15 65 13 2 -2 0 -23 -5 -48 -4 -25 -10 -66
-13 -92 -3 -26 -11 -84 -18 -128 -15 -97 -22 -103 -130 -126 -87 -19 -310 -14
-373 8 l-40 13 3 125 c1 68 4 127 7 131 2 4 18 10 36 13 57 11 153 68 156 94
3 19 -1 22 -27 22 -16 0 -42 -5 -57 -10 -23 -9 -26 -8 -21 7 2 10 14 52 26 93
12 41 32 113 45 160 l23 85 49 6 c111 13 100 21 125 -88z m-1324 -274 c190
-77 406 -129 533 -129 20 0 39 -2 42 -5 3 -3 1 -23 -4 -43 -5 -20 -17 -93 -26
-161 l-18 -124 -55 -19 c-30 -10 -101 -23 -158 -29 -129 -13 -232 0 -311 39
l-55 27 -7 175 c-4 96 -11 203 -16 238 -4 34 -7 62 -5 62 1 0 37 -14 80 -31z
m881 -207 c4 -82 3 -82 -30 -114 -32 -31 -35 -41 -62 -188 -27 -156 -76 -403
-80 -407 -1 -1 -20 4 -41 12 -22 8 -48 14 -57 15 -27 0 -27 11 -2 90 30 91 64
250 64 295 0 24 -7 39 -25 53 -30 24 -30 32 -8 190 l16 122 61 1 c34 0 79 4
101 8 22 5 45 8 50 6 6 -1 11 -38 13 -83z m686 -234 c-13 -62 -69 -251 -79
-267 -2 -5 -24 -11 -47 -15 -87 -14 -178 -69 -178 -108 0 -31 23 -30 116 2 48
17 111 33 139 36 179 21 395 -125 394 -266 0 -40 -28 -102 -29 -64 -1 51 -33
128 -72 170 -71 77 -109 50 -52 -35 20 -29 40 -76 47 -106 15 -73 3 -98 -59
-119 -78 -26 -81 -25 -86 49 -7 77 -41 143 -96 180 -39 26 -72 33 -72 14 0 -6
14 -27 31 -47 45 -51 69 -109 69 -170 l0 -52 -87 7 c-81 6 -190 29 -465 98
-106 27 -109 28 -143 74 -19 25 -50 57 -69 71 -41 29 -40 28 -21 135 59 331
75 426 75 435 0 6 10 4 23 -4 36 -24 166 -56 252 -62 53 -4 112 -1 175 10 130
22 161 31 206 65 22 16 40 30 40 30 1 1 -4 -27 -12 -61z m-1656 -72 c22 -15
73 -39 113 -53 133 -46 383 -32 528 29 l44 18 -7 -42 c-4 -24 -23 -97 -42
-163 -19 -66 -38 -128 -40 -137 -4 -12 -16 -18 -37 -18 -43 0 -151 -26 -190
-46 -45 -23 -87 -64 -87 -86 0 -25 23 -23 114 13 100 39 161 48 246 39 201
-22 360 -191 320 -339 -5 -21 -22 -49 -37 -63 l-28 -27 0 58 c-1 94 -86 241
-141 241 -21 0 -18 -15 25 -101 43 -85 61 -173 42 -208 -16 -29 -38 -39 -109
-47 l-62 -7 0 51 c0 106 -70 252 -120 252 -30 0 -29 -22 0 -75 30 -54 55 -163
45 -196 -6 -18 -12 -20 -48 -14 -137 23 -322 87 -493 171 -128 63 -190 111
-199 154 -4 18 6 111 24 223 16 105 37 244 46 307 9 63 19 118 22 123 3 5 11
0 18 -10 8 -11 31 -32 53 -47z"/>
<path d="M4268 7590 c-37 -20 -88 -77 -88 -98 0 -26 40 -34 87 -18 26 9 63 16
83 16 55 0 134 -45 187 -106 56 -64 93 -74 93 -24 0 75 -95 191 -188 231 -56
24 -127 24 -174 -1z"/>
<path d="M3300 7492 c-74 -25 -125 -58 -186 -124 -67 -71 -104 -144 -107 -211
-3 -72 21 -76 65 -10 51 76 160 178 225 209 52 26 67 29 150 27 103 -2 120 10
85 57 -46 61 -140 82 -232 52z"/>
<path d="M4375 7153 c-66 -34 -124 -104 -156 -188 -55 -142 -56 -339 -2 -445
l30 -57 -46 -9 c-53 -10 -65 -34 -29 -58 28 -18 255 -56 336 -56 31 0 67 -3
79 -6 21 -6 20 -9 -22 -40 -83 -64 -119 -165 -79 -223 50 -71 161 -141 224
-141 17 0 30 -4 30 -10 0 -15 -98 -89 -159 -120 -159 -79 -422 -99 -620 -47
-167 45 -310 118 -345 178 -15 26 -15 28 3 34 11 3 22 13 25 22 29 74 -187 56
-269 -22 -65 -61 -34 -96 46 -52 70 40 75 37 81 -37 15 -185 207 -396 397
-437 95 -20 182 26 241 128 l35 60 85 6 c254 17 476 122 580 272 17 24 53 67
80 95 28 29 65 80 82 114 26 51 32 73 32 135 l1 73 -40 35 -40 35 -105 -2
c-212 -5 -227 -1 -186 53 116 152 117 439 2 613 -63 94 -206 142 -291 97z
m155 -95 c178 -90 213 -446 61 -614 -46 -50 -63 -47 -36 6 39 75 26 200 -25
252 -42 42 -83 38 -131 -12 -43 -45 -66 -125 -55 -193 7 -41 7 -41 -14 -22
-11 10 -35 48 -53 84 -30 61 -32 72 -31 166 0 79 5 114 23 161 42 112 121 192
191 194 14 0 46 -10 70 -22z m420 -794 c7 -18 7 -30 0 -39 -19 -23 -334 -72
-345 -54 -18 29 202 117 298 118 32 1 39 -3 47 -25z m-1277 -518 c23 -13 82
-37 131 -52 99 -32 107 -42 119 -136 l6 -46 -27 7 c-112 33 -240 141 -274 232
-9 24 -5 24 45 -5z"/>
<path d="M3331 7030 c-168 -62 -255 -209 -256 -430 0 -164 43 -262 147 -333
112 -78 224 -96 361 -60 60 15 80 26 128 70 62 58 111 146 130 233 29 134 -35
336 -139 439 -86 85 -259 123 -371 81z m237 -97 c132 -67 224 -247 203 -398
-10 -70 -21 -97 -21 -51 0 75 -50 131 -117 131 -41 0 -49 -4 -82 -42 -43 -48
-64 -107 -62 -178 1 -64 17 -102 50 -119 26 -14 25 -14 -22 -21 -62 -10 -103
-2 -176 31 -162 72 -238 254 -181 435 58 186 256 289 408 212z"/>
<path d="M2975 6161 c-123 -32 -325 -216 -392 -355 -14 -31 -14 -36 2 -70 22
-46 116 -132 220 -201 162 -107 448 -240 421 -196 -3 5 -81 54 -173 109 -259
155 -423 280 -423 321 0 31 59 111 148 199 140 138 229 174 382 153 46 -6 97
-11 114 -11 26 0 28 2 16 14 -8 7 -31 19 -50 25 -43 15 -224 23 -265 12z"/>
<path d="M7070 6415 c-28 -34 11 -185 73 -283 26 -39 70 -72 82 -60 3 3 -13
43 -34 89 -22 46 -46 119 -54 162 -19 98 -39 126 -67 92z"/>
<path d="M7393 5988 c-73 -19 -114 -128 -93 -245 6 -37 16 -75 21 -85 8 -16 6
-18 -24 -18 -61 0 -72 -17 -76 -120 l-3 -91 -52 -33 c-70 -45 -152 -135 -181
-199 -60 -130 -59 -297 1 -426 38 -83 133 -178 219 -220 77 -38 203 -64 264
-55 275 40 442 230 441 503 -1 81 -5 107 -28 166 -37 93 -90 165 -164 220 -33
25 -64 45 -69 45 -5 0 -9 37 -9 83 0 108 -12 127 -82 127 -43 0 -49 2 -44 17
4 9 12 47 18 85 27 155 -39 273 -139 246z m53 -103 c21 -32 15 -153 -10 -210
l-18 -40 -20 50 c-28 67 -30 175 -4 204 25 27 32 26 52 -4z m112 -387 l-3 -63
-85 -3 c-47 -2 -104 0 -127 3 l-43 6 0 60 0 59 130 0 131 0 -3 -62z m-125
-149 c51 -1 104 2 119 6 57 14 199 -103 244 -201 88 -188 -9 -442 -201 -530
-245 -113 -511 32 -566 309 -14 68 -3 130 36 215 48 104 193 222 253 207 13
-3 65 -6 115 -6z"/>
<path d="M7235 5243 c-35 -9 -77 -45 -91 -79 -21 -49 -18 -116 6 -147 39 -49
129 -59 187 -22 57 38 82 161 42 204 -38 40 -92 57 -144 44z m106 -44 c24 -12
32 -72 16 -112 -20 -47 -62 -77 -107 -77 -76 0 -107 63 -68 140 32 63 95 82
159 49z"/>
<path d="M6754 4006 c-15 -12 -19 -26 -19 -78 1 -145 136 -315 305 -385 64
-26 98 -28 143 -9 41 17 67 56 75 112 l7 44 45 -30 c80 -53 167 -82 260 -87
71 -4 91 -1 120 15 39 21 56 56 47 94 -9 34 -72 127 -147 216 -50 59 -66 72
-90 72 -21 0 -30 -5 -30 -16 0 -9 38 -69 83 -133 112 -156 114 -159 85 -170
-42 -15 -146 5 -223 43 -78 38 -162 114 -205 184 -25 42 -45 56 -61 46 -14 -8
-11 -47 11 -116 22 -69 26 -148 10 -179 -27 -49 -158 -2 -249 90 -63 64 -106
144 -123 229 -13 69 -18 76 -44 58z"/>
<path d="M6119 3429 c-105 -120 -274 -236 -373 -254 -42 -8 -106 17 -106 42 0
10 27 54 60 97 40 53 57 83 50 90 -15 15 -56 -11 -126 -79 -68 -66 -84 -106
-62 -152 24 -49 72 -73 149 -73 86 0 144 20 239 81 116 74 267 241 258 285 -7
37 -36 25 -89 -37z"/>
<path d="M5764 4768 c-59 -41 -93 -103 -94 -171 0 -43 5 -54 34 -83 29 -29 41
-34 80 -34 59 0 94 18 140 72 72 83 70 176 -3 225 -49 33 -98 30 -157 -9z
m147 -27 c48 -39 17 -143 -58 -192 -35 -23 -100 -25 -125 -2 -56 50 40 213
126 213 19 0 44 -9 57 -19z"/>
<path d="M3970 3725 c-8 -2 -41 -7 -73 -10 -89 -10 -97 -23 -94 -142 l2 -98
65 1 c114 1 179 13 190 35 6 10 12 63 13 117 l2 97 -45 2 c-25 0 -52 0 -60 -2z
m30 -120 l0 -45 -37 0 c-21 0 -48 -3 -61 -6 -22 -6 -23 -4 -20 37 3 42 5 44
38 50 79 14 80 13 80 -36z"/>
<path d="M3263 8784 c-15 -24 -15 -29 -2 -53 18 -32 54 -39 80 -15 24 22 24
56 1 77 -27 25 -59 21 -79 -9z"/>
<path d="M6653 8669 c-50 -18 -56 -89 -11 -122 35 -26 75 -15 97 25 30 53 -28
119 -86 97z"/>
<path d="M5495 8550 c-27 -10 -155 -132 -155 -147 0 -24 38 -35 67 -19 48 24
143 120 143 143 0 23 -26 34 -55 23z"/>
<path d="M7247 8392 c-30 -33 19 -72 51 -40 16 16 15 23 -4 42 -20 20 -27 20
-47 -2z"/>
<path d="M8124 8345 c-10 -25 4 -58 49 -115 50 -63 91 -90 109 -72 19 19 -22
83 -109 175 -30 31 -41 34 -49 12z"/>
<path d="M1292 7988 c-7 -7 -12 -19 -12 -28 0 -40 61 -55 80 -21 13 25 13 27
-6 45 -18 19 -45 21 -62 4z"/>
<path d="M5880 7937 c-13 -7 -29 -25 -35 -41 -8 -25 -6 -31 18 -52 36 -31 61
-30 86 3 24 30 20 58 -11 86 -24 20 -26 20 -58 4z"/>
<path d="M5492 7388 c-28 -28 -4 -98 34 -98 20 0 54 37 54 58 0 40 -61 67 -88
40z"/>
<path d="M8222 7288 c-37 -37 11 -113 57 -88 32 16 42 42 28 71 -14 27 -64 38
-85 17z"/>
<path d="M1391 6562 c-62 -60 -81 -85 -81 -106 0 -38 25 -42 70 -11 40 28 118
113 137 150 14 28 6 45 -22 45 -15 0 -50 -27 -104 -78z"/>
<path d="M8457 6538 c-57 -94 -112 -174 -170 -247 -65 -82 -79 -119 -50 -128
27 -9 147 125 218 243 l33 55 11 -33 c35 -107 205 -368 315 -486 l60 -64 -112
3 c-72 2 -115 0 -122 -7 -27 -27 95 -207 240 -358 l100 -103 -38 -11 c-41 -12
-88 -19 -175 -26 -64 -6 -77 -11 -77 -31 0 -20 28 -32 80 -34 127 -5 290 46
290 90 0 13 -51 76 -131 162 -73 78 -147 165 -166 192 l-33 50 85 7 c156 14
160 34 42 180 -113 141 -125 159 -194 273 -51 85 -115 215 -136 278 -9 25 -54
22 -70 -5z"/>
<path d="M8868 4309 c-21 -12 -24 -59 -6 -77 20 -20 56 -14 74 13 15 23 15 27
0 50 -17 26 -40 31 -68 14z"/>
<path d="M6685 2800 c-11 -18 -5 -696 6 -729 13 -38 26 -39 40 -3 10 25 5 612
-6 666 -12 65 -16 76 -25 76 -5 0 -12 -4 -15 -10z"/>
<path d="M1852 2490 c-121 -26 -312 -121 -312 -156 0 -22 28 -17 122 21 152
62 225 76 391 76 135 0 148 1 145 17 -6 32 -57 45 -183 48 -66 2 -140 -1 -163
-6z"/>
<path d="M5015 2294 c-103 -24 -145 -43 -145 -66 0 -23 13 -23 150 2 128 24
367 11 486 -25 6 -2 17 1 25 5 25 16 -20 49 -103 75 -69 22 -96 25 -216 24
-80 0 -162 -7 -197 -15z"/>
<path d="M7781 2294 c-72 -15 -92 -27 -73 -46 7 -7 61 -12 154 -13 101 -1 178
-8 262 -24 125 -24 158 -23 135 5 -54 65 -329 110 -478 78z"/>
<path d="M6501 1824 c-90 -24 -242 -93 -296 -136 -29 -23 -34 -58 -7 -58 10 0
55 18 99 39 185 89 320 118 434 91 65 -15 170 -66 223 -109 42 -34 45 -35 65
-22 21 13 5 46 -42 84 -153 124 -297 158 -476 111z"/>
<path d="M8396 1835 c-16 -16 -16 -18 0 -36 23 -25 121 -27 131 -3 15 40 -96
74 -131 39z"/>
<path d="M1740 1814 c-45 -9 -81 -26 -90 -45 -15 -27 1 -31 100 -23 65 5 122
2 210 -11 93 -14 123 -16 133 -6 20 20 -5 44 -64 64 -53 18 -235 31 -289 21z"/>
<path d="M4877 1486 c-57 -13 -101 -41 -91 -57 4 -8 355 -2 382 6 21 7 13 24
-17 39 -41 22 -202 29 -274 12z"/>
<path d="M2209 1462 c-29 -24 -20 -52 18 -53 92 -3 135 6 131 29 -8 40 -108
56 -149 24z"/>
</g>
</svg>
