<?xml version="1.0" standalone="no"?>
<!DOCTYPE svg PUBLIC "-//W3C//DTD SVG 20010904//EN"
 "http://www.w3.org/TR/2001/REC-SVG-20010904/DTD/svg10.dtd">
<svg version="1.0" xmlns="http://www.w3.org/2000/svg"
 width="1024.000000pt" height="1024.000000pt" viewBox="0 0 1024.000000 1024.000000"
 preserveAspectRatio="xMidYMid meet">
<metadata>
Created by potrace 1.16, written by Peter Selinger 2001-2019
</metadata>
<g transform="translate(0.000000,1024.000000) scale(0.100000,-0.100000)"
fill="#000000" stroke="none">
<path d="M0 9657 l0 -34 128 -53 c381 -157 841 -302 1382 -435 145 -36 269
-70 275 -76 5 -5 17 -32 26 -59 19 -59 21 -58 -81 -36 -483 103 -1020 263
-1522 452 -108 41 -199 74 -202 74 -3 0 -6 -13 -6 -28 0 -21 7 -30 28 -38 498
-197 838 -307 1332 -433 l195 -49 2 -44 c10 -194 68 -435 145 -600 l41 -86
-68 -63 c-82 -77 -118 -129 -139 -199 -36 -121 -9 -240 71 -310 26 -22 58 -43
72 -46 49 -11 51 -13 51 -56 0 -24 3 -53 6 -65 6 -20 3 -21 -68 -20 -40 1 -90
-2 -111 -6 -27 -6 -38 -5 -41 5 -2 7 -15 85 -29 173 -28 174 -77 364 -128 495
-37 97 -83 149 -168 189 -80 37 -202 36 -316 -3 -94 -31 -216 -111 -306 -197
l-62 -60 7 -68 c12 -139 62 -243 129 -274 18 -8 55 -18 82 -21 79 -10 206 30
262 83 16 15 24 17 31 8 12 -14 54 -190 116 -479 45 -209 45 -219 2 -273 -14
-19 -15 -14 -15 65 1 102 -28 197 -86 284 -46 69 -90 107 -175 149 -58 29 -73
32 -155 32 -78 0 -98 -4 -150 -28 -102 -48 -198 -159 -241 -278 -9 -28 -15
-80 -16 -144 0 -86 3 -108 26 -158 49 -112 132 -185 256 -228 67 -23 190 -31
242 -17 23 7 30 3 63 -43 52 -73 52 -74 -2 -105 -89 -51 -163 -105 -179 -129
-17 -27 -12 -39 77 -201 l28 -51 -43 -30 c-58 -41 -94 -90 -122 -169 -42 -115
-30 -213 45 -361 43 -86 69 -188 81 -321 11 -123 28 -185 67 -244 29 -43 99
-93 156 -110 21 -6 42 -19 47 -28 33 -61 154 -709 186 -994 40 -360 13 -424
-404 -956 -191 -243 -294 -425 -339 -598 -22 -86 -24 -111 -20 -227 4 -105 10
-143 29 -197 34 -90 76 -153 151 -225 149 -143 371 -193 596 -134 270 71 491
247 850 676 214 255 334 374 551 545 169 132 262 254 317 412 38 109 44 282
14 397 -22 83 -81 249 -140 389 -17 41 -46 131 -65 200 -33 122 -125 648 -184
1048 l-28 191 51 55 c81 87 100 134 98 249 -1 69 -9 126 -28 200 -42 162 -54
248 -56 392 0 73 -5 157 -11 186 -14 80 -53 159 -98 200 l-40 37 26 99 c14 55
29 103 32 107 4 4 19 9 33 13 45 11 67 -19 84 -114 22 -124 61 -178 136 -185
86 -8 157 44 189 137 24 72 24 90 5 182 -29 134 -101 232 -213 287 -71 35
-187 33 -264 -5 -117 -58 -222 -207 -293 -419 -16 -49 -33 -88 -37 -88 -14 0
-8 64 12 127 10 34 28 112 40 175 49 259 101 468 155 618 74 209 114 268 196
295 47 16 53 16 94 0 25 -9 56 -31 71 -48 25 -30 26 -35 21 -117 -3 -54 -15
-113 -32 -163 -32 -93 -28 -133 18 -183 93 -99 250 -49 317 101 37 82 50 151
51 265 1 236 -88 393 -271 483 -61 30 -72 32 -170 32 -174 -1 -283 -46 -406
-169 -73 -73 -87 -94 -147 -216 -78 -161 -127 -301 -162 -470 -14 -68 -27
-125 -28 -126 -1 -1 -32 12 -69 29 l-68 32 0 55 c0 30 -3 71 -6 90 -5 33 -2
37 47 70 102 68 151 187 150 365 0 114 -16 192 -45 224 -15 17 -13 28 24 147
35 110 74 281 95 415 l5 36 63 -14 c236 -50 848 -143 1167 -178 195 -21 213
-23 301 -30 l76 -7 7 -97 c10 -161 62 -359 147 -570 26 -62 39 -110 39 -141 0
-25 7 -73 16 -105 29 -106 29 -102 -4 -108 -16 -3 -41 -9 -56 -13 -25 -6 -26
-5 -26 38 0 69 -28 136 -77 185 -61 61 -112 83 -199 83 -135 0 -236 -51 -311
-156 -53 -75 -74 -143 -74 -236 0 -132 41 -205 150 -264 l69 -37 -24 -53 c-46
-105 -58 -170 -58 -329 -1 -128 2 -160 21 -220 36 -113 110 -215 219 -300 l51
-41 -36 -42 -36 -42 -25 72 c-73 215 -225 327 -402 298 -126 -20 -239 -108
-274 -213 -47 -142 12 -299 137 -363 27 -13 49 -27 49 -30 0 -2 -10 -24 -22
-47 -18 -35 -22 -58 -22 -137 -1 -89 2 -101 42 -196 52 -127 67 -186 87 -346
19 -163 42 -223 103 -280 41 -39 138 -88 172 -88 14 0 43 -118 95 -390 71
-368 100 -624 93 -804 -10 -250 -102 -428 -379 -731 -154 -168 -283 -358 -349
-514 -113 -266 -125 -506 -34 -700 67 -143 224 -261 395 -297 277 -58 574 41
845 282 103 92 192 199 394 468 173 232 319 404 510 599 231 237 302 362 334
581 25 175 6 283 -85 478 -112 240 -152 362 -194 598 -54 301 -116 666 -141
838 l-18 122 36 38 c97 100 113 218 58 438 -37 154 -42 186 -49 385 -7 196 -7
197 -40 264 -23 46 -45 75 -72 93 -25 18 -36 32 -32 42 17 45 33 133 33 191
l0 67 93 4 c111 5 183 34 242 100 62 68 89 140 88 232 -2 69 -6 85 -31 127
-29 45 -29 48 -12 64 29 26 40 92 38 225 -3 137 4 161 59 211 41 38 85 50 144
39 63 -12 83 -23 112 -63 38 -49 65 -108 87 -189 28 -101 70 -361 70 -431 l0
-57 -27 7 c-16 5 -64 8 -109 7 -68 -1 -91 -6 -145 -31 -101 -48 -177 -135
-219 -250 -61 -170 28 -378 170 -398 29 -4 63 -2 84 5 63 20 114 100 117 180
0 14 4 34 8 45 7 16 10 12 24 -25 9 -25 28 -84 41 -132 14 -49 28 -92 31 -98
3 -6 -8 -18 -25 -28 -182 -99 -305 -218 -353 -340 -45 -112 -39 -232 16 -354
58 -127 84 -218 93 -323 20 -234 40 -310 97 -372 40 -44 143 -103 179 -103 12
0 19 -11 24 -37 3 -21 15 -78 25 -128 38 -176 99 -526 115 -660 3 -22 11 -83
19 -135 20 -142 13 -405 -13 -495 -51 -174 -88 -237 -262 -450 -251 -308 -384
-497 -455 -648 -60 -128 -84 -221 -92 -348 -11 -190 36 -326 159 -454 113
-120 249 -175 428 -175 169 0 327 53 499 167 118 79 311 274 519 526 209 252
348 397 507 531 157 131 239 210 285 272 63 85 111 190 131 292 39 195 16 350
-90 610 -124 300 -201 655 -256 1177 -14 134 -24 229 -40 377 -5 45 -4 48 50
110 38 44 60 79 70 116 25 86 20 140 -42 402 -8 36 -18 150 -23 255 -10 240
-24 290 -103 373 l-41 42 17 28 c77 117 139 308 141 432 0 65 -4 84 -32 144
-17 37 -32 70 -32 71 0 2 14 6 31 10 89 20 196 84 215 130 29 71 -6 124 -85
128 -34 1 -41 5 -41 22 0 33 -43 98 -78 118 -38 22 -90 24 -134 6 -25 -10 -33
-10 -36 -1 -16 48 -93 102 -146 102 -38 0 -76 -52 -76 -104 0 -54 32 -182 59
-234 l20 -40 -37 -7 c-45 -8 -129 -49 -161 -78 -23 -22 -24 -22 -35 -3 -21 38
-99 116 -143 145 -25 17 -69 35 -99 42 -50 11 -54 14 -54 42 0 57 30 233 59
342 16 61 43 163 60 227 33 128 56 253 66 366 l7 72 33 0 c166 0 1365 180
1700 255 18 4 20 -2 22 -44 5 -116 80 -376 133 -463 18 -30 18 -31 -11 -71
-80 -110 -79 -297 3 -431 19 -31 28 -57 24 -70 -3 -12 -29 -62 -57 -111 -28
-50 -59 -110 -70 -135 -11 -28 -18 -37 -19 -25 -9 164 -41 417 -66 514 -13 53
-38 125 -55 160 -38 76 -123 164 -199 206 -51 28 -62 30 -160 30 -88 0 -115
-4 -169 -25 -111 -43 -216 -158 -265 -290 -15 -42 -20 -79 -20 -155 -1 -112
15 -171 65 -249 67 -107 207 -113 270 -13 20 32 21 51 5 192 -4 33 22 117 42
137 26 26 103 29 130 5 10 -10 27 -41 36 -70 30 -90 66 -374 82 -647 l6 -105
-38 36 c-189 179 -467 101 -563 -157 -25 -66 -39 -206 -29 -289 18 -138 101
-241 195 -238 115 4 171 98 139 234 -15 65 -10 129 10 136 19 6 78 -42 109
-88 33 -48 129 -256 140 -300 6 -24 3 -28 -32 -39 -186 -61 -290 -178 -311
-351 -11 -85 -4 -136 34 -267 27 -94 32 -140 43 -372 7 -147 10 -172 33 -222
32 -70 90 -128 157 -158 33 -15 53 -31 56 -44 2 -12 9 -55 16 -96 6 -41 26
-148 45 -238 51 -245 83 -448 114 -736 34 -305 25 -435 -40 -604 -58 -152
-138 -264 -347 -493 -72 -79 -155 -173 -183 -208 -201 -253 -313 -538 -298
-759 15 -217 122 -379 312 -472 107 -52 182 -71 291 -72 290 -1 603 178 896
513 70 79 174 198 232 264 139 160 320 334 497 482 165 136 205 174 261 246
88 111 129 227 136 388 7 150 -4 211 -82 444 -92 278 -120 424 -150 790 -8
105 -20 233 -25 285 -18 165 -20 180 -36 403 l-15 219 61 63 c84 89 103 135
102 255 0 52 -7 129 -17 170 -23 108 -35 207 -41 355 -4 118 -8 136 -35 192
-61 126 -203 175 -443 152 -59 -6 -120 -8 -134 -4 -25 6 -24 7 24 35 53 31
100 71 126 109 l17 23 34 -21 c116 -71 246 -9 333 159 24 46 28 67 29 133 0
78 0 79 -37 113 -26 23 -47 34 -69 34 -29 0 -31 2 -23 28 5 15 9 53 9 85 0 31
2 57 5 57 3 0 27 -7 54 -15 70 -21 174 -19 239 5 136 51 229 215 214 378 -7
69 -34 126 -84 176 -107 108 -289 57 -405 -114 -15 -23 -17 -23 -17 -5 -1 11
4 47 10 80 6 33 12 143 13 245 l1 185 35 17 c19 9 58 17 87 18 50 0 52 -1 77
-44 67 -115 235 -112 294 5 48 96 19 203 -68 247 -52 26 -101 23 -162 -11
l-37 -20 -58 26 c-142 63 -346 93 -476 68 -157 -29 -296 -121 -407 -270 l-25
-33 -46 22 -46 22 38 119 c49 152 69 256 76 394 l6 110 221 53 c378 92 871
241 1156 351 65 24 75 32 78 55 4 33 -7 33 -94 0 -326 -124 -896 -294 -1301
-388 l-62 -14 -15 51 c-8 28 -13 53 -11 55 2 2 100 28 218 57 394 99 764 212
1142 349 l120 43 3 37 c3 34 2 37 -16 27 -48 -26 -363 -136 -612 -214 -156
-49 -442 -129 -767 -215 l-112 -30 -22 33 c-51 74 -147 108 -248 87 -102 -22
-174 -82 -201 -167 -7 -22 -15 -43 -19 -47 -17 -18 -748 -149 -1076 -192 -285
-38 -570 -73 -650 -81 l-60 -5 -30 42 c-58 80 -184 115 -289 79 -48 -17 -109
-71 -138 -122 -21 -38 -23 -39 -82 -40 -34 -1 -72 -3 -86 -5 -93 -12 -892 -15
-1180 -5 -477 17 -505 20 -514 54 -11 44 -65 95 -122 116 -126 48 -264 7 -304
-89 -11 -27 -16 -29 -49 -25 -20 3 -120 14 -223 25 -303 32 -716 91 -958 135
-394 73 -440 85 -440 107 0 20 -39 90 -69 122 -58 64 -166 84 -240 46 -22 -10
-55 -38 -75 -61 l-36 -42 -147 38 c-525 135 -1067 312 -1373 448 -98 43 -100
43 -100 4z m8594 -407 c85 -41 128 -153 128 -330 -1 -128 -16 -216 -68 -392
-19 -65 -34 -125 -34 -134 0 -11 -5 -14 -16 -10 -9 3 -23 6 -31 6 -13 0 -14 8
-9 43 47 284 58 452 35 556 -12 58 -57 133 -94 157 -25 16 -30 16 -107 -5 -45
-12 -83 -20 -85 -18 -9 9 17 54 49 84 63 61 159 79 232 43z m-6693 -43 c19
-13 46 -46 63 -79 65 -127 42 -366 -72 -763 -25 -86 -32 -100 -51 -103 -20 -3
-22 0 -17 25 3 15 18 109 33 208 36 242 38 461 4 548 -25 64 -46 80 -131 98
-51 11 -51 11 -33 31 52 58 146 74 204 35z m6591 -134 c9 -10 23 -32 32 -50
l16 -32 -42 -12 c-68 -18 -409 -87 -562 -114 -78 -13 -195 -34 -261 -45 -277
-48 -748 -113 -1118 -155 -64 -7 -62 -9 -72 66 l-6 45 128 12 c487 46 1520
211 1788 286 68 19 79 19 97 -1z m-6200 -102 c108 -22 313 -58 455 -80 276
-43 278 -43 483 -66 74 -8 151 -17 170 -20 19 -2 109 -11 200 -20 312 -32 283
-25 301 -65 9 -19 20 -46 24 -59 7 -24 7 -24 -56 -17 -35 3 -91 9 -124 11
-482 42 -1033 117 -1475 200 -102 19 -191 35 -197 35 -9 0 -13 20 -13 66 0 58
2 65 18 60 9 -3 106 -23 214 -45z m-599 -56 c37 -7 37 -7 37 -57 0 -49 8 -134
35 -363 8 -66 11 -138 7 -160 l-7 -40 -22 51 c-62 143 -100 306 -127 538 -6
46 -5 48 17 43 12 -3 39 -9 60 -12z m6856 -77 c0 -51 -6 -127 -12 -168 l-13
-75 -21 115 c-12 63 -25 131 -28 150 -3 19 -6 39 -7 45 -3 9 31 20 70 24 9 1
12 -23 11 -91z m-4554 53 c53 -24 71 -47 96 -115 14 -42 20 -83 20 -154 0
-114 -16 -205 -77 -439 -43 -168 -58 -265 -70 -477 -7 -115 -15 -110 -38 21
-18 110 -15 183 19 403 54 355 60 423 47 499 -7 39 -22 92 -34 117 -24 53 -51
68 -140 79 -62 7 -68 13 -40 38 54 49 145 61 217 28z m2325 -6 c37 -19 66 -54
92 -110 20 -45 22 -64 21 -185 -2 -151 -20 -251 -112 -602 -28 -108 -56 -241
-62 -295 -11 -104 -15 -117 -30 -107 -14 8 -4 272 15 394 10 58 31 177 48 265
53 272 41 444 -37 522 -32 32 -35 33 -119 33 -47 0 -86 4 -86 8 0 22 75 76
129 93 32 10 107 1 141 -16z m2113 -108 c10 -67 30 -174 46 -239 16 -64 27
-125 24 -136 -4 -17 -50 -48 -59 -39 -2 1 -20 45 -40 97 -45 117 -82 261 -90
350 l-7 67 39 10 c73 17 69 23 87 -110z m-6603 61 c0 -78 -12 -188 -20 -188
-4 0 -10 39 -13 88 -4 48 -9 102 -13 120 -6 30 -5 32 20 32 25 0 26 -2 26 -52z
m4378 -111 c21 -22 48 -84 41 -91 -2 -2 -56 -6 -119 -10 -428 -22 -566 -28
-815 -30 -397 -4 -1121 17 -1136 33 -4 3 -9 30 -11 59 l-5 54 136 -7 c75 -4
159 -9 186 -12 99 -9 1015 -11 1255 -2 200 7 358 18 436 28 6 0 20 -9 32 -22z
m-2401 -135 c13 -8 16 -32 28 -177 4 -44 10 -98 15 -120 4 -22 11 -67 15 -100
3 -32 8 -62 9 -65 2 -3 0 -36 -3 -75 -7 -68 -8 -69 -20 -40 -41 97 -112 394
-126 523 l-6 62 38 0 c21 0 43 -4 50 -8z m133 -18 c0 -46 -25 -244 -30 -244
-8 0 -30 169 -30 224 0 33 2 36 30 36 21 0 30 -5 30 -16z m2330 -19 c0 -48
-32 -290 -39 -298 -4 -4 -15 59 -25 140 -10 82 -20 151 -23 156 -10 16 10 27
48 27 35 0 39 -2 39 -25z m-1930 0 c242 -12 1089 -17 1344 -6 154 6 280 10
282 8 2 -1 5 -27 9 -57 11 -114 17 -157 31 -218 22 -96 78 -258 119 -347 l38
-80 1 -151 1 -150 -55 -24 c-33 -14 -78 -47 -111 -80 l-57 -56 -6 75 c-27 295
-99 512 -209 628 -126 133 -347 196 -523 149 -150 -40 -299 -165 -369 -311
-41 -85 -69 -215 -61 -286 l5 -46 -53 -16 c-63 -20 -136 -91 -168 -163 l-20
-46 -17 28 c-54 88 -319 202 -475 204 l-29 0 7 133 c10 179 15 220 37 302 59
218 87 339 98 415 17 114 14 109 58 104 21 -2 76 -6 123 -9z m1791 3 c0 -7 2
-24 4 -38 2 -14 9 -72 15 -130 6 -58 20 -160 32 -227 16 -96 19 -134 11 -175
l-9 -53 -18 40 c-64 147 -136 433 -136 542 l0 53 50 0 c33 0 50 -4 51 -12z
m3364 -12 c50 -13 113 -32 140 -42 28 -10 51 -19 52 -19 1 0 -3 -20 -9 -43
l-10 -42 -57 0 c-71 -1 -131 -22 -156 -55 -18 -24 -20 -42 -20 -188 0 -89 -4
-204 -9 -255 -8 -77 -12 -92 -25 -88 -9 3 -78 19 -154 35 -75 17 -192 47 -260
67 -252 74 -321 94 -325 99 -8 8 78 172 138 262 96 144 193 224 330 270 93 32
242 32 365 -1z m392 -36 c39 -14 63 -58 63 -115 0 -40 -5 -52 -35 -82 -33 -33
-39 -35 -82 -30 -120 13 -141 160 -31 219 39 20 46 21 85 8z m-2118 -157 c16
-36 25 -148 17 -207 -6 -37 -11 -46 -27 -46 -11 0 -29 -4 -39 -10 -15 -8 -23
-4 -41 23 -13 17 -29 38 -37 46 -19 20 -107 51 -144 51 l-32 0 44 45 c55 56
112 91 182 109 29 8 56 15 59 15 3 1 11 -11 18 -26z m143 -15 c62 -33 140
-110 166 -164 13 -29 13 -37 -7 -96 -23 -69 -64 -141 -99 -171 -20 -18 -20
-18 -32 35 -16 75 -40 119 -77 143 l-32 20 6 90 c3 67 1 101 -11 133 -15 41
-15 42 6 42 11 0 47 -14 80 -32z m753 -29 c30 -11 55 -24 55 -29 0 -5 -22 -55
-50 -111 -27 -56 -50 -111 -50 -122 0 -13 -5 -17 -16 -13 -9 3 -27 9 -41 12
-20 5 -23 11 -19 30 4 13 2 24 -4 24 -15 0 -87 -96 -101 -135 -7 -19 -16 -35
-20 -35 -13 0 -32 91 -32 158 -1 99 53 205 118 232 36 15 103 11 160 -11z
m-5850 -43 l60 -28 -52 -25 c-63 -30 -127 -90 -147 -136 -13 -32 -17 -34 -66
-36 -29 -1 -60 -6 -71 -11 -15 -9 -19 -5 -28 27 -12 43 -14 109 -5 176 6 42 9
46 43 56 20 5 74 9 121 7 69 -2 97 -7 145 -30z m-1650 -10 c64 -30 87 -56 125
-138 l30 -67 -20 -54 c-34 -90 -79 -165 -138 -229 l-56 -60 -9 26 c-6 17 -4
41 7 73 55 173 37 356 -44 443 l-28 30 41 0 c23 0 65 -11 92 -24z m-162 -30
c72 -71 99 -184 77 -318 -7 -40 -15 -79 -19 -86 -5 -9 -24 9 -59 56 -58 79
-106 123 -160 151 -57 28 -139 44 -194 38 -62 -8 -58 -1 49 75 85 61 203 117
245 118 18 0 39 -12 61 -34z m1454 -63 c-1 -65 3 -109 12 -130 13 -31 12 -34
-24 -77 -20 -24 -51 -74 -69 -110 -33 -66 -34 -66 -49 -43 -33 50 -50 122 -51
214 l-1 92 40 41 c31 32 129 107 142 110 2 0 2 -44 0 -97z m-553 15 c26 -37
20 -80 -15 -114 -60 -57 -117 -160 -143 -262 l-11 -43 -58 121 -58 121 62 70
c105 117 188 157 223 107z m3454 -30 c32 -87 43 -124 51 -175 l8 -50 -71 5
c-51 3 -82 0 -110 -12 -48 -20 -43 -21 -50 9 -4 14 -36 59 -71 100 -36 41 -65
76 -65 78 0 2 30 19 66 38 55 27 147 53 211 58 6 1 20 -23 31 -51z m-2402 10
c28 -34 67 -114 78 -159 7 -34 -42 -93 -125 -148 -77 -52 -89 -52 -89 -3 0 55
-42 137 -84 164 -20 13 -36 26 -36 29 0 19 88 101 132 123 68 34 90 33 124 -6z
m2518 16 c76 -20 149 -61 200 -113 38 -39 39 -42 33 -92 -4 -28 -20 -80 -36
-115 -30 -64 -77 -134 -90 -134 -4 0 -13 15 -19 34 -7 19 -32 56 -56 83 -41
46 -43 52 -49 124 -5 68 -18 113 -64 217 -7 16 6 15 81 -4z m2103 -35 c21 -7
38 -25 54 -53 21 -41 22 -45 6 -77 -8 -19 -19 -58 -23 -88 l-7 -54 -96 6 c-53
2 -104 8 -113 12 -31 12 -22 136 17 228 15 37 16 37 74 37 32 0 72 -5 88 -11z
m-2474 -167 c71 -80 72 -85 38 -132 -29 -40 -32 -51 -46 -132 l-6 -36 -37 10
c-87 24 -192 101 -192 142 0 42 61 153 123 223 l20 22 27 -23 c15 -12 48 -46
73 -74z m3050 -42 c32 -190 32 -202 0 -266 -25 -53 -137 -184 -146 -173 -3 2
-7 31 -10 64 -10 102 -29 250 -33 257 -2 3 20 31 50 60 31 31 66 80 82 115 16
35 32 56 35 50 4 -7 14 -55 22 -107z m-5910 -72 c8 -26 29 -68 47 -95 l33 -48
-36 -110 c-20 -60 -41 -129 -47 -152 -6 -24 -15 -43 -19 -43 -19 0 -85 86
-114 149 -46 97 -43 147 17 286 27 61 58 128 69 150 l21 40 7 -65 c4 -36 14
-86 22 -112z m-1427 119 c44 -22 164 -137 164 -157 0 -13 -146 -61 -204 -67
-87 -8 -128 11 -159 74 -21 41 -52 147 -49 163 2 12 53 19 122 16 57 -2 87 -9
126 -29z m1103 -36 c-9 -83 -46 -166 -97 -219 l-37 -37 -3 28 c-4 32 22 125
48 177 24 46 78 120 88 120 5 0 5 -31 1 -69z m6825 -20 c289 -87 343 -101 541
-146 88 -21 161 -38 162 -39 1 -1 -4 -26 -11 -56 -8 -30 -17 -76 -21 -102 -6
-47 -6 -47 -38 -42 -68 13 -162 38 -417 114 -146 44 -317 94 -380 112 l-115
34 0 64 c0 65 19 130 37 130 6 0 115 -31 242 -69z m-7365 -68 c12 -45 21 -90
21 -100 0 -49 -191 -303 -227 -303 -5 0 -20 48 -34 106 -21 90 -23 107 -10
113 40 23 133 131 172 201 24 43 47 76 51 72 3 -4 16 -44 27 -89z m4410 35
c29 -73 61 -201 68 -273 5 -57 4 -63 -33 -117 -41 -60 -140 -168 -155 -168 -5
0 -9 13 -9 29 0 30 -32 191 -50 251 -14 47 -14 45 24 87 58 66 116 178 116
226 0 33 18 17 39 -35z m-4108 -122 c44 -90 51 -133 20 -116 -29 15 -80 68
-97 102 -19 36 -29 117 -20 154 l7 28 26 -45 c14 -24 43 -80 64 -123z m1368
14 c-10 -129 -48 -220 -113 -271 -58 -46 -150 -19 -170 50 -7 25 -3 50 18 116
27 83 28 84 71 99 57 19 127 68 162 112 l28 34 5 -27 c3 -15 2 -66 -1 -113z
m6767 121 c73 -33 110 -112 102 -216 -14 -165 -130 -277 -288 -277 -45 0 -81
6 -105 18 l-38 18 41 11 c56 17 103 48 150 99 42 45 77 104 68 113 -3 3 -45
-31 -95 -75 -66 -57 -103 -83 -137 -92 -39 -11 -47 -11 -55 1 -14 22 -11 62
12 135 25 83 59 143 113 202 74 80 149 101 232 63z m-2291 -80 l90 -6 3 -37
c4 -52 -31 -88 -86 -88 -59 0 -99 37 -132 126 -9 23 -8 25 12 18 13 -4 64 -10
113 -13z m-3920 -22 c80 -38 125 -110 125 -201 l0 -53 -52 -30 c-70 -40 -68
-39 -68 -16 0 25 -53 87 -91 107 -50 25 -97 16 -146 -29 -17 -15 -23 -32 -23
-63 0 -58 12 -86 59 -137 l39 -42 -29 -33 c-26 -29 -33 -32 -67 -26 -108 19
-162 94 -162 221 0 123 71 237 182 293 77 38 164 41 233 9z m3293 -53 c21 -19
47 -53 57 -74 l20 -40 33 29 c76 67 188 6 168 -91 -5 -30 -5 -30 37 -30 84 0
114 -24 80 -63 -41 -46 -231 -113 -255 -89 -6 6 -2 22 11 43 12 19 21 37 21
42 0 15 -25 6 -51 -19 -39 -37 -60 -27 -48 23 5 21 9 44 9 52 0 24 -28 -7 -40
-45 -20 -60 -38 -42 -79 77 -30 87 -48 190 -36 208 11 19 34 12 73 -23z
m-1910 -86 c31 -12 69 -24 84 -27 27 -5 28 -8 28 -68 0 -80 -15 -122 -51 -140
-41 -22 -70 -19 -117 13 -61 38 -94 110 -100 213 -7 113 -2 119 54 70 25 -22
71 -50 102 -61z m3565 51 c48 -17 224 -71 390 -122 166 -50 303 -92 304 -93 1
-1 -4 -29 -11 -61 -31 -133 -37 -285 -14 -332 25 -50 38 -50 137 1 104 52 122
55 152 25 66 -66 -58 -305 -169 -324 -50 -8 -95 13 -117 55 -9 17 -22 30 -29
30 -8 0 -28 -24 -44 -54 -62 -109 -164 -166 -312 -173 -97 -5 -199 13 -276 48
-66 30 -200 166 -247 249 -44 81 -62 173 -53 284 6 81 39 217 70 291 19 45
118 205 126 205 4 0 45 -13 93 -29z m-7109 -170 c21 -124 21 -138 -5 -146 -26
-9 -170 -151 -195 -194 -23 -38 -34 -40 -34 -3 0 15 -8 66 -19 113 l-18 85 34
24 c45 31 142 136 178 193 19 29 32 42 36 34 4 -7 14 -54 23 -106z m6755 -109
c1 -135 0 -145 -25 -195 -31 -61 -78 -123 -105 -137 -33 -18 -46 29 -54 193
-6 112 -5 147 5 147 19 0 137 119 151 153 l13 31 7 -24 c4 -14 7 -89 8 -168z
m-6075 -8 c19 -23 48 -47 64 -53 l29 -12 -13 -62 c-14 -63 -40 -196 -53 -277
-9 -51 -13 -44 -34 55 -23 107 -56 185 -97 229 l-37 40 13 60 c7 34 18 88 25
120 l11 59 28 -59 c16 -32 45 -78 64 -100z m1396 124 c17 -13 39 -35 48 -51
l17 -27 -52 -49 -53 -48 -18 21 c-65 74 -80 132 -40 160 31 22 59 20 98 -6z
m665 -20 c91 -25 240 -98 294 -144 l43 -37 -7 -58 c-7 -55 -6 -59 14 -59 14 0
22 8 27 28 25 114 89 226 153 269 53 36 75 31 92 -19 21 -64 93 -132 156 -147
29 -7 61 -10 71 -7 33 11 66 -54 65 -128 -1 -192 -146 -309 -359 -291 -68 5
-84 4 -84 -7 0 -7 9 -22 21 -31 18 -16 20 -25 13 -85 -16 -157 -85 -296 -208
-417 -192 -190 -446 -245 -738 -161 -200 58 -357 222 -404 422 -24 105 -15
275 20 379 82 241 285 434 526 499 76 21 218 18 305 -6z m2178 -28 c87 -27
163 -95 201 -180 22 -49 27 -75 27 -135 -1 -145 -78 -244 -214 -275 -66 -14
-122 2 -164 47 -27 28 -33 42 -33 78 0 34 5 47 19 55 28 15 35 13 46 -12 16
-36 74 -37 110 -1 57 57 69 126 34 203 -44 97 -116 143 -224 144 -38 0 -83 -3
-98 -7 -69 -19 32 53 117 83 67 24 101 24 179 0z m-5546 -18 c12 -7 8 -11 -20
-16 -45 -8 -124 -78 -148 -131 -10 -22 -19 -57 -19 -78 0 -29 -7 -44 -27 -62
-35 -30 -44 -30 -64 -2 -48 66 -59 179 -23 234 14 23 57 49 104 64 30 10 174
3 197 -9z m5058 -238 c-30 -97 -18 -220 31 -316 8 -15 34 -50 58 -77 35 -40
45 -59 51 -102 4 -30 8 -61 10 -69 1 -8 12 -73 24 -145 12 -71 26 -142 31
-157 8 -24 6 -27 -28 -33 -46 -9 -99 -36 -135 -70 -16 -15 -29 -25 -31 -24 -1
2 -11 27 -21 54 -10 28 -31 76 -47 107 l-28 58 41 37 c51 46 67 77 75 145 15
132 -43 295 -139 385 -29 27 -59 52 -66 54 -9 3 -16 32 -21 89 -7 83 -7 84 19
104 61 48 112 101 143 149 l33 52 9 -93 c7 -78 5 -103 -9 -148z m3533 222 c12
-12 7 -169 -7 -211 -8 -22 -23 -50 -35 -63 -30 -34 -84 -65 -97 -56 -17 10 -6
192 16 278 l18 68 49 -4 c27 -3 52 -8 56 -12z m-8493 -52 c23 -15 95 -104 95
-118 0 -3 -10 -2 -22 3 -47 17 -130 -6 -192 -54 -38 -29 -50 -33 -85 -28 -37
5 -41 8 -41 35 0 57 57 137 118 164 39 18 99 17 127 -2z m862 -45 c32 -12 60
-23 62 -26 3 -2 -20 -29 -50 -61 -97 -99 -148 -180 -179 -277 -16 -50 -28 -65
-39 -46 -18 29 -44 180 -45 261 -1 99 21 159 64 172 38 11 123 0 187 -23z
m5153 12 c28 -11 66 -31 85 -45 34 -27 90 -128 97 -176 3 -22 0 -25 -22 -22
-42 5 -149 42 -272 93 -121 51 -172 62 -148 34 37 -44 249 -143 368 -171 41
-10 72 -23 72 -30 0 -36 -34 -166 -55 -213 l-25 -54 -73 6 c-39 4 -98 13 -131
22 -63 17 -223 83 -231 95 -3 4 6 32 20 61 38 84 55 251 31 309 -8 19 73 76
135 95 61 19 91 18 149 -4z m-635 -46 c65 -49 87 -121 57 -187 -10 -24 -26
-49 -35 -57 -18 -14 -47 -9 -47 8 0 6 7 8 15 5 18 -7 19 9 4 37 -14 28 -105
69 -152 69 -89 0 -173 -62 -203 -149 l-12 -36 -7 59 c-9 68 12 160 50 217 59
90 233 109 330 34z m-5827 -125 c5 -14 24 -38 41 -54 21 -21 31 -39 31 -60 0
-17 9 -45 19 -63 23 -36 15 -43 -46 -43 -68 0 -163 77 -163 132 0 40 28 127
61 196 l33 67 7 -75 c4 -41 11 -86 17 -100z m1025 128 c-26 -48 -23 -220 6
-308 31 -97 33 -94 -53 -87 -72 5 -256 53 -256 67 0 11 79 131 129 194 42 54
165 165 184 166 4 0 0 -15 -10 -32z m465 -64 c23 -19 42 -41 42 -47 0 -24
-327 -253 -349 -246 -13 5 80 161 127 216 36 41 120 113 131 113 4 0 26 -16
49 -36z m5779 0 c21 -6 19 -9 -26 -50 -60 -54 -83 -107 -86 -199 -2 -38 -8
-82 -13 -97 l-11 -27 -44 15 c-81 27 -107 67 -107 161 0 60 18 96 74 146 50
44 150 68 213 51z m-6720 -47 c38 -26 49 -71 41 -172 -7 -84 -15 -93 -41 -53
-31 46 -96 88 -145 95 -23 3 -42 9 -42 13 0 4 -11 23 -24 42 l-23 35 33 22
c79 54 140 60 201 18z m1728 -1 c46 -21 125 -94 125 -115 0 -5 -17 -11 -37
-15 -46 -7 -108 -39 -146 -74 -21 -20 -30 -23 -39 -14 -7 7 -27 12 -45 12 -28
0 -35 6 -53 40 -12 23 -37 59 -57 81 -20 22 -34 41 -32 43 29 22 70 45 94 54
54 19 136 14 190 -12z m5127 -22 c21 -15 53 -45 71 -68 32 -39 87 -128 87
-140 0 -3 -12 -6 -27 -6 -46 0 -126 -44 -152 -82 l-24 -35 -47 49 c-29 30 -58
50 -79 54 -32 7 -32 7 -26 53 13 99 41 152 98 183 43 23 55 22 99 -8z m-4535
10 c-3 -3 -12 -4 -19 -1 -8 3 -5 6 6 6 11 1 17 -2 13 -5z m-2589 -63 c73 -74
62 -208 -24 -295 -31 -31 -114 -76 -139 -76 -27 0 -96 40 -135 79 -31 30 -90
126 -90 145 0 3 21 -8 48 -24 80 -49 156 -46 234 9 48 33 46 55 -4 36 -18 -7
-42 22 -53 66 -5 20 0 33 23 57 41 44 98 45 140 3z m1300 -53 c11 -46 23 -107
27 -135 7 -51 6 -53 -20 -63 -15 -6 -57 -29 -93 -53 -37 -24 -72 -46 -78 -50
-8 -4 -20 28 -38 98 -14 57 -26 108 -26 113 0 5 21 24 48 42 26 19 70 56 97
82 28 26 53 48 56 48 4 0 16 -37 27 -82z m4160 64 c9 -6 6 -12 -13 -20 -31
-14 -65 -68 -65 -104 0 -59 43 -123 105 -156 44 -23 156 -21 223 5 28 12 52
17 52 13 0 -14 -80 -78 -129 -102 -37 -18 -63 -23 -131 -23 -75 0 -91 4 -139
30 -61 34 -97 73 -122 137 -24 58 -23 93 2 138 31 54 91 90 154 90 27 0 56 -4
63 -8z m1996 -80 c4 -24 19 -72 35 -107 27 -59 30 -77 41 -267 6 -112 14 -211
17 -222 3 -12 1 -16 -6 -12 -6 4 -11 13 -11 21 0 37 -77 259 -134 391 l-65
147 52 57 c30 33 55 52 58 46 4 -6 9 -30 13 -54z m-5756 35 c12 -13 31 -41 41
-63 16 -32 17 -42 6 -54 -7 -8 -18 -33 -25 -55 -18 -56 -17 -56 -53 -35 -18
10 -51 23 -74 29 -38 10 -41 14 -34 34 12 30 69 128 89 150 20 22 24 22 50 -6z
m3175 -64 c-3 -33 -51 -187 -73 -235 -9 -19 -21 -27 -47 -30 -39 -5 -36 -9
-86 112 -20 47 -43 102 -51 122 l-16 37 32 17 c46 24 115 31 183 19 59 -11 60
-11 58 -42z m-4730 -9 c56 -28 117 -97 117 -132 0 -21 -91 -109 -136 -131 -36
-18 -69 -25 -129 -28 -67 -3 -77 -1 -61 9 95 62 157 160 158 247 0 56 4 59 51
35z m2016 -28 c25 -98 7 -219 -37 -252 -34 -26 -82 -34 -113 -18 -37 19 -48
40 -63 130 l-13 75 36 30 c45 37 128 79 157 79 17 0 24 -9 33 -44z m2845 -45
c48 -66 68 -108 64 -139 -5 -47 -112 -113 -220 -136 -23 -5 -27 -2 -33 23 -4
21 3 46 30 99 19 39 45 106 57 150 23 78 23 79 45 64 13 -8 38 -35 57 -61z
m-409 -28 c20 -49 53 -118 72 -155 19 -37 32 -71 29 -76 -6 -11 -134 4 -202
23 -67 19 -87 42 -79 89 11 57 109 206 136 206 4 0 23 -39 44 -87z m2078 16
c25 -50 72 -85 132 -100 40 -10 43 -13 53 -61 21 -87 16 -123 -19 -152 -84
-71 -182 9 -197 163 -7 70 -5 207 4 198 3 -2 15 -24 27 -48z m-6259 -170 c9
-23 16 -42 14 -43 -2 -2 -24 -15 -51 -30 l-47 -27 -29 63 -30 63 20 30 c11 17
32 55 47 85 l26 55 17 -77 c9 -42 24 -96 33 -119z m616 149 c6 -24 19 -73 29
-111 l18 -68 -26 -18 c-41 -29 -133 -82 -137 -79 -1 2 -16 51 -32 108 -17 58
-33 112 -37 122 -5 13 4 19 47 32 29 9 67 24 83 35 17 11 33 20 37 20 4 1 12
-18 18 -41z m-495 -22 c33 -9 104 -19 157 -23 l97 -6 15 -46 c8 -25 22 -75 31
-110 9 -36 24 -81 34 -100 10 -20 23 -76 30 -126 7 -49 19 -134 27 -188 9 -54
14 -100 11 -103 -8 -8 -137 342 -137 373 0 7 9 13 20 13 25 0 38 29 19 41 -17
10 -139 37 -204 45 -27 3 -71 10 -97 16 -40 8 -48 14 -48 33 0 13 -16 64 -35
114 -43 110 -43 116 -7 97 15 -8 54 -21 87 -30z m6818 -84 c25 -59 49 -120 52
-134 6 -24 4 -26 -35 -33 -23 -4 -67 -20 -97 -36 -31 -16 -57 -28 -59 -26 -2
1 -26 56 -53 121 l-50 119 21 30 c25 35 90 66 139 67 l36 0 46 -108z m-5730
41 c26 -13 50 -30 53 -38 5 -13 -48 -221 -59 -232 -3 -2 -22 7 -44 20 -21 14
-55 30 -75 37 -21 6 -38 16 -38 21 0 5 16 59 36 120 40 124 33 120 127 72z
m4394 -86 c41 -15 108 -29 153 -33 44 -4 80 -10 80 -15 0 -18 -99 -107 -145
-129 -67 -33 -158 -33 -231 -1 -61 26 -93 58 -126 124 l-24 48 46 47 45 47 65
-31 c36 -17 98 -43 137 -57z m-4660 2 c7 -35 17 -75 22 -89 6 -18 -1 -70 -25
-180 -19 -85 -34 -168 -34 -184 0 -27 -24 -66 -40 -66 -4 0 -10 17 -14 38 -3
21 -33 128 -67 237 -37 119 -57 201 -51 203 6 2 48 27 94 57 46 29 87 52 92
51 5 -1 15 -31 23 -67z m6384 -96 l46 -29 -23 -28 c-16 -18 -24 -40 -24 -65 0
-40 11 -59 48 -83 l23 -15 -29 -12 c-16 -7 -45 -28 -63 -47 -29 -30 -34 -42
-34 -84 0 -58 26 -91 85 -109 22 -6 40 -16 40 -20 0 -15 -102 -102 -114 -98
-20 6 -68 150 -81 242 -13 83 -35 375 -35 455 l0 34 58 -56 c31 -31 78 -69
103 -85z m-7481 14 l30 -57 -30 -15 c-29 -15 -29 -15 -58 27 -16 24 -32 49
-36 55 -4 8 5 20 26 32 17 11 33 19 35 18 1 -2 16 -29 33 -60z m5172 -175 c-2
-103 -5 -189 -7 -190 -2 -2 -12 -1 -23 2 -16 5 -22 22 -32 89 -6 45 -15 105
-20 132 -5 28 -12 68 -15 90 -2 22 -8 57 -11 77 l-6 37 59 -25 58 -25 -3 -187z
m-336 156 c-3 -81 -25 -136 -73 -179 -33 -30 -110 -65 -120 -55 -4 4 -22 52
-39 106 l-31 98 42 5 c49 7 165 57 184 80 30 36 40 20 37 -55z m603 26 c11
-25 32 -59 46 -76 l26 -31 -90 -44 c-107 -53 -134 -83 -129 -144 4 -57 37 -81
119 -87 l61 -5 -6 -31 c-9 -47 6 -89 38 -105 l29 -13 -69 -39 c-38 -21 -72
-35 -75 -31 -3 4 -14 30 -24 57 -13 35 -37 68 -82 111 l-63 61 0 104 c0 57 3
141 7 186 l6 82 52 6 c28 4 69 15 91 25 21 10 40 19 41 19 1 1 11 -20 22 -45z
m-1235 -14 c28 -13 79 -23 131 -27 95 -7 100 -12 69 -77 -51 -107 -201 -71
-239 57 -15 52 -18 67 -11 67 2 0 24 -9 50 -20z m-3306 -212 c35 -117 65 -220
66 -228 1 -14 -183 -119 -211 -120 -8 0 -13 14 -13 38 0 21 -4 63 -10 93 -5
30 -12 79 -15 109 -8 69 -34 225 -41 244 -4 9 5 16 29 20 18 3 53 19 78 35 24
15 46 27 48 25 2 -2 33 -99 69 -216z m583 164 c47 -65 60 -131 69 -342 7 -173
12 -212 44 -344 71 -294 48 -380 -139 -521 -233 -175 -567 -323 -935 -415
-263 -66 -380 -74 -515 -35 -73 22 -135 81 -158 151 -9 27 -21 101 -27 164
-13 147 -38 238 -97 353 -47 91 -48 93 -48 187 0 84 3 101 27 146 24 46 97
124 116 124 5 0 19 -23 32 -50 l23 -50 -22 -24 c-31 -33 -24 -65 19 -90 49
-29 212 -34 334 -11 154 28 411 113 591 193 208 93 455 254 523 339 36 46 107
186 117 231 3 17 10 32 13 32 4 0 19 -17 33 -38z m-1208 -4 c42 -6 77 -14 77
-17 0 -3 -22 -19 -48 -36 -26 -16 -56 -36 -67 -43 -18 -12 -32 -11 -103 8 -45
12 -79 26 -76 31 6 11 114 68 129 69 6 0 45 -5 88 -12z m977 -43 c44 -22 70
-49 70 -72 0 -26 -192 -216 -204 -202 -7 7 68 299 76 299 5 0 31 -11 58 -25z
m6429 9 c59 -11 114 -15 172 -11 58 4 90 2 98 -6 44 -44 -56 -118 -163 -119
-76 -1 -188 21 -224 42 -40 24 -44 70 -10 94 27 20 23 20 127 0z m-7196 -21
c8 -16 24 -62 37 -103 l22 -74 -25 -21 c-91 -74 -149 -116 -155 -111 -9 9 -72
176 -72 191 0 7 34 38 75 69 41 31 77 61 80 66 11 17 24 11 38 -17z m6730
-105 c25 -73 48 -140 52 -149 5 -13 -2 -18 -33 -22 -21 -4 -63 -24 -94 -46
l-56 -39 -51 149 c-28 83 -51 157 -51 165 0 19 115 74 156 74 32 0 32 0 77
-132z m-1202 73 c56 -60 68 -109 78 -331 8 -169 14 -216 46 -355 58 -249 45
-306 -92 -436 -132 -124 -407 -285 -628 -367 -60 -22 -180 -55 -265 -73 -136
-28 -175 -32 -315 -32 -136 0 -169 3 -222 20 -171 57 -214 122 -228 348 -4 50
-8 97 -10 105 -2 8 -7 35 -10 58 -9 65 -41 163 -80 243 -48 100 -60 166 -45
243 27 137 108 241 273 350 48 32 89 57 91 55 1 -2 9 -25 15 -51 l13 -46 -56
-66 c-88 -104 -128 -170 -133 -220 -10 -86 36 -121 179 -137 394 -44 1124 276
1228 539 12 31 10 76 -5 114 -5 13 2 21 27 31 18 8 42 22 53 31 30 23 45 20
86 -23z m2383 -1 c80 -25 139 -76 155 -135 5 -22 13 -94 16 -160 6 -118 22
-248 49 -395 20 -108 13 -189 -21 -251 -40 -74 -156 -172 -293 -246 -312 -170
-669 -262 -1010 -263 -313 0 -491 65 -550 201 -20 47 -24 79 -32 254 -9 201
-10 211 -69 434 -20 73 -21 91 -12 147 24 137 97 229 225 282 42 18 81 32 85
32 8 0 47 -102 40 -105 -1 0 -27 -17 -58 -37 -62 -40 -119 -116 -119 -159 0
-68 89 -120 247 -144 233 -35 517 0 834 105 343 112 587 279 459 313 -48 13
-210 2 -297 -19 -70 -17 -74 -17 -110 0 l-37 18 45 25 c45 24 79 66 79 96 0
18 34 22 201 25 83 2 122 -3 173 -18z m-2800 -42 c-8 -47 6 -46 31 3 22 41 33
36 41 -16 8 -54 19 -58 28 -10 6 32 10 35 41 35 74 0 80 -78 15 -167 -48 -64
-146 -135 -184 -131 -31 3 -31 4 -36 68 -6 83 -13 93 -59 86 -29 -4 -116 9
-129 19 -1 1 2 14 9 28 10 21 54 51 174 116 11 6 32 11 48 11 26 0 27 -1 21
-42z m-5543 13 c35 -10 77 -22 92 -25 27 -7 26 -8 -52 -64 -44 -31 -91 -67
-104 -79 l-25 -21 -99 30 c-89 28 -96 32 -78 44 11 7 58 40 105 73 47 32 88
59 91 60 4 1 35 -8 70 -18z m3664 -32 c41 -60 55 -129 56 -278 2 -164 13 -251
49 -399 58 -237 41 -313 -97 -442 -231 -215 -595 -390 -1008 -483 -221 -50
-441 -22 -530 67 -46 46 -69 111 -80 226 -15 166 -36 253 -91 385 -52 124 -57
207 -17 285 27 53 29 55 78 61 28 4 62 12 77 18 25 9 30 8 44 -14 15 -23 14
-25 -22 -58 -47 -43 -43 -74 13 -102 149 -73 635 25 922 187 208 117 325 237
507 520 27 43 54 76 59 75 6 -2 24 -23 40 -48z m-1504 -46 c53 -24 94 -64 121
-117 16 -32 19 -52 15 -104 -6 -79 -42 -142 -111 -191 -48 -34 -49 -35 -43
-11 29 104 14 222 -36 297 -33 49 -129 112 -171 113 -28 0 -9 16 34 29 49 15
139 7 191 -16z m-1961 2 c0 -8 14 -55 30 -105 17 -50 30 -94 30 -98 0 -4 -18
-17 -40 -30 -22 -12 -65 -43 -95 -67 l-55 -45 -47 92 c-27 51 -48 99 -48 105
0 12 202 163 218 163 4 0 7 -7 7 -15z m4523 -82 c59 -133 65 -157 48 -183 -9
-13 -25 -53 -37 -88 l-21 -65 -17 74 c-10 41 -33 123 -52 183 -19 60 -33 110
-32 112 8 7 54 23 69 23 10 1 26 -20 42 -56z m2992 42 c95 -17 161 -47 171
-77 8 -27 -21 -65 -64 -84 -40 -17 -155 -15 -281 6 -74 13 -96 23 -111 50 -17
31 24 96 70 113 29 11 128 7 215 -8z m-5758 -37 c113 -42 148 -98 148 -238 0
-63 -5 -105 -15 -125 -14 -28 -19 -30 -80 -33 -83 -4 -139 17 -184 70 -47 54
-64 109 -58 181 2 31 6 57 7 57 1 0 19 -7 40 -16 34 -14 40 -14 53 -1 13 14
10 18 -27 36 -22 12 -41 25 -41 30 0 5 12 23 26 40 29 34 36 34 131 -1z
m-1433 -62 c35 -92 65 -221 53 -228 -16 -10 -179 -69 -181 -66 -1 2 -16 47
-33 100 l-31 96 82 71 c44 38 84 70 87 70 4 1 14 -19 23 -43z m-700 0 l88 -23
44 -83 c24 -46 42 -85 41 -86 -1 -2 -41 6 -87 18 l-85 20 -47 89 c-26 49 -47
89 -45 89 1 0 42 -11 91 -24z m5329 -46 c55 -27 95 -74 120 -138 20 -50 17
-59 -29 -78 -43 -18 -41 -19 -48 20 -10 51 -65 96 -119 96 -46 0 -132 -36
-159 -67 -26 -28 -49 -103 -43 -134 7 -29 -11 -39 -74 -39 l-34 0 6 70 c7 87
33 146 92 209 89 95 181 114 288 61z m2128 -92 c24 -56 46 -106 47 -110 2 -4
-53 -8 -122 -8 l-126 0 -11 28 c-24 63 -23 82 7 114 30 31 116 78 145 78 12 0
30 -32 60 -102z m-4001 11 c-103 -94 -185 -149 -315 -213 -160 -79 -375 -150
-544 -180 l-34 -6 7 54 c14 125 86 317 133 358 19 17 21 17 62 -3 136 -65 363
-83 526 -40 50 13 115 36 145 52 78 40 83 35 20 -22z m-2965 -80 c17 -50 31
-94 33 -98 3 -8 -197 -67 -201 -60 -2 2 -14 28 -27 58 l-24 53 29 22 c17 11
57 42 90 68 33 26 62 47 65 47 3 0 19 -40 35 -90z m7437 76 c53 0 94 -3 90 -7
-13 -12 -176 -59 -286 -83 l-109 -24 64 65 c62 62 64 63 104 56 22 -4 84 -7
137 -7z m-5382 -41 c16 -55 16 -48 -10 -149 -11 -44 -22 -107 -24 -140 -3 -46
-8 -61 -21 -63 -34 -7 -60 7 -71 40 -7 18 -20 56 -30 85 l-18 52 48 42 c48 42
96 122 96 159 0 36 17 21 30 -26z m2758 -36 c19 -17 34 -57 27 -78 -4 -11 -39
-27 -108 -48 -118 -37 -137 -39 -137 -14 1 28 35 95 61 118 47 42 120 52 157
22z m-5209 -14 c24 -8 57 -14 72 -14 24 0 32 -8 50 -42 12 -24 30 -55 41 -70
l19 -28 -88 0 -89 0 -42 91 c-31 69 -37 89 -24 84 9 -4 37 -14 61 -21z m1540
-824 c11 -69 23 -147 26 -175 4 -27 8 -57 10 -65 15 -57 15 -98 0 -110 -9 -8
-26 -32 -37 -54 -11 -23 -22 -42 -23 -44 -2 -2 -60 27 -130 63 -69 37 -128 66
-130 64 -10 -11 -113 -195 -144 -259 -21 -41 -43 -85 -49 -97 l-13 -23 -97 50
c-53 28 -126 66 -162 85 -36 19 -73 35 -82 35 -20 0 -66 -55 -142 -170 -31
-47 -62 -93 -68 -102 -12 -15 -27 -9 -160 74 l-146 90 -32 135 c-18 74 -29
137 -26 140 3 3 20 5 38 5 140 -7 475 69 728 163 231 87 360 150 520 258 52
35 96 63 97 62 1 0 11 -57 22 -125z m6961 20 c0 -36 4 -95 9 -132 4 -38 7 -68
6 -68 0 0 -18 9 -40 20 -47 24 -130 27 -179 6 -51 -21 -114 -83 -143 -140 -22
-42 -26 -65 -27 -131 0 -101 27 -168 91 -225 89 -78 185 -86 288 -25 l55 34 1
-32 c0 -18 2 -40 4 -50 2 -9 6 -52 10 -95 18 -229 66 -504 104 -605 9 -24 8
-29 -12 -36 -39 -15 -145 -101 -191 -155 -199 -232 -269 -623 -170 -938 l26
-80 -73 -67 c-40 -36 -121 -114 -180 -173 -101 -103 -107 -107 -123 -89 -24
26 -105 68 -148 75 -44 8 -122 -12 -175 -45 -68 -42 -126 -146 -138 -245 -8
-70 19 -155 66 -208 l28 -33 -39 -41 c-58 -60 -164 -144 -250 -196 l-74 -46
-23 90 c-50 207 -141 381 -288 553 -109 128 -275 236 -412 267 -29 7 -53 14
-53 17 0 22 150 215 259 333 155 169 168 184 240 280 69 91 161 256 161 287 0
11 5 13 18 8 124 -52 215 -44 313 26 67 48 116 172 105 267 -20 168 -145 277
-298 259 -28 -4 -56 -11 -63 -17 -15 -12 -18 4 -35 160 -9 84 -32 247 -46 335
-18 110 -114 619 -119 634 -4 11 3 12 32 7 122 -21 224 -28 363 -23 85 3 171
8 190 11 395 70 622 147 835 284 92 59 92 60 95 -58z m-4711 -140 c34 -222
128 -760 157 -903 31 -154 60 -236 154 -437 90 -192 104 -246 104 -380 0 -84
-6 -124 -28 -200 -44 -152 -104 -244 -275 -423 l-95 -98 -18 36 c-35 67 -59
186 -65 318 -6 132 -16 154 -40 86 -30 -86 -5 -285 52 -414 14 -32 25 -63 25
-69 0 -7 -14 -25 -31 -42 -70 -66 -219 -248 -391 -477 -99 -133 -213 -277
-252 -320 -93 -103 -309 -277 -344 -277 -5 0 -16 26 -26 58 -62 195 -232 417
-417 542 -126 86 -297 151 -402 151 -26 1 -49 5 -52 9 -9 15 80 195 146 292
73 110 112 158 239 298 235 259 317 404 355 625 37 216 -11 617 -151 1265 l-6
26 89 1 c239 2 572 94 848 233 139 70 326 191 370 240 10 11 22 17 25 13 4 -5
17 -73 29 -153z m2315 -150 c15 -133 23 -112 -98 -260 -267 -330 -646 -686
-1028 -968 l-97 -71 -5 52 c-3 29 -8 96 -11 149 -3 54 -8 110 -10 125 -5 25 1
33 56 73 320 230 643 547 997 978 l167 202 8 -82 c4 -46 14 -135 21 -198z
m-500 33 c-89 -105 -276 -293 -414 -417 -140 -126 -357 -306 -369 -306 -4 0
-18 59 -30 131 -19 110 -20 134 -9 144 7 7 49 44 93 82 44 39 127 116 185 171
102 98 107 101 175 117 99 23 301 90 360 119 28 14 54 25 58 25 5 1 -17 -29
-49 -66z m2866 17 c21 -11 41 -24 44 -29 4 -5 13 -75 21 -155 15 -143 15 -147
-4 -175 -34 -48 -94 -83 -143 -83 -123 0 -208 97 -208 236 0 92 69 196 142
218 46 13 109 8 148 -12z m-3455 -181 c-68 -69 -255 -233 -260 -228 -1 2 -12
52 -24 111 -11 59 -23 118 -26 131 l-6 23 148 0 c81 1 162 6 178 12 52 18 51
14 -10 -49z m-3622 -49 c62 -33 124 -60 136 -60 16 0 27 12 44 50 12 27 24 50
27 50 3 0 13 -51 23 -113 10 -61 27 -167 38 -235 l21 -122 -27 -45 c-14 -25
-30 -45 -34 -45 -5 0 -66 28 -137 62 l-127 62 -27 -33 c-15 -17 -62 -103 -106
-190 l-78 -157 -169 93 c-94 51 -176 93 -183 93 -16 0 -119 -142 -169 -232
-20 -38 -41 -68 -45 -68 -5 0 -28 15 -52 33 -58 44 -146 100 -200 128 -24 12
-44 23 -46 24 -4 3 -8 26 -27 150 -8 55 -23 144 -33 198 -11 53 -18 97 -16 97
1 0 60 -36 130 -80 89 -57 136 -80 154 -78 18 2 37 21 73 73 26 39 70 100 98
137 l50 66 155 -79 c85 -43 166 -79 178 -79 28 0 60 39 101 120 28 57 129 240
132 240 1 0 53 -27 116 -60z m4752 -161 c13 -94 15 -137 7 -153 -5 -12 -49
-72 -98 -132 -262 -327 -487 -547 -799 -782 -187 -141 -475 -327 -475 -307 0
3 11 27 24 53 26 53 51 146 64 240 5 34 11 63 13 65 2 2 46 32 98 66 323 215
828 686 1076 1003 33 43 63 77 66 78 3 0 14 -59 24 -131z m-4652 -362 c61 -30
120 -57 130 -60 18 -7 42 12 63 48 8 15 15 -3 38 -96 16 -63 32 -120 36 -128
5 -9 -12 -33 -52 -75 -117 -119 -204 -266 -257 -431 -43 -132 -53 -202 -53
-370 0 -166 12 -233 63 -365 l31 -80 -54 -47 c-105 -92 -217 -211 -363 -388
-159 -192 -365 -410 -376 -397 -3 4 -14 36 -24 71 -27 99 -88 234 -149 324
-159 239 -439 416 -698 443 -38 3 -68 8 -68 11 0 4 80 108 269 348 269 343
313 471 275 809 -8 71 -12 131 -10 134 7 6 160 -94 224 -145 65 -53 74 -47
174 102 49 72 92 137 97 145 8 13 39 0 186 -75 139 -70 180 -87 193 -79 9 6
57 88 106 182 49 95 93 172 98 172 4 0 59 -24 121 -53z m4731 -80 c3 -18 24
-91 46 -161 l40 -128 -102 -117 c-140 -159 -399 -417 -538 -536 -307 -261
-671 -503 -978 -649 l-103 -49 -67 31 c-37 17 -94 38 -127 48 -33 9 -61 18
-63 19 -2 2 35 52 82 113 l85 109 135 66 c290 141 588 333 869 560 188 152
553 526 677 695 13 17 27 32 31 32 4 0 10 -15 13 -33z m-4420 -269 c116 -265
152 -405 142 -553 -15 -227 -96 -367 -312 -541 -74 -59 -98 -74 -105 -63 -18
30 -59 178 -69 252 -39 296 35 583 208 812 69 91 105 133 112 134 3 1 14 -18
24 -41z m5529 -49 c85 -23 147 -111 155 -220 4 -56 1 -75 -21 -121 -53 -117
-179 -165 -292 -111 -23 11 -34 22 -30 32 19 65 28 136 34 260 l6 144 35 13
c44 16 66 16 113 3z m-975 -100 l21 -57 -49 -41 c-117 -99 -237 -285 -300
-467 -30 -88 -35 -95 -108 -161 -344 -311 -591 -492 -891 -652 -69 -37 -134
-70 -143 -74 -13 -4 -32 9 -70 49 -29 31 -81 77 -116 102 -60 44 -62 47 -40
56 72 30 311 154 390 203 444 273 953 709 1216 1043 31 38 59 67 63 63 3 -5
16 -33 27 -64z m2379 -121 c55 -162 65 -216 65 -328 0 -196 -56 -331 -196
-478 -38 -40 -219 -192 -229 -192 -2 0 -9 17 -15 38 -73 244 -53 536 52 747
25 50 69 116 98 149 54 61 165 155 184 156 6 0 24 -42 41 -92z m-2326 -15 c54
-143 72 -318 45 -453 -34 -173 -127 -313 -309 -465 l-102 -85 -8 28 c-4 15 -8
92 -9 172 -2 119 2 162 20 239 35 144 112 315 190 421 43 58 144 170 154 170
5 0 13 -12 19 -27z m-431 -913 c0 -30 4 -70 9 -88 10 -33 9 -34 -117 -160 -70
-70 -157 -162 -192 -205 -90 -110 -263 -244 -468 -362 -46 -26 -87 -44 -92
-39 -4 5 -13 27 -20 49 -7 22 -30 76 -51 120 l-37 79 106 59 c252 140 501 320
762 549 54 47 88 71 92 64 4 -6 8 -36 8 -66z m-6077 -71 c198 -50 392 -176
521 -338 47 -59 136 -200 136 -215 0 -3 11 -30 25 -59 14 -28 36 -87 50 -129
l23 -78 -81 -60 c-99 -72 -238 -143 -326 -165 -103 -26 -225 -30 -301 -10
-197 51 -337 185 -391 373 -26 92 -26 251 1 358 24 99 134 322 164 334 35 15
94 11 179 -11z m4463 -70 c153 -47 283 -127 407 -252 132 -132 233 -303 301
-507 55 -167 55 -168 -3 -213 -68 -51 -202 -121 -281 -146 -205 -63 -378 -43
-533 63 -242 165 -285 503 -108 841 42 80 138 235 146 235 2 0 34 -9 71 -21z
m2156 -190 c219 -80 422 -285 548 -553 47 -99 100 -260 100 -303 0 -17 -11
-26 -53 -42 -215 -80 -366 -77 -546 11 -253 124 -343 391 -240 710 26 79 87
208 99 208 5 0 46 -14 92 -31z m1321 -98 c14 -5 41 -24 60 -41 l36 -31 -112
-132 c-62 -72 -132 -153 -157 -180 l-46 -50 -27 42 c-58 88 -60 189 -4 282 44
73 112 119 177 119 27 0 60 -4 73 -9z m-5903 -73 c134 -25 314 -121 439 -234
84 -76 184 -213 245 -336 75 -151 75 -154 4 -183 -31 -13 -100 -33 -154 -45
-152 -35 -283 -18 -430 55 -126 62 -237 208 -263 345 -15 83 -7 233 19 332
l22 87 32 -5 c17 -3 56 -10 86 -16z m3460 -285 c-32 -37 -240 -253 -244 -253
-1 0 -3 16 -4 35 -2 20 -7 47 -13 62 -5 14 -8 27 -7 28 2 1 32 16 68 35 85 43
199 110 206 121 3 5 10 9 16 9 5 0 -4 -17 -22 -37z"/>
<path d="M8501 7668 c-41 -22 -35 -35 18 -41 27 -3 68 -15 90 -26 53 -28 61
-26 61 9 0 25 -6 32 -37 45 -53 22 -105 27 -132 13z"/>
<path d="M8921 7536 c-21 -25 -6 -46 32 -44 19 1 57 -7 84 -17 84 -30 111 -4
42 42 -50 33 -138 44 -158 19z"/>
<path d="M8505 7470 c-52 -20 -80 -100 -55 -159 14 -35 26 -41 64 -34 51 10
90 106 64 159 -15 31 -44 45 -73 34z"/>
<path d="M8868 7323 c-46 -53 -51 -120 -13 -158 42 -43 88 -26 119 44 22 47
15 105 -14 121 -29 16 -75 12 -92 -7z"/>
<path d="M8495 7256 c-91 -40 -104 -160 -24 -233 52 -47 149 -58 207 -23 51
32 40 40 -46 33 -78 -6 -79 -5 -115 27 -45 39 -50 84 -14 117 73 67 167 54
167 -23 0 -42 20 -42 35 0 28 80 -109 147 -210 102z"/>
<path d="M8943 6974 c-90 -92 -191 -126 -275 -91 -55 23 -56 4 -3 -58 62 -73
99 -97 154 -102 123 -12 250 153 197 255 -9 17 -19 32 -23 35 -5 2 -27 -16
-50 -39z m35 -85 c-6 -19 -18 -45 -27 -58 -16 -25 -103 -71 -135 -71 -17 0
-15 5 12 33 18 18 32 41 32 50 0 9 6 17 14 17 7 0 33 18 57 39 50 44 65 41 47
-10z"/>
<path d="M4745 7296 c-38 -16 -102 -87 -122 -133 -40 -97 53 -164 162 -119 54
23 107 67 121 103 24 55 18 91 -20 129 -38 38 -85 45 -141 20z m114 -60 c20
-23 4 -71 -35 -105 -64 -57 -164 -67 -164 -17 0 36 59 108 109 133 45 23 64
21 90 -11z"/>
<path d="M3618 7099 c-10 -5 -29 -29 -42 -52 -53 -92 -29 -187 48 -187 57 0
106 68 106 147 0 53 -4 62 -40 86 -28 19 -47 21 -72 6z"/>
<path d="M4163 6940 c-38 -23 -71 -83 -79 -143 -6 -39 -3 -46 21 -65 15 -12
40 -22 56 -22 43 0 96 52 114 113 20 69 19 84 -10 112 -29 30 -59 32 -102 5z"/>
<path d="M3660 6846 c-30 -7 -69 -20 -86 -29 -71 -37 -134 -146 -134 -230 0
-92 64 -195 157 -255 137 -88 345 -79 457 19 62 55 87 105 88 178 1 75 -21
119 -89 181 -123 112 -269 163 -393 136z m170 -58 c111 -34 253 -154 264 -223
19 -117 -78 -223 -212 -232 -59 -5 -71 -2 -96 18 -37 29 -56 76 -56 136 0 71
9 93 35 93 25 0 70 32 86 61 23 44 -26 116 -90 132 -31 8 -84 -15 -105 -44
-26 -37 -20 -77 16 -111 l31 -29 -12 -63 c-14 -68 -6 -121 24 -163 15 -21 15
-23 -3 -23 -26 0 -111 46 -145 78 -67 64 -94 172 -61 250 48 116 178 164 324
120z"/>
<path d="M8375 4893 c-90 -19 -160 -74 -202 -158 -56 -110 -38 -262 41 -338
179 -174 457 -39 456 221 0 79 -21 131 -76 192 -59 65 -146 99 -219 83z m108
-66 c85 -36 146 -148 133 -244 -15 -114 -115 -213 -216 -213 -68 0 -152 56
-186 123 -56 107 -3 266 107 321 59 29 113 33 162 13z"/>
<path d="M9027 4319 c-58 -14 -88 -33 -139 -87 -129 -138 -99 -366 60 -459 40
-24 58 -27 127 -28 94 0 138 17 201 81 147 147 88 434 -102 489 -57 17 -90 17
-147 4z m152 -68 c131 -68 169 -243 77 -364 -47 -61 -97 -87 -174 -87 -75 0
-104 13 -159 73 -80 87 -83 202 -9 306 58 82 180 115 265 72z"/>
<path d="M8733 3284 c-23 -9 -62 -33 -87 -55 -155 -137 -123 -401 59 -485 55
-26 152 -32 202 -13 117 43 196 171 188 302 -11 189 -189 312 -362 251z m187
-59 c35 -18 89 -80 106 -121 22 -52 18 -141 -10 -199 -106 -228 -416 -147
-416 109 0 92 67 189 152 220 48 17 125 13 168 -9z"/>
<path d="M7953 2799 c-59 -29 -112 -84 -141 -147 -34 -74 -29 -186 11 -255 51
-86 138 -140 230 -143 214 -7 346 211 250 414 -23 49 -86 110 -136 133 -58 26
-158 25 -214 -2z m189 -48 c48 -20 103 -77 124 -127 18 -44 18 -132 -1 -177
-78 -188 -318 -187 -404 3 -49 107 -1 238 107 295 57 29 115 32 174 6z"/>
<path d="M4483 4931 c-10 -11 -31 -51 -47 -89 l-29 -70 -75 -11 c-41 -6 -78
-14 -83 -17 -5 -3 -9 -18 -9 -34 0 -22 12 -39 58 -76 31 -27 58 -49 60 -50 2
-1 -7 -48 -19 -103 -32 -141 -15 -152 110 -71 l64 41 74 -35 c81 -39 120 -45
130 -19 3 9 -3 55 -15 102 -20 82 -20 87 -3 102 43 41 92 110 89 126 -5 27
-47 43 -113 43 l-60 1 -29 65 c-31 69 -61 114 -76 114 -5 0 -17 -9 -27 -19z
m67 -140 l34 -71 73 0 c40 0 73 -2 73 -5 0 -3 -22 -27 -50 -53 -27 -27 -50
-56 -50 -66 0 -10 7 -45 16 -78 8 -33 14 -64 12 -69 -2 -5 -36 6 -75 25 l-72
35 -66 -45 c-36 -24 -65 -39 -65 -32 1 7 7 40 15 73 23 93 22 97 -47 151 -48
38 -58 49 -43 51 118 12 137 16 142 31 17 50 56 131 62 128 3 -3 22 -36 41
-75z"/>
<path d="M3817 4593 c-13 -21 -32 -59 -43 -85 l-19 -48 -65 0 c-140 -1 -158
-63 -48 -166 l49 -46 -16 -40 c-28 -70 -44 -155 -32 -167 22 -22 74 -7 163 49
19 12 27 8 83 -38 113 -94 124 -92 122 29 -1 46 -4 98 -7 116 -5 25 -2 33 16
43 39 21 110 92 110 110 0 28 -31 48 -105 68 l-70 19 -17 54 c-28 84 -59 139
-79 139 -11 0 -29 -16 -42 -37z m74 -123 c22 -77 24 -81 58 -89 20 -6 55 -15
79 -21 25 -6 42 -16 39 -23 -2 -6 -28 -26 -58 -43 l-54 -32 4 -98 3 -97 -65
46 c-36 26 -69 47 -72 47 -4 0 -33 -16 -65 -35 -32 -19 -60 -35 -64 -35 -3 0
-1 12 5 27 6 15 17 59 25 97 l15 70 -33 25 c-18 14 -46 39 -63 55 l-30 30 40
8 c22 4 59 7 83 7 l43 1 36 75 c19 41 39 73 43 70 4 -2 18 -41 31 -85z"/>
<path d="M4490 4015 c-10 -12 -11 -34 -3 -98 l10 -82 -64 -63 c-52 -51 -64
-68 -61 -90 4 -31 26 -40 110 -41 64 -1 56 11 78 -129 19 -117 55 -107 121 35
34 73 41 82 71 88 172 33 181 48 87 150 l-42 45 22 60 c43 118 16 143 -93 89
l-66 -33 -22 21 c-62 57 -124 77 -148 48z m111 -84 l59 -50 61 35 c34 19 62
34 64 34 2 0 -6 -27 -16 -61 -10 -33 -19 -68 -19 -77 0 -9 21 -37 46 -63 l47
-47 -59 -8 c-33 -4 -68 -8 -78 -8 -15 -1 -29 -23 -57 -90 l-37 -90 -7 50 c-4
27 -10 67 -14 89 l-6 40 -77 5 -77 5 59 65 60 65 -6 55 c-3 30 -7 65 -10 78
-2 12 -2 22 2 22 3 0 33 -22 65 -49z"/>
<path d="M3878 3648 c-89 -24 -171 -141 -169 -245 2 -167 157 -285 316 -238
143 41 218 210 155 352 -15 35 -19 58 -15 85 8 43 -5 50 -24 14 l-13 -24 -35
24 c-63 42 -136 53 -215 32z m175 -68 c20 -12 37 -25 37 -28 -1 -20 -52 -65
-86 -77 -44 -15 -80 -3 -108 37 -22 31 -21 85 2 92 35 10 119 -3 155 -24z
m-189 -105 c24 -36 75 -65 114 -65 44 0 84 22 121 67 l30 37 11 -28 c25 -68 2
-186 -46 -228 -30 -26 -94 -50 -118 -44 -29 7 -67 49 -111 121 l-37 60 5 -46
c2 -26 12 -61 21 -79 9 -18 14 -35 12 -37 -8 -9 -77 67 -91 100 -28 67 -12
152 38 205 l22 24 6 -31 c4 -17 14 -42 23 -56z"/>
<path d="M4397 2932 c-9 -9 -18 -35 -20 -56 -4 -38 -4 -38 -53 -41 -27 -1 -68
-8 -91 -14 -56 -15 -62 -37 -37 -122 3 -12 -2 -15 -25 -11 -69 10 -145 -44
-161 -114 -7 -29 -4 -51 10 -94 l20 -55 -47 -42 c-26 -24 -53 -43 -59 -43 -17
0 -44 -34 -44 -56 0 -28 56 -91 102 -115 21 -11 61 -23 88 -26 43 -5 50 -3 64
19 9 13 18 44 21 69 3 24 7 58 9 74 3 17 5 33 5 37 1 3 20 9 44 13 90 15 144
81 131 163 l-6 37 49 -3 c66 -5 76 9 74 96 -1 58 1 68 16 69 32 3 73 22 79 38
11 28 -28 109 -73 153 -47 46 -71 52 -96 24z m83 -84 c41 -56 39 -68 -9 -68
-41 0 -51 13 -51 71 0 52 21 52 60 -3z m-81 -86 c5 -10 13 -50 16 -90 l8 -72
-37 0 c-57 0 -146 92 -146 151 0 23 13 27 87 28 50 1 64 -3 72 -17z m-179
-154 c41 -29 67 -64 75 -104 5 -25 1 -38 -18 -59 -20 -24 -32 -28 -71 -28 -69
0 -128 50 -142 120 -5 27 -1 37 24 63 38 37 84 40 132 8z m-108 -235 c22 -26
2 -176 -25 -181 -23 -5 -98 32 -126 62 l-23 24 28 15 c16 9 47 34 69 56 44 46
55 49 77 24z"/>
<path d="M3544 2828 l-64 -62 -73 17 c-88 21 -113 21 -121 2 -7 -18 15 -81 49
-139 l26 -44 -56 -77 c-30 -42 -55 -83 -55 -90 0 -36 65 -43 196 -19 29 5 33
2 82 -75 28 -45 57 -81 64 -81 37 1 63 53 73 151 l7 65 70 17 c120 28 142 73
61 126 -25 17 -61 36 -79 43 -30 11 -33 15 -47 92 -19 102 -32 136 -53 136 -8
0 -45 -28 -80 -62z m87 -99 c9 -65 18 -93 29 -96 29 -10 140 -62 140 -66 0 -2
-38 -14 -84 -27 -94 -25 -88 -17 -101 -130 -11 -97 -13 -97 -64 -13 l-47 78
-45 -3 c-24 -2 -64 -8 -88 -13 -24 -5 -46 -8 -48 -5 -2 2 19 36 47 74 l51 71
-40 67 c-23 37 -39 69 -37 72 3 2 36 -3 75 -12 38 -9 76 -13 83 -10 7 3 33 30
58 58 25 29 48 51 52 49 3 -2 12 -44 19 -94z"/>
</g>
</svg>
