<?xml version="1.0" standalone="no"?>
<!DOCTYPE svg PUBLIC "-//W3C//DTD SVG 20010904//EN"
 "http://www.w3.org/TR/2001/REC-SVG-20010904/DTD/svg10.dtd">
<svg version="1.0" xmlns="http://www.w3.org/2000/svg"
 width="1024.000000pt" height="1024.000000pt" viewBox="0 0 1024.000000 1024.000000"
 preserveAspectRatio="xMidYMid meet">
<metadata>
Created by potrace 1.16, written by Peter Selinger 2001-2019
</metadata>
<g transform="translate(0.000000,1024.000000) scale(0.100000,-0.100000)"
fill="#000000" stroke="none">
<path d="M8040 8958 c-99 -50 -103 -131 -17 -393 100 -306 117 -376 151 -612
4 -28 -3 -29 -46 -4 -124 72 -366 66 -534 -13 l-72 -34 -36 112 c-48 145 -123
299 -175 358 -55 62 -137 103 -192 95 -86 -11 -114 -73 -106 -232 4 -94 17
-161 87 -468 17 -71 30 -138 30 -148 0 -16 -125 -170 -153 -189 -4 -3 -26 39
-47 93 -101 250 -266 472 -377 505 -90 27 -166 6 -205 -56 -18 -30 -21 -49
-20 -118 2 -132 39 -230 239 -643 57 -119 101 -221 98 -230 -3 -9 -12 -24 -19
-34 -13 -16 -16 -15 -45 12 -18 17 -47 36 -66 42 -23 9 -36 21 -40 38 -12 47
-64 128 -111 171 -71 65 -144 95 -236 95 -67 0 -79 -3 -102 -24 -55 -52 -18
-170 85 -272 76 -75 151 -112 233 -113 59 -1 65 -3 119 -50 l57 -48 -30 -37
c-16 -20 -46 -56 -68 -80 l-39 -45 -41 61 c-54 80 -121 137 -191 164 -48 18
-69 20 -142 15 -81 -6 -86 -5 -108 18 -13 13 -35 30 -51 36 -23 10 -28 19 -33
61 -12 99 -90 200 -197 254 -101 51 -211 41 -226 -21 -10 -41 3 -131 25 -178
49 -100 178 -206 252 -206 32 0 41 -5 54 -29 8 -16 19 -31 25 -33 6 -2 -12
-27 -39 -56 -85 -91 -128 -214 -118 -343 3 -41 11 -88 17 -103 5 -15 8 -31 5
-36 -3 -4 -36 -14 -74 -21 l-69 -12 -44 35 c-110 89 -252 146 -380 154 -110 7
-158 -3 -177 -37 -28 -51 9 -110 111 -178 51 -35 56 -41 35 -41 -46 0 -221
-39 -307 -68 -100 -34 -158 -62 -221 -107 -29 -21 -51 -30 -60 -25 -8 5 -62
24 -122 44 -225 74 -368 178 -436 317 -35 72 -53 169 -44 236 5 41 9 45 81 88
41 25 78 45 83 45 4 0 10 -9 14 -19 7 -22 41 -47 76 -56 15 -4 36 -26 54 -58
67 -115 291 -179 407 -115 33 18 46 33 57 65 14 38 13 45 -4 83 -49 108 -239
195 -372 171 -33 -6 -45 -4 -68 15 l-28 22 31 36 c41 47 76 110 97 175 25 78
17 206 -18 285 -15 32 -27 60 -27 61 0 2 16 12 36 24 21 13 52 21 79 21 116 0
250 97 293 213 12 32 22 67 22 78 0 34 -29 78 -56 85 -44 11 -157 -2 -207 -24
-65 -29 -154 -115 -169 -163 -6 -22 -22 -46 -37 -55 -14 -9 -38 -27 -52 -41
l-26 -24 -79 47 c-148 87 -203 132 -250 204 -49 76 -77 140 -109 252 l-22 77
43 46 c38 40 49 45 86 45 127 0 287 166 301 310 9 99 -28 139 -118 127 -120
-17 -270 -147 -291 -254 -4 -23 -16 -35 -47 -50 l-41 -20 -36 51 c-124 177
-329 170 -643 -25 l-79 -49 -41 35 c-23 20 -67 48 -97 64 l-56 28 18 34 c10
18 18 39 18 45 0 7 17 15 38 19 124 22 264 167 299 309 19 77 12 128 -22 162
-19 19 -35 24 -78 24 -142 0 -288 -146 -331 -330 -8 -33 -12 -60 -10 -60 2 0
-14 -24 -36 -52 -22 -29 -45 -67 -50 -84 -11 -31 -11 -31 -98 -37 -87 -5 -179
-31 -271 -75 -25 -12 -46 -20 -49 -18 -4 5 29 146 73 315 49 183 22 270 -94
301 -157 42 -370 -130 -501 -405 -74 -156 -150 -450 -150 -582 0 -33 -9 -51
-55 -108 -111 -139 -164 -293 -152 -437 10 -114 62 -194 156 -236 20 -9 37
-17 39 -18 2 -1 -2 -28 -10 -59 -11 -50 -19 -61 -54 -86 -119 -81 -199 -288
-164 -418 14 -52 59 -101 92 -101 34 0 108 50 145 96 91 116 128 242 101 345
-11 45 -12 60 -2 74 10 14 18 3 57 -78 62 -132 207 -341 285 -410 20 -19 20
-19 -46 -76 -96 -83 -140 -135 -173 -205 -24 -51 -29 -74 -29 -138 0 -71 2
-80 33 -119 18 -24 54 -54 82 -68 42 -22 63 -26 135 -26 47 0 108 4 135 8 49
8 51 8 53 -18 1 -14 9 -39 17 -55 11 -22 13 -39 6 -68 -19 -89 12 -204 84
-301 74 -101 144 -140 203 -116 36 16 49 37 62 103 25 134 -42 321 -140 390
-30 22 -39 36 -48 77 -5 28 -7 53 -4 56 4 4 65 31 136 60 l129 52 46 -17 c111
-43 212 -76 294 -97 l87 -22 0 -56 c0 -94 35 -197 82 -241 65 -60 167 22 219
177 15 46 25 63 35 59 14 -5 149 -33 389 -80 165 -32 409 -65 535 -73 l98 -6
-14 -46 c-29 -95 -10 -96 42 -3 77 140 170 248 278 322 165 113 502 189 648
146 129 -37 129 -14 1 43 -130 57 -203 102 -248 152 -33 37 -35 43 -22 57 37
37 191 20 314 -34 137 -60 315 -209 398 -334 63 -95 63 -95 19 -135 -51 -45
-27 -45 60 0 84 44 318 141 453 188 l101 35 11 -64 c7 -35 25 -101 41 -147 17
-45 31 -86 33 -91 1 -5 -43 -18 -98 -28 -189 -35 -475 -117 -504 -144 -23 -21
-5 -28 49 -17 49 10 51 9 76 -20 23 -27 64 -99 64 -112 0 -3 -15 -5 -32 -5
-95 0 -147 -32 -75 -45 44 -9 139 6 327 50 130 31 180 38 306 42 139 5 159 3
260 -21 205 -50 342 -132 753 -449 241 -187 270 -242 171 -331 -57 -51 -126
-83 -253 -115 -479 -122 -1023 63 -1449 493 -71 71 -126 131 -124 133 2 2 32
-4 67 -13 50 -13 113 -18 284 -20 226 -2 285 -9 440 -48 138 -36 248 -83 390
-169 121 -72 158 -87 159 -62 1 17 -119 100 -212 148 -118 61 -254 111 -392
143 -103 24 -143 27 -380 34 -250 7 -270 9 -348 34 -46 15 -87 26 -93 24 -13
-4 47 -90 130 -183 l70 -80 26 -115 c64 -289 105 -410 201 -602 221 -441 483
-760 755 -923 35 -21 72 -45 82 -53 22 -19 22 -61 0 -69 -30 -11 -122 15 -215
62 -50 25 -98 45 -106 43 -21 -4 135 -167 258 -270 120 -101 252 -167 400
-202 138 -32 182 -38 199 -27 25 16 -6 41 -49 41 -46 0 -188 40 -285 81 -102
42 -219 117 -300 193 l-70 65 49 -15 c67 -19 115 -18 154 6 63 39 36 106 -70
176 -216 142 -372 297 -529 524 -107 156 -243 411 -317 595 -40 98 -132 399
-132 429 0 10 21 -4 56 -36 304 -284 782 -458 1154 -420 408 42 630 201 521
374 -45 70 -410 363 -616 495 -140 89 -347 163 -509 180 l-68 8 -44 80 c-24
44 -44 82 -44 85 0 3 60 15 133 27 121 21 289 51 378 68 l36 7 7 -59 c19 -156
144 -318 346 -449 300 -195 452 -298 497 -339 l53 -46 -19 -37 c-31 -63 -70
-193 -81 -275 -13 -102 -13 -262 1 -329 13 -67 63 -228 89 -290 24 -57 24 -57
0 -86 l-19 -23 -28 21 c-16 11 -51 23 -78 26 -42 5 -53 12 -70 38 -26 39 -130
93 -210 107 -158 29 -322 -46 -299 -136 18 -71 144 -161 262 -186 68 -14 164
-7 197 15 22 14 28 14 72 -1 26 -10 50 -18 51 -20 2 -1 -10 -22 -27 -46 -55
-80 -139 -250 -170 -344 -105 -314 14 -608 275 -675 39 -10 79 -38 189 -128
184 -152 242 -206 277 -259 55 -88 28 -93 -92 -19 -47 29 -118 76 -159 105
-112 80 -113 54 -3 -62 111 -116 210 -242 308 -393 68 -103 76 -112 95 -102
20 11 20 12 -7 58 -52 91 -150 227 -204 286 -31 33 -46 56 -35 51 84 -34 105
-39 132 -29 20 6 29 17 31 36 8 70 -80 178 -271 333 l-135 110 45 7 c68 10
167 63 209 111 45 51 88 140 110 227 12 49 15 92 11 175 -8 185 -47 272 -253
559 l-125 175 56 73 c70 92 153 257 167 334 l12 59 60 -2 c38 -1 80 -10 111
-24 77 -34 211 -38 306 -9 96 29 139 69 139 130 0 36 -6 48 -35 76 -46 43
-133 75 -222 82 -89 6 -196 -24 -247 -68 -40 -36 -113 -43 -122 -12 -41 132
-95 226 -184 321 -27 29 -50 55 -50 58 0 2 29 40 65 83 102 126 218 307 299
467 l26 53 20 -20 c12 -12 34 -23 49 -26 24 -5 31 -13 40 -48 13 -54 59 -117
114 -157 134 -99 304 -118 337 -38 54 129 -158 359 -330 359 -51 0 -59 3 -91
36 -18 20 -44 40 -57 45 -13 5 -21 13 -18 18 9 14 36 163 36 198 0 28 6 36 43
54 229 117 364 324 398 612 23 191 -16 426 -100 612 l-29 63 37 30 c26 20 52
31 91 35 73 9 184 64 242 122 86 85 123 200 78 245 -27 27 -60 33 -143 28 -84
-6 -146 -32 -212 -90 l-45 -40 0 134 c0 370 -94 740 -241 954 -52 77 -174 199
-243 243 -72 47 -160 81 -209 81 -18 0 -53 -10 -77 -22z m180 -59 c25 -11 77
-45 117 -75 199 -152 332 -409 394 -760 20 -109 23 -164 24 -356 l0 -227 -34
-35 c-19 -20 -38 -36 -42 -36 -4 0 -33 38 -64 86 -62 92 -257 302 -336 359
-41 31 -49 42 -53 78 -35 264 -48 320 -148 627 -62 189 -79 281 -60 317 29 54
110 63 202 22z m-5264 -44 c35 -54 -9 -174 -100 -272 -92 -100 -167 -124 -222
-72 -18 17 -20 26 -13 62 20 108 86 210 172 268 74 49 136 55 163 14z m-912
-19 c81 -34 85 -110 17 -331 -10 -33 -29 -106 -42 -163 l-23 -102 -169 -90
c-171 -92 -257 -145 -335 -208 -24 -19 -46 -32 -49 -28 -10 10 46 290 76 378
102 303 265 508 435 549 46 11 54 10 90 -5z m1990 -357 c22 -64 -57 -207 -149
-271 -47 -32 -112 -50 -134 -38 -9 4 -22 27 -29 50 -12 38 -11 46 12 95 47
103 175 199 256 193 27 -2 37 -9 44 -29z m-1423 -9 c27 -15 24 -44 -9 -81 -23
-26 -33 -31 -55 -25 -15 3 -27 10 -27 14 0 11 58 102 65 102 4 0 15 -5 26 -10z
m4578 -70 c89 -45 168 -170 236 -368 54 -161 55 -153 -9 -195 -29 -20 -94 -70
-144 -111 -50 -42 -93 -76 -96 -76 -3 0 -6 11 -6 25 0 14 -23 119 -52 233 -49
196 -52 214 -52 338 -1 116 1 134 18 153 24 26 56 27 105 1z m-3773 -64 c91
-42 150 -152 210 -391 13 -55 45 -143 71 -195 58 -120 128 -191 274 -277 143
-84 190 -128 234 -215 31 -62 35 -80 35 -147 0 -42 -5 -93 -10 -113 -17 -59
-90 -158 -153 -209 -50 -40 -200 -139 -211 -139 -4 0 43 159 88 295 51 153 58
187 47 238 -19 82 -89 109 -178 66 -83 -40 -134 -121 -267 -428 -85 -197 -114
-241 -154 -241 -42 0 -66 23 -96 91 -28 60 -28 65 -23 203 6 163 29 270 120
556 112 349 121 447 52 527 -20 24 -30 28 -77 27 -29 0 -67 -8 -84 -17 -74
-39 -169 -138 -225 -234 -29 -51 -30 -51 -72 -46 -23 3 -62 18 -86 34 -25 16
-51 29 -59 29 -8 0 -12 6 -9 13 36 80 57 140 62 178 8 51 -9 147 -32 193 -15
29 -14 31 11 51 51 41 168 106 244 137 129 51 199 54 288 14z m-911 -20 c111
-20 185 -55 255 -122 95 -91 120 -187 82 -311 -32 -101 -100 -190 -218 -284
-34 -27 -64 -49 -66 -49 -2 0 -2 55 0 123 10 302 -54 467 -182 467 -81 0 -146
-113 -180 -315 -20 -111 -36 -300 -36 -420 l0 -90 -60 -31 -59 -31 -17 55
c-43 151 -59 409 -34 587 20 143 54 310 64 317 40 27 211 93 270 103 93 17 88
17 181 1z m1175 -115 c14 -28 12 -58 -6 -86 -19 -30 -44 -33 -44 -5 0 10 -5
31 -12 44 -9 22 -8 29 7 46 23 25 41 25 55 1z m-1703 -68 c-47 -315 -49 -328
-44 -503 4 -145 9 -193 31 -280 14 -58 26 -108 26 -111 0 -10 -90 -47 -179
-75 -89 -27 -209 -43 -277 -36 l-41 4 -22 126 c-32 184 -41 280 -41 427 l0
131 38 35 c44 43 138 113 207 156 71 45 288 163 299 163 5 0 6 -17 3 -37z
m455 -70 c14 -16 31 -39 39 -53 31 -61 49 -307 32 -448 -5 -48 -10 -56 -48
-82 -46 -31 -224 -130 -235 -130 -11 0 -11 170 0 290 15 158 47 304 81 372 42
84 84 100 131 51z m4139 -101 c84 -54 177 -177 263 -350 31 -61 67 -140 80
-175 l23 -62 -108 -153 c-59 -84 -109 -158 -112 -165 -6 -18 -8 -16 -90 148
-195 388 -265 582 -250 696 12 87 106 116 194 61z m1451 -28 l46 -15 -33 -49
c-18 -27 -35 -53 -37 -57 -1 -4 -29 -21 -61 -37 -164 -82 -285 -348 -208 -456
25 -35 96 -39 156 -10 85 41 174 138 229 247 19 38 26 66 26 111 0 54 22 122
40 122 12 0 -10 -295 -29 -388 -63 -310 -249 -560 -380 -511 -86 33 -122 125
-141 359 -16 207 -55 445 -96 582 -9 30 143 94 277 117 64 11 147 5 211 -15z
m-4612 -4 c11 -6 24 -27 30 -48 22 -81 14 -121 -104 -495 -80 -256 -99 -359
-100 -537 -1 -153 -1 -156 29 -215 24 -49 39 -64 75 -82 56 -29 78 -29 121 0
42 28 62 63 145 257 127 296 172 368 253 405 38 16 42 17 65 1 51 -33 43 -92
-48 -356 -15 -41 -38 -115 -53 -164 l-26 -89 -211 -102 c-291 -142 -358 -168
-866 -340 -91 -31 -183 -62 -204 -70 -39 -15 -40 -15 -135 37 -331 177 -583
407 -748 678 -41 69 -96 187 -107 233 -6 26 -5 27 37 27 76 0 212 29 314 66
143 52 135 52 156 0 34 -82 102 -117 155 -80 22 15 24 15 38 -2 17 -23 21 -41
28 -126 7 -85 40 -153 113 -230 119 -124 241 -134 280 -23 20 56 10 155 -22
221 -35 71 -132 161 -192 177 -40 10 -47 17 -65 59 -34 80 -82 109 -124 76
-14 -10 -24 12 -24 52 0 26 10 34 123 96 67 36 129 73 138 81 15 12 17 6 23
-63 10 -104 57 -247 104 -314 47 -69 93 -100 145 -100 32 0 46 7 77 38 29 29
44 59 73 147 19 61 39 125 42 142 l7 33 32 -25 c50 -38 117 -65 164 -65 191
-1 169 245 -37 402 l-34 26 38 57 c81 121 197 225 253 225 13 0 32 -5 42 -10z
m4750 -61 c0 -11 -28 -68 -42 -86 -8 -10 -16 -9 -39 4 -28 17 -28 18 -12 43
33 53 55 70 74 59 11 -5 19 -14 19 -20z m-667 -71 c51 -225 82 -421 92 -580 7
-115 36 -236 71 -296 36 -60 75 -82 150 -82 51 0 68 5 107 31 184 122 317 469
317 828 0 66 4 121 9 121 5 0 57 -46 116 -102 119 -114 245 -275 305 -389 l39
-76 -28 -99 c-87 -302 -249 -572 -457 -767 l-51 -47 -44 16 c-24 9 -87 18
-141 21 l-96 6 -17 38 c-10 21 -33 49 -51 61 -26 17 -34 30 -34 53 0 83 -100
204 -208 252 -74 33 -167 41 -210 19 -86 -44 -47 -214 75 -326 69 -63 126 -90
190 -90 43 0 52 -3 56 -21 4 -15 -1 -22 -19 -30 -14 -5 -31 -9 -39 -9 -21 0
-215 -70 -269 -97 -56 -28 -193 -118 -241 -157 l-31 -25 -53 25 c-60 27 -278
161 -287 176 -3 5 6 27 21 48 53 76 75 159 75 280 0 95 -4 123 -30 204 -17 52
-41 119 -55 149 l-24 54 63 94 c34 52 84 125 111 163 l49 69 32 -69 c38 -84
78 -124 130 -131 49 -6 89 22 104 75 15 57 12 207 -8 304 l-18 88 50 49 c56
54 225 191 237 191 4 0 9 -10 12 -22z m-6093 -418 c6 -47 18 -118 26 -159 7
-41 12 -76 10 -79 -12 -12 -86 26 -128 66 -78 73 -96 171 -58 311 23 81 47
134 94 201 l31 45 6 -150 c4 -82 12 -188 19 -235z m6674 351 c25 -22 17 -119
-15 -180 -56 -104 -186 -211 -257 -211 -65 0 -68 82 -7 208 42 88 101 153 168
187 53 26 77 26 111 -4z m-3476 -34 c28 -22 -2 -108 -62 -175 -41 -45 -131
-92 -184 -95 -32 -2 -36 1 -44 33 -6 19 -17 43 -26 53 -15 17 -15 21 3 53 38
71 126 128 217 142 54 8 73 6 96 -11z m-1730 -5 l33 -18 -30 -28 c-26 -25 -33
-27 -46 -16 -24 20 -36 46 -29 64 8 20 31 20 72 -2z m6290 -48 c28 -19 28 -53
2 -105 -45 -87 -167 -171 -268 -185 -47 -6 -52 -5 -52 12 0 11 -9 34 -20 52
-23 37 -19 48 31 113 38 49 96 87 166 109 72 23 112 25 141 4z m-6391 -19 c3
-9 18 -22 34 -31 24 -12 29 -21 29 -52 0 -39 45 -146 75 -175 12 -12 14 -21 7
-30 -6 -7 -19 -48 -30 -92 -22 -87 -63 -189 -89 -217 -23 -25 -66 -22 -101 7
-68 57 -142 255 -142 381 l0 62 83 65 c45 36 89 72 96 81 17 20 30 20 38 1z
m265 -6 c100 -51 198 -177 198 -256 0 -64 -27 -87 -92 -80 -63 8 -121 41 -181
106 -56 60 -77 104 -77 161 0 81 68 112 152 69z m4138 -159 c18 -104 10 -252
-14 -279 -45 -50 -101 -6 -136 106 -11 36 -20 70 -20 75 0 13 139 168 150 168
5 0 14 -32 20 -70z m-2914 -5 c8 -34 0 -51 -34 -69 -28 -14 -31 -14 -51 8
l-22 23 36 32 c43 38 63 39 71 6z m4532 -94 c3 -33 -19 -71 -42 -71 -6 0 -19
14 -28 31 -18 30 -17 30 9 55 35 33 57 28 61 -15z m-6609 -166 c12 -60 12 -68
-4 -85 -34 -38 -67 -20 -104 56 l-19 39 51 27 c29 15 55 27 58 28 3 0 11 -29
18 -65z m4051 50 c65 -23 135 -80 179 -147 49 -72 52 -108 15 -137 -38 -30
-81 -26 -162 14 -78 39 -129 89 -167 164 -28 55 -30 73 -15 102 13 24 87 26
150 4z m-633 -36 c95 -36 176 -132 198 -236 6 -28 2 -38 -25 -64 -25 -26 -36
-30 -61 -25 -54 10 -98 37 -155 93 -80 79 -120 181 -90 228 21 31 56 32 133 4z
m3193 -183 c32 -90 60 -249 60 -336 0 -130 -34 -280 -90 -395 -41 -86 -59
-111 -124 -172 -62 -60 -165 -133 -186 -133 -4 0 -11 26 -18 58 -20 98 -91
189 -211 269 -2 1 29 35 69 75 209 208 334 432 437 778 5 15 23 -26 63 -144z
m-6481 118 c25 -32 27 -69 5 -78 -26 -10 -30 -7 -49 27 -14 27 -15 38 -6 55
15 29 25 28 50 -4z m-865 -60 c17 -7 23 -78 8 -101 -12 -18 -54 -4 -48 16 3 9
8 33 12 54 3 20 8 37 9 37 2 0 10 -3 19 -6z m994 -63 c92 -48 162 -157 170
-262 5 -65 -8 -96 -45 -110 -82 -31 -264 172 -267 299 -1 36 4 48 27 68 34 29
66 30 115 5z m4128 -102 l38 -39 -20 -20 -20 -21 -47 41 c-48 43 -55 58 -36
77 17 17 43 5 85 -38z m-5146 1 c67 -67 21 -255 -89 -367 -61 -62 -93 -71
-122 -34 -18 23 -21 36 -17 108 4 66 10 93 37 148 39 79 84 133 126 151 40 17
42 17 65 -6z m5331 -121 c30 -78 32 -93 33 -214 1 -120 -1 -134 -25 -185 -14
-30 -36 -66 -48 -80 l-21 -25 -72 75 c-39 41 -97 109 -129 151 l-58 77 70 78
c38 44 97 118 131 166 72 101 63 105 119 -43z m-878 73 c25 -22 21 -36 -17
-54 -33 -16 -34 -16 -57 8 l-22 24 22 24 c24 26 42 25 74 -2z m323 -78 c46
-28 125 -115 154 -169 13 -24 12 -27 -21 -55 -58 -51 -196 -141 -278 -181
-128 -63 -357 -144 -365 -130 -15 26 -28 124 -23 180 17 223 204 397 418 388
53 -2 76 -8 115 -33z m1352 -51 c142 -63 227 -223 151 -285 -28 -24 -93 -23
-147 2 -57 26 -140 112 -170 178 -57 126 15 172 166 105z m-3408 -20 c14 -9
26 -17 28 -19 3 -2 -13 -30 -34 -62 -7 -10 -47 13 -61 34 -14 23 -14 26 2 44
22 24 33 25 65 3z m228 -37 c69 -19 130 -55 175 -105 43 -48 46 -73 12 -106
-22 -23 -32 -25 -107 -25 -70 0 -92 4 -143 28 -70 34 -125 90 -125 130 0 27
22 69 44 84 17 12 87 9 144 -6z m2076 -192 c27 -36 84 -103 128 -149 44 -47
77 -89 73 -95 -11 -18 -117 -67 -215 -99 -52 -17 -96 -31 -97 -31 -7 0 -1 80
8 115 12 44 68 105 96 105 10 0 31 -7 47 -15 35 -19 46 -19 46 -2 0 48 -103
72 -158 37 -43 -27 -81 -108 -89 -192 l-6 -63 -96 -32 c-53 -17 -130 -44 -172
-59 l-77 -28 -36 19 c-57 31 -133 102 -162 151 -27 46 -25 64 6 64 29 0 245
82 337 128 99 49 206 119 264 172 24 21 47 39 50 40 3 0 27 -30 53 -66z
m-2629 -149 c64 -191 242 -334 517 -416 40 -11 76 -23 81 -26 4 -2 -15 -30
-41 -61 -27 -31 -59 -72 -72 -91 l-23 -34 -131 6 c-138 7 -368 40 -570 81 -66
13 -174 34 -238 47 l-118 22 0 54 c0 35 -9 77 -26 119 -24 60 -25 72 -17 145
l8 80 105 43 c127 52 471 213 485 227 7 7 12 -16 17 -68 3 -43 14 -100 23
-128z m4015 35 c0 -4 -17 -10 -37 -13 -27 -5 -42 -2 -55 10 -23 21 -23 24 4
58 l22 28 33 -38 c18 -21 33 -41 33 -45z m-5777 -98 c85 -61 233 -155 346
-220 16 -9 -260 -120 -397 -158 -125 -35 -238 -32 -299 8 -78 51 -97 154 -47
255 29 60 105 147 178 205 l49 39 31 -26 c17 -14 79 -60 139 -103z m6013 37
c24 -6 44 -14 44 -18 -1 -15 -172 -128 -274 -182 -137 -71 -188 -92 -346 -139
l-125 -37 -92 33 c-108 38 -135 52 -129 63 8 13 135 96 206 134 152 83 416
155 573 156 54 1 118 -4 143 -10z m153 -63 c49 -31 114 -105 139 -159 30 -64
47 -126 36 -137 -14 -13 -150 -48 -258 -65 -153 -25 -381 -20 -586 11 -54 8
-87 23 -53 24 30 0 190 59 288 105 108 51 225 123 310 189 39 30 73 55 78 55
4 1 25 -10 46 -23z m-5085 -28 c-14 -103 -12 -98 -54 -98 -38 0 -40 1 -40 33
0 42 12 59 52 74 45 16 46 16 42 -9z m3640 -58 c41 -28 110 -69 153 -91 131
-70 126 -65 108 -99 -8 -16 -20 -51 -26 -79 l-10 -50 -52 -11 c-156 -32 -328
-61 -414 -71 -54 -6 -102 -11 -108 -12 -12 -2 -81 199 -90 264 l-7 47 111 36
c109 35 186 69 226 100 11 8 23 16 27 16 4 0 41 -23 82 -50z m-3779 -9 c-1
-32 -9 -59 -25 -81 -13 -18 -34 -58 -46 -89 -27 -64 -15 -63 -159 -20 -134 40
-215 70 -215 79 0 4 100 41 223 83 122 41 222 75 223 76 0 0 0 -21 -1 -48z
m2681 -3 c30 -61 92 -135 136 -164 24 -16 44 -33 43 -39 0 -13 -115 -67 -115
-54 0 18 -105 172 -147 217 l-39 42 40 14 c59 21 64 20 82 -16z m-2548 -90
c81 -88 28 -376 -80 -437 -25 -15 -29 -14 -52 8 -36 34 -50 84 -51 181 0 113
18 172 70 227 47 49 80 55 113 21z m4066 -112 l89 -34 -54 -15 c-55 -16 -153
-37 -169 -37 -5 0 -5 14 1 33 13 47 31 87 38 87 3 0 46 -16 95 -34z m1190
-164 c-26 -137 -97 -298 -211 -485 -53 -88 -240 -347 -250 -347 -3 0 -25 18
-50 39 -24 22 -125 93 -223 158 -98 65 -179 121 -179 124 -2 16 64 31 144 33
109 2 178 30 256 103 150 140 101 259 -99 239 -118 -12 -237 -83 -282 -169
-21 -39 -32 -48 -89 -71 -36 -15 -72 -29 -79 -33 -7 -3 -49 32 -101 83 -102
103 -161 207 -169 297 l-4 52 159 38 158 38 182 -30 c244 -42 463 -44 647 -6
66 13 139 31 161 38 51 18 52 14 29 -101z m-6234 79 c18 -34 12 -68 -12 -74
-13 -2 -30 -8 -39 -11 -13 -6 -20 1 -29 29 -18 54 -8 66 57 74 7 0 17 -8 23
-18z m64 -130 c98 -61 166 -270 122 -376 -12 -29 -20 -35 -45 -35 -80 0 -211
202 -211 323 0 42 20 79 50 94 34 17 47 16 84 -6z m4266 -208 c0 -1 -19 -3
-42 -3 -47 -1 -140 -17 -288 -50 -52 -11 -107 -23 -121 -26 -24 -5 -29 -1 -50
41 -13 26 -34 58 -47 72 -13 14 -22 26 -20 27 17 12 239 64 342 80 l131 21 47
-79 c27 -44 48 -81 48 -83z m1988 56 c10 -15 9 -24 -4 -44 -15 -23 -18 -24
-43 -10 -47 24 -54 39 -36 75 16 30 16 30 44 14 15 -9 33 -25 39 -35z m-579 4
c29 -20 26 -53 -8 -100 -56 -77 -189 -137 -288 -131 -41 3 -50 7 -61 31 -8 16
-11 39 -8 52 12 48 120 134 196 155 45 13 148 9 169 -7z m748 -53 c97 -25 233
-169 233 -247 0 -44 -36 -68 -87 -58 -111 21 -261 137 -288 223 -15 49 37 108
85 97 8 -2 34 -9 57 -15z m-1153 -166 c8 -21 1 -31 -35 -49 -27 -14 -32 -14
-59 2 -17 9 -30 21 -30 25 0 7 82 36 106 37 7 1 15 -6 18 -15z m612 -719 c43
-85 46 -98 51 -191 4 -74 1 -115 -11 -164 -29 -111 -177 -359 -197 -329 -20
30 -79 240 -94 334 -25 150 -7 299 57 479 l32 90 58 -64 c38 -40 76 -97 104
-155z m559 -94 c147 -52 158 -122 27 -172 -114 -44 -321 -18 -314 40 1 13 -5
38 -14 57 -9 19 -15 36 -13 38 2 2 33 15 69 29 81 33 167 35 245 8z m-345
-116 c0 -32 -2 -35 -29 -35 -51 0 -81 17 -81 45 0 24 3 25 55 25 l55 0 0 -35z
m-746 -459 c28 -14 66 -40 84 -59 33 -34 33 -35 19 -69 -21 -49 -40 -65 -90
-72 -96 -15 -234 29 -304 96 -43 42 -47 65 -16 94 54 50 214 56 307 10z m248
-134 l37 -17 -23 -28 c-20 -25 -28 -28 -57 -22 -19 4 -43 13 -53 21 -16 12
-18 18 -8 39 14 30 49 33 104 7z m210 -103 c40 -59 96 -140 124 -180 183 -264
210 -518 75 -712 -39 -56 -77 -90 -131 -119 -39 -20 -59 -23 -145 -23 -89 1
-106 4 -153 28 -72 38 -125 96 -170 185 -36 74 -37 78 -37 191 0 132 19 207
88 345 74 150 252 413 269 397 4 -3 40 -54 80 -112z"/>
<path d="M4850 5853 c-65 -49 -108 -95 -126 -134 -17 -39 -17 -40 3 -67 14
-19 31 -28 55 -30 61 -5 247 66 365 141 49 31 60 46 43 57 -9 5 -55 -13 -124
-50 -124 -65 -281 -119 -298 -102 -24 24 36 106 119 163 24 17 43 34 43 39 0
19 -46 9 -80 -17z"/>
<path d="M4544 5669 c-110 -49 -150 -79 -141 -104 6 -14 15 -16 42 -12 42 7
151 60 183 90 20 19 31 67 15 67 -5 0 -49 -19 -99 -41z"/>
<path d="M3715 5580 c-99 -26 -197 -53 -295 -83 -254 -76 -340 -101 -390 -114
-148 -39 -341 -106 -389 -135 -100 -60 -98 -130 4 -226 72 -67 207 -133 362
-175 112 -30 127 -32 293 -32 158 1 185 3 276 28 168 45 315 116 409 198 30
27 46 59 30 59 -3 0 -31 -17 -63 -39 -87 -59 -212 -118 -335 -159 l-112 -36
-190 -1 c-177 0 -197 2 -288 27 -194 55 -361 146 -401 220 -19 34 -19 37 -2
63 22 33 87 62 231 104 118 34 245 72 500 150 438 134 479 142 632 123 117
-15 203 -16 203 -3 0 16 -13 20 -119 36 -135 20 -269 19 -356 -5z"/>
<path d="M4979 5553 c-22 -59 20 -134 104 -187 l50 -31 -57 -7 c-82 -11 -157
-48 -224 -112 l-57 -55 -47 54 c-49 55 -133 105 -176 105 -32 0 -26 9 37 61
61 50 102 112 85 129 -8 8 -36 -6 -100 -48 -86 -56 -222 -121 -294 -139 -53
-14 -150 -16 -150 -4 0 6 16 28 35 50 19 21 35 42 35 46 0 11 -141 -3 -245
-25 -87 -18 -131 -34 -370 -135 -181 -77 -264 -104 -384 -128 -115 -23 -146
-40 -93 -50 27 -5 154 7 197 19 48 13 172 62 330 129 233 99 488 179 473 149
-2 -5 -10 -22 -18 -37 -17 -35 -6 -58 36 -72 16 -5 31 -10 33 -12 2 -1 -16
-24 -41 -51 -52 -55 -82 -118 -104 -212 -27 -112 2 -222 80 -304 20 -22 35
-40 33 -42 -1 -2 -61 6 -132 16 -221 33 -351 40 -511 29 -390 -26 -700 -140
-916 -338 -278 -255 -409 -673 -339 -1078 65 -372 326 -684 680 -813 178 -65
436 -91 588 -60 46 10 57 9 71 -3 9 -9 46 -25 82 -37 135 -45 328 -21 465 59
79 46 169 134 266 261 101 133 186 217 251 248 76 36 79 35 111 -43 77 -188
100 -377 72 -585 -10 -69 -20 -184 -22 -257 -5 -123 -4 -132 16 -152 12 -12
27 -21 34 -21 30 0 94 60 131 123 21 37 39 67 40 67 0 0 1 -84 1 -188 1 -213
15 -289 65 -337 54 -51 121 -9 136 87 7 42 24 42 24 -1 0 -39 52 -189 94 -268
62 -117 138 -190 161 -154 3 5 -20 45 -51 88 -118 162 -178 335 -191 548 -5
96 -12 120 -27 96 -3 -5 -14 -76 -25 -159 -19 -148 -37 -207 -68 -219 -31 -12
-57 69 -73 232 -14 134 -1 317 31 444 39 151 14 145 -52 -14 -51 -125 -107
-220 -154 -265 -30 -29 -38 -32 -46 -20 -14 21 -2 218 23 370 23 140 20 302
-5 400 -31 115 -33 105 26 130 28 12 81 39 117 60 53 31 78 38 138 43 173 14
269 127 243 287 -16 97 -58 170 -83 145 -3 -3 5 -31 18 -63 41 -98 30 -195
-29 -259 -26 -29 -116 -63 -165 -63 -20 0 -91 9 -157 20 -197 33 -277 25 -372
-36 -82 -53 -146 -117 -245 -246 -172 -225 -298 -310 -494 -333 -63 -7 -171 8
-212 29 -22 11 -19 14 53 45 212 94 366 245 565 557 56 87 103 160 104 161 1
1 37 12 81 24 63 18 106 22 205 22 115 0 138 -3 289 -42 147 -38 169 -42 203
-32 113 34 87 186 -48 276 -212 143 -485 92 -692 -130 -34 -36 -123 -159 -199
-273 -114 -173 -154 -224 -243 -312 -121 -122 -216 -182 -358 -230 -130 -43
-237 -55 -372 -42 -284 29 -515 140 -693 332 -120 130 -195 268 -243 450 -26
96 -28 120 -29 285 0 167 2 187 29 285 33 121 94 259 156 351 85 125 257 276
398 348 114 58 316 115 501 142 136 19 511 7 706 -24 294 -46 371 -52 444 -32
82 21 131 46 183 93 38 35 42 36 52 18 29 -49 90 -119 125 -141 160 -106 368
-93 526 32 97 77 165 214 165 334 0 102 -63 236 -143 304 l-41 35 31 0 c40 0
83 33 66 51 -7 7 -54 23 -104 35 -122 31 -250 96 -310 157 -27 27 -51 58 -54
68 -9 27 -24 24 -36 -8z m-373 -288 c49 -20 98 -60 129 -105 l27 -39 -25 -63
c-34 -85 -42 -162 -27 -245 l13 -67 -52 -48 c-165 -151 -495 -96 -577 97 -12
28 -17 67 -17 131 0 82 4 99 33 163 23 50 49 86 81 115 45 40 53 43 121 49 40
4 91 13 113 22 46 17 127 13 181 -10z m623 6 c121 -38 209 -112 259 -219 23
-49 27 -70 27 -147 0 -77 -4 -98 -27 -148 -40 -84 -114 -157 -201 -198 -66
-30 -80 -33 -167 -33 -83 0 -102 4 -154 29 -79 38 -140 100 -178 183 -93 206
20 461 237 531 77 25 128 26 204 2z m-99 -1930 c53 -54 68 -88 51 -120 -18
-32 -55 -36 -134 -13 -99 29 -267 62 -314 62 l-38 0 45 28 c92 58 192 89 283
91 57 1 59 0 107 -48z"/>
<path d="M4394 4886 c-81 -81 -7 -174 96 -121 81 42 62 155 -26 155 -28 0 -44
-8 -70 -34z"/>
<path d="M4935 4885 c-39 -38 -35 -97 9 -141 78 -78 185 -3 142 99 -26 64
-107 87 -151 42z"/>
<path d="M4820 4481 c0 -15 97 -97 137 -116 133 -63 299 -59 421 12 49 28 112
81 112 94 0 17 -20 9 -70 -25 -90 -62 -152 -80 -270 -81 -97 0 -110 3 -170 31
-36 17 -82 45 -104 63 -39 32 -56 38 -56 22z"/>
<path d="M5946 4262 c-3 -5 4 -58 16 -118 26 -138 31 -416 8 -478 -34 -89 -75
-68 -85 42 -8 88 -23 144 -38 139 -8 -2 -14 -54 -18 -168 -5 -129 -11 -179
-29 -234 -35 -112 -69 -146 -90 -90 -7 19 -40 237 -40 267 0 4 -4 8 -9 8 -17
0 -24 -113 -13 -197 13 -98 33 -140 69 -149 64 -16 112 53 141 203 16 87 18
90 39 80 30 -13 75 6 95 41 23 38 48 169 48 249 0 91 -45 379 -62 401 -12 14
-25 16 -32 4z"/>
<path d="M3535 3881 c-59 -27 -158 -138 -199 -223 -48 -101 -59 -151 -54 -261
3 -84 6 -97 30 -129 52 -68 117 -58 214 34 194 183 288 501 173 582 -31 22
-113 20 -164 -3z m145 -58 c19 -24 21 -37 17 -93 -9 -126 -65 -242 -174 -360
-65 -70 -119 -105 -147 -94 -9 4 -23 18 -30 33 -40 78 -26 195 39 327 67 137
150 214 232 214 33 0 46 -5 63 -27z"/>
<path d="M2446 3741 c-4 -5 3 -33 14 -61 16 -41 20 -74 20 -173 1 -139 10
-191 39 -221 20 -19 22 -19 38 -3 44 44 19 257 -45 386 -36 73 -54 93 -66 72z"/>
<path d="M6714 2496 c-3 -8 -1 -38 5 -66 19 -87 14 -278 -9 -352 -20 -66 -58
-115 -83 -105 -8 3 -21 41 -31 93 -9 48 -19 91 -22 96 -15 24 -22 -3 -27 -104
-6 -138 -46 -281 -113 -407 -44 -84 -48 -105 -16 -85 48 30 115 171 148 311
15 64 19 71 35 63 56 -31 119 20 152 124 29 93 30 277 2 374 -19 66 -31 83
-41 58z"/>
<path d="M5479 1573 c-10 -69 108 -273 216 -372 24 -22 51 -41 59 -41 33 0 25
24 -31 86 -97 109 -152 185 -188 262 -31 63 -53 88 -56 65z"/>
</g>
</svg>
