<?xml version="1.0" encoding="UTF-8" standalone="yes"?>
<svg version="1.0" xmlns="http://www.w3.org/2000/svg" width="1024.000000pt" height="1024.000000pt" viewBox="0 0 1024.000000 1024.000000" preserveAspectRatio="xMidYMid meet">
  <metadata>
Created by potrace 1.16, written by Peter Selinger 2001-2019
</metadata>
  <g transform="translate(0.000000,1024.000000) scale(0.100000,-0.100000)" fill="#000000" stroke="none">
    <path d="M3995 9703 c-344 -30 -793 -179 -1055 -351 -152 -99 -399 -317 -519&#xA;-457 -58 -68 -188 -263 -244 -366 -167 -307 -275 -699 -302 -1094 -4 -49 -9&#xA;-101 -12 -115 -2 -14 -7 -158 -10 -320 l-4 -295 -52 -6 c-69 -9 -166 -41 -220&#xA;-72 -58 -34 -161 -145 -193 -210 -68 -134 -89 -275 -60 -399 37 -159 166 -328&#xA;292 -384 32 -14 68 -30 79 -34 167 -73 433 -11 580 135 201 199 218 524 40&#xA;758 -41 54 -43 45 43 215 55 111 57 113 72 90 8 -12 30 -39 48 -59 22 -26 32&#xA;-46 32 -70 0 -49 27 -153 51 -200 42 -83 116 -143 212 -173 13 -4 17 -18 18&#xA;-66 1 -33 2 -63 3 -67 1 -5 5 -34 10 -66 16 -118 82 -301 137 -377 l29 -40&#xA;-22 -43 c-21 -39 -23 -56 -25 -214 -1 -165 -2 -175 -28 -230 -40 -84 -65 -172&#xA;-65 -223 0 -26 13 -74 29 -115 18 -43 25 -74 20 -81 -44 -54 -197 -376 -257&#xA;-540 -111 -304 -184 -620 -228 -989 -21 -170 -25 -581 -10 -846 5 -85 6 -172&#xA;2 -191 -11 -59 -68 -122 -176 -193 -55 -36 -105 -75 -111 -87 -17 -31 -5 -103&#xA;25 -148 51 -77 225 -196 456 -310 74 -37 158 -76 185 -85 28 -10 55 -22 60&#xA;-26 19 -14 281 -107 420 -149 77 -23 141 -43 143 -44 1 -2 -13 -29 -33 -61&#xA;-78 -130 -99 -244 -59 -320 16 -30 35 -47 79 -70 86 -44 180 -45 309 -2 l96&#xA;31 52 -27 c29 -15 80 -43 113 -62 33 -19 92 -48 132 -65 63 -27 84 -30 171&#xA;-31 120 -1 173 21 200 80 9 20 17 37 18 39 0 1 36 -7 80 -19 105 -28 251 -31&#xA;315 -6 132 51 166 196 70 297 l-38 40 176 0 c199 1 295 8 566 46 l190 27 70&#xA;-43 c182 -112 437 -214 573 -230 120 -13 190 3 229 54 18 23 22 23 74 14 30&#xA;-6 95 -8 145 -6 75 3 100 9 150 33 53 27 61 35 79 82 19 50 22 53 56 53 20 0&#xA;56 7 80 15 78 28 119 83 119 160 0 93 -59 172 -172 228 -80 40 -209 82 -285&#xA;92 -26 4 -55 8 -63 11 -10 2 18 38 86 108 110 114 207 251 277 392 50 101 111&#xA;274 122 346 4 26 12 53 19 61 6 8 130 45 276 83 183 48 272 76 289 90 24 21&#xA;26 29 32 155 4 74 8 184 9 244 l1 110 42 30 c98 71 174 244 184 420 12 210&#xA;-49 372 -165 440 -41 24 -43 58 -4 82 52 34 51 27 52 366 0 347 -2 362 -58&#xA;391 -32 16 -327 82 -455 101 -49 7 -91 16 -95 20 -3 3 -1 15 6 26 62 99 82&#xA;174 82 309 0 139 -20 225 -76 340 -36 72 -62 110 -109 155 -64 63 -147 105&#xA;-206 105 -26 0 -30 3 -24 18 42 105 54 404 21 537 -24 102 -65 201 -112 275&#xA;-65 102 -76 128 -101 245 -65 307 -155 591 -239 760 -53 104 -146 245 -206&#xA;310 -18 20 -24 33 -17 41 21 25 49 130 49 183 0 121 -59 262 -139 333 -41 36&#xA;-47 47 -58 105 -22 118 -74 197 -176 267 -64 44 -205 91 -316 106 l-84 11 -91&#xA;83 c-316 285 -772 479 -1235 526 -95 9 -372 11 -466 3z m570 -128 c335 -54&#xA;689 -194 912 -361 62 -47 114 -88 117 -92 3 -4 -21 -5 -52 -1 -31 4 -145 8&#xA;-252 8 -365 2 -690 -56 -1055 -188 -395 -142 -691 -307 -1010 -562 -206 -164&#xA;-487 -448 -538 -544 -25 -46 -20 -15 13 90 60 186 154 391 281 612 40 68 69&#xA;127 65 130 -9 9 -127 -114 -194 -202 -29 -39 -82 -128 -117 -200 -93 -189&#xA;-133 -306 -189 -555 -20 -84 -41 -144 -81 -225 -82 -168 -98 -231 -100 -410&#xA;l-2 -150 -55 -110 c-31 -60 -65 -133 -77 -161 l-22 -51 -73 37 c-40 21 -98 44&#xA;-129 50 l-56 13 -7 56 c-8 67 2 446 16 586 56 569 148 879 364 1234 150 246&#xA;371 476 626 650 276 189 650 321 1030 361 116 13 471 4 585 -15z m956 -555&#xA;c187 -15 403 -47 475 -71 65 -21 163 -75 202 -112 23 -21 63 -91 76 -133 6&#xA;-19 3 -20 -41 -15 -27 4 -54 6 -60 5 -7 -1 -17 -2 -23 -3 -24 -3 -5 -21 68&#xA;-63 88 -52 179 -140 218 -211 35 -64 42 -147 20 -215 l-17 -52 -102 55 c-236&#xA;125 -488 173 -862 161 -635 -19 -1170 -175 -1580 -462 -177 -123 -212 -151&#xA;-364 -288 -139 -125 -260 -255 -372 -402 -93 -121 -202 -301 -193 -316 4 -6 3&#xA;-8 -3 -5 -22 14 -149 -318 -168 -440 -8 -53 -25 -55 -84 -12 -31 22 -52 49&#xA;-74 97 -30 62 -32 75 -32 172 0 85 6 130 33 237 19 73 31 137 27 143 -18 29&#xA;-88 -88 -122 -202 -7 -26 -16 -48 -19 -48 -3 0 -19 30 -37 68 -30 63 -32 73&#xA;-31 177 0 84 5 127 23 185 26 86 110 252 182 358 27 40 46 78 43 84 -4 6 -3 8&#xA;3 5 6 -4 37 28 69 71 68 90 269 299 403 419 337 301 746 529 1211 677 393 124&#xA;742 166 1131 136z m691 -1055 c65 -26 141 -79 198 -138 19 -20 38 -33 42 -31&#xA;5 3 7 2 6 -3 -2 -4 17 -35 42 -68 152 -201 242 -439 270 -710 6 -60 13 -134&#xA;16 -163 5 -48 11 -59 73 -125 118 -127 168 -221 196 -368 19 -101 19 -188 1&#xA;-300 -21 -128 -43 -171 -103 -201 -169 -86 -346 -249 -475 -439 l-52 -77 -95&#xA;5 c-109 6 -182 -8 -278 -55 l-60 -29 -62 59 c-126 116 -298 221 -445 270 -93&#xA;31 -207 35 -283 9 -91 -31 -128 -56 -178 -123 -57 -75 -84 -161 -92 -292 l-6&#xA;-101 -66 2 c-213 5 -436 29 -644 68 -281 53 -358 94 -564 301 -88 89 -108 115&#xA;-147 196 -24 51 -49 117 -55 146 -14 68 -14 222 0 297 22 120 102 278 173 344&#xA;30 29 31 41 10 141 -50 234 50 643 219 895 92 137 237 267 368 327 114 53 196&#xA;72 319 72 133 1 165 -4 257 -41 152 -60 284 -184 365 -340 18 -34 37 -59 42&#xA;-56 5 3 6 1 2 -5 -4 -6 7 -50 24 -97 38 -111 68 -255 86 -425 22 -207 23 -198&#xA;-41 -254 -30 -26 -80 -80 -111 -119 -31 -40 -105 -120 -165 -178 -99 -97 -109&#xA;-110 -109 -143 0 -48 50 -100 62 -64 2 6 13 -16 25 -50 88 -258 355 -480 582&#xA;-483 83 -1 128 12 198 58 120 79 213 231 263 429 9 36 15 43 62 63 78 34 116&#xA;66 129 111 20 67 1 95 -170 242 -162 139 -231 183 -342 221 l-74 24 -17 69&#xA;c-21 82 -41 315 -33 393 3 31 8 81 11 111 18 194 68 364 138 474 31 49 103&#xA;113 163 144 87 47 220 49 325 7z m-541 -1309 c36 -12 97 -43 135 -68 81 -52&#xA;316 -266 311 -282 -7 -22 -125 -75 -227 -102 -200 -51 -387 -63 -530 -34 -62&#xA;13 -257 75 -280 90 -12 8 -10 15 16 42 17 18 71 85 120 148 108 141 126 159&#xA;188 194 92 51 147 54 267 12z m-3711 -56 c129 -24 264 -126 327 -246 44 -85&#xA;57 -151 49 -256 -10 -153 -84 -279 -207 -354 -66 -39 -179 -74 -246 -74 -123&#xA;0 -263 60 -346 149 -136 148 -165 345 -77 536 37 81 88 137 168 185 108 64&#xA;212 83 332 60z m3338 -589 c118 -99 225 -161 280 -161 66 0 128 48 204 156 43&#xA;63 54 73 93 83 65 16 66 16 46 -42 -45 -131 -124 -237 -220 -294 -41 -25 -56&#xA;-28 -131 -28 -71 0 -97 5 -155 29 -154 63 -252 168 -348 373 l-14 31 71 -30&#xA;c49 -21 102 -57 174 -117z m273 41 l128 6 -18 -37 c-22 -42 -66 -71 -109 -71&#xA;-28 0 -138 64 -182 106 -13 13 -11 13 19 3 22 -8 76 -10 162 -7z m1655 -261&#xA;c160 -73 277 -334 253 -565 -20 -196 -183 -337 -454 -391 -53 -11 -319 -17&#xA;-355 -8 l-36 8 13 45 13 45 82 23 c176 50 351 159 392 246 32 68 8 151 -54&#xA;184 -82 43 -310 -53 -429 -181 l-23 -26 -59 62 -58 61 46 74 c53 86 198 242&#xA;287 308 33 26 91 62 129 80 111 56 184 66 253 35z m-4036 -326 c30 -20 82 -52&#xA;117 -71 49 -28 60 -39 54 -52 -4 -9 -15 -35 -26 -57 -13 -29 -20 -79 -26 -180&#xA;-6 -122 -12 -154 -43 -248 -20 -59 -39 -128 -43 -153 -3 -24 -9 -44 -13 -44&#xA;-14 0 -144 92 -183 129 -21 20 -51 57 -68 82 -24 38 -29 56 -29 109 0 54 6 75&#xA;43 149 l42 86 0 165 c1 91 5 178 9 193 l9 29 51 -50 c28 -27 76 -66 106 -87z&#xA;m2251 29 c172 -51 416 -212 523 -344 49 -60 116 -167 116 -184 0 -3 -17 2 -37&#xA;13 -115 58 -307 119 -385 121 -110 3 -117 2 -160 -39 -37 -34 -41 -43 -40 -80&#xA;7 -176 276 -283 567 -227 39 8 72 12 74 10 21 -20 -97 -67 -244 -96 -95 -19&#xA;-354 -16 -460 5 -214 43 -279 84 -335 210 -31 70 -48 256 -32 349 41 239 184&#xA;330 413 262z m-1946 -192 c33 -20 277 -123 338 -142 20 -6 37 -12 37 -13 0 -1&#xA;-9 -31 -21 -67 -11 -36 -29 -145 -39 -248 -11 -101 -24 -200 -29 -220 -5 -20&#xA;-15 -73 -21 -118 l-12 -81 -96 37 c-91 34 -253 102 -314 132 -26 12 -28 17&#xA;-28 73 0 39 9 84 24 126 35 96 55 198 65 330 8 110 36 209 58 209 4 0 22 -8&#xA;38 -18z m3553 -21 c40 -25 -38 -112 -158 -175 -62 -33 -199 -86 -222 -86 -4 0&#xA;-8 13 -8 29 0 31 51 84 155 161 78 58 197 94 233 71z m-623 -55 c96 -57 135&#xA;-126 135 -239 0 -136 -60 -213 -187 -243 -32 -8 -79 -14 -104 -14 l-46 0 -5&#xA;88 c-6 102 -37 190 -105 296 -24 37 -43 69 -41 70 111 78 260 96 353 42z&#xA;m-2298 -145 c87 -21 195 -44 241 -51 70 -11 82 -15 77 -29 -20 -48 -37 -169&#xA;-50 -354 -9 -115 -22 -243 -30 -285 -8 -42 -15 -77 -15 -78 0 -2 -188 24 -210&#xA;29 -244 55 -300 71 -301 86 -3 45 4 105 22 186 11 50 24 146 29 215 5 69 14&#xA;150 20 180 14 69 40 140 51 140 4 0 79 -17 166 -39z m1588 -81 c116 -37 231&#xA;-79 288 -104 32 -14 64 -26 72 -26 8 0 15 -6 15 -14 0 -29 -214 -36 -337 -10&#xA;-118 24 -183 65 -198 125 -12 49 59 62 160 29z m-938 -7 l162 -6 10 -46 c5&#xA;-25 7 -48 5 -51 -3 -2 -42 -12 -87 -21 -103 -22 -254 -76 -278 -100 -18 -18&#xA;-19 -39 -19 -265 l0 -246 -22 6 c-13 3 -42 6 -66 6 l-43 0 6 48 c3 26 10 79&#xA;16 117 6 39 14 151 18 250 6 146 12 194 31 253 l23 73 41 -5 c23 -4 114 -9&#xA;203 -13z m3008 -169 l160 -38 -135 -22 c-74 -13 -211 -39 -305 -58 l-170 -34&#xA;-87 35 c-49 19 -90 39 -93 43 -3 5 20 18 51 29 58 22 140 65 198 105 l34 23&#xA;93 -23 c52 -12 166 -39 254 -60z m-2788 -47 c16 -35 64 -88 98 -108 20 -13 24&#xA;-19 13 -19 -19 0 -147 36 -243 69 -33 11 -69 21 -79 21 -37 0 -2 18 74 38 102&#xA;27 124 27 137 -1z m2093 -99 c52 -22 96 -41 98 -42 3 -4 -132 -38 -280 -71&#xA;l-117 -26 -156 61 c-137 55 -182 80 -142 80 6 0 25 11 41 24 30 23 31 23 245&#xA;18 l216 -5 95 -39z m920 -226 l0 -278 -309 -77 c-170 -42 -316 -77 -325 -77&#xA;-14 0 -16 30 -16 279 l0 280 98 21 c53 13 192 46 307 75 116 29 218 54 228 54&#xA;16 1 17 -19 17 -277z m-2927 -155 c-3 -144 -7 -264 -9 -266 -5 -5 -374 137&#xA;-400 154 -21 13 -21 18 -17 252 2 131 6 243 8 249 2 8 78 -13 214 -58 l210&#xA;-70 -6 -261z m1177 334 c72 -5 110 -15 243 -66 113 -43 153 -62 140 -67 -24&#xA;-10 -606 -138 -630 -138 -27 -1 -424 134 -415 141 12 10 194 57 267 69 39 6&#xA;117 26 175 45 58 18 112 30 120 27 8 -3 53 -8 100 -11z m-912 -46 c42 -9 106&#xA;-19 142 -23 l65 -8 -51 -8 c-41 -6 -69 -2 -145 20 -52 14 -101 31 -109 36 -12&#xA;8 -12 9 3 4 9 -3 52 -12 95 -21z m1928 -1057 c-4 -562 -8 -1023 -9 -1023 -1&#xA;-1 -90 -23 -197 -49 -107 -27 -201 -51 -207 -53 -10 -4 -13 204 -13 1021 0&#xA;813 3 1027 13 1030 39 13 385 94 401 95 19 1 19 -19 12 -1021z m-2055 988 c24&#xA;-8 83 -26 132 -41 l87 -26 0 -479 0 -479 -72 40 c-40 22 -103 54 -140 72 l-68&#xA;31 0 448 c0 246 4 448 8 448 5 0 28 -6 53 -14z m1539 -371 c0 -260 -1 -285&#xA;-17 -285 -9 0 -42 -9 -72 -19 -47 -17 -578 -151 -596 -151 -3 0 -4 131 -3 292&#xA;l3 292 170 39 c94 21 244 55 335 76 91 21 168 39 173 40 4 0 7 -127 7 -284z&#xA;m-997 195 l217 -73 0 -284 c0 -156 -4 -283 -8 -283 -25 0 -412 147 -441 167&#xA;-3 2 -6 127 -8 279 -3 220 -1 275 9 272 7 -3 111 -38 231 -78z m-1603 -125&#xA;c88 -19 296 -45 360 -45 40 0 49 -5 78 -40 32 -38 32 -39 32 -149 l0 -110 -62&#xA;27 c-63 28 -132 64 -198 104 -55 34 -174 111 -180 118 -3 3 -27 23 -55 45 -27&#xA;22 -59 48 -70 58 l-20 19 20 -6 c11 -3 54 -13 95 -21z m725 -204 c83 -33 158&#xA;-61 168 -61 26 0 28 -13 25 -152 l-3 -126 -60 25 c-33 13 -78 32 -100 42 -22&#xA;10 -74 33 -117 50 -42 18 -79 38 -82 46 -10 27 -3 246 8 241 6 -2 79 -32 161&#xA;-65z m3034 -45 c-1 -92 -4 -100 -36 -110 -36 -11 -106 -87 -140 -151 -103&#xA;-196 -76 -448 60 -556 26 -21 56 -41 67 -44 19 -6 20 -15 20 -215 0 -190 -2&#xA;-210 -18 -219 -9 -5 -98 -30 -197 -56 -99 -26 -200 -53 -225 -60 -25 -7 -56&#xA;-16 -70 -19 l-25 -5 3 692 c2 380 4 693 5 694 2 1 14 4 27 7 14 2 126 29 250&#xA;60 224 54 258 63 273 65 4 0 7 -37 6 -83z m-2164 -285 c88 -33 175 -65 193&#xA;-72 l32 -13 0 -401 c1 -220 2 -534 4 -697 2 -164 2 -298 0 -298 -2 0 -38 16&#xA;-80 35 -41 19 -78 35 -81 35 -3 0 -70 27 -149 61 -134 57 -144 63 -144 87 0&#xA;15 -3 171 -7 347 l-6 320 34 48 c30 43 33 54 33 120 0 60 -4 81 -28 127 -28&#xA;54 -29 59 -30 222 l-2 166 35 -14 c20 -7 108 -40 196 -73z m1005 -98 c0 -98 2&#xA;-406 4 -685 5 -495 4 -508 -15 -518 -10 -6 -146 -46 -302 -90 -155 -43 -302&#xA;-85 -327 -93 l-45 -14 -1 26 c-3 61 -4 1384 -2 1386 4 2 426 108 558 140 52&#xA;12 103 23 113 24 16 1 17 -14 17 -176z m-3743 -50 c207 -258 436 -434 717&#xA;-553 256 -109 582 -180 825 -180 l81 0 0 -60 c0 -91 -14 -82 365 -240 369&#xA;-154 404 -169 570 -237 88 -35 217 -89 287 -119 74 -32 142 -54 163 -54 19 0&#xA;70 9 113 21 42 11 109 29 147 39 84 23 308 86 350 99 17 5 104 28 195 51 91&#xA;23 221 57 290 76 69 19 128 34 132 34 14 0 8 -36 -21 -126 -81 -252 -189 -426&#xA;-380 -614 -281 -276 -676 -443 -1256 -531 -129 -20 -190 -23 -435 -24 -297 0&#xA;-403 10 -591 55 -479 114 -829 414 -964 825 -55 169 -68 248 -73 452 -4 205 9&#xA;339 47 449 17 51 17 56 2 62 -31 11 -166 96 -226 141 -159 120 -261 219 -326&#xA;316 -55 83 -135 238 -144 280 -5 26 -2 23 25 -20 18 -27 66 -91 107 -142z&#xA;m2423 -819 c0 -236 -3 -294 -12 -287 -7 6 -56 27 -108 48 -52 21 -112 47 -133&#xA;57 l-37 19 2 160 3 161 75 29 c41 16 104 46 140 68 36 21 66 40 68 40 1 1 2&#xA;-132 2 -295z m-370 0 c0 -75 -3 -134 -8 -132 -4 2 -80 32 -169 67 l-161 64 -4&#xA;42 -3 43 110 11 c61 6 133 18 160 25 28 8 56 15 63 15 9 1 12 -32 12 -135z&#xA;m1820 -1285 c154 -27 234 -53 311 -97 138 -81 147 -181 18 -212 -59 -14 -89&#xA;-8 -126 26 -52 49 -155 91 -182 75 -19 -12 -13 -23 49 -73 98 -79 124 -142 73&#xA;-175 -23 -15 -50 -18 -163 -18 l-135 0 -77 39 c-42 21 -81 35 -87 31 -7 -4 0&#xA;-21 20 -50 51 -70 42 -80 -76 -80 -73 0 -114 5 -150 19 -131 48 -188 73 -290&#xA;124 l-110 56 35 9 c241 66 523 187 680 290 47 31 87 57 90 57 3 0 57 -9 120&#xA;-21z m-3245 -324 c160 -32 152 -31 380 -65 243 -36 413 -50 590 -50 l133 0 51&#xA;-40 c62 -49 81 -78 87 -127 4 -33 1 -41 -23 -58 -25 -18 -43 -20 -153 -19&#xA;-135 0 -206 16 -309 68 -89 45 -128 25 -73 -38 68 -77 46 -116 -65 -116 -87 0&#xA;-182 35 -330 121 -65 38 -127 69 -138 69 -11 0 -69 -16 -129 -35 -117 -38&#xA;-156 -42 -218 -23 -58 17 -81 52 -73 108 4 25 15 63 24 85 21 46 99 145 115&#xA;145 6 0 65 -11 131 -25z"/>
    <path d="M6029 7580 c-43 -13 -76 -39 -89 -71 -7 -16 -11 -32 -8 -34 2 -3 39&#xA;3 82 12 65 14 87 15 133 5 60 -12 137 -49 190 -90 28 -21 34 -22 39 -9 20 54&#xA;-63 156 -147 181 -55 17 -156 20 -200 6z"/>
    <path d="M4540 7460 c-100 -18 -181 -70 -232 -149 -27 -43 -39 -111 -19 -111&#xA;5 0 37 25 72 56 96 87 151 108 282 112 87 3 110 7 114 19 9 24 -39 60 -97 72&#xA;-56 12 -55 12 -120 1z"/>
    <path d="M6012 7143 c-62 -60 -87 -136 -87 -263 1 -148 34 -239 116 -317 65&#xA;-61 114 -67 182 -22 72 48 98 111 105 253 4 97 2 124 -17 184 -39 128 -115&#xA;202 -207 202 -48 0 -57 -4 -92 -37z"/>
    <path d="M4604 7039 c-84 -24 -162 -138 -183 -266 -28 -179 40 -347 161 -397&#xA;51 -22 84 -20 144 8 53 25 87 62 122 131 70 143 47 355 -50 461 -62 68 -117&#xA;86 -194 63z m152 -234 c29 -44 -12 -99 -56 -75 -11 6 -20 15 -20 20 0 4 -3 15&#xA;-6 23 -6 18 29 57 51 57 8 0 22 -11 31 -25z"/>
  </g>
  <title>Penguin Gift</title>
  <desc>Penguin Gift</desc>
</svg>