<?xml version="1.0" standalone="no"?>
<!DOCTYPE svg PUBLIC "-//W3C//DTD SVG 20010904//EN"
 "http://www.w3.org/TR/2001/REC-SVG-20010904/DTD/svg10.dtd">
<svg version="1.0" xmlns="http://www.w3.org/2000/svg"
 width="1024.000000pt" height="1024.000000pt" viewBox="0 0 1024.000000 1024.000000"
 preserveAspectRatio="xMidYMid meet">
<metadata>
Created by potrace 1.16, written by Peter Selinger 2001-2019
</metadata>
<g transform="translate(0.000000,1024.000000) scale(0.100000,-0.100000)"
fill="#000000" stroke="none">
<path d="M2845 8709 c-122 -12 -234 -99 -300 -232 -59 -121 -64 -233 -16 -356
38 -94 118 -189 203 -239 37 -22 35 -28 -9 -36 -21 -4 -80 -28 -132 -52 -72
-35 -108 -61 -160 -112 -188 -190 -187 -437 3 -466 l41 -7 2 -53 1 -53 -81
-17 c-147 -32 -251 -100 -347 -226 -72 -94 -120 -133 -294 -233 -155 -90 -212
-136 -251 -208 -23 -44 -29 -67 -29 -119 -1 -104 41 -147 153 -157 51 -5 58
-9 83 -44 19 -26 40 -42 68 -50 37 -11 40 -15 40 -49 0 -42 33 -99 69 -116 12
-7 26 -16 31 -20 4 -5 13 -99 19 -209 6 -110 13 -225 16 -255 3 -30 12 -206
21 -390 9 -184 26 -498 37 -697 l22 -363 -37 -36 c-20 -19 -42 -50 -48 -68 -9
-27 -16 -33 -40 -34 -63 -2 -108 -61 -95 -124 11 -50 52 -126 75 -138 12 -6
74 -22 138 -35 64 -13 149 -31 187 -40 39 -8 80 -18 92 -20 12 -3 25 -14 28
-25 11 -36 112 -136 157 -155 24 -10 44 -19 45 -20 1 -1 -2 -17 -7 -36 -5 -19
-16 -83 -25 -144 -9 -60 -21 -115 -26 -121 -5 -6 -22 -9 -38 -6 -86 12 -273
-45 -379 -117 -62 -42 -177 -158 -186 -189 -4 -12 -16 -19 -34 -20 -36 -1
-141 -36 -204 -68 -71 -36 -158 -123 -158 -158 0 -31 0 -31 76 26 67 50 190
106 272 124 37 7 70 14 74 14 4 0 17 19 29 42 66 128 253 245 429 267 138 17
252 -30 361 -148 l69 -75 48 12 c93 24 190 16 282 -25 30 -13 64 -22 76 -19
12 3 40 26 63 51 36 40 42 51 39 83 l-3 37 47 3 c125 8 268 -51 378 -154 71
-67 83 -72 114 -49 25 19 74 19 152 0 89 -21 159 -55 237 -113 l68 -52 50 16
c79 26 174 12 315 -46 76 -32 77 20 1 64 -81 47 -247 71 -327 46 -20 -5 -31
-1 -55 21 -96 89 -233 140 -381 142 l-100 2 -54 47 c-107 94 -249 148 -387
148 l-71 0 -15 88 c-15 82 -30 182 -40 262 -4 32 -1 37 40 64 39 25 112 117
125 158 3 8 61 13 179 15 211 4 230 7 256 36 32 35 73 119 73 150 0 33 -48 87
-78 87 -15 0 -21 9 -27 38 -3 20 -18 54 -32 74 -27 40 -27 38 -8 308 7 86 23
378 35 620 5 107 12 229 15 270 2 41 7 122 10 180 3 58 10 166 15 240 5 74 12
203 16 287 l7 152 26 11 c36 14 52 44 60 104 6 50 7 51 45 57 28 5 50 17 73
43 27 29 40 36 72 36 46 0 100 33 121 75 8 17 15 56 15 90 0 113 -83 228 -216
299 -88 47 -211 130 -251 170 -21 20 -64 72 -97 115 -106 139 -173 183 -340
219 l-73 16 5 56 c9 84 14 93 40 75 12 -8 39 -15 60 -15 31 0 46 7 72 33 95
95 54 280 -93 418 -80 76 -158 119 -272 152 l-84 25 49 25 c62 31 144 117 180
187 88 173 49 401 -90 528 -93 86 -181 114 -310 101z m178 -92 c71 -32 132
-96 171 -177 28 -58 31 -75 31 -155 0 -97 -16 -147 -73 -229 -25 -37 -106
-106 -123 -106 -24 0 -4 48 37 92 67 72 99 147 99 233 -1 86 -16 131 -64 193
-170 214 -486 77 -469 -204 6 -88 41 -167 97 -220 29 -27 41 -47 41 -66 0 -36
-9 -35 -62 5 -126 96 -180 300 -115 441 35 76 59 108 113 153 94 76 207 90
317 40z m-45 -131 c94 -49 143 -177 108 -284 -17 -51 -69 -132 -84 -132 -5 0
-14 11 -20 26 -12 26 -65 54 -103 54 -11 0 -37 -16 -57 -36 l-36 -36 -28 32
c-78 94 -76 264 3 337 41 37 82 53 137 53 29 0 65 -6 80 -14z m-56 -423 c21
-24 38 -88 38 -145 l0 -48 -60 0 c-33 0 -63 -1 -67 -2 -10 -4 -3 134 9 157 16
30 40 55 53 55 7 0 19 -8 27 -17z m185 -298 c140 -44 258 -139 309 -248 43
-93 44 -148 2 -187 -33 -30 -54 -25 -112 30 -65 62 -93 64 -147 15 -65 -58
-109 -75 -199 -76 -74 -1 -87 2 -153 35 -40 20 -84 44 -99 53 -26 17 -28 17
-55 -5 -92 -73 -118 -86 -175 -90 -64 -5 -83 5 -103 51 -8 20 -9 45 -3 84 27
172 194 313 429 363 72 15 216 4 306 -25z m124 -541 c-1 -54 -4 -100 -5 -100
0 -1 -104 -3 -231 -5 l-230 -4 -3 64 c-2 35 1 68 6 73 5 5 25 1 48 -8 26 -11
70 -17 135 -17 89 -1 102 2 161 31 36 17 73 41 83 52 33 36 40 19 36 -86z
m-530 61 c-2 -11 -4 -55 -5 -97 l-1 -78 -72 0 -73 0 0 60 c0 57 1 60 33 75 17
8 46 26 62 40 35 29 62 28 56 0z m651 -250 c139 -29 207 -75 307 -206 83 -109
149 -165 296 -252 139 -83 186 -122 214 -181 25 -51 28 -132 5 -164 -30 -44
-129 -25 -229 43 -36 25 -75 45 -87 45 -11 0 -45 -12 -75 -26 -75 -37 -129
-31 -225 26 -47 27 -89 44 -118 47 -41 4 -53 0 -133 -52 -141 -90 -197 -91
-363 -5 -88 46 -106 51 -161 51 -50 1 -78 -6 -145 -36 -180 -80 -203 -88 -275
-93 -65 -4 -77 -2 -135 27 -35 17 -88 47 -118 67 -49 32 -61 35 -108 31 -42
-3 -65 -12 -113 -46 -99 -70 -153 -91 -236 -91 -65 0 -73 2 -92 26 -27 34 -26
67 3 130 31 66 90 116 234 193 150 82 216 133 301 234 165 198 235 225 611
236 413 13 570 12 642 -4z m-395 -807 c159 -79 237 -75 380 22 76 52 101 51
213 -7 78 -41 98 -47 148 -47 36 1 76 10 109 24 l52 22 60 -40 c33 -22 66 -43
73 -45 9 -4 8 -10 -6 -21 -18 -14 -100 -16 -715 -16 -383 -1 -871 -3 -1084 -6
-361 -6 -389 -5 -408 11 -26 24 -24 30 11 45 16 7 64 34 107 61 96 61 135 64
209 17 109 -69 151 -83 254 -82 83 0 105 4 173 32 43 18 97 42 120 54 100 51
163 46 304 -24z m920 -204 c-13 -76 34 -71 -694 -78 l-653 -7 0 55 0 56 378 2
c207 2 512 4 676 6 l299 3 -6 -37z m-1414 -15 c10 -73 24 -69 -271 -69 -233 0
-268 2 -284 17 -17 16 -25 73 -11 86 3 4 131 7 283 7 l277 0 6 -41z m973 -514
c-101 -209 -204 -425 -229 -480 l-46 -100 -17 40 c-9 22 -43 96 -76 165 -33
69 -105 224 -160 345 -55 121 -120 259 -144 307 -24 48 -44 92 -44 98 0 10
892 20 898 10 1 -3 -81 -176 -182 -385z m346 320 c-1 -38 -7 -137 -12 -220
-10 -151 -31 -527 -50 -900 -11 -195 -16 -278 -25 -400 -2 -33 -7 -136 -11
-230 -3 -93 -7 -176 -9 -182 -5 -14 -61 -18 -68 -5 -2 4 0 59 4 122 3 63 9
176 13 250 11 223 15 313 31 580 8 140 19 359 25 485 13 297 19 413 26 503 l6
73 36 -3 37 -3 -3 -70z m-1427 32 c-8 -39 -35 -180 -73 -387 -16 -88 -31 -146
-35 -135 -3 11 -13 56 -23 100 -9 44 -36 161 -60 260 -23 99 -41 182 -39 185
2 3 56 6 120 7 l117 2 -7 -32z m117 -207 c3 -129 11 -576 17 -994 7 -417 13
-763 14 -770 1 -6 -5 -11 -13 -11 -17 0 -22 103 -34 700 -4 182 -9 364 -11
405 -2 41 -7 263 -11 494 -7 407 -6 418 12 414 18 -3 19 -19 26 -238z m141
233 c3 -5 8 -224 11 -488 3 -264 8 -583 11 -710 2 -126 6 -360 7 -520 l3 -290
-38 0 -37 0 -5 215 c-8 408 -15 786 -21 1220 -3 239 -7 464 -10 500 -2 44 0
66 9 72 15 10 64 10 70 1z m-563 -40 c0 -126 56 -1217 75 -1473 12 -157 15
-195 21 -307 7 -124 4 -136 -28 -110 -12 9 -17 40 -21 132 -4 66 -17 320 -31
565 -14 245 -32 580 -41 745 -9 165 -20 338 -24 385 -5 47 -6 88 -4 93 2 4 15
7 29 7 21 0 24 -4 24 -37z m728 -243 c44 -96 112 -243 150 -326 l69 -151 -25
-29 c-13 -16 -39 -60 -58 -99 -30 -62 -34 -78 -34 -151 0 -92 15 -143 60 -209
22 -33 38 -45 55 -45 27 0 28 -3 19 -37 -7 -27 -23 -28 -123 -11 -119 20 -131
-4 -122 -257 l7 -180 -36 -72 -35 -72 0 252 c-1 416 -16 1530 -21 1557 -10 45
11 8 94 -170z m847 -136 c-8 -164 -22 -411 -30 -549 -8 -137 -19 -353 -25
-480 -7 -126 -15 -282 -18 -345 l-7 -115 -48 110 -47 110 0 143 c0 202 -21
234 -134 199 -63 -20 -194 -32 -223 -20 l-21 8 23 85 c12 47 32 108 45 135
l23 50 9 -30 c5 -16 7 -76 3 -132 -5 -87 -3 -103 9 -103 28 0 131 107 161 167
27 51 30 68 30 148 0 85 -2 94 -38 160 l-38 70 128 260 c71 143 147 299 168
347 22 47 41 85 42 84 1 -1 -4 -137 -12 -302z m-1232 -524 c4 -214 2 -301 -4
-270 -6 25 -22 104 -36 175 -14 72 -34 168 -45 215 -28 122 -31 78 44 490 l23
125 6 -210 c4 -115 9 -352 12 -525z m-249 603 c9 -43 28 -127 41 -188 13 -60
27 -128 30 -150 5 -33 -38 -527 -49 -560 -1 -5 -6 94 -11 220 -4 127 -8 237
-10 245 -1 8 -6 96 -9 195 -3 99 -9 210 -12 248 -3 37 -4 67 -1 67 3 0 12 -35
21 -77z m931 -579 l47 -106 -42 -90 c-23 -50 -50 -104 -60 -121 l-18 -29 -16
24 c-43 66 -63 175 -47 263 10 53 65 165 82 165 3 0 28 -48 54 -106z m-717
-359 c40 -172 42 -189 47 -395 3 -118 8 -237 11 -264 l6 -49 -33 7 c-19 4 -65
11 -103 17 -39 5 -71 10 -72 12 -6 6 -25 446 -20 472 2 17 8 66 11 110 4 44
18 171 31 281 13 111 24 206 25 210 0 12 46 -175 97 -401z m942 363 c29 -68
33 -120 16 -187 -17 -65 -43 -121 -76 -161 l-21 -25 8 30 c11 41 6 152 -9 195
-7 19 -11 40 -10 47 4 20 62 143 68 143 3 0 13 -19 24 -42z m85 -784 l0 -298
-70 -3 c-38 -1 -186 -4 -328 -6 l-258 -5 55 102 c31 55 99 185 153 288 l97
186 116 0 c92 0 125 4 165 20 28 11 55 19 60 18 6 -2 10 -110 10 -302z m-470
284 l51 -12 -64 -118 c-35 -65 -66 -118 -68 -118 -2 0 -4 59 -4 130 0 147 -5
139 85 118z m579 -521 c14 -32 26 -60 26 -62 0 -3 -16 -5 -35 -5 l-35 0 1 88
c0 59 3 79 9 62 4 -14 20 -51 34 -83z m-1343 -71 c41 -8 117 -22 169 -31 52
-10 117 -23 145 -31 38 -11 96 -13 255 -9 113 3 379 7 592 10 l387 4 16 -21
c8 -13 15 -32 15 -44 0 -20 -5 -21 -172 -27 -95 -4 -346 -9 -558 -12 -407 -6
-465 -9 -476 -27 -4 -6 4 -20 17 -31 23 -19 35 -19 259 -13 558 15 1027 19
1033 9 8 -12 -28 -81 -56 -109 -22 -21 -31 -21 -670 -32 l-647 -11 -143 30
c-409 86 -388 80 -409 114 -9 17 -19 46 -20 65 -3 33 -1 35 30 38 18 2 105
-10 195 -27 268 -50 327 -57 338 -40 13 20 -13 36 -80 49 -131 24 -354 70
-358 73 -7 8 18 62 34 75 21 15 16 15 104 -2z m1154 -453 c-50 -79 -94 -102
-240 -122 -139 -19 -433 2 -530 39 -38 14 -92 55 -104 79 -9 17 4 18 262 20
149 1 274 4 276 7 2 2 83 4 179 4 l174 0 -17 -27z m-540 -192 c61 -5 128 -7
150 -6 22 2 83 6 136 9 112 7 100 19 119 -119 5 -44 19 -132 30 -195 27 -158
26 -185 -6 -206 -24 -16 -28 -16 -54 -1 -33 20 -142 47 -190 47 -20 0 -59 -6
-88 -14 l-52 -13 -42 49 c-42 51 -128 114 -186 137 -22 10 -31 19 -28 30 3 9
15 75 26 146 25 159 24 157 52 150 13 -3 73 -9 133 -14z"/>
<path d="M3130 5686 c0 -2 16 -29 35 -61 73 -122 83 -221 31 -323 -43 -85 -31
-124 17 -54 44 63 60 113 60 182 0 84 -31 166 -83 219 -34 35 -60 51 -60 37z"/>
<path d="M3161 4221 c-15 -27 -14 -101 2 -130 6 -13 22 -28 35 -32 19 -7 29
-3 53 20 32 33 39 86 16 131 -17 34 -33 23 -29 -21 3 -38 -12 -89 -27 -89 -16
0 -34 60 -28 95 6 40 -7 55 -22 26z"/>
<path d="M7925 8572 c-60 -26 -100 -49 -115 -67 -12 -14 -15 -14 -34 4 -20 19
-48 26 -93 23 -30 -2 -100 -66 -123 -113 -11 -20 -22 -56 -26 -78 -4 -23 -9
-41 -13 -41 -3 0 -40 13 -82 30 -87 33 -265 75 -389 90 -252 30 -560 -4 -830
-92 -203 -67 -328 -130 -499 -251 -54 -39 -111 -70 -161 -87 -145 -50 -281
-163 -375 -310 -68 -107 -88 -163 -93 -266 -5 -100 4 -141 44 -199 l25 -37
-21 -31 c-42 -66 -139 -276 -174 -377 -56 -163 -78 -284 -84 -460 l-5 -155
-64 -70 c-114 -122 -159 -244 -150 -400 11 -190 99 -339 294 -496 40 -32 79
-62 87 -66 12 -7 9 -20 -20 -78 -48 -97 -64 -217 -39 -296 6 -18 -2 -19 -187
-19 -196 0 -408 -18 -528 -46 -97 -22 -204 -77 -229 -118 -18 -29 -21 -49 -21
-150 0 -89 -3 -116 -13 -116 -46 0 -137 -180 -137 -271 0 -92 91 -261 164
-304 l42 -24 12 -178 c6 -98 16 -195 22 -217 15 -52 77 -117 148 -154 80 -43
236 -81 364 -91 60 -4 111 -11 115 -15 5 -4 8 -22 9 -39 3 -113 61 -318 124
-435 50 -92 104 -166 181 -247 l58 -61 -122 -28 c-206 -47 -356 -119 -407
-193 -32 -46 -31 -94 1 -129 24 -27 112 -74 138 -74 7 0 22 -11 33 -25 38 -48
72 -58 225 -63 300 -10 633 44 848 138 52 22 57 22 238 2 l59 -7 -46 -32 c-83
-59 -126 -155 -92 -208 24 -36 111 -59 202 -52 l73 5 6 -28 c16 -71 84 -94
254 -87 328 13 741 142 884 276 63 58 75 131 31 188 -14 19 -24 36 -23 37 2 2
36 15 74 30 39 15 81 34 93 43 18 11 63 15 190 18 183 3 285 18 402 60 128 46
247 131 251 180 5 46 -3 55 -78 97 -95 51 -161 111 -197 177 l-27 50 20 62
c52 157 72 372 52 569 -24 238 -99 537 -197 787 -57 144 -195 433 -270 564
l-55 97 31 58 c58 112 60 227 5 351 l-24 52 35 38 c115 125 204 327 229 518 6
50 7 51 65 79 225 110 336 439 246 730 -16 52 -22 86 -17 100 5 11 17 68 27
126 36 207 19 511 -39 689 -13 39 -21 73 -19 76 3 3 14 5 26 5 53 0 125 90
113 142 -5 19 3 30 40 58 60 45 110 123 125 191 10 48 9 63 -11 127 -26 86
-71 142 -135 168 l-43 18 -6 77 c-8 119 -52 190 -148 238 -53 26 -73 31 -133
30 -43 0 -87 -7 -111 -17z m221 -80 c54 -27 101 -83 110 -128 6 -32 2 -137 -7
-174 -3 -10 8 -16 41 -20 57 -7 83 -22 111 -61 29 -41 40 -93 32 -159 -6 -48
-12 -61 -54 -106 -27 -28 -74 -63 -104 -78 -60 -29 -68 -47 -30 -64 39 -18 31
-63 -16 -87 -40 -21 -54 -12 -84 58 -92 213 -297 445 -489 552 -72 40 -75 47
-55 120 15 52 86 125 123 125 24 0 26 -3 26 -45 0 -66 19 -67 79 -6 71 73 139
103 216 98 34 -2 79 -14 101 -25z m-1042 -162 c481 -71 813 -318 997 -741 21
-47 52 -144 70 -215 33 -128 33 -130 32 -369 0 -132 -4 -251 -10 -264 -9 -23
-11 -20 -45 41 -242 439 -706 847 -1210 1062 -320 136 -613 197 -953 198
l-180 0 29 23 c16 13 70 45 120 73 324 177 756 249 1150 192z m-834 -375 c201
-33 334 -67 525 -135 103 -36 375 -175 489 -250 296 -194 554 -446 731 -715
88 -134 107 -171 152 -294 30 -82 36 -113 40 -211 6 -129 -7 -201 -53 -291
-27 -54 -150 -189 -172 -189 -7 0 -12 13 -12 30 0 22 4 28 15 24 50 -20 13
158 -64 311 -131 256 -305 465 -571 686 -199 166 -549 369 -793 460 -45 17
-98 36 -117 44 -84 31 -315 85 -425 99 -292 38 -529 7 -686 -90 -43 -27 -84
-80 -69 -89 5 -3 15 -3 20 0 23 14 7 -11 -35 -56 -48 -51 -53 -50 -74 10 -37
112 27 309 144 438 118 131 299 215 510 237 77 8 351 -4 445 -19z m-588 -645
c132 -49 217 -211 218 -416 0 -67 3 -83 16 -88 21 -8 14 -15 64 74 92 163 212
276 345 325 58 22 86 26 170 26 114 0 184 -16 291 -65 310 -144 562 -483 631
-850 21 -115 24 -428 5 -531 -63 -330 -252 -590 -542 -748 -118 -64 -318 -123
-515 -152 -70 -10 -307 -13 -403 -4 -210 18 -461 82 -630 160 -182 84 -412
267 -498 396 -101 152 -116 359 -38 504 15 27 55 79 89 113 l62 63 6 144 c15
326 103 610 258 836 136 198 307 275 471 213z m1977 -2237 c20 -54 16 -160 -8
-224 -65 -172 -356 -358 -716 -457 -150 -41 -393 -80 -550 -87 -134 -6 -443 9
-505 25 -19 4 -68 20 -109 34 -49 18 -96 26 -142 27 l-69 1 0 62 c0 83 -22
123 -89 163 -72 43 -155 69 -276 87 -86 13 -103 18 -122 41 -34 39 -34 129 -2
237 26 86 39 97 79 68 92 -66 351 -165 536 -205 280 -61 736 -66 974 -12 36 8
169 34 295 57 312 56 425 88 565 159 63 32 117 59 120 60 4 0 12 -15 19 -36z
m-2578 -428 c175 -18 298 -49 358 -89 l46 -31 -3 -140 c-1 -77 -4 -178 -6
-224 l-4 -83 -95 -41 c-125 -53 -191 -102 -195 -144 -4 -36 5 -44 164 -142
l87 -54 -7 -171 c-8 -188 -15 -231 -46 -264 -37 -39 -137 -82 -258 -108 -103
-23 -140 -27 -307 -27 -263 -1 -441 33 -549 105 -79 53 -85 66 -101 223 -22
223 -22 270 -4 292 90 102 78 289 -26 417 l-42 52 -2 90 c0 49 -4 113 -7 141
-6 50 -5 54 28 87 54 54 204 96 413 115 146 14 410 12 556 -4z m635 -332 c92
-31 168 -99 189 -170 6 -23 5 -23 -67 -17 -45 4 -83 13 -98 23 -45 32 -118 54
-155 48 l-35 -6 0 63 c0 34 3 66 7 69 12 13 110 7 159 -10z m1098 -47 c-49
-44 -215 -153 -291 -191 -70 -35 -76 -37 -145 -30 -93 8 -399 66 -393 74 2 4
-6 31 -19 61 l-22 55 306 0 c310 1 415 10 540 48 25 8 47 12 49 11 2 -2 -10
-14 -25 -28z m-1150 -144 c6 -4 -16 -10 -49 -14 -61 -6 -83 1 -70 22 8 13 97
6 119 -8z m1700 -504 c-34 -97 -130 -213 -222 -268 -27 -16 -40 -30 -36 -40 3
-8 21 -75 40 -150 60 -227 59 -489 -1 -671 -76 -227 -239 -378 -500 -461 -145
-45 -196 -52 -425 -52 -230 -1 -291 6 -475 54 -293 77 -542 225 -690 413 -114
143 -203 353 -233 548 l-8 56 140 11 c202 17 356 62 459 134 33 24 67 87 67
125 0 67 3 70 105 76 55 4 115 15 146 27 l53 20 141 -70 c273 -135 527 -176
786 -125 236 46 474 182 596 339 32 41 61 75 65 75 4 1 0 -18 -8 -41z m-1699
-94 l59 -37 -34 -13 c-19 -7 -73 -13 -119 -13 l-84 -1 7 68 c3 37 6 77 6 90 0
22 3 21 53 -17 29 -21 80 -56 112 -77z m-413 -1368 c132 -84 422 -205 492
-206 38 0 1 -19 -89 -44 -77 -21 -296 -59 -467 -81 -102 -12 -302 -8 -339 8
-20 8 -39 19 -42 24 -19 30 101 131 201 169 84 33 29 47 -68 18 -57 -17 -124
-57 -176 -106 -28 -26 -33 -27 -65 -17 -43 15 -69 37 -69 60 0 51 183 146 345
179 195 39 210 39 277 -4z m2113 -231 c31 -30 31 -53 3 -95 -44 -65 -210 -145
-426 -205 -70 -19 -145 -37 -167 -41 -22 -3 -76 -12 -120 -19 -108 -17 -265
-19 -298 -4 -74 34 3 137 164 219 54 28 99 53 99 57 0 7 -85 -5 -142 -22 -59
-17 -91 -37 -153 -96 -43 -41 -59 -49 -111 -58 -41 -8 -77 -8 -113 -1 -30 5
-56 10 -58 10 -3 0 -2 15 2 33 14 63 94 126 225 177 l85 32 170 -8 c254 -13
441 -8 599 15 77 12 142 23 144 26 15 15 75 3 97 -20z"/>
<path d="M5418 6897 c-70 -26 -127 -88 -114 -122 6 -16 8 -16 29 -1 84 60 111
71 182 71 56 0 70 3 73 16 1 9 -4 21 -12 28 -23 19 -115 23 -158 8z"/>
<path d="M6399 6796 c-23 -8 -34 -17 -34 -30 0 -16 12 -22 68 -32 81 -15 161
-61 232 -133 27 -28 55 -51 62 -51 23 0 14 53 -16 98 -71 108 -220 178 -312
148z"/>
<path d="M5412 6483 c-69 -34 -135 -136 -158 -244 -25 -120 -1 -253 62 -335
41 -53 47 -44 -71 -106 -97 -50 -149 -82 -175 -108 -28 -28 -27 -90 3 -117 34
-32 153 -87 242 -113 74 -21 84 -28 136 -84 31 -34 81 -75 110 -91 51 -28 61
-30 164 -30 107 0 114 1 180 35 123 61 255 211 255 289 0 45 -8 58 -60 95 -31
23 -71 67 -109 124 -90 134 -157 181 -260 182 -51 0 -53 1 -47 23 24 82 29
140 18 214 -12 78 -48 171 -80 207 -9 10 -35 32 -56 47 -45 34 -102 38 -154
12z m155 -95 c50 -48 76 -126 77 -228 1 -94 -15 -161 -45 -191 -24 -24 -44
-25 -33 -1 4 9 10 42 12 72 3 45 -1 61 -20 90 -45 67 -110 75 -162 21 -15 -16
-32 -47 -37 -69 -9 -42 1 -123 21 -165 8 -16 4 -14 -15 8 -57 67 -82 234 -50
342 17 57 84 139 129 158 39 17 81 4 123 -37z m267 -512 c20 -15 62 -65 92
-111 30 -46 61 -89 70 -95 13 -11 12 -15 -3 -32 -10 -11 -45 -35 -80 -54 -141
-79 -320 -102 -503 -64 -105 21 -262 78 -288 104 -17 17 -6 24 245 150 245
124 280 136 364 133 55 -2 73 -7 103 -31z m255 -280 c31 -37 -95 -178 -212
-239 -55 -28 -71 -32 -147 -32 -94 0 -131 13 -196 69 l-38 33 99 6 c180 10
357 71 430 147 32 33 47 37 64 16z"/>
<path d="M6263 6394 c-63 -23 -128 -86 -164 -160 -63 -128 -49 -286 38 -417
50 -77 80 -92 178 -92 70 0 87 4 135 30 64 35 110 92 140 172 19 49 21 73 18
158 -7 157 -58 252 -163 301 -57 27 -119 30 -182 8z m181 -77 c14 -9 36 -31
49 -49 78 -103 75 -311 -4 -412 -29 -37 -96 -74 -149 -82 l-45 -7 26 26 c73
75 60 257 -22 291 -17 7 -42 11 -55 8 -37 -7 -82 -57 -90 -100 -10 -55 -16
-60 -30 -21 -43 118 18 293 120 346 63 34 149 33 200 0z"/>
<path d="M4650 4576 c-150 -16 -288 -41 -341 -63 -22 -8 -50 -28 -64 -45 -23
-28 -26 -28 -47 -14 -25 18 -64 21 -72 7 -9 -14 42 -70 83 -91 103 -52 278
-81 526 -85 263 -5 470 24 614 86 52 22 105 72 98 93 -5 16 -45 20 -62 6 -11
-9 -21 -6 -47 13 -42 32 -99 51 -234 77 -139 27 -295 33 -454 16z m301 -69
c19 -12 35 -31 37 -41 4 -18 -26 -59 -38 -51 -3 2 -49 13 -100 25 -63 13 -97
17 -104 10 -6 -6 -7 -13 0 -20 13 -13 213 -52 235 -45 28 9 69 64 69 91 0 13
6 24 13 24 28 0 180 -41 210 -57 l32 -17 -60 -18 c-222 -69 -612 -76 -867 -17
-49 11 -88 25 -88 29 0 19 91 52 180 65 43 6 44 6 23 -10 -34 -24 -47 -53 -32
-71 10 -12 17 -9 46 16 38 33 76 39 111 14 12 -8 22 -24 22 -35 0 -28 29 -23
36 7 8 33 -28 72 -77 84 l-34 8 36 1 c20 1 51 4 68 7 31 6 31 6 29 -27 -4 -44
24 -52 41 -12 17 42 57 62 122 63 42 0 64 -6 90 -23z"/>
<path d="M4540 4395 c0 -15 66 -33 77 -21 10 10 -9 23 -44 29 -25 5 -33 3 -33
-8z"/>
<path d="M4548 6585 c-4 -4 -1 -17 7 -29 26 -40 55 -138 55 -187 0 -93 -43
-173 -169 -313 -120 -134 -170 -250 -157 -366 11 -91 46 -148 150 -244 115
-105 146 -159 146 -252 0 -56 -6 -73 -55 -169 -59 -116 -69 -170 -39 -213 27
-39 39 -27 39 41 0 57 5 70 55 157 l55 94 0 96 c0 127 -21 167 -149 284 -121
111 -151 166 -144 259 9 104 40 158 200 342 119 137 152 250 109 367 -22 57
-90 146 -103 133z"/>
<path d="M4097 5563 c-23 -84 -13 -154 29 -210 14 -18 56 -56 94 -84 107 -80
119 -131 59 -251 -38 -75 -38 -118 0 -160 30 -34 55 -32 33 2 -20 33 -14 75
23 151 64 134 46 208 -71 295 -97 72 -126 111 -131 177 -6 71 -12 97 -23 97
-5 0 -11 -8 -13 -17z"/>
<path d="M2240 2176 c-109 -28 -170 -61 -170 -93 0 -27 18 -30 59 -8 56 29
174 50 276 49 178 -2 310 -50 416 -151 l57 -54 31 15 c42 22 147 46 203 46 70
0 144 -18 227 -56 41 -19 79 -34 86 -34 27 0 23 30 -7 55 -105 89 -314 122
-457 72 l-64 -22 -46 44 c-140 132 -403 191 -611 137z"/>
<path d="M3539 2130 c-57 -10 -89 -26 -89 -44 0 -20 21 -25 71 -16 67 12 198
-5 271 -35 35 -15 73 -29 84 -32 38 -9 37 16 -1 52 -61 58 -226 95 -336 75z"/>
<path d="M7884 1816 c-68 -17 -118 -47 -122 -74 -4 -27 8 -28 76 -2 73 28 202
28 280 -1 73 -27 108 -33 116 -21 20 33 -42 76 -143 97 -85 18 -137 18 -207 1z"/>
</g>
</svg>
