<?xml version="1.0" standalone="no"?>
<!DOCTYPE svg PUBLIC "-//W3C//DTD SVG 20010904//EN"
 "http://www.w3.org/TR/2001/REC-SVG-20010904/DTD/svg10.dtd">
<svg version="1.0" xmlns="http://www.w3.org/2000/svg"
 width="1024.000000pt" height="1024.000000pt" viewBox="0 0 1024.000000 1024.000000"
 preserveAspectRatio="xMidYMid meet">
<metadata>
Created by potrace 1.16, written by Peter Selinger 2001-2019
</metadata>
<g transform="translate(0.000000,1024.000000) scale(0.100000,-0.100000)"
fill="#000000" stroke="none">
<path d="M5890 9216 c-107 -37 -235 -103 -290 -150 -16 -13 -56 -40 -89 -60
-73 -45 -92 -75 -142 -219 -21 -64 -43 -111 -49 -109 -99 24 -348 68 -465 82
-116 14 -209 18 -410 16 -265 -2 -332 -9 -567 -56 -120 -25 -115 -25 -123 8
-8 33 -57 157 -93 235 -36 81 -77 95 -342 117 -69 6 -163 16 -210 22 -47 7
-150 12 -230 12 -124 1 -155 -2 -217 -22 -40 -12 -78 -31 -85 -41 -7 -10 -42
-33 -78 -51 -93 -47 -218 -130 -268 -179 -55 -53 -127 -164 -141 -216 -19 -73
-33 -269 -27 -378 5 -97 9 -115 38 -170 18 -34 68 -98 111 -143 42 -45 77 -89
77 -98 0 -10 -11 -65 -24 -124 -28 -122 -47 -245 -71 -447 -9 -77 -20 -174
-26 -216 -5 -42 -10 -105 -11 -140 l-1 -64 -128 -95 c-71 -52 -152 -115 -180
-140 l-51 -45 -18 -160 c-30 -252 -50 -545 -50 -728 0 -200 7 -220 97 -287 32
-24 74 -55 93 -70 79 -60 448 -251 570 -296 41 -15 77 -29 79 -30 2 -2 -5 -43
-15 -93 -16 -78 -17 -103 -7 -191 13 -117 40 -173 131 -268 l53 -55 -20 -121
c-11 -67 -23 -149 -27 -184 l-7 -62 -71 -47 c-126 -83 -466 -345 -547 -420
-130 -123 -236 -312 -323 -578 -48 -147 -82 -335 -70 -389 7 -33 42 -93 81
-140 98 -118 332 -221 577 -255 100 -14 286 -14 361 0 116 21 292 124 393 230
19 19 45 62 57 94 20 55 24 59 71 75 52 18 143 78 303 200 118 90 210 158 298
222 63 45 67 47 97 34 17 -7 75 -30 128 -52 78 -31 98 -43 98 -59 0 -23 -93
-395 -168 -669 l-49 -180 -55 -35 c-86 -56 -173 -127 -212 -173 -56 -65 -92
-183 -99 -320 l-2 -56 -51 -11 c-103 -24 -234 -103 -249 -152 -8 -24 11 -49
37 -49 11 0 43 11 72 25 127 60 273 59 496 -5 213 -61 321 -80 509 -86 132 -5
184 -3 253 10 125 24 302 79 431 135 62 27 153 62 202 77 83 26 102 28 240 26
83 -1 170 -3 195 -4 42 -3 45 -1 48 24 2 20 -5 32 -32 53 -48 37 -114 55 -226
62 l-96 6 38 150 c21 83 41 153 44 156 3 3 123 6 267 7 254 1 265 2 350 28 95
28 228 85 291 124 128 79 226 107 346 99 104 -8 122 2 96 51 -31 61 -158 88
-271 58 -32 -8 -60 -14 -61 -13 -2 2 75 290 121 452 12 44 35 128 51 186 l28
106 99 42 c55 23 101 40 102 39 1 -2 23 -43 49 -93 99 -185 158 -255 266 -317
25 -14 63 -31 85 -38 22 -7 43 -16 48 -19 4 -4 12 -59 17 -122 5 -63 13 -138
16 -167 l6 -52 -58 0 c-82 0 -132 -16 -171 -55 -36 -36 -44 -81 -17 -92 9 -3
54 0 101 7 112 18 158 8 316 -68 67 -32 136 -63 152 -69 98 -35 258 -47 428
-31 71 7 77 6 77 -11 0 -10 9 -26 20 -36 29 -26 61 -13 148 59 103 84 154 118
233 154 141 63 313 69 482 15 103 -32 131 15 51 86 -71 62 -170 92 -319 95
l-49 1 -13 55 c-32 141 -102 471 -108 510 -1 8 -5 26 -8 40 -4 14 -18 79 -32
145 -25 120 -79 357 -96 427 -10 37 -40 65 -174 158 -16 12 -63 45 -103 74
l-73 52 -4 315 c-4 348 -13 650 -20 719 -5 45 -5 45 42 75 119 73 300 195 324
217 27 25 32 42 103 368 38 174 38 177 26 214 -6 20 -40 61 -83 102 -93 88
-272 244 -306 266 -28 19 -153 62 -211 73 -173 32 -280 47 -430 61 -205 19
-226 19 -288 -4 -41 -15 -50 -24 -74 -72 -15 -30 -32 -84 -38 -120 -11 -62
-67 -301 -73 -306 -1 -1 -36 4 -77 11 -41 7 -109 16 -150 19 -41 4 -101 9
-133 12 l-57 6 29 34 c19 21 32 49 36 78 17 111 -96 1357 -151 1667 -6 36 -5
38 47 71 47 30 123 92 232 188 33 29 108 134 136 188 26 53 39 157 51 397 14
304 12 314 -104 433 -39 40 -109 113 -156 161 l-85 88 -110 35 c-263 84 -369
113 -530 143 -104 19 -127 18 -205 -9z m175 -146 c204 -44 307 -71 445 -115
l145 -46 143 -145 142 -145 0 -118 c0 -111 -14 -351 -25 -417 -9 -55 -98 -175
-192 -258 -107 -93 -180 -143 -291 -197 -85 -42 -108 -65 -97 -99 9 -30 41
-42 89 -36 l42 6 12 -132 c7 -73 21 -216 32 -318 36 -342 62 -605 66 -655 2
-27 8 -104 13 -170 6 -66 13 -176 17 -245 l6 -126 -39 -34 c-60 -53 -263 -206
-324 -245 l-54 -34 -6 37 c-4 20 -9 125 -13 232 -8 250 -15 320 -33 327 -8 3
-19 1 -25 -5 -6 -6 -16 -117 -24 -264 -14 -254 -26 -370 -44 -440 -10 -35 -17
-40 -158 -112 -557 -282 -1159 -428 -1807 -440 -269 -4 -452 5 -672 34 -394
53 -550 96 -893 247 -313 138 -509 246 -598 330 l-45 43 7 231 c3 128 10 261
16 298 5 36 14 133 20 216 6 82 14 162 17 177 4 21 35 51 122 119 221 175 242
193 246 213 2 12 6 66 9 121 3 55 9 145 15 200 6 55 15 150 21 210 20 196 83
526 127 655 24 72 63 101 295 217 368 184 551 255 788 307 528 115 649 133
890 129 229 -3 516 -38 760 -92 l75 -16 -5 -35 c-12 -96 3 -130 60 -130 41 0
58 28 86 141 38 154 94 331 113 353 15 17 170 124 255 176 38 23 150 69 171
69 6 1 51 -8 100 -19z m-2955 -131 c198 -21 376 -38 396 -39 17 0 109 -229 98
-240 -5 -5 -61 -21 -124 -35 -167 -37 -266 -69 -435 -141 -96 -42 -151 -61
-154 -53 -2 6 -16 35 -30 63 -22 42 -33 53 -63 60 -32 8 -44 4 -128 -44 -51
-29 -120 -79 -154 -111 l-61 -57 -1 -79 0 -80 -46 -44 c-32 -30 -50 -58 -58
-89 -7 -25 -14 -51 -16 -59 -6 -19 -67 50 -99 112 -35 66 -41 166 -21 340 17
145 19 151 69 230 36 55 111 108 262 186 55 28 118 62 140 75 35 22 51 25 135
26 52 0 183 -9 290 -21z m-342 -541 c6 -17 11 -33 9 -34 -5 -4 -200 -104 -203
-104 -2 0 2 14 8 31 7 20 35 47 87 84 42 30 78 55 81 55 3 0 11 -14 18 -32z
m4877 -2368 c39 -5 129 -16 200 -25 133 -16 243 -37 289 -55 24 -9 26 -13 20
-52 -4 -24 -18 -81 -31 -128 -34 -115 -62 -251 -56 -267 8 -19 30 -16 46 7 8
11 36 94 63 185 27 91 51 165 55 165 14 0 249 -214 249 -227 0 -8 -11 -58 -24
-111 -14 -53 -34 -144 -46 -202 -13 -58 -29 -113 -38 -123 -15 -17 -253 -167
-265 -167 -3 0 -8 26 -12 58 -10 86 -84 226 -173 329 -78 89 -99 104 -195 133
-87 26 -342 87 -400 96 -27 3 -51 12 -53 18 -4 11 66 335 81 375 5 11 26 13
113 7 59 -3 139 -10 177 -16z m-770 -456 c233 -27 866 -171 913 -208 33 -26
128 -175 147 -232 36 -107 64 -537 65 -999 0 -293 14 -555 29 -584 25 -46 72
-32 93 28 l13 40 105 -78 c58 -43 110 -84 117 -92 6 -8 28 -90 48 -184 20 -93
47 -213 60 -265 12 -52 28 -126 35 -165 15 -83 106 -493 115 -516 5 -12 -15
-26 -89 -62 -104 -50 -197 -110 -235 -151 -26 -27 -53 -32 -94 -17 -20 8 -28
25 -51 118 -34 128 -40 143 -67 143 -41 0 -47 -96 -13 -210 8 -25 14 -48 14
-52 0 -10 -181 -9 -234 0 l-40 7 -17 81 c-30 134 -51 166 -86 131 -15 -15 -15
-23 1 -93 9 -42 15 -79 12 -81 -2 -2 -49 18 -104 46 -91 46 -100 53 -106 83
-10 58 -36 301 -36 347 0 57 -33 88 -169 159 -124 65 -162 107 -243 262 -32
61 -58 113 -58 115 0 6 101 57 105 53 1 -2 13 -23 25 -47 35 -69 193 -223 265
-256 93 -44 174 -65 247 -65 81 0 118 12 118 39 0 25 -31 42 -130 71 -100 29
-166 74 -282 192 -130 132 -151 176 -184 378 -30 190 -61 419 -75 565 -16 172
-35 218 -74 179 -18 -19 -19 -113 -5 -424 9 -182 22 -307 47 -441 4 -23 -3
-30 -74 -71 -175 -103 -397 -194 -733 -301 -264 -84 -377 -107 -365 -74 21 59
19 65 -79 267 -36 74 -66 139 -66 145 0 5 16 20 35 32 l34 22 68 -93 c37 -52
85 -120 107 -151 64 -94 132 -120 182 -69 38 38 26 67 -65 154 -43 41 -106
107 -139 146 l-61 71 22 19 c53 47 44 50 172 -73 66 -64 133 -124 150 -134 65
-40 135 -12 135 54 0 48 -23 73 -103 113 -40 20 -98 57 -130 83 -33 25 -68 53
-78 61 -19 15 -19 16 18 52 l38 36 105 -69 c58 -38 124 -82 146 -98 58 -41
102 -48 137 -21 19 15 27 31 27 51 0 54 -25 85 -97 121 -122 61 -199 107 -226
135 -77 80 -204 247 -277 365 -46 73 -93 150 -106 170 -13 21 -24 40 -24 43 0
2 37 23 83 46 203 102 438 273 543 396 126 147 171 217 193 300 13 47 16 49
121 58 165 15 625 87 639 100 12 12 12 16 0 31 -11 13 -24 15 -79 10 -36 -4
-182 -18 -325 -31 -143 -14 -275 -27 -292 -31 l-33 -6 0 83 c0 88 -14 148 -49
217 -12 23 -21 44 -21 46 0 7 125 -2 285 -20z m-366 -160 c12 -30 21 -71 21
-90 0 -81 -67 -261 -113 -301 -19 -16 -20 -17 -14 -1 11 30 -30 165 -80 266
-44 89 -46 96 -29 106 10 6 50 35 89 64 l71 54 18 -21 c9 -12 26 -47 37 -77z
m-289 -106 c0 -7 7 -26 15 -42 51 -97 112 -325 95 -356 -14 -25 -100 -104
-180 -164 l-75 -56 -17 93 c-16 92 -71 264 -102 324 -9 18 -16 38 -16 46 0 9
40 36 93 62 50 26 110 60 132 76 45 32 55 35 55 17z m-321 -276 c30 -94 72
-270 86 -358 l6 -41 -90 -47 c-50 -26 -108 -53 -130 -61 l-39 -13 -10 41 c-5
23 -8 70 -5 104 7 85 -12 182 -54 281 -19 46 -34 85 -32 86 2 2 38 18 79 35
41 18 91 40 110 51 19 11 38 19 41 20 4 0 21 -44 38 -98z m-330 -127 c20 -56
33 -115 37 -168 6 -72 4 -89 -16 -136 -19 -43 -34 -60 -77 -88 -74 -47 -333
-176 -340 -169 -9 9 -84 497 -78 504 2 2 41 12 87 22 78 17 292 89 327 110 9
5 19 10 23 10 3 0 20 -38 37 -85z m-2697 -31 c76 -25 138 -49 138 -52 0 -4 -7
-29 -16 -57 -26 -84 -25 -195 2 -325 13 -63 24 -116 24 -117 0 -3 -57 36 -121
83 -54 41 -137 130 -174 187 -10 16 -24 63 -31 104 -12 66 -11 86 1 141 16 66
22 82 32 82 3 0 68 -21 145 -46z m2158 -228 c18 -135 35 -235 55 -322 3 -15
-1 -23 -13 -27 -107 -31 -262 -68 -324 -77 -109 -16 -150 -4 -189 58 -53 84
-74 170 -74 315 0 93 3 130 13 136 7 4 56 13 110 20 109 14 326 56 363 69 17
7 26 6 31 -3 4 -6 17 -83 28 -169z m-1745 129 c104 -20 185 -31 463 -61 45 -5
52 -8 47 -22 -33 -84 -29 -308 8 -469 l23 -102 -45 5 c-235 27 -405 64 -604
130 -54 18 -49 6 -77 184 -27 172 -26 264 6 359 3 9 13 11 32 6 15 -4 81 -17
147 -30z m1100 -92 c-19 -135 -8 -264 31 -383 15 -47 30 -87 34 -90 11 -10 41
-62 38 -66 -19 -18 -492 -43 -545 -28 -18 5 -24 23 -48 146 -31 162 -38 317
-16 391 7 26 14 48 15 49 0 0 98 4 216 8 118 3 230 7 248 8 32 2 32 2 27 -35z
m1304 -412 c53 -77 68 -107 60 -117 -18 -22 -110 -89 -202 -148 -76 -49 -88
-54 -94 -39 -3 10 -30 76 -60 146 -29 71 -50 133 -47 138 3 5 36 25 72 44 37
19 92 49 122 68 41 26 58 32 66 23 7 -6 44 -58 83 -115z m-2801 -30 c48 -33
245 -128 312 -150 122 -38 315 -83 445 -102 233 -36 677 -37 848 -3 l27 6 0
-114 c0 -258 42 -563 124 -899 47 -190 60 -225 107 -282 24 -29 38 -37 62 -37
76 1 93 57 48 154 -32 69 -82 245 -74 259 5 8 143 10 143 1 0 -20 71 -326 82
-350 16 -38 57 -73 86 -74 29 0 62 34 62 64 0 13 -13 53 -28 88 -16 34 -43
109 -61 165 -17 56 -34 109 -37 116 -4 11 9 16 53 21 31 4 67 9 78 12 20 5 24
-3 45 -83 56 -215 84 -294 113 -321 38 -35 72 -38 103 -7 22 22 26 33 21 66
-3 22 -17 59 -32 81 -25 37 -114 254 -118 286 -1 7 26 22 66 36 l67 23 16 -51
c40 -127 77 -276 83 -331 5 -51 1 -79 -32 -190 -21 -71 -60 -218 -88 -325 -39
-153 -141 -511 -208 -729 -5 -18 -19 -27 -56 -37 -28 -7 -106 -36 -175 -64
-237 -97 -367 -130 -519 -130 l-84 0 7 68 c10 97 32 184 67 264 24 55 28 72
18 84 -17 20 -24 18 -69 -23 -72 -64 -140 -234 -140 -348 l0 -44 -52 5 c-29 3
-95 15 -147 26 l-94 21 6 76 c6 85 35 182 73 243 29 45 28 72 -3 76 -27 4 -86
-47 -120 -105 -34 -58 -63 -154 -63 -209 0 -24 -3 -44 -7 -43 -5 0 -39 8 -78
18 -67 17 -70 18 -73 50 -6 58 18 175 48 236 31 64 61 93 215 210 50 37 92 69
93 71 2 1 12 33 22 71 11 37 34 124 54 193 135 488 223 934 240 1213 7 114 0
147 -33 147 -43 0 -61 -50 -106 -295 -14 -77 -30 -156 -34 -175 -5 -19 -12
-47 -15 -62 -5 -24 -9 -26 -29 -18 -12 5 -98 39 -192 75 -185 72 -398 161
-431 182 -36 23 -72 104 -145 325 -39 117 -77 219 -84 227 -8 8 -21 11 -31 7
-15 -6 -16 -18 -11 -119 6 -97 4 -115 -11 -134 -9 -12 -75 -61 -147 -109 -142
-95 -306 -216 -326 -240 -9 -12 -10 -17 0 -27 16 -16 82 20 294 159 87 57 171
110 186 118 l27 15 23 -76 c12 -42 39 -110 59 -151 41 -82 89 -127 172 -158
89 -33 192 -86 184 -93 -8 -8 -150 -110 -235 -170 -20 -14 -93 -68 -163 -118
-69 -51 -130 -93 -134 -93 -5 0 -16 25 -26 56 -14 46 -21 55 -38 52 -16 -2
-30 -28 -67 -133 -59 -164 -78 -195 -154 -249 -81 -57 -157 -100 -157 -89 0 4
12 69 27 144 14 74 24 143 20 152 -3 9 -15 17 -26 17 -38 0 -61 -57 -96 -235
l-21 -110 -55 -3 c-30 -2 -96 -1 -146 3 l-93 7 0 51 c0 66 25 234 47 310 14
52 14 60 1 74 -26 25 -57 -1 -93 -80 -37 -80 -65 -200 -65 -278 l0 -51 -37 7
c-20 3 -70 19 -112 34 -75 27 -76 28 -79 65 -4 41 39 219 63 267 9 16 13 34
10 39 -11 18 -51 11 -73 -13 -31 -33 -72 -128 -84 -199 -6 -35 -13 -65 -14
-67 -6 -7 -74 50 -100 84 -26 34 -26 36 -14 102 7 38 25 102 41 143 144 389
177 464 238 548 44 60 362 306 665 515 65 44 68 52 93 249 10 76 19 138 21
138 2 0 16 -8 30 -19z m2406 -202 c32 -88 57 -161 55 -163 -8 -6 -135 -46
-215 -66 -102 -26 -331 -60 -405 -60 -69 0 -67 -6 -76 188 l-6 142 80 0 c45 0
124 9 178 20 93 19 260 70 294 90 9 5 21 9 26 10 6 0 36 -72 69 -161z m568
-33 c29 -40 84 -111 122 -157 l68 -83 -89 -86 c-96 -93 -262 -215 -274 -203
-16 16 -188 396 -184 404 3 4 55 36 116 70 60 35 125 78 142 95 18 18 35 33
39 33 4 1 31 -32 60 -73z m-430 -323 c25 -60 65 -150 87 -201 23 -51 41 -95
41 -98 0 -9 -147 -74 -227 -100 -94 -30 -216 -59 -309 -74 -68 -11 -262 -15
-272 -6 -9 10 -62 290 -68 365 l-7 78 104 6 c161 10 419 65 521 112 29 13 60
24 68 24 10 1 31 -37 62 -106z m313 -730 c-7 -51 -29 -75 -63 -71 -22 3 -30
16 -67 114 -24 62 -54 138 -69 169 -14 32 -26 59 -26 61 0 2 21 14 47 28 l47
24 69 -142 c62 -127 68 -145 62 -183z m743 -130 c-71 -225 -98 -319 -133 -468
-20 -82 -39 -163 -43 -178 -6 -24 -19 -33 -82 -58 -172 -67 -228 -79 -370 -79
-120 0 -131 1 -126 18 25 79 49 201 47 233 -1 22 -30 32 -47 18 -15 -12 -80
-177 -90 -227 -8 -39 -8 -39 -95 -45 l-66 -4 43 171 c43 168 50 196 95 406 12
58 26 111 32 118 5 7 32 12 64 12 29 0 68 6 86 13 18 8 60 17 94 21 86 10 351
78 487 125 61 21 118 39 126 40 13 1 9 -21 -22 -116z"/>
<path d="M6016 8647 c-35 -20 -46 -38 -118 -192 -87 -186 -95 -212 -79 -244
32 -59 98 4 181 174 32 66 63 126 68 133 7 10 22 9 77 -3 128 -30 191 -71 234
-153 10 -20 8 -34 -15 -95 -15 -40 -50 -106 -77 -147 -62 -94 -69 -113 -53
-135 17 -24 56 -14 108 28 74 59 175 231 185 316 7 64 -20 124 -89 197 -61 64
-81 76 -197 115 -104 36 -171 37 -225 6z"/>
<path d="M2807 7796 c-109 -45 -169 -101 -198 -184 -8 -25 -8 -36 1 -47 19
-23 39 -18 94 24 106 81 216 118 315 107 50 -6 60 -4 76 14 26 29 11 70 -35
92 -54 28 -179 24 -253 -6z"/>
<path d="M4605 7816 c-5 -3 -26 -7 -46 -10 -43 -7 -89 -46 -89 -75 0 -42 25
-51 135 -51 73 0 121 -6 163 -19 61 -19 164 -73 215 -113 39 -31 62 -15 61 40
-1 77 -84 152 -215 196 -68 22 -200 41 -224 32z"/>
<path d="M2845 7161 c-149 -42 -237 -175 -275 -417 -23 -145 14 -331 80 -399
l30 -31 -40 -44 c-58 -62 -71 -115 -75 -300 -5 -248 15 -353 98 -510 66 -123
172 -236 258 -275 57 -25 62 -26 85 -11 16 11 24 26 24 46 0 24 -10 37 -52 68
-111 82 -192 195 -238 332 -47 140 -47 493 -1 559 42 59 208 127 338 138 104
9 452 9 538 0 148 -16 320 -18 345 -5 34 18 39 62 8 82 -70 45 -477 86 -696
70 -107 -8 -122 -7 -116 6 43 106 62 271 44 381 -14 87 -63 199 -109 251 -39
44 -105 78 -152 77 -19 0 -61 -8 -94 -18z m218 -339 c48 -42 60 -128 28 -197
-67 -146 -191 -107 -191 60 0 68 18 114 56 144 32 26 74 23 107 -7z"/>
<path d="M4501 7144 c-129 -67 -223 -201 -256 -366 -41 -210 3 -395 128 -533
142 -157 315 -155 482 6 112 108 165 248 165 441 0 89 -4 119 -24 174 -30 83
-83 160 -152 223 -59 54 -118 79 -209 87 -55 6 -66 3 -134 -32z m66 -299 c11
-8 30 -35 42 -60 38 -80 24 -163 -37 -227 -67 -71 -148 -44 -178 58 -12 44
-13 64 -5 105 21 97 57 139 121 139 20 0 45 -7 57 -15z"/>
<path d="M3100 6224 c-113 -17 -143 -28 -187 -68 -45 -41 -45 -41 -50 -122 -5
-73 -3 -87 20 -137 38 -84 104 -149 201 -196 45 -23 89 -41 98 -41 12 0 16
-14 20 -63 10 -119 94 -229 202 -263 89 -28 218 -30 316 -3 150 40 275 106
372 197 81 75 98 130 55 170 -37 35 -64 28 -116 -29 -134 -148 -310 -232 -484
-230 -124 1 -196 41 -243 133 -28 56 -31 87 -6 94 9 3 58 26 107 50 163 80
265 197 265 304 0 100 -80 157 -265 190 -99 18 -237 24 -305 14z"/>
<path d="M1520 4319 c-221 -49 -384 -187 -446 -378 l-20 -63 -95 -2 c-73 -1
-107 -7 -154 -25 -78 -31 -152 -102 -190 -181 -26 -55 -27 -62 -13 -76 23 -23
45 -12 121 62 37 36 87 74 110 84 52 24 128 25 206 4 97 -27 104 -22 135 102
33 131 80 204 171 269 70 50 188 93 279 102 113 10 212 -35 266 -122 11 -18
38 -82 59 -140 21 -59 44 -111 52 -116 9 -4 32 0 58 12 66 29 142 35 196 15
24 -10 57 -16 72 -14 57 6 34 71 -40 110 -35 19 -56 23 -129 22 l-87 -1 -21
62 c-50 151 -149 246 -290 279 -83 20 -135 19 -240 -5z"/>
<path d="M8893 4276 c-144 -35 -277 -140 -337 -266 -36 -74 -37 -115 -5 -125
27 -9 41 2 100 81 69 91 111 126 195 166 59 27 79 32 149 32 67 0 89 -4 137
-27 71 -35 131 -101 158 -176 34 -96 42 -106 81 -105 18 1 68 14 109 29 88 33
123 30 193 -16 59 -39 100 -37 105 4 7 59 -89 141 -179 153 -28 4 -69 0 -108
-10 -34 -9 -66 -16 -71 -16 -5 0 -23 27 -41 60 -18 34 -50 81 -72 106 -89 101
-262 147 -414 110z"/>
<path d="M9218 2716 c-124 -36 -228 -142 -188 -191 18 -22 40 -19 106 14 33
15 77 34 99 42 45 14 183 17 265 5 47 -7 58 -6 70 8 23 29 1 65 -59 99 -47 27
-64 31 -150 33 -60 2 -113 -2 -143 -10z"/>
<path d="M1372 2049 c-159 -27 -315 -117 -363 -210 -23 -46 -24 -72 -4 -89 13
-11 27 -5 86 36 154 108 210 127 369 127 90 0 127 -5 172 -21 109 -39 196
-113 284 -244 55 -82 64 -83 166 -28 136 73 281 87 456 44 67 -17 73 -17 89
-1 41 41 -49 115 -175 143 -130 29 -256 10 -418 -62 -5 -3 -31 22 -57 55 -60
78 -142 142 -242 191 -135 66 -230 81 -363 59z"/>
<path d="M3070 1834 c-73 -25 -104 -80 -59 -105 31 -16 202 4 272 32 69 29 -6
89 -110 89 -32 -1 -78 -8 -103 -16z"/>
<path d="M6963 1730 c-184 -66 -377 -230 -342 -293 16 -27 44 -20 116 29 93
64 221 121 300 135 85 15 200 6 283 -22 87 -29 194 -109 246 -185 22 -32 48
-61 58 -62 10 -2 55 14 100 37 101 50 162 64 243 55 108 -11 143 14 89 65 -58
55 -181 65 -306 25 l-82 -25 -71 69 c-68 64 -154 123 -222 150 -113 44 -318
55 -412 22z"/>
</g>
</svg>
