<?xml version="1.0" encoding="UTF-8" standalone="yes"?>
<svg version="1.0" xmlns="http://www.w3.org/2000/svg" width="1024.000000pt" height="1024.000000pt" viewBox="0 0 1024.000000 1024.000000" preserveAspectRatio="xMidYMid meet">
  <metadata>
Created by potrace 1.16, written by Peter Selinger 2001-2019
</metadata>
  <g transform="translate(0.000000,1024.000000) scale(0.100000,-0.100000)" fill="#000000" stroke="none">
    <path d="M2238 9995 c-199 -73 -332 -348 -315 -653 11 -204 82 -356 246 -525&#xA;109 -113 157 -149 361 -272 199 -121 277 -181 400 -304 86 -87 253 -285 284&#xA;-338 4 -7 2 -22 -4 -33 -11 -20 -12 -19 -37 12 -229 283 -484 432 -888 523&#xA;-431 96 -576 74 -601 -92 -8 -56 11 -220 42 -362 83 -375 254 -658 496 -822&#xA;151 -103 350 -168 520 -172 l97 -2 -4 -115 c-3 -63 -8 -185 -11 -271 l-6 -156&#xA;-71 -7 c-418 -39 -696 -395 -577 -741 10 -30 26 -65 34 -77 12 -16 16 -47 16&#xA;-112 0 -112 20 -197 73 -306 34 -70 58 -101 132 -175 128 -129 249 -189 441&#xA;-219 l72 -11 68 -77 c91 -101 127 -162 184 -313 71 -187 135 -283 239 -359&#xA;l49 -36 -14 -47 c-38 -125 13 -303 120 -417 l41 -44 0 -129 c0 -70 2 -144 5&#xA;-163 l5 -35 -226 -115 c-125 -63 -249 -128 -275 -144 -136 -81 -234 -179 -289&#xA;-288 -71 -142 -71 -248 -1 -463 59 -182 73 -245 86 -390 15 -166 27 -231 57&#xA;-298 27 -59 68 -103 106 -113 16 -4 40 -39 85 -127 73 -141 166 -283 203 -310&#xA;34 -24 134 -33 169 -15 35 19 36 44 2 92 -50 71 -103 186 -85 186 5 0 42 -43&#xA;83 -97 113 -145 145 -158 246 -97 106 63 189 160 265 310 71 138 75 253 12&#xA;348 -22 34 -24 42 -13 60 48 77 32 135 -70 241 -77 81 -184 230 -175 245 2 4&#xA;23 10 45 14 66 10 228 65 322 108 l86 40 52 -17 c33 -11 67 -15 93 -12 31 4&#xA;48 0 76 -18 65 -40 157 -84 205 -96 25 -6 46 -14 46 -18 0 -4 -7 -63 -15 -131&#xA;-43 -351 -109 -565 -240 -785 -64 -108 -84 -171 -67 -210 11 -23 6 -36 -53&#xA;-143 -73 -131 -125 -256 -125 -301 0 -71 154 -176 203 -138 9 6 36 59 60 117&#xA;42 103 110 223 161 285 34 41 32 22 -11 -92 -51 -138 -93 -280 -93 -319 0 -60&#xA;79 -87 250 -86 218 2 471 86 556 186 36 42 64 117 64 170 0 30 2 31 44 31 106&#xA;0 133 62 146 344 17 356 32 435 140 761 38 117 70 218 70 225 0 9 28 15 88 20&#xA;48 4 106 10 129 15 40 7 42 6 53 -23 15 -45 12 -98 -11 -173 -26 -83 -41 -111&#xA;-185 -329 -139 -210 -164 -257 -164 -306 0 -22 -16 -77 -35 -124 -20 -46 -38&#xA;-104 -41 -128 -6 -39 -3 -48 26 -81 34 -38 78 -66 104 -66 8 0 26 25 41 57 29&#xA;65 145 243 158 243 4 0 6 -3 4 -7 -23 -37 -107 -281 -105 -302 3 -23 10 -28&#xA;73 -44 129 -32 311 -21 441 28 107 40 132 68 152 161 7 36 10 39 39 36 21 -2&#xA;39 4 57 20 24 20 28 34 36 118 29 281 38 323 122 525 60 147 95 264 104 351 4&#xA;42 11 63 18 60 210 -93 296 -122 453 -153 97 -19 93 -9 62 -164 -38 -193 -67&#xA;-273 -183 -510 -88 -179 -95 -205 -72 -257 l17 -38 -59 -129 c-94 -204 -98&#xA;-240 -37 -294 37 -32 114 -65 141 -59 13 2 43 51 94 153 70 140 127 236 149&#xA;250 6 3 -17 -75 -50 -172 -65 -193 -74 -247 -46 -268 22 -16 126 -35 193 -35&#xA;117 0 320 52 411 106 113 66 154 128 161 247 5 77 5 77 33 77 18 0 41 11 61&#xA;29 l33 30 -5 153 c-2 84 -4 239 -4 343 0 174 4 208 38 405 87 499 74 559 -161&#xA;743 -151 119 -166 181 -116 488 38 237 37 526 -3 684 -5 18 -1 20 50 17 252&#xA;-16 517 219 566 502 14 76 2 172 -27 215 -14 21 -18 51 -19 156 -1 120 -3 137&#xA;-35 230 -41 119 -90 196 -171 269 -58 53 -132 96 -163 96 -8 0 -45 31 -82 68&#xA;-122 123 -270 176 -328 117 -29 -28 -29 -29 -14 -147 15 -111 0 -234 -42 -363&#xA;-49 -147 -134 -278 -240 -367 l-46 -38 -66 30 c-160 72 -353 107 -547 97 -154&#xA;-8 -294 -37 -470 -98 -80 -28 -172 -58 -205 -66 -72 -18 -197 -13 -266 12&#xA;l-46 16 -6 67 c-3 37 -13 87 -21 112 l-16 45 37 30 c118 94 197 183 267 300&#xA;30 49 35 53 41 35 4 -12 16 -25 28 -29 73 -27 177 102 222 274 20 80 20 259&#xA;-2 350 -21 87 -21 145 1 260 16 88 28 212 42 425 3 58 7 106 8 107 0 1 28 -5&#xA;61 -13 100 -24 257 -28 385 -11 304 41 566 169 792 386 215 206 361 442 485&#xA;781 83 229 103 377 60 441 -48 72 -113 82 -307 49 -138 -24 -338 -46 -550 -60&#xA;-512 -35 -802 -138 -1071 -383 -29 -26 -55 -44 -59 -40 -4 4 -25 42 -48 85&#xA;l-40 76 124 108 c208 180 339 267 464 310 71 24 137 33 379 54 295 25 481 98&#xA;635 248 164 159 200 324 96 435 -35 38 -42 41 -102 45 -77 5 -99 -5 -256 -110&#xA;-57 -39 -105 -68 -108 -65 -3 2 16 39 42 82 104 171 152 326 161 515 14 319&#xA;-111 554 -308 577 -98 12 -196 -51 -242 -154 -27 -60 -35 -111 -62 -378 -26&#xA;-255 -71 -379 -176 -486 -48 -50 -63 -60 -86 -57 -39 4 -49 42 -57 218 -9 215&#xA;-44 335 -123 414 -87 88 -237 85 -306 -6 -61 -80 -70 -173 -37 -393 26 -172&#xA;26 -299 0 -401 -52 -201 -167 -364 -368 -519 l-94 -72 -56 33 c-68 41 -181 86&#xA;-305 120 -50 14 -97 27 -104 29 -6 2 -19 30 -28 62 -108 375 -487 696 -700&#xA;593 -97 -47 -101 -151 -10 -285 24 -36 42 -65 40 -65 -1 0 -22 9 -46 19 -156&#xA;69 -379 37 -440 -62 -45 -75 -33 -154 31 -210 l40 -34 -72 -12 c-97 -16 -219&#xA;-53 -331 -102 -103 -44 -102 -44 -113 39 -12 95 1 171 60 349 31 94 56 184 56&#xA;200 0 49 -20 102 -53 140 -81 92 -209 84 -304 -19 -49 -54 -69 -92 -113 -213&#xA;-47 -130 -56 -137 -93 -77 -76 119 -80 254 -18 497 23 88 44 194 47 235 10&#xA;125 -25 207 -106 248 -80 40 -153 25 -235 -50 -71 -65 -124 -172 -161 -323&#xA;-14 -60 -30 -127 -36 -147 -5 -23 -15 -38 -24 -38 -8 0 -37 22 -63 48 -91 91&#xA;-110 200 -80 456 19 165 -2 277 -64 345 -57 61 -175 87 -259 56z m139 -140&#xA;c12 -8 29 -35 39 -60 15 -41 16 -58 4 -188 -23 -259 -15 -349 42 -461 48 -93&#xA;189 -206 257 -206 39 0 88 35 109 77 11 21 31 95 46 165 30 143 46 194 81 254&#xA;48 82 122 118 156 77 25 -29 16 -145 -24 -305 -59 -234 -65 -316 -35 -453 16&#xA;-71 44 -132 86 -188 65 -85 132 -108 199 -67 44 26 57 49 104 181 74 209 131&#xA;269 196 207 32 -30 29 -59 -16 -186 -21 -60 -46 -141 -55 -180 -20 -90 -21&#xA;-240 -1 -317 15 -55 15 -59 -2 -69 -10 -5 -67 -43 -128 -84 l-109 -74 -19 26&#xA;c-65 90 -195 245 -277 329 -113 118 -238 215 -424 326 -280 169 -423 306 -496&#xA;475 -104 244 -30 610 145 718 36 22 93 23 122 3z m4990 -15 c75 -45 123 -170&#xA;131 -336 11 -239 -55 -422 -245 -679 -40 -54 -73 -107 -73 -116 0 -32 48 -59&#xA;105 -59 89 0 196 44 329 137 116 81 161 97 190 67 45 -44 3 -148 -98 -249&#xA;-139 -137 -298 -189 -656 -215 -191 -13 -259 -29 -376 -84 -153 -73 -255 -147&#xA;-513 -376 -221 -197 -204 -185 -282 -185 -56 0 -71 4 -102 28 -42 32 -63 87&#xA;-53 139 9 50 54 97 168 179 250 178 402 376 474 615 24 79 27 106 28 239 0 97&#xA;-6 188 -17 256 -19 122 -22 208 -6 242 26 57 92 58 135 1 47 -61 65 -143 74&#xA;-329 9 -192 23 -244 75 -295 114 -110 335 33 435 284 44 108 66 222 85 431 20&#xA;217 27 249 70 292 39 39 74 43 122 13z m-2576 -982 c162 -86 310 -287 384&#xA;-522 l32 -101 61 -8 c97 -12 377 -115 396 -145 3 -5 -7 -26 -21 -47 -100 -147&#xA;-38 -342 127 -400 108 -38 198 -26 288 38 49 36 44 39 106 -77 l39 -73 -41&#xA;-69 c-23 -38 -53 -100 -67 -138 -26 -69 -46 -209 -35 -242 5 -15 9 -13 27 12&#xA;11 16 44 76 74 134 99 194 243 361 408 473 216 146 414 204 772 227 96 6 219&#xA;15 274 19 55 5 101 8 103 6 1 -1 -62 -30 -140 -65 -409 -179 -503 -244 -828&#xA;-570 -260 -261 -333 -319 -450 -360 -98 -35 -98 -36 -4 -84 216 -112 523 -85&#xA;769 69 65 40 203 171 192 181 -2 3 -35 -14 -73 -37 -97 -60 -216 -114 -304&#xA;-139 -84 -24 -288 -38 -354 -23 l-38 8 63 50 c35 27 163 146 284 265 297 292&#xA;384 355 700 513 351 175 556 257 609 243 34 -8 34 -36 1 -152 -113 -397 -310&#xA;-738 -538 -936 -252 -217 -518 -318 -837 -318 -147 0 -260 21 -400 73 -52 20&#xA;-99 32 -103 28 -12 -12 9 -49 56 -98 l40 -42 -7 -168 c-7 -160 -20 -326 -32&#xA;-405 l-5 -36 -48 49 c-26 27 -53 49 -59 49 -21 0 -13 -46 24 -132 101 -235&#xA;119 -458 49 -622 l-16 -39 -34 78 c-19 43 -46 96 -61 118 -32 48 -39 41 -47&#xA;-54 -7 -83 -44 -190 -93 -272 -50 -83 -200 -232 -299 -297 -209 -137 -577&#xA;-279 -813 -314 -48 -7 -88 -12 -90 -10 -2 1 15 38 37 82 23 43 41 85 41 91 0&#xA;27 -97 -57 -193 -167 -56 -64 -129 -145 -162 -180 -268 -284 -675 -389 -960&#xA;-247 -137 68 -222 169 -300 358 -48 117 -112 222 -176 292 -36 39 -39 46 -23&#xA;52 10 4 43 -3 78 -17 88 -33 225 -69 269 -69 l37 -1 0 -67 c0 -176 88 -319&#xA;229 -375 83 -33 259 -33 350 0 153 57 299 182 411 352 93 143 133 229 231 505&#xA;22 61 63 170 91 243 45 113 55 132 74 132 28 0 94 -24 160 -57 28 -14 59 -23&#xA;68 -20 40 15 1 97 -68 143 -74 49 -157 67 -285 62 -90 -3 -113 -7 -150 -28&#xA;-54 -31 -70 -53 -55 -77 10 -16 25 -18 110 -14 l98 3 -29 -38 c-216 -291 -442&#xA;-474 -699 -563 -164 -58 -215 -66 -411 -66 -205 0 -281 15 -409 83 -128 67&#xA;-251 208 -263 302 -6 39 -5 40 27 40 57 0 193 40 285 85 150 72 269 198 316&#xA;332 28 83 26 227 -5 314 -24 68 -67 139 -105 173 -32 29 -26 34 37 24 181 -27&#xA;398 -144 560 -301 28 -28 52 -45 52 -38 0 29 -66 135 -123 197 -33 35 -88 85&#xA;-122 110 -67 47 -241 134 -270 134 -13 0 -15 5 -9 18 75 170 91 382 44 569&#xA;-47 181 -142 283 -265 283 -131 0 -249 -132 -307 -345 -17 -66 -21 -109 -22&#xA;-247 -1 -161 -2 -168 -21 -167 -57 2 -57 0 -56 194 3 335 28 549 87 738 64&#xA;200 192 404 334 528 186 164 569 356 795 398 l46 9 -59 -62 c-70 -72 -91 -110&#xA;-99 -175 -23 -197 255 -187 466 16 l66 63 -85 -31 c-232 -86 -340 -101 -340&#xA;-48 0 108 176 237 338 247 74 4 107 15 97 32 -3 4 -70 40 -149 79 -168 82&#xA;-221 122 -205 153 27 50 150 62 285 27 102 -26 220 -83 318 -153 108 -78 130&#xA;-75 79 13 -14 25 -79 125 -143 221 -131 198 -151 237 -129 251 21 14 77 1 140&#xA;-33z m-2562 -558 c277 -55 520 -171 694 -330 62 -57 187 -200 187 -214 0 -4&#xA;-25 -50 -56 -104 -31 -53 -67 -121 -80 -149 -12 -29 -27 -53 -32 -53 -22 0&#xA;-136 137 -216 260 -196 300 -345 449 -586 584 -36 20 -54 34 -40 31 14 -2 72&#xA;-14 129 -25z m-233 -45 c239 -120 439 -305 603 -558 144 -222 190 -284 245&#xA;-328 l49 -39 -65 0 c-128 0 -256 51 -395 157 l-84 64 23 -42 c35 -64 145 -176&#xA;209 -214 69 -40 176 -80 243 -89 l48 -8 -6 -51 c-4 -28 -10 -55 -13 -60 -12&#xA;-19 -203 0 -293 28 -164 52 -275 118 -386 230 -120 120 -203 262 -268 457 -49&#xA;147 -102 438 -89 488 9 35 59 25 179 -35z m1434 -1247 c42 -29 93 -121 115&#xA;-206 9 -35 14 -66 12 -68 -2 -3 -17 2 -33 11 -57 30 -120 11 -175 -53 -67 -79&#xA;-94 -220 -66 -342 9 -36 14 -66 13 -68 -2 -1 -23 8 -47 22 -24 13 -65 31 -91&#xA;41 -47 17 -47 18 -54 73 -12 101 1 269 30 357 65 202 193 302 296 233z m78&#xA;-390 c18 -18 14 -63 -7 -89 -27 -33 -55 -16 -59 35 -5 56 33 87 66 54z m-572&#xA;-399 c54 -17 79 -31 117 -69 43 -43 47 -51 47 -94 0 -43 -4 -51 -48 -95 -148&#xA;-148 -511 -147 -602 2 -65 106 39 240 213 277 62 13 195 3 273 -21z m-466&#xA;-877 c90 -47 206 -82 319 -94 20 -3 26 -14 45 -80 25 -84 70 -166 131 -236&#xA;l40 -45 -65 6 c-259 24 -497 194 -576 411 -13 37 -24 80 -24 97 l0 30 38 -30&#xA;c20 -16 62 -42 92 -59z m5534 -64 c137 -124 212 -281 223 -472 l6 -101 31 65&#xA;c29 61 31 72 31 182 0 65 1 118 3 118 1 0 16 -12 32 -27 44 -39 88 -113 118&#xA;-195 22 -63 26 -89 26 -198 0 -110 -3 -135 -27 -208 -18 -52 -50 -114 -87&#xA;-170 -32 -48 -57 -89 -55 -90 2 -2 20 1 39 8 45 14 127 88 173 154 l35 51 -7&#xA;-45 c-34 -216 -206 -404 -402 -440 -66 -11 -143 -4 -143 14 0 25 -103 216&#xA;-150 279 -29 37 -94 106 -145 154 l-94 87 73 77 c40 43 90 103 110 134 52 77&#xA;111 207 130 286 30 123 31 306 1 382 -12 30 9 19 79 -45z m-3606 -585 c-64&#xA;-96 -206 -240 -272 -278 -123 -71 -274 -97 -360 -61 -48 20 -47 47 4 124 70&#xA;105 185 193 285 218 l28 7 -26 -35 c-37 -48 -57 -100 -57 -148 0 -36 2 -39 18&#xA;-29 10 7 31 31 45 54 71 112 248 223 355 225 l33 0 -53 -77z m1355 -79 c15&#xA;-68 3 -193 -25 -260 -91 -224 -380 -498 -712 -675 -231 -123 -467 -200 -656&#xA;-215 -69 -5 -102 -2 -174 15 -49 12 -91 20 -93 17 -2 -2 0 -32 6 -67 18 -115&#xA;22 -179 11 -179 -33 0 -124 62 -191 129 -83 85 -131 161 -180 290 -29 76 -33&#xA;82 -41 60 -6 -13 -8 -57 -5 -97 l4 -73 -28 33 c-42 49 -85 136 -98 196 -11 51&#xA;-6 128 8 137 4 2 27 -3 50 -11 67 -23 268 -54 346 -53 39 0 93 4 120 10 28 5&#xA;109 14 180 19 217 17 354 52 534 136 211 99 355 201 544 383 120 117 136 129&#xA;250 186 67 34 126 61 132 60 5 -1 13 -19 18 -41z m1380 -109 c206 -36 392&#xA;-137 536 -290 263 -282 338 -650 244 -1205 -18 -109 -13 -250 12 -319 24 -67&#xA;85 -142 168 -204 168 -126 178 -163 132 -462 -14 -88 -34 -221 -46 -295 -23&#xA;-152 -28 -328 -15 -557 6 -111 6 -153 -2 -153 -6 0 -30 25 -53 55 l-41 55 -25&#xA;-50 c-31 -63 -84 -110 -124 -110 -41 0 -71 17 -164 94 -122 102 -221 120 -370&#xA;67 -32 -11 -61 -21 -62 -21 -12 0 8 51 76 189 91 185 140 330 176 519 32 171&#xA;33 215 0 247 -13 14 -34 25 -45 25 -41 0 -223 41 -319 72 -278 89 -458 240&#xA;-571 481 -100 213 -114 449 -43 744 15 62 24 115 21 119 -28 27 -98 -63 -140&#xA;-181 -40 -109 -51 -195 -46 -345 6 -177 33 -288 109 -438 l56 -113 -71 -33&#xA;c-67 -32 -312 -112 -421 -137 -27 -6 -92 -14 -143 -18 l-94 -6 7 40 c27 171&#xA;35 403 16 500 -13 68 -50 161 -71 180 -17 15 -18 4 -23 -212 -7 -328 -37 -488&#xA;-162 -875 -110 -338 -124 -412 -134 -719 -5 -124 -12 -233 -18 -243 -9 -16&#xA;-11 -15 -35 3 -14 12 -41 44 -59 72 l-33 52 -25 -34 c-115 -152 -221 -157&#xA;-368 -17 -34 32 -88 71 -120 86 -50 23 -71 27 -148 27 -49 0 -103 -4 -119 -8&#xA;-28 -8 -29 -7 -23 23 4 16 22 55 42 85 122 191 204 450 251 795 10 74 18 252&#xA;24 500 4 212 14 447 21 522 7 76 9 141 6 144 -12 13 -40 -21 -68 -81 -51 -114&#xA;-79 -324 -79 -608 l0 -158 -22 6 c-54 15 -167 78 -223 122 -84 68 -174 179&#xA;-252 313 l-68 114 -3 -53 c-5 -85 43 -223 112 -323 14 -21 23 -38 19 -38 -12&#xA;0 -99 54 -153 96 -217 166 -378 429 -426 694 -15 85 -18 190 -5 190 4 0 20&#xA;-17 35 -39 53 -76 190 -199 257 -231 141 -66 209 -26 209 126 l0 64 99 0 c309&#xA;0 746 181 1086 449 213 168 393 389 442 544 10 31 23 55 28 52 83 -35 152 -47&#xA;248 -43 93 4 118 9 282 65 162 56 274 86 360 96 79 10 280 6 358 -8z m-1878&#xA;-63 c-240 -208 -521 -363 -770 -423 -126 -30 -141 -26 -65 19 67 39 262 223&#xA;294 278 18 30 23 32 100 38 99 8 244 37 351 70 88 27 104 30 90 18z m-1560&#xA;-1469 c71 -188 257 -438 395 -529 22 -15 37 -31 33 -35 -28 -27 -233 -91 -366&#xA;-115 -90 -15 -107 -25 -107 -63 0 -69 126 -273 235 -381 36 -35 65 -69 65 -74&#xA;0 -5 -27 -6 -61 -3 -53 5 -60 3 -54 -11 3 -9 9 -44 12 -77 8 -90 -4 -99 -118&#xA;-90 -102 8 -102 8 -113 -93 -12 -122 -38 -130 -131 -41 -38 36 -70 59 -78 56&#xA;-10 -4 -16 -33 -21 -99 -4 -51 -11 -97 -17 -103 -15 -15 -71 21 -134 86 -34&#xA;35 -70 62 -89 67 -46 12 -72 92 -91 283 -17 176 -31 240 -87 409 -38 112 -42&#xA;135 -42 225 -1 91 2 105 28 158 35 68 101 138 190 202 62 44 500 274 522 275&#xA;6 0 19 -21 29 -47z m3007 -665 c14 -13 42 -38 63 -56 l38 -33 -6 -87 c-8 -114&#xA;-24 -172 -106 -382 -81 -206 -97 -268 -114 -427 l-12 -118 -29 38 -29 38 -41&#xA;-40 c-45 -43 -81 -61 -127 -61 -22 0 -45 14 -90 56 -33 31 -79 64 -102 75 -47&#xA;21 -153 25 -226 8 -24 -5 -46 -7 -49 -4 -3 3 54 92 126 199 147 217 195 307&#xA;217 398 17 71 19 168 6 214 l-9 31 143 43 c78 23 182 61 231 85 49 24 89 44&#xA;90 44 1 1 12 -9 26 -21z"/>
    <path d="M4995 7749 c-98 -12 -195 -87 -195 -150 0 -37 19 -45 59 -24 18 9 60&#xA;18 95 22 155 14 317 -94 452 -301 27 -42 53 -76 58 -76 15 0 -1 143 -23 201&#xA;-61 159 -215 303 -352 327 -24 4 -67 5 -94 1z"/>
    <path d="M3404 7726 c-125 -41 -265 -194 -280 -310 -9 -63 6 -60 72 13 64 70&#xA;129 113 203 135 73 21 113 20 173 -6 59 -25 72 -16 64 46 -12 98 -124 157&#xA;-232 122z"/>
    <path d="M4833 7086 c-94 -24 -164 -65 -243 -145 -147 -149 -217 -318 -227&#xA;-546 -9 -219 52 -370 190 -470 51 -38 54 -42 49 -74 l-5 -34 49 28 c278 161&#xA;492 219 768 209 119 -5 120 -5 102 15 -31 35 -102 55 -192 55 -46 1 -84 2 -84&#xA;2 0 1 11 26 25 56 50 109 68 201 69 358 1 159 -12 229 -61 330 -39 80 -134&#xA;171 -207 199 -75 28 -165 34 -233 17z m164 -127 c103 -38 182 -139 218 -277&#xA;19 -72 31 -209 15 -172 -52 118 -174 162 -291 103 -98 -51 -156 -158 -166&#xA;-312 -6 -81 14 -184 43 -229 15 -22 12 -42 -7 -42 -5 0 -39 -19 -75 -41 l-65&#xA;-42 -40 18 c-86 39 -158 150 -180 279 -50 294 122 634 363 717 70 24 115 24&#xA;185 -2z m93 -494 c20 -24 17 -85 -5 -101 -42 -31 -85 -11 -85 41 0 60 58 99&#xA;90 60z"/>
  </g>
  <title>Reindeer Rednose</title>
  <desc>Reindeer Rednose</desc>
</svg>