<?xml version="1.0" standalone="no"?>
<!DOCTYPE svg PUBLIC "-//W3C//DTD SVG 20010904//EN"
 "http://www.w3.org/TR/2001/REC-SVG-20010904/DTD/svg10.dtd">
<svg version="1.0" xmlns="http://www.w3.org/2000/svg"
 width="1024.000000pt" height="1024.000000pt" viewBox="0 0 1024.000000 1024.000000"
 preserveAspectRatio="xMidYMid meet">
<metadata>
Created by potrace 1.16, written by Peter Selinger 2001-2019
</metadata>
<g transform="translate(0.000000,1024.000000) scale(0.100000,-0.100000)"
fill="#000000" stroke="none">
<path d="M3150 8591 c-99 -32 -150 -68 -150 -108 0 -12 12 -53 26 -90 14 -38
48 -133 74 -213 27 -80 51 -152 55 -161 5 -14 -12 -10 -92 17 -120 42 -171 44
-205 9 -56 -56 -62 -174 -11 -227 32 -33 138 -87 262 -132 l85 -31 16 -65 c9
-36 20 -80 23 -99 l7 -34 -87 7 c-71 5 -89 3 -104 -10 -16 -14 -20 -12 -60 30
-54 59 -160 112 -266 133 -72 14 -87 14 -120 2 -57 -22 -76 -63 -82 -183 l-6
-101 -59 70 c-32 39 -115 131 -183 205 -69 74 -140 152 -159 172 -73 81 -149
61 -296 -81 -132 -126 -246 -269 -340 -428 -126 -210 -188 -363 -253 -626 -31
-123 -36 -164 -42 -307 -6 -184 8 -379 33 -454 21 -60 71 -111 118 -120 22 -4
97 2 184 15 118 17 173 20 277 15 145 -6 212 -20 327 -67 86 -36 110 -32 60
11 -79 66 -215 113 -369 126 -71 6 -259 -9 -326 -27 -68 -18 -153 -15 -176 5
-43 39 -62 162 -62 413 0 327 51 525 228 878 100 198 187 318 348 482 179 182
206 190 287 86 31 -40 339 -383 384 -427 17 -17 41 -58 54 -91 35 -87 113
-163 208 -200 39 -15 72 -32 72 -36 0 -5 -7 -26 -15 -46 l-15 -38 -108 0
c-174 0 -206 -23 -257 -189 l-21 -69 -86 104 c-110 134 -199 219 -230 219 -13
0 -39 -9 -58 -21 -40 -23 -338 -322 -381 -382 -49 -68 -45 -76 108 -226 161
-157 376 -352 561 -509 81 -70 132 -121 132 -132 0 -10 12 -32 26 -49 l25 -30
-55 -103 c-54 -101 -140 -285 -198 -423 -35 -85 -158 -413 -158 -423 0 -4 -39
-32 -88 -61 -315 -197 -720 -479 -728 -508 -17 -64 290 -473 354 -473 59 0
151 64 528 370 160 130 307 249 327 264 l35 27 60 -24 c70 -29 405 -135 476
-151 59 -13 54 0 86 -231 73 -536 122 -797 153 -828 17 -17 29 -19 91 -14 73
7 305 60 435 100 52 16 81 31 94 49 19 25 19 28 2 100 -28 123 -89 339 -199
713 l-65 219 63 201 c69 217 98 320 177 635 28 113 54 208 58 212 3 3 65 11
136 18 381 33 934 105 998 129 14 6 33 22 43 36 19 30 18 53 -27 375 -34 241
-45 273 -98 278 -49 5 -474 -105 -725 -188 -36 -12 -37 -20 44 215 l62 180
102 29 c55 16 214 64 351 108 138 44 270 86 295 93 25 8 111 35 191 61 187 60
190 60 222 -44 48 -149 67 -316 67 -569 0 -127 2 -153 14 -153 22 0 23 6 36
120 27 225 -34 634 -106 720 -43 51 -49 50 -539 -110 -295 -95 -594 -184 -600
-178 -3 3 64 228 70 236 2 2 20 -9 41 -23 59 -40 134 -57 233 -53 73 2 97 8
152 35 87 43 149 99 211 192 60 88 88 155 88 210 0 32 -6 44 -34 69 -68 60
-207 96 -371 95 -115 0 -110 1 -305 -76 -9 -4 -31 8 -54 28 l-39 35 45 47 c24
27 81 101 127 166 46 64 86 117 90 117 3 0 39 -7 80 -15 92 -20 302 -23 353
-6 57 19 95 69 103 136 10 74 1 122 -27 152 -22 24 -23 24 -164 17 -101 -5
-143 -4 -148 5 -4 6 -3 11 1 11 10 0 270 281 295 318 30 46 23 77 -29 133 -26
28 -67 62 -90 76 -71 41 -95 30 -205 -88 l-93 -99 -13 37 c-7 21 -22 83 -33
138 -26 132 -35 140 -145 132 -88 -6 -151 -26 -160 -51 -3 -9 10 -105 30 -213
57 -308 58 -320 51 -345 -7 -20 -237 -354 -299 -433 l-24 -30 -6 30 c-25 111
-78 170 -146 162 -19 -2 -42 -7 -50 -11 -12 -5 -21 5 -37 36 -31 66 -107 144
-168 173 l-54 27 -38 -19 c-81 -39 -95 -141 -38 -276 7 -16 3 -18 -31 -15
l-39 3 -7 55 c-15 111 -49 442 -46 444 2 1 23 11 48 22 130 56 305 285 318
416 l5 50 -67 64 c-63 62 -68 65 -109 62 -46 -3 -33 13 -192 -232 -42 -66 -59
-85 -66 -75 -4 8 -33 91 -64 184 -35 108 -64 176 -77 188 -26 22 -77 21 -148
-2z m113 -58 c3 -10 18 -56 35 -103 16 -47 40 -117 52 -156 29 -95 53 -134 84
-134 40 0 72 36 162 180 48 76 93 141 100 144 16 6 101 -67 109 -95 9 -28 -9
-69 -70 -164 -80 -123 -126 -170 -211 -211 -41 -21 -79 -43 -84 -49 -7 -8 -5
-48 5 -121 18 -134 46 -387 42 -390 -1 -2 -43 3 -92 9 l-90 12 -21 85 c-46
184 -32 163 -136 200 -123 43 -228 95 -257 127 -19 21 -22 34 -18 66 6 43 31
77 58 77 9 0 72 -18 139 -41 67 -22 128 -38 136 -35 8 3 14 19 14 37 0 46 -54
229 -111 377 l-49 127 21 15 c30 21 129 59 155 59 12 1 24 -7 27 -16z m1371
-263 c10 -72 63 -251 80 -268 25 -25 69 3 162 104 47 52 97 97 110 100 28 7
93 -33 124 -76 25 -36 40 -17 -262 -347 -69 -75 -82 -105 -50 -118 42 -16 190
-24 266 -14 94 12 98 9 93 -74 -3 -45 -9 -63 -28 -83 -49 -48 -216 -54 -382
-13 -43 11 -87 17 -97 14 -9 -3 -39 -38 -65 -78 -52 -79 -183 -254 -195 -262
-4 -3 -51 16 -104 41 l-96 45 53 67 c80 100 296 416 308 451 8 22 7 47 -4 98
-31 137 -79 412 -75 430 4 20 38 30 109 32 l46 1 7 -50z m-844 -676 c48 -45
69 -75 101 -143 60 -128 64 -136 74 -136 5 0 14 27 20 59 11 65 23 76 59 52
25 -16 47 -71 66 -169 10 -49 16 -60 38 -68 64 -24 162 -73 162 -81 0 -36
-410 -1287 -435 -1324 -17 -26 -16 -26 -195 -24 -380 4 -896 131 -1162 287
-97 57 -138 99 -138 141 0 60 91 419 137 540 20 53 54 73 138 79 82 7 325 -40
411 -79 45 -21 56 -85 25 -147 -58 -112 -219 -175 -361 -141 -56 14 -111 59
-142 118 -24 45 -42 32 -35 -25 10 -88 101 -152 227 -160 208 -15 372 98 387
266 l6 58 76 -27 c42 -15 106 -40 144 -54 76 -29 117 -33 117 -12 0 23 -43 51
-132 86 -126 50 -124 49 -100 66 11 7 27 32 36 55 15 37 15 44 3 56 -16 17
-21 13 -60 -47 -30 -47 -84 -66 -132 -46 -72 30 -93 121 -42 187 33 44 34 59
3 59 -56 0 -110 -112 -86 -175 10 -26 9 -27 -15 -21 -14 4 -46 9 -71 13 -45 6
-46 6 -40 38 11 57 186 509 204 527 14 14 534 -46 622 -72 43 -12 40 -13 40 5
0 8 -13 35 -30 61 -41 65 -63 138 -57 185 12 87 52 91 137 13z m-976 -73 c86
-39 128 -70 156 -116 l22 -36 -37 -95 c-21 -52 -39 -94 -41 -94 -2 0 -28 37
-58 83 -66 103 -121 150 -140 119 -3 -5 35 -68 84 -141 l89 -132 -17 -45 c-9
-24 -23 -44 -30 -44 -29 0 -119 53 -164 97 -63 62 -90 126 -96 234 -6 104 3
173 26 195 25 25 122 14 206 -25z m1630 -530 c36 -37 56 -39 110 -7 76 44 151
60 276 60 121 0 255 -27 307 -61 22 -15 24 -21 19 -56 -9 -53 -78 -170 -140
-235 -32 -34 -75 -65 -124 -90 -66 -32 -83 -36 -147 -36 -59 1 -84 6 -136 31
-64 30 -149 100 -149 121 0 18 302 104 430 122 77 11 126 33 114 52 -12 18
-199 3 -294 -25 -47 -13 -123 -35 -170 -47 -125 -34 -140 -43 -140 -87 0 -23
9 -48 25 -68 l24 -33 -132 -393 -133 -394 -117 -33 c-65 -19 -120 -32 -123
-30 -2 3 9 43 27 89 17 46 71 206 120 354 123 373 140 427 198 617 28 91 55
178 61 193 l10 26 28 -19 c15 -11 40 -34 56 -51z m-2247 -224 l62 -67 -96 -93
c-52 -50 -140 -143 -196 -205 l-100 -113 -84 83 c-45 45 -83 88 -83 94 0 26
305 348 364 385 36 22 41 18 133 -84z m147 -174 c25 -27 46 -55 46 -63 0 -9
-13 -71 -30 -138 -16 -68 -33 -155 -36 -193 l-7 -70 50 -47 c42 -39 153 -114
185 -124 5 -2 -4 -32 -21 -68 -16 -36 -34 -84 -40 -108 l-12 -43 -102 87
c-139 117 -455 407 -456 418 -2 25 344 396 369 396 4 0 29 -21 54 -47z m2675
-620 c5 -21 21 -121 35 -223 38 -284 39 -295 23 -308 -16 -13 -148 -40 -221
-44 -42 -3 -49 0 -52 17 -4 30 -42 295 -59 419 -8 60 -14 110 -12 112 6 7 233
63 254 64 17 0 24 -8 32 -37z m-2338 -67 c35 -14 63 -28 62 -33 -2 -4 -16 -46
-33 -92 -17 -47 -36 -117 -43 -157 l-12 -72 -68 45 c-78 52 -78 52 -42 174 29
102 52 159 64 159 5 0 37 -11 72 -24z m2008 -78 c7 -57 24 -179 37 -272 13
-93 23 -170 21 -172 -3 -3 -474 -61 -602 -74 -60 -6 -127 -13 -149 -17 -55 -8
-43 16 16 34 26 7 60 27 77 44 44 43 77 158 86 294 4 61 9 113 11 116 7 12
440 146 475 148 13 1 18 -19 28 -101z m-1766 -2 c49 -14 91 -27 94 -29 2 -3 0
-14 -6 -25 -21 -39 -61 -196 -67 -261 -4 -36 -8 -68 -10 -70 -6 -6 -134 39
-187 66 -35 17 -47 28 -43 41 2 9 7 44 11 77 7 60 35 155 62 208 11 23 19 27
36 23 12 -3 62 -17 110 -30z m394 -90 c1 -1 -7 -35 -17 -76 -10 -41 -24 -124
-31 -184 l-12 -108 -61 6 c-85 10 -216 46 -216 60 0 57 61 307 84 344 3 6 235
-33 253 -42z m801 -95 c-8 -134 -31 -208 -77 -240 -25 -18 -131 -55 -131 -45
0 2 10 33 21 67 14 42 23 100 28 181 l6 119 75 21 c41 12 77 21 80 20 3 -1 2
-56 -2 -123z m-588 69 c58 -4 108 -5 113 -3 13 8 7 -159 -9 -251 -23 -136 -16
-130 -148 -122 -61 4 -127 11 -146 15 l-35 7 2 77 c1 43 7 103 13 135 6 31 16
81 21 110 l11 54 36 -7 c21 -4 84 -10 142 -15z m387 -118 c-6 -118 -30 -216
-60 -241 -12 -9 -197 -28 -197 -20 0 2 7 40 15 84 9 44 18 127 22 185 l6 105
110 2 110 3 -6 -118z m-1287 -93 c137 -81 363 -155 565 -185 97 -15 115 -20
109 -33 -3 -9 -37 -97 -74 -196 -37 -99 -84 -220 -104 -269 -20 -50 -36 -99
-36 -111 0 -31 37 -61 110 -89 78 -29 283 -76 333 -76 62 0 76 28 141 291 32
129 72 282 88 340 l31 106 60 11 c34 6 62 10 64 9 1 -2 -13 -62 -32 -133 -19
-71 -49 -183 -66 -249 -58 -221 -100 -369 -155 -541 l-55 -172 20 -78 c11 -44
34 -126 50 -184 16 -58 40 -148 55 -200 14 -52 32 -115 40 -141 l14 -45 -127
-23 c-69 -13 -186 -38 -259 -56 -90 -22 -135 -29 -138 -21 -2 6 -17 103 -34
216 -51 344 -65 419 -80 434 -8 7 -64 28 -125 46 -199 57 -378 117 -497 164
-64 25 -126 46 -137 46 -35 0 -23 -28 24 -56 25 -14 45 -27 45 -29 0 -2 -80
-68 -177 -146 -98 -78 -215 -173 -259 -211 -45 -37 -84 -68 -87 -68 -3 0 -74
90 -156 200 l-151 200 48 34 c26 19 141 94 256 167 114 73 210 137 212 143 23
68 142 383 173 457 88 214 221 489 237 489 3 0 37 -18 74 -41z m938 -225 c143
-6 163 -9 159 -23 -2 -9 -26 -95 -51 -191 -26 -96 -50 -181 -52 -189 -3 -11
-18 -12 -66 -7 -63 6 -297 63 -311 76 -6 5 93 314 110 343 3 5 15 6 27 3 11
-3 94 -9 184 -12z m-270 -407 c40 -11 42 -13 36 -40 -3 -15 -16 -54 -28 -85
-13 -31 -26 -65 -29 -74 -6 -17 -10 -17 -59 3 -29 11 -57 24 -62 29 -5 5 4 40
19 82 39 103 44 111 63 103 9 -3 36 -12 60 -18z m163 -44 c21 -4 28 -10 25
-22 -28 -98 -48 -158 -55 -170 -7 -11 -17 -11 -60 -1 -28 6 -51 15 -51 18 0
11 29 104 47 150 14 38 19 43 41 37 13 -3 37 -9 53 -12z m142 -20 c3 -5 -7
-51 -22 -103 l-27 -95 -39 -3 c-35 -3 -37 -2 -32 20 12 49 48 172 53 180 6 10
61 11 67 1z m-1866 -789 l152 -205 -81 -60 c-45 -33 -100 -70 -122 -81 l-41
-21 -67 73 c-65 69 -201 248 -228 299 -14 27 -28 13 134 133 50 37 93 67 96
67 3 0 73 -92 157 -205z m2114 -703 c16 -63 29 -117 29 -122 0 -19 -390 -122
-495 -131 l-40 -3 -27 109 c-15 60 -31 137 -34 172 l-7 64 32 0 c17 0 87 13
154 30 67 16 169 38 227 48 l105 19 13 -36 c7 -20 27 -87 43 -150z"/>
<path d="M3577 6818 c-19 -31 -29 -98 -21 -149 12 -75 77 -141 152 -155 52
-10 134 19 171 61 33 38 57 104 47 130 -7 19 -36 16 -46 -5 -39 -83 -45 -91
-85 -110 -50 -24 -67 -25 -112 -3 -48 23 -78 87 -69 152 12 92 12 95 -6 99 -9
2 -23 -7 -31 -20z"/>
<path d="M3335 6271 c-3 -5 0 -21 7 -36 10 -22 8 -30 -18 -68 -35 -49 -96 -87
-141 -87 -17 0 -59 12 -93 26 -66 29 -80 27 -61 -10 18 -33 81 -66 140 -73 69
-8 150 31 194 93 l30 43 25 -19 c27 -22 42 -18 42 11 0 61 -101 158 -125 120z"/>
<path d="M1970 8151 c-135 -43 -269 -130 -372 -240 -68 -71 -93 -122 -86 -171
5 -39 19 -30 57 35 46 80 169 200 259 253 78 45 192 82 257 82 23 0 72 -14
118 -34 106 -46 135 -37 74 22 -70 68 -195 89 -307 53z"/>
<path d="M8057 7960 c-63 -16 -137 -60 -137 -82 0 -14 43 -9 98 12 29 11 69
20 90 20 47 0 137 -26 178 -51 29 -18 64 -17 64 1 0 18 -44 60 -84 79 -50 25
-153 35 -209 21z"/>
<path d="M6340 7751 c-45 -9 -87 -37 -96 -63 -9 -31 2 -32 58 -7 51 23 115 27
232 17 38 -4 44 16 11 38 -29 19 -147 28 -205 15z"/>
<path d="M1925 7351 c-85 -52 -282 -322 -354 -486 -46 -104 -83 -214 -108
-325 -22 -97 -27 -140 -27 -272 -1 -135 1 -160 16 -174 16 -16 17 -16 22 7 3
13 7 94 9 179 7 232 43 374 154 594 87 174 173 302 280 419 68 75 72 98 8 58z"/>
<path d="M6671 7155 c-142 -40 -220 -141 -221 -285 0 -62 5 -83 25 -119 l25
-43 -55 -60 c-85 -92 -174 -280 -195 -415 -8 -50 -21 -82 -50 -126 -44 -65
-55 -106 -47 -174 9 -81 123 -273 163 -273 8 0 14 -10 14 -24 0 -43 54 -215
88 -278 3 -7 -230 90 -381 158 -94 43 -138 47 -170 16 -20 -20 -22 -32 -21
-115 1 -180 85 -336 253 -469 120 -96 280 -166 453 -198 l66 -12 -5 -151 c-4
-93 -1 -187 6 -242 15 -115 70 -281 123 -370 49 -83 146 -183 206 -214 l43
-22 -109 -113 c-133 -139 -176 -200 -161 -229 10 -18 18 -19 108 -14 53 4 108
9 124 13 26 6 27 5 27 -38 0 -83 28 -128 79 -128 11 0 56 25 100 55 44 30 85
55 89 55 5 0 15 -7 22 -16 26 -30 99 -66 124 -60 35 9 45 50 52 210 7 184 7
186 44 186 84 0 375 91 510 160 l37 19 24 -37 c49 -76 204 -152 309 -152 43 0
52 4 67 26 11 18 17 43 15 75 l-2 49 61 30 c33 17 81 50 105 72 55 51 57 84 7
109 l-33 16 50 57 c51 58 67 93 56 122 -4 11 -15 15 -34 12 -144 -25 -263 -40
-267 -36 -3 3 2 24 10 47 22 63 29 185 16 283 -24 179 -92 347 -226 554 l-65
102 134 133 c140 140 188 205 236 317 94 222 72 519 -43 578 -29 15 -33 15
-64 -1 -29 -16 -178 -178 -352 -382 -30 -34 -58 -63 -63 -63 -5 0 -7 4 -3 10
7 12 -13 132 -31 184 l-14 39 43 46 c23 25 113 139 199 252 87 114 165 210
174 213 34 13 61 4 109 -35 160 -132 394 -476 480 -704 92 -245 140 -550 104
-654 -20 -57 -40 -58 -147 -6 -131 64 -171 75 -282 81 -101 5 -210 -12 -218
-33 -3 -10 20 -13 90 -13 137 0 262 -29 386 -90 120 -58 152 -62 192 -22 38
38 50 88 50 207 0 151 -37 330 -106 515 -117 312 -404 723 -561 804 -18 9 -50
16 -72 16 -54 0 -97 -39 -198 -179 -89 -124 -253 -331 -262 -331 -3 0 -21 29
-40 64 -31 58 -33 68 -27 119 9 67 -18 177 -65 272 -38 77 -61 96 -151 130
-40 15 -125 52 -188 80 -126 58 -239 96 -341 115 l-66 12 -5 67 c-6 79 -43
157 -92 194 -74 55 -178 76 -265 52z m204 -85 c56 -35 86 -88 92 -165 l6 -65
-83 0 c-66 0 -101 -6 -174 -31 -50 -17 -108 -40 -128 -50 l-37 -19 -20 34
c-26 42 -29 142 -5 189 31 61 84 105 154 128 46 15 155 4 195 -21z m300 -323
c55 -14 127 -38 160 -53 l60 -28 -80 -8 c-120 -11 -287 -46 -410 -85 -205 -65
-442 -193 -556 -300 -27 -25 -49 -44 -49 -41 0 3 9 34 21 69 30 93 114 247
162 298 80 83 193 143 328 171 76 16 254 5 364 -23z m440 -172 c28 -10 59 -25
69 -34 42 -36 131 -269 110 -290 -2 -3 -14 5 -27 16 -70 65 -200 88 -395 72
-492 -41 -933 -279 -1031 -558 -9 -25 -20 -48 -25 -51 -12 -6 -64 80 -87 147
-24 67 -24 134 0 181 10 21 57 74 103 118 209 201 521 350 833 398 55 9 111
18 125 20 59 11 276 -2 325 -19z m6 -332 c102 -47 216 -214 256 -377 33 -137
-9 -292 -117 -435 -33 -44 -38 -57 -28 -66 7 -6 50 -42 96 -79 127 -104 241
-254 329 -431 159 -319 149 -575 -29 -761 -98 -102 -209 -160 -363 -189 -165
-31 -347 -13 -478 48 -181 84 -268 208 -343 486 -22 79 -27 125 -31 256 -5
181 13 306 61 411 14 31 26 63 26 71 0 7 -21 23 -47 34 -113 47 -161 78 -234
149 -121 118 -164 223 -164 395 1 99 3 116 29 173 48 104 134 165 284 198 107
24 184 16 272 -28 l72 -35 18 41 c61 137 247 203 391 139z m946 -2154 c-68
-74 -75 -96 -39 -110 72 -25 72 -23 4 -67 -35 -22 -84 -49 -108 -58 l-45 -17
7 -65 7 -65 -50 5 c-61 6 -147 44 -196 88 -67 58 -66 62 18 125 41 31 103 87
137 125 l63 68 110 15 c61 8 118 15 128 16 13 1 3 -16 -36 -60z m-1477 -390
c48 -14 246 -49 280 -49 l27 0 -5 -122 c-5 -138 -12 -190 -28 -195 -6 -2 -35
15 -63 37 -29 23 -59 39 -66 36 -8 -3 -51 -30 -95 -61 l-80 -57 -10 27 c-5 14
-10 50 -10 78 0 81 -4 83 -102 63 -45 -10 -98 -16 -117 -14 l-33 3 127 133
c70 72 130 132 134 132 3 0 22 -5 41 -11z"/>
<path d="M7475 6056 c-48 -22 -77 -59 -77 -102 0 -39 18 -59 39 -42 7 6 13 21
13 33 0 29 43 65 77 65 34 0 77 -25 101 -56 13 -18 25 -25 36 -21 39 15 -3 90
-68 121 -41 19 -80 20 -121 2z"/>
<path d="M6862 5910 c-62 -38 -102 -144 -67 -179 15 -15 17 -15 31 3 8 11 14
31 14 44 0 31 70 102 99 102 27 0 58 -15 88 -43 25 -22 53 -17 53 11 0 20 -31
52 -67 71 -35 18 -114 13 -151 -9z"/>
<path d="M7300 5836 c-96 -20 -161 -73 -206 -171 -36 -76 -32 -104 22 -164 64
-71 168 -122 253 -123 70 -1 102 16 134 69 17 30 25 122 13 159 -5 17 2 25 41
47 63 34 96 69 91 99 -8 58 -221 109 -348 84z m238 -70 c28 -9 52 -21 52 -26
0 -14 -79 -57 -144 -80 -69 -23 -214 -50 -274 -50 l-43 0 28 51 c30 56 74 97
125 116 44 17 188 10 256 -11z m-72 -191 c10 -40 -4 -90 -32 -116 -48 -45
-151 -22 -242 54 l-44 37 35 0 c19 0 59 -11 89 -25 53 -25 92 -31 122 -19 11
4 16 19 16 50 0 40 2 44 25 44 18 0 26 -7 31 -25z"/>
<path d="M5551 6986 c-14 -17 -11 -19 64 -54 102 -47 137 -107 165 -282 22
-130 35 -174 50 -165 15 9 12 170 -4 246 -27 125 -86 207 -180 250 -49 22 -80
24 -95 5z"/>
<path d="M8333 6871 c-58 -15 -122 -60 -143 -101 l-20 -40 23 0 c12 0 38 13
57 28 54 44 74 52 135 52 45 0 70 -7 116 -31 132 -70 309 -273 437 -500 18
-31 40 -63 49 -70 15 -13 16 -10 11 33 -17 147 -234 445 -407 557 -93 60 -193
88 -258 72z"/>
<path d="M5363 6020 c0 -224 -2 -242 -32 -385 -49 -240 -127 -423 -264 -623
-39 -56 -67 -105 -64 -109 17 -17 61 24 120 114 176 265 260 515 282 843 8
108 -9 315 -29 363 -11 28 -13 2 -13 -203z"/>
<path d="M5804 5802 c-83 -39 -121 -114 -165 -322 -20 -91 -23 -136 -23 -340
0 -208 2 -247 22 -339 63 -288 199 -546 308 -581 51 -17 91 6 163 95 93 115
151 165 248 216 142 74 115 114 -28 42 -60 -29 -97 -59 -197 -160 -68 -67
-132 -128 -143 -133 -24 -13 -68 8 -99 47 -34 43 -109 205 -146 315 -18 55
-43 156 -55 226 -19 111 -21 152 -16 327 8 307 44 462 127 540 28 27 39 30
102 32 39 1 73 5 76 8 3 3 -2 13 -11 22 -25 25 -113 28 -163 5z"/>
<path d="M8740 5604 c0 -21 63 -264 79 -307 12 -30 41 -37 41 -9 0 29 -50 213
-72 264 -24 55 -48 81 -48 52z"/>
<path d="M1688 5311 c-45 -40 -29 -56 33 -34 39 14 59 15 118 7 78 -11 106 -4
81 19 -24 23 -79 37 -141 37 -51 0 -63 -4 -91 -29z"/>
<path d="M5368 5004 c-125 -186 -298 -376 -353 -390 -43 -11 -92 20 -174 109
-155 168 -280 271 -398 329 -60 28 -78 32 -153 33 -63 0 -95 -5 -122 -19 -69
-34 -50 -45 75 -43 103 2 117 0 171 -26 100 -46 185 -115 346 -278 166 -168
185 -180 265 -165 100 19 424 429 413 523 -3 22 -13 11 -70 -73z"/>
<path d="M5874 4871 c8 -96 90 -307 131 -341 8 -7 17 -11 19 -9 4 3 -43 151
-119 372 -24 71 -39 61 -31 -22z"/>
<path d="M1635 4639 c-93 -50 -251 -131 -350 -181 -236 -118 -241 -122 -256
-165 -22 -68 -6 -197 40 -315 103 -263 375 -602 576 -719 54 -31 127 -39 168
-18 12 6 144 131 292 278 149 147 310 303 358 348 81 75 98 103 63 103 -32 0
-155 -109 -424 -374 -158 -155 -297 -288 -309 -294 -63 -34 -151 13 -296 156
-245 241 -418 546 -420 742 -1 41 2 80 6 86 4 7 107 62 229 123 352 175 528
279 528 312 0 22 -45 4 -205 -82z"/>
<path d="M8657 4456 c-12 -31 72 -81 355 -215 110 -52 131 -78 126 -148 -9
-101 -137 -313 -276 -456 -134 -138 -342 -284 -453 -318 -66 -20 -69 -20 -106
-2 -21 9 -92 70 -158 134 -130 126 -160 148 -169 124 -7 -20 52 -92 176 -212
146 -141 174 -148 334 -73 104 48 182 101 308 210 196 170 345 377 392 546 32
118 -1 173 -143 243 -48 24 -144 72 -213 106 -150 75 -166 80 -173 61z"/>
<path d="M3910 4105 c0 -17 79 -203 165 -390 53 -115 128 -279 167 -363 39
-85 73 -173 76 -197 4 -42 3 -44 -39 -75 -24 -17 -82 -50 -129 -72 -286 -136
-600 -208 -920 -211 -243 -3 -250 3 -269 233 -18 220 -30 442 -37 660 -5 190
-12 235 -31 216 -34 -34 -12 -838 28 -1027 14 -64 59 -110 125 -130 111 -32
438 -4 704 61 180 43 313 91 445 157 159 80 195 125 175 215 -6 28 -89 218
-185 422 -222 472 -236 500 -257 504 -10 2 -18 1 -18 -3z"/>
<path d="M4763 4066 c-74 -24 -132 -73 -133 -113 0 -30 10 -29 56 8 22 17 54
38 73 46 45 19 151 18 212 -2 63 -21 84 -9 47 28 -46 46 -165 61 -255 33z"/>
<path d="M6586 3763 c-7 -16 -26 -59 -41 -98 -15 -38 -63 -145 -106 -236 -44
-92 -79 -177 -79 -191 0 -76 52 -143 145 -187 86 -41 298 -97 440 -117 210
-30 581 -13 707 32 55 19 95 58 108 103 20 74 5 420 -20 445 -7 7 -14 6 -22
-3 -10 -9 -12 -61 -10 -206 4 -260 -3 -275 -126 -296 -306 -50 -608 -38 -861
33 -215 60 -301 111 -301 180 0 16 29 91 64 167 36 76 76 166 91 202 28 70 56
179 49 191 -10 15 -24 8 -38 -19z"/>
<path d="M5558 2841 c-66 -17 -118 -51 -118 -78 0 -18 8 -17 84 12 126 48 257
30 365 -50 34 -25 66 -45 71 -45 18 0 11 26 -17 62 -81 104 -225 141 -385 99z"/>
<path d="M8557 2749 c-94 -22 -197 -93 -197 -135 0 -24 30 -16 80 21 26 19 67
42 90 50 61 21 185 19 261 -5 68 -21 88 -15 70 19 -25 45 -200 75 -304 50z"/>
<path d="M1770 2676 c-60 -17 -86 -32 -104 -58 -33 -46 -18 -48 72 -12 74 30
145 33 221 10 82 -24 95 6 18 45 -51 26 -145 33 -207 15z"/>
<path d="M6735 2019 c-112 -16 -243 -100 -214 -136 10 -11 17 -10 43 7 93 60
138 75 221 74 59 -2 99 -9 154 -29 48 -17 77 -23 83 -17 15 15 -7 49 -43 68
-29 14 -152 45 -174 43 -5 -1 -37 -5 -70 -10z"/>
<path d="M2813 1934 c-34 -7 -84 -24 -112 -38 -73 -37 -112 -96 -64 -96 8 0
40 16 71 35 69 41 122 54 224 55 136 0 229 -30 317 -104 24 -20 49 -36 56 -36
48 0 1 71 -84 127 -105 69 -258 90 -408 57z"/>
</g>
</svg>
