<?xml version="1.0" standalone="no"?>
<!DOCTYPE svg PUBLIC "-//W3C//DTD SVG 20010904//EN"
 "http://www.w3.org/TR/2001/REC-SVG-20010904/DTD/svg10.dtd">
<svg version="1.0" xmlns="http://www.w3.org/2000/svg"
 width="1024.000000pt" height="1024.000000pt" viewBox="0 0 1024.000000 1024.000000"
 preserveAspectRatio="xMidYMid meet">
<metadata>
Created by potrace 1.16, written by Peter Selinger 2001-2019
</metadata>
<g transform="translate(0.000000,1024.000000) scale(0.100000,-0.100000)"
fill="#000000" stroke="none">
<path d="M2641 9524 c-441 -53 -842 -315 -1147 -751 -178 -253 -323 -697 -359
-1096 l-7 -67 -58 4 c-119 8 -214 -27 -295 -109 -39 -39 -55 -64 -69 -112 -21
-70 -18 -143 8 -172 15 -17 15 -22 -9 -72 -71 -154 28 -309 199 -309 48 0 57
-3 80 -30 28 -34 98 -69 137 -70 81 0 191 75 234 160 16 31 32 50 48 54 36 9
94 78 108 128 16 59 4 167 -25 240 l-24 60 35 31 c19 17 53 57 75 90 l41 60
17 -46 c19 -49 48 -96 88 -139 l24 -26 -44 -54 c-75 -92 -92 -144 -93 -278 0
-97 4 -124 23 -172 33 -82 80 -147 134 -187 l46 -35 -34 -18 c-26 -14 -56 -18
-135 -18 -301 0 -722 -118 -941 -264 -84 -55 -203 -178 -231 -238 -56 -117
-83 -297 -73 -488 9 -198 45 -709 61 -890 8 -91 17 -190 20 -220 3 -30 10
-113 15 -185 6 -71 13 -143 15 -160 2 -16 6 -68 10 -115 10 -139 14 -199 25
-320 11 -135 18 -217 25 -302 3 -35 7 -90 10 -123 9 -118 15 -204 30 -440 24
-399 26 -426 40 -538 10 -88 18 -115 40 -147 15 -22 30 -40 34 -40 3 -1 16 -9
29 -20 l23 -19 -25 -128 c-33 -162 -45 -265 -33 -290 12 -28 51 -47 147 -73
104 -27 208 -24 325 11 90 26 108 45 160 166 18 43 37 77 41 76 5 0 74 -21
154 -46 80 -25 204 -62 275 -82 72 -19 176 -50 233 -67 l102 -31 0 -121 c1
-185 12 -262 44 -295 25 -26 136 -71 214 -86 51 -10 162 -8 217 5 88 20 112
37 129 88 22 68 44 196 52 301 6 82 9 92 28 96 41 8 229 45 232 45 2 0 4 -30
4 -67 0 -45 -9 -95 -25 -146 -15 -47 -25 -101 -25 -137 0 -52 4 -64 30 -94 17
-18 67 -53 112 -77 69 -35 92 -42 143 -43 l60 -1 3 33 c4 38 6 38 35 11 132
-123 525 -206 802 -170 320 43 426 123 413 312 -10 133 -93 241 -244 315 l-70
35 12 107 c7 59 13 112 14 119 0 23 184 61 360 75 l35 3 -1 -46 c-2 -33 -14
-70 -44 -126 -34 -66 -42 -93 -47 -155 -9 -125 27 -172 178 -225 45 -16 105
-28 152 -31 l77 -5 0 44 0 43 35 -42 c47 -54 119 -88 240 -112 132 -26 365
-37 475 -21 114 16 258 55 303 81 43 26 87 107 87 161 0 61 -36 161 -75 206
l-35 41 26 63 c19 47 54 185 54 214 0 1 18 10 41 19 74 30 74 29 74 531 0 437
1 440 24 500 79 205 84 224 89 367 4 121 2 145 -18 209 -12 41 -30 90 -40 109
-25 49 -96 128 -133 146 l-30 16 67 34 c124 61 229 170 301 314 46 92 59 157
52 258 -6 79 -4 90 23 151 42 96 53 152 48 236 -8 125 -71 220 -183 277 -22
11 -42 22 -43 24 -2 1 49 84 113 184 114 178 185 308 185 341 0 9 -8 27 -19
40 l-18 23 -194 -29 c-178 -27 -219 -30 -499 -32 l-305 -2 -39 -43 c-21 -24
-58 -71 -81 -106 l-43 -63 -20 33 c-12 19 -74 86 -140 150 l-119 116 8 64 c20
168 -42 383 -153 533 -47 64 -167 175 -188 175 -8 0 -10 6 -5 18 36 86 45 213
20 261 -23 45 -44 46 -84 8 -36 -35 -71 -57 -89 -57 -5 0 -13 20 -16 43 -15
96 -142 253 -248 305 l-46 22 -6 168 c-9 232 -17 367 -26 432 l-7 54 49 45
c78 70 111 154 109 277 0 44 -9 92 -22 130 -13 36 -21 79 -20 112 7 197 -137
380 -365 466 -46 17 -78 36 -91 55 -52 70 -196 210 -278 271 -361 266 -736
372 -1144 324z m459 -99 c203 -41 496 -179 659 -310 40 -33 201 -188 198 -191
-1 -2 -34 1 -71 7 -312 44 -766 -10 -1106 -131 -214 -77 -353 -146 -515 -258
-175 -121 -394 -330 -493 -471 -42 -60 -51 -68 -55 -50 -12 46 14 224 59 398
39 152 27 157 -41 16 -64 -134 -102 -347 -83 -458 12 -67 13 -59 -21 -157 -19
-53 -31 -105 -31 -138 0 -57 -17 -86 -109 -185 -60 -64 -66 -65 -121 -13 -27
25 -74 58 -105 73 l-57 28 6 80 c29 369 149 754 319 1030 87 140 281 349 424
457 206 154 443 253 688 288 85 12 366 3 455 -15z m851 -589 c128 -23 250 -68
328 -121 101 -66 151 -133 164 -218 l6 -38 -31 26 c-34 29 -88 59 -88 49 0 -3
15 -24 34 -45 74 -87 126 -222 126 -324 0 -59 -38 -172 -71 -214 -30 -38 -35
-38 -43 -1 -3 17 -19 51 -36 75 -20 29 -30 56 -30 80 0 102 -100 175 -298 218
-82 17 -133 21 -322 21 -193 0 -244 -3 -355 -23 -401 -71 -674 -183 -960 -393
-186 -136 -399 -369 -450 -492 -13 -30 -19 -34 -67 -39 -49 -6 -54 -5 -86 26
-54 52 -94 145 -100 230 -3 60 0 83 22 141 89 234 367 535 668 722 279 173
601 282 983 333 109 15 504 6 606 -13z m-13 -571 c102 -15 153 -30 218 -63 40
-20 81 -58 72 -67 -2 -3 -31 5 -64 16 -79 28 -198 36 -245 16 -83 -36 -156
-155 -124 -203 16 -24 36 -29 185 -39 61 -4 116 -17 199 -45 63 -22 122 -40
132 -40 13 0 19 -11 24 -42 13 -84 22 -246 24 -403 2 -216 4 -219 100 -294
123 -95 183 -173 216 -279 7 -23 6 -23 -42 -17 -26 4 -93 25 -149 46 -55 22
-105 39 -112 39 -7 0 -12 15 -12 38 0 20 -9 55 -19 77 -20 43 -96 125 -116
125 -8 0 -14 21 -17 55 -12 144 -131 168 -193 41 -24 -50 -31 -56 -59 -56 -86
-1 -238 -59 -244 -94 -7 -35 13 -38 75 -13 195 79 402 52 476 -63 27 -43 28
-49 25 -140 -5 -108 -23 -155 -84 -214 -62 -60 -115 -80 -229 -84 -83 -3 -111
0 -165 18 -122 40 -196 103 -240 204 -24 52 -43 56 -48 10 l-3 -30 -88 4
c-112 5 -168 -10 -319 -90 -88 -47 -125 -61 -157 -61 -57 0 -139 31 -186 71
-21 18 -46 32 -55 30 -30 -6 -56 -53 -58 -102 0 -25 -4 -46 -7 -46 -12 0 -48
47 -73 96 -28 54 -42 117 -52 227 -6 74 -17 79 -35 14 -13 -49 -6 -149 16
-224 19 -62 90 -162 137 -191 23 -15 46 -43 68 -87 42 -82 132 -182 213 -235
76 -50 216 -95 320 -104 44 -4 122 -2 178 5 94 11 102 10 122 -8 12 -11 47
-30 77 -43 43 -18 66 -21 115 -17 126 10 263 83 324 173 24 36 39 48 55 47
148 -15 186 -14 277 5 170 35 343 139 437 262 20 27 40 49 44 49 4 1 40 -32
81 -71 137 -136 219 -311 233 -495 5 -62 3 -93 -3 -93 -6 0 -14 11 -17 24 -8
33 -117 146 -140 146 -17 0 -17 -2 3 -32 85 -129 125 -256 125 -393 -1 -216
-87 -387 -258 -511 -33 -24 -61 -43 -62 -41 -2 1 1 20 6 42 13 55 12 151 -1
219 -7 31 -13 55 -15 54 -1 -2 -10 -46 -18 -98 -43 -265 -158 -443 -359 -555
l-49 -27 8 24 c24 75 30 154 18 217 -7 31 -24 44 -24 17 0 -33 -74 -238 -101
-280 -32 -51 -81 -86 -119 -86 -46 1 -134 45 -223 113 -80 61 -107 77 -107 61
0 -12 24 -51 49 -78 l26 -28 -135 6 c-416 21 -603 70 -785 208 -91 70 -163
160 -225 282 l-50 100 0 -51 c0 -28 9 -80 20 -115 11 -34 20 -65 20 -67 0 -2
-21 0 -47 4 -118 17 -273 109 -360 214 -109 131 -169 299 -179 501 -4 63 -8
117 -10 119 -10 11 -36 -125 -38 -195 0 -46 -3 -84 -6 -84 -3 0 -19 9 -36 19
-139 85 -183 370 -103 671 24 88 93 260 126 312 12 21 23 45 23 53 0 9 18 69
40 133 71 210 74 307 15 430 -46 96 -140 182 -199 182 -25 0 -20 12 35 95 53
79 192 232 260 286 l38 30 41 -80 c68 -136 84 -211 84 -396 1 -90 -5 -190 -12
-230 -7 -38 -13 -72 -12 -75 0 -3 -9 -32 -20 -64 -26 -78 -26 -90 0 -74 28 17
65 96 91 193 32 116 32 364 0 480 -22 82 -76 205 -111 255 l-20 28 93 66 c114
82 353 202 511 255 126 44 362 97 486 110 128 14 373 12 478 -4z m205 -176
c71 -27 142 -88 157 -135 7 -19 10 -37 8 -40 -3 -2 -48 11 -100 30 -103 38
-226 59 -299 52 -25 -2 -51 -1 -57 3 -18 11 42 89 81 107 42 19 135 12 210
-17z m-3021 -560 c172 -37 302 -179 316 -344 5 -68 -9 -123 -37 -149 -18 -17
-20 -15 -44 36 l-24 53 -7 -60 c-11 -90 -25 -124 -70 -173 -69 -75 -155 -95
-209 -47 l-28 25 26 41 c15 22 25 43 22 45 -2 2 -25 -5 -52 -17 -37 -16 -62
-20 -110 -17 -78 5 -125 37 -143 95 -20 68 -2 114 80 199 66 69 61 81 -20 44
l-43 -19 -9 25 c-13 34 -13 43 6 98 27 77 106 143 201 165 54 13 84 13 145 0z
m895 -218 c67 -31 153 -169 153 -244 0 -52 -36 -204 -72 -307 l-33 -95 -80 0
c-106 0 -161 27 -228 110 -60 76 -82 143 -82 255 1 70 5 95 26 140 32 69 71
115 118 140 48 26 142 26 198 1z m2553 -567 c73 -18 162 -14 209 11 16 8 40
28 54 45 14 16 29 30 33 30 3 0 5 -33 2 -73 -7 -108 -50 -190 -153 -293 -130
-130 -271 -188 -460 -188 -127 0 -217 26 -312 91 -37 25 -69 41 -71 35 -2 -6
-16 -29 -32 -50 -104 -144 -447 -245 -669 -198 -217 46 -387 195 -436 381 -8
33 -15 72 -15 88 l0 29 49 -36 c68 -50 111 -66 179 -66 71 0 119 16 210 69
128 74 221 94 333 70 43 -9 62 -21 103 -63 87 -89 211 -136 361 -136 139 0
234 37 309 121 42 46 81 123 91 181 l7 36 71 -34 c40 -18 101 -41 137 -50z
m-2600 -161 l65 -5 -38 -81 c-103 -215 -144 -459 -112 -652 7 -38 11 -71 10
-72 -1 -2 -21 16 -44 39 -52 49 -99 145 -108 217 -7 65 -28 85 -54 52 -11 -13
-19 -38 -19 -56 0 -45 32 -145 64 -199 37 -64 124 -126 176 -126 11 0 25 -10
31 -22 30 -58 85 -112 142 -139 60 -28 61 -29 89 -105 30 -83 65 -148 111
-207 29 -37 29 -40 28 -145 -1 -58 -9 -138 -17 -177 -17 -82 -44 -175 -52
-175 -3 0 -30 24 -61 53 -60 57 -130 102 -180 117 -50 14 -38 -9 46 -87 l78
-72 -73 -1 c-96 0 -235 -34 -308 -74 -108 -60 -83 -67 96 -28 76 16 362 23
377 9 4 -4 -5 -20 -19 -35 -46 -50 -131 -176 -174 -257 -50 -93 -108 -262
-123 -355 -18 -110 -14 -276 9 -358 11 -39 20 -74 20 -77 0 -2 -12 -3 -27 0
-16 2 -54 7 -86 10 -285 25 -599 138 -718 257 -164 164 -239 392 -239 730 0
199 24 343 90 539 124 373 336 688 616 915 51 41 95 81 98 89 3 8 -6 38 -19
67 -14 29 -25 71 -25 93 0 82 68 178 188 267 28 21 52 46 52 54 0 12 6 15 23
10 12 -4 51 -10 87 -13z m-340 -105 c-45 -46 -76 -104 -89 -165 -10 -50 -9
-61 23 -168 5 -16 -4 -28 -41 -55 -69 -51 -192 -170 -259 -251 l-58 -70 -34
103 c-82 254 -192 385 -343 405 l-41 6 31 19 c45 29 213 96 323 128 136 41
341 76 457 79 l63 1 -32 -32z m-755 -272 c58 -25 104 -66 139 -125 41 -71 89
-193 116 -300 l22 -82 -27 -41 c-120 -181 -236 -435 -290 -634 -46 -166 -64
-317 -60 -509 3 -213 31 -360 99 -515 5 -12 -6 -18 -46 -28 -110 -26 -101 -69
9 -45 36 7 67 12 67 11 16 -35 94 -132 139 -174 109 -98 342 -200 557 -244
103 -21 298 -43 341 -38 18 2 37 -7 62 -29 19 -17 41 -33 49 -35 10 -4 10 -9
-4 -24 -30 -34 -77 -147 -93 -222 -27 -133 -12 -272 42 -382 27 -52 103 -137
186 -206 l37 -31 0 -149 c1 -148 6 -311 15 -474 5 -93 24 -174 40 -168 13 4 8
759 -6 810 -6 25 -20 43 -43 57 -50 31 -131 121 -160 179 -59 116 -72 265 -36
406 25 99 67 179 89 170 44 -18 102 -25 160 -20 60 5 67 3 120 -29 67 -41 145
-60 213 -51 64 9 154 42 195 72 17 13 34 24 37 24 9 0 81 -110 110 -167 45
-89 59 -172 60 -343 1 -237 -24 -468 -69 -630 -18 -65 -19 -158 -3 -212 12
-40 87 -118 114 -118 11 0 14 -21 14 -94 l0 -94 -32 -5 c-18 -2 -127 -21 -243
-42 -324 -57 -416 -49 -845 79 -80 24 -174 51 -210 61 -133 35 -638 208 -779
267 -100 42 -191 93 -217 122 -25 28 -45 156 -59 386 -6 99 -12 184 -20 310
-3 41 -8 111 -10 155 -8 113 -34 441 -45 565 -5 58 -14 168 -20 245 -12 165
-19 253 -25 315 -2 25 -7 79 -10 120 -3 41 -12 143 -20 225 -40 425 -75 962
-75 1155 0 274 75 455 214 522 51 24 69 28 113 24 29 -3 69 -12 88 -20z m2902
-102 l22 -33 -47 -7 c-35 -5 -61 -2 -101 12 -55 20 -78 44 -44 44 10 1 43 11
73 24 48 21 56 22 65 9 6 -9 20 -30 32 -49z m1577 -487 c58 -66 110 -126 115
-135 6 -13 -18 -57 -89 -169 l-97 -152 -19 42 c-11 23 -34 66 -51 95 l-33 54
23 72 c18 59 22 94 22 203 0 99 3 129 11 120 7 -7 60 -65 118 -130z m1255 16
c-23 -43 -65 -111 -93 -153 -83 -121 -146 -226 -146 -244 0 -14 -15 -16 -97
-16 -107 -1 -175 -18 -237 -61 -38 -26 -76 -85 -76 -118 0 -15 -6 -21 -20 -21
-52 0 -124 -67 -136 -126 -3 -19 -17 -36 -35 -47 -63 -35 -84 -139 -45 -218
15 -29 14 -33 -4 -57 -11 -13 -20 -30 -20 -36 0 -10 -134 -36 -425 -82 -98
-16 -265 -29 -265 -21 0 23 73 205 125 312 120 245 348 620 512 843 l54 73
202 -7 c216 -7 383 3 572 35 61 10 125 19 143 20 l34 1 -43 -77z m-1389 -520
c12 -38 10 -42 -39 -129 -77 -136 -177 -356 -218 -481 -46 -139 -44 -143 66
-143 67 0 278 22 337 35 18 4 22 -5 41 -78 11 -45 24 -90 28 -99 6 -16 0 -18
-72 -18 -71 0 -329 -14 -440 -24 -36 -3 -42 0 -47 18 -3 12 -20 39 -39 61 -33
38 -34 38 -133 48 l-100 11 -16 97 c-13 85 -46 174 -95 259 -2 3 23 21 54 39
73 44 162 135 215 221 33 54 49 70 72 74 73 15 210 130 285 240 l33 48 28 -70
c16 -38 34 -87 40 -109z m1175 26 c38 -10 62 -25 101 -64 99 -99 109 -215 34
-392 -23 -53 -59 -122 -80 -153 -78 -115 -218 -213 -326 -228 -176 -26 -354
64 -354 179 0 71 6 73 67 23 69 -56 128 -90 171 -99 49 -10 40 9 -30 63 -157
119 -217 197 -204 267 4 18 15 40 25 49 17 16 19 15 36 -11 45 -68 160 -141
261 -164 55 -13 152 -2 145 16 -2 6 -42 20 -88 33 -143 37 -281 123 -284 175
-3 61 16 95 65 117 l38 18 67 -33 c63 -31 184 -72 226 -75 11 -1 46 -2 78 -1
61 1 69 14 15 25 -37 7 -307 114 -325 128 -10 8 -8 19 8 48 50 88 192 120 354
79z m-3910 -94 c90 -53 184 -78 326 -85 4 0 19 -18 35 -41 68 -98 248 -212
414 -263 138 -42 262 -56 503 -56 l218 -1 42 -28 c111 -75 237 -65 316 25 38
43 95 69 109 50 14 -18 60 -138 71 -181 5 -22 12 -68 16 -102 l6 -63 -68 0
c-37 -1 -84 -3 -103 -5 -19 -2 -93 -11 -164 -20 -94 -12 -131 -13 -136 -5 -4
6 -15 46 -25 88 -10 42 -22 90 -26 106 -5 16 -9 42 -9 58 0 31 -27 50 -40 28
-16 -26 14 -219 45 -292 5 -13 3 -18 -8 -18 -23 0 -87 -64 -87 -87 0 -23 -18
-43 -41 -43 -9 0 -32 24 -52 54 -75 113 -153 178 -285 238 -111 51 -200 68
-345 68 -72 0 -128 3 -124 6 9 9 -13 66 -41 103 -55 74 -212 146 -306 140 -28
-2 -59 6 -100 26 -52 24 -66 27 -132 23 -58 -4 -89 -12 -135 -36 -48 -25 -59
-28 -54 -14 49 116 80 271 71 354 l-6 60 35 -30 c19 -17 55 -43 80 -57z m124
-384 c30 -16 50 -19 84 -15 60 9 140 -16 216 -67 62 -41 83 -65 95 -105 6 -18
0 -22 -54 -32 -112 -21 -196 -104 -288 -288 -102 -204 -144 -403 -107 -513 31
-96 95 -147 210 -171 55 -11 58 -13 40 -27 -72 -53 -185 -84 -271 -72 -70 10
-132 40 -194 96 -28 25 -54 43 -57 39 -4 -3 -2 -22 4 -41 10 -31 9 -35 -7 -35
-42 0 -128 23 -166 45 -106 62 -162 236 -142 450 19 202 140 471 277 618 125
134 249 174 360 118z m3892 -279 c-52 -172 -220 -345 -391 -403 -171 -57 -390
-18 -503 90 -44 41 -70 89 -120 216 -53 136 -56 126 43 146 47 9 104 19 126
23 l41 6 18 -46 c36 -95 113 -151 247 -180 128 -27 250 -1 372 80 54 36 175
158 177 179 1 7 4 -1 6 -16 3 -16 -5 -59 -16 -95z m-3176 2 c62 -9 213 -62
281 -100 198 -110 311 -387 223 -544 -20 -34 -67 -79 -73 -68 -1 2 -10 37 -20
78 -40 164 -110 279 -216 359 -56 42 -150 78 -171 65 -6 -4 15 -23 52 -46 167
-106 273 -284 270 -455 -1 -79 -20 -117 -71 -143 -67 -34 -76 -30 -82 45 -6
72 -56 189 -108 256 -53 66 -190 146 -190 110 0 -6 16 -22 35 -37 77 -58 196
-256 210 -349 6 -36 3 -44 -28 -77 -58 -63 -85 -53 -212 75 -42 42 -97 89
-120 103 -44 25 -105 47 -105 37 0 -3 18 -26 40 -51 l41 -46 -88 -28 c-106
-35 -199 -34 -276 2 -106 50 -129 155 -78 360 18 71 135 299 186 362 39 49 55
60 100 73 110 32 252 39 400 19z m1428 -160 c56 -11 113 -181 132 -394 10
-108 -21 -139 -165 -164 -115 -20 -381 -41 -510 -41 -131 0 -153 12 -170 88
-30 141 -61 343 -58 385 3 43 6 49 39 65 99 48 589 89 732 61z m927 -298 c60
-28 180 -56 238 -56 29 -1 33 -3 20 -10 -9 -6 -27 -27 -39 -48 -12 -20 -24
-38 -25 -40 -1 -2 -13 3 -26 11 -27 18 -160 62 -233 77 l-51 11 -2 52 c-1 28
-5 60 -8 71 -5 15 2 12 32 -12 22 -17 64 -42 94 -56z m446 -77 c137 -78 206
-246 184 -452 -10 -100 -26 -162 -71 -274 -16 -40 -31 -85 -34 -100 -3 -15 -5
-227 -5 -470 l0 -442 -27 -15 c-16 -7 -80 -28 -143 -45 -63 -18 -120 -34 -126
-36 -8 -2 -10 5 -5 22 5 19 20 30 56 44 67 26 125 67 153 109 21 31 23 45 21
135 -2 83 2 110 20 159 27 72 31 178 8 222 -8 16 -27 42 -42 58 l-28 30 12 80
c23 168 8 326 -44 461 -17 45 -23 79 -22 136 0 94 -24 166 -76 225 l-39 44 21
34 c27 44 96 106 117 106 9 0 41 -14 70 -31z m-494 -63 c111 -30 197 -66 246
-103 35 -26 75 -101 86 -161 l6 -33 -57 50 c-128 115 -240 132 -432 67 -63
-21 -128 -55 -296 -151 -109 -63 -172 -78 -299 -72 -173 8 -237 41 -284 150
l-21 47 32 0 c74 1 209 30 258 55 40 21 78 72 85 114 3 21 11 38 18 38 41 1
272 26 276 30 3 3 68 3 145 0 108 -3 162 -11 237 -31z m-1647 -123 c41 -97
101 -119 299 -109 71 3 153 9 182 12 l51 6 11 -48 c30 -130 22 -235 -24 -328
-26 -51 -61 -96 -75 -96 -4 0 -22 28 -39 63 -112 220 -305 338 -596 362 l-81
7 16 34 c8 19 20 34 27 34 6 0 39 18 73 40 35 23 79 45 99 49 21 5 38 9 39 10
2 1 10 -16 18 -36z m1795 -119 c172 -90 260 -265 260 -512 0 -101 -7 -139 -42
-260 -19 -67 -25 -75 -64 -98 -78 -46 -264 -74 -494 -75 -240 -1 -405 24 -531
78 -65 28 -86 58 -95 136 l-7 55 -64 16 c-35 9 -113 19 -173 23 l-108 6 -11
55 -11 54 51 45 c75 68 119 169 119 277 0 46 1 48 18 33 33 -30 168 -68 258
-71 139 -6 244 28 439 140 132 75 173 95 240 115 94 28 137 24 215 -17z
m-2599 -50 c23 -25 23 -26 4 -36 -11 -6 -59 -50 -107 -99 l-87 -89 -29 42
c-17 24 -44 56 -60 72 -26 24 -29 32 -20 52 7 15 22 25 47 29 20 3 61 17 91
30 75 33 129 33 161 -1z m729 -59 c260 -52 430 -224 470 -475 21 -137 7 -387
-26 -452 -31 -59 -237 -121 -465 -138 -195 -14 -422 1 -574 40 -105 26 -198
72 -213 105 -7 15 -12 100 -13 227 -1 226 -11 325 -38 402 -18 51 -18 52 4 84
22 32 96 112 154 166 l31 30 22 -22 c47 -43 110 -53 177 -26 26 10 43 25 51
44 11 27 15 29 54 24 22 -2 77 -1 121 3 91 10 152 7 245 -12z m770 -616 c35
-5 66 -12 68 -14 2 -1 -13 -24 -32 -50 -39 -50 -61 -116 -71 -210 -4 -33 -15
-94 -25 -135 -14 -58 -16 -88 -10 -133 11 -73 25 -96 89 -136 44 -28 51 -38
51 -65 0 -70 -2 -71 -113 -84 -56 -7 -119 -15 -141 -19 l-38 -6 18 29 c15 22
19 49 21 137 1 90 6 119 24 161 35 77 33 176 -4 238 -15 26 -33 51 -40 55 -9
6 -11 40 -9 126 l4 117 71 0 c40 0 101 -5 137 -11z m1406 -131 c23 -44 21
-121 -5 -186 -17 -41 -21 -75 -21 -156 0 -89 -3 -107 -21 -130 -71 -91 -275
-137 -599 -137 -323 0 -615 55 -727 138 -29 21 -33 30 -33 71 0 26 5 63 10 82
6 19 17 85 25 146 8 61 22 130 31 153 l16 42 37 -40 c42 -45 98 -72 209 -100
233 -59 685 -53 877 11 81 27 122 53 152 99 14 22 27 39 29 39 2 0 11 -15 20
-32z m-1626 -189 c20 -46 15 -137 -9 -192 -17 -39 -21 -69 -21 -150 0 -146
-24 -178 -182 -241 -273 -108 -894 -88 -1148 38 -101 50 -119 138 -70 331 10
39 21 92 25 119 l7 48 21 -19 c68 -59 188 -96 400 -123 238 -30 426 -24 637
22 177 38 259 82 295 156 11 23 23 42 26 42 4 0 12 -14 19 -31z m-3584 -463
c27 -12 76 -34 110 -46 60 -23 61 -24 54 -54 -22 -91 -93 -286 -103 -286 -28
0 -150 39 -162 51 -11 12 -10 34 10 129 12 63 26 141 30 173 3 31 8 57 9 57 1
0 24 -11 52 -24z m5183 -133 c-41 -124 -37 -119 -100 -95 -120 45 -109 35 -95
89 l12 47 60 13 c32 7 73 17 89 22 66 21 66 19 34 -76z m-4745 -34 c0 -2 -15
-43 -33 -90 l-33 -87 -71 -20 c-93 -27 -170 -36 -164 -19 4 12 85 260 92 284
2 7 38 -2 107 -27 57 -21 103 -39 102 -41z m4526 -136 l55 -7 -90 -12 c-82
-11 -210 -36 -260 -51 -11 -3 -16 -2 -12 3 14 15 190 72 222 73 17 1 55 -2 85
-6z m-3501 -158 c47 -8 85 -16 86 -18 1 -1 -1 -84 -3 -184 -3 -140 -7 -183
-17 -183 -24 0 -150 42 -163 54 -14 13 -31 171 -32 285 0 71 1 73 23 67 12 -3
60 -13 106 -21z m407 -57 c-8 -80 -39 -238 -55 -279 -12 -32 -79 -58 -160 -62
l-53 -2 3 125 c1 69 3 137 4 153 1 15 3 45 4 67 l1 40 43 1 c33 0 199 22 216
28 2 0 0 -32 -3 -71z m1424 -4 c-47 -7 -131 -23 -188 -35 -56 -12 -105 -19
-108 -16 -3 3 36 19 88 36 80 26 107 30 193 29 l100 0 -85 -14z"/>
<path d="M3225 8139 c-84 -12 -214 -77 -273 -136 -64 -64 -106 -150 -107 -218
0 -100 42 -109 164 -36 95 58 190 95 281 112 115 21 142 30 167 55 22 22 25
32 21 78 -10 118 -96 168 -253 145z m161 -93 c41 -41 46 -82 12 -95 -13 -5
-50 -12 -83 -16 -118 -14 -234 -60 -347 -136 -31 -22 -60 -39 -63 -39 -14 0
10 79 37 122 72 115 217 195 357 197 48 1 56 -2 87 -33z"/>
<path d="M3992 7599 c-73 -37 -132 -125 -132 -196 l1 -38 24 46 c26 49 91 114
131 129 69 27 130 1 191 -79 21 -27 42 -50 47 -50 5 -1 6 19 4 44 -15 126
-154 201 -266 144z"/>
<path d="M3273 7550 c-49 -22 -134 -98 -163 -145 -23 -38 -32 -126 -12 -132 7
-3 12 3 12 14 0 27 50 102 93 140 120 105 233 90 313 -43 19 -32 24 -10 11 43
-18 70 -38 97 -90 122 -54 26 -109 26 -164 1z"/>
<path d="M3400 7247 c-54 -36 -75 -81 -75 -162 0 -48 6 -81 19 -104 16 -29 16
-35 3 -48 -25 -25 -101 -18 -170 15 -98 48 -105 14 -10 -52 48 -34 64 -39 112
-40 130 -2 254 132 252 271 0 67 -7 91 -34 121 -26 28 -55 28 -97 -1z"/>
<path d="M1844 7161 c-38 -23 -74 -68 -74 -92 0 -26 7 -24 51 16 26 23 49 35
68 35 43 0 114 -68 150 -145 17 -36 35 -65 40 -65 17 0 20 48 6 96 -20 67 -65
125 -118 152 -54 27 -83 28 -123 3z"/>
<path d="M4459 4126 c-2 -2 -44 -6 -94 -9 -117 -8 -186 -18 -207 -29 -24 -12
-23 -60 3 -189 29 -146 38 -160 98 -154 168 18 241 26 340 34 62 6 119 16 127
22 18 15 18 60 -1 151 -36 170 -43 178 -169 178 -51 0 -95 -2 -97 -4z"/>
<path d="M4708 9314 c-32 -37 -41 -118 -34 -309 4 -99 10 -202 15 -228 13 -78
20 -81 186 -85 l145 -4 0 -261 c1 -521 11 -1523 16 -1563 3 -23 11 -50 18 -60
29 -38 36 49 37 432 l1 369 77 -7 c42 -3 176 -7 299 -7 l222 -1 1 -192 c1
-206 7 -264 24 -238 6 8 12 108 13 221 l4 207 216 4 c140 3 228 9 247 17 69
29 -3 33 -556 34 l-549 2 0 268 0 267 580 0 580 0 -2 -225 c-3 -195 -1 -226
13 -240 15 -15 17 -13 28 29 6 26 11 127 11 240 l0 195 418 3 c392 3 474 8
440 29 -35 22 -335 28 -1355 29 l-713 0 0 225 0 225 225 0 225 0 0 -182 c0
-183 4 -228 21 -228 22 0 30 65 31 232 l1 178 827 0 828 0 4 -207 c3 -115 9
-219 15 -233 l11 -25 13 30 c9 21 14 94 17 234 l4 204 596 -6 c328 -4 606 -7
617 -7 19 0 20 -7 20 -174 0 -182 9 -260 28 -253 21 7 28 62 30 244 l2 183 55
0 c30 1 249 1 485 0 496 -1 645 11 645 50 0 4 -12 13 -27 19 -25 9 -1521 16
-4453 21 -283 0 -521 4 -528 8 -20 13 -24 45 -29 260 l-6 202 124 1 c68 0
1164 0 2434 -1 1471 0 2340 3 2394 9 46 6 90 16 97 22 22 18 0 36 -54 43 -26
3 -1165 9 -2532 12 -2447 7 -2485 7 -2502 -12z"/>
<path d="M8116 9039 c-27 -4 -54 -13 -59 -18 -15 -15 113 -15 150 0 l28 12
-25 7 c-31 10 -33 10 -94 -1z"/>
<path d="M8375 8970 c-77 -5 -79 -6 -50 -19 36 -15 229 -11 260 6 16 9 5 12
-55 15 -41 1 -111 1 -155 -2z"/>
<path d="M9542 8518 c0 -7 -4 -44 -7 -83 -4 -38 -2 -99 4 -134 6 -36 9 -66 7
-68 -2 -2 -461 -5 -1019 -6 -772 -2 -1019 -5 -1028 -14 -12 -12 -9 -14 66 -27
17 -3 381 -8 810 -12 429 -3 785 -7 792 -9 8 -3 13 -69 15 -239 2 -165 7 -239
15 -247 23 -22 30 56 32 316 l1 170 193 -2 c181 -1 362 9 375 22 17 17 -28 29
-126 33 l-108 4 4 99 c5 104 -4 209 -17 209 -4 0 -8 -6 -9 -12z"/>
<path d="M8180 8080 c-1 -3 -5 -44 -9 -93 -4 -48 -10 -90 -14 -93 -3 -3 -29
-1 -57 5 -28 6 -116 16 -196 22 -284 21 -566 -25 -864 -142 -598 -234 -929
-670 -1019 -1344 -16 -122 -31 -415 -24 -492 13 -154 46 -148 50 10 3 113 21
368 29 407 5 25 6 26 62 19 31 -4 106 -8 166 -8 l109 -1 -7 -52 c-15 -119 -19
-403 -6 -442 21 -64 32 -27 41 131 11 183 28 345 38 356 4 4 43 10 87 14 43 3
90 10 104 15 24 9 24 10 5 21 -11 6 -57 13 -102 15 -46 3 -83 7 -83 9 0 3 9
40 20 83 27 105 80 227 143 328 l52 84 50 -6 c28 -3 114 -9 191 -12 l142 -7
-45 -65 c-57 -83 -145 -265 -177 -365 -22 -69 -44 -166 -61 -262 -10 -64 -17
-215 -10 -242 l7 -28 13 25 c7 14 16 54 20 90 19 175 80 389 159 564 91 199
244 382 421 502 225 153 435 219 732 231 l161 6 87 -47 c250 -135 441 -302
573 -501 89 -135 167 -317 198 -462 30 -146 34 -273 37 -1165 1 -688 5 -910
14 -919 14 -14 158 -26 380 -32 151 -4 193 1 193 23 0 7 -52 23 -83 25 -4 0
-7 279 -6 620 1 341 2 753 2 915 1 319 -8 445 -48 625 -31 137 -64 238 -116
358 -22 50 -43 98 -46 105 -4 9 24 12 122 12 136 0 224 15 205 34 -7 7 -77 13
-187 16 l-176 5 -49 80 c-109 174 -304 391 -448 496 -83 61 -212 140 -306 187
-80 41 -268 105 -369 127 l-80 17 -1 82 c0 45 -6 90 -12 101 -6 11 -12 18 -12
15z m-155 -240 c181 -25 355 -63 355 -78 0 -4 -15 -55 -34 -114 -19 -59 -39
-130 -46 -157 -7 -28 -16 -51 -20 -51 -5 0 -50 11 -102 25 -190 49 -261 58
-433 52 -170 -7 -305 -26 -395 -58 -30 -10 -55 -19 -56 -19 -2 0 -8 17 -15 38
-6 20 -34 91 -60 156 -27 66 -47 121 -46 122 3 4 186 53 220 60 93 18 189 34
227 37 73 7 319 -2 405 -13z m554 -142 c169 -71 367 -205 497 -335 78 -79 159
-172 153 -177 -2 -1 -35 -25 -74 -51 -79 -55 -197 -145 -206 -158 -3 -4 -55
41 -115 100 -129 128 -246 213 -392 285 -59 29 -108 53 -109 53 -1 0 20 70 48
155 27 84 49 160 49 167 0 18 34 9 149 -39z m-1436 -35 c14 -38 39 -108 57
-156 18 -49 30 -89 29 -90 -2 -1 -31 -15 -64 -31 -119 -56 -255 -155 -373
-271 -114 -112 -117 -114 -137 -96 -11 10 -77 57 -148 105 l-127 88 19 27 c48
68 162 178 257 249 124 93 394 238 451 241 6 1 22 -29 36 -66z m810 -217 c54
-8 101 -17 104 -19 2 -3 -22 -8 -54 -12 -138 -17 -333 -75 -464 -140 -133 -66
-274 -170 -376 -277 l-52 -55 -78 13 c-43 8 -124 14 -181 15 l-103 0 20 27
c89 126 368 320 547 382 202 71 434 95 637 66z m-1506 -348 c53 -39 120 -86
148 -103 l53 -31 -53 -87 c-65 -106 -116 -226 -152 -357 -25 -87 -30 -99 -48
-95 -11 2 -85 7 -165 10 -79 3 -146 8 -148 9 -6 6 57 270 81 341 35 102 83
209 136 302 25 46 47 83 48 83 2 0 46 -32 100 -72z m2875 -34 c64 -93 160
-280 198 -384 25 -71 80 -257 80 -275 0 -3 -21 -5 -47 -5 -27 0 -109 -11 -182
-25 -74 -13 -136 -23 -137 -22 -1 1 -12 38 -23 82 -39 142 -125 323 -208 439
-29 40 -32 50 -20 57 8 5 72 53 143 108 71 55 134 99 139 97 6 -1 31 -33 57
-72z m297 -786 c6 -46 13 -108 17 -138 4 -30 8 -147 8 -259 l1 -204 -140 7
c-77 3 -163 6 -192 6 l-52 0 -1 223 c-1 214 -3 263 -15 354 l-6 41 68 7 c52 5
247 34 294 44 4 0 12 -36 18 -81z m-86 -648 l107 0 -2 -347 c-3 -324 -4 -348
-20 -347 -10 1 -94 2 -188 3 l-170 1 0 351 0 351 83 -6 c45 -3 130 -6 190 -6z
m-118 -744 c33 -3 97 -5 143 -5 l82 -1 -2 -291 -3 -292 -100 2 c-55 1 -109 4
-120 6 -11 2 -49 4 -85 4 l-65 1 -3 294 -4 294 49 -4 c26 -2 75 -6 108 -8z"/>
<path d="M9322 7608 c-44 -6 -70 -14 -65 -19 18 -18 179 -31 308 -24 182 9
271 30 203 49 -35 9 -364 5 -446 -6z"/>
<path d="M7869 7063 c-1 -5 -3 -53 -4 -108 -3 -155 -38 -241 -189 -480 -65
-101 -107 -180 -127 -240 l-14 -40 -5 60 c-5 51 -2 103 13 219 1 10 -6 23 -15
29 -40 26 -216 -190 -294 -357 -57 -124 -76 -212 -77 -361 -1 -136 12 -209 53
-303 11 -25 18 -47 16 -49 -6 -6 -50 23 -114 74 -68 54 -88 55 -101 6 -24 -87
-1 -238 49 -316 l28 -45 -56 5 c-100 8 -153 -37 -192 -165 -25 -79 -27 -213
-4 -297 17 -68 58 -118 111 -136 18 -6 33 -12 33 -14 0 -1 -7 -22 -15 -45 -21
-61 -20 -147 3 -158 31 -17 100 -24 166 -17 l64 7 32 65 c67 132 83 139 288
124 70 -6 197 -13 282 -16 85 -4 156 -8 157 -9 1 -1 -9 -30 -23 -64 -28 -69
-40 -150 -26 -170 13 -19 75 -31 153 -32 77 0 78 1 129 104 56 112 55 112 348
108 191 -2 250 1 276 12 24 10 57 13 113 9 70 -5 81 -3 106 17 18 15 27 31 27
51 0 27 -10 40 -53 71 -16 12 -16 16 -1 68 11 39 15 80 12 140 -10 198 -124
309 -304 295 -758 -58 -1243 -51 -1522 24 -35 10 -42 17 -70 78 -40 89 -52
136 -52 206 l0 59 41 -36 c70 -60 139 -82 167 -54 18 18 15 37 -20 155 -29 97
-32 121 -32 238 -1 144 12 206 65 327 31 72 120 220 162 270 l22 27 0 -117 c0
-88 5 -130 18 -169 10 -29 22 -55 27 -58 16 -10 38 7 45 33 8 36 62 165 86
209 11 19 56 95 100 169 140 234 175 331 167 459 l-4 69 60 -66 c66 -71 135
-190 166 -286 36 -115 43 -179 36 -350 -7 -178 -1 -223 39 -266 37 -40 70 -35
121 19 56 58 86 148 86 259 l0 79 19 -24 c11 -13 44 -72 73 -131 74 -146 90
-221 82 -391 -3 -73 -9 -153 -12 -179 -3 -27 -3 -48 1 -48 21 0 52 30 105 102
59 81 59 81 70 54 17 -46 26 -157 18 -240 -12 -133 -62 -264 -130 -341 -46
-52 -44 -66 6 -43 38 19 94 83 126 148 79 156 91 407 27 540 -30 62 -52 63
-102 6 l-40 -46 -1 122 c0 141 -19 220 -84 348 -62 121 -171 243 -202 224 -4
-3 -8 -42 -8 -87 0 -95 -20 -186 -55 -262 -48 -100 -82 -72 -74 60 14 266 -2
405 -66 548 -57 130 -182 280 -260 313 -39 16 -44 17 -46 7z m-774 -1982 c250
-60 477 -85 760 -86 200 0 471 10 520 19 11 2 83 7 159 11 l140 7 -26 -31
c-35 -40 -68 -131 -76 -206 l-7 -60 -217 -5 c-119 -3 -219 -8 -223 -12 -16
-16 92 -31 259 -37 l178 -6 18 -58 c10 -32 25 -66 34 -76 9 -10 16 -19 16 -22
0 -2 -51 -3 -113 -1 l-113 3 -13 35 c-16 45 -50 61 -143 70 -87 8 -164 -7
-204 -38 -25 -20 -34 -21 -222 -14 -312 10 -321 12 -361 58 -55 64 -101 83
-206 82 -100 0 -151 -19 -211 -76 -25 -23 -37 -28 -55 -23 -36 11 -77 54 -91
94 -12 34 -18 205 -8 214 3 3 43 -2 90 -9 89 -15 217 -16 260 -3 l25 7 -27 1
c-15 1 -38 5 -52 11 -14 5 -83 17 -153 26 -71 9 -129 17 -131 19 -6 6 36 80
54 96 17 14 39 26 54 28 3 1 41 -8 85 -18z m1757 -69 c115 -76 140 -279 52
-415 -53 -81 -166 -96 -224 -31 -36 41 -50 90 -50 172 0 112 60 239 130 274
44 22 58 22 92 0z m-1492 -388 c22 -9 40 -20 40 -25 0 -5 -25 -9 -55 -9 -86 0
-127 -26 -164 -104 -17 -35 -31 -71 -31 -80 0 -13 -12 -16 -65 -16 -79 0 -79
3 -30 104 45 93 73 126 115 136 59 14 147 11 190 -6z m1632 -71 c27 -25 22
-33 -22 -33 -45 0 -47 2 -23 30 21 24 22 24 45 3z m-683 -17 c9 -11 4 -14 -30
-19 -72 -10 -117 -49 -158 -138 l-36 -79 -55 2 c-52 3 -55 4 -51 28 12 86 86
204 134 213 56 11 185 7 196 -7z"/>
<path d="M8010 4878 c-67 -9 -78 -13 -67 -25 12 -11 289 -13 347 -2 79 15 86
29 15 30 -33 1 -98 2 -145 4 -47 1 -114 -2 -150 -7z"/>
<path d="M7075 4802 c32 -33 233 -55 290 -33 16 7 10 10 -30 20 -68 16 -273
27 -260 13z"/>
<path d="M7605 4762 c16 -17 159 -42 240 -42 159 0 47 38 -140 47 -76 4 -107
2 -100 -5z"/>
<path d="M8736 4701 c-9 -14 62 -18 86 -4 21 11 18 12 -29 13 -28 0 -54 -4
-57 -9z"/>
<path d="M5325 7012 c-30 -8 -30 -8 -7 -20 43 -24 194 -34 478 -30 196 2 287
7 295 15 11 11 -1 18 -52 28 -42 8 -684 14 -714 7z"/>
<path d="M5293 6434 c-27 -6 -30 -19 -5 -29 54 -22 502 -27 592 -7 l35 8 -24
14 c-19 9 -94 14 -300 16 -152 1 -286 0 -298 -2z"/>
<path d="M7851 6064 c-112 -123 -188 -295 -199 -454 -4 -54 -11 -94 -17 -93
-5 0 -20 27 -33 60 -13 32 -30 65 -38 73 -12 12 -16 12 -30 -2 -22 -21 -31
-237 -15 -330 12 -73 50 -166 75 -187 25 -21 28 -9 11 55 -21 85 -35 188 -34
269 l0 70 22 -30 c55 -75 101 -95 103 -45 7 150 48 311 110 434 33 65 93 155
104 156 3 0 4 -40 2 -89 -5 -143 49 -335 115 -403 57 -59 133 -23 169 80 10
29 22 52 25 52 4 0 19 -37 34 -82 46 -139 45 -334 -3 -434 -22 -47 -6 -55 28
-14 68 82 88 238 50 394 -29 121 -86 231 -120 231 -20 0 -26 -8 -40 -55 -20
-68 -42 -109 -68 -133 -20 -18 -21 -18 -36 5 -58 89 -106 272 -106 407 0 141
-26 156 -109 65z"/>
<path d="M6675 4140 c-11 -18 21 -40 59 -40 17 0 67 -7 111 -14 88 -16 290
-41 400 -51 39 -3 131 -12 205 -20 74 -8 171 -17 215 -20 44 -3 204 -19 355
-35 151 -16 419 -43 595 -60 176 -16 336 -32 355 -35 100 -15 602 -45 648 -39
130 16 -25 45 -448 83 -184 17 -445 42 -580 56 -135 13 -272 27 -305 30 -33 3
-80 8 -105 10 -25 3 -67 7 -95 9 -364 33 -926 91 -1085 112 -180 24 -315 29
-325 14z"/>
<path d="M7701 3724 c-11 -14 -23 -34 -26 -43 -5 -16 -27 -19 -198 -25 -105
-4 -212 -9 -237 -11 -25 -2 -103 -6 -175 -10 -150 -7 -226 -15 -239 -22 -5 -4
-6 -62 -3 -133 l7 -128 -73 -16 c-185 -42 -297 -142 -297 -267 0 -72 16 -119
63 -180 39 -52 39 -53 34 -122 -4 -64 -13 -86 -121 -301 -119 -237 -157 -333
-182 -465 -39 -203 10 -441 120 -584 21 -27 36 -50 34 -52 -2 -1 -41 -15 -88
-30 -47 -15 -153 -54 -237 -86 -294 -112 -303 -129 -110 -204 53 -21 97 -42
97 -47 0 -5 -29 -23 -65 -39 -70 -32 -100 -70 -73 -95 16 -15 328 -131 647
-240 l245 -84 220 109 c122 60 286 137 366 171 160 68 173 76 167 99 -3 15 21
16 227 16 305 0 448 20 679 96 56 19 121 32 167 35 216 12 451 90 607 200 79
57 126 112 168 199 45 94 59 174 52 293 -10 177 -68 325 -234 601 -95 158
-156 275 -173 329 -13 41 -12 44 18 85 210 282 115 485 -254 544 l-101 17 19
60 c34 108 38 104 -157 152 -350 85 -553 135 -660 163 -60 16 -133 31 -162 35
-47 6 -53 4 -72 -20z m321 -106 c216 -61 447 -117 581 -139 42 -7 82 -16 88
-20 7 -4 2 -29 -16 -75 -113 -290 -172 -431 -190 -451 -13 -14 -55 -33 -120
-52 -55 -16 -101 -28 -103 -26 -1 1 18 98 43 215 45 211 52 265 38 273 -12 8
-260 45 -338 52 -38 3 -108 10 -155 15 -47 5 -112 11 -144 15 -33 3 -61 7 -63
9 -3 2 9 30 25 62 16 33 41 90 57 127 34 80 -2 81 297 -5z m-403 -70 c-11 -24
-26 -59 -34 -78 l-15 -35 -160 3 c-88 2 -160 2 -160 0 -1 -20 -59 -173 -66
-173 -5 0 -41 7 -81 14 -58 11 -75 12 -87 1 -9 -7 -30 -51 -48 -98 -32 -83
-33 -84 -40 -51 -7 33 -20 175 -33 352 l-7 87 84 1 c45 1 151 5 233 9 83 3
214 7 292 8 l142 2 -20 -42z m-174 -168 c280 -21 394 -31 465 -40 41 -6 142
-17 224 -25 82 -8 151 -17 154 -19 2 -3 -5 -40 -16 -83 -12 -43 -35 -145 -52
-228 -18 -82 -33 -152 -35 -154 -5 -4 -208 -41 -212 -38 -1 2 20 54 46 115
l49 113 -22 14 c-11 7 -50 19 -86 25 -82 14 -223 49 -420 105 -85 24 -183 51
-217 60 -40 11 -63 23 -63 32 0 37 36 133 50 133 8 0 69 -5 135 -10z m-602
-126 c4 -23 -1 -28 -40 -45 -24 -10 -60 -31 -80 -46 -20 -16 -45 -27 -55 -25
-33 6 -21 -38 21 -79 102 -96 330 -218 537 -288 213 -71 245 -76 474 -76 182
1 220 4 341 28 160 32 284 64 549 142 245 71 334 108 377 154 38 42 37 56 -2
55 -16 0 -37 9 -50 22 -24 24 -131 61 -203 71 -34 5 -42 9 -36 22 3 9 11 28
16 44 12 32 32 34 148 13 232 -42 331 -148 271 -288 -59 -138 -366 -430 -536
-509 -67 -31 -49 -38 36 -13 108 32 251 118 345 206 l51 48 13 -47 c19 -69 87
-208 176 -358 154 -263 194 -368 202 -531 7 -161 -22 -251 -113 -352 -89 -99
-251 -186 -431 -230 -155 -39 -145 -40 -91 17 26 28 47 55 47 61 0 14 6 16
-103 -44 -163 -90 -326 -145 -547 -184 -108 -19 -519 -22 -625 -5 -58 9 -59
10 -33 22 30 15 41 43 24 65 -6 9 -83 43 -171 77 -88 34 -271 108 -407 166
-274 115 -254 111 -392 70 l-70 -20 -34 39 c-92 106 -136 261 -129 449 6 168
33 251 166 520 110 220 128 267 133 338 1 20 5 36 8 34 51 -29 147 -69 176
-74 l38 -6 -22 31 c-23 31 -67 68 -137 114 -63 41 -124 104 -142 145 -22 53
-18 120 11 163 28 43 119 94 202 114 80 20 81 19 87 -10z m397 -72 c91 -27
199 -59 240 -71 253 -68 325 -86 411 -100 l96 -16 -47 -103 c-26 -57 -52 -108
-58 -114 -15 -15 -257 -22 -353 -10 -47 6 -137 27 -200 48 -117 37 -357 130
-372 144 -11 10 95 281 108 277 6 -3 84 -27 175 -55z m-385 -59 c3 -27 8 -63
11 -81 5 -32 4 -33 -18 -21 -44 23 -128 82 -128 89 0 7 107 59 122 60 4 0 9
-21 13 -47z m1950 -44 c35 -11 67 -23 70 -28 2 -5 -63 -31 -145 -58 -83 -27
-150 -48 -150 -46 0 2 8 20 19 41 10 20 25 57 32 81 l13 43 48 -6 c27 -4 77
-16 113 -27z m-1965 -1760 c138 -62 386 -164 519 -214 66 -25 72 -29 51 -37
-12 -5 -37 -15 -54 -23 -17 -8 -125 -55 -241 -106 -115 -50 -231 -100 -257
-112 -43 -19 -48 -19 -80 -4 -18 8 -105 41 -193 72 -203 71 -414 148 -533 195
l-93 36 178 68 c214 82 520 186 548 186 11 0 81 -28 155 -61z m-633 -360 c15
-6 158 -58 316 -114 339 -122 265 -125 601 24 126 55 234 101 241 101 7 0 37
-11 66 -24 45 -20 51 -25 34 -31 -92 -34 -273 -116 -441 -199 l-200 -101 -250
87 c-137 47 -316 110 -397 139 l-148 52 63 38 c71 42 76 43 115 28z"/>
<path d="M6970 2610 c56 -50 189 -140 255 -172 207 -103 495 -145 673 -99 41
11 76 22 80 25 3 3 -53 6 -124 7 -71 0 -145 2 -164 4 -135 16 -277 53 -395
102 -70 29 -254 120 -305 152 -57 35 -69 24 -20 -19z"/>
<path d="M6672 2217 c-25 -30 -85 -236 -98 -334 -10 -77 2 -87 140 -123 72
-20 91 -18 100 7 12 30 -14 44 -160 88 -7 2 0 51 22 147 37 158 42 213 20 221
-8 3 -19 0 -24 -6z"/>
<path d="M6935 2138 c-16 -41 -61 -244 -70 -319 -12 -96 -7 -100 130 -137 80
-22 95 -20 95 14 0 28 -26 46 -93 64 -26 7 -50 17 -53 21 -3 5 -2 36 2 70 6
56 8 60 28 54 11 -3 45 -11 74 -18 45 -10 55 -9 62 3 26 40 6 57 -93 81 -36 9
-46 15 -43 28 3 9 8 33 12 54 3 20 8 37 9 37 2 0 34 -7 71 -16 77 -17 95 -14
89 17 -6 31 -11 34 -89 58 -96 30 -114 28 -131 -11z"/>
<path d="M8725 2117 c-73 -41 -101 -138 -58 -203 23 -35 47 -46 127 -54 59 -7
74 -13 93 -35 29 -34 29 -60 -1 -90 -34 -34 -87 -41 -142 -20 -52 20 -77 14
-72 -17 5 -38 63 -68 130 -68 71 0 115 17 150 58 81 96 7 242 -124 242 -84 0
-121 36 -92 91 20 40 79 49 147 23 8 -3 22 2 30 11 13 12 14 21 5 40 -22 48
-126 60 -193 22z"/>
<path d="M7207 2093 c-4 -3 -7 -16 -7 -29 0 -23 0 -23 91 -40 24 -5 27 -9 23
-42 -38 -336 -38 -355 -7 -366 25 -10 53 12 53 42 0 15 7 98 17 185 l17 158
66 -3 c61 -3 65 -2 68 19 4 25 -21 39 -87 49 -20 3 -70 12 -111 20 -83 15
-113 17 -123 7z"/>
<path d="M8355 2073 c-59 -12 -105 -36 -105 -53 0 -36 40 -365 48 -394 11 -40
37 -56 57 -36 12 13 13 30 7 97 -4 45 -6 80 -3 78 2 -3 10 0 16 5 9 8 31 -6
81 -52 93 -85 130 -110 156 -106 41 6 32 35 -29 93 -32 31 -70 63 -85 73 -30
17 -36 32 -15 32 20 0 65 51 77 87 8 22 8 42 0 72 -22 83 -106 126 -205 104z
m113 -98 c22 -28 19 -66 -8 -90 -21 -19 -105 -46 -114 -38 -3 4 -6 22 -6 42 0
20 -4 50 -9 68 -11 37 -5 40 71 42 38 1 50 -3 66 -24z"/>
<path d="M8035 2033 c-106 -5 -105 -3 -105 -237 0 -146 3 -197 14 -211 12 -16
26 -18 126 -17 119 2 143 10 138 46 -3 19 -10 21 -100 24 l-98 3 -1 39 c-1 22
-2 48 -3 58 -1 14 10 18 63 22 71 6 96 25 75 58 -9 13 -25 17 -73 17 l-61 0 0
61 0 61 71 7 c84 8 89 10 89 41 0 23 -19 37 -48 33 -9 -1 -48 -3 -87 -5z"/>
<path d="M7570 2005 c0 -28 30 -45 81 -45 l30 0 -5 -52 c-3 -29 -8 -106 -12
-171 -5 -99 -3 -121 10 -142 19 -29 42 -32 54 -7 11 20 21 158 22 285 l0 88
50 -2 c55 -3 85 15 75 43 -9 23 -36 28 -177 28 l-128 0 0 -25z"/>
</g>
</svg>
