<?xml version="1.0" standalone="no"?>
<!DOCTYPE svg PUBLIC "-//W3C//DTD SVG 20010904//EN"
 "http://www.w3.org/TR/2001/REC-SVG-20010904/DTD/svg10.dtd">
<svg version="1.0" xmlns="http://www.w3.org/2000/svg"
 width="1024.000000pt" height="1024.000000pt" viewBox="0 0 1024.000000 1024.000000"
 preserveAspectRatio="xMidYMid meet">
<metadata>
Created by potrace 1.16, written by Peter Selinger 2001-2019
</metadata>
<g transform="translate(0.000000,1024.000000) scale(0.100000,-0.100000)"
fill="#000000" stroke="none">
<path d="M4040 8937 c-95 -8 -237 -47 -379 -103 -87 -35 -335 -159 -386 -194
-22 -14 -45 -30 -52 -33 -6 -4 -25 4 -41 18 -39 32 -133 65 -187 65 -103 0
-212 -78 -262 -186 -22 -49 -25 -66 -21 -138 7 -124 49 -191 157 -250 103 -55
221 -32 326 65 l43 39 78 -29 79 -29 7 -43 c3 -24 17 -75 31 -112 23 -63 24
-72 11 -103 -8 -18 -14 -47 -14 -64 0 -42 42 -127 83 -170 34 -34 34 -35 17
-60 -22 -30 -40 -94 -40 -137 0 -31 -2 -33 -34 -33 -18 0 -48 3 -66 7 l-33 6
6 119 c4 100 2 121 -12 139 -17 21 -12 20 -309 63 l-162 24 -63 -23 c-34 -12
-102 -37 -152 -54 -190 -67 -185 -61 -161 -234 9 -67 20 -134 23 -148 4 -22 0
-28 -26 -37 -50 -18 -151 -91 -236 -173 -97 -93 -157 -192 -175 -289 -6 -36
-13 -75 -16 -87 -3 -18 -11 -23 -35 -23 -37 0 -409 -91 -461 -113 -37 -16 -38
-17 -38 -69 0 -29 7 -100 15 -158 8 -58 15 -108 15 -112 0 -4 7 -14 16 -22 11
-12 36 -16 95 -16 73 0 79 -1 84 -22 3 -13 20 -99 39 -193 19 -93 48 -233 65
-310 16 -77 41 -194 56 -260 48 -229 34 -205 215 -367 89 -78 166 -146 173
-149 7 -4 76 -11 155 -15 l142 -7 0 -29 c0 -26 -28 -168 -35 -176 -1 -1 -42 2
-91 7 -284 32 -328 34 -366 18 -34 -14 -39 -22 -62 -97 -14 -44 -26 -91 -26
-104 0 -40 34 -59 118 -68 107 -10 607 -53 967 -83 165 -14 435 -36 600 -50
165 -14 329 -27 365 -30 36 -3 164 -14 285 -25 245 -22 278 -19 368 33 81 48
147 150 147 228 0 35 -9 35 217 13 206 -20 285 -15 353 22 80 44 140 139 139
224 0 62 -29 139 -60 163 l-27 19 -88 -33 c-49 -18 -95 -37 -101 -42 -7 -5
-13 -29 -13 -53 0 -42 0 -43 -32 -39 -18 3 -53 7 -78 10 l-46 6 -12 62 c-6 34
-14 71 -18 83 -5 18 4 23 78 49 179 61 248 96 302 149 69 69 100 131 167 331
l56 170 59 20 c90 32 104 42 130 98 27 59 30 110 9 147 -8 14 -14 28 -15 31 0
3 35 9 77 12 90 7 133 -8 133 -47 0 -27 -48 -344 -55 -363 -2 -7 -26 -22 -52
-35 -54 -26 -62 -37 -189 -250 -115 -195 -205 -373 -198 -393 11 -28 278 -255
300 -255 31 0 62 28 144 130 40 49 79 90 85 90 7 0 57 -21 111 -46 103 -48
143 -56 169 -34 24 20 121 163 207 304 44 72 88 140 98 150 10 10 40 26 66 35
45 16 50 22 92 101 24 47 45 86 46 88 5 5 171 -30 179 -38 5 -4 12 -41 15 -81
8 -88 -1 -81 213 -158 74 -27 160 -61 190 -74 l55 -24 21 -79 c12 -43 36 -137
53 -209 72 -294 93 -366 112 -376 21 -11 72 10 325 135 93 46 154 82 157 93 7
21 2 39 -49 178 -20 55 -52 143 -70 195 -19 52 -52 141 -73 198 -44 115 -46
111 45 72 40 -18 43 -23 161 -264 100 -205 124 -246 141 -246 46 0 437 211
446 241 7 21 -3 43 -183 383 -57 109 -114 209 -126 223 -15 18 -69 40 -201 84
-98 32 -187 59 -196 59 -26 0 -27 7 -15 100 11 84 12 84 45 94 45 13 57 37 70
135 17 130 15 158 -13 176 -15 10 -33 14 -49 10 -25 -7 -25 -6 -16 37 4 24 13
68 19 98 l11 56 92 -23 c51 -12 106 -23 122 -23 17 1 124 44 240 98 163 75
212 103 221 122 14 30 44 249 51 370 4 65 2 88 -8 97 -13 10 -161 46 -304 73
-33 6 -67 13 -77 16 -14 4 -16 27 -11 242 7 276 8 271 -89 296 -85 22 -91 26
-69 55 l18 23 159 -12 c158 -12 158 -12 176 10 10 12 22 41 28 63 5 23 17 65
25 93 24 83 16 91 -101 101 -41 3 -74 9 -74 12 2 28 59 59 225 123 44 17 86
36 94 41 25 21 30 57 22 168 -9 130 -18 145 -86 134 -32 -5 -148 -48 -221 -81
-8 -4 -10 24 -6 94 6 131 3 133 -135 97 -125 -32 -141 -40 -152 -69 -5 -13
-15 -106 -22 -206 l-13 -183 -155 -181 -156 -180 -95 -17 c-52 -9 -117 -19
-145 -22 l-50 -7 -56 68 c-124 150 -142 184 -183 358 -67 283 -116 476 -127
495 -18 34 -54 33 -167 -6 -59 -21 -115 -42 -124 -47 -28 -14 -30 -48 -8 -117
11 -36 23 -83 26 -105 4 -23 15 -79 25 -125 11 -46 18 -86 16 -88 -2 -2 -34 0
-71 4 l-68 8 -28 90 c-16 50 -34 109 -40 132 -12 48 -39 68 -79 60 -14 -3 -72
-22 -128 -42 -127 -46 -133 -57 -103 -174 10 -42 31 -128 45 -191 14 -64 34
-129 44 -146 23 -38 49 -43 226 -45 72 -1 162 -4 202 -8 l72 -6 48 -65 c93
-125 115 -160 101 -164 -7 -2 -85 -16 -173 -31 -255 -43 -266 -46 -287 -67
-19 -19 -20 -28 -14 -117 12 -170 18 -217 31 -234 7 -10 89 -46 181 -81 157
-59 169 -65 166 -87 -1 -13 -13 -76 -27 -139 -23 -109 -72 -351 -80 -395 -4
-18 -17 -22 -107 -33 -89 -11 -224 -35 -309 -57 -25 -6 -26 -5 -32 52 -9 81
-25 123 -53 133 -22 9 -171 -11 -299 -40 -172 -38 -383 -94 -402 -106 -24 -15
-43 -69 -43 -121 0 -28 -4 -33 -22 -33 -36 1 -245 27 -320 40 -61 11 -68 15
-68 35 0 26 -15 41 -52 50 -25 6 -27 10 -30 76 l-3 69 106 59 c114 63 258 163
350 242 40 34 65 49 86 49 39 0 93 47 154 133 49 70 58 102 39 137 -9 16 -3
26 35 61 55 51 124 147 155 214 68 154 76 220 32 281 -98 134 -306 254 -419
241 -57 -6 -89 -29 -133 -96 l-35 -52 -15 23 c-44 68 -98 87 -148 52 -46 -32
-55 -68 -48 -186 l7 -108 -62 -80 -61 -80 -20 25 c-11 14 -28 25 -38 25 -17 0
-18 6 -13 48 7 64 -23 127 -92 191 l-54 48 -11 124 c-6 68 -14 127 -16 131 -3
4 1 8 9 8 25 0 64 54 71 96 14 94 -32 297 -81 355 -33 39 -107 73 -194 90 -46
8 -78 22 -114 49 -259 195 -541 281 -835 257z m295 -107 c107 -23 215 -64 339
-128 l91 -47 -155 -7 c-370 -16 -658 -144 -921 -407 -53 -53 -114 -120 -137
-149 l-41 -53 -10 38 c-11 44 -28 164 -39 273 -6 61 -10 75 -25 78 -35 7 -47
-16 -47 -95 0 -73 -1 -74 -22 -67 -46 14 -174 82 -191 102 -28 31 -15 94 26
125 133 100 562 295 742 337 110 25 273 25 390 0z m2944 -217 c23 -85 65 -253
82 -328 60 -272 59 -269 199 -448 61 -79 99 -119 117 -123 14 -4 107 7 207 24
l181 31 105 -35 c57 -19 121 -37 142 -40 21 -4 38 -9 38 -13 0 -7 -91 -31
-285 -75 -210 -48 -195 -48 -282 -10 -125 55 -139 57 -213 40 l-65 -16 -25 28
c-14 16 -74 99 -135 185 -60 86 -120 161 -133 167 -13 5 -67 10 -120 10 -53 0
-154 3 -224 7 l-128 6 -5 36 c-3 20 -17 81 -30 136 -13 55 -26 120 -30 145
l-6 45 58 22 c32 12 65 25 74 28 14 5 24 -17 58 -123 22 -71 47 -135 55 -141
7 -6 68 -14 137 -18 102 -5 126 -3 136 9 14 16 -4 158 -36 288 -11 41 -22 93
-26 115 l-6 40 53 22 c80 32 95 30 107 -14z m-4190 -44 l33 -20 -23 -25 c-20
-21 -24 -38 -27 -100 l-4 -74 41 -41 c23 -23 41 -43 41 -44 0 -11 -91 -67
-122 -76 -76 -20 -175 30 -209 106 -42 91 -9 203 78 263 39 27 56 32 103 32
38 0 65 -6 89 -21z m5447 -78 c-6 -84 -4 -101 9 -115 22 -21 25 -21 103 15 94
43 194 80 200 74 3 -2 7 -38 10 -78 l4 -74 -88 -36 c-193 -77 -198 -80 -248
-152 -25 -36 -46 -72 -46 -80 0 -21 27 -32 98 -40 111 -13 110 -12 94 -67 -13
-47 -14 -48 -53 -48 -22 0 -83 5 -136 11 -53 6 -107 8 -120 4 -13 -3 -40 -28
-59 -56 -34 -46 -39 -50 -68 -44 -42 9 -126 36 -126 41 0 5 174 209 235 274
l42 46 12 174 c6 96 14 184 16 195 3 16 19 25 62 37 32 8 60 16 62 17 2 0 1
-44 -3 -98z m-3616 53 c134 -19 177 -37 203 -82 26 -44 70 -239 62 -271 -7
-26 -7 -26 -27 12 -22 44 -66 67 -174 93 -108 25 -375 15 -514 -19 -188 -46
-387 -139 -520 -243 -101 -78 -218 -212 -263 -300 -24 -46 -71 -53 -109 -17
-40 39 -71 107 -64 141 11 46 117 192 210 289 151 158 338 281 522 343 188 64
455 85 674 54z m32 -333 c126 -26 133 -32 152 -138 8 -48 21 -131 28 -183 l12
-95 62 -60 c69 -67 86 -111 64 -165 l-12 -30 -54 49 c-49 45 -122 81 -165 81
-31 0 -41 24 -24 63 20 49 19 83 -5 132 -30 62 -89 82 -148 51 -34 -17 -49
-46 -57 -109 -4 -27 -12 -50 -18 -51 -104 -30 -169 -75 -147 -101 17 -20 25
-19 95 10 63 26 142 33 175 15 10 -5 23 -25 30 -44 25 -78 -35 -134 -154 -143
-73 -6 -142 21 -180 69 -28 36 -106 60 -157 49 -71 -16 -125 -48 -168 -99 -38
-47 -47 -52 -83 -52 -52 0 -103 25 -131 64 -20 28 -23 46 -28 196 -4 112 -11
179 -21 208 l-16 43 60 40 c253 172 626 256 890 200z m1033 -292 c71 -18 70
-17 53 -37 -23 -25 -128 -198 -128 -210 0 -5 7 -15 15 -22 21 -18 32 -7 105
112 35 57 65 105 66 107 5 6 68 -37 92 -61 l22 -24 -64 -98 c-36 -54 -62 -104
-59 -112 8 -21 41 -17 56 9 101 161 108 170 122 151 37 -48 1 -160 -96 -300
-68 -98 -114 -137 -143 -122 -25 13 -266 212 -343 282 l-54 49 3 111 c4 133
12 139 66 46 53 -91 72 -90 128 10 41 73 83 120 107 120 7 0 30 -5 52 -11z
m-2015 -63 c6 -29 10 -111 9 -182 -3 -144 8 -179 70 -238 27 -26 31 -37 31
-81 0 -123 143 -213 353 -221 l98 -4 32 -42 c61 -81 174 -117 278 -88 49 14
123 81 143 129 17 43 16 43 130 56 56 6 139 41 190 80 l35 26 15 -29 c8 -16
22 -59 32 -95 19 -77 9 -144 -32 -215 -27 -46 -96 -102 -125 -102 -34 0 -50
-13 -75 -63 -39 -75 -114 -150 -187 -183 -123 -57 -299 -30 -407 63 l-42 36
-51 -18 c-105 -38 -227 -14 -316 60 -35 30 -87 126 -97 182 -7 38 -25 54 -84
76 -68 25 -115 70 -151 142 -27 55 -31 73 -27 118 2 30 14 73 27 96 12 25 19
51 16 62 -16 50 -100 117 -131 105 -25 -10 -15 -38 28 -75 l42 -37 -22 -45
c-12 -25 -22 -57 -22 -72 0 -15 -5 -27 -10 -27 -23 0 -68 31 -100 66 -62 71
-75 136 -41 210 25 54 68 84 121 84 37 0 48 -6 99 -55 50 -48 60 -53 71 -40
25 30 -20 109 -81 141 l-29 15 22 40 c28 50 157 191 168 184 5 -3 14 -29 20
-59z m-862 -178 c56 -6 102 -14 102 -17 0 -3 -43 -24 -96 -45 l-96 -39 -181
22 c-100 12 -182 23 -183 24 -2 2 45 19 104 40 117 41 112 41 350 15z m5329
-250 c-4 -116 -8 -212 -9 -213 -2 -2 -13 -6 -25 -9 -21 -7 -23 -4 -23 37 0 84
-34 137 -79 122 -35 -11 -52 -68 -50 -163 l2 -87 -62 -28 c-67 -30 -85 -52
-57 -73 20 -14 113 -43 221 -69 110 -26 107 -25 101 -48 -3 -12 -14 -94 -25
-183 -11 -89 -24 -170 -28 -181 -8 -20 -9 -20 -93 3 -47 12 -130 34 -185 48
-55 14 -160 42 -233 62 -73 20 -154 37 -180 37 -44 2 -47 0 -47 -22 0 -19 10
-30 40 -46 l40 -21 -3 -64 c-4 -76 -30 -341 -38 -388 -11 -59 -35 -54 -236 56
-101 55 -207 111 -235 126 -63 31 -63 31 -28 189 13 62 38 180 55 262 17 83
40 192 51 242 l20 93 42 10 c104 26 111 38 98 187 -5 58 -13 109 -18 112 -4 4
-39 17 -78 29 -38 11 -113 34 -165 50 -52 17 -110 33 -128 37 -18 4 -31 9 -28
12 3 3 81 18 173 33 l168 28 32 -31 32 -30 98 25 97 26 91 -40 90 -39 3 -252
c3 -275 6 -307 29 -307 14 0 15 30 11 276 -4 199 -2 276 6 279 6 1 79 17 161
35 83 18 200 45 260 61 61 15 116 28 124 29 12 0 13 -33 8 -212z m-5162 57
l-7 -112 -101 -51 c-56 -28 -103 -50 -103 -49 -1 1 -3 60 -5 131 l-4 129 110
47 c90 38 111 44 114 32 2 -9 0 -66 -4 -127z m1831 87 c10 -6 35 -27 54 -47
47 -49 80 -65 135 -65 37 0 45 -3 45 -18 0 -28 -54 -98 -97 -126 -128 -83
-287 -71 -407 33 -26 22 -54 41 -62 41 -9 0 -35 -19 -59 -43 -24 -24 -76 -61
-117 -83 -72 -39 -74 -39 -184 -39 -107 0 -113 1 -180 35 -72 37 -101 72 -89
110 5 17 15 20 62 20 57 0 57 0 117 65 65 69 95 85 157 85 32 0 46 -7 81 -41
62 -60 111 -82 198 -87 128 -7 234 51 260 143 11 41 14 43 40 35 15 -4 36 -12
46 -18z m-2314 -20 c103 -16 190 -31 194 -34 7 -8 26 -238 20 -253 -3 -8 -55
-6 -192 8 -104 10 -190 20 -192 22 -2 2 -42 269 -42 282 0 5 26 2 212 -25z
m2973 -148 c44 -38 122 -102 173 -143 50 -40 92 -77 92 -81 0 -4 -20 -36 -45
-69 -39 -53 -49 -61 -68 -55 -38 12 -129 88 -283 237 l-148 143 38 42 c22 23
45 51 54 63 14 21 15 20 61 -23 25 -25 82 -76 126 -114z m1417 46 c121 -38
222 -71 223 -72 1 -2 5 -40 8 -85 l5 -83 -51 -15 c-71 -21 -117 -19 -189 9
-35 13 -98 37 -140 52 -88 32 -83 21 -93 177 -3 57 -2 87 5 87 6 0 110 -31
232 -70z m-1710 -107 c91 -99 261 -267 308 -306 l45 -37 -30 -25 c-105 -88
-272 -207 -341 -243 l-81 -42 -12 61 -12 60 36 41 c21 22 49 66 63 97 23 48
26 70 27 152 0 92 -2 99 -40 177 -31 62 -38 85 -31 101 5 12 10 21 12 21 2 0
27 -26 56 -57z m-1937 -16 l17 -32 -40 -42 c-44 -46 -72 -115 -72 -177 0 -47
30 -120 54 -133 15 -8 13 -16 -18 -67 -58 -96 -78 -170 -75 -283 1 -91 -1
-105 -34 -188 -19 -49 -38 -105 -42 -122 -3 -18 -10 -33 -13 -32 -4 0 -25 36
-46 80 -44 89 -110 158 -190 198 -53 26 -110 32 -486 51 -398 19 -408 20 -415
39 -28 71 -9 225 40 321 44 86 138 174 278 259 62 38 67 39 94 26 15 -7 83
-19 151 -26 67 -6 121 -15 119 -18 -54 -103 -77 -161 -77 -198 0 -67 27 -53
55 28 9 24 33 72 53 106 l37 63 51 0 c27 0 57 -6 66 -12 9 -7 41 -52 72 -100
52 -82 76 -102 91 -78 8 12 -25 86 -63 142 -16 24 -32 48 -36 55 -8 15 81 63
116 63 13 0 46 -14 73 -30 57 -34 77 -37 95 -15 15 18 2 31 -62 62 -42 20 -47
29 -20 37 10 4 30 19 45 34 24 25 31 27 95 24 67 -3 70 -5 87 -35z m93 -96
c15 -10 43 -25 63 -34 26 -10 38 -23 43 -43 21 -86 109 -181 201 -216 31 -12
41 -23 48 -48 4 -18 7 -34 5 -35 -8 -8 -243 68 -313 101 -44 21 -89 40 -100
41 -38 6 -62 59 -51 116 6 32 61 137 72 137 3 0 18 -8 32 -19z m1190 -76 c50
0 81 -4 79 -10 -2 -5 -23 -25 -46 -42 -33 -26 -52 -33 -87 -33 -51 0 -115 29
-138 61 -24 34 -10 42 53 33 31 -5 93 -9 139 -9z m3814 -53 c102 -27 141 -42
105 -42 -9 0 -74 -20 -144 -44 -71 -23 -132 -42 -138 -40 -5 1 -64 15 -130 30
l-120 27 55 25 c96 43 184 70 225 71 22 0 88 -12 147 -27z m208 -102 c-5 -25
-14 -101 -20 -170 -7 -69 -15 -129 -20 -133 -8 -9 -316 -157 -326 -157 -3 0
-3 26 0 58 23 207 40 319 50 329 6 7 65 30 131 52 66 22 136 46 155 54 19 9
36 15 37 14 1 -1 -3 -22 -7 -47z m-5196 -119 c67 -38 235 -91 309 -98 57 -6
61 -8 131 -78 55 -55 86 -77 132 -95 78 -30 188 -37 247 -17 42 14 47 14 61
-2 46 -50 197 -101 301 -101 157 0 306 87 388 228 18 30 37 57 43 59 12 4 40
-143 52 -268 l8 -76 -76 -18 c-41 -9 -85 -19 -97 -22 -17 -4 -22 1 -28 27 -5
24 -16 36 -43 47 -32 13 -50 13 -171 -2 -75 -9 -151 -23 -170 -31 -27 -12 -40
-13 -69 -3 -32 11 -106 8 -159 -7 -15 -4 -23 -1 -27 14 -11 33 -113 72 -189
72 l-66 0 -66 65 c-69 68 -84 75 -105 50 -11 -13 -7 -25 24 -70 21 -30 44 -59
52 -66 11 -9 0 -24 -60 -80 -87 -82 -142 -179 -175 -308 -11 -46 -23 -86 -26
-89 -9 -9 -86 51 -132 103 -59 67 -166 227 -198 297 -50 110 -61 208 -34 308
11 38 80 190 87 190 3 0 28 -13 56 -29z m-1562 -251 l5 -31 -108 3 c-59 2
-105 6 -102 11 2 4 14 7 26 8 12 0 47 8 77 19 82 27 97 26 102 -10z m5846 -81
c64 -17 131 -35 147 -38 35 -8 35 -5 15 -161 -7 -58 -18 -110 -24 -116 -6 -6
-51 -25 -101 -43 -49 -18 -116 -44 -147 -57 -32 -13 -58 -20 -58 -16 -1 19 44
462 47 462 2 0 56 -14 121 -31z m-1345 -21 c3 -13 9 -46 13 -74 l6 -52 -43 -7
c-24 -4 -77 -15 -118 -26 l-75 -19 -60 23 c-34 13 -89 35 -123 48 -36 13 -57
26 -50 30 16 9 400 96 433 98 7 1 14 -9 17 -21z m-4678 -3 c72 -3 166 -8 210
-10 44 -3 235 -12 425 -20 190 -8 376 -20 413 -25 142 -21 173 -56 327 -363
157 -313 265 -509 312 -562 66 -75 157 -105 392 -129 82 -9 191 -16 242 -16
112 0 115 2 164 122 27 66 46 94 89 136 63 59 96 71 58 20 -45 -60 -84 -157
-146 -365 l-22 -73 -72 0 c-105 0 -366 25 -576 55 -266 37 -266 37 -387 257
-32 56 -89 157 -129 223 -68 114 -152 257 -219 374 -43 74 -97 118 -160 130
-28 5 -143 12 -256 16 -113 3 -227 8 -255 10 -27 3 -185 10 -350 16 -165 6
-303 14 -306 17 -4 4 -10 51 -14 106 l-7 98 68 -6 c38 -3 128 -8 199 -11z
m2469 -117 l45 -21 -43 -29 c-98 -64 -179 -181 -206 -297 -12 -52 -10 -158 5
-193 10 -25 -34 -24 -119 2 -80 25 -96 45 -96 120 0 204 193 463 332 445 21
-3 58 -15 82 -27z m1726 -18 c47 -17 100 -37 119 -44 l33 -12 -40 -16 c-36
-14 -42 -22 -56 -67 -8 -27 -18 -82 -22 -121 -3 -39 -10 -72 -14 -75 -10 -6
-161 85 -167 102 -6 16 14 233 24 258 7 19 7 19 123 -25z m884 -6 c-10 -14
-20 -42 -23 -62 -5 -27 -11 -37 -24 -36 -9 0 -131 2 -269 3 -162 2 -242 6
-223 12 110 31 381 85 548 108 4 1 0 -11 -9 -25z m-1920 -100 c9 -56 16 -115
16 -133 0 -27 -3 -31 -27 -31 -50 0 -49 -2 -67 192 -2 17 -20 19 -91 7 -77
-12 -78 -12 -96 12 -10 13 -19 26 -19 30 0 7 253 36 262 29 3 -3 13 -51 22
-106z m-1496 -99 c27 -38 59 -80 71 -92 37 -39 41 -39 -119 -2 -89 20 -150 45
-150 60 0 9 54 175 69 213 l12 29 33 -69 c19 -38 56 -100 84 -139z m1058 160
c56 -16 110 -66 143 -132 25 -51 21 -53 -71 -27 -47 13 -61 14 -73 4 -23 -19
-19 -28 36 -87 66 -73 103 -146 89 -173 -6 -11 -19 -20 -29 -20 -36 0 -121 31
-149 55 -34 29 -54 31 -72 10 -11 -13 -9 -20 14 -44 15 -16 43 -37 62 -47 19
-10 33 -23 31 -29 -8 -23 -101 -59 -161 -62 -52 -3 -69 1 -111 24 -103 58
-121 166 -50 310 55 112 136 182 249 218 23 7 41 13 42 14 0 1 23 -6 50 -14z
m2490 6 c-3 -5 1 -14 9 -21 8 -7 15 -18 15 -25 0 -7 17 -23 38 -37 46 -31 252
-143 371 -203 50 -25 91 -49 91 -53 0 -13 -30 -124 -36 -134 -3 -5 -13 -3 -22
5 -25 23 -260 154 -404 227 -87 44 -128 70 -128 81 0 9 -6 22 -14 28 -8 7 -12
19 -11 29 12 61 18 75 35 92 20 20 67 29 56 11z m-1452 -81 c77 -11 155 -20
173 -20 l33 0 0 -70 c0 -64 3 -73 28 -97 l27 -26 -180 7 c-99 4 -211 10 -250
14 l-70 7 -6 38 c-4 27 -2 37 7 37 24 0 44 43 44 93 0 49 0 49 28 43 15 -3 90
-15 166 -26z m978 -34 c229 -1 320 -4 329 -13 13 -13 -12 -21 -168 -54 -54
-11 -114 -24 -133 -29 -52 -14 -378 -60 -423 -60 l-38 0 6 48 c13 106 15 111
38 115 12 3 33 2 47 -1 14 -3 168 -6 342 -6z m-4367 -16 c536 -17 563 -20 603
-63 26 -29 299 -483 432 -719 100 -179 133 -195 470 -237 207 -26 365 -40 502
-43 104 -3 109 -2 133 23 18 17 40 71 75 181 56 179 107 287 147 316 15 10 63
27 106 37 75 18 78 18 113 -1 50 -26 76 -66 76 -117 1 -68 -19 -99 -75 -113
-60 -15 -93 -36 -111 -73 -9 -16 -41 -104 -72 -197 -31 -93 -71 -198 -88 -234
l-31 -65 -95 -8 c-52 -5 -142 -6 -200 -2 -114 6 -609 36 -1005 60 -137 8 -401
24 -585 35 -282 17 -337 23 -354 38 -12 9 -75 68 -142 130 -103 95 -123 119
-128 150 -4 20 -20 96 -36 167 -16 72 -41 184 -54 250 -14 66 -38 183 -55 260
-16 77 -32 161 -36 188 l-6 47 63 0 c35 0 194 -5 353 -10z m5889 -102 c-3 -35
-9 -66 -13 -70 -4 -4 -92 -37 -196 -74 -249 -87 -274 -94 -279 -86 -8 13 19
111 34 126 8 8 56 28 105 45 50 17 146 51 215 75 69 25 129 45 133 45 4 1 5
-27 1 -61z m-2824 -9 c0 -24 -4 -29 -17 -25 -10 2 -42 8 -71 11 -60 8 -60 15
1 32 74 20 87 17 87 -18z m1773 -62 c45 -25 145 -77 222 -118 77 -40 154 -81
170 -91 17 -10 39 -18 51 -18 11 0 23 -3 26 -6 4 -3 -9 -64 -28 -136 -22 -81
-33 -142 -29 -159 7 -30 32 -41 269 -115 l118 -38 20 -45 c17 -40 44 -115 148
-409 l18 -53 -159 -79 c-87 -44 -161 -80 -163 -80 -3 0 -10 26 -16 58 -10 48
-46 188 -90 353 -12 44 -19 50 -90 76 -30 12 -95 37 -145 56 -49 19 -120 45
-157 57 -66 22 -68 24 -68 56 0 50 -20 131 -35 144 -8 6 -92 25 -187 41 -95
16 -204 36 -243 44 -140 31 -148 28 -181 -50 -26 -66 -136 -265 -159 -289 -16
-17 -37 -25 -84 -30 -38 -4 -68 -14 -77 -24 -9 -9 -65 -87 -124 -172 -60 -85
-114 -155 -119 -155 -6 0 -58 44 -116 99 l-106 98 37 67 c118 215 212 343 271
367 48 20 60 48 72 158 11 93 35 259 47 317 5 26 7 27 107 32 157 8 542 81
657 125 20 7 28 5 42 -14 10 -12 55 -43 101 -67z m-2210 17 c115 -10 134 -18
72 -32 -28 -6 -73 -13 -101 -16 -54 -7 -52 -7 -83 58 -2 5 4 6 13 3 9 -4 54
-10 99 -13z m337 -45 c25 -6 64 -10 87 -11 29 0 46 -5 52 -16 11 -19 24 -15
-284 -101 -330 -92 -485 -124 -378 -77 79 34 88 42 107 82 l19 41 76 6 c81 6
229 50 246 73 12 17 16 17 75 3z m-1747 -8 c23 -5 94 -18 157 -27 99 -15 121
-22 161 -51 26 -18 51 -33 57 -33 5 0 21 -15 35 -33 13 -18 51 -46 83 -62 53
-27 69 -30 161 -31 84 -2 108 -5 136 -23 18 -11 58 -27 87 -34 76 -20 47 -31
-75 -29 -251 5 -480 35 -711 93 -40 10 -44 15 -102 125 -64 121 -64 121 11
105z m1997 -11 c0 -13 -11 -13 -30 0 -12 8 -11 10 8 10 12 0 22 -4 22 -10z
m329 -66 c18 -22 22 -35 17 -62 -12 -77 -7 -74 -406 -201 -107 -34 -241 -78
-298 -97 -127 -42 -133 -42 -126 -6 9 46 -14 109 -55 152 -40 42 -41 50 -6 50
12 0 48 9 81 21 32 11 82 26 109 34 28 7 106 30 175 50 69 21 163 49 210 62
47 13 105 30 130 37 58 17 134 -1 169 -40z m2231 -22 c0 -41 -34 -220 -43
-229 -7 -6 -73 -37 -148 -67 -75 -30 -157 -64 -181 -76 -35 -16 -51 -19 -70
-11 l-26 10 23 93 c12 51 26 111 31 133 9 39 10 40 59 46 28 4 115 29 195 57
158 55 160 56 160 44z m215 -266 c234 -73 206 -50 310 -251 49 -95 88 -175 85
-178 -16 -13 -283 -160 -298 -164 -15 -3 -29 21 -82 137 -38 84 -73 148 -85
156 -32 21 -281 123 -332 135 -68 18 -66 19 112 90 99 40 102 42 115 90 6 22
14 38 18 36 4 -3 75 -25 157 -51z m-4575 30 c251 -49 386 -65 528 -66 61 0
112 -2 112 -5 0 -2 -12 -29 -27 -59 -24 -50 -29 -55 -68 -61 -92 -13 -451 38
-526 76 -19 9 -48 37 -64 61 -16 24 -33 49 -38 56 -12 15 -9 15 83 -2z m1920
-49 c0 -16 -88 -254 -110 -297 -64 -125 -124 -158 -535 -290 -104 -33 -218
-72 -252 -85 -35 -13 -63 -19 -63 -14 0 5 11 31 24 57 13 26 47 117 76 202 29
85 56 162 61 172 8 16 33 25 219 82 192 58 506 158 525 166 20 9 55 13 55 7z
m1120 -132 c30 -8 67 -15 83 -15 34 0 34 -6 0 -74 l-26 -54 -138 -46 c-76 -25
-140 -46 -143 -46 -2 0 15 33 37 73 23 40 53 96 66 125 28 59 34 60 121 37z
m-141 -322 c-39 -66 -202 -303 -211 -309 -6 -4 -139 50 -176 72 -1 1 20 39 48
84 27 46 50 89 50 95 0 7 36 19 83 29 45 10 109 28 142 41 85 33 91 32 64 -12z
m-1546 -255 c8 -29 20 -75 27 -101 7 -27 18 -51 24 -53 6 -2 65 -10 131 -18
164 -18 179 -11 164 82 -3 20 3 26 44 42 l48 18 10 -24 c26 -71 -7 -168 -74
-212 -39 -26 -46 -27 -155 -25 -146 2 -363 21 -467 39 -148 26 -162 21 -172
-66 l-6 -52 -41 6 c-23 3 -93 11 -156 17 -63 6 -116 12 -118 14 -2 1 14 53 34
114 l37 111 36 0 c20 0 120 -7 221 -16 102 -9 221 -17 265 -18 l80 -1 -1 45
c0 25 -4 64 -8 86 -8 40 -7 42 20 52 16 6 32 11 36 11 4 1 13 -23 21 -51z
m-2247 -20 c5 -6 -20 -111 -48 -196 -30 -89 -24 -93 134 -103 274 -18 758 -53
1047 -77 60 -5 98 -4 107 3 13 9 71 159 96 248 l10 37 68 0 68 0 -29 -87 c-15
-49 -36 -112 -45 -141 -16 -46 -16 -54 -3 -67 25 -26 434 -58 465 -37 18 12
34 49 34 81 0 37 5 40 58 29 38 -8 42 -12 42 -39 0 -41 -32 -100 -76 -138 -81
-72 -61 -72 -1169 25 -159 14 -348 30 -420 35 -71 5 -254 20 -405 33 -151 14
-349 30 -440 36 -91 7 -168 14 -172 16 -4 3 3 27 14 55 l22 51 40 -5 c23 -3
128 -11 235 -18 l194 -13 18 23 c11 13 19 33 19 45 0 11 10 65 22 119 l22 99
44 -5 c24 -2 45 -7 48 -9z m2088 -4 c15 -40 10 -43 -89 -41 -52 1 -95 5 -95
10 0 4 8 7 18 8 9 0 42 9 72 19 69 23 86 24 94 4z m-1669 -19 c149 -8 356 -19
460 -25 395 -22 387 -22 380 -39 -4 -9 -20 -58 -37 -108 l-30 -93 -36 0 c-20
0 -86 4 -147 9 -60 5 -146 12 -190 15 -89 6 -590 43 -702 52 -40 3 -73 9 -73
12 0 4 9 36 20 72 11 36 20 77 20 91 0 33 7 39 39 34 14 -3 148 -11 296 -20z"/>
<path d="M4865 8161 c-11 -5 -29 -18 -39 -30 -17 -19 -18 -23 -5 -36 12 -13
24 -13 72 -3 44 9 64 9 90 0 61 -22 88 -11 67 28 -23 42 -125 65 -185 41z"/>
<path d="M4322 8127 c-34 -10 -92 -60 -92 -78 0 -21 33 -20 81 1 43 18 62 20
110 15 58 -7 59 -7 59 19 0 47 -78 69 -158 43z"/>
<path d="M4360 7872 c-54 -29 -75 -108 -46 -175 19 -45 47 -67 89 -69 82 -3
127 44 127 131 0 44 -5 56 -32 86 -42 45 -88 54 -138 27z"/>
<path d="M8007 7318 c-26 -20 -37 -64 -37 -146 0 -90 14 -126 52 -130 50 -6
78 47 78 147 0 107 -43 166 -93 129z"/>
<path d="M1938 8754 c-51 -15 -131 -72 -172 -120 -29 -35 -65 -110 -66 -135 0
-12 -13 -19 -43 -23 -65 -10 -158 -58 -196 -101 -19 -22 -45 -63 -59 -93 -60
-133 16 -220 214 -243 148 -17 663 5 794 34 49 11 55 15 55 37 0 24 -2 25 -65
25 -36 -1 -177 -7 -315 -14 -507 -28 -663 2 -615 118 40 97 120 153 220 155
52 1 55 3 63 31 31 101 42 123 96 175 113 112 274 122 367 25 36 -37 45 -55
60 -122 23 -102 30 -110 88 -93 25 7 59 10 76 6 16 -3 43 -9 60 -12 35 -7 49
14 32 50 -12 28 -94 52 -140 41 -28 -6 -30 -4 -41 41 -24 95 -85 173 -166 210
-59 28 -171 32 -247 8z"/>
<path d="M6075 8678 c-7 -18 -16 -54 -20 -80 -8 -56 -21 -69 -100 -97 -127
-47 -126 -85 3 -127 61 -19 75 -37 91 -114 27 -128 75 -132 101 -8 7 35 17 71
22 80 5 10 42 33 82 52 40 18 76 38 80 44 11 18 -4 40 -37 52 -121 45 -127 51
-147 145 -19 92 -49 113 -75 53z m82 -261 c-15 -9 -34 -31 -41 -47 l-12 -30
-17 36 c-11 22 -29 40 -47 47 -39 15 -38 20 6 36 19 7 40 23 46 36 10 22 10
22 52 -19 l41 -41 -28 -18z"/>
<path d="M1670 7562 c-5 -22 -14 -63 -20 -92 -13 -68 -30 -87 -99 -106 -151
-44 -150 -85 2 -129 67 -19 79 -36 96 -139 15 -83 25 -106 51 -106 20 0 31 27
50 125 17 85 29 100 104 125 133 44 138 80 15 117 -82 25 -103 44 -113 100
-17 93 -36 143 -56 143 -14 0 -22 -11 -30 -38z m86 -229 c16 -11 38 -23 49
-27 17 -6 13 -10 -23 -26 -33 -15 -47 -29 -61 -61 l-19 -42 -15 34 c-17 41
-35 57 -84 74 l-37 13 39 16 c48 20 74 43 87 76 l10 25 13 -31 c7 -17 26 -40
41 -51z"/>
<path d="M1371 5098 c-52 -15 -132 -70 -179 -123 -43 -49 -51 -72 -31 -92 9
-9 30 5 84 52 85 74 113 90 176 99 130 19 230 -48 245 -165 8 -63 23 -75 73
-60 53 15 103 14 151 -5 45 -18 70 -13 70 14 0 56 -119 101 -193 73 -22 -8
-24 -6 -36 37 -33 125 -216 212 -360 170z"/>
<path d="M6994 4605 c-133 -29 -241 -111 -300 -226 l-24 -49 -59 6 c-179 19
-374 -147 -375 -318 -1 -103 48 -141 199 -159 91 -10 691 -6 780 6 17 2 100 6
185 10 170 7 206 17 242 68 75 105 -15 263 -157 275 l-55 4 0 42 c0 107 -60
232 -135 283 -82 57 -202 80 -301 58z m211 -96 c60 -32 90 -65 121 -132 24
-53 28 -74 27 -144 -2 -96 5 -105 72 -90 38 9 50 7 92 -14 62 -31 92 -83 71
-126 -7 -15 -24 -33 -38 -39 -53 -25 -973 -44 -1129 -24 -91 12 -111 28 -111
85 0 33 9 56 40 101 74 111 177 153 295 122 58 -16 73 -7 93 56 22 69 109 161
187 198 52 24 72 28 150 28 72 0 98 -4 130 -21z"/>
<path d="M2085 4241 c-59 -10 -144 -56 -193 -104 -51 -50 -84 -103 -107 -173
l-16 -51 -72 -5 c-77 -5 -130 -26 -187 -75 -95 -79 -117 -164 -57 -220 46 -43
60 -49 171 -63 103 -14 549 -9 937 9 182 9 241 23 292 69 59 53 75 173 36 257
-59 126 -232 190 -351 130 -40 -19 -48 -19 -48 2 0 26 -65 115 -110 152 -22
18 -60 41 -83 51 -49 22 -153 32 -212 21z m161 -86 c27 -8 68 -30 91 -50 46
-39 93 -124 93 -166 0 -27 22 -59 40 -59 5 0 24 13 42 29 50 43 71 51 133 51
107 0 182 -63 192 -162 6 -64 -13 -110 -55 -131 -50 -26 -235 -38 -687 -44
-475 -6 -545 -2 -580 37 -23 25 -14 60 26 100 60 59 145 85 225 68 57 -12 69
-3 78 60 25 189 223 320 402 267z"/>
<path d="M8470 4134 c-6 -14 -17 -60 -26 -102 -9 -43 -20 -82 -26 -89 -5 -7
-48 -26 -94 -44 -46 -17 -89 -37 -95 -45 -20 -24 7 -50 78 -74 109 -36 116
-44 137 -151 17 -92 30 -129 44 -129 23 1 36 28 53 111 11 51 26 103 34 115 9
14 40 31 82 44 85 28 113 45 113 70 0 22 -31 41 -107 63 -95 29 -99 34 -124
167 -6 36 -16 71 -22 78 -16 20 -37 14 -47 -14z m106 -278 l41 -20 -41 -20
c-26 -13 -49 -36 -63 -61 -13 -22 -23 -33 -23 -24 0 26 -41 70 -81 88 l-38 17
45 23 c35 16 50 31 62 61 l17 39 20 -41 c14 -30 32 -48 61 -62z"/>
<path d="M5620 4063 c-22 -11 -63 -17 -110 -18 -134 -1 -232 -67 -264 -176 -9
-29 -16 -58 -16 -65 0 -6 -21 -14 -49 -18 -121 -16 -203 -149 -161 -260 l10
-26 -89 0 c-117 0 -121 -4 -121 -134 0 -90 2 -99 25 -121 13 -14 30 -26 37
-27 7 -1 -75 -4 -182 -7 -162 -5 -201 -9 -222 -23 -15 -10 -62 -62 -105 -117
-43 -55 -81 -100 -86 -100 -12 -1 -100 117 -128 172 l-27 51 52 26 c90 45 89
88 -9 200 -36 41 -91 115 -121 163 -51 81 -172 314 -194 372 -7 18 -17 25 -37
25 -26 0 -34 -11 -92 -123 -117 -223 -214 -368 -327 -488 -35 -38 -64 -71 -64
-74 0 -3 7 -20 16 -36 16 -32 81 -68 122 -69 22 0 21 -3 -19 -61 -23 -34 -81
-104 -130 -155 -51 -53 -89 -101 -89 -113 0 -29 46 -78 85 -91 l34 -11 -30
-50 c-33 -56 -137 -189 -148 -189 -19 0 -142 173 -130 184 2 2 19 11 37 20 37
19 57 58 43 84 -5 9 -32 46 -61 82 -77 96 -172 243 -233 361 -80 156 -91 153
-220 -57 -90 -147 -172 -260 -243 -336 -30 -31 -54 -63 -54 -71 0 -25 49 -75
86 -89 22 -8 33 -17 29 -26 -16 -41 -91 -138 -168 -215 -60 -61 -87 -96 -87
-112 0 -30 50 -72 95 -81 19 -3 35 -8 35 -11 0 -2 -21 -32 -47 -66 -25 -34
-47 -63 -48 -65 -1 -1 -22 7 -46 17 -79 35 -170 46 -257 32 -95 -16 -163 -51
-214 -113 -36 -42 -43 -46 -73 -41 -18 3 -59 -2 -91 -12 -74 -21 -124 -58
-124 -91 0 -30 17 -31 71 -3 51 25 128 35 168 21 27 -9 34 -8 46 6 80 94 100
111 156 137 55 25 70 27 143 23 44 -3 100 -13 124 -23 l42 -17 -40 -48 c-42
-50 -51 -84 -24 -94 9 -4 30 2 46 12 34 22 163 180 211 258 31 50 35 53 103
71 l71 19 37 -32 c61 -53 165 -55 235 -5 l31 22 54 -26 c42 -20 65 -25 107
-23 50 3 54 5 54 28 0 20 -6 25 -38 32 -45 9 -128 50 -146 72 -21 25 -40 19
-81 -23 -67 -69 -153 -64 -191 10 -22 44 -34 47 -87 20 -48 -24 -110 -34 -165
-26 -76 12 -76 17 -1 92 70 68 133 153 172 229 15 29 31 45 54 53 30 11 34 10
51 -14 54 -74 168 -79 245 -12 33 30 40 32 72 24 28 -7 42 -20 65 -60 17 -28
54 -84 83 -125 37 -53 50 -78 43 -85 -32 -32 11 -93 84 -117 l35 -11 -17 -32
c-25 -50 -126 -196 -180 -261 -38 -47 -58 -62 -100 -75 -28 -10 -70 -29 -92
-44 l-40 -27 -47 32 c-91 61 -277 86 -384 51 -55 -18 -144 -89 -169 -136 -12
-23 -19 -25 -105 -29 -75 -3 -103 -9 -149 -32 -62 -30 -85 -57 -64 -75 10 -7
33 -3 88 16 66 23 83 25 164 19 l90 -6 24 46 c31 57 93 111 145 125 23 7 83 9
137 7 103 -5 148 -22 212 -82 36 -33 50 -33 106 3 106 69 133 75 291 75 134 0
151 -2 220 -28 41 -15 109 -46 152 -68 43 -24 83 -38 92 -35 25 10 19 43 -14
71 -36 30 -31 49 23 89 90 67 236 61 328 -12 21 -17 43 -31 49 -31 5 0 35 14
65 31 l55 31 0 -69 0 -69 -69 -22 c-76 -25 -178 -93 -199 -133 -12 -23 -20
-25 -75 -26 -67 0 -152 -30 -182 -63 -34 -38 10 -53 67 -24 25 13 50 15 115
11 l83 -5 34 48 c78 108 273 167 466 140 80 -11 165 -48 201 -87 l23 -23 -27
-28 c-49 -51 -22 -93 37 -57 102 61 222 95 339 95 62 0 184 -25 202 -41 17
-17 63 -10 70 10 3 11 27 33 53 49 127 81 284 97 431 43 79 -29 182 -86 180
-100 0 -3 -21 -19 -47 -36 -46 -30 -65 -66 -44 -87 5 -5 46 9 105 38 93 45 98
46 194 47 88 1 103 -2 150 -26 58 -30 88 -34 96 -13 6 14 -19 47 -50 65 -16
10 -15 13 12 37 124 105 330 134 490 69 52 -22 84 -43 127 -87 32 -32 63 -58
70 -58 6 0 32 10 56 21 57 28 153 28 241 0 78 -26 88 -26 100 -3 12 23 5 34
-39 58 -19 10 -37 20 -39 22 -9 5 35 34 99 65 65 32 65 32 225 32 l160 0 75
-35 c41 -19 101 -50 133 -68 47 -28 60 -32 72 -22 26 22 13 53 -33 79 -15 9
-15 12 8 36 14 15 61 44 105 65 64 32 96 40 160 46 102 8 190 -7 272 -46 77
-36 79 -36 93 -10 9 17 6 24 -16 45 -68 63 -213 102 -342 91 l-77 -6 -32 52
-31 52 64 16 c132 34 135 66 16 203 -83 95 -142 173 -142 188 0 3 18 11 39 18
45 13 81 52 81 86 0 14 -30 58 -76 111 -42 49 -96 123 -120 164 l-44 75 37 12
c45 16 83 55 83 87 0 25 -30 74 -90 146 -64 77 -158 229 -231 373 -68 134 -70
137 -103 137 -41 0 -49 -10 -116 -135 -55 -104 -150 -263 -182 -304 -10 -13
-18 -37 -18 -53 0 -26 3 -29 27 -26 21 2 40 22 92 99 37 53 93 146 126 207 33
61 62 111 65 111 3 0 31 -53 62 -117 59 -123 149 -264 236 -372 52 -64 52 -64
30 -77 -31 -17 -123 -16 -156 1 -15 8 -36 23 -46 35 -25 28 -37 27 -71 -9 -56
-59 -120 -58 -182 2 -28 27 -34 29 -48 18 -51 -42 30 -130 127 -137 43 -4 62
0 99 20 40 22 50 23 66 12 10 -7 38 -19 61 -26 38 -11 48 -20 84 -83 54 -93
102 -159 161 -223 47 -50 48 -52 27 -63 -66 -35 -169 -19 -254 39 -41 28 -46
30 -60 15 -30 -29 -38 -54 -25 -70 7 -8 18 -13 26 -10 7 3 29 -6 49 -19 36
-24 93 -45 125 -45 9 0 39 -36 69 -81 29 -45 84 -115 122 -155 80 -84 78 -90
-28 -81 -47 3 -75 12 -104 31 -22 14 -44 26 -50 26 -6 0 -28 -18 -49 -40 -31
-33 -45 -40 -75 -40 -43 0 -81 18 -115 54 -31 32 -53 33 -95 1 -39 -30 -98
-55 -128 -55 l-23 0 3 154 3 154 56 4 c46 4 61 10 80 32 47 55 53 45 -306 531
-160 217 -204 264 -261 276 -28 7 -118 8 -241 4 l-196 -7 -34 57 c-19 31 -46
71 -61 89 l-26 31 -104 -3 c-192 -5 -349 -20 -372 -36 -22 -14 -52 -54 -235
-314 -61 -87 -75 -101 -88 -91 -8 7 -61 74 -117 149 -103 137 -103 137 -84
160 26 33 27 199 0 223 -10 10 -24 17 -30 17 -7 0 -12 5 -12 10 0 6 6 10 14
10 25 0 76 51 102 101 l24 49 54 0 c74 0 153 41 183 96 35 61 49 136 34 184
-33 111 -167 172 -271 123z m134 -67 c76 -32 98 -112 51 -191 -38 -66 -65 -79
-151 -72 -61 4 -75 3 -88 -12 -9 -10 -16 -25 -16 -35 0 -29 -28 -74 -63 -100
-27 -21 -45 -26 -88 -25 -30 0 -63 4 -74 8 -27 11 -49 -2 -74 -44 -20 -34 -22
-35 -80 -35 -51 0 -62 3 -75 22 -24 34 -21 119 5 152 31 40 92 67 141 64 l43
-3 6 50 c16 129 108 204 231 190 51 -5 62 -3 95 20 42 28 87 32 137 11z
m-1888 -238 c79 -158 149 -270 228 -362 42 -48 76 -91 76 -96 0 -12 -52 -31
-101 -37 -37 -4 -57 -1 -89 16 -22 11 -45 21 -50 21 -6 0 -30 -20 -53 -45 -38
-39 -49 -45 -86 -45 -52 0 -99 23 -111 56 -14 36 -34 39 -92 14 -39 -17 -61
-20 -94 -15 -24 3 -46 10 -49 16 -4 5 21 40 55 77 33 37 87 105 119 152 56 82
191 317 191 332 0 21 13 1 56 -84z m1484 -264 c0 -2 -9 -4 -21 -4 -11 0 -18 4
-14 10 5 8 35 3 35 -6z m-258 -84 l38 0 0 -55 0 -55 -115 0 -115 0 0 61 0 62
77 -7 c42 -3 93 -6 115 -6z m382 1 c3 -4 3 -30 0 -57 l-6 -49 -147 0 -146 0
-3 54 c-2 41 0 52 10 49 11 -4 112 0 265 10 12 1 24 -2 27 -7z m1047 -159 c15
-26 41 -66 57 -89 l31 -41 233 5 233 5 31 -33 c72 -78 482 -635 473 -643 -8
-8 -458 -26 -645 -26 l-199 0 -16 28 c-35 57 -462 673 -528 761 -23 30 -39 56
-37 58 5 6 189 20 271 21 l70 2 26 -48z m-3630 -247 c36 -55 86 -126 112 -157
44 -54 45 -58 28 -68 -28 -14 -76 -12 -118 5 -49 20 -51 20 -75 -20 -22 -39
-63 -65 -101 -65 -30 0 -75 35 -88 67 -12 32 -36 39 -69 19 -38 -22 -108 -30
-143 -17 l-29 11 34 40 c96 116 170 220 232 324 l69 116 42 -77 c23 -43 71
-123 106 -178z m3272 137 c68 -102 129 -191 257 -372 100 -141 249 -366 249
-375 0 -8 -66 -62 -90 -73 -6 -3 -44 48 -354 481 -84 118 -137 183 -150 185
-15 2 -43 -27 -115 -120 -183 -238 -373 -478 -379 -477 -3 0 -21 20 -38 45
l-33 44 153 211 c83 116 184 255 222 309 167 234 186 260 193 260 4 0 42 -53
85 -118z m-1033 -93 l0 -171 -70 62 c-39 34 -72 72 -74 84 -3 11 -7 60 -10
109 l-6 87 80 0 80 0 0 -171z m250 116 l0 -55 -47 0 c-27 0 -72 -3 -100 -6
l-53 -7 0 62 0 61 100 0 100 0 0 -55z m-1741 26 c16 -29 91 -61 145 -61 51 0
96 18 136 55 25 23 26 23 79 7 50 -16 55 -20 83 -77 17 -33 57 -94 89 -137
l58 -76 -96 -124 c-53 -67 -128 -161 -165 -207 -37 -46 -68 -92 -68 -103 0
-39 93 -102 168 -114 l39 -6 7 -97 c3 -53 6 -131 6 -174 l0 -77 -54 -24 -53
-24 -74 37 c-69 34 -79 36 -168 36 -114 0 -159 -19 -233 -97 l-47 -49 -40 21
c-59 30 -196 60 -275 60 l-68 0 30 34 c42 48 81 107 141 211 48 85 53 90 96
100 42 11 46 10 70 -15 28 -29 83 -50 132 -50 38 0 118 27 133 45 10 11 20 8
60 -21 69 -49 158 -59 174 -19 4 11 -11 23 -57 44 -34 16 -80 47 -102 70 -21
22 -43 41 -48 41 -5 0 -27 -15 -48 -34 -45 -41 -95 -57 -144 -46 -43 10 -65
27 -65 50 0 10 -7 23 -15 30 -13 11 -22 10 -51 -3 -44 -22 -172 -23 -199 -3
-19 13 -18 16 21 57 61 67 125 154 169 232 37 64 44 71 86 84 46 13 47 12 77
-16 39 -36 108 -56 164 -47 49 8 120 47 141 77 15 20 15 20 53 -6 49 -33 84
-42 95 -24 17 27 9 45 -29 66 -20 12 -48 33 -61 47 -14 14 -31 26 -40 26 -8 0
-39 -23 -68 -52 -49 -49 -56 -52 -112 -56 -56 -4 -62 -2 -88 26 -15 16 -35 40
-44 52 l-15 23 -47 -28 c-41 -24 -56 -27 -108 -23 -92 7 -93 16 -13 100 38 40
93 109 121 153 52 81 89 125 104 125 5 0 13 -9 18 -19z m1936 -186 c52 -68 98
-131 101 -139 3 -8 -46 -86 -121 -190 -129 -179 -132 -186 -110 -238 7 -17 -3
-18 -121 -19 -71 -1 -149 -3 -174 -5 -45 -3 -45 -3 -82 54 -38 58 -89 126
-333 442 -77 100 -146 190 -154 201 -13 18 -9 19 152 19 l165 0 7 -72 7 -73
98 -99 99 -99 88 7 c202 15 226 19 244 37 17 17 19 36 19 165 0 90 4 143 10
139 5 -3 52 -62 105 -130z m-983 -13 c43 -59 123 -165 179 -237 152 -195 259
-337 259 -344 0 -3 -21 -19 -46 -35 -38 -24 -47 -27 -58 -15 -7 8 -102 126
-210 262 -109 137 -204 251 -212 254 -9 3 -28 -7 -46 -23 -29 -28 -153 -188
-276 -356 -34 -46 -64 -78 -75 -78 -21 0 -75 22 -100 42 -18 13 -17 17 21 64
22 27 85 104 139 170 54 67 149 185 212 263 63 78 119 141 125 141 6 0 46 -49
88 -108z m798 -21 c0 -42 -5 -73 -11 -77 -7 -4 -54 -9 -105 -12 l-94 -5 0 82
0 81 105 0 105 0 0 -69z m923 -424 c68 -94 144 -201 170 -236 l47 -63 0 -229
c0 -175 -3 -231 -12 -234 -7 -2 -44 -13 -83 -25 -76 -24 -185 -83 -232 -127
-29 -27 -33 -28 -141 -28 -62 0 -112 3 -112 7 0 16 -125 98 -182 118 l-63 23
3 306 c1 168 2 318 2 333 0 19 36 73 133 195 73 92 154 196 181 231 l48 63 59
-81 c32 -44 114 -158 182 -253z m-1682 57 c74 -92 159 -198 189 -237 l55 -70
-4 -301 c-2 -199 -7 -303 -14 -308 -6 -3 -29 -9 -51 -12 -23 -4 -68 -14 -100
-24 l-60 -18 -37 41 c-69 75 -208 124 -351 125 l-68 0 0 288 0 288 148 197
c81 108 150 197 153 197 4 0 67 -75 140 -166z m2787 -530 l-3 -296 -54 -20
c-34 -13 -71 -38 -100 -67 l-46 -46 -75 -1 c-55 -1 -86 -6 -116 -22 l-41 -21
-48 49 c-76 78 -216 140 -312 140 l-33 0 0 230 0 230 63 49 62 50 215 2 c178
1 392 9 473 17 16 2 17 -16 15 -294z m-1829 231 l31 7 0 -266 0 -266 -96 0
c-136 0 -282 -48 -342 -113 -22 -23 -25 -24 -64 -10 -22 8 -76 19 -119 25 -65
9 -77 14 -74 29 2 9 5 139 6 288 l2 272 56 32 56 32 230 5 230 5 27 -23 c21
-19 33 -23 57 -17z m2126 -275 c15 -25 86 -50 140 -50 59 0 85 9 122 43 34 31
74 9 114 -62 17 -31 38 -63 45 -72 13 -14 8 -20 -43 -52 -32 -19 -80 -54 -106
-77 l-47 -42 -32 20 c-75 45 -167 66 -285 67 l-113 0 0 88 0 87 34 0 c18 0 58
13 87 29 59 32 75 36 84 21z"/>
<path d="M5894 2413 c-15 -16 -16 -39 -12 -237 5 -197 8 -221 24 -233 28 -20
377 -19 394 2 10 12 12 67 8 230 -4 190 -7 217 -23 235 -17 19 -30 20 -196 20
-154 0 -180 -2 -195 -17z m176 -123 l0 -70 -55 0 -55 0 0 70 0 70 55 0 55 0 0
-70z m160 -5 l0 -75 -45 0 -45 0 0 75 0 75 45 0 45 0 0 -75z m-160 -200 l0
-75 -32 0 c-72 0 -78 6 -78 74 0 35 3 66 7 69 3 4 28 7 55 7 l48 0 0 -75z
m164 38 c3 -21 6 -55 6 -75 l0 -38 -50 0 -50 0 0 75 0 75 44 0 c42 0 44 -1 50
-37z"/>
<path d="M4331 2371 c-20 -20 -21 -31 -21 -226 0 -187 2 -207 19 -224 16 -16
42 -19 186 -26 134 -5 170 -4 181 7 10 10 13 67 15 231 2 182 0 220 -12 232
-12 12 -53 17 -181 21 -159 6 -167 5 -187 -15z m149 -126 l0 -75 -45 0 -45 0
0 75 0 75 45 0 45 0 0 -75z m160 -4 c0 -39 -4 -72 -8 -75 -5 -3 -25 -3 -45 1
l-37 6 0 68 0 69 45 0 45 0 0 -69z m-160 -202 c0 -61 -2 -70 -16 -65 -9 3 -29
6 -45 6 l-29 0 0 65 0 65 45 0 45 0 0 -71z m133 62 c14 -1 17 -11 17 -66 l0
-65 -40 0 -40 0 0 70 c0 67 1 70 23 66 12 -3 30 -5 40 -5z"/>
<path d="M7025 2234 c-11 -2 -59 -6 -108 -9 -56 -5 -93 -12 -102 -22 -12 -12
-15 -51 -15 -209 0 -116 4 -203 10 -215 10 -18 23 -19 196 -19 109 0 193 4
205 10 18 10 19 23 19 225 0 256 5 246 -108 244 -42 -1 -86 -3 -97 -5z m135
-144 l0 -70 -50 0 -50 0 0 70 0 70 50 0 50 0 0 -70z m-170 -4 c0 -63 0 -64
-31 -70 -77 -15 -79 -13 -79 64 l0 70 55 0 55 0 0 -64z m170 -186 l0 -60 -44
0 -44 0 -4 56 c-1 31 -1 58 1 60 2 2 24 4 48 4 l43 0 0 -60z m-162 -7 l-3 -58
-57 -3 -58 -3 0 55 c0 61 2 63 78 65 l43 1 -3 -57z"/>
<path d="M5112 2208 c-8 -8 -12 -57 -12 -153 0 -176 -1 -175 121 -174 123 0
219 13 230 30 16 23 6 289 -12 300 -22 14 -313 11 -327 -3z m143 -153 l0 -90
-37 -3 -38 -3 0 96 0 96 38 -3 37 -3 0 -90z m125 0 l0 -85 -30 0 -30 0 0 85 0
85 30 0 30 0 0 -85z"/>
<path d="M6895 3615 c-82 -44 -129 -101 -105 -130 18 -22 38 -19 75 14 18 16
56 42 84 57 39 22 51 34 49 49 -4 26 -61 32 -103 10z"/>
<path d="M1865 2851 c-62 -36 -98 -73 -93 -98 4 -23 44 -29 66 -10 28 24 84
50 136 62 92 21 86 75 -8 75 -38 0 -64 -8 -101 -29z"/>
<path d="M2760 1585 c-51 -16 -120 -69 -120 -91 0 -28 31 -26 99 5 81 37 145
40 210 10 54 -24 73 -19 69 18 -7 57 -157 91 -258 58z"/>
</g>
</svg>
