<?xml version="1.0" encoding="UTF-8" standalone="yes"?>
<svg version="1.0" xmlns="http://www.w3.org/2000/svg" width="1024.000000pt" height="1024.000000pt" viewBox="0 0 1024.000000 1024.000000" preserveAspectRatio="xMidYMid meet">
  <metadata>
Created by potrace 1.16, written by Peter Selinger 2001-2019
</metadata>
  <g transform="translate(0.000000,1024.000000) scale(0.100000,-0.100000)" fill="#000000" stroke="none">
    <path d="M7555 10021 c-37 -9 -70 -26 -114 -59 l-33 -25 -25 27 c-30 33 -62&#xA;46 -111 46 -90 -1 -167 -69 -223 -195 l-32 -74 -27 19 c-57 41 -211 111 -325&#xA;149 -186 61 -284 75 -535 76 -229 0 -297 -9 -542 -71 -359 -90 -832 -303&#xA;-1067 -480 -67 -50 -71 -52 -157 -59 -183 -15 -305 -75 -450 -219 -142 -143&#xA;-254 -332 -309 -521 -30 -104 -43 -238 -27 -283 10 -29 7 -35 -59 -114 -211&#xA;-253 -347 -497 -418 -753 l-28 -100 -104 -3 c-139 -3 -179 -9 -216 -32 -35&#xA;-21 -50 -66 -38 -119 8 -37 97 -126 198 -199 l69 -50 3 -179 c4 -230 30 -391&#xA;95 -577 24 -71 24 -66 4 -66 -20 0 -118 -92 -155 -146 -64 -93 -86 -243 -58&#xA;-398 11 -61 11 -61 -25 -120 -55 -92 -70 -147 -70 -261 0 -86 4 -109 27 -165&#xA;l27 -65 -29 -29 -29 -29 -78 48 c-170 107 -415 333 -582 539 l-96 119 22 106&#xA;c11 58 41 207 66 329 51 248 57 337 28 391 -23 43 -77 74 -115 67 -76 -15&#xA;-116 -75 -170 -258 -19 -62 -52 -170 -73 -240 -21 -71 -41 -128 -44 -128 -15&#xA;0 -101 205 -158 376 -93 281 -160 396 -249 436 -53 23 -112 12 -138 -28 -33&#xA;-51 -16 -192 54 -444 17 -57 29 -105 28 -106 -5 -4 -242 201 -323 278 -80 77&#xA;-95 88 -127 88 -27 0 -41 -7 -62 -32 -24 -28 -26 -38 -21 -77 13 -95 134 -270&#xA;306 -442 58 -58 134 -127 170 -154 l65 -48 -85 7 c-268 23 -314 24 -350 7 -64&#xA;-30 -71 -121 -13 -168 99 -80 300 -131 621 -157 122 -10 179 -19 197 -30 13&#xA;-9 84 -82 157 -163 277 -308 537 -558 676 -651 38 -26 51 -40 46 -51 -119&#xA;-288 -145 -565 -74 -800 l17 -56 -79 -83 c-331 -352 -511 -792 -524 -1282 -11&#xA;-414 119 -803 385 -1156 l31 -41 -83 -6 c-100 -8 -254 -45 -361 -87 -300 -117&#xA;-428 -260 -357 -399 41 -79 202 -151 411 -181 41 -6 85 -13 98 -15 80 -13 324&#xA;-16 444 -6 167 15 192 21 196 48 6 37 -42 45 -333 58 -352 16 -625 76 -697&#xA;152 l-23 25 58 54 c76 70 225 144 377 185 95 25 141 32 262 36 l146 6 44 -41&#xA;c188 -174 461 -332 803 -462 331 -126 776 -219 1210 -255 39 -3 90 -8 115 -11&#xA;25 -2 146 -7 270 -11 1193 -31 2168 304 2688 926 l36 43 87 -5 c180 -12 388&#xA;-71 526 -149 68 -38 163 -125 163 -148 0 -29 -62 -70 -154 -101 -103 -34 -202&#xA;-53 -414 -79 -90 -11 -173 -25 -183 -31 -24 -12 -25 -45 -1 -54 33 -13 268&#xA;-17 370 -6 275 30 429 91 480 191 60 119 -10 236 -208 348 -125 71 -357 143&#xA;-502 158 -38 4 -68 8 -68 10 0 2 13 25 29 51 56 92 160 319 195 428 70 218&#xA;103 456 91 665 -25 451 -191 840 -493 1151 -53 55 -62 70 -54 85 38 72 60 333&#xA;38 460 l-8 51 143 88 c201 123 422 274 642 438 l189 140 111 -32 c173 -49 251&#xA;-62 395 -68 216 -9 312 30 312 127 0 63 -28 78 -240 130 l-183 45 39 14 c55&#xA;21 345 169 433 222 170 102 221 181 175 270 -16 32 -66 59 -108 59 -34 0 -164&#xA;-47 -330 -119 -77 -34 -141 -60 -142 -58 -2 1 14 32 35 67 75 129 152 284 162&#xA;326 22 84 -33 164 -112 164 -87 0 -161 -66 -268 -241 -99 -161 -138 -221 -182&#xA;-280 l-41 -54 6 80 c12 145 15 337 6 391 -12 74 -36 120 -75 144 -67 41 -147&#xA;14 -185 -64 -31 -66 -47 -165 -75 -470 -36 -396 -17 -343 -159 -449 -202 -150&#xA;-388 -269 -617 -395 l-77 -42 -67 95 c-38 53 -82 108 -100 124 l-32 28 34 54&#xA;c18 30 45 91 59 136 46 147 23 280 -67 392 -35 45 -35 45 -4 211 13 69 14 97&#xA;5 150 -13 77 -51 150 -98 191 l-34 30 40 92 c41 93 90 240 111 333 l12 51 51&#xA;6 c247 30 524 590 478 967 -6 50 -18 111 -26 137 -15 42 -14 51 5 127 33 131&#xA;50 236 62 383 11 128 7 328 -7 398 l-5 30 103 0 c92 0 108 3 154 27 90 47 132&#xA;122 121 216 -4 41 -3 44 33 62 21 11 56 40 79 66 100 114 92 284 -20 396 -27&#xA;27 -43 50 -37 54 5 4 21 30 34 58 50 107 22 232 -69 313 -59 51 -117 68 -234&#xA;67 l-93 0 -11 34 c-19 57 -87 118 -148 131 -57 12 -62 12 -106 2z m118 -161&#xA;c25 -20 31 -38 40 -121 8 -67 15 -70 110 -38 129 44 274 -9 293 -107 10 -52&#xA;-12 -97 -74 -155 -31 -30 -60 -61 -63 -69 -11 -26 9 -47 53 -58 124 -32 186&#xA;-174 113 -260 -31 -37 -65 -51 -146 -60 -61 -7 -64 -8 -67 -35 -3 -21 7 -41&#xA;32 -74 40 -51 43 -68 20 -101 -36 -52 -93 -62 -199 -36 l-63 16 -37 113 c-92&#xA;285 -289 580 -491 736 -53 41 -55 44 -49 78 16 87 81 181 125 181 26 0 58 -41&#xA;79 -99 10 -30 24 -57 32 -61 21 -14 48 8 70 56 44 92 161 141 222 94z m-1313&#xA;-30 c468 -60 881 -351 1094 -769 161 -316 204 -620 150 -1051 -15 -122 -22&#xA;-148 -31 -122 -19 53 -166 234 -313 386 -372 383 -874 701 -1425 900 -283 102&#xA;-656 175 -1040 204 l-100 7 70 41 c294 174 737 338 1045 388 52 9 109 17 125&#xA;19 65 8 354 6 425 -3z m-1544 -596 l82 -7 -44 -58 c-100 -131 -252 -419 -271&#xA;-510 l-5 -29 -117 0 c-109 -1 -229 -9 -348 -25 l-52 -7 20 73 c58 210 208 437&#xA;354 535 l50 34 125 0 c69 0 162 -3 206 -6z m-496 -10 c0 -3 -18 -24 -39 -47&#xA;-66 -71 -89 -102 -146 -192 -63 -101 -106 -206 -131 -322 -17 -81 -18 -83 -53&#xA;-94 -56 -18 -151 -68 -203 -106 -57 -41 -57 -40 -23 94 28 110 93 252 161 355&#xA;59 88 184 214 257 256 65 39 177 74 177 56z m995 -59 c94 -19 224 -50 290 -71&#xA;66 -20 128 -39 138 -41 15 -5 9 -14 -31 -57 -115 -122 -284 -372 -317 -469&#xA;-10 -31 -23 -57 -27 -57 -5 0 -54 14 -110 30 -124 37 -371 88 -503 105 -27 3&#xA;-62 9 -77 11 l-26 5 25 61 c68 168 193 380 283 482 l44 48 70 -6 c39 -4 148&#xA;-22 241 -41z m646 -195 c130 -52 430 -201 436 -217 5 -12 -173 -343 -279 -519&#xA;l-49 -83 -52 31 c-120 71 -344 174 -495 228 -34 13 -64 26 -66 29 -13 21 99&#xA;219 203 359 63 85 178 212 192 212 5 0 54 -18 110 -40z m686 -369 c173 -116&#xA;313 -226 313 -246 0 -26 -72 -207 -131 -334 -52 -110 -157 -282 -181 -297 -5&#xA;-3 -43 26 -86 63 -88 79 -256 209 -353 273 l-65 43 56 96 c31 53 88 152 125&#xA;221 112 206 156 280 166 280 4 0 75 -45 156 -99z m-1847 -145 c604 -103 1125&#xA;-333 1580 -699 141 -114 366 -346 471 -487 138 -185 249 -382 249 -443 0 -13&#xA;-9 -78 -21 -143 -80 -463 -243 -749 -552 -967 -113 -80 -259 -158 -370 -198&#xA;l-89 -32 -69 37 c-113 61 -211 63 -539 11 -91 -14 -208 -30 -261 -35 -149 -14&#xA;-197 -31 -268 -96 l-39 -34 -93 10 c-644 72 -1123 247 -1355 492 -200 213&#xA;-318 543 -323 905 l-2 121 101 -53 c353 -186 849 -366 1051 -382 263 -21 469&#xA;174 470 445 1 192 -116 343 -301 390 -41 11 -194 32 -228 32 -9 0 0 16 20 38&#xA;73 81 116 219 105 338 -24 255 -281 261 -398 10 -49 -104 -62 -229 -35 -321&#xA;l15 -47 -62 6 c-142 14 -351 26 -477 26 -74 0 -141 4 -149 9 -11 7 -9 25 13&#xA;102 75 263 287 584 522 794 129 114 222 155 429 188 69 11 512 -2 605 -17z&#xA;m2371 -294 c68 -70 144 -154 168 -185 l43 -57 -12 -47 c-20 -83 -80 -234 -141&#xA;-356 -74 -150 -169 -293 -183 -276 -1 2 -38 51 -82 109 -66 88 -138 176 -236&#xA;286 -19 21 -18 22 37 95 62 83 174 302 232 456 21 57 41 103 44 103 4 0 62&#xA;-58 130 -128z m359 -486 c50 -106 65 -184 57 -299 -16 -232 -144 -526 -278&#xA;-641 -23 -20 -46 -36 -51 -36 -4 0 -8 24 -8 53 0 82 -24 161 -89 291 l-59 119&#xA;48 61 c88 112 223 380 276 548 l17 57 25 -36 c14 -19 42 -72 62 -117z m-4069&#xA;-446 c6 -9 8 -53 5 -107 -2 -51 -1 -93 3 -93 16 0 43 78 48 142 l6 69 96 -6&#xA;c165 -10 158 -8 177 -72 18 -63 15 -140 -10 -211 -17 -47 -10 -53 21 -19 45&#xA;48 63 148 44 245 l-8 42 31 -4 c17 -3 95 -11 173 -17 114 -9 143 -15 149 -28&#xA;3 -9 9 -60 11 -113 6 -107 -3 -159 -44 -251 -14 -31 -23 -61 -18 -65 13 -12&#xA;83 77 107 136 19 48 22 76 23 180 l0 124 55 -7 c191 -22 274 -101 273 -260 -1&#xA;-120 -50 -219 -141 -283 -50 -34 -60 -37 -130 -38 -119 -3 -292 47 -622 178&#xA;-327 130 -562 253 -755 396 l-89 67 44 6 c25 4 157 6 293 5 208 -1 249 -3 258&#xA;-16z m-2138 -652 c43 -57 72 -127 137 -323 34 -104 77 -223 96 -264 39 -86&#xA;139 -238 165 -251 26 -15 65 -12 79 4 12 15 56 159 130 423 38 138 77 234 101&#xA;249 16 9 6 -128 -15 -211 -62 -242 -116 -507 -116 -565 0 -47 21 -79 165 -249&#xA;157 -187 337 -353 525 -486 52 -37 94 -71 93 -76 -2 -5 -19 -29 -38 -54 -19&#xA;-25 -39 -53 -44 -62 -8 -15 -11 -15 -37 2 -140 90 -387 322 -598 559 -178 201&#xA;-243 266 -282 282 -18 8 -110 18 -209 24 -189 11 -369 38 -477 70 -88 27 -98&#xA;43 -21 36 386 -38 471 -34 517 27 25 34 19 41 -96 118 -48 33 -127 92 -175&#xA;132 -115 97 -292 281 -322 337 l-25 45 75 -70 c85 -79 280 -233 344 -271 24&#xA;-14 59 -28 78 -31 30 -4 38 -1 52 20 16 25 16 30 -23 129 -90 234 -149 488&#xA;-113 488 6 0 21 -15 34 -32z m1846 -555 c7 -16 31 -56 53 -91 l41 -63 -25 -27&#xA;c-53 -56 -93 -160 -104 -268 -16 -169 -25 -209 -69 -306 -42 -90 -69 -175 -77&#xA;-238 -3 -21 -9 -13 -39 46 -66 130 -61 222 18 359 52 89 55 118 30 244 -16 78&#xA;-6 173 24 232 20 40 111 139 128 139 4 0 13 -12 20 -27z m5237 -218 c1 -77 -5&#xA;-233 -14 -347 -17 -224 -15 -238 34 -238 16 0 46 26 105 93 117 132 189 231&#xA;287 397 96 163 182 261 182 206 0 -23 -107 -233 -174 -339 -107 -172 -122&#xA;-211 -91 -237 39 -32 209 15 393 109 48 24 215 81 239 81 52 0 -93 -94 -314&#xA;-205 -147 -73 -243 -110 -372 -142 -19 -4 -43 -21 -54 -36 -21 -27 -21 -27 -1&#xA;-54 23 -30 134 -75 304 -123 58 -16 128 -35 155 -43 l50 -15 -113 -1 c-129 -1&#xA;-248 19 -408 70 -54 18 -116 34 -136 36 -53 7 -122 -28 -258 -132 -229 -174&#xA;-308 -231 -450 -324 -330 -215 -548 -335 -725 -397 -43 -15 -87 -36 -97 -46&#xA;-24 -24 -23 -63 3 -89 17 -17 28 -20 57 -14 49 9 213 70 284 106 41 21 59 25&#xA;64 17 16 -26 7 -232 -14 -311 -32 -116 -103 -247 -174 -317 -33 -33 -64 -60&#xA;-70 -60 -19 0 -223 156 -288 220 -121 120 -230 307 -304 519 -30 85 -76 246&#xA;-76 264 0 2 21 12 48 22 61 23 247 116 331 165 37 21 104 68 151 104 l85 66&#xA;40 -43 c22 -24 59 -72 83 -106 l44 -61 -94 -45 c-52 -25 -139 -61 -194 -80&#xA;-54 -20 -105 -43 -111 -52 -16 -21 -17 -65 -1 -81 67 -67 607 184 1084 505&#xA;187 125 331 238 349 273 18 35 31 97 40 195 3 39 8 77 10 85 2 8 7 58 10 110&#xA;10 169 26 314 42 375 36 146 57 117 59 -80z m-1390 73 c20 -39 17 -149 -6&#xA;-246 -11 -46 -20 -92 -20 -103 0 -27 37 -97 73 -138 48 -55 60 -96 54 -176 -8&#xA;-89 -55 -188 -130 -270 l-54 -60 -7 50 c-4 28 -28 111 -54 185 -42 122 -46&#xA;143 -45 220 0 47 4 107 7 133 8 58 -9 167 -35 226 l-19 44 63 71 c35 39 73 86&#xA;86 104 l23 33 25 -23 c14 -13 31 -35 39 -50z m-3443 -282 c54 -33 97 -61 97&#xA;-62 0 -2 -9 -27 -21 -56 -42 -107 -59 -176 -74 -301 -9 -71 -24 -152 -34 -180&#xA;-11 -29 -33 -89 -50 -133 -16 -45 -33 -105 -37 -133 l-7 -51 -92 49 c-109 57&#xA;-222 131 -256 167 -22 23 -24 35 -24 112 0 83 3 92 52 202 61 137 68 162 83&#xA;304 14 122 37 202 77 258 l26 38 82 -78 c45 -42 125 -104 178 -136z m3173&#xA;-166 l1 -195 46 -135 c79 -234 77 -261 -24 -326 -38 -24 -122 -71 -188 -103&#xA;l-118 -60 -6 227 c-7 274 -20 358 -93 602 -3 10 23 30 85 63 48 27 128 79 177&#xA;116 l89 67 15 -31 c12 -23 15 -73 16 -225z m-2891 27 c101 -40 289 -98 378&#xA;-118 46 -10 57 -16 53 -28 -59 -167 -77 -236 -91 -338 -9 -65 -29 -183 -45&#xA;-263 -16 -80 -32 -166 -36 -192 -3 -27 -11 -48 -18 -48 -54 0 -469 125 -546&#xA;165 -27 14 -27 14 -18 77 6 35 30 114 54 176 42 109 56 169 69 297 12 121 75&#xA;321 99 311 6 -2 52 -20 101 -39z m2057 -40 c20 -8 54 -33 77 -56 39 -39 101&#xA;-135 101 -157 0 -16 -220 -88 -376 -123 -126 -29 -246 -45 -390 -55 l-72 -5&#xA;-12 47 c-18 74 -68 157 -126 212 -30 28 -54 53 -54 54 0 9 39 17 128 26 54 6&#xA;165 22 247 35 302 49 401 53 477 22z m397 -29 c31 -98 65 -276 75 -393 5 -53&#xA;9 -296 6 -335 -1 -8 -21 71 -45 175 -49 213 -94 355 -149 463 -33 65 -35 73&#xA;-19 79 10 3 38 14 63 24 59 23 57 24 69 -13z m-1598 -137 c85 -11 165 -22 179&#xA;-23 23 -3 24 -6 21 -58 -1 -30 -6 -84 -11 -120 -21 -151 -30 -253 -35 -390 -3&#xA;-80 -8 -173 -11 -207 l-6 -63 -76 0 c-120 0 -564 48 -577 62 -5 6 24 204 40&#xA;271 8 37 24 131 35 208 21 147 39 231 66 295 9 21 20 49 24 60 l8 21 95 -18&#xA;c52 -9 163 -27 248 -38z m355 -116 c32 -55 51 -117 65 -210 6 -38 12 -81 14&#xA;-93 11 -67 37 -424 31 -429 -3 -4 -58 -9 -120 -11 l-114 -4 -8 58 c-7 56 14&#xA;412 38 656 l11 107 28 -15 c16 -8 40 -34 55 -59z m1088 -100 c27 -82 76 -287&#xA;76 -317 0 -34 -242 -138 -438 -188 -127 -33 -357 -70 -433 -70 l-45 0 -13 148&#xA;c-13 154 -28 291 -36 330 -5 21 -3 22 74 22 178 0 452 54 679 133 53 19 100&#xA;31 103 28 4 -3 18 -42 33 -86z m-3184 -206 c241 -226 697 -423 1195 -513 273&#xA;-50 372 -59 710 -61 l320 -3 7 -88 c35 -410 63 -596 119 -799 61 -215 119&#xA;-343 265 -582 161 -263 196 -341 231 -518 7 -32 15 -43 44 -58 35 -17 40 -17&#xA;137 2 101 20 148 37 171 65 8 10 23 13 44 9 86 -13 312 125 333 205 4 13 -1&#xA;33 -12 49 -23 36 -251 310 -264 318 -6 3 -10 11 -10 16 0 10 168 95 173 88 33&#xA;-51 192 -251 239 -301 56 -59 68 -68 99 -68 67 0 237 129 280 212 25 49 14 78&#xA;-48 121 -74 51 -268 208 -268 217 0 5 22 25 48 45 l48 37 62 -60 c118 -112&#xA;226 -167 305 -152 50 9 76 25 128 79 47 51 63 78 64 112 0 29 -20 49 -107 108&#xA;-35 23 -63 44 -63 47 0 3 23 33 52 67 28 34 64 81 79 105 l27 42 65 -69 c189&#xA;-201 328 -477 388 -769 29 -142 36 -423 15 -567 -80 -534 -366 -986 -811&#xA;-1281 -272 -181 -565 -307 -911 -392 -117 -29 -306 -66 -394 -77 -25 -3 -63&#xA;-8 -84 -11 -248 -38 -815 -45 -1150 -14 -121 11 -283 29 -360 41 -817 120&#xA;-1469 433 -1799 866 -245 320 -369 728 -338 1110 35 437 197 816 477 1115 l48&#xA;51 15 -24 c54 -82 168 -223 208 -257 115 -96 272 -179 429 -228 93 -29 129&#xA;-29 129 1 0 14 -23 32 -88 67 -268 146 -478 335 -577 520 -168 315 -116 710&#xA;143 1093 32 47 114 145 121 145 1 0 30 -27 66 -61z m3308 -316 c13 -60 39&#xA;-163 58 -230 19 -68 34 -125 34 -127 0 -7 -201 -102 -295 -139 -105 -42 -255&#xA;-83 -375 -102 -124 -20 -322 -37 -331 -28 -4 4 -15 94 -23 198 -9 105 -19 215&#xA;-22 246 l-5 56 103 7 c241 15 536 90 749 190 41 19 76 35 79 35 3 1 16 -47 28&#xA;-106z m144 -485 c33 -80 106 -217 144 -270 l34 -48 -53 -41 c-224 -179 -606&#xA;-335 -955 -389 -37 -6 -74 -13 -83 -16 -28 -8 -93 235 -134 498 l-6 36 58 7&#xA;c412 44 629 101 873 229 47 25 89 45 93 45 4 1 18 -23 29 -51z m251 -411 c14&#xA;-19 69 -69 122 -113 l96 -79 -58 -53 c-137 -125 -322 -247 -550 -360 -213&#xA;-106 -534 -226 -553 -206 -32 34 -186 313 -204 371 -6 19 -2 22 36 28 169 27&#xA;350 72 504 125 178 62 426 197 534 289 19 17 38 30 41 31 4 0 18 -15 32 -33z&#xA;m423 -333 c59 -41 118 -81 132 -88 l24 -12 -37 -33 c-30 -26 -43 -31 -64 -26&#xA;-38 9 -95 40 -183 99 l-77 51 42 42 c23 23 45 42 48 42 4 1 55 -33 115 -75z&#xA;m-382 -258 c31 -35 90 -92 132 -127 l76 -64 -47 -41 c-92 -82 -78 -86 -230 66&#xA;-74 74 -135 137 -135 140 1 6 131 88 142 89 3 1 31 -28 62 -63z m-486 -278&#xA;c34 -51 90 -126 123 -166 59 -69 61 -73 43 -87 -21 -16 -149 -85 -158 -85 -3&#xA;0 -21 32 -40 70 -35 70 -114 192 -167 261 l-28 36 77 30 c42 17 80 31 83 32 3&#xA;0 33 -41 67 -91z m-254 -98 c49 -104 81 -188 95 -252 8 -36 7 -38 -23 -47 -17&#xA;-6 -50 -13 -73 -17 -39 -6 -43 -4 -43 14 0 33 -49 172 -93 262 -23 47 -43 88&#xA;-45 92 -3 5 105 45 129 47 3 1 27 -44 53 -99z"/>
    <path d="M4190 8324 c-25 -9 -60 -27 -78 -41 -41 -31 -92 -100 -92 -125 0 -22&#xA;32 -24 54 -3 27 27 124 66 178 72 39 4 68 0 113 -16 33 -12 67 -23 75 -24 25&#xA;-3 23 33 -5 74 -47 72 -145 97 -245 63z"/>
    <path d="M5436 8090 c-33 -10 -76 -48 -76 -66 0 -13 58 -34 96 -34 93 0 203&#xA;-76 269 -185 28 -47 49 -71 64 -73 29 -5 35 17 21 85 -30 142 -114 234 -245&#xA;268 -65 17 -86 17 -129 5z"/>
    <path d="M5252 7579 c-112 -56 -202 -228 -202 -389 1 -151 64 -240 170 -240&#xA;121 0 241 130 286 310 32 128 -3 272 -79 319 -45 28 -118 28 -175 0z"/>
    <path d="M5272 6699 c-28 -14 -44 -30 -49 -47 -9 -39 19 -54 84 -46 l53 6 -16&#xA;-38 c-69 -165 -158 -283 -280 -370 -173 -124 -367 -168 -568 -130 -153 30&#xA;-292 110 -409 236 -50 55 -58 60 -77 50 -12 -6 -24 -18 -27 -26 -9 -24 43&#xA;-116 104 -184 223 -246 622 -299 946 -127 203 108 352 283 421 495 10 28 20&#xA;52 22 52 2 0 23 -13 46 -30 72 -53 112 -35 89 40 -33 112 -220 178 -339 119z"/>
    <path d="M3960 4181 c-77 -24 -156 -96 -191 -176 -43 -96 -23 -231 44 -303 29&#xA;-32 86 -60 135 -68 89 -14 211 62 261 162 33 65 40 177 16 240 -44 116 -157&#xA;178 -265 145z"/>
    <path d="M3857 3379 c-87 -13 -161 -70 -210 -163 -18 -34 -22 -57 -22 -136 0&#xA;-86 3 -99 28 -143 54 -92 158 -139 255 -116 166 40 266 215 218 382 -36 126&#xA;-142 195 -269 176z"/>
    <path d="M3690 2411 c-93 -29 -168 -99 -196 -184 -22 -66 -15 -186 13 -242&#xA;113 -217 405 -190 494 44 44 116 7 261 -83 333 -62 49 -159 70 -228 49z"/>
  </g>
  <title>Snowman Scarf</title>
  <desc>Snowman Scarf</desc>
</svg>