<?xml version="1.0" standalone="no"?>
<!DOCTYPE svg PUBLIC "-//W3C//DTD SVG 20010904//EN"
 "http://www.w3.org/TR/2001/REC-SVG-20010904/DTD/svg10.dtd">
<svg version="1.0" xmlns="http://www.w3.org/2000/svg"
 width="1024.000000pt" height="1024.000000pt" viewBox="0 0 1024.000000 1024.000000"
 preserveAspectRatio="xMidYMid meet">
<metadata>
Created by potrace 1.16, written by Peter Selinger 2001-2019
</metadata>
<g transform="translate(0.000000,1024.000000) scale(0.100000,-0.100000)"
fill="#000000" stroke="none">
<path d="M7150 9653 c-270 -51 -591 -196 -885 -398 l-91 -63 -36 78 c-78 164
-239 287 -328 250 -44 -18 -67 -53 -92 -134 -11 -39 -22 -73 -24 -75 -2 -2
-32 23 -68 56 -85 80 -234 179 -298 198 -75 22 -103 19 -140 -14 -33 -29 -33
-30 -33 -123 l0 -93 -110 73 c-180 120 -372 204 -469 205 -42 1 -52 -3 -77
-31 -33 -37 -38 -90 -15 -147 8 -19 14 -35 12 -35 -1 0 -31 11 -67 25 -80 32
-246 80 -320 94 -136 24 -208 -59 -149 -174 11 -21 19 -40 17 -41 -1 -2 -23
-8 -48 -15 l-46 -12 -116 66 c-303 174 -580 273 -799 284 -326 16 -438 -88
-543 -506 -19 -74 -65 -322 -65 -351 0 -3 -60 -5 -133 -6 -116 0 -139 -3 -191
-25 -67 -27 -95 -59 -103 -115 -6 -50 24 -97 91 -141 39 -25 44 -32 29 -37
-10 -3 -71 -19 -135 -36 -183 -47 -284 -87 -329 -130 -34 -32 -39 -43 -39 -82
0 -54 27 -94 79 -115 l35 -15 -100 -51 c-180 -94 -347 -225 -414 -324 -33 -51
-40 -114 -16 -145 24 -33 83 -50 144 -42 l56 7 -70 -60 c-96 -83 -247 -245
-307 -328 -64 -90 -117 -200 -117 -243 0 -24 9 -42 31 -64 27 -27 34 -30 72
-24 23 3 53 9 65 12 19 6 9 -14 -56 -101 -188 -253 -298 -491 -278 -598 13
-68 88 -97 156 -62 36 18 37 12 9 -35 -45 -73 -122 -236 -149 -314 -31 -89
-60 -218 -60 -266 0 -67 47 -130 96 -130 11 0 43 11 70 25 27 14 50 25 51 25
0 0 -18 -44 -42 -97 -95 -219 -160 -537 -136 -670 19 -99 83 -135 152 -84 28
21 30 21 26 5 -3 -11 -13 -55 -21 -99 -69 -357 -34 -694 78 -752 43 -22 96 -4
134 47 l29 40 6 -148 c7 -161 26 -293 56 -393 56 -179 169 -234 241 -116 l19
30 5 -24 c3 -13 13 -64 21 -114 47 -265 153 -508 248 -565 63 -39 123 -14 158
64 l18 40 17 -45 c38 -94 136 -283 186 -357 133 -197 256 -255 308 -145 8 18
17 33 20 33 3 0 16 -21 30 -47 87 -163 238 -346 344 -415 93 -60 173 -49 192
27 3 14 10 25 14 25 4 0 26 -24 49 -54 107 -138 314 -310 423 -351 71 -26 138
-1 138 52 0 21 9 16 81 -47 195 -168 429 -300 533 -300 17 0 46 9 63 20 32 19
40 36 45 97 l3 31 80 -59 c147 -108 308 -178 380 -165 20 4 43 18 56 34 17 23
20 37 17 89 -3 53 -2 60 12 53 33 -18 170 -142 221 -200 87 -99 119 -107 245
-65 95 32 196 83 302 151 45 30 84 54 86 54 2 0 2 -9 -1 -20 -3 -11 0 -34 7
-50 33 -81 159 -83 326 -5 85 39 256 150 294 190 30 32 40 32 40 -1 0 -42 50
-84 100 -84 132 0 382 142 584 331 88 83 95 88 101 67 17 -56 81 -85 146 -68
131 35 375 279 511 510 51 86 68 105 68 77 0 -24 35 -47 72 -47 55 0 123 53
200 155 66 87 163 263 208 378 l23 59 13 -30 c27 -65 100 -81 166 -35 111 76
250 397 294 681 l18 109 36 -39 c30 -31 44 -38 74 -38 79 0 131 93 166 296 25
144 33 318 23 467 -8 107 -4 141 11 102 7 -20 95 -75 118 -75 115 0 165 201
122 489 -14 97 -44 233 -61 278 -5 14 1 11 26 -10 59 -50 115 -48 155 6 17 23
22 46 24 123 6 159 -38 369 -122 577 -20 48 -36 90 -36 93 0 3 15 -6 33 -20
44 -33 96 -42 135 -22 43 22 52 44 52 123 0 136 -78 358 -191 550 -37 62 -65
113 -61 113 4 -1 18 -7 32 -15 38 -22 85 -18 117 9 24 21 28 31 26 74 -6 136
-166 417 -352 616 -29 31 -39 46 -26 41 70 -26 151 -10 175 34 46 87 -86 329
-303 557 l-87 91 41 7 c23 4 51 17 65 31 51 51 22 132 -88 250 -87 93 -174
159 -306 231 l-103 57 40 18 c106 47 89 167 -34 236 -91 50 -202 90 -303 109
l-92 17 53 36 c93 65 111 143 48 210 -45 49 -122 66 -287 66 l-142 -1 -6 56
c-21 180 -95 411 -175 548 -60 102 -104 147 -179 184 -63 31 -73 33 -182 35
-63 1 -126 -1 -140 -4z m273 -177 c73 -30 155 -173 211 -368 31 -106 71 -359
92 -578 44 -450 -24 -970 -134 -1029 -17 -9 -18 -6 -14 43 8 103 -23 148 -147
210 -184 93 -420 137 -741 137 -348 1 -692 -45 -949 -126 l-73 -24 6 37 c3 20
6 84 6 142 l0 105 88 56 c250 161 488 268 752 341 80 21 155 46 168 54 35 23
39 44 13 66 -34 26 -109 23 -245 -11 -232 -59 -442 -154 -650 -294 -67 -45
-124 -83 -127 -85 -3 -1 -9 22 -12 53 -5 46 -32 118 -74 196 -5 8 97 130 216
258 378 409 889 733 1281 810 115 23 287 27 333 7z m-4228 -49 c295 -82 635
-274 924 -523 159 -137 339 -332 444 -481 l36 -51 -29 -54 c-16 -29 -34 -75
-41 -103 -6 -27 -13 -51 -14 -53 -2 -2 -58 34 -126 79 -245 163 -545 280 -756
296 -87 6 -113 -2 -113 -37 0 -28 21 -39 123 -65 152 -40 292 -92 432 -160
149 -73 342 -186 391 -230 l33 -30 3 -130 3 -131 -65 18 c-191 54 -579 98
-856 98 -346 0 -600 -43 -799 -134 -137 -63 -181 -128 -152 -226 14 -47 14
-49 -3 -40 -10 5 -36 30 -58 55 -120 137 -152 559 -86 1145 33 291 90 519 166
662 61 115 97 129 303 124 120 -3 168 -9 240 -29z m1590 -21 c115 -55 266
-155 427 -284 175 -140 191 -136 134 26 -29 84 -66 237 -66 273 0 13 95 -36
165 -86 75 -54 199 -181 252 -260 42 -63 70 -92 79 -83 2 3 18 77 34 166 16
88 34 172 40 186 9 26 11 26 38 12 56 -29 120 -121 152 -220 l12 -38 -136
-130 c-133 -126 -280 -294 -381 -431 -30 -41 -54 -66 -62 -62 -152 58 -565 74
-697 26 -32 -11 -66 -26 -74 -33 -12 -11 -18 -8 -31 12 -135 204 -410 505
-593 649 -38 29 -68 54 -68 56 0 9 114 -21 162 -42 101 -45 100 -18 -4 125
-78 109 -77 113 23 87 143 -37 336 -115 485 -196 76 -42 104 -48 104 -23 0 9
-29 75 -64 148 -35 72 -67 142 -71 155 -7 22 -5 23 21 17 16 -4 70 -27 119
-50z m3295 -707 l54 -12 -34 -29 c-30 -25 -230 -132 -236 -125 -1 1 -4 41 -8
88 l-7 86 88 2 c48 1 113 -3 143 -10z m-5744 -141 c-4 -51 -8 -94 -10 -95 -7
-7 -142 75 -183 111 -37 33 -42 41 -29 48 26 14 96 26 165 27 l64 1 -7 -92z
m5764 -155 c151 -24 380 -99 380 -123 0 -3 -75 -23 -167 -44 -251 -57 -254
-72 -26 -144 170 -55 306 -116 406 -184 63 -42 207 -178 207 -195 0 -6 -37 -4
-92 4 -51 8 -120 12 -153 11 -52 -3 -60 -6 -63 -24 -2 -16 20 -37 95 -95 129
-97 312 -282 392 -394 58 -83 127 -203 119 -210 -2 -2 -53 19 -115 45 -142 61
-250 99 -308 106 -41 6 -45 5 -45 -15 0 -13 26 -45 73 -88 209 -194 360 -367
464 -533 46 -75 126 -230 121 -236 -2 -2 -59 32 -125 76 -188 122 -327 187
-343 159 -12 -18 6 -48 58 -94 160 -141 335 -400 425 -630 39 -99 80 -247 75
-270 -2 -10 -27 5 -83 51 -44 36 -115 90 -158 120 -126 90 -145 64 -66 -96
150 -307 259 -658 259 -834 l0 -41 -162 168 c-90 92 -171 167 -180 167 -40 0
-36 -30 19 -154 104 -232 163 -443 184 -664 10 -106 4 -228 -11 -237 -10 -6
-57 51 -128 155 -102 150 -171 210 -188 166 -3 -8 3 -63 15 -123 46 -248 61
-499 42 -703 -13 -129 -35 -250 -50 -278 -11 -20 -17 -9 -86 170 -31 79 -61
153 -67 166 -12 24 -42 29 -54 10 -5 -7 -11 -87 -15 -178 -14 -341 -99 -674
-220 -866 -23 -36 -43 -63 -45 -61 -2 2 -15 66 -29 143 -14 76 -29 154 -33
173 -8 37 -36 62 -50 46 -5 -6 -28 -71 -52 -145 -90 -288 -217 -552 -323 -674
l-34 -40 -6 105 c-8 130 -17 163 -45 167 -18 3 -31 -16 -91 -135 -75 -151
-174 -306 -268 -423 -70 -87 -214 -227 -261 -253 -31 -18 -32 -18 -32 1 0 28
58 311 67 327 5 8 42 37 83 66 99 69 322 294 385 388 69 106 96 185 103 302
11 228 -80 357 -414 580 -181 121 -259 189 -376 329 -72 86 -339 471 -338 488
1 4 69 38 152 77 168 77 298 154 394 233 61 50 80 82 49 82 -8 0 -56 -9 -107
-20 -93 -20 -238 -40 -238 -32 0 8 29 30 115 89 215 147 515 457 515 532 0 19
-3 18 -72 -10 -81 -33 -269 -91 -275 -85 -3 2 19 33 47 68 151 186 386 574
403 665 12 62 -12 54 -133 -43 -73 -58 -202 -146 -207 -140 -2 1 4 23 12 47
36 100 88 293 116 429 24 116 31 182 36 327 6 167 5 183 -11 189 -26 10 -39
-9 -92 -136 -50 -117 -129 -259 -164 -295 -20 -19 -20 -19 -20 11 0 17 4 55
10 85 42 227 24 553 -41 763 -34 113 -60 98 -84 -49 -20 -121 -54 -255 -65
-255 -5 0 -23 42 -41 93 -54 150 -200 431 -270 520 -96 121 -120 103 -96 -71
8 -56 12 -102 10 -102 -3 0 -37 26 -76 59 -40 32 -126 97 -192 145 -190 138
-270 213 -200 186 14 -5 66 -16 117 -24 428 -69 964 -30 1203 88 167 83 232
186 274 436 31 188 44 377 37 529 l-7 133 68 -6 c37 -4 111 -14 163 -23z
m-2726 -37 c80 -22 114 -49 145 -115 26 -55 26 -60 25 -266 0 -304 -26 -390
-131 -447 -73 -40 -162 -58 -290 -58 -173 0 -349 39 -409 92 -57 50 -69 109
-69 343 0 179 2 207 22 271 40 127 76 161 198 188 96 21 424 16 509 -8z
m-3054 -189 c0 -345 38 -580 111 -690 133 -201 434 -299 873 -283 197 7 458
37 569 66 40 10 73 17 73 16 1 0 -82 -94 -185 -207 -102 -113 -209 -232 -238
-265 -28 -32 -55 -55 -59 -51 -4 4 1 78 13 165 22 162 20 182 -17 182 -58 0
-241 -343 -321 -602 -13 -43 -27 -78 -31 -78 -13 0 -48 199 -48 271 0 61 -23
84 -51 50 -23 -28 -82 -210 -112 -346 -19 -89 -22 -126 -20 -330 l1 -230 -23
29 c-56 70 -135 263 -135 328 0 32 -16 68 -30 68 -5 0 -16 -7 -24 -16 -33 -32
-17 -385 24 -547 19 -73 34 -115 126 -349 20 -54 35 -100 32 -104 -15 -15
-237 158 -279 217 -30 43 -52 39 -43 -8 27 -152 106 -309 272 -540 68 -96 122
-177 118 -180 -3 -3 -60 15 -127 41 -81 32 -125 44 -132 37 -31 -31 158 -239
382 -420 212 -172 207 -157 49 -164 -73 -4 -150 -4 -170 0 -58 9 -49 -19 20
-65 69 -47 229 -137 334 -188 l78 -38 -83 -54 c-144 -94 -220 -127 -477 -206
-144 -44 -223 -90 -322 -187 -183 -179 -205 -390 -69 -675 95 -198 229 -371
510 -653 201 -202 245 -239 318 -265 23 -8 96 -51 162 -96 245 -164 372 -234
531 -293 332 -124 584 -76 755 141 77 97 96 155 130 387 20 135 44 231 91 366
43 126 114 263 128 249 5 -5 10 -123 10 -292 1 -266 -1 -294 -28 -470 l-30
-186 22 -89 c29 -117 91 -241 151 -301 97 -97 262 -155 476 -168 63 -4 115
-10 115 -15 0 -12 -145 -115 -246 -175 -94 -55 -224 -117 -231 -111 -2 3 4 39
12 82 15 69 15 80 1 93 -13 13 -18 13 -41 -2 -27 -18 -95 -116 -95 -137 0 -6
-32 19 -71 56 -104 98 -217 178 -330 235 -163 81 -174 70 -99 -100 29 -65 50
-124 48 -130 -6 -20 -177 75 -295 164 -61 45 -155 120 -209 165 -122 103 -140
115 -159 107 -24 -9 -18 -30 49 -179 35 -78 67 -153 71 -165 6 -22 5 -23 -17
-17 -44 14 -163 78 -235 126 -104 70 -177 133 -366 313 -128 122 -170 157
-179 148 -16 -16 -1 -71 53 -196 23 -54 39 -99 37 -102 -13 -12 -144 91 -244
190 -110 111 -203 233 -304 399 -60 98 -73 112 -96 103 -15 -6 -16 -17 -11
-80 4 -41 16 -115 27 -165 23 -103 25 -131 9 -131 -20 0 -145 129 -201 208
-106 147 -192 311 -278 529 -33 82 -64 132 -76 121 -3 -4 -6 -99 -5 -210 1
-112 -3 -209 -7 -216 -11 -16 -44 20 -112 121 -108 162 -220 428 -311 742 -16
52 -42 71 -53 38 -3 -10 -15 -101 -26 -203 -23 -208 -28 -232 -44 -228 -6 2
-32 46 -58 98 -84 168 -146 453 -168 775 -12 168 -23 202 -54 176 -16 -13 -71
-174 -101 -291 -33 -136 -49 -148 -77 -62 -44 129 -52 214 -52 539 -1 332 -4
356 -45 319 -10 -9 -61 -81 -112 -158 l-94 -141 -13 54 c-48 207 -12 556 90
866 22 68 38 130 34 138 -13 35 -47 12 -142 -92 -53 -60 -104 -115 -112 -123
-13 -13 -14 -5 -8 75 16 243 123 559 292 868 41 76 73 145 70 153 -19 50 -97
2 -269 -165 -64 -63 -119 -112 -122 -110 -8 8 26 149 57 237 37 105 122 279
183 372 90 140 266 301 447 409 97 58 103 64 85 79 -8 7 -50 -4 -143 -38 -180
-66 -265 -111 -433 -229 -80 -55 -146 -99 -149 -97 -15 16 89 230 175 361 88
133 172 234 320 386 73 74 133 143 133 153 0 9 -7 19 -16 23 -21 8 -51 -3
-252 -89 -90 -38 -166 -68 -168 -65 -2 2 24 44 58 92 135 191 381 413 585 529
96 55 111 70 93 91 -17 20 -78 19 -285 -5 -93 -10 -171 -18 -172 -16 -6 6 98
96 166 145 91 64 328 182 446 221 122 40 155 56 155 75 0 21 -23 30 -157 64
-67 17 -134 36 -150 42 l-28 11 29 15 c77 40 250 87 421 113 66 10 128 19 138
19 16 1 17 -14 17 -172z m4591 -437 c137 -14 257 -37 349 -66 138 -44 178 -84
147 -149 -22 -46 -73 -78 -182 -114 -118 -39 -227 -53 -410 -54 -325 0 -665
57 -1032 175 -160 52 -170 66 -65 97 165 49 364 88 546 106 163 16 509 18 647
5z m-2877 -30 c180 -22 396 -62 449 -83 30 -13 31 -14 12 -24 -11 -6 -121 -45
-245 -87 -357 -121 -587 -160 -930 -161 -341 0 -497 37 -553 133 -12 21 -17
41 -13 57 18 73 269 151 591 184 136 15 495 4 689 -19z m551 -230 c9 -10 15
-25 12 -32 -3 -7 -35 -48 -72 -91 -169 -196 -295 -387 -310 -470 -7 -37 -6
-39 16 -35 17 2 56 45 139 154 107 142 190 242 292 356 l43 48 63 -20 c35 -11
73 -20 84 -20 26 0 23 -12 -42 -170 -118 -288 -303 -832 -435 -1282 -21 -71
-40 -128 -44 -128 -3 1 -18 17 -32 38 -45 64 -296 406 -320 436 -20 25 -27 27
-61 22 -38 -6 -337 -110 -475 -166 -40 -16 -73 -26 -73 -22 0 4 24 65 52 137
149 369 351 677 639 970 l128 131 128 52 c70 29 153 66 183 82 66 35 63 35 85
10z m1110 -58 c55 -21 134 -49 175 -62 74 -23 78 -26 211 -159 205 -206 332
-384 464 -656 40 -82 90 -195 110 -250 41 -111 90 -293 81 -302 -3 -3 -34 6
-68 21 -123 54 -478 186 -499 186 -13 0 -37 -17 -58 -42 -76 -88 -219 -246
-296 -327 l-81 -84 -22 134 c-37 221 -100 489 -177 759 -81 280 -171 558 -210
646 -14 32 -24 58 -23 59 2 2 39 13 83 25 l80 21 38 -43 c67 -77 202 -260 280
-380 80 -123 107 -149 134 -127 51 43 -82 295 -271 512 -47 55 -86 101 -86
103 0 12 45 0 135 -34z m-513 -137 c98 -243 231 -669 297 -945 58 -242 131
-639 131 -711 0 -44 32 -89 63 -89 34 0 64 25 203 170 105 110 306 329 309
337 1 5 411 -149 522 -196 96 -41 127 -50 142 -42 39 21 40 57 6 223 -47 232
-121 435 -251 687 -41 79 -74 145 -74 146 0 1 21 -17 46 -40 87 -81 167 -104
218 -64 l26 20 36 -78 c20 -43 53 -122 75 -176 59 -147 86 -195 122 -218 42
-26 83 -18 120 21 l27 30 0 -97 c0 -54 -7 -145 -15 -203 -21 -150 -19 -223 5
-270 35 -68 79 -77 152 -31 26 17 54 41 64 56 9 14 18 24 20 22 6 -6 -77 -312
-116 -428 -22 -63 -40 -132 -40 -152 0 -67 58 -93 149 -67 19 5 36 8 39 6 4
-5 -169 -235 -262 -349 -31 -38 -59 -80 -63 -94 -15 -61 56 -117 140 -110 39
3 45 2 36 -10 -7 -7 -91 -74 -189 -148 -193 -147 -254 -205 -265 -254 -8 -39
10 -88 36 -96 10 -4 19 -10 19 -13 0 -9 -172 -112 -198 -119 -14 -3 -28 7 -53
39 -74 96 -165 192 -242 254 -94 75 -249 155 -349 180 -72 17 -84 29 -42 40
46 12 148 -3 214 -31 36 -14 77 -32 93 -38 23 -10 30 -8 49 10 18 19 21 33 22
121 1 91 3 102 31 147 35 57 100 110 153 125 20 5 65 10 100 10 48 0 66 4 82
20 22 22 19 38 -16 85 -98 133 -106 275 -24 440 45 91 50 129 19 145 -17 10
-35 5 -103 -28 -112 -54 -194 -76 -259 -69 -76 8 -159 42 -210 87 -25 22 -52
40 -59 40 -23 0 -45 -31 -58 -80 -7 -25 -30 -80 -52 -122 -45 -88 -128 -172
-197 -200 l-41 -17 -15 29 c-22 42 -92 97 -152 120 -118 44 -251 17 -346 -70
-79 -72 -110 -136 -115 -237 -5 -96 -17 -104 -76 -53 -46 41 -73 99 -87 190
-13 83 -30 120 -57 120 -9 0 -39 -16 -66 -35 -89 -63 -161 -68 -256 -20 -47
24 -80 64 -95 115 -4 14 -14 33 -23 43 -16 18 -67 23 -77 8 -3 -5 -31 -19 -63
-31 -95 -37 -222 -28 -350 22 -51 20 -53 20 -72 3 -27 -24 -25 -42 10 -95 90
-134 94 -295 10 -420 -31 -47 -38 -88 -18 -108 7 -7 42 -12 86 -12 41 0 93 -5
115 -12 41 -12 147 -100 147 -122 0 -7 -42 -29 -94 -50 -105 -42 -245 -121
-338 -192 -35 -27 -135 -112 -224 -190 l-161 -141 -99 53 c-54 30 -91 54 -80
54 26 0 86 64 86 91 0 69 -75 154 -259 293 -62 47 -109 86 -103 86 6 0 24 12
41 26 25 20 31 34 31 64 0 71 -40 140 -195 339 -47 60 -85 112 -85 115 0 4 13
0 28 -8 54 -28 110 -25 146 9 46 43 38 98 -43 288 -64 150 -111 286 -111 317
0 7 18 -4 40 -24 47 -42 78 -45 117 -12 l28 24 0 254 c0 139 4 282 9 317 9 62
9 63 23 38 29 -56 116 -75 156 -34 13 12 54 101 92 197 38 96 70 176 71 178 1
2 13 -8 27 -22 23 -23 48 -31 83 -27 6 1 -19 -61 -56 -136 -81 -164 -202 -494
-198 -538 2 -20 12 -34 30 -45 31 -17 18 -20 238 70 143 59 416 153 429 148 5
-2 91 -113 191 -248 100 -135 196 -260 213 -277 32 -35 71 -42 107 -23 22 12
23 15 84 265 50 202 376 1167 478 1413 l30 73 80 -3 80 -3 20 -50z m1058
-1918 c80 -29 189 -33 278 -9 l72 19 -6 -21 c-28 -87 -32 -221 -9 -309 8 -32
15 -61 15 -65 0 -5 -17 -14 -37 -21 -127 -44 -240 -171 -259 -289 -10 -64 -14
-66 -75 -52 -30 7 -93 14 -141 14 -71 1 -88 4 -88 16 0 8 -9 30 -20 48 l-21
34 65 73 c36 40 124 125 195 190 132 119 167 158 156 175 -11 18 -30 10 -115
-46 -101 -67 -195 -141 -305 -239 l-80 -72 -30 19 c-16 10 -34 19 -38 21 -5 1
-1 29 7 62 8 33 18 76 21 95 4 29 13 39 51 59 93 50 199 167 255 284 17 35 27
46 39 41 8 -4 40 -16 70 -27z m-1816 -155 c21 -41 90 -100 144 -125 37 -16 67
-21 142 -21 52 -1 110 3 127 8 25 6 34 5 38 -5 34 -98 52 -134 86 -172 l39
-46 -59 -31 c-33 -18 -67 -40 -76 -50 -16 -17 -22 -14 -138 62 -120 78 -315
181 -369 194 -23 5 -28 3 -28 -12 0 -31 10 -40 154 -134 76 -50 175 -118 220
-152 44 -34 82 -62 84 -63 1 -1 -3 -23 -10 -49 -9 -35 -16 -45 -28 -41 -49 20
-159 37 -250 41 -96 3 -106 6 -119 26 -64 99 -132 155 -232 188 -35 12 -65 23
-67 24 -1 2 4 20 11 42 25 69 29 156 12 235 -8 41 -15 77 -15 81 0 4 15 2 32
-3 50 -14 136 -10 208 11 36 10 68 18 72 19 4 1 14 -12 22 -27z m1154 -21
c104 -53 153 -186 106 -285 -14 -29 -22 -34 -61 -39 -25 -2 -78 -21 -119 -42
-69 -34 -77 -36 -112 -24 -49 15 -98 53 -117 89 -9 17 -15 55 -15 92 0 52 6
72 30 115 58 100 191 144 288 94z m206 -461 c33 -16 57 -37 78 -69 27 -42 29
-52 26 -117 -3 -57 -9 -79 -31 -112 -57 -87 -175 -125 -271 -88 -89 34 -157
141 -141 225 29 156 191 233 339 161z m-576 5 c110 -47 158 -185 105 -306 -75
-170 -327 -173 -415 -6 -43 81 -22 202 44 264 62 58 187 81 266 48z m-503
-256 l62 -10 12 -49 c27 -104 121 -196 226 -221 28 -7 51 -13 53 -14 1 -1 -20
-44 -47 -96 -82 -157 -112 -279 -126 -511 l-7 -108 -70 91 c-255 330 -578 538
-933 600 l-64 11 52 45 c158 135 367 235 552 263 77 12 221 11 290 -1z m1397
-146 c113 -42 231 -127 354 -257 60 -62 123 -134 141 -158 l32 -45 -192 -6
c-141 -4 -218 -11 -292 -27 -409 -87 -774 -307 -1053 -634 -18 -21 -36 -36
-39 -33 -2 3 -14 56 -24 119 -23 128 -27 342 -9 452 34 216 142 413 273 500
29 19 65 48 81 65 29 30 30 30 43 11 24 -33 96 -78 158 -95 121 -36 244 0 334
96 42 45 49 49 83 44 20 -3 70 -17 110 -32z m-2244 -259 c185 -38 388 -128
537 -238 193 -143 411 -392 505 -576 13 -25 40 -123 61 -218 l38 -174 -76
-129 -76 -130 -62 128 c-164 338 -422 623 -748 825 -165 103 -394 192 -573
223 -48 8 -89 17 -91 19 -3 2 12 17 33 33 108 83 283 225 294 238 16 19 62 19
158 -1z m2932 -427 c47 -72 109 -163 138 -202 l52 -70 -162 -6 c-201 -8 -295
-21 -464 -64 -443 -111 -880 -391 -1149 -734 -27 -35 -51 -57 -52 -50 -1 8 -9
77 -18 154 -8 77 -24 191 -36 252 l-21 113 46 64 c67 94 136 166 239 249 267
216 588 363 887 406 120 17 127 18 295 19 l160 2 85 -133z m-3319 43 c440 -95
922 -457 1171 -879 54 -91 83 -152 129 -270 l28 -74 -30 -86 c-34 -96 -60
-209 -84 -356 -16 -102 -43 -210 -50 -203 -3 2 -9 37 -15 77 -30 216 -175 479
-400 728 -251 280 -574 524 -905 684 -246 120 -417 169 -592 169 l-88 1 58 30
c32 16 146 59 253 94 107 36 216 76 242 90 42 23 55 25 122 20 41 -4 114 -14
161 -25z m-642 -345 c150 -29 346 -106 526 -208 111 -62 336 -209 354 -231 11
-13 2 -29 -65 -113 -43 -54 -79 -100 -80 -102 -2 -2 -25 5 -51 16 -140 59
-303 26 -426 -87 -64 -59 -103 -128 -122 -216 -7 -36 -16 -68 -18 -71 -8 -7
-165 168 -240 270 -137 182 -211 327 -243 477 -15 68 -15 88 -5 135 7 30 24
69 38 85 48 57 175 74 332 45z m4321 -157 c42 -40 150 -123 240 -185 91 -61
183 -127 205 -147 l40 -36 -41 14 c-113 38 -339 47 -541 21 -330 -43 -679
-155 -1003 -321 -442 -226 -764 -497 -901 -758 -52 -99 -58 -73 -30 143 13 97
26 228 30 292 7 103 12 122 40 175 173 324 632 656 1101 797 230 69 363 87
600 82 l185 -5 75 -72z m-3085 -599 c268 -276 436 -592 423 -794 -10 -148 -77
-208 -236 -207 -177 1 -418 97 -700 280 l-62 40 63 30 c111 52 177 127 218
249 33 101 25 207 -25 308 -43 86 -51 61 63 197 l65 77 45 -38 c25 -22 91 -85
146 -142z m3437 140 c84 -18 169 -61 211 -107 34 -39 37 -47 37 -102 0 -128
-73 -255 -244 -425 -120 -119 -231 -206 -372 -292 l-89 -54 -6 83 c-14 181
-99 313 -245 380 -40 19 -69 23 -153 25 -103 1 -105 2 -119 29 -13 25 -100
247 -105 268 -3 11 177 79 307 116 126 36 278 68 376 79 112 13 342 13 402 0z
m-4010 -127 c65 -29 123 -85 154 -150 36 -74 38 -183 7 -254 -30 -65 -95 -133
-162 -165 -47 -24 -68 -28 -136 -27 -66 0 -89 4 -131 26 -199 103 -220 396
-39 534 85 65 209 80 307 36z m2777 -267 c33 -69 69 -138 80 -153 l20 -29 -35
-34 c-19 -19 -52 -68 -72 -109 -35 -71 -37 -78 -36 -175 0 -76 5 -112 21 -151
29 -73 77 -139 134 -184 l49 -39 -53 -19 c-428 -160 -815 -194 -1023 -92 -108
53 -145 121 -125 232 45 257 354 555 836 805 77 40 141 73 142 73 1 0 29 -56
62 -125z m487 -224 c55 -25 114 -84 144 -146 20 -40 25 -66 25 -130 0 -73 -3
-86 -36 -145 -60 -110 -168 -169 -286 -157 -233 24 -351 295 -213 486 78 107
240 147 366 92z m419 -461 c-20 -63 -230 -282 -366 -382 -108 -79 -237 -154
-298 -173 -23 -7 -24 -6 -17 26 3 19 23 80 44 136 l37 102 90 32 c116 41 140
53 195 98 25 21 83 56 130 79 47 22 108 56 135 75 28 18 52 32 53 31 2 -1 1
-12 -3 -24z m-825 -411 c-84 -76 -211 -170 -292 -216 -74 -41 -217 -97 -225
-89 -6 6 11 62 49 159 23 57 36 78 52 82 11 2 74 16 140 31 65 14 159 38 210
54 50 16 98 29 106 29 8 0 -10 -22 -40 -50z"/>
<path d="M4740 8874 c0 -21 207 -238 232 -242 14 -3 18 3 18 25 -1 66 -79 177
-151 214 -48 24 -99 26 -99 3z"/>
<path d="M8212 7659 c-65 -12 -141 -59 -184 -112 -122 -155 -71 -382 107 -475
69 -36 185 -38 262 -3 61 27 126 93 156 159 31 67 30 178 -2 250 -56 126 -205
205 -339 181z m153 -132 c21 -12 53 -42 70 -65 26 -39 30 -52 30 -112 0 -60
-4 -74 -30 -111 -77 -109 -234 -119 -318 -20 -35 42 -50 94 -45 156 5 64 35
112 92 149 54 35 142 36 201 3z"/>
<path d="M7540 6987 c0 -21 181 -261 224 -296 28 -23 39 -1 26 50 -24 86 -102
191 -179 241 -54 34 -71 35 -71 5z"/>
<path d="M8032 6359 c-62 -24 -117 -76 -145 -139 -30 -65 -29 -179 1 -242 45
-93 143 -152 249 -151 79 1 138 29 196 93 51 56 67 103 67 192 0 190 -187 316
-368 247z m186 -116 c15 -11 38 -35 50 -54 48 -70 12 -192 -68 -234 -94 -49
-215 19 -227 128 -9 78 20 133 92 172 39 21 117 15 153 -12z"/>
<path d="M8724 5976 c-3 -9 13 -49 39 -93 24 -43 63 -121 86 -173 52 -120 55
-124 74 -128 42 -8 26 120 -28 228 -38 75 -89 137 -134 163 -27 16 -32 16 -37
3z"/>
<path d="M8407 5423 c-15 -14 -5 -47 37 -131 24 -48 60 -132 81 -187 39 -104
51 -121 72 -103 36 29 -1 219 -63 324 -41 69 -106 119 -127 97z"/>
<path d="M8013 4911 c-50 -13 -118 -57 -157 -103 -134 -156 -83 -415 99 -503
57 -28 178 -32 247 -9 74 24 157 108 187 189 58 153 -9 329 -153 402 -55 28
-162 40 -223 24z m170 -114 c18 -8 49 -32 69 -55 76 -84 77 -203 1 -291 -94
-110 -282 -90 -350 38 -57 109 -12 244 102 304 37 20 134 22 178 4z"/>
<path d="M8537 3993 c-4 -3 -7 -58 -7 -120 0 -63 -7 -159 -17 -214 -16 -99
-12 -132 16 -114 20 12 51 82 67 152 34 142 -8 348 -59 296z"/>
<path d="M7609 3734 c-90 -60 -160 -97 -252 -134 -48 -19 -57 -26 -55 -44 3
-19 9 -21 70 -20 58 0 79 6 151 42 130 64 219 153 196 195 -6 9 -14 17 -18 17
-5 0 -46 -25 -92 -56z"/>
<path d="M8074 3431 c-94 -43 -152 -122 -161 -220 -14 -152 87 -277 232 -289
187 -15 325 157 272 339 -43 147 -210 230 -343 170z m176 -110 c121 -86 77
-269 -71 -296 -79 -14 -160 58 -166 149 -10 130 134 219 237 147z"/>
<path d="M1917 7626 c-114 -41 -197 -166 -197 -297 0 -66 33 -148 80 -202 109
-123 330 -122 443 2 70 78 96 212 60 317 -23 68 -101 144 -176 172 -66 25
-152 28 -210 8z m148 -107 c85 -23 145 -98 145 -180 0 -120 -121 -218 -232
-188 -179 47 -200 283 -33 360 47 22 66 23 120 8z"/>
<path d="M2629 6863 c-63 -71 -104 -165 -104 -237 0 -34 5 -61 11 -63 15 -5
174 289 174 321 0 41 -33 32 -81 -21z"/>
<path d="M1801 6533 c-102 -102 -179 -282 -141 -328 21 -25 45 -2 95 92 26 49
62 108 79 133 49 68 86 135 86 153 0 12 -8 17 -26 17 -19 0 -45 -19 -93 -67z"/>
<path d="M2024 6050 c-58 -18 -128 -74 -162 -131 -43 -72 -55 -120 -50 -200 9
-116 75 -216 176 -266 112 -55 268 -28 355 62 64 66 82 116 82 230 0 84 -4
107 -23 142 -33 63 -75 106 -134 138 -44 24 -67 29 -133 32 -44 1 -94 -2 -111
-7z m181 -119 c117 -53 155 -199 82 -310 -34 -52 -85 -81 -151 -88 -176 -18
-289 202 -175 340 61 74 159 97 244 58z"/>
<path d="M1329 5382 c-60 -39 -116 -104 -149 -177 -30 -65 -43 -134 -29 -156
15 -25 42 3 91 95 26 48 69 122 97 165 71 107 69 122 -10 73z"/>
<path d="M2183 5013 c12 -70 69 -164 148 -245 56 -58 83 -78 102 -78 14 0 28
4 31 9 3 5 -23 46 -57 92 -35 46 -83 113 -107 149 -57 86 -79 110 -103 110
-17 0 -19 -5 -14 -37z"/>
<path d="M1437 4745 c-132 -49 -207 -166 -194 -304 14 -155 116 -258 268 -269
130 -9 232 47 285 155 38 76 40 194 5 265 -27 56 -96 122 -154 149 -50 22
-154 24 -210 4z m166 -109 c39 -17 92 -71 106 -109 37 -97 -26 -219 -127 -247
-20 -5 -41 -10 -47 -10 -30 0 -88 24 -116 47 -80 68 -90 199 -21 277 44 49
142 69 205 42z"/>
<path d="M2119 4128 c-11 -133 86 -316 179 -334 43 -9 42 9 -4 77 -20 30 -52
85 -71 123 -63 125 -101 173 -104 134z"/>
<path d="M1882 3468 c-28 -28 -7 -159 42 -256 50 -98 149 -183 178 -154 8 8 2
27 -24 69 -56 91 -79 140 -117 248 -36 99 -53 119 -79 93z"/>
</g>
</svg>
