<?xml version="1.0" encoding="UTF-8" standalone="yes"?>
<svg version="1.0" xmlns="http://www.w3.org/2000/svg" width="1024.000000pt" height="1024.000000pt" viewBox="0 0 1024.000000 1024.000000" preserveAspectRatio="xMidYMid meet">
  <metadata>
Created by potrace 1.16, written by Peter Selinger 2001-2019
</metadata>
  <g transform="translate(0.000000,1024.000000) scale(0.100000,-0.100000)" fill="#000000" stroke="none">
    <path d="M2145 9740 c-140 -20 -272 -89 -371 -193 -104 -109 -154 -236 -148&#xA;-374 l2 -61 -44 18 c-204 88 -471 3 -560 -177 -32 -66 -44 -180 -25 -248 6&#xA;-21 9 -40 8 -41 -1 -1 -32 1 -69 5 -211 22 -388 -86 -390 -238 -1 -172 203&#xA;-278 592 -307 47 -3 96 -7 108 -9 143 -22 1523 -27 1817 -7 200 14 403 34 520&#xA;53 165 26 337 89 399 147 57 54 81 150 55 219 -58 153 -332 249 -534 185 l-60&#xA;-18 3 47 c5 69 -21 140 -70 189 -92 92 -302 108 -439 33 -4 -2 0 27 8 64 19&#xA;86 11 216 -17 297 -29 86 -71 146 -162 231 -86 81 -195 142 -303 170 -73 19&#xA;-238 27 -320 15z m340 -83 c102 -33 185 -83 258 -155 114 -112 157 -212 157&#xA;-362 0 -90 -17 -187 -45 -253 -21 -51 -4 -54 49 -8 67 58 123 76 237 76 86 0&#xA;101 -3 154 -30 46 -23 64 -40 82 -74 31 -59 31 -129 -2 -198 -13 -29 -20 -55&#xA;-15 -58 5 -3 27 6 47 20 119 81 338 86 469 10 53 -31 110 -95 119 -133 22&#xA;-100 -64 -183 -245 -235 -138 -40 -439 -78 -720 -92 -69 -3 -165 -8 -215 -11&#xA;-130 -7 -1041 -7 -1230 0 -250 10 -397 17 -430 21 -16 2 -57 7 -90 10 -97 10&#xA;-245 41 -308 65 -113 42 -184 143 -158 223 40 118 237 180 409 128 38 -11 75&#xA;-21 81 -21 5 0 -4 30 -22 68 -28 58 -32 77 -31 147 0 133 56 215 188 276 137&#xA;64 296 50 411 -37 85 -63 85 -62 55 34 -50 158 -2 321 131 453 74 73 174 129&#xA;274 153 97 23 290 15 390 -17z"/>
    <path d="M8616 9444 c-71 -16 -157 -54 -213 -97 -33 -24 -103 -106 -103 -119&#xA;0 -5 28 12 62 37 74 55 183 108 256 125 76 18 207 16 274 -4 106 -30 189 -115&#xA;230 -233 19 -57 23 -88 23 -185 -1 -65 2 -118 6 -118 4 0 31 12 60 28 41 21&#xA;70 28 129 30 66 3 81 0 130 -25 37 -19 64 -42 83 -71 35 -51 52 -149 39 -210&#xA;-11 -47 0 -56 17 -14 79 194 -52 383 -263 382 -45 -1 -77 -9 -138 -35 -15 -6&#xA;-17 -3 -12 21 3 16 1 67 -5 114 -13 97 -56 200 -114 265 -92 106 -273 149&#xA;-461 109z"/>
    <path d="M6589 9429 c-133 -37 -248 -129 -305 -246 -31 -62 -32 -69 -33 -159&#xA;l-1 -70 -82 0 c-177 0 -298 -88 -298 -216 0 -93 84 -154 252 -183 119 -21 197&#xA;-25 548 -25 594 0 816 40 950 172 142 140 99 338 -89 409 -74 28 -208 23 -271&#xA;-10 -22 -11 -42 -21 -44 -21 -2 0 -6 25 -9 55 -15 142 -154 272 -327 305 -79&#xA;15 -215 10 -291 -11z m332 -48 c177 -56 276 -200 240 -353 -11 -48 -5 -53 32&#xA;-22 50 42 106 65 177 73 152 16 255 -41 281 -156 10 -45 10 -59 -6 -99 -52&#xA;-137 -204 -208 -500 -235 -148 -13 -767 -17 -895 -5 -267 24 -372 89 -325 202&#xA;23 55 51 81 112 104 68 25 180 27 229 4 19 -9 37 -14 40 -12 3 3 0 26 -7 52&#xA;-47 189 83 386 295 447 87 25 245 25 327 0z"/>
    <path d="M8202 8319 c-136 -21 -230 -77 -322 -191 -48 -59 -157 -221 -502&#xA;-743 -258 -389 -395 -574 -518 -696 -80 -79 -112 -104 -184 -140 -80 -40 -95&#xA;-43 -179 -47 -106 -5 -227 12 -460 64 -253 56 -478 123 -1032 309 -740 247&#xA;-945 303 -1305 351 -126 17 -503 24 -585 12 -348 -54 -504 -108 -714 -248&#xA;-167 -112 -309 -263 -466 -495 l-68 -100 -191 2 c-133 2 -214 -2 -266 -12&#xA;-182 -35 -337 -107 -380 -177 -12 -20 -20 -51 -20 -76 0 -37 6 -49 48 -94 45&#xA;-48 263 -220 293 -230 8 -3 12 -7 9 -9 -3 -2 -50 -34 -105 -71 -222 -148 -371&#xA;-334 -426 -533 -40 -147 -26 -339 37 -482 144 -331 697 -683 1339 -853 482&#xA;-128 1044 -181 1540 -145 116 9 221 18 235 20 14 2 43 6 65 9 272 37 609 102&#xA;915 177 58 14 61 12 38 -27 -37 -64 -58 -177 -53 -289 5 -118 29 -208 86 -324&#xA;71 -144 207 -258 345 -290 120 -28 326 -11 530 44 488 132 871 363 986 595 41&#xA;82 68 173 68 232 0 21 3 38 6 38 3 0 83 -11 177 -25 391 -55 746 -76 947 -54&#xA;213 23 453 88 563 152 56 33 107 91 107 121 0 75 -73 110 -1045 501 -214 86&#xA;-396 160 -404 165 -11 6 -3 14 29 30 175 89 667 420 775 522 16 15 39 28 50&#xA;28 11 0 83 -11 160 -25 270 -49 332 -56 515 -62 145 -4 209 -2 299 12 264 39&#xA;501 140 501 214 0 48 -48 79 -220 142 -175 64 -593 203 -722 240 l-76 22 10&#xA;29 c13 37 -3 122 -33 184 -30 58 -74 99 -150 138 -49 25 -63 38 -61 52 2 10&#xA;52 215 111 454 60 239 127 512 150 605 137 569 212 894 213 918 1 34 -11 47&#xA;-48 53 -69 9 -554 12 -612 3z m574 -81 c7 -7 -32 -180 -47 -209 -6 -13 -32&#xA;-18 -121 -23 -166 -11 -222 -17 -229 -24 -7 -8 -74 -235 -174 -592 -36 -129&#xA;-75 -266 -86 -305 -146 -521 -193 -701 -186 -718 5 -13 27 -17 177 -32 14 -2&#xA;63 -6 110 -10 47 -4 86 -8 88 -10 2 -2 1 -18 -3 -36 l-7 -32 -97 7 c-53 4&#xA;-130 9 -171 12 -211 14 -701 79 -1135 149 -82 13 -165 25 -182 27 -41 3 -42&#xA;12 -2 29 81 33 248 188 367 339 137 176 350 487 567 830 235 371 346 516 433&#xA;559 87 44 140 50 424 48 147 -2 270 -6 274 -9z m-60 -285 c-3 -10 -24 -97 -46&#xA;-193 -22 -96 -108 -449 -192 -784 l-151 -608 -91 6 c-210 15 -246 20 -246 37&#xA;0 12 50 198 175 644 97 349 150 546 204 750 l36 140 150 11 c83 6 154 12 158&#xA;12 5 1 6 -6 3 -15z m-5086 -807 c14 -2 66 -9 115 -16 102 -13 122 -17 330 -66&#xA;235 -55 454 -121 955 -288 790 -264 1051 -325 1810 -426 85 -11 200 -27 255&#xA;-35 140 -21 505 -62 660 -75 72 -6 144 -13 160 -15 17 -2 89 -7 160 -10 72 -3&#xA;157 -8 190 -10 165 -10 295 -123 295 -258 0 -43 -2 -48 -17 -42 -52 20 -246&#xA;36 -362 31 -355 -17 -718 -167 -777 -322 -29 -77 6 -116 134 -148 37 -10 74&#xA;-20 82 -23 17 -6 -37 -23 -280 -87 -295 -79 -659 -156 -900 -191 -58 -8 -134&#xA;-19 -170 -24 -36 -5 -132 -6 -215 -3 -533 24 -1000 -13 -1325 -105 -129 -36&#xA;-365 -126 -425 -163 -16 -10 -52 -20 -80 -24 -410 -48 -660 -63 -1063 -65&#xA;-276 -1 -713 16 -837 34 -16 2 -70 7 -120 11 -49 4 -97 8 -105 10 -8 1 -25 3&#xA;-36 3 -20 1 -22 8 -27 109 -8 170 -55 302 -152 430 -125 166 -355 280 -543&#xA;270 -34 -2 -62 -1 -62 2 0 11 234 150 304 180 35 16 55 17 142 9 193 -17 525&#xA;-122 702 -223 273 -155 562 -236 839 -236 261 0 447 78 513 214 66 137 66 491&#xA;-1 711 -67 221 -157 292 -394 310 -164 12 -411 34 -450 40 -145 21 -243 39&#xA;-331 60 -106 26 -304 93 -304 104 1 16 174 131 266 177 165 83 349 134 554&#xA;154 84 8 462 6 510 -4z m-1272 -442 c51 -19 146 -48 210 -65 64 -17 118 -32&#xA;119 -33 2 -2 -22 -40 -53 -87 -105 -158 -239 -461 -297 -670 -17 -61 -26 -79&#xA;-37 -75 -8 2 -73 23 -144 45 -136 42 -334 81 -417 81 -27 0 -49 2 -49 5 0 16&#xA;200 373 281 503 123 194 250 348 278 336 9 -3 58 -21 109 -40z m509 -124 c43&#xA;-6 92 -13 108 -15 17 -2 120 -11 230 -20 277 -21 330 -30 375 -62 70 -51 120&#xA;-153 151 -308 22 -108 19 -424 -4 -497 -43 -141 -170 -204 -432 -215 -221 -9&#xA;-449 32 -624 113 -83 38 -301 164 -301 173 0 17 51 186 78 258 89 237 281 583&#xA;324 583 9 0 52 -5 95 -10z m-1112 -259 l40 -9 -36 -1 c-142 -4 -499 -106 -499&#xA;-142 0 -6 8 -8 18 -5 118 37 163 49 256 71 60 15 145 32 190 38 l82 12 -63&#xA;-112 c-35 -62 -77 -141 -94 -176 -30 -61 -34 -64 -120 -108 l-90 -46 -86 59&#xA;c-152 104 -273 209 -273 238 0 4 12 23 27 41 32 38 139 90 236 113 122 31 329&#xA;44 412 27z m6651 -466 c49 -9 109 -22 134 -30 25 -8 88 -26 140 -40 52 -14&#xA;208 -62 345 -107 l250 -82 -75 -23 c-41 -13 -140 -40 -220 -59 -169 -42 -204&#xA;-58 -110 -48 101 10 243 41 351 77 l99 33 88 -32 c48 -17 103 -38 122 -46 l35&#xA;-15 -50 -25 c-198 -100 -527 -148 -806 -119 -119 13 -450 67 -774 127 -327 61&#xA;-455 95 -455 120 0 35 83 104 184 153 133 65 271 105 431 124 77 10 231 6 311&#xA;-8z m-6905 -279 c341 -112 538 -457 464 -811 -53 -253 -283 -454 -521 -455&#xA;l-71 0 -88 63 c-276 195 -396 390 -396 639 0 98 8 150 35 225 47 133 210 331&#xA;295 358 64 21 186 13 282 -19z m6394 -185 c81 -17 149 -32 151 -34 14 -13&#xA;-375 -274 -637 -428 -224 -131 -225 -131 -246 -119 -27 15 -339 135 -471 181&#xA;-135 46 -322 99 -354 99 -18 0 -18 14 0 16 32 2 148 19 247 35 66 11 134 22&#xA;150 25 194 30 620 137 865 218 58 18 115 34 127 35 11 1 87 -12 168 -28z&#xA;m-1765 -335 c256 -42 478 -112 838 -264 l93 -39 -168 -7 c-93 -3 -186 -9 -208&#xA;-12 -264 -32 -530 -110 -702 -205 -75 -42 -105 -67 -56 -48 218 86 462 158&#xA;635 188 220 39 551 61 623 43 22 -6 191 -71 375 -145 184 -74 439 -175 565&#xA;-225 205 -80 226 -90 195 -95 -240 -37 -320 -51 -404 -72 -117 -30 -298 -97&#xA;-303 -112 -2 -6 63 9 144 32 166 48 407 100 558 120 l100 13 85 -35 c99 -41&#xA;180 -83 180 -94 0 -18 -73 -62 -154 -94 -187 -73 -384 -105 -652 -105 -358 0&#xA;-683 41 -1289 160 -477 94 -1051 200 -1510 280 -647 112 -842 158 -898 215&#xA;-21 20 -22 67 -2 104 44 87 242 201 486 280 200 66 378 98 724 130 148 14 635&#xA;5 745 -13z m-3670 -301 c91 -9 230 -20 310 -24 151 -8 755 -6 825 3 22 3 85 8&#xA;140 11 100 6 205 16 345 35 114 14 113 15 79 -22 -41 -44 -68 -99 -75 -150&#xA;-11 -84 64 -149 238 -206 124 -41 256 -67 876 -173 72 -12 132 -25 132 -28 -1&#xA;-3 -62 -43 -138 -88 l-137 -82 -195 -45 c-414 -96 -709 -148 -1030 -180 -176&#xA;-18 -603 -18 -795 0 -420 39 -840 130 -1149 250 -113 44 -426 195 -426 206 0&#xA;4 19 8 43 8 68 0 188 43 266 94 143 95 210 204 266 432 2 7 43 5 132 -7 70&#xA;-10 202 -25 293 -34z m3369 -641 c96 -18 184 -40 197 -49 44 -29 112 -145 147&#xA;-250 30 -91 33 -304 7 -407 -26 -98 -53 -161 -90 -208 -26 -33 -41 -41 -137&#xA;-68 -91 -26 -234 -62 -248 -62 -2 0 20 24 49 54 97 98 156 261 156 433 0 126&#xA;-23 230 -74 338 -55 117 -116 183 -209 231 l-72 36 50 -7 c28 -3 128 -22 224&#xA;-41z m-266 -37 c306 -140 385 -665 136 -902 -81 -77 -133 -100 -235 -100 -73&#xA;0 -87 3 -156 37 -143 71 -249 217 -285 394 -31 149 11 323 107 442 53 66 135&#xA;126 200 147 65 21 164 14 233 -18z m696 -42 c289 -52 385 -75 396 -93 25 -42&#xA;34 -83 34 -164 2 -152 -40 -289 -106 -349 -66 -61 -232 -152 -378 -208 l-72&#xA;-28 39 84 c50 107 69 200 70 338 1 167 -45 321 -121 408 -40 45 -43 45 138 12z&#xA;m574 -111 c29 -4 51 -13 54 -22 11 -26 -16 -134 -51 -207 -32 -66 -105 -163&#xA;-92 -121 26 81 32 239 12 315 -13 52 -13 52 8 47 11 -2 43 -8 69 -12z"/>
    <path d="M4374 6026 c-97 -45 -148 -160 -148 -336 0 -120 17 -191 63 -261 82&#xA;-123 251 -130 366 -16 60 61 83 117 92 227 14 183 -72 349 -205 394 -63 22&#xA;-108 20 -168 -8z m157 -56 c86 -45 131 -112 151 -228 9 -52 9 -85 0 -137 -24&#xA;-146 -109 -216 -249 -207 -38 3 -100 68 -124 130 -46 119 -21 349 44 410 49&#xA;47 124 60 178 32z"/>
    <path d="M5165 6014 c-68 -35 -105 -91 -130 -196 -28 -118 -11 -268 39 -347&#xA;95 -151 305 -126 386 46 25 53 38 177 28 253 -10 71 -59 170 -103 209 -57 50&#xA;-160 67 -220 35z m150 -67 c81 -46 121 -147 113 -287 -6 -100 -29 -155 -83&#xA;-196 -83 -63 -178 -33 -230 71 -28 56 -30 67 -29 160 3 216 101 324 229 252z"/>
    <path d="M5874 6011 c-43 -11 -74 -34 -105 -82 -37 -54 -52 -133 -47 -248 3&#xA;-77 8 -106 28 -146 63 -125 200 -155 303 -65 51 45 72 91 88 190 25 162 -46&#xA;310 -165 345 -54 16 -56 16 -102 6z m138 -99 c100 -93 91 -348 -15 -412 -65&#xA;-40 -148 -14 -191 60 -18 29 -21 52 -21 140 0 123 15 183 56 221 48 45 117 42&#xA;171 -9z"/>
    <path d="M6535 6004 c-6 -1 -22 -5 -37 -8 -15 -4 -43 -20 -62 -37 -47 -41 -68&#xA;-109 -69 -223 -1 -78 3 -99 25 -147 29 -63 65 -94 127 -108 60 -13 108 3 156&#xA;53 50 51 65 99 65 202 0 120 -27 189 -91 237 -25 18 -92 36 -114 31z m96 -102&#xA;c29 -33 49 -105 49 -180 0 -108 -47 -182 -115 -182 -90 0 -134 63 -135 190 0&#xA;95 14 146 51 183 27 26 35 29 77 24 35 -4 53 -12 73 -35z"/>
    <path d="M2225 6321 c-96 -58 -155 -209 -126 -318 24 -88 110 -111 179 -48 80&#xA;72 135 221 112 304 -20 74 -98 104 -165 62z"/>
    <path d="M2885 6234 c-118 -61 -192 -246 -155 -384 27 -101 132 -155 217 -112&#xA;89 46 161 171 170 294 4 66 2 78 -24 127 -43 84 -131 115 -208 75z"/>
    <path d="M5333 3921 c-201 -92 -233 -443 -58 -630 196 -210 467 38 399 365&#xA;-42 207 -199 329 -341 265z m45 -108 c-61 -63 -83 -123 -83 -228 0 -78 4 -98&#xA;29 -153 16 -34 45 -76 64 -93 19 -17 32 -32 30 -35 -13 -13 -96 47 -125 90&#xA;-43 63 -57 115 -57 206 1 113 47 204 119 236 53 23 61 16 23 -23z m206 -130&#xA;c24 -50 32 -140 16 -187 -16 -50 -49 -49 -101 3 -35 35 -39 44 -39 91 0 47 4&#xA;56 39 91 21 22 45 39 53 39 8 0 22 -17 32 -37z"/>
    <path d="M7180 3509 c108 -94 267 -186 495 -286 469 -207 1091 -342 1590 -346&#xA;189 -2 395 10 395 22 0 4 -107 11 -237 14 -795 22 -1526 215 -2154 567 -58 33&#xA;-110 60 -115 60 -5 -1 7 -15 26 -31z"/>
    <path d="M6840 3132 c0 -38 267 -218 498 -335 393 -200 815 -346 1259 -437&#xA;250 -51 416 -71 638 -77 121 -3 217 -3 214 1 -3 4 -46 11 -95 16 -49 6 -107&#xA;12 -129 15 -22 2 -62 7 -90 10 -368 44 -771 134 -1120 251 -373 125 -798 325&#xA;-1081 510 -87 56 -94 59 -94 46z"/>
    <path d="M6430 2913 c239 -262 801 -585 1330 -763 265 -89 587 -161 775 -175&#xA;44 -3 105 -8 135 -10 81 -7 35 10 -80 30 -469 79 -982 248 -1400 461 -260 132&#xA;-447 248 -676 420 -69 52 -128 94 -131 94 -3 0 19 -26 47 -57z"/>
    <path d="M2275 2949 c-229 -21 -424 -139 -544 -326 -86 -137 -115 -346 -65&#xA;-477 7 -17 5 -17 -22 -3 -142 74 -378 26 -511 -102 -78 -76 -97 -118 -98 -221&#xA;0 -47 3 -96 7 -110 l7 -25 -83 3 c-263 11 -462 -176 -375 -354 58 -121 242&#xA;-196 588 -240 107 -13 226 -25 306 -30 50 -3 146 -9 215 -14 217 -14 1319 -5&#xA;1530 13 622 53 888 140 970 315 32 68 26 165 -16 224 -67 97 -203 153 -369&#xA;152 -55 0 -113 -6 -129 -13 -16 -6 -30 -10 -33 -8 -2 2 4 20 12 40 22 52 19&#xA;146 -6 213 -51 135 -181 216 -371 230 -91 7 -185 -11 -247 -47 -18 -11 -35&#xA;-18 -37 -17 -1 2 3 31 10 65 31 148 14 329 -41 422 -54 93 -171 194 -284 246&#xA;-106 48 -285 75 -414 64z m261 -79 c45 -10 99 -27 120 -37 117 -53 237 -164&#xA;282 -260 26 -55 27 -66 27 -208 -1 -135 -4 -159 -28 -239 -27 -88 -28 -109 -3&#xA;-91 7 6 35 27 62 47 145 109 407 103 538 -13 108 -94 122 -251 35 -382 -17&#xA;-26 -29 -50 -26 -53 3 -3 22 3 44 14 133 68 315 70 451 4 136 -66 168 -193 76&#xA;-301 -74 -86 -243 -148 -509 -185 -166 -24 -297 -36 -465 -46 -107 -6 -235&#xA;-13 -285 -15 -116 -7 -976 -7 -1035 -1 -25 3 -112 8 -195 11 -82 4 -163 8&#xA;-180 10 -16 2 -59 6 -95 10 -447 40 -652 105 -716 227 -88 167 205 337 438&#xA;255 32 -12 60 -18 63 -15 3 3 -8 36 -25 74 -17 37 -33 86 -36 109 -13 92 42&#xA;193 139 256 158 102 349 104 486 5 28 -20 53 -31 56 -26 4 6 -5 39 -19 74 -38&#xA;95 -49 161 -43 247 11 136 66 255 166 355 135 135 279 192 486 193 76 1 135&#xA;-5 191 -19z"/>
    <path d="M7000 1914 c-238 -46 -431 -219 -434 -389 0 -30 -1 -55 -1 -55 -73&#xA;35 -172 38 -257 9 -117 -39 -178 -103 -186 -192 l-4 -52 -92 0 c-83 0 -98 -3&#xA;-157 -32 -154 -76 -211 -213 -129 -306 50 -57 180 -112 314 -132 21 -3 48 -7&#xA;60 -10 25 -5 85 -11 281 -27 167 -13 1174 -18 1396 -6 321 17 548 75 624 159&#xA;19 21 37 50 41 64 34 138 -148 264 -317 220 l-49 -13 0 44 c0 52 -28 113 -66&#xA;143 -66 52 -220 67 -321 31 -32 -11 -57 -20 -58 -20 0 0 2 23 3 50 2 28 -4 84&#xA;-13 125 -41 188 -153 308 -339 367 -60 19 -241 32 -296 22z m289 -79 c125 -40&#xA;216 -118 266 -230 45 -100 58 -227 31 -303 -8 -23 -11 -44 -6 -47 4 -3 31 11&#xA;60 30 67 45 117 58 210 53 131 -6 194 -55 194 -151 1 -28 -3 -64 -7 -79 -6&#xA;-24 -4 -28 12 -28 11 0 23 4 26 10 9 15 82 31 141 31 132 0 235 -108 179 -188&#xA;-43 -62 -204 -114 -425 -138 -240 -26 -343 -30 -825 -30 -809 0 -1174 35&#xA;-1317 126 -99 64 -103 137 -10 221 86 78 246 102 320 49 18 -13 36 -21 38 -18&#xA;3 3 0 30 -6 60 -23 101 12 171 108 218 38 18 64 23 138 23 85 1 94 -1 143 -31&#xA;29 -18 56 -33 61 -33 5 0 6 14 2 33 -14 62 -8 160 12 200 100 201 400 302 655&#xA;222z"/>
  </g>
  <title>Airplane Sky</title>
  <desc>Airplane Sky</desc>
</svg>