<?xml version="1.0" encoding="UTF-8" standalone="yes"?>
<svg version="1.0" xmlns="http://www.w3.org/2000/svg" width="1024.000000pt" height="1024.000000pt" viewBox="0 0 1024.000000 1024.000000" preserveAspectRatio="xMidYMid meet">
  <metadata>
Created by potrace 1.16, written by Peter Selinger 2001-2019
</metadata>
  <g transform="translate(0.000000,1024.000000) scale(0.100000,-0.100000)" fill="#000000" stroke="none">
    <path d="M2348 9685 c-2 -2 -23 -6 -48 -9 -62 -7 -80 -12 -123 -30 -20 -8 -37&#xA;-12 -37 -8 0 4 -4 3 -8 -3 -4 -5 -33 -23 -65 -39 -85 -43 -187 -142 -230 -223&#xA;-38 -73 -67 -161 -67 -202 l0 -26 -122 0 c-171 0 -243 -19 -334 -86 -137 -101&#xA;-218 -305 -167 -420 38 -86 121 -143 258 -177 74 -18 112 -24 265 -37 64 -6&#xA;1263 -6 1395 0 50 2 159 6 242 9 283 11 431 57 525 164 73 84 77 185 11 281&#xA;-31 46 -51 62 -108 91 -43 22 -88 36 -115 38 -73 4 -224 2 -240 -3 -13 -4 -14&#xA;7 -12 72 5 117 -32 224 -93 269 -15 10 -32 24 -39 29 -6 6 -36 22 -66 35 -67&#xA;29 -151 34 -240 15 -36 -8 -68 -14 -72 -15 -3 0 -17 19 -31 43 -50 84 -165&#xA;177 -257 205 -57 18 -212 36 -222 27z m143 -85 c135 -25 244 -113 305 -246 32&#xA;-69 37 -75 62 -72 24 3 27 7 24 35 -3 31 -2 32 54 43 143 30 287 -28 340 -136&#xA;32 -65 36 -168 11 -251 l-16 -53 25 -6 c14 -4 39 1 58 10 71 34 268 21 353&#xA;-22 132 -69 152 -211 41 -296 -41 -31 -112 -63 -157 -71 -19 -3 -37 -8 -41&#xA;-10 -3 -2 -44 -9 -91 -15 -228 -28 -1891 -34 -1938 -6 -3 2 -27 7 -53 10 -94&#xA;13 -196 62 -242 117 -22 26 -26 40 -26 98 0 56 6 79 30 129 43 84 129 163 212&#xA;192 86 30 257 39 312 16 61 -25 66 -23 66 37 0 112 61 248 152 339 60 60 200&#xA;137 283 157 55 12 171 13 236 1z"/>
    <path d="M8127 9554 c-1 -1 -25 -5 -52 -8 -28 -3 -69 -12 -93 -20 -23 -8 -42&#xA;-13 -42 -11 0 7 -92 -39 -135 -67 -59 -38 -143 -124 -187 -192 -40 -62 -78&#xA;-167 -78 -216 l0 -28 -73 5 c-125 9 -239 -31 -327 -113 -55 -51 -75 -106 -68&#xA;-181 l5 -48 -75 1 c-151 2 -262 -44 -323 -134 -80 -118 -40 -243 98 -304 75&#xA;-33 245 -58 458 -66 254 -9 855 -9 1225 0 251 6 629 30 700 43 14 3 48 8 75&#xA;11 73 9 195 49 234 78 83 62 111 153 73 237 -42 91 -114 129 -260 137 -79 4&#xA;-92 7 -87 20 14 37 16 102 5 137 -16 48 -79 111 -139 138 -36 16 -67 21 -141&#xA;21 -89 0 -112 -5 -191 -38 -14 -6 -17 6 -21 96 -9 190 -84 320 -243 423 -57&#xA;37 -118 60 -185 70 -47 6 -149 13 -153 9z m178 -94 c43 -11 97 -31 119 -44 91&#xA;-54 168 -156 200 -266 18 -62 22 -216 7 -268 -14 -48 6 -50 81 -8 91 50 177&#xA;64 264 43 68 -17 125 -52 144 -88 22 -39 15 -113 -13 -162 -29 -49 -34 -77&#xA;-14 -77 6 0 34 7 61 15 118 36 281 -3 326 -78 33 -54 23 -107 -31 -159 -45&#xA;-45 -165 -79 -319 -93 -41 -3 -91 -8 -110 -10 -19 -2 -80 -7 -135 -10 -55 -3&#xA;-129 -7 -165 -10 -236 -17 -1306 -24 -1520 -11 -171 11 -275 24 -335 40 -98&#xA;27 -161 73 -167 123 -10 86 43 156 148 192 60 22 77 23 186 18 l120 -5 -8 41&#xA;c-15 73 -10 150 12 188 43 74 182 126 308 115 39 -3 85 -7 101 -8 l30 -3 7 77&#xA;c12 128 61 223 170 323 137 127 340 174 533 125z"/>
    <path d="M5496 8254 c-149 -35 -243 -81 -322 -159 -35 -35 -71 -82 -85 -113&#xA;-23 -51 -25 -52 -58 -46 -114 19 -224 -2 -350 -69 -185 -99 -275 -230 -241&#xA;-355 14 -56 73 -105 153 -127 79 -23 276 -31 677 -28 724 6 923 52 975 226 32&#xA;107 -13 211 -110 260 -38 19 -125 37 -176 37 l-40 0 7 59 c11 102 -36 238 -98&#xA;282 -65 47 -211 61 -332 33z m277 -77 c70 -39 113 -176 87 -277 -23 -89 -27&#xA;-85 80 -86 81 0 104 -4 152 -26 68 -31 98 -73 98 -135 0 -52 -12 -84 -43 -116&#xA;-72 -71 -204 -96 -597 -113 -114 -4 -824 -5 -850 0 -14 3 -38 7 -55 9 -51 8&#xA;-114 38 -135 65 -43 54 -8 167 74 239 26 23 91 63 144 90 96 47 99 48 207 51&#xA;92 3 113 1 124 -12 22 -26 40 -18 51 22 27 101 115 197 225 247 159 73 350 91&#xA;438 42z"/>
    <path d="M1960 7994 c-30 -8 -62 -16 -70 -18 -8 -3 -17 -5 -20 -5 -21 -3 -138&#xA;-109 -145 -131 -5 -16 -11 -17 -43 -8 -84 23 -249 -13 -327 -72 -80 -61 -165&#xA;-188 -165 -248 0 -21 -3 -22 -57 -19 -65 4 -122 -10 -193 -49 -61 -33 -108&#xA;-83 -152 -160 -30 -53 -33 -67 -33 -139 0 -69 4 -87 28 -129 28 -51 28 -52&#xA;-14 -106 -43 -54 -87 -151 -95 -207 -13 -104 45 -201 152 -254 40 -19 67 -24&#xA;142 -26 51 -1 103 1 115 6 12 4 34 11 50 15 23 5 27 3 27 -15 0 -34 52 -97 98&#xA;-120 35 -17 55 -20 100 -16 32 3 66 9 77 12 17 5 23 -1 35 -36 9 -25 30 -54&#xA;52 -72 33 -27 47 -31 117 -35 78 -4 79 -5 85 -34 3 -17 6 -70 6 -118 0 -98 7&#xA;-88 -100 -131 -30 -12 -74 -30 -97 -40 -24 -11 -46 -19 -49 -19 -3 0 -20 -6&#xA;-37 -14 -18 -8 -84 -35 -147 -60 -63 -26 -139 -58 -168 -71 -29 -14 -54 -25&#xA;-56 -25 -1 0 -3 14 -4 31 -1 42 -47 133 -77 153 -79 52 -218 57 -317 13 -56&#xA;-25 -69 -33 -110 -70 -11 -10 -21 -17 -22 -15 -1 2 -10 19 -20 38 -19 38 -73&#xA;81 -121 97 -41 13 -152 7 -217 -12 -29 -8 -82 -30 -118 -48 -60 -30 -65 -35&#xA;-68 -68 l-3 -36 88 43 c183 92 343 81 398 -26 8 -16 17 -39 18 -52 6 -36 29&#xA;-32 77 13 25 23 76 57 115 75 80 39 140 43 220 16 41 -14 54 -25 74 -61 14&#xA;-26 27 -69 30 -105 6 -66 22 -79 65 -57 143 74 282 41 310 -72 9 -36 30 -44&#xA;71 -24 83 40 185 26 215 -28 28 -52 41 -38 66 72 33 148 39 215 39 433 0 244&#xA;-12 337 -75 574 -12 43 -20 80 -18 81 2 2 21 6 43 9 l40 7 64 -196 c71 -219&#xA;81 -231 121 -147 60 124 76 166 111 285 35 119 41 132 78 164 85 73 77 117&#xA;-10 59 -65 -43 -118 -50 -171 -24 -20 10 -39 22 -43 28 -13 21 -45 10 -61 -21&#xA;-11 -23 -35 -40 -89 -65 -41 -19 -85 -34 -99 -34 -53 0 -127 23 -166 51 -46&#xA;34 -56 32 -46 -5 8 -33 64 -77 123 -97 l48 -16 38 -169 c44 -199 44 -218 2&#xA;-222 -81 -10 -162 54 -157 123 4 41 -14 53 -50 34 -33 -18 -149 -14 -187 6&#xA;-18 9 -40 30 -51 47 -17 29 -18 34 -4 66 22 53 6 61 -69 35 -120 -43 -225 -46&#xA;-308 -9 -74 33 -102 75 -102 153 0 74 57 188 118 239 25 20 45 40 45 44 0 4&#xA;-15 23 -34 42 -63 65 -70 153 -20 255 27 57 68 97 141 140 41 24 59 28 118 27&#xA;39 0 79 -5 90 -11 32 -17 45 -5 45 42 0 23 8 67 17 96 21 67 96 144 180 185&#xA;52 26 68 29 153 28 52 0 107 -4 122 -8 22 -7 27 -4 33 16 31 100 167 170 335&#xA;170 138 0 235 -36 304 -112 57 -63 78 -120 85 -230 l6 -95 30 3 c17 2 62 4&#xA;100 4 107 2 189 -41 220 -115 17 -41 20 -145 6 -194 -12 -43 -4 -47 89 -48 61&#xA;-1 86 -6 125 -26 55 -28 107 -95 125 -157 16 -60 12 -172 -9 -217 -34 -75&#xA;-116 -122 -192 -110 -53 8 -66 -6 -45 -49 9 -19 17 -59 18 -88 4 -87 -12 -131&#xA;-59 -168 -89 -70 -206 -67 -320 8 -57 36 -73 35 -73 -5 0 -42 -74 -108 -144&#xA;-128 -55 -16 -138 -17 -153 -1 -7 7 48 176 101 306 l34 85 52 8 c60 8 90 22&#xA;90 41 0 11 -17 14 -72 13 -40 -1 -84 3 -97 7 -22 9 -24 7 -18 -20 3 -17 -2&#xA;-42 -13 -64 -45 -89 -122 -320 -145 -436 -39 -194 -31 -450 21 -697 8 -38 14&#xA;-70 14 -73 0 -10 30 -3 37 10 14 24 96 66 131 66 62 0 122 -57 122 -117 0 -11&#xA;6 -28 14 -39 13 -16 18 -17 33 -6 48 33 107 54 140 49 46 -8 61 -22 69 -63 10&#xA;-54 23 -56 86 -17 104 65 231 54 286 -24 23 -34 43 -91 34 -96 -4 -2 -531 -4&#xA;-1172 -5 -641 -1 -1214 -4 -1275 -7 -60 -3 -175 -7 -255 -10 -80 -3 -199 -8&#xA;-265 -11 -66 -4 -128 -6 -137 -6 -14 1 -18 -7 -18 -30 l0 -30 153 6 c83 4 188&#xA;9 232 11 234 11 692 16 1715 20 1365 6 4362 7 4367 2 2 -2 -54 -55 -124 -118&#xA;-70 -63 -144 -130 -164 -149 -20 -19 -56 -52 -80 -72 -24 -20 -66 -58 -94 -83&#xA;-100 -94 -100 -94 -221 -100 -60 -3 -120 -7 -134 -10 -14 -2 -72 -7 -130 -10&#xA;-58 -3 -123 -8 -145 -10 -22 -2 -80 -7 -130 -10 -49 -3 -101 -8 -115 -10 -14&#xA;-2 -97 -9 -185 -15 -88 -6 -180 -12 -205 -15 -25 -2 -79 -7 -120 -11 -41 -3&#xA;-86 -7 -100 -9 -14 -2 -63 -6 -110 -9 -47 -4 -105 -9 -130 -11 -25 -3 -88 -7&#xA;-140 -10 -52 -3 -111 -8 -130 -10 -19 -3 -69 -7 -110 -10 -73 -5 -275 -21&#xA;-395 -30 -226 -17 -312 -20 -570 -20 -385 0 -614 14 -642 39 -6 6 -26 22 -45&#xA;36 -35 26 -129 114 -237 221 -168 167 -273 214 -347 157 -73 -57 -264 -298&#xA;-334 -423 -84 -148 -112 -203 -158 -306 -107 -242 -191 -585 -192 -781 0 -166&#xA;40 -371 95 -479 22 -42 91 -146 117 -173 19 -21 19 -21 -4 -30 -195 -76 -257&#xA;-179 -162 -268 47 -43 204 -117 339 -159 100 -31 304 -77 420 -95 131 -20 316&#xA;-25 322 -7 4 12 -38 21 -192 39 -33 3 -69 8 -80 10 -11 3 -58 11 -105 19 -300&#xA;53 -604 159 -681 236 -46 46 -10 111 86 155 97 45 113 43 186 -15 149 -121&#xA;404 -204 789 -257 162 -22 662 -30 899 -14 102 7 193 13 201 15 8 1 74 6 145&#xA;10 72 4 138 9 147 10 10 2 62 6 115 10 l98 6 45 -42 c56 -52 187 -137 260&#xA;-169 44 -19 74 -24 145 -24 80 -1 97 2 149 28 60 29 134 89 264 214 80 77 74&#xA;75 247 87 44 3 118 10 165 15 47 5 173 16 280 25 175 14 428 38 535 51 160 19&#xA;492 61 540 69 17 3 46 7 65 10 19 2 64 8 100 14 36 5 85 13 110 16 25 3 95 15&#xA;155 26 61 11 133 24 160 29 172 31 609 131 784 181 374 106 488 144 661 222&#xA;190 85 350 189 467 300 l52 50 80 -6 c125 -10 236 -43 284 -85 10 -9 17 -29&#xA;17 -50 0 -29 -8 -43 -50 -82 -67 -62 -225 -145 -375 -195 -107 -36 -270 -85&#xA;-360 -109 -213 -57 -292 -82 -301 -97 -25 -41 450 71 694 163 232 87 411 205&#xA;437 288 33 103 -92 182 -327 206 l-67 7 22 31 c12 17 28 37 35 44 19 21 107&#xA;208 125 267 27 88 48 252 46 361 -4 182 -62 467 -124 609 -39 88 -94 194 -121&#xA;234 -13 20 -24 40 -24 45 0 8 570 0 618 -8 9 -2 78 -7 152 -11 74 -4 141 -8&#xA;150 -10 8 -1 66 -6 128 -10 63 -3 126 -8 140 -10 15 -2 57 -6 95 -10 l67 -7 0&#xA;29 c0 17 -6 30 -12 31 -7 0 -47 3 -88 6 -41 4 -97 8 -125 11 -27 2 -90 7 -140&#xA;10 -49 3 -115 8 -145 10 -49 3 -143 9 -345 20 -33 2 -170 7 -304 11 l-243 7&#xA;-34 37 c-68 75 -201 104 -281 63 -21 -11 -51 -38 -66 -61 l-28 -41 -77 4 c-42&#xA;2 -203 6 -357 10 -154 4 -282 8 -283 10 -2 2 11 31 28 64 54 100 161 184 251&#xA;196 54 7 128 -10 145 -33 17 -23 38 -9 63 40 27 52 66 95 104 114 30 16 51 9&#xA;91 -27 32 -30 48 -23 100 44 114 145 248 218 400 217 112 -1 164 -26 212 -102&#xA;14 -21 29 -38 35 -38 6 0 29 16 52 35 52 45 101 48 138 9 13 -14 23 -34 21&#xA;-45 -7 -41 27 -32 76 19 135 144 402 162 489 33 13 -19 26 -51 29 -72 8 -46&#xA;24 -54 66 -30 46 26 134 43 185 35 42 -6 43 -6 43 23 0 21 -5 30 -17 31 -74 7&#xA;-154 -3 -195 -24 -25 -13 -27 -13 -33 16 -10 47 -58 103 -113 133 -40 22 -67&#xA;28 -127 31 -139 6 -243 -26 -324 -99 l-38 -35 -19 21 c-55 61 -155 63 -204 4&#xA;-11 -14 -15 -12 -31 14 -36 60 -141 108 -240 109 -65 2 -165 -26 -244 -66 -50&#xA;-26 -95 -62 -157 -125 -49 -48 -88 -84 -88 -79 0 32 -114 39 -144 10 -7 -7&#xA;-29 -25 -48 -41 -20 -15 -41 -41 -48 -57 -7 -17 -14 -30 -16 -30 -2 0 -22 7&#xA;-44 16 -86 35 -233 -7 -321 -90 -48 -45 -98 -118 -120 -175 l-17 -46 -304 2&#xA;c-166 1 -307 2 -312 2 -5 1 47 55 115 121 107 103 125 117 139 106 72 -63 211&#xA;-58 272 10 27 30 48 89 48 132 0 114 -145 299 -288 369 -122 60 -268 35 -328&#xA;-56 -22 -34 -26 -49 -22 -90 3 -27 17 -73 33 -102 l28 -53 -79 -73 c-44 -40&#xA;-89 -76 -102 -79 -13 -4 -59 4 -105 17 -45 13 -84 24 -87 25 -3 0 -12 3 -20 7&#xA;-8 3 -31 10 -50 15 -19 6 -89 27 -155 47 -66 20 -127 39 -135 40 -8 2 -15 4&#xA;-15 5 0 1 -7 3 -15 5 -14 3 -339 116 -370 129 -29 11 -236 89 -308 115 l-72&#xA;27 87 22 c321 81 693 223 1263 485 41 19 143 65 225 102 83 37 236 107 340&#xA;155 932 428 1450 560 2000 510 265 -24 561 -92 732 -170 36 -17 67 -30 69 -30&#xA;2 0 4 17 4 39 0 37 -3 40 -48 59 -110 48 -269 94 -432 126 -124 25 -134 26&#xA;-170 32 -19 2 -45 6 -57 9 -36 6 -262 19 -338 19 -85 0 -305 -19 -355 -30 -14&#xA;-3 -43 -8 -65 -10 -60 -8 -299 -67 -357 -89 -20 -8 -47 -16 -60 -19 -44 -9&#xA;-450 -161 -535 -201 -17 -8 -33 -15 -36 -15 -2 0 -44 -19 -93 -42 -49 -23 -93&#xA;-42 -99 -44 -5 -1 -50 -21 -100 -44 -49 -23 -115 -54 -145 -67 -30 -14 -89&#xA;-41 -130 -60 -194 -91 -432 -198 -495 -225 -71 -29 -185 -79 -285 -126 -52&#xA;-23 -241 -101 -395 -162 -38 -15 -81 -32 -95 -37 -14 -6 -29 -12 -35 -13 -5&#xA;-2 -48 -16 -95 -33 -47 -16 -98 -33 -115 -37 -16 -5 -81 -23 -144 -40 -123&#xA;-34 -113 -34 -216 10 -22 10 -100 43 -174 75 -74 31 -142 61 -150 66 -9 4&#xA;-108 47 -221 94 -113 47 -245 103 -295 125 -252 108 -493 184 -675 215 -81 13&#xA;-403 15 -455 2 -11 -3 -42 -8 -70 -11 -95 -13 -114 -17 -191 -41 -42 -14 -80&#xA;-25 -83 -25 -3 0 -6 29 -6 65 -1 64 -1 64 30 71 81 17 166 92 184 161 65 249&#xA;-51 461 -264 480 l-61 5 4 67 c2 36 -1 85 -7 107 -13 48 -82 131 -117 140 -13&#xA;3 -24 9 -24 13 0 13 -98 31 -165 31 l-63 0 -1 53 c-2 158 -93 284 -253 348&#xA;-67 27 -245 34 -328 13z m-14 -1279 c16 -8 46 -15 67 -15 44 0 45 10 -14 -170&#xA;-49 -151 -71 -202 -77 -175 -2 10 -24 79 -48 152 l-44 132 43 45 c23 25 43 45&#xA;43 46 1 0 15 -7 30 -15z m1905 -269 c106 -22 109 -22 190 -46 126 -37 325&#xA;-110 459 -168 25 -11 133 -57 240 -102 107 -45 218 -93 245 -105 28 -13 111&#xA;-49 185 -80 74 -30 155 -65 180 -75 42 -18 289 -115 370 -145 287 -107 765&#xA;-263 970 -316 97 -25 107 -31 87 -50 -51 -50 -212 -196 -224 -203 -8 -4 -770&#xA;-9 -1693 -11 l-1678 -2 -7 35 c-8 44 -42 112 -64 130 -9 7 -41 24 -71 39 -46&#xA;21 -64 25 -116 20 -41 -3 -78 -13 -108 -30 l-46 -25 -12 26 c-22 46 -71 71&#xA;-129 66 -28 -2 -63 -11 -79 -19 -37 -19 -37 -19 -44 11 -27 104 -151 150 -258&#xA;94 -22 -11 -42 -19 -44 -17 -10 9 -26 205 -31 370 -4 135 -2 181 7 192 20 24&#xA;128 81 200 107 63 22 151 91 162 127 3 11 14 9 49 -12 50 -29 151 -50 201 -42&#xA;56 10 136 54 173 97 19 23 35 45 35 49 0 21 247 83 397 99 116 12 361 4 454&#xA;-14z m-1633 -320 c-35 -24 -44 -19 -34 19 6 22 9 23 36 13 l30 -10 -32 -22z&#xA;m-496 -332 c-3 -74 -28 -254 -36 -261 -2 -2 -17 4 -35 13 -32 16 -126 16 -176&#xA;-1 -16 -5 -24 1 -39 29 -21 40 -81 84 -127 93 -17 3 -27 9 -22 14 4 4 92 41&#xA;195 83 103 41 196 79 205 85 31 18 38 6 35 -55z m5573 32 c120 -55 245 -213&#xA;245 -311 0 -68 -59 -125 -129 -125 -33 0 -101 28 -101 42 0 5 11 26 25 48 28&#xA;45 30 50 13 50 -11 0 -45 -30 -213 -189 -86 -81 -264 -245 -304 -280 -24 -21&#xA;-209 -191 -230 -212 -28 -27 -164 -152 -260 -239 -99 -89 -118 -107 -197 -180&#xA;-27 -25 -101 -90 -164 -144 -63 -54 -122 -106 -130 -115 -8 -9 -80 -75 -160&#xA;-146 -79 -72 -152 -137 -160 -145 -25 -23 -87 -77 -170 -150 -41 -36 -81 -72&#xA;-90 -80 -26 -24 -115 -103 -146 -129 -16 -13 -88 -79 -159 -145 -72 -67 -182&#xA;-168 -245 -226 -63 -58 -160 -148 -215 -200 -56 -52 -169 -159 -253 -238 -84&#xA;-79 -152 -150 -152 -159 0 -11 6 -10 27 7 28 22 322 282 379 336 17 16 80 74&#xA;140 129 60 55 138 127 174 161 56 53 193 176 324 294 22 19 47 42 56 50 9 8&#xA;47 42 85 75 39 33 88 77 110 97 22 21 43 38 46 38 10 0 -39 -209 -67 -290 -49&#xA;-137 -113 -241 -283 -455 -94 -119 -111 -138 -227 -265 -33 -36 -73 -80 -89&#xA;-99 -70 -80 -355 -363 -413 -410 -75 -60 -122 -75 -220 -68 -58 4 -85 12 -136&#xA;41 -154 86 -369 285 -421 389 -54 109 -27 167 169 362 120 119 184 177 386&#xA;349 14 12 66 55 115 95 163 135 260 216 285 239 37 34 233 163 330 216 95 53&#xA;172 85 275 115 167 48 180 69 -193 -305 -320 -321 -433 -446 -418 -461 4 -4&#xA;129 115 279 264 322 320 487 479 657 633 69 63 157 144 195 180 39 36 106 97&#xA;149 135 44 39 89 79 102 90 43 39 180 162 274 244 52 47 122 110 155 140 33&#xA;31 93 85 134 121 41 36 102 90 135 120 34 30 120 107 191 170 164 146 355 330&#xA;355 343 0 5 -19 7 -44 5 -40 -5 -45 -3 -56 20 -15 34 -23 98 -16 127 11 44 86&#xA;77 158 71 20 -2 62 -15 93 -30z m1430 -690 c20 -15 39 -35 42 -43 13 -32 -61&#xA;-285 -122 -418 -67 -147 -201 -315 -329 -412 -33 -26 -63 -50 -66 -53 -22 -24&#xA;-291 -170 -314 -170 -3 0 -29 -11 -58 -24 -52 -23 -75 -31 -248 -82 -109 -33&#xA;-327 -87 -455 -113 -113 -23 -489 -88 -550 -95 -80 -9 -141 -17 -195 -26 -55&#xA;-9 -130 -18 -205 -25 -61 -5 -147 -15 -175 -20 -14 -2 -59 -7 -100 -10 -41 -3&#xA;-91 -7 -110 -10 -19 -2 -73 -7 -120 -10 -47 -3 -116 -8 -154 -11 l-68 -6 6 43&#xA;c4 24 9 68 13 97 5 44 9 52 27 53 11 0 28 2 36 3 19 4 104 12 455 41 155 13&#xA;235 22 355 40 14 2 57 7 95 11 39 3 72 8 75 9 3 2 33 6 65 10 33 3 141 20 240&#xA;36 99 17 194 32 210 35 94 14 422 90 539 124 448 131 751 355 901 665 44 92&#xA;79 197 73 217 -2 6 -36 -16 -74 -49 -175 -151 -419 -279 -659 -346 -112 -31&#xA;-172 -45 -222 -53 -21 -3 -101 -16 -178 -29 -77 -13 -165 -26 -195 -30 -30 -3&#xA;-66 -8 -80 -10 -14 -2 -79 -9 -145 -15 -66 -6 -149 -14 -185 -18 -36 -4 -87&#xA;-5 -115 -3 -96 7 -291 5 -394 -3 l-104 -8 55 49 c54 50 56 50 149 62 52 6 195&#xA;20 319 31 747 66 1105 138 1416 285 61 29 128 64 149 78 55 38 163 143 180&#xA;177 25 49 53 62 121 58 49 -3 69 -10 99 -32z m-593 -61 c11 -2 69 -5 129 -6&#xA;60 -1 109 -4 109 -8 -1 -13 -97 -80 -172 -119 -131 -70 -305 -134 -458 -168&#xA;-36 -8 -74 -17 -85 -20 -11 -3 -49 -9 -85 -15 -36 -5 -71 -11 -78 -14 -7 -3&#xA;-61 -12 -120 -20 -133 -20 -146 -22 -202 -30 -25 -4 -56 -8 -70 -10 -45 -7&#xA;-134 -15 -205 -20 -38 -3 -88 -7 -110 -10 -22 -2 -76 -7 -120 -10 -44 -3 -113&#xA;-8 -154 -11 l-74 -6 84 73 c46 41 124 113 174 160 49 47 115 109 145 136 30&#xA;27 71 64 90 82 l35 32 573 -6 c316 -4 583 -8 594 -10z m792 -230 c62 -127 102&#xA;-238 111 -310 6 -47 3 -55 -43 -131 -101 -169 -262 -349 -433 -486 -190 -153&#xA;-370 -254 -684 -385 -71 -29 -139 -58 -150 -63 -24 -11 -116 -40 -210 -68&#xA;-165 -50 -250 -74 -265 -77 -8 -2 -53 -12 -100 -24 -102 -25 -307 -67 -370&#xA;-76 -25 -4 -58 -10 -75 -15 -16 -5 -50 -12 -75 -15 -25 -3 -52 -8 -60 -10 -18&#xA;-5 -363 -54 -495 -70 -98 -12 -407 -44 -480 -50 -44 -4 -90 -8 -101 -10 -12&#xA;-2 -68 -6 -125 -10 -57 -3 -114 -8 -126 -11 -13 -2 -23 -1 -23 4 0 4 23 39 51&#xA;77 65 91 113 175 154 276 l33 81 36 -48 c78 -102 265 -284 292 -284 9 0 33 17&#xA;53 38 51 54 187 261 241 365 l14 29 19 -24 c124 -155 306 -332 355 -344 12 -4&#xA;30 0 39 7 45 37 253 399 253 440 0 6 17 -8 39 -32 120 -137 298 -289 338 -289&#xA;15 0 34 17 63 58 43 59 168 300 189 363 l12 36 71 -68 c73 -70 202 -167 257&#xA;-195 23 -11 35 -13 51 -4 34 18 147 259 180 385 7 28 14 52 16 54 1 1 15 -10&#xA;31 -25 51 -51 127 -115 156 -130 22 -12 32 -13 43 -3 15 12 19 39 6 39 -6 0&#xA;-170 125 -195 150 -5 4 28 26 73 49 223 113 404 267 536 457 66 94 177 368&#xA;191 473 l6 44 24 -29 c12 -16 47 -78 77 -139z m-7109 -104 c28 -16 100 -78&#xA;160 -136 243 -236 359 -320 659 -479 174 -93 421 -180 666 -235 203 -46 494&#xA;-93 650 -105 36 -3 112 -10 170 -16 58 -5 184 -12 280 -16 96 -4 176 -8 177&#xA;-9 2 -1 -18 -17 -45 -35 -26 -19 -75 -58 -109 -88 l-63 -54 -117 6 c-153 8&#xA;-384 26 -403 31 -8 2 -44 7 -80 10 -112 10 -367 54 -520 90 -309 72 -590 173&#xA;-782 281 -31 18 -66 35 -77 39 -12 3 -21 11 -21 16 0 5 -4 9 -10 9 -19 0 -295&#xA;187 -346 235 -6 5 -51 46 -100 90 -49 44 -137 127 -196 184 l-107 104 54 53&#xA;c65 64 87 67 160 25z m-172 -343 c-83 -103 -93 -118 -162 -255 -54 -108 -133&#xA;-307 -145 -367 -3 -12 -14 -59 -26 -106 -78 -303 -58 -604 55 -835 82 -169&#xA;197 -291 348 -371 38 -20 66 -38 64 -41 -11 -10 -218 62 -302 105 -114 60&#xA;-262 200 -320 305 -36 67 -76 175 -90 247 -14 74 -17 312 -6 388 41 261 131&#xA;526 258 762 50 92 155 257 211 332 l36 48 69 -69 70 -69 -60 -74z m4161 90&#xA;c-5 -7 -20 -22 -34 -34 -14 -12 -38 -34 -55 -49 -51 -44 -76 -52 -190 -59 -60&#xA;-4 -130 -9 -155 -11 -25 -2 -81 -6 -125 -10 -127 -9 -263 -20 -365 -30 -42 -4&#xA;-204 -18 -350 -30 -36 -3 -74 -8 -85 -10 -19 -3 -67 -7 -300 -21 -49 -3 -108&#xA;-7 -130 -9 -38 -4 -196 -20 -295 -30 -44 -4 -131 -12 -220 -20 -116 -10 -277&#xA;-17 -525 -20 l-269 -4 -91 48 c-116 61 -183 105 -164 109 8 1 75 -2 149 -7&#xA;129 -8 647 -6 700 3 14 2 84 7 155 11 72 3 148 8 170 10 22 2 101 9 175 15 74&#xA;6 160 12 190 15 30 2 118 9 195 15 228 18 247 19 315 25 36 4 79 8 95 10 17 2&#xA;73 6 125 10 105 7 303 23 365 30 22 2 78 7 125 10 47 3 130 10 185 15 55 5&#xA;154 12 220 16 66 3 122 8 124 10 2 2 20 4 38 4 25 0 32 -3 27 -12z m-3984&#xA;-129 c199 -188 354 -298 610 -437 133 -72 406 -184 480 -197 18 -3 40 -10 50&#xA;-15 9 -5 28 -11 41 -14 112 -24 246 -61 255 -70 6 -6 19 -33 29 -61 22 -62&#xA;145 -310 192 -387 23 -38 41 -58 53 -58 24 0 113 76 299 256 79 76 147 140&#xA;151 142 3 1 12 -14 18 -35 6 -21 25 -65 42 -98 l31 -60 -38 -34 c-21 -19 -58&#xA;-52 -83 -75 -25 -22 -75 -68 -111 -102 l-66 -61 -59 8 c-33 4 -86 10 -119 13&#xA;-146 14 -487 61 -585 81 -14 2 -36 7 -50 10 -14 2 -36 6 -50 9 -14 2 -59 11&#xA;-100 19 -41 9 -86 18 -100 21 -158 30 -526 138 -710 209 -239 92 -610 302&#xA;-610 345 0 27 85 247 134 347 57 116 190 314 211 314 6 0 44 -31 85 -70z&#xA;m7261 -81 c38 -329 -54 -622 -261 -828 -36 -36 -87 -84 -115 -106 -52 -42&#xA;-205 -138 -265 -166 -213 -100 -313 -138 -547 -208 -165 -50 -333 -96 -383&#xA;-106 -14 -3 -59 -14 -101 -24 -92 -24 -315 -72 -394 -86 -16 -3 -61 -12 -100&#xA;-21 -77 -16 -94 -19 -145 -27 -19 -3 -46 -8 -60 -11 -14 -3 -45 -8 -70 -11&#xA;-25 -3 -52 -7 -60 -9 -21 -6 -79 -16 -115 -20 -32 -3 -113 -14 -155 -20 -14&#xA;-2 -43 -6 -65 -9 -179 -24 -277 -36 -320 -41 -27 -3 -81 -10 -120 -15 -38 -5&#xA;-95 -12 -125 -15 -48 -4 -163 -17 -280 -30 -19 -2 -78 -7 -130 -10 -52 -3&#xA;-108 -7 -125 -10 -16 -2 -66 -7 -110 -10 -44 -3 -131 -10 -193 -16 -63 -6&#xA;-115 -9 -117 -7 -2 2 13 21 33 43 65 70 226 250 269 301 23 27 58 67 78 89 21&#xA;22 45 50 54 61 14 18 32 22 116 28 351 24 481 37 975 96 137 16 390 56 480 75&#xA;14 3 72 14 130 25 710 130 1356 385 1725 684 172 138 359 349 446 503 30 52&#xA;33 45 50 -99z m-2411 103 c14 -6 95 -31 180 -55 332 -96 610 -181 610 -186 0&#xA;-6 -141 -41 -215 -54 -21 -4 -93 -18 -110 -21 -5 -2 -73 -15 -150 -29 -77 -15&#xA;-148 -29 -158 -31 -10 -2 -51 8 -90 22 -40 13 -76 26 -82 27 -5 2 -17 6 -25 9&#xA;-8 4 -67 24 -130 46 -63 21 -146 51 -185 65 -38 15 -112 41 -164 59 l-94 31&#xA;53 47 c59 52 45 48 325 79 95 10 200 6 235 -9z m-2361 -223 c58 -26 64 -29&#xA;191 -78 58 -23 125 -51 150 -62 25 -11 72 -31 105 -43 33 -13 72 -30 87 -37&#xA;l26 -14 -61 -34 c-34 -18 -78 -44 -97 -57 -35 -23 -37 -23 -240 -18 -198 6&#xA;-206 7 -271 36 -37 16 -70 29 -73 29 -3 0 -59 23 -123 51 -65 28 -131 57 -148&#xA;64 -215 88 -282 121 -267 126 9 4 67 12 127 18 61 7 124 14 140 16 17 2 62 7&#xA;100 10 277 27 278 27 354 -7z m3621 -201 c0 -1 -14 -43 -31 -92 -32 -90 -121&#xA;-279 -137 -289 -5 -3 -26 7 -48 21 -60 40 -263 193 -269 203 -3 5 14 14 37 20&#xA;106 29 310 92 364 114 54 22 84 30 84 23z m-573 -174 c-3 -5 -21 -42 -40 -83&#xA;-30 -65 -86 -165 -153 -277 -10 -18 -24 -33 -31 -33 -17 0 -137 100 -241 203&#xA;l-94 92 34 7 c18 4 121 23 229 42 108 20 213 40 235 45 51 12 66 13 61 4z&#xA;m-5697 -257 c247 -136 545 -246 893 -330 144 -35 413 -90 497 -101 25 -3 74&#xA;-11 110 -16 36 -6 87 -12 115 -14 27 -2 66 -7 85 -10 55 -9 99 -14 190 -21 47&#xA;-4 92 -8 100 -10 8 -1 30 -3 47 -3 l33 -1 -78 -81 c-92 -96 -128 -147 -146&#xA;-208 -28 -96 -6 -172 85 -288 27 -35 44 -64 37 -64 -7 -1 -22 -3 -33 -4 -11&#xA;-1 -81 -6 -155 -9 -74 -4 -142 -9 -150 -11 -8 -2 -69 -7 -135 -10 -66 -4 -138&#xA;-8 -160 -10 -94 -9 -539 -5 -645 5 -288 28 -527 98 -672 198 -286 197 -423&#xA;600 -344 1012 8 41 17 82 20 90 2 8 7 27 10 42 l6 27 103 -68 c56 -38 140 -90&#xA;187 -115z m5054 107 c-15 -27 -39 -68 -54 -93 -27 -45 -71 -121 -100 -172 -8&#xA;-15 -30 -48 -48 -73 l-33 -47 -37 32 c-61 52 -272 263 -294 293 -10 15 -16 28&#xA;-11 28 4 1 24 3 43 5 133 14 351 43 490 63 30 5 59 9 63 10 4 0 -4 -20 -19&#xA;-46z m-3264 -37 c149 -27 349 -54 423 -57 26 -2 47 -5 47 -9 0 -5 -261 -250&#xA;-340 -319 -25 -22 -38 -27 -47 -19 -7 6 -41 63 -74 127 -34 64 -84 158 -111&#xA;209 -27 50 -45 92 -41 92 4 0 69 -11 143 -24z m2570 -72 c-100 -162 -216 -324&#xA;-233 -324 -7 0 -80 70 -164 155 -154 156 -168 179 -119 190 11 2 75 7 141 10&#xA;66 4 172 13 235 19 63 7 130 14 147 15 l33 1 -40 -66z m-1797 -13 c31 -1 57&#xA;-4 57 -8 0 -5 -13 -17 -29 -28 -16 -11 -52 -39 -81 -62 -28 -24 -55 -43 -58&#xA;-43 -6 0 -82 142 -82 153 0 1 30 0 68 -4 37 -5 93 -8 125 -8z"/>
    <path d="M3310 4790 c-25 -5 -58 -11 -75 -15 -53 -12 -238 -14 -298 -3 -71 12&#xA;-97 -1 -49 -26 43 -22 76 -28 184 -33 67 -3 123 0 176 11 105 21 159 20 278&#xA;-5 81 -17 120 -20 214 -15 124 6 211 23 218 44 3 11 -23 13 -136 9 -159 -4&#xA;-238 3 -362 32 -51 12 -85 12 -150 1z"/>
    <path d="M4613 4754 c-18 -9 -33 -20 -33 -24 0 -4 33 -8 73 -9 41 -1 107 -8&#xA;148 -16 94 -18 270 -13 362 10 118 30 82 40 -159 42 -120 0 -250 4 -289 7 -55&#xA;5 -77 3 -102 -10z"/>
    <path d="M9407 4701 c-38 -10 -78 -27 -90 -39 -21 -21 -21 -22 -2 -22 11 0 39&#xA;5 63 10 71 17 191 15 276 -5 98 -22 212 -17 280 13 25 12 46 24 46 27 0 4 -37&#xA;4 -82 0 -46 -4 -92 -8 -103 -9 -11 -1 -58 7 -105 17 -116 26 -201 28 -283 8z"/>
    <path d="M600 4610 c-76 -13 -127 -29 -140 -45 -11 -13 -7 -15 21 -15 19 0 71&#xA;5 117 12 66 9 103 8 185 -3 129 -18 228 -13 290 13 26 11 47 25 47 30 0 6 -8&#xA;7 -17 3 -34 -13 -209 -13 -283 0 -82 15 -151 17 -220 5z"/>
    <path d="M9245 3709 c-3 -4 -2 -10 2 -12 9 -6 24 -8 233 -42 192 -31 388 -100&#xA;437 -153 41 -44 25 -108 -42 -164 -11 -9 -53 -34 -92 -55 -111 -58 -91 -74 30&#xA;-25 194 79 237 224 93 315 -95 59 -310 115 -511 132 -132 12 -146 12 -150 4z"/>
    <path d="M690 2765 c-282 -88 -409 -217 -349 -355 65 -148 383 -298 731 -345&#xA;26 -3 49 -2 52 4 7 10 -14 18 -159 57 -330 87 -560 214 -588 323 -25 97 73&#xA;177 351 291 127 52 102 69 -38 25z"/>
    <path d="M9285 2554 c-38 -14 -88 -29 -110 -34 -65 -14 -87 -17 -285 -36 -30&#xA;-3 -77 -9 -105 -14 -27 -5 -63 -12 -80 -14 -33 -6 -226 -99 -247 -119 -20 -20&#xA;-136 -73 -198 -92 -53 -15 -158 -32 -367 -60 -12 -2 -46 -11 -75 -21 -29 -10&#xA;-55 -19 -58 -19 -22 -4 -60 -21 -83 -38 -46 -32 -19 -41 56 -18 96 29 207 51&#xA;324 62 189 18 281 48 446 148 133 80 219 110 357 126 283 31 386 55 493 112&#xA;87 48 47 57 -68 17z"/>
    <path d="M7405 2329 c-16 -5 -39 -11 -50 -14 -11 -2 -29 -6 -40 -8 -11 -3 -38&#xA;-10 -60 -15 -47 -13 -62 -16 -220 -43 -122 -21 -132 -22 -245 -33 -94 -9 -161&#xA;-26 -153 -38 8 -15 272 -3 378 16 161 29 304 65 379 96 95 40 103 67 11 39z"/>
    <path d="M6099 2246 c-12 -12 -254 -26 -514 -30 -180 -3 -210 -6 -300 -30 -55&#xA;-14 -111 -29 -125 -31 -14 -3 -35 -7 -47 -9 -43 -9 -200 -22 -290 -25 -38 -1&#xA;-27 -29 14 -37 59 -11 271 4 368 27 50 11 119 28 155 36 46 10 126 14 275 15&#xA;213 0 338 12 479 46 82 20 100 42 34 42 -25 0 -47 -2 -49 -4z"/>
    <path d="M2957 1975 c-1 -2 -64 -5 -139 -9 -75 -4 -147 -9 -160 -12 -13 -3&#xA;-68 -7 -123 -11 -101 -5 -135 -16 -99 -30 19 -8 135 -8 444 -2 145 4 179 1&#xA;275 -20 124 -26 217 -33 320 -21 128 15 196 20 314 26 119 6 156 17 105 31&#xA;-32 9 -262 9 -454 0 -98 -4 -148 -1 -230 13 -102 19 -248 38 -253 35z"/>
    <path d="M1130 1583 c0 -16 68 -40 146 -54 47 -8 108 -9 194 -4 252 16 401 2&#xA;554 -52 350 -124 457 -135 821 -88 256 33 335 30 566 -20 209 -46 355 -60 468&#xA;-45 143 19 189 30 195 47 6 15 -6 15 -121 9 -130 -8 -222 -8 -265 -1 -12 2&#xA;-44 6 -69 9 -46 7 -77 12 -114 20 -11 3 -53 12 -94 20 -40 9 -76 18 -80 20&#xA;-29 18 -303 27 -406 13 -22 -3 -80 -10 -130 -17 -49 -6 -101 -13 -115 -15 -37&#xA;-7 -219 -7 -264 0 -75 11 -210 46 -325 86 -199 69 -258 78 -455 72 -256 -8&#xA;-353 -8 -433 2 -49 5 -73 4 -73 -2z"/>
    <path d="M6545 1518 c-100 -23 -170 -37 -215 -44 -19 -3 -55 -9 -79 -14 -49&#xA;-9 -345 -6 -401 4 -147 26 -188 30 -305 31 -113 0 -157 -5 -260 -32 -70 -18&#xA;-75 -19 -180 -39 -146 -29 -165 -34 -165 -45 0 -31 104 -23 349 27 157 32 186&#xA;36 285 31 61 -3 174 -15 251 -26 168 -25 256 -26 401 -6 163 23 414 93 414&#xA;115 0 17 -16 16 -95 -2z"/>
  </g>
  <title>Canoe River</title>
  <desc>Canoe River</desc>
</svg>