<?xml version="1.0" standalone="no"?>
<!DOCTYPE svg PUBLIC "-//W3C//DTD SVG 20010904//EN"
 "http://www.w3.org/TR/2001/REC-SVG-20010904/DTD/svg10.dtd">
<svg version="1.0" xmlns="http://www.w3.org/2000/svg"
 width="1024.000000pt" height="1024.000000pt" viewBox="0 0 1024.000000 1024.000000"
 preserveAspectRatio="xMidYMid meet">
<metadata>
Created by potrace 1.16, written by Peter Selinger 2001-2019
</metadata>
<g transform="translate(0.000000,1024.000000) scale(0.100000,-0.100000)"
fill="#000000" stroke="none">
<path d="M4289 9724 c-166 -30 -351 -102 -485 -189 -264 -171 -448 -366 -579
-615 l-50 -95 -90 -1 c-99 -1 -148 -15 -275 -79 -99 -50 -176 -103 -225 -157
-91 -97 -182 -235 -210 -316 -11 -31 -20 -38 -73 -57 -86 -31 -151 -76 -225
-155 -73 -77 -130 -181 -149 -271 -12 -58 -13 -59 -60 -76 -27 -9 -65 -31 -85
-47 l-36 -30 6 -95 c6 -102 37 -236 66 -286 25 -43 55 -54 245 -88 94 -17 172
-32 174 -33 1 -1 -16 -38 -39 -82 -41 -79 -42 -82 -30 -123 13 -42 61 -101 90
-111 13 -4 12 -10 -1 -44 -20 -49 -100 -333 -124 -437 -14 -63 -21 -76 -33
-71 -88 39 -128 46 -233 42 -94 -4 -114 -8 -165 -34 -92 -47 -107 -81 -139
-303 -21 -148 -21 -427 0 -514 22 -92 50 -144 93 -169 l35 -21 -88 -32 c-235
-84 -400 -170 -467 -244 -71 -79 -111 -175 -132 -316 l-11 -80 -57 -6 c-143
-16 -289 -134 -371 -300 -25 -52 -58 -139 -72 -194 -24 -91 -27 -122 -31 -337
-5 -209 5 -433 23 -548 5 -33 3 -38 -33 -60 -56 -37 -100 -108 -109 -177 -15
-124 35 -404 90 -496 44 -77 135 -131 284 -171 l87 -23 8 -54 c27 -180 84
-372 153 -518 24 -51 44 -95 44 -97 0 -2 -26 -4 -58 -4 -139 0 -381 -62 -484
-124 -51 -30 -98 -85 -98 -113 0 -10 10 -7 32 10 113 85 297 138 543 156 l110
8 77 -82 c42 -45 99 -97 127 -116 28 -19 51 -37 51 -40 0 -3 -28 -7 -62 -8
-141 -4 -417 -66 -394 -88 3 -3 61 0 128 7 155 15 407 17 853 7 292 -8 389 -6
585 8 129 9 381 18 560 20 179 1 305 1 280 -1 -194 -17 -352 -50 -435 -91 -59
-28 -73 -48 -27 -39 145 30 333 47 507 47 166 -1 350 -13 362 -24 2 -2 -41 -7
-94 -10 -107 -7 -182 -24 -255 -58 -46 -22 -77 -56 -40 -45 154 46 689 55 977
17 205 -28 446 -37 544 -22 41 6 108 25 148 41 65 26 90 30 221 36 156 7 396
-7 537 -32 44 -8 96 -14 115 -14 l35 1 -29 24 c-64 52 -353 114 -541 115 -303
3 468 96 950 115 77 3 187 7 245 9 111 5 92 -2 -65 -23 -44 -5 -102 -17 -130
-25 -49 -16 -121 -54 -113 -61 2 -2 46 3 97 10 263 40 606 40 951 0 290 -33
366 -38 580 -39 212 -1 229 0 290 22 36 13 80 33 98 44 29 18 55 21 220 25
166 5 439 -7 545 -24 73 -11 36 15 -73 51 -136 45 -269 66 -428 66 l-123 0 26
28 c64 67 182 270 218 375 8 20 65 22 228 7 136 -13 247 -42 331 -88 37 -20
71 -33 74 -29 14 14 -22 61 -71 93 -99 66 -224 94 -416 96 l-117 0 19 67 c46
159 62 287 63 501 1 113 -3 244 -7 293 -7 81 -7 87 10 87 10 0 30 8 43 17 14
10 52 25 84 33 107 27 119 73 114 420 -3 211 -5 239 -23 275 -30 60 -74 77
-212 84 l-114 6 -33 78 c-41 94 -103 178 -157 214 -25 17 -38 31 -34 41 3 7 8
25 11 39 7 27 -13 27 209 7 82 -7 137 21 182 95 63 105 211 466 437 1066 74
198 182 482 239 630 l103 270 57 -3 c74 -4 113 16 138 72 25 58 58 265 66 416
9 180 26 165 -307 246 -146 35 -268 64 -271 64 -3 0 -13 26 -23 58 -50 157
-152 293 -282 374 -37 24 -41 31 -52 89 -15 85 -87 228 -157 312 -99 120 -219
194 -357 220 l-58 10 -52 91 c-68 116 -221 275 -325 335 -114 68 -199 93 -336
100 l-118 6 -23 56 c-51 127 -175 295 -282 383 -171 141 -365 192 -578 152
-84 -16 -93 -16 -133 -1 -31 12 -56 33 -88 75 -92 119 -290 270 -426 323 -82
32 -211 57 -296 57 -85 0 -251 -34 -333 -69 l-65 -27 -55 54 c-211 209 -575
314 -891 256z m416 -143 c167 -44 324 -137 449 -265 48 -49 77 -73 74 -60 -4
16 3 25 36 42 123 64 208 85 346 84 111 0 203 -20 295 -61 142 -65 204 -118
490 -424 47 -50 82 -78 108 -87 21 -6 41 -10 44 -7 3 3 -9 26 -26 51 -17 24
-31 47 -31 50 0 3 26 13 58 23 87 26 229 24 315 -6 197 -67 395 -279 479 -514
17 -49 38 -91 46 -94 8 -4 28 2 45 12 43 25 180 24 264 -3 180 -57 334 -196
460 -415 25 -43 55 -84 67 -91 11 -8 45 -14 75 -14 61 -1 149 -39 220 -95 95
-75 178 -204 221 -343 38 -123 39 -124 99 -152 80 -37 160 -121 205 -213 41
-85 44 -103 19 -95 -32 10 -503 123 -818 196 -339 79 -1049 251 -1350 328
l-190 48 -32 60 c-18 32 -72 151 -120 264 -129 300 -138 317 -203 361 -61 42
-307 167 -440 224 -233 100 -366 99 -1015 -1 -457 -71 -1003 -176 -1610 -311
-357 -79 -927 -219 -1104 -272 -57 -17 -108 -31 -112 -31 -29 0 24 119 93 207
40 52 145 131 204 153 46 18 64 39 104 125 108 232 332 403 603 461 86 18 186
8 312 -31 43 -13 81 -22 83 -20 10 10 -68 68 -128 97 -36 17 -67 32 -69 34 -8
7 132 204 214 302 99 118 212 218 339 304 148 99 272 153 436 189 115 26 329
21 445 -10z m838 -1283 c-4 -18 -7 -104 -8 -190 l0 -158 -56 0 c-245 0 -920
-89 -1489 -196 -307 -58 -1332 -279 -1894 -408 -87 -20 -161 -35 -164 -32 -10
11 -69 271 -63 279 27 30 957 255 1661 402 741 155 1749 324 1987 334 32 1 32
0 26 -31z m230 -9 c139 -45 508 -229 534 -265 11 -16 59 -119 107 -229 48
-110 101 -227 117 -261 29 -61 96 -146 129 -164 41 -22 842 -228 1355 -349
1137 -268 1660 -393 1664 -396 9 -10 -49 -398 -62 -411 -6 -6 -567 110 -802
166 -49 12 -180 41 -290 66 -110 25 -319 74 -465 110 -274 67 -550 132 -870
204 -196 45 -682 161 -764 183 -27 7 -53 19 -58 27 -4 8 -48 139 -97 290 -143
437 -138 425 -182 469 -65 65 -392 221 -463 221 l-36 0 5 83 c7 100 24 246 31
270 8 24 37 22 147 -14z m-1257 -839 c437 -35 910 -132 1099 -227 132 -67 174
-123 229 -305 101 -334 162 -785 206 -1508 5 -91 17 -277 25 -415 26 -413 19
-1063 -15 -1480 -13 -152 -14 -162 -57 -390 -38 -204 -55 -262 -81 -269 -10
-2 -87 -8 -172 -11 l-156 -7 -18 169 c-9 92 -27 223 -40 289 l-22 122 81 -6
c198 -12 306 81 344 294 32 182 52 832 32 1040 -20 207 -63 345 -124 403 -20
18 -24 28 -17 46 20 54 21 193 1 485 -40 587 -80 1002 -107 1120 -32 139 -71
180 -228 241 -135 52 -228 71 -321 67 -90 -3 -118 -16 -159 -72 -25 -33 -24
14 -12 -888 l9 -637 -31 -36 c-35 -40 -35 -37 -58 -193 -17 -111 -17 -113 3
-140 11 -15 32 -34 46 -42 39 -22 92 6 117 63 11 23 20 36 20 30 0 -26 72 -92
118 -110 38 -14 76 -18 197 -18 174 0 210 11 248 76 l23 38 35 -20 c106 -64
142 -151 175 -420 14 -112 15 -198 11 -514 -8 -520 -22 -613 -105 -696 -58
-58 -101 -71 -220 -67 l-87 3 -23 90 c-97 378 -194 607 -337 796 l-55 72 0
113 c0 133 -16 350 -31 414 -14 64 -48 130 -66 130 -10 0 -13 -6 -8 -17 18
-49 55 -413 55 -548 l0 -46 -51 48 c-203 193 -452 274 -794 259 -280 -11 -494
-85 -639 -217 -85 -78 -70 -84 50 -23 218 111 405 149 689 142 248 -7 374 -43
540 -153 95 -63 231 -201 299 -304 175 -263 335 -795 375 -1251 6 -63 15 -172
22 -242 8 -93 8 -132 0 -147 -7 -12 -15 -21 -19 -21 -5 0 -14 46 -21 103 -14
113 -66 326 -104 427 -14 36 -35 110 -46 165 -87 401 -154 569 -272 680 -109
102 -245 129 -361 72 -114 -56 -221 -183 -316 -372 -49 -99 -78 -186 -128
-382 l-39 -153 -42 0 c-22 0 -101 -9 -175 -20 -86 -14 -208 -23 -348 -26 -118
-3 -231 -10 -251 -15 -25 -6 -62 -35 -125 -97 -49 -49 -109 -100 -134 -114
-123 -72 -280 -98 -586 -98 -344 -1 -741 43 -963 106 -121 34 -257 104 -314
162 -40 40 -49 58 -66 124 -84 327 -148 1075 -122 1415 17 221 58 329 154 404
169 134 684 313 1142 398 322 59 619 80 980 69 355 -10 759 -68 1005 -143 162
-49 185 -55 233 -55 86 0 136 44 163 143 28 101 44 459 43 997 0 538 -5 628
-39 709 -61 140 -136 155 -745 156 -509 0 -722 -22 -1210 -121 -290 -59 -415
-98 -483 -151 -61 -46 -82 -5 -36 70 38 61 62 85 126 127 206 134 903 274
1558 313 132 8 408 6 526 -3z m1642 -223 c40 -122 87 -253 105 -292 l32 -70 0
-830 c0 -813 -5 -1068 -26 -1350 -10 -145 -45 -424 -53 -432 -3 -3 -5 105 -5
238 0 134 -5 325 -10 424 -6 99 -13 225 -17 280 -40 729 -94 1217 -170 1560
-48 213 -86 329 -132 401 -48 74 -95 114 -193 163 l-75 38 210 42 c116 24 213
45 215 47 2 2 14 4 25 4 18 0 30 -28 94 -223z m-1743 -138 c200 -12 243 -21
269 -61 32 -49 37 -129 37 -618 0 -484 -12 -863 -32 -973 -23 -133 -32 -138
-181 -92 -96 29 -243 67 -339 89 -25 5 -25 6 28 62 61 64 111 161 145 279 30
106 32 343 4 444 -41 151 -122 263 -226 317 -46 24 -68 29 -130 29 -94 0 -167
-33 -245 -111 -208 -208 -279 -619 -151 -878 l34 -68 -112 7 c-61 4 -112 8
-114 10 -2 2 9 26 23 55 46 90 66 191 72 351 6 167 -8 261 -58 365 -117 249
-374 272 -539 50 -165 -225 -212 -574 -105 -787 l24 -48 -32 -5 c-18 -3 -77
-11 -132 -17 -55 -6 -173 -24 -262 -40 -89 -16 -165 -29 -168 -29 -8 0 -2 44
37 280 62 382 200 1000 257 1151 l21 56 78 21 c95 26 451 96 592 116 101 15
375 42 490 49 139 8 543 6 715 -4z m881 -100 c75 -13 212 -57 220 -71 7 -11
-80 -9 -341 8 -109 7 -116 9 -108 30 15 40 112 54 229 33z m-2834 -150 c-35
-82 -82 -234 -116 -379 -65 -272 -168 -828 -182 -983 l-7 -75 -45 -12 c-24 -6
-47 -9 -49 -6 -13 13 87 552 156 839 49 200 130 487 163 576 21 56 29 66 59
77 19 6 35 10 37 9 1 -1 -6 -22 -16 -46z m3162 9 c28 -98 38 -153 50 -293 8
-88 22 -236 31 -330 8 -93 17 -195 20 -225 l6 -55 -19 41 c-11 22 -37 56 -60
75 l-40 34 -22 240 c-21 229 -42 416 -56 498 l-7 37 46 0 c38 0 46 -3 51 -22z
m965 -72 c139 -36 255 -67 258 -69 2 -3 -3 -65 -11 -138 -18 -155 -38 -392
-61 -704 -22 -294 -66 -795 -112 -1264 l-38 -384 -150 7 c-82 4 -150 8 -151 9
-1 1 7 67 17 147 28 231 40 538 38 1003 -2 438 -21 1162 -36 1353 -5 57 -8
104 -8 104 1 0 115 -29 254 -64z m659 -156 c155 -37 284 -69 287 -72 12 -12
-64 -519 -191 -1283 -75 -445 -144 -852 -155 -904 -24 -119 -25 -154 -2 -149
32 6 80 240 242 1178 109 631 151 936 151 1097 0 47 2 54 18 49 9 -3 156 -39
326 -81 170 -41 311 -76 312 -78 1 -1 -4 -27 -12 -57 -8 -30 -75 -356 -149
-725 -74 -368 -172 -836 -217 -1040 l-83 -370 -110 2 c-225 4 -813 23 -903 29
l-94 7 6 31 c39 215 149 1313 176 1766 11 183 21 299 45 515 8 72 15 138 15
148 0 14 5 16 28 10 15 -3 154 -36 310 -73z m-3151 -161 c118 -56 202 -241
203 -445 0 -200 -66 -381 -178 -486 -70 -65 -80 -69 -147 -57 -31 6 -102 16
-157 22 l-101 12 -33 48 c-72 105 -103 251 -84 396 41 313 231 557 415 534 22
-2 59 -14 82 -24z m-813 -69 c81 -55 145 -191 166 -351 21 -155 -16 -356 -87
-473 l-28 -46 -217 0 -217 0 -26 38 c-69 100 -88 294 -46 457 46 176 153 339
253 386 60 28 152 23 202 -11z m5542 -153 c2 -2 -3 -24 -11 -49 -7 -25 -39
-158 -70 -295 -73 -324 -202 -844 -313 -1263 -49 -184 -95 -366 -102 -404
l-13 -69 -156 7 c-86 3 -199 9 -252 12 l-96 7 29 96 c95 316 323 1374 403
1866 14 88 28 174 30 191 l5 31 272 -64 c149 -35 273 -65 274 -66z m315 -66
c134 -28 254 -53 266 -56 22 -5 22 -5 -13 -88 -54 -123 -186 -465 -271 -697
-194 -532 -472 -1207 -495 -1202 -40 11 -142 22 -205 22 -40 0 -73 2 -73 4 0
2 7 23 16 47 62 176 230 784 320 1161 48 202 184 841 184 866 0 2 6 2 14 -1 7
-3 123 -28 257 -56z m-7100 12 l45 -20 -49 -254 c-27 -140 -51 -263 -53 -275
-3 -17 -9 -20 -34 -16 -67 10 -115 -68 -91 -149 10 -33 16 -40 34 -37 14 2 20
9 18 18 -18 65 -5 120 28 120 11 0 22 -4 25 -8 5 -9 -22 -213 -29 -220 -14
-15 -113 -13 -170 3 -61 16 -65 19 -79 58 -36 97 -45 270 -25 473 9 99 42 291
51 300 2 2 29 10 59 19 75 21 210 15 270 -12z m3504 -190 c74 -40 74 -38 90
-168 15 -124 14 -251 -6 -435 -23 -212 -31 -220 -201 -220 -192 0 -238 22
-238 112 0 32 2 34 76 63 127 48 164 93 164 200 0 50 -4 60 -30 87 -37 36 -59
34 -159 -12 -35 -17 -66 -30 -69 -30 -9 0 6 264 18 305 16 54 47 94 84 111 49
22 220 14 271 -13z m-185 -433 c0 -11 -6 -36 -14 -54 -11 -26 -25 -37 -72 -56
-93 -37 -171 -78 -193 -101 -11 -12 -23 -43 -27 -68 -9 -62 -39 -131 -58 -131
-19 0 -19 3 -2 145 12 105 14 110 47 138 37 32 273 147 302 147 10 0 17 -8 17
-20z m395 -277 c-7 -74 -10 -79 -33 -65 -10 7 -11 19 -3 53 5 24 15 98 20 164
6 66 12 127 13 135 6 40 8 -224 3 -287z m-4765 -903 l0 -120 -26 10 c-71 28
-152 2 -225 -70 -83 -82 -127 -217 -115 -349 7 -75 52 -180 99 -230 71 -75
194 -102 283 -62 l41 19 41 -211 c23 -116 40 -213 37 -215 -7 -7 -506 -5 -512
2 -18 18 -36 268 -37 526 -1 269 0 290 23 375 45 172 121 301 219 369 36 25
145 75 165 76 4 0 7 -54 7 -120z m-23 -195 c12 -8 24 -27 27 -43 11 -51 47
-456 42 -468 -3 -7 -24 -23 -47 -35 -60 -30 -143 -24 -194 15 -84 64 -122 175
-104 301 20 141 109 244 214 245 22 0 50 -7 62 -15z m6586 -272 l68 -6 -29
-31 c-130 -136 -322 -545 -389 -826 -38 -160 -11 -163 43 -5 109 319 199 510
337 717 l100 151 231 -7 c260 -7 347 -13 393 -27 46 -14 120 -100 158 -182 81
-176 215 -625 218 -733 3 -67 -17 -65 -32 3 -20 91 -105 339 -154 449 -24 54
-68 140 -98 189 -80 131 -77 130 -359 130 -304 0 -293 7 -438 -260 -39 -71
-108 -211 -152 -310 -131 -287 -108 -270 -331 -260 -99 5 -162 12 -166 19 -4
6 -9 39 -11 74 -10 206 -120 417 -259 498 -29 18 -41 30 -35 38 69 90 247 308
269 328 53 51 87 57 338 57 127 1 261 -2 298 -6z m-1052 -299 c24 -12 30 -21
27 -42 l-3 -27 -177 -3 -178 -2 0 45 0 45 150 0 c117 0 158 -3 181 -16z
m-1842 -75 c64 0 72 -2 51 -11 -105 -47 -143 -71 -202 -126 -37 -35 -81 -85
-99 -110 -28 -42 -31 -44 -25 -17 19 83 68 225 87 250 20 25 26 27 67 21 25
-3 79 -6 121 -7z m4154 -24 c17 -7 18 -26 15 -280 -3 -286 -7 -309 -48 -298
-15 4 -20 14 -20 40 0 53 -36 219 -76 351 -20 64 -42 137 -49 161 l-14 44 87
-6 c48 -3 95 -8 105 -12z m-978 -21 c-33 -13 -78 -39 -100 -56 -22 -17 -46
-36 -52 -41 -23 -17 15 87 38 106 16 13 39 17 98 17 l76 -1 -60 -25z m-2880
-14 c212 -103 392 -481 434 -914 36 -366 -28 -785 -161 -1051 -79 -158 -203
-297 -314 -351 -52 -26 -70 -29 -154 -29 -89 0 -99 2 -158 34 -228 124 -402
506 -428 940 l-7 107 34 45 c67 88 126 248 169 460 26 127 26 213 -1 285 -21
55 -21 57 -3 97 30 67 111 185 167 244 75 80 121 113 190 140 75 28 165 25
232 -7z m3223 -24 c104 -53 195 -162 266 -318 136 -295 173 -720 96 -1099 -58
-282 -202 -553 -358 -669 -234 -174 -490 -74 -655 255 -183 366 -207 868 -60
1288 86 248 195 405 355 512 85 55 121 66 218 62 69 -3 95 -9 138 -31z m-1565
-39 c82 -35 160 -139 204 -271 36 -111 38 -297 4 -426 -26 -100 -86 -231 -126
-279 -44 -52 -78 -61 -220 -61 l-126 0 26 43 c91 156 118 422 65 637 -24 99
-92 243 -149 318 l-41 52 165 0 c116 0 175 -4 198 -13z m-393 -44 c86 -98 147
-235 174 -392 21 -125 20 -192 -4 -313 -24 -114 -55 -195 -94 -244 -22 -27
-34 -34 -63 -34 l-36 0 20 23 c44 47 55 84 49 165 -3 43 -7 140 -9 217 -4 152
-23 247 -76 394 -27 75 -30 91 -24 157 3 41 9 74 14 74 4 0 26 -21 49 -47z
m-5610 -314 c24 -5 152 -10 282 -11 l238 -1 78 -79 c65 -67 93 -87 177 -129
55 -27 140 -60 188 -74 293 -83 928 -137 1246 -106 254 25 374 75 519 215 l94
91 267 6 c146 3 328 12 404 19 108 11 140 11 150 1 52 -52 -27 -478 -105 -567
-46 -52 -73 -62 -236 -89 -371 -62 -784 -90 -1297 -88 -825 1 -1568 73 -1909
184 -116 38 -150 60 -176 114 -28 58 -56 195 -65 321 -8 112 1 144 51 183 30
24 33 24 94 10z m5260 -379 c251 -16 300 -33 300 -105 0 -43 -23 -92 -47 -99
-43 -13 -224 -29 -411 -35 l-202 -6 0 33 c0 22 5 32 15 32 9 0 27 11 40 25 22
21 25 33 25 95 l0 70 63 0 c34 0 132 -5 217 -10z m1466 -27 c-14 -48 -26 -188
-26 -301 0 -276 51 -521 150 -731 73 -152 150 -252 250 -324 16 -11 18 -16 7
-13 -10 3 -55 8 -100 12 -99 8 -136 27 -226 116 -84 83 -131 157 -182 286 -90
232 -124 435 -116 692 4 96 9 184 12 195 5 16 30 28 103 52 117 37 135 39 128
16z m-256 -87 c-33 -89 -41 -366 -15 -541 39 -259 145 -507 277 -648 32 -34
56 -62 54 -64 -6 -7 -124 30 -151 47 -16 11 -46 28 -66 39 -99 54 -220 273
-284 512 -28 107 -54 277 -55 359 0 67 -14 96 -24 50 -25 -127 30 -443 111
-640 39 -96 86 -177 145 -252 l41 -52 -53 31 c-59 34 -148 118 -191 179 -43
62 -115 212 -144 298 -26 77 -56 208 -73 318 l-9 56 36 20 c43 24 86 69 129
133 42 62 77 90 173 138 96 48 112 51 99 17z m-1003 -431 c116 -89 320 -110
474 -50 13 5 18 -6 29 -57 16 -86 85 -292 114 -344 l23 -42 -473 1 c-261 1
-474 3 -474 4 0 1 25 40 57 85 73 108 138 245 166 352 12 47 26 86 30 86 5 0
29 -16 54 -35z m-1958 -112 c26 -272 107 -521 223 -691 43 -63 134 -158 175
-183 19 -12 33 -23 31 -24 -2 -2 -38 1 -81 5 -160 18 -286 110 -377 273 -82
149 -151 358 -184 566 -9 52 -15 95 -13 96 1 0 34 11 74 24 39 13 84 32 100
42 15 10 30 19 34 19 3 0 11 -57 18 -127z m-3023 57 c19 0 20 -5 38 -106 40
-236 159 -468 300 -590 l41 -36 -40 17 c-206 84 -364 294 -460 611 -49 161
-50 156 36 127 40 -13 78 -23 85 -23z m163 -23 l94 -12 17 -85 c23 -110 69
-232 132 -350 63 -118 99 -171 161 -237 28 -29 45 -53 39 -53 -5 0 -38 9 -71
19 -197 61 -362 279 -451 598 -31 111 -35 133 -22 132 4 0 49 -6 101 -12z
m2065 -25 l179 -7 18 -107 c10 -59 36 -160 57 -226 l39 -119 -306 -6 c-280 -6
-606 -26 -756 -46 -33 -5 -61 -8 -63 -6 -2 1 11 26 28 55 64 108 131 305 144
425 l7 60 237 -8 c130 -4 318 -11 416 -15z m549 -84 c11 -180 86 -427 178
-581 22 -38 70 -100 107 -138 53 -57 61 -69 41 -65 -106 22 -136 33 -186 65
-115 75 -231 228 -300 396 -33 81 -83 264 -96 346 l-5 36 78 12 c43 6 98 18
122 25 23 7 46 11 49 10 3 -2 9 -50 12 -106z m-2385 80 c6 -6 12 -16 12 -24 0
-33 76 -258 115 -341 67 -142 154 -256 233 -305 56 -34 20 -33 -49 2 -120 61
-230 189 -300 351 -42 96 -81 222 -94 298 l-7 44 38 -8 c22 -4 45 -11 52 -17z
m4637 -628 c-60 -4 -153 -10 -205 -13 l-95 -6 90 13 c50 8 142 13 205 13 l115
0 -110 -7z"/>
<path d="M3927 9283 c-11 -10 -8 -41 4 -49 16 -9 43 21 36 40 -7 16 -28 21
-40 9z"/>
<path d="M4734 9265 c-18 -13 -18 -14 9 -24 43 -17 67 7 28 28 -13 7 -24 6
-37 -4z"/>
<path d="M4018 9131 c-14 -5 -39 -16 -55 -26 -33 -19 -78 -78 -63 -83 5 -2 39
11 76 29 45 22 85 34 125 37 63 5 73 10 59 32 -10 16 -103 23 -142 11z"/>
<path d="M5765 9100 c-4 -7 -3 -16 3 -22 14 -14 45 -2 40 15 -6 16 -34 21 -43
7z"/>
<path d="M3755 8968 c-39 -21 -72 -78 -45 -78 5 0 26 11 46 25 28 19 50 25 93
25 l56 1 -24 19 c-26 22 -93 27 -126 8z"/>
<path d="M5519 8940 c12 -11 27 -17 33 -14 14 9 -12 34 -36 34 -21 -1 -21 -1
3 -20z"/>
<path d="M5974 8805 c-16 -13 -17 -16 -4 -25 8 -5 23 -10 33 -10 10 0 40 -21
67 -46 49 -46 50 -46 50 -21 0 32 -77 117 -106 117 -11 0 -29 -7 -40 -15z"/>
<path d="M4373 8664 c-3 -9 0 -20 7 -24 20 -12 50 1 50 21 0 24 -48 26 -57 3z"/>
<path d="M4914 8625 c-10 -24 19 -49 45 -40 16 5 21 13 19 28 -4 28 -55 37
-64 12z"/>
<path d="M6922 8438 c3 -25 34 -36 51 -19 14 14 -9 41 -35 41 -14 0 -19 -6
-16 -22z"/>
<path d="M3290 8422 c-15 -12 -21 -25 -17 -35 9 -23 30 -21 52 3 17 18 17 22
4 36 -14 13 -18 13 -39 -4z"/>
<path d="M6720 8243 c0 -3 27 -30 59 -59 71 -65 123 -141 154 -225 32 -90 51
-91 45 -3 -6 81 -31 136 -91 201 -53 57 -167 116 -167 86z"/>
<path d="M2657 8194 c-14 -14 -7 -43 13 -54 23 -12 35 4 28 37 -3 18 -29 29
-41 17z"/>
<path d="M2858 8189 c-21 -12 -24 -39 -4 -39 7 0 19 7 26 15 17 21 1 37 -22
24z"/>
<path d="M7095 8070 c-3 -6 2 -13 12 -16 59 -20 126 -60 158 -95 20 -23 39
-38 42 -35 8 7 -31 66 -64 98 -47 45 -133 73 -148 48z"/>
<path d="M7640 7830 c0 -23 26 -38 41 -23 14 14 0 43 -22 43 -12 0 -19 -7 -19
-20z"/>
<path d="M7550 7508 c1 -16 115 -119 123 -112 9 10 -34 74 -68 99 -35 27 -55
32 -55 13z"/>
<path d="M8147 7406 c-6 -16 11 -36 30 -36 20 0 16 28 -6 39 -14 8 -20 7 -24
-3z"/>
<path d="M8510 7340 c-13 -24 -13 -67 0 -75 18 -11 40 16 40 50 0 39 -24 54
-40 25z"/>
<path d="M4140 5205 c-211 -30 -470 -106 -627 -182 -79 -39 -142 -83 -119 -83
4 0 91 27 194 61 261 85 577 154 792 174 135 12 153 16 141 28 -17 17 -266 19
-381 2z"/>
<path d="M2050 4985 c-198 -17 -304 -31 -465 -61 -215 -41 -314 -75 -336 -115
-13 -25 -5 -36 14 -20 25 20 334 78 532 99 394 43 612 51 915 31 247 -15 353
-33 430 -71 130 -66 156 -132 196 -507 23 -210 38 -185 31 49 -11 375 -84 500
-321 555 -193 45 -706 66 -996 40z"/>
<path d="M5570 4818 c-72 -20 -101 -77 -61 -117 27 -27 74 -34 189 -29 122 5
175 27 180 74 6 57 -56 84 -187 83 -47 0 -102 -5 -121 -11z"/>
<path d="M1900 4625 c-441 -35 -514 -60 -555 -192 -15 -47 -17 -85 -12 -296 5
-248 17 -344 57 -479 28 -94 49 -115 140 -138 176 -44 284 -54 560 -55 273 0
367 8 549 47 208 44 337 103 365 167 39 92 58 257 59 516 0 226 -7 293 -36
337 -34 50 -116 86 -222 98 -124 14 -705 10 -905 -5z m830 -85 c162 -9 221
-24 240 -59 5 -11 10 -49 10 -84 l0 -64 -77 -6 c-104 -9 -244 -15 -433 -22
-853 -28 -1021 -34 -1031 -40 -14 -9 -11 136 4 165 7 14 24 30 38 37 61 30
297 55 674 72 243 11 398 12 575 1z m246 -417 c-4 -60 -9 -109 -10 -110 -1 -1
-60 -12 -131 -23 -327 -53 -666 -74 -1079 -68 -168 2 -308 6 -311 9 -3 3 -8
60 -11 126 l-7 120 239 -2 c131 -1 349 1 484 6 278 9 803 38 809 45 19 19 23
-7 17 -103z m-22 -265 c-12 -93 -26 -147 -38 -157 -56 -46 -383 -115 -623
-130 -303 -20 -766 16 -794 61 -9 15 -27 92 -36 156 -6 41 -5 43 18 38 94 -19
686 -23 872 -6 213 20 382 41 477 60 138 26 131 27 124 -22z"/>
<path d="M3745 4421 c-114 -19 -224 -122 -270 -251 -94 -268 50 -562 288 -587
234 -24 429 242 374 510 -20 96 -50 157 -109 222 -77 85 -180 123 -283 106z
m119 -102 c55 -15 145 -108 169 -174 68 -186 -9 -395 -166 -454 -43 -17 -127
-13 -172 8 -49 22 -109 87 -138 149 -17 38 -21 67 -21 147 -1 91 2 106 30 166
64 135 172 193 298 158z"/>
<path d="M4680 4281 c-172 -53 -323 -239 -403 -496 -52 -169 -41 -199 18 -47
131 336 282 494 500 521 58 7 59 8 32 19 -31 13 -108 14 -147 3z"/>
<path d="M3186 3715 c-22 -8 -56 -30 -75 -50 l-36 -37 40 6 c79 12 155 18 155
12 0 -3 -19 -38 -42 -77 -126 -210 -441 -399 -756 -454 -104 -18 -339 -21
-437 -6 -129 21 -325 95 -325 124 0 7 7 22 15 34 10 14 12 24 5 28 -19 11 -48
-5 -60 -34 -14 -35 -10 -107 7 -104 6 1 37 -13 68 -32 32 -19 90 -46 129 -61
50 -19 83 -40 111 -69 97 -103 238 -181 377 -209 109 -23 276 -21 371 3 133
35 221 84 317 181 71 70 95 103 137 185 62 122 92 204 129 358 15 64 32 117
36 117 4 0 30 -20 58 -45 28 -25 55 -45 60 -45 14 0 13 46 -1 73 -49 95 -176
140 -283 102z m-108 -606 c-83 -121 -203 -203 -358 -245 -102 -28 -300 -24
-410 8 l-85 24 80 13 c179 28 407 99 600 186 51 24 184 71 207 74 4 1 -11 -26
-34 -60z"/>
<path d="M3971 6940 c-81 -17 -170 -85 -144 -111 5 -5 29 -2 57 7 35 12 72 15
144 12 125 -5 171 -26 266 -118 40 -38 76 -70 79 -70 4 0 7 15 7 33 0 43 -49
126 -101 171 -75 64 -208 97 -308 76z"/>
<path d="M3122 6864 c-29 -7 -66 -21 -83 -29 -42 -22 -108 -83 -134 -125 -25
-40 -50 -109 -41 -117 3 -3 37 24 77 61 40 37 100 80 137 98 61 30 75 33 172
35 112 2 131 11 91 47 -48 44 -129 55 -219 30z"/>
<path d="M4014 6080 c-100 -64 -160 -266 -119 -405 23 -80 76 -135 131 -135
32 0 45 7 84 48 70 73 95 148 95 287 0 94 -3 116 -22 151 -39 73 -106 94 -169
54z"/>
<path d="M3244 6066 c-75 -33 -135 -152 -137 -276 -2 -98 17 -163 63 -211 31
-33 43 -39 78 -39 53 0 101 45 133 127 20 49 24 76 24 173 0 101 -3 121 -24
163 -22 45 -62 78 -93 77 -7 -1 -27 -7 -44 -14z"/>
<path d="M4752 2989 c-156 -78 -275 -373 -286 -714 -16 -501 192 -834 442
-709 67 33 113 87 168 199 175 355 143 935 -64 1158 -80 86 -172 109 -260 66z
m141 -73 c73 -30 142 -145 184 -305 35 -134 43 -364 19 -512 -47 -281 -156
-464 -285 -477 -53 -5 -90 13 -138 68 -31 35 -28 45 6 21 31 -22 76 -27 101
-11 19 11 27 156 13 222 -10 44 -10 44 28 65 l38 21 21 -49 c11 -27 25 -49 30
-49 23 0 70 144 70 214 0 30 -4 36 -21 36 -19 0 -21 4 -15 38 3 20 6 58 6 84
0 43 2 47 28 50 l27 3 -2 89 c-3 125 -19 196 -44 196 -12 0 -26 -14 -39 -39
-25 -51 -33 -55 -56 -30 -10 12 -32 28 -47 36 -21 10 -27 19 -21 31 44 104 55
189 28 216 -19 20 -57 30 -90 23 -23 -4 -24 -3 -8 14 20 22 93 59 117 59 10 0
32 -6 50 -14z m-203 -218 c12 -40 26 -78 30 -83 6 -7 -5 -22 -27 -39 -68 -55
-122 -225 -108 -341 10 -78 47 -176 81 -211 l30 -33 -47 -76 -47 -76 -20 78
c-65 239 -41 582 55 796 14 31 27 57 28 57 2 0 13 -33 25 -72z m126 -183 c56
-38 89 -202 64 -318 -14 -68 -64 -148 -102 -161 -111 -39 -182 255 -100 419
35 72 89 95 138 60z"/>
<path d="M7963 3035 c-137 -68 -250 -278 -289 -537 -22 -142 -14 -381 15 -497
55 -216 172 -351 305 -351 86 0 125 18 196 90 79 79 138 190 174 330 50 189
58 350 26 533 -32 188 -89 310 -183 393 -77 68 -159 81 -244 39z m153 -74
c103 -47 182 -222 206 -459 43 -430 -177 -861 -385 -756 -35 18 -67 43 -67 53
0 4 18 5 39 3 60 -6 106 14 153 67 45 50 93 154 86 187 -5 30 -19 22 -37 -21
-9 -22 -25 -56 -35 -75 l-19 -35 -12 48 c-7 27 -21 61 -32 75 l-20 27 44 39
c25 22 50 50 55 62 9 20 19 24 54 24 24 0 49 6 57 14 16 16 34 209 23 244 -7
20 -52 42 -85 42 -10 0 -23 18 -34 45 -11 25 -32 56 -47 69 -25 20 -27 25 -14
38 8 8 23 36 33 64 12 31 21 43 25 34 3 -8 16 -44 28 -79 13 -36 29 -66 36
-69 20 -6 14 61 -12 133 -46 127 -97 175 -188 175 -41 1 -42 1 -23 16 27 21
96 54 115 54 8 0 33 -9 56 -19z m-197 -231 c15 -71 17 -96 8 -99 -27 -9 -77
-74 -98 -128 -19 -47 -23 -78 -23 -163 -1 -97 1 -109 29 -165 17 -35 43 -69
61 -80 27 -18 30 -24 21 -45 -5 -14 -24 -67 -42 -119 l-34 -93 -27 53 c-24 49
-27 64 -28 179 -2 130 -8 160 -32 160 -11 0 -14 19 -14 86 0 79 2 89 24 109
27 25 42 107 33 176 -3 27 1 60 14 97 24 71 69 147 79 135 5 -4 17 -51 29
-103z m93 -151 c37 -20 61 -95 61 -189 1 -157 -65 -271 -141 -244 -42 14 -66
74 -70 173 -5 105 18 189 64 237 33 36 52 41 86 23z"/>
<path d="M1152 2694 c1 -9 9 -19 16 -22 9 -3 13 2 10 14 -1 9 -9 19 -16 22 -9
3 -13 -2 -10 -14z"/>
<path d="M9071 1609 c-34 -5 -82 -20 -105 -32 l-41 -22 65 -2 c187 -7 400 -25
499 -43 135 -25 288 -72 325 -101 39 -30 41 -19 6 29 -55 77 -163 127 -330
156 -119 20 -334 28 -419 15z"/>
<path d="M7055 989 c-150 -15 -303 -67 -349 -118 -23 -25 -17 -26 49 -6 170
52 583 66 799 26 66 -12 121 -19 124 -16 6 5 -68 38 -147 66 -126 44 -320 64
-476 48z"/>
<path d="M1715 953 c-137 -17 -363 -87 -327 -100 7 -3 48 0 90 6 262 36 618
39 782 6 92 -18 95 -18 81 -1 -19 23 -130 63 -220 80 -77 15 -319 20 -406 9z"/>
<path d="M8451 899 c-36 -11 -81 -37 -81 -48 0 -3 73 -6 162 -6 90 0 208 -4
263 -9 95 -8 99 -7 77 9 -53 39 -133 58 -262 61 -69 2 -140 -1 -159 -7z"/>
<path d="M5890 794 c-121 -21 -149 -28 -181 -45 -33 -16 -56 -45 -45 -56 2 -2
44 4 92 13 99 19 387 25 509 11 l70 -9 -30 21 c-56 39 -152 62 -275 66 -63 2
-126 2 -140 -1z"/>
<path d="M2522 750 c-113 -16 -242 -63 -242 -89 0 -4 51 -1 113 6 166 18 345
16 524 -7 87 -11 170 -23 186 -26 45 -9 31 13 -25 39 -135 64 -396 100 -556
77z"/>
<path d="M4176 690 c-51 -13 -106 -40 -106 -52 0 -5 46 -6 113 -2 102 5 248
-6 420 -32 42 -7 42 -7 24 13 -10 12 -55 33 -100 48 -65 21 -106 28 -197 31
-63 2 -132 -1 -154 -6z"/>
</g>
</svg>
