<?xml version="1.0" standalone="no"?>
<!DOCTYPE svg PUBLIC "-//W3C//DTD SVG 20010904//EN"
 "http://www.w3.org/TR/2001/REC-SVG-20010904/DTD/svg10.dtd">
<svg version="1.0" xmlns="http://www.w3.org/2000/svg"
 width="1024.000000pt" height="1024.000000pt" viewBox="0 0 1024.000000 1024.000000"
 preserveAspectRatio="xMidYMid meet">
<metadata>
Created by potrace 1.16, written by Peter Selinger 2001-2019
</metadata>
<g transform="translate(0.000000,1024.000000) scale(0.100000,-0.100000)"
fill="#000000" stroke="none">
<path d="M4305 9771 c-61 -27 -83 -91 -106 -308 l-12 -113 -74 0 c-72 0 -82 3
-371 124 -502 209 -583 236 -707 236 -113 0 -179 -15 -220 -52 -45 -38 -57
-95 -95 -445 -41 -370 -39 -432 13 -466 41 -26 688 -313 928 -411 l116 -47
-23 -80 c-13 -44 -31 -121 -41 -172 -19 -104 -24 -113 -63 -122 -66 -14 -132
-102 -160 -211 l-10 -41 -62 -2 c-246 -8 -681 -64 -908 -117 -242 -57 -337
-99 -432 -194 -110 -110 -156 -238 -113 -319 15 -29 3 -77 -126 -491 l-23 -75
-8 58 c-10 75 -31 118 -80 162 -69 63 -118 79 -244 79 -106 1 -113 0 -159 -29
-62 -38 -110 -100 -130 -168 -44 -144 -81 -543 -71 -759 15 -325 72 -428 253
-453 l49 -6 -71 -70 c-81 -79 -171 -198 -215 -286 -99 -198 -143 -615 -168
-1602 l-7 -284 -69 -23 c-136 -46 -164 -103 -173 -349 -6 -159 7 -302 33 -364
21 -51 89 -116 145 -140 56 -24 207 -63 337 -86 l92 -17 0 -33 c0 -49 28 -200
54 -290 54 -184 147 -347 257 -449 121 -112 213 -141 544 -167 211 -17 408 -7
507 24 213 68 371 271 478 616 l32 104 157 -6 c86 -4 366 -7 623 -7 l467 0 5
-32 c26 -180 50 -318 67 -384 71 -271 203 -467 369 -547 138 -66 379 -97 710
-93 187 3 212 6 282 28 328 107 555 567 584 1187 7 133 8 142 28 146 12 2 44
8 71 14 28 6 190 33 360 61 171 28 318 53 328 56 15 5 17 -2 17 -56 0 -133 64
-362 143 -515 56 -105 159 -215 241 -255 114 -56 351 -87 591 -77 256 11 353
42 468 148 196 179 333 536 367 954 7 77 13 141 15 143 1 2 31 7 66 12 35 5
141 25 236 44 284 56 300 73 315 329 12 231 -1 317 -58 369 -18 16 -19 39 -12
610 4 326 9 982 10 1458 3 818 2 868 -16 925 -23 77 -75 128 -149 149 -48 14
-187 36 -317 50 -30 4 -90 11 -133 17 l-78 11 3 61 c3 60 3 61 38 69 167 41
233 96 275 229 35 110 45 260 22 339 -30 102 -99 159 -417 343 -350 202 -514
289 -1063 570 -659 336 -936 470 -1670 806 -344 158 -803 362 -1087 483 -472
202 -467 200 -610 204 -69 2 -134 0 -145 -5z m191 -133 c-15 -83 -56 -416 -65
-533 -6 -71 -14 -156 -17 -187 l-6 -58 -82 0 c-46 0 -85 2 -87 5 -7 6 50 541
77 733 9 63 23 72 111 72 l75 0 -6 -32z m363 -103 c600 -248 1642 -719 2396
-1084 667 -324 1723 -900 1884 -1029 62 -50 75 -87 68 -197 -9 -169 -68 -268
-176 -298 -34 -9 -63 -17 -66 -17 -3 0 -5 33 -5 74 0 134 -43 279 -97 325 -15
13 -118 75 -228 138 -913 525 -2316 1195 -3565 1702 -182 74 -214 82 -224 56
-3 -9 -17 -120 -31 -248 -14 -128 -28 -239 -31 -248 -4 -14 -28 -6 -147 47
-78 35 -143 68 -146 75 -9 28 30 424 65 653 13 87 24 160 24 162 0 4 -2 5 279
-111z m-1803 57 c-13 -22 -76 -592 -76 -693 0 -26 -2 -27 -87 -36 -49 -6 -92
-7 -97 -2 -13 12 62 701 78 717 18 17 192 30 182 14z m216 -52 c234 -89 468
-185 468 -192 0 -5 -89 -8 -197 -8 -179 0 -201 -2 -230 -20 -56 -34 -82 -120
-63 -207 21 -92 48 -108 500 -298 140 -59 288 -123 328 -143 l73 -36 -63 -33
c-35 -18 -83 -48 -108 -67 l-45 -34 -200 84 c-110 47 -303 126 -430 176 -126
50 -234 95 -239 99 -11 10 9 271 40 518 13 106 24 197 24 202 0 13 -5 14 142
-41z m894 -357 c-4 -43 -8 -78 -9 -79 -1 -1 -186 -3 -412 -5 l-410 -4 -3 65
c-5 106 -31 100 440 100 l401 0 -7 -77z m996 -187 c125 -53 232 -96 237 -96
20 0 21 -22 6 -197 -22 -267 -25 -286 -38 -275 -11 8 -114 54 -409 182 -54 23
-98 46 -98 50 0 4 11 101 25 216 14 115 25 213 25 217 0 5 6 7 13 4 6 -3 114
-48 239 -101z m-1017 -3 c-2 -16 -7 -60 -10 -100 -5 -66 -3 -74 21 -102 25
-30 28 -31 113 -31 78 0 100 -5 192 -39 57 -21 155 -62 217 -90 62 -28 209
-91 326 -141 269 -112 391 -166 741 -325 154 -70 336 -151 405 -180 69 -29
212 -94 318 -144 106 -50 194 -91 197 -91 10 0 306 -136 475 -218 102 -49 237
-114 300 -144 63 -31 243 -119 400 -196 l285 -142 -3 -147 c-2 -82 -5 -149 -7
-151 -2 -2 -106 3 -232 12 -125 9 -263 16 -305 17 l-78 2 0 178 c0 99 2 179 5
179 3 0 47 -21 98 -46 50 -26 172 -84 270 -130 194 -91 227 -98 227 -44 0 33
-8 38 -150 105 -58 27 -229 109 -380 183 -654 320 -920 444 -1280 597 -30 13
-129 56 -220 95 -323 141 -928 393 -1080 452 -138 53 -161 65 -210 112 -30 29
-72 65 -93 80 -85 62 -237 116 -327 116 -48 0 -134 31 -257 93 -39 20 -111 53
-160 73 -146 60 -438 185 -442 190 -2 2 143 4 322 4 l327 0 -5 -27z m1484
-276 c-28 -332 -34 -387 -41 -387 -5 0 -35 14 -68 30 -46 23 -60 35 -60 53 0
35 31 421 35 434 3 9 25 3 72 -18 l69 -30 -7 -82z m-2308 -51 c156 -63 334
-136 394 -161 61 -26 121 -51 134 -56 l24 -10 -24 -25 c-13 -14 -30 -23 -39
-20 -120 36 -592 231 -805 333 l-80 38 45 6 c25 3 50 7 56 7 7 1 140 -49 295
-112z m2491 60 c48 -19 144 -60 213 -92 109 -50 124 -60 120 -78 -2 -12 -12
-118 -20 -236 -9 -118 -18 -216 -19 -218 -3 -2 -89 35 -331 145 -55 25 -101
46 -103 47 -1 2 4 70 12 152 8 82 18 186 21 232 4 45 10 82 14 82 3 0 45 -15
93 -34z m-1360 -205 c108 -28 165 -60 246 -139 91 -87 135 -175 157 -312 18
-117 19 -160 3 -160 -7 0 -49 7 -93 14 -190 34 -383 49 -620 49 -132 1 -262
-3 -288 -7 l-48 -7 6 48 c4 26 23 96 41 155 60 186 171 305 335 357 82 25 166
26 261 2z m1828 3 c32 -13 40 -21 40 -43 0 -33 -32 -455 -35 -459 -1 -1 -23 7
-48 18 l-47 21 0 52 c0 29 7 126 15 217 8 91 15 175 15 188 0 26 7 27 60 6z
m308 -144 c97 -44 183 -84 190 -88 9 -7 8 -57 -9 -243 -12 -129 -23 -235 -24
-237 -2 -2 -308 136 -382 172 -2 1 23 320 33 424 3 28 8 52 10 52 3 0 85 -36
182 -80z m-1291 -249 c103 -43 226 -95 273 -115 l85 -35 -245 -1 -245 0 -96
41 -97 40 -7 46 c-4 25 -17 76 -29 113 l-23 67 98 -38 c54 -21 182 -74 286
-118z m1620 97 c27 -13 49 -23 51 -24 4 -2 -40 -467 -44 -472 -4 -6 -104 48
-104 56 0 4 9 90 20 192 11 102 20 204 20 228 0 23 2 42 5 42 2 0 26 -10 52
-22z m381 -182 c128 -63 238 -116 244 -118 11 -4 -3 -168 -34 -393 l-10 -80
-92 43 c-73 35 -393 191 -404 198 -1 0 4 59 12 130 8 71 18 175 22 232 4 64
11 102 18 102 6 0 116 -51 244 -114z m-2155 -147 c82 -34 254 -109 381 -166
127 -58 276 -123 331 -145 55 -21 109 -43 120 -49 18 -8 17 -9 -5 -4 -53 11
-502 75 -635 90 -207 24 -189 16 -203 86 -15 70 -51 117 -112 144 -38 17 -40
20 -40 62 0 23 3 43 7 43 4 0 74 -28 156 -61z m975 -116 l275 -118 -243 -3
-242 -2 -102 44 c-55 24 -175 76 -266 116 -91 39 -167 73 -169 76 -2 2 103 4
234 4 l238 0 275 -117z m-1568 77 c136 -16 313 -48 368 -66 59 -19 99 -57 108
-102 5 -27 4 -32 -12 -32 -11 0 -120 7 -244 15 -231 15 -832 19 -1058 7 -137
-8 -136 -9 -103 64 51 111 162 135 596 129 143 -3 298 -9 345 -15z m3175 -108
c-4 -42 -13 -131 -21 -197 -7 -66 -14 -129 -14 -140 -1 -43 -14 -48 -63 -24
-35 17 -47 29 -47 46 0 26 37 362 45 410 l6 33 51 -26 50 -25 -7 -77z m410
-135 c99 -53 188 -102 198 -110 18 -12 14 -21 -62 -137 -45 -68 -91 -150 -102
-181 l-21 -57 -187 95 c-102 53 -190 99 -194 103 -7 6 25 370 39 438 5 23 5
23 77 -16 40 -22 153 -83 252 -135z m-1163 -217 l373 -180 -255 0 -255 0 -20
36 c-53 99 -172 161 -405 208 -76 16 -144 38 -201 65 -48 23 -92 41 -97 41 -6
0 -13 3 -15 8 -3 4 109 6 249 4 l254 -3 372 -179z m-2097 156 c383 -30 904
-96 1345 -172 237 -40 347 -66 407 -95 52 -25 106 -86 121 -136 24 -81 60
-609 98 -1448 18 -396 27 -2055 14 -2475 -4 -135 -9 -322 -10 -417 l-2 -172
-27 -5 c-14 -3 -73 -13 -131 -21 -58 -8 -117 -17 -132 -20 l-26 -4 -6 97 c-17
258 -41 407 -89 547 -104 302 -301 464 -518 425 -215 -39 -389 -249 -519 -626
-21 -62 -45 -126 -54 -142 -32 -63 -123 -122 -188 -122 -9 0 -28 11 -42 25
-30 30 -32 30 -336 9 -168 -11 -360 -14 -753 -12 -453 2 -530 0 -537 -12 -16
-26 -11 -59 11 -71 73 -38 940 -37 1406 3 78 6 146 8 150 4 14 -13 16 -264 4
-380 -15 -138 -27 -181 -63 -216 -52 -53 -237 -78 -663 -90 -635 -17 -1417 14
-2090 85 -700 74 -982 113 -1186 165 -144 37 -187 63 -217 130 -20 46 -30 433
-13 498 14 49 46 74 121 92 44 11 50 9 96 -19 89 -55 352 -107 784 -155 346
-39 528 -52 548 -40 19 13 27 62 13 84 -8 11 -45 16 -158 21 -381 18 -913 87
-1066 137 -107 36 -101 10 -93 372 15 691 54 1200 112 1424 38 148 170 330
321 442 40 30 79 64 87 76 15 24 93 285 171 578 72 269 190 675 256 883 61
195 66 225 48 287 -10 32 -8 43 11 81 79 156 182 212 510 279 313 63 637 97
1195 124 182 9 895 -3 1090 -18z m3754 -219 c84 -51 164 -102 177 -113 43 -41
64 -162 64 -388 l0 -159 -47 7 c-51 6 -268 28 -476 47 l-129 12 4 161 c6 189
17 230 102 365 90 142 115 173 134 166 9 -3 86 -47 171 -98z m-1451 -374 c-2
-93 -6 -167 -10 -165 -5 1 -70 2 -146 2 l-139 0 -7 121 c-4 67 -9 141 -13 165
l-6 44 162 0 161 0 -2 -167z m222 -3 l0 -170 -60 0 -60 0 -1 38 c0 20 -3 90
-6 155 -3 64 -2 124 1 132 4 11 22 15 66 15 l60 0 0 -170z m-50 -267 l183 -6
-7 -166 c-4 -91 -8 -166 -9 -167 -1 0 -138 1 -303 4 l-302 4 -6 152 c-4 83
-10 159 -12 169 -5 16 6 17 134 17 76 0 221 -3 322 -7z m541 -28 c226 -16 493
-39 644 -55 50 -5 198 -21 330 -35 597 -64 637 -72 669 -139 9 -18 19 -73 22
-121 l7 -88 -157 7 c-87 3 -271 15 -409 26 -139 11 -317 24 -397 29 -80 6
-212 15 -295 21 -82 5 -273 17 -424 25 -151 8 -276 16 -278 19 -3 3 -2 77 2
165 l8 161 32 0 c17 0 128 -7 246 -15z m-6268 -24 c74 -36 87 -70 87 -234 0
-215 -18 -386 -55 -517 l-32 -115 -29 60 c-29 61 -78 105 -116 105 -73 0 -126
-67 -135 -171 -7 -77 9 -139 63 -230 24 -42 44 -79 44 -82 0 -15 -97 -6 -130
12 -56 30 -78 85 -90 233 -15 181 8 583 45 777 20 102 42 141 96 169 38 20 55
23 124 20 58 -3 94 -11 128 -27z m5810 -379 l87 -3 -5 -92 c-5 -97 -9 -278
-25 -1237 -5 -322 -12 -711 -15 -865 -3 -154 -5 -344 -5 -421 l0 -141 -67 -6
c-38 -4 -152 -9 -255 -13 l-188 -7 7 609 c5 539 -5 1301 -22 1624 -10 189 -25
504 -25 532 l0 29 213 -3 c116 -1 251 -4 300 -6z m432 -22 c241 -13 521 -32
990 -65 193 -14 429 -29 525 -33 l175 -7 -3 -1055 c-4 -1017 -5 -1147 -15
-1157 -3 -2 -63 -10 -133 -17 -71 -7 -139 -18 -151 -25 -41 -21 -47 -48 -51
-222 -5 -191 5 -232 58 -251 l32 -11 -4 -277 c-2 -153 -5 -281 -8 -283 -3 -3
-35 -8 -72 -12 l-68 -7 0 119 c0 155 -17 412 -36 541 -44 303 -160 520 -319
598 -51 24 -72 29 -140 29 -100 0 -177 -27 -258 -91 -179 -140 -321 -489 -373
-910 -8 -71 -21 -163 -27 -204 l-12 -75 -50 -8 c-27 -5 -126 -21 -219 -36
l-169 -28 7 556 c13 1163 40 2642 52 2848 l6 101 31 -4 c18 -2 122 -8 232 -14z
m-6380 -396 c16 -7 95 -162 95 -188 0 -11 -23 -86 -46 -146 -3 -9 -23 16 -55
70 -70 121 -82 170 -55 235 15 35 29 41 61 29z m7272 -1876 c87 -58 156 -156
199 -284 25 -76 58 -252 68 -364 l6 -65 -19 75 c-89 342 -288 545 -542 553
-43 1 -79 2 -79 3 0 9 98 74 139 91 75 32 173 28 228 -9z m783 -298 l0 -150
-26 -6 c-15 -4 -72 -7 -128 -8 l-101 -1 3 145 c2 79 5 146 7 148 7 7 115 19
183 21 l62 1 0 -150z m-1115 88 c-57 -31 -144 -136 -201 -242 -19 -33 -34 -56
-34 -50 0 18 46 145 78 217 34 75 50 86 127 86 42 0 47 -1 30 -11z m242 -63
c192 -96 342 -586 319 -1040 -22 -421 -132 -753 -313 -945 -114 -122 -212
-152 -309 -95 -175 102 -289 364 -325 740 -11 120 -10 133 6 165 14 26 20 73
26 197 9 183 11 198 45 334 65 265 175 483 298 597 85 78 162 92 253 47z
m-2573 -165 c185 -89 308 -386 330 -795 l5 -100 -19 87 c-53 240 -148 436
-267 550 -89 86 -229 146 -348 149 -36 1 -65 5 -65 10 0 14 85 78 140 104 69
32 150 31 224 -5z m1371 -447 c-4 -186 -8 -339 -10 -341 -1 -1 -109 -20 -241
-42 -131 -22 -249 -42 -260 -45 -21 -5 -21 -2 -18 108 2 61 7 227 10 369 l6
256 92 6 c50 4 159 10 241 15 83 4 158 9 168 10 18 1 18 -13 12 -336z m2126
288 c24 -19 24 -21 23 -210 -1 -104 -4 -201 -8 -215 -9 -37 -46 -57 -139 -76
l-82 -17 -3 71 c-2 39 -1 157 3 263 l7 192 27 4 c76 12 149 7 172 -12z m-3766
-61 c14 -1 9 -6 -19 -20 -109 -54 -221 -176 -306 -332 -22 -40 -40 -70 -40
-65 0 4 21 65 46 135 49 134 89 222 121 260 23 29 73 40 133 31 25 -4 54 -8
65 -9z m193 -79 c139 -72 266 -335 325 -671 18 -105 21 -163 21 -365 0 -241
-6 -311 -50 -519 -64 -310 -243 -598 -417 -671 -112 -46 -249 20 -344 167
-267 412 -252 1323 28 1787 93 152 181 237 282 272 67 24 109 23 155 0z m-622
-491 c-67 -184 -105 -412 -113 -675 -12 -408 67 -751 223 -972 24 -33 62 -77
85 -97 l42 -35 -119 4 c-385 16 -545 44 -641 114 -112 81 -216 283 -272 524
-21 89 -56 316 -50 321 2 2 74 11 160 20 279 29 350 61 405 181 35 78 48 174
49 367 l0 177 50 12 c73 17 140 54 172 93 15 19 28 34 30 33 1 -2 -8 -32 -21
-67z m2574 -84 c0 -73 0 -75 -27 -80 -16 -3 -122 -22 -238 -41 -115 -19 -273
-47 -350 -60 -77 -14 -290 -50 -473 -80 -183 -30 -338 -56 -344 -58 -14 -3
-11 145 3 154 6 3 90 18 187 34 97 15 411 67 697 116 286 48 526 88 533 88 8
1 12 -20 12 -73z m-10 -248 c0 -94 35 -309 70 -433 45 -159 139 -324 224 -390
l31 -25 -110 0 c-143 0 -352 25 -440 52 -60 19 -79 31 -130 83 -70 71 -133
178 -169 285 -34 103 -66 266 -66 338 l0 59 43 7 c23 3 143 24 267 46 303 52
280 54 280 -22z m-6388 -317 c73 -11 201 -27 283 -36 83 -9 159 -18 170 -20
17 -4 23 -19 37 -112 43 -273 154 -512 281 -604 l40 -29 -60 0 c-148 0 -438
40 -508 70 -166 71 -307 301 -368 600 -22 107 -27 150 -17 150 5 0 69 -9 142
-19z m771 -92 l108 -12 25 -49 c36 -70 89 -126 135 -140 65 -19 112 2 191 84
l66 70 116 -7 c64 -4 116 -11 116 -16 0 -19 -63 -204 -90 -265 -119 -263 -313
-402 -492 -350 -178 51 -300 243 -368 578 -28 137 -30 131 33 124 28 -3 101
-11 160 -17z"/>
<path d="M3599 7330 c-515 -22 -1181 -107 -1298 -167 -79 -41 -123 -103 -166
-236 -113 -346 -385 -1390 -388 -1488 -2 -40 15 -66 49 -80 14 -5 115 0 251
12 329 28 770 50 978 48 405 -5 1022 -46 1565 -105 345 -38 428 -28 519 66 74
77 94 160 160 670 63 492 104 921 94 985 -13 87 -55 139 -143 179 -146 66
-583 113 -1115 120 -165 3 -393 1 -506 -4z m67 -108 c-20 -33 -229 -1062 -286
-1407 -22 -137 -43 -262 -46 -276 l-5 -26 -422 -6 c-416 -7 -505 -11 -865 -43
-101 -9 -185 -14 -188 -12 -18 19 358 1422 408 1523 44 88 75 106 224 134 329
62 1200 145 1180 113z m1015 -16 c211 -22 420 -54 470 -71 94 -33 125 -92 115
-213 -32 -361 -122 -1100 -157 -1290 -24 -126 -52 -177 -119 -217 -47 -27
-174 -26 -415 3 -240 29 -604 59 -908 76 -136 7 -250 15 -253 18 -15 16 104
667 232 1264 52 243 94 445 94 449 0 13 786 -2 941 -19z"/>
<path d="M2985 6875 c-146 -39 -304 -139 -360 -227 -37 -59 17 -94 66 -42 41
44 151 111 228 138 95 34 210 44 267 23 37 -14 44 -14 63 -1 26 19 27 58 2 83
-41 41 -167 53 -266 26z"/>
<path d="M2985 6402 c-115 -40 -197 -137 -240 -285 -26 -90 -18 -245 16 -317
113 -236 394 -207 519 54 47 98 64 182 58 279 -7 86 -32 150 -85 208 -69 77
-162 98 -268 61z m204 -148 c26 -19 60 -87 61 -122 0 -53 -48 -102 -101 -102
-30 0 -75 50 -83 93 -19 100 55 178 123 131z"/>
<path d="M4207 6906 c-71 -26 -105 -74 -87 -122 10 -25 13 -26 53 -18 23 4 80
8 127 7 148 -1 280 -62 397 -182 58 -60 64 -64 88 -53 87 40 -62 215 -272 321
-116 58 -227 75 -306 47z"/>
<path d="M4246 6396 c-81 -30 -164 -124 -208 -235 -19 -47 -22 -76 -23 -186 0
-125 1 -132 31 -195 41 -86 74 -123 136 -154 136 -68 293 -4 372 152 115 228
64 520 -107 608 -43 23 -152 28 -201 10z m252 -206 c48 -96 17 -180 -67 -180
-69 0 -113 77 -91 159 14 51 43 73 95 69 36 -3 42 -7 63 -48z"/>
<path d="M5735 7156 c-38 -17 -60 -42 -74 -86 -15 -50 -29 -148 -176 -1280
-25 -190 -50 -370 -56 -400 -11 -62 -34 -623 -43 -1065 -4 -159 -9 -393 -12
-520 -6 -250 -1 -289 38 -283 15 2 44 37 95 113 41 61 100 136 131 168 126
128 301 168 465 107 168 -63 278 -192 403 -474 55 -124 79 -146 117 -108 l22
23 0 942 c0 1093 -10 1402 -70 2266 -14 194 -30 374 -36 400 -13 58 -58 106
-118 126 -85 27 -497 85 -606 85 -27 -1 -63 -7 -80 -14z m400 -126 c110 -16
218 -35 239 -42 57 -19 76 -52 86 -144 23 -210 80 -1199 80 -1391 l0 -73 -96
0 -96 0 21 33 c57 93 85 337 86 757 0 318 -1 326 -23 383 -31 77 -62 110 -130
144 -53 26 -65 28 -182 28 -138 -1 -183 -10 -250 -53 -111 -70 -135 -206 -133
-732 1 -190 5 -367 11 -395 8 -46 6 -55 -21 -106 l-30 -56 -81 -6 c-45 -3 -82
-4 -84 -2 -2 2 35 295 82 652 47 356 92 704 101 773 23 182 36 243 54 258 20
17 91 12 366 -28z m133 -430 c34 -15 47 -29 64 -67 19 -43 22 -72 26 -268 3
-154 -1 -285 -12 -435 -25 -313 -42 -379 -111 -424 -27 -18 -103 -27 -148 -19
l-27 5 19 27 c102 145 117 294 37 375 -81 80 -155 45 -245 -116 -14 -26 -30
-48 -34 -48 -12 0 -1 609 13 740 14 137 24 170 59 204 38 36 72 44 206 45 89
0 118 -3 153 -19z m-186 -916 c17 -62 13 -72 -196 -413 -101 -166 -169 -268
-184 -274 -18 -8 -28 -6 -49 9 -48 36 -50 48 -21 106 14 30 70 125 125 213 55
88 126 205 158 260 33 55 72 113 87 129 26 26 30 27 50 14 12 -8 26 -28 30
-44z m485 -407 c1 -1 5 -91 9 -200 l7 -197 -172 0 c-171 0 -172 0 -195 -25
-53 -57 -45 -203 12 -234 13 -7 87 -11 187 -11 l166 0 -1 -565 c-1 -311 -3
-565 -5 -565 -3 0 -26 44 -53 98 -99 200 -205 322 -334 384 -98 48 -163 62
-262 55 -103 -6 -179 -33 -262 -92 -61 -44 -173 -170 -197 -222 -15 -33 -26
-28 -22 10 2 17 7 214 10 437 5 382 17 798 31 1028 l6 102 64 0 c35 0 64 -2
64 -5 0 -3 -18 -39 -40 -79 -31 -56 -40 -84 -40 -120 0 -90 68 -168 146 -168
67 0 102 36 208 213 l98 164 287 -3 c157 -2 287 -5 288 -5z m13 -529 l0 -48
-122 -1 c-68 0 -134 -3 -148 -5 -33 -6 -51 19 -43 60 3 17 10 34 15 37 4 3 73
5 153 5 l145 -1 0 -47z"/>
<path d="M2375 4941 c-199 -20 -276 -65 -330 -195 -60 -143 -105 -846 -65
-998 14 -51 52 -95 100 -116 41 -17 342 -35 896 -52 365 -12 448 -9 496 16 36
19 74 70 87 119 25 98 51 474 53 780 2 208 1 223 -21 270 -67 151 -166 174
-781 180 -195 2 -391 0 -435 -4z m850 -91 c245 -23 293 -53 310 -193 l7 -58
-583 8 c-321 4 -648 7 -726 7 -95 1 -143 5 -143 12 0 30 34 117 56 144 51 60
109 79 274 90 154 10 656 4 805 -10z m73 -326 l242 -6 -6 -122 c-4 -66 -7
-121 -8 -122 0 0 -120 3 -266 7 -146 4 -402 10 -570 13 -168 3 -379 9 -469 12
l-164 7 7 91 c4 50 10 102 13 115 l6 23 486 -6 c267 -3 595 -9 729 -12z m-663
-304 c204 -5 487 -12 630 -16 143 -3 260 -7 261 -8 0 0 -2 -50 -5 -111 l-6
-110 -195 3 c-107 2 -325 7 -485 12 -159 5 -404 12 -542 16 l-253 7 0 41 c0
23 3 71 7 109 l6 67 106 0 c58 0 273 -4 476 -10z m-275 -295 c129 -3 377 -10
550 -15 173 -5 377 -10 454 -11 l139 -1 -6 -77 c-3 -43 -12 -91 -20 -108 -29
-54 -47 -57 -390 -50 -384 8 -951 35 -983 47 -39 15 -54 51 -61 144 l-6 86 44
-5 c24 -2 150 -7 279 -10z"/>
<path d="M1311 4648 c-68 -37 -85 -112 -85 -390 l-1 -207 28 -29 c41 -43 83
-51 277 -54 258 -3 273 8 291 220 5 64 10 176 12 247 2 111 -1 135 -16 158
-35 55 -64 61 -282 65 -149 2 -206 0 -224 -10z m327 -77 c53 -5 89 -14 99 -24
17 -17 18 -131 4 -341 -12 -166 -4 -161 -225 -153 -229 8 -216 -2 -216 180 1
131 12 265 26 310 3 10 15 22 27 27 27 11 175 11 285 1z"/>
<path d="M3995 4611 c-61 -15 -96 -41 -116 -86 -15 -35 -21 -84 -29 -264 -8
-154 -8 -232 0 -260 12 -45 73 -106 116 -115 121 -26 485 -36 574 -15 59 13
115 51 136 90 20 39 32 166 36 369 3 141 1 158 -18 190 -29 50 -84 77 -184 89
-94 12 -468 13 -515 2z m565 -104 c71 -21 74 -33 63 -274 -9 -179 -12 -207
-30 -231 -34 -46 -90 -54 -333 -48 -329 7 -330 8 -329 194 0 192 13 330 31
348 8 8 37 19 64 24 71 13 479 3 534 -13z"/>
<path d="M3760 3610 c-18 -33 3 -55 69 -73 34 -10 61 -20 61 -25 -1 -12 -163
-110 -252 -152 -301 -141 -721 -177 -1138 -99 -127 24 -289 70 -389 110 -78
31 -101 28 -101 -13 0 -32 41 -62 140 -101 l95 -38 40 -87 c31 -69 54 -102
110 -158 114 -115 263 -204 412 -246 103 -29 285 -31 388 -4 176 45 399 187
550 348 43 46 115 140 161 210 46 70 89 130 95 134 7 4 29 -13 55 -42 36 -42
45 -47 61 -38 33 20 27 64 -18 132 -47 72 -90 104 -184 138 -83 30 -140 32
-155 4z m-140 -528 c0 -4 -32 -34 -72 -67 -155 -128 -338 -204 -512 -213 -94
-5 -215 9 -245 28 -11 6 0 18 43 45 148 95 332 166 516 199 83 15 270 21 270
8z"/>
<path d="M8502 7194 c-36 -25 -54 -72 -59 -153 -7 -102 10 -144 69 -171 52
-24 78 -25 124 -5 49 20 73 78 74 173 0 90 -18 134 -65 156 -42 20 -114 20
-143 0z m122 -116 c6 -17 6 -45 0 -75 -9 -48 -9 -48 -49 -48 l-40 0 -3 63 c-4
75 8 94 52 90 23 -2 33 -10 40 -30z"/>
<path d="M7769 5974 c-15 -17 -17 -94 -24 -751 -7 -707 -7 -731 11 -741 18 -9
131 -6 557 13 117 6 162 11 173 22 9 10 14 38 15 86 0 40 2 86 4 102 2 17 6
301 10 632 l6 602 -23 5 c-13 2 -156 12 -318 21 -162 9 -317 19 -345 22 -41 4
-53 2 -66 -13z m451 -94 c113 -6 210 -13 215 -14 6 -2 9 -52 7 -131 l-3 -128
-147 6 c-81 4 -218 10 -304 13 l-158 7 0 135 0 135 93 -6 c50 -4 184 -11 297
-17z m153 -346 l68 -6 -3 -132 c-2 -72 -6 -130 -10 -128 -5 1 -143 2 -308 2
l-300 0 0 141 0 141 243 -6 c133 -4 273 -9 310 -12z m60 -351 c3 -5 2 -65 -1
-135 l-5 -126 -81 -6 c-44 -4 -181 -7 -304 -9 l-222 -2 0 143 0 142 304 0
c168 0 307 -3 309 -7z m-3 -472 l0 -128 -107 -6 c-60 -4 -197 -10 -305 -13
l-198 -7 0 136 0 137 203 3 c111 1 248 3 305 5 l102 2 0 -129z"/>
<path d="M8644 5918 c-9 -13 -18 -406 -25 -1050 -4 -287 -2 -329 12 -343 13
-14 32 -14 145 -6 71 6 220 13 331 17 115 4 212 12 225 18 17 8 25 24 29 57 4
25 10 317 14 650 7 525 6 606 -7 617 -10 8 -106 17 -279 27 -145 8 -303 17
-350 20 -66 5 -89 3 -95 -7z m306 -88 c96 -5 217 -12 268 -16 l93 -6 -3 -105
-3 -105 -160 1 c-88 1 -225 4 -303 7 l-144 7 6 30 c3 16 6 67 6 113 l0 84 33
0 c17 0 111 -5 207 -10z m247 -310 l103 0 0 -130 0 -130 -300 0 -300 0 0 137
0 136 197 -6 c108 -4 243 -7 300 -7z m103 -454 l0 -123 -61 -7 c-34 -3 -172
-6 -306 -6 l-244 0 2 93 c1 50 4 109 7 130 l5 37 298 0 299 0 0 -124z m-10
-323 l-5 -118 -225 -12 c-124 -6 -258 -12 -297 -12 l-73 -1 0 125 0 125 168 3
c92 1 228 4 302 5 l135 2 -5 -117z"/>
<path d="M8522 3254 c-81 -42 -149 -162 -199 -353 -63 -244 -26 -631 75 -792
119 -187 307 -75 381 226 55 224 54 540 -4 741 -17 59 -68 139 -106 167 -37
27 -106 32 -147 11z m110 -114 c68 -53 103 -237 95 -499 -7 -238 -35 -359
-109 -468 -71 -105 -154 -46 -207 145 -19 70 -16 88 9 57 17 -21 70 -28 105
-15 75 28 122 117 131 249 11 147 -37 283 -112 319 -33 15 -39 15 -80 0 -24
-8 -44 -11 -44 -6 0 5 14 45 31 88 51 134 117 181 181 130z m-100 -327 c58
-65 46 -308 -17 -349 -54 -36 -95 36 -95 169 0 87 10 135 35 173 18 28 55 31
77 7z"/>
<path d="M5863 2753 c-53 -36 -83 -74 -120 -148 -129 -258 -153 -679 -54 -958
61 -175 144 -235 254 -184 122 56 209 252 238 537 49 489 -120 888 -318 753z
m116 -88 c96 -81 150 -399 117 -680 -25 -206 -67 -333 -135 -401 -55 -56 -108
-53 -154 8 -29 38 -72 159 -83 233 l-7 49 32 -32 c57 -57 124 -55 184 4 141
142 126 503 -25 577 -45 22 -100 11 -142 -28 l-26 -24 6 27 c25 104 82 220
129 260 43 39 64 40 104 7z m-94 -321 c59 -23 85 -216 46 -343 -32 -107 -86
-139 -134 -81 -69 81 -54 323 24 406 23 25 36 28 64 18z"/>
</g>
</svg>
