<?xml version="1.0" standalone="no"?>
<!DOCTYPE svg PUBLIC "-//W3C//DTD SVG 20010904//EN"
 "http://www.w3.org/TR/2001/REC-SVG-20010904/DTD/svg10.dtd">
<svg version="1.0" xmlns="http://www.w3.org/2000/svg"
 width="1024.000000pt" height="1024.000000pt" viewBox="0 0 1024.000000 1024.000000"
 preserveAspectRatio="xMidYMid meet">
<metadata>
Created by potrace 1.16, written by Peter Selinger 2001-2019
</metadata>
<g transform="translate(0.000000,1024.000000) scale(0.100000,-0.100000)"
fill="#000000" stroke="none">
<path d="M8582 9778 c-143 -21 -279 -93 -393 -207 -79 -80 -171 -217 -191
-286 -6 -22 -13 -41 -14 -43 -1 -2 -26 10 -55 27 -241 134 -556 25 -625 -218
-9 -31 -17 -57 -18 -58 -1 -1 -24 5 -51 13 -92 28 -219 4 -322 -62 -52 -33
-92 -89 -76 -104 4 -5 54 14 110 42 91 45 112 52 181 56 67 4 87 1 140 -21 87
-35 98 -30 104 47 14 165 160 275 352 264 97 -6 174 -38 242 -101 66 -60 86
-57 94 15 8 63 70 184 141 273 170 215 426 312 643 245 217 -67 320 -329 231
-589 -14 -41 -25 -78 -25 -83 0 -14 19 -9 85 23 83 40 220 51 275 22 70 -36
86 -124 38 -217 -16 -31 -17 -40 -6 -47 7 -5 22 -6 33 -3 11 4 58 8 105 11 68
3 92 0 119 -14 47 -24 60 -48 40 -68 -45 -45 -253 -63 -869 -73 -379 -7 -419
-9 -370 -20 160 -38 903 -60 1090 -33 169 25 237 62 246 136 11 83 -78 154
-207 163 l-67 5 0 63 c-1 82 -29 136 -91 172 -36 21 -61 27 -132 30 -50 3
-101 0 -120 -7 -30 -10 -31 -10 -24 12 3 12 9 63 12 112 21 346 -257 578 -625
523z"/>
<path d="M1771 9470 c-521 -41 -781 -152 -781 -334 0 -27 7 -63 16 -82 97
-204 752 -368 1749 -440 249 -18 1233 -28 1475 -14 80 4 233 10 340 14 l195 7
23 -50 c25 -55 55 -79 101 -83 22 -2 31 -7 31 -19 0 -40 -52 -291 -80 -389
-16 -58 -30 -106 -30 -107 0 -1 -18 -4 -40 -8 -71 -12 -99 -41 -140 -140 l-36
-90 -109 -13 c-193 -22 -360 -72 -483 -143 -82 -49 -242 -211 -276 -280 l-27
-57 -102 -12 c-702 -82 -1290 -505 -1621 -1167 -89 -179 -171 -398 -216 -581
l-22 -93 -60 -45 c-118 -91 -207 -227 -244 -374 -20 -79 -15 -264 10 -354 22
-79 85 -212 140 -294 202 -303 596 -536 1166 -688 36 -9 67 -18 68 -20 2 -1
-28 -43 -66 -93 -80 -103 -121 -171 -173 -286 l-37 -80 -68 3 c-96 5 -208 26
-279 52 -51 19 -75 38 -160 125 -55 56 -116 111 -135 121 -80 41 -187 8 -244
-75 -53 -76 -45 -155 26 -263 111 -168 251 -255 469 -294 76 -13 158 -16 424
-15 182 1 341 3 355 5 14 2 90 7 170 11 147 6 328 20 388 30 28 5 32 10 32 37
l0 31 -282 -7 c-537 -13 -923 -15 -998 -6 -231 30 -370 107 -475 266 -58 87
-59 140 -2 174 57 35 92 27 145 -31 183 -201 269 -241 549 -255 l128 -7 55
114 c53 110 157 280 179 293 6 4 37 -3 69 -16 l58 -22 -53 -90 c-29 -49 -66
-122 -83 -162 -49 -117 -37 -209 18 -139 l20 25 333 0 c184 0 476 5 649 12
455 18 434 18 438 -13 4 -30 -9 -43 -87 -84 -31 -16 -56 -34 -56 -40 0 -17 96
-17 142 0 106 41 128 164 40 229 -26 19 -39 20 -148 18 l-119 -3 25 68 c15 37
32 95 39 128 l12 60 116 3 115 3 41 -78 c65 -127 115 -318 136 -520 l5 -53
-87 0 c-108 1 -228 22 -287 50 -24 12 -84 53 -132 92 -48 39 -102 77 -120 84
-68 29 -150 10 -211 -49 -46 -44 -62 -78 -62 -131 0 -132 166 -311 359 -385
181 -69 376 -76 786 -26 546 66 1469 208 1587 245 82 25 144 71 175 129 58
111 -5 221 -129 221 -25 0 -98 -11 -162 -25 -64 -14 -120 -25 -124 -25 -5 0
-12 29 -15 65 -17 180 -214 587 -338 699 -22 21 -39 38 -37 39 1 1 50 33 108
72 134 88 329 281 419 413 189 279 311 664 311 981 l0 77 123 12 c270 27 603
83 1101 183 164 33 302 57 306 52 4 -4 42 -102 85 -218 224 -607 286 -728 416
-817 104 -72 270 -109 337 -74 54 28 66 65 59 181 -6 87 -17 169 -32 240 -4
19 1 20 108 20 107 0 115 1 180 34 214 107 382 388 441 739 48 281 20 523 -84
737 -73 150 -184 267 -294 309 -25 10 -46 18 -46 19 0 1 5 18 10 37 30 101
102 445 107 512 5 65 3 82 -16 122 -27 55 -94 102 -158 112 -300 45 -518 -168
-832 -811 -81 -164 -229 -480 -235 -502 -1 -1 -62 7 -136 18 -74 10 -274 37
-445 59 -549 72 -1274 187 -1291 204 -6 6 -35 81 -63 166 -52 156 -135 342
-194 435 -96 152 -234 301 -356 384 -77 52 -224 124 -312 153 l-67 21 -7 61
c-14 126 -44 184 -113 213 -33 14 -34 16 -29 56 4 23 18 142 33 265 26 212 28
223 48 221 53 -4 71 3 107 40 l37 40 52 -20 c89 -34 461 -147 775 -235 773
-218 1500 -375 1985 -430 178 -20 469 -15 541 9 106 35 173 83 200 141 91 201
-149 368 -747 519 -703 178 -1499 264 -2382 255 -199 -1 -362 0 -362 4 0 4 4
9 9 13 6 3 13 25 16 49 29 193 -359 319 -531 172 -22 -19 -48 -50 -59 -70 -11
-20 -24 -36 -30 -36 -5 0 -51 18 -102 40 -475 205 -1225 395 -1878 475 -361
45 -825 64 -1074 45z m824 -134 c699 -64 1341 -207 2035 -451 132 -47 244 -85
248 -85 5 0 32 -7 61 -16 51 -15 52 -16 36 -34 -16 -17 -33 -19 -184 -19 -91
-1 -274 -5 -406 -11 -567 -24 -1241 -18 -1684 15 -761 55 -1460 209 -1575 346
-96 114 84 221 439 258 55 6 116 13 135 15 80 9 745 -4 895 -18z m2647 -386
c69 -26 113 -69 104 -103 -8 -34 -28 -39 -78 -20 -24 8 -90 18 -148 20 -80 4
-111 10 -132 24 -14 11 -31 19 -37 19 -35 0 32 66 77 76 15 3 32 8 37 10 22 8
126 -7 177 -26z m-3 -207 l51 -16 0 -49 c0 -49 -19 -110 -39 -122 -6 -4 -24 0
-42 9 -50 26 -126 34 -226 23 -72 -8 -96 -8 -108 2 -28 24 -18 40 28 41 68 2
90 12 112 52 17 31 18 40 7 57 -12 19 -10 20 77 20 55 0 108 -6 140 -17z
m1246 -78 c28 -3 138 -12 245 -20 890 -70 1809 -285 2033 -477 56 -47 76 -98
53 -132 -138 -211 -1395 -12 -3079 489 -344 102 -357 107 -357 136 l0 22 528
-6 c290 -4 550 -9 577 -12z m-1385 -150 c0 -17 -61 -515 -66 -538 -6 -27 -7
-27 -57 -21 -29 4 -55 9 -59 13 -4 4 1 38 12 76 21 72 74 333 85 417 5 38 10
48 28 51 35 7 57 7 57 2z m-8 -668 c66 -33 87 -60 95 -129 l6 -51 -29 6 c-107
24 -267 47 -358 53 -71 5 -106 11 -103 18 2 6 12 34 21 63 16 48 20 53 54 58
20 4 42 8 47 11 6 2 55 2 110 1 85 -3 109 -7 157 -30z m-214 -238 c456 -49
777 -197 965 -444 94 -124 235 -417 272 -568 l7 -27 -68 42 c-246 150 -731
348 -1110 454 -55 15 -100 28 -102 30 -2 1 13 25 33 53 79 109 97 233 51 340
l-24 55 -3 -121 c-4 -119 -4 -121 -48 -206 -24 -48 -48 -91 -55 -96 -7 -5 -46
0 -106 15 -241 60 -533 101 -757 106 -73 2 -133 5 -133 7 0 11 76 104 119 144
163 153 389 223 724 226 76 1 181 -4 235 -10z m4361 -203 c44 -23 65 -75 57
-143 -3 -28 -19 -107 -35 -175 -16 -68 -34 -161 -41 -208 -18 -145 -16 -140
-59 -140 -57 0 -148 -26 -231 -67 -56 -27 -95 -57 -155 -117 -164 -166 -266
-408 -296 -704 l-12 -122 -31 0 c-58 0 -289 -40 -695 -120 -615 -120 -1032
-190 -1138 -190 l-33 0 0 83 c0 151 -32 370 -75 522 -14 50 -52 143 -83 207
-51 102 -56 117 -38 113 27 -6 448 -70 631 -95 193 -27 841 -106 1068 -130 59
-7 134 -18 165 -25 31 -8 61 -10 65 -5 12 11 -9 47 -38 66 l-24 16 29 61 c16
34 79 169 139 300 177 384 312 615 435 745 107 113 193 155 301 148 34 -2 76
-11 94 -20z m-4954 -296 c579 -86 1407 -377 1780 -625 50 -33 124 -93 166
-135 122 -120 191 -278 241 -550 25 -139 31 -475 10 -605 -44 -272 -97 -456
-187 -643 -143 -298 -338 -518 -597 -673 -69 -42 -89 -49 -133 -49 -63 0 -131
-33 -197 -94 -56 -53 -123 -80 -278 -112 -98 -20 -359 -54 -417 -54 -11 0 -24
13 -32 30 -22 50 -88 132 -139 172 -120 96 -274 87 -347 -20 -44 -64 -29 -109
54 -166 23 -16 41 -32 41 -35 0 -14 -425 2 -625 24 -655 71 -1279 259 -1611
483 -194 130 -312 259 -400 434 -79 157 -106 307 -80 441 94 479 799 678 1481
416 86 -33 290 -137 392 -200 24 -15 33 -17 39 -7 10 16 -86 101 -203 181 -51
34 -93 64 -93 67 0 3 15 15 33 28 48 32 81 69 121 136 l36 60 0 -45 c1 -118
51 -255 122 -327 111 -114 270 -131 432 -45 78 42 187 155 228 238 164 329
105 695 -129 802 -66 31 -156 34 -232 8 -121 -40 -254 -162 -318 -292 -20 -40
-37 -73 -39 -73 -1 0 0 15 3 34 7 43 -12 151 -38 221 -49 131 -152 205 -283
205 -91 0 -156 -29 -238 -107 -192 -183 -273 -446 -203 -662 7 -24 7 -24 -53
-17 -93 11 -314 8 -410 -5 -86 -11 -202 -42 -275 -72 l-37 -16 6 27 c14 61 95
295 134 388 117 274 275 518 445 688 134 133 279 205 507 250 110 23 337 46
443 46 l40 0 -68 -62 c-93 -83 -172 -192 -212 -293 l-16 -40 43 45 c24 25 64
70 90 100 27 30 96 99 155 153 l108 97 69 0 69 0 -105 -107 c-96 -100 -208
-242 -208 -266 0 -6 53 41 118 104 116 114 196 181 280 233 40 25 50 27 105
21 309 -31 481 -68 613 -130 125 -60 175 -136 210 -322 25 -136 15 -516 -19
-714 -45 -253 -86 -399 -150 -522 -78 -152 -181 -231 -319 -244 l-68 -6 -46
42 c-86 80 -216 118 -314 91 -54 -15 -100 -45 -100 -67 0 -14 11 -15 80 -10
73 6 80 5 80 -12 0 -47 -140 -200 -258 -282 -199 -138 -450 -215 -737 -226
-246 -9 -465 24 -679 101 -54 20 -103 36 -110 36 -20 -1 78 -82 134 -110 30
-15 91 -40 136 -55 78 -26 83 -30 135 -98 69 -91 164 -169 264 -217 135 -65
181 -75 345 -75 138 0 150 2 242 34 54 18 131 53 172 77 240 140 405 424 431
737 l8 89 31 -6 c38 -8 93 -51 123 -97 33 -50 43 -60 54 -54 5 4 9 16 9 28 0
21 4 22 65 19 212 -11 372 134 471 430 94 279 153 760 124 1018 -33 306 -106
427 -308 513 -237 101 -732 155 -1182 128 -293 -17 -348 -26 -462 -75 -21 -9
-38 -14 -38 -10 0 11 308 153 399 183 109 37 303 78 428 91 142 14 487 4 648
-20z m5000 -471 c140 -52 264 -229 326 -465 21 -79 24 -110 23 -284 -1 -177
-3 -204 -27 -292 -33 -123 -84 -251 -138 -341 -54 -91 -168 -206 -239 -242
-213 -108 -478 48 -590 347 -35 95 -60 221 -66 333 -14 250 72 558 206 739
136 184 340 267 505 205z m-6124 -371 c55 -19 94 -55 127 -116 40 -74 53 -136
53 -242 0 -163 -64 -329 -170 -442 l-58 -62 -59 26 c-72 32 -234 83 -291 93
-42 7 -43 7 -63 72 -50 161 -3 356 123 521 104 135 226 189 338 150z m804 -92
c111 -51 185 -197 185 -366 0 -122 -49 -295 -111 -391 -74 -116 -209 -200
-331 -207 -83 -5 -124 8 -183 60 -81 71 -115 168 -115 326 0 114 21 195 75
301 120 232 324 350 480 277z m4523 -605 c35 -260 171 -501 341 -606 l58 -36
7 -122 c4 -67 9 -152 13 -188 3 -43 2 -69 -6 -73 -18 -12 -133 14 -196 44
-138 66 -183 148 -401 730 -56 151 -101 276 -100 277 1 1 55 14 121 28 65 14
121 28 124 30 17 18 28 -5 39 -84z m-4813 -1150 c-26 -51 -113 -149 -168 -190
-120 -88 -274 -142 -412 -145 -103 -1 -185 10 -185 26 0 16 60 70 129 116 70
46 414 186 511 206 36 8 82 15 103 15 l38 1 -16 -29z m711 -692 c73 -35 142
-120 221 -275 113 -222 153 -384 153 -623 0 -133 10 -189 25 -142 5 17 14 21
50 21 53 0 279 23 485 50 157 21 582 89 588 95 2 2 -3 16 -11 32 -8 15 -20 60
-26 98 -37 215 -181 496 -313 609 -24 21 -60 47 -80 59 -44 24 -45 28 -18 52
32 29 126 32 177 6 80 -40 177 -178 277 -393 73 -157 118 -319 125 -453 1 -26
3 -28 14 -14 7 10 36 19 77 23 36 4 107 16 159 27 51 10 106 19 121 19 79 0
52 -93 -41 -141 -62 -31 -233 -61 -969 -169 -942 -138 -1138 -148 -1365 -70
-137 47 -315 213 -315 294 0 48 53 96 107 96 34 0 68 -21 152 -93 69 -59 161
-110 232 -127 70 -18 364 -25 432 -10 67 14 69 26 9 55 -38 19 -41 23 -42 60
-1 111 -36 312 -77 433 -62 185 -174 347 -296 427 -27 17 -27 18 -10 38 38 41
95 47 159 16z m1049 -155 c94 -55 200 -197 270 -361 35 -86 98 -273 92 -279
-10 -11 -673 -103 -859 -120 l-78 -7 0 68 c0 146 -47 368 -109 517 l-29 67 57
6 c261 28 443 66 551 114 58 25 54 25 105 -5z m-2055 -78 c96 -14 239 -31 318
-38 120 -10 143 -15 139 -28 -2 -8 -17 -70 -33 -137 l-29 -121 -80 -6 c-44 -3
-243 -8 -443 -11 l-363 -6 25 49 c76 150 231 338 270 328 12 -3 100 -16 196
-30z"/>
<path d="M2395 9263 c-257 -9 -525 -47 -711 -102 -96 -29 -199 -69 -192 -76 2
-2 62 10 133 26 175 38 455 77 650 89 332 21 768 10 1019 -26 59 -8 110 -13
113 -11 4 5 -161 37 -317 61 -176 28 -494 45 -695 39z"/>
<path d="M2570 9124 c-271 -23 -438 -49 -504 -79 -26 -12 -27 -13 -6 -10 14 3
86 11 160 19 269 29 479 39 760 34 154 -3 279 -3 277 -1 -17 16 -578 46 -687
37z"/>
<path d="M7030 8276 c0 -10 181 -68 329 -105 186 -47 405 -85 571 -100 241
-22 499 -8 590 32 l35 16 -60 -7 c-33 -4 -168 -7 -300 -7 -331 1 -572 33 -973
131 -191 46 -192 46 -192 40z"/>
<path d="M7507 8239 c13 -12 197 -47 320 -60 130 -14 371 1 426 26 l32 15 -39
-6 c-125 -18 -492 -8 -662 19 -47 8 -81 10 -77 6z"/>
<path d="M5074 6679 c-16 -5 -41 -20 -55 -35 -21 -23 -24 -33 -22 -102 8 -416
5 -583 -16 -747 -60 -489 -182 -967 -365 -1443 -41 -105 -43 -120 -19 -169 30
-64 166 -110 388 -132 271 -27 492 27 612 149 90 91 142 218 214 522 87 371
123 711 116 1078 -7 345 -34 468 -133 606 -89 126 -210 186 -504 248 -157 33
-180 36 -216 25z m175 -84 c274 -55 389 -102 466 -187 58 -64 78 -103 109
-211 33 -115 46 -242 46 -459 0 -343 -45 -694 -135 -1063 -75 -307 -126 -408
-247 -485 -94 -61 -164 -75 -373 -75 -199 0 -334 19 -415 58 -72 35 -72 49 -2
222 78 195 149 419 211 664 133 528 183 952 159 1350 -15 239 -27 227 181 186z"/>
<path d="M5167 6410 c-38 -30 -47 -77 -47 -250 0 -281 -34 -590 -91 -838 -27
-119 -25 -154 11 -196 19 -21 50 -41 78 -50 144 -47 476 -68 539 -34 40 23 58
70 79 218 35 249 33 653 -5 827 -47 216 -127 293 -341 328 -133 21 -191 20
-223 -5z m245 -76 c159 -29 216 -93 255 -289 27 -135 24 -607 -5 -789 -15 -98
-25 -133 -39 -144 -38 -29 -438 8 -512 48 -30 15 -35 48 -17 116 54 213 95
567 99 865 2 220 4 224 82 215 27 -4 89 -14 137 -22z"/>
<path d="M3869 6567 c-33 -22 -59 -70 -46 -83 3 -3 28 -1 56 6 39 9 63 9 108
0 83 -18 130 -45 192 -111 29 -33 58 -59 62 -59 19 0 8 58 -19 101 -89 139
-259 210 -353 146z"/>
<path d="M8921 6434 c-87 -79 -191 -256 -191 -327 0 -18 2 -19 14 -7 8 8 35
53 60 99 25 46 70 118 99 160 55 78 81 121 73 121 -2 0 -27 -21 -55 -46z"/>
<path d="M9370 6394 c0 -3 18 -35 40 -71 22 -37 40 -72 40 -77 0 -6 -18 -31
-39 -55 l-38 -44 -22 36 c-26 42 -84 94 -89 79 -1 -5 17 -41 42 -78 26 -37 46
-71 46 -74 0 -4 -23 -39 -51 -79 l-50 -72 -28 30 c-30 32 -84 48 -123 36 -12
-4 -38 -19 -56 -32 -18 -14 -34 -23 -35 -22 -1 2 -26 32 -55 66 l-52 61 35 82
c19 45 35 87 35 93 0 21 -49 -36 -77 -89 -30 -59 -34 -61 -53 -39 -23 28 -32
15 -10 -15 19 -27 20 -35 10 -90 -7 -40 -8 -66 -1 -78 11 -19 9 -21 34 53 l14
40 28 -45 c15 -25 36 -55 47 -67 18 -19 19 -26 8 -58 -7 -21 -10 -64 -8 -98
l5 -60 -57 -76 c-70 -92 -143 -211 -136 -219 10 -9 45 29 129 138 44 58 82
107 83 109 2 2 15 -10 29 -27 35 -42 84 -57 131 -42 30 10 38 10 45 -1 4 -8
30 -45 58 -84 28 -38 51 -73 51 -78 0 -4 -16 -31 -35 -60 -60 -89 -42 -106 28
-26 41 47 46 50 57 33 10 -17 10 -15 5 9 -4 19 2 45 19 81 13 28 28 65 32 81
7 27 6 29 -9 17 -9 -8 -28 -34 -43 -59 l-26 -45 -23 40 c-13 22 -37 61 -55 87
l-32 47 21 29 c45 61 62 148 41 204 -8 22 -4 33 33 84 23 32 67 99 97 149 30
50 57 91 60 92 3 0 13 -20 23 -45 34 -80 52 -40 22 46 -9 24 -13 49 -11 56 3
7 -1 13 -9 13 -7 0 -16 9 -20 19 -11 37 -105 122 -105 95z m-209 -434 c10 -6
28 -29 40 -52 42 -82 7 -206 -67 -240 -56 -26 -109 55 -102 158 4 69 25 109
69 131 29 15 35 16 60 3z"/>
<path d="M9446 5490 c-15 -44 -102 -186 -166 -269 -33 -45 -57 -81 -52 -81 5
0 30 16 55 35 82 63 183 244 175 314 l-3 26 -9 -25z"/>
<path d="M8733 5405 c12 -88 83 -193 158 -234 24 -14 39 -18 33 -10 -6 8 -32
42 -58 77 -26 34 -63 96 -82 137 -40 86 -60 98 -51 30z"/>
<path d="M3053 5901 c-43 -27 -80 -83 -103 -160 -25 -79 -25 -144 0 -198 55
-123 197 -55 251 119 56 178 -27 312 -148 239z"/>
<path d="M3865 5806 c-86 -37 -168 -218 -150 -329 24 -145 130 -171 229 -56
52 61 79 138 80 229 1 84 -16 125 -64 154 -33 19 -55 20 -95 2z"/>
<path d="M1206 8295 c-177 -45 -338 -178 -413 -341 -34 -75 -43 -204 -20 -284
l15 -52 -36 7 c-183 34 -342 -56 -342 -194 0 -122 84 -182 301 -216 149 -23
541 -30 884 -16 160 7 407 13 550 15 229 2 268 5 329 23 81 25 114 47 140 95
18 32 19 40 7 79 -29 97 -125 144 -281 137 l-89 -3 6 62 c8 85 -13 139 -79
198 -67 60 -131 79 -247 73 -58 -3 -101 -11 -133 -26 l-48 -21 0 57 c0 167
-84 308 -226 378 -66 33 -83 37 -166 40 -60 2 -114 -2 -152 -11z m271 -94
c147 -64 225 -245 188 -436 -18 -97 -18 -92 -1 -98 8 -3 38 15 67 40 80 68
128 87 224 87 62 0 89 -5 121 -21 94 -50 132 -135 99 -223 -26 -70 -28 -85
-12 -99 13 -10 26 -9 68 3 81 24 205 21 259 -6 86 -44 76 -104 -23 -133 -107
-32 -252 -37 -977 -33 -618 4 -728 7 -808 21 -101 19 -165 46 -182 76 -30 56
3 119 79 154 55 25 188 29 238 8 57 -24 65 -12 43 65 -57 198 -25 332 110 466
70 68 171 126 256 147 66 17 192 7 251 -18z"/>
<path d="M7572 4456 c-45 -33 -96 -92 -197 -231 -94 -128 -467 -687 -651 -975
-104 -162 -111 -176 -97 -192 9 -10 20 -18 24 -18 5 0 33 31 63 69 l54 68 79
6 c94 6 166 32 254 90 l66 43 6 -84 c7 -98 24 -132 66 -132 32 0 83 50 220
218 l85 102 23 -82 c61 -211 208 -488 335 -631 39 -44 45 -48 69 -39 33 13 65
76 80 158 12 62 7 304 -7 338 -6 15 2 12 33 -13 25 -20 57 -35 81 -38 36 -5
45 -2 72 25 16 17 30 40 30 51 0 18 8 15 73 -27 39 -26 127 -69 194 -96 112
-45 125 -53 155 -95 103 -147 430 -580 543 -721 364 -454 657 -759 815 -848
23 -13 40 -18 40 -11 0 6 -62 75 -138 153 -179 184 -392 427 -593 676 -128
159 -459 603 -459 615 0 7 60 71 134 143 108 106 139 132 162 132 38 0 107
-72 313 -330 304 -378 532 -634 607 -681 36 -22 55 -20 37 3 -28 36 -212 261
-323 393 -69 83 -163 200 -210 259 -47 60 -128 161 -181 225 -214 259 -235
261 -447 43 -79 -82 -135 -133 -140 -126 -9 13 -186 263 -361 509 -423 596
-747 1034 -784 1060 -32 22 -88 19 -125 -9z m95 -72 c10 -14 54 -73 98 -132
191 -258 835 -1158 835 -1168 0 -2 -51 21 -112 52 -95 48 -180 100 -281 174
-19 13 -19 13 -10 -5 29 -56 23 -135 -12 -149 -26 -10 -81 19 -139 74 l-53 50
9 -57 c16 -96 4 -409 -16 -465 -10 -27 -21 -48 -24 -48 -8 1 -58 68 -116 154
-81 123 -286 563 -286 616 0 8 -95 -91 -277 -289 -23 -25 -44 -43 -47 -40 -3
3 -9 53 -12 112 -4 58 -10 111 -15 118 -6 10 -22 4 -62 -23 -104 -69 -234
-126 -323 -142 -30 -5 -16 18 290 477 335 503 415 617 474 680 43 44 55 46 79
11z"/>
<path d="M1105 3946 c-80 -36 -192 -167 -510 -601 -109 -148 -267 -360 -350
-471 -175 -230 -231 -311 -221 -321 11 -11 142 131 272 293 66 83 244 315 395
515 278 369 402 512 452 525 68 16 121 -27 249 -205 50 -70 105 -141 122 -159
27 -29 31 -30 37 -15 12 34 -114 246 -215 360 -74 83 -158 111 -231 79z"/>
<path d="M755 2982 c-163 -158 -291 -265 -309 -259 -7 3 -10 25 -9 57 2 44 0
50 -12 40 -38 -31 -26 -130 15 -130 62 0 255 154 381 303 57 67 55 74 34 -124
-19 -175 -21 -290 -6 -318 8 -15 21 -21 43 -21 25 0 42 11 80 50 26 27 48 57
48 65 0 8 5 15 10 15 6 0 10 -10 10 -23 0 -42 30 -125 56 -157 64 -76 124 3
150 198 l7 53 51 -93 c69 -124 130 -217 204 -309 76 -97 121 -131 170 -133 34
-1 37 2 50 39 23 67 26 190 7 289 -9 50 -21 98 -26 108 -6 12 -6 18 1 18 5 0
10 -4 10 -9 0 -5 39 -43 86 -83 98 -86 213 -151 331 -187 l82 -26 86 -125
c195 -281 440 -588 644 -809 234 -253 521 -477 755 -587 91 -42 201 -80 192
-65 -3 4 -49 34 -103 66 -401 240 -661 468 -1009 885 -71 85 -140 170 -153
188 l-24 34 149 149 c82 82 167 158 188 169 l40 19 39 -22 c49 -28 96 -82 284
-332 195 -258 318 -402 433 -503 51 -45 96 -82 101 -82 23 0 11 23 -50 91 -37
41 -104 121 -150 178 -82 101 -83 103 -64 123 30 34 155 118 175 118 12 0 125
-106 296 -278 291 -292 442 -420 594 -504 42 -24 78 -45 78 -48 0 -9 -281
-205 -405 -282 -170 -106 -270 -162 -421 -233 -148 -71 -173 -90 -98 -80 109
16 369 134 592 269 582 353 1103 824 1564 1416 126 162 318 428 318 441 0 12
-15 11 -62 -3 -34 -10 -53 -30 -140 -145 -279 -372 -465 -591 -698 -823 -176
-176 -302 -290 -471 -426 l-117 -94 -84 51 c-224 137 -414 307 -789 706 -71
75 -93 93 -124 99 -50 9 -115 -23 -201 -101 l-61 -54 -64 82 c-66 83 -103 133
-201 267 -118 161 -200 230 -277 230 -69 0 -133 -52 -317 -254 l-90 -99 -46
59 c-25 32 -136 190 -248 349 -111 160 -218 309 -237 333 -32 40 -89 79 -99
69 -6 -5 30 -65 154 -259 45 -71 80 -128 77 -128 -3 0 -58 27 -122 60 -68 35
-175 103 -252 160 -74 55 -136 98 -138 97 -1 -2 7 -50 18 -108 30 -152 29
-379 -2 -379 -37 0 -191 198 -351 452 -45 71 -82 127 -83 126 -2 -2 -17 -55
-33 -119 -33 -125 -56 -189 -69 -189 -18 0 -45 63 -72 167 l-28 107 -32 -61
c-40 -74 -97 -143 -118 -143 -17 0 -17 28 7 285 6 66 10 154 8 196 l-3 77
-150 -146z"/>
<path d="M7113 2818 c-102 -97 -348 -414 -408 -525 -74 -141 24 -38 195 202
35 50 109 149 164 220 55 72 104 136 109 143 22 28 -8 9 -60 -40z"/>
<path d="M8375 2721 c72 -144 173 -306 220 -351 53 -51 40 -24 -103 210 -152
249 -200 307 -117 141z"/>
<path d="M7079 2512 c-174 -183 -499 -625 -476 -648 7 -7 66 65 303 371 222
285 279 363 271 371 -2 3 -47 -40 -98 -94z"/>
<path d="M554 2343 c-169 -196 -374 -478 -374 -516 0 -23 52 40 209 250 139
187 231 323 218 323 -2 0 -25 -26 -53 -57z"/>
<path d="M8010 2375 c38 -102 157 -308 271 -471 60 -86 201 -256 207 -249 1 1
-12 25 -30 53 -18 29 -76 119 -128 202 -140 223 -299 463 -316 480 -14 13 -14
12 -4 -15z"/>
<path d="M6998 2248 c-88 -99 -121 -145 -116 -160 6 -16 51 31 129 135 53 70
68 97 55 97 -2 0 -33 -33 -68 -72z"/>
<path d="M809 2163 c-37 -77 -160 -297 -253 -453 -86 -144 -100 -174 -71 -150
62 51 248 349 308 493 31 76 54 157 43 157 -2 0 -15 -21 -27 -47z"/>
<path d="M8950 2120 c0 -87 569 -834 607 -797 9 10 -36 73 -274 383 -109 143
-225 294 -257 336 -59 80 -76 97 -76 78z"/>
<path d="M7065 1935 c-152 -277 -268 -463 -480 -770 -53 -77 -104 -153 -112
-170 l-15 -30 37 35 c94 89 298 366 414 563 98 167 207 404 198 431 -2 6 -21
-21 -42 -59z"/>
<path d="M8130 1997 c0 -23 199 -393 282 -526 83 -131 178 -253 178 -227 0 21
-172 315 -348 596 -80 128 -112 173 -112 157z"/>
<path d="M1643 1817 c20 -57 313 -433 386 -496 l54 -46 -52 81 c-95 150 -410
525 -388 461z"/>
<path d="M6379 1543 c-445 -420 -669 -623 -833 -755 -11 -10 -16 -18 -10 -18
16 0 167 93 233 144 136 105 543 492 655 622 54 64 103 134 94 134 -2 0 -65
-57 -139 -127z"/>
<path d="M1819 1424 c47 -91 104 -169 197 -272 65 -72 168 -151 180 -139 4 3
-42 59 -101 124 -100 110 -178 204 -257 312 -54 73 -64 60 -19 -25z"/>
<path d="M3950 1485 c0 -19 46 -88 91 -139 56 -62 164 -156 180 -156 21 0 3
24 -111 149 -106 115 -160 164 -160 146z"/>
<path d="M2326 1430 c18 -66 166 -261 281 -371 85 -81 207 -176 260 -203 41
-20 83 -37 83 -32 0 2 -51 46 -112 97 -187 156 -373 344 -496 504 -22 29 -23
29 -16 5z"/>
<path d="M8840 1384 c0 -13 74 -116 148 -204 94 -113 240 -257 337 -335 69
-55 171 -113 181 -103 3 3 -62 64 -143 136 -154 135 -241 222 -407 405 -88 95
-116 120 -116 101z"/>
</g>
</svg>
