<?xml version="1.0" encoding="UTF-8" standalone="yes"?>
<svg version="1.0" xmlns="http://www.w3.org/2000/svg" width="1024.000000pt" height="1024.000000pt" viewBox="0 0 1024.000000 1024.000000" preserveAspectRatio="xMidYMid meet">
  <metadata>
Created by potrace 1.16, written by Peter Selinger 2001-2019
</metadata>
  <g transform="translate(0.000000,1024.000000) scale(0.100000,-0.100000)" fill="#000000" stroke="none">
    <path d="M7594 9436 c-77 -24 -169 -81 -230 -141 -68 -67 -134 -186 -134 -241&#xA;0 -37 9 -35 -91 -19 -49 8 -159 -13 -216 -41 -88 -42 -153 -139 -147 -217 7&#xA;-92 80 -144 244 -173 81 -14 149 -16 470 -11 219 2 518 -1 720 -8 464 -17 780&#xA;-14 840 9 51 19 93 56 110 96 12 30 1 91 -23 120 -58 73 -201 96 -342 55 -16&#xA;-5 -23 2 -38 39 -25 62 -84 126 -148 161 -50 28 -62 30 -154 30 -88 0 -107 -4&#xA;-159 -28 -32 -15 -60 -27 -61 -27 -2 0 -11 26 -20 58 -26 88 -63 148 -132 213&#xA;-69 64 -139 104 -218 125 -62 17 -217 17 -271 0z m217 -66 c187 -36 316 -171&#xA;343 -360 15 -109 22 -113 95 -61 77 54 131 72 212 73 54 1 74 -4 112 -27 61&#xA;-35 100 -84 128 -157 12 -33 28 -62 35 -65 7 -3 53 5 101 17 127 31 214 15&#xA;241 -45 15 -33 4 -51 -48 -73 -41 -18 -448 -25 -665 -11 -213 13 -766 18 -970&#xA;9 -438 -20 -619 45 -517 186 62 85 198 123 312 89 30 -10 71 -18 90 -19 32 -1&#xA;35 1 32 24 -15 113 18 202 108 291 116 114 244 157 391 129z"/>
    <path d="M2149 9402 c-92 -31 -157 -72 -223 -143 -71 -75 -114 -156 -123 -230&#xA;-5 -45 -8 -49 -27 -43 -119 39 -305 25 -412 -29 -81 -41 -150 -130 -156 -202&#xA;-3 -29 -8 -31 -110 -40 -101 -8 -192 -39 -222 -76 -57 -68 -18 -146 82 -168&#xA;68 -14 306 -14 492 1 87 7 410 12 805 12 603 1 667 3 745 20 183 40 306 124&#xA;350 241 72 191 -33 376 -247 432 -95 25 -226 3 -313 -52 l-36 -23 -34 67 c-45&#xA;88 -127 169 -214 211 -64 32 -76 34 -185 37 -92 2 -128 -1 -172 -15z m319 -92&#xA;c114 -53 183 -140 211 -263 20 -87 35 -94 87 -37 132 143 400 127 496 -30 80&#xA;-130 25 -281 -127 -350 -141 -64 -271 -74 -865 -66 -284 4 -535 2 -645 -4&#xA;-347 -20 -616 -23 -659 -8 -53 19 -56 35 -9 54 76 32 183 48 241 36 74 -16 82&#xA;-10 82 54 0 103 63 178 179 214 105 33 262 21 353 -26 22 -11 33 -12 49 -3 18&#xA;9 20 17 15 49 -14 88 42 228 120 299 127 118 321 151 472 81z"/>
    <path d="M5716 9084 c-148 -47 -219 -156 -220 -339 -1 -114 10 -155 60 -220&#xA;l34 -45 -78 0 c-42 0 -102 -3 -132 -7 l-55 -6 32 36 c46 52 60 84 73 160 20&#xA;115 -13 212 -97 287 -71 63 -137 90 -219 91 -74 1 -159 -25 -196 -58 -33 -29&#xA;-86 -118 -104 -173 -36 -111 1 -280 75 -340 l36 -30 -85 0 c-47 0 -103 -3&#xA;-125 -7 l-40 -6 34 38 c51 59 72 115 74 199 1 61 -3 82 -27 129 -74 152 -261&#xA;220 -411 148 -104 -49 -160 -130 -175 -248 -10 -73 -1 -122 30 -183 19 -36 81&#xA;-100 115 -118 18 -10 18 -11 -10 -17 -359 -77 -469 -156 -692 -505 -103 -160&#xA;-348 -588 -348 -606 0 -1 -72 -10 -160 -19 -501 -53 -1003 -178 -1283 -319&#xA;-112 -56 -187 -119 -257 -214 -73 -97 -110 -194 -141 -363 -15 -80 -16 -107&#xA;-6 -189 7 -52 12 -118 12 -147 0 -52 0 -53 -52 -87 -67 -43 -103 -78 -125&#xA;-119 -26 -48 -31 -306 -9 -416 39 -193 90 -263 224 -305 46 -14 92 -26 103&#xA;-26 34 0 21 -15 -38 -44 -32 -15 -85 -45 -119 -67 -33 -21 -70 -39 -83 -39&#xA;-36 0 -75 -26 -130 -85 -75 -83 -107 -141 -95 -174 9 -21 4 -42 -26 -116 -36&#xA;-88 -37 -90 -71 -91 -75 -2 -75 -2 -87 -46 -6 -24 -25 -96 -43 -162 l-33 -118&#xA;27 -52 c27 -52 27 -52 16 -152 -11 -91 -14 -101 -43 -127 -26 -23 -31 -37 -37&#xA;-90 -9 -85 -1 -295 13 -321 6 -12 30 -42 52 -67 37 -42 43 -55 60 -146 l18&#xA;-100 -22 -31 -22 -30 22 -69 c55 -167 195 -373 270 -398 27 -9 40 -22 56 -56&#xA;12 -24 31 -53 43 -63 11 -11 21 -22 21 -25 0 -3 -55 -7 -123 -9 -258 -6 -604&#xA;-67 -632 -112 -3 -6 -3 -19 0 -30 8 -24 45 -26 103 -6 98 35 285 58 517 63&#xA;l230 6 53 -27 c161 -82 423 -127 767 -131 224 -4 362 10 520 50 55 15 116 30&#xA;135 34 19 4 44 12 55 18 63 34 471 42 644 13 68 -12 91 -4 91 31 0 13 -14 22&#xA;-50 33 -68 20 -274 39 -388 34 -50 -1 -92 -1 -91 2 0 3 34 31 74 63 135 106&#xA;289 309 394 522 30 60 56 106 57 100 2 -5 14 -65 28 -133 27 -138 45 -172 117&#xA;-227 51 -39 57 -56 64 -192 4 -61 5 -65 78 -156 42 -51 87 -99 101 -107 14 -7&#xA;26 -21 26 -30 0 -18 39 -44 101 -65 25 -9 56 -32 78 -57 75 -88 203 -146 415&#xA;-188 254 -51 386 -63 626 -57 253 7 296 15 491 92 212 83 330 150 313 176 -4&#xA;8 -3 9 5 5 16 -10 100 54 163 125 107 121 176 247 185 335 5 44 9 54 24 54 36&#xA;0 63 63 110 264 38 161 39 207 6 280 l-26 55 40 50 c55 69 71 113 77 213 l5&#xA;86 43 -21 c47 -23 53 -31 28 -41 -15 -6 -16 -20 -10 -119 10 -159 34 -306 57&#xA;-344 11 -18 34 -44 52 -59 33 -28 34 -30 28 -199 -1 -37 67 -142 150 -231 32&#xA;-35 59 -67 59 -72 0 -4 20 -13 45 -20 29 -8 45 -17 45 -27 0 -26 94 -112 156&#xA;-143 133 -66 254 -94 529 -123 336 -34 603 -18 795 49 67 23 196 88 205 102 9&#xA;14 165 12 330 -5 169 -17 216 -27 313 -66 84 -33 95 -35 112 -14 21 25 2 52&#xA;-58 78 -108 48 -237 73 -475 92 l-77 7 50 55 c47 52 120 182 120 215 0 9 12&#xA;18 29 21 26 5 33 16 61 89 62 158 100 282 100 322 0 23 -6 64 -14 92 l-14 52&#xA;38 11 c20 6 44 19 52 28 16 19 36 190 41 352 l2 83 -40 37 -40 36 33 35 c18&#xA;19 35 45 38 57 6 24 -40 291 -58 338 -6 17 -24 46 -39 66 -26 33 -28 42 -26&#xA;120 2 81 1 87 -42 169 -59 116 -118 196 -198 269 -217 199 -468 274 -945 283&#xA;l-168 3 0 36 c0 20 -7 58 -15 85 -8 28 -11 52 -6 57 5 5 90 9 188 9 194 0 179&#xA;3 498 -99 102 -33 236 -37 307 -10 61 24 91 65 128 175 33 98 39 180 18 256&#xA;-10 37 -9 64 7 158 26 163 33 598 11 723 -28 165 -79 278 -144 321 -46 32&#xA;-103 42 -387 69 -493 47 -968 102 -1222 141 -30 4 -32 7 -43 77 -43 262 -147&#xA;712 -196 849 -71 199 -161 285 -359 343 -133 39 -413 92 -555 105 -69 6 -145&#xA;15 -169 18 l-44 7 39 25 c28 18 49 45 74 94 32 62 35 77 35 150 0 69 -5 90&#xA;-29 141 -80 163 -275 258 -430 209z m138 -98 c62 -26 100 -108 99 -213 -2&#xA;-213 -194 -349 -314 -223 -96 101 -91 281 11 383 38 37 54 47 81 47 19 0 41 5&#xA;49 10 20 13 35 12 74 -4z m-727 -47 c69 -26 105 -91 106 -189 1 -83 -24 -155&#xA;-70 -210 -50 -58 -91 -74 -146 -58 -113 34 -165 170 -121 317 31 106 142 174&#xA;231 140z m948 -93 c28 -55 33 -123 13 -187 -19 -64 -100 -147 -158 -163 -21&#xA;-6 -22 -5 -7 4 26 17 64 81 87 149 24 72 26 177 6 246 l-15 47 25 -23 c13 -12&#xA;35 -45 49 -73z m-1587 3 c34 -17 49 -32 64 -66 42 -96 14 -228 -63 -298 -43&#xA;-39 -70 -43 -126 -20 -76 32 -116 97 -115 185 1 91 41 163 110 200 48 25 76&#xA;25 130 -1z m859 -78 c13 -46 14 -65 5 -109 -12 -58 -61 -133 -111 -169 -44&#xA;-33 -47 -28 -8 17 63 74 98 250 67 337 l-10 28 20 -24 c11 -13 28 -49 37 -80z&#xA;m-664 -6 c32 -60 30 -147 -5 -205 -32 -55 -83 -105 -121 -119 -28 -11 -28 -11&#xA;6 21 55 53 80 111 85 204 4 67 1 89 -17 129 -11 26 -21 50 -21 53 0 14 54 -48&#xA;73 -83z m1357 -385 c348 -28 713 -97 835 -157 61 -29 133 -99 163 -159 60&#xA;-119 172 -562 242 -964 13 -69 28 -128 34 -132 17 -12 54 -9 58 3 3 8 56 5&#xA;188 -10 519 -61 632 -74 955 -107 193 -19 374 -42 403 -50 61 -17 92 -56 122&#xA;-151 l18 -58 -47 -17 c-67 -25 -80 -54 -91 -196 -12 -151 -12 -376 0 -427 10&#xA;-46 58 -95 93 -95 47 0 50 -10 30 -104 l-18 -88 -44 6 c-24 3 -79 6 -121 6&#xA;l-77 0 -7 88 c-17 206 -101 404 -231 538 -210 216 -570 203 -791 -28 -96 -100&#xA;-193 -265 -240 -408 l-16 -51 -177 7 c-97 3 -177 6 -177 7 -1 1 5 63 13 137&#xA;10 88 16 233 16 415 1 321 -11 406 -78 557 -31 70 -40 105 -55 228 -46 371&#xA;-110 729 -145 814 -16 38 -66 84 -98 90 -12 3 -72 16 -132 30 -132 31 -293 56&#xA;-356 56 -71 0 -141 -25 -182 -66 -52 -52 -64 -88 -146 -424 -23 -91 -66 -248&#xA;-97 -350 -108 -357 -106 -346 -73 -392 26 -37 35 -74 50 -214 9 -86 28 -644&#xA;23 -644 -1 0 -17 28 -34 63 -46 87 -71 125 -129 194 -179 216 -547 294 -833&#xA;178 -117 -48 -246 -159 -338 -291 -61 -89 -133 -231 -157 -312 l-18 -61 -60&#xA;-5 c-269 -25 -1264 -50 -1720 -43 -442 7 -675 20 -920 51 l-170 22 3 54 c2 30&#xA;5 56 7 59 3 2 39 -2 81 -8 86 -14 176 -8 287 19 65 15 74 15 95 2 20 -13 111&#xA;-14 728 -9 522 4 709 9 720 18 18 15 18 34 -2 53 -14 15 -84 16 -711 10 l-696&#xA;-7 5 56 c3 31 8 60 11 64 8 7 462 20 955 26 350 5 366 7 360 50 -5 33 -47 37&#xA;-283 32 -121 -2 -384 -7 -585 -10 -201 -3 -381 -8 -400 -11 l-35 -5 3 78 c2&#xA;43 5 79 6 79 7 7 647 26 926 27 195 1 361 6 368 10 17 11 15 42 -4 61 -13 14&#xA;-54 16 -297 16 -155 0 -379 -4 -497 -10 -118 -5 -276 -12 -351 -16 l-136 -6&#xA;-6 55 c-7 68 -37 128 -79 160 -44 33 -136 51 -220 43 -38 -3 -68 -4 -68 -2 0&#xA;10 136 90 222 130 105 49 192 78 374 126 356 95 536 126 964 166 210 20 889&#xA;24 1100 6 74 -6 261 -19 415 -28 154 -9 284 -20 288 -24 5 -4 -85 -11 -200&#xA;-14 -447 -14 -768 -72 -994 -180 -67 -32 -114 -78 -105 -101 6 -15 9 -16 29&#xA;-3 48 32 239 98 377 132 177 42 250 53 405 61 66 3 194 13 285 20 91 8 233 19&#xA;315 25 197 13 301 28 351 50 55 23 92 80 137 205 76 211 267 795 267 814 0 11&#xA;-5 31 -11 45 -10 22 -20 25 -78 31 -36 3 -79 8 -96 10 -16 3 -140 10 -275 16&#xA;-523 25 -1061 -18 -1385 -111 -163 -47 -219 -116 -491 -603 -74 -132 -134&#xA;-244 -134 -248 0 -4 -23 -9 -50 -11 -34 -2 -49 1 -46 8 14 38 233 412 310 529&#xA;178 274 243 347 361 406 67 33 356 108 510 133 55 8 190 21 300 27 111 6 266&#xA;15 345 19 177 10 689 4 860 -10z m-400 -231 c96 -6 181 -14 188 -18 9 -5 -25&#xA;-118 -132 -435 -137 -404 -159 -460 -195 -496 -21 -22 -163 -19 -421 7 -506&#xA;52 -852 71 -1277 69 -204 -1 -279 2 -272 10 5 6 76 128 158 272 82 143 167&#xA;287 189 319 62 91 141 158 209 178 152 44 496 92 733 101 85 4 157 8 159 10 8&#xA;7 484 -5 661 -17z m806 -84 c56 -8 148 -26 205 -39 57 -14 114 -28 126 -31 13&#xA;-3 29 -18 37 -33 34 -65 101 -415 141 -732 8 -69 17 -141 20 -160 4 -31 2 -36&#xA;-18 -38 -24 -2 -261 15 -319 24 l-36 5 5 94 c9 155 -19 214 -132 273 -46 24&#xA;-60 27 -165 27 -122 0 -186 -17 -261 -68 -44 -31 -89 -114 -96 -180 -4 -38&#xA;-11 -57 -24 -65 -11 -7 -19 -10 -19 -8 0 2 20 71 44 153 46 153 88 306 151&#xA;548 20 77 43 151 50 165 40 77 105 92 291 65z m-31 -696 c58 -16 112 -74 120&#xA;-130 7 -47 -17 -215 -35 -250 -6 -10 -25 -27 -43 -36 -41 -23 -212 -23 -307 0&#xA;-46 11 -94 14 -160 11 -53 -3 -101 -1 -109 4 -19 13 -6 82 15 82 26 0 93 39&#xA;109 64 9 13 20 48 25 79 16 100 43 131 144 167 59 21 180 26 241 9z m440 -413&#xA;l150 -4 23 -45 c13 -25 33 -89 45 -144 20 -90 22 -122 20 -398 -1 -175 -7&#xA;-348 -15 -415 l-13 -115 -140 0 c-221 1 -833 16 -904 24 l-64 6 0 240 c1 272&#xA;-9 492 -27 649 -11 88 -11 109 0 116 31 19 136 21 215 4 46 -10 124 -18 185&#xA;-18 129 -1 187 21 228 88 l26 42 61 -13 c33 -7 128 -15 210 -17z m-5014 -280&#xA;c68 -8 98 -25 122 -70 19 -36 22 -56 21 -166 -1 -84 -8 -163 -24 -242 l-22&#xA;-117 -76 -18 c-48 -11 -116 -18 -179 -18 -87 0 -105 3 -130 21 -49 37 -54 57&#xA;-50 199 4 112 9 144 36 227 41 127 77 170 156 189 29 6 45 6 146 -5z m7234&#xA;-186 c9 -27 8 -456 0 -513 -7 -45 -7 -45 -36 -35 -16 6 -34 19 -40 30 -15 29&#xA;-7 453 10 493 20 47 55 61 66 25z m-3760 -25 c205 -39 387 -195 489 -419 90&#xA;-197 124 -361 130 -630 3 -98 7 -180 9 -183 15 -14 1488 12 1497 27 4 6 17 72&#xA;29 147 69 422 176 670 358 833 109 97 216 140 344 140 130 0 240 -50 335 -153&#xA;144 -156 204 -336 204 -615 0 -103 -9 -198 -25 -269 -3 -13 -12 -23 -20 -23&#xA;-12 0 -13 21 -9 133 7 172 -11 303 -59 420 -113 277 -348 382 -580 260 -161&#xA;-85 -298 -284 -402 -582 -36 -107 -85 -323 -85 -380 0 -17 -6 -33 -12 -35 -7&#xA;-3 -151 -7 -319 -10 -168 -4 -317 -9 -330 -11 -13 -3 -226 -8 -474 -11 -356&#xA;-4 -460 -3 -500 8 l-50 13 -2 140 c-3 155 -13 232 -49 379 -54 218 -111 337&#xA;-211 446 -51 56 -82 79 -151 112 l-86 43 -130 0 c-120 -1 -137 -3 -195 -28&#xA;-35 -15 -89 -46 -120 -69 -85 -63 -208 -186 -252 -250 l-40 -58 -84 0 -85 0&#xA;26 72 c69 189 202 369 345 464 141 94 318 125 504 89z m-3828 -673 c21 -6 97&#xA;-18 168 -26 72 -9 147 -18 167 -21 129 -18 638 -35 1013 -35 438 1 619 6 1337&#xA;36 224 10 410 15 413 12 3 -3 -16 -48 -44 -99 -27 -52 -68 -148 -91 -214 -65&#xA;-186 -103 -259 -153 -293 -67 -46 -101 -61 -189 -82 -84 -19 -364 -43 -663&#xA;-55 -188 -8 -878 -9 -926 -1 -19 3 -77 8 -129 11 -353 22 -855 101 -950 150&#xA;-43 22 -70 60 -96 134 -43 125 -51 424 -12 479 17 24 56 57 78 64 10 3 19 -4&#xA;27 -22 8 -18 24 -30 50 -38z m4853 -27 c173 -4 333 -8 355 -10 22 -2 109 -4&#xA;194 -4 l153 -1 -6 -47 c-13 -89 -47 -268 -63 -324 l-16 -56 -150 -2 c-83 -1&#xA;-153 -4 -156 -6 -4 -2 -150 -5 -326 -6 l-320 -3 3 80 c3 72 -7 219 -24 348 -7&#xA;48 -6 49 17 43 13 -3 166 -9 339 -12z m1049 -25 l76 0 -40 -205 -40 -204 -173&#xA;-3 c-169 -3 -173 -3 -167 17 3 11 22 101 42 200 19 99 37 186 39 194 4 11 22&#xA;13 96 7 50 -3 125 -6 167 -6z m1639 -150 c41 0 42 -1 42 -32 0 -40 -84 -236&#xA;-108 -254 -26 -20 -78 -26 -149 -18 l-65 7 6 31 c3 17 11 87 17 155 l13 123&#xA;100 -6 c56 -3 120 -6 144 -6z m-1265 -342 c3 -13 9 -48 12 -79 l7 -55 -88 -22&#xA;c-48 -12 -90 -20 -92 -17 -2 2 -1 38 3 80 4 51 11 75 20 75 7 0 32 9 56 20 57&#xA;26 76 25 82 -2z m-2403 -113 c36 -8 136 -29 223 -46 86 -18 155 -34 153 -37&#xA;-3 -2 -42 1 -87 7 -106 14 -425 13 -557 -3 -57 -6 -105 -10 -108 -7 -2 2 -4&#xA;27 -4 55 l0 51 157 -3 c87 -2 187 -10 223 -17z m-620 -79 l0 -73 -37 -6 c-21&#xA;-3 -52 -8 -69 -12 l-31 -7 -10 79 c-6 43 -8 81 -6 86 2 4 38 7 79 7 l74 0 0&#xA;-74z m3582 3 c-13 -5 -69 -18 -125 -30 -111 -22 -226 -67 -350 -137 -43 -24&#xA;-80 -42 -81 -40 -6 8 -35 162 -31 166 11 11 129 34 215 41 138 12 401 12 372&#xA;0z m-6457 -58 c61 -11 141 -22 179 -26 l68 -8 -83 -31 c-46 -18 -120 -51 -164&#xA;-74 -57 -30 -81 -38 -87 -30 -4 7 -14 44 -23 83 -9 38 -19 78 -22 88 -5 21 -4&#xA;21 132 -2z m6750 -22 c72 -35 108 -69 144 -137 20 -37 32 -47 51 -47 19 0 26&#xA;6 28 24 5 35 -25 106 -61 141 l-32 32 38 -16 c20 -9 54 -23 74 -32 53 -23 141&#xA;-80 169 -111 21 -23 24 -35 24 -108 0 -63 4 -86 16 -96 20 -17 30 -2 45 71&#xA;l11 55 38 -44 c45 -52 130 -209 130 -240 0 -11 -9 -55 -21 -96 -11 -41 -19&#xA;-92 -17 -112 3 -33 7 -38 29 -41 22 -3 29 2 37 25 l10 28 21 -48 c19 -44 38&#xA;-126 59 -252 l8 -50 -54 -50 c-51 -47 -54 -52 -47 -84 5 -25 19 -40 57 -64&#xA;l49 -31 -7 -90 c-4 -50 -8 -98 -10 -106 -1 -8 -3 -43 -3 -77 l-1 -63 -60 -30&#xA;c-67 -34 -73 -49 -45 -125 23 -65 17 -121 -28 -258 l-43 -128 -17 35 c-17 37&#xA;-37 45 -55 23 -6 -6 -15 -54 -21 -106 -7 -65 -19 -111 -36 -148 -30 -60 -107&#xA;-149 -154 -176 l-31 -18 0 55 c0 52 -2 56 -23 56 -30 0 -47 -18 -47 -48 0 -14&#xA;-12 -51 -26 -83 -22 -48 -33 -61 -68 -77 -45 -22 -186 -63 -186 -56 0 3 14 25&#xA;30 49 35 52 39 90 10 98 -12 3 -25 0 -30 -6 -45 -54 -100 -133 -100 -143 0&#xA;-19 -86 -36 -210 -42 l-115 -5 70 74 c80 84 115 149 95 174 -22 26 -38 17 -95&#xA;-56 -61 -76 -115 -120 -184 -151 -95 -44 -438 3 -611 83 -77 35 -125 74 -57&#xA;45 59 -24 378 -108 393 -102 7 3 22 26 33 52 20 43 70 106 168 210 21 22 71&#xA;74 111 116 57 61 72 83 72 107 0 20 -7 34 -19 41 -17 8 -37 -8 -149 -123 -134&#xA;-136 -204 -217 -238 -275 -17 -30 -22 -33 -54 -27 -88 17 -256 69 -459 142&#xA;-52 19 -148 105 -189 171 -22 35 -32 65 -37 115 -5 45 -4 67 3 67 6 0 14 -5&#xA;17 -10 17 -27 307 -209 388 -244 70 -30 89 -25 116 32 87 180 283 404 406 463&#xA;77 37 85 44 85 77 0 19 -5 22 -38 22 -90 0 -258 -129 -380 -291 -37 -49 -126&#xA;-196 -135 -222 -1 -4 -23 1 -48 11 -51 22 -266 155 -331 204 -118 91 -191 154&#xA;-198 174 -12 30 -32 213 -28 251 3 31 7 28 206 -169 l203 -200 31 28 c16 16&#xA;41 52 55 79 39 76 95 155 183 257 88 102 267 271 311 294 17 8 57 14 99 14&#xA;l71 0 -3 27 c-7 59 -131 77 -209 31 -57 -34 -231 -193 -311 -283 -49 -56 -157&#xA;-210 -223 -318 -8 -14 -40 13 -198 170 -153 151 -187 190 -183 207 3 12 6 68&#xA;6 126 l1 105 56 -60 c30 -33 91 -105 136 -160 44 -55 85 -103 91 -106 18 -11&#xA;56 9 56 29 0 26 -63 105 -281 354 l-77 87 18 83 c22 107 61 238 71 238 8 0 85&#xA;-107 232 -320 73 -106 98 -136 117 -138 21 -2 42 15 119 98 150 162 292 265&#xA;453 329 l78 31 44 -25 c52 -29 78 -31 96 -10 21 25 -1 57 -60 88 -45 24 -60&#xA;28 -100 22 -144 -20 -356 -150 -515 -317 -56 -60 -105 -108 -107 -108 -3 0&#xA;-47 61 -99 136 -52 75 -125 176 -163 226 -58 77 -67 94 -62 119 6 34 74 184&#xA;80 178 3 -3 89 -130 174 -256 30 -44 66 -43 69 2 2 24 -19 63 -101 185 -75&#xA;111 -102 159 -96 170 22 41 102 141 125 156 20 13 28 14 39 4 23 -18 72 -145&#xA;106 -275 18 -66 41 -134 51 -152 23 -36 22 -37 128 36 174 119 366 200 536&#xA;227 32 4 51 0 93 -21 90 -45 126 -18 64 48 -47 50 -78 60 -162 54 -132 -9&#xA;-341 -90 -514 -200 -50 -31 -93 -54 -97 -50 -3 5 -16 48 -28 97 -28 113 -74&#xA;232 -106 276 l-25 34 68 39 c70 41 232 117 250 117 6 0 16 -26 22 -57 6 -32&#xA;15 -71 20 -87 6 -15 7 -32 4 -38 -10 -15 25 -58 48 -58 12 0 83 33 158 74 188&#xA;101 285 134 480 166 41 6 82 13 90 15 48 9 89 2 145 -26z m-3080 15 c-141 -17&#xA;-464 -114 -598 -180 -49 -24 -91 -44 -93 -44 -2 0 -4 38 -4 84 l0 84 48 10&#xA;c105 22 193 33 317 41 127 8 390 11 330 5z m-3839 -171 c24 -94 29 -103 50&#xA;-103 13 0 79 29 146 64 68 36 163 77 211 92 77 23 100 26 186 22 54 -3 103 -8&#xA;110 -13 9 -5 -5 -26 -49 -70 -55 -55 -68 -63 -111 -69 -75 -10 -268 -79 -378&#xA;-134 -97 -50 -220 -130 -272 -179 l-26 -24 -7 50 c-15 112 -105 367 -136 386&#xA;-17 10 44 52 145 100 l90 43 8 -32 c4 -17 19 -77 33 -133z m4170 91 c50 -13&#xA;112 -33 138 -44 51 -23 54 -32 37 -133 -6 -36 -5 -50 5 -54 25 -9 53 17 69 66&#xA;16 49 17 50 38 33 57 -44 177 -172 196 -210 21 -41 21 -47 10 -148 -9 -77 -10&#xA;-107 -1 -116 18 -18 42 -1 61 44 l18 43 33 -85 c18 -47 45 -134 60 -195 l28&#xA;-110 -33 -35 c-48 -51 -71 -105 -57 -136 17 -36 47 -30 69 13 11 20 24 38 30&#xA;40 15 5 45 -237 45 -367 -1 -121 -8 -142 -81 -234 -37 -47 -38 -56 -6 -134 15&#xA;-36 25 -81 25 -109 0 -45 -60 -296 -74 -310 -3 -4 -16 3 -29 15 -28 26 -65 20&#xA;-73 -13 -3 -12 -1 -56 5 -97 11 -80 7 -108 -28 -175 -46 -91 -179 -258 -157&#xA;-198 24 64 18 125 -12 125 -27 0 -40 -13 -45 -45 -5 -30 -60 -179 -75 -202 -7&#xA;-11 -141 -93 -152 -93 -3 0 -4 17 -2 38 4 41 -14 67 -39 57 -8 -4 -30 -34 -50&#xA;-68 -31 -55 -43 -66 -100 -94 -36 -18 -99 -38 -146 -46 l-83 -14 55 59 c83 90&#xA;137 208 111 244 -22 29 -51 8 -87 -61 -68 -133 -148 -209 -252 -240 -52 -15&#xA;-159 -18 -256 -7 l-55 7 55 51 c29 29 99 93 154 143 144 133 200 224 165 266&#xA;-24 29 -47 17 -80 -42 -20 -36 -69 -93 -128 -148 -174 -164 -229 -220 -239&#xA;-239 -10 -19 -14 -19 -137 -2 -141 19 -272 53 -348 92 -27 14 -48 27 -46 29 2&#xA;2 53 -11 113 -30 61 -18 129 -36 152 -40 l42 -7 11 44 c24 93 54 167 102 253&#xA;66 117 126 195 213 275 120 112 134 126 140 153 9 33 0 57 -19 57 -18 0 -162&#xA;-123 -234 -199 -96 -103 -196 -268 -243 -403 -15 -44 -29 -81 -31 -84 -7 -6&#xA;-227 54 -318 88 -97 35 -210 104 -258 157 -46 51 -98 140 -106 185 -4 20 -10&#xA;45 -13 54 -4 10 13 1 38 -21 135 -114 382 -251 442 -245 29 3 32 8 62 100 84&#xA;252 213 476 364 627 75 74 117 98 193 110 70 12 87 42 37 69 -34 18 -99 9&#xA;-162 -22 -167 -81 -409 -426 -492 -701 -15 -49 -29 -92 -31 -94 -2 -2 -40 15&#xA;-86 38 -83 42 -268 168 -369 252 -30 25 -71 58 -93 73 -49 37 -62 70 -92 233&#xA;-13 74 -26 138 -29 144 -4 5 0 9 7 9 13 0 289 -276 458 -458 118 -127 164&#xA;-138 106 -24 -32 61 -96 133 -331 374 l-193 198 9 74 c4 42 11 91 15 111 6 35&#xA;7 36 26 18 11 -10 76 -81 143 -158 193 -220 303 -320 335 -300 4 3 24 39 43&#xA;80 87 183 264 383 463 523 113 79 129 85 229 86 64 1 70 3 73 23 7 49 -108 79&#xA;-192 50 -87 -30 -245 -145 -372 -272 -117 -115 -194 -216 -254 -330 l-28 -53&#xA;-100 102 c-55 55 -131 137 -169 181 -37 44 -105 118 -150 166 -67 69 -83 91&#xA;-83 116 0 39 24 166 56 306 l26 107 25 -37 c48 -70 138 -217 213 -345 52 -90&#xA;80 -128 92 -128 10 0 21 7 24 15 16 41 -23 121 -200 405 l-71 115 39 108 39&#xA;108 34 -58 c51 -83 131 -247 203 -413 35 -80 69 -151 76 -159 22 -24 61 -4&#xA;108 58 127 165 408 361 598 416 57 16 57 16 112 -10 61 -29 89 -29 94 -2 8 40&#xA;-82 107 -143 107 -66 0 -190 -45 -295 -107 -188 -111 -294 -195 -397 -315&#xA;l-40 -48 -16 38 c-133 312 -150 348 -254 520 l-74 123 21 29 c31 43 162 160&#xA;180 160 36 0 91 -22 118 -48 37 -34 47 -68 73 -247 11 -77 21 -140 22 -141 1&#xA;-1 12 -5 24 -8 16 -5 31 1 60 27 152 135 555 322 742 344 53 6 81 -5 145 -56&#xA;l39 -31 24 22 c12 12 23 26 23 31 0 16 -73 78 -122 103 -43 22 -52 23 -120 14&#xA;-165 -22 -468 -148 -665 -279 l-93 -61 0 38 c0 54 -35 213 -55 252 -21 40 -58&#xA;76 -102 97 l-34 16 58 35 c99 60 214 109 308 131 49 11 90 19 92 17 2 -1 6&#xA;-49 9 -106 3 -58 8 -108 10 -112 13 -20 79 -5 161 36 188 94 427 143 571 117&#xA;115 -21 142 -33 200 -87 45 -43 59 -51 74 -43 29 16 22 55 -19 101 -47 51 -98&#xA;74 -199 90 l-79 12 80 18 c97 20 176 16 301 -18z m1282 -75 l24 -41 -26 -27&#xA;c-27 -28 -119 -183 -131 -221 l-8 -24 -14 27 c-7 15 -18 27 -24 27 -11 0 -45&#xA;37 -110 120 -23 30 -62 77 -86 104 -24 27 -41 51 -38 55 6 5 179 16 320 19&#xA;l70 2 23 -41z m-702 -16 c15 -21 69 -85 119 -142 49 -57 113 -132 141 -165 28&#xA;-34 85 -95 126 -136 l75 -75 -21 -86 -22 -85 -49 29 c-86 50 -273 187 -287&#xA;210 -8 12 -20 38 -28 57 -7 19 -22 47 -32 62 -10 14 -18 37 -18 50 0 37 -65&#xA;125 -164 223 l-91 90 111 3 111 3 29 -38z m-5086 -25 c46 -75 107 -277 131&#xA;-431 7 -48 17 -81 26 -84 24 -9 58 6 78 36 41 59 199 174 319 232 77 38 303&#xA;115 311 107 2 -2 -14 -38 -35 -80 -22 -42 -51 -106 -66 -143 -15 -37 -34 -69&#xA;-43 -72 -104 -33 -272 -121 -361 -189 -57 -43 -150 -137 -260 -262 l-64 -73&#xA;-70 138 c-68 131 -209 368 -227 378 -7 5 59 176 73 191 3 3 31 -37 62 -89 54&#xA;-92 69 -107 106 -107 35 0 32 31 -9 84 -21 28 -53 80 -71 116 -17 36 -41 80&#xA;-52 98 -18 29 -19 37 -7 58 15 30 114 124 129 124 5 0 19 -15 30 -32z m2470&#xA;-68 l115 0 -118 -118 c-65 -65 -131 -126 -146 -135 l-28 -16 -26 67 c-15 37&#xA;-52 100 -83 141 l-57 74 114 -6 c63 -4 166 -7 229 -7z m-716 -28 c2 -4 0 -43&#xA;-5 -87 -22 -190 -69 -663 -69 -699 l0 -38 -72 7 c-107 10 -111 11 -104 48 3&#xA;18 10 84 15 147 15 174 50 539 57 588 l6 42 84 0 c45 0 85 -3 88 -8z m803&#xA;-422 c-22 -60 -44 -107 -49 -104 -5 3 -20 3 -33 0 -19 -5 -28 -18 -41 -63 -19&#xA;-66 -29 -58 -38 32 l-7 60 103 93 c57 50 103 92 104 92 1 0 -17 -49 -39 -110z&#xA;m-2859 0 c109 -170 172 -284 245 -441 30 -64 62 -119 71 -122 19 -8 32 4 131&#xA;118 114 131 174 195 217 232 61 51 190 134 276 177 60 30 73 34 68 19 -10 -34&#xA;-54 -218 -66 -281 -13 -63 -13 -63 -99 -130 -215 -167 -366 -343 -467 -543&#xA;l-36 -72 -125 124 c-69 68 -157 162 -195 209 -39 47 -88 103 -109 125 l-37 40&#xA;15 88 c9 48 19 87 22 87 3 0 26 -31 51 -67 55 -81 77 -103 106 -103 39 0 40&#xA;35 1 82 -19 24 -63 88 -98 143 -34 55 -72 114 -85 130 l-22 30 36 117 c40 133&#xA;39 133 100 38z m1758 -29 c-11 -77 -12 -79 -56 -113 -126 -95 -210 -334 -197&#xA;-560 15 -259 158 -455 315 -432 67 9 91 24 159 98 47 50 68 82 91 143 33 85&#xA;26 80 115 72 37 -4 38 -5 33 -34 -9 -44 -78 -185 -124 -252 -50 -73 -104 -125&#xA;-162 -155 -68 -35 -185 -33 -262 5 -67 33 -129 94 -181 179 -69 114 -113 319&#xA;-103 476 9 128 31 238 61 307 7 17 18 45 25 63 19 48 81 141 125 185 46 47&#xA;123 97 151 97 20 0 20 -2 10 -79z m388 -80 c26 -34 43 -61 37 -61 -5 0 -35&#xA;-24 -67 -52 -38 -35 -55 -46 -51 -33 3 11 8 64 12 118 4 53 10 95 14 93 4 -3&#xA;29 -32 55 -65z m-1233 -564 l2 -197 -59 -63 c-184 -196 -309 -395 -365 -579&#xA;-17 -56 -23 -66 -37 -58 -10 4 -46 20 -81 35 -131 53 -409 233 -390 252 9 9&#xA;-4 89 -28 168 -5 19 12 4 209 -182 43 -40 81 -73 86 -73 4 0 16 6 27 13 33 25&#xA;11 59 -102 158 -148 129 -300 276 -323 314 -15 24 -21 56 -24 131 -3 55 -1&#xA;105 3 113 6 9 28 -10 77 -65 133 -150 188 -210 292 -316 58 -59 108 -112 112&#xA;-118 4 -6 22 -10 41 -8 36 3 35 2 88 118 68 148 217 336 391 492 41 37 75 66&#xA;76 65 2 -1 4 -91 5 -200z m1054 157 c77 -8 228 -17 335 -20 107 -3 227 -8 267&#xA;-11 l72 -6 -5 -56 c-5 -58 -4 -62 53 -140 l17 -24 -54 7 c-30 3 -174 15 -320&#xA;26 -146 11 -341 27 -434 36 -200 20 -211 26 -204 105 3 26 12 59 22 73 20 32&#xA;49 33 251 10z m-1011 -569 c10 -49 28 -125 41 -168 l22 -77 -37 -43 c-112&#xA;-128 -220 -358 -220 -469 0 -25 -4 -28 -31 -28 -50 0 -139 27 -281 84 -178 72&#xA;-318 143 -341 173 -52 65 -127 188 -127 207 0 3 33 -17 73 -43 169 -112 369&#xA;-211 426 -211 41 0 56 18 76 90 25 93 97 239 176 357 73 109 188 239 199 226&#xA;3 -4 14 -48 24 -98z m116 -372 c11 -26 44 -85 72 -132 l51 -85 -15 -41 c-9&#xA;-22 -32 -76 -52 -121 -20 -44 -43 -111 -52 -147 -20 -78 -7 -75 -189 -52 -206&#xA;25 -307 45 -382 76 -68 29 -149 83 -181 122 -14 16 26 3 173 -55 97 -39 221&#xA;-69 273 -66 46 3 47 4 56 43 29 132 60 233 90 294 35 71 122 211 130 211 3 0&#xA;14 -21 26 -47z m385 -480 l40 -27 -90 -28 c-74 -23 -252 -52 -263 -43 -11 9&#xA;62 208 96 263 15 23 15 23 96 -57 45 -45 99 -93 121 -108z"/>
    <path d="M2495 6774 c-388 -25 -437 -34 -449 -77 -10 -41 3 -50 63 -43 303 35&#xA;402 39 881 41 273 1 501 5 508 9 20 12 14 46 -10 56 -69 28 -651 37 -993 14z"/>
    <path d="M3723 6769 c-164 -32 -266 -149 -300 -348 -33 -187 -1 -344 81 -400&#xA;88 -60 120 -66 361 -66 l220 0 67 33 c79 39 131 93 169 177 42 94 61 180 63&#xA;285 1 84 -2 102 -26 152 -20 44 -38 65 -74 87 -56 36 -145 67 -234 81 -76 12&#xA;-266 11 -327 -1z m358 -85 c123 -23 192 -66 218 -137 39 -102 -24 -349 -110&#xA;-436 -64 -64 -103 -75 -295 -79 -246 -6 -337 20 -381 108 -40 77 -27 279 23&#xA;390 42 93 107 144 203 160 81 14 255 11 342 -6z"/>
    <path d="M3792 6579 c-88 -44 -136 -139 -137 -271 0 -69 3 -81 30 -120 35 -50&#xA;102 -88 155 -88 83 1 166 66 201 159 44 119 14 274 -63 321 -45 27 -129 27&#xA;-186 -1z"/>
    <path d="M4775 7939 c-38 -28 -133 -90 -210 -138 -206 -130 -548 -355 -568&#xA;-375 -23 -23 -22 -43 3 -56 21 -11 32 -5 415 245 77 50 178 115 225 145 238&#xA;148 264 170 246 215 -9 25 -38 16 -111 -36z"/>
    <path d="M4991 7797 c-6 -8 -57 -41 -113 -74 -102 -60 -303 -200 -425 -296&#xA;-46 -36 -63 -55 -63 -73 0 -48 47 -31 170 62 104 78 318 223 442 300 58 35 66&#xA;53 38 76 -27 21 -34 22 -49 5z"/>
    <path d="M6766 6707 c-73 -22 -105 -112 -58 -159 19 -19 35 -23 122 -26 118&#xA;-5 159 1 188 29 30 27 30 89 0 124 -37 43 -163 58 -252 32z m192 -89 c3 -16&#xA;-6 -18 -92 -18 -73 0 -96 3 -96 13 0 25 13 28 99 25 72 -3 86 -6 89 -20z"/>
    <path d="M1760 6562 c-95 -47 -142 -281 -81 -400 22 -44 36 -52 86 -52 46 0&#xA;96 45 131 116 49 101 41 270 -16 332 -25 27 -71 29 -120 4z"/>
    <path d="M3177 5614 c-27 -15 -28 -16 -12 -34 9 -10 31 -22 47 -26 29 -6 26&#xA;-8 -58 -46 -314 -142 -572 -173 -869 -104 -72 17 -215 71 -297 112 -45 23 -47&#xA;26 -36 49 8 19 8 28 -2 40 -19 23 -46 18 -85 -16 -77 -68 -90 -164 -16 -117&#xA;16 10 32 6 98 -25 244 -113 422 -156 650 -157 185 0 422 62 625 164 l86 44 42&#xA;-25 c79 -47 95 2 28 87 -22 28 -52 56 -65 61 -36 14 -104 10 -136 -7z"/>
    <path d="M8285 4903 c-72 -8 -95 -15 -106 -35 -18 -33 2 -41 100 -39 l90 2 37&#xA;-55 c20 -31 45 -58 56 -62 20 -6 48 11 48 30 0 14 -79 125 -101 142 -16 13&#xA;-79 21 -124 17z"/>
    <path d="M8643 4363 c-204 -85 -336 -345 -378 -743 -8 -79 11 -296 36 -403 82&#xA;-356 350 -497 556 -292 165 166 253 427 253 755 0 254 -66 472 -178 592 -86&#xA;92 -200 127 -289 91z m161 -87 c109 -45 196 -214 226 -433 25 -183 -5 -468&#xA;-65 -616 -53 -131 -155 -261 -229 -292 -84 -36 -195 -8 -257 63 -34 38 -105&#xA;179 -96 188 3 3 11 -5 18 -18 33 -62 130 -118 205 -118 67 1 121 28 173 86&#xA;141 159 204 510 136 755 -66 237 -182 322 -338 246 -30 -15 -71 -45 -91 -67&#xA;-20 -22 -38 -40 -42 -40 -3 0 9 27 27 60 38 71 124 164 170 185 44 18 120 19&#xA;163 1z m-55 -231 c134 -121 160 -474 55 -737 -30 -75 -77 -133 -126 -156 -55&#xA;-27 -98 -28 -147 -3 -38 20 -79 57 -50 46 20 -8 85 49 115 101 54 92 76 179&#xA;81 319 7 183 -21 283 -105 373 -33 35 -31 39 34 72 60 30 98 26 143 -15z&#xA;m-257 -339 c38 -79 27 -187 -25 -243 -27 -30 -44 -29 -60 5 -36 70 -31 194 10&#xA;243 33 38 56 37 75 -5z"/>
    <path d="M5789 4255 c-170 -54 -329 -282 -388 -555 -5 -25 -13 -58 -16 -75&#xA;-14 -65 -17 -303 -6 -387 24 -177 69 -314 138 -420 100 -153 248 -224 378&#xA;-183 105 32 203 134 283 290 78 153 111 296 119 515 9 244 -19 395 -106 574&#xA;-94 194 -253 289 -402 241z m177 -95 c216 -105 325 -608 219 -1008 -53 -201&#xA;-159 -363 -276 -422 -51 -27 -132 -24 -194 5 -59 28 -136 112 -179 196 l-38&#xA;74 47 -53 c56 -63 128 -102 201 -109 200 -21 374 282 374 650 0 216 -56 394&#xA;-156 493 -111 111 -229 109 -354 -6 -24 -22 -45 -40 -47 -40 -2 0 15 28 39 61&#xA;50 73 118 135 173 160 54 25 137 25 191 -1z m-84 -206 c176 -122 220 -571 83&#xA;-850 -36 -74 -102 -149 -143 -165 -45 -17 -98 -10 -160 22 -34 18 -59 35 -57&#xA;40 3 4 18 10 35 14 81 18 156 118 196 266 28 99 25 309 -4 412 -34 120 -76&#xA;193 -130 229 l-26 17 44 20 c63 29 115 27 162 -5z m-235 -336 c26 -38 28 -49&#xA;28 -137 0 -99 -18 -156 -60 -191 -43 -36 -103 48 -112 159 -5 55 -2 76 17 121&#xA;44 104 81 118 127 48z"/>
    <path d="M3460 1834 c-8 -1 -36 -5 -62 -9 -48 -6 -60 -19 -51 -54 5 -21 8 -22&#xA;142 -15 114 5 156 3 261 -16 68 -11 135 -18 148 -15 32 8 26 46 -10 63 -58 28&#xA;-362 61 -428 46z"/>
    <path d="M8775 1824 c-217 -40 -371 -115 -339 -165 9 -15 58 -6 129 24 131 56&#xA;217 72 390 72 152 0 164 -1 243 -29 91 -33 117 -29 117 15 0 73 -326 123 -540&#xA;83z"/>
    <path d="M6895 1810 c-166 -18 -223 -38 -209 -75 9 -24 33 -25 141 -10 194 27&#xA;361 15 509 -37 67 -23 94 -20 94 11 0 31 -24 47 -107 75 -131 43 -259 54 -428&#xA;36z"/>
    <path d="M1190 1785 c-81 -17 -221 -70 -232 -87 -11 -18 -6 -39 13 -51 12 -7&#xA;31 -4 70 10 132 51 288 79 374 68 28 -3 98 -20 157 -36 129 -37 203 -36 347 5&#xA;170 48 332 32 599 -60 122 -41 147 -42 147 0 0 26 -5 30 -80 58 -194 72 -361&#xA;108 -497 108 -70 0 -166 -19 -243 -46 -71 -25 -162 -22 -260 11 -99 33 -289&#xA;43 -395 20z"/>
    <path d="M5655 1501 c-117 -21 -270 -60 -373 -95 -91 -31 -242 -64 -347 -76&#xA;-102 -12 -215 0 -399 44 -191 46 -286 58 -452 58 -209 0 -300 -17 -666 -125&#xA;-199 -59 -320 -83 -483 -96 -71 -6 -133 -15 -138 -20 -5 -5 -7 -19 -5 -32 3&#xA;-24 3 -24 133 -22 160 2 311 31 551 104 448 138 662 148 1052 52 141 -35 154&#xA;-36 327 -37 201 0 258 9 481 83 366 120 609 131 939 41 389 -106 509 -126 721&#xA;-118 122 4 158 23 118 62 -12 13 -41 16 -152 16 -167 0 -311 19 -457 60 -235&#xA;65 -373 99 -448 109 -113 16 -287 12 -402 -8z"/>
  </g>
  <title>Monster truck z wielkimi kołami</title>
  <desc>Potężny monster truck na gigantycznych kołach jest gotowy do zmiażdżenia mniejszych aut. To pojazd dla fanów ekstremalnej motoryzacji. Ozdób go płomieniami lub innymi wzorami.</desc>
</svg>