<?xml version="1.0" encoding="UTF-8" standalone="yes"?>
<svg version="1.0" xmlns="http://www.w3.org/2000/svg" width="1024.000000pt" height="1024.000000pt" viewBox="0 0 1024.000000 1024.000000" preserveAspectRatio="xMidYMid meet">
  <metadata>
Created by potrace 1.16, written by Peter Selinger 2001-2019
</metadata>
  <g transform="translate(0.000000,1024.000000) scale(0.100000,-0.100000)" fill="#000000" stroke="none">
    <path d="M5860 8774 c-93 -25 -142 -54 -221 -133 -63 -63 -85 -94 -131 -186&#xA;-30 -60 -74 -172 -99 -247 l-44 -137 -55 7 c-30 4 -230 7 -445 7 -352 -1 -404&#xA;-3 -530 -23 -368 -58 -573 -136 -720 -273 -77 -72 -119 -137 -218 -335 -87&#xA;-175 -475 -985 -523 -1094 -19 -41 -37 -74 -41 -73 -66 13 -319 24 -443 19&#xA;-355 -15 -598 -72 -865 -201 -190 -92 -300 -170 -441 -310 -274 -274 -454&#xA;-651 -520 -1095 -26 -172 -24 -481 5 -667 12 -79 26 -155 32 -170 7 -19 6 -68&#xA;-2 -163 -34 -392 59 -850 234 -1145 61 -104 175 -224 260 -274 112 -66 284&#xA;-114 587 -165 375 -64 610 -56 821 25 139 54 282 166 379 298 l45 62 45 -5&#xA;c448 -51 745 -69 1140 -70 195 -1 388 1 429 3 l75 4 17 -89 c23 -121 61 -228&#xA;125 -354 144 -283 324 -401 706 -464 430 -71 735 -75 950 -11 275 81 492 329&#xA;614 703 64 195 112 433 138 678 14 136 18 154 40 154 7 0 81 22 165 49 134 43&#xA;153 47 158 32 28 -82 62 -137 112 -184 99 -91 208 -131 441 -161 409 -52 734&#xA;-40 877 32 215 110 368 489 440 1087 14 122 18 224 17 545 0 217 -5 422 -10&#xA;455 -10 57 -9 63 24 129 94 191 149 437 159 706 18 507 -101 890 -335 1075&#xA;-70 56 -196 119 -277 140 -72 18 -208 35 -287 35 -67 0 -64 -7 -46 115 12 85&#xA;22 109 32 77 10 -30 63 -47 146 -46 87 0 205 36 465 141 196 79 248 107 281&#xA;150 71 93 120 274 149 546 47 456 -25 613 -280 609 -163 -3 -336 -110 -451&#xA;-280 l-35 -52 -62 0 c-80 0 -646 35 -897 55 -440 35 -942 86 -1330 136 -313&#xA;40 -310 39 -310 56 0 27 -52 116 -96 163 -52 55 -118 94 -199 115 -72 18 -123&#xA;18 -195 -1z m216 -130 c27 -14 58 -33 68 -42 23 -20 76 -92 76 -103 0 -4 -35&#xA;-5 -77 -3 -53 4 -86 1 -103 -8 -30 -16 -69 -88 -166 -303 -40 -88 -76 -159&#xA;-81 -158 -4 0 -76 9 -160 18 l-151 18 34 96 c50 137 114 266 172 341 115 151&#xA;268 208 388 144z m3462 -191 c45 -34 61 -66 72 -143 17 -114 -5 -366 -51 -589&#xA;-37 -181 -64 -233 -142 -272 -56 -29 -398 -162 -481 -188 -81 -25 -139 -27&#xA;-160 -5 -12 11 -16 35 -16 84 0 116 138 544 251 778 53 110 69 133 142 207&#xA;112 113 204 158 310 151 28 -2 59 -11 75 -23z m-3051 -98 c676 -83 1551 -165&#xA;2138 -200 142 -9 260 -17 262 -19 1 -1 -13 -39 -32 -84 -56 -134 -142 -397&#xA;-184 -562 l-39 -155 -58 3 c-99 5 -391 31 -762 68 l-354 35 -201 121 c-110 67&#xA;-246 143 -302 169 -221 104 -471 174 -884 249 -90 16 -165 31 -167 33 -2 2 33&#xA;82 77 178 44 96 83 180 86 188 8 18 145 10 420 -24z m-1127 -399 c392 -39 783&#xA;-97 1045 -157 445 -102 713 -239 1315 -670 302 -216 427 -287 538 -303 40 -6&#xA;43 -5 37 14 -4 13 -2 20 7 20 7 0 92 7 188 16 260 22 447 3 561 -58 200 -106&#xA;333 -311 388 -599 33 -177 46 -401 31 -578 -13 -160 -40 -305 -77 -415 l-26&#xA;-81 -22 75 c-17 55 -26 125 -34 262 -18 293 -65 527 -128 636 -57 100 -148&#xA;172 -216 172 -54 0 -98 -23 -151 -80 -55 -59 -94 -135 -136 -265 -61 -193 -87&#xA;-323 -155 -795 -105 -727 -123 -794 -269 -976 -35 -44 -93 -105 -129 -137 -84&#xA;-73 -248 -197 -263 -197 -20 0 -41 -34 -63 -101 -62 -188 -212 -339 -452 -453&#xA;-175 -83 -159 -88 -159 51 -1 65 -5 179 -11 253 -5 74 -14 250 -18 390 -10&#xA;278 -31 454 -83 680 -86 379 -222 607 -414 697 -50 24 -72 28 -144 28 -73 0&#xA;-93 -4 -143 -29 -190 -93 -344 -349 -482 -801 -50 -166 -96 -370 -155 -689&#xA;-77 -418 -125 -594 -211 -771 -57 -120 -114 -201 -203 -291 -68 -68 -97 -89&#xA;-176 -127 -99 -48 -235 -85 -407 -113 -133 -22 -730 -30 -1016 -15 -816 45&#xA;-1571 162 -2052 318 -551 179 -829 463 -959 978 -156 624 -24 1302 345 1765&#xA;237 298 638 505 1094 565 151 20 406 28 525 18 l95 -8 -75 -24 c-294 -90 -664&#xA;-294 -880 -483 -106 -93 -141 -143 -148 -208 -6 -67 25 -127 109 -212 114&#xA;-114 253 -166 666 -247 595 -118 1581 -188 1800 -127 84 23 182 83 339 206&#xA;388 306 730 511 1082 649 246 96 371 124 627 145 144 12 180 18 197 33 20 18&#xA;21 24 14 293 -10 425 -48 912 -82 1060 -27 118 -97 201 -218 260 -109 53 -583&#xA;161 -855 194 -422 53 -1044 44 -1316 -18 -158 -37 -316 -100 -426 -171 -38&#xA;-25 -69 -42 -69 -39 0 3 25 48 57 100 35 59 76 112 107 140 131 114 401 201&#xA;731 234 138 13 734 4 925 -14z m-285 -316 c302 -22 486 -50 770 -120 249 -60&#xA;331 -90 390 -142 83 -73 109 -148 131 -368 l7 -74 -64 51 c-293 232 -623 364&#xA;-949 379 -205 10 -347 -24 -482 -116 l-72 -49 -35 16 c-251 111 -625 121 -956&#xA;26 -150 -43 -378 -148 -487 -225 -16 -11 -28 -17 -28 -14 0 3 38 83 83 178&#xA;l84 174 94 56 c131 78 180 101 295 141 114 40 277 73 414 86 135 12 639 13&#xA;805 1z m2880 -361 c126 -11 231 -21 231 -22 3 -3 -54 -278 -58 -283 -5 -5&#xA;-110 67 -323 219 -173 124 -169 120 -120 113 22 -3 143 -15 270 -27z m-2550&#xA;-19 c271 -26 511 -115 759 -280 59 -40 132 -95 163 -124 l55 -51 9 -115 c4&#xA;-63 11 -241 15 -396 l7 -281 -99 -7 c-528 -36 -1232 -34 -1724 4 -447 35 -980&#xA;109 -1363 191 -135 28 -269 60 -275 64 -3 3 106 237 210 453 l74 153 100 61&#xA;c295 182 561 265 884 275 241 8 384 -16 577 -97 30 -13 34 -12 85 27 100 77&#xA;185 110 318 123 41 4 80 8 85 9 6 0 60 -4 120 -9z m3088 -26 c74 -6 78 -8 73&#xA;-28 -2 -11 -13 -64 -22 -116 -10 -52 -20 -98 -23 -102 -7 -8 -280 -32 -287&#xA;-25 -6 6 31 201 48 256 l10 33 62 -6 c33 -3 96 -8 139 -12z m516 -1069 c41&#xA;-20 87 -96 116 -187 26 -83 65 -281 65 -332 0 -30 0 -30 -28 15 -74 115 -225&#xA;207 -350 211 -60 3 -59 -4 -10 115 67 163 131 218 207 178z m-5980 -30 c358&#xA;-90 841 -163 1417 -214 355 -32 616 -44 1001 -45 200 0 363 -2 363 -3 0 -1&#xA;-44 -16 -97 -34 -349 -115 -798 -373 -1198 -687 -249 -195 -255 -197 -625&#xA;-196 -694 3 -1652 136 -1919 267 -79 39 -159 111 -189 169 -40 82 -28 113 87&#xA;220 201 186 510 369 819 484 78 29 150 58 160 63 25 15 30 14 181 -24z m5880&#xA;-412 l43 -19 -36 -24 c-77 -51 -188 -235 -251 -413 -15 -43 -30 -76 -32 -74&#xA;-2 2 1 26 6 53 6 27 19 110 31 184 19 125 44 259 57 304 5 17 12 18 72 13 36&#xA;-3 86 -14 110 -24z m164 -135 c91 -96 178 -363 224 -688 25 -176 25 -739 0&#xA;-955 -42 -362 -112 -640 -205 -819 -46 -87 -129 -179 -183 -200 -38 -15 -43&#xA;-15 -83 3 -100 44 -200 279 -255 601 -73 426 -43 1006 74 1471 89 351 250 629&#xA;364 629 15 0 39 -15 64 -42z m-2420 -361 c125 -73 228 -263 301 -553 30 -120&#xA;69 -324 63 -330 -2 -2 -16 27 -31 66 -34 86 -119 223 -188 303 -135 155 -346&#xA;260 -542 269 -36 2 -66 5 -66 8 0 3 17 30 37 60 50 74 134 153 196 185 45 23&#xA;61 26 119 22 48 -3 79 -11 111 -30z m-274 -392 l74 -17 -72 -34 c-164 -76&#xA;-322 -294 -442 -608 -37 -97 -50 -114 -29 -37 5 20 30 117 54 216 43 174 120&#xA;415 152 478 l16 30 86 -6 c48 -3 120 -13 161 -22z m207 -120 c163 -49 312&#xA;-303 414 -705 80 -314 99 -690 55 -1101 -49 -465 -158 -814 -325 -1038 -165&#xA;-222 -391 -317 -543 -228 -177 104 -318 406 -382 817 -22 142 -31 537 -16 711&#xA;26 302 81 578 166 835 128 390 300 644 478 705 64 22 90 23 153 4z m1886 -641&#xA;c-8 -511 100 -1004 255 -1165 l35 -36 -86 -8 c-47 -4 -140 -4 -206 0 l-120 8&#xA;-50 54 c-88 96 -161 272 -195 468 -14 84 -14 91 2 111 151 185 227 338 329&#xA;657 20 64 37 117 38 117 1 0 0 -93 -2 -206z m-202 -82 c-88 -228 -161 -343&#xA;-293 -468 -80 -76 -159 -130 -272 -186 -53 -27 -230 -98 -242 -98 -5 0 28 23&#xA;71 51 154 98 268 232 330 387 30 74 38 85 87 118 99 68 213 161 283 233 39 39&#xA;71 69 73 68 1 -2 -15 -49 -37 -105z m-7533 -530 c102 -213 267 -389 486 -517&#xA;37 -22 67 -44 67 -51 0 -28 54 -197 92 -284 51 -120 113 -228 177 -307 31 -38&#xA;45 -63 37 -63 -25 0 -148 28 -241 55 -233 68 -367 187 -480 429 -68 143 -123&#xA;331 -154 521 -14 83 -29 285 -21 284 3 0 19 -30 37 -67z m7338 -260 c34 -107&#xA;75 -198 119 -264 34 -50 35 -53 16 -56 -36 -6 -240 28 -319 53 -85 27 -167 78&#xA;-204 127 -26 34 -57 102 -57 122 0 6 25 22 56 35 69 30 234 127 294 174 l45&#xA;34 12 -72 c7 -39 24 -108 38 -153z m-2364 -93 c-12 -144 -4 -458 14 -603 54&#xA;-436 208 -795 393 -916 54 -35 -425 -1 -503 36 -19 9 -62 45 -95 80 -142 153&#xA;-247 410 -285 701 -24 182 -26 173 53 224 154 99 295 282 389 505 21 51 39 91&#xA;40 90 2 -2 -1 -54 -6 -117z m-4265 -276 c33 -14 130 -49 218 -78 l159 -52 22&#xA;-59 c70 -186 204 -368 320 -435 l50 -29 -115 0 c-174 1 -312 22 -361 56 -131&#xA;91 -266 306 -339 540 -20 66 -23 84 -16 84 2 0 30 -12 62 -27z m671 -198 c145&#xA;-33 505 -96 626 -110 31 -4 57 -12 57 -17 0 -5 -42 -51 -93 -102 -74 -75 -108&#xA;-100 -171 -131 -89 -43 -180 -56 -253 -36 -125 34 -279 205 -354 395 l-20 48&#xA;28 -7 c15 -4 96 -22 180 -40z m3033 -190 c36 -313 152 -615 296 -775 35 -38&#xA;36 -41 13 -36 -13 3 -55 13 -92 21 -266 60 -429 198 -540 457 -37 87 -80 223&#xA;-92 294 l-6 42 73 12 c76 12 224 49 293 73 22 8 41 14 42 13 0 0 6 -46 13&#xA;-101z"/>
    <path d="M6772 7430 c-21 -13 -42 -40 -57 -73 -21 -45 -25 -66 -25 -157 1 -58&#xA;7 -159 15 -225 8 -66 33 -300 55 -520 29 -283 45 -407 56 -423 36 -54 78 -52&#xA;287 15 225 72 426 168 615 293 316 210 339 296 133 500 -114 113 -305 265&#xA;-475 378 -294 197 -506 271 -604 212z m248 -115 c99 -41 180 -94 191 -124 53&#xA;-138 228 -863 216 -895 -12 -31 -416 -183 -499 -188 l-43 -3 -26 265 c-15 146&#xA;-39 374 -53 507 -38 351 -34 428 21 463 28 17 122 5 193 -25z m408 -242 c268&#xA;-193 462 -380 462 -445 0 -44 -154 -171 -331 -271 l-46 -26 -22 112 c-26 128&#xA;-130 551 -159 645 -11 34 -18 62 -15 62 3 0 53 -35 111 -77z"/>
    <path d="M8250 6061 c-72 -27 -247 -103 -320 -139 -53 -26 -61 -52 -54 -161&#xA;l7 -93 -47 50 c-66 70 -129 96 -223 90 -59 -4 -82 -11 -129 -39 -98 -59 -168&#xA;-152 -207 -274 -50 -157 -49 -545 3 -660 34 -77 114 -135 185 -135 11 0 47 11&#xA;79 25 33 13 61 23 63 21 8 -8 -40 -117 -67 -155 -34 -46 -75 -71 -119 -71 -46&#xA;0 -80 -17 -91 -46 -6 -14 -17 -98 -26 -186 l-17 -160 25 -25 c34 -33 106 -47&#xA;174 -33 193 40 335 264 409 643 15 73 29 176 32 230 l6 97 29 0 c15 0 61 11&#xA;101 25 39 14 82 23 94 20 30 -7 39 -47 24 -104 -26 -98 -74 -135 -168 -128&#xA;-45 3 -66 1 -74 -9 -14 -17 -59 -283 -59 -352 0 -66 11 -87 51 -101 114 -40&#xA;288 25 382 143 121 152 206 480 178 686 -18 137 -71 228 -155 272 -41 21 -113&#xA;27 -153 14 -20 -6 -23 -4 -23 16 0 21 11 28 73 52 39 16 95 39 124 53 72 33&#xA;78 56 63 221 -13 143 -25 199 -47 225 -21 22 -34 21 -123 -12z m84 -88 c3 -16&#xA;8 -82 12 -148 l7 -120 -69 -24 c-98 -34 -177 -70 -186 -84 -9 -14 -11 -148 -2&#xA;-171 8 -20 23 -20 83 0 87 28 167 -11 212 -103 31 -66 38 -249 15 -377 -57&#xA;-300 -207 -486 -394 -486 -76 0 -75 -3 -52 160 11 79 20 145 20 147 0 2 21 3&#xA;46 3 26 0 64 5 86 12 132 39 200 300 97 372 -33 22 -73 20 -159 -9 -40 -14&#xA;-74 -25 -75 -25 -1 0 -5 118 -8 263 -4 144 -10 307 -13 362 l-7 101 139 53&#xA;c77 30 159 64 184 77 57 29 57 29 64 -3z m-615 -263 c96 -49 146 -148 158&#xA;-313 8 -114 -14 -488 -37 -622 -52 -306 -170 -540 -306 -606 -45 -21 -136 -31&#xA;-159 -17 -19 12 8 277 28 282 7 2 34 9 61 15 27 6 62 21 78 33 69 49 152 234&#xA;146 325 -5 70 -23 75 -99 25 -100 -66 -159 -66 -214 0 -47 56 -59 124 -59 333&#xA;0 262 27 366 121 467 85 91 197 122 282 78z"/>
    <path d="M7546 5388 c-20 -23 -41 -58 -46 -77 -23 -83 -1 -199 42 -222 21 -12&#xA;68 -4 111 18 80 41 76 250 -5 307 -37 26 -64 19 -102 -26z m80 -73 c22 -53 18&#xA;-99 -11 -132 -21 -24 -26 -26 -35 -13 -22 33 -5 180 21 180 6 0 17 -16 25 -35z"/>
    <path d="M1064 5501 c-74 -45 -178 -240 -224 -422 -24 -93 -25 -121 -5 -159&#xA;39 -75 364 -191 580 -206 163 -12 236 26 270 138 46 157 -11 296 -194 471&#xA;-173 165 -337 233 -427 178z m172 -91 c122 -61 281 -220 344 -344 52 -103 37&#xA;-231 -30 -255 -103 -36 -441 32 -603 121 -53 29 -55 44 -22 172 31 125 94 254&#xA;146 301 49 44 85 45 165 5z"/>
    <path d="M5215 5133 c-194 -27 -619 -178 -800 -285 -186 -110 -296 -294 -232&#xA;-391 42 -65 247 -100 587 -101 244 -1 341 8 499 46 196 47 245 95 295 288 20&#xA;76 32 231 22 283 -10 56 -86 133 -149 152 -47 14 -151 18 -222 8z m205 -101&#xA;c79 -39 95 -109 64 -272 -22 -117 -49 -184 -89 -219 -84 -73 -389 -119 -710&#xA;-106 -261 10 -377 28 -417 63 -42 36 1 144 87 220 125 110 572 278 865 325 69&#xA;11 167 6 200 -11z"/>
    <path d="M1634 4456 c-98 -46 -189 -153 -182 -213 4 -38 24 -35 90 16 30 22&#xA;59 41 64 41 5 0 45 -29 89 -65 44 -35 109 -80 145 -99 65 -35 66 -35 99 -118&#xA;142 -352 288 -562 467 -671 138 -84 331 -124 549 -114 331 15 635 156 890 411&#xA;129 130 192 214 275 368 28 54 56 101 62 104 5 4 33 -17 62 -45 75 -74 118&#xA;-69 94 10 -20 69 -105 152 -206 202 -80 40 -90 42 -172 42 -66 0 -92 -4 -114&#xA;-18 -37 -25 -19 -47 37 -47 46 0 157 -29 157 -40 0 -10 -222 -92 -335 -123&#xA;-247 -69 -466 -97 -752 -97 -280 0 -435 16 -654 70 -124 31 -250 73 -340 113&#xA;-105 46 -289 181 -264 193 97 47 100 49 100 74 0 23 -4 25 -55 28 -41 2 -68&#xA;-4 -106 -22z m2429 -353 c-4 -10 -24 -48 -46 -85 -40 -66 -41 -67 -146 -117&#xA;-133 -62 -233 -95 -386 -126 -207 -41 -291 -49 -530 -49 -312 0 -492 29 -678&#xA;109 -84 36 -109 58 -172 158 -20 31 -14 33 43 13 54 -19 253 -64 367 -83 146&#xA;-24 569 -29 745 -9 250 29 497 88 699 166 115 45 112 44 104 23z m-353 -464&#xA;c-25 -22 -81 -64 -125 -93 -298 -198 -622 -267 -896 -190 -32 9 -59 20 -59 24&#xA;0 10 155 112 218 144 81 41 148 54 427 86 143 17 307 38 365 49 58 10 107 19&#xA;110 19 3 1 -15 -17 -40 -39z"/>
    <path d="M4282 6919 c-82 -32 -165 -115 -212 -213 -66 -138 -75 -249 -30 -368&#xA;98 -264 420 -231 556 57 64 135 66 276 4 402 -62 126 -185 173 -318 122z m197&#xA;-155 c93 -65 43 -270 -55 -226 -62 29 -72 163 -17 224 20 22 42 23 72 2z"/>
    <path d="M5224 6896 c-97 -31 -171 -104 -229 -227 -68 -146 -70 -283 -5 -415&#xA;52 -107 147 -162 257 -151 72 8 131 37 191 97 165 166 190 438 55 617 -55 74&#xA;-176 110 -269 79z m195 -181 c28 -32 31 -42 31 -101 0 -56 -4 -68 -25 -89 -29&#xA;-30 -54 -31 -88 -4 -48 37 -59 149 -21 207 23 35 66 29 103 -13z"/>
    <path d="M2099 5387 c-13 -7 -32 -28 -41 -46 -38 -76 43 -111 108 -46 22 22&#xA;23 27 11 56 -15 38 -45 52 -78 36z"/>
    <path d="M4075 5166 c-36 -16 -51 -33 -60 -66 -10 -41 23 -64 80 -58 54 7 85&#xA;31 85 68 0 54 -50 81 -105 56z"/>
    <path d="M8899 5187 c-94 -63 -178 -277 -225 -572 -21 -135 -30 -543 -15 -711&#xA;32 -364 134 -584 271 -584 45 0 110 64 148 147 90 197 135 487 135 878 1 334&#xA;-44 606 -122 750 -59 110 -121 140 -192 92z m95 -120 c45 -45 91 -208 117&#xA;-412 16 -126 16 -527 0 -660 -28 -236 -77 -423 -132 -509 -34 -55 -66 -61&#xA;-105 -19 -39 42 -40 66 -6 141 88 193 129 464 119 772 -9 249 -43 448 -98 564&#xA;-23 50 -19 67 29 119 31 33 46 34 76 4z m-136 -244 c36 -115 53 -240 59 -433&#xA;8 -272 -23 -517 -88 -693 -26 -68 -30 -64 -53 47 -21 105 -21 108 19 133 75&#xA;49 107 168 109 398 1 172 -9 234 -50 316 -13 26 -35 55 -49 65 l-25 19 26 108&#xA;c14 59 27 107 29 107 1 0 12 -30 23 -67z m-57 -305 c23 -50 24 -65 24 -238 0&#xA;-194 -7 -236 -47 -300 l-22 -35 -9 65 c-8 65 -2 408 10 508 3 28 9 52 13 52 4&#xA;0 18 -24 31 -52z"/>
    <path d="M6453 4230 c-116 -27 -223 -156 -324 -390 -162 -377 -205 -992 -99&#xA;-1412 63 -249 214 -428 361 -428 265 0 498 567 499 1215 0 462 -128 894 -293&#xA;989 -49 28 -99 37 -144 26z m98 -123 c97 -66 179 -266 226 -557 24 -149 24&#xA;-512 0 -673 -58 -385 -196 -692 -339 -751 -50 -21 -73 -20 -119 6 -50 28 -55&#xA;44 -20 63 77 39 173 191 230 364 165 502 113 1190 -112 1475 l-31 39 29 23&#xA;c27 22 48 29 86 33 9 0 31 -9 50 -22z m-121 -252 c71 -149 109 -339 117 -585&#xA;10 -310 -41 -603 -143 -816 -45 -96 -145 -204 -188 -204 -19 0 -106 229 -106&#xA;278 0 7 15 12 38 12 104 1 192 91 257 264 78 207 76 397 -6 650 -48 147 -96&#xA;203 -177 207 -29 2 -42 7 -42 17 0 28 79 212 116 269 l37 57 30 -34 c16 -19&#xA;46 -71 67 -115z m-182 -291 c30 -21 57 -76 87 -179 30 -103 29 -95 9 -95 -29&#xA;0 -74 -41 -99 -90 -66 -131 -49 -319 35 -381 l29 -22 -21 -41 c-49 -99 -106&#xA;-143 -164 -127 -42 11 -48 51 -48 326 0 327 39 595 88 615 32 13 59 11 84 -6z&#xA;m129 -489 c-5 -95 -23 -185 -38 -185 -5 0 -16 15 -26 33 -35 66 -16 214 34&#xA;270 17 18 17 17 26 -5 5 -13 7 -63 4 -113z"/>
  </g>
  <title>Racecar Smile</title>
  <desc>Racecar Smile</desc>
</svg>