<?xml version="1.0" encoding="UTF-8" standalone="yes"?>
<svg version="1.0" xmlns="http://www.w3.org/2000/svg" width="1024.000000pt" height="1024.000000pt" viewBox="0 0 1024.000000 1024.000000" preserveAspectRatio="xMidYMid meet">
  <metadata>
Created by potrace 1.16, written by Peter Selinger 2001-2019
</metadata>
  <g transform="translate(0.000000,1024.000000) scale(0.100000,-0.100000)" fill="#000000" stroke="none">
    <path d="M6742 9628 c-5 -7 -22 -53 -36 -103 -47 -156 -32 -142 -153 -150 -85&#xA;-6 -109 -11 -125 -27 -30 -30 -18 -50 57 -89 39 -20 84 -49 101 -65 29 -28 31&#xA;-35 44 -153 13 -134 26 -161 75 -161 30 0 43 24 95 169 l37 104 89 33 c116 44&#xA;134 54 147 83 16 34 -10 51 -121 81 -74 20 -94 29 -97 45 -36 175 -48 216 -68&#xA;230 -26 18 -32 19 -45 3z m113 -339 l50 -17 -57 -26 c-62 -28 -78 -47 -112&#xA;-131 -13 -30 -26 -52 -29 -48 -4 3 -7 32 -7 62 0 64 -13 89 -71 130 l-39 29&#xA;31 6 c18 3 42 6 55 6 28 0 55 34 74 90 l14 42 20 -63 c20 -61 22 -63 71 -80z"/>
    <path d="M8452 9498 c-27 -45 -238 -468 -246 -495 -4 -11 -12 -25 -19 -31 -8&#xA;-6 -81 -3 -202 9 -261 25 -329 25 -355 -1 -36 -36 -26 -66 48 -142 37 -39 124&#xA;-120 195 -180 70 -61 127 -116 127 -122 0 -7 -18 -50 -41 -97 -93 -192 -192&#xA;-435 -193 -473 -1 -51 19 -65 71 -47 60 21 164 72 351 171 l172 91 39 -33 c21&#xA;-18 112 -100 202 -182 181 -164 214 -186 254 -168 34 16 33 48 -9 302 -19 113&#xA;-37 230 -40 260 l-7 55 216 140 c212 137 245 166 245 213 0 48 -52 64 -387&#xA;117 l-172 27 -16 72 c-9 39 -39 174 -66 300 -27 125 -52 232 -55 237 -3 5 -25&#xA;9 -49 9 -38 0 -46 -4 -63 -32z m95 -345 c25 -114 49 -226 53 -248 18 -85 10&#xA;-81 250 -120 85 -14 179 -30 208 -36 l53 -11 -203 -137 c-181 -122 -203 -140&#xA;-206 -166 -2 -17 13 -128 33 -247 19 -119 35 -224 35 -234 0 -10 -37 19 -101&#xA;77 -175 163 -263 239 -286 245 -16 4 -87 -27 -257 -115 -194 -100 -234 -117&#xA;-227 -99 17 43 68 163 135 315 36 84 66 163 66 177 0 18 -34 55 -142 154 -173&#xA;158 -207 192 -187 192 8 0 111 -10 231 -21 119 -12 223 -19 232 -16 9 4 54 84&#xA;99 179 116 241 160 328 165 324 2 -2 24 -98 49 -213z"/>
    <path d="M3224 9489 c-10 -11 -44 -69 -74 -127 l-55 -107 -113 -2 c-142 -1&#xA;-162 -6 -162 -37 0 -28 57 -81 143 -136 67 -42 67 -43 30 -197 -23 -95 -25&#xA;-114 -13 -128 19 -23 33 -17 147 59 l100 67 99 -71 c100 -72 148 -88 161 -54&#xA;3 9 -4 73 -15 142 -25 147 -27 141 71 192 70 37 97 58 97 75 0 30 -30 45 -130&#xA;65 -58 11 -115 23 -126 25 -23 5 -24 7 -55 130 -31 123 -61 152 -105 104z m66&#xA;-244 l25 -50 84 -20 84 -20 -40 -28 c-22 -15 -51 -39 -63 -52 l-23 -25 17 -81&#xA;c10 -45 20 -88 24 -98 3 -9 -24 8 -61 37 -98 77 -106 78 -169 35 -29 -19 -63&#xA;-45 -75 -56 -28 -25 -28 -22 -3 73 29 110 28 112 -40 162 -33 23 -60 46 -60&#xA;49 0 4 33 8 74 11 88 4 98 11 146 105 l35 67 10 -29 c5 -17 21 -52 35 -80z"/>
    <path d="M1156 9481 c-23 -25 -31 -56 -75 -279 -21 -106 -40 -195 -43 -197 -2&#xA;-2 -84 -20 -181 -39 -212 -42 -242 -54 -250 -91 -7 -40 14 -57 206 -164 93&#xA;-51 171 -99 173 -106 3 -7 -6 -89 -20 -183 -15 -94 -26 -200 -26 -235 0 -137&#xA;45 -120 293 114 l130 123 187 -97 c103 -53 199 -97 214 -97 14 0 35 9 46 20&#xA;30 30 21 63 -72 288 l-80 193 27 34 c14 19 73 92 131 160 106 128 118 153 90&#xA;190 -11 16 -25 19 -67 17 -66 -2 -278 -20 -336 -27 l-41 -6 -96 189 c-73 145&#xA;-101 191 -121 200 -37 17 -69 15 -89 -7z m124 -226 c104 -199 130 -243 146&#xA;-249 9 -3 37 -4 62 -1 142 16 297 32 299 31 1 -1 -50 -67 -113 -146 -102 -126&#xA;-115 -147 -111 -174 2 -17 38 -106 80 -198 41 -93 72 -168 69 -168 -4 0 -81&#xA;41 -172 90 -90 50 -173 90 -183 90 -18 0 -54 -31 -247 -217 -41 -39 -75 -71&#xA;-76 -70 -1 1 4 45 12 97 38 283 40 309 19 329 -11 10 -81 54 -155 96 -74 43&#xA;-139 81 -144 85 -5 5 9 12 30 15 120 21 307 64 315 72 10 10 59 231 79 357 10&#xA;64 18 92 25 84 1 -2 30 -57 65 -123z"/>
    <path d="M5559 9071 c-44 -39 -44 -39 -44 -107 0 -78 18 -113 72 -139 75 -36&#xA;158 -7 195 70 20 41 21 49 9 93 -14 54 -42 89 -88 108 -58 25 -96 18 -144 -25z&#xA;m134 -58 c44 -50 24 -123 -35 -123 -63 0 -98 66 -62 118 19 27 74 30 97 5z"/>
    <path d="M4630 8644 c-453 -60 -841 -242 -1146 -536 -193 -187 -322 -362 -440&#xA;-598 -143 -287 -240 -600 -280 -904 -8 -60 -16 -111 -18 -113 -2 -2 -82 -24&#xA;-177 -48 -724 -182 -1410 -540 -1675 -872 -142 -177 -185 -355 -129 -530 134&#xA;-424 778 -827 1765 -1103 l155 -44 100 -95 c114 -109 189 -168 315 -245 231&#xA;-144 547 -271 845 -341 446 -106 898 -122 1341 -50 l41 7 18 -98 c88 -506 281&#xA;-1002 488 -1259 47 -58 136 -143 190 -181 32 -23 41 -25 62 -16 27 13 31 35&#xA;14 79 -11 27 -90 406 -86 410 1 1 35 -40 74 -92 161 -210 338 -411 527 -601&#xA;234 -234 329 -303 609 -442 172 -86 234 -105 263 -81 23 19 13 51 -47 154 -86&#xA;149 -249 507 -249 548 0 10 49 -12 148 -65 355 -192 680 -337 981 -438 172&#xA;-57 233 -63 239 -23 5 37 -24 83 -133 208 -58 66 -105 123 -105 126 0 13 563&#xA;-235 1045 -460 145 -68 181 -75 191 -36 12 47 -109 245 -315 518 -265 351&#xA;-493 613 -881 1011 l-135 138 55 -7 c188 -23 499 -105 678 -179 124 -50 158&#xA;-55 193 -27 l23 18 -27 45 c-66 113 -240 298 -410 436 -227 185 -544 351 -864&#xA;453 -40 12 -71 24 -69 26 2 2 93 28 202 58 109 30 237 65 283 78 139 39 146&#xA;85 24 150 -159 83 -322 108 -733 112 -325 3 -442 9 -545 26 -69 11 -194 51&#xA;-244 78 l-34 18 119 28 c302 70 660 180 919 282 585 232 938 492 1030 760 34&#xA;98 41 185 21 264 -77 308 -428 610 -1046 899 -222 104 -440 186 -714 270 -142&#xA;44 -261 81 -263 83 -2 3 -10 67 -18 143 -42 392 -132 714 -286 1014 -217 425&#xA;-605 789 -994 933 -301 111 -606 149 -895 111z m441 -120 c148 -19 332 -68&#xA;457 -122 578 -249 1006 -853 1132 -1597 22 -128 50 -397 50 -477 l0 -50 -31&#xA;26 c-81 68 -249 145 -419 191 -109 29 -279 65 -308 65 -12 0 -23 4 -26 8 -2 4&#xA;4 59 15 122 27 150 22 416 -10 554 -61 265 -230 496 -462 632 -123 72 -214&#xA;108 -341 135 -145 30 -247 34 -378 15 -414 -62 -682 -273 -905 -717 -104 -208&#xA;-165 -421 -181 -640 l-7 -86 -76 -7 c-178 -15 -369 -65 -516 -136 -85 -40&#xA;-205 -123 -205 -140 0 -5 -3 -10 -8 -10 -10 0 12 261 32 370 75 425 236 817&#xA;460 1118 401 541 1072 831 1727 746z m83 -634 c233 -63 464 -244 568 -445 60&#xA;-117 84 -191 103 -314 19 -126 19 -246 0 -379 -57 -402 -191 -686 -438 -931&#xA;l-75 -73 -88 -8 c-49 -4 -213 -8 -364 -9 -261 -1 -332 3 -704 40 l-129 13 -44&#xA;56 c-57 72 -147 255 -173 350 -49 185 -63 422 -34 613 52 345 263 727 506 914&#xA;117 90 276 162 413 187 116 22 354 15 459 -14z m-1489 -1492 c6 -75 6 -77 -17&#xA;-82 -13 -3 -65 -12 -116 -21 -101 -17 -230 -60 -296 -99 -59 -35 -113 -97&#xA;-127 -148 -7 -24 -14 -45 -15 -46 -6 -9 -151 76 -192 113 l-46 42 22 31 c74&#xA;102 204 173 447 242 62 18 319 58 326 51 4 -3 10 -41 14 -83z m2429 31 c56&#xA;-11 157 -39 226 -61 202 -65 301 -123 351 -205 l23 -36 -44 -38 c-24 -21 -78&#xA;-56 -121 -78 l-77 -40 -6 34 c-15 76 -119 168 -245 215 -62 24 -274 70 -319&#xA;70 -16 0 -31 3 -34 6 -3 3 6 41 21 86 l26 80 49 -7 c28 -3 95 -15 150 -26z&#xA;m-3354 -72 c0 -7 -15 -21 -32 -32 -60 -35 -120 -99 -150 -159 -27 -54 -30 -67&#xA;-26 -128 4 -52 12 -79 34 -115 37 -60 147 -153 242 -205 39 -22 72 -41 72 -43&#xA;0 -2 -39 -24 -87 -50 -134 -72 -233 -137 -403 -264 -175 -130 -407 -354 -505&#xA;-486 -32 -44 -62 -84 -66 -88 -8 -10 -179 78 -309 159 -264 163 -432 354 -474&#xA;541 l-14 62 73 69 c77 74 263 202 435 300 280 160 667 311 1065 416 154 41&#xA;145 39 145 23z m4490 -164 c447 -151 912 -383 1150 -574 89 -71 230 -209 230&#xA;-224 0 -4 -16 -38 -36 -76 -86 -164 -283 -326 -588 -485 -128 -66 -366 -174&#xA;-384 -174 -4 0 -28 33 -54 73 -174 266 -507 559 -914 804 l-81 49 126 64 c100&#xA;51 140 79 193 131 160 156 163 308 11 455 -35 33 -63 66 -63 71 0 11 229 -52&#xA;410 -114z m-4491 5 c3 -55 22 -96 62 -137 166 -166 582 -296 1223 -380 282&#xA;-38 409 -48 696 -56 675 -19 1480 109 1857 295 126 63 187 116 223 193 l28 58&#xA;25 -33 c38 -52 48 -75 49 -121 2 -106 -108 -212 -323 -311 -322 -149 -956&#xA;-258 -1579 -272 -1082 -25 -2205 240 -2366 558 -28 55 -30 87 -8 131 16 31 92&#xA;117 104 117 3 0 7 -19 9 -42z m366 -610 c248 -89 580 -162 895 -197 102 -12&#xA;226 -26 275 -32 116 -15 361 -17 755 -8 549 12 937 61 1301 164 l126 36 89&#xA;-52 c234 -137 496 -332 663 -493 119 -115 324 -367 309 -381 -3 -3 -278 -93&#xA;-368 -120 -171 -53 -551 -134 -785 -169 -534 -79 -1079 -113 -1635 -102 -386&#xA;7 -411 8 -730 37 -695 63 -1252 169 -1750 335 -134 45 -347 129 -364 145 -10&#xA;9 63 105 174 228 77 86 238 230 370 331 187 142 517 337 550 324 8 -4 65 -24&#xA;125 -46z m-2121 -191 c12 -35 37 -90 56 -123 41 -69 205 -238 302 -309 579&#xA;-429 1598 -716 2873 -811 293 -22 987 -21 1310 1 849 58 1495 189 2100 428&#xA;519 204 902 469 1015 702 l23 47 19 -30 c32 -51 58 -138 58 -194 -1 -320 -367&#xA;-605 -1149 -892 -914 -336 -2244 -495 -3441 -410 -652 46 -1236 147 -1762 304&#xA;-216 65 -264 82 -478 167 -530 213 -914 503 -1030 778 -20 49 -25 75 -24 145&#xA;1 47 7 99 13 115 20 50 82 157 88 151 3 -3 15 -34 27 -69z m2147 -1586 c123&#xA;-22 265 -46 316 -52 l91 -12 19 -41 c32 -71 109 -181 178 -255 37 -39 66 -71&#xA;63 -71 -2 0 -56 17 -119 39 -208 69 -400 160 -554 260 -87 57 -221 157 -231&#xA;172 -4 7 -3 9 3 6 6 -4 111 -24 234 -46z m3349 -22 c-64 -51 -244 -171 -325&#xA;-217 -145 -82 -330 -157 -565 -227 -19 -6 -8 10 48 69 78 82 185 222 209 272&#xA;l15 31 164 22 c90 12 223 33 296 46 73 12 144 23 158 24 l25 1 -25 -21z m350&#xA;-67 c146 -59 359 -82 750 -80 263 1 342 -7 513 -49 74 -19 103 -29 92 -35 -8&#xA;-5 -70 -24 -137 -43 -283 -77 -385 -120 -412 -173 -27 -54 -11 -66 151 -118&#xA;347 -110 569 -221 832 -417 121 -89 331 -278 331 -297 0 -4 -27 3 -59 16 -149&#xA;60 -532 147 -696 158 -109 7 -138 -4 -143 -51 -3 -30 15 -51 241 -285 357&#xA;-370 587 -633 829 -949 102 -133 239 -331 234 -337 -2 -2 -31 10 -63 27 -33&#xA;16 -129 61 -214 99 -840 378 -901 403 -945 383 -13 -6 -24 -19 -24 -30 0 -28&#xA;106 -182 189 -275 39 -43 69 -81 67 -83 -6 -6 -279 100 -445 174 -202 90 -351&#xA;166 -694 358 -71 39 -135 51 -158 28 -7 -7 -12 -28 -11 -48 3 -69 114 -360&#xA;213 -558 l49 -97 -79 40 c-232 116 -380 228 -621 469 -162 163 -419 460 -543&#xA;629 -98 134 -123 159 -144 146 -29 -18 -28 -123 3 -298 15 -83 29 -164 31&#xA;-181 l5 -30 -31 35 c-188 211 -378 673 -482 1175 -18 85 -30 157 -27 161 9 8&#xA;188 54 213 54 16 0 25 -14 42 -69 33 -100 114 -279 178 -392 138 -244 329&#xA;-449 564 -606 133 -88 270 -156 321 -157 31 -1 35 2 38 27 2 16 -3 36 -11 45&#xA;-36 43 -173 290 -164 298 2 2 46 -17 98 -42 340 -167 779 -335 1109 -424 140&#xA;-38 214 -48 235 -30 39 33 4 95 -163 290 -175 204 -400 422 -702 684 l-45 39&#xA;75 -7 c41 -3 163 -9 270 -13 184 -5 196 -5 212 13 26 29 6 58 -89 135 -142&#xA;113 -331 208 -689 344 -106 41 -245 98 -308 128 -63 30 -133 63 -155 73 -23&#xA;10 -41 20 -41 23 0 3 29 25 65 49 35 24 92 69 126 101 l63 58 41 -27 c22 -15&#xA;74 -41 115 -58z m-3023 -7 c534 -61 1237 -69 1782 -20 90 9 166 13 169 11 12&#xA;-13 -126 -181 -235 -286 -122 -117 -123 -118 -187 -129 -256 -45 -602 -62&#xA;-846 -42 -150 12 -320 38 -450 67 -72 17 -76 19 -168 108 -89 86 -171 185&#xA;-221 269 l-23 37 25 0 c14 0 83 -7 154 -15z m2778 -279 c72 -35 202 -91 290&#xA;-125 88 -34 196 -76 240 -93 124 -48 251 -113 353 -181 50 -34 92 -64 92 -67&#xA;0 -7 -48 -5 -261 10 -211 15 -236 14 -264 -14 -40 -40 -25 -63 125 -191 203&#xA;-174 426 -384 532 -501 121 -134 243 -283 237 -288 -6 -5 -208 48 -337 88&#xA;-242 76 -588 217 -897 366 -93 44 -179 79 -190 78 -13 -2 -21 -12 -23 -28 -3&#xA;-27 58 -160 131 -282 25 -43 42 -78 38 -78 -15 0 -220 128 -284 177 -189 145&#xA;-360 351 -485 583 -36 68 -152 347 -152 367 0 4 30 19 68 32 37 13 72 26 78&#xA;28 5 2 48 -42 94 -97 128 -155 312 -320 358 -320 9 0 -3 19 -29 48 -136 146&#xA;-224 246 -282 316 l-64 80 125 58 c69 32 128 55 131 52 3 -3 53 -50 111 -104&#xA;175 -164 277 -242 338 -259 20 -6 -29 48 -180 197 -114 113 -208 208 -208 211&#xA;0 4 19 18 43 32 l42 26 50 -29 c28 -17 109 -58 180 -92z"/>
    <path d="M4305 8260 c-105 -27 -242 -89 -357 -161 -217 -134 -413 -343 -494&#xA;-525 -50 -113 -11 -107 67 11 68 103 266 301 389 388 101 71 338 194 430 222&#xA;81 24 180 67 180 77 0 15 -143 7 -215 -12z"/>
    <path d="M4891 7570 c-82 -17 -220 -113 -282 -197 l-33 -44 -23 44 c-43 86&#xA;-123 132 -214 124 -73 -6 -142 -43 -205 -109 -140 -144 -218 -326 -219 -508 0&#xA;-98 18 -157 71 -226 24 -32 34 -55 34 -82 1 -100 113 -232 198 -232 25 0 62&#xA;25 62 42 0 3 -12 8 -27 11 -40 8 -113 74 -134 121 -27 59 -24 92 10 127 27 26&#xA;36 29 95 29 116 0 152 -15 231 -98 39 -41 90 -86 115 -100 40 -24 55 -27 135&#xA;-27 80 0 97 4 155 31 190 91 319 253 381 479 41 149 28 340 -32 458 -28 53&#xA;-86 115 -130 138 -45 23 -128 31 -188 19z m133 -84 c49 -20 103 -81 128 -145&#xA;20 -49 23 -73 22 -201 0 -140 -1 -148 -33 -234 -61 -160 -167 -288 -293 -352&#xA;-142 -72 -260 -41 -328 87 -29 56 -34 74 -38 158 -10 213 60 403 201 549 122&#xA;126 247 177 341 138z m-603 -88 c46 -26 79 -86 79 -145 0 -23 -13 -71 -29&#xA;-110 -49 -113 -71 -216 -71 -323 l0 -97 -57 20 c-42 14 -77 18 -130 15 -61 -3&#xA;-77 -8 -117 -36 l-45 -33 -25 39 c-37 59 -50 137 -36 228 33 219 150 396 295&#xA;446 66 23 90 22 136 -4z"/>
    <path d="M4748 7063 c-51 -40 -77 -81 -90 -147 -23 -109 33 -188 100 -140 66&#xA;48 116 231 78 289 -21 32 -44 32 -88 -2z"/>
    <path d="M4287 7080 c-85 -74 -111 -239 -40 -256 46 -12 74 7 110 73 79 144&#xA;30 272 -70 183z"/>
    <path d="M5220 6564 c-142 -147 -372 -269 -545 -289 -132 -15 -215 -63 -215&#xA;-123 0 -56 125 -177 221 -213 61 -24 187 -25 278 -4 215 51 398 264 418 487 7&#xA;69 -15 137 -54 168 -38 29 -54 25 -103 -26z m70 -113 c0 -82 -75 -238 -152&#xA;-317 -103 -106 -332 -157 -451 -99 -38 18 -127 99 -127 115 0 11 66 30 106 30&#xA;59 0 200 42 299 89 95 46 232 135 285 187 32 31 40 30 40 -5z"/>
    <path d="M1710 5802 c-76 -20 -146 -59 -208 -116 -54 -49 -81 -105 -82 -165 0&#xA;-37 5 -49 38 -81 53 -54 126 -68 235 -47 192 38 317 151 317 286 0 47 -4 57&#xA;-33 86 -56 56 -146 69 -267 37z m174 -73 c14 -7 29 -24 34 -38 21 -62 -31&#xA;-131 -138 -179 -72 -34 -206 -43 -245 -18 -44 29 -29 91 37 152 79 75 237 117&#xA;312 83z"/>
    <path d="M7327 5726 c-132 -122 124 -376 378 -376 129 0 172 54 125 158 -72&#xA;158 -410 305 -503 218z m176 -61 c140 -42 285 -164 263 -221 -6 -15 -17 -16&#xA;-82 -11 -130 10 -270 90 -309 176 -14 33 -15 43 -5 56 16 19 71 19 133 0z"/>
    <path d="M2813 5206 c-97 -31 -177 -98 -209 -174 -23 -54 -15 -148 15 -191&#xA;124 -174 419 -126 517 84 51 108 15 213 -91 268 -51 26 -172 33 -232 13z m168&#xA;-77 c100 -34 116 -135 35 -227 -42 -48 -106 -75 -177 -74 -101 1 -153 38 -166&#xA;115 -19 117 171 231 308 186z"/>
    <path d="M4938 5153 c7 -3 16 -2 19 1 4 3 -2 6 -13 5 -11 0 -14 -3 -6 -6z"/>
    <path d="M6115 5114 c-85 -31 -131 -109 -123 -212 16 -218 341 -322 488 -155&#xA;108 123 28 314 -153 368 -63 19 -159 18 -212 -1z m186 -79 c117 -42 168 -131&#xA;119 -210 -67 -109 -284 -81 -336 42 -19 45 -17 82 6 121 36 59 123 78 211 47z"/>
    <path d="M4448 5006 c-26 -7 -55 -19 -65 -26 -118 -90 -161 -203 -114 -305 50&#xA;-110 202 -176 323 -141 117 34 197 127 205 239 4 56 1 68 -27 115 -63 108&#xA;-188 154 -322 118z m183 -96 c51 -27 79 -72 79 -130 0 -159 -230 -229 -340&#xA;-104 -61 70 -25 186 75 238 44 23 137 21 186 -4z"/>
    <path d="M6966 8271 c-46 -30 -66 -70 -66 -130 0 -49 3 -57 39 -92 32 -33 45&#xA;-39 80 -39 85 0 141 52 141 132 0 61 -19 109 -53 131 -35 23 -105 22 -141 -2z&#xA;m110 -86 c14 -21 14 -30 4 -55 -22 -54 -85 -52 -104 3 -23 62 64 107 100 52z"/>
    <path d="M2166 7828 c-8 -13 -20 -54 -27 -91 -6 -38 -16 -73 -23 -78 -6 -5&#xA;-45 -26 -86 -47 -56 -28 -76 -43 -78 -60 -3 -19 7 -27 72 -57 41 -19 78 -41&#xA;83 -48 4 -6 17 -57 28 -112 17 -84 23 -100 40 -103 35 -5 54 20 89 117 l33 93&#xA;53 19 c69 24 100 45 100 68 0 23 -11 32 -85 71 -33 17 -65 37 -72 43 -7 7 -17&#xA;46 -24 87 -14 89 -30 120 -64 120 -14 0 -31 -9 -39 -22z m47 -215 c4 -19 19&#xA;-36 46 -53 l40 -24 -37 -21 c-25 -14 -40 -31 -47 -53 -11 -37 -25 -42 -25 -8&#xA;0 28 -33 72 -60 81 -29 9 -25 19 15 38 21 10 37 26 41 42 8 33 20 32 27 -2z"/>
    <path d="M7657 7283 c-8 -16 -22 -52 -33 -81 -16 -48 -22 -53 -59 -63 -105&#xA;-27 -133 -44 -122 -73 3 -8 33 -26 66 -41 68 -31 74 -42 90 -155 9 -70 25&#xA;-100 53 -100 18 0 43 43 68 112 l25 73 70 37 c111 58 111 78 -1 123 -64 26&#xA;-71 37 -73 113 -1 56 -16 82 -46 82 -17 0 -29 -9 -38 -27z m61 -220 c21 -8 20&#xA;-10 -15 -37 l-36 -30 -28 34 -28 33 32 17 c26 13 34 14 43 3 6 -7 20 -16 32&#xA;-20z"/>
    <path d="M9232 7046 c-10 -13 -42 -69 -71 -124 l-52 -99 -91 -7 c-50 -3 -112&#xA;-6 -138 -6 -52 0 -70 -13 -70 -49 0 -20 22 -46 91 -111 l91 -85 -51 -135 c-29&#xA;-74 -50 -144 -49 -155 5 -37 49 -29 178 35 l123 60 51 -45 c170 -152 189 -163&#xA;216 -130 11 13 10 42 -4 158 -19 165 -32 138 111 223 93 55 112 78 94 113 -13&#xA;23 -53 38 -186 65 l-100 21 -13 65 c-33 171 -44 210 -62 220 -29 16 -47 12&#xA;-68 -14z m49 -229 c11 -47 26 -92 32 -101 7 -9 52 -24 111 -36 55 -11 101 -22&#xA;103 -23 2 -2 -38 -32 -87 -66 -99 -68 -96 -62 -79 -172 6 -38 9 -74 7 -79 -2&#xA;-6 -36 19 -77 55 -41 36 -83 65 -94 65 -11 0 -58 -20 -104 -45 -46 -25 -83&#xA;-41 -83 -37 0 4 16 47 35 95 19 48 35 95 35 106 0 11 -31 47 -71 85 l-71 66&#xA;100 0 101 0 24 33 c14 17 39 58 57 90 18 32 34 56 37 54 2 -3 13 -43 24 -90z"/>
    <path d="M984 6962 c-73 -35 -110 -106 -102 -194 9 -89 75 -148 165 -148 82 0&#xA;136 36 168 112 62 150 -86 297 -231 230z m110 -73 c32 -15 59 -71 51 -107 -9&#xA;-45 -46 -82 -87 -89 -33 -5 -41 -2 -73 30 -41 41 -45 75 -15 125 29 48 75 63&#xA;124 41z"/>
    <path d="M9259 4650 c-48 -14 -77 -41 -99 -92 -21 -49 -21 -52 -5 -94 22 -58&#xA;65 -88 125 -87 91 1 140 50 140 139 0 54 -31 104 -80 129 -32 16 -42 17 -81 5z&#xA;m65 -102 c31 -45 14 -88 -34 -88 -27 0 -70 32 -70 52 0 21 43 58 66 58 13 0&#xA;30 -10 38 -22z"/>
    <path d="M1133 3808 c-33 -36 -31 -25 -68 -508 l-7 -85 -240 -79 c-132 -44&#xA;-251 -88 -264 -99 -31 -24 -31 -60 0 -84 13 -11 122 -65 242 -122 121 -57 222&#xA;-107 226 -110 4 -3 3 -116 -3 -250 -12 -273 -9 -307 26 -323 42 -19 59 -3 360&#xA;345 l50 58 200 -71 c250 -90 282 -100 323 -100 45 0 59 35 38 98 -16 46 -19&#xA;50 -165 281 -50 80 -91 147 -91 151 0 4 63 90 141 191 167 219 199 266 199&#xA;294 0 26 -29 55 -56 55 -18 0 -489 -105 -516 -115 -8 -3 -51 56 -117 163 -183&#xA;293 -210 332 -235 332 -12 0 -32 -10 -43 -22z m258 -457 c35 -57 72 -109 81&#xA;-115 13 -8 72 2 245 41 125 28 229 50 230 49 1 -1 -65 -89 -147 -196 -82 -107&#xA;-150 -202 -150 -210 0 -9 55 -103 121 -210 67 -107 123 -200 126 -206 4 -11&#xA;-135 34 -322 104 -44 16 -95 33 -113 37 -39 8 -39 9 -231 -215 l-124 -143 7&#xA;237 c6 174 5 241 -4 251 -6 7 -101 57 -211 111 -109 54 -199 100 -199 104 0 4&#xA;89 34 198 69 108 34 208 67 222 74 30 15 34 36 50 297 6 102 14 197 17 212 6&#xA;30 3 33 204 -291z"/>
    <path d="M2934 2701 c-95 -58 -123 -187 -57 -269 54 -67 141 -80 215 -33 105&#xA;66 114 190 22 279 -41 38 -49 42 -97 42 -33 0 -63 -7 -83 -19z m130 -92 c67&#xA;-79 -15 -196 -105 -149 -24 13 -49 61 -49 94 0 13 12 38 26 55 20 25 34 31 64&#xA;31 30 0 44 -6 64 -31z"/>
    <path d="M3953 2533 c-22 -32 -69 -139 -173 -395 l-72 -178 -92 0 c-199 -1&#xA;-482 -13 -498 -21 -24 -13 -32 -48 -17 -77 8 -13 102 -93 209 -177 108 -84&#xA;201 -160 209 -168 11 -14 3 -39 -52 -174 -111 -269 -157 -390 -157 -412 0 -25&#xA;33 -61 55 -61 31 0 207 103 421 247 l111 74 196 -151 c291 -224 325 -243 357&#xA;-205 17 21 11 57 -59 353 -34 139 -61 254 -61 256 0 3 37 30 83 62 163 113&#xA;333 238 365 268 40 37 43 78 8 101 -24 16 -255 46 -461 61 -49 4 -97 10 -106&#xA;15 -9 4 -21 27 -28 51 -6 24 -38 147 -71 273 -33 127 -68 241 -79 255 -26 36&#xA;-64 38 -88 3z m102 -393 c64 -258 71 -277 94 -285 9 -2 97 -11 196 -20 99 -8&#xA;205 -18 235 -22 30 -4 58 -6 63 -5 36 10 -28 -39 -339 -257 -46 -32 -73 -58&#xA;-76 -73 -3 -18 47 -245 106 -472 l7 -28 -53 38 c-29 21 -116 88 -192 148 -150&#xA;117 -188 141 -208 130 -7 -4 -56 -35 -108 -69 -245 -160 -333 -216 -337 -212&#xA;-2 3 1 15 6 28 56 134 181 470 181 486 0 24 -27 50 -227 208 l-151 120 253 3&#xA;c186 2 255 6 263 15 9 11 43 92 175 414 23 56 44 99 48 95 3 -4 32 -113 64&#xA;-242z"/>
    <path d="M2041 1724 c-11 -14 -23 -42 -27 -63 -14 -82 -35 -164 -49 -191 -12&#xA;-23 -29 -33 -81 -50 -36 -11 -71 -20 -78 -20 -33 0 -88 -24 -101 -44 -29 -44&#xA;-2 -65 140 -105 39 -11 78 -26 86 -33 11 -8 26 -64 44 -153 15 -77 32 -146 37&#xA;-152 13 -17 63 -17 75 0 5 6 25 66 44 131 19 66 41 128 49 137 8 9 61 31 118&#xA;48 83 26 105 36 114 56 8 18 8 28 -1 39 -12 15 -27 21 -160 67 -83 29 -95 50&#xA;-117 203 -13 84 -23 125 -36 138 -24 24 -33 23 -57 -8z m76 -352 c22 -29 32&#xA;-36 87 -58 l40 -16 -51 -18 c-29 -10 -57 -21 -63 -25 -17 -10 -60 -106 -60&#xA;-132 0 -48 -17 -20 -33 56 -19 86 -29 100 -101 132 l-49 21 53 19 c68 24 85&#xA;40 106 99 l17 49 18 -51 c9 -27 25 -62 36 -76z"/>
    <path d="M5573 1125 c-48 -21 -88 -88 -87 -147 1 -52 20 -86 68 -122 21 -16&#xA;42 -21 89 -21 71 0 116 24 144 78 21 41 20 117 -2 155 -38 63 -137 90 -212 57z&#xA;m134 -81 c7 -10 13 -35 13 -55 0 -44 -36 -79 -79 -79 -73 1 -106 103 -48 146&#xA;28 20 96 12 114 -12z"/>
  </g>
  <title>Statek kosmiczny wśród gwiazd</title>
  <desc>Futurystyczny statek kosmiczny leci przez galaktykę pełną gwiazd. To kolorowanka dla małych fanów science-fiction i kosmicznych przygód. Tło może mienić się różnymi kolorami.</desc>
</svg>