<?xml version="1.0" encoding="UTF-8" standalone="yes"?>
<svg version="1.0" xmlns="http://www.w3.org/2000/svg" width="1024.000000pt" height="1024.000000pt" viewBox="0 0 1024.000000 1024.000000" preserveAspectRatio="xMidYMid meet">
  <metadata>
Created by potrace 1.16, written by Peter Selinger 2001-2019
</metadata>
  <g transform="translate(0.000000,1024.000000) scale(0.100000,-0.100000)" fill="#000000" stroke="none">
    <path d="M5495 9799 c-138 -10 -215 -36 -277 -96 -58 -56 -62 -123 -11 -183&#xA;l25 -30 -114 0 c-293 0 -536 -116 -625 -298 -24 -48 -28 -69 -28 -137 1 -71 4&#xA;-87 34 -143 46 -85 123 -153 235 -207 50 -24 104 -47 119 -51 15 -3 27 -9 25&#xA;-13 -2 -3 -24 -44 -50 -91 -51 -94 -109 -243 -135 -347 -12 -48 -17 -112 -18&#xA;-218 0 -131 3 -159 23 -220 13 -38 41 -94 63 -123 l40 -52 -45 -188 c-101&#xA;-425 -149 -735 -150 -987 -1 -195 6 -239 55 -335 22 -45 29 -74 34 -158 4 -56&#xA;15 -136 25 -178 11 -50 14 -74 6 -71 -292 105 -667 220 -812 247 -49 10 -64&#xA;17 -77 38 -55 95 -221 212 -320 227 -42 6 -43 8 -87 93 -168 328 -487 556&#xA;-897 639 -122 25 -436 24 -577 -1 -127 -23 -339 -92 -464 -151 -301 -143 -559&#xA;-389 -696 -663 -159 -318 -168 -716 -23 -1007 143 -287 405 -469 782 -541 120&#xA;-24 366 -24 490 -1 107 19 252 60 305 86 l38 18 11 -39 c48 -157 298 -219 548&#xA;-134 136 46 231 104 334 203 61 58 71 64 120 69 63 7 152 31 192 51 24 12 35&#xA;11 95 -6 37 -11 213 -61 392 -111 591 -166 813 -231 996 -291 l181 -60 2 -162&#xA;c3 -349 46 -677 131 -1017 58 -231 71 -310 64 -393 -8 -90 7 -146 49 -190 l32&#xA;-34 -23 -56 c-30 -75 -52 -227 -52 -358 l0 -106 -42 -28 c-121 -80 -831 -855&#xA;-962 -1049 -37 -55 -31 -136 14 -184 l21 -22 -57 -87 c-108 -164 -189 -348&#xA;-248 -562 l-25 -91 39 0 c38 0 40 2 50 43 27 105 87 272 137 377 53 113 170&#xA;298 236 375 l34 39 64 -23 c160 -58 458 -217 687 -367 l113 -74 -40 -46 c-22&#xA;-26 -60 -81 -84 -123 -41 -72 -51 -92 -83 -169 l-14 -32 43 0 43 0 33 80 c19&#xA;44 36 82 40 84 3 2 54 -16 113 -39 176 -72 299 -99 351 -79 29 11 240 265 444&#xA;534 213 280 255 335 262 337 8 3 116 -280 216 -567 42 -118 80 -219 86 -225&#xA;12 -12 298 -14 379 -2 l56 8 20 -63 c20 -62 21 -63 58 -66 34 -3 38 -1 31 15&#xA;-4 10 -15 42 -25 70 l-19 53 22 4 c205 41 287 62 472 123 143 46 286 103 386&#xA;153 l55 28 53 -106 c29 -59 88 -160 130 -224 l76 -118 48 0 c27 0 47 3 45 8&#xA;-1 4 -42 66 -89 137 -84 126 -189 311 -189 332 0 6 35 34 78 62 42 28 93 64&#xA;112 80 l34 29 -48 179 c-121 444 -299 909 -421 1102 -20 32 -23 54 -30 201 -4&#xA;91 -11 201 -15 245 -4 44 -7 81 -6 82 1 1 44 -11 95 -28 52 -16 140 -35 197&#xA;-41 247 -28 477 69 599 252 81 121 114 243 114 415 1 273 -119 712 -355 1305&#xA;-148 369 -249 525 -428 657 -63 47 -227 133 -255 133 -9 1 24 16 73 35 247 97&#xA;525 299 658 479 228 308 408 995 412 1571 1 182 0 192 -23 235 -13 25 -32 54&#xA;-42 66 -19 20 -19 22 2 110 51 214 -4 447 -151 633 -22 28 -40 52 -40 53 0 2&#xA;61 2 135 0 152 -3 175 3 175 48 0 95 -253 225 -405 208 l-45 -5 -5 36 c-25&#xA;157 -73 268 -146 336 -60 56 -96 72 -118 51 -13 -14 -12 -24 12 -93 15 -43 30&#xA;-103 34 -133 l6 -55 -72 68 c-421 396 -1228 678 -1970 688 l-114 1 -61 40&#xA;c-96 62 -311 163 -431 202 -195 64 -342 86 -500 75z m330 -113 c396 -99 742&#xA;-308 960 -581 l48 -60 111 -21 c340 -67 698 -195 1034 -370 425 -222 612 -388&#xA;656 -584 18 -77 21 -216 6 -225 -5 -3 -76 24 -157 61 -589 267 -1147 470&#xA;-1583 578 -286 70 -494 108 -784 142 l-59 7 72 18 c123 31 137 52 16 24 -126&#xA;-30 -271 -46 -465 -52 -292 -9 -479 14 -744 93 -207 61 -321 138 -374 252 -83&#xA;181 95 371 403 429 58 11 118 14 220 10 153 -6 237 -25 397 -91 46 -19 85 -32&#xA;88 -29 13 13 -103 98 -203 149 -128 64 -188 109 -207 155 -13 31 -12 33 18 59&#xA;28 23 84 45 167 64 11 3 79 3 150 1 95 -3 157 -10 230 -29z m975 -301 c772&#xA;-78 1438 -347 1788 -720 l78 -84 11 82 c11 76 10 117 -2 190 -2 15 -2 27 0 27&#xA;3 0 21 -32 41 -71 43 -86 74 -202 74 -277 0 -48 2 -53 18 -47 48 22 134 29&#xA;195 16 69 -14 168 -57 207 -89 l25 -21 -76 -1 c-66 0 -215 -21 -258 -36 -9 -3&#xA;0 -19 31 -52 164 -175 235 -399 197 -617 -13 -77 -22 -93 -42 -77 -8 7 -99 55&#xA;-203 107 l-188 94 -1 138 c-1 153 -13 202 -77 312 -82 140 -304 310 -603 463&#xA;-368 188 -692 298 -1067 364 l-96 17 -83 104 c-45 57 -104 124 -132 148 l-49&#xA;45 33 0 c19 0 99 -7 179 -15z m-1610 -807 c104 -18 164 -22 355 -22 128 0 264&#xA;5 307 12 69 10 98 9 265 -13 469 -62 813 -141 1258 -290 455 -151 1023 -391&#xA;1507 -637 216 -110 253 -135 281 -196 66 -143 -28 -858 -168 -1276 -83 -247&#xA;-168 -405 -290 -534 -165 -175 -395 -322 -623 -399 -242 -81 -453 -84 -600 -9&#xA;-128 66 -179 188 -169 408 6 135 25 211 142 568 238 725 237 1019 -3 1140 -94&#xA;47 -196 64 -592 100 -466 42 -904 111 -1319 206 -503 116 -588 134 -618 134&#xA;-65 0 -43 -34 42 -65 28 -10 51 -19 53 -21 2 -1 -20 -191 -48 -423 l-51 -422&#xA;-59 -147 c-71 -179 -124 -352 -142 -461 -7 -44 -16 -81 -19 -81 -24 0 -30 287&#xA;-10 465 24 205 102 620 162 857 16 64 29 127 29 138 0 12 -20 45 -45 72 -56&#xA;62 -75 121 -82 255 -7 125 7 221 53 362 30 90 119 285 145 317 7 8 23 7 62 -3&#xA;28 -7 108 -23 177 -35z m12 -937 c484 -136 1132 -246 1708 -291 426 -33 561&#xA;-76 618 -198 25 -52 27 -67 26 -172 -1 -185 -50 -394 -189 -815 -31 -93 -72&#xA;-231 -92 -305 -31 -119 -36 -149 -36 -260 0 -201 46 -332 144 -410 27 -21 54&#xA;-40 61 -43 20 -7 7 -15 -43 -28 -43 -12 -51 -10 -136 24 -161 65 -246 82 -428&#xA;81 -140 -1 -172 -4 -258 -27 -156 -42 -309 -125 -456 -247 l-63 -53 -62 6&#xA;c-95 9 -260 46 -375 83 -430 141 -720 413 -823 771 -19 66 -23 102 -23 238 0&#xA;221 33 368 141 633 31 75 60 162 65 192 29 178 109 796 109 840 0 13 -5 14&#xA;112 -19z m-2662 -811 c511 -107 854 -451 966 -970 22 -103 30 -338 15 -453&#xA;-37 -273 -119 -475 -255 -623 -171 -187 -451 -297 -636 -250 -116 30 -166 75&#xA;-164 149 2 87 62 160 210 257 228 150 352 308 404 514 23 90 27 234 9 318 -19&#xA;89 -94 216 -115 195 -3 -3 5 -34 19 -69 36 -89 51 -185 44 -292 -7 -112 -26&#xA;-189 -74 -286 -50 -103 -178 -230 -335 -333 -118 -78 -190 -146 -214 -203 -24&#xA;-56 -211 -129 -406 -158 -460 -69 -908 96 -1112 409 -109 166 -149 306 -150&#xA;515 -1 333 127 618 392 871 232 222 544 369 903 424 134 20 363 13 499 -15z&#xA;m1086 -765 c88 -52 171 -168 221 -310 25 -74 27 -91 28 -235 0 -153 -1 -156&#xA;-38 -265 -90 -261 -215 -393 -399 -418 l-37 -6 29 47 c71 115 138 336 161 525&#xA;23 196 0 447 -60 637 -12 36 -21 68 -21 73 0 9 62 -16 116 -48z m389 -244&#xA;c206 -60 475 -143 614 -189 l143 -47 34 -66 c45 -91 140 -215 225 -292 132&#xA;-123 355 -254 525 -308 l71 -22 -24 -61 c-42 -103 -142 -381 -210 -581 l-64&#xA;-190 5 300 c4 297 2 325 -14 325 -15 0 -30 -63 -40 -169 -5 -57 -11 -106 -13&#xA;-108 -2 -1 -50 15 -108 36 -226 85 -786 249 -1214 356 -126 31 -236 59 -243&#xA;61 -9 3 6 26 42 65 142 157 234 460 206 682 -9 72 -33 171 -57 233 -3 9 0 12&#xA;8 9 8 -2 59 -17 114 -34z m3087 -704 c381 -99 678 -446 752 -877 19 -108 21&#xA;-319 5 -388 -17 -72 -90 -220 -142 -288 -116 -152 -324 -304 -477 -348 -133&#xA;-37 -296 -26 -432 29 -130 53 -274 176 -343 292 -30 51 -30 51 -90 55 -106 9&#xA;-170 57 -249 186 -65 107 -73 36 -9 -75 54 -94 136 -154 230 -169 36 -6 46&#xA;-13 77 -60 l36 -54 -83 0 c-246 0 -451 130 -567 361 -148 292 -45 694 259&#xA;1012 124 130 268 231 417 294 158 68 422 80 616 30z m519 -23 c4 -2 -10 -35&#xA;-29 -73 l-36 -69 -66 51 -65 51 50 27 c40 22 59 26 95 22 25 -3 48 -7 51 -9z&#xA;m404 1 c149 -39 254 -98 371 -208 139 -131 232 -299 384 -697 201 -524 290&#xA;-872 290 -1136 0 -391 -266 -633 -643 -585 -211 27 -370 104 -615 295 -96 75&#xA;-101 81 -80 90 73 28 170 81 220 121 158 124 293 375 314 584 4 34 9 61 11 61&#xA;8 0 248 -143 304 -181 38 -25 68 -39 82 -36 39 6 -91 120 -248 217 -75 47&#xA;-140 92 -142 100 -40 121 -118 217 -248 306 l-82 55 -11 103 c-30 258 -139&#xA;510 -295 682 l-47 52 41 86 40 86 67 1 c37 0 85 4 107 8 64 14 116 12 180 -4z&#xA;m-2255 -234 c64 -14 75 -19 73 -36 -20 -188 -27 -224 -63 -305 -86 -191 -115&#xA;-324 -107 -484 10 -215 82 -366 246 -518 80 -74 181 -129 281 -152 81 -20 202&#xA;-20 255 -1 39 15 40 14 65 -14 39 -45 128 -110 200 -146 111 -56 193 -77 314&#xA;-81 l108 -4 65 -70 c124 -133 241 -206 350 -217 55 -6 64 -11 183 -108 124&#xA;-102 253 -193 304 -216 14 -7 26 -15 26 -19 0 -22 -273 -99 -455 -129 -248&#xA;-40 -326 -46 -635 -46 -388 0 -586 24 -930 110 -241 61 -405 125 -474 186 -44&#xA;38 -55 78 -49 163 7 84 -7 172 -68 426 -55 232 -94 447 -110 619 l-12 116 83&#xA;255 c46 140 114 341 153 445 38 105 74 202 79 218 11 31 15 31 118 8z m208&#xA;-39 c-6 -15 -93 -131 -98 -131 -6 -1 -3 49 6 107 5 31 7 32 50 32 25 0 44 -4&#xA;42 -8z m2037 -877 c83 -59 150 -135 169 -192 22 -65 21 -192 -4 -289 -55 -217&#xA;-198 -408 -372 -499 -202 -106 -322 -82 -518 103 -65 61 -72 71 -55 77 122 41&#xA;271 129 382 227 95 83 189 203 239 303 45 92 84 222 84 282 0 18 3 33 6 33 4&#xA;0 35 -20 69 -45z m-2350 -1469 c33 -15 71 -32 84 -37 16 -7 21 -14 16 -27 -4&#xA;-9 -16 -57 -28 -107 -16 -71 -21 -124 -21 -256 l-1 -167 -30 15 c-16 8 -59 33&#xA;-94 56 l-63 42 5 150 c6 142 23 259 49 333 7 18 15 31 18 29 3 -1 32 -15 65&#xA;-31z m401 -141 c7 -2 5 -27 -8 -77 -30 -116 -43 -372 -23 -455 4 -18 1 -23&#xA;-15 -23 -28 0 -231 66 -253 83 -28 20 -26 273 3 422 11 61 23 115 25 121 2 8&#xA;45 -1 132 -28 70 -22 133 -41 139 -43z m2017 3 c4 -40 10 -147 13 -238 l7&#xA;-165 -44 -41 c-48 -43 -142 -92 -225 -117 l-51 -15 -12 257 c-7 141 -15 264&#xA;-17 273 -4 13 5 19 38 27 24 6 95 28 158 50 63 21 118 39 121 40 3 0 9 -32 12&#xA;-71z m-1788 -48 c72 -13 133 -26 137 -29 3 -3 0 -37 -8 -76 -21 -107 -27 -269&#xA;-15 -374 6 -52 9 -96 8 -97 -7 -5 -334 49 -342 57 -18 18 -12 332 9 447 l19&#xA;104 31 -5 c17 -2 90 -14 161 -27z m1436 -162 c4 -91 10 -213 14 -270 l7 -105&#xA;-84 -17 c-96 -19 -290 -47 -296 -42 -8 8 -21 260 -22 404 l0 152 33 1 c17 0&#xA;95 11 172 23 77 13 147 23 155 22 12 -1 16 -30 21 -168z m-1023 111 l173 -13&#xA;-8 -61 c-5 -33 -8 -156 -8 -274 l0 -214 -125 7 c-126 7 -270 23 -277 30 -10 9&#xA;-23 139 -23 226 0 87 13 241 26 299 4 20 9 22 37 18 18 -3 110 -11 205 -18z&#xA;m609 -206 c0 -115 5 -237 10 -273 6 -36 9 -67 6 -70 -3 -3 -101 -6 -219 -8&#xA;l-214 -3 -2 108 c-3 123 -1 218 8 350 l6 93 161 3 c89 1 180 4 203 5 l41 2 0&#xA;-207z m-1816 -89 c20 -24 115 -87 185 -122 272 -137 892 -234 1394 -219 166 5&#xA;467 36 521 52 19 6 38 -40 99 -245 78 -258 280 -1014 280 -1044 0 -8 -215 -76&#xA;-337 -105 -215 -52 -365 -74 -522 -75 l-143 -1 -63 180 c-83 238 -203 561&#xA;-226 607 -17 33 -36 46 -181 117 -189 93 -439 231 -517 284 -60 41 -75 41 -44&#xA;-1 49 -67 309 -237 538 -352 53 -26 92 -50 87 -53 -4 -4 -121 -34 -258 -67&#xA;-137 -34 -253 -65 -258 -70 -23 -23 34 -19 181 10 87 17 184 38 217 46 32 8&#xA;60 13 62 11 7 -6 -459 -593 -551 -694 l-57 -63 -76 70 c-108 97 -262 215 -394&#xA;302 -155 102 -414 253 -506 296 -105 48 -278 109 -335 117 -26 4 -47 11 -47&#xA;15 0 19 344 417 609 704 143 155 307 315 322 316 4 0 13 -7 20 -16z m2683&#xA;-141 c58 -117 151 -350 221 -553 48 -140 148 -473 169 -562 6 -25 0 -30 -82&#xA;-81 -48 -30 -111 -66 -139 -80 l-50 -26 -13 75 c-31 193 -222 888 -299 1089&#xA;-17 44 -31 82 -31 85 0 3 19 14 42 25 23 11 62 41 87 66 25 26 47 47 48 48 2&#xA;1 22 -38 47 -86z m-218 -189 c83 -231 304 -1038 304 -1113 0 -19 -27 -34 -166&#xA;-91 l-91 -37 -22 106 c-39 187 -208 807 -290 1061 -22 68 -39 125 -38 125 1 0&#xA;45 11 97 24 53 13 109 29 125 36 36 15 34 18 81 -111z m-3399 -760 l23 -6 -26&#xA;-21 c-26 -20 -27 -20 -40 -2 -25 34 -11 43 43 29z m1133 -625 c153 -123 154&#xA;-123 115 -115 -48 10 -315 109 -315 116 0 11 59 100 67 100 5 0 64 -46 133&#xA;-101z"/>
    <path d="M8520 7098 c-80 -30 -202 -155 -257 -263 -43 -84 -98 -233 -138 -376&#xA;-71 -253 -73 -515 -5 -648 85 -168 275 -216 456 -116 183 102 326 337 396 653&#xA;29 128 31 374 4 471 -53 195 -170 301 -331 300 -46 0 -89 -7 -125 -21z m201&#xA;-43 c60 -20 126 -87 160 -160 139 -296 -6 -913 -262 -1115 -67 -53 -92 -65&#xA;-160 -79 -160 -33 -286 74 -320 273 -14 88 -7 282 16 386 48 224 160 479 255&#xA;583 103 112 204 148 311 112z"/>
    <path d="M8645 6760 c-67 -14 -111 -62 -175 -190 -76 -150 -110 -280 -110&#xA;-416 0 -124 35 -193 107 -213 110 -31 207 86 291 350 59 185 61 337 6 422 -13&#xA;20 -25 37 -27 37 -1 0 -16 4 -32 8 -17 5 -44 6 -60 2z m58 -70 c74 -59 61&#xA;-239 -34 -472 -55 -133 -88 -188 -126 -211 -70 -41 -113 8 -121 137 -14 229&#xA;129 559 244 565 6 1 23 -8 37 -19z"/>
    <path d="M5141 7484 c-30 -25 -41 -65 -23 -89 7 -10 106 -75 170 -111 35 -20&#xA;42 -34 16 -34 -25 0 -129 -111 -158 -168 -71 -141 -75 -325 -9 -455 33 -66 94&#xA;-130 165 -174 32 -20 58 -37 58 -38 0 -1 -7 -23 -16 -49 -12 -33 -15 -68 -12&#xA;-114 16 -226 257 -366 490 -287 56 20 129 82 151 127 19 42 32 118 19 118 -5&#xA;0 -14 -19 -21 -42 -18 -61 -55 -104 -114 -135 -46 -24 -64 -27 -147 -28 -84 0&#xA;-101 3 -152 28 -109 54 -179 170 -163 273 9 63 60 133 125 172 79 47 111 55&#xA;240 57 115 3 135 10 111 39 -8 9 -4 32 14 87 33 94 55 191 55 234 0 19 -10 58&#xA;-22 87 -20 47 -23 70 -23 200 0 80 -3 144 -7 142 -11 -7 -38 -103 -38 -136 0&#xA;-15 -3 -28 -6 -28 -6 0 -107 61 -249 151 -55 34 -154 93 -219 131 -139 79&#xA;-182 87 -235 42z m312 -285 c34 -18 80 -44 102 -59 22 -15 69 -42 104 -60 35&#xA;-17 85 -46 111 -64 26 -18 61 -38 78 -45 56 -23 56 -92 2 -265 l-32 -102 -82&#xA;-2 c-126 -2 -253 -49 -315 -116 l-24 -25 -46 24 c-65 32 -164 140 -185 201&#xA;-23 65 -31 196 -17 263 24 112 95 216 179 260 49 26 52 26 125 -10z"/>
    <path d="M5502 6960 c-110 -68 -85 -310 32 -310 68 0 126 86 126 184 0 35 -30&#xA;105 -52 123 -28 24 -71 25 -106 3z"/>
    <path d="M6810 7250 c-149 -38 -479 -104 -663 -133 l-88 -14 -6 28 c-6 32 -27&#xA;54 -43 44 -5 -3 -10 -36 -10 -73 0 -77 26 -144 62 -163 12 -6 25 -13 27 -15 2&#xA;-2 -7 -23 -19 -49 -86 -178 -57 -370 78 -516 66 -72 126 -112 205 -138 138&#xA;-45 247 -36 385 30 142 69 248 196 281 339 17 74 13 191 -9 263 -21 68 -89&#xA;180 -121 200 -28 17 -24 24 18 32 21 4 73 18 116 31 62 20 80 30 87 50 16 41&#xA;11 69 -15 94 -41 38 -106 36 -285 -10z m44 -227 c82 -80 126 -187 126 -305 0&#xA;-192 -96 -344 -267 -426 -75 -36 -82 -37 -188 -37 -90 0 -121 4 -170 23 -245&#xA;93 -356 382 -233 604 19 33 30 39 107 63 147 46 273 75 412 94 179 25 169 26&#xA;213 -16z"/>
    <path d="M6241 6835 c-35 -30 -52 -76 -52 -142 -1 -95 39 -153 106 -153 45 0&#xA;69 19 99 77 20 39 21 132 2 177 -28 68 -100 87 -155 41z"/>
    <path d="M6230 5855 c-183 -33 -448 -158 -530 -250 -30 -33 -37 -36 127 47&#xA;148 74 318 132 437 149 157 22 319 -13 460 -101 40 -24 45 -18 18 21 -46 69&#xA;-125 111 -256 134 -105 18 -155 18 -256 0z"/>
    <path d="M1605 7751 c-6 -11 22 -86 66 -173 91 -179 279 -437 279 -380 0 8&#xA;-281 506 -305 540 -17 23 -30 28 -40 13z"/>
    <path d="M1000 7696 c0 -31 105 -152 320 -368 124 -126 231 -228 238 -228 6 0&#xA;12 6 12 13 0 28 -530 597 -556 597 -8 0 -14 -6 -14 -14z"/>
    <path d="M610 7187 c0 -8 48 -37 108 -64 59 -28 184 -87 277 -132 164 -78 205&#xA;-92 205 -71 0 15 -79 62 -250 149 -235 119 -340 155 -340 118z"/>
    <path d="M575 6739 c-4 -6 -5 -12 -2 -15 26 -26 407 -59 421 -35 11 17 -28 29&#xA;-152 46 -131 18 -258 20 -267 4z"/>
    <path d="M1375 4275 c-246 -158 -515 -356 -515 -380 0 -29 23 -26 78 11 172&#xA;114 550 397 567 424 18 30 -28 10 -130 -55z"/>
    <path d="M1883 4267 c-77 -82 -342 -426 -428 -554 -45 -68 -54 -111 -22 -101&#xA;19 6 451 588 486 655 18 35 -3 35 -36 0z"/>
    <path d="M2225 4250 c-64 -99 -165 -359 -165 -424 0 -89 33 -28 137 253 69&#xA;189 79 250 28 171z"/>
  </g>
  <title>Boxer Throwing Jab</title>
  <desc>Boxer Throwing Jab</desc>
</svg>