<?xml version="1.0" standalone="no"?>
<!DOCTYPE svg PUBLIC "-//W3C//DTD SVG 20010904//EN"
 "http://www.w3.org/TR/2001/REC-SVG-20010904/DTD/svg10.dtd">
<svg version="1.0" xmlns="http://www.w3.org/2000/svg"
 width="1024.000000pt" height="1024.000000pt" viewBox="0 0 1024.000000 1024.000000"
 preserveAspectRatio="xMidYMid meet">
<metadata>
Created by potrace 1.16, written by Peter Selinger 2001-2019
</metadata>
<g transform="translate(0.000000,1024.000000) scale(0.100000,-0.100000)"
fill="#000000" stroke="none">
<path d="M4885 9679 c-279 -21 -534 -93 -795 -225 -508 -255 -1003 -890 -1105
-1419 -20 -104 -20 -273 0 -348 38 -145 135 -271 253 -329 57 -28 80 -34 154
-36 l87 -4 11 -33 c16 -47 64 -111 104 -137 26 -17 36 -33 44 -68 6 -25 9 -46
8 -47 -1 -1 -56 -18 -121 -37 -401 -115 -713 -303 -1030 -621 -160 -160 -242
-263 -341 -429 -51 -85 -68 -162 -45 -204 9 -17 8 -29 -7 -59 -53 -105 -92
-291 -92 -432 0 -157 39 -277 121 -381 l40 -50 -41 -58 c-55 -79 -62 -132 -26
-206 34 -68 91 -109 186 -130 143 -33 314 -17 479 43 l84 31 84 -27 c76 -23
87 -30 110 -66 41 -65 213 -378 213 -388 0 -4 -34 -54 -75 -109 l-76 -100 -32
24 c-82 62 -255 126 -407 151 -143 24 -328 16 -460 -20 -197 -54 -372 -158
-530 -315 -283 -281 -440 -676 -440 -1103 0 -408 124 -767 368 -1074 210 -263
500 -437 815 -488 51 -8 115 -15 142 -16 47 -1 42 -3 -65 -31 -372 -97 -637
-183 -983 -320 -302 -119 -618 -271 -817 -392 -129 -79 -280 -182 -308 -210
-15 -15 -13 -16 26 -16 33 0 58 11 126 55 262 169 604 341 946 478 393 157
605 225 1140 367 939 249 1034 277 1990 578 998 316 1510 472 1745 535 l131
34 72 -47 c87 -57 194 -110 282 -140 90 -30 226 -60 280 -60 25 0 40 -4 35 -9
-6 -4 -120 -66 -255 -136 -613 -319 -709 -371 -735 -396 -18 -18 -18 -19 -1
-19 35 0 158 57 581 268 650 324 816 419 1135 647 161 115 431 296 590 397
523 330 1302 733 1680 869 74 26 75 27 78 64 3 37 3 37 -25 31 -121 -30 -632
-264 -973 -446 -245 -130 -637 -354 -742 -424 l-28 -18 30 71 c154 376 158
883 10 1306 -107 303 -295 563 -539 745 -176 132 -346 207 -566 251 -96 19
-132 21 -280 16 -125 -4 -192 -11 -252 -26 l-82 -20 -51 34 c-55 37 -106 55
-157 55 -30 0 -33 4 -43 43 -23 94 -65 234 -101 334 l-37 105 41 61 c40 59 44
62 102 73 46 9 61 10 64 1 2 -7 29 -38 59 -70 112 -116 255 -154 367 -96 60
30 113 96 121 150 5 30 11 39 26 39 10 0 33 7 50 16 17 9 56 20 87 24 31 5 63
11 73 15 14 6 16 1 11 -37 -12 -90 -62 -155 -183 -237 -101 -67 -126 -106
-116 -176 14 -87 75 -146 160 -153 84 -7 168 36 265 136 81 83 128 154 168
252 97 242 51 516 -104 623 -26 17 -75 60 -108 94 -70 72 -129 102 -201 103
-27 0 -88 10 -134 21 -94 24 -182 22 -293 -7 -143 -36 -321 -145 -447 -272
l-85 -86 -90 -23 c-49 -13 -99 -23 -110 -23 -12 0 -79 -13 -150 -30 l-129 -29
-48 35 c-99 70 -200 91 -354 71 l-60 -8 -87 100 c-48 55 -87 102 -87 104 0 3
19 0 43 -6 60 -15 444 -14 542 2 299 49 556 194 700 396 203 284 206 633 9
942 l-33 51 20 53 c27 70 35 164 19 230 -18 79 -76 195 -124 247 -22 25 -34
43 -26 40 8 -3 22 -9 31 -13 28 -11 31 24 4 51 -13 13 -27 39 -30 57 -6 30 -3
34 28 49 119 57 181 186 156 326 -48 275 -214 538 -464 739 -145 116 -393 220
-639 268 -167 33 -398 47 -561 34z m441 -92 c84 -24 154 -67 230 -142 79 -78
124 -159 132 -234 5 -54 -8 -86 -37 -94 -28 -7 -126 42 -194 97 -182 148 -377
244 -574 282 -93 18 -327 25 -438 12 l-60 -6 60 19 c74 25 218 57 288 65 28 3
81 10 117 14 98 13 415 4 476 -13z m272 -53 c79 -23 235 -88 309 -130 176 -98
359 -288 466 -484 31 -57 92 -210 84 -210 -2 0 -35 11 -73 24 -124 44 -211 57
-399 63 -633 19 -1353 -229 -2105 -725 -80 -53 -235 -161 -345 -240 -228 -164
-295 -202 -357 -202 -55 0 -105 30 -124 75 -36 87 -17 300 42 484 20 63 68
175 106 250 73 145 203 340 243 367 47 31 171 76 295 107 119 30 135 31 325
31 177 1 217 -2 346 -27 257 -48 379 -28 379 63 0 41 -62 108 -137 148 -138
73 -390 82 -615 23 -135 -35 -273 -87 -367 -136 -35 -19 -66 -33 -68 -31 -8 7
179 175 276 249 233 176 439 234 796 224 154 -4 194 -9 275 -31 140 -39 275
-110 426 -223 140 -106 186 -132 244 -140 71 -10 130 45 130 119 -1 109 -80
259 -178 333 -51 40 -50 41 26 19z m-1048 -423 c72 -24 158 -78 179 -112 12
-20 11 -24 -4 -35 -36 -27 -118 -27 -272 -1 -205 36 -220 37 -383 38 -127 0
-291 -17 -357 -37 -47 -14 43 30 132 65 201 80 360 112 525 107 84 -3 132 -9
180 -25z m1675 -405 c76 -16 158 -43 218 -72 36 -17 37 -19 37 -71 0 -83 -41
-148 -115 -186 l-30 -15 -31 59 -31 59 61 -3 c69 -2 80 12 35 45 -44 33 -177
51 -379 52 -268 1 -418 -29 -848 -169 -275 -89 -473 -181 -802 -373 -272 -159
-781 -509 -888 -613 -32 -30 -37 -31 -88 -26 -71 7 -144 48 -205 115 -27 29
-49 57 -49 61 0 4 16 5 36 3 21 -3 61 1 90 7 58 13 113 48 444 282 726 511
1342 777 1984 855 140 16 462 11 561 -10z m-168 -204 l92 -2 45 -46 c43 -46
88 -123 101 -177 7 -27 7 -27 -46 -27 -90 1 -200 26 -279 64 -82 40 -95 43
-103 22 -11 -27 19 -62 81 -93 l62 -32 -47 -23 c-56 -27 -173 -139 -193 -185
l-14 -31 -60 54 c-69 63 -143 101 -217 112 l-52 7 40 27 c53 35 93 87 93 121
0 36 -13 34 -63 -11 -95 -86 -144 -105 -356 -136 -131 -19 -146 -23 -146 -41
0 -27 66 -49 124 -41 l44 6 -66 -61 c-50 -45 -76 -79 -104 -137 -37 -75 -38
-78 -38 -191 0 -109 2 -120 32 -183 59 -126 153 -197 311 -235 141 -33 298 12
402 117 132 132 170 304 108 482 -19 56 -19 63 -5 93 8 17 41 60 72 93 179
193 420 163 532 -68 62 -129 65 -228 11 -337 -26 -51 -99 -123 -126 -123 -10
0 -28 13 -40 30 -30 40 -92 70 -157 77 -72 8 -181 -26 -226 -69 -44 -42 -25
-47 66 -19 166 51 295 -2 295 -121 0 -114 -91 -179 -282 -203 -83 -11 -48 -45
45 -45 174 0 307 109 307 251 0 32 5 41 29 53 16 9 43 27 60 41 l31 26 39 -61
c132 -203 155 -440 66 -675 -68 -182 -237 -352 -434 -435 -207 -89 -435 -120
-716 -100 -82 6 -198 21 -258 33 l-107 23 -51 69 c-124 171 -255 449 -323 688
-65 225 -115 473 -146 727 -30 238 -45 205 128 293 229 117 341 164 562 238
332 110 608 169 760 163 14 0 66 -2 117 -2z m-492 -454 c53 -27 125 -98 163
-159 60 -98 66 -242 15 -351 -116 -248 -459 -302 -642 -102 -65 71 -91 142
-91 250 0 168 91 304 246 370 52 22 71 24 159 21 84 -3 108 -7 150 -29z
m-1155 -92 c0 -98 58 -455 115 -706 66 -295 182 -576 329 -798 36 -53 63 -99
60 -101 -6 -7 -127 41 -166 65 -51 32 -167 202 -239 348 -77 158 -172 445
-203 616 -13 74 -35 218 -47 319 -19 156 -20 185 -8 192 8 4 43 28 79 53 36
25 68 45 73 45 4 1 7 -14 7 -33z m-220 -146 c0 -36 42 -367 57 -450 l6 -35
-58 53 c-32 29 -79 64 -104 77 -128 64 -280 45 -368 -47 -34 -36 -83 -131 -83
-163 -1 -43 -16 -48 -45 -13 -32 38 -50 78 -57 128 -6 38 -4 40 159 164 74 56
475 325 486 326 4 0 7 -18 7 -40z m-135 -419 c31 -15 82 -57 136 -111 l85 -86
47 -135 c26 -74 55 -155 64 -181 17 -45 17 -47 -2 -68 -10 -11 -48 -35 -84
-53 -61 -30 -73 -32 -166 -32 -79 1 -112 6 -155 23 -199 79 -322 317 -265 509
19 63 77 129 130 149 57 20 149 14 210 -15z m-361 -471 c48 -109 175 -215 301
-252 l72 -21 142 -278 142 -278 -43 -11 c-84 -22 -114 -33 -181 -68 -88 -45
-202 -152 -247 -230 -19 -34 -38 -62 -42 -62 -12 0 -114 154 -165 250 -28 52
-75 155 -104 228 -53 134 -79 166 -79 97 0 -94 131 -383 253 -558 74 -106 98
-119 134 -74 l18 24 18 -23 c16 -22 16 -23 -3 -29 -10 -3 -57 -46 -102 -94
-79 -84 -87 -90 -156 -110 -112 -34 -269 -51 -472 -51 -241 0 -372 22 -575 97
-212 79 -426 227 -441 308 -7 39 10 82 72 177 168 261 424 515 696 692 180
117 439 234 623 282 49 13 97 23 106 24 8 0 23 -17 33 -40z m788 -237 c23 -43
45 -82 47 -88 6 -15 -67 55 -102 99 -29 37 -30 39 -12 52 10 8 20 14 21 14 1
0 22 -35 46 -77z m-88 -43 c21 -28 78 -88 127 -133 l88 -83 -134 -77 c-73 -42
-135 -77 -139 -77 -3 0 -49 86 -101 190 l-95 190 47 0 c27 1 71 9 98 19 28 10
55 19 60 20 6 0 28 -22 49 -49z m351 -300 c50 -25 134 -54 225 -77 l145 -37
36 -46 37 -47 -101 -79 c-55 -43 -146 -116 -203 -161 l-103 -81 -68 61 c-37
34 -86 78 -109 98 l-41 36 46 34 c45 34 67 79 38 79 -7 0 -50 -22 -95 -49
l-81 -49 -47 80 c-25 43 -47 86 -48 95 -1 11 45 44 134 99 74 45 139 83 145
83 5 1 46 -17 90 -39z m2427 -39 c117 -45 176 -151 165 -302 -8 -119 -53 -205
-124 -235 -29 -12 -83 -19 -83 -11 0 2 10 23 22 48 19 37 23 60 23 144 0 153
-46 257 -133 297 -37 17 -82 24 -82 12 0 -4 24 -30 53 -58 72 -69 100 -140
101 -256 1 -99 -23 -157 -77 -190 -41 -25 -64 -25 -105 0 -25 15 -32 25 -27
38 17 41 17 140 1 190 -22 65 -88 142 -123 142 -21 0 -24 -4 -19 -23 5 -23 2
-24 -132 -47 -75 -13 -155 -25 -177 -27 l-40 -4 81 79 c113 111 279 197 429
222 75 13 183 4 247 -19z m275 -100 c77 -99 72 -259 -11 -349 -26 -30 -102
-70 -93 -50 52 118 58 141 58 217 0 109 -31 214 -75 250 -9 8 -16 18 -16 23 0
20 106 -50 137 -91z m199 -221 c21 -43 28 -75 32 -146 9 -179 -52 -342 -180
-479 -144 -155 -264 -178 -323 -64 -26 49 -11 72 91 145 141 100 196 180 200
291 2 43 9 72 22 90 49 70 65 118 70 202 l5 84 28 -34 c16 -19 41 -59 55 -89z
m-2372 54 c21 -25 36 -46 35 -47 -2 -1 -39 -19 -81 -40 -42 -21 -117 -67 -165
-102 -83 -59 -93 -63 -151 -67 -34 -1 -61 1 -59 5 4 13 361 297 372 297 6 0
28 -21 49 -46z m-816 -131 c58 -117 61 -126 45 -139 -17 -12 -17 -14 0 -31 16
-16 38 -18 222 -18 157 0 205 -3 205 -12 0 -23 19 -14 113 54 351 255 658 270
804 40 46 -74 65 -198 42 -282 -11 -38 -57 -114 -70 -115 -3 0 -9 33 -13 73
-11 118 -83 247 -156 277 -44 18 -49 5 -13 -33 110 -114 151 -292 92 -396 -17
-30 -80 -81 -100 -81 -2 0 -4 53 -4 118 0 114 -1 119 -35 187 -36 72 -84 119
-132 130 -37 9 -37 -11 -1 -45 41 -39 82 -109 103 -179 40 -128 -12 -263 -110
-285 l-25 -5 4 80 c4 98 -14 154 -73 217 -40 44 -93 78 -103 68 -3 -3 12 -25
33 -48 81 -88 114 -207 77 -278 -24 -47 -63 -66 -100 -48 -25 12 -29 20 -33
73 -9 102 -78 196 -154 210 -49 10 -117 -23 -145 -68 -12 -20 -30 -38 -39 -41
-97 -28 -376 -38 -477 -17 -160 34 -282 128 -400 311 -38 58 -75 110 -82 115
-12 9 -11 16 8 40 91 122 216 205 359 240 95 23 88 28 158 -112z m2382 65 c22
-48 26 -115 9 -151 -10 -21 -26 -27 -156 -51 -79 -15 -146 -26 -148 -24 -1 2
2 26 7 53 9 42 7 59 -10 110 -11 33 -20 60 -19 61 7 3 257 42 275 43 18 1 27
-8 42 -41z m-2120 -184 c12 -12 4 -14 -55 -14 l-70 0 -48 91 c-26 50 -45 95
-42 100 5 7 96 -68 215 -177z m1728 160 c65 -45 69 -158 9 -222 -21 -23 -87
-45 -164 -56 l-41 -6 10 37 c14 50 5 130 -20 182 l-20 41 36 9 c128 33 161 36
190 15z m-275 -74 c14 -16 31 -46 37 -65 12 -37 7 -108 -9 -134 -5 -8 -46 -22
-92 -32 -81 -18 -158 -25 -147 -14 10 11 -23 139 -46 182 l-24 43 38 10 c171
46 212 48 243 10z m754 -189 c33 -17 79 -13 124 9 33 17 40 18 45 6 9 -25 -27
-86 -67 -113 -25 -17 -57 -27 -98 -30 -54 -5 -68 -2 -123 25 -56 28 -149 105
-137 116 2 2 47 10 99 18 87 13 97 13 115 -3 11 -9 30 -22 42 -28z m-4572
-160 c126 -72 264 -129 410 -168 l140 -37 270 -1 c247 0 280 2 382 24 109 23
112 23 165 6 115 -38 606 -294 615 -321 2 -5 -21 -18 -49 -28 -29 -10 -80 -31
-112 -47 l-60 -28 -45 33 c-57 42 -127 77 -211 106 -36 13 -69 28 -75 35 -18
21 -94 45 -319 100 -236 58 -319 68 -330 38 -4 -9 -3 -20 1 -24 8 -7 105 -31
388 -94 203 -46 196 -42 136 -77 -66 -37 -181 -145 -225 -212 -50 -75 -102
-182 -119 -246 -9 -30 -23 -81 -32 -113 l-16 -57 -37 19 c-57 28 -345 142
-549 215 -280 102 -376 150 -466 235 -47 44 -91 112 -112 171 -42 119 -38 319
11 487 39 135 35 132 105 75 33 -27 93 -68 134 -91z m4039 84 c-4 -8 -10 -12
-15 -9 -11 6 -2 24 11 24 5 0 7 -7 4 -15z m10 -273 c49 -147 90 -271 92 -277
2 -5 -11 -19 -29 -30 -122 -77 -73 -354 151 -850 144 -319 286 -592 376 -725
67 -98 68 -102 45 -139 -38 -63 -91 -60 -159 8 -125 127 -425 721 -554 1100
-71 206 -89 309 -82 466 3 72 5 145 5 164 0 38 -58 223 -125 399 -28 76 -39
114 -31 117 55 17 140 34 177 34 l45 1 89 -268z m-2419 212 c15 -26 61 -82
102 -125 84 -88 186 -148 294 -174 102 -24 420 -17 510 10 12 4 22 -11 41 -62
18 -51 33 -74 58 -90 43 -30 112 -31 158 -3 l33 21 30 -26 c32 -26 70 -32 113
-15 33 12 33 5 0 -45 -62 -94 -85 -109 -273 -182 -64 -25 -163 -65 -220 -89
l-103 -45 -52 49 c-61 57 -194 164 -235 188 -25 15 -28 22 -24 49 4 26 0 36
-31 63 -19 17 -74 54 -122 82 -98 58 -431 226 -483 244 l-34 12 49 37 c27 20
74 61 104 91 30 30 56 55 57 55 0 1 13 -20 28 -45z m2069 -90 c21 -58 37 -106
35 -108 -13 -9 -363 -145 -367 -142 -2 3 9 22 26 43 16 21 33 47 36 59 3 11
21 26 41 33 48 17 103 85 122 151 20 70 20 70 46 70 20 0 28 -15 61 -106z
m-949 -115 c42 -37 65 -77 65 -114 0 -35 -50 -85 -84 -85 -39 0 -83 47 -100
108 l-15 52 31 35 c37 43 57 44 103 4z m1041 -150 c28 -80 29 -91 15 -98 -9
-5 -92 -41 -186 -81 -93 -40 -214 -92 -268 -116 -53 -24 -99 -44 -101 -44 -3
0 9 27 25 60 17 32 40 94 52 136 l22 76 200 83 c110 45 202 80 205 78 3 -2 19
-45 36 -94z m-492 -44 c-60 -195 -116 -297 -223 -404 -113 -113 -217 -150
-275 -98 -15 12 -29 37 -32 55 -7 32 -2 38 109 145 110 107 167 186 167 232 0
9 6 17 13 19 6 2 31 9 54 15 23 6 56 23 72 37 23 19 115 55 128 49 1 0 -5 -23
-13 -50z m542 -133 c14 -38 -5 -140 -29 -153 -17 -10 -166 -232 -442 -659
-282 -437 -741 -1155 -769 -1202 -15 -27 -29 -48 -31 -48 -1 0 -14 18 -29 40
-15 23 -43 58 -62 79 l-34 39 158 248 c87 137 203 317 257 399 157 240 322
494 468 720 75 116 175 270 223 344 l88 134 90 43 c50 24 93 43 96 44 3 0 10
-13 16 -28z m-2332 -12 c125 -47 274 -167 317 -256 67 -139 48 -279 -91 -694
-95 -286 -99 -293 -154 -320 -121 -58 -282 -27 -397 77 l-37 33 29 138 c17 75
50 212 74 303 25 91 45 175 45 187 0 28 -32 30 -51 2 -14 -19 -15 -19 -109 14
-52 19 -103 37 -112 41 -15 6 -15 10 2 58 34 99 57 142 119 224 73 97 128 148
208 191 62 34 69 34 157 2z m2796 -31 l45 -20 -101 -53 c-56 -28 -109 -58
-118 -65 -14 -12 -16 -9 -16 29 0 112 81 159 190 109z m-2216 -97 c95 -66 210
-172 199 -182 -4 -4 -82 -40 -173 -80 -91 -39 -170 -73 -176 -76 -7 -3 -13 22
-17 73 -6 89 -34 172 -78 233 -17 23 -29 43 -27 44 2 1 37 16 78 33 86 36 75
38 194 -45z m3026 34 c158 -44 277 -96 385 -169 282 -190 490 -466 596 -790
58 -176 80 -314 86 -529 9 -322 -31 -547 -138 -774 l-39 -82 -122 -84 c-68
-46 -215 -148 -327 -227 -236 -167 -374 -255 -521 -336 l-105 -57 -100 5
c-171 10 -371 72 -529 164 -433 254 -708 710 -765 1272 -44 429 73 871 306
1159 l35 43 40 -118 39 -119 -46 -69 c-50 -76 -104 -209 -134 -326 -67 -262
-51 -609 40 -898 128 -403 448 -735 816 -848 80 -24 103 -26 248 -27 134 0
173 4 240 22 284 78 520 281 665 571 45 91 95 250 113 361 79 482 -56 973
-350 1281 -306 320 -687 450 -1048 358 -91 -23 -202 -72 -269 -118 l-45 -31
-26 83 c-14 46 -25 91 -25 100 0 30 155 115 292 161 135 46 216 56 413 52 156
-3 192 -7 275 -30z m-1602 -33 c-9 -10 -78 -117 -155 -238 -77 -121 -238 -371
-358 -555 -119 -184 -249 -385 -289 -447 -40 -63 -74 -106 -77 -100 -4 7 -14
93 -24 192 -19 209 -43 366 -84 555 -27 125 -28 136 -13 145 9 5 71 34 137 64
102 46 132 55 200 61 105 8 159 35 255 126 72 69 84 76 235 140 88 37 164 71
169 75 17 15 20 0 4 -18z m-787 -96 c-21 -26 -25 -101 -6 -136 9 -18 15 -35
13 -37 -2 -2 -159 -75 -349 -163 -189 -87 -384 -178 -433 -200 -48 -23 -90
-41 -91 -39 -2 2 7 48 21 103 13 55 24 109 24 121 0 17 55 44 378 181 446 191
446 191 451 187 2 -2 -1 -10 -8 -17z m-2709 -83 c37 -19 134 -59 215 -90 82
-30 155 -57 163 -61 9 -3 -5 -12 -37 -23 -202 -71 -440 -54 -535 37 -50 47
-44 107 18 188 l26 35 42 -26 c22 -14 71 -41 108 -60z m3823 -22 l16 -94 -34
-38 c-19 -20 -57 -71 -84 -111 -178 -266 -266 -545 -276 -884 -10 -327 56
-639 194 -920 78 -158 170 -286 300 -418 l107 -107 -67 -19 c-36 -11 -192 -56
-346 -101 -378 -110 -556 -165 -1120 -345 -264 -84 -547 -174 -630 -200 -82
-26 -204 -64 -270 -85 -236 -75 -774 -230 -801 -230 -3 0 29 23 72 52 203 136
406 407 495 662 17 49 30 71 47 77 12 5 119 33 238 63 209 53 216 54 252 39
20 -9 78 -18 127 -20 104 -6 184 11 276 58 72 36 174 130 214 197 l30 50 95 7
c117 8 237 28 355 59 157 41 185 60 185 125 0 36 2 39 35 44 53 9 100 42 135
95 82 123 75 261 -17 363 -47 52 -101 83 -243 141 -130 52 -269 113 -276 121
-3 3 133 223 302 489 318 500 664 1031 670 1026 1 -2 10 -45 19 -96z m1030
-38 c156 -27 263 -71 410 -170 250 -166 401 -366 496 -654 62 -191 74 -267 73
-495 0 -222 -16 -328 -74 -484 -131 -357 -407 -609 -730 -667 -103 -18 -256
-17 -342 2 -354 81 -677 386 -814 769 -146 410 -134 846 33 1167 19 36 43 74
53 83 16 15 18 14 24 -11 5 -20 -2 -45 -28 -98 -89 -183 -121 -338 -120 -581
0 -265 40 -452 139 -660 107 -224 313 -439 520 -542 188 -94 409 -117 603 -63
349 97 612 423 689 854 9 55 16 149 16 236 2 458 -169 825 -498 1072 -132 99
-260 155 -421 183 -208 36 -374 7 -568 -101 -54 -30 -100 -54 -101 -52 -2 2
-6 15 -10 29 -5 22 -1 29 33 51 187 124 401 170 617 132z m78 -131 c62 -13 78
-19 74 -32 -25 -91 -123 -440 -137 -486 l-17 -59 -26 84 c-15 47 -57 180 -95
297 l-69 212 26 4 c47 6 165 -3 244 -20z m-259 -215 c41 -128 92 -290 114
-359 l40 -126 -27 -99 c-40 -142 -49 -139 -105 43 -26 81 -89 278 -141 437
-52 159 -93 292 -90 294 2 3 33 13 67 23 35 9 64 18 65 18 1 1 36 -104 77
-231z m475 137 c120 -64 286 -207 348 -301 17 -26 17 -27 -18 -58 -19 -17
-141 -126 -271 -243 l-236 -211 -43 115 -43 115 18 72 c22 82 96 343 132 464
14 45 30 82 36 82 5 0 40 -16 77 -35z m-4114 11 l30 -13 -44 -12 c-49 -14 -52
-13 -44 17 6 25 16 26 58 8z m3475 -301 c37 -115 91 -288 120 -383 l52 -172
-24 -19 c-12 -11 -24 -19 -24 -18 -1 1 -60 117 -131 257 -122 241 -253 525
-253 549 0 6 35 31 77 56 l78 45 18 -52 c10 -29 49 -147 87 -263z m-3638 219
c65 -28 82 -31 110 -23 18 5 33 9 33 9 1 0 25 -49 55 -109 l53 -109 -24 -124
-23 -123 -52 -50 c-57 -54 -361 -502 -559 -820 -64 -104 -153 -247 -196 -316
-71 -113 -89 -149 -74 -149 13 0 465 55 700 86 149 19 284 36 300 37 17 1 74
-14 128 -33 l98 -35 14 -49 c8 -27 14 -50 12 -51 -1 -1 -90 -7 -197 -14 -107
-6 -251 -16 -320 -21 -69 -5 -204 -14 -300 -20 -96 -6 -188 -13 -205 -15 -16
-2 -96 -7 -177 -11 -167 -8 -187 -2 -208 61 -15 45 -2 74 160 350 68 116 153
261 188 324 68 120 339 531 488 740 49 69 88 127 87 130 -1 3 -49 91 -107 194
-117 209 -118 198 16 141z m309 -36 c-12 -40 -25 -80 -28 -88 -3 -10 -17 10
-39 54 -34 71 -35 86 -6 87 9 0 33 6 52 13 19 7 37 11 39 10 2 -2 -6 -36 -18
-76z m1262 -35 c40 -164 68 -327 70 -406 l2 -72 -65 -32 c-77 -38 -165 -56
-278 -57 l-84 -1 -32 105 c-18 58 -52 156 -74 219 -23 63 -42 118 -42 123 0 5
10 12 23 17 18 8 106 49 407 193 19 9 38 17 41 17 3 1 18 -47 32 -106z m-555
-175 c6 -18 29 -85 52 -148 23 -63 69 -216 102 -340 54 -201 59 -232 55 -293
-3 -37 -8 -71 -11 -76 -3 -5 -40 -12 -81 -16 l-76 -7 -39 36 c-43 38 -90 66
-115 66 -10 0 -15 10 -15 31 0 18 -9 47 -21 65 -21 35 -93 84 -122 84 -10 0
-17 7 -17 15 0 8 38 115 84 237 46 123 93 253 105 289 20 62 37 80 82 88 3 1
11 -14 17 -31z m2220 -223 c38 -82 92 -190 120 -240 28 -49 49 -91 48 -92 -4
-4 -371 80 -377 86 -11 10 20 161 51 256 33 100 67 162 80 149 4 -5 40 -76 78
-159z m1500 63 c27 -57 60 -132 72 -167 23 -69 60 -239 60 -276 0 -28 14 -25
-370 -65 -162 -16 -312 -32 -333 -35 -34 -5 -38 -3 -47 22 -6 16 -18 41 -27
57 l-16 30 64 59 c261 242 527 477 539 477 4 0 30 -46 58 -102z m-5307 -33
c111 -21 197 -49 289 -96 125 -63 122 -50 44 -164 -37 -55 -68 -101 -69 -102
-1 -2 -31 13 -68 33 -84 45 -183 78 -278 94 -96 16 -260 7 -359 -20 -362 -102
-632 -437 -705 -879 -21 -126 -16 -378 10 -511 53 -272 172 -498 359 -686 200
-200 420 -295 681 -295 364 0 664 196 838 546 81 163 127 343 127 495 l0 78
78 6 c42 4 97 9 121 12 l44 6 -6 -139 c-23 -490 -292 -939 -682 -1136 -136
-68 -341 -117 -490 -117 -352 0 -705 179 -945 477 -236 293 -351 627 -352
1018 -1 329 78 603 250 865 71 108 235 277 331 341 129 86 326 165 456 182 77
10 250 6 326 -8z m857 -176 c48 -43 146 -87 222 -101 59 -11 127 -5 182 17 14
6 11 -8 -16 -75 -31 -77 -36 -83 -86 -111 -79 -43 -141 -99 -158 -140 -13 -35
-16 -36 -44 -28 -81 23 -176 107 -199 176 -9 29 -6 53 22 164 18 71 35 129 37
129 2 0 20 -14 40 -31z m-128 -61 c-10 -46 -19 -92 -21 -102 -3 -16 -8 -14
-32 17 l-28 37 43 64 c24 36 46 65 49 65 3 1 -2 -36 -11 -81z m1520 -83 c6
-60 12 -121 13 -135 5 -61 -231 -101 -344 -57 -40 15 -50 25 -67 65 -17 39
-52 157 -52 174 0 3 48 8 108 11 115 6 250 41 294 76 23 19 23 19 30 -2 3 -12
12 -71 18 -132z m2365 -33 c-4 -11 -14 -8 -42 9 -21 12 -40 24 -42 25 -4 3 19
104 27 118 7 12 63 -136 57 -152z m-4625 38 c41 -12 112 -39 158 -60 78 -37
82 -40 70 -60 -7 -11 -17 -18 -23 -16 -84 39 -193 77 -249 87 -95 16 -283 6
-361 -19 -298 -95 -525 -368 -602 -722 -25 -116 -25 -398 0 -520 40 -191 119
-374 224 -515 253 -339 634 -458 1015 -315 213 79 417 319 503 590 15 47 34
146 44 220 14 116 19 135 35 138 18 4 18 -1 12 -84 -20 -256 -98 -468 -241
-654 -110 -143 -266 -247 -455 -305 -82 -24 -267 -31 -365 -12 -362 69 -671
368 -798 772 -50 161 -61 237 -61 435 0 166 2 197 26 298 78 329 283 596 540
704 168 71 365 85 528 38z m3831 -71 l197 -42 38 -66 c21 -36 53 -84 71 -108
18 -24 33 -45 33 -48 0 -3 -35 -22 -77 -44 -43 -21 -152 -80 -243 -130 -90
-50 -168 -91 -171 -91 -10 0 -46 143 -64 250 -8 52 -15 148 -15 213 0 108 2
118 18 113 9 -2 105 -24 213 -47z m-3182 10 l22 -30 -39 -43 c-21 -23 -51 -63
-66 -89 -16 -26 -31 -47 -35 -47 -5 0 -16 9 -26 20 -17 18 -15 22 51 120 37
55 68 100 69 100 1 0 11 -14 24 -31z m3882 1 c18 0 91 -74 110 -111 49 -97 -3
-209 -105 -226 l-38 -6 34 47 c29 42 33 55 33 109 0 72 -23 120 -73 154 -30
20 -31 23 -15 32 10 6 24 8 31 6 8 -3 18 -5 23 -5z m-4625 -67 c-6 -38 -31
-326 -45 -518 -6 -72 -14 -112 -30 -142 -12 -24 -25 -43 -29 -43 -4 0 -24 46
-44 103 -20 56 -75 207 -122 336 -47 129 -86 238 -86 242 0 8 106 45 150 52
14 2 67 5 118 6 l94 1 -6 -37z m216 -31 l56 -27 -134 -235 c-74 -129 -134
-230 -134 -225 0 7 46 506 50 542 0 6 113 -32 162 -55z m4349 10 c24 -21 32
-38 36 -74 3 -26 3 -58 -1 -72 -7 -30 -62 -84 -93 -92 -33 -9 -49 5 -25 22 27
18 52 75 52 117 0 18 -11 55 -25 81 l-24 46 24 0 c14 0 39 -13 56 -28z m-3741
-28 c0 -48 183 -184 247 -184 14 0 35 -13 54 -35 17 -19 48 -40 69 -46 37 -11
37 -12 33 -53 -7 -59 16 -109 60 -129 68 -33 114 -20 197 56 32 29 92 70 134
92 l76 40 57 -30 c63 -34 143 -110 179 -170 33 -56 23 -90 -40 -132 -174 -118
-482 -89 -832 76 -209 99 -324 182 -365 263 -17 33 -18 44 -8 81 15 56 30 84
79 146 39 49 60 58 60 25z m606 10 c38 -18 79 -68 69 -84 -4 -6 -28 -22 -55
-35 -27 -14 -77 -43 -111 -65 -99 -64 -179 -50 -179 30 0 33 6 44 40 73 52 44
148 96 178 97 13 0 39 -7 58 -16z m-1818 -56 c11 -29 68 -185 127 -346 101
-278 106 -294 88 -307 -58 -44 -41 -53 -314 162 -153 119 -254 205 -253 215 2
26 70 121 135 187 54 55 169 141 190 141 4 0 16 -24 27 -52z m5939 -105 c-7
-203 -44 -358 -117 -504 l-31 -59 -72 57 c-126 99 -557 465 -557 472 1 3 7 17
15 31 8 14 14 37 15 52 0 31 -18 27 320 59 124 11 257 24 295 28 39 5 85 9
104 10 l34 1 -6 -147z m-3427 50 c60 -3 100 0 135 11 27 8 50 14 52 13 1 -2
-27 -49 -63 -105 l-65 -101 -37 24 c-40 26 -143 65 -174 65 -20 0 -22 12 -12
83 l6 45 37 -15 c20 -9 74 -18 121 -20z m-1534 -47 c35 -31 38 -36 24 -50 -14
-15 -19 -13 -54 23 -21 22 -35 44 -32 50 11 17 20 14 62 -23z m999 -25 c74
-32 72 -42 -12 -86 -42 -22 -102 -64 -135 -92 -64 -58 -103 -67 -146 -37 -56
39 -5 120 128 203 71 44 88 45 165 12z m-1053 -49 c31 -29 31 -30 33 -128 1
-54 5 -108 8 -119 7 -18 -10 -27 -170 -90 -98 -38 -184 -72 -192 -73 -7 -2 5
22 26 55 22 32 57 87 78 123 79 132 165 260 175 260 5 0 24 -13 42 -28z m3860
-172 c-30 -69 -97 -222 -148 -340 -51 -118 -97 -216 -101 -217 -16 -6 -147
128 -210 213 -58 79 -153 249 -143 257 9 7 271 153 395 220 l120 64 71 -36 70
-36 -54 -125z m-1854 60 c-33 -50 -63 -89 -65 -86 -8 8 101 176 113 176 7 0
-15 -41 -48 -90z m2408 -78 c110 -92 250 -208 311 -258 l111 -91 -40 -54
c-112 -150 -245 -248 -412 -305 -97 -33 -103 -32 -111 19 -4 23 -43 215 -86
426 -44 211 -77 386 -74 389 8 8 79 40 90 41 6 0 100 -75 211 -167z m-2938
135 c172 -60 325 -236 362 -414 19 -87 8 -243 -23 -325 -66 -180 -221 -317
-394 -349 -152 -28 -371 57 -474 184 -35 44 -176 315 -167 322 2 1 35 -7 75
-18 71 -20 72 -20 87 -65 50 -144 187 -265 332 -291 196 -36 364 92 411 313
40 189 -31 348 -211 476 -27 19 -58 51 -69 70 -10 19 -37 55 -60 79 l-42 43
65 -5 c36 -3 84 -12 108 -20z m775 -35 c26 -9 47 -18 47 -22 0 -3 -12 -13 -27
-22 -16 -9 -56 -42 -91 -72 -54 -48 -69 -56 -103 -56 -45 0 -79 14 -79 33 0
16 65 114 103 154 30 32 30 32 66 16 20 -8 57 -22 84 -31z m1796 22 c8 -7 181
-825 181 -858 0 -3 -42 -6 -94 -6 -167 0 -302 44 -475 156 -4 3 200 475 270
621 l48 103 33 -7 c18 -3 35 -7 37 -9z m-3919 -20 c16 -29 100 -104 173 -153
74 -50 300 -155 407 -189 162 -52 196 -57 365 -57 143 0 166 3 218 23 31 13
71 35 87 49 26 21 30 22 30 7 0 -35 -44 -106 -82 -135 -136 -98 -322 -98 -610
0 -270 91 -559 238 -604 306 -20 30 -29 93 -20 139 8 43 18 45 36 10z m2315
-85 c80 -33 145 -92 171 -156 14 -33 14 -37 -7 -59 -59 -63 -194 -95 -414 -97
-82 0 -180 3 -216 7 l-66 7 -26 77 -25 77 21 38 c11 20 24 37 27 37 4 0 26
-14 50 -31 93 -67 164 -65 244 10 60 56 145 121 158 121 5 0 43 -14 83 -31z
m-3513 -170 c128 -100 241 -187 251 -194 18 -12 18 -14 -1 -51 -11 -22 -22
-52 -26 -69 l-6 -30 -158 3 c-86 1 -213 3 -282 5 l-125 2 2 95 c1 52 9 130 18
173 18 89 73 247 85 247 5 0 113 -81 242 -181z m2633 -36 c58 -76 78 -144 72
-244 -9 -180 -116 -311 -269 -334 -62 -9 -166 22 -230 70 -53 39 -109 110
-132 168 l-14 37 68 0 c39 0 72 -5 76 -11 13 -22 109 -59 154 -59 60 0 102 27
128 84 23 49 27 82 13 105 -6 9 -2 30 11 60 12 28 22 79 25 128 l6 82 29 -20
c15 -11 44 -41 63 -66z m-1439 39 c23 -15 55 -34 71 -43 20 -11 33 -29 42 -58
7 -24 15 -49 18 -57 4 -10 -5 -14 -33 -15 -22 0 -142 -13 -269 -28 -136 -17
-231 -24 -234 -18 -2 5 -17 24 -33 43 -17 19 -29 37 -27 39 6 5 407 163 419
164 3 0 24 -12 46 -27z m2494 -143 c-19 -71 -61 -103 -165 -127 -118 -28 -300
-45 -394 -38 -42 3 -91 6 -108 6 l-33 0 0 58 0 58 78 -9 c110 -12 363 -3 448
17 40 10 96 32 125 50 30 18 55 31 57 30 2 -1 -2 -21 -8 -45z m-2290 21 c25
-25 26 -39 1 -37 -10 0 -23 13 -29 29 -12 33 0 36 28 8z m-1045 -133 c-40 -86
-44 -137 -15 -184 31 -52 71 -67 190 -73 l105 -5 -35 -25 c-29 -21 -46 -25
-105 -25 -59 0 -78 5 -118 28 -70 41 -102 95 -102 171 1 71 21 115 73 163 20
18 37 31 39 29 2 -1 -13 -37 -32 -79z m360 53 c16 -16 27 -31 24 -33 -6 -6
-109 -17 -109 -11 0 8 45 74 51 74 3 0 18 -13 34 -30z m1745 -63 c0 -59 -75
-106 -138 -86 -44 13 -64 29 -39 29 23 0 142 54 151 69 12 19 26 12 26 -12z
m1030 -95 c0 -12 -30 -37 -55 -46 -34 -13 -189 -56 -202 -56 -9 0 -13 16 -13
45 l0 45 53 1 c28 1 77 4 107 9 80 11 110 11 110 2z m-320 -62 c0 -58 -2 -59
-132 -67 l-97 -6 15 54 c9 30 17 59 18 64 2 6 41 9 100 7 l96 -3 0 -49z
m-3107 24 c139 -6 157 -9 157 -24 0 -9 11 -37 24 -62 l24 -45 -171 -129 c-93
-71 -200 -153 -236 -181 -51 -41 -68 -50 -77 -40 -38 40 -110 290 -120 419
l-7 81 124 -6 c68 -4 195 -10 282 -13z m1787 -37 c0 -24 72 -162 112 -215 22
-29 66 -72 97 -96 l58 -42 -169 -43 c-93 -24 -171 -42 -173 -40 -1 2 3 33 11
69 17 83 37 315 30 345 -4 14 -1 25 7 28 21 9 27 8 27 -6z m-485 -89 c-12
-129 -27 -204 -57 -295 -17 -51 -33 -93 -37 -93 -5 0 -204 148 -474 353 -65
50 -67 52 -40 55 45 6 513 39 566 41 l48 1 -6 -62z m-411 -217 c146 -110 272
-204 282 -209 16 -9 11 -19 -39 -93 -88 -131 -178 -218 -289 -278 l-57 -30
-21 57 c-57 150 -231 646 -233 661 -1 11 16 32 43 54 25 19 46 36 47 36 2 1
122 -89 267 -198z m-567 129 c7 0 13 -3 13 -7 0 -5 -24 -89 -54 -188 -29 -99
-73 -254 -96 -345 -24 -91 -45 -167 -47 -169 -8 -11 -126 74 -200 143 -80 75
-183 206 -183 232 0 12 70 67 410 325 l74 57 36 -24 c19 -13 40 -24 47 -24z
m246 -280 c47 -135 104 -296 127 -359 22 -62 39 -115 38 -116 -12 -12 -138
-37 -208 -42 -94 -6 -221 14 -297 47 -41 18 -41 19 -32 52 5 18 43 157 84 308
109 397 98 368 148 372 23 2 45 -1 48 -7 4 -5 45 -120 92 -255z"/>
<path d="M5725 8253 c9 -106 15 -135 28 -130 16 5 21 116 7 167 -7 25 -17 40
-26 40 -13 0 -15 -11 -9 -77z"/>
<path d="M6142 7854 c-71 -49 -67 -173 7 -217 39 -23 63 -21 88 6 32 35 43 62
43 107 0 90 -76 148 -138 104z"/>
<path d="M5491 7015 c-145 -33 -279 -121 -327 -217 -29 -58 -30 -93 -4 -136
40 -65 133 -78 306 -41 85 18 120 20 249 15 83 -3 168 -2 189 3 85 20 121 71
121 171 0 80 -24 119 -94 155 -110 55 -315 79 -440 50z m-6 -156 c67 -11 73
-15 128 -72 31 -32 57 -63 57 -67 0 -4 -34 -10 -76 -14 -42 -4 -117 -16 -167
-26 -111 -24 -149 -25 -187 -5 -50 26 -37 96 29 159 29 28 94 48 131 40 8 -2
47 -8 85 -15z"/>
<path d="M5530 7797 c-13 -7 -35 -28 -48 -47 -20 -30 -23 -44 -20 -97 3 -53 9
-68 33 -93 51 -53 131 -35 161 36 31 75 10 158 -49 194 -37 23 -44 24 -77 7z"/>
<path d="M3859 7241 c-29 -29 -39 -71 -18 -71 6 0 22 9 36 20 35 27 71 25 124
-8 48 -31 80 -69 125 -149 29 -53 64 -72 64 -35 0 31 -57 136 -100 185 -56 64
-98 87 -154 87 -39 0 -53 -5 -77 -29z"/>
<path d="M6189 1576 c-168 -73 -409 -225 -409 -258 0 -18 31 -5 131 54 57 34
167 96 243 138 77 42 142 82 144 88 6 20 -30 13 -109 -22z"/>
<path d="M5815 1496 c-158 -61 -491 -249 -535 -300 -27 -33 3 -30 73 8 40 21
186 96 325 168 138 72 252 134 252 139 0 16 -53 9 -115 -15z"/>
<path d="M3286 735 c-68 -28 -148 -80 -191 -125 -61 -63 -15 -46 179 68 136
79 142 111 12 57z"/>
<path d="M3072 725 c-134 -46 -312 -147 -377 -215 -43 -44 -24 -47 47 -6 35
20 152 80 261 134 109 54 195 101 191 105 -13 12 -47 7 -122 -18z"/>
</g>
</svg>
