<?xml version="1.0" standalone="no"?>
<!DOCTYPE svg PUBLIC "-//W3C//DTD SVG 20010904//EN"
 "http://www.w3.org/TR/2001/REC-SVG-20010904/DTD/svg10.dtd">
<svg version="1.0" xmlns="http://www.w3.org/2000/svg"
 width="1024.000000pt" height="1024.000000pt" viewBox="0 0 1024.000000 1024.000000"
 preserveAspectRatio="xMidYMid meet">
<metadata>
Created by potrace 1.16, written by Peter Selinger 2001-2019
</metadata>
<g transform="translate(0.000000,1024.000000) scale(0.100000,-0.100000)"
fill="#000000" stroke="none">
<path d="M7795 9306 c-73 -33 -272 -276 -427 -521 -154 -243 -269 -469 -510
-1000 -55 -121 -126 -275 -158 -342 -109 -229 -342 -615 -460 -763 -119 -149
-307 -318 -471 -423 l-57 -36 -41 71 c-23 39 -40 72 -39 73 2 1 50 14 107 28
107 28 224 81 314 144 71 49 98 74 90 86 -3 6 -2 7 4 4 21 -13 142 133 202
244 110 204 115 454 12 657 -55 109 -153 221 -228 261 -18 9 -23 21 -23 49 0
20 -5 55 -10 77 -8 36 -7 42 17 64 30 28 55 84 47 105 -4 11 -15 3 -37 -31
-38 -55 -50 -61 -64 -31 -8 17 -5 29 14 56 23 35 28 67 17 110 -10 34 -21 26
-27 -18 -7 -51 -36 -100 -47 -79 -4 8 -11 46 -15 84 -10 98 -38 202 -74 272
-27 55 -29 65 -24 139 12 178 -72 341 -218 426 -124 72 -322 113 -515 104
-106 -4 -134 -3 -152 10 -25 17 -127 51 -192 64 -232 45 -505 -5 -769 -140
l-94 -48 -34 56 c-42 70 -84 114 -145 153 -339 218 -880 -106 -979 -586 -34
-162 -18 -305 47 -426 43 -80 145 -178 229 -219 60 -29 81 -34 143 -34 56 0
73 -4 76 -16 9 -30 15 -76 22 -145 8 -98 29 -195 64 -303 37 -113 75 -191 150
-302 52 -77 95 -123 245 -261 28 -25 66 -71 85 -103 50 -82 141 -164 235 -211
75 -37 86 -39 180 -42 113 -3 164 13 222 69 l31 30 24 -22 c30 -29 120 -89
183 -122 61 -32 239 -103 281 -112 29 -6 34 -15 69 -107 32 -85 56 -189 44
-189 -2 0 -29 4 -60 9 -31 5 -150 12 -265 16 -115 3 -227 8 -249 10 -22 2 -67
7 -100 10 -272 25 -686 110 -1025 211 -88 26 -544 172 -855 274 -603 197
-1163 358 -1206 347 -10 -3 -17 -2 -14 3 3 4 -10 10 -28 13 -170 30 -237 15
-237 -52 0 -20 -7 -31 -25 -39 -14 -7 -30 -22 -36 -35 -24 -53 40 -117 186
-188 125 -60 216 -80 390 -86 141 -5 153 -7 208 -35 32 -16 57 -34 55 -41 -7
-21 -90 -56 -173 -72 -110 -22 -161 -43 -190 -77 -44 -52 -25 -105 49 -139 57
-26 128 -24 211 7 62 23 91 27 250 33 129 5 193 12 226 24 47 17 47 17 110
-12 119 -55 503 -223 554 -243 27 -11 64 -26 80 -33 17 -8 66 -28 110 -45 44
-18 89 -36 100 -41 109 -49 528 -185 715 -233 270 -69 371 -92 560 -130 124
-24 271 -52 327 -62 l103 -17 33 -56 c37 -63 95 -195 127 -289 24 -74 37 -234
22 -274 l-11 -26 -53 18 c-283 98 -721 219 -973 269 -111 21 -270 41 -337 41
-64 0 -155 -26 -194 -57 -58 -44 -79 -95 -78 -188 1 -102 13 -141 87 -299 33
-71 66 -155 72 -187 l12 -58 -41 -6 c-171 -27 -224 -28 -339 -6 -130 25 -330
56 -452 71 -195 22 -493 73 -660 112 -49 11 -182 52 -295 89 -536 178 -963
273 -1147 256 -83 -8 -199 -49 -234 -83 -54 -52 -63 -143 -19 -216 26 -45 137
-127 247 -183 157 -79 439 -182 646 -234 97 -24 118 -33 152 -66 49 -46 128
-98 173 -113 18 -6 72 -10 120 -9 68 2 95 7 122 23 19 12 34 26 33 32 -2 6 3
9 10 6 7 -2 22 4 34 15 20 19 21 19 74 -6 144 -68 474 -208 597 -254 185 -69
436 -122 732 -154 30 -3 66 -8 80 -10 28 -5 23 -4 305 -39 380 -47 427 -51
628 -51 l157 0 11 -35 c21 -65 57 -125 109 -182 87 -98 241 -157 407 -158 88
0 138 10 314 62 l135 40 110 -55 c284 -142 627 -270 1079 -402 200 -59 245
-76 348 -132 66 -37 124 -62 133 -59 9 3 12 1 9 -4 -3 -6 -5 -10 -3 -10 2 0
37 -14 78 -31 201 -82 396 -133 687 -179 109 -17 239 -37 288 -45 50 -8 108
-17 130 -21 54 -8 54 -9 44 -51 -5 -21 -9 -56 -9 -78 0 -48 40 -139 68 -154
24 -13 90 -28 157 -36 28 -3 61 -8 73 -11 17 -3 21 -1 16 7 -5 8 -3 9 6 4 7
-5 36 -9 64 -10 117 -5 189 -20 331 -67 83 -28 175 -61 206 -73 30 -13 107
-40 170 -61 134 -43 259 -52 315 -22 74 40 107 115 84 191 -16 55 -171 209
-295 293 -126 85 -253 157 -265 149 -6 -4 -9 -1 -8 6 5 22 -472 257 -494 243
-6 -4 -8 -3 -5 2 6 10 -131 71 -563 255 -118 50 -251 108 -295 128 -44 21
-109 50 -145 66 -92 41 -378 188 -483 248 l-89 50 58 29 c169 87 293 224 296
325 2 88 -1 96 -50 142 -27 26 -62 53 -78 61 -16 8 -56 30 -89 49 -116 67
-242 133 -470 246 -265 130 -437 205 -618 266 l-128 44 6 30 c3 17 37 114 76
215 143 373 163 452 164 635 0 139 -15 204 -72 319 l-25 49 29 37 c475 621
671 944 843 1392 55 142 147 425 236 721 l59 199 87 64 c96 70 126 86 208 109
76 21 130 66 130 109 0 36 -19 58 -64 73 -29 9 -28 10 135 140 164 131 199
170 199 215 0 33 -37 64 -82 67 -41 3 -134 -36 -163 -69 -10 -11 -22 -20 -27
-20 -5 0 13 24 40 53 124 130 166 199 160 263 -2 26 -10 40 -29 51 -39 24 -89
10 -154 -43 l-55 -45 6 43 c7 46 7 45 5 71 -1 20 -36 57 -53 57 -7 -1 -26 -7
-43 -14z m52 -52 c9 -23 -12 -81 -52 -148 -19 -32 -32 -63 -28 -69 3 -5 1 -7
-4 -4 -16 10 -172 -228 -159 -241 4 -3 10 -2 14 4 25 38 169 201 232 263 91
90 165 141 204 141 27 0 28 -2 22 -31 -7 -36 -71 -128 -147 -213 -74 -82 -220
-275 -266 -351 -33 -56 -44 -67 -86 -82 -48 -17 -75 -38 -64 -49 3 -3 30 2 59
12 64 23 249 26 286 6 49 -28 16 -63 -89 -96 -80 -25 -134 -53 -189 -96 -19
-15 -54 -39 -78 -54 -23 -15 -47 -37 -52 -49 -8 -20 -22 -70 -96 -330 -14 -48
-22 -93 -18 -100 4 -6 3 -8 -1 -4 -5 4 -39 -84 -75 -195 -103 -314 -208 -561
-353 -832 -9 -16 -13 -34 -10 -39 3 -6 2 -8 -3 -4 -5 3 -29 -27 -53 -66 -57
-92 -291 -434 -351 -512 -26 -33 -77 -99 -114 -147 -37 -49 -71 -88 -75 -88
-5 0 -32 32 -61 70 -28 39 -83 97 -120 130 -74 63 -206 156 -242 169 -20 7
-18 10 28 47 128 102 185 155 177 167 -3 6 -1 7 5 3 13 -8 106 86 182 185 137
176 323 486 461 767 61 122 107 228 103 234 -4 6 -3 9 2 5 5 -3 27 34 48 81
111 244 274 588 318 672 125 234 274 473 380 608 27 34 46 67 43 73 -4 5 -2 8
3 7 6 -2 48 36 94 85 81 85 112 103 125 71z m-4152 -45 c74 -28 137 -79 184
-149 41 -62 50 -90 30 -90 -26 0 -167 -67 -236 -112 -188 -123 -323 -303 -384
-513 -19 -64 -23 -101 -22 -185 1 -58 3 -118 5 -135 l3 -30 -57 1 c-117 2
-248 95 -317 224 -51 95 -68 183 -59 302 4 55 5 105 1 111 -3 6 -1 7 5 3 7 -4
12 -1 12 9 0 31 61 174 102 236 50 79 168 197 248 248 73 47 178 91 245 101
69 11 180 1 240 -21z m1125 -64 c103 -20 160 -36 160 -45 0 -4 -21 -11 -47
-15 -58 -8 -212 -65 -308 -112 -154 -77 -335 -217 -438 -340 -132 -158 -225
-370 -258 -583 -10 -68 -7 -244 7 -327 13 -83 52 -219 86 -303 21 -52 38 -95
38 -96 0 -1 -26 -4 -57 -6 -32 -2 -76 -13 -97 -23 -41 -19 -92 -83 -113 -138
-15 -40 -16 -118 -3 -153 6 -15 8 -29 5 -32 -11 -11 -176 169 -229 251 -78
119 -123 220 -159 356 -25 99 -30 138 -33 261 -2 96 2 173 12 227 68 382 291
712 605 895 276 162 581 229 829 183z m599 -90 c125 -21 238 -66 304 -124 65
-55 85 -85 120 -173 28 -69 45 -198 27 -198 -6 0 -10 6 -10 14 0 8 -32 49 -72
91 -127 136 -272 223 -456 274 l-71 19 -37 -66 c-63 -112 -166 -206 -334 -302
-88 -50 -258 -169 -313 -219 -105 -95 -203 -272 -239 -431 -5 -25 -14 -180
-18 -345 -5 -165 -12 -312 -15 -326 l-7 -27 -73 34 c-41 19 -82 34 -92 34 -17
0 -57 20 -41 20 4 0 -2 21 -13 48 -35 80 -88 277 -100 369 -58 461 135 860
547 1125 121 78 290 144 435 172 46 8 93 17 104 20 50 10 269 4 354 -9z m2714
-141 c17 -6 11 -37 -13 -70 -8 -11 -71 -65 -140 -121 -69 -55 -141 -117 -159
-137 -32 -33 -39 -36 -94 -36 l-58 0 43 62 c86 124 213 235 333 289 42 20 64
23 88 13z m-2767 -33 c33 -11 79 -28 104 -39 24 -12 48 -18 54 -15 5 3 6 1 2
-5 -4 -7 -3 -12 2 -12 4 0 38 -20 75 -44 43 -30 68 -41 71 -33 3 7 4 5 3 -4
-1 -9 21 -37 50 -63 69 -63 129 -142 165 -218 25 -53 88 -267 88 -299 0 -6
-14 3 -31 21 -54 54 -105 73 -189 73 -90 0 -136 -20 -197 -85 -112 -122 -113
-337 -2 -508 35 -54 42 -90 18 -90 -5 0 -9 -7 -9 -15 0 -18 5 -18 31 -4 11 5
17 15 13 22 -4 7 -4 9 1 5 4 -4 25 2 46 12 64 33 126 25 152 -20 31 -52 18
-118 -39 -205 -18 -27 -31 -51 -29 -53 2 -2 16 4 31 14 40 27 83 92 90 136 6
33 11 39 43 48 84 23 159 102 187 197 8 29 18 53 22 53 11 -1 105 -92 138
-135 44 -56 92 -156 105 -215 6 -28 14 -48 17 -46 4 2 8 -44 10 -102 4 -122
-11 -203 -57 -312 -99 -232 -340 -437 -588 -500 -117 -31 -117 -31 -277 -38
-216 -10 -369 17 -585 104 -46 18 -88 31 -94 27 -6 -3 -7 -1 -3 5 4 7 3 12 -2
12 -5 0 -56 31 -115 70 l-105 70 5 58 c6 67 -11 94 -22 35 -4 -21 -13 -49 -20
-63 -18 -34 -72 -88 -96 -95 -11 -4 -17 -9 -15 -13 9 -15 -151 -12 -209 3
-168 44 -332 217 -370 390 -19 84 -12 124 32 192 33 52 77 74 157 80 71 6 190
-29 267 -78 53 -34 81 -39 56 -11 -21 23 -21 33 -1 107 12 46 17 120 20 310 3
275 5 289 35 390 53 176 172 332 336 442 29 19 51 39 47 44 -3 5 1 6 8 4 8 -3
77 36 153 86 155 102 246 186 291 273 33 64 40 66 130 37z m-1638 -61 c-56
-50 -156 -178 -214 -275 -85 -142 -153 -337 -170 -484 -4 -34 -10 -64 -15 -66
-11 -8 -24 99 -22 188 5 181 107 388 267 541 46 44 189 146 205 146 3 0 -20
-23 -51 -50z m2102 -627 c76 -24 147 -94 196 -189 38 -75 39 -80 39 -183 0
-88 -4 -114 -22 -154 -25 -54 -72 -102 -122 -123 -46 -19 -48 -19 -61 21 -12
35 -41 61 -55 47 -3 -4 -5 -1 -3 7 6 28 -76 32 -157 6 -16 -5 -26 4 -55 51
-52 86 -69 147 -70 246 0 78 3 92 33 149 63 121 155 162 277 122z m-4483
-1244 c180 -34 289 -64 758 -205 99 -30 185 -52 193 -49 7 2 11 1 7 -4 -3 -5
9 -14 27 -19 111 -35 519 -166 723 -232 624 -204 1067 -305 1470 -336 50 -3
93 -8 96 -10 3 -2 88 -4 189 -4 l183 -2 66 -35 c37 -19 91 -51 121 -71 45 -31
56 -45 71 -90 45 -134 49 -318 9 -425 -36 -95 -81 -135 -178 -157 -33 -8 -33
-8 -68 63 -20 40 -43 80 -51 89 -15 16 -12 17 51 11 44 -4 66 -2 66 5 0 13
-32 20 -430 97 -189 36 -351 71 -498 107 -46 11 -90 17 -98 14 -8 -3 -13 -2
-10 3 3 5 -25 16 -62 25 -201 51 -600 181 -802 263 -154 62 -531 226 -781 339
l-96 43 -76 -24 c-68 -22 -93 -25 -214 -23 -126 2 -147 -1 -233 -27 -112 -33
-181 -36 -219 -7 -32 23 -37 44 -17 65 17 17 61 32 215 73 142 37 183 75 150
136 -12 22 -144 87 -444 220 -99 44 -194 85 -210 93 -42 19 -115 73 -115 85 0
16 91 11 207 -11z m9 -168 c245 -106 304 -133 304 -141 0 -7 -125 5 -214 21
-164 29 -366 139 -366 198 0 6 12 17 27 25 25 13 30 12 58 -10 17 -13 103 -55
191 -93z m4057 -425 l178 -1 46 -90 c33 -65 61 -103 100 -139 90 -81 172 -206
173 -263 0 -68 -47 -98 -156 -96 -115 1 -182 28 -408 163 -72 43 -162 94 -201
114 l-70 37 46 -6 c52 -7 59 1 59 59 0 36 -31 139 -61 200 -10 22 -19 43 -19
47 0 3 30 0 68 -9 44 -10 126 -15 245 -16z m714 -351 c52 -50 95 -89 97 -88 1
2 3 -3 3 -10 0 -8 14 -34 31 -58 161 -236 167 -443 22 -838 -27 -75 -71 -196
-98 -269 -27 -72 -51 -135 -55 -138 -23 -23 -216 -32 -329 -16 -38 6 -61 5
-69 -2 -9 -8 -10 -8 -6 0 4 7 -23 17 -71 29 -146 34 -266 82 -429 173 l-83 46
0 82 c0 98 -19 205 -54 295 l-25 67 44 7 c135 20 225 169 225 374 0 71 -22
197 -40 232 -14 24 -5 24 31 -2 16 -11 29 -17 29 -12 0 4 4 3 8 -3 14 -21 198
-113 268 -133 112 -33 227 -26 277 18 31 26 49 82 42 127 -8 55 -65 148 -144
235 -35 39 -62 71 -60 72 2 1 22 12 44 23 l40 22 104 -72 c57 -39 146 -112
198 -161z m-2374 -916 c44 -37 98 -138 122 -230 25 -93 28 -410 4 -433 -4 -5
-194 -36 -219 -36 -5 0 -10 12 -10 28 0 41 -33 142 -67 203 -92 170 -121 344
-69 423 23 35 109 76 161 76 31 0 50 -8 78 -31z m142 21 c33 -5 76 -12 95 -14
19 -3 58 -10 85 -16 28 -7 61 -14 75 -16 106 -20 462 -117 685 -186 88 -28
177 -55 198 -60 30 -8 37 -14 31 -27 -13 -29 -16 -140 -6 -171 11 -29 10 -30
-21 -31 -18 0 -50 -2 -72 -4 -22 -1 -105 -6 -185 -9 -332 -15 -590 -49 -590
-78 0 -10 11 -10 85 1 60 10 119 15 270 26 44 3 98 8 120 10 22 2 90 7 150 10
61 3 146 8 190 11 l80 5 55 -45 c30 -25 80 -58 112 -73 32 -16 58 -31 58 -35
0 -4 -10 -10 -22 -14 -89 -27 -553 -452 -525 -480 3 -4 21 9 39 27 60 61 279
259 352 318 105 85 183 134 203 128 10 -3 63 -22 117 -41 54 -20 129 -41 166
-47 l68 -12 26 -86 c27 -92 126 -523 126 -552 0 -10 5 -21 12 -25 33 -21 -54
454 -108 590 -13 33 -24 62 -24 65 0 3 36 5 80 4 43 -1 106 5 140 13 56 13
131 51 145 73 9 15 155 -80 268 -172 52 -43 156 -145 231 -228 128 -139 182
-186 140 -121 -91 140 -406 455 -436 435 -6 -3 -8 -1 -5 4 6 9 -90 80 -150
112 -21 11 -21 13 -7 46 7 19 14 48 14 65 0 16 4 30 10 30 24 0 283 -95 411
-150 250 -109 870 -430 900 -466 9 -12 6 -14 -17 -15 -108 -3 -281 -70 -397
-153 -34 -24 -105 -88 -157 -142 -176 -183 -227 -230 -296 -276 -104 -68 -157
-83 -294 -82 -110 1 -121 3 -270 52 -277 90 -317 90 -640 -11 -282 -87 -447
-93 -595 -19 -113 56 -163 115 -220 263 -63 160 -115 258 -164 308 -47 48
-124 90 -293 161 -179 75 -225 166 -208 415 12 176 5 380 -15 455 -24 90 -67
171 -110 208 l-36 32 33 0 c18 0 60 -5 93 -10z m-2943 -276 c46 -9 86 -18 90
-20 4 -3 -8 -18 -26 -35 -45 -39 -66 -86 -66 -146 1 -136 128 -248 430 -377
132 -57 246 -89 402 -116 68 -12 134 -26 148 -32 24 -10 22 -12 -45 -44 -56
-28 -82 -34 -133 -34 -76 0 -111 16 -241 111 -51 38 -101 69 -110 69 -25 0
-150 34 -271 74 -402 131 -619 250 -668 365 -27 61 -27 68 -2 108 56 92 252
123 492 77z m327 -75 c86 -23 164 -44 174 -46 28 -8 20 -23 -13 -23 -70 0
-260 -88 -338 -156 l-50 -44 -20 27 c-39 57 -53 133 -31 176 17 33 91 107 107
107 8 0 85 -19 171 -41z m3886 11 c63 -44 247 -131 263 -125 7 2 11 1 8 -3 -6
-11 167 -67 274 -88 91 -19 291 -25 373 -11 31 5 46 4 43 -2 -4 -5 2 -15 11
-21 13 -8 14 -10 2 -7 -11 4 -19 -7 -28 -40 -26 -100 -123 -146 -298 -144 -58
0 -113 3 -122 5 -9 3 -32 7 -51 10 -47 7 -158 41 -248 77 -40 16 -79 26 -85
23 -7 -4 -9 -4 -5 1 4 4 -14 21 -40 38 -118 75 -172 140 -172 209 0 36 18 108
26 108 3 0 25 -13 49 -30z m-3320 -182 c2 -2 -7 -38 -20 -79 -13 -41 -26 -95
-30 -119 -4 -25 -13 -79 -21 -120 -8 -41 -14 -76 -14 -78 0 -2 -9 0 -20 3 -12
4 -20 2 -20 -5 0 -7 -6 -5 -16 4 -8 9 -19 16 -24 16 -4 0 -6 8 -3 18 7 28 -24
189 -52 272 -14 40 -38 97 -55 126 -16 30 -30 56 -30 58 0 4 299 -90 305 -96z
m-311 20 c16 -35 39 -89 51 -121 12 -32 25 -54 30 -50 4 5 5 3 1 -4 -4 -7 0
-52 9 -100 20 -120 20 -126 -7 -118 -151 46 -428 171 -505 228 l-32 24 32 24
c72 53 106 74 183 110 70 34 166 66 199 68 6 1 23 -27 39 -61z m406 -54 l40
-16 -6 -92 c-5 -85 -31 -208 -57 -264 -10 -21 -16 -23 -47 -18 -19 3 -43 6
-54 6 -16 0 -18 5 -13 33 3 17 18 96 32 174 25 140 40 193 56 193 5 0 27 -7
49 -16z m220 -52 c143 -34 323 -67 490 -87 171 -22 190 -24 370 -51 91 -13
198 -31 239 -40 77 -17 106 -16 315 12 123 16 287 43 297 50 4 2 8 -38 11 -90
3 -80 8 -102 36 -159 42 -84 93 -123 249 -188 210 -87 252 -123 319 -266 19
-39 34 -74 34 -77 0 -12 -292 -6 -441 9 -248 25 -863 102 -1019 129 -248 42
-435 104 -785 261 -178 80 -295 131 -318 139 -16 5 -16 8 -4 33 34 66 50 149
51 259 1 96 3 111 16 104 8 -4 71 -21 140 -38z m5400 -641 c5 -11 10 -39 10
-63 0 -94 -101 -210 -274 -318 l-69 -42 -116 60 c-64 33 -128 67 -144 75 l-28
14 80 75 c107 101 249 174 391 203 98 20 137 19 150 -4z m-463 -407 c459 -249
738 -388 760 -380 8 3 12 2 9 -3 -3 -4 29 -24 72 -44 131 -61 440 -194 545
-234 l47 -19 -52 -34 c-33 -22 -52 -42 -52 -52 1 -10 -3 -15 -8 -12 -25 16
-111 -158 -112 -226 -1 -40 -4 -46 -21 -43 -11 1 -99 14 -195 28 -486 71 -683
129 -1028 302 -109 55 -185 87 -206 87 -19 1 -32 3 -30 6 3 2 -37 16 -88 31
-139 40 -314 94 -460 144 -72 24 -136 42 -142 38 -6 -3 -8 -3 -4 2 4 4 -57 33
-135 65 -78 31 -194 81 -257 109 -63 29 -127 57 -142 63 -16 5 -28 13 -28 17
0 14 112 33 182 32 85 -1 132 -12 280 -62 64 -22 128 -42 140 -44 13 -3 37 -8
53 -11 67 -16 204 -5 282 21 113 38 156 68 283 195 63 64 118 117 122 118 4 1
87 -41 185 -94z m1542 -730 c34 -15 61 -29 61 -33 0 -3 -28 -22 -62 -41 -33
-19 -79 -55 -101 -80 -44 -49 -87 -132 -87 -167 0 -26 -9 -27 -61 -13 -44 12
-50 30 -33 97 23 90 84 176 166 233 24 16 46 30 50 30 4 0 34 -12 67 -26z
m256 -114 c73 -33 137 -60 144 -60 6 0 11 -4 11 -9 0 -5 -33 -15 -72 -21 -142
-23 -255 -51 -368 -90 -63 -21 -116 -37 -118 -35 -2 2 4 25 14 52 23 61 109
147 189 190 33 18 62 33 64 33 2 0 63 -27 136 -60z m349 -171 c112 -61 218
-123 236 -137 3 -2 -12 -19 -32 -37 -54 -50 -158 -79 -255 -72 -41 3 -76 7
-78 9 -2 2 1 26 6 53 12 58 3 166 -17 214 -8 18 -14 35 -14 37 0 13 38 -4 154
-67z m-178 24 c3 -15 8 -36 11 -46 6 -23 6 -198 -1 -204 -4 -4 -36 4 -231 62
-49 15 -97 29 -105 31 -93 22 -152 37 -185 46 l-40 10 45 14 c70 22 382 102
410 106 83 11 89 10 96 -19z m-306 -210 c355 -103 356 -103 465 -103 91 0 106
3 164 30 35 17 78 46 96 65 l32 35 94 -67 c122 -88 232 -197 248 -246 27 -80
-48 -153 -155 -150 -76 3 -153 25 -427 124 -262 95 -366 119 -515 119 -83 0
-203 16 -245 32 -38 15 -59 60 -63 134 -4 93 1 104 44 97 21 -3 138 -35 262
-70z"/>
<path d="M5540 8552 c-41 -20 -70 -66 -54 -82 8 -8 28 -7 72 4 62 17 146 11
231 -14 50 -14 51 -3 4 39 -72 64 -182 88 -253 53z"/>
<path d="M4933 8366 c-58 -19 -104 -49 -153 -102 -68 -74 -116 -207 -91 -251
9 -16 10 -16 11 -1 1 96 173 267 285 284 24 3 52 15 62 26 17 19 17 21 -6 39
-27 22 -49 23 -108 5z"/>
<path d="M5013 8051 c-28 -9 -72 -34 -97 -54 -48 -40 -98 -128 -100 -178 -1
-16 -4 -29 -8 -29 -5 0 -8 -29 -8 -65 l0 -65 -37 20 c-21 11 -53 32 -70 46
-47 38 -44 6 5 -45 25 -26 50 -42 75 -46 20 -4 37 -11 37 -15 0 -5 3 -15 6
-24 5 -12 -1 -16 -24 -16 -37 0 -110 25 -134 47 -28 25 -34 6 -7 -23 35 -38
72 -54 128 -57 48 -2 49 -2 97 -74 59 -86 116 -135 190 -162 105 -40 213 -20
287 53 56 54 87 119 100 214 41 276 -215 551 -440 473z m180 -49 c26 -11 69
-42 96 -67 50 -47 111 -150 111 -187 0 -11 3 -17 8 -15 12 8 13 -135 1 -188
-43 -185 -197 -265 -357 -184 -226 112 -283 459 -102 612 70 59 153 69 243 29z"/>
<path d="M5271 7721 c-7 -5 -18 -25 -26 -47 -11 -31 -11 -46 0 -82 25 -83 74
-106 115 -54 54 68 -22 224 -89 183z"/>
<path d="M5823 7110 c-40 -26 -70 -50 -67 -53 3 -3 -1 -4 -8 -4 -7 1 -40 -5
-73 -12 -82 -18 -214 -10 -285 18 -104 42 -130 50 -130 42 0 -17 78 -61 150
-87 66 -22 88 -25 180 -22 87 3 114 8 160 29 60 28 155 109 149 125 -2 6 -36
-11 -76 -36z"/>
<path d="M3979 7081 c-21 -21 -29 -39 -29 -63 l1 -33 20 37 c30 57 99 64 171
17 l34 -22 -3 -76 c-5 -85 11 -124 60 -150 39 -21 45 -6 13 28 -31 32 -45 86
-36 140 l5 33 19 -21 c26 -29 85 -65 93 -57 10 9 -89 106 -100 99 -6 -3 -7 -1
-4 4 7 12 -38 50 -90 77 -18 9 -53 16 -78 16 -38 0 -52 -5 -76 -29z"/>
<path d="M5800 7867 c-30 -15 -39 -54 -28 -116 12 -66 32 -91 72 -91 82 0 82
152 1 206 -16 11 -25 11 -45 1z"/>
</g>
</svg>
