<?xml version="1.0" encoding="UTF-8" standalone="yes"?>
<svg version="1.0" xmlns="http://www.w3.org/2000/svg" width="1024.000000pt" height="1024.000000pt" viewBox="0 0 1024.000000 1024.000000" preserveAspectRatio="xMidYMid meet">
  <metadata>
Created by potrace 1.16, written by Peter Selinger 2001-2019
</metadata>
  <g transform="translate(0.000000,1024.000000) scale(0.100000,-0.100000)" fill="#000000" stroke="none">
    <path d="M4945 9764 c-5 -1 -104 -5 -220 -8 -337 -8 -639 -54 -1045 -158 -463&#xA;-118 -856 -296 -1255 -569 -492 -336 -884 -788 -960 -1107 -61 -257 145 -349&#xA;405 -181 34 21 103 80 155 130 l93 90 -38 -88 c-44 -104 -62 -183 -61 -269 1&#xA;-76 13 -109 54 -152 70 -72 179 -69 294 7 100 67 174 152 455 522 l35 46 -5&#xA;-72 c-13 -210 100 -317 273 -257 112 39 289 184 429 352 104 125 366 404 373&#xA;397 1 -2 -2 -20 -8 -40 -13 -49 3 -110 38 -136 54 -43 159 -14 292 79 l57 40&#xA;89 -15 c123 -20 264 -57 358 -93 79 -30 187 -90 187 -103 0 -4 -11 -10 -25&#xA;-13 -46 -12 -227 -117 -408 -238 -180 -121 -255 -163 -337 -191 -82 -27 -197&#xA;-47 -278 -47 -110 0 -123 -20 -78 -115 36 -76 125 -155 210 -185 16 -6 27 -12&#xA;25 -15 -12 -11 -212 18 -338 49 -169 42 -176 41 -169 -40 10 -124 106 -244&#xA;256 -322 l74 -39 -56 -56 c-69 -68 -141 -116 -221 -147 -123 -49 -145 -86&#xA;-103 -168 33 -64 87 -94 183 -100 l73 -4 -34 -57 c-109 -183 -92 -397 46 -608&#xA;l21 -32 -94 39 c-218 89 -488 160 -812 215 l-150 26 -35 42 c-71 85 -207 220&#xA;-271 268 -79 59 -196 115 -264 128 -78 15 -172 -8 -194 -47 -7 -13 -24 -17&#xA;-68 -18 -33 -1 -73 -9 -90 -17 -44 -23 -83 -73 -83 -107 0 -23 -5 -30 -30 -35&#xA;-83 -18 -108 -140 -44 -210 30 -32 67 -53 274 -156 107 -53 205 -108 218 -122&#xA;l23 -25 -55 -6 c-151 -19 -266 -100 -266 -188 0 -37 36 -86 81 -108 46 -24&#xA;151 -29 231 -11 25 6 95 10 154 9 125 -3 163 7 231 59 l47 36 60 -11 c110 -21&#xA;427 -110 621 -175 158 -54 493 -186 534 -211 7 -5 -14 -27 -56 -58 -287 -214&#xA;-453 -419 -535 -661 -56 -166 -49 -310 22 -462 42 -91 87 -144 291 -353 202&#xA;-205 207 -209 300 -192 l36 7 -100 -154 c-56 -85 -108 -158 -117 -163 -32 -17&#xA;-278 -69 -410 -86 -202 -27 -564 -25 -770 5 -163 23 -316 58 -402 92 -64 25&#xA;-135 75 -141 100 -8 31 62 64 223 105 214 54 280 93 280 165 0 106 -178 184&#xA;-450 196 -156 7 -262 -5 -425 -47 -224 -58 -356 -112 -629 -258 -270 -144&#xA;-324 -170 -408 -200 -75 -26 -96 -46 -62 -59 40 -15 245 65 429 166 415 229&#xA;683 316 1000 328 171 6 308 -15 413 -62 139 -62 98 -105 -170 -176 -169 -44&#xA;-231 -74 -255 -124 -15 -31 -14 -35 3 -70 84 -167 716 -283 1277 -234 107 9&#xA;402 60 446 77 9 3 1 -15 -20 -44 -20 -27 -60 -84 -89 -126 -51 -76 -53 -77&#xA;-109 -88 -160 -32 -606 -175 -905 -289 -741 -285 -1186 -565 -1242 -782 -34&#xA;-129 60 -201 359 -279 253 -65 551 -91 962 -84 160 2 301 6 315 8 14 2 72 6&#xA;130 10 58 4 141 11 185 16 44 5 107 11 140 15 33 3 76 7 95 10 19 3 53 7 75 9&#xA;823 100 1443 237 2110 466 578 199 1038 420 1457 702 385 259 577 478 517 590&#xA;-22 42 -102 62 -339 87 -207 21 -922 8 -1290 -25 l-75 -7 40 28 c193 132 515&#xA;476 515 550 0 9 -4 15 -8 13 -5 -1 -49 -50 -99 -108 -158 -185 -222 -245 -503&#xA;-477 -9 -7 -79 -19 -156 -28 -77 -8 -148 -17 -159 -19 -11 -2 -46 -7 -77 -10&#xA;l-58 -7 58 118 c32 65 67 140 78 168 13 34 47 78 110 145 158 167 280 333 386&#xA;525 30 55 57 107 60 116 5 13 58 -1 342 -95 260 -86 336 -115 336 -127 0 -9 9&#xA;-46 20 -81 22 -73 58 -112 136 -152 37 -18 59 -38 77 -68 31 -53 84 -107 115&#xA;-119 68 -26 160 4 189 61 36 71 3 195 -73 272 l-36 38 57 0 c35 0 132 -18 244&#xA;-46 283 -70 372 -69 447 1 37 35 44 71 21 115 -12 23 -10 26 18 40 16 8 40 31&#xA;53 50 34 50 26 120 -20 167 -17 18 -27 33 -20 33 19 0 14 71 -7 106 -14 23&#xA;-36 38 -77 54 -64 24 -222 50 -302 50 -90 0 -269 -30 -447 -76 l-100 -26 -80&#xA;38 c-132 61 -354 159 -652 289 l-281 122 40 17 c82 37 190 119 254 195 114&#xA;133 178 297 191 489 l6 93 57 49 c42 36 67 69 93 122 72 145 82 275 34 418&#xA;l-22 65 42 90 c48 100 73 199 73 289 l0 60 58 -85 c68 -99 94 -111 141 -60&#xA;113 121 27 451 -178 685 -29 32 -51 60 -49 61 2 2 50 15 108 29 57 15 120 34&#xA;139 44 32 15 36 22 39 59 3 34 -2 47 -28 76 -16 19 -45 42 -64 51 -46 22 -155&#xA;21 -236 -2 l-65 -18 0 111 c0 104 -2 114 -32 176 -36 73 -86 116 -146 126 -54&#xA;8 -60 -12 -52 -175 l6 -137 -32 57 c-39 71 -182 211 -276 271 -186 119 -479&#xA;190 -712 173 -94 -8 -272 -40 -330 -61 -34 -12 -40 -11 -77 12 -141 88 -385&#xA;172 -546 189 -38 4 -65 11 -62 16 7 11 159 111 275 180 305 184 659 304 1014&#xA;344 258 29 630 10 890 -46 488 -104 842 -294 1295 -696 405 -358 697 -766 886&#xA;-1236 23 -59 39 -62 30 -8 -45 280 -342 775 -673 1120 -460 480 -969 775&#xA;-1543 895 -234 49 -647 70 -878 44 -379 -42 -784 -181 -1089 -375 -66 -43&#xA;-285 -194 -293 -203 -15 -18 -167 -115 -212 -136 -61 -28 -90 -24 -107 11 -20&#xA;45 6 125 77 232 25 38 32 56 25 63 -16 16 -80 -31 -219 -163 -65 -62 -141&#xA;-133 -167 -158 -27 -25 -95 -99 -151 -165 -175 -208 -293 -316 -401 -367 -101&#xA;-47 -164 -35 -202 42 -39 77 -25 211 38 345 20 42 25 63 17 72 -21 26 -71 -24&#xA;-248 -250 -47 -60 -124 -159 -173 -220 -164 -209 -252 -282 -355 -293 -83 -10&#xA;-140 49 -141 147 -2 105 77 296 190 459 58 84 66 110 33 110 -26 0 -77 -41&#xA;-220 -176 -180 -171 -222 -205 -302 -245 -56 -28 -78 -34 -135 -34 -64 0 -71&#xA;2 -94 29 -23 28 -25 36 -21 105 9 147 125 356 317 575 309 351 815 705 1287&#xA;902 577 240 1296 370 1929 349 514 -16 932 -88 1400 -239 332 -108 748 -322&#xA;1000 -515 193 -147 439 -374 572 -526 567 -650 951 -1374 1153 -2175 91 -360&#xA;150 -851 150 -1250 0 -340 -23 -585 -94 -1020 -19 -113 -30 -209 -25 -214 4&#xA;-5 20 12 36 38 130 218 248 364 347 430 102 68 130 36 85 -96 -40 -116 -111&#xA;-228 -234 -368 -239 -273 -415 -523 -537 -763 -23 -47 -27 -62 -17 -73 10 -12&#xA;27 0 103 74 102 98 179 159 276 219 216 133 338 172 374 121 22 -32 20 -55&#xA;-11 -118 -41 -81 -161 -201 -497 -494 -338 -295 -336 -292 -336 -306 0 -19 29&#xA;-10 138 40 60 28 112 50 116 50 5 0 22 7 39 14 53 25 203 64 289 77 151 22&#xA;279 -5 270 -57 -13 -70 -250 -205 -677 -386 -305 -129 -532 -284 -566 -386&#xA;-18 -55 -4 -59 103 -29 214 59 346 78 553 78 219 1 368 -34 453 -105 34 -30&#xA;42 -67 19 -97 -44 -58 -221 -109 -538 -154 -124 -18 -146 -25 -134 -45 6 -10&#xA;40 -11 144 -7 229 10 476 74 554 142 115 101 23 236 -207 302 -35 10 -117 16&#xA;-261 19 -176 3 -228 0 -324 -16 -124 -22 -225 -46 -253 -61 -36 -20 -17 10 35&#xA;53 101 85 258 172 460 254 263 107 519 235 613 306 54 42 94 103 94 144 0 134&#xA;-264 159 -567 54 -46 -16 -83 -27 -83 -26 0 2 75 68 168 147 246 211 338 297&#xA;389 364 109 143 124 263 41 316 -55 34 -137 21 -260 -41 -104 -53 -259 -151&#xA;-317 -202 -18 -16 -36 -26 -39 -23 -4 3 -2 9 3 13 6 4 32 41 59 82 80 122 176&#xA;246 316 405 194 221 289 375 321 517 15 69 1 131 -33 149 -32 17 -93 5 -146&#xA;-30 -75 -48 -193 -173 -265 -281 -16 -25 -27 -37 -24 -27 13 36 57 287 77 432&#xA;84 621 13 1456 -179 2090 -183 608 -467 1161 -860 1675 -326 427 -669 750&#xA;-1045 985 -142 88 -474 249 -651 316 -432 162 -964 268 -1425 284 -80 3 -170&#xA;7 -200 9 -30 2 -59 2 -65 0z m820 -1577 c194 -50 317 -114 441 -230 79 -73&#xA;125 -133 183 -240 24 -43 48 -76 54 -74 21 7 29 71 30 229 l0 158 31 -24 c17&#xA;-12 42 -43 56 -67 24 -41 25 -53 25 -191 0 -170 -4 -164 89 -123 35 16 86 28&#xA;131 32 62 5 80 3 116 -15 24 -12 50 -31 57 -42 16 -26 11 -28 -183 -76 -82&#xA;-20 -153 -42 -157 -48 -4 -5 26 -44 65 -86 137 -144 223 -291 254 -433 20 -99&#xA;7 -207 -26 -207 -4 0 -45 56 -92 125 -46 69 -92 128 -103 131 -31 10 -38 -9&#xA;-27 -72 38 -205 -27 -424 -165 -559 -59 -58 -144 -115 -144 -97 0 5 9 50 20&#xA;101 60 283 75 493 44 620 -9 36 -32 96 -51 133 -35 66 -142 202 -183 231 l-20&#xA;14 21 48 c18 41 19 49 6 62 -12 13 -19 8 -52 -39 -88 -121 -234 -247 -357&#xA;-307 -89 -43 -190 -68 -225 -55 -57 20 -43 49 118 239 146 174 209 267 209&#xA;311 0 28 -19 13 -86 -68 -187 -229 -340 -334 -635 -441 -240 -87 -430 -119&#xA;-709 -121 -232 -1 -314 6 -465 44 -132 32 -256 88 -321 144 -47 40 -99 116&#xA;-110 160 -6 27 -5 29 17 22 166 -47 249 -60 379 -60 118 1 146 4 225 28 88 27&#xA;130 50 119 67 -3 5 -43 9 -89 9 -46 0 -108 5 -137 11 -61 13 -151 56 -189 91&#xA;-28 24 -69 86 -69 103 0 6 29 9 73 7 90 -4 216 24 327 72 43 19 163 90 267&#xA;159 286 191 460 275 675 326 117 28 125 28 303 26 133 -2 177 -7 260 -28z&#xA;m509 -957 c67 -83 99 -138 127 -220 19 -55 23 -86 23 -195 -1 -132 -26 -322&#xA;-61 -450 -10 -38 -16 -97 -16 -160 0 -88 5 -113 37 -208 50 -149 58 -188 57&#xA;-299 -2 -332 -204 -607 -519 -709 -454 -146 -1013 -20 -1333 300 -103 104&#xA;-171 218 -234 393 l-33 93 -79 0 c-69 0 -87 4 -146 33 -178 88 -262 252 -228&#xA;447 23 131 89 224 186 261 43 16 51 16 89 3 61 -21 99 -83 126 -206 40 -183&#xA;78 -234 135 -185 85 72 162 225 228 452 36 120 87 337 87 366 0 2 3 3 8 2 17&#xA;-5 144 15 237 37 182 43 434 140 543 209 23 14 42 24 42 21 0 -2 -9 -19 -20&#xA;-37 -25 -41 -26 -99 -1 -129 38 -47 199 -31 326 33 74 38 180 117 250 187 l69&#xA;71 24 -23 c14 -12 48 -51 76 -87z m-2216 -254 c134 -32 319 -50 477 -44 85 3&#xA;125 0 125 -7 0 -17 -75 -291 -110 -400 -18 -55 -47 -133 -66 -174 -33 -72 -96&#xA;-161 -114 -161 -5 0 -14 26 -20 58 -41 194 -76 275 -135 312 -49 30 -133 37&#xA;-189 16 -86 -33 -190 -175 -210 -290 -14 -73 -7 -200 13 -264 38 -124 110&#xA;-206 237 -268 61 -31 80 -35 145 -35 l74 0 17 -67 c9 -37 20 -76 24 -87 7 -18&#xA;4 -17 -27 7 -49 36 -196 125 -304 182 -96 51 -127 82 -197 198 -58 95 -80 162&#xA;-85 264 -5 76 -2 102 16 156 23 69 64 141 112 195 34 40 30 68 -10 59 -112&#xA;-27 -231 -9 -277 41 -23 25 -33 62 -16 64 105 10 295 134 358 233 19 29 34 44&#xA;44 41 8 -2 62 -16 118 -29z m-1864 -485 c138 -48 290 -170 424 -338 36 -46 72&#xA;-85 81 -87 9 -3 77 -15 151 -26 183 -29 341 -63 489 -105 293 -83 651 -239&#xA;920 -401 108 -66 117 -73 155 -138 139 -235 442 -428 794 -507 187 -42 463&#xA;-35 648 16 l83 23 308 -138 c345 -154 513 -230 653 -296 52 -25 104 -46 115&#xA;-46 11 -1 45 6 75 15 92 26 361 76 437 80 122 7 312 -26 364 -64 31 -22 48&#xA;-75 20 -63 -132 57 -249 77 -361 63 -60 -7 -146 -37 -115 -39 6 0 60 -2 120&#xA;-4 143 -5 213 -20 302 -62 101 -48 130 -108 78 -159 -29 -30 -54 -31 -97 -5&#xA;-66 40 -183 70 -277 70 -179 0 -203 -28 -40 -46 159 -18 243 -47 318 -110 40&#xA;-33 41 -81 1 -102 -44 -23 -196 -9 -360 33 -158 41 -304 55 -354 36 -25 -10&#xA;-28 -15 -22 -42 3 -17 23 -52 45 -78 80 -96 96 -177 46 -226 -52 -52 -110 -23&#xA;-191 95 -21 31 -48 54 -90 76 -68 35 -97 72 -120 153 -27 94 -31 99 -71 110&#xA;-73 20 -610 200 -808 271 -163 58 -484 169 -747 258 l-46 15 25 33 c46 61 19&#xA;55 -77 -17 -52 -39 -140 -97 -195 -129 -185 -108 -245 -150 -281 -199 l-35&#xA;-47 -143 -24 c-142 -23 -143 -23 -252 -6 -316 51 -517 127 -630 240 -59 59&#xA;-104 144 -104 196 0 41 146 192 330 340 115 92 100 90 222 27 53 -27 78 -29&#xA;78 -6 0 34 -390 232 -655 332 -59 22 -235 79 -285 92 -8 3 -49 14 -90 26 -106&#xA;30 -373 96 -418 104 -34 5 -44 2 -88 -33 -80 -63 -89 -66 -209 -69 -60 -1&#xA;-162 -5 -225 -9 l-115 -7 -33 28 c-85 71 -5 141 207 180 l92 17 -7 32 c-13 65&#xA;-52 93 -323 231 -156 80 -200 107 -218 134 -49 72 -24 107 70 98 116 -11 278&#xA;-80 398 -168 71 -52 84 -57 92 -35 6 14 -52 73 -127 130 -50 37 -204 103 -288&#xA;122 -52 12 -68 20 -68 33 0 24 38 56 84 71 91 29 288 -56 453 -197 51 -43 73&#xA;-48 73 -17 0 8 -31 45 -68 83 -55 53 -93 79 -186 126 -78 39 -113 61 -104 66&#xA;23 15 117 9 172 -10z m4434 -143 c1 -7 9 -44 18 -83 15 -60 16 -82 6 -150 -14&#xA;-97 -63 -203 -120 -258 l-39 -39 -7 39 c-4 21 -25 93 -47 160 -21 67 -39 137&#xA;-39 155 0 30 5 35 55 57 30 12 80 47 112 77 32 29 58 53 59 54 0 0 1 -6 2 -12z&#xA;m-3228 -1645 c0 -35 50 -123 96 -173 84 -90 194 -140 452 -206 100 -25 213&#xA;-48 260 -51 95 -7 255 12 291 35 l25 15 -22 -34 c-44 -66 -112 -208 -102 -214&#xA;5 -3 32 27 60 67 133 193 119 178 178 178 95 0 314 -31 437 -61 66 -17 121&#xA;-32 123 -33 1 -2 -23 -18 -55 -36 -92 -52 -195 -134 -244 -194 -66 -82 -134&#xA;-206 -148 -270 -14 -65 -11 -65 -118 -14 -45 21 -63 34 -63 48 0 71 -69 190&#xA;-167 287 -102 101 -413 238 -429 188 -2 -5 63 -43 144 -82 81 -40 162 -85 181&#xA;-101 l34 -29 -95 -7 c-175 -12 -252 -47 -369 -166 -76 -77 -149 -196 -149&#xA;-242 0 -14 -50 30 -164 143 -238 239 -304 348 -313 524 -7 134 26 254 110 393&#xA;32 54 47 65 47 35z m1910 -113 c129 -44 339 -117 466 -162 l230 -81 -51 -96&#xA;c-87 -162 -220 -355 -328 -476 l-45 -50 14 80 c53 307 -175 476 -743 550 -63&#xA;8 -140 15 -171 15 l-57 1 43 39 c24 21 107 77 186 124 78 47 157 97 176 111&#xA;19 14 36 25 39 25 3 0 112 -36 241 -80z m47 -434 c108 -51 193 -161 193 -252&#xA;0 -109 -63 -281 -217 -590 -53 -106 -93 -198 -91 -206 3 -7 59 -33 124 -58&#xA;163 -61 354 -159 377 -192 14 -19 18 -34 12 -55 l-7 -28 -21 26 c-29 34 -81&#xA;64 -145 83 -49 14 -53 14 -50 0 2 -9 30 -31 63 -49 33 -19 72 -47 87 -63 14&#xA;-17 29 -28 32 -25 3 3 1 -9 -4 -27 -10 -36 -18 -44 -67 -66 -43 -19 -43 -18&#xA;-43 14 0 44 -60 107 -126 131 -58 22 -104 27 -104 12 0 -6 29 -24 65 -42 81&#xA;-39 117 -79 113 -123 -3 -30 -5 -31 -53 -34 -108 -7 -473 97 -707 202 -72 32&#xA;-128 81 -128 112 0 13 57 135 126 271 119 235 213 444 228 506 12 50 -2 67&#xA;-80 103 l-74 35 15 29 c46 90 208 240 306 284 69 32 111 32 176 2z m-937 -232&#xA;c88 -80 122 -222 81 -342 -37 -109 -214 -382 -397 -612 -59 -74 -111 -141&#xA;-117 -148 -15 -19 7 -38 156 -138 142 -95 273 -215 302 -277 16 -34 16 -41 3&#xA;-75 -10 -28 -20 -38 -41 -40 -23 -3 -27 0 -27 21 0 48 -121 157 -175 157 -24&#xA;0 -19 -8 41 -62 67 -62 97 -115 81 -143 -17 -32 -33 -44 -58 -46 -51 -5 -56 0&#xA;-61 45 -6 48 -42 103 -90 137 -46 33 -49 18 -8 -44 72 -106 62 -167 -27 -167&#xA;-41 0 -43 1 -43 31 0 17 -7 46 -16 64 -21 44 -80 112 -90 103 -4 -4 7 -39 24&#xA;-76 18 -38 32 -80 32 -95 l0 -26 -52 18 c-148 51 -405 214 -538 340 -65 62&#xA;-55 110 49 249 129 171 524 772 534 811 8 33 -20 71 -83 111 l-51 33 70 67&#xA;c71 70 149 115 224 130 23 4 86 8 139 9 l98 1 40 -36z m485 -170 c57 -23 64&#xA;-28 54 -45 -5 -10 -26 -26 -47 -35 -47 -21 -125 -28 -119 -11 2 7 12 36 21 65&#xA;10 28 19 52 22 52 2 0 33 -12 69 -26z m-982 -139 c2 -21 -66 -55 -109 -55 -50&#xA;0 -52 5 -29 70 26 72 30 74 87 32 28 -20 51 -41 51 -47z m720 14 c74 -34 179&#xA;-48 240 -31 20 6 37 7 37 3 0 -23 -158 -318 -175 -326 -11 -5 -74 -39 -140&#xA;-75 -191 -102 -255 -131 -307 -137 -52 -6 -60 3 -28 32 31 28 209 301 252 386&#xA;22 44 41 100 45 129 3 27 7 50 8 50 2 0 32 -14 68 -31z m2626 -369 c47 -5 92&#xA;-10 100 -10 33 0 -1 -10 -104 -30 -180 -34 -322 -68 -665 -157 -377 -97 -341&#xA;-88 -583 -158 -104 -30 -193 -55 -197 -55 -5 0 -11 8 -14 18 -19 57 -127 121&#xA;-373 218 -166 65 -165 78 5 100 318 42 809 81 1112 87 210 4 636 -3 719 -13z&#xA;m-2548 -77 c-35 -69 -40 -72 -126 -79 l-80 -6 80 42 c44 24 91 51 105 61 37&#xA;27 42 23 21 -18z m2796 11 c11 -29 -31 -95 -116 -182 -248 -250 -719 -546&#xA;-1217 -764 -490 -215 -1294 -464 -1779 -552 -692 -126 -1017 -171 -1495 -205&#xA;-210 -15 -693 -13 -855 4 -176 18 -366 48 -485 77 -114 27 -257 85 -275 111&#xA;-30 44 -16 96 52 190 115 158 527 392 1068 607 191 76 608 216 805 270 63 18&#xA;123 34 133 37 14 4 12 -5 -13 -43 -52 -83 -50 -157 7 -224 33 -40 136 -122&#xA;231 -185 40 -27 69 -51 65 -55 -8 -7 -585 -151 -823 -205 -63 -15 -169 -40&#xA;-235 -56 -66 -17 -250 -61 -410 -99 -928 -221 -878 -208 -869 -222 12 -19 66&#xA;-9 699 136 88 20 205 47 260 61 198 48 392 94 505 120 259 59 880 211 913 224&#xA;25 10 36 7 91 -24 159 -89 328 -115 395 -62 7 6 42 12 76 12 56 0 68 4 103 33&#xA;23 17 48 32 57 32 33 0 75 31 95 70 24 46 25 69 6 114 l-14 32 87 22 c79 20&#xA;231 60 481 126 l95 25 125 -31 c144 -37 265 -44 296 -17 11 8 39 21 64 28 61&#xA;17 106 53 120 96 6 19 15 35 19 35 4 0 16 15 26 34 13 24 29 37 54 44 20 6&#xA;131 37 246 70 189 54 345 97 620 169 50 13 185 45 300 73 392 92 480 105 492&#xA;74z m-2869 -151 c-56 -109 -59 -154 -16 -200 45 -48 189 -118 356 -173 l82&#xA;-27 -307 -77 c-278 -69 -308 -75 -316 -60 -23 40 -139 137 -258 215 -70 46&#xA;-128 87 -128 92 -1 8 110 147 133 166 16 14 124 33 311 55 139 17 148 18 143&#xA;9z"/>
    <path d="M5115 6987 c-90 -30 -170 -86 -205 -142 -14 -23 -18 -40 -13 -50 7&#xA;-12 18 -9 67 21 119 72 172 89 271 88 70 -1 108 -7 168 -27 96 -33 107 -33&#xA;107 -4 0 31 -21 49 -104 88 -58 27 -82 32 -160 35 -58 3 -105 -1 -131 -9z"/>
    <path d="M5990 6941 c-69 -23 -150 -79 -150 -104 0 -23 24 -27 71 -10 62 22&#xA;158 28 217 13 28 -6 80 -29 116 -51 36 -21 70 -39 75 -39 17 0 13 53 -6 80&#xA;-47 68 -134 112 -228 116 -38 2 -81 0 -95 -5z"/>
    <path d="M5133 6696 c-60 -19 -104 -49 -156 -105 -137 -146 -155 -380 -42&#xA;-534 42 -56 141 -132 193 -148 68 -20 184 -23 244 -5 64 18 148 78 185 129 23&#xA;32 27 34 56 26 17 -5 54 -6 81 -3 98 12 189 -34 202 -101 13 -72 -34 -141&#xA;-115 -170 -56 -19 -100 -19 -151 1 -32 13 -44 14 -53 5 -18 -18 44 -71 86 -73&#xA;145 -7 233 35 268 128 11 30 16 32 73 36 108 9 191 66 256 177 70 120 91 253&#xA;56 359 -24 71 -108 162 -183 198 -149 70 -332 28 -484 -113 l-46 -43 -19 42&#xA;c-36 79 -91 138 -161 170 -55 26 -80 31 -157 34 -59 3 -106 -1 -133 -10z m234&#xA;-61 c65 -19 131 -78 170 -152 44 -83 54 -123 55 -207 1 -61 -3 -83 -25 -128&#xA;-36 -73 -107 -144 -174 -175 -48 -22 -65 -25 -136 -21 -68 3 -94 10 -151 38&#xA;-83 41 -148 116 -172 199 -22 74 -15 199 16 265 39 86 122 160 210 187 43 13&#xA;154 10 207 -6z m701 -61 c72 -21 151 -93 182 -166 19 -44 22 -65 18 -143 -3&#xA;-76 -9 -101 -32 -148 -53 -104 -152 -180 -246 -189 -33 -3 -35 -1 -40 34 -9&#xA;49 -52 103 -103 129 -37 19 -53 21 -140 16 -72 -4 -97 -2 -93 6 29 70 38 127&#xA;33 213 l-6 91 45 46 c107 106 252 148 382 111z"/>
    <path d="M5358 6333 c-24 -29 -29 -40 -38 -99 -16 -96 24 -153 95 -140 37 7&#xA;81 52 91 92 20 80 -29 164 -96 164 -23 0 -43 -7 -52 -17z"/>
    <path d="M6021 6304 c-51 -36 -68 -151 -32 -210 22 -36 43 -44 87 -32 45 12&#xA;88 93 81 155 -7 61 -35 97 -78 101 -20 2 -44 -4 -58 -14z"/>
    <path d="M4856 5860 c-74 -23 -111 -100 -104 -217 6 -97 38 -171 113 -264 114&#xA;-142 283 -218 481 -219 171 0 286 42 388 143 65 66 121 164 111 196 -11 35&#xA;-76 70 -150 80 -278 40 -466 104 -672 229 -88 54 -123 65 -167 52z m119 -83&#xA;c28 -18 68 -46 90 -61 54 -37 152 -83 253 -117 89 -30 256 -69 296 -69 35 0&#xA;43 -20 17 -42 -80 -64 -232 -42 -465 70 -127 61 -204 111 -269 173 -42 41 -48&#xA;51 -37 64 20 24 61 18 115 -18z m4 -278 c138 -38 247 -112 328 -223 52 -72 47&#xA;-76 -60 -51 -123 30 -225 83 -308 163 -41 38 -82 84 -92 101 l-18 31 37 0 c21&#xA;0 72 -9 113 -21z"/>
    <path d="M4175 9190 c-125 -34 -211 -69 -345 -137 -97 -50 -256 -150 -324&#xA;-205 -73 -58 -183 -159 -204 -187 -20 -28 -28 -51 -17 -51 2 0 59 42 125 94&#xA;275 217 493 335 839 456 58 20 107 42 109 48 6 20 -75 12 -183 -18z"/>
    <path d="M3300 9133 c-75 -21 -228 -108 -357 -204 -106 -78 -293 -255 -293&#xA;-276 0 -28 23 -13 135 83 87 74 234 181 376 273 68 44 133 86 143 94 22 15 19&#xA;36 -4 30z"/>
    <path d="M6020 8703 c0 -5 10 -13 23 -19 156 -75 484 -296 657 -442 187 -159&#xA;376 -377 547 -632 172 -256 328 -580 427 -888 81 -251 156 -618 171 -827 3&#xA;-49 7 -108 10 -130 2 -22 7 -110 11 -195 7 -163 17 -213 29 -146 8 40 0 498&#xA;-10 576 -87 697 -317 1290 -700 1805 -100 136 -141 183 -264 309 -193 199&#xA;-353 326 -590 468 -148 88 -311 152 -311 121z"/>
    <path d="M1053 7763 c-104 -71 -213 -253 -213 -354 0 -78 32 -107 113 -100 27&#xA;2 113 87 152 151 47 77 86 183 87 236 2 92 -59 121 -139 67z m75 -86 c-11&#xA;-133 -163 -349 -215 -306 -37 31 19 183 101 276 38 43 90 83 110 83 5 0 6 -24&#xA;4 -53z"/>
    <path d="M1534 7405 c-90 -45 -233 -162 -306 -249 -116 -138 -148 -248 -89&#xA;-307 39 -39 88 -39 168 1 125 62 315 286 381 449 28 69 28 105 0 125 -35 25&#xA;-79 19 -154 -19z m100 -93 c-59 -134 -165 -270 -285 -365 -57 -46 -106 -65&#xA;-144 -58 -41 8 -44 46 -10 116 46 95 151 203 290 298 59 41 152 80 167 71 4&#xA;-3 -4 -30 -18 -62z"/>
    <path d="M8030 7380 c0 -6 24 -59 54 -118 223 -446 374 -948 426 -1417 6 -55&#xA;13 -116 16 -135 9 -75 12 -521 3 -640 -34 -472 -142 -873 -337 -1255 -60 -117&#xA;-197 -324 -294 -445 -73 -89 -91 -120 -69 -120 15 0 130 129 201 225 216 291&#xA;377 663 475 1099 75 335 102 795 69 1191 -43 527 -240 1181 -460 1522 -54 85&#xA;-84 118 -84 93z"/>
    <path d="M7230 6352 c0 -4 13 -68 30 -142 40 -184 51 -287 52 -475 1 -272 -33&#xA;-503 -123 -836 -40 -153 -45 -179 -30 -179 17 0 85 196 130 375 24 98 57 289&#xA;70 410 13 125 6 431 -14 540 -29 167 -77 315 -101 315 -8 0 -14 -3 -14 -8z"/>
    <path d="M8936 4978 c-30 -439 -201 -1015 -438 -1483 -193 -380 -375 -638&#xA;-652 -923 -146 -150 -332 -322 -349 -322 -6 0 -3 8 5 18 29 33 77 127 88 172&#xA;23 91 -19 130 -118 109 -124 -25 -299 -135 -769 -480 -265 -194 -476 -325&#xA;-666 -413 l-98 -46 34 43 c104 127 86 196 -46 184 -105 -10 -270 -78 -469&#xA;-195 -257 -152 -541 -279 -705 -316 l-62 -14 20 27 c24 33 18 69 -17 102 -19&#xA;18 -39 24 -90 27 -100 7 -161 -4 -549 -97 -302 -72 -367 -82 -583 -88 -165 -5&#xA;-191 -8 -180 -20 24 -23 135 -35 278 -29 162 7 265 23 485 76 429 103 615 123&#xA;615 65 0 -6 -11 -17 -25 -23 -29 -13 -43 -56 -25 -77 17 -20 104 -20 182 1&#xA;137 35 421 166 756 348 170 92 290 141 377 153 25 3 45 2 45 -3 0 -12 -127&#xA;-180 -168 -223 -28 -29 -31 -36 -20 -48 12 -11 24 -9 78 13 186 75 515 254&#xA;684 372 85 59 294 211 411 297 238 177 433 290 524 302 39 5 41 4 41 -21 0&#xA;-54 -75 -173 -197 -311 -128 -146 -184 -238 -185 -308 -1 -114 161 -99 405 38&#xA;141 79 339 216 397 275 15 16 207 166 280 220 154 113 324 184 365 150 60 -50&#xA;-79 -304 -234 -428 -23 -18 -41 -42 -41 -52 0 -11 2 -20 5 -20 36 0 200 146&#xA;257 228 53 77 90 163 95 222 5 52 3 60 -23 89 -66 74 -201 41 -399 -97 -80&#xA;-56 -365 -275 -418 -322 -69 -61 -271 -194 -364 -239 -109 -54 -219 -88 -246&#xA;-78 -26 10 -20 48 18 112 59 98 120 160 233 238 135 94 287 231 468 423 177&#xA;186 257 284 368 449 309 459 533 1017 626 1560 22 127 38 384 26 428 -12 51&#xA;-23 27 -30 -65z"/>
    <path d="M1295 3159 c-113 -27 -267 -96 -352 -160 -93 -70 -133 -177 -89 -244&#xA;32 -48 91 -70 191 -69 102 1 157 11 335 61 141 40 297 73 343 73 49 0 107 -19&#xA;114 -37 4 -9 -3 -33 -15 -54 -26 -45 -28 -76 -6 -108 48 -68 208 -67 424 5 89&#xA;29 109 40 95 52 -6 6 -65 -2 -150 -19 -157 -32 -239 -36 -290 -15 -39 17 -43&#xA;30 -17 59 26 29 23 99 -7 131 -66 70 -203 59 -561 -41 -106 -30 -142 -36 -235&#xA;-37 -135 -1 -165 12 -165 72 0 82 93 160 291 246 75 33 123 46 232 61 23 4 37&#xA;11 37 20 0 12 -15 15 -67 14 -38 -1 -86 -5 -108 -10z"/>
    <path d="M1216 2268 c-49 -4 -125 -15 -170 -23 -44 -9 -144 -21 -222 -27 -130&#xA;-11 -149 -10 -240 8 -55 12 -107 24 -118 29 -33 15 -14 -27 23 -49 92 -53 318&#xA;-58 591 -13 85 14 184 29 220 32 102 9 116 14 99 30 -19 18 -77 22 -183 13z"/>
    <path d="M6755 1495 c-137 -29 -204 -50 -425 -132 -246 -92 -324 -118 -494&#xA;-168 -154 -46 -173 -55 -161 -75 21 -34 357 59 705 195 193 76 395 128 553&#xA;142 64 5 67 5 67 -16 0 -11 -17 -40 -37 -63 -39 -42 -164 -139 -222 -170 -28&#xA;-15 -30 -20 -21 -38 8 -15 21 -20 56 -20 66 0 184 27 293 66 53 20 123 44 156&#xA;55 33 12 129 45 213 75 212 75 329 104 427 104 44 0 90 -3 102 -6 86 -23 -16&#xA;-147 -226 -276 -100 -61 -161 -113 -161 -138 0 -34 38 -55 104 -57 63 -1 91 2&#xA;281 34 149 24 433 24 560 -1 282 -55 365 -66 500 -68 151 -1 235 12 235 38 0&#xA;11 -26 14 -143 14 -165 0 -306 17 -532 63 -146 29 -176 32 -340 32 -147 -1&#xA;-210 -6 -346 -28 -173 -28 -239 -33 -239 -18 0 5 21 21 48 37 161 93 275 180&#xA;323 247 38 52 40 117 5 152 -47 46 -164 58 -302 29 -79 -16 -361 -109 -569&#xA;-187 -153 -57 -212 -77 -253 -87 -31 -8 -29 -4 34 53 121 111 149 170 101 215&#xA;-20 19 -34 22 -103 21 -43 0 -128 -11 -189 -24z"/>
    <path d="M2425 1224 c-180 -18 -247 -26 -290 -34 -125 -25 -221 -44 -354 -71&#xA;-162 -33 -253 -47 -356 -55 -38 -3 -82 -7 -96 -9 -29 -3 -241 11 -279 19 -14&#xA;3 -49 10 -79 16 -63 12 -250 74 -303 101 -44 23 -53 6 -15 -28 66 -61 218&#xA;-114 452 -158 17 -3 86 -8 155 -10 142 -4 279 13 560 69 409 82 579 102 800&#xA;92 256 -10 480 -86 480 -161 0 -55 -166 -123 -342 -141 -37 -4 -78 -8 -90 -9&#xA;-13 -1 -55 -3 -94 -4 -61 -1 -72 -4 -77 -20 -7 -28 10 -49 61 -75 219 -111&#xA;557 -127 967 -47 115 23 139 28 490 109 533 123 698 152 925 159 172 6 308 -9&#xA;386 -42 80 -33 16 -89 -148 -129 -79 -19 -93 -26 -96 -44 -5 -31 37 -65 111&#xA;-92 195 -72 444 -67 897 16 153 28 247 36 410 37 174 1 195 -1 352 -33 92 -19&#xA;170 -32 173 -29 11 12 -7 37 -33 48 -238 92 -543 104 -942 36 -49 -8 -236 -35&#xA;-300 -42 -36 -5 -139 -8 -230 -8 -140 0 -180 4 -263 24 -95 23 -109 32 -64 38&#xA;50 7 170 58 198 84 35 32 38 74 9 111 -42 54 -199 88 -405 88 -242 0 -497 -44&#xA;-1060 -180 -445 -107 -622 -135 -875 -134 -163 0 -211 3 -292 22 -53 11 -111&#xA;27 -130 35 -32 13 -29 14 72 20 123 7 279 44 351 84 133 72 134 174 2 245 -65&#xA;36 -161 67 -258 84 -81 15 -307 25 -380 18z"/>
  </g>
  <title>Surfer na wielkiej fali</title>
  <desc>Odważny surfer płynie na desce po grzbiecie ogromnej fali. Surfing to sport wymagający odwagi i doskonałej równowagi. Poczuj siłę oceanu!</desc>
</svg>