<?xml version="1.0" encoding="UTF-8" standalone="yes"?>
<svg version="1.0" xmlns="http://www.w3.org/2000/svg" width="1024.000000pt" height="1024.000000pt" viewBox="0 0 1024.000000 1024.000000" preserveAspectRatio="xMidYMid meet">
  <metadata>
Created by potrace 1.16, written by Peter Selinger 2001-2019
</metadata>
  <g transform="translate(0.000000,1024.000000) scale(0.100000,-0.100000)" fill="#000000" stroke="none">
    <path d="M2080 9667 c-3 -3 -77 -8 -165 -12 -88 -4 -162 -8 -165 -10 -3 -2&#xA;-55 -6 -115 -10 -61 -3 -130 -11 -155 -16 -222 -50 -455 -395 -568 -844 -43&#xA;-171 -58 -249 -68 -362 -4 -40 -7 -73 -8 -73 0 -1 -48 -5 -105 -9 -121 -11&#xA;-144 -22 -181 -97 -22 -42 -25 -62 -25 -149 0 -88 3 -107 25 -149 36 -70 71&#xA;-86 191 -86 l97 0 7 -57 c62 -515 259 -934 493 -1052 120 -61 174 -66 658 -66&#xA;l310 0 75 37 c101 50 177 126 241 242 33 60 33 54 11 -101 -24 -174 -24 -639&#xA;0 -828 52 -401 149 -730 312 -1060 74 -149 206 -361 223 -358 6 2 9 -3 7 -10&#xA;-11 -29 252 -310 355 -379 33 -23 35 -26 37 -93 5 -112 41 -260 120 -493 29&#xA;-84 110 -218 191 -314 58 -69 173 -219 192 -249 8 -15 5 -16 -28 -8 -119 28&#xA;-553 -15 -712 -69 -190 -66 -294 -170 -362 -361 -25 -71 -34 -231 -19 -329 13&#xA;-84 58 -232 106 -347 19 -44 47 -114 64 -157 16 -42 38 -96 49 -120 11 -23 34&#xA;-79 52 -122 18 -44 41 -87 50 -96 9 -9 19 -24 23 -33 5 -14 0 -17 -24 -17 -16&#xA;0 -61 -13 -100 -30 -38 -16 -102 -39 -142 -51 -191 -56 -382 -191 -439 -309&#xA;-28 -59 -35 -144 -15 -192 25 -59 99 -101 217 -124 19 -3 137 -8 262 -11 316&#xA;-7 621 28 943 108 152 38 219 68 239 108 23 43 21 169 -4 267 -26 99 -91 235&#xA;-129 267 -32 27 -37 39 -46 117 -4 30 -20 120 -36 200 -25 126 -41 182 -74&#xA;264 -8 17 -4 18 41 13 27 -3 96 -11 154 -18 125 -14 321 -8 515 16 136 17 144&#xA;17 295 -3 162 -21 461 -28 575 -14 33 4 67 6 75 4 10 -2 29 -42 52 -110 20&#xA;-59 55 -159 78 -222 23 -63 65 -181 93 -262 l50 -147 -58 -63 c-56 -61 -88&#xA;-87 -213 -174 -66 -47 -140 -136 -165 -202 -35 -89 -10 -186 65 -245 173 -138&#xA;862 -102 1173 61 147 77 182 141 171 313 -11 183 -48 314 -115 416 -36 55 -40&#xA;67 -60 213 -12 85 -33 223 -46 307 l-25 152 61 57 c127 122 197 336 170 522&#xA;-23 163 -88 299 -197 416 -77 83 -139 180 -160 251 -15 49 -18 92 -17 230 1&#xA;262 14 638 21 650 4 6 18 18 32 26 42 27 179 159 256 247 300 342 549 922 628&#xA;1462 8 58 18 123 21 145 15 97 14 515 0 686 -21 247 -84 692 -124 871 -8 34&#xA;-5 42 34 94 24 32 50 80 58 108 l15 51 1 -40 c1 -22 10 -103 22 -180 85 -583&#xA;309 -948 604 -984 90 -11 235 -15 565 -15 l265 -1 57 27 c190 89 364 402 458&#xA;824 17 75 36 180 42 235 l12 99 65 1 c135 2 161 15 206 104 28 56 30 67 30&#xA;175 0 182 -27 213 -197 223 -55 4 -102 8 -103 9 -2 2 -6 39 -10 83 -18 225&#xA;-60 442 -125 636 -86 262 -204 437 -337 500 -61 29 -75 31 -231 40 -185 10&#xA;-526 9 -673 -1 -82 -6 -104 -11 -150 -38 -167 -96 -333 -384 -423 -737 -31&#xA;-120 -62 -292 -72 -395 -8 -85 -22 -136 -24 -85 -1 37 -29 101 -62 140 -56 66&#xA;-185 101 -281 76 -41 -10 -51 -8 -102 15 -44 20 -72 26 -128 26 -40 0 -84 -5&#xA;-99 -11 -16 -6 -61 -8 -111 -4 -111 8 -166 -2 -221 -38 -50 -34 -100 -110&#xA;-111 -172 l-8 -39 -81 7 c-44 3 -106 8 -136 10 -84 7 -449 24 -700 32 -124 5&#xA;-519 8 -877 8 l-653 -1 0 22 c0 70 -60 158 -133 196 -44 22 -146 24 -207 3&#xA;-30 -11 -40 -9 -75 9 -54 28 -183 29 -235 2 -25 -14 -53 -18 -96 -17 -70 2&#xA;-152 -14 -175 -35 -14 -13 -17 -4 -33 89 -73 428 -199 726 -374 889 -94 87&#xA;-134 102 -277 106 -66 2 -122 2 -125 -1z m-74 -130 c-69 -71 -160 -212 -160&#xA;-248 0 -10 -3 -16 -7 -14 -8 6 -25 -32 -66 -150 -53 -153 -92 -314 -118 -490&#xA;-70 -475 -41 -947 82 -1354 64 -213 155 -373 273 -485 l70 -66 -152 0 c-129 0&#xA;-160 3 -195 19 -129 59 -276 289 -362 567 -34 109 -75 289 -86 374 -3 30 -8&#xA;66 -10 80 -24 163 -29 533 -10 665 2 17 11 81 20 144 61 455 248 873 440 986&#xA;34 20 59 25 170 31 72 3 131 7 132 8 1 1 13 2 26 4 20 1 13 -10 -47 -71z m353&#xA;44 c203 -105 359 -422 441 -896 11 -66 23 -130 26 -143 3 -16 -1 -24 -13 -28&#xA;-75 -25 -125 -58 -149 -99 -14 -25 -23 -49 -19 -55 4 -6 -12 -10 -43 -10 -47&#xA;0 -50 2 -61 33 -44 120 -111 187 -187 187 -25 0 -58 -7 -74 -15 -43 -22 -99&#xA;-96 -132 -177 -26 -62 -31 -90 -35 -188 -6 -137 6 -209 48 -295 101 -205 284&#xA;-190 368 30 l19 50 73 7 c98 10 99 9 87 -44 -19 -83 7 -205 54 -255 l20 -22&#xA;-26 -103 c-14 -57 -37 -158 -51 -225 -79 -377 -260 -605 -470 -591 -156 10&#xA;-313 187 -421 475 -40 107 -82 284 -110 469 -23 156 -27 212 -28 434 -1 313&#xA;22 531 85 785 89 358 250 633 406 691 53 20 140 13 192 -15z m-730 -34 c-198&#xA;-176 -365 -634 -409 -1122 -14 -147 -4 -585 15 -705 43 -273 104 -487 189&#xA;-662 58 -119 157 -262 209 -299 l40 -29 -79 6 c-208 15 -316 78 -428 247 -102&#xA;154 -159 294 -216 528 -51 209 -65 338 -64 599 0 255 9 338 66 590 74 331 198&#xA;592 355 747 95 95 175 128 313 132 l45 1 -36 -33z m6636 -11 c-45 -35 -136&#xA;-167 -198 -286 -102 -195 -175 -432 -217 -708 -31 -200 -35 -264 -35 -497 1&#xA;-385 72 -752 195 -1010 55 -113 155 -262 196 -288 37 -24 44 -37 17 -32 -10 2&#xA;-63 6 -118 9 -143 7 -207 31 -294 111 -137 126 -270 419 -316 698 -3 18 -10&#xA;58 -16 90 -19 110 -39 352 -39 487 0 427 97 859 261 1156 89 161 176 250 274&#xA;280 22 6 103 12 180 13 l140 1 -30 -24z m412 18 l29 -6 -64 -61 c-35 -34 -82&#xA;-87 -103 -119 -102 -149 -208 -421 -244 -628 -3 -17 -12 -61 -19 -98 -8 -37&#xA;-19 -116 -25 -177 -6 -60 -16 -148 -21 -195 -15 -146 -2 -512 25 -695 40 -265&#xA;138 -548 242 -701 22 -32 65 -82 96 -111 30 -29 53 -53 52 -55 -2 -2 -75 -1&#xA;-162 2 l-159 5 -52 39 c-175 128 -319 457 -381 871 -32 207 -43 516 -26 690&#xA;56 571 248 1066 472 1214 46 31 48 31 178 31 73 0 146 -3 162 -6z m234 -26&#xA;c212 -72 406 -522 454 -1053 3 -38 9 -83 12 -99 5 -28 5 -28 -38 -23 -24 3&#xA;-51 6 -59 6 -12 1 -19 24 -29 98 -47 351 -201 555 -359 474 -52 -27 -119 -105&#xA;-151 -176 -91 -202 -131 -400 -131 -655 0 -459 145 -781 336 -746 93 18 217&#xA;204 266 401 13 50 26 92 29 95 4 3 37 3 73 2 l67 -4 -6 -46 c-51 -378 -147&#xA;-673 -290 -887 -63 -95 -108 -138 -179 -171 -192 -89 -374 78 -505 462 -55&#xA;160 -80 282 -108 514 -10 84 -10 528 0 649 11 131 52 366 87 497 71 268 163&#xA;454 284 574 91 91 164 117 247 88z m114 -648 c61 -38 117 -143 154 -290 21&#xA;-85 36 -196 30 -215 -2 -6 -51 -10 -119 -10 -106 0 -118 -2 -149 -24 -20 -15&#xA;-44 -46 -59 -80 -22 -48 -26 -70 -26 -156 0 -111 21 -180 66 -209 15 -10 70&#xA;-20 146 -27 77 -8 122 -17 122 -24 0 -30 -55 -197 -86 -258 -153 -310 -338&#xA;-225 -425 195 -30 147 -34 399 -9 568 59 393 210 619 355 530z m-5657 -289&#xA;l21 -11 -30 -58 c-22 -41 -30 -67 -27 -94 3 -36 2 -37 -41 -48 -72 -18 -100&#xA;-37 -122 -84 -32 -68 -8 -133 69 -185 17 -12 32 -25 32 -29 0 -4 -16 -12 -36&#xA;-19 -33 -10 -39 -9 -60 12 -92 92 -117 311 -50 443 35 70 79 94 162 88 33 -2&#xA;70 -9 82 -15z m307 -25 c41 -24 73 -72 81 -123 6 -40 5 -42 -22 -49 -45 -12&#xA;-285 -8 -355 5 -9 1 5 71 18 96 15 27 51 59 88 78 41 21 150 17 190 -7z m-593&#xA;-2 c3 -3 -1 -19 -10 -36 -53 -107 -46 -306 14 -416 l23 -43 -27 -11 c-15 -5&#xA;-45 -12 -67 -15 -34 -4 -46 -1 -72 21 -86 72 -121 320 -61 429 19 34 32 45 73&#xA;59 49 17 116 23 127 12z m3830 -19 c17 -7 17 -9 -1 -34 -33 -47 -58 -105 -71&#xA;-163 -12 -54 -15 -58 -46 -64 -26 -5 -40 0 -67 20 -20 15 -51 30 -71 33 -32 5&#xA;-36 9 -36 37 0 46 30 123 61 152 40 39 157 48 231 19z m-299 -4 c4 -4 0 -22&#xA;-9 -40 -9 -17 -21 -58 -27 -90 l-11 -57 -95 -14 c-53 -7 -111 -15 -129 -17&#xA;l-33 -5 6 38 c13 75 26 103 70 143 42 39 60 47 115 53 35 4 104 -3 113 -11z&#xA;m611 -45 c66 -39 99 -86 104 -152 l4 -54 -48 4 c-41 3 -50 8 -52 25 -10 66&#xA;-65 -41 -77 -149 -9 -79 -23 -117 -52 -140 -29 -23 -95 -26 -130 -7 -107 60&#xA;-127 300 -35 440 47 71 193 88 286 33z m-4806 -2 c29 -23 91 -129 81 -138 -2&#xA;-2 -26 -6 -54 -9 -121 -13 -163 -60 -163 -182 0 -133 54 -198 160 -193 l56 3&#xA;-19 -50 c-23 -63 -89 -125 -131 -125 -154 0 -245 296 -168 543 17 55 32 80 74&#xA;123 45 47 57 54 91 54 26 0 49 -8 73 -26z m387 -146 c1 -117 16 -192 56 -270&#xA;l19 -38 -39 0 c-57 0 -82 15 -119 68 -76 112 -54 279 45 331 21 11 38 20 38&#xA;21 0 0 0 -51 0 -112z m2319 -2 c208 -3 381 -8 385 -10 3 -2 105 -7 226 -11&#xA;121 -4 223 -9 226 -11 3 -1 68 -6 145 -10 182 -9 184 -10 140 -57 -38 -41 -66&#xA;-112 -66 -164 l0 -34 -42 5 c-79 10 -361 26 -630 36 -240 9 -1595 5 -1675 -6&#xA;l-53 -6 0 43 c0 54 -31 123 -73 167 -23 23 -28 35 -20 43 8 8 128 13 375 16&#xA;199 3 364 6 365 7 2 2 298 -1 697 -8z m-1584 -22 c97 -29 157 -79 181 -151 16&#xA;-50 6 -142 -22 -200 -28 -56 -153 -185 -226 -232 -38 -24 -53 -41 -58 -65 -11&#xA;-47 -14 -606 -5 -731 32 -415 26 -387 187 -866 l106 -315 -31 -80 c-63 -165&#xA;-76 -307 -41 -456 31 -132 115 -270 211 -349 29 -23 56 -46 61 -49 4 -4 -13&#xA;-51 -39 -106 -116 -250 -210 -573 -214 -739 -1 -38 -2 -39 -13 -15 -7 16 -11&#xA;89 -11 200 0 155 3 188 27 291 14 64 29 123 33 133 3 9 4 16 1 16 -11 0 -75&#xA;-171 -97 -257 -12 -51 -25 -93 -29 -93 -17 0 -235 218 -299 298 -254 319 -446&#xA;753 -536 1212 -34 173 -39 214 -56 405 -8 92 -5 537 4 595 2 14 7 54 11 90 24&#xA;233 66 469 121 694 l34 138 -26 21 c-41 32 -64 92 -63 167 1 105 -7 100 159&#xA;104 110 2 155 7 187 21 24 9 50 14 59 11 14 -5 13 -9 -5 -32 -30 -38 -53 -117&#xA;-49 -171 3 -45 4 -46 14 -23 7 14 19 51 29 84 34 118 140 195 270 197 77 1&#xA;138 18 143 40 2 12 -20 14 -128 12 -129 -1 -130 -1 -170 28 -62 45 -75 91 -37&#xA;135 42 49 212 69 317 38z m5868 -30 c45 -4 82 -8 82 -10 0 -2 -8 -23 -17 -46&#xA;-26 -63 -25 -259 0 -307 l19 -34 -109 6 c-276 16 -409 29 -431 44 -35 22 -52&#xA;73 -52 155 0 94 14 144 52 181 l29 30 172 -6 c95 -4 209 -9 255 -13z m-6788&#xA;-37 c0 -57 22 -129 54 -178 l26 -39 -42 -1 c-24 0 -52 -2 -63 -4 -11 -2 -62&#xA;-5 -114 -8 -82 -4 -96 -2 -113 15 -28 28 -38 62 -38 128 0 103 33 122 223 129&#xA;l67 2 0 -44z m4031 33 c50 -14 71 -41 73 -93 1 -51 -18 -84 -70 -123 -41 -32&#xA;-124 -43 -186 -26 -55 15 -67 -1 -21 -29 33 -21 51 -24 133 -25 52 0 103 -1&#xA;112 -2 27 -3 97 -70 119 -114 11 -21 24 -38 29 -38 15 0 12 47 -6 81 -8 17&#xA;-14 32 -12 33 2 1 26 7 54 12 36 7 64 6 99 -2 26 -7 86 -13 133 -13 80 0 127&#xA;-4 211 -17 l33 -5 -6 -51 c-9 -62 -26 -98 -78 -160 l-39 -48 20 -97 c38 -185&#xA;80 -464 101 -673 6 -58 13 -121 16 -140 14 -95 12 -570 -2 -695 -53 -471 -198&#xA;-904 -428 -1284 -154 -254 -334 -448 -551 -593 -95 -64 -107 -83 -44 -73 24 4&#xA;48 11 53 16 23 21 28 6 21 -58 -10 -91 -41 -188 -77 -241 -118 -171 -361 -172&#xA;-529 -2 -86 88 -166 269 -193 440 -11 69 -14 306 -5 380 12 99 43 232 69 302&#xA;50 134 211 324 317 373 l52 23 -4 -136 c-5 -155 0 -147 39 58 36 197 132 488&#xA;259 790 161 385 154 363 182 557 38 259 80 686 91 925 l7 136 -33 17 c-18 9&#xA;-38 21 -44 26 -6 6 -44 32 -85 58 -138 91 -241 214 -241 290 0 41 22 99 52&#xA;135 32 39 109 72 191 82 29 4 54 8 56 10 9 8 97 4 132 -6z m2973 -12 c14 -6&#xA;35 -31 47 -56 18 -37 21 -55 16 -115 -12 -137 -51 -211 -110 -205 -26 2 -35&#xA;11 -56 51 -21 41 -24 60 -23 134 3 165 45 228 126 191z m-8796 -183 l2 -185&#xA;-63 -1 c-139 -4 -159 6 -182 83 -27 92 -15 217 25 253 21 19 85 32 160 34 l56&#xA;1 2 -185z m6006 86 c4 -40 17 -89 30 -114 l22 -45 -57 -11 c-52 -11 -62 -10&#xA;-99 9 -46 23 -48 30 -19 56 29 25 59 91 59 130 0 37 6 44 35 44 20 0 23 -7 29&#xA;-69z m556 -70 l0 -134 -40 7 c-22 3 -74 9 -115 13 -42 3 -78 10 -81 14 -3 5&#xA;-1 9 5 9 13 0 38 83 45 154 4 32 9 62 11 66 2 4 43 7 90 6 l85 -1 0 -134z&#xA;m-2020 -75 c294 -7 344 -9 623 -27 82 -5 159 -9 172 -9 18 0 29 -12 49 -55 15&#xA;-30 41 -66 59 -81 18 -14 50 -43 72 -64 22 -20 81 -63 130 -96 50 -32 92 -62&#xA;95 -66 5 -6 -11 -270 -24 -408 -4 -36 -9 -92 -12 -125 -3 -33 -9 -94 -14 -135&#xA;-5 -41 -14 -115 -20 -165 -38 -315 -49 -361 -125 -540 -39 -93 -82 -196 -95&#xA;-228 -22 -57 -23 -57 -38 -35 -8 13 -31 39 -50 60 l-34 36 26 54 c36 74 49&#xA;156 43 269 l-5 96 34 12 c24 9 41 25 56 54 76 150 -39 404 -217 478 -41 17&#xA;-55 28 -55 43 0 34 -28 116 -55 161 -111 191 -288 290 -579 326 -81 10 -95 15&#xA;-126 43 -206 189 -518 327 -776 342 l-100 7 -37 -33 c-26 -22 -37 -40 -37 -60&#xA;l0 -28 -92 30 c-68 22 -120 31 -193 35 -162 8 -220 -18 -272 -125 -35 -71 -39&#xA;-179 -9 -255 l18 -48 -40 -34 c-50 -43 -67 -99 -59 -193 10 -127 84 -268 178&#xA;-339 54 -42 53 -37 24 -138 -26 -94 -31 -263 -10 -365 10 -47 17 -96 17 -110&#xA;-1 -14 -3 -70 -5 -126 l-4 -100 -50 -85 c-28 -46 -61 -104 -73 -128 -13 -25&#xA;-25 -40 -31 -34 -10 10 -177 511 -207 623 -29 106 -50 258 -62 450 -11 180&#xA;-12 624 -2 706 7 49 10 53 77 104 39 29 88 71 109 94 47 49 111 146 120 180 7&#xA;28 20 30 336 34 101 2 185 4 186 5 5 4 808 -1 1084 -7z m-709 -141 c231 -51&#xA;465 -178 627 -342 40 -41 77 -71 83 -68 5 4 7 11 4 16 -4 5 -8 17 -10 27 -3&#xA;18 0 18 98 1 182 -32 301 -87 399 -184 69 -69 127 -180 135 -258 l5 -54 46&#xA;-12 c87 -23 173 -109 218 -218 40 -99 27 -211 -28 -229 -21 -6 -43 11 -68 55&#xA;-19 34 -22 -3 -6 -70 34 -142 28 -269 -20 -376 -21 -49 -27 -55 -46 -49 -66&#xA;19 -141 26 -177 16 -74 -20 -170 -110 -215 -201 l-32 -66 -18 56 c-78 247&#xA;-101 374 -93 525 6 132 25 197 81 289 76 125 87 150 82 180 -18 90 -153 174&#xA;-334 207 -133 24 -304 11 -497 -39 -211 -53 -417 -73 -536 -51 -71 13 -203 79&#xA;-261 130 -52 45 -68 41 -37 -9 l20 -33 -38 -45 c-41 -48 -100 -131 -107 -148&#xA;-5 -13 -89 68 -127 122 -74 107 -107 281 -63 339 37 50 48 51 87 7 43 -47 112&#xA;-82 129 -65 7 7 -9 30 -60 79 -54 53 -74 81 -91 126 -53 144 -4 287 109 317&#xA;100 27 323 -17 427 -84 38 -24 83 -42 83 -33 0 3 -11 27 -25 54 -14 26 -26 59&#xA;-27 72 -6 57 79 62 283 16z m737 -811 c143 -29 282 -116 282 -177 0 -10 -15&#xA;-37 -34 -60 -44 -54 -99 -167 -117 -237 -20 -78 -17 -303 4 -409 37 -181 115&#xA;-411 139 -411 5 0 8 4 8 9 0 5 6 16 13 23 7 7 22 37 34 65 33 80 76 136 139&#xA;179 51 35 62 39 118 39 38 -1 73 -7 94 -18 50 -27 111 -86 133 -129 l19 -38&#xA;-74 -208 c-41 -114 -77 -224 -81 -244 -4 -21 -11 -38 -16 -38 -5 0 -26 -15&#xA;-46 -34 -52 -46 -119 -75 -162 -70 -40 5 -65 19 -132 75 l-46 38 0 -67 c0 -79&#xA;-41 -209 -94 -298 -120 -200 -353 -347 -634 -401 -94 -17 -348 -25 -454 -12&#xA;-318 36 -606 193 -735 402 -74 119 -91 181 -90 327 0 190 40 304 198 571 l50&#xA;87 16 -32 c19 -41 94 -113 134 -130 27 -11 32 -19 34 -50 11 -163 191 -268&#xA;353 -207 53 20 99 55 87 66 -3 3 -31 -1 -64 -10 -177 -46 -310 10 -329 140 -9&#xA;54 -1 77 37 121 51 57 101 79 188 79 90 0 138 -22 188 -84 104 -129 306 -177&#xA;455 -107 230 109 284 447 100 622 l-46 42 53 16 c67 20 100 41 100 64 0 56&#xA;-69 55 -320 -3 -181 -42 -275 -55 -298 -41 -5 3 -7 17 -4 31 2 14 0 25 -6 25&#xA;-14 0 -52 -49 -52 -67 0 -20 30 -76 49 -90 10 -8 12 -12 4 -13 -7 0 -26 -18&#xA;-42 -40 l-29 -40 -25 38 c-17 26 -22 43 -16 53 14 27 30 151 23 183 l-7 31&#xA;-13 -30 c-7 -16 -13 -39 -14 -50 -1 -54 -10 -53 -202 30 -189 82 -246 95 -281&#xA;66 -38 -31 -16 -91 44 -122 l41 -21 -23 -15 c-40 -27 -99 -86 -99 -100 0 -21&#xA;-17 -15 -24 10 -4 12 -10 74 -13 138 -7 140 12 248 62 356 33 72 103 166 132&#xA;177 8 4 47 -10 86 -29 181 -88 335 -90 697 -8 244 55 375 64 508 37z m-1163&#xA;-617 c22 -9 72 -26 111 -37 77 -23 103 -43 133 -105 14 -29 16 -46 10 -68 -5&#xA;-17 -7 -70 -6 -117 l3 -88 -29 10 c-16 6 -61 8 -101 6 -100 -7 -175 -42 -218&#xA;-102 -17 -25 -37 -46 -44 -46 -26 0 -114 93 -140 148 -65 137 -13 311 117 390&#xA;59 36 90 38 164 9z m793 -1 c15 -8 43 -32 63 -53 127 -133 118 -358 -17 -485&#xA;-62 -57 -110 -73 -219 -73 -117 0 -166 19 -241 92 -104 101 -122 255 -43 383&#xA;37 61 79 90 127 90 38 0 249 41 300 59 2 1 15 -5 30 -13z m797 -1176 l30 0&#xA;-40 -39 c-27 -26 -52 -40 -77 -44 -42 -6 -44 -4 -27 58 18 69 15 67 51 45 18&#xA;-11 46 -20 63 -20z m-109 -164 c-107 -141 -164 -404 -153 -708 7 -196 16 -246&#xA;74 -398 92 -243 307 -396 506 -361 113 20 185 71 248 175 l30 51 -6 -42 c-4&#xA;-24 -8 -159 -10 -301 -3 -297 -2 -295 -102 -403 -64 -69 -94 -85 -174 -94&#xA;-129 -16 -266 -77 -387 -174 -80 -64 -127 -82 -317 -120 -192 -40 -263 -46&#xA;-475 -45 -237 1 -386 36 -595 140 -98 49 -121 72 -221 219 -48 72 -113 161&#xA;-143 199 -243 298 -292 405 -294 631 0 156 21 276 88 485 53 169 158 415 173&#xA;408 4 -2 42 -21 85 -42 60 -31 76 -43 72 -56 -20 -65 -34 -188 -30 -285 6&#xA;-167 40 -262 129 -353 61 -64 102 -87 203 -113 84 -21 227 -25 303 -9 124 28&#xA;249 98 348 198 118 118 192 250 306 545 64 165 67 170 138 246 41 44 93 112&#xA;118 158 42 76 47 81 77 80 l32 -1 -23 -30z m-385 -433 c-159 -433 -337 -642&#xA;-604 -708 -122 -29 -301 -14 -397 35 -86 44 -162 155 -188 275 -14 61 -8 248&#xA;10 330 15 68 7 66 128 31 47 -13 98 -27 113 -30 21 -5 33 -17 47 -50 21 -51&#xA;76 -116 97 -116 11 0 5 17 -21 64 -20 35 -36 68 -36 73 0 4 89 8 198 8 169 0&#xA;212 3 300 23 117 26 228 67 317 115 33 18 61 33 62 32 2 -1 -10 -38 -26 -82z&#xA;m1119 -1484 c0 -14 38 -64 143 -189 128 -151 184 -278 192 -435 7 -141 -56&#xA;-329 -144 -425 l-41 -45 19 45 c23 53 41 200 34 279 -8 100 -52 212 -124 318&#xA;-51 74 -149 167 -204 192 -41 19 -140 43 -215 52 -54 6 88 15 200 13 120 -3&#xA;132 -2 110 11 -14 7 -46 17 -72 20 -27 4 -48 10 -48 14 0 4 18 25 41 46 22 22&#xA;52 59 66 83 22 38 43 48 43 21z m-2350 -203 c9 -3 44 -46 78 -95 108 -153 244&#xA;-287 364 -360 63 -38 35 -3 -97 122 -69 65 -125 123 -125 129 0 6 7 5 18 -4&#xA;36 -31 225 -96 357 -124 55 -12 134 -17 255 -18 239 -1 363 13 585 68 55 14&#xA;101 24 103 22 1 -2 -9 -26 -23 -54 -36 -72 -62 -183 -64 -277 -1 -70 27 -282&#xA;44 -326 7 -19 21 -17 -195 -25 -176 -7 -378 5 -510 28 -36 7 -72 12 -80 12&#xA;-44 -2 -165 -16 -216 -25 -83 -14 -398 -19 -462 -7 -52 9 -54 11 -48 36 25&#xA;111 14 269 -26 387 -66 191 -197 372 -335 461 l-77 49 40 7 c49 8 394 4 414&#xA;-6z m-410 -81 c159 -106 316 -346 349 -536 12 -73 14 -181 5 -253 -7 -46 -7&#xA;-46 -46 -46 -40 0 -118 33 -118 50 0 16 -121 140 -137 140 -21 0 -12 -19 56&#xA;-113 59 -83 111 -172 111 -193 0 -33 -110 -88 -232 -116 -155 -34 -423 -27&#xA;-514 14 -30 14 -99 174 -144 338 -25 92 -36 265 -22 342 41 217 174 354 392&#xA;403 41 9 80 18 85 20 6 2 40 1 78 0 61 -3 74 -8 137 -50z m2484 20 c43 -7 103&#xA;-26 132 -41 94 -47 209 -192 264 -329 27 -69 32 -92 32 -180 1 -55 -2 -136 -6&#xA;-180 l-8 -80 -27 90 c-33 109 -76 208 -102 231 -18 16 -19 16 -19 0 0 -10 14&#xA;-59 31 -110 32 -97 84 -293 95 -363 8 -51 0 -63 -73 -110 -160 -102 -467 -142&#xA;-644 -83 -112 37 -123 49 -163 175 -57 178 -77 271 -83 400 -4 91 -1 136 11&#xA;187 54 230 241 404 436 407 25 0 80 -6 124 -14z m-2220 -1105 c18 -72 51 -263&#xA;61 -351 8 -68 -4 -95 -49 -114 -77 -32 -253 -30 -282 3 -8 9 -30 36 -50 59&#xA;-20 23 -59 54 -87 67 -57 28 -176 56 -236 56 l-37 0 -52 124 c-29 69 -52 127&#xA;-52 129 0 3 18 -2 41 -9 59 -21 267 -29 374 -15 121 16 240 54 295 96 25 19&#xA;48 31 51 27 4 -4 14 -36 23 -72z m2667 -228 c30 -212 30 -215 12 -241 -27 -37&#xA;-84 -62 -151 -67 l-57 -5 -27 40 c-33 48 -99 88 -187 113 -83 23 -145 23 -196&#xA;-1 -49 -22 -73 -48 -89 -96 l-13 -36 -50 143 c-28 79 -63 178 -79 220 -15 43&#xA;-25 80 -22 83 3 3 22 -2 44 -11 50 -21 174 -43 244 -44 83 0 240 26 319 54 39&#xA;14 101 43 138 65 66 40 68 40 76 19 4 -12 21 -118 38 -236z m-3151 -137 c85&#xA;-28 140 -68 164 -119 20 -43 58 -56 167 -56 140 0 220 26 244 79 5 12 17 20&#xA;25 19 19 -4 74 -106 96 -178 9 -30 20 -68 25 -84 5 -16 9 -44 9 -62 0 -31 -3&#xA;-33 -62 -53 -68 -22 -158 -44 -278 -67 -107 -20 -110 -21 -163 -28 -27 -4 -56&#xA;-9 -65 -11 -188 -34 -775 -41 -922 -10 -77 16 -90 17 -90 6 0 -16 32 -28 131&#xA;-49 166 -37 562 -35 864 4 138 17 431 75 523 103 l62 19 0 -24 c0 -35 -33 -59&#xA;-119 -88 -86 -28 -318 -76 -481 -100 -452 -65 -885 -40 -966 57 -23 28 -26 38&#xA;-21 83 3 28 13 67 22 85 24 47 100 124 162 165 251 162 429 164 603 7 49 -45&#xA;60 -50 70 -38 9 11 7 20 -10 45 -40 56 -200 150 -256 150 -30 0 -31 16 -1 24&#xA;101 27 314 -52 370 -138 15 -22 21 -25 33 -15 20 17 18 30 -15 70 -31 38 -137&#xA;98 -207 119 -35 11 -42 17 -53 54 -6 22 -15 47 -18 55 -8 19 56 9 157 -24z&#xA;m2796 -96 c46 -22 73 -42 94 -72 47 -67 46 -66 107 -63 69 4 161 42 190 80 12&#xA;14 26 26 32 26 31 0 89 -179 106 -326 l7 -61 -55 -49 c-29 -27 -92 -68 -140&#xA;-92 -119 -58 -238 -87 -482 -117 -72 -9 -349 -6 -425 5 -89 12 -182 44 -206&#xA;71 -62 69 144 269 339 331 48 15 83 19 153 16 84 -4 97 -7 184 -51 52 -25 96&#xA;-44 99 -41 20 20 -69 85 -159 116 -51 18 -86 23 -167 23 -57 0 -103 3 -103 7&#xA;0 14 73 66 109 77 99 29 212 2 303 -74 44 -36 69 -50 81 -46 17 6 16 9 -5 41&#xA;-58 86 -181 144 -290 138 -64 -3 -68 -2 -68 17 0 87 157 111 296 44z m529&#xA;-516 c-31 -169 -385 -292 -840 -293 -284 0 -423 37 -468 124 -11 20 -17 39&#xA;-15 42 3 2 27 -6 54 -17 97 -44 183 -60 349 -66 363 -13 721 74 885 216 19 17&#xA;37 30 39 31 2 0 0 -17 -4 -37z"/>
    <path d="M5900 5898 c-36 -25 -88 -109 -100 -163 -9 -41 -2 -44 30 -10 30 32&#xA;35 31 71 -4 37 -38 37 -70 -1 -138 -20 -35 -26 -53 -17 -53 15 0 59 45 76 77&#xA;28 55 0 143 -56 171 l-34 18 34 39 c33 38 34 38 111 40 42 2 80 6 84 10 17 16&#xA;-35 35 -98 35 -53 0 -74 -5 -100 -22z"/>
    <path d="M4686 5545 c-182 -35 -366 -115 -451 -199 -54 -52 -49 -75 7 -32 59&#xA;44 231 124 323 150 134 36 233 49 342 44 104 -5 184 -30 219 -69 18 -20 54&#xA;-26 54 -10 0 22 -55 72 -106 97 -50 25 -69 28 -183 30 -82 2 -154 -2 -205 -11z"/>
    <path d="M4179 6305 c-59 -31 -77 -158 -29 -197 27 -22 68 -23 98 -2 19 13 22&#xA;24 22 84 0 83 -5 97 -39 114 -22 12 -30 12 -52 1z"/>
    <path d="M4692 6273 c-32 -6 -42 -32 -43 -114 -1 -64 1 -74 25 -97 25 -26 27&#xA;-26 53 -10 60 36 72 185 19 220 -11 8 -16 8 -54 1z"/>
  </g>
  <title>Weightlifter Barbell</title>
  <desc>Weightlifter Barbell</desc>
</svg>