<?xml version="1.0" standalone="no"?>
<!DOCTYPE svg PUBLIC "-//W3C//DTD SVG 20010904//EN"
 "http://www.w3.org/TR/2001/REC-SVG-20010904/DTD/svg10.dtd">
<svg version="1.0" xmlns="http://www.w3.org/2000/svg"
 width="1024.000000pt" height="1024.000000pt" viewBox="0 0 1024.000000 1024.000000"
 preserveAspectRatio="xMidYMid meet">
<metadata>
Created by potrace 1.16, written by Peter Selinger 2001-2019
</metadata>
<g transform="translate(0.000000,1024.000000) scale(0.100000,-0.100000)"
fill="#000000" stroke="none">
<path d="M5929 9814 c-109 -33 -184 -97 -229 -195 -29 -64 -32 -77 -28 -142 3
-40 13 -90 23 -112 10 -22 19 -42 19 -45 1 -9 43 -60 49 -60 3 0 19 -12 34
-26 85 -81 243 -100 354 -44 52 27 114 90 145 147 35 65 39 205 9 273 -45 104
-80 145 -151 180 -69 35 -133 46 -146 26 -6 -8 -8 -7 -8 2 0 15 -13 14 -71 -4z
m97 -90 c68 -8 125 -52 165 -127 26 -49 31 -156 10 -197 -21 -39 -83 -100
-102 -100 -10 0 -21 -4 -24 -10 -8 -13 -100 -13 -148 1 -21 5 -53 23 -71 39
-18 16 -36 27 -40 25 -3 -3 -4 -2 -2 1 2 3 -2 21 -10 41 -8 19 -15 65 -16 101
-1 80 22 134 80 183 37 31 100 59 115 51 4 -2 24 -6 43 -8z"/>
<path d="M4840 9320 c-70 -36 -99 -86 -102 -175 -2 -51 2 -66 26 -102 15 -23
45 -53 66 -68 31 -22 47 -26 96 -24 33 1 68 7 79 12 11 6 25 12 30 13 6 0 15
2 22 2 18 3 71 85 65 101 -3 8 0 11 6 7 17 -10 25 37 17 91 -11 76 -54 129
-125 156 -65 24 -116 21 -180 -13z m147 -82 c7 -1 15 -8 18 -17 5 -12 8 -13
14 -2 9 14 13 -12 13 -84 0 -97 -139 -112 -178 -20 -20 49 -18 61 19 101 28
30 37 34 67 29 19 -3 40 -6 47 -7z"/>
<path d="M3610 9183 c-64 -16 -92 -33 -155 -92 -28 -26 -44 -49 -41 -58 3 -8
2 -12 -2 -9 -20 12 -58 -97 -61 -176 -6 -155 75 -294 205 -353 33 -14 66 -30
74 -34 28 -15 134 -9 202 12 58 17 79 30 132 81 96 93 130 186 114 315 -17
138 -102 257 -218 302 -67 27 -174 32 -250 12z m252 -140 c126 -95 148 -262
53 -388 -28 -36 -123 -87 -162 -87 -13 0 -23 -6 -23 -12 0 -7 -3 -7 -8 -1 -4
6 -20 11 -37 13 -46 4 -107 31 -139 60 -98 92 -103 295 -8 387 60 58 103 74
192 72 73 -2 79 -4 132 -44z"/>
<path d="M6487 8750 c-123 -31 -216 -141 -219 -259 -2 -63 10 -122 27 -141 8
-9 15 -20 15 -24 0 -20 70 -87 83 -79 6 3 7 1 3 -5 -14 -23 87 -62 163 -62 41
0 71 8 118 31 61 30 110 78 95 94 -4 5 -2 5 4 2 7 -4 17 0 24 8 7 8 9 15 4 15
-5 0 -3 4 4 9 27 17 46 159 30 218 -20 68 -81 139 -151 174 -44 23 -146 32
-200 19z m138 -96 c46 -21 83 -73 100 -136 16 -64 12 -92 -23 -142 -43 -63
-75 -77 -162 -74 -66 3 -78 6 -103 31 -41 40 -53 68 -56 131 -3 90 32 154 104
187 50 22 98 23 140 3z"/>
<path d="M5270 8504 c-30 -8 -73 -24 -97 -36 -47 -24 -127 -104 -157 -157 -55
-98 -71 -246 -37 -336 30 -82 54 -125 68 -125 8 0 12 -4 9 -9 -8 -12 74 -84
131 -116 64 -35 117 -47 201 -46 109 2 199 39 284 117 95 88 138 192 134 323
-3 114 -34 186 -116 271 -90 93 -150 121 -272 126 -60 2 -112 -2 -148 -12z
m257 -134 c66 -37 93 -65 135 -138 41 -72 45 -171 11 -244 -27 -55 -91 -125
-148 -158 -22 -13 -42 -26 -45 -29 -10 -12 -136 -11 -176 1 -68 19 -152 86
-193 152 -33 54 -36 65 -36 135 0 62 5 86 27 131 36 73 108 145 172 170 76 30
178 22 253 -20z"/>
<path d="M4052 7931 c-49 -13 -72 -26 -112 -64 -46 -45 -77 -107 -64 -129 3
-4 0 -8 -5 -8 -6 0 -11 -16 -11 -35 0 -21 5 -35 13 -35 9 0 8 -3 -2 -9 -9 -6
-10 -11 -2 -15 6 -4 11 -13 11 -21 0 -18 52 -94 79 -117 51 -43 96 -57 172
-54 89 4 123 19 178 82 40 46 64 104 63 154 -2 153 -85 246 -238 264 -11 2
-48 -4 -82 -13z m141 -102 c36 -19 75 -68 81 -103 8 -40 -9 -93 -41 -127 -13
-14 -22 -27 -21 -30 2 -2 2 -3 0 -3 -2 1 -23 -4 -47 -11 -145 -44 -249 139
-142 251 12 13 28 24 35 24 6 0 12 5 12 11 0 5 3 8 8 6 4 -3 16 -1 27 3 20 7
45 1 88 -21z m157 -233 c0 -2 -7 -7 -16 -10 -8 -3 -12 -2 -9 4 6 10 25 14 25
6z"/>
<path d="M6252 7469 c-29 -5 -66 -16 -81 -24 -52 -26 -102 -84 -120 -138 -39
-116 -20 -217 58 -300 34 -37 40 -48 24 -43 -31 10 -176 25 -185 20 -5 -3 -8
-1 -8 3 0 5 -8 9 -17 9 -10 0 -67 4 -128 9 -60 4 -146 10 -190 12 -296 17
-281 15 -322 54 -58 55 -171 124 -243 149 -109 37 -286 36 -400 -3 -19 -7 -37
-14 -40 -17 -3 -3 -30 -17 -60 -33 -30 -15 -84 -54 -120 -86 -53 -49 -71 -60
-100 -60 -19 0 -46 -2 -59 -5 -13 -3 -56 -6 -95 -7 -39 0 -100 -5 -136 -11
-36 -5 -81 -11 -100 -14 -19 -2 -48 -6 -65 -9 -16 -2 -66 -7 -110 -11 -44 -3
-120 -15 -170 -26 -49 -11 -106 -22 -125 -24 -31 -4 -88 -14 -115 -19 -5 -2
-37 -8 -70 -15 -33 -6 -100 -22 -150 -34 -49 -13 -125 -31 -167 -41 -43 -10
-75 -21 -73 -25 3 -4 -5 -8 -18 -8 -12 0 -59 -12 -105 -27 -58 -20 -81 -32
-78 -41 4 -11 2 -11 -14 -2 -16 10 -22 10 -32 -1 -11 -11 -10 -12 1 -6 9 5 12
4 8 -3 -4 -5 -15 -8 -25 -6 -23 5 -188 -80 -184 -95 1 -7 -2 -10 -8 -6 -12 8
-30 -2 -110 -62 -101 -75 -119 -93 -170 -171 -47 -70 -66 -112 -73 -159 -2
-12 -6 -26 -10 -29 -4 -4 -7 -49 -7 -99 0 -71 6 -110 24 -167 26 -79 62 -148
77 -148 5 0 9 -5 9 -12 0 -6 9 -21 20 -33 24 -26 13 -45 -28 -48 -18 -1 -32
-6 -32 -11 0 -5 -3 -7 -6 -3 -12 12 -175 -59 -284 -124 -55 -34 -229 -222
-275 -299 -5 -9 -22 -36 -38 -58 -15 -23 -27 -45 -27 -49 0 -5 -7 -21 -15 -36
-8 -16 -16 -38 -17 -50 -2 -12 -6 -26 -10 -32 -28 -46 -31 -351 -4 -440 10
-33 21 -62 25 -65 3 -3 22 -37 43 -75 23 -44 42 -69 52 -69 9 1 13 -3 9 -9 -3
-5 23 -36 57 -68 l64 -59 -13 -52 c-7 -29 -24 -91 -37 -138 -13 -47 -28 -107
-34 -135 -5 -27 -12 -61 -16 -75 -6 -25 -19 -97 -29 -158 -21 -135 -5 -495 29
-627 34 -130 67 -240 75 -248 6 -6 11 -18 11 -26 0 -31 73 -191 84 -184 6 3 8
3 4 -2 -7 -8 8 -39 65 -135 75 -127 93 -155 114 -177 12 -13 20 -23 18 -23 -7
0 173 -229 219 -280 20 -22 37 -40 39 -40 2 0 39 -35 82 -78 90 -87 162 -148
216 -180 44 -26 64 -65 45 -84 -7 -8 -18 -30 -25 -51 -7 -20 -17 -39 -22 -42
-5 -4 -9 -15 -9 -26 0 -10 -5 -19 -10 -19 -6 0 -9 -3 -8 -8 2 -10 -10 -39 -38
-93 -13 -26 -24 -54 -24 -63 0 -9 -4 -16 -10 -16 -5 0 -10 -5 -10 -12 0 -6
-19 -52 -41 -101 -34 -72 -42 -103 -45 -160 -2 -38 0 -75 3 -81 4 -6 8 -17 9
-24 4 -24 56 -83 97 -110 37 -24 52 -27 127 -27 78 0 92 3 164 37 43 21 84 44
90 51 6 8 31 29 56 48 67 51 67 50 124 107 70 68 100 104 161 190 52 74 64 82
85 57 7 -8 19 -15 27 -15 8 0 40 -12 70 -27 31 -14 67 -27 79 -29 12 -1 62
-18 110 -37 85 -33 191 -63 207 -59 4 1 7 -2 7 -6 0 -12 97 -35 112 -26 7 4 9
3 5 -2 -9 -9 175 -63 240 -69 24 -2 60 -9 80 -14 21 -6 52 -13 68 -16 81 -16
143 -26 170 -30 46 -5 185 -24 230 -31 49 -8 353 -15 570 -14 114 0 161 4 167
13 6 9 8 9 8 0 0 -7 6 -11 13 -8 6 2 50 6 97 9 47 4 96 8 110 11 14 3 72 10
130 15 187 17 300 40 300 63 0 8 3 8 8 2 5 -7 24 -7 60 0 29 6 51 13 48 16 -4
3 7 5 24 4 16 -1 30 1 30 5 0 3 12 6 28 7 41 2 154 30 238 59 41 14 86 28 100
30 15 3 86 29 160 58 l133 54 38 -45 c72 -85 95 -108 104 -106 5 2 8 -1 6 -6
-2 -9 49 -60 137 -134 27 -23 60 -52 75 -65 28 -26 137 -89 161 -94 8 -2 18
-7 22 -13 4 -5 40 -11 80 -13 84 -4 141 15 201 68 45 39 64 76 72 143 10 81
-39 220 -162 462 -5 11 -26 53 -46 93 l-36 73 41 37 c23 20 55 47 72 60 17 13
30 28 28 33 -1 6 1 8 6 5 16 -9 312 274 365 349 12 17 24 32 27 35 21 19 120
149 120 158 0 6 4 12 8 14 11 4 90 122 99 145 3 10 12 25 20 35 8 9 16 22 17
30 1 7 15 40 31 73 55 118 86 197 118 305 52 179 63 226 83 380 9 71 15 430 6
430 -4 0 -8 17 -9 38 -4 61 -18 159 -28 192 -1 3 -5 23 -10 45 -4 22 -11 46
-15 54 -5 9 0 22 11 34 10 11 16 25 12 30 -3 6 -2 7 4 4 26 -16 99 114 128
228 23 91 32 210 23 310 -12 145 -32 221 -91 345 -60 125 -135 230 -200 280
-28 22 -63 49 -77 61 -14 11 -72 43 -130 72 -102 51 -107 52 -199 53 -51 1
-106 -2 -123 -6 -35 -11 -36 -10 -41 90 -5 83 1 103 39 123 70 36 217 218 199
247 -3 5 -2 10 3 10 5 0 12 12 15 28 4 15 13 55 21 89 24 106 1 221 -66 331
-46 76 -103 137 -118 127 -6 -3 -9 -2 -8 3 4 12 -43 56 -96 90 -60 38 -226
122 -241 122 -8 0 -40 11 -72 24 -64 26 -237 84 -268 90 -11 2 -49 12 -85 21
-36 10 -72 19 -80 20 -8 0 -24 6 -35 12 -11 6 -38 14 -60 17 -22 4 -76 16
-120 27 -44 11 -98 22 -120 25 -22 3 -56 10 -75 14 -41 11 -178 39 -235 49
l-40 7 41 22 c59 30 108 92 129 161 17 56 17 63 1 133 -11 48 -27 90 -47 116
-34 46 -114 91 -158 88 -17 -1 -28 2 -25 6 6 9 -2 9 -74 -3z m136 -131 c44
-27 58 -52 66 -116 8 -64 -17 -128 -61 -154 -39 -22 -103 -39 -103 -27 0 6 -4
8 -9 5 -17 -11 -79 24 -110 61 -25 31 -31 46 -31 87 0 58 30 127 64 149 47 31
129 28 184 -5z m-1389 -234 c35 -13 80 -34 100 -47 20 -12 41 -20 46 -19 6 2
7 1 4 -3 -11 -10 41 -56 54 -49 7 4 9 4 5 -1 -4 -4 8 -26 28 -48 38 -41 87
-135 78 -149 -3 -4 -1 -8 4 -8 5 0 9 -6 9 -12 1 -7 7 -44 15 -83 8 -38 11 -84
7 -102 -3 -17 -7 -67 -8 -111 -2 -77 -1 -80 19 -75 13 4 19 11 16 20 -3 8 -2
11 4 8 5 -3 17 7 27 22 10 15 28 38 41 49 12 12 22 26 22 31 0 6 28 25 63 43
34 18 64 36 67 39 7 8 34 11 125 13 62 1 91 -3 127 -19 58 -26 153 -96 174
-128 9 -14 20 -22 25 -19 13 8 -1 -26 -30 -70 -32 -48 -43 -173 -18 -194 25
-21 46 -2 63 57 9 31 25 67 35 80 10 13 16 28 12 35 -3 6 -3 8 2 4 4 -4 27 9
50 30 52 45 136 72 228 72 71 0 165 -26 192 -54 9 -9 22 -19 29 -23 47 -29 99
-150 98 -228 0 -59 11 -71 48 -52 32 16 43 65 38 160 -3 42 -2 77 1 77 9 0
233 -57 266 -68 17 -6 56 -22 87 -37 32 -14 62 -24 67 -21 5 4 11 3 13 -1 1
-5 34 -23 71 -42 38 -19 83 -48 100 -65 18 -16 35 -29 39 -28 4 1 5 -5 2 -13
-4 -8 -10 -15 -15 -15 -5 0 -9 -5 -9 -12 0 -23 -77 -81 -155 -118 -87 -40
-231 -87 -365 -118 -174 -41 -316 -71 -362 -77 -27 -3 -48 -11 -48 -16 0 -6
-4 -7 -10 -4 -5 3 -81 -4 -167 -15 -172 -24 -185 -25 -348 -35 -60 -4 -130 -9
-155 -11 -139 -14 -1325 -4 -1351 12 -3 2 -59 6 -125 10 -65 3 -135 9 -154 13
-19 4 -59 7 -87 7 -29 -1 -53 2 -53 6 0 3 -30 9 -67 13 -38 3 -97 10 -133 15
-36 5 -92 12 -125 14 -33 3 -69 7 -80 10 -11 3 -67 15 -125 26 -136 28 -130
26 -165 40 -16 7 -39 13 -50 14 -21 3 -77 20 -135 42 -19 7 -53 18 -75 25 -45
13 -120 46 -213 92 -58 29 -177 137 -151 137 6 0 8 4 5 9 -3 4 12 16 34 26 22
10 37 22 33 28 -3 6 -1 7 6 3 6 -4 24 0 38 10 46 30 246 93 260 82 7 -6 10
-14 7 -19 -3 -5 -1 -9 4 -9 6 0 10 -6 9 -12 -1 -49 4 -68 21 -68 13 0 14 -2 3
-9 -11 -7 -9 -11 9 -21 14 -7 26 -8 31 -3 6 6 11 53 14 106 2 53 7 106 11 119
13 43 67 108 117 140 44 28 57 31 145 34 90 4 102 2 159 -25 84 -40 145 -103
168 -171 28 -86 32 -92 57 -79 18 10 20 18 15 72 -3 34 -8 71 -12 83 -11 33
73 118 138 140 112 37 222 9 278 -70 64 -93 69 -98 86 -80 14 13 15 25 6 82
-12 71 -11 217 1 267 24 102 114 218 226 291 113 73 287 94 409 48z m-729
-252 c-4 -16 -11 -61 -15 -100 l-7 -71 -31 6 c-78 17 -258 4 -265 -18 -2 -5
-10 -9 -18 -9 -17 0 -52 -21 -106 -63 l-38 -28 -72 35 c-40 20 -84 38 -98 40
-14 3 -25 5 -25 7 0 13 -199 12 -203 -1 -2 -6 -8 -8 -12 -5 -14 8 -122 -43
-115 -55 3 -5 0 -7 -8 -5 -16 7 -86 -67 -118 -125 -15 -26 -32 -42 -49 -46
-14 -3 -58 -14 -98 -25 -68 -18 -101 -32 -237 -95 -68 -31 -77 -32 -80 -11 -8
44 -32 34 -64 -24 -24 -45 -37 -134 -21 -144 5 -3 7 -12 3 -20 -3 -9 2 -26 11
-40 9 -14 14 -25 11 -25 -11 0 81 -80 98 -86 9 -3 17 -9 17 -13 0 -13 78 -44
91 -36 7 5 10 4 5 -3 -4 -6 9 -18 31 -27 21 -9 63 -28 93 -41 30 -14 62 -26
70 -28 8 -1 37 -12 63 -24 68 -30 252 -80 357 -96 44 -7 133 -23 208 -37 31
-6 73 -12 92 -14 47 -4 119 -14 150 -21 99 -22 637 -71 815 -74 33 0 103 -5
155 -9 52 -5 262 -7 465 -5 350 3 420 5 575 19 36 3 101 8 145 10 66 4 216 22
335 39 66 10 171 29 230 41 36 8 83 16 105 19 112 13 361 76 485 122 80 30
250 116 250 127 0 4 6 7 13 7 28 0 75 70 84 125 19 114 -34 187 -196 273 -44
24 -81 41 -81 37 0 -3 -17 3 -37 14 -82 40 -366 110 -481 116 -42 3 -65 11
-106 40 -48 33 -109 57 -176 70 -81 17 -253 -7 -306 -41 -22 -15 -25 -14 -71
33 -121 123 -188 155 -325 158 -54 1 -98 -2 -98 -7 0 -4 -3 -7 -7 -6 -14 4
-117 -13 -128 -21 -5 -4 -29 -15 -52 -24 l-42 -16 -6 47 c-4 26 -13 75 -21
110 -8 35 -14 68 -14 74 0 8 62 9 216 4 120 -4 220 -9 225 -11 4 -3 11 0 15 6
4 7 9 8 13 1 6 -10 56 -18 161 -27 25 -2 61 -6 80 -9 19 -3 53 -8 75 -11 118
-14 141 -18 148 -22 4 -2 7 2 7 9 0 9 2 10 8 1 4 -6 45 -16 92 -23 104 -14
283 -45 370 -65 105 -25 231 -56 285 -70 28 -8 70 -19 95 -25 25 -7 54 -15 65
-20 11 -4 54 -18 95 -30 131 -39 320 -121 362 -157 9 -8 22 -12 29 -7 7 4 10
3 5 -4 -3 -6 2 -13 13 -17 10 -3 33 -19 50 -35 17 -17 33 -30 36 -30 3 0 14
-9 25 -20 11 -11 17 -20 13 -20 -4 0 5 -12 18 -27 58 -64 83 -139 81 -242 -2
-85 -6 -101 -45 -181 -45 -91 -239 -263 -362 -319 -27 -13 -77 -36 -111 -52
-33 -16 -66 -29 -72 -29 -7 0 -12 -5 -12 -10 0 -6 -6 -10 -12 -9 -7 1 -20 -1
-28 -4 -94 -38 -311 -100 -500 -143 -19 -4 -37 -9 -40 -9 -18 -6 -96 -19 -102
-17 -5 1 -8 -3 -8 -9 0 -5 -3 -8 -8 -5 -4 2 -28 1 -52 -4 -87 -16 -116 -20
-170 -26 -30 -3 -71 -9 -90 -14 -19 -5 -66 -12 -105 -15 -38 -4 -74 -9 -78
-12 -10 -6 -71 -13 -157 -16 -36 -2 -71 -7 -78 -11 -7 -4 -12 -2 -12 4 0 6 -4
9 -8 6 -5 -3 -49 -8 -98 -11 -49 -4 -109 -9 -134 -11 -76 -7 -361 -14 -639
-15 -243 0 -268 -2 -303 -20 -80 -41 -136 -110 -157 -194 -45 -172 -79 -275
-93 -275 -5 0 -8 -6 -8 -14 0 -16 -34 -53 -80 -85 -26 -19 -50 -25 -104 -28
-65 -3 -74 -1 -111 24 -41 29 -104 138 -105 179 0 39 -39 175 -55 190 -8 9
-20 25 -26 36 -18 33 -83 56 -151 52 -66 -4 -71 -6 -122 -51 -58 -52 -124
-196 -132 -286 -2 -27 -6 -52 -9 -57 -3 -5 -8 -37 -11 -72 -3 -35 -9 -93 -13
-130 -5 -46 -4 -68 3 -68 8 0 8 -2 0 -8 -6 -4 -17 -47 -24 -97 -8 -49 -14 -92
-15 -95 0 -3 -11 -27 -23 -55 -21 -45 -49 -78 -110 -127 -57 -46 -194 -40
-252 12 -19 17 -37 30 -42 30 -4 0 -7 3 -6 8 2 4 -7 27 -19 52 -12 25 -25 61
-29 80 -19 100 6 285 73 530 67 250 83 339 85 473 0 119 -6 138 -71 203 -25
25 -72 51 -106 59 -31 7 -235 75 -277 92 -20 9 -45 12 -55 9 -9 -4 -14 -4 -11
-1 4 4 -40 31 -97 60 -115 58 -203 122 -285 206 -75 75 -79 81 -112 161 -26
61 -29 80 -27 159 2 88 14 132 49 174 7 8 10 15 6 15 -21 0 135 152 202 196
60 40 208 111 292 140 30 10 58 23 62 29 4 5 8 7 8 3 0 -3 46 9 103 28 127 44
471 122 607 138 85 10 137 18 165 26 17 5 51 11 78 14 42 5 81 10 167 22 84
11 343 31 352 27 3 -2 3 -16 -2 -31z m-1960 -1404 c0 -62 -4 -118 -8 -123 -4
-6 -36 -11 -72 -11 -74 -1 -135 -18 -150 -42 -6 -10 -10 -12 -10 -4 0 9 -7 8
-25 -4 -14 -9 -22 -20 -19 -25 3 -5 -2 -6 -10 -3 -11 4 -16 0 -16 -10 0 -9 -4
-15 -10 -13 -14 3 -89 -72 -107 -108 -9 -16 -19 -32 -23 -35 -30 -21 -80 -186
-80 -265 1 -83 38 -215 62 -215 10 0 7 -51 -3 -60 -10 -9 -49 -125 -57 -169
l-7 -44 -54 49 c-30 27 -69 72 -86 99 -55 86 -83 252 -63 370 14 79 21 110 28
120 4 6 11 26 15 45 11 51 71 167 120 230 36 47 130 140 200 200 11 9 40 27
65 41 25 13 48 29 52 34 4 6 8 7 8 2 0 -4 16 -1 35 7 19 8 35 13 35 11 0 -3
12 1 28 7 34 13 88 25 125 27 l27 1 0 -112z m163 25 c4 -7 17 -13 27 -13 11 0
20 -5 20 -10 0 -6 21 -20 48 -31 26 -12 58 -26 72 -32 14 -6 30 -11 35 -12 6
0 35 -13 66 -28 30 -15 69 -29 86 -30 17 -1 29 -5 27 -8 -4 -7 64 -24 79 -21
4 1 7 -2 7 -6 0 -5 23 -15 50 -22 28 -8 65 -27 83 -43 l32 -28 -1 -117 c-1
-103 -5 -128 -32 -208 -17 -50 -36 -120 -43 -155 -6 -35 -15 -71 -20 -80 -4
-8 -15 -56 -23 -105 -9 -49 -18 -99 -21 -112 -25 -131 -30 -284 -11 -352 4
-14 9 -32 10 -40 9 -37 49 -99 93 -142 126 -124 338 -131 465 -15 53 48 110
125 102 138 -3 5 -1 9 4 9 8 0 29 60 38 110 1 8 4 24 7 35 4 17 10 64 22 155
10 81 26 259 29 332 0 14 4 24 7 22 4 -2 12 18 19 45 15 65 55 125 97 148 30
16 36 16 61 3 15 -9 31 -29 37 -45 5 -17 12 -32 15 -35 3 -3 5 -14 5 -25 -1
-50 31 -185 44 -185 3 0 12 -12 19 -27 18 -41 70 -95 122 -128 39 -25 57 -29
137 -33 109 -5 153 11 242 86 75 64 130 182 166 356 16 74 58 146 97 167 13 7
162 10 419 10 219 0 399 3 399 7 0 4 28 6 62 4 63 -3 489 32 648 53 25 4 95
13 155 21 166 22 185 25 185 36 0 5 4 6 10 3 11 -7 130 16 130 25 0 3 8 6 18
6 9 1 31 4 47 8 17 3 39 8 51 10 66 13 258 73 360 112 209 80 224 87 224 96 0
5 4 6 10 3 10 -6 117 45 159 77 30 23 36 15 45 -64 l7 -56 -48 -33 c-26 -18
-64 -48 -84 -66 -39 -36 -93 -126 -82 -137 3 -3 2 -6 -3 -6 -17 0 -35 -67 -37
-132 -1 -47 5 -75 21 -109 l23 -47 -23 -58 c-17 -45 -22 -80 -22 -149 0 -121
12 -231 29 -272 8 -18 12 -33 10 -33 -8 0 41 -104 73 -153 54 -86 174 -203
195 -190 5 3 7 2 4 -4 -7 -11 120 -77 168 -87 17 -4 44 -10 60 -14 17 -4 80
-7 140 -7 89 0 123 5 178 24 38 13 70 21 72 20 2 -2 9 -33 15 -69 7 -36 16
-72 20 -81 5 -9 8 -135 6 -280 -3 -269 -15 -393 -51 -505 -8 -27 -23 -74 -32
-104 -32 -112 -145 -371 -164 -378 -5 -2 -9 -8 -9 -13 0 -6 -10 -23 -21 -39
-13 -16 -19 -36 -15 -45 3 -9 2 -13 -3 -10 -6 3 -24 -16 -42 -42 -18 -27 -43
-61 -56 -78 -13 -16 -27 -34 -31 -40 -173 -225 -483 -510 -687 -630 -27 -16
-53 -28 -57 -27 -5 1 -8 -3 -8 -8 0 -6 -5 -10 -12 -10 -6 0 -21 -8 -32 -19
-30 -27 -399 -211 -423 -211 -4 0 -64 -23 -133 -51 -115 -47 -201 -79 -225
-84 -5 -1 -30 -7 -55 -14 -58 -17 -77 -21 -125 -30 -22 -5 -69 -16 -104 -25
-35 -10 -80 -19 -100 -22 -20 -2 -37 -8 -38 -12 -2 -4 -21 -7 -43 -6 -22 0
-40 -2 -40 -6 0 -3 -17 -7 -37 -8 -21 -2 -51 -5 -68 -7 -51 -8 -88 -13 -150
-19 -33 -4 -80 -9 -105 -13 -87 -11 -137 -13 -410 -17 -151 -2 -304 0 -340 4
-36 5 -98 10 -137 11 -40 1 -73 5 -73 8 0 4 -12 7 -27 6 -16 0 -44 3 -63 7
-19 4 -66 10 -105 14 -38 3 -74 9 -80 12 -5 3 -39 11 -75 18 -36 7 -103 19
-150 28 -47 9 -101 19 -120 21 -52 6 -124 28 -271 82 -37 13 -80 26 -95 29
-16 3 -33 9 -39 13 -23 17 -105 42 -116 35 -8 -4 -9 -3 -5 4 4 7 1 12 -6 12
-13 0 -159 61 -275 116 -28 13 -57 24 -62 24 -6 0 -11 4 -11 9 0 5 -26 21 -57
36 -32 15 -69 35 -84 46 -14 10 -29 16 -33 12 -3 -3 -6 -2 -6 4 0 6 -14 16
-31 23 -17 7 -36 18 -42 24 -7 7 -41 30 -77 54 -84 54 -189 135 -253 195 -28
26 -57 45 -64 42 -8 -2 -11 0 -8 5 6 9 -12 28 -101 111 -22 20 -52 51 -69 70
-16 19 -60 68 -96 109 -72 82 -154 191 -213 284 -36 56 -141 269 -164 331 -20
53 -75 239 -77 260 -10 83 -18 131 -22 138 -18 30 -22 401 -5 492 7 33 14 78
18 100 5 33 17 85 58 256 2 8 11 32 20 52 8 20 13 37 10 37 -2 0 7 22 21 50
14 27 25 54 25 61 0 6 6 25 14 42 7 18 29 68 47 112 19 44 53 115 76 157 23
42 49 92 58 110 9 18 28 54 43 79 26 45 34 56 98 143 34 46 111 174 136 226
49 104 61 136 74 197 8 38 17 77 20 88 3 11 5 39 6 61 1 31 5 41 17 40 9 0 20
-7 24 -13z m5552 -227 c43 -10 108 -37 135 -56 15 -11 31 -20 34 -20 25 0 159
-122 211 -192 43 -56 92 -151 105 -200 6 -21 14 -37 18 -34 4 2 8 -16 10 -40
1 -23 7 -55 13 -71 15 -41 22 -212 11 -263 -8 -33 -8 -46 1 -52 8 -5 6 -8 -5
-8 -11 0 -18 -8 -18 -20 0 -12 -7 -35 -16 -51 -8 -17 -13 -37 -10 -45 3 -8 2
-13 -3 -9 -5 3 -26 -17 -46 -45 -51 -70 -102 -107 -194 -140 -94 -34 -176 -35
-282 -1 -112 35 -274 158 -314 237 -11 22 -22 41 -25 44 -12 11 -40 88 -55
148 -19 82 -19 186 1 245 l16 47 58 0 58 0 7 -87 c12 -144 16 -168 41 -215 10
-18 18 -35 19 -38 0 -3 15 -26 32 -51 37 -54 114 -118 179 -149 48 -24 142
-37 171 -25 10 4 25 9 34 10 19 2 112 76 104 83 -2 3 2 10 11 17 39 28 53 227
24 335 -65 240 -277 420 -495 420 -50 0 -105 -37 -102 -70 1 -17 9 -20 44 -20
24 0 43 -4 43 -8 0 -19 -48 -52 -92 -61 -77 -17 -136 -2 -158 40 -15 26 -11
116 6 150 7 15 10 30 6 34 -4 5 -2 6 3 3 6 -4 21 9 35 28 14 18 31 34 38 34 6
0 12 4 12 8 0 7 95 69 110 73 3 0 30 7 60 15 50 12 112 12 165 0z m-5782 -63
c-3 -10 -12 -25 -20 -34 -7 -9 -10 -19 -6 -24 5 -4 3 -5 -4 -2 -7 4 -21 -8
-34 -30 -13 -21 -28 -42 -35 -48 -18 -15 -133 -210 -167 -282 -16 -35 -33 -63
-38 -63 -20 0 -31 57 -26 132 6 97 45 183 112 250 52 52 154 109 185 103 11
-2 22 0 25 6 10 15 15 10 8 -8z m5737 -343 c0 -5 18 -33 40 -62 21 -29 59 -91
83 -138 79 -151 95 -179 101 -174 3 2 4 1 1 -2 -2 -4 5 -24 16 -46 47 -92 -4
-159 -110 -144 -81 11 -167 84 -213 182 -37 79 -40 91 -43 203 l-3 93 53 55
c47 49 75 61 75 33z m-5165 -3384 c33 -22 72 -48 88 -58 15 -10 33 -16 40 -12
6 4 9 4 5 -1 -9 -9 90 -74 113 -75 9 0 22 -7 29 -15 7 -8 8 -15 3 -15 -5 0
-14 -10 -20 -22 -17 -36 -186 -217 -273 -291 -105 -90 -221 -127 -288 -93 -42
22 -52 44 -46 102 8 80 27 131 123 325 50 102 91 189 91 194 0 5 7 16 16 26
15 17 17 17 38 -4 11 -13 48 -40 81 -61z m4651 -6 c10 -22 21 -40 24 -40 3 0
6 -10 7 -21 1 -12 9 -29 17 -38 9 -10 13 -20 10 -24 -3 -3 12 -43 34 -89 21
-46 47 -104 57 -130 10 -26 20 -46 24 -44 3 2 7 -34 9 -80 3 -80 2 -85 -24
-109 -25 -24 -61 -31 -119 -25 -21 2 -113 39 -130 52 -5 5 -37 29 -70 54 -69
52 -250 227 -266 256 -6 12 -17 17 -26 14 -28 -11 -7 17 28 36 18 11 48 27 64
36 17 9 33 15 38 14 4 -1 7 2 7 7 0 5 15 14 33 22 36 15 190 103 226 131 33
25 37 23 57 -22z"/>
<path d="M4875 6442 c-152 -27 -276 -148 -263 -257 2 -24 8 -31 31 -33 23 -3
27 0 27 20 0 13 13 40 30 60 66 79 175 114 281 87 30 -7 59 -12 64 -10 6 1 7
-1 3 -4 -4 -4 4 -17 18 -28 30 -23 74 -90 74 -111 0 -12 6 -13 23 -7 18 7 22
15 20 50 -2 48 -30 128 -53 151 -30 30 -77 59 -103 64 -15 2 -32 8 -38 11 -12
8 -84 12 -114 7z"/>
<path d="M3956 6179 c-65 -22 -103 -51 -159 -118 -35 -43 -44 -103 -17 -109
16 -3 43 19 76 61 34 43 115 78 189 82 36 2 80 -1 98 -7 18 -5 39 -12 47 -15
8 -2 15 -3 16 -1 2 12 72 -83 98 -134 49 -93 78 -86 72 17 -5 68 -11 90 -38
128 -29 41 -41 51 -106 83 -70 35 -193 41 -276 13z"/>
<path d="M5629 6056 c-4 -4 -17 -9 -30 -11 -13 -3 -25 -9 -27 -15 -2 -6 -8 -8
-13 -5 -23 15 -120 -79 -130 -125 -7 -34 15 -90 35 -90 8 0 20 9 26 21 19 35
43 59 89 91 42 29 47 30 122 25 90 -6 125 -26 153 -89 15 -32 20 -36 39 -29
63 23 2 157 -94 207 -30 15 -160 30 -170 20z"/>
<path d="M2512 4820 c-11 -11 -33 -36 -49 -57 -30 -40 -61 -78 -79 -97 -73
-76 -270 -444 -286 -531 -1 -11 -5 -22 -8 -25 -5 -5 -35 -90 -64 -185 -8 -28
-16 -72 -18 -98 -2 -26 -6 -47 -9 -47 -9 0 -17 -47 -24 -140 -4 -41 -8 -80
-10 -87 -2 -6 1 -14 8 -17 7 -2 7 -5 2 -5 -12 -1 -10 -136 5 -301 25 -280 165
-597 360 -814 109 -123 263 -266 285 -266 3 0 13 -7 23 -16 55 -49 142 -83
142 -56 0 5 -35 39 -79 75 -43 37 -120 110 -172 164 -51 54 -97 97 -102 95 -5
-1 -6 2 -3 7 3 5 -16 36 -44 69 -27 33 -50 62 -50 66 0 3 -18 31 -40 62 -109
156 -209 437 -226 634 -2 30 -7 65 -9 78 -12 51 -5 292 9 341 3 9 8 40 11 70
11 87 51 248 90 361 20 58 37 111 37 118 1 6 5 12 9 12 4 0 10 11 13 25 11 43
97 217 148 299 27 43 52 85 55 95 3 9 23 40 45 69 21 28 35 52 31 52 -4 0 0 6
9 13 19 15 30 45 19 51 -4 3 -17 -3 -29 -14z"/>
<path d="M7929 2688 c-40 -80 -120 -210 -146 -236 -7 -8 -18 -23 -24 -34 -28
-51 -277 -307 -346 -355 -29 -20 -50 -40 -46 -46 3 -6 2 -7 -3 -4 -6 3 -46
-20 -89 -51 -77 -55 -180 -119 -275 -171 -114 -62 -350 -180 -350 -174 0 3 -6
1 -12 -4 -7 -6 -25 -13 -40 -17 -15 -3 -40 -11 -55 -18 -15 -6 -30 -12 -33
-13 -3 -1 -23 -9 -45 -19 -22 -10 -76 -27 -120 -37 -44 -11 -100 -27 -125 -35
-48 -17 -52 -18 -117 -29 -24 -4 -43 -10 -43 -13 0 -4 -12 -8 -27 -9 -54 -3
-128 -15 -133 -21 -3 -4 -14 -8 -25 -10 -11 -1 -36 -4 -55 -6 -19 -3 -57 -9
-85 -14 -27 -6 -79 -13 -115 -16 -36 -3 -101 -10 -145 -16 -44 -5 -111 -11
-149 -14 -73 -5 -99 -17 -79 -37 18 -18 270 -23 418 -10 71 7 184 22 250 33
66 12 131 22 145 23 14 2 59 13 100 25 41 12 122 35 180 51 58 16 157 47 220
69 63 23 123 43 132 45 10 2 30 11 45 19 16 8 93 46 173 86 205 100 256 128
351 196 46 32 95 66 109 75 14 9 37 27 51 41 15 14 42 34 60 46 30 19 201 188
239 238 8 10 31 39 50 64 19 25 37 47 40 50 11 11 80 120 75 120 -2 0 11 26
29 58 18 31 39 75 46 97 7 22 16 50 21 63 12 31 11 92 -1 92 -5 0 -28 -37 -51
-82z"/>
</g>
</svg>
