<?xml version="1.0" standalone="no"?>
<!DOCTYPE svg PUBLIC "-//W3C//DTD SVG 20010904//EN"
 "http://www.w3.org/TR/2001/REC-SVG-20010904/DTD/svg10.dtd">
<svg version="1.0" xmlns="http://www.w3.org/2000/svg"
 width="1024.000000pt" height="1024.000000pt" viewBox="0 0 1024.000000 1024.000000"
 preserveAspectRatio="xMidYMid meet">
<metadata>
Created by potrace 1.16, written by Peter Selinger 2001-2019
</metadata>
<g transform="translate(0.000000,1024.000000) scale(0.100000,-0.100000)"
fill="#000000" stroke="none">
<path d="M5295 9319 c-353 -15 -601 -56 -940 -155 -267 -77 -373 -119 -665
-262 -814 -397 -1468 -1064 -1872 -1911 -145 -304 -256 -688 -317 -1096 -66
-441 -52 -970 40 -1430 131 -658 462 -1335 881 -1803 226 -252 531 -534 559
-516 8 4 9 3 5 -4 -19 -31 418 -311 708 -454 300 -147 580 -246 886 -313 541
-118 997 -125 1595 -24 557 94 1174 367 1680 743 211 157 554 473 540 496 -5
8 -4 11 2 7 16 -10 224 234 335 393 73 106 140 230 146 272 5 42 -17 78 -48
78 -9 0 -61 -32 -116 -71 -97 -69 -186 -124 -271 -169 -24 -12 -40 -27 -36
-33 3 -5 1 -7 -4 -4 -10 6 -50 -9 -183 -70 -99 -46 -352 -124 -495 -153 -765
-157 -1535 4 -2141 446 -218 159 -429 370 -551 550 -76 113 -180 292 -172 298
2 1 20 13 39 27 46 31 69 59 70 84 0 11 -20 79 -45 151 -33 96 -46 149 -48
198 l-2 67 115 48 c67 28 114 53 112 60 -1 7 2 10 8 6 18 -11 114 49 181 115
85 83 113 150 107 256 -6 131 -81 205 -263 264 -229 73 -288 99 -372 161 -292
218 -298 863 -14 1482 66 143 176 322 298 485 306 406 820 773 1308 934 326
108 595 156 913 165 241 7 260 11 248 56 -5 20 -38 47 -135 111 -424 280
-1097 486 -1669 511 -64 3 -148 7 -187 8 -38 2 -142 0 -230 -4z m560 -129
c522 -60 890 -172 1355 -411 27 -14 30 -18 15 -19 -11 -1 -29 -3 -40 -5 -11
-2 -60 -6 -110 -9 -299 -19 -783 -152 -1075 -294 -188 -92 -303 -160 -294
-174 4 -7 3 -8 -4 -4 -26 16 -289 -184 -463 -351 -177 -171 -406 -450 -394
-481 3 -7 1 -11 -4 -8 -26 17 -234 -382 -294 -564 -89 -267 -117 -414 -124
-635 -12 -388 83 -634 301 -779 71 -47 127 -72 296 -130 208 -72 247 -101 257
-189 17 -144 -153 -277 -452 -356 -220 -58 -401 -55 -434 7 -18 35 -12 94 14
137 14 22 25 48 25 59 0 16 -5 18 -36 13 -131 -21 -170 -256 -57 -334 61 -42
92 -48 249 -47 l150 1 18 -89 c10 -49 31 -130 47 -180 15 -51 27 -93 26 -93
-1 -1 -18 -11 -37 -23 -54 -32 -176 -70 -281 -87 -293 -47 -601 26 -811 193
-40 32 -79 66 -87 75 -7 9 -18 14 -25 10 -6 -3 -8 -3 -4 2 4 4 -2 21 -14 37
-11 17 -17 33 -12 38 5 5 40 26 78 47 75 41 93 60 82 88 -11 28 -106 15 -200
-29 -91 -42 -199 -139 -236 -213 -30 -60 -34 -140 -7 -157 20 -12 41 8 101 98
51 78 50 78 146 -16 47 -46 119 -105 160 -130 264 -164 653 -218 968 -133 51
14 95 25 97 25 2 0 23 -37 48 -83 202 -381 532 -713 942 -948 456 -261 926
-389 1429 -389 483 1 1034 145 1415 372 l55 32 -52 -75 c-172 -248 -485 -565
-767 -774 -138 -103 -349 -244 -480 -320 -280 -165 -766 -350 -1090 -414 -704
-141 -1353 -108 -1995 102 -202 66 -304 109 -535 222 -230 113 -372 201 -600
371 -802 596 -1318 1453 -1485 2466 -60 366 -66 834 -14 1213 8 61 16 117 19
125 2 8 6 31 9 50 45 299 179 703 342 1030 187 374 421 697 729 1005 317 319
629 540 1049 746 465 228 911 351 1416 389 132 11 555 4 675 -10z"/>
<path d="M3934 8370 c-99 -20 -254 -123 -254 -169 0 -21 8 -25 45 -21 31 3
269 127 291 151 18 20 18 21 -1 35 -21 15 -22 15 -81 4z"/>
<path d="M3362 7950 c-95 -39 -144 -73 -219 -153 -71 -76 -123 -173 -123 -229
0 -33 3 -38 23 -38 16 1 34 19 67 67 72 107 162 190 285 263 108 64 134 92
103 111 -23 15 -61 9 -136 -21z"/>
<path d="M3425 7120 c-128 -27 -242 -90 -352 -194 -136 -127 -249 -323 -203
-351 14 -9 53 17 117 78 115 109 246 188 369 222 127 34 329 29 448 -12 83
-28 116 -12 116 59 0 106 -160 196 -360 204 -52 2 -113 -1 -135 -6z"/>
<path d="M3398 6535 c-225 -49 -381 -181 -493 -417 -60 -127 -85 -227 -92
-368 -17 -340 160 -617 451 -708 82 -25 235 -20 318 11 185 68 340 214 421
399 109 246 100 600 -21 831 -101 195 -352 303 -584 252z m248 -111 c86 -23
176 -93 225 -173 34 -58 34 -59 -42 -53 -60 4 -75 1 -124 -23 -86 -42 -153
-141 -190 -281 -22 -86 -30 -228 -15 -299 17 -85 63 -178 104 -208 46 -35 113
-52 160 -39 20 6 36 7 36 3 0 -22 -64 -92 -115 -126 -115 -76 -277 -107 -396
-75 -162 44 -295 190 -346 380 -37 137 -15 357 52 521 117 288 392 446 651
373z"/>
<path d="M1958 5028 c-17 -33 -22 -191 -9 -289 14 -103 53 -234 84 -280 26
-38 57 -48 77 -24 12 14 9 31 -18 113 -37 113 -49 183 -58 347 -4 66 -11 128
-16 138 -12 24 -45 21 -60 -5z"/>
<path d="M2148 4123 c-8 -94 55 -261 153 -407 59 -88 100 -126 139 -126 54 0
60 50 11 94 -37 34 -108 149 -170 280 -34 69 -61 130 -61 134 0 14 -35 42 -53
42 -9 0 -18 -8 -19 -17z"/>
<path d="M4393 1993 c-11 -28 10 -47 106 -95 136 -68 310 -110 507 -124 123
-9 180 0 201 32 27 42 5 52 -137 64 -69 5 -159 15 -200 21 -70 10 -314 69
-423 103 -43 14 -48 14 -54 -1z"/>
<path d="M5650 1860 c-96 -4 -176 -7 -177 -8 -2 -1 -3 -10 -3 -20 0 -51 87
-77 233 -70 111 5 171 25 183 60 13 42 -10 45 -236 38z"/>
<path d="M8581 9062 c-5 -10 -21 -89 -36 -177 -33 -202 -61 -341 -78 -389
l-13 -37 -190 -64 c-105 -34 -201 -68 -212 -74 -30 -16 -30 -66 1 -85 23 -15
354 -126 375 -126 26 0 44 -58 96 -318 30 -150 60 -279 66 -287 14 -17 46 -20
55 -5 4 6 24 102 45 213 22 111 50 242 62 292 l23 89 55 22 c30 12 120 44 200
70 80 25 151 51 158 57 6 5 12 23 12 39 0 36 -22 47 -245 119 -88 29 -165 56
-172 61 -15 12 -57 189 -97 416 -21 115 -39 188 -47 193 -23 14 -48 10 -58 -9z
m108 -680 c9 -17 28 -24 196 -74 76 -23 102 -38 66 -38 -25 0 -93 -20 -193
-57 l-66 -24 -20 -77 c-12 -42 -29 -115 -39 -162 -17 -83 -17 -84 -25 -45 -23
121 -62 268 -75 280 -13 14 -220 84 -252 86 -9 0 47 22 124 47 l140 47 21 80
c12 44 28 111 35 150 l13 70 33 -132 c17 -73 36 -141 42 -151z"/>
<path d="M6856 7628 c-8 -13 -24 -72 -36 -133 -43 -223 -66 -265 -164 -310
-39 -18 -101 -42 -139 -55 -38 -12 -71 -30 -77 -40 -22 -40 3 -59 150 -110 36
-12 79 -31 96 -41 61 -37 105 -129 125 -262 18 -125 39 -187 67 -200 41 -19
56 13 81 169 38 245 73 287 304 363 121 40 108 81 -41 131 -146 49 -171 66
-205 135 -18 36 -40 113 -58 197 -15 75 -33 146 -39 158 -14 27 -46 26 -64 -2z
m121 -483 c31 -31 57 -47 108 -65 l29 -11 -54 -30 c-65 -35 -111 -83 -147
-156 l-26 -54 -28 58 c-31 64 -81 117 -147 155 l-43 25 56 27 c64 32 116 93
143 168 l17 49 31 -68 c17 -38 44 -82 61 -98z"/>
<path d="M8226 6218 c-7 -18 -19 -76 -25 -128 -23 -188 -61 -334 -89 -349 -10
-4 -73 -27 -142 -51 -146 -51 -170 -64 -170 -95 0 -32 10 -37 144 -84 178 -62
182 -65 204 -124 11 -29 32 -124 47 -212 15 -88 31 -168 36 -177 6 -10 21 -18
34 -18 33 0 40 17 59 145 25 163 65 304 90 321 12 7 66 30 121 50 164 60 185
70 185 98 0 32 -8 37 -140 86 -183 68 -176 63 -200 134 -11 34 -34 142 -50
240 -16 98 -32 182 -35 187 -4 5 -17 9 -31 9 -19 0 -28 -8 -38 -32z m82 -516
c8 -26 28 -39 117 -78 l60 -26 -72 -33 c-81 -38 -94 -53 -124 -150 l-21 -70
-28 79 c-15 43 -36 87 -46 97 -11 10 -53 31 -94 47 l-75 30 30 11 c149 56 149
56 186 169 l23 73 19 -63 c10 -35 22 -73 25 -86z"/>
<path d="M6661 4668 c-5 -18 -17 -62 -26 -98 -31 -126 -31 -127 -185 -160 -72
-16 -90 -26 -90 -51 0 -23 57 -51 144 -69 81 -17 102 -39 130 -140 30 -110 41
-132 69 -128 18 2 26 19 49 97 44 147 46 150 166 185 148 43 148 69 -2 110
-48 14 -96 32 -107 42 -10 9 -30 56 -44 103 -39 131 -44 141 -70 141 -18 0
-26 -8 -34 -32z"/>
<path d="M1671 2666 c-6 -7 -27 -92 -46 -187 -20 -96 -46 -210 -58 -254 l-23
-79 -64 -22 c-36 -12 -112 -37 -170 -55 -116 -36 -140 -51 -140 -85 0 -34 27
-47 209 -108 89 -30 165 -56 167 -59 11 -11 55 -189 74 -299 29 -165 39 -192
72 -196 36 -4 40 6 78 193 43 208 70 303 89 310 9 4 79 28 156 55 171 58 193
68 200 90 14 44 1 52 -185 115 -74 25 -146 51 -159 58 -31 15 -68 138 -104
349 -14 81 -31 157 -37 168 -12 23 -42 26 -59 6z m78 -531 l26 -79 104 -34
103 -35 -108 -41 -108 -41 -23 -70 c-12 -38 -25 -92 -29 -118 -4 -27 -10 -45
-14 -40 -4 4 -20 51 -34 103 -15 52 -33 104 -41 116 -9 14 -49 32 -119 54
l-105 34 102 34 c56 19 107 39 114 45 12 13 57 149 69 212 l8 40 14 -50 c8
-27 26 -86 41 -130z"/>
<path d="M8537 1993 c-3 -5 -19 -64 -36 -133 -17 -69 -36 -135 -41 -147 -12
-30 -48 -46 -160 -73 -113 -26 -130 -34 -130 -60 0 -25 16 -33 145 -69 61 -17
117 -39 130 -51 15 -14 29 -51 44 -113 37 -159 43 -178 61 -187 29 -16 46 10
69 105 39 158 52 195 74 210 12 7 74 28 137 45 63 17 122 38 130 46 13 14 13
17 -8 34 -12 10 -46 23 -75 29 -28 7 -83 21 -120 33 -80 25 -83 29 -121 173
-44 163 -45 165 -71 165 -13 0 -26 -3 -28 -7z"/>
</g>
</svg>
