<?xml version="1.0" standalone="no"?>
<!DOCTYPE svg PUBLIC "-//W3C//DTD SVG 20010904//EN"
 "http://www.w3.org/TR/2001/REC-SVG-20010904/DTD/svg10.dtd">
<svg version="1.0" xmlns="http://www.w3.org/2000/svg"
 width="1024.000000pt" height="1024.000000pt" viewBox="0 0 1024.000000 1024.000000"
 preserveAspectRatio="xMidYMid meet">
<metadata>
Created by potrace 1.16, written by Peter Selinger 2001-2019
</metadata>
<g transform="translate(0.000000,1024.000000) scale(0.100000,-0.100000)"
fill="#000000" stroke="none">
<path d="M4745 9739 c-338 -25 -578 -89 -935 -250 -237 -106 -417 -246 -582
-452 -207 -256 -336 -557 -408 -946 -21 -114 -22 -132 -12 -241 10 -97 9 -132
-3 -201 -20 -115 -69 -277 -115 -379 -54 -121 -98 -258 -116 -364 -22 -123
-14 -328 16 -446 50 -192 193 -415 384 -598 64 -61 74 -74 59 -70 -31 8 -269
-54 -523 -136 -548 -178 -1026 -433 -1290 -688 -76 -73 -186 -200 -222 -258
-48 -75 -105 -205 -119 -269 -6 -29 -9 -90 -7 -135 3 -71 7 -89 33 -132 32
-51 92 -94 132 -94 14 0 28 -10 37 -28 43 -82 139 -135 229 -125 38 5 47 3 47
-10 0 -23 65 -75 110 -87 99 -27 210 48 355 240 27 36 60 79 74 95 l26 30 0
-90 c1 -97 13 -134 64 -188 40 -44 74 -57 144 -57 52 0 71 5 108 29 59 38 92
75 124 139 36 71 75 232 78 315 2 77 -15 63 177 142 104 43 394 145 411 145 4
0 3 -15 -2 -32 -59 -207 -105 -642 -96 -918 7 -217 18 -299 59 -475 49 -211
50 -224 16 -340 -137 -475 -166 -652 -175 -1055 -3 -146 -8 -268 -12 -271 -3
-3 -37 -18 -74 -34 -157 -65 -315 -203 -383 -335 -36 -71 -38 -80 -39 -171 0
-89 2 -99 30 -144 61 -99 209 -165 454 -205 109 -18 494 -15 681 5 283 30 559
96 692 167 66 35 129 95 155 147 29 60 28 182 -3 396 -36 243 -41 564 -11 705
19 88 62 236 75 257 5 8 98 13 322 17 173 3 329 8 346 12 37 7 37 9 64 -129
26 -127 43 -205 86 -377 18 -74 45 -198 59 -275 25 -134 25 -146 14 -269 -19
-212 1 -347 62 -419 120 -140 485 -271 908 -326 161 -21 424 -26 536 -11 336
47 481 197 420 435 -30 112 -123 244 -231 327 -92 70 -135 118 -164 183 -26
57 -28 71 -34 260 -14 414 -33 689 -72 1000 -14 110 -14 143 -4 214 l12 84 62
-66 c85 -91 196 -169 362 -253 78 -40 187 -105 243 -145 194 -141 222 -159
250 -159 16 0 34 6 40 14 6 8 20 57 30 110 21 113 46 152 132 204 70 42 138
62 214 62 69 0 105 19 105 54 0 27 -64 127 -111 175 -88 88 -241 153 -429 182
-288 44 -558 216 -776 495 -40 51 -41 55 -47 151 -15 225 -77 585 -117 680 -9
22 -8 22 68 -7 275 -102 662 -279 662 -303 0 -6 -7 -37 -15 -67 -29 -107 -13
-317 30 -400 21 -41 110 -117 146 -124 160 -32 271 61 311 258 l14 68 88 -122
c105 -145 153 -195 221 -226 85 -40 202 -16 248 51 21 30 23 31 52 19 17 -7
56 -13 87 -14 49 0 62 4 99 33 50 37 89 108 96 171 5 44 5 44 37 35 39 -11
134 12 175 42 73 54 96 117 88 248 -11 198 -102 359 -346 613 -214 224 -510
450 -816 623 -138 79 -271 145 -355 178 -108 43 -302 115 -350 131 -104 33
-463 126 -492 126 -10 0 -18 2 -18 5 0 3 31 44 70 90 161 197 253 355 338 575
22 58 43 112 45 121 4 11 27 -5 87 -63 94 -90 268 -208 385 -261 101 -46 242
-87 320 -94 52 -5 63 -2 79 16 27 30 38 152 24 276 -15 136 -9 160 57 230 51
53 55 61 55 105 0 29 -6 52 -15 60 -8 6 -63 18 -122 26 -204 26 -315 61 -480
149 -80 42 -217 138 -244 171 -11 13 -14 89 -14 378 -1 351 -1 365 -28 504
-40 207 -110 428 -183 575 -94 190 -217 352 -377 498 -198 180 -354 270 -627
359 -169 55 -278 78 -530 111 -177 23 -594 32 -795 18z m660 -129 c56 -7 47
-14 -40 -30 -206 -39 -482 -145 -658 -252 l-79 -48 -61 10 c-211 32 -499 60
-659 61 -65 1 -118 3 -118 4 0 5 156 64 245 93 354 117 437 136 685 156 161
14 585 17 685 6z m454 -80 c142 -38 236 -70 361 -122 180 -76 280 -145 454
-311 l110 -105 -80 16 c-59 12 -143 16 -329 16 -264 0 -389 -10 -547 -45 l-97
-22 -78 31 c-201 79 -371 130 -842 254 -41 10 -43 12 -25 26 70 54 350 163
544 211 116 29 360 79 389 80 13 1 76 -13 140 -29z m-2023 -271 c150 -1 437
-26 569 -49 33 -5 116 -19 185 -31 337 -57 716 -163 1035 -289 484 -190 1163
-604 1483 -904 l52 -49 0 -231 c0 -210 -9 -367 -26 -469 l-6 -39 -112 109
c-136 132 -219 205 -345 302 -91 70 -372 260 -436 295 -16 9 -57 33 -90 54
-33 20 -89 53 -125 71 -36 19 -92 51 -125 71 -467 285 -1122 492 -1780 565
-199 21 -687 14 -865 -14 -74 -12 -136 -21 -137 -21 -9 0 101 175 162 259 120
163 364 395 396 375 3 -2 77 -4 165 -5z m2886 -349 l127 -23 50 -86 c107 -186
184 -386 222 -574 12 -59 19 -110 16 -113 -3 -3 -43 25 -88 62 -141 112 -339
258 -444 326 -107 69 -366 212 -585 324 -103 53 -129 70 -110 72 14 2 88 12
165 22 194 27 468 22 647 -10z m-2567 -344 c428 -55 708 -121 1079 -253 101
-36 256 -100 266 -110 6 -6 -81 5 -130 17 -180 45 -833 66 -1205 39 -303 -21
-480 -55 -760 -143 -77 -25 -198 -63 -270 -85 -71 -23 -145 -50 -163 -61 -18
-11 -35 -20 -37 -20 -10 0 -5 87 9 165 25 140 64 285 96 360 20 46 38 53 215
80 231 36 668 41 900 11z m945 -440 l95 -12 -31 -16 c-57 -31 -143 -118 -188
-191 -81 -130 -117 -254 -117 -409 0 -160 48 -290 145 -395 l58 -63 -69 29
c-37 16 -133 56 -213 91 -79 34 -178 70 -220 81 -100 25 -220 25 -293 0 -32
-11 -57 -18 -57 -16 0 2 14 25 31 50 57 85 98 239 99 371 0 91 -28 225 -63
293 -18 37 -59 92 -93 128 l-62 63 32 1 c17 1 78 5 136 9 141 11 692 2 810
-14z m-1081 -52 c96 -48 154 -123 195 -253 31 -96 35 -232 11 -344 -31 -146
-136 -282 -275 -357 -58 -30 -75 -35 -158 -38 -81 -4 -102 -1 -155 19 -109 42
-206 162 -243 304 -30 110 -7 280 52 397 98 193 251 295 450 297 57 1 80 -4
123 -25z m1417 -14 c233 -38 375 -229 375 -508 0 -167 -52 -305 -155 -408 -95
-95 -129 -109 -261 -108 -90 0 -121 4 -168 23 -82 32 -135 76 -188 154 -63 95
-79 145 -86 267 -7 126 8 196 67 316 68 140 158 222 277 254 83 23 67 22 139
10z m-2010 -105 c-62 -81 -128 -263 -140 -390 -9 -81 17 -223 55 -301 16 -35
52 -88 80 -118 28 -31 49 -56 47 -56 -15 0 -370 126 -417 147 -75 35 -181 104
-181 119 0 6 9 37 20 70 26 75 50 220 50 305 0 37 5 72 13 82 26 34 188 99
392 156 106 30 113 28 81 -14z m2488 -23 c169 -70 238 -111 248 -147 16 -60
58 -272 68 -350 25 -177 18 -427 -13 -447 -30 -19 -382 -50 -541 -47 -138 2
-146 6 -83 37 70 34 175 141 222 225 130 234 123 552 -16 736 -47 62 -50 62
115 -7z m465 -246 c239 -150 381 -260 561 -433 l75 -72 -39 -16 c-78 -33 -643
-173 -652 -162 -1 1 2 25 6 52 14 80 11 234 -5 362 -18 135 -51 300 -65 326
-6 9 -8 17 -5 17 4 0 59 -33 124 -74z m-3481 -476 c171 -101 462 -202 671
-231 178 -25 381 18 576 121 28 15 81 37 118 50 59 20 80 22 158 17 105 -8
192 -35 358 -111 340 -156 586 -208 991 -209 182 0 251 4 365 22 417 65 508
84 745 158 147 46 230 63 230 49 0 -6 -7 -47 -15 -91 -33 -174 -93 -358 -124
-383 -30 -24 -229 -81 -322 -93 -177 -21 -346 -1 -709 86 -124 29 -252 56
-285 59 -33 4 -76 8 -95 11 -19 3 -138 12 -265 20 -296 20 -438 37 -660 79
-274 52 -314 57 -463 64 -227 11 -316 1 -587 -67 -293 -73 -387 -86 -563 -77
-131 6 -280 29 -314 47 -14 7 -18 22 -18 63 0 57 15 154 31 201 17 48 104 255
107 255 2 0 34 -18 70 -40z m4386 -39 c11 -17 170 -118 244 -155 146 -73 362
-136 468 -136 l64 0 -55 -72 c-30 -40 -58 -87 -61 -105 -3 -18 -1 -87 4 -155
6 -68 7 -137 4 -154 l-7 -32 -75 20 c-133 35 -267 97 -390 181 -65 45 -84 62
-187 161 -64 62 -93 97 -93 112 0 13 9 61 19 106 11 46 22 110 26 143 4 33 9
68 11 78 6 18 19 23 28 8z m-2984 -446 c58 -8 164 -26 235 -40 177 -33 383
-62 544 -76 152 -14 153 -15 25 -74 -363 -169 -790 -187 -1118 -49 -140 59
-200 115 -207 194 l-4 35 70 11 c102 17 334 16 455 -1z m-620 -59 c0 -69 67
-158 166 -217 43 -27 56 -42 88 -106 82 -167 236 -314 394 -378 232 -94 520
-45 720 123 142 118 243 270 280 417 9 39 19 72 22 74 24 20 610 -75 610 -99
0 -8 -34 -53 -89 -119 -84 -98 -298 -263 -458 -353 -289 -163 -719 -249 -1173
-235 -488 15 -891 115 -1205 299 -91 54 -130 83 -161 122 -57 72 -96 140 -127
221 -26 69 -62 213 -55 220 1 1 50 -6 108 -17 82 -16 147 -20 295 -20 176 0
200 2 330 31 77 17 160 38 185 45 62 20 70 19 70 -8z m3215 -264 c-45 -84
-113 -186 -152 -225 -44 -45 -259 -170 -518 -300 -393 -198 -769 -324 -1180
-396 -276 -48 -370 -56 -655 -56 -223 0 -278 3 -345 19 -288 66 -628 228 -844
400 -39 31 -71 59 -71 61 0 3 12 0 28 -6 193 -76 513 -168 647 -188 39 -5 108
-16 155 -23 132 -20 596 -17 735 5 491 79 764 189 1060 426 89 71 230 212 285
285 23 31 43 56 44 56 0 0 47 -9 104 -20 144 -27 231 -35 352 -33 112 2 263
29 345 61 28 11 51 20 53 21 2 1 -18 -39 -43 -87z m-1821 -150 c7 -12 -77 -91
-142 -135 -29 -20 -89 -50 -135 -68 -76 -30 -91 -32 -204 -33 -67 -1 -125 2
-129 7 -12 11 44 65 118 113 76 50 213 99 308 109 36 4 67 9 69 11 8 8 110 4
115 -4z m1485 -318 c-45 -50 -213 -186 -298 -243 -297 -199 -706 -341 -1100
-381 -133 -13 -394 -11 -541 4 l-115 12 90 8 c511 44 791 106 1266 279 102 38
386 167 479 218 30 17 89 49 130 71 41 22 79 44 85 49 22 21 26 7 4 -17z m143
-165 l89 -21 -74 -71 c-120 -117 -197 -248 -253 -433 -23 -75 -27 -107 -27
-204 0 -69 6 -140 15 -177 8 -35 12 -63 7 -63 -4 0 -35 22 -67 50 -71 58 -125
143 -154 237 -22 76 -35 274 -24 367 7 56 8 57 68 94 86 53 248 174 282 211
17 17 34 31 39 31 5 0 50 -9 99 -21z m333 -84 c50 -15 132 -40 184 -57 l95
-31 -58 -29 c-36 -18 -89 -61 -144 -116 -141 -141 -231 -323 -263 -532 -13
-85 -7 -246 10 -263 22 -22 10 -25 -28 -6 -22 10 -80 32 -129 48 -127 41 -126
40 -153 128 -30 99 -33 270 -5 378 34 133 128 306 216 399 38 39 143 105 170
106 9 0 56 -11 105 -25z m-3763 -52 c62 -37 115 -68 117 -70 2 -1 -12 -24 -32
-50 -42 -58 -123 -213 -139 -266 l-12 -38 -33 92 c-38 107 -107 227 -175 303
l-47 53 92 20 c51 11 97 21 104 22 6 0 62 -29 125 -66z m-370 -60 c97 -93 186
-260 225 -423 19 -79 21 -69 -48 -305 l-23 -81 -72 -22 c-40 -12 -76 -22 -81
-22 -4 0 -8 51 -9 113 -1 131 -22 220 -80 342 -59 125 -176 271 -262 326 -49
31 -57 26 108 76 63 19 126 38 140 43 14 5 29 9 33 9 5 1 36 -25 69 -56z
m4663 -76 c44 -19 101 -46 127 -60 l47 -25 -72 -35 c-251 -123 -399 -280 -501
-531 -20 -49 -56 -222 -56 -270 0 -20 -3 -36 -7 -36 -3 0 -37 14 -74 31 -88
41 -94 55 -94 224 0 144 19 235 74 358 57 127 197 289 292 337 71 37 142 58
164 50 11 -5 56 -24 100 -43z m-3840 -137 c109 -113 258 -214 447 -307 139
-67 376 -136 563 -163 111 -16 117 -20 60 -36 -229 -64 -447 -110 -678 -144
l-148 -21 -97 67 c-152 105 -180 128 -301 247 -111 109 -194 208 -206 247 -9
28 67 169 127 236 l19 21 67 -32 c50 -24 88 -53 147 -115z m-1285 111 c52 -28
161 -128 212 -196 115 -150 177 -360 158 -535 l-5 -52 -87 -28 -88 -28 0 37
c0 20 -9 70 -21 111 -63 230 -240 449 -459 569 l-51 28 38 16 c60 26 247 96
258 96 6 0 26 -8 45 -18z m3508 -109 c-158 -132 -397 -258 -688 -362 -108 -39
-116 -40 -239 -40 -339 0 -691 94 -966 258 -68 41 -156 104 -151 109 1 2 41
-8 87 -21 328 -94 581 -130 904 -130 370 1 668 54 980 176 112 44 113 44 73
10z m187 -261 c24 -93 52 -159 95 -223 l38 -57 -96 -65 c-340 -227 -837 -442
-1332 -575 -132 -35 -342 -79 -415 -87 -27 -3 -60 -7 -73 -10 -174 -37 -712
-54 -927 -29 -137 15 -309 44 -342 56 -18 6 -23 16 -23 41 0 44 25 200 51 318
l21 95 312 0 c268 0 335 3 486 23 517 68 931 168 1385 334 291 107 652 315
764 440 l26 30 7 -114 c4 -63 14 -143 23 -177z m1774 218 c84 -47 241 -152
241 -161 0 -4 -3 -7 -7 -6 -20 5 -129 -26 -202 -57 -161 -68 -290 -172 -410
-331 -61 -80 -125 -206 -145 -284 -8 -30 -18 -54 -23 -53 -4 1 -44 18 -87 38
l-79 36 7 96 c16 235 163 490 358 619 60 40 252 131 282 133 5 1 34 -13 65
-30z m-5842 -30 c95 -44 177 -105 254 -187 134 -141 201 -273 227 -444 l9 -58
-55 -25 c-67 -31 -68 -31 -76 0 -23 90 -132 271 -215 358 -90 94 -242 192
-384 248 l-69 26 64 35 c88 48 151 78 165 78 7 0 43 -14 80 -31z m1465 -370
c75 -75 173 -160 217 -190 77 -52 79 -54 53 -62 -32 -9 -501 -17 -584 -10 -47
4 -58 8 -58 23 0 22 72 270 106 365 14 39 28 81 31 95 6 24 8 22 52 -30 24
-30 107 -116 183 -191z m-1776 191 c175 -45 376 -195 488 -363 48 -73 91 -156
84 -163 -2 -1 -25 2 -52 7 -54 10 -78 6 -149 -24 l-48 -20 -32 39 c-159 197
-367 345 -548 389 -59 15 -68 20 -53 28 11 5 31 21 45 34 54 50 124 92 155 92
17 1 66 -8 110 -19z m6615 -107 c75 -64 78 -68 52 -71 -58 -6 -178 -35 -234
-57 -163 -64 -361 -237 -471 -410 -37 -59 -58 -82 -68 -79 -44 16 -111 16
-149 0 -41 -16 -41 -16 -41 7 0 101 122 318 246 439 112 108 186 153 339 206
75 26 93 29 178 31 l68 1 80 -67z m-6865 -129 c191 -64 310 -151 454 -331 40
-50 41 -54 29 -86 -18 -51 -37 -73 -53 -62 -7 6 -44 33 -82 62 -77 58 -247
150 -346 187 -68 26 -201 60 -281 71 -26 4 -49 11 -52 15 -6 9 28 54 94 123
44 45 47 47 102 47 35 0 87 -10 135 -26z m7022 -40 c17 -3 50 -25 74 -48 53
-50 148 -157 148 -167 0 -3 -27 -9 -60 -13 -88 -10 -154 -36 -344 -135 -211
-110 -323 -178 -400 -244 l-59 -51 -36 40 c-20 22 -53 58 -73 81 l-37 41 35
58 c110 182 280 331 458 398 50 19 100 37 111 39 31 7 149 8 183 1z m-2150
-113 c20 -16 62 -42 92 -59 43 -23 56 -36 63 -63 11 -41 -3 -54 -113 -109
-225 -112 -590 -208 -970 -255 -183 -22 -188 -19 -50 34 343 133 621 274 866
440 33 22 63 41 67 41 5 0 25 -13 45 -29z m-5160 -97 l33 -5 -45 -57 c-24 -31
-56 -80 -70 -109 -32 -64 -76 -197 -76 -229 0 -14 -6 -24 -14 -24 -20 0 -56
83 -56 127 1 98 71 287 113 302 21 8 42 7 115 -5z m198 -53 c32 -11 81 -29
107 -41 l48 -22 -46 -51 c-87 -98 -139 -187 -171 -292 -32 -108 -46 -122 -107
-111 -52 10 -71 37 -75 109 -5 78 27 203 68 270 17 27 30 50 30 53 0 9 72 104
79 104 4 0 34 -9 67 -19z m7455 -111 c46 -75 89 -203 89 -263 0 -100 -33 -147
-102 -147 -49 0 -80 30 -107 105 -32 87 -80 181 -129 253 -24 35 -42 65 -40
66 16 13 96 36 139 41 29 3 56 8 58 11 3 3 16 4 29 2 18 -2 35 -21 63 -68z
m-6571 21 c23 -17 25 -25 28 -120 1 -57 -2 -110 -8 -120 -10 -20 -11 -19 -58
2 -36 16 -67 22 -129 22 l-83 0 6 50 c10 87 23 113 69 145 80 55 123 60 175
21z m-574 -49 c34 -20 82 -56 108 -78 l45 -41 -26 -24 c-14 -13 -52 -58 -85
-99 -78 -99 -194 -216 -229 -231 -72 -29 -107 23 -87 129 21 114 42 165 95
236 29 39 65 88 80 108 16 21 30 37 33 38 3 0 33 -17 66 -38z m4859 -34 c9
-40 18 -82 20 -93 26 -139 44 -249 42 -250 -30 -23 -159 -84 -247 -118 -385
-148 -722 -204 -1180 -194 -425 9 -827 76 -1170 195 l-55 19 105 7 c209 14
552 74 790 138 109 29 125 31 325 33 212 2 332 15 545 56 242 47 540 142 700
223 58 29 106 53 107 54 1 1 9 -31 18 -70z m1947 -26 c37 -57 76 -143 118
-261 37 -105 28 -223 -22 -286 -18 -24 -26 -27 -61 -22 -57 8 -101 54 -116
121 -18 81 -103 244 -160 308 -28 31 -51 59 -51 62 0 5 241 136 250 135 3 0
22 -26 42 -57z m-916 -77 c19 -8 62 -40 94 -71 l60 -57 0 -60 c0 -52 -2 -58
-17 -53 -34 13 -177 28 -224 24 -45 -5 -49 -3 -49 16 0 33 39 165 56 192 19
28 32 29 80 9z m589 -112 c94 -114 152 -263 143 -365 -6 -59 -21 -78 -63 -78
-69 0 -162 93 -289 290 l-49 74 42 38 c44 39 141 107 153 108 4 0 33 -30 63
-67z m-5979 -24 c27 -13 50 -29 51 -35 2 -6 -15 -35 -38 -64 -41 -52 -116 -97
-144 -86 -36 14 -71 125 -58 187 l6 31 68 -4 c43 -3 85 -14 115 -29z m954
-153 c160 -29 325 -47 437 -47 124 0 127 -1 378 -93 280 -102 532 -157 903
-197 168 -18 237 -20 467 -16 149 3 281 7 295 10 14 3 52 8 85 12 68 7 144 23
325 66 199 48 285 77 479 164 57 25 106 43 110 40 3 -4 7 -93 9 -199 l4 -192
-36 -28 c-124 -94 -366 -196 -631 -266 -307 -80 -594 -116 -875 -107 -107 4
-211 9 -230 11 -19 2 -64 7 -100 10 -36 4 -139 18 -230 32 -567 87 -986 230
-1404 479 l-129 77 6 102 c4 55 7 116 7 135 0 29 3 33 23 28 12 -3 60 -12 107
-21z m4522 -32 c45 -13 58 -21 58 -36 0 -26 -53 -129 -79 -152 -25 -23 -68
-23 -109 -2 -33 17 -76 95 -87 158 -7 34 -5 37 22 41 65 10 140 6 195 -9z
m-4622 -335 c10 -13 140 -88 260 -152 354 -186 848 -329 1323 -383 81 -9 146
-19 144 -21 -7 -7 -250 -51 -351 -63 -126 -16 -527 -7 -686 15 -234 32 -468
90 -583 144 -102 48 -103 50 -120 181 -9 63 -18 159 -21 214 -5 92 -5 97 12
85 9 -8 19 -17 22 -20z m4018 -312 c155 -104 313 -162 572 -212 168 -32 241
-66 311 -144 l50 -56 -53 -7 c-30 -4 -81 -17 -113 -29 -60 -22 -175 -93 -175
-107 0 -5 -9 -18 -21 -31 -24 -26 -69 -131 -69 -161 0 -24 -11 -17 -155 96
-38 30 -140 90 -226 133 -200 100 -265 145 -364 246 -113 116 -112 113 -92
243 9 59 20 153 23 208 l7 102 116 -117 c65 -64 149 -138 189 -164z m-442 76
c-3 -16 -8 -53 -11 -83 -8 -67 -52 -310 -60 -331 -6 -16 -106 -80 -195 -124
-149 -75 -420 -172 -627 -224 -399 -102 -606 -142 -808 -156 -44 -3 -109 -8
-145 -10 l-65 -5 105 38 c257 93 498 219 695 364 97 71 96 70 218 179 l98 87
132 32 c265 64 479 146 615 235 48 31 55 31 48 -2z m-3401 -344 c126 -43 245
-68 500 -106 158 -24 210 -27 435 -28 301 0 429 17 711 91 173 46 175 46 404
55 127 5 265 15 308 22 42 7 76 10 75 6 -11 -30 -323 -249 -458 -322 -180 -97
-449 -202 -635 -246 -49 -12 -107 -27 -127 -33 -64 -19 -326 1 -493 38 -281
62 -497 162 -725 334 l-95 72 -21 85 c-18 73 -19 83 -5 77 9 -4 66 -24 126
-45z m120 -391 c216 -129 437 -209 753 -274 72 -15 132 -30 132 -34 0 -4 -11
-17 -24 -29 -32 -30 -136 -37 -317 -22 -203 17 -383 57 -559 122 -113 42 -240
124 -276 178 l-25 38 28 105 27 105 101 -77 c55 -42 127 -93 160 -112z m3195
180 c0 -2 9 -73 19 -157 11 -85 18 -158 15 -163 -8 -13 -124 -75 -219 -116
-294 -128 -642 -202 -951 -202 -164 0 -169 3 -190 109 -7 41 -13 75 -11 76 8
7 116 38 192 55 191 44 601 169 775 237 63 25 169 72 235 104 109 53 135 64
135 57z m-3430 -406 c221 -140 594 -227 968 -225 61 1 112 0 112 -1 0 -2 -5
-17 -11 -34 -12 -36 -47 -50 -204 -81 -279 -54 -581 -53 -845 5 -115 26 -200
56 -200 71 1 33 58 321 67 336 3 5 15 0 27 -10 11 -11 50 -38 86 -61z m3491
-175 c13 -183 24 -160 -105 -228 -162 -85 -372 -150 -601 -184 -220 -34 -543
-29 -574 9 -9 10 -40 126 -65 237 l-6 26 123 -2 c288 -4 591 46 842 140 39 15
84 31 100 36 17 5 84 35 150 68 66 32 121 58 122 57 1 -1 7 -73 14 -159z
m-3650 -201 c65 -26 245 -66 359 -80 216 -26 532 -7 732 44 105 27 112 26 104
-7 -3 -16 -9 -82 -12 -148 -4 -66 -9 -123 -13 -127 -12 -13 -197 -57 -286 -69
-127 -16 -382 -6 -515 21 -134 27 -270 72 -346 114 l-59 33 -3 116 c-1 65 -1
117 1 117 3 0 20 -6 38 -14z m3673 -193 c4 -71 9 -158 12 -196 l6 -67 -44 -19
c-48 -22 -210 -64 -308 -80 -264 -44 -679 -35 -879 19 l-37 10 -22 107 c-11
59 -19 109 -17 111 1 2 67 -1 145 -7 176 -12 309 -6 465 20 217 36 413 99 585
189 41 21 78 39 81 40 4 0 10 -57 13 -127z m-3610 -173 c306 -130 724 -157
1034 -67 l82 24 0 -32 c0 -17 7 -73 16 -125 13 -77 14 -94 2 -101 -37 -23
-160 -41 -283 -41 -145 0 -255 20 -435 77 -129 41 -318 81 -425 90 -44 4 -82
9 -85 12 -5 4 -7 203 -2 203 2 0 45 -18 96 -40z m3658 -255 l26 -65 -76 0
c-213 -1 -421 -85 -578 -233 -85 -79 -150 -173 -195 -277 -18 -41 -34 -76 -35
-78 -1 -1 -35 6 -75 17 -95 25 -236 84 -273 115 l-30 23 27 45 c39 67 175 189
274 247 144 84 269 126 519 176 140 28 304 68 344 84 42 16 46 13 72 -54z
m-1221 -11 c37 -10 268 -34 327 -34 34 0 62 -3 61 -7 0 -5 -39 -27 -87 -50
-127 -62 -293 -195 -349 -280 -9 -13 -19 -21 -23 -18 -18 11 -22 122 -10 239
7 67 13 131 12 144 -2 23 3 23 69 6z m-2331 -25 c92 -18 112 -26 160 -62 159
-119 256 -248 353 -469 l25 -57 -51 -10 c-29 -6 -79 -13 -113 -17 l-61 -6 -32
68 c-69 148 -166 269 -271 340 -133 91 -227 122 -396 132 l-119 7 64 39 c35
21 82 45 105 52 52 18 192 10 336 -17z m682 -144 c110 -8 240 7 321 36 28 10
52 17 54 16 1 -2 8 -59 14 -128 12 -120 11 -126 -10 -166 -12 -24 -39 -54 -60
-68 -72 -48 -354 -136 -372 -117 -4 4 -21 42 -39 84 -57 140 -141 265 -256
383 l-39 40 145 -36 c83 -21 187 -40 242 -44z m2998 3 c19 -9 62 -41 95 -71
l60 -56 -63 -1 c-251 -1 -516 -158 -638 -376 -33 -59 -39 -65 -63 -60 -14 3
-74 14 -133 26 -59 11 -119 25 -133 30 l-25 9 19 48 c118 300 405 480 746 469
61 -2 114 -9 135 -18z m-3960 -40 c197 -38 370 -180 466 -382 19 -41 24 -60
16 -68 -7 -7 -100 -11 -274 -12 -224 -1 -275 2 -343 18 -287 67 -362 156 -279
331 13 28 37 65 52 84 25 30 36 35 93 41 76 8 192 3 269 -12z m4165 -188 c34
-13 64 -81 65 -145 0 -100 -83 -174 -235 -207 -65 -14 -497 -19 -511 -6 -14
15 31 93 90 155 55 60 166 138 231 163 107 42 298 63 360 40z"/>
<path d="M3919 7737 c-132 -88 -164 -328 -58 -439 38 -40 39 -40 96 -36 53 5
60 8 102 55 60 64 81 125 81 230 0 100 -24 163 -72 193 -45 27 -106 26 -149
-3z"/>
<path d="M5453 7700 c-114 -51 -175 -236 -123 -373 31 -81 78 -127 132 -127
65 0 121 39 155 107 26 53 28 68 28 168 0 93 -3 116 -21 150 -43 80 -103 106
-171 75z"/>
<path d="M7745 2995 c-5 -2 -27 -6 -47 -10 -34 -5 -38 -9 -38 -35 0 -29 47
-80 74 -80 33 0 72 64 64 107 -3 17 -30 26 -53 18z"/>
</g>
</svg>
