<?xml version="1.0" encoding="UTF-8" standalone="yes"?>
<svg version="1.0" xmlns="http://www.w3.org/2000/svg" width="1024.000000pt" height="1024.000000pt" viewBox="0 0 1024.000000 1024.000000" preserveAspectRatio="xMidYMid meet">
  <metadata>
Created by potrace 1.16, written by Peter Selinger 2001-2019
</metadata>
  <g transform="translate(0.000000,1024.000000) scale(0.100000,-0.100000)" fill="#000000" stroke="none">
    <path d="M7235 9635 c-60 -7 -216 -23 -345 -35 -255 -23 -535 -50 -1095 -105&#xA;-198 -19 -583 -55 -855 -80 -509 -46 -738 -67 -1180 -110 -140 -13 -336 -31&#xA;-435 -40 -159 -13 -503 -46 -800 -75 -55 -5 -154 -15 -220 -20 -134 -12 -182&#xA;-23 -239 -52 -89 -45 -191 -168 -238 -287 -21 -54 -22 -69 -25 -511 -2 -250&#xA;-4 -570 -4 -710 1 -759 -2 -4475 -3 -4645 -2 -282 14 -1333 20 -1375 16 -104&#xA;145 -256 295 -347 225 -137 501 -196 754 -160 61 9 169 21 240 27 72 6 192 18&#xA;267 26 200 20 184 24 203 -43 46 -166 122 -298 243 -420 148 -149 357 -252&#xA;402 -198 11 13 11 37 0 130 -7 64 -11 117 -8 120 3 3 61 -4 129 -16 148 -26&#xA;347 -31 397 -10 25 10 32 19 32 41 0 21 -23 48 -112 131 -61 57 -135 135 -163&#xA;174 -49 66 -105 164 -105 183 0 5 46 14 103 21 261 29 1013 111 1112 121 61 6&#xA;128 12 150 15 22 2 69 6 105 10 136 12 474 47 685 70 351 39 763 83 985 105&#xA;538 54 755 81 789 98 20 9 44 32 55 51 19 33 19 92 21 3659 l1 3626 -21 40&#xA;c-12 24 -36 49 -57 60 -34 19 -43 19 -229 7 -192 -13 -195 -13 -254 10 -117&#xA;43 -209 119 -242 198 -11 26 -14 54 -9 101 10 110 -21 176 -98 211 -47 21 -93&#xA;22 -251 4z m213 -207 l3 -87 -33 -5 c-18 -3 -132 -15 -253 -26 -708 -64 -1213&#xA;-109 -1740 -155 -159 -13 -339 -29 -400 -35 -60 -5 -168 -14 -240 -20 -357&#xA;-28 -744 -62 -860 -75 -71 -8 -209 -21 -305 -29 -96 -9 -276 -25 -400 -36&#xA;-124 -12 -322 -30 -440 -40 -118 -11 -284 -27 -369 -36 -85 -8 -158 -11 -162&#xA;-7 -5 5 -12 43 -17 85 l-8 76 38 6 c20 3 156 17 300 31 145 14 378 37 518 51&#xA;307 30 1025 98 1700 159 272 25 632 59 800 75 168 17 521 48 785 70 264 22&#xA;590 51 725 64 135 13 270 24 300 23 l55 -2 3 -87z m52 -195 c26 -34 19 -38&#xA;-80 -47 -156 -12 -1039 -95 -1785 -166 -115 -11 -291 -27 -390 -35 -190 -17&#xA;-225 -22 -225 -35 0 -18 41 -19 243 -5 117 8 354 24 527 35 173 11 362 25 420&#xA;30 58 6 240 24 405 40 165 16 383 36 485 45 102 9 252 23 333 31 l148 16 46&#xA;-30 46 -30 -34 -6 c-19 -3 -180 -20 -359 -36 -179 -17 -453 -44 -610 -60 -157&#xA;-17 -352 -37 -435 -45 -82 -8 -233 -24 -335 -35 -235 -25 -630 -64 -920 -90&#xA;-659 -59 -1592 -149 -1914 -185 -188 -21 -342 -19 -445 5 -46 11 -90 24 -97&#xA;28 -8 4 135 22 323 41 962 93 1036 101 1020 117 -8 9 -644 -37 -1143 -82 -149&#xA;-13 -286 -24 -305 -24 -22 0 -53 12 -85 31 -43 28 -47 33 -29 40 11 4 146 19&#xA;300 34 154 14 552 53 885 85 870 86 1096 108 1355 130 238 20 461 40 990 90&#xA;338 31 338 31 725 60 317 24 831 69 845 75 34 13 75 3 95 -22z m778 -3401 c-3&#xA;-3348 -7 -4045 -23 -4061 -5 -5 -89 -17 -185 -26 -241 -22 -539 -52 -700 -70&#xA;-296 -33 -1067 -116 -1265 -135 -115 -12 -394 -41 -620 -65 -225 -25 -531 -56&#xA;-680 -70 -148 -14 -490 -50 -760 -80 -269 -30 -546 -59 -615 -65 -69 -6 -136&#xA;-13 -150 -15 -14 -3 -74 -9 -135 -15 -60 -5 -132 -12 -160 -15 l-50 -6 3 3643&#xA;c2 2003 5 3644 7 3647 3 2 159 17 347 33 189 15 471 41 628 58 157 16 375 36&#xA;485 45 110 8 214 17 230 20 31 5 253 27 705 70 146 14 321 32 390 40 212 24&#xA;613 63 1145 110 281 25 629 56 775 70 522 49 587 54 613 42 16 -7 17 -157 15&#xA;-3155z m-6171 3096 c5 -125 46 -207 143 -282 88 -68 302 -140 449 -151 42 -3&#xA;91 -8 109 -11 l32 -5 0 -64 c0 -53 -3 -66 -19 -75 -49 -25 -283 -3 -421 41&#xA;-156 50 -326 168 -405 283 -37 54 -40 63 -40 126 0 54 5 75 21 97 19 25 112&#xA;103 124 103 3 0 6 -28 7 -62z m4 -496 c76 -51 180 -99 275 -128 82 -25 104&#xA;-27 267 -28 l177 -1 -2 -381 -3 -382 -109 -12 c-261 -29 -518 40 -718 191&#xA;l-68 51 0 426 0 426 68 -65 c37 -37 88 -80 113 -97z m-29 -896 c151 -83 296&#xA;-117 501 -118 120 0 180 5 230 19 16 4 17 -8 17 -151 0 -173 -2 -179 -68 -193&#xA;-20 -4 -107 -7 -192 -7 -132 1 -170 5 -253 27 -136 36 -291 112 -356 174 l-51&#xA;49 0 157 0 158 54 -41 c30 -22 83 -55 118 -74z m-105 -373 c160 -122 461 -199&#xA;682 -174 55 7 113 16 130 21 l31 9 2 -2022 c2 -1112 -1 -2026 -5 -2032 -5 -6&#xA;-74 -10 -170 -10 -137 1 -175 4 -247 24 -154 41 -307 125 -420 228 l-52 48 -2&#xA;1973 c0 1084 0 1972 1 1972 2 0 24 -16 50 -37z m48 -4114 c196 -141 450 -210&#xA;707 -193 l88 6 0 -209 0 -210 -76 -13 c-96 -15 -204 -7 -349 27 -262 61 -462&#xA;191 -479 309 -8 61 -8 339 0 347 8 8 11 6 109 -64z m-45 -524 c60 -44 185&#xA;-106 270 -133 150 -49 207 -57 399 -57 l184 0 -7 -570 -6 -570 -142 2 c-159 1&#xA;-252 22 -393 87 -144 67 -285 186 -330 281 l-24 50 -5 473 c-2 259 -2 472 1&#xA;472 3 0 27 -16 53 -35z m2312 -1362 c50 -111 124 -217 205 -294 l76 -72 -64 6&#xA;c-35 4 -123 17 -195 28 -115 19 -134 20 -160 8 -38 -19 -54 -80 -45 -173 4&#xA;-36 5 -66 3 -66 -2 0 -37 23 -79 52 -172 119 -282 267 -332 446 l-19 70 61 6&#xA;c364 35 484 48 492 51 22 8 27 2 57 -62z"/>
    <path d="M7492 8483 c-5 -10 -19 -62 -32 -115 -29 -132 -45 -153 -155 -208&#xA;-65 -33 -91 -51 -93 -66 -4 -28 11 -38 95 -63 86 -26 125 -65 149 -151 34&#xA;-122 48 -155 71 -158 28 -4 38 15 53 108 7 41 19 91 27 110 26 64 92 116 168&#xA;134 44 11 75 34 75 57 0 20 -24 34 -132 73 -63 23 -112 79 -134 153 -40 137&#xA;-40 138 -62 141 -12 2 -24 -4 -30 -15z m96 -343 c4 0 13 -4 21 -9 12 -8 8 -15&#xA;-19 -37 -18 -16 -41 -41 -50 -57 l-18 -29 -17 26 c-9 14 -33 35 -52 47 l-34&#xA;21 40 34 c22 19 43 44 46 55 6 19 9 18 41 -15 19 -20 38 -36 42 -36z"/>
    <path d="M5502 8440 c-217 -31 -465 -136 -652 -276 -556 -418 -726 -1158 -414&#xA;-1799 107 -221 278 -386 516 -500 347 -166 790 -160 1141 16 492 247 803 791&#xA;774 1353 -31 599 -419 1071 -979 1192 -87 19 -297 26 -386 14z m-2 -251 c-23&#xA;-63 -69 -193 -102 -289 -71 -207 -137 -382 -146 -392 -8 -8 -234 -30 -537 -53&#xA;-110 -8 -212 -18 -227 -21 -16 -3 -28 -2 -28 3 0 4 23 55 51 113 133 278 329&#xA;489 580 628 147 81 438 170 447 136 1 -5 -16 -62 -38 -125z m290 121 c174 -23&#xA;313 -75 462 -173 161 -106 274 -231 369 -410 54 -102 57 -112 32 -114 -551&#xA;-45 -744 -56 -755 -45 -5 5 -63 170 -129 368 -65 197 -121 365 -124 372 -5 15&#xA;39 15 145 2z m-32 -680 l67 -185 95 0 c140 0 595 31 612 41 4 3 8 2 7 -3 0 -4&#xA;-24 -28 -52 -52 -29 -24 -148 -136 -264 -249 -193 -185 -213 -207 -213 -237 0&#xA;-18 38 -176 85 -350 47 -175 84 -319 82 -322 -5 -4 -131 74 -373 233 -201 131&#xA;-198 130 -239 105 -19 -11 -154 -110 -301 -221 -146 -110 -269 -199 -271 -196&#xA;-3 3 23 103 57 223 95 334 130 465 130 484 0 17 -207 170 -475 350 l-110 74&#xA;70 8 c39 4 202 20 364 36 200 20 298 33 306 43 8 7 39 85 69 173 126 360 169&#xA;481 178 498 7 14 20 -13 59 -125 27 -79 79 -226 117 -328z m981 -260 c15 -144&#xA;14 -317 -4 -430 -40 -243 -165 -495 -338 -677 -63 -67 -72 -72 -79 -54 -7 19&#xA;-189 711 -190 721 -1 20 13 36 100 112 53 46 184 167 291 267 106 100 197 179&#xA;201 174 4 -4 12 -55 19 -113z m-2221 -123 c220 -154 509 -360 525 -376 17 -16&#xA;16 -21 -12 -116 -16 -55 -66 -228 -111 -385 -45 -157 -84 -287 -86 -289 -8 -8&#xA;-87 55 -139 110 -210 228 -318 543 -302 878 9 180 17 231 34 231 8 0 49 -24&#xA;91 -53z m1383 -942 c162 -107 298 -197 304 -199 18 -7 -48 -55 -155 -110 -331&#xA;-171 -706 -180 -1041 -23 -63 29 -85 47 -59 47 10 0 470 344 580 434 30 24 60&#xA;45 67 45 6 1 143 -87 304 -194z"/>
    <path d="M3621 8071 c-6 -10 -18 -54 -26 -97 -26 -121 -47 -151 -136 -188&#xA;-111 -46 -110 -45 -107 -68 2 -18 19 -28 78 -50 108 -39 124 -61 177 -233 16&#xA;-52 21 -60 43 -60 23 0 26 6 43 75 31 133 38 151 70 186 22 23 56 44 107 62&#xA;66 24 75 31 75 52 0 22 -9 28 -78 52 -43 14 -88 34 -99 45 -29 26 -54 79 -67&#xA;143 -19 89 -56 126 -80 81z m87 -310 l30 -13 -39 -35 c-22 -20 -42 -46 -45&#xA;-59 -8 -31 -16 -30 -32 5 -7 15 -28 36 -47 46 l-34 19 29 17 c15 10 41 33 56&#xA;53 l28 35 12 -28 c6 -15 25 -33 42 -40z"/>
    <path d="M7435 6870 c-4 -6 -15 -43 -26 -83 -11 -39 -28 -80 -37 -91 -9 -10&#xA;-45 -31 -80 -47 -58 -26 -63 -31 -60 -56 3 -23 12 -31 66 -51 71 -27 89 -48&#xA;117 -139 29 -90 68 -85 95 13 22 80 40 103 107 139 96 51 95 81 -3 110 -43 12&#xA;-59 23 -78 53 -14 20 -28 51 -31 67 -16 72 -27 95 -45 95 -10 0 -22 -5 -25&#xA;-10z m39 -290 l-18 -30 -23 22 -23 22 27 28 c26 27 27 27 40 8 12 -17 12 -24&#xA;-3 -50z"/>
    <path d="M3651 6617 c-6 -8 -17 -49 -26 -92 -16 -86 -44 -151 -78 -183 -12&#xA;-11 -55 -33 -96 -49 -124 -47 -123 -79 4 -118 76 -23 89 -30 115 -66 16 -23&#xA;36 -66 44 -97 35 -128 39 -137 66 -137 28 0 38 23 66 158 20 100 56 141 157&#xA;176 110 38 109 73 -3 116 -115 44 -144 79 -176 211 -20 83 -47 112 -73 81z&#xA;m72 -404 c-24 -23 -43 -48 -43 -55 0 -6 -15 4 -32 23 -18 20 -42 40 -52 46&#xA;-19 10 -18 12 12 38 18 15 39 40 47 55 l14 28 48 -47 48 -46 -42 -42z"/>
    <path d="M7508 5701 c-120 -39 -198 -106 -246 -210 -23 -49 -27 -69 -27 -161&#xA;0 -90 3 -112 23 -152 37 -75 95 -131 224 -219 149 -101 189 -137 213 -188 24&#xA;-53 14 -104 -29 -147 -68 -68 -159 -55 -244 33 -34 36 -58 53 -67 49 -26 -9&#xA;-129 -82 -149 -105 -16 -18 -17 -24 -6 -50 18 -46 99 -122 157 -148 82 -38&#xA;160 -49 243 -34 209 38 343 192 343 396 1 131 -60 212 -269 361 -190 136 -211&#xA;164 -202 266 4 42 11 57 36 79 17 16 47 31 67 35 60 11 95 -6 143 -69 51 -67&#xA;51 -67 150 -5 77 49 88 67 66 109 -23 46 -100 116 -158 146 -69 35 -185 42&#xA;-268 14z"/>
    <path d="M6602 5581 c-23 -4 -49 -14 -57 -22 -21 -21 -26 -1229 -5 -1254 11&#xA;-13 24 -16 64 -11 108 13 373 36 423 36 74 0 93 26 93 127 0 41 -5 83 -10 94&#xA;-13 24 -41 24 -212 3 -71 -9 -131 -14 -135 -11 -3 3 -8 235 -10 514 -3 322 -9&#xA;513 -15 521 -11 13 -65 14 -136 3z"/>
    <path d="M5891 5511 c-35 -5 -58 -13 -67 -26 -12 -16 -14 -122 -14 -621 0&#xA;-367 4 -613 10 -628 12 -32 30 -33 235 -7 83 11 183 22 224 26 99 10 111 22&#xA;111 119 0 56 -4 79 -18 96 l-18 22 -149 -17 c-83 -9 -153 -19 -157 -22 -5 -2&#xA;-8 225 -8 506 0 307 -4 520 -10 535 -10 28 -27 30 -139 17z"/>
    <path d="M5479 5486 c-2 -3 -91 -10 -196 -17 -106 -7 -198 -16 -205 -20 -19&#xA;-12 -24 -1267 -5 -1293 13 -17 22 -17 258 3 134 12 261 23 282 25 63 7 68 16&#xA;65 125 l-3 96 -58 3 c-32 2 -108 -4 -170 -12 -61 -9 -119 -16 -129 -16 -17 0&#xA;-18 13 -18 149 0 83 4 152 9 155 4 3 66 9 136 12 162 9 165 11 165 125 0 124&#xA;1 123 -139 114 -64 -4 -129 -8 -144 -9 l-28 -1 -4 157 -5 157 33 5 c17 3 85 7&#xA;150 10 64 3 126 10 137 16 22 12 35 79 27 146 -7 64 -19 74 -92 74 -34 0 -64&#xA;-2 -66 -4z"/>
    <path d="M4316 5411 c-70 -5 -91 -10 -102 -26 -12 -16 -14 -125 -14 -650 0&#xA;-570 2 -633 17 -654 15 -23 19 -23 102 -17 121 9 123 12 120 162 -2 65 -3 162&#xA;-3 214 l-1 95 67 7 c140 13 235 56 315 141 59 62 89 121 108 213 27 127 11&#xA;263 -41 352 -32 54 -108 114 -181 143 -65 25 -221 33 -387 20z m353 -266 c40&#xA;-46 59 -130 43 -193 -27 -101 -91 -157 -198 -171 -85 -12 -84 -13 -84 209 l0&#xA;189 58 6 c31 3 66 7 77 8 35 5 73 -14 104 -48z"/>
    <path d="M3613 5385 c-79 -22 -130 -51 -185 -106 -75 -75 -101 -142 -106 -266&#xA;-4 -92 -2 -106 21 -157 36 -77 107 -144 272 -256 144 -98 179 -135 191 -197 9&#xA;-50 -23 -115 -69 -136 -77 -37 -153 -14 -219 64 -23 27 -47 49 -55 49 -19 0&#xA;-160 -96 -172 -117 -22 -40 75 -160 166 -207 142 -71 337 -46 461 59 149 128&#xA;177 382 57 522 -19 22 -94 80 -167 129 -178 119 -234 171 -247 233 -17 82 13&#xA;144 82 170 72 27 130 4 179 -72 28 -44 34 -48 60 -43 33 6 124 63 152 94 26&#xA;29 16 57 -44 124 -95 107 -243 151 -377 113z"/>
    <path d="M7181 3754 c-162 -43 -309 -172 -373 -325 -17 -43 -22 -75 -22 -154&#xA;-1 -88 2 -107 26 -158 38 -80 117 -160 197 -200 58 -28 75 -32 151 -32 101 0&#xA;142 16 211 85 112 112 101 280 -22 349 -31 18 -51 22 -80 18 -73 -10 -91 -46&#xA;-38 -75 90 -49 116 -101 85 -171 -26 -56 -86 -91 -156 -91 -98 1 -175 52 -228&#xA;154 -22 43 -27 64 -27 131 0 98 20 146 94 227 62 68 123 104 211 125 147 34&#xA;285 -4 391 -108 107 -105 149 -216 149 -399 0 -162 -40 -281 -129 -382 -129&#xA;-146 -290 -203 -667 -233 -210 -17 -232 -21 -360 -66 -135 -47 -209 -92 -299&#xA;-183 -93 -93 -135 -169 -142 -255 -8 -100 42 -126 67 -34 38 139 138 252 290&#xA;326 121 60 215 82 420 102 453 43 591 88 745 240 132 131 183 250 192 451 4&#xA;95 2 139 -12 200 -51 232 -207 406 -412 459 -71 19 -191 18 -262 -1z"/>
    <path d="M6121 3666 c-6 -7 -15 -34 -20 -60 -10 -56 -30 -79 -91 -110 -63 -31&#xA;-60 -52 12 -88 49 -24 60 -35 82 -82 14 -30 30 -57 34 -60 15 -9 30 9 42 54&#xA;13 49 49 93 95 117 73 37 78 66 15 83 -54 15 -85 43 -115 105 -27 57 -35 64&#xA;-54 41z"/>
    <path d="M4186 3544 c-18 -17 -18 -19 -45 -155 -23 -116 -56 -185 -112 -233&#xA;-38 -32 -149 -83 -221 -101 -15 -4 -34 -16 -44 -26 -17 -19 -17 -21 2 -39 12&#xA;-12 49 -25 98 -34 89 -18 149 -48 196 -102 43 -49 58 -88 81 -207 21 -107 32&#xA;-137 53 -137 24 0 36 26 61 139 13 62 33 131 43 155 40 90 124 159 241 197&#xA;134 44 133 80 -5 117 -187 49 -239 108 -279 317 -13 68 -36 125 -50 125 -2 0&#xA;-11 -7 -19 -16z m106 -420 c20 -18 55 -40 77 -50 23 -10 41 -20 41 -23 0 -4&#xA;-21 -17 -46 -30 -61 -33 -132 -113 -147 -168 -13 -49 -22 -54 -31 -17 -17 68&#xA;-81 135 -165 172 l-43 20 38 12 c45 15 153 120 173 168 l13 32 27 -42 c15 -24&#xA;44 -57 63 -74z"/>
    <path d="M5290 2938 c-5 -13 -19 -65 -30 -116 -31 -147 -63 -185 -199 -233&#xA;-42 -14 -80 -33 -85 -42 -14 -22 8 -45 58 -57 98 -24 118 -33 152 -62 46 -40&#xA;68 -85 89 -181 9 -42 26 -87 36 -100 l19 -22 19 22 c12 14 23 53 31 105 23&#xA;161 69 224 196 267 82 28 106 49 88 78 -11 17 -17 20 -116 48 -62 17 -119 60&#xA;-144 106 -8 16 -23 64 -33 108 -11 44 -22 85 -26 91 -11 18 -45 11 -55 -12z&#xA;m89 -320 c17 -15 40 -30 51 -33 19 -6 17 -10 -23 -46 -25 -21 -54 -58 -65 -81&#xA;-12 -24 -21 -37 -22 -31 0 21 -68 90 -100 103 -31 13 -40 30 -16 30 18 0 102&#xA;90 111 120 7 23 7 23 20 -6 7 -17 26 -42 44 -56z"/>
    <path d="M3592 2353 c-5 -10 -12 -33 -16 -51 -13 -70 -36 -102 -97 -133 -94&#xA;-47 -97 -77 -13 -114 59 -26 87 -62 105 -132 22 -84 59 -83 84 4 25 86 48 116&#xA;114 152 32 17 61 37 64 45 7 19 -21 42 -61 51 -50 10 -88 49 -112 113 -31 82&#xA;-50 100 -68 65z"/>
    <path d="M7196 2237 c-26 -19 -14 -35 48 -62 74 -32 141 -46 218 -46 104 0&#xA;197 49 171 89 -9 15 -30 17 -144 17 -74 0 -165 4 -204 9 -55 6 -74 5 -89 -7z"/>
    <path d="M6612 2080 c-43 -10 -56 -23 -47 -49 5 -16 18 -22 58 -27 55 -8 79&#xA;-26 109 -83 26 -48 52 -39 56 19 6 97 -79 165 -176 140z"/>
  </g>
  <title>Magiczna księga zaklęć</title>
  <desc>Stara, oprawiona w skórę księga pełna tajemniczych zaklęć i receptur na magiczne eliksiry. Jakie sekrety skrywa? To zależy od wyobraźni Twojego dziecka.</desc>
</svg>