<?xml version="1.0" standalone="no"?>
<!DOCTYPE svg PUBLIC "-//W3C//DTD SVG 20010904//EN"
 "http://www.w3.org/TR/2001/REC-SVG-20010904/DTD/svg10.dtd">
<svg version="1.0" xmlns="http://www.w3.org/2000/svg"
 width="1024.000000pt" height="1024.000000pt" viewBox="0 0 1024.000000 1024.000000"
 preserveAspectRatio="xMidYMid meet">
<metadata>
Created by potrace 1.16, written by Peter Selinger 2001-2019
</metadata>
<g transform="translate(0.000000,1024.000000) scale(0.100000,-0.100000)"
fill="#000000" stroke="none">
<path d="M7085 9504 c-11 -2 -47 -9 -80 -16 -147 -27 -321 -123 -442 -243 -72
-72 -89 -83 -142 -98 -87 -24 -229 -88 -323 -144 -97 -57 -279 -232 -353 -338
-70 -100 -198 -358 -219 -439 -30 -119 4 -210 93 -250 26 -12 44 -29 52 -49 7
-16 40 -59 74 -94 34 -35 57 -67 52 -70 -5 -3 -24 -28 -42 -57 -29 -45 -40
-54 -88 -69 -31 -10 -85 -33 -121 -51 -39 -19 -66 -28 -66 -21 0 18 134 215
176 258 20 22 33 42 28 47 -19 17 -122 -11 -222 -60 -127 -63 -195 -127 -246
-232 -33 -70 -65 -215 -52 -237 3 -4 -4 -17 -15 -27 -28 -25 -85 -115 -119
-186 l-27 -57 -22 53 c-33 80 -117 200 -182 260 -33 30 -59 62 -59 70 0 8 -21
57 -47 108 -65 126 -138 200 -263 262 -51 25 -110 49 -131 52 -37 6 -38 7 -22
30 12 19 14 40 10 90 -5 72 -31 120 -79 149 -15 9 -28 24 -28 33 0 31 -109
243 -177 345 -77 115 -188 236 -274 301 -117 88 -289 168 -420 195 -43 9 -59
17 -67 35 -43 94 -236 228 -411 285 -137 45 -336 50 -511 15 -174 -36 -259
-110 -247 -215 9 -70 36 -116 120 -197 l76 -73 -42 -25 c-140 -86 -232 -158
-346 -268 -51 -50 -106 -108 -121 -129 l-28 -38 -33 48 c-47 67 -156 172 -220
210 -68 41 -172 69 -220 59 -79 -14 -115 -93 -89 -194 20 -81 70 -190 116
-252 24 -33 44 -68 44 -78 0 -10 -14 -40 -31 -67 -57 -90 -81 -155 -82 -225
-1 -98 32 -147 110 -164 38 -9 134 14 195 45 54 27 156 125 204 195 21 30 39
54 41 54 2 0 53 -45 114 -100 61 -55 158 -132 217 -171 104 -69 313 -179 340
-179 7 0 22 -5 32 -10 18 -9 14 -15 -35 -63 -64 -63 -76 -96 -49 -146 14 -27
36 -45 84 -68 114 -57 251 -63 381 -18 53 19 176 95 207 127 20 22 29 24 80
20 31 -2 59 -6 61 -8 2 -2 -10 -25 -27 -51 -55 -86 -72 -133 -72 -205 0 -64 2
-69 38 -106 65 -69 191 -89 367 -57 88 16 145 19 145 8 0 -5 -7 -17 -15 -27
-20 -26 -19 -101 1 -160 9 -26 37 -70 64 -99 26 -29 51 -63 55 -77 10 -34 39
-81 100 -165 187 -255 520 -445 780 -445 84 0 130 12 179 45 22 15 51 25 72
25 19 0 43 4 53 10 14 7 26 1 56 -30 45 -47 86 -62 169 -65 34 -1 92 -9 129
-18 174 -40 418 32 672 198 105 69 353 311 429 418 62 89 140 253 167 353 16
60 22 111 23 209 1 148 -12 204 -69 300 -19 31 -35 58 -35 59 0 1 41 3 90 4
l90 2 52 -41 c104 -82 207 -114 346 -107 75 3 100 9 153 35 35 18 79 47 97 66
29 29 34 42 34 82 0 49 -24 94 -64 123 -17 12 -11 18 65 66 141 89 246 174
383 310 72 72 141 144 153 161 21 27 23 28 33 12 48 -86 184 -208 254 -227 24
-7 43 -15 40 -17 -2 -3 -43 -13 -90 -24 -207 -46 -435 -185 -596 -363 -71 -79
-187 -251 -253 -376 -48 -92 -107 -252 -107 -292 0 -40 21 -91 49 -121 25 -28
90 -67 110 -67 6 0 32 -23 58 -51 117 -126 326 -244 537 -304 94 -27 113 -35
80 -35 -26 0 -96 -45 -162 -103 -31 -28 -62 -47 -76 -47 -13 0 -67 -14 -120
-31 -271 -88 -545 -326 -723 -630 -126 -214 -160 -345 -112 -434 26 -48 39
-59 107 -92 33 -15 83 -55 130 -102 94 -95 179 -153 297 -204 126 -55 234 -86
347 -99 88 -11 97 -14 112 -39 34 -57 140 -150 210 -184 139 -68 305 -69 402
-3 57 39 68 91 35 163 -18 40 -103 125 -125 125 -6 1 23 15 65 33 151 64 249
127 345 222 50 49 112 118 137 153 l46 63 20 -47 c65 -147 204 -274 300 -274
110 0 158 195 96 390 -41 132 -41 129 5 185 75 89 130 225 131 323 1 112 -30
147 -131 146 -119 -1 -232 -76 -325 -217 -21 -31 -41 -57 -45 -57 -4 0 -22 27
-39 60 -40 74 -129 187 -202 256 l-54 51 76 43 c88 49 175 120 185 153 4 12
25 38 48 58 36 33 41 42 41 81 0 53 -39 116 -98 159 l-37 27 57 32 c155 87
291 208 387 343 26 37 49 67 51 67 2 0 13 -19 24 -43 28 -58 87 -135 136 -179
110 -98 233 -102 272 -10 39 93 31 225 -21 350 -14 34 -26 66 -26 71 0 5 21
31 46 58 118 125 183 308 139 393 -30 59 -117 76 -223 45 -70 -21 -196 -108
-240 -166 -21 -26 -39 -48 -42 -48 -3 0 -18 23 -35 51 -50 85 -139 192 -217
258 -40 35 -74 66 -75 69 -2 3 21 23 51 44 101 73 186 178 186 231 0 44 -26
99 -60 130 -138 125 -542 142 -771 33 l-68 -33 -10 41 c-6 22 -33 78 -61 125
-27 47 -50 94 -50 105 0 24 25 63 56 88 56 44 146 187 160 252 16 76 -4 155
-49 187 -28 20 -44 23 -122 23 -110 0 -173 -23 -260 -92 -56 -46 -162 -161
-196 -213 l-16 -25 -60 56 c-93 85 -334 259 -361 259 -4 0 -14 4 -22 10 -11 7
-1 23 53 79 75 78 97 119 97 186 0 134 -138 213 -385 220 -66 2 -129 2 -140
-1z m75 -68 c0 -2 -30 -21 -66 -42 -61 -35 -194 -163 -194 -185 0 -5 -49 -9
-109 -9 -60 0 -120 -4 -133 -9 -46 -16 -80 -22 -73 -12 9 16 147 118 211 156
87 52 214 90 352 104 6 0 12 -1 12 -3z m219 -17 c24 -6 62 -19 85 -31 41 -21
41 -21 16 -31 -87 -33 -218 -104 -277 -151 l-70 -55 -44 13 c-24 8 -68 17 -96
21 -34 4 -53 12 -53 20 0 20 137 142 204 182 88 52 124 57 235 32z m161 -98
c13 -26 13 -67 -1 -94 -17 -32 -118 -146 -140 -157 -14 -8 -34 -3 -85 20 -37
16 -85 35 -107 41 l-40 11 29 23 c50 41 179 115 250 145 84 35 81 34 94 11z
m-5072 -30 c67 -35 120 -79 186 -157 36 -42 66 -80 66 -83 0 -4 -45 -19 -100
-34 l-101 -28 -51 46 c-57 51 -188 135 -254 162 -24 10 -44 21 -44 25 0 22
153 75 253 87 4 1 24 -8 45 -18z m307 -5 c124 -34 287 -129 369 -215 l29 -31
-34 10 c-39 12 -259 12 -338 1 l-54 -8 -18 41 c-24 54 -109 148 -173 193 l-51
35 105 -5 c58 -3 132 -12 165 -21z m-499 -158 c56 -33 127 -80 159 -105 l58
-45 -83 -39 -83 -39 -26 22 c-127 110 -171 168 -171 226 0 67 1 67 146 -20z
m4728 -13 c271 -47 574 -213 834 -456 41 -38 77 -69 81 -69 4 0 17 21 30 47
51 105 181 242 273 289 93 47 210 51 253 8 24 -25 18 -114 -9 -114 -28 0 -304
-112 -365 -149 -70 -41 -141 -110 -141 -136 0 -9 14 0 34 23 44 48 155 111
276 157 52 20 117 45 143 56 27 11 51 18 54 16 12 -13 -76 -134 -146 -201 -69
-67 -77 -137 -25 -207 39 -51 84 -150 84 -184 0 -68 -56 -115 -136 -115 -86 0
-243 126 -306 245 l-35 66 -43 -58 c-24 -32 -109 -123 -189 -203 -360 -359
-699 -510 -1141 -510 -301 -1 -568 90 -732 249 -27 25 -48 50 -48 57 0 6 24
14 56 17 39 4 73 16 106 36 27 17 54 31 59 31 20 0 -4 22 -38 37 -39 16 -52
11 -34 -11 20 -24 -24 -40 -104 -39 -109 0 -182 40 -205 109 -25 75 60 296
188 489 122 182 269 313 457 406 220 108 535 155 769 114z m-3897 -125 c113
-16 259 -48 323 -71 212 -79 407 -244 548 -464 51 -80 137 -251 154 -307 6
-21 18 -40 27 -43 32 -10 65 -74 64 -122 -2 -53 -14 -70 -68 -94 -83 -38 -264
-15 -290 37 -9 19 -12 20 -36 5 l-26 -16 43 -33 c45 -35 130 -72 165 -72 31 0
19 -20 -44 -70 -171 -139 -469 -235 -745 -239 -326 -5 -769 123 -1062 309 -80
51 -207 146 -240 179 -52 55 -172 161 -180 161 -6 0 -10 -8 -10 -18 0 -35 -76
-145 -146 -212 -77 -72 -152 -110 -227 -113 -49 -2 -77 28 -77 82 0 36 1 36
63 54 114 34 271 139 311 209 l19 33 -44 -41 c-80 -76 -243 -173 -316 -188
-32 -7 -32 -7 -23 24 5 17 26 64 48 103 70 131 70 130 4 217 -37 47 -98 168
-90 176 13 13 272 -118 348 -176 62 -47 66 -43 10 10 -68 64 -163 121 -283
171 -99 40 -104 47 -106 121 -2 75 67 86 185 28 87 -42 163 -108 230 -197 32
-44 64 -88 70 -98 9 -17 16 -13 70 45 231 250 357 349 592 469 257 130 488
174 739 141z m5723 -755 c0 -2 -18 -14 -39 -25 -48 -24 -149 -116 -182 -165
-23 -35 -25 -36 -74 -30 -27 3 -85 6 -128 6 l-77 1 44 29 c25 15 49 37 55 48
21 38 203 113 316 130 79 11 85 12 85 6z m313 -32 c42 -14 77 -29 77 -33 0 -4
-19 -12 -42 -19 -110 -33 -277 -128 -331 -189 -18 -19 -21 -20 -60 -5 -23 8
-73 22 -110 32 l-68 18 79 75 c43 41 110 94 148 117 l69 41 80 -6 c44 -3 115
-17 158 -31z m132 -89 c32 -49 1 -104 -103 -188 -126 -99 -109 -96 -215 -41
-51 26 -93 48 -95 50 -7 6 125 94 188 125 69 35 178 79 196 80 7 0 19 -12 29
-26z m-708 -170 c119 -19 188 -41 318 -103 141 -67 208 -112 304 -205 81 -79
144 -163 210 -278 18 -32 34 -58 35 -58 2 0 13 19 25 43 66 126 239 247 354
247 74 0 93 -32 73 -121 l-12 -54 -74 -7 c-59 -5 -91 -15 -164 -51 -87 -44
-177 -109 -166 -121 3 -3 33 13 65 34 82 55 188 97 263 106 l64 7 -25 -49
c-14 -27 -51 -77 -81 -112 -32 -36 -56 -73 -56 -85 0 -13 13 -57 29 -99 30
-76 48 -148 38 -148 -3 0 -35 17 -71 38 -85 48 -173 134 -202 197 -17 35 -24
43 -24 27 0 -75 117 -206 232 -257 67 -30 67 -30 68 -70 0 -53 -28 -109 -58
-113 -39 -6 -127 45 -181 104 -59 65 -111 165 -118 229 -3 25 -8 45 -12 45 -3
0 -24 -28 -46 -63 -59 -92 -187 -248 -237 -288 -71 -58 -196 -139 -277 -180
-288 -144 -672 -168 -987 -63 -141 47 -309 142 -394 221 -50 48 -53 52 -30 53
33 0 117 40 156 73 38 32 44 33 44 6 0 -11 5 -17 10 -14 6 3 10 19 10 34 0 31
-31 51 -78 51 -26 -1 -26 -1 -7 -15 17 -13 17 -17 5 -29 -54 -49 -217 -65
-281 -27 -66 39 -74 96 -33 219 52 155 207 401 343 546 105 111 267 220 410
278 164 66 361 84 558 52z m-2973 -146 c-40 -43 -119 -164 -144 -221 -16 -35
-32 -52 -73 -75 -28 -16 -78 -50 -109 -76 l-58 -47 6 33 c22 118 84 224 172
293 51 41 202 124 226 125 6 0 -4 -15 -20 -32z m-1314 11 c69 -15 185 -77 240
-126 49 -44 140 -170 140 -193 0 -9 -6 -9 -22 2 -47 29 -149 59 -288 83 -28 5
-42 16 -73 60 -21 30 -64 76 -95 102 -31 27 -59 52 -62 58 -11 21 91 30 160
14z m-88 -128 c51 -49 91 -92 87 -95 -3 -3 -51 -3 -106 1 l-101 6 -37 44 -37
45 43 44 c24 24 47 44 51 44 4 0 49 -40 100 -89z m1703 25 c19 -15 19 -15 -10
-16 -17 0 -45 -4 -63 -9 l-33 -10 28 33 c29 34 36 34 78 2z m1340 -34 c57 -48
69 -96 32 -130 -19 -18 -31 -21 -72 -16 -82 9 -248 70 -220 81 6 2 55 21 110
43 115 44 123 45 150 22z m-1161 -46 c50 -19 110 -37 134 -41 47 -8 48 -9 27
-57 -18 -45 -24 -120 -9 -125 6 -2 26 32 44 77 l32 80 45 0 c33 0 50 -6 68
-24 56 -57 115 -227 115 -335 0 -118 -38 -267 -102 -395 -66 -134 -127 -216
-263 -351 -254 -254 -530 -396 -770 -396 -116 0 -119 3 -63 61 44 46 98 142
98 176 0 12 6 15 25 10 29 -7 32 0 8 26 -20 23 -80 24 -105 1 -25 -22 -23 -33
7 -33 32 0 32 -17 -1 -66 -82 -123 -218 -182 -290 -128 -15 11 -37 32 -47 47
-20 26 -20 26 1 81 12 31 29 107 38 168 20 135 14 355 -13 476 -23 105 -22
128 14 204 93 199 230 327 466 437 124 58 178 77 327 112 63 15 117 27 119 28
2 1 44 -14 95 -33z m-2085 -8 c33 -37 31 -48 -7 -49 -49 -2 90 -27 155 -28
123 -2 273 -25 378 -58 173 -54 309 -173 393 -344 82 -165 114 -327 111 -566
-2 -206 -32 -338 -89 -388 -63 -57 -245 19 -331 139 -36 48 -36 54 -1 58 27 4
27 4 -10 21 -21 9 -47 17 -59 17 -30 0 -59 -28 -59 -57 0 -22 1 -23 16 -9 25
25 37 19 64 -31 34 -64 117 -146 179 -174 28 -13 50 -27 51 -31 0 -13 -94 -21
-180 -15 -89 7 -215 44 -311 92 -166 84 -355 249 -430 376 -21 36 -39 68 -39
72 0 3 23 -1 51 -9 31 -9 66 -13 89 -9 37 6 38 6 45 -32 15 -86 88 -220 119
-220 9 0 16 1 16 2 0 1 -14 33 -31 70 -60 133 -73 258 -39 389 25 99 68 180
137 256 58 64 187 155 234 165 16 4 29 13 29 21 0 10 -7 13 -27 8 -96 -21
-211 -92 -293 -181 -33 -37 -62 -64 -64 -62 -2 2 -20 37 -42 78 -49 95 -127
179 -201 218 -104 55 -175 50 -214 -14 -19 -31 -21 -45 -17 -138 l5 -103 -103
-17 c-139 -22 -232 -21 -288 4 -53 23 -68 48 -68 112 0 49 5 62 84 186 l39 61
87 12 c195 26 389 91 522 175 30 19 58 35 63 35 4 0 20 -15 36 -32z m2994 -38
c34 -27 101 -56 168 -74 l54 -14 -30 -12 c-44 -19 -216 -25 -273 -10 -26 7
-78 29 -115 49 l-69 36 104 21 c133 28 131 27 161 4z m-4333 -60 c120 -33 113
-30 99 -47 -34 -41 -199 -97 -268 -91 -33 3 -36 6 -36 33 0 24 11 38 60 77 32
26 62 48 65 48 3 0 39 -9 80 -20z m232 -55 c155 -26 148 -21 81 -63 -60 -39
-121 -65 -183 -78 -52 -11 -173 -5 -216 9 l-37 13 49 14 c65 18 153 62 184 93
14 14 26 25 27 26 2 1 45 -6 95 -14z m947 -173 c79 -39 156 -136 215 -269 16
-36 17 -47 6 -73 -7 -17 -16 -29 -20 -28 -5 2 -41 33 -82 69 -93 85 -270 229
-280 229 -11 0 2 61 19 88 13 21 20 23 51 17 21 -3 61 -18 91 -33z m52 -283
l145 -120 -10 -44 c-13 -54 -23 -56 -109 -17 -95 44 -169 117 -205 205 -17 39
-33 92 -37 116 l-7 44 38 -32 c22 -18 105 -86 185 -152z m-145 -109 c60 -57
182 -120 231 -120 33 0 33 0 33 -50 l0 -50 -63 0 c-82 0 -175 43 -217 102 -33
45 -65 168 -43 168 3 0 30 -23 59 -50z m5120 -446 c49 -38 94 -103 94 -137 l0
-30 -62 7 c-69 7 -172 53 -208 91 -22 23 -20 45 3 45 7 0 40 11 72 24 33 13
61 25 63 25 2 1 19 -11 38 -25z m-179 -94 c40 -37 71 -55 120 -70 36 -11 72
-20 81 -20 13 0 14 -2 4 -12 -9 -9 -47 -13 -120 -12 -120 0 -183 18 -269 78
-57 39 -65 56 -26 56 15 1 53 7 83 15 30 7 59 14 64 14 4 1 33 -21 63 -49z
m-324 4 c3 -3 -21 -24 -53 -46 -33 -22 -69 -51 -80 -65 l-20 -25 -77 12 c-43
7 -115 11 -160 9 -78 -4 -82 -3 -65 13 9 10 58 38 107 62 l90 45 126 0 c69 1
128 -2 132 -5z m153 -115 c44 -25 44 -26 21 -36 -14 -7 -40 -25 -59 -42 l-34
-30 -40 18 c-21 10 -64 26 -94 36 -30 9 -59 21 -63 25 -7 6 53 57 122 103 23
15 26 15 63 -16 21 -18 59 -44 84 -58z m110 -49 c46 -18 149 -28 195 -20 24 5
46 7 48 4 9 -8 -91 -82 -180 -132 l-56 -32 -27 21 c-14 11 -51 36 -81 54 l-56
33 33 25 c85 62 84 62 124 47z m-506 -21 c208 -32 398 -130 569 -293 97 -93
156 -173 221 -296 l53 -101 20 33 c59 100 134 202 170 234 83 72 195 105 241
71 14 -10 18 -26 18 -62 -2 -89 -8 -100 -60 -114 -81 -21 -228 -97 -277 -142
-38 -35 -85 -99 -72 -99 2 0 28 25 59 54 39 38 86 69 152 101 119 57 176 78
176 64 0 -27 -57 -126 -101 -176 -54 -62 -60 -88 -33 -151 35 -80 58 -212 38
-212 -4 0 -37 23 -74 50 -78 58 -133 115 -175 182 -17 27 -33 48 -38 48 -14 0
45 -103 87 -153 42 -51 169 -147 193 -147 20 0 16 -67 -8 -117 -11 -24 -28
-43 -36 -43 -32 0 -107 46 -158 98 -40 40 -65 79 -101 158 -26 57 -51 104 -54
104 -4 0 -38 -41 -76 -92 -158 -212 -302 -320 -546 -412 -173 -65 -390 -91
-580 -70 -171 19 -297 59 -453 145 -69 37 -215 152 -215 168 0 5 23 11 50 14
31 4 83 23 135 50 65 34 85 40 89 30 8 -19 26 -7 26 17 0 25 -37 50 -75 50
-27 -1 -28 -2 -12 -14 23 -18 9 -30 -69 -57 -117 -40 -263 -23 -317 38 -103
116 116 535 413 789 116 100 307 205 423 235 133 33 260 39 397 18z m163
-1521 c50 -33 97 -80 114 -112 12 -23 12 -33 2 -58 -11 -26 -15 -28 -43 -22
-56 12 -159 64 -223 112 -34 26 -63 50 -63 53 0 3 39 15 88 26 48 12 89 21 90
22 2 0 18 -9 35 -21z m-182 -87 c58 -48 163 -110 229 -134 8 -3 -5 -6 -30 -7
-25 -1 -53 -3 -62 -5 -32 -6 -162 26 -210 52 -27 15 -78 51 -115 82 l-68 56
45 6 c124 17 135 14 211 -50z"/>
<path d="M6530 8925 c0 -3 19 -24 41 -47 100 -103 165 -213 209 -353 33 -107
39 -323 12 -431 -26 -104 -68 -191 -137 -286 -30 -42 -51 -79 -46 -82 13 -9
131 121 172 189 28 47 40 59 55 55 10 -3 62 -5 114 -5 90 1 99 3 169 39 142
73 231 193 238 320 6 94 -21 150 -87 184 -87 44 -235 18 -356 -63 -30 -19 -56
-35 -59 -35 -3 0 -5 12 -5 28 0 43 -64 215 -106 284 -57 95 -214 244 -214 203z
m703 -458 c38 -16 53 -33 62 -67 6 -24 2 -26 -57 -42 -35 -10 -130 -36 -211
-59 -81 -23 -149 -40 -152 -38 -2 2 -5 26 -6 54 l-3 50 61 37 c117 71 233 95
306 65z m67 -159 c0 -41 -29 -103 -67 -146 l-29 -33 -172 7 c-166 7 -172 8
-172 28 1 59 6 63 123 90 62 15 155 40 207 56 52 16 98 29 103 29 4 1 7 -14 7
-31z m-247 -205 l118 -6 -45 -28 c-74 -46 -138 -63 -218 -56 -39 3 -72 7 -73
9 -2 2 2 25 8 52 l11 48 40 -6 c23 -3 94 -9 159 -13z"/>
<path d="M6122 8855 c-23 -10 -32 -20 -30 -32 3 -15 12 -17 59 -15 53 4 58 2
104 -38 57 -49 76 -43 54 17 -28 72 -109 102 -187 68z"/>
<path d="M6032 8644 c-87 -44 -138 -158 -130 -286 11 -160 110 -245 242 -208
50 14 94 55 128 120 19 37 23 60 23 130 0 104 -31 181 -90 225 -46 36 -123 44
-173 19z m139 -50 c47 -24 79 -101 79 -193 0 -93 -25 -151 -81 -188 -33 -22
-47 -25 -91 -21 -65 7 -100 42 -124 124 -33 115 14 257 96 287 30 11 92 7 121
-9z"/>
<path d="M6012 8464 c-22 -10 -42 -61 -42 -107 0 -115 115 -160 156 -62 20 49
17 97 -9 136 -18 27 -30 34 -57 36 -19 1 -41 -1 -48 -3z"/>
<path d="M7970 8463 c0 -34 130 -143 236 -197 76 -40 105 -47 83 -20 -7 8 -31
25 -53 36 -64 32 -187 117 -228 156 -21 20 -38 31 -38 25z"/>
<path d="M3218 8743 c-115 -108 -212 -288 -233 -433 -4 -25 -8 -47 -10 -49 -2
-2 -21 10 -42 26 -171 135 -338 181 -442 123 -159 -89 -149 -302 20 -454 109
-99 299 -136 441 -87 l57 20 42 -76 c47 -86 123 -169 155 -169 20 0 17 6 -24
60 -51 66 -112 185 -133 261 -9 34 -14 99 -13 200 1 133 4 160 28 240 36 119
98 233 169 310 31 35 57 66 57 69 0 16 -26 1 -72 -41z m-465 -401 c72 -33 174
-100 197 -127 8 -10 15 -38 15 -62 1 -35 -2 -42 -15 -38 -27 11 -200 54 -338
86 -180 40 -172 37 -172 62 1 35 24 68 66 94 56 35 155 29 247 -15z m-33 -202
c124 -29 231 -54 238 -56 6 -2 12 -19 12 -37 l0 -35 -177 -7 c-220 -10 -242
-9 -271 18 -27 25 -82 132 -82 160 0 24 -8 25 280 -43z m264 -177 c8 -31 -1
-38 -67 -53 -100 -21 -223 -7 -304 35 -18 9 -33 18 -33 20 0 2 33 1 73 -1 39
-3 124 2 187 9 63 8 120 15 126 16 7 0 15 -11 18 -26z"/>
<path d="M3532 8700 c-39 -24 -81 -105 -63 -123 7 -7 25 4 61 37 52 49 74 54
139 35 31 -9 22 31 -11 51 -42 25 -84 25 -126 0z"/>
<path d="M3612 8522 c-37 -11 -91 -60 -114 -105 -33 -64 -37 -189 -9 -265 53
-141 174 -207 280 -152 81 41 128 137 118 240 -20 186 -148 318 -275 282z
m101 -56 c68 -29 117 -118 125 -227 6 -85 -9 -129 -60 -174 -39 -35 -43 -37
-96 -33 -52 5 -59 9 -99 52 -149 165 -49 458 130 382z"/>
<path d="M3692 8333 c-7 -3 -19 -18 -27 -33 -40 -77 9 -190 80 -190 41 0 65
27 72 79 7 52 -1 83 -33 120 -25 30 -57 38 -92 24z"/>
<path d="M8206 7778 c4 -7 29 -40 55 -73 97 -124 149 -240 169 -380 36 -259
-36 -503 -202 -681 -36 -38 -54 -65 -48 -69 19 -11 116 71 170 145 29 38 53
70 54 70 0 0 25 -9 54 -20 108 -41 278 -21 385 47 68 43 143 127 181 204 30
59 36 82 36 133 -1 137 -69 198 -222 197 -71 0 -167 -31 -262 -86 -44 -25 -81
-45 -83 -45 -2 0 -3 20 -3 43 0 70 -36 195 -84 292 -46 93 -162 235 -192 235
-9 0 -12 -5 -8 -12z m755 -514 c20 -21 32 -44 36 -71 l5 -41 -73 -12 c-95 -15
-297 -57 -372 -77 -32 -9 -60 -13 -63 -10 -3 3 -3 30 1 61 l7 55 67 40 c124
75 175 91 283 88 72 -2 80 -4 109 -33z m22 -190 c-34 -99 -134 -204 -194 -204
-32 0 -194 33 -275 56 l-51 15 10 38 c10 38 12 39 71 51 34 7 133 27 221 45
158 33 198 41 222 44 8 1 7 -12 -4 -45z m-312 -222 l94 -20 -59 -17 c-73 -21
-155 -21 -228 2 l-55 18 18 42 18 42 59 -24 c33 -13 102 -33 153 -43z"/>
<path d="M7855 7724 c-62 -32 -60 -59 4 -50 43 6 53 3 80 -20 17 -14 36 -37
43 -51 18 -36 36 -40 44 -8 9 38 -17 96 -55 122 -40 27 -74 29 -116 7z"/>
<path d="M7669 7487 c-91 -61 -146 -188 -137 -317 9 -119 74 -190 173 -190
160 1 274 174 236 357 -15 71 -55 132 -101 155 -51 26 -129 23 -171 -5z m184
-59 c58 -69 69 -179 28 -274 -36 -81 -78 -115 -156 -128 -49 -8 -97 19 -129
74 -31 52 -29 168 3 233 50 101 103 140 181 133 36 -3 50 -11 73 -38z"/>
<path d="M7641 7314 c-47 -33 -65 -119 -36 -174 30 -58 115 -47 142 18 25 61
15 140 -21 164 -19 13 -61 9 -85 -8z"/>
<path d="M5510 7271 c0 -4 30 -26 66 -47 84 -49 194 -160 244 -244 22 -36 51
-101 66 -145 24 -69 28 -96 28 -200 1 -133 -7 -196 -34 -267 -10 -27 -14 -48
-10 -48 28 0 81 121 96 218 5 34 11 42 28 42 58 1 146 63 195 137 71 106 96
304 51 392 -35 69 -105 97 -175 71 -41 -16 -113 -80 -152 -137 -20 -29 -37
-53 -38 -53 -1 0 -16 22 -33 49 -49 75 -149 162 -233 204 -77 38 -99 44 -99
28z m660 -153 c11 -12 20 -25 20 -28 0 -4 -37 -40 -82 -81 -46 -40 -101 -93
-124 -118 l-41 -45 -16 48 c-16 45 -15 50 3 86 28 55 68 99 119 132 54 34 93
36 121 6z m40 -138 c0 -73 -17 -116 -60 -153 -44 -38 -167 -103 -176 -94 -3 3
-10 23 -15 44 l-9 38 87 81 c49 45 104 97 123 115 40 39 50 33 50 -31z m-46
-202 c-31 -62 -56 -89 -107 -118 -72 -41 -89 -40 -85 6 3 33 7 37 63 59 33 14
78 38 100 54 22 16 41 30 43 30 1 1 -5 -14 -14 -31z"/>
<path d="M5250 7163 c-27 -10 -70 -56 -70 -75 0 -20 25 -25 36 -7 3 6 21 17
40 25 28 12 39 12 83 -3 57 -18 68 -15 51 16 -19 36 -96 60 -140 44z"/>
<path d="M5235 6904 c-55 -30 -85 -67 -102 -123 -34 -118 7 -252 96 -316 34
-24 52 -29 95 -29 74 0 125 34 161 108 23 48 27 66 23 124 -4 84 -45 170 -101
215 -48 38 -124 47 -172 21z m119 -38 c91 -38 142 -192 97 -291 -47 -104 -160
-123 -229 -39 -75 90 -68 259 13 322 32 25 71 28 119 8z"/>
<path d="M5232 6728 c-42 -21 -43 -122 0 -163 37 -37 64 -40 93 -11 38 38 31
112 -17 164 -23 24 -41 26 -76 10z"/>
<path d="M4640 7229 c-36 -15 -80 -60 -80 -81 0 -24 10 -23 61 7 24 14 55 25
69 25 24 0 68 -23 81 -43 9 -14 29 1 29 21 0 9 -10 30 -23 45 -17 22 -33 30
-67 33 -25 2 -56 -1 -70 -7z"/>
<path d="M4604 7006 c-140 -61 -200 -284 -111 -417 53 -81 172 -101 246 -41
114 92 139 305 48 409 -52 59 -118 77 -183 49z m87 -36 c11 0 36 -15 56 -34
35 -32 37 -38 41 -107 6 -94 -11 -166 -48 -211 -73 -88 -190 -67 -232 41 -28
75 -1 209 55 270 26 28 76 52 95 46 8 -3 22 -5 33 -5z"/>
<path d="M4647 6819 c-26 -15 -47 -70 -47 -123 0 -49 37 -106 69 -106 47 0
101 80 101 150 0 70 -66 112 -123 79z"/>
<path d="M7860 6013 c0 -5 21 -38 48 -74 55 -76 104 -177 129 -269 26 -94 23
-307 -5 -412 -40 -147 -109 -268 -226 -395 -26 -29 -33 -43 -23 -43 25 0 130
93 172 152 21 29 42 57 45 61 4 4 22 -1 41 -12 50 -29 150 -37 228 -17 132 34
260 136 322 257 28 55 33 74 33 140 1 68 -2 79 -28 113 -80 106 -246 106 -426
0 l-55 -32 -6 66 c-14 165 -111 368 -213 445 -20 16 -36 24 -36 20z m623 -478
c49 -20 87 -69 87 -110 0 -32 -3 -35 -37 -40 -100 -16 -218 -39 -310 -61 -57
-13 -107 -24 -113 -24 -6 0 -8 21 -4 58 7 66 21 82 125 137 103 54 186 68 252
40z m72 -216 c-25 -70 -95 -158 -149 -186 -39 -20 -141 -10 -251 24 -44 14
-81 26 -83 28 -2 2 1 21 7 42 l11 39 72 12 c40 7 145 28 233 47 88 18 163 34
167 34 4 1 1 -17 -7 -40z m-390 -196 c39 -13 91 -27 118 -30 42 -5 45 -7 29
-19 -27 -19 -137 -36 -180 -28 -39 8 -102 31 -102 39 0 2 8 20 17 40 12 25 21
34 32 29 9 -4 48 -17 86 -31z"/>
<path d="M7472 5955 c-48 -21 -41 -51 10 -47 48 4 71 -9 108 -63 46 -67 68
-39 35 43 -11 26 -29 46 -54 60 -45 26 -55 26 -99 7z"/>
<path d="M7315 5756 c-131 -59 -200 -308 -119 -433 89 -136 258 -111 342 52
19 38 26 70 30 131 6 111 -14 170 -75 224 -41 36 -51 40 -97 40 -28 -1 -64 -7
-81 -14z m136 -43 c101 -60 103 -276 5 -379 -66 -68 -140 -72 -202 -10 -63 63
-69 178 -13 294 49 101 134 140 210 95z"/>
<path d="M7267 5580 c-16 -13 -29 -35 -33 -58 -4 -20 -8 -44 -9 -52 -5 -29 24
-80 50 -90 57 -22 104 29 113 120 8 84 -59 128 -121 80z"/>
<path d="M4396 8840 c-48 -27 -71 -54 -86 -103 -16 -53 -3 -103 36 -143 101
-100 278 -40 278 94 -1 55 -33 124 -70 148 -41 27 -112 29 -158 4z m152 -75
c15 -18 22 -39 22 -69 0 -44 -18 -70 -69 -96 -59 -31 -141 27 -141 99 0 98
122 140 188 66z"/>
<path d="M1290 7675 c-150 -29 -270 -115 -270 -194 0 -80 37 -130 168 -227
l73 -55 -55 -47 c-107 -92 -195 -212 -236 -322 -12 -33 -24 -59 -25 -58 -2 2
-31 41 -65 87 -91 123 -162 179 -266 207 -169 45 -227 -58 -154 -272 16 -48
47 -112 67 -142 71 -102 70 -99 54 -124 -99 -155 -121 -213 -121 -315 0 -114
36 -164 126 -171 48 -4 64 0 128 31 86 43 189 135 231 206 17 28 33 51 36 51
3 0 31 -35 62 -78 59 -83 145 -168 238 -237 l56 -41 -65 -34 c-78 -40 -105
-78 -98 -134 11 -89 167 -176 319 -176 l57 0 0 -44 c0 -59 43 -115 135 -179
39 -26 71 -52 73 -56 2 -5 -25 -31 -60 -59 -64 -51 -153 -140 -199 -201 l-26
-33 -37 60 c-51 85 -133 163 -218 208 -67 35 -80 39 -150 39 -70 0 -80 -2
-103 -26 -72 -72 -16 -305 106 -438 47 -52 47 -64 -7 -151 -69 -113 -97 -254
-64 -328 28 -62 53 -77 124 -76 114 1 244 85 334 214 l47 67 65 -76 c87 -100
217 -212 313 -268 l78 -46 -50 -28 c-104 -59 -139 -144 -87 -206 29 -35 113
-77 192 -98 157 -41 355 7 486 116 45 37 50 39 118 39 65 0 71 -2 64 -17 -4
-10 -9 -39 -12 -65 -8 -95 68 -162 262 -232 15 -5 4 -21 -72 -101 -50 -52
-114 -130 -143 -174 l-52 -80 -42 57 c-92 126 -221 206 -332 207 -61 0 -66 -2
-94 -33 -25 -28 -29 -40 -29 -91 0 -104 50 -226 131 -319 16 -18 29 -41 29
-51 0 -11 -18 -57 -40 -103 -76 -161 -76 -328 2 -382 61 -43 193 2 288 96 47
48 120 156 120 179 0 19 14 7 107 -92 102 -106 223 -195 365 -265 l76 -37 -52
-34 c-156 -103 -120 -242 72 -282 169 -35 337 15 478 143 l69 62 70 3 c282 12
590 144 764 325 35 37 83 76 107 88 85 40 112 102 101 232 -9 111 -68 246
-177 409 -82 122 -149 198 -248 283 -115 98 -303 188 -460 221 -58 12 -80 21
-98 42 -66 78 -231 159 -384 188 l-88 17 70 65 c39 36 80 70 92 74 119 47 141
77 140 192 -1 63 -9 102 -37 187 -116 346 -360 630 -647 754 -79 34 -253 84
-296 84 -13 0 -33 17 -53 45 -30 42 -121 124 -167 151 -17 10 -14 12 21 24 59
18 164 77 215 119 25 21 56 42 70 46 46 15 98 56 117 93 14 29 18 59 17 137
-1 87 -6 114 -38 210 -139 416 -425 764 -712 867 -48 17 -64 28 -69 46 -10 41
-144 164 -240 220 -136 79 -252 113 -400 118 -77 2 -147 -2 -195 -11z m129
-86 c82 -46 159 -107 197 -158 37 -48 41 -61 20 -61 -7 0 -46 -11 -87 -24
l-73 -24 -64 49 c-63 49 -221 132 -274 145 -16 3 -28 9 -28 13 0 20 174 84
244 90 5 1 34 -13 65 -30z m251 5 c92 -27 222 -101 304 -171 42 -36 75 -67 73
-69 -2 -2 -19 1 -38 7 -19 6 -99 13 -179 16 l-146 6 -29 44 c-34 52 -138 142
-199 173 l-41 21 100 -5 c55 -3 125 -13 155 -22z m-441 -151 c158 -82 243
-143 201 -143 -5 0 -35 -15 -66 -34 l-57 -33 -66 49 c-133 100 -177 154 -165
203 8 32 17 30 153 -42z m742 -137 c152 -27 329 -108 442 -201 173 -143 368
-453 443 -701 34 -114 39 -254 11 -298 -57 -86 -233 -86 -331 0 -24 21 -26 28
-15 35 12 8 12 10 -1 19 -21 13 -24 13 -54 -11 -28 -22 -35 -45 -12 -36 8 3
33 -12 58 -35 48 -45 84 -66 143 -83 l39 -12 -39 -24 c-235 -145 -591 -183
-927 -98 -262 66 -541 265 -695 496 -63 95 -71 98 -88 43 -34 -110 -209 -270
-311 -286 -85 -12 -114 15 -114 106 0 36 2 38 40 44 85 13 257 122 321 202 47
60 33 61 -28 3 -32 -30 -92 -76 -133 -101 -77 -48 -188 -103 -195 -96 -9 8 35
111 75 178 57 94 57 121 3 191 -45 60 -88 139 -75 139 35 0 256 -107 325 -157
56 -41 62 -29 9 19 -65 59 -193 124 -301 152 -39 10 -46 17 -58 51 -7 21 -16
62 -19 90 -5 41 -3 55 12 69 23 24 95 16 162 -16 81 -39 201 -174 275 -308 22
-41 39 -29 63 43 9 29 36 94 61 145 38 82 57 106 141 190 177 177 367 261 592
261 58 0 139 -6 181 -13z m-518 -1403 c29 -16 66 -33 82 -39 l30 -12 -30 -12
c-45 -18 -152 -38 -227 -42 -74 -4 -90 7 -65 46 13 20 128 86 149 86 5 0 32
-12 61 -27z m222 -90 c39 -12 83 -24 98 -28 29 -6 29 -6 -18 -31 -134 -71
-305 -83 -418 -29 -31 15 -60 31 -62 35 -3 5 16 8 43 9 65 0 185 27 230 51 20
10 42 18 47 17 6 -1 42 -12 80 -24z m784 -48 c27 -13 77 -50 112 -82 l62 -58
-109 -6 c-60 -4 -150 -15 -201 -24 l-91 -17 -74 61 c-40 33 -98 73 -129 88
l-55 28 105 -1 c91 -2 250 15 285 30 24 10 49 5 95 -19z m-486 -46 c83 -42
228 -139 222 -148 -2 -5 -26 -14 -52 -21 -27 -8 -72 -24 -101 -37 l-53 -23
-72 36 c-83 42 -180 77 -264 94 l-58 12 60 19 c33 11 89 37 125 58 80 49 112
50 193 10z m-198 -165 c73 -28 175 -77 175 -83 0 -3 -29 -23 -65 -44 l-64 -37
-74 45 c-86 52 -147 114 -147 149 l0 25 68 -20 c37 -10 85 -26 107 -35z m1046
-22 c103 -26 239 -85 324 -140 151 -97 323 -304 421 -508 73 -152 103 -311 71
-373 -41 -81 -220 -91 -360 -19 -37 18 -38 20 -23 37 15 17 16 19 1 25 -20 7
-70 -18 -79 -40 -4 -9 -3 -26 0 -38 7 -20 7 -20 15 3 l9 23 31 -27 c43 -35
113 -69 176 -85 l52 -14 -57 -44 c-104 -82 -315 -167 -491 -197 -100 -18 -325
-20 -431 -5 -171 24 -309 69 -482 156 -176 89 -351 240 -468 406 -18 26 -36
45 -40 43 -4 -2 -21 -33 -38 -68 -58 -117 -174 -220 -287 -252 -73 -22 -101
-10 -112 47 -14 70 2 144 57 253 64 127 64 147 4 217 -47 55 -113 173 -102
184 8 7 232 -104 296 -148 26 -17 62 -44 81 -60 42 -37 54 -28 15 13 -48 51
-193 141 -302 188 -111 48 -112 49 -115 137 -2 62 19 75 96 62 131 -22 267
-132 336 -271 18 -37 37 -67 41 -67 4 0 36 33 71 73 249 288 514 445 854 507
86 15 350 5 436 -18z m-723 -1360 c37 -16 79 -32 95 -36 15 -3 27 -10 27 -15
0 -13 -116 -57 -185 -71 -33 -6 -85 -10 -115 -8 -48 3 -55 6 -58 26 -4 29 36
67 108 105 30 15 56 27 58 27 2 0 33 -13 70 -28z m1461 -12 c73 -24 185 -79
219 -106 23 -19 23 -19 -60 -21 -92 -3 -213 -18 -272 -36 -36 -10 -40 -9 -58
16 -26 36 -97 84 -165 111 l-55 23 69 24 c60 21 78 23 163 18 54 -4 122 -16
159 -29z m-314 -79 c33 -16 78 -44 99 -63 l39 -34 -34 -13 c-19 -8 -64 -27
-101 -43 l-66 -30 -79 30 c-105 41 -223 71 -305 79 -38 3 -68 9 -68 13 0 17
74 40 177 55 62 9 130 22 150 30 50 19 113 11 188 -24z m-851 1 l89 -18 -79
-41 c-146 -76 -256 -87 -421 -42 -51 14 -56 29 -11 29 53 0 185 40 230 71 47
31 42 31 192 1z m426 -106 c84 -17 233 -59 287 -81 41 -17 42 -17 -46 -74
l-64 -42 -66 26 c-134 51 -211 112 -211 168 0 21 5 21 100 3z m1113 -21 c227
-44 407 -142 562 -306 132 -141 234 -305 284 -458 25 -77 30 -184 10 -226 -30
-63 -153 -92 -257 -60 -70 21 -113 52 -91 66 12 7 12 10 0 18 -19 13 -45 3
-75 -28 -17 -18 -24 -34 -20 -44 8 -21 24 -22 24 -2 0 31 30 27 71 -9 40 -34
84 -54 158 -73 l35 -8 -65 -50 c-155 -121 -276 -182 -459 -230 -190 -50 -430
-46 -664 11 -267 65 -546 250 -728 484 -24 32 -27 33 -33 15 -57 -173 -214
-335 -323 -335 -38 0 -51 11 -62 51 -20 68 -14 84 33 96 100 27 294 187 297
246 0 16 -18 5 -28 -17 -29 -65 -312 -254 -312 -209 0 24 35 124 62 178 43 84
41 122 -10 180 -34 39 -95 145 -87 153 5 6 142 -50 195 -80 30 -17 81 -50 113
-74 31 -24 57 -40 57 -36 0 20 -38 56 -115 107 -82 55 -154 87 -227 100 -32 6
-37 11 -43 43 -14 67 -13 101 3 123 34 49 185 -7 286 -106 57 -57 117 -140
130 -182 11 -34 22 -28 41 20 27 68 120 200 203 288 105 113 213 191 367 265
138 67 230 92 365 101 41 3 77 8 80 10 8 8 137 -5 223 -22z m-508 -1463 l80
-19 -61 -31 c-34 -17 -97 -40 -142 -51 -130 -34 -171 -26 -137 25 24 37 136
106 160 100 11 -3 56 -14 100 -24z m260 -41 l60 -6 -25 -24 c-40 -37 -97 -71
-169 -98 -53 -21 -85 -26 -161 -27 -133 -1 -253 35 -163 49 77 12 207 59 252
91 41 29 51 32 96 27 28 -3 77 -9 110 -12z"/>
<path d="M2040 6993 c-90 -83 -178 -221 -210 -330 -7 -24 -16 -43 -20 -43 -4
0 -17 11 -30 25 -29 31 -149 111 -194 130 -20 9 -58 20 -85 26 -168 36 -266
-123 -199 -321 18 -53 33 -76 92 -135 69 -69 146 -117 212 -133 39 -9 131 -9
175 1 l36 7 23 -60 c27 -72 107 -189 150 -220 17 -12 33 -20 35 -18 3 2 -18
36 -44 76 -52 77 -101 199 -122 301 -15 77 -6 251 16 335 33 120 112 260 203
358 63 67 34 68 -38 1z m-445 -280 c39 -18 100 -56 138 -83 65 -48 67 -51 67
-93 0 -24 -2 -46 -5 -49 -3 -3 -67 18 -143 47 -75 29 -176 65 -224 81 -83 28
-87 30 -81 54 13 57 73 93 138 83 22 -3 72 -21 110 -40z m-80 -161 c83 -34
178 -68 213 -78 l62 -17 0 -44 c0 -40 -2 -43 -27 -44 -16 0 -35 -2 -43 -3 -17
-3 -243 11 -275 17 -26 5 -81 78 -95 125 -14 53 -13 115 3 109 6 -3 80 -32
162 -65z m69 -219 c52 -3 117 -1 150 6 33 6 60 10 61 8 1 -1 5 -19 8 -39 5
-35 4 -37 -30 -49 -55 -18 -151 -7 -213 24 -60 29 -120 74 -86 63 11 -4 60 -9
110 -13z"/>
<path d="M2295 6965 c-27 -27 -35 -44 -35 -70 0 -19 3 -35 7 -35 4 0 27 19 51
43 40 39 47 42 92 40 36 -1 50 3 50 12 0 23 -42 45 -87 45 -35 0 -48 -6 -78
-35z"/>
<path d="M2364 6748 c-31 -22 -58 -52 -78 -88 -28 -50 -31 -64 -31 -141 0 -75
4 -92 30 -144 42 -81 87 -115 161 -121 72 -6 123 19 166 81 87 125 24 374
-109 431 -50 22 -86 17 -139 -18z m165 -53 c61 -55 95 -185 72 -270 -15 -58
-64 -112 -112 -125 -109 -30 -214 104 -194 248 15 111 73 182 150 182 37 0 52
-6 84 -35z"/>
<path d="M2460 6572 c-48 -38 -33 -160 24 -197 60 -39 112 17 104 112 -8 89
-71 131 -128 85z"/>
<path d="M2693 5325 c-68 -58 -159 -203 -187 -298 -13 -45 -27 -96 -31 -114
l-6 -32 -62 50 c-34 28 -100 69 -147 92 -81 40 -89 42 -176 42 -83 0 -93 -2
-126 -27 -43 -33 -62 -82 -61 -158 4 -179 164 -370 352 -420 61 -16 178 -14
231 5 42 15 46 15 55 -1 62 -102 161 -214 190 -214 20 0 19 14 -2 31 -28 24
-90 113 -122 178 -57 111 -74 205 -68 366 4 117 9 154 32 223 31 93 72 167
135 241 53 62 48 84 -7 36z m-482 -334 c48 -19 165 -92 220 -138 24 -20 29
-32 29 -68 l0 -43 -117 45 c-97 36 -363 123 -379 123 -8 0 -4 29 8 56 18 39
62 55 132 48 33 -3 81 -14 107 -23z m-101 -162 c77 -27 190 -66 250 -85 95
-31 110 -39 110 -57 0 -12 3 -33 7 -46 l6 -24 -149 7 c-234 11 -273 17 -301
52 -36 44 -65 111 -71 160 -2 24 -2 44 1 44 3 0 69 -23 147 -51z m185 -244
c33 -2 87 1 120 6 33 4 63 5 67 1 4 -4 10 -22 14 -39 6 -30 5 -32 -37 -43
-101 -28 -257 5 -329 69 l-25 22 65 -6 c36 -4 92 -8 125 -10z"/>
<path d="M2965 5328 c-31 -25 -58 -80 -49 -102 9 -23 19 -20 38 9 30 45 75 66
129 59 39 -5 47 -4 47 9 0 47 -115 64 -165 25z"/>
<path d="M3072 5145 c-72 -31 -122 -122 -122 -220 0 -200 162 -336 317 -266
70 32 120 133 110 220 -23 194 -172 324 -305 266z m135 -50 c42 -21 56 -36 83
-87 56 -104 53 -224 -8 -280 -66 -60 -137 -60 -204 0 -121 109 -117 323 7 378
43 19 65 17 122 -11z"/>
<path d="M3173 4975 c-64 -45 -17 -215 60 -215 13 0 33 10 45 23 44 47 41 125
-7 176 -32 34 -65 39 -98 16z"/>
<path d="M1395 4769 c-49 -50 -178 -137 -263 -177 -35 -17 -59 -33 -53 -36 18
-11 138 44 227 105 59 40 155 149 131 149 -2 0 -21 -18 -42 -41z"/>
<path d="M4123 3760 c-47 -28 -69 -68 -64 -117 2 -23 21 -14 65 33 39 40 49
45 83 44 57 -3 63 -1 63 16 0 17 -57 44 -92 44 -13 0 -37 -9 -55 -20z"/>
<path d="M3813 3707 c-91 -94 -162 -245 -182 -387 -5 -39 -11 -74 -13 -75 -2
-2 -33 16 -68 41 -162 113 -299 149 -390 102 -195 -101 -75 -421 199 -530 73
-29 247 -32 298 -5 18 9 34 17 37 17 2 0 16 -19 29 -43 48 -82 147 -177 183
-177 4 0 -4 12 -18 28 -35 38 -112 149 -136 197 -11 22 -30 76 -43 120 -21 70
-24 100 -23 235 1 140 3 163 27 235 25 76 66 151 131 244 16 23 27 43 24 46
-2 2 -27 -19 -55 -48z m-472 -363 c59 -18 117 -49 194 -103 75 -54 88 -68 92
-102 3 -28 1 -31 -19 -26 -13 3 -103 26 -201 51 -98 25 -203 49 -233 52 -49 6
-54 9 -54 31 0 36 27 80 58 97 36 20 96 20 163 0z m29 -204 c118 -28 225 -53
237 -56 23 -4 42 -59 27 -74 -5 -5 -90 -16 -188 -25 l-179 -16 -44 43 c-68 67
-135 216 -85 190 9 -6 114 -33 232 -62z m296 -197 c6 -31 5 -32 -42 -46 -70
-22 -184 -15 -259 14 l-60 23 144 18 c80 10 156 22 170 27 31 10 39 5 47 -36z"/>
<path d="M4246 3580 c-108 -33 -169 -214 -117 -350 26 -69 66 -114 122 -140
84 -38 169 -22 226 43 43 49 57 97 50 178 -8 92 -39 160 -99 214 -65 58 -117
74 -182 55z m132 -63 c82 -61 121 -166 101 -273 -12 -62 -41 -99 -94 -119 -63
-25 -109 -14 -161 39 -128 127 -78 376 75 376 34 0 56 -7 79 -23z"/>
<path d="M4328 3400 c-47 -28 -46 -139 2 -190 32 -34 48 -37 90 -15 43 22 54
77 30 150 -18 54 -77 81 -122 55z"/>
<path d="M3144 6738 c-45 -35 -53 -50 -54 -96 0 -37 5 -49 32 -74 29 -27 38
-30 81 -25 66 6 109 47 110 105 2 93 -96 146 -169 90z m98 -45 c38 -34 11
-103 -40 -103 -54 0 -81 62 -45 102 20 22 61 23 85 1z"/>
<path d="M6252 5319 c-42 -9 -88 -52 -102 -95 -22 -66 27 -153 96 -170 31 -8
90 3 120 22 27 18 54 72 54 109 0 85 -85 152 -168 134z m79 -62 c43 -33 49
-84 15 -123 -49 -58 -146 -20 -146 57 0 60 83 103 131 66z"/>
<path d="M6708 4820 c-178 -22 -434 -157 -494 -260 -14 -23 -31 -31 -102 -49
-173 -44 -338 -140 -469 -273 -147 -149 -232 -267 -322 -446 -77 -153 -96
-245 -69 -335 13 -43 71 -94 119 -104 14 -3 33 -18 43 -33 25 -44 135 -147
183 -172 24 -13 43 -26 43 -30 0 -5 -19 -8 -42 -8 -99 -1 -276 -40 -361 -79
-81 -37 -181 -113 -221 -169 -29 -39 -42 -47 -117 -71 -140 -46 -276 -124
-383 -221 -59 -53 -178 -197 -241 -291 -66 -97 -155 -275 -184 -368 -51 -156
-3 -279 126 -332 39 -15 77 -42 117 -82 150 -149 357 -237 601 -253 l99 -7 48
-53 c173 -189 485 -226 636 -76 32 33 34 38 30 88 -5 64 -36 114 -96 154 l-43
28 83 50 c174 105 297 220 385 358 26 41 53 82 58 90 9 13 16 7 37 -33 91
-165 271 -267 349 -197 61 55 66 232 10 364 -17 41 -31 83 -31 92 0 10 21 46
46 80 55 75 88 137 104 198 29 108 16 176 -41 205 -44 23 -139 17 -202 -14
-61 -29 -153 -114 -202 -185 l-37 -54 -48 71 c-61 91 -144 176 -226 231 l-64
43 84 66 c102 80 141 138 133 198 l-5 40 31 -5 c18 -3 70 -8 117 -12 84 -6 85
-7 129 -51 55 -57 146 -116 214 -140 38 -13 82 -18 162 -18 103 0 114 2 177
32 83 39 102 66 96 133 -6 58 -39 107 -100 147 l-40 27 39 19 c105 53 285 189
369 279 32 35 75 92 94 126 19 34 37 61 40 61 3 0 25 -34 50 -75 74 -126 179
-204 272 -204 60 0 91 29 114 106 25 86 16 198 -24 297 -18 43 -32 85 -32 93
0 7 26 42 58 77 173 192 169 417 -8 417 -125 0 -245 -68 -349 -198 l-49 -61
-73 85 c-77 90 -186 195 -231 222 -16 9 -28 19 -28 23 0 4 35 28 78 53 112 66
149 103 162 161 30 135 -148 241 -420 250 -63 2 -145 0 -182 -5z m67 -90 c-64
-34 -161 -110 -195 -155 l-23 -30 -138 0 c-76 0 -135 3 -131 6 152 132 324
203 501 208 l43 1 -57 -30z m267 10 c42 -10 96 -29 120 -41 l42 -22 -106 -37
c-105 -37 -161 -65 -246 -122 l-42 -29 -110 23 c-61 12 -110 26 -110 30 0 12
137 122 196 158 62 37 118 59 154 59 14 1 60 -8 102 -19z m208 -119 c10 -25 9
-34 -6 -59 -15 -26 -101 -89 -201 -147 l-31 -18 -74 35 c-40 20 -79 38 -87 40
-30 9 182 115 334 166 46 16 52 14 65 -17z m-556 -170 c257 -65 413 -172 631
-433 43 -51 81 -94 84 -95 3 -1 17 21 30 49 33 71 137 178 212 218 67 35 161
51 196 32 27 -15 35 -61 22 -122 -10 -48 -12 -50 -44 -50 -87 0 -273 -79 -345
-146 -60 -56 -59 -71 2 -21 56 45 82 58 207 101 101 35 151 44 151 27 0 -11
-34 -55 -97 -124 -64 -70 -65 -86 -22 -194 17 -43 34 -104 37 -137 l5 -58 -54
38 c-81 56 -217 173 -240 205 -27 39 -45 37 -22 -2 36 -63 245 -241 305 -261
18 -6 -1 -78 -27 -104 -19 -19 -28 -22 -52 -15 -54 16 -88 39 -149 103 -63 66
-88 106 -119 195 -10 29 -22 50 -27 47 -5 -3 -21 -31 -37 -63 -33 -64 -133
-202 -177 -243 -68 -63 -266 -202 -345 -243 -211 -109 -479 -151 -729 -115
-223 32 -466 135 -575 244 l-49 50 54 11 c67 13 105 33 145 74 34 35 45 38 45
14 0 -15 2 -16 10 -3 5 8 10 21 10 28 0 23 -39 52 -72 52 -29 0 -30 -1 -15
-18 10 -10 17 -22 17 -25 0 -18 -82 -57 -140 -67 -59 -10 -71 -9 -124 10 -66
25 -96 63 -96 120 0 159 192 488 395 678 154 144 334 235 530 268 130 22 325
11 469 -25z m117 -1420 c51 -32 86 -72 95 -108 11 -43 -8 -49 -99 -30 -78 16
-227 79 -227 96 0 6 155 67 181 70 3 1 25 -12 50 -28z m-973 -2 c74 -20 98
-29 74 -29 -7 0 -13 0 -14 1 -2 0 -29 -9 -60 -21 -81 -30 -183 -88 -235 -134
l-44 -39 -72 16 c-40 9 -87 19 -104 22 -18 4 -33 10 -33 15 0 17 105 100 184
144 76 43 86 46 154 46 42 0 105 -9 150 -21z m-369 -29 c-37 -22 -89 -65 -117
-95 l-51 -55 -78 0 c-43 0 -96 -5 -118 -10 -22 -5 -40 -8 -42 -7 -1 2 21 22
50 45 78 64 203 123 305 143 123 24 125 24 51 -21z m516 -39 c26 -52 2 -87
-132 -193 l-71 -58 -79 36 c-43 20 -89 40 -102 45 -22 9 -20 11 38 49 79 51
148 87 236 121 90 35 92 35 110 0z m568 17 c8 -23 147 -90 231 -113 l81 -22
-40 -12 c-63 -20 -177 -25 -236 -11 -85 19 -256 120 -243 142 3 4 26 8 52 9
26 0 65 4 87 8 58 12 62 12 68 -1z m-1068 -212 c85 -24 203 -77 297 -133 105
-62 268 -221 334 -325 27 -43 51 -78 54 -78 3 0 22 30 43 65 53 90 147 189
211 220 57 28 136 36 160 16 18 -15 28 -69 18 -105 -6 -24 -17 -31 -62 -46
-128 -40 -238 -99 -297 -160 -18 -19 -33 -40 -33 -47 0 -7 17 4 38 25 20 20
73 56 117 78 82 43 215 98 220 92 7 -8 -61 -130 -96 -173 -22 -26 -42 -58 -45
-70 -4 -14 8 -57 29 -112 42 -103 52 -162 42 -239 -13 -103 -58 -116 -162 -47
-70 46 -126 115 -169 209 -39 84 -36 84 -81 -1 -84 -161 -198 -289 -354 -397
-168 -116 -276 -168 -435 -209 -76 -19 -115 -23 -264 -23 -179 -1 -238 7 -354
46 -110 36 -261 123 -314 181 l-23 25 38 7 c56 10 141 53 186 94 26 23 42 32
44 24 7 -20 23 -15 23 6 0 25 -37 51 -72 51 -32 0 -35 -7 -11 -25 14 -11 11
-15 -29 -39 -150 -88 -325 -68 -383 45 -67 129 111 503 360 755 175 177 312
250 565 300 90 18 326 12 405 -10z m116 -1461 c58 -36 94 -86 88 -120 -9 -47
-181 -23 -296 41 -35 19 -63 37 -63 39 0 3 25 12 56 21 31 9 75 25 98 35 23
10 46 19 51 19 6 0 36 -16 66 -35z m-268 -71 c48 -40 141 -83 225 -103 l77
-18 -55 -17 c-116 -36 -263 -14 -381 57 -45 27 -99 72 -99 82 0 3 17 5 38 6
20 0 55 4 77 8 67 14 86 12 118 -15z"/>
<path d="M6260 4314 c0 -3 20 -31 44 -62 198 -253 215 -654 40 -918 -21 -32
-62 -83 -91 -115 -29 -31 -53 -60 -53 -63 0 -13 63 27 107 67 24 22 63 67 85
99 39 56 41 57 67 44 25 -13 51 -20 121 -31 52 -9 158 14 221 47 117 61 221
179 253 287 32 110 14 188 -57 245 -37 29 -43 31 -125 31 -104 -1 -164 -22
-276 -95 -86 -56 -76 -62 -96 57 -14 79 -41 158 -81 233 -43 82 -159 208 -159
174z m673 -428 c41 -17 65 -44 73 -82 l6 -30 -84 -23 c-45 -13 -157 -45 -247
-72 -90 -27 -165 -48 -166 -47 -2 2 0 29 3 60 7 55 9 58 62 96 141 98 269 134
353 98z m72 -178 c-13 -61 -42 -113 -96 -172 l-54 -59 -115 6 c-63 3 -146 11
-183 19 l-68 13 7 40 c3 22 9 43 13 46 3 3 33 11 66 17 33 7 139 36 235 66 96
30 181 54 188 55 10 1 12 -8 7 -31z m-449 -234 c27 -8 95 -18 152 -21 57 -3
99 -9 95 -13 -4 -4 -35 -18 -68 -30 -79 -29 -184 -31 -241 -4 l-41 19 13 33
c16 37 22 38 90 16z"/>
<path d="M5887 4284 c-17 -9 -27 -22 -25 -32 3 -14 13 -16 50 -14 44 3 47 2
89 -47 24 -27 47 -48 51 -45 23 15 -14 108 -53 132 -31 20 -82 23 -112 6z"/>
<path d="M5783 4070 c-51 -12 -116 -72 -152 -140 -76 -142 -41 -296 77 -346
44 -18 79 -18 133 1 63 23 104 58 133 117 22 43 26 66 26 134 0 119 -35 189
-114 225 -44 20 -54 21 -103 9z m107 -60 c68 -49 93 -181 51 -280 -36 -86
-140 -133 -225 -100 -34 12 -76 79 -83 129 -22 163 148 329 257 251z"/>
<path d="M5692 3887 c-32 -34 -44 -109 -23 -149 33 -67 100 -58 136 18 47 100
-43 205 -113 131z"/>
<path d="M5046 2582 c-2 -4 18 -30 45 -56 197 -193 251 -484 148 -794 -20 -60
-48 -106 -141 -231 -40 -53 -28 -58 27 -13 33 27 114 118 130 147 10 17 13 17
64 0 131 -43 283 4 402 125 169 171 186 392 35 461 -85 39 -186 15 -321 -75
l-81 -53 -21 89 c-38 160 -120 298 -222 372 -52 38 -57 41 -65 28z m679 -406
c39 -17 64 -50 72 -98 l5 -35 -123 -32 c-121 -31 -292 -79 -316 -88 -10 -4
-13 11 -13 53 l1 59 89 59 c134 88 214 111 285 82z m70 -198 c-12 -54 -54
-123 -108 -176 l-52 -50 -75 9 c-107 12 -203 29 -219 38 -9 6 -11 20 -6 49 l6
40 112 26 c62 15 164 42 227 61 63 19 116 34 118 35 2 0 0 -15 -3 -32z m-271
-246 l81 -9 -45 -20 c-62 -29 -145 -38 -214 -22 -31 7 -56 14 -56 15 0 2 7 21
16 43 l15 39 61 -19 c33 -11 97 -23 142 -27z"/>
<path d="M4700 2522 c-32 -26 -18 -40 37 -39 44 0 50 -3 89 -48 57 -65 84 -43
50 40 -26 60 -126 87 -176 47z"/>
<path d="M4554 2311 c-82 -37 -144 -155 -144 -274 0 -175 152 -277 295 -199
166 91 178 379 20 469 -49 28 -115 29 -171 4z m166 -51 c18 -13 42 -44 53 -69
63 -142 -22 -331 -150 -333 -52 0 -83 9 -111 36 -101 92 -66 316 60 380 43 22
106 16 148 -14z"/>
<path d="M4519 2132 c-26 -23 -31 -36 -36 -87 -4 -51 -2 -64 17 -87 31 -40 79
-39 114 2 45 54 46 132 4 178 -29 30 -61 28 -99 -6z"/>
<path d="M6232 2043 c39 -65 137 -161 193 -189 77 -37 88 -25 18 18 -32 20
-96 75 -141 122 -45 47 -84 86 -87 86 -2 0 5 -17 17 -37z"/>
<path d="M8358 3767 c-39 -18 -69 -48 -84 -84 -19 -44 -18 -69 6 -118 64 -133
270 -87 270 60 0 109 -100 182 -192 142z m124 -80 c22 -27 23 -69 3 -106 -17
-33 -33 -41 -82 -41 -51 0 -97 51 -89 98 6 41 22 61 60 77 37 16 84 4 108 -28z"/>
<path d="M1595 3378 c-87 -81 -34 -208 87 -208 50 0 82 19 103 60 45 88 -13
180 -114 180 -33 0 -49 -7 -76 -32z m132 -44 c20 -20 24 -31 19 -57 -8 -39
-30 -57 -70 -57 -40 0 -66 26 -66 67 0 68 68 96 117 47z"/>
</g>
</svg>
