<?xml version="1.0" encoding="UTF-8" standalone="yes"?>
<svg version="1.0" xmlns="http://www.w3.org/2000/svg" width="1200.000000pt" height="400.000000pt" viewBox="0 0 1200.000000 400.000000" preserveAspectRatio="xMidYMid meet">
  <metadata>
Created by potrace 1.16, written by Peter Selinger 2001-2019
</metadata>
  <g transform="translate(0.000000,400.000000) scale(0.100000,-0.100000)" fill="#000000" stroke="none">
    <path d="M2 2003 l3 -1998 1786 -3 1787 -2 6 77 c4 43 11 121 17 173 49 478&#xA;369 3705 369 3724 l0 26 -1985 0 -1985 0 2 -1997z m3918 1937 c0 -27 -345&#xA;-3476 -370 -3702 -11 -98 -20 -180 -20 -183 0 -3 -15 -5 -33 -5 -29 0 -40 9&#xA;-107 97 -41 53 -80 101 -85 107 -6 6 -40 49 -76 96 -36 47 -72 94 -81 105 -77&#xA;94 -174 212 -221 272 -32 40 -80 87 -107 105 -27 17 -47 35 -45 38 2 4 -7 18&#xA;-19 32 -13 13 -31 39 -40 56 -9 18 -22 31 -28 29 -7 -1 -12 5 -13 13 0 29 -56&#xA;110 -76 110 -20 0 -26 -16 -8 -22 6 -2 9 -13 7 -23 -4 -16 -9 -12 -23 20 -23&#xA;53 -30 107 -17 143 10 28 7 33 -64 103 -40 40 -77 70 -81 66 -4 -4 -1 -23 6&#xA;-42 7 -19 9 -40 6 -45 -4 -6 5 -30 18 -55 l25 -44 -23 -15 c-13 -9 -24 -26&#xA;-24 -38 0 -13 -1 -33 -1 -45 0 -13 -4 -22 -8 -22 -18 3 -32 -2 -32 -12 0 -5 5&#xA;-7 10 -4 6 3 10 2 10 -4 0 -5 -8 -15 -18 -20 -14 -9 -15 -12 -3 -20 18 -12 24&#xA;-50 11 -66 -7 -9 -6 -16 5 -25 8 -7 15 -17 15 -23 0 -17 -38 38 -45 66 -4 15&#xA;-11 27 -16 27 -5 0 -6 7 -3 15 4 8 2 15 -4 15 -5 0 -13 15 -16 33 -10 53 -12&#xA;61 -18 77 -4 8 -11 29 -17 45 -17 51 -4 -57 19 -148 11 -44 17 -84 13 -90 -3&#xA;-5 -2 -8 3 -5 9 6 27 -8 34 -27 2 -5 8 -22 14 -38 6 -15 16 -25 23 -23 6 3 15&#xA;-5 19 -17 3 -12 15 -30 25 -40 26 -24 24 -40 -4 -32 -21 6 -21 5 2 -8 l24 -14&#xA;-21 -12 c-14 -7 -23 -8 -27 -1 -8 13 -25 13 -25 -1 0 -5 6 -7 13 -3 6 4 8 3 4&#xA;-1 -12 -13 -37 -16 -93 -10 -40 5 -59 14 -87 40 -66 62 -116 162 -94 185 9 9&#xA;8 11 -3 8 -9 -2 -14 3 -12 14 1 9 -2 19 -8 23 -8 5 -7 11 1 21 9 11 9 20 0 37&#xA;-7 12 -10 43 -7 70 2 26 0 47 -6 47 -5 0 -6 5 -2 12 4 7 7 32 6 57 -2 43 0 48&#xA;39 74 23 16 38 31 35 34 -3 4 -19 -6 -34 -20 -16 -15 -31 -27 -35 -27 -10 0&#xA;-8 50 4 93 5 21 12 75 14 120 3 45 7 109 10 141 2 32 3 57 1 55 -12 -12 -61&#xA;-287 -72 -394 -3 -38 -9 -74 -12 -79 -8 -13 -7 -59 1 -72 7 -13 -3 -29 -25&#xA;-37 -12 -4 -15 -12 -11 -24 6 -15 5 -16 -9 -3 -16 15 -11 25 27 49 16 10 17&#xA;11 2 7 -11 -3 -16 -2 -12 4 10 16 -20 41 -33 28 -7 -7 -15 -9 -18 -5 -10 9 17&#xA;39 30 34 7 -3 12 4 12 14 0 16 -5 14 -32 -12 -30 -29 -31 -32 -16 -50 15 -18&#xA;38 -17 27 2 -4 5 -1 9 4 9 16 0 13 -21 -6 -42 -22 -24 -26 -48 -7 -41 8 3 14&#xA;1 14 -5 0 -6 -6 -12 -12 -15 -7 -2 -10 -7 -6 -11 8 -10 48 16 48 31 0 6 5 15&#xA;12 19 8 5 9 2 5 -9 -3 -9 -3 -19 2 -21 4 -3 8 -18 9 -34 1 -27 -2 -28 -46 -31&#xA;-25 -1 -49 -4 -52 -6 -8 -5 -50 -12 -120 -21 -61 -7 -308 -7 -355 1 -16 2 -52&#xA;7 -80 10 -84 11 -354 80 -370 96 -5 5 -18 9 -28 9 -47 0 -257 112 -341 181&#xA;-135 112 -257 276 -291 391 -16 58 -22 183 -11 238 27 130 123 234 249 268 37&#xA;10 38 10 78 -38 35 -41 90 -80 113 -80 4 0 -16 23 -44 50 -32 32 -63 76 -82&#xA;118 -27 59 -31 78 -32 157 -1 143 45 248 144 332 76 65 153 83 240 57 184 -55&#xA;240 -357 104 -561 -24 -35 -44 -67 -44 -69 0 -3 13 4 30 16 65 46 130 247 115&#xA;356 -13 101 -57 196 -111 242 -56 48 -130 67 -207 53 -33 -6 -63 -8 -66 -5 -7&#xA;7 39 44 134 108 153 102 344 166 528 179 64 4 67 3 67 -18 0 -27 16 -35 52&#xA;-28 32 6 124 -20 193 -54 27 -14 76 -53 109 -86 l58 -62 -7 35 c-8 36 -60 136&#xA;-76 146 -5 3 -9 9 -9 14 0 19 215 -65 295 -115 28 -17 70 -41 95 -54 25 -13&#xA;47 -26 50 -30 3 -4 22 -17 43 -30 20 -12 37 -27 37 -32 0 -5 6 -9 13 -9 13 0&#xA;159 -143 154 -151 -1 -2 0 -3 2 -2 11 6 131 -141 136 -167 2 -13 7 -25 11 -29&#xA;4 -3 4 3 1 14 -9 26 36 -27 64 -75 11 -19 35 -60 54 -90 54 -87 108 -197 149&#xA;-302 38 -100 55 -128 49 -80 -4 22 4 33 44 64 26 20 50 34 53 32 2 -3 -1 -8&#xA;-7 -12 -7 -5 -9 -13 -4 -21 6 -10 11 -5 16 18 3 17 11 31 16 31 6 0 7 5 4 10&#xA;-3 6 -1 11 4 11 6 1 17 2 24 3 6 0 12 8 12 16 0 16 145 130 233 183 29 18 70&#xA;42 90 54 20 12 40 19 44 17 4 -3 8 -1 8 4 0 9 75 42 94 42 10 0 -3 -111 -15&#xA;-126 -5 -6 -6 -13 -4 -16 13 -12 -47 -149 -134 -311 -31 -58 -14 -52 -213 -72&#xA;-62 -6 -67 -5 -73 16 -6 16 -9 18 -16 8 -5 -8 -3 -16 4 -21 7 -4 10 -8 7 -9&#xA;-46 -7 -60 -6 -60 6 0 7 6 16 13 18 9 4 9 6 -1 6 -8 1 -16 -8 -19 -18 -4 -15&#xA;-11 -18 -31 -15 -15 3 -23 2 -19 -2 4 -4 -6 -13 -22 -20 -19 -8 -33 -24 -41&#xA;-49 -8 -24 -17 -35 -25 -31 -9 3 -12 0 -8 -10 3 -7 0 -14 -6 -14 -6 0 -11 -9&#xA;-11 -20 0 -45 -189 -269 -222 -264 -10 1 -15 -3 -12 -10 6 -15 -55 -78 -67&#xA;-70 -5 3 -6 -1 -3 -9 3 -8 -3 -20 -12 -28 -12 -9 -15 -10 -10 -1 4 7 2 12 -5&#xA;12 -8 0 -8 4 1 15 11 13 10 14 -6 9 -14 -5 -12 -2 6 14 14 11 27 16 28 11 2&#xA;-5 8 -7 12 -4 13 8 0 36 -14 29 -6 -3 0 3 14 14 13 11 28 18 32 16 4 -3 8 -1&#xA;8 4 0 15 -37 21 -49 9 -8 -8 -11 -8 -11 1 0 12 40 38 53 34 5 -1 6 2 2 8 -8&#xA;13 -41 -4 -58 -30 -6 -11 -18 -20 -25 -20 -7 0 -10 -5 -7 -10 5 -8 11 -7 21 1&#xA;17 14 18 8 1 -23 -7 -14 -18 -23 -26 -20 -11 4 -11 6 0 13 10 6 10 9 2 9 -7 0&#xA;-17 -10 -24 -22 -10 -19 -9 -20 7 -14 15 6 16 5 7 -5 -10 -10 -16 -9 -28 1&#xA;-14 12 -14 15 5 35 11 12 20 25 20 31 0 5 -7 1 -15 -10 -8 -10 -19 -15 -26&#xA;-10 -8 5 -10 3 -4 -5 5 -9 1 -9 -14 1 -12 7 -19 19 -16 25 2 8 -3 13 -13 13&#xA;-10 0 -24 6 -32 13 -7 6 -1 -3 14 -22 15 -19 25 -40 22 -48 -13 -32 121 -118&#xA;152 -99 8 5 180 179 212 215 8 9 27 31 43 50 l27 33 18 -33 c28 -52 126 -183&#xA;168 -223 97 -95 220 -170 277 -168 43 1 89 22 83 38 -6 16 13 30 35 26 9 -2&#xA;19 4 23 13 3 9 2 13 -4 10 -15 -9 -12 2 5 18 8 8 19 45 25 83 12 72 1 181 -25&#xA;255 -8 22 -12 39 -10 39 2 0 -8 30 -22 68 -53 142 -53 132 -3 207 48 73 111&#xA;218 133 305 28 115 30 265 4 316 -22 43 -76 73 -124 70 -120 -9 -355 -197&#xA;-514 -412 l-72 -96 -21 48 c-12 27 -49 95 -83 152 -64 105 -71 121 -78 182&#xA;-25 221 -89 451 -176 625 -56 112 -107 195 -119 195 -5 0 -11 8 -14 18 -8 22&#xA;-84 107 -98 107 -5 0 -24 16 -42 36 -17 20 -47 47 -66 59 -19 13 -39 30 -43&#xA;37 -4 7 -12 13 -17 13 -6 0 -19 8 -30 18 -11 9 -25 17 -30 17 -4 0 -20 10 -34&#xA;23 -15 12 -30 22 -34 22 -4 0 -13 5 -20 12 -6 6 -18 13 -27 14 -8 1 -27 11&#xA;-42 21 -15 10 -55 27 -88 38 -33 10 -64 22 -70 26 -21 14 -150 30 -238 28&#xA;-145 -3 -271 -48 -331 -120 -31 -37 -32 -62 -5 -126 80 -185 154 -381 147&#xA;-388 -2 -2 -50 -14 -108 -28 -58 -14 -112 -28 -122 -32 -11 -4 -21 3 -34 24&#xA;-9 16 -34 37 -55 46 -34 16 -41 16 -94 0 -93 -26 -167 -81 -202 -149 l-15 -28&#xA;34 24 c88 65 250 107 291 76 17 -13 13 -17 -50 -48 -143 -71 -260 -172 -363&#xA;-315 -94 -130 -121 -240 -95 -390 8 -43 12 -82 10 -86 -3 -4 -19 -9 -37 -13&#xA;-18 -3 -61 -24 -95 -46 -166 -109 -222 -318 -145 -535 61 -169 199 -328 393&#xA;-449 l46 -29 -15 -41 c-25 -69 -18 -200 15 -286 24 -61 36 -79 83 -116 63 -50&#xA;102 -64 180 -64 137 1 270 128 270 260 0 31 5 52 13 55 6 3 64 -1 127 -8 172&#xA;-20 392 -12 528 19 78 17 82 17 82 0 0 -30 35 -123 61 -161 29 -44 77 -88 100&#xA;-93 8 -2 19 -10 25 -18 13 -16 29 -20 19 -4 -7 12 27 0 36 -12 17 -25 259 44&#xA;259 74 0 4 6 8 13 8 6 0 29 18 49 39 l37 39 18 -33 c10 -19 110 -147 223 -286&#xA;113 -138 247 -302 297 -365 l93 -114 -1630 0 -1630 0 0 1955 0 1955 1935 0&#xA;1935 0 0 -20z m-2160 -215 c14 -3 46 -10 72 -15 58 -12 175 -61 240 -100 27&#xA;-17 50 -30 53 -30 3 0 16 -9 29 -21 21 -18 23 -25 14 -57 -17 -66 -89 -276&#xA;-113 -327 -12 -27 -26 -61 -30 -73 -8 -26 -16 -26 -100 -2 -22 6 -44 12 -50&#xA;14 -95 25 -104 32 -94 75 17 72 23 316 9 395 -7 42 -16 76 -20 76 -4 0 -3 -23&#xA;1 -51 16 -103 9 -360 -10 -367 -4 -1 -6 -18 -5 -38 2 -25 -1 -37 -13 -41 -9&#xA;-4 -18 -2 -20 4 -2 6 -21 7 -51 2 -26 -4 -51 -4 -56 -1 -5 3 -6 1 -3 -4 3 -6&#xA;-3 -15 -14 -22 -10 -7 -19 -9 -19 -4 0 4 -24 7 -52 7 l-53 0 -11 45 c-7 25&#xA;-21 67 -33 93 -11 26 -20 51 -19 55 1 4 -19 50 -44 103 -61 129 -73 166 -58&#xA;184 21 26 105 73 150 85 93 26 221 32 300 15z m496 -239 c114 -86 244 -222&#xA;244 -255 0 -9 -19 -28 -43 -43 -23 -15 -62 -46 -86 -68 -25 -22 -51 -40 -58&#xA;-40 -8 0 -12 -4 -9 -9 3 -5 -5 -16 -19 -25 -14 -9 -24 -20 -22 -25 1 -5 -7&#xA;-16 -17 -24 -17 -13 -29 -10 -105 22 -121 51 -116 44 -81 107 16 30 27 54 25&#xA;54 -2 0 6 26 19 58 34 85 53 149 68 225 7 37 16 67 19 67 4 0 33 -20 65 -44z&#xA;m327 -368 c68 -114 71 -126 32 -148 -16 -9 -47 -27 -68 -39 -21 -12 -48 -27&#xA;-60 -35 -29 -17 -59 -15 -64 4 -4 12 -3 12 5 2 7 -11 12 -10 26 3 9 9 16 24&#xA;16 33 -1 16 -2 16 -14 0 -11 -15 -14 -15 -27 -3 -13 13 -16 12 -27 -6 -8 -12&#xA;-9 -18 -3 -14 6 3 11 -1 11 -9 0 -8 7 -22 16 -31 9 -9 13 -19 9 -23 -4 -4 -15&#xA;4 -26 17 -10 13 -19 20 -19 17 0 -4 -13 1 -29 10 -17 10 -28 21 -26 25 3 4 -5&#xA;10 -18 13 -12 3 -31 13 -41 21 -19 15 -19 16 9 45 15 16 32 27 37 24 5 -3 7&#xA;-1 6 4 -6 17 91 115 151 153 25 16 46 29 47 29 1 0 27 -42 57 -92z m94 -192&#xA;c7 -15 11 -32 8 -36 -3 -5 0 -10 6 -12 5 -2 12 -19 14 -38 2 -19 4 -37 5 -40&#xA;1 -3 2 -8 1 -12 0 -5 4 -8 10 -8 5 0 7 -4 4 -10 -3 -5 -2 -10 2 -10 9 0 12&#xA;-11 16 -60 1 -14 6 -28 11 -32 6 -4 4 -14 -5 -24 -8 -10 -9 -15 -3 -11 8 4 11&#xA;-2 10 -17 -1 -23 -2 -24 -19 -8 -12 11 -16 24 -12 40 5 20 4 22 -9 10 -10 -9&#xA;-11 -18 -4 -32 7 -13 6 -22 -3 -30 -9 -8 -10 -8 -5 2 4 7 2 12 -7 12 -7 0 -24&#xA;11 -37 25 -12 13 -27 22 -31 19 -5 -3 -9 0 -9 5 0 10 -25 43 -58 77 -11 12&#xA;-11 14 2 14 9 0 16 -4 16 -10 0 -5 9 -14 20 -20 17 -9 25 -6 45 14 14 14 25&#xA;33 25 43 0 14 -6 10 -25 -14 -16 -19 -31 -30 -40 -26 -8 3 -12 10 -9 15 4 6&#xA;10 5 15 -3 5 -8 9 -9 9 -3 0 12 -21 34 -33 34 -4 0 -5 -6 -1 -12 6 -10 5 -10&#xA;-7 -1 -12 10 -18 10 -28 0 -10 -9 -11 -8 -5 8 7 18 6 18 -9 6 -15 -12 -17 -11&#xA;-17 3 0 10 -5 14 -10 11 -6 -4 -22 1 -36 9 -20 14 -22 19 -12 30 7 8 15 12 17&#xA;10 2 -2 13 7 25 20 20 22 94 74 126 87 24 11 34 6 47 -25z m73 -377 c21 -28&#xA;35 -59 25 -59 -2 0 -18 20 -35 45 -35 51 -28 61 10 14z m887 -3 c27 -10 50&#xA;-66 54 -131 3 -46 2 -49 -26 -58 -50 -15 -148 -59 -177 -79 -16 -11 -28 -16&#xA;-28 -13 0 3 -13 -3 -30 -15 -16 -12 -30 -19 -30 -15 0 3 -6 1 -12 -4 -38 -31&#xA;-79 -61 -128 -93 -69 -45 -105 -76 -105 -91 -1 -7 -7 -11 -14 -9 -7 1 -19 -5&#xA;-26 -15 -7 -10 -17 -14 -22 -10 -4 5 -1 14 7 20 8 7 16 23 18 36 l2 25 -23&#xA;-22 c-13 -12 -27 -19 -30 -15 -4 3 -7 1 -7 -6 0 -7 -7 -11 -14 -8 -10 4 -13 1&#xA;-9 -8 4 -11 10 -12 24 -4 24 12 25 1 2 -18 -17 -13 -16 -14 5 -8 24 7 25 5 16&#xA;-19 -3 -9 -15 -16 -25 -16 -18 0 -23 10 -20 38 1 6 -2 12 -7 12 -5 0 -12 9&#xA;-15 20 -3 11 -1 20 4 20 5 0 9 4 9 10 0 13 53 89 62 90 12 0 -15 -54 -37 -73&#xA;-20 -18 -20 -18 1 -8 12 6 25 7 29 3 5 -4 5 -2 1 5 -3 6 -2 14 4 18 6 4 8 9 6&#xA;13 -2 4 7 8 21 8 13 1 30 10 38 20 20 28 9 31 -24 6 l-28 -21 0 25 c0 33 86&#xA;131 99 112 7 -10 9 -10 5 2 -6 21 12 52 25 44 6 -4 8 -3 4 4 -7 12 103 106&#xA;192 164 31 20 62 41 67 45 29 24 99 33 142 19z m-127 -779 c0 -10 5 -28 12&#xA;-40 6 -12 13 -31 14 -42 5 -36 13 -65 20 -77 4 -6 8 -21 10 -32 1 -12 8 -41&#xA;14 -66 31 -113 24 -225 -16 -265 -14 -14 -22 -25 -20 -25 3 0 -4 -11 -16 -25&#xA;-11 -13 -25 -22 -30 -19 -4 3 -8 1 -8 -3 0 -5 -16 -7 -35 -5 -19 2 -35 8 -35&#xA;12 0 4 -13 10 -29 13 -16 3 -35 12 -42 19 -8 7 -33 26 -56 42 -24 16 -40 33&#xA;-36 40 3 6 2 8 -2 3 -11 -9 -116 93 -109 105 3 5 0 7 -7 6 -7 -2 -13 6 -14 17&#xA;0 11 -5 19 -12 18 -6 -2 -15 6 -18 17 -4 11 -10 20 -14 20 -11 0 -31 47 -24&#xA;54 14 13 25 5 20 -15 -4 -17 -3 -18 9 -8 12 10 13 9 8 -5 -7 -19 8 -21 36 -3&#xA;17 10 22 9 29 -1 4 -7 15 -10 24 -6 9 3 17 1 17 -4 0 -17 -34 -19 -46 -3 -10&#xA;13 -14 12 -30 -4 -16 -15 -16 -18 -3 -13 11 4 31 -6 55 -28 58 -51 58 -51 74&#xA;-46 12 4 13 2 3 -9 -15 -15 -17 -33 -4 -25 5 4 11 3 14 -1 2 -5 2 -2 1 5 -2 6&#xA;3 12 11 12 8 0 15 -3 15 -8 0 -4 16 -16 35 -26 19 -10 32 -23 29 -27 -3 -5 8&#xA;-11 23 -15 15 -4 45 -16 67 -26 29 -15 41 -17 50 -8 8 8 7 9 -6 5 -11 -5 -18&#xA;-2 -18 6 0 7 -3 9 -7 6 -9 -10 -34 14 -26 26 3 6 1 7 -6 3 -6 -4 -18 0 -27 8&#xA;-8 9 -22 16 -30 16 -17 0 -19 17 -1 23 6 2 4 3 -5 2 -13 -2 -17 3 -14 18 2 12&#xA;1 16 -1 9 -4 -11 -9 -10 -24 4 -10 9 -16 21 -13 25 3 5 -3 6 -12 2 -13 -5 -15&#xA;-3 -9 7 5 8 4 11 -3 6 -6 -3 -13 -2 -17 4 -3 5 -11 10 -17 10 -6 0 0 -10 13&#xA;-23 13 -13 27 -22 30 -20 7 3 31 -23 44 -47 5 -8 -3 -5 -16 6 -13 12 -38 29&#xA;-55 37 -42 22 -59 43 -40 50 8 3 20 16 26 29 11 22 10 22 -9 -2 -14 -17 -21&#xA;-20 -21 -10 0 12 -3 11 -11 -3 -6 -9 -15 -15 -21 -11 -7 4 -6 9 2 14 17 11 4&#xA;44 -14 37 -8 -3 -19 0 -26 7 -8 10 -6 15 7 21 16 6 15 8 -7 20 -14 8 -20 15&#xA;-15 15 6 0 3 5 -5 10 -11 7 -11 10 -2 10 7 0 24 -11 37 -24 13 -13 25 -20 27&#xA;-15 2 6 13 1 25 -10 11 -11 24 -17 27 -14 3 4 6 2 6 -3 0 -5 10 -11 22 -11 13&#xA;-1 24 -7 26 -13 2 -5 10 -10 18 -10 8 0 14 -4 14 -10 0 -5 6 -10 14 -10 8 0&#xA;21 -6 28 -13 7 -7 22 -16 33 -19 11 -3 29 -9 40 -14 35 -14 -5 21 -51 44 -21&#xA;11 -73 41 -114 66 -41 25 -80 46 -87 46 -7 0 -13 7 -13 15 0 8 -6 12 -13 9 -8&#xA;-3 -20 2 -27 11 -10 12 -10 18 0 30 10 12 9 16 -4 21 -21 8 -20 24 2 22 34 -3&#xA;53 2 47 12 -5 8 -11 7 -21 -1 -11 -9 -14 -9 -14 0 0 7 -4 9 -10 6 -5 -3 -10&#xA;-1 -10 5 0 6 -7 10 -17 8 -16 -3 -27 -58 -11 -58 4 0 8 -4 8 -10 0 -16 -26&#xA;-12 -41 7 -10 11 -10 14 -1 9 6 -4 12 -2 12 3 0 6 -8 12 -17 12 -17 1 -17 2 0&#xA;6 9 2 15 8 12 13 -3 4 6 15 20 24 14 9 25 22 25 29 0 8 -4 7 -10 -3 -5 -8 -10&#xA;-11 -10 -6 0 5 -8 2 -17 -5 -16 -12 -17 -12 -6 2 7 9 10 18 8 21 -3 3 6 4 20&#xA;3 14 -2 25 0 25 4 0 4 8 7 18 8 10 1 45 6 78 12 33 6 84 11 114 11 30 0 73 3&#xA;95 8 43 8 64 -5 65 -41z m-360 -112 c0 -12 -19 -12 -23 0 -4 9 -1 12 9 8 7 -3&#xA;14 -7 14 -8z m-35 -55 c3 -6 -1 -7 -9 -4 -18 7 -21 14 -7 14 6 0 13 -4 16 -10z&#xA;m-58 -17 c-4 -3 1 -12 11 -20 9 -8 11 -12 5 -8 -7 3 -13 1 -13 -4 0 -17 -20&#xA;-13 -27 5 -3 9 0 20 8 25 17 10 25 12 16 2z m-587 -427 c0 -2 -8 -10 -17 -17&#xA;-16 -13 -17 -12 -4 4 13 16 21 21 21 13z m-44 -103 c-2 -10 -10 -19 -19 -21&#xA;-20 -4 -22 4 -4 23 17 19 26 18 23 -2z m-1612 -39 c-1 -13 2 -22 7 -18 5 3 7&#xA;10 4 15 -4 5 -2 9 3 9 17 0 21 -27 7 -48 -8 -10 -11 -22 -8 -26 12 -12 12 -40&#xA;0 -49 -8 -6 -4 -7 9 -4 22 5 24 -2 9 -35 -14 -33 -26 -9 -42 87 -10 59 -7 126&#xA;6 107 4 -8 7 -24 5 -38z m1801 16 c-3 -6 1 -13 9 -16 9 -3 13 -10 10 -16 -3&#xA;-5 -12 -1 -20 9 -16 22 -18 33 -3 33 5 0 7 -5 4 -10z m-190 -52 l3 -33 -13 30&#xA;c-7 17 -11 34 -8 38 8 14 15 0 18 -35z m-1365 29 c0 -2 -9 -14 -20 -27 -11&#xA;-13 -20 -18 -20 -12 0 6 7 18 16 26 15 15 24 20 24 13z m-157 -42 c-3 -9 -8&#xA;-14 -10 -11 -3 3 -2 9 2 15 9 16 15 13 8 -4z m387 11 c0 -2 -7 -6 -15 -10 -8&#xA;-3 -15 -1 -15 4 0 6 7 10 15 10 8 0 15 -2 15 -4z m-430 -42 c6 -15 14 -22 22&#xA;-18 7 5 8 3 3 -6 -6 -10 -12 -8 -27 9 -17 23 -23 41 -13 41 3 0 10 -12 15 -26z&#xA;m147 4 c-3 -8 -6 -5 -6 6 -1 11 2 17 5 13 3 -3 4 -12 1 -19z m100 5 c-4 -3 -2&#xA;-12 5 -20 9 -11 7 -18 -7 -31 -18 -16 -18 -16 -6 1 10 12 11 20 2 30 -10 12&#xA;-6 27 7 27 3 0 2 -3 -1 -7z m1375 -26 c3 -16 0 -24 -9 -24 -8 0 -11 7 -8 14 3&#xA;8 5 19 5 24 0 18 8 9 12 -14z m-1532 -3 c0 -8 -4 -12 -10 -9 -9 5 -14 -9 -7&#xA;-18 1 -2 -5 -12 -13 -23 -14 -19 -14 -19 8 0 12 11 25 16 29 13 3 -4 1 -7 -5&#xA;-7 -6 0 -9 -7 -5 -17 5 -12 3 -14 -8 -9 -8 4 -4 -1 8 -11 13 -11 20 -28 19&#xA;-43 -1 -14 2 -27 6 -30 14 -10 21 -70 9 -70 -17 0 -83 44 -104 70 -37 44 -44&#xA;109 -11 96 9 -3 14 2 14 15 0 11 8 23 18 26 9 4 23 13 30 20 17 17 22 16 22&#xA;-3z m50 -4 c9 -16 8 -18 -5 -14 -8 4 -15 12 -15 20 0 20 7 17 20 -6z m179 -1&#xA;c-11 -7 -11 -9 3 -9 11 0 15 -6 11 -20 -4 -16 -2 -19 11 -14 9 3 13 10 10 15&#xA;-3 5 2 12 10 15 9 3 13 10 10 15 -8 14 36 10 51 -4 8 -8 10 -19 5 -27 -4 -7&#xA;-6 -19 -3 -27 3 -7 -7 -32 -21 -54 l-27 -40 -18 23 c-10 13 -20 31 -24 40 -7&#xA;20 9 35 16 16 3 -8 6 -6 6 5 1 14 -4 16 -26 11 -22 -6 -25 -4 -20 10 4 9 2 16&#xA;-2 16 -5 0 -8 8 -6 18 2 9 4 21 4 25 1 5 6 5 12 1 8 -4 7 -9 -2 -15z m41 0 c0&#xA;-5 -4 -9 -10 -9 -5 0 -10 7 -10 16 0 8 5 12 10 9 6 -3 10 -10 10 -16z m1465&#xA;-11 c5 4 5 1 1 -6 -6 -10 -11 -10 -22 -1 -8 6 -14 14 -14 16 0 3 6 0 13 -6 8&#xA;-6 18 -7 22 -3z m-1609 -17 c-10 -16 18 -19 35 -4 14 12 18 10 29 -17 7 -16&#xA;17 -30 22 -30 5 0 6 -5 3 -10 -4 -6 8 -24 26 -41 33 -30 33 -31 14 -46 -37&#xA;-28 -100 -50 -146 -51 l-47 -2 -11 61 c-6 34 -8 66 -5 71 3 5 1 14 -4 21 -7 8&#xA;-6 18 4 31 14 19 14 19 14 -2 0 -14 5 -20 14 -16 20 8 43 -35 25 -47 -10 -6&#xA;-7 -8 8 -6 12 0 20 3 18 6 -3 2 3 10 13 18 15 11 15 12 1 7 -20 -6 -34 11 -18&#xA;22 8 4 9 3 5 -4 -5 -8 -1 -10 9 -5 23 8 -3 25 -27 17 -10 -3 -18 -2 -18 2 0 4&#xA;8 13 18 20 20 16 25 17 18 5z m1355 -8 c13 -16 12 -17 -3 -4 -17 13 -22 21&#xA;-14 21 2 0 10 -8 17 -17z m39 -33 c0 -5 -2 -10 -4 -10 -3 0 -8 5 -11 10 -3 6&#xA;-1 10 4 10 6 0 11 -4 11 -10z"/>
    <path d="M2095 2960 c11 -13 38 -44 60 -68 22 -24 44 -51 49 -60 5 -10 16 -24&#xA;24 -32 24 -24 111 -210 133 -285 35 -119 61 -274 76 -460 7 -91 7 -126 -2&#xA;-208 -7 -56 -6 -58 12 -48 33 17 95 92 89 107 -3 7 0 13 7 11 18 -3 57 123 68&#xA;222 24 196 -29 441 -116 546 -9 11 -7 2 6 -20 12 -22 26 -44 31 -50 4 -5 8&#xA;-19 8 -30 0 -12 3 -25 7 -29 4 -3 8 -12 9 -19 1 -7 9 -48 18 -92 25 -115 22&#xA;-328 -5 -427 -5 -22 -21 -59 -34 -82 -13 -24 -21 -47 -17 -51 4 -3 2 -5 -5 -3&#xA;-6 2 -24 -13 -38 -32 l-27 -35 8 50 c9 60 10 165 1 220 -3 22 -9 65 -12 95&#xA;-10 86 -35 208 -57 285 -11 39 -21 75 -22 80 -13 69 -126 282 -180 337 -53 54&#xA;-113 106 -91 78z"/>
    <path d="M1574 2824 c-78 -16 -115 -35 -176 -92 -155 -144 -195 -413 -86 -574&#xA;32 -48 108 -107 164 -129 55 -21 123 -22 192 -4 70 19 229 95 199 95 -16 0&#xA;-14 7 14 44 53 75 80 151 86 248 5 76 2 98 -21 171 -47 151 -123 216 -291 250&#xA;-11 2 -48 -2 -81 -9z m189 -58 c122 -72 192 -233 170 -391 -15 -101 -52 -178&#xA;-116 -238 -170 -160 -393 -126 -503 76 -39 73 -46 205 -15 307 27 88 54 132&#xA;113 187 80 73 136 94 239 89 49 -2 77 -10 112 -30z"/>
    <path d="M1689 2517 c-53 -36 -72 -71 -77 -137 -7 -102 31 -170 96 -170 32 0&#xA;89 58 106 107 35 102 9 192 -61 212 -27 8 -38 5 -64 -12z m109 -83 c3 -34 -17&#xA;-58 -42 -48 -32 12 -16 87 18 82 15 -2 22 -11 24 -34z"/>
    <path d="M1024 2530 c-54 -21 -88 -103 -82 -192 5 -67 31 -103 84 -114 42 -8&#xA;93 37 117 102 21 60 22 94 2 141 -29 69 -63 87 -121 63z m97 -74 c14 -29 -4&#xA;-69 -29 -64 -32 6 -23 88 9 88 5 0 14 -11 20 -24z"/>
    <path d="M2750 2392 c0 -4 4 -12 8 -17 11 -13 28 -74 43 -149 20 -103 -5 -301&#xA;-45 -357 -22 -32 -20 -47 3 -20 17 19 23 32 46 96 4 11 10 77 12 146 5 124 -5&#xA;200 -38 282 -11 25 -29 37 -29 19z"/>
    <path d="M946 2135 c-137 -35 -187 -176 -104 -292 39 -54 95 -96 150 -113 21&#xA;-6 38 -15 38 -21 0 -6 15 -43 33 -82 55 -117 145 -189 252 -201 52 -5 180 18&#xA;191 35 3 5 9 7 14 4 4 -3 13 2 20 10 7 8 18 15 25 15 23 0 112 96 153 166 22&#xA;38 57 106 78 152 43 91 57 99 123 66 32 -16 48 -14 37 5 -15 24 -109 44 -188&#xA;38 -66 -4 -81 -9 -97 -29 -11 -12 -18 -24 -17 -25 2 -2 24 4 49 13 108 37 59&#xA;-11 -70 -67 -147 -65 -471 -95 -593 -55 -132 43 -201 110 -207 201 -11 144&#xA;167 212 310 119 38 -25 51 -19 20 8 -57 49 -145 71 -217 53z m654 -575 c-30&#xA;-27 -60 -50 -66 -50 -7 0 -15 -7 -18 -16 -3 -8 -11 -12 -16 -9 -6 4 -16 2 -23&#xA;-3 -41 -33 -167 -38 -149 -7 14 26 130 94 140 83 1 -2 7 4 12 12 9 13 11 13&#xA;20 0 8 -13 11 -12 24 5 11 14 15 16 16 6 0 -12 3 -11 18 1 9 9 29 15 45 13 15&#xA;-2 27 1 27 6 0 5 6 9 13 9 6 0 -13 -23 -43 -50z"/>
    <path d="M1530 1539 c0 -5 5 -7 10 -4 6 3 10 8 10 11 0 2 -4 4 -10 4 -5 0 -10&#xA;-5 -10 -11z"/>
    <path d="M3389 2079 l-24 -20 30 17 c39 24 40 24 28 24 -6 0 -21 -9 -34 -21z"/>
    <path d="M3309 2033 c-13 -16 -12 -17 4 -4 9 7 17 15 17 17 0 8 -8 3 -21 -13z"/>
    <path d="M2850 2018 c0 -9 5 -20 10 -23 13 -8 13 5 0 25 -8 13 -10 13 -10 -2z"/>
    <path d="M3232 1994 c-29 -18 -55 -34 -58 -34 -3 0 -22 -16 -42 -35 -20 -19&#xA;-40 -35 -44 -35 -5 0 -8 -5 -8 -11 0 -6 8 -9 18 -7 9 2 16 8 15 13 -2 13 18&#xA;25 30 18 5 -3 -4 -19 -20 -35 l-28 -29 28 10 c17 7 27 7 27 1 0 -6 -5 -10 -12&#xA;-10 -6 0 -8 -3 -5 -6 4 -4 13 -1 22 6 12 10 13 16 4 27 -9 10 -9 12 3 8 16 -6&#xA;101 28 92 38 -8 7 -35 -3 -52 -20 -18 -17 -32 -17 -32 2 0 9 6 12 15 9 8 -4&#xA;15 -1 15 6 0 8 -9 11 -26 7 -24 -4 -22 -1 17 34 24 21 50 36 57 34 7 -3 10 0&#xA;7 5 -3 6 0 10 8 10 8 0 17 7 21 15 7 19 11 20 -52 -21z"/>
    <path d="M3093 1948 c-27 -28 -29 -37 -8 -34 22 3 37 22 33 41 -3 14 -6 13&#xA;-25 -7z"/>
    <path d="M3262 1860 c0 -14 2 -19 5 -12 2 6 2 18 0 25 -3 6 -5 1 -5 -13z"/>
    <path d="M2911 1604 c0 -11 3 -14 6 -6 3 7 2 16 -1 19 -3 4 -6 -2 -5 -13z"/>
    <path d="M2392 1535 c23 -30 48 -55 55 -55 6 0 20 -3 30 -6 10 -4 -11 21 -47&#xA;54 -36 34 -69 61 -73 62 -5 0 11 -25 35 -55z"/>
    <path d="M2852 1560 c-18 -17 -29 -30 -25 -30 5 0 20 11 35 24 14 14 29 22 34&#xA;18 4 -4 4 -1 0 6 -9 15 -5 17 -44 -18z"/>
    <path d="M2151 1537 c-13 -21 -12 -21 5 -5 10 10 16 20 13 22 -3 3 -11 -5 -18&#xA;-17z"/>
    <path d="M2731 1508 c1 -18 2 -19 6 -5 2 9 9 14 15 11 7 -4 8 -2 4 4 -12 20&#xA;-26 13 -25 -10z"/>
    <path d="M2195 1509 c-4 -6 -13 -8 -19 -6 -7 3 -18 2 -25 -3 -9 -5 -7 -9 6&#xA;-12 11 -3 30 3 42 13 13 11 18 19 13 19 -6 0 -14 -5 -17 -11z"/>
    <path d="M2290 1516 c0 -13 51 -102 88 -153 27 -37 27 -41 5 -66 -18 -20 -18&#xA;-20 10 -2 29 18 34 30 17 40 -16 10 -50 82 -50 105 0 12 -6 27 -13 33 -37 34&#xA;-57 49 -57 43z"/>
    <path d="M2831 1496 c-6 -14 -13 -26 -17 -26 -3 0 -4 7 0 15 3 8 1 15 -4 15&#xA;-6 0 -10 -9 -10 -20 0 -11 4 -20 10 -20 13 0 44 49 37 57 -4 3 -11 -6 -16 -21z"/>
    <path d="M2759 1493 c-13 -16 -12 -17 4 -4 16 13 21 21 13 21 -2 0 -10 -8 -17&#xA;-17z"/>
    <path d="M2137 1473 c-4 -6 0 -13 8 -17 8 -3 17 0 21 6 4 6 3 8 -4 4 -5 -3&#xA;-12 -1 -14 6 -3 8 -6 9 -11 1z"/>
    <path d="M2166 1442 l-19 -27 24 22 c12 12 21 24 18 27 -2 2 -13 -8 -23 -22z"/>
    <path d="M2495 1450 c3 -5 8 -10 11 -10 2 0 4 5 4 10 0 6 -5 10 -11 10 -5 0&#xA;-7 -4 -4 -10z"/>
    <path d="M2767 1446 c-4 -10 -1 -13 9 -9 7 3 14 9 14 14 0 14 -17 10 -23 -5z"/>
    <path d="M2205 1420 c-4 -6 -9 -8 -13 -6 -10 6 -37 -16 -40 -34 -1 -8 7 -4 18&#xA;10 14 18 20 20 20 10 0 -9 -5 -21 -11 -27 -9 -9 -7 -10 10 -6 17 4 21 1 22&#xA;-18 1 -13 1 -27 0 -31 0 -4 5 -5 13 -2 8 3 17 0 21 -6 8 -13 35 5 35 23 0 7&#xA;-4 7 -12 -1 -15 -15 -32 -16 -23 -2 3 6 -1 10 -9 10 -9 0 -16 4 -16 9 0 5 9 7&#xA;19 4 13 -3 23 2 30 16 7 12 10 21 9 22 -27 7 -39 5 -35 -5 6 -15 -30 -19 -39&#xA;-4 -5 8 -1 9 12 5 18 -7 18 -6 2 6 -13 11 -15 16 -6 25 7 7 9 12 6 12 -4 0&#xA;-10 -5 -13 -10z"/>
    <path d="M2280 1419 c0 -5 5 -7 10 -4 6 3 10 8 10 11 0 2 -4 4 -10 4 -5 0 -10&#xA;-5 -10 -11z"/>
    <path d="M2735 1380 c-3 -5 -1 -10 4 -10 6 0 11 5 11 10 0 6 -2 10 -4 10 -3 0&#xA;-8 -4 -11 -10z"/>
    <path d="M2185 1316 c-33 -38 -34 -42 -15 -42 11 0 17 2 15 4 -2 3 0 13 6 24&#xA;12 23 9 31 -6 14z"/>
    <path d="M1236 1280 c10 -8 92 -25 84 -16 -3 2 -25 9 -49 15 -24 5 -39 6 -35&#xA;1z"/>
    <path d="M2238 1283 c7 -3 16 -2 19 1 4 3 -2 6 -13 5 -11 0 -14 -3 -6 -6z"/>
    <path d="M2264 1248 l-19 -23 25 20 c14 11 27 21 29 22 2 2 0 3 -6 3 -5 0 -18&#xA;-10 -29 -22z"/>
    <path d="M2196 1224 c-5 -14 -4 -15 9 -4 17 14 19 20 6 20 -5 0 -12 -7 -15&#xA;-16z"/>
    <path d="M3555 1190 c-3 -5 -1 -10 4 -10 6 0 11 5 11 10 0 6 -2 10 -4 10 -3 0&#xA;-8 -4 -11 -10z"/>
    <path d="M2310 1165 c0 -8 4 -15 10 -15 5 0 7 7 4 15 -4 8 -8 15 -10 15 -2 0&#xA;-4 -7 -4 -15z"/>
    <path d="M2560 1168 c0 -8 10 -23 22 -34 l21 -19 -18 30 c-26 41 -25 40 -25&#xA;23z"/>
    <path d="M2389 1153 c-1 -5 -1 -11 0 -15 0 -5 -3 -8 -9 -8 -5 0 -10 -7 -10&#xA;-16 0 -10 7 -7 25 12 14 15 25 29 25 30 0 8 -30 4 -31 -3z"/>
    <path d="M1882 1118 c-7 -7 -12 -16 -12 -21 0 -5 7 -1 16 8 9 9 14 18 12 20&#xA;-2 3 -10 -1 -16 -7z"/>
    <path d="M1920 1126 c0 -2 7 -7 16 -10 8 -3 12 -2 9 4 -6 10 -25 14 -25 6z"/>
    <path d="M1811 1097 c-13 -21 -12 -21 5 -5 10 10 16 20 13 22 -3 3 -11 -5 -18&#xA;-17z"/>
    <path d="M1665 1100 c-3 -5 -2 -10 4 -10 5 0 13 5 16 10 3 6 2 10 -4 10 -5 0&#xA;-13 -4 -16 -10z"/>
    <path d="M1840 1089 c0 -5 5 -7 10 -4 6 3 10 8 10 11 0 2 -4 4 -10 4 -5 0 -10&#xA;-5 -10 -11z"/>
    <path d="M1940 1090 c0 -5 1 -12 3 -14 1 -2 -6 -13 -17 -24 -18 -20 -18 -21 2&#xA;-19 11 0 19 4 16 8 -2 4 0 19 6 33 6 17 6 26 0 26 -6 0 -10 -4 -10 -10z"/>
    <path d="M2269 1083 c-13 -16 -12 -17 4 -4 16 13 21 21 13 21 -2 0 -10 -8 -17&#xA;-17z"/>
    <path d="M2035 1069 c-4 -6 -5 -12 -2 -15 2 -3 7 2 10 11 7 17 1 20 -8 4z"/>
    <path d="M2156 972 c-3 -5 1 -9 9 -9 8 0 12 4 9 9 -3 4 -7 8 -9 8 -2 0 -6 -4&#xA;-9 -8z"/>
    <path d="M2330 894 c0 -8 5 -12 10 -9 6 4 8 11 5 16 -9 14 -15 11 -15 -7z"/>
    <path d="M2300 880 c-8 -5 -12 -11 -9 -14 2 -3 11 -1 19 4 8 5 12 11 9 14 -2&#xA;3 -11 1 -19 -4z"/>
    <path d="M1514 3198 c-4 -5 -3 -12 0 -15 3 -4 6 -1 6 6 0 7 4 10 9 6 5 -3 12&#xA;-2 15 3 3 5 -2 9 -10 9 -8 0 -17 -4 -20 -9z"/>
    <path d="M1985 3180 c-3 -5 -1 -10 4 -10 6 0 11 5 11 10 0 6 -2 10 -4 10 -3 0&#xA;-8 -4 -11 -10z"/>
    <path d="M2202 3093 c13 -3 15 -9 9 -27 -8 -18 -5 -22 14 -24 19 -1 21 2 17&#xA;25 -4 19 -2 24 8 18 8 -5 11 -4 7 2 -4 5 -21 10 -39 10 -18 0 -25 -2 -16 -4z"/>
    <path d="M2170 3050 c0 -5 5 -10 11 -10 5 0 7 5 4 10 -3 6 -8 10 -11 10 -2 0&#xA;-4 -4 -4 -10z"/>
    <path d="M2379 2983 c-13 -16 -12 -17 4 -4 9 7 17 15 17 17 0 8 -8 3 -21 -13z"/>
    <path d="M2310 2967 c-12 -21 -12 -21 6 -7 10 8 20 15 22 16 2 1 -1 4 -5 7 -5&#xA;3 -15 -4 -23 -16z"/>
    <path d="M2440 2981 c-8 -6 -18 -7 -23 -4 -5 3 -13 0 -18 -8 -4 -7 -20 -14&#xA;-36 -15 -37 -2 -37 -2 -23 -19 11 -13 14 -13 27 2 8 10 12 12 8 6 -3 -7 -1&#xA;-13 5 -13 6 0 13 7 16 15 4 8 15 15 26 15 10 0 16 -4 13 -10 -3 -5 -2 -10 3&#xA;-10 5 0 12 11 14 25 3 14 5 25 4 25 0 0 -8 -4 -16 -9z"/>
    <path d="M2526 2865 c-18 -15 -23 -25 -14 -25 8 0 25 -10 38 -22 20 -18 23&#xA;-19 17 -4 -4 10 -7 20 -7 22 0 2 -7 4 -16 4 -15 0 -15 2 0 25 21 31 18 31 -18&#xA;0z"/>
    <path d="M2500 2815 c-11 -13 -10 -14 4 -9 9 3 16 10 16 15 0 13 -6 11 -20 -6z"/>
    <path d="M2596 2818 c3 -4 0 -8 -5 -8 -6 0 -11 -5 -11 -10 0 -7 6 -7 20 0 23&#xA;13 26 27 5 27 -8 0 -12 -4 -9 -9z"/>
    <path d="M2667 2748 c-2 -7 -2 -21 1 -31 4 -16 6 -16 19 3 8 12 12 24 9 27 -3&#xA;4 -6 1 -6 -5 0 -7 -4 -12 -10 -12 -5 0 -7 7 -4 15 4 8 4 15 1 15 -3 0 -7 -6&#xA;-10 -12z"/>
    <path d="M2633 2685 c1 -12 10 -20 22 -20 11 0 19 -6 18 -12 -4 -18 14 -16 21&#xA;2 3 8 0 15 -6 15 -6 0 -17 8 -25 18 -8 9 -12 11 -8 5 3 -7 2 -13 -4 -13 -5 0&#xA;-12 6 -15 13 -3 6 -5 3 -3 -8z"/>
    <path d="M3284 2285 c-38 -36 -45 -48 -35 -58 10 -10 11 -9 6 6 -7 16 2 22 32&#xA;18 6 -1 14 3 18 9 4 6 -1 7 -12 4 -16 -5 -16 -4 -3 8 23 20 54 58 48 58 -3 0&#xA;-27 -20 -54 -45z"/>
    <path d="M3205 2220 c-10 -11 -14 -20 -9 -20 5 0 15 9 22 20 7 11 11 20 9 20&#xA;-2 0 -12 -9 -22 -20z"/>
    <path d="M3150 2210 c-13 -11 -18 -20 -12 -20 10 0 42 27 42 36 0 8 -7 4 -30&#xA;-16z"/>
    <path d="M3279 2213 c-13 -17 -13 -17 6 -3 11 8 22 16 24 17 2 2 0 3 -6 3 -6&#xA;0 -17 -8 -24 -17z"/>
    <path d="M3195 2170 c-3 -6 1 -7 9 -4 18 7 21 14 7 14 -6 0 -13 -4 -16 -10z"/>
    <path d="M3143 2125 c-28 -20 -31 -24 -18 -35 9 -7 17 -11 19 -9 6 7 37 69 34&#xA;68 -2 0 -18 -11 -35 -24z"/>
    <path d="M3137 1746 c-3 -8 -2 -18 3 -21 13 -8 24 15 12 27 -6 6 -11 4 -15 -6z"/>
    <path d="M3360 1671 c0 -5 9 -11 20 -14 24 -6 27 8 4 17 -21 8 -24 8 -24 -3z"/>
    <path d="M3457 1529 c7 -7 15 -10 18 -7 3 3 -2 9 -12 12 -14 6 -15 5 -6 -5z"/>
    <path d="M3200 1526 c0 -2 7 -7 16 -10 8 -3 12 -2 9 4 -6 10 -25 14 -25 6z"/>
    <path d="M3281 1466 c2 -2 14 -9 26 -15 19 -10 22 -9 17 4 -4 8 -15 15 -27 15&#xA;-11 0 -18 -2 -16 -4z"/>
    <path d="M3195 1400 c-3 -5 1 -10 10 -10 9 0 13 5 10 10 -3 6 -8 10 -10 10 -2&#xA;0 -7 -4 -10 -10z"/>
    <path d="M3210 1360 c0 -5 5 -10 11 -10 5 0 7 5 4 10 -3 6 -8 10 -11 10 -2 0&#xA;-4 -4 -4 -10z"/>
    <path d="M3295 1330 c4 -6 11 -8 16 -5 14 9 11 15 -7 15 -8 0 -12 -5 -9 -10z"/>
    <path d="M3326 1307 c3 -10 9 -15 12 -12 3 3 0 11 -7 18 -10 9 -11 8 -5 -6z"/>
    <path d="M1265 901 c5 -9 1 -19 -10 -28 -11 -7 -14 -13 -8 -13 6 0 16 7 23 15&#xA;11 13 11 18 0 28 -10 10 -11 9 -5 -2z"/>
    <path d="M1226 823 c-6 -14 -5 -15 5 -6 7 7 10 15 7 18 -3 3 -9 -2 -12 -12z"/>
    <path d="M1111 838 c-1 -10 6 -18 14 -18 8 0 15 5 15 11 0 5 -4 8 -9 5 -5 -4&#xA;-12 0 -14 6 -3 8 -6 6 -6 -4z"/>
    <path d="M1096 802 c-3 -5 1 -9 9 -9 8 0 12 4 9 9 -3 4 -7 8 -9 8 -2 0 -6 -4&#xA;-9 -8z"/>
    <path d="M4030 3987 c0 -8 -90 -903 -200 -1990 -110 -1086 -200 -1980 -200&#xA;-1986 0 -13 4323 -11 4336 1 4 4 98 902 210 1995 112 1094 204 1989 204 1991&#xA;0 1 -979 2 -2175 2 -1818 0 -2175 -2 -2175 -13z m4293 -24 c3 -5 -84 -883&#xA;-194 -1953 -109 -1070 -199 -1948 -199 -1952 0 -5 -43 -8 -96 -8 -71 0 -100 4&#xA;-108 14 -167 213 -324 393 -476 548 -104 106 -190 194 -190 196 0 5 -130 133&#xA;-247 245 -57 53 -103 102 -103 108 0 7 -11 27 -25 45 -14 18 -25 35 -25 37 0&#xA;3 21 19 48 35 90 57 173 138 287 279 1 2 8 -9 15 -25 82 -161 296 -371 411&#xA;-402 53 -15 129 11 162 53 83 109 75 305 -21 539 -32 80 -35 92 -22 111 44 70&#xA;95 168 120 231 55 137 84 355 57 431 -27 76 -114 106 -202 70 -129 -55 -350&#xA;-253 -460 -414 l-49 -72 -19 38 c-10 21 -50 90 -87 153 -57 96 -70 125 -75&#xA;175 -6 57 -28 173 -59 315 -31 144 -115 331 -214 479 -164 244 -448 450 -714&#xA;515 -242 59 -475 16 -555 -103 -28 -42 -25 -54 42 -191 45 -90 88 -206 110&#xA;-301 7 -26 5 -27 -62 -38 -37 -7 -93 -20 -123 -30 l-55 -18 -28 33 c-37 44&#xA;-82 56 -148 39 -70 -19 -124 -57 -160 -112 -41 -66 -37 -101 7 -52 10 12 50&#xA;37 89 55 54 27 82 34 127 34 65 0 74 -11 26 -30 -95 -38 -286 -191 -335 -268&#xA;-10 -15 -34 -47 -54 -72 -95 -116 -130 -267 -94 -403 8 -32 15 -60 15 -62 0&#xA;-2 -15 -7 -32 -10 -84 -18 -183 -90 -234 -171 -85 -133 -83 -310 6 -490 51&#xA;-104 180 -243 314 -338 l95 -67 -16 -42 c-10 -27 -16 -76 -17 -137 0 -82 3&#xA;-103 25 -150 55 -118 137 -180 250 -188 63 -4 75 -2 133 27 116 57 176 147&#xA;176 262 0 40 1 41 28 36 156 -31 433 -32 602 -2 47 8 88 15 91 15 4 0 9 -14&#xA;13 -31 18 -89 98 -201 176 -243 47 -25 60 -28 116 -23 87 7 165 46 236 119&#xA;l56 58 33 -42 c79 -103 154 -188 165 -188 7 0 54 -57 105 -127 51 -70 154&#xA;-199 227 -288 l134 -160 -668 -6 c-368 -3 -1188 -7 -1822 -8 l-1153 -1 6 68&#xA;c4 37 93 918 199 1957 l191 1890 1845 5 c1015 3 1970 6 2122 8 152 1 279 -1&#xA;281 -5z m-2520 -313 c-3 -12 -8 -19 -11 -16 -5 6 5 36 12 36 2 0 2 -9 -1 -20z&#xA;m-290 -507 c-7 -2 -19 -2 -25 0 -7 3 -2 5 12 5 14 0 19 -2 13 -5z m39 -70 l3&#xA;-28 81 3 c75 4 87 1 158 -31 54 -26 91 -52 129 -91 29 -31 56 -56 59 -56 20 0&#xA;-29 118 -65 158 -28 30 -11 28 93 -11 l85 -32 67 -90 c150 -201 238 -440 238&#xA;-647 0 -27 4 -48 9 -48 5 0 12 -8 14 -17 2 -10 3 -3 1 15 -2 23 1 30 9 25 7&#xA;-4 5 2 -3 12 -9 11 -10 16 -2 11 6 -4 12 -3 12 3 0 5 -4 12 -9 16 -10 6 -11&#xA;13 -14 87 -1 25 -5 44 -8 42 -4 -2 -9 15 -12 39 -14 103 -81 262 -165 395 -26&#xA;41 -46 79 -44 84 1 5 -1 7 -6 4 -5 -3 -19 9 -33 27 l-23 32 24 -16 c14 -8 42&#xA;-25 63 -38 21 -13 34 -27 30 -33 -4 -7 1 -9 14 -6 23 6 56 -9 48 -22 -3 -5 0&#xA;-12 6 -16 8 -4 9 -3 5 4 -11 18 10 14 25 -5 8 -9 13 -24 11 -35 -2 -10 1 -18&#xA;6 -18 5 0 14 -11 20 -25 13 -28 32 -34 32 -9 0 8 -4 12 -10 9 -5 -3 -10 -1&#xA;-10 4 0 6 5 11 11 11 5 0 7 6 3 13 -4 6 2 3 13 -8 11 -11 19 -23 16 -27 -2 -5&#xA;4 -8 14 -8 29 0 98 -148 127 -275 16 -68 19 -155 5 -155 -5 0 -9 -13 -9 -30 0&#xA;-20 5 -30 15 -30 8 0 15 -8 15 -17 0 -15 -2 -16 -10 -3 -8 12 -9 9 -8 -11 2&#xA;-23 5 -25 20 -15 19 12 24 52 8 76 -8 13 -10 12 -10 -2 0 -10 -5 -18 -11 -18&#xA;-7 0 -5 9 4 24 30 45 7 186 -57 344 l-25 63 28 -24 c101 -85 241 -269 361&#xA;-475 63 -110 130 -253 130 -280 0 -5 7 -25 15 -43 l14 -34 -5 50 c-3 28 -10&#xA;62 -14 78 -5 15 -5 27 -1 27 5 0 12 -17 17 -37 16 -79 23 -93 46 -93 17 0 18&#xA;-2 8 -15 -11 -13 -10 -14 4 -9 9 3 16 9 16 13 0 4 8 7 18 8 62 6 78 9 90 20&#xA;16 16 29 16 37 3 3 -5 -1 -10 -9 -10 -9 0 -16 -5 -16 -10 0 -7 6 -7 20 0 11 6&#xA;20 9 20 6 0 -2 3 -13 7 -23 6 -15 4 -16 -9 -5 -12 10 -23 9 -58 -3 -48 -17&#xA;-62 -19 -41 -6 9 6 4 8 -17 7 -17 -1 -34 -5 -39 -10 -5 -5 -1 -7 9 -3 10 3 20&#xA;1 24 -5 5 -8 -6 -9 -37 -5 -40 5 -42 4 -25 -9 11 -8 22 -14 26 -14 3 0 10 -8&#xA;16 -18 10 -15 8 -18 -7 -18 -11 0 -18 6 -16 15 1 9 -6 17 -16 19 -16 3 -18 -1&#xA;-13 -33 4 -20 11 -45 16 -56 14 -25 -3 -58 -29 -56 -11 0 -17 5 -14 11 4 5 -1&#xA;7 -10 3 -14 -5 -15 -2 -6 20 5 14 7 29 3 32 -7 7 -5 9 -72 -104 -54 -92 -186&#xA;-232 -276 -291 -56 -37 -60 -38 -70 -20 -13 22 -98 137 -185 249 -34 43 -61&#xA;84 -61 91 0 7 10 24 21 37 29 33 71 100 66 105 -2 2 -16 -14 -31 -36 -15 -22&#xA;-31 -38 -36 -35 -5 3 -7 0 -5 -7 3 -8 -6 -25 -20 -38 -22 -20 -25 -21 -19 -6&#xA;6 15 4 18 -8 14 -8 -4 -15 -1 -15 7 0 7 6 11 13 8 8 -3 12 3 11 16 -1 21 -17&#xA;31 -17 11 0 -5 -7 -10 -16 -10 -14 0 -14 1 0 16 22 21 20 27 -4 14 -24 -13&#xA;-41 -5 -33 15 3 10 -2 15 -16 15 -27 0 -27 17 -1 25 11 3 20 11 20 16 0 5 4 9&#xA;10 9 5 0 7 -8 4 -17 -5 -15 -3 -15 10 1 19 24 21 37 4 33 -7 -1 -12 3 -11 8 1&#xA;6 4 33 8 60 8 68 9 74 29 123 10 23 23 42 29 42 8 0 8 -3 0 -11 -13 -13 -6&#xA;-39 9 -39 5 0 6 4 3 10 -3 6 1 7 9 4 20 -8 20 -23 1 -30 -8 -4 -13 -9 -10 -13&#xA;2 -4 -3 -20 -11 -35 -17 -33 -17 -36 -4 -36 5 0 15 18 21 40 11 37 14 39 29&#xA;25 19 -18 30 -19 30 -4 0 5 -4 8 -9 5 -5 -3 -11 3 -14 14 -3 11 -1 23 4 26 5&#xA;3 8 18 7 32 -1 15 1 33 5 39 4 6 3 15 -3 18 -6 4 -10 3 -9 -2 4 -21 -2 -33&#xA;-16 -33 -9 0 -12 6 -9 15 4 8 1 15 -5 15 -6 0 -11 -4 -11 -10 0 -5 -4 -10 -10&#xA;-10 -5 0 -7 7 -4 15 4 8 12 15 19 15 7 0 18 7 25 15 11 13 8 15 -13 13 -21 -2&#xA;-31 -12 -48 -53 -23 -54 -146 -262 -160 -271 -5 -3 -9 -11 -9 -17 0 -7 7 -4&#xA;14 6 10 13 19 15 37 9 l23 -9 -22 -12 c-19 -10 -21 -9 -15 6 6 17 5 17 -14 1&#xA;-11 -10 -25 -18 -31 -18 -12 0 -14 -11 -14 -59 -1 -14 -11 -35 -24 -48 -13&#xA;-13 -24 -32 -24 -42 0 -10 -11 -63 -24 -117 -38 -154 -49 -239 -50 -372 l-1&#xA;-122 -35 -10 c-124 -32 -416 -39 -600 -15 -172 23 -413 96 -561 170 -181 91&#xA;-380 277 -449 418 -66 138 -77 282 -27 390 44 96 116 160 217 193 l53 17 30&#xA;-34 c44 -49 87 -79 115 -79 19 0 23 -4 17 -17 -32 -78 -29 -131 10 -199 32&#xA;-55 79 -95 148 -124 31 -14 57 -31 57 -38 0 -7 13 -42 29 -77 40 -87 115 -165&#xA;193 -200 54 -24 70 -27 137 -23 154 9 275 102 367 283 28 55 57 124 64 153 15&#xA;58 22 61 90 37 50 -18 50 -18 50 -5 0 5 -19 19 -42 31 -58 30 -169 37 -222 15&#xA;-52 -22 -41 -29 22 -15 97 20 89 4 -28 -54 -162 -80 -254 -101 -445 -101 -126&#xA;0 -161 3 -220 22 -124 38 -185 105 -188 206 -2 101 55 143 181 133 63 -5 82&#xA;-11 119 -37 24 -18 47 -29 50 -26 9 9 -33 51 -72 72 l-33 18 33 39 c74 86 110&#xA;198 110 337 -1 94 -4 111 -28 162 -61 124 -189 185 -315 148 -30 -8 -32 -7&#xA;-20 7 27 34 175 137 233 163 134 60 311 108 407 109 44 1 47 -1 50 -26z m832&#xA;-261 c3 -5 -1 -9 -9 -9 -8 0 -12 4 -9 9 3 4 7 8 9 8 2 0 6 -4 9 -8z m-1338&#xA;-31 c115 -52 176 -207 144 -366 -14 -70 -79 -212 -110 -240 -16 -14 -43 -21&#xA;-100 -26 -55 -5 -90 -14 -115 -29 -22 -14 -44 -20 -58 -16 -70 18 -149 141&#xA;-161 251 -14 127 39 272 130 361 82 80 183 104 270 65z m2562 -247 c12 -4 22&#xA;-10 22 -14 0 -10 -49 0 -56 11 -6 10 2 11 34 3z m-75 -35 c-8 -8 -16 -8 -30 0&#xA;-16 9 -14 10 12 11 21 0 26 -3 18 -11z m15 -23 c13 -3 27 -8 30 -12 4 -4 -1&#xA;-4 -11 -1 -11 4 -16 3 -12 -3 9 -14 46 -12 77 4 l27 14 -2 -36 c-2 -30 -6 -38&#xA;-24 -40 -23 -3 -31 12 -13 23 6 4 8 11 4 16 -4 6 -10 6 -18 0 -7 -6 -15 -8&#xA;-19 -5 -3 3 -29 -10 -59 -30 -29 -20 -58 -36 -65 -36 -7 0 -17 -9 -23 -20 -8&#xA;-15 -8 -20 1 -20 7 0 9 -3 6 -7 -4 -3 -2 -12 3 -18 7 -9 5 -17 -7 -26 -16 -13&#xA;-17 -12 -4 3 11 15 11 19 -2 24 -19 7 -60 -14 -52 -27 4 -5 11 -6 17 -3 7 5 8&#xA;2 3 -5 -5 -9 -10 -10 -18 -2 -8 8 -16 6 -31 -7 -14 -12 -17 -13 -11 -2 5 8 17&#xA;21 27 28 10 7 16 17 13 22 -7 12 51 67 79 76 28 9 60 36 64 53 3 12 0 12 -12&#xA;1 -11 -9 -16 -9 -16 -1 0 8 -5 9 -19 1 -25 -13 -34 -13 -26 0 9 15 -27 7 -54&#xA;-13 -14 -9 -27 -14 -30 -11 -9 9 53 54 67 49 7 -3 11 -1 7 4 -3 5 1 12 7 15&#xA;12 5 30 3 96 -8z m135 -33 c4 -18 3 -33 -1 -33 -4 0 -9 17 -10 37 -3 44 3 42&#xA;11 -4z m-249 -47 c-10 -8 -21 -12 -24 -10 -5 6 21 24 34 24 6 0 1 -6 -10 -14z&#xA;m-104 0 c0 -2 -8 -10 -17 -17 -16 -13 -17 -12 -4 4 13 16 21 21 21 13z m360&#xA;-16 c0 -11 -5 -20 -11 -20 -6 0 -9 7 -6 14 4 11 1 13 -10 9 -11 -4 -14 -2 -9&#xA;5 12 19 36 14 36 -8z m-370 -31 c-19 -17 -34 -35 -32 -40 1 -6 -1 -8 -6 -5 -4&#xA;2 -13 -8 -20 -24 -7 -15 -23 -30 -35 -34 -18 -4 -17 -2 8 19 19 15 25 24 15&#xA;25 -16 0 22 40 70 73 38 27 39 19 0 -14z m335 11 c3 -5 1 -10 -4 -10 -6 0 -11&#xA;5 -11 10 0 6 2 10 4 10 3 0 8 -4 11 -10z m-187 -25 c-3 -3 -9 2 -12 12 -6 14&#xA;-5 15 5 6 7 -7 10 -15 7 -18z m212 1 c0 -9 -7 -12 -21 -9 -16 4 -17 8 -7 14&#xA;19 13 28 11 28 -5z m-57 -13 c-7 -2 -19 -2 -25 0 -7 3 -2 5 12 5 14 0 19 -2&#xA;13 -5z m-266 -19 c-3 -3 -12 -4 -19 -1 -8 3 -5 6 6 6 11 1 17 -2 13 -5z m323&#xA;-1 c0 -5 -7 -30 -14 -58 l-14 -50 0 43 c0 23 5 42 10 42 6 0 8 7 4 15 -3 8 -1&#xA;15 4 15 6 0 10 -3 10 -7z m-155 -33 c-3 -5 -12 -10 -18 -10 -7 0 -6 4 3 10 19&#xA;12 23 12 15 0z m-345 -23 c0 -2 -10 -12 -22 -23 l-23 -19 19 23 c18 21 26 27&#xA;26 19z m380 -2 c0 -7 -30 -13 -34 -7 -3 4 4 9 15 9 10 1 19 0 19 -2z m-131&#xA;-48 c0 -9 -2 -8 -6 1 -2 6 -10 9 -15 6 -7 -4 -8 -2 -4 5 9 13 26 5 25 -12z&#xA;m-185 -11 c-10 -8 -23 -12 -27 -9 -5 3 2 11 15 17 29 16 38 10 12 -8z m232 8&#xA;c-5 -12 -2 -15 10 -10 15 6 15 4 3 -11 -8 -10 -21 -24 -29 -31 -13 -12 -13&#xA;-13 2 -8 19 5 30 -15 19 -33 -5 -7 -15 -13 -24 -15 -17 -2 -108 -82 -101 -89&#xA;2 -2 -3 -4 -11 -4 -8 0 -15 3 -15 7 0 8 30 39 69 70 17 14 29 31 26 38 -3 10&#xA;0 10 16 1 19 -10 20 -9 9 12 -10 18 -9 24 4 31 9 5 16 14 16 20 0 7 -5 6 -15&#xA;-2 -20 -17 -19 -5 2 20 21 24 27 26 19 4z m114 4 c0 -4 -4 -8 -9 -8 -6 0 -12&#xA;4 -15 8 -3 5 1 9 9 9 8 0 15 -4 15 -9z m-420 -2 c0 -2 -8 -10 -17 -17 -16 -13&#xA;-17 -12 -4 4 13 16 21 21 21 13z m230 -16 c0 -5 -2 -10 -4 -10 -3 0 -8 5 -11&#xA;10 -3 6 -1 10 4 10 6 0 11 -4 11 -10z m241 -33 c-10 -9 -11 -8 -5 6 3 10 9 15&#xA;12 12 3 -3 0 -11 -7 -18z m-411 9 c0 -2 -7 -7 -16 -10 -8 -3 -12 -2 -9 4 6 10&#xA;25 14 25 6z m288 -10 c-7 -8 -15 -12 -17 -11 -5 6 10 25 20 25 5 0 4 -6 -3&#xA;-14z m-93 -6 c4 -6 1 -9 -6 -8 -7 2 -15 -8 -19 -22 -4 -17 -13 -25 -28 -26&#xA;-32 -2 -38 14 -10 25 13 5 30 16 37 25 16 19 18 19 26 6z m164 1 c7 -5 9 -11&#xA;5 -14 -5 -3 -15 1 -22 9 -14 16 -5 18 17 5z m-399 -16 c0 5 5 4 12 -3 9 -9 9&#xA;-15 -1 -24 -10 -11 -11 -9 -5 5 4 12 2 17 -6 15 -7 -2 -15 4 -17 12 -4 13 -3&#xA;13 6 0 6 -8 11 -11 11 -5z m441 -22 c-13 -43 -44 -103 -53 -103 -4 0 -4 8 2&#xA;18 5 9 19 38 30 65 21 51 33 63 21 20z m-356 -1 c-6 -4 -26 -21 -45 -37 l-36&#xA;-30 38 38 c20 20 41 37 45 37 4 0 3 -3 -2 -8z m265 -14 c0 -5 -5 -6 -12 -2 -7&#xA;4 -8 3 -4 -5 9 -14 -33 -52 -51 -46 -8 2 -10 -2 -6 -13 3 -9 3 -14 -2 -10 -4&#xA;4 -15 2 -24 -4 -13 -10 -14 -10 -3 2 19 22 14 32 -9 20 -11 -7 -23 -9 -26 -6&#xA;-3 2 10 11 28 19 19 8 40 21 48 30 7 9 17 14 22 11 5 -3 6 2 3 10 -4 11 0 13&#xA;15 9 12 -3 21 -10 21 -15z m-430 -2 c0 -2 -8 -10 -17 -17 -16 -13 -17 -12 -4&#xA;4 13 16 21 21 21 13z m35 -26 c-5 -16 -3 -19 12 -13 13 4 15 3 7 -6 -6 -6 -18&#xA;-9 -27 -5 -13 5 -14 10 -6 25 13 25 22 24 14 -1z m-718 -4 c0 -8 -6 -12 -14&#xA;-9 -7 3 -10 9 -7 14 8 14 21 11 21 -5z m617 -21 c-4 -8 -10 -13 -15 -10 -4 3&#xA;-6 12 -3 20 4 8 10 13 15 10 4 -3 6 -12 3 -20z m241 15 c-3 -5 -2 -10 4 -10 5&#xA;0 12 6 15 13 4 7 5 6 3 -3 -2 -8 -13 -16 -25 -18 -12 -2 -31 -14 -44 -27 -25&#xA;-27 -48 -32 -48 -12 0 13 40 43 53 39 4 -1 15 4 23 13 17 17 28 20 19 5z m277&#xA;-41 c-8 -22 -29 -50 -46 -62 l-31 -22 23 29 c12 16 22 35 22 42 0 15 30 54 41&#xA;54 4 0 0 -18 -9 -41z m-49 16 c-3 -9 -8 -14 -10 -11 -3 3 -2 9 2 15 9 16 15&#xA;13 8 -4z m-433 1 c0 -2 -7 -6 -15 -10 -8 -3 -15 -1 -15 4 0 6 7 10 15 10 8 0&#xA;15 -2 15 -4z m30 -6 c0 -5 -5 -10 -11 -10 -5 0 -7 5 -4 10 3 6 8 10 11 10 2 0&#xA;4 -4 4 -10z m-27 -35 c-12 -32 -23 -14 -14 23 1 2 5 1 11 -3 5 -3 7 -12 3 -20z&#xA;m77 22 c0 -2 -10 -12 -22 -23 l-23 -19 19 23 c18 21 26 27 26 19z m287 -33 c8&#xA;3 11 1 8 -4 -3 -6 -17 -10 -29 -10 -27 0 -53 25 -36 35 5 3 10 1 10 -4 0 -6 4&#xA;-11 10 -11 5 0 7 8 4 18 -2 9 1 7 7 -6 7 -13 18 -21 26 -18z m-194 14 c-13 -6&#xA;-23 -19 -23 -29 0 -12 -7 -17 -21 -16 -19 1 -18 4 10 29 17 15 37 28 44 27 6&#xA;0 2 -5 -10 -11z m139 -37 c-1 -7 7 -10 23 -7 15 3 23 1 20 -5 -4 -5 -10 -7&#xA;-15 -4 -5 3 -11 1 -15 -5 -7 -12 -26 -14 -24 -2 5 28 -2 35 -17 16 -14 -18&#xA;-15 -18 -4 4 11 23 37 25 32 3z m152 -12 c-10 -11 -19 -28 -19 -37 0 -10 -5&#xA;-16 -12 -15 -7 2 -10 -3 -7 -11 3 -8 0 -17 -7 -22 -8 -4 -10 -3 -5 4 10 16&#xA;-17 15 -32 0 -7 -7 -12 -9 -12 -6 0 4 7 14 16 22 11 12 12 16 2 16 -7 0 10 16&#xA;37 34 59 41 65 43 39 15z m-394 6 c0 -2 -10 -9 -22 -15 -22 -11 -22 -10 -4 4&#xA;21 17 26 19 26 11z m-845 -52 c-4 -56 -34 -85 -49 -48 -3 8 -2 14 2 14 21 -4&#xA;46 2 37 9 -12 9 -16 44 -4 36 5 -3 9 0 9 5 0 6 2 11 4 11 2 0 3 -12 1 -27z&#xA;m1009 1 c4 -9 4 -19 2 -21 -8 -8 -26 8 -26 23 0 19 16 18 24 -2z m51 6 c-3 -5&#xA;-12 -7 -20 -3 -21 7 -19 13 6 13 11 0 18 -4 14 -10z m70 -10 c-3 -5 -13 -10&#xA;-21 -10 -8 0 -12 -4 -9 -10 3 -6 -1 -7 -9 -4 -9 3 -16 1 -16 -6 0 -6 -4 -8&#xA;-10 -5 -5 3 -19 1 -30 -5 -12 -6 -20 -7 -20 -1 0 7 77 40 118 50 2 1 0 -3 -3&#xA;-9z m47 -105 c4 -20 3 -23 -8 -14 -8 6 -12 15 -9 19 3 5 -1 11 -7 13 -8 4 -7&#xA;6 3 6 10 1 19 -9 21 -24z m-32 -5 c6 -11 9 -20 8 -21 -32 -8 -37 -6 -28 11 7&#xA;13 6 20 -3 23 -9 4 -9 6 0 6 7 1 17 -8 23 -19z m-1229 -13 c-7 -7 -14 -8 -21&#xA;-1 -6 6 -2 10 12 11 16 2 18 -1 9 -10z m1009 -18 c0 -4 11 -10 25 -13 14 -4&#xA;25 -10 25 -15 0 -5 9 -7 21 -4 11 3 18 11 15 18 -3 8 4 10 22 7 15 -3 21 -7&#xA;15 -9 -7 -3 -13 -11 -13 -18 0 -9 -8 -11 -22 -7 -14 3 -19 2 -14 -6 6 -11 -6&#xA;-16 -26 -13 -5 0 -8 -4 -8 -10 0 -8 -4 -8 -15 1 -8 6 -20 10 -27 7 -9 -4 -7&#xA;-6 3 -6 9 -1 20 -8 23 -17 3 -8 11 -12 17 -8 7 4 9 3 5 -4 -3 -6 -2 -13 4 -17&#xA;5 -3 9 -16 9 -28 -1 -20 -2 -21 -6 -2 -6 23 -52 69 -61 60 -4 -3 0 -10 8 -15&#xA;8 -6 10 -10 4 -10 -6 0 -21 11 -35 26 -17 18 -19 23 -6 18 10 -3 17 -1 17 5 0&#xA;6 -6 12 -12 13 -7 0 -17 2 -23 3 -5 2 -16 3 -22 4 -9 1 -7 7 5 19 9 11 20 17&#xA;25 15 4 -2 7 0 7 6 0 5 9 9 20 8 11 -1 20 -4 20 -8z m293 -37 l18 -37 -20 25&#xA;c-11 14 -23 21 -27 17 -4 -4 -2 -7 5 -7 8 0 11 -6 7 -16 -4 -9 -1 -23 5 -31 7&#xA;-7 9 -16 6 -20 -4 -3 -14 10 -22 30 -8 21 -18 37 -21 37 -3 0 -2 -4 1 -10 3&#xA;-5 0 -10 -7 -10 -8 0 -15 11 -16 25 -1 17 2 23 12 19 8 -3 17 -1 21 5 11 18&#xA;19 12 38 -27z m-148 -2 c3 -5 -1 -10 -10 -10 -9 0 -13 5 -10 10 3 6 8 10 10&#xA;10 2 0 7 -4 10 -10z m56 -21 c10 -11 22 -18 28 -15 13 8 24 -11 17 -29 -6 -18&#xA;-36 -9 -36 11 0 8 -4 14 -10 14 -5 0 -14 9 -20 20 -14 26 -2 26 21 -1z m-249&#xA;-42 c7 -12 19 -22 27 -22 8 0 16 -6 19 -12 2 -7 -4 -13 -14 -13 -16 0 -16 -2&#xA;2 -22 l19 -22 -30 21 c-50 35 -78 70 -64 78 8 6 10 4 4 -5 -6 -9 -4 -11 5 -5&#xA;10 6 10 11 -3 20 -24 17 -21 28 3 15 11 -6 25 -21 32 -33z m144 -22 c-4 -24&#xA;-16 -30 -16 -7 0 12 4 22 9 22 5 0 8 -7 7 -15z m93 -53 c-13 -5 -11 -22 2 -22&#xA;11 0 38 -29 39 -41 0 -3 -11 -4 -25 -1 -17 3 -25 0 -25 -9 0 -11 -2 -11 -9 0&#xA;-7 10 -4 19 7 28 13 9 13 12 3 13 -8 0 -11 7 -8 20 6 24 -4 32 -23 19 -10 -6&#xA;-11 -9 -2 -9 6 0 12 -4 12 -9 0 -5 -16 -2 -34 7 -19 9 -32 20 -29 25 3 5 10 4&#xA;16 -2 15 -15 24 -14 24 4 0 8 -7 15 -14 15 -8 0 -11 5 -8 10 4 6 22 -1 45 -17&#xA;21 -16 34 -29 29 -31z m115 49 c3 -5 0 -11 -7 -14 -8 -3 -14 1 -14 9 0 16 13&#xA;19 21 5z m-44 -21 c6 -11 15 -18 21 -15 5 4 9 1 9 -5 0 -7 -8 -9 -22 -4 -19 6&#xA;-21 5 -11 -8 13 -15 7 -58 -9 -58 -5 0 -4 8 2 19 7 14 7 22 0 26 -6 4 -8 16&#xA;-4 27 3 12 2 18 -3 15 -5 -4 -10 0 -10 8 0 21 14 18 27 -5z m-1841 -7 c9 -8&#xA;-76 -85 -124 -113 -27 -16 -73 -32 -100 -37 -54 -10 -122 -6 -130 7 -9 14 92&#xA;110 132 127 61 25 200 36 222 16z m1901 -3 c0 -5 -4 -10 -10 -10 -5 0 -10 5&#xA;-10 10 0 6 5 10 10 10 6 0 10 -4 10 -10z m-496 -16 c12 -5 13 -9 3 -19 -9 -9&#xA;-14 -10 -19 -1 -16 23 -10 30 16 20z m239 -19 l17 -24 -30 17 c-31 18 -39 32&#xA;-17 32 6 0 20 -12 30 -25z m238 -15 c6 0 8 4 5 8 -3 5 1 9 9 9 20 0 19 -7 -2&#xA;-24 -10 -8 -13 -12 -6 -9 6 4 15 1 19 -6 4 -7 4 -10 -1 -6 -4 4 -15 3 -25 -2&#xA;-14 -8 -17 -4 -17 23 -1 18 1 26 4 20 3 -7 9 -13 14 -13z m-266 0 c3 -6 -1 -7&#xA;-9 -4 -18 7 -21 14 -7 14 6 0 13 -4 16 -10z m-185 -16 c0 -8 -19 -13 -24 -6&#xA;-3 5 1 9 9 9 8 0 15 -2 15 -3z m88 -49 c-3 -3 -9 2 -12 12 -6 14 -5 15 5 6 7&#xA;-7 10 -15 7 -18z m-1032 -67 c-14 -39 -17 -30 -9 33 6 46 8 50 13 24 3 -16 1&#xA;-42 -4 -57z m1400 73 c-4 -5 0 -12 6 -14 10 -4 9 -8 -2 -16 -13 -9 -12 -11 5&#xA;-12 11 0 14 -3 8 -6 -7 -2 -13 -13 -13 -24 0 -11 -5 -16 -12 -14 -8 3 -13 21&#xA;-12 43 1 49 2 52 15 52 5 0 8 -4 5 -9z m-399 -26 c-15 -16 -19 -13 -11 9 3 9&#xA;10 13 15 10 5 -3 3 -11 -4 -19z m353 -21 c0 -4 -3 -4 -7 -1 -3 4 -13 1 -21 -6&#xA;-13 -10 -15 -9 -9 5 3 10 2 20 -4 23 -5 4 -7 11 -3 16 6 10 44 -22 44 -37z&#xA;m-968 -19 c5 -11 -5 -4 -22 15 -18 19 -30 28 -27 20 2 -8 7 -26 11 -40 l7 -25&#xA;-21 25 c-17 21 -19 21 -14 5 4 -11 12 -26 18 -34 9 -12 8 -12 -10 -1 -11 7&#xA;-21 18 -21 24 0 6 -2 16 -3 21 -5 20 0 36 9 30 5 -3 13 0 16 5 8 13 42 -14 57&#xA;-45z m1075 13 c-3 -7 -5 -2 -5 12 0 14 2 19 5 13 2 -7 2 -19 0 -25z m-437 12&#xA;c0 -5 -5 -10 -11 -10 -5 0 -7 5 -4 10 3 6 8 10 11 10 2 0 4 -4 4 -10z m25 -9&#xA;c3 -5 2 -12 -3 -15 -5 -3 -9 1 -9 9 0 17 3 19 12 6z m86 -1 c22 -12 26 -35 4&#xA;-26 -8 3 -15 1 -15 -5 0 -6 -4 -7 -10 -4 -10 6 -14 45 -4 45 3 0 14 -5 25 -10z&#xA;m89 -10 c0 -5 -2 -10 -4 -10 -3 0 -8 5 -11 10 -3 6 -1 10 4 10 6 0 11 -4 11&#xA;-10z m-160 -75 l35 -40 -43 40 c-23 21 -42 44 -42 49 0 6 3 6 8 1 4 -6 23 -28&#xA;42 -50z m391 -47 l-10 -33 4 40 c2 22 5 54 6 70 2 27 3 26 6 -7 2 -20 -1 -51&#xA;-6 -70z m-1150 55 l34 -38 -38 35 -38 35 5 -28 c3 -16 1 -25 -5 -22 -10 7 -12&#xA;38 -2 48 8 9 5 12 44 -30z m-279 -5 c-8 -8 -9 -4 -5 13 4 13 8 18 11 10 2 -7&#xA;-1 -18 -6 -23z m1405 10 c-3 -8 -6 -5 -6 6 -1 11 2 17 5 13 3 -3 4 -12 1 -19z&#xA;m-111 -65 c-8 -8 -27 8 -21 17 3 5 1 11 -5 15 -6 4 -8 11 -4 16 3 6 12 -2 20&#xA;-17 8 -15 12 -29 10 -31z m-1256 5 c0 -5 11 -26 24 -47 22 -35 23 -38 6 -34&#xA;-11 3 -16 11 -13 19 4 10 -3 14 -23 13 -16 0 -23 -3 -16 -6 6 -2 12 -11 12&#xA;-19 0 -8 7 -14 15 -14 8 0 15 -9 15 -20 0 -11 -4 -20 -10 -20 -5 0 -10 6 -10&#xA;14 0 7 -7 20 -16 27 -15 12 -16 11 -10 -8 13 -42 15 -63 4 -63 -5 0 -8 6 -5&#xA;14 4 11 -1 13 -20 10 -25 -5 -25 -5 -19 48 4 29 8 64 9 77 1 13 8 26 16 29 10&#xA;3 12 0 8 -11 -3 -9 3 -23 16 -34 19 -16 20 -16 8 0 -7 9 -11 17 -7 17 3 0 1&#xA;12 -4 28 -9 25 -9 26 5 8 8 -11 15 -24 15 -28z m1300 13 c0 -17 -12 -41 -21&#xA;-41 -10 0 -12 33 -2 43 9 10 23 9 23 -2z m-235 -31 c10 -11 16 -20 13 -20 -3&#xA;0 -13 9 -23 20 -10 11 -16 20 -13 20 3 0 13 -9 23 -20z m165 6 c0 -3 -4 -8&#xA;-10 -11 -5 -3 -10 -1 -10 4 0 6 5 11 10 11 6 0 10 -2 10 -4z m-45 -27 c-10&#xA;-15 -25 -10 -19 6 4 8 10 12 15 9 5 -3 7 -10 4 -15z m75 -9 c0 -20 -26 -35&#xA;-35 -20 -4 6 -11 10 -16 10 -6 0 -7 -5 -3 -12 5 -7 3 -8 -6 -3 -10 6 -6 14 15&#xA;31 31 25 45 23 45 -6z m-1192 -63 c8 -10 5 -13 -14 -15 -25 -2 -33 13 -11 21&#xA;6 3 13 6 13 6 1 1 6 -5 12 -12z m1199 -13 c-3 -3 -12 -4 -19 -1 -8 3 -5 6 6 6&#xA;11 1 17 -2 13 -5z m-1200 -29 c0 -8 -4 -12 -9 -9 -4 3 -8 9 -8 15 0 5 4 9 8 9&#xA;5 0 9 -7 9 -15z m-130 -27 c-3 -7 -5 -2 -5 12 0 14 2 19 5 13 2 -7 2 -19 0&#xA;-25z m51 -24 c30 -2 32 -4 20 -23 -7 -11 -17 -17 -23 -13 -5 3 -5 -1 2 -9 6&#xA;-8 13 -18 15 -24 1 -5 6 -9 11 -7 4 1 7 -3 7 -9 0 -5 -8 -9 -17 -7 -10 1 -25&#xA;-1 -33 -6 -12 -7 -13 -6 -2 5 13 14 17 43 4 35 -4 -2 -8 19 -9 47 0 29 2 43 6&#xA;32 3 -11 12 -20 19 -21z m574 -31 c40 -38 113 -109 164 -160 l92 -92 -53 -41&#xA;c-30 -23 -66 -58 -81 -78 -16 -21 -30 -30 -32 -23 -2 7 4 21 14 32 32 35 27&#xA;67 -19 112 -22 23 -37 35 -33 27 4 -8 -2 -4 -13 10 -11 14 -21 31 -21 38 0 6&#xA;-4 12 -10 12 -5 0 -10 7 -10 16 0 9 -5 12 -11 8 -7 -4 -10 -1 -7 7 5 13 -38&#xA;59 -54 59 -5 0 -8 7 -8 16 0 8 -4 12 -10 9 -5 -3 -7 0 -4 8 5 15 -20 42 -33&#xA;34 -5 -3 -8 6 -7 20 1 22 32 51 56 53 4 0 40 -30 80 -67z m-368 -9 c5 -14 4&#xA;-15 -9 -4 -17 14 -19 20 -6 20 5 0 12 -7 15 -16z m-1593 -36 c-4 -35 -6 -38&#xA;-9 -15 -3 26 3 57 10 57 2 0 1 -19 -1 -42z m1448 26 c7 5 10 2 9 -6 -2 -7 3&#xA;-12 10 -10 9 2 11 -4 7 -18 -4 -11 0 -29 9 -42 16 -22 16 -22 12 10 -3 26 -1&#xA;30 10 21 8 -6 12 -15 9 -19 -6 -10 39 -75 51 -73 5 1 10 -7 10 -17 0 -10 -5&#xA;-16 -10 -13 -5 4 -7 -1 -3 -11 5 -12 3 -15 -6 -10 -9 5 -9 4 0 -6 10 -11 15&#xA;-11 27 0 9 7 13 17 9 24 -4 6 1 5 10 -3 21 -17 22 -32 2 -25 -8 4 -15 1 -15&#xA;-6 0 -7 8 -10 20 -7 24 6 57 -22 52 -46 -3 -13 -10 -16 -25 -12 -15 4 -18 3&#xA;-9 -3 10 -7 2 -12 -30 -20 -58 -15 -118 1 -155 41 -20 22 -23 28 -10 24 13 -5&#xA;17 -3 14 5 -2 7 -12 12 -21 12 -9 -1 -16 4 -16 12 0 8 6 11 18 7 15 -6 15 -3&#xA;-3 18 -11 13 -22 26 -25 29 -3 3 -6 24 -8 48 -2 36 0 42 17 42 23 0 38 -19 23&#xA;-29 -18 -11 -10 -52 8 -46 11 4 11 2 -2 -8 -13 -11 -15 -16 -6 -25 15 -15 38&#xA;-16 38 -1 0 5 5 7 10 4 6 -3 10 -11 10 -16 0 -6 -3 -8 -7 -6 -5 3 -13 -1 -20&#xA;-8 -10 -10 -9 -15 4 -19 9 -4 13 -9 9 -13 -3 -3 1 -15 11 -25 12 -13 13 -18 3&#xA;-18 -7 0 -11 -3 -8 -6 4 -3 16 0 28 6 12 7 38 12 56 12 19 0 34 5 34 10 0 6&#xA;-17 8 -42 5 -24 -2 -52 -1 -63 3 -16 7 -12 9 17 9 36 1 37 1 27 30 -11 31 -47&#xA;69 -57 61 -4 -3 -11 5 -18 17 -6 13 -13 22 -15 20 -2 -1 1 3 7 8 15 14 -2 75&#xA;-21 75 -8 0 -15 8 -15 18 0 13 2 14 9 3 5 -7 14 -10 20 -7z m61 -10 c0 -8 -5&#xA;-12 -10 -9 -6 4 -8 11 -5 16 9 14 15 11 15 -7z m56 1 c-3 -8 -2 -14 2 -12 4 1&#xA;8 -1 10 -5 1 -5 0 -8 -3 -8 -3 0 -12 0 -20 0 -13 0 -14 4 -5 20 12 23 25 27&#xA;16 5z m64 5 c0 -5 -4 -10 -10 -10 -5 0 -10 5 -10 10 0 6 5 10 10 10 6 0 10 -4&#xA;10 -10z m60 -11 c0 -4 6 -6 13 -4 16 6 28 -3 60 -45 19 -27 23 -39 16 -50 -9&#xA;-13 -10 -12 -5 2 3 11 -7 31 -30 54 l-34 37 -26 -24 c-18 -17 -23 -19 -18 -6&#xA;3 9 11 17 17 17 5 0 2 9 -8 20 -17 18 -17 20 -2 14 9 -3 17 -10 17 -15z m-70&#xA;-24 c0 -8 -2 -15 -4 -15 -2 0 -6 7 -10 15 -3 8 -1 15 4 15 6 0 10 -7 10 -15z&#xA;m-302 -20 c-3 -3 -9 2 -12 12 -6 14 -5 15 5 6 7 -7 10 -15 7 -18z m268 -25 c0&#xA;-12 -4 -16 -9 -11 -5 5 -6 14 -3 20 10 15 12 14 12 -9z m-258 -15 c-3 -3 -9 2&#xA;-12 12 -6 14 -5 15 5 6 7 -7 10 -15 7 -18z m337 15 c3 -5 1 -10 -4 -10 -6 0&#xA;-11 5 -11 10 0 6 2 10 4 10 3 0 8 -4 11 -10z m80 0 c-3 -5 -2 -10 3 -10 5 0&#xA;10 -11 10 -25 0 -19 -4 -23 -13 -15 -10 8 -13 6 -11 -7 0 -11 -5 -17 -13 -15&#xA;-12 3 -12 1 0 -14 12 -16 12 -17 -3 -11 -10 3 -18 2 -18 -4 0 -6 -4 -7 -10 -4&#xA;-6 4 -2 15 10 27 11 12 20 28 20 35 0 7 5 13 11 13 5 0 7 5 4 10 -6 10 1 30&#xA;11 30 3 0 2 -4 -1 -10z m-55 -63 c0 -14 -3 -15 -13 -5 -8 7 -12 21 -9 31 4 15&#xA;7 16 13 5 5 -7 9 -21 9 -31z m199 -11 c-3 -3 -11 5 -18 17 -13 21 -12 21 5 5&#xA;10 -10 16 -20 13 -22z m-237 -20 c6 4 8 3 5 -3 -3 -5 3 -17 14 -26 10 -9 19&#xA;-21 19 -27 0 -6 -20 12 -45 40 -25 28 -45 54 -45 58 0 4 10 -5 21 -21 11 -15&#xA;26 -24 31 -21z m-298 18 c3 -8 2 -12 -4 -9 -6 3 -10 10 -10 16 0 14 7 11 14&#xA;-7z m466 6 c0 -14 -81 -102 -88 -95 -3 2 7 14 22 26 14 11 23 25 20 31 -4 6&#xA;-3 8 3 5 5 -4 16 5 23 18 14 27 20 31 20 15z m101 -47 c13 -16 12 -17 -3 -4&#xA;-10 7 -18 15 -18 17 0 8 8 3 21 -13z m-421 3 c0 -11 -19 -15 -25 -6 -3 5 1 10&#xA;9 10 9 0 16 -2 16 -4z m-85 -46 c21 -22 37 -40 34 -40 -3 0 -23 18 -44 40 -21&#xA;22 -37 40 -34 40 3 0 23 -18 44 -40z m565 -31 c0 -5 5 -7 12 -3 6 4 8 3 5 -3&#xA;-4 -5 5 -20 18 -31 14 -12 25 -27 25 -34 0 -6 -1 -9 -2 -7 -2 2 -21 23 -43 47&#xA;-21 23 -34 42 -27 42 7 0 12 -5 12 -11z m281 -16 c13 -16 12 -17 -3 -4 -10 7&#xA;-18 15 -18 17 0 8 8 3 21 -13z m-611 -8 c-14 -8 -34 -14 -45 -14 -13 0 -7 5&#xA;15 13 47 18 61 18 30 1z m-71 -21 c9 -8 -45 -2 -64 6 -14 7 -8 8 20 3 22 -3&#xA;42 -7 44 -9z m674 -13 c11 -9 27 -28 36 -42 20 -32 104 -130 152 -178 58 -58&#xA;112 -121 107 -126 -7 -7 -200 184 -194 193 3 5 -8 16 -25 26 -16 9 -29 14 -29&#xA;9 0 -8 -26 27 -31 42 -2 6 -12 18 -23 28 -12 10 -15 16 -8 12 10 -5 10 -1 0&#xA;19 -6 14 -18 26 -25 26 -8 0 -11 5 -8 10 7 11 16 7 48 -19z m142 -108 c8 4 17&#xA;2 20 -2 12 -20 -35 -18 -52 2 -16 19 -16 20 -1 8 10 -7 24 -11 33 -8z m101&#xA;-94 c4 -8 0 -7 -15 0 -12 7 -26 9 -31 6 -6 -3 -7 1 -4 9 5 12 11 13 24 6 11&#xA;-6 22 -15 26 -21z m26 -34 c3 3 11 -2 19 -12 12 -15 12 -16 -1 -8 -8 5 -21 10&#xA;-29 12 -8 1 -21 9 -30 19 -15 15 -14 15 10 0 14 -9 28 -14 31 -11z m-94 -51&#xA;c-4 -3 -12 5 -18 18 -12 22 -12 22 6 6 10 -10 15 -20 12 -24z m33 -26 c11 -21&#xA;11 -22 -4 -9 -10 7 -17 17 -17 22 0 15 9 10 21 -13z m45 -56 c-4 -3 -14 2 -24&#xA;12 -16 18 -16 18 6 6 13 -6 21 -14 18 -18z m65 -9 c13 -16 12 -17 -3 -4 -17&#xA;13 -22 21 -14 21 2 0 10 -8 17 -17z m70 -130 c13 -16 12 -17 -3 -4 -10 7 -18&#xA;15 -18 17 0 8 8 3 21 -13z m40 -20 c13 -16 12 -17 -3 -4 -10 7 -18 15 -18 17&#xA;0 8 8 3 21 -13z m25 -38 c-3 -10 1 -15 11 -15 9 0 14 -3 10 -6 -3 -4 0 -13 8&#xA;-21 8 -8 15 -22 15 -30 0 -9 -12 1 -29 23 -24 33 -31 64 -14 64 3 0 3 -7 -1&#xA;-15z"/>
    <path d="M5544 2819 c-115 -39 -206 -132 -255 -258 -31 -79 -38 -248 -14 -323&#xA;21 -62 64 -128 102 -157 16 -11 33 -24 38 -29 28 -22 102 -42 159 -42 72 0&#xA;142 21 238 74 70 38 129 46 182 26 36 -13 32 -4 -6 16 -21 11 -48 15 -84 12&#xA;l-52 -4 29 36 c40 50 80 167 86 255 13 166 -63 308 -200 374 -84 41 -146 47&#xA;-223 20z m179 -39 c72 -27 127 -76 164 -147 29 -54 35 -74 47 -147 7 -41 -18&#xA;-172 -44 -230 -59 -131 -206 -224 -338 -214 -71 5 -119 28 -171 81 -63 63 -84&#xA;116 -89 221 -8 159 34 273 136 367 93 86 189 109 295 69z"/>
    <path d="M5703 2534 c-17 -9 -44 -34 -60 -57 -25 -36 -28 -49 -28 -116 0 -48&#xA;6 -87 15 -106 62 -122 220 -13 220 152 0 63 -21 107 -62 129 -30 17 -46 17&#xA;-85 -2z m105 -66 c17 -17 15 -65 -4 -72 -29 -11 -44 -6 -55 18 -21 45 26 87&#xA;59 54z"/>
    <path d="M6333 2825 c0 -8 4 -12 9 -9 5 3 6 10 3 15 -9 13 -12 11 -12 -6z"/>
    <path d="M6500 2579 c0 -11 4 -18 10 -14 5 3 7 12 3 20 -7 21 -13 19 -13 -6z"/>
    <path d="M6516 2552 c-7 -12 5 -52 16 -52 5 0 5 8 -1 18 -7 13 -6 23 1 30 9 9&#xA;9 12 1 12 -7 0 -14 -4 -17 -8z"/>
    <path d="M6491 2505 c1 -19 18 -51 18 -35 0 8 -4 22 -9 30 -5 8 -9 11 -9 5z"/>
    <path d="M6484 2299 c-3 -6 -2 -15 3 -20 5 -5 9 -1 9 11 0 23 -2 24 -12 9z"/>
    <path d="M6536 2253 c-6 -14 -5 -15 5 -6 7 7 10 15 7 18 -3 3 -9 -2 -12 -12z"/>
    <path d="M6461 2224 c0 -11 3 -14 6 -6 3 7 2 16 -1 19 -3 4 -6 -2 -5 -13z"/>
    <path d="M6598 2183 c7 -3 16 -2 19 1 4 3 -2 6 -13 5 -11 0 -14 -3 -6 -6z"/>
    <path d="M6580 2159 c0 -4 7 -10 16 -13 8 -3 13 -2 9 3 -3 5 1 11 7 14 7 3 3&#xA;4 -9 4 -13 -1 -23 -4 -23 -8z"/>
    <path d="M6575 2130 c-3 -5 -2 -17 3 -27 5 -9 8 -35 6 -57 l-4 -41 14 44 c14&#xA;41 13 46 -2 59 -16 13 -16 13 2 8 16 -6 17 -4 6 9 -15 18 -17 18 -25 5z"/>
    <path d="M6506 2095 c-9 -26 -7 -32 5 -12 6 10 9 21 6 23 -2 3 -7 -2 -11 -11z"/>
    <path d="M6473 1994 c3 -4 2 -16 -4 -28 -9 -19 -9 -19 4 -4 8 10 17 15 21 11&#xA;4 -4 4 0 0 10 -3 9 -11 17 -17 17 -6 0 -7 -3 -4 -6z"/>
    <path d="M6571 1984 c0 -11 3 -14 6 -6 3 7 2 16 -1 19 -3 4 -6 -2 -5 -13z"/>
    <path d="M6348 1895 c2 -14 0 -25 -6 -25 -5 0 -13 -7 -16 -16 -3 -9 -2 -12 5&#xA;-9 5 4 16 2 24 -5 9 -7 15 -8 20 0 3 5 2 10 -3 10 -10 0 -9 36 1 46 9 9 -1 24&#xA;-17 24 -9 0 -12 -9 -8 -25z"/>
    <path d="M6387 1896 c-5 -12 -3 -22 4 -27 6 -4 9 -11 6 -16 -3 -5 6 -9 21 -10&#xA;15 0 19 1 10 4 -10 2 -21 19 -26 36 -7 27 -9 29 -15 13z"/>
    <path d="M6440 1895 c0 -8 -5 -15 -11 -15 -5 0 -7 -5 -4 -11 5 -6 12 -4 21 8&#xA;16 22 18 33 4 33 -5 0 -10 -7 -10 -15z"/>
    <path d="M6524 1892 c3 -5 -4 -25 -14 -45 -25 -46 -17 -49 10 -4 22 36 26 57&#xA;9 57 -5 0 -8 -4 -5 -8z"/>
    <path d="M6491 1864 c0 -11 3 -14 6 -6 3 7 2 16 -1 19 -3 4 -6 -2 -5 -13z"/>
    <path d="M6466 1823 c-6 -14 -5 -15 5 -6 7 7 10 15 7 18 -3 3 -9 -2 -12 -12z"/>
    <path d="M6337 1796 c-15 -23 -13 -36 5 -36 4 0 7 3 6 8 0 4 2 15 7 25 12 28&#xA;-1 30 -18 3z"/>
    <path d="M7067 1771 c-3 -12 0 -21 5 -21 7 0 7 -4 0 -12 -5 -8 -6 -22 -1 -33&#xA;7 -18 8 -18 9 5 1 14 3 32 5 41 5 26 -11 44 -18 20z"/>
    <path d="M5015 2531 c-40 -24 -63 -59 -77 -119 -16 -70 -3 -138 32 -174 34&#xA;-34 66 -36 111 -5 93 61 107 230 24 295 -34 27 -51 27 -90 3z m105 -71 c21&#xA;-39 -15 -85 -46 -59 -14 12 -19 60 -7 72 13 14 43 6 53 -13z"/>
    <path d="M7461 2468 c-1 -20 14 -24 25 -6 4 6 3 8 -4 4 -5 -3 -13 0 -15 6 -3&#xA;8 -6 6 -6 -4z"/>
    <path d="M7395 2320 c-3 -5 -1 -10 4 -10 6 0 11 5 11 10 0 6 -2 10 -4 10 -3 0&#xA;-8 -4 -11 -10z"/>
    <path d="M7204 1729 c-3 -5 6 -9 20 -9 31 0 34 6 6 13 -11 3 -23 1 -26 -4z"/>
    <path d="M7455 1661 c-3 -5 -2 -12 3 -15 5 -3 9 1 9 9 0 17 -3 19 -12 6z"/>
    <path d="M7180 1606 c4 -4 16 -4 26 2 16 9 14 10 -8 9 -15 -1 -23 -6 -18 -11z"/>
    <path d="M5500 1580 c0 -5 4 -10 9 -10 6 0 13 5 16 10 3 6 -1 10 -9 10 -9 0&#xA;-16 -4 -16 -10z"/>
    <path d="M6140 1206 c0 -2 8 -10 18 -17 15 -13 16 -12 3 4 -13 16 -21 21 -21&#xA;13z"/>
    <path d="M6180 1080 c0 -5 5 -10 10 -10 6 0 10 5 10 10 0 6 -4 10 -10 10 -5 0&#xA;-10 -4 -10 -10z"/>
    <path d="M6330 901 c0 -5 3 -17 6 -26 5 -12 9 -14 14 -4 5 7 6 18 3 26 -6 15&#xA;-23 18 -23 4z"/>
    <path d="M8430 3984 c0 -20 -388 -3906 -394 -3952 l-5 -32 1985 0 1984 0 0&#xA;2000 0 2000 -1785 0 c-1639 0 -1785 -1 -1785 -16z m3528 -1981 l-3 -1958&#xA;-1932 -3 -1933 -2 0 27 c0 35 380 3863 386 3881 3 9 360 12 1744 12 l1740 0&#xA;-2 -1957z"/>
    <path d="M9463 3765 c-102 -28 -184 -89 -199 -149 -8 -34 11 -95 56 -178 38&#xA;-72 101 -226 114 -280 5 -23 3 -28 -13 -28 -10 0 -62 -11 -116 -25 l-97 -25&#xA;-21 26 c-62 80 -198 67 -302 -28 -51 -46 -89 -104 -79 -120 3 -4 29 10 59 33&#xA;29 22 77 49 104 60 49 18 151 26 164 12 4 -3 -30 -26 -75 -50 -44 -24 -102&#xA;-59 -127 -77 -74 -55 -234 -233 -276 -308 -52 -94 -69 -231 -41 -338 8 -30 12&#xA;-58 8 -61 -4 -3 -29 -14 -57 -24 -106 -39 -177 -105 -227 -210 -41 -88 -47&#xA;-175 -20 -283 52 -204 182 -374 388 -509 l81 -52 -14 -53 c-21 -79 -21 -193 2&#xA;-258 26 -77 111 -162 185 -184 115 -34 206 -12 291 73 61 61 89 125 89 203 l0&#xA;38 63 -8 c116 -13 525 -7 599 10 l68 16 10 -42 c17 -70 70 -165 113 -202 24&#xA;-19 65 -42 96 -51 139 -40 333 57 417 209 25 47 29 63 29 138 -1 73 -5 94 -30&#xA;149 l-29 64 24 16 c56 36 166 135 227 203 36 40 68 74 71 75 4 1 27 -29 51&#xA;-67 129 -201 314 -360 419 -360 63 0 116 42 151 120 16 36 21 66 21 147 0 121&#xA;-17 199 -72 336 -25 62 -37 105 -32 112 118 153 194 370 194 553 0 104 -22&#xA;162 -69 186 -40 21 -70 20 -133 -5 -142 -56 -330 -217 -457 -391 -35 -49 -65&#xA;-88 -67 -88 -2 0 -16 24 -30 53 -15 28 -51 93 -81 144 -48 83 -55 101 -63 176&#xA;-32 275 -136 564 -286 787 -138 207 -379 392 -610 471 -166 56 -358 74 -471&#xA;44z m239 -31 l44 -6 15 -77 c18 -95 18 -398 1 -458 l-13 -43 -44 7 c-30 4 -60&#xA;0 -87 -10 -24 -8 -64 -15 -89 -15 l-45 0 -30 91 c-16 51 -55 145 -87 210 -76&#xA;154 -77 165 -36 211 38 44 76 65 144 82 55 14 158 17 227 8z m208 -50 c41 -13&#xA;116 -46 165 -72 l90 -48 -2 -40 c-6 -92 -78 -308 -135 -405 l-27 -46 -107 28&#xA;c-59 16 -111 32 -115 36 -4 4 -1 37 7 73 18 88 18 317 -1 417 -8 43 -15 82&#xA;-15 86 0 11 44 1 140 -29z m387 -223 c66 -56 182 -182 203 -222 7 -13 -2 -24&#xA;-43 -52 -29 -20 -92 -77 -141 -126 l-89 -90 -56 28 c-31 16 -77 36 -102 45&#xA;l-46 17 39 75 c44 84 91 214 108 301 20 108 19 104 38 94 9 -5 50 -37 89 -70z&#xA;m256 -299 c14 -21 41 -71 61 -110 l36 -71 -126 -60 -125 -60 -76 50 -76 49 89&#xA;88 c84 83 168 152 184 152 4 0 19 -17 33 -38z m-999 -77 c7 -10 34 -17 77 -20&#xA;123 -8 241 -69 313 -162 33 -43 42 -49 44 -33 4 27 -43 128 -75 163 -15 15&#xA;-25 27 -22 27 3 0 36 -10 75 -23 111 -36 170 -94 274 -267 79 -131 145 -328&#xA;181 -540 14 -81 19 -355 7 -407 -10 -42 2 -42 50 1 47 43 83 108 114 206 20&#xA;65 23 95 23 220 -1 173 -21 265 -89 405 l-44 90 96 -100 c54 -56 124 -140 158&#xA;-187 l61 -86 6 -103 c8 -132 -7 -283 -38 -367 -26 -72 -26 -88 1 -47 34 53 54&#xA;171 54 330 l0 150 30 -47 c57 -91 123 -221 160 -314 34 -86 50 -107 50 -63 0&#xA;25 162 174 265 245 129 88 343 189 361 171 8 -8 -26 -155 -53 -231 -32 -91&#xA;-88 -198 -117 -225 -27 -25 -135 -45 -315 -56 -61 -4 -114 -12 -117 -16 -3 -5&#xA;12 -9 33 -9 54 1 268 17 331 25 45 7 52 5 52 -9 0 -10 16 -56 35 -103 39 -92&#xA;60 -173 70 -270 6 -57 5 -63 -12 -63 -34 0 -217 96 -363 190 -187 119 -173&#xA;106 -154 142 9 16 13 32 10 36 -3 3 -7 3 -9 1 -2 -2 -30 -44 -62 -94 -33 -49&#xA;-95 -127 -139 -173 -88 -92 -213 -190 -225 -176 -4 5 -26 35 -50 66 -66 88&#xA;-231 239 -231 212 0 -3 33 -40 72 -81 93 -95 177 -208 219 -292 25 -52 33 -83&#xA;37 -142 3 -46 0 -79 -6 -83 -24 -14 -162 160 -277 349 -81 134 -99 155 -51 57&#xA;73 -146 177 -298 271 -396 l47 -48 -29 -46 c-27 -44 -123 -132 -143 -132 -18&#xA;0 -100 115 -139 195 -41 83 -89 251 -112 390 -9 52 -15 70 -17 51 -5 -41 25&#xA;-212 54 -309 31 -107 85 -215 140 -282 50 -63 47 -69 -43 -81 -135 -17 -245&#xA;82 -282 254 -24 114 -11 404 30 641 19 116 19 154 0 84 -39 -136 -81 -448 -81&#xA;-600 0 -81 8 -74 -105 -95 -92 -17 -473 -17 -580 1 -246 39 -485 125 -656 236&#xA;-91 58 -232 200 -278 277 -133 227 -128 436 14 567 26 23 70 53 98 66 86 38&#xA;94 39 113 10 21 -32 91 -81 128 -91 36 -9 38 -16 21 -58 -8 -19 -15 -50 -15&#xA;-68 0 -76 77 -170 167 -204 41 -16 48 -24 89 -106 68 -135 137 -200 242 -228&#xA;57 -15 137 0 222 42 129 62 261 232 301 387 11 44 16 51 38 51 13 0 44 -11 68&#xA;-25 31 -19 43 -22 43 -12 0 33 -81 77 -142 77 -43 0 -120 -29 -132 -49 -9 -14&#xA;-6 -14 39 5 20 8 42 13 48 11 18 -7 -189 -104 -258 -121 -159 -41 -335 -47&#xA;-463 -16 -100 24 -151 49 -186 90 -32 39 -40 68 -33 128 4 38 12 53 44 83 70&#xA;65 170 65 273 -2 67 -43 70 -24 3 26 -21 16 -40 30 -42 31 -2 2 13 22 33 44&#xA;20 22 49 65 63 95 l27 55 13 -49 c16 -65 65 -143 113 -181 126 -100 283 -104&#xA;433 -13 63 38 108 45 182 30 29 -6 37 -6 29 2 -5 6 -37 17 -70 23 -32 7 -60&#xA;13 -62 14 -2 1 8 18 22 39 135 199 75 524 -116 621 -104 53 -212 53 -318 -1&#xA;-63 -32 -156 -132 -189 -206 l-27 -60 -13 43 c-37 123 -115 216 -202 242 -61&#xA;18 -110 20 -158 6 l-35 -10 35 36 c52 54 153 117 260 163 174 74 386 113 413&#xA;76z m645 -146 c231 -126 295 -204 367 -444 23 -78 27 -109 28 -230 1 -187 -34&#xA;-314 -110 -403 l-29 -34 0 179 c0 147 -5 198 -24 293 -56 273 -165 518 -286&#xA;643 -20 20 -33 37 -29 37 4 0 41 -19 83 -41z m497 -74 c19 -49 41 -118 50&#xA;-154 24 -95 53 -261 45 -261 -3 0 -22 24 -41 53 -19 28 -101 119 -181 200&#xA;l-147 148 112 54 c61 30 115 53 120 52 5 -2 24 -43 42 -92z m-979 -81 c115&#xA;-39 179 -116 214 -255 19 -73 20 -93 11 -152 -20 -134 -104 -257 -211 -309&#xA;-68 -34 -200 -38 -263 -8 -73 34 -124 84 -160 158 -31 63 -33 72 -33 177 0 98&#xA;3 116 26 165 87 182 262 276 416 224z m-640 -30 c135 -84 194 -319 119 -475&#xA;-14 -32 -44 -76 -64 -100 l-38 -43 -80 0 c-63 -1 -87 -6 -117 -23 -47 -28 -67&#xA;-29 -116 -3 -90 46 -141 150 -141 288 0 129 28 208 102 288 74 80 131 105 226&#xA;100 48 -3 74 -11 109 -32z m2558 -214 c33 -12 55 -64 55 -128 l0 -49 -88 -32&#xA;c-153 -55 -339 -173 -474 -303 -39 -38 -72 -67 -73 -66 0 2 -9 22 -19 44 l-18&#xA;42 40 58 c132 195 361 389 511 434 36 11 36 11 66 0z m-1867 -742 c-10 -29&#xA;-33 -76 -51 -105 -30 -51 -33 -53 -101 -68 -92 -21 -161 -55 -247 -121 -62&#xA;-48 -75 -54 -102 -48 -43 9 -134 104 -177 184 l-36 65 176 1 c157 1 186 3 275&#xA;27 55 15 138 47 185 71 47 24 88 44 92 45 3 0 -3 -23 -14 -51z m1417 -234&#xA;c165 -111 251 -161 337 -194 l73 -29 -2 -42 c-2 -48 -42 -105 -88 -128 -82&#xA;-40 -269 103 -429 327 l-59 83 19 35 c10 19 21 33 24 32 3 -2 59 -39 125 -84z&#xA;m-1545 26 c0 -18 -114 -100 -165 -119 -27 -10 -70 -22 -95 -25 l-45 -7 35 30&#xA;c75 64 132 92 268 130 1 1 2 -3 2 -9z m-687 -615 c-6 -109 10 -200 48 -264&#xA;l20 -33 -25 6 c-81 20 -143 72 -177 149 -20 44 -24 68 -24 162 0 153 -2 150&#xA;88 112 l75 -32 -5 -100z m167 28 c0 -44 36 -159 65 -207 l34 -56 -40 -27 c-29&#xA;-19 -54 -27 -87 -27 -41 -1 -48 2 -69 33 -38 56 -57 136 -56 237 0 51 3 96 6&#xA;102 9 14 147 -37 147 -55z m170 -28 c28 -17 3 -153 -37 -197 -20 -22 -36 -11&#xA;-63 43 -16 31 -60 170 -60 190 0 7 142 -25 160 -36z"/>
    <path d="M9715 2532 c-22 -5 -62 -38 -76 -64 -20 -37 -29 -120 -18 -161 32&#xA;-120 164 -114 198 9 34 123 -19 234 -104 216z m75 -81 c15 -28 12 -74 -5 -97&#xA;-15 -19 -15 -19 -30 0 -25 32 -14 116 15 116 5 0 14 -9 20 -19z"/>
    <path d="M9019 2522 c-53 -27 -73 -73 -74 -165 0 -76 1 -79 33 -108 45 -40 84&#xA;-39 127 4 40 40 59 104 51 167 -7 54 -32 90 -73 107 -25 10 -35 9 -64 -5z&#xA;m102 -75 c11 -25 -4 -107 -19 -107 -27 0 -43 70 -26 114 9 23 33 19 45 -7z"/>
  </g>
  <title>Header</title>
  <desc>Header</desc>
</svg>