<?xml version="1.0" standalone="no"?>
<!DOCTYPE svg PUBLIC "-//W3C//DTD SVG 20010904//EN"
 "http://www.w3.org/TR/2001/REC-SVG-20010904/DTD/svg10.dtd">
<svg version="1.0" xmlns="http://www.w3.org/2000/svg"
 width="1024.000000pt" height="1024.000000pt" viewBox="0 0 1024.000000 1024.000000"
 preserveAspectRatio="xMidYMid meet">
<metadata>
Created by potrace 1.16, written by Peter Selinger 2001-2019
</metadata>
<g transform="translate(0.000000,1024.000000) scale(0.100000,-0.100000)"
fill="#000000" stroke="none">
<path d="M5045 9719 c-59 -14 -275 -123 -344 -174 -204 -150 -400 -406 -489
-639 -152 -396 -161 -808 -25 -1229 l34 -108 -44 -39 c-52 -46 -77 -93 -77
-144 0 -39 21 -57 46 -40 76 54 126 85 131 80 16 -16 123 -260 116 -266 -4 -4
-35 -12 -68 -19 -90 -17 -162 -57 -231 -127 -133 -135 -198 -331 -165 -501 l8
-42 -233 -232 c-277 -277 -299 -309 -299 -443 0 -63 7 -100 29 -165 48 -141
181 -386 281 -517 8 -12 -1 -47 -46 -172 l-9 -22 -65 25 c-138 52 -316 162
-464 289 -122 105 -235 239 -326 389 -47 78 -47 80 -35 120 24 82 41 215 47
372 7 214 -12 349 -83 565 -3 10 15 29 55 57 254 180 427 475 477 817 20 135
15 408 -10 531 -63 309 -191 565 -375 745 -136 133 -233 170 -300 114 l-31
-26 0 -151 c0 -231 -24 -388 -85 -547 -28 -74 -105 -212 -120 -217 -14 -4 -80
179 -107 297 -30 130 -32 415 -4 570 22 124 58 279 86 370 33 106 25 146 -32
176 -75 39 -305 -3 -465 -85 -313 -158 -601 -479 -733 -817 -153 -391 -163
-821 -30 -1199 133 -374 382 -646 688 -749 l62 -21 5 -100 c8 -179 60 -342
170 -534 107 -188 214 -315 307 -362 21 -11 38 -23 38 -27 0 -5 19 -39 42 -78
181 -301 479 -554 838 -709 113 -50 250 -97 331 -115 l54 -12 -3 -88 c-4 -109
18 -241 52 -317 22 -46 29 -82 36 -184 20 -259 84 -494 173 -635 13 -22 36
-84 50 -139 45 -168 114 -329 182 -421 l23 -30 -90 -105 c-122 -141 -269 -338
-310 -413 -29 -54 -33 -70 -34 -141 -1 -44 -6 -138 -13 -210 -7 -74 -10 -175
-6 -235 8 -134 33 -333 46 -367 5 -14 8 -27 7 -28 -2 -2 -44 -21 -95 -43 -162
-69 -333 -199 -333 -253 0 -80 80 -95 301 -58 221 37 409 100 497 166 42 31
41 52 -2 229 -57 230 -83 416 -87 636 l-3 106 50 55 c28 30 101 137 164 238
62 101 115 186 116 188 2 2 23 -12 48 -30 l46 -32 -22 -36 c-83 -137 -135
-234 -153 -286 -21 -57 -21 -70 -15 -305 10 -318 39 -462 129 -638 l19 -36
-72 -49 c-122 -84 -203 -174 -232 -258 -13 -36 -13 -44 0 -64 30 -46 102 -38
266 32 142 61 277 142 328 197 53 58 54 82 6 229 -44 136 -86 309 -119 490
-38 209 -41 242 -21 272 13 20 87 193 110 258 6 17 10 16 59 -13 223 -132 438
-214 697 -264 101 -20 186 -38 188 -41 3 -3 -5 -37 -16 -77 -70 -240 -49 -445
57 -548 51 -50 101 -70 178 -70 l50 0 8 -132 c4 -79 13 -144 21 -159 7 -15 36
-43 63 -63 107 -79 427 -212 551 -230 54 -8 105 6 137 36 41 38 29 77 -55 185
-43 55 -169 144 -280 198 l-102 50 0 97 0 98 40 -40 c53 -53 131 -91 201 -97
102 -10 180 46 195 139 l6 37 65 -65 c160 -157 325 -219 451 -169 51 21 114
90 130 143 18 61 16 101 -14 231 -4 19 -2 22 8 14 7 -6 46 -22 86 -37 200 -71
301 9 246 195 -20 68 -55 137 -90 178 -14 18 -25 33 -23 35 2 1 36 15 74 31
339 139 592 417 682 751 25 90 27 115 27 274 0 158 -3 185 -27 275 -31 116
-89 243 -151 330 -51 71 -168 184 -224 216 -39 23 -39 23 -45 99 -14 175 -119
339 -259 405 -33 15 -82 58 -153 132 -179 189 -411 346 -776 529 l-186 93 -2
73 c-2 132 -37 396 -87 670 -118 643 -295 988 -618 1203 -61 40 -124 79 -140
86 -26 12 -28 16 -23 54 3 22 9 82 13 133 4 50 10 92 14 92 4 0 30 -20 58 -45
55 -49 76 -55 92 -26 27 52 -10 152 -83 218 l-46 43 15 92 c23 137 87 380 129
494 138 368 374 679 659 869 248 165 457 225 778 225 166 0 169 0 193 25 31
30 32 55 3 82 -89 81 -321 128 -518 104 -237 -29 -418 -102 -638 -259 -412
-291 -711 -825 -811 -1447 -22 -133 -17 -125 -65 -125 -103 0 -210 -61 -222
-127 l-6 -33 103 0 c57 0 114 -3 127 -6 l23 -7 -7 -136 c-4 -75 -7 -137 -8
-138 -1 -1 -33 7 -71 18 -126 35 -250 49 -423 49 -92 0 -194 -4 -227 -10 -32
-5 -62 -6 -66 -2 -9 10 -99 212 -99 223 0 14 53 11 101 -6 37 -13 45 -14 57
-1 19 19 10 55 -24 96 -32 38 -73 60 -139 75 l-49 11 -33 125 c-45 178 -65
322 -65 489 -1 177 18 299 74 467 98 299 265 505 610 755 191 138 213 168 165
223 -26 31 -86 40 -152 24z m75 -74 c0 -8 -71 -67 -157 -132 -181 -133 -360
-306 -441 -425 -104 -153 -183 -346 -222 -545 -17 -85 -22 -146 -22 -283 0
-196 15 -321 63 -512 17 -66 29 -121 27 -122 -7 -5 -82 -25 -85 -23 -9 10 -77
270 -95 366 -29 154 -31 436 -4 586 22 123 81 304 134 416 89 187 248 385 402
500 81 61 259 154 331 173 69 19 69 19 69 1z m2056 -260 c95 -18 174 -43 174
-55 0 -5 -56 -7 -127 -3 -237 11 -472 -36 -661 -131 -337 -170 -585 -431 -780
-821 -78 -158 -169 -450 -208 -670 -10 -55 -18 -101 -19 -102 -1 -2 -15 2 -31
9 l-30 11 8 56 c87 563 330 1064 649 1342 339 295 706 425 1025 364z m-4947
-35 c22 -11 19 -29 -28 -210 -110 -427 -88 -849 60 -1160 54 -112 143 -253
232 -364 91 -114 131 -211 143 -345 16 -189 -63 -428 -183 -549 -111 -111
-299 -155 -513 -117 -274 48 -480 191 -655 455 -241 362 -299 881 -149 1332
37 113 143 320 216 423 75 106 225 261 323 333 184 135 478 243 554 202z m497
-498 c181 -118 345 -380 418 -669 40 -154 50 -236 50 -403 0 -239 -34 -391
-129 -585 -110 -225 -276 -386 -489 -473 -127 -53 -128 -52 -51 29 128 136
186 285 186 485 0 176 -43 285 -180 464 -32 41 -79 107 -106 147 l-47 72 47
63 c64 86 140 244 169 358 33 124 48 286 40 433 -7 112 -6 117 13 117 11 0 46
-17 79 -38z m1746 -1499 c25 -65 48 -125 52 -133 4 -11 -2 -19 -24 -27 l-31
-12 -35 77 c-42 91 -84 189 -84 196 0 6 29 13 56 15 17 1 27 -17 66 -116z
m1034 75 l26 -12 -6 -106 c-4 -58 -9 -122 -12 -142 -5 -35 -7 -36 -30 -26 -21
10 -24 18 -24 63 0 63 12 235 16 235 2 0 15 -5 30 -12z m-341 -270 l69 -13
-67 -29 c-139 -59 -275 -227 -317 -390 -60 -236 30 -481 208 -564 49 -23 70
-27 152 -27 125 0 184 26 280 124 122 124 176 276 167 466 -6 111 -35 209 -81
269 -14 19 -26 38 -26 41 0 11 109 -53 181 -106 83 -61 198 -182 251 -262 179
-276 306 -746 378 -1392 6 -55 13 -115 15 -133 4 -33 4 -33 -28 -25 -18 4 -64
8 -104 8 -63 0 -76 -3 -114 -30 -70 -49 -102 -104 -107 -180 -4 -55 -1 -70 21
-107 14 -24 39 -53 55 -65 37 -27 169 -94 235 -118 75 -28 69 -41 -110 -218
-180 -177 -260 -245 -388 -330 -215 -142 -455 -227 -717 -256 -480 -53 -1109
92 -1321 304 -59 59 -95 133 -113 236 -32 172 6 448 87 636 l20 46 37 -35
c111 -108 324 -226 512 -286 189 -60 303 -77 525 -76 215 0 307 14 488 70 110
35 308 137 293 151 -2 2 -39 -10 -82 -28 -372 -147 -752 -176 -1109 -83 -412
106 -644 296 -845 690 -91 178 -120 261 -120 346 0 121 15 143 254 373 114
110 211 201 215 203 4 1 12 -8 18 -20 23 -51 95 -118 161 -150 58 -29 75 -33
142 -32 64 1 88 7 143 33 263 126 397 481 278 737 -35 74 -88 136 -150 172
l-45 26 64 13 c36 8 94 18 130 23 85 12 375 4 465 -12z m-668 -97 c57 -27 120
-93 151 -160 31 -67 42 -201 22 -290 -19 -92 -78 -198 -145 -266 -75 -76 -138
-107 -228 -113 -61 -4 -75 -1 -133 28 -74 36 -111 79 -145 169 -91 241 46 554
279 637 55 19 150 17 199 -5z m880 4 c66 -20 137 -83 172 -154 120 -239 19
-572 -207 -683 -124 -61 -256 -38 -345 61 -45 50 -61 81 -81 158 -73 281 133
624 380 632 17 1 53 -6 81 -14z m-2697 -486 c70 -235 77 -522 19 -770 -17 -73
-26 -93 -57 -124 -83 -84 -206 -109 -307 -61 -57 27 -79 49 -162 162 -165 225
-258 447 -270 648 l-6 98 23 -7 c42 -13 263 -7 355 10 50 9 149 38 220 65 72
26 138 48 147 49 13 1 22 -17 38 -70z m61 -1006 c162 -283 485 -562 802 -694
54 -22 91 -43 90 -51 -12 -86 -28 -138 -43 -138 -28 0 -250 76 -349 120 -258
113 -491 283 -651 475 -65 78 -160 212 -160 225 0 4 27 10 61 13 67 6 152 43
189 82 13 14 25 25 26 25 1 0 17 -26 35 -57z m3823 -647 c244 -124 454 -248
575 -339 89 -67 195 -162 224 -201 l24 -31 -61 -2 c-70 -1 -156 -31 -212 -72
l-39 -28 -85 81 c-146 139 -293 226 -565 336 -243 98 -308 138 -324 198 -14
51 1 100 41 139 82 77 127 68 422 -81z m15 -408 c117 -53 260 -151 359 -244
l84 -79 -18 -40 c-17 -40 -24 -160 -14 -239 l5 -39 -76 -32 c-164 -69 -342
-211 -438 -349 -108 -156 -152 -293 -152 -472 -1 -261 109 -454 259 -454 57 0
87 30 121 121 15 42 44 101 65 132 36 55 131 150 213 215 l42 33 11 -38 c58
-205 22 -503 -81 -670 l-20 -32 -40 14 c-23 8 -123 31 -222 50 -115 22 -191
42 -207 53 -40 30 -127 142 -164 212 -58 110 -77 195 -83 370 -8 217 6 302
127 820 48 201 100 541 100 648 0 86 -9 84 129 20z m-219 -171 c-16 -140 -45
-306 -82 -467 -33 -147 -35 -151 -151 -279 -395 -437 -1005 -632 -1596 -511
-184 37 -403 136 -522 233 -84 70 -139 174 -194 368 -22 78 -55 275 -55 328
l0 43 28 -18 c219 -145 441 -224 769 -276 177 -27 486 -30 634 -5 408 70 749
258 1061 586 62 66 115 115 116 110 2 -6 -1 -56 -8 -112z m1162 -99 c72 -33
138 -101 178 -181 28 -58 58 -172 48 -182 -2 -3 -40 8 -84 24 -158 57 -334 65
-502 21 -46 -12 -86 -19 -90 -16 -3 4 -6 51 -6 105 0 106 8 128 63 178 66 60
141 84 251 80 66 -2 98 -9 142 -29z m63 -392 c212 -57 405 -216 504 -415 78
-156 106 -279 104 -461 -1 -152 -25 -270 -81 -393 -119 -263 -371 -484 -662
-581 -144 -48 -222 -58 -423 -54 -176 3 -188 4 -208 25 -31 30 -21 55 62 148
144 164 209 290 248 482 34 165 25 313 -30 490 -43 141 -36 249 26 388 14 32
23 60 21 62 -9 10 -44 -18 -69 -54 -52 -76 -71 -132 -75 -233 l-5 -95 -66 -60
c-178 -163 -254 -260 -296 -380 -34 -95 -69 -102 -135 -28 -95 108 -123 364
-60 547 92 268 308 462 640 577 52 18 120 38 150 45 73 17 276 11 355 -10z
m-1380 -283 c-14 -37 -36 -163 -54 -305 -22 -171 -38 -214 -132 -338 -67 -89
-191 -209 -255 -246 l-44 -26 -31 23 c-45 32 -115 36 -172 11 -58 -26 -79 -64
-76 -135 l3 -51 -55 -22 c-109 -44 -211 -59 -389 -58 -142 1 -179 5 -262 27
-184 48 -331 132 -455 258 -132 135 -202 249 -267 437 -20 57 -36 106 -36 108
0 2 26 -13 58 -35 207 -142 620 -243 922 -228 435 23 833 197 1145 499 55 54
102 97 104 98 2 0 0 -8 -4 -17z m-45 -755 c21 -114 21 -120 5 -170 -36 -111
-126 -256 -183 -297 l-30 -21 -30 54 c-17 29 -61 93 -97 142 -56 73 -64 89
-51 96 79 44 252 212 316 305 41 60 37 67 70 -109z m-1950 -151 l52 -58 -38
-57 c-21 -31 -78 -120 -126 -197 -125 -198 -185 -255 -268 -255 -42 0 -69 16
-81 47 -20 53 64 186 285 451 61 73 113 131 117 130 3 -2 30 -29 59 -61z
m1416 -30 c57 -33 183 -201 278 -372 81 -147 89 -177 52 -213 -23 -23 -35 -27
-87 -27 -57 0 -63 2 -88 32 -15 18 -55 81 -91 140 -35 59 -90 151 -122 204
-46 77 -58 104 -58 138 0 54 14 79 53 96 39 17 37 17 63 2z m728 -181 c47 -58
48 -61 43 -112 -11 -108 -71 -191 -173 -239 -63 -30 -144 -44 -144 -26 0 7
-20 53 -45 103 l-44 92 58 52 c64 58 132 178 153 270 l12 52 46 -67 c25 -36
67 -93 94 -125z m-1829 -57 c42 -32 53 -45 46 -58 -4 -9 -32 -72 -61 -141 -29
-69 -62 -133 -72 -142 -23 -20 -97 -24 -129 -8 -27 15 -25 76 6 147 24 53 142
243 152 243 2 0 28 -18 58 -41z m959 8 c65 -112 147 -269 143 -274 -3 -2 -51
-10 -106 -16 -75 -8 -121 -8 -179 0 -156 23 -414 126 -608 244 -47 28 -84 53
-81 55 2 2 19 -1 38 -6 208 -60 493 -57 696 9 77 25 75 25 97 -12z m1036 -47
c19 -6 95 -24 168 -41 74 -17 149 -36 169 -43 l35 -12 -77 -90 c-42 -49 -81
-100 -86 -113 -9 -23 -10 -23 -37 -5 -64 43 -141 87 -199 115 -35 17 -63 31
-63 33 0 2 7 20 15 39 8 20 15 57 15 82 0 49 4 51 60 35z m145 -360 c28 -18
68 -50 91 -71 23 -20 55 -40 73 -44 22 -5 76 -48 172 -138 166 -155 197 -205
205 -328 6 -89 -12 -135 -66 -161 -101 -51 -254 9 -407 159 -83 83 -134 158
-263 393 -62 113 -121 220 -131 238 l-19 34 42 37 42 37 106 -61 c58 -33 128
-76 155 -95z m-997 78 c17 -17 15 -27 -5 -23 -10 2 -40 7 -68 12 l-50 7 50 7
c28 3 52 7 56 7 3 1 10 -3 17 -10z m766 -333 c116 -236 141 -342 95 -406 -18
-26 -26 -29 -74 -29 -31 0 -73 8 -100 20 -56 24 -149 116 -164 162 -6 18 -20
96 -31 173 -18 121 -48 270 -66 328 -4 13 1 17 23 17 15 1 57 11 93 23 l65 22
48 -90 c26 -49 76 -148 111 -220z m-2587 290 l62 0 5 -60 c3 -33 10 -124 15
-201 13 -165 41 -335 74 -451 l24 -81 -55 -9 c-82 -12 -80 -33 2 -33 59 0 66
-2 66 -20 0 -54 -337 -160 -573 -179 -48 -4 -92 -4 -97 -1 -31 19 210 167 379
232 40 16 43 20 38 45 -30 141 -37 179 -46 253 -12 92 -15 422 -5 483 6 33 9
37 28 30 11 -5 49 -8 83 -8z m2207 -197 c43 -206 68 -433 64 -568 l-3 -104
-31 -21 c-18 -11 -40 -25 -50 -31 -9 -5 -14 -15 -11 -22 9 -13 62 2 88 25 15
13 26 10 90 -22 168 -84 369 -245 369 -295 0 -22 -3 -23 -59 -17 -125 13 -374
111 -499 196 -33 22 -63 45 -66 49 -3 5 -12 98 -21 208 -16 195 -55 535 -75
643 -6 30 -10 58 -10 62 0 3 22 9 50 11 30 3 64 15 87 30 21 14 39 24 41 23 2
-1 18 -76 36 -167z m-1689 130 c18 0 42 3 52 6 18 6 22 -6 46 -161 34 -211 68
-363 118 -525 21 -70 39 -135 39 -146 0 -28 -44 -65 -163 -136 -103 -62 -233
-120 -299 -133 l-30 -6 17 34 c25 49 131 148 225 210 53 36 79 59 76 69 -2 8
-21 52 -41 97 -20 45 -46 124 -59 175 -27 106 -56 342 -56 454 0 72 1 75 21
69 12 -4 36 -7 54 -7z m1390 -2 c7 -7 18 -40 24 -72 12 -67 46 -350 56 -465
l7 -76 -60 8 c-76 8 -114 35 -149 102 -51 99 -42 300 22 505 6 16 83 16 100
-2z m1688 -74 c9 -9 32 -52 52 -94 43 -90 56 -180 32 -213 -14 -18 -19 -19
-72 -8 -61 13 -231 91 -323 148 -32 19 -83 58 -115 87 l-59 53 129 2 c79 2
161 10 213 22 111 24 124 24 143 3z"/>
<path d="M4139 6033 c-97 -50 -112 -117 -44 -206 42 -55 122 -109 215 -145
l72 -27 19 -74 c39 -155 168 -319 302 -386 63 -31 78 -35 151 -35 139 1 260
55 379 169 116 112 196 258 243 448 l17 66 26 -30 c14 -16 31 -38 37 -48 15
-26 44 -12 44 20 0 85 -106 169 -215 169 -114 1 -155 -30 -62 -48 26 -4 47
-11 47 -15 -1 -8 -115 -85 -165 -109 -68 -33 -191 -71 -288 -88 -125 -22 -347
-14 -467 16 -153 39 -288 119 -326 192 -15 29 -15 31 11 58 29 30 76 53 143
70 61 16 52 30 -21 30 -49 0 -75 -6 -118 -27z m1150 -535 c-41 -58 -141 -157
-193 -192 -129 -84 -280 -104 -355 -47 l-24 18 38 42 c52 57 161 127 242 156
76 26 196 49 286 54 l28 1 -22 -32z"/>
<path d="M4430 6781 c-114 -60 -166 -261 -99 -383 61 -109 178 -79 249 65 37
77 46 136 30 212 -23 109 -95 152 -180 106z"/>
<path d="M5325 6748 c-97 -53 -152 -194 -125 -323 16 -76 69 -135 121 -135
152 0 254 326 139 442 -23 22 -37 28 -72 28 -24 0 -52 -6 -63 -12z"/>
</g>
</svg>
