<?xml version="1.0" encoding="UTF-8" standalone="yes"?>
<svg version="1.0" xmlns="http://www.w3.org/2000/svg" width="1024.000000pt" height="1024.000000pt" viewBox="0 0 1024.000000 1024.000000" preserveAspectRatio="xMidYMid meet">
  <metadata>
Created by potrace 1.16, written by Peter Selinger 2001-2019
</metadata>
  <g transform="translate(0.000000,1024.000000) scale(0.100000,-0.100000)" fill="#000000" stroke="none">
    <path d="M3689 9677 c-114 -86 -284 -378 -348 -594 -146 -496 -25 -1149 297&#xA;-1603 82 -116 235 -276 356 -374 50 -40 188 -142 306 -226 260 -185 388 -289&#xA;498 -404 122 -129 180 -220 221 -345 37 -113 25 -192 -40 -279 -24 -31 -222&#xA;-237 -439 -457 -217 -220 -411 -421 -430 -447 -19 -26 -38 -48 -41 -48 -4 0&#xA;-14 20 -23 45 -37 96 -177 205 -263 205 -75 0 -137 -49 -166 -132 -9 -24 -24&#xA;-89 -33 -146 -10 -61 -20 -98 -25 -90 -4 8 -26 102 -48 210 -49 236 -90 359&#xA;-176 533 -76 154 -172 286 -264 362 -183 152 -405 184 -505 73 -44 -49 -59&#xA;-105 -54 -195 9 -135 74 -239 317 -504 151 -165 194 -223 241 -324 108 -229&#xA;85 -516 -40 -517 -14 0 -48 11 -76 24 -84 39 -189 155 -322 355 -229 345 -421&#xA;491 -648 491 -86 0 -147 -20 -193 -63 -44 -42 -61 -84 -61 -149 1 -159 153&#xA;-288 508 -432 273 -111 360 -184 471 -395 92 -178 161 -387 161 -493 0 -38 -4&#xA;-48 -16 -48 -33 0 -132 63 -254 161 -298 239 -555 368 -796 400 -243 32 -454&#xA;-86 -454 -255 0 -135 107 -217 380 -291 418 -114 645 -273 860 -600 54 -83&#xA;163 -300 174 -347 l6 -26 -98 48 c-307 151 -574 145 -667 -15 -47 -80 -34&#xA;-164 35 -233 16 -17 30 -32 30 -35 0 -2 -33 -14 -72 -25 -197 -58 -499 -86&#xA;-673 -63 -113 15 -179 34 -278 79 -86 39 -112 37 -112 -9 0 -20 13 -31 70 -61&#xA;137 -72 319 -104 540 -95 187 8 345 35 557 94 56 15 60 15 108 -6 27 -12 112&#xA;-43 188 -69 230 -80 363 -168 539 -360 200 -217 368 -379 442 -427 245 -159&#xA;742 -302 1241 -359 707 -80 1338 -8 1752 200 167 84 264 186 355 374 128 266&#xA;248 451 449 690 85 101 104 136 104 188 0 100 -109 139 -235 83 -101 -45 -246&#xA;-188 -231 -228 5 -12 23 1 79 59 120 124 267 182 325 128 12 -12 22 -27 22&#xA;-36 0 -31 -30 -83 -82 -145 -172 -204 -296 -383 -423 -614 -122 -221 -174&#xA;-293 -161 -224 16 88 18 397 2 541 -50 478 -193 875 -537 1494 l-79 142 49&#xA;103 c27 57 70 149 95 203 146 313 385 624 538 700 60 30 119 34 139 10 21 -26&#xA;14 -117 -19 -256 -43 -177 -48 -222 -28 -253 22 -34 67 -33 132 4 80 46 120&#xA;102 302 423 209 367 368 564 577 714 154 110 301 164 451 164 101 0 168 -20&#xA;221 -65 93 -80 80 -208 -34 -335 -58 -65 -128 -114 -329 -233 -387 -230 -578&#xA;-421 -730 -732 -69 -143 -130 -308 -140 -383 -7 -57 10 -82 55 -82 33 0 68 22&#xA;211 135 201 157 356 242 496 271 267 55 421 -95 302 -294 -49 -81 -130 -149&#xA;-358 -300 -165 -109 -224 -155 -300 -231 -153 -154 -195 -258 -129 -323 30&#xA;-30 31 -31 112 -25 63 4 123 18 255 61 224 74 322 95 462 102 168 9 292 -25&#xA;384 -106 63 -56 87 -151 51 -206 -51 -78 -163 -118 -389 -139 -273 -26 -415&#xA;-63 -599 -157 -129 -66 -235 -147 -334 -252 -118 -126 -182 -252 -159 -311 10&#xA;-26 80 -18 179 21 178 70 294 88 389 60 78 -22 108 -49 108 -94 0 -30 -8 -43&#xA;-49 -83 -57 -55 -102 -74 -314 -128 -175 -45 -259 -75 -359 -128 -74 -39 -178&#xA;-125 -178 -148 0 -30 24 -24 104 30 184 122 432 184 627 156 193 -27 335 -127&#xA;334 -235 -2 -157 -247 -341 -610 -456 -161 -51 -175 -57 -175 -70 0 -51 256&#xA;14 475 120 243 118 375 258 375 399 0 130 -103 232 -288 286 l-73 22 60 37&#xA;c33 20 76 55 95 77 95 111 53 242 -91 285 -105 32 -284 9 -436 -54 -53 -22&#xA;-97 -39 -97 -36 0 44 169 246 236 282 33 17 262 35 370 29 111 -7 214 -32 409&#xA;-101 320 -112 615 -100 851 35 68 38 97 74 83 100 -14 27 -31 24 -113 -21&#xA;-245 -135 -536 -141 -841 -19 -171 68 -348 96 -515 81 -58 -5 -106 -9 -108 -7&#xA;-2 1 37 23 86 48 169 88 326 127 587 146 232 17 374 77 435 183 58 102 31 220&#xA;-71 312 -95 86 -219 126 -390 126 -156 0 -280 -26 -576 -121 -163 -52 -253&#xA;-64 -253 -33 0 58 111 186 254 293 50 37 158 112 239 166 228 150 333 264 363&#xA;394 29 124 -25 235 -145 292 -68 33 -220 38 -329 11 -151 -38 -319 -134 -514&#xA;-293 -53 -43 -99 -79 -102 -79 -8 0 35 130 75 228 130 318 338 538 729 772&#xA;290 173 392 260 450 381 37 79 45 132 30 203 -40 191 -297 278 -570 191 -289&#xA;-92 -551 -324 -771 -680 -31 -50 -105 -177 -164 -283 -60 -106 -129 -217 -152&#xA;-247 -40 -50 -89 -93 -97 -84 -2 2 12 69 30 149 66 288 33 397 -118 387 -127&#xA;-8 -274 -124 -425 -336 -105 -148 -171 -264 -280 -488 -51 -106 -95 -193 -98&#xA;-193 -8 0 -124 235 -175 356 -136 317 -210 661 -210 977 0 355 71 590 230 760&#xA;88 94 143 135 257 191 157 78 298 118 653 186 765 147 1203 333 1593 676 419&#xA;369 712 927 756 1440 16 185 -6 285 -63 300 -37 9 -56 0 -168 -82 -230 -169&#xA;-426 -254 -678 -295 -85 -13 -204 -16 -575 -10 -269 3 -415 -10 -613 -55 -604&#xA;-138 -1078 -494 -1359 -1021 l-49 -91 -17 131 c-76 569 -336 969 -825 1270&#xA;-48 29 -148 86 -222 127 -282 152 -427 266 -521 408 -26 40 -57 97 -68 126&#xA;-28 75 -51 195 -51 264 0 96 -44 118 -121 59z m73 -317 c26 -82 61 -152 105&#xA;-212 19 -26 32 -52 28 -58 -10 -15 14 -201 34 -271 48 -166 96 -250 333 -581&#xA;367 -515 569 -857 715 -1212 143 -347 229 -713 193 -821 l-13 -38 -22 89 c-30&#xA;115 -53 174 -126 313 -111 213 -232 375 -568 766 -378 439 -490 606 -617 921&#xA;-122 304 -217 726 -231 1021 l-6 132 28 43 c15 24 44 63 63 87 l36 44 13 -79&#xA;c7 -43 23 -108 35 -144z m-176 -390 c54 -328 150 -642 274 -895 115 -237 232&#xA;-401 540 -755 364 -419 540 -668 643 -910 39 -92 83 -248 72 -258 -3 -3 -8 4&#xA;-12 16 -12 46 -74 165 -120 230 -118 165 -362 380 -663 582 -219 147 -421 321&#xA;-533 458 -252 310 -397 711 -414 1147 -9 242 35 461 138 680 l33 70 8 -105 c4&#xA;-58 19 -175 34 -260z m584 -96 c42 -27 122 -74 180 -104 218 -115 438 -375&#xA;595 -702 185 -387 268 -759 306 -1372 10 -171 10 -198 -6 -273 -10 -46 -20&#xA;-82 -22 -79 -3 2 -18 64 -33 138 -95 446 -305 907 -649 1424 -65 99 -191 280&#xA;-280 404 -186 260 -259 393 -296 544 -14 54 -25 121 -25 148 l0 50 78 -65 c42&#xA;-35 111 -86 152 -113z m4744 -176 c-53 -139 -147 -305 -252 -443 -70 -92 -285&#xA;-308 -394 -396 -247 -199 -467 -316 -867 -460 -575 -208 -936 -388 -1256 -626&#xA;-203 -151 -469 -428 -542 -566 l-20 -36 -23 24 -24 25 24 58 c98 238 466 684&#xA;820 995 340 298 632 475 1105 667 366 149 605 274 830 436 55 39 138 88 185&#xA;108 100 43 235 122 340 200 41 31 78 56 82 56 4 0 1 -19 -8 -42z m12 -160&#xA;c-28 -340 -210 -768 -460 -1082 -62 -78 -90 -104 -187 -168 -212 -143 -476&#xA;-266 -711 -333 -67 -19 -226 -58 -353 -85 -506 -111 -779 -196 -1027 -321&#xA;-188 -95 -367 -227 -502 -370 -46 -49 -76 -74 -76 -64 0 30 59 129 132 221&#xA;248 310 643 592 1148 817 133 59 229 97 635 247 375 139 667 318 927 569 204&#xA;196 358 398 438 574 19 42 37 76 39 77 2 0 1 -37 -3 -82z m-4161 -17 c110 -77&#xA;297 -267 371 -376 181 -266 272 -559 281 -905 5 -174 5 -176 -26 -275 -17 -55&#xA;-46 -158 -64 -229 l-33 -128 -13 197 c-21 345 -62 598 -136 855 -98 336 -267&#xA;665 -452 877 -73 84 -70 84 72 -16z m3495 -131 c-14 -11 -83 -57 -155 -102&#xA;-147 -92 -357 -196 -585 -288 -430 -174 -673 -307 -959 -524 -409 -311 -866&#xA;-825 -1023 -1151 l-41 -85 -36 6 c-20 4 -37 7 -38 8 -4 3 65 194 97 266 102&#xA;236 309 610 446 806 177 254 410 511 604 667 131 106 312 222 455 293 122 60&#xA;136 65 230 74 55 6 267 9 470 8 343 -2 376 0 455 19 109 26 109 26 80 3z&#xA;m-1339 -110 c-434 -237 -850 -667 -1156 -1195 -112 -193 -290 -559 -339 -697&#xA;l-48 -136 -47 -19 c-25 -10 -49 -19 -53 -21 -3 -2 2 18 12 45 10 26 48 167 85&#xA;313 78 313 104 402 156 533 213 537 595 920 1118 1122 86 34 298 94 331 94 8&#xA;1 -18 -17 -59 -39z m1289 -1096 c-25 -30 -161 -134 -262 -200 -56 -37 -167&#xA;-100 -247 -140 -291 -143 -535 -220 -1019 -318 -269 -55 -354 -76 -497 -123&#xA;-212 -69 -359 -157 -482 -287 -86 -91 -87 -85 -4 18 71 88 167 170 300 259&#xA;291 191 598 300 1243 441 234 51 337 79 488 131 102 35 364 158 445 208 49 30&#xA;51 31 35 11z m-2726 -994 c51 -24 96 -90 96 -140 0 -20 -7 -60 -15 -88 -16&#xA;-52 -16 -52 -58 -52 -59 0 -111 -16 -146 -45 -36 -31 -37 -31 -44 3 -9 44 -50&#xA;95 -92 117 -22 11 -41 20 -42 20 -6 1 56 118 73 136 27 30 112 69 153 69 19 0&#xA;53 -9 75 -20z m-262 -252 c48 -34 67 -89 67 -196 l0 -92 -52 0 c-58 0 -115&#xA;-23 -164 -64 -26 -22 -33 -24 -33 -11 0 21 -27 74 -52 101 l-20 22 52 63 c28&#xA;35 70 94 93 131 46 75 61 81 109 46z m-2349 -27 c177 -76 334 -262 440 -521&#xA;55 -133 84 -231 126 -431 55 -255 90 -343 134 -337 30 4 45 41 68 166 38 208&#xA;39 214 74 249 39 39 70 42 131 12 55 -26 99 -77 136 -156 l30 -62 -45 -59&#xA;c-148 -192 -319 -499 -420 -757 -170 -430 -244 -918 -203 -1335 40 -407 151&#xA;-776 329 -1097 25 -46 42 -83 38 -83 -13 0 -132 50 -196 82 -142 72 -262 176&#xA;-429 372 -136 159 -257 274 -358 340 -113 73 -159 95 -328 156 -175 64 -247&#xA;99 -289 141 -70 69 -75 122 -18 177 108 105 346 79 600 -66 87 -49 141 -59&#xA;161 -30 32 51 -108 380 -241 568 -124 173 -322 349 -494 436 -87 44 -197 83&#xA;-346 124 -186 51 -252 81 -303 136 -60 65 -49 136 31 194 67 48 135 63 259 58&#xA;232 -11 471 -128 815 -397 183 -143 274 -184 335 -151 82 44 27 336 -118 625&#xA;-121 242 -234 340 -522 455 -244 97 -392 196 -439 294 -30 61 -27 98 10 140&#xA;67 77 199 74 354 -7 97 -51 233 -195 346 -367 197 -299 334 -426 474 -438 86&#xA;-7 148 38 187 138 33 83 30 244 -6 365 -51 170 -121 277 -314 482 -187 199&#xA;-257 302 -282 414 -20 89 6 165 64 190 33 14 156 3 209 -20z m2657 -43 c0 -2&#xA;-11 -34 -25 -73 -13 -38 -32 -114 -41 -168 l-18 -98 -18 30 c-10 16 -36 41&#xA;-58 55 l-40 26 0 71 c0 69 1 73 36 105 19 19 49 38 67 43 29 8 97 14 97 9z&#xA;m-552 -258 c30 -61 28 -81 -19 -174 -44 -87 -61 -106 -93 -106 -35 0 -118 -45&#xA;-168 -89 l-48 -43 0 32 c0 17 -9 49 -21 71 l-20 41 163 158 c90 88 168 158&#xA;173 156 6 -1 20 -22 33 -46z m343 -20 c80 -41 118 -127 104 -236 l-6 -54 -48&#xA;0 c-64 0 -139 -39 -196 -102 -38 -42 -46 -47 -50 -32 -25 81 -77 142 -142 165&#xA;-31 10 -31 10 -15 42 35 71 102 166 132 187 73 52 155 63 221 30z m-720 -333&#xA;c14 -51 7 -104 -24 -181 -22 -57 -25 -61 -67 -71 -89 -23 -172 -81 -240 -166&#xA;l-38 -48 -5 47 c-4 26 -9 59 -12 73 -6 24 12 45 175 213 100 102 186 183 191&#xA;180 5 -2 14 -24 20 -47z m371 27 c36 -8 94 -73 108 -121 6 -21 10 -67 8 -102&#xA;l-3 -64 -41 -12 c-74 -22 -168 -100 -227 -189 l-26 -39 -11 44 c-26 95 -78&#xA;160 -151 189 -18 7 -36 15 -37 16 -12 8 67 142 108 183 66 66 177 117 230 105&#xA;8 -2 27 -6 42 -10z m454 -32 c6 -4 14 -57 18 -122 4 -63 11 -136 15 -162 7&#xA;-41 5 -50 -12 -65 -11 -10 -32 -37 -47 -60 l-27 -42 -29 57 c-33 65 -98 115&#xA;-170 133 -53 14 -54 23 -16 104 30 63 92 127 146 151 34 14 104 18 122 6z&#xA;m-791 -314 c40 -21 60 -45 84 -98 27 -62 35 -128 22 -178 -12 -41 -16 -45 -81&#xA;-57 -81 -17 -172 -86 -231 -177 l-37 -59 -16 55 c-21 72 -70 134 -129 164 -26&#xA;14 -47 31 -47 39 0 28 59 137 103 194 51 64 138 125 194 137 44 9 95 2 138&#xA;-20z m573 -7 c78 -40 123 -113 130 -211 l4 -65 -53 -19 c-93 -32 -203 -159&#xA;-244 -281 -5 -16 -10 -10 -23 30 -36 103 -119 188 -214 217 -21 6 -38 16 -38&#xA;21 0 5 16 43 36 84 41 86 134 187 204 221 58 28 146 30 198 3z m-1021 -161&#xA;c-9 -129 -15 -139 -105 -182 -87 -40 -177 -115 -207 -172 -23 -42 -35 -46 -35&#xA;-13 0 39 153 272 278 424 54 64 56 66 65 42 5 -13 7 -58 4 -99z m1311 -3 c12&#xA;-56 25 -112 28 -124 l6 -22 -51 20 c-28 10 -62 19 -76 19 -14 0 -25 6 -25 13&#xA;0 45 68 197 88 197 4 0 17 -46 30 -103z m-13 -177 c22 -10 46 -23 53 -28 11&#xA;-7 82 -182 82 -201 0 -3 -21 -17 -46 -30 -82 -44 -167 -163 -195 -276 l-12&#xA;-47 -30 57 c-40 73 -122 148 -192 174 -31 12 -62 21 -70 21 -20 0 -19 19 6 87&#xA;44 116 118 205 203 244 55 25 148 25 201 -1z m-1237 -53 c58 -38 95 -115 100&#xA;-208 6 -99 -3 -114 -67 -122 -91 -11 -186 -85 -253 -198 l-34 -56 -17 58 c-12&#xA;41 -31 72 -68 113 -28 31 -58 56 -66 56 -19 0 -11 41 29 138 39 95 116 179&#xA;201 222 73 37 117 36 175 -3z m578 14 c81 -37 145 -123 170 -228 12 -53 10&#xA;-63 -12 -63 -7 0 -39 -10 -71 -22 -96 -35 -201 -148 -249 -267 -22 -54 -23&#xA;-55 -30 -26 -23 99 -122 217 -209 251 -41 15 -44 19 -38 43 36 151 146 286&#xA;263 322 47 14 134 9 176 -10z m-1026 -308 c-11 -51 -13 -53 -46 -53 -19 0 -34&#xA;2 -34 5 0 3 19 43 43 91 l42 86 3 -39 c2 -21 -1 -62 -8 -90z m1850 56 c0 -7&#xA;40 -95 90 -196 l90 -185 -27 -46 c-15 -25 -34 -72 -43 -106 l-17 -61 -17 34&#xA;c-51 98 -157 170 -263 179 -73 6 -74 6 -47 122 23 104 101 214 179 254 36 19&#xA;55 20 55 5z m-525 -100 c78 -29 147 -100 191 -193 19 -41 34 -79 34 -83 0 -5&#xA;-27 -21 -60 -37 -102 -49 -192 -159 -241 -294 l-22 -63 -30 63 c-57 118 -183&#xA;220 -293 235 -44 6 -45 6 -38 37 3 17 23 68 44 114 91 195 253 282 415 221z&#xA;m-699 -53 c89 -42 165 -154 181 -271 l5 -42 -62 -22 c-84 -31 -162 -109 -214&#xA;-214 l-38 -78 -23 54 c-27 68 -51 102 -110 156 -47 43 -115 80 -149 81 -16 0&#xA;-18 5 -13 37 9 52 69 171 111 220 20 23 64 55 98 72 77 39 141 41 214 7z&#xA;m-599 -13 c69 -33 120 -128 130 -243 l6 -66 -44 -13 c-102 -30 -206 -124 -251&#xA;-227 -13 -30 -26 -54 -29 -54 -4 0 -10 15 -13 33 -7 38 -60 127 -76 127 -5 0&#xA;-10 11 -10 24 0 44 129 387 157 419 21 22 83 22 130 0z m1729 -286 c63 -32&#xA;118 -92 155 -171 39 -81 37 -90 -13 -105 -53 -16 -134 -98 -170 -173 -31 -63&#xA;-58 -157 -58 -202 0 -27 -3 -25 -38 30 -78 120 -207 210 -318 221 -30 3 -56 9&#xA;-58 12 -7 11 50 175 77 221 31 54 110 135 152 158 92 48 187 51 271 9z m399&#xA;-154 c54 -98 110 -198 124 -223 l25 -45 -53 52 c-63 62 -138 101 -209 110&#xA;l-52 6 0 67 c0 71 18 145 44 185 9 14 18 25 20 25 2 0 48 -80 101 -177z&#xA;m-1179 66 c95 -45 193 -171 218 -280 5 -25 2 -28 -56 -49 -109 -40 -222 -175&#xA;-258 -310 l-12 -44 -34 65 c-60 111 -182 213 -281 234 -39 8 -41 21 -15 116&#xA;65 235 257 352 438 268z m-709 -14 c59 -30 122 -93 154 -157 44 -86 64 -208&#xA;34 -208 -8 0 -40 -10 -72 -22 -79 -29 -171 -121 -217 -217 -31 -66 -46 -79&#xA;-46 -42 0 29 -58 138 -94 179 -39 43 -111 82 -151 82 -21 0 -25 5 -25 29 0 54&#xA;49 186 89 242 93 129 213 171 328 114z m-487 -178 c13 -30 24 -81 27 -127 l6&#xA;-76 -40 -12 c-22 -7 -61 -30 -86 -53 l-47 -41 5 29 c19 102 57 294 66 326 10&#xA;37 11 38 29 22 10 -9 28 -39 40 -68z m2338 -48 c67 -29 116 -73 187 -167 36&#xA;-48 65 -90 65 -93 0 -4 -12 -10 -26 -13 -38 -10 -117 -94 -146 -156 -34 -73&#xA;-58 -166 -58 -229 0 -58 -12 -65 -31 -19 -20 48 -136 161 -197 192 -29 15 -86&#xA;32 -127 39 l-75 12 0 65 c0 151 79 317 174 367 69 36 155 37 234 2z m-711&#xA;-144 c78 -38 169 -132 216 -221 41 -80 42 -84 24 -84 -8 0 -41 -14 -75 -31&#xA;-112 -55 -207 -188 -235 -328 l-13 -63 -39 67 c-76 129 -209 227 -329 241&#xA;l-56 7 0 36 c0 82 49 213 107 286 94 118 263 156 400 90z m-801 -66 c55 -26&#xA;126 -88 165 -145 29 -43 79 -161 79 -188 0 -8 -19 -18 -42 -25 -128 -33 -231&#xA;-142 -288 -304 l-17 -49 -38 76 c-63 128 -193 236 -282 236 -31 0 -33 2 -33&#xA;36 0 46 43 173 75 225 93 147 245 202 381 138z m-658 -21 c76 -51 140 -180&#xA;149 -304 l6 -70 -49 -19 c-91 -35 -168 -125 -210 -245 -13 -36 -23 -58 -24&#xA;-50 -2 60 -98 190 -166 226 l-36 19 6 155 c5 106 12 164 22 187 19 39 82 101&#xA;121 119 45 21 134 12 181 -18z m2505 -188 c27 -63 71 -181 98 -263 l49 -147&#xA;-20 -60 c-11 -33 -20 -76 -20 -97 l-1 -38 -21 30 c-79 110 -177 165 -293 165&#xA;l-65 0 0 116 c0 97 4 128 25 190 14 41 36 91 49 112 39 61 105 114 135 109 8&#xA;-1 37 -54 64 -117z m-561 -108 c104 -51 212 -189 234 -299 5 -25 1 -31 -34&#xA;-51 -59 -33 -156 -142 -193 -217 -17 -36 -40 -98 -49 -137 l-17 -71 -23 39&#xA;c-37 61 -149 172 -205 204 -56 32 -154 60 -209 60 -32 0 -36 3 -37 28 -5 148&#xA;37 275 123 368 79 85 149 115 263 112 68 -3 91 -8 147 -36z m-847 -107 c113&#xA;-54 242 -218 261 -331 l6 -41 -63 -23 c-49 -17 -78 -37 -125 -84 -65 -65 -129&#xA;-179 -140 -248 -4 -21 -9 -38 -13 -38 -3 0 -19 26 -36 57 -16 32 -59 88 -94&#xA;125 -74 80 -156 125 -246 136 l-60 7 -3 42 c-4 54 22 151 60 226 40 81 119&#xA;158 188 186 78 30 183 25 265 -14z m-783 -48 c113 -66 218 -241 218 -362 0&#xA;-28 -5 -33 -54 -54 -110 -45 -180 -132 -230 -285 -5 -14 -15 0 -43 55 -22 44&#xA;-58 96 -90 127 -52 52 -139 102 -179 102 -28 0 -34 32 -23 119 19 156 85 261&#xA;194 313 56 26 149 20 207 -15z m-562 -104 c44 -49 84 -141 103 -231 l15 -74&#xA;-37 -15 c-20 -8 -48 -26 -63 -41 -15 -14 -30 -23 -33 -21 -8 9 -45 253 -52&#xA;347 -6 92 -6 94 14 84 11 -6 35 -28 53 -49z m2671 -114 c60 -30 114 -92 159&#xA;-181 40 -80 48 -108 31 -108 -5 0 -32 -21 -60 -46 -89 -80 -154 -216 -169&#xA;-354 l-7 -65 -27 46 c-32 55 -101 120 -157 148 -58 30 -168 54 -223 48 l-48&#xA;-4 0 41 c1 168 110 379 237 457 84 52 185 59 264 18z m279 -150 c11 -56 20&#xA;-105 20 -110 0 -16 -58 -10 -64 7 -8 21 -7 192 1 223 l6 25 8 -23 c5 -12 18&#xA;-67 29 -122z m-1125 -22 c72 -30 126 -69 184 -133 44 -50 121 -184 121 -210 0&#xA;-5 -26 -20 -57 -34 -87 -37 -173 -124 -221 -223 -22 -45 -46 -108 -53 -139&#xA;l-12 -57 -39 62 c-97 151 -242 249 -394 264 l-52 6 5 61 c24 313 270 505 518&#xA;403z m-840 -82 c105 -51 199 -159 244 -281 38 -101 39 -100 -16 -113 -142 -36&#xA;-272 -173 -298 -315 l-8 -39 -40 78 c-70 134 -171 226 -291 266 l-51 16 2 64&#xA;c3 153 109 309 237 349 52 16 163 4 221 -25z m-750 -9 c96 -45 181 -156 219&#xA;-285 22 -77 21 -101 -5 -101 -37 0 -110 -43 -150 -89 -41 -46 -68 -118 -70&#xA;-180 -1 -33 -5 -27 -49 65 -56 117 -110 257 -143 375 -41 142 -41 142 -10 179&#xA;53 63 125 76 208 36z m2749 -83 c14 -92 18 -403 7 -508 -18 -169 -15 -163 -66&#xA;-116 -59 54 -114 80 -184 87 -69 8 -71 11 -71 114 0 194 91 379 215 436 73 35&#xA;92 32 99 -13z m-578 -248 c32 -16 79 -50 104 -75 44 -45 103 -148 115 -201 6&#xA;-23 2 -27 -39 -43 -109 -42 -203 -170 -229 -311 l-13 -70 -51 -9 -51 -8 -68&#xA;69 c-38 38 -90 81 -116 96 -51 29 -194 71 -215 62 -18 -6 -17 104 2 175 44&#xA;164 144 284 278 332 80 29 205 21 283 -17z m-1017 -100 c151 -36 273 -137 346&#xA;-289 25 -51 45 -95 45 -98 0 -3 -21 -11 -47 -18 -27 -6 -70 -23 -96 -38 -55&#xA;-29 -148 -125 -176 -180 l-19 -37 -73 4 c-41 1 -80 6 -87 10 -8 4 -30 30 -51&#xA;57 -52 69 -149 140 -224 162 -62 19 -62 20 -65 60 -6 81 66 235 139 296 43 36&#xA;108 66 168 76 67 11 70 11 140 -5z m-769 -30 c81 -41 162 -129 209 -227 21&#xA;-46 42 -97 45 -114 7 -30 6 -30 -56 -49 -52 -15 -72 -28 -119 -76 l-56 -58&#xA;-129 34 c-175 46 -174 46 -174 57 0 6 -16 36 -35 68 -30 50 -35 66 -35 122 0&#xA;124 46 213 132 257 58 30 142 24 218 -14z m2224 -239 c50 -29 101 -89 93 -108&#xA;-6 -15 -168 -97 -263 -133 -59 -22 -249 -75 -270 -75 -15 0 9 109 37 167 35&#xA;73 99 134 173 163 72 28 167 23 230 -14z m-913 -182 c30 -9 71 -25 91 -35 37&#xA;-19 158 -125 158 -139 0 -13 -222 -31 -460 -37 l-234 -6 18 29 c42 64 79 104&#xA;129 137 96 64 196 81 298 51z m-889 -42 c59 -29 178 -135 166 -148 -6 -5 -332&#xA;41 -428 61 -39 8 -74 15 -78 15 -16 0 68 75 103 92 61 29 154 21 237 -20z"/>
    <path d="M2920 3287 c-20 -10 -26 -21 -28 -54 -4 -49 47 -157 134 -289 61 -92&#xA;80 -112 95 -97 7 7 -8 39 -46 99 -31 49 -77 130 -102 181 -50 100 -52 130 -6&#xA;118 37 -9 74 -41 123 -107 23 -32 46 -58 51 -58 24 0 4 55 -38 111 -63 82&#xA;-135 120 -183 96z"/>
    <path d="M7400 9544 c-233 -62 -490 -320 -590 -591 -41 -112 -47 -207 -14&#xA;-229 20 -14 28 -9 123 72 112 94 248 187 455 307 212 124 298 214 299 315 1&#xA;95 -52 143 -160 141 -32 0 -83 -7 -113 -15z m178 -86 c19 -19 14 -51 -16 -99&#xA;-37 -58 -105 -109 -287 -215 -177 -103 -246 -148 -338 -221 l-67 -54 24 64&#xA;c50 134 110 223 225 337 133 131 264 199 382 200 37 0 70 -5 77 -12z"/>
    <path d="M2289 9177 c-52 -34 -71 -80 -66 -155 10 -143 120 -287 355 -468 70&#xA;-54 162 -132 204 -172 68 -63 80 -71 98 -62 47 25 37 94 -51 327 -88 236 -165&#xA;371 -263 461 -95 87 -208 116 -277 69z m168 -93 c59 -34 143 -133 194 -228 38&#xA;-72 151 -356 144 -364 -2 -2 -64 45 -139 103 -235 184 -346 325 -346 437 0 90&#xA;50 108 147 52z"/>
    <path d="M2037 7914 c-62 -19 -122 -78 -138 -136 -24 -89 28 -214 123 -291 66&#xA;-54 157 -99 343 -172 369 -145 463 -215 695 -517 23 -30 48 -36 68 -16 45 45&#xA;-61 425 -169 603 -157 260 -425 474 -661 530 -79 19 -198 18 -261 -1z m247&#xA;-84 c203 -52 420 -213 554 -413 81 -120 166 -306 186 -406 6 -33 4 -32 -68 40&#xA;-149 151 -277 230 -529 329 -299 118 -377 168 -428 275 -54 114 12 190 167&#xA;194 22 1 75 -8 118 -19z"/>
    <path d="M8781 6890 c-257 -54 -498 -249 -675 -544 -58 -97 -44 -176 23 -132&#xA;48 32 245 125 331 156 47 17 164 53 260 80 218 60 274 81 335 125 125 89 128&#xA;219 6 288 -46 26 -64 30 -144 33 -51 2 -112 -1 -136 -6z m179 -81 c56 -12 110&#xA;-51 110 -80 0 -29 -56 -86 -113 -113 -29 -14 -138 -50 -242 -80 -230 -66 -347&#xA;-107 -439 -152 -39 -19 -71 -34 -73 -34 -7 0 81 116 134 177 146 168 362 284&#xA;545 292 15 0 50 -4 78 -10z"/>
    <path d="M1460 6819 c-148 -29 -230 -106 -230 -216 0 -88 67 -156 185 -188 57&#xA;-16 85 -17 213 -9 200 12 407 10 462 -5 25 -6 75 -21 111 -33 74 -23 99 -20&#xA;99 14 0 88 -183 274 -355 360 -147 74 -343 105 -485 77z m305 -93 c111 -29&#xA;239 -102 324 -184 42 -40 69 -71 59 -69 -68 22 -195 29 -348 21 -269 -14 -348&#xA;-12 -401 12 -62 29 -89 60 -89 102 0 44 13 66 53 91 84 52 260 64 402 27z"/>
    <path d="M3590 6477 c-53 -35 -74 -80 -73 -154 1 -88 55 -197 155 -312 115&#xA;-132 175 -211 209 -274 36 -68 57 -71 78 -12 11 32 11 64 3 165 -25 289 -132&#xA;534 -256 591 -54 24 -76 24 -116 -4z m87 -67 c67 -41 136 -168 182 -338 18&#xA;-67 39 -233 25 -204 -3 7 -55 72 -115 144 -130 157 -179 245 -179 324 0 41 5&#xA;59 20 74 25 25 27 25 67 0z"/>
    <path d="M7015 6087 c-166 -55 -324 -207 -433 -415 -102 -195 -160 -432 -117&#xA;-475 27 -27 40 -21 93 46 101 125 222 232 422 372 208 145 270 219 270 322 0&#xA;55 -24 101 -72 136 -33 25 -110 31 -163 14z m112 -78 c35 -13 43 -25 43 -70 0&#xA;-77 -69 -146 -330 -329 -51 -36 -140 -109 -197 -164 -118 -113 -118 -113 -52&#xA;59 89 232 251 427 406 491 65 26 89 29 130 13z"/>
    <path d="M8718 4838 c-173 -21 -419 -160 -401 -227 4 -17 17 -19 146 -24 130&#xA;-4 154 -8 281 -46 205 -61 306 -56 369 18 21 26 27 43 27 80 0 139 -189 228&#xA;-422 199z m184 -79 c68 -15 121 -41 147 -75 28 -36 26 -58 -5 -83 -41 -32&#xA;-136 -28 -265 10 -57 17 -149 38 -203 48 l-100 17 75 33 c126 56 242 73 351&#xA;50z"/>
    <path d="M6615 4041 c-97 -44 -197 -205 -231 -371 -17 -82 -14 -140 6 -140 5&#xA;0 12 17 15 38 24 144 71 269 132 349 38 49 100 93 133 93 76 0 70 -86 -26&#xA;-385 -75 -230 -72 -335 9 -335 25 0 45 15 113 85 81 84 160 135 210 135 36 0&#xA;74 -37 74 -73 0 -58 -19 -101 -106 -247 -47 -80 -101 -178 -121 -219 -40 -85&#xA;-85 -250 -81 -300 6 -64 24 -44 42 45 23 120 64 220 142 349 153 255 186 335&#xA;165 405 -15 51 -58 80 -120 80 -69 0 -127 -34 -223 -132 -48 -48 -92 -88 -97&#xA;-88 -16 0 -23 39 -17 88 4 26 29 117 56 202 85 271 95 332 65 390 -27 53 -71&#xA;63 -140 31z"/>
    <path d="M8627 3730 c-82 -25 -75 -52 39 -152 163 -141 195 -161 263 -166 57&#xA;-4 62 -3 92 27 29 29 31 36 27 85 -5 64 -33 107 -97 148 -91 57 -238 84 -324&#xA;58z m234 -88 c26 -11 63 -37 83 -57 30 -29 37 -43 34 -68 -6 -67 -82 -42 -220&#xA;74 -39 32 -75 59 -80 59 -5 0 -6 5 -2 11 10 17 131 5 185 -19z"/>
    <path d="M1593 3375 c-119 -37 -190 -116 -180 -201 14 -127 155 -158 358 -79&#xA;52 21 139 49 193 64 122 33 141 52 101 99 -61 73 -218 132 -347 131 -46 0&#xA;-102 -6 -125 -14z m282 -89 c37 -14 75 -32 84 -40 14 -15 13 -16 -12 -16 -15&#xA;0 -80 -20 -145 -44 -136 -51 -162 -57 -232 -58 -150 -1 -101 140 65 183 50 14&#xA;169 1 240 -25z"/>
    <path d="M2205 2130 c-659 -118 -848 -419 -400 -635 119 -57 224 -90 256 -80&#xA;36 12 14 29 -97 75 -60 25 -133 59 -163 75 -66 36 -146 107 -167 148 -73 140&#xA;220 302 684 377 73 12 101 32 71 51 -20 13 -71 10 -184 -11z"/>
    <path d="M8240 1931 c0 -16 25 -28 110 -50 118 -30 275 -108 344 -171 63 -58&#xA;83 -105 72 -167 -11 -59 -99 -138 -213 -193 -51 -24 -93 -48 -93 -52 0 -36&#xA;133 0 227 61 67 43 118 107 134 165 42 154 -116 310 -396 391 -86 25 -185 33&#xA;-185 16z"/>
    <path d="M2563 1910 c-124 -33 -197 -84 -234 -165 -24 -52 -24 -82 3 -152 70&#xA;-188 381 -329 768 -350 116 -6 160 4 160 36 0 17 -10 20 -82 26 -405 33 -681&#xA;137 -768 288 -16 29 -30 65 -30 80 0 92 107 165 289 196 84 14 96 19 96 36 0&#xA;18 -7 20 -65 22 -39 1 -94 -5 -137 -17z"/>
    <path d="M7325 1345 c-70 -91 -266 -153 -540 -170 -158 -10 -194 -22 -290&#xA;-105 -116 -99 -234 -151 -450 -196 -149 -31 -345 -41 -470 -25 -49 7 -169 29&#xA;-265 49 -219 45 -382 50 -545 15 -177 -38 -268 -46 -485 -40 -148 4 -237 11&#xA;-320 27 -135 25 -303 79 -377 121 -59 33 -81 36 -89 14 -24 -61 203 -166 456&#xA;-211 265 -46 534 -41 820 17 194 39 281 36 522 -15 240 -51 283 -57 441 -58&#xA;289 -2 572 77 739 206 170 132 147 123 398 145 256 22 471 117 496 218 11 43&#xA;-11 48 -41 8z"/>
    <path d="M2269 1114 c-10 -13 -10 -22 1 -52 21 -60 49 -92 126 -142 137 -89&#xA;328 -151 571 -186 154 -22 393 -25 417 -5 9 8 13 18 8 23 -5 5 -62 13 -128 19&#xA;-363 31 -660 105 -837 210 -55 33 -73 51 -98 95 -33 58 -40 62 -60 38z"/>
  </g>
  <title>Mermaid Tail Splash</title>
  <desc>Mermaid Tail Splash</desc>
</svg>