<?xml version="1.0" encoding="UTF-8" standalone="yes"?>
<svg version="1.0" xmlns="http://www.w3.org/2000/svg" width="1024.000000pt" height="1024.000000pt" viewBox="0 0 1024.000000 1024.000000" preserveAspectRatio="xMidYMid meet">
  <metadata>
Created by potrace 1.16, written by Peter Selinger 2001-2019
</metadata>
  <g transform="translate(0.000000,1024.000000) scale(0.100000,-0.100000)" fill="#000000" stroke="none">
    <path d="M2795 8963 c-79 -7 -272 -44 -365 -70 -566 -153 -1073 -597 -1246&#xA;-1090 l-29 -83 -65 6 c-36 4 -67 7 -70 7 -3 1 -29 -2 -57 -6 -185 -26 -295&#xA;-167 -295 -377 0 -125 32 -212 108 -286 63 -63 179 -117 273 -129 14 -1 30 -3&#xA;34 -4 5 0 6 -49 2 -108 -40 -639 -20 -1037 79 -1526 114 -563 358 -1195 649&#xA;-1682 235 -392 453 -678 747 -979 271 -278 497 -465 810 -673 613 -407 1230&#xA;-639 1955 -734 183 -24 657 -35 830 -18 582 55 1083 206 1536 462 657 372&#xA;1147 888 1464 1542 184 381 286 730 351 1205 22 159 25 665 6 845 -81 749&#xA;-317 1396 -716 1965 -237 337 -600 701 -916 918 -285 195 -590 315 -837 329&#xA;-175 9 -282 -20 -347 -98 -22 -25 -26 -40 -26 -90 0 -95 14 -112 235 -295 410&#xA;-338 763 -818 934 -1269 69 -182 129 -432 151 -630 18 -165 9 -519 -16 -638&#xA;-5 -25 -11 -19 -87 90 -45 65 -118 154 -162 199 -176 176 -354 204 -545 85 -8&#xA;-5 -34 -14 -58 -21 -83 -22 -159 -119 -183 -231 -7 -35 -21 -65 -40 -84 -58&#xA;-62 -75 -160 -44 -261 8 -27 15 -51 15 -53 0 -2 -42 -1 -92 3 -103 7 -267 -7&#xA;-362 -31 -67 -17 -199 -74 -210 -91 -4 -7 -24 -3 -59 12 -87 39 -266 92 -369&#xA;111 l-98 17 40 29 c58 42 117 122 166 224 92 190 110 373 55 546 -39 121 -90&#xA;208 -171 291 -36 36 -94 98 -129 138 -126 141 -201 172 -421 175 -80 1 -186 5&#xA;-236 10 -79 7 -100 5 -160 -13 -42 -13 -85 -34 -109 -55 -35 -30 -49 -35 -111&#xA;-40 -39 -3 -88 -12 -108 -21 -20 -8 -36 -12 -36 -8 0 4 32 48 72 97 206 260&#xA;310 489 334 733 4 49 11 72 20 72 90 0 313 -54 396 -96 58 -30 75 -28 52 5&#xA;-48 68 -213 130 -370 138 l-102 6 -6 46 c-4 25 -20 77 -36 115 -16 38 -28 71&#xA;-27 72 1 2 47 15 102 29 93 24 182 37 349 51 62 5 67 7 53 21 -21 21 -186 30&#xA;-269 14 -35 -7 -110 -26 -167 -43 -100 -30 -104 -30 -114 -12 -5 11 -45 54&#xA;-89 98 -43 43 -78 79 -76 81 82 59 323 180 471 235 48 19 87 37 87 42 0 30&#xA;-225 -19 -332 -73 -73 -37 -201 -120 -240 -157 l-27 -25 -36 27 c-19 15 -47&#xA;50 -61 78 -47 93 -142 247 -199 322 l-56 75 17 57 c35 121 2 272 -76 353 -38&#xA;40 -117 77 -182 86 -63 9 -140 -15 -206 -66 l-52 -38 -89 34 c-110 43 -255 81&#xA;-376 99 -84 12 -340 18 -430 9z m390 -94 c495 -59 912 -361 1159 -842 43 -83&#xA;62 -110 107 -145 95 -76 177 -151 199 -182 l22 -30 -32 -11 c-57 -20 -215&#xA;-101 -205 -105 6 -2 64 14 130 36 65 22 123 40 128 40 11 0 64 -117 72 -161&#xA;l7 -36 -107 -7 c-105 -7 -165 -22 -180 -46 -5 -8 31 -9 143 -4 l151 6 -5 -58&#xA;c-10 -108 -23 -163 -64 -268 -80 -204 -230 -420 -459 -660 -136 -143 -168&#xA;-182 -158 -192 3 -3 15 -3 26 1 25 8 172 115 218 158 18 17 35 29 37 26 2 -2&#xA;-16 -47 -40 -99 -23 -52 -46 -109 -49 -126 -6 -27 -15 -35 -53 -49 -100 -39&#xA;-164 -141 -178 -287 l-7 -73 -82 -54 c-45 -29 -118 -82 -161 -118 -174 -142&#xA;-329 -232 -495 -288 -139 -47 -170 -51 -194 -25 -50 55 -257 165 -420 224&#xA;-113 40 -295 69 -295 47 0 -9 8 -13 155 -67 145 -53 415 -192 446 -230 6 -8&#xA;18 -14 25 -14 8 0 14 -4 14 -9 0 -5 -44 -12 -97 -15 -107 -8 -133 -13 -133&#xA;-26 0 -18 67 -30 164 -30 296 0 558 108 876 359 74 59 159 121 187 139 136 82&#xA;273 94 395 34 56 -27 126 -87 116 -98 -2 -1 -44 -4 -93 -5 -49 -1 -114 -8&#xA;-145 -16 -97 -26 -229 -101 -215 -123 5 -9 91 14 109 29 32 26 155 52 244 52&#xA;157 0 207 -40 207 -164 -1 -40 -6 -84 -12 -99 l-12 -26 -43 15 c-86 31 -235&#xA;13 -298 -36 -35 -27 -22 -33 35 -16 66 20 169 18 225 -4 24 -10 46 -23 47 -28&#xA;7 -20 -38 -120 -65 -145 -15 -14 -65 -47 -112 -73 -47 -25 -100 -61 -119 -78&#xA;-18 -18 -109 -122 -201 -232 -93 -110 -201 -232 -242 -272 -170 -166 -364&#xA;-272 -612 -334 -120 -31 -381 -38 -513 -14 -246 44 -480 158 -677 331 -42 37&#xA;-79 64 -82 61 -13 -12 62 -125 122 -183 139 -138 325 -232 565 -286 90 -20&#xA;130 -23 294 -23 202 1 265 10 430 61 183 57 400 189 549 332 72 70 244 273&#xA;299 354 23 33 63 79 89 102 57 50 191 132 195 120 2 -5 12 -24 23 -42 54 -89&#xA;150 -94 340 -17 73 29 123 44 138 40 12 -3 58 -6 102 -6 102 -1 170 28 220 92&#xA;18 24 37 48 40 52 4 4 38 12 75 18 79 11 149 39 186 75 l27 26 103 -22 c260&#xA;-55 508 -165 710 -315 171 -127 364 -354 435 -512 19 -43 44 -96 55 -118 l20&#xA;-40 -5 61 c-6 74 -25 133 -77 238 -114 231 -281 401 -538 547 l-94 54 49 22&#xA;c84 37 206 57 359 58 77 0 161 -4 186 -8 44 -7 49 -12 84 -71 20 -34 79 -112&#xA;131 -172 51 -60 149 -176 216 -259 180 -220 340 -383 368 -373 27 9 -204 320&#xA;-453 612 -146 170 -199 247 -252 366 -70 157 -30 283 89 283 65 0 165 -74 258&#xA;-190 45 -57 53 -64 56 -45 8 52 -118 217 -203 267 -25 14 -67 29 -95 32 -49 6&#xA;-49 6 -43 37 13 70 84 158 140 172 72 18 199 -82 305 -240 103 -154 118 -168&#xA;88 -81 -46 134 -142 284 -218 342 -38 29 -41 34 -25 41 10 4 47 7 83 7 142 0&#xA;270 -103 433 -345 141 -212 297 -549 371 -805 49 -169 68 -284 73 -440 8 -216&#xA;-18 -303 -116 -387 -58 -49 -100 -59 -282 -63 -227 -6 -281 -24 -416 -141 -62&#xA;-55 -108 -128 -101 -161 3 -14 15 -7 61 36 65 62 66 60 37 -68 -61 -274 -224&#xA;-570 -411 -746 l-74 -69 -17 125 c-28 207 -82 391 -188 639 -204 477 -498 948&#xA;-673 1079 -79 59 -115 74 -192 79 -58 3 -83 0 -145 -23 -61 -21 -95 -27 -180&#xA;-28 -119 -2 -145 -12 -212 -79 -43 -43 -82 -121 -93 -184 -5 -26 -19 -50 -42&#xA;-72 -49 -46 -75 -111 -81 -207 l-5 -82 -69 29 c-39 17 -114 41 -167 56 -86 23&#xA;-114 26 -271 26 -157 0 -186 -3 -283 -27 -59 -15 -138 -40 -176 -56 -233 -99&#xA;-461 -352 -547 -606 -35 -106 -44 -258 -20 -360 21 -86 84 -206 139 -263 74&#xA;-77 78 -68 21 46 -65 127 -84 196 -89 317 -4 115 15 207 65 312 79 168 196&#xA;306 341 402 145 97 286 139 499 148 198 8 370 -27 532 -108 55 -28 58 -32 112&#xA;-136 135 -260 467 -632 746 -837 79 -59 179 -111 191 -99 4 4 -33 44 -83 88&#xA;-446 390 -771 790 -843 1040 -31 107 -5 239 54 269 78 41 131 10 376 -212 142&#xA;-130 153 -98 22 64 -108 132 -197 202 -289 225 -54 14 -55 17 -24 91 36 85&#xA;100 131 181 131 109 0 200 -71 322 -253 39 -58 78 -112 88 -120 17 -14 18 -13&#xA;11 20 -17 89 -166 339 -211 356 -43 17 25 43 113 45 97 3 199 -76 335 -259&#xA;198 -268 454 -771 566 -1114 70 -218 84 -288 85 -433 1 -115 -2 -136 -22 -180&#xA;-57 -125 -184 -195 -377 -210 -39 -3 -135 -10 -215 -16 -198 -14 -317 -56&#xA;-459 -163 -30 -22 -32 -26 -14 -26 12 0 57 13 100 29 156 59 253 77 443 80&#xA;127 2 261 19 335 42 141 43 248 150 284 285 9 32 17 42 44 52 68 25 221 178&#xA;312 314 116 172 214 418 256 643 20 110 23 118 52 136 53 32 156 49 296 49&#xA;106 0 143 4 195 21 128 42 212 138 251 289 25 96 16 322 -20 495 -49 237 -118&#xA;435 -233 677 l-61 126 14 84 c27 161 40 451 27 624 -57 768 -442 1480 -1107&#xA;2044 -189 160 -225 199 -225 244 0 72 92 102 280 93 399 -20 864 -290 1329&#xA;-771 408 -422 740 -1000 906 -1576 116 -402 169 -770 169 -1170 0 -258 -9&#xA;-367 -49 -618 -154 -950 -661 -1768 -1430 -2306 -483 -339 -968 -528 -1591&#xA;-621 -157 -23 -280 -30 -529 -30 -335 0 -536 19 -845 81 -651 130 -1271 419&#xA;-1860 867 -645 492 -1180 1186 -1530 1987 -252 576 -405 1180 -437 1722 -15&#xA;247 -8 720 14 935 6 61 7 63 48 87 23 14 50 37 60 52 l17 27 -28 -7 c-191 -43&#xA;-306 -27 -418 59 -103 79 -135 278 -66 415 35 69 109 113 210 124 100 11 248&#xA;-45 337 -127 l45 -42 -16 40 c-20 47 -36 67 -94 121 l-44 40 37 99 c210 561&#xA;782 994 1438 1089 114 17 362 20 482 5z m820 -48 c81 -36 136 -135 134 -240&#xA;-1 -89 -5 -89 -104 0 -50 44 -129 107 -177 139 l-87 59 32 20 c74 45 136 52&#xA;202 22z m995 -2306 c33 -6 40 -10 35 -23 -4 -10 -13 -43 -21 -74 -25 -97 5&#xA;-202 75 -261 19 -16 30 -37 35 -66 14 -88 71 -161 141 -182 38 -11 44 -18 55&#xA;-53 7 -23 20 -50 30 -61 14 -16 19 -43 23 -126 5 -121 -7 -207 -52 -365 -32&#xA;-112 -38 -149 -21 -139 28 17 92 183 111 288 12 67 14 244 4 278 -6 19 -4 20&#xA;17 12 12 -4 52 -7 87 -7 l63 2 -4 -87 c-5 -103 -24 -150 -152 -366 -46 -77&#xA;-105 -178 -132 -224 -55 -95 -71 -105 -176 -116 -62 -7 -69 -5 -110 22 -63 43&#xA;-282 133 -323 133 -10 0 -5 19 20 71 18 39 37 94 40 122 l7 52 131 -133 c73&#xA;-73 133 -128 135 -123 9 27 -61 124 -163 226 -67 67 -118 128 -131 155 -12 25&#xA;-33 56 -48 70 -15 14 -39 47 -52 75 -31 62 -56 90 -114 127 -73 47 -172 71&#xA;-260 65 -42 -3 -84 -9 -93 -13 -40 -15 -5 135 45 192 48 54 81 67 178 68 156&#xA;1 229 -46 384 -245 135 -174 182 -260 313 -571 20 -48 36 -38 28 16 -15 96&#xA;-88 266 -182 421 -134 222 -370 478 -470 509 -34 11 -28 -3 25 -57 41 -42 44&#xA;-48 22 -42 -14 3 -36 7 -50 9 -56 7 -90 19 -90 33 0 8 17 54 37 101 63 146&#xA;141 201 265 190 50 -5 56 -9 117 -74 80 -86 142 -181 219 -332 102 -200 142&#xA;-319 205 -602 l15 -65 1 106 c1 119 -25 245 -84 399 -75 196 -213 436 -312&#xA;541 -35 37 -63 69 -63 72 0 9 59 39 103 52 40 12 68 12 137 0z m414 -15 c50&#xA;-16 77 -32 118 -71 29 -28 44 -48 34 -45 -45 15 -137 18 -185 6 -67 -16 -161&#xA;-77 -197 -129 -32 -45 -39 -46 -67 -9 -40 53 -28 189 18 228 51 43 177 51 279&#xA;20z m196 -193 c104 -53 187 -159 246 -312 23 -61 27 -85 28 -185 1 -164 -38&#xA;-284 -139 -425 -46 -64 -105 -125 -105 -109 0 6 -18 31 -41 55 l-40 44 46 92&#xA;c42 83 48 102 52 177 4 63 2 91 -10 114 -13 27 -13 33 -1 43 17 14 18 39 2 39&#xA;-7 0 -35 -7 -63 -15 -94 -29 -187 8 -201 80 -8 41 28 92 86 122 39 20 55 23&#xA;120 19 41 -2 85 -8 98 -11 35 -11 27 16 -13 44 -28 19 -49 24 -103 25 -82 1&#xA;-148 -26 -209 -86 l-41 -40 -38 18 c-66 33 -95 98 -80 180 9 48 86 125 147&#xA;147 71 26 190 18 259 -16z m-52 -1042 c28 -58 28 -86 0 -113 -23 -21 -91 -41&#xA;-141 -42 -27 0 -27 0 39 100 37 55 70 100 74 100 3 0 16 -20 28 -45z m-818&#xA;-245 c156 -54 235 -88 220 -93 -67 -22 -223 -60 -260 -62 -35 -3 -50 1 -68 18&#xA;-22 20 -52 68 -52 81 0 5 70 86 74 86 1 0 40 -13 86 -30z"/>
    <path d="M3484 8631 c-52 -32 -96 -101 -64 -101 6 0 28 9 50 20 71 36 125 26&#xA;252 -48 110 -63 125 -42 36 54 -79 85 -202 119 -274 75z"/>
    <path d="M2343 8260 c-97 -49 -162 -148 -171 -258 -5 -59 9 -112 28 -112 9 0&#xA;26 41 40 100 16 62 72 144 121 177 23 15 71 35 106 44 l65 16 -32 23 c-46 32&#xA;-105 36 -157 10z"/>
    <path d="M3763 8029 c-53 -26 -67 -60 -61 -142 6 -72 32 -130 86 -189 105&#xA;-116 252 -78 252 65 0 49 -34 140 -71 192 -31 43 -112 95 -148 95 -9 0 -35 -9&#xA;-58 -21z"/>
    <path d="M2661 7622 c-61 -30 -76 -62 -75 -155 2 -184 112 -304 250 -273 99&#xA;22 132 167 69 304 -57 124 -151 172 -244 124z"/>
    <path d="M3620 7603 c-14 -2 -66 -24 -115 -48 -76 -36 -103 -57 -166 -122 -99&#xA;-103 -124 -155 -124 -253 0 -69 3 -79 33 -122 36 -52 87 -87 178 -119 47 -18&#xA;83 -22 184 -23 69 0 139 3 157 7 l31 8 -8 -35 c-12 -54 -52 -116 -112 -172&#xA;-106 -100 -207 -144 -333 -144 -102 0 -240 47 -310 105 l-30 25 35 29 c19 16&#xA;32 33 28 36 -4 4 -26 10 -50 12 -33 4 -49 0 -68 -15 -32 -25 -76 -105 -85&#xA;-154 -7 -34 -6 -36 15 -31 12 3 30 19 40 35 l17 29 17 -60 c42 -151 159 -321&#xA;268 -391 110 -72 271 -88 384 -39 148 63 233 175 331 439 l35 97 65 12 c112&#xA;21 186 69 252 164 58 86 83 152 88 240 l6 82 43 -4 c24 -1 44 1 44 6 0 25 -73&#xA;63 -121 63 -61 0 -91 -38 -48 -61 19 -10 21 -18 17 -68 -6 -81 -49 -162 -128&#xA;-243 -79 -79 -112 -91 -248 -91 -117 1 -125 7 -116 86 7 57 7 57 63 89 145 83&#xA;261 245 261 366 0 133 -77 214 -245 257 -55 14 -222 19 -285 8z m202 -93 c32&#xA;-5 88 -23 125 -41 l67 -32 -225 -53 c-251 -61 -309 -78 -358 -106 -18 -10 -36&#xA;-17 -38 -14 -3 2 10 32 28 66 49 92 124 147 236 174 71 18 93 18 165 6z m-547&#xA;-1031 c52 -14 87 -47 147 -139 44 -66 49 -71 43 -40 -4 19 -25 66 -48 103 -46&#xA;78 -43 87 33 87 86 0 197 -79 216 -154 5 -22 1 -33 -21 -56 -69 -72 -221 -87&#xA;-337 -33 -96 45 -208 155 -208 204 0 33 98 49 175 28z"/>
    <path d="M890 7449 c-20 -8 -22 -12 -10 -19 8 -5 26 -10 40 -10 54 0 215 -96&#xA;284 -169 26 -27 66 -42 66 -25 0 15 -65 97 -107 134 -92 81 -202 117 -273 89z"/>
    <path d="M8051 7105 c184 -339 206 -383 308 -625 37 -86 41 -92 41 -57 1 153&#xA;-178 519 -341 697 l-41 45 33 -60z"/>
    <path d="M2670 6983 c-248 -41 -546 -134 -694 -217 -65 -36 -160 -115 -139&#xA;-116 14 0 147 56 229 98 129 65 358 133 629 187 164 32 172 35 154 46 -14 9&#xA;-131 10 -179 2z"/>
    <path d="M2780 6773 c-125 -32 -337 -169 -476 -307 -104 -105 -200 -234 -185&#xA;-249 15 -15 47 10 102 80 121 156 289 288 495 391 98 49 129 72 122 90 -1 6&#xA;-27 3 -58 -5z"/>
    <path d="M1452 6438 c-15 -15 -16 -84 -1 -146 6 -26 33 -93 60 -150 80 -166&#xA;204 -275 341 -301 26 -4 50 -6 52 -3 3 2 -20 23 -52 44 -170 118 -292 287&#xA;-366 506 -17 50 -24 60 -34 50z"/>
    <path d="M1696 6148 c67 -131 186 -249 317 -313 161 -77 320 -105 432 -74 l39&#xA;11 -24 13 c-14 7 -69 20 -122 29 -105 18 -239 61 -329 107 -66 33 -182 124&#xA;-259 203 -62 64 -78 71 -54 24z"/>
    <path d="M3900 6083 c-8 -3 -49 -22 -90 -41 -163 -76 -316 -119 -525 -147&#xA;-208 -28 -193 -50 35 -50 120 0 160 4 230 23 112 31 192 70 288 141 95 70 114&#xA;93 62 74z"/>
  </g>
  <title>Otter Holding Shell</title>
  <desc>Otter Holding Shell</desc>
</svg>