<?xml version="1.0" standalone="no"?>
<!DOCTYPE svg PUBLIC "-//W3C//DTD SVG 20010904//EN"
 "http://www.w3.org/TR/2001/REC-SVG-20010904/DTD/svg10.dtd">
<svg version="1.0" xmlns="http://www.w3.org/2000/svg"
 width="1024.000000pt" height="1024.000000pt" viewBox="0 0 1024.000000 1024.000000"
 preserveAspectRatio="xMidYMid meet">
<metadata>
Created by potrace 1.16, written by Peter Selinger 2001-2019
</metadata>
<g transform="translate(0.000000,1024.000000) scale(0.100000,-0.100000)"
fill="#000000" stroke="none">
<path d="M1819 9090 c-41 -7 -102 -47 -93 -61 3 -5 0 -8 -7 -7 -20 5 -50 -57
-56 -114 -8 -76 11 -132 59 -178 119 -116 324 -64 354 90 13 72 -2 170 -27
170 -5 0 -8 4 -6 9 3 11 -47 57 -81 75 -34 17 -96 24 -143 16z m66 -59 c43 -5
69 -21 102 -63 24 -29 30 -48 32 -93 2 -56 1 -58 -44 -101 -40 -39 -51 -44
-91 -44 -25 0 -58 7 -73 15 -16 8 -32 11 -36 7 -5 -4 -5 -1 -1 6 4 6 3 12 -3
12 -15 0 -51 83 -51 117 0 16 7 44 15 61 18 35 70 82 91 82 8 0 14 6 14 13 0
7 3 8 8 2 4 -6 21 -12 37 -14z m-180 -110 c3 -5 2 -12 -3 -15 -5 -3 -9 1 -9 9
0 17 3 19 12 6z m352 -15 c0 -8 -6 -12 -15 -9 -11 5 -11 7 0 14 7 5 13 9 14 9
0 0 1 -6 1 -14z"/>
<path d="M3887 8887 c3 -6 1 -7 -6 -3 -22 14 -92 -6 -126 -35 -28 -25 -60 -90
-71 -144 -21 -110 -26 -161 -26 -270 1 -180 35 -320 97 -400 14 -17 17 -18 26
-5 9 13 10 12 5 -2 -13 -41 98 -61 211 -39 26 5 86 15 132 22 52 8 85 18 88
27 4 10 8 10 13 2 10 -16 63 -1 56 16 -3 7 -1 16 5 19 5 4 9 3 8 -2 -4 -24 7
-28 71 -30 82 -1 129 -25 154 -77 21 -44 33 -198 35 -448 l2 -208 -73 -1 c-88
0 -129 -5 -278 -30 -230 -40 -259 -61 -309 -220 -57 -180 -75 -234 -80 -241
-3 -4 -55 -12 -116 -17 -150 -15 -173 -18 -310 -42 -66 -11 -134 -22 -150 -25
-17 -2 -55 -11 -85 -19 -30 -9 -66 -18 -80 -20 -58 -10 -305 -78 -367 -102
-24 -8 -40 -19 -37 -24 3 -5 -1 -6 -8 -4 -8 3 -54 -11 -103 -30 -134 -53 -144
-59 -139 -67 3 -4 -1 -5 -9 -2 -20 7 -254 -116 -242 -128 3 -2 -1 -5 -8 -5
-23 0 -98 -53 -91 -65 4 -7 3 -8 -4 -4 -16 10 -54 -12 -46 -26 4 -6 3 -8 -3
-5 -10 6 -125 -67 -131 -84 -2 -5 -9 -9 -15 -9 -19 -1 -172 -136 -169 -149 1
-7 -1 -10 -6 -7 -5 3 -51 -38 -103 -92 -119 -122 -151 -161 -143 -174 4 -6 2
-8 -4 -5 -29 18 -271 -403 -276 -479 0 -12 -4 -20 -7 -18 -14 8 -74 -221 -85
-326 -3 -25 -7 -51 -9 -58 -6 -16 -6 -295 -1 -332 2 -14 7 -47 10 -72 15 -111
83 -301 168 -471 29 -59 29 -59 51 -40 l22 18 -18 -22 c-17 -20 -17 -23 -2
-52 9 -18 19 -29 24 -27 4 3 8 0 8 -7 0 -20 75 -127 85 -121 4 3 7 0 6 -8 -2
-7 3 -12 10 -10 8 1 11 -2 8 -7 -6 -9 18 -43 74 -104 19 -21 39 -45 43 -53 5
-8 13 -11 19 -8 6 4 8 3 5 -3 -8 -13 37 -56 48 -46 4 5 5 3 2 -3 -8 -15 142
-156 156 -147 5 3 7 1 4 -4 -7 -12 148 -136 169 -136 7 0 12 -5 11 -10 -3 -15
125 -98 141 -92 7 3 10 1 7 -5 -3 -5 4 -14 15 -20 11 -6 20 -7 20 -3 0 4 5 0
11 -9 5 -10 17 -18 24 -18 8 0 15 -4 15 -8 0 -4 17 -15 37 -25 29 -13 39 -14
46 -4 6 8 7 6 3 -6 -5 -15 12 -27 97 -67 206 -98 386 -170 458 -185 8 -2 49
-14 90 -28 41 -14 90 -29 109 -33 41 -9 41 -9 60 -16 13 -5 106 -31 120 -33 3
-1 40 -7 83 -15 54 -9 81 -18 85 -29 3 -9 10 -19 16 -23 8 -5 7 -8 -1 -8 -17
0 23 -93 76 -175 58 -89 214 -251 231 -240 8 5 11 4 6 -3 -3 -6 3 -16 16 -23
12 -6 31 -20 41 -30 26 -24 153 -89 241 -124 88 -34 206 -43 268 -18 107 41
123 93 123 396 0 187 0 187 23 188 88 5 106 0 162 -46 30 -25 61 -43 68 -40 7
3 11 1 7 -4 -3 -5 12 -20 32 -32 21 -13 40 -26 43 -29 16 -20 182 -110 192
-104 6 4 8 3 5 -3 -8 -12 158 -88 190 -87 12 0 19 -4 17 -8 -3 -4 3 -11 13
-15 10 -3 36 -14 58 -23 70 -30 114 -42 137 -35 17 5 19 4 9 -4 -13 -8 26 -25
114 -47 96 -25 183 -45 208 -48 18 -2 43 -7 57 -10 14 -3 47 -8 74 -11 27 -3
52 -8 55 -9 15 -9 250 -21 371 -20 119 2 176 9 275 37 34 10 115 59 110 67 -3
5 0 7 8 4 8 -3 25 8 41 26 37 45 36 110 -3 172 -40 63 -161 189 -174 181 -6
-3 -7 -1 -3 5 4 7 -20 40 -56 79 -35 38 -77 82 -92 100 -16 18 -33 30 -39 26
-6 -3 -7 -2 -4 4 8 13 -37 56 -48 46 -4 -5 -5 -3 -1 4 8 14 -92 125 -105 117
-5 -3 -6 1 -3 9 3 8 1 18 -5 22 -20 12 -11 23 22 30 17 4 41 12 52 18 11 6 26
12 34 13 8 2 18 9 22 16 6 9 9 9 9 1 0 -8 7 -8 29 0 17 6 27 15 24 21 -3 5 -1
6 4 3 6 -4 35 2 64 12 182 62 218 75 256 93 24 11 40 25 36 31 -3 6 -1 7 6 3
15 -10 122 34 114 47 -3 6 -1 7 5 3 15 -9 214 83 206 95 -3 5 3 6 12 2 13 -5
15 -3 9 7 -5 8 -4 11 3 6 14 -9 103 35 95 47 -3 6 -1 7 5 3 7 -4 48 13 93 38
45 25 83 46 86 46 13 0 51 38 45 45 -4 5 -1 5 6 1 7 -4 25 0 40 10 15 10 62
39 104 65 107 65 219 149 212 160 -3 5 1 6 9 3 8 -3 28 8 44 23 l31 29 0 -24
c0 -13 6 -28 13 -33 8 -5 11 -9 6 -9 -4 0 2 -19 14 -43 35 -68 90 -147 99
-142 5 3 12 0 16 -6 4 -8 3 -9 -4 -5 -23 14 -11 -7 34 -60 25 -29 51 -51 57
-47 6 3 7 1 3 -5 -4 -6 10 -26 30 -44 20 -18 42 -38 48 -43 34 -32 182 -128
251 -163 92 -47 200 -82 239 -78 14 2 26 0 26 -4 0 -4 16 -6 36 -4 60 5 105
45 99 87 -2 10 1 14 7 10 8 -4 9 22 5 88 -6 103 -26 211 -36 204 -4 -2 -7 6
-8 18 -1 58 -3 68 -15 61 -6 -4 -8 -3 -4 4 6 9 -17 80 -44 137 -5 11 -14 33
-20 48 -6 17 -14 25 -22 21 -7 -4 -8 -3 -4 4 8 14 -18 55 -28 45 -4 -4 -5 -1
-2 7 3 8 -16 47 -43 85 -35 51 -53 69 -67 67 -16 -2 -16 -1 -4 7 12 8 9 16
-19 45 -19 19 -39 32 -44 29 -6 -3 -7 -1 -4 4 4 6 -16 31 -43 56 -28 25 -50
47 -50 49 0 2 19 3 43 3 82 1 146 27 194 78 98 104 56 250 -106 371 -51 38
-56 44 -56 81 -1 22 -4 59 -8 82 -3 24 -3 42 1 42 21 -3 32 2 26 13 -4 7 -3 8
5 4 15 -10 43 13 34 27 -3 6 -1 7 5 3 17 -10 41 5 141 89 101 83 215 211 205
227 -4 7 -3 8 4 4 21 -13 189 231 281 408 34 65 66 126 71 135 65 124 86 234
54 279 -48 69 -180 91 -434 72 -29 -2 -115 -21 -168 -36 -47 -14 -52 -18 -40
-32 11 -15 11 -15 -3 -4 -17 13 -53 6 -43 -9 3 -5 -3 -6 -12 -2 -12 4 -15 3
-10 -5 4 -7 2 -10 -7 -6 -23 8 -215 -108 -209 -128 1 -5 -2 -7 -7 -3 -10 5
-54 -29 -127 -100 -17 -16 -46 -43 -63 -58 -18 -15 -29 -33 -25 -39 4 -6 3 -8
-4 -5 -17 11 -168 -183 -154 -198 4 -5 -47 39 -112 98 -66 58 -124 103 -129
100 -6 -3 -7 -2 -4 4 9 15 -119 116 -135 107 -7 -4 -10 -4 -6 1 4 4 -11 22
-35 39 -23 17 -51 39 -62 49 -10 9 -25 15 -33 12 -7 -2 -10 -1 -7 5 7 12 -41
44 -54 35 -7 -3 -8 0 -5 9 4 10 1 16 -9 16 -8 0 -17 3 -19 8 -4 10 -152 107
-274 180 -164 97 -644 329 -714 344 -8 2 -21 9 -28 16 -7 6 -20 12 -27 12 -7
0 -49 14 -92 32 -43 17 -84 31 -90 31 -7 0 -13 3 -13 7 0 4 -6 7 -12 8 -18 1
-176 48 -215 63 -30 12 -38 28 -48 89 -1 8 -14 60 -29 115 -16 55 -30 107 -32
115 -2 8 -8 33 -14 55 -6 22 -13 49 -15 60 -30 130 -73 231 -99 229 -9 -1 -13
2 -10 7 7 12 -64 42 -78 33 -7 -4 -8 -3 -4 4 5 8 -4 12 -28 12 -19 0 -38 5
-41 10 -5 8 -12 7 -23 -2 -12 -10 -14 -10 -8 0 5 9 -9 12 -61 13 -37 0 -77 2
-88 4 -11 3 -65 6 -120 9 -55 3 -104 5 -110 5 -7 1 -10 164 -10 469 0 257 -3
476 -6 487 -4 11 -10 46 -13 78 -4 31 -11 55 -16 52 -4 -3 -6 3 -3 13 5 22
-42 132 -57 132 -6 0 -8 4 -5 10 3 5 -20 37 -53 70 -44 46 -63 59 -78 54 -14
-4 -15 -3 -5 4 35 25 -162 124 -294 148 -11 2 -67 12 -125 23 -58 11 -125 22
-150 25 -25 2 -99 11 -165 20 -132 17 -198 18 -188 3z m237 -73 c-8 -3 -2 -23
17 -58 53 -98 67 -157 69 -291 2 -121 -17 -206 -69 -310 -19 -38 -34 -72 -34
-75 1 -3 -11 -6 -25 -7 -27 -1 -67 -8 -112 -20 -59 -14 -163 5 -174 33 -3 9
-11 12 -17 8 -8 -4 -9 -3 -5 4 4 6 0 25 -9 42 -46 89 -59 353 -26 515 10 50
16 94 13 99 -3 5 -1 6 5 3 5 -4 16 5 23 18 7 14 17 25 22 25 5 0 7 4 4 8 -3 5
70 9 162 9 92 1 162 -1 156 -3z m-364 -10 c0 -8 -19 -13 -24 -6 -3 5 1 9 9 9
8 0 15 -2 15 -3z m590 -25 c69 -11 133 -21 143 -22 9 -1 17 -4 17 -8 0 -4 20
-10 44 -13 56 -9 172 -65 219 -106 21 -18 41 -28 48 -24 7 4 9 3 6 -3 -8 -13
22 -55 34 -47 5 3 8 0 7 -8 -2 -7 2 -12 8 -11 7 1 11 -5 10 -15 0 -9 5 -16 12
-14 8 1 11 -2 7 -7 -3 -6 6 -34 20 -63 53 -109 55 -142 55 -656 l1 -475 -98 3
c-54 2 -134 4 -178 4 l-80 1 0 190 c0 173 -3 227 -21 410 -11 112 -66 174
-169 193 -61 10 -226 -4 -237 -21 -6 -9 -8 -8 -8 3 0 13 -1 13 -11 0 -16 -23
-7 -1 25 60 16 30 35 78 43 105 20 74 28 249 14 329 -15 83 -39 148 -54 139
-6 -3 -7 -1 -3 6 4 6 -2 25 -14 41 l-21 30 28 0 c15 0 84 -9 153 -21z m225 1
c3 -5 1 -10 -4 -10 -6 0 -11 5 -11 10 0 6 2 10 4 10 3 0 8 -4 11 -10z m-10
-29 c-6 -5 -25 10 -25 20 0 5 6 4 14 -3 8 -7 12 -15 11 -17z m230 -100 c3 -5
2 -12 -3 -15 -5 -3 -9 1 -9 9 0 17 3 19 12 6z m-560 -30 c3 -5 2 -12 -3 -15
-5 -3 -9 1 -9 9 0 17 3 19 12 6z m695 -101 c6 -11 8 -20 6 -20 -3 0 -10 9 -16
20 -6 11 -8 20 -6 20 3 0 10 -9 16 -20z m54 -106 c3 -8 2 -12 -4 -9 -6 3 -10
10 -10 16 0 14 7 11 14 -7z m17 -67 c-10 -9 -11 -8 -5 6 3 10 9 15 12 12 3 -3
0 -11 -7 -18z m-534 -283 c-3 -3 -12 -4 -19 -1 -8 3 -5 6 6 6 11 1 17 -2 13
-5z m-430 -37 c0 -8 -6 -14 -14 -14 -9 0 -10 4 -2 14 6 7 12 13 14 13 1 0 2
-6 2 -13z m551 -102 c-3 -3 -9 2 -12 12 -6 14 -5 15 5 6 7 -7 10 -15 7 -18z
m7 -73 c-3 -3 -11 0 -18 7 -9 10 -8 11 6 5 10 -3 15 -9 12 -12z m-262 -589
c-7 -2 -19 -2 -25 0 -7 3 -2 5 12 5 14 0 19 -2 13 -5z m127 -3 c0 -5 -2 -10
-4 -10 -3 0 -8 5 -11 10 -3 6 -1 10 4 10 6 0 11 -4 11 -10z m97 4 c-3 -3 -12
-4 -19 -1 -8 3 -5 6 6 6 11 1 17 -2 13 -5z m90 0 c-3 -3 -12 -4 -19 -1 -8 3
-5 6 6 6 11 1 17 -2 13 -5z m80 0 c-3 -3 -12 -4 -19 -1 -8 3 -5 6 6 6 11 1 17
-2 13 -5z m197 -28 c20 -3 38 -1 42 5 4 7 9 8 13 1 3 -5 76 -12 161 -15 329
-12 441 -41 479 -121 19 -41 56 -167 67 -231 3 -16 14 -55 24 -85 30 -93 54
-199 47 -206 -4 -4 -55 5 -114 20 -199 50 -435 101 -518 112 -22 3 -51 7 -65
10 -24 4 -172 25 -270 39 -25 4 -81 8 -125 11 -44 2 -91 7 -105 9 -14 3 -86 8
-160 11 -170 6 -183 9 -171 32 11 20 42 146 67 267 8 43 22 92 30 107 13 25
20 28 67 28 52 1 170 10 174 14 5 5 323 -3 357 -8z m453 -8 c-3 -8 -6 -5 -6 6
-1 11 2 17 5 13 3 -3 4 -12 1 -19z m-1112 -20 c-3 -13 -10 -32 -15 -43 -4 -11
-17 -60 -28 -110 -12 -49 -29 -125 -38 -167 l-18 -78 -63 0 c-53 0 -63 -3 -64
-17 -1 -17 -2 -17 -6 0 -5 21 -83 25 -83 5 0 -10 -3 -9 -9 1 -6 9 -20 12 -40
9 -18 -3 -35 0 -38 5 -3 6 -1 7 5 3 7 -4 19 10 30 36 24 52 83 231 79 238 -7
15 74 90 103 96 14 3 43 9 65 15 22 5 57 10 77 12 21 1 38 5 38 10 0 4 3 7 6
7 3 0 3 -10 -1 -22z m-389 -334 c1 -9 0 -13 -4 -10 -3 4 -7 14 -8 22 -1 9 0
13 4 10 3 -4 7 -14 8 -22z m1849 -43 c3 -5 2 -12 -3 -15 -5 -3 -9 1 -9 9 0 17
3 19 12 6z m-1798 -68 c-3 -10 -5 -4 -5 12 0 17 2 24 5 18 2 -7 2 -21 0 -30z
m757 -11 c3 -5 -1 -9 -9 -9 -8 0 -12 4 -9 9 3 4 7 8 9 8 2 0 6 -4 9 -8z m-222
-23 c102 -8 198 -18 233 -23 11 -2 54 -7 95 -11 155 -13 545 -81 664 -116 21
-6 46 -12 55 -14 146 -28 439 -114 626 -184 60 -23 115 -39 123 -36 7 2 11 1
8 -4 -6 -9 31 -26 200 -94 142 -58 367 -171 504 -253 59 -35 112 -64 118 -64
5 0 12 -3 14 -7 7 -17 120 -83 130 -77 7 4 8 3 4 -4 -8 -13 47 -45 59 -34 5 4
5 2 1 -5 -7 -14 27 -36 39 -25 3 4 5 2 3 -5 -2 -6 58 -57 131 -112 196 -147
258 -201 271 -239 7 -19 16 -29 22 -26 6 4 8 2 5 -3 -9 -15 47 -176 57 -166 5
4 6 3 3 -4 -10 -16 14 -113 26 -106 6 3 7 1 3 -6 -4 -6 -2 -36 4 -67 12 -58
18 -100 19 -147 1 -19 5 -26 13 -21 7 5 8 3 3 -6 -4 -7 -6 -54 -5 -104 5 -140
4 -156 -3 -236 -9 -108 -39 -255 -73 -358 -8 -24 -11 -48 -8 -54 4 -6 3 -8 -3
-5 -8 5 -26 -35 -38 -83 -4 -16 -102 -211 -122 -243 -13 -21 -21 -43 -17 -49
4 -6 3 -8 -3 -5 -11 7 -86 -98 -86 -120 0 -7 -4 -10 -8 -8 -3 3 -31 -21 -61
-53 -30 -32 -73 -69 -96 -82 -22 -13 -38 -28 -35 -33 3 -6 1 -7 -6 -3 -6 4
-33 -5 -59 -20 -52 -31 -443 -226 -537 -269 -72 -33 -302 -121 -402 -155 -39
-13 -69 -28 -67 -32 3 -4 -2 -5 -10 -2 -8 3 -50 -6 -93 -21 l-78 -28 -47 46
c-71 69 -166 112 -152 70 5 -15 4 -15 -4 -3 -6 8 -9 17 -6 22 7 12 -76 31
-138 32 -32 1 -58 5 -58 10 0 9 -550 2 -595 -8 -20 -4 -126 -11 -310 -21 -216
-12 -277 -19 -340 -40 -52 -18 -87 -44 -78 -58 3 -6 1 -7 -5 -3 -13 8 -32 -24
-37 -65 -10 -79 45 -232 77 -213 6 4 8 3 5 -3 -4 -5 7 -23 24 -39 63 -60 66
-59 -134 -58 -193 2 -403 10 -501 21 -44 4 -60 2 -67 -8 -7 -11 -9 -10 -9 4 0
14 -10 17 -62 18 -35 0 -70 2 -78 4 -80 16 -134 24 -141 19 -5 -3 -9 -1 -9 4
0 5 -28 15 -62 21 -35 7 -91 19 -126 27 -34 8 -77 17 -95 19 -40 4 -351 111
-470 160 -88 37 -114 55 -80 55 37 0 172 59 273 119 119 72 142 89 133 104 -3
6 -1 7 6 3 13 -9 44 12 36 24 -3 4 1 7 8 6 19 -2 138 105 130 117 -3 6 -1 7 4
4 14 -9 86 71 77 85 -4 6 -3 8 3 5 17 -11 116 110 108 131 -3 7 -1 10 5 7 18
-11 157 216 144 236 -4 7 -3 9 3 6 13 -8 26 20 16 36 -3 7 -3 9 2 5 16 -15
138 281 159 384 3 13 12 48 20 79 37 136 67 408 69 613 1 126 -10 353 -18 366
-2 3 -4 28 -6 55 -1 28 -5 55 -8 60 -3 6 -6 12 -6 15 -15 112 -35 191 -48 183
-6 -3 -7 -1 -3 5 22 36 -140 492 -172 485 -7 -2 -9 4 -5 14 4 11 3 14 -5 9 -7
-4 -10 -2 -6 7 6 17 -70 150 -80 140 -4 -5 -6 -3 -4 3 4 14 -51 104 -64 104
-5 0 -6 5 -2 12 5 8 2 9 -9 5 -9 -3 -19 -1 -23 5 -5 7 -2 8 6 3 22 -14 7 11
-38 64 -26 30 -49 48 -55 44 -7 -3 -9 -3 -5 2 11 11 -12 36 -25 28 -5 -3 -7
-1 -3 5 8 13 -43 54 -57 45 -6 -3 -7 -1 -3 5 7 11 -59 62 -81 62 -7 0 -13 3
-13 8 0 17 490 101 635 108 60 3 112 8 115 10 7 8 554 2 662 -7z m-1082 -3 c0
-3 -4 -8 -10 -11 -5 -3 -10 -1 -10 4 0 6 5 11 10 11 6 0 10 -2 10 -4z m-236
-54 c2 -4 -5 -9 -17 -9 -17 -2 -19 0 -7 7 18 12 18 12 24 2z m2193 -24 c-3 -8
-6 -5 -6 6 -1 11 2 17 5 13 3 -3 4 -12 1 -19z m86 -33 c-3 -9 -8 -14 -10 -11
-3 3 -2 9 2 15 9 16 15 13 8 -4z m-2357 -71 c34 -23 66 -39 69 -36 4 4 5 2 4
-3 -2 -6 31 -46 74 -90 98 -101 186 -221 238 -325 25 -51 44 -78 51 -74 7 5 8
3 3 -5 -4 -7 -3 -23 3 -34 28 -56 92 -221 92 -238 0 -11 3 -19 8 -19 4 0 8
-10 9 -22 0 -13 8 -50 17 -83 82 -302 116 -728 82 -1000 -20 -159 -29 -216
-42 -257 -3 -9 -7 -26 -9 -39 -2 -12 -9 -37 -16 -56 -6 -19 -9 -43 -6 -54 3
-10 2 -17 -3 -14 -4 2 -13 -17 -20 -43 -20 -72 -68 -199 -109 -282 -20 -41
-35 -81 -35 -87 1 -7 -2 -11 -5 -8 -4 2 -16 -13 -25 -33 -10 -20 -51 -86 -92
-145 -41 -60 -71 -113 -68 -119 4 -6 3 -8 -4 -4 -13 8 -54 -43 -45 -57 3 -5 2
-7 -4 -4 -14 9 -106 -89 -97 -104 4 -7 3 -10 -4 -5 -5 3 -34 -15 -62 -41 -29
-27 -76 -65 -104 -86 -28 -21 -59 -45 -69 -53 -9 -7 -20 -14 -22 -14 -3 0 -23
-11 -46 -25 -55 -35 -212 -104 -283 -124 l-59 -17 -133 68 c-189 97 -379 223
-497 328 -39 35 -73 57 -80 54 -7 -4 -9 -3 -4 1 9 11 -23 46 -35 39 -4 -3 -7
-1 -6 4 2 5 -21 35 -51 66 -46 49 -55 55 -70 44 -14 -12 -14 -11 -3 4 12 15 9
22 -20 57 -22 27 -39 39 -50 35 -9 -3 -19 0 -23 5 -4 7 1 8 11 4 12 -4 15 -2
12 8 -3 8 -10 13 -15 12 -5 -1 -9 7 -9 18 0 16 2 18 11 6 5 -7 19 -16 30 -19
11 -4 45 -16 75 -29 30 -12 65 -22 77 -23 11 0 19 -4 16 -8 -2 -5 2 -8 10 -8
8 0 52 -11 98 -24 46 -13 98 -27 114 -30 17 -3 41 -7 55 -10 52 -10 132 -23
190 -30 19 -3 45 -7 58 -10 13 -3 22 0 22 7 0 9 2 9 8 -1 12 -18 326 -20 414
-2 38 8 64 18 61 23 -3 6 -1 7 5 3 24 -15 156 64 224 133 76 78 142 175 132
194 -4 6 -3 8 1 4 16 -14 111 165 99 185 -4 7 -2 8 4 4 11 -7 14 -3 16 27 1 6
4 14 7 17 8 7 74 209 94 290 17 64 42 210 50 285 7 59 6 341 0 410 -6 54 -14
124 -30 242 -8 55 -30 155 -50 223 -9 30 -17 61 -17 68 -1 6 -4 12 -7 12 -3 0
-7 11 -7 25 -4 60 -158 390 -177 378 -6 -3 -7 -1 -3 5 8 13 -39 92 -54 92 -6
0 -9 4 -8 9 5 14 -62 101 -75 98 -7 -1 -11 5 -10 13 4 20 -109 132 -128 128
-8 -2 -13 2 -12 9 2 11 -79 77 -96 78 -3 1 -19 8 -35 16 l-28 16 28 11 c16 7
76 27 134 46 139 46 174 45 256 -10z m2732 -13 c-7 -9 -13 -18 -15 -20 -1 -2
-1 5 0 16 0 11 7 20 14 20 10 0 10 -4 1 -16z m-3267 -48 c13 -16 12 -17 -3 -4
-10 7 -18 15 -18 17 0 8 8 3 21 -13z m129 -59 c38 -19 87 -51 110 -71 40 -35
41 -35 63 -17 22 19 22 19 5 -1 -19 -23 -9 -53 12 -40 8 5 11 4 7 -2 -4 -6 9
-28 28 -49 48 -53 177 -245 213 -319 26 -53 101 -242 106 -270 2 -5 12 -41 24
-79 12 -38 31 -112 42 -165 36 -179 40 -222 47 -476 5 -195 3 -235 -17 -355
-19 -121 -28 -162 -60 -289 -5 -19 -6 -39 -3 -44 3 -6 1 -7 -4 -4 -6 4 -13 -6
-17 -23 -3 -17 -22 -65 -41 -107 -20 -42 -33 -83 -30 -91 2 -7 1 -11 -4 -8
-11 7 -33 -43 -25 -56 4 -6 2 -8 -3 -5 -13 8 -26 -20 -16 -35 3 -7 1 -8 -5 -4
-7 4 -17 -4 -24 -21 -7 -15 -17 -31 -22 -34 -5 -4 -5 -12 -1 -19 5 -8 4 -11
-3 -6 -6 3 -24 -12 -40 -36 -17 -24 -51 -63 -76 -87 -25 -24 -42 -49 -39 -54
3 -6 1 -7 -5 -3 -18 11 -82 -33 -75 -52 4 -14 3 -14 -5 -3 -7 9 -16 11 -28 6
-147 -63 -390 -60 -814 10 -14 3 -43 9 -64 14 -22 5 -44 8 -48 5 -4 -3 -8 -1
-8 3 0 5 -26 14 -57 21 -67 15 -129 36 -193 64 -25 11 -49 21 -55 22 -5 1 -31
13 -57 28 -26 14 -49 23 -51 20 -2 -4 -2 -2 -1 5 2 7 -3 18 -9 25 -23 23 -132
220 -165 298 -50 118 -95 282 -107 390 -13 123 -7 298 15 415 13 66 23 132 24
147 1 14 4 24 7 22 3 -1 14 23 23 54 65 207 229 478 404 665 36 39 60 72 56
79 -4 7 -3 8 4 4 7 -4 12 -2 12 5 0 7 3 9 7 6 9 -10 64 44 57 55 -3 5 0 7 8 6
7 -2 12 3 11 9 -2 7 1 12 5 10 14 -4 232 176 225 186 -3 6 -1 7 6 3 7 -4 48
16 97 49 171 113 412 233 468 235 10 0 49 -16 86 -36z m644 -42 c3 -5 -1 -9
-9 -9 -8 0 -12 4 -9 9 3 4 7 8 9 8 2 0 6 -4 9 -8z m-1350 -230 c3 -5 -1 -9 -9
-9 -8 0 -12 4 -9 9 3 4 7 8 9 8 2 0 6 -4 9 -8z m7193 -245 c53 -28 54 -64 3
-186 -64 -153 -160 -330 -243 -449 -21 -29 -35 -58 -31 -64 4 -6 3 -8 -4 -4
-6 3 -21 -8 -33 -26 -13 -18 -41 -55 -63 -81 -33 -40 -38 -50 -26 -59 12 -8
11 -9 -3 -4 -21 7 -52 -18 -42 -34 3 -6 -1 -7 -9 -4 -15 6 -21 -6 -17 -29 1
-5 -3 -6 -8 -3 -13 9 -72 -44 -64 -56 3 -6 1 -8 -4 -5 -6 4 -26 -7 -44 -23
-19 -17 -59 -47 -89 -67 -30 -20 -57 -40 -60 -44 -9 -13 -27 5 -34 34 -4 17
-11 25 -18 21 -6 -4 -8 -3 -5 3 13 21 -134 221 -297 405 -47 54 -86 100 -86
104 0 3 7 12 15 21 8 8 12 19 9 25 -4 6 -2 8 3 5 12 -7 90 89 86 104 -2 5 1 8
5 7 5 -2 31 20 60 49 28 28 86 81 129 118 43 37 78 70 78 75 0 5 4 12 9 17 5
5 6 2 1 -6 -5 -9 -3 -12 6 -9 8 3 13 12 11 19 -2 8 0 11 3 7 12 -12 87 31 79
45 -4 7 -4 9 1 5 4 -4 29 4 55 17 65 33 119 53 215 78 71 20 97 21 230 17 114
-4 158 -10 182 -23z m-7624 -162 c-3 -9 -8 -14 -10 -11 -3 3 -2 9 2 15 9 16
15 13 8 -4z m7615 -119 c-7 -8 -15 -12 -17 -11 -5 6 10 25 20 25 5 0 4 -6 -3
-14z m-5864 -15 c3 -4 0 -13 -6 -21 -8 -12 -9 -11 -4 4 5 13 2 17 -9 13 -8 -4
-16 -3 -19 1 -3 4 4 8 14 9 11 1 22 -2 24 -6z m5756 -195 c0 -2 -7 -7 -16 -10
-8 -3 -12 -2 -9 4 6 10 25 14 25 6z m-1113 -105 c16 13 17 12 4 -3 -11 -15
-10 -22 15 -52 16 -19 34 -33 41 -31 7 2 15 -1 19 -7 4 -7 3 -8 -4 -4 -27 17
-6 -11 93 -125 177 -201 238 -298 266 -418 26 -111 5 -280 -47 -384 -19 -37
-31 -74 -28 -80 4 -7 4 -9 0 -5 -9 8 -95 -101 -92 -117 2 -5 1 -6 -2 -2 -2 5
-19 -6 -38 -24 -18 -18 -30 -37 -27 -42 3 -6 1 -7 -4 -4 -13 8 -36 -17 -25
-28 4 -5 2 -5 -5 -1 -15 8 -85 -52 -76 -67 3 -5 2 -7 -4 -4 -5 4 -19 -1 -29
-11 -11 -9 -40 -35 -64 -57 -25 -22 -44 -43 -42 -48 1 -5 -2 -6 -7 -3 -5 4
-23 -6 -40 -20 -27 -22 -30 -29 -19 -43 12 -14 11 -14 -4 -3 -15 12 -28 6
-103 -50 -120 -88 -147 -105 -139 -84 4 9 9 15 12 12 8 -9 62 66 55 77 -3 5
-2 7 4 4 13 -8 96 131 87 145 -4 6 -3 8 3 5 21 -13 125 236 172 411 47 175 56
249 55 457 0 175 -3 202 -32 343 -18 84 -41 175 -52 202 -11 28 -17 50 -15 50
3 0 -1 13 -10 30 -24 46 -18 47 25 5 35 -34 41 -37 57 -24z m-36 36 c-10 -9
-11 -8 -5 6 3 10 9 15 12 12 3 -3 0 -11 -7 -18z m1056 -72 c0 -8 -4 -12 -9 -9
-5 3 -6 10 -3 15 9 13 12 11 12 -6z m-830 -161 c-3 -3 -12 -4 -19 -1 -8 3 -5
6 6 6 11 1 17 -2 13 -5z m63 -38 c0 -2 -8 -10 -17 -17 -16 -13 -17 -12 -4 4
13 16 21 21 21 13z m5 -35 c3 -5 2 -12 -3 -15 -5 -3 -9 1 -9 9 0 17 3 19 12 6z
m380 -221 c-3 -5 -12 -10 -18 -10 -7 0 -6 4 3 10 19 12 23 12 15 0z m-7448
-52 c-3 -8 -6 -5 -6 6 -1 11 2 17 5 13 3 -3 4 -12 1 -19z m6819 -213 c-1 -8
-5 -17 -8 -21 -5 -4 -4 16 1 34 3 9 9 -1 7 -13z m576 -119 c7 4 8 3 4 -4 -4
-6 3 -21 15 -33 47 -47 63 -138 32 -185 -23 -36 -103 -73 -173 -81 -33 -3 -60
-10 -60 -15 0 -5 -7 -2 -16 6 -14 15 -14 17 0 32 25 24 38 54 32 70 -3 9 -1
12 4 9 5 -3 15 7 21 22 7 15 17 42 24 58 13 32 38 131 38 152 0 8 14 2 34 -13
18 -14 38 -22 45 -18z m-2 39 c0 -7 -30 -13 -34 -7 -3 4 4 9 15 9 10 1 19 0
19 -2z m-7393 -67 c-3 -7 -5 -2 -5 12 0 14 2 19 5 13 2 -7 2 -19 0 -25z m2597
-104 c3 -8 2 -12 -4 -9 -6 3 -10 10 -10 16 0 14 7 11 14 -7z m-441 -39 c-7
-21 -12 -19 -10 4 0 11 5 18 9 15 4 -3 5 -11 1 -19z m5017 -149 c0 -2 -8 -10
-17 -17 -16 -13 -17 -12 -4 4 13 16 21 21 21 13z m9 -91 c25 -14 77 -56 115
-94 38 -39 74 -67 79 -64 6 3 7 1 3 -5 -8 -14 42 -84 55 -76 5 3 6 -1 4 -9 -3
-7 5 -29 18 -48 46 -69 130 -263 142 -331 4 -21 11 -36 15 -33 5 3 6 -3 4 -12
-3 -10 1 -48 9 -84 14 -67 13 -132 -3 -175 -14 -35 -52 -40 -138 -16 -41 12
-80 18 -85 15 -6 -3 -7 -1 -3 5 6 11 -14 17 -29 10 -3 -2 -9 2 -13 8 -4 5 -43
30 -87 54 -116 63 -186 112 -246 174 -29 30 -57 53 -61 50 -5 -3 -7 -1 -6 5 2
5 -15 34 -38 63 -43 56 -113 181 -132 237 -10 27 -9 37 3 54 8 12 15 18 15 14
0 -8 32 19 111 91 32 29 46 49 42 60 -4 13 -3 14 5 4 7 -11 17 -7 46 18 20 18
33 37 29 43 -3 5 -2 7 4 4 6 -4 21 5 34 19 18 19 20 27 11 33 -33 20 56 7 97
-14z m99 -20 c-3 -3 -9 2 -12 12 -6 14 -5 15 5 6 7 -7 10 -15 7 -18z m-4794
-33 c3 -5 -1 -9 -9 -9 -8 0 -12 4 -9 9 3 4 7 8 9 8 2 0 6 -4 9 -8z m-2094
-258 c0 -8 -19 -13 -24 -6 -3 5 1 9 9 9 8 0 15 -2 15 -3z m6374 -2 c2 -4 -5
-9 -17 -9 -17 -2 -19 0 -7 7 18 12 18 12 24 2z m-4441 -77 c-3 -9 -8 -14 -10
-11 -3 3 -2 9 2 15 9 16 15 13 8 -4z m-539 -13 c3 -5 -1 -9 -9 -9 -8 0 -12 4
-9 9 3 4 7 8 9 8 2 0 6 -4 9 -8z m-1324 -36 c0 -2 -7 -7 -16 -10 -8 -3 -12 -2
-9 4 6 10 25 14 25 6z m5965 -46 c-3 -5 -12 -10 -18 -10 -7 0 -6 4 3 10 19 12
23 12 15 0z m-5791 -138 c3 -5 -1 -9 -9 -9 -8 0 -12 4 -9 9 3 4 7 8 9 8 2 0 6
-4 9 -8z m83 -97 c0 -8 -4 -12 -9 -9 -5 3 -6 10 -3 15 9 13 12 11 12 -6z m83
-29 c0 -2 -8 -10 -17 -17 -16 -13 -17 -12 -4 4 13 16 21 21 21 13z m1185 -36
c3 -6 -1 -7 -9 -4 -18 7 -21 14 -7 14 6 0 13 -4 16 -10z m5702 -105 c0 -8 -4
-12 -9 -9 -5 3 -6 10 -3 15 9 13 12 11 12 -6z m-412 -23 c-3 -3 -11 0 -18 7
-9 10 -8 11 6 5 10 -3 15 -9 12 -12z m132 -47 c0 -8 -4 -12 -9 -9 -5 3 -6 10
-3 15 9 13 12 11 12 -6z m-3327 -9 c0 -2 -6 -9 -14 -15 -11 -9 -16 -9 -22 0
-4 7 -3 9 4 5 6 -3 13 -2 17 4 6 10 15 14 15 6z m274 -8 c-3 -4 -11 -5 -19 -1
-21 7 -19 12 4 10 11 0 18 -5 15 -9z m266 -4 c0 -8 -19 -13 -24 -6 -3 5 1 9 9
9 8 0 15 -2 15 -3z m35 -23 c-6 -5 -25 10 -25 20 0 5 6 4 14 -3 8 -7 12 -15
11 -17z m45 3 c0 -8 -19 -13 -24 -6 -3 5 1 9 9 9 8 0 15 -2 15 -3z m-90 -15
c47 -7 97 -12 112 -13 14 0 24 -4 21 -8 -2 -5 4 -8 14 -8 32 0 106 -54 162
-118 29 -34 57 -59 62 -56 5 3 8 1 7 -4 -4 -15 104 -132 115 -125 6 3 7 2 4
-3 -3 -6 -2 -16 3 -24 7 -12 12 -12 22 -2 6 6 16 12 22 12 5 0 1 -6 -9 -14
-18 -13 -15 -18 52 -85 38 -39 74 -67 78 -63 5 4 5 1 1 -5 -9 -16 82 -115 97
-106 5 3 7 1 4 -5 -11 -16 102 -132 121 -125 14 4 14 3 3 -5 -11 -8 -8 -18 18
-56 18 -25 28 -46 24 -46 -5 0 -9 -9 -10 -20 -3 -34 -40 -59 -138 -91 -49 -16
-68 -20 -180 -34 -47 -6 -197 -7 -222 -1 -14 3 -23 0 -23 -7 0 -9 -2 -9 -8 -1
-10 16 -102 24 -102 10 0 -8 -3 -7 -8 0 -4 7 -47 17 -97 23 -49 6 -101 13
-115 16 -14 3 -47 10 -75 15 -58 10 -140 32 -240 62 -38 12 -74 23 -80 24 -5
2 -41 15 -80 29 -38 14 -76 23 -83 20 -7 -3 -10 0 -7 5 7 11 -63 43 -76 34 -5
-3 -9 -1 -9 4 0 10 -60 38 -72 34 -5 -1 -8 2 -8 8 0 5 -4 10 -9 10 -5 0 -41
18 -80 41 -39 22 -76 37 -82 33 -7 -4 -9 -3 -6 3 3 5 -8 18 -26 28 -18 11 -36
23 -42 27 -5 5 -38 29 -72 54 -34 25 -83 65 -110 89 -48 45 -77 60 -52 28 13
-16 12 -17 -3 -4 -10 7 -15 17 -12 22 8 13 -87 110 -100 102 -6 -3 -8 -3 -4 2
4 4 -2 25 -13 47 -14 28 -19 56 -18 99 1 32 6 59 11 59 5 0 6 5 2 12 -4 6 -3
8 3 5 6 -4 28 2 49 12 22 10 62 19 89 20 28 1 84 6 125 11 41 5 100 10 130 11
30 1 61 7 69 13 11 8 13 8 7 -2 -6 -9 -1 -12 16 -8 12 3 90 8 173 11 82 4 151
8 153 10 9 9 426 4 502 -6z m-987 -6 c-7 -2 -19 -2 -25 0 -7 3 -2 5 12 5 14 0
19 -2 13 -5z m1678 -20 c12 -16 12 -17 -2 -6 -9 7 -20 9 -24 5 -5 -4 -5 -1 -1
6 9 16 11 15 27 -5z m-401 -17 c0 -2 -7 -7 -16 -10 -8 -3 -12 -2 -9 4 6 10 25
14 25 6z m0 -20 c0 -2 -8 -10 -17 -17 -16 -13 -17 -12 -4 4 13 16 21 21 21 13z
m-3226 -152 c3 -8 2 -12 -4 -9 -6 3 -10 10 -10 16 0 14 7 11 14 -7z m-20 -20
c3 -8 2 -12 -4 -9 -6 3 -10 10 -10 16 0 14 7 11 14 -7z m3389 -9 c-3 -9 -8
-14 -10 -11 -3 3 -2 9 2 15 9 16 15 13 8 -4z m-2803 -150 c0 -2 -9 -3 -19 -2
-11 0 -18 5 -15 9 4 6 34 0 34 -7z m250 -70 c25 -3 68 -8 95 -10 28 -2 86 -8
130 -12 44 -4 182 -8 307 -8 183 0 224 -2 216 -13 -8 -9 -8 -20 -1 -35 17 -36
9 -333 -11 -393 -23 -75 -44 -89 -125 -88 -36 1 -83 5 -105 9 -28 6 -40 4 -47
-6 -7 -12 -9 -11 -9 1 0 10 -27 27 -67 45 -38 16 -90 42 -116 57 -27 16 -53
25 -59 22 -6 -4 -8 -2 -4 4 3 6 -10 23 -31 39 -21 15 -44 34 -51 41 -8 7 -19
9 -25 5 -7 -3 -9 -3 -5 2 11 11 -12 36 -26 28 -6 -3 -8 -2 -3 2 9 11 -23 46
-35 39 -4 -3 -7 0 -6 8 2 7 -3 12 -10 10 -8 -1 -11 2 -7 8 3 5 1 10 -6 10 -7
0 -10 3 -6 6 5 5 -34 64 -73 111 -5 7 -10 17 -10 22 0 17 -23 61 -29 57 -5 -3
-7 44 -2 58 0 2 18 0 39 -4 20 -5 57 -12 82 -15z m720 2 c0 -7 -4 -6 -10 3 -8
12 -10 12 -10 1 0 -8 -3 -12 -6 -8 -9 9 6 28 17 22 5 -4 9 -12 9 -18z m77 1
c-3 -8 -6 -5 -6 6 -1 11 2 17 5 13 3 -3 4 -12 1 -19z m2070 -110 c-3 -8 -6 -5
-6 6 -1 11 2 17 5 13 3 -3 4 -12 1 -19z m-1737 9 c0 -2 -10 -12 -22 -23 l-23
-19 19 23 c18 21 26 27 26 19z m1791 -51 c5 3 9 0 9 -6 0 -16 -23 -7 -27 11
-2 9 -1 10 3 1 3 -6 10 -10 15 -6z m-2116 -55 c3 -5 2 -12 -3 -15 -5 -3 -9 1
-9 9 0 17 3 19 12 6z m-640 -239 c-3 -3 -11 0 -18 7 -9 10 -8 11 6 5 10 -3 15
-9 12 -12z m1665 -18 c0 -8 -19 -13 -24 -6 -3 5 1 9 9 9 8 0 15 -2 15 -3z m11
-17 c-10 -9 -11 -8 -5 6 3 10 9 15 12 12 3 -3 0 -11 -7 -18z m1203 7 c3 -8 2
-12 -4 -9 -6 3 -10 10 -10 16 0 14 7 11 14 -7z m-1034 -28 c0 -2 -8 -10 -17
-17 -16 -13 -17 -12 -4 4 13 16 21 21 21 13z m297 -51 c0 -8 -4 -12 -9 -9 -5
3 -6 10 -3 15 9 13 12 11 12 -6z m40 -27 c-3 -7 -5 -2 -5 12 0 14 2 19 5 13 2
-7 2 -19 0 -25z m498 23 c3 -5 2 -12 -3 -15 -5 -3 -9 1 -9 9 0 17 3 19 12 6z
m-2305 -31 c0 -5 -5 -10 -11 -10 -5 0 -7 5 -4 10 3 6 8 10 11 10 2 0 4 -4 4
-10z m54 -28 c3 -5 -1 -9 -9 -9 -8 0 -12 4 -9 9 3 4 7 8 9 8 2 0 6 -4 9 -8z"/>
<path d="M3822 8716 c-38 -49 -55 -145 -50 -284 8 -194 50 -304 112 -288 25 6
52 59 39 79 -3 5 -1 7 4 4 7 -4 15 17 22 56 12 72 15 231 4 224 -5 -3 -8 11
-9 31 -1 61 -24 149 -45 176 -26 33 -52 33 -77 2z m61 -146 c19 -116 14 -326
-8 -348 -9 -9 -16 4 -31 59 -21 76 -25 240 -8 314 8 33 15 66 16 73 3 31 17
-10 31 -98z"/>
<path d="M4695 5642 c-210 -34 -311 -80 -425 -194 -43 -43 -90 -97 -106 -121
-16 -23 -31 -44 -34 -47 -12 -11 -58 -87 -73 -120 -53 -113 -77 -242 -72 -385
4 -111 9 -147 31 -220 9 -27 18 -61 20 -75 11 -56 139 -264 157 -253 6 4 7 1
3 -6 -7 -11 51 -75 110 -121 206 -162 487 -211 709 -123 103 40 198 99 188
116 -4 6 -1 7 6 2 15 -9 63 33 54 48 -3 6 -1 7 5 4 5 -4 29 14 51 40 90 102
181 287 201 407 23 142 8 380 -31 481 -52 135 -105 231 -162 292 -25 27 -33
31 -46 20 -14 -10 -14 -10 -3 5 11 14 5 23 -45 67 -70 62 -147 109 -228 140
-64 24 -205 53 -205 41 0 -4 -19 -4 -42 -1 -24 4 -52 5 -63 3z m102 -28 c-3
-3 -12 -4 -19 -1 -8 3 -5 6 6 6 11 1 17 -2 13 -5z m58 -24 c3 -6 -1 -7 -9 -4
-18 7 -21 14 -7 14 6 0 13 -4 16 -10z m47 -30 c27 -5 77 -23 113 -39 36 -16
65 -27 65 -23 0 4 4 2 8 -3 4 -6 23 -22 42 -35 19 -13 37 -27 40 -30 3 -3 23
-18 45 -35 22 -16 44 -35 48 -42 4 -7 23 -30 42 -50 40 -43 97 -148 116 -210
6 -24 16 -40 22 -36 6 3 8 2 5 -3 -3 -5 3 -54 12 -109 20 -115 18 -268 -4
-360 -8 -33 -12 -63 -10 -67 3 -5 0 -8 -5 -8 -6 0 -11 -7 -11 -16 0 -38 -109
-220 -167 -279 -72 -73 -228 -175 -269 -175 -8 0 -14 -4 -14 -10 0 -5 -7 -6
-17 -3 -10 4 -14 2 -10 -4 4 -6 -46 -9 -146 -9 -150 1 -153 2 -237 36 -47 19
-91 34 -97 34 -7 -1 -10 2 -8 7 7 10 -30 31 -40 21 -3 -4 -5 0 -3 8 2 9 -4 14
-14 14 -10 -1 -14 4 -11 12 3 8 1 14 -4 14 -6 0 -30 21 -54 46 -24 25 -51 53
-60 62 -9 10 -22 27 -28 40 -7 12 -17 20 -23 16 -6 -4 -8 -3 -5 3 8 13 -32
113 -45 113 -5 0 -7 4 -4 9 3 5 -1 26 -10 46 -72 174 -69 503 7 672 10 24 19
45 19 48 0 2 16 29 35 59 38 60 141 167 186 193 16 10 29 21 29 25 0 4 4 8 10
8 5 0 34 12 64 26 98 46 263 61 388 34z m-477 -19 c3 -5 2 -12 -3 -15 -5 -3
-9 1 -9 9 0 17 3 19 12 6z m-74 -68 c13 -16 12 -17 -3 -4 -10 7 -18 15 -18 17
0 8 8 3 21 -13z m-158 -178 c-3 -9 -8 -14 -10 -11 -3 3 -2 9 2 15 9 16 15 13
8 -4z m1179 -19 c7 4 8 2 4 -5 -9 -13 -26 -5 -25 12 0 9 2 8 6 -1 2 -6 10 -9
15 -6z m-1234 -81 c-44 -81 -68 -193 -74 -337 -9 -234 43 -422 164 -593 50
-70 124 -146 137 -141 7 2 12 -2 12 -9 0 -10 -5 -11 -17 -5 -10 5 -21 6 -25 2
-5 -4 -5 -1 -1 6 4 6 3 12 -3 12 -5 0 -11 -3 -14 -7 -2 -5 -2 -2 -1 4 4 17
-36 54 -49 46 -6 -3 -7 -1 -3 5 8 13 -29 54 -40 44 -4 -4 -4 -2 -1 5 4 6 -8
29 -27 51 -61 74 -134 246 -162 385 -8 43 -5 238 6 296 14 79 44 163 80 227
16 28 27 54 24 56 -2 3 2 5 9 5 9 0 4 -17 -15 -52z m1372 -579 c0 -2 -8 -10
-17 -17 -16 -13 -17 -12 -4 4 13 16 21 21 21 13z m-1069 -543 c13 -16 12 -17
-3 -4 -17 13 -22 21 -14 21 2 0 10 -8 17 -17z m616 -58 c0 -8 -4 -12 -9 -9 -5
3 -6 10 -3 15 9 13 12 11 12 -6z"/>
<path d="M4674 5345 c-138 -43 -238 -146 -306 -312 -29 -71 -32 -90 -36 -212
-4 -107 -2 -132 8 -126 9 6 11 4 5 -4 -20 -33 62 -250 93 -244 6 2 9 -3 6 -10
-4 -11 85 -112 127 -143 16 -12 61 -38 69 -39 3 -1 18 -7 33 -13 15 -7 51 -15
80 -20 75 -11 214 8 202 28 -3 6 1 7 10 4 19 -8 98 43 90 56 -3 5 0 7 8 4 37
-14 169 195 196 311 12 50 16 229 6 275 -3 14 -8 40 -11 58 -3 18 -10 35 -15
38 -5 3 -9 13 -9 23 0 28 -78 151 -129 204 -25 26 -66 61 -91 77 -83 53 -242
75 -336 45z m226 -41 c0 -8 -19 -13 -24 -6 -3 5 1 9 9 9 8 0 15 -2 15 -3z
m-16 -29 c16 -9 37 -13 45 -10 8 3 12 3 8 -1 -10 -10 94 -74 107 -67 5 3 6 1
3 -4 -8 -13 17 -36 28 -25 5 4 5 2 2 -4 -8 -14 37 -76 48 -66 5 4 5 2 1 -5 -3
-6 2 -26 13 -45 42 -73 61 -174 58 -313 -2 -125 -3 -132 -36 -195 -66 -130
-140 -200 -250 -238 -82 -29 -216 -6 -316 53 -23 13 -44 23 -46 22 -2 -1 -3 0
-1 2 1 3 -13 21 -32 40 -19 20 -47 62 -64 93 -16 31 -31 55 -33 53 -2 -2 -5 6
-5 18 -1 12 -8 51 -17 87 -29 128 -9 297 49 413 14 26 22 53 18 59 -4 6 -3 8
4 4 6 -3 17 2 24 12 22 30 111 99 148 115 49 21 205 22 244 2z m271 -144 c3
-5 2 -12 -3 -15 -5 -3 -9 1 -9 9 0 17 3 19 12 6z m95 -357 c0 -8 -19 -13 -24
-6 -3 5 1 9 9 9 8 0 15 -2 15 -3z m-865 -173 c3 -5 2 -12 -3 -15 -5 -3 -9 1
-9 9 0 17 3 19 12 6z m785 -136 c0 -20 -20 -29 -33 -16 -9 9 -7 10 7 5 16 -6
18 -4 14 14 -4 12 -2 20 3 16 5 -3 9 -11 9 -19z m-150 -171 c0 -8 -19 -13 -24
-6 -3 5 1 9 9 9 8 0 15 -2 15 -3z"/>
<path d="M6300 5553 c-68 -10 -130 -25 -126 -31 2 -4 -6 -8 -19 -8 -31 -2
-141 -66 -192 -112 -95 -85 -203 -253 -238 -369 -30 -98 -38 -280 -19 -404 14
-90 45 -179 93 -269 39 -73 55 -92 66 -82 5 4 5 1 1 -6 -10 -16 42 -74 57 -65
6 3 7 1 4 -5 -12 -19 144 -138 169 -128 8 3 13 2 10 -3 -9 -14 100 -58 174
-69 70 -11 221 -7 265 7 68 22 114 44 109 53 -3 4 1 5 9 3 16 -7 83 38 80 53
-2 6 3 9 10 6 17 -6 125 106 175 184 174 270 165 669 -22 936 -53 76 -85 108
-98 100 -6 -4 -8 -3 -5 3 3 5 -9 25 -28 43 -29 28 -37 31 -50 20 -10 -8 -15
-9 -15 -1 0 6 5 11 11 11 8 0 8 4 -1 14 -17 22 -158 88 -170 81 -5 -3 -10 -2
-10 3 0 8 -23 16 -80 28 -30 5 -136 10 -160 7z m230 -99 c185 -55 333 -198
411 -399 57 -148 69 -318 36 -485 -7 -32 -50 -156 -59 -167 -5 -7 -6 -18 -2
-25 4 -7 3 -10 -1 -5 -5 4 -21 -12 -36 -35 -23 -34 -26 -45 -16 -57 10 -14 10
-14 -5 -3 -14 11 -19 9 -37 -16 -11 -16 -17 -33 -13 -37 4 -5 2 -5 -4 -2 -6 4
-29 -9 -50 -27 -21 -18 -54 -42 -73 -52 -66 -37 -71 -41 -63 -49 4 -5 2 -5 -4
-2 -7 4 -31 0 -55 -8 -87 -31 -294 -18 -356 22 -12 8 -28 11 -35 7 -7 -4 -10
-4 -6 1 4 4 -19 24 -50 44 -134 87 -263 290 -287 453 -4 26 -11 46 -15 43 -5
-3 -7 66 -6 153 2 153 3 160 40 266 42 124 90 201 168 271 48 44 139 102 163
106 6 0 18 6 29 11 10 6 44 12 75 15 31 3 57 6 58 8 10 7 122 -11 193 -31z
m65 16 c-3 -5 -12 -10 -18 -10 -7 0 -6 4 3 10 19 12 23 12 15 0z m292 -226
c-3 -3 -12 -4 -19 -1 -8 3 -5 6 6 6 11 1 17 -2 13 -5z m-1096 -185 c-38 -105
-51 -309 -27 -429 18 -86 41 -158 49 -153 6 3 7 1 3 -5 -10 -16 52 -134 66
-126 6 4 8 3 5 -3 -4 -6 5 -23 18 -39 25 -29 33 -50 16 -40 -5 4 -12 0 -15 -6
-4 -9 -5 -8 -5 2 1 8 1 22 0 30 -1 13 -2 13 -12 0 -9 -13 -10 -13 -7 0 1 8 -6
27 -16 43 -16 23 -21 25 -35 15 -13 -10 -14 -10 -3 2 15 18 16 34 0 24 -7 -4
-8 -3 -4 4 4 6 0 24 -7 39 -25 48 -55 146 -63 198 -3 28 -9 59 -11 70 -8 40
-3 226 8 272 14 61 51 165 56 160 2 -3 -5 -29 -16 -58z m1172 -654 c-3 -9 -8
-14 -10 -11 -3 3 -2 9 2 15 9 16 15 13 8 -4z m-1002 -172 c8 -9 9 -14 2 -10
-6 4 -13 1 -16 -5 -3 -7 -4 -3 -4 10 1 26 1 26 18 5z m57 -68 c-3 -3 -9 2 -12
12 -6 14 -5 15 5 6 7 -7 10 -15 7 -18z m57 -3 c-3 -3 -11 0 -18 7 -9 10 -8 11
6 5 10 -3 15 -9 12 -12z m-10 -21 c3 -5 2 -12 -3 -15 -5 -3 -9 1 -9 9 0 17 3
19 12 6z"/>
<path d="M6325 5285 c-5 -2 -23 -6 -38 -9 -17 -4 -25 -11 -21 -18 5 -7 3 -8
-5 -3 -25 15 -151 -89 -143 -118 1 -5 -2 -6 -7 -3 -16 10 -94 -123 -106 -182
-2 -9 -8 -37 -14 -62 -15 -62 -14 -125 4 -216 16 -85 69 -209 85 -199 5 3 7 0
5 -7 -12 -31 151 -179 200 -182 13 0 21 -4 19 -8 -6 -10 105 -26 158 -22 58 5
151 42 141 57 -3 5 -1 7 5 3 14 -8 74 43 65 56 -3 6 -1 8 5 4 6 -3 25 11 44
33 97 114 137 287 108 471 -12 72 -89 237 -110 232 -6 -1 -9 2 -5 8 9 15 -80
94 -148 131 -55 29 -72 33 -147 35 -47 1 -89 1 -95 -1z m137 -69 c14 -1 25 -3
23 -5 -7 -7 109 -60 119 -54 6 3 8 3 4 -2 -4 -4 13 -30 38 -57 43 -46 104
-159 104 -193 0 -9 4 -14 8 -11 11 6 9 -238 -2 -274 -4 -14 -8 -29 -10 -35
-13 -52 -56 -122 -102 -165 -83 -78 -166 -106 -264 -88 -72 13 -123 40 -183
97 -72 68 -110 129 -141 225 -23 71 -16 243 13 315 23 58 71 134 105 166 59
58 162 97 226 87 19 -3 47 -6 62 -6z m-445 -389 c0 -8 -6 -14 -14 -14 -9 0
-10 4 -2 14 6 7 12 13 14 13 1 0 2 -6 2 -13z m160 -442 c0 -8 -4 -12 -9 -9 -5
3 -6 10 -3 15 9 13 12 11 12 -6z m48 -14 c3 -5 2 -12 -3 -15 -5 -3 -9 1 -9 9
0 17 3 19 12 6z m322 -66 c0 -6 -6 -12 -12 -12 -6 0 -12 6 -12 12 0 6 6 12 12
12 6 0 12 -6 12 -12z"/>
<path d="M3334 5952 c-21 -13 -22 -60 -3 -81 31 -33 89 -7 89 39 0 35 -56 63
-86 42z"/>
<path d="M3534 4922 c-51 -33 -21 -112 37 -100 43 9 44 83 2 99 -29 11 -25 11
-39 1z"/>
<path d="M3277 3872 c-36 -40 -8 -115 41 -110 40 4 62 27 62 64 0 55 -68 85
-103 46z"/>
<path d="M2362 5764 c-45 -36 -79 -70 -76 -75 3 -5 1 -8 -4 -7 -27 8 -319
-293 -306 -314 4 -6 3 -8 -3 -5 -17 11 -117 -108 -106 -126 3 -5 1 -7 -5 -3
-13 8 -44 -33 -35 -47 3 -6 1 -7 -5 -4 -10 7 -63 -60 -164 -208 -71 -104 -68
-99 -59 -114 6 -10 28 12 75 75 36 49 72 96 79 104 47 52 115 148 109 155 -4
5 -2 5 5 1 7 -4 17 2 23 13 5 11 28 41 50 66 22 26 37 51 34 57 -4 6 -2 8 4 5
5 -4 22 8 37 25 15 18 56 63 92 100 40 41 62 72 57 79 -4 8 -3 9 5 5 7 -4 53
34 119 97 59 57 123 118 142 135 26 22 32 34 24 42 -8 8 -33 -7 -92 -56z"/>
<path d="M2118 5032 c-42 -48 -108 -127 -148 -177 -39 -49 -88 -110 -108 -134
-20 -24 -81 -102 -136 -173 -71 -95 -95 -133 -87 -141 12 -12 33 9 113 113 23
30 71 90 106 132 37 46 60 82 56 89 -4 7 -3 9 3 6 9 -6 38 27 222 257 71 88
86 116 63 116 -4 0 -42 -40 -84 -88z"/>
<path d="M1385 8273 c-66 -16 -152 -74 -139 -94 3 -5 0 -8 -6 -7 -20 5 -55
-73 -56 -125 -4 -98 44 -188 126 -235 39 -23 56 -27 130 -27 69 0 93 4 127 23
121 64 172 201 120 322 -13 30 -29 54 -35 53 -7 -2 -11 2 -9 8 3 16 -69 65
-114 78 -37 11 -107 13 -144 4z m167 -81 c18 -11 39 -17 46 -15 6 3 12 0 12
-7 0 -6 -4 -8 -10 -5 -16 10 -12 -4 12 -35 12 -16 24 -52 28 -80 8 -61 -11
-110 -61 -156 -65 -60 -144 -69 -227 -28 -96 48 -129 152 -80 254 12 25 20 49
19 53 -1 5 2 6 7 3 5 -3 31 6 58 20 41 21 59 25 106 21 32 -3 72 -14 90 -25z"/>
<path d="M1907 7503 c-9 -2 -14 -9 -11 -15 4 -7 2 -8 -5 -4 -15 10 -61 -27
-88 -72 -17 -27 -23 -53 -23 -95 0 -58 23 -123 39 -112 5 2 8 -3 7 -12 0 -11
17 -28 49 -46 65 -36 133 -33 197 10 124 83 113 250 -22 332 -33 20 -96 26
-143 14z m137 -86 c17 -12 33 -29 36 -37 8 -26 7 -140 -1 -134 -4 2 -11 -2
-16 -9 -26 -43 -102 -60 -153 -34 -40 20 -72 76 -67 117 13 112 112 160 201
97z m-247 -109 c-3 -8 -6 -5 -6 6 -1 11 2 17 5 13 3 -3 4 -12 1 -19z"/>
</g>
</svg>
