<?xml version="1.0" encoding="UTF-8" standalone="yes"?>
<svg version="1.0" xmlns="http://www.w3.org/2000/svg" width="1024.000000pt" height="1024.000000pt" viewBox="0 0 1024.000000 1024.000000" preserveAspectRatio="xMidYMid meet">
  <metadata>
Created by potrace 1.16, written by Peter Selinger 2001-2019
</metadata>
  <g transform="translate(0.000000,1024.000000) scale(0.100000,-0.100000)" fill="#000000" stroke="none">
    <path d="M5409 10006 c-125 -35 -249 -137 -308 -254 -132 -262 21 -590 312&#xA;-668 154 -41 334 13 450 135 254 266 135 694 -218 786 -70 18 -172 18 -236 1z&#xA;m193 -87 c146 -31 250 -127 292 -268 52 -177 -40 -377 -208 -452 -189 -83&#xA;-410 -1 -501 186 -26 54 -29 70 -30 160 0 90 3 106 28 158 53 108 163 194 277&#xA;216 64 12 82 12 142 0z"/>
    <path d="M3355 9929 c-178 -60 -307 -228 -322 -418 -18 -233 128 -437 354&#xA;-496 245 -64 500 76 574 315 66 214 -26 448 -222 563 -99 58 -270 74 -384 36z&#xA;m240 -83 c141 -37 229 -119 275 -257 33 -95 25 -185 -24 -284 -43 -86 -92&#xA;-133 -186 -179 -58 -28 -75 -31 -155 -31 -80 0 -97 3 -155 31 -123 59 -199&#xA;164 -220 301 -19 124 21 234 118 325 102 95 221 128 347 94z"/>
    <path d="M6990 9506 c-108 -23 -199 -98 -248 -205 -21 -45 -26 -70 -25 -131 0&#xA;-41 6 -88 12 -103 6 -16 9 -32 6 -37 -3 -5 -98 -56 -211 -114 -113 -58 -242&#xA;-127 -287 -153 -206 -117 -636 -367 -668 -388 l-36 -23 -84 18 c-193 43 -405&#xA;49 -564 15 -91 -19 -212 -68 -300 -120 l-70 -41 -20 30 c-36 55 -95 88 -168&#xA;93 l-65 6 -6 56 c-27 234 -270 374 -480 278 -72 -33 -156 -114 -196 -189 -30&#xA;-55 -35 -74 -38 -154 l-4 -91 -48 -6 c-68 -8 -137 -46 -193 -106 -71 -76 -92&#xA;-128 -92 -231 0 -100 27 -171 90 -232 l37 -36 -26 -35 c-65 -85 -73 -206 -19&#xA;-294 36 -59 101 -110 159 -125 l44 -12 0 -51 c0 -53 24 -105 58 -126 18 -12&#xA;17 -15 -19 -73 -123 -197 -159 -495 -90 -739 39 -134 121 -290 211 -397 l37&#xA;-45 -81 0 c-63 0 -88 -4 -110 -18 -27 -18 -28 -18 -69 9 -80 54 -320 305 -401&#xA;419 -112 158 -110 153 -84 212 41 94 22 208 -44 257 -38 27 -131 33 -182 12&#xA;-21 -9 -40 -16 -42 -16 -1 0 2 15 7 32 18 65 10 176 -22 307 -29 117 -31 133&#xA;-24 226 16 207 5 262 -65 298 -101 52 -236 -39 -289 -195 -12 -35 -24 -98 -28&#xA;-140 -3 -43 -8 -78 -10 -78 -15 0 -176 92 -283 160 -262 170 -410 211 -531&#xA;149 -49 -25 -79 -64 -79 -104 0 -29 -4 -33 -35 -39 -19 -4 -48 -18 -65 -33&#xA;-67 -56 -78 -130 -31 -204 l28 -45 -30 -34 c-26 -29 -29 -38 -25 -82 6 -59 38&#xA;-96 163 -191 44 -33 152 -118 241 -188 175 -140 301 -223 388 -259 l56 -22&#xA;-39 -43 c-45 -49 -61 -95 -61 -176 0 -47 5 -63 31 -98 41 -58 85 -75 172 -68&#xA;59 5 67 4 67 -12 0 -72 86 -313 172 -483 80 -158 162 -272 288 -398 202 -202&#xA;427 -343 633 -396 34 -8 65 -19 69 -22 4 -4 -6 -50 -23 -102 -95 -301 -132&#xA;-546 -132 -860 0 -154 4 -210 26 -335 47 -271 139 -599 247 -880 131 -340 386&#xA;-861 478 -974 43 -52 134 -113 205 -137 l52 -17 -35 -15 c-19 -7 -80 -23 -137&#xA;-33 l-102 -20 -72 61 c-252 211 -579 213 -780 3 -80 -84 -119 -176 -119 -281&#xA;0 -39 -8 -71 -26 -109 -24 -47 -26 -62 -22 -132 8 -130 60 -197 213 -271 91&#xA;-44 188 -74 308 -96 115 -22 426 -29 572 -15 203 21 447 80 584 142 56 25 69&#xA;28 97 19 47 -16 181 -13 257 4 142 33 234 83 262 142 22 47 21 138 -3 194 -12&#xA;28 -21 80 -25 140 -10 158 -57 272 -147 353 l-50 45 35 58 c44 73 49 152 13&#xA;202 -13 17 -45 61 -71 97 -115 157 -201 372 -235 588 l-9 59 29 -6 c16 -3 72&#xA;-38 123 -76 355 -267 706 -403 1076 -417 287 -12 556 57 692 177 74 66 96 48&#xA;203 -162 109 -215 164 -292 260 -358 135 -94 352 -92 551 5 182 90 273 235&#xA;273 439 0 270 -137 509 -443 773 -53 46 -141 134 -194 195 -241 275 -396 327&#xA;-612 206 -30 -16 -72 -32 -94 -35 -58 -6 -113 -38 -174 -99 -53 -53 -55 -54&#xA;-82 -40 -57 30 -189 136 -269 218 -237 241 -374 528 -436 916 -15 96 -18 95&#xA;72 34 118 -81 261 -142 427 -184 77 -19 117 -22 275 -23 205 0 267 9 427 61&#xA;164 53 340 150 412 227 l24 26 31 -24 c101 -77 229 -74 314 8 19 18 41 46 49&#xA;62 20 37 43 121 43 156 l0 26 118 6 c142 6 277 33 471 93 287 89 421 178 421&#xA;280 0 20 15 41 60 82 95 85 120 153 83 229 -9 19 -33 46 -54 60 -36 24 -38 27&#xA;-33 67 16 125 -145 186 -361 137 -49 -11 -139 -32 -200 -46 -106 -25 -345 -46&#xA;-345 -31 0 4 6 19 14 34 39 78 49 255 21 349 -36 121 -141 178 -225 121 -51&#xA;-35 -68 -66 -80 -143 -15 -95 -37 -140 -110 -226 -49 -58 -121 -159 -177 -248&#xA;-1 -2 -14 6 -29 18 -100 79 -265 26 -313 -101 -5 -15 -11 -48 -12 -74 -3 -46&#xA;-4 -47 -53 -69 -164 -71 -404 -91 -561 -47 -81 23 -245 98 -245 112 0 4 9 15&#xA;21 26 51 46 68 127 44 210 -13 44 -28 69 -69 109 -65 65 -134 101 -249 129&#xA;l-89 22 38 26 c22 14 70 53 108 87 l69 61 44 -41 c25 -22 70 -53 101 -67 50&#xA;-23 69 -27 152 -27 77 1 105 5 150 25 75 32 172 101 216 154 l36 43 47 -14&#xA;c171 -53 375 62 436 245 16 50 22 162 10 182 -3 4 19 11 47 15 120 15 242 106&#xA;294 218 63 139 40 311 -54 400 l-29 28 51 52 c154 154 162 394 19 548 -84 90&#xA;-213 117 -333 71 -30 -12 -56 -22 -57 -22 0 0 -10 16 -21 34 -46 78 -162 127&#xA;-251 107 -36 -8 -42 -7 -37 6 38 97 167 745 206 1028 18 132 10 121 94 128&#xA;103 7 180 43 249 116 70 74 92 130 92 241 0 71 -4 94 -26 141 -51 108 -147&#xA;183 -267 208 -63 13 -80 13 -152 -3z m210 -115 c129 -63 187 -223 124 -349&#xA;-47 -95 -134 -146 -247 -145 -119 2 -198 56 -249 169 -31 71 -23 178 17 235&#xA;43 60 92 96 155 113 69 18 130 11 200 -23z m-288 -556 c15 -9 15 -18 3 -100&#xA;-7 -49 -23 -155 -35 -235 -56 -374 -179 -907 -216 -934 -15 -12 -24 -5 -75 58&#xA;-69 86 -231 243 -337 328 -163 129 -391 267 -544 329 l-79 32 103 56 c57 32&#xA;159 90 228 131 203 119 422 240 630 348 l194 101 56 -52 c31 -29 63 -56 72&#xA;-62z m-2923 -221 c36 -10 67 -29 101 -62 62 -60 85 -131 77 -236 -5 -72 4&#xA;-116 23 -116 6 0 21 9 33 21 67 64 164 44 207 -42 33 -63 27 -79 -41 -119 -87&#xA;-50 -220 -178 -283 -273 -100 -151 -197 -373 -236 -534 -12 -52 -14 -54 -81&#xA;-89 -38 -20 -90 -55 -115 -77 -51 -45 -68 -43 -92 7 -12 24 -11 34 3 74 9 26&#xA;19 59 22 73 5 26 4 26 -50 21 -47 -4 -63 0 -107 24 -99 54 -135 145 -92 230&#xA;25 50 46 68 105 93 45 19 65 51 32 51 -30 0 -112 49 -145 86 -44 51 -60 93&#xA;-60 162 0 108 67 203 169 237 52 17 53 17 168 -12 32 -8 39 19 18 63 -26 54&#xA;-30 141 -11 206 32 110 173 226 277 228 14 0 49 -7 78 -16z m1376 -319 c277&#xA;-58 580 -210 845 -421 103 -82 242 -223 316 -320 l54 -71 -19 -44 -20 -43 -82&#xA;-2 -83 -1 -110 115 c-300 311 -617 496 -1041 607 -165 44 -246 55 -398 55&#xA;-111 1 -188 -7 -242 -25 -42 -14 30 34 110 73 167 83 260 103 450 98 79 -2&#xA;175 -11 220 -21z m-410 -216 c203 -25 453 -103 681 -214 219 -106 428 -263&#xA;588 -438 l79 -87 -25 -19 c-13 -11 -40 -48 -59 -83 -32 -59 -34 -69 -34 -158&#xA;1 -79 4 -102 23 -137 l22 -43 -37 -19 c-89 -46 -146 -139 -151 -249 -4 -63 -1&#xA;-80 22 -127 15 -30 41 -66 58 -80 23 -20 28 -29 19 -38 -13 -13 -15 -47 -3&#xA;-47 4 0 27 18 51 40 133 124 224 172 340 177 68 3 81 1 126 -24 71 -40 105&#xA;-93 118 -187 9 -66 8 -91 -7 -164 -43 -213 -180 -423 -328 -503 -60 -32 -68&#xA;-34 -163 -34 -83 0 -107 4 -140 22 -54 29 -82 61 -104 119 -24 61 -52 70 -76&#xA;24 -45 -87 -178 -193 -353 -279 -136 -68 -221 -100 -375 -141 -162 -42 -266&#xA;-53 -452 -47 -179 6 -254 20 -430 78 -213 71 -379 172 -531 324 -156 156 -247&#xA;310 -302 508 -25 94 -22 326 6 430 51 188 165 334 318 408 45 22 87 45 92 52&#xA;6 7 22 59 37 117 45 171 118 338 213 485 67 105 202 235 283 273 143 67 294&#xA;85 494 61z m1982 -536 c51 -24 93 -94 93 -155 0 -59 13 -62 61 -12 137 145&#xA;349 91 405 -105 21 -69 14 -144 -20 -214 -40 -85 -97 -135 -187 -166 -69 -23&#xA;-74 -43 -16 -58 106 -29 177 -121 180 -234 2 -122 -51 -217 -154 -274 -48 -27&#xA;-64 -30 -143 -31 -62 -1 -91 -5 -94 -13 -2 -7 4 -38 13 -68 41 -130 -21 -282&#xA;-138 -341 -52 -26 -121 -37 -171 -28 l-36 7 30 60 c17 33 45 101 62 152 30 84&#xA;32 103 33 217 0 154 -18 203 -101 279 -72 66 -129 85 -243 79 -106 -5 -194&#xA;-42 -271 -114 -58 -54 -72 -53 -100 8 -53 116 15 255 148 302 37 13 52 23 52&#xA;36 0 11 -5 22 -11 26 -6 3 -22 30 -35 58 -48 104 -21 249 58 309 66 51 144 53&#xA;195 5 31 -29 49 -17 62 42 39 179 200 294 328 233z m-4409 -142 c20 -12 29&#xA;-69 21 -121 -18 -104 -10 -221 22 -344 46 -181 37 -295 -34 -431 -44 -82 -147&#xA;-184 -222 -220 -52 -25 -72 -29 -145 -29 -73 0 -95 4 -161 32 -88 38 -217 124&#xA;-351 234 -51 42 -151 121 -222 175 -153 116 -175 142 -157 177 26 47 97 59&#xA;173 29 101 -39 286 -175 295 -215 3 -16 8 -28 12 -28 3 0 23 26 43 58 76 116&#xA;103 152 116 147 6 -2 12 3 12 11 0 9 14 36 32 60 45 63 31 67 -62 17 -3 -2&#xA;-23 19 -43 46 -58 76 -215 177 -352 226 -76 28 -83 38 -50 70 25 26 31 27 93&#xA;23 84 -6 191 -51 327 -138 303 -192 388 -228 435 -185 16 15 20 31 20 84 0&#xA;188 115 375 198 322z m-979 -276 c108 -52 196 -113 259 -177 l43 -45 -35 -51&#xA;c-19 -28 -36 -57 -38 -64 -3 -8 -14 -3 -34 16 -44 42 -168 124 -237 157 -42&#xA;20 -78 29 -111 29 -43 0 -53 4 -87 39 -54 53 -50 103 9 136 45 26 122 13 231&#xA;-40z m1307 -578 c22 -19 27 -32 27 -68 0 -83 -65 -168 -171 -225 -58 -30 -72&#xA;-51 -101 -144 -11 -34 -31 -77 -46 -96 -49 -65 -135 -82 -206 -43 l-38 22 -49&#xA;-45 c-51 -45 -105 -68 -161 -68 -40 0 -91 47 -91 82 0 46 33 120 70 159 34 36&#xA;41 39 94 39 157 0 313 105 419 283 51 87 107 127 178 127 36 0 55 -6 75 -23z&#xA;m60 -387 c31 -47 83 -117 114 -156 l58 -71 -33 -11 c-51 -19 -104 -79 -121&#xA;-139 -39 -136 37 -292 178 -364 46 -24 142 -31 208 -16 35 8 35 7 57 -40 46&#xA;-101 133 -170 241 -194 l52 -11 0 -54 c0 -44 -6 -63 -34 -106 -18 -29 -50 -86&#xA;-70 -126 l-37 -73 -44 39 c-90 79 -210 83 -313 9 -37 -27 -93 -96 -105 -130&#xA;-9 -25 -177 94 -303 215 l-84 81 35 39 c57 63 77 137 64 237 -15 110 -77 198&#xA;-174 249 -44 23 -62 26 -148 27 l-98 0 -24 80 c-27 89 -44 162 -45 186 0 9 11&#xA;24 25 33 20 13 30 14 46 5 29 -15 120 -13 162 5 82 34 157 136 173 235 6 36&#xA;12 44 50 63 24 12 59 34 77 49 17 15 33 26 33 26 1 -1 28 -40 60 -87z m284&#xA;-346 c30 -30 88 -80 128 -111 39 -31 72 -56 72 -57 0 0 -11 -23 -25 -50 -14&#xA;-27 -25 -61 -25 -76 0 -35 -33 -50 -109 -50 -70 0 -149 36 -187 85 -86 113&#xA;-77 237 20 296 48 29 67 24 126 -37z m4590 -102 c67 -67 68 -224 4 -393 -16&#xA;-41 -16 -49 -4 -65 27 -32 76 -44 179 -44 105 0 189 13 391 62 197 47 340 34&#xA;340 -32 0 -35 3 -34 -305 -105 -66 -15 -143 -38 -171 -50 l-52 -23 -16 42&#xA;c-15 36 -18 39 -27 23 -6 -11 -8 -39 -5 -65 3 -26 9 -105 12 -177 6 -157 11&#xA;-173 31 -122 11 28 21 37 39 37 13 0 58 14 101 31 118 47 163 59 226 59 48 0&#xA;62 -4 82 -25 33 -32 31 -67 -4 -108 -42 -47 -105 -78 -276 -136 -213 -71 -363&#xA;-102 -520 -108 -248 -10 -369 52 -436 224 -18 48 -22 78 -22 173 0 187 19 234&#xA;189 457 96 126 105 145 134 285 7 39 19 63 33 73 30 21 45 19 77 -13z m-3950&#xA;-116 c188 -153 415 -260 677 -318 136 -30 481 -33 618 -4 131 27 299 79 404&#xA;126 105 46 129 48 255 20 144 -32 247 -93 286 -171 54 -106 -12 -186 -172&#xA;-210 -176 -25 -191 -29 -223 -53 -18 -14 -60 -65 -95 -113 -130 -183 -210&#xA;-201 -429 -94 -150 73 -196 70 -344 -27 -95 -62 -134 -76 -201 -70 -76 7 -123&#xA;33 -206 118 -41 43 -89 84 -105 93 -49 24 -117 26 -222 6 -113 -22 -157 -24&#xA;-204 -7 -89 30 -119 80 -129 211 -8 105 -15 115 -115 147 -57 19 -80 34 -126&#xA;79 -94 94 -108 183 -42 269 49 65 75 74 193 66 l104 -7 76 -61z m-1269 -111&#xA;c90 -45 149 -145 149 -248 -1 -88 -60 -186 -95 -157 -46 39 -235 374 -235 419&#xA;0 19 136 9 181 -14z m4676 -359 l28 -24 0 -169 c0 -153 3 -173 24 -228 57&#xA;-143 167 -240 295 -262 l38 -6 -6 -51 c-8 -73 -44 -136 -92 -163 -116 -66&#xA;-244 25 -244 174 0 68 -10 81 -53 65 -74 -27 -136 -10 -174 47 -34 50 -30 104&#xA;12 192 19 41 35 79 35 87 0 7 -11 28 -24 45 -46 61 -61 188 -31 248 35 68 138&#xA;92 192 45z m1520 -19 c12 -12 25 -36 29 -53 5 -26 0 -38 -26 -68 -18 -20 -45&#xA;-46 -61 -57 l-29 -20 -32 23 c-29 20 -44 23 -128 23 -88 -1 -102 -4 -198 -43&#xA;-56 -23 -106 -42 -111 -42 -5 0 -11 29 -13 65 l-3 66 94 30 c52 16 157 44 235&#xA;60 77 17 148 35 156 40 21 13 61 2 87 -24z m-2698 -156 c20 -15 47 -34 60 -40&#xA;l23 -13 -34 -36 c-49 -52 -73 -90 -92 -146 -45 -135 12 -279 135 -341 72 -37&#xA;169 -35 231 4 57 36 93 84 118 155 30 84 26 154 -14 247 -6 13 5 16 76 17 103&#xA;2 228 25 317 57 38 14 73 25 78 25 5 0 20 -22 33 -50 l23 -50 -31 -68 c-82&#xA;-178 9 -352 184 -352 26 0 32 -5 37 -27 3 -16 8 -35 12 -44 14 -37 -155 -165&#xA;-295 -224 l-78 -33 -23 24 c-13 13 -46 36 -75 50 -43 21 -66 25 -135 25 -144&#xA;-1 -233 -43 -271 -127 -10 -24 -22 -44 -26 -44 -4 0 -48 7 -97 15 -205 33&#xA;-392 117 -582 262 -66 50 -74 61 -106 136 -20 45 -41 113 -48 150 -11 62 -14&#xA;66 -28 52 -12 -12 -16 -36 -15 -98 0 -93 30 -195 70 -238 19 -19 24 -36 24&#xA;-75 1 -118 48 -371 95 -503 8 -24 15 -45 15 -46 0 -2 -26 -1 -57 2 -152 14&#xA;-269 -77 -296 -230 -15 -91 9 -164 78 -232 81 -81 176 -103 279 -65 70 26 128&#xA;84 153 148 l18 51 60 -81 c66 -89 234 -254 313 -308 35 -23 50 -40 46 -50 -27&#xA;-74 -22 -173 12 -245 26 -56 93 -124 148 -152 91 -47 225 -43 298 8 14 11 29&#xA;19 33 19 4 0 5 -48 3 -107 -6 -132 -30 -201 -94 -273 -25 -27 -50 -50 -54 -50&#xA;-5 0 -32 15 -61 32 -48 31 -58 33 -138 33 -74 0 -93 -4 -137 -27 -74 -39 -108&#xA;-71 -140 -133 l-29 -55 -86 0 c-194 0 -485 74 -696 177 -99 48 -297 173 -419&#xA;264 -32 23 -68 36 -170 59 -169 37 -290 76 -506 163 -98 39 -181 67 -185 63&#xA;-32 -31 383 -237 560 -277 49 -12 57 -17 57 -36 0 -63 63 -309 108 -420 l21&#xA;-52 -47 -22 c-66 -32 -141 -105 -168 -164 -33 -69 -33 -161 0 -230 26 -56 111&#xA;-141 150 -151 42 -10 30 -21 -36 -33 -165 -30 -308 -22 -441 26 -157 56 -202&#xA;109 -364 431 -126 250 -195 398 -263 572 -49 124 -140 380 -140 396 0 5 22 11&#xA;49 11 61 2 99 21 144 73 43 51 62 114 62 205 -1 83 -24 142 -81 204 -58 65&#xA;-105 85 -194 85 -41 -1 -84 -3 -95 -5 -16 -3 -21 4 -28 46 -11 64 -14 438 -4&#xA;488 8 37 8 37 58 37 180 0 311 241 230 425 -24 55 -78 104 -128 117 l-41 12&#xA;30 85 c62 178 210 501 229 501 4 0 10 -8 14 -19 9 -30 75 -92 119 -112 51 -23&#xA;169 -25 276 -5 64 12 95 14 132 7 4 0 2 -13 -4 -28 -6 -16 -21 -55 -33 -87&#xA;l-22 -60 -54 -11 c-80 -16 -123 -41 -178 -101 -63 -69 -85 -132 -79 -223 8&#xA;-112 61 -197 152 -243 23 -11 43 -22 45 -24 2 -2 -5 -45 -14 -96 l-18 -94 -56&#xA;-16 c-103 -31 -185 -113 -212 -213 -17 -61 -6 -162 24 -220 33 -66 102 -129&#xA;166 -152 35 -12 53 -24 56 -38 31 -162 66 -275 84 -275 15 0 14 21 -9 145 -27&#xA;147 -28 142 23 150 55 10 145 55 179 92 37 39 75 128 83 193 9 80 -23 177 -78&#xA;238 -42 45 -124 92 -162 92 -43 1 -46 11 -28 100 l16 85 56 1 c104 2 209 73&#xA;258 172 37 76 39 180 4 260 -30 66 -104 135 -166 153 -25 7 -45 16 -45 20 0 8&#xA;59 151 65 157 3 3 43 -32 91 -77 93 -90 146 -120 229 -128 79 -8 143 12 252&#xA;79 134 83 148 84 281 20 172 -83 290 -88 392 -17 47 32 81 73 133 161 56 94&#xA;63 98 181 105 55 4 119 13 141 22 22 8 42 15 44 16 2 0 20 -12 40 -28z m216&#xA;-114 c28 -9 69 -21 92 -27 36 -9 47 -18 64 -52 59 -115 14 -279 -92 -334 -39&#xA;-20 -113 -18 -157 5 -117 60 -154 185 -91 310 31 61 99 127 123 118 6 -2 34&#xA;-11 61 -20z m-2855 -32 c65 -45 68 -62 29 -151 -19 -42 -40 -78 -47 -81 -26&#xA;-11 -292 86 -292 106 0 13 56 95 78 114 58 52 166 58 232 12z m818 -260 c82&#xA;-35 126 -106 126 -205 0 -81 -29 -138 -92 -184 -37 -26 -54 -31 -116 -34 -86&#xA;-5 -136 15 -184 74 -92 111 -46 290 88 348 46 20 131 20 178 1z m-761 -265&#xA;c48 -29 75 -90 75 -166 0 -52 -6 -75 -33 -125 -43 -80 -87 -114 -150 -114 -26&#xA;0 -50 2 -52 5 -7 7 14 118 54 288 34 147 40 153 106 112z m3267 -239 c28 -17&#xA;34 -26 25 -32 -30 -16 -179 -41 -282 -46 l-108 -6 12 27 c13 28 60 62 107 76&#xA;15 5 68 8 117 7 75 -2 96 -6 129 -26z m-2623 -273 c150 -51 201 -265 91 -381&#xA;-60 -64 -143 -87 -224 -63 -106 31 -167 111 -168 218 0 163 152 277 301 226z&#xA;m1528 -236 c44 -23 101 -126 101 -185 0 -90 -35 -149 -114 -189 -56 -28 -139&#xA;-22 -196 16 -50 33 -90 110 -90 174 0 154 161 254 299 184z m-2130 -367 c79&#xA;-40 140 -161 126 -247 -18 -105 -67 -167 -138 -175 -82 -10 -86 -3 -148 274&#xA;-19 87 -27 139 -21 145 29 29 129 30 181 3z m3475 -137 c43 -23 88 -61 156&#xA;-132 52 -56 146 -150 209 -211 227 -218 298 -292 338 -350 118 -175 170 -357&#xA;143 -504 -14 -80 -39 -129 -93 -189 -37 -40 -135 -112 -152 -112 -4 0 7 17 23&#xA;38 41 53 60 92 77 164 40 170 -6 368 -129 552 -53 79 -284 330 -492 534 -74&#xA;73 -236 187 -280 198 -56 14 1 41 90 43 36 1 64 -7 110 -31z m-224 -99 c106&#xA;-49 191 -123 445 -386 248 -256 315 -341 366 -461 118 -282 10 -553 -229 -578&#xA;-112 -12 -222 43 -304 151 -36 47 -144 244 -136 249 100 61 183 151 232 250&#xA;20 40 36 80 36 89 0 34 -19 24 -63 -36 -25 -34 -67 -83 -94 -108 -53 -52 -140&#xA;-119 -153 -119 -4 0 -15 11 -24 26 -17 25 -17 25 38 81 91 90 152 238 132 317&#xA;-9 37 -22 32 -37 -11 -22 -68 -68 -150 -117 -210 -46 -55 -96 -93 -107 -81 -3&#xA;3 5 29 18 59 67 151 67 322 1 453 -56 112 -147 189 -261 223 -35 10 -63 20&#xA;-63 23 0 3 17 23 38 43 74 72 166 81 282 26z m-437 -120 c15 -11 61 -67 103&#xA;-125 41 -57 82 -104 90 -104 8 0 14 2 14 5 0 11 -48 100 -74 138 l-27 39 33&#xA;-7 c83 -18 173 -88 209 -162 l22 -46 -29 -24 c-42 -34 -89 -46 -154 -40 -141&#xA;12 -239 122 -240 268 0 86 8 94 53 58z m140 -776 c20 -9 37 -18 37 -23 0 -7&#xA;-100 -48 -170 -69 -54 -16 -180 -39 -180 -32 0 21 57 84 96 107 78 46 132 50&#xA;217 17z m-1641 -331 c26 -42 71 -108 101 -145 49 -61 54 -71 47 -98 -19 -64&#xA;-98 -144 -154 -154 -71 -14 -199 75 -232 161 -33 87 4 203 83 256 39 27 94 57&#xA;103 57 3 0 26 -34 52 -77z m133 -476 c79 -60 135 -197 135 -326 0 -72 -2 -80&#xA;-25 -98 -42 -33 -189 -81 -349 -113 -83 -17 -223 -46 -310 -65 -236 -51 -332&#xA;-64 -526 -71 -260 -9 -479 24 -653 97 -82 35 -114 59 -151 114 -34 51 -36 148&#xA;-4 233 31 84 120 170 213 207 200 80 386 26 581 -169 55 -55 118 -120 138&#xA;-145 l38 -45 -6 49 c-3 27 -17 69 -31 94 -14 24 -25 46 -25 48 0 2 11 4 25 4&#xA;27 0 127 -64 228 -145 l57 -47 0 30 c0 51 -93 152 -160 174 -9 3 -2 8 18 12&#xA;26 6 59 -3 175 -47 168 -66 218 -80 231 -67 27 27 -102 115 -222 151 -36 10&#xA;-41 15 -29 26 9 10 56 14 173 17 178 4 272 23 372 75 32 16 61 30 66 30 5 1&#xA;24 -10 41 -23z m184 -549 c2 -49 -26 -87 -82 -112 -128 -56 -285 -72 -356 -36&#xA;l-38 20 -54 -28 c-76 -40 -256 -96 -401 -125 -384 -77 -778 -52 -1037 65 -119&#xA;54 -171 114 -171 199 0 22 1 40 3 40 2 0 24 -19 49 -43 152 -141 550 -222 928&#xA;-188 169 15 242 27 603 102 302 62 439 101 504 142 42 27 51 21 52 -36z"/>
    <path d="M4586 7998 c-137 -20 -304 -166 -256 -223 17 -20 39 -19 75 5 76 51&#xA;208 72 302 48 43 -10 47 -10 65 12 22 27 23 61 3 100 -26 51 -96 72 -189 58z"/>
    <path d="M5500 7770 c-68 -12 -100 -42 -100 -94 0 -26 41 -66 69 -66 64 0 188&#xA;-104 246 -205 38 -66 54 -85 76 -85 76 0 34 237 -62 353 -60 73 -149 111 -229&#xA;97z"/>
    <path d="M4355 7562 c-154 -64 -255 -205 -291 -402 -15 -80 -16 -105 -5 -164&#xA;6 -38 20 -90 31 -114 20 -44 20 -48 4 -114 -20 -82 -15 -146 17 -213 34 -72&#xA;124 -159 206 -198 64 -30 75 -32 178 -32 94 0 118 3 162 24 65 29 136 103 170&#xA;177 22 48 24 65 21 142 -3 71 -9 98 -32 143 -25 50 -89 125 -138 162 -15 11&#xA;-14 19 13 100 71 208 17 417 -124 483 -63 29 -152 31 -212 6z m212 -88 c21&#xA;-17 49 -53 63 -80 22 -44 25 -61 25 -159 -1 -91 -5 -120 -23 -167 -25 -61 -20&#xA;-59 -79 -33 -1 1 4 23 12 50 20 65 18 121 -4 172 -16 34 -27 44 -59 54 -72 21&#xA;-133 -25 -187 -143 -14 -31 -28 -79 -32 -106 -5 -44 -11 -54 -52 -88 -25 -21&#xA;-55 -49 -65 -62 l-19 -24 -13 24 c-7 14 -16 58 -19 99 -17 196 86 403 237 475&#xA;76 36 162 31 215 -12z m27 -538 c31 -15 75 -49 100 -77 182 -202 52 -486 -214&#xA;-467 -151 11 -296 129 -320 259 -16 85 32 199 107 256 89 68 223 80 327 29z"/>
    <path d="M5235 7362 c-146 -62 -252 -188 -300 -357 -49 -167 2 -377 111 -460&#xA;163 -124 434 -24 547 202 128 258 62 548 -140 617 -61 21 -167 20 -218 -2z&#xA;m212 -77 c78 -39 133 -124 148 -227 9 -67 -19 -207 -57 -281 -66 -131 -207&#xA;-232 -324 -232 -90 0 -147 38 -193 128 -83 161 -38 391 103 533 102 102 219&#xA;130 323 79z"/>
    <path d="M5294 7061 c-109 -66 -177 -263 -128 -367 60 -126 195 -83 272 85 30&#xA;65 40 171 22 225 -22 68 -103 96 -166 57z"/>
    <path d="M3824 6706 c-85 -37 -121 -185 -67 -276 19 -33 38 -40 28 -12 -23 74&#xA;-7 183 32 224 40 41 76 44 158 12 l20 -7 -20 23 c-22 25 -74 50 -102 50 -10&#xA;-1 -32 -7 -49 -14z"/>
    <path d="M3880 6497 c0 -39 119 -183 189 -230 20 -13 24 -25 26 -84 4 -92 38&#xA;-220 86 -321 107 -223 353 -337 598 -276 158 39 272 128 387 300 52 79 108&#xA;201 120 264 4 16 10 30 14 30 4 0 31 -21 59 -46 29 -26 54 -44 56 -42 3 3 -2&#xA;28 -10 56 -18 61 -69 109 -142 135 -72 26 -87 23 -80 -13 6 -27 3 -32 -31 -48&#xA;-54 -28 -184 -60 -287 -72 -242 -27 -426 4 -653 111 -108 50 -196 113 -264&#xA;189 -57 62 -68 70 -68 47z m1213 -555 c15 -6 10 -16 -36 -72 -104 -126 -173&#xA;-174 -297 -206 -79 -20 -214 -15 -278 11 -39 16 -43 20 -37 44 24 105 172 191&#xA;385 224 44 7 244 6 263 -1z"/>
    <path d="M5275 6426 c-29 -12 -27 -13 45 -19 96 -9 156 -29 203 -68 93 -77&#xA;103 -203 21 -268 l-27 -21 31 0 c45 0 91 44 103 98 26 116 -42 225 -169 272&#xA;-61 23 -161 26 -207 6z"/>
    <path d="M6449 6344 c-26 -8 -69 -29 -95 -47 -52 -36 -134 -145 -134 -178 0&#xA;-25 37 -25 45 0 13 43 31 44 74 3 50 -47 53 -83 16 -172 -28 -67 -29 -70 -15&#xA;-70 15 0 59 51 82 94 15 30 19 52 16 94 -4 47 -10 60 -40 87 -19 18 -41 34&#xA;-49 37 -21 8 16 45 73 74 90 46 173 31 203 -37 23 -49 35 -50 35 -1 0 49 -18&#xA;81 -59 109 -39 26 -84 28 -152 7z"/>
    <path d="M2101 6700 c-42 -9 -76 -28 -67 -38 3 -2 22 -6 43 -8 129 -12 170&#xA;-31 259 -115 73 -70 90 -75 65 -18 -62 138 -174 205 -300 179z"/>
    <path d="M7607 4966 c-61 -17 -92 -43 -142 -118 -43 -65 -31 -78 23 -26 81 81&#xA;153 100 277 78 28 -5 73 -13 100 -16 50 -7 50 -7 32 13 -27 30 -124 70 -187&#xA;76 -32 4 -75 1 -103 -7z"/>
    <path d="M3748 5401 c-31 -10 -87 -36 -125 -57 -61 -35 -65 -39 -41 -42 15 -2&#xA;81 15 147 37 179 61 178 61 161 71 -23 15 -79 11 -142 -9z"/>
    <path d="M4270 5199 c-78 -51 -194 -179 -177 -195 7 -7 174 132 211 177 47 55&#xA;34 62 -34 18z"/>
    <path d="M5561 5220 c-10 -5 13 -21 75 -49 49 -23 101 -48 117 -56 39 -20 36&#xA;2 -6 43 -44 43 -157 81 -186 62z"/>
    <path d="M5150 5112 c0 -22 94 -186 137 -238 17 -22 35 -36 39 -32 10 11 -68&#xA;168 -116 233 -42 57 -60 68 -60 37z"/>
    <path d="M4710 5078 c-6 -24 -15 -59 -21 -78 -16 -63 -6 -176 14 -143 15 24&#xA;41 192 38 246 -2 32 -20 17 -31 -25z"/>
    <path d="M4933 4293 c-60 -21 -137 -94 -170 -161 -24 -48 -28 -70 -28 -137 0&#xA;-70 4 -87 30 -134 98 -178 318 -200 453 -45 105 118 108 288 8 401 -74 85&#xA;-187 114 -293 76z m148 -54 c93 -28 149 -112 149 -223 0 -75 -15 -112 -64&#xA;-164 -93 -100 -248 -96 -324 7 -26 36 -52 103 -52 135 0 80 65 187 134 223 65&#xA;34 100 39 157 22z"/>
    <path d="M4701 3109 c-227 -90 -241 -399 -24 -526 60 -35 164 -43 230 -18 57&#xA;22 116 74 151 134 24 41 27 56 27 136 0 103 -17 147 -82 211 -78 76 -202 102&#xA;-302 63z m192 -65 c181 -91 175 -343 -10 -421 -139 -58 -323 96 -299 250 13&#xA;79 66 148 136 176 40 16 137 13 173 -5z"/>
    <path d="M5670 2671 c-131 -40 -223 -156 -224 -281 0 -83 28 -144 95 -204 107&#xA;-96 252 -103 365 -17 99 75 143 202 110 315 -23 80 -99 157 -176 180 -56 17&#xA;-128 20 -170 7z m141 -63 c97 -28 155 -119 147 -228 -5 -75 -42 -131 -113&#xA;-175 -112 -69 -268 -17 -319 107 -70 166 108 350 285 296z"/>
    <path d="M4050 2291 c-91 -19 -178 -98 -201 -184 -6 -23 -9 -69 -6 -102 20&#xA;-252 354 -377 512 -192 37 43 65 118 65 173 0 60 -38 159 -79 206 -66 75 -197&#xA;119 -291 99z m148 -77 c116 -48 186 -209 134 -310 -59 -115 -169 -146 -293&#xA;-81 -99 51 -155 153 -134 245 11 54 60 117 106 140 53 26 133 29 187 6z"/>
    <path d="M2014 8705 c-333 -72 -484 -481 -278 -750 132 -173 331 -237 531&#xA;-170 90 31 144 66 208 137 131 144 156 358 64 540 -37 74 -124 162 -196 201&#xA;-57 31 -165 57 -228 56 -22 0 -67 -7 -101 -14z m268 -123 c79 -38 149 -111&#xA;186 -190 23 -49 27 -70 27 -152 0 -84 -3 -102 -29 -157 -34 -74 -123 -164&#xA;-191 -194 -102 -45 -229 -43 -331 6 -62 30 -132 103 -171 176 -26 50 -28 62&#xA;-28 169 0 106 2 119 28 168 77 146 194 214 358 209 74 -3 96 -8 151 -35z"/>
    <path d="M8048 8359 c-119 -28 -243 -129 -295 -239 -93 -198 -62 -396 85 -544&#xA;82 -83 175 -127 284 -133 156 -10 277 35 372 137 82 89 119 173 124 284 8 156&#xA;-35 275 -137 377 -64 63 -113 92 -198 114 -62 16 -176 18 -235 4z m277 -117&#xA;c124 -63 196 -172 203 -308 9 -172 -66 -302 -217 -373 -48 -22 -69 -26 -151&#xA;-26 -82 0 -103 4 -151 26 -149 70 -227 202 -217 368 9 154 100 280 241 332 81&#xA;30 212 22 292 -19z"/>
    <path d="M8270 6723 c-48 -7 -145 -46 -186 -74 -119 -81 -181 -219 -172 -378&#xA;6 -97 39 -172 109 -246 76 -81 157 -118 269 -123 184 -9 334 78 408 236 24 51&#xA;27 68 27 172 0 110 -2 119 -33 181 -59 122 -154 198 -278 224 -68 14 -95 16&#xA;-144 8z m185 -117 c68 -31 121 -79 153 -140 24 -45 27 -62 27 -146 0 -78 -4&#xA;-104 -24 -148 -48 -107 -169 -182 -295 -182 -96 0 -151 23 -223 95 -76 76 -98&#xA;137 -91 249 15 223 249 363 453 272z"/>
    <path d="M1631 5454 c-119 -32 -230 -124 -285 -236 -118 -240 19 -535 279&#xA;-603 105 -27 207 -15 310 37 65 34 149 122 186 196 33 65 34 71 34 187 0 115&#xA;-1 123 -32 186 -90 184 -302 284 -492 233z m252 -107 c65 -32 140 -109 170&#xA;-175 33 -72 31 -198 -5 -274 -35 -76 -98 -142 -167 -175 -49 -24 -68 -28 -146&#xA;-28 -82 0 -97 3 -157 33 -114 56 -178 156 -186 292 -7 121 35 209 139 291 94&#xA;74 241 90 352 36z"/>
  </g>
  <title>Klaun żonglujący piłkami</title>
  <desc>Wesoły klaun w kolorowym stroju żongluje kilkoma piłkami naraz. To trudna sztuka, która wymaga wiele ćwiczeń. Pokoloruj jego strój w najśmieszniejsze wzory.</desc>
</svg>