<?xml version="1.0" standalone="no"?>
<!DOCTYPE svg PUBLIC "-//W3C//DTD SVG 20010904//EN"
 "http://www.w3.org/TR/2001/REC-SVG-20010904/DTD/svg10.dtd">
<svg version="1.0" xmlns="http://www.w3.org/2000/svg"
 width="1024.000000pt" height="1024.000000pt" viewBox="0 0 1024.000000 1024.000000"
 preserveAspectRatio="xMidYMid meet">
<metadata>
Created by potrace 1.16, written by Peter Selinger 2001-2019
</metadata>
<g transform="translate(0.000000,1024.000000) scale(0.100000,-0.100000)"
fill="#000000" stroke="none">
<path d="M3400 9639 c-119 -15 -210 -40 -333 -91 -154 -63 -345 -163 -377
-198 -3 -3 -21 -17 -40 -30 -19 -14 -42 -32 -51 -40 -8 -8 -33 -28 -54 -45
-21 -16 -69 -66 -108 -110 -38 -44 -98 -111 -132 -150 -127 -141 -182 -216
-260 -354 -99 -176 -170 -398 -209 -661 -6 -39 -20 -330 -19 -400 0 -25 2
-101 3 -169 l3 -124 -29 -25 c-56 -46 -70 -60 -156 -151 -48 -50 -102 -110
-120 -134 -121 -160 -149 -200 -191 -267 -74 -121 -136 -272 -162 -395 -25
-121 -21 -201 17 -304 40 -111 196 -225 341 -249 48 -8 267 -7 330 2 148 20
197 30 293 61 79 26 284 113 294 125 15 19 82 33 158 35 48 1 94 5 103 9 12 5
19 -1 29 -23 7 -17 50 -68 95 -114 64 -64 85 -93 90 -121 4 -20 11 -39 16 -41
13 -9 -1 -35 -19 -35 -26 0 -123 -59 -187 -114 -115 -97 -197 -205 -261 -339
-26 -56 -109 -317 -129 -407 -2 -8 -17 -67 -33 -130 -68 -260 -115 -447 -118
-474 -2 -16 -9 -47 -15 -70 -6 -22 -13 -52 -16 -66 -2 -13 -11 -56 -19 -95 -9
-38 -17 -79 -20 -90 -2 -11 -20 -76 -40 -145 -71 -246 -84 -295 -84 -323 0
-39 90 -126 167 -162 l60 -27 2 -57 c1 -31 4 -69 7 -86 2 -16 7 -93 10 -170
l6 -140 -58 -90 c-32 -49 -61 -92 -65 -95 -3 -3 -8 -9 -10 -15 -14 -35 -182
-276 -198 -285 -20 -10 -251 -72 -341 -90 -286 -60 -500 -137 -630 -226 -49
-35 -130 -117 -149 -153 -36 -66 -52 -185 -36 -265 23 -112 163 -217 335 -251
101 -19 340 -14 435 9 39 10 81 20 94 22 14 3 28 7 33 10 4 3 8 -10 8 -28 0
-43 40 -126 76 -159 44 -40 164 -119 183 -120 9 0 24 -2 33 -4 9 -2 22 3 29
11 10 12 17 9 45 -16 29 -25 128 -79 159 -87 6 -1 48 -15 95 -32 91 -31 264
-61 358 -61 206 0 412 73 458 161 18 36 25 187 12 286 -17 133 -107 257 -216
298 -30 11 -56 23 -59 27 -2 5 7 18 21 30 31 29 185 205 222 255 16 21 56 72
89 114 198 249 276 377 313 504 11 39 20 77 20 85 1 8 2 70 2 137 1 118 2 122
32 162 l30 41 71 -63 c80 -69 92 -81 157 -154 25 -28 70 -79 100 -113 30 -35
60 -72 66 -84 19 -35 29 -329 24 -721 -1 -136 11 -196 45 -208 18 -8 19 -36 1
-59 -25 -33 -26 -386 -2 -423 38 -58 169 -113 330 -138 63 -10 72 -9 107 10
l38 21 48 -23 c59 -28 156 -61 203 -69 19 -3 49 -9 65 -12 70 -13 322 -12 410
3 50 8 96 15 103 15 6 1 12 5 12 10 0 5 5 6 10 3 6 -3 16 -3 23 2 6 4 18 8 25
9 19 3 105 60 123 82 24 28 31 57 30 116 -2 122 -25 226 -69 312 -63 125 -225
232 -366 243 -68 6 -71 7 -69 31 6 56 4 587 -2 682 -9 159 -24 263 -44 318
-50 134 -88 224 -113 270 -32 57 -125 186 -165 230 -22 24 -22 25 -5 33 23 11
52 58 52 86 0 28 -27 105 -59 172 l-28 56 49 13 c27 6 72 30 101 51 28 21 67
42 87 45 53 10 107 49 129 93 13 25 31 43 51 49 47 17 121 72 139 104 16 29
17 29 76 22 116 -13 188 6 236 63 16 19 45 36 82 48 37 12 72 32 97 56 21 21
56 47 77 58 105 54 175 205 138 296 l-14 32 65 44 c68 46 157 100 236 143 52
28 214 126 256 154 15 10 48 33 74 50 25 18 49 32 52 32 3 0 26 14 50 32 l45
31 34 -18 c46 -24 118 -17 194 21 32 16 68 30 80 31 66 6 161 87 189 160 18
45 16 59 -12 143 -4 11 3 16 22 18 15 1 54 7 88 13 79 14 468 20 566 9 186
-22 157 -17 330 -55 64 -14 127 -28 141 -31 13 -2 60 -7 104 -11 69 -5 87 -3
120 15 87 44 123 113 102 194 -21 85 -164 200 -292 235 -62 17 -253 43 -314
43 l-46 0 157 87 c164 89 229 141 273 217 30 53 35 90 19 147 -19 63 -73 114
-143 135 -126 37 -271 -3 -580 -158 -63 -32 -116 -56 -118 -55 -19 20 483 550
707 746 166 145 295 282 325 345 40 81 45 158 15 217 -38 74 -90 100 -196 100
-101 0 -172 -25 -259 -93 -27 -21 -57 -44 -66 -51 -105 -80 -361 -347 -454
-472 -77 -105 -146 -212 -182 -284 -54 -105 -37 -163 24 -85 283 362 480 577
691 754 23 19 59 44 79 55 21 11 40 23 43 26 11 14 87 32 128 30 124 -4 121
-85 -8 -242 -44 -53 -84 -92 -324 -314 -65 -60 -124 -115 -130 -121 -6 -7 -81
-83 -166 -170 -178 -182 -242 -257 -371 -439 -72 -100 -133 -169 -267 -302
l-175 -172 -28 39 c-36 50 -75 70 -137 70 -39 0 -58 -6 -93 -32 -24 -17 -50
-39 -59 -49 -8 -10 -33 -27 -55 -39 -75 -41 -124 -85 -151 -136 -19 -35 -36
-53 -58 -61 -290 -102 -437 -156 -461 -167 -16 -8 -70 -31 -120 -51 -49 -19
-97 -39 -106 -44 -9 -5 -34 -14 -56 -20 -22 -6 -57 -22 -77 -36 -20 -13 -36
-22 -36 -18 0 3 -6 0 -14 -6 -11 -9 -22 -6 -51 13 -46 31 -90 40 -164 33 -80
-7 -136 -38 -208 -115 l-63 -66 -30 34 c-34 37 -103 141 -190 282 -30 47 -83
119 -118 158 -36 39 -61 75 -56 79 5 4 51 33 102 64 236 145 437 397 514 645
37 121 48 201 43 332 -2 69 -7 139 -10 155 -24 131 -69 264 -142 425 -14 30
-26 60 -28 65 -1 6 -5 18 -8 28 -4 9 -9 24 -12 32 -8 27 -18 300 -10 293 9 -8
221 121 295 180 129 104 215 198 264 291 113 215 11 397 -269 479 -95 28 -151
34 -349 36 -137 1 -171 5 -177 16 -4 8 -24 51 -44 95 -41 90 -102 190 -153
250 -58 68 -210 220 -251 251 -26 19 -47 48 -65 90 -29 66 -74 115 -121 132
-16 6 -70 18 -119 27 -119 23 -190 57 -274 134 -94 86 -164 111 -317 116 -60
1 -139 -1 -175 -6z m144 -37 c2 -4 -5 -9 -17 -9 -17 -2 -19 0 -7 7 18 12 18
12 24 2z m166 -101 c33 -11 71 -34 95 -57 112 -108 165 -135 335 -170 143 -29
144 -30 186 -201 23 -91 28 -131 28 -253 1 -128 -2 -158 -28 -255 -15 -61 -34
-119 -42 -129 -8 -12 -38 -25 -76 -33 -35 -7 -70 -15 -78 -17 -8 -3 -33 -9
-55 -14 -22 -5 -67 -17 -100 -26 -108 -30 -129 -30 -192 -1 -131 59 -287 192
-367 311 -37 55 -98 174 -89 174 3 0 1 6 -5 13 -16 19 -34 124 -27 156 4 20
26 45 68 77 94 74 95 74 152 144 72 88 95 144 95 231 0 65 1 69 23 69 12 0 47
-9 77 -19z m-223 -17 c47 -64 -77 -242 -257 -369 -62 -44 -77 -113 -49 -226
28 -114 79 -226 149 -329 44 -65 139 -166 190 -202 19 -13 58 -42 87 -63 l52
-38 -152 -52 c-213 -73 -524 -199 -697 -284 -138 -67 -379 -197 -390 -210 -3
-3 -18 -13 -35 -21 -16 -8 -32 -18 -35 -21 -3 -3 -61 -43 -130 -89 -151 -100
-232 -162 -258 -195 l-20 -25 -4 62 c-6 86 -1 424 7 473 3 22 10 64 16 93 6
29 12 67 14 84 17 129 130 416 214 543 22 33 44 67 48 75 13 29 142 177 190
220 70 63 175 128 241 151 98 34 281 73 393 85 114 11 188 57 177 110 -3 17
-13 19 -103 19 -99 0 -241 -20 -259 -37 -6 -4 -19 -8 -30 -8 -12 0 -54 -11
-95 -25 -41 -14 -76 -23 -78 -21 -2 2 11 9 29 15 18 6 73 38 122 71 99 66 235
138 311 165 28 9 59 21 70 25 25 10 102 31 134 37 14 2 28 7 31 10 12 12 104
-5 117 -23z m1084 -621 c66 -79 168 -239 192 -300 15 -39 15 -42 -1 -47 -35
-9 -118 -25 -157 -30 -39 -5 -124 -22 -156 -32 -14 -4 -13 8 7 97 12 56 25
120 28 143 8 57 9 237 1 261 -8 23 -10 26 86 -92z m-2161 93 c0 -2 -8 -10 -17
-17 -16 -13 -17 -12 -4 4 13 16 21 21 21 13z m2230 -26 c12 -16 19 -30 16 -30
-2 0 -14 14 -26 30 -12 17 -19 30 -16 30 2 0 14 -13 26 -30z m90 -124 c0 -6
-7 -1 -15 10 -8 10 -15 23 -15 28 0 6 7 1 15 -10 8 -10 15 -23 15 -28z m-46
-2 c3 -8 2 -12 -4 -9 -6 3 -10 10 -10 16 0 14 7 11 14 -7z m-284 -104 c0 -5
-5 -10 -11 -10 -5 0 -7 5 -4 10 3 6 8 10 11 10 2 0 4 -4 4 -10z m430 -54 c0
-12 -5 -7 -19 24 -11 24 -11 24 3 6 9 -11 16 -24 16 -30z m-2686 -21 c-9 -14
-18 -25 -21 -25 -5 0 5 18 20 38 17 22 18 13 1 -13z m2243 -7 c-3 -8 -6 -5 -6
6 -1 11 2 17 5 13 3 -3 4 -12 1 -19z m417 -14 c3 -8 2 -12 -4 -9 -6 3 -10 10
-10 16 0 14 7 11 14 -7z m-2721 -9 c-3 -9 -8 -14 -10 -11 -3 3 -2 9 2 15 9 16
15 13 8 -4z m2387 -181 c0 -8 -19 -13 -24 -6 -3 5 1 9 9 9 8 0 15 -2 15 -3z
m840 -8 c95 -8 228 -63 276 -114 59 -63 56 -154 -8 -254 -57 -88 -187 -214
-290 -281 -93 -59 -148 -91 -153 -85 -1 2 -15 50 -29 108 -22 85 -63 201 -102
287 -4 7 14 15 48 22 60 13 56 12 293 37 62 6 95 25 95 54 0 26 -98 53 -191
53 -79 -1 -240 -13 -250 -19 -3 -1 -28 -6 -55 -9 -91 -12 -276 -45 -389 -70
-11 -2 -76 -16 -145 -30 -174 -36 -436 -100 -555 -137 -188 -57 -230 -70 -250
-78 -11 -5 -58 -21 -105 -35 -47 -15 -98 -32 -115 -39 -30 -13 -89 -35 -202
-77 -32 -12 -77 -30 -100 -40 -24 -11 -45 -19 -47 -19 -21 0 -386 -183 -426
-214 -16 -12 -42 -27 -105 -60 -103 -55 -379 -254 -509 -366 -42 -37 -148
-142 -171 -170 -17 -22 -59 -78 -130 -175 -34 -47 -85 -149 -85 -171 0 -79
127 -66 311 31 59 32 66 31 67 -3 2 -95 57 -239 128 -339 41 -57 182 -183 205
-183 5 0 9 -4 9 -9 0 -8 -185 -89 -219 -96 -9 -2 -41 -10 -71 -18 -30 -9 -71
-18 -90 -21 -19 -2 -55 -8 -80 -13 -81 -14 -329 -9 -386 9 -244 76 -278 298
-99 642 59 114 142 245 198 314 17 22 42 53 54 69 40 51 263 272 363 358 222
192 603 427 923 569 31 14 83 38 115 52 103 47 116 52 234 98 64 25 130 48
145 52 15 4 33 10 38 14 13 9 196 70 335 110 58 17 137 41 175 52 61 18 386
99 455 113 14 3 45 10 70 15 112 24 366 60 456 66 54 3 100 7 102 9 3 3 191
-3 262 -9z m-1709 -53 c13 -16 12 -17 -3 -4 -10 7 -18 15 -18 17 0 8 8 3 21
-13z m-1640 -16 c-10 -9 -11 -8 -5 6 3 10 9 15 12 12 3 -3 0 -11 -7 -18z
m3049 -161 c0 -2 -7 -7 -16 -10 -8 -3 -12 -2 -9 4 6 10 25 14 25 6z m-103
-183 c42 -64 77 -176 99 -322 16 -106 19 -139 29 -261 18 -222 21 -238 80
-363 32 -70 105 -288 109 -327 1 -9 5 -20 8 -25 3 -6 7 -64 7 -131 3 -186 -24
-323 -87 -449 -107 -213 -294 -394 -527 -509 -100 -50 -235 -96 -325 -111
-107 -18 -149 -23 -185 -25 -71 -4 -228 -1 -265 5 -19 3 -51 8 -70 11 -64 10
-85 13 -135 25 -27 6 -59 15 -70 20 -11 5 -51 20 -90 34 -77 28 -81 29 -175
74 -155 73 -385 259 -454 370 l-28 43 27 28 c14 15 30 44 36 65 10 35 8 40
-15 64 l-27 26 -47 -53 c-38 -43 -58 -56 -107 -71 -124 -38 -276 -7 -377 78
-74 62 -153 173 -175 246 -31 104 -25 218 19 320 73 174 222 228 401 147 53
-24 88 -51 158 -122 121 -121 153 -120 208 6 33 74 36 98 34 264 -1 131 -6
174 -31 280 -16 69 -31 131 -33 139 -2 8 7 20 21 27 48 25 229 104 239 104 5
0 22 5 38 12 15 6 30 12 33 13 3 1 12 4 20 8 8 3 49 17 90 32 41 14 85 30 96
35 26 10 182 61 244 80 25 7 90 28 145 46 215 69 724 188 940 221 22 3 49 9
60 13 25 10 38 0 82 -67z m638 -133 c-3 -5 -12 -10 -18 -10 -7 0 -6 4 3 10 19
12 23 12 15 0z m-110 -90 c-3 -5 -12 -10 -18 -10 -7 0 -6 4 3 10 19 12 23 12
15 0z m-175 -84 c0 -2 -7 -7 -16 -10 -8 -3 -12 -2 -9 4 6 10 25 14 25 6z
m-2994 -171 c-11 -8 -25 -15 -30 -15 -6 1 0 7 14 15 32 19 40 18 16 0z m5894
-229 c0 -2 -8 -10 -17 -17 -16 -13 -17 -12 -4 4 13 16 21 21 21 13z m-100 -40
c0 -2 -7 -9 -15 -16 -13 -11 -14 -10 -9 4 5 14 24 23 24 12z m-5830 -86 c0 -5
-5 -10 -11 -10 -5 0 -7 5 -4 10 3 6 8 10 11 10 2 0 4 -4 4 -10z m-467 -45 c-3
-9 -8 -14 -10 -11 -3 3 -2 9 2 15 9 16 15 13 8 -4z m6190 -30 c-3 -9 -8 -14
-10 -11 -3 3 -2 9 2 15 9 16 15 13 8 -4z m567 1 c0 -2 -8 -10 -17 -17 -16 -13
-17 -12 -4 4 13 16 21 21 21 13z m-3346 -32 c3 -8 2 -12 -4 -9 -6 3 -10 10
-10 16 0 14 7 11 14 -7z m-3574 -78 c0 -2 -8 -10 -17 -17 -16 -13 -17 -12 -4
4 13 16 21 21 21 13z m316 -94 c-17 -16 -18 -16 -5 5 7 12 15 20 18 17 3 -2
-3 -12 -13 -22z m-33 -37 c-3 -9 -8 -14 -10 -11 -3 3 -2 9 2 15 9 16 15 13 8
-4z m1010 -46 c-8 -8 -13 -7 -18 2 -5 8 -4 10 3 5 7 -4 12 -2 12 5 0 7 3 9 7
6 4 -4 2 -12 -4 -18z m5317 7 c0 -2 -8 -10 -17 -17 -16 -13 -17 -12 -4 4 13
16 21 21 21 13z m-6720 -26 c0 -5 -5 -10 -11 -10 -5 0 -7 5 -4 10 3 6 8 10 11
10 2 0 4 -4 4 -10z m6161 -33 c-10 -9 -11 -8 -5 6 3 10 9 15 12 12 3 -3 0 -11
-7 -18z m-6227 -71 c-3 -9 -10 -16 -15 -16 -5 0 -4 9 3 20 14 22 21 20 12 -4z
m-43 -69 c-10 -9 -11 -8 -5 6 3 10 9 15 12 12 3 -3 0 -11 -7 -18z m6589 -1 c0
-2 -8 -10 -17 -17 -16 -13 -17 -12 -4 4 13 16 21 21 21 13z m-6607 -31 c-3 -9
-8 -14 -10 -11 -3 3 -2 9 2 15 9 16 15 13 8 -4z m6527 -49 c0 -2 -8 -10 -17
-17 -16 -13 -17 -12 -4 4 13 16 21 21 21 13z m9 -39 c-2 -1 -13 -9 -24 -17
-19 -14 -19 -14 -6 3 7 9 18 17 24 17 6 0 8 -1 6 -3z m-136 -92 c-3 -9 -8 -14
-10 -11 -3 3 -2 9 2 15 9 16 15 13 8 -4z m-52 -58 c-10 -9 -11 -8 -5 6 3 10 9
15 12 12 3 -3 0 -11 -7 -18z m-2451 -57 c-6 -11 -12 -20 -14 -20 -2 0 -2 9 1
20 3 11 9 20 15 20 5 0 4 -9 -2 -20z m3073 -98 c36 -37 26 -71 -41 -132 -33
-30 -79 -66 -103 -78 -24 -13 -65 -36 -90 -50 -25 -15 -77 -45 -115 -66 -92
-53 -162 -104 -175 -127 -6 -13 -6 -25 1 -38 12 -23 57 -33 245 -55 121 -14
264 -45 303 -65 9 -5 37 -17 62 -27 60 -25 120 -80 120 -110 0 -40 -48 -57
-139 -50 -42 3 -90 10 -106 15 -40 12 -201 49 -245 56 -128 19 -194 23 -345
20 -112 -2 -194 -8 -240 -19 -38 -9 -81 -18 -95 -20 -14 -2 -45 -9 -70 -16
-25 -7 -52 -13 -60 -15 -49 -10 -76 -19 -83 -29 -9 -13 -52 34 -81 88 -17 32
-18 39 -5 63 24 47 212 220 333 308 16 11 44 33 64 49 41 31 238 149 317 189
187 94 406 154 494 136 19 -4 43 -16 54 -27z m-809 -160 c3 -5 -1 -9 -9 -9 -8
0 -12 4 -9 9 3 4 7 8 9 8 2 0 6 -4 9 -8z m856 -5 c0 -2 -10 -12 -22 -23 l-23
-19 19 23 c18 21 26 27 26 19z m-135 -107 c-3 -5 -12 -10 -18 -10 -7 0 -6 4 3
10 19 12 23 12 15 0z m-6935 -25 c14 -19 14 -19 -2 -6 -10 7 -18 18 -18 24 0
6 1 8 3 6 1 -2 9 -13 17 -24z m6030 -9 c0 -2 -8 -10 -17 -17 -16 -13 -17 -12
-4 4 13 16 21 21 21 13z m-2380 -100 c0 -2 -8 -10 -17 -17 -16 -13 -17 -12 -4
4 13 16 21 21 21 13z m2250 -30 c0 -2 -7 -7 -16 -10 -8 -3 -12 -2 -9 4 6 10
25 14 25 6z m-2240 -10 c0 -2 -7 -7 -16 -10 -8 -3 -12 -2 -9 4 6 10 25 14 25
6z m2190 -30 c0 -2 -8 -10 -17 -17 -16 -13 -17 -12 -4 4 13 16 21 21 21 13z
m-2280 -41 c-7 -9 -15 -13 -19 -10 -3 3 1 10 9 15 21 14 24 12 10 -5z m2114
-21 c3 -8 2 -12 -4 -9 -6 3 -10 10 -10 16 0 14 7 11 14 -7z m-3834 -71 c47
-28 114 -64 150 -81 76 -34 337 -119 394 -128 21 -3 48 -7 59 -10 11 -2 54 -6
96 -10 67 -6 80 -10 109 -37 26 -25 31 -37 27 -62 -2 -16 -7 -52 -10 -79 -3
-27 -8 -53 -10 -56 -4 -7 -142 12 -205 28 -146 37 -317 114 -435 193 -24 16
-48 29 -54 29 -6 0 -11 4 -11 8 0 4 -13 16 -29 25 -36 21 -184 167 -177 175 3
2 -1 20 -9 39 -19 45 -19 49 3 31 9 -8 55 -37 102 -65z m1636 65 c4 -7 4 -10
-1 -6 -4 4 -17 3 -29 -3 -20 -10 -20 -10 -2 5 24 19 23 19 32 4z m2130 -51 c9
-16 13 -31 11 -34 -19 -18 75 -225 128 -284 31 -34 33 -41 24 -68 -6 -16 -17
-32 -26 -35 -39 -15 -136 87 -187 198 -52 114 -61 178 -32 234 26 51 52 47 82
-11z m-191 -182 c31 -85 97 -212 136 -262 22 -28 35 -51 29 -57 -16 -16 -87
-23 -117 -11 -62 26 -114 108 -152 241 -34 116 -30 131 44 192 l40 33 6 -58
c4 -32 10 -67 14 -78z m-3737 73 c89 -121 216 -225 367 -304 39 -20 75 -40 80
-44 21 -16 249 -92 265 -88 3 1 14 -4 26 -10 23 -12 58 -21 119 -29 22 -3 56
-8 75 -12 40 -8 38 3 26 -176 -3 -49 -2 -128 2 -174 8 -83 8 -83 -18 -93 -14
-6 -67 -7 -125 -3 -163 10 -313 24 -337 31 -21 6 -44 56 -79 169 -56 179 -142
368 -171 373 -39 7 -37 -29 11 -218 26 -102 59 -218 74 -259 14 -41 24 -78 21
-83 -3 -5 -24 -21 -47 -35 -158 -98 -269 -261 -186 -271 28 -3 39 6 144 117
28 29 67 62 88 73 36 18 46 19 152 7 l114 -12 -33 -66 c-74 -147 -112 -405
-80 -543 9 -35 18 -81 21 -102 5 -35 3 -38 -13 -32 -11 4 -59 16 -109 27 -226
48 -279 66 -426 151 -149 84 -281 254 -354 454 -21 56 -64 211 -80 284 -18 84
-22 238 -10 328 15 102 106 305 166 367 16 17 29 34 29 37 0 10 73 79 125 119
40 30 102 65 122 69 1 0 20 -24 41 -52z m5563 25 c13 -16 12 -17 -3 -4 -10 7
-18 15 -18 17 0 8 8 3 21 -13z m-5786 -33 c-3 -5 -12 -10 -18 -10 -7 0 -6 4 3
10 19 12 23 12 15 0z m1746 -82 c-18 -29 -42 -64 -54 -78 -44 -50 -133 -118
-197 -150 -62 -32 -169 -64 -179 -55 -15 16 17 217 38 238 7 7 53 17 104 24
103 13 103 13 216 43 45 12 84 27 87 32 3 5 8 7 11 4 3 -3 -9 -29 -26 -58z
m1964 12 c-3 -5 -12 -10 -18 -10 -7 0 -6 4 3 10 19 12 23 12 15 0z m-3791 -15
c-4 -8 -11 -15 -16 -15 -6 0 -5 6 2 15 7 8 14 15 16 15 2 0 1 -7 -2 -15z
m1859 -30 c-3 -9 -8 -14 -10 -11 -3 3 -2 9 2 15 9 16 15 13 8 -4z m147 -44
c14 -20 29 -45 36 -56 42 -78 194 -291 243 -342 l60 -62 -51 -31 c-43 -27 -89
-50 -108 -55 -3 0 -21 -6 -41 -13 -19 -7 -65 -16 -102 -20 l-67 -8 -1 60 c0
34 -2 70 -5 81 -2 11 -8 49 -13 85 -22 150 -53 207 -73 135 -7 -27 -23 -266
-23 -357 0 -35 -3 -38 -67 -72 -37 -20 -88 -52 -114 -71 l-46 -35 -129 0 -129
0 -1 53 c-4 175 3 372 14 379 6 4 30 10 52 14 172 28 362 148 458 289 22 33
44 62 49 63 4 2 5 8 2 14 -17 27 35 -19 56 -51z m-2030 45 c0 -2 -8 -10 -17
-17 -16 -13 -17 -12 -4 4 13 16 21 21 21 13z m3875 -131 c19 -55 42 -113 51
-129 17 -29 17 -29 -21 -60 -39 -32 -130 -92 -224 -146 -29 -17 -63 -40 -74
-51 -12 -10 -25 -19 -29 -19 -5 0 -38 -18 -74 -40 -36 -22 -69 -40 -74 -40 -4
0 -47 -26 -96 -58 -49 -32 -109 -69 -134 -83 -25 -13 -48 -28 -51 -32 -3 -4
-28 17 -56 46 -76 83 -138 127 -179 127 -42 0 -101 -29 -152 -74 -20 -18 -57
-38 -82 -45 -30 -9 -59 -28 -88 -58 -36 -37 -51 -45 -90 -50 -98 -10 -151 -75
-159 -193 -3 -42 1 -81 10 -108 l14 -41 -44 32 c-146 104 -216 237 -184 352
11 39 13 41 169 118 87 42 165 77 173 77 8 0 39 -9 69 -21 30 -11 75 -21 100
-21 98 1 240 108 273 205 10 31 23 48 53 64 47 27 217 103 241 108 10 2 63 22
118 44 55 22 181 72 280 112 99 39 187 75 195 80 8 4 19 7 23 6 4 -1 23 -47
42 -102z m565 99 c0 -8 -19 -13 -24 -6 -3 5 1 9 9 9 8 0 15 -2 15 -3z m-3855
-34 c3 -6 -1 -7 -9 -4 -18 7 -21 14 -7 14 6 0 13 -4 16 -10z m1276 -23 c-10
-9 -11 -8 -5 6 3 10 9 15 12 12 3 -3 0 -11 -7 -18z m313 -93 c3 -8 2 -12 -4
-9 -6 3 -10 10 -10 16 0 14 7 11 14 -7z m2127 -21 c13 -16 12 -17 -3 -4 -10 7
-18 15 -18 17 0 8 8 3 21 -13z m-2918 -33 c-3 -12 -8 -19 -11 -16 -5 6 5 36
12 36 2 0 2 -9 -1 -20z m2891 4 c3 -8 2 -12 -4 -9 -6 3 -10 10 -10 16 0 14 7
11 14 -7z m-2927 -16 c-3 -8 -6 -5 -6 6 -1 11 2 17 5 13 3 -3 4 -12 1 -19z
m927 -14 c3 -8 2 -12 -4 -9 -6 3 -10 10 -10 16 0 14 7 11 14 -7z m507 -87 c26
-20 32 -66 13 -95 -56 -85 -141 -110 -217 -63 -28 17 -34 26 -29 41 10 27 70
89 107 111 34 21 102 24 126 6z m1149 -61 c0 -2 -7 -7 -16 -10 -8 -3 -12 -2
-9 4 6 10 25 14 25 6z m-90 -10 c0 -2 -7 -7 -16 -10 -8 -3 -12 -2 -9 4 6 10
25 14 25 6z m-970 -56 c-6 -11 -13 -20 -16 -20 -2 0 0 9 6 20 6 11 13 20 16
20 2 0 0 -9 -6 -20z m950 6 c0 -2 -7 -7 -16 -10 -8 -3 -12 -2 -9 4 6 10 25 14
25 6z m-210 -142 c0 -8 -19 -13 -24 -6 -3 5 1 9 9 9 8 0 15 -2 15 -3z m-145
-84 c-3 -5 -12 -10 -18 -10 -7 0 -6 4 3 10 19 12 23 12 15 0z m-1411 -51 c15
2 17 -1 11 -16 -22 -55 -42 -144 -39 -174 9 -84 58 -171 141 -250 67 -65 123
-98 229 -133 85 -29 90 -33 81 -53 -5 -11 -30 -32 -56 -46 -42 -23 -55 -25
-141 -22 -52 2 -114 9 -138 16 -100 28 -51 -50 58 -93 33 -12 60 -26 60 -30 0
-39 -228 -54 -264 -17 -13 12 -63 12 -71 -1 -10 -16 19 -55 61 -80 33 -21 35
-24 18 -34 -11 -6 -76 -11 -154 -11 -127 0 -138 2 -196 28 -89 41 -116 77
-141 181 -31 132 4 336 80 463 21 37 125 119 253 201 87 56 131 75 151 68 7
-3 13 -1 13 5 0 6 6 7 13 2 6 -4 21 -6 31 -4z m915 -48 c81 -86 176 -193 184
-207 13 -22 -44 -77 -80 -76 -108 3 -245 151 -229 248 2 16 5 32 5 37 2 14 41
47 57 47 9 0 38 -22 63 -49z m-3214 -18 c15 -99 69 -268 121 -378 22 -46 30
-75 20 -75 -27 0 -154 50 -198 78 -67 43 -66 28 -16 222 17 63 35 136 40 162
13 57 23 54 33 -9z m3052 -55 c-3 -7 -5 -2 -5 12 0 14 2 19 5 13 2 -7 2 -19 0
-25z m-52 -39 c43 -106 125 -212 194 -248 19 -10 20 -15 10 -28 -13 -15 -48
-31 -81 -38 -25 -5 -99 46 -144 101 -74 90 -88 122 -85 197 1 32 44 80 67 75
9 -2 26 -28 39 -59z m-1045 35 c0 -8 -19 -13 -24 -6 -3 5 1 9 9 9 8 0 15 -2
15 -3z m-690 -44 c-8 -5 -19 -10 -25 -10 -5 0 -3 5 5 10 8 5 20 10 25 10 6 0
3 -5 -5 -10z m486 -30 c-21 -23 -83 -161 -91 -200 -47 -225 -42 -342 19 -481
6 -13 -5 -18 -66 -28 -153 -24 -372 -29 -392 -8 -7 6 -13 14 -13 17 -1 3 -8
30 -17 60 -23 82 -30 137 -28 223 2 87 3 94 27 187 10 36 18 70 19 75 1 6 21
46 44 90 l43 80 234 0 c207 0 232 -2 221 -15z m1044 -68 c9 -34 30 -81 45
-104 34 -52 128 -144 155 -153 11 -4 20 -10 20 -15 0 -13 -28 -20 -84 -20 -89
0 -167 63 -215 174 -25 58 -26 75 -6 124 16 38 42 65 59 59 5 -2 17 -31 26
-65z m-2027 33 c-3 -9 -8 -14 -10 -11 -3 3 -2 9 2 15 9 16 15 13 8 -4z m-23
-28 c0 -2 -10 -12 -22 -23 l-23 -19 19 23 c18 21 26 27 26 19z m2711 -70 c-10
-9 -11 -8 -5 6 3 10 9 15 12 12 3 -3 0 -11 -7 -18z m-3317 -43 c3 -8 2 -12 -4
-9 -6 3 -10 10 -10 16 0 14 7 11 14 -7z m-164 -229 c63 -22 226 -65 249 -65
10 0 49 -30 87 -67 123 -121 337 -214 629 -274 28 -6 51 -12 53 -14 6 -5 -69
-76 -76 -72 -4 3 -50 8 -102 11 -83 6 -135 13 -255 32 -63 10 -192 36 -250 51
-33 8 -67 16 -75 18 -78 17 -368 128 -415 159 l-22 15 18 73 c10 40 21 87 23
104 3 17 10 43 15 57 l10 27 33 -20 c19 -11 53 -26 78 -35z m-85 -396 c33 -13
65 -24 70 -25 6 -2 42 -15 80 -29 81 -31 292 -92 350 -101 22 -3 42 -7 45 -9
4 -3 70 -14 230 -41 14 -2 58 -7 98 -10 69 -6 72 -8 55 -24 -10 -9 -34 -36
-53 -60 -19 -25 -49 -60 -66 -80 -17 -19 -45 -54 -61 -77 -17 -23 -33 -40 -35
-37 -7 6 -35 11 -105 19 -32 3 -78 11 -103 16 -25 6 -54 12 -65 14 -33 6 -207
53 -260 70 -219 73 -359 140 -371 179 -3 10 11 72 32 137 l38 118 30 -19 c17
-10 58 -29 91 -41z m1935 -9 c0 -4 -13 -13 -30 -19 -34 -11 -38 -6 -14 20 15
17 44 16 44 -1z m-370 -137 c-74 -76 -164 -174 -198 -218 -35 -44 -71 -89 -80
-100 -9 -11 -74 -91 -146 -179 -71 -88 -136 -167 -145 -176 -9 -9 -28 -32 -43
-51 -511 -639 -835 -942 -1212 -1133 -213 -108 -361 -163 -526 -195 -30 -6
-68 -13 -85 -17 -68 -13 -229 -16 -307 -4 -228 32 -324 161 -240 322 41 79 97
132 192 181 138 71 279 114 495 152 64 11 83 15 159 35 44 11 83 20 87 20 4 0
1 -17 -8 -37 -8 -21 -22 -59 -29 -84 l-14 -47 -102 -36 c-147 -53 -427 -123
-511 -128 -20 -1 -37 -6 -37 -11 0 -4 -4 -5 -10 -2 -6 3 -10 -5 -10 -19 0 -45
46 -59 185 -59 93 1 138 6 200 23 44 12 84 23 90 24 5 1 15 4 20 7 6 4 28 12
50 19 122 39 447 217 545 299 14 11 30 24 35 28 160 121 190 147 380 338 141
141 201 208 285 321 19 26 60 77 90 114 30 38 98 123 150 191 102 132 227 284
275 336 17 18 57 63 90 102 33 38 71 74 85 79 14 6 66 10 115 10 104 0 225 9
275 21 19 5 35 9 35 10 0 1 -60 -61 -135 -136z m-399 104 c-10 -9 -11 -8 -5 6
3 10 9 15 12 12 3 -3 0 -11 -7 -18z m1062 -36 c18 -7 33 -30 56 -85 17 -41 31
-79 31 -85 0 -13 -69 -45 -220 -102 -19 -8 -37 -14 -40 -15 -3 0 -32 -9 -65
-19 -33 -10 -76 -19 -97 -21 -35 -2 -36 -1 -40 34 -3 20 -6 72 -7 115 l-2 77
38 16 c47 20 282 91 305 93 9 0 28 -3 41 -8z m-489 -215 c3 -65 8 -121 10
-124 15 -14 -36 -31 -174 -59 -85 -16 -157 -29 -159 -27 -2 2 3 10 10 17 8 8
21 23 29 34 55 68 80 97 147 165 64 66 125 120 129 115 1 -1 4 -56 8 -121z
m-664 90 c0 -2 -8 -10 -17 -17 -16 -13 -17 -12 -4 4 13 16 21 21 21 13z m490
-59 c0 -2 -12 -14 -27 -28 l-28 -24 24 28 c23 25 31 32 31 24z m757 -204 c42
-51 130 -178 156 -228 44 -83 96 -230 112 -320 12 -65 15 -88 21 -162 3 -46 3
-83 0 -83 -3 0 -45 -11 -92 -25 -48 -14 -98 -27 -112 -30 -14 -2 -51 -10 -81
-16 -116 -25 -469 -11 -521 21 -7 4 -13 48 -16 115 -5 103 -7 111 -39 159 -19
28 -54 71 -77 96 -24 25 -73 79 -110 120 -36 41 -93 97 -127 125 l-60 50 142
26 c78 14 171 33 207 43 36 9 74 18 85 21 11 2 45 11 75 20 30 9 66 17 80 19
14 3 37 9 51 14 15 6 29 9 30 7 2 -2 54 14 114 35 61 20 113 38 116 39 3 0 24
-20 46 -46z m-2183 29 c3 -5 -1 -9 -9 -9 -8 0 -12 4 -9 9 3 4 7 8 9 8 2 0 6
-4 9 -8z m686 -6 c0 -2 -8 -10 -17 -17 -16 -13 -17 -12 -4 4 13 16 21 21 21
13z m-751 -25 c21 -12 298 -84 402 -105 42 -9 99 -16 126 -17 l51 -2 -52 -64
c-28 -36 -78 -100 -111 -142 -108 -141 -138 -174 -287 -323 -134 -135 -168
-163 -168 -140 0 4 -12 15 -27 25 -16 9 -47 33 -71 54 l-43 38 65 109 c36 59
69 124 73 144 9 49 10 193 1 318 -9 116 -4 129 41 105z m624 -146 c-3 -9 -8
-14 -10 -11 -3 3 -2 9 2 15 9 16 15 13 8 -4z m47 1 c0 -2 -8 -10 -17 -17 -16
-13 -17 -12 -4 4 13 16 21 21 21 13z m-30 -40 c0 -2 -8 -10 -17 -17 -16 -13
-17 -12 -4 4 13 16 21 21 21 13z m458 -40 c-7 -8 -15 -12 -17 -11 -5 6 10 25
20 25 5 0 4 -6 -3 -14z m-608 -80 c0 -2 -8 -10 -17 -17 -16 -13 -17 -12 -4 4
13 16 21 21 21 13z m-30 -40 c0 -2 -8 -10 -17 -17 -16 -13 -17 -12 -4 4 13 16
21 21 21 13z m-42 -56 c-7 -10 -14 -17 -17 -15 -4 4 18 35 25 35 2 0 -1 -9 -8
-20z m2 -55 c-7 -8 -17 -15 -23 -15 -6 0 -2 7 9 15 25 19 30 19 14 0z m585 3
c-2 -7 -6 -40 -9 -73 -3 -33 -9 -72 -15 -87 -5 -14 -7 -29 -4 -32 4 -3 1 -6
-5 -6 -7 0 -12 -8 -12 -17 0 -42 -198 -327 -239 -345 -22 -9 -191 -10 -191 0
0 4 32 43 71 87 102 115 120 136 159 185 127 158 243 299 247 300 1 0 1 -6 -2
-12z m-115 -12 c0 -2 -8 -10 -17 -17 -16 -13 -17 -12 -4 4 13 16 21 21 21 13z
m-1064 -54 c-17 -16 -18 -16 -5 5 7 12 15 20 18 17 3 -2 -3 -12 -13 -22z m524
-16 c0 -2 -8 -10 -17 -17 -16 -13 -17 -12 -4 4 13 16 21 21 21 13z m450 -40
c0 -2 -8 -10 -17 -17 -16 -13 -17 -12 -4 4 13 16 21 21 21 13z m-1020 -16 c0
-5 -5 -10 -11 -10 -5 0 -7 5 -4 10 3 6 8 10 11 10 2 0 4 -4 4 -10z m1000 -64
c0 -2 -8 -10 -17 -17 -16 -13 -17 -12 -4 4 13 16 21 21 21 13z m-130 -100 c0
-2 -8 -10 -17 -17 -16 -13 -17 -12 -4 4 13 16 21 21 21 13z m-770 -133 c0 -2
-4 -2 -8 0 -5 1 -47 -27 -93 -64 -101 -78 -115 -85 -129 -59 -18 33 -11 55 47
147 l56 91 64 -56 c34 -30 63 -57 63 -59z m700 57 c0 -5 -5 -10 -11 -10 -5 0
-7 5 -4 10 3 6 8 10 11 10 2 0 4 -4 4 -10z m0 -54 c0 -3 -4 -8 -10 -11 -5 -3
-10 -1 -10 4 0 6 5 11 10 11 6 0 10 -2 10 -4z m-620 -30 c0 -2 -8 -10 -17 -17
-16 -13 -17 -12 -4 4 13 16 21 21 21 13z m2584 -164 c-2 -53 -8 -100 -13 -105
-15 -15 -174 -64 -246 -76 -90 -15 -224 -20 -278 -11 -23 4 -62 10 -87 14 -72
9 -191 43 -200 57 -6 8 -4 218 2 224 2 2 24 -3 48 -12 35 -13 88 -16 240 -17
211 -1 283 8 435 54 l90 27 6 -30 c4 -16 5 -73 3 -125z m-3009 118 c-3 -5 -12
-10 -18 -10 -7 0 -6 4 3 10 19 12 23 12 15 0z m965 -11 c-7 -11 -14 -18 -17
-15 -3 3 0 12 7 21 18 21 23 19 10 -6z m-1009 -82 c-10 -9 -11 -8 -5 6 3 10 9
15 12 12 3 -3 0 -11 -7 -18z m-407 -15 c3 -5 -1 -9 -9 -9 -8 0 -12 4 -9 9 3 4
7 8 9 8 2 0 6 -4 9 -8z m506 -22 c0 -10 -31 -23 -38 -15 -8 7 19 35 29 29 5
-3 9 -9 9 -14z m1160 -14 c0 -2 -8 -10 -17 -17 -16 -13 -17 -12 -4 4 13 16 21
21 21 13z m-207 -32 c49 -4 84 -10 79 -13 -5 -3 -44 -48 -86 -99 l-78 -94 -66
6 c-37 3 -91 8 -120 12 l-53 7 107 104 c73 71 110 100 118 94 6 -5 51 -13 99
-17z m-993 -18 c0 -2 -8 -10 -17 -17 -16 -13 -17 -12 -4 4 13 16 21 21 21 13z
m-790 -20 c0 -2 -7 -7 -16 -10 -8 -3 -12 -2 -9 4 6 10 25 14 25 6z m815 -16
c-3 -5 -12 -10 -18 -10 -7 0 -6 4 3 10 19 12 23 12 15 0z m1096 -23 c-10 -9
-11 -8 -5 6 3 10 9 15 12 12 3 -3 0 -11 -7 -18z m-431 -20 c0 -2 -10 -12 -22
-23 l-23 -19 19 23 c18 21 26 27 26 19z m390 -31 c0 -2 -8 -10 -17 -17 -16
-13 -17 -12 -4 4 13 16 21 21 21 13z m1690 -36 c0 -5 -2 -10 -4 -10 -3 0 -8 5
-11 10 -3 6 -1 10 4 10 6 0 11 -4 11 -10z m216 -52 c-1 -24 -3 -52 -4 -64 -3
-28 -123 -83 -219 -100 -15 -3 -46 -9 -68 -14 -60 -14 -248 -12 -345 4 -47 8
-87 15 -90 16 -3 1 -18 4 -34 7 -34 7 -56 51 -56 113 0 47 -1 47 105 18 168
-45 453 -29 630 35 39 14 73 25 76 26 4 1 6 -18 5 -41z m-4049 -18 c-1 -11 -7
-22 -14 -24 -9 -4 -10 0 -1 19 14 30 17 31 15 5z m1623 16 c0 -2 -8 -10 -17
-17 -16 -13 -17 -12 -4 4 13 16 21 21 21 13z m68 -72 c7 -2 31 -6 55 -9 23 -3
51 -8 62 -10 11 -2 39 -4 62 -4 l42 -1 -25 -25 c-25 -25 -26 -25 -195 -23
-191 2 -202 7 -116 57 49 28 65 31 115 15z m-193 -159 c48 -15 48 -15 80 -15
33 0 32 -11 -5 -35 -31 -21 -69 -80 -58 -90 4 -4 28 3 55 15 108 49 147 60
225 60 92 0 194 -33 240 -77 40 -38 79 -117 83 -167 3 -37 0 -42 -29 -54 -88
-39 -208 -61 -340 -61 -195 0 -303 31 -553 155 -106 53 -193 99 -193 103 0 4
8 7 18 8 26 2 170 66 267 119 96 51 133 65 155 57 8 -3 33 -11 55 -18z m2795
-6 c8 -2 17 -6 20 -9 3 -3 29 -16 58 -30 79 -36 124 -96 147 -196 19 -77 15
-80 -135 -109 -102 -20 -332 -25 -470 -12 -206 21 -355 47 -577 100 l-93 22 0
45 c1 53 14 118 28 132 6 6 41 5 97 -5 187 -32 367 -20 538 37 40 13 80 23 89
23 18 0 18 -2 -19 -56 -25 -37 -30 -61 -10 -61 6 0 40 27 74 59 35 33 68 62
75 64 13 6 151 2 178 -4z m-556 -27 c3 -5 -1 -9 -9 -9 -8 0 -12 4 -9 9 3 4 7
8 9 8 2 0 6 -4 9 -8z m-1743 -29 c13 -16 12 -17 -3 -4 -17 13 -22 21 -14 21 2
0 10 -8 17 -17z m74 -43 c3 -6 -1 -7 -9 -4 -18 7 -21 14 -7 14 6 0 13 -4 16
-10z m-1112 -151 c44 -35 81 -56 292 -162 121 -60 207 -88 360 -115 50 -9 258
-9 305 0 69 13 136 27 168 37 38 11 41 3 10 -26 -61 -55 -131 -74 -298 -78
-273 -7 -507 61 -625 181 -29 30 -58 54 -64 54 -6 0 -16 -9 -23 -20 -7 -11
-19 -20 -26 -20 -28 0 -140 82 -171 125 -36 50 -38 62 -13 68 21 4 25 2 85
-44z m2452 -128 c39 -12 96 -24 127 -27 l56 -7 -25 -25 c-36 -36 -96 -36 -228
2 -60 18 -107 63 -98 95 5 18 6 18 51 0 26 -10 79 -27 117 -38z m80 49 c3 -6
-1 -7 -9 -4 -18 7 -21 14 -7 14 6 0 13 -4 16 -10z m-1365 -64 c0 -2 -7 -7 -16
-10 -8 -3 -12 -2 -9 4 6 10 25 14 25 6z m-1195 -24 c-3 -3 -11 0 -18 7 -9 10
-8 11 6 5 10 -3 15 -9 12 -12z m42 -17 c0 -8 -4 -12 -9 -9 -5 3 -6 10 -3 15 9
13 12 11 12 -6z m2803 -10 c122 -30 271 -43 450 -39 114 2 183 14 298 49 28 9
30 -14 3 -39 -17 -16 -103 -51 -146 -61 -11 -2 -31 -7 -45 -10 -49 -11 -322
-5 -415 9 -107 17 -251 71 -290 109 -12 11 62 2 145 -18z m-483 -51 c-3 -3
-12 -4 -19 -1 -8 3 -5 6 6 6 11 1 17 -2 13 -5z m518 -94 c3 -5 1 -10 -4 -10
-6 0 -11 5 -11 10 0 6 2 10 4 10 3 0 8 -4 11 -10z m90 -28 c-3 -3 -11 0 -18 7
-9 10 -8 11 6 5 10 -3 15 -9 12 -12z"/>
<path d="M4593 7950 c-73 -30 -117 -66 -139 -113 -32 -67 5 -121 62 -90 96 52
111 57 169 57 49 0 72 -7 122 -33 94 -50 138 -31 114 48 -22 76 -112 139 -217
151 -41 5 -63 1 -111 -20z m-72 -153 c-10 -9 -11 -8 -5 6 3 10 9 15 12 12 3
-3 0 -11 -7 -18z"/>
<path d="M3707 7756 c-65 -27 -82 -37 -152 -93 -93 -73 -156 -240 -109 -287
26 -26 40 -19 94 48 99 126 179 183 280 202 51 9 58 9 118 0 24 -4 51 -4 62
-1 47 15 27 86 -37 130 -52 35 -171 36 -256 1z"/>
<path d="M4680 7542 c-26 -7 -92 -42 -106 -56 -7 -7 -24 -30 -38 -51 -29 -43
-35 -109 -12 -140 13 -18 16 -15 51 41 47 75 94 108 159 110 62 3 77 -3 120
-44 44 -41 75 -124 84 -222 6 -65 9 -75 27 -75 60 0 25 278 -46 369 -32 40
-119 77 -176 75 -26 -1 -55 -4 -63 -7z"/>
<path d="M4436 7513 c-43 -43 -66 -210 -46 -333 24 -152 88 -242 212 -299 40
-19 100 -47 133 -62 34 -16 71 -40 84 -53 24 -25 24 -26 7 -63 -31 -69 -119
-147 -180 -159 -92 -19 -112 -19 -215 -9 -62 6 -70 5 -79 -12 -15 -27 12 -56
76 -83 95 -41 225 -29 340 29 73 37 113 80 151 160 66 141 51 194 -81 277 -29
19 -38 29 -28 32 44 14 94 115 86 174 -13 91 -82 168 -151 168 -39 0 -95 -58
-97 -101 -3 -66 3 -150 12 -175 13 -32 -1 -31 -55 3 -75 47 -103 114 -111 258
-9 181 -14 222 -33 239 -10 9 -21 13 -25 9z m95 -540 c13 -16 12 -17 -3 -4
-10 7 -18 15 -18 17 0 8 8 3 21 -13z m-56 -483 c3 -6 -1 -7 -9 -4 -18 7 -21
14 -7 14 6 0 13 -4 16 -10z"/>
<path d="M3792 7360 c-118 -56 -185 -142 -207 -265 -27 -155 4 -275 95 -367
69 -69 156 -109 189 -88 20 12 3 32 -64 75 -75 48 -103 82 -124 149 -30 95
-22 190 24 283 42 85 84 118 162 129 111 14 207 -51 251 -173 13 -34 28 -65
34 -69 19 -12 28 20 23 76 -14 145 -150 281 -279 278 -28 0 -69 -11 -104 -28z
m-87 -606 c9 -15 12 -23 6 -20 -11 7 -35 46 -28 46 3 0 12 -12 22 -26z"/>
<path d="M3933 7081 c-47 -29 -74 -89 -74 -165 -1 -35 6 -79 15 -100 19 -47
80 -106 108 -106 37 0 85 39 114 93 48 91 29 218 -39 264 -48 33 -86 37 -124
14z"/>
<path d="M2315 6784 c-71 -39 -105 -97 -86 -148 13 -34 28 -33 67 5 44 42 94
48 163 18 l53 -23 -30 -25 c-39 -32 -52 -67 -52 -135 0 -101 47 -214 100 -241
36 -19 79 -19 86 -1 3 7 -12 47 -34 87 -50 94 -59 139 -35 179 22 39 38 38 92
-5 53 -42 77 -45 84 -9 6 36 -52 151 -103 201 -85 86 -238 134 -305 97z m239
-130 c3 -8 2 -12 -4 -9 -6 3 -10 10 -10 16 0 14 7 11 14 -7z"/>
<path d="M3730 6424 c-55 -23 -110 -91 -110 -135 0 -48 21 -67 55 -49 14 7 25
19 25 26 0 17 27 25 38 11 5 -7 20 -34 33 -62 13 -27 27 -52 30 -55 3 -3 19
-27 35 -55 44 -77 168 -195 244 -232 192 -92 349 -66 491 84 52 54 78 96 104
166 15 38 30 56 77 89 63 44 81 79 56 105 -14 13 -25 10 -99 -25 -46 -23 -106
-44 -134 -47 -27 -4 -61 -9 -75 -11 -57 -10 -269 -4 -335 10 -119 26 -339 97
-359 117 -6 5 7 9 35 9 52 0 74 12 66 34 -14 36 -113 47 -177 20z m55 -24 c-3
-5 -12 -10 -18 -10 -7 0 -6 4 3 10 19 12 23 12 15 0z m278 -260 c23 -5 61 -14
85 -20 51 -12 250 -16 340 -5 l64 7 -24 -33 c-43 -60 -107 -116 -143 -125 -14
-3 -27 -10 -30 -14 -13 -22 -226 20 -244 48 -3 5 -19 16 -36 25 -30 15 -40 25
-129 130 l-49 57 62 -30 c34 -17 80 -35 104 -40z m485 -105 c-6 -14 -13 -23
-15 -21 -5 5 15 46 22 46 3 0 -1 -11 -7 -25z m-583 -25 c3 -6 -1 -7 -9 -4 -18
7 -21 14 -7 14 6 0 13 -4 16 -10z"/>
<path d="M9101 6989 c-96 -24 -163 -56 -285 -132 -118 -74 -239 -175 -262
-220 -27 -52 -29 -99 -5 -122 17 -15 37 -18 104 -18 82 0 237 10 273 18 10 2
55 11 99 20 44 9 91 20 105 25 14 5 36 12 50 14 35 7 105 33 148 55 124 64
161 221 75 318 -48 55 -183 73 -302 42z m182 -108 c18 -3 47 -43 47 -65 0 -36
-44 -82 -98 -101 -26 -10 -54 -20 -62 -23 -8 -3 -19 -4 -23 -3 -4 0 -16 -3
-25 -8 -10 -5 -45 -13 -77 -16 -33 -4 -63 -9 -66 -11 -4 -2 -31 -6 -60 -10
-30 -3 -57 -8 -61 -10 -3 -2 -42 -6 -85 -9 l-78 -6 25 21 c14 12 42 36 63 55
64 57 294 173 372 187 18 4 109 3 128 -1z m-573 -184 c0 -2 -10 -12 -22 -23
l-23 -19 19 23 c18 21 26 27 26 19z m-107 -62 c-3 -9 -8 -14 -10 -11 -3 3 -2
9 2 15 9 16 15 13 8 -4z m141 -63 c3 -5 -1 -9 -9 -9 -8 0 -12 4 -9 9 3 4 7 8
9 8 2 0 6 -4 9 -8z"/>
<path d="M7163 6910 c-117 -47 -194 -253 -188 -500 5 -185 20 -251 58 -258 64
-13 225 263 282 483 23 88 17 164 -18 233 -21 44 -83 62 -134 42z m48 -142 c2
-51 -3 -89 -21 -145 -26 -83 -64 -183 -83 -218 l-16 -30 -1 30 c-6 136 35 307
88 368 21 23 32 22 33 -5z"/>
<path d="M8770 6042 c-59 -8 -98 -24 -129 -51 l-33 -30 22 -30 c12 -17 25 -31
29 -31 4 0 16 -8 27 -18 62 -58 282 -162 340 -162 76 0 144 64 144 135 0 76
-74 138 -211 176 -44 12 -141 17 -189 11z m119 -117 c66 -7 136 -36 150 -63
23 -43 -46 -29 -169 33 -45 23 -77 50 -48 41 7 -3 37 -7 67 -11z m11 -121 c0
-2 -7 -4 -15 -4 -8 0 -15 4 -15 10 0 5 7 7 15 4 8 -4 15 -8 15 -10z"/>
</g>
</svg>
