<?xml version="1.0" encoding="UTF-8" standalone="yes"?>
<svg version="1.0" xmlns="http://www.w3.org/2000/svg" width="1024.000000pt" height="1024.000000pt" viewBox="0 0 1024.000000 1024.000000" preserveAspectRatio="xMidYMid meet">
  <metadata>
Created by potrace 1.16, written by Peter Selinger 2001-2019
</metadata>
  <g transform="translate(0.000000,1024.000000) scale(0.100000,-0.100000)" fill="#000000" stroke="none">
    <path d="M9469 9946 c-2 -2 -65 -6 -139 -9 -758 -35 -1609 -179 -2216 -378&#xA;-321 -104 -617 -230 -743 -313 -126 -84 -241 -235 -241 -317 0 -37 12 -44 123&#xA;-74 342 -91 530 -219 816 -553 207 -243 507 -714 827 -1297 49 -90 257 -519&#xA;295 -610 88 -208 223 -547 264 -660 25 -72 52 -148 60 -170 8 -21 12 -42 7&#xA;-46 -4 -5 -146 -55 -317 -112 -459 -155 -568 -194 -860 -310 -110 -43 -209&#xA;-81 -220 -83 -15 -4 -24 4 -36 28 -18 38 -113 107 -186 134 -26 9 -49 18 -51&#xA;19 -5 4 160 240 191 274 38 40 80 59 156 72 183 29 366 201 417 392 27 102 16&#xA;257 -26 369 -31 85 -60 122 -96 126 -44 4 -39 11 -207 -307 l-49 -94 -52 7&#xA;c-66 7 -181 64 -243 120 l-48 44 24 43 c14 24 66 107 116 184 113 172 128 200&#xA;120 226 -24 76 -286 55 -437 -34 -64 -38 -165 -144 -204 -213 -49 -88 -77&#xA;-202 -69 -284 8 -82 35 -170 75 -251 18 -34 32 -77 33 -95 1 -41 -40 -121&#xA;-134 -261 l-73 -110 -46 14 c-58 19 -180 11 -247 -16 -206 -81 -322 -248 -348&#xA;-502 l-6 -57 -63 -31 c-59 -29 -71 -31 -173 -31 -108 0 -110 0 -129 28 -11 15&#xA;-87 126 -169 247 -226 334 -357 493 -484 586 l-59 43 41 35 c216 182 375 399&#xA;458 625 61 166 73 236 74 421 0 155 -2 179 -29 280 -15 61 -54 182 -86 270&#xA;-88 239 -93 265 -105 520 -11 227 -34 474 -50 526 -5 13 14 21 102 43 240 60&#xA;454 198 595 384 152 200 196 404 120 561 -73 151 -262 243 -499 242 -164 0&#xA;-308 -28 -638 -122 l-180 -51 -107 106 c-289 284 -619 411 -1026 393 -129 -6&#xA;-305 -34 -442 -70 -326 -88 -697 -307 -910 -539 -215 -233 -320 -402 -401&#xA;-641 -58 -172 -69 -257 -65 -492 4 -199 6 -218 40 -364 20 -85 38 -156 41&#xA;-159 3 -3 -23 -19 -57 -35 -91 -44 -189 -145 -232 -239 -40 -90 -52 -139 -61&#xA;-248 -26 -328 162 -651 445 -763 133 -53 262 -60 393 -21 49 14 90 24 92 22 2&#xA;-1 6 -15 10 -29 5 -20 1 -28 -21 -39 -35 -19 -111 -104 -136 -154 -11 -22 -23&#xA;-60 -27 -85 -7 -51 16 -38 -216 -126 -182 -69 -317 -144 -329 -183 -3 -9 -31&#xA;-30 -62 -46 -96 -51 -235 -157 -348 -266 -256 -249 -444 -557 -586 -965 -88&#xA;-251 -150 -519 -175 -755 -20 -184 -19 -273 6 -393 32 -159 116 -315 235 -438&#xA;l45 -46 -31 -114 c-34 -122 -75 -313 -86 -394 -3 -27 -8 -52 -9 -55 -2 -3 -6&#xA;-37 -10 -75 -4 -39 -9 -73 -11 -76 -23 -39 -23 -828 0 -994 3 -16 7 -82 11&#xA;-145 3 -63 10 -149 15 -190 5 -41 12 -104 15 -140 3 -36 10 -96 15 -135 20&#xA;-151 62 -442 68 -480 l8 -40 57 -3 c31 -2 57 -1 57 1 0 2 -9 62 -20 133 -19&#xA;125 -45 318 -54 399 -2 22 -7 67 -11 100 -11 103 -14 128 -24 215 -9 76 -14&#xA;132 -26 295 -11 146 -23 610 -17 641 3 18 13 23 63 28 141 16 299 103 431 237&#xA;91 92 204 258 243 358 16 39 31 71 35 71 4 0 33 -9 66 -20 32 -11 67 -20 77&#xA;-20 11 0 31 -13 46 -29 27 -28 140 -71 190 -71 39 0 21 -15 -42 -34 -34 -11&#xA;-94 -34 -133 -52 -62 -28 -74 -37 -92 -75 -29 -61 -32 -84 -36 -244 -5 -201 9&#xA;-417 29 -459 20 -42 59 -73 162 -128 43 -23 81 -46 84 -51 4 -5 10 -167 15&#xA;-361 4 -193 8 -373 10 -401 1 -27 2 -159 3 -292 l1 -243 56 0 57 0 -7 392 c-3&#xA;216 -9 493 -12 616 -4 133 -3 222 2 222 5 0 18 -6 29 -14 157 -108 1506 -801&#xA;1890 -971 72 -32 135 -61 140 -65 6 -4 98 -46 205 -94 l196 -86 144 1 c80 0&#xA;138 3 130 6 -53 20 -607 270 -815 368 -323 151 -859 417 -1145 569 -300 158&#xA;-769 414 -800 436 -14 9 -51 32 -83 49 -124 68 -152 88 -165 114 -14 29 -31&#xA;510 -19 541 6 15 16 10 64 -32 32 -27 85 -67 118 -89 91 -60 369 -225 470&#xA;-278 198 -105 716 -365 805 -405 52 -24 118 -53 145 -65 28 -13 77 -35 110&#xA;-50 167 -76 328 -135 367 -135 27 0 34 28 12 46 -11 8 -120 65 -244 126 -968&#xA;477 -1135 562 -1415 722 -108 62 -272 170 -318 210 -16 14 -26 29 -23 35 9 14&#xA;201 76 343 110 67 16 156 39 198 51 l77 22 36 -26 c121 -83 307 -102 466 -47&#xA;34 12 64 17 70 13 47 -36 162 -128 166 -134 16 -20 134 -82 193 -100 51 -15&#xA;81 -19 119 -14 63 9 82 18 130 63 34 33 39 35 69 24 46 -16 88 -13 134 9 52&#xA;24 73 44 114 103 29 43 36 48 61 42 36 -8 104 21 143 61 40 39 68 108 74 176&#xA;6 57 6 57 47 71 76 25 116 116 116 262 l0 62 60 16 c72 20 94 21 87 5 -3 -7&#xA;-21 -49 -40 -93 -94 -219 -147 -447 -148 -632 l0 -72 -65 -52 c-168 -133 -220&#xA;-262 -231 -566 -16 -447 66 -637 357 -830 137 -91 494 -276 766 -398 l131 -58&#xA;7 -61 c3 -36 17 -83 34 -116 l28 -55 429 -2 c300 -1 421 2 400 9 -16 5 -75 27&#xA;-130 48 -55 21 -134 50 -175 65 -699 257 -1367 587 -1561 772 -127 121 -179&#xA;286 -179 561 1 259 42 404 147 512 l63 64 35 -51 c93 -139 259 -185 420 -116&#xA;207 88 427 388 511 698 74 276 39 483 -104 617 -64 60 -134 100 -210 119 l-62&#xA;15 73 70 c134 127 298 254 535 414 84 57 155 100 159 96 4 -3 8 -26 9 -51 2&#xA;-25 8 -62 13 -82 6 -20 8 -40 5 -44 -2 -4 -40 -33 -85 -64 -52 -36 -95 -77&#xA;-124 -117 -25 -33 -45 -64 -45 -68 0 -14 53 -29 580 -159 493 -123 616 -155&#xA;900 -236 63 -18 201 -56 305 -85 105 -29 273 -77 375 -106 102 -30 223 -65&#xA;270 -79 47 -14 146 -42 220 -64 74 -22 167 -49 205 -60 39 -10 108 -31 154&#xA;-45 47 -14 98 -26 115 -26 17 0 65 18 106 40 41 22 118 62 170 89 52 27 138&#xA;72 190 100 107 58 941 473 1068 532 45 22 121 58 170 80 48 23 116 54 152 70&#xA;l65 28 3 300 c2 237 0 301 -10 301 -20 0 -138 -58 -198 -98 -30 -19 -79 -58&#xA;-108 -86 -29 -28 -57 -52 -61 -54 -5 -2 -18 13 -29 32 -41 69 -173 141 -335&#xA;182 -37 9 -67 20 -67 25 0 23 210 138 360 197 95 38 242 88 300 102 25 6 69&#xA;18 98 27 l53 15 -3 120 c-3 120 -3 121 -28 129 -52 15 -336 88 -365 93 -16 3&#xA;-57 13 -90 22 -137 37 -339 79 -431 89 -78 9 -124 -5 -178 -55 l-41 -38 -120&#xA;22 -120 23 1 31 c4 75 139 217 231 243 63 17 229 0 478 -50 174 -35 597 -131&#xA;648 -147 16 -5 17 12 17 255 l0 261 -42 0 c-24 0 -72 5 -108 10 -209 29 -534&#xA;46 -858 43 -208 -2 -252 0 -243 11 6 7 18 32 26 56 14 39 13 46 -4 85 -26 58&#xA;-85 97 -155 103 -67 5 -95 -17 -160 -128 -26 -44 -51 -78 -56 -75 -5 3 -18 34&#xA;-29 68 -39 121 -92 270 -107 298 -8 16 -34 82 -58 146 -119 323 -415 941 -592&#xA;1233 -28 47 -71 121 -96 165 -62 112 -358 569 -434 671 -91 121 -185 238 -248&#xA;308 -62 69 -102 106 -251 234 -96 81 -281 178 -403 210 l-74 19 49 20 c47 20&#xA;218 78 278 94 17 4 55 15 85 24 145 42 516 126 620 140 25 3 79 12 121 20 42&#xA;8 98 17 125 20 27 3 94 12 149 20 55 8 132 17 170 20 39 3 88 8 110 10 63 7&#xA;143 14 230 20 44 3 98 8 120 11 143 20 545 32 955 29 250 -1 469 -5 485 -8 17&#xA;-3 66 -8 109 -12 43 -3 122 -10 175 -15 53 -5 99 -10 104 -10 4 0 7 27 7 59&#xA;l0 59 -47 6 c-418 52 -972 61 -1573 26 -179 -11 -220 -14 -350 -30 -41 -5&#xA;-115 -12 -165 -15 -49 -3 -98 -8 -110 -10 -11 -2 -43 -7 -72 -9 -52 -6 -308&#xA;-43 -353 -51 -30 -6 -130 -22 -185 -30 -115 -18 -470 -99 -645 -148 -130 -37&#xA;-390 -125 -427 -145 -82 -44 22 57 128 123 235 149 702 317 1233 445 168 40&#xA;465 97 611 116 28 3 59 8 70 10 19 4 196 27 295 39 25 3 99 10 165 15 66 6&#xA;134 12 150 14 159 21 893 29 1153 14 l122 -8 0 60 0 60 -57 2 c-32 0 -69 2&#xA;-83 4 -41 5 -626 14 -631 10z m-5815 -176 c65 -16 150 -44 191 -61 131 -54&#xA;293 -167 395 -275 l54 -58 -124 -41 c-811 -268 -1408 -590 -1901 -1023 -20&#xA;-18 -39 -29 -42 -25 -9 15 -39 157 -62 292 -37 220 -31 396 21 611 17 70 80&#xA;236 97 258 30 37 228 150 364 208 260 110 479 154 739 148 128 -3 168 -8 268&#xA;-34z m1366 -321 c-87 -31 -265 -121 -385 -196 -84 -52 -361 -250 -450 -321&#xA;-49 -39 -331 -231 -410 -279 -300 -183 -603 -310 -854 -360 -104 -21 -502 -26&#xA;-521 -7 -9 9 18 34 102 99 123 95 358 253 453 305 33 18 99 55 146 81 163 92&#xA;498 248 624 291 17 5 104 36 195 68 153 54 510 171 625 205 28 8 91 27 140 42&#xA;100 29 351 91 375 91 8 0 -10 -8 -40 -19z m544 -72 c66 -55 88 -103 89 -196 0&#xA;-160 -110 -341 -298 -491 -92 -73 -173 -116 -290 -156 -59 -19 -108 -34 -110&#xA;-32 -1 2 -10 30 -20 63 -39 137 -169 375 -262 482 l-54 62 39 24 c104 66 328&#xA;180 423 216 146 55 226 71 340 68 95 -2 96 -2 143 -40z m-3445 -84 c-12 -31&#xA;-11 -27 -33 -129 -31 -144 -38 -212 -37 -343 0 -73 2 -140 5 -150 3 -9 8 -40&#xA;11 -70 8 -61 6 -54 35 -181 11 -52 28 -117 36 -145 l14 -49 -107 -110 c-60&#xA;-61 -110 -113 -113 -116 -20 -20 -166 -197 -208 -253 -30 -39 -54 -63 -56 -55&#xA;-18 55 -28 100 -51 218 -35 179 -40 430 -11 560 42 191 106 339 227 520 70&#xA;105 268 330 290 330 5 0 4 -12 -2 -27z m2443 -300 c65 -70 218 -332 218 -374&#xA;0 -13 -6 -11 -108 25 -116 42 -214 57 -407 63 -99 3 -182 7 -183 8 -2 2 10 11&#xA;26 19 17 9 36 21 44 28 7 7 42 33 78 58 36 24 111 79 168 122 56 43 111 78&#xA;120 78 10 0 30 -12 44 -27z m-182 -393 c148 -19 195 -30 287 -70 41 -17 56&#xA;-31 76 -68 65 -120 88 -251 107 -607 14 -261 25 -329 71 -458 22 -62 56 -155&#xA;75 -207 76 -212 102 -438 69 -600 -78 -382 -302 -690 -665 -912 -239 -147&#xA;-533 -219 -835 -204 -177 8 -164 6 -445 80 -42 11 -189 79 -262 121 -89 52&#xA;-223 151 -301 225 -64 59 -163 202 -221 317 -42 85 -136 346 -136 379 0 24&#xA;-20 15 -38 -17 -53 -98 -109 -130 -239 -137 -107 -5 -172 7 -260 51 -160 78&#xA;-294 263 -332 455 -34 173 14 389 107 485 35 36 123 99 146 104 6 1 29 7 51&#xA;12 161 41 365 -97 480 -325 58 -114 76 -125 119 -73 41 48 59 89 119 269 67&#xA;199 81 281 80 470 0 136 -8 193 -38 263 -6 16 -3 17 26 11 99 -18 408 0 541&#xA;31 34 8 63 13 65 12 1 -2 -12 -18 -30 -37 -56 -61 -143 -211 -130 -224 15 -15&#xA;52 -3 142 46 153 84 216 109 341 135 14 3 77 6 141 7 131 1 143 6 159 68 20&#xA;73 -6 155 -63 196 -16 12 -10 17 60 52 43 20 119 61 168 90 54 32 108 56 135&#xA;60 72 11 338 11 430 0z m2562 -2107 c-72 -116 -118 -202 -136 -256 -14 -41&#xA;-14 -52 -2 -80 18 -44 132 -147 199 -180 98 -47 210 -61 271 -32 32 15 91 103&#xA;177 262 19 35 37 63 41 63 16 0 31 -90 32 -185 1 -143 -37 -239 -127 -322 -60&#xA;-55 -110 -79 -214 -104 -166 -38 -189 -56 -327 -266 -109 -166 -131 -190 -178&#xA;-196 -35 -5 -50 4 -29 17 5 4 38 54 72 114 124 211 142 268 97 309 -37 33 -63&#xA;44 -76 31 -17 -17 -15 -25 10 -58 l21 -29 -25 -48 c-27 -52 -176 -303 -188&#xA;-316 -4 -5 -19 11 -33 35 -14 24 -39 56 -56 72 -27 26 -29 32 -17 45 16 18&#xA;147 233 183 301 37 69 29 136 -32 280 -47 108 -50 120 -50 200 0 78 3 91 38&#xA;161 65 131 156 205 297 243 105 28 107 27 52 -61z m-4726 -330 c77 -138 134&#xA;-220 271 -393 6 -8 53 -69 104 -135 88 -114 342 -393 439 -481 88 -80 176&#xA;-153 247 -206 l72 -53 -4 -75 c-2 -41 -7 -153 -11 -247 l-7 -173 -302 0 -302&#xA;0 -6 28 c-3 16 -9 65 -12 108 -9 103 -42 304 -61 373 -8 29 -13 59 -10 66 2 7&#xA;28 24 57 39 42 21 67 26 123 26 86 0 143 -24 250 -105 108 -81 122 -75 53 20&#xA;-55 75 -100 115 -168 148 -80 39 -123 45 -206 31 -83 -14 -167 -56 -269 -134&#xA;-64 -49 -133 -90 -153 -90 -5 0 -14 33 -21 73 -13 82 -53 260 -81 358 -10 36&#xA;-47 179 -82 317 -71 279 -83 381 -52 444 18 34 83 108 97 108 4 0 19 -21 34&#xA;-47z m-223 -354 c10 -46 20 -91 22 -99 9 -31 118 -458 135 -530 59 -251 70&#xA;-308 65 -337 -7 -38 13 -53 68 -53 50 0 93 18 176 72 41 26 76 48 78 48 8 0&#xA;21 -49 28 -101 4 -30 9 -57 10 -60 2 -3 7 -32 10 -65 3 -32 10 -95 15 -139 18&#xA;-152 25 -261 25 -400 0 -194 -14 -213 -183 -237 -93 -13 -153 0 -178 37 -17&#xA;26 -28 104 -39 275 -4 58 -13 168 -21 245 -8 77 -17 158 -19 181 -2 22 -9 60&#xA;-14 85 -5 24 -13 60 -16 79 -11 63 -53 233 -80 325 -91 312 -267 547 -443 594&#xA;-23 7 -42 14 -42 17 0 7 111 54 325 137 22 9 44 15 50 13 5 -1 18 -40 28 -87z&#xA;m6898 -135 c22 -11 29 -20 24 -32 -3 -9 -95 -181 -204 -382 -109 -201 -227&#xA;-418 -261 -482 -34 -65 -65 -120 -68 -122 -4 -2 -25 12 -47 31 l-40 35 86 167&#xA;c47 93 167 311 265 485 131 230 184 316 197 316 10 0 32 -7 48 -16z m-7268&#xA;-59 c155 -74 271 -250 360 -545 56 -185 112 -502 122 -690 l6 -115 -96 -130&#xA;c-89 -119 -200 -245 -216 -245 -3 0 11 56 32 125 21 69 41 135 44 148 26 117&#xA;32 165 39 337 5 123 -3 185 -24 185 -8 0 -15 -4 -16 -10 0 -5 -6 -44 -13 -85&#xA;-7 -41 -19 -118 -28 -170 -42 -261 -147 -600 -185 -600 -5 0 -24 6 -42 14 -59&#xA;25 -182 39 -274 33 -100 -7 -259 -53 -338 -98 -103 -58 -186 -152 -120 -135&#xA;13 3 58 22 100 42 135 63 252 88 401 87 149 -1 279 -48 410 -146 108 -81 107&#xA;-76 18 -135 -226 -148 -363 -348 -418 -608 -16 -77 -19 -209 -6 -266 6 -27 6&#xA;-38 -2 -38 -23 0 -264 84 -367 127 -343 146 -535 323 -623 576 -31 89 -32 98&#xA;-32 252 0 88 3 185 8 215 62 446 204 872 402 1207 172 293 390 511 662 664 94&#xA;52 94 52 196 4z m1225 -71 c222 -124 500 -194 766 -194 92 0 116 -3 116 -14 0&#xA;-25 -92 -140 -204 -254 l-111 -113 -51 39 c-132 100 -220 176 -343 301 -217&#xA;220 -308 316 -281 298 14 -9 63 -38 108 -63z m1788 -6 c128 -121 301 -346 484&#xA;-628 40 -63 82 -124 92 -136 10 -11 18 -23 18 -27 0 -3 -37 -25 -82 -49 -111&#xA;-57 -267 -210 -321 -313 -48 -95 -79 -209 -75 -282 3 -50 6 -58 23 -58 14 0&#xA;22 10 28 35 32 121 53 176 94 246 108 184 315 326 497 341 l70 6 -23 -34&#xA;c-115 -173 -143 -417 -66 -574 13 -27 23 -50 22 -51 -1 -1 -49 -30 -107 -64&#xA;-175 -104 -315 -199 -440 -300 -14 -11 -29 -20 -34 -20 -23 0 -162 105 -248&#xA;189 -104 100 -109 109 -88 181 10 31 39 179 54 270 27 164 29 594 3 745 -33&#xA;190 -63 243 -60 105 7 -338 2 -500 -22 -670 -2 -19 -7 -55 -10 -80 -8 -71 -24&#xA;-162 -29 -167 -2 -2 -20 23 -41 57 l-37 60 7 98 c3 53 8 165 10 247 3 83 9&#xA;173 16 200 9 44 6 280 -5 340 -2 11 -7 52 -11 90 -7 68 -28 165 -40 185 -4 6&#xA;6 17 22 26 15 8 66 37 113 64 47 27 88 49 92 49 4 1 46 -36 94 -81z m-401&#xA;-150 c18 -65 44 -294 45 -390 0 -63 -6 -68 -52 -40 -15 9 -65 41 -111 69 -98&#xA;61 -153 83 -211 83 -83 0 -222 -91 -266 -173 -13 -25 -21 -49 -17 -53 3 -4 25&#xA;5 47 20 47 31 186 96 205 96 14 0 12 -121 -6 -355 -11 -150 -16 -192 -24 -205&#xA;-3 -5 -31 -11 -63 -15 -31 -3 -71 -8 -88 -10 -50 -7 -245 -8 -251 -1 -3 3 -6&#xA;107 -7 231 l-1 226 39 25 c59 40 237 221 283 289 22 33 52 83 66 112 15 28 31&#xA;54 36 57 5 3 44 13 88 21 43 8 119 28 168 44 50 16 93 29 96 30 4 1 14 -27 24&#xA;-61z m4302 -5 c-3 -5 -22 -37 -44 -73 -22 -36 -42 -73 -46 -82 -3 -10 -30 -24&#xA;-64 -34 -121 -35 -541 -192 -678 -255 -22 -10 -107 -48 -190 -84 -82 -37 -220&#xA;-102 -306 -145 -185 -92 -197 -97 -205 -76 -4 9 7 26 28 45 43 38 87 117 90&#xA;165 l3 38 105 45 c221 94 1123 413 1308 462 2 1 1 -2 -1 -6z m-2200 -102 c117&#xA;-59 154 -170 96 -281 -56 -106 -140 -143 -229 -99 -57 27 -115 78 -145 125&#xA;-37 60 -71 38 -59 -39 4 -30 18 -61 38 -86 l31 -39 -44 -63 c-25 -34 -71 -107&#xA;-102 -161 -32 -54 -61 -98 -64 -98 -6 0 -17 36 -38 132 -14 62 -14 253 0 320&#xA;25 115 108 223 218 282 90 48 213 51 298 7z m461 -196 c143 -34 222 -101 222&#xA;-190 0 -42 -28 -100 -64 -134 -23 -22 -27 -23 -43 -9 -48 42 -192 100 -385&#xA;154 -16 5 -16 8 3 44 11 21 26 60 32 86 9 38 17 50 37 55 43 12 133 9 198 -6z&#xA;m-2717 -160 c42 -25 82 -52 88 -59 6 -7 29 -21 51 -31 l41 -18 -6 -136 c-10&#xA;-246 -29 -518 -41 -586 -17 -96 -61 -129 -171 -129 -58 0 -78 4 -100 20 -27&#xA;21 -28 24 -28 115 1 88 9 184 20 219 10 36 45 416 47 527 2 68 7 123 12 123 5&#xA;0 44 -20 87 -45z m2465 -125 c101 -26 229 -75 276 -105 49 -32 88 -85 99 -135&#xA;10 -45 -7 -90 -57 -149 -23 -28 -105 -91 -117 -91 -3 0 -7 10 -10 23 -4 12&#xA;-29 47 -56 78 -60 67 -156 121 -268 149 -43 11 -84 28 -90 37 -34 45 3 143 70&#xA;185 52 33 55 33 153 8z m-381 -9 c3 -5 19 -12 35 -16 35 -8 34 -3 15 -70 -12&#xA;-40 -13 -63 -6 -96 7 -32 7 -45 -2 -50 -49 -29 -81 -61 -103 -107 -24 -48 -26&#xA;-60 -22 -136 3 -45 11 -92 17 -104 9 -17 5 -32 -19 -84 -28 -59 -30 -70 -29&#xA;-178 1 -97 -3 -123 -21 -165 -37 -88 -98 -137 -195 -160 -64 -15 -106 -11&#xA;-170 19 -92 42 -145 136 -145 259 0 59 5 83 29 133 31 66 71 100 192 168 77&#xA;42 84 49 134 141 21 39 67 122 103 185 145 258 168 290 187 261z m-450 -106&#xA;c7 -61 34 -160 60 -219 24 -57 13 -96 -39 -144 -24 -23 -67 -52 -94 -66 -27&#xA;-14 -78 -52 -113 -85 -35 -33 -64 -59 -65 -58 0 1 -8 24 -17 50 -20 59 -16&#xA;174 7 265 17 65 58 142 106 200 28 34 125 112 140 112 4 0 11 -25 15 -55z&#xA;m2490 -10 c46 -27 82 -64 114 -117 21 -35 21 -39 7 -67 -9 -17 -16 -37 -16&#xA;-46 0 -24 -11 -18 -60 35 -44 47 -49 50 -97 50 -80 0 -175 -53 -289 -163 -52&#xA;-49 -111 -116 -131 -149 -20 -32 -41 -57 -47 -55 -6 2 -45 15 -86 28 -41 13&#xA;-76 24 -78 25 -2 1 17 35 42 75 75 120 186 238 299 317 75 52 105 67 177 86&#xA;65 18 111 13 165 -19z m1315 -4 c20 -6 -16 -20 -170 -70 -218 -70 -382 -144&#xA;-507 -227 l-84 -56 -137 32 c-75 18 -154 37 -175 43 l-38 11 38 23 c141 88&#xA;365 169 586 212 83 17 161 32 172 34 33 7 288 6 315 -2z m388 -104 c79 -18&#xA;140 -36 136 -40 -4 -4 -14 -7 -21 -7 -8 0 -58 -16 -111 -36 -242 -88 -404&#xA;-168 -545 -267 l-54 -37 -221 56 -221 57 69 44 c121 75 395 180 605 232 155&#xA;39 185 39 363 -2z m-3484 -107 c149 -51 235 -134 236 -228 0 -79 -45 -148&#xA;-148 -224 -91 -68 -155 -91 -254 -95 -75 -2 -89 0 -96 15 -12 23 -8 110 7 146&#xA;11 27 13 28 29 13 47 -42 177 -62 203 -31 20 24 0 45 -66 71 -98 38 -164 120&#xA;-165 204 -1 128 104 181 254 129z m-2602 -217 c-8 -43 -15 -122 -16 -175 -1&#xA;-84 2 -100 20 -125 36 -49 93 -73 188 -80 105 -7 184 14 232 62 32 31 73 138&#xA;75 194 1 25 2 24 18 -10 9 -20 22 -44 30 -52 13 -17 14 -15 -49 -252 -24 -93&#xA;-27 -103 -75 -259 -21 -65 -38 -123 -39 -130 -1 -6 -12 -42 -24 -81 -29 -88&#xA;-47 -151 -70 -240 -17 -62 -21 -70 -43 -70 -19 0 -29 11 -50 51 -100 199 -323&#xA;376 -548 436 -114 30 -269 28 -383 -5 -109 -32 -246 -86 -367 -146 -89 -43&#xA;-95 -45 -105 -27 -45 78 -151 139 -358 207 -96 31 -133 39 -194 39 l-76 0 -65&#xA;60 c-36 33 -85 72 -108 87 l-43 27 67 48 c81 60 146 129 218 230 30 43 58 80&#xA;63 83 10 6 16 -27 24 -118 7 -80 32 -126 88 -161 64 -39 154 -45 275 -21 94&#xA;20 149 47 176 89 31 46 48 151 46 274 l-1 115 348 3 c364 3 685 12 693 20 2 2&#xA;19 4 36 4 l31 0 -14 -77z m4853 -14 c149 -37 333 -84 410 -104 77 -20 208 -54&#xA;291 -75 250 -64 356 -116 395 -192 20 -37 23 -61 25 -168 3 -168 -1 -190 -35&#xA;-190 -58 0 -290 74 -292 93 -11 152 -150 294 -322 326 -98 18 -242 -7 -319&#xA;-55 -42 -27 -41 -27 -110 27 -54 42 -111 66 -254 104 -54 15 -102 30 -106 33&#xA;-10 11 -20 199 -13 243 6 36 9 38 33 33 15 -4 149 -37 297 -75z m-1109 -139&#xA;c379 -106 518 -163 592 -245 50 -54 102 -147 102 -180 0 -15 -37 -43 -139&#xA;-107 -76 -49 -140 -88 -143 -88 -3 0 -9 21 -13 48 -9 64 -59 154 -112 203 -25&#xA;23 -77 56 -116 74 -65 30 -296 107 -497 166 -41 12 -79 24 -83 26 -11 6 29 36&#xA;89 66 41 21 171 63 205 66 3 1 55 -13 115 -29z m-422 -215 c171 -49 422 -131&#xA;503 -164 59 -23 125 -68 152 -103 29 -37 42 -66 61 -136 22 -79 22 -78 -71&#xA;-133 -77 -46 -69 -47 -205 17 -227 106 -472 199 -774 294 -91 29 -169 56 -175&#xA;61 -11 11 79 106 143 150 102 72 159 74 366 14z m2024 -72 c59 -19 133 -77&#xA;158 -125 20 -38 14 -44 -24 -24 -40 21 -116 37 -175 38 -94 0 -229 -88 -272&#xA;-179 -20 -41 -21 -133 -4 -177 18 -44 66 -104 111 -136 29 -22 34 -29 22 -34&#xA;-87 -33 -232 64 -268 179 -35 108 3 280 80 362 34 36 102 79 153 98 51 19 155&#xA;18 219 -2z m-4667 -93 c54 -53 194 -150 216 -150 7 0 13 -1 13 -3 0 -2 -55&#xA;-59 -123 -127 -134 -136 -212 -225 -268 -304 -29 -42 -42 -52 -75 -57 -21 -4&#xA;-41 -5 -42 -4 -2 2 19 75 47 162 52 164 74 238 121 410 29 108 36 123 51 123&#xA;5 0 32 -23 60 -50z m4209 41 c0 -6 -5 -13 -10 -16 -36 -22 -88 -179 -92 -277&#xA;l-3 -66 -49 -34 c-83 -56 -91 -73 -90 -191 1 -92 5 -113 41 -214 l40 -112 -56&#xA;-29 c-31 -16 -76 -41 -101 -56 -56 -32 -66 -32 -74 -1 -4 14 -36 91 -71 171&#xA;-89 198 -101 255 -80 387 15 94 108 238 203 313 63 49 167 111 210 124 38 12&#xA;132 12 132 1z m-2120 -137 c132 -27 489 -157 497 -181 2 -5 -11 -17 -29 -28&#xA;-49 -28 -164 -142 -199 -197 -17 -26 -34 -48 -38 -48 -4 0 -34 9 -67 19 -32&#xA;10 -102 30 -154 45 -340 92 -465 127 -469 131 -19 20 115 180 187 222 87 52&#xA;156 61 272 37z m2650 -47 c105 -43 290 -182 290 -218 0 -5 -74 -45 -164 -89&#xA;l-164 -80 -107 72 c-60 40 -116 85 -126 102 -45 74 -7 169 84 212 65 30 116&#xA;30 187 1z m-7015 -121 c100 -39 232 -100 244 -111 2 -3 -26 -18 -61 -35 -277&#xA;-127 -476 -451 -483 -783 -1 -59 -4 -109 -7 -112 -8 -8 -102 12 -237 52 -151&#xA;44 -171 61 -192 155 -29 134 -4 288 74 452 85 179 241 330 417 403 79 32 116&#xA;29 245 -21z m1135 -31 c85 -11 145 -28 195 -53 187 -93 333 -240 388 -390 15&#xA;-41 20 -80 20 -137 -1 -169 -44 -178 -133 -29 -47 78 -188 221 -276 277 -164&#xA;106 -344 154 -344 92 0 -6 44 -34 98 -62 154 -79 210 -119 317 -228 76 -76&#xA;109 -119 138 -176 66 -129 59 -243 -16 -289 -51 -32 -65 -24 -97 57 -36 94&#xA;-100 182 -197 273 -137 128 -316 224 -458 246 -45 6 -47 5 -43 -16 2 -17 23&#xA;-33 78 -63 213 -113 335 -203 424 -311 53 -65 116 -190 116 -230 0 -36 -45&#xA;-107 -79 -125 -50 -27 -113 -3 -126 46 -23 93 -166 253 -312 349 -119 79 -183&#xA;106 -253 108 -29 1 -35 -3 -35 -19 0 -14 21 -32 75 -64 215 -125 346 -243 409&#xA;-368 28 -56 27 -79 -8 -114 -35 -34 -70 -37 -151 -13 -52 15 -81 33 -234 144&#xA;-37 27 -93 59 -123 70 -53 20 -58 20 -104 5 -63 -21 -182 -33 -238 -23 -69 12&#xA;-161 60 -222 116 -60 55 -69 54 -69 -8 0 -27 -15 -40 -45 -40 -22 0 -29 68&#xA;-17 166 15 120 59 235 138 360 71 113 334 310 334 250 0 -21 37 -39 66 -32 14&#xA;4 57 22 97 40 252 118 372 164 477 185 60 12 127 19 150 15 8 -1 35 -5 60 -9z&#xA;m4048 -110 c6 -6 10 -3 -63 -51 -33 -21 -92 -71 -131 -110 l-72 -71 -117 33&#xA;c-64 18 -119 35 -122 38 -14 14 229 232 277 248 13 4 214 -73 228 -87z m233&#xA;-97 c116 -60 172 -117 198 -203 12 -37 21 -85 21 -107 0 -34 -3 -39 -17 -33&#xA;-10 4 -67 22 -128 40 -398 117 -470 138 -474 142 -8 7 83 94 145 139 109 78&#xA;139 81 255 22z m-2907 -29 c108 -40 204 -160 213 -267 l4 -47 -62 -50 c-143&#xA;-114 -263 -306 -315 -504 -17 -65 -29 -193 -20 -216 10 -27 33 -1 41 48 23&#xA;135 101 333 176 445 33 48 168 192 181 192 22 0 -27 -231 -72 -342 -82 -201&#xA;-242 -399 -381 -468 -133 -68 -283 -19 -336 109 -27 63 -18 221 22 415 30 145&#xA;142 408 232 546 49 74 120 143 158 153 45 11 107 6 159 -14z m-4026 -466 c93&#xA;-56 238 -125 349 -165 46 -16 86 -34 89 -39 9 -15 -60 -153 -124 -249 -73&#xA;-109 -177 -213 -272 -272 -71 -45 -132 -67 -228 -83 l-44 -7 7 98 c13 181 34&#xA;323 76 512 12 52 22 99 23 105 5 30 39 147 43 147 3 0 39 -21 81 -47z"/>
    <path d="M4316 8486 c-82 -30 -121 -75 -137 -156 -10 -46 -9 -61 5 -94 18 -43&#xA;10 -42 131 -15 67 14 185 14 232 -1 21 -7 66 -26 100 -42 34 -16 72 -28 85&#xA;-26 56 8 21 168 -56 256 -23 26 -82 59 -131 74 -59 17 -188 19 -229 4z"/>
    <path d="M4114 8045 c-30 -66 -78 -254 -88 -345 -19 -166 0 -301 60 -444 46&#xA;-108 54 -116 126 -116 71 0 197 -25 255 -50 95 -42 159 -131 154 -214 -3 -46&#xA;-49 -128 -93 -165 -145 -121 -395 -132 -597 -25 -94 50 -107 52 -116 24 -15&#xA;-46 97 -138 220 -180 81 -28 246 -35 334 -15 192 46 333 176 356 328 18 117&#xA;-23 215 -117 286 l-46 35 47 42 c210 189 186 625 -40 739 -72 37 -141 42 -213&#xA;15 -99 -38 -142 -87 -207 -237 -28 -65 -3 -54 68 30 96 114 194 152 291 112&#xA;69 -30 117 -90 152 -195 47 -140 0 -328 -109 -436 -46 -44 -56 -49 -85 -38&#xA;-12 5 -9 11 15 31 97 82 99 254 4 343 -33 31 -106 35 -148 7 -77 -50 -112&#xA;-198 -68 -284 11 -23 25 -44 31 -48 21 -13 8 -20 -38 -20 l-47 0 -32 65 c-84&#xA;168 -88 309 -23 734 5 32 7 63 4 67 -12 20 -26 6 -50 -46z"/>
    <path d="M3268 7885 c-3 -3 -18 -8 -33 -11 -98 -18 -210 -138 -262 -282 -37&#xA;-100 -42 -241 -14 -352 46 -183 180 -296 339 -285 190 12 340 168 372 388 20&#xA;130 10 239 -27 320 -50 105 -127 179 -223 214 -35 13 -142 18 -152 8z m193&#xA;-140 c24 -17 58 -51 76 -77 41 -56 75 -183 71 -260 l-3 -53 -29 59 c-23 47&#xA;-36 62 -70 77 -56 25 -85 24 -132 -7 -152 -98 -140 -368 18 -416 34 -10 37&#xA;-13 21 -22 -10 -6 -57 -11 -104 -11 -78 0 -90 3 -134 30 -66 41 -110 102 -136&#xA;187 -58 191 35 435 194 509 66 31 172 23 228 -16z"/>
    <path d="M1585 7317 c-86 -34 -117 -88 -123 -208 -3 -49 -2 -95 1 -103 10 -27&#xA;36 -6 48 38 32 126 41 146 68 166 46 32 116 27 174 -11 48 -32 107 -95 107&#xA;-115 0 -6 -18 -19 -40 -29 -51 -23 -83 -85 -88 -173 -4 -55 0 -71 27 -127 17&#xA;-35 48 -78 67 -95 47 -41 63 -28 35 29 -32 61 -52 149 -44 194 7 46 71 121 96&#xA;112 8 -4 29 -40 47 -81 18 -41 36 -74 41 -74 34 0 30 95 -7 191 -38 96 -137&#xA;216 -220 264 -51 30 -144 41 -189 22z"/>
    <path d="M3203 6621 c-29 -10 -60 -24 -70 -31 -47 -36 -86 -78 -104 -112 -20&#xA;-40 -26 -108 -8 -108 6 0 37 25 69 56 58 55 58 55 77 35 10 -11 34 -57 53&#xA;-103 90 -211 253 -359 457 -412 128 -33 261 -11 370 61 57 38 82 67 128 152&#xA;28 51 34 57 91 76 106 37 194 102 194 144 0 16 -11 14 -74 -14 -145 -64 -502&#xA;-84 -715 -41 -140 29 -411 151 -443 199 -11 17 2 36 40 59 21 12 39 23 41 24&#xA;8 7 -22 34 -38 33 -9 0 -39 -8 -68 -18z m258 -340 c88 -33 171 -53 319 -77 29&#xA;-4 281 -6 302 -2 24 5 8 -36 -30 -75 -167 -173 -493 -100 -672 151 -16 23 -29&#xA;42 -27 42 2 0 50 -18 108 -39z"/>
    <path d="M2349 4292 c-38 -25 -48 -38 -62 -83 -42 -132 26 -249 144 -249 158&#xA;0 226 246 92 336 -49 33 -118 31 -174 -4z m115 -73 c39 -18 50 -63 27 -115&#xA;-22 -48 -55 -64 -96 -46 -44 20 -45 127 -2 157 26 18 38 19 71 4z"/>
    <path d="M4046 4320 c-154 -47 -139 -310 18 -310 86 0 145 68 145 170 1 65&#xA;-23 111 -68 135 -33 17 -52 18 -95 5z m66 -104 c4 -6 8 -25 8 -41 0 -80 -81&#xA;-104 -96 -29 -4 24 0 37 21 62 26 31 50 33 67 8z"/>
    <path d="M5694 4016 c-60 -27 -101 -106 -91 -177 24 -182 317 -163 317 21 0&#xA;113 -127 201 -226 156z m107 -117 c35 -37 35 -39 8 -73 -20 -26 -61 -35 -85&#xA;-18 -33 22 -39 76 -12 110 18 22 59 13 89 -19z"/>
    <path d="M9066 9182 c-7 -12 34 -70 143 -202 160 -193 161 -193 316 -401 192&#xA;-256 427 -632 525 -841 15 -33 26 -45 37 -41 64 25 -155 443 -451 863 -126&#xA;178 -317 403 -474 558 -73 71 -86 80 -96 64z"/>
    <path d="M8320 9173 c1 -15 26 -39 140 -135 134 -112 206 -185 374 -378 184&#xA;-212 429 -551 578 -800 79 -132 99 -167 196 -350 33 -63 68 -124 76 -135 14&#xA;-19 15 -19 22 -1 29 75 -298 672 -569 1036 -39 52 -73 97 -77 100 -3 3 -24 29&#xA;-47 58 -62 79 -207 243 -283 321 -51 52 -191 172 -243 209 -97 68 -168 100&#xA;-167 75z"/>
    <path d="M7016 9057 c3 -9 31 -23 62 -32 274 -76 608 -256 872 -469 120 -96&#xA;408 -391 504 -516 97 -125 224 -314 317 -472 32 -55 59 -101 59 -104 0 -2 17&#xA;-32 38 -66 45 -73 195 -366 266 -518 114 -246 141 -298 181 -361 46 -71 108&#xA;-128 169 -153 30 -13 63 -15 165 -11 262 10 458 13 524 6 l67 -6 0 51 0 51&#xA;-41 7 c-74 12 -331 7 -449 -9 -319 -42 -357 -11 -566 462 -210 473 -480 948&#xA;-687 1205 -76 95 -336 365 -417 434 -129 109 -178 146 -285 217 -150 98 -411&#xA;228 -530 262 -49 15 -127 29 -173 32 -73 5 -82 4 -76 -10z"/>
    <path d="M7915 9041 c3 -5 42 -35 88 -67 146 -102 313 -250 434 -386 185 -208&#xA;243 -260 243 -217 0 38 -206 297 -321 404 -110 103 -253 204 -354 251 -50 24&#xA;-101 32 -90 15z"/>
    <path d="M9790 8951 c0 -5 37 -64 83 -130 45 -66 99 -147 120 -180 45 -70 74&#xA;-98 87 -85 20 21 -124 256 -210 341 -49 49 -80 70 -80 54z"/>
    <path d="M7417 8458 c298 -389 450 -623 718 -1103 58 -105 237 -458 274 -542&#xA;21 -48 54 -122 73 -163 20 -41 52 -113 73 -160 99 -223 160 -323 247 -409 60&#xA;-59 181 -123 267 -140 63 -13 272 -15 386 -4 206 20 619 3 759 -33 25 -6 26&#xA;-5 26 39 0 42 -2 46 -32 56 -99 31 -484 48 -673 30 -55 -5 -167 -11 -250 -14&#xA;-134 -4 -158 -3 -225 17 -104 31 -178 77 -249 155 -63 70 -118 171 -226 418&#xA;-205 468 -307 671 -495 985 -31 52 -59 103 -63 114 -4 10 -67 109 -141 220&#xA;-135 203 -237 337 -330 434 -62 65 -173 144 -139 100z"/>
    <path d="M8355 7610 c4 -14 47 -99 95 -190 48 -91 148 -282 221 -425 160 -313&#xA;177 -341 192 -326 20 20 -36 158 -160 395 -63 122 -143 267 -176 324 -68 113&#xA;-184 264 -172 222z"/>
    <path d="M5545 2784 c-177 -49 -256 -101 -358 -238 -93 -123 -128 -204 -182&#xA;-416 -75 -295 -52 -430 88 -523 76 -51 215 -119 327 -162 52 -20 129 -49 170&#xA;-65 499 -192 1202 -332 1392 -276 83 24 175 90 231 166 61 81 79 117 134 260&#xA;66 173 85 252 89 365 6 165 -37 268 -158 380 -95 88 -359 208 -722 326 -120&#xA;40 -507 138 -621 158 -33 6 -71 14 -85 16 -37 8 -282 15 -305 9z m385 -150&#xA;c308 -51 564 -123 885 -252 203 -81 308 -137 373 -196 81 -76 153 -216 110&#xA;-216 -7 0 -38 7 -68 16 -30 8 -122 33 -205 54 -82 22 -240 65 -350 96 -110 30&#xA;-229 64 -265 74 -36 9 -96 27 -135 38 -152 45 -362 105 -400 114 -22 5 -119&#xA;32 -215 59 -96 28 -197 57 -225 65 -27 7 -60 16 -73 20 -32 9 -24 33 23 67&#xA;138 98 245 110 545 61z m-534 -273 c55 -16 155 -45 224 -66 69 -20 157 -45&#xA;195 -56 39 -10 124 -35 190 -54 66 -20 185 -54 265 -75 80 -22 161 -44 180&#xA;-50 19 -5 103 -28 185 -51 83 -22 193 -54 245 -70 52 -15 136 -38 185 -49 80&#xA;-19 227 -59 232 -64 7 -6 -75 -256 -98 -302 -11 -21 -14 -21 -53 -9 -22 7 -75&#xA;22 -116 33 -610 168 -1273 358 -1575 452 -126 40 -243 76 -260 81 -62 19 -63&#xA;20 -31 111 15 46 39 109 53 141 31 69 36 70 179 28z m-6 -475 c124 -41 313&#xA;-100 420 -132 107 -31 240 -70 295 -86 156 -45 496 -142 645 -183 255 -70 373&#xA;-105 378 -110 9 -9 -101 -109 -143 -130 -70 -35 -309 -22 -550 30 -33 7 -94&#xA;20 -135 29 -307 67 -797 229 -1014 337 -156 77 -205 142 -192 253 9 79 13 86&#xA;44 76 15 -5 128 -43 252 -84z"/>
    <path d="M9108 2700 c-415 -77 -904 -393 -1175 -757 -105 -142 -191 -333 -224&#xA;-498 -14 -72 -12 -221 4 -280 29 -105 104 -193 212 -245 269 -133 701 -60&#xA;1110 187 186 113 280 186 430 338 234 235 368 510 374 762 7 307 -212 515&#xA;-539 512 -52 0 -139 -9 -192 -19z m292 -110 c234 -44 356 -240 305 -490 -31&#xA;-154 -72 -250 -166 -390 -200 -299 -574 -570 -949 -689 -96 -30 -125 -37 -215&#xA;-46 -27 -3 -70 -8 -95 -10 -25 -3 -80 -1 -122 5 -173 22 -298 106 -331 226&#xA;-23 83 -21 172 7 279 32 124 55 180 116 282 90 151 201 280 340 397 265 224&#xA;544 375 795 431 72 16 242 19 315 5z"/>
    <path d="M8992 2345 c-29 -19 -69 -50 -90 -69 -20 -20 -40 -36 -44 -36 -18 0&#xA;-166 -185 -216 -270 -107 -182 -148 -319 -139 -473 6 -113 32 -187 89 -251 39&#xA;-45 102 -86 131 -86 8 0 21 7 28 16 11 14 10 18 -6 27 -43 24 -119 104 -137&#xA;145 -74 166 -23 402 140 647 64 96 204 248 301 326 27 22 41 40 37 47 -12 20&#xA;-39 13 -94 -23z"/>
    <path d="M9335 2038 c-131 -166 -213 -327 -237 -465 -22 -131 12 -139 52 -12&#xA;15 46 35 102 45 124 20 45 112 208 191 336 29 48 50 90 47 93 -17 16 -38 -1&#xA;-98 -76z"/>
    <path d="M3996 1742 c-8 -14 7 -28 87 -81 123 -79 626 -326 892 -436 50 -20&#xA;117 -48 150 -62 176 -74 639 -238 855 -305 268 -82 611 -174 785 -212 39 -8&#xA;120 -27 180 -41 355 -84 669 -143 880 -165 218 -22 483 -16 665 15 14 3 39 7&#xA;57 10 175 29 524 126 803 225 131 46 125 44 242 101 106 51 124 67 104 94 -13&#xA;19 -17 18 -102 -14 -49 -18 -102 -39 -119 -47 -142 -64 -749 -240 -895 -259&#xA;-25 -3 -85 -13 -135 -22 -63 -11 -157 -16 -310 -17 -206 -1 -257 2 -425 24&#xA;-230 30 -768 149 -1230 271 -578 153 -1272 399 -1805 639 -22 10 -125 56 -230&#xA;103 -104 47 -221 99 -260 117 -141 64 -180 77 -189 62z"/>
    <path d="M10188 1317 c-196 -344 -381 -861 -424 -1184 -3 -26 -9 -67 -14 -90&#xA;l-7 -43 248 0 249 0 0 700 c0 385 -1 700 -2 700 -2 0 -24 -37 -50 -83z"/>
  </g>
  <title>Mechanik naprawiający samochód</title>
  <desc>Mechanik samochodowy z kluczem w ręku naprawia zepsuty samochód. Dzięki niemu nasze auta są sprawne i bezpieczne. To zawód dla prawdziwych majsterkowiczów.</desc>
</svg>