<?xml version="1.0" encoding="UTF-8" standalone="yes"?>
<svg version="1.0" xmlns="http://www.w3.org/2000/svg" width="1024.000000pt" height="1024.000000pt" viewBox="0 0 1024.000000 1024.000000" preserveAspectRatio="xMidYMid meet">
  <metadata>
Created by potrace 1.16, written by Peter Selinger 2001-2019
</metadata>
  <g transform="translate(0.000000,1024.000000) scale(0.100000,-0.100000)" fill="#000000" stroke="none">
    <path d="M2785 9923 c-368 -46 -600 -121 -813 -265 -152 -103 -285 -258 -333&#xA;-388 l-20 -55 -70 -17 c-125 -30 -231 -113 -343 -271 -104 -145 -146 -275&#xA;-146 -447 0 -191 43 -363 152 -607 l51 -111 -20 -29 c-71 -100 -103 -202 -103&#xA;-334 0 -264 163 -556 362 -649 116 -54 267 -60 374 -15 l32 13 17 -46 c44&#xA;-117 139 -281 243 -422 12 -16 7 -22 -47 -54 -71 -44 -113 -89 -149 -163 -26&#xA;-53 -34 -60 -242 -198 -474 -315 -594 -412 -685 -552 -140 -214 -357 -707&#xA;-490 -1113 -154 -472 -215 -762 -201 -968 7 -119 28 -197 79 -302 34 -71 57&#xA;-101 141 -185 117 -116 229 -188 446 -286 74 -33 136 -62 138 -64 3 -3 -93&#xA;-577 -139 -828 -17 -92 -28 -178 -25 -191 12 -48 50 -78 171 -137 98 -46 122&#xA;-62 119 -76 -6 -27 -54 -533 -61 -645 -7 -108 1 -128 46 -128 66 0 69 13 111&#xA;475 13 141 28 256 35 263 9 10 42 6 171 -22 401 -88 667 -118 1028 -117 245 1&#xA;408 11 515 32 66 13 106 50 117 104 l7 38 19 -51 c28 -76 54 -92 149 -92 147&#xA;0 447 46 713 110 48 12 91 19 94 15 3 -3 -6 -165 -21 -361 -20 -257 -25 -360&#xA;-17 -374 16 -29 75 -27 94 2 17 27 62 488 69 712 l2 70 67 27 c85 35 177 95&#xA;191 126 7 17 7 67 -2 181 -53 677 -78 967 -95 1127 -5 38 -3 41 32 56 34 14&#xA;53 43 221 332 l184 317 61 0 c178 0 388 118 611 344 61 61 144 154 186 206&#xA;228 284 604 845 624 930 4 18 -1 37 -20 63 l-25 38 30 57 c16 31 30 71 30 88&#xA;0 30 2 32 60 43 33 7 76 19 95 27 28 11 64 13 168 9 72 -3 425 -10 782 -15&#xA;358 -6 826 -15 1040 -20 215 -5 557 -12 760 -16 l370 -7 30 26 30 25 5 879 c3&#xA;483 5 1494 5 2246 l0 1369 -25 20 c-28 23 80 23 -1215 -1 -269 -6 -722 -13&#xA;-1005 -16 -526 -6 -1120 -17 -1975 -35 -264 -6 -540 -11 -613 -13 -132 -2&#xA;-134 -2 -157 -29 l-24 -28 5 -2127 c3 -1171 7 -2142 10 -2159 2 -17 14 -40 25&#xA;-50 19 -17 38 -18 260 -15 131 1 239 0 239 -3 0 -3 -37 -59 -83 -123 -46 -65&#xA;-123 -175 -171 -245 -94 -136 -122 -167 -135 -152 -29 31 -265 354 -354 484&#xA;-256 374 -404 516 -675 650 -53 27 -109 52 -125 55 -15 4 -29 11 -32 15 -3 5&#xA;25 24 61 44 315 173 530 472 611 849 25 116 25 368 -1 498 l-19 95 46 46 c109&#xA;109 164 313 155 570 -3 91 -8 121 -26 155 -40 77 -108 116 -222 130 l-50 6 0&#xA;136 c-1 221 -29 349 -106 482 -37 63 -150 186 -209 226 l-29 21 55 50 c211&#xA;193 136 418 -198 586 -220 110 -465 157 -808 155 -104 -1 -203 -4 -220 -6z&#xA;m570 -147 c274 -49 468 -137 588 -264 81 -87 74 -150 -28 -238 -130 -114 -420&#xA;-204 -654 -204 l-96 0 61 34 c83 44 151 95 206 154 44 47 84 109 75 118 -2 2&#xA;-35 -16 -73 -41 -234 -155 -537 -255 -901 -300 -144 -18 -464 -21 -558 -5&#xA;-123 20 -127 15 -60 -84 83 -124 135 -350 120 -526 -15 -192 -57 -334 -156&#xA;-532 l-59 -117 -84 40 c-109 53 -176 60 -274 30 -39 -11 -73 -21 -77 -21 -3 0&#xA;-28 46 -55 103 -206 440 -185 779 65 1032 82 82 150 120 250 135 38 6 74 15&#xA;80 20 7 6 17 33 24 62 34 154 206 327 439 443 165 82 409 151 613 174 122 14&#xA;446 6 554 -13z m6312 -2273 c-4 -1121 -10 -2087 -14 -2147 l-6 -109 -776 7&#xA;c-427 4 -801 9 -831 11 -30 2 -278 7 -550 11 -272 4 -528 9 -569 13 l-74 6 52&#xA;60 c29 33 62 77 72 98 16 30 25 37 49 37 16 0 208 -5 427 -10 1044 -26 1944&#xA;-40 1963 -30 11 6 24 19 30 29 6 13 12 675 16 1909 7 1789 6 1892 -10 1917&#xA;l-18 27 -951 -6 c-1521 -10 -3295 -32 -3322 -42 -41 -16 -40 17 -35 -1896 5&#xA;-1746 6 -1838 23 -1855 15 -16 41 -18 207 -21 105 -2 190 -6 190 -8 0 -3 -30&#xA;-48 -67 -99 l-68 -94 -230 -1 c-126 0 -235 4 -241 8 -9 5 -13 539 -15 2077&#xA;l-4 2069 32 7 c36 7 418 16 998 24 215 3 518 7 675 10 157 3 474 8 705 11 231&#xA;4 609 10 840 13 231 4 665 8 964 9 l544 2 -6 -2037z m-346 -113 c-2 -993 -6&#xA;-1809 -9 -1814 -4 -8 -996 0 -1082 9 -19 2 -255 7 -525 11 -269 4 -501 8 -515&#xA;10 -14 1 -55 3 -92 3 l-68 1 0 53 c0 34 -9 70 -25 105 l-24 52 24 53 c35 75&#xA;34 147 -4 222 l-30 58 25 32 c54 72 71 193 35 263 -22 43 -43 63 -91 87 -19&#xA;10 -36 19 -38 20 -5 5 44 98 136 260 103 181 210 398 218 442 9 46 -1 77 -37&#xA;117 -35 41 -140 96 -181 96 -52 0 -91 -54 -293 -410 -108 -190 -198 -346 -200&#xA;-348 -2 -2 -16 5 -31 15 -38 24 -126 23 -184 -3 -25 -12 -130 -79 -235 -150&#xA;-297 -201 -399 -316 -446 -504 -18 -71 -20 -105 -17 -267 l3 -185 -30 7 c-16&#xA;3 -103 8 -192 12 l-163 5 -2 1752 c-2 963 -1 1754 2 1757 6 8 543 16 2000 30&#xA;635 6 1160 12 1165 13 6 2 213 3 460 2 l450 -1 -4 -1805z m-5430 1629 c78 -58&#xA;145 -129 184 -194 66 -114 105 -283 105 -460 l0 -91 -154 -12 c-182 -14 -279&#xA;-34 -359 -73 -63 -33 -111 -88 -127 -151 l-11 -38 -64 -1 c-36 -1 -70 -2 -76&#xA;-3 -6 -1 -19 23 -28 53 -32 93 -79 138 -180 169 -107 32 -529 12 -716 -34&#xA;-131 -32 -205 -111 -213 -227 -5 -66 -12 -77 -53 -77 -15 0 -64 -11 -110 -24&#xA;-46 -14 -85 -23 -87 -22 -1 2 11 32 27 67 52 116 111 300 126 392 29 177 15&#xA;367 -39 524 l-24 72 141 0 c165 1 346 20 537 58 l134 26 130 -18 c141 -19 249&#xA;-16 418 11 113 18 257 55 318 83 25 11 47 20 49 20 2 1 34 -22 72 -50z m529&#xA;-884 c59 -30 65 -53 64 -220 -2 -117 -7 -167 -23 -228 -21 -82 -67 -178 -88&#xA;-184 -28 -9 -58 204 -69 484 l-7 176 47 -6 c25 -4 60 -14 76 -22z m-231 -112&#xA;c2 -154 25 -409 47 -515 8 -43 13 -82 9 -88 -11 -18 -80 -30 -177 -30 l-96 0&#xA;-23 38 c-13 20 -80 96 -150 168 -70 72 -132 141 -138 153 -15 28 -26 185 -17&#xA;235 21 109 158 163 422 165 l121 1 2 -127z m-1012 74 c76 -41 99 -113 90 -291&#xA;-10 -183 -55 -305 -144 -387 -119 -110 -339 -139 -525 -69 -157 58 -218 175&#xA;-234 447 -14 232 28 273 316 307 171 20 453 17 497 -7z m352 -282 c-1 -42 3&#xA;-70 12 -82 35 -46 111 -136 183 -218 175 -200 220 -304 161 -373 -14 -17 -47&#xA;-38 -73 -47 -73 -25 -222 -30 -323 -11 -120 22 -139 22 -139 -7 0 -13 12 -35&#xA;28 -50 67 -64 206 -94 351 -77 201 25 316 134 296 281 l-7 49 64 0 c34 1 92 7&#xA;128 15 36 7 66 13 67 12 1 -2 9 -47 19 -102 79 -465 -169 -975 -573 -1179&#xA;-217 -109 -544 -113 -850 -11 -208 70 -435 201 -574 332 -109 103 -219 283&#xA;-269 438 -42 134 -42 134 -131 85 -71 -38 -180 -56 -249 -41 -155 33 -272 156&#xA;-343 358 -28 80 -31 100 -31 214 -1 120 0 127 29 185 24 46 44 68 88 99 51 35&#xA;66 40 128 43 65 4 76 1 144 -32 97 -48 160 -107 215 -200 35 -59 50 -76 68&#xA;-76 14 0 27 9 34 26 11 24 8 64 -19 220 l-5 31 123 32 c68 18 133 37 146 42&#xA;20 7 23 5 27 -24 35 -245 65 -324 157 -412 68 -65 134 -97 241 -119 157 -32&#xA;336 -14 450 46 156 83 277 296 278 493 0 28 3 67 6 88 l7 37 69 0 69 0 -2 -65z&#xA;m3584 -507 c15 -6 27 -16 27 -23 0 -28 -67 -168 -175 -364 -62 -113 -129 -237&#xA;-150 -276 -21 -38 -46 -79 -57 -91 -21 -24 -135 -80 -144 -72 -9 10 23 123 52&#xA;180 26 53 260 470 336 601 42 73 40 72 111 45z m-641 -705 c26 -23 23 -79 -8&#xA;-141 -32 -64 -155 -181 -244 -231 -35 -20 -72 -48 -83 -63 l-20 -27 22 -53&#xA;c48 -114 38 -210 -35 -328 -72 -118 -70 -142 11 -99 60 32 90 64 122 132 26&#xA;58 28 70 28 196 0 145 1 147 63 166 21 6 22 4 22 -61 0 -37 -5 -107 -11 -155&#xA;-10 -76 -9 -95 5 -139 12 -37 15 -67 10 -114 -10 -94 31 -155 120 -181 94 -28&#xA;178 -15 248 39 32 23 73 85 63 94 -1 2 -20 -4 -40 -12 -50 -21 -182 -21 -235&#xA;0 -35 14 -40 20 -40 48 0 56 75 103 204 130 143 30 236 -29 236 -152 0 -120&#xA;-121 -271 -280 -349 -78 -39 -244 -83 -309 -83 -14 0 -27 -11 -38 -35 -9 -19&#xA;-24 -35 -33 -35 -22 0 -152 63 -216 106 -64 43 -187 162 -227 221 -35 51 -56&#xA;188 -57 368 0 290 78 408 421 637 97 65 187 122 200 127 37 15 81 13 101 -6z&#xA;m435 -197 c37 -44 27 -114 -25 -168 -21 -24 -34 -28 -77 -28 -91 0 -167 -20&#xA;-252 -66 l-83 -44 0 40 c0 74 67 170 165 234 78 52 120 66 189 63 50 -3 63 -8&#xA;83 -31z m-4422 -351 c104 -66 317 -171 425 -210 97 -35 204 -55 291 -55 38 0&#xA;69 -2 69 -6 0 -13 -132 -380 -139 -387 -5 -5 -22 14 -39 41 -25 42 -49 61&#xA;-139 115 -296 179 -522 389 -617 574 -23 46 -21 48 22 14 20 -16 78 -55 127&#xA;-86z m-315 -13 c0 -281 107 -622 304 -968 74 -129 300 -474 390 -594 30 -40&#xA;54 -75 53 -77 -2 -1 -32 2 -67 7 -125 17 -284 22 -314 11 -33 -13 -29 -16&#xA;-247 194 l-126 121 94 105 c79 88 93 109 91 134 -3 29 -7 31 -113 67 -60 20&#xA;-150 44 -198 54 l-88 18 6 66 c51 586 72 726 127 835 21 42 66 95 80 95 4 0 8&#xA;-30 8 -68z m4685 33 c44 -22 71 -85 57 -136 -7 -30 -12 -34 -38 -31 -150 13&#xA;-228 3 -343 -45 -62 -26 -64 -26 -77 -8 -28 38 -17 75 34 125 106 102 264 143&#xA;367 95z m-4411 -274 c86 -89 195 -175 341 -269 61 -40 118 -77 128 -84 16 -12&#xA;3 -28 -137 -168 l-155 -154 -27 24 c-40 38 -128 176 -169 264 -67 149 -132&#xA;387 -150 556 l-7 65 52 -80 c29 -44 85 -113 124 -154z m1219 -28 c65 -81 89&#xA;-118 180 -283 98 -177 159 -301 152 -308 -4 -4 -56 -29 -117 -57 -128 -58&#xA;-158 -86 -136 -128 7 -14 52 -69 101 -121 48 -53 87 -101 87 -107 0 -29 -179&#xA;-319 -281 -455 -92 -123 -85 -119 -153 -89 -31 14 -56 27 -56 30 0 3 21 66 46&#xA;142 100 301 151 552 160 803 9 229 -17 399 -87 573 l-27 67 38 0 c35 0 42 -6&#xA;93 -67z m-1787 -135 c-8 -90 -21 -252 -28 -361 -15 -255 -27 -237 181 -294 84&#xA;-23 155 -44 159 -47 3 -3 -27 -39 -66 -79 -79 -83 -91 -110 -67 -156 9 -18 92&#xA;-110 185 -205 94 -95 170 -176 170 -180 0 -3 -21 -6 -47 -6 -65 0 -115 -15&#xA;-140 -42 -11 -13 -91 -212 -178 -443 -86 -231 -161 -424 -165 -428 -6 -7 -275&#xA;66 -288 78 -2 2 23 79 56 172 156 438 199 645 189 905 -6 154 -22 233 -76 374&#xA;-78 202 -227 387 -370 459 -40 20 -70 40 -65 45 61 56 558 393 562 381 2 -6&#xA;-4 -83 -12 -173z m1584 115 c44 -117 61 -214 67 -368 l6 -150 -61 56 c-33 31&#xA;-87 78 -121 104 -34 26 -61 52 -61 57 0 16 79 246 104 302 14 31 29 56 35 56&#xA;5 0 19 -26 31 -57z m535 -139 c146 -97 224 -178 381 -401 147 -209 270 -377&#xA;357 -488 43 -55 81 -106 84 -113 3 -7 -12 -28 -35 -47 -22 -19 -61 -66 -85&#xA;-104 l-46 -69 -137 -26 c-76 -14 -140 -24 -142 -21 -3 2 -9 48 -13 102 -27&#xA;303 -100 643 -138 643 -20 0 -31 -39 -31 -107 1 -37 20 -203 44 -368 24 -165&#xA;42 -303 40 -306 -2 -3 -44 -23 -93 -43 -116 -48 -199 -102 -287 -187 l-71 -69&#xA;-19 21 c-14 16 -116 93 -152 114 -1 1 41 60 94 131 147 196 294 454 294 514 0&#xA;27 -35 75 -118 162 l-45 46 84 42 c119 60 149 84 149 122 0 53 -177 397 -262&#xA;507 -10 13 -18 28 -18 32 0 10 88 -37 165 -87z m1753 -232 c131 -164 284 -270&#xA;465 -323 66 -19 77 -25 77 -44 0 -18 -63 -115 -75 -115 -2 0 -45 14 -97 31&#xA;-101 33 -203 91 -285 164 -61 54 -168 192 -195 252 l-19 42 26 41 c14 22 27&#xA;40 29 40 2 0 35 -40 74 -88z m-2670 -142 c37 -54 39 -62 65 -250 25 -183 36&#xA;-295 52 -532 l7 -98 -40 0 c-36 0 -45 5 -80 48 -78 94 -236 310 -330 450 l-95&#xA;143 79 82 c43 45 119 124 169 175 l90 93 23 -28 c12 -15 40 -53 60 -83z&#xA;m-1777 71 c161 -62 321 -274 395 -526 22 -74 27 -117 31 -246 8 -224 -25 -396&#xA;-141 -734 -85 -248 -76 -228 -95 -212 -29 26 -98 56 -177 78 -114 31 -246 25&#xA;-329 -17 -40 -20 -60 -36 -60 -48 0 -16 13 -18 145 -20 145 -3 240 -19 300&#xA;-51 l25 -14 -25 -1 c-41 -1 -260 -78 -314 -111 -28 -17 -63 -43 -78 -57 -28&#xA;-26 -37 -65 -18 -77 5 -3 60 16 122 43 165 73 232 95 270 90 18 -3 107 -27&#xA;198 -55 91 -28 276 -83 412 -123 136 -40 252 -76 258 -80 8 -5 -1 -26 -28 -66&#xA;-52 -78 -76 -127 -107 -218 -51 -151 -67 -352 -41 -509 7 -42 10 -77 6 -77&#xA;-25 0 -360 89 -524 140 -271 83 -398 131 -548 205 -307 151 -440 288 -484 497&#xA;-19 88 -14 285 10 423 40 220 175 661 302 983 82 207 226 524 285 627 48 85&#xA;123 175 145 175 8 0 37 -9 65 -19z m2010 -28 c74 -61 179 -166 200 -200 20&#xA;-31 20 -35 4 -125 -19 -111 -58 -273 -92 -383 -45 -147 -96 -276 -105 -267 -5&#xA;5 -15 105 -23 223 -18 256 -41 478 -61 574 -8 39 -14 79 -14 91 0 29 29 124&#xA;39 124 4 0 27 -17 52 -37z m2286 -71 c132 -215 396 -392 622 -418 l57 -6 -45&#xA;-72 c-101 -158 -300 -449 -394 -576 -285 -386 -515 -585 -747 -649 -63 -18&#xA;-71 -18 -66 -4 4 9 70 124 148 257 238 406 231 392 221 423 -9 27 -13 28 -101&#xA;37 l-92 9 0 49 c0 27 -7 63 -16 79 -17 34 -82 68 -129 69 -52 1 -61 12 -46 62&#xA;23 77 78 169 254 419 200 286 276 389 285 389 4 0 26 -31 49 -68z m-711 -744&#xA;c-3 -13 -6 -31 -6 -40 0 -14 -9 -18 -42 -18 l-42 0 39 40 c44 45 60 51 51 18z&#xA;m-2039 -173 c363 -45 753 -212 932 -399 19 -20 42 -36 50 -36 8 0 62 49 120&#xA;108 94 97 117 114 207 160 218 111 487 172 758 172 126 0 146 -8 146 -59 0&#xA;-45 12 -41 -168 -66 -322 -46 -664 -166 -974 -342 -65 -37 -67 -37 -115 -25&#xA;-26 7 -138 58 -248 112 -306 151 -569 247 -890 324 -140 34 -136 32 -129 51 8&#xA;20 146 20 311 0z m-317 -141 c127 -23 306 -71 446 -120 245 -86 594 -239 594&#xA;-259 0 -13 -122 -292 -213 -487 -43 -91 -48 -97 -84 -107 -47 -14 -150 -14&#xA;-158 -1 -3 5 17 53 44 107 90 177 90 300 0 398 -51 55 -111 79 -179 73 -61 -6&#xA;-78 -21 -115 -96 -15 -31 -39 -81 -54 -111 -27 -57 -93 -129 -198 -219 -35&#xA;-29 -75 -74 -90 -100 -14 -26 -28 -49 -29 -51 -2 -2 -18 6 -36 17 -19 12 -128&#xA;51 -243 88 -116 36 -211 68 -213 69 -2 2 173 471 278 744 l33 83 66 -6 c36 -4&#xA;104 -14 151 -22z m2581 -276 c-65 -112 -225 -387 -356 -613 -130 -225 -243&#xA;-419 -250 -431 -11 -17 -30 -22 -127 -33 -62 -6 -134 -14 -160 -18 -40 -5 -48&#xA;-3 -48 10 0 9 26 67 59 130 67 132 86 197 76 264 -7 50 -41 93 -73 93 -16 0&#xA;-20 9 -25 46 -7 68 -48 106 -120 112 -45 3 -69 -2 -141 -30 -47 -20 -86 -34&#xA;-86 -33 0 1 31 67 69 146 37 79 79 170 92 202 21 54 28 61 82 88 307 155 727&#xA;265 1029 268 l97 1 -118 -202z m-1391 -163 c15 -9 54 -14 98 -15 39 0 72 -3&#xA;72 -7 -1 -5 -40 -93 -89 -198 -81 -174 -91 -192 -127 -213 -43 -24 -232 -88&#xA;-239 -80 -3 3 28 74 68 159 41 85 94 202 118 261 46 113 53 119 99 93z m-682&#xA;-71 c31 -22 62 -86 62 -131 0 -52 -15 -103 -63 -208 -98 -217 -57 -263 222&#xA;-252 207 8 360 56 543 168 179 109 254 132 293 89 26 -29 6 -67 -80 -149 -149&#xA;-142 -349 -253 -580 -322 -94 -28 -118 -46 -96 -73 18 -21 113 -21 201 -1 193&#xA;46 371 148 542 313 86 83 118 98 118 55 -1 -59 -118 -217 -227 -305 -155 -126&#xA;-249 -178 -413 -228 -163 -49 -195 -63 -195 -85 0 -58 217 -38 370 34 33 15&#xA;111 62 174 104 63 42 117 75 119 72 9 -9 -71 -116 -117 -157 -107 -94 -265&#xA;-161 -456 -195 -77 -13 -161 -17 -360 -17 -286 -1 -404 13 -587 70 l-88 27 0&#xA;99 c0 163 36 298 133 498 48 100 57 111 182 235 136 133 167 176 210 285 37&#xA;94 50 104 93 74z m-634 -567 c18 -13 17 -17 -12 -94 -66 -172 -77 -230 -77&#xA;-432 l0 -183 -58 6 c-99 10 -97 7 -97 159 1 219 54 393 158 508 47 52 58 57&#xA;86 36z m1990 -434 c3 -16 12 -122 21 -238 22 -298 63 -836 71 -926 6 -73 6&#xA;-77 -17 -92 -37 -23 -194 -83 -294 -112 -183 -53 -551 -118 -725 -127 l-54 -3&#xA;-18 48 c-10 26 -29 127 -43 224 -24 173 -25 181 -14 487 5 171 11 315 13 320&#xA;1 5 49 17 107 27 138 23 283 70 394 127 68 36 109 65 171 127 44 44 92 96 106&#xA;115 24 33 30 35 94 41 38 3 95 7 126 7 54 2 57 1 62 -25z m-2971 -333 c197&#xA;-59 736 -190 784 -190 50 0 96 34 115 85 11 32 16 35 51 35 39 0 85 18 105 42&#xA;9 12 33 10 144 -13 142 -28 356 -49 506 -49 89 0 92 -1 92 -22 0 -44 -30 -574&#xA;-40 -708 -15 -196 -39 -338 -59 -344 -93 -29 -677 -40 -891 -17 -407 43 -817&#xA;135 -1032 233 -65 30 -68 32 -68 66 0 20 13 108 29 196 17 89 48 278 71 421&#xA;44 275 49 305 57 305 2 0 64 -18 136 -40z"/>
    <path d="M3717 8696 c-50 -18 -77 -44 -77 -72 0 -34 35 -51 122 -58 102 -9&#xA;166 -29 265 -82 44 -24 86 -44 92 -44 20 0 12 65 -15 118 -49 98 -148 152&#xA;-277 152 -40 -1 -89 -7 -110 -14z"/>
    <path d="M2735 8681 c-85 -30 -136 -61 -186 -111 -56 -56 -96 -131 -101 -186&#xA;-3 -36 -1 -39 26 -42 23 -3 38 6 75 41 134 128 265 181 419 169 67 -5 92 6 92&#xA;40 0 29 -60 84 -105 97 -58 16 -163 12 -220 -8z"/>
    <path d="M3864 7930 c-12 -5 -33 -24 -47 -42 -78 -104 -53 -255 51 -302 35&#xA;-16 43 -16 68 -5 87 42 101 253 21 327 -27 25 -65 34 -93 22z"/>
    <path d="M2917 7886 c-107 -107 -78 -333 45 -353 34 -5 42 -2 77 33 60 60 76&#xA;150 47 249 -32 104 -105 135 -169 71z"/>
    <path d="M1459 7536 c-35 -24 -68 -80 -55 -93 3 -3 24 0 45 7 53 17 78 9 129&#xA;-42 l42 -44 -20 -39 c-48 -94 -3 -269 82 -320 46 -27 51 -15 43 111 -4 71 -3&#xA;114 3 114 5 0 21 -9 35 -20 14 -11 28 -20 32 -20 15 0 -7 105 -32 156 -36 75&#xA;-113 157 -175 188 -64 32 -84 32 -129 2z"/>
    <path d="M2864 7006 c-80 -37 -134 -122 -134 -211 0 -25 3 -45 8 -45 4 0 20&#xA;16 35 35 15 19 31 35 36 35 4 0 42 -51 84 -114 86 -127 170 -211 249 -250 154&#xA;-74 330 -75 448 -1 48 31 109 99 131 150 16 36 27 46 77 67 100 44 107 85 12&#xA;74 -120 -15 -370 -18 -449 -7 -104 15 -254 67 -385 133 l-101 51 53 46 c29 26&#xA;50 50 46 54 -14 14 -59 7 -110 -17z m438 -371 c44 -8 127 -15 184 -15 69 0&#xA;104 -4 104 -11 0 -40 -127 -99 -211 -99 -94 0 -223 55 -301 128 -85 79 -81 84&#xA;38 46 58 -18 142 -40 186 -49z"/>
    <path d="M3521 2120 c-125 -30 -175 -191 -88 -284 119 -126 323 9 268 177 -13&#xA;37 -81 107 -105 107 -8 0 -20 2 -28 4 -7 2 -28 0 -47 -4z m53 -122 c31 -44 13&#xA;-108 -29 -108 -27 0 -55 33 -55 65 0 29 28 65 50 65 10 0 26 -10 34 -22z"/>
    <path d="M7166 4679 c-291 -42 -534 -193 -689 -427 -129 -192 -225 -477 -252&#xA;-743 l-6 -65 -57 -12 c-70 -14 -176 -65 -259 -123 -297 -210 -486 -526 -570&#xA;-954 -22 -115 -25 -518 -5 -635 68 -376 198 -639 424 -856 142 -137 297 -211&#xA;496 -239 71 -10 121 -24 188 -53 50 -23 118 -48 150 -57 77 -21 274 -31 341&#xA;-17 48 11 55 9 110 -17 100 -50 181 -65 343 -65 159 1 248 14 325 48 42 18 58&#xA;21 100 14 28 -5 109 -9 180 -10 122 -1 136 0 225 31 52 17 124 49 160 70 61&#xA;36 71 39 170 44 212 11 406 114 593 317 259 280 403 730 384 1200 -12 284 -85&#xA;506 -245 746 -56 83 -173 206 -251 264 l-33 25 33 32 c18 18 69 51 113 74 220&#xA;114 273 172 263 290 -7 76 -44 145 -116 211 -78 73 -149 101 -251 101 -65 1&#xA;-83 -4 -130 -29 -54 -29 -110 -98 -110 -135 0 -10 -41 -100 -91 -199 l-90&#xA;-181 -27 16 c-42 26 -62 55 -62 87 0 54 -50 280 -85 385 -44 131 -122 287&#xA;-193 386 -66 92 -233 257 -316 311 -125 82 -259 136 -405 161 -90 16 -260 18&#xA;-355 4z m317 -144 c188 -33 359 -120 499 -253 130 -124 217 -258 292 -447 31&#xA;-79 86 -278 86 -312 0 -8 -13 -7 -46 3 -72 21 -163 27 -233 14 -34 -6 -66 -9&#xA;-69 -5 -3 3 15 27 41 53 62 63 63 94 6 183 -109 168 -183 232 -246 208 -16 -5&#xA;-101 -83 -190 -171 -136 -136 -163 -159 -168 -142 -22 64 -82 169 -120 209&#xA;-121 124 -340 151 -514 64 -106 -53 -168 -153 -198 -317 l-16 -92 -41 0 c-57&#xA;0 -104 -15 -159 -50 l-48 -30 6 47 c54 390 205 706 414 867 111 86 263 153&#xA;393 175 84 14 218 12 311 -4z m-473 -712 c0 -27 3 -85 7 -131 l6 -83 -59 26&#xA;c-32 15 -89 38 -126 52 l-67 25 14 28 c39 76 117 130 188 130 l37 0 0 -47z&#xA;m156 21 c111 -73 194 -253 165 -356 -18 -64 -80 -149 -135 -185 -26 -18 -52&#xA;-33 -56 -33 -4 0 -10 111 -13 248 -4 136 -10 271 -13 300 -8 60 -3 63 52 26z&#xA;m790 -138 l16 -29 -64 -60 c-163 -154 -347 -303 -358 -290 -10 11 -50 147 -50&#xA;169 0 11 74 93 172 191 l172 172 48 -62 c27 -34 56 -75 64 -91z m1181 35 c117&#xA;-59 161 -148 117 -232 -21 -42 -93 -73 -146 -65 -179 29 -281 250 -144 312 40&#xA;19 122 12 173 -15z m-2313 -161 c41 -17 101 -46 136 -64 l62 -33 4 -112 c2&#xA;-68 0 -111 -6 -111 -5 0 -28 7 -50 16 -30 12 -51 32 -80 74 -21 31 -61 77 -89&#xA;102 -28 25 -55 58 -61 73 -13 35 -13 85 1 85 6 0 43 -14 83 -30z m2132 -209&#xA;l44 -28 -68 -70 c-44 -46 -89 -81 -130 -102 -67 -34 -152 -52 -152 -32 0 6 39&#xA;89 86 184 l87 173 45 -48 c24 -26 64 -61 88 -77z m-655 30 c93 -35 91 -32 97&#xA;-163 2 -65 1 -118 -5 -121 -5 -3 -36 -9 -69 -12 l-61 -7 -17 68 c-23 92 -60&#xA;157 -118 209 -40 36 -45 44 -31 49 36 10 150 -2 204 -23z m-1616 -12 c86 -40&#xA;151 -139 162 -244 5 -49 4 -53 -13 -50 -11 2 -36 7 -56 10 -34 5 -38 9 -38 36&#xA;0 45 -28 98 -61 114 -43 23 -95 19 -114 -7 -15 -22 -14 -24 25 -56 57 -48 54&#xA;-66 -9 -58 -27 3 -72 13 -100 22 l-51 15 0 62 c0 75 21 123 69 154 45 30 124&#xA;31 186 2z m728 -66 c3 -10 21 -61 40 -113 19 -52 37 -107 41 -122 6 -28 6 -28&#xA;-43 -28 -54 0 -65 9 -76 60 -4 19 -18 54 -32 78 l-24 42 35 42 c20 23 36 45&#xA;36 50 0 15 18 8 23 -9z m619 -13 c25 -17 58 -48 73 -70 30 -43 60 -139 47&#xA;-151 -11 -11 -178 -29 -271 -29 l-84 0 6 59 c6 71 37 145 79 189 42 43 87 43&#xA;150 2z m-1812 -17 c0 -47 -13 -57 -60 -49 -23 4 -52 12 -63 18 -19 10 -18 12&#xA;24 34 24 13 56 23 72 24 23 0 27 -4 27 -27z m2344 -68 c-4 -8 -10 -12 -15 -9&#xA;-14 8 -10 24 6 24 9 0 12 -6 9 -15z m-900 -27 c3 -7 7 -41 10 -75 5 -57 4 -63&#xA;-13 -63 -25 0 -37 16 -51 68 -6 24 -13 49 -16 57 -4 8 3 15 18 18 42 8 49 7&#xA;52 -5z m-1613 -36 c46 -16 117 -37 157 -47 l72 -17 -72 -77 c-90 -94 -143&#xA;-173 -214 -319 -69 -141 -125 -308 -161 -477 -25 -121 -27 -147 -27 -365 -1&#xA;-219 1 -244 27 -363 49 -230 147 -458 267 -625 33 -46 60 -85 60 -88 0 -6&#xA;-120 40 -176 69 -79 40 -187 132 -254 215 -117 147 -224 400 -266 627 -29 154&#xA;-27 511 4 657 57 271 186 540 335 697 30 31 146 132 163 141 0 0 38 -13 85&#xA;-28z m1218 -95 c-2 -2 -68 -2 -146 1 -143 4 -143 4 -143 28 0 22 4 24 58 24&#xA;32 1 85 10 122 23 l65 22 24 -47 c14 -26 23 -49 20 -51z m1677 -38 c82 -57&#xA;127 -101 196 -194 99 -131 178 -306 219 -485 26 -111 36 -380 20 -517 -40&#xA;-322 -169 -635 -346 -831 -55 -61 -159 -139 -240 -180 -59 -29 -184 -72 -211&#xA;-72 -7 0 15 42 53 97 168 247 274 550 314 892 17 152 7 437 -21 576 -51 256&#xA;-139 468 -267 638 l-43 57 33 0 c43 0 152 26 185 45 38 20 42 19 108 -26z&#xA;m-2363 -18 c78 -16 168 -32 200 -36 31 -4 57 -11 57 -16 0 -6 -11 -31 -24 -57&#xA;-54 -107 -70 -212 -38 -252 18 -22 18 -22 50 66 18 49 53 124 79 167 48 78 48&#xA;79 83 73 82 -13 539 -28 715 -24 l190 5 62 -126 c34 -70 74 -138 89 -151 l27&#xA;-25 -5 65 c-3 39 -19 99 -38 148 -17 46 -29 86 -26 89 3 3 45 9 93 14 48 4&#xA;157 18 241 30 l152 22 26 -24 c76 -70 168 -216 223 -355 130 -326 162 -732 85&#xA;-1084 -73 -332 -202 -591 -377 -757 -141 -133 -288 -193 -474 -193 -51 0 -93&#xA;3 -93 6 0 3 18 36 39 72 64 108 103 217 109 302 5 70 4 74 -12 61 -10 -8 -31&#xA;-42 -48 -75 -76 -151 -201 -325 -254 -354 -98 -52 -400 -75 -534 -39 -155 41&#xA;-228 99 -345 271 -64 94 -82 108 -91 71 -12 -49 52 -210 110 -274 l21 -24 -96&#xA;7 c-349 23 -588 210 -750 585 -115 268 -163 601 -125 871 57 406 248 814 449&#xA;961 31 23 43 26 63 19 13 -5 88 -23 167 -39z"/>
    <path d="M6483 2560 c-153 -88 -293 -317 -297 -486 -1 -41 3 -58 19 -73 40&#xA;-39 296 -113 435 -126 83 -7 108 5 140 70 21 42 25 67 28 170 6 188 -30 357&#xA;-91 424 -55 59 -152 68 -234 21z"/>
    <path d="M7812 2519 c-80 -40 -149 -149 -196 -311 -50 -173 -57 -297 -21 -352&#xA;27 -41 73 -50 230 -42 216 9 364 47 400 102 52 80 -59 448 -170 559 -65 66&#xA;-163 83 -243 44z"/>
    <path d="M7108 2062 c-19 -26 -58 -87 -88 -136 -96 -159 -76 -190 130 -201&#xA;100 -6 120 -4 150 12 31 16 35 22 34 58 0 41 -80 223 -124 285 -32 45 -61 40&#xA;-102 -18z"/>
    <path d="M6266 1681 c-27 -30 -16 -133 23 -217 138 -294 407 -472 779 -514&#xA;129 -15 226 -10 249 13 11 11 18 41 22 98 6 69 10 84 30 100 13 10 38 19 57&#xA;19 39 0 55 -19 74 -92 28 -105 94 -114 254 -35 51 25 119 67 152 92 153 119&#xA;280 334 248 423 -9 25 -14 27 -59 26 -28 -1 -91 -13 -141 -28 -127 -36 -238&#xA;-53 -421 -67 -170 -12 -434 -7 -550 11 -83 13 -109 5 -119 -38 -10 -42 -32&#xA;-79 -49 -86 -40 -15 -85 44 -85 111 0 21 -4 44 -9 52 -10 15 -350 138 -406&#xA;148 -22 3 -35 -1 -49 -16z"/>
    <path d="M3260 884 c-52 -13 -150 -35 -217 -49 -68 -13 -132 -30 -143 -37 -28&#xA;-18 -37 -58 -51 -232 l-13 -149 23 -18 c29 -24 43 -24 71 -1 21 17 24 33 35&#xA;154 6 74 15 139 18 145 4 6 29 13 57 17 59 8 339 90 381 112 29 14 47 53 34&#xA;73 -10 17 -92 11 -195 -15z"/>
  </g>
  <title>Teacher Chalkboard</title>
  <desc>Teacher Chalkboard</desc>
</svg>