<?xml version="1.0" encoding="UTF-8" standalone="yes"?>
<svg version="1.0" xmlns="http://www.w3.org/2000/svg" width="1024.000000pt" height="1024.000000pt" viewBox="0 0 1024.000000 1024.000000" preserveAspectRatio="xMidYMid meet">
  <metadata>
Created by potrace 1.16, written by Peter Selinger 2001-2019
</metadata>
  <g transform="translate(0.000000,1024.000000) scale(0.100000,-0.100000)" fill="#000000" stroke="none">
    <path d="M6760 9689 c-95 -10 -191 -40 -234 -73 -54 -41 -73 -93 -87 -248 -23&#xA;-264 0 -698 50 -918 11 -50 49 -90 85 -90 28 0 32 -8 41 -84 l8 -58 -24 13&#xA;c-13 7 -53 31 -89 54 -36 23 -101 61 -145 85 -44 24 -85 47 -92 52 -8 6 -1 35&#xA;26 106 76 197 79 254 16 349 -82 124 -270 274 -460 367 -213 104 -337 130&#xA;-635 130 -403 1 -612 -55 -817 -219 -107 -85 -156 -142 -201 -234 -36 -73 -37&#xA;-77 -37 -190 0 -134 15 -181 91 -296 l45 -70 -15 -56 c-9 -30 -16 -83 -16&#xA;-116 l0 -60 -52 -7 c-79 -11 -253 -70 -352 -121 -170 -86 -284 -186 -304 -266&#xA;-20 -81 32 -184 133 -262 64 -49 209 -119 303 -148 67 -19 73 -24 67 -43 -7&#xA;-21 -28 -128 -116 -584 l-49 -254 -49 -56 c-132 -153 -235 -373 -276 -585 -19&#xA;-101 -19 -301 0 -392 44 -207 126 -375 257 -527 47 -56 48 -58 24 -58 -42 0&#xA;-222 38 -314 66 -353 107 -596 251 -1084 641 -233 186 -233 186 -290 180 -57&#xA;-5 -54 -11 -68 138 -25 272 -86 389 -322 621 -172 169 -218 198 -323 198 l-70&#xA;1 -66 457 c-58 403 -64 458 -50 463 64 19 184 37 281 42 94 4 154 -1 333 -26&#xA;251 -36 365 -38 492 -12 110 23 197 62 379 170 267 160 335 181 605 188 227 7&#xA;227 7 216 116 -9 96 -45 303 -89 512 -60 287 -67 400 -42 605 14 105 49 310&#xA;62 352 3 11 -5 28 -19 42 -35 35 -162 50 -347 43 -224 -10 -284 -25 -789 -201&#xA;-176 -62 -262 -74 -434 -58 -73 7 -197 23 -277 36 -273 45 -393 43 -571 -8&#xA;l-79 -23 -16 59 c-23 81 -47 98 -136 98 -120 0 -178 -44 -178 -135 0 -61 76&#xA;-620 205 -1500 31 -209 80 -553 110 -765 30 -212 61 -432 70 -489 8 -56 13&#xA;-107 10 -111 -3 -4 -20 -11 -39 -14 -96 -18 -201 -97 -247 -188 -27 -53 -37&#xA;-176 -20 -252 11 -49 10 -56 -15 -110 -48 -106 -41 -231 20 -341 15 -28 20&#xA;-48 15 -65 -54 -196 129 -455 382 -540 32 -11 67 -20 77 -20 17 0 22 -14 36&#xA;-112 25 -168 45 -259 61 -285 26 -39 71 -56 141 -51 76 5 111 26 138 85 l20&#xA;42 120 -116 c120 -116 330 -300 459 -402 268 -212 675 -424 1032 -539 60 -19&#xA;111 -36 112 -37 2 -1 -10 -60 -26 -131 -32 -141 -83 -412 -101 -541 l-12 -83&#xA;-133 0 c-151 0 -228 -18 -308 -71 -224 -148 -265 -549 -76 -737 60 -59 167&#xA;-113 237 -119 52 -4 111 4 155 22 37 15 14 -36 -84 -191 -184 -289 -391 -583&#xA;-589 -839 -52 -66 -102 -135 -113 -153 -25 -42 -25 -117 0 -152 24 -33 146&#xA;-93 255 -124 140 -40 449 -102 628 -126 232 -30 210 -22 210 -79 0 -26 3 -96&#xA;7 -154 l6 -107 54 0 53 0 0 48 c0 26 -14 252 -29 502 -16 250 -28 456 -26 458&#xA;2 2 20 -1 41 -7 81 -22 244 -41 391 -48 131 -5 153 -8 158 -23 10 -31 54 -63&#xA;106 -76 29 -8 120 -19 203 -26 l151 -11 26 -136 c15 -75 25 -138 23 -140 -6&#xA;-7 -205 40 -335 79 -73 22 -145 40 -161 40 -56 0 -29 -29 78 -79 113 -54 203&#xA;-83 404 -126 189 -42 200 -45 200 -58 0 -12 45 -306 56 -364 6 -33 7 -33 65&#xA;-33 33 0 59 1 59 3 0 2 -16 71 -35 154 -19 83 -39 182 -45 219 -6 38 -13 76&#xA;-16 85 -6 20 -43 36 -105 44 -25 4 -51 10 -57 14 -7 4 -23 63 -37 132 -14 68&#xA;-28 132 -31 142 -5 16 9 17 193 17 272 0 688 17 863 36 186 19 362 54 524 104&#xA;71 22 131 38 133 36 3 -3 9 -55 14 -118 4 -62 20 -259 34 -438 14 -179 27&#xA;-349 31 -378 l5 -52 55 0 54 0 0 104 0 104 33 6 c17 3 167 21 332 40 552 65&#xA;727 86 1230 146 1064 128 1475 183 2025 268 l115 18 3 47 c3 45 2 47 -24 47&#xA;l-28 0 27 28 c26 27 27 32 27 141 l0 113 -41 -82 c-46 -91 -135 -191 -193&#xA;-215 -135 -56 -270 65 -355 320 -30 89 -61 249 -61 313 l0 32 70 0 c39 0 70&#xA;-1 70 -3 0 -36 26 -183 40 -230 35 -114 112 -189 177 -172 41 10 99 72 128&#xA;136 25 57 65 217 65 265 0 17 8 23 36 27 65 11 64 6 64 253 l0 225 -30 6 -30&#xA;6 0 76 c0 290 -116 457 -239 345 -71 -63 -118 -164 -156 -329 l-22 -100 -77&#xA;-5 -77 -5 7 60 c20 177 88 388 165 517 82 137 168 208 250 208 49 0 133 -44&#xA;174 -93 l35 -41 0 181 0 181 -137 6 c-76 3 -295 11 -488 16 -192 5 -406 13&#xA;-474 16 l-124 6 7 322 c3 176 8 373 11 436 3 63 10 244 16 402 7 158 15 291&#xA;18 297 5 8 492 -96 1019 -218 73 -17 138 -31 143 -31 5 0 9 17 9 38 l0 39&#xA;-142 32 c-79 18 -309 70 -513 116 -203 46 -403 91 -442 100 l-73 17 5 66 c3&#xA;37 10 148 15 247 15 270 20 347 30 490 14 189 37 628 50 946 13 318 15 306&#xA;-72 383 -64 56 -222 136 -338 170 -156 46 -400 89 -637 111 -59 6 -73 10 -72&#xA;24 0 9 10 75 23 146 l22 130 54 -3 c77 -4 394 -49 520 -73 466 -91 1113 -353&#xA;1483 -600 l87 -59 0 74 0 74 -127 77 c-160 95 -463 247 -608 304 -246 96 -595&#xA;200 -810 241 -156 29 -403 60 -488 60 -100 0 -101 1 -82 91 16 75 105 576 105&#xA;591 0 4 9 3 19 -4 15 -9 43 -9 127 1 256 30 531 108 687 196 65 37 158 124&#xA;195 183 57 88 82 233 46 263 -9 7 -62 21 -118 31 -200 33 -282 81 -521 308&#xA;-88 83 -198 180 -244 215 -315 239 -837 420 -1361 470 -159 16 -188 16 -300 4z&#xA;m260 -129 c428 -45 863 -174 1155 -341 111 -63 263 -182 409 -319 72 -67 159&#xA;-144 195 -171 114 -86 245 -139 384 -155 31 -4 57 -9 57 -12 0 -2 -14 -33 -32&#xA;-69 -78 -159 -284 -265 -658 -338 -178 -34 -183 -34 -205 15 -46 103 -247 231&#xA;-498 319 -202 71 -486 106 -796 98 -217 -5 -296 -18 -393 -68 -22 -11 -41 -19&#xA;-43 -17 -7 7 -35 186 -46 295 -16 156 -7 522 16 637 17 84 19 89 51 102 77 32&#xA;235 41 404 24z m-3638 -45 c11 -4 9 -31 -14 -142 -70 -348 -65 -537 23 -900&#xA;29 -122 78 -370 79 -400 0 -2 -51 -3 -112 -3 -129 0 -277 -20 -358 -48 -72&#xA;-25 -163 -71 -269 -137 -229 -141 -364 -185 -570 -185 -69 0 -196 9 -281 20&#xA;-203 26 -373 26 -520 0 -62 -12 -116 -17 -120 -13 -4 4 -25 139 -48 298 -23&#xA;160 -73 510 -112 779 -39 269 -67 493 -63 497 5 5 69 18 143 30 162 25 274 21&#xA;457 -15 186 -38 313 -49 453 -43 157 8 235 27 502 128 237 89 291 106 397 124&#xA;75 13 386 20 413 10z m-2510 -107 c11 -10 26 -93 58 -328 23 -173 57 -418 76&#xA;-545 19 -126 50 -347 70 -490 19 -143 57 -413 85 -600 27 -187 65 -454 84&#xA;-593 l35 -254 -27 -33 c-24 -29 -33 -33 -58 -28 -16 3 -31 6 -32 7 -3 2 -177&#xA;1210 -218 1516 -20 146 -68 490 -107 765 -40 275 -72 518 -72 540 -1 38 1 40&#xA;34 46 54 10 55 10 72 -3z m4526 -159 c231 -25 395 -90 577 -228 80 -60 199&#xA;-175 242 -234 l35 -47 -43 -126 c-23 -68 -45 -127 -49 -129 -4 -3 -50 15 -101&#xA;39 -298 139 -655 216 -939 203 -292 -13 -567 -103 -705 -228 l-52 -49 -31 58&#xA;c-41 78 -62 154 -62 226 0 91 33 152 138 256 96 95 192 158 302 195 61 21 258&#xA;59 350 68 80 8 247 6 338 -4z m72 -658 c351 -61 708 -228 1190 -559 362 -248&#xA;642 -578 706 -832 38 -148 -1 -265 -130 -387 l-71 -68 -3 30 c-14 154 -58 262&#xA;-169 415 -131 181 -276 328 -455 462 -104 78 -350 233 -503 316 -302 165 -665&#xA;284 -955 311 -213 21 -487 -5 -645 -59 -32 -11 -60 -20 -62 -20 -7 0 -2 90 7&#xA;114 27 72 151 162 296 215 235 86 523 108 794 62z m1949 -136 c165 -21 292&#xA;-49 414 -92 103 -35 245 -101 284 -131 l23 -17 -110 -665 c-124 -746 -175&#xA;-1073 -216 -1365 -15 -110 -28 -201 -30 -203 -1 -2 -24 8 -51 21 -67 35 -237&#xA;93 -352 121 -86 21 -131 30 -263 51 -21 3 -38 10 -38 14 0 5 7 44 17 87 9 46&#xA;16 130 17 200 l1 121 52 28 c123 64 261 211 303 322 19 50 21 72 18 168 -4 95&#xA;-10 122 -39 200 -38 99 -104 216 -182 321 -78 104 -318 340 -443 434 l-111 83&#xA;-7 116 c-3 64 -9 128 -12 143 -6 26 -4 27 68 42 40 9 89 18 108 20 71 9 429&#xA;-3 549 -19z m-2164 -319 c264 -56 639 -208 911 -367 113 -66 315 -203 407&#xA;-276 102 -81 241 -219 233 -232 -4 -6 -25 -15 -48 -22 -73 -19 -135 5 -353&#xA;136 -238 143 -609 336 -785 408 -419 173 -786 275 -1106 307 -60 6 -110 12&#xA;-111 14 -4 3 171 43 247 56 30 5 152 7 270 5 185 -3 232 -7 335 -29z m-540&#xA;-175 c500 -86 985 -275 1660 -647 230 -126 283 -147 362 -142 40 2 69 10 81&#xA;21 10 9 24 17 30 17 15 0 131 -151 171 -221 27 -49 71 -188 71 -226 0 -9 -27&#xA;9 -62 40 -199 172 -287 226 -748 456 -683 341 -1014 466 -1425 541 -423 76&#xA;-665 72 -1100 -17 l-30 -6 40 33 c77 63 228 125 390 160 119 26 381 22 560 -9z&#xA;m-10 -261 c425 -63 800 -189 1359 -459 103 -50 227 -108 275 -128 47 -20 88&#xA;-38 90 -39 2 -2 -21 -61 -52 -132 -90 -208 -102 -257 -102 -402 0 -84 6 -155&#xA;19 -215 22 -105 17 -215 -14 -335 -11 -41 -20 -90 -20 -108 0 -30 5 -35 44&#xA;-53 24 -10 51 -16 59 -13 9 3 34 36 56 72 60 101 132 176 203 211 78 39 176&#xA;43 245 10 59 -29 116 -97 139 -166 30 -90 25 -235 -10 -338 -59 -172 -162&#xA;-298 -303 -367 -75 -38 -93 -42 -157 -43 -95 0 -158 31 -201 98 -16 26 -35 47&#xA;-42 47 -7 0 -38 -50 -69 -111 -101 -198 -211 -323 -393 -447 -218 -150 -449&#xA;-228 -750 -253 -553 -47 -1126 251 -1321 685 -68 154 -97 333 -80 502 22 216&#xA;119 466 237 611 24 30 48 64 53 76 14 32 148 585 171 707 41 215 96 357 205&#xA;528 l59 94 82 -6 c45 -3 144 -15 218 -26z m3532 -870 c367 -47 676 -146 802&#xA;-255 l43 -39 -6 -120 c-4 -67 -25 -409 -46 -761 -22 -352 -48 -829 -60 -1060&#xA;-11 -231 -22 -449 -25 -485 -2 -36 -8 -305 -11 -598 l-7 -533 -141 5 c-78 4&#xA;-225 9 -328 12 l-187 6 72 82 c488 548 614 1388 307 2033 -79 167 -177 307&#xA;-315 452 -56 60 -65 73 -45 68 104 -25 471 -86 484 -81 22 8 22 13 41 284 8&#xA;129 18 272 21 316 9 117 -10 216 -49 260 -16 20 -47 44 -67 54 -91 46 -447 79&#xA;-522 47 -65 -27 -71 -49 -80 -332 -5 -137 -11 -282 -14 -322 l-6 -71 -88 56&#xA;c-48 32 -96 62 -105 67 -17 10 -16 21 8 180 15 94 45 292 67 440 22 149 43&#xA;280 45 293 7 28 11 28 212 2z m-6701 -280 c25 -13 98 -78 185 -168 120 -122&#xA;152 -161 186 -227 60 -117 82 -200 99 -373 15 -163 33 -227 66 -238 18 -5 20&#xA;-12 15 -63 -15 -165 -149 -425 -272 -525 -38 -32 -47 -35 -59 -24 -8 8 -28 26&#xA;-45 41 l-32 27 59 57 c42 41 65 74 79 113 12 30 19 59 16 63 -3 5 -34 -23 -70&#xA;-62 -62 -68 -134 -121 -164 -121 -20 0 -78 388 -72 478 4 49 0 71 -15 103 -20&#xA;40 -20 42 -2 71 l18 31 22 -43 c47 -93 157 -175 207 -155 15 6 9 15 -38 58&#xA;-120 111 -146 175 -159 387 -14 236 -59 333 -71 154 -7 -104 -27 -160 -64&#xA;-174 -49 -19 -98 19 -137 105 -31 70 -38 231 -13 321 41 153 146 219 261 164z&#xA;m-373 -177 c-4 -27 -8 -83 -7 -125 l0 -78 -45 0 c-60 0 -161 -24 -212 -51 -23&#xA;-11 -44 -17 -47 -14 -4 4 -7 37 -7 74 0 58 4 75 30 116 46 74 143 121 258 124&#xA;l38 1 -8 -47z m6059 -328 c448 -91 791 -278 1054 -574 116 -131 288 -390 271&#xA;-408 -3 -2 -88 14 -188 36 -219 48 -310 64 -487 87 l-132 17 -30 56 c-48 89&#xA;-152 221 -240 305 -76 70 -240 189 -301 216 -24 11 -27 18 -32 91 -4 48 -16&#xA;103 -31 139 -13 33 -20 60 -15 60 4 0 63 -11 131 -25z m-6021 -42 c13 -33 43&#xA;-78 69 -105 l46 -48 72 0 71 0 -15 -44 c-22 -65 -29 -68 -109 -40 -139 47&#xA;-308 28 -437 -49 l-56 -34 -16 41 c-23 61 -21 153 5 196 12 19 29 41 38 48 77&#xA;62 154 90 247 91 l62 1 23 -57z m97 -329 c31 -9 68 -29 89 -48 30 -27 36 -40&#xA;37 -75 1 -38 -3 -47 -34 -72 -41 -33 -121 -49 -247 -49 -45 0 -85 -5 -88 -10&#xA;-8 -13 44 -35 102 -45 24 -4 45 -10 47 -14 3 -4 10 -48 16 -97 5 -49 13 -106&#xA;16 -127 l6 -37 -51 20 c-135 53 -228 121 -276 205 -38 64 -59 161 -46 206 39&#xA;129 241 196 429 143z m6050 -144 c334 -282 537 -812 493 -1291 -22 -239 -70&#xA;-417 -166 -614 -67 -137 -133 -238 -221 -337 -68 -75 -84 -88 -84 -68 0 6 -18&#xA;60 -41 120 l-41 109 27 28 c105 110 209 331 261 553 31 132 43 396 25 544 -33&#xA;256 -131 484 -299 688 -61 75 -155 168 -205 204 l-28 20 25 76 c14 42 26 85&#xA;26 96 0 10 3 22 6 25 9 8 130 -76 222 -153z m-4955 -83 l137 -108 0 -44 c0&#xA;-53 -32 -211 -59 -287 -55 -158 -186 -353 -293 -435 -61 -47 -147 -93 -174&#xA;-93 -19 0 -304 254 -304 271 0 5 22 20 50 33 146 71 261 200 356 400 64 136&#xA;87 231 82 338 l-4 87 35 -26 c20 -15 98 -76 174 -136z m4749 -156 c223 -234&#xA;348 -533 365 -874 11 -220 -30 -420 -135 -659 -21 -48 -94 -170 -121 -201 -14&#xA;-17 -16 -16 -34 20 -45 89 -185 326 -251 423 -119 175 -321 370 -513 494 -87&#xA;56 -242 136 -264 136 -10 0 -20 15 -28 40 -7 22 -28 68 -47 101 l-35 59 66 73&#xA;c37 39 91 109 122 155 30 46 58 81 62 79 75 -41 113 -52 191 -55 99 -4 177 17&#xA;270 73 61 37 173 148 209 207 29 48 32 46 143 -71z m-5684 -88 c11 -93 31&#xA;-243 43 -334 12 -91 20 -173 16 -182 -5 -13 -19 -17 -61 -17 l-55 0 -5 43 c-4&#xA;23 -24 172 -47 330 -23 159 -39 289 -37 291 6 4 103 34 114 35 6 1 19 -67 32&#xA;-166z m1456 -137 c331 -212 741 -346 1055 -346 39 0 60 -7 95 -31 26 -17 46&#xA;-32 46 -33 0 -2 -17 -15 -37 -28 -107 -71 -303 -289 -303 -337 0 -22 82 -99&#xA;148 -138 23 -14 42 -28 42 -32 0 -4 -12 -13 -26 -20 -44 -20 -145 -104 -160&#xA;-133 -33 -64 -10 -164 85 -363 70 -146 124 -235 206 -340 64 -82 169 -188 218&#xA;-220 l27 -18 -49 -51 c-57 -61 -75 -93 -90 -163 -30 -145 -99 -797 -116 -1103&#xA;-3 -58 -8 -125 -10 -150 -2 -25 -7 -147 -11 -273 l-7 -227 -77 0 c-130 0 -372&#xA;38 -525 82 -80 23 -195 80 -222 110 -16 18 -18 38 -16 187 5 406 64 1011 149&#xA;1514 68 409 255 1195 338 1426 18 50 19 51 8 51 -15 0 -93 -130 -141 -236 -55&#xA;-124 -108 -276 -142 -412 l-24 -93 -30 6 c-59 11 -413 159 -555 231 -252 127&#xA;-393 218 -618 397 l-113 90 54 22 c241 98 445 405 498 752 l12 80 86 -62 c47&#xA;-35 140 -97 205 -139z m5031 39 c261 -44 622 -121 643 -137 16 -14 67 -176 94&#xA;-303 18 -84 22 -134 22 -307 1 -113 -2 -209 -6 -213 -3 -4 -131 14 -285 38&#xA;-153 25 -319 51 -370 58 l-92 13 0 138 c0 236 -49 465 -146 685 -13 29 -21 53&#xA;-17 53 4 0 75 -11 157 -25z m-6292 -250 c-32 -13 -37 -9 -46 43 l-7 33 40 -33&#xA;41 -32 -28 -11z m4393 -182 l37 -77 -42 -245 c-24 -135 -46 -253 -50 -261 -10&#xA;-20 -157 -55 -331 -80 -85 -12 -151 -26 -159 -35 -14 -14 -9 -24 122 -243 10&#xA;-18 17 -35 15 -38 -3 -2 -36 -12 -75 -22 -58 -15 -75 -16 -99 -5 -16 7 -52 12&#xA;-81 13 -94 0 -110 -31 -138 -263 l-7 -58 -66 -33 c-37 -19 -170 -91 -295 -159&#xA;-126 -69 -298 -155 -383 -192 -125 -55 -154 -71 -154 -88 0 -18 5 -19 58 -14&#xA;31 3 82 14 112 23 73 24 322 148 539 268 96 53 176 94 178 92 3 -2 0 -46 -6&#xA;-97 -5 -52 -15 -178 -22 -281 l-12 -186 -42 -7 c-56 -8 -127 -54 -165 -106&#xA;-48 -67 -63 -135 -64 -289 0 -122 2 -140 23 -183 27 -54 63 -87 96 -87 15 0&#xA;36 -16 59 -45 l37 -45 -16 -45 c-8 -25 -15 -60 -15 -78 1 -45 32 -109 68 -138&#xA;l31 -24 -8 -85 c-18 -184 0 -247 79 -288 87 -45 237 -16 268 53 7 15 17 94 24&#xA;177 8 112 15 151 26 155 7 3 48 -12 90 -34 111 -59 173 -76 272 -77 l85 -1 20&#xA;-35 c32 -55 64 -65 156 -51 42 6 121 25 174 42 53 17 98 29 100 27 3 -3 35&#xA;-271 35 -294 0 -21 -208 -118 -361 -168 -332 -110 -742 -152 -1398 -143 -333&#xA;4 -556 18 -608 38 -23 8 -23 11 -23 176 0 575 93 1605 155 1723 14 26 209 219&#xA;438 433 169 159 254 256 680 785 85 106 187 252 284 407 62 99 63 101 185 182&#xA;68 45 126 82 130 82 4 1 24 -34 44 -76z m-1699 -148 c2 -1 -11 -39 -28 -86&#xA;-147 -402 -126 -865 55 -1215 l42 -82 -23 -26 c-29 -34 -37 -30 -128 66 -162&#xA;168 -279 356 -365 584 -54 143 -53 160 9 208 28 20 82 53 120 72 59 29 71 39&#xA;71 59 0 26 -61 81 -172 153 -32 20 -58 41 -58 46 0 30 219 240 289 276 l35 17&#xA;75 -35 c42 -20 77 -36 78 -37z m2100 -164 c57 -36 103 -69 103 -73 0 -5 -11&#xA;-8 -23 -8 -42 0 -145 -59 -188 -108 -145 -165 -230 -489 -216 -822 6 -145 39&#xA;-303 90 -430 15 -35 25 -64 24 -65 -17 -7 -123 -95 -134 -112 -15 -22 -15 -22&#xA;-75 42 -58 62 -158 125 -199 125 -14 0 -17 6 -13 33 2 17 11 86 20 152 8 66&#xA;35 226 60 355 57 299 56 300 -93 274 -42 -7 -78 -12 -79 -11 -1 1 -13 25 -27&#xA;52 -14 28 -41 74 -61 104 -20 29 -36 55 -36 57 0 2 15 4 33 4 76 0 399 68 419&#xA;88 14 14 75 270 87 367 20 152 7 142 114 89 50 -26 138 -76 194 -113z m-944&#xA;52 c-40 -100 -73 -149 -193 -283 -47 -53 -102 -116 -122 -140 -20 -25 -39 -42&#xA;-41 -40 -3 3 -57 104 -120 225 l-116 220 103 7 c168 10 384 50 476 87 48 19&#xA;49 12 13 -76z m-962 47 c63 -16 125 -30 138 -30 20 0 2 -22 -105 -127 -71 -71&#xA;-145 -150 -164 -176 l-34 -49 -20 59 -19 58 27 106 c23 92 55 189 61 189 1 0&#xA;54 -13 116 -30z m2140 -286 c76 -53 211 -237 349 -478 186 -324 315 -698 351&#xA;-1016 27 -237 -40 -462 -188 -629 -60 -68 -227 -193 -335 -251 -78 -41 -81&#xA;-42 -75 -19 36 150 35 348 -2 479 -33 113 -103 248 -167 318 -75 84 -188 158&#xA;-264 174 -72 14 -67 27 23 58 134 47 361 35 500 -27 49 -22 60 -24 67 -12 13&#xA;20 -33 64 -105 100 -58 28 -184 59 -248 59 l-32 1 28 15 c43 23 165 52 256 59&#xA;53 5 80 12 78 19 -11 34 -209 47 -310 21 -78 -20 -131 -49 -186 -99 -25 -24&#xA;-60 -46 -78 -49 -31 -6 -32 -5 -53 51 -58 153 -82 272 -87 429 -16 460 157&#xA;818 396 822 33 1 55 -6 82 -25z m1639 -44 c179 -27 335 -52 348 -55 20 -5 22&#xA;-10 16 -43 -15 -94 -68 -277 -109 -376 -48 -120 -162 -326 -179 -326 -6 0 -67&#xA;7 -136 14 -69 8 -222 24 -340 36 -118 12 -221 24 -228 26 -10 3 -7 16 14 52&#xA;119 203 206 456 230 670 7 61 7 63 33 57 14 -3 172 -28 351 -55z m-3740 -88&#xA;c10 -53 9 -54 -44 -142 -29 -48 -79 -140 -112 -204 -49 -98 -60 -113 -66 -95&#xA;-18 48 -38 197 -38 281 0 81 1 88 16 74 8 -9 19 -16 24 -16 4 0 32 30 61 68&#xA;29 37 74 89 99 116 l45 49 3 -39 c1 -22 7 -63 12 -92z m400 40 c0 -4 27 -56&#xA;60 -115 l60 -108 -95 -117 c-109 -135 -145 -176 -149 -171 -2 2 -11 63 -20&#xA;134 -10 72 -21 147 -26 168 -9 42 -2 54 104 165 48 49 66 62 66 44z m850 -456&#xA;c0 -6 -97 -568 -112 -650 l-13 -69 -110 -38 c-60 -20 -152 -53 -203 -73 -52&#xA;-20 -97 -36 -101 -36 -12 0 45 677 65 779 l6 31 82 -2 c59 -1 118 7 216 29&#xA;132 31 170 37 170 29z m2438 -351 c45 -4 82 -11 82 -14 0 -16 -163 -202 -252&#xA;-287 -52 -50 -157 -137 -232 -194 l-139 -102 -115 11 c-64 7 -117 13 -117 14&#xA;-1 1 -10 52 -19 112 -10 61 -27 152 -38 202 l-21 93 69 68 c38 37 86 91 107&#xA;118 l38 50 277 -32 c152 -18 314 -36 360 -39z m298 -537 c-101 -101 -153 -180&#xA;-218 -330 -48 -112 -101 -315 -125 -477 l-17 -121 -103 0 c-63 0 -103 4 -103&#xA;10 0 39 35 227 60 323 114 444 305 679 557 686 l42 1 -93 -92z m-2707 33 c173&#xA;-89 393 -401 437 -621 29 -144 7 -314 -50 -401 -48 -72 -200 -113 -336 -90&#xA;-68 11 -230 75 -230 91 0 4 7 10 15 14 8 3 15 11 15 17 0 14 -49 9 -160 -17&#xA;-45 -10 -122 -17 -191 -18 -139 -1 -159 9 -159 78 0 87 16 99 325 257 118 61&#xA;215 115 215 120 0 18 -54 8 -183 -35 -163 -55 -291 -109 -335 -142 l-32 -25&#xA;-15 35 c-22 51 -19 141 5 192 12 23 37 53 58 67 60 42 198 102 337 147 134 44&#xA;159 56 149 71 -21 34 -398 -42 -482 -97 l-25 -16 7 73 c13 137 15 141 105 182&#xA;114 52 223 95 315 123 93 28 153 26 215 -5z m3078 10 c131 -60 246 -246 313&#xA;-508 24 -91 60 -305 60 -354 0 -5 -36 -9 -80 -9 -75 0 -80 1 -84 23 -2 12 -11&#xA;67 -19 123 -73 469 -352 581 -531 213 -52 -109 -89 -238 -107 -374 l-11 -95&#xA;-99 0 c-55 0 -99 3 -99 8 0 26 44 270 60 333 85 333 249 587 415 647 49 17&#xA;135 14 182 -7z m895 -86 c-131 -118 -238 -355 -293 -648 l-24 -127 -56 0 -56&#xA;0 -13 133 c-11 118 -10 139 5 197 19 74 72 206 106 265 80 141 203 221 343&#xA;224 l38 1 -50 -45z m-6763 -38 c24 -12 57 -38 73 -58 l29 -36 -31 -244 c-18&#xA;-134 -35 -251 -39 -259 -5 -9 -37 -21 -77 -29 -61 -12 -75 -12 -125 2 -115 34&#xA;-188 121 -211 254 -10 60 -9 80 5 138 23 93 54 151 106 196 80 70 178 84 270&#xA;36z m3321 -2 c32 -16 85 -58 127 -100 57 -58 81 -94 122 -176 28 -58 58 -137&#xA;68 -179 24 -112 22 -273 -6 -388 -22 -88 -25 -93 -59 -111 -117 -59 -436 -161&#xA;-451 -144 -3 3 1 8 9 11 30 11 133 118 155 162 71 141 80 323 24 530 -30 113&#xA;-107 266 -172 343 -32 36 -57 68 -57 71 0 10 47 14 115 12 53 -2 83 -10 125&#xA;-31z m1353 -84 c109 -10 200 -20 201 -22 2 -2 -2 -44 -10 -94 -7 -49 -14 -113&#xA;-14 -142 0 -89 18 -83 -247 -83 -220 0 -235 1 -228 18 29 69 47 151 52 240 6&#xA;95 7 102 27 102 12 0 110 -9 219 -19z m-2604 -38 c-4 -27 -8 -81 -8 -122 -1&#xA;-63 -6 -83 -36 -145 -19 -39 -36 -90 -37 -113 -2 -24 -7 -43 -11 -43 -4 0 -17&#xA;21 -29 47 -37 84 -13 307 40 366 17 20 72 57 83 57 3 0 2 -21 -2 -47z m3809&#xA;-257 c49 -56 84 -166 98 -303 7 -73 7 -73 -18 -73 -14 0 -54 13 -90 29 -35 16&#xA;-81 32 -101 36 -37 7 -37 8 -37 56 0 27 -7 85 -16 130 -16 78 -16 81 3 107 46&#xA;62 115 70 161 18z m1081 -20 c32 -34 52 -107 58 -218 l6 -98 -62 -1 c-33 -1&#xA;-66 -2 -72 -3 -8 -1 -12 47 -13 157 -1 146 1 160 18 173 27 19 39 18 65 -10z&#xA;m-2247 -368 c142 -97 238 -357 238 -643 0 -241 -87 -517 -206 -653 -143 -163&#xA;-290 -142 -407 59 -153 261 -153 736 -2 1044 105 215 242 285 377 193z m1011&#xA;-4 c175 -45 198 -86 172 -311 -19 -156 -27 -184 -64 -206 -76 -45 -227 -54&#xA;-296 -19 l-30 15 69 13 c109 21 134 58 143 209 9 154 -14 192 -124 203 l-68 7&#xA;-3 38 c-2 21 2 45 9 53 16 19 114 18 192 -2z m1397 -44 c12 -7 15 -30 14 -107&#xA;-1 -100 -19 -169 -46 -178 -7 -2 -222 -11 -478 -19 -256 -9 -502 -18 -547 -20&#xA;l-81 -5 1 148 2 149 195 7 c107 4 319 13 470 20 355 16 452 17 470 5z m-3144&#xA;-291 c-9 -118 -25 -360 -37 -539 -12 -179 -25 -335 -30 -347 -12 -31 -94 -52&#xA;-278 -68 -86 -8 -175 -16 -198 -18 -41 -4 -42 -4 -47 32 -5 30 -19 227 -29&#xA;385 l-2 39 104 53 c57 29 108 59 113 66 9 14 4 86 -18 275 -8 67 -14 127 -14&#xA;135 0 7 28 24 63 37 84 33 241 111 318 160 55 35 64 38 67 23 2 -10 -4 -115&#xA;-12 -233z m1604 142 c21 -4 39 -15 46 -28 14 -29 1 -150 -19 -170 -12 -12 -68&#xA;-18 -279 -29 -144 -7 -270 -13 -279 -14 -11 0 -19 17 -28 65 -6 36 -22 95 -35&#xA;131 l-24 66 291 -7 c161 -4 308 -10 327 -14z m-5573 -197 l-13 -159 -151 -246&#xA;c-84 -135 -157 -257 -164 -272 -18 -41 6 -69 79 -91 70 -22 86 -18 110 25 30&#xA;56 174 303 198 341 l23 36 71 -35 c38 -19 70 -36 70 -37 0 -2 -31 -72 -70&#xA;-156 -67 -147 -82 -201 -60 -215 6 -4 50 -11 99 -18 l88 -11 7 -114 c3 -63 5&#xA;-116 4 -118 -6 -5 -415 57 -538 82 -133 26 -326 83 -397 116 -31 15 -43 26&#xA;-43 42 0 11 55 93 121 181 150 199 267 363 439 617 74 109 135 196 137 195 1&#xA;-2 -3 -75 -10 -163z m2399 74 c-17 -190 -17 -189 -43 -199 -32 -12 -95 -12&#xA;-127 1 -29 11 -32 32 -19 188 l6 82 95 0 95 0 -7 -72z m4568 -155 c-28 -132&#xA;-89 -263 -123 -263 -10 0 -26 9 -35 19 -17 19 -17 22 7 83 14 35 31 91 37 126&#xA;l13 62 53 0 c54 0 54 0 48 -27z m-534 -30 c0 -52 26 -211 51 -308 27 -107 88&#xA;-230 144 -293 l47 -52 -36 0 c-63 0 -146 39 -202 95 -60 60 -124 184 -152 294&#xA;-18 69 -18 74 -1 144 10 40 21 91 25 115 l6 42 59 0 59 0 0 -37z m-220 17 c0&#xA;-5 -15 -69 -34 -142 -90 -348 -215 -562 -372 -635 -106 -49 -219 -30 -321 53&#xA;-89 73 -189 248 -237 415 -29 102 -53 246 -42 256 4 5 50 10 101 13 l93 5 7&#xA;-55 c22 -189 108 -361 206 -411 47 -24 128 -25 175 -3 101 48 184 202 254 472&#xA;l11 42 79 0 c44 0 80 -4 80 -10z m-275 -62 c-70 -250 -138 -358 -226 -358 -42&#xA;0 -87 18 -108 43 -9 12 -7 22 13 52 14 20 33 64 42 96 14 50 21 60 43 65 129&#xA;27 176 47 212 93 29 36 32 37 24 9z m-801 -94 c45 -277 156 -511 292 -619 27&#xA;-22 54 -43 59 -48 18 -17 -110 1 -171 24 -107 40 -204 161 -270 335 -24 65&#xA;-25 71 -14 178 5 61 10 139 10 174 l0 62 38 0 39 0 17 -106z m1076 -275 c0 -6&#xA;13 -39 30 -74 39 -81 107 -157 170 -188 l49 -25 -77 -11 c-96 -15 -338 -41&#xA;-375 -41 -27 0 -27 1 28 68 32 38 79 113 108 174 48 98 67 126 67 97z m-1199&#xA;-221 c49 -83 128 -166 184 -196 l39 -20 -29 -6 c-47 -9 -403 -56 -428 -56 -19&#xA;1 -20 2 -5 11 44 25 188 273 188 323 0 9 2 16 4 16 2 0 23 -33 47 -72z m-955&#xA;-211 c22 -29 59 -65 81 -82 23 -16 42 -33 42 -36 1 -3 -20 -9 -46 -12 -27 -3&#xA;-100 -13 -163 -21 -142 -19 -445 -46 -517 -46 l-53 0 0 59 0 60 43 5 c23 3&#xA;105 10 182 16 226 18 342 47 365 90 6 11 14 20 18 19 4 0 25 -24 48 -52z"/>
    <path d="M4550 7551 c-84 -27 -181 -106 -240 -193 -42 -63 -51 -105 -25 -115&#xA;9 -3 24 2 33 10 32 29 151 79 208 86 73 10 133 -1 202 -39 68 -37 80 -37 93&#xA;-2 19 49 -6 137 -55 190 -46 52 -155 83 -216 63z"/>
    <path d="M5495 7327 c-56 -27 -135 -106 -135 -136 0 -22 24 -28 123 -30 141&#xA;-4 267 -65 408 -199 49 -46 93 -81 99 -77 17 11 11 112 -11 177 -40 120 -105&#xA;194 -224 256 -74 38 -191 42 -260 9z"/>
    <path d="M4868 7016 c3 -98 0 -158 -13 -232 -19 -108 -35 -143 -35 -76 0 96&#xA;-74 243 -154 306 -36 30 -42 31 -126 30 -76 0 -96 -4 -145 -30 -157 -79 -273&#xA;-385 -220 -579 9 -36 34 -92 55 -124 37 -57 38 -60 20 -76 -29 -26 -62 -115&#xA;-67 -180 -10 -119 31 -188 165 -279 159 -108 349 -124 510 -42 89 45 160 147&#xA;150 216 -5 39 -24 34 -52 -14 -37 -63 -90 -103 -170 -128 -204 -62 -480 61&#xA;-512 227 -8 44 29 126 76 169 87 78 239 99 367 50 85 -33 133 -41 133 -23 0 7&#xA;-22 34 -49 59 l-49 46 29 38 c117 158 186 572 120 722 -33 73 -38 60 -33 -80z&#xA;m-248 -74 c46 -23 92 -85 116 -158 14 -45 19 -87 19 -179 0 -112 -2 -124 -29&#xA;-178 -31 -64 -41 -72 -75 -59 l-22 8 21 26 c51 65 62 143 35 235 -17 58 -62&#xA;103 -101 103 -64 0 -127 -53 -153 -129 -18 -54 -13 -150 10 -200 20 -46 16&#xA;-60 -21 -61 -8 0 -34 -9 -57 -19 -39 -18 -42 -18 -57 -2 -8 9 -27 43 -43 76&#xA;-81 178 28 491 189 542 52 17 129 15 168 -5z"/>
    <path d="M5443 6855 c-160 -74 -275 -276 -275 -485 -1 -209 95 -358 261 -407&#xA;181 -52 358 87 416 328 23 97 30 224 15 294 -47 228 -240 353 -417 270z m171&#xA;-66 c53 -15 129 -88 156 -152 62 -144 19 -388 -91 -521 -83 -99 -231 -113&#xA;-327 -30 -78 67 -118 183 -110 326 4 71 10 97 40 160 41 87 93 148 155 185 69&#xA;40 116 49 177 32z"/>
    <path d="M5568 6550 c-66 -35 -110 -119 -109 -211 0 -83 16 -133 52 -163 63&#xA;-54 143 -22 194 79 55 107 36 263 -36 300 -37 19 -56 18 -101 -5z"/>
    <path d="M6790 5971 c-150 -46 -298 -227 -340 -417 -23 -103 20 -71 90 66 63&#xA;123 102 169 127 154 26 -15 53 -73 53 -115 0 -51 -27 -135 -66 -205 -37 -67&#xA;-41 -84 -20 -84 24 0 94 89 117 149 44 118 38 230 -16 290 l-34 37 46 29 c64&#xA;40 144 47 178 15 28 -27 32 -13 9 31 -24 47 -85 68 -144 50z"/>
    <path d="M5377 5743 c-10 -10 -8 -33 2 -33 5 0 22 -5 37 -11 28 -10 28 -10&#xA;-45 -50 -102 -57 -198 -96 -294 -121 -67 -18 -111 -22 -242 -22 -220 -1 -351&#xA;30 -538 127 -81 42 -100 48 -107 37 -13 -21 45 -78 125 -125 60 -35 64 -40 76&#xA;-88 18 -79 77 -244 110 -308 105 -210 331 -283 580 -189 199 74 376 295 456&#xA;567 10 35 21 63 25 63 3 0 15 -16 27 -35 26 -44 41 -45 41 -2 -1 47 -33 111&#xA;-72 140 -56 43 -160 72 -181 50z m-36 -242 c-6 -10 -36 -41 -66 -70 -95 -86&#xA;-232 -139 -406 -157 -81 -8 -187 13 -274 55 -54 25 -62 33 -77 74 -9 26 -14&#xA;47 -10 47 4 0 53 -9 110 -20 73 -14 143 -20 245 -20 170 0 288 22 404 73 43&#xA;19 79 35 81 36 1 1 -2 -7 -7 -18z m-131 -358 c0 -12 -89 -70 -150 -97 -30 -14&#xA;-84 -29 -120 -33 -71 -10 -150 -6 -150 7 0 4 22 22 48 39 37 23 81 37 187 60&#xA;150 31 185 35 185 24z"/>
    <path d="M4637 4806 c-20 -52 221 -120 306 -87 51 20 24 35 -99 58 -65 12&#xA;-135 26 -154 32 -45 14 -47 14 -53 -3z"/>
    <path d="M4390 2698 c-123 -62 -117 -263 9 -315 76 -32 163 2 202 80 27 52 23&#xA;143 -8 185 -31 42 -82 72 -122 72 -20 0 -57 -10 -81 -22z m134 -89 c36 -43 35&#xA;-91 -3 -130 -40 -39 -82 -39 -122 0 -21 22 -29 39 -29 66 0 50 44 95 93 95 27&#xA;0 41 -7 61 -31z"/>
    <path d="M4345 1966 c-58 -26 -105 -101 -105 -168 1 -47 33 -111 68 -137 111&#xA;-79 255 3 255 145 0 123 -113 206 -218 160z m114 -92 c81 -68 -8 -203 -101&#xA;-153 -26 14 -48 67 -41 102 7 33 56 77 88 77 13 0 37 -12 54 -26z"/>
    <path d="M7624 1661 c-61 -37 -102 -107 -136 -232 -20 -73 -22 -108 -23 -274&#xA;0 -171 2 -197 23 -264 50 -158 131 -223 220 -177 180 94 241 688 92 894 -51&#xA;71 -116 90 -176 53z m84 -106 c129 -108 118 -573 -18 -718 -29 -31 -41 -38&#xA;-58 -33 -55 18 -95 169 -95 361 0 188 34 337 89 392 29 29 45 29 82 -2z"/>
    <path d="M9433 6469 c-25 -9 -29 -20 -43 -124 -18 -144 -88 -1050 -97 -1271&#xA;l-6 -162 28 -18 c32 -21 527 -162 600 -170 41 -5 55 -3 74 13 24 20 25 25 37&#xA;259 14 250 22 354 54 719 11 121 20 243 20 271 0 28 3 54 6 57 4 4 36 -14 71&#xA;-39 l64 -46 -3 74 -3 73 -127 85 c-153 103 -319 187 -461 235 -126 42 -186 54&#xA;-214 44z m517 -354 c27 -13 51 -28 54 -33 6 -10 -26 -485 -49 -722 -33 -346&#xA;-46 -476 -50 -497 -5 -20 -12 -23 -50 -23 -24 0 -45 3 -48 8 -4 8 9 217 47&#xA;762 36 512 37 530 42 530 3 0 27 -11 54 -25z"/>
  </g>
  <title>Train Conductor Flag</title>
  <desc>Train Conductor Flag</desc>
</svg>