<?xml version="1.0" standalone="no"?>
<!DOCTYPE svg PUBLIC "-//W3C//DTD SVG 20010904//EN"
 "http://www.w3.org/TR/2001/REC-SVG-20010904/DTD/svg10.dtd">
<svg version="1.0" xmlns="http://www.w3.org/2000/svg"
 width="1024.000000pt" height="1024.000000pt" viewBox="0 0 1024.000000 1024.000000"
 preserveAspectRatio="xMidYMid meet">
<metadata>
Created by potrace 1.16, written by Peter Selinger 2001-2019
</metadata>
<g transform="translate(0.000000,1024.000000) scale(0.100000,-0.100000)"
fill="#000000" stroke="none">
<path d="M6735 9206 c-52 -23 -83 -69 -91 -133 -19 -159 -14 -147 -68 -158
-27 -6 -53 -17 -57 -25 -4 -8 -15 -71 -23 -139 -9 -68 -18 -127 -21 -129 -3
-3 -53 -12 -112 -21 -119 -18 -120 -19 -122 -103 -1 -20 -4 -39 -9 -41 -4 -3
-295 -39 -647 -81 -352 -42 -656 -79 -675 -83 l-35 -8 -47 -375 c-27 -206 -82
-638 -124 -960 -95 -736 -185 -1442 -225 -1765 l-30 -250 -62 -57 c-34 -32
-70 -58 -80 -58 -10 0 -34 -7 -55 -16 -20 -9 -48 -18 -62 -20 -56 -9 -220 -17
-220 -11 0 4 21 26 47 49 89 82 223 285 223 338 0 9 9 33 20 55 24 47 26 140
5 199 -7 21 -11 44 -9 51 14 34 -58 125 -126 160 -32 16 -32 18 -69 145 -16
52 -40 123 -54 157 l-27 61 30 32 c16 18 35 51 41 73 6 23 18 56 26 73 15 30
15 34 -1 209 -5 57 -20 88 -60 129 -20 19 -36 40 -36 45 0 18 -80 78 -120 90
-22 6 -40 16 -40 20 0 5 -16 16 -36 26 -52 25 -192 13 -250 -21 -23 -13 -44
-21 -47 -17 -7 7 -56 -23 -75 -46 -25 -30 -52 -96 -52 -129 0 -18 -6 -34 -12
-36 -7 -2 -42 -11 -78 -19 -36 -8 -74 -18 -85 -22 -13 -4 -8 4 15 24 26 24 31
34 22 43 -9 9 -26 9 -74 0 -79 -15 -171 -60 -232 -113 -26 -23 -49 -39 -52
-37 -2 3 0 18 6 33 6 15 8 30 6 33 -12 12 -99 -54 -170 -128 -57 -60 -81 -79
-87 -69 -12 20 -46 -15 -81 -86 -17 -33 -32 -62 -34 -64 -3 -3 -22 12 -43 33
-21 20 -49 38 -62 39 -13 1 -37 11 -52 21 -33 22 -127 35 -127 17 0 -6 -18
-11 -45 -11 -24 0 -66 -7 -92 -16 -54 -18 -116 -61 -108 -74 3 -4 -10 -18 -29
-29 -40 -25 -71 -67 -55 -76 6 -4 -5 -23 -26 -46 -50 -56 -58 -80 -61 -201 -2
-84 0 -111 11 -122 9 -8 15 -33 15 -59 0 -60 17 -107 51 -140 16 -15 29 -32
29 -37 0 -18 62 -80 80 -80 10 0 38 -11 61 -25 27 -15 60 -25 85 -25 28 0 44
-5 48 -15 6 -17 70 -21 109 -6 24 9 24 8 30 -57 7 -80 24 -132 43 -132 8 0 14
-10 14 -23 0 -76 65 -196 91 -170 10 10 18 2 41 -37 26 -46 57 -74 75 -68 5 2
26 -16 46 -39 44 -48 112 -84 153 -81 16 1 39 -3 50 -10 20 -11 21 -14 8 -62
-7 -29 -27 -67 -44 -86 -45 -52 -73 -113 -76 -169 -1 -27 -10 -68 -21 -90 -15
-34 -18 -62 -15 -194 l2 -155 -28 27 c-41 39 -75 42 -165 14 -100 -32 -117
-47 -107 -91 11 -50 51 -124 90 -169 l36 -40 -57 -56 c-39 -40 -62 -73 -77
-114 -12 -32 -22 -63 -22 -70 1 -14 146 -77 178 -77 13 0 36 17 59 45 20 25
40 45 43 45 4 0 7 -27 8 -59 2 -67 12 -101 49 -153 27 -40 25 -68 -4 -68 -28
0 -116 -45 -138 -70 -17 -19 -21 -39 -24 -140 l-3 -118 50 -49 50 -48 -56
-229 -57 -228 39 -34 c46 -40 82 -49 133 -34 82 25 81 23 104 245 12 110 22
201 23 202 2 2 22 -4 47 -11 24 -8 70 -20 102 -26 31 -6 57 -17 57 -23 0 -7
-9 -104 -20 -217 -28 -292 -28 -284 20 -316 59 -39 118 -43 174 -10 25 14 49
33 53 40 4 8 6 69 3 135 -3 67 -4 121 -2 121 1 0 19 -9 39 -20 74 -40 178 -13
185 47 l3 28 23 -37 c13 -20 31 -39 40 -43 10 -3 35 -28 56 -55 45 -58 140
-133 193 -151 20 -6 52 -21 72 -33 30 -18 52 -21 136 -21 87 0 107 3 155 26
114 54 214 158 282 294 17 33 32 62 34 64 2 2 20 -9 40 -24 88 -67 236 -91
372 -60 159 36 150 31 157 74 4 25 22 57 51 91 89 104 157 227 184 330 6 25
18 59 25 76 17 37 -17 40 310 -30 545 -116 557 -118 567 -142 9 -19 30 -27
112 -47 94 -22 104 -23 141 -9 38 14 50 13 215 -22 96 -20 204 -44 241 -52
l66 -15 9 -387 9 -387 110 -37 c61 -20 123 -37 138 -37 15 -1 50 11 78 25 l51
25 -6 167 c-7 199 -25 903 -28 1157 l-3 180 67 3 c65 3 68 4 74 30 3 15 7 32
9 38 5 16 274 -37 284 -56 5 -8 82 -235 171 -505 89 -269 169 -495 176 -501 7
-6 68 -23 136 -38 l122 -27 43 43 43 43 -54 160 c-54 162 -132 383 -233 664
l-55 154 11 71 c15 104 140 1044 216 1621 36 275 74 563 85 640 22 157 83 624
164 1250 30 231 96 734 146 1118 75 579 89 702 78 714 -32 39 -143 113 -168
113 -15 0 -252 -27 -526 -60 -274 -33 -611 -74 -749 -90 -137 -17 -271 -33
-297 -36 -38 -5 -48 -4 -48 8 0 8 -16 22 -35 31 -40 19 -40 14 -19 152 8 59
13 113 10 121 -3 8 2 64 10 123 19 131 13 150 -59 195 -55 34 -127 43 -172 22z
m113 -25 c23 -14 28 -61 17 -148 -10 -85 -10 -86 -40 -88 -16 -1 -63 -6 -103
-10 l-73 -7 5 23 c3 13 10 57 15 97 5 40 15 80 23 89 36 44 120 68 156 44z
m93 -63 c8 -16 8 -44 -1 -115 -7 -51 -16 -96 -20 -98 -4 -3 -17 3 -29 13 -20
17 -21 19 -6 114 8 53 12 104 8 114 -5 14 -3 15 15 5 12 -6 27 -21 33 -33z
m-111 -234 c0 -19 -5 -77 -11 -127 l-12 -93 -146 -21 c-80 -12 -148 -19 -150
-17 -2 1 0 20 3 40 7 36 8 36 22 15 12 -17 25 -21 67 -21 63 0 72 5 92 53 12
30 13 42 4 60 -22 41 -59 70 -89 70 -18 0 -41 -10 -56 -24 l-27 -24 8 40 c4
22 8 42 10 43 3 3 231 37 273 41 7 1 12 -12 12 -35z m100 -44 c-1 -33 -27
-201 -33 -206 -3 -3 -20 2 -37 13 -28 16 -31 22 -26 53 3 19 8 67 11 105 4 39
8 76 11 83 5 17 74 -27 74 -48z m-296 -36 c10 -26 7 -84 -5 -84 -6 0 -9 -9 -6
-20 4 -17 0 -20 -29 -20 -19 0 -34 3 -34 6 0 3 16 21 36 40 35 32 36 35 20 52
-9 10 -16 24 -16 30 0 18 27 14 34 -4z m-33 -20 c12 -24 12 -28 -10 -45 -42
-34 -67 -2 -35 45 21 33 27 32 45 0z m75 -60 c-10 -37 -29 -30 -21 9 4 17 10
37 13 42 9 15 15 -23 8 -51z m1933 -71 c-5 -32 -24 -182 -43 -333 -101 -787
-152 -1173 -216 -1645 -16 -121 -45 -341 -64 -490 -19 -148 -64 -488 -100
-755 -35 -267 -115 -867 -177 -1335 -61 -467 -113 -852 -115 -853 -2 -3 -520
85 -612 104 -24 5 -42 39 -42 78 0 16 -10 28 -32 39 -30 16 -449 87 -1828 312
-250 41 -465 77 -477 80 -14 3 -29 19 -37 38 -39 94 -187 146 -418 147 l-78 0
0 33 c0 17 4 38 9 46 9 14 74 41 102 41 34 0 117 31 140 52 14 13 38 29 53 36
66 30 143 91 260 206 125 124 159 164 155 188 -1 7 5 29 14 49 35 80 41 124
22 197 -9 37 -25 81 -36 98 l-19 31 24 21 c42 36 65 43 110 37 59 -9 143 16
201 60 l46 35 22 -37 c127 -219 518 -753 550 -753 13 0 403 291 677 504 287
224 450 365 635 551 357 357 543 648 650 1020 45 157 58 269 52 459 -4 147 -8
184 -31 261 -85 285 -256 464 -513 537 -63 18 -104 22 -208 22 -198 -1 -344
-44 -515 -155 -109 -70 -272 -228 -338 -328 -40 -60 -43 -63 -49 -40 -4 13
-27 65 -51 114 -37 73 -61 106 -131 175 -137 137 -269 187 -461 177 -394 -20
-717 -355 -795 -826 -25 -149 -16 -400 20 -571 37 -179 111 -392 210 -608 48
-103 89 -194 91 -203 4 -11 -5 -19 -34 -27 -93 -28 -172 -127 -172 -214 0 -44
-17 -66 -82 -109 l-42 -28 -37 34 c-88 79 -245 41 -333 -83 -20 -27 -47 -54
-62 -61 -26 -11 -26 -11 -20 21 5 28 115 886 147 1143 5 44 36 285 69 535 33
250 91 705 130 1010 39 305 72 560 74 565 2 6 55 16 117 23 101 11 519 61
1264 152 483 58 1421 173 1835 225 234 29 441 53 461 54 l36 1 -8 -57z m161
-47 c0 -1 -9 -68 -20 -151 -10 -82 -42 -325 -70 -540 -28 -214 -68 -523 -90
-685 -21 -162 -53 -403 -70 -535 -34 -266 -85 -655 -130 -990 -16 -121 -48
-359 -70 -530 -22 -170 -59 -447 -81 -615 -22 -168 -48 -368 -59 -445 -11 -77
-40 -297 -65 -490 -25 -192 -48 -360 -50 -372 -5 -21 -11 -23 -76 -23 l-71 0
5 30 c4 16 47 337 97 712 172 1298 301 2264 326 2453 13 105 38 289 54 410 16
121 48 362 70 535 23 173 52 401 66 505 58 448 104 811 104 823 0 7 29 -11 65
-40 36 -28 65 -52 65 -52z m-1974 -28 c-4 -29 -8 -54 -9 -55 -3 -2 -490 -63
-510 -63 -12 0 -14 9 -10 43 3 23 9 46 13 51 8 8 431 72 494 75 l29 1 -7 -52z
m174 -27 c0 -8 -148 -27 -155 -19 -2 2 1 24 6 50 l11 47 69 -34 c38 -20 69
-39 69 -44z m420 -925 c94 -17 176 -48 237 -89 47 -31 48 -33 55 -97 20 -183
21 -246 4 -298 -20 -60 -83 -135 -138 -163 -122 -62 -273 -14 -346 109 -24 42
-27 56 -27 142 0 107 16 148 77 207 71 68 153 80 239 35 151 -79 141 -308 -16
-368 -43 -16 -48 -16 -91 1 -54 21 -84 62 -84 118 0 44 22 92 49 107 31 16 79
12 101 -10 24 -24 25 -48 4 -78 -21 -31 -68 -27 -72 6 -2 12 -8 22 -13 22 -15
0 -10 -42 8 -62 43 -48 131 10 119 81 -12 74 -91 111 -154 72 -98 -62 -97
-202 1 -275 21 -16 43 -21 87 -21 77 0 133 37 173 114 83 166 -25 350 -206
351 -70 0 -112 -16 -166 -65 -62 -56 -94 -133 -95 -225 0 -106 24 -171 88
-235 60 -61 121 -85 212 -85 121 0 239 90 280 214 21 63 21 151 -1 249 -9 43
-14 81 -10 85 4 4 31 -19 61 -52 50 -54 124 -186 139 -248 6 -23 4 -26 -13
-21 -53 13 -147 -47 -183 -118 -23 -46 -25 -121 -3 -154 9 -13 31 -29 49 -35
90 -30 188 97 125 160 -27 27 -75 26 -94 -2 -20 -28 -20 -39 0 -64 15 -18 15
-18 10 8 -4 17 0 32 10 42 19 20 29 20 48 0 23 -22 20 -59 -6 -88 -33 -36 -68
-42 -101 -16 -22 18 -27 29 -27 68 0 58 25 101 81 142 29 21 54 30 80 30 34 0
39 -3 45 -27 3 -16 8 -35 10 -42 15 -46 22 -217 13 -315 -23 -270 -120 -534
-286 -786 -219 -332 -508 -615 -1073 -1051 -243 -188 -538 -409 -553 -414 -23
-9 -412 538 -522 733 -4 8 1 22 13 35 11 12 30 42 43 67 28 56 38 188 19 256
-13 46 -63 124 -79 124 -5 0 -12 -22 -16 -48 -9 -66 -43 -122 -90 -149 -22
-13 -42 -23 -45 -23 -3 0 -27 42 -52 93 -347 693 -395 1223 -149 1641 164 279
470 427 749 361 111 -26 232 -102 305 -193 53 -65 112 -188 133 -277 10 -41
20 -75 23 -75 3 0 19 26 36 58 43 82 134 199 209 269 238 223 510 317 776 269z
m-3614 -965 c-3 -4 -20 -12 -38 -16 -31 -7 -30 -8 24 -16 64 -9 151 -43 170
-67 11 -13 10 -14 -10 -8 -13 4 -22 3 -22 -3 0 -5 9 -13 21 -16 41 -13 129
-108 129 -139 0 -3 -17 4 -37 16 l-38 22 22 -25 c34 -38 63 -110 62 -159 0
-43 0 -44 -13 -21 -13 23 -14 20 -13 -40 1 -66 -22 -129 -58 -159 -15 -12 -18
-12 -26 1 -4 9 -26 37 -48 64 -37 45 -38 49 -26 79 26 64 2 149 -57 202 l-41
37 54 -6 c54 -7 54 -7 25 9 -22 12 -46 15 -95 11 l-65 -5 34 29 c19 16 29 29
22 29 -20 0 -101 -79 -128 -126 -23 -39 -28 -42 -50 -34 -14 6 -41 10 -60 10
-41 0 -37 16 6 25 66 14 13 58 -86 72 l-46 6 6 45 c5 39 48 132 61 132 3 0 2
-21 -1 -47 l-5 -48 19 40 c20 44 84 105 108 105 12 0 12 -4 -3 -27 -17 -28
-17 -28 2 -12 42 35 81 48 143 49 35 0 61 -4 58 -9z m-637 -258 c-19 -21 -45
-50 -59 -66 l-24 -27 73 30 c120 49 242 69 334 54 49 -9 47 -20 -5 -27 -51 -7
-187 -52 -201 -66 -7 -7 5 -9 39 -5 27 4 68 1 91 -5 40 -11 103 -54 103 -70 0
-4 -29 -3 -64 2 -43 6 -75 6 -93 -1 l-28 -10 29 -1 c47 -1 113 -39 137 -77 12
-19 19 -38 16 -41 -3 -3 -27 2 -53 11 -26 9 -59 16 -72 16 -24 0 -23 -1 9 -23
35 -23 76 -90 60 -95 -5 -2 -33 9 -61 23 -76 38 -81 26 -6 -14 90 -48 113 -33
81 51 -7 17 -5 17 29 3 33 -14 37 -14 42 0 9 24 -3 60 -33 96 l-28 32 33 -6
c28 -6 32 -4 32 14 0 32 -35 74 -77 94 -54 26 -25 30 60 10 126 -29 227 -86
314 -173 113 -114 163 -202 209 -367 9 -33 24 -75 35 -92 17 -31 17 -33 1 -33
-9 -1 6 -12 33 -27 53 -27 100 -66 117 -96 9 -17 8 -17 -21 -2 -34 17 -43 7
-11 -13 36 -22 63 -91 67 -172 4 -70 3 -73 -11 -50 -15 25 -15 24 -16 -21 0
-47 -34 -176 -51 -193 -5 -6 -9 0 -9 15 0 16 -8 6 -24 -34 -24 -57 -103 -162
-172 -227 -20 -19 -35 -30 -32 -25 2 6 11 26 20 45 21 47 34 125 19 116 -6 -4
-11 -17 -11 -29 0 -68 -106 -199 -196 -245 -93 -46 -239 -59 -330 -29 -56 19
-109 68 -143 132 -14 25 -19 31 -15 15 9 -38 50 -96 87 -124 100 -76 299 -86
428 -21 l48 25 31 -38 c17 -20 47 -70 67 -110 l35 -73 -22 -24 c-53 -56 -210
-116 -343 -130 l-64 -7 -26 44 c-26 45 -159 178 -177 178 -6 0 -10 4 -10 8 0
4 17 9 38 10 48 4 175 32 168 39 -2 3 -47 -1 -98 -8 -170 -22 -365 -16 -464
17 -15 5 -14 1 6 -16 27 -23 32 -23 -58 0 -74 19 -130 48 -177 91 -49 45 -56
43 -25 -8 26 -44 10 -42 -42 5 -47 42 -98 117 -98 143 0 10 -5 21 -11 25 -9 5
-10 -7 -5 -44 4 -29 4 -52 2 -52 -13 0 -57 92 -70 149 -8 35 -17 65 -20 68 -3
3 -8 -22 -12 -56 -3 -33 -10 -59 -14 -56 -13 8 -43 129 -49 205 l-7 75 -16
-35 -15 -35 -8 47 c-10 67 2 108 47 152 46 46 43 59 -4 23 -43 -33 -116 -66
-147 -67 l-23 0 22 18 c22 18 21 18 -44 14 -87 -6 -144 16 -192 71 l-37 42 7
-34 c5 -30 4 -32 -10 -20 -23 19 -53 82 -60 128 -7 44 -24 46 -24 3 -1 -25 -1
-26 -12 -7 -14 23 -17 177 -5 215 8 24 7 24 -17 -5 -14 -16 -28 -26 -32 -22
-11 11 15 97 41 135 30 45 22 58 -11 17 -23 -29 -24 -29 -24 -7 0 50 64 143
134 193 42 31 40 34 -12 19 -30 -8 -32 -8 -20 7 17 21 106 62 138 64 14 1 5 5
-20 8 l-45 6 30 16 c75 41 210 47 263 12 36 -22 37 -9 2 21 -22 18 -26 26 -15
26 29 0 72 -28 109 -72 35 -41 47 -38 25 5 -9 17 -3 14 22 -10 31 -29 66 -86
85 -138 7 -19 8 -19 12 3 2 13 -1 37 -7 53 -9 25 -5 40 24 104 19 41 36 75 39
75 3 0 2 -17 -1 -37 l-6 -38 29 35 c71 87 158 181 189 204 l34 26 -25 -60
c-13 -33 -24 -62 -24 -65 0 -3 39 29 88 70 54 48 120 93 176 121 110 55 132
57 85 7z m666 -44 c41 -36 69 -114 59 -166 -3 -18 -8 -33 -11 -33 -3 0 -32 20
-65 45 -33 25 -82 57 -109 72 -27 16 -49 32 -49 37 0 4 15 23 34 42 46 46 91
47 141 3z m1485 -958 c-19 -16 -32 -33 -27 -37 7 -7 110 14 150 31 28 12 21
-19 -17 -69 -30 -38 -33 -46 -20 -57 12 -10 22 -9 51 5 19 9 37 15 39 13 2 -2
-8 -20 -22 -41 -14 -20 -23 -43 -20 -51 7 -18 -19 -39 -86 -70 -45 -20 -69
-25 -115 -23 -57 3 -57 3 -64 38 -4 19 -17 42 -29 52 -27 22 -22 53 17 113 24
37 24 39 3 20 -29 -26 -50 -68 -50 -100 0 -14 -4 -25 -10 -25 -15 0 -12 46 6
88 32 78 119 138 204 141 23 1 23 0 -10 -28z m-156 -253 c6 -17 6 -35 0 -48
-9 -20 -11 -19 -37 20 -15 23 -24 46 -21 51 11 19 49 4 58 -23z m-275 -29 c10
-7 26 -25 35 -40 50 -85 -18 -169 -139 -169 -31 0 -65 5 -76 10 -13 8 -19 7
-19 0 0 -6 7 -13 15 -16 8 -4 15 -9 15 -13 0 -4 -61 -61 -135 -125 -261 -228
-325 -305 -259 -314 22 -3 144 74 279 176 l79 60 23 -38 c22 -36 47 -52 104
-64 59 -13 150 38 198 111 51 76 60 164 26 245 -9 22 40 57 57 40 15 -15 40
-128 39 -172 -2 -56 -29 -124 -67 -169 -37 -42 -37 -49 -3 -30 46 24 -2 -30
-71 -80 -71 -52 -84 -65 -52 -55 32 11 -83 -85 -131 -108 -34 -17 -43 -24 -30
-29 32 -11 -151 -99 -208 -99 -11 0 -17 -4 -14 -10 3 -5 16 -10 28 -10 22 -1
22 -1 2 -13 -12 -7 -59 -12 -117 -12 -54 0 -98 -1 -98 -3 0 -1 12 -8 28 -14
l27 -12 -35 -4 c-19 -1 -53 1 -75 6 l-40 8 -36 104 c-19 58 -45 126 -56 152
-36 80 -113 190 -175 250 l-59 58 74 0 c41 0 96 3 123 6 38 4 45 3 32 -6 -10
-6 -18 -15 -18 -20 0 -5 21 4 48 20 26 15 58 32 72 35 24 7 24 7 9 -11 -28
-34 -33 -50 -8 -28 13 12 47 36 74 54 28 19 83 65 124 104 41 39 71 62 66 51
-5 -11 -10 -38 -11 -60 l-3 -40 9 38 c27 106 115 209 209 244 39 14 110 10
140 -8z m231 -39 c0 -11 -68 -71 -177 -157 -427 -335 -605 -463 -612 -441 -5
14 99 115 288 281 132 115 134 117 183 117 58 0 120 29 145 67 10 14 20 47 23
72 5 41 10 49 60 84 l55 38 17 -22 c10 -11 18 -29 18 -39z m-91 -171 c27 -78
0 -171 -69 -240 -84 -84 -185 -88 -238 -9 l-24 35 39 32 c79 65 268 212 275
212 3 1 11 -13 17 -30z m-1042 -251 c95 -102 145 -191 218 -393 81 -223 86
-245 56 -245 -38 0 -248 -58 -320 -89 -72 -31 -121 -40 -121 -22 0 16 -82 40
-150 45 -36 2 -83 11 -105 20 -22 8 -55 15 -72 16 l-33 0 0 73 c0 177 -78 324
-222 417 l-57 37 60 7 c53 5 64 3 101 -20 57 -36 123 -99 176 -168 l45 -58
101 4 c76 4 118 12 171 32 78 30 162 87 184 128 14 24 13 30 -16 89 -18 35
-48 83 -68 107 -36 41 -41 72 -12 72 8 0 36 -24 64 -52z m-1023 -127 c3 -5 -2
-11 -12 -14 -9 -2 -25 -8 -36 -12 -16 -7 -17 -6 -7 13 12 22 45 30 55 13z
m204 -52 c155 -76 262 -246 262 -418 l0 -54 -25 23 c-44 41 -72 101 -78 165
-6 71 -44 160 -83 195 l-28 25 22 -31 c30 -43 58 -111 65 -159 6 -34 5 -37 -6
-21 -41 62 -46 60 -21 -9 26 -72 67 -149 84 -160 22 -14 8 -25 -30 -25 -37 0
-110 -22 -110 -34 0 -2 15 0 32 5 41 11 135 12 142 0 3 -4 -12 -13 -34 -20
-22 -6 -52 -23 -67 -36 l-28 -24 54 26 c41 21 73 28 138 31 55 3 88 1 96 -7 8
-8 5 -11 -13 -11 -14 0 -31 -4 -39 -9 -8 -5 35 -8 105 -7 66 0 133 -3 149 -8
l30 -9 -30 -13 -30 -13 27 -1 c39 0 123 -34 165 -66 37 -28 72 -92 73 -131 0
-28 3 -27 -45 -3 -22 11 -46 20 -55 20 -8 0 0 -8 18 -17 46 -23 72 -59 72
-102 -1 -88 -78 -177 -178 -205 l-57 -16 50 4 c28 2 59 7 70 11 17 5 16 3 -5
-16 -37 -32 -118 -66 -178 -74 -28 -4 -49 -11 -46 -16 13 -21 -114 -6 -211 26
-20 7 -20 6 -1 -9 20 -16 20 -16 -1 -16 -41 0 -200 52 -263 86 -36 20 -80 50
-97 67 -36 33 -44 27 -16 -13 l18 -25 -32 20 c-46 30 -102 101 -140 180 l-34
70 5 -45 c4 -41 3 -43 -10 -26 -20 28 -54 122 -55 154 -1 15 -5 38 -9 52 -7
23 -8 22 -9 -9 -1 -24 -4 -32 -11 -25 -19 19 -23 173 -7 244 9 36 14 66 12 68
-2 2 -10 -9 -19 -25 l-15 -28 -1 28 c0 36 41 159 74 222 33 62 33 65 -5 29
l-32 -29 33 63 c37 69 112 144 175 174 51 24 99 18 183 -23z m1178 -349 c24 0
25 -3 22 -47 -3 -43 -6 -48 -28 -51 -23 -3 -27 2 -38 43 -16 59 -15 68 4 61 9
-3 27 -6 40 -6z m369 -143 c125 -35 175 -86 161 -162 -17 -88 -194 -211 -386
-269 -122 -36 -207 -47 -354 -44 l-129 3 0 73 c0 82 8 96 46 87 42 -11 77 -50
77 -85 0 -18 4 -29 10 -25 17 11 11 61 -11 89 -12 16 -38 31 -65 37 -47 12
-67 30 -43 38 26 8 79 69 79 90 0 38 -42 54 -126 49 -127 -8 -104 16 67 70 82
27 174 46 314 66 61 9 311 -3 360 -17z m-646 -151 c9 -11 10 -20 1 -35 -12
-23 -70 -57 -70 -42 0 6 -13 26 -30 44 -16 19 -30 37 -30 41 0 13 118 6 129
-8z m-1397 -23 c20 -19 28 -37 28 -61 0 -18 -3 -32 -7 -30 -48 25 -88 38 -99
34 -22 -8 -17 -25 6 -19 10 3 35 -5 54 -16 32 -20 34 -24 24 -46 l-11 -24 -43
30 c-55 38 -58 21 -4 -22 22 -18 40 -37 40 -44 0 -13 -52 -45 -73 -45 -9 0
-31 19 -51 41 -36 43 -104 164 -96 172 11 10 157 55 179 56 14 1 37 -11 53
-26z m3402 -178 c610 -101 1111 -186 1113 -189 9 -9 -20 -196 -30 -196 -6 0
-272 47 -592 105 -880 160 -1513 274 -1635 295 -95 16 -97 17 -72 43 25 26 52
88 52 117 0 18 4 21 28 16 15 -3 526 -89 1136 -191z m-3283 12 c17 -48 15 -49
-33 -13 -23 16 -28 27 -28 64 l0 45 23 -25 c12 -13 29 -45 38 -71z m2033 42
c-37 -42 -142 -109 -224 -144 -100 -43 -205 -71 -320 -85 -143 -17 -305 -10
-297 14 2 7 50 11 143 12 157 0 263 15 379 51 102 32 262 114 300 153 32 33
49 32 19 -1z m-2000 -129 c42 -21 116 -103 104 -115 -7 -7 -120 51 -165 84
-54 39 -77 74 -69 105 6 23 6 23 44 -13 21 -20 59 -47 86 -61z m2090 64 c50
-9 93 -18 95 -20 2 -2 -11 -61 -29 -133 l-33 -129 -21 24 c-11 13 -73 51 -136
85 -63 33 -121 65 -127 71 -10 8 1 19 42 43 30 19 67 43 81 54 32 25 17 24
128 5z m305 -61 c2 -1 -11 -66 -29 -143 l-34 -141 -26 8 c-14 4 -57 7 -97 6
l-71 -2 34 132 c49 192 36 177 136 159 45 -9 85 -17 87 -19z m-2549 -11 c0
-10 -24 -43 -53 -73 -30 -30 -56 -66 -60 -80 -6 -22 -4 -22 16 6 24 34 76 85
86 85 3 0 4 -30 3 -67 -3 -56 -9 -73 -30 -98 -15 -17 -34 -41 -42 -53 l-15
-23 -75 33 c-41 18 -77 33 -78 34 -9 6 39 94 69 129 39 44 146 125 166 125 7
0 13 -8 13 -18z m2638 -7 c3 -2 -12 -72 -33 -154 l-37 -151 -29 17 c-16 10
-29 23 -29 31 0 8 15 72 32 144 l33 130 29 -6 c16 -4 32 -8 34 -11z m335 -54
c148 -27 270 -51 273 -53 2 -2 -8 -88 -23 -191 -20 -141 -30 -187 -41 -187 -7
0 -131 23 -274 52 -228 45 -265 55 -289 77 l-29 26 41 163 c32 126 45 162 58
162 9 0 137 -22 284 -49z m-2886 3 c51 -39 106 -66 175 -85 73 -20 147 -60
154 -82 4 -12 2 -23 -4 -25 -18 -6 -62 -43 -62 -52 0 -5 16 2 37 15 44 31 55
24 21 -13 -14 -15 -32 -38 -41 -52 -32 -46 -17 -41 31 11 l49 53 58 -95 c32
-52 73 -128 91 -169 32 -74 84 -254 84 -291 0 -16 5 -18 28 -13 56 14 122 55
228 143 150 125 309 198 410 189 l34 -3 -69 -48 c-39 -26 -83 -66 -98 -89 -15
-22 -51 -65 -80 -94 -29 -29 -59 -68 -68 -86 l-16 -33 35 40 c42 48 44 45 12
-27 -14 -31 -27 -73 -31 -94 -5 -34 -3 -31 18 21 63 158 183 309 263 333 70
20 128 16 163 -14 17 -14 29 -30 26 -34 -3 -5 -1 -11 5 -15 13 -8 13 21 0 46
-19 34 -68 52 -128 46 -45 -5 -51 -3 -42 8 21 25 112 50 185 49 108 0 175 -44
211 -140 l15 -39 -5 43 c-2 23 -2 42 0 42 3 0 16 -12 29 -27 78 -87 79 -315 3
-513 -69 -180 -174 -318 -290 -381 -60 -32 -68 -34 -164 -34 -95 0 -103 2
-137 28 -50 38 -68 67 -89 146 l-18 66 5 -63 c3 -34 12 -76 20 -92 22 -43 19
-44 -32 -9 -68 47 -149 132 -184 195 -34 60 -44 68 -35 27 6 -27 6 -27 -10 -8
-9 11 -34 56 -56 100 -39 79 -39 80 -34 35 l6 -45 -20 35 c-10 19 -33 70 -51
113 -31 74 -56 104 -43 52 3 -14 4 -25 1 -25 -3 0 -29 38 -58 85 -57 93 -74
112 -63 70 6 -25 2 -24 -86 32 -51 32 -117 82 -146 111 -58 56 -63 58 -39 12
9 -17 12 -30 7 -30 -18 0 -83 95 -103 152 -12 32 -24 58 -27 58 -2 0 -2 -19 0
-42 l6 -43 -29 63 c-16 34 -35 100 -43 145 -12 77 -13 80 -21 45 -19 -96 -43
43 -27 154 6 40 9 74 7 76 -2 3 -11 -11 -19 -29 -11 -26 -15 -29 -15 -13 -1
29 11 144 15 144 2 0 25 -16 51 -36z m1891 -3 c15 -10 73 -42 130 -70 56 -28
102 -55 102 -60 0 -5 -10 -11 -23 -15 -43 -10 -106 -65 -181 -158 -82 -102
-120 -136 -190 -170 l-47 -22 -62 34 -62 35 -160 2 c-188 3 -268 -11 -370 -62
-66 -32 -104 -60 -254 -180 -35 -27 -81 -60 -104 -71 l-41 -21 -27 107 c-31
125 -84 242 -158 354 -53 80 -85 136 -78 136 2 0 33 -13 68 -29 101 -45 180
-60 334 -63 131 -3 145 -1 223 26 84 28 115 51 192 144 l25 30 80 -10 c140
-17 374 12 500 61 63 25 71 25 103 2z m2592 -73 c5 -13 11 -34 14 -48 10 -43
21 -50 87 -60 106 -17 109 -18 109 -45 l0 -25 -130 0 c-90 0 -130 3 -130 11 0
41 25 189 32 189 5 0 13 -10 18 -22z m-1243 -25 c-43 -288 -43 -333 3 -333 31
0 40 25 60 161 29 198 27 190 58 183 15 -4 29 -8 31 -10 4 -3 -49 -427 -54
-432 -5 -5 -194 34 -202 41 -5 6 42 373 53 410 3 10 15 17 31 17 24 0 25 -2
20 -37z m63 20 c0 -16 -41 -309 -45 -320 -6 -18 -35 -4 -35 16 0 9 10 82 21
164 19 128 25 147 41 147 10 0 18 -3 18 -7z m167 -31 c10 -6 7 -48 -13 -193
-14 -101 -29 -191 -33 -198 -10 -19 -61 -34 -61 -18 0 13 35 295 46 370 6 39
10 47 28 47 11 0 27 -4 33 -8z m107 -213 c15 -110 26 -202 24 -204 -9 -9 -130
19 -135 31 -2 7 7 90 21 186 14 95 26 176 26 181 0 4 8 7 18 7 15 0 21 -25 46
-201z m49 169 c7 -29 57 -363 57 -381 0 -9 -9 -12 -28 -9 l-29 4 -27 191 c-14
106 -26 198 -26 205 0 6 11 12 24 12 16 0 26 -7 29 -22z m310 -38 c149 -28
272 -52 274 -54 2 -1 6 -94 9 -204 l6 -202 -23 1 c-13 0 -127 22 -254 47
l-230 47 -27 175 c-15 96 -29 190 -32 208 -3 17 -2 32 0 32 3 0 127 -23 277
-50z m-1783 16 c0 -35 -11 -45 -36 -34 -28 13 -30 23 -6 37 24 15 42 13 42 -3z
m21 -33 c-12 -20 -14 -14 -5 12 4 9 9 14 11 11 3 -2 0 -13 -6 -23z m-81 -21
l21 -17 -63 -63 c-35 -34 -78 -72 -97 -85 -19 -12 -41 -33 -49 -47 -16 -25
-15 -25 14 3 40 36 51 34 24 -5 -31 -47 -80 -150 -80 -168 0 -8 19 20 43 64
47 88 136 199 186 233 69 46 194 39 207 -12 6 -26 24 -35 24 -12 0 45 -74 84
-138 72 -62 -11 -24 13 49 31 102 25 176 -4 219 -84 10 -21 19 -30 20 -22 0 8
-9 30 -20 48 -18 29 -18 32 -3 23 100 -54 134 -234 79 -415 -35 -113 -87 -231
-96 -216 -4 6 -22 -19 -40 -56 -41 -83 -153 -200 -228 -238 -105 -53 -203 -42
-238 26 -21 41 -29 146 -16 215 13 71 -4 58 -18 -14 -14 -65 -6 -173 15 -215
17 -36 7 -35 -66 3 -83 45 -93 57 -75 100 53 128 61 362 17 449 -13 25 -36 59
-53 76 l-29 31 49 20 c63 26 119 77 193 174 55 72 102 119 119 119 4 0 18 -8
30 -18z m2281 -43 l77 -13 6 -170 c3 -94 10 -400 16 -681 6 -280 13 -547 16
-592 3 -46 3 -83 0 -83 -15 0 -211 61 -218 68 -4 4 -10 304 -13 667 -3 363 -8
698 -10 744 l-5 84 27 -6 c16 -3 62 -11 104 -18z m798 -13 l73 -12 90 -254
c161 -460 257 -750 250 -750 -22 0 -198 42 -205 49 -5 5 -80 222 -167 482 -86
261 -161 482 -165 491 -6 15 -3 17 21 12 16 -3 62 -11 103 -18z m-629 -13 c0
-83 30 -1256 35 -1350 l6 -122 -31 -16 c-18 -9 -35 -14 -38 -10 -8 8 -9 28
-27 860 -7 351 -11 643 -9 647 3 4 18 8 35 8 21 0 29 -5 29 -17z m851 -163
c76 -212 225 -635 254 -722 l23 -67 -29 -27 c-21 -21 -30 -24 -34 -13 -2 8
-54 158 -114 334 -60 176 -136 398 -170 493 l-60 173 36 -3 36 -3 58 -165z
m-2555 50 c272 -55 278 -56 270 -68 -6 -11 -525 93 -540 108 -16 16 4 13 270
-40z m544 -150 c437 -88 805 -162 818 -165 21 -5 22 -9 22 -119 l0 -114 -212
45 c-117 24 -265 55 -328 68 -63 14 -198 42 -300 64 -230 49 -749 158 -773
163 -15 3 -18 16 -21 93 -1 50 -6 98 -10 108 -5 9 -4 17 0 17 5 0 367 -72 804
-160z m-3355 44 c14 -25 36 -50 48 -55 12 -6 32 -28 45 -50 24 -41 82 -86 122
-94 13 -2 33 -13 44 -24 12 -10 37 -28 56 -40 43 -26 29 -26 -82 -1 -179 39
-381 137 -413 201 -14 26 -13 30 7 49 21 19 109 58 135 59 6 1 23 -19 38 -45z
m3795 -90 c355 -70 413 -85 399 -99 -3 -2 -192 33 -420 78 -353 71 -433 92
-374 96 5 1 183 -33 395 -75z m-3800 -121 c96 -41 261 -88 347 -98 77 -10 121
-36 160 -95 l32 -49 -46 -7 c-80 -12 -241 3 -343 31 -111 31 -245 91 -301 135
l-39 32 0 84 0 84 52 -40 c29 -22 91 -56 138 -77z m3609 -138 c13 -4 21 -8 18
-11 -8 -8 -167 27 -167 37 0 6 31 1 149 -26z m-3669 -35 c14 -8 18 -18 15 -38
-7 -40 -41 -233 -61 -344 -19 -105 -17 -104 -73 -60 l-23 19 52 216 c29 120
56 217 62 217 5 0 18 -5 28 -10z m84 -41 c9 -8 1 -113 -26 -321 l-10 -87 -39
-15 c-22 -9 -42 -16 -44 -16 -10 0 -5 39 32 248 35 201 38 212 58 206 11 -3
24 -10 29 -15z m476 -127 c0 -41 -3 -53 -10 -42 -13 20 -13 113 0 105 6 -3 10
-32 10 -63z m93 -65 c5 -71 6 -131 3 -135 -4 -3 -22 2 -41 11 l-35 17 0 113
c0 63 3 117 7 121 4 4 19 6 33 4 25 -3 25 -4 33 -131z m-223 -141 c0 -171 -4
-267 -10 -271 -6 -4 -31 3 -55 15 -54 26 -51 1 -25 295 11 121 20 221 20 223
0 1 16 2 35 2 l35 0 0 -264z m84 167 c3 -54 9 -165 12 -248 l7 -150 -40 -22
c-23 -13 -43 -23 -47 -23 -8 0 -8 265 1 418 l6 122 27 0 27 0 7 -97z m207 -28
c14 -16 29 -47 32 -68 5 -34 3 -38 -25 -53 -50 -26 -56 -16 -60 96 -3 93 -2
100 12 78 8 -12 27 -36 41 -53z m1579 -55 c-24 -15 -37 -11 -16 5 11 8 22 12
25 9 3 -3 -1 -9 -9 -14z"/>
<path d="M7095 7571 c-3 -6 -17 -8 -29 -5 -29 7 -56 -18 -56 -52 0 -23 63
-104 81 -104 5 0 23 21 40 48 39 61 38 115 -3 120 -14 2 -29 -2 -33 -7z m45
-32 c0 -23 -39 -99 -51 -99 -11 0 -59 60 -59 74 0 6 5 17 12 24 9 9 16 8 29
-4 16 -14 18 -14 29 5 14 27 40 27 40 0z"/>
<path d="M5762 7522 c-71 -26 -118 -66 -156 -132 -72 -128 -19 -273 106 -287
107 -12 198 88 185 204 -7 61 -38 93 -92 93 -49 0 -82 -22 -101 -66 -15 -35
-11 -58 14 -86 30 -35 92 -9 92 38 -1 18 -1 18 -11 2 -17 -30 -46 -40 -63 -22
-23 22 -20 51 9 79 51 52 125 15 125 -62 0 -81 -85 -161 -157 -150 -70 12
-122 91 -108 165 22 117 123 202 239 202 168 0 222 -167 105 -331 -118 -165
-191 -282 -213 -341 -29 -76 -43 -162 -28 -172 6 -3 13 14 17 41 16 108 85
183 168 183 55 0 89 -56 67 -109 -26 -64 -110 -65 -110 -2 0 36 31 59 49 37 6
-7 8 -22 4 -31 -4 -13 -3 -16 5 -11 19 11 14 54 -7 66 -38 20 -71 -12 -71 -68
0 -64 79 -84 131 -33 24 24 29 38 29 76 0 91 -87 134 -169 84 -18 -11 -35 -18
-37 -16 -4 4 71 115 171 255 48 67 68 87 112 108 86 43 154 21 194 -63 38 -79
11 -182 -61 -230 -79 -54 -170 -10 -170 82 0 40 5 52 34 81 35 35 63 42 97 23
62 -33 33 -144 -32 -124 -24 8 -25 50 -1 65 16 10 16 11 -2 8 -29 -5 -42 -32
-30 -65 8 -23 16 -29 46 -31 29 -2 40 2 57 24 23 29 28 83 10 116 -17 32 -74
51 -115 38 -96 -32 -124 -170 -48 -241 21 -20 36 -24 83 -24 47 0 64 5 93 27
50 38 78 101 78 171 0 72 -17 114 -63 154 -45 39 -97 49 -156 28 -24 -8 -45
-15 -46 -15 -2 0 1 17 5 37 19 81 -27 185 -94 217 -56 26 -123 29 -184 8z"/>
<path d="M5515 7479 c-4 -6 -14 -8 -22 -5 -18 7 -43 -10 -43 -29 0 -8 12 -27
26 -45 22 -26 29 -29 42 -18 24 21 42 70 31 90 -11 20 -25 23 -34 7z m11 -53
c-20 -31 -32 -33 -46 -7 -16 30 -12 43 9 36 11 -3 22 -1 26 5 5 8 10 9 18 1 7
-7 5 -18 -7 -35z"/>
<path d="M6817 7427 c-125 -39 -188 -200 -123 -312 71 -120 250 -82 272 57 13
76 -29 138 -93 138 -45 0 -69 -14 -88 -50 -21 -41 -19 -67 10 -95 29 -30 49
-31 75 -5 25 25 27 49 2 27 -52 -47 -101 24 -52 73 29 29 74 26 99 -6 40 -51
14 -133 -54 -168 -35 -18 -41 -18 -79 -5 -55 19 -86 66 -86 131 0 61 18 104
61 144 69 64 154 67 219 8 70 -64 78 -169 21 -289 -51 -110 -19 -97 36 15 37
76 39 185 4 247 -28 49 -64 77 -117 92 -47 13 -58 13 -107 -2z"/>
<path d="M5358 7323 c-9 -10 -21 -28 -27 -40 -10 -19 -15 -21 -38 -12 -41 16
-77 -15 -81 -71 -3 -39 0 -46 45 -89 27 -25 63 -54 81 -64 l31 -18 42 88 c49
103 61 173 34 203 -22 25 -67 26 -87 3z m66 -29 c3 -9 6 -25 6 -35 0 -21 -55
-158 -70 -173 -10 -10 -96 47 -110 75 -6 11 -10 32 -8 47 2 21 9 28 31 30 17
2 36 -3 47 -13 17 -15 18 -15 25 13 12 55 65 92 79 56z"/>
<path d="M6550 7150 c-11 -11 -33 -20 -50 -20 -67 0 -58 -97 12 -140 18 -11
38 -20 44 -20 11 0 56 85 69 128 8 27 -18 72 -40 72 -8 0 -24 -9 -35 -20z m50
-35 c0 -28 -23 -90 -42 -112 -9 -11 -17 -8 -45 19 -35 34 -44 75 -17 85 8 3
20 1 27 -6 15 -15 27 -14 27 2 0 7 5 18 12 25 20 20 38 14 38 -13z"/>
<path d="M5575 7036 c-13 -13 -27 -20 -32 -16 -26 24 -54 21 -84 -10 -31 -31
-35 -59 -15 -110 5 -12 -5 -15 -61 -15 -143 -1 -271 -108 -309 -256 -58 -226
192 -345 306 -145 86 149 -18 315 -148 236 -87 -53 -78 -210 13 -210 31 0 75
41 75 70 0 33 -19 60 -42 60 l-22 0 22 -20 c26 -25 27 -29 6 -58 -44 -64 -110
18 -73 91 32 62 94 74 140 28 24 -25 29 -38 29 -80 0 -63 -13 -98 -52 -138
-41 -43 -87 -58 -131 -44 -128 43 -133 221 -10 347 63 65 120 89 215 89 76 -1
77 -1 129 -45 l52 -44 23 30 c46 56 84 140 84 183 0 74 -65 107 -115 57z m73
-18 c20 -20 14 -63 -19 -124 -47 -92 -48 -92 -106 -36 -61 59 -76 103 -44 135
l21 21 29 -22 c35 -26 41 -27 41 -8 0 16 37 46 55 46 6 0 16 -5 23 -12z"/>
<path d="M5150 7020 c-11 -11 -20 -29 -20 -40 0 -15 -7 -20 -25 -20 -14 0 -29
-8 -35 -21 -28 -50 21 -99 99 -99 38 0 40 2 48 38 14 71 10 132 -11 148 -26
18 -32 18 -56 -6z m48 -60 c5 -72 -3 -90 -43 -90 -40 0 -78 31 -69 55 4 9 18
15 35 15 24 0 29 4 29 23 0 26 19 49 35 44 5 -2 11 -23 13 -47z"/>
<path d="M6912 6968 c-18 -18 -14 -59 9 -98 31 -51 40 -53 77 -17 64 61 67
121 7 115 -19 -1 -37 1 -41 5 -11 11 -39 8 -52 -5z m47 -25 c9 -17 10 -17 29
0 15 14 21 15 29 5 14 -17 2 -47 -30 -77 l-26 -23 -20 33 c-21 35 -26 60 -14
72 11 11 22 8 32 -10z"/>
<path d="M6366 6932 c-3 -6 -24 -8 -45 -5 -34 5 -41 2 -56 -21 -24 -36 -8 -89
40 -136 l35 -34 24 23 c51 48 78 97 74 137 -3 36 -6 39 -35 42 -17 2 -34 -1
-37 -6z m51 -29 c7 -18 -29 -93 -59 -120 -20 -18 -21 -17 -49 17 -19 23 -29
45 -29 67 0 43 26 55 51 25 l17 -22 16 25 c19 29 44 33 53 8z"/>
<path d="M6596 6916 c-172 -64 -213 -330 -62 -405 45 -22 52 -23 95 -12 76 20
122 78 123 155 1 52 -14 81 -53 102 -82 42 -174 -58 -119 -129 24 -30 51 -35
70 -12 11 13 10 14 -4 9 -21 -8 -56 22 -56 48 0 30 46 70 73 63 35 -11 57 -43
57 -87 0 -33 -7 -47 -39 -79 -32 -32 -46 -39 -77 -39 -84 0 -140 70 -132 165
13 152 171 248 286 173 56 -37 77 -86 77 -178 0 -65 -5 -85 -36 -150 -73 -153
-245 -323 -400 -395 -131 -61 -270 -10 -314 114 -41 117 7 246 109 292 120 55
239 -23 239 -156 0 -89 -51 -154 -127 -162 -40 -5 -48 -2 -76 25 -23 24 -30
39 -30 70 0 75 71 121 113 74 31 -34 15 -82 -27 -82 -15 0 -17 -3 -8 -12 17
-17 60 5 72 38 18 45 -9 97 -56 108 -34 9 -92 -20 -109 -55 -33 -63 -10 -155
45 -184 70 -36 157 -7 204 69 24 38 29 58 29 105 0 189 -196 279 -335 153 -53
-48 -80 -104 -86 -178 -14 -174 124 -308 285 -275 77 15 174 70 273 153 92 76
186 128 236 128 63 0 134 -77 134 -145 -1 -76 -60 -145 -125 -145 -93 0 -139
114 -68 170 32 25 54 25 83 2 31 -25 21 -72 -15 -72 -18 0 -25 5 -25 20 0 11
-4 20 -10 20 -16 0 -12 -37 6 -54 51 -52 119 48 70 103 -25 27 -61 34 -100 17
-87 -36 -89 -179 -2 -220 45 -21 71 -20 121 4 68 33 106 122 85 199 -28 105
-139 157 -232 109 -10 -5 -18 -7 -18 -5 0 2 20 35 45 72 116 177 113 373 -7
452 -47 32 -125 40 -182 19z"/>
<path d="M7192 6904 c-40 -28 -22 -154 21 -154 35 0 101 43 111 72 14 40 2 58
-39 58 -19 0 -35 4 -35 10 0 21 -36 29 -58 14z m43 -34 c5 -15 12 -18 34 -14
31 7 45 -5 35 -31 -9 -22 -84 -59 -96 -47 -12 12 -22 77 -15 97 9 21 34 19 42
-5z"/>
<path d="M7446 6863 c-14 -14 -4 -60 19 -88 l25 -30 30 33 c22 24 30 42 28 60
-3 25 -7 27 -49 29 -26 1 -49 -1 -53 -4z m40 -24 c4 -8 9 -8 17 0 16 16 27 13
27 -7 0 -11 -9 -27 -21 -38 -20 -18 -21 -18 -35 1 -16 21 -19 55 -5 55 6 0 13
-5 17 -11z"/>
<path d="M6075 6794 c-19 -19 -19 -55 0 -100 l15 -36 27 17 c40 25 63 54 63
80 0 25 -21 38 -45 29 -8 -4 -15 -2 -15 4 0 18 -29 22 -45 6z m35 -29 c0 -17
16 -20 25 -5 10 17 25 11 25 -9 0 -23 -50 -65 -62 -53 -5 5 -11 25 -15 45 -4
30 -3 37 11 37 9 0 16 -7 16 -15z"/>
<path d="M7585 6757 c-107 -49 -166 -164 -144 -282 5 -27 35 -104 67 -170 l57
-120 0 -95 c0 -87 -3 -100 -30 -149 -95 -172 -322 -243 -442 -138 -88 78 -97
203 -23 320 92 145 288 152 351 13 48 -107 -8 -221 -118 -242 -43 -8 -76 1
-109 29 -38 33 -38 101 0 134 35 30 71 30 91 -1 19 -29 6 -66 -22 -66 -13 0
-14 -3 -6 -11 21 -21 63 16 63 54 0 93 -129 105 -175 17 -49 -95 18 -195 130
-194 107 1 185 75 193 184 20 271 -321 316 -453 60 -12 -23 -20 -64 -23 -120
-4 -79 -2 -89 25 -140 85 -162 319 -165 478 -6 64 64 103 142 111 223 9 81 -5
132 -73 277 -85 178 -83 269 7 350 122 110 300 39 300 -119 0 -92 -50 -155
-122 -155 -78 0 -127 94 -82 158 35 50 111 11 85 -44 -11 -26 -3 -32 17 -12
18 18 14 73 -6 91 -29 26 -88 22 -116 -8 -82 -88 7 -245 126 -221 150 30 180
275 45 364 -48 32 -152 41 -202 19z"/>
<path d="M7002 6730 c-36 -22 -71 -87 -72 -132 0 -47 37 -147 80 -213 62 -95
57 -94 152 -46 144 71 218 155 218 245 0 30 -7 45 -35 73 -33 33 -39 35 -85
31 -28 -3 -59 -13 -70 -23 -18 -16 -19 -16 -34 18 -15 38 -59 67 -98 67 -13 0
-38 -9 -56 -20z m105 -35 c13 -9 27 -34 33 -56 l11 -39 32 24 c44 32 81 40
116 22 31 -17 41 -34 41 -72 0 -59 -60 -124 -180 -194 l-73 -43 -19 24 c-35
45 -90 168 -95 212 -11 98 67 169 134 122z"/>
<path d="M5600 6730 c-8 -5 -23 -11 -32 -14 -25 -8 -22 -38 5 -64 13 -12 26
-22 29 -22 3 0 13 18 23 40 16 35 16 43 4 54 -9 9 -20 11 -29 6z m20 -29 c0
-40 -32 -54 -50 -22 -10 20 -10 20 43 30 4 0 7 -3 7 -8z"/>
<path d="M5818 6580 l-40 -40 -25 20 c-51 40 -124 16 -158 -50 -46 -90 12
-193 163 -287 85 -53 79 -56 157 61 79 119 103 191 85 256 -14 51 -51 80 -103
80 -33 0 -46 -7 -79 -40z m118 -8 c40 -26 41 -98 3 -175 -31 -63 -103 -166
-115 -167 -6 0 -43 22 -82 50 -114 80 -155 178 -97 235 32 32 75 32 113 0 34
-29 42 -31 42 -11 0 8 13 28 29 45 29 31 79 42 107 23z"/>
<path d="M5456 6583 c-6 -16 17 -67 36 -79 15 -10 59 45 56 71 -2 16 -11 20
-45 22 -28 1 -43 -3 -47 -14z m60 -41 c-12 -13 -18 -13 -30 -2 -23 18 -21 43
3 35 11 -3 23 0 27 7 6 10 9 8 12 -6 2 -10 -3 -25 -12 -34z"/>
<path d="M5445 6402 c-12 -12 -4 -61 13 -82 15 -18 22 -21 38 -12 30 16 50 60
38 80 -10 15 -77 26 -89 14z m52 -20 c21 17 29 0 13 -29 -20 -36 -34 -38 -48
-8 -14 30 -6 53 11 36 7 -7 14 -7 24 1z"/>
<path d="M7355 6402 c-20 -20 12 -82 43 -82 21 0 47 50 35 68 -9 16 -66 26
-78 14z m65 -27 c0 -17 -27 -38 -40 -30 -20 13 -11 40 15 41 14 1 25 -4 25
-11z"/>
<path d="M5115 6321 c-39 -8 -44 -40 -12 -77 21 -24 27 -26 40 -16 21 17 40
69 33 87 -6 16 -13 17 -61 6z m20 -21 c9 14 25 13 25 -3 0 -7 -6 -22 -14 -32
-12 -16 -16 -17 -30 -6 -9 7 -16 22 -16 33 0 17 3 18 14 9 10 -8 16 -9 21 -1z"/>
<path d="M5303 6299 c-87 -26 -146 -145 -125 -248 24 -111 99 -182 203 -189
74 -5 130 14 201 70 35 28 49 35 43 22 -4 -10 -9 -50 -12 -89 -3 -60 -1 -76
19 -109 53 -90 164 -101 236 -24 71 77 35 208 -57 208 -54 -1 -91 -38 -91 -93
0 -45 62 -76 89 -43 9 11 6 12 -15 8 -43 -8 -61 49 -26 81 68 61 139 -53 80
-128 -56 -72 -153 -62 -192 20 -57 120 50 284 187 285 91 0 167 -86 167 -189
0 -103 -47 -175 -181 -277 -114 -87 -165 -146 -175 -202 -4 -20 -17 -50 -28
-65 -17 -24 -21 -43 -21 -111 0 -75 3 -86 28 -119 15 -20 54 -55 86 -76 71
-48 107 -90 117 -133 6 -30 7 -31 15 -11 18 50 -13 95 -121 174 -109 79 -136
157 -87 249 43 83 146 107 211 50 106 -94 37 -258 -86 -207 -47 20 -67 66 -44
102 33 50 94 23 82 -36 -5 -27 -4 -30 9 -19 21 18 19 66 -5 90 -45 45 -120 6
-120 -62 0 -138 198 -162 237 -28 16 52 4 120 -26 157 -46 55 -123 77 -187 53
-15 -6 -28 -9 -30 -7 -2 2 9 24 25 48 18 26 72 76 133 122 149 112 198 187
198 301 0 79 -18 126 -64 172 -101 101 -211 79 -406 -81 -86 -70 -164 -90
-238 -60 -78 33 -125 106 -125 195 0 141 131 224 218 139 26 -25 30 -37 30
-84 0 -46 -4 -58 -29 -84 -29 -30 -67 -40 -92 -23 -23 15 -34 50 -25 75 18 46
65 42 74 -6 3 -21 4 -21 12 -3 16 36 -25 73 -69 62 -41 -10 -61 -64 -42 -110
48 -114 206 -45 206 91 0 102 -91 171 -187 142z"/>
<path d="M5946 6252 c-13 -12 -5 -50 15 -68 21 -19 21 -18 40 5 29 36 21 66
-18 68 -17 0 -34 -1 -37 -5z m52 -38 c-13 -29 -24 -30 -37 -5 -12 22 -10 26
22 27 23 2 25 0 15 -22z"/>
<path d="M5545 6229 c-7 -20 6 -49 28 -67 23 -19 63 32 58 75 -1 7 -17 12 -41
11 -29 0 -41 -5 -45 -19z m75 -8 c0 -4 -7 -17 -17 -30 -15 -23 -17 -23 -30 -6
-21 29 -16 42 17 42 17 0 30 -3 30 -6z"/>
<path d="M6061 6072 c-27 -9 3 -92 33 -92 17 0 46 43 46 69 0 14 -8 20 -34 23
-19 2 -39 2 -45 0z m46 -21 c10 9 13 7 13 -9 0 -11 -7 -25 -16 -33 -13 -10
-17 -10 -25 2 -5 8 -9 23 -9 34 0 14 3 16 12 7 8 -8 15 -9 25 -1z"/>
<path d="M6642 6048 c-20 -20 -14 -70 14 -110 15 -21 30 -38 34 -38 18 0 64
46 76 77 21 49 4 77 -41 69 -19 -4 -36 -2 -40 4 -8 14 -28 13 -43 -2z m48 -34
c0 -8 5 -14 10 -14 6 0 10 4 10 9 0 14 33 23 40 10 12 -18 1 -45 -30 -74 l-28
-26 -21 34 c-20 34 -27 68 -15 80 10 9 34 -4 34 -19z"/>
<path d="M6195 5986 c-117 -54 -128 -221 -24 -372 47 -68 128 -154 145 -154 6
0 48 18 93 41 84 42 191 131 216 180 45 86 36 178 -22 229 -46 41 -122 43
-178 5 -20 -15 -38 -25 -39 -23 -1 2 -8 16 -16 31 -31 61 -115 91 -175 63z
m130 -71 c19 -19 36 -48 40 -65 l7 -31 44 41 c37 34 50 40 87 40 82 0 126 -64
104 -152 -14 -60 -117 -160 -216 -212 l-75 -39 -34 39 c-53 61 -112 150 -128
195 -41 117 5 219 100 219 31 0 45 -7 71 -35z"/>
<path d="M6773 5868 c-52 -25 -64 -109 -32 -222 l11 -38 46 6 c97 13 182 75
182 134 0 36 -34 66 -74 66 -20 0 -36 4 -36 8 0 14 -48 58 -62 57 -7 0 -23 -5
-35 -11z m55 -30 c7 -7 12 -25 12 -41 0 -24 3 -28 18 -22 40 17 54 17 72 0 27
-24 25 -41 -8 -75 -33 -33 -137 -69 -153 -53 -5 5 -12 41 -16 79 -5 61 -3 72
17 97 23 29 39 34 58 15z"/>
<path d="M5385 5796 c-14 -10 -25 -11 -46 -3 -56 21 -89 -46 -55 -111 22 -42
82 -96 100 -89 22 9 75 94 82 134 12 62 -36 102 -81 69z m53 -48 c3 -26 -43
-128 -58 -128 -12 0 -69 65 -78 91 -19 49 22 80 52 37 l15 -21 12 27 c17 36
53 32 57 -6z"/>
<path d="M7055 5655 c-35 -34 -33 -86 5 -162 17 -34 37 -66 44 -72 21 -17 127
66 157 124 22 42 23 47 9 73 -17 30 -70 42 -95 22 -10 -8 -19 -5 -39 15 -31
31 -50 32 -81 0z m75 -40 c8 -17 16 -31 16 -33 1 -2 14 9 28 23 49 49 95 11
62 -50 -18 -33 -99 -105 -118 -105 -15 0 -58 103 -58 141 0 63 42 78 70 24z"/>
<path d="M6595 5580 c-10 -17 3 -76 21 -91 12 -10 20 -7 44 16 29 27 39 59 23
68 -21 12 -82 17 -88 7z m35 -21 c0 -6 9 -8 21 -4 16 5 20 3 17 -10 -5 -28
-36 -43 -48 -25 -13 20 -13 50 0 50 6 0 10 -5 10 -11z"/>
<path d="M5920 5553 c-39 -49 -14 -148 58 -233 29 -34 30 -34 58 -20 51 27
122 105 129 141 13 70 -38 125 -93 99 -20 -9 -27 -7 -44 15 -28 36 -79 35
-108 -2z m97 -37 l16 -34 27 20 c22 16 32 18 48 9 49 -26 33 -82 -45 -150
l-47 -42 -18 23 c-30 38 -68 120 -68 146 0 67 59 86 87 28z"/>
<path d="M6835 5551 c-66 -16 -107 -56 -125 -120 -21 -78 32 -161 103 -161 53
0 97 43 97 94 0 64 -65 100 -103 58 -18 -20 -23 -72 -7 -72 6 0 10 11 10 24 0
30 14 40 44 32 49 -12 34 -88 -20 -102 -36 -9 -72 10 -90 50 -36 74 30 166
118 166 108 0 165 -100 119 -206 -27 -60 -54 -90 -106 -117 -93 -48 -172 -16
-228 91 -60 113 -114 152 -210 152 -68 -1 -124 -27 -170 -81 -46 -53 -58 -95
-66 -229 -8 -125 -33 -182 -90 -206 -42 -17 -41 -17 -41 2 0 8 -13 29 -29 45
-39 39 -80 39 -123 0 -31 -28 -33 -33 -33 -98 1 -73 23 -128 89 -223 17 -24
34 -49 38 -54 11 -16 176 101 205 145 49 74 32 169 -32 185 -30 8 -31 15 -4
40 36 32 42 55 49 174 9 153 37 208 129 255 51 26 138 17 185 -19 99 -75 111
-229 26 -311 -42 -40 -132 -48 -185 -15 -39 24 -75 84 -75 125 0 96 101 159
164 103 36 -33 42 -68 16 -101 -12 -15 -29 -27 -39 -27 -28 0 -54 35 -46 62 6
22 6 22 -9 4 -22 -27 -20 -43 9 -71 28 -29 45 -31 84 -11 81 42 58 164 -37
194 -38 13 -46 12 -86 -8 -78 -37 -108 -138 -66 -219 87 -172 326 -129 357 64
l6 35 30 -22 c41 -30 124 -36 182 -14 103 40 172 166 145 266 -14 50 -76 120
-108 120 -11 0 -26 2 -34 4 -7 2 -26 1 -43 -3z m-806 -616 c11 -14 23 -40 26
-56 l7 -31 27 26 c33 31 73 34 101 6 26 -26 25 -69 -3 -111 -26 -38 -144 -132
-160 -126 -6 2 -30 37 -54 79 -52 90 -67 170 -39 213 22 34 67 34 95 0z"/>
<path d="M6065 5241 c-3 -2 -5 -16 -5 -31 0 -26 39 -80 58 -80 16 0 44 52 46
84 1 30 0 31 -47 31 -26 1 -50 -1 -52 -4z m52 -23 c6 15 33 16 33 2 0 -13 -29
-70 -35 -70 -2 0 -13 13 -25 30 -24 33 -19 59 8 38 12 -10 16 -10 19 0z"/>
<path d="M6337 4953 c-22 -21 9 -123 37 -123 8 0 28 12 45 26 48 40 37 107
-14 88 -8 -4 -15 -1 -15 5 0 12 -42 15 -53 4z m47 -30 c5 -12 9 -14 18 -5 17
17 28 15 28 -6 0 -10 -11 -29 -25 -42 -30 -28 -43 -20 -52 33 -4 29 -2 37 10
37 8 0 18 -8 21 -17z"/>
<path d="M3714 6050 c-22 -9 -37 -34 -27 -44 4 -3 29 -6 57 -6 29 0 70 -9 95
-20 59 -27 61 -26 16 20 -22 22 -55 45 -75 50 -40 11 -38 11 -66 0z"/>
<path d="M2170 5861 c0 -6 13 -11 29 -11 17 0 33 -4 36 -10 4 -6 -6 -10 -21
-10 -40 0 -109 -36 -140 -73 -31 -37 -57 -93 -51 -110 2 -7 11 4 19 23 8 19
22 41 32 49 15 13 16 12 6 -13 -16 -44 -12 -146 9 -191 26 -57 60 -83 128
-101 72 -18 126 -8 170 32 l28 25 -40 -20 c-65 -31 -105 -35 -147 -13 -21 11
-38 16 -38 11 0 -20 -38 11 -50 41 -7 16 -18 30 -25 30 -33 0 -32 138 1 202
27 53 60 75 127 84 47 7 106 -16 140 -54 17 -19 18 -22 2 -53 -11 -20 -19 -63
-21 -113 l-3 -81 14 75 c15 78 33 131 48 141 8 6 -55 123 -73 134 -14 9 -12
-2 5 -29 15 -22 14 -22 -42 5 -65 32 -143 48 -143 30z"/>
<path d="M2966 5776 c-47 -44 -76 -109 -75 -171 l0 -50 25 55 c17 37 46 75 91
117 36 34 62 66 59 72 -14 23 -64 11 -100 -23z"/>
<path d="M3784 5785 c-52 -36 -57 -147 -10 -232 14 -25 26 -47 26 -48 0 -1
-23 -5 -50 -8 -74 -9 -167 -58 -225 -118 l-50 -53 51 42 c131 107 327 148 417
89 14 -9 35 -33 48 -54 21 -33 24 -51 24 -128 0 -100 -20 -154 -71 -194 -34
-27 -90 -29 -79 -3 4 9 9 42 10 72 1 36 10 67 24 90 12 19 29 59 37 89 22 74
11 111 -39 129 -33 13 -43 13 -109 -9 -90 -29 -158 -88 -158 -138 0 -59 55
-93 178 -107 51 -7 52 -8 52 -39 0 -91 -51 -159 -155 -210 -98 -49 -251 -32
-309 34 -18 20 -18 22 -1 41 18 19 17 20 -2 20 -27 0 -70 -34 -88 -70 -23 -44
-18 -47 20 -10 28 27 35 30 40 17 4 -8 25 -28 48 -44 22 -15 64 -50 91 -77 88
-85 175 -107 263 -67 53 24 87 76 108 163 16 63 19 67 63 90 37 19 53 36 74
79 68 133 34 289 -77 356 -19 11 -18 14 22 53 30 28 37 40 25 40 -13 0 -18 10
-20 46 -6 115 -110 208 -178 159z m111 -58 c33 -33 55 -88 55 -139 0 -44 -17
-41 -23 5 -10 77 -99 125 -149 80 -17 -15 -18 -15 -18 6 0 81 75 108 135 48z
m-30 -87 c4 -6 1 -18 -6 -26 -11 -13 -14 -13 -27 0 -8 8 -11 19 -8 25 9 14 33
14 41 1z m20 -220 c0 -7 -23 -21 -51 -30 -27 -10 -64 -25 -82 -34 -38 -20 -42
-20 -42 -2 0 18 58 54 113 72 48 14 62 13 62 -6z m-120 -534 c47 -20 44 -40
-11 -66 -57 -28 -114 -23 -180 15 -52 31 -49 38 24 50 34 5 51 2 85 -15 40
-21 41 -21 24 -2 -14 15 -15 21 -5 25 21 9 27 8 63 -7z"/>
<path d="M3113 5539 c-46 -29 -68 -82 -68 -159 0 -46 6 -77 22 -108 l21 -43
-21 -8 c-12 -5 -47 -7 -77 -6 -30 1 -38 0 -17 -2 32 -3 36 -7 27 -18 -10 -13
-5 -13 36 0 62 19 206 19 259 0 51 -19 51 -19 30 5 -10 11 -14 20 -8 20 17 0
33 49 33 104 0 78 -28 154 -72 198 -33 33 -44 38 -85 38 -31 0 -59 -8 -80 -21z
m151 -40 c14 -11 30 -29 36 -38 8 -17 6 -17 -30 -7 -81 21 -146 -42 -137 -133
2 -25 8 -56 12 -68 6 -19 4 -23 -14 -23 -42 0 -75 122 -52 193 7 20 28 50 47
67 43 37 98 41 138 9z m6 -117 c0 -13 -23 -32 -37 -32 -19 0 -27 28 -13 45 9
11 17 12 31 4 10 -5 19 -13 19 -17z"/>
<path d="M3406 5275 c-48 -74 -51 -80 -35 -68 15 12 64 93 56 93 -3 0 -12 -11
-21 -25z"/>
<path d="M2844 5173 c17 -5 16 -7 -10 -29 l-29 -25 31 15 c17 8 36 22 43 30
12 14 9 16 -20 15 -20 -1 -26 -3 -15 -6z"/>
<path d="M3836 4598 c51 -39 59 -64 17 -53 l-26 6 31 -29 c33 -31 43 -58 17
-48 -19 7 -19 -3 1 -29 13 -17 16 -18 24 -5 13 21 12 54 -2 68 -9 9 -9 12 0
12 23 0 12 32 -22 66 -19 19 -42 34 -51 34 -13 0 -10 -6 11 -22z"/>
<path d="M5327 5163 c-4 -3 -38 -14 -75 -24 -55 -14 -61 -17 -32 -18 33 -1
120 31 120 44 0 7 -5 6 -13 -2z"/>
<path d="M3992 4277 c-19 -23 -52 -101 -52 -125 0 -13 -9 -35 -20 -49 -11 -14
-20 -33 -20 -43 0 -26 32 -50 58 -43 12 3 29 0 37 -7 20 -17 62 -5 76 23 6 12
21 29 32 38 17 14 21 30 24 97 3 89 -10 117 -41 86 -10 -9 -18 -15 -19 -13 -1
2 -7 13 -13 24 -13 24 -47 31 -62 12z m48 -26 c0 -10 7 -25 16 -32 14 -11 18
-10 33 10 16 21 19 21 24 6 4 -9 2 -25 -3 -35 -5 -10 -7 -39 -4 -63 6 -38 4
-46 -12 -51 -11 -3 -27 -19 -36 -36 -17 -30 -51 -40 -64 -19 -3 6 -19 9 -35 5
-37 -7 -48 23 -22 62 11 15 25 50 32 77 14 59 36 95 56 95 8 0 15 -8 15 -19z"/>
<path d="M3580 4176 c-17 -21 -3 -119 21 -145 24 -25 41 -26 91 -4 32 14 38
22 38 48 0 37 -25 75 -49 75 -10 0 -26 9 -36 20 -21 24 -48 26 -65 6z m57 -19
c4 -8 22 -20 38 -28 23 -11 31 -22 33 -47 3 -25 -1 -32 -14 -32 -9 0 -22 -8
-29 -17 -12 -16 -14 -16 -39 0 -17 12 -26 27 -27 45 0 15 -4 36 -8 47 -5 11
-6 26 -4 33 7 16 40 15 50 -1z"/>
<path d="M4377 3976 c-98 -36 -87 -86 20 -86 96 0 163 64 92 89 -41 14 -65 13
-112 -3z m121 -20 c15 -15 -31 -40 -82 -44 -69 -6 -93 2 -76 23 24 29 135 43
158 21z"/>
<path d="M4553 3914 c-47 -24 -85 -62 -81 -82 2 -9 16 -23 33 -31 24 -12 37
-12 75 -1 25 7 69 16 99 21 105 15 122 76 25 92 -108 17 -119 17 -151 1z m132
-19 c69 -11 73 -14 46 -36 -13 -11 -39 -19 -60 -19 -21 0 -59 -7 -85 -16 -37
-13 -53 -14 -72 -5 -35 15 -30 28 24 62 35 23 55 29 77 25 17 -3 48 -8 70 -11z"/>
<path d="M4614 3767 c-25 -22 -25 -24 -10 -40 33 -32 127 -13 134 27 8 42 -80
51 -124 13z m106 -7 c0 -25 -91 -42 -105 -20 -3 6 4 14 17 19 31 13 88 13 88
1z"/>
<path d="M4360 3698 c-30 -16 -45 -29 -43 -41 0 -10 -9 -23 -22 -29 -32 -14
-40 -39 -19 -55 26 -19 64 -16 102 7 18 11 57 23 87 26 64 8 115 36 115 64 0
51 -140 68 -220 28z m192 -16 c22 -22 -16 -45 -87 -53 -42 -5 -76 -16 -92 -29
-27 -21 -77 -27 -88 -11 -3 5 8 18 25 27 16 10 30 26 30 35 0 27 66 49 137 46
35 -2 68 -8 75 -15z"/>
<path d="M4192 2799 c-66 -32 -134 -100 -167 -165 -11 -21 -23 -41 -27 -44 -9
-7 -31 -110 -25 -116 3 -3 12 17 22 45 51 155 201 291 321 291 103 0 135 -77
112 -265 l-8 -60 16 40 c10 25 17 73 18 127 1 73 -2 91 -20 115 -50 69 -144
82 -242 32z"/>
<path d="M3926 2396 c-22 -98 -19 -214 9 -270 37 -77 131 -99 223 -52 103 52
236 239 257 361 9 55 -2 40 -39 -53 -90 -223 -281 -369 -380 -291 -54 43 -71
119 -55 254 15 123 7 149 -15 51z"/>
<path d="M4502 3427 c-12 -13 -22 -28 -22 -34 0 -6 -13 -14 -29 -18 -37 -8
-56 -50 -47 -105 3 -22 2 -41 -4 -45 -16 -10 -12 -51 6 -66 13 -11 20 -11 42
2 15 8 32 25 38 38 15 30 32 41 66 41 41 0 91 49 91 88 0 39 -18 62 -49 62
-16 0 -24 6 -24 18 0 20 -18 42 -35 42 -6 0 -21 -10 -33 -23z m50 -24 c2 -22
9 -29 30 -31 14 -2 32 -9 38 -17 24 -29 -23 -95 -68 -95 -35 0 -57 -15 -81
-55 -16 -28 -27 -36 -44 -33 -14 2 -20 9 -18 18 2 8 6 44 9 80 5 71 14 90 44
90 11 0 27 14 39 35 25 42 47 45 51 8z"/>
<path d="M4213 3340 c-73 -32 -153 -42 -244 -30 -91 13 -109 8 -52 -11 91 -31
258 -10 323 41 31 24 27 24 -27 0z"/>
<path d="M3804 3272 c3 -5 26 -15 51 -21 24 -6 96 -34 159 -61 63 -28 118 -50
123 -50 14 0 -139 82 -197 106 -64 25 -146 41 -136 26z"/>
<path d="M3486 3131 c-4 -6 1 -26 11 -44 16 -26 25 -32 54 -32 29 0 34 4 37
26 2 14 -4 31 -12 38 -21 17 -82 26 -90 12z m78 -33 c8 -13 7 -21 -1 -29 -14
-14 -37 0 -54 33 -9 17 -7 19 17 16 15 -2 32 -11 38 -20z"/>
<path d="M3341 3102 c-11 -21 12 -119 34 -141 8 -9 30 -17 47 -18 18 -2 49 -6
70 -9 30 -5 38 -3 48 15 16 31 3 61 -34 76 -17 7 -46 32 -64 54 -37 46 -83 56
-101 23z m80 -24 c16 -18 29 -35 29 -39 0 -4 16 -14 36 -24 42 -20 53 -41 32
-62 -14 -13 -19 -13 -47 2 -17 8 -36 13 -41 10 -6 -4 -19 -4 -30 0 -26 8 -57
110 -39 131 17 21 27 18 60 -18z"/>
<path d="M5049 3050 c-56 -29 -125 -104 -154 -166 -36 -76 -26 -91 14 -20 64
114 154 186 232 186 40 0 52 -7 68 -37 13 -25 14 -132 2 -185 -5 -21 -5 -38
-1 -38 15 0 33 106 28 170 -4 53 -9 67 -32 87 -34 29 -105 31 -157 3z"/>
<path d="M4811 2749 c-79 -189 -90 -322 -31 -381 72 -72 205 -4 315 162 50 75
62 100 47 100 -6 0 -22 -20 -36 -45 -73 -123 -187 -225 -253 -225 -97 0 -110
132 -33 354 22 66 39 124 37 129 -2 6 -23 -37 -46 -94z"/>
<path d="M5175 2725 c-8 -21 -13 -40 -10 -43 2 -3 12 12 20 33 9 20 14 39 11
42 -3 3 -12 -12 -21 -32z"/>
<path d="M1718 3080 c-257 -41 -368 -129 -298 -235 12 -18 20 -47 20 -72 0
-35 -8 -53 -48 -105 -111 -147 -129 -292 -40 -329 15 -6 43 -9 61 -5 76 14 71
17 79 -58 5 -45 5 -73 -2 -80 -5 -5 -10 -23 -10 -40 0 -63 106 -129 260 -162
75 -16 258 -18 345 -4 198 32 326 119 285 194 -11 21 -9 60 8 248 12 123 25
261 28 308 5 60 12 92 25 109 25 31 24 91 0 123 -25 31 -117 73 -207 93 -81
19 -418 29 -506 15z m477 -35 c111 -24 163 -44 200 -80 19 -18 35 -42 35 -53
0 -25 -38 -71 -79 -95 -47 -27 -41 3 7 34 28 18 38 32 40 56 9 89 -172 145
-468 146 -284 0 -480 -59 -480 -145 0 -10 11 -29 25 -42 23 -21 33 -46 20 -46
-17 0 -55 35 -65 61 -46 111 206 194 555 183 77 -2 171 -11 210 -19z m25 -39
c121 -31 168 -64 155 -106 -9 -28 -31 -31 -78 -10 -93 41 -174 54 -352 54
-182 1 -292 -15 -388 -56 l-48 -21 -21 20 c-16 16 -18 25 -9 41 19 35 140 80
261 95 83 11 416 -1 480 -17z m-49 -101 c80 -16 129 -33 129 -44 0 -4 -44 -18
-97 -32 -88 -21 -118 -24 -293 -23 -169 0 -206 3 -274 22 -114 32 -114 33 0
62 164 42 378 48 535 15z m-564 -91 c32 -9 88 -22 127 -28 41 -7 72 -18 74
-26 5 -13 -13 -12 -118 6 -52 9 -87 -22 -95 -84 -11 -83 -15 -94 -33 -90 -14
3 -18 19 -24 93 -3 50 -9 105 -13 124 -7 29 -5 33 9 28 9 -4 42 -14 73 -23z
m691 -6 c2 -12 -11 -24 -44 -40 -67 -33 -77 -66 -69 -228 6 -102 4 -133 -8
-163 -20 -48 -44 -47 -64 1 -13 31 -14 52 -5 134 11 105 6 145 -22 162 -14 9
-22 6 -41 -16 -27 -31 -50 -36 -59 -12 -11 29 -49 12 -59 -26 -19 -77 -43 -64
-58 31 -6 35 -17 74 -25 86 -8 12 -14 26 -14 31 0 5 73 12 163 15 133 4 171 9
212 26 58 24 88 23 93 -1z m-778 -124 c5 -95 12 -114 37 -114 31 0 53 31 53
74 0 74 36 111 90 95 21 -6 22 -7 4 -8 -11 -1 -33 -14 -48 -30 -25 -26 -28
-36 -24 -75 5 -43 4 -45 -58 -107 -35 -35 -66 -60 -69 -57 -7 6 -34 253 -35
307 0 32 1 33 23 19 19 -14 23 -26 27 -104z m865 94 c-2 -13 -16 -153 -31
-313 l-26 -290 -31 -27 c-62 -55 -208 -89 -382 -89 -166 0 -315 40 -367 98
-11 12 -21 51 -29 113 l-11 95 43 35 c24 19 65 56 90 82 38 39 53 48 81 48 44
0 74 22 88 66 15 44 6 79 -27 110 -28 26 -16 32 31 15 20 -8 26 -19 31 -58 12
-88 33 -121 70 -107 8 3 20 24 26 45 7 21 14 39 16 39 1 0 12 -9 23 -20 27
-27 36 -25 69 11 16 17 31 26 35 21 3 -6 5 -70 4 -144 -3 -115 0 -138 15 -161
26 -40 66 -34 90 13 16 30 18 51 13 152 -7 136 6 218 35 225 10 3 44 18 76 33
72 35 75 35 68 8z m-615 -90 c27 -29 27 -91 0 -118 -18 -18 -60 -28 -60 -15 0
3 9 15 20 27 28 30 26 75 -2 84 -16 5 -27 0 -44 -20 -13 -14 -26 -26 -29 -26
-13 0 -3 40 16 64 26 33 70 35 99 4z m-364 -70 c-78 -126 -84 -228 -13 -236
59 -7 220 117 292 226 15 23 32 42 36 42 58 0 -145 -218 -254 -274 -65 -32
-91 -33 -122 -1 -49 48 -23 165 65 283 49 68 47 41 -4 -40z m58 -55 c10 -126
9 -131 -24 -148 -41 -21 -59 -19 -72 10 -8 19 -8 35 1 67 15 49 68 148 80 148
5 0 11 -34 15 -77z m151 -473 c92 -42 165 -55 320 -54 186 1 315 34 387 102
32 30 45 26 22 -7 -52 -74 -215 -121 -418 -122 -191 0 -342 42 -401 112 -34
41 -32 59 3 24 15 -16 54 -40 87 -55z"/>
<path d="M1815 2417 c-22 -34 -35 -84 -35 -135 0 -56 38 -99 70 -82 43 23 50
111 15 194 -20 46 -31 51 -50 23z m52 -110 c4 -42 1 -57 -14 -76 -18 -23 -20
-23 -37 -5 -15 14 -17 29 -13 73 2 31 10 70 16 86 l13 30 15 -28 c8 -16 17
-52 20 -80z"/>
<path d="M5593 2309 c-21 -11 -83 -26 -138 -35 -55 -8 -182 -28 -282 -44 -101
-17 -198 -30 -216 -30 -48 0 -117 -39 -154 -87 -82 -109 -63 -345 41 -513 l35
-55 -49 -22 c-26 -11 -53 -29 -58 -40 -6 -10 -30 -24 -54 -30 -95 -25 -128
-86 -65 -120 25 -14 54 -17 127 -16 196 2 385 13 417 24 43 14 53 46 22 70
-13 10 -21 21 -17 24 7 8 327 124 341 125 4 0 7 -9 7 -21 0 -63 99 -203 170
-239 65 -33 93 -33 161 -4 163 68 336 134 356 134 29 0 59 45 73 106 23 100
-23 227 -104 289 -31 23 -41 26 -78 20 -24 -3 -78 -9 -121 -11 -76 -5 -79 -5
-72 15 10 33 -12 164 -40 233 -46 116 -140 211 -234 238 -23 6 -39 4 -68 -11z
m99 -30 c123 -63 230 -271 216 -420 -6 -60 -23 -36 -30 42 -15 166 -112 328
-225 375 -18 8 -33 16 -33 19 0 11 33 4 72 -16z m-33 -29 c106 -53 209 -252
199 -382 l-3 -43 -85 -1 c-119 -1 -116 0 -160 -40 -41 -37 -70 -106 -70 -165
0 -25 -7 -29 -107 -64 -60 -21 -123 -44 -142 -51 -30 -13 -33 -12 -26 4 13 34
35 127 35 149 0 13 4 23 10 23 5 0 19 10 31 23 18 19 20 30 15 88 l-6 65 33
15 c44 19 51 64 12 79 -32 12 -55 13 -55 1 0 -5 14 -11 30 -14 40 -9 39 -34
-4 -52 -39 -17 -49 -36 -36 -71 16 -40 12 -79 -9 -98 -19 -17 -20 -17 -26 21
-16 104 -30 152 -71 232 -42 84 -97 149 -164 192 -24 16 -23 16 65 33 110 20
135 20 135 2 0 -18 22 -26 73 -26 l42 -1 -24 -19 c-13 -11 -36 -20 -51 -20
-15 0 -38 -9 -51 -19 -20 -16 -22 -23 -13 -38 22 -36 143 -23 182 21 44 48 34
71 -36 82 -60 9 -40 27 25 22 67 -6 107 -33 111 -76 3 -26 -5 -39 -44 -77 -54
-51 -53 -71 1 -28 63 48 81 106 49 152 -33 47 -135 66 -193 37 -15 -8 -33 -11
-40 -7 -23 15 -25 15 279 64 46 8 51 7 89 -13z m-632 -105 c171 -86 284 -373
226 -578 -18 -64 -70 -129 -101 -126 -9 1 -21 1 -26 0 -13 -2 15 -31 30 -31 7
0 25 -5 40 -10 26 -10 26 -12 11 -28 -14 -13 -48 -18 -179 -24 -90 -4 -184
-10 -209 -14 -54 -8 -152 11 -170 33 -11 13 -10 18 9 33 12 10 45 24 73 31 36
9 54 20 59 35 10 25 74 53 141 61 45 5 56 2 124 -34 67 -36 72 -37 109 -14
109 68 109 312 0 492 -39 65 -111 134 -159 155 -107 44 -190 -28 -202 -176
-10 -116 23 -238 94 -346 39 -60 42 -76 9 -45 -14 13 -41 55 -60 95 -87 175
-88 383 -4 462 66 62 105 68 185 29z m393 -9 c0 -34 -54 -66 -112 -66 -25 0
-48 3 -51 7 -13 12 15 33 44 33 15 0 40 11 56 25 37 32 63 33 63 1z m-427 -36
c4 -4 3 -37 -4 -73 -21 -113 19 -264 95 -366 l26 -35 -56 -17 c-30 -10 -64
-25 -75 -35 -23 -21 -26 -18 -74 61 -105 175 -106 418 -2 468 30 15 72 14 90
-3z m90 -69 c83 -88 136 -229 137 -358 l0 -53 -39 0 c-33 0 -44 6 -69 38 -64
82 -105 196 -106 297 0 75 9 125 23 125 4 0 29 -22 54 -49z m1107 -225 c91
-62 132 -254 70 -328 l-20 -23 15 37 c41 103 -5 262 -93 320 -15 10 -22 18
-17 18 6 0 26 -11 45 -24z m-38 -14 c84 -55 122 -191 82 -291 -11 -28 -25 -43
-52 -54 -48 -21 -241 -97 -246 -97 -2 0 3 21 11 48 33 107 -5 255 -87 344 -28
29 -50 53 -50 55 0 3 116 8 230 11 67 1 91 -2 112 -16z m-383 -12 c53 -27 116
-102 141 -166 43 -116 18 -264 -51 -299 -156 -81 -356 220 -268 403 38 77 104
100 178 62z m-559 -191 c0 -34 -55 -99 -84 -99 -29 -1 -135 52 -136 68 0 6 1
12 3 12 1 0 20 7 42 15 47 17 175 20 175 4z"/>
<path d="M5630 1752 c-92 -93 -41 -321 91 -409 103 -68 199 1 199 143 0 105
-72 239 -151 279 -48 25 -106 19 -139 -13z m135 -16 c76 -45 125 -144 126
-253 1 -69 -14 -107 -51 -135 -36 -26 -90 -9 -146 48 -53 55 -84 133 -84 214
0 67 10 100 40 130 27 27 64 25 115 -4z"/>
<path d="M4338 1489 c-35 -13 -47 -48 -22 -66 22 -16 127 -16 174 1 45 16 53
51 15 66 -33 13 -131 12 -167 -1z m156 -15 c26 -10 18 -22 -21 -33 -91 -26
-203 -1 -130 29 25 10 128 13 151 4z"/>
<path d="M6425 1396 c-118 -19 -184 -43 -198 -73 -10 -22 -8 -28 11 -43 12
-10 55 -23 94 -29 40 -7 124 -23 187 -37 137 -30 287 -33 370 -8 52 15 111 60
111 84 0 24 -59 69 -111 84 -122 37 -310 46 -464 22z m410 -31 c108 -23 157
-62 125 -100 -7 -8 -42 -24 -77 -35 -86 -27 -211 -26 -322 0 -47 11 -128 27
-180 36 -83 13 -141 33 -141 49 0 10 59 34 115 45 150 31 344 33 480 5z"/>
</g>
</svg>
