<?xml version="1.0" standalone="no"?>
<!DOCTYPE svg PUBLIC "-//W3C//DTD SVG 20010904//EN"
 "http://www.w3.org/TR/2001/REC-SVG-20010904/DTD/svg10.dtd">
<svg version="1.0" xmlns="http://www.w3.org/2000/svg"
 width="1024.000000pt" height="1024.000000pt" viewBox="0 0 1024.000000 1024.000000"
 preserveAspectRatio="xMidYMid meet">
<metadata>
Created by potrace 1.16, written by Peter Selinger 2001-2019
</metadata>
<g transform="translate(0.000000,1024.000000) scale(0.100000,-0.100000)"
fill="#000000" stroke="none">
<path d="M1080 5120 l0 -4040 4040 0 4040 0 0 4034 c0 3669 -1 4034 -16 4040
-9 3 -1827 6 -4040 6 l-4024 0 0 -4040z m906 3778 c-5 -138 -11 -224 -18 -227
-6 -2 -6 -6 -2 -10 5 -3 8 -39 6 -78 l-4 -73 -41 -11 c-23 -6 -71 -24 -106
-40 -35 -16 -69 -29 -76 -29 -7 0 -48 17 -91 38 -72 34 -86 37 -164 37 -64 0
-100 -6 -143 -23 -81 -31 -95 -29 -103 13 -3 20 -8 34 -11 31 -2 -2 -1 -20 2
-40 9 -45 23 -46 136 -10 109 34 177 31 277 -15 39 -19 72 -37 72 -41 0 -4
-22 -17 -49 -29 -45 -19 -52 -20 -85 -6 -19 8 -48 15 -63 14 -21 -1 -18 -3 15
-10 60 -12 69 -19 41 -36 l-24 -14 25 7 c14 4 81 31 148 61 105 46 225 93 239
93 4 0 -3 -141 -13 -277 l-6 -73 -71 0 c-40 0 -182 5 -316 12 l-245 12 54 48
c29 26 81 62 116 80 35 18 61 34 59 36 -9 10 -135 -69 -187 -116 l-57 -53 -93
8 -93 8 0 130 0 130 60 -1 c56 -1 58 -1 26 9 -20 6 -42 25 -57 47 -27 41 -28
47 -25 295 0 77 -2 175 -5 217 -4 42 -4 84 -1 93 6 13 58 15 443 15 l437 0 -7
-222z m94 180 c0 -71 -30 -787 -36 -866 l-6 -73 -36 3 -37 3 3 65 c1 36 9 202
17 370 8 168 15 348 15 400 0 129 4 140 46 140 33 0 34 -1 34 -42z m226 -60
c-8 -126 -23 -520 -31 -763 -3 -99 -13 -222 -22 -272 l-15 -93 -87 0 c-214 1
-1025 30 -1032 37 -5 5 -6 60 -2 122 l6 114 141 -6 c78 -4 285 -12 461 -18
l320 -11 90 -92 c50 -51 79 -79 65 -62 -13 17 -52 60 -86 96 l-61 65 12 265
c7 146 16 367 20 493 l8 227 109 0 109 0 -5 -102z m184 -248 c0 -312 -2 -350
-16 -350 -8 0 -29 -13 -45 -29 -33 -33 -38 -75 -15 -119 14 -27 12 -29 -60
-104 l-74 -78 5 68 c9 105 35 762 35 868 l0 94 85 0 85 0 0 -350z m282 -142
l3 -493 2 493 3 492 190 0 190 0 0 -461 0 -461 -30 5 c-21 5 -32 2 -38 -9 -8
-14 -16 -15 -68 -4 -102 21 -231 -3 -218 -42 4 -13 0 -18 -13 -18 -10 0 -36
-9 -58 -19 l-40 -18 -73 78 -73 78 17 32 c22 44 5 104 -37 127 l-29 17 0 348
0 347 135 0 135 0 2 -492z m598 -64 l0 -557 -39 50 c-22 27 -67 68 -100 92
l-61 42 0 465 0 464 100 0 100 0 0 -556z m139 19 l0 -538 -56 -44 c-43 -33
-57 -40 -64 -30 -5 8 -9 269 -9 582 l0 567 65 0 65 0 -1 -537z m382 524 c0 -9
2 -8 6 1 3 8 32 12 96 11 103 -1 89 -7 -68 -30 -49 -7 -82 -14 -73 -17 10 -2
86 8 170 22 113 19 189 26 291 26 l137 0 0 -32 c0 -17 3 -28 8 -24 7 8 8 13
11 41 1 12 19 15 101 15 73 0 100 -3 101 -12 0 -10 2 -10 6 0 3 9 40 12 135
12 72 0 129 -2 127 -5 -3 -2 -56 -11 -119 -20 -63 -8 -140 -20 -170 -25 -30
-5 -78 -12 -105 -15 -73 -9 -71 -9 -414 -59 -173 -25 -316 -44 -318 -42 -10
10 -4 88 7 101 8 10 9 15 1 15 -13 0 -23 -38 -25 -89 l-1 -36 -112 -15 c-62
-9 -115 -19 -119 -23 -4 -3 9 -4 27 -1 278 40 870 126 1144 165 l350 50 403
-2 402 -2 0 -54 0 -55 -32 9 c-54 13 -183 10 -201 -6 -10 -8 -17 -28 -17 -51
l0 -37 -60 10 c-33 5 -62 8 -63 6 -1 -2 0 -78 3 -169 l5 -165 5 160 5 160 35
-3 c76 -7 70 15 70 -269 0 -140 -3 -253 -7 -251 -5 2 -29 14 -55 26 l-48 21
-2 68 -2 68 -3 -67 c-2 -38 -7 -68 -10 -68 -3 0 -17 12 -30 26 -22 24 -29 26
-88 22 l-65 -4 -3 191 -2 190 -3 -197 c-2 -191 -3 -197 -23 -203 -13 -4 -24
-2 -29 4 -5 9 -14 9 -34 1 -15 -5 -29 -10 -32 -10 -2 0 -5 30 -6 68 l-2 67 -3
-67 -4 -68 -72 -72 -72 -73 2 75 1 75 -8 -87 c-9 -92 -35 -178 -54 -178 -35 1
-36 11 -29 273 3 141 9 257 13 257 4 0 21 -5 39 -11 18 -6 34 -9 37 -6 3 3
-19 12 -49 21 -63 18 -150 21 -210 5 l-42 -10 2 -146 c1 -80 -1 -151 -4 -157
-4 -5 -23 39 -44 99 -21 61 -38 105 -38 100 -1 -6 17 -65 39 -130 27 -80 40
-137 40 -172 l0 -54 -67 7 c-38 4 -71 10 -76 13 -4 4 -27 65 -51 137 -25 71
-45 124 -45 119 -1 -6 17 -64 38 -130 21 -66 38 -121 37 -121 0 -1 -43 -4 -94
-5 -89 -4 -92 -3 -92 18 0 20 -4 22 -65 18 -36 -2 -81 -9 -101 -15 -19 -7 -37
-10 -40 -8 -2 3 -28 76 -58 164 l-55 159 32 28 c38 34 116 81 123 75 2 -3 34
-91 71 -197 36 -105 68 -190 70 -188 2 2 -26 89 -62 192 -36 104 -65 192 -65
195 0 4 44 1 98 -7 53 -7 111 -12 127 -11 17 2 -28 10 -100 19 -91 11 -139 13
-159 6 -19 -7 -55 -6 -110 2 -44 6 -92 10 -106 10 -14 -1 17 -8 69 -15 52 -8
97 -16 100 -19 11 -12 -22 -22 -62 -20 -32 2 -34 1 -7 -2 l35 -5 -34 -27 -33
-27 57 -168 c48 -139 56 -169 44 -177 -21 -13 -39 -11 -39 6 0 8 -6 15 -13 15
-13 0 -137 337 -137 373 0 13 9 17 38 18 l37 1 -45 9 c-45 9 -154 -4 -175 -21
-5 -4 -40 -11 -77 -15 -37 -4 -74 -12 -82 -19 -14 -10 -14 -39 -6 -231 5 -121
12 -237 14 -258 l4 -38 -71 -37 c-40 -20 -75 -38 -79 -40 -5 -2 -8 235 -8 527
l0 531 185 0 c135 -1 185 -4 186 -13z m2159 -1402 c0 -778 -2 -1415 -5 -1415
-2 0 -21 11 -41 25 -20 13 -52 27 -71 31 l-36 7 7 106 c4 58 11 108 16 109 15
5 12 74 -5 122 -13 37 -15 201 -15 1236 l0 1194 75 0 75 0 0 -1415z m440 -95
l0 -1510 -23 -9 c-50 -19 -169 -31 -255 -25 l-90 7 -6 50 c-3 28 -17 74 -31
102 l-25 52 0 1421 0 1422 215 0 215 0 0 -1510z m255 1473 c-15 -116 -38 -566
-45 -888 -4 -203 -13 -392 -18 -420 -15 -69 -14 -145 1 -175 10 -21 8 -56 -14
-215 -15 -104 -36 -284 -48 -400 -24 -228 -49 -793 -38 -837 8 -32 37 -50 92
-57 35 -5 40 -10 43 -34 5 -44 40 -60 121 -55 56 3 75 9 105 31 25 19 36 36
36 54 0 24 2 25 43 19 23 -3 175 -17 337 -31 162 -13 480 -40 705 -60 226 -19
518 -44 650 -54 199 -16 249 -23 293 -42 48 -21 52 -25 52 -58 0 -36 23 -71
47 -71 10 0 13 -37 13 -190 l0 -189 -27 4 c-16 3 -127 16 -248 30 -121 13
-474 54 -785 90 -311 36 -740 85 -955 110 -214 24 -416 47 -448 51 l-58 7 -33
67 c-47 96 -119 184 -189 230 -33 22 -64 40 -71 41 -25 1 33 17 88 24 32 4 70
12 83 18 l23 10 0 1514 0 1513 125 0 125 0 -5 -37z m539 10 c-15 -69 -88 -334
-129 -469 -58 -190 -59 -193 -46 -173 14 22 134 422 166 557 l28 112 208 0
209 0 -6 -27 c-138 -590 -327 -991 -647 -1370 -56 -68 -74 -83 -97 -83 -62 0
-62 7 4 98 87 122 138 206 204 335 67 130 146 307 140 313 -3 2 -22 -35 -42
-84 -97 -225 -345 -642 -382 -642 -18 0 -64 29 -64 41 0 5 34 95 76 200 41
105 73 193 71 195 -3 3 -40 -83 -82 -191 -43 -107 -82 -195 -87 -195 -13 0
-10 54 12 199 11 74 18 136 16 138 -6 6 -36 -164 -43 -241 -6 -72 -14 -77 -47
-32 -20 27 -21 39 -20 369 0 296 25 881 40 955 l4 22 260 0 260 0 -6 -27z
m916 -572 l0 -599 -57 -5 c-32 -2 -129 -5 -217 -5 -87 -1 -161 -4 -164 -7 -3
-3 -72 -5 -153 -5 -137 0 -148 1 -142 18 5 14 4 14 -9 -2 -13 -16 -32 -20
-123 -24 -61 -3 -106 -1 -104 4 2 5 34 54 71 110 74 110 177 302 232 430 65
154 151 433 200 657 l6 27 230 0 229 0 1 -599z m150 -869 c0 -808 -2 -1471 -4
-1473 -2 -2 -34 -2 -70 -1 l-66 4 0 1469 0 1469 70 0 70 0 0 -1468z m48 858
c3 -587 3 -590 -18 -590 -20 0 -20 4 -20 593 0 327 3 597 7 601 25 24 28 -41
31 -604z m340 515 c69 -274 188 -673 198 -663 2 3 -5 31 -17 64 -46 133 -189
649 -189 683 0 7 64 11 195 11 l195 0 0 -635 c0 -349 -2 -635 -5 -635 -19 0
-214 372 -290 553 -15 37 -30 66 -32 63 -14 -13 191 -435 277 -571 49 -77 50
-81 50 -155 l-1 -75 -22 26 c-12 14 -49 58 -83 96 -238 274 -440 688 -570
1168 -19 71 -37 138 -40 148 -5 16 5 17 153 15 l158 -3 23 -90z m-2949 -397
c0 -361 -1 -391 -16 -370 -13 18 -16 55 -16 195 l-1 172 -3 -162 c-2 -90 -5
-163 -7 -163 -2 0 -25 21 -50 47 l-47 47 2 261 c2 143 5 281 7 307 4 51 7 53
95 57 l37 1 -1 -392z m99 323 c2 -23 -2 -49 -9 -57 -8 -10 -8 -14 0 -14 8 0
11 -94 11 -335 l0 -335 -45 0 -45 0 0 404 0 405 43 -13 c40 -11 42 -14 45 -55z
m2582 -154 c87 -292 208 -567 330 -756 33 -51 59 -95 57 -97 -2 -3 -53 -6
-113 -9 -60 -3 -160 -7 -221 -10 l-113 -5 1 533 c0 292 2 528 4 522 3 -5 27
-85 55 -178z m-3524 -304 c-4 -141 -8 -258 -10 -260 -2 -2 -43 7 -92 20 l-89
24 3 224 c2 123 7 227 10 231 10 10 49 15 121 17 l64 1 -7 -257z m-982 181 c3
-26 7 -65 7 -88 1 -38 2 -39 8 -11 6 26 13 12 54 -110 26 -77 47 -143 47 -147
0 -5 -66 -48 -75 -48 -2 0 -6 30 -8 68 l-3 67 -2 -71 c-2 -75 -9 -87 -66 -107
-15 -6 -17 -4 -12 18 7 27 -3 32 -34 15 -23 -12 -25 1 -40 234 -14 224 -19
202 43 213 28 6 57 11 63 12 6 0 14 -20 18 -45z m-143 -26 c0 -18 6 -113 12
-211 7 -98 9 -184 4 -193 -11 -19 -139 -105 -146 -98 -10 10 -29 498 -20 508
9 10 69 23 117 25 30 1 32 -1 33 -31z m-2672 -186 c-5 -2 -16 -1 -24 1 -11 5
-12 14 -6 46 1 2 10 -7 20 -20 11 -13 15 -26 10 -27z m4272 -11 l-23 -18 50
-6 c137 -16 299 -161 372 -332 21 -48 20 -51 -12 -34 -18 10 -20 9 -14 -7 24
-60 37 -141 31 -183 -14 -95 -107 -244 -174 -281 -17 -9 -24 -1 -59 69 l-41
79 26 23 c42 40 57 79 57 151 0 68 -20 115 -53 126 -8 3 -3 -10 10 -27 19 -26
23 -43 22 -100 -1 -70 -16 -112 -50 -144 -19 -17 -22 -14 -87 73 -36 49 -96
115 -131 146 -36 32 -65 61 -65 66 0 4 15 25 34 45 31 35 39 38 92 40 61 3
135 -14 115 -26 -6 -4 4 -12 24 -20 19 -6 44 -24 55 -38 14 -18 20 -21 20 -10
0 24 -55 82 -94 101 -19 9 -56 16 -83 16 l-48 1 24 19 c13 12 18 20 10 20 -32
-1 -97 -40 -137 -83 -23 -26 -45 -47 -48 -47 -3 0 -24 13 -47 29 -23 15 -67
41 -97 56 -30 15 -57 29 -59 31 -2 2 12 37 33 78 46 95 184 227 161 156 -6
-18 -2 -18 45 7 45 23 98 38 150 42 10 0 6 -6 -9 -18z m-2884 -63 c31 -34 35
-69 14 -111 l-18 -36 49 -48 49 -48 -133 -5 -133 -6 134 -2 c122 -2 137 -4
157 -23 l23 -22 -39 -28 c-41 -30 -65 -63 -55 -79 3 -5 -16 -29 -42 -54 l-48
-44 -10 51 c-6 29 -17 62 -25 75 -17 26 -56 39 -78 25 -45 -28 -76 -168 -70
-313 l3 -75 47 -3 c41 -3 49 -7 54 -27 8 -32 1 -60 -14 -59 -6 1 -46 2 -89 3
l-76 1 6 158 c7 164 32 313 62 372 10 19 46 61 80 93 l63 59 -20 34 c-50 85
45 182 109 112z m1753 -119 l-35 -30 40 8 c22 4 105 8 185 7 156 -1 266 -17
410 -61 347 -104 601 -349 728 -703 43 -121 58 -177 86 -335 33 -181 48 -224
102 -284 24 -27 44 -51 44 -54 0 -2 -12 -2 -27 1 -27 5 -27 4 -11 -14 20 -23
78 -144 78 -163 0 -12 -3 -12 -12 -3 -21 21 -23 14 -20 -68 3 -53 -2 -104 -13
-151 -17 -67 -19 -71 -61 -91 -57 -27 -119 -97 -139 -159 -18 -53 -23 -56 -63
-35 -56 29 -146 30 -213 2 -11 -5 -7 12 17 61 45 91 64 171 64 268 0 127 -37
229 -112 311 l-41 44 33 0 c102 0 185 124 159 240 -21 94 -83 150 -167 150
-117 0 -190 -160 -132 -289 18 -39 19 -42 2 -36 -182 80 -372 72 -567 -24 -44
-22 -98 -56 -120 -75 l-40 -36 40 26 c139 91 277 134 430 135 127 1 164 -6
245 -44 167 -78 263 -254 247 -455 -9 -105 -40 -191 -105 -286 -30 -45 -60
-93 -66 -107 -14 -33 -95 -103 -154 -133 -26 -13 -85 -36 -132 -52 -75 -24
-100 -27 -210 -27 -198 -1 -329 44 -437 150 -140 136 -161 336 -57 548 19 39
27 61 18 50 -27 -33 -81 -157 -94 -216 -7 -30 -11 -89 -9 -130 4 -62 11 -89
42 -151 65 -132 178 -214 359 -260 108 -27 316 -22 420 11 65 21 158 76 210
124 l26 24 6 -47 c3 -25 20 -68 36 -94 17 -25 30 -48 30 -50 0 -7 -192 -88
-276 -116 -91 -31 -244 -65 -364 -80 -70 -8 -67 -9 40 -5 185 8 405 59 562
132 l77 36 58 -44 c76 -58 239 -140 336 -170 69 -21 77 -26 72 -44 -12 -42
-17 -153 -8 -170 8 -13 11 -1 16 51 3 38 11 83 17 100 11 30 12 31 53 21 37
-9 45 -16 66 -59 13 -27 48 -75 78 -106 l55 -57 -31 47 c-43 65 -101 188 -101
214 0 25 23 47 65 63 l30 11 -34 -5 c-19 -3 -43 -13 -53 -21 -16 -16 -18 -15
-29 12 -7 16 -13 72 -13 124 -1 112 10 137 76 171 36 18 54 21 127 17 71 -4
97 -10 151 -37 36 -17 56 -25 45 -16 -33 27 -89 53 -141 66 -27 7 -58 16 -69
22 -18 9 -19 9 -6 -6 12 -15 9 -17 -33 -17 -28 0 -64 -9 -87 -21 l-41 -20 7
23 c16 52 55 96 109 123 111 54 245 18 360 -97 152 -152 217 -410 167 -658
-21 -99 -74 -234 -114 -285 -15 -19 -16 -16 -12 35 l4 55 -9 -45 c-6 -25 -8
-51 -5 -58 3 -7 0 -18 -5 -25 -119 -148 -160 -190 -167 -170 -3 9 -17 4 -46
-15 -58 -40 -110 -58 -197 -71 -74 -11 -184 -2 -200 16 -4 5 -24 58 -44 118
-67 196 -165 436 -255 620 -100 203 -161 295 -77 115 140 -302 347 -892 406
-1156 27 -124 27 -129 -15 -141 l-35 -11 0 37 c0 48 -47 276 -66 315 -11 25
-13 26 -8 6 33 -144 60 -303 56 -331 -2 -20 -18 -48 -37 -69 -18 -19 -37 -44
-43 -56 -10 -20 -22 -21 -199 -28 -103 -3 -230 -9 -280 -13 l-93 -6 0 32 c0
17 -4 31 -10 31 -5 0 -7 -13 -4 -30 7 -34 4 -36 -128 -45 -65 -4 -109 -1 -168
11 -44 10 -79 20 -77 23 44 80 51 109 51 216 1 102 -1 114 -28 168 -37 72
-124 155 -206 197 -35 18 -122 52 -194 77 -154 53 -307 128 -369 184 -42 36
-45 42 -37 70 5 17 16 42 25 56 9 13 14 30 12 36 -3 7 -18 -17 -34 -52 l-29
-64 -57 64 c-62 68 -173 229 -203 292 -10 20 -22 37 -26 37 -14 0 99 -214 147
-278 23 -32 71 -89 106 -127 35 -38 55 -65 44 -61 -30 12 -78 26 -81 23 -7 -8
406 -194 516 -232 156 -54 178 -65 243 -113 59 -45 94 -95 118 -169 28 -84 25
-93 -20 -48 -33 33 -36 41 -23 46 12 5 4 9 -23 14 -22 5 -65 21 -96 37 -85 43
-85 33 0 -12 84 -44 147 -100 167 -146 11 -27 11 -41 -2 -90 -8 -32 -24 -72
-34 -89 l-20 -32 -127 -6 c-202 -9 -308 -40 -319 -95 -5 -25 -9 -27 -50 -24
-38 4 -48 0 -74 -27 -25 -24 -53 -36 -147 -61 l-116 -30 -71 20 c-143 40 -266
97 -380 175 -49 33 -64 40 -56 24 41 -76 -75 32 -136 127 -23 36 -41 54 -50
50 -18 -7 -76 93 -106 182 -27 80 -27 80 -37 64 -12 -20 -47 69 -77 194 -16
67 -29 155 -33 233 l-7 126 -8 -95 c-7 -92 2 -218 25 -317 14 -66 58 -176 78
-198 11 -11 32 -50 49 -86 32 -73 107 -189 122 -189 4 0 10 5 12 11 2 6 21
-15 43 -47 45 -65 126 -134 158 -134 12 0 36 -9 52 -21 57 -38 150 -82 243
-114 l92 -32 -102 -39 c-56 -21 -105 -40 -109 -42 -5 -2 -6 30 -4 70 l4 73
-16 -81 c-15 -80 -16 -82 -57 -101 -61 -30 -158 -107 -185 -147 -41 -61 -50
-104 -51 -229 0 -139 6 -155 90 -242 l59 -60 3 -126 3 -126 39 -47 c49 -61
154 -134 286 -200 58 -29 111 -55 118 -57 9 -3 -1 -20 -28 -49 -125 -134 -153
-338 -69 -497 l29 -55 -30 -34 c-16 -19 -30 -42 -30 -51 0 -9 13 2 30 25 17
23 33 41 38 41 4 -1 36 -32 71 -70 l64 -68 -42 -47 c-47 -54 -68 -113 -51
-144 10 -20 8 -19 -42 6 -29 14 -68 38 -87 51 -30 23 -33 30 -28 64 3 21 12
52 21 70 20 40 20 45 1 29 -8 -7 -22 -37 -31 -67 l-16 -55 -35 48 c-81 114
-142 233 -279 544 -42 96 -109 238 -150 315 -74 142 -88 183 -99 288 -4 32 -9
56 -13 53 -3 -4 -8 -38 -11 -76 l-6 -70 -55 37 c-75 50 -268 244 -320 322
-107 160 -188 376 -191 512 -2 96 -7 121 -22 112 -7 -4 -7 24 -1 88 5 52 8
126 7 164 -1 39 4 105 13 148 8 42 13 86 9 96 -9 29 98 454 145 578 23 59 59
158 80 218 52 150 100 267 171 416 32 69 59 128 59 132 0 3 46 90 101 192
l101 186 27 -24 c120 -111 412 -243 658 -297 128 -28 135 -23 13 10 -347 93
-659 285 -764 470 -14 25 -26 37 -29 28 -11 -31 -48 57 -62 147 -3 22 -9 51
-11 65 -6 25 -6 24 -24 -10 l-18 -35 -7 39 c-8 41 0 293 10 336 l7 25 -23 -25
-22 -25 7 50 c4 28 16 85 27 129 20 80 20 105 -1 66 -24 -44 -22 -16 5 117 3
14 17 26 40 33 56 18 55 33 -1 26 -123 -17 -318 35 -399 106 -53 46 -67 72
-85 147 -12 51 -13 53 -25 31 -16 -31 -23 -17 -36 76 -11 82 -1 175 26 241 15
37 10 41 -23 18 -20 -15 -21 -15 -15 2 12 33 36 67 77 112 40 43 41 43 14 39
-16 -3 -28 -1 -28 5 0 17 83 91 141 126 l54 32 -37 -3 c-21 -2 -38 -1 -38 2 0
3 24 21 53 40 57 38 164 80 202 80 33 0 32 13 -2 28 -23 9 -11 11 74 8 85 -2
110 -7 153 -28 l50 -25 -16 24 c-51 79 63 3 162 -108 45 -50 65 -84 85 -142
l18 -52 1 45 c1 43 3 47 63 91 34 25 116 77 182 116 66 39 140 87 165 107 25
19 47 31 49 25 2 -6 -2 -16 -8 -22 -6 -6 -11 -17 -11 -24 0 -14 145 54 189 88
31 25 44 24 31 -2 -17 -30 -9 -32 46 -7 57 25 160 56 189 57 17 0 14 -5 -15
-30z m1600 -119 c0 -38 -4 -50 -15 -50 -8 0 -26 23 -40 50 l-25 50 40 0 40 0
0 -50z m0 -574 l0 -514 -64 -1 -64 -1 -7 53 c-4 28 -17 101 -31 162 -13 60
-24 120 -24 132 0 12 -4 24 -9 27 -5 4 -16 27 -25 53 -13 37 -13 48 -4 55 23
14 27 9 31 -44 l4 -53 0 56 c0 53 2 59 40 95 22 22 55 65 73 97 18 32 39 61
47 64 10 4 11 8 4 13 -8 4 -8 15 0 39 7 20 10 62 6 107 -4 49 -2 74 5 74 7 0
8 17 4 50 -4 31 -3 50 3 50 7 0 11 -176 11 -514z m-3447 436 c28 -31 43 -106
30 -154 -7 -24 -8 -47 -3 -52 5 -5 -4 -26 -21 -48 -16 -22 -31 -56 -35 -75 -6
-30 -10 -34 -33 -31 -25 3 -26 6 -32 83 l-6 80 1 -83 c1 -59 -2 -82 -11 -82
-26 0 -9 269 19 325 29 55 62 69 91 37z m6500 -174 c36 -46 64 -84 63 -84 0
-1 -146 -5 -324 -9 l-323 -7 3 84 3 83 85 6 c47 3 162 6 257 7 l171 2 65 -82z
m-7249 41 l539 -13 -7 -104 c-3 -58 -6 -127 -6 -155 l0 -49 -422 6 c-233 3
-483 9 -556 12 l-132 6 4 157 c2 86 5 157 5 159 1 2 9 1 19 -2 9 -2 260 -10
556 -17z m6506 -59 l0 -80 -32 0 c-18 0 -260 -5 -537 -10 -278 -6 -509 -6
-513 -2 -5 5 15 41 44 80 l53 72 100 1 c55 1 188 5 295 9 107 3 284 7 393 8
l197 2 0 -80z m-1333 -170 c33 -17 64 -25 101 -25 50 0 53 -1 50 -25 -3 -22
-9 -25 -47 -28 -23 -2 -57 2 -74 8 -25 8 -29 8 -19 -2 6 -6 39 -14 72 -16 56
-4 60 -6 54 -26 -3 -11 -8 -30 -11 -41 -7 -26 -21 -35 -54 -35 -67 0 -167 57
-222 128 -28 37 -35 90 -21 174 l6 36 58 -62 c32 -34 80 -73 107 -86z m2205
36 l48 -54 0 -337 0 -336 -31 -112 c-17 -62 -48 -170 -69 -242 -33 -110 -68
-240 -111 -407 -7 -27 -14 -35 -27 -32 -9 2 -89 8 -177 14 -88 5 -190 13 -227
16 l-68 7 0 136 c1 122 2 134 15 117 14 -18 15 -16 15 26 0 32 6 50 20 63 28
26 41 10 50 -62 4 -32 8 -51 9 -42 2 25 40 59 66 59 34 0 41 -32 17 -80 l-19
-40 33 0 c24 0 34 -5 39 -21 4 -11 9 -18 12 -16 12 12 -19 47 -42 47 -24 0
-24 1 -9 35 18 45 18 51 -6 75 -20 20 -42 18 -71 -7 -15 -12 -17 -10 -23 21
-4 18 -13 39 -21 46 -21 17 -54 -5 -62 -41 -13 -66 -23 -21 -23 106 0 121 2
135 18 136 16 1 16 2 -1 6 -16 4 -17 35 -17 484 l0 479 183 3 c100 1 238 3
307 5 l125 2 47 -54z m-875 -599 l3 -637 -33 -14 -32 -14 30 1 30 2 3 -102 3
-103 -33 0 c-18 0 -242 16 -498 35 -256 19 -468 35 -472 35 -4 0 -9 19 -12 43
-4 23 -20 137 -36 252 -19 133 -30 252 -30 322 0 103 1 112 23 126 l22 16 -22
-6 -23 -5 0 334 0 335 347 7 346 7 25 -28 24 -28 -16 27 -16 27 147 4 c82 2
164 3 183 3 l35 -1 2 -638z m201 -124 c-3 -722 -4 -768 -20 -771 -17 -3 -18
39 -18 767 0 765 0 771 20 771 20 0 20 -5 18 -767z m-1288 340 c0 -229 -2
-414 -5 -412 -2 3 -11 47 -20 99 -11 70 -15 173 -15 393 0 286 5 337 30 337 6
0 10 -156 10 -417z m-51 110 c0 -155 -4 -255 -9 -238 -4 17 -20 85 -34 151
-24 111 -25 124 -11 150 8 16 15 41 15 56 0 15 5 30 11 33 6 4 9 23 8 44 -1
33 7 71 17 71 2 0 4 -120 3 -267z m-4961 131 l312 -7 0 -56 c0 -31 4 -73 9
-93 l9 -38 -654 0 -654 0 -1 48 c0 26 -2 73 -4 106 l-3 59 336 -7 c186 -3 478
-9 650 -12z m4661 -28 l33 -34 -11 -70 c-6 -39 -10 -88 -10 -109 1 -21 8 9 16
67 8 58 17 107 19 109 2 3 9 0 15 -6 8 -8 11 -77 12 -205 l0 -193 7 188 c4
103 9 189 11 191 2 2 18 -1 36 -6 29 -8 32 -12 37 -61 4 -28 18 -162 32 -297
14 -135 28 -247 30 -249 7 -8 4 41 -11 174 -8 72 -19 180 -25 240 -5 61 -13
127 -16 148 -5 32 -3 37 14 37 12 0 23 -8 26 -17 33 -111 124 -603 165 -898
46 -328 45 -309 24 -326 -27 -24 -80 -39 -138 -39 l-51 0 -13 183 c-7 100 -16
211 -21 247 -7 64 -7 64 -8 15 -1 -27 5 -122 13 -210 8 -88 15 -200 15 -248
l0 -88 -42 -19 c-53 -24 -135 -26 -167 -4 l-23 17 6 236 c3 130 9 324 12 431
3 107 3 192 0 189 -3 -3 -11 -183 -17 -400 -6 -217 -14 -397 -18 -401 -9 -10
-77 10 -96 28 -37 38 -3 667 66 1179 16 120 29 223 29 227 0 16 17 7 49 -26z
m-4316 -211 c10 -21 24 -35 34 -35 12 0 22 -13 31 -41 7 -23 12 -43 10 -44 -2
-2 -317 -6 -700 -10 l-698 -8 0 87 0 86 653 0 653 0 17 -35z m2947 -140 c58
-30 91 -126 70 -203 -11 -41 -67 -112 -89 -112 -6 0 -1 14 11 31 26 35 30 113
8 164 -13 30 -13 30 -19 6 -9 -34 -35 -48 -56 -31 -24 20 -15 63 15 70 22 5
23 7 7 13 -32 12 -87 8 -112 -9 -39 -26 -31 3 14 47 32 33 45 39 80 39 23 0
55 -7 71 -15z m-2818 -29 c23 -20 64 -47 92 -61 l50 -25 -35 -1 c-18 -1 -38
-2 -44 -4 -5 -1 -43 -3 -82 -3 l-73 -2 0 -235 0 -236 158 6 c231 9 242 11 243
43 1 21 2 22 6 7 3 -11 9 -24 14 -29 11 -13 12 -93 1 -100 -10 -6 -558 -36
-1660 -92 l-134 -7 4 54 4 54 40 2 c56 4 631 31 944 45 165 7 268 16 272 22
10 15 10 454 0 460 -4 2 -286 0 -627 -4 -354 -6 -623 -6 -628 -1 -5 5 -6 37
-2 70 l7 61 606 2 c334 2 651 5 704 6 l98 4 42 -36z m3318 -132 l0 -45 -52 3
c-52 3 -52 3 -64 46 l-13 42 65 0 64 0 0 -46z m-3067 20 l47 -7 2 -91 2 -91 3
93 c4 90 4 92 29 92 27 0 27 6 -2 -111 -17 -68 -18 -106 -3 -111 8 -3 7 -22
-3 -68 l-13 -65 -6 85 -5 85 -2 -117 -2 -116 -72 -6 c-40 -3 -126 -8 -190 -11
l-118 -6 0 225 0 225 98 4 c103 4 157 2 235 -9z m-458 -224 l0 -225 -75 -3
c-41 -1 -257 -11 -480 -22 -223 -11 -469 -23 -547 -26 l-143 -7 0 48 c0 47 0
47 29 43 17 -2 28 -1 25 4 -3 4 -16 8 -28 8 -19 0 -25 7 -30 38 -11 67 -7 212
6 212 21 0 58 -43 58 -67 0 -47 110 -223 139 -223 20 0 141 200 141 234 0 23
66 74 105 82 42 8 85 -16 85 -48 0 -27 -34 -82 -67 -108 -34 -27 -24 -35 24
-19 21 7 70 13 110 13 82 1 83 -5 15 -66 -35 -32 -61 -45 -127 -62 -11 -3 0
-3 25 0 52 6 93 32 144 92 42 52 45 65 11 52 -14 -5 -49 -8 -77 -7 -29 1 -68
-2 -87 -7 l-35 -8 37 43 c40 46 47 82 23 115 -23 30 -103 26 -147 -7 l-35 -27
-16 29 c-23 39 -60 39 -99 -1 -24 -23 -31 -26 -36 -14 -10 26 -59 45 -87 34
-14 -5 -26 -13 -26 -17 0 -5 -4 -14 -9 -22 -7 -11 -14 -10 -40 5 -29 17 -31
21 -31 81 l0 63 168 1 c92 1 354 5 582 9 228 3 433 6 455 6 l40 -1 0 -225z
m3525 95 c0 -30 -3 -55 -6 -55 -7 0 -41 41 -67 82 l-19 28 46 0 46 0 0 -55z
m-4595 -29 l32 -34 17 29 c35 59 106 42 106 -26 0 -36 -44 -126 -97 -199 l-35
-49 -34 39 c-47 54 -94 150 -94 191 0 34 36 83 61 83 6 0 26 -15 44 -34z
m7798 -738 c-15 -115 -32 -208 -37 -208 -24 0 -95 43 -129 78 l-37 38 35 139
c19 77 70 263 112 412 l78 273 3 -263 c3 -240 1 -279 -25 -469z m-6185 275 c2
-55 0 -73 -10 -73 -7 0 -112 -7 -233 -15 -121 -8 -366 -23 -545 -35 -179 -11
-475 -29 -658 -41 -183 -11 -335 -19 -337 -17 -1 1 -5 38 -8 81 -4 55 -2 79 6
82 7 2 255 16 552 30 297 15 684 35 860 45 176 10 331 17 345 16 24 -1 25 -4
28 -73z m2982 -38 c0 -8 -4 -15 -10 -15 -5 0 -7 7 -4 15 4 8 8 15 10 15 2 0 4
-7 4 -15z m78 -64 c71 -36 111 -101 119 -190 l5 -56 -50 -23 c-33 -14 -61 -37
-82 -64 -35 -49 -70 -156 -78 -241 -3 -38 -8 -55 -15 -48 -15 15 -37 1 -37
-24 0 -27 24 -39 40 -20 9 11 7 12 -9 8 -15 -4 -21 -1 -21 10 0 24 16 28 33 9
13 -15 35 -102 25 -102 -2 0 -42 13 -89 29 -219 74 -412 198 -475 307 -32 55
-37 128 -11 167 40 62 145 83 242 47 97 -35 93 -35 101 -4 19 86 28 107 57
141 61 70 168 93 245 54z m-3218 -91 l0 -100 -35 0 c-26 0 -35 4 -36 18 0 13
-2 12 -9 -5 -7 -17 -18 -23 -42 -25 -45 -2 -60 -4 -78 -11 -8 -3 -41 -12 -72
-20 l-58 -16 0 120 0 119 70 0 70 0 2 -57 1 -58 6 60 6 60 85 6 c47 3 86 6 88
7 1 1 2 -43 2 -98z m160 0 l0 -100 -75 0 -75 0 0 100 0 100 75 0 75 0 0 -100z
m-510 -48 l0 -118 -67 -32 c-62 -29 -79 -32 -205 -38 -129 -6 -140 -5 -183 16
-31 15 -56 20 -76 16 l-29 -5 -2 62 -2 62 -3 -61 -4 -62 -62 -12 c-36 -7 -72
-21 -87 -34 -15 -13 -41 -23 -62 -25 l-38 -3 -2 149 -2 148 -3 -147 c-3 -132
-5 -148 -21 -149 -9 0 -109 -8 -222 -18 -113 -10 -208 -16 -212 -14 -7 4 1
294 9 303 4 4 1116 76 1221 79 l52 1 0 -118z m5130 92 c594 -43 665 -50 660
-58 -6 -12 30 -14 -535 30 -247 18 -453 34 -457 34 -5 0 -8 5 -8 11 0 8 20 9
63 5 34 -3 159 -13 277 -22z m-4564 -30 c6 14 13 2 30 -50 12 -38 21 -71 19
-73 -2 -2 -25 0 -50 3 l-45 7 0 72 0 72 20 -25 c18 -23 19 -24 26 -6z m4664
-9 c179 -13 422 -31 540 -40 374 -26 712 -54 716 -58 3 -2 0 -23 -5 -46 -9
-40 -7 -45 22 -78 l32 -36 -105 7 c-98 6 -350 27 -745 61 -93 8 -357 31 -585
50 -491 41 -520 45 -520 56 0 5 26 9 58 9 92 1 171 46 159 91 -5 20 -3 21 51
15 31 -4 203 -17 382 -31z m1065 -45 c192 -13 214 -16 199 -29 -5 -5 -110 -1
-244 10 -129 10 -246 19 -260 19 -20 0 -22 2 -10 11 8 5 41 8 75 5 33 -3 141
-10 240 -16z m420 -358 c-2 -3 -11 1 -20 8 -20 16 -19 63 2 235 l18 140 3
-189 c1 -104 0 -191 -3 -194z m-6405 248 c-167 -35 -263 -78 -420 -185 -121
-83 -213 -131 -230 -120 -28 17 -2 45 113 121 165 110 180 118 272 149 101 34
201 53 285 53 l65 1 -85 -19z m345 -11 c36 -11 88 -80 79 -104 -5 -13 -14 -15
-38 -10 -199 42 -369 23 -543 -61 -75 -36 -111 -62 -198 -143 -105 -98 -237
-184 -255 -165 -4 5 -12 36 -19 69 -6 33 -14 69 -17 80 -4 17 3 23 45 38 28
10 101 52 162 94 193 131 354 194 535 211 94 8 207 4 249 -9z m2264 -162 c70
-113 263 -238 491 -317 75 -26 106 -42 108 -54 3 -15 -1 -17 -30 -11 -132 29
-313 107 -427 184 -139 95 -191 162 -191 247 0 78 13 101 21 37 4 -29 16 -67
28 -86z m-3373 68 c69 -69 126 -320 260 -1145 111 -688 242 -1625 228 -1639
-9 -10 -128 -40 -136 -35 -5 3 -8 18 -8 33 0 56 -169 1195 -210 1411 -11 58
-49 276 -85 485 -98 576 -147 796 -191 861 -13 19 -24 37 -24 39 0 2 17 6 38
8 89 9 103 7 128 -18z m286 4 c-31 -31 -187 -137 -194 -133 -4 3 -8 13 -8 22
0 9 -9 36 -19 59 l-19 41 71 6 c162 13 179 14 169 5z m-448 -28 c29 -32 52
-108 95 -311 118 -564 383 -2214 413 -2565 19 -232 20 -271 9 -430 -15 -201
-29 -297 -92 -610 -73 -365 -100 -475 -116 -475 -19 0 -87 36 -102 53 -9 12
-3 51 33 198 108 446 130 606 130 964 1 302 1 304 -70 820 -160 1171 -238
1626 -364 2110 -42 161 -46 218 -20 250 17 21 64 19 84 -4z m1235 -2 c36 -6
70 -15 74 -19 5 -4 1 -23 -9 -41 l-18 -34 -7 35 c-6 35 -6 34 -8 -10 -1 -35
-23 -89 -100 -244 -96 -194 -108 -209 -113 -143 -1 12 -4 -9 -8 -48 -7 -71
-14 -95 -58 -200 -14 -33 -49 -125 -78 -205 -29 -80 -54 -138 -55 -130 -1 8
-5 -3 -9 -25 -5 -22 -17 -60 -28 -85 l-21 -45 0 36 c-1 50 -47 381 -77 559
-20 119 -63 321 -89 415 -4 15 5 27 32 48 20 15 43 25 50 23 7 -3 13 1 13 8 0
18 131 75 210 91 129 27 203 30 299 14z m-1367 -56 c-2 -32 9 -96 33 -186 88
-339 179 -813 245 -1270 22 -153 44 -306 50 -340 5 -34 10 -66 10 -71 0 -16
-50 4 -94 38 -24 18 -55 36 -69 40 l-26 6 20 44 c10 24 22 72 26 106 4 46 12
68 30 86 25 25 29 54 13 85 -12 21 -45 26 -56 8 -4 -7 -15 -2 -31 15 -29 32
-57 33 -77 5 -10 -15 -12 -28 -6 -45 9 -22 6 -25 -48 -39 -31 -9 -63 -18 -69
-20 -17 -6 -16 5 2 48 28 68 15 150 -31 188 -24 20 -64 108 -64 144 l0 30 -40
-43 c-45 -48 -58 -49 -78 -8 -12 23 -11 35 7 88 26 77 27 160 2 214 -19 42
-80 118 -88 110 -3 -3 9 -20 27 -38 71 -73 88 -172 50 -283 -21 -60 -19 -87 8
-117 14 -17 13 -18 -13 -18 -36 0 -93 59 -99 103 -19 137 -26 169 -46 197 -24
34 -41 39 -33 10 3 -11 9 -17 14 -15 15 10 38 -52 45 -121 7 -84 34 -144 73
-167 44 -26 76 -21 120 18 l39 35 6 -34 c4 -19 29 -64 56 -101 57 -77 63 -114
33 -197 l-17 -47 -70 -11 c-39 -6 -76 -13 -83 -15 -7 -2 -15 6 -19 18 -10 33
-35 57 -59 57 -31 0 -47 -23 -43 -62 l3 -33 -89 -12 c-49 -7 -92 -11 -94 -8
-3 3 -8 89 -10 190 -5 213 2 255 59 363 22 41 39 83 38 95 0 13 -6 5 -14 -21
-7 -23 -18 -48 -23 -55 -6 -7 -22 -34 -36 -62 l-25 -50 -1 133 c0 96 4 143 15
169 19 45 19 52 0 27 -13 -17 -14 29 -15 399 0 337 3 419 13 423 13 5 423 40
497 43 l35 1 -3 -47z m778 -244 c45 -190 104 -561 130 -821 10 -91 9 -128 0
-168 -7 -27 -15 -52 -20 -55 -4 -2 -10 33 -14 78 -22 283 -98 721 -161 940
l-24 82 26 28 c33 33 35 30 63 -84z m4605 11 c387 -44 1076 -123 1692 -195
210 -25 385 -45 388 -45 3 0 5 -49 5 -109 l0 -110 -32 5 c-18 2 -481 61 -1028
129 -1055 132 -1404 177 -1407 179 -1 1 -8 33 -16 71 -9 39 -18 82 -22 97 -7
26 -6 27 27 22 18 -2 195 -22 393 -44z m-4655 -154 c58 -230 111 -568 135
-864 7 -76 -9 -221 -22 -208 -3 2 -9 58 -14 123 -26 335 -75 662 -136 898 -46
180 -47 188 -33 215 11 21 13 22 22 6 6 -10 27 -86 48 -170z m-107 97 c3 -16
5 -264 5 -553 0 -289 -3 -511 -5 -495 -12 87 -108 654 -137 810 -37 200 -38
191 36 215 24 8 52 22 62 32 27 24 33 23 39 -9z m71 -270 c36 -161 36 -168
-22 -161 l-27 3 -1 180 c-2 204 0 203 50 -22z m4671 122 c149 -20 412 -53 585
-75 173 -22 585 -73 915 -115 329 -41 600 -75 602 -75 2 0 3 -40 3 -90 0 -81
-2 -90 -18 -90 -18 0 -19 -19 -25 -352 -4 -194 -7 -451 -7 -571 l0 -217 25
-12 c23 -10 25 -16 25 -85 0 -66 -2 -74 -17 -69 -10 3 -144 32 -298 65 -154
33 -329 71 -390 85 -60 13 -127 27 -149 31 l-38 6 23 16 c13 9 44 35 69 58
l45 43 230 -48 c126 -27 232 -47 234 -44 2 2 6 256 9 564 l5 559 -24 9 c-37
14 -1098 155 -1114 148 -12 -4 -15 -34 -15 -166 0 -160 0 -161 -24 -170 -39
-15 -68 -60 -62 -96 6 -30 4 -32 -40 -49 -26 -10 -70 -40 -97 -66 -28 -27 -52
-49 -54 -49 -2 0 -3 144 -3 320 l0 319 -32 6 c-41 7 -324 46 -555 76 l-173 23
0 79 0 80 48 -7 c26 -3 169 -22 317 -41z m-233 -140 c57 -8 207 -28 333 -45
127 -17 242 -33 258 -36 l27 -6 0 -320 0 -320 -25 -20 c-14 -11 -25 -27 -25
-36 -1 -9 -23 -41 -50 -71 -58 -64 -56 -65 -137 52 -30 42 -64 82 -76 88 -42
23 -177 -12 -177 -46 0 -8 22 -36 49 -62 48 -47 63 -79 77 -163 l6 -36 -246
50 -246 49 0 314 c0 270 2 318 16 345 25 49 62 163 70 215 10 74 -3 70 146 48z
m1458 -195 c283 -39 531 -73 550 -76 l35 -6 -3 -554 -2 -554 -43 6 c-48 7
-366 72 -384 79 -7 2 3 32 30 84 37 73 41 90 45 170 5 107 -12 169 -64 230
-49 56 -87 74 -159 75 -66 0 -110 -18 -161 -66 -33 -31 -44 -27 -58 20 -4 12
-21 29 -37 37 -16 9 -29 19 -29 24 0 20 -86 95 -134 116 -51 22 -52 24 -48 59
5 43 -17 82 -54 96 l-24 10 0 153 c0 142 3 167 19 167 3 0 238 -32 521 -70z
m-5852 -17 c31 -191 44 -337 32 -341 -9 -3 -9 -6 1 -13 14 -8 37 -211 38 -335
l1 -61 -71 -12 c-38 -7 -73 -10 -77 -7 -15 15 -21 155 -21 478 l-1 347 38 4
c20 2 40 4 43 5 3 1 11 -28 17 -65z m6732 -673 l0 -571 -22 12 -21 11 6 382
c4 209 7 461 7 559 0 151 2 177 15 177 13 0 15 -70 15 -570z m-2567 -45 c6 -3
118 -27 247 -53 l235 -48 12 -59 c6 -33 10 -61 8 -64 -2 -2 -104 18 -225 44
-122 26 -223 45 -226 42 -3 -2 44 -14 103 -27 361 -76 354 -74 368 -108 l14
-31 -47 5 c-174 17 -232 25 -272 33 -25 6 -82 10 -126 11 l-82 0 -7 37 c-4 21
-13 50 -21 66 l-15 28 38 -5 c36 -5 36 -5 -7 8 -25 6 -65 22 -90 34 -25 12
-51 22 -57 22 -10 0 -13 55 -13 243 l0 244 25 23 c14 13 47 55 73 93 l47 69 3
-301 c2 -228 5 -303 15 -306z m1187 435 c24 -24 25 -48 4 -78 -32 -46 -114
-18 -114 39 0 53 71 78 110 39z m-1360 -270 l0 -230 -37 0 c-50 -1 -119 -33
-164 -76 l-37 -36 -40 21 c-22 11 -42 27 -46 36 -3 9 -6 97 -6 196 l0 179 28
6 c58 13 99 27 141 50 24 13 52 24 62 24 10 0 33 13 51 30 18 16 36 30 41 30
4 0 7 -103 7 -230z m1291 131 c8 0 3 5 -10 10 -35 14 -22 18 26 10 23 -5 47
-5 54 0 43 26 229 -120 204 -160 -3 -6 -32 -18 -63 -28 -110 -33 -361 -20
-430 23 -21 14 -21 16 -7 43 20 41 90 98 139 114 35 12 43 12 57 1 8 -8 22
-14 30 -13z m-1785 -45 c3 -7 4 -33 2 -57 l-3 -44 -16 58 c-14 48 -14 57 -2
57 7 0 16 -6 19 -14z m154 -187 l0 -191 -22 6 c-13 3 -35 6 -49 6 -25 0 -26 4
-47 113 -12 61 -22 145 -22 185 l0 72 70 0 70 0 0 -191z m1010 132 c-19 -11
-100 -25 -100 -17 0 8 60 24 90 25 19 0 21 -2 10 -8z m90 -82 c29 -44 64 -89
78 -100 l25 -19 -26 -58 c-34 -77 -57 -169 -57 -231 0 -28 -4 -51 -9 -51 -19
0 -62 123 -76 222 -22 147 -40 194 -92 245 l-45 43 49 0 c38 0 78 12 99 29 1
1 25 -35 54 -80z m361 -4 c125 -38 336 -28 433 20 51 24 66 24 66 0 0 -39
-152 -78 -305 -78 -155 0 -305 42 -313 88 -6 29 18 34 43 9 12 -12 47 -30 76
-39z m847 18 c20 -16 48 -50 62 -74 22 -39 25 -55 25 -149 0 -100 -2 -108 -34
-169 -46 -90 -127 -172 -202 -206 -64 -28 -89 -28 -89 4 0 38 13 51 75 81 94
45 147 117 167 230 20 116 -36 220 -119 220 -47 0 -100 -54 -109 -110 -10 -62
-58 -62 -84 -1 -15 38 -9 66 29 118 67 92 200 119 279 56z m-903 -57 c142 -59
389 -56 523 6 34 16 45 18 57 8 13 -11 13 -16 -1 -42 -37 -72 35 -181 96 -148
17 9 21 4 35 -42 9 -29 19 -90 22 -135 l6 -82 -27 -7 c-38 -9 -66 -50 -66 -96
0 -31 4 -41 20 -45 17 -4 18 -8 8 -27 -26 -49 -120 -134 -176 -159 -116 -52
-317 -59 -466 -18 -269 75 -373 370 -230 654 47 94 104 169 124 163 8 -2 42
-16 75 -30z m-5637 -36 c17 -34 22 -61 22 -120 0 -97 -13 -143 -56 -189 -39
-44 -46 -66 -10 -32 22 20 28 22 58 12 19 -6 49 -24 68 -39 29 -24 34 -36 38
-84 5 -64 -8 -79 -72 -76 -31 1 -36 5 -36 25 0 33 -24 77 -56 102 -36 28 -86
36 -142 21 -94 -25 -186 -36 -220 -26 -91 26 33 73 263 99 72 8 124 186 80
271 -16 30 -20 68 -8 80 18 18 49 -2 71 -44z m76 -3 c8 -13 7 -24 -4 -44 -8
-14 -20 -28 -26 -30 -13 -4 -26 60 -17 83 7 19 33 14 47 -9z m6410 -27 c61
-73 40 -223 -45 -310 l-33 -35 -7 70 c-4 39 -18 103 -32 144 -24 67 -25 77
-12 106 25 62 87 74 129 25z m-6920 -15 c22 -23 39 -122 33 -192 -7 -66 -44
-154 -74 -173 -16 -10 -16 -11 2 -4 31 11 48 7 89 -16 45 -28 66 -66 66 -123
0 -46 -9 -60 -47 -71 -21 -7 -23 -4 -23 34 0 47 -18 86 -51 115 l-24 20 22
-25 c37 -43 60 -140 33 -140 -5 0 -10 10 -10 22 0 33 -38 103 -63 117 -48 25
-84 29 -143 15 -32 -7 -60 -11 -62 -9 -2 2 -5 18 -5 36 -2 30 1 33 35 41 21 4
54 9 74 10 47 4 68 32 90 118 14 56 15 76 5 144 -10 65 -10 80 1 87 19 13 35
11 52 -6z m370 -17 c11 -44 7 -65 -16 -72 -43 -12 -243 -54 -273 -58 -28 -3
-30 -1 -36 40 -5 37 -3 43 15 46 12 2 64 12 116 21 52 10 113 23 135 30 54 17
52 18 59 -7z m722 -70 c-3 -29 -9 -84 -13 -121 -6 -69 -6 -69 -52 -97 -25 -16
-47 -27 -49 -25 -4 4 -43 267 -40 270 6 5 105 23 132 24 l29 1 -7 -52z m-1151
-29 c10 -43 -6 -54 -92 -68 -106 -16 -103 -17 -103 33 l0 43 63 10 c114 19
125 17 132 -18z m5135 16 c77 -40 91 -116 39 -224 -32 -70 -109 -178 -158
-225 l-30 -29 -128 42 c-176 58 -339 138 -386 190 -30 33 -37 49 -37 82 0 34
6 48 38 79 70 70 168 77 293 19 l70 -32 42 40 c23 22 56 48 72 56 39 21 147
22 185 2z m-4707 -27 c-3 -18 -15 -51 -27 -73 -17 -32 -28 -41 -60 -47 -71
-15 -251 -46 -253 -44 -2 1 2 18 7 37 6 18 10 46 10 61 0 25 4 27 71 38 39 7
72 10 75 7 2 -2 0 -17 -6 -32 -6 -15 -8 -30 -6 -32 3 -3 10 13 16 34 12 38 14
40 88 60 43 12 80 21 84 22 4 1 5 -14 1 -31z m-433 -81 c0 -12 -10 -43 -22
-67 -25 -48 -41 -56 -125 -62 -44 -3 -48 -1 -51 20 -2 14 5 33 16 45 11 12 24
31 30 42 6 12 29 24 59 31 78 19 93 17 93 -9z m-160 -10 c0 -14 -20 -37 -32
-37 -13 0 -9 38 5 43 21 9 27 7 27 -6z m3651 -67 c144 -26 180 -94 41 -76 -46
6 -46 6 -17 -8 l30 -13 -40 -9 c-22 -5 -112 -9 -200 -9 -166 0 -252 10 -224
25 30 17 197 33 299 27 81 -4 95 -3 60 5 -61 13 -282 3 -349 -16 -48 -13 -57
-13 -82 0 -16 8 -29 19 -29 23 0 12 71 39 130 50 63 12 317 13 381 1z m868
-15 c-22 -22 -29 -24 -53 -15 -39 14 -131 12 -171 -4 -22 -10 -41 -28 -54 -54
-19 -37 -22 -39 -81 -45 -65 -7 -105 -23 -131 -53 -48 -54 -63 -139 -34 -181
15 -21 14 -23 -27 -44 -24 -12 -55 -30 -70 -40 -26 -19 -28 -19 -95 3 -37 12
-70 23 -72 24 -2 2 1 16 8 31 18 45 80 334 74 349 -3 9 2 14 16 14 11 0 114 7
228 15 222 16 294 20 413 23 l75 2 -26 -25z m850 -49 c-26 -70 -102 -185 -169
-257 l-50 -53 -27 26 c-43 39 -68 49 -152 57 -61 6 -96 18 -172 54 -155 74
-229 145 -229 219 0 19 5 16 25 -19 44 -73 143 -128 390 -218 l170 -62 23 21
c41 36 137 170 173 239 40 78 49 74 18 -7z m71 58 c0 -2 -7 -4 -15 -4 -8 0
-15 4 -15 10 0 5 7 7 15 4 8 -4 15 -8 15 -10z m192 6 c20 -6 46 -22 58 -37 24
-30 27 -81 5 -89 -35 -14 -10 -24 58 -23 108 2 160 -25 173 -88 5 -25 0 -36
-33 -70 -45 -47 -116 -77 -236 -97 -111 -20 -286 -28 -377 -19 -100 11 -101
21 -13 143 37 52 84 126 104 164 24 48 46 77 68 90 59 34 129 43 193 26z m251
-36 c55 -5 73 -12 97 -34 17 -16 30 -36 30 -47 1 -10 7 -35 15 -56 12 -35 12
-38 -3 -32 -10 4 -30 9 -47 12 -16 3 -37 12 -45 19 -30 26 -106 54 -146 54
-39 0 -42 2 -46 33 -3 17 -9 40 -13 51 -7 17 -4 18 41 12 27 -3 79 -8 117 -12z
m-4593 -34 c0 -34 -4 -42 -30 -55 -41 -21 -47 -19 -52 15 -4 27 0 33 36 54 23
13 42 24 44 25 1 1 2 -17 2 -39z m3334 -88 c46 -41 178 -117 240 -137 18 -5
16 -8 -15 -27 -19 -12 -53 -25 -76 -29 -38 -8 -50 -4 -115 31 -41 22 -105 48
-143 60 -39 11 -94 27 -123 36 -64 18 -132 75 -132 109 0 29 41 62 87 71 20 4
60 0 96 -9 59 -15 63 -14 82 4 20 19 20 19 33 -20 9 -26 33 -58 66 -89z
m-4018 81 c27 -17 54 -71 54 -107 0 -31 30 -42 81 -29 44 12 61 45 54 101 -7
46 -7 46 27 33 22 -8 25 -18 37 -116 7 -58 11 -108 10 -110 -2 -2 -171 -35
-374 -75 -204 -39 -403 -77 -444 -85 -41 -9 -76 -13 -79 -11 -2 3 -5 74 -6
158 -1 152 -1 153 22 156 19 3 22 -1 22 -30 0 -38 45 -115 72 -124 9 -3 31 2
48 11 l31 16 -26 30 c-18 23 -25 42 -25 75 0 49 10 54 53 25 38 -25 53 -49 62
-98 7 -47 26 -59 75 -48 70 15 81 115 19 181 -23 25 -18 28 53 39 l44 7 13
-54 c16 -64 45 -98 82 -98 44 0 53 22 29 66 -11 21 -20 56 -20 77 0 38 0 39
32 31 18 -3 43 -13 54 -21z m-96 -16 c0 -18 9 -50 20 -72 15 -30 17 -41 7 -47
-43 -28 -82 10 -102 100 -6 28 -3 33 17 41 45 19 58 14 58 -22z m2758 -33 c79
-16 280 -18 372 -3 36 5 84 19 107 29 45 20 49 17 34 -23 -20 -52 -173 -83
-369 -74 -88 4 -147 12 -193 26 -66 21 -79 33 -79 72 0 19 1 19 31 4 17 -9 61
-23 97 -31z m-167 16 c10 -6 19 -20 19 -31 0 -16 -3 -18 -19 -9 -50 26 -88 -4
-76 -60 7 -33 65 -89 111 -108 25 -11 54 -46 54 -67 0 -4 -29 13 -118 70 -88
57 -118 140 -67 190 25 26 63 32 96 15z m-1801 -28 c0 -43 -25 -179 -34 -184
-26 -18 -31 -7 -42 94 l-6 67 33 15 c41 17 49 19 49 8z m-1200 -46 c0 -28 7
-52 20 -69 25 -32 25 -36 -2 -46 -32 -12 -54 3 -78 49 -28 54 -27 97 3 103 55
11 57 9 57 -37z m4189 0 c23 -23 29 -35 19 -38 -7 -3 23 -13 67 -22 101 -22
168 -46 264 -96 76 -40 111 -63 111 -72 0 -3 -14 -23 -31 -44 -17 -22 -42 -60
-55 -86 -25 -49 -68 -98 -86 -98 -7 0 -6 6 2 15 15 18 7 30 -14 22 -9 -4 -13
-13 -10 -21 8 -21 -128 -50 -236 -50 -93 0 -142 17 -189 67 -19 21 -22 33 -17
59 3 18 10 38 14 43 13 18 117 85 132 85 8 0 -1 15 -23 36 -45 44 -47 74 -10
104 22 17 36 21 68 16 l40 -6 -25 18 c-40 27 -70 63 -70 83 0 27 12 24 49 -15z
m-1059 -3 c103 -34 414 -26 508 13 l33 13 -7 -37 c-3 -20 -14 -44 -24 -52 -10
-8 -23 -25 -29 -38 -12 -23 -7 -62 9 -62 14 0 -12 -65 -47 -114 -47 -67 -99
-90 -203 -90 -69 -1 -93 3 -125 21 -56 30 -89 68 -120 138 -41 91 -47 115 -29
122 26 10 46 -18 42 -58 -2 -21 0 -35 4 -33 5 3 8 23 8 44 0 43 -25 66 -59 55
-15 -4 -19 2 -25 34 -3 22 -9 47 -13 57 -5 14 -3 16 13 10 10 -5 39 -15 64
-23z m1002 -8 c18 -35 18 -36 -5 -46 -39 -18 -58 -60 -46 -101 5 -20 16 -41
24 -48 8 -7 15 -16 15 -21 0 -32 -118 28 -168 86 -37 42 -40 72 -10 110 28 35
72 54 128 54 42 0 46 -2 62 -34z m-1096 -15 c7 -14 15 -42 18 -63 l7 -37 -49
30 c-81 50 -94 104 -24 98 28 -2 40 -9 48 -28z m-176 4 c0 -35 46 -96 90 -121
66 -38 140 -87 140 -94 0 -4 -15 -10 -32 -13 -54 -10 -137 -63 -144 -92 -8
-32 8 -68 40 -89 24 -16 118 -55 233 -96 110 -40 303 -34 399 12 23 11 60 25
83 32 l42 12 54 -52 c62 -60 196 -129 320 -164 44 -12 103 -35 130 -50 267
-148 979 -186 1375 -72 30 8 89 32 130 53 41 20 104 44 141 53 185 46 360 150
396 236 15 36 10 81 -13 117 l-14 21 72 -14 c154 -31 391 4 438 64 11 15 19
32 16 39 -2 6 18 33 46 60 27 27 63 69 80 92 29 42 32 43 67 37 62 -12 282
-95 381 -145 53 -26 118 -66 146 -88 46 -36 106 -124 93 -137 -4 -3 -71 -10
-150 -16 -201 -14 -203 -18 -6 -11 186 6 181 8 148 -64 -21 -47 -114 -142
-145 -149 -12 -2 -122 -9 -246 -15 -124 -7 -227 -14 -230 -17 -3 -3 56 -3 130
1 147 6 263 9 295 7 12 -1 -5 -14 -45 -32 -434 -204 -1117 -329 -2010 -369
-244 -11 -702 -11 -870 -1 l-105 6 65 17 c52 14 56 16 20 11 -25 -3 -67 -11
-94 -18 -49 -13 -209 -8 -396 11 -80 8 -64 14 109 40 67 9 119 19 117 22 -6 6
-162 -15 -260 -35 -67 -14 -95 -14 -190 -4 -282 30 -714 106 -906 160 -63 18
-64 18 -30 24 19 3 68 9 108 13 40 4 70 9 68 12 -3 2 -61 -1 -128 -7 l-123
-12 -106 35 c-354 118 -529 249 -529 396 0 46 9 50 156 59 l139 10 -132 -4
c-79 -1 -133 1 -133 7 0 5 24 32 52 59 71 68 249 156 431 213 219 70 287 81
287 50z m3068 -33 c51 -27 33 -98 -35 -138 -24 -14 -42 -30 -40 -37 2 -6 36
-23 76 -38 83 -30 111 -51 111 -84 0 -48 -104 -94 -214 -94 -85 0 -101 7 -130
51 -15 21 -33 39 -42 39 -12 0 -10 -7 10 -31 54 -63 40 -115 -39 -150 -57 -25
-119 -33 -199 -24 l-66 7 0 54 c0 63 -21 121 -53 146 -22 17 -21 18 35 18 97
0 258 21 327 42 36 11 82 21 101 21 19 0 27 2 17 4 -15 4 -12 10 21 39 54 46
75 105 56 160 -8 21 -14 40 -14 41 0 4 59 -16 78 -26z m1272 -17 c155 -34 661
-144 666 -144 2 0 4 -65 4 -145 0 -109 -3 -145 -12 -145 -7 0 -65 13 -128 28
-111 26 -114 28 -120 57 -26 124 -194 246 -475 345 -89 31 -123 47 -75 36 14
-4 77 -18 140 -32z m-3555 -36 c-10 -46 -16 -53 -27 -34 -7 12 -5 25 6 42 22
33 29 30 21 -8z m2201 -20 c-9 -46 -30 -74 -78 -102 -77 -44 -188 -67 -353
-73 -203 -7 -314 10 -315 47 0 3 98 5 218 6 190 1 227 3 297 23 108 29 184 67
204 102 21 38 35 37 27 -3z m-1817 -97 c51 -27 52 -29 32 -41 -18 -9 -28 -8
-54 9 -48 30 -95 82 -103 116 -7 30 -7 30 32 -13 21 -23 63 -55 93 -71z m2034
40 c20 -19 37 -38 37 -42 0 -4 -25 3 -55 14 -51 21 -55 24 -55 56 0 38 3 37
73 -28z m-5278 -17 c4 -36 3 -70 -2 -74 -17 -15 -175 -40 -193 -30 -26 14 -39
12 -15 -2 16 -9 -35 -23 -285 -75 l-305 -63 -57 23 c-51 19 -59 26 -64 54 -3
18 -4 38 -2 45 3 8 90 29 244 59 l239 45 98 -39 c55 -21 101 -37 103 -34 2 2
-36 19 -86 37 -49 19 -87 36 -84 39 6 6 353 77 385 80 13 1 18 -13 24 -65z
m4173 52 c49 -25 65 -51 60 -98 -3 -24 -6 -49 -9 -56 -3 -10 18 -14 91 -16
147 -4 220 -45 220 -123 0 -106 -192 -162 -510 -149 -146 5 -282 20 -301 31
-12 8 54 157 102 232 87 133 170 193 267 193 29 0 65 -6 80 -14z m980 -68
c-12 -9 -34 -17 -48 -17 -24 0 -24 1 -5 12 10 7 31 23 45 37 23 23 25 24 28 6
2 -12 -6 -27 -20 -38z m-4748 27 c0 -8 -9 -15 -20 -15 -11 0 -20 7 -20 15 0 8
9 15 20 15 11 0 20 -7 20 -15z m3487 -2 c-9 -9 -19 -14 -23 -11 -10 10 6 28
24 28 15 0 15 -1 -1 -17z m394 -30 c0 -10 2 -28 5 -40 3 -16 -1 -23 -11 -23
-11 0 -15 11 -15 40 0 38 19 59 21 23z m-3869 -53 c1 -33 2 -68 2 -77 1 -10
-6 -19 -16 -21 -17 -3 -22 10 -33 106 -7 51 -6 52 19 52 25 0 26 -3 28 -60z
m4874 15 c173 -84 207 -170 102 -260 -114 -97 -355 -174 -698 -222 -178 -25
-767 -25 -953 0 -545 74 -864 231 -781 384 19 37 48 61 127 104 l51 27 45 -30
c25 -17 47 -32 48 -33 2 -1 -7 -19 -18 -41 -31 -60 -23 -134 21 -179 40 -42
105 -65 179 -65 31 0 108 -9 171 -20 63 -11 116 -20 118 -20 1 0 2 -7 2 -15 0
-23 32 -34 137 -49 233 -34 454 -27 595 17 64 19 83 21 153 14 188 -19 300 8
337 81 l16 34 104 1 c88 2 110 6 152 27 28 14 59 37 70 52 43 60 16 155 -53
186 -20 9 -38 17 -40 19 -6 4 8 33 16 33 4 0 48 -20 99 -45z m139 3 c117 -38
350 -34 467 8 49 17 62 10 30 -17 -62 -50 -284 -74 -418 -46 -82 18 -160 52
-168 74 -5 11 -2 13 11 8 10 -4 45 -16 78 -27z m-3015 -117 c8 -42 68 -65 165
-64 102 1 159 19 163 52 2 14 22 47 45 74 40 47 43 49 80 43 22 -4 52 -13 68
-21 l28 -15 -25 -38 c-19 -27 -24 -45 -21 -69 l6 -32 -72 -17 c-94 -22 -336
-30 -451 -15 -142 19 -256 68 -256 111 0 33 74 82 147 99 36 8 40 6 78 -37 22
-25 42 -57 45 -71z m-2397 37 c3 -21 3 -38 -1 -38 -4 0 -43 12 -87 27 l-80 27
75 16 c41 10 78 14 81 11 4 -3 9 -23 12 -43z m-92 -20 c85 -28 98 -35 102 -57
3 -14 2 -29 -1 -33 -14 -13 -529 -118 -548 -112 -11 4 -16 3 -11 -2 8 -8 -371
-95 -385 -87 -4 2 -6 40 -4 86 l3 82 59 11 c58 12 59 12 183 -37 69 -26 127
-47 128 -45 2 2 -45 23 -104 46 -59 24 -111 46 -115 49 -4 4 34 15 85 25 50
10 182 38 292 62 110 23 204 43 209 43 6 1 54 -13 107 -31z m2554 -23 c51 -18
139 -19 198 -1 49 15 68 8 40 -15 -22 -19 -238 -19 -271 -1 -12 7 -20 17 -17
23 7 11 2 12 50 -6z m-2045 -47 c6 -24 15 -53 20 -66 13 -30 5 -42 -25 -42
-21 0 -25 6 -30 48 -3 26 -9 59 -11 75 -5 22 -2 27 15 27 15 0 23 -10 31 -42z
m4816 -13 c-24 -37 -69 -55 -165 -67 -104 -14 -141 -7 -141 25 0 22 3 22 74
19 87 -5 171 16 213 52 22 19 29 21 31 10 2 -8 -4 -26 -12 -39z m-6110 8 l39
-17 -30 -7 c-54 -12 -62 -10 -67 16 -6 30 5 31 58 8z m4180 -63 c51 -17 238
-7 330 17 l72 19 -10 -27 c-8 -24 -19 -30 -81 -45 -99 -23 -236 -30 -294 -14
-50 15 -123 76 -123 104 0 15 6 13 34 -12 19 -16 51 -35 72 -42z m-3282 3 c2
-16 7 -48 11 -73 l6 -46 -268 -57 c-147 -31 -271 -57 -275 -57 -7 0 -12 150
-5 150 1 0 115 25 252 54 138 30 255 55 262 55 6 1 14 -11 17 -26z m6926 -1
l115 -28 3 -205 2 -205 -140 -48 c-77 -27 -139 -50 -137 -52 2 -2 64 16 137
41 74 25 135 45 137 45 2 0 3 -111 3 -246 0 -193 -3 -245 -12 -241 -7 2 -139
39 -293 81 -154 43 -288 80 -297 82 -13 4 0 19 55 64 39 32 81 71 93 86 15 21
41 36 93 52 40 13 71 26 69 28 -3 2 -37 -7 -77 -21 l-72 -24 7 107 7 107 63
58 c85 78 106 124 112 248 3 55 7 99 11 99 3 -1 58 -13 121 -28z m-2425 -58
c-29 -44 -93 -82 -168 -99 -142 -32 -429 -29 -598 6 -39 9 -48 15 -52 36 -5
25 -3 25 37 19 148 -21 339 -29 461 -18 171 15 237 34 289 86 39 39 41 40 44
18 2 -13 -4 -34 -13 -48z m379 22 c-10 -40 -65 -83 -124 -95 -64 -14 -100 -14
-176 -1 -88 16 -90 17 -70 39 14 15 24 17 59 10 108 -21 223 0 280 51 18 15
33 27 35 25 2 -1 0 -14 -4 -29z m-2467 18 c-3 -3 -12 -4 -19 -1 -8 3 -5 6 6 6
11 1 17 -2 13 -5z m283 -4 c-14 -4 -81 -8 -150 -7 l-125 1 125 6 c69 3 136 6
150 7 l25 1 -25 -8z m-1205 -206 c66 -33 180 -80 253 -104 l132 -45 0 -45 c0
-25 3 -62 6 -83 l7 -37 -119 41 c-207 71 -392 168 -473 250 -49 49 -71 100
-71 167 l0 59 73 -72 c60 -59 94 -82 192 -131z m5250 40 c-15 -40 -132 -164
-155 -164 -5 0 -11 30 -13 68 l-3 67 -2 -76 -2 -77 -69 -36 c-192 -101 -506
-196 -856 -260 -898 -163 -2125 -176 -3030 -31 -170 27 -437 82 -600 123
l-110 28 -8 78 c-4 44 -6 81 -3 83 2 3 37 -5 78 -16 225 -62 673 -140 966
-167 l72 -7 2 -76 2 -76 3 74 4 74 82 -6 c365 -28 466 -31 922 -31 740 0 1208
40 1751 149 500 101 857 246 954 388 l25 37 3 -52 c2 -31 -3 -69 -13 -94z
m-6284 90 c11 -26 18 -48 17 -49 -2 -1 -22 -7 -46 -13 -48 -11 -47 -12 -55 55
-5 43 -3 46 51 52 7 0 22 -20 33 -45z m3199 21 c0 -29 -12 -31 -92 -13 l-53
12 55 12 c84 18 90 17 90 -11z m-4200 -83 l0 -78 -205 -45 -205 -45 0 78 c0
54 4 80 13 82 6 2 98 22 202 44 105 22 191 41 193 41 1 1 2 -34 2 -77z m580
-135 c6 -71 10 -130 8 -133 -4 -3 -830 -202 -958 -229 -19 -5 -30 -10 -25 -11
6 -2 228 47 495 110 266 63 487 113 489 110 9 -8 2 -407 -6 -415 -8 -8 -117
-38 -734 -198 l-256 -67 -5 181 c-6 176 -2 594 5 601 2 2 143 34 313 70 170
37 386 83 479 103 149 33 171 35 176 22 3 -9 12 -74 19 -144z m605 -110 l65
-77 -58 26 c-31 14 -79 35 -107 46 -27 10 -54 24 -59 29 -6 5 -17 9 -25 9 -22
0 -206 88 -204 97 1 5 30 15 65 23 51 13 64 20 66 37 3 18 13 23 55 30 l52 8
43 -75 c23 -42 72 -110 107 -153z m2955 139 c330 -52 859 -52 1159 -1 47 8 87
13 89 10 2 -2 -27 -13 -64 -24 -301 -90 -856 -92 -1193 -5 -52 14 -101 29
-110 35 -13 8 -13 9 4 5 11 -3 63 -12 115 -20z m-3307 -48 c23 -12 133 -61
245 -109 173 -74 210 -95 259 -139 31 -29 96 -78 143 -110 50 -34 91 -69 98
-85 7 -15 11 -29 9 -32 -6 -5 -512 208 -706 297 -78 37 -90 46 -95 72 -7 38
-8 128 -1 128 3 0 25 -10 48 -22z m1128 -69 c50 -35 213 -107 351 -154 427
-146 1047 -250 1717 -286 279 -15 1056 -6 1321 15 746 60 1320 181 1660 349
57 29 107 53 110 55 3 1 3 -30 0 -69 -5 -68 -7 -74 -41 -101 -34 -27 -37 -28
-65 -13 -48 25 -62 19 -89 -35 -16 -32 -35 -54 -52 -61 -34 -13 -54 4 -23 21
12 6 33 36 47 66 13 30 34 60 45 68 26 18 59 7 75 -25 7 -13 18 -24 25 -24 15
0 58 63 57 84 0 10 -5 6 -12 -10 -23 -51 -57 -77 -57 -44 0 8 -14 22 -31 31
-47 24 -74 7 -105 -64 -14 -31 -37 -66 -51 -78 -32 -25 -23 -48 15 -41 l26 5
-25 -19 c-22 -17 -205 -98 -256 -113 -20 -6 -18 -2 14 48 35 52 37 54 59 39
46 -30 97 31 73 89 -25 60 -91 43 -140 -36 -67 -106 -94 -117 -164 -69 -80 55
-176 28 -191 -54 -12 -62 52 -97 96 -53 11 11 20 29 20 40 0 11 2 20 4 20 2 0
32 -13 66 -29 l61 -29 -63 -21 c-98 -32 -476 -121 -513 -121 -1 0 27 31 63 70
l66 70 13 -24 c42 -80 144 -6 109 79 -31 72 -96 58 -191 -41 -75 -78 -116
-101 -156 -85 -13 5 -50 32 -82 60 -49 43 -64 51 -98 51 -70 0 -108 -32 -109
-89 0 -42 24 -71 58 -71 28 0 62 26 62 47 0 8 -10 2 -24 -14 -24 -27 -26 -27
-53 -13 -42 23 -43 69 -3 104 42 35 86 34 136 -2 21 -16 45 -36 53 -46 26 -31
71 -48 108 -41 25 4 55 27 113 86 72 73 82 79 119 79 30 0 43 -5 51 -19 25
-48 1 -101 -45 -101 -25 0 -51 33 -40 50 3 6 1 10 -5 10 -7 0 -39 -30 -73 -66
-68 -73 -101 -94 -147 -94 -39 0 -63 12 -119 62 -24 21 -53 38 -65 38 -17 -1
-15 -3 9 -14 17 -7 37 -21 45 -31 8 -10 35 -31 59 -47 25 -15 41 -28 35 -28
-5 0 -74 -9 -154 -20 -154 -20 -471 -50 -530 -50 l-35 1 33 14 c18 8 63 42
100 75 40 36 68 55 71 48 15 -50 68 -62 106 -23 30 29 32 64 5 98 -49 61 -143
37 -224 -57 -89 -104 -147 -109 -253 -19 -82 69 -108 83 -159 83 -58 0 -94
-30 -94 -78 0 -66 67 -106 112 -65 10 9 18 25 18 35 0 16 3 17 23 7 12 -6 41
-27 65 -47 24 -19 64 -45 90 -58 l47 -23 -155 -3 c-85 -1 -182 -2 -215 -2 -33
1 -136 2 -230 3 -136 2 -166 5 -151 14 11 7 42 32 69 56 28 24 64 49 80 56 16
7 25 15 19 18 -10 7 -45 -16 -117 -77 -83 -71 -180 -60 -265 29 -30 31 -78 65
-94 65 -2 0 -2 -9 1 -20 13 -48 -59 -69 -97 -28 -27 29 -25 64 5 93 44 45 118
25 200 -54 69 -66 94 -81 135 -81 40 0 64 14 132 77 73 67 132 81 182 42 49
-39 26 -119 -35 -119 -21 0 -32 8 -43 28 -11 19 -15 22 -16 10 0 -24 35 -58
61 -58 11 0 34 14 51 30 25 26 29 36 24 62 -8 41 -40 75 -77 83 -46 10 -98
-13 -165 -76 -98 -91 -130 -91 -228 0 -77 72 -112 91 -166 91 -30 0 -47 -6
-65 -25 -61 -60 0 -165 78 -136 15 6 29 21 33 36 3 14 9 25 13 25 4 0 23 -16
42 -36 18 -20 54 -50 78 -65 39 -25 42 -29 20 -29 -49 0 -417 31 -542 45 -71
8 -139 15 -150 15 -17 1 -13 5 16 20 21 10 56 35 78 54 45 41 66 45 71 14 2
-12 15 -29 30 -37 25 -14 29 -14 55 5 66 49 20 144 -69 144 -48 0 -70 -12
-140 -77 -26 -24 -57 -43 -68 -43 -34 0 -75 26 -119 76 -97 110 -174 125 -204
41 -11 -29 18 -85 46 -92 30 -8 67 10 67 30 0 24 10 18 81 -50 43 -42 61 -65
50 -65 -71 0 -583 108 -575 121 3 5 13 9 22 9 10 0 35 14 56 32 37 31 39 31
52 12 26 -38 35 -44 64 -44 64 0 75 77 18 125 -46 39 -95 34 -151 -15 -59 -52
-88 -52 -136 -2 -20 21 -49 55 -65 76 -53 71 -123 78 -145 14 -24 -68 53 -133
92 -78 14 20 15 20 47 -22 18 -24 47 -55 63 -70 17 -16 25 -28 18 -28 -8 0
-101 29 -208 65 -180 61 -363 140 -378 165 -4 6 10 11 37 11 l43 2 -47 6 c-52
8 -81 29 -109 81 -33 64 -35 65 -53 47 -9 -9 -24 -14 -34 -11 -15 5 -15 4 1
-6 14 -9 22 -9 34 2 13 11 17 11 21 0 2 -7 19 -35 37 -63 l34 -50 -31 18 c-16
10 -49 35 -72 55 -37 32 -42 42 -45 82 -2 54 12 65 57 42 19 -10 41 -39 66
-85 28 -53 43 -72 67 -80 31 -11 69 -1 69 19 0 5 9 12 20 15 30 9 65 -17 96
-72 15 -27 34 -56 42 -66 8 -9 12 -20 9 -24 -12 -12 -55 19 -67 48 -17 41 -47
66 -62 51 -9 -9 -8 -12 5 -12 9 0 24 -12 34 -27 30 -49 56 -73 79 -73 34 0 39
19 12 48 -14 15 -37 48 -52 74 -41 74 -81 86 -127 42 -25 -24 -29 -25 -56 -12
-18 8 -40 35 -60 73 -41 77 -77 109 -115 101 -26 -5 -28 -3 -28 24 0 36 3 36
41 9z m-1141 -231 l0 -119 43 -19 43 -19 -8 -78 c-21 -205 -155 -924 -175
-944 -10 -10 -127 -59 -131 -55 -1 2 9 50 22 107 42 179 125 598 146 739 12
75 23 220 27 327 5 154 9 190 20 186 10 -4 13 -34 13 -125z m154 48 c123 -55
510 -219 600 -254 48 -19 49 -20 101 -133 29 -63 51 -115 50 -117 -2 -2 -115
42 -252 98 -136 56 -335 136 -440 178 l-192 77 -1 103 c0 56 3 102 6 102 3 0
61 -24 128 -54z m979 3 c67 -64 266 -173 421 -231 535 -200 1264 -312 2126
-325 709 -11 1249 44 1785 179 320 81 540 170 719 292 54 37 101 64 105 61 12
-13 -136 -140 -214 -186 -383 -222 -1042 -373 -1840 -420 -258 -15 -972 -6
-1222 15 -795 69 -1460 242 -1769 461 -60 43 -134 117 -134 134 0 5 -3 16 -6
25 -8 22 3 20 29 -5z m5070 -38 c6 -6 -93 -81 -108 -81 -5 0 25 69 39 88 10
13 53 9 69 -7z m-284 -53 c11 -30 3 -55 -22 -73 -24 -17 -62 -2 -53 21 11 29
-5 12 -39 -40 -40 -63 -78 -96 -112 -96 -13 0 -46 11 -73 25 -63 32 -76 31
-83 -4 -11 -52 -78 -66 -90 -20 -7 27 5 59 33 84 32 29 88 26 141 -9 76 -51
114 -38 169 60 33 58 51 73 93 74 20 0 30 -6 36 -22z m-4135 -42 c22 -24 58
-62 78 -85 50 -55 91 -56 147 -6 59 54 120 56 158 6 27 -36 10 -91 -29 -91
-24 0 -61 38 -54 56 8 22 -19 17 -51 -10 -86 -71 -137 -61 -218 44 -25 33 -50
60 -54 60 -5 0 -11 -9 -14 -20 -13 -51 -77 -23 -77 35 0 69 54 75 114 11z
m4626 -156 c139 -39 277 -77 307 -86 l53 -15 0 -107 0 -107 -277 -109 c-153
-60 -293 -115 -311 -123 l-33 -14 21 40 c84 165 58 377 -63 516 l-35 40 27 17
c14 9 33 17 42 17 9 1 130 -31 269 -69z m-5984 -59 c148 -59 278 -112 289
-116 l20 -7 -20 -9 c-16 -7 -14 -8 9 -4 19 4 55 -5 116 -30 117 -49 120 -56
120 -254 l0 -148 -87 -26 c-49 -15 -277 -85 -507 -157 -231 -71 -422 -128
-424 -125 -2 2 5 44 17 92 12 48 37 168 56 267 18 98 37 182 42 186 4 5 149
48 320 96 172 48 311 90 308 92 -2 2 -141 -35 -308 -82 -167 -47 -308 -86
-314 -86 -6 0 -1 52 13 133 13 72 26 169 30 215 7 80 8 83 29 78 13 -3 144
-55 291 -115z m1982 89 c23 -16 49 -42 59 -56 28 -43 92 -84 130 -84 26 0 45
10 81 43 96 88 141 100 193 48 33 -33 36 -56 12 -83 -29 -32 -83 -20 -83 18 0
40 -59 24 -109 -30 -14 -14 -42 -31 -62 -36 -53 -15 -95 5 -173 80 -56 54 -87
76 -72 51 3 -5 -3 -20 -13 -32 -19 -23 -21 -23 -48 -9 -21 12 -29 24 -31 52
-6 70 47 88 116 38z m3669 -53 c78 -89 108 -180 100 -306 -9 -149 -48 -221
-241 -443 -105 -121 -160 -205 -206 -315 -34 -81 -60 -201 -60 -278 l0 -55
-55 0 -54 0 4 53 4 52 -11 -53 -11 -52 -73 0 -74 0 0 43 c0 66 27 218 55 304
13 43 56 139 95 213 156 299 189 384 176 455 -5 27 -3 35 12 39 37 12 74 63
79 109 5 38 1 48 -24 77 -20 22 -42 35 -69 39 l-39 6 84 32 84 32 33 -34 c93
-99 115 -278 51 -419 -14 -30 -67 -119 -118 -198 -51 -79 -116 -192 -145 -253
-49 -102 -105 -273 -103 -320 0 -11 11 23 24 75 46 177 97 283 248 514 122
188 141 234 141 356 1 82 -3 103 -25 150 -14 31 -41 73 -60 95 -19 21 -29 40
-24 42 6 2 42 19 80 38 39 18 75 34 81 34 7 1 25 -14 41 -32z m-1502 -12 c14
-13 25 -29 25 -35 0 -20 -20 -49 -41 -60 -28 -15 -73 13 -66 41 9 32 -12 22
-76 -40 -79 -74 -118 -95 -183 -94 -58 0 -76 9 -162 75 -35 26 -69 48 -76 48
-8 0 -16 -13 -19 -29 -7 -35 -34 -46 -71 -30 -55 25 -41 105 22 123 45 13 107
-13 177 -75 63 -55 91 -69 134 -69 33 0 92 37 129 82 73 87 158 113 207 63z
m-4818 -75 c-11 -145 -49 -351 -66 -360 -14 -7 -170 -53 -801 -235 -63 -18
-116 -32 -117 -31 -1 0 -3 101 -5 224 l-3 222 50 14 c28 8 156 42 285 75 129
33 327 85 440 115 113 30 209 55 214 55 5 1 6 -34 3 -79z m1971 -15 c9 -4 -1
-21 -32 -56 -63 -70 -89 -143 -90 -249 -1 -161 38 -233 225 -425 75 -77 155
-169 178 -204 49 -77 89 -197 98 -295 l6 -72 -51 1 -51 0 -6 45 c-28 223 -96
352 -264 494 -215 182 -292 278 -321 405 -28 121 13 261 105 360 l46 49 72
-24 c40 -14 78 -27 85 -29z m193 -57 c138 -39 148 -44 151 -68 5 -35 -9 -97
-29 -126 -21 -33 -83 -64 -128 -64 -76 0 -125 49 -125 125 0 112 139 146 169
42 l9 -32 1 31 c2 60 -79 100 -138 69 -43 -21 -62 -55 -63 -108 -1 -61 26
-105 82 -133 41 -21 44 -25 42 -56 -6 -63 35 -162 114 -280 133 -198 200 -353
230 -532 9 -53 15 -99 13 -101 -2 -2 -31 -5 -64 -6 l-60 -3 -8 79 c-10 105
-48 212 -104 299 -25 39 -102 128 -170 197 -69 70 -138 146 -154 170 -75 113
-91 298 -36 411 24 49 94 128 114 128 3 0 73 -19 154 -42z m3728 13 c-32 -32
-37 -62 -14 -81 12 -10 13 -6 8 23 -4 28 -1 37 18 51 34 23 73 20 108 -10 73
-61 11 -164 -99 -164 -71 0 -130 45 -155 117 -7 21 -12 40 -10 42 4 3 154 49
167 50 3 1 -7 -12 -23 -28z m-167 -79 c23 -64 74 -111 139 -128 28 -7 56 -11
60 -8 17 10 9 -75 -12 -138 -11 -35 -44 -108 -72 -162 l-52 -99 -135 -53
c-202 -79 -815 -318 -978 -380 -78 -31 -147 -52 -152 -49 -5 3 -14 15 -20 25
-9 17 -6 18 44 13 52 -5 55 -4 94 35 32 32 43 52 52 99 13 61 3 130 -23 162
-17 20 -73 42 -91 35 -36 -14 -9 195 47 369 26 80 38 105 57 114 19 10 20 13
8 13 -10 0 -18 6 -18 14 0 14 43 26 94 26 l31 -1 -30 -14 c-44 -20 -27 -18 35
4 30 11 111 27 180 36 252 33 682 114 699 131 14 13 28 -2 43 -44z m-3247 -11
c53 -11 99 -22 103 -25 5 -6 42 -116 38 -116 0 0 -24 9 -52 20 -29 10 -90 25
-135 31 l-84 12 0 54 c0 44 3 52 17 48 9 -3 60 -14 113 -24z m283 -47 l52 -7
0 -173 c0 -201 0 -200 95 -230 54 -17 57 -17 119 3 l64 21 6 -30 c3 -17 6 -59
6 -94 l0 -63 -55 -16 c-30 -8 -55 -20 -55 -24 0 -5 -43 -24 -96 -41 -52 -18
-93 -34 -91 -36 2 -2 37 7 78 21 41 14 77 25 81 25 4 0 5 -20 2 -44 -7 -51 8
-108 43 -153 33 -45 57 -56 121 -54 101 2 179 57 202 143 17 60 30 147 30 194
l0 42 113 40 c169 60 256 86 262 80 3 -3 -12 -41 -32 -84 -35 -73 -38 -86 -38
-166 l0 -87 -35 -16 c-90 -44 -173 -140 -241 -282 l-40 -83 -409 0 -410 0 -4
23 c-3 12 -8 45 -11 72 -4 28 -15 85 -26 129 -11 43 -19 79 -17 81 2 1 67 24
146 50 78 26 141 50 138 52 -2 2 -63 -17 -136 -42 -73 -25 -138 -45 -144 -45
-10 0 -46 59 -46 75 0 2 33 19 73 38 88 41 188 130 225 201 48 94 30 247 -38
321 -15 17 -60 143 -60 170 0 4 17 5 38 1 20 -3 61 -9 90 -12z m165 -24 l37 0
0 -186 0 -186 -27 7 c-15 3 -42 13 -60 20 l-33 14 0 172 0 171 23 -6 c12 -3
39 -6 60 -6z m4087 -343 l0 -343 -37 -18 c-21 -10 -137 -62 -258 -116 -121
-54 -305 -137 -410 -184 l-190 -86 -89 0 -89 0 7 73 c9 103 33 190 76 283 49
106 98 176 207 299 49 55 104 120 121 145 32 45 35 46 340 167 169 67 310 122
315 123 4 0 7 -154 7 -343z m-3987 231 c31 -86 57 -185 57 -218 0 -7 -83 -40
-101 -40 -4 0 -6 81 -6 180 0 99 3 180 7 180 3 0 23 -46 43 -102z m84 75 c16
-21 72 -229 90 -336 19 -115 13 -310 -12 -379 -9 -26 -30 -59 -46 -72 -25 -21
-34 -24 -56 -15 -39 15 -54 29 -70 68 -18 43 -19 127 -1 148 37 46 88 31 88
-25 0 -41 -7 -56 -30 -65 -10 -4 -8 -6 7 -6 34 -1 44 29 50 163 7 153 -6 250
-58 411 -21 67 -39 125 -39 129 0 11 65 -7 77 -21z m100 7 l41 0 31 -127 c43
-177 56 -317 42 -436 -12 -102 -32 -170 -59 -200 -18 -21 -72 -47 -97 -47 -13
0 -12 4 4 28 40 54 54 144 48 302 -6 152 -26 264 -71 403 -14 43 -26 80 -26
83 0 4 10 4 23 0 12 -3 41 -6 64 -6z m-705 -31 c102 -27 174 -91 204 -181 43
-131 -45 -283 -214 -372 -41 -21 -76 -36 -78 -33 -3 3 22 20 56 38 122 65 190
147 190 230 0 35 -6 47 -35 74 -22 21 -49 36 -75 40 -40 7 -40 7 -40 50 0 24
-4 46 -9 49 -4 3 -6 -5 -4 -17 2 -12 0 -32 -4 -45 -8 -21 -17 -24 -83 -28 -41
-3 -89 -8 -106 -13 -31 -9 -32 -8 -37 32 -3 22 -13 47 -22 56 -14 15 -15 13
-5 -16 6 -17 10 -44 8 -60 -2 -22 -9 -29 -30 -31 -22 -3 -28 2 -36 30 -6 18
-12 50 -14 72 -3 38 -2 38 50 58 34 13 63 32 82 57 l30 37 65 -7 c36 -5 84
-13 107 -20z m1120 5 l127 -7 -22 -31 c-12 -17 -25 -33 -29 -36 -14 -11 -38
-79 -38 -107 0 -16 7 -39 16 -51 8 -12 13 -22 10 -22 -15 0 -162 73 -203 101
-57 39 -151 126 -165 153 -10 18 -7 19 83 13 52 -4 151 -9 221 -13z m1018 12
c0 -2 -11 -34 -25 -71 -52 -138 -75 -253 -85 -420 -10 -177 -4 -210 39 -210
14 0 26 7 29 15 4 12 2 13 -9 3 -20 -19 -28 -16 -40 14 -13 36 -2 101 20 113
76 40 125 -111 69 -212 -44 -81 -109 -72 -151 20 -20 42 -22 64 -22 212 0 123
5 187 19 250 16 76 71 263 83 283 4 7 73 10 73 3z m-260 -83 c-12 -37 -33 -80
-47 -94 -29 -32 -122 -84 -131 -74 -4 4 -7 57 -7 118 l0 112 100 5 c55 3 102
4 104 3 1 -1 -7 -32 -19 -70z m165 60 c-56 -148 -96 -364 -97 -522 0 -124 11
-186 44 -238 18 -30 18 -33 2 -33 -23 0 -125 96 -143 135 -10 21 -14 67 -14
155 1 139 23 268 74 426 l30 94 56 0 c48 0 54 -2 48 -17z m-395 -82 c0 -61 7
-117 24 -180 l24 -92 -32 -23 c-44 -33 -96 -48 -179 -49 -86 -2 -154 16 -196
52 l-32 26 20 55 c28 78 44 182 39 246 l-5 54 169 0 168 0 0 -89z m-373 -23
c-10 -153 -19 -171 -65 -128 -31 30 -37 64 -18 114 18 47 65 115 80 116 5 0 6
-44 3 -102z m-2397 -568 l0 -350 -70 0 -70 0 0 193 c0 105 -3 332 -6 502 l-6
310 76 -153 76 -152 0 -350z m2173 439 c54 -27 107 -49 116 -49 52 0 14 -20
-136 -72 -92 -31 -169 -58 -169 -58 -1 0 -5 33 -8 73 -4 39 -16 115 -27 169
-10 53 -19 99 -19 102 0 3 33 -21 72 -55 41 -33 116 -82 171 -110z m-3634 54
c-11 -49 -33 -143 -49 -211 -40 -164 -40 -166 14 -201 l45 -28 -192 -61 c-339
-107 -712 -224 -720 -225 -8 -2 -10 543 -2 551 3 3 193 59 785 230 151 44 141
48 119 -55z m2658 -52 c100 -46 81 -152 -43 -243 -45 -32 -126 -78 -138 -78
-3 0 -17 21 -30 48 -13 26 -44 74 -68 107 -69 95 -92 135 -81 146 16 16 144
37 233 38 63 0 96 -4 127 -18z m1736 -123 l-17 -125 -29 61 c-16 34 -35 78
-42 98 l-14 37 57 29 c31 16 58 29 60 27 1 -1 -5 -58 -15 -127z m-3109 -215
c3 -181 8 -356 10 -390 l4 -63 -1105 -2 c-608 -2 -1106 -1 -1108 2 -1 3 1 27
4 54 l6 50 180 57 c687 218 751 237 777 232 31 -6 116 20 173 52 23 13 207 75
410 139 500 155 629 195 636 196 4 0 9 -147 13 -327z m225 173 c16 -30 51 -79
76 -110 l45 -56 0 -230 0 -230 -81 0 -80 0 3 340 c1 187 3 340 4 340 1 0 16
-24 33 -54z m2452 -35 c100 -22 232 -4 292 40 16 11 31 18 35 14 12 -12 -15
-40 -64 -65 -44 -23 -61 -25 -169 -25 -128 0 -173 13 -218 63 -32 36 -9 44 34
12 22 -15 63 -33 90 -39z m-75 -24 c105 -53 314 -37 393 29 l29 24 18 -52 c21
-64 21 -145 0 -186 -51 -99 -216 -154 -355 -118 -78 20 -123 46 -158 93 -36
47 -44 151 -18 219 l17 45 22 -19 c11 -11 35 -27 52 -35z m1925 -36 c-75 -148
-117 -305 -123 -454 l-3 -77 -508 0 -508 0 -10 29 c-6 17 -19 47 -30 67 -10
21 -18 39 -16 40 6 6 1232 482 1235 479 2 -2 -15 -39 -37 -84z m-3783 -15 c97
-83 138 -131 121 -142 -17 -10 -193 5 -249 22 -56 17 -71 36 -59 79 9 33 74
115 91 115 5 0 49 -33 96 -74z m-173 -162 c34 -9 123 -18 203 -21 l144 -6 21
-43 c14 -30 18 -47 11 -54 -8 -8 -553 -200 -569 -200 -3 0 -5 92 -5 204 l0
204 68 -34 c37 -19 94 -41 127 -50z m2541 8 c-2 -1 -10 0 -18 3 -13 5 -14 11
-4 36 l11 30 7 -33 c3 -18 5 -34 4 -36z m2694 -167 l0 -195 -435 -2 c-238 -2
-431 0 -427 4 6 5 850 386 860 388 1 0 2 -88 2 -195z m-3287 120 l27 -33 -42
-25 c-58 -34 -148 -130 -188 -200 l-32 -57 -48 0 -49 0 25 58 c56 125 142 229
229 275 41 22 46 21 78 -18z m607 -7 c66 -40 139 -128 186 -224 19 -39 34 -74
34 -78 0 -3 -24 -6 -52 -6 l-53 0 -34 65 c-42 83 -107 155 -165 186 l-45 24
31 32 c18 18 35 33 38 33 3 0 30 -15 60 -32z m-535 -50 c24 -11 25 -15 25 -89
l0 -78 -54 -35 c-30 -19 -57 -39 -60 -45 -8 -12 -196 -16 -196 -3 0 11 39 73
82 129 35 46 145 133 169 133 4 0 20 -5 34 -12z m456 -24 c61 -38 135 -132
177 -226 2 -5 -38 -8 -90 -8 l-93 1 -43 39 c-44 39 -44 40 -49 121 -5 71 -4
84 11 95 20 14 35 10 87 -22z m-129 -122 l3 -112 -137 0 -138 0 0 113 0 112
134 0 135 0 3 -113z m-1928 21 c9 -40 16 -86 16 -102 l0 -31 -315 0 c-173 0
-315 3 -315 8 0 10 584 211 591 203 4 -3 14 -38 23 -78z m1626 -113 c0 -16 -7
-20 -37 -20 l-38 0 30 20 c38 25 45 25 45 0z m360 -5 c10 -12 10 -15 -4 -15
-9 0 -16 7 -16 15 0 8 2 15 4 15 2 0 9 -7 16 -15z"/>
<path d="M1621 9072 c-6 -11 -11 -27 -10 -34 0 -7 5 -2 11 12 10 24 10 24 18
5 6 -13 9 -15 9 -5 0 8 -3 21 -8 29 -7 11 -11 10 -20 -7z"/>
<path d="M1656 9000 c4 -19 11 -44 15 -55 6 -14 7 -9 3 15 -4 19 -11 44 -15
55 -6 14 -7 9 -3 -15z"/>
<path d="M1586 8964 c-4 -14 -5 -28 -3 -31 3 -2 8 8 11 23 4 14 5 28 3 31 -3
2 -8 -8 -11 -23z"/>
<path d="M1691 8874 c0 -11 3 -14 6 -6 3 7 2 16 -1 19 -3 4 -6 -2 -5 -13z"/>
<path d="M1170 8838 l-32 -43 35 38 34 37 43 -70 c23 -39 61 -96 86 -125 39
-48 44 -61 46 -107 l2 -53 3 48 c4 43 6 47 31 48 15 0 43 7 62 15 20 8 24 12
10 9 -91 -20 -88 -21 -135 31 -24 27 -66 86 -92 131 -26 45 -51 82 -55 83 -3
0 -21 -19 -38 -42z"/>
<path d="M1533 8834 c-13 -12 -23 -24 -23 -28 0 -4 7 0 16 8 8 9 32 17 52 17
28 1 31 3 12 6 -14 3 -27 8 -30 12 -3 3 -15 -3 -27 -15z"/>
<path d="M1660 8839 l-45 -6 45 -1 c50 -2 94 -26 86 -48 -3 -8 -1 -14 4 -14
15 0 12 27 -5 42 -33 30 -42 33 -85 27z"/>
<path d="M1500 8782 c0 -7 4 -12 9 -12 5 0 17 -7 25 -16 9 -8 16 -11 16 -5 0
7 28 11 75 11 l75 0 2 -97 2 -98 3 95 c3 59 8 97 16 102 7 4 -35 8 -93 8 -69
0 -110 4 -118 12 -9 9 -12 9 -12 0z"/>
<path d="M1137 8744 c-4 -4 -7 -12 -7 -18 0 -6 5 -4 10 4 9 13 11 13 21 0 9
-12 10 -12 7 -1 -5 17 -21 25 -31 15z"/>
<path d="M1540 8691 c0 -22 -4 -41 -9 -43 -5 -1 -3 -9 5 -16 12 -11 14 -4 14
43 0 30 -2 55 -5 55 -3 0 -5 -18 -5 -39z"/>
<path d="M1637 8711 c-4 -17 -3 -21 5 -13 5 5 8 16 6 23 -3 8 -7 3 -11 -10z"/>
<path d="M1753 8683 c20 -2 54 -2 75 0 20 2 3 4 -38 4 -41 0 -58 -2 -37 -4z"/>
<path d="M1186 8658 c19 -61 43 -122 43 -112 1 14 -40 134 -46 134 -2 0 -1
-10 3 -22z"/>
<path d="M1888 8673 c12 -2 32 -2 45 0 12 2 2 4 -23 4 -25 0 -35 -2 -22 -4z"/>
<path d="M1290 8365 c-25 -7 -36 -13 -25 -13 11 0 38 5 60 13 52 17 24 17 -35
0z"/>
<path d="M1143 8353 c9 -2 25 -2 35 0 9 3 1 5 -18 5 -19 0 -27 -2 -17 -5z"/>
<path d="M1800 8304 l-45 -14 40 6 c22 3 47 10 55 15 21 12 3 10 -50 -7z"/>
<path d="M1718 8283 c6 -2 18 -2 25 0 6 3 1 5 -13 5 -14 0 -19 -2 -12 -5z"/>
<path d="M1660 8270 c-18 -12 -2 -12 25 0 13 6 15 9 5 9 -8 0 -22 -4 -30 -9z"/>
<path d="M5420 9074 c-458 -64 -1254 -176 -1552 -218 -203 -29 -301 -39 -308
-32 -7 7 -10 6 -10 -1 0 -7 4 -14 9 -17 12 -8 291 -38 304 -33 7 2 -43 10
-110 17 -68 8 -121 16 -118 18 4 4 114 21 545 81 354 49 1275 179 1420 199 74
11 119 20 100 20 -19 0 -145 -15 -280 -34z"/>
<path d="M4033 9053 c9 -2 25 -2 35 0 9 3 1 5 -18 5 -19 0 -27 -2 -17 -5z"/>
<path d="M3963 9043 c9 -2 23 -2 30 0 6 3 -1 5 -18 5 -16 0 -22 -2 -12 -5z"/>
<path d="M3898 9033 c7 -3 16 -2 19 1 4 3 -2 6 -13 5 -11 0 -14 -3 -6 -6z"/>
<path d="M3871 9014 c0 -11 3 -14 6 -6 3 7 2 16 -1 19 -3 4 -6 -2 -5 -13z"/>
<path d="M3993 9013 c9 -2 25 -2 35 0 9 3 1 5 -18 5 -19 0 -27 -2 -17 -5z"/>
<path d="M3933 9003 c9 -2 23 -2 30 0 6 3 -1 5 -18 5 -16 0 -22 -2 -12 -5z"/>
<path d="M5098 8913 c-10 -2 -18 -9 -18 -14 0 -6 7 -6 19 1 11 5 40 10 65 10
44 0 45 0 49 -37 l4 -38 1 38 c2 31 5 37 20 33 74 -21 100 -24 137 -16 22 5
61 10 88 10 26 0 47 4 47 8 0 8 -124 -2 -158 -12 -9 -3 -42 1 -72 9 -52 14
-144 18 -182 8z"/>
<path d="M3552 8865 c0 -16 2 -22 5 -12 2 9 2 23 0 30 -3 6 -5 -1 -5 -18z"/>
<path d="M5071 8860 c-1 -14 -4 -72 -6 -130 l-3 -105 9 90 c5 50 8 108 6 130
-2 22 -4 29 -6 15z"/>
<path d="M5438 8823 c6 -2 18 -2 25 0 6 3 1 5 -13 5 -14 0 -19 -2 -12 -5z"/>
<path d="M5494 8710 c0 -69 1 -97 3 -62 2 34 2 90 0 125 -2 34 -3 6 -3 -63z"/>
<path d="M4970 8780 c-17 -6 -9 -7 25 -3 28 3 52 7 54 9 8 7 -54 2 -79 -6z"/>
<path d="M5203 8710 c0 -41 2 -58 4 -37 2 20 2 54 0 75 -2 20 -4 3 -4 -38z"/>
<path d="M5393 8773 c15 -2 37 -2 50 0 12 2 0 4 -28 4 -27 0 -38 -2 -22 -4z"/>
<path d="M3898 8763 c12 -2 32 -2 45 0 12 2 2 4 -23 4 -25 0 -35 -2 -22 -4z"/>
<path d="M4596 8720 c-16 -5 -40 -8 -55 -6 -14 2 -17 1 -7 -1 16 -4 12 -9 -19
-26 -21 -12 -40 -29 -43 -37 -3 -10 0 -10 10 3 7 10 44 29 81 42 l68 25 10
-23 10 -22 -5 23 c-3 18 0 22 12 18 32 -8 77 -15 63 -9 -11 5 -11 7 0 14 18
11 -86 10 -125 -1z"/>
<path d="M5418 8703 c12 -2 30 -2 40 0 9 3 -1 5 -23 4 -22 0 -30 -2 -17 -4z"/>
<path d="M4172 8630 c-23 -17 -42 -33 -42 -36 0 -4 56 34 85 58 23 20 -6 5
-43 -22z"/>
<path d="M4590 8630 c-8 -5 -10 -10 -5 -10 6 0 17 5 25 10 8 5 11 10 5 10 -5
0 -17 -5 -25 -10z"/>
<path d="M4481 8620 c0 -8 4 -24 9 -35 5 -13 9 -14 9 -5 0 8 -4 24 -9 35 -5
13 -9 14 -9 5z"/>
<path d="M4600 8590 c-8 -5 -10 -10 -5 -10 6 0 17 5 25 10 8 5 11 10 5 10 -5
0 -17 -5 -25 -10z"/>
<path d="M5053 8540 c0 -36 2 -50 4 -32 2 17 2 47 0 65 -2 17 -4 3 -4 -33z"/>
<path d="M4189 8569 l-24 -20 28 17 c15 9 27 18 27 20 0 8 -8 4 -31 -17z"/>
<path d="M4550 8570 c-8 -5 -10 -10 -5 -10 6 0 17 5 25 10 8 5 11 10 5 10 -5
0 -17 -5 -25 -10z"/>
<path d="M4189 8519 l-24 -20 28 17 c15 9 27 18 27 20 0 8 -8 4 -31 -17z"/>
<path d="M6962 8945 c0 -16 2 -22 5 -12 2 9 2 23 0 30 -3 6 -5 -1 -5 -18z"/>
<path d="M6951 8900 c-1 -9 -15 -107 -32 -219 -16 -111 -29 -210 -27 -219 2
-10 18 83 37 205 18 122 31 227 28 235 -4 10 -6 9 -6 -2z"/>
<path d="M6882 8410 c0 -19 2 -27 5 -17 2 9 2 25 0 35 -3 9 -5 1 -5 -18z"/>
<path d="M7326 8425 c-9 -26 -7 -32 5 -12 6 10 9 21 6 23 -2 3 -7 -2 -11 -11z"/>
<path d="M7751 9014 c0 -11 3 -14 6 -6 3 7 2 16 -1 19 -3 4 -6 -2 -5 -13z"/>
<path d="M7761 8974 c0 -11 3 -14 6 -6 3 7 2 16 -1 19 -3 4 -6 -2 -5 -13z"/>
<path d="M7771 8940 c0 -8 4 -24 9 -35 5 -13 9 -14 9 -5 0 8 -4 24 -9 35 -5
13 -9 14 -9 5z"/>
<path d="M7959 8933 c-13 -16 -12 -17 4 -4 9 7 17 15 17 17 0 8 -8 3 -21 -13z"/>
<path d="M8061 8930 c14 -31 19 -36 19 -24 0 6 -7 19 -16 30 -14 18 -14 18 -3
-6z"/>
<path d="M8115 8900 c-11 -12 -25 -18 -34 -15 -12 5 -13 3 -4 -6 9 -9 19 -6
43 15 17 14 27 26 22 26 -5 0 -17 -9 -27 -20z"/>
<path d="M7740 8873 c0 -10 4 -14 8 -8 4 6 11 13 16 18 5 4 2 7 -7 7 -10 0
-17 -8 -17 -17z"/>
<path d="M7785 8870 c3 -5 8 -10 11 -10 2 0 4 5 4 10 0 6 -5 10 -11 10 -5 0
-7 -4 -4 -10z"/>
<path d="M7733 8765 c0 -44 2 -61 4 -37 2 23 2 59 0 80 -2 20 -4 1 -4 -43z"/>
<path d="M7838 8793 c7 -3 16 -2 19 1 4 3 -2 6 -13 5 -11 0 -14 -3 -6 -6z"/>
<path d="M7742 8640 c0 -19 2 -27 5 -17 2 9 2 25 0 35 -3 9 -5 1 -5 -18z"/>
<path d="M7756 8565 c16 -114 112 -243 222 -297 l65 -32 -42 -20 c-22 -11 -41
-23 -41 -27 0 -4 20 4 45 18 25 13 45 28 45 32 0 4 -25 18 -56 30 -66 28 -151
107 -185 171 -12 25 -31 72 -41 105 -14 47 -17 51 -12 20z"/>
<path d="M7732 8133 l2 -58 3 49 4 49 34 -51 c40 -59 88 -98 130 -106 l30 -6
-30 11 c-51 19 -92 57 -127 114 -18 30 -36 55 -40 55 -5 0 -7 -26 -6 -57z"/>
<path d="M7961 8150 c0 -8 4 -22 9 -30 12 -18 12 -2 0 25 -6 13 -9 15 -9 5z"/>
<path d="M7502 8120 c0 -19 2 -27 5 -17 2 9 2 25 0 35 -3 9 -5 1 -5 -18z"/>
<path d="M7989 8085 c15 -28 51 -69 55 -64 2 2 -12 22 -31 44 -20 22 -31 31
-24 20z"/>
<path d="M7492 8040 c0 -19 2 -27 5 -17 2 9 2 25 0 35 -3 9 -5 1 -5 -18z"/>
<path d="M7742 8030 c0 -24 25 -115 27 -95 0 6 -6 35 -14 65 -7 30 -13 44 -13
30z"/>
<path d="M7481 7984 c0 -11 3 -14 6 -6 3 7 2 16 -1 19 -3 4 -6 -2 -5 -13z"/>
<path d="M8141 7977 c2 -1 13 -9 24 -17 19 -14 19 -14 6 3 -7 9 -18 17 -24 17
-6 0 -8 -1 -6 -3z"/>
<path d="M8086 7953 c-6 -14 -5 -15 5 -6 7 7 10 15 7 18 -3 3 -9 -2 -12 -12z"/>
<path d="M8770 8515 c0 -5 5 -17 10 -25 5 -8 10 -10 10 -5 0 6 -5 17 -10 25
-5 8 -10 11 -10 5z"/>
<path d="M5723 8943 l28 -4 -3 -77 c-3 -75 -4 -77 -30 -80 -27 -3 -27 -3 -31
65 l-3 68 0 -70 1 -70 32 -3 c39 -4 46 13 41 108 -3 64 -3 65 -33 66 -29 2
-29 2 -2 -3z"/>
<path d="M8525 8250 c-3 -6 1 -7 9 -4 18 7 21 14 7 14 -6 0 -13 -4 -16 -10z"/>
<path d="M8512 8210 c0 -14 2 -19 5 -12 2 6 2 18 0 25 -3 6 -5 1 -5 -13z"/>
<path d="M8530 8170 c8 -5 22 -9 30 -9 10 0 8 3 -5 9 -27 12 -43 12 -25 0z"/>
<path d="M4868 8663 c6 -2 18 -2 25 0 6 3 1 5 -13 5 -14 0 -19 -2 -12 -5z"/>
<path d="M4798 8653 c7 -3 16 -2 19 1 4 3 -2 6 -13 5 -11 0 -14 -3 -6 -6z"/>
<path d="M4793 8613 c9 -2 25 -2 35 0 9 3 1 5 -18 5 -19 0 -27 -2 -17 -5z"/>
<path d="M4873 8563 c9 -2 23 -2 30 0 6 3 -1 5 -18 5 -16 0 -22 -2 -12 -5z"/>
<path d="M4793 8553 c9 -2 25 -2 35 0 9 3 1 5 -18 5 -19 0 -27 -2 -17 -5z"/>
<path d="M3983 8465 c0 -33 2 -45 4 -27 2 18 2 45 0 60 -2 15 -4 0 -4 -33z"/>
<path d="M3768 8593 c7 -3 16 -2 19 1 4 3 -2 6 -13 5 -11 0 -14 -3 -6 -6z"/>
<path d="M3769 8452 c5 -34 6 -35 9 -8 2 16 0 32 -5 37 -5 5 -7 -7 -4 -29z"/>
<path d="M3713 8340 c0 -41 2 -58 4 -37 2 20 2 54 0 75 -2 20 -4 3 -4 -38z"/>
<path d="M3783 8330 c0 -36 2 -50 4 -32 2 17 2 47 0 65 -2 17 -4 3 -4 -33z"/>
<path d="M3733 8233 c9 -2 25 -2 35 0 9 3 1 5 -18 5 -19 0 -27 -2 -17 -5z"/>
<path d="M2460 8370 c-25 -25 -26 -62 -2 -83 54 -49 114 31 62 83 -11 11 -24
20 -30 20 -5 0 -19 -9 -30 -20z m52 -7 c40 -36 10 -96 -37 -75 -29 13 -34 52
-9 76 19 20 23 20 46 -1z"/>
<path d="M4380 8196 c0 -2 16 -13 35 -25 19 -11 35 -17 35 -13 0 4 -13 15 -29
25 -29 17 -41 21 -41 13z"/>
<path d="M4536 8069 c10 -11 28 -26 39 -31 14 -8 12 -2 -9 21 -33 34 -61 44
-30 10z"/>
<path d="M4590 7995 c0 -4 10 -21 23 -38 12 -17 41 -65 65 -107 24 -41 40 -64
36 -50 -14 53 -124 226 -124 195z"/>
<path d="M3111 7781 c47 -43 93 -94 103 -112 l18 -34 -40 -60 c-37 -56 -82
-161 -82 -188 1 -7 16 22 36 62 19 41 53 99 75 128 l40 53 -20 38 c-28 56 -94
132 -142 164 -78 52 -72 28 12 -51z"/>
<path d="M2905 7819 c-33 -10 -97 -64 -132 -112 -28 -37 -29 -51 -5 -45 17 5
16 0 -6 -55 -30 -75 -27 -150 10 -223 28 -56 69 -88 142 -109 67 -21 166 -31
166 -18 0 6 -23 13 -51 16 -108 13 -192 51 -226 102 -23 34 -27 53 -31 125 -4
80 -2 88 28 144 23 42 27 57 16 53 -9 -4 -16 -2 -16 3 0 12 50 38 104 55 l41
13 -35 2 -35 2 35 15 c24 10 56 14 102 11 75 -4 88 5 31 21 -45 13 -97 13
-138 0z"/>
<path d="M4735 7720 c3 -5 8 -10 11 -10 2 0 4 5 4 10 0 6 -5 10 -11 10 -5 0
-7 -4 -4 -10z"/>
<path d="M5242 7685 c-14 -10 -22 -25 -20 -38 2 -16 17 -23 75 -37 39 -9 95
-29 124 -43 30 -14 54 -25 56 -23 9 9 -48 95 -79 119 -46 37 -121 47 -156 22z
m95 -5 c16 0 90 -66 104 -92 10 -18 9 -19 -13 -4 -26 17 -105 42 -160 51 -28
4 -36 9 -31 21 7 20 42 35 68 29 11 -3 26 -5 32 -5z"/>
<path d="M4796 7568 c8 -24 21 -77 29 -118 14 -71 15 -72 11 -19 -5 65 -35
179 -47 179 -4 0 -1 -19 7 -42z"/>
<path d="M4010 7541 c-81 -25 -167 -109 -194 -188 -30 -87 -22 -90 51 -24 59
55 133 98 236 140 33 13 35 35 5 55 -31 20 -68 26 -98 17z m80 -26 c17 -9 30
-17 30 -19 0 -2 -27 -13 -60 -25 -65 -22 -194 -102 -213 -132 -25 -41 -27 -16
-2 30 35 64 102 129 151 146 50 18 59 18 94 0z"/>
<path d="M4862 7245 c0 -16 2 -22 5 -12 2 9 2 23 0 30 -3 6 -5 -1 -5 -18z"/>
<path d="M4873 7065 c0 -27 2 -38 4 -22 2 15 2 37 0 50 -2 12 -4 0 -4 -28z"/>
<path d="M4100 7059 c-55 -23 -105 -89 -121 -158 -11 -48 6 -128 37 -173 73
-105 250 -103 321 3 25 38 28 52 28 123 0 93 -16 129 -78 179 -32 26 -48 32
-100 34 -34 2 -73 -2 -87 -8z m143 -30 c29 -15 66 -49 78 -72 9 -15 6 -15 -23
3 -65 39 -142 16 -184 -57 -44 -74 -31 -175 28 -218 l23 -17 -25 7 c-50 15
-81 36 -107 76 -56 84 -26 212 62 265 44 26 111 32 148 13z m-33 -104 c15 -18
10 -45 -12 -59 -33 -20 -69 20 -54 60 7 18 50 18 66 -1z"/>
<path d="M4927 6845 c-76 -19 -108 -37 -145 -80 -42 -47 -48 -76 -27 -130 28
-74 107 -127 216 -145 35 -5 67 -10 72 -10 11 0 8 -116 -4 -167 -14 -52 -83
-128 -145 -158 -50 -24 -141 -31 -190 -15 -60 19 -106 58 -98 82 5 17 3 18
-13 10 -21 -12 -70 -62 -60 -62 4 0 16 5 27 12 17 11 23 8 48 -15 35 -33 119
-67 167 -67 26 0 49 -10 85 -39 66 -53 128 -75 186 -68 70 7 95 32 123 118 19
57 31 79 54 94 45 29 46 50 2 24 -43 -25 -87 -22 -141 12 -30 18 -35 26 -30
48 4 14 9 65 13 113 l6 86 47 31 c104 67 161 195 121 270 -30 56 -197 86 -314
56z m218 -26 c84 -23 106 -79 64 -161 -29 -56 -103 -125 -150 -139 -76 -23
-239 44 -274 112 -42 80 5 145 130 185 50 16 177 17 230 3z m-181 -699 c7 0
30 -12 51 -26 l38 -26 -16 25 c-31 47 14 52 61 6 41 -40 40 -57 -3 -75 -42
-17 -81 -18 -126 -2 -40 13 -119 65 -119 77 0 11 70 30 88 25 8 -2 19 -4 26
-4z"/>
<path d="M3250 5701 c-94 -29 -175 -105 -229 -216 -39 -79 -37 -97 2 -21 41
78 119 161 180 191 139 67 273 28 374 -109 56 -76 57 -77 43 -42 -30 81 -115
161 -202 192 -43 15 -127 17 -168 5z"/>
<path d="M6065 5590 c3 -5 13 -10 21 -10 8 0 12 5 9 10 -3 6 -13 10 -21 10 -8
0 -12 -4 -9 -10z"/>
<path d="M5005 5580 c-4 -6 20 -10 67 -9 52 1 66 3 48 9 -36 12 -108 12 -115
0z"/>
<path d="M6120 5585 c0 -2 24 -11 53 -19 50 -15 122 -66 169 -121 10 -11 17
-15 18 -9 0 17 -92 100 -136 122 -37 18 -104 36 -104 27z"/>
<path d="M5190 5568 c14 -6 28 -10 32 -10 4 1 19 -3 33 -8 14 -5 25 -7 25 -4
0 9 -69 34 -92 33 -23 0 -23 0 2 -11z"/>
<path d="M4461 5509 c-24 -11 -42 -22 -39 -25 3 -2 23 3 44 13 47 21 48 22 43
27 -2 3 -24 -4 -48 -15z"/>
<path d="M5310 5512 c0 -6 16 -20 35 -32 19 -12 56 -48 81 -81 50 -63 62 -73
43 -36 -27 52 -159 175 -159 149z"/>
<path d="M4338 5471 c-43 -27 -65 -49 -57 -55 2 -2 30 16 63 40 66 50 63 59
-6 15z"/>
<path d="M4186 5360 c-25 -27 -46 -54 -46 -59 0 -10 55 47 89 92 26 34 3 16
-43 -33z"/>
<path d="M6411 5355 c0 -5 6 -21 14 -35 8 -14 14 -20 14 -15 0 6 -6 21 -14 35
-8 14 -14 21 -14 15z"/>
<path d="M5458 5315 c13 -16 46 -60 73 -97 28 -38 53 -68 56 -68 13 0 -102
156 -133 180 -13 11 -12 7 4 -15z"/>
<path d="M4949 5270 c77 -178 81 -191 55 -169 -9 8 -1 -18 20 -59 20 -39 38
-72 40 -72 16 0 -85 282 -115 320 -20 25 -20 25 0 -20z"/>
<path d="M6457 5210 c3 -30 10 -64 15 -75 12 -27 0 78 -12 108 -7 15 -8 5 -3
-33z"/>
<path d="M4053 5193 c-8 -21 -17 -56 -19 -78 -4 -35 -2 -33 14 20 11 33 23 68
27 78 4 9 4 17 1 17 -4 0 -14 -17 -23 -37z"/>
<path d="M5585 5083 c9 -21 27 -65 40 -98 12 -33 28 -73 34 -89 6 -16 14 -26
17 -24 6 7 -85 236 -98 244 -5 3 -2 -11 7 -33z"/>
<path d="M5025 4975 c4 -11 17 -65 30 -120 13 -55 24 -90 24 -77 1 35 -30 164
-46 192 -9 16 -12 18 -8 5z"/>
<path d="M5669 4810 c13 -19 31 -54 43 -78 11 -24 22 -41 25 -38 8 7 -34 86
-64 121 l-26 30 22 -35z"/>
<path d="M5726 4660 c20 -33 26 -34 18 -3 -3 12 -12 24 -20 27 -12 5 -11 0 2
-24z"/>
<path d="M5084 4631 c3 -14 10 -77 16 -140 14 -133 32 -228 24 -121 -9 114
-26 244 -35 265 -9 18 -9 17 -5 -4z"/>
<path d="M4380 4569 c0 -5 9 -9 20 -9 11 0 20 2 20 4 0 2 -9 6 -20 9 -11 3
-20 1 -20 -4z"/>
<path d="M4425 4550 c-4 -6 7 -10 27 -9 27 0 30 2 13 9 -27 12 -33 12 -40 0z"/>
<path d="M5142 4230 c0 -14 4 -36 8 -50 8 -24 8 -24 8 5 0 17 -3 39 -8 50 -8
18 -9 18 -8 -5z"/>
<path d="M3205 3143 c-54 -65 -95 -150 -94 -191 0 -19 6 -10 18 31 10 35 36
84 66 124 55 74 68 93 62 93 -3 0 -26 -26 -52 -57z"/>
<path d="M5844 7410 c0 -151 2 -213 3 -137 2 75 2 199 0 275 -1 75 -3 13 -3
-138z"/>
<path d="M2366 7965 c-3 -9 -6 -22 -5 -28 0 -7 5 -1 10 12 5 13 8 26 5 28 -2
2 -6 -3 -10 -12z"/>
<path d="M2353 7865 c0 -22 2 -30 4 -17 2 12 2 30 0 40 -3 9 -5 -1 -4 -23z"/>
<path d="M8800 7648 c-12 -22 -12 -22 6 -6 10 10 15 20 12 24 -4 3 -12 -5 -18
-18z"/>
<path d="M8813 7555 c0 -44 2 -61 4 -37 2 23 2 59 0 80 -2 20 -4 1 -4 -43z"/>
<path d="M8765 7594 c-9 -15 -12 -23 -6 -20 11 7 35 46 28 46 -3 0 -12 -12
-22 -26z"/>
<path d="M8511 7547 c-11 -18 -11 -20 0 -9 11 10 16 6 26 -25 l12 -38 -6 35
c-8 54 -16 63 -32 37z"/>
<path d="M8469 7493 l-24 -28 28 24 c15 14 27 26 27 28 0 8 -8 1 -31 -24z"/>
<path d="M8550 7467 c0 -16 29 -63 51 -82 l24 -20 -21 25 c-12 14 -29 39 -37
55 -9 17 -16 26 -17 22z"/>
<path d="M8822 7455 c0 -11 3 -29 8 -40 11 -25 11 1 0 35 -6 20 -8 21 -8 5z"/>
<path d="M8687 7403 c-4 -3 -7 -13 -7 -22 1 -13 3 -13 11 2 11 19 8 33 -4 20z"/>
<path d="M8841 7385 c0 -5 6 -21 14 -35 8 -14 14 -20 14 -15 0 6 -6 21 -14 35
-8 14 -14 21 -14 15z"/>
<path d="M8655 7321 c-9 -22 -15 -45 -12 -53 4 -8 6 -7 6 5 1 10 8 32 17 48 8
17 14 33 11 35 -2 2 -12 -13 -22 -35z"/>
<path d="M8860 7310 c-8 -5 -12 -11 -9 -14 2 -3 11 -1 19 4 8 5 12 11 9 14 -2
3 -11 1 -19 -4z"/>
<path d="M8861 7275 c0 -5 6 -21 14 -35 8 -14 14 -20 14 -15 0 6 -6 21 -14 35
-8 14 -14 21 -14 15z"/>
<path d="M8812 7158 l2 -53 3 49 4 48 40 -6 c21 -3 39 -3 39 1 0 5 -20 9 -45
11 l-45 3 2 -53z"/>
<path d="M8956 7188 c-9 -13 -16 -43 -16 -70 l0 -48 -43 0 c-45 0 -62 -12 -86
-57 -6 -13 -8 -23 -2 -23 5 0 12 11 15 25 8 33 40 48 90 43 l41 -5 -3 53 c-8
117 56 128 90 14 3 -10 6 -7 11 9 3 13 3 20 0 17 -3 -3 -14 9 -23 27 -21 40
-52 46 -74 15z"/>
<path d="M9083 7198 c-24 -32 -24 -41 0 -19 15 14 27 26 27 28 0 8 -19 2 -27
-9z"/>
<path d="M8686 7183 c7 -4 14 -19 17 -33 4 -22 5 -21 4 4 -1 17 -9 31 -17 33
-10 3 -11 2 -4 -4z"/>
<path d="M8445 7160 c-3 -6 1 -7 9 -4 18 7 21 14 7 14 -6 0 -13 -4 -16 -10z"/>
<path d="M8505 7160 c3 -5 8 -10 11 -10 2 0 4 5 4 10 0 6 -5 10 -11 10 -5 0
-7 -4 -4 -10z"/>
<path d="M8630 7149 c-22 -18 -22 -19 -3 -10 12 6 25 16 28 21 9 15 3 12 -25
-11z"/>
<path d="M8522 7110 c0 -14 2 -19 5 -12 2 6 2 18 0 25 -3 6 -5 1 -5 -13z"/>
<path d="M8693 7060 c0 -25 2 -35 4 -22 2 12 2 32 0 45 -2 12 -4 2 -4 -23z"/>
<path d="M8750 6970 c-11 -11 -20 -26 -20 -32 0 -7 6 -4 12 7 6 11 19 25 27
32 9 7 13 13 9 13 -5 0 -17 -9 -28 -20z"/>
<path d="M8725 6898 c5 -26 3 -28 -25 -28 -57 0 -110 -41 -110 -84 0 -9 9 -25
21 -37 l21 -21 -25 -26 c-32 -33 -47 -73 -46 -115 1 -25 3 -22 9 16 8 48 51
117 72 117 7 0 -1 13 -17 30 -25 27 -27 32 -16 59 15 35 57 55 106 49 19 -2
35 -3 35 -2 0 1 -7 17 -15 35 -14 30 -15 31 -10 7z"/>
<path d="M8463 6816 c-15 -13 -26 -26 -23 -28 3 -2 18 9 34 24 35 34 27 37
-11 4z"/>
<path d="M8521 6836 c2 -2 18 -6 34 -10 22 -5 26 -4 15 4 -14 9 -59 15 -49 6z"/>
<path d="M7405 7654 c-9 -15 -12 -23 -6 -20 11 7 35 46 28 46 -3 0 -12 -12
-22 -26z"/>
<path d="M7801 7637 c-2 -61 80 -163 166 -206 64 -32 66 -25 3 10 -90 50 -146
115 -161 188 -6 32 -7 33 -8 8z"/>
<path d="M7896 7615 c-11 -8 -15 -15 -9 -15 6 0 16 7 23 15 16 19 11 19 -14 0z"/>
<path d="M7367 7602 c-18 -20 -22 -32 -9 -32 4 0 12 11 19 25 13 30 12 31 -10
7z"/>
<path d="M7424 7595 c-10 -8 -14 -14 -9 -14 6 0 19 6 29 14 11 8 15 15 10 15
-6 0 -19 -7 -30 -15z"/>
<path d="M7452 7550 c0 -14 2 -19 5 -12 2 6 2 18 0 25 -3 6 -5 1 -5 -13z"/>
<path d="M7760 7534 c0 -15 3 -24 6 -21 4 4 18 -17 31 -46 22 -48 97 -137 115
-137 4 0 -10 16 -32 36 -36 33 -100 141 -100 170 0 7 -4 16 -10 19 -6 4 -10
-5 -10 -21z"/>
<path d="M7313 7513 c19 -5 24 -43 5 -43 -6 0 -8 -3 -5 -6 4 -4 13 -1 22 6 19
15 3 51 -23 49 -16 -1 -16 -2 1 -6z"/>
<path d="M7441 7513 c-1 -6 -4 -20 -7 -30 -5 -17 -5 -17 6 0 6 10 9 23 6 30
-3 9 -5 9 -5 0z"/>
<path d="M7265 7500 c-3 -5 -1 -10 4 -10 6 0 11 5 11 10 0 6 -2 10 -4 10 -3 0
-8 -4 -11 -10z"/>
<path d="M7772 7455 c0 -16 2 -22 5 -12 2 9 2 23 0 30 -3 6 -5 -1 -5 -18z"/>
<path d="M7396 7405 c-29 -55 -79 -114 -131 -154 l-30 -22 34 18 c18 10 50 37
70 59 36 41 97 142 89 149 -2 2 -16 -20 -32 -50z"/>
<path d="M7781 7404 c0 -11 3 -14 6 -6 3 7 2 16 -1 19 -3 4 -6 -2 -5 -13z"/>
<path d="M8030 7401 c0 -6 -10 -12 -22 -12 -17 -1 -18 -3 -6 -6 23 -6 55 12
39 21 -6 4 -11 2 -11 -3z"/>
<path d="M7941 7354 c-16 -37 -9 -39 11 -3 9 16 14 29 9 29 -4 0 -13 -12 -20
-26z"/>
<path d="M7810 7317 c0 -15 43 -92 78 -141 20 -27 56 -62 80 -77 l45 -28 -27
-11 c-45 -17 -79 -12 -125 19 -46 31 -65 32 -54 5 4 -11 8 -12 13 -4 6 9 18 5
46 -14 44 -30 98 -34 132 -10 18 12 20 19 12 29 -9 10 -7 14 7 18 10 2 4 2
-13 0 -26 -3 -39 4 -73 39 -23 23 -60 74 -82 112 -21 39 -39 67 -39 63z"/>
<path d="M7380 7240 c-11 -8 -8 -9 12 -4 23 5 27 2 31 -23 4 -27 4 -27 6 5 1
34 -18 43 -49 22z"/>
<path d="M7220 7220 c0 -6 7 -10 15 -10 8 0 15 2 15 4 0 2 -7 6 -15 10 -8 3
-15 1 -15 -4z"/>
<path d="M7320 7220 c-21 -7 -21 -8 -5 -9 11 0 27 4 35 9 18 11 5 11 -30 0z"/>
<path d="M7411 7164 c0 -11 3 -14 6 -6 3 7 2 16 -1 19 -3 4 -6 -2 -5 -13z"/>
<path d="M7398 7125 c-3 -11 -9 -29 -13 -40 -3 -11 1 -7 10 8 9 16 15 33 12
40 -2 6 -6 3 -9 -8z"/>
<path d="M7580 7109 c-7 -11 -9 -23 -7 -26 3 -2 8 5 12 16 10 32 23 25 50 -28
13 -27 29 -52 33 -55 5 -3 -5 21 -22 54 -33 64 -48 73 -66 39z"/>
<path d="M8130 7123 c8 -3 24 -10 35 -15 20 -9 20 -9 1 6 -11 9 -27 16 -35 15
-14 0 -14 -1 -1 -6z"/>
<path d="M8080 7105 c-19 -22 -8 -25 13 -3 9 10 13 18 8 18 -5 0 -14 -7 -21
-15z"/>
<path d="M7211 7061 c-17 -16 -31 -34 -31 -40 0 -7 14 4 31 24 25 28 38 35 68
35 42 0 66 -19 76 -62 6 -23 11 -27 31 -22 13 3 36 3 50 0 24 -6 26 -11 21
-45 -4 -30 -1 -40 14 -49 23 -15 24 -35 4 -52 -21 -17 -19 -30 5 -30 47 0 85
-33 103 -90 4 -10 6 -8 6 6 1 30 -34 71 -73 85 -31 11 -33 15 -24 35 8 18 7
29 -6 48 -9 14 -16 39 -16 55 0 36 -28 55 -71 49 -22 -3 -29 0 -33 17 -17 68
-100 88 -155 36z"/>
<path d="M7820 7056 c0 -36 126 -216 152 -216 4 0 -10 17 -32 38 -22 20 -57
71 -79 112 -23 41 -41 71 -41 66z"/>
<path d="M7550 7041 c0 -6 -10 -16 -22 -21 -16 -6 -18 -9 -7 -9 19 -1 45 26
35 36 -3 3 -6 1 -6 -6z"/>
<path d="M7762 6901 c13 -19 35 -41 49 -49 l24 -14 -23 19 c-13 10 -34 32 -49
48 l-25 30 24 -34z"/>
<path d="M7702 6875 c0 -16 2 -22 5 -12 2 9 2 23 0 30 -3 6 -5 -1 -5 -18z"/>
<path d="M7711 6827 c-2 -33 29 -77 69 -97 22 -11 40 -24 40 -28 0 -4 3 -17 6
-29 6 -22 3 -23 -47 -25 l-54 -2 47 -3 c26 -2 54 0 61 4 22 13 -7 69 -45 89
-39 20 -55 39 -67 79 -5 17 -10 22 -10 12z"/>
<path d="M7918 6833 c6 -2 18 -2 25 0 6 3 1 5 -13 5 -14 0 -19 -2 -12 -5z"/>
<path d="M7581 6694 c0 -11 3 -14 6 -6 3 7 2 16 -1 19 -3 4 -6 -2 -5 -13z"/>
<path d="M7561 6656 c-8 -10 -9 -16 -1 -21 5 -3 10 -17 10 -31 0 -17 6 -24 19
-24 10 0 30 -9 45 -21 14 -11 26 -16 26 -11 0 14 -22 29 -51 37 -20 5 -28 15
-33 37 -3 16 -3 34 0 39 8 14 -2 10 -15 -5z"/>
<path d="M7908 6653 c6 -2 18 -2 25 0 6 3 1 5 -13 5 -14 0 -19 -2 -12 -5z"/>
<path d="M7903 6592 c-16 -10 -43 -75 -43 -103 0 -20 -1 -20 -31 6 -34 28 -60
30 -66 5 -4 -12 -3 -12 5 -1 13 18 49 6 68 -25 22 -33 34 -30 34 9 0 40 30
102 49 102 9 0 19 -17 25 -46 l11 -46 24 36 c19 29 20 33 4 19 -26 -24 -33
-23 -33 5 0 21 -16 47 -29 47 -4 0 -11 -4 -18 -8z"/>
<path d="M8025 6556 c15 -11 17 -21 12 -57 -6 -43 -5 -45 21 -44 24 0 27 -4
27 -32 0 -18 3 -33 8 -33 5 0 7 17 5 38 -3 31 -7 37 -28 40 -23 3 -25 7 -22
38 4 34 -10 64 -31 64 -6 0 -3 -6 8 -14z"/>
<path d="M7658 6485 c-2 -25 0 -45 4 -45 5 0 8 20 8 45 0 25 -2 45 -4 45 -2 0
-6 -20 -8 -45z"/>
<path d="M7761 6470 c-1 -12 -11 -15 -43 -13 l-43 2 40 -7 c22 -4 46 -11 53
-15 14 -9 14 -1 2 28 -6 14 -9 15 -9 5z"/>
<path d="M6923 6695 c0 -22 2 -30 4 -17 2 12 2 30 0 40 -3 9 -5 -1 -4 -23z"/>
<path d="M2708 6920 l-30 -30 -20 25 c-24 31 -75 34 -109 6 -33 -27 -32 -102
1 -157 32 -52 109 -134 126 -134 16 0 82 86 118 154 62 118 -2 220 -86 136z
m86 4 c22 -21 20 -77 -3 -122 -26 -51 -109 -162 -121 -162 -5 0 -35 30 -65 67
-60 73 -82 129 -68 177 13 46 29 42 25 -8 -5 -56 17 -103 75 -164 l45 -47 -40
50 c-54 68 -72 107 -72 153 0 67 41 83 86 33 l26 -30 33 35 c36 37 55 42 79
18z"/>
<path d="M1487 6623 c-3 -5 18 -8 47 -9 34 -1 44 1 31 7 -26 10 -73 11 -78 2z"/>
<path d="M5762 6238 c-17 -17 -15 -47 4 -55 23 -9 51 23 38 44 -14 22 -27 26
-42 11z m33 -8 c10 -16 -16 -43 -28 -31 -11 11 -2 41 12 41 5 0 13 -5 16 -10z"/>
<path d="M5990 6186 c-18 -22 -5 -48 22 -44 17 2 23 10 23 28 0 29 -26 38 -45
16z m35 -17 c0 -7 -8 -15 -17 -17 -18 -3 -25 18 -11 32 10 10 28 1 28 -15z"/>
<path d="M5840 6120 c-25 -25 -26 -72 -2 -93 25 -22 75 -21 95 1 37 41 6 112
-48 112 -14 0 -34 -9 -45 -20z m82 -7 c25 -22 23 -59 -4 -77 -29 -20 -47 -20
-70 1 -22 20 -23 42 -2 71 18 26 50 28 76 5z"/>
<path d="M5450 6052 c0 -4 10 -12 23 -17 33 -15 35 -59 2 -81 -21 -14 -30 -15
-52 -5 -23 10 -25 16 -20 51 6 46 1 51 -13 14 -17 -43 13 -84 61 -84 55 0 79
71 37 110 -22 21 -38 26 -38 12z"/>
<path d="M5692 5990 c-29 -12 -46 -54 -31 -81 15 -28 55 -42 82 -28 44 24 49
58 12 94 -26 27 -29 28 -63 15z m69 -32 c15 -27 2 -57 -28 -64 -34 -9 -57 6
-61 39 -6 49 65 70 89 25z"/>
<path d="M5844 5895 c-4 -9 -2 -21 4 -27 15 -15 44 -1 40 19 -4 23 -36 29 -44
8z m36 -3 c0 -13 -12 -22 -22 -16 -10 6 -1 24 13 24 5 0 9 -4 9 -8z"/>
<path d="M5524 5856 c-10 -26 4 -48 28 -44 17 2 23 10 23 28 0 18 -6 26 -23
28 -13 2 -25 -3 -28 -12z m44 -20 c3 -13 -1 -17 -14 -14 -11 2 -20 11 -22 22
-3 13 1 17 14 14 11 -2 20 -11 22 -22z"/>
<path d="M5696 5774 c-9 -8 -16 -24 -16 -34 0 -19 35 -50 57 -50 18 0 43 29
43 50 0 10 -7 26 -16 34 -8 9 -24 16 -34 16 -10 0 -26 -7 -34 -16z m64 -9 c18
-22 3 -55 -25 -55 -31 0 -52 35 -34 56 15 18 43 18 59 -1z"/>
<path d="M2164 6125 c0 -71 1 -99 3 -62 2 37 2 96 0 130 -2 34 -3 4 -3 -68z"/>
<path d="M1284 6065 c0 -77 2 -107 3 -67 2 40 2 103 0 140 -2 37 -3 4 -3 -73z"/>
<path d="M2772 5880 c0 -19 2 -27 5 -17 2 9 2 25 0 35 -3 9 -5 1 -5 -18z"/>
<path d="M2611 5854 c0 -11 3 -14 6 -6 3 7 2 16 -1 19 -3 4 -6 -2 -5 -13z"/>
<path d="M2963 5815 c0 -22 2 -30 4 -17 2 12 2 30 0 40 -3 9 -5 -1 -4 -23z"/>
<path d="M2782 5810 c0 -19 2 -27 5 -17 2 9 2 25 0 35 -3 9 -5 1 -5 -18z"/>
<path d="M2622 5805 c0 -16 4 -43 8 -60 11 -42 11 -1 1 50 -7 34 -9 35 -9 10z"/>
<path d="M2512 5780 c0 -14 2 -19 5 -12 2 6 2 18 0 25 -3 6 -5 1 -5 -13z"/>
<path d="M2792 5740 c0 -19 2 -27 5 -17 2 9 2 25 0 35 -3 9 -5 1 -5 -18z"/>
<path d="M2521 5724 c0 -11 3 -14 6 -6 3 7 2 16 -1 19 -3 4 -6 -2 -5 -13z"/>
<path d="M2641 5674 c0 -11 3 -14 6 -6 3 7 2 16 -1 19 -3 4 -6 -2 -5 -13z"/>
<path d="M2531 5664 c0 -11 3 -14 6 -6 3 7 2 16 -1 19 -3 4 -6 -2 -5 -13z"/>
<path d="M2802 5655 c0 -16 2 -22 5 -12 2 9 2 23 0 30 -3 6 -5 -1 -5 -18z"/>
<path d="M2812 5585 c0 -16 2 -22 5 -12 2 9 2 23 0 30 -3 6 -5 -1 -5 -18z"/>
<path d="M2822 5525 c0 -16 2 -22 5 -12 2 9 2 23 0 30 -3 6 -5 -1 -5 -18z"/>
<path d="M2631 5464 c0 -11 3 -14 6 -6 3 7 2 16 -1 19 -3 4 -6 -2 -5 -13z"/>
<path d="M2642 5410 c0 -14 2 -19 5 -12 2 6 2 18 0 25 -3 6 -5 1 -5 -13z"/>
<path d="M2652 5345 c0 -16 2 -22 5 -12 2 9 2 23 0 30 -3 6 -5 -1 -5 -18z"/>
<path d="M2662 5275 c0 -16 2 -22 5 -12 2 9 2 23 0 30 -3 6 -5 -1 -5 -18z"/>
<path d="M2592 5180 c0 -14 2 -19 5 -12 2 6 2 18 0 25 -3 6 -5 1 -5 -13z"/>
<path d="M2601 5114 c0 -11 3 -14 6 -6 3 7 2 16 -1 19 -3 4 -6 -2 -5 -13z"/>
<path d="M2612 5030 c0 -19 2 -27 5 -17 2 9 2 25 0 35 -3 9 -5 1 -5 -18z"/>
<path d="M2623 4955 c0 -22 2 -30 4 -17 2 12 2 30 0 40 -3 9 -5 -1 -4 -23z"/>
<path d="M1206 5241 c-19 -21 -70 -151 -62 -158 2 -2 14 26 26 62 12 36 31 75
43 85 11 11 18 22 15 25 -2 3 -13 -4 -22 -14z"/>
<path d="M1440 5215 c-7 -8 -10 -18 -6 -22 3 -3 6 0 6 8 1 13 8 2 51 -78 9
-18 9 -29 1 -48 -14 -31 -29 -32 -35 -2 -3 16 -5 13 -6 -10 -1 -39 8 -41 37
-10 26 28 28 54 5 86 -9 14 -22 40 -28 58 -10 30 -13 32 -25 18z"/>
<path d="M1221 5195 c0 -16 9 -48 22 -69 23 -40 67 -78 67 -57 0 6 -6 11 -14
11 -19 0 -58 64 -67 109 -6 34 -7 35 -8 6z"/>
<path d="M1420 5164 c0 -10 5 -26 10 -34 8 -11 9 -7 4 15 -8 37 -14 45 -14 19z"/>
<path d="M1586 4948 c-9 -21 -16 -50 -15 -65 1 -32 5 -24 14 30 3 20 9 37 13
37 4 0 15 -18 25 -39 16 -36 137 -143 137 -121 0 5 -19 22 -42 38 -59 41 -85
71 -102 117 l-14 40 -16 -37z"/>
<path d="M1581 4840 c0 -14 28 -72 29 -59 0 4 -7 22 -15 40 -8 19 -14 27 -14
19z"/>
<path d="M1775 4805 c4 -11 10 -45 14 -75 4 -34 16 -68 30 -87 25 -34 32 -92
18 -146 -5 -18 -4 -26 2 -23 5 3 12 29 16 57 6 44 3 57 -21 102 -15 29 -30 78
-35 111 -4 32 -13 63 -20 70 -9 8 -10 7 -4 -9z"/>
<path d="M1612 4745 c0 -16 2 -22 5 -12 2 9 2 23 0 30 -3 6 -5 -1 -5 -18z"/>
<path d="M1716 4690 c8 -43 14 -51 14 -19 0 13 -5 31 -10 39 -7 11 -8 5 -4
-20z"/>
<path d="M1611 4692 c0 -13 -13 -34 -27 -48 -14 -15 -20 -24 -13 -22 22 7 51
55 46 74 -4 16 -5 15 -6 -4z"/>
<path d="M1221 4618 c0 -25 2 -28 8 -15 6 16 9 17 19 5 6 -8 18 -30 26 -49 9
-19 15 -27 16 -18 0 15 -55 109 -65 109 -3 0 -5 -15 -4 -32z"/>
<path d="M1732 4620 c0 -14 2 -19 5 -12 2 6 2 18 0 25 -3 6 -5 1 -5 -13z"/>
<path d="M1200 4543 c-23 -58 -23 -61 0 -20 12 21 20 43 18 48 -2 6 -10 -7
-18 -28z"/>
<path d="M1460 4555 c0 -2 9 -19 20 -37 23 -39 27 -30 5 12 -14 27 -25 38 -25
25z"/>
<path d="M1292 4500 c0 -14 2 -19 5 -12 2 6 2 18 0 25 -3 6 -5 1 -5 -13z"/>
<path d="M1172 4460 c0 -14 2 -19 5 -12 2 6 2 18 0 25 -3 6 -5 1 -5 -13z"/>
<path d="M1502 4455 c0 -16 2 -22 5 -12 2 9 2 23 0 30 -3 6 -5 -1 -5 -18z"/>
<path d="M1300 4463 c0 -5 10 -18 23 -29 l22 -19 -20 25 c-11 14 -21 27 -22
29 -2 2 -3 0 -3 -6z"/>
<path d="M1171 4384 c-1 -11 6 -29 15 -40 8 -10 12 -13 9 -6 -4 8 -11 26 -15
40 -7 22 -8 23 -9 6z"/>
<path d="M7216 4834 c-22 -21 -29 -57 -23 -110 9 -85 78 -115 118 -51 37 60
11 178 -40 176 -11 0 -10 -3 5 -9 72 -29 45 -205 -28 -187 -52 13 -67 129 -23
172 13 14 20 25 15 25 -5 0 -16 -7 -24 -16z"/>
<path d="M8782 4585 c-1 -236 -4 -482 -7 -545 l-3 -115 9 105 c5 58 8 303 6
545 l-2 440 -3 -430z"/>
<path d="M8620 4640 c-22 -22 -35 -62 -27 -82 3 -7 6 -1 6 14 1 15 11 39 24
54 62 72 131 -65 77 -153 -31 -51 -82 -38 -96 25 -10 45 -14 49 -10 8 13 -100
107 -102 134 -2 14 48 -1 106 -33 134 -32 27 -49 28 -75 2z"/>
<path d="M2363 4723 c9 -2 23 -2 30 0 6 3 -1 5 -18 5 -16 0 -22 -2 -12 -5z"/>
<path d="M7249 4193 c-33 -39 2 -192 47 -210 22 -8 58 20 93 73 52 78 36 142
-32 131 -25 -4 -39 -1 -48 9 -15 19 -43 18 -60 -3z m58 -14 c4 -14 11 -18 22
-13 41 17 59 16 71 -6 17 -33 3 -75 -44 -127 -47 -52 -56 -51 -85 6 -30 58
-36 107 -17 136 20 30 46 32 53 4z"/>
<path d="M7287 4123 c-8 -12 11 -63 23 -63 8 0 40 45 40 55 0 15 -18 2 -24
-17 -6 -25 -22 -16 -28 17 -2 13 -6 16 -11 8z"/>
<path d="M7522 4183 c-7 -3 -20 -19 -28 -35 -33 -63 13 -171 102 -244 l44 -36
39 31 c87 69 131 139 131 206 0 72 -84 111 -141 66 -24 -19 -25 -19 -48 0 -22
18 -70 24 -99 12z m94 -28 l25 -26 30 26 c38 32 73 32 104 0 46 -45 22 -126
-61 -208 -67 -65 -78 -67 -126 -21 -83 81 -113 170 -75 227 23 36 68 36 103 2z"/>
<path d="M7565 4080 c-8 -24 4 -46 44 -84 29 -28 31 -28 55 -12 57 37 74 108
28 114 -13 2 -30 -2 -38 -9 -11 -9 -18 -9 -26 -1 -19 19 -56 14 -63 -8z m59
-11 l14 -21 12 22 c7 14 19 20 33 18 36 -5 32 -39 -8 -78 l-37 -35 -29 35
c-31 36 -39 80 -15 80 8 0 21 -9 30 -21z"/>
<path d="M8001 4178 c-7 -7 -31 -13 -54 -13 -36 0 -43 -4 -55 -28 -12 -25 -12
-35 2 -71 20 -51 77 -109 102 -104 48 9 101 157 75 207 -13 23 -50 28 -70 9z
m57 -10 c28 -28 -2 -141 -49 -184 -16 -15 -20 -14 -42 3 -44 32 -69 78 -65
119 4 46 28 65 59 46 18 -12 23 -11 36 7 16 23 43 27 61 9z"/>
<path d="M7999 4100 c-1 -5 -2 -14 -3 -20 0 -5 -5 -9 -11 -7 -5 1 -9 8 -9 15
1 6 -4 12 -12 12 -19 0 -17 -14 5 -41 22 -27 36 -20 46 24 5 17 3 27 -4 27 -6
0 -12 -4 -12 -10z"/>
<path d="M1806 4002 c17 -17 36 -50 42 -74 l11 -43 -5 40 c-6 47 -25 80 -56
96 -18 10 -16 5 8 -19z"/>
<path d="M6352 4208 c-27 -27 -3 -88 34 -88 31 0 54 21 54 48 0 35 -16 52 -50
52 -14 0 -31 -5 -38 -12z m62 -4 c21 -8 21 -50 0 -62 -38 -21 -80 21 -54 53
13 16 29 19 54 9z"/>
<path d="M5862 4148 c-22 -22 -14 -67 13 -80 37 -17 75 3 75 40 0 35 -16 52
-50 52 -14 0 -31 -5 -38 -12z m76 -31 c3 -21 -2 -29 -20 -36 -31 -12 -58 4
-58 34 0 26 13 35 50 32 19 -2 26 -8 28 -30z"/>
<path d="M6178 4124 c-14 -30 -3 -53 29 -65 44 -16 84 46 51 79 -22 22 -67 14
-80 -14z m79 0 c8 -21 -9 -48 -32 -53 -26 -5 -47 26 -34 50 12 23 57 25 66 3z"/>
<path d="M6049 4051 c26 -20 25 -48 -1 -65 -39 -24 -77 34 -42 62 11 8 13 12
5 10 -8 -2 -20 -13 -28 -24 -27 -42 48 -89 85 -52 19 19 15 66 -7 78 -31 16
-38 11 -12 -9z"/>
<path d="M6322 4028 c-21 -21 -15 -68 11 -77 44 -17 86 39 57 75 -15 17 -52
18 -68 2z m56 -7 c8 -4 12 -19 10 -32 -2 -19 -9 -24 -33 -24 -24 0 -31 5 -33
24 -4 23 11 41 33 41 6 0 16 -4 23 -9z"/>
<path d="M6152 3978 c-34 -34 4 -86 54 -74 28 7 42 49 24 71 -15 18 -61 20
-78 3z m67 -12 c9 -11 10 -20 1 -36 -13 -25 -47 -24 -63 2 -22 34 36 66 62 34z"/>
<path d="M6256 3864 c-4 -10 -2 -22 3 -27 15 -15 46 -3 46 18 0 26 -40 33 -49
9z m42 -6 c-6 -18 -28 -21 -28 -4 0 9 7 16 16 16 9 0 14 -5 12 -12z"/>
<path d="M1640 4201 c0 -10 -9 -31 -21 -47 l-21 -29 26 28 c22 24 36 67 21 67
-3 0 -5 -8 -5 -19z"/>
<path d="M1221 4136 c0 -10 -11 -35 -23 -54 -12 -20 -16 -32 -10 -28 19 11 44
66 39 84 -4 14 -5 14 -6 -2z"/>
<path d="M6731 4026 c-8 -10 -9 -16 -1 -21 5 -3 10 1 10 10 0 21 29 16 43 -7
15 -23 -10 -51 -40 -45 -13 2 -23 0 -23 -4 0 -5 11 -9 24 -9 27 0 56 24 56 45
0 17 -27 45 -44 45 -8 0 -19 -6 -25 -14z"/>
<path d="M6556 3988 c-33 -47 -14 -88 40 -88 38 0 64 22 64 54 0 52 -75 76
-104 34z m75 2 c23 -13 24 -37 2 -62 -21 -23 -45 -23 -67 1 -14 15 -15 24 -7
39 16 31 41 38 72 22z"/>
<path d="M6703 3890 c-41 -17 -40 -75 2 -86 39 -10 69 0 84 28 14 24 14 28 -3
47 -20 22 -47 26 -83 11z m65 -12 c31 -31 -6 -76 -53 -64 -33 9 -41 37 -15 58
26 21 51 23 68 6z"/>
<path d="M6900 3880 c-11 -11 -20 -25 -20 -30 0 -14 46 -60 59 -60 24 0 61 21
71 40 29 55 -63 97 -110 50z m90 -5 c18 -22 8 -49 -23 -59 -32 -12 -60 1 -66
29 -7 37 63 61 89 30z"/>
<path d="M6589 3833 c-12 -15 -12 -16 4 -10 19 7 24 -9 5 -16 -8 -3 -6 -6 5
-6 10 -1 17 6 17 18 0 27 -15 34 -31 14z"/>
<path d="M6443 3798 c-33 -43 -12 -88 42 -88 45 0 74 38 57 75 -7 14 -19 25
-28 25 -12 0 -11 -4 7 -19 19 -16 22 -23 13 -37 -17 -28 -39 -37 -68 -30 -22
5 -27 11 -24 34 2 16 12 31 28 39 23 12 23 13 4 13 -12 0 -26 -6 -31 -12z"/>
<path d="M6772 3773 c-22 -8 -35 -43 -21 -59 13 -16 65 -19 74 -3 19 30 -18
73 -53 62z m43 -38 c0 -13 -8 -21 -24 -23 -32 -5 -48 12 -31 33 18 22 55 15
55 -10z"/>
<path d="M6632 3756 c1 -10 -3 -21 -9 -23 -7 -3 -13 3 -13 12 0 9 -4 14 -10
10 -14 -9 0 -35 20 -35 22 0 35 29 19 44 -8 8 -10 6 -7 -8z"/>
<path d="M5527 3952 c-3 -4 9 -7 26 -7 25 0 32 -4 32 -20 0 -24 -43 -34 -56
-13 -6 9 -9 9 -9 1 0 -31 63 -36 75 -6 11 30 -5 53 -35 53 -16 0 -31 -3 -33
-8z"/>
<path d="M5671 3936 c-7 -8 -10 -24 -6 -36 8 -25 62 -28 72 -4 14 38 -41 71
-66 40z m48 -10 c9 -10 8 -16 -4 -26 -17 -14 -45 -7 -45 13 0 29 30 37 49 13z"/>
<path d="M5810 3821 c-7 -15 -6 -23 6 -35 32 -32 75 -5 54 33 -14 26 -46 27
-60 2z m47 -7 c8 -21 -13 -42 -28 -27 -13 13 -5 43 11 43 6 0 13 -7 17 -16z"/>
<path d="M5507 3783 c-4 -3 -7 -15 -7 -25 0 -23 -17 -23 -44 0 -20 17 -20 17
-5 -8 9 -14 28 -26 43 -28 24 -3 26 -1 21 21 -7 25 9 46 20 27 10 -16 25 -12
19 5 -6 15 -35 20 -47 8z"/>
<path d="M5619 3768 c0 -2 -2 -10 -4 -18 -2 -8 -6 -23 -10 -32 -5 -13 -2 -18
9 -18 9 0 16 8 16 20 0 14 7 20 23 20 21 1 22 1 3 15 -18 14 -35 19 -37 13z"/>
<path d="M5693 3723 c10 -10 -24 -43 -44 -43 -28 0 -32 -18 -10 -42 l21 -22 0
27 c0 19 7 31 24 38 29 14 42 49 18 49 -8 0 -12 -3 -9 -7z"/>
<path d="M5420 3695 c0 -8 5 -15 10 -15 6 0 10 7 10 15 0 8 -4 15 -10 15 -5 0
-10 -7 -10 -15z"/>
<path d="M5542 3678 c2 -12 11 -24 21 -26 13 -3 16 2 14 20 -2 13 -12 25 -21
26 -13 3 -17 -2 -14 -20z"/>
<path d="M5790 3685 c-10 -12 -7 -17 14 -26 31 -15 32 -23 6 -51 -31 -34 -24
-43 9 -12 30 28 30 35 3 66 -7 9 -11 22 -7 27 10 17 -11 13 -25 -4z"/>
<path d="M5728 3645 c-6 -14 -18 -25 -27 -25 -14 0 -14 -2 -1 -10 21 -14 30
-12 30 5 0 8 9 24 20 35 16 16 17 20 5 20 -9 0 -21 -11 -27 -25z"/>
<path d="M5450 3650 c0 -5 7 -10 15 -10 17 0 20 -16 5 -25 -7 -4 -7 -12 0 -25
15 -29 12 -37 -20 -50 -35 -14 -40 -48 -12 -73 29 -27 59 -21 77 14 15 28 15
32 1 48 -9 10 -16 24 -16 32 0 8 -5 20 -11 26 -8 8 -8 17 0 32 9 17 8 22 -8
31 -25 13 -31 13 -31 0z m44 -116 c35 -13 7 -69 -31 -62 -22 4 -29 34 -13 53
14 17 21 18 44 9z"/>
<path d="M5414 3626 c-8 -22 3 -33 18 -18 9 9 9 15 0 24 -9 9 -13 7 -18 -6z"/>
<path d="M5543 3603 c-4 -10 -11 -21 -17 -25 -6 -4 -1 -8 12 -8 17 0 22 6 22
25 0 29 -8 33 -17 8z"/>
<path d="M5355 3571 c-33 -19 -42 -49 -25 -81 12 -23 50 -24 58 -2 3 9 -3 11
-21 7 -29 -8 -41 6 -32 36 5 15 13 20 30 17 18 -4 24 0 28 19 5 27 2 27 -38 4z"/>
<path d="M5596 3568 c-10 -15 -16 -35 -13 -45 4 -17 5 -16 12 2 5 11 13 23 18
26 5 4 7 15 5 25 -3 17 -6 16 -22 -8z"/>
<path d="M5747 3572 c-7 -14 -2 -37 8 -39 17 -3 26 35 10 41 -8 3 -16 2 -18
-2z"/>
<path d="M5610 3532 c0 -10 33 -42 43 -42 15 0 6 30 -12 40 -24 12 -31 13 -31
2z"/>
<path d="M5570 3463 c0 -24 21 -30 54 -17 26 10 18 22 -10 16 -16 -3 -30 1
-35 9 -6 10 -9 8 -9 -8z"/>
<path d="M4454 3774 c-10 -38 4 -72 46 -117 l39 -42 46 45 c53 52 64 81 42
113 -14 21 -23 24 -91 24 -72 1 -77 -1 -82 -23z m74 4 c9 -9 15 -9 24 0 20 20
58 14 67 -10 4 -12 6 -30 4 -39 -8 -29 -64 -89 -84 -89 -40 0 -99 117 -72 143
11 11 48 8 61 -5z"/>
<path d="M4500 3733 c0 -10 9 -29 20 -43 l20 -25 20 25 c21 26 27 60 11 60 -6
0 -13 -5 -17 -12 -4 -7 -3 -8 4 -4 15 9 15 1 2 -25 -14 -25 -27 -24 -40 2 -14
24 -4 40 11 19 9 -13 10 -13 6 0 -6 23 -37 25 -37 3z"/>
<path d="M4740 3783 c-70 -9 -78 -44 -25 -101 l35 -37 30 35 c30 36 46 82 35
100 -6 10 -11 10 -75 3z m65 -13 c7 -12 -21 -74 -41 -91 -11 -9 -19 -8 -35 7
-49 44 -47 90 2 80 16 -3 31 -1 34 4 8 13 32 13 40 0z"/>
<path d="M4760 3739 c0 -6 -7 -8 -16 -5 -10 4 -14 1 -12 -6 7 -21 26 -20 38 1
7 14 7 21 0 21 -5 0 -10 -5 -10 -11z"/>
<path d="M5252 3864 c-30 -21 -25 -54 10 -73 25 -14 29 -14 54 5 37 27 39 39
15 63 -25 25 -49 27 -79 5z m76 -28 c4 -21 -13 -36 -43 -36 -31 0 -46 19 -34
42 14 26 72 21 77 -6z"/>
<path d="M3643 3443 c20 -2 54 -2 75 0 20 2 3 4 -38 4 -41 0 -58 -2 -37 -4z"/>
<path d="M3428 3433 c29 -2 74 -2 100 0 26 2 2 3 -53 3 -55 0 -76 -1 -47 -3z"/>
<path d="M8293 3353 c9 -2 23 -2 30 0 6 3 -1 5 -18 5 -16 0 -22 -2 -12 -5z"/>
<path d="M8168 3343 c12 -2 30 -2 40 0 9 3 -1 5 -23 4 -22 0 -30 -2 -17 -4z"/>
<path d="M8103 3183 c15 -2 39 -2 55 0 15 2 2 4 -28 4 -30 0 -43 -2 -27 -4z"/>
<path d="M7998 3173 c12 -2 32 -2 45 0 12 2 2 4 -23 4 -25 0 -35 -2 -22 -4z"/>
<path d="M7918 3163 c12 -2 30 -2 40 0 9 3 -1 5 -23 4 -22 0 -30 -2 -17 -4z"/>
<path d="M7673 3143 c9 -2 23 -2 30 0 6 3 -1 5 -18 5 -16 0 -22 -2 -12 -5z"/>
<path d="M7415 3130 l-70 -6 60 -1 c33 0 92 3 130 7 l70 7 -60 0 c-33 0 -91
-3 -130 -7z"/>
<path d="M7258 3113 c12 -2 30 -2 40 0 9 3 -1 5 -23 4 -22 0 -30 -2 -17 -4z"/>
<path d="M4348 3073 c12 -2 30 -2 40 0 9 3 -1 5 -23 4 -22 0 -30 -2 -17 -4z"/>
<path d="M4243 3063 c15 -2 37 -2 50 0 12 2 0 4 -28 4 -27 0 -38 -2 -22 -4z"/>
<path d="M5438 2893 c6 -2 18 -2 25 0 6 3 1 5 -13 5 -14 0 -19 -2 -12 -5z"/>
<path d="M5768 2853 c7 -3 16 -2 19 1 4 3 -2 6 -13 5 -11 0 -14 -3 -6 -6z"/>
<path d="M7149 3796 c14 -16 6 -40 -10 -31 -5 4 -9 1 -9 -4 0 -6 9 -11 20 -11
25 0 28 45 4 54 -14 5 -15 4 -5 -8z"/>
<path d="M7098 3589 c-24 -14 -23 -56 2 -69 25 -13 68 -3 80 20 21 40 -38 75
-82 49z m62 -14 c19 -23 4 -45 -30 -45 -18 0 -33 6 -36 15 -8 19 13 45 36 45
10 0 23 -7 30 -15z"/>
<path d="M6967 3563 c-24 -23 12 -55 38 -33 12 10 13 16 4 26 -12 15 -31 18
-42 7z m28 -23 c-3 -5 -10 -10 -16 -10 -5 0 -9 5 -9 10 0 6 7 10 16 10 8 0 12
-4 9 -10z"/>
<path d="M6775 3526 c-24 -17 -13 -46 19 -46 13 0 27 7 30 16 8 22 8 22 -13
33 -13 7 -23 6 -36 -3z m40 -15 c3 -5 1 -13 -5 -16 -15 -9 -43 3 -35 15 8 13
32 13 40 1z"/>
<path d="M6625 3510 c-4 -7 -3 -16 3 -22 14 -14 45 -2 40 15 -6 16 -34 21 -43
7z m35 -10 c0 -5 -7 -10 -15 -10 -8 0 -15 5 -15 10 0 6 7 10 15 10 8 0 15 -4
15 -10z"/>
<path d="M6690 3425 c-15 -18 -5 -35 21 -35 12 0 19 7 19 19 0 24 -25 34 -40
16z m30 -15 c0 -5 -4 -10 -10 -10 -5 0 -10 5 -10 10 0 6 5 10 10 10 6 0 10 -4
10 -10z"/>
<path d="M6817 3427 c-11 -8 -14 -17 -8 -26 11 -17 41 -7 41 13 0 21 -15 27
-33 13z m23 -17 c0 -5 -4 -10 -10 -10 -5 0 -10 5 -10 10 0 6 5 10 10 10 6 0
10 -4 10 -10z"/>
<path d="M6049 3684 c-26 -31 25 -70 56 -44 19 16 19 25 -1 44 -20 20 -38 20
-55 0z m49 -17 c4 -20 -25 -34 -40 -19 -15 15 -1 44 19 40 10 -2 19 -11 21
-21z"/>
<path d="M6066 3568 c-13 -19 -14 -25 -2 -43 8 -12 24 -20 41 -20 17 0 33 8
41 20 12 18 11 24 -2 43 -8 12 -26 22 -39 22 -13 0 -31 -10 -39 -22z m68 -11
c9 -15 7 -21 -8 -32 -23 -18 -56 -3 -56 25 0 33 45 38 64 7z"/>
<path d="M6330 3482 c-26 -21 -21 -57 11 -67 52 -17 89 34 49 67 -12 10 -26
18 -30 18 -4 0 -18 -8 -30 -18z m64 -17 c5 -14 -18 -45 -34 -45 -16 0 -39 31
-34 45 4 8 19 15 34 15 15 0 30 -7 34 -15z"/>
<path d="M5882 3458 c-32 -32 8 -80 48 -58 24 13 27 55 4 64 -24 9 -39 7 -52
-6z m53 -23 c0 -22 -31 -33 -48 -16 -7 7 -6 15 3 26 17 21 45 15 45 -10z"/>
<path d="M6137 3419 c-19 -11 -23 -44 -6 -54 19 -12 59 4 59 25 0 25 -30 41
-53 29z m40 -25 c5 -15 -20 -24 -37 -14 -7 4 -9 13 -5 19 8 14 37 11 42 -5z"/>
<path d="M5109 3533 c-13 -17 -13 -17 6 -3 11 8 22 16 24 17 2 2 0 3 -6 3 -6
0 -17 -8 -24 -17z"/>
<path d="M5173 3526 c7 -14 13 -23 15 -21 7 6 -9 45 -18 45 -4 0 -3 -11 3 -24z"/>
<path d="M7348 3515 c5 -11 12 -27 15 -35 5 -13 6 -13 6 1 1 8 -6 24 -15 35
-15 19 -15 19 -6 -1z"/>
<path d="M5091 3454 c-1 -19 7 -41 20 -55 l20 -24 -17 28 c-15 24 -15 30 -3
38 9 5 10 9 2 9 -6 0 -14 8 -16 18 -3 9 -5 3 -6 -14z"/>
<path d="M5170 3456 c0 -2 8 -10 18 -17 15 -13 16 -12 3 4 -13 16 -21 21 -21
13z"/>
<path d="M5201 3404 c0 -11 3 -14 6 -6 3 7 2 16 -1 19 -3 4 -6 -2 -5 -13z"/>
<path d="M7329 3393 l-24 -28 28 24 c15 14 27 26 27 28 0 8 -8 1 -31 -24z"/>
<path d="M5148 3368 c5 -5 16 -8 23 -6 8 3 3 7 -10 11 -17 4 -21 3 -13 -5z"/>
<path d="M5205 3350 c-19 -8 -19 -9 3 -9 12 -1 22 4 22 9 0 6 -1 10 -2 9 -2 0
-12 -4 -23 -9z"/>
<path d="M7250 3350 c-8 -5 -10 -10 -5 -10 6 0 17 5 25 10 8 5 11 10 5 10 -5
0 -17 -5 -25 -10z"/>
<path d="M4360 3522 c-25 -20 -21 -36 13 -52 22 -10 22 -10 0 6 -30 21 -29 30
5 48 15 8 22 15 16 16 -7 0 -22 -8 -34 -18z"/>
<path d="M4851 3521 c21 -17 22 -21 9 -37 -14 -18 -14 -18 3 -5 22 18 22 38
-2 51 -31 16 -35 12 -10 -9z"/>
<path d="M2400 2720 c8 -5 20 -10 25 -10 6 0 3 5 -5 10 -8 5 -19 10 -25 10 -5
0 -3 -5 5 -10z"/>
<path d="M2990 2540 c8 -5 20 -10 25 -10 6 0 3 5 -5 10 -8 5 -19 10 -25 10 -5
0 -3 -5 5 -10z"/>
</g>
</svg>
