<?xml version="1.0" standalone="no"?>
<!DOCTYPE svg PUBLIC "-//W3C//DTD SVG 20010904//EN"
 "http://www.w3.org/TR/2001/REC-SVG-20010904/DTD/svg10.dtd">
<svg version="1.0" xmlns="http://www.w3.org/2000/svg"
 width="1024.000000pt" height="1024.000000pt" viewBox="0 0 1024.000000 1024.000000"
 preserveAspectRatio="xMidYMid meet">
<metadata>
Created by potrace 1.16, written by Peter Selinger 2001-2019
</metadata>
<g transform="translate(0.000000,1024.000000) scale(0.100000,-0.100000)"
fill="#000000" stroke="none">
<path d="M4810 9074 c-19 -2 -98 -9 -175 -14 -184 -14 -401 -46 -438 -65 -17
-8 -42 -15 -56 -15 -39 -1 -107 -35 -126 -64 -16 -24 -15 -33 20 -186 20 -89
35 -163 33 -164 -2 -1 -42 -12 -91 -24 -48 -12 -113 -35 -145 -51 -111 -56
-122 -85 -122 -313 0 -162 2 -176 25 -225 25 -55 66 -89 156 -128 24 -10 45
-20 47 -20 1 -1 -5 -17 -14 -35 -15 -29 -15 -36 -2 -64 11 -22 12 -39 6 -59
-13 -36 -4 -68 27 -106 24 -27 25 -35 19 -98 -13 -146 -56 -230 -155 -304 -29
-22 -127 -78 -218 -124 -91 -46 -197 -103 -236 -126 -305 -184 -517 -450 -596
-748 -65 -250 -67 -620 -4 -980 65 -375 160 -706 480 -1686 79 -241 143 -441
141 -442 -2 -2 -15 1 -30 7 -15 5 -60 10 -99 9 -166 -1 -313 -107 -358 -258
-14 -49 -25 -56 -94 -64 -161 -18 -315 -152 -315 -274 0 -29 -3 -33 -27 -33
-49 -1 -113 -37 -126 -70 -10 -27 -16 -30 -57 -30 -56 0 -142 -39 -165 -74
-11 -16 -15 -35 -11 -50 5 -21 1 -25 -40 -35 -89 -23 -120 -88 -67 -143 19
-20 22 -28 12 -28 -21 0 -56 -39 -64 -70 -4 -18 1 -36 17 -60 29 -43 91 -64
166 -55 50 5 52 4 42 -14 -45 -86 48 -156 197 -150 l79 4 15 -30 c29 -59 115
-82 232 -61 46 8 47 8 47 -17 0 -36 49 -83 101 -97 43 -12 168 -9 199 4 12 5
21 -5 34 -35 15 -32 28 -46 65 -62 61 -27 142 -27 198 0 l43 21 20 -32 c29
-47 62 -60 165 -61 63 -1 111 -8 160 -23 137 -43 365 -64 459 -43 32 8 45 5
84 -15 61 -33 141 -33 205 -1 37 19 47 21 51 10 3 -8 27 -23 52 -35 62 -27
160 -22 203 10 l30 22 27 -25 c51 -48 149 -58 223 -25 44 20 44 20 65 1 70
-66 220 -65 286 1 l29 28 35 -21 c38 -22 136 -36 179 -25 14 3 39 17 55 31
l30 25 34 -20 c48 -28 127 -41 172 -29 19 5 51 25 71 43 l35 33 51 -25 c93
-46 207 -31 258 33 18 24 21 25 43 11 13 -8 49 -22 82 -31 98 -28 192 -7 236
54 l21 30 37 -22 c30 -18 53 -22 117 -22 100 0 151 22 179 78 14 29 22 37 35
31 78 -34 198 -26 267 17 42 26 78 91 69 126 -5 22 -3 24 12 18 10 -4 58 -10
106 -13 124 -6 201 26 221 95 7 21 11 21 94 17 77 -5 92 -3 132 18 36 18 48
31 60 66 l14 42 58 0 c125 0 193 65 143 137 -14 20 -13 23 15 43 23 16 30 29
30 54 0 54 -31 83 -113 110 -16 5 -17 8 -2 36 19 37 14 58 -25 95 -22 21 -42
29 -80 33 -37 3 -50 9 -50 21 0 9 -9 30 -19 47 -22 36 -90 64 -155 64 -35 0
-44 5 -58 29 -16 29 -65 51 -113 51 -14 0 -29 16 -49 56 -16 30 -47 71 -70 90
-50 43 -145 89 -215 106 -53 12 -54 14 -66 83 -31 187 -223 332 -415 312 -31
-4 -64 -9 -72 -12 -18 -7 -25 -33 172 575 224 693 287 916 364 1285 73 346 96
555 91 795 -7 289 -67 499 -205 718 -14 22 -13 25 40 70 99 85 180 165 180
179 0 8 -103 117 -228 241 -126 125 -300 303 -387 395 -87 93 -168 175 -180
183 -12 8 -52 17 -89 21 -74 7 -75 13 -2 31 176 45 301 185 299 337 -1 115
-84 185 -218 185 -73 -1 -163 -23 -238 -58 l-65 -30 -1 170 c0 156 -2 172 -23
209 -12 22 -42 53 -67 69 -48 30 -214 90 -250 90 -28 0 -27 19 9 164 42 169
40 191 -21 229 -54 33 -243 71 -509 103 -126 15 -607 27 -690 18z m620 -43
c41 -5 136 -16 210 -25 74 -9 180 -27 235 -42 162 -42 184 -69 83 -103 -77
-26 -103 -26 -189 0 -84 25 -106 21 -54 -11 38 -23 38 -24 14 -32 -13 -4 -73
-14 -133 -21 -101 -13 -111 -13 -157 4 -27 11 -59 19 -72 19 -22 -1 -22 -1 3
-14 14 -7 42 -16 62 -20 47 -9 52 -17 34 -58 l-14 -33 -1 30 c-2 55 -7 57
-117 44 -82 -9 -501 -7 -599 4 -16 2 -21 -5 -25 -33 l-6 -35 -7 29 c-7 25 -3
33 25 58 l33 30 -37 -22 c-36 -21 -41 -21 -205 -9 -92 6 -170 13 -172 15 -3 2
4 11 15 19 25 19 3 20 -49 1 -35 -12 -48 -10 -130 11 -136 36 -164 62 -99 93
60 28 86 30 135 14 54 -18 73 -13 31 9 -15 8 -23 17 -17 20 16 10 282 45 428
57 77 6 160 12 185 14 79 6 512 -4 590 -13z m-1258 -211 l97 -22 17 -44 c9
-24 24 -49 32 -56 14 -12 15 -7 9 41 l-6 53 37 -7 c20 -4 100 -12 177 -19
l140 -11 19 -52 c24 -67 41 -69 33 -4 l-6 49 292 -1 c161 -1 322 2 360 6 l67
9 0 -74 c1 -68 2 -71 15 -48 8 14 17 43 20 66 4 22 10 45 13 50 6 9 182 35
257 38 l30 1 -1 -87 c0 -49 2 -88 6 -88 4 0 21 42 37 93 l30 92 59 18 c32 9
71 21 87 26 15 5 27 8 27 7 0 -2 -11 -48 -24 -102 -14 -54 -39 -169 -56 -254
-17 -85 -32 -155 -33 -156 -13 -13 -290 -63 -349 -64 -13 0 -18 8 -18 28 0 15
-3 38 -7 51 -5 20 -9 17 -29 -30 l-22 -54 -59 -8 c-87 -12 -812 -2 -915 13
l-86 12 -12 64 c-7 35 -17 67 -23 71 -6 4 -8 0 -5 -9 4 -8 9 -40 13 -70 l7
-55 -67 12 c-37 7 -71 19 -75 25 -5 7 -13 39 -19 71 -7 32 -16 61 -20 64 -5 2
-5 -12 -1 -33 4 -20 11 -54 14 -74 l7 -37 -33 11 c-18 6 -39 16 -46 23 -7 6
-26 78 -42 160 -17 82 -41 191 -55 243 -30 112 -29 105 -7 94 9 -6 61 -20 114
-32z m1657 -13 c0 -12 -9 -44 -19 -72 l-18 -50 -1 63 c-1 55 -4 66 -27 87
l-27 25 47 -16 c36 -13 46 -20 45 -37z m-1520 -39 c0 -28 -2 -30 -9 -13 -12
28 -12 45 0 45 6 0 10 -15 9 -32z m1898 -314 c102 -49 118 -105 46 -160 -109
-83 -451 -160 -871 -195 -270 -22 -711 -3 -1042 46 -355 52 -570 135 -570 219
0 26 54 81 99 97 45 18 202 61 206 58 2 -2 6 -16 10 -30 6 -23 1 -29 -30 -48
-30 -17 -36 -26 -33 -48 7 -65 211 -124 549 -159 224 -24 766 -23 959 0 271
33 411 66 483 112 50 33 49 69 -3 99 -35 19 -38 31 -25 72 5 14 142 -25 222
-63z m-2117 -23 c0 -5 3 -23 7 -42 l6 -33 -32 23 c-31 22 -31 24 -15 42 18 20
34 25 34 10z m1924 -10 c16 -18 16 -20 -10 -40 -15 -11 -31 -21 -35 -21 -10 0
-11 25 -3 58 8 27 25 28 48 3z m-487 -120 c1 -11 -5 -22 -14 -25 -11 -5 -14
-2 -9 10 3 8 6 20 6 25 0 18 16 9 17 -10z m-1767 -20 c0 -17 94 -69 160 -89
452 -137 1093 -177 1710 -107 323 37 592 109 668 178 l22 20 1 -39 c2 -102 -3
-192 -12 -226 -12 -48 -131 -150 -209 -179 -141 -53 -488 -115 -775 -139 -409
-34 -985 22 -1304 126 -136 45 -205 86 -239 143 -23 40 -26 57 -31 183 -3 76
-3 138 2 138 4 0 7 -4 7 -9z m3023 -229 c75 -43 87 -140 32 -250 -43 -86 -83
-122 -132 -122 l-36 0 47 41 c64 56 99 127 94 190 -3 52 0 57 22 37 12 -11 12
-10 0 5 -28 37 -110 70 -175 69 -77 -1 -87 -4 -165 -41 -35 -17 -65 -31 -67
-31 -2 0 8 16 23 35 14 19 24 35 20 35 -3 0 -19 -18 -35 -40 -16 -22 -57 -61
-92 -87 -35 -27 -83 -67 -106 -90 -24 -23 -43 -37 -44 -30 0 6 -6 0 -13 -15
-17 -39 -66 -88 -89 -88 -29 0 51 106 155 206 73 69 107 92 191 133 93 45 197
75 183 52 -3 -4 11 -2 32 5 45 17 114 11 155 -14z m-46 -96 c30 -35 29 -70 -3
-134 -30 -60 -64 -90 -149 -128 -53 -25 -75 -28 -191 -32 -173 -6 -200 -1
-206 38 -5 32 21 62 133 152 56 46 194 116 251 128 75 16 139 6 165 -24z
m-657 -182 c0 -3 -37 -23 -82 -44 -84 -39 -258 -86 -423 -115 -263 -46 -651
-59 -899 -30 -213 25 -473 91 -603 152 -58 28 -68 39 -25 28 15 -4 38 -9 52
-12 14 -2 48 -10 75 -18 111 -31 373 -68 613 -86 187 -14 506 -6 727 20 176
21 443 70 511 95 44 17 54 18 54 10z m-2082 -62 c12 -26 19 -38 16 -27 -19 62
-29 63 141 -16 22 -10 82 -29 133 -43 63 -17 106 -35 135 -57 l42 -33 -29 32
-29 31 34 -8 c128 -31 276 -48 464 -53 130 -3 143 -5 183 -29 40 -25 42 -27
20 -33 -34 -9 -137 -7 -183 4 -22 5 -42 5 -45 0 -3 -4 -25 5 -50 21 -44 29
-44 29 -15 3 l30 -27 -75 6 c-202 17 -249 24 -279 44 -13 8 -20 10 -17 4 10
-15 -19 -14 -105 6 -62 14 -81 23 -123 62 -27 25 -44 37 -38 25 6 -12 23 -29
37 -38 42 -27 24 -28 -51 -2 -77 26 -136 54 -145 68 -3 5 -13 10 -22 12 -33 4
-77 46 -77 71 0 40 23 29 48 -23z m2042 -7 c-7 -8 -20 -15 -29 -15 -13 1 -13
3 3 15 26 19 42 19 26 0z m115 -25 c-3 -5 -11 -10 -16 -10 -6 0 -7 5 -4 10 3
6 11 10 16 10 6 0 7 -4 4 -10z m-157 -16 c26 -18 31 -84 7 -104 -12 -10 -15
-9 -15 7 0 28 -45 74 -64 67 -9 -3 -16 -1 -16 4 0 12 39 42 55 42 6 0 21 -7
33 -16z m690 0 c7 -5 -43 -27 -107 -46 -98 -29 -214 -31 -375 -9 -142 21 -201
39 -86 27 231 -23 351 -17 463 23 43 16 90 18 105 5z m-827 -45 c-46 -43 -138
-60 -195 -36 -29 13 -27 13 53 30 45 10 92 15 104 12 15 -4 18 -4 8 3 -10 7
-7 12 15 19 36 12 44 -2 15 -28z m-1850 13 c51 -39 263 -114 358 -127 45 -6
62 -15 101 -51 26 -24 51 -44 55 -44 5 0 -9 16 -31 35 l-39 36 65 -7 c36 -3
80 -12 98 -20 21 -9 30 -9 26 -2 -5 8 3 9 26 5 18 -4 53 -7 79 -7 39 0 55 -7
101 -41 l55 -41 -85 5 c-184 10 -239 16 -259 27 -12 6 -26 8 -32 5 -12 -8
-146 13 -174 27 -11 6 -40 29 -64 52 -25 22 -39 32 -31 21 8 -11 26 -30 40
-42 28 -25 22 -27 -35 -13 -100 26 -125 41 -160 93 -19 29 -35 48 -35 43 0 -4
13 -28 30 -52 16 -24 26 -44 22 -44 -4 0 -38 17 -77 38 -71 39 -95 71 -82 106
8 21 19 20 48 -2z m1953 -55 c7 -19 6 -31 -2 -39 -16 -16 -28 -2 -37 40 -6 29
-5 33 11 30 10 -2 23 -16 28 -31z m366 -17 c58 -11 143 -24 190 -30 151 -20
144 -15 291 -178 74 -81 244 -257 379 -391 l245 -244 -55 -50 c-90 -81 -337
-286 -455 -376 -60 -47 -136 -107 -169 -135 l-58 -50 -37 40 c-36 40 -206 230
-519 581 -94 106 -176 201 -181 212 -6 10 -14 136 -17 282 l-7 264 45 22 46
22 34 -24 c20 -13 44 -38 55 -55 20 -31 20 -32 2 -68 -23 -45 -24 -74 -2 -119
59 -126 253 -78 253 62 0 63 -32 108 -93 129 -18 6 -60 40 -95 77 l-62 66 53
-9 c28 -4 99 -17 157 -28z m-656 11 c16 -7 27 -14 24 -16 -2 -3 -39 -12 -81
-20 -56 -12 -81 -13 -96 -6 -28 16 -38 14 -16 -3 17 -12 7 -15 -89 -21 -74 -5
-116 -4 -134 4 -24 10 -25 10 -9 -3 17 -13 15 -15 -27 -21 -58 -9 -99 -1 -145
28 l-36 22 72 3 c41 2 82 -2 94 -9 12 -6 19 -7 15 -1 -7 11 168 37 185 27 6
-4 14 -3 18 2 8 12 126 32 166 28 17 -2 43 -8 59 -14z m233 3 c2 -5 -20 -27
-49 -49 -101 -75 -216 -174 -251 -215 -29 -35 -36 -38 -40 -23 -4 16 -5 15 -6
-3 0 -11 -21 -49 -46 -84 l-45 -64 0 46 c0 40 6 53 41 95 23 26 48 49 55 51 7
2 16 12 19 22 6 20 80 86 180 162 94 71 133 88 142 62z m224 -31 c69 -63 109
-126 109 -175 0 -61 -23 -46 -68 45 -34 67 -50 87 -87 110 -25 16 -45 30 -45
32 0 15 15 35 25 35 7 0 37 -21 66 -47z m-430 -44 c-31 -24 -45 -29 -54 -20
-6 6 -15 11 -21 11 -5 0 -2 -6 8 -13 30 -22 2 -33 -147 -62 -133 -26 -167 -27
-212 -10 -20 8 -20 7 -1 -7 18 -14 12 -16 -65 -20 -80 -5 -87 -4 -137 24 -29
17 -52 32 -50 34 2 2 42 4 89 5 66 1 93 -3 115 -16 l29 -17 -24 19 -23 20 91
7 c80 6 97 4 137 -14 60 -26 70 -25 19 2 l-40 22 110 17 c61 10 130 24 155 32
66 22 68 20 21 -14z m-1600 -116 c-1 -42 -9 -98 -15 -124 -7 -27 -9 -46 -5
-43 15 9 39 107 39 158 0 68 10 82 47 68 78 -30 268 -69 453 -94 210 -27 702
-12 878 28 35 8 66 14 69 14 3 0 -21 -28 -54 -63 -105 -109 -179 -238 -192
-332 l-6 -50 -33 61 c-95 175 -229 250 -438 242 -86 -3 -108 -7 -164 -34 -36
-17 -87 -51 -115 -76 -44 -40 -53 -44 -75 -36 -14 5 -60 10 -102 9 -82 0 -160
-25 -194 -62 -18 -20 -49 -25 -59 -9 -3 6 -12 10 -18 10 -7 -1 -2 -9 10 -19
l21 -18 -30 -44 c-27 -41 -33 -45 -86 -51 -126 -17 -234 -101 -297 -232 -33
-69 -39 -76 -58 -69 -51 18 -130 7 -208 -29 -172 -80 -281 -182 -355 -333 -64
-129 -87 -228 -80 -337 3 -48 2 -89 -3 -92 -14 -9 -51 -117 -60 -176 -11 -67
2 -167 30 -229 11 -25 40 -67 66 -92 l45 -47 -21 -56 c-27 -73 -28 -182 -2
-265 31 -100 88 -176 195 -259 l29 -22 -26 -38 c-121 -174 -95 -375 68 -537
l70 -70 -13 -60 c-20 -94 -9 -326 22 -446 40 -160 81 -219 183 -270 38 -19 69
-34 71 -35 1 -1 -12 -32 -30 -70 -28 -58 -33 -83 -36 -154 -3 -73 0 -95 21
-147 14 -35 23 -72 20 -87 -5 -26 11 -37 20 -13 2 7 21 -7 46 -35 133 -150
500 -294 809 -318 65 -5 149 -14 187 -19 39 -5 131 -12 205 -15 152 -6 104 4
-115 24 -71 6 -140 14 -153 17 -22 5 -21 7 15 23 21 9 58 33 81 54 24 20 46
36 49 36 2 0 21 -13 41 -30 81 -64 230 -110 360 -110 140 0 304 63 398 152
l56 52 72 -3 c144 -6 367 68 544 180 77 49 98 45 133 -23 19 -37 20 -48 11
-83 -9 -36 -9 -38 4 -21 31 43 5 139 -46 166 l-22 12 23 24 c12 13 26 24 30
24 4 0 33 -23 63 -51 31 -28 56 -48 56 -45 0 19 -33 67 -62 89 l-31 25 41 50
c107 127 147 299 97 418 -13 32 -13 32 37 64 90 59 176 192 198 310 12 65 0
144 -33 211 l-22 46 71 76 c80 87 117 148 139 232 19 75 19 138 0 203 l-16 52
51 52 c27 28 65 80 82 116 28 57 33 78 36 163 4 92 2 102 -25 161 -16 35 -46
81 -66 102 -20 21 -37 40 -37 41 0 2 15 26 34 54 52 76 76 150 76 231 0 38 -5
81 -10 96 -9 22 -6 34 19 73 45 71 62 120 68 196 13 178 -53 307 -196 380 -28
14 -51 29 -50 33 0 4 37 36 81 71 l81 64 18 -24 c83 -108 169 -372 169 -523 0
-22 5 -48 10 -56 23 -36 5 159 -26 290 -16 64 -93 236 -134 296 l-21 32 41 32
40 32 20 -24 c33 -39 106 -189 134 -273 84 -259 82 -636 -5 -1075 -36 -182
-128 -559 -175 -720 -138 -472 -494 -1552 -549 -1666 -34 -70 -57 -103 -101
-143 -155 -142 -496 -247 -999 -307 -617 -73 -1469 51 -1785 261 -78 52 -124
104 -164 183 -27 53 -174 486 -331 977 -48 149 -116 360 -151 470 -157 485
-252 877 -300 1235 -24 175 -24 494 0 613 56 285 164 488 359 675 112 106 248
195 474 308 179 90 279 156 320 212 54 72 83 169 83 273 l0 48 43 -19 42 -19
-4 -78z m1759 61 c0 -24 -76 -252 -102 -304 -61 -126 -184 -217 -280 -208 -28
3 -33 7 -36 32 -8 68 68 204 182 325 54 57 154 137 190 151 25 10 46 12 46 4z
m-810 -39 l55 -35 -91 0 c-85 0 -94 2 -137 31 -26 17 -47 33 -47 35 0 2 37 4
83 4 76 0 86 -3 137 -35z m834 -94 c-29 -114 -64 -214 -90 -258 -26 -45 -33
-50 -51 -32 -8 8 -1 26 22 65 18 29 55 120 81 201 36 108 50 140 52 119 2 -16
-4 -58 -14 -95z m430 88 c34 -40 41 -72 26 -110 -30 -71 -120 -93 -179 -43
-35 29 -49 83 -32 120 17 39 31 28 31 -25 0 -42 4 -53 26 -70 34 -26 68 -27
94 -1 33 33 35 66 6 108 -14 21 -26 41 -26 45 0 18 31 4 54 -24z m-46 -110
c-13 -9 -68 -12 -68 -5 0 2 -2 11 -5 19 -5 10 1 13 24 9 22 -3 33 1 43 17 13
22 13 22 16 -5 2 -15 -2 -31 -10 -35z m-368 -222 c-17 -109 -4 -223 45 -393 6
-18 2 -21 -23 -22 -28 -1 -30 3 -50 71 -28 97 -38 167 -23 167 8 0 9 6 2 18
-8 16 1 168 12 202 3 8 14 51 24 95 l18 80 3 -70 c2 -38 -2 -105 -8 -148z
m-905 128 c108 -29 186 -93 252 -209 l32 -56 -52 -1 c-29 -1 -63 -4 -77 -8
-20 -6 -12 -9 35 -14 33 -4 71 -9 85 -12 22 -5 22 -4 5 4 -17 8 -16 10 12 10
26 1 35 -5 48 -29 8 -16 23 -34 32 -39 16 -9 15 -10 -7 -11 -23 0 -22 -1 10
-18 47 -23 96 -91 116 -160 43 -148 -27 -324 -180 -450 -55 -46 -27 -40 32 7
57 45 132 154 157 226 35 104 17 237 -44 322 -42 58 -42 58 -8 59 18 0 47 2
66 5 32 4 38 0 72 -46 62 -81 84 -152 84 -275 0 -99 -2 -109 -34 -175 -51
-105 -186 -236 -306 -297 -82 -42 -213 -93 -220 -86 -2 2 -5 27 -6 57 l-3 54
55 25 c29 13 49 26 43 28 -6 3 -31 -4 -55 -15 l-44 -20 -9 22 c-57 135 -122
207 -233 260 -62 29 -77 31 -163 31 -66 0 -107 -5 -134 -17 -37 -16 -40 -16
-72 4 -19 11 -34 24 -34 27 0 4 -5 34 -10 67 -15 88 -13 272 4 355 9 40 18 75
20 78 3 3 52 -5 108 -17 138 -28 352 -51 468 -49 l95 1 -95 9 c-253 23 -552
67 -569 83 -2 3 15 36 38 74 50 84 115 144 176 161 60 17 150 8 204 -20 55
-27 125 -99 156 -159 13 -25 24 -42 25 -38 0 15 -49 104 -76 136 -37 45 -118
89 -189 103 -50 10 -56 13 -35 19 45 13 165 9 225 -6z m437 -148 c-24 -71 -31
-82 -41 -68 -9 13 -10 13 -2 -4 6 -11 21 -33 34 -49 20 -25 30 -29 67 -28 53
2 139 41 196 87 36 30 44 33 54 20 11 -13 6 -22 -31 -56 -55 -51 -97 -73 -176
-89 -79 -16 -142 -8 -165 20 -37 45 -12 159 59 279 l28 46 3 -37 c2 -23 -8
-71 -26 -121z m-988 23 c42 0 47 -13 26 -56 -12 -21 -19 -47 -16 -56 7 -30
-27 -27 -151 14 -51 17 -93 34 -93 38 0 29 127 73 184 64 16 -2 38 -4 50 -4z
m1372 -115 c-7 -41 -9 -43 -54 -54 -26 -7 -55 -14 -64 -17 -9 -3 13 26 50 63
37 37 69 64 71 60 1 -5 0 -28 -3 -52z m-1610 36 c5 -6 54 -25 109 -43 55 -19
101 -38 103 -43 2 -6 -2 -29 -9 -52 l-11 -42 -52 35 c-57 37 -151 74 -191 74
-31 0 -31 3 1 46 28 36 34 39 50 25z m1753 -115 c18 -11 13 -26 -9 -26 -11 0
-20 6 -20 14 0 7 -2 29 -6 47 l-5 34 14 -31 c8 -18 20 -35 26 -38z m-1787 3
c60 -13 114 -38 174 -81 l41 -30 6 -151 c3 -84 9 -162 12 -175 7 -21 4 -20
-71 15 -74 36 -84 38 -174 38 -86 -1 -102 -4 -168 -34 -39 -19 -77 -40 -83
-47 -18 -22 -25 -17 -38 29 -9 28 -29 58 -63 90 l-51 47 39 37 c144 136 368
97 504 -86 29 -39 55 -71 57 -71 13 0 -49 91 -92 135 -71 73 -150 109 -247
114 -69 3 -84 0 -140 -27 -35 -16 -76 -43 -93 -60 -37 -39 -49 -40 -40 -4 19
79 100 176 185 221 89 47 155 58 242 40z m1646 -40 c2 -39 -1 -46 -27 -64 -17
-11 -47 -41 -68 -67 l-37 -47 -17 44 c-9 24 -31 64 -48 87 l-32 43 43 12 c86
23 163 40 173 38 6 -1 11 -21 13 -46z m206 -38 c16 -18 15 -19 -26 -24 -23 -3
-46 -3 -50 -1 -14 9 -8 32 10 37 34 9 49 7 66 -12z m122 -134 c49 -57 135
-156 192 -219 56 -64 102 -120 102 -124 0 -10 -40 -38 -45 -32 -15 17 -34 71
-29 80 4 6 3 8 -3 5 -11 -7 -63 53 -63 72 0 6 -7 11 -16 11 -8 0 -24 5 -35 11
-17 9 -18 13 -7 27 11 15 11 15 -3 4 -13 -10 -23 -9 -54 4 -52 21 -147 22
-225 0 l-65 -18 -59 36 c-32 19 -63 37 -69 39 -11 3 39 83 67 107 18 14 18 14
32 -18 8 -20 18 -24 62 -26 60 -4 62 2 37 75 -17 46 -13 55 25 62 62 11 65 9
156 -96z m-307 61 c6 -18 -1 -32 -35 -75 -24 -29 -48 -62 -54 -73 -14 -27 -40
-14 -40 20 0 28 20 60 74 118 35 38 44 39 55 10z m-2139 -153 c97 -30 191
-159 133 -180 -21 -7 -109 -109 -160 -185 -64 -96 -107 -193 -149 -342 -23
-82 -49 -159 -58 -173 -26 -39 -86 -74 -146 -84 l-55 -9 53 -1 c52 -1 98 15
135 47 9 8 19 13 22 11 10 -10 -28 -125 -48 -147 -14 -15 -16 -21 -6 -17 22 8
47 55 59 111 6 27 14 54 18 59 8 13 238 164 254 168 5 1 20 -28 32 -66 l22
-67 -43 -26 c-63 -36 -107 -78 -142 -133 l-31 -48 -104 -11 c-108 -12 -182
-35 -244 -77 l-36 -25 -34 33 c-19 17 -42 48 -52 68 -19 36 -40 131 -35 159 1
8 5 33 8 55 l6 40 -15 -45 c-29 -87 2 -209 72 -281 l35 -36 -23 -27 c-16 -19
-29 -25 -40 -21 -25 10 -82 91 -103 147 -24 66 -18 214 13 282 l22 49 22 -29
c25 -34 100 -105 105 -100 2 2 -2 27 -8 57 -14 64 -6 236 15 324 18 75 12 85
-8 14 -27 -95 -39 -190 -33 -263 l6 -71 -30 35 c-57 67 -74 187 -44 305 26
105 99 239 172 316 61 65 172 149 196 149 6 0 0 -12 -14 -27 -53 -59 -61 -76
-19 -37 47 43 124 97 150 106 20 7 100 3 130 -7z m2120 -87 l63 -33 -49 -43
c-27 -24 -60 -48 -73 -53 -49 -20 -10 -20 51 -1 92 30 129 34 189 21 72 -15
133 -51 169 -101 19 -26 30 -35 30 -24 0 9 -22 39 -49 66 -71 71 -174 96 -284
71 -54 -13 -34 7 47 49 118 59 240 51 338 -24 67 -52 128 -181 128 -275 0 -31
-2 -33 -27 -27 -16 3 -49 9 -75 12 -45 6 -48 9 -50 38 l-1 31 -4 -31 c-4 -31
-5 -31 -96 -46 -271 -44 -418 -237 -405 -533 2 -52 2 -93 0 -91 -2 2 -10 34
-17 72 -30 141 -107 254 -206 302 -70 34 -148 45 -216 31 -88 -17 -98 -17 -98
5 0 14 14 24 52 37 247 84 456 310 471 509 4 64 7 70 27 70 12 0 50 -15 85
-32z m-1598 -39 c68 -15 119 -37 192 -84 63 -40 63 -47 0 -71 l-39 -15 35 4
c19 3 73 18 120 36 177 64 345 26 417 -97 20 -34 28 -63 33 -131 5 -78 7 -82
14 -47 5 23 5 62 -1 95 -6 31 -9 58 -7 60 2 2 18 -26 34 -62 37 -77 47 -153
31 -227 -13 -59 -60 -160 -95 -203 -22 -27 -23 -27 -73 -16 l-52 12 38 56 c41
60 95 161 89 166 -2 2 -18 -24 -36 -58 -17 -34 -52 -85 -76 -113 -45 -51 -46
-51 -114 -56 -154 -11 -288 -113 -337 -256 l-13 -36 -35 76 c-76 165 -222 246
-426 237 l-76 -4 -18 55 c-77 233 -57 418 61 566 44 56 116 98 192 113 64 12
82 12 142 0z m-372 -71 c0 -7 -9 -26 -20 -43 -57 -83 -90 -200 -90 -316 l0
-76 -32 -11 -33 -11 35 2 c32 2 35 0 38 -28 2 -27 -3 -33 -55 -63 -32 -18 -85
-53 -118 -77 -69 -51 -78 -54 -65 -22 5 12 18 61 29 108 36 156 124 334 236
477 54 69 75 86 75 60z m2730 -198 c56 -60 107 -110 114 -110 6 0 40 23 75 50
36 28 68 50 71 50 26 0 65 -87 80 -180 l9 -55 -3 69 c-3 52 -11 82 -34 128
-26 50 -29 60 -16 65 24 9 132 -47 179 -93 72 -69 102 -204 71 -322 -16 -65
-51 -142 -64 -142 -4 1 -22 21 -41 46 -18 25 -52 59 -76 76 l-42 30 14 40 c8
22 12 46 10 52 -2 6 -10 -8 -16 -31 -6 -23 -15 -44 -19 -47 -4 -2 -41 7 -82
19 -41 13 -102 27 -135 32 -58 8 -61 10 -82 51 -33 66 -66 105 -121 143 l-50
34 -5 80 c-5 77 -4 81 21 102 15 13 30 23 33 23 4 0 53 -49 109 -110z m-195
-129 c85 -40 147 -108 203 -219 26 -52 56 -99 67 -105 17 -9 18 -8 8 5 -7 8
-20 31 -28 52 l-16 38 58 -7 c234 -29 377 -164 377 -356 0 -63 -5 -86 -31
-140 -76 -161 -278 -309 -536 -391 l-97 -31 -58 26 c-53 23 -98 35 -212 55
-43 7 -46 10 -77 71 -17 34 -41 95 -54 134 -12 39 -25 65 -27 59 -5 -17 35
-136 70 -204 l28 -58 -27 0 c-16 0 -38 -3 -50 -6 -19 -5 -28 4 -62 56 -84 129
-147 342 -158 527 -12 222 53 377 194 460 43 25 144 57 142 45 0 -4 -19 -21
-42 -37 -65 -47 -114 -126 -138 -225 -19 -72 -21 -104 -16 -213 2 -71 9 -133
14 -138 5 -5 6 26 0 79 -10 103 3 234 31 315 70 197 266 290 437 208z m-1240
-174 c0 -10 -18 -28 -42 -42 l-42 -26 16 46 c13 41 18 46 42 43 17 -2 26 -9
26 -21z m320 -36 c62 -28 130 -94 162 -160 25 -49 28 -70 31 -171 6 -194 -26
-325 -129 -533 -50 -99 -137 -232 -180 -273 -27 -26 -36 -29 -92 -27 -250 6
-630 209 -760 406 -84 127 -101 286 -42 396 52 95 142 158 262 181 51 10 74
10 141 -4 87 -18 148 -21 156 -7 3 4 -7 6 -22 3 -26 -5 -26 -4 15 42 136 154
313 211 458 147z m-1492 -175 c63 -19 136 -74 171 -130 16 -26 31 -44 34 -41
11 11 -70 116 -109 142 -46 31 -38 41 18 22 150 -48 224 -135 259 -304 48
-233 -54 -634 -198 -772 -27 -26 -92 -63 -111 -63 -3 0 13 33 33 73 115 219
185 517 161 690 -12 89 -17 75 -13 -35 3 -55 -1 -134 -7 -177 -20 -130 -82
-329 -136 -436 -43 -85 -56 -103 -88 -119 -34 -16 -46 -17 -120 -6 -45 6 -144
32 -219 57 -248 82 -426 210 -500 360 -30 62 -33 76 -33 158 0 71 5 100 22
137 46 101 158 184 276 207 77 14 167 21 167 12 0 -5 -11 -25 -25 -46 -14 -20
-20 -35 -13 -33 7 3 21 18 31 34 11 16 40 63 66 104 55 87 124 141 211 164 70
19 68 19 123 2z m1771 -302 c6 -42 5 -52 -8 -57 -14 -6 -16 5 -15 71 0 83 11
76 23 -14z m-80 -122 c-31 -141 -97 -290 -186 -418 -78 -114 -97 -119 -24 -7
106 163 193 367 213 505 5 37 9 45 11 25 2 -15 -4 -62 -14 -105z m131 -41 c14
-44 49 -117 76 -163 l50 -83 -22 -15 c-60 -39 -148 -139 -176 -200 -36 -76
-63 -188 -63 -260 0 -29 -3 -50 -7 -48 -5 2 -31 15 -58 30 -57 29 -161 53
-201 45 -23 -4 -28 1 -50 47 -31 66 -30 73 9 90 120 53 289 328 338 550 11 50
17 60 43 72 17 7 32 13 33 14 1 0 13 -36 28 -79z m1210 -103 c21 -24 46 -61
56 -84 57 -125 18 -294 -94 -402 l-33 -32 -48 46 -48 46 38 39 c48 50 33 51
-18 2 l-38 -37 -38 22 c-49 27 -152 52 -219 52 -29 0 -53 4 -53 9 0 4 -18 29
-40 54 -22 25 -40 47 -40 50 0 3 15 8 33 12 119 24 290 107 405 197 l63 49 19
-43 c24 -52 26 -148 5 -207 -8 -22 -10 -41 -6 -41 13 0 31 58 37 120 5 42 1
70 -15 115 -12 32 -21 63 -21 67 0 18 21 5 55 -34z m-2548 -26 l30 -48 -55
-10 -54 -10 7 50 c3 27 8 53 11 58 12 19 33 5 61 -40z m129 -147 c147 -125
347 -227 518 -266 l58 -13 -4 -83 c-2 -45 -7 -85 -10 -89 -3 -3 -29 11 -57 31
-96 70 -252 95 -366 60 -107 -32 -200 -125 -240 -240 -22 -66 -32 -266 -16
-330 7 -26 10 -50 7 -52 -3 -3 -21 4 -40 16 -19 12 -58 30 -88 40 l-53 18 -7
59 c-4 32 -17 85 -29 117 -17 47 -19 71 -14 118 l7 59 28 -15 c49 -25 45 -17
-22 44 -35 33 -72 78 -82 100 l-19 40 37 38 c47 49 130 216 154 313 23 89 40
103 118 97 46 -3 59 -10 120 -62z m1571 3 l77 -11 -65 -21 c-82 -27 -173 -81
-205 -124 -40 -51 -73 -133 -89 -217 -15 -77 -19 -308 -7 -353 4 -13 7 50 8
140 1 289 59 424 216 508 51 27 77 34 140 38 69 4 81 2 120 -21 59 -35 109
-90 147 -162 30 -56 68 -101 78 -91 2 2 -7 21 -22 41 -33 49 -32 55 9 55 98 0
216 -43 284 -104 63 -57 86 -115 86 -216 1 -80 -2 -91 -37 -164 -52 -104 -188
-242 -300 -305 -175 -98 -356 -161 -463 -161 -105 0 -140 39 -211 234 -22 60
-31 77 -27 51 8 -55 37 -135 72 -200 17 -30 28 -55 26 -55 -16 0 -104 53 -128
76 -57 57 -129 249 -156 417 -19 116 -9 284 22 373 48 137 136 236 238 268 56
18 89 19 187 4z m-2752 -305 c37 -23 45 -32 39 -48 -13 -37 -16 -159 -5 -195
6 -19 26 -60 44 -91 33 -56 34 -57 16 -80 -10 -13 -28 -48 -40 -77 l-22 -53
-53 52 c-121 120 -162 282 -103 417 19 44 58 100 71 101 4 1 28 -11 53 -26z
m1872 4 c9 -10 16 -94 10 -119 -4 -15 -21 -30 -47 -42 -52 -23 -76 -18 -72 14
2 14 5 56 9 94 l5 68 45 -5 c24 -2 47 -7 50 -10z m-1737 -67 c38 -16 71 -30
75 -30 4 0 38 -10 77 -21 l70 -21 -39 -42 -38 -41 41 38 42 39 83 -10 c88 -11
175 -2 235 23 33 14 34 13 49 -15 14 -26 13 -33 -1 -70 -16 -39 -17 -40 -39
-26 -39 26 -127 46 -200 46 -116 0 -232 -49 -327 -137 l-46 -44 -28 46 c-36
62 -53 112 -54 157 0 40 19 138 27 138 2 0 35 -13 73 -30z m1444 -42 c42 -16
166 -94 166 -104 0 -2 -15 -10 -32 -18 -29 -13 -30 -14 -10 -15 13 -1 58 14
101 33 171 75 301 69 416 -18 28 -22 33 -33 44 -108 7 -45 19 -109 28 -141 28
-102 -6 -192 -128 -336 -69 -82 -58 -86 13 -4 66 74 107 137 126 191 l16 47
13 -32 c11 -29 10 -40 -10 -96 -36 -100 -74 -155 -162 -243 -165 -161 -415
-304 -533 -304 -57 0 -133 43 -221 126 -168 158 -286 357 -306 511 l-5 48 18
-55 c64 -190 232 -413 397 -526 60 -41 91 -43 182 -9 74 28 230 118 278 161
34 30 38 32 -98 -51 -118 -72 -206 -109 -267 -113 -53 -4 -58 -2 -110 39 -113
89 -234 232 -304 360 -126 230 -121 454 12 587 95 95 242 123 376 70z m-774
-127 c6 -12 7 -35 2 -55 l-7 -36 -29 23 c-28 23 -28 23 -12 55 19 37 31 40 46
13z m-173 -25 c129 -60 222 -202 223 -338 0 -42 27 -118 41 -118 6 0 5 8 -1
19 -5 11 -10 29 -10 40 0 19 2 19 58 -6 86 -37 147 -93 190 -177 35 -67 37
-76 37 -166 0 -87 -3 -100 -30 -149 -78 -141 -241 -216 -454 -209 l-85 3 -48
249 c-26 137 -50 254 -52 260 -14 29 27 -213 89 -534 20 -100 62 -235 99 -316
83 -179 240 -266 426 -235 139 23 230 100 271 231 30 97 13 172 -57 250 -70
77 -154 103 -247 76 -66 -19 -110 -54 -139 -109 -44 -88 4 -188 90 -186 l37 1
-37 8 c-130 25 -121 192 13 260 47 24 134 26 187 4 85 -35 152 -136 152 -230
0 -68 -55 -180 -110 -224 -68 -54 -104 -64 -225 -65 -106 0 -112 1 -173 34
-108 59 -162 139 -221 326 -17 54 -31 102 -31 106 0 3 36 9 80 12 206 16 402
130 472 275 17 37 33 68 34 70 1 2 57 -18 118 -43 13 -6 17 -5 13 2 -4 6 -34
21 -67 33 l-60 23 1 48 2 48 42 -47 c70 -78 97 -112 89 -112 -4 0 18 -26 49
-58 44 -47 59 -72 76 -126 12 -38 21 -77 21 -87 0 -10 4 -19 9 -19 21 0 -19
142 -55 196 l-25 37 33 -22 c18 -12 52 -32 75 -43 34 -18 45 -30 58 -67 39
-112 28 -255 -31 -420 -60 -170 -178 -330 -289 -395 -48 -29 -126 -43 -171
-32 -25 7 -23 9 37 37 159 75 351 350 364 521 l5 63 -16 -69 c-34 -151 -107
-279 -230 -402 -122 -122 -210 -151 -350 -115 -348 89 -574 227 -634 389 -30
78 -27 181 6 252 38 82 47 89 97 79 64 -12 79 -11 75 7 -2 11 -33 25 -98 44
-140 40 -195 72 -226 133 -20 37 -6 35 73 -13 59 -35 156 -77 223 -95 53 -15
3 13 -72 39 -42 15 -100 42 -130 59 -48 29 -55 38 -76 97 -18 52 -22 57 -17
25 3 -22 8 -47 11 -55 2 -10 -3 -16 -15 -17 -45 -4 -97 260 -87 447 8 179 45
277 142 377 45 46 52 51 35 23 -90 -146 -113 -228 -116 -410 l-3 -145 8 125
c15 224 60 351 159 451 72 71 137 98 241 98 59 1 86 -4 127 -23z m2712 -465
c43 -100 20 -252 -53 -351 -42 -58 -156 -157 -156 -137 0 9 -19 32 -42 51
l-42 36 30 32 c30 32 15 30 -22 -4 -20 -18 -22 -18 -79 7 -32 15 -95 31 -141
37 -78 10 -83 12 -95 40 -6 16 -31 48 -53 72 l-42 43 37 -7 c32 -6 104 0 185
14 36 7 203 75 273 112 35 18 68 31 74 27 17 -11 1 -128 -27 -188 -14 -32 -20
-52 -12 -46 31 26 59 115 60 188 1 71 2 73 36 97 19 14 38 25 41 26 4 0 16
-22 28 -49z m-935 -31 l37 -51 -53 7 c-29 4 -54 8 -55 9 -3 2 29 85 33 85 1 0
18 -23 38 -50z m37 -96 c66 -19 84 -34 43 -34 -35 0 -138 -29 -131 -36 3 -3
29 2 58 10 148 44 239 -4 324 -174 24 -48 50 -90 58 -93 11 -4 9 4 -5 31 -30
60 -27 66 43 58 34 -4 80 -14 103 -23 52 -20 138 -80 166 -115 l21 -27 -55
-111 c-67 -133 -95 -182 -159 -278 -27 -41 -47 -76 -44 -78 14 -14 192 283
241 401 20 48 32 36 42 -41 21 -175 -149 -399 -402 -527 -86 -44 -251 -96
-336 -107 -144 -18 -173 1 -219 143 -13 39 -25 65 -27 59 -2 -7 8 -49 22 -93
14 -44 26 -82 26 -85 0 -7 -62 26 -99 54 -86 64 -181 407 -167 601 10 135 20
161 76 199 90 62 194 158 240 220 42 59 47 62 85 62 23 0 66 -7 96 -16z m-535
-390 c-3 -26 -6 -73 -6 -105 l0 -59 -37 -2 -38 -1 36 -4 36 -4 12 -69 c6 -38
11 -73 11 -78 0 -32 -141 -17 -221 23 l-47 24 -4 73 c-3 40 -8 81 -13 91 -6
14 4 11 41 -13 27 -16 65 -32 84 -35 l35 -6 -36 14 c-46 17 -100 51 -123 75
-16 19 -15 20 32 26 27 3 89 26 138 50 49 25 93 45 98 45 5 1 6 -20 2 -45z
m-1076 -140 c-25 -8 -82 -20 -128 -26 -71 -10 -85 -10 -93 3 -17 27 -9 30 64
24 39 -3 95 -2 122 3 73 14 86 12 35 -4z m1025 -237 l83 0 6 -40 c9 -57 62
-188 96 -239 16 -23 30 -46 30 -50 0 -4 -26 -21 -57 -38 -38 -20 -48 -29 -30
-25 16 3 46 17 68 31 l39 24 60 -30 c33 -17 60 -34 60 -39 0 -14 -99 -90 -150
-116 -106 -54 -233 -73 -356 -55 -98 15 -190 51 -240 94 l-38 33 34 44 c19 24
35 45 36 47 1 2 16 -4 33 -12 47 -25 81 -36 81 -28 0 4 -15 13 -33 20 -18 6
-41 18 -51 25 -17 12 -17 15 3 48 46 79 92 211 116 340 l5 26 61 -31 c54 -26
71 -30 144 -29z m1766 43 c133 -42 226 -148 263 -303 6 -26 5 -27 -20 -21 -18
5 -25 3 -20 -4 3 -6 44 -22 89 -36 152 -46 248 -112 291 -198 57 -113 20 -218
-108 -304 -28 -19 -44 -34 -36 -34 9 0 39 16 68 36 l53 35 -30 -53 c-47 -82
-93 -124 -164 -147 -103 -33 -166 -43 -309 -48 -154 -6 -143 -11 -151 71 l-5
48 82 -4 c90 -6 264 7 311 22 22 7 7 8 -55 3 -47 -3 -145 -5 -218 -5 l-133 0
-31 31 c-18 17 -55 40 -82 50 -39 15 -50 24 -48 38 2 10 4 43 4 73 2 66 -14
101 -88 188 -30 35 -57 74 -60 87 -4 15 6 48 29 97 19 40 54 134 78 208 23 74
48 141 55 149 15 16 95 39 140 40 18 1 60 -8 95 -19z m-3657 -60 c35 -18 34
-16 86 -160 23 -63 57 -144 75 -179 33 -62 34 -65 18 -95 -9 -17 -37 -55 -64
-83 -26 -29 -53 -69 -59 -89 -19 -57 -8 -145 23 -193 15 -22 27 -42 27 -45 0
-7 -112 -18 -265 -26 -142 -8 -138 -8 69 -5 210 3 221 2 253 -19 18 -11 33
-28 33 -37 0 -31 -74 -86 -131 -99 -140 -31 -431 -29 -558 4 -232 60 -318 140
-347 324 l-7 44 50 -50 c28 -28 79 -65 113 -82 57 -29 192 -70 228 -70 31 0 2
12 -75 32 -198 50 -313 150 -313 273 0 125 115 221 317 265 50 11 99 23 109
27 16 6 15 8 -8 13 l-28 5 26 55 c47 101 108 159 204 194 55 20 181 17 224 -4z
m408 -568 c215 -104 514 -178 903 -224 71 -8 231 -13 450 -13 301 1 357 4 485
23 472 73 779 173 921 300 l48 43 12 -23 c6 -13 33 -48 59 -78 61 -71 70 -90
70 -142 0 -63 -9 -88 -32 -88 -15 0 -18 4 -13 18 28 65 5 148 -53 187 -20 14
-41 25 -47 25 -5 0 7 -11 28 -25 43 -30 67 -71 67 -117 0 -55 -10 -78 -34 -78
-39 0 -66 12 -66 29 0 22 -45 117 -60 126 -7 4 -1 -12 13 -36 14 -24 27 -57
29 -74 l3 -30 -98 -7 c-113 -8 -191 -38 -227 -86 -18 -24 -31 -31 -77 -36
-131 -15 -216 -68 -228 -143 -4 -21 -8 -43 -10 -49 -4 -13 -66 -25 -275 -54
l-135 -19 103 5 c57 3 131 10 165 15 163 24 147 25 147 -5 0 -14 -4 -26 -8
-26 -5 0 -53 -7 -108 -15 -333 -49 -765 -60 -1116 -26 -169 16 -201 22 -225
40 -15 12 -39 30 -53 40 -24 18 -21 18 83 0 161 -27 314 -39 492 -38 88 0 156
2 150 4 -5 2 -102 9 -213 15 -268 14 -513 45 -531 66 -4 5 -13 28 -19 51 -20
68 -71 133 -132 167 -53 30 -59 31 -175 31 -123 0 -156 -8 -323 -76 -32 -14
-35 -13 -62 17 -54 61 -51 175 5 231 18 18 30 33 26 33 -10 0 -56 -51 -70 -77
-27 -54 -3 -174 43 -212 42 -35 -8 -42 -63 -9 -96 57 -161 151 -161 233 0 54
10 76 61 131 20 23 45 56 54 73 l16 32 49 -44 c27 -25 87 -63 132 -85z m3988
2 c22 -9 41 -21 42 -28 0 -6 1 -18 2 -26 1 -11 19 -16 76 -21 104 -7 146 -34
142 -89 -2 -27 -1 -28 58 -32 97 -7 141 -69 88 -125 -19 -20 -20 -25 -8 -33 8
-5 23 -10 33 -10 34 0 82 -27 96 -53 21 -39 2 -74 -44 -83 -47 -9 -52 -20 -15
-39 37 -19 49 -58 26 -84 -25 -28 -98 -45 -167 -38 l-60 5 6 -29 c9 -41 -14
-73 -70 -94 -45 -18 -98 -17 -182 1 -32 6 -33 5 -33 -25 0 -88 -162 -126 -328
-75 -22 6 -23 5 -17 -42 6 -42 3 -53 -16 -78 -48 -61 -178 -85 -274 -51 -56
20 -65 19 -65 -11 0 -39 -16 -60 -60 -78 -62 -25 -154 -21 -220 10 -34 16 -56
21 -58 14 -9 -27 -56 -70 -89 -81 -54 -18 -155 -6 -215 25 -48 25 -51 25 -64
9 -7 -10 -14 -21 -14 -24 0 -3 -19 -16 -41 -28 -55 -31 -147 -26 -213 13 l-45
26 -38 -40 c-33 -36 -45 -42 -94 -47 -55 -5 -109 11 -161 49 -15 10 -22 8 -45
-14 -58 -56 -132 -59 -227 -11 l-50 25 -20 -27 c-52 -72 -208 -74 -282 -4
l-21 20 -43 -22 c-74 -39 -174 -26 -223 29 -18 20 -19 20 -74 -9 -82 -43 -159
-36 -218 21 l-31 30 -38 -28 c-33 -23 -48 -27 -107 -27 -50 0 -73 4 -85 17
-15 15 -14 16 15 23 17 4 44 4 61 0 62 -14 157 47 128 82 -9 11 -7 18 8 34 19
19 24 19 244 3 417 -29 781 -22 1330 27 507 45 694 76 994 168 89 27 250 75
359 105 250 71 429 130 490 164 59 32 133 111 142 152 22 101 -45 185 -215
267 -58 28 -114 53 -125 55 -33 6 -24 33 10 33 25 0 30 4 33 28 3 24 -2 30
-27 40 -19 7 -31 18 -31 29 0 22 18 23 70 2z m-5280 -43 c0 -12 -9 -20 -29
-24 -36 -7 -52 -44 -27 -62 9 -7 27 -10 41 -7 50 9 23 -16 -57 -56 -99 -47
-164 -101 -189 -156 -24 -52 -24 -78 0 -125 30 -57 84 -99 206 -157 202 -97
352 -138 914 -252 31 -7 36 -12 47 -55 17 -65 50 -105 124 -149 58 -34 60 -37
33 -40 -49 -6 -97 10 -124 40 -15 16 -28 35 -31 42 -3 10 -19 8 -66 -9 -34
-11 -77 -21 -95 -21 -85 0 -147 43 -147 101 0 34 0 33 -64 14 -129 -39 -266 8
-266 92 0 35 -1 35 -32 29 -119 -24 -197 -18 -234 19 -13 13 -24 35 -24 49 0
24 -3 25 -32 18 -18 -4 -62 -7 -98 -6 -72 0 -120 20 -145 58 -15 22 -15 27 1
63 10 21 19 40 21 43 2 3 -42 5 -96 5 -91 0 -101 2 -125 24 -14 14 -26 34 -26
46 0 27 35 61 78 76 41 14 40 22 -2 37 -96 35 -61 112 59 129 44 6 56 15 35
28 -18 11 -11 51 13 73 32 31 105 54 157 50 41 -3 45 -1 48 22 5 33 29 58 66
69 50 15 66 13 66 -8z m5234 -7 c9 -3 16 -13 16 -21 0 -10 -6 -13 -16 -9 -9 3
-18 6 -20 6 -2 0 -4 7 -4 15 0 17 2 18 24 9z m-5234 -43 c0 -18 -36 -36 -44
-22 -8 13 9 30 42 40 1 1 2 -7 2 -18z m5338 -106 c154 -73 212 -132 212 -216
0 -113 -105 -182 -410 -273 -47 -14 -215 -64 -375 -112 -344 -103 -441 -129
-555 -149 -457 -79 -1181 -134 -1600 -121 -297 10 -581 29 -580 39 0 1 7 20
15 42 16 44 19 213 6 283 -5 23 -6 42 -2 42 3 0 51 -5 106 -11 181 -18 497
-26 695 -18 178 8 501 39 564 55 26 6 26 5 26 -52 0 -168 175 -267 475 -265
217 0 372 56 479 172 61 66 76 110 76 227 l0 67 158 1 c131 0 170 4 238 23
153 42 226 106 299 260 35 73 30 73 173 6z m-5302 -58 c77 -215 473 -329 873
-252 102 20 149 42 187 89 19 24 33 33 42 28 8 -6 -7 -24 -52 -60 -83 -66
-180 -179 -196 -228 -8 -24 -10 -63 -6 -114 l6 -76 -82 17 c-516 104 -696 157
-893 257 -141 73 -189 135 -170 222 13 61 88 124 210 177 56 24 48 30 81 -60z
m4198 8 c174 -37 236 -118 164 -215 -47 -64 -188 -136 -323 -164 -77 -16 -96
-27 -33 -19 131 16 262 72 344 149 l47 43 -5 -107 c-6 -121 -16 -147 -75 -204
-102 -97 -209 -137 -393 -145 -213 -9 -366 31 -444 117 l-36 40 0 122 c0 120
0 122 19 101 52 -55 192 -108 311 -117 94 -7 82 -1 -37 18 -121 21 -195 50
-244 95 -63 61 -53 114 33 157 38 19 77 28 151 35 97 9 140 19 84 19 -15 0
-27 4 -27 10 0 13 65 64 92 72 45 12 302 8 372 -7z m-2523 -50 c65 -23 99 -60
99 -107 0 -21 -7 -54 -15 -74 -13 -31 -17 -34 -42 -28 -19 4 -25 3 -18 -4 6
-5 51 -22 100 -37 74 -22 97 -34 127 -66 50 -53 58 -99 28 -157 -39 -72 -135
-129 -265 -157 -81 -17 -97 -28 -29 -19 117 15 237 73 294 142 l30 37 0 -85
c0 -121 -12 -156 -75 -217 -44 -43 -67 -56 -137 -79 -75 -25 -97 -27 -233 -28
-207 0 -363 35 -518 117 -95 50 -117 88 -132 227 l-7 64 23 -17 c75 -53 205
-104 334 -131 84 -17 222 -30 185 -17 -14 5 -38 9 -54 10 -51 2 -252 51 -317
77 -82 34 -148 79 -160 112 -16 40 6 77 106 178 131 133 269 218 420 259 69
19 202 19 256 0z m154 -194 c7 -32 6 -34 -16 -28 -13 4 -29 7 -36 7 -8 0 -6
15 5 50 15 48 17 50 28 28 6 -13 15 -38 19 -57z m101 -650 c-18 -20 -73 -38
-83 -28 -6 7 67 46 86 47 11 0 10 -5 -3 -19z"/>
<path d="M5122 8988 c-39 -20 -19 -33 51 -33 67 0 88 8 71 25 -15 15 -97 21
-122 8z m98 -9 c23 0 23 -1 5 -9 -27 -12 -92 -12 -100 -1 -7 12 23 20 50 15
11 -2 31 -4 45 -5z"/>
<path d="M4724 8979 c-8 -13 14 -29 36 -28 11 1 10 3 -2 6 -29 7 -20 23 13 23
17 0 28 -4 24 -10 -3 -5 -1 -10 4 -10 6 0 11 7 11 15 0 18 -75 21 -86 4z"/>
<path d="M5402 8939 c-55 -21 21 -58 92 -45 40 8 58 32 35 47 -18 11 -97 10
-127 -2z m112 -5 c33 -13 3 -24 -62 -24 -61 1 -65 2 -48 15 20 15 81 20 110 9z"/>
<path d="M4485 8935 c-5 -2 -22 -6 -37 -9 -35 -8 -36 -33 -2 -46 33 -13 159
-13 207 1 26 7 37 15 37 29 0 12 -7 20 -17 20 -15 0 -16 -2 -3 -10 13 -9 13
-11 0 -20 -23 -15 -218 -15 -234 0 -12 12 26 21 128 30 l91 7 -80 1 c-44 0
-84 -1 -90 -3z"/>
<path d="M5141 8861 c-33 -9 -37 -27 -7 -35 30 -7 56 2 56 19 0 17 -19 23 -49
16z m39 -15 c0 -9 -40 -13 -46 -5 -3 5 6 9 20 9 14 0 26 -2 26 -4z"/>
<path d="M4913 8853 c15 -2 39 -2 55 0 15 2 2 4 -28 4 -30 0 -43 -2 -27 -4z"/>
<path d="M5205 8596 c-27 -27 -33 -74 -13 -94 43 -43 124 42 90 94 -17 26 -51
26 -77 0z m70 -7 c22 -34 -40 -104 -70 -79 -33 27 -7 90 37 90 15 0 30 -5 33
-11z"/>
<path d="M5489 8571 c-60 -60 -47 -121 24 -121 42 0 76 24 93 67 38 91 -43
128 -117 54z m105 13 c19 -19 19 -17 2 -58 -25 -59 -86 -85 -120 -50 -24 23
-20 40 20 84 39 43 72 51 98 24z"/>
<path d="M4175 8566 c-17 -26 -11 -52 15 -66 49 -26 72 43 25 74 -23 15 -25
15 -40 -8z m43 -8 c7 -7 12 -20 12 -31 0 -32 -44 -18 -48 16 -4 29 14 37 36
15z"/>
<path d="M5865 8574 c-20 -21 -16 -58 8 -62 26 -5 47 16 47 49 0 34 -28 40
-55 13z m36 -33 c-15 -26 -41 -27 -41 -1 0 21 31 43 43 30 5 -4 4 -17 -2 -29z"/>
<path d="M4622 8548 c-27 -27 0 -112 41 -127 36 -14 57 4 57 48 0 67 -61 116
-98 79z m64 -23 c32 -32 31 -88 -2 -93 -27 -4 -64 41 -64 78 0 48 27 54 66 15z"/>
<path d="M5024 8496 c-18 -47 22 -94 53 -63 16 16 16 20 3 45 -18 31 -47 41
-56 18z m44 -34 c3 -28 0 -33 -15 -30 -12 2 -19 14 -21 36 -3 28 0 33 15 30
12 -2 19 -14 21 -36z"/>
<path d="M5716 8449 c-41 -48 -31 -99 19 -99 45 0 85 79 61 119 -14 21 -54 12
-80 -20z m72 -10 c2 -17 -6 -37 -22 -55 -20 -24 -28 -27 -43 -18 -27 17 -27
38 3 73 31 37 58 37 62 0z"/>
<path d="M4505 8389 c-12 -18 4 -57 26 -64 32 -10 44 8 29 44 -12 31 -42 42
-55 20z m55 -41 c0 -13 -27 -9 -40 7 -19 23 -1 39 21 19 10 -9 19 -21 19 -26z"/>
<path d="M3840 8364 c0 -24 26 -54 72 -82 87 -53 407 -122 628 -135 100 -6 85
-3 -115 24 -336 46 -540 112 -571 184 -10 24 -13 26 -14 9z"/>
<path d="M6219 8350 c-9 -58 -242 -137 -524 -179 -71 -10 -115 -19 -97 -20 37
-1 194 21 302 44 189 39 339 112 328 160 -4 17 -5 16 -9 -5z"/>
<path d="M5498 8143 c12 -2 30 -2 40 0 9 3 -1 5 -23 4 -22 0 -30 -2 -17 -4z"/>
<path d="M3893 8154 c-3 -8 -1 -48 4 -87 l10 -72 1 88 c0 86 -3 101 -15 71z"/>
<path d="M3807 8005 c15 -27 62 -70 93 -84 21 -10 20 -8 -5 11 -16 12 -45 38
-64 58 -19 19 -30 26 -24 15z"/>
<path d="M6229 7986 c-19 -18 -44 -38 -55 -44 -10 -6 -17 -13 -14 -15 8 -8 81
45 98 71 20 30 13 27 -29 -12z"/>
<path d="M3911 7974 c0 -11 3 -14 6 -6 3 7 2 16 -1 19 -3 4 -6 -2 -5 -13z"/>
<path d="M3940 7899 c0 -21 253 -90 380 -103 78 -8 55 -1 -105 33 -77 16 -170
40 -207 54 -38 13 -68 21 -68 16z"/>
<path d="M5905 7844 c-126 -35 -411 -79 -570 -87 -56 -3 -55 -3 15 -5 41 -1
119 3 173 8 110 11 371 61 432 84 51 19 16 19 -50 0z"/>
<path d="M4398 7783 c7 -3 16 -2 19 1 4 3 -2 6 -13 5 -11 0 -14 -3 -6 -6z"/>
<path d="M4635 7520 c10 -11 20 -20 23 -20 3 0 -3 9 -13 20 -10 11 -20 20 -23
20 -3 0 3 -9 13 -20z"/>
<path d="M4675 7410 c10 -11 20 -20 23 -20 3 0 -3 9 -13 20 -10 11 -20 20 -23
20 -3 0 3 -9 13 -20z"/>
<path d="M5964 7355 c0 -66 1 -92 3 -57 2 34 2 88 0 120 -2 31 -3 3 -3 -63z"/>
<path d="M6517 7193 c-20 -22 -37 -46 -37 -55 0 -17 148 -196 174 -210 20 -11
42 1 84 45 29 30 32 38 23 56 -14 25 -43 27 -61 6 -29 -35 -60 -9 -35 29 13
19 14 29 5 45 -13 25 -18 25 -44 6 -47 -36 -71 3 -29 47 22 23 25 32 17 46
-20 32 -56 26 -97 -15z m89 16 c3 -6 -6 -23 -21 -39 -21 -22 -26 -35 -21 -53
8 -32 32 -41 59 -22 12 8 25 15 29 15 13 0 9 -29 -7 -54 -14 -21 -13 -24 5
-41 20 -18 21 -18 50 3 35 26 50 28 50 5 0 -22 -59 -83 -80 -83 -14 0 -147
144 -174 188 -6 10 3 26 30 53 38 39 67 49 80 28z"/>
<path d="M6333 7045 c-19 -19 -33 -39 -31 -44 6 -19 199 -231 210 -231 44 0
107 103 94 154 -10 39 -45 66 -87 66 -31 0 -38 4 -49 30 -28 67 -84 78 -137
25z m89 14 c11 -6 26 -26 34 -45 12 -30 19 -34 50 -34 19 0 44 -4 54 -10 25
-13 38 -59 28 -96 -9 -36 -50 -84 -72 -84 -16 0 -196 198 -196 217 0 13 56 63
71 63 6 0 19 -5 31 -11z"/>
<path d="M6370 7015 c-11 -13 -9 -20 10 -40 18 -19 26 -22 37 -14 16 14 17 41
1 57 -16 16 -33 15 -48 -3z m50 -31 c0 -18 -14 -18 -30 1 -16 19 -3 40 16 24
8 -6 14 -18 14 -25z"/>
<path d="M6472 6928 c-19 -19 -14 -42 14 -69 l26 -24 19 24 c32 39 19 81 -26
81 -12 0 -26 -5 -33 -12z m53 -33 c0 -33 -21 -41 -38 -14 -14 22 -1 51 20 47
13 -2 18 -13 18 -33z"/>
<path d="M6944 6995 c-18 -20 -34 -41 -34 -46 0 -23 203 -229 226 -229 24 0
85 62 82 83 -6 37 -34 44 -69 18 -29 -21 -32 -22 -47 -7 -14 13 -14 20 -4 36
30 48 3 84 -41 56 -22 -15 -25 -15 -41 3 -16 17 -16 20 1 49 14 25 15 36 7 49
-19 30 -43 27 -80 -12z m72 4 c3 -6 -4 -24 -16 -41 l-22 -30 25 -26 c23 -23
29 -24 53 -13 36 16 52 0 32 -31 -14 -22 -14 -26 6 -51 l22 -28 26 21 c30 23
68 27 68 6 0 -14 -64 -76 -78 -76 -7 0 -124 117 -185 186 l-28 31 26 32 c27
31 58 40 71 20z"/>
<path d="M5990 6945 c0 -3 24 -31 53 -64 28 -32 117 -131 196 -219 79 -89 146
-162 149 -162 5 0 -36 47 -251 293 -129 146 -147 165 -147 152z"/>
<path d="M6843 6894 c-3 -9 6 -28 24 -47 16 -18 35 -40 43 -50 14 -18 13 -18
-25 -2 -95 41 -135 44 -135 9 0 -22 209 -234 231 -234 14 0 29 19 29 36 0 3
-21 27 -46 55 l-47 49 54 -24 c80 -36 119 -38 119 -5 0 27 -196 229 -222 229
-10 0 -21 -7 -25 -16z m136 -98 c129 -132 122 -158 -22 -85 -32 17 -62 27 -68
23 -7 -4 13 -30 46 -64 43 -43 56 -63 51 -76 -6 -15 -26 1 -111 86 -58 58
-105 110 -105 117 0 21 35 15 110 -18 39 -18 73 -29 77 -26 3 4 -17 32 -46 62
-47 52 -64 85 -43 85 5 0 54 -47 111 -104z"/>
<path d="M6684 6745 c-11 -28 181 -239 212 -233 40 7 20 46 -74 148 -91 98
-125 119 -138 85z m130 -97 c90 -95 104 -117 80 -125 -14 -4 -21 3 -117 110
-78 87 -95 117 -67 117 4 0 51 -46 104 -102z"/>
<path d="M6601 6686 c-9 -11 -7 -27 8 -70 11 -31 18 -56 16 -56 -2 0 -25 9
-51 21 -51 21 -88 19 -97 -6 -7 -17 47 -86 137 -175 54 -53 69 -63 83 -54 28
18 25 30 -21 84 -48 56 -52 69 -16 50 34 -18 54 -5 46 30 -3 17 -4 30 -2 30 2
0 26 -22 53 -50 55 -55 67 -59 83 -30 9 17 -3 34 -92 130 -101 108 -124 124
-147 96z m139 -107 c73 -78 90 -103 81 -112 -10 -9 -26 2 -72 51 -32 34 -61
62 -64 62 -4 0 -3 -20 1 -45 7 -50 4 -52 -51 -29 -20 8 -39 13 -41 11 -3 -2
20 -35 51 -72 30 -37 55 -71 55 -76 0 -17 -19 -18 -38 -1 -36 32 -172 191
-172 201 0 17 40 13 98 -9 50 -19 52 -19 52 -1 0 10 -7 35 -15 54 -42 102 3
88 115 -34z"/>
<path d="M6545 6320 c10 -11 20 -20 23 -20 3 0 -3 9 -13 20 -10 11 -20 20 -23
20 -3 0 3 -9 13 -20z"/>
<path d="M6599 6265 c15 -28 89 -110 95 -105 2 3 -21 32 -51 65 -30 33 -50 51
-44 40z"/>
<path d="M3925 7028 c-22 -17 -96 -57 -165 -90 -395 -188 -465 -231 -592 -367
-112 -118 -178 -227 -230 -381 -29 -85 -63 -248 -55 -257 3 -2 8 15 12 39 12
70 74 266 102 321 82 163 222 322 368 419 50 33 189 108 310 168 121 60 238
125 260 144 49 43 44 45 -10 4z"/>
<path d="M7276 5439 c-20 -213 -122 -710 -217 -1054 -99 -355 -139 -509 -136
-518 1 -5 22 61 46 145 24 84 60 203 78 263 107 342 220 882 239 1143 8 108 0
125 -10 21z"/>
<path d="M2891 5425 c-2 -55 63 -448 110 -665 28 -128 88 -353 96 -360 3 -3 3
6 0 20 -31 118 -105 473 -141 676 -61 339 -63 352 -65 329z"/>
<path d="M3181 4121 c-2 -34 213 -713 323 -1021 144 -405 121 -313 -53 215
-83 247 -177 533 -210 635 -32 102 -60 178 -60 171z"/>
<path d="M6796 3525 c-3 -9 -6 -22 -5 -28 0 -7 5 -1 10 12 5 13 8 26 5 28 -2
2 -6 -3 -10 -12z"/>
<path d="M6711 3252 c-40 -125 -92 -288 -116 -362 -24 -74 -38 -127 -30 -117
23 32 233 693 222 703 -2 2 -36 -99 -76 -224z"/>
<path d="M3720 2657 c0 -50 148 -153 305 -212 190 -71 629 -147 835 -144 46 1
7 8 -135 24 -274 32 -477 70 -625 117 -190 61 -319 133 -360 201 -14 22 -20
27 -20 14z"/>
<path d="M6240 2629 c-118 -107 -362 -182 -760 -233 -102 -13 -165 -24 -140
-25 61 -1 322 33 446 58 205 42 371 112 456 191 29 27 51 49 48 49 -3 0 -25
-18 -50 -40z"/>
<path d="M6355 2571 c-6 -5 -46 -27 -90 -49 -201 -100 -438 -158 -825 -202
l-165 -19 115 4 c219 7 482 52 660 111 120 40 279 115 305 144 18 20 18 28 0
11z"/>
<path d="M4013 6810 c-18 -11 -33 -23 -33 -26 0 -3 12 2 28 12 15 10 43 21 62
25 34 7 34 7 5 8 -16 0 -45 -8 -62 -19z"/>
<path d="M4083 6783 c15 -2 37 -2 50 0 12 2 0 4 -28 4 -27 0 -38 -2 -22 -4z"/>
<path d="M3703 6030 c0 -25 2 -35 4 -22 2 12 2 32 0 45 -2 12 -4 2 -4 -23z"/>
<path d="M3612 5988 c-12 -24 -23 -61 -26 -83 -4 -33 -1 -28 17 25 31 91 34
95 58 68 l19 -23 -11 28 c-17 38 -34 34 -57 -15z"/>
<path d="M6779 6069 l-24 -20 28 17 c15 9 27 18 27 20 0 8 -8 4 -31 -17z"/>
<path d="M6755 5984 c-27 -25 -36 -37 -20 -26 28 19 84 72 74 72 -2 0 -26 -21
-54 -46z"/>
<path d="M6655 5970 c-3 -5 -2 -10 4 -10 5 0 13 5 16 10 3 6 2 10 -4 10 -5 0
-13 -4 -16 -10z"/>
<path d="M6839 5953 c-13 -16 -12 -17 4 -4 9 7 17 15 17 17 0 8 -8 3 -21 -13z"/>
<path d="M7000 5956 c0 -3 9 -10 20 -16 11 -6 20 -8 20 -6 0 3 -9 10 -20 16
-11 6 -20 8 -20 6z"/>
<path d="M7050 5916 c0 -2 8 -10 18 -17 15 -13 16 -12 3 4 -13 16 -21 21 -21
13z"/>
<path d="M6734 4898 l-19 -23 23 19 c12 11 22 21 22 23 0 8 -8 2 -26 -19z"/>
<path d="M6599 4833 c-13 -16 -12 -17 4 -4 16 13 21 21 13 21 -2 0 -10 -8 -17
-17z"/>
<path d="M3329 4389 c-23 -19 -23 -20 -2 -10 12 6 25 16 28 21 10 16 -1 12
-26 -11z"/>
<path d="M3334 4358 l-19 -23 25 20 c14 11 27 21 29 22 2 2 0 3 -6 3 -5 0 -18
-10 -29 -22z"/>
<path d="M3639 4443 c-13 -16 -12 -17 4 -4 16 13 21 21 13 21 -2 0 -10 -8 -17
-17z"/>
<path d="M3512 3640 c0 -19 2 -27 5 -17 2 9 2 25 0 35 -3 9 -5 1 -5 -18z"/>
<path d="M4483 3126 c-37 -17 -53 -43 -53 -84 0 -32 11 -45 53 -61 22 -8 27
-8 27 4 0 9 -6 12 -15 8 -22 -8 -55 25 -55 54 0 69 108 99 169 47 65 -54 62
-170 -6 -238 -67 -67 -181 -81 -267 -33 -30 17 -43 21 -35 10 23 -27 91 -53
140 -53 135 0 229 88 229 215 0 98 -101 169 -187 131z"/>
<path d="M3731 3028 c-1 -75 23 -153 63 -203 20 -25 18 -17 -11 42 -27 54 -37
90 -43 150 l-7 78 -2 -67z"/>
<path d="M3781 2998 c0 -7 4 -22 9 -33 8 -18 9 -17 9 7 1 15 -3 30 -9 33 -5 3
-10 0 -9 -7z"/>
<path d="M3822 2990 c0 -14 2 -19 5 -12 2 6 2 18 0 25 -3 6 -5 1 -5 -13z"/>
<path d="M3831 2934 c0 -11 3 -14 6 -6 3 7 2 16 -1 19 -3 4 -6 -2 -5 -13z"/>
<path d="M6368 3733 c7 -3 16 -2 19 1 4 3 -2 6 -13 5 -11 0 -14 -3 -6 -6z"/>
<path d="M6271 3704 c0 -11 3 -14 6 -6 3 7 2 16 -1 19 -3 4 -6 -2 -5 -13z"/>
<path d="M6379 3673 c-13 -16 -12 -17 4 -4 16 13 21 21 13 21 -2 0 -10 -8 -17
-17z"/>
<path d="M6250 3676 c0 -2 7 -6 15 -10 8 -3 15 -1 15 4 0 6 -7 10 -15 10 -8 0
-15 -2 -15 -4z"/>
<path d="M6280 3641 c0 -6 4 -13 10 -16 6 -3 7 1 4 9 -7 18 -14 21 -14 7z"/>
<path d="M6191 3636 c2 -2 15 -9 29 -15 24 -11 24 -11 6 3 -16 13 -49 24 -35
12z"/>
<path d="M5652 3636 c-48 -43 -84 -116 -112 -226 -18 -69 -22 -111 -21 -220 0
-74 4 -147 8 -162 5 -16 8 43 8 140 0 130 4 184 19 242 24 95 68 181 118 225
21 19 34 35 28 35 -5 0 -27 -16 -48 -34z"/>
<path d="M5689 2753 c-13 -17 -13 -17 6 -3 11 8 22 16 24 17 2 2 0 3 -6 3 -6
0 -17 -8 -24 -17z"/>
<path d="M5200 2880 c-9 -6 -10 -10 -3 -10 6 0 15 5 18 10 8 12 4 12 -15 0z"/>
<path d="M5185 2591 l-90 -6 56 -7 c32 -5 80 -3 110 2 56 11 78 21 38 18 -13
-1 -64 -4 -114 -7z"/>
<path d="M3574 2425 c-41 -32 -67 -97 -59 -146 8 -44 58 -125 89 -141 15 -8
12 -1 -13 27 -85 97 -80 209 11 265 18 11 26 20 18 20 -8 0 -29 -11 -46 -25z"/>
<path d="M6096 2209 c-105 -30 -326 -70 -516 -93 -63 -7 -97 -14 -75 -15 126
-4 477 57 635 109 110 36 83 36 -44 -1z"/>
<path d="M5438 2093 c7 -3 16 -2 19 1 4 3 -2 6 -13 5 -11 0 -14 -3 -6 -6z"/>
<path d="M7826 2301 c-7 -11 7 -23 73 -56 52 -26 55 -26 68 -9 18 24 17 30 -9
54 -16 15 -35 20 -74 20 -29 0 -55 -4 -58 -9z m108 -17 c16 -6 23 -34 9 -34
-5 1 -24 9 -43 20 -34 19 -34 19 -8 20 14 0 33 -3 42 -6z"/>
<path d="M8020 2182 c0 -4 17 -25 38 -45 36 -35 39 -36 60 -21 24 17 29 43 10
62 -13 13 -108 17 -108 4z m96 -24 c4 -5 1 -15 -5 -21 -7 -7 -16 -5 -31 8 -11
10 -20 21 -20 25 0 10 49 0 56 -12z"/>
<path d="M8120 1997 c0 -25 4 -49 10 -52 15 -10 90 15 97 31 8 22 -26 51 -69
59 l-38 7 0 -45z m85 2 c12 -12 -2 -25 -37 -33 -26 -6 -28 -4 -28 25 0 29 2
31 28 24 15 -3 31 -11 37 -16z"/>
<path d="M8071 1866 c-19 -20 -32 -38 -29 -41 3 -3 28 -8 55 -12 77 -9 117 22
76 60 -37 33 -66 31 -102 -7z m74 2 c41 -19 31 -38 -20 -38 -49 0 -53 4 -28
32 19 21 16 21 48 6z"/>
<path d="M7866 1751 c-39 -15 -72 -33 -73 -38 -5 -15 52 -33 107 -33 60 0 89
26 74 68 -13 36 -27 37 -108 3z m94 -15 c0 -26 -28 -37 -82 -34 l-53 3 45 22
c51 26 90 29 90 9z"/>
<path d="M7655 1675 c-62 -17 -136 -41 -160 -53 l-30 -15 40 -18 c23 -11 64
-19 97 -19 49 0 59 3 77 26 12 15 21 32 21 39 0 15 -32 43 -45 40z m21 -36 c3
-6 -3 -20 -14 -32 -16 -16 -33 -20 -73 -19 -76 1 -81 16 -12 40 68 24 89 26
99 11z"/>
<path d="M7150 1532 c-55 -18 -85 -33 -85 -42 0 -24 75 -53 150 -58 66 -4 72
-3 98 23 31 32 35 65 9 88 -26 24 -74 20 -172 -11z m168 -19 c2 -12 -6 -30
-20 -43 -20 -19 -31 -21 -84 -17 -33 2 -73 11 -89 19 l-28 15 74 26 c90 32
143 32 147 0z"/>
<path d="M6832 1421 c-40 -10 -75 -21 -79 -24 -24 -24 69 -77 136 -77 54 0
107 46 95 82 -13 44 -38 47 -152 19z m127 -10 c10 -7 11 -13 2 -29 -15 -28
-42 -42 -79 -42 -34 0 -102 26 -102 39 0 5 33 15 73 24 90 19 89 18 106 8z"/>
<path d="M6491 1366 c-41 -6 -76 -16 -78 -22 -6 -18 54 -62 100 -75 51 -13
109 1 132 34 19 27 19 42 -1 61 -18 18 -47 19 -153 2z m149 -25 c0 -20 -35
-51 -64 -56 -34 -7 -136 28 -136 45 0 5 30 11 68 15 37 3 76 7 87 8 24 3 45
-2 45 -12z"/>
<path d="M6150 1343 c-92 -9 -102 -25 -45 -69 24 -18 52 -29 83 -32 41 -3 52
0 80 23 55 46 37 86 -37 83 -26 0 -62 -3 -81 -5z m125 -24 c4 -6 -3 -21 -16
-35 -28 -30 -81 -32 -128 -3 -49 30 -42 33 121 47 9 1 20 -3 23 -9z"/>
<path d="M4581 1311 c-12 -8 -12 -14 -2 -39 15 -36 51 -56 95 -55 67 2 138 61
99 81 -26 13 -176 23 -192 13z m168 -31 c23 -12 -36 -45 -81 -45 -41 0 -86 34
-73 54 7 12 128 5 154 -9z"/>
<path d="M5803 1313 c-53 -5 -57 -26 -14 -67 57 -54 154 -44 183 19 23 51 -15
62 -169 48z m152 -23 c10 -16 -13 -47 -46 -60 -29 -12 -36 -11 -77 11 -80 42
-69 50 80 57 20 1 40 -2 43 -8z"/>
<path d="M4866 1291 c-22 -35 37 -91 96 -91 67 0 137 52 105 78 -19 15 -193
26 -201 13z m122 -21 c66 0 77 -10 39 -35 -45 -29 -81 -29 -115 0 -37 31 -42
50 -9 41 12 -3 50 -6 85 -6z"/>
<path d="M5485 1293 c-35 -9 -37 -20 -6 -50 60 -61 171 -60 187 1 12 49 2 56
-83 55 -43 -1 -87 -3 -98 -6z m165 -31 c0 -10 -5 -23 -12 -30 -20 -20 -87 -14
-126 10 -36 22 -36 22 -12 29 14 4 53 7 88 8 53 1 62 -1 62 -17z"/>
<path d="M5165 1270 c-21 -33 55 -90 120 -90 27 0 44 7 66 29 36 36 36 49 3
61 -33 13 -181 13 -189 0z m184 -26 c7 -7 -23 -36 -47 -45 -19 -7 -35 -4 -68
12 -51 24 -55 36 -16 42 27 5 124 -2 131 -9z"/>
<path d="M2265 2260 c-28 -9 -55 -34 -55 -52 0 -4 11 -15 25 -24 25 -16 27
-15 81 20 30 21 54 42 51 49 -5 15 -62 19 -102 7z m75 -14 c0 -9 -68 -46 -84
-46 -26 0 -18 28 12 38 28 11 72 15 72 8z"/>
<path d="M2129 2113 c-15 -2 -35 -13 -45 -24 -16 -17 -16 -21 -3 -34 8 -9 30
-19 48 -25 31 -9 33 -8 50 33 25 58 22 61 -50 50z m41 -17 c0 -3 -4 -16 -9
-30 -8 -18 -15 -23 -31 -19 -27 7 -34 21 -20 38 11 13 60 22 60 11z"/>
<path d="M2100 1952 c-26 -12 -35 -23 -35 -42 0 -20 7 -26 35 -32 37 -8 110
-1 110 11 0 14 -51 81 -63 81 -7 0 -28 -8 -47 -18z m66 -27 c22 -33 14 -39
-41 -31 -50 8 -55 23 -14 43 33 17 36 17 55 -12z"/>
<path d="M2271 1793 c-19 -23 -20 -29 -8 -47 31 -46 95 -55 173 -26 l29 12
-25 20 c-32 26 -115 68 -134 68 -8 0 -24 -12 -35 -27z m81 -16 c76 -40 76 -40
38 -49 -47 -10 -110 7 -110 30 0 15 17 42 26 42 2 0 22 -10 46 -23z"/>
<path d="M2525 1680 c-19 -61 66 -99 154 -69 50 17 35 39 -43 66 -85 28 -103
29 -111 3z m76 -15 c80 -28 75 -25 59 -35 -26 -17 -86 -11 -104 9 -10 11 -15
25 -11 30 8 14 4 14 56 -4z"/>
<path d="M2824 1595 c-10 -26 5 -64 32 -82 34 -22 101 -21 150 3 59 29 50 45
-36 70 -90 27 -138 30 -146 9z m76 -14 c19 -6 55 -15 80 -21 l45 -12 -29 -15
c-43 -23 -113 -20 -138 5 -12 12 -18 27 -15 36 7 19 10 19 57 7z"/>
<path d="M3157 1523 c-16 -16 -6 -65 19 -90 23 -22 32 -25 80 -21 57 5 109 33
109 59 0 20 -192 69 -208 52z m121 -37 c35 -8 65 -16 68 -19 8 -8 -74 -37
-105 -37 -37 0 -77 31 -68 53 8 20 22 21 105 3z"/>
</g>
</svg>
