<?xml version="1.0" standalone="no"?>
<!DOCTYPE svg PUBLIC "-//W3C//DTD SVG 20010904//EN"
 "http://www.w3.org/TR/2001/REC-SVG-20010904/DTD/svg10.dtd">
<svg version="1.0" xmlns="http://www.w3.org/2000/svg"
 width="1024.000000pt" height="1024.000000pt" viewBox="0 0 1024.000000 1024.000000"
 preserveAspectRatio="xMidYMid meet">
<metadata>
Created by potrace 1.16, written by Peter Selinger 2001-2019
</metadata>
<g transform="translate(0.000000,1024.000000) scale(0.100000,-0.100000)"
fill="#000000" stroke="none">
<path d="M5670 8534 c-157 -18 -295 -36 -306 -39 -14 -3 -28 -20 -39 -47 -26
-64 -652 -1747 -693 -1863 -20 -55 -37 -102 -39 -104 -2 -3 -34 25 -71 62 -55
54 -82 73 -141 96 l-72 28 -82 -81 c-86 -86 -168 -150 -332 -261 -56 -37 -138
-106 -185 -154 -73 -75 -105 -98 -230 -168 -80 -45 -233 -126 -340 -180 -209
-106 -245 -128 -361 -222 -94 -77 -116 -87 -275 -126 -88 -22 -181 -54 -280
-98 -82 -36 -189 -83 -239 -105 -225 -98 -265 -117 -265 -124 0 -12 96 -53
219 -93 58 -19 118 -43 132 -53 25 -16 139 -120 139 -126 0 -2 -19 -8 -43 -15
-32 -10 -62 -34 -132 -105 -71 -73 -101 -97 -140 -111 -138 -49 -265 -125
-265 -159 0 -7 24 -18 54 -25 58 -13 84 -28 303 -177 89 -60 167 -105 196
-113 46 -13 47 -14 47 -55 0 -135 32 -562 43 -572 6 -7 131 -81 277 -164 146
-84 271 -159 279 -166 12 -11 5 -18 -50 -43 -35 -17 -95 -38 -134 -47 -38 -9
-81 -21 -94 -26 -23 -9 -23 -9 -5 -30 20 -21 129 -78 152 -78 36 0 11 -76 -49
-150 -16 -19 -29 -40 -29 -47 0 -21 59 -15 148 16 109 38 181 82 266 162 l71
67 205 -118 205 -117 6 -129 c8 -167 43 -309 96 -390 22 -35 34 -20 68 86 15
47 29 88 32 92 2 4 25 -4 51 -17 62 -31 127 -49 146 -42 13 5 11 17 -18 74
-19 38 -38 81 -41 96 l-7 27 58 -33 c57 -32 142 -81 819 -474 171 -99 342
-198 382 -219 l71 -39 40 30 c68 51 861 666 1155 897 153 120 282 216 286 213
5 -2 11 -23 15 -46 4 -22 15 -58 26 -80 11 -21 20 -40 20 -43 0 -2 -40 -39
-88 -80 -121 -105 -142 -147 -107 -215 21 -41 484 -491 522 -507 49 -21 96
-17 137 11 21 14 122 96 224 183 103 87 273 230 377 317 247 207 292 250 306
292 16 50 -10 111 -70 165 -27 24 -133 121 -236 217 -104 95 -202 182 -219
192 -35 21 -96 25 -129 8 -11 -7 -64 -47 -116 -91 -56 -46 -102 -77 -111 -74
-8 3 -52 20 -97 39 l-81 33 146 115 c81 62 200 155 265 206 l117 93 0 343 0
343 38 35 c62 59 123 104 197 145 78 43 225 151 225 165 0 5 -19 9 -43 9 -44
0 -156 33 -216 64 -17 10 -64 46 -103 82 -39 36 -84 72 -102 81 -29 15 -29 17
-11 25 11 4 89 26 174 48 85 21 158 43 162 47 4 4 28 64 54 133 32 87 54 132
73 148 18 15 23 25 15 28 -7 3 -13 12 -13 19 0 7 57 172 126 367 69 194 181
511 249 703 67 193 162 460 210 595 154 434 175 501 165 520 -6 11 -51 32
-112 53 -57 19 -281 97 -498 172 -995 344 -2158 736 -2180 734 -8 -1 -143 -17
-300 -35z m610 -93 c162 -55 482 -163 710 -241 638 -219 1040 -356 1210 -415
85 -29 237 -81 338 -116 101 -34 179 -65 175 -69 -4 -4 -113 -33 -241 -65
-128 -32 -235 -62 -238 -67 -3 -5 6 -6 23 -2 74 16 458 116 465 120 4 3 8 1 8
-4 0 -9 -129 -382 -276 -799 -44 -123 -82 -223 -86 -223 -5 0 -8 14 -8 30 0
39 -29 126 -74 220 -40 82 -44 125 -19 173 21 42 41 56 79 57 37 0 54 -16 54
-51 0 -26 -2 -27 -36 -22 -41 7 -54 -5 -54 -49 0 -67 81 -91 130 -38 45 48 55
103 40 228 -13 113 -6 168 27 219 22 33 34 28 16 -7 -18 -38 -3 -63 35 -58 60
7 88 114 42 163 -76 80 -195 -44 -216 -223 -6 -59 -7 -60 -29 -50 -13 6 -40 7
-59 4 -83 -16 -153 -122 -163 -246 -6 -76 1 -105 60 -235 52 -115 60 -184 25
-235 -32 -47 -91 -76 -124 -61 -34 15 -31 69 6 89 l25 13 -25 -3 c-57 -7 -65
-95 -11 -117 55 -23 134 33 161 115 17 52 6 104 -47 219 -56 120 -67 208 -38
298 40 123 137 182 209 126 l26 -20 0 63 c0 134 57 247 137 272 17 5 29 1 49
-19 23 -23 26 -33 21 -67 -6 -46 -37 -84 -61 -75 -20 8 -21 46 -1 53 20 8 19
34 -1 34 -30 0 -53 -20 -69 -65 -15 -38 -17 -65 -10 -184 6 -126 5 -143 -13
-183 -23 -52 -66 -77 -101 -59 -22 12 -37 52 -27 76 6 17 42 20 51 4 9 -14 45
19 45 41 0 28 -39 70 -65 70 -66 0 -119 -62 -119 -139 0 -33 12 -73 41 -136
82 -179 90 -248 43 -376 -38 -106 -81 -160 -217 -276 -210 -178 -303 -296
-303 -384 0 -40 21 -65 46 -55 9 3 18 15 21 26 7 25 19 26 26 1 11 -42 -42
-111 -86 -111 -10 0 -32 13 -48 29 -26 26 -29 36 -29 90 0 76 27 149 83 224
49 64 74 87 260 237 134 108 176 154 91 100 -133 -84 -239 14 -173 160 46 102
138 151 185 99 23 -26 23 -88 -1 -126 l-17 -28 22 21 c48 47 33 142 -27 165
-105 40 -249 -175 -187 -280 24 -40 76 -65 122 -57 19 3 31 2 26 -3 -5 -4 -64
-52 -132 -106 -68 -54 -142 -121 -164 -149 -78 -97 -119 -217 -104 -299 9 -48
50 -87 92 -87 69 0 125 87 94 146 -18 32 -26 30 -39 -7 -7 -21 -16 -29 -28
-27 -32 6 -22 78 19 145 20 31 41 59 46 61 16 5 42 -94 42 -158 0 -69 -22
-148 -61 -216 -42 -75 -48 -78 -102 -55 -30 13 -51 30 -62 52 -16 29 -19 31
-56 25 -26 -4 -49 -1 -68 8 l-28 15 78 223 c42 123 119 340 169 483 51 143
111 316 135 385 24 69 80 229 125 355 159 447 150 418 132 437 -10 9 -147 63
-307 119 -513 179 -585 205 -870 307 -154 55 -372 133 -485 172 -113 40 -290
102 -395 140 -104 37 -308 109 -452 161 -145 51 -263 95 -263 99 0 3 71 14
158 24 86 10 204 24 262 31 58 7 112 13 120 14 9 0 148 -44 310 -98z m-557
-102 c155 -56 503 -179 772 -274 270 -96 650 -230 845 -300 480 -171 838 -295
850 -295 5 0 10 -4 10 -8 0 -5 -66 -193 -146 -418 -207 -582 -504 -1432 -504
-1445 0 -11 -38 -3 -54 12 -5 5 0 32 12 66 11 32 59 166 106 298 161 457 368
1041 432 1222 35 100 64 189 64 197 0 20 12 15 -340 140 -162 58 -459 164
-660 236 -201 72 -527 189 -725 260 -198 71 -499 178 -668 239 -170 61 -315
111 -322 111 -14 0 -50 -87 -159 -383 -35 -94 -123 -334 -196 -532 -73 -198
-164 -445 -202 -550 -39 -104 -73 -199 -77 -211 -3 -11 -28 -45 -54 -74 -39
-43 -46 -48 -36 -24 17 45 284 762 344 924 141 384 336 904 345 920 9 18 13
18 46 4 19 -8 162 -60 317 -115z m-173 -33 c58 -20 111 -41 118 -45 13 -8 -21
-106 -458 -1301 -68 -184 -126 -339 -131 -344 -11 -12 -95 39 -155 96 -28 26
-58 48 -66 48 -8 0 -27 -9 -42 -21 -30 -24 -31 -22 -12 28 16 42 193 521 361
978 59 160 128 349 154 420 27 72 54 147 60 167 12 37 13 37 39 24 15 -7 74
-30 132 -50z m435 -157 c154 -55 379 -136 500 -179 121 -43 315 -113 430 -154
116 -42 427 -154 693 -248 379 -136 482 -176 478 -188 -4 -16 -112 -321 -422
-1197 -154 -436 -202 -563 -215 -563 -9 0 -79 20 -155 45 -95 31 -206 78 -350
150 -168 84 -232 111 -315 131 -109 27 -129 36 -299 127 -121 64 -180 82 -306
91 -287 21 -396 64 -589 230 -70 61 -117 91 -212 137 -68 32 -123 62 -123 65
0 8 94 265 225 619 132 357 246 671 311 855 68 194 63 180 66 180 2 0 129 -45
283 -101z m-1079 -1451 c69 -65 115 -94 280 -174 122 -59 166 -87 225 -140
188 -169 295 -213 582 -239 176 -16 203 -25 375 -120 94 -52 141 -71 235 -94
75 -20 150 -47 210 -77 292 -149 353 -175 573 -239 88 -26 188 -59 224 -75 36
-15 117 -51 180 -79 63 -28 134 -53 157 -57 43 -6 55 -17 30 -27 -8 -3 -64
-42 -126 -86 -61 -45 -144 -101 -184 -126 -103 -62 -157 -111 -157 -141 0 -20
-4 -24 -18 -19 -13 4 -40 -11 -86 -47 l-67 -51 -55 26 c-33 17 -58 36 -64 51
-14 38 -50 59 -243 145 -141 62 -194 81 -228 81 -66 0 -218 86 -260 147 -56
80 -190 149 -336 172 -40 6 -76 10 -80 9 -5 -1 -45 17 -89 39 l-81 42 -7 51
c-4 28 -12 61 -17 74 -18 39 -130 98 -349 186 -139 55 -163 57 -234 21 l-59
-29 -63 29 c-58 28 -63 32 -69 70 -7 43 -44 94 -75 104 -10 3 -22 15 -25 26
-9 29 -49 51 -92 51 -22 0 -62 12 -96 29 -32 17 -83 35 -113 41 l-54 11 -2 41
-1 41 -4 -41 c-4 -41 -5 -42 -48 -48 -25 -3 -68 -17 -95 -31 -77 -39 -331
-208 -367 -245 -33 -32 -53 -82 -53 -131 0 -21 -13 -35 -62 -69 -35 -24 -73
-52 -84 -62 -19 -17 -27 -18 -60 -9 -59 16 -84 14 -149 -17 -74 -35 -355 -223
-406 -272 -28 -26 -39 -46 -44 -80 -7 -42 -11 -48 -78 -91 -66 -42 -74 -45
-106 -37 -93 26 -186 -9 -425 -159 -155 -98 -191 -133 -200 -195 -6 -40 -13
-50 -42 -69 -35 -21 -36 -21 -69 -3 -90 48 -93 41 67 139 78 49 238 149 353
223 116 74 264 170 330 212 66 42 215 138 330 212 116 74 309 198 430 275 262
167 720 467 755 496 21 17 22 19 5 15 -11 -3 -184 -112 -385 -243 -201 -130
-405 -263 -455 -295 -80 -51 -742 -476 -1060 -680 -66 -42 -190 -121 -275
-175 -85 -54 -162 -104 -171 -111 -13 -12 -22 -6 -70 42 -91 93 -138 122 -269
164 -65 22 -132 45 -146 53 l-28 14 90 43 c49 23 152 68 229 100 77 32 175 74
217 94 44 20 135 50 210 67 73 18 149 40 168 49 19 10 85 57 145 104 88 69
155 109 330 198 254 130 440 235 506 285 26 20 63 57 84 84 23 30 76 75 143
120 176 119 283 203 356 279 l69 72 66 -28 c55 -22 82 -43 158 -120 51 -52 97
-94 103 -94 5 0 10 11 10 24 0 13 9 55 21 92 19 63 28 76 101 147 44 42 82 77
84 77 3 0 26 -19 50 -42z m-275 -239 c-9 -22 -10 -22 -10 -3 -1 11 2 24 6 27
12 12 14 0 4 -24z m3523 -520 c-64 -178 -129 -364 -146 -414 -34 -101 -38
-108 -60 -100 -13 5 -11 14 13 60 68 124 99 282 80 403 -6 41 -18 87 -26 102
-8 16 -15 31 -15 33 0 3 52 49 115 103 63 53 122 108 131 122 8 13 17 22 20
20 2 -3 -48 -150 -112 -329z m-3441 306 c48 -12 130 -47 146 -61 2 -2 -2 -10
-8 -18 -18 -21 1 -51 40 -65 22 -8 43 -8 74 0 37 9 48 8 74 -7 30 -18 51 -61
51 -109 0 -11 6 -48 14 -83 l13 -63 -86 -67 c-133 -103 -180 -150 -187 -187
-5 -26 -20 -42 -81 -84 -55 -39 -81 -51 -98 -47 -58 15 -100 16 -148 6 -51
-11 -54 -11 -138 28 -48 22 -90 45 -94 51 -3 6 -46 31 -93 55 -131 66 -127 57
-100 217 21 128 23 136 57 170 55 54 139 111 152 103 8 -4 9 -3 5 4 -3 6 2 16
13 21 15 9 40 1 123 -35 180 -81 431 -185 435 -181 2 3 -116 55 -262 118 -264
112 -266 113 -243 131 13 9 37 25 55 35 l32 17 163 -73 c90 -41 210 -94 267
-119 l104 -46 -39 -33 c-22 -18 -45 -33 -51 -33 -7 0 -13 -4 -13 -10 0 -5 -9
-14 -19 -20 -15 -7 -34 -3 -83 19 -74 33 -407 175 -423 179 -58 16 391 -185
458 -205 25 -8 21 -14 -33 -55 l-49 -37 -63 28 c-174 80 -481 212 -484 208 -3
-2 117 -57 266 -122 226 -99 268 -120 258 -132 -16 -19 -32 -15 -178 52 -209
95 -394 175 -384 165 5 -5 122 -60 259 -121 137 -61 253 -113 258 -116 4 -2 2
-12 -5 -21 -11 -13 -10 -14 9 -4 73 39 373 280 373 299 0 4 -10 -3 -23 -15
l-23 -22 -60 29 c-32 15 -149 68 -259 116 -110 48 -204 91 -209 96 -5 4 2 11
15 14 15 4 46 -3 83 -20 32 -14 60 -24 63 -22 2 3 -21 15 -51 28 -31 12 -56
26 -56 31 0 10 56 26 95 27 17 1 57 -6 88 -14z m261 -85 c16 -16 17 -22 6 -34
-14 -18 -72 -21 -101 -6 -24 13 -25 46 -1 60 23 14 72 4 96 -20z m3040 -215
c32 -129 12 -292 -54 -433 -32 -69 -47 -80 -89 -62 l-29 11 33 50 c80 118 103
263 58 376 l-20 51 36 36 c19 20 39 36 42 36 4 0 14 -29 23 -65z m-2519 -25
c136 -53 324 -142 348 -164 20 -18 26 -39 36 -117 6 -52 14 -109 17 -126 5
-27 3 -33 -11 -33 -33 0 -163 -68 -193 -101 -115 -127 -142 -161 -147 -181 -3
-13 -18 -30 -33 -39 -15 -9 -54 -33 -86 -53 -33 -20 -66 -36 -73 -36 -10 0
-13 21 -13 79 0 44 -4 82 -10 86 -5 3 -7 -27 -3 -81 l6 -86 -33 7 c-18 4 -74
27 -125 51 -86 41 -93 47 -99 79 -8 43 -51 80 -158 139 l-84 46 10 67 c5 38
11 70 13 72 2 3 15 -6 30 -20 l27 -24 -22 29 c-36 47 -29 83 26 135 90 87 369
286 421 301 35 10 72 3 156 -30z m-1597 -222 c34 -12 62 -25 62 -29 0 -4 -25
-11 -55 -14 -64 -8 -99 -29 -75 -44 17 -11 15 -12 -57 -31 -45 -11 -56 -32
-26 -48 13 -8 5 -12 -36 -21 -29 -6 -61 -16 -72 -21 -26 -14 -24 -47 3 -61 22
-12 22 -12 -11 -41 -51 -46 -42 -75 39 -115 36 -18 72 -32 80 -33 9 0 32 14
52 30 36 30 37 30 72 14 43 -21 66 -8 66 37 0 33 2 34 34 14 44 -29 66 -2 66
82 0 38 2 43 23 40 21 -2 22 1 22 81 0 45 1 82 3 82 1 0 43 -20 92 -45 95 -48
112 -66 124 -140 4 -22 9 -47 12 -56 3 -12 -27 -39 -108 -96 -147 -104 -183
-144 -198 -219 -7 -33 -13 -63 -15 -69 -2 -5 -42 -34 -90 -64 -79 -50 -90 -54
-141 -52 -77 2 -168 48 -188 95 -17 41 -43 59 -186 131 -63 31 -117 59 -119
61 -4 4 18 153 30 206 11 43 27 57 229 193 148 100 249 155 285 155 11 0 48
-10 83 -22z m165 -60 c9 -34 11 -157 4 -164 -4 -4 -13 -2 -20 4 -21 18 -27 4
-27 -58 0 -63 -13 -85 -42 -69 -10 5 -16 14 -13 18 6 11 -23 23 -36 15 -5 -3
-9 -23 -9 -44 0 -48 -9 -54 -50 -34 -30 16 -33 15 -58 -5 -55 -44 -62 -44
-135 -11 -37 18 -67 36 -67 41 0 15 16 10 84 -24 l65 -34 28 30 28 30 -30 -20
-30 -20 -62 29 c-35 15 -63 32 -63 37 0 4 18 21 40 36 45 31 48 40 21 55 -29
15 -39 12 -17 -5 27 -20 15 -28 -13 -9 l-22 16 20 18 c12 9 48 23 81 30 38 8
60 18 60 26 0 8 -9 14 -19 14 -42 0 -27 18 24 29 58 13 77 28 54 42 -20 12
-12 15 76 31 114 22 122 22 128 -4z m3635 -90 c21 -21 13 -27 -18 -15 -16 6
-30 15 -30 19 0 12 35 9 48 -4z m-1429 -71 c88 -31 173 -86 201 -131 16 -26
60 -210 60 -251 0 -6 -63 -59 -139 -119 -134 -104 -150 -121 -165 -186 -9 -36
-160 -134 -186 -120 -10 6 -41 10 -69 10 -39 0 -70 9 -135 42 -78 38 -85 44
-96 82 -6 23 -20 50 -30 61 -10 11 -20 29 -22 40 -2 12 -16 24 -34 30 -17 6
-39 18 -49 28 -12 13 -28 17 -48 14 l-29 -4 7 46 c3 25 8 60 12 78 l5 32 24
-27 24 -27 -22 40 c-26 49 -20 81 22 128 l29 32 1 -44 c0 -55 31 -122 73 -157
18 -15 61 -41 97 -58 62 -29 71 -31 185 -31 98 1 129 4 170 22 91 37 92 38 63
14 -14 -11 -59 -41 -99 -66 -40 -25 -70 -45 -66 -45 18 0 108 53 177 104 83
62 223 196 214 205 -3 3 -10 -1 -14 -10 -5 -9 -34 -37 -64 -63 l-55 -47 35 66
c19 37 34 80 34 96 0 70 -47 134 -123 167 -72 31 -207 23 -289 -19 -96 -49
-105 -149 -18 -194 37 -19 100 -19 126 0 17 13 15 13 -20 4 -78 -21 -146 20
-146 86 0 71 90 119 225 120 74 0 97 -4 132 -22 79 -43 106 -109 78 -192 -44
-133 -211 -221 -395 -208 -174 12 -300 107 -300 226 0 77 29 120 117 177 65
42 72 43 37 2 -111 -132 -47 -271 137 -297 136 -19 258 33 275 117 5 26 1 36
-24 62 -24 24 -39 30 -73 30 -25 0 -50 -7 -61 -17 -30 -27 -20 -35 12 -11 29
21 33 21 73 8 82 -29 73 -102 -17 -149 -36 -18 -63 -24 -119 -25 -196 -2 -292
113 -207 247 16 26 33 47 38 47 4 0 18 9 30 20 76 71 256 87 401 37z m-1584
-53 c70 -21 290 -133 332 -169 32 -28 35 -37 53 -144 11 -63 19 -115 17 -116
-1 0 -36 -23 -77 -50 -41 -27 -88 -54 -105 -60 -19 -6 -31 -18 -33 -32 -2 -16
-12 -25 -30 -29 -45 -9 -55 -19 -67 -65 -6 -27 -16 -43 -24 -41 -102 22 -130
12 -177 -62 -27 -43 -49 -62 -39 -33 3 6 1 35 -4 62 -8 48 -9 47 -10 -35 -1
-53 -7 -92 -15 -103 -12 -16 -16 -16 -42 -2 -16 8 -37 15 -46 15 -39 0 -172
71 -205 109 -22 26 -64 54 -128 85 -67 33 -95 52 -95 64 0 16 34 216 45 269
12 53 130 150 325 268 161 98 199 106 325 69z m3211 -204 c-18 -50 -36 -94
-42 -99 -5 -5 -52 -19 -104 -31 -52 -13 -121 -31 -154 -41 l-58 -18 23 25 c36
38 113 84 142 84 60 0 103 30 169 118 21 28 43 52 47 52 5 0 -5 -41 -23 -90z
m-72 -1 c-33 -35 -74 -59 -100 -59 -17 0 101 88 120 89 6 1 -3 -13 -20 -30z
m-4717 -16 c56 -18 69 -33 29 -33 -23 0 -202 -34 -238 -46 -10 -3 -18 -11 -18
-18 0 -8 -17 -15 -45 -19 -55 -6 -63 -12 -47 -38 14 -21 13 -22 -43 -34 -86
-18 -105 -26 -105 -45 0 -10 12 -27 28 -39 l27 -20 -25 -18 c-14 -10 -35 -28
-46 -40 -27 -29 -31 -29 -79 4 -36 24 -38 24 -20 4 11 -13 33 -30 49 -38 16
-8 38 -25 50 -38 31 -35 147 -95 193 -99 22 -2 54 -11 72 -20 18 -10 37 -16
43 -14 6 2 -12 14 -42 27 l-52 23 37 38 38 39 42 -24 c79 -47 105 -31 105 63
l0 64 33 -22 c82 -54 101 -50 99 20 -2 37 0 41 18 35 30 -9 34 12 24 130 -6
60 -6 105 -1 105 19 0 295 -141 309 -158 13 -14 53 -162 46 -167 -2 -1 -42
-25 -91 -54 -125 -75 -244 -165 -261 -199 -8 -16 -22 -58 -31 -94 -16 -63 -18
-65 -71 -92 -35 -18 -61 -25 -75 -21 -18 6 -416 253 -547 340 -48 32 -46 15
-26 160 5 38 14 57 39 81 40 37 228 156 355 223 106 57 140 62 227 34z m3694
-27 c82 -25 169 -69 169 -85 0 -13 2 -13 9 -3 6 11 28 4 102 -31 52 -24 100
-50 106 -59 13 -15 47 -162 41 -177 -3 -9 -485 -401 -492 -401 -3 0 -7 24 -9
53 l-3 52 -2 -60 c-2 -55 -5 -62 -35 -86 -51 -40 -52 -40 -114 -18 -52 19 -62
27 -79 63 -17 38 -30 46 -144 103 -69 34 -128 64 -132 65 -8 3 28 200 44 241
11 28 28 37 28 13 0 -7 3 -29 7 -47 6 -32 5 -33 -13 -19 -15 11 -15 10 3 -10
12 -14 23 -36 25 -49 5 -35 33 -50 54 -29 10 9 13 21 9 29 -6 9 -11 5 -17 -12
-9 -23 -10 -23 -24 -5 -8 11 -14 29 -14 40 0 12 -6 44 -14 73 l-14 51 41 34
c94 75 119 91 128 77 4 -8 16 -45 25 -84 10 -38 19 -65 21 -60 3 9 -25 116
-40 155 -7 17 167 160 224 185 43 18 55 18 110 1z m-3587 -124 c9 -103 5 -125
-16 -104 -22 22 -28 12 -28 -49 l0 -60 -56 32 c-67 38 -74 33 -74 -53 0 -31
-5 -60 -10 -63 -6 -4 -34 5 -61 20 l-51 26 -35 -28 c-19 -15 -46 -37 -59 -48
l-25 -20 -84 43 c-46 24 -86 49 -89 57 -7 20 11 19 42 -4 15 -10 51 -30 80
-45 l52 -27 45 38 c66 55 58 58 -14 4 l-33 -25 -62 33 c-109 58 -108 56 -56
101 25 21 43 40 40 42 -3 2 -17 12 -32 21 -16 10 -28 22 -28 27 0 5 35 16 78
25 104 22 112 25 112 35 0 5 -9 12 -20 15 -36 11 -21 23 40 30 33 4 60 11 60
16 0 5 -6 9 -12 9 -32 1 25 19 107 33 50 9 99 18 110 21 11 2 31 3 45 3 24 -2
25 -5 34 -105z m2039 -20 c-2 -10 3 -25 12 -32 15 -13 19 -12 34 5 16 19 61
23 61 5 0 -5 15 -12 33 -15 17 -4 46 -14 62 -23 17 -8 55 -16 85 -16 48 -1 55
-4 58 -22 2 -17 10 -21 39 -20 42 1 56 -20 21 -33 -23 -10 -23 -10 4 -10 20
-1 32 -9 41 -28 21 -40 69 -255 60 -263 -4 -3 -42 -31 -83 -60 -211 -152 -290
-230 -290 -287 0 -26 -106 -83 -156 -83 -28 0 -77 18 -166 62 -116 56 -129 65
-139 96 -7 21 -24 42 -45 54 -19 11 -34 21 -34 23 0 2 6 34 14 72 8 37 17 84
20 104 l7 37 142 -74 c181 -93 206 -97 293 -54 35 18 79 46 97 61 17 15 77 61
132 102 112 83 155 121 155 137 0 6 -13 -4 -28 -21 l-28 -31 1 27 c0 16 -6 30
-14 33 -9 3 -11 0 -7 -7 4 -7 5 -19 2 -28 -5 -12 -9 -13 -21 -3 -12 10 -15 9
-15 -4 0 -9 7 -16 15 -16 23 0 17 -13 -17 -37 -29 -20 -34 -21 -49 -7 -10 9
-19 11 -23 6 -3 -6 1 -13 10 -16 13 -5 14 -9 3 -22 -21 -25 -51 -38 -59 -25
-5 9 -10 8 -20 -4 -10 -12 -10 -15 0 -15 14 0 -70 -79 -84 -80 -5 0 -6 3 -3 7
8 8 -22 43 -36 43 -6 0 -3 -8 6 -18 25 -28 21 -39 -26 -67 -48 -28 -73 -32
-80 -12 -4 9 -8 9 -15 -2 -8 -11 -23 -8 -81 19 -89 41 -99 52 -72 79 12 12 16
23 10 27 -12 7 -11 8 -27 -29 l-12 -28 -43 23 c-30 17 -41 29 -39 43 3 16 1
17 -11 6 -21 -17 -61 3 -53 26 4 10 2 13 -8 10 -8 -3 -22 3 -31 13 -9 10 -29
23 -45 30 -33 14 -30 47 6 60 13 5 30 23 39 40 13 25 21 30 54 30 43 0 63 16
55 46 -5 17 12 32 97 87 96 63 112 71 149 68 10 0 11 1 2 5 -18 9 -4 24 23 24
17 0 22 -4 18 -18z m42 -2 c3 -6 -1 -13 -10 -16 -19 -8 -30 0 -20 15 8 14 22
14 30 1z m2339 -148 c78 -73 177 -125 276 -145 l64 -13 -65 -47 c-36 -25 -103
-67 -148 -93 -54 -30 -118 -79 -181 -139 -113 -106 -167 -137 -332 -184 -141
-40 -269 -96 -358 -157 -39 -27 -101 -67 -136 -89 -153 -96 -238 -175 -545
-505 -151 -164 -200 -224 -244 -307 -81 -149 -142 -226 -279 -356 -75 -71
-157 -157 -183 -192 l-48 -65 -19 38 c-11 20 -38 89 -61 154 -28 78 -62 147
-102 210 -33 51 -68 108 -77 126 -25 49 -46 38 -87 -46 -26 -52 -46 -117 -69
-225 -37 -177 -57 -257 -64 -264 -7 -7 -169 91 -230 139 -27 21 -156 141 -285
266 -237 228 -261 246 -388 298 l-23 9 29 44 c38 56 55 119 48 176 -8 76 -52
109 -176 131 -84 15 -220 17 -293 5 -40 -7 -51 -5 -64 11 -10 10 -35 23 -57
29 -22 6 -49 19 -60 30 -11 10 -35 19 -52 19 -27 0 -36 7 -63 48 -74 115 -204
238 -300 285 -65 32 -128 32 -163 1 -24 -22 -59 -86 -59 -109 0 -8 -2 -15 -5
-15 -7 0 -110 57 -165 91 -67 41 -164 75 -328 115 -81 19 -169 45 -197 58 -27
12 -124 74 -214 136 -103 71 -182 118 -213 127 -48 14 -49 15 -32 34 28 32 76
57 172 93 103 38 132 58 196 137 44 56 127 109 167 109 10 0 96 -51 192 -114
656 -430 1245 -779 1906 -1128 146 -77 372 -198 501 -268 270 -146 316 -170
329 -170 12 0 220 157 881 664 465 356 1190 931 1409 1117 l45 38 40 -21 c23
-11 72 -50 110 -86z m-2681 -19 c9 -8 -12 -33 -27 -33 -20 0 -39 17 -32 29 8
12 49 15 59 4z m-1143 -19 c137 -41 368 -156 395 -198 8 -12 26 -77 39 -143
l25 -121 -79 -80 c-43 -44 -99 -94 -124 -111 -24 -17 -55 -45 -68 -62 -40 -53
-66 -75 -129 -109 -75 -39 -88 -38 -254 26 -79 30 -170 77 -267 136 -82 49
-150 94 -153 99 -8 13 34 228 52 267 18 37 50 64 183 152 161 108 257 158 306
159 11 1 45 -6 74 -15z m1026 -63 c-8 -13 -36 -15 -36 -3 0 4 5 13 12 20 14
14 34 0 24 -17z m-71 -93 c67 -25 114 -75 85 -93 -18 -11 -134 25 -177 55 -24
16 -43 25 -43 20 0 -28 138 -90 202 -90 33 0 33 3 12 -110 -16 -87 -16 -88
-49 -94 -18 -4 -38 -13 -45 -21 -18 -21 -80 -19 -145 6 -58 21 -125 72 -125
93 0 24 136 231 160 243 26 13 73 10 125 -9z m1330 -66 c143 -60 364 -172 374
-190 14 -26 41 -186 33 -194 -33 -31 -508 -398 -517 -398 -3 0 -3 17 -1 38 3
20 1 44 -5 52 -7 11 -9 -2 -7 -44 l2 -59 -55 -43 c-30 -24 -59 -43 -65 -44 -6
0 -53 20 -105 44 -66 31 -99 52 -109 71 -16 29 -114 98 -203 141 -53 26 -57
31 -52 56 4 14 12 70 20 124 13 91 16 99 52 136 61 62 244 202 252 192 16 -19
51 -118 44 -124 -5 -4 -41 -30 -80 -59 -108 -79 -103 -85 65 -78 l137 7 65
-80 c37 -46 71 -79 80 -78 8 2 30 41 49 88 19 47 36 86 37 88 1 2 51 15 110
28 59 14 117 30 128 36 19 10 19 11 1 24 -10 7 -59 30 -110 50 l-93 36 -7 61
c-6 61 -19 97 -33 97 -4 0 -47 -23 -96 -50 l-88 -51 -94 13 c-52 7 -94 15 -94
18 1 7 132 90 179 113 46 22 94 17 186 -21z m21 -112 c3 -38 12 -74 18 -79 6
-5 47 -23 91 -41 44 -17 84 -35 88 -40 8 -7 -153 -50 -187 -50 -22 0 -44 -33
-71 -105 -15 -39 -30 -73 -34 -77 -3 -4 -26 16 -49 45 -23 29 -55 66 -71 81
l-30 28 -123 -9 c-68 -5 -124 -9 -126 -8 -1 1 31 28 73 60 83 64 87 73 55 144
-11 24 -19 45 -17 47 2 2 44 -4 94 -13 l91 -16 83 51 c46 28 89 52 96 52 7 0
14 -26 19 -70z m-1664 -8 c12 -10 16 -23 12 -39 -14 -52 102 -129 210 -140 41
-4 59 -1 86 16 46 28 82 26 119 -5 26 -22 31 -33 31 -71 0 -37 -5 -50 -30 -73
-17 -16 -41 -30 -53 -32 -12 -2 -21 -10 -19 -17 11 -51 -70 -145 -156 -184
-99 -43 -255 -30 -387 33 -110 53 -157 133 -121 207 40 83 130 165 234 212 28
14 52 28 52 32 0 15 -32 39 -51 39 -27 0 -62 -38 -56 -61 5 -19 -15 -44 -26
-32 -12 11 -7 53 9 84 27 54 102 70 146 31z m-44 -54 c-6 -16 -68 -39 -68 -25
0 17 13 33 30 39 20 7 42 -2 38 -14z m3097 -741 c-14 -11 -136 -106 -271 -212
l-247 -192 -63 -6 c-35 -4 -82 -16 -104 -27 -23 -12 -45 -20 -50 -18 -5 2 9
34 31 72 22 38 62 121 90 185 83 190 128 256 190 280 44 16 63 -5 57 -66 -8
-84 -69 -144 -97 -95 -9 15 -10 15 -11 -4 0 -12 7 -24 15 -28 68 -26 152 147
96 198 -44 40 -119 -6 -185 -112 -15 -24 -49 -95 -76 -158 -26 -63 -67 -148
-90 -189 l-42 -73 -42 18 c-45 19 -45 19 -31 132 4 31 5 67 1 81 -12 49 -63
42 -92 -14 -15 -30 -16 -30 -35 -13 -26 23 -24 31 15 85 41 55 110 93 151 83
52 -13 65 -85 40 -219 l-6 -30 19 35 c11 19 36 82 57 140 53 149 107 257 161
318 54 62 89 82 143 82 32 0 44 -6 65 -31 14 -17 26 -37 26 -45 0 -7 7 -32 17
-55 22 -55 68 -77 113 -54 16 8 37 29 45 46 18 35 16 90 -3 97 -11 3 -11 0 -1
-15 25 -42 -24 -123 -75 -123 -31 0 -63 40 -77 95 -12 48 -49 92 -84 101 -54
13 -96 -5 -160 -69 -65 -66 -121 -163 -170 -297 -15 -41 -32 -79 -38 -85 -7
-7 -8 -6 -3 2 12 22 -13 92 -40 109 -55 36 -146 -5 -201 -91 l-27 -43 -40 26
c-23 14 -43 27 -45 29 -5 3 25 28 309 248 140 109 323 253 406 320 119 97 165
128 222 149 39 15 90 40 114 56 l43 29 3 -317 2 -317 -25 -18z m-250 525 c-18
-16 -659 -518 -741 -580 -45 -34 -86 -62 -91 -62 -5 0 -30 -20 -56 -45 -76
-73 -316 -259 -301 -233 19 31 314 348 429 461 98 97 153 141 305 242 220 145
208 139 340 186 109 39 131 45 115 31z m-3143 -77 c-6 -48 13 -88 59 -129 79
-72 207 -116 338 -116 l86 0 -25 -21 c-14 -11 13 -1 59 23 112 57 188 128 197
186 5 31 11 42 24 42 14 0 22 -16 35 -77 10 -43 19 -83 22 -89 2 -7 -24 -34
-59 -60 -134 -102 -208 -185 -208 -232 0 -13 -21 -33 -62 -60 -115 -74 -81
-81 -368 74 -140 75 -256 137 -256 138 -3 2 45 252 51 269 7 17 91 87 104 87
4 0 5 -16 3 -35z m-1435 -152 c120 -61 153 -82 153 -98 0 -11 7 -45 15 -75 8
-30 12 -56 10 -58 -2 -3 -75 35 -162 84 -180 101 -317 176 -385 212 -35 18
-48 31 -48 47 0 12 2 24 5 27 3 3 63 -10 133 -28 101 -27 158 -49 279 -111z
m-122 -88 c66 -37 158 -88 205 -113 47 -25 86 -46 87 -47 1 0 -10 -39 -25 -84
l-27 -84 -100 7 c-146 9 -172 19 -116 44 36 16 65 72 56 110 -10 49 -42 89
-89 112 -137 66 -266 -91 -195 -237 48 -100 173 -154 353 -154 102 0 110 -1
127 -23 10 -13 36 -31 58 -39 31 -13 38 -20 34 -36 -3 -11 2 -35 11 -53 17
-33 17 -33 -16 -60 -18 -15 -36 -28 -41 -28 -10 0 -559 318 -574 333 -12 12
-33 288 -33 432 l0 77 83 -45 c45 -24 136 -74 202 -112z m517 123 c32 -17 89
-61 126 -97 77 -76 176 -207 162 -216 -9 -6 -146 47 -219 85 -63 32 -157 108
-184 149 -25 38 -35 89 -20 104 16 17 80 5 135 -25z m2248 -21 c163 -56 310
-152 310 -201 0 -12 4 -26 8 -31 5 -6 15 -44 22 -85 7 -41 15 -80 17 -87 3 -6
-60 -60 -139 -119 -79 -60 -195 -148 -258 -197 -63 -49 -120 -92 -127 -94 -7
-3 -121 54 -254 126 -132 72 -245 131 -249 131 -5 0 -11 4 -15 9 -5 8 16 165
30 229 14 60 232 242 391 327 68 36 142 34 264 -8z m-2368 -85 c54 -79 216
-180 342 -214 25 -7 45 -15 43 -18 -2 -3 -11 -22 -20 -43 -13 -27 -23 -37 -35
-33 -9 2 -33 7 -52 10 -23 3 -17 0 18 -11 56 -17 64 -36 16 -41 -16 -2 -33 -8
-39 -14 -7 -7 1 -8 26 -4 36 6 36 6 43 -35 8 -50 8 -50 -99 -85 -150 -48 -273
-42 -335 16 -26 24 -30 35 -30 82 0 30 11 90 23 133 l24 79 11 -34 c7 -18 15
-31 18 -28 3 3 -7 47 -22 99 -29 102 -29 162 2 221 l17 33 9 -34 c5 -19 23
-54 40 -79z m-406 -88 c90 -43 99 -161 14 -199 -34 -15 -40 -16 -67 -1 -50 26
-61 88 -18 108 21 9 28 8 45 -7 12 -11 20 -13 20 -6 0 6 -11 17 -25 23 -53 24
-102 -32 -76 -88 25 -55 136 -95 271 -97 l89 -1 -1 -43 c0 -40 -2 -43 -35 -49
-47 -9 -188 5 -243 23 -25 9 -64 29 -88 45 -162 112 -60 375 114 292z m924
-149 c19 -14 43 -25 55 -25 21 0 65 -25 55 -32 -3 -2 -14 -8 -25 -14 -33 -17
-75 -111 -75 -166 0 -39 -3 -48 -18 -48 -27 0 -122 68 -132 96 -22 58 -5 140
38 187 32 34 58 34 102 2z m481 -75 c121 -23 163 -72 84 -98 -86 -29 -260 -1
-401 66 l-59 27 45 6 c76 10 274 10 331 -1z m-306 -59 c183 -86 343 -98 456
-34 3 2 2 -21 -2 -50 -7 -56 -20 -86 -69 -164 -16 -25 -27 -50 -24 -54 10 -17
-15 -161 -36 -204 -37 -76 -89 -87 -180 -40 -128 66 -301 341 -286 454 3 25 8
47 11 49 3 3 18 -6 33 -20 15 -14 38 -31 52 -38 22 -11 22 -9 -5 14 -16 15
-40 34 -52 42 -13 9 -23 20 -23 24 0 12 42 61 49 58 3 -2 38 -19 76 -37z
m3016 -75 c8 -17 8 -39 -1 -81 l-12 -58 -34 39 c-39 46 -41 62 -13 98 25 32
46 33 60 2z m-276 4 c7 0 16 -15 19 -33 9 -46 64 -108 141 -158 l64 -42 -22
-38 c-12 -21 -34 -53 -50 -71 l-27 -33 6 41 c5 30 2 45 -11 57 -40 41 -145 3
-199 -72 -26 -35 -31 -52 -31 -97 0 -45 4 -58 27 -80 62 -63 171 -22 308 116
l86 85 -18 -50 c-9 -27 -18 -59 -18 -70 -1 -20 -166 -150 -1140 -905 -179
-139 -330 -257 -337 -262 -10 -8 -13 109 -14 539 0 301 -5 580 -9 618 -5 42
-7 -175 -5 -543 l4 -612 -27 14 c-15 8 -310 179 -657 379 -438 253 -634 372
-642 388 -6 13 -16 76 -23 139 -6 63 -15 130 -20 148 -9 36 -10 36 22 21 16
-7 29 -28 41 -67 52 -165 138 -282 256 -352 87 -51 178 -77 331 -94 131 -16
173 -26 202 -53 27 -24 22 -32 -16 -26 -28 4 -35 2 -40 -15 -13 -40 29 -99 87
-121 41 -16 52 -14 86 15 77 64 36 191 -81 250 -28 14 -48 27 -46 29 1 1 30
-1 63 -6 117 -19 237 -95 280 -179 22 -43 31 -126 15 -145 -34 -41 -86 7 -75
69 8 42 -11 56 -50 38 -53 -24 -38 -129 27 -187 31 -29 46 -35 82 -35 57 0
101 35 117 93 18 65 7 173 -24 232 -28 55 -93 135 -109 135 -5 0 9 -21 33 -47
106 -121 129 -294 49 -375 -34 -34 -71 -36 -118 -8 -63 39 -94 136 -56 175 26
25 39 12 39 -40 0 -40 4 -51 28 -69 32 -24 54 -16 75 28 29 59 -24 179 -109
245 -90 72 -231 106 -356 86 l-48 -8 68 -13 c136 -26 206 -82 214 -172 4 -38
1 -53 -17 -74 -48 -62 -160 -11 -160 72 0 21 24 27 35 10 3 -5 15 -10 26 -10
30 0 23 34 -15 68 -34 30 -117 52 -197 52 -58 0 -216 37 -276 65 -136 62 -222
156 -284 312 -22 53 -39 98 -39 100 0 2 15 3 33 3 31 0 35 -4 72 -81 66 -138
150 -212 239 -212 72 0 109 71 65 127 -23 29 -41 33 -58 12 -10 -12 -8 -13 8
-9 30 8 51 -14 51 -53 0 -62 -59 -81 -137 -43 -58 28 -108 88 -153 184 l-38
79 30 35 c17 19 37 49 44 67 l14 33 77 -43 c43 -24 157 -86 253 -138 351 -191
477 -265 467 -274 -1 -1 -29 4 -62 12 -74 18 -158 11 -269 -22 -102 -31 -158
-44 -153 -36 30 57 39 92 34 139 -11 106 -85 183 -176 183 -56 0 -101 -41
-101 -93 0 -36 44 -97 70 -97 7 0 1 9 -12 20 -85 66 -37 175 67 156 52 -10
112 -68 129 -125 23 -77 0 -157 -52 -185 -27 -15 -27 -15 24 -16 31 0 87 12
145 31 129 43 228 49 334 20 44 -12 94 -33 112 -47 34 -26 48 -31 37 -13 -4 7
1 7 16 -1 12 -6 28 -9 37 -6 8 3 35 -8 59 -25 25 -17 47 -29 50 -26 5 5 -49
47 -83 65 l-21 12 18 72 c9 40 27 120 40 178 28 136 36 162 73 243 l30 68 41
-78 c23 -43 56 -99 74 -125 18 -26 50 -96 71 -156 l39 -109 -30 -23 c-16 -12
-27 -24 -24 -27 3 -3 17 4 32 16 l28 22 19 -38 c40 -79 45 -80 89 -10 23 36
99 120 181 199 l141 137 11 -31 c5 -17 22 -40 36 -51 24 -17 31 -18 63 -7 57
18 86 72 45 83 -29 8 -21 47 14 67 27 14 29 14 48 -9 23 -29 25 -79 3 -152
-24 -80 -50 -126 -108 -187 -60 -63 -110 -92 -163 -92 -65 0 -96 33 -119 125
l-12 50 -1 -39 c-1 -51 31 -117 68 -139 121 -71 322 107 360 318 12 64 3 122
-21 137 -22 14 -64 9 -80 -9 -31 -36 -32 -83 -2 -83 22 0 17 -27 -8 -44 -47
-33 -99 -13 -113 44 -8 34 91 188 132 205 90 37 152 21 183 -47 36 -79 18
-196 -52 -332 -56 -109 -186 -242 -279 -286 -82 -39 -140 -40 -175 -5 -14 14
-26 25 -28 25 -2 0 -6 -24 -9 -52 -20 -165 -205 -360 -300 -317 -60 27 -62
137 -6 246 71 140 179 152 179 21 0 -64 -28 -130 -65 -154 -50 -33 -82 15 -50
76 10 20 22 30 31 26 8 -3 14 -1 14 4 0 19 -29 10 -49 -16 -39 -49 -26 -114
23 -114 41 0 116 74 145 143 29 67 45 174 37 241 -11 86 -21 74 -18 -20 4 -92
-9 -168 -38 -229 l-19 -40 6 56 c9 96 -40 157 -107 129 -91 -38 -173 -226
-140 -324 37 -112 185 -75 288 72 45 64 82 149 82 187 0 30 -2 29 39 9 42 -21
91 -15 163 21 149 73 275 223 335 398 58 171 13 317 -98 317 -22 0 -55 -7 -74
-14 -19 -8 -35 -13 -35 -11 0 17 74 124 92 132 13 7 84 59 158 117 74 57 141
103 148 100 8 -2 20 -4 27 -4z m115 -57 c0 -42 -17 -40 -43 5 -23 39 -15 55
18 40 20 -9 25 -19 25 -45z m-3161 13 c9 -10 2 -23 -32 -57 -24 -24 -74 -93
-112 -154 -96 -153 -147 -217 -218 -277 -64 -54 -164 -105 -255 -132 l-54 -16
18 28 c24 36 61 114 66 136 4 21 -2 25 -101 68 l-73 32 87 23 c136 36 215 83
328 194 84 83 104 98 140 103 23 4 71 20 107 35 77 34 84 35 99 17z m3199 -27
c10 -16 11 -24 2 -33 -13 -13 -30 8 -30 37 0 23 12 22 28 -4z m-3126 -19 c18
-11 41 -20 51 -20 12 0 17 -8 17 -29 0 -28 -1 -28 -42 -24 -57 5 -103 -23
-128 -80 -12 -27 -21 -36 -24 -27 -3 8 -10 27 -15 41 -7 20 -6 33 6 50 15 23
94 109 100 109 1 0 17 -9 35 -20z m-404 -20 l36 0 -39 -40 c-36 -37 -41 -39
-52 -23 -7 9 -13 30 -13 46 0 22 4 28 16 23 9 -3 32 -6 52 -6z m3585 -29 c25
-42 22 -44 -22 -19 -35 20 -37 24 -22 35 23 17 25 17 44 -16z m999 -26 c215
-191 459 -424 469 -447 24 -58 6 -83 -172 -233 -457 -386 -714 -601 -733 -612
-12 -7 -34 -12 -51 -12 -16 0 -40 5 -51 12 -12 7 -130 118 -263 248 -307 299
-297 271 -145 414 l109 103 -13 34 c-61 149 -65 232 -17 313 l26 46 28 -20
c45 -32 54 -48 47 -82 -18 -93 101 -160 167 -94 46 47 41 107 -13 143 -26 18
-43 21 -74 17 -36 -4 -45 -1 -79 29 -43 38 -39 46 33 71 79 28 178 15 295 -39
32 -14 63 -26 71 -26 7 0 62 41 121 91 107 90 108 90 155 86 37 -3 56 -12 90
-42z m-4104 -38 c2 -12 -3 -17 -18 -17 -12 0 -35 -13 -51 -29 -24 -25 -29 -37
-29 -81 0 -83 39 -153 103 -186 20 -11 27 -22 27 -45 l0 -30 -52 28 c-52 28
-218 183 -252 235 -17 27 -17 29 4 63 12 19 25 35 29 35 3 0 18 -26 33 -57 25
-56 26 -57 27 -25 1 35 33 106 52 118 42 26 122 20 127 -9z m116 -136 c20 -27
62 -72 92 -100 64 -59 68 -71 84 -231 13 -133 37 -241 74 -324 14 -32 26 -60
26 -62 0 -7 -59 15 -109 40 -65 33 -67 32 -109 -79 l-30 -79 -17 39 c-50 115
-57 167 -66 485 -5 208 -13 329 -23 380 -9 41 -16 77 -16 80 0 3 13 -19 29
-47 16 -29 45 -75 65 -102z m492 103 c79 -33 145 -87 344 -284 l205 -201 -90
47 c-119 62 -306 164 -430 234 l-100 56 3 64 c4 73 9 100 21 100 5 0 26 -7 47
-16z m2563 -30 c12 -19 21 -39 21 -44 0 -18 -155 -166 -201 -193 -25 -15 -66
-30 -92 -33 -40 -6 -48 -3 -71 19 -49 49 -32 134 39 195 39 35 68 45 111 40
23 -2 30 -8 32 -32 5 -41 -16 -85 -50 -102 -37 -19 -52 -10 -44 28 3 18 2 27
-4 23 -16 -10 -12 -65 5 -71 41 -16 149 71 195 159 14 26 28 47 31 47 4 0 16
-16 28 -36z m-3165 4 c16 -77 17 -101 4 -110 -10 -7 -9 -11 5 -22 12 -9 17
-27 17 -65 0 -28 -4 -51 -9 -51 -20 0 -70 52 -90 95 -27 58 -27 114 0 149 26
33 67 35 73 4z m3231 2 c3 -5 2 -10 -4 -10 -5 0 -13 5 -16 10 -3 6 -2 10 4 10
5 0 13 -4 16 -10z m-3423 -183 c79 -79 129 -121 165 -138 41 -19 52 -29 53
-47 0 -13 -3 -22 -8 -20 -9 4 -328 186 -364 208 l-26 16 31 47 c17 26 32 47
33 47 2 0 54 -51 116 -113z m3669 65 c31 -26 31 -78 -1 -104 -43 -35 -120 0
-120 55 0 19 1 19 18 4 32 -30 45 -22 38 23 -6 37 -5 40 18 40 13 0 34 -8 47
-18z"/>
<path d="M5794 8479 c-91 -26 -50 -95 62 -106 46 -5 54 -3 54 11 0 18 -26 22
-32 5 -5 -14 -86 5 -107 25 -12 12 -13 21 -5 33 16 26 61 35 139 28 146 -13
208 -39 336 -141 96 -76 183 -121 260 -133 54 -9 99 0 99 19 0 6 -7 6 -19 -2
-40 -24 -129 27 -91 53 39 26 220 -30 220 -69 0 -45 -121 -55 -277 -23 -119
25 -178 53 -283 133 -110 84 -160 109 -230 115 -54 5 -85 -6 -60 -22 5 -3 10
-1 10 5 0 8 13 10 43 5 78 -12 107 -27 213 -106 145 -109 223 -141 385 -159
197 -22 291 44 152 107 -105 48 -223 39 -194 -15 8 -15 8 -22 1 -22 -30 0
-144 64 -209 118 -41 33 -96 72 -122 87 -97 52 -262 78 -345 54z"/>
<path d="M5645 8450 c-3 -5 3 -10 14 -10 12 0 21 5 21 10 0 6 -6 10 -14 10 -8
0 -18 -4 -21 -10z"/>
<path d="M6300 8381 c0 -17 18 -21 24 -6 3 9 0 15 -9 15 -8 0 -15 -4 -15 -9z"/>
<path d="M6360 8322 c0 -10 7 -27 16 -38 14 -17 15 -17 10 -1 -3 10 -6 27 -6
38 0 10 -4 19 -10 19 -5 0 -10 -8 -10 -18z"/>
<path d="M6801 8168 c-39 -21 -48 -44 -31 -75 39 -70 169 -120 477 -183 227
-46 270 -61 416 -150 150 -91 243 -123 362 -124 129 -1 182 32 151 96 -17 36
-115 79 -188 85 -71 5 -109 -10 -118 -45 -5 -21 -9 -20 -114 42 -60 36 -144
77 -188 92 -44 14 -77 29 -74 31 8 8 184 -17 228 -33 21 -7 38 -9 38 -5 0 23
-159 51 -290 51 -126 0 -163 -15 -58 -23 44 -3 106 -17 156 -36 86 -31 109
-43 250 -129 95 -58 177 -82 217 -64 14 6 25 18 25 26 0 16 -37 46 -55 46 -5
-1 3 -8 18 -16 37 -20 30 -38 -18 -42 -43 -4 -111 22 -120 46 -28 75 234 48
275 -28 28 -52 -18 -81 -130 -81 -108 0 -210 35 -346 117 -117 71 -214 111
-334 138 -41 9 -147 32 -235 52 -175 38 -292 87 -329 137 l-20 27 22 23 c18
18 34 22 80 22 105 -1 236 -55 206 -85 -17 -17 -108 -14 -148 5 -44 21 -42 41
5 39 31 -2 32 -1 11 9 -26 12 -76 -6 -70 -26 6 -20 110 -67 173 -77 33 -5 128
-9 210 -8 l150 2 -180 7 c-99 3 -183 7 -187 8 -16 2 -7 21 10 21 10 0 27 6 38
14 19 14 19 15 -5 40 -13 14 -44 32 -70 41 -64 23 -180 30 -210 13z"/>
<path d="M6654 8098 c-4 -5 -1 -14 7 -18 14 -9 29 -4 29 10 0 13 -29 20 -36 8z"/>
<path d="M7840 7850 c0 -5 4 -10 9 -10 6 0 13 5 16 10 3 6 -1 10 -9 10 -9 0
-16 -4 -16 -10z"/>
<path d="M7480 7811 c0 -6 -7 -8 -15 -5 -8 4 -15 1 -15 -5 0 -13 36 -15 45 -2
3 5 1 12 -5 16 -5 3 -10 2 -10 -4z"/>
<path d="M8310 7660 c0 -5 7 -10 15 -10 8 0 15 5 15 10 0 6 -7 10 -15 10 -8 0
-15 -4 -15 -10z"/>
<path d="M8455 7630 c-19 -7 -19 -8 -2 -15 10 -4 23 -3 29 3 14 14 -3 21 -27
12z"/>
<path d="M8182 7608 c-32 -32 -1 -68 60 -68 55 0 81 47 39 70 -27 14 -84 13
-99 -2z m94 -13 c19 -15 19 -15 -1 -30 -33 -26 -108 2 -84 31 15 18 60 18 85
-1z"/>
<path d="M8285 7325 c-14 -13 -25 -32 -25 -43 0 -41 53 -57 83 -24 22 24 22
78 1 86 -26 10 -34 7 -59 -19z m65 -20 c0 -27 -34 -59 -55 -52 -22 9 -18 53 6
71 27 19 49 10 49 -19z"/>
<path d="M8516 7203 c-11 -11 -6 -23 9 -23 8 0 15 4 15 9 0 13 -16 22 -24 14z"/>
<path d="M8201 6804 c0 -11 3 -14 6 -6 3 7 2 16 -1 19 -3 4 -6 -2 -5 -13z"/>
<path d="M8360 6765 c0 -8 5 -15 11 -15 5 0 7 5 3 12 -5 8 -2 9 10 5 10 -4 15
-3 11 3 -10 15 -35 12 -35 -5z"/>
<path d="M8062 6753 c-21 -8 -34 -53 -21 -69 26 -31 79 -10 79 31 0 35 -25 52
-58 38z m44 -28 c8 -20 -13 -45 -37 -45 -13 0 -19 7 -19 23 0 13 3 27 7 30 12
13 44 7 49 -8z"/>
<path d="M7841 6204 c-16 -12 -21 -24 -19 -47 4 -38 30 -47 59 -21 43 38 6
100 -40 68z m47 -25 c4 -20 -25 -52 -42 -46 -16 5 -20 36 -5 53 15 18 43 14
47 -7z"/>
<path d="M4650 6384 c0 -3 51 -29 113 -58 61 -30 310 -147 552 -261 698 -329
983 -465 1571 -748 303 -146 561 -268 573 -272 11 -3 21 -2 21 3 0 5 -75 45
-167 90 -983 473 -1227 590 -1878 895 -458 215 -769 357 -780 357 -3 0 -5 -3
-5 -6z"/>
<path d="M8097 6053 c-4 -3 -7 -18 -6 -32 l1 -26 7 24 c8 30 28 38 34 14 4
-14 5 -13 6 5 1 15 -5 22 -17 22 -10 0 -22 -3 -25 -7z"/>
<path d="M4651 6166 c3 -4 133 -61 309 -138 25 -10 41 -15 35 -9 -10 9 -330
151 -342 151 -4 0 -4 -2 -2 -4z"/>
<path d="M4140 5885 c0 -8 92 -65 104 -65 6 0 2 8 -9 16 -27 21 -95 56 -95 49z"/>
<path d="M4540 5680 c20 -13 53 -13 45 0 -3 6 -18 10 -33 10 -21 0 -24 -2 -12
-10z"/>
<path d="M4611 5563 c-1 -50 3 -83 9 -83 11 0 11 90 0 135 -5 22 -8 7 -9 -52z"/>
<path d="M5352 5859 c-24 -12 -51 -33 -60 -47 -15 -24 -15 -25 13 -49 45 -36
72 -39 100 -13 41 39 125 25 125 -21 0 -27 -37 -46 -105 -54 -33 -4 -72 -13
-86 -21 -34 -17 -101 -92 -94 -105 4 -5 24 -18 44 -29 39 -19 39 -19 57 2 29
32 77 48 146 48 212 0 260 202 68 289 -62 28 -151 28 -208 0z m189 -14 c92
-33 138 -112 106 -181 -23 -46 -67 -66 -171 -75 -80 -6 -91 -10 -120 -37 -31
-30 -31 -30 -64 -13 l-33 17 49 46 c44 41 56 47 108 53 67 7 122 28 130 50 10
24 -5 64 -27 76 -34 18 -84 13 -117 -11 -28 -21 -31 -21 -60 -6 -40 21 -45 30
-24 49 53 48 141 61 223 32z"/>
<path d="M5785 5633 c-61 -57 -337 -264 -397 -298 -24 -14 -37 -25 -31 -25 45
0 414 271 463 340 12 17 20 30 18 30 -2 -1 -25 -22 -53 -47z"/>
<path d="M5170 5490 c-36 -36 -18 -82 37 -96 54 -14 106 62 68 100 -23 23 -80
21 -105 -4z m97 -17 c27 -34 -25 -71 -73 -53 -32 13 -30 49 5 66 26 14 50 9
68 -13z"/>
<path d="M3750 5681 c0 -6 4 -13 10 -16 6 -3 7 1 4 9 -7 18 -14 21 -14 7z"/>
<path d="M4182 5518 c6 -16 38 -23 38 -9 0 6 -7 7 -17 4 -11 -4 -14 -3 -9 5 4
7 2 12 -4 12 -7 0 -10 -6 -8 -12z"/>
<path d="M4240 5455 c-16 -19 -261 -206 -353 -268 -70 -49 -79 -59 -25 -31 75
39 398 286 398 305 0 13 -6 11 -20 -6z"/>
<path d="M3422 5427 c-26 -27 -28 -50 -7 -67 52 -43 137 27 89 74 -22 23 -57
20 -82 -7z m72 0 c40 -29 -20 -87 -62 -60 -24 15 -25 30 -3 52 24 24 40 26 65
8z"/>
<path d="M3350 5299 c14 -12 50 -34 80 -49 74 -37 241 -103 246 -97 3 2 -35
21 -83 42 -48 21 -128 57 -178 82 -57 28 -81 36 -65 22z"/>
<path d="M3773 4990 c0 -47 2 -66 4 -42 2 23 2 61 0 85 -2 23 -4 4 -4 -43z"/>
<path d="M3956 5605 c-8 -22 28 -39 44 -20 6 8 9 19 5 25 -9 15 -42 12 -49 -5z
m39 -5 c3 -5 -1 -10 -9 -10 -9 0 -16 5 -16 10 0 6 4 10 9 10 6 0 13 -4 16 -10z"/>
<path d="M3832 5537 c-14 -16 -6 -27 20 -27 13 0 18 6 16 17 -4 22 -22 27 -36
10z m28 -7 c0 -5 -4 -10 -10 -10 -5 0 -10 5 -10 10 0 6 5 10 10 10 6 0 10 -4
10 -10z"/>
<path d="M3924 5475 c-8 -19 3 -35 26 -35 22 0 33 23 17 39 -15 15 -37 14 -43
-4z m33 -21 c-9 -9 -28 6 -21 18 4 6 10 6 17 -1 6 -6 8 -13 4 -17z"/>
<path d="M3784 5449 c-8 -14 14 -29 33 -22 10 4 11 9 2 19 -14 17 -25 18 -35
3z"/>
<path d="M3830 5345 c0 -6 56 -35 67 -35 13 1 -41 40 -54 40 -7 0 -13 -2 -13
-5z"/>
<path d="M6031 5386 c-9 -10 -8 -16 4 -26 13 -11 19 -11 32 2 16 17 10 38 -11
38 -8 0 -19 -6 -25 -14z m34 -6 c3 -5 -1 -10 -9 -10 -9 0 -16 5 -16 10 0 6 4
10 9 10 6 0 13 -4 16 -10z"/>
<path d="M6200 5365 c-16 -19 -5 -35 25 -35 26 0 39 22 22 39 -15 15 -32 14
-47 -4z m40 -10 c0 -8 -6 -15 -14 -15 -17 0 -28 14 -19 24 12 12 33 6 33 -9z"/>
<path d="M6273 5243 c-18 -7 -16 -30 3 -37 24 -9 47 13 33 30 -12 15 -16 16
-36 7z m27 -18 c0 -8 -4 -15 -9 -15 -13 0 -22 16 -14 24 11 11 23 6 23 -9z"/>
<path d="M5687 5234 c-4 -4 -7 -14 -7 -23 0 -13 2 -13 9 -2 5 8 14 10 21 6 8
-5 11 -3 8 5 -5 16 -22 23 -31 14z"/>
<path d="M5757 5136 c-7 -17 22 -31 36 -17 5 5 6 14 3 20 -10 16 -33 14 -39
-3z m33 0 c0 -3 -4 -8 -10 -11 -5 -3 -10 -1 -10 4 0 6 5 11 10 11 6 0 10 -2
10 -4z"/>
<path d="M6023 4770 c0 -41 2 -58 4 -37 2 20 2 54 0 75 -2 20 -4 3 -4 -38z"/>
<path d="M4503 5370 c-24 -5 -64 -18 -90 -30 -57 -25 -212 -140 -213 -157 0
-7 12 -19 28 -27 15 -8 36 -24 47 -36 90 -101 248 -141 405 -104 63 14 240
101 240 117 0 4 -24 41 -54 82 -52 69 -107 116 -168 143 -38 16 -145 23 -195
12z m184 -31 c40 -15 73 -37 108 -73 65 -66 118 -127 113 -130 -27 -21 -207
-98 -248 -107 -125 -26 -275 12 -366 93 -22 20 -49 40 -62 47 -21 11 -19 14
55 70 92 69 110 79 183 102 75 24 147 23 217 -2z"/>
<path d="M4454 5311 c-56 -16 -204 -103 -204 -120 0 -7 75 -66 120 -94 79 -48
226 -62 330 -31 72 21 170 71 170 86 0 7 -28 40 -63 74 -103 100 -210 126
-353 85z m216 -30 c29 -21 37 -47 18 -54 -7 -2 -5 -3 5 -2 21 4 24 -33 2 -41
-8 -4 -13 -10 -10 -14 20 -32 -59 -80 -130 -78 -42 0 -46 3 -41 22 5 19 4 20
-8 3 -8 -10 -20 -15 -30 -11 -20 8 -21 20 -1 28 8 3 15 11 15 17 0 7 -9 4 -21
-7 -17 -16 -22 -16 -29 -4 -7 11 -4 19 8 29 16 13 16 13 0 8 -21 -7 -32 8 -22
31 4 9 8 19 8 22 1 3 12 20 26 38 16 22 31 32 42 29 10 -3 18 0 18 5 0 18 121
1 150 -21z m-235 -11 c-10 -11 -20 -41 -23 -68 -4 -41 0 -52 23 -80 47 -56
150 -66 224 -21 44 27 74 94 61 139 -5 19 -8 36 -5 38 7 7 92 -65 116 -99 11
-17 20 -31 18 -33 -16 -11 -135 -58 -183 -71 -68 -20 -153 -16 -226 10 -42 15
-170 94 -170 105 0 12 171 112 179 104 2 -2 -4 -13 -14 -24z"/>
<path d="M4525 5245 c-14 -13 -25 -31 -25 -39 0 -21 39 -46 71 -46 30 0 73 44
62 64 -29 52 -70 60 -108 21z m92 -11 c11 -29 -11 -49 -53 -49 -42 0 -57 22
-34 50 17 21 79 19 87 -1z"/>
<path d="M4581 5114 c0 -11 3 -14 6 -6 3 7 2 16 -1 19 -3 4 -6 -2 -5 -13z"/>
<path d="M4975 5133 c-77 -71 -198 -165 -300 -233 -99 -66 -113 -79 -55 -50
107 53 363 253 403 314 10 14 16 26 15 26 -2 -1 -30 -26 -63 -57z"/>
<path d="M4087 5022 c45 -39 164 -106 273 -153 143 -62 128 -45 -25 29 -77 38
-165 84 -195 103 -78 50 -90 54 -53 21z"/>
<path d="M2984 5189 c-8 -14 11 -33 25 -25 16 10 13 36 -3 36 -8 0 -18 -5 -22
-11z m26 -9 c0 -5 -4 -10 -10 -10 -5 0 -10 5 -10 10 0 6 5 10 10 10 6 0 10 -4
10 -10z"/>
<path d="M3364 4999 c-21 -23 -12 -47 23 -60 28 -10 63 15 63 45 0 40 -55 49
-86 15z m66 1 c12 -7 12 -13 4 -27 -14 -23 -41 -28 -60 -12 -13 10 -12 14 2
30 19 21 32 23 54 9z"/>
<path d="M3395 4980 c-3 -5 -1 -10 4 -10 6 0 11 5 11 10 0 6 -2 10 -4 10 -3 0
-8 -4 -11 -10z"/>
<path d="M2564 4929 c-3 -6 -1 -16 4 -21 13 -13 45 8 36 23 -7 12 -31 11 -40
-2z m26 -9 c0 -5 -2 -10 -4 -10 -3 0 -8 5 -11 10 -3 6 -1 10 4 10 6 0 11 -4
11 -10z"/>
<path d="M3501 4926 c-7 -8 -102 -72 -211 -142 -110 -70 -198 -130 -196 -132
14 -13 270 153 426 275 8 7 10 13 4 13 -6 0 -17 -6 -23 -14z"/>
<path d="M3284 4889 c-9 -15 12 -33 30 -26 9 4 16 13 16 22 0 17 -35 21 -46 4z
m36 -9 c0 -5 -4 -10 -10 -10 -5 0 -10 5 -10 10 0 6 5 10 10 10 6 0 10 -4 10
-10z"/>
<path d="M3100 4775 c-9 -11 -10 -19 -3 -26 17 -17 48 -6 48 16 0 25 -28 31
-45 10z m40 -16 c0 -5 -7 -9 -15 -9 -15 0 -20 12 -9 23 8 8 24 -1 24 -14z"/>
<path d="M3041 4488 c0 -55 3 -99 9 -103 11 -7 12 49 0 140 -7 57 -7 56 -9
-37z"/>
<path d="M6795 5120 c3 -14 25 -101 49 -195 62 -241 61 -230 27 -254 l-28 -20
-12 67 c-20 111 -93 404 -98 398 -3 -3 4 -40 15 -83 31 -113 82 -349 82 -375
0 -12 -12 -33 -27 -46 l-28 -24 31 19 c17 10 48 32 68 50 l36 32 -15 78 c-21
109 -82 340 -95 361 -10 14 -10 13 -5 -8z"/>
<path d="M6911 5090 c0 -8 4 -24 9 -35 5 -13 9 -14 9 -5 0 8 -4 24 -9 35 -5
13 -9 14 -9 5z"/>
<path d="M6611 5064 c0 -11 3 -14 6 -6 3 7 2 16 -1 19 -3 4 -6 -2 -5 -13z"/>
<path d="M6985 5050 c18 -86 49 -193 52 -183 5 13 -28 141 -47 183 l-11 25 6
-25z"/>
<path d="M6626 5012 c5 -26 1 -39 -16 -57 -20 -22 -21 -25 -7 -66 8 -24 20
-68 27 -97 7 -29 14 -51 17 -49 2 3 -3 32 -11 65 -20 77 -20 79 6 77 24 -2 40
-48 78 -220 14 -66 18 -76 14 -37 -2 29 -17 97 -31 150 -28 105 -30 118 -19
144 5 11 0 24 -16 39 -13 13 -29 37 -35 54 l-13 30 6 -33z m39 -82 c0 -16 -6
-26 -19 -28 -25 -5 -39 12 -31 38 10 31 50 24 50 -10z"/>
<path d="M6941 4984 c0 -11 3 -14 6 -6 3 7 2 16 -1 19 -3 4 -6 -2 -5 -13z"/>
<path d="M7085 4980 c-11 -17 5 -32 21 -19 7 6 11 15 8 20 -7 12 -21 11 -29
-1z"/>
<path d="M6581 4964 c0 -11 3 -14 6 -6 3 7 2 16 -1 19 -3 4 -6 -2 -5 -13z"/>
<path d="M6951 4950 c0 -8 6 -37 13 -65 9 -30 14 -40 14 -25 0 28 -25 114 -27
90z"/>
<path d="M7105 4878 c-151 -131 -180 -158 -169 -158 13 0 211 171 231 200 20
29 16 26 -62 -42z"/>
<path d="M6332 4860 c0 -8 4 -26 8 -40 6 -20 8 -21 8 -5 0 11 -3 29 -8 40 -5
12 -8 14 -8 5z"/>
<path d="M6441 4854 c0 -11 3 -14 6 -6 3 7 2 16 -1 19 -3 4 -6 -2 -5 -13z"/>
<path d="M6981 4814 c0 -11 3 -14 6 -6 3 7 2 16 -1 19 -3 4 -6 -2 -5 -13z"/>
<path d="M6451 4804 c0 -11 3 -14 6 -6 3 7 2 16 -1 19 -3 4 -6 -2 -5 -13z"/>
<path d="M6515 4785 c4 -22 14 -69 20 -105 9 -43 13 -54 14 -33 0 17 -6 62
-15 100 -17 74 -32 103 -19 38z"/>
<path d="M6352 4770 c0 -14 2 -19 5 -12 2 6 2 18 0 25 -3 6 -5 1 -5 -13z"/>
<path d="M6461 4764 c0 -11 3 -14 6 -6 3 7 2 16 -1 19 -3 4 -6 -2 -5 -13z"/>
<path d="M6472 4720 c0 -14 2 -19 5 -12 2 6 2 18 0 25 -3 6 -5 1 -5 -13z"/>
<path d="M6651 4714 c0 -11 3 -14 6 -6 3 7 2 16 -1 19 -3 4 -6 -2 -5 -13z"/>
<path d="M6410 4690 c14 -11 34 -23 45 -26 13 -3 25 -21 35 -51 21 -64 44 -77
74 -40 l23 28 53 -21 c29 -11 55 -18 58 -16 5 5 -5 10 -81 37 -38 13 -39 13
-59 -14 -27 -37 -43 -23 -59 49 -7 32 -15 50 -20 43 -5 -9 -17 -6 -44 9 -45
27 -58 28 -25 2z"/>
<path d="M6662 4675 c0 -11 3 -29 8 -40 11 -25 11 1 0 35 -6 20 -8 21 -8 5z"/>
<path d="M3000 5050 c-30 -24 -19 -26 15 -4 36 24 75 11 76 -24 2 -24 2 -25 6
-4 10 50 -49 69 -97 32z"/>
<path d="M2902 5037 c-24 -25 -29 -76 -10 -95 7 -7 28 -11 48 -11 33 2 34 2 5
6 -39 6 -55 20 -55 48 0 27 29 55 59 55 12 0 19 4 16 10 -11 17 -41 11 -63
-13z"/>
<path d="M2991 4956 c-10 -12 -6 -13 24 -6 48 11 56 20 18 20 -17 0 -36 -6
-42 -14z"/>
<path d="M5163 4980 c2 -8 7 -15 12 -15 5 0 10 7 12 15 4 12 3 12 -5 1 -8 -11
-11 -11 -16 0 -4 10 -5 10 -3 -1z"/>
<path d="M5261 4953 c-19 -3 -44 -11 -55 -19 -11 -8 -27 -14 -36 -14 -8 0 -24
-12 -34 -27 -19 -26 -19 -26 3 -45 30 -23 53 -23 76 2 40 44 160 50 204 9 22
-21 23 -23 25 -78 1 -29 6 -36 28 -42 21 -5 34 -2 50 12 13 10 19 18 14 19 -5
0 -3 7 4 15 13 16 6 50 -9 41 -5 -4 -12 7 -16 24 -15 67 -139 117 -254 103z
m142 -29 c57 -19 97 -55 97 -88 0 -18 6 -26 23 -29 l22 -4 -23 -8 c-18 -6 -20
-10 -10 -16 18 -11 -4 -32 -28 -27 -14 2 -20 15 -24 50 -7 59 -29 83 -90 98
-55 13 -112 2 -153 -30 -30 -24 -50 -25 -67 -5 -9 10 -9 15 -1 15 6 0 11 7 11
16 0 14 3 14 15 4 10 -9 15 -9 15 -1 0 6 7 11 15 11 8 0 15 4 15 9 0 23 121
26 183 5z"/>
<path d="M5040 4922 c0 -12 19 -26 26 -19 2 2 -2 10 -11 17 -9 8 -15 8 -15 2z"/>
<path d="M5531 4915 c0 -33 50 -58 65 -33 5 8 2 9 -11 4 -14 -5 -24 0 -37 16
-10 13 -18 19 -17 13z"/>
<path d="M4995 4840 c-3 -5 -2 -10 4 -10 5 0 13 5 16 10 3 6 2 10 -4 10 -5 0
-13 -4 -16 -10z"/>
<path d="M5645 4830 c4 -6 11 -8 16 -5 14 9 11 15 -7 15 -8 0 -12 -5 -9 -10z"/>
<path d="M5000 4810 c0 -5 5 -10 11 -10 5 0 7 5 4 10 -3 6 -8 10 -11 10 -2 0
-4 -4 -4 -10z"/>
<path d="M5020 4779 c-9 -15 -8 -24 1 -35 26 -32 77 -4 64 36 -9 27 -51 27
-65 -1z m53 -3 c7 -18 -1 -26 -25 -26 -20 0 -25 26 -5 33 20 9 25 8 30 -7z"/>
<path d="M5184 4765 c-4 -8 -13 -15 -21 -15 -8 0 -11 -4 -8 -10 3 -5 12 -10
20 -10 18 0 47 29 40 41 -9 14 -25 11 -31 -6z"/>
<path d="M4870 4755 c-17 -20 -5 -45 20 -45 11 0 23 7 26 15 6 15 -11 45 -26
45 -4 0 -13 -7 -20 -15z m33 -26 c-17 -17 -37 -1 -22 17 8 10 15 12 23 4 7 -7
7 -13 -1 -21z"/>
<path d="M5100 4725 c-30 -56 40 -112 128 -102 46 5 87 34 74 53 -5 7 -24 8
-57 4 -50 -7 -37 -15 20 -11 29 1 29 1 11 -14 -25 -19 -99 -19 -136 0 -24 12
-30 22 -30 47 l0 32 20 -22 c12 -12 26 -22 33 -22 7 0 1 9 -12 19 -13 10 -21
23 -17 30 4 6 1 11 -7 11 -7 0 -20 -11 -27 -25z"/>
<path d="M5250 4721 c0 -10 7 -21 15 -25 8 -3 15 -1 15 4 0 6 -4 10 -10 10 -5
0 -10 5 -10 11 0 6 9 8 20 4 11 -4 20 -2 20 4 0 6 -11 11 -25 11 -18 0 -25 -5
-25 -19z"/>
<path d="M5445 4710 c-4 -6 -2 -17 4 -23 15 -15 25 -2 13 19 -7 12 -11 13 -17
4z"/>
<path d="M4960 4685 c0 -10 7 -15 17 -13 22 4 23 22 1 26 -11 2 -18 -3 -18
-13z"/>
<path d="M5343 4644 c-3 -8 2 -23 11 -32 20 -20 49 -6 54 27 3 18 -2 21 -28
21 -19 0 -33 -6 -37 -16z m57 -8 c0 -15 -24 -28 -34 -19 -13 14 -5 33 14 33
11 0 20 -6 20 -14z"/>
<path d="M5127 4576 c-4 -10 -2 -25 4 -33 15 -17 51 -13 57 7 5 13 3 13 -12 1
-19 -16 -32 -7 -38 24 -3 19 -4 19 -11 1z"/>
<path d="M5256 4582 c-2 -4 -1 -14 4 -22 7 -11 12 -12 21 -3 6 6 8 16 5 22 -8
13 -23 14 -30 3z"/>
<path d="M5232 4250 c-1 -49 2 -80 8 -80 6 0 10 33 10 80 0 104 -14 104 -18 0z"/>
<path d="M3823 4780 c-55 -22 -54 -91 1 -110 43 -14 81 -4 106 27 43 55 -31
113 -107 83z m95 -22 c17 -17 15 -44 -4 -62 -22 -23 -87 -21 -109 4 -17 18
-17 21 -1 45 13 20 25 25 59 25 24 0 48 -5 55 -12z"/>
<path d="M3834 4735 c-4 -9 -2 -21 3 -26 14 -14 45 1 41 20 -4 22 -37 26 -44
6z m34 -7 c-6 -18 -28 -21 -28 -4 0 9 7 16 16 16 9 0 14 -5 12 -12z"/>
<path d="M3564 4685 c-16 -24 -16 -27 1 -45 23 -25 67 -26 88 -2 22 24 21 35
-1 55 -28 25 -69 21 -88 -8z m74 3 c29 -29 -10 -68 -48 -48 -32 17 -18 60 20
60 9 0 21 -5 28 -12z"/>
<path d="M3378 4623 c-28 -33 -30 -44 -12 -64 24 -27 78 -25 98 3 20 29 20 34
-4 58 -25 25 -62 26 -82 3z m70 -5 c32 -32 -6 -76 -54 -64 -17 5 -24 13 -24
31 0 37 52 59 78 33z"/>
<path d="M3397 4593 c-9 -14 9 -27 23 -18 6 3 10 12 10 18 0 8 -3 7 -9 -2 -7
-11 -9 -11 -13 0 -3 9 -6 10 -11 2z"/>
<path d="M4040 4611 c-8 -17 -7 -24 10 -41 25 -25 32 -25 61 -1 20 16 22 23
13 38 -16 27 -70 29 -84 4z m65 -16 c0 -22 -31 -33 -47 -17 -17 17 -1 44 24
40 15 -2 23 -10 23 -23z"/>
<path d="M3872 4574 c-41 -29 -23 -84 28 -84 59 0 77 70 23 91 -30 11 -24 12
-51 -7z m66 -31 c4 -29 -30 -48 -58 -33 -11 6 -20 16 -20 23 0 40 73 49 78 10z"/>
<path d="M3643 4570 c-51 -21 -49 -81 4 -101 42 -16 103 14 103 51 0 37 -65
68 -107 50z m80 -28 c15 -16 15 -20 1 -40 -25 -37 -104 -23 -104 18 0 39 74
54 103 22z"/>
<path d="M4075 4480 c-60 -44 -131 -94 -157 -112 -27 -17 -46 -33 -43 -36 7
-7 220 137 276 187 24 22 42 40 39 41 -3 0 -55 -36 -115 -80z"/>
<path d="M3580 4360 c22 -14 142 -51 148 -45 3 2 -1 7 -9 9 -142 49 -170 56
-139 36z"/>
<path d="M3791 4143 c-1 -76 3 -123 9 -123 12 0 12 134 1 200 -7 35 -9 18 -10
-77z"/>
<path d="M6390 4288 c-71 -66 -219 -184 -292 -233 -59 -38 -77 -56 -36 -34
103 55 367 266 382 305 7 19 8 19 -54 -38z"/>
<path d="M5470 4199 c27 -22 278 -147 350 -174 87 -32 24 4 -120 69 -80 36
-167 80 -193 96 -55 34 -74 39 -37 9z"/>
<path d="M4366 4344 c-20 -19 -20 -38 -1 -54 30 -25 82 25 60 59 -9 16 -41 13
-59 -5z m44 -19 c0 -16 -27 -32 -37 -22 -3 4 -3 13 0 22 8 20 37 20 37 0z"/>
<path d="M4771 4301 c-8 -5 1 -8 25 -7 34 1 39 -2 42 -23 3 -15 -3 -30 -14
-38 -24 -18 -32 -16 -39 8 -4 11 -9 18 -11 16 -3 -2 0 -16 7 -29 14 -31 43
-27 66 9 32 48 -25 96 -76 64z"/>
<path d="M4586 4254 c-20 -20 -18 -43 7 -58 25 -16 52 4 52 40 0 35 -33 45
-59 18z m48 -3 c9 -14 -4 -41 -19 -41 -21 0 -28 19 -15 35 14 17 26 19 34 6z"/>
<path d="M4270 4238 c-46 -31 -65 -86 -46 -131 57 -138 293 -153 336 -22 16
47 -10 99 -68 140 -36 25 -55 30 -115 33 -63 3 -77 1 -107 -20z m206 -23 c141
-83 56 -233 -112 -196 -131 30 -176 148 -80 211 43 29 128 22 192 -15z"/>
<path d="M4332 4228 c-17 -17 -15 -35 8 -58 17 -17 19 -24 9 -43 -18 -33 -31
-38 -53 -19 -14 13 -18 13 -14 3 2 -8 11 -18 19 -22 92 -45 88 -44 104 -28 14
14 13 15 -14 11 -36 -5 -49 15 -31 48 10 18 18 21 45 16 24 -5 39 -1 56 13
l24 19 -23 25 c-12 13 -40 29 -61 36 -48 14 -54 14 -69 -1z m96 -28 c43 -27
36 -45 -16 -44 -46 1 -72 17 -72 45 0 26 45 25 88 -1z"/>
<path d="M7411 4233 c-48 -33 -46 -103 3 -103 39 0 74 56 56 90 -14 26 -35 31
-59 13z m47 -34 c3 -29 -29 -64 -53 -56 -20 8 -19 46 2 69 22 25 47 19 51 -13z"/>
<path d="M7380 4016 c-62 -20 -105 -127 -68 -164 19 -19 33 -14 15 6 -33 36
-10 110 43 137 40 21 57 19 85 -10 20 -19 25 -35 25 -71 0 -72 -20 -123 -70
-176 -36 -40 -53 -50 -87 -55 -35 -5 -45 -2 -65 19 l-24 23 -12 -49 c-24 -100
-92 -179 -168 -196 -72 -16 -104 19 -89 97 7 38 58 98 75 88 5 -3 10 -1 10 4
0 16 -22 13 -49 -5 -27 -19 -60 -88 -61 -125 0 -15 9 -38 21 -53 40 -51 141
-26 208 50 33 37 71 113 71 140 0 13 3 13 22 0 34 -24 71 -19 124 17 67 45
109 125 109 213 0 52 -4 67 -23 87 -30 32 -50 37 -92 23z"/>
<path d="M4020 4021 c0 -14 87 -82 153 -120 61 -35 179 -81 205 -81 9 1 -15
13 -55 29 -97 39 -198 95 -255 143 -27 21 -48 35 -48 29z"/>
<path d="M4443 3660 c0 -47 2 -66 4 -42 2 23 2 61 0 85 -2 23 -4 4 -4 -43z"/>
<path d="M2332 3948 c5 -15 27 -18 31 -3 1 5 -6 11 -17 13 -12 3 -17 -1 -14
-10z"/>
<path d="M2710 3700 c0 -5 5 -10 10 -10 6 0 10 5 10 10 0 6 -4 10 -10 10 -5 0
-10 -4 -10 -10z"/>
<path d="M2760 3386 c-27 -33 18 -72 48 -42 13 13 14 20 6 34 -15 23 -38 26
-54 8z m40 -21 c0 -19 -20 -29 -32 -17 -8 8 -7 16 2 26 14 17 30 12 30 -9z"/>
<path d="M5135 3989 c-117 -16 -233 -87 -276 -171 -26 -51 -25 -139 2 -195 40
-82 145 -133 273 -133 96 1 200 46 128 56 -57 9 -109 31 -138 61 -29 28 -34
41 -34 79 0 122 119 203 282 191 89 -7 100 3 48 46 -62 52 -181 80 -285 66z
m186 -35 c25 -8 60 -25 77 -38 l31 -23 -77 5 c-102 5 -173 -20 -232 -84 -34
-37 -44 -43 -56 -33 -10 8 -14 8 -14 0 0 -6 6 -14 13 -17 10 -4 13 -19 9 -56
-3 -36 0 -60 12 -82 19 -36 73 -74 117 -83 82 -16 -6 -39 -117 -30 -128 10
-226 99 -226 205 0 179 245 304 463 236z"/>
<path d="M4959 3824 c-9 -11 -10 -20 -2 -32 15 -24 54 -27 70 -6 16 21 17 34
3 34 -5 0 -10 -6 -10 -14 0 -16 -27 -29 -42 -20 -5 3 -7 17 -4 30 7 28 4 30
-15 8z"/>
<path d="M5480 3624 c-101 -102 -197 -180 -242 -198 -16 -6 -28 -14 -28 -18 0
-14 93 38 151 83 85 67 238 229 217 229 -2 0 -46 -43 -98 -96z"/>
<path d="M4715 3600 c39 -41 177 -133 246 -163 104 -46 103 -37 -1 18 -58 30
-143 82 -190 116 -59 43 -76 51 -55 29z"/>
<path d="M5153 3285 c0 -33 2 -45 4 -27 2 18 2 45 0 60 -2 15 -4 0 -4 -33z"/>
<path d="M3520 3472 c0 -5 17 -27 38 -49 39 -41 34 -31 -11 25 -15 19 -27 29
-27 24z"/>
<path d="M3949 3283 c-29 -47 -36 -65 -14 -38 19 23 48 75 41 75 -2 0 -15 -17
-27 -37z"/>
<path d="M6284 3345 c-28 -19 -36 -52 -17 -70 20 -21 30 -19 59 10 23 24 25
28 12 47 -19 29 -29 31 -54 13z m42 -20 c4 -8 1 -22 -6 -30 -18 -21 -50 -19
-50 3 0 36 45 57 56 27z"/>
<path d="M4046 2961 c-4 -5 -2 -12 3 -15 5 -4 12 -2 15 3 4 5 2 12 -3 15 -5 4
-12 2 -15 -3z"/>
<path d="M6248 2855 c-12 -27 2 -55 28 -55 22 0 44 41 33 62 -14 26 -47 23
-61 -7z m49 -1 c7 -20 -11 -38 -32 -30 -13 4 -14 10 -5 26 13 24 28 26 37 4z"/>
<path d="M5781 2784 c-25 -18 -29 -69 -5 -78 33 -13 71 28 59 64 -8 26 -29 31
-54 14z m37 -32 c4 -25 -23 -41 -40 -24 -7 7 -6 17 2 32 14 26 34 22 38 -8z"/>
<path d="M4445 2750 c-9 -15 14 -40 31 -33 22 8 18 43 -5 43 -11 0 -23 -5 -26
-10z"/>
<path d="M3843 2738 c2 -7 7 -13 12 -13 5 0 10 6 13 13 2 6 -4 12 -13 12 -9 0
-15 -6 -12 -12z"/>
<path d="M5280 2590 c-27 -27 -27 -77 1 -85 41 -13 79 47 52 84 -18 26 -28 26
-53 1z m48 -24 c5 -22 -16 -46 -39 -46 -24 0 -25 32 -3 55 19 19 38 15 42 -9z"/>
<path d="M4458 2583 c7 -3 16 -2 19 1 4 3 -2 6 -13 5 -11 0 -14 -3 -6 -6z"/>
<path d="M5070 2045 c0 -9 5 -15 10 -13 12 4 11 16 -1 24 -5 3 -9 -2 -9 -11z"/>
<path d="M7576 3268 c-14 -8 -16 -17 -11 -45 6 -33 5 -34 -17 -27 -37 12 -50
10 -61 -8 -16 -24 7 -46 61 -60 26 -6 62 -26 83 -45 28 -25 44 -33 59 -28 28
9 25 28 -14 79 -18 25 -36 61 -40 85 -7 45 -31 65 -60 49z m31 -20 c6 -7 13
-30 17 -51 4 -20 20 -53 36 -71 51 -57 31 -79 -25 -27 -16 16 -54 36 -82 46
-33 10 -53 22 -53 32 0 11 7 13 33 8 17 -4 37 -8 42 -9 6 0 9 17 7 42 -4 42 6
53 25 30z"/>
<path d="M7423 3134 c-17 -9 -39 -25 -49 -35 -17 -19 -15 -22 61 -99 81 -81
102 -92 125 -65 10 13 9 19 -6 36 l-19 21 41 -6 c34 -6 43 -4 48 10 9 23 -10
42 -54 55 -30 9 -39 18 -44 40 -3 18 -16 34 -35 44 -36 18 -29 18 -68 -1z m72
-29 c14 -13 25 -32 25 -43 0 -13 11 -21 42 -28 64 -14 63 -37 -2 -28 -51 7
-52 6 -41 -14 6 -11 16 -24 22 -27 7 -5 6 -12 -2 -21 -11 -13 -24 -4 -86 58
-40 40 -73 76 -73 80 0 11 61 48 78 48 7 0 24 -11 37 -25z"/>
<path d="M7432 3088 c-9 -9 -8 -16 5 -30 20 -22 39 -23 47 -2 12 32 -27 57
-52 32z m38 -18 c0 -5 -7 -10 -15 -10 -8 0 -15 5 -15 10 0 6 7 10 15 10 8 0
15 -4 15 -10z"/>
<path d="M7295 3025 c-19 -20 -35 -39 -35 -43 0 -13 146 -162 158 -162 13 0
82 64 82 77 0 5 -6 17 -13 27 -13 17 -15 18 -39 2 -29 -19 -42 -12 -27 16 15
29 -6 51 -43 43 -31 -7 -34 -4 -16 24 13 22 4 51 -16 51 -9 0 -31 -16 -51 -35z
m59 6 c3 -5 -1 -14 -9 -21 -33 -27 -2 -71 34 -48 26 16 36 6 21 -22 -10 -18
-9 -25 3 -38 14 -14 18 -13 41 1 38 25 44 0 8 -35 -36 -36 -41 -34 -122 55
l-53 58 28 29 c30 31 40 36 49 21z"/>
<path d="M7177 2920 c-44 -42 -50 -52 -41 -67 8 -11 22 -17 40 -16 21 2 40 -9
81 -48 54 -51 77 -58 97 -27 9 15 1 27 -47 76 -54 54 -56 59 -40 75 16 15 16
18 -2 37 -10 11 -22 20 -27 20 -5 0 -33 -22 -61 -50z m76 24 c3 -4 0 -16 -8
-28 -14 -19 -11 -24 42 -78 45 -45 55 -60 45 -70 -10 -10 -24 -1 -66 41 -48
48 -57 52 -85 46 -45 -10 -40 12 11 57 45 39 51 42 61 32z"/>
<path d="M7586 2835 c-3 -9 -3 -27 0 -40 5 -22 4 -23 -35 -18 -32 4 -42 2 -47
-11 -9 -23 21 -53 64 -63 32 -8 37 -13 47 -52 11 -48 32 -68 60 -57 13 5 16
15 13 41 l-4 36 39 -3 c73 -4 69 51 -5 70 -40 10 -44 15 -58 59 -12 40 -20 49
-41 51 -17 2 -29 -3 -33 -13z m60 -51 c7 -41 17 -49 72 -64 55 -14 50 -35 -8
-35 -43 0 -43 0 -44 -35 -1 -53 -20 -51 -33 4 -7 26 -13 49 -15 51 -2 1 -23 8
-48 16 -27 8 -45 20 -45 29 0 16 2 16 54 5 l34 -7 -7 36 c-4 20 -4 41 -1 47
11 17 34 -10 41 -47z"/>
<path d="M7069 2830 c-9 -5 -22 -23 -29 -40 -10 -25 -10 -34 4 -55 21 -32 57
-46 96 -39 34 7 42 -10 9 -19 -33 -9 -22 -51 15 -55 60 -7 105 43 85 95 -15
39 -38 52 -93 53 l-48 0 23 19 c20 16 21 21 10 35 -15 18 -47 20 -72 6z m61
-19 c0 -5 -9 -11 -21 -14 -13 -4 -20 -12 -17 -24 2 -14 14 -19 58 -21 32 -2
62 -10 72 -19 35 -31 15 -81 -39 -97 -31 -10 -40 13 -13 34 15 12 21 23 17 35
-6 13 -15 15 -46 10 -69 -11 -109 31 -77 80 16 24 66 36 66 16z"/>
<path d="M6974 2735 c-4 -8 -3 -27 0 -41 6 -24 5 -25 -28 -19 -28 6 -36 3 -44
-12 -15 -27 -2 -42 53 -58 26 -8 65 -31 86 -50 33 -29 43 -34 59 -25 29 15 25
36 -15 83 -19 22 -35 48 -35 57 0 9 -5 31 -11 49 -8 23 -17 31 -35 31 -14 0
-27 -7 -30 -15z m55 -52 c8 -30 25 -61 47 -84 30 -30 33 -38 20 -48 -11 -10
-21 -6 -51 21 -21 18 -58 40 -83 49 -62 21 -68 42 -11 37 l44 -3 -3 38 c-5 57
23 49 37 -10z"/>
<path d="M7420 2694 c-22 -20 -40 -40 -40 -44 0 -17 30 -38 48 -33 24 6 82
-59 82 -91 0 -13 7 -29 15 -36 13 -11 20 -10 42 7 15 10 36 31 46 46 17 22 18
29 7 42 -7 8 -25 15 -40 15 -37 0 -97 65 -79 86 9 11 9 17 -1 29 -19 23 -36
18 -80 -21z m63 9 c4 -3 2 -12 -4 -19 -17 -20 65 -104 102 -104 37 0 36 -9 -5
-49 -35 -34 -64 -35 -47 -2 8 14 0 27 -39 66 -31 31 -54 46 -64 42 -31 -12
-29 17 4 45 36 29 43 32 53 21z"/>
<path d="M6840 2615 c-9 -11 -10 -25 -2 -55 11 -44 5 -48 -43 -30 -32 12 -65
-2 -65 -28 0 -9 32 -50 71 -90 52 -54 76 -72 92 -70 28 4 35 43 11 69 -15 16
-15 19 -2 19 9 0 21 7 28 15 10 12 15 12 35 -1 28 -18 65 -5 65 23 0 21 -141
163 -162 163 -9 0 -21 -7 -28 -15z m106 -69 c35 -36 64 -69 64 -75 0 -23 -23
-21 -49 3 -34 32 -41 33 -41 1 0 -21 -5 -25 -30 -25 -36 0 -37 -4 -5 -42 25
-29 25 -48 2 -48 -7 0 -43 31 -80 68 -55 55 -65 71 -55 80 11 8 26 8 61 -3 55
-16 65 -8 47 39 -15 39 -12 66 6 66 8 0 44 -29 80 -64z"/>
<path d="M7320 2605 c-10 -12 -11 -24 -2 -52 6 -21 10 -38 8 -40 -2 -2 -24 2
-49 9 -47 12 -77 2 -77 -26 0 -15 152 -166 166 -166 25 0 38 30 27 61 -9 24
-9 29 3 29 8 0 17 7 20 15 5 11 11 12 24 5 31 -16 58 -12 65 11 6 17 -7 36
-66 95 -75 75 -97 86 -119 59z m101 -62 c38 -36 69 -72 69 -79 0 -23 -21 -26
-43 -7 -39 35 -49 38 -45 12 2 -20 -2 -25 -24 -27 -34 -4 -35 -11 -7 -47 18
-22 20 -29 8 -36 -21 -13 -20 -14 -93 60 -58 58 -67 72 -57 85 11 13 17 13 46
0 37 -15 75 -19 75 -6 0 4 -5 24 -11 45 -10 37 -7 67 7 67 3 0 37 -30 75 -67z"/>
</g>
</svg>
