<?xml version="1.0" standalone="no"?>
<!DOCTYPE svg PUBLIC "-//W3C//DTD SVG 20010904//EN"
 "http://www.w3.org/TR/2001/REC-SVG-20010904/DTD/svg10.dtd">
<svg version="1.0" xmlns="http://www.w3.org/2000/svg"
 width="1024.000000pt" height="1024.000000pt" viewBox="0 0 1024.000000 1024.000000"
 preserveAspectRatio="xMidYMid meet">
<metadata>
Created by potrace 1.16, written by Peter Selinger 2001-2019
</metadata>
<g transform="translate(0.000000,1024.000000) scale(0.100000,-0.100000)"
fill="#000000" stroke="none">
<path d="M5752 9136 c-252 -30 -356 -46 -366 -56 -17 -17 -2 23 -393 -1030
-163 -437 -322 -867 -355 -955 -50 -133 -111 -301 -134 -364 -3 -9 -30 11 -83
63 -76 73 -125 103 -222 135 l-36 12 -74 -77 c-89 -91 -204 -184 -359 -289
-175 -119 -206 -144 -258 -208 -26 -33 -72 -76 -102 -97 -122 -83 -423 -249
-650 -358 -148 -71 -213 -113 -350 -221 -55 -45 -115 -88 -131 -97 -17 -8
-108 -34 -202 -58 -127 -32 -204 -58 -292 -99 -66 -30 -171 -76 -234 -102
-166 -68 -384 -170 -388 -182 -5 -14 110 -64 246 -107 135 -43 173 -64 266
-149 l69 -64 -51 -17 c-64 -21 -117 -63 -183 -144 -62 -76 -73 -83 -197 -130
-115 -44 -177 -78 -227 -126 -50 -47 -47 -62 13 -69 59 -7 133 -43 221 -107
161 -117 311 -212 370 -233 l65 -23 7 -124 c31 -593 29 -572 52 -595 12 -11
161 -101 331 -199 171 -98 316 -185 324 -192 12 -11 3 -19 -60 -48 -74 -35
-212 -76 -256 -76 -13 0 -27 -8 -30 -17 -9 -24 48 -68 132 -100 38 -15 74 -30
78 -34 13 -10 -37 -107 -83 -163 -36 -43 -39 -51 -27 -64 13 -12 26 -11 98 7
157 39 299 121 410 235 l56 57 244 -140 244 -140 -3 -68 c-7 -144 35 -364 94
-491 45 -98 56 -94 98 33 19 55 37 107 40 117 7 14 16 12 81 -18 89 -41 165
-55 165 -31 0 9 -9 31 -20 49 -31 54 -73 171 -58 165 7 -2 139 -78 293 -167
1183 -686 1247 -722 1268 -716 12 3 63 38 112 77 50 39 344 269 655 510 569
442 848 659 930 724 l44 36 12 -58 c6 -32 22 -80 35 -106 l24 -49 -45 -40
c-110 -101 -171 -160 -186 -183 -19 -29 -21 -84 -5 -123 15 -35 568 -575 612
-598 37 -19 118 -20 152 -3 12 7 148 118 302 248 154 130 366 308 470 396 234
197 283 241 302 279 19 37 19 96 -1 133 -14 28 -125 135 -411 398 -172 158
-205 182 -259 190 -60 9 -93 -8 -226 -119 -63 -53 -119 -96 -123 -96 -4 0 -18
7 -31 15 -32 21 -146 65 -169 65 -37 0 -59 -19 383 326 108 83 201 158 207
165 8 10 12 129 14 414 l2 400 64 62 c63 61 121 101 260 182 78 45 223 157
223 172 0 5 -29 9 -64 9 -45 0 -88 8 -138 26 -112 40 -144 60 -227 137 -42 40
-94 81 -114 92 -61 33 -72 28 213 100 l165 41 53 150 c44 125 58 154 87 179
38 33 43 45 20 45 -8 0 -15 7 -15 15 0 14 149 439 285 815 35 96 102 288 150
425 47 138 117 336 155 440 128 356 292 830 297 860 3 21 -1 35 -14 47 -10 9
-97 43 -193 77 -620 214 -1297 446 -1615 554 -203 69 -487 165 -630 215 -422
145 -811 272 -831 271 -10 -1 -178 -20 -372 -43z m728 -105 c179 -60 564 -191
855 -291 292 -100 699 -239 905 -310 813 -277 1120 -384 1120 -389 0 -3 -126
-37 -280 -75 -154 -38 -285 -73 -292 -78 -31 -19 42 -4 301 62 151 39 276 69
278 66 3 -3 -124 -380 -194 -571 -13 -38 -67 -190 -118 -337 -52 -148 -99
-276 -104 -285 -9 -16 -10 -14 -11 9 0 42 -48 185 -90 268 -20 41 -40 90 -44
109 -8 43 8 103 37 136 28 33 88 48 115 29 39 -27 32 -107 -7 -82 -27 17 -70
2 -77 -27 -19 -78 59 -134 132 -94 13 7 36 36 50 65 21 43 25 66 25 129 0 41
-3 80 -6 85 -3 4 -6 50 -6 100 -1 76 3 99 23 138 14 28 31 48 43 51 19 3 19 3
3 -16 -40 -45 -8 -105 42 -80 39 20 62 60 62 111 2 123 -122 145 -202 35 -41
-57 -71 -142 -77 -220 l-6 -66 -32 10 c-115 35 -229 -81 -256 -263 -14 -90 0
-158 57 -279 70 -147 82 -215 49 -285 -31 -65 -122 -109 -164 -79 -38 26 -21
90 29 105 10 3 11 6 2 12 -7 4 -24 -5 -43 -23 -38 -39 -37 -84 3 -114 36 -27
88 -16 138 29 89 80 92 179 12 352 -29 61 -57 137 -63 168 -20 110 25 260 96
323 55 48 133 53 174 12 18 -18 19 -16 23 78 4 78 10 109 32 157 30 65 66 108
110 131 72 38 134 -54 91 -137 -20 -38 -51 -56 -71 -39 -19 16 -18 29 8 56 17
18 19 26 10 35 -18 18 -61 -8 -86 -52 -22 -36 -25 -107 -17 -325 4 -91 -15
-152 -57 -185 -32 -25 -53 -25 -86 1 -50 39 -24 118 29 89 51 -27 76 41 34 94
-28 36 -85 36 -129 0 -77 -65 -83 -152 -19 -283 101 -209 112 -297 55 -456
-45 -124 -87 -178 -240 -307 -276 -234 -402 -401 -371 -497 10 -34 43 -46 66
-25 10 9 19 23 19 31 0 15 16 18 25 3 11 -18 -7 -79 -30 -104 -47 -51 -121
-42 -149 19 -34 70 -13 187 51 298 45 76 125 157 263 266 182 144 240 195 240
214 0 5 -15 -4 -32 -19 -92 -77 -203 -72 -243 12 -57 120 91 332 204 293 52
-18 67 -97 30 -159 -16 -26 -17 -31 -5 -20 51 41 58 130 16 175 -85 90 -253
-37 -276 -208 -14 -99 61 -177 157 -164 23 3 38 2 33 -2 -5 -4 -65 -53 -134
-108 -200 -160 -287 -265 -324 -392 -39 -132 -5 -241 79 -257 86 -16 166 99
125 177 -15 28 -28 23 -44 -16 -16 -38 -17 -38 -40 -29 -38 15 2 150 67 229
l25 30 21 -69 c25 -81 27 -169 6 -251 -17 -63 -61 -153 -98 -197 l-22 -27 -55
23 c-30 13 -60 33 -65 44 -20 38 -38 52 -65 52 -16 0 -30 -5 -32 -10 -2 -7
-21 -3 -49 9 l-47 21 39 107 c21 60 95 270 164 468 268 763 354 1009 480 1360
36 99 70 202 77 228 16 61 17 61 -145 117 -228 79 -660 232 -1122 397 -253 91
-599 214 -770 273 -291 102 -425 150 -989 350 -126 44 -236 84 -243 89 -7 4
107 21 254 39 148 17 282 33 298 35 98 12 120 7 445 -102z m-845 -53 c153 -56
773 -275 1315 -466 47 -16 236 -84 420 -150 332 -120 1138 -404 1298 -457 66
-23 82 -31 76 -44 -24 -60 -380 -1064 -585 -1654 l-184 -528 -29 5 c-16 4 -32
9 -35 12 -7 6 -2 19 606 1734 64 179 118 339 120 356 5 29 3 31 -54 52 -32 11
-355 127 -718 257 -363 130 -709 254 -770 277 -60 22 -159 57 -220 78 -60 21
-249 88 -420 150 -756 273 -1008 361 -1020 356 -12 -4 -135 -328 -470 -1241
-97 -264 -198 -538 -224 -610 -27 -71 -50 -135 -52 -141 -2 -6 -28 -37 -57
-69 l-53 -57 26 68 c26 68 285 764 435 1169 179 482 361 968 366 977 3 5 13 6
23 2 9 -3 102 -38 206 -76z m35 -123 c58 -21 106 -39 108 -41 2 -1 -20 -67
-48 -146 -29 -78 -80 -222 -115 -318 -35 -96 -149 -409 -255 -695 -105 -286
-212 -576 -237 -645 -25 -69 -48 -128 -52 -133 -11 -11 -123 61 -195 125 l-64
57 -41 -29 c-23 -17 -41 -29 -41 -27 0 2 147 402 326 888 179 486 337 916 350
954 13 39 26 75 29 82 3 9 21 6 67 -11 35 -13 110 -40 168 -61z m402 -146
c303 -109 1212 -435 1983 -711 308 -110 561 -201 562 -202 1 -1 -18 -56 -42
-121 -24 -66 -86 -241 -139 -390 -52 -148 -176 -502 -276 -785 -100 -283 -202
-573 -227 -645 -25 -71 -48 -135 -52 -142 -4 -8 -47 1 -146 31 -179 55 -281
97 -483 202 -204 106 -260 128 -378 154 -98 21 -126 33 -334 142 -156 82 -199
95 -369 108 -169 14 -314 42 -406 81 -76 32 -179 105 -302 213 -62 54 -109 83
-225 140 l-146 71 55 150 c57 155 239 646 336 910 86 230 262 722 287 800 26
81 28 85 41 85 5 0 123 -41 261 -91z m-1086 -1825 c32 -21 127 -71 211 -111
157 -76 207 -108 308 -201 173 -160 326 -218 646 -246 199 -18 232 -28 430
-136 125 -69 166 -85 275 -114 144 -37 227 -70 325 -127 171 -100 418 -196
699 -274 52 -14 179 -64 281 -110 102 -46 215 -92 250 -101 35 -9 70 -18 78
-20 14 -5 -177 -145 -359 -262 -141 -91 -200 -145 -200 -184 0 -29 -9 -35 -26
-18 -8 8 -30 -4 -74 -37 -35 -26 -71 -54 -80 -61 -14 -10 -28 -7 -83 19 -43
20 -68 38 -73 52 -14 49 -59 76 -277 173 -186 82 -231 98 -277 99 -41 2 -69
10 -108 32 -28 16 -79 43 -111 59 -40 19 -64 38 -72 56 -6 15 -35 50 -65 78
-86 81 -236 142 -386 156 -46 5 -88 18 -159 53 l-96 46 -11 69 c-6 38 -19 81
-30 95 -24 33 -138 93 -317 170 -240 102 -287 109 -378 51 l-47 -30 -58 30
c-31 16 -65 31 -74 34 -11 3 -19 20 -23 51 -9 56 -40 103 -81 124 -17 9 -39
29 -48 44 -19 33 -79 61 -116 54 -17 -4 -41 3 -70 19 -57 32 -151 64 -190 64
-28 0 -30 2 -30 41 0 22 -5 49 -10 60 -6 10 -7 19 -3 19 9 0 394 -179 823
-383 173 -82 410 -193 525 -247 202 -94 618 -292 1210 -578 443 -213 749 -358
768 -365 25 -9 21 8 -5 25 -34 21 -1791 868 -1802 868 -2 0 -69 31 -149 69
-80 38 -201 95 -268 127 -68 31 -171 79 -229 107 -258 122 -665 310 -763 353
-43 19 -88 34 -98 34 -31 0 -62 -19 -389 -233 -168 -110 -440 -287 -605 -392
-165 -105 -498 -319 -740 -475 -242 -155 -564 -362 -715 -458 -151 -96 -295
-188 -318 -204 l-44 -28 -81 76 c-121 114 -146 129 -288 174 -70 22 -149 49
-175 61 l-48 20 110 50 c60 28 177 79 259 113 83 35 195 84 250 109 66 30 156
60 262 86 190 47 232 67 345 159 119 99 194 145 443 270 254 128 463 245 551
308 34 24 85 72 112 107 38 47 83 85 174 147 208 141 340 244 421 329 l77 81
50 -19 c89 -34 136 -69 233 -172 54 -58 100 -98 106 -95 6 4 11 21 11 38 0 41
35 156 59 191 10 16 56 63 101 104 l82 74 57 -54 c32 -30 84 -72 117 -93z
m-441 -184 c-4 -17 -9 -29 -12 -26 -3 2 -2 19 2 36 4 17 9 29 12 26 3 -2 2
-19 -2 -36z m5 -165 l0 -55 -42 0 c-58 0 -132 -37 -313 -155 -262 -170 -275
-184 -295 -297 -10 -57 -16 -70 -40 -85 -16 -10 -60 -40 -100 -66 l-71 -49
-50 12 c-85 21 -130 5 -299 -103 -178 -114 -360 -248 -374 -275 -7 -15 -17
-46 -21 -69 -5 -31 -14 -47 -34 -60 -16 -10 -53 -35 -83 -55 l-55 -37 -58 15
c-47 13 -67 13 -109 4 -118 -28 -557 -294 -590 -359 -7 -14 -16 -47 -20 -72
-6 -40 -13 -51 -47 -74 -46 -30 -45 -30 -123 20 l-58 37 60 33 c88 49 314 192
872 550 272 175 576 370 675 433 99 63 230 146 290 185 150 96 723 471 810
529 38 27 71 48 73 48 1 0 2 -25 2 -55z m4180 -346 c-56 -156 -132 -369 -169
-474 -38 -104 -72 -200 -76 -212 -4 -16 -14 -23 -32 -23 -13 0 -23 3 -21 8 2
4 20 39 40 79 103 198 119 427 44 604 -6 13 21 41 112 118 66 55 137 120 159
145 21 24 39 43 41 42 1 -2 -43 -131 -98 -287z m-4109 261 c29 -6 83 -24 119
-41 l67 -30 -1 -42 c-1 -34 3 -43 24 -54 25 -14 105 -13 145 1 15 5 30 -2 58
-26 36 -32 37 -37 60 -164 l23 -131 -99 -74 c-144 -108 -212 -176 -223 -223
-8 -35 -20 -47 -97 -99 l-87 -60 -51 11 c-65 15 -114 15 -162 -2 -37 -14 -42
-12 -133 29 -52 23 -105 52 -117 63 -12 11 -71 47 -131 79 -60 32 -114 66
-120 75 -7 12 -4 57 13 162 23 141 38 193 57 189 5 -1 97 -43 205 -92 108 -49
246 -111 305 -136 127 -54 136 -61 110 -81 -11 -8 -15 -14 -9 -14 35 0 463
335 463 363 0 6 -13 -2 -29 -17 l-29 -28 -39 20 c-36 19 -428 194 -541 242
-51 22 -52 23 -32 37 20 14 35 9 198 -60 97 -42 233 -101 301 -131 68 -31 126
-54 128 -53 5 6 -189 95 -395 182 -101 42 -180 80 -177 84 28 28 112 37 196
21z m10 -195 c154 -69 292 -130 305 -136 32 -12 29 -20 -26 -62 l-44 -34 -76
32 c-41 18 -160 69 -265 113 -220 93 -305 132 -305 138 0 8 105 73 118 73 8 1
140 -55 293 -124z m282 112 c70 -30 70 -69 1 -80 -52 -9 -106 15 -102 45 2 12
14 28 28 35 31 16 34 16 73 0z m-263 -266 c107 -44 196 -84 198 -89 1 -4 -8
-14 -21 -21 -20 -11 -30 -10 -57 4 -19 10 -128 57 -244 105 -116 49 -249 106
-296 127 l-85 40 29 15 c27 14 33 13 155 -43 69 -32 214 -94 321 -138z m-404
107 c60 -28 203 -91 318 -139 116 -49 213 -92 218 -97 4 -4 -20 -29 -54 -55
-44 -34 -64 -44 -73 -37 -7 6 -73 37 -146 69 -74 32 -214 93 -312 136 -98 43
-176 81 -175 86 2 5 102 83 114 89 1 0 50 -23 110 -52z m4278 -113 c35 -138
29 -256 -20 -403 -23 -71 -82 -202 -90 -202 -9 0 -84 33 -84 37 0 2 11 19 25
37 31 41 73 133 91 199 21 79 17 154 -11 242 l-26 78 43 44 c23 23 45 40 49
35 4 -4 14 -34 23 -67z m-4379 2 c101 -46 260 -116 475 -209 l45 -19 -23 -19
c-23 -19 -24 -19 -70 4 -26 12 -172 78 -324 146 -153 67 -278 126 -278 131 0
11 33 29 45 24 6 -2 64 -28 130 -58z m1505 -72 c199 -86 328 -153 340 -175 8
-15 40 -223 44 -283 1 -13 -15 -23 -64 -40 -89 -30 -153 -70 -192 -118 -18
-23 -58 -67 -89 -99 -31 -31 -62 -73 -68 -93 -10 -31 -27 -45 -113 -96 -56
-34 -107 -61 -115 -61 -9 0 -13 18 -14 63 -1 74 -8 139 -16 147 -3 3 -3 -44 1
-103 l6 -109 -32 7 c-29 7 -68 23 -209 88 -52 24 -57 30 -63 66 -8 52 -65 102
-190 166 -88 46 -96 52 -91 75 2 14 10 57 16 95 10 56 14 66 21 50 5 -12 18
-26 28 -33 16 -10 15 -5 -5 25 -38 55 -33 77 33 142 81 79 332 265 456 338 67
39 130 29 316 -52z m-1963 -226 c32 -12 62 -25 66 -29 5 -4 -23 -13 -61 -20
-39 -6 -79 -18 -89 -26 -17 -13 -17 -15 -1 -27 14 -11 7 -15 -53 -31 -72 -18
-86 -35 -49 -58 18 -11 13 -15 -51 -30 -106 -26 -124 -49 -69 -89 l29 -22 -39
-30 c-45 -32 -53 -72 -22 -100 21 -19 145 -77 165 -77 7 0 32 16 56 36 l42 37
40 -19 c53 -23 73 -12 77 45 l3 42 30 -21 c54 -39 89 -7 89 85 0 49 1 51 28
50 l27 0 -1 98 c0 53 1 97 4 97 13 0 202 -104 215 -118 14 -15 29 -64 51 -162
5 -24 -5 -33 -113 -108 -131 -91 -205 -153 -223 -186 -7 -11 -19 -54 -27 -95
l-16 -75 -65 -44 c-118 -79 -152 -93 -217 -86 -79 8 -203 65 -203 93 0 44 -59
90 -214 167 -83 42 -152 77 -154 78 -5 6 39 260 48 277 14 24 63 61 250 187
291 194 324 206 447 161z m186 -52 c12 -31 19 -217 9 -217 -6 0 -14 5 -17 10
-3 6 -12 10 -19 10 -8 0 -16 -27 -22 -82 -5 -45 -14 -83 -19 -85 -6 -2 -20 4
-30 13 -11 8 -13 12 -5 8 13 -7 13 -5 1 9 -7 9 -24 17 -37 17 -22 0 -24 -4
-24 -42 0 -66 -10 -74 -59 -48 l-42 21 -41 -36 c-50 -46 -63 -37 -17 12 l34
37 -34 -25 -35 -26 -78 35 c-43 20 -78 38 -78 41 0 3 25 24 55 45 30 21 52 43
49 48 -3 4 -19 15 -36 24 -16 8 -27 19 -23 22 4 4 41 16 83 27 41 12 77 26 79
32 3 7 -11 16 -29 21 -37 10 -34 12 55 37 59 16 69 27 40 44 -15 8 -16 10 -3
15 11 4 185 38 231 45 4 1 9 -5 12 -12z m4282 -127 c10 -11 16 -22 14 -24 -7
-6 -69 24 -69 34 0 17 36 11 55 -10z m-1754 -59 c139 -36 261 -104 305 -170
25 -38 81 -280 70 -306 -2 -8 -71 -65 -153 -128 -81 -63 -156 -124 -166 -135
-10 -11 -23 -41 -30 -68 -11 -45 -17 -51 -105 -110 -81 -55 -97 -62 -118 -54
-14 6 -51 10 -82 10 -48 0 -71 8 -159 52 -90 45 -103 55 -109 82 -7 37 -44
106 -56 106 -4 0 -8 9 -8 19 0 22 -35 51 -60 51 -9 0 -27 11 -40 25 -19 21
-30 24 -57 19 -18 -3 -33 -2 -33 3 0 11 18 117 26 153 l5 24 21 -32 c11 -18
22 -31 25 -29 2 3 -5 20 -16 38 -29 47 -26 88 8 137 44 60 51 60 51 1 0 -68
28 -125 86 -179 143 -132 398 -154 597 -54 26 14 47 22 47 20 0 -7 -118 -90
-186 -131 -32 -19 -53 -35 -48 -35 18 0 160 85 225 135 79 62 214 189 241 230
12 16 -15 -4 -58 -46 -107 -102 -121 -111 -80 -50 110 163 53 311 -137 357
-115 29 -274 -6 -342 -73 -39 -39 -51 -92 -31 -132 34 -64 130 -96 201 -67 42
18 43 32 1 16 -126 -47 -244 73 -159 162 50 53 126 79 233 80 102 2 175 -26
228 -86 64 -74 48 -175 -43 -274 -97 -105 -226 -150 -398 -139 -157 9 -275 72
-329 176 -63 121 -13 231 144 316 l53 29 -34 -39 c-83 -95 -94 -203 -28 -273
54 -59 200 -101 300 -88 118 16 207 82 207 155 0 56 -57 101 -130 101 -30 0
-90 -43 -78 -55 4 -4 14 0 23 9 52 51 165 14 165 -55 0 -71 -107 -132 -230
-132 -131 0 -223 40 -260 113 -38 75 -20 143 57 218 111 109 275 146 444 103z
m-2976 -65 c16 -12 17 -15 4 -16 -8 0 -26 12 -40 26 -20 22 -21 25 -4 16 11
-6 29 -17 40 -26z m1193 -22 c100 -33 346 -159 387 -198 33 -31 46 -80 70
-256 l7 -45 -75 -48 c-41 -26 -80 -54 -87 -62 -7 -8 -23 -15 -36 -15 -28 0
-68 -36 -58 -51 9 -14 -14 -29 -46 -29 -39 0 -51 -13 -64 -71 -10 -44 -15 -54
-31 -51 -145 19 -153 16 -212 -80 l-38 -62 -6 100 -5 99 -2 -108 c-2 -117 -20
-174 -52 -161 -8 4 -42 14 -75 24 -108 31 -192 76 -248 132 -38 38 -80 67
-154 103 -66 31 -103 55 -103 65 0 15 45 281 55 328 9 36 72 99 175 172 122
88 298 196 358 220 67 27 148 25 240 -6z m-1184 -130 c42 -20 76 -42 76 -50 0
-19 1 -19 -85 23 -41 21 -75 43 -75 50 0 17 -3 18 84 -23z m4948 -123 l-38
-104 -184 -48 c-102 -27 -187 -48 -189 -49 -12 -1 32 38 87 78 50 35 75 46
109 48 59 4 120 39 160 94 106 142 113 139 55 -19z m-77 18 c-37 -38 -121 -87
-131 -76 -6 5 146 116 161 116 5 1 -9 -18 -30 -40z m-5557 -20 c77 -23 93 -39
39 -39 -39 0 -264 -48 -290 -62 -10 -5 -15 -13 -12 -18 3 -5 -17 -12 -44 -16
-65 -8 -91 -25 -72 -48 7 -9 21 -16 30 -17 9 0 -27 -10 -81 -23 -53 -12 -103
-28 -112 -35 -21 -17 -6 -45 35 -66 l30 -16 -45 -35 c-25 -19 -51 -44 -56 -55
-11 -20 -12 -20 -68 11 -52 28 -54 29 -27 5 17 -14 45 -32 63 -40 17 -9 32
-22 32 -30 0 -7 24 -27 53 -43 138 -78 151 -84 177 -78 15 3 31 1 36 -3 12
-12 126 -53 131 -48 2 3 -26 17 -62 33 -36 16 -65 31 -65 34 0 3 18 23 40 45
l40 39 58 -28 c78 -37 105 -33 114 19 4 22 7 61 7 87 l1 47 51 -35 c81 -54
102 -46 100 39 0 39 2 48 11 39 17 -17 26 -15 38 8 8 14 8 55 0 142 -6 66 -8
123 -6 125 3 3 84 -34 181 -83 197 -97 205 -104 224 -207 7 -34 14 -69 17 -78
3 -11 -28 -34 -108 -82 -136 -81 -279 -186 -303 -223 -9 -14 -26 -64 -38 -111
l-21 -85 -68 -34 c-38 -19 -73 -32 -78 -29 -6 4 -10 45 -11 93 0 48 -5 110 -9
137 -7 37 -8 14 -6 -82 2 -73 1 -133 -1 -133 -6 0 -476 296 -620 391 l-53 34
6 60 c8 84 23 146 39 171 27 42 438 296 534 330 51 19 86 17 169 -7z m4335
-79 c26 -78 114 -426 122 -481 6 -43 5 -48 -23 -67 -31 -23 -42 -20 -42 11 0
26 -76 364 -102 455 -35 119 -31 75 6 -69 28 -109 96 -417 96 -434 0 -3 -18
-17 -40 -31 -22 -15 -38 -29 -36 -31 5 -6 75 43 125 86 33 29 33 30 26 88 -8
67 -84 371 -114 457 -12 33 -19 62 -16 64 7 7 118 -39 127 -52 4 -6 8 -8 8 -3
0 4 17 -1 39 -12 26 -14 40 -29 45 -48 25 -107 75 -270 70 -230 -3 27 -19 92
-35 145 -16 53 -29 100 -29 104 0 9 200 -80 230 -102 18 -13 28 -41 46 -116
l23 -99 -42 -39 c-23 -21 -157 -131 -297 -244 l-255 -205 -6 74 -6 74 0 -79 0
-78 -51 -39 -51 -39 -73 29 c-63 25 -73 33 -80 59 -12 45 -64 82 -212 152
l-133 62 28 139 c28 137 44 187 57 174 10 -10 29 -115 21 -115 -3 0 -14 10
-22 23 -9 12 -16 17 -16 10 -1 -6 9 -20 22 -30 12 -10 27 -36 32 -58 11 -45
36 -56 65 -30 17 15 21 15 57 -8 21 -13 46 -26 55 -30 10 -3 20 -19 23 -34 4
-15 13 -43 20 -60 20 -44 58 -46 80 -3 9 17 17 30 19 30 1 0 30 -11 64 -25 70
-28 79 -30 64 -12 -5 6 -12 23 -15 37 -4 25 -4 25 -6 -2 l-1 -27 -42 19 c-58
27 -82 25 -96 -5 -13 -29 -37 -33 -51 -7 -5 9 -19 63 -32 120 -12 56 -24 100
-27 98 -2 -3 1 -28 7 -57 6 -28 9 -54 7 -57 -3 -2 -26 7 -52 22 -25 14 -52 26
-60 26 -7 0 -15 8 -17 18 -3 10 -5 6 -6 -11 -1 -21 -5 -28 -18 -25 -17 3 -20
11 -43 118 -6 30 -14 62 -16 71 -5 17 107 112 132 112 7 0 11 4 8 8 -5 9 44
44 52 37 7 -8 69 -255 90 -363 10 -49 19 -84 22 -77 6 18 -33 201 -72 338 -19
66 -33 119 -33 120 5 1 104 81 122 97 10 10 25 15 32 13 7 -3 13 1 13 9 0 32
114 96 165 92 27 -2 32 -8 48 -57z m-4219 15 c3 -8 8 -70 12 -138 7 -121 7
-122 -13 -104 -33 29 -39 21 -35 -48 5 -77 -2 -81 -75 -35 -26 17 -52 30 -59
30 -14 0 -24 -46 -24 -116 0 -29 -4 -55 -10 -59 -5 -3 -37 8 -70 25 l-62 31
-54 -42 c-30 -23 -57 -46 -60 -50 -11 -18 -50 -7 -137 38 -83 44 -108 65 -94
80 3 3 32 -11 64 -30 32 -19 77 -44 101 -56 l43 -22 49 43 c60 52 58 64 -3 14
-24 -20 -47 -36 -50 -36 -4 0 -49 24 -101 53 l-95 54 27 25 c15 14 39 33 55
43 15 9 27 21 27 26 0 4 -18 18 -40 30 -22 13 -40 26 -40 30 0 9 41 21 149 43
41 9 77 18 80 22 8 7 -28 34 -47 34 -7 0 -11 4 -7 9 3 6 37 13 75 17 74 7 92
16 64 32 -21 12 -15 14 106 36 222 41 216 41 224 21z m2411 -135 c-8 -24 10
-27 19 -4 5 13 9 14 21 4 12 -10 12 -16 4 -26 -6 -8 -15 -11 -20 -8 -5 3 -9 0
-9 -5 0 -20 39 -11 45 9 7 24 20 25 57 6 14 -8 43 -19 65 -26 21 -7 49 -19 62
-28 15 -9 50 -15 88 -16 65 -1 87 -14 76 -43 -6 -16 2 -17 29 -2 27 15 70 -3
62 -26 -3 -8 -12 -15 -19 -15 -8 0 -17 -5 -20 -10 -4 -7 2 -9 18 -5 19 5 29 0
46 -21 11 -15 21 -35 21 -45 0 -11 4 -27 9 -37 5 -9 19 -60 31 -112 12 -52 24
-100 26 -106 3 -6 -46 -47 -108 -92 -153 -109 -288 -220 -315 -261 -13 -19
-23 -46 -23 -62 0 -30 -22 -50 -99 -89 -71 -36 -111 -31 -241 28 -156 72 -200
99 -200 122 0 23 -56 90 -75 90 -23 0 -24 13 -5 105 10 50 21 106 24 127 l7
36 91 -50 c147 -81 250 -127 299 -134 39 -5 55 -1 125 34 43 22 88 50 99 62
11 12 47 41 80 63 132 89 275 210 275 232 -1 5 -11 -1 -23 -15 -12 -14 -31
-32 -41 -40 -18 -14 -18 -14 -6 7 11 18 12 24 1 37 -8 9 -18 16 -23 16 -6 0
-5 -7 2 -15 10 -12 10 -18 0 -30 -12 -14 -15 -14 -31 1 -16 15 -19 15 -19 2 0
-9 9 -22 21 -29 21 -14 20 -15 -17 -41 -34 -24 -40 -26 -54 -13 -9 8 -23 15
-31 15 -9 0 -5 -7 10 -19 l24 -18 -37 -28 c-28 -21 -39 -25 -50 -16 -10 9 -16
8 -26 -4 -10 -12 -10 -15 1 -15 7 0 -12 -22 -41 -49 l-55 -48 -14 28 c-7 16
-20 29 -29 29 -12 0 -11 -5 6 -23 28 -29 17 -46 -51 -82 -55 -29 -77 -32 -77
-10 0 19 -10 19 -24 -1 -10 -13 -23 -10 -104 31 -51 25 -92 50 -92 56 0 5 9
18 20 29 25 25 25 30 0 30 -12 0 -17 -5 -14 -13 2 -7 -2 -21 -9 -31 -13 -18
-16 -18 -65 10 -42 24 -51 33 -45 49 5 17 4 18 -11 6 -13 -11 -19 -11 -33 0
-9 8 -19 14 -22 14 -3 0 -6 8 -5 18 0 9 -3 17 -8 17 -4 0 -8 -5 -8 -12 0 -6
-12 0 -27 14 -16 14 -42 33 -60 43 -28 16 -30 21 -20 42 5 12 16 23 22 23 14
0 44 31 59 63 9 17 22 23 56 25 54 4 73 18 66 47 -7 26 11 43 99 100 33 21 77
50 98 64 22 14 53 25 73 25 18 0 29 3 23 7 -18 11 0 29 27 29 21 0 24 -4 19
-20z m2685 -85 c27 -14 85 -58 129 -99 101 -96 212 -152 341 -174 l44 -7 -59
-46 c-33 -25 -98 -68 -145 -94 -129 -74 -164 -100 -274 -204 -118 -112 -195
-155 -351 -196 -190 -51 -338 -116 -465 -206 -41 -30 -110 -75 -154 -102 -160
-98 -273 -198 -475 -422 -69 -77 -169 -185 -222 -241 -111 -117 -169 -195
-241 -325 -82 -151 -101 -174 -308 -379 -108 -107 -209 -216 -226 -242 -16
-27 -33 -48 -37 -48 -11 0 -58 106 -101 227 -41 120 -50 138 -119 242 -28 44
-64 103 -79 130 -41 76 -60 70 -108 -31 -43 -90 -61 -153 -110 -388 -18 -85
-36 -165 -41 -178 -9 -22 -10 -22 -41 -6 -153 77 -271 166 -453 344 -413 400
-398 387 -483 428 -44 22 -90 42 -102 45 l-22 6 21 29 c47 66 71 135 71 202 0
115 -47 157 -209 186 -82 14 -264 17 -349 5 -36 -5 -55 -4 -60 4 -13 21 -57
45 -83 45 -15 0 -32 7 -40 16 -19 23 -64 44 -96 44 -24 1 -37 14 -83 81 -30
44 -95 119 -145 167 -215 209 -379 225 -440 43 l-16 -49 -77 42 c-42 24 -107
59 -144 80 -81 45 -198 86 -333 116 -140 31 -232 58 -285 85 -25 13 -126 80
-225 150 -142 99 -194 130 -247 146 -38 12 -68 22 -68 24 0 2 30 23 68 48 37
25 114 62 172 83 110 40 124 50 250 188 46 50 126 96 169 96 14 0 106 -54 223
-130 447 -293 1170 -739 1478 -912 361 -202 670 -369 1020 -553 124 -65 323
-171 443 -237 121 -66 234 -126 252 -134 l34 -14 143 108 c156 118 486 369
613 467 44 34 157 120 250 191 390 298 631 487 1104 866 218 174 448 359 511
412 63 52 119 96 123 96 4 0 30 -11 57 -25z m-3042 -113 c17 -12 4 -42 -18
-42 -49 0 -65 24 -27 40 28 11 29 11 45 2z m-1232 -67 c114 -45 291 -131 325
-158 34 -26 51 -70 79 -205 l29 -141 -98 -98 c-54 -54 -125 -117 -158 -141
-33 -23 -69 -60 -81 -81 -23 -41 -84 -85 -166 -122 -62 -27 -83 -24 -264 45
-112 43 -182 78 -327 168 -134 81 -184 117 -180 128 2 8 16 70 29 137 31 149
43 180 90 221 83 73 381 258 476 296 38 15 132 -4 246 -49z m1104 -19 c0 -22
-29 -41 -42 -28 -8 8 -8 15 2 27 16 19 40 20 40 1z m-85 -127 c57 -21 115 -69
115 -96 0 -13 -9 -15 -52 -10 -75 9 -144 36 -189 75 -21 18 -39 29 -39 24 0
-20 70 -71 127 -92 32 -12 80 -23 106 -23 42 -2 47 -4 43 -22 -3 -10 -13 -63
-22 -117 -16 -89 -20 -98 -39 -98 -12 0 -40 -12 -61 -26 -34 -23 -45 -26 -94
-20 -69 8 -192 67 -219 105 l-20 28 75 124 c42 68 85 134 97 147 27 29 96 30
172 1z m1503 -53 c99 -35 459 -206 486 -231 23 -21 34 -63 52 -195 l6 -45 -78
-62 c-44 -33 -180 -140 -304 -237 l-225 -176 -5 73 c-5 67 -6 69 -14 35 -4
-21 -6 -56 -4 -79 4 -41 3 -42 -67 -95 l-72 -54 -119 56 c-96 45 -123 62 -133
85 -14 33 -144 124 -237 165 -32 15 -60 28 -62 30 -6 4 38 285 48 303 13 26
88 92 221 195 108 84 114 87 120 65 4 -13 16 -48 28 -78 12 -30 18 -57 14 -61
-4 -4 -42 -32 -84 -63 -143 -106 -137 -113 72 -101 l153 9 27 -30 c14 -16 51
-59 80 -94 30 -35 60 -66 67 -69 7 -2 19 12 28 35 49 123 79 183 93 187 9 2
68 16 131 31 117 28 150 39 150 54 0 9 -83 48 -175 82 -33 12 -65 26 -71 31
-7 5 -15 39 -19 75 -4 37 -11 78 -16 91 -12 30 -27 26 -147 -45 l-94 -55 -109
17 c-60 10 -109 19 -109 20 0 8 196 130 227 141 52 18 64 17 141 -10z m85
-162 l12 -88 109 -43 c60 -23 113 -46 117 -50 5 -5 -50 -21 -121 -37 -72 -16
-135 -35 -141 -42 -6 -8 -28 -55 -49 -106 -21 -51 -41 -93 -43 -93 -2 0 -39
42 -82 93 -88 105 -65 98 -270 82 -60 -4 -111 -7 -113 -5 -1 1 38 33 88 71 49
38 90 75 90 82 0 7 -11 40 -25 74 -14 34 -23 63 -21 65 2 2 44 -3 92 -11 49
-9 98 -16 110 -16 12 0 68 27 124 60 57 33 106 58 108 56 2 -3 9 -44 15 -92z
m-1969 5 c22 -17 26 -27 21 -49 -14 -66 122 -156 252 -167 63 -5 75 -3 99 16
59 47 163 13 179 -59 13 -61 -31 -133 -91 -149 -24 -6 -30 -14 -34 -47 -10
-70 -81 -147 -180 -193 -50 -23 -66 -26 -170 -25 -97 0 -128 4 -195 27 -95 31
-181 83 -214 128 -33 44 -39 114 -15 165 19 40 126 153 179 189 16 11 57 32
90 47 33 15 61 31 63 37 2 5 -6 19 -18 31 -16 16 -29 20 -48 15 -36 -8 -65
-43 -58 -71 6 -24 -16 -50 -34 -39 -5 3 -10 20 -10 36 0 96 114 163 184 108z
m-45 -62 c8 -11 3 -17 -25 -30 -19 -9 -39 -17 -44 -17 -15 0 -12 21 7 42 19
21 46 23 62 5z m3679 -354 c-1 -137 -5 -308 -8 -380 l-5 -133 -240 -186 c-132
-103 -273 -214 -313 -246 -68 -55 -77 -59 -135 -63 -66 -4 -129 -23 -170 -50
-42 -27 -38 -3 13 84 27 46 77 149 111 228 90 209 156 302 226 319 40 10 58
-7 61 -59 4 -68 -47 -157 -90 -157 -10 0 -23 10 -28 23 -9 21 -9 21 -9 -4 -1
-24 14 -39 39 -39 19 0 74 57 91 95 10 22 19 59 19 83 0 108 -106 108 -192 -1
-48 -62 -65 -94 -143 -272 -59 -137 -139 -285 -153 -285 -16 1 -84 28 -94 38
-9 9 -7 29 5 81 26 106 18 171 -21 186 -21 8 -63 -24 -83 -63 l-16 -31 -22 22
c-28 30 -27 35 14 92 60 86 147 126 205 95 37 -20 52 -125 29 -215 -22 -88 -1
-67 40 40 23 61 60 157 82 215 87 224 207 360 319 360 45 0 85 -44 105 -114
22 -74 61 -119 103 -119 77 0 146 100 112 164 -6 10 -15 19 -21 19 -6 0 -4 -9
4 -21 16 -22 9 -78 -14 -105 -20 -24 -68 -46 -88 -39 -31 10 -58 48 -75 106
-18 63 -59 114 -100 125 -132 33 -286 -144 -397 -456 -23 -66 -35 -87 -37 -70
-7 67 -14 90 -37 114 -63 68 -209 -2 -266 -127 l-12 -26 -51 36 c-28 19 -52
36 -54 37 -1 2 44 39 100 83 373 289 498 387 698 547 199 159 235 183 310 213
47 18 108 48 135 67 28 19 51 35 53 35 1 1 2 -110 0 -246z m-348 75 c-41 -34
-602 -474 -775 -607 -87 -68 -168 -127 -180 -131 -11 -4 -43 -30 -71 -57 -29
-27 -92 -81 -140 -119 -264 -208 -272 -210 -92 -19 62 67 162 176 223 244 147
165 307 308 435 392 58 38 135 91 171 117 82 60 225 132 344 171 106 36 118
37 85 9z m-3678 -67 c-6 -60 14 -104 67 -154 98 -91 240 -142 402 -142 l107 0
-42 -27 c-64 -43 -35 -33 61 21 174 97 234 154 248 233 5 25 14 39 27 44 11 3
20 4 22 2 1 -1 9 -41 19 -88 9 -47 20 -94 23 -106 4 -17 -9 -31 -73 -79 -43
-32 -110 -91 -150 -129 -57 -57 -74 -81 -85 -118 -11 -43 -19 -52 -78 -91 -36
-24 -79 -51 -96 -60 l-31 -16 -199 106 c-324 173 -409 221 -407 231 1 5 14 74
28 152 14 79 32 152 41 164 13 20 103 94 114 95 3 1 4 -17 2 -38z m-2034 -51
c163 -40 212 -60 385 -152 l147 -80 0 -36 c0 -21 7 -58 15 -84 7 -26 10 -50 6
-52 -4 -3 -57 22 -117 56 -317 178 -416 232 -491 271 -78 40 -83 44 -83 75 0
17 4 32 9 32 4 0 62 -13 129 -30z m107 -185 c254 -144 382 -214 408 -226 15
-7 27 -16 27 -21 0 -5 -12 -49 -27 -98 l-28 -90 -70 0 c-81 0 -206 17 -218 29
-4 4 6 14 23 21 94 39 101 163 14 239 -76 67 -174 61 -243 -14 -44 -48 -56
-88 -49 -168 8 -98 92 -182 228 -228 54 -18 88 -22 200 -23 134 0 135 0 157
-27 13 -15 44 -35 68 -46 39 -15 45 -21 40 -40 -3 -13 1 -39 10 -59 8 -20 15
-40 15 -44 0 -3 -18 -21 -40 -39 l-40 -32 -83 49 c-45 27 -197 116 -337 197
-140 80 -258 150 -262 153 -6 6 -13 112 -34 486 l-7 118 69 -37 c38 -21 119
-66 179 -100z m657 115 c105 -40 222 -144 340 -305 52 -70 57 -80 39 -83 -22
-4 -138 41 -236 90 -142 70 -265 193 -265 264 0 58 34 67 122 34z m2704 -51
c110 -39 179 -73 269 -136 78 -54 98 -91 76 -141 -10 -25 -10 -26 4 -8 8 11
16 18 18 15 2 -2 13 -51 25 -109 l21 -105 -27 -22 c-95 -75 -562 -429 -582
-441 -25 -14 -34 -10 -257 111 -127 69 -263 142 -303 163 -63 32 -71 39 -66
59 3 12 13 69 21 126 9 57 21 116 27 131 25 66 265 265 433 359 98 55 180 55
341 -2z m-2815 -75 c57 -93 232 -210 394 -265 39 -13 71 -24 73 -25 1 0 -7
-22 -18 -47 -23 -52 -29 -54 -110 -33 -30 8 -56 13 -58 11 -6 -5 91 -35 115
-35 16 0 23 -6 23 -19 0 -16 -9 -21 -47 -26 -77 -10 -83 -14 -15 -11 l62 2 0
-30 c0 -17 3 -40 6 -51 4 -17 -5 -24 -66 -48 -112 -43 -195 -59 -285 -55 -133
7 -205 60 -205 152 0 42 50 236 60 236 3 0 12 -16 19 -36 25 -68 23 -25 -3 63
-14 48 -28 104 -31 124 -8 45 10 144 32 178 l17 26 8 -39 c5 -22 18 -54 29
-72z m-446 -134 c39 -24 75 -84 75 -124 0 -65 -70 -124 -131 -111 -30 7 -79
57 -79 81 0 17 44 64 60 64 6 0 22 -11 35 -25 14 -13 25 -20 25 -15 0 20 -41
50 -68 50 -37 0 -65 -31 -65 -71 0 -93 146 -159 353 -159 l75 0 2 -49 c1 -47
0 -49 -29 -55 -77 -15 -233 1 -321 34 -151 57 -222 201 -157 320 47 85 143
111 225 60z m1072 -163 c15 -13 43 -27 62 -31 19 -3 43 -13 52 -22 17 -16 17
-18 -14 -38 -47 -31 -87 -118 -90 -194 -1 -34 -6 -62 -11 -62 -5 0 -41 19 -79
42 -97 59 -116 110 -82 225 27 92 102 129 162 80z m607 -102 c66 -17 116 -44
116 -61 0 -40 -112 -70 -220 -59 -36 4 -102 18 -147 31 -87 25 -227 84 -219
92 3 2 40 8 83 12 108 12 316 3 387 -15z m-379 -70 c190 -87 421 -104 498 -37
16 14 17 12 17 -31 0 -58 -25 -126 -72 -194 -32 -47 -36 -60 -42 -145 -8 -113
-28 -179 -68 -224 -26 -29 -36 -34 -75 -34 -121 0 -285 156 -397 377 -42 85
-58 157 -44 209 7 24 15 44 18 44 4 0 19 -14 36 -31 16 -17 43 -37 59 -46 24
-12 22 -7 -14 24 -25 21 -54 45 -64 54 -17 13 -18 19 -7 40 7 13 19 32 28 42
13 15 17 15 31 3 9 -9 52 -31 96 -51z m3525 -64 c13 -26 12 -75 -3 -134 l-12
-48 -38 52 c-42 56 -43 76 -6 122 24 32 44 34 59 8z m-314 -11 c6 0 14 -17 18
-39 8 -49 78 -130 159 -182 32 -21 63 -39 69 -41 7 -3 4 -16 -7 -38 -21 -42
-95 -143 -101 -138 -2 2 2 20 8 40 21 69 -30 110 -109 89 -127 -34 -215 -189
-163 -285 40 -75 139 -75 259 2 52 32 211 187 211 204 0 4 4 8 9 8 5 0 1 -21
-9 -47 -11 -27 -22 -64 -25 -83 -4 -28 -17 -44 -63 -80 -72 -56 -392 -306
-537 -420 -60 -48 -252 -196 -425 -330 -173 -134 -406 -315 -517 -402 -110
-87 -204 -158 -207 -158 -3 0 -6 253 -6 563 0 591 -8 913 -21 842 -8 -40 -3
-1132 6 -1302 2 -51 2 -93 -1 -93 -7 0 -233 129 -799 457 -77 45 -279 162
-449 260 -351 203 -318 168 -336 346 -6 62 -15 136 -20 166 -6 30 -8 56 -6 58
6 6 56 -20 56 -29 0 -23 75 -206 108 -261 86 -148 219 -242 410 -292 31 -9
118 -22 192 -30 146 -17 190 -27 233 -57 32 -23 39 -55 8 -38 -45 23 -71 8
-71 -43 0 -68 99 -138 169 -121 45 12 81 62 81 116 0 86 -57 163 -155 209 -54
25 -57 28 -29 29 44 0 175 -35 225 -61 68 -34 163 -135 182 -193 20 -58 21
-95 5 -131 -15 -34 -53 -30 -82 8 -17 24 -19 32 -9 58 16 42 7 59 -32 59 -40
0 -55 -17 -62 -69 -8 -62 33 -142 91 -176 127 -75 237 28 223 209 -9 120 -37
178 -140 286 -35 36 -43 48 -24 36 21 -13 32 -15 42 -6 10 9 25 3 63 -24 27
-20 52 -36 56 -36 18 0 -1 19 -53 54 l-59 38 14 52 c7 28 29 125 48 216 19 91
44 190 54 220 26 71 65 160 72 160 3 0 18 -26 34 -57 15 -32 52 -94 81 -138
66 -101 64 -98 110 -233 l38 -112 -39 -36 c-40 -36 -32 -37 19 -1 16 10 30 18
31 16 2 -2 18 -30 36 -61 17 -32 35 -58 40 -58 4 0 24 28 45 63 25 41 97 120
214 235 l176 173 6 -37 c15 -88 103 -109 167 -39 39 42 40 51 6 59 -20 5 -25
12 -22 33 4 37 49 69 76 54 83 -45 16 -293 -114 -424 -150 -151 -305 -125
-323 55 -5 50 -8 58 -15 40 -12 -35 2 -106 27 -143 36 -53 71 -73 125 -72 163
2 352 243 352 448 0 76 -11 102 -46 115 -34 13 -77 -10 -94 -49 -15 -36 -7
-61 20 -68 26 -7 25 -17 -2 -43 -46 -43 -108 -38 -133 10 -23 44 -18 73 19
121 18 24 47 67 65 95 27 45 38 53 87 69 69 22 118 15 155 -21 131 -125 3
-500 -234 -692 -102 -82 -206 -126 -273 -115 -20 3 -47 18 -64 36 l-30 31 0
-35 c0 -134 -129 -338 -251 -397 -58 -28 -91 -28 -124 0 -37 33 -47 88 -30
171 40 192 194 310 245 187 15 -37 8 -115 -16 -162 -55 -110 -148 -119 -124
-13 10 43 33 67 58 58 10 -4 13 -2 8 5 -22 35 -76 -17 -83 -81 -8 -69 35 -97
95 -61 43 26 110 114 132 171 28 76 43 187 36 262 -11 105 -22 99 -18 -9 3
-72 -1 -119 -13 -172 -16 -65 -49 -148 -59 -148 -2 0 0 19 6 43 30 131 -52
217 -150 157 -41 -25 -103 -121 -126 -194 -26 -81 -19 -186 13 -220 56 -59
145 -39 244 54 86 81 145 185 171 301 l6 27 42 -21 c40 -20 43 -20 107 -4 95
25 164 70 266 172 105 105 163 197 207 328 54 161 37 290 -45 351 -34 25 -118
27 -165 2 -17 -9 -32 -14 -32 -11 0 21 83 143 107 157 35 20 172 121 272 201
54 43 80 57 95 53 12 -3 26 -6 32 -6z m99 -12 c22 -10 25 -17 25 -57 l-1 -46
-29 33 c-17 18 -30 43 -30 57 0 29 0 29 35 13z m-3693 -34 c17 -16 15 -20 -45
-84 -34 -37 -100 -129 -147 -206 -107 -174 -233 -308 -348 -368 -70 -36 -202
-86 -229 -86 -8 0 -2 17 17 47 34 54 73 150 65 163 -3 5 -22 14 -43 20 -20 7
-66 26 -102 43 l-64 30 93 22 c171 41 322 136 448 282 47 55 57 61 110 72 32
6 94 27 138 45 44 18 82 34 84 35 3 0 13 -6 23 -15z m3775 -64 c-1 -8 -9 -15
-17 -15 -10 0 -16 13 -18 40 l-2 40 20 -25 c11 -14 19 -32 17 -40z m-3624 -20
c13 0 17 -8 17 -32 l0 -33 -60 3 c-59 4 -62 3 -100 -36 -22 -22 -43 -54 -46
-71 -4 -17 -10 -31 -13 -31 -4 0 -14 22 -23 49 l-15 48 32 44 c17 24 48 58 68
76 l37 32 42 -24 c24 -14 51 -25 61 -25z m-503 0 c0 -7 -84 -90 -91 -90 -11 0
-32 69 -26 85 4 9 22 13 61 12 31 -1 56 -4 56 -7z m4193 -49 c10 -17 16 -31
13 -31 -3 0 -25 12 -50 27 -43 26 -44 27 -23 38 26 14 35 8 60 -34z m1114 26
c28 -16 149 -125 400 -358 211 -197 222 -213 208 -279 -7 -34 -55 -78 -315
-296 -336 -281 -666 -559 -709 -596 -49 -43 -94 -55 -143 -39 -42 14 -597 548
-616 593 -23 55 -8 81 107 185 141 128 141 127 108 200 -58 130 -62 240 -12
332 16 28 34 51 40 51 7 0 31 -17 54 -37 39 -35 41 -40 32 -70 -17 -58 12
-112 76 -139 44 -19 88 -8 123 33 75 85 6 194 -112 179 -26 -4 -48 -3 -48 2 0
5 -18 22 -40 37 -22 15 -40 32 -40 36 0 5 19 18 43 30 90 47 249 34 378 -32
32 -16 69 -29 82 -29 14 0 61 31 123 83 155 129 153 127 198 127 22 -1 51 -6
63 -13z m-4784 -64 c4 -2 7 -13 7 -24 0 -13 -7 -19 -23 -19 -84 0 -124 -126
-73 -235 23 -51 78 -108 115 -120 16 -5 21 -15 21 -41 0 -19 -3 -34 -7 -34
-17 0 -106 58 -167 109 -62 52 -206 211 -206 228 0 4 13 28 29 52 l29 44 35
-74 c34 -72 35 -73 36 -37 2 99 78 175 161 161 19 -3 38 -8 43 -10z m128 -159
c29 -41 83 -104 121 -139 42 -39 73 -76 78 -95 5 -18 14 -87 20 -153 15 -165
43 -294 85 -391 19 -44 33 -82 30 -84 -6 -6 -74 18 -127 44 -79 40 -74 44
-129 -109 -31 -89 -32 -88 -70 21 -45 130 -51 186 -60 537 -5 234 -13 363 -23
415 -21 103 -20 124 4 72 11 -24 43 -77 71 -118z m694 45 c71 -43 566 -529
505 -496 -25 13 -85 46 -135 72 -171 92 -510 277 -533 292 -21 13 -22 18 -17
91 4 42 8 87 11 99 l4 23 58 -26 c31 -14 80 -38 107 -55z m2920 16 l26 -46
-31 -39 c-54 -68 -172 -170 -234 -200 -101 -51 -174 -37 -197 38 -28 95 54
207 175 236 19 5 36 2 53 -10 22 -14 25 -21 20 -57 -9 -69 -103 -139 -121 -91
-4 9 1 27 9 40 9 13 11 24 6 24 -28 0 -40 -70 -16 -90 39 -32 160 59 230 174
22 36 43 66 47 66 3 0 18 -20 33 -45z m-3731 13 c11 -51 26 -129 26 -134 0 -3
-4 -3 -9 1 -19 11 -20 -13 -1 -30 16 -14 20 -31 20 -77 0 -70 -11 -74 -65 -21
-79 76 -104 205 -50 258 31 32 73 33 79 3z m3806 -10 c0 -6 -6 -5 -15 2 -8 7
-15 14 -15 16 0 2 7 1 15 -2 8 -4 15 -11 15 -16z m-4125 -108 c53 -76 219
-226 289 -260 55 -27 66 -37 66 -57 0 -20 -4 -24 -17 -18 -23 8 -413 230 -435
247 -17 12 -15 17 20 70 20 32 40 58 43 58 4 0 19 -18 34 -40z m4395 -15 c53
-27 64 -74 29 -119 -37 -47 -127 -29 -150 31 -13 35 -1 48 20 22 33 -41 70 5
42 51 -21 31 12 40 59 15z m-3434 -44 c8 -8 236 -134 668 -368 113 -61 259
-153 254 -159 -2 -1 -32 4 -68 13 -96 22 -213 13 -331 -26 -53 -17 -117 -35
-142 -40 l-45 -8 26 40 c23 35 27 51 26 111 0 83 -23 135 -80 185 -44 39 -73
51 -126 51 -74 0 -118 -43 -118 -117 0 -28 8 -44 39 -74 21 -22 45 -39 52 -39
8 0 0 9 -18 21 -96 61 -69 192 40 192 105 0 198 -104 197 -223 -1 -52 -34
-116 -72 -140 -19 -11 -27 -20 -18 -21 36 -3 108 3 141 11 20 6 43 8 51 5 7
-3 41 1 73 10 56 14 41 14 -45 1 -19 -3 6 8 55 24 111 38 211 41 329 10 94
-24 154 -60 228 -138 77 -81 110 -155 116 -263 4 -76 2 -93 -18 -133 -50 -105
-175 -100 -237 9 -29 51 -30 115 -3 140 32 29 48 14 43 -42 -5 -46 -3 -51 27
-76 61 -52 106 -22 104 72 -3 136 -104 253 -274 316 -65 24 -89 28 -180 28
-58 -1 -116 -6 -130 -11 l-25 -11 30 -1 c62 -1 162 -32 211 -65 92 -61 124
-177 65 -236 -36 -36 -75 -38 -121 -6 -63 42 -91 129 -36 112 60 -19 66 -18
66 7 0 24 -37 66 -76 86 -11 6 -61 16 -110 22 -275 35 -335 50 -454 110 -74
37 -191 148 -233 220 -14 25 -44 91 -66 148 l-39 102 44 0 c26 0 44 -5 44 -11
0 -7 21 -54 46 -106 73 -149 170 -232 270 -233 52 0 91 29 100 74 12 65 -47
129 -84 93 -14 -14 -13 -15 7 -10 53 14 82 -69 39 -114 -49 -52 -165 -12 -244
85 -24 29 -62 92 -84 139 l-40 85 40 45 c21 25 44 60 50 79 12 35 19 40 36 25z"/>
<path d="M5893 9070 c-55 -22 -43 -78 23 -106 47 -20 134 -19 134 1 0 8 -7 15
-15 15 -8 0 -15 -5 -15 -11 0 -18 -88 -4 -119 18 -89 67 50 105 246 68 102
-19 177 -58 298 -156 138 -111 243 -158 351 -159 41 0 85 22 71 36 -4 4 -13 2
-19 -4 -27 -27 -128 0 -128 33 0 45 119 38 220 -13 69 -35 75 -57 23 -78 -30
-13 -60 -15 -148 -11 -209 11 -325 53 -484 175 -143 110 -240 152 -319 137
-32 -6 -39 -24 -12 -33 8 -3 10 0 5 8 -13 20 101 6 155 -19 25 -11 88 -55 140
-96 172 -137 317 -188 530 -189 104 -1 130 2 153 17 60 39 20 92 -95 128 -131
41 -231 10 -166 -51 27 -25 25 -25 -47 0 -78 27 -127 56 -220 134 -144 120
-269 167 -444 165 -53 0 -106 -4 -118 -9z"/>
<path d="M5742 9038 c7 -19 38 -22 38 -4 0 10 -9 16 -21 16 -12 0 -19 -5 -17
-12z"/>
<path d="M6510 8955 c0 -8 7 -15 16 -15 8 0 13 4 10 9 -4 5 0 12 6 14 7 3 3 6
-9 6 -14 1 -23 -5 -23 -14z"/>
<path d="M6586 8898 c-4 -9 0 -30 9 -47 16 -33 32 -43 20 -13 -4 9 -11 31 -15
47 -6 23 -9 26 -14 13z"/>
<path d="M7094 8706 c-30 -13 -44 -33 -44 -61 0 -27 63 -86 122 -116 72 -36
267 -91 426 -119 254 -46 340 -76 522 -186 132 -80 193 -108 282 -129 91 -21
222 -19 275 5 123 55 9 176 -186 196 -77 8 -128 -13 -133 -54 l-3 -30 -90 56
c-121 74 -211 118 -284 138 -62 18 -80 34 -37 34 38 0 197 -29 244 -45 46 -15
58 -4 15 14 -56 23 -201 41 -318 40 -157 -1 -200 -13 -85 -23 150 -12 275 -59
428 -157 122 -80 191 -110 262 -116 64 -6 90 5 90 38 0 21 -53 52 -78 46 -13
-4 -13 -5 3 -6 11 0 31 -8 43 -17 56 -39 -56 -62 -127 -26 -51 25 -62 49 -32
73 69 56 321 -21 321 -99 0 -67 -150 -89 -317 -46 -75 19 -170 63 -263 123
-160 103 -211 121 -540 191 -266 57 -340 79 -423 123 -166 88 -105 184 90 143
127 -26 201 -71 162 -97 -25 -17 -155 -6 -185 16 -34 26 -28 40 19 39 24 0 33
2 25 7 -20 13 -62 10 -83 -5 -19 -14 -19 -15 -2 -34 10 -11 42 -30 70 -42 87
-38 185 -49 402 -48 l200 1 -220 8 c-121 5 -236 13 -255 18 l-35 9 32 7 c18 4
39 15 48 25 14 15 14 19 -5 43 -46 58 -260 98 -336 63z"/>
<path d="M6920 8615 c0 -9 9 -15 25 -15 16 0 25 6 25 15 0 9 -9 15 -25 15 -16
0 -25 -6 -25 -15z"/>
<path d="M7548 8473 c12 -2 32 -2 45 0 12 2 2 4 -23 4 -25 0 -35 -2 -22 -4z"/>
<path d="M8317 8344 c-9 -10 2 -24 19 -24 8 0 14 7 14 15 0 15 -21 21 -33 9z"/>
<path d="M7866 8282 c-9 -15 17 -27 40 -18 16 6 11 26 -7 26 -6 0 -7 -4 -4
-10 3 -5 2 -10 -4 -10 -5 0 -11 5 -13 12 -3 9 -6 9 -12 0z"/>
<path d="M8877 8123 c-14 -13 -6 -23 19 -23 22 0 25 2 14 15 -14 16 -23 19
-33 8z"/>
<path d="M9060 8082 c0 -6 -7 -9 -15 -6 -8 4 -15 1 -15 -5 0 -17 30 -25 43
-12 8 8 8 14 -1 23 -9 9 -12 9 -12 0z"/>
<path d="M8755 8063 c-79 -20 -47 -93 41 -93 79 0 95 64 23 89 -18 6 -35 10
-38 10 -3 -1 -15 -4 -26 -6z m70 -25 c14 -6 25 -17 25 -25 0 -14 -37 -33 -55
-28 -5 2 -22 6 -37 9 -19 4 -28 13 -28 25 0 31 48 41 95 19z"/>
<path d="M8841 7714 c-25 -32 -27 -67 -5 -88 23 -23 42 -20 75 13 47 47 35
101 -22 101 -18 0 -35 -9 -48 -26z m63 10 c40 -15 2 -100 -41 -92 -27 5 -29
52 -4 77 23 23 23 23 45 15z"/>
<path d="M9117 7574 c-14 -14 -7 -35 11 -32 9 2 17 10 17 17 0 16 -18 25 -28
15z"/>
<path d="M8731 7178 c-1 -28 42 -172 59 -198 15 -23 12 -11 -11 50 -12 30 -27
82 -34 115 -8 33 -14 48 -14 33z"/>
<path d="M8937 7066 c-9 -22 18 -40 33 -22 6 9 9 20 5 26 -9 15 -32 12 -38 -4z
m33 -5 c0 -6 -4 -13 -10 -16 -5 -3 -10 1 -10 9 0 9 5 16 10 16 6 0 10 -4 10
-9z"/>
<path d="M8572 7027 c-37 -39 -24 -87 23 -87 28 0 55 30 55 61 0 50 -42 64
-78 26z m62 -12 c14 -38 -31 -76 -58 -49 -9 9 -15 19 -13 22 2 4 7 15 10 25 8
21 53 23 61 2z"/>
<path d="M8310 6383 c-25 -32 -23 -61 6 -80 20 -13 25 -12 49 10 18 15 28 33
28 51 0 51 -49 62 -83 19z m68 -19 c4 -25 -31 -59 -53 -51 -18 8 -20 48 -3 65
19 19 53 10 56 -14z"/>
<path d="M8619 6206 c-12 -25 -7 -56 9 -56 5 0 7 11 5 24 -6 32 16 45 34 20
14 -18 14 -18 11 6 -4 36 -44 40 -59 6z"/>
<path d="M3973 6013 c22 -25 121 -80 115 -63 -2 6 -33 28 -68 48 -47 26 -60
30 -47 15z"/>
<path d="M4280 5851 c0 -5 7 -11 15 -15 8 -3 15 -1 15 3 0 5 -7 11 -15 15 -8
3 -15 1 -15 -3z"/>
<path d="M4420 5790 c0 -4 10 -10 23 -14 29 -8 72 -8 64 0 -10 10 -87 22 -87
14z"/>
<path d="M4522 5660 c2 -106 16 -145 16 -45 0 44 -3 89 -8 100 -6 14 -9 -4 -8
-55z"/>
<path d="M5427 6006 c-49 -18 -104 -61 -112 -87 -7 -22 2 -32 66 -68 l36 -21
38 30 c60 48 145 33 145 -25 0 -35 -33 -52 -123 -64 -43 -6 -91 -18 -106 -26
-37 -19 -102 -95 -99 -115 2 -8 23 -25 47 -37 l44 -22 39 34 c21 19 41 35 46
35 185 8 245 23 291 76 52 58 54 124 7 195 -53 79 -224 131 -319 95z m185 -32
c153 -52 189 -205 65 -274 -28 -16 -62 -24 -111 -27 -112 -6 -134 -12 -172
-45 l-35 -31 -37 17 -36 18 55 53 c42 40 65 55 95 59 123 19 150 26 172 51 29
34 28 60 -4 90 -39 36 -111 35 -154 -1 l-31 -27 -36 19 c-60 32 -55 56 20 93
51 26 143 28 209 5z"/>
<path d="M5910 5729 c-88 -80 -383 -300 -506 -376 -10 -6 -14 -12 -8 -12 30
-2 274 165 441 300 57 47 146 140 131 139 -1 -1 -28 -23 -58 -51z"/>
<path d="M5188 5566 c-10 -7 -21 -24 -26 -37 -27 -71 79 -117 141 -62 25 23
22 78 -5 97 -27 19 -87 20 -110 2z m93 -16 c11 -6 19 -21 19 -35 0 -28 -26
-45 -67 -45 -50 0 -68 36 -36 72 18 20 54 23 84 8z"/>
<path d="M3510 5777 c0 -22 31 -19 37 3 4 13 3 13 -6 0 -10 -13 -12 -13 -21 0
-8 13 -10 12 -10 -3z"/>
<path d="M4014 5598 c-8 -12 24 -40 37 -32 5 3 9 13 8 22 0 11 -3 12 -6 5 -2
-7 -9 -13 -15 -13 -6 0 -8 7 -4 15 6 18 -10 20 -20 3z"/>
<path d="M3985 5434 c-103 -81 -322 -243 -381 -281 -16 -10 -14 -11 10 -2 55
19 333 222 436 318 36 33 63 60 60 60 -3 0 -59 -43 -125 -95z"/>
<path d="M3125 5485 c-41 -40 -30 -90 20 -95 39 -4 54 0 75 22 25 28 26 52 0
78 -27 27 -66 25 -95 -5z m79 -1 c35 -14 5 -84 -36 -84 -11 0 -28 5 -39 10
-53 29 16 97 75 74z"/>
<path d="M3010 5351 c0 -20 211 -125 348 -175 126 -45 103 -28 -58 42 -86 38
-186 85 -223 104 -37 20 -67 33 -67 29z"/>
<path d="M3534 4970 c0 -58 1 -81 3 -52 2 28 2 76 0 105 -2 28 -3 5 -3 -53z"/>
<path d="M3754 5695 c-8 -20 4 -35 27 -35 24 0 37 29 18 41 -21 13 -39 11 -45
-6z m44 -13 c2 -7 -6 -12 -17 -12 -21 0 -27 11 -14 24 9 9 26 2 31 -12z"/>
<path d="M3600 5600 c0 -15 7 -20 25 -20 18 0 25 5 25 20 0 15 -7 20 -25 20
-18 0 -25 -5 -25 -20z m40 0 c0 -5 -7 -10 -15 -10 -8 0 -15 5 -15 10 0 6 7 10
15 10 8 0 15 -4 15 -10z"/>
<path d="M3706 5533 c-7 -16 16 -43 35 -43 14 0 31 30 25 45 -8 21 -52 19 -60
-2z m48 -8 c-1 -18 -34 -18 -34 0 0 10 7 15 18 13 9 -2 17 -8 16 -13z"/>
<path d="M3546 5505 c-7 -18 16 -30 40 -21 13 5 14 9 4 21 -16 19 -36 19 -44
0z m34 -5 c0 -5 -4 -10 -10 -10 -5 0 -10 5 -10 10 0 6 5 10 10 10 6 0 10 -4
10 -10z"/>
<path d="M3600 5386 c0 -7 82 -47 87 -43 5 6 -61 47 -76 47 -6 0 -11 -2 -11
-4z"/>
<path d="M6191 5437 c-9 -12 -8 -18 4 -31 20 -20 58 -4 53 22 -4 22 -41 27
-57 9z m44 -7 c3 -6 -1 -13 -10 -16 -19 -8 -30 0 -20 15 8 14 22 14 30 1z"/>
<path d="M6398 5419 c-35 -20 -8 -67 31 -54 26 8 33 31 15 50 -18 17 -23 18
-46 4z m42 -24 c0 -8 -9 -15 -20 -15 -11 0 -20 7 -20 15 0 8 9 15 20 15 11 0
20 -7 20 -15z"/>
<path d="M6160 5340 c-9 -6 -10 -10 -3 -10 6 0 15 5 18 10 8 12 4 12 -15 0z"/>
<path d="M6469 5254 c-11 -14 -10 -18 5 -30 13 -9 24 -10 37 -3 22 11 24 20 7
37 -16 16 -33 15 -49 -4z m41 -9 c0 -8 -6 -15 -14 -15 -17 0 -28 14 -19 24 12
12 33 6 33 -9z"/>
<path d="M5787 5254 c-11 -11 -8 -34 3 -34 6 0 10 8 11 18 0 15 2 14 10 -3 8
-19 9 -19 6 -1 -2 21 -19 31 -30 20z"/>
<path d="M5805 5200 c-3 -5 -1 -10 4 -10 6 0 11 5 11 10 0 6 -2 10 -4 10 -3 0
-8 -4 -11 -10z"/>
<path d="M5872 5133 c4 -22 43 -25 43 -3 0 8 -11 16 -23 18 -19 3 -23 0 -20
-15z m33 -3 c-3 -5 -10 -10 -16 -10 -5 0 -9 5 -9 10 0 6 7 10 16 10 8 0 12 -4
9 -10z"/>
<path d="M6177 4730 c3 -58 7 -107 9 -109 8 -8 2 175 -5 194 -5 11 -6 -27 -4
-85z"/>
<path d="M4345 5400 c-33 -10 -85 -34 -116 -53 -66 -40 -199 -145 -199 -158 0
-5 15 -16 33 -25 17 -9 55 -37 82 -62 28 -25 83 -61 123 -80 63 -30 87 -36
166 -40 127 -6 228 20 358 94 54 30 98 57 98 59 0 13 -123 166 -159 198 -66
60 -121 80 -231 84 -74 2 -108 -1 -155 -17z m252 -16 c73 -25 125 -66 204
-160 39 -46 70 -86 68 -87 -2 -2 -51 -26 -109 -54 -109 -53 -215 -83 -296 -83
-101 0 -237 54 -319 126 -22 19 -53 42 -70 51 -27 15 -28 17 -11 27 10 6 53
37 95 70 115 88 206 124 323 125 38 1 88 -6 115 -15z"/>
<path d="M4355 5352 c-73 -22 -132 -52 -208 -106 l-58 -41 43 -37 c71 -60 139
-96 222 -118 96 -24 133 -25 232 -3 75 16 235 88 241 108 2 6 -25 40 -60 76
-116 121 -265 165 -412 121z m192 -17 c28 -6 83 -53 83 -71 0 -8 -9 -14 -19
-14 -11 0 -22 -4 -25 -9 -3 -4 6 -6 19 -3 22 4 25 1 25 -23 0 -24 -3 -27 -25
-23 -13 3 -22 1 -19 -3 3 -5 12 -9 20 -9 21 0 17 -13 -15 -44 -21 -20 -30 -24
-34 -14 -4 9 -6 8 -6 -3 -1 -15 -20 -29 -41 -29 -5 0 -13 12 -19 28 l-11 27 5
-32 c4 -28 1 -33 -15 -33 -11 0 -20 5 -20 11 0 8 -4 8 -12 1 -7 -5 -22 -6 -32
-2 -14 4 -16 9 -8 14 7 4 12 13 12 19 0 7 -5 4 -11 -5 -11 -20 -27 -22 -48 -9
-11 7 -9 14 15 36 29 26 14 25 -17 -2 -14 -11 -18 -11 -29 2 -11 13 -10 18 6
31 19 14 19 14 -1 12 -14 -2 -21 4 -23 20 -2 16 2 22 15 22 14 0 15 2 4 9 -17
11 2 51 24 51 8 0 12 6 9 15 -6 15 37 32 54 21 6 -3 12 0 15 7 4 12 70 13 124
2z m-225 -27 c-44 -48 -53 -108 -23 -166 28 -55 70 -75 155 -76 80 0 119 16
159 63 40 48 50 91 34 140 -8 22 -11 41 -7 41 14 0 115 -87 142 -122 l26 -34
-83 -37 c-99 -44 -183 -67 -245 -67 -105 0 -239 51 -324 123 l-39 33 64 41
c70 45 139 82 153 83 5 0 0 -10 -12 -22z"/>
<path d="M4411 5264 c-26 -33 -26 -49 -1 -74 29 -29 90 -27 118 3 27 29 28 51
2 77 -31 31 -93 27 -119 -6z m115 -9 c21 -33 -6 -65 -55 -65 -60 0 -83 43 -38
75 29 21 76 15 93 -10z"/>
<path d="M4984 5169 c-77 -82 -384 -318 -472 -363 -19 -10 -31 -20 -28 -23 10
-11 144 71 271 167 124 93 275 234 264 245 -3 2 -19 -9 -35 -26z"/>
<path d="M3907 5002 c52 -45 184 -119 295 -166 161 -70 178 -65 25 7 -146 70
-226 113 -294 159 -53 36 -68 36 -26 0z"/>
<path d="M2600 5190 c0 -15 7 -20 25 -20 18 0 25 5 25 20 0 15 -7 20 -25 20
-18 0 -25 -5 -25 -20z m40 0 c0 -5 -7 -10 -15 -10 -8 0 -15 5 -15 10 0 6 7 10
15 10 8 0 15 -4 15 -10z"/>
<path d="M3057 4982 c-24 -26 -21 -49 8 -68 48 -32 111 17 85 66 -14 26 -70
27 -93 2z m81 -21 c4 -26 -12 -41 -44 -41 -34 0 -46 22 -28 49 22 31 68 26 72
-8z"/>
<path d="M3090 4949 c0 -5 5 -7 10 -4 6 3 10 8 10 11 0 2 -4 4 -10 4 -5 0 -10
-5 -10 -11z"/>
<path d="M3210 4889 c-19 -17 -134 -94 -255 -171 -235 -150 -257 -166 -210
-148 99 38 554 349 510 349 -5 0 -26 -13 -45 -30z"/>
<path d="M2113 4894 c-3 -8 -1 -20 4 -25 14 -14 43 0 43 22 0 24 -38 26 -47 3z
m32 -4 c3 -5 -1 -10 -9 -10 -9 0 -16 5 -16 10 0 6 4 10 9 10 6 0 13 -4 16 -10z"/>
<path d="M2971 4857 c-13 -13 -14 -34 -2 -41 16 -10 41 5 41 24 0 22 -24 32
-39 17z m29 -17 c0 -5 -7 -10 -15 -10 -8 0 -15 5 -15 10 0 6 7 10 15 10 8 0
15 -4 15 -10z"/>
<path d="M2747 4715 c-23 -22 -10 -47 22 -43 20 2 26 8 26 28 0 30 -26 38 -48
15z m39 -24 c-10 -16 -36 -13 -36 3 0 17 21 27 34 16 4 -5 5 -13 2 -19z"/>
<path d="M7226 5100 c19 -92 93 -361 93 -344 1 25 -50 226 -78 309 -12 33 -18
49 -15 35z"/>
<path d="M6871 5078 c0 -4 6 -33 14 -64 15 -58 15 -58 -10 -84 l-26 -27 35
-119 c19 -65 40 -148 47 -184 7 -35 14 -59 16 -53 4 10 -37 191 -62 279 -6 18
-3 20 23 16 28 -4 31 -8 56 -100 14 -54 32 -133 41 -176 14 -75 25 -107 25
-74 0 26 -30 168 -55 258 -13 47 -23 107 -22 135 2 42 -1 51 -19 59 -15 7 -28
30 -41 75 -12 36 -21 63 -22 59z m63 -154 c29 -29 12 -64 -31 -64 -19 0 -23 5
-23 28 0 27 15 52 31 52 4 0 15 -7 23 -16z"/>
<path d="M6821 5010 c0 -8 4 -24 9 -35 5 -13 9 -14 9 -5 0 8 -4 24 -9 35 -5
13 -9 14 -9 5z"/>
<path d="M7431 4957 c-16 -16 7 -41 25 -26 8 6 14 15 14 19 0 14 -27 19 -39 7z
m24 -7 c3 -5 1 -10 -4 -10 -6 0 -11 5 -11 10 0 6 2 10 4 10 3 0 8 -4 11 -10z"/>
<path d="M6841 4934 c0 -11 3 -14 6 -6 3 7 2 16 -1 19 -3 4 -6 -2 -5 -13z"/>
<path d="M7470 4845 c-40 -35 -78 -61 -82 -59 -4 3 -8 -2 -8 -10 0 -9 -3 -16
-7 -16 -10 0 -92 -77 -113 -105 -14 -19 -14 -19 5 -5 73 54 300 261 284 259
-2 0 -38 -29 -79 -64z"/>
<path d="M6661 4864 c0 -11 3 -14 6 -6 3 7 2 16 -1 19 -3 4 -6 -2 -5 -13z"/>
<path d="M6541 4835 c0 -5 9 -44 19 -85 16 -60 19 -65 14 -27 -5 44 -32 136
-33 112z"/>
<path d="M6671 4824 c0 -11 3 -14 6 -6 3 7 2 16 -1 19 -3 4 -6 -2 -5 -13z"/>
<path d="M6682 4785 c0 -11 4 -31 8 -45 6 -20 8 -21 8 -5 0 11 -4 31 -8 45 -6
20 -8 21 -8 5z"/>
<path d="M2632 5044 c-20 -13 -28 -14 -53 -3 -26 10 -34 9 -57 -8 -52 -38 -55
-113 -6 -135 20 -9 36 -8 82 6 89 28 112 38 118 48 4 6 -3 5 -14 -1 -11 -6
-33 -11 -47 -11 -15 0 -33 -7 -41 -15 -9 -9 -34 -15 -59 -15 -34 0 -47 5 -55
20 -28 52 56 130 96 90 7 -7 24 -3 52 12 49 27 73 19 83 -28 5 -24 7 -26 14
-11 4 10 1 27 -9 42 -20 30 -69 34 -104 9z"/>
<path d="M5166 4961 c-7 -11 18 -33 27 -24 4 3 7 12 7 20 0 15 -26 18 -34 4z"/>
<path d="M5273 4923 c-24 -2 -43 -8 -43 -14 0 -5 -7 -9 -15 -9 -17 0 -20 -16
-4 -25 5 -4 19 1 31 11 16 15 36 19 101 19 70 0 91 -4 140 -28 58 -29 87 -64
87 -108 0 -16 5 -20 20 -16 11 3 20 1 20 -4 0 -5 -9 -9 -20 -9 -22 0 -27 -16
-8 -22 21 -7 -2 -28 -31 -28 -36 0 -41 6 -31 38 16 58 -28 115 -101 132 -66
16 -127 6 -182 -31 -38 -25 -50 -28 -67 -19 -21 11 -27 30 -10 30 6 0 10 8 10
18 1 16 1 16 14 0 16 -22 29 -12 15 13 -13 26 -24 24 -54 -8 -31 -34 -31 -40
-2 -64 29 -24 59 -24 82 1 49 55 187 62 246 13 27 -23 30 -31 28 -75 -3 -55 7
-68 57 -68 34 0 54 15 54 42 0 10 5 18 10 18 6 0 10 9 10 20 0 13 -7 20 -20
20 -12 0 -20 6 -18 13 4 20 -29 73 -56 90 -62 41 -158 59 -263 50z"/>
<path d="M5032 4878 c5 -15 28 -23 28 -10 0 5 -7 13 -16 16 -10 4 -14 1 -12
-6z"/>
<path d="M5620 4850 c24 -33 22 -32 44 -24 23 9 20 23 -3 17 -13 -3 -23 2 -30
16 -7 12 -16 21 -22 21 -6 0 -1 -13 11 -30z"/>
<path d="M4977 4793 c-10 -9 -9 -23 2 -23 5 0 11 7 15 15 5 15 -5 20 -17 8z"/>
<path d="M5730 4780 c0 -5 6 -10 14 -10 8 0 18 5 21 10 3 6 -3 10 -14 10 -12
0 -21 -4 -21 -10z"/>
<path d="M4980 4750 c0 -5 4 -10 9 -10 6 0 13 5 16 10 3 6 -1 10 -9 10 -9 0
-16 -4 -16 -10z"/>
<path d="M5030 4742 c-39 -13 -42 -69 -4 -78 36 -9 71 25 55 54 -12 23 -30 31
-51 24z m34 -21 c10 -16 -5 -41 -24 -41 -25 0 -35 18 -20 35 14 17 36 20 44 6z"/>
<path d="M5198 4700 c-7 -11 -22 -20 -33 -20 -19 -1 -19 -1 -1 -11 22 -14 66
3 66 25 0 25 -19 28 -32 6z m22 -4 c0 -3 -4 -8 -10 -11 -5 -3 -10 -1 -10 4 0
6 5 11 10 11 6 0 10 -2 10 -4z"/>
<path d="M5690 4709 c0 -5 5 -7 10 -4 6 3 10 8 10 11 0 2 -4 4 -10 4 -5 0 -10
-5 -10 -11z"/>
<path d="M4827 4694 c-13 -13 -7 -52 9 -58 22 -9 46 13 42 38 -3 21 -37 34
-51 20z m38 -25 c0 -7 -8 -15 -17 -17 -18 -3 -25 18 -11 32 10 10 28 1 28 -15z"/>
<path d="M5112 4674 c-15 -10 -22 -25 -22 -49 0 -66 96 -110 188 -86 53 15 70
42 45 76 -10 13 -21 25 -25 25 -5 0 -8 5 -8 11 0 6 9 8 20 4 12 -4 20 -2 20 5
0 17 -29 23 -45 10 -21 -18 -19 -41 5 -47 36 -10 21 -23 -27 -24 -38 0 -43 -2
-26 -9 13 -5 35 -5 52 0 43 12 40 -7 -4 -26 -46 -19 -81 -17 -131 5 -29 13
-43 27 -48 45 -10 40 1 48 29 20 13 -13 30 -24 37 -24 7 0 1 11 -14 25 -16 15
-25 31 -22 40 8 19 4 19 -24 -1z"/>
<path d="M5499 4634 c-10 -13 -10 -17 2 -25 17 -10 31 -7 37 9 2 7 -2 10 -12
6 -12 -5 -15 -2 -10 10 8 20 0 21 -17 0z"/>
<path d="M4935 4621 c-8 -15 3 -31 21 -31 9 0 14 7 12 17 -4 20 -24 28 -33 14z"/>
<path d="M5389 4564 c-17 -21 0 -49 31 -49 27 0 46 25 37 49 -8 21 -51 21 -68
0z m57 -5 c10 -17 -23 -46 -37 -32 -7 7 -9 19 -6 27 7 18 33 21 43 5z"/>
<path d="M5287 4494 c-4 -4 -7 -16 -7 -26 0 -20 25 -25 36 -7 8 13 -19 43 -29
33z m23 -18 c0 -3 -4 -8 -10 -11 -5 -3 -10 -1 -10 4 0 6 5 11 10 11 6 0 10 -2
10 -4z"/>
<path d="M5126 4475 c-3 -9 3 -24 14 -35 16 -16 25 -18 40 -10 21 11 36 30 23
30 -5 0 -14 -5 -20 -11 -18 -18 -46 -2 -40 21 6 23 -8 27 -17 5z"/>
<path d="M5259 4180 c-1 -49 -2 -105 -3 -122 -1 -18 1 -42 5 -53 4 -11 8 44 8
123 1 78 -1 142 -4 142 -3 0 -6 -40 -6 -90z"/>
<path d="M3583 4711 c-56 -35 -55 -93 3 -117 43 -18 68 -18 104 1 41 21 55 50
40 85 -21 50 -90 65 -147 31z m119 -18 c42 -38 6 -93 -62 -93 -69 0 -102 48
-60 90 25 25 95 27 122 3z"/>
<path d="M3604 4665 c-4 -9 -2 -21 4 -27 16 -16 47 -5 47 17 0 26 -42 34 -51
10z m46 -4 c0 -14 -18 -23 -30 -16 -6 4 -8 11 -5 16 8 12 35 12 35 0z"/>
<path d="M3302 4624 c-42 -29 -16 -94 39 -94 35 0 69 27 69 55 0 27 -33 55
-65 55 -11 0 -31 -7 -43 -16z m72 -10 c9 -3 16 -16 16 -29 0 -35 -65 -50 -89
-21 -29 34 23 69 73 50z"/>
<path d="M3089 4548 c-31 -10 -53 -48 -45 -75 16 -52 117 -48 137 4 19 50 -33
91 -92 71z m69 -20 c28 -28 -3 -78 -48 -78 -47 0 -66 42 -34 74 18 19 65 21
82 4z"/>
<path d="M3097 4503 c-13 -12 -7 -23 12 -23 23 0 36 16 21 25 -5 3 -10 1 -10
-4 0 -6 -5 -11 -11 -11 -5 0 -7 5 -4 10 7 11 2 13 -8 3z"/>
<path d="M3872 4543 c-7 -2 -17 -13 -22 -23 -23 -43 33 -84 76 -55 55 35 8
103 -54 78z m57 -27 c9 -11 8 -18 -4 -30 -20 -20 -26 -20 -50 -2 -16 12 -17
16 -6 30 17 20 45 21 60 2z"/>
<path d="M3640 4470 c-39 -39 -12 -90 48 -90 36 0 62 22 62 54 0 51 -72 74
-110 36z m88 -18 c17 -22 15 -29 -12 -47 -51 -34 -105 24 -55 59 23 16 47 12
67 -12z"/>
<path d="M3366 4459 c-55 -44 -22 -109 57 -109 41 0 87 35 87 65 0 9 -11 27
-25 40 -30 31 -82 33 -119 4z m106 -16 c37 -33 9 -73 -51 -73 -48 0 -78 28
-62 58 6 11 16 23 23 25 27 11 72 6 90 -10z"/>
<path d="M3955 4415 c-38 -30 -125 -92 -192 -137 -67 -46 -122 -87 -123 -91
-1 -28 357 224 383 269 11 20 10 19 -68 -41z"/>
<path d="M3313 4227 c22 -18 151 -61 168 -55 6 2 -26 17 -72 32 -119 40 -117
40 -96 23z"/>
<path d="M3564 3965 c0 -82 2 -115 3 -72 2 43 2 110 0 150 -1 40 -3 5 -3 -78z"/>
<path d="M6614 4138 c-92 -83 -200 -169 -309 -247 -110 -80 -122 -90 -85 -71
92 48 266 180 391 299 86 82 89 95 3 19z"/>
<path d="M5530 4040 c54 -48 441 -232 457 -217 2 2 -45 26 -104 52 -117 52
-297 142 -353 175 l-35 22 35 -32z"/>
<path d="M4234 4207 c-30 -26 -27 -61 6 -72 47 -15 93 54 55 82 -25 18 -29 17
-61 -10z m53 -14 c5 -14 -26 -45 -40 -40 -18 6 -19 24 -1 41 17 18 35 17 41
-1z"/>
<path d="M4715 4157 c-16 -12 -13 -14 26 -13 40 1 44 -1 47 -26 2 -18 -4 -31
-20 -42 -21 -15 -24 -14 -46 12 l-23 27 17 -35 c9 -19 18 -36 19 -38 7 -8 63
28 69 43 23 61 -37 109 -89 72z"/>
<path d="M4492 4108 c-20 -20 -15 -66 9 -78 16 -9 26 -8 45 5 41 27 27 85 -21
85 -12 0 -26 -5 -33 -12z m56 -30 c-4 -30 -48 -39 -48 -10 0 10 3 22 7 25 3 4
15 7 25 7 14 0 19 -6 16 -22z"/>
<path d="M4130 4091 c-102 -54 -94 -193 13 -255 126 -74 283 -44 317 59 24 72
-23 149 -115 191 -64 30 -164 33 -215 5z m201 -19 c45 -18 98 -72 110 -112 23
-78 -46 -140 -156 -140 -115 0 -208 67 -208 151 0 105 120 153 254 101z"/>
<path d="M4184 4054 c-5 -20 -1 -32 19 -51 24 -24 24 -26 8 -54 -22 -39 -42
-45 -63 -17 -10 13 -18 17 -18 11 0 -20 38 -53 53 -47 8 3 20 -2 27 -11 14
-17 75 -20 85 -4 5 7 -3 9 -23 6 -17 -3 -38 0 -47 6 -13 10 -13 17 -3 44 11
30 14 31 57 26 57 -6 87 12 78 48 -8 30 -82 69 -132 69 -29 0 -36 -4 -41 -26z
m116 -12 c22 -11 36 -26 38 -40 3 -20 -1 -22 -41 -22 -50 0 -97 29 -97 61 0
25 50 25 100 1z"/>
<path d="M7801 4064 c-30 -38 -35 -62 -17 -89 21 -32 50 -32 81 0 27 26 34 82
13 103 -20 20 -55 14 -77 -14z m73 -16 c8 -31 -24 -73 -55 -73 -17 0 -25 6
-27 23 -8 56 68 102 82 50z"/>
<path d="M7756 3810 c-76 -49 -101 -161 -44 -191 20 -11 20 -10 4 12 -65 94
77 236 155 153 35 -37 35 -147 0 -218 -30 -60 -91 -121 -137 -136 -42 -14
-100 2 -109 31 -10 30 -25 22 -26 -13 -1 -77 -72 -191 -144 -234 -57 -33 -125
-38 -152 -11 -41 41 -2 176 59 201 17 7 26 16 21 19 -17 11 -72 -31 -91 -70
-43 -86 -32 -158 27 -183 103 -42 244 75 296 247 3 9 13 9 40 -3 136 -57 316
194 251 350 -27 64 -93 85 -150 46z"/>
<path d="M3830 3820 c13 -24 106 -95 183 -139 70 -40 200 -91 229 -90 14 0 17
3 8 6 -140 50 -290 129 -376 200 -36 29 -52 37 -44 23z"/>
<path d="M4324 3405 c0 -55 1 -76 3 -47 2 29 2 74 0 100 -2 26 -3 2 -3 -53z"/>
<path d="M1843 3744 c-8 -20 8 -36 26 -25 15 10 8 41 -9 41 -6 0 -13 -7 -17
-16z"/>
<path d="M2280 3445 c0 -8 7 -15 15 -15 8 0 15 7 15 15 0 8 -7 15 -15 15 -8 0
-15 -7 -15 -15z"/>
<path d="M2336 3074 c-11 -27 -7 -43 14 -54 40 -22 80 26 48 58 -17 17 -55 15
-62 -4z m52 -22 c3 -16 -2 -22 -16 -22 -24 0 -35 23 -19 39 16 16 31 8 35 -17z"/>
<path d="M5109 3785 c-77 -15 -167 -59 -224 -108 -126 -108 -132 -290 -12
-392 69 -59 136 -80 257 -80 85 0 113 4 145 20 22 11 38 25 36 30 -2 6 -27 15
-55 20 -146 29 -210 129 -155 242 28 57 80 98 158 124 55 19 78 21 158 16 104
-7 114 0 66 45 -40 37 -106 67 -182 84 -79 16 -105 16 -192 -1z m278 -49 c34
-16 69 -36 77 -45 13 -15 6 -16 -97 -16 -102 0 -116 -2 -163 -27 -28 -15 -69
-47 -91 -72 -31 -35 -42 -42 -56 -35 -11 7 -17 6 -17 -1 0 -6 6 -13 14 -16 10
-4 12 -21 9 -72 -4 -58 -2 -71 19 -101 23 -35 108 -85 163 -97 l30 -7 -30 -9
c-16 -5 -68 -11 -115 -11 -106 -2 -171 18 -236 76 -140 123 -101 309 87 411
80 44 133 56 244 53 85 -3 109 -7 162 -31z"/>
<path d="M4928 3585 c-8 -19 -8 -28 2 -40 26 -31 90 -8 90 33 0 13 -3 12 -16
-6 -19 -27 -64 -30 -64 -4 0 10 5 23 12 30 9 9 9 12 0 12 -7 0 -17 -11 -24
-25z"/>
<path d="M5555 3369 c-117 -117 -208 -194 -285 -238 -30 -18 -44 -29 -30 -26
72 20 256 164 356 281 49 57 69 84 62 84 -2 0 -48 -45 -103 -101z"/>
<path d="M4645 3332 c56 -60 169 -136 278 -186 85 -40 137 -59 137 -51 0 2
-43 24 -95 49 -97 46 -234 131 -315 194 l-45 36 40 -42z"/>
<path d="M5163 2950 c0 -41 2 -58 4 -37 2 20 2 54 0 75 -2 20 -4 3 -4 -38z"/>
<path d="M2243 3233 c9 -2 25 -2 35 0 9 3 1 5 -18 5 -19 0 -27 -2 -17 -5z"/>
<path d="M3239 3175 c5 -11 28 -41 51 -65 22 -25 37 -36 31 -25 -13 27 -95
115 -82 90z"/>
<path d="M3751 2973 c-12 -21 -28 -48 -37 -60 -9 -13 -14 -23 -10 -23 10 0 79
110 73 116 -3 3 -15 -11 -26 -33z"/>
<path d="M6477 3022 c-42 -47 -1 -110 49 -77 31 20 38 37 30 70 -5 19 -13 25
-35 25 -15 0 -35 -8 -44 -18z m63 -7 c16 -20 -12 -65 -41 -65 -27 0 -34 25
-15 55 19 28 38 32 56 10z"/>
<path d="M6228 2743 c6 -2 18 -2 25 0 6 3 1 5 -13 5 -14 0 -19 -2 -12 -5z"/>
<path d="M6460 2470 c-24 -24 -26 -53 -5 -70 20 -17 54 -3 66 27 12 31 12 29
-7 47 -20 21 -30 20 -54 -4z m45 -30 c0 -18 -6 -26 -22 -28 -18 -3 -23 1 -23
21 0 28 9 39 30 35 9 -2 15 -14 15 -28z"/>
<path d="M5886 2358 c-34 -48 -8 -96 41 -77 23 8 37 43 31 76 -5 28 -53 29
-72 1z m50 -43 c-10 -14 -23 -24 -29 -22 -19 6 -20 43 -1 61 15 16 18 16 32 2
13 -13 13 -18 -2 -41z"/>
<path d="M3612 2318 c5 -15 27 -18 31 -3 1 5 -6 11 -17 13 -12 3 -17 -1 -14
-10z"/>
<path d="M5310 2142 c-45 -46 -37 -102 15 -102 50 0 74 79 35 115 -18 17 -20
16 -50 -13z m57 -18 c10 -27 -14 -64 -42 -64 -28 0 -34 25 -15 61 13 23 48 25
57 3z"/>
<path d="M5701 2144 c0 -11 3 -14 6 -6 3 7 2 16 -1 19 -3 4 -6 -2 -5 -13z"/>
<path d="M5060 1495 c0 -8 7 -15 15 -15 8 0 15 7 15 15 0 8 -7 15 -15 15 -8 0
-15 -7 -15 -15z"/>
<path d="M8001 2936 c-8 -9 -10 -28 -5 -51 6 -35 6 -36 -20 -29 -45 11 -58 10
-70 -8 -18 -28 4 -50 73 -74 40 -14 77 -36 102 -60 35 -34 41 -36 64 -26 35
16 31 40 -14 95 -26 31 -42 62 -46 90 -11 67 -54 99 -84 63z m47 -18 c5 -7 13
-33 17 -57 5 -31 19 -56 47 -87 34 -37 39 -46 28 -59 -12 -14 -17 -12 -49 19
-22 21 -62 44 -101 58 -44 16 -66 29 -68 42 -3 16 0 18 23 12 15 -4 40 -9 55
-13 l28 -5 -9 42 c-12 54 3 79 29 48z"/>
<path d="M7835 2786 c-16 -7 -41 -25 -53 -39 -30 -32 -26 -40 76 -141 70 -69
83 -78 106 -72 35 9 43 32 21 56 -24 26 -16 32 22 18 36 -14 63 -5 63 20 0 27
-32 52 -74 59 -22 3 -36 11 -36 20 0 30 -31 71 -61 82 -18 6 -32 11 -33 11 -1
-1 -14 -7 -31 -14z m85 -31 c7 -8 16 -30 19 -48 5 -24 13 -33 31 -35 40 -5 81
-24 77 -36 -4 -12 -24 -12 -74 -1 -39 9 -43 -3 -12 -46 18 -26 19 -30 4 -35
-11 -5 -41 17 -99 72 -46 44 -84 84 -85 91 -4 38 112 70 139 38z"/>
<path d="M7837 2733 c-14 -13 -6 -33 19 -49 23 -15 27 -16 41 -2 12 12 13 20
4 37 -11 20 -50 29 -64 14z m46 -28 c-4 -15 -26 -12 -31 3 -3 9 2 13 14 10 11
-2 18 -8 17 -13z"/>
<path d="M7680 2654 c-22 -20 -40 -43 -40 -50 0 -24 160 -184 184 -184 12 0
39 18 61 40 35 36 37 42 27 65 -14 29 -24 31 -58 9 -30 -20 -41 -12 -27 19 18
39 -1 60 -48 52 l-39 -7 17 29 c37 66 -14 84 -77 27z m70 4 c0 -6 -7 -19 -15
-28 -29 -32 17 -77 50 -50 24 20 37 2 19 -26 -13 -19 -14 -27 -4 -39 16 -19
35 -19 65 1 23 15 25 15 31 -1 5 -11 -4 -25 -27 -45 -19 -16 -39 -29 -44 -30
-6 0 -46 36 -90 80 l-79 80 34 35 c34 35 60 45 60 23z"/>
<path d="M7550 2539 c-50 -42 -61 -56 -58 -78 3 -23 7 -26 45 -26 38 0 48 -6
100 -57 59 -59 79 -68 101 -46 24 24 12 54 -48 113 -55 55 -58 60 -44 77 19
20 13 42 -15 57 -16 9 -29 3 -81 -40z m75 -9 c-8 -9 -15 -21 -15 -26 0 -5 27
-36 60 -69 33 -33 60 -65 60 -72 0 -32 -27 -20 -85 37 -60 59 -65 62 -99 56
-51 -10 -47 11 14 68 42 39 54 46 66 35 13 -10 13 -14 -1 -29z"/>
<path d="M8025 2440 c-4 -6 -5 -27 -4 -48 3 -32 1 -36 -16 -33 -42 9 -68 5
-78 -11 -16 -24 15 -55 72 -72 42 -12 46 -16 57 -60 15 -57 31 -78 58 -74 17
2 22 11 24 51 l3 48 44 -6 c37 -6 45 -4 54 13 17 33 3 50 -56 69 -52 17 -57
21 -69 61 -6 23 -18 49 -24 57 -14 17 -56 20 -65 5z m56 -30 c5 -8 13 -33 19
-56 9 -39 12 -41 65 -54 42 -10 55 -17 55 -32 0 -16 -7 -18 -52 -16 l-52 3 3
-47 c2 -37 -1 -48 -12 -48 -10 0 -20 20 -29 57 -13 56 -15 58 -63 76 -60 22
-79 37 -67 49 6 6 25 5 48 -1 56 -16 55 -16 48 40 -6 46 -5 51 11 48 10 -2 22
-11 26 -19z"/>
<path d="M7418 2425 c-31 -18 -54 -75 -40 -102 23 -42 53 -58 103 -56 54 2 63
-7 24 -25 -29 -13 -32 -34 -9 -56 19 -20 35 -20 79 -2 41 17 57 45 53 93 -5
54 -43 79 -116 76 l-57 -3 30 24 c30 24 30 24 11 45 -22 24 -41 26 -78 6z m59
-22 c2 -6 -5 -14 -17 -18 -15 -5 -20 -14 -18 -28 3 -20 9 -22 65 -22 78 -1
105 -21 101 -74 -3 -31 -9 -39 -41 -55 -35 -17 -40 -17 -54 -3 -14 14 -12 17
16 32 21 10 31 22 29 33 -3 13 -18 18 -71 22 -77 6 -103 25 -92 70 11 46 71
77 82 43z"/>
<path d="M7303 2315 c-3 -9 -3 -30 1 -47 6 -30 6 -31 -30 -25 -46 8 -64 0 -64
-28 0 -29 15 -41 73 -55 28 -8 64 -27 91 -51 48 -43 80 -49 96 -20 14 27 15
25 -34 79 -31 35 -45 62 -50 93 -4 23 -12 49 -18 56 -15 18 -57 16 -65 -2z
m65 -65 c10 -40 24 -66 54 -97 39 -40 43 -63 11 -63 -9 0 -31 15 -49 34 -20
21 -56 42 -91 53 -35 12 -59 26 -61 36 -3 14 4 15 47 10 l51 -6 -6 48 c-6 43
-5 47 12 43 14 -2 23 -18 32 -58z"/>
<path d="M7831 2270 c-54 -43 -57 -50 -40 -82 8 -16 17 -19 39 -14 25 5 34 -1
69 -42 27 -31 39 -53 35 -65 -7 -22 12 -47 37 -47 25 0 99 75 99 100 0 23 -32
43 -55 34 -11 -5 -30 6 -56 32 -33 32 -39 44 -35 66 5 26 -14 58 -34 58 -4 0
-31 -18 -59 -40z m64 -17 c-5 -21 3 -34 44 -75 36 -35 56 -49 70 -45 10 2 25
1 32 -4 11 -6 4 -18 -28 -51 -33 -32 -45 -40 -54 -31 -9 9 -9 16 -1 26 9 10
-1 26 -48 72 -37 37 -64 56 -73 52 -9 -3 -21 0 -27 8 -8 10 -1 21 32 48 46 39
63 39 53 0z"/>
<path d="M7145 2170 c-16 -18 -17 -25 -6 -61 7 -23 10 -43 7 -46 -3 -3 -26 0
-51 7 -41 11 -48 11 -65 -5 -11 -10 -20 -25 -20 -33 0 -21 150 -172 177 -178
27 -7 53 11 53 36 0 9 -9 29 -21 44 l-20 26 26 0 c14 0 28 7 32 15 5 14 8 14
29 0 13 -8 32 -15 43 -15 26 0 45 34 32 58 -16 29 -168 172 -183 172 -8 0 -23
-9 -33 -20z m116 -77 c75 -72 98 -113 64 -113 -8 0 -29 14 -47 30 -17 17 -35
30 -39 30 -5 0 -6 -13 -2 -30 5 -29 4 -30 -31 -30 -43 0 -46 -14 -10 -51 27
-28 27 -59 2 -59 -8 0 -49 36 -93 80 -73 73 -78 81 -63 96 14 14 20 14 72 -2
31 -10 59 -14 63 -11 4 4 -1 31 -10 59 -12 38 -13 55 -5 65 6 7 13 13 15 13 3
0 41 -35 84 -77z"/>
<path d="M7710 2165 c-12 -14 -10 -48 6 -102 6 -23 6 -23 -36 -8 -70 25 -110
16 -110 -25 0 -8 40 -55 89 -104 77 -77 92 -88 114 -82 33 8 43 40 23 71 -14
22 -15 25 -1 25 8 0 20 8 26 19 11 17 14 17 40 2 22 -12 33 -13 46 -5 39 24
27 51 -58 139 -84 87 -113 101 -139 70z m124 -84 c54 -55 77 -84 73 -95 -9
-22 -30 -20 -53 5 -10 11 -27 25 -36 30 -16 9 -18 6 -16 -23 3 -32 2 -33 -29
-30 -40 3 -42 -10 -7 -51 22 -26 23 -32 11 -45 -19 -18 -28 -12 -121 85 -84
89 -78 113 19 78 22 -8 46 -14 53 -15 15 0 16 37 1 79 -12 35 -7 61 13 61 8 0
49 -36 92 -79z"/>
<path d="M3855 2580 c-8 -13 4 -32 16 -25 12 8 12 35 0 35 -6 0 -13 -4 -16
-10z"/>
<path d="M4330 2335 c-10 -12 -10 -18 0 -30 16 -19 39 -19 46 0 6 15 -11 45
-26 45 -4 0 -13 -7 -20 -15z m30 -15 c0 -5 -4 -10 -10 -10 -5 0 -10 5 -10 10
0 6 5 10 10 10 6 0 10 -4 10 -10z"/>
<path d="M4483 2163 c9 -2 23 -2 30 0 6 3 -1 5 -18 5 -16 0 -22 -2 -12 -5z"/>
</g>
</svg>
