<?xml version="1.0" standalone="no"?>
<!DOCTYPE svg PUBLIC "-//W3C//DTD SVG 20010904//EN"
 "http://www.w3.org/TR/2001/REC-SVG-20010904/DTD/svg10.dtd">
<svg version="1.0" xmlns="http://www.w3.org/2000/svg"
 width="1024.000000pt" height="1024.000000pt" viewBox="0 0 1024.000000 1024.000000"
 preserveAspectRatio="xMidYMid meet">
<metadata>
Created by potrace 1.16, written by Peter Selinger 2001-2019
</metadata>
<g transform="translate(0.000000,1024.000000) scale(0.100000,-0.100000)"
fill="#000000" stroke="none">
<path d="M5944 9145 c-133 -30 -261 -97 -417 -219 l-94 -73 -154 -7 c-171 -8
-312 -28 -397 -57 -185 -64 -345 -221 -396 -392 l-13 -42 -8 39 c-4 21 -5 78
-3 127 6 105 2 108 -66 48 -76 -67 -113 -167 -96 -260 l8 -40 -37 6 c-62 10
-129 -13 -178 -61 -57 -58 -56 -74 3 -74 50 0 122 -30 151 -63 17 -18 17 -19
-2 -29 -37 -20 -125 -120 -167 -190 -82 -138 -111 -334 -73 -483 33 -124 136
-293 260 -425 46 -48 53 -61 58 -109 4 -29 20 -82 36 -116 52 -111 129 -178
249 -214 32 -10 79 -34 105 -54 44 -34 131 -72 189 -84 16 -3 31 -9 34 -14 8
-13 -14 -85 -30 -98 -8 -7 -52 -14 -98 -17 -45 -2 -111 -12 -145 -20 l-62 -16
-77 53 c-160 111 -370 336 -505 541 -31 48 -112 184 -179 302 -188 331 -233
365 -584 451 -247 60 -399 111 -557 186 -110 52 -132 59 -145 48 -11 -9 -14
-23 -11 -45 l5 -32 -51 15 c-360 105 -648 223 -1109 454 -298 150 -376 178
-434 159 -49 -16 -68 -58 -60 -128 16 -140 140 -300 341 -442 l60 -42 -70 7
c-179 17 -251 -64 -179 -201 50 -95 202 -222 343 -288 l54 -25 -39 -6 c-113
-17 -158 -49 -158 -109 0 -98 178 -231 413 -310 l66 -23 -69 -6 c-79 -7 -145
-39 -164 -79 -10 -22 -10 -33 1 -61 34 -79 176 -154 407 -212 l85 -21 -55 -18
c-103 -34 -150 -74 -150 -132 0 -80 156 -155 353 -171 l78 -6 -35 -32 c-42
-38 -54 -77 -35 -112 31 -58 164 -102 309 -103 41 0 70 -4 65 -8 -47 -33 -67
-100 -44 -144 30 -56 207 -83 362 -55 42 7 76 11 75 8 -2 -4 -12 -28 -22 -54
-19 -48 -19 -48 1 -75 42 -57 161 -66 291 -21 35 11 65 19 68 16 3 -3 1 -14
-5 -25 -6 -12 -11 -36 -11 -56 0 -96 144 -102 292 -12 l57 34 -6 -44 c-7 -55
14 -91 60 -99 46 -9 134 26 191 76 l46 41 0 -32 c0 -39 39 -80 76 -80 35 0
104 33 133 64 l22 24 24 -24 c29 -29 59 -30 108 -4 l37 20 -15 -37 c-42 -100
-128 -223 -246 -350 -32 -35 -77 -90 -101 -123 -39 -55 -45 -60 -80 -60 -52 0
-114 -27 -138 -60 -11 -15 -33 -33 -48 -39 -27 -11 -40 -7 -168 59 -196 99
-314 120 -477 84 -196 -44 -328 -155 -367 -311 -16 -60 -19 -64 -76 -101 -68
-44 -101 -89 -139 -184 -30 -75 -66 -113 -147 -154 -108 -55 -196 -172 -217
-289 -14 -76 -7 -78 117 -38 134 44 225 47 347 12 60 -17 105 -23 180 -23 122
-1 187 19 325 99 141 82 203 98 355 93 68 -2 126 -6 129 -9 3 -2 -20 -65 -49
-139 -65 -161 -125 -387 -125 -469 l0 -58 -49 -31 c-62 -41 -85 -86 -78 -155
3 -41 1 -55 -15 -71 -11 -12 -24 -31 -29 -44 -13 -34 -10 -113 5 -141 12 -22
10 -32 -25 -105 -65 -135 -89 -261 -105 -536 l-6 -105 -38 -28 c-24 -17 -49
-49 -67 -85 l-28 -57 0 -215 0 -215 33 -69 c17 -37 32 -75 32 -82 0 -8 12 -20
28 -27 15 -6 30 -17 35 -24 10 -17 126 -75 137 -68 5 3 12 0 15 -5 13 -20 55
-31 76 -19 16 8 25 7 38 -5 49 -44 141 -22 167 40 14 33 14 41 -5 97 -25 72
-26 109 -7 248 8 57 18 149 22 204 5 77 12 107 27 130 65 94 200 268 306 395
116 139 123 145 170 156 28 6 62 19 76 28 15 10 28 16 30 14 2 -2 -2 -53 -10
-112 -13 -95 -21 -123 -67 -220 -45 -95 -53 -121 -56 -181 -7 -133 31 -201
111 -198 23 1 56 4 72 7 17 3 57 10 90 15 69 12 103 34 127 81 9 18 40 56 68
83 51 52 123 165 156 248 l18 46 102 22 c118 24 323 93 451 150 48 21 106 44
127 51 57 18 266 161 301 206 105 134 145 289 145 561 0 217 -26 388 -92 596
l-21 68 23 40 c18 33 21 51 18 97 -5 55 -3 59 37 112 105 136 209 328 259 477
23 68 23 68 71 80 26 7 66 24 88 38 33 22 42 25 52 13 7 -7 102 -114 211 -238
108 -124 365 -414 570 -645 502 -567 460 -511 466 -615 6 -99 32 -164 84 -209
78 -69 183 -62 258 18 56 58 46 185 -18 226 -43 28 -85 35 -127 21 -47 -16
-49 -10 -19 60 50 116 138 210 405 434 311 261 424 440 442 700 6 96 -15 234
-49 312 l-20 47 25 50 c13 28 39 64 56 81 17 18 32 41 32 53 1 12 2 29 3 39 1
9 11 27 22 40 12 12 25 33 28 45 9 29 28 32 206 32 190 0 183 0 249 7 50 6 53
5 46 -12 -5 -11 -10 -41 -12 -69 -11 -153 163 -224 340 -137 41 21 96 61 147
108 79 75 180 193 180 211 0 14 -169 175 -220 210 -121 82 -227 114 -312 94
-60 -13 -111 -49 -133 -92 -21 -39 -21 -109 -2 -148 8 -17 12 -33 9 -35 -4 -2
-83 -7 -177 -10 -93 -4 -197 -9 -231 -12 l-61 -5 5 49 c4 44 1 52 -26 84 -27
30 -56 47 -139 79 l-22 8 34 75 c104 225 82 460 -63 672 -63 93 -151 183 -327
334 -181 155 -261 243 -306 336 -36 77 -38 98 -6 88 169 -56 267 182 116 284
-29 20 -44 23 -101 20 -56 -3 -73 -8 -105 -34 -56 -44 -93 -123 -93 -197 l0
-59 -93 -102 c-109 -117 -405 -461 -627 -726 -85 -101 -175 -206 -200 -233
l-45 -48 -83 37 c-45 20 -82 40 -82 43 0 3 24 15 52 26 65 25 88 59 71 105 -9
25 -9 30 3 30 22 0 75 29 106 58 35 32 44 72 24 109 -14 29 -14 29 22 49 110
58 157 155 98 201 l-24 19 78 58 c43 32 91 75 105 96 36 51 38 106 5 132 l-23
19 23 16 c41 29 123 105 159 147 69 83 90 167 50 207 l-21 21 45 47 c107 110
167 215 167 292 0 51 -18 75 -59 81 l-25 3 31 35 c81 93 153 236 153 305 0 61
-44 88 -106 65 -15 -6 -29 -9 -31 -6 -2 2 10 26 27 54 66 108 110 243 110 340
0 54 -4 66 -26 88 -47 48 -78 28 -245 -156 -62 -69 -186 -199 -275 -289 -151
-153 -163 -163 -179 -148 -14 15 -20 15 -43 3 -15 -8 -36 -27 -48 -43 -34 -46
-125 -143 -144 -153 -16 -8 -20 -3 -30 40 l-12 49 58 66 c32 36 63 65 70 65 6
0 28 24 48 53 155 226 94 499 -159 700 l-50 40 39 -6 c21 -3 68 -20 104 -37
36 -17 67 -28 70 -25 3 3 -14 43 -37 89 -64 131 -162 207 -317 246 -89 23
-208 25 -300 5z m303 -69 c90 -24 145 -57 216 -129 38 -38 66 -71 64 -74 -3
-2 -19 3 -35 11 -50 26 -164 38 -240 26 -76 -13 -113 -34 -41 -24 57 8 109
-14 191 -80 94 -75 183 -211 207 -317 23 -98 1 -255 -43 -314 -14 -19 -15 -18
-10 15 11 66 -34 170 -73 170 -11 0 -8 -8 11 -31 53 -63 27 -198 -56 -294
l-35 -40 -23 45 c-13 25 -33 59 -46 76 l-24 30 35 17 c38 18 115 84 115 99 0
5 -14 -2 -31 -16 -34 -29 -70 -49 -106 -60 -22 -7 -22 -6 7 57 60 126 61 227
4 338 -29 59 -43 61 -17 3 24 -55 23 -191 -1 -264 -39 -114 -136 -224 -248
-281 -75 -38 -92 -37 -45 2 91 75 167 233 167 349 0 96 -16 107 -22 16 -4 -62
-12 -90 -42 -152 -63 -126 -183 -238 -306 -285 l-51 -19 42 75 c54 99 63 179
29 249 -12 25 -36 56 -53 68 -39 28 -129 36 -183 17 l-39 -14 82 -5 c74 -5 86
-9 113 -35 17 -16 36 -47 42 -68 11 -35 10 -41 -8 -54 -38 -30 -241 -122 -334
-151 -172 -54 -238 -65 -383 -60 -118 3 -138 7 -191 31 -32 15 -63 27 -68 27
-6 0 13 -21 41 -46 75 -67 113 -152 119 -261 5 -88 -7 -167 -36 -232 l-16 -36
-7 70 c-9 98 -51 190 -99 215 -15 8 -11 -4 16 -56 40 -78 42 -113 10 -185 -85
-188 -34 -417 112 -510 55 -35 41 -44 -53 -37 -115 10 -205 78 -275 210 -33
61 -52 66 -32 9 l10 -28 -42 4 c-94 11 -195 -52 -227 -141 -7 -20 -16 -36 -21
-36 -9 0 -112 152 -156 233 -18 32 -47 99 -63 150 -30 87 -31 98 -27 207 4 97
10 128 36 198 38 102 105 205 178 271 46 42 52 51 34 51 -13 0 -39 17 -61 40
-26 27 -53 43 -85 51 -46 12 -46 12 -22 25 48 25 115 35 164 24 26 -6 48 -9
50 -7 2 1 -4 23 -12 47 -21 60 -11 130 29 211 l31 64 6 -80 c5 -55 16 -103 37
-153 l30 -73 12 59 c14 75 67 184 118 245 80 96 196 166 345 207 75 21 367 64
396 58 11 -2 -5 -21 -50 -58 -136 -112 -41 -63 182 94 176 124 348 217 445
240 78 19 245 20 312 2z m1129 -481 c7 -30 -17 -150 -46 -227 -29 -79 -133
-249 -210 -343 -81 -102 -300 -326 -363 -372 -68 -50 -50 -53 23 -3 144 98
279 227 399 380 42 54 76 77 148 101 53 17 60 3 37 -73 -49 -163 -303 -452
-577 -655 -84 -64 -76 -68 19 -11 91 54 210 147 309 242 77 73 126 99 154 81
29 -18 -7 -110 -83 -213 -97 -131 -300 -311 -471 -418 -41 -25 -75 -48 -75
-50 0 -7 82 26 127 52 78 45 164 104 218 149 28 23 60 47 72 53 25 14 53 6 53
-14 0 -35 -55 -119 -120 -183 -81 -80 -311 -241 -345 -241 -3 0 -5 29 -5 65 0
39 -8 88 -19 120 -19 53 -19 54 1 72 43 39 65 132 37 160 -8 8 -7 17 5 35 30
42 38 93 22 133 -8 19 -20 35 -26 35 -6 0 -4 9 5 23 39 60 33 164 -10 181 -25
9 -30 0 -11 -19 37 -37 9 -139 -63 -229 -45 -56 -40 -58 25 -9 38 28 50 29 57
3 9 -34 -12 -86 -58 -147 -24 -32 -42 -60 -40 -62 2 -2 17 6 33 18 39 27 42
27 42 -10 0 -26 -33 -99 -45 -99 -10 0 -109 178 -121 218 -27 88 -20 114 45
192 32 39 75 102 96 140 35 68 85 237 85 291 0 19 12 34 48 59 67 48 277 255
390 385 189 218 224 246 238 190z m-6319 -316 c32 -12 174 -82 315 -156 448
-235 752 -353 1165 -453 32 -8 47 -18 59 -41 21 -41 128 -147 206 -205 75 -55
225 -131 403 -204 159 -65 240 -116 345 -216 44 -42 82 -75 85 -72 8 8 -46 81
-104 141 -76 78 -157 129 -292 183 -270 108 -429 204 -548 329 -105 111 -136
187 -53 133 138 -92 360 -171 692 -248 229 -53 291 -107 449 -395 167 -304
249 -425 401 -595 80 -89 245 -229 320 -272 37 -22 51 -38 31 -38 -20 0 -110
-83 -148 -137 -68 -98 -113 -239 -113 -355 0 -43 -16 -50 -44 -19 -12 13 -15
27 -10 47 6 27 4 26 -38 -18 -39 -42 -49 -48 -86 -48 -46 0 -67 20 -78 77 l-6
31 -57 -30 c-46 -25 -64 -29 -105 -25 -86 8 -111 68 -55 132 36 41 32 42 -47
14 -78 -27 -181 -30 -217 -6 -62 40 -40 103 48 142 30 13 55 26 55 28 0 2 -28
-3 -62 -10 -35 -8 -100 -15 -145 -16 -97 -2 -136 17 -141 72 -6 60 35 97 133
120 92 22 77 28 -58 23 -119 -4 -138 -2 -180 16 -38 17 -47 26 -47 46 0 36 49
71 127 90 114 28 109 36 -22 36 -229 1 -364 60 -299 132 15 16 28 17 123 11
58 -3 104 -3 101 -1 -3 3 -52 15 -110 28 -131 27 -195 51 -241 89 -45 38 -53
63 -28 95 l19 24 58 -18 c73 -23 164 -36 142 -21 -8 6 -21 11 -28 11 -25 0
-147 53 -199 86 -29 18 -59 47 -68 64 -15 28 -15 34 -1 55 23 35 48 38 115 16
62 -20 151 -37 151 -28 0 2 -35 17 -77 32 -125 43 -223 111 -242 166 -10 28
-8 34 18 59 16 17 44 31 67 35 82 14 93 23 27 24 -71 1 -102 -9 -132 -40 -25
-27 -27 -68 -6 -108 14 -29 63 -75 87 -83 9 -3 2 -15 -19 -35 -18 -17 -33 -41
-33 -53 0 -37 31 -89 69 -117 l37 -27 -20 -37 c-20 -36 -20 -39 -3 -73 17 -36
17 -36 -6 -32 -12 3 -71 10 -132 16 -547 52 -1073 207 -1245 367 -32 29 -60
62 -63 73 -13 51 53 79 189 80 54 0 89 -7 155 -31 208 -76 469 -139 699 -168
47 -6 101 -14 120 -17 63 -10 18 13 -50 25 -139 26 -474 114 -632 166 -398
130 -719 352 -706 487 6 61 47 67 258 37 71 -10 105 -22 210 -74 268 -134 598
-244 947 -314 156 -32 153 -24 -7 19 -564 150 -1057 375 -1326 607 -156 135
-254 321 -198 377 20 21 32 20 101 -5z m4738 -178 c-21 -60 -34 -80 -83 -133
-25 -27 -42 -51 -39 -54 16 -16 108 -4 168 21 35 15 87 31 114 35 118 19 185
50 260 121 60 56 62 55 107 -36 61 -122 76 -208 87 -503 8 -220 9 -223 38
-280 126 -240 125 -237 130 -320 7 -98 -7 -161 -58 -268 -47 -100 -107 -175
-213 -265 -234 -201 -593 -268 -942 -175 -49 13 -91 22 -93 20 -7 -7 141 -71
204 -89 33 -9 114 -19 181 -22 l120 -6 -12 -48 c-7 -26 -9 -60 -5 -75 6 -25 9
-21 26 36 19 62 37 90 57 90 24 0 -13 -149 -75 -303 -57 -140 -211 -391 -305
-497 l-37 -42 -110 21 c-60 11 -144 23 -185 26 l-76 6 -18 119 c-10 65 -15
123 -12 128 3 5 9 27 15 50 10 47 -2 57 -17 15 -9 -27 -10 -26 -26 30 -9 31
-20 57 -24 57 -13 0 14 -304 35 -387 5 -21 1 -23 -30 -23 -32 0 -167 -36 -167
-44 0 -2 80 -3 178 -2 164 1 194 -2 409 -38 l232 -40 48 54 c76 84 117 110
177 110 39 0 58 -6 81 -25 l30 -24 -42 -1 c-92 0 -29 -32 102 -51 78 -11 136
-11 155 1 12 7 12 12 -4 29 -15 16 -16 21 -5 21 8 0 3 6 -11 13 -40 21 -70 41
-70 47 0 3 67 7 150 9 l150 3 81 -68 81 -69 -51 -3 c-50 -3 -55 -1 -114 49
-103 88 -102 87 -91 68 5 -9 33 -38 62 -64 28 -26 52 -51 52 -57 0 -18 -74 3
-95 27 -26 29 -104 85 -121 85 -23 0 -3 -38 27 -50 32 -14 79 -64 79 -85 0
-28 -52 -73 -107 -95 -100 -38 -103 -41 -43 -36 30 2 63 7 73 11 23 10 23 -21
-2 -61 -17 -27 -52 -50 -126 -80 -18 -7 -17 -8 8 -12 16 -2 42 1 58 7 34 12
36 7 10 -36 -12 -19 -39 -40 -70 -55 -59 -27 -66 -43 -16 -35 19 3 35 2 35 -3
0 -20 -64 -59 -113 -71 -78 -17 -227 -7 -313 20 l-72 23 -148 -35 c-230 -55
-341 -71 -509 -71 -232 -1 -367 35 -450 121 -51 53 -121 200 -150 318 -37 144
-52 363 -37 515 21 211 81 342 194 425 74 55 157 83 283 96 67 6 108 16 125
28 38 27 60 79 60 141 0 53 -3 59 -56 123 -51 62 -56 71 -45 93 16 37 15 37
-33 9 -163 -96 -403 23 -462 229 -29 102 3 214 74 258 51 31 158 33 174 3 27
-48 122 -134 170 -155 74 -32 170 -26 222 13 20 16 36 32 36 37 0 5 -19 18
-42 28 -53 23 -103 79 -137 152 -21 46 -26 73 -29 160 -2 76 1 117 12 150 l16
45 -5 -84 -5 -85 36 35 c19 19 54 72 77 118 41 83 42 86 42 190 0 101 -2 110
-35 176 -19 39 -36 73 -37 76 -2 3 32 -1 74 -8 197 -35 518 47 708 181 28 19
53 35 57 35 4 1 1 -17 -7 -38z m875 -96 c0 -42 -25 -120 -55 -169 -18 -31 -32
-56 -30 -56 3 0 20 14 40 31 19 17 35 27 35 22 0 -17 -107 -195 -151 -250
l-44 -56 -5 134 -5 134 60 56 c33 31 78 82 100 113 41 57 55 67 55 41z m1117
-705 c70 -42 63 -154 -12 -186 -69 -28 -130 14 -123 86 4 42 4 42 -14 20 -20
-25 -22 -55 -8 -154 19 -132 109 -259 310 -438 301 -268 381 -368 446 -558 28
-84 26 -240 -5 -349 l-24 -83 -61 4 c-34 2 -79 13 -101 23 -37 18 -40 23 -37
55 1 19 4 96 5 170 1 104 -3 150 -17 200 -42 154 -129 293 -296 475 -120 130
-197 230 -229 294 -55 107 -76 220 -48 250 10 11 10 13 0 7 -22 -12 -15 65 10
114 41 83 132 114 204 70z m-261 -337 c42 -147 99 -235 287 -443 71 -78 143
-165 161 -193 123 -192 164 -371 132 -572 -22 -136 -21 -132 -69 -140 -42 -8
-99 -53 -124 -99 -10 -19 -18 -17 -154 42 -389 165 -534 209 -749 228 -76 6
-100 14 -235 77 -82 38 -158 73 -168 79 -20 10 -66 -46 469 576 181 211 352
410 379 443 28 32 51 59 52 59 1 0 10 -26 19 -57z m-645 -53 c11 -7 19 -21 19
-37 0 -42 -117 -149 -226 -205 -50 -27 -97 -48 -103 -48 -7 0 -1 20 13 49 14
27 30 69 37 95 10 42 16 48 58 67 26 11 76 35 112 54 75 40 66 38 90 25z
m-4821 -218 c178 -39 356 -61 560 -69 141 -5 158 -8 190 -30 19 -13 52 -28 73
-34 38 -10 39 -11 21 -30 -10 -11 -18 -35 -18 -56 0 -62 79 -111 210 -130 l42
-5 -25 -36 c-23 -34 -24 -51 -8 -94 6 -15 -81 -35 -290 -64 -167 -24 -584 -30
-712 -10 -231 35 -330 105 -229 163 22 12 84 34 137 48 95 26 99 27 191 13
117 -16 644 -18 703 -1 35 10 21 11 -100 12 -348 3 -718 47 -962 116 -109 31
-270 111 -297 147 -19 26 -19 28 -2 47 16 18 61 32 146 45 72 11 234 -3 370
-32z m4674 -95 c16 -25 -16 -81 -67 -116 -55 -38 -138 -71 -177 -71 -28 0 -30
3 -30 36 0 26 8 46 29 70 16 18 33 39 38 47 11 20 154 65 178 57 10 -4 24 -14
29 -23z m-1863 -109 c56 -74 54 -71 28 -63 -13 4 -53 20 -89 37 l-65 30 40 13
c57 18 59 18 86 -17z m1542 -97 c-10 -14 -37 -35 -60 -45 -38 -18 -41 -22 -36
-52 11 -67 -50 -134 -122 -134 -22 0 -25 -3 -16 -13 14 -18 4 -27 -30 -27 -17
0 -32 7 -38 19 -6 10 -24 24 -41 31 -16 7 -30 16 -30 20 0 4 26 17 58 28 80
30 173 87 256 158 70 60 97 67 59 15z m181 -17 c25 -24 19 -49 -19 -83 -40
-35 -119 -61 -184 -61 l-46 0 -1 39 c-1 35 2 40 36 55 21 9 45 28 54 41 15 22
23 25 81 25 44 0 68 -5 79 -16z m-194 -169 c62 -12 70 -16 70 -38 0 -43 -36
-67 -99 -67 -43 0 -50 -7 -28 -29 10 -11 8 -12 -8 -7 -53 16 -120 45 -122 53
-2 5 16 15 39 23 28 10 50 26 63 47 11 18 26 30 35 28 8 -2 31 -6 50 -10z
m-3241 -29 c15 -8 51 -18 80 -22 48 -6 51 -8 36 -24 -9 -9 -20 -32 -25 -50
-23 -79 48 -139 163 -140 l58 0 -6 -34 c-21 -107 115 -165 258 -111 12 5 14 2
10 -14 -8 -32 16 -91 43 -103 13 -6 24 -14 23 -17 -1 -12 -141 -127 -206 -169
-117 -75 -190 -105 -258 -106 -58 -1 -60 0 -63 26 -2 14 6 45 18 67 17 34 33
47 95 76 77 37 211 131 255 181 l25 28 -35 -21 c-19 -11 -72 -43 -117 -70
-215 -131 -472 -210 -567 -173 -35 13 -33 37 7 96 30 44 37 49 117 74 97 30
249 106 300 151 l35 30 -44 -21 c-312 -153 -718 -223 -837 -145 -34 22 -30 39
20 93 44 47 47 48 132 60 123 18 333 74 441 117 102 41 162 76 83 49 -78 -26
-351 -93 -450 -109 -221 -36 -425 -29 -520 18 -74 36 -66 67 32 121 40 22 63
27 165 32 194 9 614 80 670 113 24 14 29 13 62 -3z m2769 -98 c-4 -69 -15
-121 -41 -200 -36 -112 -34 -140 3 -40 28 74 60 224 60 285 0 48 7 55 41 37
15 -9 19 -22 19 -70 0 -71 -31 -235 -65 -344 -13 -44 -23 -82 -21 -84 7 -6 62
172 82 263 9 44 18 113 18 152 1 75 7 84 41 59 16 -12 17 -22 12 -98 -10 -125
-82 -380 -154 -540 -24 -55 -28 -58 -62 -58 -60 0 -131 -41 -194 -110 -31 -35
-57 -60 -57 -55 0 4 26 49 59 99 57 89 103 174 134 249 28 66 9 39 -42 -60
-28 -54 -78 -140 -111 -192 l-61 -94 -46 7 c-53 7 -61 12 -48 30 6 7 37 49 70
92 81 107 173 262 223 375 45 104 92 265 92 319 0 45 12 62 49 69 2 1 1 -41
-1 -91z m310 -37 c43 -15 122 -48 176 -71 88 -39 96 -44 84 -60 -18 -25 -298
-356 -343 -405 l-36 -40 6 120 c9 151 -6 144 -32 -15 l-19 -115 -57 -9 c-32
-5 -60 -7 -63 -4 -3 4 9 39 27 80 67 153 139 418 139 513 0 44 12 45 118 6z
m547 -231 c73 -30 157 -55 215 -65 204 -36 307 -67 660 -199 113 -43 210 -79
217 -81 8 -3 11 -21 7 -57 l-5 -53 34 68 c40 80 79 124 122 136 42 11 133 -4
165 -27 29 -22 34 -41 51 -174 9 -78 9 -101 -1 -113 -16 -19 -43 -19 -80 0
-37 19 -59 61 -67 128 -6 50 -7 51 -18 25 -10 -26 -12 -27 -33 -12 -27 19 -28
7 -2 -26 11 -14 20 -28 20 -31 0 -3 -107 -9 -237 -13 -131 -4 -353 -11 -493
-16 -140 -5 -363 -12 -495 -16 l-240 -7 -103 90 -103 90 -116 -5 c-115 -5
-116 -5 -102 15 8 11 94 115 192 231 l178 211 57 -25 c31 -15 111 -48 177 -74z
m-2741 -198 c40 -18 69 -15 111 14 l38 25 21 -20 c12 -12 28 -21 34 -21 8 0
12 -18 12 -49 0 -27 3 -62 6 -80 5 -26 1 -36 -29 -66 -37 -37 -83 -47 -94 -20
-3 9 9 46 26 84 47 102 37 114 -21 26 -29 -44 -77 -98 -107 -122 -44 -37 -59
-44 -90 -41 -34 3 -36 5 -39 41 -3 30 7 54 47 125 55 95 68 139 24 82 -135
-174 -326 -301 -372 -246 -11 13 -10 24 4 65 13 40 37 71 116 150 94 96 102
101 142 101 23 1 58 9 77 19 l34 19 17 -37 c9 -20 28 -42 43 -49z m4140 23
c34 -17 66 -25 103 -25 50 0 53 -1 43 -20 -17 -32 -54 -35 -128 -10 -37 12
-70 25 -74 29 -6 5 0 51 6 51 0 0 23 -11 50 -25z m1150 -73 c35 -17 81 -42
102 -56 57 -38 194 -160 194 -171 0 -14 -141 -151 -210 -205 -79 -62 -165
-100 -223 -100 -69 0 -121 29 -141 80 -23 58 -8 109 49 164 l43 42 -35 19
c-50 27 -87 95 -80 146 15 114 152 151 301 81z m-1018 -38 c-3 -9 -6 -20 -6
-25 0 -20 -37 -8 -48 16 -11 24 -10 25 24 25 29 0 35 -3 30 -16z m160 -65 c26
-24 39 -68 29 -99 -6 -18 -15 -20 -110 -20 l-103 0 -7 51 c-4 30 -3 55 3 61 5
5 32 10 61 11 54 2 67 13 26 23 -14 3 -25 12 -25 20 0 19 93 -16 126 -47z
m-2360 -100 l38 -39 -64 6 c-54 6 -71 12 -102 40 l-37 33 47 3 c66 4 75 1 118
-43z m2833 -44 c5 -19 -1 -45 -9 -45 -14 0 -23 26 -16 46 5 14 21 13 25 -1z
m132 4 c20 -10 20 -11 2 -24 -10 -8 -39 -15 -65 -15 -45 0 -48 2 -48 25 0 23
4 25 46 25 25 0 54 -5 65 -11z m-191 -19 c0 -26 -17 -28 -327 -35 -261 -6
-263 -6 -263 14 0 19 6 21 78 22 64 1 229 7 470 17 36 2 42 -1 42 -18z m-801
-29 c10 -18 3 -19 -132 -25 -78 -4 -344 -13 -592 -21 -247 -8 -580 -20 -738
-26 -159 -6 -291 -9 -293 -6 -3 2 -2 11 1 19 7 17 43 19 765 43 261 9 561 20
665 24 319 13 313 13 324 -8z m-3783 -132 c30 -125 95 -263 160 -336 l45 -53
-28 -11 c-65 -25 -210 -59 -298 -69 -89 -11 -97 -10 -123 9 -29 20 -112 121
-112 136 0 4 39 52 88 107 121 139 169 203 204 271 16 33 31 57 34 54 3 -2 16
-51 30 -108z m4168 69 c-43 -77 -160 -100 -229 -46 l-26 20 33 18 c41 22 234
29 222 8z m-422 -105 c-2 -60 -6 -109 -7 -111 -9 -10 -87 43 -123 82 -46 50
-57 56 -47 27 5 -16 -2 -19 -52 -25 -89 -9 -445 2 -570 18 -103 14 -339 64
-331 71 2 2 154 8 338 15 591 22 724 27 761 28 l36 2 -5 -107z m109 97 c31
-17 7 -50 -36 -50 -30 0 -35 3 -35 23 0 13 3 27 7 30 10 10 42 8 64 -3z
m-1649 -97 c-80 -92 -76 -91 -186 -99 l-99 -7 21 30 c12 17 41 52 64 78 38 41
47 46 77 43 l34 -3 -42 -52 c-22 -29 -41 -54 -41 -57 0 -2 25 22 56 54 55 58
66 63 142 68 22 2 19 -4 -26 -55z m350 18 c152 -49 249 -70 385 -86 145 -17
436 -20 562 -5 l84 10 42 -39 c23 -21 57 -44 76 -50 l35 -11 17 -128 c21 -154
22 -226 3 -325 -36 -187 -99 -291 -348 -574 -182 -207 -284 -362 -304 -461 -4
-18 -10 -32 -14 -32 -4 0 -25 21 -46 47 -65 79 -457 526 -1016 1157 -98 111
-178 209 -178 219 0 10 14 38 31 62 29 40 34 43 91 49 34 3 82 6 107 6 46 0
48 1 141 101 l94 102 72 -7 c40 -3 115 -19 166 -35z m-551 12 c-5 -10 -16 -27
-25 -38 -15 -19 -15 -19 -16 11 0 35 6 44 32 44 15 0 17 -4 9 -17z m1943 -12
c42 -20 58 -22 112 -16 35 4 64 4 64 0 0 -22 -34 -64 -60 -75 -59 -24 -152 2
-183 51 -11 17 -1 73 11 67 4 -2 29 -14 56 -27z m-104 -24 c0 -28 -17 -47 -42
-47 -14 0 -18 8 -18 35 0 32 2 35 30 35 25 0 30 -4 30 -23z m113 -107 c21 -6
49 -10 63 -7 28 5 31 -5 8 -27 -55 -55 -191 -5 -169 63 6 21 7 21 33 3 15 -11
44 -25 65 -32z m-127 0 c-1 -28 -18 -49 -38 -50 -5 0 -8 18 -8 40 0 35 3 40
24 40 20 0 23 -5 22 -30z m55 -77 c19 -9 53 -16 77 -15 27 1 42 -3 42 -11 0
-8 -22 -12 -73 -12 -48 -1 -83 -7 -104 -18 l-33 -18 0 35 c0 54 33 68 91 39z
m133 -85 c34 -56 52 -246 33 -354 -38 -212 -141 -363 -393 -579 -277 -237
-349 -313 -410 -428 -35 -66 -38 -80 -42 -168 -3 -61 0 -104 7 -118 17 -30 33
-27 21 5 -16 41 -12 63 16 89 37 34 101 35 132 2 73 -78 21 -197 -85 -197 -95
0 -153 70 -161 195 -11 174 67 320 321 602 79 88 163 185 185 214 84 113 138
225 167 349 16 73 20 262 5 325 -5 22 -5 44 -1 48 18 18 88 36 138 37 44 0 55
-4 67 -22z m-5009 -49 c39 -12 108 -41 155 -64 75 -38 176 -75 203 -75 5 0 4
7 -3 15 -7 9 -8 15 -2 15 6 0 23 14 39 31 36 39 74 59 113 59 l31 0 -17 -29
c-15 -25 -21 -28 -37 -20 -26 15 -31 6 -10 -19 55 -64 312 -92 498 -53 55 11
139 36 187 55 l87 34 67 -27 66 -26 -117 -56 c-197 -96 -374 -147 -581 -168
-180 -18 -336 14 -502 104 -37 20 -56 27 -42 16 47 -39 185 -101 270 -122 118
-30 347 -23 495 14 161 41 372 124 466 183 39 24 40 24 149 12 130 -14 131
-12 -20 -110 -129 -85 -260 -152 -410 -211 -270 -107 -462 -130 -690 -83 -69
14 -136 28 -150 31 -14 3 7 -6 46 -19 226 -77 424 -74 687 10 210 68 452 191
617 315 l75 56 110 11 c60 6 111 9 113 7 7 -7 -195 -168 -294 -234 -56 -38
-140 -90 -188 -116 -47 -25 -86 -49 -86 -51 0 -8 163 77 244 128 92 57 220
155 304 233 53 49 63 54 137 68 44 8 89 19 100 23 35 14 -102 -131 -213 -225
-194 -164 -333 -255 -552 -360 -163 -78 -316 -132 -465 -162 -137 -29 -363
-23 -550 14 -320 63 -407 50 -695 -102 -143 -76 -231 -86 -416 -46 -174 38
-276 30 -397 -29 -47 -23 -47 -23 -41 -2 31 103 102 191 195 240 94 50 119 74
155 149 19 40 34 77 34 83 0 7 21 35 46 63 87 97 263 158 489 170 139 7 139 7
70 15 -113 14 -288 -3 -407 -40 -16 -5 -16 -2 -4 34 37 104 80 157 171 207
154 85 312 103 470 54z m654 -56 l44 -56 -66 5 c-36 3 -70 8 -75 12 -10 6 36
96 48 95 3 0 25 -26 49 -56z m1744 23 c43 -16 88 -26 122 -26 30 0 55 -3 55
-8 0 -15 -68 -179 -103 -248 -49 -97 -162 -263 -242 -356 -49 -58 -75 -80
-103 -88 -76 -21 -219 -32 -326 -26 -111 7 -319 43 -390 69 l-39 13 89 49
c254 137 514 342 674 530 75 89 133 129 175 120 11 -2 51 -15 88 -29z m-117
-740 c-9 -23 -29 -54 -44 -69 -45 -43 -177 -87 -337 -112 l-80 -13 73 -1 c89
-1 199 21 291 58 l69 28 31 -152 c116 -553 58 -946 -157 -1072 -40 -24 -60
-28 -143 -31 -53 -2 -120 1 -149 7 -29 6 -55 10 -57 7 -8 -8 123 -47 179 -53
32 -3 55 -10 52 -15 -3 -4 -24 -18 -47 -29 -34 -18 -53 -21 -119 -17 -67 4
-91 11 -165 48 -71 34 -104 59 -168 124 -104 105 -150 191 -150 282 0 45 5 68
16 80 15 15 19 10 52 -58 20 -40 54 -91 77 -113 l41 -40 -41 70 c-41 70 -70
150 -70 191 0 18 12 10 68 -45 37 -36 88 -77 112 -90 l45 -24 -66 69 c-36 38
-80 91 -98 117 -36 52 -105 196 -116 238 -6 25 -4 27 61 43 83 21 212 74 283
115 65 39 163 112 157 118 -3 3 -69 -27 -148 -66 -140 -69 -277 -117 -369
-128 l-46 -5 -5 88 c-3 49 -11 104 -19 122 -13 31 -14 27 -15 -80 0 -103 -3
-120 -32 -191 -50 -121 -105 -225 -173 -328 -69 -103 -191 -236 -248 -271 -49
-31 -17 -37 39 -8 23 12 45 20 50 18 13 -5 -15 -77 -40 -103 -76 -81 -292
-106 -465 -55 -110 33 -114 33 -85 16 14 -8 61 -28 105 -43 72 -25 93 -28 212
-28 145 0 149 -3 83 -58 -43 -37 -119 -50 -251 -45 -191 8 -309 61 -460 208
-115 112 -153 196 -118 262 10 19 13 17 40 -32 32 -59 79 -123 85 -117 2 2
-10 34 -26 71 -42 91 -63 180 -55 224 4 23 20 49 42 70 l35 33 33 -74 c34 -79
59 -120 94 -151 29 -26 27 -17 -14 64 -68 135 -80 240 -45 383 28 110 93 315
129 407 35 88 22 85 216 56 179 -27 380 -18 539 23 l119 31 102 -40 c125 -49
244 -78 345 -85 l75 -5 -89 20 c-126 27 -219 57 -306 96 l-75 35 88 35 87 35
107 -35 c60 -19 146 -42 193 -50 256 -49 533 -19 635 68 46 39 54 32 31 -28z
m-951 -628 c4 -18 22 -65 40 -104 29 -64 32 -76 22 -107 -7 -20 -21 -40 -33
-45 -25 -12 -54 -69 -54 -109 0 -23 -17 -47 -82 -114 -46 -47 -105 -117 -133
-157 l-50 -71 -57 -1 c-32 0 -58 2 -58 5 0 3 7 17 16 30 9 13 18 53 21 87 6
58 10 67 55 118 90 100 213 309 270 458 20 50 34 54 43 10z m74 -633 c87 -115
188 -191 310 -232 l66 -22 -48 -20 c-27 -12 -161 -57 -300 -102 -139 -45 -256
-85 -262 -90 -5 -5 2 -9 19 -9 22 0 27 -4 22 -17 -13 -33 -99 -172 -143 -229
-25 -32 -55 -79 -66 -104 -18 -38 -22 -41 -25 -22 -5 29 -20 28 -28 -2 -3 -14
-15 -33 -26 -43 -21 -18 -21 -18 -15 19 8 51 -2 54 -25 9 -30 -62 -45 -59 -41
7 4 53 3 56 -11 38 -9 -11 -16 -25 -16 -32 0 -25 -42 -64 -69 -64 -49 0 -66
31 -66 124 1 77 3 87 53 191 45 97 54 125 68 225 24 177 60 233 158 247 l49 6
-7 -29 c-7 -28 -6 -28 39 16 26 25 89 95 141 156 51 61 103 118 116 126 22 15
23 14 44 -39 12 -29 41 -78 63 -108z m-1414 -92 c135 -128 252 -185 423 -206
l93 -12 -62 -75 c-107 -130 -233 -302 -282 -387 -36 -62 -49 -95 -53 -135 -3
-29 -13 -120 -24 -202 -24 -177 -24 -238 -3 -291 26 -65 23 -106 -9 -124 -20
-12 -33 -13 -55 -5 -26 9 -28 13 -25 61 4 58 -13 80 -22 30 -9 -47 -33 -77
-63 -77 -20 0 -24 3 -17 17 4 10 9 38 11 63 l3 45 -22 -45 c-18 -35 -28 -45
-48 -45 -17 0 -24 5 -21 15 2 8 6 33 8 55 l4 40 -15 -32 c-14 -31 -48 -58 -59
-47 -3 4 -3 29 0 58 l5 51 -21 -33 c-32 -49 -41 -43 -80 55 -19 46 -21 72 -21
251 0 211 8 263 49 321 27 38 41 39 41 6 0 -34 17 -32 24 3 3 15 15 104 26
197 26 216 44 314 74 401 26 76 47 124 54 124 2 0 41 -35 87 -77z"/>
<path d="M3253 6918 c-12 -6 -27 -23 -34 -39 -16 -39 2 -81 51 -121 34 -26 37
-34 33 -66 -7 -64 42 -116 139 -146 13 -4 16 -13 11 -40 -5 -31 -1 -40 29 -70
21 -21 53 -40 81 -47 45 -13 45 -13 39 -51 -3 -23 1 -49 8 -63 17 -31 68 -55
117 -54 l38 1 -47 14 c-49 16 -98 62 -98 93 0 19 23 43 55 56 19 8 18 9 -5 12
-125 16 -190 51 -190 103 0 15 7 33 15 40 20 17 10 30 -23 30 -35 1 -102 31
-125 58 -12 13 -17 32 -15 54 2 28 8 34 33 39 30 5 29 5 -23 28 -91 41 -132
119 -80 155 27 19 21 27 -9 14z"/>
<path d="M3686 6840 c17 -67 162 -275 179 -258 11 11 -95 185 -145 238 -34 38
-40 41 -34 20z"/>
<path d="M3900 6509 c0 -4 7 -25 15 -48 19 -56 96 -162 175 -242 60 -61 222
-189 239 -189 4 0 -62 71 -148 158 -86 87 -176 186 -201 221 -56 78 -79 108
-80 100z"/>
<path d="M3848 6073 c-36 -42 -24 -113 23 -147 31 -21 95 -20 139 3 l34 19
-71 -5 c-67 -5 -73 -4 -97 20 -27 27 -32 59 -16 101 11 31 9 32 -12 9z"/>
<path d="M6204 7901 c-22 -9 -64 -57 -64 -72 0 -4 31 -5 68 -2 57 5 75 2 109
-16 23 -11 44 -25 48 -31 3 -5 10 -10 16 -10 13 0 -34 91 -59 113 -24 22 -87
31 -118 18z"/>
<path d="M5344 7806 c-48 -21 -102 -92 -124 -164 -27 -85 -26 -105 3 -67 79
108 165 163 269 173 68 6 70 16 8 49 -49 26 -109 29 -156 9z"/>
<path d="M6201 7607 c-53 -27 -66 -60 -66 -170 0 -94 3 -107 32 -169 24 -52
40 -72 65 -84 34 -16 34 -16 102 28 38 23 62 44 55 46 -11 2 -14 27 -14 110 0
94 -3 113 -25 157 -25 49 -77 95 -109 95 -9 0 -27 -6 -40 -13z m92 -55 c28
-29 50 -82 61 -147 l7 -40 -20 25 c-12 14 -21 28 -21 31 0 11 -50 29 -78 29
-30 -1 -53 -15 -70 -45 -22 -38 -14 81 8 124 30 59 71 67 113 23z m-53 -171
c11 -22 5 -47 -14 -54 -26 -10 -40 12 -37 56 1 23 38 22 51 -2z"/>
<path d="M5425 7510 c-113 -56 -138 -223 -60 -402 5 -13 3 -18 -9 -18 -9 0
-16 -4 -16 -10 0 -5 13 -10 30 -10 16 0 75 -10 130 -21 115 -25 111 -27 153
61 28 58 29 180 2 259 -22 68 -84 137 -134 151 -48 13 -50 13 -96 -10z m126
-53 c34 -23 81 -104 94 -161 l6 -28 -34 36 c-30 31 -41 36 -78 36 -50 -1 -68
-11 -98 -60 -23 -38 -28 -102 -12 -158 9 -29 8 -33 -7 -30 -26 5 -62 87 -68
159 -8 87 8 144 56 191 45 46 89 50 141 15z m-41 -187 c11 -11 20 -24 20 -29
0 -12 -29 -41 -40 -41 -15 0 -40 31 -40 49 0 18 18 41 32 41 4 0 17 -9 28 -20z"/>
<path d="M6030 7208 c-47 -32 -49 -51 -3 -27 48 25 85 24 109 -2 32 -35 15
-131 -30 -168 -22 -18 -20 -30 4 -24 26 7 78 66 86 98 9 36 -3 89 -27 119 -27
34 -91 36 -139 4z"/>
<path d="M4525 6949 c-33 -10 -55 -34 -55 -60 0 -15 4 -14 25 6 32 33 76 32
132 0 48 -29 53 -40 23 -50 -56 -18 -63 -105 -13 -145 38 -30 48 -24 19 11
-33 38 -34 82 -4 103 31 22 41 20 77 -10 40 -34 41 -11 2 43 -28 39 -113 103
-137 103 -7 0 -18 2 -26 4 -7 2 -26 0 -43 -5z"/>
<path d="M6230 6874 c-36 -19 -92 -41 -125 -50 -84 -22 -292 -30 -383 -14 -65
11 -72 14 -66 32 6 19 5 19 -28 3 -43 -22 -76 -53 -94 -87 -24 -45 -16 -54 19
-20 l33 32 37 -49 c103 -138 301 -195 441 -127 70 34 105 80 135 174 18 56 28
71 54 85 30 16 67 58 50 56 -5 -1 -37 -16 -73 -35z m-50 -68 c0 -2 -7 -23 -15
-47 -18 -50 -56 -103 -91 -126 -24 -15 -26 -15 -52 10 -15 14 -49 36 -77 49
-43 20 -66 23 -164 23 l-113 0 -24 35 c-14 19 -20 36 -15 38 5 2 46 -4 91 -12
138 -27 322 -16 420 23 27 11 40 13 40 7z m-283 -135 c69 -17 113 -42 113 -64
0 -6 -35 -8 -87 -5 -66 3 -99 10 -133 27 -64 33 -74 42 -58 52 21 14 88 10
165 -10z"/>
<path d="M3140 4214 c-174 -32 -229 -52 -332 -121 -38 -25 -90 -54 -116 -64
-36 -14 -41 -18 -22 -18 14 -1 52 15 85 34 104 61 218 114 280 131 121 32 417
26 520 -12 11 -4 17 -4 13 0 -3 4 -39 16 -80 27 -71 19 -290 34 -348 23z"/>
<path d="M5265 4238 c-59 -34 -60 -108 -1 -108 16 0 17 3 8 12 -27 27 1 74 58
97 24 9 23 10 -10 10 -19 0 -44 -5 -55 -11z"/>
<path d="M10045 3539 c-38 -5 -104 -19 -145 -30 -372 -102 -633 -351 -736
-704 -45 -155 -44 -439 1 -558 6 -15 0 -17 -47 -17 -144 0 -247 -86 -281 -235
l-12 -54 -65 45 c-141 98 -264 137 -435 137 -215 0 -384 -70 -536 -224 -151
-151 -231 -368 -215 -581 l5 -77 -54 25 c-141 65 -295 48 -413 -45 -41 -32
-96 -113 -112 -164 -7 -22 -17 -36 -24 -33 -151 67 -244 89 -386 88 -301 -2
-581 -165 -705 -413 l-35 -69 -45 34 c-102 79 -276 108 -401 68 -76 -24 -164
-81 -208 -136 -35 -42 -86 -135 -86 -156 0 -6 -3 -10 -7 -8 -5 1 -38 18 -75
36 -152 74 -363 95 -517 52 -40 -11 -74 -19 -76 -18 -1 2 -9 24 -19 51 -75
203 -283 345 -551 377 -237 28 -529 -62 -730 -226 -30 -24 -57 -44 -60 -44 -3
0 -5 10 -5 23 0 12 -13 49 -29 82 -35 75 -111 146 -187 174 -64 25 -178 28
-237 7 l-38 -14 8 56 c29 203 -33 379 -182 521 -199 188 -450 226 -726 107
-15 -6 -16 1 -11 62 11 164 -84 309 -245 373 -45 18 -78 23 -146 24 -83 0 -88
1 -82 20 3 11 9 81 12 156 19 432 -176 797 -512 959 -150 72 -209 85 -405 85
-175 0 -250 -13 -250 -42 0 -13 9 -15 60 -9 104 12 275 7 356 -9 365 -76 618
-358 695 -775 14 -75 17 -312 5 -384 l-8 -48 60 7 c154 18 325 -78 387 -217
30 -66 37 -142 22 -230 l-8 -48 74 36 c348 165 763 -27 858 -396 14 -56 14
-180 -1 -244 -6 -27 -9 -51 -7 -53 3 -2 33 6 68 18 192 65 408 -67 436 -266 3
-25 7 -45 9 -45 2 0 32 22 68 49 138 105 278 172 445 214 113 28 314 30 411 3
187 -50 334 -162 403 -307 19 -41 38 -81 40 -91 5 -15 11 -14 69 5 53 18 87
21 218 22 175 0 249 -16 368 -81 34 -18 62 -29 62 -23 0 26 55 123 97 169 99
110 205 155 343 147 101 -6 152 -23 232 -78 33 -22 61 -39 62 -37 1 2 17 30
36 63 80 145 204 263 354 335 200 96 440 110 644 39 128 -45 122 -43 122 -25
0 30 51 117 93 160 52 51 115 83 193 97 75 13 182 -7 261 -51 31 -16 57 -29
59 -27 1 1 -3 31 -8 66 -12 78 3 218 33 317 94 308 367 514 680 514 190 0 367
-66 497 -184 l42 -39 0 55 c0 168 112 288 274 291 36 1 66 4 66 7 0 3 -7 37
-14 75 -47 225 -21 450 74 653 142 303 421 502 794 567 49 8 108 15 132 15 37
0 44 3 44 20 0 18 -6 20 -62 19 -35 -1 -94 -6 -133 -10z"/>
</g>
</svg>
