<?xml version="1.0" standalone="no"?>
<!DOCTYPE svg PUBLIC "-//W3C//DTD SVG 20010904//EN"
 "http://www.w3.org/TR/2001/REC-SVG-20010904/DTD/svg10.dtd">
<svg version="1.0" xmlns="http://www.w3.org/2000/svg"
 width="1024.000000pt" height="1024.000000pt" viewBox="0 0 1024.000000 1024.000000"
 preserveAspectRatio="xMidYMid meet">
<metadata>
Created by potrace 1.16, written by Peter Selinger 2001-2019
</metadata>
<g transform="translate(0.000000,1024.000000) scale(0.100000,-0.100000)"
fill="#000000" stroke="none">
<path d="M5790 8531 c-109 -30 -225 -95 -342 -192 l-57 -47 -147 -7 c-264 -13
-413 -60 -522 -164 -63 -61 -129 -160 -138 -208 -12 -65 -26 -18 -23 76 5 108
-4 114 -69 52 -48 -47 -75 -121 -70 -191 l3 -50 -48 0 c-59 0 -108 -22 -142
-62 -33 -39 -32 -48 8 -48 32 0 96 -26 131 -52 17 -13 14 -18 -48 -78 -75 -72
-136 -180 -156 -276 -17 -81 -8 -225 18 -298 29 -79 98 -187 180 -283 58 -67
70 -86 75 -127 18 -128 120 -243 246 -276 24 -6 61 -25 82 -42 21 -17 73 -43
116 -58 70 -25 78 -30 75 -51 -8 -54 -23 -63 -128 -76 -55 -7 -114 -15 -132
-19 -28 -6 -41 1 -110 51 -108 81 -245 222 -339 349 -44 59 -135 203 -203 321
-186 324 -201 335 -543 421 -211 53 -317 89 -445 151 -52 24 -101 43 -110 41
-11 -2 -18 -15 -20 -34 l-3 -32 -142 45 c-235 74 -456 167 -767 320 -301 149
-359 173 -415 173 -45 0 -75 -35 -75 -88 0 -121 96 -258 270 -386 l62 -46 -78
0 c-88 0 -123 -13 -142 -52 -42 -88 86 -246 277 -345 l74 -38 -45 -6 c-149
-22 -160 -121 -25 -227 47 -38 210 -119 257 -128 49 -10 44 -21 -14 -27 -66
-7 -113 -30 -128 -63 -36 -78 92 -168 324 -228 l91 -23 -53 -18 c-68 -23 -120
-68 -120 -105 0 -63 97 -119 243 -141 131 -20 123 -15 87 -50 -39 -40 -39 -73
1 -110 42 -39 115 -59 217 -59 l84 0 -26 -31 c-53 -63 -25 -125 68 -150 41
-11 228 -7 273 7 l23 6 -23 -41 c-20 -38 -21 -43 -7 -68 32 -57 131 -66 254
-23 53 18 57 18 51 2 -19 -47 -17 -80 5 -102 34 -34 126 -24 214 23 l67 35 -7
-34 c-10 -52 16 -84 67 -84 44 0 123 36 153 69 25 27 36 27 36 -1 1 -72 91
-83 162 -19 30 27 32 27 50 9 23 -23 66 -23 97 -1 24 16 24 16 18 -6 -13 -52
-97 -177 -183 -275 -50 -57 -106 -125 -123 -149 -22 -33 -36 -44 -49 -40 -34
9 -97 -16 -132 -52 -19 -20 -44 -35 -56 -35 -13 0 -69 25 -126 55 -158 83
-272 102 -407 69 -138 -34 -233 -101 -280 -196 -17 -33 -31 -72 -31 -84 0 -25
-4 -30 -66 -73 -53 -37 -85 -80 -113 -152 -25 -64 -56 -97 -119 -129 -64 -32
-124 -91 -156 -155 -29 -56 -45 -138 -30 -148 5 -3 47 8 94 24 105 35 188 38
303 8 63 -16 103 -20 175 -17 92 4 93 4 235 76 164 83 218 97 336 88 47 -3 86
-8 88 -9 1 -2 -13 -42 -32 -89 -67 -166 -114 -342 -119 -446 -1 -24 -11 -38
-43 -61 -54 -39 -65 -61 -62 -120 2 -36 -2 -55 -18 -74 -29 -38 -36 -87 -19
-137 13 -38 13 -44 -5 -74 -54 -92 -89 -247 -96 -432 l-6 -141 -33 -22 c-59
-41 -82 -106 -89 -256 -7 -143 3 -232 34 -298 11 -23 22 -50 25 -60 3 -9 16
-21 29 -26 14 -5 27 -17 30 -25 4 -9 14 -16 23 -16 9 0 27 -9 41 -20 14 -11
34 -20 44 -20 10 0 21 -5 24 -10 4 -6 24 -10 46 -8 21 1 44 -3 51 -10 20 -20
84 -14 113 11 31 27 34 62 11 133 -16 46 -16 60 -2 170 8 65 18 156 22 201 l6
82 100 132 c54 73 139 181 189 240 76 91 96 108 127 114 20 4 49 13 64 21 27
14 28 14 28 -13 -1 -78 -22 -161 -65 -253 -41 -88 -46 -107 -46 -168 0 -82 10
-112 48 -141 20 -17 36 -21 58 -17 16 4 41 8 55 11 111 20 136 27 156 46 12
11 25 31 28 44 3 13 20 34 37 46 35 25 103 126 141 209 l25 56 79 17 c103 22
276 78 361 118 37 17 92 39 121 50 67 23 211 119 262 175 78 84 114 190 129
373 8 102 2 263 -14 366 -9 55 -51 221 -69 271 -13 37 -13 43 2 58 12 12 17
35 18 80 1 56 5 69 31 103 85 107 188 297 228 420 15 47 20 52 53 58 21 3 55
18 76 32 34 22 41 23 50 11 12 -17 223 -255 643 -729 155 -175 311 -352 346
-394 l64 -75 5 -80 c4 -65 10 -87 34 -126 50 -81 137 -106 214 -63 54 30 74
72 68 139 -5 45 -11 59 -38 83 -31 28 -37 29 -91 23 l-59 -6 17 43 c39 101
120 189 359 389 196 165 303 308 344 461 30 111 25 257 -13 367 -22 65 -23 77
-11 91 8 8 14 20 14 26 0 6 16 30 35 53 21 26 35 53 35 69 0 16 9 36 19 45 11
10 22 28 25 42 6 23 10 24 89 25 45 1 139 3 210 5 l127 3 -7 -27 c-28 -101 34
-182 147 -190 55 -4 69 -1 133 31 77 38 171 121 245 216 l42 53 -42 47 c-109
118 -243 204 -338 217 -132 18 -235 -84 -196 -193 l14 -39 -167 -12 c-249 -18
-231 -21 -231 34 0 38 -5 51 -30 74 -17 16 -47 34 -68 41 -20 6 -41 15 -46 20
-5 5 2 32 17 66 69 155 74 283 17 436 -48 129 -157 255 -395 459 -125 107
-186 181 -220 265 -13 32 -23 59 -21 60 2 2 17 -2 34 -8 40 -14 94 3 122 38
43 54 34 152 -17 192 -116 92 -273 -9 -273 -175 0 -35 -9 -49 -82 -129 -89
-98 -498 -574 -642 -748 -49 -59 -94 -106 -100 -103 -70 28 -136 60 -136 66 0
4 18 12 40 19 47 14 75 50 66 86 -5 21 -1 27 31 40 76 32 106 83 80 135 -14
27 -13 29 9 34 13 4 44 26 69 49 37 36 45 50 45 80 0 25 -6 40 -20 50 -20 14
-18 16 44 61 105 74 142 150 97 193 -19 18 -17 19 47 73 88 74 134 139 140
199 3 34 0 50 -11 60 -14 11 -8 21 45 84 121 144 157 287 71 287 -13 0 -23 3
-23 6 0 3 18 26 39 52 60 71 111 175 111 227 0 69 -35 89 -103 60 -13 -5 -7
12 23 67 55 103 81 182 83 253 2 76 -13 105 -55 105 -35 0 -28 6 -367 -349
-122 -128 -177 -179 -184 -172 -23 23 -48 8 -127 -79 -45 -49 -85 -90 -89 -90
-4 0 -12 19 -18 42 -11 41 -11 42 35 95 26 29 54 55 62 58 21 7 76 91 95 145
24 67 21 182 -6 255 -29 78 -82 158 -133 200 -23 19 -52 43 -66 55 l-25 20 30
-6 c17 -3 54 -17 84 -30 29 -13 55 -24 57 -24 12 0 0 40 -28 92 -49 92 -144
163 -263 194 -70 19 -207 16 -285 -5z m239 -41 c85 -12 175 -57 235 -119 49
-49 57 -73 18 -52 -36 19 -140 30 -199 21 -69 -11 -89 -26 -29 -22 59 5 112
-24 194 -106 46 -45 79 -90 102 -137 34 -67 35 -75 35 -180 0 -95 -3 -116 -22
-150 l-22 -40 -1 43 c0 45 -22 99 -49 119 -25 18 -26 7 -2 -23 25 -32 28 -107
6 -160 -16 -39 -72 -114 -84 -114 -5 0 -16 18 -26 40 -10 22 -24 45 -32 51
-20 17 -16 35 11 47 31 14 96 71 96 85 0 6 -12 -1 -27 -16 -16 -14 -45 -33
-67 -42 -37 -16 -38 -16 -31 2 43 103 48 123 48 188 0 49 -6 84 -21 116 -25
56 -48 76 -26 22 12 -28 15 -61 12 -128 -3 -79 -8 -98 -38 -153 -41 -77 -130
-161 -202 -191 l-51 -21 52 55 c29 30 66 84 82 120 32 67 49 168 34 202 -6 13
-10 0 -15 -44 -14 -133 -123 -279 -256 -344 -35 -18 -67 -29 -70 -26 -3 3 9
30 26 60 36 64 48 138 31 190 -23 70 -108 115 -185 97 -57 -13 -67 -29 -13
-23 88 10 157 -37 157 -106 0 -29 -5 -33 -102 -80 -189 -90 -346 -131 -500
-131 -68 1 -108 6 -148 21 -94 34 -97 34 -55 -4 22 -19 54 -59 70 -88 38 -70
46 -188 20 -285 -21 -79 -35 -90 -35 -30 0 54 -30 139 -61 172 -36 38 -38 28
-7 -32 34 -69 35 -87 3 -156 -69 -150 -29 -332 92 -424 42 -32 42 -32 16 -38
-42 -11 -110 4 -165 38 -48 29 -60 43 -146 172 -11 17 -12 15 -6 -13 l6 -33
-52 0 c-35 0 -65 -7 -90 -21 -36 -20 -90 -90 -90 -116 0 -30 -21 -8 -78 80
-115 178 -142 253 -142 392 0 155 57 292 168 403 35 35 55 61 45 58 -13 -4
-29 5 -51 29 -18 19 -51 40 -73 47 l-41 12 29 15 c31 16 125 21 160 8 22 -8
22 -8 8 27 -8 19 -15 50 -15 69 0 44 25 126 48 154 17 22 17 22 18 -38 1 -41
10 -83 30 -132 l29 -71 7 49 c10 74 70 185 132 247 98 98 218 145 450 178 82
11 151 18 154 16 2 -3 -11 -18 -29 -33 -18 -15 -45 -38 -59 -51 l-25 -23 40
19 c22 11 102 63 177 116 206 145 312 197 438 215 77 12 87 12 159 1z m1011
-439 c0 -79 -62 -234 -144 -358 -67 -103 -225 -282 -319 -364 -117 -103 -122
-108 -33 -48 100 68 222 182 299 279 59 75 119 119 164 120 12 0 25 -5 28 -10
11 -18 -25 -108 -75 -184 -76 -116 -319 -358 -450 -448 -14 -9 -20 -17 -14
-17 25 -2 202 128 289 211 84 80 100 91 133 92 35 1 37 0 34 -28 -7 -68 -90
-184 -217 -304 -84 -81 -217 -183 -279 -214 -23 -12 -35 -23 -29 -25 20 -7
147 66 251 145 95 72 115 81 127 62 25 -41 -106 -194 -245 -287 -72 -48 -133
-83 -145 -83 -3 0 -5 26 -5 59 0 32 -7 77 -15 101 -13 37 -13 43 0 57 30 29
47 75 41 107 -9 46 -9 47 11 98 17 45 17 49 0 80 -15 30 -15 37 -2 73 8 22 14
49 15 60 0 27 -27 65 -47 65 -15 0 -14 -2 0 -18 33 -37 17 -102 -46 -184 -43
-56 -40 -60 13 -18 41 33 50 31 50 -12 0 -35 -23 -83 -58 -120 -28 -31 -23
-51 6 -25 10 10 22 17 25 17 13 0 7 -51 -8 -80 -18 -34 -30 -38 -39 -12 -4 9
-25 47 -47 84 -32 52 -42 81 -46 127 -6 59 -5 62 30 100 86 95 150 233 164
353 6 46 10 52 77 108 85 69 237 225 365 372 51 59 98 109 104 111 19 7 37
-13 37 -42z m-5360 -251 c28 -11 144 -69 258 -130 329 -174 604 -285 882 -356
105 -27 138 -39 150 -57 31 -46 127 -141 185 -182 72 -52 202 -117 347 -174
118 -47 215 -110 293 -190 83 -86 82 -53 -2 46 -57 68 -154 130 -283 183 -199
81 -304 140 -411 232 -58 49 -134 149 -128 167 2 5 29 -5 59 -24 90 -56 294
-131 473 -175 315 -76 330 -88 484 -370 44 -80 95 -170 113 -200 113 -186 311
-404 452 -497 l78 -52 -49 -35 c-27 -20 -60 -51 -73 -68 -61 -80 -108 -212
-108 -304 0 -48 -6 -57 -31 -43 -13 6 -19 21 -19 42 l0 32 -20 -32 c-10 -17
-28 -37 -39 -42 -52 -28 -111 3 -111 59 l0 30 -37 -24 c-48 -31 -103 -42 -134
-25 -32 16 -39 28 -39 66 0 24 7 37 25 49 14 9 24 18 22 20 -2 2 -32 -5 -68
-16 -105 -32 -199 -22 -207 24 -8 42 8 66 61 91 47 23 49 25 17 19 -166 -27
-220 -24 -252 17 -25 30 -23 43 13 83 23 27 43 37 84 46 30 6 57 14 59 18 2 4
-46 6 -108 4 -133 -4 -186 10 -186 51 0 34 26 53 100 73 36 10 69 21 75 26 5
4 -32 8 -82 8 -151 0 -264 32 -271 77 -6 40 20 51 115 47 80 -3 84 -2 43 7
-157 38 -205 54 -244 83 -44 34 -58 74 -33 95 12 9 31 7 88 -9 105 -29 128
-24 39 8 -143 52 -209 105 -196 157 9 36 42 40 124 15 39 -12 79 -20 89 -17
13 3 10 6 -12 12 -59 15 -171 74 -208 110 -64 62 -43 108 60 130 l58 13 -58 1
c-61 1 -110 -17 -121 -44 -17 -45 -6 -78 38 -121 l44 -42 -24 -23 c-13 -12
-24 -32 -24 -43 0 -29 34 -81 64 -102 25 -16 26 -17 9 -45 -14 -24 -15 -34 -6
-59 11 -29 10 -30 -16 -30 -15 0 -100 9 -190 20 -201 25 -460 79 -606 125
-314 102 -506 256 -367 295 76 21 170 12 274 -25 174 -62 460 -126 623 -139
82 -6 92 -9 -210 64 -336 82 -547 161 -715 268 -127 80 -210 173 -210 234 0
49 42 57 199 37 70 -9 104 -20 181 -59 205 -104 461 -193 737 -255 194 -45
237 -44 68 1 -506 133 -949 346 -1156 553 -108 110 -167 239 -127 279 17 17
40 15 98 -8z m4020 -130 c0 -22 -43 -94 -82 -136 l-41 -44 54 0 c35 0 71 8
104 23 28 13 74 26 103 30 72 8 162 51 208 98 21 21 43 39 49 39 17 0 59 -83
85 -165 17 -57 23 -110 31 -280 4 -115 13 -224 18 -242 5 -18 29 -68 54 -111
57 -102 77 -162 77 -231 0 -149 -79 -295 -228 -425 -79 -68 -172 -117 -287
-152 -79 -24 -108 -27 -235 -28 -142 -1 -240 11 -322 40 -62 22 -43 -2 25 -30
93 -40 161 -56 269 -63 91 -6 97 -7 87 -25 -6 -10 -9 -38 -7 -61 4 -44 5 -42
33 36 22 62 50 66 40 5 -11 -66 -52 -184 -99 -283 -41 -87 -179 -300 -231
-358 l-25 -28 -77 16 c-43 9 -114 19 -158 22 l-81 6 -15 100 c-13 86 -13 106
-2 140 8 22 12 45 9 51 -3 6 -8 1 -11 -11 -10 -33 -23 -28 -31 12 -3 19 -10
38 -15 41 -15 9 -12 -37 17 -276 l6 -55 -73 -17 c-40 -10 -76 -21 -80 -25 -5
-5 67 -8 159 -9 143 0 193 -5 346 -32 l179 -32 35 41 c82 95 164 124 222 79
l25 -20 -32 0 c-41 0 -52 -18 -16 -26 15 -3 44 -10 63 -15 48 -12 180 -12 180
1 0 6 -18 28 -40 50 l-40 40 53 0 c28 0 86 3 127 5 l75 5 65 -60 65 -60 -44 0
c-37 0 -53 7 -90 38 -80 65 -87 67 -31 9 l54 -57 -30 0 c-19 0 -39 9 -54 25
-34 36 -97 78 -111 73 -9 -3 -5 -11 10 -24 67 -58 81 -74 81 -93 0 -23 -32
-51 -86 -73 -98 -40 -93 -37 -52 -37 20 -1 48 3 62 9 22 8 26 7 26 -9 0 -31
-48 -80 -91 -92 -54 -17 -50 -33 7 -24 43 6 45 5 35 -14 -14 -26 -58 -60 -88
-67 -34 -9 -28 -27 7 -22 67 10 5 -44 -72 -62 -65 -16 -187 -7 -263 18 l-57
20 -116 -29 c-189 -46 -315 -63 -452 -62 -200 1 -319 37 -385 114 -156 186
-206 701 -90 929 66 129 165 190 348 210 49 6 97 15 107 20 26 14 50 72 50
123 0 40 -6 53 -50 106 -50 60 -50 61 -34 86 21 31 14 31 -32 0 -73 -50 -214
-28 -298 46 -157 138 -123 389 53 389 44 0 49 -3 103 -64 95 -106 194 -134
285 -81 23 14 43 30 43 36 0 5 -18 16 -41 25 -51 21 -104 89 -125 162 -19 63
-16 234 4 254 9 9 10 -4 5 -58 l-6 -69 32 30 c18 16 46 59 64 95 30 60 32 72
32 165 0 89 -3 106 -27 155 -15 30 -26 56 -24 58 2 1 33 -2 70 -8 151 -27 445
50 586 153 39 29 50 32 50 17z m734 -127 c-9 -50 -28 -97 -56 -135 -23 -33
-11 -30 31 6 20 18 17 8 -18 -59 -24 -44 -61 -104 -84 -134 l-42 -55 -5 114
-6 113 54 51 c30 28 68 70 84 94 36 53 51 54 42 5z m952 -568 c74 -52 43 -165
-46 -165 -48 0 -75 32 -68 80 6 39 -7 39 -21 -1 -16 -46 3 -158 38 -227 37
-73 101 -146 232 -263 225 -201 302 -293 357 -422 24 -55 27 -75 27 -182 0
-88 -5 -136 -18 -179 l-18 -58 -52 4 c-29 2 -69 13 -90 23 -32 15 -37 22 -32
39 3 12 9 62 12 112 13 218 -53 374 -252 594 -133 146 -184 215 -220 293 -42
90 -54 159 -34 184 9 11 10 14 2 9 -20 -11 -16 42 7 91 32 71 122 106 176 68z
m-217 -305 c31 -108 86 -192 232 -351 58 -65 123 -143 143 -174 79 -118 118
-240 119 -370 1 -90 -21 -225 -37 -230 -6 -2 -24 -6 -40 -10 -29 -6 -73 -44
-92 -78 -9 -16 -23 -13 -165 48 -274 118 -396 155 -587 179 -97 13 -119 20
-240 77 l-133 64 183 216 c158 186 291 340 538 625 30 35 57 60 61 56 3 -4 11
-27 18 -52z m-555 -26 c58 -22 -42 -140 -181 -212 -44 -23 -84 -42 -87 -42 -4
0 3 19 15 42 12 23 27 60 33 82 11 38 18 43 106 87 52 26 96 48 97 48 1 1 8
-2 17 -5z m-4191 -169 c117 -35 574 -93 666 -84 14 2 56 -12 94 -30 62 -31 66
-35 52 -51 -22 -25 -18 -64 10 -92 26 -26 119 -58 168 -58 l28 0 -22 -29 c-16
-22 -20 -38 -16 -64 l5 -35 -81 -16 c-324 -64 -773 -61 -928 5 -120 52 -97 92
79 139 80 22 88 22 195 9 124 -15 475 -17 547 -2 37 7 12 10 -135 16 -417 15
-733 70 -909 159 -59 30 -106 68 -106 87 0 47 246 79 353 46z m4057 -93 c22
-17 22 -19 6 -49 -25 -49 -103 -97 -181 -112 l-45 -8 0 32 c0 51 50 106 118
131 73 27 75 28 102 6z m-1561 -112 c38 -48 27 -51 -55 -14 l-59 27 30 13 c44
19 49 18 84 -26z m1297 -75 c-8 -13 -30 -29 -48 -35 -30 -11 -33 -16 -33 -55
0 -52 -23 -80 -77 -97 -21 -6 -38 -17 -38 -25 0 -20 -45 -16 -65 7 -10 11 -26
22 -36 25 -31 10 -22 22 26 35 52 15 205 112 250 160 32 34 47 24 21 -15z
m158 -11 c21 -20 20 -26 -4 -56 -25 -32 -85 -57 -153 -62 -28 -3 -54 -6 -57
-6 -12 -3 38 -19 61 -19 54 -2 63 -57 13 -79 -14 -7 -42 -12 -62 -12 -27 0
-33 -3 -22 -10 31 -19 2 -18 -53 2 -62 22 -63 27 -14 44 40 13 77 67 77 110 0
29 5 36 34 48 19 8 39 24 46 35 9 17 20 21 65 21 35 0 59 -5 69 -16z m-2921
-169 c20 -8 52 -15 72 -15 40 0 41 -2 19 -35 -9 -14 -14 -39 -12 -61 4 -55 50
-84 129 -84 58 0 58 0 53 -27 -17 -86 73 -135 195 -108 27 6 31 4 31 -15 0
-26 18 -61 39 -77 14 -10 13 -15 -14 -43 -92 -97 -298 -213 -370 -208 -34 3
-41 7 -44 28 -6 47 26 85 103 124 69 34 231 154 222 164 -3 2 -38 -17 -78 -42
-193 -124 -418 -201 -513 -175 -44 12 -45 32 -6 86 23 32 39 43 77 52 80 20
305 133 292 147 -2 1 -59 -20 -127 -47 -215 -86 -412 -124 -531 -101 -99 18
-115 49 -57 107 25 25 45 35 83 40 147 21 391 91 471 135 21 12 29 18 18 14
-80 -26 -378 -94 -458 -104 -139 -18 -309 -9 -370 18 -77 34 -73 63 12 106 35
18 71 25 153 29 173 11 509 69 557 97 9 5 17 10 17 10 1 0 18 -7 37 -15z
m2354 -77 c-3 -40 -17 -113 -32 -162 -14 -49 -24 -91 -21 -93 11 -12 58 169
63 245 5 71 8 82 24 82 30 0 41 -35 34 -108 -6 -56 -44 -227 -69 -307 -4 -11
1 -5 9 14 29 61 67 222 73 310 l7 86 24 -24 c21 -21 22 -29 16 -80 -10 -88
-70 -306 -112 -411 l-39 -95 -45 -6 c-64 -9 -99 -30 -151 -88 -43 -47 -47 -50
-87 -46 -75 8 -75 12 -7 102 133 177 232 379 262 538 22 119 21 115 40 115 15
0 16 -9 11 -72z m348 -69 c162 -67 156 -61 119 -101 -17 -18 -67 -76 -110
-128 -44 -52 -106 -126 -139 -165 l-58 -69 7 104 c8 129 -7 124 -28 -9 -9 -52
-17 -95 -18 -96 -2 -1 -24 -6 -50 -9 -56 -8 -60 1 -29 62 50 98 121 359 121
444 0 28 2 29 33 23 17 -4 86 -29 152 -56z m252 -110 c147 -67 221 -91 362
-119 148 -29 248 -61 536 -169 l160 -60 -2 -41 c-1 -22 1 -40 5 -39 4 0 21 28
37 62 40 82 82 111 148 102 65 -8 94 -23 106 -54 10 -28 24 -124 25 -181 1
-33 -1 -35 -33 -38 -24 -3 -40 3 -57 19 -27 25 -48 88 -38 113 3 9 1 16 -5 16
-6 0 -11 -7 -11 -15 0 -18 -21 -20 -39 -2 -8 6 -6 -2 5 -20 10 -18 16 -34 13
-36 -7 -6 -1176 -43 -1230 -38 -9 0 -53 34 -99 74 l-82 74 -101 -5 -101 -5 53
64 c140 168 276 329 277 329 1 0 33 -14 71 -31z m-2247 -164 c0 -9 11 -27 25
-40 31 -32 82 -33 119 -4 25 20 28 20 45 5 10 -9 23 -16 29 -16 8 0 12 -25 12
-79 0 -74 -2 -81 -26 -100 -34 -27 -74 -28 -74 -2 0 10 12 44 26 75 31 68 26
99 -6 36 -29 -57 -127 -154 -163 -164 -36 -9 -57 7 -57 42 0 14 21 61 46 104
26 43 44 82 40 85 -4 4 -14 -4 -23 -18 -33 -47 -126 -139 -178 -174 -55 -39
-127 -56 -140 -35 -4 6 -2 32 5 56 10 33 25 56 60 85 25 21 61 58 78 82 28 37
38 43 72 44 22 1 52 8 68 16 36 20 42 20 42 2z m3643 -57 c36 -2 47 -7 45 -18
-5 -22 -72 -24 -129 -4 -50 18 -53 22 -44 47 5 12 12 11 43 -4 20 -10 58 -20
85 -21z m922 -57 c54 -27 104 -63 155 -110 l75 -71 -98 -94 c-144 -140 -259
-192 -335 -152 -52 27 -68 58 -64 124 1 12 20 42 42 65 l39 43 -30 18 c-66 39
-86 137 -36 184 57 54 133 52 252 -7z m-891 -10 c8 -13 -20 -45 -32 -37 -20
12 -14 46 7 46 11 0 22 -4 25 -9z m103 -38 c44 -20 56 -37 57 -81 l1 -37 -85
-7 c-47 -3 -88 -3 -92 0 -3 4 -8 27 -10 52 l-3 45 55 5 c53 6 54 6 28 18 -34
14 -38 36 -5 27 12 -4 36 -14 54 -22z m-1981 -100 c18 -16 34 -32 34 -36 0 -4
-24 -5 -52 -1 -39 5 -61 14 -83 35 l-30 29 48 0 c37 0 56 -6 83 -27z m2421
-67 c-4 -9 -11 -16 -17 -16 -11 0 -14 33 -3 43 11 11 26 -10 20 -27z m109 20
c18 -14 18 -15 -6 -20 -86 -17 -90 -17 -90 9 0 22 4 25 38 25 21 0 47 -6 58
-14z m-166 -14 c0 -17 -14 -19 -182 -25 -280 -11 -318 -10 -318 8 0 9 10 15
28 16 15 1 108 5 207 8 99 4 199 8 223 9 35 2 42 -1 42 -16z m-671 -36 c-2 -2
-209 -12 -459 -20 -250 -9 -572 -21 -715 -26 -333 -13 -325 -13 -325 4 0 19
65 22 805 46 347 11 639 22 650 23 19 3 53 -18 44 -27z m-3165 -259 c19 -40
54 -94 77 -120 23 -26 40 -49 38 -51 -20 -19 -196 -60 -300 -71 l-65 -7 -52
57 c-29 31 -52 64 -52 72 0 9 26 45 58 81 109 123 143 167 179 231 l37 64 22
-91 c13 -51 38 -125 58 -165z m3484 217 c-10 -54 -133 -79 -192 -40 l-29 18
39 18 c26 12 64 19 112 19 63 1 73 -1 70 -15z m-356 -86 c-2 -51 -6 -95 -8
-97 -7 -8 -94 51 -118 81 -25 32 -26 32 -26 9 l0 -24 -242 6 c-242 5 -398 24
-518 60 l-45 14 115 6 c63 4 257 12 430 17 297 10 381 14 406 18 7 1 9 -29 6
-90z m88 82 c27 -14 15 -37 -22 -42 -31 -5 -45 9 -34 37 6 17 29 19 56 5z
m-1560 -47 c0 -5 -9 -19 -20 -33 l-20 -25 0 26 c0 14 3 29 7 32 9 9 33 9 33 0z
m68 -24 c-50 -67 -49 -72 4 -21 48 47 59 53 91 50 l36 -3 -56 -62 -55 -63 -79
0 c-43 0 -79 4 -79 8 0 4 23 34 51 65 40 45 57 57 80 57 l30 0 -23 -31z m427
-10 c77 -22 183 -47 235 -55 133 -20 386 -28 504 -16 l99 11 33 -29 c18 -15
48 -34 67 -41 33 -12 34 -13 45 -99 16 -121 15 -264 -3 -335 -35 -136 -96
-234 -270 -430 -167 -188 -219 -267 -281 -423 -9 -22 -12 -19 -65 45 -50 61
-186 215 -669 764 -80 90 -187 211 -238 268 -100 114 -101 117 -55 177 23 30
27 32 113 36 l89 4 77 82 76 82 51 0 c31 0 109 -16 192 -41z m1167 5 c26 -10
51 -11 83 -5 39 7 45 6 45 -9 0 -9 -11 -27 -25 -40 -47 -44 -167 -21 -181 35
-8 31 3 48 25 39 9 -4 33 -13 53 -20z m-114 -21 c-2 -20 -9 -29 -25 -31 -20
-3 -23 1 -23 27 0 27 4 31 26 31 22 0 25 -4 22 -27z m132 -87 c68 -2 39 -46
-30 -46 -55 0 -98 38 -84 74 6 14 10 14 40 -5 19 -12 52 -22 74 -23z m-142 2
c-4 -39 -25 -48 -34 -14 -7 29 1 46 22 46 11 0 14 -9 12 -32z m48 -63 c16 -8
46 -15 67 -15 20 0 37 -5 37 -11 0 -7 -13 -8 -38 -4 -25 4 -54 1 -83 -9 -24
-9 -47 -16 -51 -16 -16 0 -7 49 10 59 23 14 25 13 58 -4z m113 -69 c21 -25 43
-175 37 -251 -16 -208 -107 -345 -396 -595 -260 -225 -320 -310 -328 -460 -3
-66 0 -89 12 -105 15 -19 15 -17 9 27 -5 45 -4 48 28 67 46 28 65 26 100 -8
39 -40 40 -89 1 -132 -22 -25 -36 -32 -70 -33 -52 -1 -89 25 -119 84 -30 58
-30 128 2 227 32 101 101 201 261 378 187 208 256 320 290 473 15 68 17 233 3
292 -9 37 143 69 170 36z m-4189 -70 c177 -80 269 -112 244 -86 -24 24 106
113 137 94 16 -9 -15 -44 -33 -38 -12 3 -18 0 -18 -9 0 -22 85 -54 178 -67
125 -18 306 11 452 72 32 14 39 13 90 -8 l55 -23 -105 -50 c-199 -95 -384
-141 -563 -141 -122 0 -190 16 -307 70 -47 22 -76 33 -65 24 42 -32 167 -85
237 -100 143 -31 380 -1 573 71 39 14 115 48 170 75 l100 49 89 -12 89 -12
-34 -26 c-159 -120 -401 -237 -615 -296 -133 -36 -294 -38 -432 -4 -115 28
-133 22 -22 -8 200 -54 349 -45 590 38 162 55 354 156 485 254 57 43 64 45
155 54 52 6 96 9 98 8 4 -3 -187 -157 -242 -195 -27 -18 -90 -57 -140 -87 -50
-29 -86 -53 -81 -53 15 0 206 112 267 157 29 21 93 72 143 113 84 70 95 76
166 90 l76 15 -45 -52 c-51 -59 -165 -159 -278 -244 -202 -151 -485 -284 -715
-335 -111 -25 -316 -22 -449 6 -58 12 -159 24 -225 27 -152 7 -215 -8 -345
-81 -161 -91 -240 -103 -418 -65 -118 26 -203 22 -293 -15 -35 -14 -65 -23
-67 -21 -3 3 9 34 27 70 35 70 79 112 169 161 62 32 84 60 118 146 40 102 95
146 244 193 67 22 112 29 215 33 82 4 119 8 100 13 -75 17 -248 5 -368 -26
l-28 -7 21 52 c28 71 46 94 109 137 90 60 177 84 301 80 97 -3 112 -6 190 -41z
m493 -26 l38 -50 -28 5 c-15 2 -45 7 -66 10 l-37 6 22 39 c13 22 25 40 28 39
3 0 22 -22 43 -49z m1469 25 c38 -14 90 -25 115 -25 44 0 45 -1 38 -27 -33
-135 -178 -379 -308 -520 -51 -55 -102 -67 -282 -67 -141 0 -262 16 -374 50
l-54 16 81 43 c215 115 435 288 572 450 56 66 101 101 134 104 5 1 40 -10 78
-24z m-97 -655 c-9 -17 -30 -40 -48 -51 -40 -24 -175 -67 -242 -75 -56 -8 -95
-23 -58 -24 79 -1 213 31 315 74 13 6 19 -7 37 -81 42 -180 55 -284 55 -453 0
-127 -4 -181 -18 -235 -43 -164 -116 -261 -218 -285 -49 -12 -162 -9 -218 6
-17 5 -22 4 -15 -4 13 -14 124 -42 165 -42 27 0 30 -2 20 -14 -6 -8 -31 -22
-54 -31 -56 -22 -134 -8 -232 40 -167 82 -306 298 -254 396 15 27 26 24 39
-13 13 -38 79 -138 91 -138 5 0 -9 34 -31 76 -25 48 -39 88 -39 112 l1 37 21
-29 c23 -31 133 -116 150 -116 6 0 -21 34 -60 75 -54 56 -82 97 -116 167 -64
133 -66 126 33 154 46 14 116 41 154 60 77 38 187 112 187 125 0 4 -60 -21
-132 -56 -127 -62 -259 -105 -320 -105 l-28 0 0 73 c-1 39 -7 86 -14 102 -12
27 -13 23 -8 -45 5 -85 -19 -173 -84 -303 -78 -155 -219 -338 -301 -388 -47
-29 -25 -37 29 -10 23 11 44 19 46 16 2 -2 -1 -19 -7 -38 -25 -75 -93 -108
-241 -114 -99 -5 -143 1 -247 33 -10 3 -2 -4 17 -15 56 -32 170 -53 265 -50
47 2 85 3 85 1 0 -17 -28 -46 -63 -64 -60 -32 -231 -33 -332 -1 -170 53 -355
227 -355 333 0 32 15 71 22 60 2 -3 14 -26 26 -52 13 -25 35 -57 48 -69 24
-23 24 -22 -5 41 -33 75 -55 168 -45 196 7 20 54 74 64 74 3 0 12 -17 19 -37
14 -42 91 -163 104 -163 4 0 -6 27 -23 60 -71 142 -74 225 -15 430 31 107 101
308 110 318 2 2 48 -3 102 -11 224 -35 371 -30 535 17 l78 23 84 -34 c103 -41
210 -69 296 -76 73 -6 64 -3 -96 37 -56 13 -132 39 -170 56 l-69 32 73 29 74
29 96 -30 c140 -45 273 -63 417 -56 138 6 213 24 270 64 35 25 40 26 43 11 2
-10 -4 -32 -13 -49z m-795 -522 c6 -24 23 -64 36 -91 27 -57 21 -83 -26 -127
-23 -22 -30 -37 -30 -66 0 -32 -8 -45 -59 -95 -33 -32 -85 -92 -116 -133 l-57
-76 -49 0 -50 0 16 31 c9 16 19 53 22 82 5 45 14 60 57 109 63 69 142 199 193
318 21 49 41 90 44 90 3 0 12 -19 19 -42z m73 -543 c66 -87 156 -151 262 -185
l40 -13 -40 -18 c-22 -10 -139 -51 -260 -91 -133 -43 -211 -73 -197 -76 13 -2
22 -7 20 -10 -22 -48 -66 -120 -107 -177 -28 -38 -59 -87 -68 -107 -20 -41
-30 -47 -35 -20 -3 13 -7 11 -18 -12 -21 -42 -42 -46 -34 -7 9 41 -1 39 -22
-4 -23 -48 -35 -44 -27 10 7 53 -9 61 -26 13 -25 -70 -65 -86 -101 -40 -19 23
-21 36 -17 94 3 53 13 85 46 151 33 66 45 105 57 183 19 129 29 158 65 189 36
29 116 37 105 10 -12 -32 16 -12 76 57 35 39 92 102 128 140 l64 69 22 -48
c11 -26 42 -75 67 -108z m-1148 -122 c87 -66 204 -109 312 -115 29 -2 53 -6
53 -10 0 -4 -22 -33 -48 -65 -92 -111 -212 -278 -245 -343 -31 -59 -36 -82
-57 -261 l-24 -196 23 -67 c22 -64 22 -68 5 -87 -17 -19 -49 -24 -78 -13 -12
4 -14 16 -9 56 5 38 3 49 -5 44 -7 -4 -12 -18 -12 -30 0 -33 -33 -71 -53 -63
-14 5 -15 11 -7 32 12 32 13 65 2 65 -4 0 -12 -15 -17 -32 -8 -26 -15 -33 -35
-33 -17 0 -24 5 -21 15 2 8 6 29 8 45 l5 30 -21 -32 c-11 -18 -28 -33 -37 -33
-13 0 -15 8 -9 43 l6 42 -19 -24 c-25 -31 -41 -24 -59 24 -30 82 -33 113 -26
279 5 145 9 174 27 209 26 49 41 56 50 25 l7 -23 9 25 c5 14 18 104 30 200 22
182 46 295 80 376 l21 48 52 -51 c29 -27 70 -63 92 -80z"/>
<path d="M3517 6632 c-29 -31 -21 -71 21 -110 30 -29 37 -43 38 -74 0 -47 41
-93 96 -110 33 -10 36 -14 32 -38 -8 -38 36 -87 90 -101 41 -10 41 -10 38 -53
-3 -37 0 -46 23 -64 28 -22 84 -38 107 -29 7 2 -6 10 -30 16 -24 7 -52 21 -63
32 -26 26 -22 71 9 84 34 15 27 22 -34 28 -62 6 -100 26 -116 62 -9 20 -8 28
5 43 24 26 22 29 -28 36 -62 10 -107 49 -103 89 2 23 9 33 27 37 22 5 21 7
-18 24 -81 37 -111 88 -74 128 9 10 12 18 6 18 -5 0 -17 -8 -26 -18z"/>
<path d="M3900 6592 c0 -35 127 -232 150 -232 14 0 13 4 -21 62 -57 96 -128
191 -129 170z"/>
<path d="M4095 6263 c42 -101 169 -245 293 -331 34 -24 62 -42 62 -40 0 2 -60
66 -134 141 -74 75 -153 166 -177 202 -49 72 -67 84 -44 28z"/>
<path d="M4030 5921 c-20 -38 -12 -78 21 -105 35 -30 76 -33 119 -11 40 21 38
25 -8 13 -79 -20 -142 35 -113 98 13 29 -3 33 -19 5z"/>
<path d="M6034 7478 c-22 -10 -51 -54 -43 -63 3 -2 19 -1 36 4 39 11 97 -1
134 -28 39 -29 42 -27 19 18 -35 71 -90 96 -146 69z"/>
<path d="M5294 7392 c-40 -25 -67 -65 -88 -125 -24 -72 -21 -88 12 -47 60 78
134 123 220 136 l44 7 -21 20 c-30 30 -125 35 -167 9z"/>
<path d="M6022 7225 c-12 -9 -28 -39 -37 -70 -27 -90 8 -225 71 -274 15 -12
30 -21 34 -21 16 0 120 75 108 78 -10 2 -12 20 -10 72 8 163 -79 275 -166 215z
m97 -39 c21 -22 51 -101 51 -134 0 -8 -11 -2 -29 17 -38 40 -82 42 -116 5
l-25 -27 0 36 c0 102 66 159 119 103z m-48 -142 c9 -11 10 -20 3 -32 -16 -24
-31 -25 -43 -3 -21 39 12 69 40 35z"/>
<path d="M5355 7138 c-64 -50 -84 -177 -45 -280 24 -64 24 -66 3 -70 -10 -2 7
-7 37 -12 30 -4 81 -14 113 -22 69 -18 80 -12 108 51 24 51 25 164 3 230 -10
27 -34 65 -55 86 -35 35 -45 39 -88 39 -34 0 -56 -6 -76 -22z m147 -45 c15
-15 37 -51 48 -80 23 -61 25 -75 7 -53 -21 27 -60 50 -85 50 -65 0 -112 -83
-94 -166 11 -52 10 -60 -8 -49 -46 28 -66 192 -33 262 35 74 109 90 165 36z
m-54 -142 c20 -12 11 -56 -12 -56 -23 0 -41 27 -33 49 7 18 24 20 45 7z"/>
<path d="M5924 6909 c-17 -5 -39 -18 -49 -29 -22 -24 -17 -25 21 -5 41 21 70
19 88 -7 24 -33 19 -69 -14 -121 -16 -26 -25 -47 -20 -47 22 0 80 63 85 94 9
45 -17 103 -50 116 -15 6 -27 10 -28 9 -1 0 -16 -5 -33 -10z"/>
<path d="M4593 6665 c-11 -8 -23 -24 -26 -35 -6 -25 -2 -25 23 0 24 24 60 26
99 6 32 -17 59 -46 42 -46 -19 0 -51 -39 -51 -64 0 -24 34 -76 51 -76 5 0 0
13 -12 29 -45 61 13 121 67 70 29 -27 33 -8 6 32 -52 79 -148 120 -199 84z"/>
<path d="M6074 6614 c-93 -54 -286 -80 -447 -59 -52 7 -57 9 -51 27 6 20 4 20
-35 -3 -41 -22 -81 -72 -81 -100 0 -7 11 -2 28 14 l27 26 49 -56 c68 -77 146
-113 241 -113 120 1 195 53 230 162 12 37 30 64 59 90 47 42 40 47 -20 12z
m-72 -115 c-19 -43 -66 -99 -84 -99 -5 0 -26 11 -46 25 -63 43 -126 58 -208
52 l-73 -7 -25 32 c-14 18 -24 34 -22 35 2 2 45 -4 97 -13 110 -19 224 -14
315 14 32 10 60 15 62 12 1 -4 -6 -27 -16 -51z m-163 -80 c23 -12 41 -26 41
-31 0 -4 -33 -8 -72 -8 -59 0 -83 5 -125 27 -29 14 -53 31 -53 36 0 6 32 8 84
5 62 -4 95 -12 125 -29z"/>
<path d="M5655 5477 c-21 -40 -58 -103 -82 -141 -25 -37 -42 -70 -40 -72 6 -7
98 138 136 215 45 88 34 87 -14 -2z"/>
<path d="M3444 4349 c-106 -10 -202 -44 -293 -103 -40 -27 -89 -53 -108 -58
-19 -5 -33 -12 -30 -15 10 -10 78 19 150 63 146 90 323 121 522 91 55 -9 101
-14 103 -12 6 6 -141 34 -203 38 -33 3 -97 1 -141 -4z"/>
<path d="M5238 4369 c-45 -26 -42 -90 5 -88 12 0 16 3 10 6 -30 12 2 69 47 86
8 3 2 6 -15 6 -16 0 -38 -4 -47 -10z"/>
<path d="M9339 3780 c-281 -26 -533 -173 -679 -396 -53 -81 -80 -146 -112
-264 -27 -100 -29 -297 -5 -388 9 -35 17 -64 17 -65 0 -1 -25 -3 -55 -3 -109
-3 -194 -72 -224 -183 l-17 -61 -49 36 c-112 81 -229 118 -375 117 -182 -1
-314 -56 -445 -188 -133 -132 -188 -264 -189 -452 -1 -57 -2 -103 -2 -103 -1
0 -23 10 -50 22 -69 31 -200 32 -266 1 -67 -31 -132 -95 -158 -156 -12 -28
-24 -53 -25 -55 -2 -2 -29 8 -62 22 -187 78 -397 69 -593 -27 -106 -51 -229
-169 -275 -262 -17 -33 -31 -62 -32 -64 -1 -2 -15 6 -32 18 -206 147 -485 78
-583 -143 l-23 -53 -51 28 c-116 66 -327 89 -452 50 l-60 -18 -27 63 c-92 215
-364 342 -646 299 -159 -23 -316 -91 -439 -189 l-45 -35 -11 37 c-48 161 -215
256 -367 209 l-48 -15 8 46 c19 116 -6 248 -67 342 -17 27 -59 75 -94 107
-162 152 -376 183 -606 89 -13 -5 -15 6 -15 71 -1 99 -27 160 -96 225 -66 62
-141 91 -236 91 l-73 0 8 41 c15 84 5 306 -16 388 -47 176 -104 278 -217 394
-164 166 -396 246 -630 215 -101 -14 -115 -18 -115 -38 0 -12 8 -13 42 -7 71
12 239 6 318 -11 41 -9 118 -37 170 -63 188 -91 325 -269 388 -500 23 -87 26
-115 26 -277 l1 -180 80 0 c101 0 172 -32 239 -106 60 -67 80 -129 73 -230
l-5 -77 62 29 c284 133 627 -17 717 -313 18 -58 21 -85 16 -152 -4 -44 -10
-94 -13 -109 l-7 -29 33 17 c18 10 59 20 90 22 149 14 287 -91 307 -232 3 -25
7 -45 9 -45 1 0 36 25 76 55 128 97 290 164 448 185 269 37 525 -86 616 -295
24 -56 32 -65 49 -61 97 27 187 38 266 33 90 -6 217 -42 277 -79 18 -11 34
-19 36 -17 1 2 15 30 30 61 104 217 367 279 563 132 36 -27 43 -29 43 -11 0
27 103 168 161 221 74 67 188 128 293 156 140 39 338 26 464 -30 25 -11 46
-19 47 -18 0 2 10 23 20 48 11 25 38 65 59 88 97 106 247 128 388 56 26 -13
49 -24 50 -24 2 0 3 57 4 128 0 115 3 135 30 212 37 106 86 181 167 257 151
140 361 194 561 143 92 -23 199 -78 260 -131 l44 -39 1 59 c0 136 89 227 230
237 39 2 55 7 53 16 -33 129 -35 315 -3 443 69 283 274 504 556 600 92 31 208
54 278 55 41 0 48 3 45 18 -4 21 -18 22 -129 12z"/>
</g>
</svg>
