<?xml version="1.0" standalone="no"?>
<!DOCTYPE svg PUBLIC "-//W3C//DTD SVG 20010904//EN"
 "http://www.w3.org/TR/2001/REC-SVG-20010904/DTD/svg10.dtd">
<svg version="1.0" xmlns="http://www.w3.org/2000/svg"
 width="1024.000000pt" height="1024.000000pt" viewBox="0 0 1024.000000 1024.000000"
 preserveAspectRatio="xMidYMid meet">
<metadata>
Created by potrace 1.16, written by Peter Selinger 2001-2019
</metadata>
<g transform="translate(0.000000,1024.000000) scale(0.100000,-0.100000)"
fill="#000000" stroke="none">
<path d="M2450 9104 c-70 -30 -150 -137 -150 -201 0 -29 4 -29 43 1 18 13 60
38 93 54 59 30 114 81 114 106 0 18 -23 43 -45 50 -11 3 -36 -2 -55 -10z m73
-28 c9 -23 -30 -64 -86 -93 -29 -14 -64 -34 -79 -44 -39 -28 -41 -24 -14 30
33 64 99 121 142 121 18 0 34 -6 37 -14z"/>
<path d="M2863 8979 c-226 -47 -494 -174 -712 -337 -94 -70 -262 -231 -347
-333 -143 -172 -236 -334 -331 -581 -128 -333 -171 -488 -194 -703 -14 -130
-6 -391 16 -509 13 -76 13 -81 -5 -93 -31 -22 -43 -78 -37 -172 25 -372 339
-939 799 -1442 83 -91 104 -119 97 -132 -12 -21 8 -70 46 -115 15 -18 95 -90
179 -161 83 -71 191 -169 240 -219 l88 -90 -143 -6 c-79 -3 -405 -11 -724 -17
-1147 -23 -1148 -23 -1152 -36 -4 -10 18 -11 89 -8 51 3 352 10 668 16 316 6
733 14 925 18 l350 8 47 -51 48 -51 -38 -3 c-47 -4 -62 -17 -62 -54 0 -49 28
-88 154 -218 132 -136 214 -250 275 -382 38 -82 85 -217 78 -225 -2 -2 -21 11
-43 28 -62 49 -129 79 -177 79 -55 0 -82 -25 -74 -69 l6 -30 -64 31 c-135 63
-264 77 -326 35 -18 -12 -40 -34 -47 -47 -28 -54 14 -136 86 -172 40 -20 62
-23 157 -23 102 0 115 -2 176 -31 76 -36 181 -130 233 -209 56 -83 56 -91 0
-57 -125 77 -236 61 -236 -32 0 -43 29 -85 87 -127 24 -18 42 -35 40 -39 -10
-16 -184 -41 -525 -75 -643 -65 -1003 -137 -1025 -206 -26 -82 136 -135 622
-204 119 -17 173 -31 173 -46 0 -16 -92 -55 -229 -100 -150 -48 -214 -86 -219
-133 -5 -40 20 -71 82 -100 162 -77 427 -105 1166 -126 462 -12 603 -22 583
-40 -4 -4 -58 -24 -119 -44 -150 -50 -187 -91 -124 -137 65 -49 342 -72 750
-62 146 3 291 3 323 -1 l58 -8 -51 -25 c-44 -22 -51 -29 -48 -51 5 -47 54 -54
423 -59 393 -7 1235 19 1595 48 219 17 290 36 290 78 0 25 -39 38 -175 56 -59
7 -110 16 -113 19 -3 3 1 6 9 6 8 0 50 4 94 10 44 5 251 19 460 30 524 28 740
49 946 90 149 30 194 55 187 101 -5 35 -54 57 -204 94 -74 18 -138 36 -141 38
-8 9 98 28 242 43 439 47 570 80 563 143 -7 57 -118 95 -395 136 -191 29 -272
45 -279 56 -3 5 21 16 53 24 228 64 262 81 248 124 -12 38 -153 76 -390 105
-126 16 -248 26 -635 52 -129 8 -264 21 -300 27 -64 12 -65 13 -68 46 -5 54
27 191 62 266 69 145 179 259 287 294 32 10 41 9 94 -18 136 -69 266 -37 295
70 35 129 -96 255 -276 267 -83 5 -153 -9 -241 -49 -43 -19 -63 -24 -63 -15 0
27 41 129 90 228 108 213 232 377 448 592 l120 119 624 -12 c343 -6 764 -14
935 -18 211 -4 313 -3 313 4 0 7 -107 13 -302 17 -612 14 -1247 26 -1390 26
l-147 0 128 128 c159 158 218 263 182 322 -7 11 22 47 122 150 256 262 506
600 628 845 99 201 132 362 85 414 -15 17 -15 22 15 87 189 421 223 971 78
1255 -22 44 -67 82 -89 76 -14 -3 -21 18 -44 122 -62 282 -202 614 -343 810
-79 110 -222 264 -303 326 -156 120 -322 173 -380 120 -14 -13 -26 -9 -109 31
-127 62 -333 129 -476 155 -170 31 -480 31 -645 1 -308 -56 -547 -164 -615
-279 -25 -43 -40 -55 -91 -77 -216 -95 -490 -367 -664 -661 -30 -49 -61 -103
-71 -119 l-17 -28 -72 128 c-112 198 -185 300 -295 410 -115 115 -235 199
-368 257 -58 24 -109 55 -137 81 -95 88 -241 157 -435 206 -150 38 -282 52
-457 48 l-148 -3 -6 28 c-14 65 -143 84 -321 46z m262 -31 c42 -19 33 -52 -22
-77 -35 -15 -40 -19 -18 -15 17 3 113 8 215 11 220 6 359 -10 540 -62 206 -59
303 -113 434 -240 79 -77 133 -166 120 -199 -12 -31 -66 -19 -155 35 -137 84
-190 94 -209 43 -18 -46 -106 -26 -179 40 -22 19 -23 20 -11 1 6 -11 29 -32
50 -48 68 -48 137 -49 159 -1 16 35 37 29 171 -47 124 -70 174 -77 193 -27 11
29 -13 87 -59 143 -24 30 -42 55 -38 55 3 0 47 -21 97 -47 114 -59 221 -139
313 -234 95 -99 148 -173 265 -370 90 -152 129 -207 129 -182 0 19 152 264
223 359 157 210 337 373 512 462 57 29 60 30 67 12 22 -59 100 -40 226 54 161
119 249 146 491 146 l154 0 -51 -49 c-40 -38 -52 -57 -52 -79 0 -82 113 -71
316 31 109 55 175 71 284 70 122 -1 216 -29 443 -129 229 -101 318 -148 369
-195 43 -38 43 -38 16 -39 -18 0 -33 -9 -43 -24 -21 -31 -7 -90 37 -159 42
-67 97 -110 204 -162 68 -33 105 -59 137 -95 81 -90 158 -266 208 -472 12 -54
25 -96 27 -93 8 8 -40 208 -70 294 -44 125 -106 239 -159 293 -29 29 -82 64
-139 93 -50 25 -111 64 -135 86 -43 40 -105 145 -105 179 0 40 48 52 101 24
29 -14 30 -14 20 3 -15 30 -102 107 -152 136 -62 37 -331 160 -451 207 -136
53 -219 72 -318 72 -107 0 -147 -10 -291 -78 -125 -58 -227 -89 -259 -79 -38
12 -25 54 32 108 51 47 52 50 33 64 -16 12 -50 14 -190 10 -235 -6 -313 -30
-460 -141 -113 -86 -176 -109 -199 -73 -9 13 -6 27 14 64 28 54 86 99 188 148
303 147 741 191 1116 114 201 -42 467 -147 534 -211 35 -35 41 -32 16 7 -42
64 53 72 174 15 94 -44 175 -105 278 -211 245 -252 403 -558 517 -1004 34
-132 36 -142 22 -180 -17 -47 -19 -138 -5 -255 13 -110 10 -117 -41 -116 -98
2 -112 -113 -38 -324 40 -115 43 -132 42 -220 -1 -171 -56 -411 -129 -569 -43
-92 -44 -114 -2 -41 48 86 85 127 133 150 65 31 79 18 72 -70 -8 -114 -87
-301 -200 -474 -69 -105 -275 -379 -359 -478 -140 -165 -312 -338 -336 -338
-26 0 -117 -44 -128 -61 -4 -6 -3 -10 2 -7 65 31 95 41 129 42 36 1 40 -2 43
-26 2 -14 -9 -50 -24 -80 -28 -56 -109 -140 -384 -398 -257 -242 -404 -431
-510 -652 -27 -57 -59 -139 -71 -183 -32 -117 -33 -119 -82 -145 -51 -27 -66
-23 -49 15 50 109 -44 170 -199 131 -174 -45 -338 -162 -604 -433 -192 -195
-235 -233 -268 -233 -15 0 -14 7 12 57 43 84 47 107 22 132 -32 32 -94 28
-170 -10 -81 -41 -184 -143 -297 -294 -49 -66 -97 -121 -106 -123 -30 -6 -21
37 27 137 25 51 45 106 45 123 0 96 -115 90 -237 -13 -71 -60 -131 -140 -211
-282 -76 -135 -127 -193 -178 -203 -70 -13 -117 28 -147 132 -40 137 -113 209
-173 170 -24 -16 -24 -16 -48 38 -53 120 -122 190 -199 203 -31 5 -40 1 -68
-26 -29 -29 -31 -36 -27 -81 3 -33 18 -71 47 -119 45 -76 57 -116 47 -156 -14
-56 -105 -16 -146 65 -11 21 -31 69 -45 107 -31 82 -79 155 -116 177 -32 19
-80 21 -97 4 -7 -7 -12 -8 -12 -4 0 25 81 102 173 164 149 101 207 170 237
282 7 25 14 51 16 59 4 11 8 10 23 -3 67 -61 234 -76 360 -32 41 14 82 26 92
26 22 0 99 -104 187 -251 67 -112 103 -148 134 -136 9 3 51 50 94 104 96 122
348 379 514 526 181 160 411 343 805 642 606 460 899 737 1167 1106 113 155
182 268 253 414 75 157 108 245 140 382 37 157 72 212 116 185 14 -9 19 -8 23
6 21 67 28 137 31 272 2 134 5 163 24 204 19 44 23 48 50 44 37 -5 41 6 41
128 0 275 -74 622 -176 826 -176 352 -529 602 -978 693 -174 35 -370 51 -489
39 -53 -5 -97 -8 -97 -7 0 2 32 19 71 39 188 94 380 101 678 23 92 -23 169
-25 177 -4 4 8 -1 26 -10 40 -23 35 -20 54 12 66 97 38 332 -70 485 -223 42
-42 77 -74 77 -72 0 3 -19 28 -42 56 -156 185 -477 322 -554 237 -17 -19 -17
-21 0 -54 36 -66 15 -68 -184 -19 -185 45 -335 55 -460 30 -146 -30 -244 -79
-450 -226 -130 -93 -200 -130 -248 -130 -47 0 -58 30 -39 104 7 31 10 56 5 56
-4 0 -8 -4 -8 -9 0 -6 -42 -30 -92 -54 -204 -97 -390 -228 -540 -379 -85 -86
-202 -247 -233 -321 -8 -20 -17 -37 -19 -37 -2 0 -14 28 -26 63 -54 149 -144
299 -244 404 -36 39 -66 77 -66 84 -1 8 -7 25 -15 39 -13 23 -14 20 -8 -37 7
-71 -4 -93 -46 -93 -34 0 -58 17 -156 109 -144 135 -277 207 -471 255 -149 38
-268 50 -489 50 -170 0 -216 -3 -305 -23 -312 -67 -537 -184 -733 -382 -82
-83 -114 -109 -134 -109 -24 0 -25 3 -20 34 15 91 140 230 343 382 85 63 161
126 171 140 38 59 -32 80 -150 44 -65 -20 -207 -85 -207 -94 0 -3 34 11 76 30
66 31 207 74 238 74 24 0 38 -18 32 -38 -4 -12 -64 -63 -134 -114 -250 -182
-409 -369 -388 -453 6 -23 11 -25 57 -25 71 0 89 -12 89 -60 0 -41 -17 -69
-149 -241 -105 -137 -167 -291 -209 -514 -21 -115 -21 -447 1 -580 8 -49 13
-91 12 -93 -2 -2 -17 34 -35 79 -49 128 -70 237 -76 399 -7 191 -12 228 -35
251 -25 25 -35 24 -65 -8 l-26 -28 7 60 c4 33 18 101 30 150 13 50 21 92 20
93 -2 2 -15 -33 -29 -77 -22 -69 -46 -211 -46 -273 0 -30 18 -20 30 16 6 18
20 42 31 52 20 18 21 18 40 -5 18 -22 25 -80 21 -186 -2 -67 19 -240 38 -316
12 -44 39 -122 61 -172 23 -51 54 -137 70 -192 16 -55 34 -113 41 -129 7 -17
11 -41 10 -55 -2 -20 1 -22 10 -13 16 16 43 15 57 -1 6 -7 24 -83 41 -167 77
-386 233 -689 504 -977 95 -101 225 -214 425 -369 85 -65 188 -148 229 -184
l75 -65 23 -95 c31 -124 66 -230 120 -363 24 -59 44 -116 44 -126 0 -9 -39
-73 -86 -142 -47 -68 -105 -164 -129 -214 -41 -83 -85 -222 -85 -268 0 -16 -5
-18 -25 -13 -14 4 -34 2 -43 -3 -16 -8 -27 2 -73 61 -70 91 -73 97 -98 203
-26 114 -117 299 -205 415 -35 47 -101 119 -147 160 -116 105 -169 196 -123
214 19 7 77 -17 121 -50 18 -14 33 -22 33 -19 0 15 -90 136 -170 229 -110 128
-242 255 -393 379 -163 136 -210 214 -127 211 19 -1 46 -5 60 -8 19 -5 16 -2
-10 13 -19 11 -45 20 -57 21 -47 0 -351 365 -538 645 -215 322 -352 629 -385
862 -11 80 1 163 26 184 32 26 63 -7 159 -163 28 -45 51 -47 73 -7 9 17 26 43
38 57 43 53 105 -2 145 -128 14 -44 23 -114 29 -220 16 -268 49 -342 263 -595
74 -87 92 -118 191 -326 87 -184 208 -340 291 -375 56 -23 69 -11 61 58 -5 48
-3 60 10 65 54 20 237 -137 499 -431 39 -43 135 -137 215 -209 80 -72 187
-172 239 -222 65 -62 82 -75 55 -42 -21 27 -125 129 -231 228 -105 98 -250
243 -321 321 -222 245 -353 359 -431 374 -47 10 -61 -11 -54 -82 5 -49 4 -54
-14 -54 -78 0 -252 231 -344 457 -51 125 -72 161 -161 264 -194 226 -233 316
-248 569 -10 164 -23 229 -61 305 -31 62 -65 88 -105 82 -31 -5 -31 -5 -37 48
-3 30 -22 93 -42 142 -104 250 -119 341 -92 559 9 75 15 139 14 141 -11 11
-41 -217 -40 -307 1 -132 20 -212 84 -359 63 -145 75 -220 45 -282 -12 -24
-26 -45 -33 -47 -6 -2 -30 33 -53 78 -37 71 -79 121 -109 132 -5 1 -17 57 -26
123 -14 94 -16 163 -12 315 8 281 45 448 173 775 91 235 174 402 262 524 74
105 267 310 370 394 163 133 389 261 575 326 173 60 370 87 432 59z m808 -762
c106 -19 262 -68 337 -106 72 -37 156 -99 258 -193 92 -85 143 -109 187 -89
14 7 29 21 33 33 7 19 11 17 53 -28 87 -93 144 -190 219 -368 37 -90 52 -114
72 -115 3 0 25 35 49 78 111 204 250 357 455 501 69 49 312 191 327 191 4 0 7
-11 7 -25 0 -41 21 -74 54 -85 61 -20 167 28 321 144 38 30 81 59 95 66 36 19
335 26 457 11 284 -35 531 -121 733 -256 95 -63 261 -229 321 -320 146 -221
233 -526 254 -897 l7 -116 -31 -7 c-67 -15 -90 -87 -91 -290 -1 -77 -5 -160
-8 -184 -6 -39 -10 -44 -35 -47 -59 -6 -81 -46 -137 -250 -71 -260 -251 -592
-472 -869 -226 -282 -459 -506 -838 -801 l-65 -51 -1157 -1 -1157 -2 26 62
c72 179 170 325 310 465 84 83 110 103 140 108 158 26 347 122 473 241 20 18
94 60 170 94 163 74 478 242 553 295 32 22 37 19 37 -25 0 -57 19 -95 88 -177
75 -89 115 -171 146 -294 13 -52 29 -106 36 -120 54 -101 167 -41 254 135 56
112 78 211 78 346 0 158 -35 284 -117 417 l-26 42 78 57 c43 32 101 76 128 99
48 40 54 42 138 49 267 21 437 130 413 262 -9 48 -44 68 -132 75 -48 4 -87 14
-120 31 -71 37 -68 48 14 48 137 0 285 54 373 137 85 79 87 168 5 249 -57 57
-117 74 -268 74 l-118 0 -29 64 c-107 236 -347 410 -638 460 -115 21 -371 21
-506 1 -270 -41 -567 -147 -833 -300 l-115 -65 -59 15 c-348 90 -741 41 -1004
-125 -114 -72 -174 -158 -146 -209 15 -30 37 -38 128 -51 126 -17 194 -45 263
-107 54 -49 79 -100 79 -164 0 -48 -6 -60 -71 -158 -79 -118 -199 -356 -253
-502 -50 -137 -103 -346 -127 -501 -39 -255 -37 -675 5 -900 13 -69 9 -81 -15
-52 -7 9 -95 82 -194 162 -430 348 -594 519 -738 770 -107 188 -176 375 -222
600 -28 138 -47 181 -87 189 -16 3 -29 14 -32 27 -81 290 -101 426 -100 686 0
183 3 230 22 315 48 217 98 325 235 507 127 170 145 224 87 278 l-30 28 88 84
c98 94 186 155 317 221 140 69 320 125 471 146 100 14 471 5 577 -13z m4973
-883 c28 -42 71 -179 85 -273 17 -109 5 -410 -19 -530 -29 -140 -68 -270 -119
-403 -38 -96 -52 -121 -75 -133 -15 -8 -43 -28 -62 -44 l-34 -30 29 91 c40
122 70 303 70 419 0 87 -4 106 -41 210 -46 128 -58 209 -40 264 12 38 32 48
85 44 l30 -3 -4 168 c-3 141 0 176 14 213 21 54 47 57 81 7z m-2818 -33 c266
-29 461 -123 609 -293 44 -50 131 -194 121 -201 -1 -1 -30 -7 -63 -14 -56 -11
-252 -98 -242 -108 2 -2 33 9 69 25 110 50 171 61 340 61 172 0 236 -13 289
-57 33 -28 59 -78 59 -113 0 -17 -6 -20 -39 -20 -25 0 -63 -13 -107 -36 -311
-163 -352 -177 -554 -176 -146 0 -261 17 -399 58 l-85 26 40 18 c34 16 36 18
14 19 -39 1 -102 -32 -138 -73 -45 -51 -40 -66 8 -22 22 20 43 36 47 36 3 0
30 -27 60 -60 106 -117 276 -202 464 -231 81 -13 271 -7 330 11 46 13 105 53
101 69 -6 26 43 6 52 -21 21 -60 -48 -135 -162 -178 -73 -27 -118 -36 -304
-56 -180 -19 -227 -32 -120 -33 l73 -1 -158 -118 c-187 -140 -292 -211 -468
-317 -201 -120 -685 -369 -668 -342 5 7 35 52 68 102 98 148 186 385 200 537
l5 63 -14 -40 c-8 -22 -33 -98 -55 -170 -92 -287 -234 -498 -444 -656 -175
-132 -436 -219 -491 -163 -9 8 -16 18 -16 20 0 14 39 76 82 134 69 90 132 227
158 340 52 223 58 233 215 351 93 69 181 144 135 115 -202 -128 -288 -194
-315 -241 -13 -22 -40 -99 -59 -170 -50 -189 -71 -237 -154 -359 -41 -60 -79
-123 -84 -139 -14 -38 3 -74 41 -90 l30 -13 -95 -93 c-180 -178 -300 -396
-355 -646 -16 -69 -21 -139 -24 -295 -3 -124 -1 -195 4 -180 5 14 9 40 10 57
l1 33 38 -20 c21 -11 96 -31 167 -46 226 -44 346 -95 475 -199 98 -79 200
-223 200 -284 0 -27 -10 -26 -70 4 -123 62 -229 68 -375 20 -109 -35 -187 -42
-256 -22 -70 21 -119 57 -145 108 l-21 41 -5 -83 c-8 -149 -77 -251 -247 -368
-144 -99 -198 -169 -227 -301 -9 -39 -20 -70 -25 -70 -31 0 -87 154 -98 269
-22 220 32 406 189 650 78 122 114 196 124 251 l6 35 -18 -23 c-18 -23 -18
-23 -66 110 -134 372 -199 804 -176 1169 27 417 129 777 313 1106 72 127 181
294 261 397 96 124 95 128 -8 21 l-96 -100 0 41 c0 23 -11 62 -26 92 -48 97
-159 163 -317 189 -51 8 -102 17 -114 19 -40 8 -28 44 31 100 168 158 558 261
861 226 123 -14 225 -33 224 -41 0 -3 -40 -37 -89 -75 -49 -39 -127 -108 -172
-154 l-83 -85 75 64 c267 229 648 434 992 534 253 74 460 97 666 75z m1162
-749 c0 -16 -78 -80 -127 -105 -54 -27 -167 -62 -228 -70 -38 -5 -37 -4 23 24
35 16 106 55 158 85 52 31 104 60 116 65 30 12 58 12 58 1z m-479 -227 c33
-36 103 -69 173 -84 49 -10 56 -14 41 -22 -45 -26 -189 21 -262 86 -36 31 -36
31 -12 37 13 4 27 7 30 8 3 1 16 -11 30 -25z m-260 -51 l64 -33 -40 35 -40 35
41 0 c55 0 128 -23 233 -74 49 -24 99 -46 112 -50 22 -7 21 -9 -16 -18 -57
-14 -307 -3 -380 17 -86 24 -248 102 -240 116 5 7 40 10 105 7 86 -3 104 -7
161 -35z m-142 -652 c63 -136 85 -241 78 -376 -3 -60 -13 -137 -22 -170 -51
-186 -174 -342 -223 -282 -5 6 -22 62 -36 122 -33 135 -79 230 -151 313 -67
77 -81 102 -89 167 l-7 50 133 87 c73 48 160 107 193 132 33 25 65 45 71 45 6
1 30 -39 53 -88z m85 -1509 c-5 -5 -65 -51 -134 -102 -128 -96 -363 -280 -572
-447 -304 -243 -586 -518 -738 -718 -42 -55 -80 -95 -88 -93 -8 2 -45 55 -84
118 -38 63 -89 141 -114 173 -24 31 -44 60 -44 63 0 4 31 4 69 2 49 -4 89 -14
136 -37 81 -37 100 -38 121 -6 42 64 -64 248 -210 364 -128 102 -274 164 -461
196 -117 20 -189 41 -205 60 -23 28 6 321 40 411 l10 24 1142 0 c628 0 1138
-4 1132 -8z m377 -913 c23 -12 24 -44 4 -92 -8 -20 -12 -43 -8 -53 10 -27 84
-13 147 29 135 89 235 122 350 115 140 -9 239 -89 238 -191 -1 -47 -29 -81
-80 -98 -47 -16 -88 -7 -191 40 -72 34 -99 41 -147 41 -113 -1 -214 -52 -359
-182 -98 -87 -148 -118 -193 -118 -62 0 -67 59 -13 145 37 58 40 92 9 104 -57
21 -167 -32 -275 -133 -90 -84 -169 -201 -229 -339 -59 -136 -71 -148 -128
-141 l-45 7 -46 -72 c-37 -58 -55 -76 -90 -92 -52 -23 -89 -17 -112 17 -13 20
-13 31 -3 74 21 86 -3 101 -81 51 -50 -31 -87 -75 -170 -195 -64 -95 -121
-136 -186 -136 -30 0 -49 6 -64 21 -19 19 -20 28 -14 94 6 66 5 75 -12 83 -32
18 -80 -15 -148 -102 -131 -168 -234 -239 -346 -239 -96 0 -147 46 -170 154
-23 110 -80 179 -146 179 -44 0 -61 -26 -83 -129 -21 -100 -48 -156 -80 -164
-30 -8 -49 14 -65 73 -17 64 -38 84 -80 75 -110 -23 -113 -21 -149 98 -15 49
-35 91 -48 104 -66 60 -170 75 -200 29 -4 -6 -12 -34 -18 -63 -26 -123 -138
-195 -191 -123 -11 14 -22 48 -25 75 -8 70 -23 105 -45 105 -18 0 -49 -45 -49
-72 -1 -24 -48 -129 -77 -171 -15 -22 -54 -60 -87 -84 -69 -51 -62 -58 10 -9
82 55 135 133 168 248 26 91 49 88 61 -7 4 -27 13 -65 21 -82 27 -67 105 -69
166 -5 43 45 52 61 68 130 14 60 33 75 82 66 84 -16 134 -70 153 -164 19 -91
54 -117 136 -98 49 11 53 11 70 -11 11 -13 19 -31 19 -41 0 -32 22 -80 42 -91
55 -29 116 51 138 181 15 84 31 110 72 110 51 0 92 -53 119 -157 37 -139 89
-181 213 -171 109 9 192 69 326 238 77 97 112 122 135 99 10 -11 12 -25 5 -59
-14 -70 -12 -79 20 -112 28 -28 35 -30 85 -26 74 6 120 39 185 134 77 114 118
162 163 195 60 43 68 39 61 -25 -9 -77 0 -105 41 -122 68 -28 135 8 194 102
l42 66 43 -6 c37 -6 46 -3 68 19 14 14 36 51 49 83 64 162 148 292 251 387 77
71 174 125 225 125 42 0 43 -17 2 -77 -63 -91 -48 -173 33 -173 55 0 107 30
201 117 99 92 183 148 251 168 52 16 156 21 156 8 0 -5 -21 -17 -48 -27 -32
-13 -75 -48 -132 -105 -139 -139 -202 -292 -202 -491 0 -166 57 -290 173 -375
72 -53 138 -79 283 -111 127 -28 148 -40 117 -65 -20 -17 -73 -28 -235 -49
-43 -6 -82 -13 -87 -16 -17 -10 -9 -33 16 -50 31 -20 32 -39 3 -56 -24 -14
-192 -16 -513 -8 -191 4 -222 -3 -325 -80 -111 -82 -182 -95 -355 -64 -127 24
-229 21 -369 -10 -141 -32 -287 -36 -381 -11 -33 9 -97 36 -143 61 -45 24
-117 56 -160 71 -69 24 -92 26 -227 27 -82 1 -229 -3 -325 -7 -203 -10 -227
-4 -222 50 5 46 -26 63 -108 61 l-65 -1 67 -6 c37 -3 71 -10 77 -16 5 -5 11
-28 13 -50 3 -37 6 -41 43 -53 29 -10 70 -12 145 -8 494 28 547 22 733 -74 62
-32 137 -65 167 -74 77 -23 241 -21 360 5 192 41 226 44 345 26 221 -34 315
-21 412 59 101 83 172 94 481 74 160 -11 220 -11 280 -2 107 17 138 50 86 91
-14 11 -23 25 -20 30 4 5 37 12 74 16 200 20 265 41 260 84 -3 24 -14 30 -153
76 -206 68 -292 122 -344 215 l-24 43 27 -7 c93 -23 505 -64 552 -54 10 2 -53
10 -141 17 -144 11 -290 29 -399 47 -43 8 -58 31 -71 113 -7 40 -6 43 11 37
41 -16 220 -36 449 -51 293 -19 519 -41 645 -61 115 -18 250 -53 250 -65 0
-14 -31 -26 -142 -57 -126 -35 -162 -51 -166 -75 -7 -36 57 -53 387 -107 145
-24 250 -53 282 -79 l23 -18 -31 -16 c-47 -25 -207 -54 -453 -82 -250 -28
-307 -39 -332 -62 -37 -33 0 -52 182 -94 149 -34 200 -65 143 -87 -139 -56
-422 -89 -1138 -132 -463 -28 -565 -42 -565 -76 0 -23 30 -31 165 -49 155 -20
176 -28 109 -43 -120 -26 -269 -37 -814 -56 -834 -31 -1350 -30 -1382 2 -8 8
7 20 55 41 37 17 67 35 67 40 0 32 -45 36 -520 42 -290 4 -500 11 -539 18 -74
14 -131 36 -131 50 0 15 63 45 145 70 107 32 145 51 145 73 0 27 -50 45 -150
52 -47 3 -283 13 -525 21 -242 8 -505 20 -585 26 -303 21 -503 66 -572 127
-50 43 2 80 209 147 139 45 196 73 217 108 30 48 -45 78 -271 107 -273 36
-448 80 -501 125 l-27 23 50 22 c134 57 442 108 1005 165 140 15 307 36 370
47 160 28 150 30 176 -22 13 -25 24 -58 26 -75 3 -28 0 -30 -62 -51 -99 -34
-247 -61 -435 -79 -206 -19 -238 -26 -90 -19 223 10 427 42 533 82 l52 20 0
-26 c0 -39 -42 -123 -85 -170 -75 -83 -233 -170 -378 -207 -84 -22 -88 -24
-46 -25 25 0 81 9 125 21 172 45 335 162 394 283 65 131 36 256 -82 358 -105
91 -118 106 -118 130 0 34 18 48 65 48 59 0 132 -39 221 -116 76 -67 82 -68
38 -9 -12 17 -31 55 -42 86 -43 123 -168 261 -291 322 -61 30 -73 32 -178 34
-94 1 -121 5 -159 23 -72 36 -97 110 -49 148 66 52 190 32 376 -60 l126 -63
-37 45 c-70 84 -74 120 -16 120 83 0 228 -117 357 -285 39 -52 73 -95 75 -95
2 0 -4 16 -11 34 -16 38 -8 51 24 41 16 -5 19 -21 24 -128 9 -188 67 -347 134
-363 20 -6 31 -2 45 16 l19 23 29 -21 c59 -44 83 -19 56 57 -28 78 -18 121 29
121 50 0 90 -52 151 -200 50 -121 110 -190 167 -190 91 0 103 93 28 219 -66
112 -66 181 1 181 64 0 129 -62 188 -180 46 -92 47 -92 75 -64 20 20 29 23 44
15 37 -20 69 -71 96 -150 41 -125 88 -168 172 -158 79 9 128 63 253 283 69
122 164 223 243 260 112 51 131 18 68 -116 -47 -99 -60 -152 -41 -175 34 -41
76 -8 198 156 123 166 269 279 359 279 48 0 51 -21 13 -94 -34 -67 -36 -92 -8
-109 37 -24 97 20 293 219 105 105 215 212 245 236 208 170 415 249 511 197z
m-3126 -642 c-4 -13 1 -43 9 -68 26 -74 15 -94 -23 -40 -20 27 -20 31 -5 80
15 50 30 73 19 28z"/>
<path d="M2933 8773 c-35 -8 -63 -19 -63 -24 0 -5 23 -9 50 -9 56 0 110 -22
110 -45 0 -20 -52 -51 -115 -70 -27 -9 -157 -36 -288 -61 -335 -63 -409 -94
-554 -228 -150 -139 -329 -414 -294 -449 7 -7 35 3 81 27 84 44 123 46 128 4
5 -40 -27 -93 -147 -243 -60 -76 -126 -168 -146 -206 -39 -74 -75 -201 -74
-258 0 -27 5 -15 19 45 35 153 75 227 227 417 116 144 143 190 143 241 0 63
-54 73 -146 26 -32 -16 -61 -27 -63 -24 -9 8 49 111 111 198 126 177 229 276
350 335 77 38 124 50 398 101 118 23 243 50 277 61 64 21 113 57 113 83 0 21
-40 56 -64 56 -15 0 -17 3 -9 11 8 8 54 10 150 6 157 -5 363 -41 505 -87 104
-33 129 -33 41 0 -230 87 -580 131 -740 93z"/>
<path d="M6214 8430 c-22 -10 -79 -42 -125 -71 -98 -61 -284 -149 -316 -149
-27 0 -29 17 -7 48 24 35 -3 28 -77 -22 -72 -48 -171 -142 -208 -196 -13 -19
4 -5 37 31 52 56 198 179 213 179 3 0 5 -12 4 -27 0 -26 3 -28 36 -27 47 1
220 81 337 156 52 33 112 68 135 78 23 10 35 19 27 19 -8 0 -33 -9 -56 -19z"/>
<path d="M4785 7989 c102 -106 137 -151 191 -247 49 -85 58 -90 18 -9 -58 115
-179 265 -258 319 -17 12 5 -16 49 -63z"/>
<path d="M8202 7538 c-19 -19 -14 -90 12 -196 22 -90 49 -214 60 -287 3 -16 3
4 1 45 -3 41 -18 129 -34 196 -43 173 -48 222 -26 230 13 5 26 -2 46 -27 35
-42 38 -28 3 18 -27 35 -43 40 -62 21z"/>
<path d="M1611 7154 c0 -11 3 -14 6 -6 3 7 2 16 -1 19 -3 4 -6 -2 -5 -13z"/>
<path d="M8515 7090 c3 -14 9 -47 15 -73 28 -131 3 -412 -55 -623 -13 -48 -22
-90 -20 -92 7 -7 55 162 76 265 38 192 35 428 -6 518 -13 26 -14 27 -10 5z"/>
<path d="M8430 5970 c-22 -80 -109 -283 -166 -384 -102 -183 -242 -364 -410
-533 -50 -51 -84 -88 -75 -84 29 16 195 184 268 272 142 169 270 383 340 569
31 81 64 192 58 198 -2 2 -9 -15 -15 -38z"/>
<path d="M8305 5202 c-88 -170 -205 -318 -445 -567 -80 -82 -154 -161 -164
-175 -11 -14 73 67 185 180 236 236 343 372 426 538 31 62 54 114 52 116 -2 3
-27 -39 -54 -92z"/>
<path d="M7254 4542 c-78 -74 -171 -144 -429 -327 -66 -47 -138 -102 -160
-122 l-40 -36 50 37 c235 170 375 245 462 246 50 0 59 -10 39 -48 -25 -49
-130 -137 -345 -290 -384 -274 -491 -369 -652 -585 -133 -177 -186 -290 -156
-331 13 -18 17 -18 48 -6 19 8 109 88 204 180 222 217 290 270 345 270 15 0
20 -6 20 -26 0 -60 40 -81 90 -47 14 9 73 63 131 119 59 57 119 106 134 110
65 16 47 -46 -63 -213 -8 -13 -12 -23 -9 -23 2 0 31 39 63 86 46 69 58 95 58
128 1 35 -2 41 -21 44 -37 5 -84 -27 -200 -140 -87 -85 -117 -109 -135 -106
-19 2 -24 11 -28 43 -5 38 -7 40 -41 43 -56 5 -142 -61 -340 -258 -184 -184
-221 -212 -241 -192 -44 44 184 383 370 550 98 88 209 173 462 353 266 190
359 285 329 340 -10 19 -18 21 -67 17 -32 -3 -66 -9 -77 -13 -11 -4 7 13 40
39 91 72 201 173 225 206 12 17 20 30 18 30 -2 -1 -40 -36 -84 -78z"/>
<path d="M3197 3903 c-19 -18 -2 -78 53 -188 83 -167 100 -245 54 -245 -9 0
-55 37 -102 83 -84 80 -85 80 -33 20 92 -109 143 -141 168 -107 7 10 13 26 13
36 0 34 -41 142 -85 223 -52 97 -70 154 -50 161 25 10 95 -36 172 -114 42 -42
67 -63 56 -47 -12 17 -50 57 -85 91 -80 77 -139 109 -161 87z"/>
<path d="M5691 3260 c-96 -53 -263 -214 -426 -410 -304 -365 -371 -381 -538
-128 -95 144 -143 189 -177 168 -20 -12 -16 -65 13 -156 46 -147 44 -214 -6
-214 -51 0 -112 65 -204 219 -82 136 -138 201 -176 201 -36 0 -57 -34 -56 -90
1 -25 3 -34 6 -20 2 14 6 39 8 57 7 39 29 48 63 27 37 -22 60 -53 148 -196 99
-161 154 -218 212 -218 59 0 67 80 22 226 -43 137 -35 179 25 132 15 -12 61
-72 100 -133 112 -173 177 -216 270 -180 57 21 133 95 322 316 162 189 260
285 363 354 69 47 120 66 120 45 0 -6 -14 -43 -31 -81 -52 -119 -25 -165 53
-88 l43 41 -41 -31 c-23 -17 -47 -31 -53 -31 -19 0 -12 39 20 111 48 111 23
136 -80 79z"/>
<path d="M6085 7215 c6 -3 50 -16 98 -30 180 -52 324 -151 434 -299 57 -77 56
-61 -2 19 -88 124 -226 224 -378 275 -68 23 -186 50 -152 35z"/>
<path d="M5760 6999 c-54 -22 -120 -110 -120 -161 0 -20 4 -19 43 18 61 58 72
65 129 84 58 19 67 30 43 54 -18 18 -57 20 -95 5z"/>
<path d="M5799 6790 c-44 -13 -74 -38 -99 -82 -31 -55 -32 -141 -3 -191 l21
-35 -36 -31 -37 -31 65 34 c85 46 166 66 262 66 45 0 78 4 78 10 0 6 -9 10
-20 10 -17 0 -20 7 -20 49 0 144 -96 236 -211 201z m111 -39 c14 -10 35 -32
47 -50 25 -37 40 -128 24 -144 -8 -8 -11 1 -11 32 0 25 -10 63 -22 88 l-23 45
-52 -4 c-89 -8 -140 -72 -130 -165 7 -63 -8 -78 -28 -29 -29 70 -13 168 35
211 26 23 91 45 115 39 11 -3 31 -14 45 -23z m24 -94 c15 -24 -4 -52 -35 -52
-31 0 -40 42 -13 62 21 16 34 13 48 -10z"/>
<path d="M4568 5109 c-75 -58 -182 -164 -234 -231 -59 -76 -56 -83 5 -11 52
63 192 199 256 251 58 47 36 39 -27 -9z"/>
<path d="M4155 4586 c-38 -83 -80 -212 -89 -271 -4 -22 6 3 22 55 26 85 42
127 96 253 30 69 5 38 -29 -37z"/>
<path d="M4022 3835 c-1 -92 44 -475 47 -396 0 24 -6 91 -15 149 -8 58 -19
158 -23 222 l-8 115 -1 -90z"/>
<path d="M5340 3980 c80 -4 192 -7 250 -7 l105 0 -100 7 c-55 4 -167 7 -250 7
l-150 -1 145 -6z"/>
<path d="M5827 3973 c18 -2 50 -2 70 0 21 2 7 4 -32 4 -38 0 -55 -2 -38 -4z"/>
<path d="M4615 3940 c-34 -3 27 -6 139 -8 109 -1 197 0 195 2 -8 7 -276 12
-334 6z"/>
<path d="M5190 3829 c-124 -31 -336 -69 -428 -75 -48 -4 -96 -11 -107 -15 -27
-12 134 -1 261 17 56 8 156 28 223 44 139 34 142 35 136 18 -9 -24 164 -51
335 -54 l155 -2 -132 8 c-193 13 -323 39 -323 65 0 19 -27 18 -120 -6z"/>
<path d="M5190 3755 c-53 -28 -49 -31 10 -10 39 14 44 14 55 -1 9 -13 21 -16
53 -10 24 3 43 2 47 -4 3 -5 16 -10 28 -10 17 1 15 4 -12 16 -21 9 -47 12 -67
8 -26 -5 -35 -2 -46 15 -15 25 -11 25 -68 -4z"/>
<path d="M5020 3410 c-33 -4 23 -7 140 -7 108 0 182 3 165 7 -36 9 -229 9
-305 0z"/>
<path d="M3380 2600 c0 -3 9 -29 20 -58 11 -29 27 -88 34 -130 11 -61 14 -69
15 -37 1 50 -22 143 -49 193 -10 20 -19 35 -20 32z"/>
<path d="M6280 2445 c-51 -118 -69 -302 -41 -404 17 -59 24 -46 10 19 -19 91
-7 241 28 343 33 94 34 115 3 42z"/>
<path d="M6636 2368 c-4 -13 -10 -72 -13 -133 -8 -170 24 -278 109 -371 39
-42 127 -95 157 -93 9 0 5 5 -9 10 -178 71 -268 264 -241 511 11 93 9 118 -3
76z"/>
<path d="M5704 1905 c3 -77 35 -145 98 -208 51 -51 137 -97 178 -96 17 0 9 6
-29 20 -126 44 -220 159 -242 293 l-8 51 3 -60z"/>
<path d="M8146 8944 c-20 -20 -20 -66 -1 -104 8 -16 48 -56 89 -89 41 -34 93
-82 116 -109 l42 -47 -4 75 c-6 96 -48 189 -113 249 -49 45 -100 55 -129 25z
m115 -41 c47 -42 83 -108 104 -190 8 -31 15 -61 15 -65 0 -4 -26 18 -58 50
-33 31 -84 80 -115 107 -46 40 -57 57 -57 81 0 64 50 72 111 17z"/>
<path d="M5485 8671 c-75 -45 -134 -155 -143 -263 -3 -41 -1 -68 5 -68 5 0 24
20 42 45 17 24 64 71 102 102 105 87 131 141 89 183 -25 25 -56 25 -95 1z m80
-14 c28 -21 12 -61 -48 -115 -28 -26 -76 -72 -106 -102 l-54 -55 7 45 c17 111
107 235 172 239 5 1 18 -5 29 -12z"/>
<path d="M1002 7105 c-57 -72 -25 -239 69 -370 50 -69 63 -68 53 7 -4 35 -7
122 -6 193 2 115 0 134 -18 163 -25 41 -69 44 -98 7z m85 -25 c9 -17 13 -74
12 -175 0 -83 3 -160 6 -170 13 -40 -36 28 -65 90 -51 110 -60 205 -23 263 18
30 53 26 70 -8z"/>
<path d="M1532 5044 c-27 -18 -30 -70 -7 -115 34 -65 159 -126 280 -136 l70
-6 -105 112 c-98 106 -168 161 -201 161 -8 0 -25 -7 -37 -16z m98 -34 c14 -10
63 -59 109 -109 92 -101 90 -106 -21 -71 -111 34 -188 100 -188 162 0 49 45
57 100 18z"/>
<path d="M1865 4620 c-23 -26 -13 -66 23 -83 30 -16 202 -29 202 -16 0 4 -14
24 -32 44 -60 69 -155 97 -193 55z m110 -15 c17 -9 44 -28 58 -43 l26 -27 -62
3 c-86 4 -105 9 -117 33 -24 44 31 64 95 34z"/>
<path d="M8214 4456 c-17 -8 -48 -29 -69 -47 -71 -62 -124 -153 -77 -134 9 4
61 20 114 35 53 15 108 35 123 44 63 41 48 116 -23 116 -20 -1 -51 -7 -68 -14z
m104 -38 c4 -36 -23 -53 -142 -87 l-95 -28 19 27 c49 69 132 122 185 117 24
-2 31 -7 33 -29z"/>
<path d="M1718 3983 c46 -2 118 -2 160 0 42 1 5 3 -83 3 -88 0 -123 -2 -77 -3z"/>
<path d="M7983 3963 c43 -2 110 -2 150 0 40 1 5 3 -78 3 -82 0 -115 -2 -72 -3z"/>
<path d="M8748 3963 c18 -2 45 -2 60 0 15 2 0 4 -33 4 -33 0 -45 -2 -27 -4z"/>
<path d="M1213 3953 c37 -2 97 -2 135 0 37 2 6 3 -68 3 -74 0 -105 -1 -67 -3z"/>
<path d="M1588 3850 c-155 -44 -320 -73 -518 -94 -86 -9 -115 -14 -80 -15 148
-3 448 44 634 100 113 33 138 36 130 14 -4 -9 2 -16 18 -19 12 -2 68 -14 123
-25 158 -33 255 -41 465 -39 l195 1 -189 7 c-235 9 -278 14 -449 47 -123 24
-137 28 -131 45 8 28 -39 22 -198 -22z"/>
<path d="M8690 3864 c-242 -64 -455 -100 -680 -114 -122 -8 -120 -8 45 -5 196
4 340 25 578 85 153 39 229 51 197 30 -21 -13 -6 -23 53 -36 29 -7 84 -19 122
-28 62 -14 325 -33 300 -22 -5 3 -61 10 -123 15 -141 13 -339 58 -323 74 6 6
11 15 11 19 0 15 -86 7 -180 -18z"/>
<path d="M1625 3794 c-22 -9 -78 -26 -125 -40 -65 -18 -74 -23 -38 -18 51 6
255 72 223 73 -11 0 -38 -7 -60 -15z"/>
<path d="M8710 3798 c-14 -6 -72 -23 -130 -39 -113 -30 -114 -38 -2 -14 71 15
150 41 167 57 12 11 -4 9 -35 -4z"/>
<path d="M1691 3776 c-42 -44 1 -59 91 -32 38 11 49 11 69 0 13 -7 40 -13 59
-13 34 0 33 1 -15 16 -56 16 -65 17 -150 7 l-60 -6 24 26 c14 14 20 26 14 26
-5 0 -20 -11 -32 -24z"/>
<path d="M8755 3744 c-43 -18 -51 -23 -27 -20 37 6 125 44 102 44 -8 1 -42
-11 -75 -24z"/>
<path d="M8853 3754 c4 -4 39 -8 79 -9 46 -2 64 1 48 5 -31 10 -136 12 -127 4z"/>
<path d="M7582 3580 c-72 -34 -175 -126 -204 -183 -11 -22 -18 -41 -15 -43 2
-2 33 9 68 26 42 19 99 35 168 45 120 18 166 37 186 76 21 39 19 56 -10 84
-36 37 -110 35 -193 -5z m172 -3 c12 -9 17 -23 14 -42 -4 -40 -54 -72 -126
-80 -82 -10 -178 -32 -214 -51 l-31 -16 21 29 c19 26 58 64 109 107 33 27 134
65 174 66 19 0 43 -6 53 -13z"/>
<path d="M2400 3534 c-52 -22 -77 -87 -47 -124 32 -40 49 -45 186 -51 105 -5
149 -11 194 -29 32 -12 61 -19 64 -16 12 11 -48 86 -100 125 -74 57 -158 92
-225 97 -31 2 -64 1 -72 -2z m102 -25 c69 -15 131 -47 201 -104 66 -53 73 -71
20 -48 -24 10 -85 18 -168 22 -71 4 -140 12 -152 19 -53 29 -52 85 0 107 39
17 35 17 99 4z"/>
<path d="M1572 3523 c59 -2 158 -2 220 0 62 1 14 3 -107 3 -121 0 -172 -2
-113 -3z"/>
<path d="M8130 3441 c-47 -3 104 -7 334 -9 231 -1 418 -1 415 2 -8 7 -662 13
-749 7z"/>
<path d="M1945 3245 c-30 -29 -31 -45 -5 -78 27 -34 75 -41 155 -22 36 8 82
15 101 15 44 0 43 11 -3 49 -77 63 -203 82 -248 36z m166 -10 c24 -9 55 -24
67 -34 24 -17 24 -18 -60 -30 -105 -16 -146 -12 -165 16 -13 19 -12 24 6 42
26 26 87 28 152 6z"/>
<path d="M7743 3141 c-35 -16 -73 -56 -61 -65 2 -2 36 -9 76 -16 90 -16 122
-6 122 39 0 58 -61 76 -137 42z m98 -11 c10 -6 19 -19 19 -29 0 -33 -44 -39
-115 -17 l-40 12 40 22 c45 24 68 27 96 12z"/>
<path d="M8515 3085 c-11 -2 -82 -9 -158 -16 -75 -7 -135 -14 -133 -17 3 -2
83 2 178 9 151 11 199 10 378 -4 113 -10 264 -19 335 -21 l130 -5 -100 10
c-98 9 -447 36 -555 44 -30 2 -64 2 -75 0z"/>
<path d="M1250 2859 c-228 -12 -251 -18 -45 -12 99 3 295 9 435 13 l255 6
-245 1 c-135 0 -315 -4 -400 -8z"/>
<path d="M2224 2816 c-35 -15 -64 -51 -64 -78 0 -29 37 -58 74 -58 18 0 55 12
82 27 27 14 76 34 109 43 l59 17 -27 18 c-67 44 -171 58 -233 31z m177 -23
l41 -16 -53 -17 c-30 -10 -72 -27 -94 -39 -21 -12 -49 -21 -61 -21 -25 0 -54
24 -54 44 0 14 37 51 60 59 32 12 121 6 161 -10z"/>
<path d="M7343 2669 c-56 -21 -153 -101 -153 -126 0 -9 6 -12 18 -9 60 18 119
26 208 26 87 0 105 3 128 21 37 29 36 73 -4 94 -40 21 -134 18 -197 -6z m185
-15 c12 -8 22 -21 22 -29 0 -32 -42 -45 -150 -45 -58 0 -121 -4 -140 -10 l-35
-9 39 34 c74 65 211 96 264 59z"/>
<path d="M2622 2644 c-49 -34 -6 -103 55 -91 16 4 44 9 63 12 63 11 65 13 44
37 -22 24 -90 57 -119 58 -11 0 -31 -7 -43 -16z m118 -32 l25 -16 -40 -12
c-53 -16 -68 -17 -89 -1 -20 15 -13 44 12 50 24 6 63 -3 92 -21z"/>
<path d="M8359 2416 c-2 -2 -58 -6 -123 -10 -66 -3 -121 -8 -123 -9 -1 -2 129
-3 290 -3 160 1 371 -3 467 -7 96 -5 173 -6 170 -4 -3 3 -52 8 -110 12 -58 3
-168 10 -245 16 -142 9 -318 12 -326 5z"/>
</g>
</svg>
