<?xml version="1.0" standalone="no"?>
<!DOCTYPE svg PUBLIC "-//W3C//DTD SVG 20010904//EN"
 "http://www.w3.org/TR/2001/REC-SVG-20010904/DTD/svg10.dtd">
<svg version="1.0" xmlns="http://www.w3.org/2000/svg"
 width="1024.000000pt" height="1024.000000pt" viewBox="0 0 1024.000000 1024.000000"
 preserveAspectRatio="xMidYMid meet">
<metadata>
Created by potrace 1.16, written by Peter Selinger 2001-2019
</metadata>
<g transform="translate(0.000000,1024.000000) scale(0.100000,-0.100000)"
fill="#000000" stroke="none">
<path d="M6543 7198 c-66 -36 -139 -97 -200 -168 -62 -71 -156 -211 -173 -255
-10 -27 -12 -28 -68 -21 -91 11 -188 17 -174 10 25 -12 10 -24 -30 -24 -24 0
-60 -5 -81 -11 -34 -9 -42 -8 -71 15 -32 24 -33 27 -39 124 -8 119 -21 160
-52 168 -28 7 -109 -32 -181 -87 l-51 -39 -49 15 c-59 18 -126 19 -142 3 -15
-15 -16 -105 -1 -164 9 -34 9 -47 -1 -59 -16 -19 -31 -19 -24 -1 4 11 -13 9
-83 -10 -48 -13 -97 -24 -108 -23 -12 0 -42 26 -74 66 -102 123 -320 269 -430
288 -93 16 -126 -56 -126 -275 0 -152 18 -258 64 -373 16 -40 27 -75 25 -79
-2 -3 -26 -19 -52 -33 l-47 -27 -155 13 c-194 17 -571 18 -710 1 -303 -37
-639 -136 -892 -262 l-83 -42 -130 -2 c-147 -1 -192 -16 -227 -70 -16 -25 -19
-44 -15 -106 3 -61 11 -93 47 -173 l43 -99 2 -206 c2 -216 11 -293 51 -453
124 -496 450 -951 884 -1231 281 -182 558 -292 1070 -423 518 -133 609 -162
800 -251 101 -47 108 -49 195 -49 83 0 97 3 175 39 131 59 328 112 567 151
522 85 854 204 1180 422 501 335 814 769 916 1268 20 99 22 135 19 358 -1 136
-3 275 -4 310 -2 45 5 86 26 152 35 111 40 216 13 257 -31 45 -85 59 -216 57
l-117 -1 -80 40 c-186 94 -443 158 -677 169 -89 4 -125 9 -117 17 19 19 10 29
-21 22 l-32 -6 47 41 c25 22 46 45 46 50 0 5 -17 9 -37 9 l-38 1 30 16 30 16
-25 10 c-83 32 -123 55 -173 101 l-57 51 14 52 c8 28 20 103 26 167 21 198
-20 421 -93 518 -39 51 -59 56 -114 26z m78 -10 c35 -29 71 -114 94 -224 29
-135 10 -492 -27 -515 -5 -3 19 -35 54 -71 44 -45 80 -71 114 -83 27 -10 51
-20 54 -22 8 -7 -25 -23 -48 -23 -41 0 -13 -19 38 -26 27 -4 47 -11 44 -15
-12 -19 -110 -69 -139 -70 -24 -1 -20 -3 15 -9 25 -5 56 -6 70 -3 l25 6 -20
-22 c-11 -12 -41 -36 -67 -53 -26 -17 -48 -33 -48 -35 0 -2 12 -1 28 3 26 6
26 5 7 -8 -11 -8 -41 -27 -67 -42 -26 -15 -46 -32 -45 -38 1 -6 -27 -24 -63
-39 -47 -21 -58 -29 -40 -29 23 -1 22 -3 -10 -18 -19 -9 -53 -24 -75 -35 -22
-10 -69 -30 -105 -44 -75 -28 -159 -74 -210 -113 -54 -41 -59 -43 -52 -18 3
13 -16 -5 -45 -42 -59 -77 -119 -118 -188 -126 -44 -5 -48 -4 -33 9 10 7 22
25 27 39 19 51 -63 88 -138 64 -21 -7 -23 -6 -16 10 14 36 18 200 5 253 -16
69 -21 60 -10 -19 5 -36 7 -74 4 -86 -5 -19 -7 -19 -40 14 -19 19 -34 40 -34
48 0 23 23 65 34 61 10 -4 14 13 17 81 1 15 6 72 11 127 9 89 8 106 -9 157
-11 33 -16 59 -10 61 10 3 -30 87 -62 126 -15 20 -17 30 -9 55 23 72 33 87 76
116 35 23 41 30 24 30 -12 0 -30 -10 -42 -22 -11 -12 -23 -18 -27 -14 -4 4 -1
11 6 15 7 5 11 14 7 19 -9 16 45 41 121 57 70 15 91 25 52 25 -13 0 -30 4 -38
9 -21 13 67 25 138 18 56 -5 56 -5 22 10 -18 8 -32 16 -29 18 2 2 45 -3 96
-13 89 -16 91 -17 86 -42 -3 -14 18 18 46 71 95 176 257 360 364 413 38 19 48
20 67 4z m-952 -190 c16 -44 22 -174 11 -263 -15 -126 -41 -255 -51 -255 -5 0
-9 4 -9 9 0 6 -30 31 -67 57 -38 26 -70 49 -73 51 -2 2 1 8 9 12 15 9 -42 35
-103 46 -25 5 -36 12 -32 21 5 13 -12 18 -82 26 -21 3 -11 16 77 105 97 98
188 170 254 198 45 20 56 18 66 -7z m-1088 -17 c127 -54 284 -179 408 -326 23
-28 40 -41 37 -30 -5 17 5 23 76 46 65 21 77 22 60 8 -32 -26 -27 -29 25 -13
25 8 69 14 97 14 51 -1 51 -1 21 -14 -29 -12 -29 -13 35 -19 36 -3 76 -10 90
-16 23 -9 22 -10 -13 -10 -23 -1 -36 -5 -32 -11 3 -5 17 -10 29 -10 13 0 43
-11 68 -25 53 -29 133 -100 103 -90 -13 4 -1 -13 31 -47 74 -77 104 -125 69
-112 -11 5 -7 -9 12 -47 26 -50 28 -60 25 -163 -2 -95 -5 -113 -22 -128 -29
-27 -54 -68 -46 -75 4 -4 18 6 31 22 38 49 39 22 2 -56 -33 -68 -36 -71 -43
-45 -3 15 -4 64 -2 109 5 85 -4 79 -17 -10 -8 -64 8 -147 46 -232 16 -35 29
-65 29 -66 0 -1 -18 -5 -39 -9 -26 -4 -47 -15 -60 -32 -27 -35 -27 -40 8 -75
26 -26 28 -30 13 -38 -64 -34 -132 -22 -311 53 -71 30 -171 64 -223 76 -51 12
-100 25 -108 30 -9 4 -49 11 -90 14 -41 4 -88 10 -105 14 l-30 6 35 6 c31 5
23 8 -58 24 -86 17 -127 35 -85 37 10 0 -18 12 -62 27 -44 14 -72 28 -62 30
18 4 24 22 6 22 -16 0 -139 63 -139 71 0 12 194 62 270 69 71 7 72 7 20 9 -30
0 -92 -8 -138 -19 -103 -25 -123 -25 -171 -1 -46 24 -72 51 -47 51 24 0 96 31
96 41 0 5 -18 9 -40 9 -42 0 -54 14 -21 25 39 12 102 67 136 118 l36 54 -30
64 c-89 191 -123 460 -80 624 22 82 54 92 160 46z m782 -72 c20 -5 37 -11 37
-12 0 -10 -141 -150 -146 -145 -9 10 -18 134 -11 152 7 19 63 21 120 5z m383
-185 c18 -14 40 -24 49 -21 8 4 17 3 19 -2 3 -4 -17 -13 -44 -20 -28 -7 -52
-17 -56 -22 -13 -21 -19 -6 -16 41 2 27 6 50 9 50 2 0 20 -12 39 -26z m-1252
-496 c-24 -46 -94 -111 -147 -137 -54 -26 -59 -39 -17 -47 35 -8 31 -20 -10
-29 -44 -10 -37 -32 21 -68 47 -28 49 -32 29 -37 -23 -5 -22 -6 11 -34 18 -16
44 -33 56 -39 13 -6 23 -16 23 -24 0 -13 92 -63 117 -63 7 0 16 -6 20 -13 9
-15 95 -47 126 -47 12 0 17 -5 14 -14 -7 -17 8 -21 133 -37 52 -6 97 -14 100
-18 3 -4 34 -13 70 -20 67 -13 185 -51 217 -70 14 -8 3 -10 -48 -11 -51 0 -72
4 -92 20 -34 27 -45 25 -21 -2 16 -19 16 -20 1 -9 -9 8 -20 11 -24 8 -3 -4
-13 -1 -22 6 -14 11 -14 10 -2 -6 8 -9 16 -15 19 -12 3 3 11 0 18 -6 7 -6 73
-14 146 -19 96 -5 145 -13 178 -27 25 -11 60 -23 78 -26 45 -9 117 -60 147
-105 29 -42 33 -61 8 -41 -15 13 -15 12 -5 -8 17 -31 15 -63 -5 -85 -25 -28
-43 -23 -37 10 3 16 -1 35 -10 47 -14 19 -14 17 -9 -21 5 -36 3 -43 -15 -49
-29 -8 -49 4 -105 65 -53 57 -37 56 -206 20 l-83 -17 -14 33 c-8 18 -11 40 -8
48 11 30 -14 16 -50 -26 -20 -23 -36 -45 -36 -50 0 -17 -49 -7 -85 18 -31 21
-36 22 -31 7 4 -10 -14 2 -40 27 -25 25 -42 36 -36 25 14 -27 77 -87 88 -83 5
1 24 -3 43 -10 31 -11 33 -14 27 -44 -4 -18 -9 -64 -11 -103 l-4 -70 14 84
c11 61 25 100 51 142 19 33 37 59 38 59 2 0 2 -19 -1 -42 -2 -24 0 -61 5 -83
10 -38 10 -37 11 30 l2 70 25 -50 c14 -27 43 -68 64 -90 l39 -40 -32 -36 c-18
-20 -52 -52 -77 -71 -44 -35 -150 -98 -163 -98 -11 0 -8 178 2 184 5 4 9 26 9
51 l0 45 -22 -17 c-12 -10 -53 -44 -92 -75 -39 -32 -74 -58 -76 -58 -3 0 -9
17 -13 37 -9 52 -49 126 -93 175 -20 22 -37 48 -37 56 0 25 -86 72 -154 85
-40 8 -61 16 -61 26 0 11 -17 13 -97 7 -117 -9 -121 -9 -201 0 -44 4 -67 3
-75 -6 -9 -9 -4 -10 23 -6 19 4 48 3 65 -2 l30 -8 -46 -18 c-42 -16 -143 -76
-128 -76 4 0 26 11 50 24 56 31 164 63 254 75 75 11 94 8 51 -8 -14 -6 -26
-12 -26 -13 0 -2 35 -4 78 -4 53 -1 95 -8 134 -23 66 -26 85 -43 36 -35 l-33
5 33 -17 c87 -45 178 -185 188 -289 4 -38 4 -39 -8 -14 -12 24 -13 18 -13 -55
-1 -113 -2 -116 -74 -116 -85 0 -283 -27 -369 -50 -86 -24 -83 -24 -76 -6 4
10 0 13 -13 10 -10 -2 -97 -22 -193 -45 -144 -34 -194 -42 -280 -43 -119 -1
-219 24 -279 69 -42 31 -50 32 -25 4 101 -112 336 -126 639 -38 110 32 113 32
63 0 -27 -17 -48 -33 -48 -36 0 -3 22 4 50 15 102 40 298 82 450 95 l65 6 -40
-23 -40 -23 35 -3 c19 -1 51 -5 70 -8 l34 -6 -50 -31 c-53 -34 -104 -72 -104
-79 0 -2 55 -2 122 0 l122 5 -84 -73 c-47 -40 -87 -75 -90 -78 -11 -11 198 7
243 21 26 8 47 14 47 12 0 -12 -93 -108 -144 -149 -34 -26 -65 -52 -70 -56
-27 -26 174 21 261 60 l64 29 -18 -31 c-10 -17 -46 -61 -80 -98 -35 -37 -63
-70 -63 -73 0 -10 116 22 187 52 l73 30 -21 -42 c-27 -52 -69 -113 -104 -150
-15 -16 -25 -30 -23 -33 6 -6 74 19 126 45 23 12 42 18 42 15 0 -4 -27 -38
-60 -75 -60 -68 -61 -68 -25 -54 19 9 35 13 35 11 0 -9 -132 -88 -200 -120
-81 -37 -160 -62 -255 -81 -51 -11 -55 -13 -25 -14 54 -3 12 -16 -98 -31 -109
-15 -304 -8 -402 14 -36 9 -76 18 -90 21 -14 3 -2 -6 25 -19 59 -29 56 -31
-27 -11 -173 40 -333 116 -432 204 l-29 26 22 -32 c40 -58 7 -35 -85 59 -124
127 -188 227 -215 332 -16 64 -21 52 -8 -18 13 -75 5 -83 -15 -15 -46 153 -42
324 10 476 23 67 24 77 13 132 -7 36 -10 112 -7 188 4 112 2 123 -9 97 l-14
-29 6 38 c8 49 57 168 89 218 30 45 23 52 -12 12 l-24 -28 23 40 c12 22 44 68
71 102 49 63 60 86 33 63 -9 -8 -15 -8 -15 -2 0 25 162 170 246 221 57 34 78
51 59 47 l-30 -7 23 16 c32 23 225 113 355 166 70 28 102 45 91 49 -11 4 15
18 72 38 49 18 118 50 153 72 48 29 68 36 78 29 10 -9 9 -17 -3 -41z m-739
-11 c-51 -73 34 -172 91 -104 19 22 19 22 -2 5 -63 -54 -130 38 -72 99 17 19
32 23 76 23 46 0 58 -4 82 -28 37 -37 46 -87 26 -136 -12 -30 -27 -42 -78 -66
-54 -25 -69 -28 -102 -20 -57 13 -97 57 -113 127 l-13 58 5 -49 c8 -79 65
-146 124 -146 33 0 25 -13 -28 -44 -27 -16 -47 -34 -45 -40 2 -6 -24 -27 -58
-46 -73 -42 -185 -151 -218 -213 l-24 -44 -52 56 c-28 31 -67 65 -85 75 -33
19 -33 18 6 -17 22 -20 42 -36 45 -37 3 0 23 -22 44 -50 l38 -49 -30 -43 c-41
-61 -64 -108 -59 -122 3 -6 -8 -50 -24 -96 -29 -85 -38 -157 -19 -145 6 4 10
-15 10 -49 0 -31 -4 -56 -9 -56 -5 0 -29 9 -54 20 -26 12 -77 23 -114 25 l-68
4 60 -9 c72 -10 177 -50 183 -69 3 -10 -1 -12 -11 -8 -29 11 -75 -13 -91 -48
-9 -18 -16 -37 -16 -42 0 -5 -18 -7 -40 -5 -80 8 -119 -59 -70 -120 22 -29 96
-63 158 -73 39 -6 43 -9 37 -29 -4 -11 -9 -76 -10 -143 -3 -103 -6 -127 -23
-151 -22 -30 -102 -107 -142 -135 -24 -17 -24 -17 10 -1 19 9 63 46 98 81 35
36 65 63 66 61 1 -1 7 -25 14 -53 22 -85 82 -190 82 -142 0 11 49 -61 50 -73
0 -3 -20 -5 -44 -5 -37 1 -49 6 -66 28 -13 16 -31 27 -45 27 -27 0 -55 -34
-55 -65 0 -34 29 -121 48 -144 l17 -21 61 29 c63 30 104 70 104 103 0 13 20
-3 68 -53 87 -93 237 -208 207 -159 -10 16 5 12 36 -11 52 -37 174 -88 270
-113 118 -30 215 -43 205 -27 -5 7 4 11 28 11 39 0 43 -5 21 -34 -36 -48 -6
-136 47 -136 26 0 58 27 58 49 0 10 -5 7 -13 -9 -26 -53 -97 -27 -97 35 0 18
9 44 21 59 19 25 26 27 82 24 57 -3 63 -5 84 -37 44 -66 22 -158 -49 -201 -41
-25 -117 -26 -165 -3 -40 18 -93 85 -93 116 0 11 -3 18 -6 14 -23 -22 47 -120
103 -143 115 -48 244 29 243 145 -1 25 -7 57 -15 71 -8 14 -14 28 -15 31 0 3
35 9 78 13 68 5 141 20 217 43 19 5 19 4 4 -13 -29 -33 -31 -61 -10 -109 24
-55 81 -126 115 -144 23 -13 28 -10 74 28 107 91 147 189 93 232 -34 28 -75
24 -115 -11 -28 -25 -35 -27 -40 -15 -3 9 -24 24 -47 34 -22 10 -37 21 -32 24
5 3 46 19 92 36 97 35 183 82 271 146 54 40 66 45 84 36 11 -6 47 -20 79 -31
l57 -19 24 37 c43 68 88 177 90 214 0 21 2 38 3 38 1 0 26 -17 56 -38 30 -21
73 -46 96 -56 22 -11 41 -22 41 -26 0 -4 -26 -10 -57 -13 -52 -4 -180 -44
-171 -52 2 -2 30 5 62 16 33 11 92 24 133 29 65 7 82 5 141 -16 37 -13 99 -29
139 -35 47 -8 69 -17 66 -24 -12 -32 246 -31 349 1 14 4 16 1 11 -12 -5 -13
-2 -15 16 -9 11 3 31 8 44 9 12 2 38 10 58 18 20 9 47 19 60 23 51 16 177 85
234 128 33 25 62 41 65 37 3 -5 12 -5 20 0 11 7 36 -11 99 -73 96 -93 91 -77
-7 25 l-65 67 53 58 c66 72 141 185 159 241 8 23 20 42 27 42 7 0 18 16 24 36
l12 36 70 -6 c38 -4 90 -14 116 -21 25 -8 48 -13 50 -11 9 9 -100 38 -163 43
l-70 6 3 82 c2 46 0 104 -6 129 -8 40 -6 54 14 104 13 31 24 66 24 76 0 11 7
27 15 36 9 10 23 53 32 96 17 85 28 108 50 100 8 -4 11 -1 7 5 -8 13 19 33
100 76 34 18 55 32 48 33 -23 0 -112 -50 -152 -87 l-40 -35 0 26 c0 14 5 26
11 26 15 0 2 110 -22 182 -10 32 -19 71 -19 89 0 40 -66 179 -114 242 -20 26
-34 52 -31 57 3 5 -27 43 -66 85 l-72 75 35 0 c19 0 69 -3 111 -6 l77 -7 -6
-38 c-9 -52 17 -126 73 -217 30 -49 50 -72 59 -68 96 37 190 84 222 112 40 34
70 94 57 114 -3 5 -3 10 0 10 15 0 177 -72 237 -104 35 -20 71 -36 79 -35 10
0 10 2 2 6 -57 22 92 32 186 12 77 -16 94 -44 88 -139 -5 -78 -50 -236 -60
-210 -3 8 -8 28 -12 44 -12 56 -16 17 -6 -59 13 -94 14 -235 2 -235 -5 0 -11
4 -13 8 -7 18 -68 52 -112 63 -62 15 -137 0 -200 -43 -61 -40 -96 -101 -101
-175 l-4 -58 8 51 c11 69 36 117 81 158 36 33 119 66 162 66 48 0 111 -25 150
-60 l42 -37 -12 -129 c-14 -149 -47 -301 -92 -429 -51 -144 -53 -146 -103
-139 -85 12 -136 -42 -123 -131 3 -25 12 -58 21 -74 14 -27 13 -31 -17 -72
-17 -24 -56 -75 -86 -112 l-55 -68 -21 20 c-52 48 -135 30 -164 -37 l-16 -38
-52 4 c-46 4 -56 1 -78 -21 -46 -46 -47 -122 0 -172 31 -33 29 -36 -79 -108
-235 -156 -467 -261 -932 -422 -279 -97 -359 -128 -473 -184 l-83 -40 5 32 6
32 -15 -36 c-14 -32 -32 -44 -168 -113 -221 -111 -292 -124 -409 -74 -46 20
-48 22 -32 39 22 24 12 64 -21 85 -18 12 -24 22 -19 36 3 10 -2 30 -10 43 -33
50 -104 19 -122 -52 -4 -12 -10 -23 -15 -23 -4 0 -37 15 -71 34 -98 54 -215
102 -455 186 -239 85 -365 136 -507 207 -50 25 -92 46 -94 48 -1 1 5 18 13 38
20 49 19 86 -5 124 -29 47 -73 67 -136 59 -51 -6 -52 -6 -58 25 -8 39 -58 87
-101 95 -44 8 -102 -20 -127 -62 l-20 -33 -131 88 c-73 49 -157 108 -187 132
-91 72 -218 198 -291 290 l-69 87 6 55 c6 50 4 58 -19 81 -13 13 -40 28 -59
31 -39 7 -59 39 -126 190 -63 144 -142 397 -142 458 0 18 2 17 34 -2 58 -36
132 -46 207 -27 150 39 249 154 249 290 -1 123 -95 216 -220 216 -67 0 -107
-18 -152 -68 -64 -71 -66 -173 -4 -229 39 -36 74 -48 110 -39 29 7 86 53 86
69 0 6 -7 1 -16 -11 -19 -27 -65 -52 -96 -52 -13 0 -37 9 -55 20 -99 60 -78
222 37 280 85 44 214 9 268 -72 34 -53 42 -140 17 -205 -64 -167 -296 -251
-436 -159 -43 29 -43 28 -61 266 -8 111 -14 154 -16 118 -2 -32 -6 -58 -10
-58 -4 0 -24 41 -45 91 -41 96 -55 178 -39 219 9 24 10 24 18 5 22 -61 61 -70
106 -25 26 26 30 36 25 65 -5 33 -4 35 29 41 19 3 55 3 81 -1 l47 -7 -24 -19
c-14 -11 25 5 87 35 383 190 781 295 1141 304 l73 1 -16 -22z m501 6 c41 -3
71 -9 67 -13 -4 -4 -52 -22 -105 -40 -54 -17 -98 -36 -98 -41 0 -6 10 -7 23
-3 45 14 9 -5 -78 -41 -49 -20 -96 -39 -102 -42 -9 -4 -8 6 3 33 19 44 12 95
-19 138 l-21 29 128 -7 c70 -3 162 -9 202 -13z m2703 -199 c34 -31 61 -61 61
-67 0 -5 -8 -3 -18 6 -35 32 -36 17 -1 -20 70 -75 131 -167 164 -248 l17 -40
-31 35 -31 35 39 -85 c39 -84 72 -190 70 -226 0 -11 -7 4 -16 31 -8 28 -19 54
-24 59 -5 6 -5 -4 1 -23 18 -65 23 -170 10 -253 -7 -46 -15 -77 -17 -70 -9 25
-20 11 -26 -30 -9 -65 -39 -148 -50 -141 -6 4 -7 -5 -3 -23 13 -57 19 -192 10
-250 -7 -55 -8 -57 -13 -24 -6 33 -7 32 -24 -34 -26 -105 -122 -262 -208 -341
l-32 -30 23 40 23 40 -45 -46 c-92 -94 -223 -174 -384 -235 -71 -26 -97 -26
-45 1 44 22 38 25 -16 9 -69 -21 -227 -44 -303 -44 -61 1 -64 1 -40 15 25 14
24 14 -17 15 -93 0 -251 45 -385 107 -96 45 -128 70 -68 53 39 -11 38 -2 -5
40 -38 37 -90 108 -84 114 2 2 36 -6 74 -20 78 -26 127 -32 107 -12 -7 7 -29
13 -50 14 -48 2 -144 43 -139 58 2 6 10 28 18 49 12 34 29 50 29 28 0 -14 90
-131 101 -131 5 0 -9 23 -31 52 -44 54 -74 107 -67 114 2 2 42 -5 88 -16 46
-11 97 -20 113 -20 27 0 25 3 -43 66 -39 36 -71 69 -71 74 0 4 18 1 41 -6 48
-17 159 -30 159 -19 0 4 -12 16 -26 27 -31 25 -127 139 -121 144 2 3 36 -2 76
-11 40 -8 86 -15 102 -15 28 0 27 2 -38 64 -38 35 -65 67 -62 70 3 3 52 1 109
-4 56 -6 104 -9 107 -7 2 3 -21 24 -52 48 l-56 44 48 6 48 6 -47 1 c-79 3 -85
-6 -29 -44 52 -35 78 -63 47 -51 -9 4 -60 10 -114 13 l-97 7 44 -52 c24 -28
53 -58 64 -66 11 -8 19 -17 16 -19 -4 -5 -91 11 -161 29 -17 4 -28 3 -28 -3 0
-13 61 -95 109 -146 l36 -38 -45 7 c-25 4 -70 15 -100 25 -30 10 -56 17 -58
15 -8 -7 39 -64 90 -110 l52 -47 -39 8 c-22 4 -67 14 -100 23 l-60 16 3 190
c1 105 -2 216 -6 248 -5 31 -6 57 -3 57 3 0 22 -5 41 -10 19 -6 107 -14 195
-19 144 -8 165 -12 209 -35 27 -14 56 -26 65 -26 10 1 5 7 -12 16 -16 9 -27
18 -24 20 6 7 93 -29 196 -81 90 -45 231 -90 254 -82 7 2 -4 11 -24 20 -62 26
-52 36 14 15 89 -28 252 -35 341 -14 65 15 168 65 182 87 3 6 -16 -1 -42 -14
-105 -52 -151 -62 -289 -61 -100 1 -148 6 -209 22 -44 12 -81 20 -84 17 -3 -2
1 -12 9 -21 12 -15 11 -16 -11 -9 -14 4 -79 34 -145 65 -66 32 -137 63 -157
70 -21 6 -38 14 -38 16 0 23 67 142 100 178 46 50 146 105 194 107 l31 1 -30
7 c-30 7 -30 7 -6 15 13 5 63 9 110 9 116 1 218 -33 289 -96 12 -11 22 -16 22
-10 0 6 -19 26 -42 43 l-43 32 35 -6 c35 -7 35 -7 10 8 -14 9 -41 16 -60 16
-19 1 -57 9 -84 19 l-49 17 24 16 c13 8 29 16 34 17 28 6 73 72 89 131 4 14
-8 -2 -26 -34 -19 -34 -34 -53 -36 -44 -2 11 -17 1 -50 -34 -47 -49 -49 -50
-117 -54 -87 -4 -165 -22 -165 -37 0 -7 -25 -25 -55 -41 -67 -34 -126 -97
-162 -171 -15 -30 -32 -54 -38 -52 -5 2 -18 19 -27 38 -13 25 -18 29 -18 14 0
-11 7 -31 16 -43 17 -25 11 -42 -15 -42 -30 0 -53 25 -62 66 l-8 39 2 -37 c4
-48 -8 -49 -23 -2 -17 51 -8 110 28 185 50 106 119 165 300 259 51 26 96 58
117 83 45 53 39 57 -12 9 -22 -21 -78 -58 -124 -81 -78 -41 -82 -42 -59 -16
66 72 202 160 320 207 41 17 89 38 105 48 17 10 46 23 67 29 20 7 47 22 61 35
13 12 45 35 70 52 26 16 47 34 47 39 0 6 21 22 46 37 24 15 47 35 51 45 8 24
23 43 34 43 4 0 35 -25 68 -56z m345 30 c8 -3 18 -19 21 -36 7 -28 8 -29 26
-12 11 9 17 20 14 23 -4 3 -10 -1 -15 -9 -7 -12 -10 -12 -16 3 -9 25 -2 28 32
17 16 -5 59 -16 97 -26 65 -16 67 -17 67 -48 -1 -41 -18 -70 -59 -100 -41 -31
-199 -99 -214 -93 -7 2 -31 38 -54 79 -43 74 -61 138 -55 192 l4 29 68 -7 c38
-3 75 -9 84 -12z m-4986 -146 c26 -26 9 -73 -35 -96 -29 -16 -50 -6 -62 30
-13 37 -8 46 33 64 39 17 49 17 64 2z m3427 -217 c2 -9 1 -29 -4 -46 l-8 -30
-31 62 c-44 85 -42 107 3 63 19 -19 37 -41 40 -49z m-25 -91 c0 -5 -10 -10
-22 -10 -13 0 -34 -3 -48 -7 -22 -6 -24 -5 -11 10 15 18 81 24 81 7z m136 -35
c17 -13 14 -14 -38 -15 -62 0 -71 5 -35 20 32 13 51 12 73 -5z m-34 -105 c27
-7 72 -10 98 -7 l49 6 -43 -44 c-23 -25 -52 -65 -65 -90 -25 -51 -32 -53 -124
-29 -52 13 -66 21 -85 50 -12 19 -40 47 -63 63 l-40 30 38 10 c21 6 61 24 88
40 l50 29 23 -23 c13 -13 46 -29 74 -35z m-3472 -426 c77 -290 228 -582 409
-792 39 -45 71 -84 71 -87 0 -3 -13 -5 -29 -5 -15 0 -46 -12 -67 -26 l-38 -26
-23 28 c-95 116 -235 382 -298 563 -62 182 -86 320 -91 531 l-4 185 20 -130
c12 -71 34 -180 50 -241z m3420 235 c50 -10 60 -15 54 -28 -17 -41 -15 -116 4
-153 l20 -38 -64 0 c-39 0 -64 4 -64 11 0 22 -54 59 -87 59 -12 -1 -8 -5 12
-14 17 -7 36 -20 44 -29 12 -15 10 -17 -27 -17 -55 0 -102 10 -102 23 0 5 12
25 26 44 23 30 30 34 67 31 37 -3 44 -7 59 -38 17 -34 18 -34 18 -8 0 32 -41
68 -79 69 -14 0 -20 3 -13 6 17 7 42 57 42 84 0 14 5 19 14 16 8 -3 42 -11 76
-18z m-400 -3 c0 -19 -21 -78 -38 -104 l-14 -22 -36 22 c-25 15 -37 18 -40 10
-4 -12 -62 52 -62 68 0 7 124 36 168 39 12 0 22 -5 22 -13z m41 -86 l2 -55 6
55 6 55 18 -40 c25 -55 36 -110 38 -180 l1 -60 12 45 12 45 7 -49 c17 -121 4
-318 -28 -411 -6 -16 -3 -16 14 5 l22 25 -7 -30 c-43 -182 -236 -459 -375
-539 -22 -13 -30 -15 -23 -5 51 65 94 125 94 132 0 4 -17 -3 -37 -16 -44 -28
-133 -68 -133 -61 0 3 13 22 29 42 36 46 105 171 98 178 -3 3 -23 -4 -45 -15
-35 -18 -185 -71 -200 -71 -2 0 14 20 37 45 42 45 124 165 118 172 -2 1 -28
-10 -58 -26 -60 -32 -152 -65 -214 -77 l-40 -7 69 64 c65 60 126 132 126 149
0 5 -27 -1 -60 -11 -66 -20 -232 -38 -215 -22 6 5 43 38 84 74 l74 64 -114 5
-114 5 63 42 c35 23 68 44 75 46 23 8 -1 18 -58 24 -55 6 -57 7 -32 19 14 8
76 24 139 38 179 38 321 108 407 201 48 52 54 39 11 -28 -16 -26 -26 -47 -22
-47 13 0 98 104 134 165 20 33 42 80 49 104 16 53 26 35 30 -49z m114 0 c20
-6 49 -8 68 -5 l32 7 -28 -22 c-15 -12 -34 -34 -42 -50 -28 -55 -53 -26 -112
130 -3 8 7 1 21 -17 15 -17 42 -37 61 -43z m2575 -46 c1 -404 -115 -748 -366
-1084 -260 -350 -694 -660 -1124 -803 -208 -70 -372 -108 -675 -156 -71 -12
-170 -32 -220 -45 -49 -13 -92 -23 -94 -21 -6 7 234 123 349 168 63 25 214 79
335 120 622 211 940 391 1252 708 111 113 177 194 255 314 156 238 250 518
265 788 7 132 23 139 23 11z m-3125 -1 c-4 -10 -10 -67 -14 -128 l-6 -109 -75
-22 c-110 -33 -109 -33 -97 26 5 28 14 50 18 50 5 0 9 17 9 38 0 32 5 40 34
56 19 10 56 38 82 62 55 49 59 51 49 27z m325 -16 c0 -15 -29 -57 -30 -42 0 6
3 20 6 33 7 24 24 31 24 9z m-2010 -177 c15 -63 15 -66 -7 -120 -12 -30 -23
-61 -23 -68 0 -18 -67 -8 -133 20 -77 33 -108 89 -70 130 18 20 63 24 93 8 15
-8 19 -5 24 26 9 46 40 76 74 72 23 -3 28 -10 42 -68z m-640 -438 c21 -26 25
-58 11 -81 -7 -10 -18 0 -45 40 -20 30 -36 59 -36 65 0 19 49 3 70 -24z m5239
29 c11 -7 6 -23 -25 -80 -21 -39 -48 -83 -60 -98 l-22 -28 -13 30 c-6 17 -12
54 -13 83 -1 47 2 57 27 78 29 25 79 32 106 15z m-2409 -144 c0 -7 22 -40 49
-74 l49 -60 -32 7 c-27 6 -116 56 -116 66 0 2 8 19 17 39 17 35 33 46 33 22z
m-26 -160 c-4 -17 -28 -78 -55 -135 l-48 -102 -66 25 c-36 13 -71 27 -76 31
-5 3 22 39 60 80 39 40 87 99 108 130 l37 56 23 -26 c17 -20 21 -34 17 -59z
m-2184 -57 c11 -11 20 -27 20 -36 0 -12 5 -14 18 -8 58 25 106 -3 85 -49 -13
-29 -84 -74 -129 -83 -29 -5 -32 -3 -47 38 -27 75 -30 107 -13 133 20 30 39
32 66 5z m-329 -112 c85 -79 89 -84 89 -126 0 -40 -15 -87 -39 -122 -9 -12
-17 -9 -49 23 -37 36 -39 41 -34 85 3 41 0 53 -22 79 -30 36 -75 50 -106 33
-17 -9 -24 -7 -45 17 -13 15 -25 34 -25 41 0 20 62 52 103 52 34 0 48 -9 128
-82z m4636 40 c18 -20 16 -22 -99 -132 -140 -134 -160 -147 -188 -121 -48 43
-49 129 -2 166 23 18 35 20 80 15 47 -6 52 -4 52 13 0 27 46 79 73 83 36 5 65
-3 84 -24z m-4727 -83 c36 -19 50 -43 50 -89 0 -61 -12 -55 -110 57 -21 24
-22 30 -10 37 21 13 37 12 70 -5z m374 -169 c428 -283 751 -445 1166 -585 80
-27 181 -63 225 -81 82 -32 298 -141 292 -146 -2 -2 -51 12 -109 31 -59 19
-266 76 -460 126 -194 50 -411 110 -483 134 -326 107 -642 275 -857 454 -4 4
4 29 17 55 14 27 25 67 25 88 0 21 3 38 6 38 3 0 83 -51 178 -114z m321 -8
c14 -13 32 -41 40 -63 10 -31 18 -39 32 -35 10 3 39 5 65 5 40 0 53 -5 80 -32
27 -27 32 -39 32 -80 0 -26 -6 -58 -13 -71 l-12 -23 -87 47 c-132 70 -322 187
-322 197 0 5 15 24 34 43 29 29 41 34 79 34 33 0 53 -6 72 -22z m1450 -68 c13
-15 16 -30 12 -61 -6 -47 -39 -93 -111 -153 l-48 -41 -47 51 c-75 82 -103 160
-71 198 21 26 68 20 101 -13 l29 -29 34 34 c39 39 74 44 101 14z m35 -635 c7
-8 10 -28 8 -45 -3 -22 0 -31 12 -35 30 -9 52 -42 45 -64 -8 -27 -37 -27 -83
2 -20 13 -49 31 -65 41 -27 16 -27 17 -12 54 24 58 68 80 95 47z"/>
<path d="M6553 7113 c-65 -31 -167 -186 -207 -313 -28 -88 -41 -170 -28 -170
5 0 12 21 16 46 9 68 34 112 97 176 31 32 48 53 37 47 -11 -6 -37 -29 -59 -51
-21 -22 -39 -38 -39 -34 0 15 51 119 83 168 49 77 102 128 133 128 21 0 29 -9
49 -52 35 -77 49 -175 42 -297 -5 -105 -37 -241 -57 -241 -24 0 -60 25 -55 38
7 19 -13 42 -37 42 -18 0 -18 2 6 31 14 17 26 40 26 51 0 18 -5 20 -34 15
l-34 -5 24 41 c13 23 24 56 23 72 0 26 -2 24 -13 -15 -6 -25 -26 -66 -44 -93
-36 -51 -34 -58 5 -27 29 23 63 26 63 7 0 -7 -13 -26 -30 -42 -36 -35 -38 -45
-6 -45 28 0 50 -22 36 -36 -7 -7 6 -18 36 -32 l45 -22 19 43 c22 50 50 199 50
266 -1 123 -49 278 -95 307 -16 11 -26 10 -52 -3z"/>
<path d="M6320 6910 c0 -5 5 -10 11 -10 5 0 7 5 4 10 -3 6 -8 10 -11 10 -2 0
-4 -4 -4 -10z"/>
<path d="M6501 6897 c0 -10 -10 -36 -22 -58 -26 -53 -21 -63 16 -32 21 17 23
21 8 14 -27 -14 -28 -10 -7 30 8 17 13 38 11 47 -4 15 -5 15 -6 -1z"/>
<path d="M6108 6203 c7 -3 16 -2 19 1 4 3 -2 6 -13 5 -11 0 -14 -3 -6 -6z"/>
<path d="M6065 6190 c-3 -6 1 -7 9 -4 18 7 21 14 7 14 -6 0 -13 -4 -16 -10z"/>
<path d="M6022 6164 c-12 -8 -27 -25 -33 -37 -8 -15 -1 -11 24 13 20 19 37 36
37 38 0 5 -6 2 -28 -14z"/>
<path d="M6693 6143 c9 -2 25 -2 35 0 9 3 1 5 -18 5 -19 0 -27 -2 -17 -5z"/>
<path d="M6460 6110 c0 -5 7 -7 15 -4 8 4 15 8 15 10 0 2 -7 4 -15 4 -8 0 -15
-4 -15 -10z"/>
<path d="M6364 6058 l-19 -23 23 19 c21 18 27 26 19 26 -2 0 -12 -10 -23 -22z"/>
<path d="M6210 6050 c-14 -5 -45 -14 -70 -20 -49 -13 -130 -86 -130 -117 0
-12 12 -5 43 24 38 38 135 93 163 93 6 0 17 7 24 15 14 16 8 17 -30 5z"/>
<path d="M6275 5978 c-68 -71 -136 -150 -94 -108 49 49 162 170 158 170 -3 0
-32 -28 -64 -62z"/>
<path d="M6139 5823 c-13 -16 -12 -17 4 -4 16 13 21 21 13 21 -2 0 -10 -8 -17
-17z"/>
<path d="M6035 5684 c-9 -15 -12 -23 -6 -20 11 7 35 46 28 46 -3 0 -12 -12
-22 -26z"/>
<path d="M5969 5598 c-24 -29 -36 -47 -26 -39 20 16 81 91 74 91 -2 0 -24 -24
-48 -52z"/>
<path d="M5459 6863 c-13 -16 -12 -17 4 -4 9 7 17 15 17 17 0 8 -8 3 -21 -13z"/>
<path d="M5560 6865 c-11 -13 -10 -14 4 -9 9 3 16 10 16 15 0 13 -6 11 -20 -6z"/>
<path d="M5500 6838 c0 -4 6 -8 14 -8 8 0 17 4 20 8 2 4 -4 8 -15 8 -10 0 -19
-4 -19 -8z"/>
<path d="M5582 6815 c0 -16 2 -22 5 -12 2 9 2 23 0 30 -3 6 -5 -1 -5 -18z"/>
<path d="M5590 6770 c0 -5 5 -10 11 -10 5 0 7 5 4 10 -3 6 -8 10 -11 10 -2 0
-4 -4 -4 -10z"/>
<path d="M4477 6932 c-41 -45 -47 -224 -12 -357 15 -62 103 -248 114 -243 20
9 90 64 91 71 0 4 -7 7 -15 7 -22 0 -18 17 7 34 17 12 18 16 6 16 -22 0 -41
-26 -34 -46 7 -18 -29 -64 -49 -64 -17 0 -92 166 -111 247 -20 82 -22 244 -5
295 17 53 41 56 108 16 54 -32 209 -185 198 -196 -2 -3 -13 2 -22 10 -29 26
-101 58 -125 57 -18 -1 -16 -3 9 -9 83 -19 172 -98 221 -195 37 -71 42 -53 7
23 -53 114 -167 247 -269 313 -65 43 -95 48 -119 21z"/>
<path d="M4620 6755 c0 -5 9 -21 20 -35 25 -32 25 -44 0 -37 -11 3 -22 2 -25
-3 -3 -4 8 -10 23 -12 15 -3 36 -9 46 -13 18 -8 19 -7 2 21 -25 41 -66 91 -66
79z"/>
<path d="M4620 6650 c0 -9 14 -33 31 -53 18 -22 26 -38 18 -37 -31 5 -49 -1
-49 -15 0 -16 67 -85 83 -85 6 0 -8 16 -31 36 -23 19 -42 40 -42 46 0 11 51 7
85 -7 12 -5 2 12 -26 41 -26 27 -51 58 -57 69 -8 14 -11 16 -12 5z"/>
<path d="M5213 6163 c9 -2 23 -2 30 0 6 3 -1 5 -18 5 -16 0 -22 -2 -12 -5z"/>
<path d="M5270 6153 c8 -3 24 -10 35 -15 20 -9 20 -9 1 6 -11 9 -27 16 -35 15
-14 0 -14 -1 -1 -6z"/>
<path d="M5330 6126 c0 -2 8 -10 18 -17 15 -13 16 -12 3 4 -13 16 -21 21 -21
13z"/>
<path d="M5679 6103 c-13 -16 -12 -17 4 -4 9 7 17 15 17 17 0 8 -8 3 -21 -13z"/>
<path d="M4748 5993 c12 -2 32 -2 45 0 12 2 2 4 -23 4 -25 0 -35 -2 -22 -4z"/>
<path d="M4828 5983 c6 -2 18 -2 25 0 6 3 1 5 -13 5 -14 0 -19 -2 -12 -5z"/>
<path d="M5108 5978 c6 -6 41 -16 79 -24 37 -8 94 -27 126 -42 31 -16 57 -25
57 -21 0 19 -73 68 -116 77 -71 16 -157 21 -146 10z"/>
<path d="M4870 5978 c3 -3 21 -10 40 -17 19 -6 30 -7 25 -2 -6 5 -23 13 -40
17 -16 4 -28 5 -25 2z"/>
<path d="M5000 5946 c0 -3 9 -10 20 -16 11 -6 20 -8 20 -6 0 3 -9 10 -20 16
-11 6 -20 8 -20 6z"/>
<path d="M5050 5917 c0 -2 19 -17 43 -32 23 -16 37 -22 30 -14 -12 15 -73 53
-73 46z"/>
<path d="M5170 5837 c0 -3 33 -31 73 -63 39 -32 66 -51 59 -43 -14 19 -132
112 -132 106z"/>
<path d="M5340 5697 c33 -33 179 -137 193 -137 6 0 -11 14 -39 31 -27 17 -78
54 -114 82 -36 27 -54 38 -40 24z"/>
<path d="M3115 6126 c-39 -17 -70 -52 -90 -98 l-15 -37 -36 24 c-67 46 -135
42 -182 -8 -28 -31 -35 -60 -23 -105 19 -69 95 -130 253 -201 l67 -30 73 112
c71 109 107 188 108 235 0 45 -28 92 -64 107 -43 18 -52 18 -91 1z m102 -21
c45 -31 47 -119 6 -199 -22 -43 -134 -216 -140 -216 -3 0 -42 18 -88 39 -156
73 -215 130 -215 205 0 50 15 75 54 91 46 20 123 0 156 -39 14 -18 30 -21 30
-6 0 28 47 104 74 121 37 23 94 25 123 4z"/>
<path d="M3486 5999 c-21 -16 -25 -17 -36 -4 -19 23 -57 18 -76 -9 -14 -23
-14 -28 1 -59 9 -19 31 -48 49 -66 29 -28 37 -31 55 -22 24 13 66 66 79 101
21 56 -27 95 -72 59z m-41 -19 c18 -20 18 -20 33 1 9 13 23 19 40 17 22 -2 28
-9 30 -34 2 -25 -6 -41 -40 -79 l-43 -47 -43 46 c-40 43 -55 90 -35 109 12 13
40 7 58 -13z"/>
<path d="M7915 5826 c-58 -38 -112 -96 -121 -130 -17 -68 71 -109 127 -59 15
13 20 11 42 -11 50 -50 117 -24 117 43 0 45 -25 94 -74 146 l-41 44 -50 -33z
m112 -54 c64 -94 58 -162 -15 -162 -11 0 -32 14 -46 30 l-25 31 -21 -21 c-29
-29 -85 -27 -106 4 -14 23 -14 28 2 62 19 40 127 127 152 122 9 -2 35 -31 59
-66z"/>
<path d="M7483 5729 c-23 -11 -52 -36 -63 -54 -27 -44 -25 -56 3 -15 33 49 70
72 124 77 87 9 162 -49 183 -141 6 -24 8 -26 9 -8 1 29 -30 90 -61 119 -51 47
-127 56 -195 22z"/>
<path d="M7516 5621 c-18 -20 -19 -63 -1 -66 6 -1 7 0 3 3 -12 6 -9 47 4 60
19 19 53 14 76 -11 53 -57 -3 -147 -92 -147 -44 0 -96 56 -105 115 -7 40 -9
43 -10 17 -2 -71 56 -142 117 -142 95 0 157 106 97 165 -29 30 -66 32 -89 6z"/>
<path d="M7732 5505 c0 -16 2 -22 5 -12 2 9 2 23 0 30 -3 6 -5 -1 -5 -18z"/>
<path d="M2556 5501 c-3 -4 6 -6 19 -3 31 6 52 -11 64 -52 7 -22 9 -25 10 -10
2 46 -73 98 -93 65z"/>
<path d="M2986 5448 c-22 -31 -20 -64 8 -124 26 -56 81 -124 101 -124 22 0
135 89 155 123 37 61 15 137 -41 137 -24 0 -79 -30 -79 -43 0 -5 -13 5 -29 22
-37 39 -91 43 -115 9z m103 -14 c11 -14 22 -30 24 -37 3 -8 10 -5 21 9 8 12
29 27 46 34 25 10 34 10 55 -4 37 -24 34 -75 -6 -120 -34 -39 -121 -106 -137
-106 -16 0 -100 131 -107 168 -15 72 60 112 104 56z"/>
<path d="M7705 5431 c-22 -50 -79 -105 -130 -127 -22 -10 -76 -21 -120 -24
l-80 -7 67 -1 c120 -3 219 52 269 150 11 22 19 42 16 44 -2 2 -12 -13 -22 -35z"/>
<path d="M7300 5300 c8 -5 20 -10 25 -10 6 0 3 5 -5 10 -8 5 -19 10 -25 10 -5
0 -3 -5 5 -10z"/>
<path d="M7348 5283 c7 -3 16 -2 19 1 4 3 -2 6 -13 5 -11 0 -14 -3 -6 -6z"/>
<path d="M7805 5175 c-30 -29 -33 -75 -6 -99 11 -10 28 -16 38 -13 16 4 15 5
-2 6 -47 2 -62 64 -25 101 32 32 83 26 128 -14 34 -32 37 -39 37 -89 0 -69
-22 -103 -88 -136 -38 -19 -56 -22 -93 -16 -54 8 -109 52 -135 110 -10 22 -19
34 -19 27 0 -29 43 -94 78 -116 79 -52 166 -43 225 23 44 49 55 99 36 155 -27
78 -124 112 -174 61z"/>
<path d="M7341 5114 c-12 -15 -21 -30 -21 -35 0 -5 -11 -4 -24 2 -62 29 -112
-26 -78 -85 18 -31 93 -78 143 -91 24 -6 28 -1 57 63 18 38 32 82 32 98 0 70
-68 100 -109 48z m89 -14 c14 -34 9 -63 -26 -137 l-25 -52 -45 18 c-70 27
-114 66 -114 102 0 40 35 57 76 36 28 -15 28 -14 46 24 14 32 22 39 46 39 23
0 32 -6 42 -30z"/>
<path d="M2617 5029 c-28 -17 -47 -72 -47 -138 l0 -60 45 -7 c94 -14 175 20
175 72 0 27 -34 54 -67 54 -19 0 -23 6 -23 28 0 30 -27 62 -51 62 -8 0 -22 -5
-32 -11z m58 -16 c12 -11 15 -26 12 -49 -5 -32 -4 -33 22 -28 18 4 35 -1 51
-14 21 -17 23 -23 13 -45 -15 -33 -75 -50 -143 -41 l-50 7 0 48 c0 52 13 95
37 121 20 22 37 23 58 1z"/>
<path d="M7655 4771 c-14 -27 -18 -29 -40 -19 -19 9 -29 7 -50 -6 -14 -9 -25
-25 -25 -35 0 -31 44 -75 100 -101 l52 -24 19 23 c11 13 26 49 35 79 21 71 7
105 -43 110 -27 3 -34 -2 -48 -27z m79 3 c11 -30 6 -75 -15 -125 -18 -42 -25
-49 -43 -43 -42 12 -102 53 -116 79 -12 23 -12 28 8 48 22 21 24 21 52 5 28
-16 29 -16 36 5 3 12 11 28 16 35 15 17 55 15 62 -4z"/>
<path d="M2961 4614 c-12 -15 -21 -39 -21 -54 0 -23 -4 -27 -30 -27 -37 0 -70
-28 -70 -60 0 -53 99 -99 195 -91 l40 3 8 60 c12 82 2 138 -30 169 -33 33 -66
33 -92 0z m84 -8 c28 -28 39 -90 27 -161 l-8 -50 -62 2 c-34 2 -78 9 -97 17
-76 32 -64 106 17 106 36 0 38 2 32 24 -3 13 0 35 7 48 23 45 49 49 84 14z"/>
<path d="M7049 4401 c-19 -15 -24 -29 -24 -68 0 -60 32 -124 95 -196 l47 -52
54 36 c118 79 177 159 164 225 -12 67 -99 87 -156 36 l-31 -28 -33 33 c-38 38
-80 43 -116 14z m86 -3 c15 -7 33 -25 41 -41 l15 -29 35 36 c26 27 43 36 68
36 50 0 80 -29 79 -74 -2 -53 -42 -107 -129 -173 l-76 -57 -25 29 c-71 86
-113 168 -113 217 0 22 43 68 64 68 8 0 27 -5 41 -12z"/>
<path d="M6733 4159 c-63 -18 -93 -96 -57 -147 8 -12 23 -22 32 -22 14 1 14 2
-3 12 -28 16 -35 28 -35 64 0 34 28 66 72 83 55 21 128 -23 144 -86 20 -79
-48 -168 -156 -205 -20 -6 -18 -7 10 -3 112 17 194 158 141 242 -35 55 -90 78
-148 62z"/>
<path d="M6779 4040 c-2 -13 -15 -30 -29 -37 -16 -8 -19 -13 -9 -13 23 0 52
35 47 57 -4 14 -6 13 -9 -7z"/>
<path d="M6420 4027 c0 -19 41 -85 72 -113 38 -36 89 -64 115 -64 10 1 1 7
-21 15 -56 20 -107 64 -138 121 -15 27 -28 45 -28 41z"/>
<path d="M5494 3962 c-103 -120 -134 -187 -113 -249 13 -41 58 -67 99 -58 29
6 90 60 90 79 0 5 10 0 23 -12 92 -86 211 -14 167 102 -15 40 -75 100 -143
145 -35 23 -68 41 -73 41 -5 -1 -27 -22 -50 -48z m193 -67 c47 -46 63 -69 69
-98 15 -87 -78 -130 -149 -67 l-35 30 -22 -35 c-26 -43 -47 -55 -94 -55 -42 0
-66 28 -66 79 0 48 29 104 96 184 l56 67 41 -22 c23 -13 70 -50 104 -83z"/>
<path d="M6131 3896 c-100 -104 -123 -166 -80 -220 33 -42 110 -31 144 20 l15
23 29 -30 c22 -21 39 -29 66 -29 42 0 85 36 85 72 -1 58 -70 155 -156 215
l-31 22 -72 -73z m135 8 c93 -79 130 -168 89 -214 -28 -31 -71 -26 -110 13
l-33 33 -29 -32 c-50 -56 -101 -56 -132 -2 -13 22 -13 31 2 69 17 44 129 179
149 179 6 0 35 -21 64 -46z"/>
<path d="M6648 3843 c12 -2 30 -2 40 0 9 3 -1 5 -23 4 -22 0 -30 -2 -17 -4z"/>
<path d="M4111 3714 c0 -11 3 -14 6 -6 3 7 2 16 -1 19 -3 4 -6 -2 -5 -13z"/>
<path d="M6609 3661 c-21 -17 -24 -17 -51 -2 -29 17 -52 11 -72 -21 -14 -23 9
-70 57 -119 l40 -40 39 38 c69 67 86 120 46 147 -28 20 -31 20 -59 -3z m-43
-22 l22 -21 11 21 c13 24 53 28 70 7 7 -8 9 -25 6 -39 -8 -31 -72 -107 -90
-107 -16 0 -73 64 -86 97 -11 29 4 63 28 63 9 0 27 -9 39 -21z"/>
<path d="M5349 3574 c-101 -31 -189 -147 -189 -249 0 -63 35 -140 83 -182 37
-32 74 -49 84 -39 4 3 0 6 -9 6 -31 0 -96 59 -122 111 -93 187 93 400 304 349
133 -32 207 -130 231 -305 l8 -60 -4 72 c-12 218 -192 357 -386 297z"/>
<path d="M5982 3514 c-12 -8 -22 -26 -22 -39 0 -19 -6 -24 -31 -27 -38 -4 -54
-25 -46 -60 8 -29 50 -52 116 -62 61 -9 71 2 71 86 0 60 -3 72 -25 93 -28 29
-33 30 -63 9z m58 -14 c18 -18 20 -31 18 -88 l-3 -67 -50 -3 c-83 -4 -145 50
-100 88 8 7 26 10 40 8 21 -5 25 -2 25 20 0 25 25 62 42 62 4 0 17 -9 28 -20z"/>
<path d="M4591 3481 c-16 -16 -21 -34 -21 -75 0 -30 5 -67 10 -82 10 -25 14
-26 58 -22 97 9 158 61 126 107 -10 14 -26 21 -47 21 -26 0 -35 6 -47 33 -18
39 -51 46 -79 18z m63 -13 c9 -12 16 -29 16 -38 0 -11 11 -15 42 -15 41 0 43
-1 43 -30 0 -25 -7 -33 -39 -49 -21 -10 -57 -21 -81 -23 -41 -5 -42 -4 -49 27
-15 79 3 150 39 150 8 0 21 -10 29 -22z"/>
<path d="M5434 3397 c-24 -21 -31 -22 -56 -13 -31 11 -53 3 -72 -27 -16 -25
17 -79 71 -118 35 -24 50 -30 62 -22 30 19 72 89 78 130 4 34 2 43 -18 57 -30
21 -33 20 -65 -7z m64 -9 c7 -7 12 -20 12 -30 0 -21 -30 -81 -59 -118 l-20
-25 -43 31 c-52 37 -82 89 -67 116 12 22 52 24 69 3 17 -21 25 -19 38 10 13
27 49 34 70 13z"/>
<path d="M5535 3177 c-21 -33 -88 -68 -149 -78 l-51 -8 51 3 c62 3 119 31 152
74 13 18 22 32 19 32 -4 0 -13 -10 -22 -23z"/>
<path d="M5722 3180 c0 -14 2 -19 5 -12 2 6 2 18 0 25 -3 6 -5 1 -5 -13z"/>
<path d="M5954 5288 c-4 -7 -3 -8 4 -4 6 3 16 -3 22 -15 7 -11 14 -19 17 -16
6 6 -19 47 -29 47 -4 0 -10 -5 -14 -12z"/>
<path d="M5920 5279 c0 -5 5 -7 10 -4 6 3 10 8 10 11 0 2 -4 4 -10 4 -5 0 -10
-5 -10 -11z"/>
</g>
</svg>
