<?xml version="1.0" standalone="no"?>
<!DOCTYPE svg PUBLIC "-//W3C//DTD SVG 20010904//EN"
 "http://www.w3.org/TR/2001/REC-SVG-20010904/DTD/svg10.dtd">
<svg version="1.0" xmlns="http://www.w3.org/2000/svg"
 width="1024.000000pt" height="1024.000000pt" viewBox="0 0 1024.000000 1024.000000"
 preserveAspectRatio="xMidYMid meet">
<metadata>
Created by potrace 1.16, written by Peter Selinger 2001-2019
</metadata>
<g transform="translate(0.000000,1024.000000) scale(0.100000,-0.100000)"
fill="#000000" stroke="none">
<path d="M3250 7779 c-135 -17 -298 -76 -378 -136 -18 -14 -72 -35 -120 -48
-116 -31 -171 -56 -268 -121 -196 -129 -352 -318 -407 -489 -12 -39 -39 -92
-60 -120 -52 -69 -122 -213 -154 -320 -29 -95 -27 -71 -23 -437 1 -24 -2 -113
-6 -199 -12 -293 50 -550 177 -735 19 -28 32 -64 39 -110 45 -288 176 -542
389 -754 90 -89 111 -116 137 -177 85 -196 266 -421 426 -530 56 -38 74 -58
117 -132 122 -205 384 -442 618 -560 71 -35 87 -49 121 -98 115 -170 332 -342
527 -419 60 -24 83 -40 160 -119 160 -163 329 -271 494 -315 57 -15 182 -15
246 1 137 33 307 139 439 272 82 84 94 92 168 118 131 45 236 118 383 264 94
94 142 151 175 207 25 43 51 78 59 78 30 0 164 73 240 130 130 99 241 231 352
421 19 32 44 55 90 82 214 125 506 471 594 703 24 64 42 93 84 135 249 253
449 654 476 959 5 58 13 85 36 121 35 55 73 160 90 249 20 108 16 291 -10 393
-21 80 -21 93 -9 140 20 82 15 237 -11 342 -27 109 -106 276 -156 329 -24 25
-47 67 -66 121 -98 271 -431 559 -715 619 -38 8 -92 26 -119 39 -130 64 -314
99 -520 100 -161 1 -228 -12 -340 -68 -49 -25 -84 -35 -115 -35 -112 0 -289
-46 -427 -110 -149 -69 -295 -186 -338 -271 -10 -18 -25 -29 -49 -33 -83 -16
-263 -102 -354 -171 l-62 -47 -63 50 c-125 99 -282 188 -365 206 -17 4 -37 15
-44 23 -30 38 -193 165 -260 204 -171 100 -366 164 -536 175 -63 4 -128 16
-187 34 -151 47 -310 60 -475 39z m295 -49 c99 -14 175 -32 175 -41 0 -4 -12
-12 -27 -17 -21 -8 3 -11 103 -11 205 -1 367 -41 556 -135 89 -45 231 -141
265 -179 18 -20 17 -20 -22 -14 -43 6 -39 3 60 -34 110 -41 293 -139 399 -215
l106 -74 -20 -38 c-32 -58 -24 -56 43 11 34 35 96 83 137 107 91 53 280 143
287 137 2 -3 0 -22 -6 -44 -12 -44 -8 -40 49 52 74 120 233 240 414 314 81 34
269 81 320 81 l30 0 -25 -27 c-34 -38 -52 -63 -46 -63 3 0 27 18 53 40 66 54
184 114 265 134 136 33 434 14 614 -39 l60 -18 -45 -13 -45 -12 56 -1 c223 -4
464 -120 668 -321 82 -82 169 -200 201 -275 25 -58 25 -58 -1 -45 -11 6 6 -20
39 -59 151 -180 234 -455 203 -668 -22 -148 -23 -159 -13 -145 14 20 19 0 32
-120 26 -232 -24 -443 -149 -627 -49 -71 -52 -85 -11 -46 l30 29 0 -25 c-1
-47 -39 -197 -73 -285 -83 -213 -156 -345 -298 -536 -112 -151 -108 -146 -118
-129 -6 9 -15 -3 -30 -43 -68 -183 -219 -403 -401 -587 -71 -71 -211 -189
-226 -189 -3 0 -3 12 1 27 9 37 12 40 -103 -132 -162 -244 -276 -363 -436
-454 -103 -58 -110 -60 -102 -28 9 37 2 34 -25 -10 -54 -89 -167 -231 -248
-312 -100 -100 -201 -175 -313 -232 -90 -45 -104 -48 -88 -18 24 43 2 25 -69
-57 -40 -47 -109 -114 -152 -148 -94 -74 -250 -159 -334 -181 -70 -18 -167
-19 -233 -4 -74 18 -239 100 -325 163 -89 64 -197 156 -197 168 0 5 19 6 43 3
36 -5 30 -1 -48 33 -240 104 -376 193 -532 348 -62 61 -113 116 -113 122 0 7
11 7 36 0 66 -18 46 -1 -61 51 -239 117 -506 336 -666 546 -64 85 -65 87 -33
75 48 -18 36 -5 -49 55 -192 138 -340 309 -482 559 l-27 49 27 -7 c21 -5 -1
20 -89 105 -168 161 -274 309 -352 489 -31 72 -74 209 -87 278 l-7 33 28 -19
c15 -10 34 -23 42 -27 17 -10 15 -7 -51 75 -85 106 -163 280 -198 440 -26 121
-43 335 -35 423 l7 68 18 -28 c23 -35 25 -13 4 46 -42 120 -40 301 6 471 21
81 133 320 149 320 6 0 10 -12 11 -27 0 -16 7 1 15 37 53 248 260 496 522 630
50 25 164 70 179 70 2 0 -7 -15 -20 -32 -44 -60 -41 -63 13 -14 30 26 74 62
98 78 161 111 443 169 667 138z"/>
<path d="M3765 7506 c-22 -7 -67 -25 -99 -41 -54 -25 -93 -53 -281 -197 -79
-60 -185 -112 -287 -142 -99 -28 -217 -51 -224 -43 -10 9 43 114 91 183 25 36
45 68 45 71 0 4 -16 -8 -35 -27 -52 -51 -126 -161 -183 -275 -27 -55 -68 -125
-91 -155 -38 -52 -165 -170 -182 -170 -5 0 -10 15 -13 33 -3 17 -10 59 -16 91
-5 33 -10 78 -10 100 0 21 -3 36 -7 32 -5 -4 -8 -110 -8 -234 -1 -247 -6 -277
-70 -386 -48 -82 -49 -82 -111 50 -31 66 -65 142 -75 169 -9 28 -18 41 -18 30
-1 -35 25 -116 87 -270 98 -244 119 -348 101 -485 -11 -77 -36 -179 -48 -192
-4 -4 -60 46 -126 112 -66 66 -123 120 -127 120 -11 0 131 -174 231 -285 100
-110 191 -243 221 -322 37 -97 66 -303 42 -303 -4 0 -17 7 -29 15 -30 21 -295
146 -289 136 3 -4 89 -59 191 -122 103 -63 222 -142 265 -177 155 -123 255
-282 320 -506 17 -59 30 -110 28 -111 -2 -2 -79 16 -172 41 -93 24 -171 43
-173 40 -5 -4 60 -30 252 -99 317 -115 445 -196 566 -359 49 -67 179 -307 179
-332 0 -5 -10 -6 -22 -3 -13 4 -86 15 -163 27 -77 11 -151 22 -165 25 -19 3
-16 0 10 -11 19 -9 105 -32 190 -51 368 -83 563 -170 729 -327 38 -36 197
-224 213 -251 4 -7 -38 -9 -120 -7 -70 2 -145 -1 -167 -7 -39 -9 -38 -9 25
-10 251 -4 483 -71 662 -192 71 -48 188 -146 188 -159 0 -13 -89 -53 -165 -72
l-70 -18 75 4 c41 2 84 8 95 12 15 5 12 -2 -12 -27 -64 -68 -32 -49 65 37 179
161 286 230 446 294 83 32 306 94 313 86 4 -4 -46 -147 -81 -231 l-17 -40 20
25 c32 39 86 146 124 246 127 329 272 495 503 574 32 11 59 18 62 16 9 -9 -47
-245 -73 -307 -39 -96 -40 -97 -9 -54 37 53 78 154 110 273 71 267 163 400
337 485 42 20 78 37 81 37 12 0 6 -151 -9 -226 -8 -43 -13 -79 -11 -81 11 -11
48 139 66 261 11 76 25 159 31 184 33 134 124 255 248 330 39 23 74 42 78 42
6 0 -2 -220 -12 -295 -4 -37 -3 -36 14 16 11 30 26 125 35 210 28 269 78 415
187 547 72 87 152 144 314 222 77 38 151 80 164 94 l24 26 -54 -29 c-51 -28
-238 -96 -244 -89 -1 2 5 42 15 89 33 162 75 232 359 607 88 115 90 120 39 79
-26 -21 -73 -70 -104 -109 -48 -58 -59 -67 -65 -51 -18 49 -33 180 -33 288 0
147 17 229 86 403 62 156 78 214 77 272 l-1 45 -10 -50 c-5 -27 -30 -93 -54
-145 l-46 -95 -64 70 c-77 83 -162 204 -234 335 -29 52 -70 122 -91 155 l-38
60 42 3 c59 5 179 -13 275 -41 45 -13 82 -23 82 -21 0 7 -64 37 -118 55 -101
35 -205 50 -406 59 -285 12 -422 43 -643 145 -46 21 -83 41 -83 44 1 8 131
100 193 136 27 15 74 38 105 51 68 28 38 32 -39 5 -87 -30 -185 -83 -335 -183
-180 -121 -256 -148 -428 -156 l-119 -5 53 79 c29 43 67 97 84 119 l31 40 -35
-26 c-19 -14 -76 -77 -127 -140 -124 -154 -186 -210 -286 -258 -88 -42 -237
-86 -237 -69 0 6 16 46 35 91 19 44 35 83 35 86 -1 12 -32 -36 -93 -138 -78
-134 -159 -221 -243 -262 -57 -28 -71 -31 -128 -27 -86 7 -162 49 -273 150
-49 44 -89 84 -91 89 -2 5 54 9 125 10 185 1 126 16 -126 34 -113 8 -224 20
-246 26 -95 27 -196 92 -324 208 -59 53 -59 50 19 67 19 4 82 12 140 19 l105
11 -79 9 c-60 6 -116 3 -240 -14 -189 -25 -284 -26 -381 -6 -78 16 -275 86
-275 97 0 14 149 120 223 159 76 40 78 46 12 25z m-149 -271 c155 -63 279 -83
421 -67 l105 12 84 -84 c153 -153 254 -206 431 -228 l98 -12 110 -106 c142
-137 212 -175 325 -175 60 0 86 5 132 27 68 32 144 100 193 174 31 47 40 54
69 54 56 0 188 38 266 77 54 27 96 59 150 113 l75 75 65 -7 c149 -18 323 26
458 116 l70 46 113 -58 c199 -102 334 -135 591 -148 l146 -7 83 -151 c147
-270 218 -372 321 -458 33 -27 48 -47 44 -57 -2 -9 -19 -56 -35 -104 -57 -161
-60 -363 -10 -548 l21 -78 -67 -83 c-109 -136 -185 -321 -185 -451 0 -43 -2
-45 -57 -82 -167 -111 -280 -292 -318 -510 -8 -48 -15 -89 -15 -91 0 -2 -6 -4
-12 -4 -7 0 -48 -21 -90 -45 -153 -89 -229 -193 -272 -368 l-22 -90 -61 -22
c-170 -61 -289 -178 -349 -342 -23 -63 -30 -73 -51 -73 -43 0 -172 -49 -237
-90 -79 -50 -191 -167 -241 -251 -21 -35 -55 -104 -75 -154 l-37 -89 -89 -18
c-244 -48 -444 -139 -589 -270 l-49 -45 -83 74 c-142 126 -282 204 -428 238
-33 8 -61 19 -63 25 -2 6 -38 57 -80 113 -172 233 -333 351 -579 428 -54 17
-106 34 -116 37 -11 4 -39 55 -71 127 -29 66 -68 145 -86 175 -44 75 -131 181
-187 226 -65 53 -190 127 -262 154 -57 21 -62 25 -72 64 -33 127 -71 250 -93
300 -57 129 -192 286 -325 379 l-65 44 -2 114 c-3 184 -53 308 -190 472 -46
55 -60 77 -53 89 5 9 21 60 35 115 36 135 32 275 -13 408 l-31 89 38 46 c72
86 110 192 110 305 l0 71 64 42 c88 58 185 165 231 257 41 81 39 80 136 90 96
10 248 53 323 90 39 19 105 62 146 94 41 33 80 58 85 56 6 -3 60 -25 121 -50z"/>
<path d="M3453 7113 c9 -2 23 -2 30 0 6 3 -1 5 -18 5 -16 0 -22 -2 -12 -5z"/>
<path d="M3335 7086 c-27 -12 -69 -39 -92 -59 -53 -44 -106 -64 -208 -77 -48
-6 -102 -21 -135 -37 -69 -34 -155 -120 -197 -199 -52 -97 -65 -172 -57 -328
l7 -134 -48 -88 c-45 -83 -49 -94 -51 -169 l-3 -80 8 77 c7 64 16 90 48 145
61 103 64 119 57 273 -6 122 -5 144 14 206 25 82 66 149 130 213 63 63 124 90
238 107 95 15 176 46 204 79 19 23 94 65 143 80 31 10 36 14 17 14 -14 1 -47
-10 -75 -23z"/>
<path d="M6811 7086 c25 -6 69 -27 99 -45 70 -43 123 -61 174 -60 40 1 40 1
-12 10 -31 5 -94 30 -149 59 -59 31 -107 50 -127 49 -28 0 -26 -2 15 -13z"/>
<path d="M6671 7005 c-14 -19 -25 -24 -43 -20 -52 13 -108 -37 -108 -97 0 -59
74 -123 172 -149 58 -16 70 -8 110 76 37 79 38 142 2 184 -21 26 -33 31 -69
31 -35 0 -48 -5 -64 -25z m109 -15 c30 -30 27 -104 -8 -171 -15 -30 -36 -55
-45 -57 -24 -5 -122 42 -152 72 -31 31 -33 78 -4 107 17 17 29 20 58 15 33 -5
40 -2 60 24 26 35 62 39 91 10z"/>
<path d="M3978 6970 c-28 -29 -30 -35 -26 -93 4 -64 36 -143 70 -174 17 -15
22 -15 71 0 101 32 167 91 167 150 0 14 -12 39 -26 56 -20 24 -34 31 -62 31
-28 0 -44 7 -65 30 -39 41 -87 41 -129 0z m112 -20 c11 -11 20 -25 20 -30 0
-6 15 -8 39 -4 31 5 43 2 60 -15 33 -33 27 -73 -18 -114 -40 -36 -132 -74
-152 -62 -6 4 -22 31 -35 59 -45 96 -25 186 41 186 14 0 34 -9 45 -20z"/>
<path d="M3266 6908 c-57 -12 -105 -53 -132 -113 l-24 -53 -70 -4 c-59 -3 -74
-8 -106 -34 -106 -85 -105 -239 1 -333 80 -70 231 -125 378 -137 105 -8 123 5
166 114 39 102 54 191 50 300 -3 75 -9 98 -34 147 -47 92 -133 134 -229 113z
m107 -42 c41 -17 91 -73 108 -123 32 -91 7 -293 -52 -418 -26 -56 -42 -60
-156 -45 -284 37 -441 185 -361 340 32 62 75 85 162 85 l69 0 12 40 c18 61 45
96 90 116 48 22 84 24 128 5z"/>
<path d="M3353 6784 c-7 -18 6 -45 24 -51 12 -4 43 23 43 39 0 6 -8 0 -18 -12
-23 -28 -46 -18 -39 16 5 28 -1 32 -10 8z"/>
<path d="M3282 6628 c-6 -6 -12 -17 -12 -22 0 -6 5 -3 11 7 13 23 24 22 50 -5
l23 -23 -16 25 c-18 29 -38 36 -56 18z"/>
<path d="M3024 6566 c-53 -52 -50 -70 13 -97 82 -35 105 -21 100 61 -3 37 -9
57 -22 66 -30 22 -45 17 -91 -30z m97 10 c0 -6 2 -32 5 -57 5 -55 -9 -66 -65
-48 -74 24 -81 55 -21 98 40 28 79 32 81 7z"/>
<path d="M3273 6580 c4 -18 45 -26 59 -12 6 6 0 8 -17 4 -17 -3 -31 1 -37 9
-8 12 -9 11 -5 -1z"/>
<path d="M2960 6436 c19 -21 49 -44 65 -52 l30 -14 -25 17 c-14 10 -43 34 -65
53 l-40 34 35 -38z"/>
<path d="M3340 6380 c-13 -25 -45 -26 -59 -2 -6 9 -11 12 -11 6 0 -17 27 -36
46 -32 15 3 54 48 41 48 -4 0 -11 -9 -17 -20z"/>
<path d="M3090 6350 c8 -5 20 -10 25 -10 6 0 3 5 -5 10 -8 5 -19 10 -25 10 -5
0 -3 -5 5 -10z"/>
<path d="M3208 6313 c6 -2 18 -2 25 0 6 3 1 5 -13 5 -14 0 -19 -2 -12 -5z"/>
<path d="M3273 6303 c15 -2 37 -2 50 0 12 2 0 4 -28 4 -27 0 -38 -2 -22 -4z"/>
<path d="M3368 6303 c7 -3 16 -2 19 1 4 3 -2 6 -13 5 -11 0 -14 -3 -6 -6z"/>
<path d="M5904 6849 c-71 -22 -148 -85 -188 -152 -33 -57 -96 -113 -154 -139
-26 -11 -94 -33 -152 -48 -130 -35 -111 -39 28 -5 157 38 221 76 279 165 68
105 112 139 228 181 68 24 35 23 -41 -2z"/>
<path d="M6176 6836 c-47 -18 -102 -70 -117 -111 -11 -31 -12 -31 -69 -27 -76
6 -121 -10 -164 -58 -81 -90 -70 -218 28 -313 76 -73 310 -167 417 -167 46 0
71 29 124 142 46 100 65 184 65 289 0 74 -4 93 -27 140 -48 93 -162 140 -257
105z m137 -40 c68 -28 117 -117 117 -212 0 -93 -83 -326 -131 -370 -50 -45
-320 47 -422 144 -140 134 -42 344 138 296 28 -7 51 -13 52 -14 1 0 7 17 13
38 35 108 135 159 233 118z"/>
<path d="M6300 6743 c8 -3 19 -11 23 -17 6 -7 7 -6 4 4 -2 8 -12 16 -23 17
-13 2 -15 1 -4 -4z"/>
<path d="M6392 6635 c0 -16 2 -22 5 -12 2 9 2 23 0 30 -3 6 -5 -1 -5 -18z"/>
<path d="M6148 6606 c-33 -41 -35 -61 -9 -76 28 -14 87 -12 100 4 12 14 5 73
-11 82 -5 3 -6 -6 -2 -20 14 -57 12 -61 -35 -61 -32 0 -47 5 -55 18 -9 16 -7
22 12 34 12 9 22 21 22 29 0 7 12 15 28 17 26 4 26 4 2 6 -18 1 -33 -9 -52
-33z"/>
<path d="M5984 6481 c-44 -11 -54 -19 -54 -45 0 -25 69 -96 93 -96 17 0 37 20
37 38 0 9 -7 6 -18 -9 -17 -20 -21 -21 -40 -7 -40 28 -66 69 -55 87 10 16 88
35 111 26 15 -6 16 -47 0 -63 -9 -9 -9 -12 -1 -12 16 0 26 36 19 66 -7 26 -30
29 -92 15z"/>
<path d="M6381 6474 c0 -11 3 -14 6 -6 3 7 2 16 -1 19 -3 4 -6 -2 -5 -13z"/>
<path d="M6365 6423 c-3 -15 -24 -65 -45 -110 -44 -94 -45 -113 -2 -25 37 74
66 151 60 158 -3 3 -9 -8 -13 -23z"/>
<path d="M6158 6419 c-10 -5 -18 -18 -18 -28 0 -10 -7 -24 -15 -31 -8 -7 -15
-23 -15 -36 0 -40 54 -55 119 -33 38 13 41 46 9 92 -12 18 -22 33 -22 33 -5 9
-45 11 -58 3z m43 -11 c22 -18 49 -64 49 -83 0 -30 -93 -48 -118 -23 -17 17
-15 47 3 54 8 4 15 14 15 23 0 17 18 41 30 41 3 0 13 -6 21 -12z"/>
<path d="M4421 6803 c23 -28 92 -52 175 -62 103 -12 124 -21 192 -83 31 -29
48 -42 37 -28 -76 97 -112 117 -235 129 -66 7 -103 17 -137 35 -30 17 -41 20
-32 9z"/>
<path d="M4405 6651 c-22 -10 -51 -30 -64 -44 l-23 -26 -39 21 c-87 45 -178
30 -243 -42 -117 -130 -40 -331 187 -485 98 -66 153 -88 182 -72 35 19 127
111 171 173 123 173 145 318 61 419 -58 70 -152 93 -232 56z m172 -50 c82 -59
94 -173 33 -298 -57 -115 -190 -263 -237 -263 -33 0 -146 73 -220 144 -123
116 -162 229 -110 321 51 89 142 111 232 54 l49 -31 28 32 c43 52 77 70 134
70 41 0 59 -6 91 -29z"/>
<path d="M4138 6506 c-8 -7 -24 -17 -36 -20 -12 -4 -27 -16 -33 -27 -8 -16 -5
-25 20 -49 16 -17 38 -30 48 -30 11 1 5 7 -17 18 -44 22 -55 66 -18 77 13 4
31 14 40 22 10 9 25 12 37 8 17 -5 21 -15 21 -54 0 -26 -5 -52 -12 -59 -8 -8
-8 -12 -1 -12 15 0 23 25 23 74 0 60 -37 87 -72 52z"/>
<path d="M4036 6410 c6 -33 40 -110 48 -110 3 0 -5 24 -16 53 -35 88 -39 95
-32 57z"/>
<path d="M4356 6261 c-28 -31 -17 -55 27 -59 20 -2 37 1 37 6 0 5 -13 7 -30 4
-40 -6 -53 24 -21 50 13 10 19 18 14 18 -6 0 -18 -9 -27 -19z"/>
<path d="M4407 6259 c4 -13 8 -18 11 -10 2 7 -1 18 -6 23 -8 8 -9 4 -5 -13z"/>
<path d="M4235 6146 c32 -27 145 -91 145 -82 0 3 -19 15 -42 27 -24 12 -63 35
-88 51 -39 26 -41 26 -15 4z"/>
<path d="M7602 6591 c53 -45 78 -104 78 -183 0 -78 13 -121 52 -171 16 -20 35
-52 43 -70 10 -23 14 -26 15 -12 0 20 -7 33 -63 113 -25 35 -30 53 -34 124 -2
46 -6 93 -9 106 -5 26 -67 98 -98 114 -12 5 -5 -4 16 -21z"/>
<path d="M6853 6595 c-81 -35 -94 -142 -34 -269 18 -36 43 -73 56 -82 22 -14
29 -14 82 1 162 47 245 144 199 233 -23 44 -54 62 -108 62 -38 0 -50 4 -58 21
-11 20 -66 49 -92 49 -7 -1 -28 -7 -45 -15z m100 -38 c12 -13 27 -31 32 -41 8
-14 15 -15 41 -6 41 15 79 -1 99 -40 38 -74 -30 -151 -172 -193 -49 -15 -52
-15 -72 6 -54 59 -85 190 -57 245 29 56 90 70 129 29z"/>
<path d="M7277 6306 c-99 -36 -163 -137 -193 -306 -20 -118 -14 -262 12 -291
29 -33 111 -51 251 -56 114 -5 140 -3 200 15 106 33 170 98 188 193 17 89 -50
191 -140 214 l-50 12 -7 52 c-10 66 -30 104 -70 134 -63 46 -123 57 -191 33z
m143 -48 c56 -29 80 -74 80 -150 l0 -58 33 0 c44 -1 109 -32 135 -65 72 -92 4
-240 -129 -280 -97 -28 -348 -13 -409 25 -11 7 -16 34 -18 105 -12 314 133
512 308 423z"/>
<path d="M7260 6183 c-44 -6 -60 -19 -60 -50 0 -48 63 -110 100 -98 23 7 60
68 60 100 0 28 -25 56 -48 53 -9 0 -33 -3 -52 -5z m78 -15 c16 -16 15 -53 -1
-70 -7 -7 -16 -21 -20 -30 -16 -43 -107 9 -107 62 0 26 26 43 54 36 14 -3 28
-2 31 4 8 14 28 13 43 -2z"/>
<path d="M7503 5942 c-17 -11 -43 -76 -43 -107 0 -18 7 -28 25 -35 30 -11 103
-4 122 12 18 15 16 45 -4 66 -10 9 -26 30 -36 45 -17 27 -41 34 -64 19z m49
-19 c10 -9 18 -22 18 -30 0 -7 7 -13 15 -13 20 0 32 -50 14 -61 -8 -5 -38 -9
-67 -9 -61 0 -70 11 -52 67 21 65 39 76 72 46z"/>
<path d="M7201 5908 c-21 -58 24 -97 75 -64 30 20 31 50 2 70 -28 20 -44 21
-28 1 7 -8 19 -15 26 -15 8 0 14 -9 14 -20 0 -23 -40 -46 -64 -37 -19 8 -22
73 -3 80 9 4 9 6 -1 6 -7 1 -16 -9 -21 -21z"/>
<path d="M7344 5885 c-10 -25 4 -45 30 -45 13 0 27 7 30 16 9 24 7 31 -5 12
-5 -10 -19 -18 -31 -18 -16 0 -19 5 -16 25 6 28 1 33 -8 10z"/>
<path d="M7175 5740 c11 -5 29 -8 40 -8 16 0 15 2 -5 8 -34 11 -60 11 -35 0z"/>
<path d="M7540 5740 c-8 -5 -10 -10 -5 -10 6 0 17 5 25 10 8 5 11 10 5 10 -5
0 -17 -5 -25 -10z"/>
<path d="M7248 5723 c6 -2 18 -2 25 0 6 3 1 5 -13 5 -14 0 -19 -2 -12 -5z"/>
<path d="M7343 5713 c26 -2 67 -2 90 0 23 2 2 3 -48 3 -49 0 -68 -1 -42 -3z"/>
<path d="M5174 6112 l-39 -29 -27 20 c-41 30 -116 34 -165 8 -60 -30 -87 -73
-91 -146 -5 -75 21 -132 94 -214 61 -68 179 -151 214 -151 33 0 143 89 192
156 66 91 82 132 83 210 0 62 -3 75 -28 107 -37 49 -75 67 -140 67 -44 0 -62
-6 -93 -28z m156 -17 c78 -40 94 -134 40 -242 -29 -59 -130 -174 -182 -207
-25 -16 -28 -16 -65 2 -50 26 -156 123 -192 176 -38 54 -55 115 -47 160 9 47
63 101 110 110 37 7 96 -11 128 -41 17 -15 20 -15 46 9 54 51 107 62 162 33z"/>
<path d="M5308 5803 c-18 -21 -31 -43 -25 -43 2 0 13 14 25 30 25 33 24 41 0
13z"/>
<path d="M3803 6025 c-20 -20 -43 -35 -52 -34 -38 3 -54 -3 -82 -30 -22 -23
-29 -39 -29 -69 0 -71 71 -130 190 -158 46 -11 58 -11 76 1 35 23 66 102 72
182 5 72 4 73 -31 108 -49 49 -95 49 -144 0z m127 -22 c30 -38 25 -130 -11
-199 -24 -46 -28 -49 -60 -46 -49 5 -147 51 -170 80 -27 35 -24 78 7 109 22
22 31 24 65 19 27 -4 39 -3 39 6 0 6 10 22 22 35 31 33 80 31 108 -4z"/>
<path d="M6020 6039 c-50 -20 -93 -63 -117 -117 -24 -50 -25 -62 -20 -161 5
-114 27 -192 86 -308 41 -82 54 -88 150 -73 305 48 489 214 437 393 -29 101
-129 161 -228 138 -21 -5 -38 -6 -38 -2 0 25 -66 102 -104 120 -45 23 -123 27
-166 10z m120 -29 c43 -12 93 -61 115 -113 15 -36 18 -38 43 -31 15 5 50 8 78
8 131 -1 194 -146 116 -263 -60 -88 -209 -165 -371 -190 -80 -13 -93 -6 -131
69 -66 131 -94 327 -58 410 28 66 94 115 158 119 8 1 31 -4 50 -9z"/>
<path d="M6055 5934 c-11 -12 -15 -30 -13 -63 3 -40 6 -46 27 -49 39 -6 71 7
83 34 11 23 8 28 -27 60 -44 39 -48 40 -70 18z m63 -30 l37 -36 -24 -19 c-14
-11 -36 -19 -50 -17 -22 3 -26 9 -29 41 -3 33 10 67 25 67 2 0 21 -16 41 -36z"/>
<path d="M6131 5759 c-1 -19 26 -45 36 -35 3 3 1 6 -6 6 -6 0 -16 10 -21 23
-6 15 -9 17 -9 6z"/>
<path d="M6188 5747 c-3 -19 -2 -25 4 -19 6 6 8 18 6 28 -3 14 -5 12 -10 -9z"/>
<path d="M6304 5710 c-35 -14 -37 -39 -5 -71 16 -16 34 -29 39 -29 18 0 35 31
36 68 1 33 -2 37 -24 39 -14 1 -34 -2 -46 -7z m66 -19 c0 -29 -18 -71 -30 -71
-17 0 -50 39 -50 59 0 12 8 21 23 24 47 9 57 7 57 -12z"/>
<path d="M6138 5595 c-31 -64 -20 -80 58 -80 57 0 59 1 62 28 2 15 -1 27 -7
27 -6 0 -17 16 -25 35 -12 27 -21 35 -41 35 -20 0 -30 -9 -47 -45z m77 8 c6
-11 17 -28 24 -37 23 -27 6 -46 -41 -46 -67 0 -74 9 -49 65 22 51 47 58 66 18z"/>
<path d="M6315 5513 c-16 -9 -64 -27 -105 -39 -41 -13 -68 -23 -59 -23 25 -1
139 37 179 59 19 10 31 19 25 19 -5 0 -23 -7 -40 -16z"/>
<path d="M6093 5443 c9 -2 23 -2 30 0 6 3 -1 5 -18 5 -16 0 -22 -2 -12 -5z"/>
<path d="M3046 5889 c-44 -11 -98 -48 -123 -85 -8 -14 -18 -50 -22 -81 l-6
-56 -48 -12 c-124 -31 -182 -171 -122 -292 48 -95 132 -133 312 -141 136 -5
258 15 287 47 21 24 39 166 31 251 -9 90 -33 186 -61 241 -50 100 -149 151
-248 128z m120 -48 c103 -47 164 -221 152 -433 -5 -78 -9 -95 -27 -109 -31
-26 -151 -42 -270 -37 -128 5 -201 33 -247 93 -38 50 -45 144 -15 193 28 44
77 72 129 72 l42 0 0 53 c1 84 43 155 110 180 31 11 86 6 126 -12z"/>
<path d="M3170 5685 c-7 -9 -10 -25 -6 -41 5 -20 12 -25 33 -22 15 2 29 10 31
18 5 13 3 13 -11 1 -9 -7 -24 -11 -32 -7 -20 7 -19 43 3 55 9 6 12 11 6 11 -6
0 -17 -7 -24 -15z"/>
<path d="M3216 5677 c3 -10 9 -15 12 -12 3 3 0 11 -7 18 -10 9 -11 8 -5 -6z"/>
<path d="M2846 5504 c-10 -9 -15 -23 -12 -30 3 -7 1 -16 -4 -19 -19 -12 -10
-54 14 -70 21 -14 27 -14 64 1 55 21 62 46 24 92 -33 42 -62 51 -86 26z m59
-10 c29 -30 47 -63 40 -75 -11 -17 -72 -40 -89 -33 -21 8 -30 42 -16 59 7 8
10 21 7 29 -6 15 11 36 29 36 7 0 20 -7 29 -16z"/>
<path d="M3194 5507 c21 -16 12 -47 -15 -47 -11 0 -24 10 -29 23 -5 13 -9 16
-9 7 -2 -39 51 -54 69 -19 12 21 -1 49 -23 49 -6 0 -3 -6 7 -13z"/>
<path d="M2806 5348 c7 -12 84 -50 93 -46 4 2 -17 15 -46 29 -28 14 -50 21
-47 17z"/>
<path d="M3228 5303 c7 -3 16 -2 19 1 4 3 -2 6 -13 5 -11 0 -14 -3 -6 -6z"/>
<path d="M2928 5293 c7 -3 16 -2 19 1 4 3 -2 6 -13 5 -11 0 -14 -3 -6 -6z"/>
<path d="M3173 5293 c9 -2 23 -2 30 0 6 3 -1 5 -18 5 -16 0 -22 -2 -12 -5z"/>
<path d="M3023 5283 c26 -2 67 -2 90 0 23 2 2 3 -48 3 -49 0 -68 -1 -42 -3z"/>
<path d="M4110 5607 c-48 -15 -111 -82 -143 -150 -41 -86 -59 -178 -61 -310
-1 -142 -1 -142 126 -178 113 -31 287 -33 368 -4 98 35 170 127 170 215 0 87
-62 168 -143 188 -37 10 -44 15 -40 31 3 11 -2 43 -11 73 -34 118 -144 174
-266 135z m148 -41 c63 -33 99 -106 88 -182 l-6 -44 33 0 c94 -1 164 -78 155
-171 -7 -72 -39 -113 -116 -151 -64 -32 -72 -33 -177 -32 -114 1 -231 22 -272
50 -21 13 -23 22 -23 107 1 204 72 377 175 423 39 17 109 18 143 0z"/>
<path d="M4110 5491 c-16 -31 -13 -111 5 -118 23 -8 103 25 110 46 8 25 -3 49
-25 56 -10 3 -21 12 -24 20 -8 22 -53 19 -66 -4z m79 -20 c24 -19 32 -33 28
-45 -8 -20 -73 -50 -93 -42 -17 6 -19 68 -4 97 14 26 29 24 69 -10z"/>
<path d="M4163 5323 c-7 -2 -13 -9 -13 -14 0 -5 9 -4 20 3 23 15 46 -1 37 -26
-6 -16 -42 -22 -49 -8 -3 4 -4 3 -3 -3 1 -5 13 -11 27 -13 19 -2 28 2 33 18
11 34 -17 58 -52 43z"/>
<path d="M4215 5219 c-11 -16 -1 -19 13 -3 7 8 8 14 3 14 -5 0 -13 -5 -16 -11z"/>
<path d="M4255 5200 c0 -15 3 -26 8 -23 4 2 7 13 7 23 0 10 -3 21 -7 23 -5 3
-8 -8 -8 -23z"/>
<path d="M4120 5163 c-56 -24 -62 -42 -25 -78 28 -29 79 -34 89 -9 10 26 7 79
-6 92 -14 14 -14 14 -58 -5z m56 -17 c17 -69 -29 -101 -75 -52 -27 28 -22 41
22 60 44 20 46 19 53 -8z"/>
<path d="M3976 5061 c12 -11 84 -34 89 -29 3 2 -18 12 -47 21 -28 9 -47 12
-42 8z"/>
<path d="M4088 5023 c6 -2 18 -2 25 0 6 3 1 5 -13 5 -14 0 -19 -2 -12 -5z"/>
<path d="M4138 5013 c6 -2 18 -2 25 0 6 3 1 5 -13 5 -14 0 -19 -2 -12 -5z"/>
<path d="M6770 5554 c-131 -57 -170 -208 -101 -393 33 -91 94 -199 136 -243
42 -45 116 -33 270 44 238 120 321 282 222 429 -45 68 -153 99 -233 69 -26
-10 -31 -8 -66 33 -60 71 -150 95 -228 61z m145 -38 c28 -12 86 -75 97 -106 2
-5 29 0 60 11 71 24 125 15 170 -28 122 -114 44 -280 -186 -393 -55 -27 -124
-55 -154 -62 l-55 -12 -29 35 c-67 79 -148 282 -148 369 0 146 121 238 245
186z"/>
<path d="M6762 5438 c-15 -15 -16 -79 0 -113 14 -30 41 -32 85 -5 66 40 65 81
-4 111 -52 22 -65 23 -81 7z m58 -13 c7 -8 16 -12 21 -10 13 9 49 -33 43 -50
-7 -18 -66 -55 -88 -55 -9 0 -21 12 -26 26 -11 29 -13 87 -3 97 11 12 40 8 53
-8z"/>
<path d="M7007 5245 c-15 -14 -27 -32 -27 -39 0 -21 26 -38 62 -39 31 -2 33 0
36 36 3 38 -10 67 -32 67 -6 0 -24 -11 -39 -25z m61 -33 c3 -46 -4 -51 -52
-32 -32 12 -33 25 -3 56 32 35 51 27 55 -24z"/>
<path d="M7000 5008 c-25 -11 -67 -27 -93 -35 -27 -8 -47 -16 -45 -19 7 -6
128 34 168 56 46 25 27 24 -30 -2z"/>
<path d="M4918 5221 c-136 -44 -188 -183 -123 -337 49 -117 243 -314 310 -314
34 0 153 89 230 172 152 163 177 321 65 422 -71 64 -150 69 -234 16 l-44 -28
-19 20 c-38 42 -129 66 -185 49z m115 -45 c18 -7 47 -30 65 -50 18 -20 37 -34
42 -31 6 3 10 2 10 -3 0 -6 -7 -13 -16 -16 -8 -3 -13 -10 -9 -15 3 -6 13 -7
21 -4 11 4 14 14 10 34 -11 56 85 104 164 80 111 -33 143 -173 69 -298 -57
-96 -238 -263 -285 -263 -24 0 -133 92 -187 157 -96 119 -130 209 -108 290 28
104 130 159 224 119z"/>
<path d="M4998 5029 c3 -24 0 -39 -7 -39 -6 0 -11 -4 -11 -10 0 -5 7 -7 15 -4
16 6 22 79 7 88 -4 2 -6 -13 -4 -35z"/>
<path d="M4932 5048 c-18 -18 -14 -46 7 -58 31 -16 35 -12 10 9 -21 17 -22 22
-11 40 14 24 12 27 -6 9z"/>
<path d="M5245 5013 c-63 -10 -72 -44 -24 -98 17 -19 38 -35 48 -35 17 0 61
73 61 101 0 8 -5 20 -12 27 -12 12 -19 13 -73 5z m73 -29 c3 -22 -34 -94 -48
-94 -23 0 -75 74 -67 94 3 8 21 17 39 19 57 7 73 3 76 -19z"/>
<path d="M4826 4985 c7 -34 40 -115 48 -115 2 0 -5 24 -16 53 -35 89 -38 95
-32 62z"/>
<path d="M4911 4814 c39 -58 161 -174 183 -174 5 0 -9 13 -30 28 -22 16 -68
60 -103 98 -36 38 -58 60 -50 48z"/>
<path d="M2780 5077 c-1 -18 50 -104 77 -129 15 -15 60 -41 98 -59 100 -45
124 -65 153 -128 21 -45 27 -78 33 -181 4 -69 13 -142 19 -162 18 -61 72 -130
131 -166 47 -29 50 -29 19 -5 -110 88 -139 149 -151 317 -5 66 -11 134 -15
151 -19 86 -78 149 -175 185 -72 27 -132 78 -164 139 -13 25 -24 42 -25 38z"/>
<path d="M7320 4870 c-42 -105 -72 -144 -167 -221 -107 -87 -126 -113 -138
-184 -5 -36 -4 -34 14 15 20 55 56 96 165 184 26 21 61 56 76 78 29 40 95 196
87 204 -3 3 -19 -31 -37 -76z"/>
<path d="M3725 4925 c-5 -2 -22 -6 -37 -9 -36 -8 -94 -60 -117 -104 l-18 -35
-75 -1 c-63 -1 -81 -5 -116 -29 -57 -37 -86 -96 -86 -172 0 -133 112 -240 318
-304 93 -29 200 -38 222 -20 27 22 102 189 124 275 39 151 21 265 -53 342 -37
39 -125 70 -162 57z m82 -46 c128 -48 151 -239 56 -461 -15 -35 -38 -80 -51
-102 l-24 -38 -60 6 c-186 21 -362 123 -404 232 -56 148 85 272 238 209 13 -5
19 1 26 29 29 102 129 159 219 125z"/>
<path d="M3756 4755 c-20 -21 -21 -57 0 -100 21 -44 37 -49 85 -25 73 38 77
112 7 123 -18 3 -42 8 -54 12 -14 4 -27 1 -38 -10z m49 -5 c3 -5 19 -10 34
-10 57 0 68 -44 20 -84 -44 -37 -76 -34 -95 9 -7 19 -14 43 -14 53 0 33 40 56
55 32z"/>
<path d="M3635 4729 c-4 -6 -4 -13 -1 -16 3 -4 6 -1 6 6 0 9 9 12 25 9 13 -3
22 -1 19 3 -7 13 -42 11 -49 -2z"/>
<path d="M3665 4680 c-16 -7 -17 -9 -3 -9 9 -1 20 4 23 9 7 11 7 11 -20 0z"/>
<path d="M3490 4591 c-5 -11 -7 -26 -4 -34 3 -8 1 -18 -5 -22 -15 -8 -14 -48
1 -63 21 -21 79 -14 115 14 18 14 33 29 33 34 0 6 -16 28 -36 50 -41 45 -86
54 -104 21z m93 -25 c35 -44 34 -62 -3 -81 -62 -32 -120 -10 -92 36 7 10 12
29 12 42 0 50 44 51 83 3z"/>
<path d="M3726 4522 c-2 -4 8 -8 22 -7 22 0 27 -4 27 -25 0 -35 -41 -41 -55
-8 -7 17 -9 18 -7 4 1 -10 10 -24 20 -30 34 -22 73 27 47 59 -13 16 -46 20
-54 7z"/>
<path d="M3389 4457 c25 -28 111 -87 126 -87 5 0 -13 14 -41 31 -27 17 -62 43
-79 58 l-30 26 24 -28z"/>
<path d="M3640 4325 c19 -7 49 -13 65 -13 21 0 14 4 -25 13 -69 18 -85 17 -40
0z"/>
<path d="M6611 4568 c-34 -18 -61 -58 -67 -100 -12 -73 97 -248 154 -248 41 0
123 52 175 110 43 47 47 57 47 102 0 42 -5 54 -30 80 -29 28 -35 30 -88 25
-47 -4 -61 -1 -78 15 -27 24 -82 32 -113 16z m101 -47 c31 -27 33 -28 66 -14
28 12 40 12 64 2 83 -34 59 -132 -55 -215 -73 -54 -96 -56 -135 -6 -81 102
-100 194 -49 238 37 32 70 30 109 -5z"/>
<path d="M4744 4492 c-12 -9 -26 -25 -31 -36 -7 -13 -23 -19 -52 -20 -105 -5
-140 -144 -54 -213 60 -49 190 -91 234 -78 31 10 81 126 86 199 6 74 -7 116
-45 146 -32 26 -108 27 -138 2z m105 -17 c57 -29 66 -128 21 -233 -32 -73 -37
-76 -112 -57 -143 36 -212 132 -146 202 20 21 29 24 64 19 39 -5 43 -3 54 25
12 29 51 58 78 59 7 0 26 -7 41 -15z"/>
<path d="M5743 4450 c-114 -58 -145 -203 -73 -338 17 -33 55 -87 83 -121 66
-78 189 -171 225 -171 51 0 184 105 258 203 122 161 133 289 33 389 -32 32
-58 49 -83 54 -59 11 -123 -1 -166 -31 l-40 -28 -41 28 c-58 38 -138 44 -196
15z m469 -36 c16 -8 40 -33 55 -56 65 -98 21 -230 -127 -378 -47 -47 -102 -94
-122 -105 -38 -19 -38 -19 -75 0 -65 34 -205 182 -241 254 -41 83 -45 169 -9
222 34 50 82 79 134 79 51 0 76 -11 121 -53 l32 -31 33 32 c63 61 128 73 199
36z"/>
<path d="M5749 4353 c-11 -15 -11 -16 1 -5 19 16 47 15 57 -2 4 -8 17 -15 27
-17 10 -2 24 -12 30 -22 16 -27 -35 -69 -78 -65 -27 3 -32 8 -44 48 l-12 45 5
-45 c8 -64 24 -77 75 -61 72 22 91 88 30 110 -17 5 -30 15 -30 20 0 18 -46 12
-61 -6z"/>
<path d="M5960 4225 c-17 -21 -3 -92 23 -110 39 -27 121 39 105 86 -4 12 -72
39 -99 39 -9 0 -22 -7 -29 -15z m68 -4 c9 -5 25 -12 35 -15 26 -8 20 -42 -12
-65 -46 -33 -68 -28 -81 18 -5 21 -7 46 -4 55 7 18 35 21 62 7z"/>
<path d="M6189 4074 c-23 -31 -70 -81 -103 -111 -34 -31 -43 -42 -21 -26 49
37 147 140 164 171 20 37 6 25 -40 -34z"/>
<path d="M5821 4106 c-14 -17 0 -76 23 -95 18 -15 74 22 82 54 8 33 -1 41 -52
50 -30 4 -44 2 -53 -9z m92 -13 c21 -12 -19 -73 -48 -73 -19 0 -47 54 -39 75
5 12 15 14 43 9 20 -4 39 -9 44 -11z"/>
<path d="M5994 3894 c-18 -14 -18 -15 4 -4 12 6 22 13 22 15 0 8 -5 6 -26 -11z"/>
<path d="M3971 4228 c-115 -57 -147 -199 -80 -361 32 -76 121 -207 173 -255
51 -47 59 -48 152 -7 134 59 286 189 324 278 24 55 29 133 11 178 -14 39 -66
94 -105 113 -46 22 -123 20 -170 -3 l-38 -20 -29 34 c-59 67 -155 85 -238 43z
m170 -34 c14 -7 38 -30 54 -51 16 -21 30 -40 31 -42 2 -2 16 6 31 17 72 51
160 47 219 -12 93 -93 46 -245 -114 -366 -80 -59 -198 -120 -235 -120 -59 0
-205 227 -228 355 -31 166 105 289 242 219z"/>
<path d="M4025 4105 c23 -47 20 -65 -14 -65 -41 0 -56 22 -31 45 11 10 20 23
20 28 0 5 -11 -2 -25 -17 -28 -30 -24 -53 10 -62 60 -15 86 29 45 77 l-20 24
15 -30z"/>
<path d="M4308 4013 c-9 -10 -21 -36 -27 -57 -9 -33 -8 -43 6 -58 20 -23 90
-24 121 -2 27 19 29 58 4 76 -11 7 -24 23 -31 36 -14 27 -52 29 -73 5z m67
-20 c5 -13 15 -23 21 -23 16 0 26 -28 19 -51 -8 -24 -48 -34 -94 -23 -33 8
-36 12 -32 39 1 17 10 43 18 58 17 34 53 34 68 0z"/>
<path d="M4040 3840 c0 -18 49 -35 62 -22 8 8 6 10 -9 6 -11 -3 -27 2 -37 11
-9 9 -16 12 -16 5z"/>
<path d="M4225 3688 c-22 -12 -58 -27 -80 -34 -22 -7 -31 -13 -20 -13 21 -1
145 54 145 64 0 7 1 7 -45 -17z"/>
<path d="M6407 3639 c-51 -67 -124 -113 -242 -152 -203 -69 -266 -122 -334
-285 -24 -56 -57 -120 -73 -143 -36 -50 -103 -83 -212 -104 -91 -17 -153 -44
-187 -82 l-24 -26 36 26 c50 37 91 53 193 72 159 29 211 74 276 238 62 156
137 225 310 283 56 18 121 45 144 58 44 26 118 95 144 134 28 42 7 29 -31 -19z"/>
<path d="M4925 3621 c-74 -34 -125 -114 -125 -196 0 -52 33 -145 75 -210 45
-70 143 -176 202 -216 41 -29 44 -29 78 -15 110 46 263 184 320 287 26 47 30
64 30 135 0 71 -3 86 -25 117 -35 49 -70 74 -122 88 -55 15 -105 6 -153 -27
l-38 -25 -31 30 c-56 54 -137 66 -211 32z m153 -35 c15 -8 40 -28 56 -44 l28
-31 50 35 c114 78 246 14 256 -125 6 -82 -31 -154 -128 -251 -68 -68 -186
-150 -216 -150 -23 0 -125 92 -174 157 -96 127 -128 232 -96 317 9 24 24 51
34 59 51 46 136 61 190 33z"/>
<path d="M4980 3498 c-65 -19 -69 -63 -9 -107 50 -36 71 -30 90 26 28 83 5
106 -81 81z m78 -15 c13 -22 -15 -103 -35 -103 -43 0 -107 84 -70 94 6 2 26 8
42 14 44 15 53 14 63 -5z"/>
<path d="M5178 3262 c-7 -10 -21 -21 -30 -25 -37 -13 -17 -49 34 -61 43 -10
58 2 57 43 l-2 36 -6 -35 c-5 -31 -9 -35 -34 -33 -16 1 -35 7 -43 14 -11 9 -8
16 18 41 17 16 37 27 45 24 8 -3 11 -1 8 4 -10 16 -33 12 -47 -8z"/>
<path d="M5027 3121 c34 -33 73 -65 85 -71 26 -12 33 -19 -87 82 l-60 50 62
-61z"/>
<path d="M4225 3410 c11 -5 45 -16 75 -24 75 -21 129 -69 206 -187 67 -102
101 -137 165 -169 60 -31 56 -24 -12 23 -53 35 -76 61 -139 154 -101 150 -142
180 -285 207 -23 4 -26 3 -10 -4z"/>
</g>
</svg>
