<?xml version="1.0" standalone="no"?>
<!DOCTYPE svg PUBLIC "-//W3C//DTD SVG 20010904//EN"
 "http://www.w3.org/TR/2001/REC-SVG-20010904/DTD/svg10.dtd">
<svg version="1.0" xmlns="http://www.w3.org/2000/svg"
 width="1024.000000pt" height="1024.000000pt" viewBox="0 0 1024.000000 1024.000000"
 preserveAspectRatio="xMidYMid meet">
<metadata>
Created by potrace 1.16, written by Peter Selinger 2001-2019
</metadata>
<g transform="translate(0.000000,1024.000000) scale(0.100000,-0.100000)"
fill="#000000" stroke="none">
<path d="M3515 7376 c-109 -17 -199 -49 -279 -97 -37 -22 -93 -47 -124 -55
-128 -34 -223 -86 -338 -185 -121 -105 -215 -240 -244 -348 -6 -24 -29 -67
-51 -96 -111 -147 -179 -403 -150 -560 9 -45 9 -87 -1 -172 -26 -247 35 -527
153 -700 16 -23 29 -55 29 -71 0 -46 45 -210 80 -295 48 -115 160 -278 260
-377 47 -47 92 -101 100 -120 60 -157 240 -381 382 -478 30 -20 58 -52 79 -88
105 -185 340 -399 543 -495 44 -21 66 -40 91 -76 100 -147 281 -290 458 -362
38 -16 80 -48 152 -119 149 -145 316 -240 455 -257 101 -12 226 23 345 97 79
50 177 132 210 177 22 30 43 45 80 57 132 44 264 133 383 259 48 51 103 120
122 153 31 54 41 63 82 77 151 52 331 220 446 418 34 59 55 83 83 97 20 11 70
46 110 78 176 140 353 369 419 543 15 38 42 77 87 125 198 210 383 597 383
803 0 27 12 63 39 113 51 94 70 168 78 298 4 82 2 124 -12 190 -10 47 -18 96
-17 110 0 14 4 77 8 142 6 107 4 123 -20 210 -33 116 -74 202 -124 259 -22 25
-47 68 -57 99 -69 216 -348 468 -581 526 -38 9 -99 30 -135 45 -96 42 -203 67
-341 79 -177 15 -299 -4 -403 -64 -31 -18 -61 -25 -130 -29 -209 -13 -469
-141 -577 -283 -32 -42 -49 -56 -82 -65 -66 -17 -203 -85 -272 -135 l-65 -46
-42 34 c-99 81 -220 152 -302 178 -22 7 -64 35 -94 62 -179 163 -414 268 -636
284 -44 3 -114 16 -155 29 -144 44 -276 54 -425 31z m374 -57 c38 -10 42 -14
27 -24 -13 -10 8 -13 111 -17 147 -6 249 -29 383 -87 89 -38 239 -131 274
-170 19 -21 19 -21 -5 -21 -15 -1 5 -12 50 -30 40 -16 109 -47 153 -69 81 -41
268 -166 268 -179 -1 -4 -7 -18 -15 -32 -26 -45 -16 -41 44 19 47 47 87 73
204 132 80 41 148 71 152 68 3 -4 1 -18 -4 -33 -16 -39 -6 -31 25 21 92 158
298 288 537 338 38 8 79 15 93 15 l25 0 -28 -37 c-28 -38 -28 -38 -3 -20 164
116 220 137 381 144 121 6 265 -11 383 -44 l59 -17 -39 -12 -39 -12 56 -1
c171 -3 336 -76 511 -225 79 -67 168 -177 210 -260 28 -56 29 -58 9 -53 -16 4
-10 -7 24 -46 160 -177 226 -469 158 -692 -5 -17 -4 -18 9 -7 13 10 16 7 22
-28 37 -231 -1 -434 -112 -597 -48 -71 -53 -87 -17 -53 l25 23 0 -24 c-1 -97
-94 -343 -193 -511 -74 -125 -209 -302 -218 -286 -6 9 -12 3 -20 -22 -64 -184
-279 -472 -458 -614 -89 -70 -95 -74 -86 -47 12 38 -2 23 -51 -56 -148 -237
-286 -377 -463 -468 l-34 -17 7 29 c5 25 4 26 -7 9 -48 -73 -128 -181 -175
-234 -93 -106 -264 -233 -365 -271 -27 -10 -28 -10 -22 11 4 14 -28 -15 -78
-68 -85 -90 -188 -169 -282 -217 -186 -93 -351 -72 -567 74 -68 46 -188 147
-188 158 0 4 15 6 33 4 21 -3 -3 11 -68 40 -180 80 -295 157 -422 282 -51 51
-93 97 -93 103 0 7 10 8 30 2 55 -16 31 5 -47 39 -94 43 -242 141 -351 233
-80 68 -216 217 -255 278 l-19 30 26 -10 c14 -5 26 -8 26 -6 0 1 -39 32 -87
68 -153 114 -279 261 -387 451 -28 48 -28 49 -6 42 13 -4 -27 42 -91 106 -184
183 -294 371 -344 584 -19 84 -19 80 10 61 13 -9 27 -16 29 -16 3 0 -18 30
-46 68 -102 134 -166 313 -188 523 -11 114 -13 219 -4 243 6 15 8 15 21 -1 13
-17 14 -16 8 7 -32 130 -37 170 -31 252 9 119 38 224 97 346 47 97 68 123 70
85 0 -10 9 14 19 54 53 201 224 399 439 508 64 32 132 57 139 51 2 -3 -6 -19
-19 -37 -19 -27 -10 -22 46 25 88 72 191 123 303 147 70 15 116 18 237 15 83
-2 170 -10 194 -17z"/>
<path d="M3953 7141 c-81 -30 -139 -65 -256 -156 -125 -98 -202 -137 -330
-169 -130 -33 -157 -37 -157 -25 0 17 50 111 86 162 19 26 30 47 24 47 -21 0
-112 -131 -172 -245 -52 -102 -74 -132 -144 -202 -46 -46 -87 -83 -92 -83 -10
0 -32 118 -32 169 0 16 -4 33 -10 36 -6 4 -9 -60 -7 -182 2 -208 -5 -244 -64
-338 l-31 -49 -17 22 c-14 19 -44 82 -106 222 l-15 35 6 -40 c3 -22 34 -112
68 -200 92 -234 106 -306 82 -442 -9 -50 -20 -103 -26 -119 l-11 -28 -111 110
c-62 60 -105 100 -98 89 30 -42 97 -123 165 -200 190 -214 254 -343 255 -513
l0 -53 -37 20 c-94 50 -247 122 -233 109 8 -8 80 -54 160 -103 179 -109 240
-156 320 -242 72 -79 135 -201 174 -337 14 -49 24 -91 22 -93 -2 -2 -63 12
-135 32 -211 56 -197 44 51 -45 243 -87 381 -171 473 -288 46 -58 171 -289
161 -299 -3 -3 -64 4 -136 16 -222 36 -209 21 32 -34 271 -62 426 -127 551
-230 60 -50 168 -167 219 -239 l21 -28 -52 7 c-29 4 -89 3 -134 -1 l-82 -8
116 -12 c258 -27 422 -96 608 -256 l43 -37 -32 -19 c-17 -11 -53 -25 -78 -32
-91 -23 -101 -30 -36 -25 33 2 69 7 80 11 15 6 13 1 -8 -23 -58 -62 -24 -40
75 48 170 152 284 217 478 272 128 37 149 41 149 25 0 -7 -18 -58 -40 -113
-22 -55 -32 -91 -24 -80 24 31 81 147 109 221 73 193 184 345 306 416 64 38
156 74 165 65 9 -9 -34 -194 -60 -259 -14 -34 -23 -64 -21 -67 10 -10 85 170
109 264 40 149 92 250 166 318 51 47 185 126 195 115 3 -4 -11 -169 -19 -223
l-7 -40 16 34 c8 18 22 75 30 125 48 283 62 326 135 409 35 39 156 127 176
127 4 0 4 -61 1 -135 -3 -74 -4 -135 -2 -135 7 0 25 104 35 211 24 245 76 382
191 499 61 63 117 100 250 163 62 30 123 65 134 78 19 21 18 21 -25 -3 -49
-28 -207 -84 -215 -77 -10 10 36 172 66 231 29 60 54 94 242 346 43 57 70 99
59 93 -20 -10 -92 -86 -133 -140 l-26 -33 -12 63 c-7 35 -15 109 -18 164 -7
131 11 224 77 395 33 85 53 155 56 190 l4 55 -13 -52 c-13 -50 -64 -160 -78
-169 -16 -9 -148 150 -208 252 -36 60 -84 142 -108 182 -24 40 -43 75 -43 79
0 10 171 -5 225 -20 28 -8 61 -17 75 -21 17 -4 13 0 -11 13 -78 43 -176 62
-371 71 -200 10 -345 34 -451 74 -56 21 -197 86 -197 90 0 11 154 110 220 143
47 24 82 43 79 43 -3 0 -30 -7 -60 -16 -75 -23 -156 -65 -274 -144 -179 -120
-271 -153 -411 -148 l-75 3 60 88 c33 48 56 87 52 87 -10 0 -68 -63 -138 -150
-81 -100 -139 -153 -211 -189 -58 -29 -201 -75 -209 -67 -3 2 10 37 27 76 16
40 29 75 27 76 -2 2 -31 -43 -65 -100 -73 -122 -128 -187 -188 -222 -65 -38
-107 -47 -167 -34 -62 12 -114 45 -210 131 -67 60 -69 64 -46 70 13 4 60 8
104 9 117 3 49 16 -145 28 -221 14 -299 45 -445 177 l-69 63 59 12 c33 7 94
16 135 19 l75 7 -60 9 c-43 6 -100 3 -200 -10 -154 -21 -264 -22 -340 -6 -64
14 -225 73 -225 82 0 13 134 109 188 134 28 14 52 28 52 30 0 6 3 7 -57 -14z
m-158 -204 c139 -65 280 -90 420 -75 l73 8 75 -74 c132 -130 225 -179 370
-192 l76 -7 93 -91 c139 -138 234 -176 351 -142 68 20 146 80 195 151 32 48
37 51 99 62 147 27 247 77 329 165 l48 52 96 -3 c149 -4 240 23 365 106 l52
34 76 -41 c163 -88 297 -124 513 -135 l132 -7 52 -97 c123 -225 163 -285 247
-372 l83 -87 -32 -93 c-32 -91 -33 -99 -32 -244 1 -119 5 -165 22 -223 l20
-74 -32 -36 c-100 -112 -169 -261 -182 -393 -5 -55 -10 -69 -28 -77 -46 -21
-129 -97 -172 -158 -59 -83 -100 -181 -117 -280 l-13 -79 -71 -40 c-148 -84
-205 -156 -246 -309 l-23 -89 -60 -21 c-119 -43 -213 -130 -270 -249 -19 -39
-34 -77 -34 -83 0 -6 -25 -16 -56 -22 -184 -37 -362 -208 -444 -425 -23 -61
-28 -66 -60 -72 -84 -15 -233 -57 -300 -86 -91 -38 -136 -66 -223 -137 l-68
-55 -47 45 c-67 64 -129 111 -193 147 -55 31 -188 81 -218 82 -9 0 -43 38 -75
85 -152 218 -303 330 -538 398 l-82 23 -51 114 c-60 136 -118 224 -197 301
-61 61 -180 136 -258 164 l-48 17 -26 99 c-62 239 -160 390 -326 504 l-70 48
0 92 c0 151 -47 271 -157 401 l-54 63 27 83 c38 117 38 258 0 371 -25 72 -25
80 -11 100 79 108 105 173 110 283 2 66 3 66 41 86 61 31 164 143 206 223 l38
71 62 7 c160 16 314 76 418 160 30 25 60 45 65 45 6 1 33 -10 60 -22z"/>
<path d="M3601 6790 c-24 -11 -59 -34 -78 -51 -45 -39 -71 -49 -163 -60 -41
-6 -95 -20 -120 -31 -62 -30 -142 -113 -179 -185 -38 -76 -49 -149 -43 -280 3
-77 1 -108 -10 -130 -58 -110 -68 -134 -67 -154 0 -17 4 -13 13 16 7 22 24 58
38 80 39 63 43 81 43 235 0 142 1 146 32 212 38 80 108 159 169 188 24 12 74
26 111 31 92 13 126 25 178 64 48 37 96 64 135 76 20 6 21 7 5 8 -11 0 -40 -8
-64 -19z"/>
<path d="M6565 6786 c22 -8 71 -30 108 -50 49 -26 80 -36 110 -35 l42 1 -55
12 c-30 7 -86 29 -124 49 -38 20 -81 37 -95 36 -22 0 -19 -3 14 -13z"/>
<path d="M6462 6740 c-12 -5 -25 -17 -29 -26 -4 -10 -13 -14 -29 -10 -53 14
-104 -43 -90 -100 4 -15 21 -40 37 -55 33 -31 127 -66 152 -56 24 9 67 107 67
153 0 56 -7 72 -41 89 -32 17 -35 17 -67 5z m68 -30 c25 -25 26 -75 1 -132
-30 -71 -41 -75 -108 -42 -31 16 -66 42 -77 57 -19 26 -19 30 -5 55 13 23 22
27 57 26 28 0 42 4 42 12 0 15 38 44 57 44 7 0 22 -9 33 -20z"/>
<path d="M4172 6710 c-32 -13 -54 -70 -46 -120 4 -22 19 -60 35 -85 23 -36 34
-45 57 -45 43 0 131 48 153 84 36 57 2 126 -62 126 -17 0 -38 10 -53 25 -26
26 -46 30 -84 15z m79 -44 c10 -20 17 -23 43 -19 35 5 61 -11 70 -43 12 -40
-56 -99 -136 -119 -26 -7 -30 -3 -53 46 -42 92 -27 159 37 159 20 0 32 -7 39
-24z"/>
<path d="M3537 6638 c-45 -12 -91 -56 -108 -103 -12 -33 -16 -35 -56 -35 -86
0 -152 -50 -174 -132 -40 -151 150 -293 400 -300 88 -2 96 5 137 127 35 105
44 241 20 312 -33 99 -126 154 -219 131z m143 -66 c49 -49 64 -103 57 -207 -5
-81 -37 -201 -63 -242 -12 -19 -23 -23 -68 -23 -29 0 -87 9 -129 19 -166 43
-247 112 -247 213 0 89 68 146 160 134 l45 -6 18 49 c25 72 64 101 134 101 51
0 59 -3 93 -38z"/>
<path d="M3627 6499 c7 -7 15 -10 18 -7 3 3 -2 9 -12 12 -14 6 -15 5 -6 -5z"/>
<path d="M3556 6402 c-3 -5 5 -8 16 -8 15 1 24 -7 29 -24 6 -21 7 -22 8 -4 2
32 -38 60 -53 36z"/>
<path d="M3341 6352 c-48 -40 -41 -71 21 -91 62 -19 79 -6 74 54 -1 23 -6 47
-10 54 -12 19 -51 12 -85 -17z m80 11 c11 -100 -1 -116 -65 -89 -44 18 -47 46
-8 75 26 20 71 28 73 14z"/>
<path d="M3558 6348 c5 -5 16 -8 23 -6 8 3 3 7 -10 11 -17 4 -21 3 -13 -5z"/>
<path d="M3269 6251 c6 -10 23 -26 38 -36 26 -16 25 -15 -6 19 -39 40 -46 44
-32 17z"/>
<path d="M3607 6212 c2 -10 -3 -24 -11 -31 -13 -11 -19 -11 -33 0 -17 12 -17
12 -2 -5 14 -15 21 -16 38 -7 21 12 29 45 12 55 -5 4 -7 -2 -4 -12z"/>
<path d="M3340 6196 c0 -3 9 -10 20 -16 11 -6 20 -8 20 -6 0 3 -9 10 -20 16
-11 6 -20 8 -20 6z"/>
<path d="M3573 6123 c15 -2 37 -2 50 0 12 2 0 4 -28 4 -27 0 -38 -2 -22 -4z"/>
<path d="M5755 6576 c-54 -25 -94 -64 -144 -138 -37 -56 -94 -92 -194 -124
-40 -12 -65 -23 -56 -23 32 -2 144 38 189 67 29 18 61 53 89 95 45 69 79 96
159 128 26 10 38 18 27 18 -11 1 -42 -10 -70 -23z"/>
<path d="M6004 6571 c-41 -19 -78 -57 -89 -91 -5 -16 -16 -19 -63 -18 -92 1
-150 -40 -173 -124 -20 -78 21 -167 104 -223 62 -42 179 -89 264 -105 81 -16
98 -6 146 92 71 143 87 294 41 385 -20 42 -35 57 -77 77 -60 31 -97 32 -153 7z
m158 -42 c87 -63 89 -232 4 -402 -40 -80 -42 -82 -80 -85 -51 -4 -186 38 -256
80 -30 18 -69 52 -87 76 -28 37 -33 52 -33 99 0 51 3 58 39 94 34 34 44 39 85
39 26 0 56 -5 67 -10 17 -10 22 -6 38 32 43 100 142 134 223 77z"/>
<path d="M6201 6404 c0 -11 3 -14 6 -6 3 7 2 16 -1 19 -3 4 -6 -2 -5 -13z"/>
<path d="M5985 6369 c-15 -15 -17 -24 -9 -37 21 -33 105 -23 104 12 0 6 -5 3
-11 -6 -13 -24 -77 -25 -86 -2 -4 10 1 22 12 30 10 8 16 16 13 19 -2 3 -13 -4
-23 -16z"/>
<path d="M6061 6374 c0 -11 3 -14 6 -6 3 7 2 16 -1 19 -3 4 -6 -2 -5 -13z"/>
<path d="M5880 6281 c-8 -6 -18 -8 -22 -5 -4 3 -17 0 -28 -6 -30 -16 -25 -54
11 -84 36 -30 51 -32 70 -9 13 15 12 15 -8 2 -20 -12 -25 -11 -53 16 -28 26
-40 63 -22 66 4 1 16 3 28 4 22 2 66 24 49 25 -5 0 -17 -4 -25 -9z"/>
<path d="M5925 6262 c4 -13 1 -30 -6 -38 -6 -8 -9 -17 -6 -21 4 -3 11 6 18 20
8 19 8 29 0 43 -11 17 -11 17 -6 -4z"/>
<path d="M6027 6220 c25 -10 57 -65 49 -85 -2 -7 -15 -16 -28 -18 -23 -5 -23
-5 1 -4 38 3 49 31 27 69 -22 37 -34 48 -56 47 -9 0 -6 -4 7 -9z"/>
<path d="M5976 6186 c-18 -34 -15 -76 6 -76 6 0 6 6 -2 15 -10 12 -9 22 5 51
22 46 15 54 -9 10z"/>
<path d="M6137 6125 c-9 -19 -15 -35 -12 -35 7 0 37 61 33 66 -3 2 -12 -12
-21 -31z"/>
<path d="M4533 6545 c30 -27 84 -45 136 -45 59 0 111 -22 164 -69 46 -40 48
-42 23 -11 -52 64 -87 82 -176 91 -56 5 -95 16 -128 33 l-47 26 28 -25z"/>
<path d="M4515 6421 c-22 -10 -48 -28 -59 -39 -18 -21 -18 -21 -54 -1 -68 36
-155 19 -204 -39 -82 -97 -52 -219 82 -346 68 -64 153 -119 202 -131 24 -6 35
2 100 67 73 74 129 155 154 225 17 49 18 135 0 176 -17 42 -66 83 -114 97 -50
13 -60 13 -107 -9z m137 -38 c15 -7 37 -32 49 -55 46 -90 1 -221 -122 -352
-39 -42 -79 -76 -88 -76 -29 0 -143 73 -201 130 -61 59 -94 113 -105 172 -9
49 23 121 67 148 42 27 112 23 158 -10 l32 -22 37 36 c57 56 105 64 173 29z"/>
<path d="M4266 6287 c-22 -13 -41 -28 -44 -35 -5 -16 43 -62 65 -61 12 0 7 5
-13 14 -46 20 -57 65 -17 65 9 0 24 7 34 16 27 25 49 11 51 -33 l1 -38 4 33
c4 34 -10 62 -31 62 -6 -1 -29 -11 -50 -23z"/>
<path d="M4201 6217 c-1 -21 25 -87 34 -87 3 0 3 5 -1 11 -4 7 -13 30 -20 53
-7 23 -13 33 -13 23z"/>
<path d="M4325 6200 c-3 -5 -1 -10 4 -10 6 0 11 5 11 10 0 6 -2 10 -4 10 -3 0
-8 -4 -11 -10z"/>
<path d="M4476 6095 c-11 -8 -17 -17 -14 -20 2 -3 13 4 23 15 21 23 18 25 -9
5z"/>
<path d="M4515 6070 c0 -15 3 -26 8 -23 4 2 7 13 7 23 0 10 -3 21 -7 23 -5 3
-8 -8 -8 -23z"/>
<path d="M4467 6049 c7 -7 15 -10 18 -7 3 3 -2 9 -12 12 -14 6 -15 5 -6 -5z"/>
<path d="M4350 6005 c0 -7 110 -79 114 -74 2 2 -23 21 -55 41 -33 21 -59 35
-59 33z"/>
<path d="M7236 6359 c47 -50 55 -73 59 -155 3 -63 8 -82 32 -116 15 -22 36
-54 45 -72 10 -17 18 -24 18 -16 0 8 -18 41 -40 74 -37 54 -40 64 -40 124 0
79 -26 141 -73 174 l-32 21 31 -34z"/>
<path d="M6574 6362 c-30 -24 -44 -55 -44 -96 0 -43 33 -135 62 -171 19 -24
26 -27 65 -22 62 7 153 55 180 96 49 73 13 155 -68 156 -34 1 -50 7 -71 28
-32 32 -91 36 -124 9z m91 -8 c8 -4 22 -19 30 -35 14 -26 17 -27 46 -17 55 19
101 -33 85 -98 -8 -31 -62 -71 -131 -95 -68 -24 -76 -19 -111 56 -33 69 -32
138 1 170 24 25 49 31 80 19z"/>
<path d="M5318 6283 c7 -3 16 -2 19 1 4 3 -2 6 -13 5 -11 0 -14 -3 -6 -6z"/>
<path d="M6952 6129 c-107 -31 -178 -200 -170 -407 2 -79 6 -96 23 -108 34
-25 87 -36 201 -41 167 -8 263 27 311 112 27 47 30 122 8 165 -19 37 -70 76
-115 87 -33 9 -35 13 -40 56 -7 59 -34 96 -90 125 -47 23 -75 26 -128 11z
m130 -45 c38 -19 58 -63 58 -124 0 -49 1 -50 30 -50 44 0 107 -35 125 -70 49
-95 -23 -204 -153 -231 -62 -13 -202 -7 -264 11 -61 17 -68 31 -68 123 1 269
120 418 272 341z"/>
<path d="M6936 6021 c-58 -13 -60 -76 -4 -110 37 -23 54 -18 73 20 22 41 18
49 -6 12 -12 -18 -29 -33 -38 -33 -26 0 -63 44 -59 71 2 19 11 25 48 31 40 7
47 5 64 -15 l18 -22 -14 25 c-16 27 -36 32 -82 21z"/>
<path d="M7130 5805 c-18 -22 -25 -91 -10 -100 9 -6 11 -4 6 4 -11 17 2 77 20
96 9 8 11 15 6 15 -5 0 -15 -7 -22 -15z"/>
<path d="M7178 5809 c40 -49 62 -70 62 -61 0 6 -6 15 -12 19 -7 4 -18 17 -24
27 -6 11 -16 22 -24 24 -10 4 -11 2 -2 -9z"/>
<path d="M6890 5795 c-6 -8 -10 -19 -8 -24 1 -6 8 1 15 14 13 28 11 31 -7 10z"/>
<path d="M6942 5787 c27 -22 27 -24 10 -42 -17 -19 -17 -19 6 -1 12 11 22 20
22 22 0 8 -45 44 -54 44 -6 -1 1 -11 16 -23z"/>
<path d="M7005 5769 c-4 -6 -5 -12 -2 -15 2 -3 7 2 10 11 7 17 1 20 -8 4z"/>
<path d="M6890 5740 c0 -6 7 -13 15 -17 24 -9 27 1 5 15 -13 8 -20 8 -20 2z"/>
<path d="M7222 5714 c-7 -8 -8 -14 -3 -14 10 0 25 19 20 25 -2 1 -10 -3 -17
-11z"/>
<path d="M7160 5700 c-24 -8 -23 -8 8 -9 17 -1 32 4 32 9 0 11 -5 11 -40 0z"/>
<path d="M6878 5643 c7 -3 16 -2 19 1 4 3 -2 6 -13 5 -11 0 -14 -3 -6 -6z"/>
<path d="M7023 5623 c15 -2 39 -2 55 0 15 2 2 4 -28 4 -30 0 -43 -2 -27 -4z"/>
<path d="M5200 5983 c-8 -3 -26 -14 -38 -24 -23 -18 -25 -18 -65 2 -98 50
-207 -19 -207 -131 0 -55 25 -111 75 -168 36 -41 143 -123 177 -135 40 -14
176 111 220 203 31 64 35 146 9 188 -37 58 -113 87 -171 65z m126 -57 c29 -29
34 -41 34 -82 0 -29 -9 -66 -22 -93 -28 -59 -156 -191 -185 -191 -47 0 -176
118 -217 197 -65 128 69 248 180 161 20 -16 29 -19 32 -9 8 23 66 51 106 51
30 0 45 -7 72 -34z"/>
<path d="M4019 5905 c-15 -8 -29 -21 -33 -30 -3 -9 -18 -15 -41 -15 -64 0
-101 -64 -72 -125 9 -19 34 -44 59 -59 48 -28 129 -49 153 -40 28 11 58 85 63
156 4 64 3 68 -26 97 -33 34 -62 38 -103 16z m95 -38 c23 -28 18 -92 -12 -161
l-22 -49 -41 7 c-47 8 -94 29 -126 59 -48 43 -17 122 44 116 21 -2 36 6 60 30
37 36 64 36 97 -2z"/>
<path d="M5875 5895 c-88 -44 -126 -143 -106 -272 12 -83 61 -218 93 -258 20
-26 24 -27 92 -22 195 14 373 129 392 253 17 115 -82 215 -196 198 -33 -4 -37
-2 -61 39 -16 26 -40 50 -61 60 -44 21 -113 22 -153 2z m165 -50 c17 -16 35
-43 42 -61 l12 -33 61 6 c92 8 132 -17 156 -100 22 -76 -39 -165 -152 -221
-71 -36 -200 -70 -240 -64 -32 4 -64 56 -95 152 -67 210 -9 363 134 353 41 -3
59 -10 82 -32z"/>
<path d="M5912 5808 c-7 -7 -12 -29 -12 -49 0 -45 24 -58 67 -37 39 19 41 49
3 76 -37 28 -39 20 -4 -13 15 -14 24 -31 21 -38 -5 -15 -56 -29 -69 -20 -12 7
-9 68 4 81 7 7 10 12 7 12 -3 0 -10 -5 -17 -12z"/>
<path d="M6027 5651 c-4 -17 -3 -21 5 -13 5 5 8 16 6 23 -3 8 -7 3 -11 -10z"/>
<path d="M6135 5620 c-3 -6 1 -7 9 -4 18 7 21 14 7 14 -6 0 -13 -4 -16 -10z"/>
<path d="M6176 5615 c9 -22 -4 -65 -20 -65 -20 0 -49 37 -42 55 3 9 2 13 -4
10 -6 -3 -10 -12 -10 -19 0 -15 42 -56 58 -56 25 0 44 72 22 85 -6 3 -7 -1 -4
-10z"/>
<path d="M5983 5523 c-20 -50 -8 -67 51 -71 51 -3 70 16 48 47 -7 9 -16 26
-22 39 -5 12 -14 22 -20 22 -12 0 8 -39 29 -56 26 -20 5 -44 -39 -44 -51 0
-59 18 -31 65 11 19 16 35 10 35 -5 0 -17 -17 -26 -37z"/>
<path d="M6120 5445 c-14 -8 -20 -14 -14 -15 5 0 19 7 30 15 24 18 16 19 -16
0z"/>
<path d="M6045 5420 c-13 -5 -14 -9 -5 -9 8 0 24 4 35 9 13 5 14 9 5 9 -8 0
-24 -4 -35 -9z"/>
<path d="M5998 5403 c7 -3 16 -2 19 1 4 3 -2 6 -13 5 -11 0 -14 -3 -6 -6z"/>
<path d="M5938 5393 c6 -2 18 -2 25 0 6 3 1 5 -13 5 -14 0 -19 -2 -12 -5z"/>
<path d="M2931 5854 c0 -11 3 -14 6 -6 3 7 2 16 -1 19 -3 4 -6 -2 -5 -13z"/>
<path d="M3320 5758 c-50 -26 -90 -89 -90 -143 0 -28 -4 -32 -43 -42 -29 -8
-56 -25 -79 -51 -91 -101 -39 -249 104 -298 109 -38 373 -16 393 33 4 10 10
64 12 119 15 288 -126 468 -297 382z m159 -36 c38 -27 69 -78 89 -141 22 -71
24 -279 4 -304 -21 -25 -116 -39 -231 -35 -90 3 -113 7 -151 28 -82 46 -117
129 -84 196 24 48 60 74 111 81 l41 5 4 55 c5 62 29 100 79 126 41 22 100 17
138 -11z"/>
<path d="M3501 5593 c7 -12 15 -20 18 -17 3 2 -3 12 -13 22 -17 16 -18 16 -5
-5z"/>
<path d="M3455 5589 c-4 -6 -5 -12 -2 -15 2 -3 7 2 10 11 7 17 1 20 -8 4z"/>
<path d="M3467 5549 c7 -7 15 -10 18 -7 3 3 -2 9 -12 12 -14 6 -15 5 -6 -5z"/>
<path d="M3194 5452 c-13 -8 -25 -64 -13 -56 5 3 9 14 9 25 0 33 30 36 57 5
30 -35 29 -52 -4 -70 -16 -8 -21 -15 -13 -15 23 0 50 24 50 46 0 23 -43 73
-62 73 -7 0 -18 -4 -24 -8z"/>
<path d="M3170 5360 c6 -11 16 -20 22 -20 6 0 3 9 -7 20 -10 11 -20 20 -22 20
-2 0 1 -9 7 -20z"/>
<path d="M3170 5305 c0 -8 61 -36 70 -33 5 2 -9 11 -30 20 -22 9 -40 15 -40
13z"/>
<path d="M4281 5538 c-116 -26 -191 -183 -192 -403 0 -80 2 -92 21 -107 56
-45 267 -73 368 -48 111 26 178 108 170 207 -6 68 -30 101 -95 133 -46 22 -52
28 -57 64 -10 61 -36 105 -75 131 -45 29 -84 36 -140 23z m140 -67 c37 -36 39
-42 39 -100 0 -56 2 -61 22 -61 68 0 138 -68 138 -134 0 -130 -148 -198 -351
-163 -154 26 -163 39 -148 192 20 195 96 305 213 305 43 0 53 -4 87 -39z"/>
<path d="M4260 5431 c-21 -41 -7 -102 25 -101 5 0 2 5 -7 11 -30 17 -19 99 13
99 10 0 21 -4 24 -10 3 -5 16 -15 28 -21 15 -7 12 -3 -8 15 -36 30 -61 33 -75
7z"/>
<path d="M4325 5359 c-16 -10 -25 -19 -19 -19 7 0 22 9 35 20 30 24 23 24 -16
-1z"/>
<path d="M4290 5266 c0 -2 8 -10 18 -17 15 -13 16 -12 3 4 -13 16 -21 21 -21
13z"/>
<path d="M4308 5159 c6 -7 12 -27 12 -45 0 -36 -14 -46 -47 -31 -28 12 -40 46
-22 59 11 8 11 9 -1 5 -8 -2 -16 -11 -18 -21 -7 -35 48 -72 81 -54 23 12 20
89 -3 96 -12 4 -13 2 -2 -9z"/>
<path d="M4218 5043 c7 -3 16 -2 19 1 4 3 -2 6 -13 5 -11 0 -14 -3 -6 -6z"/>
<path d="M4258 5033 c7 -3 16 -2 19 1 4 3 -2 6 -13 5 -11 0 -14 -3 -6 -6z"/>
<path d="M6511 5482 c-19 -9 -48 -34 -65 -55 -30 -37 -31 -43 -31 -135 1 -84
4 -106 29 -162 39 -89 110 -197 135 -205 50 -16 244 69 333 145 109 94 119
242 22 317 -40 30 -108 41 -155 24 -31 -11 -34 -9 -63 25 -51 63 -136 82 -205
46z m136 -29 c19 -9 46 -34 61 -55 18 -27 30 -37 41 -32 76 31 120 29 165 -7
87 -68 69 -190 -42 -277 -52 -41 -196 -109 -249 -118 -40 -6 -42 -5 -72 36
-66 91 -111 215 -111 305 0 121 105 197 207 148z"/>
<path d="M6510 5385 c-8 -10 -10 -28 -5 -52 13 -69 37 -79 92 -37 44 33 41 62
-7 86 -44 21 -64 22 -80 3z m55 -5 c3 -5 15 -10 25 -10 20 0 36 -32 25 -50
-10 -17 -66 -42 -80 -36 -15 5 -30 79 -20 96 8 13 42 13 50 0z"/>
<path d="M6764 5234 c19 -19 21 -55 4 -74 -11 -12 -10 -12 5 -1 9 7 17 22 17
33 0 25 -18 58 -31 58 -6 0 -3 -7 5 -16z"/>
<path d="M6715 5219 c-22 -23 -11 -52 21 -56 15 -2 14 -1 -3 7 -27 11 -29 28
-6 46 10 7 15 15 12 18 -3 3 -14 -3 -24 -15z"/>
<path d="M6680 5010 c-25 -11 -38 -19 -30 -19 8 0 33 8 55 18 51 25 34 25 -25
1z"/>
<path d="M6608 4983 c7 -3 16 -2 19 1 4 3 -2 6 -13 5 -11 0 -14 -3 -6 -6z"/>
<path d="M4925 5196 c-38 -17 -80 -62 -94 -99 -36 -96 15 -225 139 -348 42
-41 91 -81 108 -88 29 -12 36 -11 79 15 112 65 238 217 258 312 16 76 -25 161
-96 198 -44 22 -110 18 -153 -11 l-37 -25 -40 27 c-47 31 -120 40 -164 19z
m134 -37 c19 -11 42 -30 52 -42 l18 -22 16 23 c37 52 116 67 172 32 65 -39 85
-137 45 -216 -51 -100 -204 -244 -259 -244 -38 0 -181 148 -221 229 -37 74
-40 118 -12 178 35 77 119 105 189 62z"/>
<path d="M5125 5081 c-6 -11 9 -23 19 -14 9 9 7 23 -3 23 -6 0 -12 -4 -16 -9z"/>
<path d="M4998 5073 c7 -3 16 -2 19 1 4 3 -2 6 -13 5 -11 0 -14 -3 -6 -6z"/>
<path d="M4953 5044 c-3 -8 -2 -19 3 -24 5 -5 9 1 9 16 0 28 -3 30 -12 8z"/>
<path d="M5021 5038 c0 -14 -7 -29 -13 -31 -10 -4 -10 -6 0 -6 16 -1 25 22 19
46 -3 12 -5 9 -6 -9z"/>
<path d="M5192 5018 c-7 -7 -12 -18 -12 -25 0 -23 43 -73 61 -73 37 0 79 99
44 105 -5 1 -7 0 -2 -2 19 -11 -15 -93 -38 -93 -18 0 -56 50 -53 69 2 9 17 19
33 22 28 6 28 7 5 8 -15 0 -31 -4 -38 -11z"/>
<path d="M4871 4994 c0 -11 3 -14 6 -6 3 7 2 16 -1 19 -3 4 -6 -2 -5 -13z"/>
<path d="M4940 4856 c0 -2 8 -10 18 -17 15 -13 16 -12 3 4 -13 16 -21 21 -21
13z"/>
<path d="M5030 4760 c19 -17 44 -36 55 -42 11 -6 4 4 -15 21 -19 17 -44 36
-55 42 -11 5 -4 -4 15 -21z"/>
<path d="M3130 5087 c0 -17 40 -84 66 -111 16 -16 61 -43 99 -61 39 -18 78
-41 87 -51 34 -38 50 -98 58 -216 7 -100 12 -125 36 -169 16 -28 44 -64 63
-80 53 -44 60 -35 9 11 -66 57 -88 116 -97 259 -11 166 -43 220 -160 265 -67
26 -98 52 -131 109 -16 29 -30 48 -30 44z"/>
<path d="M6990 4910 c-31 -82 -65 -126 -153 -198 -74 -61 -108 -110 -106 -154
1 -18 3 -16 9 9 11 49 33 77 109 138 39 30 81 70 95 88 25 33 81 166 73 174
-2 2 -15 -24 -27 -57z"/>
<path d="M3885 4938 c-33 -18 -73 -59 -84 -87 -11 -24 -15 -26 -79 -26 -81 0
-124 -25 -153 -89 -53 -118 9 -230 172 -306 64 -30 178 -59 230 -60 42 0 77
48 125 176 69 185 44 332 -67 390 -33 17 -115 18 -144 2z m156 -45 c42 -36 59
-79 59 -156 0 -80 -20 -156 -66 -253 l-36 -77 -67 6 c-174 14 -334 122 -347
234 -13 101 99 182 199 144 22 -9 25 -5 44 39 26 61 69 90 135 90 36 0 54 -6
79 -27z"/>
<path d="M3962 4808 c-27 -27 1 -118 36 -118 18 0 61 26 74 44 15 22 8 55 -14
66 -21 10 -21 10 -5 -3 9 -8 17 -24 17 -35 0 -21 -43 -62 -66 -62 -34 0 -61
94 -30 106 8 3 25 0 38 -7 21 -11 22 -11 9 4 -16 20 -42 22 -59 5z"/>
<path d="M3742 4678 c-7 -7 -12 -21 -12 -32 0 -12 -4 -28 -9 -35 -11 -17 3
-51 21 -51 7 0 7 5 -1 14 -9 10 -10 28 -4 58 11 55 37 61 77 19 34 -35 30 -56
-16 -76 -18 -8 -27 -14 -20 -15 25 0 72 31 72 48 0 23 -57 82 -79 82 -9 0 -22
-5 -29 -12z"/>
<path d="M3974 4588 c1 -18 -4 -23 -22 -22 -15 0 -19 -3 -13 -9 5 -5 17 -7 26
-4 20 8 30 36 18 48 -6 6 -9 2 -9 -13z"/>
<path d="M3655 4550 c10 -11 20 -20 23 -20 3 0 -3 9 -13 20 -10 11 -20 20 -23
20 -3 0 3 -9 13 -20z"/>
<path d="M3694 4521 c7 -11 46 -35 46 -28 0 3 -12 12 -26 22 -15 9 -23 12 -20
6z"/>
<path d="M3857 4449 c5 -5 27 -12 49 -14 44 -6 37 -1 -20 14 -26 7 -36 7 -29
0z"/>
<path d="M6379 4645 c-35 -19 -53 -65 -46 -116 6 -46 66 -142 105 -167 22 -14
27 -14 67 6 130 63 181 167 115 234 -27 27 -36 30 -72 25 -29 -4 -49 0 -72 14
-37 22 -61 23 -97 4z m97 -36 c20 -19 26 -20 57 -8 30 11 39 10 60 -4 32 -21
41 -60 23 -95 -19 -37 -83 -94 -124 -111 -30 -13 -35 -12 -58 10 -69 64 -98
166 -60 208 25 27 73 27 102 0z"/>
<path d="M4824 4600 c-12 -4 -30 -20 -42 -34 -14 -18 -29 -26 -52 -26 -66 0
-109 -78 -79 -144 22 -48 118 -97 195 -99 l49 -2 29 59 c56 110 43 211 -29
242 -39 16 -42 16 -71 4z m83 -42 c33 -30 32 -114 -2 -185 -21 -46 -28 -53
-53 -53 -47 0 -120 30 -152 62 -58 58 -27 147 46 133 28 -5 36 -2 41 12 19 55
78 70 120 31z"/>
<path d="M5654 4551 c-104 -47 -130 -162 -66 -291 33 -67 158 -195 223 -229
l47 -25 50 33 c74 47 179 163 213 235 56 117 29 230 -64 275 -68 33 -135 25
-184 -21 l-23 -21 -23 21 c-24 23 -76 42 -112 42 -11 0 -38 -9 -61 -19z m159
-52 l37 -30 38 30 c70 57 149 50 200 -17 23 -30 27 -45 27 -97 0 -52 -5 -70
-35 -119 -53 -87 -189 -216 -228 -216 -19 0 -91 51 -141 101 -124 124 -160
259 -89 336 54 60 125 64 191 12z"/>
<path d="M5652 4468 c-16 -16 -15 -70 1 -93 19 -25 81 -13 103 21 16 23 15 26
-1 44 -10 11 -24 20 -32 20 -7 0 -13 5 -13 10 0 6 -5 10 -11 10 -17 0 1 -21
27 -30 47 -18 14 -80 -42 -80 -36 0 -50 80 -16 99 9 6 12 11 7 11 -6 0 -16 -5
-23 -12z"/>
<path d="M5874 4365 c11 -8 25 -15 32 -15 6 0 17 -7 24 -15 9 -11 7 -19 -14
-40 -37 -37 -64 -33 -72 10 -3 19 -4 42 0 50 3 9 2 13 -4 10 -13 -8 -13 -61 0
-86 13 -23 33 -24 71 -2 53 32 48 63 -14 86 -34 14 -38 14 -23 2z"/>
<path d="M5717 4263 c-13 -12 -7 -51 12 -74 18 -22 19 -22 44 -6 29 19 44 54
29 69 -8 8 -9 5 -6 -8 3 -13 -4 -28 -21 -44 -26 -24 -27 -25 -41 -6 -8 11 -14
31 -14 44 0 21 4 24 25 20 14 -3 27 -2 30 1 5 9 -50 13 -58 4z"/>
<path d="M5991 4187 c-52 -58 -55 -63 -17 -27 42 40 93 100 84 100 -2 0 -32
-33 -67 -73z"/>
<path d="M5899 4103 c-13 -16 -12 -17 4 -4 9 7 17 15 17 17 0 8 -8 3 -21 -13z"/>
<path d="M4135 4356 c-85 -51 -112 -168 -65 -285 46 -119 158 -261 203 -261
63 0 226 98 299 178 89 99 100 200 31 283 -50 59 -127 76 -197 42 -35 -16 -36
-16 -55 9 -48 60 -146 76 -216 34z m188 -55 l39 -42 42 21 c53 25 102 26 143
0 68 -41 85 -135 39 -214 -46 -78 -181 -181 -285 -217 -30 -10 -35 -9 -62 17
-45 43 -113 151 -138 217 -56 151 7 275 133 264 43 -4 55 -10 89 -46z"/>
<path d="M4201 4223 c-1 -14 -9 -23 -23 -26 l-23 -4 23 -2 c24 -1 38 19 29 41
-3 7 -6 3 -6 -9z"/>
<path d="M4130 4221 c0 -6 4 -13 10 -16 6 -3 7 1 4 9 -7 18 -14 21 -14 7z"/>
<path d="M4432 4177 c-29 -31 -38 -79 -19 -96 24 -20 97 -10 114 15 13 20 12
25 -11 50 -14 16 -30 35 -36 42 -15 17 -23 15 -48 -11z m61 -19 c16 -18 27
-40 25 -52 -3 -18 -10 -21 -53 -21 l-50 0 2 33 c1 30 26 72 42 72 4 0 19 -14
34 -32z"/>
<path d="M4230 4076 c0 -2 7 -7 16 -10 8 -3 12 -2 9 4 -6 10 -25 14 -25 6z"/>
<path d="M4204 4055 c-7 -17 12 -45 29 -45 6 0 2 6 -8 14 -11 8 -16 19 -12 30
4 9 4 16 1 16 -2 0 -7 -7 -10 -15z"/>
<path d="M4325 3889 c-33 -16 -49 -27 -35 -23 29 8 120 53 105 53 -5 -1 -37
-14 -70 -30z"/>
<path d="M6206 3854 c-44 -52 -118 -98 -196 -120 -166 -49 -243 -121 -304
-285 -21 -56 -67 -114 -107 -134 -16 -9 -64 -23 -106 -31 -80 -17 -120 -33
-162 -65 -34 -27 -18 -23 24 5 20 14 62 30 93 36 135 28 166 41 208 84 25 26
51 70 68 112 60 151 117 207 261 255 108 36 153 59 202 107 35 34 71 83 61 82
-2 -1 -20 -21 -42 -46z"/>
<path d="M4960 3852 c-41 -19 -71 -48 -90 -86 -46 -96 -12 -209 107 -351 45
-53 123 -115 147 -115 50 0 197 110 263 198 49 66 67 123 61 193 -12 122 -136
186 -249 128 -41 -20 -41 -20 -63 -1 -11 11 -31 25 -43 31 -23 12 -109 14
-133 3z m133 -41 c15 -10 35 -28 43 -40 l16 -22 36 28 c31 23 47 28 94 28 46
0 61 -4 83 -25 84 -79 70 -179 -42 -300 -60 -65 -168 -140 -202 -140 -29 0
-146 118 -189 191 -18 31 -37 80 -44 110 -10 48 -9 59 10 101 35 80 128 113
195 69z"/>
<path d="M5005 3743 c-52 -13 -59 -49 -18 -88 29 -26 57 -32 68 -15 3 6 -1 7
-9 4 -8 -3 -29 4 -46 16 -41 29 -37 61 9 73 51 13 64 4 58 -41 l-6 -37 11 32
c18 55 -1 72 -67 56z"/>
<path d="M5158 3531 c-16 -15 -28 -33 -28 -39 0 -13 47 -28 57 -18 4 3 -3 6
-15 6 -33 0 -36 19 -7 46 29 27 45 24 45 -8 0 -12 3 -19 6 -15 10 10 -5 57
-19 57 -6 0 -24 -13 -39 -29z"/>
<path d="M5205 3480 c-3 -5 -1 -10 4 -10 6 0 11 5 11 10 0 6 -2 10 -4 10 -3 0
-8 -4 -11 -10z"/>
<path d="M5077 3393 c18 -18 38 -33 45 -33 7 0 4 6 -7 12 -11 6 -31 20 -45 32
-14 11 -11 6 7 -11z"/>
<path d="M4419 3649 c76 -27 116 -61 168 -143 51 -80 105 -141 145 -162 43
-23 44 -16 2 15 -53 39 -83 73 -139 159 -54 83 -94 118 -161 138 -68 20 -78
16 -15 -7z"/>
</g>
</svg>
