<?xml version="1.0" standalone="no"?>
<!DOCTYPE svg PUBLIC "-//W3C//DTD SVG 20010904//EN"
 "http://www.w3.org/TR/2001/REC-SVG-20010904/DTD/svg10.dtd">
<svg version="1.0" xmlns="http://www.w3.org/2000/svg"
 width="1024.000000pt" height="1024.000000pt" viewBox="0 0 1024.000000 1024.000000"
 preserveAspectRatio="xMidYMid meet">
<metadata>
Created by potrace 1.16, written by Peter Selinger 2001-2019
</metadata>
<g transform="translate(0.000000,1024.000000) scale(0.100000,-0.100000)"
fill="#000000" stroke="none">
<path d="M3386 9039 c-280 -24 -572 -126 -806 -279 -266 -175 -460 -392 -600
-675 -132 -267 -193 -541 -192 -865 1 -620 299 -1234 914 -1885 76 -81 115
-134 199 -275 195 -323 504 -845 964 -1625 130 -220 285 -488 364 -627 59
-105 70 -131 61 -147 -20 -39 -12 -94 20 -131 34 -41 38 -66 10 -75 -30 -10
-43 -41 -31 -75 7 -22 6 -32 -5 -41 -25 -21 -82 -123 -103 -186 -35 -103 -24
-186 31 -249 39 -44 79 -65 132 -69 47 -3 46 -1 67 -165 33 -270 120 -321 598
-352 310 -20 644 14 761 78 85 46 110 106 133 313 l13 115 56 11 c161 32 213
184 125 369 -20 43 -50 95 -66 115 -22 29 -27 43 -24 73 4 31 1 39 -21 53 -34
22 -33 45 4 80 34 33 47 81 32 124 -11 32 -42 -26 308 591 114 201 277 489
362 640 758 1343 766 1357 901 1505 593 650 867 1240 867 1869 0 489 -178 942
-500 1267 -265 268 -583 432 -970 500 -163 29 -439 29 -603 0 -376 -66 -605
-180 -1072 -531 -156 -118 -192 -140 -206 -132 -10 6 -118 86 -240 178 -322
239 -502 342 -734 417 -253 82 -491 109 -749 86z m204 -62 c0 -24 -47 -151
-80 -217 -94 -188 -245 -355 -400 -442 -64 -36 -87 -45 -101 -37 -35 18 -71
10 -103 -25 -23 -24 -47 -36 -86 -45 -30 -7 -63 -15 -73 -18 -15 -4 -12 7 17
64 32 65 131 218 176 273 18 22 22 23 33 9 53 -68 161 -38 161 46 0 30 -7 44
-32 66 l-32 28 50 52 c28 29 50 55 50 59 0 12 174 138 234 169 47 25 70 31
122 31 46 0 64 -4 64 -13z m181 -2 c156 -20 395 -80 423 -106 5 -4 -11 -30
-37 -59 -104 -115 -206 -305 -281 -521 l-44 -124 -99 -7 c-271 -18 -545 -96
-737 -209 -117 -69 -174 -116 -318 -258 -76 -74 -138 -130 -138 -124 0 70 79
360 138 503 l38 94 55 11 c30 6 66 14 80 18 23 6 28 3 40 -24 29 -72 134 -69
159 5 8 26 8 40 0 56 -6 12 -10 23 -8 24 2 1 35 20 73 40 135 73 253 186 347
331 64 98 99 180 153 353 5 15 25 15 156 -3z m3086 -17 c34 -17 74 -41 88 -53
l26 -20 -29 -57 c-30 -57 -41 -100 -60 -234 -5 -39 -18 -88 -28 -110 -67 -142
-254 -186 -351 -82 -113 121 -28 337 117 298 63 -17 103 -98 65 -130 -13 -11
-20 -9 -38 9 -68 63 -139 -41 -74 -107 30 -29 102 -40 147 -22 48 20 87 72
100 134 37 178 -112 338 -276 297 -26 -7 -77 -30 -113 -51 -78 -47 -117 -56
-163 -41 -35 12 -91 59 -109 92 -13 25 3 32 141 63 141 31 242 43 385 45 105
1 113 0 172 -31z m-3478 19 c-2 -2 -41 -29 -86 -60 l-82 -56 16 47 c9 26 18
49 20 51 4 5 77 18 112 20 13 0 22 0 20 -2z m3621 -16 c39 -8 40 -19 6 -40
-19 -12 -26 -10 -58 10 -19 13 -44 29 -54 36 -16 9 -11 10 26 6 25 -3 61 -8
80 -12z m-3801 -67 c-18 -48 -40 -77 -120 -159 l-98 -100 -28 21 c-20 15 -27
28 -25 47 4 31 -21 82 -43 91 -64 24 -125 -16 -125 -82 0 -21 5 -43 12 -50 9
-9 5 -20 -18 -49 -46 -56 -56 -60 -106 -37 -44 19 -108 70 -108 84 0 14 172
118 271 164 52 24 137 57 189 74 91 30 212 62 218 57 1 -1 -7 -29 -19 -61z
m4002 21 c47 -13 100 -31 119 -39 l34 -14 -60 -12 c-32 -7 -80 -23 -106 -37
l-47 -26 -56 43 c-31 24 -58 47 -62 53 -8 14 47 57 72 57 12 0 59 -11 106 -25z
m-1027 -93 c11 -13 39 -33 60 -44 61 -31 124 -22 215 32 114 68 209 67 281 -3
46 -44 70 -101 70 -167 0 -132 -95 -214 -190 -165 -47 24 -54 95 -10 95 11 0
29 -9 40 -20 11 -11 25 -20 30 -20 24 0 50 41 50 79 0 72 -68 127 -148 118
-133 -15 -191 -191 -106 -320 37 -56 117 -91 194 -84 65 6 111 26 158 71 59
54 75 102 102 286 9 66 50 173 71 186 4 2 33 -17 66 -43 32 -26 60 -48 62 -50
2 -1 -14 -23 -37 -47 -57 -62 -87 -127 -127 -274 -18 -70 -41 -147 -50 -172
-62 -175 -214 -327 -378 -380 -21 -7 -40 -10 -43 -8 -2 3 -22 74 -43 159 -45
178 -95 323 -152 447 -45 97 -171 292 -218 337 l-31 29 42 17 43 17 14 -27 c7
-14 23 -37 35 -49z m-1801 -31 c154 -78 277 -160 523 -347 l202 -154 4 -55 c1
-30 0 -55 -4 -55 -5 0 -8 4 -8 9 0 11 -151 139 -232 198 -78 57 -108 75 -108
64 0 -5 48 -46 106 -91 58 -45 137 -111 175 -147 l69 -65 0 -60 0 -60 -64 60
c-57 52 -200 148 -248 165 -38 14 -15 -13 38 -43 79 -46 203 -140 242 -184
l32 -37 0 -222 0 -223 -67 -55 c-252 -206 -493 -297 -688 -260 -124 23 -252
107 -297 194 -17 34 -41 137 -31 137 1 0 19 -18 39 -39 96 -107 266 -91 391
35 64 66 93 138 93 232 0 172 -146 315 -362 357 -42 8 -131 17 -197 21 -67 4
-121 8 -121 10 0 19 102 272 142 353 78 156 200 321 238 321 8 0 68 -27 133
-59z m1710 -8 c101 -125 180 -268 249 -453 44 -117 130 -441 120 -452 -10 -9
-177 -28 -257 -28 -92 0 -244 -24 -325 -50 -117 -39 -200 -89 -286 -175 -71
-69 -88 -94 -132 -185 -66 -139 -83 -198 -83 -296 0 -132 49 -238 138 -294 85
-54 172 -48 245 18 119 107 119 302 0 387 -34 23 -56 30 -106 33 -59 4 -65 2
-99 -28 -88 -76 -65 -223 41 -267 65 -27 132 14 132 80 0 59 -69 100 -101 60
-13 -15 -11 -16 12 -10 33 8 69 -17 69 -49 0 -34 -34 -64 -73 -64 -62 0 -107
55 -107 130 0 135 146 176 246 69 94 -101 58 -285 -68 -350 -74 -38 -155 -20
-220 47 -64 67 -83 123 -83 244 0 97 2 110 32 172 109 232 445 196 543 -58 31
-79 39 -240 16 -336 -58 -248 -256 -473 -602 -684 -100 -61 -236 -134 -249
-134 -3 0 -5 323 -5 718 l0 718 31 30 c17 16 53 54 79 85 42 51 49 55 65 43
10 -8 34 -14 52 -14 79 0 115 104 53 152 l-29 23 49 96 c27 53 83 179 123 280
109 270 179 402 270 506 30 35 152 101 188 102 9 1 41 -29 72 -66z m1437 1
c75 -40 91 -53 119 -98 151 -250 195 -642 96 -848 -10 -20 -22 -35 -26 -33 -4
3 -13 29 -19 57 -49 204 -193 510 -311 660 -28 35 -29 40 -18 71 23 64 -35
126 -106 113 -26 -5 -36 -1 -64 28 l-33 34 43 23 c63 32 86 37 163 38 63 1 76
-3 156 -45z m-4642 -20 c26 -18 30 -75 7 -94 -24 -20 -67 -15 -87 10 -24 30
-23 46 7 75 28 29 42 31 73 9z m4299 -46 c29 -28 32 -35 26 -74 -10 -72 43
-126 102 -104 22 9 28 3 80 -70 117 -166 231 -419 286 -634 l21 -81 -56 -52
c-94 -88 -237 -143 -331 -127 -164 27 -260 189 -182 308 18 28 75 56 111 56
64 0 137 -58 151 -119 22 -99 -106 -170 -160 -88 -22 34 -5 77 30 77 28 0 34
15 9 24 -23 9 -62 -19 -70 -49 -16 -63 49 -124 118 -111 84 15 123 120 76 201
-47 80 -166 112 -238 63 -59 -41 -75 -72 -75 -146 1 -106 57 -182 164 -223
119 -45 286 0 401 107 28 26 53 44 56 41 4 -3 15 -64 26 -134 33 -218 24 -575
-20 -780 l-7 -33 -77 91 c-74 87 -78 93 -72 129 7 46 -7 75 -47 96 -36 18 -70
12 -97 -16 -19 -21 -20 -20 -273 115 l-254 135 3 35 c4 39 -32 85 -67 85 -77
0 -118 -84 -66 -135 26 -27 82 -34 102 -14 7 7 65 -18 199 -90 337 -178 327
-172 335 -208 3 -18 12 -40 19 -48 16 -20 73 -29 98 -16 18 9 30 0 106 -89
l86 -99 -11 -53 c-21 -104 -94 -368 -102 -368 -1 0 -47 11 -102 26 -56 14
-145 28 -202 31 -171 10 -284 -24 -384 -115 -160 -146 -169 -356 -19 -432 153
-78 310 22 310 198 0 54 -4 65 -30 95 -38 43 -80 61 -124 53 -101 -19 -152
-141 -87 -207 32 -32 47 -35 84 -18 33 15 49 52 37 84 -14 36 -30 31 -23 -8 6
-40 -13 -60 -54 -55 -62 7 -66 111 -6 157 31 25 99 28 131 5 84 -58 58 -220
-44 -280 -38 -22 -54 -26 -103 -22 -195 14 -233 237 -69 401 120 120 325 153
573 91 114 -28 109 -18 64 -134 -22 -56 -64 -157 -95 -226 -55 -122 -57 -124
-89 -124 -38 0 -52 -14 -61 -61 -10 -50 -18 -56 -108 -85 -118 -38 -270 -44
-391 -15 -104 25 -201 71 -285 136 l-59 46 17 35 c15 33 15 38 0 64 -15 27
-15 38 12 192 107 621 116 1165 27 1635 l-14 72 36 12 c152 49 295 171 369
315 26 50 57 139 83 230 22 82 48 167 58 189 18 41 96 145 108 145 4 0 22 -14
40 -32z m-1424 -25 c-67 -85 -137 -226 -222 -448 -24 -60 -72 -170 -108 -243
-54 -111 -70 -135 -93 -144 -37 -12 -60 -48 -60 -92 0 -29 -11 -49 -60 -105
-33 -38 -64 -73 -70 -76 -7 -4 -10 63 -10 198 l0 204 78 74 c42 41 120 103
172 138 114 77 105 70 97 77 -15 15 -204 -116 -295 -204 l-52 -51 0 64 0 63
101 83 c85 70 164 130 283 215 11 7 17 17 13 21 -10 9 -160 -95 -289 -200
l-108 -88 0 55 c0 36 4 56 14 59 7 3 98 69 200 147 195 147 425 304 434 296 2
-3 -9 -22 -25 -43z m2087 -135 c95 -82 224 -234 291 -343 42 -68 49 -86 49
-130 -1 -102 -32 -183 -113 -293 -63 -86 -81 -137 -74 -214 5 -54 3 -65 -18
-92 -80 -105 -113 -257 -81 -368 21 -74 95 -156 168 -189 79 -34 185 -33 258
3 30 15 56 25 58 23 2 -2 -6 -52 -18 -112 -44 -217 -148 -482 -281 -714 l-51
-90 -64 60 c-71 67 -165 126 -281 177 -43 19 -77 37 -76 42 0 4 15 52 32 107
16 55 35 119 41 143 10 37 13 41 30 32 36 -19 87 -12 109 16 45 57 8 138 -64
138 -36 0 -37 1 -31 31 32 157 41 254 40 475 0 199 -3 254 -22 363 l-23 127
31 63 c48 97 63 189 58 355 -4 136 -3 142 16 142 27 0 56 29 56 57 0 45 -59
80 -88 51 -9 -9 -12 -8 -16 3 -19 64 -53 154 -77 201 -16 32 -29 60 -29 63 0
10 87 -55 170 -127z m-518 105 c18 -16 26 -73 10 -73 -9 0 -72 74 -72 84 0 13
45 5 62 -11z m-4379 -31 c9 -8 17 -19 17 -24 0 -17 -90 -49 -157 -55 -66 -6
-68 -6 -53 13 50 65 55 69 85 66 17 -2 39 4 50 12 21 15 28 13 58 -12z m4367
-64 c0 -16 -51 -7 -70 12 -19 19 -27 60 -14 73 7 7 83 -72 84 -85z m-4220 62
c43 -43 11 -104 -51 -98 -59 5 -70 67 -20 105 23 18 48 16 71 -7z m-533 -25
c20 -19 58 -43 85 -53 l49 -18 -72 -87 c-39 -48 -78 -87 -85 -87 -14 0 -23
-19 -16 -37 7 -21 30 -15 44 10 7 13 45 62 83 110 l70 86 65 0 c36 1 81 5 99
11 19 5 36 8 38 7 1 -2 -20 -34 -48 -73 -28 -38 -78 -118 -112 -178 l-61 -108
-80 4 c-50 3 -94 11 -116 22 -43 22 -107 82 -126 118 -16 30 -34 146 -26 166
5 15 153 142 165 142 4 0 24 -16 44 -35z m-192 -300 c51 -89 138 -135 259
-138 36 -1 66 -3 66 -3 0 -1 -13 -34 -30 -73 -62 -152 -115 -343 -145 -521 -5
-30 -14 -40 -68 -72 -81 -49 -138 -68 -218 -75 -173 -15 -296 90 -307 261 -6
94 9 143 60 201 125 141 332 121 380 -37 39 -130 -107 -263 -222 -203 -105 54
-56 249 52 204 47 -19 49 -83 2 -95 -13 -3 -21 -10 -18 -15 9 -15 33 -10 54
11 47 47 6 130 -66 130 -28 0 -44 -8 -70 -34 -30 -30 -34 -40 -34 -87 0 -95
53 -149 145 -149 163 0 244 199 132 326 -45 52 -82 68 -157 67 -73 0 -122 -17
-181 -63 l-38 -31 24 55 c72 164 162 310 271 440 l58 69 12 -63 c7 -34 25 -81
39 -105z m5489 80 c12 -32 -17 -61 -49 -49 -15 6 -21 45 -8 57 12 13 51 7 57
-8z m-4839 -141 c25 -25 16 -75 -17 -94 -25 -13 -31 -13 -55 0 -54 30 -34 110
28 110 15 0 35 -7 44 -16z m802 -126 c-2 -13 -21 -87 -41 -166 -129 -503 -147
-1047 -55 -1624 l11 -67 -64 -78 c-126 -153 -230 -321 -283 -455 l-27 -68 -92
0 c-94 0 -177 16 -253 50 -37 16 -43 23 -43 50 0 33 -38 80 -65 80 -9 0 -36
44 -74 123 -116 241 -199 479 -250 715 -52 241 -56 281 -56 563 l0 265 145
143 c197 195 278 255 462 341 160 74 450 141 647 148 40 2 43 0 38 -20z m304
11 c46 -6 108 -20 138 -30 264 -91 344 -361 159 -535 -137 -129 -311 -120
-376 18 -48 103 -34 207 38 272 22 19 52 38 67 42 16 3 33 7 39 9 28 8 103
-18 129 -45 33 -35 45 -112 25 -160 -40 -96 -190 -97 -190 -2 0 33 38 72 71
72 18 0 28 4 24 10 -7 11 -45 13 -70 4 -22 -9 -45 -56 -45 -93 0 -17 10 -42
24 -58 21 -24 32 -28 74 -28 87 0 146 65 146 160 0 66 -27 112 -83 142 -91 48
-209 12 -266 -81 -30 -49 -30 -51 -30 -195 0 -144 0 -147 32 -211 37 -75 65
-105 146 -153 131 -79 325 -89 492 -26 120 46 208 96 332 190 l103 79 0 -700
c0 -385 1 -703 3 -707 3 -11 -97 -57 -211 -97 -329 -114 -517 -48 -517 184 0
64 4 82 27 122 55 92 168 145 243 114 48 -20 64 -42 65 -84 0 -69 -34 -94 -86
-61 -44 27 -78 19 -104 -24 -65 -106 45 -202 175 -153 122 47 205 216 176 357
-33 159 -159 259 -326 259 -189 0 -472 -143 -703 -356 -46 -42 -85 -74 -88
-72 -2 3 -13 67 -23 144 -81 579 -40 1187 110 1672 l11 32 92 0 c51 0 130 -5
177 -11z m4132 -141 c19 -46 47 -122 62 -170 25 -81 26 -88 11 -111 -19 -28
-89 -67 -162 -91 -28 -9 -72 -30 -97 -46 l-47 -29 -6 24 c-14 57 6 113 77 218
69 101 109 196 109 258 0 49 16 33 53 -53z m-1789 -155 c11 -37 46 -293 55
-408 14 -153 14 -554 1 -710 -13 -149 -43 -373 -76 -570 -22 -126 -30 -154
-51 -176 -17 -18 -24 -36 -22 -55 6 -61 -34 -91 -213 -158 -235 -87 -645 -156
-940 -156 l-88 0 0 238 0 237 68 35 c112 58 312 181 397 245 260 194 412 431
431 673 12 154 -41 310 -132 391 -101 89 -251 107 -367 44 l-57 -31 26 48 c87
159 279 285 494 324 47 8 159 20 249 25 90 6 166 13 169 16 13 12 51 4 56 -12z
m-1079 -5 c33 -15 42 -51 21 -82 -21 -33 -52 -41 -81 -22 -33 22 -35 78 -3
100 27 19 30 19 63 4z m2983 -208 c34 -167 45 -343 33 -495 -9 -106 -13 -121
-33 -137 -84 -65 -196 -79 -290 -36 -75 35 -113 70 -145 136 -23 48 -28 69
-27 132 1 42 9 95 18 120 19 50 76 150 87 150 13 0 42 -75 42 -110 0 -19 -10
-54 -22 -77 -61 -120 13 -257 138 -257 64 0 110 28 139 84 26 52 28 87 6 133
-36 74 -134 89 -181 28 -18 -23 -16 -91 4 -113 18 -20 73 -24 91 -6 19 19 14
30 -7 18 -27 -14 -47 -13 -65 6 -23 23 -19 61 9 89 33 33 70 32 106 -4 24 -25
29 -37 29 -80 0 -44 -5 -56 -34 -89 -32 -35 -38 -37 -95 -37 -52 0 -63 4 -90
29 -56 54 -63 124 -20 208 25 48 24 88 -3 150 l-22 51 33 28 c18 15 73 41 123
59 50 18 105 45 122 61 17 15 34 25 37 21 3 -4 11 -32 17 -62z m-6439 -68 c23
-42 84 -103 125 -125 29 -15 66 -22 127 -25 97 -5 150 8 254 62 33 17 62 32
65 34 3 1 2 -42 -3 -95 -11 -125 -2 -377 18 -513 48 -317 160 -672 303 -955
34 -67 55 -121 53 -138 -1 -16 6 -41 15 -57 16 -27 16 -30 -9 -72 -50 -86
-173 -174 -229 -166 -27 4 -127 118 -269 308 -144 192 -155 212 -140 268 7 24
46 94 88 155 94 138 129 211 150 313 42 207 -56 406 -270 548 -123 80 -242
125 -336 126 l-34 0 7 103 c7 100 30 272 43 312 5 16 8 12 18 -20 6 -22 17
-51 24 -63z m4916 -166 c34 -51 -30 -111 -75 -71 -22 20 -26 65 -8 83 21 21
66 14 83 -12z m-4880 -206 c195 -50 386 -201 462 -365 39 -86 44 -214 13 -317
-28 -93 -45 -125 -116 -223 -32 -44 -72 -109 -89 -144 l-32 -63 -36 58 c-107
178 -208 421 -257 616 -12 45 -24 91 -26 101 -8 28 66 57 148 57 89 0 163 -28
229 -88 61 -55 88 -109 89 -175 0 -89 -46 -146 -131 -162 -48 -9 -118 21 -148
63 -62 87 -16 202 80 202 54 0 85 -17 104 -57 17 -36 13 -66 -13 -95 -19 -22
-65 -23 -86 -2 -18 17 -21 60 -6 69 20 12 10 26 -10 15 -51 -27 -5 -130 57
-130 76 1 117 95 73 168 -36 59 -118 78 -178 42 -147 -90 -56 -313 123 -298
99 8 159 77 159 183 0 105 -61 192 -174 249 -105 52 -208 56 -311 12 -14 -6
-18 6 -27 91 -19 167 -21 201 -15 207 10 10 36 7 118 -14z m5537 -127 c25 -22
24 -79 -1 -93 -67 -35 -128 27 -85 88 18 26 60 29 86 5z m298 -343 c11 -11 20
-26 20 -34 0 -21 -40 -66 -59 -66 -27 0 -61 29 -61 53 0 59 60 87 100 47z
m-3115 -44 c111 -50 170 -154 163 -286 -8 -139 -85 -239 -204 -264 -42 -9
-101 16 -113 47 -26 67 48 142 89 92 30 -37 105 1 115 59 4 20 1 47 -8 69 -42
99 -183 102 -292 6 -114 -101 -115 -312 0 -406 54 -45 108 -57 228 -50 109 5
232 39 364 98 36 16 67 28 68 27 2 -2 5 -105 7 -230 l4 -228 -80 0 c-245 0
-626 57 -855 126 -113 34 -258 97 -287 125 -16 15 -24 34 -24 56 0 23 -8 41
-24 57 -20 18 -30 48 -52 154 l-27 132 29 31 c16 17 68 64 116 105 308 259
598 363 783 280z m3112 -473 c60 -35 153 -109 187 -149 l26 -32 -47 -68 c-144
-214 -167 -233 -261 -220 -169 23 -236 215 -109 310 21 15 43 21 83 21 46 0
58 -4 84 -30 76 -77 17 -202 -79 -169 -45 16 -37 84 10 84 11 0 19 5 19 10 0
16 -56 12 -70 -6 -19 -22 -16 -70 4 -93 58 -64 176 -1 176 93 0 81 -58 136
-145 136 -120 0 -198 -107 -166 -227 24 -87 117 -153 217 -156 61 -1 63 5 -26
-105 -50 -62 -71 -81 -90 -81 -63 -1 -176 81 -231 168 l-28 44 20 38 c11 22
17 39 15 39 -3 0 24 60 59 133 34 72 82 182 105 243 l43 112 79 -34 c43 -18
100 -46 125 -61z m-4034 -97 c22 -106 23 -121 10 -147 -13 -26 -13 -33 1 -60
12 -24 13 -35 5 -46 -24 -28 -160 -112 -215 -133 -88 -32 -174 -51 -174 -37 0
28 113 240 178 337 68 100 160 215 168 207 2 -2 14 -56 27 -121z m2675 -168
c4 -33 -20 -54 -38 -33 -10 12 -10 21 -1 41 14 31 35 27 39 -8z m-2608 7 c15
-18 9 -50 -9 -50 -19 0 -36 29 -28 49 8 20 21 21 37 1z m2585 -101 c0 -10 -8
-20 -17 -22 -18 -3 -26 27 -11 42 12 11 28 0 28 -20z m-2565 -3 c0 -11 -4 -22
-9 -25 -12 -8 -34 21 -26 34 11 17 35 11 35 -9z m2785 -128 c200 -92 405 -94
618 -8 11 5 17 2 17 -8 0 -17 -71 -50 -162 -74 -96 -26 -262 -24 -358 6 -129
39 -310 151 -310 192 0 15 12 9 63 -29 34 -26 94 -61 132 -79z m-2880 53
c-159 -131 -365 -188 -562 -156 -98 15 -197 52 -201 73 -3 15 0 15 30 2 19 -7
72 -21 118 -31 202 -41 463 20 605 140 32 28 41 31 44 18 2 -9 -12 -29 -34
-46z m382 -46 c211 -70 466 -112 798 -132 482 -29 1060 58 1348 203 32 17 62
27 65 24 12 -12 -42 -44 -148 -89 -176 -74 -345 -119 -586 -156 -177 -27 -595
-38 -794 -21 -353 31 -656 107 -864 219 -92 49 -98 72 -7 27 39 -20 123 -53
188 -75z m3221 88 c4 -19 -26 -51 -39 -43 -13 9 -11 39 3 53 15 15 32 10 36
-10z m-4430 0 c14 -14 16 -58 2 -58 -14 0 -43 48 -35 60 8 13 18 13 33 -2z
m947 -105 c46 -156 164 -498 317 -918 231 -634 293 -809 389 -1095 49 -145 89
-266 89 -267 0 -2 -4 -3 -9 -3 -4 0 -43 105 -86 233 -43 127 -127 367 -187
532 -338 927 -395 1086 -449 1247 -72 219 -110 358 -99 358 5 0 20 -39 35 -87z
m2512 75 c-2 -7 -37 -119 -77 -248 -184 -599 -658 -2101 -665 -2108 -15 -16
-10 14 20 108 18 58 70 224 115 370 45 146 122 391 170 545 49 154 154 492
235 750 189 606 185 595 197 595 6 0 8 -6 5 -12z m-2523 -189 c53 -179 141
-433 266 -769 l61 -165 -26 -100 c-31 -118 -52 -169 -89 -212 -30 -35 -114
-80 -125 -67 -64 75 -312 414 -480 654 l-52 75 7 65 c13 121 52 193 127 232
116 60 241 -3 241 -122 0 -38 -5 -55 -24 -75 -25 -27 -68 -33 -88 -13 -21 21
-14 66 13 84 32 21 32 49 0 70 -49 32 -127 -18 -141 -92 -20 -109 58 -196 176
-198 77 -1 136 34 175 106 25 45 30 64 30 123 -1 94 -30 160 -101 224 -91 83
-208 104 -312 56 -65 -30 -152 -111 -183 -170 -13 -25 -26 -45 -29 -45 -9 0 8
170 25 247 16 72 16 72 53 78 144 25 283 85 367 159 28 24 51 43 52 42 1 -1
27 -85 57 -187z m2606 155 c204 -162 462 -210 701 -129 38 12 69 20 69 16 0
-9 -76 -135 -149 -246 -49 -74 -55 -80 -94 -87 -23 -3 -112 -2 -197 4 -180 12
-365 5 -464 -16 -38 -9 -72 -14 -74 -11 -2 2 26 102 63 222 37 120 72 233 77
251 5 17 12 32 16 32 4 0 27 -16 52 -36z m-2489 -19 c245 -119 586 -192 981
-211 l143 -7 4 -695 3 -695 -173 7 c-96 3 -245 9 -331 13 l-157 6 -10 26 c-60
162 -62 172 -55 241 l6 68 32 -41 c18 -23 55 -54 86 -70 48 -25 63 -28 125
-25 124 6 229 78 287 196 30 60 33 75 33 157 0 109 -25 175 -87 231 -107 97
-256 108 -408 32 -68 -33 -167 -120 -201 -174 -12 -20 -25 -32 -29 -27 -25 29
-360 1013 -345 1013 2 0 45 -20 96 -45z m2315 -91 c-19 -60 -55 -174 -80 -254
l-46 -146 -57 -28 c-116 -57 -246 -168 -336 -289 -125 -168 -204 -462 -179
-668 6 -46 13 -91 17 -100 5 -14 -15 -17 -167 -22 -95 -4 -206 -7 -245 -7
l-73 0 0 695 0 695 78 0 c348 1 781 87 1029 205 48 23 89 38 91 35 2 -4 -13
-57 -32 -116z m1034 75 c0 -20 -24 -26 -35 -9 -8 13 14 42 26 34 5 -3 9 -14 9
-25z m-4370 -10 c0 -10 -7 -19 -15 -19 -15 0 -21 31 -9 43 11 10 24 -3 24 -24z
m-80 -99 c-17 -26 -47 -61 -67 -76 -40 -31 -130 -67 -144 -59 -18 12 -9 21 34
33 57 17 133 76 171 133 41 60 47 32 6 -31z m4561 -24 c19 -16 63 -43 99 -60
56 -27 61 -31 38 -34 -54 -6 -186 88 -223 159 -22 42 -5 42 25 1 15 -21 42
-51 61 -66z m-150 -87 c-39 -268 -62 -404 -71 -413 -14 -14 -13 21 4 101 8 37
26 151 40 253 29 204 37 244 43 219 2 -9 -5 -81 -16 -160z m-4322 74 c7 -49
31 -182 53 -297 21 -114 37 -210 34 -213 -10 -10 -60 232 -91 432 -8 55 -17
115 -20 133 -3 17 -2 32 3 32 5 0 14 -39 21 -87z m261 15 l95 -12 -17 -85 c-9
-47 -20 -127 -24 -178 l-7 -94 -65 98 c-74 111 -192 304 -192 315 0 4 26 -2
58 -13 31 -11 100 -25 152 -31z m4232 -82 l48 -33 -101 -47 c-55 -26 -103 -46
-105 -43 -3 3 3 59 12 126 l17 120 40 -45 c22 -25 62 -60 89 -78z m-4243 -243
l62 -90 -21 -56 c-12 -31 -40 -77 -63 -102 l-42 -46 -28 23 c-40 33 -61 130
-40 190 17 51 10 90 -27 131 -22 26 -31 50 -43 127 -34 206 -39 201 56 49 46
-75 112 -177 146 -226z m4030 236 c-10 -66 -20 -126 -22 -133 -6 -15 -134 -53
-143 -43 -4 4 25 55 63 114 38 59 80 125 92 146 13 20 24 37 25 37 1 0 -6 -54
-15 -121z m-4310 1 c7 -47 15 -96 18 -109 4 -16 2 -22 -5 -17 -18 11 -82 -10
-109 -36 l-25 -23 -59 64 c-33 36 -56 68 -52 71 4 4 26 13 48 20 25 9 62 35
100 74 33 34 63 57 66 51 4 -5 12 -48 18 -95z m810 -50 c99 -50 151 -125 159
-229 5 -78 -8 -127 -46 -173 -92 -109 -282 -55 -286 83 -1 45 28 89 68 103 43
16 54 -6 22 -44 -32 -38 -33 -66 -4 -97 49 -53 139 -16 154 63 33 176 -178
273 -317 147 -52 -47 -78 -99 -93 -187 l-11 -70 -43 67 c-23 36 -42 71 -42 77
0 20 52 115 87 157 41 51 111 101 167 119 52 17 135 10 185 -16z m3771 -37
c-157 -168 -151 -163 -198 -163 l-43 0 7 48 c3 26 8 49 10 51 2 2 40 18 84 37
45 18 95 42 113 53 18 10 41 20 52 20 15 1 10 -9 -25 -46z m-4552 -95 c3 -22
-1 -28 -17 -28 -11 0 -28 -11 -39 -25 l-19 -24 -27 28 c-22 22 -24 30 -14 43
21 25 51 38 83 35 25 -2 31 -7 33 -29z m4247 -44 c-5 -29 -13 -38 -43 -51 -20
-8 -60 -30 -89 -49 -62 -40 -153 -87 -153 -79 0 3 27 47 60 97 l60 92 82 20
c46 12 85 17 87 13 1 -4 0 -24 -4 -43z m-353 9 l157 -6 -69 -102 c-59 -86 -75
-103 -107 -113 -21 -7 -126 -23 -233 -37 -225 -29 -330 -58 -418 -115 -74 -47
-74 -65 2 173 l52 162 64 17 c89 24 219 37 315 32 44 -2 151 -7 237 -11z
m-3793 -62 c-1 -41 -4 -35 -18 29 -9 40 -8 43 5 26 8 -11 14 -36 13 -55z m-88
16 c6 -21 3 -28 -12 -32 -19 -6 -49 9 -49 26 0 13 32 40 43 36 6 -2 14 -15 18
-30z m4359 -15 c0 -4 -17 -25 -38 -45 l-39 -38 4 33 c3 18 6 39 8 46 5 13 65
17 65 4z m-1184 -28 c-3 -8 -37 -116 -76 -240 -38 -123 -82 -247 -96 -276 -38
-76 -64 -155 -64 -199 0 -44 -39 -172 -80 -263 l-28 -64 -82 -7 c-44 -4 -83
-5 -86 -3 -11 12 -24 120 -24 203 0 276 126 560 322 728 53 45 194 137 211
137 5 0 6 -7 3 -16z m1032 -85 l-13 -66 -162 -168 -163 -168 -36 33 c-20 17
-47 37 -61 43 -13 6 -22 16 -19 23 3 7 41 66 84 131 68 101 85 120 118 132 21
7 80 37 129 66 135 79 130 76 133 57 1 -9 -3 -47 -10 -83z m189 40 c-55 -86
-122 -201 -333 -574 -108 -192 -321 -568 -472 -835 -151 -267 -342 -605 -426
-752 -83 -148 -155 -268 -159 -268 -11 0 22 60 308 565 128 226 360 635 515
910 442 781 520 917 558 967 20 26 37 46 39 44 2 -2 -11 -28 -30 -57z m-4377
-4 c0 -19 -1 -18 -22 3 -19 19 -21 24 -8 32 17 10 30 -4 30 -35z m1 -145 c34
-58 169 -285 299 -505 130 -220 307 -519 392 -665 86 -146 223 -380 305 -520
225 -384 336 -581 330 -586 -7 -7 -14 4 -137 221 -119 208 -324 559 -733 1250
-469 794 -518 877 -554 935 l-34 55 35 -40 c20 -22 63 -87 97 -145z m347 74
l43 -65 -26 -45 c-24 -42 -86 -94 -111 -94 -11 0 -74 65 -74 76 0 3 15 24 34
46 19 22 45 64 58 94 12 29 25 54 28 54 3 0 24 -30 48 -66z m3431 -151 c-39
-59 -73 -109 -73 -110 -1 -1 -24 5 -51 13 -76 23 -208 20 -278 -6 -67 -25
-158 -104 -188 -163 -26 -50 -35 -133 -20 -180 21 -64 112 -127 184 -127 15 0
11 -10 -23 -52 -23 -29 -60 -72 -81 -95 l-40 -43 -95 -1 c-51 -1 -100 -2 -106
-3 -7 -1 -26 25 -42 56 l-28 58 55 172 c31 95 70 219 87 276 31 99 33 104 83
141 110 82 200 110 447 141 91 11 181 24 200 29 19 4 36 7 38 5 2 -1 -29 -51
-69 -111z m463 85 c-25 -41 -582 -1025 -707 -1248 -51 -91 -184 -327 -297
-525 -112 -198 -219 -388 -238 -422 -34 -66 -55 -82 -46 -35 3 15 14 104 26
197 62 519 58 496 86 522 23 21 25 29 19 71 -5 37 -1 63 20 122 45 125 121
271 176 340 29 35 55 76 58 90 4 17 71 88 191 201 101 96 306 297 455 446 148
150 271 273 273 273 2 0 -5 -15 -16 -32z m-3489 -698 c130 -117 206 -192 207
-205 0 -11 23 -49 50 -85 95 -124 222 -409 200 -450 -13 -24 1 -63 29 -82 19
-13 26 -51 66 -362 25 -192 45 -355 45 -364 0 -8 -64 97 -143 234 -195 338
-526 904 -952 1624 -106 179 -198 336 -205 350 -7 14 102 -87 242 -225 141
-137 348 -333 461 -435z m1005 666 c162 -57 229 -271 137 -432 -31 -54 -106
-121 -163 -147 -171 -78 -370 62 -333 234 6 28 17 62 25 77 18 35 72 85 113
106 96 48 233 -22 233 -120 0 -85 -130 -145 -175 -81 -34 48 2 102 61 95 21
-2 33 0 31 6 -2 6 -22 12 -44 14 -34 3 -44 -1 -62 -24 -31 -40 -28 -87 10
-118 35 -29 73 -33 124 -12 46 20 75 69 75 128 0 41 -5 54 -36 87 -78 87 -222
84 -305 -6 -61 -65 -81 -144 -89 -353 0 -14 -26 44 -56 128 -35 95 -54 161
-50 175 10 38 90 130 147 170 119 82 254 109 357 73z m-1183 -223 c88 -125
202 -281 253 -347 50 -66 92 -124 92 -128 0 -48 -155 81 -504 422 l-148 145
38 25 c21 14 52 44 69 67 16 23 32 42 35 42 3 0 77 -102 165 -226z m3044 56
c28 -6 54 -15 57 -21 3 -5 -15 -41 -41 -78 l-48 -69 -30 21 c-42 30 -129 37
-173 13 -39 -21 -68 -76 -60 -111 4 -13 18 -31 32 -41 24 -16 28 -15 60 2 32
17 36 17 50 3 22 -22 11 -51 -38 -104 -37 -40 -45 -44 -87 -44 -112 0 -181
105 -147 223 45 156 234 247 425 206z m180 -94 l29 -30 -94 -88 c-80 -76 -94
-85 -94 -65 0 13 -8 39 -19 58 l-18 35 54 78 55 77 29 -17 c16 -10 43 -31 58
-48z m-269 -65 c22 -11 40 -22 40 -25 0 -2 -14 -25 -32 -49 l-31 -45 -25 20
c-30 23 -45 24 -62 3 -8 -8 -25 -14 -39 -12 -23 3 -26 7 -26 43 0 33 5 43 34
62 42 28 89 29 141 3z m-2257 -209 c63 -172 63 -169 -4 -246 -31 -35 -31 -35
-118 -35 -85 0 -88 1 -117 33 -60 64 -60 64 -17 86 80 41 126 111 164 249 12
45 26 79 29 75 4 -4 33 -77 63 -162z m2333 124 c28 -68 26 -72 -150 -239 -91
-86 -172 -156 -181 -156 -15 0 -15 3 2 24 10 13 42 54 71 92 29 37 70 78 92
91 28 17 42 34 49 59 8 29 89 163 99 164 2 0 10 -16 18 -35z m-2624 -352 c41
-40 48 -56 21 -46 -25 9 -93 63 -93 74 0 21 37 7 72 -28z m376 -2 c18 -59 17
-61 -38 -61 -27 0 -50 3 -50 6 0 4 14 22 30 41 17 18 30 38 30 43 0 25 18 6
28 -29z m1602 -53 c0 -5 -14 -8 -31 -8 -24 0 -30 3 -25 16 3 9 9 27 13 41 l6
26 18 -34 c10 -19 18 -37 19 -41z m-1708 -48 l138 0 13 -32 14 -33 -64 -3
c-85 -4 -81 -22 6 -22 l68 0 73 -212 c40 -117 75 -219 78 -225 3 -8 -5 -13
-23 -13 -15 0 -24 -4 -20 -10 3 -5 17 -10 30 -10 21 0 42 -26 31 -38 -3 -2
-42 2 -86 10 -44 8 -83 11 -85 7 -7 -10 14 -16 104 -30 64 -10 82 -16 87 -31
3 -11 4 -22 1 -24 -6 -7 -208 34 -283 57 -68 21 -85 39 -65 70 7 13 8 25 1 37
-14 24 -70 175 -70 187 0 7 15 9 35 7 21 -3 35 0 35 7 0 6 -17 11 -39 11 -31
0 -42 5 -56 26 l-17 26 101 -7 c63 -4 101 -4 101 2 0 6 -41 13 -92 17 -50 4
-99 11 -108 16 -10 5 -30 31 -45 57 -16 27 -45 70 -67 97 -21 27 -38 53 -38
59 0 6 20 7 53 3 28 -3 114 -6 189 -6z m2002 -34 l-37 -44 -91 -6 c-218 -13
-266 -15 -266 -9 0 21 25 83 34 84 17 2 283 15 344 17 l53 2 -37 -44z m-1381
13 c204 -9 346 -9 599 0 182 7 332 10 335 7 2 -2 -1 -22 -8 -45 -11 -36 -16
-41 -43 -42 -30 -1 -30 -1 -6 -8 17 -5 24 -13 22 -27 -8 -44 -65 -220 -76
-230 -17 -17 -152 -34 -320 -41 -110 -5 -143 -9 -125 -16 30 -11 267 -1 367
17 39 7 72 10 72 7 -1 -3 -9 -35 -19 -71 l-18 -65 -66 -9 c-83 -11 -89 -26 -7
-19 51 5 60 3 60 -10 0 -27 -31 -35 -168 -43 -77 -4 -132 -11 -132 -17 0 -10
213 -2 259 10 22 6 23 4 17 -23 -4 -16 -8 -30 -9 -31 -1 -1 -67 -7 -146 -14
-151 -13 -665 -7 -730 8 -22 6 -37 16 -43 32 -8 22 -6 23 19 17 50 -10 419
-18 403 -8 -8 5 -98 12 -200 16 -215 8 -236 11 -243 38 -5 17 -2 19 16 14 36
-10 283 -19 274 -11 -4 5 -56 12 -117 16 -60 4 -126 10 -147 14 l-38 6 -71
207 c-39 114 -75 215 -79 225 -7 16 -2 17 56 12 225 -20 693 -31 808 -19 113
12 62 20 -108 16 -160 -4 -608 11 -717 24 -48 6 -52 9 -62 40 l-10 34 66 0
c37 0 188 -5 335 -11z m1318 -98 c-11 -19 -81 -31 -182 -31 -30 0 -49 -4 -49
-11 0 -9 28 -10 100 -5 55 4 100 5 100 2 0 -28 -16 -36 -76 -36 -36 0 -64 -4
-64 -10 0 -5 25 -10 55 -10 30 0 55 -2 55 -4 0 -2 -13 -32 -29 -67 -16 -35
-41 -104 -56 -152 -21 -70 -24 -91 -14 -103 17 -20 -10 -47 -63 -63 -59 -18
-282 -61 -287 -56 -2 3 1 15 6 28 10 21 22 25 102 36 50 7 91 17 91 23 0 7
-16 8 -42 4 -136 -20 -139 -20 -131 0 9 25 23 34 55 34 15 0 30 5 34 12 5 8
-4 9 -34 5 l-40 -7 25 83 c82 271 105 338 116 334 7 -2 64 -1 127 3 209 13
212 13 201 -9z m-1846 -841 c44 -341 50 -408 40 -398 -8 7 -19 83 -70 488 -28
218 -29 228 -17 215 5 -6 26 -143 47 -305z m1656 213 c-6 -48 -25 -203 -41
-343 -17 -140 -33 -256 -36 -259 -13 -13 -13 17 1 115 8 60 26 210 40 334 27
230 31 257 41 247 3 -3 1 -45 -5 -94z m-1546 58 c50 -10 111 -22 137 -26 32
-4 49 -12 52 -23 7 -22 95 -490 98 -521 3 -23 0 -25 -117 -42 -66 -10 -136
-23 -155 -29 -53 -15 -60 -13 -60 20 0 16 -18 167 -40 336 -22 169 -40 309
-40 311 0 3 8 2 18 -1 9 -3 58 -14 107 -25z m1511 2 c-2 -16 -7 -53 -10 -83
-12 -117 -68 -565 -71 -568 -2 -2 -19 1 -37 7 -48 15 -204 41 -250 41 -48 0
-50 -31 17 316 l49 251 125 23 c69 12 135 26 146 31 33 13 37 10 31 -18z
m-1242 -240 c72 -375 106 -566 101 -571 -11 -11 -16 9 -36 124 -11 66 -42 234
-69 375 -55 283 -53 269 -42 269 4 0 25 -89 46 -197z m150 181 l99 -7 -7 -164
-7 -164 43 -18 c68 -30 119 -34 189 -17 34 9 68 21 76 27 10 9 13 51 13 174
l0 162 124 7 c69 3 139 9 157 13 l32 6 -7 -49 c-4 -27 -27 -150 -52 -274 -24
-123 -44 -224 -44 -225 0 0 -152 1 -337 1 l-338 2 -47 243 c-25 134 -49 257
-52 273 -6 27 -5 28 27 23 17 -4 77 -9 131 -13z m760 -1 c-16 -70 -134 -702
-134 -720 0 -12 -5 -25 -11 -29 -17 -10 -9 41 66 426 36 183 65 334 65 336 0
2 4 4 9 4 5 0 7 -8 5 -17z m-388 -163 l5 -151 -35 -14 c-42 -18 -137 -19 -186
-2 -31 10 -35 16 -34 45 0 17 1 88 2 156 l2 123 120 -3 121 -3 5 -151z m158
-407 c62 -5 76 -9 74 -22 -4 -22 -190 -17 -227 7 -25 16 -25 16 -12 -1 13 -16
5 -17 -120 -17 -119 0 -131 2 -113 15 24 18 5 20 -21 1 -11 -8 -51 -17 -88
-21 -63 -7 -67 -6 -67 13 0 18 7 21 58 25 108 6 439 7 516 0z m-646 -30 c-3
-14 -15 -19 -63 -21 l-60 -3 30 21 c39 26 98 28 93 3z m866 1 c9 -8 16 -11 16
-5 0 6 12 11 28 11 50 0 243 -49 277 -70 63 -39 54 -106 -18 -150 -40 -25 -51
-25 -42 -2 4 9 10 28 12 42 4 19 -1 16 -19 -15 -26 -45 -77 -75 -125 -75 -36
0 -38 2 -23 31 16 29 0 23 -29 -11 -20 -24 -39 -33 -84 -41 -75 -13 -83 -10
-57 24 35 44 17 42 -27 -3 -39 -38 -44 -40 -102 -40 l-61 0 20 38 c36 67 36
68 165 81 206 22 366 60 365 88 -1 16 -28 44 -32 32 -3 -8 -27 -6 -88 9 -47
12 -112 24 -145 27 -93 10 -115 15 -115 31 0 20 64 18 84 -2z m-983 -13 c-10
-10 -38 -22 -62 -26 -24 -3 -53 -9 -64 -12 -18 -5 -18 -3 4 20 22 24 45 31
114 35 26 2 27 2 8 -17z m-143 -21 c-12 -19 -96 -55 -106 -45 -13 13 13 36 55
49 63 19 65 19 51 -4z m970 -5 c4 -3 -18 -108 -24 -114 -7 -8 -541 -14 -570
-7 -18 5 -23 16 -29 57 -4 27 -4 53 0 57 11 12 221 19 425 14 107 -3 196 -6
198 -7z m-691 -57 c5 -29 9 -54 8 -55 -2 -4 -203 27 -270 41 l-60 13 40 11
c32 9 203 36 262 41 6 1 15 -22 20 -51z m950 27 c128 -21 131 -30 22 -49 -52
-9 -125 -20 -163 -25 l-68 -8 6 44 c3 25 9 49 12 55 7 10 52 6 191 -17z
m-1347 -10 c0 -18 36 -42 81 -55 64 -19 256 -49 387 -61 l131 -12 -29 -34
c-48 -54 -35 -62 18 -10 43 43 52 47 95 47 48 0 60 -12 30 -29 -10 -5 -14 -13
-10 -17 4 -4 19 3 33 17 24 22 35 24 155 29 146 6 153 1 102 -62 -39 -46 -41
-48 -105 -48 -62 0 -67 4 -41 32 9 10 12 18 6 18 -5 0 -20 -12 -34 -26 l-24
-26 -170 6 -170 7 -32 31 c-34 33 -44 28 -19 -8 14 -20 14 -20 -47 -12 -63 9
-110 39 -123 80 -3 10 -10 18 -16 18 -5 0 2 -20 16 -46 21 -37 22 -44 8 -40
-9 3 -30 8 -47 11 -73 16 -95 27 -116 61 -26 43 -37 38 -14 -6 16 -32 16 -32
-7 -25 -34 11 -80 35 -100 53 -27 23 -24 87 4 106 28 20 38 20 38 1z m150
-215 c52 -11 129 -24 170 -28 61 -6 75 -10 78 -25 7 -37 -3 -43 -67 -37 -67 6
-84 -4 -23 -14 92 -16 92 -16 92 -45 0 -15 -2 -30 -5 -32 -2 -3 -42 -1 -87 4
-96 11 -120 25 -111 68 6 34 -18 69 -49 69 -26 0 -58 -36 -58 -65 0 -21 -5
-25 -30 -25 -24 0 -33 6 -40 26 -15 39 -13 44 28 45 l37 1 -37 15 c-32 13 -38
20 -38 46 0 26 3 29 23 23 12 -3 65 -15 117 -26z m1380 5 c0 -19 -8 -28 -35
-39 -43 -18 -46 -30 -5 -21 28 6 30 5 30 -24 0 -25 -6 -34 -27 -42 -39 -15
-55 -8 -68 30 -23 70 -105 58 -105 -17 0 -52 -7 -58 -70 -66 -30 -3 -74 -9
-97 -12 l-43 -6 0 35 c0 35 0 35 53 42 82 11 94 27 15 21 l-68 -5 0 28 c0 27
3 29 58 35 96 12 290 46 314 56 37 15 48 11 48 -15z m73 -39 c3 -8 -1 -22 -8
-33 -13 -17 -14 -16 -15 15 0 33 13 43 23 18z m-1643 -22 c0 -31 -23 -28 -28
4 -2 15 2 22 12 22 11 0 16 -9 16 -26z m830 4 c124 0 242 3 263 7 36 7 37 7
37 -23 0 -36 -4 -37 -167 -47 -87 -6 -105 -4 -128 11 -26 17 -28 17 -60 -1
-29 -15 -48 -17 -127 -11 -184 14 -188 15 -188 48 l0 30 73 -6 c39 -4 173 -7
297 -8z m-622 -46 c3 -16 -2 -22 -17 -22 -24 0 -35 15 -27 36 9 23 40 13 44
-14z m1227 3 c0 -13 -8 -21 -22 -23 -17 -3 -23 2 -23 16 0 10 3 22 7 26 13 13
38 1 38 -19z m-1470 -66 c-17 -47 -19 -69 -7 -69 5 0 17 26 27 58 17 51 20 54
23 27 1 -16 7 -51 12 -76 7 -38 5 -59 -15 -123 -29 -88 -31 -142 -10 -193 18
-43 15 -48 -22 -38 -38 9 -100 77 -113 124 -17 65 27 212 90 301 29 40 32 38
15 -11z m613 31 c38 0 42 -2 42 -25 0 -14 5 -25 10 -25 6 0 10 11 10 25 0 24
3 25 55 25 49 0 55 -2 55 -21 0 -11 -5 -29 -10 -40 -10 -18 -19 -19 -118 -14
-157 8 -162 9 -162 52 0 36 0 36 38 29 20 -3 56 -6 80 -6z m250 -2 c7 -7 8
-17 1 -30 -12 -22 -32 -23 -49 -3 -23 28 21 60 48 33z m304 -23 c4 -34 3 -34
-37 -39 -22 -3 -79 -7 -126 -10 -94 -6 -109 0 -109 46 0 27 2 28 51 28 46 0
51 -2 46 -20 -3 -13 0 -20 9 -20 8 0 14 9 14 20 0 16 8 20 58 23 31 2 64 4 73
5 12 1 18 -8 21 -33z m582 -71 c37 -75 59 -169 51 -213 -13 -72 -67 -129 -139
-147 -27 -6 -29 -5 -22 17 28 91 29 107 10 176 -19 70 -22 200 -6 244 8 20 9
19 21 -12 26 -70 34 -84 38 -71 3 7 -2 33 -11 59 -9 26 -16 49 -16 52 1 14 50
-57 74 -105z m-164 51 c0 -43 -10 -44 -33 -6 -13 22 -14 30 -5 34 30 12 38 6
38 -28z m-1450 16 c0 -5 -6 -14 -14 -20 -11 -9 -15 -7 -19 9 -4 15 0 20 14 20
10 0 19 -4 19 -9z m60 1 c0 -5 -9 -28 -21 -51 -20 -43 -20 -59 0 -46 6 3 11
15 11 25 0 10 5 22 10 25 6 4 10 -12 10 -39 0 -25 5 -46 10 -46 6 0 10 30 10
70 0 95 19 94 54 -2 49 -136 69 -282 47 -341 -18 -48 -50 -67 -109 -67 -153 0
-210 147 -127 328 45 99 105 181 105 144z m1251 -39 c1 -27 4 -59 8 -73 10
-37 24 -7 17 38 l-5 37 14 -32 c17 -38 40 -46 29 -10 -3 12 -13 35 -21 50 -8
16 -11 32 -8 35 11 11 53 -48 97 -135 34 -68 42 -95 45 -155 4 -59 1 -80 -15
-108 -29 -54 -75 -80 -138 -80 -45 0 -59 5 -86 29 l-33 29 1 99 c1 170 92 433
95 276z m-1051 -3 c36 -5 68 -10 73 -10 4 0 7 -16 7 -36 l0 -37 -60 6 c-71 6
-81 -9 -12 -18 70 -10 72 -11 72 -51 0 -29 -3 -35 -16 -30 -9 3 -36 6 -60 6
-27 0 -46 5 -48 13 -2 6 -15 49 -29 95 -22 72 -23 82 -8 78 9 -3 45 -10 81
-16z m964 -37 c-8 -27 -19 -67 -24 -90 -10 -41 -12 -43 -49 -43 -21 0 -53 -3
-70 -6 -30 -6 -31 -5 -31 30 0 39 0 39 93 51 74 10 55 25 -23 18 l-70 -6 0 35
0 36 68 9 c37 6 79 11 94 12 l26 1 -14 -47z m-552 -51 c-6 -25 -6 -44 -1 -48
10 -6 13 1 26 66 l10 45 18 -62 c10 -35 22 -63 27 -63 11 0 10 9 -8 69 -37
127 17 73 78 -77 40 -99 46 -213 12 -259 -43 -59 -127 -79 -193 -45 -93 47
-103 153 -32 342 12 30 31 71 43 90 22 35 23 35 26 9 2 -14 -1 -44 -6 -67z
m-155 68 c86 0 95 -2 90 -17 -3 -10 -20 -56 -37 -103 -19 -52 -34 -113 -37
-157 l-6 -73 -77 0 c-82 0 -87 3 -86 49 1 24 4 25 62 22 36 -1 65 2 69 8 4 7
-12 11 -49 11 -75 0 -86 6 -86 46 l0 34 58 1 c41 0 51 3 37 9 -11 5 -37 9 -57
9 -37 1 -38 2 -38 36 l0 35 83 0 c130 0 149 14 27 20 l-105 5 -3 39 c-3 39 -3
39 29 32 17 -3 74 -6 126 -6z m513 -30 l0 -40 -86 0 c-54 0 -83 -4 -79 -10 3
-5 42 -10 86 -10 l79 0 0 -34 c0 -32 -2 -33 -52 -43 l-53 -10 53 -2 53 -1 -3
-37 -3 -38 -57 -3 c-77 -4 -74 -22 3 -22 l60 0 -3 -32 -3 -33 -67 -3 -68 -3 0
40 c0 74 -23 154 -87 298 -3 9 23 13 104 16 59 1 111 4 116 5 4 1 7 -16 7 -38z
m-732 -145 c40 -6 42 -8 42 -42 l0 -36 -51 6 c-29 4 -53 8 -54 9 -1 2 -5 20
-9 41 -6 34 -5 38 11 34 10 -3 37 -9 61 -12z m886 -17 c-3 -18 -7 -38 -9 -43
-1 -6 -30 -12 -64 -13 l-61 -3 0 35 0 34 63 10 c34 5 65 10 69 11 4 0 5 -14 2
-31z m-846 -83 c6 -3 12 -18 12 -35 0 -33 -9 -36 -82 -24 -35 6 -38 9 -38 41
l0 34 48 -6 c26 -4 53 -8 60 -10z m842 -20 c0 -27 -4 -35 -19 -35 -10 0 -39
-3 -65 -6 l-46 -7 0 36 c0 35 1 36 43 40 93 8 87 10 87 -28z m-857 -65 c25 0
27 -3 27 -39 l0 -40 -57 6 c-43 3 -54 2 -43 -6 8 -6 26 -11 40 -11 55 -1 70
-10 70 -47 l0 -34 -52 3 c-51 3 -54 5 -65 38 l-12 35 0 -33 -1 -34 -42 7
c-130 19 -178 36 -178 64 0 16 5 17 43 9 61 -14 115 6 147 55 23 36 27 38 60
33 19 -3 47 -6 63 -6z m877 -16 c32 -58 112 -84 193 -61 23 6 27 4 27 -12 0
-23 -29 -34 -144 -56 -105 -20 -106 -20 -106 15 0 17 -4 30 -10 30 -5 0 -10
-13 -10 -29 0 -17 -4 -32 -9 -35 -5 -3 -61 -9 -125 -12 l-116 -7 0 32 c0 19
-4 30 -10 26 -5 -3 -10 -19 -10 -35 l0 -30 -180 1 -180 0 0 39 c0 22 -4 40
-10 40 -5 0 -10 -16 -10 -35 l0 -36 -62 3 -63 3 -3 38 -3 37 53 0 c38 0 49 3
38 10 -8 5 -32 10 -52 10 -37 0 -38 1 -38 35 l0 35 84 0 84 0 12 -31 c22 -51
73 -83 145 -87 81 -5 129 16 164 75 l26 42 68 1 67 0 0 -35 0 -34 -60 -7 c-33
-4 -60 -11 -60 -16 0 -5 25 -6 60 -2 l60 7 1 -34 1 -34 7 30 c5 27 12 31 58
40 73 14 80 29 10 21 l-58 -6 3 37 c3 35 6 39 38 44 79 14 106 11 120 -17z
m-1106 -177 c3 -17 4 -32 2 -34 -2 -2 -20 3 -40 11 -30 12 -36 20 -36 45 0 29
1 29 34 19 26 -8 35 -18 40 -41z m1314 21 c-3 -29 -8 -35 -46 -47 -24 -7 -45
-11 -48 -9 -2 3 -1 19 2 36 5 25 14 34 38 41 53 16 58 14 54 -21z m-1095 -18
l47 0 0 -41 0 -42 -50 6 -50 6 0 -45 c0 -51 13 -50 -133 -12 -76 20 -97 35
-97 71 0 13 7 13 51 2 63 -17 166 -30 157 -20 -3 4 -30 12 -59 19 -48 10 -54
14 -60 43 -3 18 -5 34 -3 36 2 2 36 -2 76 -9 40 -7 94 -13 121 -14z m983 4
c-3 -9 -6 -24 -6 -34 0 -15 -10 -20 -47 -26 -27 -4 -57 -10 -68 -15 -16 -6
-14 -8 12 -8 33 -1 165 22 196 34 13 6 17 2 17 -16 0 -13 -4 -30 -8 -36 -9
-14 -194 -63 -236 -63 -22 0 -24 3 -19 40 3 23 2 40 -3 39 -5 -1 -31 -1 -57 0
l-48 1 3 38 3 37 90 7 c49 5 94 10 100 12 5 3 25 5 44 5 26 1 32 -2 27 -15z
m-669 -24 l63 0 0 -35 0 -35 -61 0 c-37 0 -58 -4 -54 -10 4 -6 58 -10 131 -10
76 0 124 4 124 10 0 6 -27 10 -60 10 l-60 0 0 35 0 35 58 0 c33 0 100 3 151 7
l92 6 -3 -39 c-3 -38 -4 -39 -48 -44 -33 -4 -40 -7 -27 -12 10 -5 32 -8 48 -8
26 0 28 -2 23 -30 -4 -19 -2 -30 5 -30 6 0 11 10 11 23 0 34 11 44 58 50 45 5
49 0 36 -50 -6 -22 -16 -25 -152 -39 l-63 -7 6 26 c4 14 2 28 -4 31 -7 5 -11
-4 -11 -23 l0 -31 -185 0 -185 0 0 23 c0 12 -5 29 -10 37 -7 11 -10 5 -10 -23
l0 -39 -52 7 c-29 4 -54 8 -55 9 -1 1 -4 18 -5 37 l-3 34 48 1 c49 1 81 14 35
14 -14 0 -40 3 -57 6 -28 6 -31 10 -31 42 l0 35 92 -7 c50 -3 120 -6 155 -6z
m-260 -84 c0 -1 3 -17 5 -36 l3 -35 -40 4 c-52 4 -55 6 -55 47 l0 34 43 -6
c23 -4 43 -7 44 -8z m-263 -42 c15 -3 27 -20 38 -52 10 -25 16 -47 15 -49 -8
-8 -70 42 -87 69 -24 40 -25 52 -4 44 9 -3 26 -9 38 -12z m1275 -11 c-6 -16
-20 -39 -32 -51 -22 -24 -76 -56 -82 -50 -2 2 3 27 11 55 14 46 19 52 52 61
60 16 63 15 51 -15z m-1109 -24 c36 -6 74 -12 85 -14 15 -3 23 -17 32 -52 6
-26 9 -49 8 -51 -6 -6 -190 30 -202 40 -6 5 -19 30 -27 55 l-16 45 28 -6 c15
-3 56 -10 92 -17z m990 11 c0 -5 -5 -30 -12 -54 -11 -42 -15 -46 -57 -56 -51
-12 -194 -30 -199 -26 -1 2 2 15 8 30 5 15 10 38 10 51 0 21 6 24 58 30 31 3
84 12 117 20 76 17 75 17 75 5z m-667 -40 l97 0 0 -56 0 -57 -127 8 c-71 4
-133 11 -139 16 -7 5 -14 22 -17 37 -3 15 -9 36 -13 46 -7 18 -4 19 47 13 30
-4 98 -7 152 -7z m407 7 c0 -2 -7 -26 -15 -54 -14 -47 -18 -51 -52 -57 -21 -3
-80 -6 -130 -6 l-93 0 0 55 0 54 133 4 c72 1 138 4 145 5 6 1 12 1 12 -1z"/>
<path d="M4125 8505 c-52 -51 -16 -145 55 -145 43 0 65 14 80 49 36 88 -69
163 -135 96z m93 -11 c45 -31 18 -114 -37 -114 -21 0 -61 40 -61 62 0 22 43
68 62 68 8 0 24 -7 36 -16z"/>
<path d="M6159 8287 c-28 -21 -41 -57 -34 -93 5 -28 3 -34 -12 -34 -15 0 -267
-121 -605 -291 -62 -30 -84 -49 -58 -49 5 0 116 53 247 118 414 205 438 215
461 203 61 -33 132 8 132 74 0 66 -81 111 -131 72z m79 -23 c32 -22 30 -78 -3
-100 -29 -19 -60 -11 -81 20 -19 29 -4 72 28 86 31 12 31 12 56 -6z"/>
<path d="M6794 6950 c-56 -23 -72 -103 -29 -145 53 -54 145 -16 145 59 0 62
-63 108 -116 86z m76 -40 c33 -33 20 -83 -26 -100 -49 -19 -91 29 -72 80 17
45 64 54 98 20z"/>
<path d="M8070 6583 c-64 -23 -46 -123 22 -123 57 0 78 73 32 109 -28 22 -30
23 -54 14z m50 -38 c23 -28 -9 -72 -45 -59 -36 14 -24 74 15 74 10 0 23 -7 30
-15z"/>
<path d="M2815 7434 c-53 -57 -16 -144 60 -144 36 0 76 28 87 60 4 12 30 9
159 -14 197 -36 189 -33 196 -66 7 -37 40 -68 77 -72 28 -3 30 -7 59 -115 l29
-112 -27 -33 c-24 -28 -26 -38 -21 -78 l6 -45 -163 -163 c-149 -149 -166 -163
-190 -156 -15 3 -41 1 -57 -6 -30 -12 -31 -11 -150 100 -66 62 -120 120 -120
129 0 41 -70 58 -90 22 -16 -31 -12 -49 15 -67 19 -13 31 -14 48 -7 20 9 35
-2 137 -100 112 -107 115 -111 112 -148 -3 -33 1 -44 28 -70 26 -26 36 -30 62
-25 48 9 78 43 78 86 0 20 -5 41 -12 48 -10 10 24 48 157 182 147 147 171 167
188 158 10 -5 34 -7 53 -4 90 17 85 148 -7 171 -23 6 -28 16 -54 124 l-28 119
21 27 c26 32 27 55 7 94 -25 48 -96 58 -134 18 l-22 -24 -177 33 c-102 20
-179 39 -181 46 -2 6 -14 22 -27 35 -33 33 -87 31 -119 -3z m115 -37 c13 -24
13 -28 -6 -54 -28 -37 -70 -38 -96 -2 -15 20 -17 30 -9 52 20 52 82 54 111 4z
m508 -63 c46 -32 20 -107 -38 -107 -56 0 -81 62 -40 103 24 24 48 25 78 4z
m122 -414 c53 -53 -13 -126 -81 -90 -12 7 -19 21 -19 42 0 61 59 89 100 48z
m-825 -205 c0 -22 -31 -33 -48 -16 -7 7 -6 15 3 26 17 21 45 15 45 -10z m381
-270 c33 -50 -11 -106 -71 -91 -46 12 -53 80 -11 108 24 17 66 8 82 -17z"/>
<path d="M3164 6010 c-53 -21 -69 -88 -33 -134 44 -56 149 -19 149 53 0 57
-66 102 -116 81z m68 -37 c37 -33 10 -103 -41 -103 -24 0 -51 32 -51 61 0 52
53 77 92 42z"/>
<path d="M4242 7047 c-31 -33 -29 -80 4 -106 31 -24 43 -26 78 -10 46 22 51
93 8 125 -26 21 -66 16 -90 -9z m88 -21 c15 -19 9 -56 -11 -69 -9 -5 -28 -7
-42 -3 -52 13 -42 86 12 86 16 0 34 -7 41 -14z"/>
<path d="M5946 7669 c-64 -50 4 -156 77 -118 30 16 37 28 37 66 0 34 -37 73
-70 73 -10 0 -29 -9 -44 -21z m82 -21 c7 -7 12 -21 12 -33 0 -45 -53 -61 -85
-25 -15 17 -16 24 -7 45 13 27 58 35 80 13z"/>
<path d="M6057 6070 c-33 -26 -38 -87 -9 -113 25 -23 78 -21 102 3 61 61 -25
163 -93 110z m79 -35 c15 -23 15 -27 0 -50 -28 -42 -86 -23 -86 29 0 49 58 63
86 21z"/>
<path d="M2627 5870 c-31 -24 -44 -78 -27 -110 14 -26 72 -52 97 -43 36 13 63
46 63 79 0 46 -9 63 -41 79 -38 20 -62 19 -92 -5z m93 -30 c26 -26 25 -50 0
-78 -37 -40 -100 -17 -100 36 0 56 61 81 100 42z"/>
<path d="M4248 5423 c-31 -37 -29 -82 6 -105 24 -16 75 -8 90 14 21 30 20 50
-5 82 -24 31 -68 35 -91 9z m66 -16 c38 -27 -2 -95 -41 -71 -25 16 -29 55 -7
71 10 7 21 13 24 13 3 0 14 -6 24 -13z"/>
<path d="M5606 5324 c-23 -22 -30 -59 -16 -84 10 -19 3 -34 -59 -129 l-71
-107 -40 4 c-69 7 -108 -54 -76 -116 17 -34 34 -42 81 -42 57 0 93 68 65 120
-8 16 3 39 61 127 64 97 73 107 98 105 61 -7 98 72 56 118 -22 24 -77 27 -99
4z m79 -20 c34 -35 -6 -91 -52 -73 -16 6 -23 17 -23 37 0 49 42 69 75 36z
m-223 -345 c39 -52 -22 -111 -77 -75 -30 19 -33 60 -8 88 23 25 61 19 85 -13z"/>
<path d="M4660 3933 c0 -13 131 -23 313 -23 91 0 147 4 147 10 0 6 -63 10
-169 10 -92 0 -196 3 -230 6 -38 4 -61 3 -61 -3z"/>
<path d="M4825 3850 c28 -12 133 -12 140 0 4 6 -24 10 -77 9 -56 0 -76 -3 -63
-9z"/>
<path d="M5495 3810 c-4 -6 7 -10 24 -10 17 0 31 5 31 10 0 6 -11 10 -24 10
-14 0 -28 -4 -31 -10z"/>
<path d="M5498 3757 c-124 -13 -133 -33 -11 -23 48 4 100 10 115 13 30 6 39
24 11 21 -10 0 -62 -6 -115 -11z"/>
<path d="M4785 3570 c11 -5 49 -8 85 -8 47 0 58 2 40 8 -35 11 -151 11 -125 0z"/>
<path d="M10030 5874 c-115 -25 -223 -85 -310 -172 -129 -130 -176 -256 -167
-447 3 -60 9 -122 12 -136 l7 -26 -69 23 c-138 47 -296 24 -410 -60 -157 -115
-234 -356 -169 -526 5 -13 -8 -15 -86 -15 -76 0 -100 -4 -134 -22 -54 -29
-110 -93 -125 -143 -9 -29 -17 -39 -28 -36 -78 23 -219 11 -317 -25 -98 -37
-174 -110 -174 -167 0 -14 14 -38 33 -57 42 -42 122 -61 317 -74 167 -11 1699
-8 1778 4 41 6 52 11 52 26 0 18 -6 19 -102 12 -57 -4 -209 -7 -338 -7 -129 0
-390 1 -580 0 -635 0 -817 2 -911 13 -208 25 -254 69 -160 154 73 66 239 106
358 87 86 -14 92 -13 99 18 12 55 27 82 69 121 66 61 143 75 244 45 71 -21 79
-11 52 62 -60 160 -22 329 103 456 127 129 333 155 494 61 60 -34 69 -22 47
59 -25 95 -30 230 -11 311 37 157 152 301 296 370 89 43 223 72 292 64 42 -5
48 -4 48 12 0 11 -7 22 -16 25 -26 10 -125 5 -194 -10z"/>
<path d="M205 4905 c-33 -7 -93 -27 -133 -45 -60 -27 -72 -37 -72 -57 l0 -23
48 24 c66 34 166 63 242 71 201 21 407 -87 539 -283 97 -144 135 -283 136
-491 0 -91 4 -146 10 -148 6 -2 33 22 60 53 61 71 159 135 261 171 71 24 93
27 209 27 116 0 138 -3 209 -27 93 -33 172 -83 222 -141 88 -103 138 -274 118
-409 -16 -109 -8 -111 88 -22 75 70 175 125 268 150 72 19 207 19 284 -1 152
-39 305 -153 361 -268 23 -47 29 -74 32 -144 1 -47 5 -88 8 -91 3 -3 20 1 38
9 56 23 128 24 165 0 34 -21 71 -87 72 -126 0 -38 19 -43 105 -27 148 26 353
-3 476 -68 90 -48 92 -95 6 -118 -182 -49 -671 -63 -1597 -47 -404 7 -557 5
-834 -8 -517 -24 -1415 -18 -1508 10 -13 4 -18 0 -18 -15 0 -11 8 -22 18 -25
95 -29 1032 -35 1582 -10 315 15 424 15 970 4 477 -10 670 -10 860 -1 483 23
603 45 631 117 49 131 -323 249 -618 197 -25 -4 -33 -2 -33 9 0 8 -12 38 -26
66 -34 68 -88 102 -163 102 -29 0 -60 -4 -70 -10 -16 -8 -19 -3 -24 61 -13
152 -113 284 -277 367 -109 54 -194 75 -300 75 -144 0 -286 -50 -396 -139
l-54 -44 0 67 c-1 211 -116 405 -291 488 -242 114 -555 77 -745 -90 l-51 -44
-6 112 c-10 185 -63 343 -162 483 -152 212 -398 312 -640 259z"/>
<path d="M7767 3340 c-101 -32 -162 -88 -202 -182 l-15 -38 -52 40 c-86 65
-154 85 -288 85 -108 0 -119 -2 -180 -31 -84 -40 -154 -108 -191 -187 -30 -66
-54 -167 -46 -198 3 -11 4 -19 4 -19 -1 0 -24 7 -51 15 -27 8 -66 15 -86 15
-103 0 -207 -65 -236 -148 l-17 -47 -56 -1 c-37 -1 -71 -8 -99 -23 -42 -21
-82 -71 -82 -102 0 -25 42 -57 90 -68 135 -31 997 -52 1825 -46 826 7 942 16
1019 76 82 65 -48 179 -204 179 -48 0 -60 3 -60 15 0 59 -76 114 -157 115 -42
0 -43 1 -43 33 0 112 -73 213 -176 243 -71 20 -161 15 -227 -14 l-46 -21 -12
59 c-26 131 -108 224 -224 255 -76 19 -116 18 -188 -5z m192 -36 c79 -23 143
-91 170 -179 12 -37 21 -83 21 -101 0 -47 18 -51 81 -18 71 35 170 44 233 20
87 -33 141 -124 134 -225 l-3 -46 79 -6 c70 -5 81 -8 102 -33 13 -15 24 -37
24 -49 0 -40 12 -46 92 -45 64 1 86 -3 132 -26 146 -72 70 -124 -212 -145
-189 -15 -2070 -8 -2302 8 -273 19 -326 33 -301 79 24 46 71 67 150 68 76 1
91 9 91 49 0 38 50 96 103 121 65 30 137 31 212 3 31 -12 59 -18 63 -14 4 3 5
34 4 68 -12 237 205 420 448 378 87 -16 184 -64 237 -119 25 -25 48 -41 52
-36 5 5 16 35 26 66 47 152 203 230 364 182z"/>
<path d="M9789 2805 c-221 -44 -441 -206 -553 -409 -47 -82 -92 -223 -106
-324 -13 -99 -6 -183 26 -293 3 -10 -22 -2 -83 28 -138 68 -260 96 -423 97
-110 0 -152 -4 -224 -23 -217 -56 -383 -161 -512 -325 -104 -131 -165 -271
-201 -464 l-8 -42 -44 29 c-25 17 -83 42 -130 58 -76 25 -101 28 -211 28 -102
0 -139 -5 -200 -24 -250 -77 -432 -257 -521 -515 -16 -44 -29 -82 -29 -83 0
-2 -21 13 -46 32 -157 120 -427 63 -515 -108 -17 -32 -24 -37 -42 -31 -80 26
-250 19 -345 -12 -110 -37 -216 -116 -280 -209 -21 -32 -55 -126 -65 -182 -6
-28 -3 -33 12 -33 15 0 22 12 31 53 39 167 174 296 359 343 64 16 206 15 302
-2 34 -5 36 -4 53 34 24 53 90 116 151 144 75 34 201 33 270 -4 28 -14 66 -42
84 -62 19 -20 41 -36 48 -36 7 0 17 19 23 43 59 233 175 403 350 512 67 42
187 82 284 96 149 21 298 -13 423 -96 29 -19 59 -35 66 -35 9 0 17 29 25 93
32 255 177 488 394 633 85 57 181 96 302 124 81 19 115 22 228 17 184 -6 319
-46 458 -135 86 -54 96 -46 62 56 -23 68 -26 94 -26 212 -1 127 1 140 33 233
56 162 133 274 256 374 89 72 209 135 300 158 113 29 307 16 433 -29 42 -15
42 -15 42 9 0 21 -8 27 -67 44 -140 42 -263 50 -384 26z"/>
<path d="M430 2324 c-187 -36 -430 -155 -430 -210 0 -13 2 -24 5 -24 3 0 26
15 52 34 71 50 181 103 280 133 79 24 105 26 243 27 139 1 165 -2 252 -26 263
-73 426 -187 561 -389 117 -177 182 -376 194 -601 7 -124 11 -128 77 -73 139
114 338 124 488 25 125 -83 227 -242 236 -369 7 -98 21 -107 75 -49 88 94 203
150 351 170 238 32 480 -115 563 -342 12 -31 28 -56 37 -58 9 -2 40 8 70 23
79 38 151 55 243 55 106 0 171 -14 261 -56 127 -61 250 -197 283 -314 7 -25
15 -49 19 -53 4 -4 34 -9 67 -11 106 -5 170 -59 194 -164 10 -41 17 -52 32
-52 17 0 19 5 12 47 -18 124 -116 213 -235 213 -34 0 -37 3 -54 50 -24 66 -84
159 -138 211 -99 97 -214 150 -370 171 -74 10 -99 9 -173 -6 -47 -9 -109 -28
-137 -41 -29 -14 -53 -25 -54 -25 -2 0 -19 35 -40 78 -28 58 -55 95 -113 153
-126 125 -266 178 -445 166 -138 -9 -231 -44 -339 -125 -64 -49 -67 -50 -67
-26 0 76 -76 226 -157 308 -102 103 -192 146 -324 153 -103 7 -199 -18 -267
-67 -23 -16 -44 -30 -47 -30 -3 0 -5 25 -5 54 0 73 -35 251 -67 339 -130 362
-352 574 -705 673 -78 22 -118 27 -248 29 -85 2 -166 1 -180 -1z"/>
</g>
</svg>
