<?xml version="1.0" standalone="no"?>
<!DOCTYPE svg PUBLIC "-//W3C//DTD SVG 20010904//EN"
 "http://www.w3.org/TR/2001/REC-SVG-20010904/DTD/svg10.dtd">
<svg version="1.0" xmlns="http://www.w3.org/2000/svg"
 width="1024.000000pt" height="1024.000000pt" viewBox="0 0 1024.000000 1024.000000"
 preserveAspectRatio="xMidYMid meet">
<metadata>
Created by potrace 1.16, written by Peter Selinger 2001-2019
</metadata>
<g transform="translate(0.000000,1024.000000) scale(0.100000,-0.100000)"
fill="#000000" stroke="none">
<path d="M6400 8471 c-98 -22 -183 -89 -221 -174 -31 -71 -38 -220 -14 -303
31 -109 83 -192 185 -295 156 -159 298 -238 391 -218 108 23 321 173 421 296
107 130 153 254 146 389 -13 243 -210 371 -439 285 -30 -12 -74 -37 -97 -57
l-42 -35 -43 35 c-24 20 -63 44 -88 55 -51 23 -148 33 -199 22z m719 -42 c42
-18 44 -21 26 -31 -11 -6 -36 -29 -56 -51 -42 -48 -75 -52 -149 -18 -84 38
-136 25 -226 -60 -84 -78 -128 -78 -209 2 -40 39 -60 51 -100 58 -34 6 -57 18
-72 36 -14 15 -23 20 -23 12 0 -20 30 -44 63 -51 15 -3 39 -8 53 -12 15 -3 48
-27 74 -54 78 -80 135 -80 221 1 55 52 102 79 139 79 11 0 48 -12 82 -26 78
-33 117 -27 154 22 15 19 39 41 54 49 25 13 29 12 54 -14 14 -15 23 -30 19
-34 -3 -4 -1 -7 6 -7 16 0 47 -72 56 -130 l7 -45 -29 28 c-33 31 -59 34 -91
11 -26 -18 -29 -60 -5 -86 30 -33 73 -16 73 29 0 27 -26 41 -43 24 -9 -9 -8
-11 5 -6 24 9 35 -22 16 -42 -12 -12 -20 -13 -37 -4 -25 14 -28 53 -5 75 37
38 94 3 94 -57 0 -15 4 -26 9 -23 12 8 -4 -70 -28 -135 -34 -90 -162 -256
-223 -290 -23 -12 -70 11 -120 58 -56 54 -106 56 -202 8 -90 -44 -135 -44
-192 2 -105 83 -144 96 -198 70 -32 -15 -32 -14 -53 17 -34 50 -60 107 -78
170 -23 80 -17 211 14 281 l23 50 20 -28 c25 -35 45 -45 109 -57 44 -9 62 -20
114 -69 51 -49 69 -60 107 -66 63 -10 108 7 171 64 86 79 118 87 202 51 26
-11 67 -20 93 -20 42 0 50 4 91 48 26 27 55 54 66 60 16 9 17 11 4 12 -9 0
-34 -19 -55 -42 -20 -24 -47 -48 -58 -55 -30 -17 -92 -16 -128 3 -86 45 -127
37 -216 -41 -109 -95 -186 -97 -272 -5 -53 56 -69 65 -132 74 -36 5 -54 15
-73 38 -14 17 -25 38 -23 46 4 20 84 76 132 92 24 8 68 11 115 8 84 -5 131
-24 196 -81 l40 -34 40 32 c114 92 240 115 354 64z m-669 -649 c113 -92 156
-99 261 -45 100 52 135 48 216 -26 24 -22 49 -39 58 -39 24 0 18 -17 -15 -40
l-30 -22 -36 31 c-45 40 -107 42 -188 6 -83 -37 -142 -34 -199 9 -63 48 -87
59 -123 58 -25 -1 -39 6 -64 34 -36 42 -35 57 6 65 37 7 82 -5 114 -31z m56
-132 c50 -38 64 -43 108 -43 34 0 70 10 109 28 74 35 120 35 170 0 l39 -27
-24 -17 c-55 -43 -161 -89 -202 -89 -68 1 -186 66 -286 159 l-45 42 37 -5 c23
-3 59 -21 94 -48z"/>
<path d="M6226 8178 c-9 -12 -16 -42 -16 -66 0 -35 6 -49 29 -73 84 -84 223
32 150 125 -39 50 -119 24 -119 -38 0 -40 21 -60 54 -52 32 8 44 43 22 64 -13
13 -18 14 -28 3 -11 -10 -9 -12 7 -9 25 4 28 -30 4 -45 -45 -28 -71 46 -27 77
32 23 54 20 78 -11 63 -81 -61 -179 -134 -107 -31 31 -36 95 -10 132 8 12 13
22 10 22 -3 0 -12 -10 -20 -22z"/>
<path d="M6796 8149 c-51 -40 -27 -129 36 -129 54 0 76 67 32 97 -19 12 -24
12 -38 -3 -20 -20 -16 -38 10 -42 18 -4 18 -3 -1 11 -19 14 -19 16 -2 22 41
17 64 -26 31 -59 -18 -19 -38 -20 -65 -6 -27 15 -26 73 3 100 61 57 151 -20
118 -101 -16 -39 -46 -59 -88 -59 -44 0 -69 14 -93 53 -18 28 -20 29 -14 7 24
-85 135 -99 193 -25 32 40 29 90 -7 126 -35 35 -77 38 -115 8z"/>
<path d="M7110 8119 c0 -9 9 -28 21 -43 15 -20 29 -26 58 -26 37 0 81 22 81
41 0 6 -12 1 -26 -10 -46 -36 -98 -26 -120 23 -7 17 -13 24 -14 15z"/>
<path d="M6585 7989 c-11 -11 -30 -19 -45 -18 -41 2 -43 0 -25 -27 15 -23 15
-27 0 -50 -21 -33 -12 -45 25 -32 26 9 33 7 48 -13 22 -26 42 -18 42 17 0 17
8 27 25 34 31 12 32 26 3 36 -28 8 -38 22 -38 52 0 27 -11 28 -35 1z m53 -54
c27 -12 28 -21 2 -28 -14 -3 -20 -14 -20 -31 0 -29 -11 -33 -30 -11 -9 11 -22
14 -42 10 -29 -7 -36 3 -16 23 9 9 9 18 -1 38 -11 25 -11 26 14 22 20 -4 30 0
43 20 l17 26 5 -29 c3 -18 14 -34 28 -40z"/>
<path d="M6963 7911 c4 -21 1 -34 -13 -46 -23 -21 -17 -35 14 -35 15 0 27 -9
34 -25 15 -32 30 -32 38 -1 4 18 14 26 36 28 29 3 29 3 10 24 -13 14 -18 29
-15 47 6 29 -5 34 -36 17 -13 -6 -24 -5 -37 5 -29 22 -37 18 -31 -14z m35 -3
c10 -10 17 -10 32 0 27 17 32 15 25 -9 -4 -13 0 -27 11 -40 16 -18 16 -19 -5
-19 -14 0 -25 -9 -32 -27 l-10 -27 -12 24 c-7 14 -23 26 -35 28 -26 4 -29 17
-6 26 11 4 14 13 10 31 -7 27 3 32 22 13z"/>
<path d="M4784 8281 c-23 -10 -50 -32 -61 -47 -76 -108 -44 -235 91 -361 79
-73 146 -113 192 -113 73 0 236 137 287 239 55 112 26 235 -66 280 -71 34
-154 25 -204 -21 -21 -20 -24 -20 -41 -5 -27 24 -87 47 -124 47 -18 0 -51 -9
-74 -19z m176 -36 l39 -27 36 28 c77 58 198 36 243 -45 48 -85 16 -199 -85
-300 -61 -60 -154 -121 -187 -121 -64 0 -220 127 -271 221 -56 103 -31 213 58
259 54 27 113 22 167 -15z"/>
<path d="M4789 8210 c-22 -21 -29 -37 -27 -57 5 -41 34 -41 69 -1 31 37 37 73
13 82 -23 9 -23 9 -55 -24z m59 -2 c4 -19 -45 -78 -64 -78 -23 0 -16 45 11 74
27 29 48 30 53 4z"/>
<path d="M5160 8222 c0 -23 50 -72 73 -72 9 0 17 4 17 10 0 5 -7 7 -16 3 -17
-6 -64 33 -64 54 0 23 38 14 59 -13 12 -15 21 -22 21 -17 0 5 -10 19 -23 31
-29 27 -67 29 -67 4z"/>
<path d="M3470 8064 c-86 -22 -194 -80 -256 -136 -48 -44 -57 -49 -65 -36 -16
29 -156 115 -226 139 -95 33 -261 33 -343 1 -275 -108 -389 -484 -250 -821 63
-155 200 -324 360 -446 90 -69 254 -166 347 -206 66 -28 90 -33 159 -34 74 0
87 3 156 38 99 50 260 172 387 293 179 170 318 383 361 550 78 303 -73 585
-351 659 -68 19 -208 18 -279 -1z m343 -57 c178 -84 277 -242 277 -442 0 -106
-21 -191 -75 -302 -108 -223 -382 -505 -638 -657 -129 -76 -201 -81 -339 -21
-228 100 -487 307 -602 479 -150 226 -180 510 -76 717 123 242 394 318 651
183 37 -20 85 -51 108 -70 l40 -35 63 51 c130 105 233 141 399 137 109 -3 119
-5 192 -40z"/>
<path d="M3672 7908 c-7 -7 -12 -23 -12 -36 0 -23 8 -32 96 -113 21 -19 49
-47 61 -62 25 -31 73 -37 93 -12 18 21 14 82 -6 114 -41 64 -117 122 -161 121
-10 -1 -1 -7 20 -14 87 -32 151 -112 145 -184 -3 -32 -7 -37 -32 -40 -24 -3
-38 6 -85 55 -31 32 -71 71 -89 86 -38 34 -41 60 -10 81 16 11 18 16 7 16 -8
0 -20 -5 -27 -12z"/>
<path d="M2599 7862 c-102 -65 -161 -200 -109 -252 40 -40 71 -28 162 66 46
47 88 95 95 107 49 88 -50 141 -148 79z m135 2 c35 -35 8 -89 -93 -188 -82
-80 -108 -90 -143 -59 -69 62 74 263 189 263 17 0 39 -7 47 -16z"/>
<path d="M2521 7531 c-21 -38 12 -71 50 -50 31 16 22 63 -13 67 -18 2 -30 -3
-37 -17z m57 -17 c4 -26 -26 -40 -45 -21 -8 7 -11 21 -7 31 9 24 48 17 52 -10z"/>
<path d="M7100 7404 c-76 -20 -129 -54 -188 -119 -50 -54 -92 -141 -92 -189 0
-21 -3 -22 -54 -18 -180 15 -312 -153 -252 -320 l14 -38 -32 0 c-53 0 -128
-27 -169 -61 -106 -87 -102 -239 9 -323 l43 -33 -40 -18 c-55 -25 -105 -84
-123 -146 -20 -65 -20 -92 -1 -155 17 -58 43 -85 103 -111 43 -18 44 -19 46
-70 1 -55 19 -84 68 -109 36 -19 35 -31 -7 -94 -19 -29 -35 -57 -36 -64 0 -6
-7 13 -15 42 -18 68 -54 116 -108 141 -75 37 -149 21 -218 -47 -41 -39 -51
-28 -23 24 19 36 19 134 1 178 -8 18 -24 43 -36 54 l-23 21 25 10 c39 15 99
72 114 108 20 47 17 96 -6 121 -27 29 -30 28 -23 -11 5 -36 -15 -67 -43 -67
-64 0 -73 73 -21 160 57 95 70 140 65 228 -7 127 -73 221 -190 275 l-48 22 0
51 c0 88 -79 171 -185 195 -53 12 -55 13 -55 46 0 89 -98 173 -202 173 -125 0
-278 -158 -278 -287 0 -33 -5 -45 -21 -53 -11 -7 -27 -27 -35 -45 -11 -26 -23
-37 -62 -49 -26 -9 -64 -27 -84 -41 -31 -21 -49 -25 -105 -25 -139 0 -262 -52
-378 -160 -62 -58 -74 -65 -105 -62 -31 3 -37 8 -55 50 -60 145 -230 232 -366
187 -72 -24 -152 -103 -172 -171 -13 -46 -16 -48 -63 -59 -137 -32 -227 -138
-227 -267 0 -96 65 -179 156 -197 27 -6 33 -12 38 -44 7 -45 31 -73 75 -89 30
-10 54 -42 42 -54 -2 -2 -20 1 -39 6 -45 13 -175 13 -241 -1 -86 -18 -207 -81
-262 -138 l-49 -50 -41 28 c-90 62 -215 111 -282 111 -45 0 -65 30 -57 86 5
39 3 45 -18 52 -16 6 -35 4 -56 -5 -44 -18 -43 -2 2 48 41 45 43 61 14 90 -29
29 -75 19 -116 -26 -46 -50 -83 -42 -83 17 0 63 -84 92 -129 44 -12 -13 -38
-32 -57 -42 -25 -14 -37 -29 -45 -56 -9 -37 -44 -72 -61 -62 -4 3 -8 18 -8 34
0 29 -22 60 -43 60 -6 0 -30 9 -54 21 -40 19 -44 20 -59 4 -12 -11 -25 -15
-43 -10 -66 16 -77 16 -91 1 -12 -15 -10 -16 14 -7 20 8 34 7 60 -6 32 -15 37
-15 60 1 22 14 30 14 49 5 12 -7 36 -15 52 -19 26 -5 31 -11 35 -44 3 -22 12
-44 21 -49 26 -16 66 16 80 64 11 37 43 68 56 55 8 -7 -15 -217 -32 -301 -16
-73 -42 -112 -70 -102 -22 9 -47 70 -91 221 -21 71 -40 124 -41 119 -5 -15 64
-247 89 -300 18 -38 29 -49 50 -51 22 -3 32 3 47 29 25 41 50 176 56 304 4 99
5 100 37 123 18 12 40 22 50 22 27 0 58 -36 58 -68 0 -61 49 -69 103 -17 39
38 85 47 107 20 14 -17 0 -44 -46 -90 -31 -31 -27 -51 9 -47 87 8 82 9 80 -18
-1 -14 -3 -32 -4 -40 0 -8 2 -24 6 -36 6 -19 2 -22 -50 -27 -79 -8 -173 -55
-241 -121 -32 -31 -59 -55 -60 -53 -9 10 45 139 90 215 30 50 52 92 48 92 -9
0 -107 -165 -122 -205 -7 -16 -18 -57 -25 -90 -8 -33 -25 -87 -39 -120 -53
-128 -54 -304 -2 -453 13 -37 28 -116 35 -177 11 -109 11 -110 -11 -125 -13
-8 -39 -30 -60 -48 -33 -30 -37 -31 -42 -14 -11 32 -43 54 -80 54 -32 0 -34 2
-26 22 30 79 40 600 15 771 -13 89 -98 431 -110 444 -10 9 -4 -16 34 -161 21
-82 34 -148 29 -148 -5 0 -27 9 -49 21 -23 11 -43 18 -46 16 -2 -3 21 -18 51
-33 31 -15 58 -36 61 -46 18 -66 19 -65 -21 -27 -52 48 -114 92 -114 82 0 -5
5 -14 11 -20 17 -17 -24 -26 -79 -19 -34 5 -43 4 -32 -3 20 -14 113 -14 127 0
16 16 108 -72 125 -119 14 -40 18 -552 4 -605 l-7 -28 -30 25 c-33 28 -76 34
-111 15 -19 -10 -19 -9 -11 23 14 57 8 123 -15 155 -21 30 -77 61 -88 50 -4
-3 10 -12 29 -21 63 -26 84 -105 52 -196 -8 -24 -13 -45 -11 -47 2 -3 16 3 30
12 38 25 91 23 120 -4 34 -32 39 -73 17 -137 -16 -49 -16 -54 -2 -48 65 28
105 8 116 -57 l7 -38 32 42 c35 47 122 104 173 113 28 5 39 1 72 -29 36 -33
38 -36 18 -39 -12 -2 -31 -17 -43 -35 -20 -30 -21 -31 -37 -12 -29 33 -65 35
-97 4 -43 -41 -65 -92 -52 -120 13 -28 65 -56 83 -44 10 6 8 9 -8 9 -12 0 -35
11 -50 24 l-28 25 24 46 c45 86 97 94 141 23 l20 -33 0 30 c0 66 58 97 100 55
25 -25 26 -61 1 -91 -16 -19 -23 -22 -42 -13 -13 5 -35 8 -49 7 -14 -2 -33 -5
-42 -6 -10 -1 -18 -7 -18 -15 0 -7 -5 -10 -12 -6 -7 4 -8 3 -4 -5 6 -9 14 -8
32 3 38 25 89 21 113 -10 44 -55 10 -124 -60 -124 -42 1 -63 16 -82 60 -11 25
-16 29 -16 15 0 -11 6 -29 14 -39 20 -26 19 -32 -7 -56 -24 -22 -58 -26 -76
-8 -17 17 -15 58 5 80 9 10 11 18 5 18 -6 0 -18 -13 -27 -29 -27 -53 18 -116
65 -91 18 9 20 8 20 -15 0 -32 33 -65 65 -65 27 0 27 5 8 -140 l-5 -45 -22 45
c-12 25 -29 55 -36 67 -16 24 -69 55 -82 47 -13 -8 -9 -49 7 -70 20 -26 19
-33 -4 -27 -27 7 -34 -12 -17 -46 20 -38 65 -91 78 -91 6 0 -6 18 -25 39 -43
48 -60 78 -48 85 23 15 57 -23 115 -129 15 -26 16 -27 10 -5 -3 14 -28 61 -54
105 -27 44 -51 90 -55 103 -6 21 -4 23 17 20 33 -4 85 -87 100 -159 l12 -60
12 58 c6 32 15 95 19 141 4 45 11 82 16 82 5 0 9 7 9 15 0 20 6 19 31 -6 26
-26 64 -19 97 17 28 31 28 64 1 98 l-20 26 25 0 c35 0 56 25 56 69 0 48 -36
86 -74 79 -23 -5 -26 -2 -26 24 l0 28 73 -48 c39 -27 100 -65 134 -83 37 -20
63 -41 63 -50 0 -9 -13 -43 -30 -75 -16 -32 -30 -59 -30 -60 0 0 26 1 58 3 73
5 88 -4 68 -42 -11 -20 -12 -34 -5 -54 9 -22 7 -28 -10 -40 -31 -20 -29 -76 4
-97 13 -8 29 -13 35 -9 6 4 10 -4 10 -19 0 -14 8 -31 18 -37 15 -9 17 -24 15
-96 -3 -111 -13 -121 -13 -13 0 81 -9 109 -12 36 l-1 -37 -37 36 c-42 41 -67
45 -76 11 -5 -20 17 -82 43 -126 2 -3 -112 -4 -253 -2 l-257 4 -31 33 c-32 34
-90 53 -122 41 -13 -5 -14 -1 -7 27 4 17 8 68 8 112 0 69 -4 86 -28 127 -15
26 -40 56 -56 67 -62 44 -160 44 -223 0 l-29 -21 8 44 c15 80 7 174 -18 218
-12 22 -26 40 -31 40 -12 0 -10 -11 6 -29 37 -44 46 -147 21 -244 -21 -81 -19
-85 18 -49 133 129 317 40 317 -153 0 -34 -7 -84 -15 -111 -8 -27 -15 -49 -15
-50 0 -1 22 1 48 4 59 5 105 -16 127 -58 17 -33 20 -102 5 -131 -8 -15 -7 -19
4 -19 17 0 30 67 21 110 l-6 30 173 -5 c95 -3 367 -10 603 -15 800 -19 815
-20 838 -47 24 -27 79 -30 142 -8 22 8 55 15 73 15 29 0 32 -3 32 -29 0 -16 4
-41 10 -55 9 -24 14 -26 67 -25 32 1 45 4 30 6 -30 5 -30 17 0 77 13 26 18 28
51 22 21 -3 57 -6 82 -6 l45 -1 -45 -40 c-25 -21 -57 -45 -72 -52 -16 -6 -28
-15 -28 -19 0 -3 -34 -28 -75 -53 -41 -26 -75 -51 -75 -56 0 -29 53 -104 124
-176 l82 -83 -36 0 c-19 0 -96 7 -170 15 -309 35 -410 61 -410 109 0 14 5 28
10 31 6 3 10 17 10 29 0 40 -71 57 -310 76 -74 5 -167 13 -207 16 l-71 6 -6
33 c-11 57 -79 95 -146 80 -37 -8 -90 -59 -90 -87 0 -20 -3 -21 -107 -15 -58
4 -135 7 -171 7 -64 0 -64 0 -58 26 9 36 -10 90 -42 115 l-27 22 170 -7 c94
-3 267 -8 385 -10 l215 -4 -180 8 c-351 18 -680 27 -712 20 -18 -4 -39 -15
-48 -24 -9 -9 -20 -16 -25 -16 -13 0 -51 -80 -59 -124 l-6 -40 -22 36 c-30 51
-92 90 -152 96 -156 15 -259 -207 -121 -260 24 -9 24 -9 -17 -34 -54 -32 -86
-84 -86 -140 0 -48 12 -68 56 -91 28 -14 69 -14 108 2 13 5 15 -2 12 -47 -8
-102 62 -172 165 -165 62 4 59 18 33 -183 l-17 -135 -16 40 c-41 101 -136 185
-210 185 -27 0 -40 -5 -48 -19 -17 -32 -11 -92 15 -156 14 -33 25 -61 25 -62
0 -1 -23 14 -51 33 -54 36 -96 44 -105 19 -12 -30 21 -81 108 -167 l88 -88
-118 0 c-66 0 -123 -5 -132 -11 -11 -8 90 -9 350 -5 201 3 699 9 1107 13 l741
6 -5 -79 c-7 -99 10 -229 38 -295 42 -96 165 -165 250 -140 41 12 85 58 96 99
3 14 -1 65 -10 112 -19 97 -22 251 -7 281 10 18 24 19 373 18 199 -1 391 -4
427 -8 l65 -6 8 -79 c8 -72 7 -83 -13 -118 -19 -34 -22 -51 -18 -124 3 -77 5
-87 28 -104 59 -46 295 -100 433 -100 148 0 207 33 207 115 0 93 -38 129 -186
176 -117 38 -209 82 -218 104 -3 9 -6 43 -6 74 l0 58 823 6 c1303 11 1877 19
1877 29 0 10 -6 11 -105 8 -48 -1 -76 2 -70 7 6 5 34 26 62 47 65 47 95 87 91
123 -3 25 -7 28 -48 31 -36 2 -60 -4 -113 -31 -37 -18 -67 -30 -67 -26 0 4 4
11 10 14 5 3 26 35 45 70 63 112 32 157 -67 96 -27 -17 -46 -25 -42 -18 4 6
22 35 39 62 58 94 69 141 39 166 -13 11 -23 9 -61 -11 -51 -27 -103 -84 -148
-164 l-30 -53 -1 116 c-2 102 -10 168 -30 235 -5 16 -1 15 28 -7 108 -82 249
-75 325 17 71 87 69 201 -5 280 -29 31 -135 86 -166 86 -29 0 -8 15 41 28 124
36 159 175 65 266 -32 32 -37 42 -34 72 5 38 46 79 70 69 10 -4 12 -1 7 12
-29 71 -29 71 -10 92 19 22 64 28 94 11 16 -8 18 -5 13 40 -5 53 15 100 43
100 8 0 15 5 15 10 0 13 -6 13 -31 0 -27 -15 -52 -68 -47 -101 4 -26 2 -28
-19 -23 -55 14 -104 -33 -90 -86 5 -19 0 -20 -68 -20 l-73 0 -51 57 c-28 31
-68 93 -90 137 -41 84 -94 253 -84 269 3 5 19 7 35 5 28 -5 30 -3 24 25 -8 37
16 77 45 77 11 0 30 -11 41 -23 19 -21 25 -23 50 -13 21 8 26 15 22 29 -12 39
41 61 87 36 19 -10 20 -8 12 28 -11 59 -5 105 19 130 30 33 70 30 101 -7 l25
-29 16 24 c12 18 26 25 47 25 18 0 28 4 24 10 -10 16 -41 12 -66 -9 -24 -19
-24 -19 -46 1 -35 33 -80 28 -116 -12 -26 -30 -29 -38 -25 -86 4 -52 4 -53
-19 -48 -32 8 -73 -20 -73 -50 0 -32 -26 -40 -50 -16 -43 43 -110 14 -110 -46
0 -26 -4 -30 -27 -29 -32 0 -30 -6 -68 231 -22 143 -48 385 -41 392 2 1 19 -5
39 -13 78 -32 151 -13 210 55 l37 44 23 -22 c30 -28 89 -52 130 -52 42 0 108
33 169 84 67 56 50 58 -21 3 -68 -54 -98 -67 -151 -67 -50 0 -80 12 -122 49
l-35 30 -24 -36 c-50 -78 -145 -106 -221 -67 -28 14 -30 19 -25 55 13 98 76
168 191 211 84 32 166 70 166 78 0 8 -170 -58 -235 -91 -53 -28 -92 -65 -118
-114 -44 -84 -28 -382 36 -702 22 -107 22 -111 4 -95 -23 21 -46 63 -63 117
-7 22 -13 31 -13 20 -1 -29 42 -116 76 -156 17 -19 34 -50 38 -69 22 -105 102
-263 169 -332 14 -15 26 -29 26 -31 0 -3 -92 -5 -205 -6 -113 0 -256 -5 -318
-11 -62 -6 -123 -10 -137 -10 -22 1 -95 -7 -218 -24 l-33 -5 60 64 c102 109
179 300 182 447 0 24 4 51 8 62 6 15 10 11 26 -23 10 -23 21 -58 25 -79 7 -34
8 -35 9 -7 0 17 -11 55 -26 85 l-26 55 -1 350 c-2 388 -2 392 -70 503 -20 34
-69 95 -109 138 -47 51 -64 74 -50 70 12 -4 39 -2 60 3 37 10 38 10 102 -53
74 -70 105 -90 128 -82 14 6 15 22 10 116 l-6 109 53 0 54 -1 7 -56 c9 -70 41
-176 58 -190 6 -6 25 -14 40 -17 24 -6 34 -2 70 36 23 24 78 100 121 169 44
69 84 128 90 132 6 4 15 -9 22 -33 12 -39 11 -43 -37 -122 -27 -45 -56 -104
-65 -130 -24 -72 -13 -77 89 -44 46 15 98 27 115 27 18 0 32 5 32 10 0 17 -58
11 -132 -15 -81 -28 -98 -30 -98 -12 0 16 55 132 88 184 l26 41 36 -37 c47
-48 109 -66 177 -51 32 8 49 8 51 1 16 -48 102 -93 138 -73 12 7 4 11 -32 15
-50 5 -94 40 -94 74 0 11 -6 14 -22 9 -88 -26 -144 -18 -195 27 -39 34 -63 81
-63 122 0 24 -3 25 -52 25 -29 1 -64 7 -77 14 -22 12 -21 14 63 70 225 150
395 371 451 586 26 100 18 249 -17 320 -15 30 -26 56 -24 58 2 2 20 -4 40 -12
20 -8 36 -11 36 -7 0 9 -45 31 -65 31 -10 0 -13 15 -12 59 2 75 -31 128 -98
161 -40 19 -58 22 -125 18 l-79 -5 6 27 c8 43 -16 137 -44 170 -73 87 -206 87
-292 1 l-39 -39 -28 29 c-90 94 -271 134 -424 93z m197 -3 c81 -12 160 -49
217 -101 l45 -41 22 31 c36 48 118 84 180 78 98 -10 152 -84 147 -201 l-3 -68
25 5 c14 4 50 9 80 12 47 5 63 2 109 -23 63 -33 91 -75 91 -140 0 -24 -3 -43
-6 -43 -4 0 -27 18 -51 41 -24 22 -74 55 -111 72 -59 27 -79 31 -177 35 -86 3
-125 0 -170 -13 -76 -22 -145 -57 -190 -96 l-35 -31 -55 51 c-104 98 -254 146
-388 123 -103 -18 -185 -61 -249 -131 -87 -94 -117 -175 -118 -316 0 -107 21
-190 79 -310 85 -177 245 -364 410 -480 74 -52 80 -59 75 -83 -10 -39 -41 -80
-74 -97 -32 -17 -107 -20 -130 -5 -9 6 -23 3 -41 -7 -38 -23 -97 -10 -105 22
-9 35 -60 75 -96 75 -16 0 -42 -7 -58 -16 -26 -16 -29 -16 -51 0 -64 44 -159
-11 -159 -93 0 -51 27 -105 72 -147 50 -47 80 -64 111 -64 61 0 170 105 183
177 3 18 10 30 16 27 17 -11 78 -6 94 7 44 36 294 -304 270 -368 -3 -8 -22
-21 -41 -29 -48 -20 -98 -9 -135 28 l-30 30 -46 -41 c-63 -55 -128 -70 -208
-47 -66 19 -133 79 -143 127 -7 39 -14 42 -57 24 -44 -19 -87 -19 -131 -1 -76
32 -86 135 -22 228 21 29 37 59 37 65 0 7 -20 26 -44 42 -51 35 -56 46 -56
111 0 49 0 49 -39 60 -82 22 -121 79 -121 181 0 106 60 193 153 221 20 6 37
14 37 17 0 3 -20 19 -45 34 -186 118 -99 367 129 367 52 0 57 2 51 18 -59 137
-27 255 84 315 52 29 129 39 178 23 18 -6 21 -1 26 39 21 147 156 277 317 304
74 12 76 12 147 2z m-1845 -171 c45 -13 93 -52 114 -91 l15 -29 -33 20 c-40
24 -59 25 -98 5 -36 -19 -60 -63 -59 -107 1 -30 2 -29 8 10 14 81 83 119 146
78 26 -17 47 -54 38 -68 -2 -5 -15 -8 -27 -8 -13 0 -34 -9 -47 -19 l-24 -20
40 14 c22 8 52 14 66 15 40 0 123 -29 155 -56 l29 -23 -35 9 c-43 12 -53 12
-46 1 3 -4 24 -11 46 -15 31 -5 45 -14 60 -39 20 -32 25 -63 15 -89 -5 -11
-17 -12 -63 -5 -44 8 -76 6 -137 -6 l-80 -17 -38 45 c-44 51 -102 88 -166 105
-47 12 -149 15 -182 5 -17 -6 -19 -3 -13 22 28 124 129 239 229 264 43 10 46
10 87 -1z m1753 -175 c76 -20 165 -68 219 -119 l44 -41 34 28 c57 49 167 96
251 109 194 29 376 -50 454 -199 62 -116 65 -224 13 -380 -83 -251 -287 -461
-597 -619 -128 -65 -197 -82 -261 -65 -143 37 -389 245 -520 438 -227 334
-203 673 57 812 98 52 197 64 306 36z m-1839 -154 c45 -20 139 -89 132 -97 -2
-2 -40 9 -83 23 -70 24 -97 27 -207 28 -71 0 -128 3 -128 6 0 10 45 48 70 58
38 17 161 6 216 -18z m67 -106 c78 -23 94 -25 144 -15 180 33 345 -21 423
-138 69 -104 67 -206 -6 -356 -37 -77 -50 -94 -55 -80 -6 14 -8 11 -8 -14 -1
-26 7 -42 33 -68 39 -39 72 -43 110 -13 22 17 26 18 26 4 0 -23 -24 -67 -52
-91 -35 -32 -77 -51 -134 -58 l-52 -6 -7 77 c-10 120 -30 204 -64 272 l-31 61
20 37 c13 25 20 55 19 88 l-1 50 -8 -53 c-9 -60 -48 -119 -86 -128 -34 -9 -39
-1 -18 30 13 21 16 41 12 89 -9 105 -64 184 -145 206 -52 15 -52 7 1 -13 56
-22 111 -82 127 -138 14 -53 7 -134 -14 -155 -14 -14 -18 -10 -42 41 -33 70
-84 107 -154 114 -47 4 -50 6 -65 47 -22 56 -78 120 -130 148 -62 32 -172 31
-246 -4 -30 -14 -66 -36 -80 -47 -17 -15 -2 -10 45 14 131 66 238 57 322 -27
66 -65 87 -119 88 -220 0 -78 -3 -90 -30 -134 -16 -26 -45 -59 -63 -73 l-33
-25 28 54 c38 72 39 171 4 242 -13 26 -25 46 -27 44 -2 -1 6 -22 18 -46 32
-66 29 -161 -8 -237 -41 -82 -60 -83 -60 -2 -1 72 -18 113 -64 151 -55 46
-113 55 -230 35 -56 -10 -75 -10 -90 0 -11 7 -20 8 -20 3 0 -6 5 -13 11 -17 6
-3 22 -30 35 -58 29 -62 31 -128 5 -164 -10 -15 -25 -45 -32 -66 -17 -47 -59
-76 -110 -76 -29 0 -38 5 -48 27 -15 33 -104 144 -110 138 -2 -3 17 -36 43
-74 53 -77 75 -129 76 -181 0 -50 -17 -106 -43 -136 l-22 -25 -1 53 c0 31 -7
65 -18 83 -9 17 -14 21 -10 10 5 -11 10 -50 12 -87 3 -58 1 -68 -16 -77 -17
-9 -21 -4 -41 44 -28 68 -72 111 -150 146 -82 37 -78 28 7 -15 81 -41 93 -53
132 -139 22 -49 34 -65 45 -61 12 5 15 -5 15 -58 0 -118 45 -198 111 -198 15
0 32 7 37 16 14 25 24 0 12 -30 -5 -14 -20 -28 -32 -30 -55 -12 -60 -15 -20
-12 35 4 41 2 32 -9 -6 -8 -24 -17 -40 -20 -59 -13 -137 48 -178 140 -36 80
-43 92 -39 69 4 -20 1 -21 -39 -16 -56 6 -86 -2 -125 -35 l-32 -27 -18 22
c-43 54 -79 191 -79 301 l1 66 29 -61 c30 -61 103 -140 151 -163 19 -9 18 -7
-6 11 -57 44 -106 102 -137 165 -29 59 -30 68 -25 141 3 42 11 94 17 116 l12
39 41 -41 c46 -45 118 -82 157 -81 23 1 22 2 -5 8 -51 13 -108 47 -150 90
l-40 41 19 53 c34 98 61 119 180 136 60 8 60 9 15 10 -26 0 -66 -6 -89 -14
-24 -8 -45 -13 -48 -11 -2 3 6 20 19 38 134 191 311 298 496 298 44 0 73 4 73
10 0 13 78 47 150 66 86 22 264 12 373 -21z m-1325 -66 c58 -29 115 -85 146
-146 l24 -48 -39 -38 c-75 -74 -111 -236 -71 -319 19 -40 20 -47 8 -105 -21
-99 -92 -196 -168 -227 -76 -32 -170 -10 -217 50 -35 44 -26 69 13 39 11 -8
40 -15 64 -15 37 0 50 6 78 34 23 23 34 43 34 63 -1 26 -2 26 -15 -10 -7 -21
-15 -40 -17 -41 -52 -40 -100 -47 -134 -21 -18 14 -18 16 -1 26 29 17 19 30
-13 14 -44 -23 -78 -19 -111 14 -36 37 -37 70 -1 112 l27 34 -31 -22 c-83 -59
-204 29 -204 149 0 69 17 113 65 166 53 59 120 91 214 102 44 5 54 8 29 9 -44
1 -47 13 -18 70 61 121 213 170 338 110z m242 -216 c0 -5 -9 -21 -21 -38 -36
-54 -76 -138 -104 -224 -23 -71 -29 -81 -38 -65 -6 10 -11 48 -10 84 0 115 81
250 148 250 14 0 25 -3 25 -7z m1152 -3 c37 -11 108 -78 108 -104 0 -11 -13
-14 -47 -13 -47 2 -48 1 -48 -28 0 -29 1 -30 62 -37 34 -4 75 -14 92 -22 41
-22 46 -20 27 8 -15 24 -14 25 16 35 18 6 36 7 40 3 14 -14 58 -146 64 -194 5
-33 2 -47 -10 -57 -13 -11 -19 -11 -31 -1 -14 11 -14 15 1 37 19 30 13 39 -14
22 -16 -10 -24 -9 -47 9 -35 28 -99 29 -141 3 -52 -32 -79 -101 -79 -201 1
-93 23 -153 67 -184 121 -85 208 158 94 263 -32 30 -87 32 -117 5 -23 -21 -24
-13 -4 26 22 42 63 70 103 70 78 0 156 -132 163 -273 2 -44 -2 -61 -17 -78
-27 -30 -101 -71 -143 -80 l-36 -7 41 -1 c43 -1 108 34 153 82 22 25 23 32 19
119 -3 52 -10 104 -17 116 -10 18 -10 27 0 38 6 8 15 14 18 14 4 0 12 -39 18
-87 10 -94 28 -139 92 -241 72 -115 75 -225 10 -341 -85 -151 -213 -245 -416
-308 -81 -25 -101 -27 -258 -27 -144 0 -182 4 -249 22 -107 30 -227 90 -302
150 -58 47 -61 48 -73 30 -7 -11 -33 -29 -58 -40 -150 -66 -327 98 -283 261
15 56 65 107 113 116 62 12 83 1 110 -58 58 -127 171 -177 238 -106 37 39 41
115 9 144 -20 18 -20 17 -20 -8 0 -32 -13 -41 -46 -33 -37 10 -67 83 -68 168
-1 59 2 70 25 95 49 52 61 89 57 169 l-3 74 43 0 c41 0 48 4 120 78 61 63 89
83 135 100 32 12 62 22 67 22 12 0 13 40 1 59 -13 20 -75 8 -122 -24 l-39 -25
0 38 c0 21 -9 55 -20 77 -11 21 -18 40 -16 43 2 2 46 6 98 9 84 4 97 2 137
-19 67 -35 85 -65 89 -155 l4 -75 41 5 c55 8 115 54 151 118 27 47 31 63 31
132 0 85 0 85 67 67z m103 -139 c22 -10 46 -25 53 -33 11 -13 6 -14 -40 -1
-29 7 -61 12 -70 9 -21 -5 -32 9 -24 29 7 20 32 18 81 -4z m-531 -67 c9 -22 7
-34 -4 -34 -31 0 -125 -47 -166 -83 l-48 -42 20 34 c27 49 83 101 129 122 49
23 61 23 69 3z m510 -307 c17 -47 -24 -86 -59 -57 -15 13 -21 71 -8 84 17 17
58 0 67 -27z m-1385 -300 c11 -32 34 -78 50 -103 l31 -44 -15 -61 c-16 -69
-28 -86 -96 -129 -60 -39 -82 -73 -83 -126 -1 -50 25 -92 72 -114 22 -10 30
-20 25 -30 -15 -35 -14 -89 2 -120 33 -63 146 -88 212 -45 20 14 22 13 28 -15
21 -94 155 -131 233 -65 l30 25 35 -34 36 -34 -19 -38 c-23 -44 -26 -124 -6
-169 11 -25 11 -35 0 -57 -8 -15 -11 -33 -8 -41 3 -8 -10 -46 -30 -85 l-35
-69 -49 24 c-45 22 -54 23 -92 13 -42 -11 -92 -50 -102 -80 -3 -11 -9 -10 -28
8 -35 32 -92 45 -148 33 -26 -5 -48 -8 -49 -7 -2 1 2 18 7 37 24 81 7 187 -37
240 -53 62 -120 74 -199 34 -27 -14 -50 -25 -51 -25 -2 0 -3 13 -3 29 0 43
-39 93 -96 121 l-50 25 62 84 c164 222 255 483 227 652 -16 91 -47 169 -89
217 -24 29 -31 43 -22 46 7 2 31 9 54 15 53 14 125 78 150 133 l19 43 6 -115
c5 -77 14 -134 28 -173z m1760 227 c29 -20 60 -88 61 -130 0 -41 -11 -94 -19
-94 -13 0 -92 132 -89 148 2 9 14 19 28 23 22 5 23 7 7 14 -11 5 -25 1 -37
-10 -19 -17 -20 -17 -30 10 -19 50 29 74 79 39z m-2291 -44 c98 -16 167 -47
225 -100 191 -175 178 -478 -36 -810 -118 -185 -306 -376 -453 -461 -53 -30
-66 -34 -129 -33 -162 4 -481 163 -666 332 -78 72 -162 189 -195 275 -91 232
-56 477 90 622 102 102 245 143 386 111 82 -18 186 -63 238 -103 l33 -25 45
41 c86 80 190 132 297 150 73 12 94 12 165 1z m4129 -70 c7 0 13 -3 13 -6 0
-14 -171 -262 -198 -288 -58 -54 -94 -19 -120 114 -23 114 -24 110 43 134 33
12 86 36 119 52 l59 31 35 -19 c20 -10 42 -18 49 -18z m-466 -87 c13 -55 10
-193 -3 -193 -7 0 -46 30 -86 66 l-72 66 30 35 c17 19 33 47 36 63 l6 28 42
-18 c30 -14 43 -26 47 -47z m-660 1 c15 -18 33 -18 49 1 21 25 87 19 117 -11
22 -22 25 -32 21 -74 -6 -59 -37 -109 -93 -149 -61 -43 -75 -45 -127 -12 -98
62 -142 178 -89 235 34 36 96 41 122 10z m-431 -14 c43 -12 93 -62 109 -109
30 -91 -8 -206 -76 -232 -25 -9 -30 -41 -14 -96 6 -19 6 -35 1 -38 -5 -3 -15
22 -22 55 -12 58 -13 60 -44 60 -164 0 -244 193 -129 314 50 51 105 66 175 46z
m185 -327 c41 -36 98 -47 156 -30 l50 15 15 -36 c21 -51 51 -81 109 -108 90
-43 194 -28 261 37 28 27 32 28 44 14 36 -43 120 -58 172 -31 15 8 29 12 32 8
17 -16 -3 -821 -20 -841 -2 -3 -13 5 -24 17 -27 29 -74 29 -94 0 -15 -21 -16
-21 -29 -4 -7 10 -22 16 -33 14 -14 -3 -24 7 -40 37 -44 86 -125 96 -197 24
-39 -39 -39 -40 -35 -104 4 -62 3 -65 -18 -65 -29 0 -64 -45 -64 -82 0 -28 -1
-29 -22 -14 -31 22 -64 20 -89 -5 -17 -17 -20 -30 -16 -65 4 -38 2 -44 -14
-44 -12 0 -24 13 -33 35 -17 40 -55 59 -97 50 -32 -7 -76 -54 -85 -90 -6 -23
-6 -23 -35 -7 -29 16 -31 16 -50 -7 -11 -13 -18 -30 -15 -38 4 -9 -3 -13 -22
-13 -15 0 -38 -7 -50 -16 -20 -14 -22 -14 -22 3 -1 40 -56 79 -98 68 -15 -3
-35 -8 -44 -11 -15 -5 -18 2 -18 41 0 64 -24 101 -78 122 -43 16 -75 14 -133
-11 -12 -5 -18 0 -22 22 -3 15 -19 42 -35 58 -23 24 -31 43 -40 108 -7 44 -10
81 -8 83 5 5 68 -22 126 -54 102 -55 135 -67 194 -67 58 -1 58 -1 111 56 37
39 70 92 110 176 56 116 59 120 79 106 28 -19 71 -18 91 3 14 13 16 28 12 65
-5 36 -3 48 7 48 7 0 25 9 39 20 26 20 26 23 21 112 -2 51 -9 97 -15 104 -6 7
-8 22 -4 33 8 27 -11 61 -35 61 -15 0 -20 7 -20 30 0 39 -27 53 -79 41 l-40
-9 -10 46 -9 46 43 38 c24 22 50 55 57 74 l12 35 13 -38 c7 -21 24 -48 38 -60z
m-415 57 c0 -20 62 -79 100 -94 27 -11 40 -22 40 -35 0 -25 -45 -61 -76 -61
-26 0 -57 27 -51 44 6 17 38 20 48 4 5 -8 9 -8 9 -2 0 23 -27 36 -49 24 -27
-14 -27 -45 -1 -67 11 -10 29 -26 40 -35 38 -34 16 -113 -43 -148 -62 -38
-154 -15 -144 36 2 13 1 24 -4 24 -9 0 -29 -65 -29 -95 0 -51 -69 -93 -130
-80 -16 4 -40 20 -53 36 -23 29 -23 30 -41 10 -15 -16 -26 -18 -70 -14 -36 4
-61 1 -82 -10 -38 -20 -64 -7 -64 33 0 24 5 31 28 35 84 17 225 71 294 113 94
55 190 152 233 235 28 53 45 71 45 47z m-1713 -115 c25 -48 55 -76 108 -102
85 -42 159 -36 218 16 l32 29 58 -54 c68 -63 189 -124 295 -150 62 -14 72 -20
72 -38 0 -34 -28 -66 -58 -66 -55 0 -102 -22 -161 -75 -67 -60 -77 -63 -121
-40 -24 12 -30 22 -30 47 0 33 33 78 56 78 20 0 34 -32 23 -52 -12 -23 -35
-23 -48 0 -10 16 -10 16 -11 0 0 -27 50 -36 67 -13 29 40 6 79 -44 73 -19 -2
-34 -14 -49 -38 -53 -84 -111 -113 -184 -91 -58 17 -95 81 -71 120 7 11 14 9
33 -14 21 -24 27 -26 46 -16 27 14 37 52 22 80 -20 38 -89 20 -115 -29 -30
-57 -130 -78 -192 -40 -42 25 -55 52 -51 103 4 41 4 42 15 15 14 -31 44 -43
73 -28 45 24 34 110 -15 110 -14 0 -34 -5 -44 -12 -42 -26 -111 33 -111 94 0
35 34 84 79 114 22 14 48 38 58 53 l17 26 6 -30 c4 -16 16 -48 27 -70z m1917
-3 c3 -5 8 -26 12 -48 6 -39 5 -39 -38 -54 -56 -20 -66 -55 -19 -73 l31 -11
-26 -27 c-36 -38 -43 -102 -16 -162 l20 -45 -25 -39 c-15 -21 -58 -78 -97
-126 -62 -78 -73 -87 -95 -82 -36 9 -81 44 -75 58 2 7 -8 20 -24 29 -19 11
-31 30 -39 60 -14 52 -48 85 -130 128 -35 18 -63 38 -63 46 0 21 9 17 40 -16
23 -24 36 -30 72 -30 76 0 128 48 128 116 l0 25 26 -20 c55 -43 152 -17 194
51 21 35 27 93 10 103 -18 11 -11 24 20 40 17 9 38 31 47 50 16 33 36 45 47
27z m154 -93 c-23 -13 -199 -51 -206 -45 -7 8 63 36 90 37 13 0 32 4 43 9 11
5 36 9 55 9 28 0 32 -2 18 -10z m10 -24 c0 -5 -24 -21 -52 -35 -39 -19 -50
-30 -48 -45 3 -19 3 -36 2 -95 -1 -44 8 -90 20 -105 6 -7 10 -22 8 -31 -2 -13
10 -25 37 -39 30 -16 41 -29 46 -55 9 -44 -4 -60 -47 -60 -31 0 -34 3 -47 48
-37 123 -50 212 -39 251 7 21 12 47 12 57 0 27 -35 54 -68 54 -61 0 -38 15 50
32 50 11 99 23 107 28 18 10 20 9 19 -5z m50 -47 c28 -28 13 -44 -54 -57 -56
-12 -68 -11 -75 0 -17 27 -4 41 51 57 48 14 64 14 78 0z m-2143 -32 c16 -12
18 -19 10 -43 -8 -22 -17 -28 -40 -28 -25 0 -31 4 -33 28 -2 19 1 27 12 27 9
0 15 3 15 8 -4 26 8 29 36 8z m1965 -45 c0 -15 -7 -36 -15 -47 -11 -16 -12
-29 -5 -50 5 -16 18 -68 28 -116 l19 -87 -58 -111 c-141 -267 -179 -289 -349
-204 l-92 46 7 37 c6 36 47 115 64 126 6 3 35 -7 66 -22 50 -25 55 -30 51 -53
l-6 -25 18 25 c9 13 45 59 79 101 34 42 80 104 102 138 l40 62 -19 42 c-29 64
-26 110 11 152 25 28 34 33 45 24 8 -6 14 -23 14 -38z m206 -102 c2 -102 -3
-109 -74 -109 -47 0 -74 23 -45 38 10 5 35 12 55 16 21 4 40 12 44 17 4 8 -3
9 -22 5 -93 -18 -104 -18 -110 -2 -10 26 13 44 72 57 30 7 57 16 60 21 7 11
-1 10 -71 -6 -62 -15 -75 -14 -75 8 0 22 36 47 87 61 70 18 78 7 79 -106z
m-1278 21 c2 -32 0 -36 -38 -52 -46 -19 -75 -14 -64 11 4 9 12 31 18 49 10 30
14 33 46 30 32 -3 35 -6 38 -38z m-644 15 c19 -19 7 -58 -19 -64 -17 -3 -45
22 -45 40 0 10 30 39 40 39 5 0 15 -7 24 -15z m854 -34 c6 -25 14 -55 17 -67
4 -13 0 -27 -11 -39 -23 -23 -84 -13 -144 23 -43 26 -45 30 -48 79 l-3 51 89
-1 88 0 12 -46z m-2951 -3 c6 -13 27 -44 47 -71 20 -26 36 -49 36 -51 0 -2
-12 -6 -27 -8 -16 -3 -35 -7 -43 -9 -11 -3 -17 14 -25 79 -11 82 -7 102 12 60z
m3224 -64 c127 -63 172 -130 114 -168 -14 -9 -25 -13 -25 -8 0 4 -7 17 -15 28
-13 17 -14 16 -4 -14 6 -18 8 -40 4 -50 -6 -15 -8 -15 -25 6 -25 31 -36 28
-11 -4 18 -23 19 -28 5 -66 -8 -22 -14 -54 -14 -71 0 -50 -18 -20 -40 68 -26
104 -78 208 -134 268 -24 27 -39 50 -33 52 7 2 19 6 27 8 25 8 60 -4 151 -49z
m-165 -19 c8 -13 14 -38 12 -57 -4 -43 -33 -48 -88 -17 l-41 23 23 17 c16 13
22 27 21 53 l-1 35 29 -14 c16 -9 36 -26 45 -40z m-295 19 c30 -32 83 -60 132
-69 42 -8 45 -17 17 -63 -26 -42 -64 -57 -103 -41 -42 18 -87 58 -87 78 0 9
-9 35 -20 56 -19 38 -19 41 -3 52 25 19 37 16 64 -13z m-100 -20 c16 -15 34
-44 39 -63 24 -88 1 -237 -47 -299 -22 -29 -78 -72 -93 -72 -3 0 -20 18 -38
41 -33 39 -34 40 -16 67 l17 27 -26 -23 c-24 -23 -26 -23 -52 -6 -24 16 -27
22 -22 58 4 26 2 35 -4 25 -5 -7 -9 -26 -9 -42 0 -26 -1 -27 -42 -21 -24 4
-45 9 -48 11 -3 3 -5 38 -5 80 l0 75 80 74 c97 91 125 106 188 101 36 -3 55
-11 78 -33z m468 -101 c15 -32 31 -69 35 -83 4 -14 -11 11 -33 55 -44 85 -44
85 -36 85 3 0 18 -26 34 -57z m-89 -23 c23 0 30 -7 45 -42 9 -24 19 -67 22
-95 l6 -53 -56 -25 c-45 -21 -68 -25 -118 -23 l-63 3 -18 84 c-10 47 -17 85
-15 86 1 0 16 5 32 10 22 7 37 23 54 57 l23 48 30 -25 c16 -14 42 -25 58 -25z
m93 -50 c33 -88 42 -147 26 -166 -7 -9 -35 -27 -61 -40 -44 -23 -50 -23 -65
-9 -8 9 -14 17 -12 18 2 1 25 12 52 25 46 21 47 23 47 67 0 25 -9 72 -21 105
-11 33 -17 65 -14 71 11 16 22 0 48 -71z m-1713 4 c20 -24 31 -49 36 -84 7
-53 14 -60 35 -34 42 51 156 59 205 13 35 -33 44 -51 54 -112 7 -48 4 -92 -15
-174 l-7 -31 38 13 c22 8 56 14 77 15 43 0 106 -26 114 -47 8 -21 20 -15 42
21 23 37 74 66 116 66 30 0 88 -27 83 -39 -2 -5 -62 -65 -135 -135 l-132 -127
-92 -10 c-106 -11 -162 -25 -184 -48 -35 -36 -65 -72 -65 -78 0 -4 7 -15 17
-25 22 -24 12 -32 -32 -24 -31 6 -34 9 -25 26 14 27 12 64 -6 109 -17 43 -58
67 -93 56 -19 -6 -21 -2 -21 33 0 53 -26 75 -79 70 l-41 -3 1 45 c2 59 -21
103 -65 124 -45 21 -71 20 -122 -4 -40 -20 -94 -82 -94 -109 0 -7 -13 1 -29
18 -22 23 -38 31 -64 31 -20 0 -39 -4 -42 -10 -11 -17 -23 -11 -29 16 -4 16
-17 29 -35 35 -24 8 -29 16 -27 41 2 42 -42 76 -81 62 -16 -5 -32 -19 -38 -32
-11 -24 -20 -28 -30 -12 -3 6 -16 10 -27 10 -12 0 -30 7 -40 16 -10 10 -40 19
-66 22 l-49 4 19 36 c10 20 18 44 18 54 0 23 9 23 78 -6 154 -65 259 -80 342
-51 64 23 183 113 289 219 l93 93 39 -10 c24 -6 51 -23 69 -43z m1351 -49 c10
-37 21 -94 25 -128 4 -34 11 -68 17 -74 6 -8 37 -13 86 -14 62 0 72 -2 53 -11
-30 -15 -59 -65 -64 -108 -3 -33 -1 -35 26 -33 34 3 82 44 90 79 8 31 18 30
44 -6 21 -28 85 -55 105 -43 13 8 0 63 -21 86 -9 11 -30 28 -46 38 l-29 17 44
22 c67 34 79 48 80 94 0 35 2 38 9 18 13 -30 37 -180 45 -274 l7 -77 -61 -31
c-33 -16 -89 -37 -123 -45 -82 -19 -232 -19 -316 0 -78 18 -168 65 -164 85 2
8 6 50 9 95 5 78 7 82 39 103 53 35 84 98 97 201 6 55 15 87 20 82 5 -5 18
-39 28 -76z m634 59 l25 -16 -24 -19 c-35 -28 -67 -83 -80 -140 -11 -49 -11
-49 -33 -34 -43 30 -23 128 39 193 37 37 40 38 73 16z m-560 -121 l21 -88 62
-3 c67 -3 67 -4 52 -33 -9 -16 -22 -19 -85 -19 l-74 0 -6 38 c-9 58 -36 192
-42 209 -5 14 -3 14 23 0 26 -13 31 -26 49 -104z m-2545 27 c24 -24 27 -82 6
-99 -8 -7 -32 -11 -53 -9 -35 3 -38 5 -38 33 0 17 -7 35 -15 42 -8 6 -13 13
-10 15 50 42 81 47 110 18z m2135 -91 c43 -20 95 -70 95 -90 0 -6 -5 -19 -11
-30 -10 -19 -13 -18 -58 24 -48 45 -110 73 -136 63 -18 -6 -19 7 -5 35 14 25
58 25 115 -2z m2104 -36 c12 -10 30 -40 40 -67 10 -28 21 -44 25 -37 12 19 47
13 53 -9 7 -27 15 -25 35 10 21 36 47 38 83 7 25 -21 26 -24 15 -72 -16 -75
-82 -202 -142 -275 l-52 -64 -7 32 c-8 40 -30 66 -75 87 -29 13 -41 14 -69 5
-19 -6 -41 -21 -49 -32 l-15 -21 -27 22 c-31 25 -64 27 -104 6 -58 -30 -85
-89 -60 -135 19 -36 -51 -55 -295 -79 -371 -36 -478 -43 -491 -28 -12 13 -93
204 -118 280 -9 26 -16 80 -16 120 l1 72 19 -24 c11 -13 23 -41 26 -62 7 -44
10 -46 36 -22 10 9 41 18 71 21 46 4 57 1 84 -22 37 -31 47 -67 34 -124 -10
-46 -6 -49 35 -27 58 30 122 12 125 -36 3 -49 10 -55 34 -29 13 14 31 20 59
20 40 0 41 1 41 33 0 25 5 33 21 35 11 2 27 -4 34 -13 19 -22 27 -19 34 16 8
43 57 89 95 89 37 0 71 -31 71 -64 0 -21 5 -23 40 -23 44 0 44 -1 31 45 -15
50 1 82 40 82 17 0 44 -9 60 -21 l29 -20 0 47 c0 57 20 84 63 84 24 0 28 3 22
18 -27 66 -11 130 41 171 33 26 94 28 123 4z m-4287 -20 c34 -32 36 -62 6 -90
-37 -33 -62 -36 -85 -11 -29 31 -41 78 -20 78 9 0 24 11 34 25 23 31 31 31 65
-2z m2776 5 c16 -16 15 -53 -1 -67 -26 -21 -47 22 -31 63 7 19 16 20 32 4z
m-604 -36 c63 -44 65 -54 31 -118 -58 -108 -137 -185 -330 -321 l-100 -71 -39
-96 c-22 -53 -42 -96 -46 -96 -19 0 -31 33 -28 72 3 40 1 43 -24 46 -15 2 -57
-6 -93 -17 -70 -22 -125 -27 -125 -12 0 7 68 41 145 72 17 6 25 13 18 16 -7 2
-50 -12 -96 -31 -93 -40 -97 -41 -97 -23 0 14 85 60 133 72 15 4 27 11 27 17
0 11 -21 5 -104 -28 -63 -25 -86 -29 -86 -15 0 15 24 28 85 47 33 10 64 21 70
26 13 11 -23 10 -64 -2 -19 -5 -30 -6 -25 -1 18 17 78 31 158 37 44 4 92 13
106 20 14 7 88 70 164 141 129 121 140 133 179 216 41 85 43 87 72 82 17 -3
48 -18 69 -33z m-2344 7 c0 -5 10 -9 23 -7 17 2 23 -3 25 -21 9 -63 -28 -97
-73 -67 -29 19 -31 36 -10 76 15 30 35 40 35 19z m3011 -25 c25 -12 59 -64 59
-89 0 -16 -54 -1 -79 23 -24 21 -29 33 -24 55 6 32 5 31 44 11z m-102 -22 c13
-25 -12 -73 -48 -95 -38 -22 -41 -22 -41 8 0 45 40 103 72 105 4 0 12 -8 17
-18z m-425 -29 c-7 -56 -24 -155 -30 -176 -3 -10 -10 -14 -17 -10 -7 4 -33 10
-58 13 l-47 5 39 65 c41 67 98 140 111 140 4 0 5 -17 2 -37z m-1775 -5 c4 -12
6 -30 3 -40 -5 -19 -52 -54 -52 -38 0 5 -11 10 -25 10 -22 0 -25 4 -25 33 0
42 15 57 57 57 26 0 36 -5 42 -22z m-131 -28 c28 -26 28 -41 0 -60 -40 -25
-88 -6 -88 34 0 47 50 61 88 26z m591 -34 c46 -24 64 -91 41 -152 -10 -25 -9
-26 12 -20 64 19 83 18 103 -4 17 -18 18 -26 8 -63 -12 -45 -9 -57 9 -39 13
13 67 16 84 4 33 -22 46 -112 21 -146 -12 -17 -32 -17 -378 -6 -200 6 -397 11
-437 11 -72 -1 -73 -1 -67 21 16 51 83 114 101 95 2 -2 -11 -27 -31 -55 l-35
-51 36 24 c20 14 46 25 57 25 20 0 20 -1 -3 -25 -13 -14 -19 -25 -13 -25 17 0
45 38 38 50 -4 7 -18 10 -32 7 -15 -3 -23 0 -20 7 19 50 18 56 -4 56 -13 0
-40 -16 -61 -37 l-38 -37 0 31 c0 61 11 88 42 106 22 12 34 15 42 7 12 -12 56
-13 72 -2 21 14 34 52 28 78 -6 23 -4 25 15 19 16 -5 23 -1 32 19 6 13 25 30
41 37 38 16 71 1 94 -43 l17 -32 19 40 c51 99 132 138 207 100z m-409 -26 c47
-47 8 -101 -51 -70 -16 9 -16 6 6 -25 34 -50 16 -95 -37 -95 -21 0 -31 6 -35
20 -5 20 -23 28 -23 10 0 -5 -11 -17 -25 -26 -24 -16 -27 -16 -45 1 -26 24
-25 47 3 73 28 26 66 20 68 -12 2 -21 2 -21 6 1 2 12 13 25 24 28 10 4 22 17
25 31 3 13 14 25 23 25 14 1 13 2 -1 6 -34 9 -10 52 30 53 6 0 21 -9 32 -20z
m-101 -4 c38 -46 -25 -111 -69 -71 -24 22 -25 42 -3 67 19 22 56 24 72 4z
m-104 -36 c0 -8 4 -18 10 -22 12 -9 -30 -54 -56 -61 -23 -6 -49 17 -49 44 0
29 37 61 68 57 16 -2 27 -9 27 -18z m2589 -117 c-44 -34 -154 -71 -250 -83
-134 -17 -284 12 -382 74 -51 32 -52 34 -35 74 l14 33 32 -19 c18 -11 66 -31
107 -44 62 -19 96 -23 195 -22 102 0 132 5 200 27 44 15 91 36 105 47 l25 19
9 -42 c7 -38 6 -43 -20 -64z m-720 54 c17 -13 6 -27 -141 -177 l-159 -163 -89
2 c-49 1 -91 3 -92 5 -1 1 2 19 8 39 8 32 24 46 122 110 62 41 135 95 164 121
28 25 64 53 80 61 35 19 83 19 107 2z m50 -62 c19 -14 18 -16 -20 -51 l-39
-35 47 31 c47 30 48 30 80 14 18 -9 35 -18 37 -20 2 -2 -17 -28 -43 -59 -26
-30 -43 -55 -38 -55 5 0 29 25 53 55 24 30 46 55 49 55 3 0 22 -5 43 -11 43
-12 45 -23 16 -80 -11 -23 -18 -44 -15 -47 3 -3 18 21 32 54 l25 59 62 -5 62
-5 -2 -55 c-1 -41 0 -49 7 -30 4 14 8 40 9 58 1 30 3 32 36 32 18 0 57 5 85
11 28 6 54 9 57 6 3 -3 16 -34 29 -69 12 -35 23 -55 23 -46 1 10 -8 41 -19 70
-21 57 -21 59 28 78 32 12 35 12 75 -26 39 -37 36 -25 -7 24 l-21 23 25 19 25
19 9 -27 c21 -67 97 -254 125 -310 17 -34 31 -65 31 -69 0 -4 -16 -9 -36 -11
-19 -1 -48 -9 -64 -17 -32 -17 -90 -83 -90 -103 0 -10 -6 -12 -17 -7 -75 32
-163 22 -230 -25 l-42 -30 -47 25 c-55 29 -134 33 -191 10 l-36 -15 -39 40
c-56 57 -92 74 -171 76 l-68 1 -25 52 c-23 45 -68 91 -91 91 -4 0 -14 4 -21 9
-10 6 2 23 45 64 32 30 96 98 143 151 47 53 87 96 90 96 3 -1 14 -7 24 -15z
m1988 -52 c50 -48 34 -102 -39 -127 -46 -16 -64 -7 -41 22 12 16 11 16 -6 2
-18 -14 -19 -13 -13 10 5 21 4 22 -6 10 -8 -10 -29 -15 -59 -15 -25 0 -44 -3
-42 -7 8 -13 -21 -9 -36 5 -8 6 -6 2 4 -11 25 -29 19 -33 -34 -24 -29 5 -49
15 -62 33 -19 25 -19 28 -4 57 29 56 109 80 148 45 11 -9 18 -30 18 -50 0 -20
4 -32 10 -28 6 3 10 19 10 35 0 19 10 36 32 55 38 32 78 29 120 -12z m-3948
-98 c24 -50 21 -75 -9 -75 -29 0 -71 56 -81 109 -6 29 -5 33 9 28 10 -4 17 -1
17 5 0 18 47 -31 64 -67z m5005 29 l62 -7 -20 -21 c-12 -12 -24 -37 -27 -54
-6 -31 -8 -33 -38 -25 -17 4 -92 7 -166 5 l-135 -3 -17 31 c-10 17 -31 38 -48
48 -16 9 -30 20 -30 25 0 9 333 9 419 1z m-539 -20 c-19 -8 -58 -31 -85 -50
-52 -35 -52 -35 -226 -49 -76 -6 -77 -5 -107 25 -17 16 -40 30 -51 30 -12 0
-21 4 -21 9 0 4 37 12 83 16 218 20 375 33 407 33 l35 1 -35 -15z m123 -18
c68 -28 87 -86 59 -176 -17 -53 -19 -55 -57 -58 -27 -2 -43 1 -51 13 -10 14
-12 13 -17 -5 -9 -33 -36 -23 -67 27 -17 26 -30 42 -30 36 0 -5 11 -27 25 -47
14 -20 25 -41 25 -45 0 -18 -32 -20 -58 -5 l-27 16 23 -21 c23 -20 23 -21 5
-46 -15 -20 -24 -24 -48 -19 -110 21 -155 52 -155 107 0 47 27 78 125 142 141
93 186 108 248 81z m-751 -23 c10 -9 18 -26 18 -38 0 -57 -75 -89 -114 -49
-21 20 -21 48 -1 40 12 -4 13 -2 2 15 -10 17 -9 22 7 35 26 19 65 18 88 -3z
m-159 -19 c42 -7 50 -30 15 -44 -20 -7 -20 -9 -4 -9 10 -1 24 -8 31 -17 17
-25 -37 -132 -71 -140 -57 -15 -114 41 -114 111 0 48 15 74 53 90 37 17 40 17
90 9z m336 -9 c16 -8 31 -22 35 -30 12 -33 5 -83 -17 -116 -43 -64 -132 -47
-173 33 -20 39 -12 63 17 48 11 -7 23 -9 26 -7 2 3 -5 8 -16 12 -28 9 -27 25
2 26 21 0 21 1 -3 10 -24 10 -24 11 -6 25 26 18 99 18 135 -1z m-493 -47 c-3
-13 -6 -30 -6 -39 0 -14 -22 -19 -132 -30 -73 -7 -125 -15 -114 -17 10 -2 60
1 111 7 133 16 130 16 152 -26 28 -54 74 -79 119 -65 32 9 35 8 40 -14 14 -56
102 -83 166 -50 26 14 26 13 41 -28 34 -91 62 -80 -245 -94 -248 -11 -539 -34
-595 -47 -19 -4 -30 7 -71 67 -65 97 -125 198 -121 202 2 2 47 8 99 14 l95 10
-102 -5 -101 -5 -16 30 c-24 47 -21 52 38 52 67 0 386 27 521 45 55 7 106 13
114 14 9 1 11 -6 7 -21z m1234 1 c-84 -67 -85 -67 -74 -10 6 29 9 31 53 31
l46 0 -25 -21z m262 -11 c55 -29 94 -100 84 -152 -15 -76 -66 -109 -220 -136
-55 -10 -101 -18 -102 -17 -1 1 -4 17 -7 34 -6 29 -3 35 23 48 17 9 30 18 30
21 0 2 -14 -3 -31 -11 -17 -9 -34 -14 -37 -10 -12 12 15 40 68 73 30 17 51 32
48 32 -18 0 -65 -24 -99 -51 -47 -37 -59 -22 -23 28 l27 38 -32 -33 -31 -33
-30 18 c-17 9 -30 23 -30 31 0 28 106 120 156 136 66 21 151 15 206 -16z
m-777 -21 c-40 -38 -45 -49 -45 -86 0 -36 6 -49 35 -78 39 -39 41 -43 21 -43
-25 0 -75 -50 -84 -82 l-8 -31 -84 2 c-47 1 -88 5 -91 9 -3 4 -18 40 -33 79
-15 40 -32 75 -37 79 -5 3 -9 14 -9 25 0 16 3 18 19 9 65 -34 151 36 151 124
0 27 14 31 148 34 l62 2 -45 -43z m-454 -17 c5 0 9 -10 10 -22 1 -22 1 -22 8
1 11 39 24 34 54 -19 45 -82 33 -124 -40 -141 -98 -22 -140 45 -93 150 15 31
24 42 36 37 9 -3 20 -6 25 -6z m-2101 -15 c34 -18 73 -67 87 -110 9 -29 11
-30 80 -31 81 -1 144 -30 189 -89 l26 -34 31 16 c21 11 56 17 98 18 55 0 72
-4 107 -28 l42 -27 45 35 c25 19 61 37 80 41 36 6 105 1 141 -10 17 -6 26 1
51 41 34 56 80 83 141 83 38 0 41 -2 83 -70 84 -136 84 -112 0 -191 -88 -83
-209 -147 -346 -181 -77 -19 -116 -22 -265 -22 -157 0 -185 3 -272 26 -112 31
-236 86 -337 151 -67 44 -251 215 -251 233 1 9 103 84 114 84 3 0 -2 -12 -10
-27 -16 -33 -18 -96 -4 -124 9 -15 22 -19 65 -19 65 0 100 12 115 40 18 33 5
64 -35 83 -19 9 -35 23 -35 31 0 21 -37 39 -64 32 -15 -4 -10 4 19 29 45 38
63 42 105 20z m-2047 -6 c101 -52 99 -149 -5 -225 l-50 -37 -26 26 -26 27 23
32 24 33 -32 -29 c-24 -23 -34 -27 -43 -18 -9 9 -9 18 0 39 11 26 11 27 -3 9
-8 -11 -15 -23 -15 -28 0 -4 -15 -8 -34 -8 l-34 0 10 43 c13 60 47 106 93 128
46 21 87 24 118 8z m1959 -61 c9 -7 18 -22 20 -32 2 -12 15 -23 34 -28 39 -10
49 -33 29 -64 -18 -28 -46 -36 -105 -32 -41 3 -45 5 -51 36 -9 43 5 103 27
119 22 16 26 16 46 1z m-2319 -22 c34 -14 97 -73 97 -91 0 -6 -13 -18 -28 -27
-27 -16 -30 -16 -47 0 -18 16 -18 16 0 -6 19 -23 19 -23 -2 -28 -12 -3 -20
-11 -17 -18 2 -6 -1 -19 -8 -29 -19 -25 -145 -26 -182 -2 -45 30 -47 88 -4
148 44 62 120 83 191 53z m952 0 c58 -25 73 -90 34 -152 -21 -34 -44 -37 -52
-6 -3 12 -5 10 -6 -5 -1 -25 -16 -31 -24 -10 -3 7 -6 5 -6 -5 -1 -26 -11 -22
-53 19 -48 47 -52 96 -12 136 22 22 35 28 77 36 4 0 23 -5 42 -13z m4435 -18
c67 -34 93 -79 88 -153 -5 -76 -30 -114 -100 -149 -64 -32 -120 -33 -178 -3
-54 27 -80 73 -80 140 0 142 143 229 270 165z m-735 -72 c90 -203 125 -508 95
-821 -5 -55 -12 -127 -15 -160 l-5 -60 14 42 c8 23 36 83 62 135 54 103 164
228 202 228 l21 0 -20 -47 c-11 -25 -60 -121 -109 -212 -49 -91 -92 -175 -95
-186 -10 -31 109 187 177 324 55 110 63 122 69 99 21 -81 -52 -238 -175 -374
-66 -75 -57 -77 18 -6 78 76 136 103 136 65 0 -10 -32 -48 -70 -85 l-71 -68
-157 0 -157 1 -32 42 c-84 112 -152 261 -174 380 -11 57 -10 69 4 91 15 22 20
24 47 15 38 -14 105 -89 131 -148 32 -72 79 -241 84 -300 3 -30 7 -57 10 -60
18 -17 -9 142 -41 244 -65 210 -74 248 -74 304 0 54 0 54 21 35 53 -48 123
-245 144 -409 l11 -90 13 150 c17 186 10 485 -13 608 -9 48 -32 134 -51 191
-19 58 -35 110 -35 115 0 24 12 8 35 -43z m-2496 -12 c35 -50 142 -146 225
-201 217 -143 464 -206 724 -183 212 19 387 90 517 212 l73 68 21 -29 c12 -16
21 -33 21 -38 0 -14 -118 -124 -172 -161 -73 -50 -204 -109 -298 -134 -74 -20
-108 -23 -270 -23 -160 1 -198 4 -280 24 -223 56 -412 155 -557 294 -55 52
-123 141 -123 160 0 8 70 46 85 46 6 1 21 -15 34 -35z m-1391 10 c34 -10 26
-24 -13 -24 -70 0 -125 -55 -125 -125 0 -48 44 -104 82 -105 16 0 16 -3 2 -37
-20 -48 -6 -101 36 -137 l30 -25 -22 -88 c-17 -70 -22 -119 -22 -241 -1 -140
-2 -151 -16 -130 -82 123 -159 198 -205 198 -32 0 -37 -23 -19 -77 19 -56 32
-78 96 -160 27 -35 47 -63 44 -63 -2 0 -20 7 -39 15 -110 46 -166 -12 -91 -95
l36 -40 -112 0 -112 0 46 51 c26 28 49 62 52 75 9 35 -13 56 -49 48 l-30 -6
21 33 c11 19 26 55 32 80 38 152 -133 101 -223 -66 l-16 -30 -1 45 c0 25 9
117 20 205 10 88 20 174 22 190 3 30 4 29 25 -17 26 -56 69 -83 118 -74 94 18
141 124 100 223 -8 19 -15 37 -15 38 0 2 16 -2 35 -7 49 -16 94 0 123 42 61
89 -22 213 -156 235 l-42 7 27 33 28 34 155 0 c85 0 165 -2 178 -5z m4337 -14
c11 -18 -6 -50 -28 -51 -22 -2 -22 -2 1 -6 31 -6 29 -41 -4 -53 -36 -14 -87
-51 -80 -58 4 -3 16 4 29 16 12 11 34 25 49 31 40 15 46 -5 12 -42 l-29 -31
29 22 29 22 18 -26 c17 -26 17 -27 -33 -100 -63 -94 -99 -124 -144 -124 -57 0
-84 35 -84 109 0 33 5 72 11 88 6 15 15 55 20 87 11 64 27 93 61 113 28 15
134 17 143 3z m-3790 -15 c197 -17 295 -36 295 -58 0 -7 -7 -21 -15 -31 -63
-83 72 -126 528 -166 l127 -12 90 -56 c97 -60 99 -64 78 -134 -10 -36 -14 -39
-37 -32 -107 29 -302 33 -396 9 -97 -25 -137 -64 -119 -113 l11 -28 -101 -12
c-290 -35 -267 -164 29 -166 161 -1 265 32 265 85 0 17 5 18 63 12 34 -3 63
-7 65 -8 1 -1 -32 -57 -75 -123 -71 -110 -81 -121 -113 -126 -46 -7 -136 -69
-155 -106 l-16 -30 -195 0 -196 0 31 35 c34 40 38 57 16 75 -12 10 -23 8 -55
-8 -22 -11 -40 -18 -40 -16 0 2 12 28 27 59 21 42 24 58 15 67 -17 17 -59 -8
-95 -57 l-29 -40 7 80 c13 161 9 193 -24 175 -27 -14 -62 -104 -70 -179 l-7
-66 -16 37 c-64 146 -152 176 -113 39 9 -31 34 -89 55 -128 l39 -73 -105 0
-106 0 32 36 c46 53 67 101 53 122 -17 26 -76 20 -118 -12 -35 -27 -34 -25 50
144 84 170 100 225 70 236 -22 9 -82 -33 -127 -89 -53 -68 -96 -154 -117 -239
-23 -90 -30 -70 -38 107 -4 95 -1 153 10 215 22 122 30 140 66 140 20 0 43 11
67 32 32 28 37 30 46 15 12 -22 60 -47 91 -47 13 0 40 11 59 24 21 14 55 25
86 28 59 6 102 30 102 57 0 15 10 21 50 26 55 8 129 41 143 66 17 28 0 65 -40
85 -27 13 -68 19 -144 22 l-107 4 -5 35 c-3 19 -18 51 -33 70 l-27 35 49 -6
c27 -3 81 -8 119 -11z m-1086 -10 c16 -8 40 -28 55 -45 22 -26 26 -41 26 -92
0 -57 -2 -63 -38 -98 -52 -53 -112 -62 -179 -29 -85 42 -115 121 -75 199 36
71 138 103 211 65z m908 -5 c41 -25 63 -92 42 -129 -24 -42 -42 -47 -95 -24
-56 25 -65 39 -32 53 20 8 20 10 3 9 -34 -2 -38 0 -25 16 11 13 10 14 -3 9 -9
-3 -23 -2 -32 3 -14 8 -13 12 6 37 38 48 85 57 136 26z m-334 -16 c61 -31 90
-74 51 -74 -14 0 -14 -3 -4 -15 11 -13 8 -15 -16 -16 -21 -1 -24 -3 -9 -6 27
-7 44 -23 24 -23 -9 0 -38 -11 -65 -25 -42 -21 -53 -23 -77 -14 -30 13 -57 55
-57 89 0 12 7 35 16 51 25 49 80 62 137 33z m-328 -43 c64 -29 97 -72 103
-130 4 -43 1 -53 -21 -75 -32 -32 -88 -35 -132 -6 -65 41 -108 87 -101 105 5
14 14 16 44 12 25 -5 32 -3 22 3 -8 5 -25 10 -37 10 -41 0 -27 30 15 31 l37 2
-40 6 c-42 6 -60 35 -33 52 23 15 101 9 143 -10z m5251 -1 c116 -40 169 -110
162 -211 -8 -108 -84 -179 -192 -179 -31 0 -73 7 -94 15 -55 24 -129 101 -168
177 -34 67 -34 67 -13 78 17 9 25 8 42 -7 l22 -18 -18 22 c-34 40 -9 46 49 13
68 -38 71 -30 4 11 -28 17 -47 35 -44 41 8 12 68 2 107 -19 16 -8 31 -12 34
-9 7 7 -56 34 -98 43 -16 3 -29 7 -29 9 0 1 4 14 10 28 9 25 13 26 90 26 54 0
99 -6 136 -20z m-4730 -25 c32 -32 29 -71 -8 -98 -22 -17 -31 -18 -58 -8 -59
20 -78 73 -40 111 28 28 75 26 106 -5z m3663 -3 c5 -9 12 -34 16 -53 l7 -36
-51 -5 c-64 -6 -99 -36 -108 -90 -4 -26 -10 -37 -18 -34 -18 6 -55 -22 -55
-42 0 -14 -8 -16 -49 -14 -42 3 -53 0 -82 -26 -28 -24 -46 -30 -104 -35 -176
-16 -271 -78 -236 -153 16 -37 105 -74 193 -81 89 -8 110 -25 71 -61 -18 -16
-24 -30 -20 -48 4 -23 2 -25 -20 -19 -16 4 -35 0 -50 -10 -21 -14 -24 -23 -21
-56 3 -30 0 -39 -12 -39 -22 0 -40 -20 -40 -43 0 -11 -8 -25 -17 -32 -15 -11
-24 -5 -69 42 -39 42 -57 54 -75 51 -41 -5 -34 -39 24 -120 30 -41 57 -80 61
-86 5 -9 -82 -12 -349 -12 l-356 0 7 128 c4 70 8 129 10 130 1 2 29 -2 61 -9
92 -19 284 -14 378 11 162 42 162 113 1 147 -89 18 -277 16 -358 -6 l-68 -17
0 41 c0 23 3 82 6 131 l7 89 66 27 c137 57 272 156 335 246 22 33 35 41 69 46
115 16 414 39 592 45 110 5 210 9 222 9 12 1 27 -6 32 -16z m217 -24 c-31
-159 -43 -185 -65 -144 -7 13 -24 29 -37 36 -21 12 -54 90 -54 129 0 7 29 11
81 11 l82 0 -7 -32z m-4890 -7 c0 -14 -9 -21 -33 -26 -18 -3 -35 -10 -38 -15
-3 -5 8 -5 27 1 45 12 58 -5 19 -25 -39 -21 -40 -28 -1 -13 32 12 50 4 35 -17
-6 -7 -27 -35 -47 -63 -41 -54 -72 -73 -121 -73 -93 0 -116 109 -38 184 41 39
101 65 151 66 39 0 46 -3 46 -19z m1469 -26 c30 -15 41 -27 43 -47 4 -38 -40
-64 -135 -79 -62 -10 -73 -15 -68 -29 8 -25 -26 -49 -80 -57 -45 -6 -48 -5
-40 13 17 42 16 65 -4 107 l-21 44 32 37 33 36 100 -3 c75 -2 110 -8 140 -22z
m-579 -30 c4 -8 0 -23 -7 -33 -12 -15 -11 -15 8 1 14 12 23 15 28 8 3 -6 17
-11 29 -11 51 0 36 -110 -21 -160 -59 -52 -148 -29 -179 46 -24 58 5 110 81
145 49 23 54 23 61 4z m229 -9 c41 -32 68 -88 60 -125 -10 -46 -59 -86 -105
-86 -63 0 -84 29 -85 115 0 38 2 70 4 70 3 0 13 -8 24 -17 19 -18 19 -17 6 4
-16 27 -6 41 18 22 16 -13 17 -12 5 3 -33 41 24 51 73 14z m3592 -71 c18 -87
27 -302 18 -438 -4 -65 -9 -116 -11 -114 -2 2 -13 39 -25 82 -35 134 -109 275
-144 275 -27 0 -31 -62 -8 -160 5 -22 2 -21 -27 13 -78 91 -150 87 -150 -10 0
-103 74 -288 163 -409 l45 -61 -60 -7 c-34 -3 -154 -6 -267 -6 l-206 1 -63 92
c-34 51 -62 95 -62 100 0 4 9 7 20 7 25 0 82 -50 112 -97 14 -23 23 -31 26
-22 11 42 12 43 28 23 13 -18 14 -16 8 19 -8 48 8 70 42 56 23 -8 25 -7 20 11
-3 11 -8 29 -12 40 -8 28 13 60 40 60 13 0 36 -10 52 -22 26 -21 27 -21 19 -3
-4 11 -10 36 -13 57 -3 30 0 38 18 48 12 6 28 9 36 6 21 -8 17 7 -7 22 -11 7
-27 29 -35 48 -18 43 -3 82 39 102 21 10 27 18 21 30 -31 72 3 136 72 136 22
1 50 -3 63 -8 22 -7 23 -6 17 17 -8 32 15 52 50 43 23 -6 26 -5 21 14 -15 59
47 123 113 118 34 -3 35 -4 47 -63z m489 54 c3 -6 1 -16 -5 -22 -6 -6 -11 -16
-11 -21 0 -6 9 0 20 14 27 36 33 20 16 -45 -17 -67 -9 -65 13 2 21 63 40 68
43 11 l1 -43 4 38 c3 28 9 37 22 37 10 0 37 6 59 14 l40 14 18 -41 c24 -53 23
-120 -3 -155 -11 -15 -41 -39 -66 -53 -26 -14 -63 -41 -83 -60 -67 -65 -160
-38 -185 54 -6 22 -8 56 -4 76 13 72 79 191 106 191 4 0 11 -5 15 -11z m-4821
-50 c46 -52 65 -96 65 -154 0 -57 -21 -100 -60 -120 -83 -43 -146 15 -165 150
-4 28 -9 58 -11 67 -7 26 33 34 58 11 21 -18 21 -18 9 4 -14 28 -14 33 3 33 8
0 24 -12 35 -26 12 -15 21 -23 21 -18 0 4 -10 18 -22 31 -21 22 -21 23 -3 43
10 11 21 20 25 20 4 0 24 -18 45 -41z m-318 2 c22 -18 22 -21 8 -55 -18 -44
-12 -48 10 -6 22 42 46 40 40 -2 l-5 -33 11 28 c7 19 18 27 34 27 33 0 39 -14
37 -87 -2 -160 -124 -232 -224 -133 -34 34 -38 43 -38 89 0 58 17 105 56 156
30 40 40 42 71 16z m4743 -1 c11 -11 20 -27 20 -35 0 -12 4 -13 19 -6 16 9 20
5 30 -29 6 -22 21 -46 34 -55 30 -21 86 -19 124 5 l32 19 0 -60 c-1 -72 22
-116 72 -143 49 -26 99 -16 152 33 23 21 61 48 83 59 23 12 51 34 62 49 l20
27 13 -59 c15 -69 18 -278 6 -379 l-9 -70 -31 59 c-37 68 -108 150 -137 158
-26 7 -40 -18 -30 -52 4 -14 21 -54 38 -88 l31 -61 -51 34 c-60 41 -82 41 -86
-1 -2 -22 8 -48 36 -91 l39 -61 -39 14 c-28 9 -44 10 -58 3 -28 -15 -25 -29
12 -67 l32 -33 -146 0 -147 0 70 68 c72 70 86 105 49 117 -10 3 -28 1 -39 -4
-31 -17 -34 -13 -11 18 38 55 81 159 87 213 7 66 -17 105 -59 95 -59 -15 -190
-168 -234 -272 -8 -20 -17 -36 -18 -34 -2 2 1 38 6 79 4 41 9 154 9 251 1 159
-2 210 -17 292 -7 32 8 35 36 7z m703 -176 c29 -107 31 -360 4 -443 -28 -89
-18 -93 13 -4 57 164 158 312 226 329 63 16 50 -42 -42 -187 -64 -99 -144
-248 -144 -265 0 -5 18 22 40 59 72 124 157 207 212 207 28 0 30 -2 23 -27 -9
-38 -43 -96 -115 -192 -33 -44 -60 -84 -60 -87 0 -3 27 19 60 49 149 138 345
158 213 22 -20 -20 -60 -53 -89 -71 l-53 -34 -223 1 -223 0 -41 52 c-59 75
-92 128 -99 160 -6 23 -4 27 13 27 27 0 99 -56 137 -106 70 -94 77 -101 44
-39 -124 231 -147 285 -119 285 5 0 27 -16 49 -35 42 -38 104 -148 132 -235
l18 -55 -5 50 c-3 28 0 82 6 120 19 119 14 328 -9 419 -12 44 -21 86 -21 95 0
38 32 -20 53 -95z m-2962 17 c24 -11 74 -27 111 -36 l67 -17 -29 -58 c-17 -34
-73 -106 -133 -172 -145 -157 -140 -153 -178 -138 -62 26 -119 91 -119 135 0
10 43 61 94 114 78 80 97 106 107 144 6 26 17 47 24 47 7 0 32 -9 56 -19z
m-1737 -74 c-34 -130 -35 -331 -3 -501 l13 -69 13 79 c20 118 49 197 105 280
51 77 102 124 133 124 27 0 14 -36 -85 -235 -49 -99 -92 -193 -96 -210 -7 -28
-5 -27 27 15 38 48 111 95 134 86 8 -3 15 -16 15 -29 0 -28 -60 -110 -93 -129
-15 -9 -83 -14 -206 -16 l-183 -4 -35 34 c-19 18 -39 42 -43 53 -11 28 6 55
36 55 34 0 116 -43 167 -88 48 -43 41 -32 -67 110 -81 106 -126 186 -126 226
0 71 131 -46 212 -188 14 -25 33 -69 43 -98 24 -73 29 -59 9 24 -33 136 -19
402 25 518 18 47 21 25 5 -37z m3497 9 c6 -36 3 -43 -28 -73 -30 -28 -35 -38
-31 -69 l4 -37 -60 6 c-34 4 -78 11 -98 17 -46 13 -98 56 -98 80 0 61 137 120
270 116 32 -1 35 -4 41 -40z m-1933 -6 l33 -12 -93 -93 -93 -93 -78 6 c-70 4
-77 3 -71 -12 19 -50 -90 -89 -243 -88 -312 1 -304 120 10 148 l77 7 -16 24
c-34 53 6 94 116 120 67 15 310 11 358 -7z m952 -32 c-1 -129 -28 -401 -42
-410 -18 -12 -164 -6 -178 8 -13 13 -14 39 -6 254 l7 165 57 7 c31 4 75 11 97
16 66 16 65 17 65 -40z m-392 20 c119 -11 138 -15 130 -33 -2 -3 -39 -8 -83
-10 -130 -6 -225 -44 -225 -88 0 -55 100 -97 229 -97 l76 0 0 -117 c0 -65 4
-149 8 -187 l8 -68 -413 7 c-227 4 -415 9 -417 11 -6 5 88 110 258 286 141
147 208 231 231 294 9 22 15 25 38 20 15 -3 87 -11 160 -18z m-2763 -165 c-8
-60 -18 -164 -21 -233 l-4 -125 22 65 c41 116 116 202 189 217 28 5 32 4 23
-8 -85 -108 -174 -249 -174 -275 0 -5 15 19 34 52 36 68 115 183 140 203 14
12 16 10 16 -15 0 -36 -40 -122 -84 -183 -52 -73 -53 -79 -4 -29 70 71 134 79
102 12 -8 -17 -34 -50 -58 -73 l-42 -42 -135 -6 -134 -6 -63 78 c-80 99 -130
188 -144 259 -20 95 0 88 84 -32 41 -59 89 -132 107 -162 17 -30 31 -50 31
-45 0 17 -72 135 -143 232 -37 51 -67 95 -67 98 0 10 41 5 74 -9 44 -18 109
-84 137 -138 13 -24 32 -75 44 -114 l20 -71 2 111 c1 123 27 327 46 365 12 24
12 24 15 3 2 -12 -4 -70 -13 -129z m2868 111 l37 -7 0 -56 c0 -106 2 -105
-110 -98 -185 10 -258 75 -147 130 29 15 76 24 172 36 6 0 27 -2 48 -5z m712
-145 c178 -33 172 -99 -12 -135 -88 -17 -281 -19 -353 -3 l-50 11 0 43 c0 35
5 47 21 55 65 35 277 51 394 29z m-1437 -111 c23 -21 53 -40 66 -44 24 -6 22
-9 -53 -94 -71 -80 -135 -166 -143 -192 -2 -5 -16 -2 -33 6 -17 9 -47 16 -69
16 l-38 0 4 69 c3 55 8 73 25 88 12 10 56 69 99 132 l77 113 12 -28 c7 -16 31
-46 53 -66z m-978 35 c-1 -27 -7 -100 -15 -163 -7 -63 -12 -116 -10 -118 2 -2
15 22 29 54 27 58 90 129 107 119 5 -3 -9 -42 -31 -85 -22 -44 -40 -82 -40
-85 0 -3 21 11 46 30 77 59 118 42 58 -25 l-36 -40 -115 0 -114 0 -46 95 c-44
92 -67 185 -45 185 18 0 70 -83 102 -162 l29 -73 1 61 c0 80 17 169 41 216 26
51 39 48 39 -9z m-1527 -113 c23 -16 51 -38 62 -47 30 -27 145 -159 145 -166
0 -4 -18 -7 -41 -7 -34 0 -50 8 -97 48 -71 61 -152 158 -152 183 0 28 34 24
83 -11z m3367 -67 c25 -3 62 -1 83 5 l37 10 1 -151 c0 -84 4 -160 8 -171 5
-13 -1 -26 -19 -45 -15 -14 -29 -32 -31 -40 -6 -16 -53 -4 -105 28 -30 19 -31
20 -38 122 -3 57 -9 140 -13 183 -6 75 -5 79 13 72 10 -4 39 -10 64 -13z
m-1148 -98 l-5 -85 49 0 c67 0 114 -29 114 -70 0 -35 1 -34 -36 -15 -31 16
-110 20 -118 6 -13 -20 23 -116 53 -143 33 -30 84 -38 98 -15 4 7 12 -14 19
-53 21 -112 -17 -158 -107 -131 -76 23 -129 86 -155 186 -16 58 -19 291 -5
328 6 14 29 37 53 51 24 14 43 26 44 26 0 0 -2 -38 -4 -85z m3245 25 c71 -41
74 -50 14 -50 -39 0 -56 6 -80 26 -67 56 -20 73 66 24z m-3365 -114 c-5 -103
10 -235 34 -293 33 -79 92 -128 179 -150 30 -7 30 -7 -9 -11 -89 -8 -177 59
-213 162 -23 66 -26 343 -4 369 7 10 15 17 16 17 1 0 0 -42 -3 -94z m237 -97
c36 -13 48 -44 34 -92 -6 -22 -16 -33 -30 -35 -46 -7 -82 33 -98 106 -6 31 -6
32 28 32 19 0 48 -5 66 -11z m1216 -73 c18 -13 18 -14 -3 -41 -29 -37 -29 -71
1 -79 75 -20 177 3 177 39 0 12 6 12 39 0 71 -25 102 -46 116 -78 17 -41 5
-64 -43 -84 -85 -36 -384 4 -516 69 l-46 22 0 60 c0 87 5 90 75 56 60 -29 105
-38 105 -21 0 15 51 71 64 71 7 0 21 -6 31 -14z m154 -72 c2 -2 -1 -10 -8 -18
-26 -31 -143 -27 -149 5 -1 8 7 27 18 42 l20 26 58 -26 c31 -13 59 -27 61 -29z
m-334 -136 c122 -44 222 -62 340 -63 97 0 115 3 148 23 34 19 38 20 35 5 -5
-28 -65 -61 -124 -69 -77 -9 -178 3 -312 36 -131 33 -176 56 -180 90 -3 19 -1
22 10 13 7 -6 45 -22 83 -35z"/>
<path d="M6479 6121 c-17 -18 -29 -40 -29 -56 0 -67 86 -165 145 -165 22 0 45
11 73 36 51 43 72 81 72 129 0 67 -74 109 -125 71 -17 -12 -22 -12 -39 0 -32
22 -65 17 -97 -15z m234 -14 c37 -43 -6 -136 -83 -181 -32 -19 -33 -19 -68 0
-76 41 -116 141 -75 186 20 22 61 23 90 3 15 -10 24 -12 28 -4 11 16 48 28 70
22 11 -2 28 -14 38 -26z"/>
<path d="M6650 6111 c0 -5 8 -15 18 -22 16 -13 16 -13 2 5 -14 18 -13 19 8 14
12 -4 20 -2 16 3 -7 12 -44 12 -44 0z"/>
<path d="M6490 6075 c0 -8 4 -15 10 -15 5 0 7 7 4 15 -4 8 -8 15 -10 15 -2 0
-4 -7 -4 -15z"/>
<path d="M5707 6904 c23 -8 56 -31 73 -50 31 -36 38 -37 20 -4 -15 28 -60 57
-100 64 -33 5 -33 5 7 -10z"/>
<path d="M6965 6936 c-43 -19 -112 -97 -126 -145 -10 -34 -9 -44 5 -66 32 -49
80 -28 204 91 31 30 42 49 42 71 0 56 -57 79 -125 49z m103 -8 c21 -21 14 -64
-16 -94 -59 -60 -145 -124 -168 -124 -56 0 -53 81 7 153 52 63 145 97 177 65z"/>
<path d="M7902 6908 c-22 -22 -13 -59 19 -87 18 -14 56 -50 85 -78 58 -58 74
-63 105 -32 25 25 21 62 -13 117 -22 36 -100 92 -127 92 -9 0 2 -9 24 -19 61
-27 125 -108 125 -156 0 -17 -27 -45 -45 -45 -21 0 -175 156 -175 177 0 10 5
24 12 31 7 7 10 12 7 12 -3 0 -10 -5 -17 -12z"/>
<path d="M6850 6655 c-18 -22 -8 -50 19 -50 32 0 49 28 32 49 -17 20 -35 20
-51 1z m45 -20 c0 -13 -8 -21 -22 -23 -17 -3 -23 2 -23 16 0 10 3 22 7 26 13
13 38 1 38 -19z"/>
<path d="M5862 6624 c46 -48 68 -100 68 -158 0 -57 -13 -90 -57 -146 l-36 -45
42 40 c49 47 76 121 65 182 -9 53 -48 117 -87 144 l-32 22 37 -39z"/>
<path d="M4700 6434 c68 -57 96 -172 66 -269 -20 -63 -13 -70 9 -11 37 96 1
243 -69 290 -38 24 -41 19 -6 -10z"/>
<path d="M3890 6639 c-34 -14 -70 -49 -70 -68 1 -11 5 -8 14 8 31 57 123 69
177 24 29 -24 31 -25 20 -5 -6 12 -19 26 -29 31 -30 16 -86 21 -112 10z"/>
<path d="M3905 6507 c-36 -16 -50 -32 -65 -72 -12 -32 -4 -28 14 6 37 72 142
85 242 30 37 -20 50 -24 34 -11 -64 53 -165 74 -225 47z"/>
<path d="M3933 6310 c-47 -21 -83 -70 -83 -112 0 -15 11 -40 25 -55 l26 -28
-22 38 c-38 68 6 139 101 162 41 10 47 13 25 14 -16 0 -49 -8 -72 -19z"/>
<path d="M3612 6278 c-29 -32 -44 -77 -37 -114 5 -31 35 -69 35 -46 0 6 -4 14
-10 17 -13 8 -13 81 1 108 6 12 21 30 33 39 11 10 16 18 10 18 -6 0 -20 -10
-32 -22z"/>
<path d="M4047 6163 c10 -28 45 -63 64 -63 9 0 27 9 40 21 26 22 21 22 -25 -1
-26 -13 -30 -13 -47 9 -11 13 -19 29 -19 37 0 8 -4 14 -10 14 -5 0 -7 -8 -3
-17z"/>
<path d="M4964 6091 c-23 -10 -58 -39 -79 -64 -38 -45 -39 -46 -67 -31 -35 18
-37 2 -2 -23 21 -15 25 -25 19 -42 -6 -20 -11 -22 -43 -16 -31 6 -34 5 -23 -8
6 -8 22 -18 35 -21 20 -5 24 -13 28 -69 4 -51 38 -147 52 -147 2 0 -3 24 -11
53 -30 111 3 239 80 300 30 25 49 32 97 35 50 4 66 0 104 -22 46 -27 80 -71
102 -135 12 -33 13 -34 14 -9 0 45 -61 149 -108 182 -55 39 -137 46 -198 17z"/>
<path d="M5003 5979 c-44 -13 -49 -25 -16 -41 51 -24 41 -108 -13 -108 -12 0
-30 10 -38 22 -16 22 -16 21 -16 -20 0 -81 51 -152 120 -167 74 -16 156 73
147 160 -12 114 -93 182 -184 154z"/>
<path d="M5451 5724 c-48 -20 -33 -27 17 -8 83 33 131 -13 92 -87 -21 -42 -11
-53 14 -17 21 29 20 92 0 112 -19 20 -78 20 -123 0z"/>
<path d="M5820 5699 c0 -5 5 -7 10 -4 6 3 10 8 10 11 0 2 -4 4 -10 4 -5 0 -10
-5 -10 -11z"/>
<path d="M5730 5671 c0 -5 5 -13 10 -16 6 -3 10 -2 10 4 0 5 -4 13 -10 16 -5
3 -10 2 -10 -4z"/>
<path d="M4886 5651 c14 -13 159 -41 215 -41 27 0 65 7 84 14 40 17 48 30 9
16 -37 -14 -127 -12 -217 5 -92 18 -105 18 -91 6z"/>
<path d="M5430 5600 c0 -5 7 -10 15 -10 8 0 15 5 15 10 0 6 -7 10 -15 10 -8 0
-15 -4 -15 -10z"/>
<path d="M4870 5549 c0 -5 5 -7 10 -4 6 3 10 8 10 11 0 2 -4 4 -10 4 -5 0 -10
-5 -10 -11z"/>
<path d="M4970 5540 c0 -5 5 -10 10 -10 6 0 10 5 10 10 0 6 -4 10 -10 10 -5 0
-10 -4 -10 -10z"/>
<path d="M5085 5540 c3 -5 8 -10 11 -10 2 0 4 5 4 10 0 6 -5 10 -11 10 -5 0
-7 -4 -4 -10z"/>
<path d="M4367 5502 c-27 -29 -20 -35 13 -11 27 20 33 21 69 10 48 -14 57 -26
37 -47 -37 -37 -29 -101 16 -125 20 -11 20 -9 -6 21 -28 34 -29 67 -4 97 16
19 29 16 62 -14 29 -28 30 -28 14 -3 -8 14 -34 40 -57 58 -51 38 -116 45 -144
14z"/>
<path d="M4905 5480 c3 -5 8 -10 11 -10 2 0 4 5 4 10 0 6 -5 10 -11 10 -5 0
-7 -4 -4 -10z"/>
<path d="M5035 5480 c-3 -5 -1 -10 4 -10 6 0 11 5 11 10 0 6 -2 10 -4 10 -3 0
-8 -4 -11 -10z"/>
<path d="M5455 5459 c-23 -17 -48 -28 -58 -25 -14 3 -16 2 -7 -9 7 -8 32 -17
56 -21 28 -4 44 -11 44 -20 0 -8 5 -14 10 -14 6 0 10 6 10 13 0 8 11 19 25 25
23 10 25 9 25 -11 0 -73 -85 -91 -127 -28 -13 19 -23 27 -23 18 0 -8 12 -29
26 -46 49 -59 134 -28 134 49 0 18 8 42 18 53 14 18 15 20 1 15 -9 -4 -23 2
-32 13 -24 27 -56 23 -102 -12z m93 -1 c7 -7 12 -15 12 -19 0 -18 -91 -35
-115 -21 -14 7 -12 12 17 30 37 24 68 28 86 10z"/>
<path d="M3607 5768 c-32 -11 -44 -46 -27 -78 6 -12 36 -33 66 -46 30 -13 77
-42 105 -64 59 -46 92 -51 115 -15 55 83 -148 243 -259 203z m128 -26 c58 -28
98 -65 117 -108 37 -85 -17 -112 -94 -47 -23 20 -66 47 -94 60 -86 39 -107 83
-54 110 28 14 79 8 125 -15z"/>
<path d="M2581 5625 c-65 -56 -106 -190 -77 -258 12 -31 20 -37 45 -37 16 0
37 7 45 16 23 22 20 31 -3 10 -48 -44 -96 5 -86 88 8 68 30 114 73 159 53 55
110 49 113 -12 2 -23 2 -24 6 -4 12 63 -59 86 -116 38z"/>
<path d="M2646 5479 c-20 -44 -36 -85 -34 -90 2 -5 20 30 40 78 20 48 36 89
34 90 -2 2 -20 -33 -40 -78z"/>
<path d="M2565 5269 c-11 -16 -1 -19 13 -3 7 8 8 14 3 14 -5 0 -13 -5 -16 -11z"/>
<path d="M2611 5262 c11 -17 10 -24 -2 -39 -13 -17 -13 -17 4 -4 20 16 19 52
-1 59 -11 3 -11 0 -1 -16z"/>
<path d="M2560 5231 c0 -10 19 -25 25 -20 1 2 -3 10 -11 17 -8 7 -14 8 -14 3z"/>
<path d="M6772 5718 c-15 -15 12 -48 40 -48 25 0 20 28 -8 46 -15 11 -23 11
-32 2z m46 -25 c5 -18 -23 -16 -39 3 -11 14 -10 15 11 12 13 -1 25 -9 28 -15z"/>
<path d="M6564 5695 c-16 -24 -12 -45 9 -45 8 0 8 3 -1 12 -14 14 2 48 23 48
18 0 18 -5 3 -33 -10 -20 -10 -21 5 -8 10 7 17 22 17 32 0 28 -36 24 -56 -6z"/>
<path d="M6112 5629 c-54 -53 -55 -135 0 -189 24 -25 38 -30 76 -30 53 0 81
18 106 67 43 86 -12 183 -104 183 -38 0 -52 -5 -78 -31z m136 1 c11 0 42 -71
42 -96 0 -40 -38 -96 -70 -104 -33 -9 -82 5 -104 29 -23 26 -31 98 -14 131 20
37 72 60 111 49 18 -5 33 -9 35 -9z"/>
<path d="M6037 5569 c7 -7 15 -10 18 -7 3 3 -2 9 -12 12 -14 6 -15 5 -6 -5z"/>
<path d="M6328 5573 c7 -3 16 -2 19 1 4 3 -2 6 -13 5 -11 0 -14 -3 -6 -6z"/>
<path d="M6040 5510 c-13 -8 -12 -10 3 -10 9 0 17 5 17 10 0 12 -1 12 -20 0z"/>
<path d="M6055 5450 c-3 -6 1 -7 9 -4 18 7 21 14 7 14 -6 0 -13 -4 -16 -10z"/>
<path d="M6090 5399 c0 -5 5 -7 10 -4 6 3 10 8 10 11 0 2 -4 4 -10 4 -5 0 -10
-5 -10 -11z"/>
<path d="M4161 5214 c0 -11 3 -14 6 -6 3 7 2 16 -1 19 -3 4 -6 -2 -5 -13z"/>
<path d="M5412 4718 c-16 -16 -15 -33 4 -48 22 -19 54 12 38 37 -14 22 -27 26
-42 11z m36 -21 c2 -12 -3 -17 -17 -17 -12 0 -21 6 -21 13 0 31 32 34 38 4z"/>
<path d="M5429 4614 c-9 -11 -10 -20 -3 -32 15 -23 29 -25 48 -7 12 12 13 21
6 36 -13 23 -33 25 -51 3z m37 -29 c-5 -14 -9 -15 -21 -5 -12 10 -13 16 -4 27
15 18 34 1 25 -22z"/>
<path d="M3115 4280 c-3 -5 -1 -10 4 -10 6 0 11 5 11 10 0 6 -2 10 -4 10 -3 0
-8 -4 -11 -10z"/>
<path d="M4819 3879 c-26 -26 -21 -57 12 -82 24 -17 30 -18 55 -6 20 10 30 23
32 42 7 58 -57 88 -99 46z m75 -5 c34 -34 9 -78 -41 -72 -22 2 -29 9 -31 31
-6 50 38 75 72 41z"/>
<path d="M5659 3846 c-19 -9 -24 -19 -24 -51 0 -32 5 -42 26 -54 24 -13 29
-13 53 2 19 13 26 26 26 51 0 49 -39 74 -81 52z m59 -18 c7 -7 12 -21 12 -33
0 -12 -5 -26 -12 -33 -7 -7 -21 -12 -33 -12 -12 0 -26 5 -33 12 -7 7 -12 21
-12 33 0 12 5 26 12 33 7 7 21 12 33 12 12 0 26 -5 33 -12z"/>
<path d="M5055 3765 c-14 -13 -25 -31 -25 -40 0 -22 37 -55 63 -55 64 1 85 79
27 110 -28 15 -38 13 -65 -15z m66 5 c22 -12 26 -59 7 -78 -7 -7 -21 -12 -33
-12 -29 0 -45 19 -45 52 0 39 34 57 71 38z"/>
<path d="M5356 3759 c-30 -24 -34 -59 -8 -82 58 -53 137 28 82 83 -25 25 -41
25 -74 -1z m79 -20 c12 -18 -4 -57 -25 -64 -43 -14 -77 16 -64 57 11 36 69 41
89 7z"/>
<path d="M2980 4010 c6 -11 13 -20 16 -20 2 0 0 9 -6 20 -6 11 -13 20 -16 20
-2 0 0 -9 6 -20z"/>
<path d="M6800 3951 c0 -5 5 -13 10 -16 6 -3 10 -2 10 4 0 5 -4 13 -10 16 -5
3 -10 2 -10 -4z"/>
<path d="M6845 3939 c-4 -6 -5 -13 -2 -16 7 -7 27 6 27 18 0 12 -17 12 -25 -2z"/>
<path d="M6799 3894 c-12 -13 -19 -24 -14 -24 4 0 14 8 21 18 11 15 16 15 34
4 30 -19 36 -8 7 11 -23 15 -26 14 -48 -9z"/>
<path d="M6218 3783 c12 -2 32 -2 45 0 12 2 2 4 -23 4 -25 0 -35 -2 -22 -4z"/>
<path d="M6118 3773 c12 -2 32 -2 45 0 12 2 2 4 -23 4 -25 0 -35 -2 -22 -4z"/>
<path d="M6801 3804 c0 -11 3 -14 6 -6 3 7 2 16 -1 19 -3 4 -6 -2 -5 -13z"/>
<path d="M5824 3635 c-9 -14 -24 -25 -34 -25 -26 0 -52 -35 -48 -66 4 -37 43
-63 103 -70 61 -8 73 3 82 73 7 67 -15 113 -57 113 -20 0 -35 -8 -46 -25z m82
-18 c12 -25 14 -44 7 -78 l-9 -44 -50 -3 c-80 -5 -131 49 -88 93 9 8 24 13 34
10 13 -4 21 2 28 25 16 44 57 42 78 -3z"/>
<path d="M5833 3573 c-30 -21 -29 -41 3 -49 29 -7 46 9 42 40 -4 26 -18 28
-45 9z m34 -27 c-7 -18 -16 -20 -37 -6 -13 8 -12 11 5 24 22 16 41 6 32 -18z"/>
<path d="M4827 3572 c-42 -46 8 -192 65 -192 29 0 94 37 117 66 43 54 10 124
-51 109 -17 -4 -29 0 -42 14 -24 26 -67 27 -89 3z m80 -16 c15 -18 26 -22 51
-18 59 8 80 -33 41 -82 -21 -27 -87 -66 -111 -66 -21 0 -59 65 -65 110 -10 69
45 106 84 56z"/>
<path d="M4880 3487 c0 -13 7 -30 16 -37 13 -11 19 -10 37 8 24 24 17 37 -25
47 -25 6 -28 4 -28 -18z m60 -7 c0 -13 -29 -32 -40 -25 -5 3 -10 14 -10 24 0
14 6 17 25 13 14 -2 25 -8 25 -12z"/>
<path d="M5587 3510 c-18 -14 -34 -19 -51 -14 -17 4 -30 0 -45 -15 -42 -42
-16 -102 62 -140 61 -29 73 -27 102 22 31 55 34 118 5 147 -25 25 -41 25 -73
0z m71 -12 c25 -25 -1 -140 -37 -163 -17 -10 -90 26 -116 57 -44 52 -24 95 38
85 26 -4 36 -1 45 14 14 21 52 25 70 7z"/>
<path d="M5568 3443 c-25 -6 -22 -29 4 -47 26 -19 48 -5 48 30 0 24 -12 28
-52 17z m42 -18 c0 -21 -28 -31 -43 -16 -9 9 -8 14 3 21 22 14 40 12 40 -5z"/>
<path d="M5172 3470 c-41 -39 -18 -110 54 -165 l35 -27 34 26 c18 14 43 39 54
55 23 32 28 90 9 109 -15 15 -74 16 -83 1 -5 -7 -15 -5 -31 5 -31 21 -46 20
-72 -4z m78 -15 c11 -13 14 -13 27 0 17 18 55 19 71 3 26 -26 14 -69 -32 -114
-24 -24 -48 -44 -54 -44 -19 0 -79 59 -92 90 -18 44 -1 80 39 80 16 0 34 -7
41 -15z"/>
<path d="M5224 3409 c-6 -11 22 -59 35 -59 15 0 43 39 38 53 -6 16 -64 21 -73
6z m66 -9 c0 -3 -6 -14 -13 -24 -13 -17 -14 -17 -30 -1 -24 24 -21 32 13 32
17 0 30 -3 30 -7z"/>
<path d="M4601 3686 c-19 -22 -9 -51 18 -54 39 -6 49 15 20 44 -22 22 -27 23
-38 10z m35 -21 c14 -13 14 -16 -1 -21 -19 -8 -40 10 -31 25 9 15 15 14 32 -4z"/>
<path d="M7555 3670 c-33 -36 9 -78 45 -45 25 23 25 41 1 55 -26 13 -25 13
-46 -10z m46 -6 c11 -14 10 -18 -6 -30 -16 -12 -21 -12 -34 0 -12 12 -12 18
-1 30 16 20 24 20 41 0z"/>
<path d="M7656 3594 c-20 -20 -20 -27 2 -54 21 -26 55 -21 72 11 24 44 -37 80
-74 43z m65 -10 c11 -14 10 -19 -9 -35 -13 -10 -30 -15 -37 -12 -15 5 -21 44
-8 56 12 12 40 7 54 -9z"/>
<path d="M7480 3585 c-31 -38 27 -96 65 -65 18 15 20 51 3 68 -17 17 -53 15
-68 -3z m67 -11 c8 -20 -8 -48 -30 -52 -19 -4 -39 30 -31 52 8 21 53 21 61 0z"/>
<path d="M7592 3519 c-18 -7 -23 -15 -20 -36 5 -48 78 -40 78 8 0 25 -29 39
-58 28z m43 -34 c0 -22 -31 -33 -47 -17 -17 17 -1 44 24 40 15 -2 23 -10 23
-23z"/>
<path d="M6732 2970 c24 -36 76 -130 116 -210 41 -80 71 -134 67 -120 -19 66
-158 320 -200 367 -14 16 -6 -1 17 -37z"/>
<path d="M6920 2601 c0 -6 4 -13 10 -16 6 -3 7 1 4 9 -7 18 -14 21 -14 7z"/>
<path d="M4013 3260 c-66 -40 -30 -98 65 -108 92 -8 174 35 156 82 -18 47
-160 64 -221 26z m200 -18 l22 -23 -27 -24 c-49 -42 -167 -45 -204 -4 -14 15
-16 24 -8 37 20 32 56 43 127 40 54 -3 71 -8 90 -26z"/>
<path d="M3747 3196 c-49 -18 -67 -34 -67 -61 0 -49 77 -80 186 -73 110 7 163
51 123 102 -35 44 -160 61 -242 32z m211 -20 c44 -23 44 -59 0 -83 -24 -13
-56 -18 -118 -18 -94 0 -150 20 -150 54 0 61 180 93 268 47z"/>
<path d="M2398 3549 c-30 -17 -16 -69 19 -69 21 0 35 37 23 60 -12 23 -18 24
-42 9z m32 -43 c-7 -9 -17 -16 -22 -16 -16 0 -21 30 -7 46 11 13 14 13 27 0
13 -12 13 -18 2 -30z"/>
<path d="M2503 3532 c-11 -7 -16 -26 -14 -49 2 -18 40 -26 56 -13 21 17 19 47
-4 60 -23 12 -23 12 -38 2z m37 -17 c15 -18 6 -45 -15 -45 -18 0 -30 24 -21
45 7 19 20 19 36 0z"/>
<path d="M2380 3435 c0 -8 2 -15 4 -15 2 0 6 7 10 15 3 8 1 15 -4 15 -6 0 -10
-7 -10 -15z"/>
<path d="M2426 3434 c-20 -19 -20 -38 -1 -54 16 -13 55 -5 55 12 0 6 -6 5 -16
-2 -12 -11 -18 -10 -32 3 -15 16 -15 18 1 35 17 16 19 16 33 -2 11 -16 14 -17
14 -4 0 9 -7 19 -16 22 -21 8 -20 8 -38 -10z"/>
<path d="M2515 3419 c-4 -6 -5 -13 -2 -16 7 -7 27 6 27 18 0 12 -17 12 -25 -2z"/>
<path d="M6242 3396 c-115 -38 -123 -92 -19 -126 48 -15 199 -16 254 -1 92 25
109 80 36 115 -51 25 -210 32 -271 12z m265 -22 c49 -24 50 -51 3 -78 -30 -18
-52 -21 -162 -21 -113 0 -130 2 -155 21 -15 12 -28 27 -28 34 0 20 46 49 95
60 69 14 202 5 247 -16z"/>
<path d="M5998 3220 c-90 -16 -137 -62 -103 -100 26 -29 82 -44 165 -44 122
-1 207 43 181 93 -22 40 -150 67 -243 51z m173 -22 c21 -6 46 -19 55 -30 16
-17 16 -19 -1 -38 -25 -27 -85 -42 -170 -42 -98 1 -172 33 -158 69 17 45 181
69 274 41z"/>
<path d="M3206 3353 c-6 -14 -5 -15 5 -6 7 7 10 15 7 18 -3 3 -9 -2 -12 -12z"/>
<path d="M4890 2733 c-94 -10 -159 -49 -144 -86 15 -39 153 -62 272 -46 125
17 169 52 119 95 -42 36 -132 50 -247 37z m202 -24 c81 -21 64 -69 -31 -90
-69 -15 -237 -8 -276 12 -119 58 135 123 307 78z"/>
<path d="M4747 7376 c-20 -8 -43 -19 -50 -25 -10 -8 -24 -5 -52 9 -67 34 -132
23 -181 -32 -42 -46 -48 -123 -14 -193 28 -58 136 -158 194 -180 59 -23 87
-12 173 69 80 74 116 141 116 214 0 104 -92 172 -186 138z m85 -16 c64 -18 99
-93 78 -168 -15 -59 -88 -151 -153 -196 -54 -37 -59 -39 -94 -28 -40 12 -115
69 -158 120 -36 43 -55 94 -55 148 0 41 5 51 40 86 38 38 43 40 89 36 27 -3
62 -14 78 -26 30 -21 30 -21 48 -2 15 16 52 33 85 39 3 1 22 -4 42 -9z"/>
<path d="M4790 7321 c0 -21 44 -61 66 -61 23 0 16 47 -8 64 -31 22 -58 20 -58
-3z m52 -8 c18 -16 25 -43 10 -43 -16 0 -52 32 -52 46 0 19 19 18 42 -3z"/>
<path d="M4525 7305 c-24 -23 -35 -75 -16 -75 5 0 7 9 4 20 -5 20 30 70 49 70
23 0 18 -33 -8 -61 -15 -16 -25 -29 -21 -29 13 0 57 55 57 71 0 14 -19 29 -36
29 -3 0 -16 -11 -29 -25z"/>
<path d="M5925 7290 c-11 -4 -33 -22 -49 -39 -40 -42 -48 -126 -18 -194 41
-92 164 -199 228 -199 70 0 214 124 249 214 47 124 -27 237 -148 224 -27 -3
-60 -14 -74 -24 -26 -19 -27 -19 -61 4 -36 25 -89 30 -127 14z m130 -36 l38
-25 23 22 c30 29 101 36 141 15 101 -52 98 -179 -8 -285 -59 -60 -126 -101
-163 -101 -40 0 -85 28 -143 88 -79 80 -106 179 -69 251 33 63 116 80 181 35z"/>
<path d="M5921 7224 c-45 -57 -11 -97 40 -48 34 33 35 67 3 72 -14 2 -29 -7
-43 -24z m59 2 c0 -20 -39 -66 -56 -66 -21 0 -17 31 8 57 24 26 48 30 48 9z"/>
<path d="M6195 7240 c-8 -13 11 -37 39 -51 12 -6 8 0 -9 14 -25 22 -27 26 -13
32 28 11 61 -13 55 -41 -2 -13 0 -21 4 -18 15 9 10 40 -9 57 -21 19 -57 22
-67 7z"/>
<path d="M2572 6560 c43 -23 59 -48 69 -105 6 -39 7 -39 8 -7 2 57 -38 113
-89 126 -17 5 -13 0 12 -14z"/>
<path d="M2339 6495 c-36 -19 -55 -68 -41 -100 7 -14 17 -25 23 -25 8 0 6 7
-4 18 -24 27 -21 50 12 83 35 34 49 36 85 8 52 -41 25 -133 -48 -165 -17 -7
-25 -13 -18 -14 26 0 72 31 87 60 45 87 -19 178 -96 135z"/>
<path d="M2514 6494 c-18 -14 -18 -15 4 -4 12 6 22 13 22 15 0 8 -5 6 -26 -11z"/>
<path d="M2236 6465 c-3 -9 -6 -22 -5 -28 0 -7 5 -1 10 12 5 13 8 26 5 28 -2
2 -6 -3 -10 -12z"/>
<path d="M2582 6450 c0 -14 2 -19 5 -12 2 6 2 18 0 25 -3 6 -5 1 -5 -13z"/>
<path d="M2491 6430 c-3 -38 55 -54 80 -22 13 15 12 16 -3 3 -22 -17 -65 -7
-71 17 -4 13 -5 13 -6 2z"/>
<path d="M2221 6402 c-1 -31 24 -79 50 -93 11 -6 23 -8 26 -6 2 3 -5 8 -16 12
-23 7 -41 34 -52 80 -6 25 -7 26 -8 7z"/>
<path d="M2361 6387 c-13 -21 -12 -21 5 -5 10 10 16 20 13 22 -3 3 -11 -5 -18
-17z"/>
<path d="M2410 6085 c0 -24 -5 -90 -11 -145 -17 -159 -2 -165 86 -33 31 47 52
82 46 78 -6 -3 -34 -40 -61 -81 -28 -41 -53 -74 -56 -74 -4 0 -3 68 1 150 4
83 5 150 1 150 -3 0 -6 -20 -6 -45z"/>
<path d="M8249 6053 c15 -30 14 -69 -4 -102 -16 -32 -33 -41 -76 -41 -57 0
-90 70 -52 112 9 10 11 18 5 18 -6 0 -16 -9 -22 -19 -30 -56 11 -121 75 -121
74 0 125 99 79 156 -15 18 -15 18 -5 -3z"/>
<path d="M8175 6024 c9 -10 14 -25 12 -36 -3 -10 -1 -16 4 -12 21 12 2 64 -24
64 -5 0 -1 -7 8 -16z"/>
<path d="M1935 5970 c5 -8 17 -21 27 -28 24 -17 19 -34 -13 -43 l-24 -7 26 -1
c34 -1 53 20 36 40 -21 26 -61 55 -52 39z"/>
<path d="M7381 5694 c0 -11 3 -14 6 -6 3 7 2 16 -1 19 -3 4 -6 -2 -5 -13z"/>
<path d="M7791 5663 c-25 -36 -26 -41 -6 -18 26 30 49 65 42 65 -2 0 -18 -21
-36 -47z"/>
<path d="M7156 5571 c28 -31 63 -75 79 -98 33 -50 44 -57 18 -11 -10 18 -47
62 -83 98 -45 46 -50 50 -14 11z"/>
<path d="M7727 5573 c-29 -46 -62 -111 -52 -101 10 10 84 138 79 138 -2 0 -14
-17 -27 -37z"/>
<path d="M7228 5533 c27 -32 63 -69 78 -83 15 -14 -5 12 -45 58 -41 45 -76 82
-78 82 -3 0 18 -26 45 -57z"/>
<path d="M7840 5450 c-8 -5 -10 -10 -5 -10 6 0 17 5 25 10 8 5 11 10 5 10 -5
0 -17 -5 -25 -10z"/>
<path d="M7750 5409 c-60 -33 -96 -63 -112 -94 -6 -11 5 -3 23 18 19 20 63 53
99 72 36 19 61 35 55 35 -5 0 -35 -14 -65 -31z"/>
<path d="M7280 5400 c6 -11 13 -20 16 -20 2 0 0 9 -6 20 -6 11 -13 20 -16 20
-2 0 0 -9 6 -20z"/>
<path d="M7465 5386 c-22 -34 -17 -135 8 -150 23 -15 37 7 35 54 l-1 35 -4
-35 c-3 -19 -9 -39 -14 -45 -29 -29 -41 103 -13 143 8 12 13 22 10 22 -3 0
-13 -11 -21 -24z"/>
<path d="M7526 5401 c4 -8 11 -28 15 -45 6 -29 7 -29 8 -5 1 14 -6 34 -15 45
-8 10 -12 13 -8 5z"/>
<path d="M7412 5325 c-1 -72 18 -127 51 -145 25 -14 28 -13 53 11 18 18 27 40
29 70 l4 44 -9 -45 c-12 -53 -39 -85 -68 -76 -26 9 -43 52 -52 129 l-7 62 -1
-50z"/>
<path d="M7477 5291 c-4 -17 -3 -21 5 -13 5 5 8 16 6 23 -3 8 -7 3 -11 -10z"/>
<path d="M7616 5275 c-3 -9 -6 -22 -5 -28 0 -7 5 -1 10 12 5 13 8 26 5 28 -2
2 -6 -3 -10 -12z"/>
<path d="M7361 5233 c10 -20 19 -44 19 -52 0 -8 3 -12 6 -8 9 8 -14 73 -31 87
-8 7 -6 -3 6 -27z"/>
<path d="M7601 5214 c0 -11 3 -14 6 -6 3 7 2 16 -1 19 -3 4 -6 -2 -5 -13z"/>
<path d="M7593 5120 c0 -30 2 -43 4 -27 2 15 2 39 0 55 -2 15 -4 2 -4 -28z"/>
<path d="M7391 5144 c0 -11 3 -14 6 -6 3 7 2 16 -1 19 -3 4 -6 -2 -5 -13z"/>
<path d="M7401 5090 c-1 -19 -6 -53 -11 -75 -5 -22 -11 -83 -14 -135 -2 -52
-2 -79 0 -60 2 19 11 90 20 156 9 67 14 128 11 135 -3 8 -6 -2 -6 -21z"/>
<path d="M7488 5080 c9 -11 23 -37 30 -58 l12 -37 -5 34 c-6 38 -30 81 -45 81
-5 0 -2 -9 8 -20z"/>
<path d="M7593 5020 c0 -25 2 -35 4 -22 2 12 2 32 0 45 -2 12 -4 2 -4 -23z"/>
<path d="M7342 5010 c0 -14 2 -19 5 -12 2 6 2 18 0 25 -3 6 -5 1 -5 -13z"/>
<path d="M7437 4985 c-9 -9 -17 -24 -17 -33 0 -12 4 -9 13 8 17 34 30 31 44
-10 8 -25 12 -29 12 -14 1 12 -7 32 -17 44 -17 21 -19 21 -35 5z"/>
<path d="M7331 4964 c0 -11 3 -14 6 -6 3 7 2 16 -1 19 -3 4 -6 -2 -5 -13z"/>
<path d="M7533 4940 c0 -25 2 -35 4 -22 2 12 2 32 0 45 -2 12 -4 2 -4 -23z"/>
<path d="M7315 4910 c-4 -17 -5 -34 -2 -36 2 -3 7 10 11 27 8 42 0 50 -9 9z"/>
<path d="M7413 4870 c0 -36 2 -50 4 -32 2 17 2 47 0 65 -2 17 -4 3 -4 -33z"/>
<path d="M7447 4913 c-10 -9 -9 -93 1 -93 4 0 7 23 7 50 0 28 0 50 -1 50 0 0
-4 -3 -7 -7z"/>
<path d="M7493 4870 c0 -25 2 -35 4 -22 2 12 2 32 0 45 -2 12 -4 2 -4 -23z"/>
<path d="M7603 4870 c0 -25 2 -35 4 -22 2 12 2 32 0 45 -2 12 -4 2 -4 -23z"/>
<path d="M7532 4829 c-1 -26 -4 -62 -7 -80 l-5 -34 11 33 c5 19 8 55 6 80 l-3
47 -2 -46z"/>
<path d="M7303 4790 c0 -30 2 -43 4 -27 2 15 2 39 0 55 -2 15 -4 2 -4 -28z"/>
<path d="M7482 4800 c0 -14 2 -19 5 -12 2 6 2 18 0 25 -3 6 -5 1 -5 -13z"/>
<path d="M7613 4765 c0 -27 2 -38 4 -22 2 15 2 37 0 50 -2 12 -4 0 -4 -28z"/>
<path d="M7382 4755 c0 -16 2 -22 5 -12 2 9 2 23 0 30 -3 6 -5 -1 -5 -18z"/>
<path d="M7465 4759 c-4 -6 -14 -8 -22 -5 -8 3 -11 1 -8 -4 9 -15 32 -12 39 5
6 17 0 20 -9 4z"/>
<path d="M7311 4714 c0 -11 3 -14 6 -6 3 7 2 16 -1 19 -3 4 -6 -2 -5 -13z"/>
<path d="M7390 4717 c0 -17 31 -67 43 -67 8 0 9 3 1 8 -6 4 -18 21 -27 37 -9
17 -16 26 -17 22z"/>
<path d="M7488 4679 c-15 -16 -23 -29 -18 -29 11 0 50 41 50 52 0 11 -1 10
-32 -23z"/>
<path d="M7622 4670 c0 -14 2 -19 5 -12 2 6 2 18 0 25 -3 6 -5 1 -5 -13z"/>
<path d="M7331 4660 c-1 -3 13 -39 30 -80 16 -41 27 -63 24 -48 -5 27 -53 138
-54 128z"/>
<path d="M7397 4425 c3 -44 7 -82 9 -84 7 -8 3 84 -6 124 -6 29 -7 17 -3 -40z"/>
<path d="M7545 4450 c-3 -5 0 -7 9 -4 9 4 20 -5 30 -23 8 -15 15 -23 16 -18 0
14 -29 55 -40 55 -5 0 -12 -4 -15 -10z"/>
<path d="M7523 4325 c0 -33 2 -45 4 -27 2 18 2 45 0 60 -2 15 -4 0 -4 -33z"/>
<path d="M8002 4368 c-20 -20 -14 -62 17 -110 39 -61 66 -76 93 -51 39 34 78
96 78 123 0 49 -50 68 -84 31 -17 -19 -18 -19 -37 0 -22 22 -49 25 -67 7z m61
-22 l23 -24 21 24 c46 52 96 6 58 -54 -26 -40 -67 -82 -81 -82 -19 0 -72 69
-79 102 -7 28 7 58 27 58 5 0 19 -11 31 -24z"/>
<path d="M7332 4350 c0 -14 2 -19 5 -12 2 6 2 18 0 25 -3 6 -5 1 -5 -13z"/>
<path d="M2575 4293 c-3 -38 -13 -99 -22 -136 -18 -84 -13 -96 11 -21 12 39
32 71 65 105 88 91 98 49 16 -70 -31 -45 -52 -81 -48 -81 5 0 17 13 27 29 11
16 34 36 50 45 23 12 25 15 8 10 l-23 -6 24 39 c14 21 28 48 32 61 15 51 -61
31 -110 -30 l-26 -33 7 78 c3 42 4 77 1 77 -2 0 -8 -30 -12 -67z"/>
<path d="M7611 4354 c-3 -46 77 -236 119 -284 l22 -25 -20 30 c-37 56 -65 120
-93 205 -15 47 -28 80 -28 74z"/>
<path d="M7318 4305 c-3 -11 -9 -29 -13 -40 -3 -11 1 -7 10 8 9 16 15 33 12
40 -2 6 -6 3 -9 -8z"/>
<path d="M7391 4284 c0 -11 3 -14 6 -6 3 7 2 16 -1 19 -3 4 -6 -2 -5 -13z"/>
<path d="M7331 4147 c-23 -45 -38 -77 -33 -72 15 14 85 145 81 150 -2 2 -24
-34 -48 -78z"/>
<path d="M7270 4200 c-6 -11 -8 -20 -6 -20 3 0 10 9 16 20 6 11 8 20 6 20 -3
0 -10 -9 -16 -20z"/>
<path d="M7513 4170 c0 -30 2 -43 4 -27 2 15 2 39 0 55 -2 15 -4 2 -4 -28z"/>
<path d="M7700 4204 c8 -10 30 -37 50 -59 19 -22 46 -53 58 -70 13 -16 20 -23
16 -15 -10 21 -114 149 -128 157 -6 4 -4 -2 4 -13z"/>
<path d="M2717 4171 c3 -13 -8 -32 -37 -60 -52 -51 -45 -54 10 -5 38 35 51 66
31 78 -5 4 -7 -3 -4 -13z"/>
<path d="M7240 4150 c-6 -11 -8 -20 -6 -20 3 0 10 9 16 20 6 11 8 20 6 20 -3
0 -10 -9 -16 -20z"/>
<path d="M7210 4100 c-6 -11 -8 -20 -6 -20 3 0 10 9 16 20 6 11 8 20 6 20 -3
0 -10 -9 -16 -20z"/>
<path d="M7501 4074 c0 -11 3 -14 6 -6 3 7 2 16 -1 19 -3 4 -6 -2 -5 -13z"/>
<path d="M7175 4040 c-9 -16 -13 -30 -11 -30 3 0 12 14 21 30 9 17 13 30 11
30 -3 0 -12 -13 -21 -30z"/>
<path d="M3548 3793 c23 -2 59 -2 80 0 20 2 1 4 -43 4 -44 0 -61 -2 -37 -4z"/>
<path d="M3733 3783 c26 -2 68 -2 95 0 26 2 4 3 -48 3 -52 0 -74 -1 -47 -3z"/>
<path d="M3980 3770 c52 -4 122 -8 155 -7 53 0 50 1 -25 8 -47 4 -116 7 -155
6 -66 0 -65 -1 25 -7z"/>
<path d="M4238 3753 c17 -2 47 -2 65 0 17 2 3 4 -33 4 -36 0 -50 -2 -32 -4z"/>
</g>
</svg>
