<?xml version="1.0" standalone="no"?>
<!DOCTYPE svg PUBLIC "-//W3C//DTD SVG 20010904//EN"
 "http://www.w3.org/TR/2001/REC-SVG-20010904/DTD/svg10.dtd">
<svg version="1.0" xmlns="http://www.w3.org/2000/svg"
 width="1024.000000pt" height="1024.000000pt" viewBox="0 0 1024.000000 1024.000000"
 preserveAspectRatio="xMidYMid meet">
<metadata>
Created by potrace 1.16, written by Peter Selinger 2001-2019
</metadata>
<g transform="translate(0.000000,1024.000000) scale(0.100000,-0.100000)"
fill="#000000" stroke="none">
<path d="M4823 8589 c-270 -26 -519 -113 -713 -250 -89 -63 -205 -177 -278
-274 -81 -107 -167 -289 -198 -420 -15 -60 -28 -116 -30 -122 -2 -9 -33 -13
-107 -13 -115 0 -190 -16 -285 -60 -173 -81 -302 -243 -348 -438 -16 -65 -16
-254 -1 -292 5 -11 -24 -30 -115 -74 -107 -52 -132 -69 -204 -140 -121 -121
-174 -241 -174 -401 0 -256 154 -440 435 -523 426 -126 1054 -133 1436 -16
l85 26 128 -46 c282 -103 521 -141 821 -133 278 7 446 45 632 142 l103 53 138
-28 c228 -46 412 -64 657 -64 319 0 516 35 700 125 144 70 234 172 277 312 26
87 22 227 -9 297 -25 56 -87 131 -140 170 l-41 30 20 63 c22 72 26 196 8 272
-58 239 -279 425 -506 425 l-51 0 -6 68 c-17 173 -74 302 -185 412 -179 178
-429 234 -697 155 -17 -5 -25 4 -49 61 -73 166 -235 360 -386 461 -277 185
-569 256 -917 222z m417 -65 c295 -60 556 -218 720 -436 53 -70 150 -247 150
-273 0 -6 -21 -21 -47 -35 -51 -27 -171 -136 -160 -146 3 -3 30 14 58 39 109
95 241 146 399 154 192 9 342 -43 470 -163 107 -101 164 -227 176 -390 l7 -81
-43 -7 c-43 -7 -126 -44 -117 -52 3 -3 31 3 63 12 164 49 380 2 500 -108 107
-99 166 -232 166 -378 -1 -137 -44 -246 -143 -354 -28 -31 -47 -56 -42 -56 20
0 94 64 129 111 41 56 35 57 118 -20 28 -27 61 -72 77 -106 52 -108 35 -266
-43 -388 -166 -260 -783 -354 -1478 -226 -63 12 -121 25 -128 28 -8 5 6 23 44
56 56 48 144 157 144 178 0 6 -39 -28 -87 -75 -261 -254 -577 -360 -1036 -345
-197 6 -371 34 -563 92 -152 46 -352 126 -428 171 -58 35 -91 39 -46 6 31 -23
139 -90 153 -95 21 -7 4 -15 -78 -36 -449 -115 -1141 -75 -1483 84 -185 87
-272 226 -272 435 0 213 151 402 408 513 l62 27 24 -53 c24 -53 84 -142 91
-135 3 2 -13 40 -35 84 -102 205 -93 455 23 637 110 172 294 270 507 271 107
0 183 -18 269 -65 30 -16 56 -27 58 -25 9 8 -75 67 -125 88 l-54 22 7 45 c23
153 113 363 215 500 223 301 537 467 965 510 113 12 307 4 405 -15z"/>
<path d="M4210 7167 c-89 -30 -155 -71 -218 -133 -55 -55 -112 -160 -112 -204
1 -19 10 -8 38 45 97 182 309 298 515 282 40 -3 99 -15 131 -26 70 -25 87 -26
60 -6 -10 8 -54 26 -97 40 -104 33 -224 34 -317 2z"/>
<path d="M5603 7075 c-57 -16 -133 -53 -173 -84 -38 -30 -16 -36 27 -7 90 62
266 85 384 50 117 -35 234 -116 292 -203 28 -42 30 -15 3 32 -100 171 -337
264 -533 212z"/>
<path d="M4240 5382 c-53 -43 -12 -157 72 -206 l37 -21 27 21 c83 62 117 153
74 199 -26 28 -71 33 -90 10 -11 -13 -15 -13 -41 0 -37 20 -52 19 -79 -3z
m184 -28 c9 -8 16 -20 16 -25 0 -24 -31 -77 -62 -107 l-35 -33 -26 21 c-66 52
-88 142 -36 148 15 2 32 -5 43 -17 l19 -21 23 25 c27 29 37 31 58 9z"/>
<path d="M6162 5390 c-31 -13 -46 -51 -38 -95 8 -40 63 -108 108 -131 27 -14
29 -13 77 33 61 59 80 116 56 163 -19 37 -58 48 -95 27 -15 -9 -31 -12 -36 -8
-16 15 -48 20 -72 11z m65 -52 l23 -22 16 23 c11 15 24 21 42 19 51 -6 39 -78
-24 -139 l-34 -33 -36 35 c-47 44 -68 92 -54 119 14 26 38 25 67 -2z"/>
<path d="M6674 5356 c-14 -10 -19 -26 -19 -58 0 -51 31 -106 82 -145 l35 -27
36 20 c81 47 122 154 78 203 -21 23 -74 29 -93 10 -8 -8 -17 -8 -31 0 -28 15
-64 14 -88 -3z m79 -40 l22 -25 28 27 c37 35 63 21 61 -33 -1 -29 -10 -46 -43
-78 l-41 -41 -27 20 c-52 39 -83 113 -58 138 22 22 33 20 58 -8z"/>
<path d="M3541 5344 c-50 -36 -7 -156 73 -205 17 -10 34 -19 38 -19 14 0 89
73 104 101 20 40 18 102 -4 122 -23 21 -70 22 -92 2 -15 -14 -18 -14 -30 0
-16 20 -60 19 -89 -1z m83 -40 l24 -27 17 27 c31 48 85 18 71 -38 -4 -15 -24
-46 -46 -69 l-39 -42 -28 21 c-34 26 -73 81 -73 105 0 18 25 49 40 49 5 0 20
-12 34 -26z"/>
<path d="M5015 5295 c-14 -13 -25 -36 -25 -50 0 -51 56 -132 113 -161 27 -14
29 -13 76 34 78 78 87 165 20 192 -24 10 -33 10 -54 -4 -23 -15 -28 -15 -47
-1 -32 21 -55 19 -83 -10z m85 -37 l21 -23 18 23 c23 31 65 27 69 -6 5 -34
-14 -74 -54 -113 l-34 -33 -36 35 c-47 44 -68 92 -54 119 14 26 44 25 70 -2z"/>
<path d="M5705 5085 c-15 -14 -25 -36 -25 -53 0 -55 88 -162 134 -162 28 0
104 85 117 130 11 35 10 46 -2 68 -21 38 -63 51 -98 31 -24 -14 -30 -14 -46
-3 -28 20 -53 17 -80 -11z m80 -30 l25 -24 25 25 c20 20 28 23 45 14 36 -19
24 -77 -28 -132 -35 -38 -54 -35 -95 13 -41 47 -50 81 -30 109 18 26 29 25 58
-5z"/>
<path d="M3853 5055 c-51 -36 -29 -134 45 -195 49 -40 72 -38 121 11 71 71 79
155 18 189 -25 14 -30 13 -56 -1 -24 -14 -32 -14 -52 -3 -32 17 -50 17 -76 -1z
m81 -47 l16 -22 23 22 c27 26 50 28 67 7 18 -21 -4 -79 -47 -121 l-34 -35 -31
22 c-51 37 -86 117 -61 142 14 15 53 6 67 -15z"/>
<path d="M4596 4908 c-37 -53 -4 -143 73 -197 31 -22 32 -22 63 -4 81 47 124
157 79 202 -23 23 -70 28 -89 9 -10 -10 -17 -10 -32 0 -32 20 -77 15 -94 -10z
m89 -34 c23 -25 24 -25 34 -5 28 51 89 29 77 -27 -8 -33 -71 -112 -90 -112
-14 0 -69 56 -85 87 -14 28 -14 56 1 71 18 18 37 14 63 -14z"/>
<path d="M6393 4775 c-34 -24 -39 -73 -13 -132 29 -69 70 -108 105 -99 36 9
120 94 129 130 16 65 -34 112 -96 88 -15 -5 -28 -7 -28 -3 0 9 -45 31 -63 31
-7 0 -22 -7 -34 -15z m82 -51 l17 -26 23 22 c33 31 59 23 63 -18 3 -28 -4 -40
-41 -78 -24 -24 -52 -44 -61 -44 -26 0 -76 78 -76 120 0 20 3 40 7 43 15 16
52 5 68 -19z"/>
<path d="M5480 4747 c-33 -17 -47 -67 -29 -109 17 -42 64 -95 102 -114 29 -16
29 -16 83 39 60 63 77 113 53 156 -18 32 -59 43 -93 26 -22 -12 -30 -12 -53 1
-34 17 -32 17 -63 1z m67 -49 l23 -21 24 22 c58 55 90 -18 40 -91 -46 -66 -61
-68 -111 -15 -33 36 -43 53 -43 80 0 53 26 63 67 25z"/>
<path d="M4169 4601 c-50 -41 -14 -152 65 -200 44 -27 64 -22 110 29 66 73 71
155 10 182 -21 10 -31 9 -53 -3 -24 -14 -30 -14 -46 -3 -26 19 -59 17 -86 -5z
m80 -37 c27 -22 32 -23 37 -10 10 26 43 40 60 25 27 -22 17 -73 -24 -119 -46
-52 -68 -49 -113 12 -30 43 -37 86 -17 106 17 17 22 15 57 -14z"/>
<path d="M6246 4535 c-29 -19 -41 -23 -56 -15 -10 5 -40 10 -65 10 -40 0 -52
-5 -82 -35 -34 -34 -35 -38 -30 -88 3 -28 8 -62 12 -74 7 -21 4 -23 -26 -23
-19 0 -77 -9 -129 -20 -87 -18 -96 -18 -112 -3 -13 12 -29 14 -62 10 -32 -5
-47 -2 -56 8 -21 25 -76 19 -99 -11 -23 -29 -26 -59 -12 -98 9 -23 4 -29 -76
-87 -97 -70 -193 -162 -193 -184 0 -17 35 -21 45 -5 10 16 96 -34 159 -91 86
-79 144 -191 115 -225 -18 -21 5 -43 29 -28 36 23 160 -33 229 -103 56 -58 93
-129 86 -166 -6 -29 5 -34 38 -17 11 6 24 8 29 5 10 -6 -227 -335 -279 -385
-20 -19 -57 -63 -84 -97 -36 -48 -53 -63 -72 -63 -34 0 -41 23 -20 69 23 52
17 92 -17 111 -25 13 -31 13 -55 0 -43 -24 -76 -92 -76 -156 0 -164 196 -225
314 -97 49 52 119 155 119 174 0 10 66 109 147 218 164 224 146 213 232 143
63 -51 104 -118 96 -159 -7 -39 9 -51 36 -27 65 59 327 -114 305 -202 -8 -32
21 -46 41 -19 12 17 18 18 69 7 96 -20 167 -79 145 -119 -6 -12 -6 -25 -1 -34
34 -54 146 178 196 406 12 57 17 123 17 230 0 129 -4 164 -27 250 -43 164
-120 309 -235 442 l-61 71 25 38 c14 20 25 46 25 57 0 11 18 39 39 62 70 76
76 162 14 186 -21 8 -35 7 -59 -5 -21 -9 -35 -11 -41 -5 -17 17 -72 13 -93 -6
-36 -32 -22 -106 31 -161 l29 -30 -33 -32 -34 -33 -71 44 c-39 24 -105 57
-147 73 -41 16 -75 32 -75 37 0 4 9 25 20 46 45 88 32 172 -32 211 -44 27 -88
25 -132 -5z m124 -35 c11 -11 22 -30 25 -43 13 -52 -35 -155 -104 -224 l-32
-33 -38 19 c-101 52 -171 132 -171 197 0 70 90 99 146 48 21 -20 29 -23 33
-13 2 8 17 26 32 41 33 34 80 37 109 8z m408 -152 l23 -23 18 24 c12 15 25 22
42 19 44 -6 38 -66 -12 -123 -17 -19 -39 -35 -49 -35 -22 0 -87 71 -96 105 -7
28 10 55 34 55 9 0 26 -10 40 -22z m-1149 -84 c20 -25 21 -25 49 -8 91 53 79
-69 -12 -125 -18 -12 -36 -21 -40 -21 -15 0 -66 96 -66 125 0 57 36 72 69 29z
m498 -31 c27 -20 67 -45 90 -55 48 -21 61 -18 107 30 l28 30 52 -18 c62 -21
146 -60 200 -94 l39 -24 -55 -16 c-177 -51 -376 -177 -596 -375 -58 -52 -107
-90 -109 -84 -3 7 -21 38 -42 70 -81 125 -238 232 -400 271 l-73 18 43 35 c24
20 69 52 99 72 l54 37 26 -25 c14 -14 35 -25 46 -25 33 1 111 66 125 105 14
38 26 44 159 70 117 24 154 20 207 -22z m654 -102 c-15 -27 -39 -44 -51 -36
-8 5 -2 17 16 36 29 30 51 30 35 0z m-86 -71 c17 -19 17 -24 1 -106 -34 -174
-166 -450 -318 -663 -20 -29 -19 -30 -48 29 -13 25 -55 77 -94 115 -80 79
-170 129 -266 148 l-60 13 73 70 c182 179 398 322 581 385 97 34 108 35 131 9z
m186 -197 c27 -39 68 -110 90 -157 41 -84 41 -85 40 -198 -1 -114 -13 -228
-32 -303 -30 -116 -113 -335 -128 -335 -4 0 -12 15 -19 33 -18 48 -94 141
-160 192 -69 55 -200 123 -253 131 -22 4 -39 9 -39 12 0 3 26 46 59 96 90 140
166 281 210 391 42 106 81 242 81 284 0 24 3 22 50 -24 28 -28 73 -82 101
-122z m-1410 58 c30 -10 77 -30 104 -44 54 -27 175 -114 174 -125 0 -4 -26
-28 -58 -54 l-57 -47 -29 62 c-27 59 -125 171 -185 210 -33 21 -15 21 51 -2z
m353 -271 c21 -38 26 -58 21 -80 -5 -23 -3 -30 9 -30 8 0 18 5 22 11 4 7 21 8
43 5 54 -10 162 -49 159 -58 -2 -4 -28 -37 -58 -72 l-55 -65 -28 50 c-42 73
-121 147 -191 180 -33 16 -69 29 -78 29 -28 0 -21 12 40 62 66 53 70 52 116
-32z m265 -246 c-43 -54 -56 -64 -82 -64 l-30 0 24 28 c80 92 113 121 125 111
10 -8 2 -25 -37 -75z m970 -110 c1 -155 -35 -331 -101 -486 -18 -43 -38 -63
-38 -39 0 5 -11 23 -25 39 l-25 30 35 77 c69 152 112 310 131 480 6 58 9 65
15 40 4 -16 7 -80 8 -141z m-986 -17 c-63 -84 -153 -205 -200 -269 -46 -65
-89 -118 -95 -118 -17 0 -5 20 156 243 211 293 229 316 243 305 8 -6 -23 -54
-104 -161z m221 18 c22 -41 26 -61 21 -89 -8 -39 -1 -45 26 -20 10 9 25 14 34
10 14 -5 13 -10 -5 -46 -11 -22 -24 -40 -28 -40 -5 0 -18 17 -30 38 -23 42
-79 98 -134 133 l-36 25 35 48 35 48 28 -27 c15 -14 39 -50 54 -80z m243 -161
c35 -19 90 -57 123 -85 l59 -49 -13 -43 c-24 -80 -27 -82 -66 -30 -49 66 -128
118 -210 139 l-68 18 27 48 c24 45 29 48 55 43 16 -3 58 -21 93 -41z m245
-230 c15 -27 28 -51 28 -54 0 -3 -25 -1 -55 4 -31 6 -53 15 -51 21 3 5 10 27
17 48 7 21 17 36 23 34 6 -2 23 -26 38 -53z m-1275 -15 c9 -9 7 -21 -8 -50
-31 -62 -21 -111 27 -129 44 -17 87 11 149 94 48 66 58 75 75 66 32 -17 31
-26 -7 -76 -82 -111 -126 -144 -188 -144 -116 0 -168 140 -87 233 18 20 24 21
39 6z"/>
<path d="M6660 3512 c-35 -36 -45 -85 -31 -151 13 -63 49 -141 68 -148 23 -9
142 25 191 53 75 44 92 129 35 174 -14 11 -39 20 -55 20 -21 0 -39 11 -67 40
-49 51 -97 55 -141 12z m104 -23 c18 -14 26 -30 26 -51 0 -23 4 -29 16 -24 67
26 114 8 114 -45 0 -39 -36 -72 -104 -97 -103 -38 -104 -38 -128 15 -11 26
-23 75 -26 109 -4 57 -2 64 21 88 32 31 46 32 81 5z"/>
<path d="M4930 4460 c-42 -42 -14 -136 59 -197 36 -31 55 -29 102 14 49 44 69
81 69 127 0 58 -57 93 -103 63 -20 -13 -26 -13 -42 -1 -27 20 -62 17 -85 -6z
m80 -35 l23 -24 29 24 c32 27 55 24 64 -10 7 -29 -8 -59 -54 -107 -42 -45 -58
-40 -103 30 -31 49 -36 81 -17 100 18 18 32 15 58 -13z"/>
<path d="M3542 4400 c-60 -25 -48 -118 24 -187 56 -55 80 -55 133 -2 71 71 79
158 18 187 -23 11 -32 11 -57 -2 -26 -13 -34 -13 -58 0 -31 16 -29 16 -60 4z
m72 -52 l16 -22 23 22 c29 27 53 28 67 2 14 -27 -7 -75 -54 -119 l-36 -35 -45
47 c-35 37 -45 55 -45 81 0 18 3 36 7 39 14 15 53 6 67 -15z"/>
<path d="M4542 4110 c-30 -13 -46 -51 -38 -93 7 -39 65 -111 107 -133 28 -14
30 -13 72 26 74 67 94 141 51 184 -17 18 -75 21 -90 6 -7 -7 -20 -6 -40 5 -33
17 -31 17 -62 5z m65 -52 l23 -21 24 22 c35 33 60 24 64 -22 3 -32 -3 -43 -42
-84 l-46 -48 -45 47 c-35 37 -45 54 -45 81 0 53 26 63 67 25z"/>
<path d="M4067 3792 c-21 -23 -22 -84 -2 -121 16 -31 92 -101 110 -101 20 0
86 62 105 101 26 49 25 94 0 119 -22 22 -70 26 -88 8 -10 -10 -17 -10 -32 0
-29 18 -74 15 -93 -6z m86 -36 l23 -24 21 24 c25 28 36 30 58 8 21 -22 13 -58
-24 -103 -45 -57 -56 -60 -92 -26 -53 51 -73 107 -47 133 18 18 37 15 61 -12z"/>
<path d="M4926 3608 c-41 -58 5 -153 96 -203 27 -15 29 -14 68 22 71 63 94
140 55 183 -20 22 -74 27 -92 9 -8 -8 -17 -8 -31 0 -35 19 -79 13 -96 -11z
m90 -29 l22 -21 22 22 c41 41 81 13 66 -46 -6 -24 -72 -104 -85 -104 -15 0
-75 67 -88 98 -25 60 17 95 63 51z"/>
<path d="M3476 3384 c-40 -39 -20 -119 44 -181 47 -46 65 -49 105 -19 76 59
108 153 66 195 -24 24 -73 28 -91 6 -11 -13 -15 -13 -33 0 -28 20 -71 19 -91
-1z m86 -39 l21 -24 23 24 c26 28 46 32 64 10 18 -22 3 -69 -39 -117 -36 -40
-40 -42 -62 -30 -39 21 -79 82 -79 118 0 49 37 59 72 19z"/>
<path d="M5497 3362 c-41 -45 -9 -139 65 -193 37 -26 42 -27 67 -15 80 42 130
167 83 209 -21 19 -73 22 -89 6 -8 -8 -17 -8 -31 0 -31 17 -77 13 -95 -7z m90
-34 l23 -22 20 22 c24 26 43 28 60 7 18 -22 3 -69 -39 -116 -33 -38 -39 -41
-59 -30 -31 16 -82 89 -82 116 0 46 40 58 77 23z"/>
<path d="M4470 3230 c-29 -29 -26 -88 6 -136 32 -48 73 -83 97 -84 51 -1 127
97 127 163 0 59 -61 95 -105 63 -17 -12 -22 -12 -39 0 -29 20 -63 17 -86 -6z
m86 -42 c20 -18 21 -18 39 2 26 29 63 26 71 -5 7 -30 -33 -104 -70 -129 -25
-16 -26 -16 -66 25 -47 49 -63 105 -35 125 19 14 28 12 61 -18z"/>
<path d="M7339 3081 c-18 -15 -28 -16 -46 -8 -48 21 -103 -32 -89 -86 13 -55
102 -127 156 -127 25 0 76 69 91 123 23 87 -48 150 -112 98z m69 -23 c18 -18
15 -64 -7 -107 -33 -64 -46 -69 -93 -35 -61 43 -83 76 -69 103 14 25 53 28 71
6 15 -18 30 -20 30 -3 0 15 30 48 45 48 6 0 16 -5 23 -12z"/>
<path d="M3960 2870 c-25 -25 -26 -70 0 -119 22 -44 86 -101 113 -101 26 0
102 81 117 124 15 47 7 81 -26 103 -22 14 -31 15 -60 4 -24 -9 -39 -9 -53 -2
-31 17 -69 13 -91 -9z m87 -36 l25 -25 15 21 c23 32 67 24 71 -13 4 -35 -38
-103 -75 -120 -24 -11 -29 -8 -64 32 -44 50 -56 104 -26 123 19 12 26 10 54
-18z"/>
<path d="M6125 2775 c-29 -28 -32 -63 -9 -111 19 -40 90 -104 114 -104 43 0
130 109 130 162 0 35 -40 78 -72 78 -13 0 -31 -7 -42 -15 -16 -12 -21 -12 -40
0 -30 21 -53 18 -81 -10z m82 -31 l26 -26 17 22 c11 14 25 21 41 18 44 -6 38
-66 -12 -123 -17 -19 -39 -35 -49 -35 -21 0 -77 60 -91 97 -7 19 -6 32 6 49
20 30 30 30 62 -2z"/>
<path d="M4960 2773 c-40 -14 -53 -79 -25 -132 18 -36 93 -101 116 -101 20 0
96 80 109 116 16 40 12 82 -10 104 -24 24 -67 26 -91 4 -16 -15 -20 -15 -41 0
-23 17 -33 18 -58 9z m171 -46 c7 -15 7 -31 0 -49 -12 -32 -69 -98 -85 -98
-17 0 -83 71 -91 98 -16 55 32 84 70 42 18 -20 18 -20 41 5 29 31 51 32 65 2z"/>
<path d="M6984 2668 c-26 -12 -44 -48 -44 -86 1 -36 33 -106 64 -137 25 -25
27 -25 61 -10 75 31 125 87 125 141 0 41 -29 66 -72 63 -24 -2 -43 4 -63 19
-31 24 -40 26 -71 10z m68 -58 c10 -30 11 -30 34 -15 49 32 85 6 64 -45 -11
-26 -90 -90 -112 -90 -4 0 -17 15 -28 33 -47 76 -44 147 5 147 20 0 29 -7 37
-30z"/>
<path d="M6407 2440 c-14 -11 -32 -36 -38 -55 -10 -27 -17 -33 -33 -30 -12 2
-133 9 -271 15 -137 6 -383 18 -545 26 -373 18 -802 18 -1040 -1 -339 -26
-444 -34 -620 -45 -623 -39 -1080 -147 -1080 -256 0 -38 11 -54 51 -74 117
-60 337 -92 874 -125 138 -8 300 -20 360 -26 171 -16 305 -47 305 -71 0 -13
-89 -51 -195 -83 -292 -89 -308 -185 -40 -240 285 -58 1127 -82 1580 -45 384
32 625 100 625 175 0 47 -55 74 -268 130 -250 66 -258 70 -169 98 123 38 319
59 707 77 530 24 905 81 1010 153 43 29 54 48 47 78 -18 70 -202 117 -638 164
l-237 25 -36 36 c-36 36 -38 37 -101 32 -48 -4 -65 -2 -69 8 -3 8 -20 23 -38
34 -43 26 -107 26 -141 0z m137 -51 c14 -17 26 -39 26 -50 0 -24 12 -24 34 0
26 28 69 35 104 17 48 -25 56 -76 22 -132 -23 -36 -104 -94 -170 -120 l-43
-17 -28 34 c-115 137 -119 299 -8 299 29 0 43 -7 63 -31z m-1278 -19 c254 -13
1058 -50 1077 -50 8 0 17 -13 20 -32 3 -18 8 -40 12 -49 6 -15 -7 -18 -102
-24 -413 -25 -591 -76 -518 -148 93 -94 888 -124 1295 -51 195 35 224 101 65
145 -37 10 -130 26 -206 36 -124 16 -137 19 -128 34 5 10 9 28 9 40 0 21 2 21
73 15 231 -22 456 -51 555 -71 112 -24 222 -65 222 -84 0 -20 -55 -52 -134
-77 -165 -52 -448 -87 -843 -104 -526 -23 -794 -60 -847 -118 -39 -44 14 -72
247 -133 151 -39 243 -75 241 -94 -2 -36 -200 -94 -414 -120 -486 -58 -1466
-42 -1777 30 -80 19 -133 43 -133 60 0 29 81 68 251 120 111 35 163 64 167 94
12 79 -124 108 -653 141 -590 36 -782 62 -897 121 -47 24 -48 41 -5 72 115 87
557 165 1112 197 99 6 263 17 365 26 385 33 638 39 946 24z m1159 -222 c51
-79 76 -99 110 -92 48 10 142 61 185 100 l39 36 139 -16 c150 -18 265 -45 289
-69 14 -13 13 -17 -10 -31 -34 -23 -196 -52 -365 -67 -190 -16 -687 -6 -836
16 -119 18 -216 49 -216 70 0 21 98 53 217 69 133 19 169 22 309 24 l111 2 28
-42z"/>
<path d="M3420 2203 c-137 -10 -264 -43 -280 -74 -14 -25 15 -54 67 -68 113
-32 363 -47 527 -32 192 18 266 42 266 86 0 43 -77 68 -261 85 -108 9 -220 11
-319 3z m273 -23 c255 -19 354 -57 240 -93 -74 -24 -95 -27 -227 -37 -79 -6
-174 -6 -260 0 -257 19 -358 59 -233 94 82 23 115 28 222 36 55 4 105 8 110 8
6 1 72 -3 148 -8z"/>
<path d="M5000 1824 c-108 -10 -171 -27 -188 -49 -14 -17 -32 -24 -82 -30 -92
-10 -233 -41 -268 -59 -54 -28 -51 -66 7 -95 94 -48 340 -75 691 -75 369 0
640 36 695 91 46 45 -23 93 -173 121 -70 13 -91 21 -98 36 -12 26 -70 43 -196
56 -92 9 -305 11 -388 4z m465 -35 c87 -15 95 -18 95 -39 0 -12 9 -21 23 -24
12 -3 57 -12 101 -21 93 -18 169 -49 164 -67 -11 -36 -144 -70 -351 -89 -176
-16 -696 -7 -836 16 -116 18 -211 50 -211 69 0 34 80 61 247 83 111 16 126 20
133 39 9 22 65 36 190 48 75 7 382 -3 445 -15z"/>
<path d="M4821 1697 c-49 -13 -73 -39 -54 -58 28 -28 131 -41 356 -46 318 -7
494 16 485 64 -4 22 -54 39 -137 49 -43 5 -61 3 -61 -5 0 -6 13 -11 30 -11 37
0 132 -20 143 -30 5 -4 -6 -13 -25 -19 -66 -21 -176 -31 -370 -31 -201 0 -328
11 -383 35 l-30 13 28 11 c16 6 60 14 98 17 38 4 72 11 75 15 8 13 -103 9
-155 -4z"/>
<path d="M6630 1829 c-123 -20 -179 -53 -164 -94 31 -79 434 -109 585 -43 49
21 70 52 54 79 -33 53 -303 86 -475 58z m290 -20 c86 -10 170 -39 170 -58 0
-6 -12 -18 -26 -28 -84 -54 -390 -59 -531 -7 -154 56 133 125 387 93z"/>
<path d="M6762 1770 c-71 -17 -69 -55 3 -66 63 -9 153 0 170 17 40 40 -74 73
-173 49z m148 -25 c21 -13 -12 -25 -70 -25 -61 0 -100 8 -100 20 0 5 10 11 23
14 29 6 133 0 147 -9z"/>
<path d="M3519 1769 c-114 -12 -163 -56 -106 -94 40 -26 176 -40 259 -26 233
38 93 148 -153 120z m196 -33 c23 -7 40 -18 40 -26 0 -27 -73 -42 -185 -38
-117 4 -175 23 -146 47 9 8 31 17 49 21 50 12 197 10 242 -4z"/>
</g>
</svg>
