<?xml version="1.0" standalone="no"?>
<!DOCTYPE svg PUBLIC "-//W3C//DTD SVG 20010904//EN"
 "http://www.w3.org/TR/2001/REC-SVG-20010904/DTD/svg10.dtd">
<svg version="1.0" xmlns="http://www.w3.org/2000/svg"
 width="1024.000000pt" height="1024.000000pt" viewBox="0 0 1024.000000 1024.000000"
 preserveAspectRatio="xMidYMid meet">
<metadata>
Created by potrace 1.16, written by Peter Selinger 2001-2019
</metadata>
<g transform="translate(0.000000,1024.000000) scale(0.100000,-0.100000)"
fill="#000000" stroke="none">
<path d="M4059 8315 c-325 -53 -593 -190 -824 -420 -170 -170 -287 -362 -360
-585 -54 -169 -67 -258 -72 -511 l-5 -227 -52 -23 c-155 -72 -373 -260 -473
-409 -157 -234 -227 -470 -227 -765 1 -182 17 -291 70 -453 104 -320 350 -670
758 -1078 399 -398 867 -766 1245 -979 154 -86 145 -85 254 -32 399 195 1108
773 1519 1240 343 389 513 678 583 997 26 118 32 413 10 542 -68 411 -321 760
-676 934 l-57 27 -4 221 c-4 174 -10 244 -27 329 -62 307 -219 599 -433 804
-129 124 -373 270 -548 327 -201 66 -493 92 -681 61z m511 -53 c469 -109 835
-415 1023 -852 81 -191 117 -384 117 -637 0 -172 -1 -185 -17 -178 -80 33
-208 61 -325 70 l-87 7 0 154 c0 85 -5 182 -11 217 -72 406 -362 727 -755 833
-106 29 -388 26 -500 -4 -395 -109 -686 -447 -744 -866 -6 -43 -11 -138 -11
-212 l0 -134 -74 0 c-84 0 -207 -21 -291 -50 l-57 -20 5 228 c4 174 10 248 25
317 61 280 183 512 370 707 229 238 496 381 812 433 122 20 406 13 520 -13z
m-55 -429 c153 -44 298 -124 414 -229 119 -107 226 -284 276 -458 30 -107 47
-277 38 -398 l-6 -88 -29 0 c-16 0 -64 -7 -106 -15 -268 -54 -522 -197 -736
-414 l-89 -90 -112 107 c-240 231 -470 353 -752 401 l-108 18 1 164 c0 111 5
188 16 239 86 396 373 689 758 775 95 21 342 14 435 -12z m-1091 -1224 c95
-16 223 -57 310 -99 150 -72 341 -213 462 -343 33 -35 65 -67 72 -71 7 -4 45
28 104 89 330 345 759 502 1149 420 398 -84 728 -379 872 -781 93 -258 93
-617 1 -903 -101 -311 -385 -698 -830 -1130 -402 -390 -859 -740 -1191 -913
-93 -48 -93 -48 -131 -33 -57 24 -263 148 -402 243 -685 467 -1362 1157 -1599
1630 -61 122 -105 245 -133 375 -29 138 -32 420 -4 547 92 427 343 738 726
903 181 77 387 100 594 66z"/>
<path d="M4395 8203 c109 -13 234 -40 320 -70 138 -47 139 -48 131 -35 -11 18
-166 73 -261 93 -49 10 -119 18 -155 17 -36 0 -51 -3 -35 -5z"/>
<path d="M4940 8032 c0 -8 66 -52 77 -52 3 0 -4 11 -16 24 -22 23 -61 41 -61
28z"/>
<path d="M3558 7976 c-26 -19 -22 -27 7 -14 14 6 25 15 25 20 0 12 -12 9 -32
-6z"/>
<path d="M3449 7901 c-95 -72 -242 -232 -227 -247 3 -2 30 26 61 63 30 37 86
93 123 123 101 82 130 109 118 110 -6 0 -40 -22 -75 -49z"/>
<path d="M3143 7528 c-15 -19 -23 -48 -14 -48 9 0 34 50 28 57 -2 2 -9 -2 -14
-9z"/>
<path d="M5560 7222 c0 -5 7 -17 16 -28 14 -17 15 -17 10 -1 -3 10 -6 23 -6
28 0 5 -4 9 -10 9 -5 0 -10 -4 -10 -8z"/>
<path d="M3227 7173 c-22 -37 -62 -332 -43 -312 3 3 12 54 21 114 9 61 22 131
30 158 8 26 10 47 5 47 -5 0 -11 -3 -13 -7z"/>
<path d="M5606 7058 c7 -40 13 -108 13 -150 1 -52 5 -78 12 -78 14 0 7 167
-11 248 -18 79 -29 62 -14 -20z"/>
<path d="M2900 6954 c0 -8 5 -12 10 -9 6 3 10 10 10 16 0 5 -4 9 -10 9 -5 0
-10 -7 -10 -16z"/>
<path d="M2891 6773 c2 -95 3 -101 9 -53 12 81 11 160 0 160 -6 0 -9 -42 -9
-107z"/>
<path d="M5622 6720 c0 -19 2 -27 5 -17 2 9 2 25 0 35 -3 9 -5 1 -5 -18z"/>
<path d="M5540 6541 c0 -5 12 -11 27 -14 26 -5 26 -4 8 9 -22 16 -35 18 -35 5z"/>
<path d="M2953 6533 c-7 -2 -13 -8 -13 -13 0 -8 57 4 68 15 7 6 -39 5 -55 -2z"/>
<path d="M5650 6502 c19 -8 80 -38 134 -64 54 -27 101 -46 104 -44 8 8 -87 64
-164 96 -76 31 -138 42 -74 12z"/>
<path d="M3083 6466 c-200 -38 -361 -123 -511 -270 -134 -131 -220 -278 -269
-465 -23 -84 -26 -117 -27 -261 -1 -252 41 -417 169 -670 148 -290 319 -520
610 -819 323 -332 860 -756 1143 -903 85 -44 82 -45 217 37 296 178 738 530
1030 820 305 303 538 614 680 908 117 242 150 377 149 617 -1 146 -4 177 -27
265 -103 384 -390 656 -777 737 -77 16 -119 19 -225 15 -343 -14 -607 -162
-911 -510 l-60 -68 -88 98 c-225 250 -428 388 -666 450 -118 31 -326 40 -437
19z m357 -40 c243 -44 414 -147 656 -392 105 -107 169 -164 182 -164 14 0 54
38 121 113 147 165 246 249 397 333 188 105 439 148 655 112 71 -11 77 -28 10
-28 -53 0 -146 -28 -253 -76 -120 -54 -199 -74 -295 -74 -52 0 -73 -4 -73 -12
0 -24 40 -78 71 -97 29 -18 30 -20 12 -29 -11 -6 -75 -27 -144 -48 -211 -62
-296 -119 -354 -238 -37 -75 -45 -180 -21 -254 47 -141 211 -228 351 -187 72
20 154 97 173 161 47 161 -62 306 -198 265 -74 -22 -118 -108 -86 -169 21 -41
53 -62 94 -62 29 0 32 -2 22 -20 -6 -10 -26 -23 -45 -29 -171 -47 -241 198
-90 313 46 35 82 50 223 91 64 18 124 36 132 39 13 5 14 -3 12 -52 -5 -75 10
-128 51 -188 67 -100 192 -155 303 -135 197 37 292 243 171 371 -105 111 -296
5 -232 -128 9 -20 25 -42 36 -50 49 -34 -44 -45 -99 -12 -118 72 -101 263 32
370 81 63 226 94 339 70 143 -29 280 -137 328 -257 20 -49 24 -77 24 -173 0
-159 -19 -199 -159 -335 -124 -121 -156 -172 -163 -258 -4 -51 -1 -71 15 -103
49 -94 153 -146 235 -115 21 8 26 6 40 -24 11 -22 28 -38 51 -46 20 -7 36 -16
36 -19 0 -4 -25 -47 -56 -96 -142 -228 -319 -326 -451 -249 -68 40 -94 120
-57 173 24 35 44 28 44 -17 0 -57 37 -91 101 -91 147 0 160 219 17 289 -149
71 -327 -48 -328 -220 0 -67 13 -109 52 -166 l28 -42 -47 14 c-75 23 -163 20
-203 -7 -52 -36 -73 -71 -74 -125 0 -26 3 -60 8 -75 8 -28 8 -28 -40 -28 -158
-1 -319 -103 -385 -245 -38 -80 -49 -188 -26 -252 8 -24 13 -43 12 -43 -1 0
-19 7 -38 15 -84 35 -199 8 -253 -59 l-28 -35 -28 33 c-40 49 -102 76 -174 76
-32 -1 -70 -7 -84 -15 -38 -21 -39 -19 -23 33 44 140 -48 343 -195 429 -59 35
-154 63 -213 63 -49 0 -49 0 -42 28 22 78 -7 162 -71 201 -40 25 -128 28 -198
6 l-48 -14 35 50 c95 139 34 328 -124 384 -80 28 -156 12 -212 -44 -77 -77
-71 -194 12 -237 77 -40 165 8 157 86 -4 45 -2 47 29 25 30 -21 38 -73 20
-117 -37 -89 -155 -124 -259 -76 -79 37 -151 99 -209 181 -47 67 -104 167 -97
170 48 23 66 38 78 64 10 22 20 31 30 27 48 -20 106 -15 160 13 45 23 60 37
83 83 25 47 28 63 24 112 -7 84 -45 142 -164 258 -135 130 -156 172 -161 316
-3 73 0 117 12 156 34 120 139 230 264 280 83 33 242 32 327 -1 114 -46 205
-166 205 -270 -1 -50 -32 -114 -69 -141 -33 -23 -99 -37 -126 -26 -14 5 -11
10 14 32 17 14 36 43 42 64 10 32 9 44 -7 76 -39 78 -125 105 -199 62 -108
-63 -115 -229 -14 -325 140 -132 377 -88 474 89 26 47 30 63 30 136 0 69 2 82
15 78 8 -3 56 -17 105 -31 138 -40 217 -72 257 -105 107 -88 102 -253 -9 -302
-47 -21 -79 -19 -120 8 -33 21 -28 34 11 34 42 0 81 30 96 75 9 29 8 41 -8 79
-28 63 -95 94 -163 76 -153 -41 -175 -256 -38 -373 112 -96 275 -83 382 32
142 152 78 424 -124 526 -26 14 -110 43 -186 66 -76 23 -147 46 -157 52 -18 9
-17 11 16 28 39 20 68 58 68 89 0 18 -6 20 -63 20 -99 0 -172 18 -290 71 -121
55 -200 78 -275 81 -62 3 -59 8 16 24 77 17 260 16 352 0z m-274 -75 c38 -10
115 -39 171 -64 118 -54 171 -68 259 -68 59 -1 63 -2 54 -19 -5 -10 -30 -26
-54 -35 -42 -16 -46 -16 -91 4 -95 42 -60 -8 43 -62 37 -20 123 -52 192 -72
69 -20 152 -49 185 -64 152 -71 233 -230 191 -375 -54 -185 -293 -249 -414
-111 -75 84 -80 190 -12 257 41 41 84 50 135 26 28 -13 55 -55 55 -86 0 -28
-30 -60 -62 -68 -21 -4 -33 0 -53 20 -14 14 -28 26 -30 26 -3 0 -5 -17 -5 -37
0 -95 102 -158 197 -122 75 28 132 133 117 216 -8 50 -46 114 -85 147 -49 42
-97 63 -220 97 -63 17 -142 44 -177 61 -35 16 -66 28 -68 25 -2 -2 3 -21 12
-43 24 -55 22 -148 -3 -205 -77 -173 -311 -223 -435 -92 -32 34 -58 92 -58
130 1 115 128 187 201 114 55 -55 24 -137 -57 -150 l-39 -7 29 -27 c59 -55
151 -56 222 -2 47 36 74 95 74 166 0 79 -25 141 -80 202 -202 222 -606 159
-746 -115 -77 -150 -70 -350 15 -478 17 -25 71 -83 121 -128 57 -53 100 -102
115 -133 67 -131 -5 -269 -141 -269 -42 0 -59 5 -85 27 -44 38 -61 81 -48 127
9 33 33 56 58 56 5 0 9 -21 8 -46 -2 -37 2 -49 22 -65 32 -26 63 -24 95 7 19
20 26 37 26 66 0 62 -24 105 -109 192 -43 44 -84 91 -90 104 -16 30 -31 28
-31 -4 0 -29 -16 -64 -30 -64 -5 0 -25 14 -45 31 l-35 31 25 30 c21 24 25 39
24 86 -1 70 -11 112 -23 94 -4 -7 -5 -39 -1 -71 6 -53 4 -61 -18 -87 l-25 -29
-32 18 -31 19 6 -64 c28 -281 72 -393 164 -418 49 -13 69 -51 46 -86 -17 -26
-53 -31 -85 -12 -36 23 -32 0 19 -99 111 -215 251 -347 392 -368 151 -23 278
113 225 240 -21 50 -95 81 -135 56 -11 -7 -9 -13 8 -30 28 -28 27 -56 -4 -86
-33 -33 -70 -32 -106 4 -35 36 -39 90 -9 139 82 134 308 71 339 -94 19 -98
-20 -185 -110 -246 -27 -18 -49 -36 -49 -40 0 -16 79 -7 160 17 46 14 96 25
112 25 75 0 138 -59 138 -130 0 -38 -23 -90 -46 -103 -32 -18 -13 -30 41 -24
232 24 439 -135 453 -349 3 -41 -1 -86 -7 -107 -38 -115 -154 -186 -256 -157
-112 31 -158 157 -89 240 34 40 86 42 110 5 23 -35 5 -56 -41 -48 -30 5 -35 3
-41 -21 -10 -41 4 -75 39 -96 69 -43 152 -13 195 70 19 36 23 56 19 102 -12
145 -124 249 -314 292 -78 17 -228 22 -237 7 -4 -5 29 -12 71 -16 132 -11 158
-36 68 -66 l-49 -17 33 -16 c44 -23 64 -71 45 -107 -14 -28 -53 -44 -85 -34
-22 7 -43 41 -34 55 11 17 33 11 40 -11 8 -23 28 -20 33 5 9 43 -51 87 -190
139 -327 124 -592 376 -772 735 -65 130 -103 230 -134 351 -24 96 -27 124 -27
286 1 234 29 348 126 515 62 107 70 110 34 15 -55 -148 -95 -385 -65 -385 14
0 15 5 34 128 29 189 98 354 195 463 52 59 164 136 233 160 71 25 202 25 294
0z m2539 -15 c216 -99 357 -308 395 -587 6 -46 14 -99 16 -116 3 -20 11 -33
19 -33 19 0 19 39 0 156 -16 99 -47 207 -77 269 l-19 40 26 -30 c38 -46 100
-170 128 -260 74 -238 58 -535 -42 -789 -121 -303 -332 -583 -563 -746 -81
-58 -220 -130 -318 -167 -95 -36 -146 -68 -157 -100 -6 -16 -8 -34 -6 -40 7
-20 30 -15 36 7 7 26 37 26 37 0 0 -27 -43 -54 -75 -46 -34 9 -58 47 -49 80 3
15 22 39 42 55 l35 29 -40 11 c-23 6 -46 18 -53 26 -10 12 -8 16 15 25 14 5
46 10 70 10 50 0 77 8 69 21 -9 14 -144 10 -209 -6 -197 -50 -315 -179 -303
-330 8 -93 67 -155 148 -155 34 0 48 6 76 34 36 36 41 55 23 88 -9 16 -17 19
-44 14 -27 -5 -36 -3 -44 12 -16 29 12 62 53 62 56 0 96 -50 96 -121 0 -89
-67 -149 -168 -149 -206 0 -284 263 -137 462 73 99 187 151 333 151 50 0 92 2
92 4 0 2 -11 21 -25 41 -45 66 -30 146 34 189 44 30 87 29 191 -2 86 -26 160
-33 160 -15 0 6 -11 15 -25 20 -14 5 -45 30 -70 54 -107 107 -92 280 31 352
58 34 134 38 184 8 88 -51 99 -181 18 -215 -67 -27 -120 32 -85 93 21 37 17
43 -30 40 -78 -6 -127 -77 -104 -154 28 -92 132 -157 229 -144 114 15 238 111
337 261 57 85 112 201 101 212 -3 3 -17 0 -31 -7 -37 -20 -79 -3 -83 32 -5 41
14 68 47 68 62 0 116 78 145 210 15 70 37 262 31 268 -1 1 -16 -5 -33 -15 -29
-17 -31 -17 -51 1 -18 16 -21 31 -22 100 0 94 -17 75 -21 -24 -3 -47 1 -64 20
-89 12 -16 22 -32 22 -35 0 -3 -17 -17 -37 -30 -43 -30 -59 -23 -69 30 -8 42
-15 43 -37 4 -10 -17 -49 -63 -87 -104 -83 -89 -100 -121 -100 -181 0 -80 71
-124 121 -74 17 17 20 30 16 65 -4 38 -2 44 14 44 9 0 27 -12 39 -27 32 -40
22 -95 -23 -141 -97 -97 -262 -15 -260 130 1 76 36 131 154 248 123 120 155
175 172 297 33 227 -96 437 -315 512 -214 74 -453 -8 -534 -182 -54 -118 -19
-264 76 -312 62 -31 143 -24 186 16 29 28 30 39 3 39 -50 0 -88 39 -88 90 0
57 38 90 103 90 27 0 46 -9 73 -34 33 -30 37 -39 41 -93 18 -251 -358 -304
-473 -67 -26 54 -32 168 -11 218 9 21 16 42 16 47 0 5 -26 -4 -57 -21 -32 -16
-114 -45 -182 -65 -138 -40 -184 -61 -235 -106 -80 -70 -103 -196 -52 -283 62
-105 215 -114 268 -15 31 57 20 122 -13 78 -37 -49 -119 -16 -119 48 0 83 111
125 179 68 16 -14 37 -46 47 -71 15 -39 15 -52 5 -100 -17 -73 -84 -146 -151
-164 -94 -25 -197 5 -260 76 -48 55 -64 99 -63 180 0 86 30 158 91 221 55 56
107 81 297 141 113 36 180 63 224 92 74 48 73 73 -1 40 -35 -15 -52 -18 -78
-10 -31 9 -70 36 -70 49 0 3 31 7 68 9 83 3 147 21 271 77 53 23 121 48 151
54 30 6 64 13 75 15 11 3 59 4 106 2 68 -3 99 -9 144 -30z m-3187 -956 c19 -9
28 -8 48 5 13 8 24 21 24 27 0 21 140 -125 160 -168 25 -51 25 -79 0 -104 -17
-17 -24 -18 -41 -10 -17 10 -20 19 -17 63 l3 52 -34 3 c-19 2 -45 -2 -57 -9
-30 -15 -54 -67 -54 -113 0 -40 -10 -45 -36 -19 -39 40 -84 199 -84 300 l0 47
33 -31 c17 -17 42 -36 55 -43z m3592 -60 c-15 -92 -44 -171 -77 -210 -33 -39
-45 -38 -38 3 9 46 -16 102 -57 127 -62 37 -108 18 -88 -36 22 -57 -13 -101
-50 -64 -41 41 -18 99 80 209 l64 71 21 -20 c30 -28 57 -25 107 13 l43 33 3
-25 c2 -14 -2 -60 -8 -101z m-3131 -1140 c62 -42 180 -100 314 -155 63 -25 67
-29 52 -45 -39 -43 7 -120 72 -120 45 0 86 22 101 55 16 34 15 50 -4 87 -15
29 -15 31 9 57 13 14 26 31 28 37 6 19 122 -22 171 -59 70 -54 101 -107 106
-181 4 -68 -8 -105 -48 -141 -32 -29 -96 -27 -121 4 -26 32 -24 41 13 41 93 0
87 122 -8 146 -33 9 -88 -18 -116 -57 -42 -57 -35 -159 15 -216 65 -74 172
-94 260 -49 l47 23 -6 -52 c-15 -128 102 -236 208 -192 64 27 84 101 41 150
-18 19 -73 23 -90 6 -18 -18 -35 0 -28 30 9 37 23 50 60 57 101 19 172 -127
105 -218 -11 -15 -20 -32 -20 -39 0 -13 62 -118 98 -166 13 -18 30 -33 38 -33
14 0 51 49 103 138 l30 52 -24 46 c-28 53 -32 99 -11 149 16 37 67 75 103 75
25 0 71 -38 74 -60 4 -35 0 -41 -20 -30 -28 14 -73 12 -98 -5 -49 -35 -31
-124 31 -150 49 -21 84 -18 131 8 72 41 108 123 88 199 -6 21 -9 38 -7 38 1 0
19 -9 38 -21 82 -48 205 -32 264 36 97 110 39 285 -93 285 -34 0 -85 -50 -85
-83 0 -38 32 -70 68 -70 35 0 41 -16 16 -41 -42 -43 -119 -23 -147 37 -38 80
-7 200 68 266 52 45 185 104 185 81 0 -5 13 -21 29 -35 26 -26 27 -29 15 -54
-39 -73 7 -151 88 -151 34 0 50 6 68 25 28 30 31 82 6 101 -17 12 -15 14 15
27 19 8 52 20 74 27 92 29 284 135 370 204 69 55 72 52 16 -15 -96 -113 -452
-461 -586 -573 -254 -211 -587 -453 -745 -540 l-66 -36 -49 27 c-352 187 -913
642 -1257 1020 -146 162 -169 192 -103 137 28 -22 79 -60 114 -84z m1200 -503
c22 -15 51 -45 63 -67 27 -47 41 -50 58 -11 24 59 104 111 170 111 36 0 96
-23 123 -48 55 -49 73 -151 37 -209 -50 -83 -190 -83 -190 0 0 47 56 65 81 26
17 -25 42 -18 58 17 19 43 13 74 -23 110 -30 30 -40 34 -84 34 -57 0 -100 -28
-129 -83 -23 -44 -20 -123 5 -173 l21 -41 -45 -77 c-24 -42 -46 -76 -48 -76
-2 0 -25 34 -51 76 l-48 76 22 44 c40 83 16 192 -51 234 -49 31 -132 24 -165
-14 -25 -29 -30 -71 -12 -110 16 -34 39 -41 56 -16 27 38 73 19 73 -31 0 -36
-33 -59 -83 -59 -32 0 -46 7 -78 39 -36 36 -39 43 -39 95 0 81 29 129 105 170
44 24 124 16 174 -17z"/>
<path d="M4146 5321 c-151 -50 -261 -177 -285 -332 -20 -120 13 -232 93 -317
l45 -48 -40 -239 c-22 -132 -39 -253 -37 -270 l3 -30 350 0 350 0 3 25 c2 14
-15 135 -38 269 l-40 244 41 44 c22 24 53 70 67 101 24 50 27 69 27 162 0 97
-2 110 -32 172 -41 86 -109 155 -197 198 -61 30 -80 35 -160 37 -69 2 -105 -2
-150 -16z m259 -38 c69 -23 142 -82 185 -145 50 -75 64 -124 64 -214 -1 -87
-39 -177 -104 -247 l-41 -45 42 -251 c23 -138 40 -253 37 -256 -3 -3 -146 -4
-319 -3 l-315 3 43 255 42 255 -44 45 c-109 113 -133 262 -65 407 81 174 290
260 475 196z"/>
<path d="M4155 5197 c-75 -36 -115 -74 -146 -142 -34 -70 -39 -153 -13 -228
15 -44 80 -124 116 -143 16 -9 14 -25 -22 -223 -45 -240 -46 -256 -24 -265 9
-3 108 -6 220 -6 162 0 206 3 210 13 3 8 -13 117 -36 242 l-40 228 22 15 c187
127 171 401 -29 502 -71 37 -189 40 -258 7z m296 -128 c30 -13 55 -32 63 -48
51 -98 9 -229 -94 -297 -30 -20 -40 -33 -39 -53 0 -14 17 -116 38 -226 21
-110 36 -203 34 -207 -2 -5 -58 -8 -123 -8 -65 0 -121 3 -123 8 -5 7 -1 32 27
190 9 51 13 98 9 105 -17 28 -14 59 7 64 11 3 20 9 20 14 0 12 -80 84 -94 84
-6 1 -10 7 -8 14 2 8 -3 11 -11 8 -8 -3 -25 5 -38 16 -14 12 -19 18 -12 14 25
-17 42 16 33 64 -18 92 25 188 106 235 81 47 134 53 205 23z m-274 -431 c-3
-7 -5 -2 -5 12 0 14 2 19 5 13 2 -7 2 -19 0 -25z m-24 -190 c-6 -7 -13 -20
-16 -28 -3 -9 -6 -3 -6 13 -1 19 4 27 15 27 12 0 14 -4 7 -12z m-46 -180 c-3
-8 -6 -5 -6 6 -1 11 2 17 5 13 3 -3 4 -12 1 -19z"/>
<path d="M4141 4741 c-8 -5 -9 -11 -3 -15 5 -3 12 1 16 9 6 17 6 18 -13 6z"/>
<path d="M3995 5125 c-20 -24 -43 -65 -51 -91 -22 -75 -15 -85 11 -15 13 36
38 84 54 108 40 56 32 55 -14 -2z"/>
<path d="M3931 4914 c0 -11 3 -14 6 -6 3 7 2 16 -1 19 -3 4 -6 -2 -5 -13z"/>
<path d="M4472 4555 c4 -29 12 -64 17 -77 10 -23 10 -22 10 5 1 33 -18 115
-29 122 -4 2 -3 -20 2 -50z"/>
<path d="M4017 4338 c-3 -13 -8 -45 -11 -73 -8 -67 9 -28 19 43 7 52 2 72 -8
30z"/>
<path d="M3095 4831 c49 -23 90 -66 100 -106 6 -21 9 -25 12 -13 11 47 -77
138 -134 138 -10 0 -1 -8 22 -19z"/>
<path d="M3240 4385 c-108 -30 -202 -32 -272 -5 -29 11 -56 20 -60 20 -47 0
132 -122 232 -158 78 -28 182 -32 228 -8 81 42 97 127 31 161 -36 19 -56 18
-159 -10z m154 -31 c20 -19 20 -24 0 -52 -28 -40 -71 -55 -139 -49 -60 6 -170
40 -180 56 -2 5 28 14 68 20 39 6 92 17 117 25 61 19 115 19 134 0z"/>
<path d="M4490 5562 c0 -6 19 -32 43 -56 46 -49 113 -75 145 -57 14 9 11 10
-16 11 -45 0 -104 32 -141 77 -17 21 -31 32 -31 25z"/>
<path d="M5356 4743 c-6 -14 -5 -15 5 -6 7 7 10 15 7 18 -3 3 -9 -2 -12 -12z"/>
<path d="M5348 4714 c-17 -16 -7 -96 17 -144 13 -27 29 -51 35 -55 15 -9 12 0
-12 41 -13 23 -24 62 -27 101 -3 36 -9 61 -13 57z"/>
<path d="M5153 4400 c-26 -11 -43 -40 -43 -76 0 -42 65 -101 122 -109 93 -14
238 40 364 135 63 47 63 70 1 38 -67 -34 -155 -35 -276 -4 -108 28 -133 30
-168 16z m162 -50 c50 -11 108 -23 130 -26 l40 -7 -65 -31 c-55 -26 -77 -31
-142 -31 -67 0 -79 3 -102 24 -16 15 -26 35 -26 52 0 45 33 49 165 19z"/>
<path d="M2719 6417 c-41 -24 -102 -64 -135 -89 -68 -53 -133 -118 -118 -118
6 0 19 10 30 22 32 35 169 134 249 178 41 23 75 43 75 46 0 12 -33 -1 -101
-39z"/>
<path d="M5935 6350 c3 -5 8 -10 11 -10 2 0 4 5 4 10 0 6 -5 10 -11 10 -5 0
-7 -4 -4 -10z"/>
<path d="M4590 6310 c-8 -5 -11 -12 -7 -16 4 -4 15 0 24 9 18 18 8 23 -17 7z"/>
<path d="M4443 6183 c-44 -43 -85 -89 -92 -103 -7 -14 31 19 85 72 54 54 95
100 92 103 -3 4 -42 -29 -85 -72z"/>
<path d="M2160 5237 c-1 -65 70 -308 117 -400 30 -61 40 -56 14 6 -29 68 -97
285 -106 337 -8 51 -24 88 -25 57z"/>
<path d="M6325 4993 c-15 -43 -54 -134 -86 -202 -65 -136 -74 -184 -17 -80 34
61 119 252 131 294 3 11 8 30 12 43 3 12 2 22 -3 22 -5 0 -22 -35 -37 -77z"/>
<path d="M2367 4683 c12 -32 64 -113 73 -113 5 0 -8 29 -28 65 -33 60 -60 89
-45 48z"/>
<path d="M6100 4534 c-12 -19 -20 -37 -17 -40 6 -6 57 54 57 67 0 20 -19 7
-40 -27z"/>
<path d="M5308 3681 c-18 -17 -28 -31 -23 -31 16 0 71 47 63 55 -3 3 -21 -7
-40 -24z"/>
<path d="M5160 3558 c-80 -63 -104 -93 -50 -62 41 24 137 110 130 117 -3 3
-39 -22 -80 -55z"/>
<path d="M3720 3264 c0 -9 32 -33 44 -34 5 0 1 9 -9 20 -18 20 -35 26 -35 14z"/>
<path d="M3820 3183 c1 -17 217 -160 226 -150 3 3 -36 34 -87 69 -110 75 -139
91 -139 81z"/>
<path d="M8135 6766 c-29 -13 -70 -45 -98 -76 l-48 -53 -24 23 c-30 29 -84 29
-124 1 l-30 -22 -49 31 c-156 96 -366 105 -529 23 -158 -79 -280 -248 -305
-422 -17 -114 -1 -209 76 -456 35 -112 67 -222 71 -245 7 -39 6 -42 -11 -35
-137 58 -280 -74 -244 -225 19 -80 94 -153 174 -169 16 -4 32 -13 34 -20 3
-10 -2 -12 -18 -8 -31 8 -85 -16 -100 -43 -7 -14 -10 -39 -6 -63 8 -49 -13
-88 -44 -80 -30 8 -76 -15 -89 -43 -15 -34 -14 -55 4 -82 15 -21 9 -31 -143
-249 -87 -126 -215 -309 -283 -408 -595 -857 -629 -905 -659 -905 -34 0 -59
-22 -67 -60 -3 -16 -15 -32 -29 -39 -33 -15 -48 -57 -33 -92 6 -15 7 -34 3
-41 -4 -7 -107 -154 -227 -327 -293 -420 -317 -457 -317 -495 0 -40 25 -125
44 -151 12 -16 25 -20 65 -18 91 4 126 19 175 75 l45 52 85 -57 c47 -31 90
-57 94 -57 5 0 17 9 27 20 28 31 60 22 59 -15 0 -16 -4 -38 -8 -47 -6 -13 9
-28 69 -68 42 -28 82 -50 90 -48 20 4 166 218 163 237 -2 9 -25 30 -52 48 -71
46 -71 47 -46 83 21 29 21 32 6 49 -24 27 -10 51 29 51 26 0 39 7 54 29 l21
29 66 -44 c36 -24 69 -44 74 -44 13 0 160 216 160 235 0 8 -41 42 -92 76 -90
59 -93 60 -108 41 -9 -10 -26 -24 -38 -31 -18 -10 -25 -8 -42 9 -19 19 -19 40
3 67 16 21 1 40 -68 86 l-66 44 40 7 c39 6 71 35 71 64 0 7 14 25 31 39 28 24
31 30 25 70 -6 49 -59 -31 583 883 521 742 469 674 522 678 28 2 52 11 68 25
20 19 22 29 18 73 -7 64 10 94 48 87 60 -12 111 68 81 128 -19 39 -19 39 -2
39 7 0 19 -14 26 -30 26 -62 123 -120 200 -120 79 0 164 55 189 123 23 61 10
148 -28 186 -19 19 -19 19 7 26 15 4 146 11 292 15 192 7 282 13 325 25 229
63 394 245 427 472 29 197 -55 399 -210 507 l-40 27 5 58 c5 55 4 58 -27 84
-17 15 -36 27 -41 27 -5 0 2 17 15 38 40 59 60 152 46 214 -35 167 -212 256
-365 184z m215 -40 c121 -59 151 -218 66 -347 -25 -37 -29 -39 -76 -39 l-49 0
31 50 c27 43 30 56 26 105 -13 151 -196 184 -270 49 l-24 -44 -21 50 -21 50
38 49 c84 105 188 132 300 77z m-740 -33 c206 -56 332 -220 365 -477 6 -46 8
-48 33 -42 15 3 66 11 115 18 397 54 695 -285 568 -649 -62 -179 -190 -298
-376 -350 -32 -9 -145 -18 -315 -23 -267 -10 -402 -26 -447 -56 -56 -36 -69
-101 -18 -88 45 11 71 -28 39 -60 -22 -23 -59 -20 -90 7 -38 33 -45 116 -15
175 50 98 142 131 426 152 125 9 270 32 282 44 3 3 -15 24 -40 48 -96 92 -82
225 28 278 56 27 105 19 152 -24 48 -44 55 -100 18 -144 -57 -68 -156 -18
-115 59 7 12 21 19 41 19 41 0 33 24 -9 28 -35 4 -68 -22 -78 -62 -14 -58 56
-126 131 -126 58 0 138 42 175 93 121 164 79 386 -95 506 -129 90 -304 99
-475 27 -12 -5 -15 7 -18 73 -3 102 -31 193 -81 262 -45 63 -81 93 -161 135
-51 27 -63 29 -160 29 -89 0 -112 -4 -151 -23 -73 -36 -125 -87 -158 -154 -49
-98 -39 -184 28 -241 58 -48 140 -29 157 37 7 29 -11 66 -31 66 -18 0 -19 -12
-4 -27 16 -16 1 -53 -27 -63 -57 -22 -108 32 -84 90 28 69 99 89 161 47 121
-81 56 -267 -93 -267 -48 0 -96 17 -130 47 -9 8 -19 10 -22 5 -9 -15 22 -182
65 -349 34 -131 40 -170 36 -225 -6 -88 -40 -148 -100 -177 -54 -26 -83 -26
-124 -1 -25 15 -33 27 -33 49 0 55 63 68 76 15 5 -18 12 -24 27 -22 71 10 56
159 -48 488 -58 183 -75 263 -75 353 1 140 45 247 148 358 132 142 313 194
502 142z m348 -79 c16 -19 37 -59 47 -87 21 -61 31 -221 17 -257 l-10 -25 -6
30 c-26 118 -74 229 -126 288 -35 40 -36 44 -13 69 26 28 58 22 91 -18z m320
-46 c78 -85 21 -205 -120 -249 -38 -12 -71 -26 -74 -30 -15 -25 -19 -1 -13 79
11 149 58 222 143 222 31 0 48 -6 64 -22z m-661 -80 c61 -22 143 -93 178 -153
40 -67 55 -125 63 -231 8 -114 13 -119 91 -86 26 12 77 26 114 33 124 23 264
-21 357 -111 128 -124 118 -352 -19 -449 l-30 -21 16 39 c40 102 -43 211 -162
211 -111 0 -185 -82 -185 -204 0 -53 -1 -55 -32 -64 -66 -20 -87 -22 -283 -32
-115 -5 -220 -15 -247 -23 l-46 -14 -7 45 c-4 25 -26 107 -50 181 -50 157 -71
235 -80 309 -6 47 -5 52 12 52 11 0 43 12 71 26 68 34 102 88 102 163 0 60
-17 98 -59 134 -70 58 -154 57 -205 -4 -23 -28 -26 -28 -26 -9 0 35 46 114 90
154 93 84 207 103 337 54z m823 -202 c21 -9 25 -18 25 -51 0 -47 -3 -47 -105
-20 -70 19 -210 25 -275 12 -38 -8 -39 -7 -19 7 86 62 290 90 374 52z m-1215
-310 c33 -14 35 -18 35 -63 0 -54 21 -135 82 -323 22 -69 43 -151 45 -183 3
-32 10 -60 14 -63 5 -2 34 2 66 11 32 8 138 20 238 25 215 11 261 16 311 34
37 12 39 12 61 -15 13 -15 23 -29 23 -32 0 -10 -54 -18 -227 -32 -196 -17
-276 -33 -339 -70 -141 -83 -169 -264 -52 -335 47 -29 84 -26 120 10 24 25 29
36 23 58 -8 33 -33 62 -52 62 -33 0 -3 25 33 28 82 6 127 -91 82 -177 -35 -68
-66 -86 -147 -86 -58 0 -74 4 -109 29 -25 17 -51 47 -65 76 -23 46 -23 49 -11
156 18 149 18 204 0 204 -8 0 -63 -21 -123 -46 -158 -67 -183 -74 -234 -63
-82 19 -148 96 -149 174 0 40 38 114 72 138 33 25 98 26 133 3 30 -20 48 -60
39 -88 -5 -17 -7 -17 -26 7 -27 35 -79 35 -107 -1 -54 -68 14 -158 117 -156
67 1 130 44 166 114 43 85 40 164 -18 397 -44 177 -52 221 -41 221 3 0 21 -7
40 -14z m97 -874 c-7 -95 -12 -117 -30 -134 -18 -19 -23 -20 -40 -7 -11 8 -56
40 -101 73 -51 36 -81 64 -79 74 5 23 45 48 153 95 83 36 100 41 103 28 1 -9
-1 -67 -6 -129z m-248 -58 c73 -44 175 -120 198 -148 10 -12 18 -30 18 -42 0
-25 -32 -57 -53 -52 -8 1 -78 48 -155 103 -146 104 -159 119 -125 157 24 26
51 22 117 -18z m-19 -160 c50 -36 99 -71 109 -79 18 -13 18 -15 2 -40 l-17
-26 -47 34 c-26 18 -77 55 -114 81 -38 26 -68 50 -68 52 0 11 26 44 35 44 5 0
51 -30 100 -66z m-157 -11 c89 -56 253 -179 257 -193 13 -40 -29 -79 -64 -61
-11 6 -79 53 -153 104 -135 95 -155 119 -128 153 17 19 55 18 88 -3z m17 -174
c107 -73 119 -84 109 -100 -4 -8 -74 -106 -154 -219 -81 -113 -317 -448 -525
-745 -207 -297 -381 -544 -386 -549 -4 -5 -52 23 -109 63 l-101 72 34 47 c41
57 311 444 747 1072 266 383 293 420 304 413 6 -4 43 -28 81 -54z m-1109
-1559 c54 -39 112 -80 127 -91 21 -15 27 -27 25 -47 -5 -46 -36 -38 -148 39
-125 85 -150 107 -150 129 0 18 19 40 35 40 6 0 56 -32 111 -70z m-114 -57
c219 -152 227 -160 196 -191 -21 -21 -41 -13 -143 54 -152 101 -173 125 -139
158 21 22 24 21 86 -21z m14 -154 c49 -33 90 -62 92 -64 1 -1 -62 -94 -142
-206 -80 -112 -199 -284 -266 -381 -66 -98 -131 -184 -143 -193 -33 -23 -70
-18 -116 16 -24 17 -45 28 -48 25 -10 -9 46 -56 67 -56 12 0 18 -4 15 -10 -3
-5 -19 -10 -35 -10 -39 0 -60 34 -67 107 l-5 58 247 355 c279 401 293 420 304
420 4 0 47 -27 97 -61z m173 -171 c44 -28 48 -34 40 -55 -16 -42 -11 -81 13
-97 31 -22 70 -20 102 5 14 11 30 19 34 17 20 -7 132 -84 132 -89 0 -9 -120
-174 -130 -177 -5 -2 -35 15 -68 37 -33 23 -64 41 -69 41 -5 0 -17 -13 -26
-30 -13 -21 -26 -30 -43 -30 -58 0 -98 -53 -70 -94 12 -19 11 -24 -5 -45 -30
-37 -23 -56 33 -92 28 -19 55 -37 61 -40 13 -9 -122 -201 -136 -192 -7 3 -34
22 -60 41 -34 25 -45 38 -38 45 18 18 13 65 -9 87 -24 24 -51 25 -95 4 -32
-15 -33 -15 -99 31 -36 25 -68 50 -71 55 -8 13 114 180 132 180 8 0 12 -4 9
-9 -10 -16 21 -33 41 -23 16 9 14 12 -15 29 -17 10 -32 23 -32 28 0 6 16 28
34 50 l34 40 7 -28 c9 -34 49 -67 82 -67 30 0 73 42 73 70 l0 21 26 -20 c15
-12 34 -21 43 -21 9 0 36 26 60 57 l44 57 37 -42 c21 -23 42 -42 48 -42 15 0
44 50 38 66 -3 8 -15 14 -26 14 -23 0 -95 34 -105 50 -3 5 -19 10 -35 10 -23
0 -40 -13 -80 -58 l-52 -59 -28 29 c-19 19 -39 28 -60 28 l-31 0 33 46 c41 58
44 59 74 39 14 -9 33 -14 42 -12 12 2 6 9 -20 22 -21 10 -38 23 -38 27 0 5 5
6 12 2 7 -4 8 -3 4 4 -6 10 49 102 60 102 2 0 19 -10 39 -21 20 -12 38 -19 41
-16 3 3 -13 16 -35 29 -23 14 -38 28 -34 32 9 9 24 3 82 -36z m1 -194 c0 -15
-63 -94 -75 -94 -24 0 -18 17 21 60 33 36 54 50 54 34z m120 -54 c0 -5 -4 -10
-10 -10 -5 0 -10 5 -10 10 0 6 5 10 10 10 6 0 10 -4 10 -10z m-324 -8 c23 -15
36 -52 23 -68 -14 -17 -51 -18 -67 -2 -13 13 -16 60 -5 71 8 9 35 9 49 -1z
m-131 -162 c3 -5 2 -10 -4 -10 -5 0 -13 5 -16 10 -3 6 -2 10 4 10 5 0 13 -4
16 -10z"/>
<path d="M8160 6660 c0 -5 7 -7 15 -4 8 4 15 8 15 10 0 2 -7 4 -15 4 -8 0 -15
-4 -15 -10z"/>
<path d="M8270 6644 c19 -8 48 -27 63 -42 18 -17 26 -21 22 -10 -10 26 -71 68
-97 68 -19 -1 -17 -3 12 -16z"/>
<path d="M7380 6669 c-47 -9 -155 -58 -146 -66 3 -3 39 9 80 26 41 17 88 31
105 31 17 0 31 5 31 10 0 11 -7 11 -70 -1z"/>
<path d="M7178 6560 c-18 -16 -28 -30 -22 -30 5 0 23 14 39 30 37 39 25 39
-17 0z"/>
<path d="M7020 6239 c0 -5 5 -7 10 -4 6 3 10 8 10 11 0 2 -4 4 -10 4 -5 0 -10
-5 -10 -11z"/>
<path d="M7024 6115 c3 -38 9 -81 15 -95 9 -20 10 -11 5 42 -8 98 -25 143 -20
53z"/>
<path d="M8270 6111 c0 -5 16 -15 36 -21 19 -7 65 -32 100 -56 72 -48 83 -38
13 13 -49 35 -149 78 -149 64z"/>
<path d="M8665 5730 c0 -74 3 -106 10 -99 13 13 13 185 0 198 -7 7 -10 -26
-10 -99z"/>
<path d="M7145 5700 c3 -5 8 -10 11 -10 2 0 4 5 4 10 0 6 -5 10 -11 10 -5 0
-7 -4 -4 -10z"/>
<path d="M7174 5605 c3 -22 6 -52 6 -67 0 -16 5 -28 11 -28 14 0 4 95 -12 119
-8 12 -9 5 -5 -24z"/>
<path d="M8616 5544 c-4 -9 -4 -19 -1 -22 2 -3 7 3 11 12 4 9 4 19 1 22 -2 3
-7 -3 -11 -12z"/>
<path d="M8270 5239 c-41 -10 -93 -22 -115 -26 l-40 -7 40 -4 c47 -4 131 13
189 38 51 23 24 23 -74 -1z"/>
<path d="M7798 5233 c7 -3 16 -2 19 1 4 3 -2 6 -13 5 -11 0 -14 -3 -6 -6z"/>
<path d="M7653 5218 c-56 -18 -36 -27 25 -12 78 20 82 22 42 22 -19 0 -50 -5
-67 -10z"/>
<path d="M7220 5180 c-13 -9 -13 -10 0 -10 8 0 22 5 30 10 13 9 13 10 0 10 -8
0 -22 -5 -30 -10z"/>
<path d="M7293 5178 c-3 -69 -18 -157 -29 -175 -8 -13 -10 -23 -4 -23 22 0 38
49 42 128 3 45 2 82 -2 82 -4 0 -7 -6 -7 -12z"/>
<path d="M7175 5160 c-3 -5 -2 -10 4 -10 5 0 13 5 16 10 3 6 2 10 -4 10 -5 0
-13 -4 -16 -10z"/>
<path d="M7115 5120 c-10 -11 -16 -22 -14 -24 2 -3 14 6 26 20 12 13 18 24 14
24 -4 0 -16 -9 -26 -20z"/>
<path d="M6925 4543 c-27 -38 -64 -89 -83 -115 -19 -27 -29 -48 -24 -48 6 0
44 46 84 103 87 119 92 127 80 127 -4 0 -30 -30 -57 -67z"/>
<path d="M6702 4525 c-83 -113 -203 -296 -200 -305 2 -8 235 315 246 342 10
24 -17 2 -46 -37z"/>
<path d="M6386 4053 c-35 -48 -45 -70 -26 -58 16 10 72 96 67 102 -3 2 -21
-17 -41 -44z"/>
<path d="M5385 2380 c-3 -5 -2 -10 4 -10 5 0 13 5 16 10 3 6 2 10 -4 10 -5 0
-13 -4 -16 -10z"/>
<path d="M5310 2280 c-24 -28 -39 -54 -35 -58 8 -8 48 38 71 81 21 40 11 33
-36 -23z"/>
<path d="M5748 2648 c5 -5 16 -8 23 -6 8 3 3 7 -10 11 -17 4 -21 3 -13 -5z"/>
<path d="M6118 2554 l33 -26 -24 -32 c-39 -52 -41 -64 -3 -21 20 22 36 45 36
52 0 12 -51 53 -67 53 -4 0 7 -12 25 -26z"/>
<path d="M5626 2296 c-25 -41 -46 -83 -46 -94 0 -20 61 -82 81 -82 5 0 17 -16
26 -35 20 -41 37 -44 59 -10 21 32 8 50 -55 77 -40 17 -42 20 -29 36 8 9 28
39 43 65 23 40 26 52 17 72 -6 13 -20 28 -31 34 -17 10 -24 2 -65 -63z m43
-42 c-55 -80 -70 -63 -18 20 22 35 33 45 39 36 5 -9 -2 -29 -21 -56z"/>
<path d="M5400 2187 c25 -23 90 -59 90 -50 -1 11 -77 63 -92 63 -8 0 -7 -4 2
-13z"/>
<path d="M5832 2078 c-7 -13 -19 -34 -28 -48 -9 -14 -3 -10 15 10 17 19 31 40
31 47 0 19 -5 16 -18 -9z"/>
</g>
</svg>
