<?xml version="1.0" standalone="no"?>
<!DOCTYPE svg PUBLIC "-//W3C//DTD SVG 20010904//EN"
 "http://www.w3.org/TR/2001/REC-SVG-20010904/DTD/svg10.dtd">
<svg version="1.0" xmlns="http://www.w3.org/2000/svg"
 width="1024.000000pt" height="1024.000000pt" viewBox="0 0 1024.000000 1024.000000"
 preserveAspectRatio="xMidYMid meet">
<metadata>
Created by potrace 1.16, written by Peter Selinger 2001-2019
</metadata>
<g transform="translate(0.000000,1024.000000) scale(0.100000,-0.100000)"
fill="#000000" stroke="none">
<path d="M6238 9350 c-29 -29 -30 -33 -26 -103 4 -72 38 -162 87 -226 l19 -24
77 36 c99 48 148 87 174 140 28 58 26 83 -8 118 -33 33 -93 40 -127 14 -27
-20 -30 -19 -44 15 -28 67 -101 81 -152 30z m97 4 c20 -8 45 -56 45 -89 0 -32
5 -32 47 5 50 45 113 37 133 -16 22 -56 -48 -139 -165 -196 -76 -37 -77 -37
-126 58 -44 87 -52 175 -19 217 21 26 51 34 85 21z"/>
<path d="M5445 9305 c-52 -51 -16 -145 55 -145 37 0 90 47 90 80 0 78 -91 119
-145 65z m107 -26 c24 -32 11 -75 -29 -90 -58 -22 -107 57 -63 101 27 27 67
23 92 -11z"/>
<path d="M4415 9308 c-78 -45 -49 -158 40 -158 87 0 120 116 44 155 -33 18
-57 18 -84 3z m79 -29 c15 -12 26 -30 26 -45 0 -31 -33 -64 -65 -64 -30 0 -65
32 -65 60 0 24 42 70 63 70 8 0 26 -9 41 -21z"/>
<path d="M3272 9290 c-34 -21 -71 -87 -72 -126 l0 -21 -47 23 c-53 27 -80 30
-126 10 -149 -63 -97 -235 103 -336 53 -27 206 -80 231 -80 10 0 26 21 43 60
51 114 68 174 73 266 5 77 2 97 -15 137 -36 81 -119 110 -190 67z m140 -40
c36 -39 52 -101 44 -176 -11 -104 -81 -284 -111 -284 -31 0 -204 69 -257 102
-126 81 -160 197 -74 253 41 27 117 16 166 -24 21 -17 41 -31 43 -31 3 0 7 29
9 65 3 51 9 70 28 91 49 52 107 54 152 4z"/>
<path d="M3726 9024 c-22 -21 -20 -50 4 -74 25 -25 52 -26 73 -2 34 37 11 92
-38 92 -13 0 -31 -7 -39 -16z m69 -33 c0 -34 -30 -51 -51 -29 -25 24 -10 60
24 56 21 -2 27 -8 27 -27z"/>
<path d="M4905 8993 c-69 -11 -235 -57 -305 -84 -41 -16 -92 -29 -113 -29 -93
0 -259 -66 -386 -153 -27 -19 -66 -38 -87 -41 -88 -17 -193 -79 -297 -175 -34
-32 -95 -75 -134 -96 -78 -40 -174 -131 -227 -217 -17 -25 -44 -54 -60 -64
-88 -51 -212 -199 -266 -316 -16 -34 -54 -91 -84 -126 -90 -101 -154 -207
-186 -306 -12 -36 -14 -38 -44 -31 -87 19 -106 18 -106 -2 0 -10 5 -24 11 -30
9 -9 -8 -10 -64 -6 -65 5 -77 3 -83 -11 -3 -9 -1 -23 6 -31 11 -13 7 -15 -21
-15 -40 0 -109 -18 -127 -32 -9 -8 -9 -14 -1 -25 14 -16 14 -15 -31 -38 -19
-10 -63 -38 -98 -62 l-63 -45 -67 16 c-186 44 -399 47 -504 5 -47 -19 -64 -97
-48 -226 23 -185 124 -414 234 -527 l49 -50 -6 -131 c-6 -146 -22 -207 -68
-256 -16 -17 -29 -35 -29 -41 0 -12 63 -38 92 -38 21 0 21 -1 -8 -31 -16 -17
-44 -40 -63 -52 -47 -29 -23 -33 44 -8 90 34 118 26 70 -19 -14 -13 -25 -30
-25 -39 0 -8 -14 -30 -32 -48 -38 -39 -28 -42 27 -8 22 14 45 25 52 25 7 0 47
-21 89 -47 43 -26 111 -61 151 -79 41 -17 76 -34 79 -37 2 -2 -1 -24 -7 -48
l-12 -44 -111 0 c-93 0 -119 -4 -158 -22 -66 -30 -132 -102 -172 -186 -45 -96
-191 -516 -206 -595 -24 -120 0 -302 71 -557 60 -211 208 -646 252 -739 62
-129 95 -146 207 -105 30 11 62 22 70 25 12 4 19 -7 28 -42 7 -26 21 -59 31
-73 10 -14 21 -54 25 -88 8 -75 22 -118 50 -158 16 -23 21 -45 21 -110 1 -89
27 -164 71 -206 13 -12 24 -34 24 -48 1 -39 33 -102 74 -140 20 -19 36 -44 36
-56 0 -37 50 -124 93 -161 94 -82 354 -178 942 -349 458 -132 963 -258 1170
-290 55 -9 179 -31 275 -50 284 -56 406 -68 690 -69 279 -1 318 4 695 80 326
67 550 133 1002 295 459 165 601 247 673 389 15 30 37 64 49 74 62 56 111 180
111 281 0 28 6 59 14 70 17 25 43 107 52 165 3 25 15 56 25 69 32 40 52 129
53 231 1 67 6 104 17 125 19 34 39 121 39 165 0 15 11 50 25 77 31 61 46 160
34 236 -6 39 -6 64 1 78 10 18 13 18 33 4 12 -8 26 -15 32 -15 25 0 213 326
301 520 69 153 94 254 94 389 0 122 -17 195 -70 306 -50 104 -110 179 -182
226 -53 34 -85 45 -186 64 l-33 7 88 58 c48 31 98 67 110 79 29 27 47 27 100
-5 56 -32 67 -24 25 19 -18 17 -51 53 -74 80 -39 46 -68 60 -68 35 0 -7 14
-25 32 -40 l33 -27 -31 -1 c-17 0 -64 11 -104 25 -79 27 -90 29 -90 17 0 -4
34 -20 75 -36 41 -16 75 -32 75 -35 0 -13 -172 -122 -254 -161 -45 -21 -117
-50 -160 -65 -76 -24 -275 -69 -281 -63 -2 2 4 31 13 64 13 51 14 68 4 103
-31 101 -153 105 -352 10 l-85 -40 -45 20 c-25 10 -66 22 -91 26 -43 6 -49 11
-89 72 -53 80 -141 170 -186 189 -100 42 -169 -13 -189 -148 -4 -27 -10 -48
-13 -48 -11 0 -149 105 -215 164 -85 75 -180 192 -235 288 -67 119 -70 112 36
106 51 -3 92 -2 92 3 0 11 -25 17 -112 24 l-76 7 15 51 c8 29 16 53 18 55 1 2
33 -4 69 -13 79 -18 115 -20 100 -5 -6 6 -46 17 -89 25 -43 9 -79 16 -80 18
-4 5 11 117 16 122 3 2 44 -11 92 -30 94 -38 97 -39 97 -27 0 8 -77 46 -152
76 -37 14 -38 17 -38 63 0 44 4 53 41 88 23 22 72 84 111 138 57 79 68 100 58
112 -20 24 -24 162 -6 260 20 116 47 198 101 310 59 120 126 205 163 205 34 0
161 -71 245 -138 75 -60 203 -193 219 -227 11 -23 14 -24 97 -21 59 3 101 10
134 25 68 29 82 28 61 -4 -9 -14 -14 -29 -10 -32 3 -4 39 1 79 10 97 23 106
22 79 -6 -12 -13 -22 -26 -22 -30 0 -4 44 -7 98 -7 71 -1 92 -3 80 -11 -29
-16 -21 -25 41 -48 32 -11 97 -45 146 -74 l88 -53 49 24 c145 69 518 120 562
77 37 -38 33 -273 -8 -420 -48 -173 -156 -382 -191 -369 -13 5 -15 0 -10 -32
3 -22 12 -89 20 -149 12 -95 24 -143 59 -226 7 -15 2 -16 -56 -3 -73 16 -138
18 -138 5 0 -5 24 -12 53 -16 94 -12 166 -27 184 -40 14 -11 9 -14 -35 -25
-52 -12 -63 -25 -40 -48 21 -21 5 -21 -77 -1 -90 21 -105 23 -105 11 0 -9 102
-40 235 -72 44 -10 88 -21 98 -25 38 -16 14 16 -30 39 -27 13 -56 33 -66 43
-17 19 -16 20 21 31 21 7 46 20 56 31 16 18 16 20 -17 40 -52 32 -85 115 -104
265 l-16 123 47 65 c78 111 134 251 167 421 36 186 18 365 -41 394 -75 38
-414 -8 -577 -78 l-45 -19 -44 27 c-24 16 -44 33 -44 40 0 6 -20 51 -44 100
-25 48 -52 117 -61 153 -19 78 -68 170 -140 265 -31 40 -64 100 -78 138 -36
100 -82 169 -182 277 -49 53 -106 125 -125 159 -38 70 -162 194 -255 258 -33
22 -76 62 -95 88 -49 67 -159 152 -271 210 -52 26 -119 70 -149 98 -63 56
-238 145 -340 172 -36 9 -90 32 -120 50 -82 49 -196 84 -318 97 -62 6 -132 20
-167 34 -108 41 -170 47 -373 40 -232 -9 -215 -9 -347 -3 -60 3 -123 3 -140 0z
m780 -48 c150 -40 433 -242 655 -470 l65 -66 -52 20 c-79 31 -164 75 -298 156
-349 209 -519 295 -674 342 -82 25 -90 29 -65 35 48 12 304 0 369 -17z m-470
-4 c111 -24 241 -69 365 -127 133 -62 386 -208 368 -212 -44 -9 -458 78 -588
123 -212 73 -398 117 -599 140 -68 8 -126 17 -128 19 -4 4 120 39 217 60 96
21 258 19 365 -3z m863 -83 c95 -29 171 -69 242 -128 81 -68 224 -236 335
-396 118 -168 115 -163 79 -140 -104 66 -208 151 -358 291 -214 200 -266 244
-391 335 l-100 73 63 -7 c35 -4 94 -16 130 -28z m-1213 -37 c131 -22 270 -57
380 -94 l70 -24 -80 -9 c-130 -13 -430 -10 -575 6 -74 8 -219 15 -322 15 -102
0 -184 3 -183 6 10 15 197 100 250 114 79 20 297 13 460 -14z m1611 -122 c93
-39 213 -118 262 -174 58 -66 157 -235 266 -453 74 -148 92 -190 75 -182 -51
28 -185 172 -281 302 -231 315 -282 381 -361 464 -89 94 -88 95 39 43z m-1818
-30 c67 -7 122 -16 122 -21 0 -12 -149 -55 -230 -66 -41 -6 -131 -14 -200 -17
-199 -10 -486 -49 -587 -81 -10 -3 7 18 37 46 89 83 213 132 390 154 60 7 339
-2 468 -15z m821 -15 l58 -16 -111 -111 -111 -112 -55 -2 c-34 -1 -75 6 -108
18 -82 30 -121 25 -101 -13 10 -19 9 -20 -33 -12 -80 15 -103 12 -102 -13 1
-21 -4 -23 -47 -23 -59 0 -79 -7 -79 -29 -1 -10 -33 -32 -94 -61 l-94 -45 -63
27 c-105 44 -217 69 -331 75 -166 9 -183 -13 -183 -227 0 -186 51 -365 136
-484 l41 -57 -12 -81 c-16 -112 -45 -183 -91 -228 -37 -35 -38 -38 -21 -54 10
-8 33 -21 51 -27 l32 -11 -21 -23 c-12 -13 -35 -29 -51 -35 -31 -13 -41 -35
-11 -26 9 3 37 10 62 16 108 27 240 74 232 82 -4 4 -46 -3 -93 -17 -104 -31
-118 -32 -96 -7 24 26 22 30 -23 42 -22 6 -40 15 -40 20 0 11 55 26 125 35 95
11 118 16 109 25 -9 7 -87 0 -165 -15 l-36 -7 28 59 c22 43 33 88 44 172 l15
113 -25 20 c-14 10 -45 61 -70 111 -58 117 -86 244 -87 387 -1 123 15 175 57
186 68 17 296 -29 418 -84 l68 -31 57 34 c31 19 90 47 130 61 54 20 72 31 67
42 -4 12 4 14 50 10 59 -5 75 3 54 28 -20 24 -5 26 65 8 37 -9 70 -14 73 -10
3 3 1 17 -5 31 -14 30 -8 31 58 5 34 -13 74 -20 123 -20 71 0 72 0 96 36 14
19 65 74 115 121 l91 85 44 -6 c24 -3 46 -8 49 -11 3 -2 -20 -37 -51 -77 -81
-106 -119 -198 -81 -198 8 0 32 11 52 25 49 33 56 32 32 -7 -11 -18 -20 -37
-20 -42 0 -9 50 -3 85 10 18 6 17 4 -5 -21 -15 -17 -21 -29 -14 -32 27 -9 129
-75 161 -104 44 -38 53 -30 60 50 9 97 -17 225 -72 354 -6 16 -4 18 16 15 70
-10 160 -337 132 -478 l-11 -55 51 -74 c67 -97 149 -185 187 -201 16 -7 30
-15 30 -19 0 -3 -38 -19 -85 -35 -79 -27 -104 -41 -93 -51 2 -3 45 11 96 30
117 44 136 45 97 5 -30 -31 -30 -32 29 -45 42 -9 20 -20 -91 -46 -51 -11 -93
-25 -93 -30 0 -5 6 -9 13 -9 13 1 91 17 122 27 17 5 18 4 6 -11 -12 -14 -10
-18 18 -29 28 -12 30 -15 17 -26 -9 -7 -49 -18 -91 -23 -96 -14 -99 -32 -3
-22 l71 7 -43 -79 c-61 -112 -112 -185 -180 -258 -54 -57 -158 -146 -172 -146
-3 0 -8 24 -10 53 -6 76 -40 141 -84 162 -34 16 -39 16 -79 0 -51 -19 -129
-93 -184 -174 -38 -55 -42 -58 -89 -64 -26 -3 -64 -13 -83 -22 -34 -17 -36
-16 -85 14 -66 42 -179 81 -232 81 -119 0 -154 -95 -88 -243 l25 -57 -28 0
c-54 0 -217 33 -286 57 -132 48 -378 186 -358 203 4 3 40 19 80 35 40 15 70
31 68 36 -3 4 -44 -6 -92 -22 -105 -35 -123 -37 -99 -10 10 11 15 25 11 31 -5
8 -25 -6 -59 -39 l-51 -51 -53 7 c-51 6 -52 5 -52 -20 0 -24 -2 -25 -29 -16
-35 12 -117 8 -114 -6 1 -5 4 -18 8 -27 5 -13 2 -15 -14 -11 -11 3 -34 0 -51
-5 -29 -11 -33 -9 -89 50 -57 61 -58 63 -64 132 -16 184 -90 359 -235 556 -11
15 -6 31 37 111 39 72 62 103 101 134 48 38 100 94 181 195 22 27 71 67 122
98 48 29 112 76 144 106 50 46 69 57 136 75 74 20 220 87 296 136 25 16 58 25
108 29 75 6 199 41 292 82 48 22 68 24 210 25 86 1 194 4 241 8 47 5 95 9 108
9 12 1 48 -5 81 -14z m285 -64 c8 0 25 -26 39 -57 46 -104 76 -259 63 -329
l-7 -35 -36 27 c-20 15 -58 40 -85 54 -48 26 -48 27 -28 45 36 32 26 48 -25
42 l-46 -5 21 36 c32 53 13 61 -54 23 -31 -17 -56 -29 -56 -26 0 17 49 98 92
152 53 68 75 85 96 78 8 -3 19 -5 26 -5z m242 -42 c35 -7 83 -27 120 -50 78
-49 193 -101 269 -123 43 -13 77 -33 123 -72 70 -59 184 -138 247 -171 22 -12
84 -68 138 -126 54 -58 127 -127 163 -153 48 -36 75 -66 106 -118 48 -82 144
-210 206 -276 32 -35 49 -67 68 -125 14 -42 50 -126 79 -185 l54 -107 -40 -16
c-23 -9 -68 -16 -107 -16 l-67 1 -34 49 c-90 134 -369 340 -460 340 -70 0
-184 -154 -251 -340 -18 -48 -34 -76 -45 -78 -14 -3 -16 1 -10 27 6 27 3 31
-20 37 -15 4 -51 4 -81 1 -52 -5 -54 -5 -54 19 0 34 -34 32 -93 -6 -35 -22
-47 -26 -47 -15 0 9 -9 15 -23 15 -24 0 -52 -16 -105 -62 -39 -33 -56 -36 -47
-8 4 13 1 22 -8 26 -8 3 -29 23 -47 45 l-32 40 50 53 c58 62 124 159 176 264
l36 72 55 0 c30 0 55 5 55 10 0 6 -10 10 -22 10 -13 0 -33 3 -46 6 -21 6 -22
8 -6 25 16 17 15 19 -10 29 -15 5 -32 10 -38 10 -6 0 -6 6 2 15 7 8 16 15 21
15 19 0 89 51 84 60 -3 6 -26 10 -50 10 -54 0 -62 10 -30 40 35 33 31 47 -15
55 -58 10 -114 57 -201 168 l-76 98 9 52 c17 100 -15 290 -68 406 -13 29 -24
55 -24 57 0 7 36 4 96 -8z m-1651 -38 c-72 -48 -213 -96 -469 -160 -261 -66
-364 -98 -447 -140 -21 -11 -39 -18 -39 -14 0 3 20 30 46 59 104 122 215 178
448 226 160 33 271 46 401 48 l90 1 -30 -20z m2541 -65 c40 -25 93 -62 117
-83 111 -91 213 -260 282 -468 37 -111 108 -384 101 -391 -7 -7 -92 100 -153
192 -33 50 -124 216 -201 370 -77 154 -161 311 -186 349 -25 38 -46 71 -46 72
0 10 19 1 86 -41z m-2932 -127 c-38 -43 -201 -139 -338 -199 -212 -93 -403
-193 -484 -253 -70 -53 -71 -54 -56 -23 33 64 105 156 165 210 115 104 359
208 614 262 61 13 112 23 114 24 2 1 -4 -9 -15 -21z m3367 -245 c181 -171 232
-324 274 -827 8 -99 13 -182 11 -184 -5 -5 -113 217 -133 272 -8 23 -41 145
-74 271 -68 262 -107 381 -155 477 -19 37 -34 70 -34 73 0 13 46 -21 111 -82z
m-3669 -10 c-88 -110 -338 -303 -392 -303 -59 0 -235 -146 -335 -278 -62 -83
-128 -142 -142 -129 -3 4 17 53 44 109 108 218 276 375 559 517 112 57 287
132 293 126 2 -2 -10 -21 -27 -42z m-251 -303 c-14 -27 -29 -50 -32 -50 -4 0
-17 8 -29 18 l-23 19 49 31 c27 17 52 31 55 31 4 1 -5 -21 -20 -49z m4289
-146 c68 -113 104 -259 116 -480 l7 -111 -60 -6 c-33 -4 -68 -10 -78 -13 -18
-7 -18 -6 -2 16 23 33 21 40 -8 40 -18 0 -25 5 -25 20 0 109 -56 560 -80 650
-6 19 -10 40 -9 45 0 17 103 -102 139 -161z m-4322 31 c137 -149 242 -399 242
-573 0 -49 2 -52 91 -145 107 -114 195 -182 252 -198 l42 -11 -100 -50 c-106
-52 -165 -88 -165 -100 0 -15 19 -8 86 33 59 36 187 99 200 99 3 0 -6 -15 -20
-33 -15 -19 -26 -39 -26 -44 0 -6 21 -16 46 -23 45 -13 46 -14 22 -26 -13 -7
-75 -31 -138 -54 -124 -46 -127 -47 -117 -57 6 -5 190 57 276 93 l34 15 -7
-53 c-10 -75 -42 -102 -138 -118 -99 -16 -150 -29 -144 -38 3 -5 49 -1 103 8
75 13 99 14 101 5 2 -7 -13 -54 -34 -104 -52 -132 -158 -287 -278 -406 l-100
-100 -7 49 c-11 72 -48 137 -91 160 -31 17 -41 18 -75 8 -55 -16 -128 -93
-188 -195 -45 -76 -54 -86 -85 -91 -47 -9 -91 -26 -113 -44 -16 -14 -23 -13
-70 6 -210 87 -320 90 -360 12 -24 -45 -17 -117 18 -184 l26 -49 -103 6 c-226
14 -410 68 -581 170 l-69 41 78 39 c102 52 79 60 -32 12 -47 -20 -88 -34 -91
-31 -4 3 3 16 15 29 29 31 28 45 -5 49 -22 2 -12 9 52 32 85 31 102 40 88 49
-5 3 -47 -7 -93 -24 -46 -16 -86 -29 -87 -29 -2 0 1 9 7 20 14 27 5 40 -28 40
-15 0 -33 4 -40 9 -18 11 33 35 137 62 44 12 81 26 81 31 0 15 -27 9 -182 -39
-16 -5 -15 0 4 53 16 45 22 92 26 202 l5 143 -42 35 c-118 101 -232 359 -247
558 -5 61 -3 90 9 117 14 34 19 37 79 48 129 22 331 7 452 -34 l44 -15 79 56
c43 31 104 69 136 85 60 31 68 42 40 54 -16 7 -15 9 7 15 14 5 53 8 88 9 66 1
75 10 45 43 -15 17 -15 18 9 18 14 0 49 -5 78 -10 29 -6 56 -8 59 -5 3 3 -3
19 -13 35 -20 35 -19 35 54 15 72 -19 170 -20 170 -2 0 53 215 297 324 368 55
36 60 38 86 24 15 -8 50 -39 78 -70z m4530 -397 c43 -73 72 -157 79 -236 6
-59 5 -65 -11 -59 -10 4 -41 7 -69 7 l-52 0 -3 103 c-2 56 -9 147 -16 201
l-12 99 25 -31 c14 -17 41 -55 59 -84z m-2151 -74 c28 -30 43 -84 43 -150 0
-37 9 -71 30 -117 44 -93 48 -127 18 -162 -19 -21 -35 -29 -74 -32 -103 -10
-266 55 -272 108 -3 24 0 26 49 32 104 13 123 83 23 81 -27 -1 -58 -4 -70 -8
-16 -6 -23 -2 -32 18 -10 22 -7 32 28 83 45 67 122 145 165 167 36 19 62 13
92 -20z m258 -138 c26 -26 31 -36 22 -46 -9 -9 -7 -15 11 -27 28 -20 28 -28
-3 -65 -37 -44 -91 -146 -110 -208 -17 -53 -20 -56 -81 -85 -35 -17 -64 -30
-64 -30 0 1 7 23 16 49 9 26 13 50 9 54 -11 11 -33 -26 -46 -76 -10 -40 -20
-53 -63 -82 l-51 -35 -70 23 c-38 13 -92 41 -120 62 -48 36 -87 60 -99 60 -3
0 -6 -13 -6 -30 0 -16 -2 -30 -4 -30 -3 0 -95 49 -104 56 -2 1 12 22 30 47 31
43 36 46 82 46 29 1 68 10 92 22 l43 20 43 -25 c68 -39 152 -59 223 -54 74 6
110 28 125 74 13 40 7 75 -27 152 -22 50 -23 56 -8 65 9 5 40 28 68 52 29 24
53 44 55 44 1 1 18 -14 37 -33z m365 15 c0 -6 -4 -13 -10 -16 -12 -7 -14 -45
-2 -45 4 0 25 7 47 15 22 8 60 14 84 15 42 0 43 -1 28 -18 -23 -26 -21 -42 6
-42 48 0 50 -10 33 -110 -18 -106 -20 -186 -6 -248 10 -41 8 -45 -31 -100 -53
-73 -120 -143 -131 -136 -4 3 -8 22 -8 42 0 58 -38 202 -66 250 -14 24 -37 47
-51 53 -31 12 -168 -10 -255 -40 -69 -24 -70 -20 -33 65 46 103 165 246 238
285 17 10 18 8 12 -19 -8 -38 7 -48 31 -20 23 25 94 78 106 78 4 0 8 -4 8 -9z
m-1233 -66 c94 -44 113 -60 113 -95 0 -26 -3 -28 -52 -32 -37 -4 -57 -12 -69
-27 -38 -47 12 -79 87 -56 26 8 51 12 56 9 19 -12 6 -55 -31 -101 -68 -86 -72
-88 -143 -75 -69 13 -78 10 -71 -18 4 -16 0 -20 -19 -20 -37 0 -58 45 -58 123
0 49 -7 84 -30 140 -36 91 -39 144 -8 176 32 35 122 25 225 -24z m-854 -39
c50 -35 109 -72 129 -82 33 -15 36 -20 26 -38 -6 -12 -12 -23 -14 -25 -2 -2
-31 21 -64 52 -36 34 -94 73 -145 98 -57 28 -81 45 -73 51 26 16 50 7 141 -56z
m-168 14 c32 -11 85 -35 119 -54 67 -38 154 -110 145 -120 -3 -3 -25 1 -49 9
-74 26 -104 21 -144 -27 -20 -23 -44 -64 -55 -92 -20 -54 -42 -66 -97 -52
l-23 6 31 49 c16 27 27 54 24 59 -3 5 -28 12 -55 15 -28 3 -63 13 -79 21 -34
18 -132 104 -132 117 0 5 27 9 60 9 55 0 75 10 50 25 -5 3 -10 12 -10 20 0 14
35 9 102 -15 44 -16 52 -12 39 24 -13 32 -5 33 74 6z m3705 10 c0 -5 -5 -10
-11 -10 -5 0 -7 5 -4 10 3 6 8 10 11 10 2 0 4 -4 4 -10z m-2378 -47 c10 -17
21 -54 25 -81 5 -46 4 -51 -22 -68 -18 -11 -47 -18 -79 -19 -46 0 -52 2 -65
30 -9 17 -15 57 -16 90 0 59 0 60 35 72 59 21 101 13 122 -24z m2608 -40 c0
-7 -7 -10 -15 -7 -9 4 -15 19 -15 38 l1 31 14 -25 c8 -14 14 -30 15 -37z m-74
20 c-10 -10 -19 5 -10 18 6 11 8 11 12 0 2 -7 1 -15 -2 -18z m-2376 2 c0 -15
-21 -22 -74 -27 -38 -4 -44 17 -9 30 43 16 83 14 83 -3z m-345 -75 c8 -13 -60
-42 -88 -38 -11 2 -22 8 -24 15 -8 22 99 45 112 23z m-600 -67 c44 -13 122
-29 173 -35 l92 -11 0 -39 c0 -21 7 -54 14 -73 20 -46 6 -45 -53 5 -63 53 -86
51 -33 -3 23 -23 42 -46 42 -49 0 -3 -22 -9 -50 -13 -48 -7 -51 -5 -97 34 -51
46 -159 113 -240 150 -45 21 -51 27 -42 42 6 13 6 19 -1 19 -6 0 -6 7 2 19 11
19 13 19 62 -1 28 -12 87 -31 131 -45z m-304 -13 c148 -49 310 -141 390 -221
l36 -36 84 18 c46 10 118 21 159 23 41 3 77 5 79 5 2 1 -4 10 -14 21 -17 19
-17 20 1 20 10 0 46 -12 79 -25 80 -33 88 -33 80 6 l-7 32 58 -33 c33 -18 63
-37 69 -42 19 -17 37 -9 30 15 -4 12 -9 31 -12 41 -4 14 13 5 58 -31 37 -29
83 -56 109 -63 25 -7 57 -18 72 -26 26 -14 31 -12 95 32 122 84 310 160 456
185 90 15 97 12 127 -67 80 -215 58 -635 -40 -756 -18 -22 -17 -25 20 -130 48
-134 95 -224 132 -251 15 -11 28 -24 28 -28 0 -4 -67 -8 -150 -10 -95 -3 -153
-8 -161 -16 -9 -9 31 -10 166 -6 194 7 200 4 119 -43 -24 -14 -44 -29 -44 -32
0 -3 14 -21 32 -39 38 -39 41 -39 -129 -11 -118 19 -158 20 -141 3 3 -3 45
-12 94 -19 58 -8 89 -17 93 -27 2 -8 19 -29 38 -47 18 -19 33 -35 33 -37 0
-13 -80 -9 -145 6 -86 20 -145 25 -129 10 5 -5 53 -19 108 -31 l98 -22 -68
-70 c-135 -137 -331 -246 -551 -308 -130 -37 -137 -37 -129 -7 34 118 28 196
-19 243 -56 56 -203 12 -361 -107 -35 -26 -45 -29 -63 -20 -11 7 -54 13 -93
15 l-73 3 -87 87 c-150 150 -259 176 -321 77 -18 -30 -22 -51 -22 -118 0 -46
-3 -83 -6 -83 -14 0 -174 102 -231 148 -77 61 -199 188 -250 259 l-37 52 65 6
c35 4 64 11 64 16 0 5 -33 9 -72 9 -92 0 -114 12 -76 41 17 12 25 26 21 35 -5
14 3 15 61 9 42 -5 66 -4 66 3 0 14 -37 22 -112 22 -38 0 -68 3 -68 6 0 3 10
15 23 25 21 19 21 20 3 32 -10 7 -28 20 -40 30 -21 18 -19 18 59 13 44 -3 97
-9 118 -12 22 -4 37 -3 37 4 0 13 -31 21 -118 29 l-73 6 45 46 c47 48 94 136
141 260 20 53 25 76 16 79 -32 11 -71 190 -71 331 0 152 42 358 87 431 22 35
55 70 66 70 5 0 49 -13 98 -30z m-285 -488 c0 -70 3 -140 7 -155 10 -38 -12
-32 -31 7 -8 15 -26 32 -42 37 l-27 10 37 97 c21 53 40 105 43 115 4 9 8 17 9
17 2 0 3 -57 4 -128z m-61 -163 c-4 -13 -1 -21 12 -26 45 -16 71 -45 92 -104
l23 -61 -47 -109 c-54 -124 -102 -186 -170 -218 -40 -19 -44 -24 -35 -40 5
-11 24 -30 42 -42 l31 -23 -39 -16 c-21 -9 -57 -21 -79 -25 l-40 -8 45 -8 c25
-5 67 -11 94 -15 l48 -7 -38 -33 c-22 -19 -58 -43 -81 -53 -24 -11 -43 -22
-43 -26 0 -3 31 -2 69 1 l68 7 40 -54 c57 -78 56 -77 38 -106 -22 -33 -66 -72
-82 -73 -6 0 -15 20 -19 45 -3 26 -10 42 -16 39 -6 -4 -8 -26 -4 -54 6 -44 4
-48 -16 -54 -13 -3 -40 -6 -60 -6 -41 0 -52 12 -63 73 -11 57 -29 46 -22 -13
l6 -50 -27 14 c-34 18 -64 51 -88 96 -15 28 -19 57 -19 146 l0 111 34 38 c30
35 33 42 29 91 -4 40 -14 67 -48 119 l-43 66 39 31 c93 75 236 239 291 338 25
45 28 47 55 38 22 -8 27 -15 23 -29z m-510 -161 c35 -28 54 -72 64 -157 7 -53
18 -84 50 -136 90 -150 60 -211 -104 -209 -63 1 -96 7 -155 30 -69 27 -75 32
-78 60 -3 30 -1 32 40 38 58 9 88 31 88 61 0 49 -44 52 -142 11 -12 -6 -21 0
-31 21 -14 26 -14 31 15 85 58 110 162 218 208 218 10 0 30 -10 45 -22z m2931
-276 l25 -32 -25 -10 c-16 -6 -25 -16 -23 -27 1 -10 -2 -20 -8 -23 -12 -6 -34
38 -75 150 -26 70 -29 89 -20 109 11 24 13 22 56 -55 25 -43 57 -94 70 -112z
m-3552 -3 c116 -38 136 -52 136 -88 0 -26 -4 -29 -44 -35 -83 -13 -126 -73
-70 -98 25 -12 48 -7 125 26 10 5 20 -1 28 -18 12 -22 11 -30 -14 -73 -84
-143 -191 -213 -266 -173 -29 16 -49 63 -55 132 -5 46 -17 85 -47 143 -47 93
-55 159 -23 194 29 32 116 29 230 -10z m308 0 c25 -13 55 -81 60 -134 3 -38 1
-41 -42 -62 -53 -27 -101 -29 -123 -5 -8 9 -23 45 -33 79 -17 60 -17 64 1 83
14 16 69 40 113 49 2 1 12 -4 24 -10z m193 -29 c8 -13 -35 -38 -74 -42 -45 -4
-50 14 -9 34 38 19 74 23 83 8z m3149 -94 c65 -74 184 -176 269 -230 31 -20
57 -43 57 -50 0 -7 -16 -43 -35 -80 -65 -125 -42 -217 60 -246 39 -11 59 -10
126 3 44 8 109 29 143 45 l64 30 50 -25 c31 -15 70 -26 100 -26 47 -2 50 -4
78 -50 57 -95 160 -175 249 -192 36 -7 28 -10 -95 -30 -138 -23 -261 -52 -340
-80 -100 -36 -550 -145 -594 -145 -17 0 -44 94 -32 112 6 11 3 26 -12 51 -12
19 -20 41 -17 49 4 9 -5 28 -19 44 -17 21 -23 37 -19 55 4 20 -2 31 -22 48
-24 18 -26 23 -14 37 12 15 10 20 -21 43 -19 14 -65 57 -102 95 -65 68 -66 70
-50 93 10 12 35 28 57 34 22 6 44 13 48 16 5 3 -13 25 -40 49 l-48 44 90 -6
c77 -4 87 -3 69 8 -44 27 -109 91 -97 95 30 11 103 76 103 91 0 10 -23 31 -56
51 -65 39 -75 56 -45 78 12 8 20 21 17 28 -5 13 2 25 14 25 4 0 33 -29 64 -64z
m-3504 -31 c0 -12 -67 -45 -92 -45 -34 0 -36 13 -6 34 21 15 98 23 98 11z
m4041 -33 c52 -34 100 -86 158 -170 l41 -61 -21 -35 c-20 -34 -22 -35 -44 -20
-63 41 -135 36 -135 -11 0 -34 51 -65 108 -65 l44 0 -7 -32 c-9 -39 0 -31 -61
-61 -105 -53 -237 -72 -294 -42 -54 28 -53 98 5 207 25 48 35 80 35 112 0 115
44 206 99 206 15 0 47 -13 72 -28z m-4791 -29 c2 -2 -4 -16 -14 -31 -9 -15
-27 -48 -39 -74 -21 -49 -34 -59 -43 -34 -5 12 21 130 33 148 4 7 52 0 63 -9z
m1085 -15 c46 -17 81 -22 153 -23 l92 0 -7 -60 c-9 -70 -9 -94 1 -156 22 -147
189 -236 339 -179 55 21 113 65 134 103 8 16 21 7 102 -73 l93 -92 -39 -31
c-62 -50 -121 -114 -160 -175 -21 -31 -39 -59 -40 -61 -2 -3 -20 12 -41 32
-20 20 -57 45 -82 56 -97 42 -497 131 -776 171 -222 33 -400 80 -390 105 11
30 18 84 11 96 -5 7 -19 -19 -36 -62 -16 -41 -43 -91 -60 -112 -32 -39 -83
-72 -98 -62 -5 3 -12 28 -16 55 -10 72 -29 53 -21 -20 6 -54 5 -58 -16 -64
-13 -3 -40 -6 -60 -6 -45 0 -66 25 -71 85 -2 22 -8 42 -13 45 -13 7 -17 -57
-5 -91 12 -36 6 -36 -51 0 -109 70 -128 245 -44 426 13 28 32 61 43 74 18 22
21 23 79 11 32 -7 113 -15 179 -19 l120 -6 7 -66 c9 -99 51 -163 115 -175 73
-14 194 78 263 200 25 43 33 49 66 52 20 2 58 14 83 28 52 27 62 27 146 -6z
m-1232 -136 c45 -34 54 -45 50 -65 -4 -21 -13 -26 -49 -32 -61 -9 -206 -84
-280 -144 -71 -58 -69 -60 -80 64 l-7 70 48 53 c69 77 126 103 212 98 42 -2
61 -10 106 -44z m22 38 c3 -5 2 -10 -4 -10 -5 0 -13 5 -16 10 -3 6 -2 10 4 10
5 0 13 -4 16 -10z m5707 -68 c32 -32 26 -106 -16 -198 -30 -64 -36 -88 -36
-146 0 -107 -37 -168 -100 -168 -66 1 -179 86 -241 181 -28 44 -30 52 -20 78
l12 28 37 -18 c60 -31 122 -23 122 16 0 34 -34 57 -90 63 l-51 5 3 36 c3 34 7
38 88 78 145 73 249 89 292 45z m-452 -60 c34 -17 35 -18 35 -77 -1 -38 -8
-74 -20 -99 l-18 -38 -53 5 c-28 3 -66 13 -84 22 -32 17 -32 17 -26 72 7 57
37 128 58 136 18 8 67 -2 108 -21z m-214 -37 c38 -25 30 -39 -18 -31 -50 8
-92 32 -82 48 9 13 69 4 100 -17z m-5025 -47 l-3 -63 -26 53 c-23 45 -24 54
-12 62 37 23 45 13 41 -52z m36 -185 c78 -158 108 -230 100 -235 -37 -20 -185
-137 -252 -198 -43 -39 -81 -67 -85 -63 -18 21 -170 495 -170 532 0 19 124
112 204 151 43 22 81 40 85 40 3 0 56 -102 118 -227z m6207 212 c-1 -18 -34
-18 -34 0 0 10 7 15 18 13 9 -2 17 -8 16 -13z m-57 -61 c15 -73 16 -114 3
-114 -5 0 -10 4 -10 9 0 5 -20 39 -43 74 l-44 65 31 15 c17 9 35 14 41 13 5
-1 15 -29 22 -62z m237 12 c32 -17 75 -51 94 -74 l35 -42 -49 21 c-58 26 -163
36 -218 20 -22 -6 -42 -9 -44 -7 -2 3 -7 21 -12 41 -8 33 -6 37 28 61 46 31
81 27 166 -20z m-6829 -62 c20 -111 55 -233 144 -494 165 -483 239 -685 253
-688 36 -7 248 169 498 413 291 284 378 360 530 462 97 65 217 125 238 119 9
-2 30 -7 47 -11 27 -6 24 -9 -65 -56 -175 -93 -280 -180 -630 -524 -265 -261
-367 -351 -510 -452 -113 -80 -148 -97 -165 -83 -18 15 -359 1043 -386 1168
l-23 102 24 70 c13 38 25 68 27 66 2 -1 10 -43 18 -92z m6494 26 c72 -89 105
-212 81 -300 -11 -42 -83 -130 -106 -130 -5 0 -9 22 -9 50 0 27 -6 55 -13 62
-9 9 -12 0 -12 -49 0 -53 -3 -64 -22 -77 -23 -17 -94 -21 -115 -8 -6 4 -13 32
-15 62 -2 31 -7 53 -13 50 -5 -3 -8 -17 -6 -32 1 -15 -1 -37 -4 -49 -6 -17
-12 -19 -33 -14 -38 9 -97 56 -138 108 -33 43 -35 49 -25 78 6 18 11 62 11 98
0 78 16 115 50 119 54 6 232 44 267 57 57 21 67 18 102 -25z m-678 -1 c24 -13
24 -26 -1 -34 -26 -8 -114 31 -104 46 7 12 74 5 105 -12z m-2842 -25 c58 -29
211 -171 211 -197 0 -8 -4 -27 -9 -40 -10 -25 -10 -25 -56 -10 -61 21 -109 9
-113 -29 -5 -38 29 -58 100 -58 57 0 58 0 58 -29 0 -37 -48 -77 -154 -127
-103 -49 -176 -52 -212 -11 -31 36 -32 92 -3 173 17 50 20 73 14 147 -7 103 5
158 42 186 34 28 58 26 122 -5z m1635 -57 c30 -35 66 -69 81 -77 28 -15 33
-30 10 -30 -27 0 -16 -19 26 -47 39 -26 40 -27 18 -35 -22 -8 -21 -10 21 -53
24 -25 39 -45 32 -45 -19 0 -14 -18 13 -54 29 -38 31 -46 11 -46 -11 0 -8 -13
10 -57 21 -53 29 -83 21 -83 -2 0 -106 -16 -231 -35 -126 -19 -236 -35 -246
-35 -16 0 -13 8 16 51 46 68 33 77 -19 14 -22 -27 -91 -100 -152 -162 -87 -87
-126 -119 -176 -143 -90 -42 -93 -41 -85 25 9 75 -10 71 -26 -6 l-12 -61 -43
6 c-23 3 -59 12 -79 21 -36 15 -36 16 -31 58 3 23 9 52 13 65 3 12 2 22 -3 22
-14 0 -33 -47 -33 -82 l0 -31 -26 24 c-95 87 -61 264 74 390 112 103 135 119
192 134 177 46 385 162 505 283 28 27 53 50 57 51 3 1 31 -27 62 -62z m2257
17 c107 -31 134 -60 185 -196 24 -64 28 -87 28 -193 1 -66 -3 -138 -8 -160 -9
-39 -10 -37 -16 41 -15 182 -140 312 -346 360 -38 9 -75 18 -81 20 -25 7 -15
69 15 96 52 49 128 60 223 32z m-5857 -20 l48 -17 -98 -42 c-117 -49 -247
-114 -327 -162 -32 -19 -60 -34 -61 -32 -7 8 -96 189 -96 195 0 3 16 -8 35
-25 108 -94 303 -72 406 48 24 28 44 51 45 51 0 0 22 -7 48 -16z m2771 -29
c36 -35 37 -97 4 -205 -13 -40 -18 -77 -14 -98 5 -28 1 -39 -36 -80 -23 -26
-51 -66 -62 -89 -12 -24 -25 -43 -29 -43 -50 0 -238 154 -238 194 0 39 11 45
67 33 43 -9 55 -8 77 6 32 21 33 38 5 63 -16 14 -36 19 -80 19 l-59 -1 0 36
c0 33 5 39 78 87 153 103 239 127 287 78z m-3834 -115 c20 -83 350 -1085 370
-1122 22 -41 88 -10 266 124 136 101 240 196 523 474 311 305 405 381 591 475
l82 41 121 -28 c146 -32 254 -68 275 -89 15 -15 13 -16 -14 -8 -124 33 -332
-54 -535 -225 -94 -78 -199 -193 -497 -542 -279 -326 -547 -557 -799 -687
-137 -70 -176 -60 -230 62 -32 73 -200 578 -243 730 -41 147 -70 293 -78 386
-7 96 12 187 78 369 65 177 61 169 66 145 2 -11 13 -58 24 -105z m1291 87 c57
-10 73 -18 108 -52 50 -49 86 -104 74 -114 -5 -4 -38 -28 -74 -53 -85 -59
-212 -171 -376 -331 l-133 -128 -69 118 c-71 121 -182 327 -182 337 0 18 254
151 415 218 75 31 89 31 237 5z m1500 -120 l47 -27 -20 -57 c-31 -91 -19 -201
23 -215 34 -12 -103 -156 -179 -190 -56 -25 -66 -15 -58 55 3 26 2 47 -4 47
-14 0 -21 -27 -21 -82 l0 -51 -52 7 c-29 4 -64 13 -78 20 -23 11 -25 16 -23
79 1 56 -1 66 -12 57 -8 -7 -17 -32 -21 -56 l-6 -44 -28 32 c-42 48 -56 108
-42 177 22 102 67 178 172 285 l98 98 78 -54 c44 -30 100 -67 126 -81z m-1234
77 c52 -9 90 -20 85 -24 -4 -4 -37 -23 -73 -43 l-66 -36 -44 57 c-57 73 -58
75 -24 68 16 -3 71 -13 122 -22z m1864 -55 c23 -12 31 -75 18 -134 -15 -67
-24 -75 -84 -75 -98 0 -128 41 -106 146 15 70 37 87 105 78 28 -3 57 -10 67
-15z m3305 -14 c35 -25 56 -96 51 -168 -9 -112 -60 -196 -157 -258 -57 -37
-68 -37 -41 0 61 86 99 227 100 369 0 77 7 85 47 57z m147 -42 c48 -24 48 -25
42 -65 -4 -22 -14 -54 -22 -70 -17 -33 -92 -118 -104 -118 -4 0 -2 17 6 38 18
50 17 150 -1 202 -8 23 -15 45 -15 47 0 7 42 -8 94 -34z m-3667 -15 c13 -14
11 -16 -22 -22 -52 -10 -113 13 -99 36 9 15 103 4 121 -14z m2896 -12 c4 -10
-5 -16 -30 -21 -19 -3 -38 -4 -41 -1 -3 3 2 6 10 6 9 0 21 7 28 15 16 19 26
19 33 1z m-2508 -36 c0 -11 -11 -15 -45 -15 -54 1 -84 11 -75 25 4 6 31 10 63
8 43 -2 57 -7 57 -18z m3453 -110 c22 -46 27 -71 30 -155 4 -88 1 -110 -22
-180 -27 -78 -172 -362 -246 -479 -32 -50 -39 -56 -47 -41 -6 11 -7 32 -2 54
5 20 9 60 9 90 0 38 8 70 26 108 30 60 42 165 27 223 -8 28 -5 44 11 80 13 30
21 75 24 135 4 85 7 92 38 129 19 22 42 64 51 93 l17 53 28 -27 c16 -15 41
-52 56 -83z m-413 -5 c-34 -150 -133 -281 -235 -310 -21 -7 -18 0 23 44 51 54
97 142 120 226 9 34 27 65 58 97 52 55 58 46 34 -57z m-5953 -18 c31 -61 87
-161 122 -222 36 -60 66 -115 66 -122 0 -25 -377 -343 -407 -343 -6 0 -52 118
-103 261 l-93 262 73 66 c82 75 260 211 275 211 5 0 36 -51 67 -113z m3223 93
c-36 -24 -45 -25 -45 -6 0 13 10 17 65 24 6 1 -3 -7 -20 -18z m2267 -16 c41
-37 116 -74 149 -74 10 0 19 -5 19 -11 0 -15 -83 -134 -256 -369 -307 -416
-524 -715 -687 -945 -345 -487 -508 -696 -650 -832 -135 -129 -170 -130 -346
-12 -183 122 -415 320 -816 693 -320 298 -813 753 -1149 1060 -77 71 -202 186
-276 255 -74 69 -153 140 -175 158 l-40 32 60 26 c64 29 129 35 238 21 54 -7
58 -9 52 -29 -4 -12 -9 -57 -12 -99 -5 -66 -2 -83 17 -123 46 -96 176 -164
283 -150 51 7 137 43 168 71 8 8 19 14 22 14 34 0 802 -654 1180 -1005 410
-380 557 -496 608 -480 11 4 96 97 188 208 229 276 293 348 601 677 443 472
565 622 744 908 14 23 29 42 32 42 4 0 24 -16 46 -36z m-95 11 c-11 -28 -145
-221 -222 -320 -117 -150 -216 -262 -505 -570 -280 -298 -449 -489 -624 -703
-59 -73 -123 -149 -142 -168 l-33 -36 -42 24 c-23 12 -87 60 -143 105 -103 83
-157 131 -493 442 -217 202 -685 605 -920 794 l-162 130 31 36 c18 20 36 35
42 33 20 -6 175 -117 315 -226 220 -169 441 -364 791 -697 388 -369 525 -489
559 -489 10 0 50 39 91 88 167 196 351 402 546 608 347 368 659 730 781 906
31 46 44 52 112 57 17 1 22 -3 18 -14z m-146 -23 c-20 -37 -35 -42 -66 -22
l-29 19 25 5 c45 10 64 14 72 15 4 0 3 -7 -2 -17z m-87 -33 c20 -12 36 -26 36
-32 0 -23 -380 -477 -398 -477 -4 0 -29 28 -57 61 -63 77 -179 177 -273 236
l-73 46 148 37 c81 21 227 60 323 88 256 73 243 71 294 41z m-2475 -19 l66 2
65 -64 c40 -39 89 -74 127 -93 34 -16 61 -30 60 -31 -1 -2 -45 5 -97 15 -52
11 -185 33 -295 51 -110 18 -207 34 -215 37 -9 2 5 15 38 33 29 15 66 40 82
54 29 24 32 24 66 10 22 -9 62 -15 103 -14z m3151 -7 c0 -19 -30 -104 -49
-141 -39 -77 -131 -164 -186 -178 l-30 -7 43 48 c54 62 105 145 128 212 15 41
24 53 49 61 39 13 45 14 45 5z m-4584 -22 c16 -10 91 -76 165 -147 74 -71 186
-178 249 -237 126 -119 124 -123 -25 -52 -97 46 -240 143 -345 233 -85 73
-170 154 -170 164 0 6 79 58 90 58 3 0 19 -8 36 -19z m4454 -48 c-20 -62 -68
-139 -116 -188 -25 -25 -50 -45 -55 -45 -12 0 -11 3 71 120 36 52 75 109 85
127 24 41 30 35 15 -14z m-4508 -106 c116 -104 190 -162 296 -232 39 -26 72
-50 72 -52 0 -3 -24 -2 -52 2 -90 11 -203 54 -295 112 -105 65 -223 159 -223
176 0 10 85 86 97 87 1 0 49 -42 105 -93z m4934 -22 c-6 -36 -63 -152 -71
-143 -1 1 0 49 3 105 5 102 5 103 36 123 l31 19 3 -32 c2 -17 1 -50 -2 -72z
m-3791 80 c64 -6 480 -72 603 -96 44 -9 52 -14 52 -32 -1 -14 -17 -35 -46 -57
-48 -38 -127 -118 -185 -188 l-35 -44 -150 119 c-82 66 -189 148 -239 183
-149 105 -156 111 -149 121 3 6 22 8 43 5 20 -3 68 -8 106 -11z m2077 -64
c123 -72 254 -184 335 -287 l32 -41 -154 -164 c-84 -90 -194 -207 -244 -259
l-90 -95 -28 35 c-99 124 -194 231 -301 341 l-123 127 68 65 c160 154 380 317
428 317 6 0 40 -18 77 -39z m-206 -4 c-16 -12 -64 -48 -105 -79 -42 -31 -120
-97 -174 -147 -55 -50 -101 -91 -104 -91 -2 0 -34 26 -71 59 -37 32 -83 72
-101 89 -35 29 -35 30 -18 56 10 14 27 32 40 40 12 8 117 28 232 45 116 17
230 35 255 40 70 14 78 12 46 -12z m1811 -109 c-8 -127 -13 -136 -99 -183
l-51 -28 6 44 c4 24 9 78 13 119 l6 75 62 41 c33 23 63 42 65 43 2 0 1 -49 -2
-111z m-4962 21 c44 -35 91 -72 105 -82 l25 -18 -55 5 c-69 7 -157 30 -222 58
l-49 21 47 48 c29 30 52 45 58 40 6 -5 47 -37 91 -72z m4794 -95 c-1 -78 -5
-100 -19 -114 -38 -38 -177 -124 -274 -171 -105 -50 -381 -147 -391 -137 -4 3
36 65 86 137 l93 131 65 21 c78 26 165 68 241 117 47 31 189 111 198 112 1 0
2 -43 1 -96z m-2849 50 c0 -32 42 -95 86 -129 51 -38 126 -65 185 -65 89 0
203 54 290 137 l35 34 30 -23 c61 -46 174 -151 174 -161 0 -5 -42 -53 -92
-106 -111 -115 -240 -274 -311 -382 -29 -43 -54 -79 -57 -79 -3 0 -72 64 -155
141 -82 78 -216 200 -297 271 l-148 131 32 41 c50 65 208 217 219 211 5 -4 9
-13 9 -21z m-1946 -83 c33 -5 82 -13 109 -16 l47 -6 0 -60 c0 -49 -3 -59 -17
-59 -24 0 -466 80 -472 85 -2 3 21 33 52 68 l56 64 82 -32 c45 -18 109 -38
143 -44z m4476 20 c0 -16 -6 -33 -12 -39 -16 -12 -120 -53 -125 -48 -2 2 17
29 42 60 33 40 53 56 71 56 20 0 24 -5 24 -29z m100 24 c0 -5 -55 -35 -65 -35
-4 0 -5 6 -3 12 5 14 68 36 68 23z m467 -96 c-7 -80 -33 -144 -73 -184 -43
-41 -155 -112 -230 -145 -70 -32 -229 -90 -245 -90 -5 0 -9 38 -9 84 l0 83 98
55 c53 30 115 61 137 68 105 34 269 136 294 184 23 42 34 19 28 -55z m-4765 2
l73 -30 -4 -73 c-1 -40 -4 -74 -5 -76 -8 -8 -161 36 -160 46 1 7 2 46 3 87 0
41 5 75 10 75 5 0 43 -13 83 -29z m226 -47 c48 -4 98 -12 112 -19 14 -7 58
-22 97 -33 73 -20 85 -29 263 -190 3 -2 -24 -1 -60 3 -77 8 -329 72 -450 113
-82 28 -85 30 -88 62 -5 49 6 83 24 76 9 -3 55 -9 102 -12z m-705 -19 c53 -9
140 -31 192 -50 154 -56 370 -106 539 -125 49 -5 110 -16 135 -24 25 -8 57
-17 71 -20 l25 -5 -1 -121 c-1 -66 -3 -122 -5 -125 -9 -8 -326 36 -439 61
-125 28 -370 107 -545 176 l-110 44 -3 64 c-5 96 5 152 26 146 9 -3 61 -12
115 -21z m-176 -242 c-3 -2 -15 0 -28 6 -13 5 -45 17 -71 26 -34 12 -48 22
-48 35 0 10 33 58 73 107 l72 88 3 -129 c1 -71 1 -131 -1 -133z m3382 -28
c116 -130 201 -233 208 -252 3 -7 -33 -55 -79 -105 -92 -101 -253 -288 -307
-355 -19 -24 -38 -43 -42 -43 -22 0 -464 396 -476 426 -10 28 206 310 366 477
l94 98 65 -63 c35 -35 112 -117 171 -183z m-2859 205 c0 -5 -7 -7 -15 -4 -8 4
-15 8 -15 10 0 2 7 4 15 4 8 0 15 -4 15 -10z m263 -57 c-7 -2 -19 -2 -25 0 -7
3 -2 5 12 5 14 0 19 -2 13 -5z m4563 -157 c-9 -29 -25 -64 -36 -77 l-20 -24 6
85 c5 75 9 88 32 109 l27 25 3 -32 c2 -18 -4 -57 -12 -86z m-523 -90 l-8 -59
-69 -29 c-38 -15 -70 -27 -71 -26 -1 2 1 54 4 116 l6 114 70 27 70 27 3 -56
c1 -30 -1 -82 -5 -114z m-4909 119 c118 -37 261 -69 360 -81 32 -3 102 -22
155 -40 l96 -34 3 -110 c1 -60 -1 -110 -5 -110 -17 0 -375 62 -472 81 -58 12
-138 32 -178 45 -89 29 -233 94 -233 105 0 7 151 177 159 178 2 1 53 -15 115
-34z m209 -11 c29 -13 43 -22 32 -20 -11 3 -36 7 -55 11 -59 11 -70 16 -70 31
0 18 16 14 93 -22z m5143 -26 c-15 -137 -27 -177 -62 -206 -18 -15 -47 -35
-65 -46 l-32 -19 7 44 c3 24 11 82 16 128 5 47 14 89 20 95 12 12 102 63 114
65 5 1 6 -27 2 -61z m-3978 33 l27 -7 3 -152 c2 -129 0 -152 -12 -152 -24 0
-120 22 -127 29 -4 3 -10 73 -14 155 l-7 148 51 -7 c29 -4 64 -10 79 -14z
m291 -180 c99 -91 179 -166 178 -167 -3 -3 -293 71 -372 94 l-30 8 -3 118 -3
117 25 -3 c15 -2 95 -67 205 -167z m3071 137 c0 -18 -3 -63 -6 -99 l-7 -67
-171 -80 c-176 -83 -276 -125 -276 -117 0 16 245 332 263 338 25 9 178 54 190
56 4 0 7 -14 7 -31z m454 -40 c-2 -13 -8 -60 -15 -105 l-11 -82 -52 -38 c-118
-88 -257 -162 -398 -212 -73 -25 -358 -101 -381 -101 -4 0 -7 43 -7 95 l0 95
98 45 c53 26 138 57 187 71 164 45 327 117 441 195 46 31 101 57 125 58 11 1
15 -6 13 -21z m-4442 -98 l57 -13 3 -139 c2 -77 2 -141 0 -143 -4 -4 -137 31
-151 39 -7 5 -11 54 -11 143 0 135 0 135 23 130 12 -3 48 -10 79 -17z m4653
-80 c-19 -140 -54 -194 -175 -272 -71 -46 -304 -147 -315 -137 -2 3 -2 49 2
101 l6 96 71 45 c39 24 84 48 101 51 53 13 177 75 222 112 24 20 51 50 60 67
l16 32 9 -25 c5 -14 7 -45 3 -70z m-5606 46 c42 -18 84 -36 94 -39 15 -6 17
-20 17 -112 0 -58 -2 -105 -5 -105 -38 0 -399 91 -412 104 -12 12 181 185 206
186 13 0 58 -15 100 -34z m1231 -37 c189 -67 365 -98 665 -118 77 -6 160 -16
185 -23 l45 -14 3 -108 3 -109 -188 6 c-299 9 -436 33 -726 129 -134 44 -160
56 -168 76 -5 13 -9 66 -9 118 l0 94 43 -6 c23 -4 89 -24 147 -45z m168 5 c19
-3 32 -11 32 -19 0 -19 5 -19 -74 5 -96 30 -86 33 42 14z m-1104 -97 c6 -28 9
-238 4 -237 -2 1 -34 11 -73 24 l-70 23 -7 44 c-3 24 -7 83 -7 130 l-1 86 74
-20 c68 -18 75 -22 80 -50z m1451 38 c80 -24 80 -24 34 -24 -87 -2 -139 10
-139 30 0 24 8 24 105 -6z m-1307 -35 c35 -6 119 -32 185 -57 160 -59 362
-109 517 -128 105 -12 282 -54 298 -70 3 -2 7 -47 10 -99 l5 -95 -49 4 c-27 2
-92 7 -145 9 -147 8 -300 34 -427 72 -108 33 -351 121 -454 166 l-48 20 0 100
c0 99 0 100 23 95 12 -3 51 -11 85 -17z m360 -57 c12 -3 22 -12 22 -20 0 -16
-7 -14 -95 19 l-50 18 50 -6 c28 -3 60 -8 73 -11z m-1115 -6 c13 -9 20 -37 27
-105 6 -52 13 -105 16 -118 6 -25 6 -25 -69 13 -76 37 -76 37 -83 83 -3 25 -8
52 -10 61 -3 11 10 28 38 48 47 34 56 37 81 18z m169 -46 c42 -11 98 -31 125
-44 136 -69 365 -136 533 -157 50 -6 134 -27 206 -52 l122 -43 6 -44 c3 -24 6
-64 6 -89 l0 -45 -72 7 c-373 35 -614 98 -874 228 -155 77 -155 77 -161 182
-6 83 -5 88 13 82 10 -3 53 -14 96 -25z m4648 -110 l0 -118 -67 -25 -68 -25
-3 79 c-3 77 -3 78 38 133 36 49 65 72 93 74 4 1 7 -52 7 -118z m-2160 -87 c0
-33 -1 -34 -44 -34 -24 0 -64 3 -90 6 l-46 7 0 109 0 110 90 -82 c79 -73 90
-86 90 -116z m-1255 166 c3 -5 -1 -10 -9 -10 -8 0 -18 5 -21 10 -3 6 1 10 9
10 8 0 18 -4 21 -10z m-1545 -20 c0 -22 -7 -25 -29 -11 -16 10 -6 31 15 31 8
0 14 -9 14 -20z m578 -5 c14 -14 -10 -14 -39 0 l-34 15 34 -5 c19 -3 37 -7 39
-10z m4966 -97 c-3 -62 -7 -119 -10 -126 -3 -11 -134 -77 -139 -70 0 2 1 59 3
126 l4 124 62 28 c33 16 67 29 74 29 10 1 11 -24 6 -111z m456 73 c0 -35 -40
-148 -57 -162 -15 -12 -16 -12 -10 3 3 9 9 45 13 80 6 58 25 98 46 98 4 0 8
-9 8 -19z m-6024 -46 c75 -49 244 -120 324 -135 27 -5 65 -17 82 -27 18 -9 78
-35 133 -58 l100 -42 7 -79 c3 -43 4 -81 2 -83 -6 -7 -138 22 -284 61 -156 42
-317 112 -402 175 -54 39 -98 113 -98 165 0 23 39 67 61 68 3 0 37 -20 75 -45z
m883 -6 c28 -12 50 -23 48 -25 -2 -2 -29 1 -60 7 -36 8 -57 17 -57 25 0 19 8
18 69 -7z m4511 -23 c0 -23 -3 -71 -6 -105 l-7 -62 -76 -38 c-135 -68 -310
-140 -409 -170 -110 -32 -363 -85 -386 -79 -10 2 13 40 82 133 l97 129 60 12
c83 17 313 98 388 136 56 28 214 85 245 87 8 1 12 -14 12 -43z m550 36 c0 -36
-35 -201 -46 -219 -16 -25 -103 -88 -110 -80 -3 3 2 53 10 111 9 59 16 111 16
116 0 9 106 78 123 79 4 1 7 -3 7 -7z m-3900 -46 l65 -12 6 -119 c4 -66 6
-121 5 -121 0 -1 -32 4 -71 10 -68 12 -70 13 -76 46 -6 29 -13 177 -10 203 1
9 1 9 81 -7z m250 -31 c58 -4 127 -13 155 -21 75 -21 262 -44 377 -45 l102 -1
127 -116 127 -117 -42 -8 c-22 -4 -133 -6 -246 -4 -171 4 -224 9 -321 30 -140
31 -392 96 -408 107 -7 4 -15 45 -18 100 l-6 93 24 -6 c13 -3 71 -9 129 -12z
m2520 -15 c0 -29 -28 -56 -51 -48 -8 3 36 78 46 78 3 0 5 -13 5 -30z m-2207 3
c-7 -2 -19 -2 -25 0 -7 3 -2 5 12 5 14 0 19 -2 13 -5z m267 -8 c10 -12 10 -15
-4 -15 -9 0 -16 7 -16 15 0 8 2 15 4 15 2 0 9 -7 16 -15z m2180 11 c0 -2 -9
-6 -20 -9 -11 -3 -20 -1 -20 4 0 5 9 9 20 9 11 0 20 -2 20 -4z m719 -28 c0
-54 -25 -176 -38 -192 -24 -29 -163 -118 -238 -152 -101 -47 -229 -88 -368
-119 -62 -14 -115 -25 -119 -25 -3 0 -6 43 -6 95 0 82 2 96 18 102 9 3 56 23
103 44 47 20 103 41 125 45 117 21 330 113 449 193 33 23 63 41 68 41 4 0 7
-15 6 -32z m-149 -22 c0 -2 -7 -7 -16 -10 -8 -3 -12 -2 -9 4 6 10 25 14 25 6z
m-4133 -76 c12 0 24 -3 26 -7 3 -5 8 -60 12 -124 l7 -115 -80 19 -81 20 -5 76
c-4 42 -8 93 -10 113 -2 20 -2 39 1 41 2 3 28 -1 56 -9 29 -8 62 -14 74 -14z
m4474 -70 c-16 -103 -36 -144 -98 -200 -53 -49 -221 -140 -285 -156 -27 -6
-28 -5 -27 37 0 24 4 65 7 91 7 44 11 49 67 86 33 21 104 60 157 86 72 35 109
60 140 96 24 26 44 44 46 39 2 -5 -1 -40 -7 -79z m-5955 15 l72 -40 16 -84 c9
-46 15 -85 13 -87 -2 -2 -32 15 -68 39 -48 31 -69 53 -86 87 -23 48 -41 135
-27 129 5 -2 41 -22 80 -44z m1689 25 c28 -4 93 -19 145 -34 134 -36 316 -66
450 -73 69 -3 153 -15 210 -29 52 -13 102 -24 111 -24 18 0 29 -60 29 -155 l0
-51 -97 3 c-177 6 -395 24 -477 39 -96 18 -249 61 -398 111 -94 31 -108 39
-108 58 0 12 -3 56 -6 99 l-7 76 49 -6 c27 -3 72 -9 99 -14z m238 -17 c-7 -2
-21 -2 -30 0 -10 3 -4 5 12 5 17 0 24 -2 18 -5z m-1167 -44 l52 -12 6 -56 c3
-31 9 -86 12 -122 l7 -67 -76 27 c-87 29 -83 23 -93 160 l-7 94 24 -6 c13 -4
47 -12 75 -18z m1439 1 c17 -7 15 -9 -12 -9 -17 -1 -35 4 -38 9 -7 12 22 12
50 0z m-1928 -186 c13 -60 22 -114 21 -121 -2 -9 -23 -3 -69 18 l-66 31 -22
96 c-11 54 -21 107 -21 118 0 22 0 22 67 -5 l67 -27 23 -110z m721 141 c53 -8
142 -30 197 -50 133 -48 357 -103 453 -110 78 -6 288 -60 308 -79 6 -6 14 -50
18 -98 5 -75 4 -88 -9 -88 -50 0 -326 33 -415 50 -106 20 -327 90 -555 175
-140 53 -126 37 -140 169 l-7 59 27 -7 c14 -4 70 -13 123 -21z m340 -50 c14
-14 -10 -14 -39 0 l-34 15 34 -5 c19 -3 37 -7 39 -10z m-973 -9 c28 -8 93 -34
145 -59 180 -85 388 -147 555 -166 53 -6 136 -26 202 -48 125 -42 114 -29 129
-155 8 -69 25 -65 -172 -38 -337 48 -543 107 -759 218 l-130 67 -22 85 c-32
126 -35 120 52 96z m2466 -25 c4 -3 9 -60 10 -126 l4 -120 -25 2 c-14 1 -50 5
-81 8 l-57 6 -6 42 c-5 37 -10 181 -7 199 1 8 153 -2 162 -11z m342 -3 c78
-12 79 -12 170 -92 50 -45 109 -98 132 -118 l40 -37 -93 -1 c-84 0 -381 29
-492 48 -52 9 -57 20 -59 129 l-1 72 53 4 c115 8 175 7 250 -5z m1796 -70 c0
-46 -3 -100 -7 -122 -7 -36 -10 -39 -69 -61 -34 -12 -64 -21 -65 -20 -2 2 -2
58 0 124 l3 121 42 10 c23 6 51 15 62 20 34 15 35 12 34 -72z m-4325 31 c20
-19 -3 -19 -45 1 l-44 20 40 -6 c22 -3 44 -10 49 -15z m941 11 c3 -5 1 -10 -4
-10 -6 0 -11 5 -11 10 0 6 2 10 4 10 3 0 8 -4 11 -10z m-1405 -142 c82 -40
180 -73 250 -84 25 -3 74 -21 110 -39 36 -18 88 -40 116 -49 l51 -16 12 -66
c6 -37 11 -67 9 -69 -9 -6 -238 39 -327 65 -262 77 -385 175 -406 322 -12 81
-2 86 57 26 34 -34 80 -67 128 -90z m4620 50 c0 -126 4 -120 -123 -167 -191
-70 -435 -141 -484 -141 -9 0 9 26 46 65 34 37 90 101 125 143 61 74 67 78
147 107 75 26 244 72 277 74 9 1 12 -22 12 -81z m713 -98 c-8 -55 -9 -55 -68
-87 -33 -18 -63 -33 -67 -33 -4 0 -5 15 -3 33 3 17 7 70 10 117 l6 85 62 25
62 25 3 -55 c1 -30 -1 -80 -5 -110z m-5387 119 c4 -8 1 -8 -14 0 -12 6 -24 16
-28 22 -4 8 -1 8 14 0 12 -6 24 -16 28 -22z m830 -34 c54 -23 56 -25 19 -18
-65 10 -88 18 -93 31 -5 17 7 15 74 -13z m4394 -72 c0 -49 -4 -93 -8 -100 -13
-20 -331 -170 -430 -202 -100 -33 -361 -89 -457 -98 l-60 -5 5 97 5 98 70 24
c39 13 128 35 199 49 152 30 311 81 410 132 56 29 214 84 259 91 4 1 7 -38 7
-86z m483 55 c-30 -159 -55 -213 -115 -244 -34 -18 -34 -22 -5 114 l23 103 49
29 c28 16 51 30 52 30 1 0 0 -15 -4 -32z m-3750 -17 l52 -6 13 -123 c8 -68 12
-125 10 -127 -2 -2 -34 3 -70 11 l-66 15 -7 47 c-12 95 -21 193 -17 197 2 2
10 1 18 -2 8 -3 38 -8 67 -12z m217 -26 c35 -3 130 -18 210 -34 204 -42 355
-55 549 -48 90 3 210 3 266 0 l103 -6 7 -100 c5 -74 4 -101 -5 -107 -44 -27
-493 -40 -659 -20 -126 16 -270 47 -433 92 -166 46 -151 31 -163 165 l-7 72
34 -4 c18 -2 62 -7 98 -10z m3390 -22 c0 -39 -39 -178 -52 -187 -8 -6 -34 -27
-59 -47 -102 -84 -216 -133 -451 -193 l-168 -43 0 37 c0 21 3 58 6 83 5 38 11
47 32 52 14 3 66 26 116 50 50 25 114 49 141 54 100 19 217 74 345 160 41 28
78 51 83 51 4 0 7 -8 7 -17z m-3052 0 c-10 -2 -26 -2 -35 0 -10 3 -2 5 17 5
19 0 27 -2 18 -5z m351 -29 c2 -2 -21 -4 -52 -4 -33 0 -57 4 -57 10 0 10 98 4
109 -6z m612 -65 l39 -31 0 -92 0 -93 -76 -7 c-42 -4 -80 -3 -84 1 -4 4 -10
63 -12 131 l-5 122 49 0 c41 0 57 -6 89 -31z m1189 27 c0 -2 -7 -7 -16 -10 -8
-3 -12 -2 -9 4 6 10 25 14 25 6z m-3286 -31 c65 -15 76 -25 76 -69 0 -16 5
-58 11 -93 6 -35 9 -67 6 -70 -3 -3 -21 0 -39 5 -18 6 -51 16 -74 21 l-41 11
-12 92 c-7 51 -15 99 -17 106 -4 15 16 15 90 -3z m-1345 -54 c45 -23 60 -36
64 -58 4 -15 9 -38 13 -50 4 -13 2 -23 -4 -23 -16 0 -112 90 -127 121 -26 48
-24 49 54 10z m1671 -8 c208 -66 401 -103 538 -103 48 0 119 -10 189 -26 l111
-26 7 -52 c3 -28 8 -69 12 -90 l5 -39 -178 6 c-204 8 -321 23 -492 67 -135 34
-371 115 -389 133 -6 7 -15 47 -18 91 l-8 78 74 -7 c41 -4 108 -18 149 -32z
m155 -3 c7 -12 -12 -12 -40 0 -18 8 -17 9 7 9 15 1 30 -3 33 -9z m1767 -42
l72 -53 -64 -3 c-86 -4 -90 -2 -90 58 0 27 2 50 5 50 2 0 37 -24 77 -52z
m2047 -16 c-37 -109 -125 -183 -268 -226 l-53 -16 7 33 c3 17 9 48 12 67 4 29
15 41 62 71 31 20 74 41 97 47 22 7 67 29 100 50 32 22 60 38 61 37 2 -1 -6
-29 -18 -63z m-4979 41 l66 -16 17 -76 c10 -42 20 -86 23 -98 l6 -22 -75 25
-75 25 -17 72 c-9 40 -19 80 -22 90 -5 21 -3 21 77 0z m1431 -41 c-38 -4 -65
4 -57 17 3 4 24 3 48 -3 l43 -11 -34 -3z m-1908 -9 c27 -9 51 -23 54 -32 3 -9
19 -47 35 -84 16 -38 28 -71 25 -73 -6 -6 -108 34 -126 49 -17 14 -71 132 -71
154 0 10 6 13 17 9 9 -4 39 -14 66 -23z m795 -13 c45 -6 113 -22 150 -36 102
-39 328 -94 412 -100 42 -4 122 -21 182 -40 59 -19 114 -34 122 -34 20 0 27
-14 42 -84 20 -94 25 -88 -68 -81 -206 15 -422 57 -608 117 -139 45 -400 145
-414 158 -9 9 -36 127 -29 133 2 3 32 -1 66 -9 34 -7 99 -18 145 -24z m3227
-117 l-7 -93 -51 -14 c-29 -8 -67 -18 -84 -21 l-33 -7 1 54 c1 29 4 84 8 122
l6 69 80 21 80 21 3 -30 c2 -16 1 -72 -3 -122z m-199 10 c-4 -54 -10 -101 -14
-104 -9 -9 -153 -52 -257 -77 -267 -66 -499 -72 -828 -21 -101 16 -140 26
-146 38 -5 9 -10 52 -12 96 l-4 80 160 0 c88 -1 223 -5 300 -9 155 -10 290 1
437 35 80 19 90 19 137 5 57 -17 93 -10 156 29 22 13 48 25 59 25 18 0 18 -6
12 -97z m-3636 71 c25 -4 79 -22 120 -42 115 -53 299 -110 393 -122 54 -6 149
-32 258 -68 l172 -58 12 -41 c7 -23 15 -52 18 -66 l6 -23 -180 28 c-291 45
-482 102 -697 207 l-143 70 -24 53 c-31 67 -32 82 -2 75 12 -4 42 -9 67 -13z
m3183 -21 c-7 -2 -19 -2 -25 0 -7 3 -2 5 12 5 14 0 19 -2 13 -5z m-3455 -54
c26 -23 71 -53 99 -66 63 -29 178 -63 214 -63 15 0 69 -20 120 -44 52 -25 107
-48 122 -51 19 -5 34 -20 47 -46 11 -21 20 -40 20 -42 0 -8 -268 78 -369 117
-137 53 -207 93 -255 147 -38 43 -64 89 -49 89 3 0 26 -19 51 -41z m3170 34
c-10 -2 -26 -2 -35 0 -10 3 -2 5 17 5 19 0 27 -2 18 -5z m-560 -18 c5 -5 21
-229 17 -234 -5 -4 -143 17 -155 24 -4 3 -11 44 -15 92 -3 49 -9 99 -12 112
l-6 23 84 -7 c46 -4 85 -8 87 -10z m2068 -12 c-3 -16 -8 -60 -11 -100 -4 -40
-12 -76 -18 -81 -11 -9 -104 -42 -116 -42 -3 0 -1 48 4 106 l10 107 55 17 c78
25 83 25 76 -7z m521 -40 c-4 -21 -13 -61 -22 -89 -14 -48 -18 -53 -72 -77
-32 -14 -58 -25 -60 -24 -1 2 6 42 15 89 l17 87 55 25 c30 13 59 25 64 25 5 1
6 -16 3 -36z m-693 -60 c-3 -43 -11 -83 -18 -89 -14 -14 -258 -114 -346 -142
-175 -56 -324 -80 -554 -89 -158 -6 -169 -5 -163 11 4 10 7 49 7 87 0 66 1 69
24 69 13 0 77 13 142 30 66 16 144 30 174 30 117 0 336 50 467 106 47 20 114
40 155 46 40 5 75 12 77 14 2 2 13 4 23 4 17 0 18 -6 12 -77z m532 5 c-21
-108 -10 -97 -195 -192 -186 -95 -347 -153 -513 -185 -131 -25 -258 -44 -264
-38 -2 2 2 30 9 63 l13 59 55 19 c30 10 87 32 127 47 40 16 102 33 136 39 112
18 238 59 356 116 63 31 151 67 195 79 44 12 82 23 84 24 2 0 1 -13 -3 -31z
m-876 12 c-20 -13 -33 -13 -25 0 3 6 14 10 23 10 15 0 15 -2 2 -10z m1230 -21
c0 -6 -26 -37 -58 -69 -46 -46 -84 -70 -173 -113 -164 -80 -522 -217 -534
-205 -2 2 -1 17 3 34 7 24 24 37 113 82 65 34 135 61 187 72 94 22 231 83 306
137 44 32 125 71 149 73 4 0 7 -5 7 -11z m-3508 -30 c29 -6 56 -14 60 -18 8
-8 40 -192 34 -198 -3 -3 -33 1 -68 9 l-63 13 -17 75 c-19 88 -22 130 -8 130
5 0 33 -5 62 -11z m263 -34 c50 -3 131 -17 180 -30 174 -47 259 -58 485 -60
118 -1 252 -6 298 -10 l82 -8 0 -83 c0 -97 14 -87 -148 -104 -133 -13 -305
-13 -434 1 -110 12 -340 67 -503 121 -111 37 -102 26 -120 147 l-7 44 39 -6
c21 -3 79 -9 128 -12z m282 -21 c-3 -3 -12 -4 -19 -1 -8 3 -5 6 6 6 11 1 17
-2 13 -5z m313 -34 c23 -7 22 -8 -10 -8 -19 0 -44 3 -55 8 -17 7 -15 9 10 8
17 0 41 -4 55 -8z m-1406 -24 c37 -8 69 -16 70 -18 6 -10 55 -172 53 -175 -2
-1 -38 7 -80 19 l-77 21 -20 66 c-11 36 -23 74 -26 84 -6 21 -6 21 80 3z
m-627 -33 c59 -16 67 -22 85 -56 11 -22 18 -41 15 -43 -2 -2 -34 5 -70 16 -60
19 -69 25 -87 60 -11 22 -18 40 -14 40 3 0 35 -8 71 -17z m2687 -10 c0 -13 -1
-59 -2 -103 l-2 -79 -32 -5 c-18 -3 -56 -7 -85 -9 l-51 -4 0 108 0 108 47 4
c25 2 64 3 86 3 35 -1 40 -4 39 -23z m-1844 7 c47 -6 128 -25 180 -41 133 -43
302 -77 422 -87 83 -7 301 -54 317 -68 2 -1 9 -32 16 -68 l12 -66 -26 0 c-71
0 -316 22 -396 36 -143 24 -238 50 -422 116 l-173 62 -16 50 c-8 28 -17 57
-19 64 -5 15 -1 15 105 2z m-584 -54 c55 -9 148 -33 211 -55 149 -53 256 -80
383 -96 70 -9 142 -26 214 -51 l108 -39 15 -43 c8 -24 13 -45 11 -47 -9 -8
-605 141 -833 210 -44 13 -112 33 -151 44 -62 18 -72 25 -87 56 -22 46 -22 48
6 41 13 -3 68 -12 123 -20z m1094 -26 c18 -12 2 -12 -25 0 -13 6 -15 9 -5 9 8
0 22 -4 30 -9z m1986 -67 c-7 -35 -35 -134 -41 -141 -2 -2 -35 -11 -74 -21
-47 -12 -71 -14 -70 -7 0 6 8 47 18 91 l17 80 55 11 c30 6 61 13 69 17 29 11
32 7 26 -30z m-186 -15 c-1 -7 -7 -38 -14 -68 l-12 -55 -115 -38 c-218 -72
-299 -88 -472 -94 -163 -6 -261 3 -430 37 -49 10 -93 22 -97 26 -5 5 -12 36
-15 69 l-7 60 128 2 c71 2 184 -2 252 -9 147 -14 286 -2 433 36 80 21 194 36
327 45 12 0 22 -5 22 -11z m725 -35 c-9 -20 -17 -38 -18 -38 -12 -7 -122 -44
-124 -41 -2 1 4 21 13 43 15 37 22 43 68 56 77 23 79 23 61 -20z m-1952 -19
c17 -4 29 -13 31 -27 18 -89 27 -150 22 -154 -2 -3 -36 0 -75 7 l-70 12 -15
68 c-25 110 -25 112 32 105 26 -3 59 -9 75 -11z m550 9 c-7 -2 -19 -2 -25 0
-7 3 -2 5 12 5 14 0 19 -2 13 -5z m1228 -50 c-19 -38 -22 -40 -168 -86 -166
-52 -251 -74 -433 -112 -158 -33 -402 -76 -407 -71 -2 1 0 20 5 42 7 33 13 40
42 47 19 5 71 20 115 32 44 13 121 25 170 29 106 7 263 44 390 93 90 36 297
84 303 71 2 -3 -6 -24 -17 -45z m-341 -7 c0 -3 -4 -8 -10 -11 -5 -3 -10 -1
-10 4 0 6 5 11 10 11 6 0 10 -2 10 -4z m-2065 -54 c41 -8 56 -26 70 -83 l7
-27 -66 16 c-64 15 -66 16 -81 61 -19 56 -19 52 8 46 12 -3 40 -9 62 -13z
m200 -27 c44 -3 132 -19 195 -35 179 -46 300 -62 445 -59 72 1 178 -4 237 -11
l107 -13 -5 -31 c-11 -63 4 -60 -222 -53 -224 7 -307 17 -595 71 -103 20 -199
36 -213 36 -20 0 -29 9 -44 43 -25 53 -25 70 -2 63 9 -2 53 -7 97 -11z m558
-62 c-7 -2 -19 -2 -25 0 -7 3 -2 5 12 5 14 0 19 -2 13 -5z m611 -80 c-3 -21
-9 -41 -13 -45 -3 -3 -39 -10 -78 -14 -80 -7 -79 -8 -67 54 7 33 13 35 127 40
l38 2 -7 -37z"/>
<path d="M4119 8229 c-41 -41 -16 -253 45 -381 25 -52 81 -128 94 -128 4 0 18
27 31 60 13 33 39 83 58 111 18 28 33 53 33 55 0 2 -9 4 -20 4 -31 0 -24 18
10 25 51 11 46 25 -26 72 -16 10 -9 12 43 11 34 -1 65 0 68 3 31 31 -155 152
-273 178 -38 8 -46 7 -63 -10z m176 -63 c50 -25 99 -54 109 -65 19 -21 19 -21
-32 -21 -91 0 -111 -26 -41 -54 45 -18 44 -25 -3 -41 -40 -13 -47 -32 -14 -44
l25 -10 -42 -85 c-23 -47 -45 -86 -49 -86 -9 0 -62 88 -82 140 -35 89 -57 259
-40 305 10 26 64 13 169 -39z"/>
<path d="M4970 8210 c-16 -16 -25 -18 -40 -10 -30 16 -68 12 -80 -9 -26 -50
-1 -104 76 -163 l56 -42 24 29 c37 46 64 108 64 147 0 62 -58 90 -100 48z m68
-12 c25 -25 6 -101 -41 -160 -20 -26 -29 -23 -80 25 -65 60 -77 127 -23 127
15 0 33 -11 45 -26 l21 -26 10 28 c17 43 44 56 68 32z"/>
<path d="M5439 8104 c-11 -14 -9 -15 23 -9 21 4 45 2 58 -5 28 -15 41 -3 16
16 -26 19 -80 18 -97 -2z"/>
<path d="M3781 7901 c-10 -10 -20 -24 -23 -32 -3 -10 -9 -9 -28 4 -49 34 -110
9 -110 -45 0 -58 53 -119 147 -166 l42 -22 36 58 c58 93 67 160 28 205 -21 22
-68 22 -92 -2z m77 -13 c29 -29 3 -145 -45 -200 -14 -16 -18 -16 -53 2 -53 27
-107 81 -116 115 -15 59 34 83 84 41 35 -31 42 -32 42 -8 0 47 58 80 88 50z"/>
<path d="M4589 7881 c-41 -42 -36 -59 6 -22 20 17 42 31 50 31 8 0 15 5 15 10
0 21 -43 9 -71 -19z"/>
<path d="M5555 7823 c-58 -14 -115 -88 -115 -149 l0 -27 23 34 c50 74 145 101
218 63 36 -18 44 -14 35 21 -11 43 -95 74 -161 58z"/>
<path d="M4665 7586 c-61 -26 -111 -110 -85 -141 10 -13 15 -10 34 17 50 75
133 98 211 58 21 -11 41 -17 44 -15 10 11 -65 76 -99 85 -46 13 -68 12 -105
-4z"/>
<path d="M5123 7575 c-45 -19 -46 -59 -2 -83 59 -33 61 -35 49 -68 -22 -62
-106 -83 -154 -39 -15 14 -26 19 -26 11 0 -16 38 -52 65 -60 11 -4 34 -28 50
-54 94 -146 228 -110 251 69 4 30 15 65 25 78 11 13 19 38 18 55 l0 31 -19
-41 c-14 -32 -27 -45 -55 -54 -40 -13 -81 -7 -107 17 -24 21 -23 30 8 65 16
20 24 40 22 57 -3 23 -8 26 -48 28 -25 2 -60 -4 -77 -12z m107 -17 c0 -7 -11
-26 -24 -43 l-24 -30 -36 17 c-43 21 -46 43 -8 56 39 15 92 14 92 0z m63 -168
c41 0 48 -3 43 -17 -3 -10 -8 -35 -12 -56 -10 -58 -48 -97 -92 -97 -41 0 -70
19 -107 69 -31 43 -31 47 0 55 13 3 37 22 52 40 25 32 28 33 47 20 11 -8 42
-14 69 -14z"/>
<path d="M5795 7526 c-11 -17 -22 -22 -40 -18 -56 10 -73 -47 -27 -93 25 -26
79 -55 101 -55 14 0 48 68 51 100 4 43 1 58 -16 74 -22 23 -51 20 -69 -8z m63
-25 c5 -32 -6 -84 -21 -105 -13 -17 -15 -17 -55 3 -44 22 -67 53 -58 77 6 16
42 19 51 4 10 -16 25 -11 25 8 0 43 52 55 58 13z"/>
<path d="M3783 7447 c-15 -19 -25 -23 -56 -19 -47 5 -67 -11 -67 -54 0 -24 9
-42 33 -66 37 -37 109 -73 130 -65 42 16 79 174 48 210 -20 25 -66 21 -88 -6z
m78 -23 c11 -29 -8 -113 -34 -148 -13 -18 -15 -18 -65 9 -57 31 -85 65 -80 98
4 31 44 34 73 7 l24 -23 7 29 c14 59 57 75 75 28z"/>
<path d="M4690 7170 c-8 -15 -17 -19 -34 -14 -26 6 -56 -17 -56 -44 0 -40 78
-101 131 -102 32 0 62 118 40 159 -15 28 -66 29 -81 1z m58 -2 c15 -15 15 -50
0 -99 -13 -44 -16 -45 -61 -23 -46 23 -67 44 -67 66 0 27 24 32 54 13 25 -17
26 -17 26 7 0 22 16 48 30 48 3 0 11 -5 18 -12z"/>
<path d="M6275 8180 c-37 -41 -16 -135 48 -222 24 -32 28 -32 102 18 62 40 95
87 95 132 0 34 -30 62 -65 62 -11 0 -31 -7 -43 -16 -12 -8 -22 -10 -22 -5 0
21 -40 51 -68 51 -16 0 -37 -9 -47 -20z m69 -6 c8 -3 20 -22 27 -41 l11 -35
27 26 c62 59 118 9 74 -66 -17 -28 -110 -98 -131 -98 -5 0 -23 27 -41 59 -53
101 -36 182 33 155z"/>
<path d="M6777 7783 c-23 -36 -25 -37 -75 -34 -61 3 -67 -10 -26 -59 27 -31
27 -31 9 -70 -10 -21 -15 -46 -12 -54 5 -13 11 -13 52 0 45 16 46 16 81 -11
49 -37 68 -28 61 30 -7 44 -6 45 33 65 53 27 51 47 -5 61 -45 11 -48 15 -60
77 -9 42 -29 41 -58 -5z m48 -40 c9 -31 16 -38 50 -47 l40 -12 -39 -23 c-36
-23 -38 -26 -32 -62 7 -45 -9 -52 -40 -18 -18 20 -36 21 -91 4 -22 -7 -22 -7
-6 34 16 40 16 43 -5 71 -30 40 -28 44 18 36 37 -6 41 -4 62 28 26 39 29 38
43 -11z"/>
<path d="M6380 7360 c-41 -41 -13 -112 45 -112 58 0 86 71 45 112 -11 11 -31
20 -45 20 -14 0 -34 -9 -45 -20z m72 -17 c32 -29 16 -73 -27 -73 -46 0 -60 48
-23 74 28 20 27 20 50 -1z"/>
<path d="M3224 7595 c-91 -96 -181 -315 -129 -315 9 0 39 18 65 40 26 22 50
40 54 40 3 0 -4 -20 -16 -45 -12 -24 -19 -48 -15 -52 4 -4 28 1 53 10 l46 17
-16 -25 c-23 -35 -21 -40 27 -54 23 -7 80 -33 126 -57 46 -24 86 -44 88 -44 3
0 3 42 0 93 -6 112 -47 237 -114 344 -44 73 -75 103 -102 103 -9 0 -38 -25
-67 -55z m111 -2 c39 -42 113 -198 135 -287 19 -74 26 -156 15 -156 -3 0 -29
13 -58 29 -28 16 -73 36 -99 46 l-47 17 21 29 c29 39 15 55 -38 40 -21 -6 -40
-9 -42 -7 -2 2 4 18 12 35 9 16 16 35 16 41 0 22 -40 8 -89 -30 -28 -22 -53
-40 -55 -40 -7 0 28 100 52 145 36 72 111 165 132 165 10 0 31 -12 45 -27z"/>
<path d="M2476 7034 c-9 -8 -16 -20 -16 -25 0 -5 -20 -6 -45 -2 -53 7 -75 -7
-75 -46 1 -50 35 -88 117 -130 23 -11 46 -21 51 -21 15 0 61 93 68 137 6 40
-6 79 -30 95 -19 13 -54 9 -70 -8z m75 -25 c13 -26 4 -79 -23 -134 -11 -22
-22 -42 -24 -44 -7 -8 -115 64 -130 87 -24 37 -15 66 22 70 19 2 36 -3 44 -12
16 -20 30 -20 30 0 0 50 58 75 81 33z"/>
<path d="M3390 7014 c0 -15 -10 -38 -22 -51 l-21 -23 31 -11 c20 -7 34 -21 41
-40 13 -37 22 -36 43 0 12 21 25 30 48 33 l32 3 -20 25 c-15 18 -19 34 -14 59
5 32 4 34 -19 27 -30 -10 -48 -10 -76 -1 -20 6 -23 4 -23 -21z m81 -3 c20 10
21 9 15 -16 -5 -19 -2 -33 10 -46 16 -18 16 -19 -10 -19 -18 0 -30 -7 -36 -22
l-9 -23 -7 23 c-4 13 -18 28 -33 33 -23 9 -24 11 -8 20 9 6 17 21 17 35 0 22
2 23 20 14 14 -8 26 -7 41 1z"/>
<path d="M1628 6983 c-10 -2 -21 -16 -24 -30 -17 -65 35 -255 97 -359 41 -69
119 -154 141 -154 11 0 24 26 43 88 15 48 36 104 46 124 10 21 19 39 19 42 0
3 -15 6 -32 8 l-33 4 43 18 c60 26 54 43 -26 67 -23 7 -40 14 -38 16 2 2 32 8
67 14 73 12 88 21 69 44 -45 54 -306 137 -372 118z m209 -65 c52 -17 104 -39
116 -48 20 -17 19 -17 -42 -28 -106 -19 -118 -43 -34 -68 l57 -16 -30 -16
c-68 -34 -78 -62 -22 -62 24 0 29 -3 24 -17 -26 -79 -65 -185 -69 -189 -9 -9
-93 94 -125 155 -58 107 -102 273 -86 316 10 24 88 14 211 -27z"/>
<path d="M3094 6976 c-26 -19 -13 -29 21 -16 18 7 39 7 61 1 37 -10 46 2 15
19 -28 14 -74 12 -97 -4z"/>
<path d="M3234 6652 c-61 -38 -100 -113 -92 -177 3 -30 3 -29 26 17 46 94 126
132 215 103 65 -21 79 -8 39 36 -26 30 -36 33 -93 36 -50 3 -71 0 -95 -15z"/>
<path d="M2162 6635 c-29 -25 -47 -61 -33 -69 4 -3 15 8 24 24 10 16 31 34 47
42 17 7 30 16 30 20 0 17 -40 7 -68 -17z"/>
<path d="M3541 6344 c-17 -21 -23 -24 -41 -14 -45 24 -90 -23 -71 -73 16 -42
118 -114 146 -104 19 8 65 107 65 142 0 69 -60 99 -99 49z m73 -10 c12 -30 6
-65 -19 -114 l-25 -50 -39 19 c-41 22 -91 74 -91 96 0 8 10 19 21 26 18 9 27
7 50 -10 16 -12 29 -17 29 -12 0 5 4 21 10 35 11 30 54 36 64 10z"/>
<path d="M2834 6342 c-52 -21 -74 -40 -74 -62 0 -23 27 -45 73 -60 49 -15 50
-49 3 -96 -41 -41 -91 -46 -137 -13 -24 17 -29 18 -29 5 0 -18 55 -56 81 -56
8 0 28 -18 45 -40 37 -51 109 -100 146 -100 79 0 128 68 129 177 1 46 6 75 20
97 20 33 26 86 9 86 -5 0 -10 -11 -10 -24 0 -34 -36 -74 -79 -87 -30 -9 -44
-8 -74 5 -45 18 -55 40 -32 66 23 25 32 99 14 111 -20 12 -38 10 -85 -9z m76
-28 c0 -24 -32 -74 -47 -74 -24 0 -83 29 -83 40 0 14 77 49 108 50 14 0 22 -6
22 -16z m83 -169 l57 0 0 -35 c-1 -140 -82 -200 -176 -131 -47 33 -83 83 -65
89 22 7 70 53 76 73 5 15 11 18 28 12 12 -4 48 -8 80 -8z"/>
<path d="M2001 6320 c-7 -23 -16 -30 -35 -30 -34 0 -40 -14 -15 -36 16 -14 19
-26 14 -51 -5 -28 -3 -33 13 -33 10 0 23 5 30 12 10 10 19 8 41 -5 34 -20 46
-10 36 30 -4 19 -1 29 15 40 30 21 25 43 -10 43 -23 0 -33 7 -45 30 -9 17 -19
30 -24 30 -5 0 -14 -13 -20 -30z m71 -50 c20 0 20 -1 4 -19 -11 -13 -15 -27
-11 -40 7 -24 2 -26 -25 -9 -15 10 -22 10 -32 0 -19 -19 -30 -14 -23 9 4 13 0
27 -11 40 -16 18 -16 19 5 19 13 0 26 10 33 26 l12 25 13 -25 c8 -16 22 -26
35 -26z"/>
<path d="M2295 6306 c-17 -7 -45 -30 -63 -50 -28 -32 -33 -45 -30 -79 4 -49
21 -58 37 -19 37 90 143 126 239 82 49 -22 54 -15 15 22 -60 56 -133 72 -198
44z"/>
<path d="M2291 5941 c-20 -22 -34 -28 -53 -24 -27 5 -68 -25 -68 -49 0 -33 43
-80 93 -103 75 -36 82 -34 106 30 28 76 27 120 -4 150 -31 32 -41 31 -74 -4z
m74 -32 c8 -26 -2 -84 -21 -121 -14 -28 -15 -28 -52 -13 -55 24 -82 43 -94 70
-19 43 32 76 62 40 18 -21 30 -19 30 7 0 12 7 30 16 39 20 22 49 11 59 -22z"/>
<path d="M5638 7125 c-9 -21 -7 -29 16 -60 15 -19 33 -35 40 -35 18 0 60 61
58 84 -1 25 -21 37 -42 26 -9 -5 -22 -5 -31 1 -22 14 -28 11 -41 -16z m42 -10
c12 -14 15 -14 31 1 17 16 19 16 25 -1 5 -11 -2 -26 -19 -43 l-26 -26 -20 25
c-21 25 -28 59 -12 59 5 0 14 -7 21 -15z"/>
<path d="M5690 6875 c-18 -22 -4 -61 31 -85 16 -12 31 -21 33 -19 1 2 12 17
24 33 12 16 22 39 22 53 0 27 -24 41 -43 25 -8 -7 -18 -7 -27 -2 -20 13 -26
12 -40 -5z m38 -17 c8 -8 15 -8 26 1 35 29 41 -13 8 -52 -15 -16 -17 -16 -39
5 -13 12 -23 30 -23 40 0 21 11 23 28 6z"/>
<path d="M6370 6825 c-17 -21 -6 -56 31 -90 l31 -30 29 35 c46 55 31 125 -21
92 -10 -6 -22 -7 -31 -1 -19 12 -25 11 -39 -6z m106 -10 c7 -18 -20 -63 -43
-72 -10 -4 -23 2 -35 16 -22 28 -24 61 -3 61 8 0 15 -4 15 -10 0 -16 27 -12
34 5 7 19 25 19 32 0z"/>
<path d="M6385 6622 c10 -19 12 -38 5 -65 -11 -51 11 -45 24 6 11 41 -4 87
-28 87 -12 0 -13 -4 -1 -28z"/>
<path d="M6430 6611 c0 -5 9 -13 20 -16 12 -4 23 -18 27 -36 3 -16 9 -26 14
-23 13 8 0 57 -19 72 -19 14 -42 16 -42 3z"/>
<path d="M5013 6966 c-4 -8 -19 -16 -33 -18 -19 -2 -26 -10 -28 -30 -4 -30 24
-54 75 -64 30 -6 32 -4 42 32 14 51 14 60 -5 78 -19 20 -40 20 -51 2z m42 -17
c4 -6 4 -26 0 -46 -6 -32 -9 -34 -33 -28 -34 8 -52 23 -52 42 0 11 7 13 24 9
18 -4 25 -1 29 14 6 22 22 26 32 9z"/>
<path d="M5030 6755 c-13 -16 6 -59 40 -90 l22 -20 29 35 c19 22 29 44 27 60
-3 23 -7 25 -55 26 -33 1 -57 -3 -63 -11z m100 -11 c0 -19 -31 -74 -41 -74
-10 0 -49 55 -49 69 0 14 23 14 38 -1 9 -9 13 -7 18 5 8 22 34 22 34 1z"/>
<path d="M4103 6901 c-9 -11 -20 -18 -25 -15 -15 9 -38 -17 -38 -42 0 -25 28
-48 72 -59 24 -6 29 -3 38 20 20 52 8 115 -22 115 -5 0 -16 -9 -25 -19z m40
-47 c-2 -21 -7 -42 -12 -47 -15 -15 -66 15 -69 41 -3 20 0 22 21 17 19 -5 25
-2 30 15 10 37 32 17 30 -26z"/>
<path d="M4230 6660 c-68 -133 -72 -402 -8 -553 12 -26 24 -46 27 -45 11 5
211 215 211 222 0 3 -15 12 -32 20 l-33 14 52 1 c28 1 55 6 59 12 3 6 -13 31
-37 55 l-44 44 50 -15 c116 -36 131 -30 91 39 -55 93 -236 246 -292 246 -17 0
-29 -11 -44 -40z m105 -17 c70 -46 140 -110 183 -166 23 -29 42 -56 42 -59 0
-4 -23 2 -50 13 -61 23 -120 25 -120 4 0 -8 18 -29 40 -46 22 -18 40 -36 40
-41 0 -4 -22 -8 -49 -8 -28 0 -53 -5 -57 -12 -7 -10 22 -42 46 -50 5 -2 -28
-43 -75 -91 l-84 -89 -21 69 c-41 130 -35 351 13 466 19 45 38 47 92 10z"/>
<path d="M6099 6548 c-134 -68 -292 -238 -221 -238 9 0 42 7 72 15 82 22 85
19 33 -32 l-48 -48 65 -5 c60 -5 63 -7 38 -17 -14 -7 -29 -16 -32 -21 -3 -5
16 -31 43 -59 27 -28 67 -78 90 -112 23 -33 46 -61 51 -61 31 0 84 153 98 282
10 94 1 230 -20 293 -19 59 -58 59 -169 3z m139 10 c13 -17 32 -142 32 -215 0
-32 -5 -87 -10 -123 -11 -68 -59 -220 -70 -220 -3 0 -16 18 -29 40 -12 22 -45
65 -74 96 -29 32 -47 59 -41 61 28 9 47 31 41 47 -5 11 -19 16 -52 16 -25 0
-45 3 -45 8 1 4 21 22 45 40 75 55 54 73 -57 48 -39 -9 -74 -13 -77 -10 -13
14 146 146 223 185 85 42 98 45 114 27z"/>
<path d="M5136 6364 c-22 -22 -20 -83 5 -124 27 -45 69 -90 85 -90 25 0 114
92 125 129 20 68 -31 113 -86 77 -23 -15 -26 -15 -45 4 -24 24 -63 26 -84 4z
m83 -38 l13 -28 25 26 c28 31 58 34 73 6 15 -28 -8 -77 -59 -123 -48 -43 -52
-42 -103 27 -27 38 -38 102 -21 120 17 16 58 0 72 -28z"/>
<path d="M4579 6151 c-31 -25 -20 -36 17 -16 16 8 42 15 57 15 16 0 26 4 22
10 -10 17 -71 11 -96 -9z"/>
<path d="M5625 6090 c-4 -6 6 -10 22 -10 16 0 44 -11 63 -25 38 -28 48 -27 29
3 -22 36 -99 57 -114 32z"/>
<path d="M6032 5815 c-9 -18 -19 -25 -41 -25 -40 0 -48 -16 -22 -44 18 -19 20
-28 12 -49 -13 -32 -1 -41 33 -26 22 10 29 9 45 -5 25 -23 43 -12 35 21 -5 20
-1 30 22 48 l29 24 -32 11 c-21 8 -35 21 -42 41 -12 36 -24 37 -39 4z m56 -55
l23 -5 -21 -18 c-14 -12 -19 -24 -15 -37 7 -21 -9 -28 -21 -9 -3 6 -17 8 -31
4 -22 -5 -24 -3 -18 15 4 14 1 28 -11 41 -16 18 -16 19 7 19 14 0 30 9 38 23
l15 22 6 -25 c3 -14 15 -26 28 -30z"/>
<path d="M4495 5761 c-40 -24 -62 -50 -70 -82 -10 -38 12 -46 43 -16 74 71
196 60 266 -24 15 -17 28 -30 31 -28 2 2 -3 21 -10 43 -16 47 -59 94 -102 112
-46 20 -122 18 -158 -5z"/>
<path d="M5577 5706 c-48 -18 -83 -50 -108 -98 -21 -42 -13 -50 17 -17 26 30
92 59 133 59 43 0 115 -34 141 -67 12 -15 26 -23 35 -19 19 7 19 20 -2 63 -33
71 -137 108 -216 79z"/>
<path d="M5007 5583 c-17 -16 -4 -56 29 -93 33 -36 36 -43 25 -66 -14 -32 -74
-58 -116 -50 -36 7 -58 27 -76 71 -10 24 -13 26 -16 12 -7 -29 17 -76 48 -94
18 -11 29 -26 29 -40 0 -44 41 -132 76 -162 75 -66 169 -20 229 112 15 31 31
57 36 57 17 0 59 52 59 74 0 17 -4 15 -30 -16 -16 -19 -41 -38 -56 -41 -62
-11 -144 37 -144 85 1 15 12 30 33 43 17 11 38 33 47 48 14 27 14 29 -9 48
-18 15 -39 19 -90 19 -37 0 -71 -3 -74 -7z m149 -25 c13 -13 -8 -46 -41 -64
-33 -18 -34 -18 -55 1 -29 26 -43 53 -34 66 7 12 118 8 130 -3z m-15 -217 c19
-12 44 -21 57 -21 31 0 28 -26 -7 -82 -74 -117 -187 -98 -227 38 -17 61 -14
74 22 74 32 0 84 27 84 43 1 6 9 2 19 -10 10 -12 33 -31 52 -42z"/>
<path d="M4462 5484 c-12 -8 -22 -22 -22 -30 0 -11 -4 -12 -19 -4 -64 34 -109
-41 -62 -102 23 -29 127 -82 142 -72 13 8 39 66 50 112 9 40 -6 89 -31 102
-25 13 -32 13 -58 -6z m56 -16 c29 -29 -2 -168 -38 -168 -10 0 -40 15 -66 33
-39 25 -50 39 -52 63 -4 39 20 51 54 29 32 -21 44 -19 44 8 0 24 17 47 35 47
6 0 16 -5 23 -12z"/>
<path d="M5732 5377 c-35 -41 -14 -123 46 -180 l28 -27 43 30 c92 67 111 170
31 170 -14 0 -31 -5 -38 -12 -9 -9 -16 -7 -32 10 -23 24 -62 29 -78 9z m70
-34 c17 -39 16 -39 39 -14 29 31 63 25 67 -12 3 -23 -5 -38 -42 -73 -26 -24
-52 -44 -59 -44 -13 0 -48 47 -68 93 -9 20 -9 33 -1 52 16 34 49 33 64 -2z"/>
<path d="M3890 5932 c-43 -15 -39 -63 10 -115 l40 -42 35 37 c61 65 56 125 -9
115 -17 -3 -38 -1 -46 3 -8 4 -22 5 -30 2z m68 -32 c11 13 24 20 30 16 20 -12
13 -44 -17 -78 l-30 -33 -30 29 c-32 30 -41 70 -18 79 6 3 20 -4 30 -15 17
-20 17 -20 35 2z"/>
<path d="M3885 5240 c-3 -5 -19 -7 -35 -3 -38 7 -47 -14 -26 -56 24 -46 50
-56 76 -29 11 13 23 33 27 45 8 34 -26 69 -42 43z m-24 -26 c11 -14 13 -14 21
0 5 9 13 16 18 16 17 0 11 -36 -10 -55 -19 -17 -21 -17 -40 0 -20 18 -28 55
-11 55 5 0 14 -7 22 -16z"/>
<path d="M6636 5187 c-10 -8 -29 -12 -42 -9 -57 11 -72 -49 -24 -97 47 -47 69
-49 101 -11 36 43 44 76 24 106 -18 27 -33 30 -59 11z m48 -23 c8 -20 -29
-104 -45 -104 -26 0 -79 51 -79 76 0 26 27 33 48 12 10 -10 16 -7 28 10 18 26
39 29 48 6z"/>
<path d="M6841 4836 c-10 -11 -18 -13 -31 -6 -40 21 -70 -17 -49 -62 6 -14 29
-37 52 -52 l42 -27 22 28 c27 33 40 90 26 112 -14 22 -47 25 -62 7z m55 -20
c7 -19 -33 -96 -50 -96 -19 0 -76 55 -76 73 0 25 19 30 45 13 22 -15 24 -14
30 4 7 23 43 27 51 6z"/>
<path d="M7089 4650 c-12 -40 -7 -62 10 -44 5 5 12 26 15 47 9 50 -10 48 -25
-3z"/>
<path d="M7145 4650 c-8 -13 4 -50 16 -50 5 0 9 14 9 30 0 30 -13 40 -25 20z"/>
<path d="M3468 5281 c-10 -13 -18 -17 -28 -11 -23 14 -50 -7 -50 -40 0 -43 55
-90 104 -90 17 0 46 64 46 103 0 55 -44 78 -72 38z m52 -36 c0 -37 -18 -85
-32 -85 -18 0 -68 31 -76 48 -18 35 17 59 46 30 8 -8 14 -5 21 15 15 40 41 35
41 -8z"/>
<path d="M2473 5235 c-14 -10 -24 -12 -28 -5 -9 14 -48 13 -63 -2 -23 -23 -13
-59 32 -106 l45 -47 26 25 c52 49 69 105 39 134 -19 20 -24 20 -51 1z m45 -34
c2 -13 -8 -40 -23 -62 -23 -33 -30 -37 -47 -28 -21 11 -58 66 -58 87 0 21 29
26 49 8 16 -15 19 -15 36 4 22 25 39 21 43 -9z"/>
<path d="M3166 5204 c-3 -8 -1 -24 4 -34 8 -15 6 -20 -9 -25 -42 -13 -32 -69
15 -81 32 -8 103 12 111 32 16 42 -41 124 -87 124 -16 0 -30 -7 -34 -16z m84
-39 c12 -19 20 -43 18 -52 -4 -24 -81 -41 -103 -23 -21 18 -19 29 10 40 26 10
32 24 15 35 -19 12 -10 35 14 35 17 0 31 -11 46 -35z"/>
<path d="M3972 4988 c-27 -27 3 -104 50 -129 20 -11 25 -8 55 26 35 41 43 84
19 104 -11 9 -20 10 -35 1 -15 -7 -27 -8 -40 0 -25 13 -34 13 -49 -2z m51 -25
c18 -17 19 -17 28 0 6 9 17 17 24 17 24 0 17 -46 -12 -81 l-27 -32 -28 34
c-45 54 -33 105 15 62z"/>
<path d="M3540 4984 c0 -21 22 -74 31 -74 16 0 9 34 -11 60 -11 14 -20 20 -20
14z"/>
<path d="M3590 4961 c0 -5 9 -19 20 -32 22 -28 28 -6 6 24 -14 18 -26 22 -26
8z"/>
<path d="M3779 4914 c-15 -19 10 -77 40 -93 16 -9 24 -5 51 25 19 22 30 44 28
57 -3 19 -10 22 -55 24 -35 1 -56 -3 -64 -13z m101 -16 c0 -5 -10 -23 -21 -40
l-21 -29 -24 22 c-13 12 -24 31 -24 41 0 20 20 24 36 8 8 -8 15 -6 24 4 13 16
30 13 30 -6z"/>
<path d="M2040 4865 c-9 -11 -17 -12 -31 -5 -25 14 -60 -19 -52 -49 7 -27 68
-81 92 -81 21 0 61 67 61 102 0 44 -44 64 -70 33z m50 -31 c0 -30 -29 -84 -45
-84 -11 0 -75 55 -75 64 0 14 14 36 23 36 6 0 18 -7 28 -16 16 -14 18 -14 24
5 10 32 45 27 45 -5z"/>
<path d="M8165 4990 c-4 -6 -21 -8 -40 -4 -44 8 -63 -22 -45 -67 14 -32 58
-69 83 -69 39 0 82 104 57 135 -14 17 -46 20 -55 5z m43 -33 c5 -24 -28 -87
-45 -87 -20 0 -73 54 -73 75 0 24 31 31 47 10 13 -18 14 -18 29 3 17 25 37 25
42 -1z"/>
<path d="M4622 4958 c-24 -24 -14 -65 24 -98 l36 -31 30 28 c38 36 51 68 38
94 -11 20 -45 26 -55 9 -4 -7 -12 -7 -25 0 -24 13 -33 13 -48 -2z m116 -22 c2
-9 -8 -33 -23 -52 -26 -34 -26 -34 -50 -17 -27 20 -44 52 -38 71 6 17 28 15
43 -3 11 -14 15 -13 27 5 17 24 36 22 41 -4z"/>
<path d="M4672 4688 c-7 -7 -24 -12 -40 -13 -20 0 -28 -6 -30 -23 -4 -28 11
-48 51 -69 29 -14 31 -14 48 8 25 33 33 77 19 94 -15 18 -32 19 -48 3z m38
-28 c0 -23 -20 -70 -30 -70 -15 0 -60 42 -60 57 0 11 6 14 25 9 18 -5 27 -2
31 9 9 22 34 19 34 -5z"/>
<path d="M6242 4828 c-18 -18 -15 -46 9 -84 34 -56 50 -59 92 -16 60 61 46
133 -18 104 -15 -7 -26 -8 -30 -2 -9 14 -39 12 -53 -2z m48 -19 c11 -20 13
-20 30 -4 18 16 50 15 50 -2 0 -17 -41 -74 -57 -80 -31 -12 -81 76 -56 100 11
12 22 8 33 -14z"/>
<path d="M5839 4594 c-20 -21 -24 -38 -27 -100 l-4 -74 28 -2 c97 -6 160 16
170 59 9 34 -6 57 -40 61 -20 3 -26 9 -26 27 0 55 -60 72 -101 29z m74 -38
c-3 -36 -1 -38 22 -34 55 11 74 -44 25 -69 -14 -7 -51 -13 -83 -13 l-59 0 7
53 c11 77 30 109 63 105 25 -3 27 -6 25 -42z"/>
<path d="M8604 4945 c-4 -8 -14 -15 -24 -15 -24 0 -43 -25 -35 -49 5 -18 69
-51 99 -51 15 0 33 101 21 120 -10 15 -55 12 -61 -5z m44 -40 c4 -51 -7 -60
-52 -41 -42 18 -51 51 -12 44 20 -4 26 0 31 19 9 36 30 22 33 -22z"/>
<path d="M5461 4883 c-17 -11 -26 -12 -34 -4 -28 28 -72 -6 -62 -48 7 -27 48
-76 77 -92 20 -11 48 15 73 68 28 58 -8 109 -54 76z m46 -20 c7 -18 -34 -103
-50 -103 -18 0 -77 63 -77 82 0 27 30 35 47 13 13 -19 14 -18 35 3 27 26 37
28 45 5z"/>
<path d="M5410 4650 c-8 -5 -25 -10 -37 -10 -46 0 -42 -54 6 -83 40 -23 48
-22 66 14 29 56 7 107 -35 79z m40 -25 c0 -24 -22 -65 -35 -65 -25 0 -59 36
-52 55 6 14 10 15 23 4 13 -11 17 -10 25 4 12 21 39 23 39 2z"/>
<path d="M1841 3981 c-11 -11 -32 -21 -48 -23 -22 -2 -29 -9 -31 -31 -5 -41
26 -70 96 -91 19 -6 25 -2 37 28 19 46 19 101 -1 120 -20 21 -30 20 -53 -3z
m48 -20 c10 -18 3 -62 -16 -95 -8 -14 -13 -13 -50 5 -41 20 -58 42 -47 60 7
13 41 11 50 -2 4 -7 12 1 20 20 15 35 29 39 43 12z"/>
<path d="M2367 3724 c-4 -4 -22 -8 -40 -8 -28 -1 -32 -5 -35 -29 -3 -22 5 -36
33 -63 20 -19 41 -34 46 -34 5 0 20 18 35 39 33 51 30 95 -6 99 -14 2 -29 0
-33 -4z m43 -39 c0 -13 -10 -35 -22 -49 -22 -25 -24 -25 -44 -8 -12 10 -26 28
-33 40 -10 18 -9 23 4 28 8 4 22 1 31 -6 12 -11 17 -10 30 9 18 25 34 19 34
-14z"/>
<path d="M2670 4750 c-11 -11 -20 -32 -20 -47 0 -30 30 -96 60 -131 l20 -24
34 21 c79 49 121 132 84 169 -15 15 -60 16 -75 1 -8 -8 -17 -5 -32 10 -26 26
-45 27 -71 1z m68 -33 l14 -29 23 22 c32 30 59 23 63 -16 2 -25 -5 -38 -42
-72 -25 -23 -51 -42 -58 -42 -18 0 -59 66 -65 106 -10 63 39 86 65 31z"/>
<path d="M4238 4739 c-11 -6 -18 -22 -18 -39 0 -20 -6 -31 -20 -35 -45 -14
-46 -71 0 -95 27 -15 85 -12 126 5 35 14 36 17 29 52 -9 49 -30 88 -57 107
-26 18 -36 19 -60 5z m59 -31 c28 -31 48 -97 35 -110 -6 -6 -33 -13 -59 -15
-38 -4 -53 -1 -73 15 -21 17 -22 22 -11 36 7 9 24 16 37 16 27 0 28 3 13 31
-7 15 -7 24 2 35 16 20 32 18 56 -8z"/>
<path d="M2292 4453 c-7 -3 -17 -16 -22 -29 -8 -20 -14 -23 -38 -18 -58 12
-82 -52 -39 -101 21 -25 123 -68 138 -59 13 8 39 98 39 136 0 55 -36 88 -78
71z m42 -29 c20 -19 21 -74 2 -119 -17 -40 -22 -41 -73 -20 -50 21 -73 43 -73
71 0 30 34 40 65 20 24 -16 25 -15 25 4 0 25 17 60 30 60 5 0 16 -7 24 -16z"/>
<path d="M4704 4016 c-13 -10 -24 -11 -36 -5 -30 16 -58 -6 -58 -45 0 -26 8
-41 35 -65 20 -17 42 -31 50 -31 15 0 57 52 69 84 15 44 -26 87 -60 62z m42
-21 c8 -20 -12 -69 -37 -91 -19 -17 -21 -16 -49 11 -45 43 -39 100 6 70 21
-14 24 -13 34 5 13 24 38 26 46 5z"/>
<path d="M5155 3594 c-12 -13 -19 -14 -28 -5 -24 24 -67 -2 -67 -41 0 -25 73
-98 98 -98 20 0 60 58 68 99 10 49 -37 78 -71 45z m52 -21 c7 -18 -34 -103
-49 -103 -12 0 -78 65 -78 77 0 4 4 14 9 22 8 12 13 12 35 -2 24 -16 26 -16
36 3 13 24 38 26 47 3z"/>
<path d="M5575 3180 c-3 -5 -20 -9 -37 -7 -65 5 -63 -65 4 -113 38 -28 42 -29
59 -14 30 27 53 98 40 123 -12 22 -55 29 -66 11z m48 -44 c-2 -30 -28 -76 -42
-76 -19 0 -71 52 -71 70 0 27 18 34 39 16 23 -21 28 -20 34 5 9 33 43 20 40
-15z"/>
<path d="M6637 3113 c-4 -3 -7 -22 -7 -41 0 -25 9 -43 34 -68 19 -19 39 -34
44 -34 13 0 69 67 75 89 7 30 -11 61 -36 61 -13 0 -28 -5 -34 -11 -8 -8 -13
-8 -17 0 -8 12 -49 15 -59 4z m119 -62 c-8 -14 -23 -34 -33 -43 -19 -17 -21
-17 -45 10 -25 26 -32 42 -29 70 1 17 26 15 41 -3 11 -14 15 -13 33 6 19 21
21 21 33 4 11 -14 11 -22 0 -44z"/>
<path d="M6328 2691 c-20 -17 -25 -17 -45 -4 -31 20 -71 9 -83 -23 -8 -19 -6
-36 8 -67 17 -38 82 -107 100 -107 11 0 78 71 91 97 36 71 -16 148 -71 104z
m-41 -37 l19 -25 14 26 c10 19 20 25 39 23 48 -6 40 -67 -16 -129 l-36 -40
-33 32 c-46 45 -68 93 -54 119 15 28 45 25 67 -6z"/>
<path d="M7190 4420 c-8 -5 -23 -7 -32 -4 -18 5 -58 -27 -58 -47 0 -17 66 -79
83 -79 19 0 53 46 62 83 11 43 -20 70 -55 47z m36 -24 c6 -15 -19 -71 -37 -81
-12 -8 -69 42 -69 61 0 22 21 27 40 9 17 -16 19 -15 30 4 12 24 28 27 36 7z"/>
<path d="M5044 4306 c-14 -23 -14 -28 1 -59 8 -18 29 -44 46 -56 l31 -23 23
22 c12 11 31 36 41 55 15 28 16 38 6 59 -12 27 -40 34 -59 15 -8 -8 -17 -8
-31 0 -30 16 -40 14 -58 -13z m58 -13 c17 -15 19 -15 32 2 15 21 46 14 46 -11
0 -14 -19 -46 -57 -93 -5 -7 -45 33 -60 62 -11 22 -12 32 -2 43 15 18 18 18
41 -3z"/>
<path d="M6705 4096 c-20 -20 -26 -22 -36 -10 -15 19 -64 18 -83 -2 -23 -22
-20 -65 7 -105 25 -38 101 -99 123 -99 8 0 32 28 54 62 30 46 40 71 40 103 0
71 -57 99 -105 51z m73 -8 c27 -27 6 -101 -47 -168 l-20 -25 -48 41 c-60 51
-78 82 -69 117 8 33 44 37 71 7 24 -26 27 -25 47 10 18 31 45 39 66 18z"/>
<path d="M5693 3899 c-17 -17 -24 -19 -41 -10 -33 18 -60 13 -78 -14 -22 -33
-5 -84 43 -125 58 -52 79 -57 108 -30 31 30 65 98 65 133 0 31 -31 67 -58 67
-10 0 -27 -9 -39 -21z m65 -11 c26 -26 0 -109 -47 -152 -21 -19 -22 -19 -59
11 -20 16 -46 46 -57 65 -16 30 -17 39 -6 52 18 22 40 20 67 -5 l22 -21 13 24
c20 38 45 48 67 26z"/>
<path d="M6210 3570 c-11 -11 -20 -25 -20 -30 0 -6 -11 -3 -25 6 -21 14 -30
14 -55 4 -39 -16 -49 -52 -25 -96 20 -38 95 -91 142 -100 29 -6 32 -3 62 57
33 66 38 106 20 142 -23 43 -66 50 -99 17z m80 -19 c5 -11 10 -30 10 -42 0
-30 -50 -139 -64 -139 -36 0 -146 94 -146 124 1 38 55 52 89 22 22 -20 31 -20
31 0 0 29 21 54 45 54 14 0 29 -8 35 -19z"/>
<path d="M7319 8895 c-14 -8 -32 -28 -39 -45 -17 -42 5 -91 49 -110 96 -39
163 108 70 155 -34 18 -47 18 -80 0z m83 -32 c22 -20 24 -66 2 -87 -36 -37
-104 -7 -104 45 0 53 61 79 102 42z"/>
<path d="M2144 8831 c-96 -59 -56 -215 59 -228 104 -12 171 92 122 187 -30 58
-120 78 -181 41z m143 -36 c32 -32 35 -39 30 -78 -10 -72 -74 -111 -140 -84
-72 31 -86 121 -26 171 45 39 92 35 136 -9z"/>
<path d="M7823 8390 c-18 -10 -42 -39 -55 -62 -21 -38 -23 -57 -23 -173 0 -77
6 -152 13 -182 l14 -53 54 0 c139 0 307 59 364 128 40 49 47 92 23 138 -34 66
-99 86 -192 58 -20 -6 -23 -4 -18 10 4 10 2 37 -4 62 -22 85 -103 119 -176 74z
m106 -15 c39 -20 55 -64 48 -130 -3 -30 -3 -55 -1 -55 3 0 15 7 28 15 89 59
196 19 196 -73 0 -29 -8 -44 -48 -82 -56 -54 -131 -82 -266 -101 -103 -14 -99
-18 -115 88 -24 163 -7 269 54 322 40 34 62 38 104 16z"/>
<path d="M2727 8370 c-14 -11 -33 -40 -42 -64 l-17 -43 -36 18 c-58 30 -108
25 -148 -15 -40 -40 -45 -85 -15 -144 24 -46 51 -71 124 -115 56 -34 204 -94
210 -86 20 26 60 109 81 167 46 129 29 259 -39 290 -39 18 -89 14 -118 -8z
m112 -16 c46 -33 64 -121 40 -209 -6 -22 -27 -75 -47 -118 -35 -76 -37 -78
-65 -73 -54 11 -193 86 -235 128 -53 52 -72 109 -51 147 33 59 112 64 170 10
17 -16 34 -27 37 -24 3 3 7 21 9 41 10 95 78 142 142 98z"/>
<path d="M1415 7961 c-96 -44 -146 -143 -125 -246 27 -132 158 -228 331 -242
75 -6 188 11 216 34 16 13 15 14 -17 8 -94 -16 -238 -17 -293 -1 -75 22 -146
73 -182 131 -25 41 -30 58 -30 115 0 56 4 73 28 108 36 55 90 82 163 82 110 0
193 -65 202 -159 8 -85 -41 -141 -124 -141 -28 0 -44 8 -70 34 -38 38 -44 77
-18 114 17 25 71 31 92 10 15 -15 15 -51 0 -66 -9 -9 -8 -12 5 -12 21 0 40 35
32 61 -10 29 -46 59 -72 59 -69 0 -112 -61 -93 -131 27 -101 166 -127 239 -44
58 67 51 153 -20 230 -66 71 -178 95 -264 56z"/>
<path d="M8232 7730 c-79 -49 -90 -218 -23 -372 24 -56 31 -58 141 -27 193 53
289 158 228 249 -37 55 -92 67 -169 36 -13 -6 -17 1 -22 35 -11 81 -89 121
-155 79z m77 -11 c39 -14 61 -54 61 -114 l0 -46 37 26 c111 75 218 -31 132
-130 -36 -40 -129 -87 -209 -105 -30 -6 -63 -14 -72 -16 -13 -4 -22 11 -42 76
-45 142 -29 276 36 307 13 7 23 12 24 12 1 1 15 -4 33 -10z"/>
<path d="M2150 7513 c-36 -13 -60 -47 -60 -82 1 -40 14 -62 48 -80 51 -27 122
20 122 80 0 51 -65 99 -110 82z m80 -55 c13 -25 13 -31 0 -55 -21 -38 -81 -45
-104 -11 -9 12 -16 29 -16 38 0 9 7 26 16 38 23 34 83 27 104 -10z"/>
<path d="M8951 7355 c-92 -78 -39 -225 82 -225 79 0 141 84 118 162 -25 84
-133 118 -200 63z m122 -6 c35 -18 57 -51 57 -87 0 -103 -110 -148 -175 -70
-70 83 22 206 118 157z"/>
<path d="M1207 7308 c-46 -36 -16 -118 44 -118 36 0 69 31 69 65 0 52 -71 84
-113 53z m77 -24 c9 -8 16 -22 16 -29 0 -7 -7 -21 -16 -29 -30 -30 -74 -13
-74 29 0 42 44 59 74 29z"/>
<path d="M6825 7264 c-27 -27 -73 -128 -102 -221 -23 -75 -26 -107 -27 -220
-1 -155 5 -169 55 -125 60 52 150 111 180 117 33 8 36 20 12 48 -17 20 -17 20
7 13 93 -25 98 -19 50 57 -16 26 -30 50 -30 53 0 3 34 -13 76 -36 87 -49 103
-45 81 19 -26 73 -80 153 -158 233 -80 82 -110 95 -144 62z m101 -56 c78 -72
190 -236 172 -253 -3 -3 -27 8 -54 24 -58 36 -99 47 -109 31 -4 -6 10 -36 30
-67 28 -42 32 -54 19 -49 -11 5 -36 10 -56 13 -32 5 -38 3 -38 -12 0 -10 7
-26 15 -36 15 -15 12 -19 -37 -47 -29 -16 -73 -46 -98 -66 l-45 -36 -8 53
c-18 117 49 392 115 475 18 22 48 13 94 -30z"/>
<path d="M7764 6775 c-23 -23 -26 -33 -22 -69 6 -47 46 -136 65 -143 24 -9 86
20 129 61 53 51 60 95 19 122 -24 16 -38 15 -77 -1 -13 -5 -18 -3 -18 8 0 17
-17 32 -47 41 -17 5 -29 0 -49 -19z m81 -45 c4 -16 9 -30 11 -30 3 0 18 10 35
22 23 17 34 20 47 12 41 -26 18 -78 -56 -125 -25 -16 -52 -29 -59 -29 -17 0
-51 68 -59 118 -12 78 64 108 81 32z"/>
<path d="M8665 6774 c-73 -18 -227 -92 -274 -132 -53 -44 -39 -62 49 -62 38 0
70 -4 70 -9 0 -4 -20 -16 -45 -25 -55 -21 -57 -40 -7 -56 52 -17 63 -30 24
-30 -18 0 -32 -4 -32 -10 0 -5 13 -30 30 -56 16 -26 43 -81 61 -123 17 -42 34
-80 39 -84 13 -14 91 85 130 168 51 106 70 179 77 300 5 87 3 103 -11 118 -20
20 -31 20 -111 1z m98 -104 c-3 -104 -31 -216 -74 -301 -35 -72 -86 -149 -97
-149 -4 0 -18 28 -31 63 -13 34 -35 79 -47 99 -30 47 -30 58 -1 58 30 0 51 15
42 30 -4 6 -26 20 -49 29 l-41 18 48 21 c75 33 58 54 -52 67 l-64 7 24 19 c73
56 259 131 314 126 l30 -2 -2 -85z"/>
<path d="M7144 6640 c-43 -17 -32 -26 32 -25 66 0 78 7 45 25 -23 12 -48 12
-77 0z"/>
<path d="M9164 6581 c-129 -59 -164 -235 -67 -342 94 -104 253 -49 253 86 0
105 -103 173 -165 110 -44 -43 -27 -125 26 -125 25 0 25 16 -1 23 -28 7 -37
53 -15 77 39 43 107 15 125 -50 28 -104 -83 -187 -175 -130 -53 33 -78 89 -73
165 3 49 10 70 32 100 130 171 359 56 360 -180 0 -58 -5 -81 -30 -135 -53
-111 -165 -202 -301 -243 -79 -24 -98 -44 -32 -33 93 15 218 84 286 159 124
135 138 331 33 459 -61 73 -169 98 -256 59z"/>
<path d="M6784 6545 c-12 -18 -14 -35 -9 -61 8 -43 35 -104 47 -104 20 0 108
52 122 72 34 49 10 95 -44 85 -23 -5 -32 -2 -40 13 -15 28 -56 26 -76 -5z m61
-10 c16 -51 14 -49 34 -30 41 36 81 -6 44 -47 -10 -11 -35 -29 -56 -39 l-38
-20 -19 43 c-21 45 -24 66 -14 92 8 20 43 21 49 1z"/>
<path d="M1248 6510 l-32 -51 -68 7 c-62 6 -68 5 -68 -12 0 -11 16 -39 35 -63
34 -43 34 -43 19 -80 -45 -104 -42 -109 44 -82 l62 19 48 -39 c25 -22 51 -38
57 -36 5 2 11 33 13 70 l3 66 47 27 c78 45 77 56 -10 84 -53 17 -53 17 -68 76
-20 78 -40 82 -82 14z m63 -36 c7 -31 17 -58 23 -60 6 -1 30 -8 54 -14 23 -6
42 -14 42 -18 0 -4 -20 -18 -45 -32 l-44 -24 -3 -65 -3 -66 -43 39 -43 39 -55
-17 c-31 -10 -58 -15 -61 -13 -2 3 5 23 16 46 27 52 27 60 -9 107 -16 21 -30
42 -30 45 0 3 27 3 60 1 l59 -4 28 46 c15 25 31 46 35 46 3 0 12 -25 19 -56z"/>
<path d="M8170 6374 c19 -9 47 -30 62 -47 22 -25 28 -28 28 -14 0 32 -54 77
-92 76 l-33 -1 35 -14z"/>
<path d="M6971 6313 c-78 -39 -118 -145 -87 -228 58 -151 276 -165 345 -23 28
58 27 103 -5 166 -34 69 -88 102 -165 102 -30 0 -69 -8 -88 -17z m98 -65 c33
-58 -55 -110 -93 -56 -22 31 -20 45 8 73 30 30 63 23 85 -17z m59 -170 c17
-17 15 -45 -4 -52 -25 -10 -33 -7 -44 13 -7 15 -6 23 6 35 19 19 26 20 42 4z"/>
<path d="M8034 6070 c-53 -12 -103 -49 -130 -96 -52 -89 -18 -206 74 -253 92
-47 188 -35 245 29 75 82 70 196 -10 272 -44 42 -120 63 -179 48z m186 -97
c15 -22 25 -53 27 -86 6 -86 -45 -152 -132 -171 l-30 -7 30 19 c60 38 95 101
95 172 0 47 -11 72 -49 114 l-26 29 30 -17 c17 -10 42 -34 55 -53z m-168 30
c47 -42 -6 -118 -63 -90 -27 14 -38 69 -18 93 16 19 58 18 81 -3z m78 -208 c0
-17 -30 -34 -47 -28 -7 3 -13 15 -13 28 0 13 6 25 13 28 17 6 47 -11 47 -28z"/>
<path d="M7450 5981 c-12 -23 -5 -45 28 -89 32 -44 20 -76 -36 -93 -68 -20
-152 26 -152 82 0 11 -4 19 -10 19 -19 0 -10 -47 15 -84 14 -21 25 -51 25 -70
0 -116 82 -216 165 -200 41 7 113 68 140 117 12 23 32 41 56 50 36 14 78 61
65 74 -3 3 -17 -6 -30 -20 -62 -66 -186 -24 -186 64 0 21 6 28 28 34 34 8 72
43 72 65 0 52 -156 96 -180 51z m128 -27 c17 -7 32 -18 32 -24 0 -13 -60 -50
-82 -50 -21 0 -62 65 -54 86 7 17 44 13 104 -12z m-3 -231 c41 -20 43 -29 12
-71 -98 -132 -216 -95 -241 76 l-6 42 57 0 c32 1 69 7 83 14 23 13 26 12 42
-15 10 -16 34 -37 53 -46z"/>
<path d="M6700 5860 c-27 -27 -25 -70 4 -128 35 -68 47 -77 85 -57 55 28 101
82 101 118 0 18 -5 38 -12 45 -15 15 -64 16 -73 2 -4 -7 -16 -1 -30 15 -29 30
-48 32 -75 5z m72 -40 c14 -30 17 -32 24 -17 8 21 42 37 62 30 17 -7 15 -54
-3 -80 -20 -29 -82 -66 -99 -60 -18 7 -56 87 -56 118 0 57 46 63 72 9z"/>
<path d="M1250 5758 c-56 -29 -80 -74 -80 -149 l0 -56 -49 13 c-84 21 -158 -8
-194 -77 -55 -104 49 -228 231 -274 62 -15 290 -37 304 -29 14 9 32 155 32
264 1 173 -44 280 -130 316 -45 19 -63 18 -114 -8z m120 -25 c42 -29 59 -55
80 -122 23 -73 27 -205 9 -326 l-11 -75 -47 0 c-144 0 -319 43 -387 95 -81 62
-97 140 -41 201 46 50 105 57 180 20 30 -14 57 -26 60 -26 3 0 -1 21 -10 46
-36 105 19 203 112 204 17 0 42 -8 55 -17z"/>
<path d="M8114 5519 c-24 -26 -24 -98 -1 -151 19 -46 40 -48 112 -14 60 27 83
63 69 104 -8 23 -15 27 -49 28 -25 0 -40 6 -43 15 -6 19 -32 39 -52 39 -9 0
-25 -9 -36 -21z m71 -37 c9 -33 19 -40 30 -22 10 16 55 12 62 -6 10 -27 -14
-60 -62 -83 -26 -12 -54 -21 -63 -19 -21 4 -44 83 -37 125 9 53 54 57 70 5z"/>
<path d="M9063 5519 c-19 -12 -43 -43 -60 -77 -23 -48 -28 -72 -31 -158 -2
-56 1 -134 8 -173 l12 -71 71 0 c232 0 407 89 407 206 0 38 -35 89 -74 108
-39 18 -67 20 -112 7 l-32 -9 0 47 c0 26 -7 62 -16 79 -31 60 -113 80 -173 41z
m140 -39 c29 -33 36 -85 17 -136 -14 -35 -7 -40 32 -21 64 30 121 25 159 -12
23 -23 29 -38 29 -72 0 -36 -6 -47 -39 -80 -58 -54 -210 -99 -342 -99 l-46 0
-12 69 c-21 132 -7 262 36 328 44 67 116 77 166 23z"/>
<path d="M1200 4940 c-52 -52 8 -139 75 -108 46 21 50 94 6 117 -30 17 -59 13
-81 -9z m71 -10 c21 -12 25 -50 7 -68 -21 -21 -57 -14 -70 14 -11 23 -10 29
11 45 27 22 27 22 52 9z"/>
<path d="M9407 4588 c-9 -7 -19 -25 -22 -40 -5 -21 -1 -33 19 -52 14 -15 31
-26 39 -26 26 0 67 41 67 66 0 49 -63 81 -103 52z m67 -24 c29 -29 12 -64 -31
-64 -32 0 -46 31 -27 58 18 26 37 28 58 6z"/>
<path d="M802 4493 c-7 -3 -18 -16 -23 -30 -13 -36 12 -73 49 -73 35 0 52 16
52 50 0 43 -39 69 -78 53z m52 -29 c19 -19 20 -26 4 -42 -30 -30 -78 0 -58 37
13 25 33 27 54 5z"/>
<path d="M9009 4267 c-40 -31 -54 -69 -54 -152 1 -112 2 -115 73 -115 120 0
205 46 205 111 0 40 -33 69 -79 69 -31 0 -34 3 -34 30 0 56 -68 91 -111 57z
m76 -24 c13 -13 16 -27 11 -60 -5 -41 -4 -43 13 -33 26 14 74 13 89 -2 21 -21
14 -65 -13 -87 -28 -22 -105 -41 -164 -41 -38 0 -39 1 -45 45 -10 65 3 132 31
166 28 33 54 37 78 12z"/>
<path d="M1205 4175 c-54 -53 -16 -145 60 -145 49 0 85 36 85 85 0 76 -92 114
-145 60z m102 -17 c28 -26 30 -61 3 -88 -26 -26 -64 -25 -90 2 -25 28 -26 62
0 88 26 26 58 25 87 -2z"/>
<path d="M1460 3640 c-11 -11 -20 -31 -20 -45 0 -22 -4 -25 -33 -25 -110 0
-101 -125 11 -158 60 -18 158 -16 166 4 14 37 6 155 -14 193 -28 55 -73 68
-110 31z m81 -26 c21 -23 24 -35 24 -107 l0 -82 -45 -3 c-85 -6 -170 35 -170
84 0 41 44 54 102 30 14 -7 16 -2 11 33 -9 70 32 94 78 45z"/>
<path d="M8588 3385 c-3 -3 0 -29 5 -57 l10 -51 -36 -30 c-21 -16 -37 -37 -37
-47 0 -16 9 -19 52 -22 52 -3 53 -4 75 -50 13 -27 29 -48 36 -48 8 0 22 19 33
43 23 52 29 57 77 57 55 0 60 25 14 65 -35 31 -36 32 -30 88 7 67 -2 71 -59
32 l-36 -25 -44 25 c-45 26 -52 28 -60 20z m62 -45 c14 -11 32 -20 40 -20 8 0
26 9 40 20 37 29 41 25 34 -28 -6 -47 -5 -49 32 -78 l39 -29 -50 -5 c-47 -5
-51 -7 -69 -47 -11 -24 -22 -43 -25 -43 -3 1 -15 20 -26 43 -18 39 -23 42 -62
45 -51 4 -54 13 -12 43 30 21 31 24 25 70 -7 54 -3 58 34 29z"/>
<path d="M9095 3045 c-14 -13 -25 -33 -25 -45 0 -26 43 -70 68 -70 34 0 65 34
65 70 0 22 -7 39 -22 52 -31 25 -57 23 -86 -7z m83 -43 c3 -26 -1 -34 -20 -41
-42 -16 -78 21 -57 60 8 15 19 19 42 17 28 -3 32 -7 35 -36z"/>
<path d="M1823 3008 c-19 -5 -40 -21 -50 -36 -9 -15 -18 -29 -19 -31 -2 -2
-15 6 -30 18 -61 48 -144 10 -144 -67 0 -66 76 -153 188 -218 l33 -19 39 45
c55 64 90 131 97 188 10 88 -40 140 -114 120z m70 -33 c39 -38 25 -127 -31
-206 -65 -91 -57 -86 -99 -64 -49 27 -130 101 -148 136 -21 39 -19 75 5 99 31
31 68 25 106 -15 18 -19 35 -35 37 -35 3 0 7 13 10 30 12 60 83 92 120 55z"/>
<path d="M8441 2674 c-61 -51 -25 -148 54 -148 78 0 112 89 56 145 -36 36 -70
37 -110 3z m103 -26 c21 -30 20 -54 -4 -78 -27 -27 -75 -26 -94 2 -32 46 -6
98 49 98 24 0 39 -7 49 -22z"/>
<path d="M2040 2552 c-50 -16 -66 -76 -30 -112 41 -41 110 -13 110 44 0 44
-42 80 -80 68z m48 -34 c19 -19 14 -56 -9 -68 -16 -9 -26 -8 -45 5 -27 17 -29
27 -14 56 12 21 50 25 68 7z"/>
</g>
</svg>
