<?xml version="1.0" standalone="no"?>
<!DOCTYPE svg PUBLIC "-//W3C//DTD SVG 20010904//EN"
 "http://www.w3.org/TR/2001/REC-SVG-20010904/DTD/svg10.dtd">
<svg version="1.0" xmlns="http://www.w3.org/2000/svg"
 width="1024.000000pt" height="1024.000000pt" viewBox="0 0 1024.000000 1024.000000"
 preserveAspectRatio="xMidYMid meet">
<metadata>
Created by potrace 1.16, written by Peter Selinger 2001-2019
</metadata>
<g transform="translate(0.000000,1024.000000) scale(0.100000,-0.100000)"
fill="#000000" stroke="none">
<path d="M4705 9536 c-96 -42 -120 -172 -69 -376 32 -126 42 -293 25 -389 -25
-139 -101 -233 -165 -203 -30 13 -44 55 -26 77 11 14 15 14 36 0 46 -30 84 -7
84 50 0 49 -46 85 -108 85 -140 0 -210 -170 -117 -286 l23 -28 -85 -17 c-343
-70 -614 -406 -699 -868 l-17 -92 -73 76 c-41 41 -74 79 -74 84 0 4 15 24 34
44 38 40 46 70 46 170 0 77 -7 78 -34 5 -10 -26 -26 -58 -37 -70 l-20 -23 12
25 c7 14 13 54 12 90 0 85 -29 144 -110 231 -61 65 -93 124 -93 175 0 27 -26
44 -69 44 -43 0 -82 -17 -119 -53 l-32 -31 -45 22 c-27 13 -65 22 -91 22 -39
0 -51 -5 -79 -33 -18 -18 -39 -53 -46 -77 -7 -25 -24 -53 -36 -63 -13 -10 -23
-24 -23 -30 0 -35 -25 -91 -55 -127 -36 -43 -43 -76 -25 -111 8 -14 6 -32 -6
-67 -35 -99 13 -203 101 -216 22 -3 69 -13 105 -22 121 -30 161 -35 203 -27
23 5 71 6 107 3 l65 -5 -62 -43 c-59 -40 -86 -80 -45 -68 9 3 48 15 87 27 80
25 135 71 135 114 0 25 3 27 28 20 47 -11 105 -51 171 -119 l64 -65 -9 -66 -9
-66 -58 -24 c-62 -25 -97 -50 -97 -70 0 -19 96 -104 135 -121 41 -17 49 -39 9
-24 -43 17 -65 11 -99 -23 l-33 -33 -11 36 c-21 70 -81 107 -130 79 -32 -18
-71 -75 -71 -103 0 -12 -4 -28 -10 -36 -8 -12 -11 -12 -27 2 -10 9 -30 19 -45
22 -43 7 -49 15 -27 37 30 30 39 63 39 140 0 69 -14 93 -26 42 -14 -68 -56
-139 -75 -128 -5 4 -9 22 -9 41 0 47 -42 126 -87 163 -55 45 -112 61 -221 61
-92 0 -94 1 -123 31 -25 27 -34 31 -65 26 -70 -12 -124 -71 -124 -135 0 -20
-6 -35 -15 -39 -25 -9 -47 -62 -44 -107 3 -44 -24 -102 -52 -111 -18 -6 -39
-46 -39 -75 0 -24 -8 -25 -34 -5 -25 19 -77 19 -102 0 -25 -19 -34 -19 -34 3
0 32 -37 80 -69 87 -34 7 -82 -13 -104 -45 -13 -18 -15 -14 -24 54 -12 86 -28
122 -65 149 -33 25 -84 17 -128 -19 l-30 -26 0 69 c0 82 -12 128 -42 160 -26
28 -57 29 -90 3 l-26 -20 -4 93 c-5 104 -26 163 -76 214 -34 34 -126 63 -143
46 -7 -7 6 -12 37 -16 52 -5 89 -28 122 -77 32 -48 45 -104 46 -202 0 -49 2
-88 4 -88 2 0 17 11 34 25 41 35 74 33 99 -7 18 -29 20 -46 17 -145 -2 -62 -1
-113 2 -113 3 0 14 14 24 31 21 36 71 69 104 69 63 0 92 -50 100 -167 2 -46 7
-83 10 -83 2 0 22 18 43 40 39 40 76 51 106 32 16 -10 43 -75 43 -103 0 -20 1
-20 31 5 45 38 99 36 133 -5 27 -31 29 -30 27 7 -3 28 25 94 38 94 6 0 11 -6
11 -14 0 -7 9 -25 20 -39 11 -14 20 -34 20 -45 0 -29 36 -69 75 -83 29 -11 34
-17 29 -34 -23 -70 7 -152 52 -141 12 3 72 13 134 21 166 24 264 67 309 138
17 27 21 29 27 14 3 -10 4 -36 1 -57 -3 -22 -1 -42 4 -45 14 -9 51 74 52 120
2 40 4 44 32 48 20 3 34 -1 42 -12 11 -14 12 -14 13 3 0 16 5 17 38 12 75 -13
332 -80 332 -87 0 -3 -20 -9 -45 -11 -102 -12 -174 -99 -183 -219 -5 -79 -9
-77 94 -58 84 15 152 55 186 108 l28 45 0 -90 0 -91 -77 -60 -78 -60 -95 7
c-124 9 -126 10 -122 65 9 112 -62 207 -183 244 -37 12 -78 21 -91 21 -23 0
-24 -3 -24 -60 0 -109 47 -194 138 -248 l34 -20 -224 -4 c-181 -3 -285 2 -305
17 -1 0 2 18 8 38 13 46 -2 106 -36 144 l-25 28 6 -57 c7 -57 0 -108 -14 -108
-4 0 -13 20 -20 44 -15 57 -82 118 -192 174 -83 43 -126 51 -175 32 -18 -7
-40 -6 -71 2 -39 11 -49 10 -80 -7 -56 -30 -77 -88 -54 -149 9 -24 6 -27 -25
-40 -41 -18 -59 -55 -50 -104 5 -27 1 -42 -20 -71 -35 -52 -46 -93 -33 -137 9
-35 79 -147 99 -160 27 -16 -4 -23 -121 -26 l-130 -3 -1 35 c-1 19 -5 89 -9
155 l-6 120 -2 -156 -2 -156 -122 -6 c-66 -4 -149 -7 -182 -7 -34 0 -68 -5
-76 -11 -15 -10 226 -5 331 7 l46 5 6 -128 c4 -70 7 -172 7 -225 l0 -98 -27 0
c-51 0 -198 -13 -203 -17 -2 -2 47 -3 110 -2 l115 2 5 -136 c3 -74 8 -139 12
-143 5 -4 8 58 8 138 l0 146 188 6 c103 4 195 10 204 12 12 4 19 -2 22 -18 2
-13 9 -194 16 -402 9 -314 9 -381 -2 -392 -11 -12 -13 1 -13 75 0 105 -14 132
-86 169 -42 22 -85 24 -131 7 -10 -4 -13 8 -13 52 0 70 -27 128 -75 161 -58
39 -155 26 -215 -29 -20 -18 -20 -17 -20 49 -1 110 -53 172 -132 157 -34 -6
-35 -6 -28 24 9 42 -11 107 -42 130 -27 22 -73 28 -73 11 0 -5 9 -10 19 -10
69 0 101 -82 67 -165 -17 -39 -6 -46 28 -20 34 26 81 19 110 -15 32 -39 40
-83 31 -173 l-7 -71 47 52 c66 73 143 90 212 45 50 -33 78 -143 53 -207 -11
-31 -11 -31 49 -9 121 43 220 -55 192 -188 -6 -28 -18 -64 -27 -80 -23 -45
-10 -47 34 -7 55 49 101 63 160 48 62 -15 110 -53 133 -104 24 -53 23 -90 -1
-145 -11 -24 -19 -45 -17 -47 2 -2 21 5 42 16 50 26 115 25 165 0 74 -38 95
-101 61 -190 -12 -30 -21 -56 -21 -58 0 -2 19 8 43 22 63 36 116 42 171 18 36
-16 47 -27 54 -54 5 -18 5 -45 1 -60 -9 -33 -3 -39 28 -27 43 16 73 10 104
-20 35 -35 39 -81 10 -110 -72 -72 -879 -206 -1540 -256 -181 -14 -245 -25
-140 -25 129 0 651 54 974 101 289 42 623 112 685 144 60 31 75 85 40 142 -21
35 -76 57 -117 47 -21 -6 -23 -3 -23 27 0 44 -33 97 -65 105 -45 11 -18 21 77
28 108 8 344 33 763 81 165 19 471 51 680 70 209 19 423 39 475 44 57 6 99 6
104 0 6 -5 -8 -9 -37 -9 -55 0 -87 -25 -87 -68 0 -26 -2 -27 -44 -24 -59 5
-90 -25 -83 -81 5 -34 3 -37 -20 -37 -32 0 -83 -51 -83 -84 0 -14 11 -37 24
-53 l24 -28 368 3 c341 3 659 14 762 28 l42 5 0 -214 0 -215 -67 -11 c-38 -6
-219 -34 -403 -62 -184 -27 -345 -53 -357 -56 l-23 -5 20 43 c25 55 25 69 1
69 -18 0 -91 -74 -91 -92 0 -5 -4 -6 -10 -3 -5 3 -10 18 -10 33 -1 65 -42 68
-59 5 -6 -21 -11 -46 -11 -55 0 -9 -4 -20 -10 -23 -5 -3 -114 -24 -242 -46
-864 -148 -1714 -324 -2471 -513 -239 -59 -248 -61 -252 -41 -19 94 -29 125
-40 125 -17 0 -35 -53 -35 -102 l0 -38 -43 45 c-51 53 -77 59 -77 16 0 -16 7
-45 16 -66 8 -20 13 -39 10 -42 -3 -3 -85 -27 -182 -54 -98 -27 -182 -53 -187
-58 -6 -6 48 5 119 25 71 19 161 42 199 51 39 9 72 18 74 20 2 1 -6 25 -18 53
-12 29 -21 61 -19 72 3 20 3 20 32 -3 15 -12 41 -40 57 -62 l29 -40 0 59 c1
67 23 134 33 99 3 -11 8 -40 12 -65 12 -84 -5 -81 203 -28 698 178 1716 391
2541 531 l255 43 11 55 c6 29 14 60 18 67 13 20 27 4 28 -31 1 -18 4 -43 8
-57 l7 -25 17 32 c21 39 75 103 88 103 5 0 -3 -25 -16 -57 -14 -31 -24 -58
-22 -59 2 -2 39 3 83 10 142 25 775 118 778 115 4 -5 -10 -538 -19 -736 l-7
-152 -102 1 c-112 2 -193 -16 -240 -53 -44 -35 -165 -58 -300 -59 -148 0 -269
-26 -352 -76 -70 -42 -195 -72 -354 -84 -134 -11 -212 -29 -295 -70 -68 -34
-361 -105 -470 -115 -101 -9 -188 -31 -263 -66 -35 -17 -139 -51 -231 -75 -91
-24 -251 -67 -354 -97 -113 -33 -186 -49 -183 -42 2 7 7 32 11 57 5 34 3 47
-9 57 -14 11 -21 9 -52 -14 -20 -15 -53 -55 -75 -88 l-38 -61 -11 29 c-26 73
-35 93 -59 135 -55 97 -121 174 -136 158 -2 -2 10 -35 26 -73 34 -79 69 -198
69 -233 0 -22 -4 -21 -51 22 -50 45 -89 59 -89 33 0 -8 12 -42 26 -77 26 -65
26 -90 -1 -90 -37 0 -747 -261 -727 -268 6 -2 97 29 201 67 273 102 531 191
553 191 22 0 18 22 -18 114 -13 33 -24 61 -24 63 0 13 65 -35 99 -73 23 -26
43 -45 45 -43 12 12 -18 159 -48 241 -19 51 -34 94 -32 95 1 1 20 -21 41 -50
49 -65 100 -166 116 -229 7 -26 16 -48 19 -48 4 0 15 19 26 42 38 84 113 164
133 142 5 -5 3 -36 -5 -69 -7 -33 -13 -71 -12 -85 l0 -25 7 24 c5 20 21 28 86
48 112 34 586 163 596 163 5 0 2 -11 -7 -25 -24 -37 -6 -71 54 -98 38 -17 71
-22 174 -25 148 -5 252 12 365 60 70 29 133 82 133 112 0 42 -70 85 -165 102
-38 6 -33 8 80 35 66 16 125 29 130 29 6 0 11 -12 10 -27 0 -31 43 -66 104
-84 57 -17 239 -23 318 -10 132 20 243 78 243 125 0 32 -46 68 -115 91 l-70
22 60 13 c33 6 69 14 81 16 18 5 20 1 16 -30 -3 -28 1 -40 21 -58 82 -76 390
-91 574 -27 178 61 202 171 48 218 -70 22 -71 23 -20 35 46 10 51 10 60 -9 22
-43 71 -57 195 -52 77 2 128 9 154 20 34 15 37 15 32 1 -3 -9 -6 -33 -6 -53
l0 -38 -69 -7 c-192 -17 -312 -105 -238 -173 32 -30 124 -54 218 -56 l81 -2
-6 -70 c-3 -38 -8 -134 -12 -213 l-7 -144 -31 59 c-45 84 -71 119 -153 204
-73 75 -73 76 -53 94 25 22 26 57 3 77 -68 56 -275 73 -410 33 -149 -44 -131
-134 33 -165 57 -11 183 -10 257 2 11 2 26 -10 39 -31 18 -28 19 -34 6 -28
-93 35 -376 40 -509 9 -46 -11 -105 -30 -132 -41 l-47 -20 -45 33 c-144 110
-506 113 -730 6 -148 -71 -176 -157 -73 -226 76 -52 167 -69 358 -69 127 0
180 4 229 18 51 14 128 45 161 64 3 2 14 -13 25 -33 40 -74 166 -133 330 -155
94 -12 265 -7 323 10 41 12 40 5 -3 -35 -19 -17 -35 -37 -35 -43 0 -9 129 -18
178 -12 22 3 13 -7 -33 -33 -75 -45 -72 -106 7 -143 114 -54 333 -62 481 -17
11 3 17 0 17 -10 0 -10 -13 -17 -37 -21 -162 -26 -238 -55 -276 -107 -18 -24
-18 -30 -7 -58 28 -68 159 -104 375 -103 257 0 457 64 430 136 -6 15 127 -1
539 -64 176 -26 201 -28 214 -15 8 8 30 70 48 137 19 67 35 124 37 126 2 2 24
-4 48 -13 24 -9 91 -18 149 -21 87 -5 120 -2 190 16 91 23 154 58 165 91 10
31 -20 69 -73 93 -64 29 -269 37 -361 13 -35 -9 -66 -16 -70 -16 -7 0 13 109
21 114 2 1 59 -1 128 -5 214 -12 386 -11 398 4 6 6 22 56 35 110 14 54 27 100
29 102 1 1 44 -6 93 -17 125 -27 443 -29 560 -4 161 35 245 91 245 163 0 78
-114 147 -310 189 -118 26 -400 26 -518 1 -217 -46 -298 -119 -246 -219 l16
-31 -38 6 c-22 3 -91 9 -155 13 l-117 7 5 38 c5 34 1 43 -29 73 -44 44 -117
66 -240 73 -121 7 -201 -7 -293 -52 -38 -18 -86 -36 -105 -40 -31 -6 -39 -2
-73 33 l-38 39 53 12 c63 14 111 41 134 76 15 23 15 27 0 50 -40 61 -174 98
-361 97 -113 0 -179 -7 -247 -28 -13 -4 -18 0 -18 14 0 16 10 20 69 26 134 12
241 60 241 109 0 10 -13 31 -28 47 -34 34 -103 50 -212 50 l-80 0 0 90 c0 65
3 90 13 90 7 0 12 -14 12 -37 0 -31 6 -41 34 -60 55 -37 107 -47 251 -48 113
0 147 4 207 23 40 12 84 33 99 45 31 27 35 68 9 97 -21 23 -115 60 -152 60
-43 0 -21 9 63 25 99 19 94 19 94 -9 0 -52 76 -77 230 -77 228 -1 410 63 410
143 0 25 -7 32 -50 51 l-51 23 353 67 c194 37 358 67 364 67 7 0 9 -11 6 -25
-3 -16 2 -33 12 -44 16 -18 13 -18 -91 -14 -197 10 -318 -36 -298 -114 14 -56
200 -97 342 -75 104 16 167 48 171 85 2 16 -3 36 -12 45 -13 16 -3 17 147 17
121 0 181 5 237 18 134 32 199 79 181 131 -9 25 -84 66 -123 66 -59 0 -33 17
43 29 45 7 87 15 95 18 12 4 12 0 4 -23 -10 -26 -8 -31 14 -51 15 -12 45 -27
69 -34 43 -11 211 -9 223 4 14 14 -2 15 -61 5 -66 -12 -173 2 -212 28 -79 51
72 135 219 121 32 -3 58 -1 58 4 0 5 -39 9 -86 9 -66 0 -100 -5 -147 -24 -69
-26 -269 -60 -451 -76 -81 -7 -143 -19 -190 -36 -82 -29 -130 -40 -591 -129
-215 -41 -366 -65 -410 -65 -94 0 -240 -31 -323 -69 -81 -37 -263 -73 -389
-76 -95 -3 -180 -23 -242 -56 -19 -10 -46 -19 -58 -19 -19 0 -22 7 -27 62 -3
35 -8 228 -11 431 -5 297 -4 368 7 372 7 2 85 14 173 25 254 32 232 26 240 68
7 40 28 75 38 65 4 -3 7 -21 7 -40 0 -40 14 -43 29 -5 7 16 26 44 44 63 26 28
32 31 35 16 2 -10 -3 -39 -12 -64 -9 -26 -15 -48 -13 -49 2 -2 124 12 272 31
149 19 334 43 413 53 78 10 142 16 142 13 0 -4 -9 -12 -20 -18 -61 -39 -38
-83 43 -83 161 1 300 85 192 116 l-40 11 45 7 c53 7 559 66 572 66 4 0 8 15 8
33 0 41 8 51 28 34 13 -10 14 -9 10 3 -2 8 -13 15 -24 15 -14 0 -20 -8 -22
-32 -3 -28 -8 -33 -35 -37 -82 -13 -1562 -194 -1565 -191 -2 1 4 26 14 55 12
38 14 54 5 63 -8 8 -23 -2 -60 -40 -48 -49 -49 -50 -55 -27 -10 40 -33 27 -54
-28 -18 -48 -23 -53 -53 -56 -19 -2 -107 -14 -197 -26 -89 -12 -164 -20 -167
-18 -3 3 -5 92 -5 197 l0 192 58 7 c123 14 192 54 192 110 0 21 7 27 42 37 64
17 132 89 153 163 10 36 15 78 13 107 l-5 48 46 5 c93 12 662 56 719 56 22 0
22 -1 6 -25 -15 -23 -15 -46 1 -87 4 -10 -9 -12 -61 -10 -37 2 -78 -2 -95 -8
-68 -29 -93 -124 -43 -171 23 -21 37 -24 152 -30 297 -16 1032 -5 1379 21 228
17 357 31 373 42 10 6 -5 7 -45 3 -374 -38 -759 -55 -1235 -56 -593 -1 -634 5
-634 84 0 46 33 83 86 98 40 10 119 4 151 -13 22 -11 22 0 -3 37 -25 38 -26
77 -2 98 23 21 93 22 132 2 35 -18 38 -8 10 37 -61 101 -10 232 84 214 19 -4
54 -25 80 -47 48 -42 56 -42 31 1 -34 60 -8 151 50 176 46 19 73 18 118 -6 52
-28 56 -26 39 25 -12 38 -12 53 -2 90 26 94 91 107 174 35 l36 -32 0 58 c0
131 87 210 186 169 21 -9 49 -26 61 -37 31 -29 35 -21 16 35 -19 57 -11 106
22 144 21 25 30 28 82 27 34 0 71 -7 91 -17 37 -20 38 -18 13 31 -44 88 -47
196 -6 258 41 63 135 83 209 43 21 -11 40 -18 42 -16 2 2 -3 20 -11 40 -19 46
-19 98 -1 142 20 46 56 68 106 63 43 -4 54 6 19 17 -92 30 -181 -87 -151 -197
l10 -36 -34 14 c-47 20 -90 17 -140 -6 -45 -22 -68 -50 -89 -108 -11 -32 -13
-9 -9 173 3 116 7 228 10 251 l5 41 192 7 c179 7 207 10 196 20 -2 2 -91 1
-197 -3 l-192 -6 -1 90 -2 90 -9 -90 c-5 -49 -10 -90 -11 -91 -1 -1 -98 -4
-214 -7 l-213 -6 -1 107 c0 69 -3 100 -9 87 -5 -11 -9 -59 -9 -107 l-1 -88
-47 0 c-27 0 -78 -3 -115 -7 l-68 -6 0 474 c1 473 1 474 20 450 11 -13 20 -29
20 -37 0 -7 5 -16 11 -20 8 -4 9 3 5 23 -10 43 8 83 36 83 13 0 32 -7 42 -15
32 -24 36 -18 19 31 -21 63 -14 182 16 250 29 67 81 117 120 117 57 0 85 -44
102 -160 7 -43 13 -80 15 -82 2 -2 15 11 29 28 36 41 62 40 81 -4 7 -19 14
-44 14 -55 0 -29 17 -25 35 10 26 50 67 62 119 35 16 -9 31 -13 33 -11 3 3 -4
30 -16 61 -47 126 -8 246 67 206 30 -16 32 -14 26 19 -18 87 56 147 104 85 11
-14 23 -25 26 -25 3 0 6 33 6 73 0 123 26 177 95 202 l40 14 -33 1 c-70 0
-122 -90 -122 -210 l0 -39 -29 17 c-24 13 -33 14 -55 4 -30 -13 -60 -74 -53
-103 4 -15 0 -17 -23 -12 -36 7 -65 -21 -81 -79 -11 -42 -7 -84 17 -167 5 -18
4 -22 -5 -17 -27 17 -83 8 -110 -18 l-27 -26 -13 36 c-15 42 -49 61 -80 45
-11 -7 -21 -16 -21 -21 0 -6 -4 -10 -10 -10 -5 0 -10 15 -10 33 0 132 -94 224
-175 171 -35 -23 -81 -100 -100 -168 -17 -59 -17 -152 1 -201 6 -16 5 -18 -7
-7 -24 22 -58 14 -78 -18 l-18 -31 -15 23 c-12 18 -17 69 -21 223 -4 144 -11
228 -26 299 -122 589 -487 880 -1071 851 -69 -3 -534 -17 -1035 -30 -500 -14
-945 -26 -987 -28 -43 -2 -78 -1 -78 3 0 4 9 15 20 25 82 74 124 344 86 560
-8 44 -17 109 -21 145 l-8 65 31 -33 c76 -81 177 5 157 133 -9 63 -55 128
-107 154 -51 24 -80 26 -123 7z m125 -38 c51 -35 82 -102 77 -165 -4 -60 -27
-93 -65 -93 -38 0 -62 27 -62 71 0 38 23 73 44 66 6 -2 19 -19 28 -38 l18 -34
0 31 c0 18 -8 38 -20 49 -31 28 -70 10 -97 -45 -28 -54 -30 -128 -6 -255 9
-52 16 -139 16 -205 -1 -178 -35 -293 -111 -372 l-36 -38 -89 0 c-97 0 -116 6
-142 47 -79 120 19 279 140 229 41 -18 57 -59 32 -84 -15 -14 -18 -14 -35 1
-57 52 -114 -43 -60 -100 15 -17 33 -23 61 -23 58 0 118 64 148 157 33 104 37
261 9 388 -47 215 -52 252 -39 313 22 109 108 154 189 100z m2145 -1013 c89
-23 235 -98 320 -165 41 -33 75 -64 75 -68 0 -4 -15 -17 -34 -29 -21 -14 -45
-44 -62 -80 -27 -53 -29 -70 -34 -200 -3 -96 -9 -146 -18 -155 -7 -7 -46 -15
-87 -19 -53 -4 -81 -11 -96 -25 -29 -26 -59 -92 -59 -131 0 -31 -2 -33 -37
-33 -21 0 -63 -3 -93 -7 -53 -6 -55 -5 -39 13 42 49 63 108 64 180 0 62 -4 76
-28 111 -30 43 -202 173 -271 204 -118 54 -220 -6 -278 -162 -42 -113 -58
-133 -131 -168 -104 -50 -146 -113 -135 -205 4 -39 9 -37 -124 -52 l-58 -6 0
-74 0 -74 -38 6 c-76 12 -128 -65 -120 -176 5 -74 41 -125 110 -154 l48 -20 0
-103 c0 -122 7 -121 -109 -15 -92 83 -128 138 -148 223 -21 92 0 173 86 330
88 160 104 209 99 296 -13 232 -250 422 -513 412 l-80 -3 -105 105 c-83 83
-122 114 -190 149 l-85 45 123 3 123 3 45 -40 c82 -72 323 -178 449 -196 l47
-8 62 66 c42 43 72 86 91 130 34 78 31 77 222 77 130 0 136 -1 165 -26 43 -36
110 -68 203 -97 85 -27 220 -57 255 -57 31 0 116 85 146 146 20 41 32 54 52
57 61 9 131 6 187 -8z m-235 -4 c0 -18 -80 -127 -109 -148 -16 -13 -41 -23
-55 -23 -37 0 -245 55 -315 83 -62 25 -131 66 -131 79 0 3 77 7 172 8 95 0
174 3 177 5 8 9 261 5 261 -4z m-995 -43 c-23 -77 -140 -218 -181 -218 -31 0
-213 60 -297 98 -74 34 -191 112 -181 121 6 6 253 16 507 19 l158 2 -6 -22z
m1459 2 c169 -58 316 -169 415 -313 55 -80 128 -246 156 -351 54 -208 57 -278
53 -1038 -1 -383 -6 -700 -10 -704 -5 -4 -34 -11 -65 -15 -385 -53 -690 -96
-938 -133 -165 -25 -448 -66 -630 -91 -507 -70 -690 -95 -692 -95 -2 0 -3 29
-3 64 l0 63 133 17 c72 10 294 40 492 66 198 27 513 70 700 95 578 78 899 125
907 133 5 5 11 222 14 483 7 560 -5 940 -35 1069 -75 328 -246 572 -515 734
-68 41 -64 44 18 16z m-2365 -49 c262 -132 460 -413 560 -796 46 -172 53 -249
60 -600 6 -274 3 -1297 -2 -1301 -1 -1 -30 -4 -64 -7 l-62 -7 -3 803 -4 802
-26 125 c-58 270 -133 461 -254 643 -111 167 -284 318 -419 365 -26 9 -18 11
53 11 77 1 88 -2 161 -38z m-337 15 c36 -8 101 -31 143 -50 71 -33 76 -37 64
-53 -13 -16 -12 -17 3 -4 15 11 22 11 45 -4 16 -10 38 -26 49 -37 l22 -20 -44
-71 c-24 -39 -44 -76 -44 -82 0 -5 21 25 46 68 24 42 47 77 50 77 3 0 15 -9
26 -20 l22 -20 -38 -70 c-20 -39 -35 -70 -32 -70 3 0 17 21 30 48 46 90 45 90
99 23 l48 -60 -28 -50 c-20 -36 -32 -49 -43 -45 -88 35 -280 94 -297 91 -13
-2 -23 -3 -23 -2 0 1 7 22 15 45 27 77 15 147 -29 168 -60 29 -106 19 -160
-34 -36 -35 -38 -36 -51 -17 -24 34 -90 58 -133 47 -75 -19 -107 -126 -63
-212 41 -80 172 -212 212 -212 17 0 111 86 152 140 l27 35 -14 -40 c-7 -22
-42 -119 -76 -215 -35 -96 -69 -196 -76 -222 -14 -53 -11 -58 49 -79 44 -16
46 -24 9 -43 -22 -11 -37 -12 -75 -3 -26 6 -47 15 -47 21 1 6 7 38 15 71 23
95 20 212 -7 265 -70 138 -260 80 -310 -94 -6 -23 -13 -42 -14 -44 -1 -2 -17
6 -35 17 -37 23 -98 27 -132 10 -12 -6 -37 -25 -56 -43 l-33 -31 7 35 c33 157
108 344 187 466 67 103 215 250 291 288 96 48 143 54 249 32z m-349 -74 c-118
-94 -204 -209 -288 -385 -77 -161 -116 -310 -141 -542 l-6 -59 -44 49 c-44 50
-44 50 -39 110 4 33 19 109 35 170 77 298 236 530 451 658 81 48 94 47 32 -1z
m-939 -18 c9 -4 16 -18 16 -34 0 -15 10 -49 21 -76 27 -59 21 -151 -12 -216
-22 -43 -117 -158 -131 -158 -16 0 -7 44 27 126 44 106 45 144 6 176 -16 13
-45 44 -65 70 l-35 47 34 26 c48 37 104 53 139 39z m-211 -70 c23 -16 55 -48
72 -71 16 -23 38 -45 48 -48 33 -12 39 -51 16 -106 -12 -27 -25 -49 -30 -49
-5 0 -9 2 -9 5 0 24 -54 183 -68 198 -15 17 -26 18 -92 12 -45 -4 -88 -14
-108 -26 -42 -24 -52 -24 -52 2 0 27 16 57 49 92 24 26 31 28 79 25 38 -3 65
-13 95 -34z m1580 -11 c33 -31 18 -110 -38 -198 -36 -57 -141 -165 -160 -165
-19 0 -158 150 -178 193 -21 44 -24 105 -8 136 29 54 107 46 161 -16 l32 -36
31 38 c59 72 114 89 160 48z m2884 -86 c16 -22 24 -42 18 -44 -74 -25 -125
-108 -125 -204 0 -83 16 -132 61 -183 41 -47 102 -77 189 -95 30 -6 61 -16 69
-20 22 -14 29 -96 30 -327 l1 -211 -38 -6 c-87 -14 -180 -104 -202 -196 -24
-102 20 -172 155 -244 l80 -42 3 -156 2 -157 -25 -6 c-26 -7 -55 -51 -55 -86
0 -11 -6 -23 -12 -25 -23 -9 -363 -53 -370 -48 -5 2 -8 10 -8 18 0 31 -44 129
-73 161 -38 44 -76 64 -122 64 -83 0 -155 -55 -236 -182 -28 -42 -67 -92 -88
-111 -36 -33 -42 -34 -207 -56 -93 -13 -181 -25 -195 -28 -25 -5 -26 -2 -32
45 -13 113 -103 222 -182 222 -42 0 -93 -29 -115 -65 -11 -18 -26 -68 -34
-112 -16 -94 -38 -141 -69 -148 -12 -2 -94 -14 -182 -25 -88 -11 -172 -23
-187 -26 l-28 -6 0 346 0 346 46 0 c105 0 150 76 84 142 -27 27 -36 30 -80 26
l-50 -3 0 84 c0 79 1 83 18 68 9 -8 42 -26 73 -40 108 -47 168 -125 169 -217
0 -78 -45 -129 -150 -166 -89 -32 -101 -37 -97 -41 2 -2 41 8 86 22 160 51
216 156 150 285 -26 53 -72 91 -162 135 l-82 40 -2 90 c-4 138 -22 422 -29
438 -4 11 6 21 31 32 88 43 156 165 156 286 1 105 -49 180 -137 209 -43 15
-120 8 -163 -15 l-30 -15 -22 42 c-12 24 -41 73 -65 110 l-43 66 41 7 c90 15
239 -22 334 -83 74 -48 125 -107 167 -192 27 -55 32 -75 32 -142 l0 -77 -88
-173 c-48 -96 -92 -197 -98 -226 -30 -147 35 -276 207 -412 l64 -52 0 -150 c0
-148 -1 -152 -26 -186 -15 -19 -62 -56 -104 -84 -115 -72 -160 -143 -160 -250
0 -94 49 -150 139 -156 122 -9 174 54 196 241 11 83 30 96 180 117 72 10 146
20 165 22 l35 3 6 -58 c12 -106 94 -176 219 -185 83 -6 130 9 183 57 50 45 76
102 84 185 7 75 -13 66 201 92 133 16 143 16 185 0 61 -23 93 -58 111 -120 31
-105 86 -143 200 -138 39 3 110 75 125 127 35 126 -3 231 -109 305 -87 61
-110 106 -110 213 0 103 16 133 151 279 84 92 111 129 124 169 24 70 16 152
-21 219 -33 61 -72 90 -169 127 -88 33 -119 54 -135 93 -15 36 -25 34 -11 -3
15 -38 60 -75 116 -93 126 -41 185 -96 212 -196 16 -66 16 -73 -3 -137 -12
-42 -34 -72 -117 -162 -56 -61 -112 -127 -124 -147 l-23 -37 0 125 0 125 36
20 c55 29 87 77 92 138 3 46 1 56 -23 81 -23 25 -31 28 -70 23 l-44 -4 -3 91
-3 91 -50 0 c-27 0 -109 -4 -182 -9 l-132 -8 6 38 c14 94 48 124 143 129 39 2
78 9 85 15 25 20 34 73 33 180 -2 147 20 209 96 268 l29 23 28 -27 c16 -15 41
-45 56 -67z m-4457 23 c25 -14 33 -54 16 -92 -14 -32 -14 -32 -15 -7 -1 15
-15 41 -36 62 -22 23 -30 37 -22 40 20 9 37 8 57 -3z m-75 -22 c36 -16 31 -25
-17 -31 -44 -6 -98 -51 -98 -82 0 -36 70 -56 124 -35 30 11 34 0 9 -22 -26
-22 -80 -38 -130 -38 -38 0 -45 4 -53 26 -15 38 -12 71 10 113 36 72 93 97
155 69z m470 -152 c33 -65 34 -151 3 -216 l-21 -45 -7 45 c-10 60 -33 113 -73
169 l-33 46 10 73 10 74 43 -49 c23 -26 54 -70 68 -97z m-648 75 l-20 -50 21
-73 c17 -58 30 -80 58 -104 33 -28 35 -32 19 -41 -13 -8 -37 -3 -94 19 -117
45 -122 55 -66 134 19 27 38 65 41 84 11 59 22 80 43 80 19 0 19 -1 -2 -49z
m232 17 c19 -51 -21 -82 -100 -76 -51 3 -63 26 -32 60 23 26 49 37 91 37 25 1
35 -4 41 -21z m4559 -64 l30 -51 -39 -12 c-22 -7 -46 -23 -55 -37 -22 -32 -21
-94 0 -127 24 -36 95 -62 133 -49 27 10 26 10 -15 11 -24 1 -55 7 -71 15 -45
24 -65 91 -40 138 9 16 64 48 84 48 18 0 126 -323 112 -336 -8 -8 -150 27
-187 46 -75 39 -120 111 -128 207 -4 54 -1 70 22 118 17 34 41 65 64 80 42 29
44 27 90 -51z m-4474 -16 c23 -70 24 -81 13 -127 l-12 -51 -50 0 c-107 0 -132
46 -65 119 22 25 50 66 63 92 12 25 23 46 24 45 0 0 13 -36 27 -78z m3468 68
c53 -15 209 -120 266 -176 67 -68 76 -152 27 -250 -38 -75 -48 -80 -185 -91
-120 -10 -124 -9 -146 12 -64 60 -94 191 -59 259 45 86 163 106 239 39 40 -34
52 -71 36 -109 -15 -37 -51 -52 -90 -39 -34 12 -50 51 -31 81 6 10 7 18 1 18
-5 0 -14 -9 -20 -21 -16 -28 3 -73 36 -88 66 -30 124 8 124 80 0 35 -6 48 -38
79 -69 69 -163 73 -235 10 -73 -64 -74 -173 -2 -279 33 -50 33 -51 11 -57 -12
-3 -48 -4 -80 -2 -77 4 -97 28 -105 125 -6 60 -7 64 -13 32 -8 -47 5 -104 32
-141 l21 -28 -23 0 c-13 0 -74 -5 -137 -10 -132 -12 -135 -11 -127 63 8 73 33
103 122 151 73 39 81 46 109 102 16 33 39 82 49 109 33 82 96 139 162 144 6 1
31 -5 56 -13z m-1528 -53 c12 -24 12 -31 0 -55 -15 -29 -29 -34 -54 -18 -13 8
-12 16 9 55 13 25 25 45 27 45 2 0 10 -12 18 -27z m-267 -27 c56 -19 160 -57
231 -86 l130 -51 25 -57 c13 -31 24 -58 23 -58 0 -1 -64 12 -141 27 -114 23
-146 27 -175 18 -19 -6 -48 -15 -64 -19 -23 -8 -32 -5 -48 13 -23 26 -118 215
-118 234 0 20 27 16 137 -21z m-77 -160 c17 -17 12 -26 -14 -26 -14 0 -37 -10
-51 -23 -32 -27 -44 -97 -26 -149 6 -18 8 -34 3 -36 -4 -1 -43 -22 -85 -46
-42 -24 -77 -43 -77 -42 0 2 26 75 58 162 33 87 72 196 87 240 l29 82 33 -76
c18 -41 37 -80 43 -86z m-1330 6 c27 -71 27 -151 -1 -186 l-20 -26 -66 50
c-36 28 -70 50 -76 50 -5 0 11 22 35 48 39 41 75 92 66 92 -2 0 -21 -7 -43
-15 -22 -8 -51 -14 -64 -15 -22 0 -20 4 21 48 25 27 51 59 58 71 12 23 12 23
41 -20 16 -24 38 -68 49 -97z m1719 104 c12 -18 21 -36 21 -39 0 -7 -49 12
-63 24 -8 6 8 49 18 49 2 0 13 -15 24 -34z m-2151 -32 c-9 -19 -9 -33 -1 -55
11 -28 10 -29 -18 -29 -28 0 -109 60 -109 81 0 5 17 10 38 10 29 1 87 11 99
18 2 0 -3 -11 -9 -25z m2618 -5 c124 -38 151 -233 52 -377 -26 -38 -106 -107
-114 -99 -2 1 -11 42 -22 89 l-19 87 29 12 c40 16 58 46 58 95 0 34 -5 47 -26
63 -15 12 -38 21 -53 20 -24 -1 -24 -1 6 -10 77 -22 85 -117 13 -154 l-29 -15
-22 72 c-11 40 -32 97 -45 126 -13 30 -24 60 -24 67 0 11 44 28 95 38 22 5 54
0 101 -14z m-2326 -114 c-24 -25 -58 -49 -76 -55 -17 -6 -85 -9 -151 -8 -116
3 -121 2 -161 -25 -50 -32 -53 -25 -12 31 45 63 65 69 235 74 89 2 158 9 170
16 40 23 38 11 -5 -33z m291 -37 c-13 -41 -52 -78 -85 -78 -18 -1 -19 -2 -6
-13 8 -7 27 -30 42 -52 15 -22 61 -72 102 -112 94 -92 192 -214 263 -328 79
-127 265 -491 261 -512 -4 -23 -16 -3 -103 162 -202 385 -276 496 -429 643
-73 69 -108 95 -147 109 -28 10 -53 23 -56 29 -2 7 7 24 21 39 14 15 26 35 26
45 0 9 22 37 49 64 28 26 53 57 58 69 7 22 7 22 11 -3 2 -13 -1 -41 -7 -62z
m-751 47 c30 -10 56 -19 58 -20 1 -1 -9 -22 -23 -46 -27 -49 -33 -89 -11 -89
7 0 19 7 26 16 34 41 48 38 113 -22 34 -31 79 -65 102 -75 l40 -19 -51 0 c-28
0 -73 7 -100 15 -27 8 -80 20 -119 25 -80 12 -119 41 -135 100 -14 55 8 147
34 137 6 -2 36 -12 66 -22z m1533 4 c80 -36 87 -189 20 -427 l-26 -93 -76 -52
c-42 -29 -97 -68 -123 -86 l-46 -34 -30 21 c-54 39 -149 150 -176 205 -38 77
-44 151 -18 210 44 100 145 115 221 33 l25 -26 18 72 c34 133 130 214 211 177z
m432 -44 c14 -13 25 -29 25 -36 0 -8 6 -7 18 3 9 8 30 18 46 22 26 6 28 5 23
-16 -4 -13 -14 -56 -23 -96 -14 -63 -19 -72 -35 -67 -10 4 -39 -3 -64 -14
l-45 -20 -25 44 c-44 74 -45 145 -5 185 27 27 56 25 85 -5z m285 -86 c63 -49
143 -109 177 -132 48 -32 65 -50 73 -77 14 -50 13 -52 -16 -23 -22 22 -32 25
-69 21 -38 -5 -44 -2 -54 18 -5 13 -22 31 -36 40 -59 39 -150 -27 -143 -103 2
-25 -3 -37 -20 -49 -13 -9 -25 -14 -27 -13 -2 2 -21 41 -43 85 l-39 82 28 108
c33 127 36 134 46 134 4 0 60 -41 123 -91z m58 57 c63 -13 117 -28 122 -32 10
-11 53 -155 47 -160 -2 -2 -50 31 -106 73 -56 43 -123 93 -149 111 -55 38 -58
38 86 8z m-1814 -57 c36 -28 66 -55 66 -60 0 -4 -21 -20 -47 -35 -37 -23 -58
-28 -107 -27 -86 2 -153 34 -256 123 l-35 31 130 -3 c89 -2 136 1 150 9 11 7
23 13 26 13 4 0 36 -23 73 -51z m61 -146 c-18 -33 -71 -65 -130 -77 l-30 -7
26 18 c15 10 53 45 85 77 48 48 60 55 63 40 2 -10 -5 -33 -14 -51z m1318 26
c10 -18 16 -33 15 -34 -2 -2 -26 -17 -54 -34 l-51 -31 -47 16 c-26 9 -44 20
-39 24 9 10 145 89 153 89 3 1 13 -13 23 -30z m2730 -521 l5 -547 -41 -6 c-86
-12 -800 -105 -1032 -135 -132 -17 -269 -35 -305 -40 -102 -15 -100 -15 -95
28 3 20 1 282 -3 582 -4 300 -6 547 -5 548 2 4 236 24 718 62 149 11 369 29
490 39 121 11 230 18 242 18 l21 -2 5 -547z m-2598 490 c-2 -13 -14 -93 -26
-178 -26 -195 -23 -186 -55 -161 -56 44 -141 17 -163 -52 -11 -33 -12 -34 -65
-29 -48 4 -56 1 -87 -26 -27 -24 -34 -39 -39 -79 l-5 -50 -172 40 c-95 22
-173 43 -172 46 0 3 28 24 62 47 34 22 175 116 312 209 393 264 421 280 410
233z m138 -250 c104 -215 112 -236 89 -227 -51 20 -125 -19 -158 -82 -12 -24
-19 -28 -42 -23 -15 3 -36 7 -48 9 -19 4 -20 9 -14 52 4 27 5 69 1 95 -5 29
-3 72 5 109 7 34 18 111 24 173 12 112 17 142 24 135 2 -2 55 -111 119 -241z
m180 217 c9 -8 18 -28 22 -45 4 -16 8 -30 9 -30 2 0 18 7 36 17 30 14 36 14
59 2 18 -10 27 -25 29 -47 5 -49 -34 -93 -123 -138 -86 -44 -81 -46 -116 46
-33 86 -36 149 -9 183 24 31 69 37 93 12z m-1243 -220 c18 -28 64 -79 101
-115 l67 -65 -37 -32 -37 -31 -29 57 c-16 31 -57 97 -90 146 -59 89 -60 92
-56 150 l3 60 22 -60 c12 -33 37 -83 56 -110z m3629 135 c26 -13 45 -65 37
-102 -8 -40 -45 -88 -85 -111 l-31 -18 0 74 c0 41 -3 88 -6 104 -10 50 37 79
85 53z m-3057 -18 c13 -6 6 -14 -34 -40 -47 -32 -49 -32 -43 -10 4 13 9 31 11
41 5 17 34 21 66 9z m887 -172 c9 -105 8 -130 -5 -94 -4 10 -21 51 -39 90 -32
70 -32 71 -14 95 10 13 22 40 26 59 l7 35 8 -40 c4 -22 12 -87 17 -145z m-311
48 c35 -82 41 -85 107 -54 31 14 69 35 85 46 l29 21 16 -38 c54 -125 75 -188
75 -218 0 -31 -3 -35 -26 -35 -14 0 -46 -9 -72 -20 -75 -32 -95 -21 -154 85
-28 50 -72 136 -98 191 -47 101 -48 102 -27 112 18 8 24 6 31 -12 5 -11 20
-47 34 -78z m-2336 12 c78 -102 108 -161 115 -224 6 -57 -12 -110 -57 -166
l-20 -25 6 76 c10 114 -17 210 -74 272 -31 32 -73 36 -101 8 -15 -15 -26 -18
-48 -12 -24 6 -27 12 -25 36 5 38 29 74 67 97 51 31 73 21 137 -62z m1068 -31
c8 -15 6 -15 -35 0 -43 15 -45 17 -45 56 l1 40 35 -40 c19 -22 39 -47 44 -56z
m2124 81 l26 -10 0 -150 c0 -171 -2 -175 -77 -121 -95 69 -96 230 -2 278 29
15 23 15 53 3z m-2962 -54 c50 -21 105 -71 127 -115 22 -43 36 -117 23 -124
-5 -4 -25 14 -46 38 -47 57 -107 92 -183 107 -54 12 -64 18 -95 58 -19 25 -37
50 -40 55 -10 16 170 -1 214 -19z m842 -74 c21 -15 50 -42 64 -60 l26 -34 -39
17 c-23 9 -75 18 -120 20 l-80 4 69 -9 c73 -9 156 -36 156 -50 0 -15 -94 -45
-140 -44 -54 0 -132 40 -180 89 l-32 33 53 28 c100 51 156 52 223 6z m-1140
18 c30 -11 68 -81 90 -166 12 -49 13 -70 3 -124 -13 -71 -26 -81 -80 -61 -31
12 -35 37 -12 80 8 16 18 54 23 86 8 49 7 60 -12 87 -24 35 -53 52 -43 24 11
-27 -3 -65 -25 -72 -12 -3 -17 -11 -14 -20 6 -17 -19 -84 -31 -84 -48 1 -57
106 -12 131 16 8 25 7 40 -7 10 -9 19 -12 19 -6 0 13 -28 42 -40 42 -15 0 -67
-48 -67 -62 0 -7 -3 -23 -7 -35 -8 -25 26 -68 62 -78 20 -6 26 1 56 67 18 40
36 80 39 88 9 27 27 -38 20 -72 -10 -57 -30 -83 -82 -111 -54 -30 -107 -30
-136 0 -21 20 -19 76 4 104 13 17 17 33 13 66 -9 81 44 116 118 78 31 -16 40
-9 18 14 -11 10 -9 15 6 27 23 17 19 16 50 4z m2086 -50 c28 -28 40 -63 40
-112 0 -59 -40 -218 -56 -225 -21 -8 -174 26 -222 49 -58 27 -85 70 -78 123 7
57 45 88 100 83 23 -3 49 -8 59 -12 13 -6 17 -3 17 13 0 29 26 77 47 90 29 17
72 12 93 -9z m-1843 -15 c62 -18 124 -63 163 -117 65 -90 23 -166 -133 -238
-72 -34 -148 -51 -170 -38 -22 12 -9 52 37 115 67 94 81 158 51 243 -8 23 -15
44 -15 46 0 7 15 4 67 -11z m313 -73 c-11 -45 -59 -102 -84 -102 -27 0 -18 24
23 64 22 22 45 52 52 69 17 40 23 19 9 -31z m243 -30 c16 -17 47 -83 47 -99 0
-5 -18 -7 -39 -5 -33 3 -42 0 -56 -21 -9 -14 -22 -24 -28 -22 -7 2 -24 6 -39
9 -22 5 -28 12 -28 32 0 32 34 100 57 113 28 16 68 13 86 -7z m455 -9 c17 -25
182 -331 182 -338 0 -2 -12 -6 -26 -9 -19 -5 -56 5 -129 34 l-103 42 -5 56
c-3 32 -4 90 -3 130 1 65 4 75 26 92 33 25 35 25 58 -7z m3892 -58 l0 -65 -25
10 c-40 15 -92 -11 -111 -55 -28 -69 15 -130 92 -130 l44 0 0 -77 0 -77 -77
41 c-91 47 -121 71 -139 115 -33 78 -5 175 69 238 34 29 103 61 140 64 4 1 7
-28 7 -64z m-3990 -80 c0 -69 -2 -125 -4 -125 -2 0 -25 9 -50 20 l-46 19 0
100 0 100 43 4 c23 2 45 4 50 5 4 1 7 -54 7 -123z m1283 97 c26 -22 57 -90 57
-124 0 -36 9 -35 49 6 42 43 121 79 156 70 25 -6 25 -7 25 -111 l0 -105 -45
-50 c-86 -96 -75 -93 -233 -68 -75 12 -146 23 -158 26 -17 3 -24 15 -33 61
-22 111 -11 200 32 264 40 60 103 73 150 31z m-870 -27 c79 -19 149 -35 156
-35 7 0 35 -20 62 -44 33 -30 65 -48 100 -57 l51 -13 -6 -46 c-4 -25 -11 -65
-17 -90 -5 -25 -13 -83 -17 -129 l-7 -84 -191 196 c-176 179 -304 323 -304
342 0 4 7 5 15 1 9 -3 80 -21 158 -41z m-575 19 c19 -13 22 -24 22 -90 0 -41
-4 -74 -9 -74 -44 0 -145 90 -136 121 8 25 53 59 79 59 12 0 32 -7 44 -16z
m470 -112 c50 -59 53 -66 50 -110 l-3 -47 -68 135 c-37 74 -60 124 -50 110 10
-14 42 -53 71 -88z m-927 53 c18 -14 58 -27 125 -39 193 -34 684 -196 684
-226 0 -18 -28 -15 -85 8 -33 14 -142 53 -242 88 -220 76 -402 117 -489 111
-77 -6 -88 0 -79 44 4 19 9 37 11 41 7 10 47 -4 75 -27z m39 5 c0 -5 -2 -10
-4 -10 -3 0 -8 5 -11 10 -3 6 -1 10 4 10 6 0 11 -4 11 -10z m273 -37 c7 -17
13 -20 18 -11 6 10 15 6 35 -14 l27 -26 -44 14 c-24 7 -64 18 -89 25 l-45 11
23 18 c27 23 60 15 75 -17z m1343 31 l29 -5 0 -114 0 -114 -30 -18 c-24 -15
-51 -18 -144 -18 l-113 0 6 62 c10 93 7 91 85 85 l69 -5 22 67 c22 67 26 70
76 60z m343 -9 c3 -12 -13 -9 -17 4 -2 7 0 11 6 7 5 -3 10 -8 11 -11z m-2562
-20 c-6 -32 24 -55 70 -55 18 0 33 -4 33 -8 0 -18 -73 -42 -126 -42 -66 0
-108 20 -129 60 l-15 30 49 -1 c35 -1 60 5 83 20 41 26 41 26 35 -4z m5157 9
c13 -5 16 -22 16 -80 l0 -74 -40 0 c-30 0 -47 7 -65 25 -62 62 6 161 89 129z
m-4674 -70 c11 -28 2 -84 -13 -84 -6 0 -8 3 -4 6 3 4 -1 24 -10 45 -16 40 -12
75 8 64 5 -4 14 -18 19 -31z m-60 -19 c0 -25 -61 -85 -113 -111 -27 -14 -86
-32 -131 -40 -226 -39 -217 -38 -227 -23 -10 16 -12 89 -3 113 4 11 19 16 43
16 20 0 53 9 74 19 l37 19 0 -33 c0 -21 6 -35 16 -39 49 -19 154 7 238 60 59
37 66 39 66 19z m1360 -263 c0 -1 -23 -32 -52 -67 -38 -48 -55 -62 -64 -54 -6
5 -35 45 -63 87 l-51 78 10 75 c5 40 10 80 10 87 0 11 210 -195 210 -206z
m-740 183 c0 -2 -17 -13 -39 -24 -44 -23 -151 -118 -151 -134 0 -6 21 9 48 34
55 54 105 90 147 108 28 12 29 12 13 -6 -9 -10 -27 -43 -40 -73 -40 -89 -106
-134 -232 -155 l-39 -6 6 56 c6 63 42 133 82 159 44 29 205 61 205 41z m107
-37 l33 -12 0 -71 0 -71 -45 -32 c-25 -18 -48 -32 -50 -32 -3 0 -5 52 -5 115
0 127 0 127 67 103z m1917 -30 c37 -34 41 -61 13 -94 -20 -23 -32 -28 -73 -28
l-49 -1 -3 64 c-2 45 1 67 10 72 25 16 76 9 102 -13z m-1751 -35 c7 -4 -94
-73 -109 -73 -2 0 -4 27 -4 60 l0 60 52 -21 c29 -11 56 -23 61 -26z m180 0
c19 -47 29 -169 21 -267 -7 -71 -7 -73 -25 -55 -43 43 -109 31 -135 -25 -14
-29 -22 -34 -50 -33 -42 1 -72 -25 -80 -70 -4 -19 -11 -32 -18 -30 -6 2 -51
16 -101 31 -49 15 -123 38 -163 53 l-73 25 23 25 c74 80 528 383 574 383 6 0
18 -17 27 -37z m1249 -17 c-3 -36 -8 -53 -15 -51 -7 2 -25 6 -41 10 l-29 6 44
45 c24 24 43 44 44 44 0 0 -2 -24 -3 -54z m2189 -47 c101 -69 138 -169 105
-281 -27 -94 -94 -140 -181 -124 -54 11 -91 48 -115 120 -22 68 -55 107 -110
129 l-35 15 50 7 c28 3 79 12 115 18 l65 12 3 105 3 104 18 -31 c11 -16 48
-50 82 -74z m-2671 81 c0 -5 -7 -10 -16 -10 -8 0 -12 5 -9 10 3 6 10 10 16 10
5 0 9 -4 9 -10z m-1766 -37 c72 -23 131 -85 146 -154 7 -30 10 -65 9 -79 -4
-24 -6 -23 -54 25 -28 28 -63 66 -78 85 l-28 35 18 -35 c10 -19 44 -61 76 -94
l58 -58 -38 7 c-123 23 -194 102 -212 239 l-8 57 31 -6 c17 -4 53 -13 80 -22z
m1666 12 c155 -16 554 -81 576 -93 21 -12 3 -31 -141 -147 -118 -94 -120 -95
-123 -68 -7 72 -58 105 -118 77 -32 -15 -36 -15 -53 0 -26 24 -68 20 -96 -9
l-23 -26 -59 73 c-32 40 -83 103 -112 141 l-53 67 34 0 c18 0 94 -7 168 -15z
m-2616 -26 c39 -18 54 -34 95 -103 71 -118 81 -141 81 -181 0 -38 -21 -98 -39
-109 -17 -11 -40 47 -46 120 -8 86 -30 168 -50 184 -12 10 -12 5 1 -35 20 -57
5 -85 -20 -37 -20 39 -62 72 -92 72 -23 0 -32 -7 -59 -45 -18 -26 -34 -11 -42
38 -8 53 4 85 40 108 37 23 63 20 131 -12z m198 -19 c107 -62 136 -87 158
-131 24 -45 20 -48 -23 -15 -39 29 -96 46 -159 46 -46 0 -48 1 -82 54 -19 29
-44 60 -55 68 -30 21 -14 31 41 25 31 -2 71 -18 120 -47z m2254 -8 c17 -26 65
-90 106 -143 64 -82 75 -101 76 -138 1 -23 9 -55 17 -72 l16 -30 -53 -47 c-29
-26 -83 -75 -119 -109 -42 -40 -74 -63 -89 -63 -23 0 -23 1 -16 78 3 42 9 188
13 325 3 136 9 247 12 247 3 0 20 -22 37 -48z m-338 -182 c31 -41 94 -113 139
-160 l82 -85 -51 -52 c-29 -29 -55 -53 -58 -53 -3 0 -11 20 -18 44 -21 80 -75
126 -171 147 -58 12 -59 15 -50 114 4 39 5 108 2 155 l-5 85 37 -60 c20 -33
62 -94 93 -135z m205 94 c57 -55 57 -56 57 -115 l0 -59 -79 0 -80 0 -35 44
c-20 23 -36 47 -36 51 0 13 94 134 105 134 6 0 36 -24 68 -55z m-2323 -41 c27
-42 31 -73 14 -92 -3 -4 -111 76 -118 88 -2 3 0 16 5 29 6 16 16 22 39 22 25
0 35 -8 60 -47z m3200 -203 l0 -240 -68 0 c-68 0 -69 0 -100 40 -18 21 -57 66
-87 99 l-56 59 20 32 c14 23 269 244 289 249 1 1 2 -107 2 -239z m-2904 195
c73 -33 114 -100 114 -189 0 -122 -71 -197 -204 -215 l-51 -7 1 81 c1 59 6 92
22 125 30 64 28 116 -8 184 l-31 57 53 -7 c29 -3 76 -16 104 -29z m167 -51
c-9 -28 -37 -53 -48 -42 -3 3 3 23 14 44 12 21 21 50 22 64 1 23 2 23 11 -7 7
-19 7 -41 1 -59z m-575 39 l37 -16 -35 -6 c-22 -4 -38 -14 -46 -29 -6 -12 -22
-34 -34 -47 -18 -19 -24 -37 -24 -75 -1 -28 -5 -50 -9 -50 -12 0 -37 -65 -37
-97 l-1 -28 -16 29 c-26 49 -21 97 15 155 27 44 31 59 26 91 -5 33 -2 42 19
64 30 30 54 32 105 9z m3886 -78 l5 -80 33 4 c33 3 33 3 14 -17 -12 -14 -21
-47 -27 -103 -5 -45 -17 -97 -25 -116 -21 -44 -66 -81 -109 -89 -118 -22 -194
66 -167 194 17 82 51 125 147 187 46 30 92 65 102 79 10 13 19 23 20 22 1 -1
4 -37 7 -81z m-3704 -17 c0 -51 6 -71 35 -124 47 -83 46 -123 -2 -217 l-37
-72 -12 90 c-6 50 -19 122 -29 160 -10 42 -15 89 -12 116 6 51 36 121 49 113
4 -3 8 -33 8 -66z m-125 42 c14 -15 14 -23 1 -71 l-13 -54 -16 35 c-20 44 -41
70 -56 70 -14 0 -14 13 0 27 17 17 66 13 84 -7z m2811 -1 c21 -20 25 -20 46
-7 13 8 31 17 40 21 25 9 68 -29 68 -61 0 -43 -39 -109 -92 -157 l-51 -46 -29
28 c-40 37 -78 114 -78 156 0 38 32 87 58 87 8 0 26 -10 38 -21z m1920 -41
c-12 -93 -28 -131 -77 -179 -36 -37 -57 -49 -100 -59 -142 -32 -277 50 -287
175 l-4 53 53 6 c30 4 67 10 82 13 26 5 28 3 18 -15 -20 -38 -13 -100 14 -127
56 -57 156 -10 154 72 l-1 38 -8 -38 c-10 -52 -40 -81 -86 -81 -62 0 -92 63
-62 129 6 14 16 25 22 26 8 0 169 22 280 38 5 0 6 -23 2 -51z m-4681 -42 c-6
-47 9 -143 31 -200 7 -18 4 -19 -42 -12 -27 3 -57 15 -67 25 -18 18 -18 19 2
57 12 21 29 73 38 115 13 56 21 75 31 72 10 -4 11 -19 7 -57z m-101 10 c27
-56 30 -90 11 -126 -23 -44 -34 -24 -28 49 6 84 -23 116 -32 35 l-5 -39 12 35
c11 32 12 33 16 11 4 -24 -15 -71 -29 -71 -17 0 -39 33 -39 59 0 34 35 81 60
81 10 0 24 -14 34 -34z m846 14 c107 1 203 4 213 6 48 9 319 0 356 -12 11 -3
11 -8 3 -16 -10 -10 -113 -11 -402 -4 -41 1 -136 -2 -210 -6 -115 -7 -142 -12
-184 -33 -72 -37 -82 -34 -89 22 -3 27 -1 51 4 54 6 3 33 1 62 -4 29 -5 140
-9 247 -7z m4297 -16 c36 -22 71 -77 97 -147 l24 -66 -36 -6 c-85 -13 -82 -14
-82 14 0 37 -35 89 -65 97 -65 16 -126 -30 -134 -102 l-6 -49 -80 -12 c-125
-18 -124 -18 -88 20 17 17 53 66 80 107 58 86 120 147 160 156 16 3 33 7 38 9
16 6 68 -6 92 -21z m-3102 -10 c32 -34 31 -43 -2 -41 -26 2 -27 0 -24 -38 3
-34 15 -75 45 -146 6 -13 0 -18 -27 -23 -96 -18 -217 52 -217 126 0 59 39 80
103 53 14 -6 17 -2 17 26 0 66 61 91 105 43z m434 -81 c-1 -43 -3 -69 -6 -58
-3 11 -30 46 -61 78 l-56 57 62 0 62 0 -1 -77z m-1479 58 c0 -5 -9 -12 -20
-16 -25 -8 -81 -77 -110 -135 -27 -54 -18 -46 42 41 26 36 53 71 62 78 14 12
16 7 16 -45 0 -73 -24 -128 -75 -173 -41 -35 -122 -77 -132 -67 -13 13 -20
104 -12 151 17 91 72 148 159 166 52 10 70 10 70 0z m-171 -24 c-53 -36 -83
-99 -83 -178 l-1 -67 -65 -6 c-91 -8 -110 -8 -110 5 0 5 5 7 10 4 28 -17 42
135 15 171 -20 26 -19 44 3 44 9 0 31 9 48 19 39 24 60 28 148 30 l69 1 -34
-23z m531 17 l65 -7 43 -72 c23 -40 42 -85 42 -101 l0 -29 -106 2 c-99 1 -108
3 -133 27 -32 31 -72 33 -150 10 -29 -8 -56 -13 -59 -10 -3 3 -9 36 -12 74
l-7 67 -2 -78 c-1 -69 -4 -82 -28 -113 -16 -18 -36 -34 -45 -34 -23 0 -23 -1
8 55 20 34 28 66 32 118 2 40 9 78 14 85 11 13 220 17 338 6z m342 -100 c69
-19 99 -33 103 -46 4 -9 24 -32 45 -51 l39 -33 -6 -72 -6 -71 -54 -11 c-60
-13 -128 1 -119 25 11 31 16 103 8 130 l-9 30 -12 -30 c-6 -16 -14 -36 -16
-42 -7 -19 -25 -16 -25 5 -1 26 -38 70 -48 55 -5 -8 -31 22 -75 87 -37 54 -67
101 -67 104 0 2 33 -8 73 -24 39 -15 116 -40 169 -56z m4036 39 c-3 -44 -5
-48 -35 -54 -28 -5 -33 -4 -33 13 0 25 26 75 42 81 26 11 29 6 26 -40z m-3584
11 c96 -23 144 -73 161 -167 5 -25 18 -46 39 -62 l31 -25 -70 4 c-83 4 -137
25 -183 69 -41 39 -79 111 -88 167 l-7 41 29 -6 c16 -4 55 -13 88 -21z m4421
-236 c-4 -134 -8 -248 -10 -254 -2 -8 -52 -14 -142 -18 -76 -4 -171 -9 -210
-12 l-73 -6 0 185 c0 101 3 218 6 259 l7 76 171 1 c93 1 172 4 175 7 2 2 22 4
43 4 l39 0 -6 -242z m-6600 172 c10 -39 45 -70 87 -76 21 -4 38 -9 38 -13 0
-14 -119 -71 -148 -71 -58 0 -91 64 -79 151 8 60 20 70 61 50 21 -10 37 -26
41 -41z m594 34 c13 -17 21 -41 21 -66 l0 -39 -30 34 c-20 23 -30 45 -30 66 0
38 12 39 39 5z m3640 0 c17 -14 42 -45 56 -68 25 -43 52 -143 41 -154 -4 -3
-29 -9 -56 -12 l-50 -6 0 31 c0 44 -34 85 -70 85 -44 0 -70 -34 -70 -91 l0
-46 -47 -7 c-25 -3 -48 -4 -50 -2 -3 2 2 17 10 33 8 15 20 60 26 98 22 125 54
164 138 165 30 0 50 -7 72 -26z m-1136 -80 l78 -94 -51 0 c-49 0 -120 27 -135
50 -3 5 -13 10 -21 10 -15 0 -14 -11 3 -56 3 -8 -42 -13 -144 -18 -81 -4 -168
-9 -193 -12 l-45 -6 110 105 110 105 36 -39 c20 -22 43 -39 51 -39 18 0 108
67 108 80 0 22 18 5 93 -86z m3057 23 c0 -41 -3 -155 -7 -254 l-6 -181 -126
-6 c-69 -3 -152 -8 -183 -11 l-58 -5 0 149 0 149 28 6 c15 3 46 8 69 11 49 8
53 16 53 133 l0 82 115 0 115 0 0 -73z m-1016 31 c9 -12 16 -37 16 -54 0 -35
7 -32 -122 -50 -47 -6 -48 -6 -48 20 0 33 24 82 47 95 33 19 90 13 107 -11z
m-2634 -38 c0 -5 -6 -10 -12 -10 -10 0 -10 -2 -1 -8 18 -11 3 -27 -55 -57 -29
-15 -51 -30 -48 -32 2 -3 24 7 49 21 53 31 52 31 54 6 1 -13 -9 -26 -30 -37
-30 -15 -45 -16 -40 -2 1 3 -8 5 -20 5 -40 -2 -23 27 33 56 30 16 44 26 30 22
l-25 -6 24 26 c25 27 41 33 41 16z m-1927 -76 l2 -49 -38 -3 c-38 -3 -38 -3
-23 20 8 13 18 42 22 66 6 38 9 42 21 29 8 -8 15 -36 16 -63z m-62 13 c-13
-38 -54 -81 -91 -95 -14 -5 -63 -17 -110 -27 -46 -9 -90 -19 -98 -22 -13 -6
44 85 63 99 6 4 28 8 51 8 52 0 98 16 149 51 22 15 42 26 43 24 2 -2 -1 -19
-7 -38z m763 12 c14 -11 42 -50 63 -87 20 -37 49 -86 65 -109 16 -23 31 -57
34 -75 l7 -33 -46 44 c-26 25 -53 59 -62 77 -21 44 -84 89 -69 49 5 -13 1 -13
-32 1 -28 12 -59 15 -112 12 -69 -5 -73 -4 -78 18 -14 54 14 78 126 108 72 19
73 19 104 -5z m286 1 c0 -5 10 -18 22 -30 12 -11 19 -23 15 -26 -3 -4 -18 4
-32 17 -25 25 -33 49 -15 49 6 0 10 -4 10 -10z m-1388 -108 c4 -59 3 -64 -19
-73 -12 -4 -42 -18 -65 -29 -23 -11 -47 -20 -54 -20 -19 0 -27 36 -19 86 6 40
11 47 73 88 77 52 76 52 84 -52z m4017 62 c12 -15 21 -39 21 -54 0 -24 -5 -28
-37 -34 -74 -12 -83 -9 -83 25 0 79 58 115 99 63z m-2640 -18 c39 -25 81 -77
81 -102 0 -7 -19 -4 -52 7 -30 10 -82 18 -120 19 l-66 0 -26 44 c-40 68 -38
70 57 64 68 -5 92 -11 126 -32z m613 -12 c26 -16 46 -33 44 -39 -2 -9 -216
-52 -268 -54 -15 -1 -18 8 -18 62 l0 62 97 -1 c89 -1 102 -4 145 -30z m1027
-6 c132 -2 159 -7 147 -27 -5 -7 -48 -11 -119 -11 -143 0 -506 -16 -662 -29
-66 -6 -174 -15 -240 -21 -219 -18 -475 -72 -527 -110 -17 -12 -42 -25 -56
-29 -25 -7 -28 -4 -44 43 -9 30 -13 55 -8 60 5 5 33 4 67 -2 49 -10 72 -9 153
8 97 21 240 44 365 61 73 10 398 33 618 45 117 6 143 13 117 29 -5 3 -10 10
-10 15 0 5 15 0 34 -11 28 -16 53 -20 165 -21z m-1530 -28 c0 -23 -1 -23 -9
-5 -5 11 -9 29 -9 40 -1 17 1 17 9 5 5 -8 9 -26 9 -40z m831 35 c0 -10 -10
-15 -27 -15 l-28 1 25 14 c31 18 30 18 30 0z m-1465 -35 c6 -27 2 -35 -42 -74
-33 -30 -54 -59 -66 -94 -17 -47 -22 -52 -75 -73 -31 -12 -97 -42 -146 -66
-48 -24 -89 -43 -91 -41 -1 2 -4 84 -6 183 l-4 180 87 3 c86 3 88 2 94 -23 8
-33 36 -33 105 4 31 16 71 29 96 30 38 1 42 -1 48 -29z m685 -25 c-19 -57 -60
-87 -60 -44 0 22 63 104 68 89 2 -6 -2 -26 -8 -45z m-1136 -27 c3 -35 8 -119
11 -188 l5 -125 -44 -31 c-43 -32 -43 -32 -212 -38 -93 -4 -181 -9 -195 -12
l-27 -5 -6 93 c-3 51 -7 125 -8 163 l-3 70 45 22 c44 21 95 36 235 68 38 8 76
22 84 30 9 9 34 15 62 15 l47 0 6 -62z m5176 -87 l0 -149 -167 -7 c-93 -4
-181 -7 -197 -8 -28 -2 -30 1 -41 53 -6 30 -10 64 -10 75 1 11 2 43 3 72 2 61
-22 52 233 88 90 12 167 23 172 24 4 0 7 -66 7 -148z m-5758 80 c-6 -68 10
-95 52 -87 l33 6 6 -91 c4 -51 7 -120 7 -154 l0 -63 -167 -7 c-93 -4 -186 -8
-208 -9 l-40 -1 -3 222 -3 222 73 4 c40 1 114 4 164 5 l91 2 -5 -49z m1233 18
c49 -12 60 -22 70 -59 6 -25 5 -25 -47 -22 -29 2 -60 10 -69 18 -46 41 -133
21 -169 -39 -17 -28 -19 -44 -13 -134 4 -65 2 -103 -4 -103 -20 0 -52 46 -63
92 -23 90 31 194 125 242 35 19 108 21 170 5z m1810 -12 c-45 -32 -150 -140
-165 -168 -7 -13 27 17 76 66 49 50 104 98 122 109 l34 18 -15 -23 c-8 -13
-20 -48 -27 -76 -18 -80 -57 -126 -142 -167 -40 -19 -86 -38 -102 -42 l-29 -7
5 64 c11 135 82 208 233 242 38 9 40 6 10 -16z m193 11 c23 -23 12 -28 -58
-28 -69 0 -86 9 -52 29 24 14 95 14 110 -1z m82 -2 c0 -31 -52 -31 -64 -1 -4
11 3 15 29 15 24 0 35 -5 35 -14z m-1754 -22 c66 -18 101 -46 115 -93 10 -34
9 -45 -14 -94 -25 -56 -88 -132 -138 -167 l-26 -20 5 91 c4 81 3 93 -17 119
-11 16 -21 40 -21 53 0 13 -13 49 -29 79 l-30 55 52 -4 c29 -3 75 -11 103 -19z
m1354 15 c-13 -6 -39 -21 -57 -35 -31 -23 -37 -24 -90 -15 -32 5 -85 12 -118
16 -33 3 -69 9 -80 13 -19 6 212 28 320 30 42 1 46 -1 25 -9z m423 -66 c-3
-38 -6 -69 -7 -70 -2 -3 -239 37 -242 40 -1 1 0 15 3 30 l6 29 111 -4 c107 -3
111 -2 121 20 5 12 10 22 11 22 1 0 -1 -30 -3 -67z m1987 10 l-1 -58 -22 30
c-12 16 -30 36 -39 44 -30 26 -24 31 50 40 8 1 12 -16 12 -56z m-3994 15 c8
-18 47 -63 86 -100 l70 -66 -7 -112 c-4 -62 -10 -124 -14 -138 -7 -24 -9 -22
-29 29 -12 30 -33 104 -46 165 -14 62 -39 142 -55 179 -33 71 -34 75 -26 75 2
0 12 -15 21 -32z m1139 22 c-3 -5 -1 -10 4 -10 6 0 11 5 11 12 0 6 3 8 7 5 3
-4 -1 -15 -9 -24 -12 -13 -17 -45 -20 -110 -3 -82 -6 -96 -33 -135 -26 -37
-183 -157 -207 -158 -4 0 -12 17 -17 38 -33 125 -21 220 37 284 42 46 76 66
157 89 74 21 78 21 70 9z m2765 -41 c68 -70 102 -199 80 -306 -38 -181 -178
-290 -287 -223 -82 50 -96 197 -25 273 43 45 51 37 45 -47 -5 -70 -4 -76 20
-100 62 -62 144 -3 162 114 19 128 -65 250 -172 250 -187 0 -449 -246 -612
-575 -219 -440 -226 -845 -15 -845 96 0 148 146 72 203 -22 16 -29 17 -49 7
-13 -7 -27 -17 -30 -23 -4 -5 -12 -1 -17 10 -14 26 13 83 48 101 83 43 169
-58 157 -186 -9 -100 -55 -167 -134 -193 -73 -24 -178 17 -224 88 -49 75 -53
94 -51 285 l2 179 41 126 c84 258 236 513 408 683 149 147 179 163 371 194 85
13 158 25 163 25 4 1 25 -17 47 -40z m-2935 12 c-90 -41 -134 -116 -135 -227
0 -66 22 -168 40 -187 20 -22 207 105 250 169 22 33 25 51 28 138 2 56 7 104
10 108 6 6 302 -39 311 -48 2 -2 -4 -21 -13 -44 -17 -42 -22 -165 -8 -174 12
-7 117 26 168 52 38 19 100 79 121 116 9 17 42 13 183 -20 25 -6 -60 -40 -535
-215 -875 -324 -1043 -378 -1282 -414 -189 -28 -453 -15 -638 31 -142 36 -305
139 -305 193 0 49 188 173 382 251 l57 23 20 -24 c13 -16 17 -33 14 -55 -5
-28 2 -40 48 -91 30 -33 61 -73 71 -90 36 -68 103 -84 165 -40 l37 26 23 -34
c45 -67 90 -71 190 -19 87 46 113 70 113 106 0 18 15 48 39 81 24 31 47 77 57
115 9 34 21 62 26 62 23 0 58 -35 69 -68 19 -59 29 -61 29 -4 0 59 -27 121
-62 146 -12 9 -20 17 -17 19 2 2 16 11 31 20 26 16 27 16 49 -16 52 -74 85
-107 106 -107 16 0 58 35 134 112 118 118 127 124 229 127 l35 1 -40 -19z
m-1117 -36 c38 -34 51 -56 107 -177 25 -54 29 -58 61 -58 23 0 34 -5 34 -14 0
-8 3 -21 6 -30 4 -11 -10 -20 -62 -35 -37 -12 -69 -19 -72 -16 -3 2 6 27 20
54 21 42 22 51 9 53 -11 2 -22 -15 -37 -61 -12 -36 -30 -71 -40 -78 -29 -21
-91 -16 -116 10 l-23 22 47 5 c52 6 98 41 118 90 9 23 7 35 -15 82 -50 105
-113 132 -175 73 l-30 -29 0 38 c0 30 7 45 34 72 46 46 83 46 134 -1z m857
-65 c-68 -68 -102 -96 -107 -87 -4 6 -8 42 -8 78 l0 66 98 21 c53 11 101 20
107 21 5 1 -35 -44 -90 -99z m-707 13 c20 -47 25 -67 36 -130 5 -27 2 -33 -13
-33 -25 0 -48 28 -66 80 -9 24 -26 63 -40 87 l-24 43 43 0 c42 0 44 -1 64 -47z
m3373 2 c-33 -25 -80 -69 -105 -97 l-46 -50 0 85 0 85 73 10 c39 5 87 10 105
11 l34 1 -61 -45z m-2799 -22 c2 -32 3 -60 2 -61 -3 -5 -73 91 -74 100 0 6 23
13 57 17 7 0 13 -21 15 -56z m2628 -51 l0 -89 -97 -6 c-54 -4 -126 -7 -160 -7
l-63 0 0 74 0 74 78 11 c42 6 102 15 132 20 30 5 67 9 83 10 l27 1 0 -88z
m580 53 c33 -17 74 -79 66 -100 -6 -17 -81 -21 -91 -5 -9 15 -69 12 -91 -5
-10 -8 -35 -15 -55 -15 -34 0 -37 2 -42 37 -8 45 8 65 68 87 52 19 109 20 145
1z m-3950 -26 c35 -36 34 -45 -3 -28 -22 10 -31 9 -51 -5 -34 -22 -41 -56 -21
-100 11 -24 28 -39 50 -48 44 -15 35 -28 -21 -28 -34 0 -51 6 -69 24 -48 48
-42 154 12 195 36 29 66 26 103 -10z m568 -3 c34 -18 58 -44 67 -76 7 -24 7
-24 -11 -8 -11 9 -31 21 -45 27 -16 6 -31 22 -37 40 -12 35 -11 36 26 17z
m2444 -13 c-2 -16 -21 -46 -41 -68 l-36 -40 38 35 39 35 -6 -310 c-3 -170 -9
-544 -12 -830 -5 -375 -10 -514 -17 -497 -7 16 -17 22 -30 18 -13 -3 -21 1
-24 15 -8 31 -33 22 -50 -18 -18 -45 -13 -174 9 -219 27 -58 71 -31 82 51 5
36 4 34 -12 -14 -10 -30 -23 -56 -29 -58 -21 -7 -42 42 -49 112 -10 105 26
209 43 125 6 -34 11 -37 28 -13 11 15 14 14 27 -13 13 -24 16 -113 21 -514 3
-267 12 -648 18 -847 l13 -363 -22 -23 c-12 -13 -31 -50 -42 -82 -24 -70 -95
-330 -136 -497 -24 -96 -32 -117 -45 -113 -9 3 -47 12 -85 20 -56 11 -74 20
-96 47 -16 18 -28 36 -28 40 0 4 -5 8 -11 8 -6 0 -2 -15 9 -34 l20 -34 -91 -6
c-210 -14 -367 -18 -367 -8 0 5 20 25 46 45 51 40 127 62 182 53 34 -6 36 -5
18 9 -20 15 -59 13 -138 -6 -26 -7 -45 -6 -60 2 -46 23 -208 133 -208 140 0
19 243 -27 303 -57 17 -9 40 -23 50 -32 9 -8 17 -11 17 -5 0 5 -27 35 -59 66
-33 32 -57 57 -54 57 3 0 47 -19 97 -43 62 -30 103 -57 129 -85 20 -23 37 -35
37 -27 0 8 -13 29 -29 47 -16 18 -47 71 -71 117 -23 47 -71 136 -106 199 -36
63 -63 117 -61 119 2 2 31 -16 64 -40 111 -82 219 -225 262 -345 11 -31 32
-86 46 -122 24 -62 25 -63 18 -20 -10 59 -9 100 10 460 15 276 25 519 42 1000
12 313 20 1036 15 1200 -5 145 -3 172 14 220 27 79 34 327 13 432 -23 109 -24
643 -2 652 18 7 20 -5 3 -22 -7 -7 -9 -12 -5 -12 5 0 28 21 52 46 28 31 49 45
59 41 8 -3 18 -2 21 3 4 6 13 10 22 10 10 0 -3 -22 -37 -62 l-52 -63 61 64
c53 55 67 65 104 68 23 3 44 6 46 9 2 2 12 4 21 4 13 0 16 -6 12 -27z m-842
-42 l0 -59 -227 -91 c-126 -49 -257 -101 -293 -114 -36 -14 -236 -90 -445
-170 -657 -250 -815 -292 -1110 -291 -245 0 -463 41 -617 114 -119 56 -168
114 -168 200 l0 40 39 -38 c80 -77 227 -135 426 -168 131 -22 391 -25 505 -6
248 41 617 163 1455 481 231 87 423 159 428 160 4 1 7 -26 7 -58z m588 12
c-15 -15 -31 -23 -35 -19 -9 8 32 46 50 46 7 0 -1 -12 -15 -27z m962 -13 l0
-40 -57 0 -58 0 55 40 c30 22 56 40 58 40 1 0 2 -18 2 -40z m-3971 -7 l9 -30
-120 -53 c-136 -61 -255 -135 -292 -182 -32 -41 -43 -30 -27 24 24 78 114 145
314 232 56 25 103 43 105 42 1 -2 6 -17 11 -33z m779 -28 c-5 -50 -13 -78 -39
-121 l-34 -56 -3 65 c-2 56 1 70 22 102 14 20 28 45 31 56 4 10 11 19 17 19 7
0 9 -22 6 -65z m2187 45 c-14 -15 -21 -17 -26 -8 -11 17 -2 28 23 28 21 0 21
-1 3 -20z m-2690 -15 c14 -13 25 -36 25 -51 0 -23 -3 -26 -27 -20 -25 6 -26 5
-10 -7 19 -16 23 -37 6 -37 -23 0 -49 22 -49 41 0 25 22 34 49 19 29 -15 27
-4 -3 15 -32 22 -56 10 -56 -28 0 -29 -1 -30 -15 -11 -20 27 -19 81 3 93 28
17 51 13 77 -14z m2623 -37 l-3 -63 -143 -8 c-107 -6 -147 -5 -158 4 -14 12
-20 89 -6 90 4 0 66 8 137 18 194 28 176 32 173 -41z m2772 -11 l0 -74 -40 -1
c-77 -3 -114 -51 -112 -143 l1 -49 -29 15 c-44 22 -111 19 -150 -7 -39 -27
-70 -82 -77 -138 -3 -22 -10 -40 -15 -40 -14 0 -9 487 5 493 7 2 59 5 117 6
57 1 107 4 109 7 2 2 46 4 98 4 l93 0 0 -73z m49 -49 c13 -36 10 -41 -13 -32
-13 5 -16 20 -15 83 1 73 2 74 9 28 5 -27 13 -62 19 -79z m-489 30 c0 -40 -3
-144 -7 -230 l-6 -157 -49 6 c-41 5 -52 3 -73 -17 -34 -32 -47 -72 -43 -130 2
-42 0 -49 -12 -43 -8 4 -39 9 -69 11 -43 3 -59 0 -82 -17 l-29 -22 0 330 0
330 108 4 c59 1 142 4 185 5 l77 2 0 -72z m-397 -599 c-8 -6 -298 -29 -376
-29 l-38 0 4 263 c2 160 9 290 17 333 l13 71 191 9 191 9 3 -324 c1 -179 -1
-328 -5 -332z m-2273 616 l0 -36 -30 16 c-16 8 -38 15 -50 15 -37 0 -22 29 18
33 20 2 43 4 50 5 7 1 12 -11 12 -33z m1717 -42 c-6 -56 -27 -96 -61 -117 -41
-26 -74 75 -45 138 13 27 26 33 78 35 l34 1 -6 -57z m-249 9 c-73 -149 13
-323 159 -322 72 1 125 37 206 142 18 22 18 20 13 -101 -3 -68 -6 -172 -6
-231 l0 -106 -195 -14 c-108 -7 -197 -11 -199 -9 -2 2 -7 156 -12 342 l-7 337
30 0 30 0 -19 -38z m-54 -114 c3 -79 6 -231 7 -338 l2 -195 -139 -12 c-77 -6
-151 -12 -165 -12 l-26 -1 -7 225 -8 225 47 65 c25 36 71 92 102 125 l55 60
63 0 62 0 7 -142z m-1452 94 c162 -76 303 -265 394 -527 26 -73 28 -93 28
-225 1 -123 -3 -156 -22 -216 -29 -94 -71 -134 -138 -134 -59 0 -97 27 -119
84 -14 37 -15 50 -5 81 14 41 50 69 79 60 28 -9 33 -30 10 -51 -29 -26 -26
-81 6 -96 19 -8 31 -8 51 0 94 43 91 354 -5 565 -93 207 -269 365 -444 401
l-61 13 72 28 c40 16 75 32 78 37 7 11 12 10 76 -20z m1032 -49 c-98 -137
-166 -262 -225 -418 l-38 -100 -1 90 c0 50 3 181 7 292 l6 202 51 4 c28 2 97
4 153 5 l102 2 -55 -77z m-2876 -35 c0 -51 -4 -101 -10 -111 -10 -20 -158 -97
-185 -97 -22 0 -55 27 -77 62 l-17 26 57 57 56 57 22 -38 c28 -50 46 -55 47
-12 2 55 12 74 59 111 25 20 46 36 46 36 1 1 2 -41 2 -91z m-556 55 c14 -16
28 -40 31 -54 11 -47 99 -66 147 -32 14 10 54 27 90 39 36 12 72 25 81 28 11
5 18 1 22 -13 4 -16 -3 -27 -26 -43 -18 -12 -62 -50 -99 -85 -88 -84 -131 -85
-179 -6 -12 21 -44 61 -71 90 -31 34 -48 61 -48 77 0 34 20 33 52 -1z m2778
-170 l0 -188 -29 62 c-43 91 -100 170 -170 236 -33 32 -61 60 -61 62 0 3 44 6
98 8 53 1 112 4 130 5 l32 2 0 -187z m-3330 153 c0 -3 -10 -22 -22 -43 -20
-33 -23 -52 -23 -148 0 -60 3 -122 8 -138 10 -37 71 -102 124 -134 24 -14 45
-34 48 -46 2 -12 7 -106 10 -209 l7 -188 -34 -1 c-18 0 -69 -4 -113 -8 l-80
-7 -34 38 c-50 58 -102 81 -172 76 l-58 -4 -5 60 c-3 34 -8 153 -11 266 -3
113 -8 264 -11 336 l-7 131 179 10 c99 5 182 10 187 11 4 1 7 0 7 -2z m2779
-47 c57 -13 143 -54 181 -86 l30 -25 0 -208 0 -208 -39 5 c-34 5 -40 2 -59
-24 -12 -17 -24 -49 -28 -72 -6 -38 -8 -40 -24 -26 -23 21 -62 19 -83 -5 -13
-15 -29 -20 -67 -20 l-50 0 0 114 c0 75 5 128 15 156 19 55 19 92 -1 138 -12
28 -16 65 -14 147 1 60 4 113 6 117 7 11 80 10 133 -3z m-159 -99 c0 -98 -4
-112 -27 -89 -19 19 -92 14 -121 -8 -50 -38 -46 -106 8 -124 35 -13 40 -43 11
-59 -76 -40 -145 63 -120 180 18 82 60 128 154 166 44 18 83 33 88 34 4 0 7
-45 7 -100z m-261 -31 c-26 -52 -35 -131 -20 -186 13 -49 59 -98 98 -106 53
-10 103 25 103 74 0 23 -8 34 -35 50 -40 24 -45 51 -13 73 44 31 97 16 123
-34 37 -71 3 -173 -72 -217 -110 -64 -236 5 -280 156 -14 50 -14 64 -2 125 14
68 14 69 59 87 62 25 63 24 39 -22z m724 -75 c91 -107 200 -355 169 -386 -6
-6 -11 9 -14 42 -9 86 -69 124 -137 86 -24 -13 -81 -90 -81 -110 0 -6 -5 -4
-10 4 -5 8 -10 108 -10 228 0 167 3 213 13 210 6 -3 38 -36 70 -74z m972 -352
c-6 -6 -177 -20 -184 -16 -10 8 76 227 127 327 l57 112 3 -209 c1 -115 0 -211
-3 -214z m-1832 326 c-4 -69 -1 -93 16 -139 62 -165 242 -223 359 -116 l22 20
0 -85 c0 -48 3 -93 6 -102 4 -11 -3 -16 -28 -20 -72 -11 -480 -37 -486 -31 -4
4 -9 119 -12 256 l-5 249 60 24 c33 14 63 25 66 26 4 0 5 -37 2 -82z m-138
-224 c8 -276 11 -264 -65 -264 -25 0 -126 -7 -225 -15 -99 -8 -195 -15 -212
-15 l-33 0 0 173 0 173 253 96 c138 52 257 96 263 97 8 1 14 -72 19 -245z
m-547 -126 l-3 -173 -160 -11 c-88 -7 -190 -14 -227 -17 l-68 -6 0 124 0 125
28 6 c85 19 258 67 332 93 47 16 88 30 93 30 4 1 6 -77 5 -171z m-1289 92 c49
-17 145 -40 213 -51 68 -12 124 -22 124 -22 1 -1 3 -60 5 -132 l4 -130 -165
-12 c-91 -6 -186 -14 -212 -17 l-46 -5 -6 107 c-3 59 -9 149 -12 200 -3 50 -3
92 0 92 3 0 45 -14 95 -30z m2954 -2 c12 -14 17 -37 17 -79 0 -56 1 -59 20
-49 17 9 20 7 26 -16 4 -14 4 -65 2 -113 -6 -97 -27 -151 -58 -151 -26 0 -26
21 0 43 45 38 9 107 -56 107 -28 0 -44 -8 -70 -34 -31 -31 -34 -40 -34 -90 0
-64 14 -98 59 -140 42 -40 124 -48 176 -17 l35 21 -2 -178 -3 -177 -75 -7
c-41 -3 -298 -11 -570 -17 -545 -11 -543 -11 -548 46 -5 49 28 77 84 70 48 -5
51 -2 29 27 -24 32 -19 73 11 93 26 17 29 16 95 -11 14 -6 16 -1 12 37 -5 40
-3 47 21 62 26 17 60 17 100 0 16 -7 18 -5 12 11 -5 10 -11 40 -13 66 -5 41
-2 50 21 73 30 30 59 29 107 -6 38 -27 42 -24 19 18 -25 48 -25 88 0 113 24
24 78 26 106 5 33 -25 39 -18 36 40 -4 56 15 105 40 105 6 0 26 -16 44 -36
l34 -35 0 51 c0 61 23 117 53 126 29 9 62 -31 71 -85 7 -47 26 -47 26 0 0 53
54 136 100 152 23 8 53 -2 73 -25z m2063 -14 c-3 -9 -6 -33 -6 -54 l0 -39 -45
20 c-39 17 -51 19 -81 9 -64 -21 -95 -102 -70 -183 l14 -47 -81 0 c-45 0 -100
-3 -121 -7 l-39 -6 7 144 c4 79 8 145 9 146 2 1 336 28 396 32 17 1 22 -3 17
-15z m-436 -158 l0 -143 -172 -12 c-95 -7 -183 -14 -194 -16 -21 -5 -22 -1
-29 136 -4 77 -6 142 -4 144 2 2 87 10 189 18 102 8 191 15 198 16 9 1 12 -34
12 -143z m-3773 -122 c-4 -5 -438 -37 -442 -33 -1 2 -5 60 -6 129 l-4 125 180
1 c99 1 200 5 225 10 l45 10 3 -120 c1 -65 1 -120 -1 -122z m3363 87 l0 -138
-57 -6 c-32 -4 -92 -9 -134 -13 -75 -6 -76 -6 -82 19 -4 13 -20 39 -37 57 -28
30 -30 37 -30 116 0 46 1 84 3 85 10 4 324 24 330 21 4 -2 7 -65 7 -141z
m-360 40 l0 -79 -55 -4 c-40 -3 -62 -11 -80 -28 -29 -27 -49 -82 -40 -110 5
-17 2 -20 -26 -20 l-32 0 6 108 c3 59 12 127 19 152 l14 45 59 6 c33 3 77 6
98 7 l37 2 0 -79z m-1320 -66 c0 -44 0 -44 -26 -35 -14 6 -36 10 -50 10 -20 0
-24 5 -24 29 0 27 4 30 38 34 20 2 43 4 50 5 8 1 12 -13 12 -43z m-112 4 c2
-16 -7 -42 -23 -65 -19 -28 -25 -47 -22 -69 5 -30 4 -30 -37 -27 -51 4 -85
-27 -93 -85 l-5 -40 -157 -12 c-86 -7 -160 -13 -166 -14 -6 -1 -11 56 -13 151
-1 83 1 152 5 153 101 10 447 36 473 35 30 -1 35 -5 38 -27z m-538 -57 c0 -27
3 -96 6 -153 l7 -105 -254 -23 c-140 -12 -264 -25 -276 -28 l-23 -5 0 161 0
161 28 1 c15 0 122 9 237 19 307 26 275 29 275 -28z m-552 -154 c1 -87 -1
-158 -5 -158 -5 0 -107 -11 -227 -25 -120 -14 -223 -25 -227 -25 -10 0 -12
225 -3 292 l6 45 207 15 c113 8 215 15 226 14 19 -1 20 -9 23 -158z m-480 -45
l-3 -168 -209 -22 c-115 -13 -211 -21 -214 -18 -5 4 -21 337 -17 343 3 4 324
29 388 31 l57 1 -2 -167z m-453 -33 c4 -94 4 -174 1 -178 -8 -7 -316 -41 -382
-42 l-41 0 -7 176 c-4 97 -5 178 -4 179 3 3 327 30 399 34 l27 1 7 -170z
m-446 7 l1 -89 -30 25 c-53 45 -129 58 -193 32 -16 -7 -17 -4 -10 21 4 16 7
50 6 76 l-2 46 87 7 c48 3 96 7 107 8 27 3 33 -20 34 -126z m3852 82 c6 -12 8
-36 5 -54 -17 -91 -122 -92 -166 -1 -11 23 -20 45 -20 48 0 14 66 14 87 1 19
-13 24 -12 42 6 26 26 37 26 52 0z m-198 -244 c20 -11 37 -23 37 -26 0 -4 19
-10 43 -14 49 -9 59 -20 45 -51 -16 -34 -89 -66 -165 -72 -66 -5 -66 -5 -60
19 4 13 7 73 7 133 l0 109 28 -39 c16 -21 45 -48 65 -59z m-3608 -85 c-3 -5
-13 -10 -21 -10 -8 0 -12 5 -9 10 3 6 13 10 21 10 8 0 12 -4 9 -10z m5110
-340 c22 -8 25 -13 15 -25 -29 -35 -196 -76 -254 -61 -55 14 -20 61 64 87 37
11 145 10 175 -1z m846 -610 c126 -23 166 -64 110 -111 -62 -51 -192 -79 -371
-79 -180 0 -288 38 -260 90 39 73 348 132 521 100z m-464 -208 c23 -12 44 -26
48 -32 12 -19 -5 -46 -39 -62 -124 -60 -387 -44 -445 26 -13 15 -11 20 11 43
40 40 106 53 253 50 112 -2 136 -6 172 -25z m-775 -33 c37 -10 68 -32 68 -50
0 -21 -49 -57 -104 -78 -189 -71 -506 -62 -506 14 0 17 14 29 58 53 128 68
346 96 484 61z m-747 -139 c86 -13 171 -50 180 -80 10 -31 -26 -65 -94 -91
-43 -16 -86 -23 -184 -27 -195 -7 -307 24 -307 86 0 35 20 54 83 82 88 39 191
48 322 30z m-920 -159 c27 -5 30 -10 33 -48 3 -38 0 -43 -28 -58 -78 -40 -275
-43 -322 -5 -26 21 -20 40 23 72 52 38 204 58 294 39z m-498 -112 c220 -30
258 -130 77 -203 -83 -34 -171 -48 -299 -48 -214 -1 -340 59 -289 136 19 30
105 78 173 96 105 28 224 35 338 19z m1165 -3 c32 -7 69 -21 83 -30 36 -23 31
-64 -10 -87 -43 -26 -141 -49 -201 -49 l-53 0 -3 86 c-2 47 -1 88 1 90 10 9
130 3 183 -10z m-642 -149 c0 -13 -3 -59 -7 -102 l-6 -78 -91 6 c-151 10 -235
53 -206 106 23 44 148 89 253 90 53 1 57 0 57 -22z m-1165 -22 c207 -53 115
-167 -158 -195 -145 -15 -298 10 -344 56 -22 23 -23 27 -11 47 19 30 110 75
188 91 89 20 251 20 325 1z m2110 -60 c80 -22 114 -41 127 -70 8 -19 8 -28 -2
-40 -19 -23 -76 -50 -133 -64 -46 -11 -50 -10 -85 17 -89 70 -213 108 -324 99
-67 -6 -68 -5 -68 18 0 21 8 27 53 39 84 24 95 25 237 21 84 -2 158 -10 195
-20z m-1283 -84 c51 -16 81 -42 72 -64 -13 -34 -40 -39 -85 -17 -47 25 -57 21
-40 -16 6 -15 9 -29 6 -33 -12 -12 -223 -13 -279 -1 -31 6 -69 22 -83 34 -26
23 -26 24 -10 49 14 22 56 42 132 61 34 8 248 -1 287 -13z m1030 -29 c82 -27
146 -68 215 -138 l62 -63 78 21 c104 28 292 31 375 5 71 -23 132 -67 146 -106
11 -30 11 -30 -66 -74 -42 -24 -151 -83 -242 -130 l-165 -86 0 70 c0 67 -2 72
-33 100 -37 33 -85 38 -132 14 -27 -14 -30 -14 -40 5 -14 27 -62 50 -102 50
-41 0 -95 -32 -110 -65 -6 -14 -14 -25 -18 -25 -4 0 -27 33 -51 73 -23 39 -78
126 -121 193 -43 66 -78 124 -78 128 0 4 19 16 43 26 55 26 165 26 239 2z
m-2545 -7 c188 -56 28 -188 -274 -226 -169 -21 -333 12 -341 69 -8 56 120 130
279 161 76 15 280 13 336 -4z m4539 -30 c238 -38 374 -125 333 -211 -28 -57
-131 -100 -294 -124 -153 -21 -467 -5 -558 29 -16 6 -27 18 -27 30 0 16 -10
20 -59 26 -46 5 -65 13 -84 33 -54 58 -40 111 41 155 44 24 169 59 247 70 77
10 317 6 401 -8z m-2123 -277 c72 -117 87 -148 87 -182 0 -23 9 -60 20 -83
l19 -42 -202 -107 c-217 -116 -299 -164 -280 -164 7 0 41 15 75 34 245 131
407 216 410 216 3 0 27 -27 54 -61 27 -33 56 -65 65 -70 21 -11 90 24 170 86
l56 43 25 -32 c80 -101 309 -409 306 -411 -2 -2 -37 3 -78 11 -41 8 -244 39
-450 69 -507 75 -631 97 -643 117 -8 11 16 120 87 404 54 213 102 399 107 413
10 24 11 23 47 -37 20 -34 76 -126 125 -204z m971 216 c65 -16 121 -52 131
-84 9 -28 -20 -70 -46 -70 -12 0 -42 19 -69 43 -71 64 -220 102 -355 91 l-60
-4 40 15 c90 35 238 39 359 9z m-2714 -62 c36 -12 81 -35 100 -51 l35 -29 -26
-29 c-33 -35 -49 -65 -49 -92 0 -27 -74 -65 -178 -93 -105 -27 -314 -30 -427
-4 -274 62 -263 199 22 286 112 34 158 39 313 36 113 -3 159 -8 210 -24z m794
-25 c37 -10 66 -23 76 -37 33 -43 123 -223 109 -217 -8 3 -70 30 -139 60 -69
30 -135 58 -147 62 -41 12 -24 -9 35 -43 31 -18 73 -46 92 -62 l35 -29 -59 20
c-71 23 -163 39 -229 39 -44 0 -47 -2 -38 -19 6 -10 53 -48 105 -83 53 -34 95
-66 96 -70 1 -25 -333 -21 -429 6 -124 34 -215 100 -227 162 -20 106 101 187
331 225 73 12 321 3 389 -14z m2136 -92 c123 -7 362 -33 369 -41 3 -3 -8 -58
-24 -122 l-30 -117 -250 4 c-137 2 -252 5 -254 7 -2 2 6 49 19 104 12 56 22
119 22 140 -1 36 1 40 21 36 12 -3 69 -8 127 -11z m-191 -122 c-16 -56 -146
-576 -165 -662 -4 -21 -8 -18 -44 33 -55 78 -216 292 -262 348 -22 26 -37 52
-33 58 4 6 52 34 108 62 135 67 323 171 367 202 19 14 38 25 42 26 4 0 -2 -30
-13 -67z m-702 15 c12 -12 25 -29 28 -39 6 -18 7 -18 33 1 46 34 84 36 120 5
44 -37 45 -100 3 -167 -28 -43 -117 -116 -188 -152 l-32 -16 -44 55 c-92 112
-120 219 -75 285 43 63 105 75 155 28z m-762 -302 c99 -24 98 -22 83 -87 -6
-30 -15 -59 -20 -65 -31 -42 -317 -53 -433 -17 -70 22 -115 52 -115 77 0 30
64 71 155 98 74 22 226 19 330 -6z m1845 0 c52 -19 80 -42 80 -67 0 -26 -54
-66 -113 -85 -70 -22 -261 -30 -336 -14 -86 18 -86 18 -70 85 14 54 17 59 54
72 103 36 298 40 385 9z m-1758 -240 c32 -14 116 -31 345 -72 63 -11 93 -21
98 -31 22 -60 -189 -123 -412 -123 -162 0 -293 28 -340 72 -61 57 6 117 167
152 85 19 101 19 142 2z"/>
<path d="M6924 8335 c-12 -8 -27 -28 -34 -45 -10 -25 -16 -29 -34 -23 -37 14
-94 8 -115 -12 -14 -12 -21 -30 -21 -57 0 -74 99 -151 232 -183 35 -8 70 -15
79 -15 39 0 81 172 60 249 -18 62 -59 101 -108 101 -21 0 -48 -7 -59 -15z
m103 -20 c50 -35 64 -132 33 -235 -18 -61 -21 -63 -82 -51 -167 35 -294 161
-216 215 29 21 46 20 93 -4 22 -11 41 -20 42 -20 2 0 3 14 3 30 0 63 75 101
127 65z"/>
<path d="M6006 8230 c-24 -29 -27 -30 -63 -20 -68 21 -125 -23 -109 -83 9 -37
53 -85 99 -109 34 -17 142 -58 153 -58 9 0 55 103 63 140 20 89 -17 160 -83
160 -26 0 -40 -7 -60 -30z m111 -17 c25 -38 21 -109 -10 -177 l-25 -55 -47 14
c-71 22 -146 67 -167 100 -49 80 16 136 100 85 30 -18 32 -18 32 -2 0 61 84
86 117 35z"/>
<path d="M4433 8388 c-15 -20 -25 -38 -20 -38 3 0 12 11 21 25 17 26 16 35 -1
13z"/>
<path d="M4494 8368 l-19 -23 23 19 c21 18 27 26 19 26 -2 0 -12 -10 -23 -22z"/>
<path d="M4579 8343 c-13 -16 -12 -17 4 -4 16 13 21 21 13 21 -2 0 -10 -8 -17
-17z"/>
<path d="M4619 8303 c-13 -16 -12 -17 4 -4 9 7 17 15 17 17 0 8 -8 3 -21 -13z"/>
<path d="M4684 8268 c-4 -7 -14 -24 -22 -38 -14 -24 -13 -24 3 -5 20 24 37 55
31 55 -3 0 -8 -6 -12 -12z"/>
<path d="M4738 8228 c-23 -35 -52 -94 -40 -83 13 14 65 105 59 105 -3 0 -11
-10 -19 -22z"/>
<path d="M4900 8068 c-16 -29 -30 -57 -30 -62 0 -12 1 -10 38 57 18 31 30 57
27 57 -2 0 -18 -24 -35 -52z"/>
<path d="M4024 8009 c-25 -50 -44 -93 -42 -95 2 -2 25 39 51 91 26 52 45 95
42 95 -3 0 -25 -41 -51 -91z"/>
<path d="M4080 7979 c-43 -94 -34 -98 13 -4 20 41 33 75 28 75 -4 0 -23 -32
-41 -71z"/>
<path d="M4165 7979 c-4 -6 -5 -12 -2 -15 2 -3 7 2 10 11 7 17 1 20 -8 4z"/>
<path d="M6926 7474 c-48 -17 -119 -74 -156 -126 l-28 -38 -35 48 c-111 155
-351 127 -427 -50 -18 -42 -21 -65 -18 -122 3 -39 8 -78 12 -87 6 -13 -10 -17
-116 -28 -67 -6 -127 -16 -132 -21 -10 -10 -3 -586 7 -596 7 -7 1162 132 1178
141 14 9 12 585 -2 585 -7 0 -9 19 -4 58 21 180 -116 296 -279 236z m172 -41
c62 -47 85 -111 70 -206 -10 -69 -46 -140 -119 -237 -63 -83 -314 -350 -330
-350 -4 0 -62 50 -128 111 -200 184 -287 309 -298 427 -7 74 9 123 56 175 91
101 231 103 318 3 17 -19 39 -48 49 -65 10 -17 21 -31 24 -31 4 0 21 22 39 49
38 60 80 96 146 128 60 28 132 27 173 -4z m105 -540 c-3 -205 -7 -280 -16
-285 -7 -3 -262 -37 -567 -73 -305 -37 -559 -68 -565 -69 -10 -1 -30 562 -20
572 9 10 250 32 253 24 10 -31 98 -148 165 -218 81 -86 250 -234 267 -234 16
0 152 125 231 212 104 113 175 209 212 285 17 35 34 63 37 63 3 0 5 -125 3
-277z"/>
<path d="M2457 7054 c-8 -8 3 -34 14 -34 5 0 9 9 9 20 0 19 -11 26 -23 14z"/>
<path d="M7441 6398 c24 -44 19 -92 -12 -109 -43 -22 -79 19 -66 74 6 21 6 21
-8 3 -8 -11 -15 -25 -15 -32 0 -23 42 -64 65 -64 30 0 65 44 65 81 0 16 -11
40 -25 56 l-26 28 22 -37z"/>
<path d="M5721 6201 c-25 -23 -31 -37 -31 -70 0 -41 18 -61 54 -61 46 0 72 76
41 116 -14 18 -15 17 -4 -8 15 -35 4 -77 -24 -87 -34 -13 -57 4 -57 43 0 26 8
41 35 65 20 17 32 31 26 31 -5 0 -23 -13 -40 -29z"/>
<path d="M4080 6156 c0 -4 21 -30 48 -58 50 -55 155 -128 181 -128 9 1 -6 12
-32 26 -26 14 -81 57 -122 96 -41 39 -75 68 -75 64z"/>
<path d="M4394 6025 c-10 -8 -14 -14 -9 -14 6 0 19 6 29 14 11 8 15 15 10 15
-6 0 -19 -7 -30 -15z"/>
<path d="M4352 5849 c-42 -31 -122 -140 -122 -167 0 -8 17 11 38 44 42 64 83
110 122 136 14 9 20 17 14 17 -5 1 -29 -13 -52 -30z"/>
<path d="M4216 5648 c-11 -37 -14 -60 -6 -52 11 12 24 64 16 64 -4 0 -8 -6
-10 -12z"/>
<path d="M4450 5585 c-57 -57 -102 -106 -99 -108 2 -1 51 46 108 105 57 59
102 108 100 108 -2 0 -51 -47 -109 -105z"/>
<path d="M4579 5603 l-34 -38 38 34 c20 19 37 36 37 38 0 8 -8 0 -41 -34z"/>
<path d="M3725 5409 c-55 -34 -107 -68 -115 -77 -14 -14 -13 -14 10 0 176 108
224 140 208 138 -2 0 -48 -28 -103 -61z"/>
<path d="M2657 5370 c-59 -38 -107 -72 -107 -75 0 -8 14 0 70 40 25 18 72 49
105 69 33 20 55 36 49 36 -5 0 -58 -31 -117 -70z"/>
<path d="M2727 5305 c-20 -14 -37 -28 -37 -31 0 -2 18 8 40 22 35 23 47 34 37
34 -1 0 -19 -11 -40 -25z"/>
<path d="M2835 5284 l-30 -26 33 22 c17 12 32 23 32 26 0 7 -4 5 -35 -22z"/>
<path d="M3523 5224 c-46 -25 -83 -47 -83 -50 0 -6 149 74 165 87 17 17 0 9
-82 -37z"/>
<path d="M3113 5189 c-59 -41 -54 -48 5 -8 58 40 57 39 46 39 -5 -1 -28 -14
-51 -31z"/>
<path d="M3257 5191 c-26 -15 -53 -34 -60 -41 -7 -8 1 -6 17 4 16 10 44 27 63
38 18 11 33 22 33 24 0 6 -2 5 -53 -25z"/>
<path d="M6055 5668 l-40 -43 43 40 c39 36 47 45 39 45 -2 0 -21 -19 -42 -42z"/>
<path d="M5894 5668 c-65 -73 -74 -90 -19 -36 33 32 57 60 54 63 -3 3 -19 -10
-35 -27z"/>
<path d="M5960 5643 c-39 -40 -44 -48 -18 -27 32 26 85 84 76 84 -2 0 -28 -26
-58 -57z"/>
<path d="M6029 5683 c-13 -16 -12 -17 4 -4 9 7 17 15 17 17 0 8 -8 3 -21 -13z"/>
<path d="M6015 5548 l-70 -73 73 70 c39 38 72 71 72 72 0 8 -11 -2 -75 -69z"/>
<path d="M5834 5548 l-19 -23 23 19 c21 18 27 26 19 26 -2 0 -12 -10 -23 -22z"/>
<path d="M5874 5528 l-29 -33 33 29 c30 28 37 36 29 36 -2 0 -16 -15 -33 -32z"/>
<path d="M5927 5535 c-15 -14 -24 -25 -19 -25 5 0 19 11 32 25 30 32 23 32
-13 0z"/>
<path d="M5904 5105 c0 -93 2 -133 3 -88 2 45 2 122 0 170 -1 48 -3 12 -3 -82z"/>
<path d="M6039 5163 c-7 -15 -13 -80 -15 -143 l-2 -115 8 110 c12 175 33 220
45 98 9 -105 12 -114 13 -43 0 106 -25 154 -49 93z"/>
<path d="M6013 4380 c0 -36 2 -50 4 -32 2 17 2 47 0 65 -2 17 -4 3 -4 -33z"/>
<path d="M5893 4145 c0 -38 2 -53 4 -32 2 20 2 52 0 70 -2 17 -4 1 -4 -38z"/>
<path d="M5786 3151 c-4 -5 3 -7 14 -4 27 7 47 -11 60 -55 6 -20 14 -43 16
-51 2 -8 16 10 32 40 31 61 54 79 80 63 64 -40 70 -273 10 -431 -38 -102 -89
-133 -161 -98 l-32 16 24 -21 c34 -29 95 -27 127 5 56 56 94 193 94 340 0 142
-25 205 -81 205 -29 0 -62 -32 -75 -73 -6 -19 -7 -19 -22 9 -8 16 -21 37 -30
47 -16 18 -47 23 -56 8z"/>
<path d="M5852 2470 c-1 -19 3 -53 7 -75 l9 -40 0 35 c1 19 -3 53 -7 75 l-9
40 0 -35z"/>
<path d="M5862 2240 c-1 -47 -4 -130 -7 -185 -4 -98 -4 -99 6 -30 5 39 8 122
6 185 -2 101 -3 105 -5 30z"/>
<path d="M5800 1804 c-11 -28 -13 -123 -4 -147 4 -12 18 -2 55 36 27 28 52 48
55 44 3 -3 -1 -27 -10 -53 -18 -52 -20 -74 -8 -74 8 0 32 92 32 123 0 29 -37
19 -76 -20 l-37 -37 6 77 c6 81 3 93 -13 51z"/>
<path d="M5317 4392 c-10 -10 -17 -30 -17 -43 0 -22 -3 -24 -38 -21 -46 4 -65
-14 -64 -60 1 -34 20 -78 34 -78 5 0 1 14 -7 31 -19 37 -16 78 7 93 13 8 26 6
53 -7 l37 -17 -7 30 c-5 21 -2 39 9 55 20 30 37 32 61 5 10 -11 20 -18 23 -15
3 3 -3 14 -13 25 -23 25 -57 26 -78 2z"/>
<path d="M7363 1864 c-17 -43 -28 -82 -24 -86 4 -5 74 -11 157 -14 121 -6 151
-4 160 7 17 21 44 143 35 152 -5 5 -74 11 -153 14 l-144 6 -31 -79z m275 56
c49 0 50 -4 26 -86 l-15 -54 -150 0 c-82 0 -149 2 -149 4 0 3 12 37 27 77 l26
72 96 -7 c53 -3 115 -6 139 -6z"/>
<path d="M8164 4869 c-8 -17 -16 -51 -16 -75 0 -40 -1 -43 -18 -34 -51 27 -96
-7 -87 -66 6 -35 34 -90 43 -81 2 2 -2 17 -10 33 -26 54 -27 70 -7 95 19 23
19 23 55 6 20 -9 38 -17 40 -17 2 0 1 20 -2 45 -5 49 11 100 35 110 21 7 50
-20 79 -75 13 -25 23 -39 24 -32 0 7 -7 27 -16 45 -41 81 -91 100 -120 46z"/>
<path d="M8740 4837 c-35 -17 -70 -74 -69 -111 1 -32 3 -29 13 16 10 43 54 88
87 88 35 0 53 -28 47 -76 -2 -19 -2 -34 -1 -34 2 0 16 9 32 21 36 27 86 23 85
-6 0 -11 -4 -31 -8 -45 -7 -24 -7 -24 9 -5 9 11 15 33 13 50 -4 40 -42 54 -87
32 l-31 -15 0 29 c0 30 -30 69 -52 69 -7 0 -24 -6 -38 -13z"/>
<path d="M1493 4508 c-22 -25 -43 -79 -43 -111 0 -31 11 -14 21 35 11 45 43
88 66 88 21 0 35 -50 29 -102 -3 -27 -3 -48 0 -48 3 0 18 9 33 21 57 42 91 -3
56 -71 -20 -39 -14 -50 8 -16 51 78 11 145 -64 106 -17 -10 -19 -7 -19 29 0
84 -43 117 -87 69z"/>
<path d="M6791 4308 c-6 -17 -13 -57 -16 -87 -4 -51 -3 -49 11 22 22 109 32
102 46 -33 3 -24 4 -23 26 13 29 46 62 67 62 39 0 -11 -7 -36 -16 -57 -8 -20
-13 -39 -11 -42 5 -5 35 72 39 102 5 32 -28 29 -61 -7 l-31 -33 0 32 c0 38
-16 83 -29 83 -5 0 -14 -14 -20 -32z"/>
<path d="M7616 4225 c4 -8 8 -15 10 -15 2 0 4 7 4 15 0 8 -4 15 -10 15 -5 0
-7 -7 -4 -15z"/>
<path d="M8397 4122 c-18 -27 -35 -98 -28 -111 6 -10 11 -1 16 30 14 85 32 88
37 6 2 -26 4 -47 6 -47 1 0 20 18 42 40 42 42 77 54 67 23 -21 -66 -21 -66 -1
-55 10 5 139 22 287 38 147 15 267 32 267 36 0 4 -6 8 -12 8 -20 0 -459 -49
-499 -55 -35 -6 -36 -6 -31 23 6 44 -14 48 -64 14 l-43 -31 -7 34 c-6 35 -28
63 -37 47z"/>
<path d="M3960 4074 c0 -34 32 -154 41 -154 4 0 -1 32 -12 70 -11 39 -19 78
-17 88 3 14 7 13 26 -8 13 -14 34 -45 47 -70 l23 -45 14 35 c19 44 65 100 84
100 18 0 18 -6 -2 -64 -9 -26 -14 -49 -11 -52 6 -6 37 83 37 108 0 10 -7 18
-16 18 -29 0 -53 -20 -80 -66 l-27 -45 -19 33 c-45 75 -88 101 -88 52z"/>
<path d="M3473 3878 c-15 -24 -28 -45 -29 -47 -2 -1 -13 4 -26 13 -12 9 -26
16 -31 16 -11 0 0 -68 15 -90 9 -15 8 -1 -8 60 l-7 25 30 -28 30 -28 13 31
c18 43 49 80 67 80 13 0 15 -8 10 -43 -3 -24 -9 -52 -13 -62 -5 -15 -4 -17 5
-9 7 6 15 37 18 68 6 55 5 56 -20 56 -20 0 -33 -10 -54 -42z"/>
<path d="M7095 3792 c-148 -46 -200 -80 -193 -124 5 -35 55 -47 198 -47 212
-1 322 21 328 65 5 36 -35 91 -80 109 -74 29 -152 28 -253 -3z m241 -8 c44
-15 87 -64 82 -92 -5 -28 -50 -42 -170 -53 -125 -12 -285 -7 -317 10 -63 34
30 96 219 145 60 16 122 13 186 -10z"/>
<path d="M4311 3654 c0 -11 3 -14 6 -6 3 7 2 16 -1 19 -3 4 -6 -2 -5 -13z"/>
<path d="M8095 3564 c-13 -14 -27 -35 -31 -47 -6 -18 -9 -17 -38 18 -22 26
-38 36 -48 32 -15 -5 -15 -11 0 -66 9 -34 20 -61 24 -61 4 0 1 21 -7 48 -21
67 -20 79 6 56 12 -10 28 -32 36 -48 l15 -29 22 43 c12 24 32 50 45 59 24 16
24 15 18 -14 -18 -85 -18 -82 -3 -50 20 41 20 85 1 85 -9 0 -27 -12 -40 -26z"/>
<path d="M2948 3503 c-17 -20 -33 -49 -48 -87 -16 -42 -2 -30 21 18 11 24 29
52 39 61 18 17 20 17 26 1 4 -9 4 -39 2 -66 -3 -27 -1 -47 4 -44 9 6 11 94 2
118 -8 21 -27 20 -46 -1z"/>
<path d="M2827 3443 c-4 -3 1 -19 9 -35 9 -17 18 -28 21 -25 2 3 -1 15 -7 28
-11 19 -10 21 4 16 22 -9 20 0 -3 12 -10 6 -21 8 -24 4z"/>
<path d="M1830 3264 c-31 -27 -60 -79 -60 -106 1 -7 12 11 26 40 25 50 65 84
81 69 6 -7 -7 -79 -23 -122 -5 -15 -4 -17 5 -9 6 5 17 36 23 67 10 49 10 59
-3 73 -14 14 -19 13 -49 -12z"/>
<path d="M8820 3153 c-51 -8 -134 -58 -144 -86 -14 -38 17 -77 80 -100 72 -25
294 -16 294 12 0 4 -28 2 -62 -6 -125 -27 -288 9 -296 65 -11 73 162 124 333
100 49 -7 49 -7 20 7 -28 13 -161 18 -225 8z"/>
<path d="M4984 3082 c-21 -16 -48 -45 -58 -64 l-20 -36 -28 39 c-34 48 -70 72
-93 63 -14 -6 -16 -16 -13 -61 3 -29 11 -59 18 -66 10 -10 12 -8 6 8 -13 34
-19 83 -12 100 5 14 9 14 34 1 29 -15 82 -84 82 -108 1 -7 10 5 22 27 26 52
63 90 100 106 44 18 51 2 28 -66 -11 -33 -19 -64 -17 -70 2 -5 14 20 26 56 12
36 19 73 15 82 -9 25 -46 20 -90 -11z"/>
<path d="M8268 2950 c-192 -33 -298 -106 -257 -179 8 -14 40 -40 71 -56 l57
-31 -102 -2 c-225 -4 -417 -90 -417 -186 0 -85 132 -142 356 -153 204 -10 377
26 455 95 35 32 43 45 43 74 0 52 -28 86 -97 119 l-62 28 100 -5 c93 -6 302 8
342 23 15 5 14 1 -4 -19 -40 -43 -27 -85 35 -117 33 -18 157 -27 166 -12 5 8
-12 11 -56 11 -71 0 -151 32 -156 62 -8 43 93 88 200 88 37 0 57 4 53 10 -3 6
-27 10 -52 10 l-46 0 41 30 c59 42 60 78 5 127 -69 62 -227 94 -467 92 -88 -1
-182 -5 -208 -9z m360 -10 c231 -21 367 -83 334 -154 -14 -32 -99 -71 -202
-93 -117 -25 -450 -25 -560 0 -145 33 -204 83 -167 141 56 85 317 131 595 106z
m-358 -291 c269 -58 251 -212 -33 -274 -107 -24 -360 -17 -459 12 -73 22 -132
60 -140 91 -8 29 17 74 56 100 45 31 155 69 236 81 78 12 264 7 340 -10z"/>
<path d="M7455 2896 c-84 -20 -116 -33 -147 -64 -55 -51 -21 -108 81 -140 86
-26 305 -23 386 6 59 21 115 68 115 96 0 27 -51 74 -98 91 -65 23 -257 29
-337 11z m312 -21 c92 -27 129 -79 84 -119 -87 -79 -422 -90 -521 -17 -31 22
-37 57 -15 81 15 17 98 49 160 63 51 12 244 6 292 -8z"/>
<path d="M3698 2879 c-82 -12 -138 -43 -138 -75 0 -51 118 -70 247 -39 78 18
103 33 103 62 0 44 -101 69 -212 52z m172 -22 c14 -7 25 -21 25 -32 0 -44
-215 -82 -288 -52 -20 9 -37 23 -37 31 0 17 48 45 95 57 50 12 178 10 205 -4z"/>
<path d="M3030 2826 c-91 -26 -136 -60 -127 -96 6 -23 -9 -28 -166 -53 -126
-20 -211 -59 -215 -100 -7 -64 68 -96 238 -104 101 -4 140 -1 320 31 113 19
228 42 257 51 96 29 119 71 52 99 l-31 13 34 13 c115 46 119 113 8 140 -74 17
-318 22 -370 6z m351 -16 c64 -12 99 -41 83 -68 -6 -9 -33 -28 -62 -42 -28
-14 -54 -28 -58 -32 -3 -4 12 -15 35 -24 22 -9 41 -20 41 -25 0 -30 -107 -62
-350 -105 -245 -43 -446 -36 -515 18 -71 56 0 102 212 138 136 23 155 32 147
65 -6 23 -1 28 49 50 31 14 75 30 99 35 50 11 241 5 319 -10z"/>
<path d="M6760 2682 c-157 -41 -206 -125 -111 -189 43 -29 85 -41 197 -54 192
-23 400 30 445 112 27 51 -46 114 -159 138 -82 17 -295 13 -372 -7z m315 -3
c180 -25 254 -91 173 -152 -117 -88 -430 -103 -577 -27 -182 92 107 221 404
179z"/>
<path d="M2241 2507 c-35 -18 -50 -45 -31 -57 32 -21 135 -2 154 28 20 33 -72
55 -123 29z m99 -7 c13 -9 12 -12 -4 -25 -39 -30 -121 -33 -121 -5 0 27 95 50
125 30z"/>
<path d="M8611 2480 c-75 -16 -131 -42 -156 -72 -71 -84 20 -157 205 -166 97
-5 210 11 210 29 0 6 -4 8 -9 4 -26 -15 -173 -25 -242 -15 -282 40 -196 209
106 210 45 0 107 -7 139 -15 71 -19 83 -14 24 10 -51 20 -211 29 -277 15z"/>
<path d="M7255 2426 c-69 -17 -125 -46 -148 -78 -19 -26 -19 -28 -3 -53 58
-88 356 -111 504 -39 65 32 82 62 58 98 -23 36 -52 53 -121 70 -70 19 -218 20
-290 2z m310 -22 c101 -34 125 -88 54 -125 -121 -61 -360 -64 -464 -6 -68 38
-56 77 36 116 98 43 271 49 374 15z"/>
<path d="M4654 2246 c-41 -18 -50 -44 -24 -70 17 -18 33 -21 99 -21 84 0 121
17 121 56 0 43 -126 65 -196 35z m169 -17 c46 -25 -14 -64 -100 -64 -66 0
-101 19 -90 48 12 32 139 43 190 16z"/>
<path d="M2925 2009 c-186 -25 -295 -87 -295 -168 0 -31 45 -77 101 -100 200
-87 634 -58 749 49 36 33 40 75 11 112 -63 79 -359 136 -566 107z m370 -33
c90 -21 175 -64 195 -98 13 -25 13 -29 -6 -55 -12 -15 -36 -36 -53 -47 -85
-49 -302 -78 -488 -64 -355 26 -400 210 -67 273 99 18 319 14 419 -9z"/>
<path d="M8211 1815 c-170 -38 -314 -107 -356 -171 -11 -16 -19 -46 -19 -66
-1 -63 57 -107 178 -137 59 -14 260 -16 284 -2 12 7 -10 9 -73 4 -203 -13
-375 49 -375 134 0 60 55 110 178 163 177 76 343 93 512 55 23 -6 22 -5 -5 11
-41 24 -234 29 -324 9z"/>
<path d="M2028 1765 c-89 -18 -183 -61 -213 -97 -50 -59 -22 -128 68 -168 111
-49 346 -65 504 -35 90 17 199 68 226 107 47 64 -11 137 -142 179 -86 28 -340
36 -443 14z m402 -21 c224 -51 242 -179 33 -244 -214 -66 -550 -35 -635 60
-33 36 -35 58 -7 94 75 95 384 141 609 90z"/>
<path d="M3885 1756 c-221 -51 -323 -169 -233 -271 39 -45 88 -71 175 -91 92
-22 292 -15 380 14 l62 20 7 -22 c20 -66 123 -124 269 -152 111 -21 345 -24
430 -5 172 38 245 88 245 168 0 40 -82 113 -162 146 -115 46 -217 62 -383 61
-97 -1 -167 -6 -200 -16 l-49 -14 -16 30 c-22 44 -91 92 -168 117 -86 27 -270
35 -357 15z m344 -28 c81 -24 135 -58 161 -101 25 -40 25 -44 0 -52 -30 -10
-79 -54 -105 -94 -18 -29 -34 -40 -78 -54 -242 -76 -571 -4 -571 125 0 153
338 254 593 176z m714 -147 c271 -72 342 -196 159 -277 -204 -92 -651 -60
-772 55 -32 30 -40 45 -40 73 0 67 72 126 193 159 99 26 343 21 460 -10z"/>
<path d="M4775 1424 c-14 -15 -25 -31 -25 -36 0 -6 -16 4 -35 21 -36 31 -78
40 -91 19 -10 -15 -7 -79 4 -90 5 -5 7 12 4 41 -4 48 -3 51 18 51 13 0 39 -17
61 -39 l39 -39 16 34 c9 19 26 41 38 49 11 8 15 15 8 15 -7 0 -24 -12 -37 -26z"/>
<path d="M2950 1580 c-215 -30 -371 -82 -436 -145 -60 -57 -61 -93 -1 -150 82
-78 223 -114 482 -122 291 -9 473 27 560 111 38 35 45 49 45 80 0 94 -86 168
-246 211 -71 19 -309 28 -404 15z m364 -25 c141 -27 254 -97 272 -170 13 -54
-35 -115 -119 -150 -159 -66 -511 -80 -739 -29 -128 28 -225 85 -242 140 -17
56 78 126 229 169 187 53 443 70 599 40z"/>
<path d="M7685 1391 c-85 -21 -130 -44 -151 -76 -53 -81 68 -146 265 -143
l106 1 -105 7 c-110 7 -199 28 -238 56 -17 12 -22 24 -20 47 4 38 51 68 148
93 94 24 286 16 354 -14 27 -12 51 -20 54 -17 9 9 -88 46 -146 55 -85 14 -188
11 -267 -9z"/>
<path d="M2069 1281 c-38 -12 -69 -30 -69 -42 0 -5 10 -3 23 5 63 42 194 39
229 -4 23 -29 11 -51 -44 -79 -34 -17 -37 -21 -14 -16 65 13 104 66 75 102
-32 37 -131 54 -200 34z"/>
<path d="M3850 1275 c-304 -61 -376 -232 -130 -310 260 -82 659 -44 761 73 27
30 30 41 26 75 -15 112 -189 178 -466 176 -69 0 -155 -7 -191 -14z m431 -21
c131 -28 212 -87 212 -154 0 -93 -188 -160 -449 -160 -323 0 -521 94 -437 208
40 54 188 109 343 126 66 8 255 -4 331 -20z"/>
<path d="M5075 1243 c-109 -14 -204 -62 -226 -114 -10 -26 -9 -34 8 -57 39
-55 159 -92 293 -92 l64 0 -46 -29 c-72 -45 -87 -94 -47 -145 106 -135 700
-167 930 -50 91 45 104 103 39 165 -78 74 -261 113 -507 107 l-152 -3 35 28
c36 30 45 69 24 108 -34 62 -247 104 -415 82z m327 -42 c129 -50 115 -127 -32
-177 -45 -16 -85 -19 -215 -19 -146 0 -164 2 -210 23 -27 12 -57 30 -67 39
-55 50 19 120 167 157 11 2 83 4 160 2 117 -2 149 -6 197 -25z m363 -191 c171
-20 296 -65 338 -122 20 -26 20 -30 5 -62 -20 -42 -87 -76 -203 -102 -121 -28
-444 -26 -573 4 -108 25 -190 65 -212 105 -13 24 -13 30 0 55 53 93 368 153
645 122z"/>
<path d="M6570 1159 c-137 -24 -222 -68 -236 -123 -13 -54 45 -98 176 -133 89
-23 337 -23 433 0 145 36 203 90 167 157 -15 27 -85 66 -155 85 -72 19 -307
28 -385 14z m378 -29 c72 -17 132 -50 148 -82 28 -53 -12 -90 -136 -124 -94
-27 -380 -27 -465 -1 -142 44 -185 100 -116 154 24 19 117 52 174 63 63 11
336 4 395 -10z"/>
<path d="M7228 1155 c-85 -28 -98 -86 -26 -116 47 -20 184 -17 225 4 92 49 44
117 -86 123 -41 2 -84 -2 -113 -11z m200 -22 c19 -9 32 -23 32 -34 0 -32 -45
-52 -128 -57 -93 -5 -156 13 -160 44 -4 29 21 46 86 59 65 14 122 9 170 -12z"/>
<path d="M3276 994 c-23 -50 -16 -52 11 -3 12 21 18 39 14 39 -4 0 -15 -16
-25 -36z"/>
<path d="M4533 979 c-155 -30 -198 -110 -85 -162 41 -19 65 -22 177 -22 141 0
185 10 235 52 37 30 38 57 5 87 -51 47 -212 69 -332 45z m286 -34 c19 -11 39
-28 45 -37 40 -64 -150 -125 -311 -100 -106 17 -148 38 -148 76 0 24 7 33 38
49 60 31 93 36 222 34 100 -2 126 -5 154 -22z"/>
</g>
</svg>
