<?xml version="1.0" standalone="no"?>
<!DOCTYPE svg PUBLIC "-//W3C//DTD SVG 20010904//EN"
 "http://www.w3.org/TR/2001/REC-SVG-20010904/DTD/svg10.dtd">
<svg version="1.0" xmlns="http://www.w3.org/2000/svg"
 width="1024.000000pt" height="1024.000000pt" viewBox="0 0 1024.000000 1024.000000"
 preserveAspectRatio="xMidYMid meet">
<metadata>
Created by potrace 1.16, written by Peter Selinger 2001-2019
</metadata>
<g transform="translate(0.000000,1024.000000) scale(0.100000,-0.100000)"
fill="#000000" stroke="none">
<path d="M4746 8859 c-68 -53 -76 -148 -31 -339 23 -99 26 -129 22 -215 -8
-144 -52 -246 -113 -261 -29 -7 -64 19 -64 48 0 23 27 35 43 19 26 -26 67 3
67 49 0 61 -95 92 -161 53 -32 -19 -69 -85 -69 -124 0 -29 33 -104 51 -115 8
-5 -22 -16 -80 -30 -124 -31 -208 -79 -307 -178 -142 -141 -236 -340 -279
-589 l-6 -38 -42 37 c-23 21 -52 51 -64 67 l-22 30 29 34 c37 41 42 61 38 143
l-3 65 -18 -52 c-22 -64 -51 -95 -36 -38 13 45 -2 123 -33 174 -12 20 -44 59
-70 87 -35 37 -51 64 -61 104 -10 39 -20 56 -37 62 -31 11 -92 -7 -130 -39
-30 -25 -32 -25 -68 -10 -63 27 -80 29 -112 12 -35 -18 -70 -69 -70 -101 0
-12 -11 -29 -24 -37 -15 -10 -25 -29 -30 -56 -3 -21 -17 -52 -30 -68 -41 -50
-50 -73 -36 -98 10 -18 10 -31 1 -56 -35 -100 23 -199 116 -199 15 0 59 -9 97
-20 57 -16 89 -19 175 -14 l106 5 -29 -23 c-100 -79 -100 -89 2 -58 74 21 122
61 122 101 0 10 4 19 9 19 29 0 93 -40 148 -92 l63 -61 0 -59 c0 -47 -3 -60
-17 -64 -50 -16 -116 -50 -124 -65 -7 -14 2 -27 42 -63 28 -26 62 -49 75 -52
39 -10 27 -23 -15 -17 -33 5 -44 1 -66 -21 -31 -31 -35 -32 -35 -7 0 32 -48
81 -80 81 -39 0 -78 -35 -92 -83 -15 -54 -12 -51 -42 -32 -14 9 -29 14 -34 12
-4 -3 -14 -2 -21 2 -9 6 -6 17 13 46 21 30 26 50 26 96 0 71 -14 84 -29 26 -6
-24 -20 -56 -33 -72 l-22 -28 -11 51 c-20 87 -77 150 -156 172 -19 6 -67 10
-108 10 -67 0 -78 3 -102 26 -23 22 -33 25 -63 20 -54 -10 -105 -77 -97 -128
0 -4 -10 -19 -24 -32 -18 -19 -25 -36 -25 -66 0 -41 -17 -76 -57 -117 -13 -12
-23 -34 -23 -48 0 -25 -1 -25 -22 -11 -28 20 -67 20 -94 1 -20 -13 -22 -12
-37 25 -16 42 -52 65 -84 53 -10 -3 -30 -17 -45 -31 l-28 -26 0 43 c0 103 -45
168 -109 157 -19 -3 -44 -15 -57 -27 l-24 -22 0 61 c0 117 -46 177 -109 141
l-26 -15 -2 62 c-3 141 -70 235 -165 233 -31 0 -30 -1 15 -13 91 -25 128 -85
135 -223 l5 -93 29 25 c31 26 45 30 64 17 27 -18 37 -59 36 -149 l-1 -92 35
38 c81 91 149 49 161 -100 3 -38 8 -69 10 -69 2 0 17 16 34 35 54 61 106 43
124 -43 l7 -34 22 21 c30 28 83 28 113 -1 l23 -21 0 26 c0 14 4 37 10 51 10
28 30 35 30 12 0 -7 7 -19 15 -26 8 -7 15 -21 15 -30 0 -25 45 -77 72 -83 21
-6 23 -11 20 -65 -5 -85 0 -87 145 -67 137 18 232 58 269 112 12 18 24 29 28
26 3 -4 6 -29 6 -57 l1 -51 21 39 c11 22 21 56 22 77 1 33 4 38 29 42 18 2 31
-2 37 -12 8 -14 9 -14 10 1 0 14 7 16 38 11 44 -7 264 -62 270 -68 2 -2 -9 -7
-24 -10 -106 -23 -164 -95 -164 -201 l0 -47 56 7 c94 11 148 40 185 101 l19
30 0 -76 0 -75 -66 -53 -65 -53 -77 7 c-106 9 -110 11 -104 40 7 37 -16 115
-44 153 -29 37 -69 60 -139 78 -80 22 -78 23 -73 -50 7 -88 39 -151 94 -186
l43 -27 -182 -5 c-100 -3 -198 -3 -217 -1 l-35 5 0 61 c0 46 -5 69 -20 89 -29
39 -35 35 -28 -21 3 -28 2 -58 -1 -68 -6 -14 -13 -7 -34 37 -24 48 -37 61
-111 107 -93 58 -138 72 -186 54 -23 -8 -40 -8 -64 0 -78 27 -145 -51 -117
-139 6 -16 3 -22 -8 -22 -32 0 -57 -38 -55 -83 2 -32 -4 -53 -24 -82 -37 -54
-35 -99 5 -161 17 -27 40 -59 51 -71 l20 -23 -34 0 c-19 0 -71 -3 -116 -7
l-82 -6 -4 129 -3 129 -2 -126 -2 -126 -52 -7 c-29 -3 -91 -6 -138 -7 -47 -1
-98 -5 -115 -10 -17 -4 44 -5 136 -2 l166 6 6 -183 c4 -101 4 -187 1 -191 -3
-5 -48 -9 -100 -9 -59 0 -93 -4 -89 -10 3 -6 43 -7 100 -3 l95 6 0 -121 c0
-74 4 -122 10 -122 6 0 8 43 3 119 l-6 119 54 6 c30 3 111 7 180 10 l126 5 7
-222 c3 -122 9 -276 12 -343 6 -100 4 -122 -8 -126 -12 -5 -13 5 -10 53 5 70
-9 109 -51 145 -27 23 -38 26 -89 22 l-58 -4 0 51 c0 98 -75 165 -160 146 -24
-5 -56 -19 -72 -31 l-28 -21 0 53 c0 89 -53 148 -117 132 -24 -6 -25 -5 -21
21 12 62 -27 126 -77 125 -15 -1 -11 -5 13 -15 49 -22 65 -88 36 -159 -7 -18
-6 -18 19 -2 37 25 85 17 111 -17 22 -29 28 -112 13 -169 -9 -32 8 -39 18 -7
4 11 25 33 47 50 107 77 222 -3 204 -142 -4 -27 -5 -49 -2 -49 2 0 17 7 32 15
37 19 67 19 105 0 66 -35 85 -113 50 -205 -11 -27 -17 -50 -14 -50 2 0 22 14
43 31 53 43 110 49 169 17 81 -44 110 -136 64 -206 -19 -31 -12 -37 24 -18 59
30 122 25 167 -15 46 -40 54 -82 27 -143 -22 -51 -17 -55 31 -26 21 13 51 20
81 20 41 0 53 -5 79 -30 27 -28 30 -35 24 -71 -6 -39 -6 -40 16 -33 63 22 118
-8 118 -66 0 -34 -22 -53 -85 -73 -193 -62 -801 -152 -1264 -187 -74 -5 -137
-13 -140 -16 -9 -10 211 4 419 27 599 65 1003 141 1063 200 31 31 33 48 12 89
-19 36 -43 50 -89 50 -34 0 -36 2 -36 31 0 23 -9 40 -34 63 l-34 32 222 23
c121 12 334 35 471 51 218 26 710 75 963 96 l84 7 -27 -27 c-16 -16 -25 -34
-22 -45 3 -15 -2 -17 -36 -17 -52 1 -84 -35 -68 -77 10 -26 9 -27 -19 -27 -61
0 -93 -76 -49 -116 20 -18 39 -19 352 -16 183 2 395 7 472 12 77 6 153 10 169
10 l29 0 -7 -177 c-4 -97 -8 -179 -10 -181 -2 -2 -105 -19 -228 -37 -122 -19
-279 -43 -348 -53 -69 -11 -126 -18 -128 -17 -2 2 4 20 13 41 26 62 3 66 -50
10 -38 -42 -45 -46 -45 -27 0 12 -5 31 -11 42 -14 27 -35 10 -44 -34 -13 -63
-14 -65 -63 -71 -200 -29 -915 -162 -1317 -247 -334 -70 -1016 -229 -1136
-265 -13 -3 -19 8 -28 55 -13 66 -25 81 -40 54 -14 -28 -25 -102 -12 -83 6 8
11 27 11 42 0 15 4 29 9 33 11 6 17 -12 27 -78 5 -39 10 -47 23 -42 30 12 443
112 716 175 488 111 1028 218 1515 301 129 22 247 42 262 45 22 4 29 13 34 42
15 83 44 92 45 14 l0 -47 17 25 c9 14 32 41 49 60 34 37 44 25 18 -20 -20 -35
-19 -52 3 -46 17 5 564 90 661 102 l54 7 -8 -280 c-4 -154 -10 -325 -14 -379
l-6 -99 -81 4 c-91 3 -153 -10 -204 -43 -46 -30 -169 -58 -219 -50 -45 7 -187
-10 -259 -31 -27 -8 -65 -26 -84 -39 -43 -29 -190 -62 -309 -70 -88 -6 -204
-36 -246 -63 -30 -20 -336 -93 -389 -93 -53 0 -181 -33 -235 -61 -24 -12 -109
-39 -189 -60 -80 -21 -214 -58 -298 -82 l-153 -44 5 46 c4 25 2 53 -3 61 -9
13 -14 12 -38 -6 -15 -11 -44 -44 -63 -72 -35 -51 -50 -63 -50 -39 0 23 -62
142 -101 194 -49 65 -78 73 -53 16 35 -77 63 -169 64 -202 l0 -33 -40 36 c-38
34 -60 43 -73 30 -3 -3 5 -35 19 -70 l24 -64 -26 -10 c-14 -6 -27 -10 -29 -10
-26 0 -589 -210 -582 -217 3 -2 97 29 209 70 111 41 255 92 318 113 63 22 117
40 120 42 2 2 -6 33 -18 69 -13 36 -21 68 -18 71 3 3 29 -18 57 -46 29 -29 54
-52 57 -52 18 0 -30 197 -65 264 -26 51 7 16 54 -56 24 -38 55 -99 67 -136
l23 -67 22 43 c27 53 88 122 108 122 12 0 14 -8 8 -37 -20 -100 -22 -112 -14
-107 5 3 9 11 9 17 0 7 44 25 98 41 119 35 454 126 463 126 3 0 6 -17 5 -37
-1 -36 2 -39 49 -63 45 -23 61 -25 170 -24 165 0 299 38 368 102 55 52 24 102
-77 125 l-61 14 105 25 105 25 3 -21 c9 -50 71 -79 199 -91 115 -12 294 25
344 71 11 9 19 30 19 46 0 32 -37 60 -105 80 l-40 12 50 12 c77 19 80 18 80
-18 0 -70 105 -103 304 -96 181 7 306 54 325 124 9 31 -27 70 -86 92 l-51 19
41 10 c36 9 41 8 45 -8 12 -46 155 -64 267 -35 30 8 55 14 56 13 0 -1 -1 -21
-4 -43 l-4 -41 -66 -6 c-158 -14 -253 -86 -193 -146 22 -22 139 -51 207 -51
l46 0 -7 -147 c-3 -82 -8 -160 -11 -175 -5 -27 -6 -27 -31 20 -33 62 -94 141
-148 191 -42 39 -43 40 -24 57 46 42 12 76 -102 100 -117 25 -270 2 -314 -46
-26 -29 -12 -64 32 -86 45 -21 225 -32 270 -16 26 9 31 7 46 -20 17 -30 17
-30 -5 -24 -50 14 -237 27 -303 21 -76 -7 -202 -37 -243 -59 -24 -13 -29 -11
-62 15 -75 60 -223 87 -378 69 -206 -25 -360 -102 -362 -181 -1 -48 77 -100
181 -120 87 -17 92 -25 17 -27 -121 -3 -257 -55 -298 -112 -88 -123 77 -231
330 -217 52 3 117 13 144 23 39 13 51 14 54 5 2 -7 17 -28 33 -46 59 -67 202
-104 404 -105 292 0 454 109 327 221 -78 69 -229 109 -413 109 -79 0 -143 -5
-172 -14 -43 -13 -47 -13 -52 4 -8 26 -71 79 -114 97 -19 8 -67 21 -106 28
l-70 13 95 1 c111 2 210 21 285 55 51 23 54 24 60 6 19 -59 136 -121 268 -141
70 -11 255 -7 307 6 23 6 23 5 -7 -20 -18 -14 -33 -33 -33 -41 0 -15 13 -17
98 -14 59 2 67 -9 22 -28 -63 -28 -64 -89 -2 -121 95 -48 288 -56 410 -17 15
5 22 3 22 -7 0 -9 -24 -17 -77 -25 -236 -37 -273 -158 -63 -206 122 -28 344
-18 461 20 53 17 94 55 86 79 -5 12 -1 14 16 10 12 -2 76 -12 142 -20 66 -9
197 -27 292 -42 94 -14 178 -23 186 -20 12 4 36 73 67 194 l10 42 38 -16 c51
-21 186 -28 263 -14 70 13 147 48 162 72 20 32 -1 69 -51 92 -40 19 -65 22
-172 22 -75 0 -139 -5 -159 -13 -19 -6 -36 -10 -38 -8 -3 2 -1 24 4 48 l9 43
226 -4 227 -3 16 53 c8 30 18 71 22 92 3 20 8 39 12 41 3 2 35 -2 71 -10 36
-8 124 -17 195 -20 207 -10 392 23 464 84 29 24 35 36 35 67 0 68 -87 123
-258 162 -99 23 -365 23 -459 0 -94 -23 -164 -55 -187 -85 -25 -30 -26 -85 -3
-103 15 -12 16 -12 9 6 -17 43 -18 56 -2 80 72 110 525 143 761 54 121 -45
162 -121 93 -172 -36 -26 -69 -40 -136 -57 -170 -43 -565 -22 -579 31 -4 13
-19 20 -52 25 -25 4 -50 9 -55 12 -5 2 -38 6 -75 8 -36 1 -101 6 -143 9 l-76
7 5 31 c10 64 -79 114 -222 124 -99 7 -180 -8 -260 -47 -93 -45 -115 -46 -148
-6 l-27 34 50 12 c61 15 110 53 110 85 0 88 -290 134 -520 83 -8 -2 -15 4 -15
12 0 11 17 17 65 21 84 8 145 27 175 55 30 28 31 34 6 66 -24 30 -81 48 -177
55 l-73 6 -6 52 c-8 60 -5 87 11 92 6 2 9 -7 6 -25 -10 -68 104 -109 280 -99
115 6 160 17 209 50 64 43 41 103 -49 127 -69 19 -70 27 -6 35 31 4 63 9 70
12 7 3 14 -5 16 -18 2 -12 15 -31 30 -42 39 -29 204 -36 318 -13 182 37 257
119 143 157 -21 7 -33 14 -28 15 19 7 587 114 600 114 8 0 11 -8 8 -20 -3 -12
1 -28 10 -38 15 -16 9 -17 -92 -14 -59 2 -126 -1 -148 -7 -97 -26 -122 -89
-50 -124 155 -76 465 -9 383 82 -17 18 -14 19 88 14 209 -11 396 43 396 114 0
28 -47 60 -103 69 -21 4 -36 8 -34 11 2 2 38 9 79 17 l76 13 -2 -31 c-2 -46
44 -66 156 -66 48 0 89 4 92 8 3 5 -30 7 -72 4 -159 -8 -227 56 -112 106 19 9
73 19 120 22 l85 7 -78 1 c-51 1 -90 -3 -115 -14 -51 -21 -278 -61 -391 -68
-64 -4 -121 -15 -180 -35 -47 -16 -140 -39 -206 -51 -66 -12 -210 -40 -320
-62 -110 -22 -252 -43 -315 -48 -123 -9 -211 -29 -275 -61 -49 -24 -228 -59
-310 -59 -73 0 -171 -22 -222 -50 -71 -38 -69 -41 -76 162 -4 99 -7 266 -7
370 0 172 1 188 18 189 9 0 89 10 177 22 l159 22 9 43 c10 50 23 54 35 11 l8
-31 31 51 c37 59 59 68 48 19 -4 -18 -9 -43 -12 -55 -5 -21 -2 -22 23 -18 45
8 652 85 667 85 6 0 0 -10 -15 -21 -74 -55 13 -88 140 -55 99 27 132 67 70 84
-32 9 -32 9 -8 15 25 6 464 57 488 57 7 0 12 14 12 35 0 42 14 45 33 8 l15
-27 7 42 c9 58 22 61 31 7 l6 -45 40 35 c40 37 66 39 48 5 -12 -23 -13 -43 -1
-36 5 3 112 18 237 32 213 24 244 29 233 37 -2 2 -94 -7 -204 -19 -259 -29
-255 -29 -252 -2 3 32 -25 33 -62 3 -23 -20 -31 -23 -31 -12 0 9 -5 28 -10 42
-9 23 -13 25 -25 15 -8 -7 -15 -23 -15 -36 0 -26 -10 -30 -27 -13 -16 16 -33
2 -33 -26 0 -29 1 -28 -230 -55 -96 -11 -388 -48 -649 -80 -261 -33 -476 -58
-478 -56 -3 2 0 13 6 24 16 29 14 72 -3 72 -8 0 -28 -16 -45 -35 -17 -19 -32
-35 -35 -35 -2 0 -7 10 -10 23 l-6 22 -20 -24 c-11 -13 -20 -32 -20 -42 0 -27
-24 -34 -184 -54 -76 -9 -145 -19 -153 -22 -10 -4 -13 26 -13 164 l0 169 72
12 c82 12 119 35 133 80 7 25 17 34 45 42 74 20 134 112 135 207 l0 61 40 6
c200 28 721 50 758 32 16 -7 15 -3 -5 35 -45 87 -16 179 57 179 32 0 71 -22
93 -52 20 -28 37 -22 18 7 -9 13 -16 43 -16 65 0 82 83 125 161 84 17 -8 32
-14 34 -12 2 2 -1 22 -8 44 -8 33 -8 50 4 80 24 63 86 71 142 20 15 -14 27
-24 27 -23 1 1 2 25 4 54 8 128 115 183 207 105 l32 -27 -9 30 c-15 52 -11
121 10 144 26 29 73 35 126 17 24 -8 46 -14 47 -12 2 2 -6 24 -18 51 -17 38
-20 62 -17 116 3 61 7 73 34 100 42 41 95 48 158 20 29 -13 46 -16 42 -8 -36
87 -31 142 16 182 25 21 39 26 65 22 20 -4 31 -2 28 4 -4 5 -23 9 -44 9 -28 0
-45 -7 -65 -27 -32 -31 -39 -57 -34 -118 2 -25 1 -45 -2 -45 -3 0 -21 4 -40
10 -69 20 -139 -21 -173 -100 l-16 -35 5 45 c2 25 6 120 10 211 l6 167 37 6
c20 3 93 6 164 6 75 0 127 4 127 10 0 6 -61 7 -165 3 l-164 -6 -4 74 -3 74 -2
-72 c-2 -68 -4 -73 -24 -74 -13 -1 -96 -4 -186 -8 l-162 -6 -1 90 c-1 105 -16
81 -18 -27 l-1 -68 -97 0 -98 0 3 357 c1 197 4 376 5 398 l3 40 14 -32 c17
-39 29 -43 23 -9 -6 30 13 66 34 66 9 0 25 -7 35 -17 10 -9 20 -14 22 -12 2 2
-3 32 -12 67 -16 58 -15 66 1 129 21 81 50 129 89 149 58 30 104 -18 114 -119
9 -81 11 -85 40 -53 36 38 56 30 75 -28 l17 -50 16 32 c19 37 57 50 100 34 16
-7 31 -11 32 -9 1 1 -7 29 -18 62 -34 102 -3 194 57 167 25 -11 25 -11 25 32
0 67 47 98 85 56 10 -11 21 -20 24 -20 3 0 6 24 7 53 0 28 4 68 7 88 8 41 50
89 78 89 11 0 19 5 19 10 0 13 -6 13 -44 -5 -44 -21 -68 -66 -74 -142 -3 -45
-8 -61 -15 -54 -17 17 -62 13 -80 -7 -9 -10 -20 -33 -23 -50 -5 -24 -12 -32
-29 -32 -40 0 -60 -35 -60 -104 0 -33 4 -72 8 -86 8 -24 6 -25 -34 -25 -31 0
-46 -6 -60 -23 l-18 -23 -15 35 c-8 20 -21 37 -28 37 -26 3 -43 -3 -54 -17 -9
-11 -14 -2 -23 43 -20 103 -62 145 -126 129 -62 -16 -121 -153 -112 -263 5
-61 4 -63 -16 -57 -15 5 -27 -1 -43 -21 -21 -26 -22 -26 -32 -9 -5 11 -12 91
-15 179 -3 88 -13 198 -22 245 -60 319 -210 543 -437 654 -125 62 -190 77
-339 83 -113 5 -766 -11 -1554 -37 -159 -6 -307 -10 -327 -10 l-37 0 34 56
c63 104 81 270 50 459 -8 50 -15 108 -15 130 l1 40 14 -26 c26 -48 88 -44 121
7 22 33 22 109 1 151 -9 16 -32 44 -52 62 -44 39 -107 43 -149 10z m141 -31
c36 -34 53 -71 53 -120 0 -56 -22 -88 -60 -88 -33 0 -50 23 -50 68 0 56 49 66
69 14 l9 -27 1 26 c1 34 -20 51 -56 47 -61 -7 -78 -109 -47 -283 32 -178 -1
-378 -74 -457 -34 -35 -43 -39 -103 -45 -79 -7 -119 10 -143 61 -31 67 -12
142 44 171 56 29 120 8 120 -40 0 -29 -16 -41 -35 -25 -19 15 -55 9 -69 -12
-15 -25 4 -70 36 -86 22 -10 33 -10 61 2 114 47 152 277 87 527 -35 136 -23
244 31 283 32 23 93 15 126 -16z m1603 -856 c0 -21 -44 -85 -84 -121 -25 -24
-27 -24 -98 -11 -40 7 -112 25 -160 41 -88 28 -183 79 -162 86 7 2 119 8 250
12 132 4 242 9 247 9 4 1 7 -6 7 -16z m334 -45 c61 -31 133 -76 161 -100 l50
-44 -33 -28 c-59 -50 -75 -95 -80 -230 -5 -143 -11 -155 -84 -155 -27 0 -62
-7 -77 -15 -30 -15 -61 -76 -61 -120 0 -22 -4 -25 -37 -25 -21 0 -55 -3 -76
-7 l-39 -6 30 54 c38 68 46 107 32 158 -14 54 -47 90 -140 156 -92 65 -136 85
-185 85 -76 0 -127 -49 -170 -167 -30 -80 -43 -95 -123 -138 -75 -40 -97 -72
-97 -140 0 -51 -1 -54 -29 -59 -16 -3 -43 -6 -61 -6 -60 0 -65 -6 -65 -74 l0
-62 -38 4 c-33 3 -42 -1 -65 -27 -68 -82 -32 -216 69 -253 l34 -12 0 -89 c0
-101 9 -99 -88 -18 -68 57 -108 115 -126 183 -24 94 -8 149 106 363 41 76 43
84 43 165 0 73 -4 92 -28 138 -16 30 -46 73 -68 96 -77 85 -237 144 -350 132
l-57 -7 -41 50 c-52 62 -148 139 -221 177 l-55 29 103 3 103 3 40 -34 c57 -50
140 -91 261 -132 141 -47 155 -46 209 13 51 54 85 105 94 143 6 25 10 26 97
33 168 11 183 10 233 -28 50 -39 118 -66 232 -95 151 -37 147 -37 199 11 25
23 57 64 71 91 l25 50 95 -5 c91 -5 100 -8 207 -61z m-1174 15 c0 -26 -70
-132 -109 -164 -37 -32 -51 -31 -181 15 -127 44 -270 122 -270 147 0 5 75 11
173 13 94 1 220 4 280 5 98 2 107 0 107 -16z m1276 -13 c79 -30 194 -110 256
-179 98 -107 170 -259 214 -450 16 -66 18 -151 21 -734 2 -362 0 -663 -4 -667
-5 -5 -125 -25 -268 -44 -143 -20 -345 -49 -450 -65 -104 -16 -305 -45 -445
-65 -140 -19 -334 -46 -430 -60 -96 -13 -213 -29 -260 -35 -47 -6 -95 -13
-107 -15 -22 -5 -23 -2 -23 49 0 64 -25 55 225 86 88 12 273 36 410 55 138 19
383 53 545 74 502 68 707 98 719 105 14 9 15 1120 1 1221 -27 185 -110 388
-210 513 -59 72 -164 162 -248 210 -62 37 -42 37 54 1z m-2050 -29 c44 -21
105 -60 137 -85 129 -102 256 -306 321 -515 70 -225 69 -210 73 -986 l4 -701
-32 -7 c-17 -3 -43 -6 -58 -6 l-26 0 0 673 c0 663 0 673 -23 787 -78 382 -249
672 -482 814 -41 25 -83 47 -95 48 -17 1 41 12 86 16 9 1 52 -16 95 -38z
m-283 12 c14 -4 15 -7 5 -21 -11 -14 -10 -14 7 1 19 16 24 15 86 -11 59 -25
179 -97 179 -107 0 -2 -11 -21 -23 -42 -33 -52 -49 -82 -42 -82 2 0 19 25 36
55 17 30 34 55 38 55 4 0 24 -18 46 -40 l38 -39 -26 -50 c-15 -27 -27 -53 -27
-57 1 -5 12 12 26 39 13 26 29 47 34 47 5 0 17 -11 26 -25 14 -21 14 -28 3
-43 -12 -15 -12 -16 2 -4 25 19 46 -10 31 -43 -14 -31 -28 -31 -100 -1 -86 36
-224 77 -239 72 -7 -3 -13 -4 -13 -3 0 1 7 24 15 50 18 59 10 101 -23 127 -42
33 -88 24 -144 -28 l-28 -26 -23 22 c-52 49 -119 46 -154 -7 -30 -44 -29 -85
3 -149 27 -55 145 -172 173 -172 8 0 45 31 82 69 l67 68 -50 -141 c-74 -206
-99 -286 -93 -296 3 -5 21 -14 40 -20 19 -6 35 -16 35 -20 0 -19 -40 -30 -81
-24 -41 7 -41 7 -35 43 31 166 25 247 -22 294 -76 76 -208 15 -242 -113 l-10
-37 -40 19 c-51 26 -98 18 -144 -23 l-34 -30 13 58 c29 124 95 279 158 373 81
120 193 221 284 255 36 13 126 17 166 7z m-337 -103 c-167 -156 -274 -385
-313 -675 l-17 -121 -37 45 c-41 50 -41 43 -12 180 57 279 203 502 403 616 25
14 47 26 49 26 1 0 -31 -32 -73 -71z m-745 11 c4 -8 15 -49 24 -90 17 -70 17
-79 1 -132 -11 -38 -32 -75 -68 -117 -28 -34 -55 -61 -61 -61 -13 0 -2 41 34
128 17 40 28 81 25 90 -3 9 -28 42 -56 72 -28 30 -49 61 -48 69 4 20 88 62
117 59 13 -2 27 -10 32 -18z m-196 -40 c42 -26 135 -135 135 -157 -1 -24 -36
-88 -42 -77 -3 5 -15 41 -27 81 -29 98 -39 106 -115 98 -34 -4 -76 -15 -94
-26 -42 -24 -51 -7 -26 46 31 65 97 79 169 35z m1348 -18 c9 -8 17 -27 17 -41
0 -58 -92 -202 -158 -250 l-29 -20 -63 62 c-91 91 -120 155 -96 212 24 57 81
59 136 3 l32 -32 27 32 c48 58 92 69 134 34z m2461 -107 c-70 -43 -103 -100
-104 -176 0 -126 66 -200 211 -233 34 -8 67 -20 73 -26 7 -7 12 -88 15 -228
l3 -217 -46 -13 c-60 -16 -129 -79 -152 -138 -33 -88 -1 -165 89 -211 29 -14
64 -34 80 -45 l27 -19 0 -130 c0 -83 -4 -129 -10 -129 -21 0 -60 -49 -60 -74
0 -30 6 -28 -178 -52 -78 -10 -136 -13 -141 -8 -5 5 -16 33 -26 62 -31 97
-103 152 -178 137 -57 -12 -104 -52 -166 -143 -92 -135 -81 -129 -274 -155
-92 -13 -170 -21 -172 -18 -3 2 -5 20 -5 40 0 44 -48 131 -89 160 -18 13 -45
21 -71 21 -58 0 -106 -49 -115 -118 -21 -153 -19 -151 -221 -177 -93 -13 -173
-20 -177 -18 -4 3 -7 134 -5 291 l3 287 23 -3 c12 -2 38 2 57 8 93 31 62 140
-40 140 l-45 0 0 66 c0 36 3 64 8 62 4 -2 32 -16 63 -30 67 -32 114 -70 136
-111 21 -42 21 -118 -1 -152 -17 -26 -126 -85 -158 -85 -9 0 -20 -5 -23 -10
-23 -37 166 49 190 86 40 62 25 162 -33 217 -15 15 -55 40 -88 56 -96 47 -94
41 -95 209 0 81 -4 179 -8 217 -8 65 -7 71 13 85 11 8 40 33 62 56 101 102
100 292 -2 354 -44 28 -125 31 -172 8 l-32 -17 -22 42 c-11 23 -36 66 -55 96
l-34 53 98 -4 c84 -3 108 -8 165 -35 85 -40 146 -97 189 -175 30 -56 34 -72
34 -138 0 -68 -4 -82 -39 -150 -22 -41 -54 -104 -73 -140 -90 -175 -57 -310
112 -449 l75 -62 0 -129 0 -129 -32 -36 c-17 -20 -48 -45 -68 -55 -88 -45
-136 -111 -147 -199 -11 -91 41 -154 129 -155 80 -1 132 52 149 154 6 36 13
75 15 87 7 36 43 51 159 68 150 21 155 20 155 -10 0 -32 25 -93 48 -118 51
-57 189 -81 259 -44 67 35 113 119 113 206 0 22 3 41 8 41 4 1 68 9 142 19
131 17 136 17 180 -1 61 -26 67 -32 91 -98 12 -32 34 -71 51 -87 26 -24 37
-28 89 -28 57 0 63 2 94 37 41 44 59 106 51 171 -7 66 -31 102 -101 157 -91
70 -93 79 -94 301 0 116 3 189 9 189 6 0 28 16 50 36 52 47 66 95 42 144 -15
32 -21 35 -60 35 l-42 0 0 46 c0 26 -3 61 -6 79 l-7 32 -153 -7 c-175 -8 -172
-10 -135 72 24 51 45 63 114 63 83 0 92 15 93 154 1 130 17 179 72 227 l36 32
48 -54 c41 -46 46 -55 32 -64z m-3790 49 c18 -17 21 -51 6 -74 -9 -13 -10 -13
-10 1 0 8 -13 28 -30 44 -16 15 -27 32 -24 37 8 13 41 9 58 -8z m-70 -10 c23
-9 20 -24 -4 -24 -35 0 -79 -29 -86 -55 -10 -41 12 -58 68 -53 26 3 48 1 48
-4 0 -11 -54 -34 -103 -43 -49 -9 -67 6 -67 57 0 91 70 150 144 122z m398
-129 c26 -47 30 -134 9 -182 -16 -40 -31 -43 -31 -5 0 29 -37 116 -69 160 -15
22 -17 39 -13 92 l5 65 39 -45 c22 -25 49 -63 60 -85z m-549 65 c-14 -34 -14
-47 -2 -101 11 -48 21 -67 48 -91 27 -24 31 -32 20 -39 -18 -11 -13 -12 -88
19 -89 37 -93 48 -48 114 20 29 37 61 37 70 0 30 19 68 34 68 12 0 12 -6 -1
-40z m195 2 c5 -33 -13 -49 -60 -57 -69 -12 -89 37 -29 70 39 22 85 15 89 -13z
m3894 -83 c42 -85 98 -250 98 -291 0 -14 -6 -14 -60 -2 -87 21 -111 32 -148
67 -34 33 -62 106 -62 161 0 17 9 49 19 71 19 43 76 98 95 92 6 -2 32 -46 58
-98z m-3832 63 c0 -9 8 -35 18 -56 15 -34 16 -46 6 -85 l-12 -46 -57 2 c-86 3
-98 34 -40 99 20 21 43 55 53 75 17 37 32 42 32 11z m3026 -13 c82 -50 162
-116 185 -152 31 -49 23 -143 -17 -199 -25 -37 -37 -44 -78 -51 -26 -4 -80 -7
-119 -5 l-71 3 -30 48 c-36 59 -45 130 -22 176 36 68 124 91 187 48 47 -32 64
-69 47 -104 -28 -56 -103 -45 -103 15 0 29 -1 31 -12 15 -18 -24 -16 -30 12
-58 31 -32 69 -32 102 1 21 21 24 32 20 61 -20 118 -206 142 -262 34 -30 -60
-13 -165 37 -218 12 -13 20 -25 17 -27 -2 -2 -32 -6 -66 -10 -61 -7 -61 -7
-85 26 -17 24 -23 46 -23 85 0 28 -4 49 -9 46 -15 -10 -1 -111 19 -133 10 -11
16 -23 12 -26 -8 -8 -219 -25 -226 -18 -3 3 -6 26 -5 50 1 58 26 91 96 129 79
43 83 47 123 143 36 86 72 136 110 153 36 16 103 3 161 -32z m-1501 -69 c222
-84 210 -77 234 -127 12 -25 20 -47 18 -49 -2 -2 -48 5 -103 16 -98 21 -185
21 -225 -1 -12 -6 -22 0 -38 22 -29 39 -91 169 -91 191 0 16 4 16 53 2 28 -9
97 -33 152 -54z m-174 -122 c-56 -17 -83 -78 -63 -144 l10 -35 -58 -29 c-32
-16 -61 -34 -65 -40 -10 -16 -1 -13 65 25 35 20 64 34 65 33 6 -7 25 -47 25
-52 0 -3 -20 -17 -44 -31 -41 -24 -48 -25 -85 -14 -36 11 -39 14 -36 43 2 17
33 112 69 210 36 99 66 182 66 185 0 3 17 -28 38 -69 l37 -75 -24 -7z m-1107
8 c9 -26 16 -58 16 -72 0 -30 -26 -84 -41 -84 -5 0 -35 19 -65 42 l-55 41 24
26 c14 14 33 39 43 55 l18 29 -29 -7 c-17 -4 -41 -10 -53 -13 -21 -5 -17 3 25
55 l48 60 27 -42 c14 -24 33 -64 42 -90z m1462 92 c9 -16 11 -28 6 -24 -5 3
-21 10 -36 16 -23 8 -25 12 -14 29 14 24 23 20 44 -21z m-1838 -18 c-10 -16
-10 -24 0 -40 17 -27 16 -30 -13 -30 -23 0 -95 53 -95 70 0 5 21 11 48 13 26
2 53 4 60 5 10 2 10 -2 0 -18z m2242 -9 c73 -38 99 -140 64 -246 -18 -52 -104
-150 -125 -143 -7 2 -18 31 -25 64 -16 77 -17 84 -1 84 32 0 61 52 58 103 -1
23 -36 57 -58 57 -12 0 -7 -7 15 -20 26 -16 32 -26 32 -55 0 -36 -28 -75 -54
-75 -8 0 -18 14 -21 32 -4 18 -20 64 -36 102 -16 39 -29 76 -29 83 0 33 126
43 180 14z m-1998 -93 l-42 -43 -129 -5 c-115 -4 -133 -8 -160 -28 -38 -28
-38 -23 -5 29 35 57 71 69 206 70 62 1 124 5 138 9 14 4 27 8 30 9 3 1 -14
-18 -38 -41z m261 10 c-10 -57 -32 -88 -63 -95 -17 -3 -30 -7 -30 -8 0 -6 60
-73 152 -172 109 -116 166 -192 240 -320 62 -108 188 -357 188 -373 0 -27 -24
11 -113 178 -145 273 -147 275 -233 387 -76 100 -177 189 -243 217 l-51 21 25
29 c14 16 25 35 25 43 0 7 15 26 34 43 19 16 42 41 51 56 23 34 26 33 18 -6z
m-662 7 c24 -9 50 -17 57 -20 9 -3 7 -13 -8 -37 -18 -30 -27 -78 -15 -78 3 0
19 10 35 22 l29 21 41 -37 c23 -21 63 -51 88 -67 46 -29 46 -29 16 -29 -17 0
-64 9 -105 20 -41 11 -89 20 -107 20 -25 0 -43 9 -68 34 -29 29 -34 41 -34 81
0 40 13 85 24 85 2 0 23 -7 47 -15z m1338 -14 c29 -29 44 -97 37 -164 -6 -56
-37 -192 -55 -240 -9 -23 -198 -167 -219 -167 -19 0 -131 119 -161 172 -55 96
-51 191 10 242 49 42 121 29 163 -29 12 -17 14 -15 21 26 11 64 51 137 88 159
41 26 91 26 116 1z m352 -30 c21 -28 22 -28 49 -13 16 9 32 14 35 10 4 -3 2
-33 -5 -65 -17 -88 -20 -95 -36 -89 -9 3 -31 -1 -51 -9 -43 -18 -50 -14 -74
39 -21 47 -24 88 -8 119 25 46 59 49 90 8z m286 -102 c175 -132 159 -117 167
-153 l7 -28 -28 22 c-21 16 -35 20 -60 15 -20 -4 -33 -2 -33 5 0 37 -76 63
-119 40 -23 -12 -45 -64 -38 -90 5 -18 -16 -40 -37 -40 -3 0 -21 30 -40 68
l-34 67 23 92 c21 86 31 113 40 113 2 0 71 -50 152 -111z m8 81 c54 -10 99
-20 100 -22 4 -5 44 -142 42 -144 -2 -2 -234 170 -246 182 -7 6 1 5 104 -16z
m-1551 -42 c28 -23 55 -45 59 -49 5 -4 -11 -19 -35 -33 -84 -49 -202 -22 -302
69 l-40 35 110 -1 c67 -2 118 2 130 9 25 15 20 17 78 -30z m52 -133 c-17 -26
-54 -48 -98 -59 -23 -5 -17 4 39 56 54 50 68 59 71 45 2 -10 -4 -29 -12 -42z
m3444 -414 l0 -469 -57 -6 c-32 -4 -139 -18 -238 -31 -99 -13 -306 -40 -460
-60 -154 -20 -327 -43 -384 -51 -57 -8 -105 -13 -107 -12 -7 7 -8 998 -1 998
10 0 406 32 872 70 187 15 348 28 358 29 16 1 17 -27 17 -468z m-2230 275
c-11 -80 -20 -151 -20 -157 0 -6 -12 -1 -26 10 -38 30 -80 27 -115 -8 -16 -16
-29 -38 -29 -49 0 -17 -6 -19 -50 -14 -44 4 -52 2 -80 -26 -22 -23 -30 -40
-30 -66 0 -20 -4 -36 -9 -36 -5 0 -65 14 -134 30 -69 17 -132 30 -139 29 -25
-1 33 -19 158 -48 108 -26 130 -34 164 -65 21 -19 57 -40 79 -47 47 -14 47
-12 26 -129 -8 -47 -15 -104 -15 -127 0 -24 -2 -43 -4 -43 -8 0 -200 191 -277
275 -121 131 -152 172 -142 189 9 16 44 41 338 239 251 168 319 210 323 198 2
-5 -6 -75 -18 -155z m134 -62 c53 -108 96 -198 96 -200 0 -2 -20 -4 -44 -4
-34 0 -50 -6 -72 -28 -16 -15 -34 -36 -39 -46 -8 -14 -17 -16 -46 -11 l-36 7
-1 86 c0 48 6 128 13 177 8 50 17 118 20 153 4 34 8 62 10 62 2 0 47 -88 99
-196z m170 151 c6 -16 11 -32 12 -33 2 -2 18 2 38 9 31 11 38 11 56 -6 44 -39
16 -89 -82 -146 -66 -39 -70 -40 -83 -22 -43 56 -60 180 -29 214 28 31 76 22
88 -16z m-1067 -166 c17 -24 56 -68 87 -97 l56 -53 -28 -24 c-15 -13 -30 -25
-33 -25 -3 0 -16 19 -29 43 -12 23 -46 78 -75 122 -47 72 -51 84 -47 124 l4
45 18 -46 c9 -24 31 -65 47 -89z m3095 104 c40 -36 11 -129 -51 -166 l-31 -18
0 94 c0 51 3 97 7 100 12 13 56 7 75 -10z m-2618 -2 c18 -7 16 -10 -19 -34
-21 -15 -40 -25 -42 -23 -2 1 2 17 8 34 11 33 20 36 53 23z m760 -149 l6 -87
-34 72 -34 71 22 44 21 44 6 -29 c4 -16 10 -67 13 -115z m-289 106 c17 -54 48
-117 61 -122 16 -6 77 18 117 46 16 12 32 17 37 12 16 -17 80 -183 80 -208 0
-22 -5 -26 -28 -26 -15 0 -43 -8 -62 -17 -72 -37 -80 -29 -186 181 -50 100
-62 131 -53 142 16 20 27 17 34 -8z m-1957 -55 c80 -109 95 -139 96 -197 0
-39 -6 -63 -27 -98 -15 -26 -31 -49 -35 -52 -4 -2 -4 25 2 60 8 57 7 74 -12
133 -34 105 -92 150 -136 106 -18 -19 -66 -10 -66 12 0 23 28 71 52 87 46 32
72 21 126 -51z m908 -30 c-2 -2 -17 2 -34 8 -27 9 -32 16 -32 42 l1 32 34 -40
c18 -22 33 -41 31 -42z m1808 71 c13 -5 16 -27 16 -135 0 -71 -3 -129 -7 -129
-13 0 -77 42 -90 59 -25 31 -34 89 -23 132 18 65 56 91 104 73z m-2514 -46
c39 -16 96 -76 111 -115 5 -13 9 -40 9 -60 l0 -36 -42 45 c-48 51 -104 82
-164 92 -34 6 -47 15 -73 51 -17 24 -31 45 -31 47 0 9 159 -11 190 -24z m709
-57 c17 -12 40 -35 51 -51 l21 -29 -33 14 c-19 7 -63 16 -98 19 l-65 5 65 -14
c36 -7 79 -19 95 -25 29 -11 29 -12 10 -26 -49 -36 -115 -39 -180 -6 -30 14
-95 71 -95 82 0 6 68 39 110 54 28 10 89 -2 119 -23z m-945 -11 c45 -54 65
-151 50 -242 -6 -33 -10 -38 -33 -38 -15 0 -35 6 -44 13 -15 11 -14 16 4 67
28 81 28 126 -3 156 l-25 25 0 -30 c0 -42 -9 -48 -32 -20 l-19 24 -29 -21
c-48 -36 -47 -110 2 -132 29 -13 33 -9 73 78 28 60 30 63 37 39 12 -48 -12
-107 -55 -135 -42 -28 -100 -34 -125 -14 -18 15 -19 63 -3 93 6 12 12 41 13
63 1 70 37 89 110 59 17 -8 18 -7 7 7 -11 14 -10 18 5 27 28 16 39 13 67 -19z
m1751 -25 c21 -20 25 -34 25 -87 0 -62 -23 -175 -39 -191 -10 -10 -155 20
-192 39 -72 37 -89 106 -39 156 31 30 50 33 101 13 12 -5 18 1 24 22 9 38 44
73 72 73 13 0 35 -11 48 -25z m-1530 -21 c42 -20 114 -92 121 -121 16 -60 -31
-117 -134 -166 -35 -16 -83 -32 -108 -35 -41 -4 -44 -3 -44 20 0 13 21 55 46
93 45 68 46 72 41 135 -2 36 -8 74 -12 84 -8 17 -5 19 24 13 18 -4 48 -14 66
-23z m229 -43 c-7 -33 -53 -91 -73 -91 -21 0 -11 26 20 56 17 16 35 40 40 53
13 32 21 21 13 -18z m-535 6 c12 -15 1 -68 -20 -93 -18 -22 -39 2 -39 47 0 26
6 41 18 48 23 14 28 13 41 -2z m745 -48 c14 -17 26 -34 26 -39 0 -5 3 -16 6
-25 5 -13 2 -15 -20 -9 -20 5 -33 1 -51 -16 -19 -18 -31 -21 -58 -16 -33 6
-34 8 -27 39 21 94 76 124 124 66z m464 -147 c39 -75 72 -137 72 -138 0 -1
-10 -4 -22 -8 -15 -3 -55 8 -110 31 -99 42 -98 40 -98 177 0 78 1 82 28 98 34
22 30 26 130 -160z m3222 105 l0 -53 -36 4 c-49 6 -84 -27 -84 -79 0 -46 36
-79 86 -79 l34 0 0 -65 0 -65 -62 31 c-80 40 -116 73 -128 121 -25 92 50 204
154 228 17 5 32 8 34 9 1 1 2 -23 2 -52z m-3390 -72 c0 -58 -2 -105 -4 -105
-2 0 -20 7 -40 15 l-36 15 0 84 c0 93 -5 86 68 95 9 1 12 -26 12 -104z m1089
84 c26 -24 51 -78 51 -109 0 -28 5 -26 57 20 44 38 100 59 122 45 7 -3 11 -44
11 -98 l0 -91 -55 -56 -56 -56 -97 17 c-53 10 -111 18 -128 19 -46 0 -57 21
-62 116 -3 64 0 95 13 129 30 79 96 108 144 64z m-1231 -5 c19 -13 22 -24 22
-80 0 -63 -1 -65 -22 -59 -13 4 -41 24 -63 44 -22 20 -41 37 -44 38 -9 5 32
55 52 63 30 12 30 12 55 -6z m-389 -48 c21 -14 65 -29 106 -36 130 -22 395
-104 560 -174 33 -14 37 -19 24 -27 -12 -6 -33 -2 -70 15 -194 85 -548 180
-634 170 -56 -7 -68 4 -53 44 15 38 21 39 67 8z m790 -45 c34 -43 51 -74 51
-93 0 -15 -3 -28 -7 -28 -7 0 -92 153 -102 184 -5 15 -1 11 58 -63z m-754 49
c3 -5 1 -10 -4 -10 -6 0 -11 5 -11 10 0 6 2 10 4 10 3 0 8 -4 11 -10z m1378
-10 c21 0 22 -4 22 -99 0 -97 -1 -100 -26 -115 -19 -11 -50 -15 -123 -13 l-97
2 6 45 c12 84 11 83 71 76 51 -6 54 -5 68 21 7 16 17 43 21 61 5 24 11 32 22
28 8 -3 24 -6 36 -6z m-1889 -24 c-7 -29 17 -46 68 -46 31 -1 32 -1 13 -16
-54 -40 -162 -37 -197 7 -28 34 -22 45 20 41 24 -2 47 4 67 17 17 11 31 20 33
20 1 1 0 -10 -4 -23z m730 18 c9 -3 16 -13 16 -21 0 -8 4 -11 10 -8 12 7 50
-12 50 -26 0 -6 -6 -6 -17 -1 -10 5 -42 15 -71 22 -43 10 -51 15 -41 26 12 15
28 17 53 8z m1456 -4 c0 -5 -4 -10 -10 -10 -5 0 -10 5 -10 10 0 6 5 10 10 10
6 0 10 -4 10 -10z m2205 -70 c0 -62 -1 -65 -26 -68 -36 -4 -79 32 -79 68 0 36
43 72 79 68 25 -3 26 -6 26 -68z m-3977 -9 c2 -18 0 -40 -4 -49 -5 -13 -9 -10
-15 13 -4 17 -11 41 -15 54 -6 19 -4 22 12 19 13 -2 20 -13 22 -37z m-62 -19
c-33 -64 -99 -95 -256 -122 -71 -12 -127 -17 -132 -12 -5 5 -8 31 -6 58 3 49
3 49 43 55 22 3 50 10 62 17 29 16 29 16 28 -15 0 -21 6 -28 28 -34 35 -9 133
19 192 56 51 32 59 31 41 -3z m1158 -214 c-4 -7 -25 -34 -47 -60 l-40 -47 -38
54 c-61 87 -62 90 -54 173 l7 75 90 -91 c58 -60 87 -96 82 -104z m-621 157
c11 -5 9 -16 -11 -58 -44 -95 -103 -136 -212 -149 -23 -3 -25 0 -22 32 7 82
55 151 118 170 34 10 106 12 127 5z m92 -27 c23 -10 25 -16 25 -72 0 -59 -2
-62 -35 -83 -19 -13 -37 -23 -40 -23 -3 0 -5 43 -5 95 0 103 3 107 55 83z
m1634 -34 c26 -33 26 -49 0 -75 -15 -15 -30 -19 -62 -17 -42 3 -42 3 -45 47
-5 62 1 71 47 71 31 0 44 -6 60 -26z m-1526 -6 c36 -13 32 -23 -21 -54 l-42
-25 0 52 c0 45 2 50 18 44 9 -4 30 -12 45 -17z m180 -5 c18 -35 28 -159 20
-235 -6 -56 -6 -57 -27 -43 -11 8 -32 15 -45 15 -27 0 -71 -35 -71 -57 0 -8
-12 -13 -32 -13 -37 0 -68 -25 -68 -55 0 -12 -2 -24 -5 -27 -5 -5 -204 55
-270 82 l-30 12 50 44 c64 57 289 211 386 263 41 23 75 41 76 41 1 0 9 -12 16
-27z m657 7 c0 -5 -4 -10 -10 -10 -5 0 -10 5 -10 10 0 6 5 10 10 10 6 0 10 -4
10 -10z m410 -34 c0 -41 -2 -44 -22 -39 -52 11 -52 13 -18 48 19 19 35 35 37
35 2 0 3 -20 3 -44z m1888 -64 c33 -26 45 -45 58 -89 39 -133 -43 -253 -156
-228 -41 9 -71 43 -100 116 -21 53 -31 66 -68 85 l-43 23 33 5 c18 3 60 10 92
16 33 5 61 10 63 10 2 0 3 38 3 85 l0 86 38 -38 c21 -21 57 -53 80 -71z
m-3800 66 c73 -22 132 -103 131 -183 l0 -40 -71 75 c-39 41 -61 59 -48 40 13
-19 41 -54 64 -77 38 -41 39 -43 16 -43 -14 0 -47 13 -75 28 -60 33 -94 88
-102 167 l-6 56 29 -6 c16 -4 44 -11 62 -17z m1437 7 c230 -27 475 -71 475
-86 0 -9 -202 -181 -221 -187 -5 -2 -9 5 -9 16 0 32 -38 72 -69 72 -15 0 -33
-6 -39 -12 -10 -10 -17 -10 -32 0 -31 19 -77 15 -93 -9 -14 -19 -18 -16 -102
90 -48 61 -89 111 -92 111 -9 0 33 -61 103 -149 60 -74 74 -99 74 -126 0 -19
5 -46 12 -61 12 -25 9 -29 -87 -120 -55 -51 -108 -93 -117 -94 -16 0 -17 19
-12 253 3 138 10 267 16 285 11 38 10 38 193 17z m-2252 -15 c28 -13 53 -36
74 -69 81 -123 99 -184 70 -240 -27 -55 -51 -24 -62 84 -9 81 -22 130 -40 145
-13 11 -13 7 0 -31 11 -29 12 -46 5 -53 -7 -7 -10 -6 -10 2 0 6 -14 27 -31 47
-38 43 -69 45 -99 8 -25 -31 -38 -23 -47 30 -5 31 -1 40 25 67 36 35 57 37
115 10z m182 -25 c94 -54 120 -77 134 -118 10 -28 10 -29 -6 -15 -34 29 -79
47 -142 54 -54 6 -64 10 -76 34 -8 15 -25 38 -39 51 -35 32 -33 39 12 39 26 0
61 -14 117 -45z m1726 -279 l82 -87 -44 -45 c-48 -49 -59 -53 -59 -24 0 58
-63 122 -139 140 -27 6 -51 17 -53 23 -2 7 -2 70 0 141 l3 128 64 -94 c36 -52
101 -134 146 -182z m118 107 l1 -53 -68 0 c-68 0 -69 0 -101 40 l-32 40 46 60
47 60 53 -47 c52 -46 54 -50 54 -100z m-2019 57 c15 -21 20 -39 16 -56 l-7
-25 -33 26 c-35 27 -79 33 -95 13 -57 -69 -65 -84 -67 -118 -1 -21 -9 -48 -18
-61 -9 -13 -16 -37 -16 -54 -1 -29 -1 -29 -15 -11 -23 30 -18 84 11 133 17 30
24 53 20 68 -8 33 13 74 41 81 12 3 37 1 54 -5 42 -14 41 -14 27 10 -11 17
-10 22 6 34 23 18 46 7 76 -35z m2715 -327 l-6 -53 -52 1 -52 0 -77 88 -76 89
21 30 c12 17 68 67 124 112 56 44 106 86 110 93 10 15 16 -289 8 -360z m-2464
320 c40 -21 59 -38 73 -67 25 -52 25 -144 -1 -188 -23 -41 -111 -88 -164 -88
-37 0 -37 0 -29 30 5 17 5 43 0 61 -7 24 -4 39 16 76 30 58 30 84 -1 151 l-24
52 38 0 c21 0 61 -12 92 -27z m129 -63 c-13 -25 -35 -27 -27 -2 4 9 12 34 19
55 l13 39 3 -36 c2 -19 -2 -44 -8 -56z m2822 -20 c3 -53 5 -55 31 -53 25 2 26
1 12 -21 -8 -12 -19 -54 -24 -93 -15 -120 -53 -163 -144 -163 -85 0 -131 73
-107 169 16 63 49 104 131 157 38 25 75 56 81 68 14 24 16 19 20 -64z m-3246
28 c8 -13 -6 -88 -17 -88 -5 0 -9 6 -9 13 0 7 -14 27 -30 44 -27 28 -29 33
-14 41 18 10 61 4 70 -10z m99 -49 c-3 -8 11 -48 31 -88 42 -86 41 -114 -4
-193 l-29 -50 -7 65 c-4 36 -14 90 -22 119 -18 71 -18 137 2 184 l17 39 8 -30
c5 -16 6 -37 4 -46z m2286 50 c19 -19 22 -19 38 -5 25 23 68 20 82 -5 20 -38
2 -87 -57 -147 l-54 -56 -29 28 c-58 56 -80 148 -44 188 21 23 38 23 64 -3z
m1629 -22 c0 -58 -28 -131 -62 -164 -42 -40 -76 -53 -141 -53 -109 1 -197 75
-197 165 0 30 3 32 79 41 62 7 63 6 52 -14 -29 -54 9 -122 67 -122 38 0 82 43
81 79 0 24 -1 23 -12 -9 -16 -47 -60 -69 -96 -49 -36 21 -49 63 -30 97 14 25
23 28 129 43 63 9 118 17 123 18 4 0 7 -14 7 -32z m-3978 -54 c-3 -43 3 -82
24 -155 4 -15 -1 -18 -29 -18 -19 0 -44 8 -56 18 l-22 17 21 40 c11 22 26 66
32 97 15 71 34 71 30 1z m-78 -5 c16 -40 17 -51 6 -77 -20 -49 -33 -38 -27 22
5 43 5 48 -5 27 -9 -21 -12 -22 -15 -7 -3 10 1 25 8 33 6 8 9 18 5 21 -13 13
-27 -22 -22 -54 5 -35 -2 -41 -22 -21 -28 28 1 113 36 106 9 -2 25 -24 36 -50z
m756 33 c118 1 235 2 260 2 132 2 192 -3 187 -15 -3 -10 -76 -13 -318 -13
-302 0 -315 -1 -349 -22 -19 -11 -47 -23 -61 -27 -26 -6 -27 -4 -31 40 l-3 46
50 -7 c27 -3 147 -5 265 -4z m970 -21 c11 -11 20 -25 20 -31 0 -6 -9 -8 -20
-4 -17 6 -20 2 -20 -29 0 -20 9 -59 20 -88 11 -28 17 -54 14 -57 -11 -11 -104
-2 -133 13 -92 48 -93 174 -1 139 29 -11 30 -10 30 15 0 31 26 62 52 62 10 0
27 -9 38 -20z m2650 -6 c17 -15 37 -39 45 -54 15 -29 46 -113 42 -116 -1 -1
-23 -5 -49 -8 -44 -7 -48 -5 -48 13 0 117 -154 117 -169 0 l-6 -44 -80 -11
c-44 -6 -82 -10 -84 -8 -3 3 11 21 30 42 19 20 52 63 72 95 51 79 106 117 168
117 37 0 55 -6 79 -26z m-2317 0 l37 -7 0 -81 c0 -51 -5 -87 -12 -94 -15 -15
-31 -16 -22 0 4 7 3 8 -4 4 -18 -11 -14 3 8 26 25 27 26 64 2 77 -27 14 -76
81 -60 81 7 0 30 -3 51 -6z m-1377 -47 c-43 -41 -56 -73 -56 -141 l0 -53 -46
-7 c-68 -9 -104 -7 -104 5 0 5 4 8 9 4 10 -6 17 10 26 65 4 24 0 46 -13 72
l-19 36 41 18 c44 19 98 30 159 32 l38 2 -35 -33z m154 26 c-8 -3 -25 -15 -38
-26 -28 -26 -86 -116 -80 -123 3 -3 17 14 31 38 14 24 38 56 54 71 l30 28 -5
-58 c-6 -80 -37 -132 -100 -166 -70 -38 -78 -36 -86 23 -16 123 58 220 169
219 22 0 33 -3 25 -6z m270 1 l95 -7 33 -56 c19 -31 36 -69 39 -86 l5 -30 -92
1 c-78 2 -95 5 -114 23 -26 25 -64 27 -132 6 -27 -8 -50 -15 -51 -15 -2 0 -3
24 -3 54 0 30 -4 58 -10 61 -6 4 -8 -15 -4 -54 6 -53 4 -63 -17 -90 -13 -16
-32 -30 -41 -30 -23 -1 -23 4 4 40 16 21 23 48 26 97 2 37 9 73 14 80 12 14
98 16 248 6z m265 -65 c61 -21 118 -38 128 -39 9 0 17 -4 17 -10 0 -5 18 -28
39 -49 39 -39 39 -40 34 -100 l-6 -60 -52 -6 c-87 -11 -93 -6 -87 75 5 75 -6
90 -26 38 l-13 -33 -21 39 c-15 29 -22 35 -28 25 -5 -7 -10 -11 -12 -9 -11 14
-106 157 -113 169 -7 11 -4 13 11 6 10 -5 69 -26 129 -46z m3495 12 c0 -38
-11 -51 -46 -51 -21 0 -17 33 7 64 28 36 39 33 39 -13z m-3078 18 c80 -17 133
-51 152 -99 9 -22 16 -49 16 -59 0 -11 12 -29 26 -40 15 -12 22 -21 17 -21
-19 0 -110 64 -162 113 -29 29 -48 42 -42 31 15 -30 98 -102 144 -126 22 -11
37 -22 34 -24 -11 -11 -129 25 -161 49 -39 30 -86 117 -86 159 0 15 2 28 5 28
2 0 28 -5 57 -11z m-1292 -90 c0 -36 -9 -36 -37 -1 -15 20 -19 36 -16 57 l6
29 24 -28 c13 -15 23 -40 23 -57z m3071 54 c57 -48 106 -193 65 -193 -7 0 -28
-3 -45 -6 -29 -6 -31 -5 -31 23 0 39 -26 73 -56 73 -37 0 -64 -33 -64 -79 0
-37 -2 -39 -37 -44 -44 -7 -48 -5 -35 20 6 10 16 47 22 83 6 35 18 76 26 91
32 64 101 77 155 32z m2006 -184 c-3 -116 -7 -212 -9 -214 -2 -2 -83 -7 -181
-11 l-177 -7 0 149 c0 82 3 179 6 216 l7 67 71 4 c39 1 120 4 180 5 l109 2 -6
-211z m-5624 184 c9 -3 20 -16 23 -28 8 -30 42 -61 78 -69 l30 -7 -50 -30
c-85 -50 -135 -34 -150 48 -9 45 13 106 35 98 9 -4 24 -10 34 -12z m2657 -72
c37 -44 58 -77 51 -79 -26 -9 -100 10 -132 33 -41 31 -43 31 -36 -4 l6 -29
-112 -6 c-62 -4 -134 -9 -162 -12 l-50 -6 35 37 c19 20 61 60 93 87 l58 51 34
-33 c32 -31 37 -33 59 -20 14 7 37 26 52 41 16 16 31 26 34 22 4 -5 35 -42 70
-82z m2588 -126 c-3 -119 -7 -217 -9 -219 -2 -2 -73 -6 -157 -10 l-153 -6 3
127 3 128 47 6 c26 4 52 10 57 14 6 3 11 41 11 85 l0 79 33 4 c17 2 63 5 101
5 l69 2 -5 -215z m-854 163 c23 -53 14 -61 -81 -73 l-53 -7 0 32 c0 44 38 80
85 80 31 0 38 -4 49 -32z m-3881 -61 c12 -50 4 -67 -33 -67 -29 0 -30 1 -16
23 9 12 16 37 18 55 3 42 20 36 31 -11z m-53 -11 c-17 -51 -62 -81 -150 -99
-41 -9 -83 -19 -93 -23 -15 -5 -13 1 9 39 26 42 30 45 79 50 55 6 122 34 145
62 19 23 24 11 10 -29z m658 2 c43 -47 140 -224 128 -235 -9 -9 -86 74 -86 93
0 17 -52 57 -59 45 -4 -6 -26 -5 -59 1 -37 8 -64 8 -87 1 -30 -10 -35 -9 -41
9 -14 45 3 66 69 87 82 26 109 26 135 -1z m258 -35 c-7 -7 -36 23 -36 38 0 7
9 3 21 -10 12 -12 19 -25 15 -28z m-1203 -39 l5 -62 -62 -26 c-33 -14 -64 -26
-68 -26 -11 0 -10 92 1 108 12 20 105 81 112 74 4 -4 9 -35 12 -68z m1972 57
c-2 -9 -4 -24 -4 -35 -1 -16 -6 -17 -38 -11 -56 10 -70 25 -44 46 27 22 90 22
86 0z m1437 -8 c22 -20 24 -69 2 -77 -9 -3 -32 -6 -51 -6 -35 0 -36 0 -30 36
10 62 42 81 79 47z m-2256 -12 c44 -20 84 -63 84 -92 0 -16 -2 -16 -31 -2 -18
9 -63 18 -101 21 -68 5 -70 6 -94 43 -13 21 -24 41 -24 44 0 14 129 3 166 -14z
m577 -53 c-2 -4 -20 -10 -41 -13 -66 -10 -156 -26 -179 -32 -22 -5 -23 -2 -23
50 l0 56 69 -6 c43 -4 71 -2 75 5 7 12 106 -48 99 -60z m835 29 c103 -4 133
-9 121 -22 -3 -2 -86 -7 -185 -10 -261 -9 -687 -38 -804 -55 -144 -21 -292
-59 -330 -85 -50 -35 -63 -32 -78 16 -17 54 -7 63 51 49 35 -7 63 -6 115 4
220 47 402 68 735 87 201 11 217 14 212 30 -6 17 -4 17 22 4 17 -9 72 -16 141
-18z m-1298 -20 c0 -10 -4 -15 -10 -12 -5 3 -10 18 -10 33 0 21 2 24 10 12 5
-8 10 -23 10 -33z m-544 -4 c6 -22 1 -31 -27 -54 -18 -15 -45 -50 -59 -79 -26
-55 -31 -58 -256 -156 -9 -4 -14 35 -19 133 -3 76 -7 145 -8 153 -2 12 14 16
76 18 75 3 77 2 87 -23 9 -25 11 -25 43 -11 18 7 47 21 63 29 16 9 44 16 61
17 27 0 34 -5 39 -27z m588 0 c-12 -54 -54 -98 -54 -57 0 12 49 84 58 84 1 0
0 -12 -4 -27z m-970 -45 c3 -35 7 -108 10 -163 l4 -100 -39 -27 c-37 -26 -46
-28 -203 -34 l-164 -7 -7 104 c-11 167 -10 170 57 197 31 12 91 29 132 37 41
7 86 19 98 26 19 10 52 20 100 28 3 0 9 -27 12 -61z m4396 -72 l0 -124 -107
-6 c-60 -3 -134 -8 -165 -10 l-58 -4 -10 36 c-8 32 -15 180 -7 183 7 2 315 47
330 48 15 1 17 -11 17 -123z m-4890 67 c0 -60 11 -77 43 -71 33 6 35 -5 38
-147 l2 -110 -172 -9 c-95 -4 -174 -7 -176 -4 -2 2 -5 87 -5 188 l-2 185 109
6 c59 3 120 6 136 7 26 2 27 0 27 -45z m1051 16 c36 -12 59 -34 59 -56 0 -20
-68 -16 -116 7 -39 19 -45 20 -77 6 -46 -19 -69 -64 -66 -125 1 -25 2 -64 1
-85 l-2 -39 -25 23 c-50 47 -42 148 18 217 52 59 128 78 208 52z m1539 -6
c-34 -22 -150 -141 -150 -154 0 -6 26 17 57 51 59 64 143 129 143 110 0 -7 6
-8 19 0 29 15 77 12 91 -5 7 -9 11 -17 9 -19 -2 -3 -32 -1 -67 3 -35 4 -65 4
-68 -1 -3 -4 -12 -30 -20 -57 -21 -71 -58 -109 -141 -148 -39 -18 -74 -33 -77
-33 -12 0 -5 103 9 137 27 65 65 94 155 119 61 17 70 16 40 -3z m230 3 c0 -22
-17 -28 -40 -16 -29 16 -25 30 10 30 19 0 30 -5 30 -14z m-1459 -29 c99 -41
92 -132 -20 -250 -63 -67 -67 -66 -63 19 3 54 0 80 -11 97 -8 12 -18 38 -22
57 -4 19 -16 49 -26 66 -10 17 -19 33 -19 36 0 9 127 -10 161 -25z m1086 4
l-46 -30 -118 17 c-65 9 -109 18 -98 20 31 4 226 19 269 21 l40 1 -47 -29z
m-1307 -28 c0 -6 17 -26 37 -45 88 -80 83 -71 82 -150 0 -40 -4 -93 -8 -118
l-7 -45 -16 31 c-10 17 -28 80 -42 140 -13 60 -36 135 -50 167 -14 32 -26 61
-26 64 0 12 29 -32 30 -44z m3390 0 l0 -48 -34 40 c-29 34 -32 41 -18 47 43
17 52 10 52 -39z m-2471 5 c-46 -36 -102 -108 -114 -148 -4 -14 11 2 32 35 39
59 104 125 124 125 6 0 7 -5 3 -12 -4 -6 -6 -33 -5 -60 2 -74 -14 -121 -60
-167 -43 -42 -146 -107 -156 -98 -3 3 -10 39 -15 79 -13 86 -1 141 39 188 35
43 115 80 186 89 5 1 -11 -14 -34 -31z m-111 -3 c-80 -42 -115 -115 -105 -221
3 -34 13 -79 21 -99 l16 -37 61 34 c84 45 155 115 168 166 6 22 9 64 6 94 -3
29 -2 58 2 64 6 9 43 5 138 -12 72 -13 131 -24 132 -24 1 0 -5 -16 -13 -35
-15 -37 -19 -141 -6 -149 5 -3 40 5 78 17 52 16 80 33 115 67 26 25 48 51 50
58 4 11 18 11 81 -2 43 -9 81 -16 85 -16 4 0 1 -4 -7 -9 -15 -9 -553 -212
-680 -257 -36 -12 -159 -57 -275 -99 -407 -148 -550 -180 -790 -179 -168 0
-282 16 -402 55 -77 25 -173 87 -192 123 -14 26 -13 28 30 72 33 34 80 64 188
116 l144 71 18 -24 c10 -13 16 -32 13 -41 -6 -21 20 -73 40 -81 8 -3 30 -31
50 -61 52 -82 99 -98 154 -51 l30 25 18 -28 c39 -61 71 -65 159 -23 68 32 95
58 99 93 1 14 14 40 29 59 33 43 57 100 57 134 0 48 50 23 80 -40 l18 -40 1
49 c1 50 -25 107 -56 124 -12 7 -10 12 12 26 16 11 30 14 34 9 36 -56 89 -113
104 -113 10 0 61 43 114 97 87 89 99 98 142 104 82 11 88 9 39 -16z m890 -70
c-2 -2 -48 5 -103 14 -95 16 -100 18 -100 41 l0 25 91 -4 c69 -2 94 0 100 10
6 9 10 -2 12 -35 2 -26 2 -49 0 -51z m1608 70 c14 -14 36 -49 49 -78 30 -63
34 -168 9 -242 -22 -64 -96 -141 -146 -150 -47 -9 -98 15 -123 58 -39 65 -15
187 41 208 21 7 21 5 16 -56 -4 -58 -3 -65 21 -89 33 -33 52 -33 87 2 40 40
55 103 42 170 -15 70 -43 107 -97 127 -60 23 -123 8 -218 -54 -169 -111 -320
-324 -420 -591 -93 -249 -92 -486 2 -534 57 -30 110 -17 136 34 19 37 19 80
-1 108 -17 25 -56 29 -74 7 -16 -20 -30 -10 -30 21 0 63 94 98 137 52 34 -38
43 -64 43 -126 0 -82 -31 -139 -91 -170 -87 -43 -183 -1 -234 102 -26 54 -27
58 -23 213 3 148 6 164 37 253 78 224 203 433 345 576 121 120 155 139 297
163 154 26 165 26 195 -4z m-3463 -6 c34 -19 55 -48 98 -136 37 -77 42 -83 70
-83 27 0 30 -3 27 -27 -2 -22 -11 -30 -53 -44 -27 -10 -52 -16 -53 -14 -6 6
22 75 30 75 4 0 8 5 8 10 0 6 -7 10 -15 10 -8 0 -19 -16 -25 -39 -16 -59 -45
-91 -85 -91 -19 0 -41 8 -51 17 -17 17 -16 18 19 24 41 7 72 30 94 72 13 26
13 33 -7 74 -25 54 -65 93 -95 93 -12 0 -34 -11 -49 -25 -33 -31 -36 -31 -36
-2 1 31 23 67 51 83 30 17 45 17 72 3z m757 -74 c-47 -47 -88 -85 -93 -85 -4
0 -7 30 -5 67 l3 68 80 16 c44 9 84 17 90 18 5 0 -28 -37 -75 -84z m-599 -5
c9 -25 19 -64 23 -88 11 -70 -22 -52 -64 35 -19 40 -41 78 -47 85 -21 20 -15
25 29 19 39 -6 44 -9 59 -51z m2879 33 c-19 -15 -59 -51 -89 -80 -30 -29 -56
-53 -58 -53 -2 0 -3 30 -1 68 l3 67 75 11 c108 16 108 16 70 -13z m-2398 -45
c2 -21 2 -38 -2 -38 -3 0 -18 18 -33 40 -21 29 -25 41 -15 44 48 15 44 19 50
-46z m2238 -32 l0 -73 -52 -7 c-29 -3 -92 -6 -139 -6 l-87 0 3 63 4 62 113 16
c174 26 158 31 158 -55z m498 38 c19 -13 52 -63 52 -78 0 -13 -71 -17 -85 -6
-9 8 -27 10 -47 6 -100 -21 -105 -20 -110 13 -3 20 1 36 11 45 41 35 141 47
179 20z m-3377 -6 c8 -7 21 -21 28 -30 11 -15 10 -16 -18 -5 -25 9 -33 8 -50
-8 -12 -10 -21 -30 -21 -45 0 -31 34 -80 56 -80 8 0 14 -4 14 -10 0 -20 -73
-11 -97 12 -34 31 -33 114 2 152 26 28 62 34 86 14z m533 -49 c33 -39 29 -45
-15 -22 -40 21 -49 31 -49 56 0 24 28 9 64 -34z m2036 29 c0 -12 -17 -40 -37
-63 l-38 -40 38 35 39 35 -7 -260 c-12 -520 -10 -1908 4 -2268 l13 -348 -22
-24 c-26 -28 -61 -136 -125 -390 -26 -104 -49 -191 -49 -192 -1 -1 -24 4 -52
12 -27 8 -61 17 -75 19 -21 5 -26 12 -27 38 -5 93 -2 218 12 463 9 149 18 374
21 500 7 261 10 291 30 299 21 8 51 -25 60 -63 8 -39 21 -40 30 -2 3 16 17 38
30 51 19 18 27 20 44 11 70 -38 45 -358 -35 -438 -24 -24 -77 -32 -89 -13 -3
6 -12 10 -18 10 -27 -1 29 -30 58 -30 79 0 134 130 135 318 0 85 -14 136 -44
161 -23 19 -60 1 -82 -40 l-16 -33 -13 31 c-14 33 -42 53 -61 46 -19 -7 -7
1155 12 1227 18 66 21 275 5 340 -6 26 -11 153 -11 294 0 222 2 252 17 270 10
12 11 15 3 9 -19 -17 -30 -16 -30 3 0 10 7 14 23 13 12 -2 27 -1 32 3 6 3 24
5 40 4 17 -1 36 3 43 8 7 5 15 7 17 4 3 -3 29 1 58 8 70 17 67 17 67 -8z
m-712 -40 l-3 -51 -105 -42 c-58 -23 -172 -68 -255 -100 -1032 -400 -1102
-420 -1415 -419 -152 0 -204 4 -289 23 -156 33 -254 74 -312 130 -46 44 -49
51 -49 97 1 36 3 45 10 33 19 -32 118 -89 206 -118 244 -81 537 -79 844 6 141
39 479 159 975 347 209 79 384 144 388 145 4 0 7 -22 5 -51z m1309 -35 c-3 -2
-24 -3 -47 -1 l-42 3 43 32 44 31 3 -30 c2 -16 1 -32 -1 -35z m-3369 26 c2
-22 -11 -30 -137 -91 -102 -50 -152 -80 -185 -114 l-46 -46 0 31 c0 40 56 103
130 145 77 44 213 105 225 102 6 -1 11 -13 13 -27z m653 -79 c-6 -19 -22 -48
-35 -65 l-25 -30 -1 52 c0 41 7 62 33 104 l32 53 3 -40 c2 -21 -1 -55 -7 -74z
m4169 45 l0 -65 -34 0 c-63 0 -112 -66 -98 -135 4 -25 3 -27 -14 -20 -37 17
-101 17 -132 1 -33 -17 -72 -86 -72 -129 0 -15 -5 -27 -12 -27 -8 0 -10 53 -5
206 3 114 8 208 10 211 3 2 78 7 168 12 90 4 170 9 177 10 8 1 12 -18 12 -64z
m-4580 31 c28 -31 21 -60 -12 -51 -21 6 -22 5 -5 -8 23 -19 21 -29 -5 -25 -30
4 -34 54 -4 51 12 -1 15 2 8 9 -16 16 -42 1 -42 -24 -1 -22 -1 -22 -15 -4 -44
59 24 105 75 52z m2220 -25 l0 -49 -42 -6 c-68 -9 -202 -11 -216 -2 -16 10
-16 76 1 77 6 0 50 7 97 14 47 7 102 13 123 14 l37 1 0 -49z m1980 -130 c0
-93 -3 -182 -6 -199 -6 -27 -9 -30 -26 -21 -58 31 -121 -31 -116 -114 3 -47 2
-48 -22 -41 -38 12 -89 7 -116 -11 l-24 -15 0 279 0 280 118 4 c64 1 134 4
155 5 l37 2 0 -169z m-2260 120 l0 -29 -45 17 c-52 18 -57 28 -17 34 60 9 62
8 62 -22z m1928 -248 l-3 -278 -75 -6 c-41 -3 -121 -9 -176 -13 l-102 -7 4
198 c3 109 10 237 16 285 l12 87 75 4 c42 1 115 4 164 5 l87 2 -2 -277z m746
227 c16 -48 15 -56 -9 -47 -10 5 -15 20 -15 53 0 55 3 54 24 -6z m-1218 -11
c-14 -87 -56 -129 -88 -89 -22 27 -23 50 -4 95 14 32 19 35 57 35 l42 0 -7
-41z m-262 -41 c3 -40 6 -170 7 -288 l1 -215 -64 -6 c-35 -3 -98 -9 -140 -12
l-77 -7 -3 193 -3 192 34 50 c93 136 123 159 207 164 l31 1 7 -72z m51 48
c-22 -33 -30 -125 -16 -168 6 -19 27 -50 47 -69 32 -31 40 -34 97 -34 72 0
110 21 158 88 l29 40 0 -191 c0 -147 -3 -192 -12 -193 -7 0 -83 -6 -168 -13
-85 -7 -156 -12 -157 -12 -1 1 -5 130 -9 289 l-7 287 27 0 c26 0 26 -1 11 -24z
m-1278 -23 c70 -33 183 -143 232 -225 99 -170 140 -335 121 -493 -13 -111 -26
-149 -61 -185 -59 -59 -157 -32 -179 49 -16 59 11 111 57 111 30 0 42 -29 20
-45 -21 -15 -22 -58 -3 -75 28 -22 60 -7 84 40 30 60 31 202 2 316 -57 226
-225 415 -405 458 l-60 14 40 16 c22 9 51 22 65 30 14 8 26 15 27 15 1 1 28
-11 60 -26z m913 18 c0 -6 -4 -12 -10 -16 -17 -10 -117 -168 -157 -250 -22
-44 -51 -109 -63 -145 -24 -67 -48 -107 -36 -60 3 14 6 125 6 247 l0 222 53 4
c112 8 207 7 207 -2z m-2934 -78 c24 -56 70 -67 133 -33 20 11 62 28 94 38 83
27 85 8 7 -65 -115 -107 -142 -115 -187 -57 -15 20 -47 59 -70 86 -40 46 -52
76 -36 91 10 11 44 -24 59 -60z m449 -11 c0 -93 -5 -102 -88 -143 -71 -36
-102 -34 -134 8 l-25 32 46 48 45 48 29 -35 30 -35 7 47 c6 38 13 51 41 70 19
13 34 26 34 31 0 4 3 7 8 7 4 0 7 -35 7 -78z m1890 -14 c3 -40 5 -111 3 -157
l-3 -84 -39 77 c-25 49 -65 106 -108 151 -79 85 -82 81 64 84 l76 1 7 -72z
m-2852 10 c-14 -26 -18 -55 -18 -134 1 -93 3 -105 27 -142 15 -22 49 -54 76
-72 l49 -31 7 -121 c3 -67 6 -145 6 -173 0 -52 -1 -53 -32 -58 -18 -4 -61 -7
-96 -8 -59 -2 -65 0 -91 28 -41 46 -87 66 -148 65 l-53 0 0 76 c0 42 -5 191
-10 331 -6 140 -9 255 -7 257 3 4 300 21 305 18 2 -1 -5 -17 -15 -36z m2247
-84 c0 -78 -2 -85 -17 -79 -49 22 -82 18 -113 -13 -16 -17 -30 -38 -30 -46 0
-17 23 -42 56 -63 18 -12 18 -13 -5 -33 -30 -26 -37 -25 -71 8 -54 54 -48 162
13 228 25 26 121 75 165 84 1 0 2 -39 2 -86z m215 53 c39 -19 75 -40 82 -48 8
-10 13 -73 15 -192 l3 -178 -27 6 c-22 5 -33 1 -53 -21 -14 -15 -25 -35 -25
-45 0 -9 -3 -24 -6 -33 -5 -14 -8 -14 -28 0 -21 13 -25 12 -49 -6 -16 -13 -40
-20 -67 -20 l-42 0 6 113 c3 61 8 134 12 160 4 36 2 59 -11 87 -13 29 -16 56
-12 121 3 46 6 85 6 87 1 1 29 2 64 2 50 0 76 -6 132 -33z m-429 -69 c-45 -69
-37 -188 16 -233 57 -48 134 -23 126 42 -2 19 -12 32 -30 41 -32 15 -33 20
-12 50 37 53 124 1 124 -75 0 -97 -93 -172 -184 -149 -41 10 -92 62 -116 118
-18 42 -21 64 -17 116 5 70 12 81 60 99 46 17 49 16 33 -9z m694 -213 c32 -65
51 -118 55 -150 l4 -50 -9 45 c-10 49 -48 90 -82 90 -20 0 -81 -55 -105 -95
-9 -16 -12 20 -12 175 l0 195 50 -55 c29 -32 70 -97 99 -155z m-815 103 c0
-102 26 -164 88 -209 78 -56 152 -57 217 -3 l30 26 0 -89 0 -89 -201 -13
c-110 -8 -208 -14 -217 -15 -15 -1 -18 21 -22 212 -3 135 -1 216 5 220 11 8
87 41 95 41 3 1 5 -36 5 -81z m1561 -265 c0 -1 -38 -4 -83 -8 l-82 -7 18 58
c26 83 55 152 98 236 l38 73 6 -175 c4 -96 6 -176 5 -177z m-1683 155 c4 -79
7 -175 7 -214 l0 -71 -142 -11 c-79 -6 -183 -15 -232 -18 l-89 -7 6 63 c4 35
7 102 7 150 l0 87 213 81 c116 44 215 81 218 81 3 1 9 -63 12 -141z m-468
-316 c-5 -5 -293 -30 -357 -32 l-28 0 0 104 0 104 91 22 c50 12 136 36 192 54
l102 32 3 -140 c1 -76 0 -141 -3 -144z m-1086 217 c46 -16 130 -34 259 -55
l32 -5 0 -109 0 -109 -42 -5 c-39 -5 -287 -26 -308 -26 -4 0 -11 44 -14 98 -3
53 -8 130 -11 171 -4 67 -3 72 13 66 9 -4 41 -16 71 -26z m2503 4 c13 -12 18
-31 18 -72 0 -43 3 -52 12 -43 23 23 28 11 28 -78 0 -96 -18 -160 -44 -160
-25 0 -29 21 -7 36 25 18 27 41 5 72 -38 54 -130 6 -141 -74 -9 -76 64 -164
137 -164 14 0 38 7 54 15 15 8 32 15 37 15 5 0 9 -65 9 -144 l0 -144 -42 -6
c-72 -11 -490 -26 -724 -26 -201 0 -224 2 -245 19 -21 17 -22 21 -10 50 14 33
45 47 82 38 16 -4 19 -2 13 11 -4 9 -9 32 -12 49 -6 45 28 62 80 40 l36 -15
-5 37 c-7 50 13 65 73 58 39 -4 44 -2 39 12 -18 44 -16 77 5 104 25 32 45 34
85 7 42 -28 45 -25 22 21 -16 33 -18 45 -8 65 15 35 48 45 90 28 18 -8 35 -14
37 -14 2 0 4 21 4 46 0 49 14 84 32 84 7 0 25 -12 40 -27 l28 -27 0 37 c0 21
7 54 15 73 12 30 19 35 42 32 24 -2 30 -10 43 -50 17 -55 30 -62 30 -17 0 36
13 64 48 102 29 31 66 35 94 10z m1754 -48 c-1 -36 -4 -44 -16 -39 -63 26 -68
27 -99 14 -43 -17 -65 -61 -58 -119 2 -25 7 -53 11 -61 5 -13 -9 -15 -94 -16
l-100 -1 0 119 c0 65 1 118 3 119 3 1 296 26 328 28 25 1 26 -1 25 -44z m-366
-104 l0 -118 -77 -6 c-43 -4 -120 -9 -170 -13 l-93 -7 0 121 0 120 108 7 c59
3 112 8 117 10 6 2 34 4 63 4 l52 1 0 -119z m-3201 -2 l-2 -98 -41 -5 c-88
-12 -329 -26 -335 -21 -3 4 -7 52 -9 109 l-4 102 153 1 c85 1 170 6 189 11 19
5 39 7 43 4 4 -2 7 -48 6 -103z m2851 -30 l0 -119 -32 0 c-18 0 -69 -3 -113
-6 l-80 -7 -18 37 c-9 20 -24 39 -32 42 -12 5 -15 24 -15 84 l0 78 128 7 c70
3 132 8 137 9 22 7 25 -10 25 -125z m-300 36 l0 -65 -34 0 c-19 0 -46 -4 -60
-10 -32 -12 -67 -67 -64 -100 2 -19 -2 -26 -19 -28 -22 -3 -23 0 -23 64 0 37
5 95 12 130 13 72 11 70 121 73 l67 1 0 -65z m-1128 -51 c-2 -16 -5 -30 -6
-31 -1 -1 -19 0 -39 4 -30 5 -37 10 -37 29 0 18 6 24 33 27 48 6 52 3 49 -29z
m-98 0 c5 -17 0 -33 -14 -51 -11 -14 -20 -40 -20 -57 0 -30 -2 -32 -33 -28
-39 4 -64 -15 -73 -56 -3 -15 -7 -32 -9 -38 -3 -9 -273 -40 -281 -32 -1 2 -4
60 -5 128 -1 102 1 126 13 128 18 4 330 29 379 31 32 1 38 -3 43 -25z m-451
-131 c3 -70 4 -129 1 -132 -2 -2 -93 -13 -202 -22 -108 -10 -212 -20 -229 -23
l-33 -5 0 135 c0 74 3 134 8 135 4 0 102 9 217 18 116 10 215 19 221 20 7 0
13 -43 17 -126z m-473 -48 c0 -101 -3 -135 -12 -135 -7 0 -89 -9 -183 -20 -93
-11 -176 -20 -182 -20 -10 0 -13 35 -13 140 0 77 1 141 3 141 4 3 302 26 345
28 l42 1 0 -135z m-408 -35 c3 -118 1 -141 -12 -145 -33 -9 -341 -37 -347 -31
-7 7 -18 285 -12 287 8 3 286 26 326 28 l42 1 3 -140z m-388 49 c3 -34 6 -101
6 -149 l0 -86 -122 -13 c-68 -6 -149 -14 -180 -18 l-58 -6 0 50 c0 28 -3 97
-6 155 l-7 106 134 9 c74 6 155 11 180 11 l46 2 7 -61z m-374 -61 l0 -91 -22
21 c-42 38 -117 54 -157 32 -16 -8 -18 -3 -17 53 l1 62 35 6 c19 3 63 7 98 8
l62 1 0 -92z m3268 60 c32 -32 -8 -108 -57 -108 -16 0 -37 10 -49 23 -24 25
-44 72 -35 81 11 11 59 6 71 -6 10 -9 16 -8 29 5 20 20 25 21 41 5z m-1318
-97 c0 -5 -9 -7 -20 -4 -11 3 -20 7 -20 9 0 2 9 4 20 4 11 0 20 -4 20 -9z
m1178 -133 c12 -10 35 -18 52 -18 35 0 45 -13 30 -40 -16 -30 -66 -52 -132
-57 l-58 -6 0 112 0 111 43 -42 c23 -24 52 -51 65 -60z m-3088 -52 c0 -2 -7
-6 -15 -10 -8 -3 -15 -1 -15 4 0 6 7 10 15 10 8 0 15 -2 15 -4z m4353 -295
c22 -22 -106 -71 -183 -71 -49 0 -68 13 -50 35 19 23 49 38 95 46 47 9 125 3
138 -10z m753 -526 c62 -18 80 -36 65 -63 -26 -49 -162 -84 -326 -85 -165 0
-261 34 -223 80 28 34 137 72 248 86 58 8 182 -1 236 -18z m-496 -146 c60 -13
104 -46 95 -71 -13 -34 -92 -53 -215 -53 -95 0 -122 3 -155 20 -128 64 85 145
275 104z m-586 -53 c50 -21 47 -52 -9 -83 -120 -68 -445 -79 -469 -17 -9 23
-1 31 55 59 117 60 330 80 423 41z m-564 -133 c60 -26 75 -45 60 -73 -47 -88
-404 -106 -481 -24 -20 22 -21 25 -6 47 16 25 69 55 122 68 17 5 82 7 145 5
90 -2 125 -7 160 -23z m-875 -112 c27 -6 30 -10 30 -45 0 -36 -3 -40 -40 -54
-60 -22 -214 -22 -248 1 -16 10 -24 23 -21 31 20 51 177 89 279 67z m-320
-121 c61 -31 73 -49 57 -85 -46 -101 -456 -143 -571 -57 -35 26 -37 44 -7 80
52 60 179 93 351 89 105 -2 127 -6 170 -27z m946 4 c41 -24 47 -46 19 -72 -26
-24 -82 -41 -165 -49 l-65 -6 0 78 0 77 88 -4 c65 -3 98 -9 123 -24z m-601
-146 c0 -106 -2 -108 -79 -108 -165 0 -244 72 -140 126 36 18 139 42 187 43
l32 1 0 -62z m-944 1 c83 -41 66 -84 -51 -124 -66 -23 -251 -31 -328 -15 -71
14 -117 50 -101 77 35 57 167 94 320 90 93 -3 118 -7 160 -28z m1674 -19 c97
-16 159 -39 177 -66 13 -20 13 -27 2 -40 -18 -21 -59 -42 -109 -53 -40 -9 -46
-7 -91 24 -71 48 -141 70 -231 70 -56 0 -79 4 -83 13 -10 27 -5 29 130 56 40
8 142 6 205 -4z m-1023 -85 c67 -20 83 -39 56 -66 -19 -20 -21 -20 -56 -3 -42
20 -54 15 -37 -15 16 -30 -5 -36 -125 -35 -79 0 -110 5 -147 22 -52 23 -59 39
-29 66 49 44 236 61 338 31z m930 -44 c39 -19 89 -54 127 -91 l63 -60 64 17
c77 21 254 24 315 6 54 -17 105 -52 124 -86 14 -26 14 -29 -4 -40 -42 -26
-400 -217 -402 -214 -1 1 2 21 8 43 10 35 9 46 -8 74 -27 47 -68 62 -119 44
-34 -11 -41 -11 -48 1 -11 20 -60 45 -87 45 -30 0 -76 -29 -91 -57 -7 -13 -15
-23 -18 -23 -3 0 -17 19 -30 43 -13 23 -60 98 -103 166 l-80 125 24 17 c31 25
52 28 131 24 50 -3 87 -12 134 -34z m-2185 3 c54 -26 58 -51 15 -90 -56 -51
-175 -85 -322 -91 -128 -6 -186 4 -226 36 -20 16 -22 22 -12 44 20 43 132 96
251 117 78 15 251 5 294 -16z m1290 -71 c100 -73 174 -181 238 -346 34 -90 37
-112 11 -79 -26 30 -37 28 -17 -3 22 -33 21 -34 -21 -28 -21 2 -69 -2 -108 -9
-42 -8 -106 -11 -160 -8 l-89 5 38 31 c43 36 111 59 156 52 30 -5 42 5 17 15
-14 5 -111 -8 -127 -18 -5 -3 -24 2 -42 11 -52 27 -168 105 -168 113 0 11 123
-6 189 -25 31 -9 71 -25 89 -36 47 -29 39 -11 -20 44 l-53 49 58 -26 c73 -32
103 -51 145 -89 37 -34 44 -22 8 17 -13 14 -50 76 -83 139 -33 62 -74 139 -92
171 -18 31 -30 57 -26 57 4 0 30 -17 57 -37z m659 -50 c28 -49 74 -123 101
-165 38 -60 50 -87 52 -126 2 -27 9 -59 16 -72 6 -12 8 -26 3 -30 -4 -5 -93
-54 -198 -110 -104 -56 -194 -106 -199 -111 -26 -24 25 0 213 100 l204 109 27
-36 c15 -21 39 -48 53 -61 24 -22 29 -23 58 -11 17 8 58 33 91 58 33 24 64 40
68 35 22 -22 270 -357 270 -363 0 -4 -19 -4 -42 1 -23 6 -204 34 -402 64 -445
66 -546 84 -552 100 -5 12 159 676 172 696 3 5 7 9 9 9 2 0 27 -39 56 -87z
m908 53 c78 -21 122 -67 101 -106 -15 -29 -52 -25 -85 10 -48 51 -124 73 -247
74 -59 1 -104 4 -100 8 27 28 244 36 331 14z m-2304 -55 c32 -12 69 -31 82
-43 l23 -22 -21 -22 c-11 -12 -27 -39 -34 -61 -24 -73 -156 -117 -345 -117
-170 1 -295 37 -335 98 -43 65 66 139 265 182 96 20 288 12 365 -15z m664 -19
l65 -17 54 -103 55 -104 -51 26 c-71 36 -203 87 -214 84 -5 -2 25 -25 67 -52
42 -26 75 -50 73 -52 -2 -2 -24 4 -48 12 -59 20 -192 39 -214 31 -26 -10 -9
-28 86 -90 50 -32 74 -53 66 -58 -25 -13 -145 -18 -236 -9 -129 12 -213 42
-269 96 -43 41 -45 46 -40 85 14 106 167 167 417 168 85 0 145 -6 189 -17z
m2018 -94 c132 -13 127 -5 90 -143 l-22 -80 -50 1 c-27 0 -123 2 -212 3 -89 2
-163 5 -166 7 -2 3 4 39 14 82 11 42 19 95 19 116 l0 39 107 -7 c60 -3 159
-11 220 -18z m-366 -105 c-26 -89 -131 -519 -131 -539 0 -9 -4 -14 -9 -12 -5
2 -57 68 -116 148 -60 80 -123 163 -141 184 -19 21 -31 42 -29 47 3 4 74 43
158 87 83 43 181 97 217 119 36 22 66 39 68 37 2 -1 -6 -33 -17 -71z m-597 36
c14 -11 26 -27 26 -35 0 -18 5 -18 36 3 59 38 124 5 124 -64 0 -62 -53 -129
-155 -192 l-50 -31 -37 41 c-49 54 -88 134 -88 182 0 92 80 146 144 96z
m-1965 -145 c56 -19 131 -79 131 -105 -1 -8 -19 -27 -41 -42 -22 -15 -48 -41
-57 -58 -59 -105 -483 -88 -542 21 -40 75 33 153 180 192 84 23 250 19 329 -8z
m581 -119 c191 -45 279 -131 204 -200 -139 -129 -675 -99 -742 41 -15 33 -15
37 1 67 27 49 106 91 207 111 51 10 257 -2 330 -19z m729 4 c50 -11 91 -25 91
-29 0 -5 -5 -31 -11 -59 l-10 -50 -52 -10 c-137 -27 -265 -21 -357 15 -68 27
-75 70 -16 101 105 55 213 65 355 32z m1583 -5 c89 -29 89 -71 0 -112 -48 -22
-75 -27 -172 -30 -119 -4 -197 8 -206 32 -3 8 0 32 6 54 9 34 16 43 47 53 95
31 236 33 325 3z m-1496 -199 c17 -8 97 -26 179 -40 148 -26 198 -41 199 -60
2 -19 -67 -54 -137 -70 -196 -45 -459 -20 -516 49 -36 43 42 98 172 121 39 7
72 14 73 14 0 1 14 -6 30 -14z"/>
<path d="M6668 7859 c-15 -6 -33 -23 -40 -39 -12 -27 -15 -28 -60 -23 -60 7
-88 -13 -88 -63 0 -68 113 -147 229 -161 l50 -6 16 39 c9 22 19 66 22 100 7
73 -15 127 -58 149 -32 17 -34 17 -71 4z m79 -33 c26 -23 28 -29 28 -103 0
-43 -6 -92 -14 -110 -12 -29 -16 -31 -45 -26 -135 25 -248 114 -217 171 16 29
44 35 86 17 46 -19 45 -19 45 4 0 29 39 71 65 71 13 0 37 -11 52 -24z"/>
<path d="M5882 7774 c-12 -8 -22 -22 -22 -30 0 -16 -16 -19 -25 -4 -9 15 -68
12 -90 -4 -25 -18 -23 -66 4 -104 23 -33 112 -80 167 -89 33 -5 35 -4 55 41
38 86 37 148 -1 186 -24 24 -58 26 -88 4z m80 -21 c25 -22 24 -91 -3 -154 -25
-57 -24 -57 -127 -8 -43 21 -67 40 -78 61 -33 63 12 106 76 73 17 -9 33 -15
34 -13 1 2 7 15 14 31 14 32 54 37 84 10z"/>
<path d="M4798 7768 c-23 -35 -52 -94 -40 -83 13 14 65 105 59 105 -3 0 -11
-10 -19 -22z"/>
<path d="M4884 7665 c-14 -25 -25 -48 -23 -50 2 -2 16 19 32 46 34 62 27 65
-9 4z"/>
<path d="M4194 7589 c-14 -28 -24 -53 -22 -55 2 -2 16 21 31 51 15 30 25 55
22 55 -3 0 -16 -23 -31 -51z"/>
<path d="M4236 7549 c-36 -82 -28 -85 12 -4 17 36 28 65 23 65 -5 0 -20 -28
-35 -61z"/>
<path d="M6983 7293 c19 -36 43 -52 124 -82 106 -39 157 -109 157 -216 0 -67
-22 -105 -114 -200 -80 -83 -117 -132 -107 -141 3 -3 11 5 18 18 7 12 49 61
94 108 104 108 119 136 119 220 0 112 -58 189 -172 224 -40 13 -69 31 -96 59
-35 37 -37 37 -23 10z"/>
<path d="M7160 7527 c-33 -17 -53 -60 -45 -97 9 -43 58 -80 103 -79 26 1 30 3
12 6 -53 9 -83 27 -96 59 -18 43 -5 77 38 104 36 22 28 27 -12 7z"/>
<path d="M6632 7109 c-23 -12 -65 -46 -92 -77 -28 -31 -50 -51 -50 -44 0 21
-65 85 -105 103 -101 46 -223 0 -277 -104 -17 -34 -20 -54 -16 -119 3 -43 2
-78 -1 -79 -3 0 -51 -6 -106 -12 l-100 -12 3 -255 c2 -140 5 -256 7 -259 6 -6
996 116 1003 124 13 13 14 448 2 480 -7 17 -12 58 -11 92 3 75 -23 131 -72
162 -46 28 -127 28 -185 0z m158 -18 c84 -44 98 -151 37 -273 -39 -78 -161
-229 -275 -342 l-71 -69 -48 41 c-27 22 -94 87 -149 144 -123 129 -167 205
-168 293 -1 70 19 112 77 158 31 26 49 32 100 35 73 4 110 -15 165 -88 19 -25
37 -46 41 -47 3 -1 17 16 31 38 43 70 132 127 200 129 14 0 41 -8 60 -19z
m100 -469 l0 -238 -352 -43 c-194 -24 -414 -51 -488 -61 -74 -9 -138 -14 -142
-11 -3 3 -8 114 -10 246 l-3 240 109 10 108 10 15 -30 c52 -100 307 -355 356
-355 22 0 234 212 293 293 26 34 59 88 75 120 16 31 31 57 34 57 3 0 5 -107 5
-238z"/>
<path d="M2856 6762 c-2 -4 -1 -14 5 -22 7 -12 9 -10 9 8 0 23 -5 28 -14 14z"/>
<path d="M3754 6464 c-49 -32 -104 -85 -104 -98 0 -6 19 8 43 31 23 23 60 53
81 67 21 14 34 26 29 26 -6 0 -28 -12 -49 -26z"/>
<path d="M7096 6198 c16 -34 16 -38 0 -62 -29 -45 -84 -24 -74 29 3 13 1 22
-3 19 -12 -7 -11 -41 1 -65 15 -27 64 -25 84 3 22 30 20 61 -4 89 l-20 24 16
-37z"/>
<path d="M5630 6040 c-42 -42 -36 -102 9 -108 45 -7 77 50 50 88 -8 12 -9 10
-4 -7 14 -49 -27 -90 -60 -63 -22 18 -18 45 11 79 29 35 25 42 -6 11z"/>
<path d="M4474 5894 c-18 -15 -18 -15 3 -5 31 15 38 14 22 -6 -13 -15 -12 -15
8 -2 16 9 19 16 10 21 -17 11 -21 10 -43 -8z"/>
<path d="M4345 5550 c-4 -12 -5 -24 -2 -27 3 -2 8 5 12 17 4 12 5 24 2 27 -3
2 -8 -5 -12 -17z"/>
<path d="M4550 5513 l-85 -88 88 85 c48 46 87 86 87 87 0 8 -11 -3 -90 -84z"/>
<path d="M4659 5533 l-24 -28 28 24 c25 23 32 31 24 31 -2 0 -14 -12 -28 -27z"/>
<path d="M3926 5360 c-43 -27 -84 -54 -90 -61 -6 -7 3 -4 19 6 124 77 155 98
155 101 0 7 -2 5 -84 -46z"/>
<path d="M3094 5374 c-18 -14 -18 -15 4 -4 12 6 22 13 22 15 0 8 -5 6 -26 -11z"/>
<path d="M3003 5318 c-34 -23 -60 -44 -58 -46 3 -4 91 55 120 80 23 21 -6 4
-62 -34z"/>
<path d="M3085 5274 l-30 -26 33 22 c17 12 32 23 32 26 0 7 -4 5 -35 -22z"/>
<path d="M3179 5259 l-24 -20 28 17 c15 9 27 18 27 20 0 8 -8 4 -31 -17z"/>
<path d="M3743 5199 c-29 -17 -53 -33 -53 -36 0 -2 26 10 58 28 66 37 69 39
56 39 -5 0 -33 -14 -61 -31z"/>
<path d="M3413 5179 c-35 -22 -46 -37 -15 -20 22 13 58 40 52 41 -3 0 -20 -10
-37 -21z"/>
<path d="M3520 5170 c-25 -16 -42 -30 -37 -30 8 0 87 51 87 56 0 7 -4 5 -50
-26z"/>
<path d="M5909 5583 l-34 -38 38 34 c34 33 42 41 34 41 -2 0 -19 -17 -38 -37z"/>
<path d="M5760 5563 c-25 -25 -36 -40 -24 -32 20 13 80 79 72 79 -2 0 -24 -21
-48 -47z"/>
<path d="M5795 5563 c-21 -27 -28 -39 -16 -28 23 19 66 75 59 75 -2 0 -21 -21
-43 -47z"/>
<path d="M5830 5564 c-38 -39 -40 -43 -12 -23 27 19 70 69 59 69 -1 0 -23 -21
-47 -46z"/>
<path d="M5730 5575 c-13 -14 -20 -25 -16 -25 11 0 50 39 44 45 -2 3 -15 -6
-28 -20z"/>
<path d="M5880 5483 l-55 -58 58 55 c31 30 57 56 57 57 0 8 -10 -1 -60 -54z"/>
<path d="M5729 5483 c-13 -16 -12 -17 4 -4 9 7 17 15 17 17 0 8 -8 3 -21 -13z"/>
<path d="M5764 5468 l-19 -23 23 19 c21 18 27 26 19 26 -2 0 -12 -10 -23 -22z"/>
<path d="M5784 5110 c0 -80 2 -112 3 -72 2 39 2 105 0 145 -1 39 -3 7 -3 -73z"/>
<path d="M5899 5153 c-5 -15 -12 -63 -14 -107 l-4 -81 9 70 c14 108 20 136 31
130 5 -4 10 -32 11 -63 1 -53 2 -54 5 -13 8 81 -16 121 -38 64z"/>
<path d="M5883 4525 c0 -27 2 -38 4 -22 2 15 2 37 0 50 -2 12 -4 0 -4 -28z"/>
<path d="M5861 4231 c-7 -12 -14 -48 -16 -79 l-4 -57 8 52 c11 64 17 83 30 83
5 0 11 -10 15 -22 5 -18 8 -20 15 -9 5 8 14 10 21 6 9 -5 11 -4 6 4 -4 7 -13
10 -19 8 -6 -2 -19 6 -28 17 -16 20 -16 20 -28 -3z"/>
<path d="M5851 4073 c-2 -36 17 -73 38 -73 20 0 47 50 38 72 -3 7 -6 4 -6 -8
-1 -11 -7 -29 -15 -40 -18 -24 -35 -10 -46 38 -5 22 -8 26 -9 11z"/>
<path d="M5743 2850 c0 -25 2 -35 4 -22 2 12 2 32 0 45 -2 12 -4 2 -4 -23z"/>
<path d="M5746 2587 c-4 -76 -6 -140 -3 -143 7 -7 20 192 15 241 -2 22 -7 -22
-12 -98z"/>
<path d="M5696 2304 c-9 -23 -7 -132 2 -138 5 -3 16 8 26 24 16 29 53 56 62
47 3 -2 0 -16 -6 -31 -5 -15 -10 -39 -9 -54 1 -20 5 -13 15 23 7 28 14 58 14
68 0 26 -28 20 -62 -13 -16 -16 -32 -30 -35 -30 -3 0 -2 27 2 60 7 59 3 76 -9
44z"/>
<path d="M5286 4498 c-9 -12 -16 -30 -16 -38 0 -13 -7 -15 -29 -12 -54 8 -79
-73 -33 -110 13 -11 14 -10 4 9 -7 12 -12 35 -12 52 0 37 30 50 65 27 l25 -16
0 39 c0 49 18 66 48 45 23 -16 30 -6 10 14 -19 19 -45 14 -62 -10z"/>
<path d="M7026 2355 c-15 -37 -23 -72 -19 -76 14 -14 264 -13 273 1 10 17 33
121 27 126 -3 3 -61 8 -129 11 l-125 6 -27 -68z m266 38 c4 -2 5 -9 3 -16 -2
-7 -9 -31 -15 -54 l-11 -43 -124 0 c-137 0 -136 -1 -111 61 7 19 16 42 20 52
6 17 15 18 119 12 61 -4 115 -9 119 -12z"/>
<path d="M4702 1988 c-14 -14 -15 -44 -2 -73 7 -15 9 -9 7 24 -1 26 3 46 10
48 6 2 30 -12 52 -33 23 -20 41 -32 41 -26 0 6 12 24 26 41 14 17 21 31 15 31
-6 0 -20 -13 -31 -28 l-21 -29 -31 29 c-33 31 -48 34 -66 16z"/>
<path d="M7706 4908 c-9 -12 -16 -39 -16 -58 0 -35 -1 -36 -30 -32 -56 8 -77
-37 -44 -99 22 -43 27 -31 7 19 -24 62 2 86 67 58 12 -5 15 3 15 44 0 34 6 55
18 67 23 24 45 10 76 -48 18 -35 22 -38 16 -15 -17 76 -77 110 -109 64z"/>
<path d="M8177 4870 c-15 -12 -31 -37 -36 -57 -11 -37 -6 -62 4 -27 13 42 32
69 57 83 36 21 58 2 58 -50 l0 -38 35 20 c49 29 69 19 62 -29 -5 -25 -3 -32 3
-22 5 8 10 27 10 42 0 32 -35 47 -68 29 -29 -15 -32 -14 -32 13 0 29 -24 56
-49 56 -10 0 -30 -9 -44 -20z"/>
<path d="M7023 4695 c-3 -9 -3 -30 0 -48 l5 -32 -57 3 c-68 3 -100 -12 -126
-60 -16 -30 -17 -40 -8 -61 25 -54 37 -57 344 -63 430 -9 1222 25 1292 57 16
7 7 8 -33 5 -228 -21 -309 -27 -490 -36 -232 -12 -965 -15 -1026 -5 -49 9 -74
31 -74 64 0 76 82 107 198 75 l23 -7 -22 37 c-14 24 -19 45 -15 61 7 27 -1 34
-11 10z"/>
<path d="M2041 4607 c-16 -20 -41 -84 -41 -104 0 -15 2 -16 10 -3 5 8 10 25
10 37 0 12 11 34 24 50 35 40 56 19 56 -55 0 -52 1 -54 18 -39 17 15 35 21 60
18 17 -1 15 -35 -3 -74 l-16 -32 21 24 c41 48 16 116 -36 92 -35 -15 -34 -16
-34 32 0 24 -5 48 -12 55 -16 16 -43 15 -57 -1z"/>
<path d="M6542 4440 c-9 -24 -26 -145 -18 -125 3 6 10 37 16 69 13 64 30 61
30 -6 0 -21 3 -38 6 -38 3 0 17 14 31 30 42 50 51 38 27 -37 -3 -10 1 -7 10 7
18 29 21 66 6 75 -5 3 -21 -5 -35 -19 -32 -33 -35 -32 -35 2 0 16 -6 37 -14
48 -14 18 -15 18 -24 -6z"/>
<path d="M4134 4245 c-7 -16 26 -149 34 -140 3 2 -3 32 -12 66 -10 33 -15 63
-12 67 10 9 42 -27 61 -69 l18 -40 26 47 c45 82 85 88 58 10 -19 -55 -13 -61
8 -10 31 76 11 103 -38 52 -17 -18 -37 -42 -43 -52 -9 -17 -13 -15 -37 26 -29
50 -54 67 -63 43z"/>
<path d="M3735 4084 c-14 -15 -25 -30 -25 -33 0 -3 -4 -12 -9 -20 -8 -12 -12
-12 -26 2 -26 27 -38 21 -31 -15 3 -18 11 -37 16 -42 6 -6 6 3 0 25 -13 46
-13 46 15 19 23 -22 25 -22 31 -4 13 35 45 74 61 74 15 0 14 -26 -3 -88 -2 -9
2 -3 10 13 19 39 20 69 1 85 -12 10 -19 7 -40 -16z"/>
<path d="M6761 3979 c-47 -16 -95 -39 -108 -51 -25 -24 -30 -52 -10 -65 22
-14 159 -20 272 -13 164 12 196 33 150 101 -44 68 -160 78 -304 28z m230 11
c48 -13 94 -70 76 -94 -18 -24 -104 -36 -256 -36 -96 0 -142 4 -155 13 -37 27
9 65 128 103 77 25 150 30 207 14z"/>
<path d="M7639 3788 c-12 -18 -24 -35 -26 -37 -1 -2 -12 8 -24 22 -42 55 -63
21 -33 -53 14 -34 14 -34 9 -5 -2 17 -7 41 -10 55 -6 22 -3 21 28 -13 32 -35
36 -36 42 -18 9 29 45 72 56 66 5 -4 9 -1 9 4 0 22 -29 10 -51 -21z"/>
<path d="M7676 3764 c-4 -14 -5 -29 -2 -31 3 -3 8 7 12 21 3 15 4 29 1 32 -2
3 -8 -7 -11 -22z"/>
<path d="M3272 3748 c-18 -23 -50 -98 -42 -98 4 0 13 14 19 32 13 38 40 70 52
62 5 -3 10 -26 11 -52 1 -39 2 -41 5 -13 8 65 -17 103 -45 69z"/>
<path d="M3170 3687 c0 -16 29 -57 30 -41 0 5 -5 15 -12 22 -9 9 -9 12 1 12 7
0 9 5 6 10 -9 14 -25 12 -25 -3z"/>
<path d="M2321 3543 c-19 -17 -57 -93 -46 -93 2 0 11 15 18 33 18 40 54 74 67
61 6 -6 4 -29 -4 -62 -8 -29 -11 -50 -6 -47 12 7 33 102 25 115 -9 15 -30 12
-54 -7z"/>
<path d="M8272 3450 c-24 -5 -62 -20 -85 -32 -37 -21 -42 -28 -42 -58 0 -32 4
-37 48 -59 36 -18 66 -24 120 -25 79 -1 147 10 147 24 0 5 -14 5 -32 -1 -18
-5 -67 -9 -108 -9 -95 0 -165 30 -165 70 0 20 10 30 50 50 44 22 63 25 157 25
59 0 100 4 93 8 -23 12 -136 17 -183 7z"/>
<path d="M4990 3373 c-20 -21 -39 -45 -42 -53 -4 -11 -15 -4 -43 28 -51 58
-80 56 -79 -6 0 -23 6 -48 13 -55 10 -9 10 -6 2 16 -6 16 -11 39 -11 53 0 49
58 19 93 -49 l15 -28 25 44 c30 51 70 81 98 74 10 -3 19 -1 19 4 0 5 -12 9
-26 9 -17 0 -39 -13 -64 -37z"/>
<path d="M5061 3342 c-24 -66 -25 -68 -14 -57 12 12 37 84 31 90 -2 3 -10 -12
-17 -33z"/>
<path d="M2100 3280 c0 -11 7 -37 15 -57 8 -19 15 -36 15 -37 0 -1 -72 -22
-160 -46 -88 -25 -160 -48 -160 -52 0 -4 6 -5 13 -3 63 22 311 84 318 79 14
-8 11 6 -13 63 -12 29 -18 56 -14 60 4 5 30 -16 57 -45 27 -29 49 -48 49 -42
0 7 -19 32 -42 56 -45 47 -78 57 -78 24z"/>
<path d="M7850 3284 c-140 -22 -215 -46 -257 -86 -43 -40 -22 -91 51 -126 l38
-19 -103 -6 c-158 -8 -271 -50 -323 -119 -39 -54 9 -110 123 -146 43 -13 93
-17 216 -17 140 0 169 3 234 23 162 51 191 158 58 216 l-50 22 119 0 c66 -1
149 2 186 7 l67 7 -17 -29 c-16 -29 -16 -31 6 -54 24 -26 88 -47 141 -47 54 0
40 15 -16 17 -64 3 -117 29 -121 60 -4 30 57 60 145 72 51 6 58 9 28 10 l-39
1 32 29 c87 80 -9 153 -238 181 -81 10 -227 11 -280 4z m325 -24 c138 -23 220
-66 213 -113 -11 -81 -365 -134 -619 -93 -185 30 -240 105 -121 165 32 16 61
24 167 45 42 8 303 5 360 -4z m-336 -252 c70 -22 121 -63 121 -99 0 -32 -59
-82 -121 -103 -92 -30 -226 -41 -338 -28 -213 25 -295 93 -207 170 38 33 131
67 221 81 85 14 247 3 324 -21z"/>
<path d="M7102 3230 c-104 -25 -155 -64 -145 -112 6 -26 61 -55 131 -68 78
-16 231 -8 292 14 120 44 117 125 -5 162 -51 15 -216 18 -273 4z m253 -15 c59
-16 105 -47 105 -71 0 -22 -58 -62 -112 -75 -64 -16 -228 -17 -284 -1 -47 14
-94 47 -94 67 0 68 240 117 385 80z"/>
<path d="M3868 3207 c-39 -12 -78 -40 -78 -56 0 -33 80 -52 168 -40 118 16
162 48 121 85 -26 23 -154 30 -211 11z m187 -9 c15 -7 24 -18 23 -27 -5 -27
-60 -45 -153 -49 -81 -4 -92 -2 -108 16 -18 20 -18 21 7 38 51 32 180 45 231
22z"/>
<path d="M3385 3179 c-96 -15 -161 -54 -150 -90 4 -10 5 -19 3 -19 -46 -1
-241 -44 -276 -62 -85 -42 -61 -104 49 -127 86 -19 214 -12 393 19 193 34 262
54 276 81 9 16 6 22 -20 37 l-30 19 41 18 c66 30 74 72 19 100 -23 12 -68 18
-220 29 -19 1 -58 -1 -85 -5z m234 -19 c77 -11 114 -38 90 -66 -7 -9 -33 -25
-56 -35 -24 -10 -43 -21 -43 -24 0 -2 16 -12 36 -20 82 -34 -12 -67 -345 -121
-232 -37 -446 15 -363 89 24 21 102 44 197 58 96 13 118 23 110 49 -19 60 184
98 374 70z"/>
<path d="M6565 3060 c-165 -30 -231 -100 -155 -164 43 -36 89 -47 217 -53 137
-7 241 13 302 58 71 51 44 113 -63 144 -63 19 -233 27 -301 15z m278 -25 c133
-35 151 -92 44 -140 -138 -62 -399 -53 -473 16 -39 37 -28 66 36 100 74 39
286 52 393 24z"/>
<path d="M2670 2897 c-35 -18 -38 -45 -5 -53 34 -8 104 12 112 33 12 31 -58
45 -107 20z m94 -6 c10 -16 -21 -32 -65 -34 -47 -2 -61 14 -27 31 28 13 85 15
92 3z"/>
<path d="M8106 2879 c-113 -17 -198 -81 -170 -126 34 -56 143 -89 261 -80 125
9 108 22 -30 22 -114 0 -137 3 -171 20 -55 29 -64 59 -28 95 16 15 46 33 68
40 65 19 203 23 262 7 28 -8 52 -11 52 -7 0 23 -160 42 -244 29z"/>
<path d="M6975 2839 c-33 -5 -85 -21 -115 -36 -48 -25 -55 -32 -55 -58 0 -63
114 -101 274 -92 111 7 203 44 209 85 10 72 -152 125 -313 101z m250 -39 c40
-20 50 -30 50 -50 0 -20 -10 -30 -50 -50 -46 -23 -61 -25 -185 -25 -146 0
-213 17 -225 56 -8 25 0 36 46 59 61 31 106 39 214 37 84 -2 108 -6 150 -27z"/>
<path d="M4718 2674 c-33 -17 -36 -49 -7 -64 53 -29 179 -4 179 35 0 41 -115
61 -172 29z m131 -5 c37 -13 39 -22 9 -43 -28 -20 -117 -21 -143 -2 -49 36 57
72 134 45z"/>
<path d="M3184 2465 c-113 -25 -177 -70 -177 -127 0 -110 293 -168 566 -112
112 23 177 65 177 116 0 52 -70 96 -198 123 -83 18 -286 18 -368 0z m391 -19
c89 -21 147 -53 160 -90 8 -25 6 -31 -22 -57 -61 -54 -217 -84 -398 -76 -228
10 -341 75 -275 159 60 77 335 110 535 64z"/>
<path d="M7780 2319 c-84 -14 -230 -66 -275 -97 -114 -79 -105 -164 24 -213
65 -24 218 -36 271 -21 29 8 15 10 -75 9 -374 -1 -380 198 -10 293 85 22 226
27 284 10 43 -12 54 -4 16 10 -41 16 -171 21 -235 9z"/>
<path d="M2467 2265 c-191 -48 -237 -160 -90 -223 114 -48 350 -55 483 -13
134 42 178 116 105 180 -56 48 -120 63 -290 67 -107 2 -166 -1 -208 -11z m402
-23 c70 -23 121 -64 121 -98 0 -31 -60 -78 -123 -98 -188 -58 -483 -30 -547
51 -26 33 -25 45 5 82 29 34 110 68 195 81 94 15 277 5 349 -18z"/>
<path d="M3285 2114 c-270 -41 -415 -107 -415 -191 0 -62 108 -124 270 -154
97 -18 379 -16 468 4 225 49 290 166 150 267 -71 52 -155 72 -308 75 -74 2
-148 1 -165 -1z m315 -26 c110 -20 200 -81 216 -144 10 -38 -25 -85 -87 -116
-143 -73 -505 -78 -716 -12 -59 19 -133 78 -133 107 0 28 53 79 105 102 159
71 429 98 615 63z"/>
<path d="M7293 1950 c-84 -22 -121 -44 -129 -75 -16 -65 60 -105 213 -113 58
-3 103 -1 103 4 0 5 -37 9 -83 10 -141 1 -241 46 -221 98 25 65 285 101 414
56 63 -22 81 -18 25 6 -90 37 -213 43 -322 14z"/>
<path d="M2530 1859 c-19 -6 -42 -17 -50 -25 -13 -13 -9 -13 22 1 44 18 127
20 163 3 42 -19 34 -55 -17 -78 -33 -15 -38 -20 -20 -20 13 0 37 13 53 30 25
24 28 33 19 49 -6 12 -19 25 -30 31 -30 16 -101 20 -140 9z"/>
<path d="M4065 1859 c-68 -11 -163 -45 -202 -72 -18 -12 -40 -38 -49 -57 -15
-30 -15 -37 -3 -59 58 -103 365 -151 607 -96 170 40 229 123 144 205 -43 40
-111 66 -214 80 -76 11 -214 11 -283 -1z m343 -24 c148 -35 219 -111 162 -173
-55 -59 -188 -92 -370 -92 -267 0 -423 72 -370 170 16 30 89 68 171 90 94 24
313 27 407 5z"/>
<path d="M5020 1815 c-61 -17 -94 -38 -123 -78 -19 -24 -19 -27 -3 -51 31 -48
143 -86 255 -86 l46 0 -31 -19 c-36 -22 -64 -58 -64 -82 0 -32 50 -77 107 -99
183 -68 560 -63 703 10 202 103 -53 252 -407 237 l-112 -4 29 27 c52 48 34 93
-52 130 -69 30 -262 38 -348 15z m337 -27 c102 -41 103 -91 5 -136 -49 -22
-74 -27 -178 -30 -94 -3 -134 0 -180 13 -63 18 -104 48 -104 75 0 20 33 52 77
74 82 41 280 44 380 4z m468 -191 c131 -43 171 -93 117 -146 -62 -62 -275 -97
-494 -80 -175 13 -282 47 -322 102 l-20 27 20 28 c26 35 92 67 180 86 52 12
115 15 254 12 169 -2 192 -5 265 -29z"/>
<path d="M6305 1746 c-111 -29 -161 -67 -153 -118 4 -29 56 -64 127 -86 82
-25 332 -24 420 2 155 47 160 139 9 191 -69 24 -328 31 -403 11z m293 -6 c105
-13 169 -37 195 -72 l21 -28 -20 -27 c-74 -99 -508 -104 -615 -7 -58 52 26
110 201 137 50 8 137 7 218 -3z"/>
<path d="M6890 1743 c-42 -21 -49 -52 -19 -79 31 -28 160 -32 209 -7 42 21 49
52 19 79 -31 28 -160 32 -209 7z m185 -7 c41 -17 45 -39 11 -61 -52 -34 -208
-27 -223 11 -19 50 129 84 212 50z"/>
<path d="M3556 1621 c-23 -43 -20 -52 5 -12 11 18 18 35 15 38 -2 3 -12 -9
-20 -26z"/>
<path d="M4607 1599 c-79 -18 -125 -57 -111 -94 4 -9 25 -26 48 -38 35 -19 57
-22 156 -22 103 0 120 3 165 25 81 40 71 92 -23 124 -50 17 -172 20 -235 5z
m203 -10 c60 -13 106 -48 97 -73 -17 -45 -174 -77 -280 -57 -82 15 -112 31
-112 61 0 59 163 97 295 69z"/>
</g>
</svg>
