<?xml version="1.0" standalone="no"?>
<!DOCTYPE svg PUBLIC "-//W3C//DTD SVG 20010904//EN"
 "http://www.w3.org/TR/2001/REC-SVG-20010904/DTD/svg10.dtd">
<svg version="1.0" xmlns="http://www.w3.org/2000/svg"
 width="1024.000000pt" height="1024.000000pt" viewBox="0 0 1024.000000 1024.000000"
 preserveAspectRatio="xMidYMid meet">
<metadata>
Created by potrace 1.16, written by Peter Selinger 2001-2019
</metadata>
<g transform="translate(0.000000,1024.000000) scale(0.100000,-0.100000)"
fill="#000000" stroke="none">
<path d="M4460 8814 c-30 -8 -93 -33 -139 -55 -357 -175 -426 -677 -145 -1059
143 -196 421 -445 704 -634 176 -117 204 -131 243 -115 88 37 333 219 526 392
259 232 449 501 501 711 54 214 0 438 -140 590 -69 74 -137 118 -237 152 -66
23 -95 27 -183 27 -88 0 -118 -5 -190 -29 -97 -32 -212 -105 -267 -168 l-38
-43 -70 71 c-78 79 -171 134 -271 160 -76 20 -220 20 -294 0z m333 -41 c87
-32 193 -108 245 -175 25 -32 48 -58 52 -58 4 0 24 20 44 45 21 25 66 65 100
90 302 215 676 137 841 -176 63 -121 81 -274 50 -424 -33 -158 -177 -385 -369
-584 -175 -180 -451 -405 -597 -485 l-64 -35 -70 39 c-273 152 -714 537 -848
741 -160 244 -189 514 -80 747 37 80 158 199 243 240 104 50 161 62 285 59 81
-3 125 -9 168 -24z"/>
<path d="M4474 8660 c-256 -82 -383 -342 -308 -634 47 -184 210 -390 487 -621
179 -148 402 -297 444 -297 60 0 341 210 524 392 250 248 364 433 388 631 35
276 -127 499 -392 541 -172 26 -386 -70 -486 -220 l-36 -53 -24 33 c-80 108
-204 198 -320 232 -75 22 -200 20 -277 -4z m261 -24 c116 -31 227 -109 300
-211 45 -63 68 -78 78 -52 16 43 106 141 165 181 92 63 168 88 267 89 152 2
284 -64 362 -181 57 -84 76 -154 76 -267 -2 -189 -90 -361 -311 -604 -121
-133 -369 -337 -521 -430 l-53 -32 -67 39 c-230 137 -578 436 -702 603 -119
161 -173 332 -151 482 27 184 138 321 307 379 61 21 180 23 250 4z"/>
<path d="M7430 8623 c-33 -12 -50 -37 -50 -73 0 -89 120 -113 149 -30 22 65
-36 126 -99 103z m72 -44 c38 -51 -17 -108 -78 -80 -18 8 -24 18 -24 42 0 67
63 90 102 38z"/>
<path d="M2906 8364 c-20 -19 -20 -35 -1 -60 19 -25 19 -38 -1 -30 -22 8 -54
-11 -54 -33 0 -26 19 -39 78 -51 46 -10 54 -16 77 -57 14 -25 25 -47 25 -49 0
-2 -22 -4 -48 -4 -44 0 -52 4 -92 45 -34 34 -51 45 -70 43 -27 -3 -40 -42 -21
-61 18 -18 13 -24 -19 -19 -57 8 -82 -43 -35 -74 14 -9 34 -14 45 -11 22 6 26
-3 9 -20 -19 -19 -6 -58 20 -61 17 -3 35 8 66 38 40 39 45 41 93 38 l52 -3
-31 -47 c-27 -42 -35 -47 -79 -53 -55 -8 -73 -23 -68 -57 2 -19 9 -23 36 -23
17 0 32 -1 32 -3 0 -1 -9 -15 -20 -30 -23 -32 -19 -57 13 -74 18 -9 25 -6 48
20 l27 30 19 -25 c14 -19 24 -24 40 -19 31 10 34 29 14 87 l-17 52 25 48 c14
27 29 49 32 49 3 0 16 -22 29 -49 22 -48 22 -51 6 -90 -20 -51 -20 -75 -1 -91
20 -17 52 -3 62 27 l9 26 22 -36 c21 -36 35 -43 66 -31 20 8 21 57 1 74 -20
16 -19 34 1 26 22 -9 54 11 54 34 0 25 -34 46 -85 55 -34 5 -45 13 -68 49 -15
24 -27 46 -27 50 0 3 23 6 51 6 47 0 53 -3 92 -45 31 -35 47 -45 66 -43 28 3
42 41 22 61 -18 18 -13 24 17 19 30 -4 62 18 62 43 0 25 -32 47 -62 43 -32 -5
-34 -1 -13 26 10 13 11 24 4 37 -16 31 -52 22 -94 -21 -36 -37 -43 -40 -93
-40 l-54 0 34 47 c30 42 40 49 82 55 53 7 76 22 76 49 0 22 -32 41 -56 32 -9
-3 -15 -2 -13 3 3 5 11 22 19 37 17 35 4 61 -33 65 -20 3 -29 -3 -42 -27 -19
-38 -23 -38 -35 -5 -7 18 -16 24 -31 22 -38 -5 -46 -32 -26 -88 l18 -51 -29
-51 -30 -51 -26 51 -26 52 20 51 c22 60 14 89 -25 89 -16 0 -29 -9 -38 -27
-14 -26 -15 -26 -21 -5 -16 48 -52 65 -80 36z m66 -49 c12 -25 25 -45 29 -45
4 0 10 13 14 29 8 39 28 56 44 38 8 -11 6 -26 -10 -64 l-21 -50 31 -61 c17
-33 35 -63 40 -66 5 -4 26 23 46 58 l36 65 -15 46 c-20 57 -20 75 -2 75 8 0
20 -16 27 -35 7 -19 17 -35 21 -35 4 0 17 18 28 40 21 40 46 52 56 26 3 -8 -6
-33 -21 -56 l-26 -41 42 3 c27 2 44 -1 46 -9 5 -15 -26 -29 -80 -38 -32 -5
-43 -14 -72 -60 -19 -30 -35 -59 -35 -65 0 -6 27 -10 68 -10 66 0 69 1 107 40
21 22 45 40 52 40 19 0 16 -27 -7 -50 -11 -11 -20 -22 -20 -24 0 -3 24 -6 53
-8 44 -3 52 -6 52 -23 0 -17 -8 -20 -59 -23 l-59 -3 32 -30 c31 -28 34 -49 7
-49 -6 0 -32 20 -56 45 -44 45 -45 45 -112 45 -37 0 -68 -2 -68 -5 0 -11 33
-71 56 -101 16 -22 35 -34 61 -38 61 -11 73 -16 73 -32 0 -21 -22 -27 -55 -14
-15 6 -30 9 -32 6 -2 -2 7 -21 22 -41 14 -21 25 -46 25 -57 0 -31 -32 -17 -55
23 -27 49 -36 50 -50 9 -12 -37 -45 -55 -45 -25 0 10 7 38 16 64 l17 46 -32
63 c-17 34 -35 62 -40 62 -5 0 -25 -29 -45 -64 -35 -62 -35 -65 -21 -100 8
-19 15 -47 15 -61 0 -40 -27 -30 -42 17 l-15 43 -18 -30 c-35 -56 -47 -66 -62
-54 -11 10 -9 19 12 55 14 23 25 45 25 47 0 3 -17 3 -39 0 -77 -10 -57 31 23
46 50 9 60 18 101 94 l26 47 -73 0 c-73 0 -74 0 -113 -40 -40 -41 -65 -51 -65
-26 0 7 9 25 20 39 l21 26 -53 3 c-45 3 -53 6 -53 23 0 17 7 20 53 20 28 0 52
2 52 5 0 3 -9 16 -20 30 -11 14 -20 31 -20 38 0 24 26 11 70 -33 44 -45 45
-45 112 -45 37 0 68 3 68 6 0 3 -16 34 -35 69 -33 59 -38 63 -79 69 -52 8 -86
30 -71 45 7 7 22 8 45 1 18 -5 35 -8 37 -6 2 2 -7 22 -21 46 -13 24 -22 49
-19 56 10 27 34 13 55 -31z"/>
<path d="M6932 7958 c-16 -16 -15 -33 3 -68 15 -29 15 -29 -18 -32 -25 -2 -33
-8 -35 -27 -5 -32 6 -41 69 -54 45 -10 58 -19 81 -52 15 -22 27 -43 28 -47 0
-5 -24 -8 -53 -8 -48 0 -57 4 -88 36 -46 48 -67 58 -85 43 -17 -14 -18 -51 -2
-67 9 -9 6 -12 -16 -12 -40 0 -66 -17 -66 -43 0 -32 18 -47 58 -47 32 0 33 -1
18 -22 -20 -28 -20 -33 0 -52 23 -23 30 -21 83 29 44 41 52 45 100 45 l52 0
-17 -28 c-35 -60 -49 -72 -98 -81 -57 -11 -81 -30 -71 -60 5 -16 15 -21 41
-21 34 0 35 -1 20 -22 -29 -41 -15 -88 26 -88 11 0 27 13 36 30 20 36 24 37
37 8 12 -28 53 -31 69 -6 8 13 6 31 -8 71 l-18 54 27 53 c29 58 29 58 66 -13
19 -37 19 -41 5 -85 -20 -58 -20 -88 0 -96 29 -11 44 -6 56 19 14 32 19 31 40
-5 20 -36 51 -39 72 -8 14 20 14 25 -4 56 l-20 33 22 -1 c39 -3 45 -1 51 21 8
30 -23 55 -77 63 -42 7 -50 12 -77 54 l-30 47 51 3 c49 3 54 1 100 -42 54 -51
53 -50 81 -36 23 13 24 37 2 62 -15 17 -15 18 15 18 48 0 62 9 62 41 0 32 -23
49 -66 49 -27 0 -27 0 -8 21 14 15 16 24 8 37 -20 32 -54 26 -98 -16 -36 -35
-48 -41 -94 -44 -58 -3 -58 -3 -18 60 21 34 31 40 72 47 25 3 52 9 60 12 36
14 19 73 -21 73 -29 0 -30 3 -9 35 15 23 15 27 0 50 -9 14 -23 25 -31 25 -15
0 -55 -38 -55 -52 0 -4 -4 -8 -10 -8 -5 0 -10 6 -10 14 0 37 -61 44 -74 9 -4
-8 1 -39 10 -67 16 -52 16 -52 -11 -106 l-28 -54 -28 56 c-26 52 -28 59 -15
90 26 63 27 75 11 92 -24 24 -53 19 -68 -11 l-15 -27 -16 32 c-17 34 -51 43
-74 20z m70 -56 c23 -40 28 -44 33 -27 16 49 26 65 40 65 20 0 19 -33 -1 -86
l-16 -42 37 -66 c20 -36 41 -64 45 -61 16 10 70 112 70 131 0 11 -6 37 -14 59
-25 71 4 91 33 23 l18 -42 27 47 c15 26 34 47 41 47 24 0 24 -27 -1 -66 -30
-50 -30 -55 6 -48 16 4 37 4 46 0 25 -10 -1 -34 -45 -42 -64 -10 -69 -14 -105
-75 -20 -33 -36 -62 -36 -65 0 -2 33 -4 73 -4 72 0 73 1 112 40 21 22 45 40
51 40 25 0 24 -19 -1 -49 l-26 -30 53 -3 c45 -3 53 -6 53 -23 0 -17 -8 -21
-53 -25 l-54 -5 26 -24 c14 -14 26 -30 26 -37 0 -30 -25 -23 -69 20 l-47 46
-72 0 c-40 0 -72 -4 -72 -8 0 -5 18 -36 39 -69 36 -56 42 -61 84 -67 56 -9 87
-29 70 -47 -10 -10 -21 -10 -48 -2 -41 13 -46 2 -15 -37 23 -30 26 -70 5 -70
-8 0 -28 21 -44 47 -20 32 -32 43 -35 33 -21 -60 -27 -70 -41 -70 -19 0 -19 9
1 75 15 52 14 55 -10 102 -48 95 -48 95 -91 22 -37 -62 -37 -65 -25 -109 17
-60 17 -82 2 -87 -7 -3 -20 13 -30 38 l-18 43 -25 -44 c-13 -24 -30 -45 -36
-48 -24 -7 -26 29 -4 68 11 21 21 40 21 43 0 3 -16 1 -36 -5 -25 -6 -40 -6
-47 1 -18 18 11 39 63 46 47 7 51 9 90 71 22 35 40 66 40 69 0 3 -32 5 -72 5
-71 0 -73 -1 -114 -41 -29 -29 -48 -40 -59 -35 -15 5 -14 10 9 41 l26 34 -52
3 c-45 3 -53 6 -53 23 0 17 8 20 53 23 28 2 52 6 52 9 0 4 -10 17 -21 29 -14
15 -19 29 -15 40 6 15 14 10 54 -29 l48 -47 72 0 c40 0 72 3 72 8 0 13 -59
110 -72 119 -7 4 -35 13 -63 18 -36 7 -51 15 -53 29 -3 16 1 18 37 14 46 -4
50 3 21 47 -25 37 -26 65 -2 65 10 0 28 -19 44 -48z"/>
<path d="M3657 7170 c-33 -26 -41 -63 -23 -99 17 -33 34 -41 80 -41 39 0 63
23 72 68 5 26 1 36 -24 62 -35 35 -69 38 -105 10z m93 -20 c25 -25 25 -51 2
-80 -35 -43 -112 -15 -112 41 0 27 35 59 65 59 14 0 34 -9 45 -20z"/>
<path d="M1771 7024 c-35 -44 -21 -103 29 -124 56 -23 110 14 110 77 0 70 -96
102 -139 47z m107 -7 c6 -5 12 -25 12 -43 0 -69 -92 -85 -114 -21 -21 60 50
104 102 64z"/>
<path d="M8308 7005 c-35 -20 -48 -44 -48 -90 0 -47 13 -71 50 -90 74 -38 150
9 150 94 0 69 -91 120 -152 86z m85 -17 c32 -17 46 -39 47 -74 0 -42 -27 -73
-71 -80 -81 -13 -127 89 -64 143 29 26 55 29 88 11z"/>
<path d="M2920 6785 c-89 -18 -207 -58 -288 -99 -238 -120 -444 -365 -526
-625 -47 -149 -59 -247 -53 -436 10 -310 60 -549 229 -1085 165 -527 323 -899
417 -984 l21 -19 -30 -34 c-50 -56 -45 -124 20 -263 27 -58 56 -134 64 -170 8
-36 22 -97 31 -136 40 -174 152 -268 276 -233 24 7 64 13 89 14 25 1 78 13
117 25 40 13 75 21 78 18 10 -9 34 -236 35 -314 0 -71 0 -72 -31 -84 -69 -29
-99 -127 -69 -227 10 -31 10 -56 1 -105 -19 -110 -14 -245 10 -295 38 -79 153
-155 289 -192 116 -31 193 -35 299 -17 153 27 238 75 273 153 17 38 23 44 41
39 180 -53 313 -70 445 -56 270 28 387 148 308 315 -51 109 -202 195 -343 195
l-43 0 0 88 c0 109 -22 164 -74 188 -39 19 -39 18 -51 249 -4 61 -17 173 -30
250 -12 77 -21 141 -20 143 2 2 39 13 82 23 43 11 102 34 130 50 29 16 64 29
77 29 40 0 118 60 144 110 37 74 26 151 -48 331 -19 44 -39 122 -51 194 -10
66 -26 139 -35 162 -18 50 -79 108 -123 118 -17 4 -31 8 -31 10 0 2 13 23 29
47 132 198 334 617 398 826 23 75 26 106 27 227 1 124 -2 147 -22 196 -68 168
-232 235 -379 154 -63 -34 -177 -148 -242 -244 -44 -65 -51 -71 -55 -50 -140
607 -171 717 -250 884 -126 266 -339 475 -587 576 -155 63 -388 86 -549 54z
m206 -72 c5 -44 2 -81 -14 -152 -12 -52 -26 -99 -30 -103 -4 -4 -23 12 -40 38
-32 44 -32 47 -27 127 3 54 2 73 -4 57 -5 -14 -10 -41 -10 -60 -2 -58 -12 -62
-55 -23 l-38 36 8 61 c8 57 11 61 39 67 17 4 60 7 97 8 l67 1 7 -57z m129 46
l62 -11 5 -68 c7 -91 43 -164 112 -227 42 -39 51 -53 45 -68 -4 -11 -8 -49 -8
-84 -1 -81 21 -129 88 -195 l49 -48 -5 -82 c-7 -97 4 -136 53 -200 18 -24 34
-47 34 -50 0 -3 -21 -14 -47 -26 l-47 -21 -40 29 c-23 16 -55 36 -72 45 l-31
16 14 67 c27 133 -20 251 -130 319 -15 9 -15 16 -1 75 18 75 14 129 -17 201
-25 57 -86 114 -139 130 l-36 11 7 52 c3 28 3 72 -1 99 -7 45 -6 47 18 47 14
0 53 -5 87 -11z m-361 -56 c-3 -27 -8 -50 -10 -51 -4 -5 -104 52 -104 59 0 6
90 36 113 38 5 1 5 -20 1 -46z m566 0 c76 -31 169 -84 191 -110 9 -10 21 -39
28 -65 11 -49 16 -198 5 -198 -3 0 -18 8 -32 18 -15 11 -60 36 -100 57 -126
66 -189 153 -208 289 l-7 49 29 -7 c16 -4 58 -19 94 -33z m-625 -61 c100 -65
156 -116 204 -185 l31 -46 -12 -70 -12 -70 -45 33 c-25 19 -98 61 -161 95 -63
34 -127 74 -142 88 -30 29 -78 117 -78 143 0 14 89 68 115 69 6 1 51 -25 100
-57z m-162 -168 c26 -30 32 -44 26 -59 -4 -11 -8 -51 -8 -90 -1 -54 5 -82 23
-121 24 -51 84 -120 139 -159 26 -19 27 -22 16 -53 -7 -20 -10 -63 -7 -105 6
-85 37 -154 96 -212 l39 -39 -30 -66 c-43 -94 -43 -94 -103 -60 l-51 30 10 62
c19 115 -17 207 -102 264 -37 24 -38 26 -31 70 16 107 -23 205 -106 262 l-31
21 13 62 c16 80 5 154 -36 226 -17 30 -29 57 -27 59 2 3 22 18 43 34 l39 29
27 -58 c14 -33 42 -76 61 -97z m1180 -62 c97 -111 192 -280 244 -431 l18 -53
-50 -45 c-94 -84 -84 -83 -165 -17 l-70 58 0 70 c0 113 -30 201 -91 270 -30
35 -30 36 -32 164 l-2 129 50 -44 c28 -25 72 -70 98 -101z m-1354 101 c30 -37
54 -127 49 -182 -3 -25 -24 -109 -47 -187 l-43 -140 -56 58 -55 58 6 82 c2 46
15 126 27 178 18 75 29 102 53 128 17 17 34 32 38 32 4 0 17 -12 28 -27z m731
-12 c101 -81 113 -194 39 -380 l-32 -81 -34 51 -35 51 22 94 c28 124 21 155
-9 39 -13 -49 -26 -94 -28 -98 -3 -4 -23 9 -44 30 -47 44 -47 44 -1 226 l27
109 30 -6 c16 -4 46 -19 65 -35z m-881 -143 c-10 -46 -19 -99 -19 -119 0 -20
-3 -50 -6 -67 l-6 -31 -49 41 c-27 23 -49 46 -49 53 0 22 129 205 144 205 2 0
-5 -37 -15 -82z m502 1 c132 -70 200 -120 255 -187 46 -55 114 -149 114 -158
0 -3 -7 -30 -16 -60 l-16 -54 -28 20 c-15 11 -89 49 -164 85 -205 99 -278 182
-280 315 -1 57 6 100 17 100 2 0 55 -27 118 -61z m737 -5 c132 -74 207 -186
219 -323 3 -39 3 -71 0 -71 -14 0 -177 118 -220 159 -65 62 -91 112 -91 181
-1 55 7 90 20 90 4 0 36 -16 72 -36z m-1242 -276 l105 -101 -7 -46 c-4 -25 -8
-48 -10 -50 -2 -2 -35 24 -74 58 -91 82 -91 62 1 -22 l70 -66 -3 -51 -3 -51
-72 59 c-86 70 -117 106 -143 164 -24 55 -36 163 -21 201 9 24 14 26 31 17 12
-6 68 -57 126 -112z m258 65 c34 -33 52 -72 61 -133 8 -59 -5 -119 -62 -268
l-47 -122 -54 52 -53 53 6 75 c8 106 21 170 57 287 34 112 35 113 92 56z m761
-45 c87 -76 103 -191 50 -350 -16 -49 -33 -88 -37 -88 -4 0 -8 5 -8 10 0 6
-11 28 -24 48 l-24 39 19 79 c10 43 18 90 18 104 -1 23 -6 7 -40 -123 l-10
-37 -49 52 c-56 60 -56 47 2 196 23 58 46 102 54 102 7 0 29 -14 49 -32z
m-1175 -152 c12 -25 41 -67 64 -93 41 -47 42 -49 30 -83 -29 -80 -10 -182 47
-252 24 -31 28 -42 19 -57 -5 -11 -22 -52 -36 -93 -36 -102 -35 -101 -124 -80
l-75 17 -12 70 c-20 111 -28 378 -14 475 12 85 32 167 53 218 11 26 12 25 19
-25 3 -29 17 -72 29 -97z m1535 33 l73 -50 -25 -37 c-14 -20 -29 -36 -34 -35
-4 2 -6 -4 -3 -11 6 -17 -22 -76 -36 -76 -16 0 -58 73 -71 122 -12 51 -5 138
12 138 6 0 44 -23 84 -51z m-691 -24 c61 -30 132 -73 158 -95 46 -40 142 -159
134 -167 -2 -2 -21 7 -41 22 -44 29 -60 31 -74 8 -8 -15 -18 -9 -75 45 -36 34
-76 67 -88 73 -13 6 14 -23 60 -66 45 -42 82 -80 82 -85 0 -4 -11 -33 -25 -64
l-25 -56 -63 45 c-136 95 -190 181 -190 302 1 73 6 93 25 93 7 0 61 -25 122
-55z m861 -120 c40 -30 76 -55 81 -55 5 0 38 25 74 55 35 30 67 55 71 55 7 0
61 -213 134 -528 l35 -153 -25 -37 c-27 -39 -31 -52 -15 -52 5 0 33 35 61 78
80 118 173 235 226 282 163 145 333 110 420 -85 27 -62 25 -263 -5 -372 -46
-170 -180 -468 -323 -719 -104 -183 -118 -197 -197 -213 -154 -30 -823 -244
-1263 -404 -195 -71 -399 -137 -423 -137 -14 0 -103 134 -146 220 -96 192
-249 624 -374 1056 -52 181 -111 433 -103 441 2 2 36 -2 76 -9 52 -9 77 -9 89
-2 9 6 32 49 50 95 17 46 36 87 40 91 4 4 40 -17 80 -47 41 -30 79 -55 87 -55
22 0 40 24 65 84 12 31 27 56 32 56 5 0 29 -13 53 -30 24 -16 46 -30 50 -30 3
0 15 20 26 45 11 25 25 45 30 45 6 0 30 -12 54 -26 67 -39 84 -31 125 54 19
39 38 72 43 72 4 0 32 -16 62 -36 29 -20 59 -33 64 -29 6 3 28 42 48 86 19 43
38 79 41 79 3 0 39 -21 80 -46 83 -52 79 -53 109 29 19 54 19 54 99 1 44 -29
60 -35 87 -30 63 12 93 40 142 135 26 50 52 91 58 91 6 0 43 -25 82 -55z
m-1155 -23 c47 -46 64 -105 57 -187 -5 -55 -49 -165 -66 -165 -3 0 -21 13 -40
29 l-34 28 23 62 c31 83 20 88 -14 7 -16 -36 -34 -70 -40 -76 -7 -5 -24 -37
-37 -71 -25 -65 -40 -79 -63 -60 -19 16 6 104 79 291 29 74 56 145 60 158 9
32 32 27 75 -16z m-300 -119 l102 -98 -22 -80 c-30 -113 -27 -107 -47 -96 -39
21 -123 111 -147 159 -37 73 -35 212 4 212 4 0 54 -44 110 -97z m2171 -1636
c49 -32 76 -95 99 -237 14 -78 33 -154 55 -205 70 -170 80 -241 43 -307 -18
-32 -88 -88 -109 -88 -2 0 -4 35 -5 78 0 65 -8 99 -48 217 -26 77 -56 181 -67
230 -32 147 -67 241 -104 281 -19 20 -29 37 -22 39 7 2 19 6 27 8 39 13 99 6
131 -16z m-163 -39 c42 -45 66 -103 97 -238 14 -63 46 -178 72 -255 49 -150
64 -255 43 -294 -10 -21 -100 -69 -157 -86 -22 -6 -23 -4 -23 47 0 88 -17 166
-89 410 -80 268 -100 321 -143 365 -35 36 -39 33 62 62 90 27 102 26 138 -11z
m-226 -55 c43 -46 63 -97 143 -363 69 -228 77 -266 82 -360 l6 -105 -100 -32
c-54 -18 -102 -33 -105 -33 -3 0 -8 33 -11 73 -10 126 -169 644 -228 739 l-29
48 93 29 c50 16 99 30 108 30 8 1 27 -11 41 -26z m-236 -89 c67 -115 234 -674
234 -785 0 -25 -6 -29 -77 -53 -43 -13 -85 -27 -94 -31 -13 -5 -18 7 -29 72
-15 98 -192 649 -231 722 -16 30 -27 56 -25 58 5 5 170 61 183 62 7 1 24 -20
39 -45z m-226 -66 c24 -39 39 -83 138 -393 84 -261 106 -350 100 -400 -3 -27
-10 -32 -65 -52 -33 -12 -77 -25 -96 -28 -35 -7 -36 -6 -60 42 -48 94 -237
719 -237 782 0 25 7 29 78 53 104 35 118 35 142 -4z m-244 -65 c53 -234 191
-686 236 -776 11 -22 18 -41 15 -43 -5 -6 -178 -64 -189 -64 -19 0 -83 159
-170 420 -73 220 -92 290 -96 350 l-4 76 88 31 c49 18 95 32 101 32 7 1 15
-11 19 -26z m-236 -85 c0 -18 9 -69 19 -113 29 -118 188 -582 221 -642 l28
-53 -80 -25 c-106 -34 -120 -33 -157 13 -68 82 -241 612 -241 738 l0 41 93 36
c50 20 98 36 105 36 7 1 12 -12 12 -31z m-230 -101 c0 -130 169 -650 239 -737
l31 -38 -48 -16 c-84 -27 -114 -28 -149 -7 -46 29 -77 89 -118 231 -20 68 -57
174 -82 235 -52 126 -73 195 -73 245 0 70 6 75 98 107 48 17 90 31 95 31 4 1
7 -22 7 -51z m-224 -53 c-10 -51 9 -132 65 -272 27 -68 63 -171 81 -230 38
-130 66 -197 101 -238 l27 -31 -35 -6 c-41 -7 -100 8 -137 34 -40 29 -85 130
-109 244 -22 104 -33 137 -93 270 -62 138 -46 216 49 250 56 20 58 19 51 -21z
m1567 -534 c26 -158 37 -278 40 -430 l2 -144 -30 -15 c-39 -20 -154 -26 -197
-12 l-34 11 -13 203 c-6 111 -18 240 -26 287 -23 136 -32 122 108 167 67 22
125 37 128 34 4 -3 14 -49 22 -101z m-284 -141 c11 -85 22 -204 26 -266 l7
-112 -32 -16 c-63 -32 -86 -119 -61 -227 7 -31 -4 -205 -14 -216 -2 -2 -20 5
-42 16 -21 11 -62 25 -91 32 l-53 12 8 62 c18 139 -6 214 -79 249 l-34 16 -12
178 c-6 98 -17 207 -23 242 -14 76 -18 73 111 102 52 12 133 37 180 55 47 18
86 31 87 30 2 -1 11 -72 22 -157z m-434 -11 c21 -129 26 -183 32 -340 l6 -178
-39 -17 c-46 -20 -175 -24 -216 -5 -27 11 -28 13 -28 98 0 47 -5 140 -12 207
-6 67 -12 137 -12 156 l-1 33 115 38 c145 48 148 48 155 8z m856 -431 c16 -27
19 -47 17 -127 l-3 -94 -50 -19 c-50 -18 -115 -61 -115 -76 0 -4 32 9 72 28
67 34 78 36 167 36 87 0 102 -3 161 -31 121 -57 180 -132 180 -229 0 -44 -4
-52 -44 -91 -101 -96 -348 -126 -591 -69 -106 24 -132 38 -140 77 -11 50 -41
104 -82 144 l-37 37 11 98 c7 60 8 113 2 136 -21 92 -4 179 41 203 18 10 20 8
20 -19 0 -27 5 -31 51 -46 70 -24 171 -16 230 16 28 16 44 32 45 44 1 11 2 24
3 28 2 15 42 -15 62 -46z m-745 -62 c47 -36 59 -86 44 -191 -13 -90 -11 -87
-86 -99 -44 -7 -144 -59 -144 -75 0 -6 17 -2 38 9 159 81 326 59 443 -58 82
-83 101 -177 50 -249 -25 -36 -99 -76 -177 -96 -80 -21 -251 -21 -329 -1 -134
35 -250 108 -284 178 -24 50 -28 162 -10 278 9 59 8 82 -6 139 -16 66 -16 70
3 113 17 38 45 67 66 67 2 0 6 -15 8 -32 4 -48 59 -73 158 -73 60 0 86 5 132
27 55 26 57 28 52 57 -8 38 -1 38 42 6z"/>
<path d="M3485 6589 c22 -18 70 -64 108 -102 37 -38 67 -64 67 -57 0 18 -139
151 -181 173 -34 18 -34 18 6 -14z"/>
<path d="M2830 6533 c30 -26 85 -77 123 -112 37 -35 67 -59 67 -54 0 15 -136
140 -196 181 l-49 33 55 -48z"/>
<path d="M2441 6314 c-18 -71 -31 -157 -30 -198 2 -34 3 -36 6 -11 3 17 13 77
23 135 18 108 19 142 1 74z"/>
<path d="M2948 6170 c55 -43 122 -105 151 -135 28 -31 51 -52 51 -45 0 17
-148 162 -219 214 -101 74 -91 53 17 -34z"/>
<path d="M3635 6219 c22 -18 57 -51 78 -73 20 -21 37 -34 37 -28 0 15 -82 94
-121 116 -33 18 -33 17 6 -15z"/>
<path d="M2557 5918 c-21 -130 -31 -243 -18 -208 11 32 45 299 39 306 -3 2
-12 -42 -21 -98z"/>
<path d="M3813 5625 c-38 -16 -52 -51 -29 -73 13 -14 21 -14 49 -4 42 15 114
15 156 1 47 -17 51 -2 9 36 -55 51 -125 66 -185 40z"/>
<path d="M3828 5380 c-85 -45 -124 -131 -116 -254 6 -88 37 -159 99 -225 l42
-43 154 58 c85 32 158 65 163 73 28 55 18 175 -22 256 -26 52 -83 112 -130
136 -50 25 -140 25 -190 -1z m182 -26 c6 -6 -7 -8 -34 -6 -61 5 -111 -21 -141
-73 -30 -50 -32 -72 -5 -45 11 11 31 20 45 20 29 0 65 -32 65 -58 0 -10 -7
-28 -16 -40 -24 -35 -72 -27 -102 18 l-25 35 7 -63 c7 -78 32 -137 80 -189
l36 -41 -31 -13 c-30 -12 -33 -11 -61 22 -75 89 -108 222 -78 313 15 47 65
104 105 123 33 15 139 13 155 -3z"/>
<path d="M2745 5274 c-62 -32 -105 -96 -105 -155 l0 -32 48 49 c32 34 64 56
102 69 58 21 72 42 45 69 -21 20 -51 20 -90 0z"/>
<path d="M2847 5066 c-104 -39 -153 -124 -145 -255 5 -92 35 -162 95 -226 20
-22 36 -43 35 -47 -3 -12 20 -9 70 8 26 8 86 23 135 32 l88 17 28 55 c87 172
-33 410 -215 426 -32 3 -68 -1 -91 -10z m151 -35 c12 -7 5 -8 -23 -5 -53 7
-122 -28 -149 -75 -58 -101 -25 -261 70 -339 l36 -30 -37 -12 c-34 -11 -39
-10 -65 15 -16 15 -43 55 -61 88 -45 84 -53 193 -19 262 23 48 64 85 115 103
32 12 106 8 133 -7z m-88 -121 c39 -39 14 -100 -41 -100 -30 0 -59 31 -59 62
0 24 35 58 60 58 11 0 29 -9 40 -20z"/>
<path d="M4150 4899 c-98 -44 -139 -120 -89 -165 30 -27 130 -25 185 4 86 44
123 131 72 166 -32 22 -114 20 -168 -5z m151 -9 c45 -25 10 -93 -66 -129 -50
-23 -143 -29 -163 -9 -63 63 140 185 229 138z"/>
<path d="M3514 4878 c-19 -9 -44 -46 -44 -65 0 -4 13 6 29 21 24 23 36 28 65
24 39 -4 47 5 17 22 -24 12 -39 12 -67 -2z"/>
<path d="M3655 4795 c-80 -43 -149 -61 -273 -73 -108 -11 -142 -32 -142 -88 0
-49 15 -79 65 -133 147 -157 424 -118 505 71 40 92 26 232 -25 252 -33 12 -65
5 -130 -29z m142 -32 c20 -49 13 -135 -16 -192 -12 -23 -25 -41 -29 -39 -58
31 -111 50 -150 55 -68 8 -153 -19 -203 -64 l-40 -36 -34 33 c-41 40 -68 94
-60 119 12 40 39 51 147 61 111 10 193 33 262 74 22 14 56 25 74 26 29 0 35
-5 49 -37z m-116 -224 c27 -12 49 -25 49 -30 0 -14 -54 -47 -108 -64 -61 -20
-145 -17 -206 9 -39 16 -39 16 -20 38 58 64 192 87 285 47z"/>
<path d="M2882 4487 c-18 -5 -52 -27 -74 -47 -32 -28 -41 -43 -41 -68 0 -40
17 -59 63 -72 69 -19 166 13 214 70 74 89 -25 161 -162 117z m149 -26 c20 -16
22 -23 14 -47 -26 -72 -179 -122 -235 -76 -21 17 -23 24 -15 47 26 73 180 122
236 76z"/>
<path d="M2370 5655 c15 -29 128 -151 134 -144 3 3 -28 41 -70 85 -41 43 -70
70 -64 59z"/>
<path d="M6950 6785 c-172 -38 -293 -96 -430 -204 -194 -153 -322 -350 -418
-638 -27 -81 -139 -535 -157 -636 -4 -20 -11 -39 -15 -42 -4 -2 -28 26 -53 63
-67 98 -180 207 -250 242 -117 58 -241 29 -319 -75 -60 -79 -73 -130 -72 -275
0 -138 14 -204 80 -372 76 -196 282 -599 360 -705 l24 -31 -33 -7 c-45 -10
-94 -49 -117 -95 -11 -22 -31 -101 -44 -177 -17 -96 -36 -168 -64 -238 -64
-159 -72 -243 -28 -310 24 -37 93 -84 135 -91 20 -4 59 -20 86 -35 28 -15 82
-35 120 -45 39 -9 73 -20 78 -24 4 -3 -1 -58 -12 -121 -21 -125 -41 -334 -41
-434 0 -64 0 -64 -35 -81 -59 -28 -80 -80 -78 -190 l2 -92 -77 -4 c-44 -3
-102 -15 -134 -27 -70 -27 -149 -96 -178 -156 -25 -53 -28 -130 -6 -173 74
-144 407 -195 705 -108 l79 22 6 -26 c3 -15 17 -41 32 -59 140 -167 583 -157
775 16 73 66 84 100 81 238 -6 204 -5 238 2 300 6 52 4 65 -16 100 -13 22 -40
51 -61 64 l-37 24 5 71 c11 138 27 301 31 308 2 3 36 -5 75 -19 38 -13 89 -25
112 -25 23 -1 63 -7 89 -16 99 -30 210 30 257 137 11 27 32 101 45 166 19 86
39 147 77 226 71 151 76 206 23 268 l-25 31 44 62 c114 160 223 424 389 943
288 905 307 1359 73 1753 -141 238 -353 397 -635 479 -108 32 -346 41 -450 18z
m145 -115 c0 -75 -3 -100 -13 -100 -27 0 -91 -41 -125 -80 -57 -67 -78 -191
-47 -284 12 -38 12 -41 -11 -55 -49 -31 -97 -91 -114 -142 -17 -51 -18 -180
-1 -221 5 -11 1 -18 -13 -23 -11 -3 -44 -24 -72 -45 l-52 -39 -41 16 c-59 23
-62 28 -32 64 64 75 85 154 67 240 l-12 54 40 36 c86 80 121 170 101 263 l-10
51 58 61 c68 69 102 145 102 224 0 28 5 52 13 57 15 9 79 20 127 22 l35 1 0
-100z m195 91 c20 -6 26 -17 37 -66 l12 -60 -42 -37 c-23 -20 -43 -35 -45 -33
-2 2 -7 34 -11 72 l-8 68 -2 -83 c-1 -77 -4 -87 -33 -128 -17 -24 -33 -44 -34
-44 -2 0 -10 24 -19 53 -22 74 -34 166 -28 220 l6 47 71 -1 c39 -1 82 -4 96
-8z m148 -35 l34 -12 -53 -33 c-53 -33 -68 -31 -69 9 0 8 -3 26 -7 39 -6 22
-4 23 28 16 18 -4 48 -13 67 -19z m-541 -40 c-11 -112 -94 -224 -208 -282 -30
-14 -71 -37 -91 -50 l-38 -24 -7 27 c-10 44 13 203 35 232 22 29 138 95 227
128 88 32 89 32 82 -31z m674 -12 c33 -15 59 -32 59 -38 0 -29 -51 -115 -86
-147 -22 -19 -91 -63 -154 -96 -63 -34 -130 -73 -149 -87 -19 -14 -37 -26 -41
-26 -3 0 -11 30 -18 66 -12 65 -12 67 14 103 66 89 154 165 257 222 28 16 54
29 56 29 2 0 30 -12 62 -26z m158 -93 l23 -17 -30 -45 c-51 -75 -63 -166 -36
-281 5 -20 2 -27 -14 -32 -35 -12 -91 -78 -108 -129 -12 -35 -15 -71 -12 -122
l5 -72 -36 -19 c-19 -10 -49 -39 -66 -62 -29 -42 -30 -48 -30 -153 l0 -109
-52 -27 c-28 -15 -54 -25 -56 -23 -3 3 -20 36 -39 74 l-35 69 44 44 c64 63 95
137 94 221 0 37 -4 81 -10 99 -9 31 -7 33 44 72 116 88 170 223 131 331 -12
34 -11 36 31 84 24 26 51 70 60 96 l17 49 26 -16 c15 -8 37 -23 49 -32z
m-1191 -63 c-5 -24 -8 -82 -5 -130 4 -85 4 -87 -25 -115 -57 -55 -104 -202
-96 -305 2 -35 -2 -41 -69 -98 -40 -33 -75 -60 -79 -60 -4 0 -36 25 -71 56
-75 66 -75 54 -7 214 60 143 145 271 255 385 51 52 95 95 99 95 5 0 3 -19 -2
-42z m601 -103 c17 -68 31 -135 31 -148 0 -24 -74 -105 -83 -90 -2 4 -15 48
-28 97 -30 118 -37 92 -9 -34 l23 -98 -29 -46 c-16 -25 -32 -46 -35 -46 -12 0
-71 154 -82 212 -19 104 14 189 96 249 73 53 80 47 116 -96z m674 97 c32 -33
60 -137 79 -288 l11 -94 -54 -59 c-30 -32 -57 -59 -60 -60 -3 0 -15 32 -27 72
-11 39 -30 105 -42 146 -30 102 -26 198 13 264 15 26 34 47 41 47 7 0 25 -13
39 -28z m164 -188 c30 -45 54 -87 52 -92 -4 -9 -95 -82 -103 -82 -2 0 -6 35
-10 78 -4 43 -15 111 -26 151 l-19 73 25 -23 c14 -13 50 -61 81 -105z m-451
71 c10 -42 -1 -137 -21 -179 -38 -80 -109 -136 -281 -221 -87 -44 -161 -81
-164 -82 -3 -2 -13 20 -24 48 l-18 52 47 67 c76 112 183 206 315 276 63 34
121 62 127 63 7 0 15 -10 19 -24z m-780 -41 c8 -46 -1 -116 -22 -155 -23 -45
-88 -105 -192 -176 -64 -44 -92 -58 -96 -48 -8 22 10 126 34 188 27 72 101
149 185 194 33 18 65 33 72 33 7 0 15 -16 19 -36z m1308 -170 c11 -28 5 -148
-8 -187 -22 -62 -66 -117 -145 -181 -40 -34 -77 -62 -82 -64 -5 -2 -9 19 -9
47 0 49 1 51 64 107 36 31 67 63 71 72 7 18 -3 11 -79 -56 -53 -46 -58 -45
-70 16 -5 30 -1 39 47 89 60 65 183 173 196 173 5 0 12 -7 15 -16z m-330 -59
c34 -108 56 -214 63 -302 l6 -93 -52 -55 c-49 -52 -52 -53 -60 -32 -5 12 -28
69 -51 127 -35 85 -44 121 -48 187 -4 74 -2 88 22 135 25 51 83 105 97 90 4
-4 14 -29 23 -57z m-738 -109 c24 -59 44 -114 44 -121 0 -8 -22 -37 -49 -65
l-50 -52 -15 54 c-9 29 -20 71 -25 93 -6 27 -9 32 -10 15 0 -14 8 -61 18 -104
l19 -80 -28 -49 c-33 -57 -34 -56 -69 57 -24 77 -27 177 -9 239 15 49 89 130
114 125 11 -2 31 -39 60 -112z m1165 -124 c21 -122 11 -456 -17 -568 -4 -17
-18 -23 -68 -32 -86 -16 -106 -15 -113 6 -3 9 -20 54 -38 99 -31 80 -31 81
-13 105 11 12 30 46 44 73 27 57 32 149 10 200 -12 29 -11 32 31 80 57 63 90
128 99 196 l8 54 23 -73 c12 -40 28 -103 34 -140z m-1537 122 c22 -58 -8 -180
-57 -232 l-21 -23 -17 33 c-16 30 -16 35 -2 51 9 9 11 17 5 17 -6 0 -14 -5
-17 -11 -7 -11 -55 51 -55 71 0 12 130 110 146 110 7 0 15 -7 18 -16z m742
-60 c16 -129 -43 -238 -179 -332 l-77 -53 -25 56 c-31 68 -30 70 67 160 40 38
63 63 51 56 -12 -6 -52 -40 -88 -74 -59 -57 -67 -62 -76 -45 -14 26 -40 22
-89 -13 -23 -17 -41 -26 -39 -20 7 19 123 147 169 185 46 38 258 148 271 140
4 -2 11 -30 15 -60z m-852 -193 c26 -53 35 -62 79 -80 27 -12 57 -21 65 -21 9
0 42 18 73 40 32 22 61 40 66 40 5 0 17 -21 26 -47 29 -80 26 -80 106 -29 39
25 75 46 80 46 4 0 24 -35 44 -79 19 -43 40 -82 47 -86 6 -4 38 9 70 29 32 20
60 36 62 36 2 0 19 -31 38 -70 18 -38 40 -72 48 -75 11 -4 80 23 133 52 3 2
14 -15 24 -37 10 -23 22 -43 26 -46 4 -2 29 9 56 26 l48 30 34 -67 c33 -67 46
-83 67 -83 6 0 43 25 82 56 40 30 76 53 80 50 5 -3 26 -46 47 -96 20 -51 44
-94 52 -97 8 -3 46 0 85 7 38 6 72 9 75 6 16 -16 -57 -309 -157 -631 -133
-428 -220 -666 -315 -855 -59 -117 -131 -230 -147 -230 -27 0 -221 62 -437
140 -436 156 -1006 340 -1225 394 -114 28 -105 20 -198 176 -138 230 -295 575
-345 755 -22 81 -27 121 -28 210 0 133 18 193 77 260 150 170 330 91 556 -242
46 -68 89 -123 97 -123 10 0 6 14 -15 48 l-29 47 28 115 c16 63 52 215 82 338
29 122 55 222 58 222 4 0 35 -25 69 -55 35 -30 69 -55 75 -55 7 0 46 27 87 60
l74 59 26 -39 c14 -22 39 -66 54 -99z m1117 -41 c77 -194 113 -318 99 -335 -7
-8 -18 -15 -24 -15 -6 0 -44 64 -85 143 -67 131 -85 153 -40 49 l18 -42 -37
-25 c-20 -14 -40 -25 -45 -25 -4 0 -20 25 -34 56 -34 74 -36 179 -5 240 22 44
68 85 90 81 7 -1 35 -58 63 -127z m318 26 c19 -78 8 -132 -45 -208 -29 -41
-130 -125 -139 -116 -3 3 -16 43 -30 89 l-24 84 57 59 c61 62 149 136 162 136
4 0 13 -20 19 -44z m-2149 -1681 c7 -4 3 -15 -14 -30 -41 -38 -66 -101 -107
-264 -21 -86 -54 -203 -73 -260 -46 -134 -60 -211 -47 -256 5 -19 6 -35 2 -35
-4 0 -29 14 -55 30 -34 22 -53 43 -68 76 -18 42 -19 52 -8 107 6 34 30 106 52
162 27 68 48 142 63 233 26 148 46 196 96 230 29 20 43 23 91 19 31 -3 62 -8
68 -12z m139 -36 c42 -12 80 -23 84 -26 5 -3 -3 -17 -17 -32 -37 -39 -69 -116
-131 -321 -73 -240 -95 -337 -95 -432 0 -43 -2 -78 -3 -78 -17 0 -122 43 -150
61 -64 42 -62 102 8 319 25 74 58 192 74 262 37 154 52 193 93 236 38 38 40
38 137 11z m251 -75 l76 -24 -43 -87 c-69 -145 -213 -635 -213 -729 0 -39 -3
-45 -17 -40 -10 3 -56 18 -103 34 l-85 27 -3 55 c-5 79 11 152 82 397 82 278
100 325 141 369 37 39 33 39 165 -2z m203 -65 c51 -18 94 -33 95 -35 2 -1 -7
-22 -21 -46 -28 -49 -187 -524 -217 -651 -11 -45 -20 -99 -20 -121 0 -30 -3
-37 -15 -32 -8 3 -54 17 -101 32 l-86 26 7 56 c19 160 176 672 237 770 11 17
22 32 25 32 3 0 46 -14 96 -31z m232 -75 c44 -15 83 -29 87 -33 18 -16 -174
-672 -231 -791 -25 -54 -27 -55 -64 -52 -21 2 -66 13 -100 25 l-62 23 3 54 c5
76 21 135 119 440 88 273 125 360 152 360 9 0 52 -12 96 -26z m225 -78 c63
-22 96 -39 98 -51 8 -36 -22 -154 -89 -362 -82 -250 -142 -408 -167 -440 l-17
-22 -96 30 -96 31 33 81 c46 115 144 434 190 615 21 83 41 152 44 152 3 0 48
-15 100 -34z m229 -82 l101 -36 0 -49 c0 -62 -46 -242 -116 -447 -59 -176 -88
-241 -129 -291 -32 -38 -48 -38 -147 -5 -74 24 -90 36 -69 48 14 9 57 122 138
360 80 236 113 359 113 419 0 20 2 37 4 37 3 0 50 -16 105 -36z m226 -80 c44
-15 83 -32 87 -38 13 -19 9 -110 -8 -165 -8 -30 -33 -95 -55 -145 -22 -50 -57
-150 -78 -223 -56 -193 -101 -258 -177 -256 -30 1 -134 30 -134 38 0 2 15 26
34 54 38 56 56 101 123 296 60 178 103 353 103 420 0 41 3 55 13 52 6 -3 48
-18 92 -33z m185 -55 c93 -40 102 -116 31 -256 -49 -98 -67 -154 -92 -273 -23
-113 -59 -191 -102 -224 -40 -30 -105 -48 -145 -40 l-31 6 29 37 c38 47 71
125 100 231 12 47 50 153 83 235 56 138 61 156 61 227 1 43 5 78 9 78 5 0 30
-9 57 -21z m-1353 -523 c2 -2 -3 -43 -12 -92 -20 -120 -34 -276 -36 -407 -2
-96 -5 -109 -22 -119 -37 -19 -130 -21 -190 -4 l-57 17 0 112 c0 154 32 477
56 558 4 14 21 11 131 -23 70 -21 129 -40 130 -42z m188 -66 c28 -9 68 -20 90
-24 77 -13 135 -37 135 -54 0 -9 -7 -71 -15 -137 -8 -66 -15 -154 -15 -196 0
-114 -6 -131 -50 -156 -25 -15 -46 -38 -60 -69 -20 -40 -22 -56 -17 -123 4
-42 10 -86 13 -98 5 -20 3 -23 -22 -23 -16 -1 -54 -10 -84 -21 -30 -11 -62
-22 -71 -25 -13 -5 -17 8 -22 85 -4 54 -2 112 4 142 16 75 4 136 -35 173 -17
17 -39 36 -48 41 -15 9 -16 24 -7 145 9 131 35 347 45 382 5 16 9 16 57 -3 29
-12 75 -29 102 -39z m528 -176 c-14 -111 -23 -247 -23 -339 0 -82 -4 -116 -13
-124 -42 -34 -199 -31 -256 6 -23 15 -23 15 -17 157 7 138 32 381 41 396 3 4
64 -12 137 -35 111 -36 133 -46 131 -61z m-1063 -343 c0 -25 7 -33 46 -52 63
-30 163 -35 229 -12 46 17 50 20 47 47 -3 28 -3 29 20 14 42 -27 60 -76 52
-138 -5 -30 -7 -109 -5 -176 l2 -120 -32 -35 c-36 -38 -79 -123 -79 -156 0
-17 -11 -25 -62 -41 -251 -81 -541 -62 -665 42 -112 95 -14 287 175 342 89 26
211 16 290 -24 34 -18 62 -28 62 -23 0 15 -51 48 -106 69 l-49 19 -9 69 c-10
82 4 145 39 180 32 32 45 30 45 -5z m730 -81 c0 -11 -5 -20 -11 -20 -26 0 16
-30 69 -50 123 -46 293 -12 276 56 -8 33 11 31 46 -5 39 -38 45 -71 30 -153
-11 -55 -11 -87 -2 -157 19 -142 16 -191 -16 -252 -35 -68 -120 -127 -235
-166 -73 -24 -96 -27 -217 -27 -146 0 -211 16 -292 69 -128 85 -72 281 102
359 117 53 209 53 328 0 30 -13 57 -22 60 -20 2 3 -17 18 -43 35 -41 26 -119
51 -159 51 -19 0 -25 19 -32 109 -4 51 -2 90 5 114 20 58 91 103 91 57z"/>
<path d="M6724 6577 c-58 -43 -144 -131 -144 -149 0 -5 30 22 68 59 37 38 85
83 107 100 60 47 36 40 -31 -10z"/>
<path d="M7389 6529 c-81 -65 -147 -128 -161 -154 -6 -11 20 9 58 45 38 36 94
86 124 112 74 63 60 61 -21 -3z"/>
<path d="M7791 6336 c-1 -5 6 -50 14 -100 8 -50 17 -104 19 -121 3 -16 3 8 1
55 -3 69 -30 200 -34 166z"/>
<path d="M7319 6214 c-72 -53 -229 -207 -229 -225 0 -7 27 18 61 55 34 36 101
98 150 137 82 65 96 79 85 79 -2 0 -32 -21 -67 -46z"/>
<path d="M6589 6218 c-59 -46 -98 -88 -99 -103 0 -5 17 8 38 30 20 22 57 57
82 77 62 51 44 48 -21 -4z"/>
<path d="M7661 6015 c0 -11 10 -87 23 -170 13 -82 24 -133 25 -113 1 21 -6 84
-14 141 -16 108 -33 178 -34 142z"/>
<path d="M6307 5628 c-21 -5 -54 -25 -73 -44 -42 -39 -38 -62 6 -39 33 17 116
20 156 5 37 -15 64 -4 64 25 0 47 -78 74 -153 53z"/>
<path d="M6203 5370 c-109 -63 -170 -203 -149 -345 9 -54 7 -53 208 -123 l118
-41 45 47 c183 191 113 492 -116 492 -42 0 -66 -7 -106 -30z m214 -36 c57 -47
78 -96 78 -184 0 -88 -30 -162 -88 -222 -34 -34 -39 -36 -67 -25 l-30 11 39
41 c48 49 69 89 81 156 24 126 -50 239 -157 239 -29 0 -34 3 -23 11 8 5 41 8
72 6 46 -3 65 -9 95 -33z m-172 -59 c29 -28 31 -42 9 -73 -20 -29 -79 -31 -94
-3 -16 30 -12 59 10 81 26 26 46 25 75 -5z"/>
<path d="M7402 5281 c-17 -11 -12 -52 8 -61 8 -5 34 -16 58 -26 24 -10 61 -37
82 -61 20 -24 40 -43 44 -43 12 0 6 51 -10 83 -43 86 -133 139 -182 108z"/>
<path d="M7247 5064 c-55 -17 -124 -80 -156 -142 -32 -62 -46 -160 -32 -216
19 -78 49 -113 99 -121 24 -4 86 -17 137 -31 l94 -24 41 42 c22 24 55 72 73
108 29 58 32 74 32 150 0 68 -5 93 -22 127 -29 53 -84 98 -139 112 -54 14 -67
13 -127 -5z m154 -40 c14 -7 40 -29 57 -48 81 -92 63 -260 -39 -371 -45 -49
-46 -49 -84 -35 l-25 10 39 39 c55 55 83 114 89 188 6 78 -15 140 -63 182 -36
31 -92 48 -122 37 -12 -5 -15 -4 -8 3 23 22 107 20 156 -5z m-165 -62 c48 -32
32 -105 -24 -110 -43 -4 -62 12 -62 54 0 46 51 80 86 56z"/>
<path d="M5922 4900 c-36 -34 -29 -76 21 -124 124 -120 335 -60 230 65 -59 70
-203 104 -251 59z m176 -29 c113 -58 100 -152 -18 -135 -81 11 -160 68 -160
115 0 51 96 62 178 20z"/>
<path d="M6648 4879 c-30 -17 -20 -27 22 -22 33 5 45 2 65 -17 37 -34 43 -16
7 20 -31 31 -63 37 -94 19z"/>
<path d="M6452 4823 c-41 -16 -60 -155 -32 -237 18 -55 90 -129 153 -157 73
-33 191 -33 263 -1 128 58 205 218 129 268 -14 9 -74 22 -137 29 -135 17 -154
22 -244 69 -66 34 -101 42 -132 29z m120 -54 c95 -48 134 -59 248 -70 116 -11
150 -26 150 -65 0 -36 -25 -86 -60 -119 l-29 -28 -43 37 c-82 71 -209 84 -310
32 l-48 -25 -20 39 c-29 56 -36 145 -17 193 20 47 45 48 129 6z m175 -220 c41
-15 103 -60 103 -74 0 -34 -153 -57 -231 -35 -40 11 -100 49 -106 66 -2 6 15
21 39 33 48 23 146 29 195 10z"/>
<path d="M7209 4489 c-39 -14 -55 -59 -35 -97 35 -69 163 -118 240 -92 66 21
75 80 22 133 -56 56 -158 81 -227 56z m129 -24 c53 -16 112 -65 112 -92 0 -75
-167 -68 -238 10 -29 31 -26 67 8 84 33 17 56 16 118 -2z"/>
<path d="M7854 5646 c-27 -19 -118 -126 -112 -132 3 -2 35 29 72 71 70 77 75
85 40 61z"/>
<path d="M5797 6640 c-53 -42 -41 -148 19 -170 77 -30 144 14 144 93 0 38 -5
49 -31 71 -38 33 -95 35 -132 6z m94 0 c5 0 18 -9 29 -20 28 -28 27 -87 -2
-117 -46 -49 -138 -12 -138 54 0 49 51 100 88 87 8 -2 18 -4 23 -4z"/>
<path d="M4536 6555 c-42 -22 -55 -44 -56 -93 0 -60 41 -102 99 -102 57 0 91
32 98 91 5 41 2 50 -23 78 -35 38 -78 47 -118 26z m95 -34 c55 -55 23 -141
-52 -141 -86 0 -111 116 -34 158 33 18 55 14 86 -17z"/>
<path d="M8706 6314 c-19 -19 -19 -22 -1 -54 19 -34 19 -36 -11 -35 -30 0 -50
-24 -41 -48 3 -9 31 -23 62 -32 47 -14 58 -22 80 -59 14 -24 25 -46 25 -51 0
-4 -23 -5 -51 -2 -44 6 -56 12 -91 52 -22 25 -48 45 -58 45 -26 0 -40 -28 -29
-57 8 -21 6 -23 -26 -23 -28 0 -38 -5 -47 -25 -15 -33 4 -55 48 -55 l33 0 -17
-29 c-14 -24 -14 -31 -3 -45 21 -25 42 -19 83 21 35 34 41 36 95 34 32 -1 59
-3 60 -4 1 -2 -16 -24 -38 -50 -33 -39 -46 -47 -74 -47 -19 0 -46 -5 -60 -10
-21 -8 -26 -16 -23 -38 2 -22 9 -28 35 -32 l33 -5 -20 -30 c-24 -36 -24 -39
-4 -59 24 -24 52 -19 72 13 l18 29 16 -29 c20 -33 38 -37 61 -11 16 17 16 23
2 70 -16 51 -15 52 14 103 l29 52 26 -52 27 -52 -21 -46 c-23 -52 -25 -74 -8
-91 20 -20 48 -14 60 13 14 32 24 32 32 0 8 -33 39 -49 66 -35 24 13 26 47 5
77 -15 21 -14 22 17 25 26 2 34 8 36 27 5 31 -6 40 -64 55 -41 10 -53 19 -71
52 -13 21 -23 42 -23 47 0 4 22 7 50 7 47 0 51 -2 82 -45 37 -49 62 -63 83
-45 18 15 19 52 3 68 -9 9 -3 11 24 10 44 -1 58 7 58 36 0 30 -18 46 -52 46
-28 0 -28 1 -13 24 18 27 11 53 -16 61 -14 5 -34 -6 -68 -34 -41 -35 -56 -41
-93 -41 -25 0 -47 3 -51 6 -3 4 8 26 26 49 29 40 37 44 90 50 40 5 60 12 67
25 14 27 2 50 -30 57 -28 5 -28 5 -11 34 32 57 -32 95 -74 43 -22 -27 -23 -27
-29 -7 -8 24 -29 35 -50 27 -23 -9 -26 -29 -14 -87 11 -50 10 -55 -17 -102
l-29 -49 -24 54 -23 53 21 49 c23 55 20 84 -12 94 -16 5 -27 0 -43 -20 l-21
-26 -17 35 c-18 38 -45 46 -71 19z m66 -49 c25 -51 35 -56 44 -20 8 32 31 52
45 38 7 -7 4 -27 -12 -62 l-22 -52 28 -64 c15 -36 31 -67 35 -70 4 -3 26 23
48 56 l40 61 -15 55 c-10 40 -11 59 -4 66 15 15 27 0 38 -43 l9 -35 28 43 c17
24 36 42 47 42 24 0 24 -24 1 -58 -37 -53 -37 -54 1 -47 41 8 59 1 51 -20 -3
-8 -27 -16 -59 -20 -57 -8 -71 -18 -119 -90 l-26 -40 27 -6 c16 -4 48 -7 72
-8 38 -1 49 4 87 39 24 22 48 40 53 40 23 0 21 -24 -3 -49 -14 -15 -26 -30
-26 -34 0 -4 23 -7 50 -7 43 0 50 -3 50 -20 0 -18 -7 -20 -55 -20 -30 0 -55
-4 -55 -10 0 -5 5 -10 10 -10 17 0 35 -49 23 -61 -6 -6 -24 6 -54 38 -42 46
-47 48 -109 54 -36 3 -67 4 -69 2 -3 -2 9 -32 26 -67 31 -62 34 -65 87 -80 50
-15 67 -31 50 -48 -3 -4 -19 -2 -37 3 -17 5 -32 7 -34 5 -2 -1 7 -21 19 -43
21 -38 20 -73 -2 -73 -5 0 -22 24 -36 53 l-27 52 -18 -42 c-10 -24 -23 -43
-29 -43 -21 0 -21 29 0 77 l21 49 -31 67 c-17 37 -34 67 -38 67 -4 0 -24 -27
-46 -60 l-39 -61 15 -52 c8 -29 13 -58 11 -64 -9 -27 -33 -11 -43 27 -6 22
-14 40 -19 40 -4 0 -15 -16 -24 -35 -19 -39 -42 -54 -59 -37 -9 9 -3 24 21 57
l32 45 -46 0 c-39 0 -46 3 -43 18 2 13 15 18 56 20 51 3 54 5 97 60 25 31 45
63 45 70 0 8 -21 12 -71 12 -66 0 -73 -2 -112 -35 -62 -53 -95 -41 -41 16 l25
26 -46 6 c-88 9 -86 47 2 47 l56 0 -21 23 c-22 23 -30 57 -13 57 5 0 27 -20
50 -45 40 -43 44 -45 112 -51 l71 -7 -17 39 c-34 83 -48 97 -105 114 -38 11
-56 22 -58 34 -4 17 1 18 42 12 l46 -7 -20 33 c-11 18 -20 43 -20 56 0 37 29
25 52 -23z"/>
<path d="M1301 6029 c-19 -30 -19 -31 -30 -10 -14 25 -46 28 -60 4 -6 -12 -4
-31 8 -63 17 -44 17 -48 0 -88 -10 -23 -22 -42 -26 -42 -4 0 -18 18 -30 41
-15 28 -20 47 -14 62 20 53 21 76 5 91 -22 23 -41 20 -57 -10 l-13 -25 -14 25
c-9 19 -22 26 -42 26 -35 0 -45 -22 -27 -58 7 -15 15 -30 17 -35 2 -4 -2 -5
-10 -2 -23 9 -51 -19 -44 -43 6 -17 18 -23 57 -28 41 -6 54 -13 79 -44 17 -21
30 -41 30 -44 0 -3 -21 -6 -46 -6 -38 0 -53 6 -87 35 -22 19 -49 35 -59 35
-24 0 -34 -27 -20 -51 17 -26 16 -27 -20 -31 -29 -3 -33 -7 -36 -34 -3 -26 1
-33 22 -38 13 -3 33 -3 43 1 16 6 16 5 5 -10 -19 -22 -11 -61 13 -66 13 -2 31
10 55 37 28 32 44 41 83 46 26 4 47 4 47 1 0 -23 -49 -86 -70 -91 -54 -12 -74
-21 -84 -36 -13 -22 9 -48 40 -48 24 0 24 -1 9 -29 -17 -34 -12 -58 17 -67 21
-6 58 20 58 43 0 20 17 15 23 -7 6 -23 39 -27 55 -7 8 10 7 27 -5 65 -16 48
-15 53 2 91 10 23 21 41 25 41 3 0 16 -18 28 -39 20 -35 21 -44 11 -89 -7 -27
-9 -57 -6 -67 10 -23 50 -15 62 13 13 28 19 28 33 -4 9 -19 18 -25 39 -22 42
5 50 30 23 68 -22 31 -22 32 -3 26 20 -6 53 15 53 34 0 19 -33 39 -76 46 -35
5 -50 14 -71 40 -14 19 -24 36 -22 38 2 2 20 7 40 11 32 6 41 2 83 -34 53 -46
58 -48 80 -25 19 19 20 36 4 52 -9 9 -6 12 14 12 32 0 51 21 46 52 -2 19 -11
24 -43 28 -25 3 -35 8 -27 13 19 13 14 45 -10 58 -20 11 -26 7 -63 -35 -38
-42 -45 -46 -88 -46 l-47 0 28 45 c21 36 34 46 62 51 49 9 70 22 70 43 0 26
-25 44 -51 36 -21 -7 -21 -6 -5 16 21 31 20 56 -3 69 -30 16 -40 12 -60 -21z
m59 -3 c0 -8 -10 -31 -22 -52 l-21 -36 42 7 c38 6 42 5 39 -11 -2 -11 -18 -22
-43 -29 -22 -5 -46 -14 -53 -18 -11 -8 -62 -99 -62 -112 0 -3 27 -5 61 -5 60
0 61 1 104 48 37 40 44 44 50 29 5 -12 0 -26 -15 -43 l-23 -24 52 0 c45 0 52
-3 49 -17 -2 -14 -15 -19 -51 -21 -26 -2 -47 -5 -47 -8 0 -3 11 -15 25 -27 17
-15 22 -26 16 -36 -7 -11 -13 -10 -35 4 -15 10 -31 26 -37 36 -8 16 -22 19
-79 19 -82 0 -84 -5 -36 -71 31 -42 39 -47 85 -53 42 -6 51 -10 51 -27 0 -17
-4 -19 -35 -13 -19 3 -35 3 -35 0 0 -4 11 -24 25 -44 29 -43 30 -48 10 -56
-10 -3 -24 8 -42 35 l-27 41 -15 -33 c-32 -66 -52 -43 -30 34 9 34 7 43 -23
97 -18 33 -35 60 -38 60 -3 0 -20 -28 -36 -62 l-31 -63 18 -40 c22 -51 23 -65
3 -65 -9 0 -21 14 -27 30 -15 39 -23 38 -41 -4 -16 -39 -33 -53 -48 -38 -6 6
-3 23 11 50 12 23 21 43 21 46 0 3 -15 2 -34 -1 -37 -6 -57 11 -29 25 10 5 34
12 53 16 30 5 40 15 68 66 l33 60 -68 0 c-67 0 -68 0 -104 -42 -40 -46 -61
-46 -38 -1 7 16 15 32 17 37 3 4 -14 5 -37 1 -33 -5 -42 -4 -47 10 -8 20 12
36 41 34 46 -3 49 0 27 24 -12 13 -22 29 -22 35 0 22 26 12 60 -23 32 -33 37
-35 102 -35 37 0 68 3 68 8 0 4 -17 32 -38 62 -29 44 -43 56 -67 58 -55 5 -75
12 -75 28 0 13 7 15 35 11 41 -7 44 3 14 44 -20 28 -20 59 -1 59 5 0 22 -19
37 -42 l28 -43 12 35 c12 35 29 48 39 32 3 -5 -1 -32 -9 -58 -14 -48 -14 -49
17 -101 18 -29 37 -53 44 -53 6 0 23 27 37 60 l26 59 -20 46 c-19 43 -19 65 1
65 5 0 14 -16 21 -35 12 -31 29 -48 29 -27 0 4 9 22 20 40 20 33 50 43 50 18z"/>
<path d="M8523 4730 c-47 -19 -58 -92 -20 -128 32 -30 81 -29 112 3 39 38 27
102 -22 124 -28 13 -40 13 -70 1z m77 -30 c41 -41 13 -100 -46 -100 -37 0 -54
21 -54 64 0 27 32 56 62 56 10 0 27 -9 38 -20z"/>
<path d="M1204 4536 c-58 -49 -25 -136 50 -136 71 0 105 96 50 139 -35 27 -67
26 -100 -3z m99 -27 c17 -24 18 -30 6 -55 -19 -40 -79 -47 -103 -12 -22 30
-20 54 5 79 27 27 66 21 92 -12z"/>
<path d="M5123 4175 c-46 -32 -36 -113 16 -135 57 -23 111 14 111 76 0 59 -76
95 -127 59z m91 -21 c25 -25 20 -71 -10 -90 -55 -37 -117 25 -80 80 19 30 65
35 90 10z"/>
<path d="M8220 3785 c-11 -13 -10 -22 3 -50 l17 -35 -34 0 c-26 0 -36 -5 -41
-20 -9 -30 9 -47 70 -66 48 -15 54 -21 79 -71 l26 -54 -52 7 c-47 5 -58 11
-98 55 -47 51 -69 60 -90 34 -10 -12 -10 -21 -2 -40 11 -23 10 -24 -31 -27
-39 -3 -42 -5 -45 -36 -3 -33 -1 -35 51 -46 25 -6 26 -8 12 -22 -21 -21 -19
-51 4 -64 27 -14 24 -15 77 31 42 36 52 40 83 35 20 -3 44 -6 55 -6 16 0 15
-4 -9 -37 -40 -54 -54 -63 -98 -63 -47 0 -77 -15 -77 -38 0 -25 20 -42 48 -42
l23 0 -20 -26 c-24 -30 -27 -54 -9 -72 20 -20 46 -13 70 18 l22 30 12 -30 c14
-33 43 -40 65 -14 10 12 10 27 1 71 -11 54 -11 55 23 106 l34 51 21 -48 c25
-59 25 -67 0 -116 -26 -51 -25 -76 2 -91 19 -10 25 -8 44 15 26 29 34 32 34
12 0 -8 8 -24 18 -36 14 -18 25 -21 44 -17 34 9 41 31 23 67 -18 34 -19 44 -4
35 17 -11 56 4 61 23 9 32 -10 50 -67 67 -55 16 -71 32 -89 93 -7 20 -4 22 31
21 54 -1 67 -8 108 -61 41 -54 69 -61 87 -23 9 19 9 28 0 37 -21 21 -13 30 18
23 38 -8 60 8 60 45 0 30 -15 40 -57 40 -25 0 -25 1 -10 18 20 22 22 43 5 60
-19 19 -40 14 -87 -23 -33 -26 -53 -35 -82 -35 -68 0 -73 7 -39 54 29 38 35
42 98 51 59 9 67 13 70 33 5 30 -14 52 -45 52 l-24 0 22 29 c24 33 19 66 -11
76 -25 8 -57 -9 -65 -35 -8 -27 -23 -25 -27 3 -2 15 -11 23 -29 25 -41 5 -51
-16 -37 -79 11 -52 10 -57 -16 -102 -15 -26 -31 -47 -35 -47 -4 0 -15 25 -26
55 l-18 55 23 51 c18 38 21 54 14 67 -17 26 -55 27 -74 2 l-17 -22 -13 31
c-10 24 -19 31 -40 31 -15 0 -33 -7 -40 -15z m75 -52 l18 -46 19 36 c18 36 40
47 53 27 3 -5 -3 -27 -15 -49 -11 -22 -20 -49 -20 -59 0 -25 46 -136 58 -140
5 -1 28 24 50 57 l39 59 -13 52 c-13 50 -10 80 7 80 12 0 29 -35 29 -59 0 -31
14 -25 45 19 15 22 34 40 42 40 26 0 25 -30 -1 -64 -14 -19 -26 -37 -26 -40 0
-3 16 -6 35 -6 23 0 38 -6 42 -15 8 -22 4 -24 -63 -31 -58 -6 -60 -7 -103 -66
-24 -32 -42 -61 -39 -63 2 -2 34 -7 70 -11 66 -7 67 -6 111 30 24 20 51 36 61
36 26 0 19 -27 -14 -51 -16 -12 -27 -26 -24 -31 3 -4 28 -8 55 -8 47 0 50 -2
47 -22 -3 -21 -7 -23 -55 -20 -29 2 -53 1 -53 -2 0 -4 10 -20 22 -36 18 -24
19 -33 9 -43 -13 -13 -29 1 -77 67 -18 26 -28 29 -92 34 -40 2 -72 2 -72 -1 0
-3 13 -34 29 -69 27 -62 30 -64 85 -81 43 -14 56 -23 54 -35 -4 -18 -25 -19
-66 -6 l-24 7 26 -52 c15 -28 24 -56 21 -61 -14 -23 -38 -7 -58 40 -12 27 -24
50 -27 50 -4 0 -12 -15 -18 -34 -7 -19 -19 -37 -28 -40 -25 -10 -28 24 -5 70
11 25 21 51 21 59 0 18 -51 135 -59 134 -3 0 -26 -27 -49 -61 -43 -59 -43 -62
-33 -104 16 -63 14 -86 -6 -82 -11 2 -21 18 -26 41 -5 20 -12 37 -15 37 -4 -1
-19 -19 -34 -40 -15 -22 -32 -40 -38 -40 -23 0 -21 32 4 64 14 19 26 37 26 40
0 3 -18 6 -41 6 -33 0 -40 3 -37 18 2 13 16 18 60 22 31 3 58 7 60 10 2 3 23
28 46 56 23 29 42 56 42 61 0 6 -32 13 -71 16 l-72 6 -48 -40 c-26 -23 -52
-38 -58 -34 -17 10 -13 21 14 46 33 32 31 39 -9 39 -48 0 -66 9 -66 32 0 19 5
20 55 15 30 -3 55 -4 55 -2 0 2 -9 20 -21 39 -19 33 -20 36 -4 43 13 4 24 -2
37 -20 46 -63 52 -67 123 -76 38 -6 71 -9 73 -7 2 2 -10 34 -25 72 -28 65 -31
68 -79 82 -52 15 -74 28 -74 45 0 6 17 7 45 4 25 -4 45 -5 45 -3 0 2 -9 23
-19 47 -14 30 -17 47 -10 56 17 20 36 4 54 -44z"/>
<path d="M1564 3532 c-19 -13 -22 -37 -8 -63 20 -35 18 -39 -20 -39 -25 0 -36
-5 -41 -19 -10 -33 5 -49 63 -69 52 -17 60 -23 85 -71 16 -29 27 -54 25 -57
-3 -2 -29 0 -59 6 -39 7 -60 17 -77 37 -13 16 -31 38 -42 51 -39 47 -99 7 -65
-44 l16 -25 -36 7 c-41 7 -65 -7 -65 -40 0 -31 19 -46 57 -46 l34 0 -21 -28
c-23 -31 -19 -58 11 -67 14 -5 36 6 74 35 54 42 55 42 110 34 l55 -9 -41 -47
c-30 -36 -48 -48 -69 -48 -81 0 -122 -29 -100 -70 7 -13 21 -20 42 -20 l31 0
-20 -22 c-31 -35 -35 -46 -23 -68 16 -30 55 -25 82 10 l22 30 13 -31 c10 -25
17 -30 40 -27 l28 3 0 81 c0 72 3 84 28 117 16 21 32 35 36 33 4 -3 16 -26 26
-52 l18 -46 -29 -60 c-22 -45 -26 -63 -18 -76 18 -28 49 -26 74 5 13 15 24 24
27 18 17 -46 30 -60 57 -60 42 0 54 26 34 69 l-17 35 34 -6 c30 -5 35 -3 41
21 9 36 -8 52 -72 73 -55 17 -53 14 -91 111 -6 13 25 16 76 6 22 -5 42 -21 66
-54 37 -51 56 -63 80 -54 20 8 31 52 16 67 -20 20 -12 26 21 16 25 -7 36 -5
50 8 36 32 19 65 -39 78 -29 6 -31 8 -18 21 28 28 12 74 -26 74 -9 0 -38 -17
-63 -38 -44 -37 -50 -39 -99 -34 -29 2 -54 6 -56 8 -2 2 11 23 30 48 34 45 58
56 123 56 44 0 58 12 54 46 -2 24 -8 30 -36 34 l-34 5 21 27 c35 44 22 88 -26
88 -15 0 -30 -11 -42 -31 l-19 -31 -14 29 c-15 32 -49 41 -68 18 -10 -12 -11
-28 -3 -73 10 -55 10 -59 -20 -109 -18 -29 -34 -53 -37 -53 -3 0 -15 27 -28
59 l-23 60 26 51 c28 56 26 85 -6 93 -14 4 -29 -2 -43 -18 l-23 -24 -16 34
c-16 35 -46 46 -73 27z m66 -64 l23 -53 13 31 c16 40 41 61 55 47 8 -8 3 -29
-16 -70 l-26 -60 26 -66 c15 -37 31 -70 36 -72 4 -3 29 23 54 57 39 53 45 68
40 93 -4 17 -9 47 -12 69 -5 33 -4 38 13 34 12 -2 22 -16 28 -41 5 -20 13 -37
16 -37 4 0 19 18 34 40 16 24 34 40 46 40 29 0 25 -30 -10 -78 l-30 -42 46 0
c38 0 45 -3 42 -17 -2 -14 -18 -20 -67 -25 -35 -4 -64 -8 -66 -10 -1 -2 -21
-27 -43 -56 -23 -30 -42 -58 -42 -62 0 -5 21 -11 48 -15 26 -3 59 -8 73 -10
19 -3 38 7 74 36 26 22 53 38 58 36 21 -7 18 -26 -7 -48 -35 -31 -33 -39 12
-39 44 0 79 -21 67 -40 -5 -9 -24 -11 -61 -7 -30 3 -54 3 -54 1 0 -3 10 -18
21 -34 22 -29 20 -65 -4 -58 -6 3 -29 27 -50 55 -38 51 -39 51 -108 58 -39 4
-73 5 -76 2 -3 -3 9 -37 27 -75 l32 -70 59 -16 c46 -13 59 -21 59 -37 0 -21
-16 -24 -56 -9 -15 6 -28 9 -31 7 -2 -2 6 -25 17 -51 12 -25 18 -51 15 -56
-14 -23 -37 -7 -59 43 l-23 52 -22 -42 c-20 -41 -43 -54 -56 -33 -3 5 6 32 20
59 14 28 25 56 25 63 0 18 -52 148 -59 148 -3 0 -27 -29 -53 -64 -44 -59 -46
-65 -38 -102 5 -21 10 -52 10 -67 0 -43 -33 -32 -44 16 -5 20 -12 37 -15 37
-3 -1 -18 -19 -33 -40 -26 -38 -51 -50 -62 -31 -3 4 8 29 24 55 17 26 30 48
30 50 0 2 -18 2 -40 -1 -35 -5 -40 -3 -40 15 0 22 24 32 82 32 34 0 42 6 87
63 27 34 47 65 43 68 -4 4 -38 10 -77 14 l-70 6 -49 -40 c-26 -23 -52 -41 -56
-41 -24 0 -19 26 9 53 l31 32 -52 10 c-43 8 -53 14 -53 30 0 18 6 20 53 17 55
-4 61 2 37 34 -18 24 -19 54 -2 54 7 0 29 -22 50 -49 32 -44 41 -50 84 -56 26
-3 61 -9 77 -12 27 -5 28 -4 22 23 -4 16 -20 51 -34 78 -24 44 -33 51 -82 65
-42 13 -55 21 -55 36 0 21 7 22 63 9 l34 -7 -25 49 c-26 53 -26 74 3 74 12 0
25 -17 40 -52z"/>
<path d="M5022 2813 c-21 -8 -44 -63 -38 -89 9 -34 45 -64 77 -64 34 0 76 36
85 72 12 53 -66 104 -124 81z m89 -34 c38 -38 6 -99 -52 -99 -30 0 -59 31 -59
62 0 26 36 58 65 58 14 0 34 -9 46 -21z"/>
<path d="M7785 2595 c-54 -53 -12 -155 64 -155 45 0 74 19 91 60 15 36 0 82
-34 105 -33 24 -93 19 -121 -10z m123 -21 c12 -14 22 -34 22 -44 0 -23 -39
-68 -60 -71 -54 -6 -90 24 -90 74 0 72 77 96 128 41z"/>
<path d="M2324 2531 c-55 -24 -79 -94 -50 -150 47 -89 186 -54 186 48 0 71
-75 127 -136 102z m75 -26 c33 -16 41 -33 41 -80 0 -67 -87 -99 -135 -50 -35
34 -33 78 4 116 33 33 50 35 90 14z"/>
<path d="M5051 2188 c-13 -7 -29 -21 -35 -31 -9 -15 -7 -22 13 -38 37 -31 130
-21 144 15 16 41 -72 80 -122 54z m80 -18 c42 -23 17 -50 -46 -50 -46 0 -63
23 -33 44 26 19 51 20 79 6z"/>
<path d="M2413 1939 c-35 -10 -56 -39 -47 -63 3 -9 24 -21 46 -28 32 -9 48 -9
81 3 97 33 20 117 -80 88z m76 -20 c35 -12 40 -33 12 -49 -46 -24 -136 4 -111
35 6 8 21 16 33 18 12 2 25 5 28 6 3 0 20 -4 38 -10z"/>
<path d="M7732 1931 c-8 -4 -12 -19 -10 -32 2 -19 10 -25 36 -27 32 -3 62 11
62 29 0 29 -58 49 -88 30z m66 -28 c2 -9 -7 -13 -27 -13 -30 0 -46 11 -34 24
11 11 56 2 61 -11z"/>
<path d="M7455 1801 c-82 -38 -99 -97 -33 -120 84 -29 219 -21 260 16 37 33
10 88 -55 112 -43 17 -127 13 -172 -8z m180 -18 c44 -21 55 -51 26 -74 -44
-36 -198 -36 -243 1 -20 15 -21 20 -8 35 43 52 156 71 225 38z"/>
<path d="M2807 1803 c-13 -12 -7 -41 9 -47 44 -17 88 10 64 39 -13 15 -61 21
-73 8z m47 -9 c20 -7 21 -20 3 -27 -19 -7 -41 8 -33 22 8 13 9 13 30 5z"/>
<path d="M2560 1698 c-38 -19 -46 -28 -48 -56 -3 -29 1 -34 30 -46 82 -34 206
-26 243 15 26 28 6 65 -48 89 -57 26 -122 25 -177 -2z m188 -27 c18 -12 32
-26 32 -31 0 -24 -52 -42 -119 -42 -104 -1 -163 30 -123 65 49 42 157 46 210
8z"/>
<path d="M4973 1529 c-98 -20 -76 -99 27 -99 75 0 115 45 73 82 -23 20 -59 26
-100 17z m88 -35 c30 -36 -71 -63 -116 -31 -23 18 -13 34 28 45 39 10 72 5 88
-14z"/>
<path d="M5690 1512 c-25 -12 -36 -25 -38 -45 -3 -23 2 -30 32 -42 42 -18 72
-19 115 -4 39 14 56 41 42 68 -11 20 -60 41 -95 41 -12 0 -37 -8 -56 -18z
m105 -16 c19 -8 35 -19 35 -24 0 -30 -75 -48 -126 -32 -41 14 -43 37 -4 57 33
17 53 16 95 -1z"/>
<path d="M3243 1469 c-48 -25 -35 -72 25 -88 46 -13 91 -2 109 26 12 17 11 23
-5 43 -21 26 -94 36 -129 19z m107 -27 c20 -16 21 -19 6 -31 -20 -17 -92 -16
-113 0 -13 12 -12 15 7 31 12 10 35 18 50 18 15 0 38 -8 50 -18z"/>
<path d="M7040 1413 c-24 -9 -50 -35 -50 -50 0 -7 9 -22 20 -33 34 -34 149
-22 164 17 18 47 -69 90 -134 66z m91 -23 c23 -13 25 -46 3 -54 -29 -11 -90
-6 -110 9 -19 15 -19 15 5 35 25 22 71 26 102 10z"/>
</g>
</svg>
