<?xml version="1.0" standalone="no"?>
<!DOCTYPE svg PUBLIC "-//W3C//DTD SVG 20010904//EN"
 "http://www.w3.org/TR/2001/REC-SVG-20010904/DTD/svg10.dtd">
<svg version="1.0" xmlns="http://www.w3.org/2000/svg"
 width="1024.000000pt" height="1024.000000pt" viewBox="0 0 1024.000000 1024.000000"
 preserveAspectRatio="xMidYMid meet">
<metadata>
Created by potrace 1.16, written by Peter Selinger 2001-2019
</metadata>
<g transform="translate(0.000000,1024.000000) scale(0.100000,-0.100000)"
fill="#000000" stroke="none">
<path d="M4547 8256 c-84 -24 -157 -66 -223 -128 -111 -104 -161 -246 -150
-428 12 -205 91 -355 296 -560 126 -126 275 -250 425 -352 136 -93 190 -121
220 -114 34 9 188 112 305 207 140 112 331 303 413 414 124 167 177 304 177
457 0 153 -52 282 -151 380 -191 186 -496 182 -700 -10 l-62 -58 -62 63 c-45
45 -86 74 -141 100 -73 35 -84 37 -188 40 -73 1 -128 -2 -159 -11z m235 -17
c108 -23 207 -86 275 -173 l36 -47 44 50 c50 58 148 122 224 148 40 13 85 18
169 18 109 0 119 -2 182 -32 242 -114 340 -399 231 -671 -83 -207 -360 -508
-676 -736 -45 -32 -102 -68 -127 -81 l-46 -23 -78 46 c-151 90 -366 261 -512
406 -234 234 -304 371 -304 593 0 164 40 272 135 368 115 114 291 167 447 134z"/>
<path d="M4605 8136 c-162 -42 -265 -144 -299 -296 -21 -92 -20 -151 4 -246
40 -155 143 -295 354 -480 147 -130 398 -304 438 -304 28 0 154 81 263 168
172 138 357 341 435 476 120 211 101 451 -47 586 -77 71 -144 94 -268 95 -89
0 -107 -3 -160 -28 -83 -39 -158 -98 -191 -151 -16 -25 -32 -44 -35 -43 -4 1
-27 27 -52 58 -108 133 -297 204 -442 165z m196 -32 c108 -32 182 -86 255
-186 20 -26 39 -48 42 -48 4 0 20 20 35 45 36 56 110 123 168 152 164 82 324
60 445 -61 78 -78 106 -146 107 -261 1 -167 -67 -305 -255 -516 -105 -118
-358 -327 -462 -381 l-38 -20 -62 38 c-275 169 -569 443 -653 607 -96 191 -89
378 21 512 95 115 251 162 397 119z"/>
<path d="M7062 8084 c-28 -19 -30 -74 -4 -97 42 -39 112 -9 112 46 0 55 -61
84 -108 51z m83 -28 c34 -51 -39 -103 -77 -56 -22 27 -23 44 -2 64 23 24 61
20 79 -8z"/>
<path d="M3239 7874 c-10 -12 -10 -22 -2 -45 10 -27 10 -29 -12 -29 -27 0 -40
-26 -24 -46 7 -8 31 -19 55 -25 32 -8 49 -20 64 -44 11 -18 20 -35 20 -39 0
-3 -19 -6 -43 -6 -36 0 -49 6 -77 35 -19 19 -42 35 -52 35 -24 0 -34 -28 -19
-51 10 -17 8 -19 -23 -19 -26 0 -36 -5 -41 -20 -9 -28 11 -50 46 -50 26 0 28
-2 18 -19 -15 -23 -5 -51 19 -51 10 0 33 16 52 35 28 29 41 35 77 35 24 0 43
-3 43 -8 0 -4 -11 -24 -25 -45 -18 -25 -33 -37 -50 -37 -45 0 -75 -18 -75 -45
0 -21 5 -25 31 -25 31 0 31 0 15 -25 -21 -33 -20 -52 4 -65 17 -9 24 -6 44 15
27 28 36 31 36 11 0 -20 16 -29 40 -21 23 7 26 36 9 84 -10 27 -8 39 7 72 11
21 22 39 26 39 4 0 16 -17 27 -38 19 -37 19 -41 3 -84 -13 -39 -14 -49 -3 -62
19 -23 40 -20 53 9 l11 25 18 -30 c22 -35 53 -39 69 -10 8 15 7 26 -6 45 -16
24 -15 25 4 25 25 0 44 23 36 44 -3 9 -25 21 -48 26 -22 6 -45 12 -51 14 -5 2
-21 23 -34 46 l-24 43 49 -7 c36 -6 58 -16 84 -42 20 -19 44 -34 53 -34 23 0
33 28 19 51 -10 16 -7 18 21 21 28 3 32 7 32 33 0 27 -4 31 -35 35 -23 3 -31
8 -22 13 18 12 15 45 -6 56 -15 8 -26 3 -57 -29 -34 -34 -45 -40 -82 -40 -24
0 -43 3 -43 8 0 4 11 24 25 45 21 30 32 37 58 37 18 0 41 6 51 13 24 18 17 51
-12 55 -26 4 -25 3 -11 36 9 20 9 29 -1 41 -19 23 -49 18 -62 -10 -12 -27 -28
-33 -28 -11 0 25 -25 37 -45 22 -18 -13 -18 -18 -6 -64 11 -46 11 -54 -10 -93
l-21 -43 -23 44 c-21 42 -22 45 -6 93 15 46 14 50 -3 62 -22 17 -43 10 -52
-17 -5 -18 -8 -17 -25 11 -21 34 -40 39 -60 15z m55 -39 c11 -19 22 -35 25
-35 4 0 12 14 18 30 23 62 44 25 22 -39 -13 -37 -8 -62 24 -115 l24 -39 32 57
c29 50 32 60 22 88 -23 65 -6 108 19 48 7 -16 15 -30 19 -30 3 0 16 16 29 36
22 34 42 38 42 7 0 -8 -9 -28 -21 -45 l-21 -29 38 3 c60 5 52 -23 -11 -37 -44
-9 -53 -16 -83 -60 l-32 -50 61 -3 c60 -3 63 -2 100 34 53 52 62 38 22 -37 -2
-3 16 -5 39 -5 32 1 43 -3 43 -14 0 -11 -14 -16 -49 -20 l-48 -5 21 -19 c11
-11 21 -25 21 -33 0 -23 -25 -14 -60 22 -31 32 -39 35 -92 35 -32 0 -58 -4
-58 -8 0 -15 60 -103 72 -107 7 -2 30 -6 51 -10 24 -4 37 -11 37 -22 0 -12 -8
-15 -39 -10 l-40 5 25 -38 c24 -36 25 -60 3 -60 -5 0 -19 16 -30 35 -12 19
-24 35 -28 35 -4 0 -12 -13 -18 -30 -6 -16 -17 -30 -23 -30 -8 0 -10 10 -6 30
3 17 9 43 12 59 4 21 -1 42 -21 75 -15 25 -30 46 -33 46 -4 0 -20 -24 -36 -54
-28 -53 -29 -54 -13 -99 11 -33 12 -49 5 -53 -12 -8 -38 22 -38 43 0 20 -18
16 -25 -6 -3 -10 -14 -26 -25 -36 -18 -16 -20 -16 -26 -2 -3 9 4 33 16 52 l22
36 -35 -6 c-20 -4 -37 -3 -41 3 -8 14 9 25 59 37 32 8 46 20 73 60 l32 50 -57
5 c-56 5 -59 4 -98 -32 -23 -21 -44 -38 -48 -38 -13 0 -7 37 8 50 26 21 17 30
-31 30 -38 0 -45 3 -42 18 3 14 12 16 46 14 46 -4 51 2 26 29 -10 11 -14 25
-10 35 6 15 13 11 49 -24 40 -40 46 -42 101 -42 32 0 56 3 54 8 -1 4 -16 30
-31 58 -26 46 -33 52 -69 57 -44 6 -64 19 -54 35 4 7 17 7 36 2 34 -10 35 -6
15 30 -8 14 -14 33 -15 43 0 29 24 19 44 -18z"/>
<path d="M6657 7533 c-11 -10 -8 -51 3 -58 16 -10 11 -25 -9 -25 -24 0 -43
-23 -35 -44 5 -14 60 -36 91 -36 12 0 63 -67 63 -82 0 -5 -19 -8 -43 -8 -37 0
-48 6 -82 40 -43 44 -56 48 -76 24 -10 -12 -10 -20 -1 -35 17 -26 16 -27 -20
-31 -29 -3 -33 -6 -33 -33 0 -26 4 -30 32 -33 28 -3 31 -5 21 -21 -14 -23 -4
-51 19 -51 9 0 34 16 54 36 33 32 41 35 83 32 l48 -3 -31 -42 c-22 -30 -38
-43 -55 -43 -42 0 -76 -18 -76 -39 0 -22 27 -41 48 -34 15 6 16 -9 1 -24 -6
-6 -9 -21 -7 -34 5 -36 50 -38 68 -4 l14 26 14 -26 c15 -29 39 -30 56 -3 8 13
6 28 -5 60 -15 41 -15 45 4 86 12 23 24 42 27 42 4 0 16 -17 28 -38 21 -37 21
-40 5 -90 -16 -48 -16 -54 -1 -69 20 -19 46 -11 56 18 8 21 9 21 25 -5 20 -29
48 -34 68 -10 10 13 9 21 -6 46 -16 28 -16 31 -2 25 26 -10 47 3 47 29 0 26
-31 44 -75 44 -17 0 -32 12 -50 37 -14 21 -25 41 -25 45 0 5 19 8 43 8 36 0
49 -6 77 -35 36 -37 74 -46 84 -19 3 8 1 24 -4 34 -9 16 -6 19 22 22 29 3 33
6 33 33 0 27 -4 30 -32 33 -37 4 -37 5 -22 33 7 15 7 24 -2 35 -18 22 -35 17
-78 -26 -33 -34 -46 -40 -80 -40 -23 0 -41 3 -41 6 0 19 46 84 59 84 9 0 33 5
54 11 33 9 38 14 35 37 -2 19 -10 28 -25 30 -26 4 -27 6 -11 31 13 22 5 49
-18 58 -11 4 -25 -3 -40 -20 -28 -32 -30 -33 -37 -7 -6 24 -42 27 -55 3 -6
-11 -5 -31 5 -59 13 -40 13 -45 -9 -89 l-24 -47 -24 44 c-23 43 -23 46 -7 93
13 36 14 52 6 62 -17 20 -47 16 -60 -9 l-12 -22 -14 27 c-13 26 -50 37 -66 20z
m63 -53 c14 -33 30 -40 30 -12 0 10 6 27 14 38 12 15 17 16 27 7 9 -10 8 -22
-6 -59 l-18 -47 29 -53 c16 -30 34 -53 39 -51 6 2 23 27 38 55 27 50 27 53 13
94 -8 24 -12 46 -9 51 9 15 24 6 37 -24 l13 -31 22 36 c24 38 51 48 51 19 0
-10 -7 -27 -15 -37 -22 -29 -18 -41 13 -41 35 0 43 -18 11 -27 -75 -20 -81
-24 -111 -75 l-30 -53 63 0 c59 0 65 2 101 37 26 25 41 34 48 27 7 -7 4 -19
-10 -37 l-21 -27 45 0 c39 0 46 -3 46 -20 0 -17 -7 -20 -45 -20 l-46 0 23 -30
c36 -50 9 -57 -37 -10 -37 38 -42 40 -102 40 -35 0 -63 -3 -63 -8 0 -4 15 -30
33 -57 26 -40 40 -52 72 -60 22 -5 46 -14 53 -18 22 -15 1 -29 -35 -24 l-34 6
21 -35 c21 -33 21 -64 1 -64 -5 0 -20 19 -34 42 l-24 42 -12 -37 c-7 -20 -19
-37 -27 -37 -18 0 -18 17 1 69 14 41 14 44 -16 97 -17 30 -34 54 -38 54 -4 0
-20 -24 -36 -54 -27 -49 -28 -57 -17 -93 16 -53 15 -73 -3 -73 -8 0 -15 4 -15
9 0 5 -5 22 -11 38 l-11 28 -19 -37 c-22 -43 -37 -54 -51 -40 -8 8 -4 22 11
47 11 20 21 38 21 40 0 2 -16 1 -36 -2 -31 -5 -36 -4 -32 13 2 14 16 21 49 27
41 8 49 14 77 61 18 28 32 55 32 59 0 4 -26 7 -57 7 -54 0 -60 -3 -100 -42
-36 -35 -43 -39 -49 -24 -4 11 2 26 16 41 l22 24 -48 3 c-36 2 -49 7 -49 18 0
11 14 16 49 20 l48 5 -21 19 c-11 11 -21 25 -21 33 0 24 29 13 57 -22 27 -33
31 -35 91 -35 34 0 62 3 62 8 0 4 -13 30 -28 57 -24 45 -31 51 -67 55 -70 10
-92 40 -30 40 40 0 42 4 15 45 -14 21 -16 32 -8 42 14 17 31 3 48 -37z"/>
<path d="M3876 6859 c-32 -25 -34 -66 -6 -97 29 -31 73 -29 99 4 27 35 26 59
-4 89 -30 30 -54 31 -89 4z m78 -15 c19 -18 21 -55 4 -72 -19 -19 -65 -14 -82
9 -35 51 34 107 78 63z"/>
<path d="M2277 6742 c-33 -37 -14 -104 33 -113 33 -7 68 11 80 42 11 27 11 33
-7 57 -26 34 -81 42 -106 14z m81 -8 c50 -34 2 -111 -53 -86 -34 16 -38 66 -7
90 21 16 33 15 60 -4z"/>
<path d="M7810 6705 c-52 -56 -15 -145 61 -145 47 0 78 25 85 71 13 81 -90
133 -146 74z m105 -10 c48 -48 20 -118 -47 -118 -36 0 -68 32 -68 70 0 29 42
73 70 73 12 0 32 -11 45 -25z"/>
<path d="M3277 6540 c-265 -45 -502 -209 -639 -442 -198 -340 -167 -760 120
-1623 119 -358 200 -545 280 -651 l39 -50 -23 -28 c-38 -43 -33 -110 16 -216
22 -48 49 -125 61 -171 37 -155 42 -169 70 -214 37 -59 95 -89 158 -81 122 14
189 26 225 41 29 12 41 13 46 5 8 -13 30 -215 30 -277 0 -36 -4 -44 -33 -61
-47 -27 -71 -82 -62 -141 8 -50 8 -77 3 -246 -3 -102 -1 -113 22 -153 30 -53
114 -112 207 -144 58 -20 87 -23 198 -23 111 1 138 4 188 24 70 28 115 64 133
108 8 18 17 33 19 33 3 0 38 -9 78 -21 92 -26 283 -37 376 -20 79 14 166 56
193 92 49 66 28 168 -48 239 -60 55 -123 82 -206 88 l-68 5 0 74 c0 90 -18
137 -63 163 l-34 20 -6 138 c-6 121 -19 235 -42 353 l-7 36 69 17 c37 9 89 28
115 41 26 14 56 25 66 25 35 0 102 53 124 98 27 58 21 107 -31 244 -22 60 -47
148 -56 202 -8 52 -22 114 -31 136 -19 46 -64 89 -104 97 l-27 5 54 86 c108
172 252 478 308 652 22 69 28 105 29 195 1 138 -18 199 -85 267 -128 129 -295
69 -460 -165 l-47 -68 -17 78 c-121 557 -192 742 -359 937 -191 223 -505 342
-779 296z m149 -67 c5 -32 1 -71 -11 -122 -25 -109 -28 -112 -60 -63 -24 37
-27 49 -23 102 2 33 1 60 -4 60 -4 0 -8 -20 -8 -44 0 -25 -4 -47 -8 -50 -4 -2
-22 7 -40 21 -31 24 -32 27 -26 76 4 29 8 54 11 56 4 6 146 18 155 14 4 -2 10
-24 14 -50z m129 38 c28 -6 30 -9 37 -69 8 -75 47 -151 101 -197 37 -32 37
-33 28 -76 -18 -81 22 -181 91 -231 25 -17 28 -25 22 -51 -18 -81 -2 -150 50
-220 21 -29 21 -29 1 -43 -39 -29 -60 -27 -121 13 -53 34 -59 41 -53 63 14 51
9 154 -10 195 -16 37 -74 98 -100 106 -8 3 -8 14 -1 39 17 59 12 146 -11 195
-24 50 -79 101 -118 110 -25 5 -26 7 -26 90 l0 85 40 -1 c22 -1 54 -4 70 -8z
m-325 -38 c0 -50 -12 -56 -58 -31 -23 13 -42 26 -42 29 0 7 57 26 83 28 12 1
17 -7 17 -26z m515 -23 c33 -15 79 -41 101 -58 39 -29 43 -35 54 -102 10 -61
8 -140 -5 -140 -5 0 -101 57 -155 93 -25 16 -56 43 -70 60 -29 36 -59 119 -60
164 l0 31 38 -10 c20 -6 64 -23 97 -38z m-564 -39 c83 -54 131 -98 172 -157
26 -39 27 -42 16 -97 l-12 -56 -41 28 c-22 15 -84 51 -136 80 -108 60 -134 81
-161 133 -30 58 -25 76 24 98 23 11 47 20 53 20 6 0 45 -22 85 -49z m-191 -58
c12 -27 35 -62 51 -79 29 -30 30 -33 19 -75 -25 -93 7 -177 98 -260 48 -44 58
-58 51 -74 -13 -34 -10 -119 7 -168 9 -26 35 -68 58 -94 l43 -47 -30 -60 c-16
-34 -31 -63 -33 -65 -2 -2 -23 6 -47 19 l-43 23 4 81 c3 70 0 87 -20 126 -13
25 -39 56 -60 69 -36 23 -36 24 -31 75 8 80 -11 133 -68 189 l-50 48 12 42
c19 70 -3 167 -49 220 -8 9 -12 20 -9 23 6 7 70 53 74 54 1 0 12 -21 23 -47z
m1011 -90 c41 -43 96 -111 123 -152 49 -73 135 -261 136 -294 0 -17 -50 -68
-95 -96 -21 -13 -27 -11 -83 35 l-61 49 0 72 c-1 86 -25 156 -73 216 -30 37
-33 46 -26 77 7 33 3 112 -8 153 -10 33 14 17 87 -60z m-1102 34 c11 -19 26
-56 32 -83 12 -53 6 -87 -47 -261 l-25 -83 -49 52 -50 53 6 60 c11 114 44 238
72 268 14 15 29 27 33 27 4 0 17 -15 28 -33z m597 8 c50 -29 94 -108 94 -168
0 -41 -57 -227 -70 -227 -4 0 -19 18 -33 39 l-26 39 20 82 c31 131 18 137 -16
7 l-18 -68 -33 32 c-19 18 -34 41 -34 52 0 37 53 237 63 237 6 0 29 -11 53
-25z m-731 -136 c-8 -35 -15 -80 -15 -99 0 -19 -3 -45 -6 -57 -6 -22 -7 -22
-50 13 -42 35 -43 37 -30 62 21 40 107 155 112 149 2 -2 -2 -33 -11 -68z m591
-103 c31 -27 77 -80 104 -118 47 -66 48 -69 36 -107 -6 -22 -14 -42 -17 -46
-4 -3 -30 8 -59 25 -28 17 -79 42 -113 56 -124 52 -197 121 -223 211 -13 45
-12 109 2 134 8 13 216 -107 270 -155z m470 98 c81 -49 110 -79 144 -149 31
-64 49 -168 32 -179 -6 -3 -13 -2 -17 4 -4 6 -39 32 -78 59 -78 52 -142 116
-157 157 -11 29 -13 127 -3 137 10 11 16 9 79 -29z m-1042 -252 c65 -67 68
-72 62 -106 -4 -20 -9 -36 -12 -36 -3 0 -30 21 -60 46 -30 26 -54 42 -54 36 0
-5 27 -34 60 -62 56 -49 60 -55 58 -91 -1 -22 -4 -39 -6 -39 -2 0 -26 16 -52
35 -62 46 -118 108 -137 153 -16 39 -23 159 -10 180 10 16 53 -17 151 -116z
m220 54 c27 -42 38 -116 26 -172 -8 -40 -75 -227 -87 -243 -2 -3 -24 15 -48
39 l-45 44 6 66 c8 91 22 162 51 253 l24 78 28 -20 c16 -11 36 -32 45 -45z
m635 -25 c68 -68 78 -169 28 -301 l-23 -63 -26 44 -26 44 19 75 c11 41 18 82
16 90 -2 8 -11 -18 -21 -58 -10 -40 -21 -74 -25 -77 -4 -2 -25 13 -45 34 l-38
39 17 54 c28 83 63 158 74 158 6 0 29 -18 50 -39z m-1024 -73 c10 -38 31 -77
60 -113 39 -48 44 -58 35 -80 -24 -62 -7 -153 38 -214 23 -31 24 -37 13 -65
-7 -17 -22 -57 -33 -88 -22 -64 -22 -64 -108 -44 l-55 12 -12 85 c-15 107 -16
338 -2 415 13 73 41 173 45 159 1 -5 10 -36 19 -67z m1322 -19 c57 -37 62 -44
49 -58 -7 -9 -26 -40 -40 -69 -31 -61 -42 -59 -77 9 -26 52 -26 159 -1 159 3
0 34 -19 69 -41z m-610 -9 c110 -51 168 -95 226 -169 26 -32 47 -62 47 -65 0
-4 -18 6 -40 20 -37 25 -42 26 -58 11 -17 -16 -21 -14 -58 24 -21 22 -52 50
-69 61 -16 12 1 -11 39 -50 l69 -71 -18 -41 c-10 -23 -22 -43 -27 -46 -13 -8
-131 80 -162 120 -32 43 -56 107 -56 151 0 38 10 95 17 95 3 0 43 -18 90 -40z
m761 -118 c30 -23 57 -42 61 -42 4 0 32 23 63 50 31 28 59 47 62 42 11 -18
136 -544 136 -572 0 -8 -9 -26 -20 -40 -22 -28 -25 -40 -10 -40 5 0 33 35 61
78 71 105 160 213 203 246 105 80 209 75 288 -12 99 -110 90 -324 -27 -597
-63 -147 -193 -402 -254 -497 -38 -59 -57 -79 -78 -84 -200 -44 -686 -198
-1118 -354 -110 -40 -235 -83 -278 -95 l-78 -23 -43 62 c-52 73 -92 151 -151
294 -110 270 -278 818 -330 1080 l-7 33 39 -8 c21 -4 56 -8 77 -8 l40 0 32 80
c18 44 38 79 44 77 6 -1 36 -21 65 -43 30 -22 62 -39 72 -37 10 2 30 27 46 58
30 58 35 60 78 29 38 -26 47 -24 63 16 17 40 29 43 71 15 53 -35 71 -27 106
43 17 34 33 64 35 66 2 2 22 -11 46 -28 23 -17 48 -31 56 -31 7 0 26 29 42 64
16 36 34 67 39 71 6 3 35 -11 65 -31 31 -20 61 -34 69 -31 7 3 19 23 27 46 7
23 18 41 25 41 6 0 33 -14 58 -31 76 -50 137 -29 183 64 40 78 64 109 77 99 7
-5 36 -28 65 -50z m-985 -21 c57 -63 62 -159 15 -248 -13 -24 -25 -43 -28 -43
-3 0 -18 11 -34 24 l-30 23 22 57 c27 71 18 73 -13 2 -13 -30 -28 -57 -33 -60
-5 -3 -19 -32 -33 -66 -35 -90 -74 -76 -49 18 23 87 123 332 136 332 6 0 28
-18 47 -39z m-246 -105 l75 -71 -23 -77 c-13 -43 -26 -78 -30 -78 -4 0 -29 20
-57 45 -83 75 -120 175 -92 250 9 23 12 24 31 14 12 -6 55 -43 96 -83z m1819
-1372 c51 -24 71 -66 94 -198 13 -74 34 -152 57 -205 43 -105 54 -191 29 -240
-16 -30 -68 -71 -91 -71 -6 0 -10 31 -11 73 0 54 -8 94 -33 162 -18 50 -46
146 -62 215 -33 137 -61 210 -90 236 -26 23 -24 32 9 37 53 8 64 7 98 -9z
m-134 -34 c36 -28 57 -77 94 -225 18 -71 49 -181 69 -243 41 -134 45 -192 13
-222 -19 -17 -115 -60 -136 -60 -4 0 -9 34 -10 75 -3 116 -130 541 -182 614
-21 29 -27 43 -18 46 45 15 115 34 129 34 9 1 28 -8 41 -19z m-173 -67 c18
-22 41 -73 60 -132 111 -355 113 -365 118 -462 l6 -96 -83 -27 c-46 -15 -84
-25 -86 -23 -2 1 -8 32 -13 67 -23 140 -134 500 -186 597 l-33 63 72 21 c39
11 76 22 81 24 24 8 35 3 64 -32z m-206 -70 c29 -54 88 -226 143 -418 25 -89
37 -152 38 -199 l1 -70 -60 -18 c-33 -10 -68 -21 -77 -24 -14 -4 -18 1 -18 23
0 15 -9 64 -20 108 -27 110 -163 517 -187 557 l-20 33 76 27 c42 14 81 27 87
27 6 1 22 -20 37 -46z m-104 -312 c113 -346 129 -421 94 -440 -10 -5 -47 -17
-82 -27 l-63 -17 -19 24 c-31 40 -199 582 -211 679 -3 23 3 27 77 52 l80 27
22 -26 c12 -15 57 -134 102 -272z m-284 133 c41 -169 137 -477 190 -605 9 -24
-152 -79 -167 -58 -44 63 -208 554 -215 645 l-5 61 83 29 c46 17 85 29 87 28
1 -1 13 -46 27 -100z m-213 -28 c6 -68 162 -551 199 -615 11 -18 17 -36 14
-39 -9 -10 -118 -42 -142 -42 -49 0 -96 88 -172 326 -58 180 -84 289 -79 335
3 32 7 35 83 65 44 18 83 33 86 33 4 1 9 -28 11 -63z m-199 -73 c12 -128 140
-520 196 -599 l29 -42 -50 -16 c-68 -22 -91 -20 -126 9 -37 31 -55 68 -92 195
-17 55 -48 145 -70 199 -49 120 -65 187 -56 232 6 32 11 35 74 55 37 12 72 22
78 23 7 1 14 -23 17 -56z m-187 -66 c0 -62 7 -87 46 -182 25 -60 56 -144 67
-185 33 -115 52 -161 82 -206 l28 -42 -26 -5 c-37 -7 -94 11 -125 40 -35 33
-63 101 -83 199 -9 43 -27 105 -41 137 -13 31 -36 85 -50 119 -40 95 -21 156
59 185 17 6 34 12 37 12 3 1 5 -32 6 -72z m1318 -359 c23 -124 37 -255 43
-390 l6 -156 -53 -16 c-63 -19 -77 -19 -134 -5 l-43 11 -6 151 c-4 84 -13 197
-22 251 -8 55 -15 105 -15 112 0 7 26 20 58 29 31 8 73 22 92 29 56 22 67 20
74 -16z m-230 -198 c8 -80 17 -179 20 -221 5 -75 5 -75 -24 -93 -49 -28 -64
-69 -55 -145 8 -71 8 -160 -1 -203 -5 -27 -6 -27 -34 -13 -16 8 -51 20 -78 26
l-49 10 4 92 c5 85 3 95 -19 127 -13 19 -36 41 -50 48 -25 12 -26 17 -33 110
-7 116 -24 270 -31 294 -7 22 16 34 118 57 45 11 110 31 143 45 33 13 63 21
66 18 4 -4 14 -72 23 -152z m-374 38 c0 -2 7 -52 15 -113 8 -60 15 -165 15
-233 l0 -122 -27 -11 c-50 -20 -135 -23 -174 -6 l-36 15 -7 163 c-4 90 -9 182
-12 205 l-6 40 99 31 c87 28 133 38 133 31z m702 -359 c40 -21 57 -99 42 -190
-5 -31 -11 -38 -35 -43 -30 -6 -114 -54 -106 -62 2 -2 31 8 63 23 49 23 73 27
139 28 71 0 88 -4 147 -33 136 -67 186 -194 105 -270 -66 -62 -226 -93 -385
-74 -126 15 -232 47 -232 70 -1 27 -34 94 -66 131 -28 34 -29 38 -31 160 -2
70 -4 141 -5 159 -1 19 7 43 18 59 24 32 50 44 41 19 -19 -49 156 -72 238 -31
31 16 39 25 37 43 -4 25 1 27 30 11z m-578 -121 c17 -31 18 -44 10 -113 -10
-86 -1 -77 -100 -104 -39 -10 -100 -49 -91 -57 2 -2 31 8 63 23 80 37 166 37
244 1 107 -49 160 -115 160 -202 0 -180 -388 -234 -614 -85 -79 53 -91 78 -91
194 1 55 2 125 4 155 2 30 0 82 -4 115 -7 57 -5 63 20 93 33 39 43 40 47 5 7
-60 140 -87 233 -48 56 24 68 35 54 51 -6 7 -8 18 -4 24 10 17 46 -10 69 -52z"/>
<path d="M3720 6378 c115 -109 160 -148 142 -121 -25 35 -106 109 -137 125
-18 9 -18 9 -5 -4z"/>
<path d="M3170 6323 c25 -21 72 -63 104 -93 32 -30 57 -48 54 -40 -5 17 -152
147 -183 161 -11 6 0 -7 25 -28z"/>
<path d="M2840 6123 c-6 -21 -12 -69 -15 -108 -2 -38 -1 -56 1 -40 3 17 11 64
19 105 15 82 13 104 -5 43z"/>
<path d="M3235 6048 c22 -18 80 -71 129 -118 49 -47 84 -75 78 -64 -16 30
-173 175 -214 197 -32 17 -31 17 7 -15z"/>
<path d="M3835 6074 c52 -53 126 -115 117 -99 -13 25 -58 67 -97 91 -16 10
-25 13 -20 8z"/>
<path d="M2936 5766 c-16 -102 -20 -164 -12 -155 7 7 38 250 33 255 -2 3 -12
-42 -21 -100z"/>
<path d="M3993 5534 c-23 -23 -24 -27 -10 -41 13 -13 23 -14 65 -4 37 10 60
10 92 1 50 -14 60 -8 34 21 -47 53 -139 65 -181 23z"/>
<path d="M4012 5333 c-30 -19 -51 -45 -69 -81 -46 -95 -20 -226 64 -316 l36
-39 126 48 c69 26 131 52 138 57 23 19 26 109 5 175 -49 155 -189 228 -300
156z m156 -12 c8 -5 -4 -8 -30 -7 -56 1 -94 -24 -119 -77 -34 -77 -16 -182 45
-254 l35 -40 -24 -11 c-21 -10 -27 -7 -56 25 -68 79 -94 206 -57 278 18 33 64
79 88 88 24 9 104 8 118 -2z m-62 -116 c15 -23 15 -27 0 -50 -28 -42 -96 -24
-96 25 0 49 68 67 96 25z"/>
<path d="M3083 5239 c-31 -20 -73 -90 -73 -122 0 -24 5 -22 49 22 21 21 58 45
82 53 36 12 44 19 44 39 0 20 -5 24 -35 27 -22 1 -47 -5 -67 -19z"/>
<path d="M3155 5056 c-120 -72 -122 -270 -4 -398 l35 -37 109 25 c61 15 115
28 122 30 7 2 22 22 34 46 57 111 -2 288 -115 342 -52 24 -133 21 -181 -8z
m150 -6 c16 -7 12 -9 -20 -9 -86 -2 -140 -69 -138 -173 1 -71 31 -137 80 -177
l35 -29 -30 -10 c-27 -9 -33 -7 -65 26 -53 56 -70 98 -74 182 -3 64 -1 81 19
115 37 65 132 101 193 75z m-67 -106 c41 -29 23 -84 -28 -84 -48 0 -67 45 -33
82 20 22 32 23 61 2z"/>
<path d="M4279 4922 c-136 -71 -85 -181 63 -138 95 27 149 113 96 150 -35 25
-99 20 -159 -12z m149 -4 c19 -19 14 -42 -15 -70 -50 -46 -120 -66 -167 -48
-75 28 25 129 130 130 22 0 45 -5 52 -12z"/>
<path d="M3736 4898 c-24 -34 -19 -45 8 -19 18 17 33 22 56 19 19 -3 29 -1 27
6 -2 6 -20 12 -39 14 -28 2 -40 -2 -52 -20z"/>
<path d="M3880 4844 c-85 -40 -125 -51 -240 -63 -68 -8 -88 -13 -102 -31 -27
-33 -22 -72 15 -126 63 -93 185 -134 301 -100 134 39 215 195 158 305 -26 53
-49 55 -132 15z m112 -16 c24 -45 8 -165 -27 -206 -2 -2 -22 6 -45 18 -89 46
-191 34 -264 -31 l-33 -28 -30 32 c-84 88 -63 147 51 147 72 0 147 19 221 54
84 41 110 44 127 14z m-87 -204 c20 -9 34 -22 32 -28 -2 -6 -24 -21 -50 -35
-54 -27 -154 -33 -205 -12 -38 16 -39 21 -8 50 55 51 154 62 231 25z"/>
<path d="M3246 4589 c-147 -34 -176 -169 -36 -169 83 1 170 60 170 116 0 42
-66 68 -134 53z m101 -31 c21 -17 15 -42 -14 -70 -34 -32 -73 -48 -119 -48
-77 0 -96 41 -43 91 46 43 139 58 176 27z"/>
<path d="M2798 5555 c26 -39 108 -116 94 -90 -6 11 -34 43 -63 70 -36 34 -46
41 -31 20z"/>
<path d="M6725 6543 c-179 -24 -349 -110 -489 -249 -192 -190 -268 -362 -377
-844 -23 -102 -44 -191 -48 -198 -5 -9 -22 8 -51 50 -58 81 -149 172 -200 198
-125 64 -254 15 -312 -117 -71 -159 -38 -340 126 -692 69 -150 178 -349 218
-401 l19 -24 -37 -13 c-78 -27 -96 -60 -125 -219 -12 -68 -38 -163 -61 -224
-44 -117 -51 -185 -24 -238 19 -36 76 -77 121 -88 17 -3 44 -15 60 -24 17 -10
64 -28 105 -41 41 -12 77 -23 79 -25 1 -1 -4 -47 -13 -101 -18 -112 -36 -294
-36 -370 0 -49 -2 -54 -31 -68 -47 -25 -73 -92 -65 -170 l6 -61 -80 -12 c-169
-24 -274 -118 -272 -244 1 -85 72 -142 216 -173 99 -22 254 -16 370 14 94 25
96 25 96 6 0 -22 59 -84 100 -105 207 -105 560 -31 641 136 20 42 21 55 15
157 -10 141 -10 149 -1 223 9 73 -8 115 -60 145 l-34 20 5 72 c6 90 24 250 28
254 2 2 23 -4 47 -13 54 -20 154 -36 236 -38 55 -1 65 2 100 30 51 42 79 100
104 219 13 60 40 140 67 199 57 127 63 168 28 219 l-26 38 39 57 c96 142 189
367 321 782 153 479 206 752 197 1020 -6 192 -25 272 -103 429 -48 94 -72 128
-142 202 -139 147 -288 231 -477 270 -82 17 -203 22 -280 12z m232 -29 c29 -4
32 -8 38 -56 7 -48 6 -52 -28 -86 l-35 -35 -10 64 -10 64 0 -71 c1 -63 -2 -76
-27 -109 -29 -37 -29 -37 -38 -13 -29 77 -40 215 -20 250 4 7 51 4 130 -8z
m-162 -79 l0 -84 -28 -7 c-42 -9 -103 -69 -123 -119 -16 -43 -16 -147 0 -200
5 -15 -3 -26 -34 -47 -57 -40 -84 -97 -84 -183 -1 -38 2 -82 7 -97 5 -19 4
-28 -4 -28 -6 0 -34 -16 -61 -36 -46 -32 -52 -34 -84 -24 -18 6 -36 16 -39 21
-4 5 7 28 24 52 43 59 58 123 44 184 -11 48 -11 48 23 76 69 57 103 148 85
228 -10 42 -9 44 27 75 54 46 94 125 101 198 6 58 8 61 36 67 17 4 48 7 70 8
l40 1 0 -85z m313 41 c6 -7 7 -7 -42 -35 -21 -12 -41 -20 -43 -17 -3 2 -7 23
-10 45 l-6 41 48 -14 c26 -8 50 -17 53 -20z m-481 -30 c-10 -98 -72 -183 -172
-233 -27 -14 -62 -34 -77 -44 -14 -11 -29 -19 -32 -19 -9 0 -7 131 4 175 10
45 39 73 115 110 42 21 150 63 164 65 2 0 1 -24 -2 -54z m577 -6 c51 -22 55
-33 27 -88 -28 -54 -75 -93 -176 -147 -49 -26 -104 -58 -122 -71 -17 -13 -36
-24 -41 -24 -5 0 -14 23 -20 52 -12 49 -11 53 14 89 50 73 220 209 260 209 7
0 33 -9 58 -20z m115 -68 l34 -28 -29 -44 c-27 -41 -29 -50 -29 -144 l-1 -101
-46 -45 c-36 -36 -48 -56 -57 -99 -6 -29 -9 -74 -5 -100 5 -44 5 -47 -26 -60
-17 -7 -43 -32 -58 -54 -25 -37 -27 -49 -26 -133 l1 -91 -43 -21 c-49 -24 -51
-23 -84 56 l-22 52 39 43 c59 64 77 120 70 217 -5 73 -3 80 16 93 103 67 163
208 128 301 -9 21 -5 30 24 62 19 21 42 57 51 81 9 24 20 43 23 43 4 0 22 -13
40 -28z m-996 -137 c-2 -102 -3 -106 -37 -152 -41 -57 -66 -137 -67 -219 l0
-59 -65 -53 -64 -53 -52 48 c-29 26 -55 49 -57 50 -17 11 85 238 149 334 37
53 179 209 191 209 3 0 3 -47 2 -105z m515 -27 l31 -123 -37 -38 c-42 -43 -35
-50 -67 66 -25 88 -29 61 -6 -37 l21 -87 -26 -41 c-24 -38 -28 -40 -39 -24 -7
9 -25 55 -40 101 -32 97 -30 163 5 221 20 32 92 84 116 84 6 0 25 -55 42 -122z
m611 -6 c11 -48 23 -119 27 -159 l7 -72 -47 -47 c-38 -37 -50 -44 -57 -33 -5
8 -9 19 -9 25 0 6 -13 55 -30 109 -42 138 -37 227 17 287 15 17 17 17 44 -2
22 -17 31 -36 48 -108z m101 -64 c22 -31 40 -63 40 -70 -1 -7 -20 -27 -44 -45
l-44 -32 -6 68 c-4 37 -13 92 -21 122 -8 30 -15 59 -15 64 0 13 39 -34 90
-107z m-380 12 c0 -60 -38 -137 -92 -186 -23 -20 -89 -59 -147 -86 -58 -27
-117 -58 -132 -69 -15 -10 -29 -19 -32 -19 -3 0 -12 20 -20 44 -15 44 -15 44
18 93 80 118 141 170 295 254 98 53 110 49 110 -31z m-674 39 c12 -20 6 -116
-9 -145 -21 -39 -87 -101 -176 -164 l-74 -52 5 69 c9 125 62 205 183 274 57
32 61 33 71 18z m1120 -175 c11 -42 -2 -137 -24 -181 -12 -22 -56 -73 -99
-112 l-78 -71 -3 47 c-3 46 -2 48 58 101 33 30 59 57 56 59 -3 3 -29 -15 -58
-41 -29 -25 -56 -46 -59 -46 -4 0 -10 17 -14 38 -7 37 -6 38 95 135 56 53 106
97 111 97 5 0 12 -12 15 -26z m-277 -64 c27 -84 51 -209 51 -269 0 -42 -4 -51
-45 -91 -40 -39 -45 -41 -51 -24 -4 10 -23 57 -42 104 -36 89 -50 179 -38 245
8 39 82 124 96 109 4 -5 17 -38 29 -74z m-631 -72 l41 -102 -42 -46 c-23 -26
-45 -45 -48 -44 -3 2 -11 29 -18 61 -13 56 -30 100 -31 77 0 -6 9 -46 20 -89
17 -67 18 -81 6 -94 -7 -9 -17 -26 -20 -38 -12 -38 -22 -27 -46 50 -29 89 -31
187 -5 237 20 39 71 90 90 90 7 0 31 -46 53 -102z m971 -31 c27 -103 35 -251
22 -393 -17 -179 -16 -176 -87 -191 -32 -7 -64 -10 -70 -8 -7 2 -26 41 -43 86
l-32 82 25 36 c14 20 30 49 35 64 14 36 14 118 1 152 -9 24 -6 32 29 71 48 55
72 105 79 162 6 55 15 41 41 -61z m-1286 11 c8 -52 -12 -127 -43 -161 l-28
-32 -13 27 c-10 22 -9 31 2 44 12 15 12 16 -8 10 -18 -6 -25 -1 -38 25 -15 27
-15 33 -3 46 24 23 113 81 119 77 4 -2 9 -18 12 -36z m621 6 c11 -30 6 -125
-9 -161 -9 -20 -27 -52 -42 -71 -27 -36 -138 -122 -157 -122 -6 0 -19 21 -30
46 l-19 46 69 71 c48 48 57 61 29 40 -22 -17 -53 -45 -69 -62 -28 -29 -31 -30
-47 -15 -17 15 -22 14 -66 -12 l-48 -28 42 50 c77 92 141 144 235 189 50 25
95 45 99 45 4 0 10 -7 13 -16z m-719 -194 c24 -50 34 -61 69 -74 56 -22 59
-21 118 19 28 19 54 32 58 30 4 -2 13 -23 20 -46 8 -22 19 -43 26 -46 7 -2 36
12 66 31 29 20 56 36 60 36 4 0 24 -31 43 -70 19 -38 41 -70 48 -70 6 0 32 13
57 30 l45 30 27 -53 c39 -79 47 -83 105 -56 26 13 51 24 54 26 3 2 13 -12 22
-32 20 -41 28 -42 75 -13 20 12 37 18 39 12 14 -39 61 -109 75 -112 10 -2 45
17 78 43 33 25 64 44 68 41 5 -3 21 -36 36 -75 36 -92 41 -96 118 -82 34 6 64
9 66 6 14 -14 -58 -292 -159 -612 -127 -406 -224 -643 -322 -790 -23 -35 -44
-63 -47 -63 -3 0 -104 34 -225 76 -708 243 -1092 366 -1246 398 -70 15 -342
547 -405 793 -21 80 -25 114 -21 183 6 109 18 146 64 199 44 52 85 71 150 71
97 0 195 -84 324 -277 38 -57 74 -103 80 -103 6 0 9 3 7 8 -2 4 -12 23 -22 42
l-18 36 66 277 c36 153 66 280 66 283 0 13 25 -1 70 -41 28 -25 55 -45 61 -45
6 0 38 23 72 50 l62 51 21 -27 c12 -14 34 -52 49 -84z m951 -45 c24 -61 56
-146 69 -190 23 -75 24 -81 8 -93 -9 -6 -20 -9 -24 -5 -4 5 -32 58 -63 118
-31 61 -56 107 -56 104 0 -3 7 -27 16 -52 16 -46 16 -48 -8 -67 -35 -29 -47
-25 -69 26 -26 58 -29 157 -6 201 18 34 65 75 80 70 5 -1 29 -52 53 -112z
m268 43 c12 -46 6 -113 -15 -155 -22 -45 -128 -148 -140 -136 -3 5 -15 38 -26
75 l-20 67 35 42 c34 40 140 129 153 129 4 0 9 -10 13 -22z m-1822 -1444 c3
-2 -6 -17 -21 -33 -34 -36 -52 -84 -86 -225 -15 -59 -43 -156 -62 -215 -26
-77 -36 -124 -37 -173 -1 -38 -3 -68 -6 -68 -17 0 -73 45 -91 72 -28 46 -21
107 29 238 22 58 45 141 52 185 6 44 16 97 21 117 11 42 52 95 83 109 19 8
101 3 118 -7z m144 -40 l56 -16 -30 -31 c-37 -38 -55 -85 -116 -287 -57 -192
-76 -278 -76 -353 0 -67 2 -66 -98 -22 -87 39 -89 76 -22 289 22 66 50 169 64
228 28 119 54 178 88 203 25 17 43 16 134 -11z m180 -53 l72 -21 -33 -62 c-57
-107 -185 -540 -185 -624 0 -52 0 -52 -100 -16 l-75 27 1 85 c2 71 11 116 58
278 31 106 66 217 77 247 24 65 71 119 96 112 10 -3 50 -15 89 -26z m189 -61
c39 -12 72 -24 74 -26 2 -1 -6 -16 -18 -33 -35 -49 -181 -500 -202 -623 -6
-38 -12 -68 -13 -68 0 0 -35 11 -76 24 l-75 24 -3 41 c-4 48 28 175 98 400 70
224 105 299 134 288 6 -2 43 -14 81 -27z m195 -64 c62 -21 65 -24 62 -52 -7
-69 -146 -536 -188 -632 -13 -29 -30 -55 -38 -58 -16 -6 -153 34 -161 46 -17
28 128 532 192 668 28 61 35 62 133 28z m184 -63 l78 -27 -5 -66 c-3 -45 -30
-140 -85 -308 -85 -254 -126 -347 -149 -338 -8 3 -45 15 -84 27 -58 18 -69 24
-63 38 26 54 148 437 174 546 39 159 38 155 47 155 4 0 43 -12 87 -27z m273
-168 c-3 -42 -26 -137 -56 -235 -81 -269 -138 -390 -183 -390 -21 0 -158 38
-158 44 0 2 11 23 24 47 45 79 188 526 194 600 l5 67 89 -31 90 -32 -5 -70z
m107 33 c34 -12 67 -26 75 -32 26 -20 7 -121 -47 -256 -28 -69 -62 -168 -77
-220 -28 -101 -59 -159 -100 -186 -22 -15 -33 -15 -78 -5 -80 18 -83 22 -53
68 66 99 196 507 196 612 0 24 5 41 11 41 7 0 39 -10 73 -22z m208 -81 c30
-37 22 -91 -27 -199 -28 -61 -55 -142 -70 -208 -13 -60 -31 -122 -39 -137 -34
-66 -115 -111 -173 -96 -23 5 -32 23 -13 23 18 0 59 87 95 205 21 66 55 163
77 215 31 74 42 112 45 172 l5 76 42 -14 c22 -8 49 -25 58 -37z m-1299 -378
c56 -18 103 -32 104 -33 2 -1 -4 -38 -12 -82 -15 -86 -35 -302 -35 -390 0 -29
-3 -54 -7 -54 -5 -1 -28 -5 -53 -10 -52 -10 -138 3 -159 24 -11 12 -12 42 -3
183 13 189 41 393 55 393 5 0 55 -14 110 -31z m377 -119 c84 -16 81 -9 65
-145 -8 -66 -15 -156 -15 -201 l0 -81 -37 -24 c-58 -37 -75 -79 -69 -166 3
-40 7 -77 8 -84 2 -7 -14 -16 -37 -21 -22 -4 -57 -15 -78 -25 -20 -9 -40 -13
-44 -9 -4 4 -7 75 -6 159 l1 152 -39 37 c-37 36 -39 40 -39 100 0 59 23 283
36 355 l6 31 96 -33 c54 -19 122 -39 152 -45z m333 -116 c-3 -17 -23 -289 -26
-344 l-2 -54 -45 -13 c-52 -16 -160 -2 -181 23 -18 22 3 393 26 461 5 14 231
-59 228 -73z m-901 -296 c7 -52 138 -83 227 -53 44 14 51 20 45 37 -11 35 29
16 51 -24 17 -33 18 -43 8 -105 -7 -41 -8 -98 -4 -143 l7 -75 -43 -53 c-28
-34 -45 -67 -49 -93 -6 -33 -12 -42 -41 -54 -101 -42 -343 -59 -448 -31 -158
42 -209 118 -152 227 66 124 261 177 402 109 28 -13 55 -26 60 -28 6 -3 2 5
-9 16 -10 12 -42 31 -72 43 l-54 23 0 80 c0 63 4 88 20 114 23 37 47 42 52 10z
m616 -75 c-3 -24 3 -31 35 -47 61 -29 154 -33 211 -8 42 19 46 24 40 47 -8 30
5 32 35 4 36 -34 44 -66 31 -136 -9 -47 -9 -82 0 -151 21 -153 0 -215 -93
-277 -82 -55 -158 -78 -271 -83 -205 -9 -346 59 -346 168 1 78 65 160 159 204
71 32 188 29 265 -7 38 -18 54 -22 45 -11 -20 24 -85 54 -133 60 -51 7 -56 19
-56 136 0 64 3 72 29 99 37 36 53 37 49 2z"/>
<path d="M6494 6368 c-47 -35 -94 -81 -116 -113 -13 -18 5 -5 43 31 35 33 77
71 93 82 16 12 24 22 19 22 -6 0 -23 -10 -39 -22z"/>
<path d="M7075 6338 c-60 -44 -146 -121 -157 -142 -6 -11 16 4 48 34 32 30 79
72 104 92 49 41 52 50 5 16z"/>
<path d="M7394 6120 c4 -19 10 -63 13 -98 3 -34 10 -65 14 -68 5 -3 9 3 9 13
-1 33 -29 175 -36 182 -4 3 -4 -10 0 -29z"/>
<path d="M6974 6036 c-57 -42 -184 -167 -184 -181 0 -4 30 24 68 62 37 38 93
88 125 112 52 40 64 51 53 51 -2 0 -30 -20 -62 -44z"/>
<path d="M6385 6068 c-45 -32 -86 -71 -97 -93 -6 -11 16 4 48 34 32 30 66 60
74 68 22 20 9 15 -25 -9z"/>
<path d="M7281 5864 c1 -47 37 -255 38 -219 1 41 -26 226 -34 234 -3 2 -5 -4
-4 -15z"/>
<path d="M6102 5539 c-38 -19 -70 -54 -60 -64 2 -2 24 3 48 11 37 13 54 14 97
4 29 -6 57 -9 63 -5 20 12 10 45 -20 60 -40 21 -77 19 -128 -6z"/>
<path d="M6049 5340 c-91 -49 -146 -160 -136 -273 3 -33 9 -63 14 -68 5 -5 67
-30 138 -54 l128 -46 38 42 c60 66 83 122 83 204 1 84 -21 134 -77 179 -49 39
-133 47 -188 16z m161 -32 c62 -43 75 -70 75 -161 -1 -90 -14 -128 -68 -184
-33 -35 -43 -38 -66 -24 -12 8 -8 17 22 50 46 50 72 134 62 198 -5 33 -17 57
-45 87 -32 34 -44 41 -78 41 -22 0 -38 3 -36 7 11 18 101 8 134 -14z m-131
-52 c16 -19 10 -66 -10 -79 -23 -14 -67 0 -74 24 -15 47 54 92 84 55z"/>
<path d="M7054 5245 c-10 -26 2 -41 43 -53 24 -7 59 -31 86 -59 41 -42 47 -45
47 -25 0 36 -36 98 -73 126 -38 29 -94 35 -103 11z"/>
<path d="M6905 5063 c-86 -45 -139 -137 -139 -243 -1 -50 5 -74 23 -106 22
-39 28 -43 85 -53 33 -7 85 -19 115 -27 l54 -15 34 33 c135 129 131 342 -8
414 -37 18 -126 17 -164 -3z m140 -22 c51 -23 92 -71 101 -117 16 -84 -22
-198 -86 -259 -23 -22 -31 -24 -54 -15 l-27 10 37 36 c48 49 74 107 74 172 0
96 -45 159 -121 169 -34 5 -39 8 -24 14 32 12 57 10 100 -10z m-117 -63 c17
-17 15 -63 -2 -77 -46 -38 -111 25 -71 69 20 22 55 26 73 8z"/>
<path d="M5800 4930 c-30 -30 -25 -58 18 -100 59 -59 148 -77 196 -39 33 26
33 49 -1 90 -54 64 -171 91 -213 49z m169 -33 c48 -32 64 -73 36 -94 -38 -27
-130 -6 -176 40 -31 31 -36 55 -16 76 20 21 110 9 156 -22z"/>
<path d="M6410 4905 c-10 -12 -6 -13 25 -8 29 5 41 1 60 -17 30 -28 34 -9 5
20 -23 23 -72 26 -90 5z"/>
<path d="M6237 4852 c-24 -26 -32 -101 -17 -163 39 -161 246 -230 396 -133 53
35 94 97 94 144 0 55 -24 71 -127 82 -99 10 -165 29 -226 64 -50 29 -98 31
-120 6z m107 -26 c61 -35 130 -55 228 -65 49 -5 95 -14 103 -21 30 -25 12 -92
-37 -138 l-25 -22 -19 21 c-69 76 -202 86 -315 22 -13 -8 -42 80 -42 129 -1
97 30 119 107 74z m148 -186 c38 -11 98 -54 98 -71 0 -17 -111 -42 -158 -35
-54 7 -127 46 -127 66 0 9 20 22 50 32 59 20 87 22 137 8z"/>
<path d="M6882 4574 c-48 -34 -16 -107 63 -140 52 -21 131 -18 155 6 26 26 25
51 -2 85 -44 57 -166 85 -216 49z m142 -18 c40 -17 76 -53 76 -78 0 -56 -140
-48 -199 11 -23 23 -28 66 -8 74 25 11 99 7 131 -7z"/>
<path d="M7414 5537 c-66 -70 -72 -86 -9 -25 33 32 57 60 54 62 -3 3 -23 -13
-45 -37z"/>
<path d="M5690 6405 c-52 -55 -15 -145 60 -145 43 0 76 30 86 76 4 24 0 37
-21 62 -35 42 -90 45 -125 7z m113 -17 c38 -44 6 -111 -53 -111 -22 0 -39 7
-52 22 -59 74 43 161 105 89z"/>
<path d="M4603 6326 c-22 -19 -28 -32 -28 -66 0 -34 6 -47 28 -66 16 -13 41
-24 57 -24 16 0 41 11 57 24 39 34 39 98 0 132 -16 13 -41 24 -57 24 -16 0
-41 -11 -57 -24z m107 -16 c11 -11 20 -33 20 -50 0 -63 -77 -94 -120 -48 -42
45 -12 118 50 118 17 0 39 -9 50 -20z"/>
<path d="M8169 6134 c-10 -12 -10 -22 -2 -44 10 -27 9 -29 -16 -32 -20 -2 -26
-8 -26 -28 0 -21 7 -26 47 -38 35 -9 52 -21 67 -46 32 -51 28 -59 -21 -51 -33
6 -51 17 -76 46 -36 42 -53 47 -71 25 -9 -11 -10 -20 -1 -35 10 -19 8 -21 -18
-21 -60 0 -68 -61 -8 -68 30 -4 30 -5 14 -31 -9 -15 -9 -23 1 -35 19 -22 26
-21 70 19 32 29 46 35 85 35 25 0 46 -3 46 -6 0 -3 -14 -24 -31 -45 -26 -33
-37 -39 -68 -39 -49 0 -76 -19 -67 -48 5 -15 15 -22 32 -22 25 0 25 0 8 -29
-15 -25 -15 -32 -5 -45 18 -22 48 -20 63 4 7 11 16 20 19 20 4 0 9 -9 12 -20
6 -25 42 -27 55 -3 7 11 6 31 -3 59 -12 39 -11 45 13 85 l25 42 22 -43 22 -43
-20 -48 c-17 -40 -18 -50 -8 -63 18 -22 38 -20 53 4 17 26 22 25 36 -5 13 -28
43 -33 61 -11 10 11 9 22 -4 47 -15 29 -15 31 -1 26 23 -9 46 2 46 24 0 22
-36 49 -67 49 -15 0 -31 13 -48 37 -14 21 -25 41 -25 45 0 5 17 8 38 8 33 0
45 -7 81 -45 37 -39 45 -44 63 -34 16 8 19 17 14 40 -5 27 -3 29 25 29 54 0
50 62 -4 68 -23 3 -25 6 -15 21 14 23 4 51 -18 51 -9 0 -33 -13 -54 -30 -28
-22 -48 -30 -79 -30 -23 0 -41 3 -41 7 0 3 11 21 25 38 18 25 35 34 69 39 52
8 75 29 59 54 -6 10 -21 16 -33 14 -22 -2 -22 -1 -6 23 10 15 14 34 11 45 -8
26 -51 26 -67 0 -7 -11 -16 -20 -19 -20 -4 0 -9 9 -12 20 -6 24 -45 27 -53 5
-4 -9 -1 -34 4 -58 10 -38 9 -46 -15 -87 l-26 -44 -20 44 c-16 38 -17 50 -7
75 18 45 17 76 -3 89 -15 9 -22 7 -36 -10 l-17 -21 -17 28 c-18 32 -38 37 -58
13z m58 -46 l21 -43 12 33 c12 33 40 45 40 17 0 -9 -7 -32 -15 -52 -14 -34
-14 -39 9 -89 14 -30 29 -54 33 -54 5 0 23 23 40 51 25 42 30 56 22 76 -12 32
-12 73 1 73 5 0 16 -14 23 -32 l13 -32 23 37 c12 20 27 37 32 37 20 0 20 -31
0 -59 -28 -39 -27 -41 14 -34 27 4 35 2 35 -10 0 -18 -21 -27 -64 -27 -29 0
-38 -7 -70 -52 -41 -60 -37 -68 36 -68 41 0 54 5 89 37 33 30 42 34 50 22 6
-10 2 -20 -16 -36 -14 -12 -25 -25 -25 -28 0 -3 21 -5 46 -5 38 0 45 -3 42
-17 -3 -14 -12 -17 -46 -15 -44 2 -53 -7 -27 -28 16 -14 21 -50 6 -50 -5 0
-25 18 -44 41 -31 36 -41 41 -91 46 -65 7 -67 4 -31 -66 21 -43 29 -50 64 -56
47 -8 73 -31 46 -41 -9 -4 -27 -2 -41 4 -29 14 -29 12 -3 -33 21 -35 20 -65
-1 -65 -7 0 -19 18 -28 40 -9 22 -20 40 -23 40 -4 0 -12 -13 -19 -30 -7 -16
-19 -30 -26 -30 -18 0 -18 5 3 62 16 46 16 48 -7 98 -13 28 -27 53 -31 56 -4
2 -22 -19 -39 -47 -31 -48 -32 -53 -22 -97 11 -47 4 -70 -17 -58 -6 4 -11 16
-11 26 0 32 -17 32 -40 0 -22 -30 -50 -40 -50 -17 0 6 9 23 20 37 27 35 25 40
-15 40 -56 0 -44 26 17 36 45 8 57 15 85 52 18 24 33 47 33 52 0 4 -26 10 -57
12 -54 4 -61 1 -96 -29 -20 -18 -42 -33 -47 -33 -17 0 -11 26 11 46 19 17 19
19 2 25 -10 4 -30 8 -45 8 -18 1 -28 6 -28 16 0 11 12 15 45 15 48 0 52 4 30
34 -39 52 2 48 44 -4 31 -39 34 -40 91 -40 l60 0 -27 55 c-25 50 -32 57 -71
67 -40 10 -63 31 -49 45 3 3 20 1 36 -5 37 -13 37 -12 11 37 -10 21 -16 41
-13 45 15 15 30 3 50 -36z"/>
<path d="M1882 5908 c-6 -6 -12 -18 -12 -25 0 -19 -13 -16 -28 7 -12 20 -37
18 -46 -5 -3 -8 2 -31 11 -53 14 -36 14 -42 -4 -77 l-20 -38 -22 36 c-20 32
-20 39 -9 82 11 39 10 47 -2 55 -24 15 -41 11 -47 -10 -5 -19 -6 -19 -29 5
-20 21 -27 24 -44 15 -24 -13 -25 -28 -5 -57 14 -20 14 -22 -7 -25 -26 -3 -37
-36 -16 -49 7 -5 27 -9 44 -9 24 0 38 -8 58 -34 14 -19 26 -37 26 -40 0 -3
-19 -6 -43 -6 -35 0 -49 6 -72 30 -16 17 -37 30 -47 30 -23 0 -35 -27 -19 -43
18 -18 13 -25 -16 -29 -22 -2 -28 -8 -28 -28 0 -20 6 -26 28 -28 23 -3 26 -7
21 -26 -3 -14 1 -27 10 -36 14 -11 21 -7 51 25 26 27 46 38 75 42 22 3 40 3
40 0 0 -3 -9 -21 -20 -39 -15 -26 -31 -37 -65 -46 -39 -10 -46 -16 -43 -35 2
-14 11 -23 26 -25 18 -3 22 -8 16 -20 -16 -38 -10 -57 19 -60 22 -3 30 1 34
17 6 25 18 27 27 6 7 -20 42 -19 50 1 3 8 -1 31 -9 50 -13 31 -13 40 1 75 9
21 19 39 24 39 4 0 15 -17 24 -39 14 -31 16 -45 7 -76 -16 -59 24 -92 50 -43
l12 22 15 -22 c17 -25 44 -29 62 -7 10 12 9 20 -4 39 -15 24 -15 25 7 28 14 2
23 11 25 25 4 25 -28 43 -73 43 -15 0 -32 11 -45 31 -25 34 -24 37 16 45 25 5
38 -1 73 -30 35 -30 46 -34 58 -24 8 6 13 22 10 34 -3 18 2 23 25 28 45 9 32
66 -15 66 -13 0 -17 5 -13 15 8 22 -4 45 -24 45 -10 0 -32 -16 -49 -35 -25
-29 -37 -35 -71 -35 l-40 0 23 37 c19 30 33 39 66 46 23 5 45 15 48 23 7 19
-15 44 -38 44 -17 0 -18 3 -7 20 22 35 -21 77 -50 48z m41 -14 c3 -4 0 -19 -8
-35 -20 -38 -20 -39 16 -39 43 0 32 -22 -15 -34 -30 -7 -44 -18 -67 -54 -16
-25 -29 -50 -29 -54 0 -4 23 -8 50 -8 47 0 54 3 89 41 26 28 41 38 46 30 4 -7
0 -20 -9 -30 -24 -26 -20 -31 24 -31 29 0 40 -4 40 -15 0 -11 -11 -15 -40 -15
-45 0 -49 -8 -19 -34 16 -13 18 -21 10 -29 -8 -8 -20 -2 -44 21 -29 28 -39 32
-90 32 -31 0 -57 -4 -57 -8 0 -5 13 -28 30 -50 27 -38 41 -46 94 -54 34 -5 31
-28 -4 -28 l-32 0 22 -35 c32 -52 14 -67 -26 -20 l-32 38 -7 -31 c-3 -18 -13
-32 -21 -32 -17 0 -18 16 -3 58 9 27 7 38 -18 82 -15 27 -30 50 -33 50 -3 0
-17 -24 -31 -52 -23 -48 -25 -56 -13 -83 24 -56 8 -80 -19 -29 l-14 26 -22
-37 c-16 -28 -25 -35 -33 -27 -9 9 -7 21 5 48 l17 36 -29 -7 c-16 -3 -32 -2
-35 4 -8 12 25 31 54 31 14 0 30 16 50 47 17 26 30 51 30 55 0 4 -24 8 -54 8
-47 0 -57 -4 -78 -28 -33 -39 -53 -51 -46 -26 3 10 9 27 13 37 6 15 1 17 -35
17 -53 0 -50 24 3 28 42 4 44 8 20 34 -11 12 -13 22 -7 28 7 7 22 -2 44 -25
28 -29 41 -35 74 -35 68 0 75 12 40 62 -23 33 -38 44 -65 48 -19 4 -40 10 -47
14 -22 13 -1 27 30 20 l31 -6 -21 35 c-12 19 -22 39 -22 46 0 12 30 16 30 4 0
-5 9 -19 20 -33 l19 -25 10 28 c6 15 15 27 21 27 13 0 13 -31 0 -65 -8 -21 -4
-34 21 -75 17 -28 33 -50 35 -50 3 0 16 25 30 55 22 52 23 58 9 85 -8 16 -15
36 -15 45 0 26 20 16 35 -17 l13 -33 18 38 c17 35 32 45 47 31z"/>
<path d="M8010 4787 c-38 -19 -49 -61 -23 -95 26 -36 68 -41 99 -11 28 27 31
59 7 87 -24 27 -53 34 -83 19z m64 -20 c23 -17 18 -65 -9 -83 -46 -30 -99 40
-60 80 20 19 45 21 69 3z"/>
<path d="M1787 4622 c-22 -25 -21 -75 1 -95 25 -22 75 -21 95 1 22 25 21 75
-1 95 -25 22 -75 21 -95 -1z m83 -12 c11 -11 20 -27 20 -35 0 -8 -9 -24 -20
-35 -11 -11 -27 -20 -35 -20 -8 0 -24 9 -35 20 -11 11 -20 27 -20 35 0 8 9 24
20 35 11 11 27 20 35 20 8 0 24 -9 35 -20z"/>
<path d="M5117 4312 c-23 -25 -21 -75 3 -97 42 -38 110 -9 110 47 0 57 -76 91
-113 50z m92 -26 c11 -28 2 -55 -21 -67 -39 -21 -86 19 -73 62 13 40 80 44 94
5z"/>
<path d="M7757 3993 c-11 -10 -8 -51 3 -58 18 -11 11 -27 -9 -20 -23 7 -52
-20 -45 -40 4 -8 29 -23 57 -32 42 -15 53 -24 68 -58 16 -35 16 -40 3 -43 -41
-9 -82 9 -108 48 -26 40 -52 50 -73 29 -8 -8 -8 -20 -3 -35 9 -22 7 -24 -25
-24 -25 0 -35 -5 -40 -20 -9 -27 11 -50 42 -50 21 0 23 -3 13 -14 -16 -20 -9
-60 11 -64 9 -2 34 12 56 30 35 29 45 33 86 30 40 -3 45 -6 37 -20 -23 -41
-50 -61 -86 -67 -64 -11 -74 -16 -74 -34 0 -22 25 -45 40 -36 15 9 12 -3 -7
-35 -14 -24 -14 -31 -4 -44 20 -24 47 -19 67 11 l17 28 10 -28 c9 -29 37 -36
56 -13 9 10 9 26 1 61 -10 44 -9 51 16 86 15 21 30 36 35 33 5 -2 14 -23 20
-44 10 -34 9 -46 -5 -79 -10 -21 -16 -47 -14 -57 5 -28 39 -30 58 -4 l17 22
13 -31 c14 -34 48 -42 69 -17 10 11 9 21 -4 46 -16 31 -16 32 3 26 20 -7 52
15 52 34 0 14 -42 39 -76 46 -24 4 -36 16 -52 50 l-22 44 41 0 c37 0 47 -5 82
-45 22 -25 48 -45 58 -45 22 0 35 36 19 55 -9 11 -4 14 27 17 35 3 38 5 38 33
0 27 -4 30 -33 33 -33 3 -33 4 -16 23 14 15 16 24 8 37 -18 27 -40 25 -77 -7
-28 -25 -44 -31 -81 -31 -25 0 -46 4 -46 10 0 5 13 24 28 41 21 24 38 32 75
36 26 3 52 11 58 19 15 18 -6 54 -32 54 -20 0 -20 1 -3 29 15 25 15 32 5 45
-20 24 -48 19 -68 -10 -16 -26 -17 -26 -25 -5 -10 29 -36 37 -55 18 -14 -14
-14 -22 -3 -61 12 -44 11 -48 -15 -88 l-28 -43 -20 45 c-16 38 -17 49 -7 75
20 47 18 89 -3 93 -10 2 -26 -3 -36 -12 -16 -15 -19 -14 -29 9 -11 24 -49 35
-65 18z m60 -51 l15 -36 20 32 c36 58 59 33 28 -29 l-22 -41 23 -59 c12 -33
25 -62 30 -65 5 -2 24 19 44 48 31 48 34 57 25 88 -14 48 -12 70 4 70 8 0 17
-13 21 -30 8 -38 19 -38 41 0 10 16 24 32 31 35 24 8 26 -23 4 -54 -28 -39
-27 -41 14 -41 23 0 35 -5 35 -14 0 -13 -41 -26 -85 -26 -16 0 -35 -15 -60
-50 -21 -28 -35 -53 -33 -55 2 -2 30 -7 61 -11 53 -6 58 -5 92 25 37 32 65 40
65 19 0 -7 -12 -22 -27 -35 l-28 -22 41 -1 c39 0 72 -19 57 -33 -3 -4 -26 -7
-50 -7 -45 0 -53 -9 -28 -30 8 -7 15 -19 15 -26 0 -25 -24 -15 -60 27 -31 36
-41 41 -92 46 -32 3 -58 3 -58 1 0 -3 12 -31 26 -62 22 -48 31 -57 62 -66 54
-15 70 -26 55 -41 -8 -8 -20 -9 -42 -1 -37 13 -37 13 -11 -39 20 -38 20 -59
-1 -59 -5 0 -19 20 -31 45 l-22 46 -18 -36 c-10 -19 -23 -35 -28 -35 -20 0
-20 21 0 59 11 22 20 46 20 53 0 17 -42 118 -49 118 -14 -1 -81 -106 -76 -118
3 -8 8 -31 11 -53 5 -32 4 -39 -10 -39 -10 0 -19 11 -22 30 -4 17 -10 30 -13
30 -4 0 -17 -13 -29 -30 -23 -30 -52 -40 -52 -17 0 6 9 23 20 37 26 34 25 40
-8 40 -35 0 -45 9 -31 27 6 7 31 13 55 13 40 0 46 4 79 46 19 26 35 50 35 54
0 9 -51 20 -93 20 -21 0 -41 -10 -63 -31 -22 -22 -38 -30 -50 -25 -15 6 -14
10 11 36 l29 30 -25 0 c-43 0 -70 12 -67 29 3 12 13 15 46 13 45 -4 50 2 27
32 -39 51 4 48 44 -3 27 -34 37 -40 87 -46 31 -4 58 -4 61 -1 7 7 -25 84 -45
108 -7 9 -28 19 -47 22 -39 8 -65 33 -43 41 8 3 27 1 41 -4 32 -12 32 -12 11
33 -17 35 -13 73 7 60 6 -3 18 -22 26 -42z"/>
<path d="M2090 3760 c-8 -15 -7 -27 4 -49 l15 -29 -32 2 c-29 1 -32 -2 -32
-28 0 -26 5 -31 49 -46 42 -14 52 -23 73 -64 l25 -49 -49 7 c-41 6 -54 14 -87
51 -41 48 -56 54 -77 29 -10 -12 -10 -20 -1 -35 16 -25 17 -24 -25 -24 -32 0
-39 -4 -41 -23 -5 -30 14 -52 45 -52 23 0 23 -1 9 -22 -11 -15 -12 -26 -5 -40
14 -26 30 -23 81 17 43 34 49 35 91 28 l46 -8 -35 -42 c-31 -38 -41 -43 -77
-43 -53 0 -70 -11 -65 -41 2 -18 10 -25 31 -27 l27 -3 -20 -26 c-24 -31 -25
-37 -4 -57 21 -22 29 -20 57 9 l23 26 12 -26 c13 -28 33 -32 52 -10 8 10 10
33 6 72 -6 54 -4 61 23 92 l29 35 19 -45 20 -44 -24 -54 c-18 -41 -20 -57 -12
-67 17 -20 47 -17 59 6 15 28 24 25 37 -10 12 -33 42 -40 63 -15 10 12 10 21
1 41 -15 33 -15 32 17 36 21 2 27 8 27 28 0 21 -8 28 -52 43 -44 16 -54 25
-67 58 -9 22 -16 42 -16 44 0 3 18 5 40 5 29 0 45 -6 59 -22 10 -13 30 -36 43
-52 17 -20 30 -27 42 -23 23 9 31 36 17 59 -11 18 -9 19 23 13 28 -6 36 -3 45
13 14 26 14 28 -5 46 -8 9 -27 16 -41 16 -26 0 -26 0 -7 21 14 15 16 24 8 37
-18 28 -42 25 -80 -7 -29 -26 -43 -31 -85 -31 -57 0 -59 7 -16 60 18 24 30 29
65 29 49 1 82 15 82 36 0 20 -31 47 -47 41 -8 -4 -13 -3 -11 1 2 5 10 20 17
35 8 15 11 34 8 42 -10 25 -53 19 -75 -11 l-19 -26 -7 26 c-5 20 -13 27 -32
27 -32 0 -39 -21 -27 -75 9 -40 8 -48 -20 -90 l-31 -47 -22 51 -23 52 19 32
c39 63 12 124 -34 78 l-20 -20 -18 29 c-21 35 -52 39 -68 10z m65 -42 l16 -41
19 31 c37 60 60 34 29 -31 l-22 -45 23 -61 c12 -34 28 -60 34 -58 6 2 26 25
45 51 33 46 34 50 25 97 -11 49 -5 77 14 65 6 -3 13 -20 17 -36 8 -38 15 -38
43 5 24 37 52 47 52 18 0 -10 -9 -31 -20 -48 -26 -40 -26 -42 16 -37 31 4 35
2 32 -14 -2 -15 -14 -20 -56 -22 -50 -3 -54 -5 -93 -58 -23 -30 -40 -57 -37
-59 2 -3 32 -8 66 -11 58 -6 63 -5 97 25 20 17 42 31 50 31 22 0 18 -28 -5
-42 -29 -19 -25 -26 23 -35 26 -6 42 -14 42 -23 0 -12 -11 -14 -49 -12 l-49 3
16 -25 c43 -64 5 -76 -41 -12 -25 34 -39 45 -69 50 -47 7 -93 8 -93 1 0 -3 13
-32 29 -64 27 -53 34 -59 76 -71 50 -14 63 -26 46 -43 -7 -7 -18 -7 -37 2 -35
15 -39 10 -20 -28 21 -40 20 -61 -2 -61 -13 0 -23 13 -32 40 -7 22 -16 40 -20
40 -3 0 -14 -16 -23 -35 -9 -19 -21 -35 -26 -35 -21 0 -21 22 0 70 l21 50 -22
60 c-12 33 -25 60 -29 60 -4 0 -23 -22 -44 -50 -35 -47 -37 -51 -30 -110 5
-51 3 -60 -10 -60 -11 0 -18 13 -23 36 l-7 37 -33 -39 c-26 -31 -35 -37 -45
-27 -10 10 -9 18 7 40 38 53 39 55 8 52 -32 -4 -57 8 -49 21 3 5 28 12 56 16
44 6 55 13 87 51 20 24 37 49 37 56 0 7 -23 14 -59 17 -55 5 -62 3 -100 -27
-23 -18 -47 -33 -53 -33 -22 0 -14 29 13 46 30 20 17 34 -33 34 -27 0 -33 4
-33 21 0 20 4 21 45 16 48 -7 53 -2 30 29 -19 25 -19 44 0 44 8 0 26 -18 41
-39 16 -25 36 -42 52 -45 70 -13 112 -17 112 -11 0 4 -12 34 -26 66 -24 53
-31 60 -68 70 -22 6 -47 16 -53 21 -21 17 -3 30 33 23 38 -7 40 -2 19 35 -20
35 -19 60 4 60 13 0 24 -13 36 -42z"/>
<path d="M5040 3157 c-13 -7 -29 -25 -34 -40 -22 -61 67 -114 113 -68 30 30
27 75 -5 100 -31 24 -40 25 -74 8z m76 -32 c15 -23 15 -27 0 -50 -28 -43 -96
-29 -96 19 0 52 67 74 96 31z"/>
<path d="M7385 2974 c-35 -38 -29 -88 14 -121 45 -35 121 7 121 67 0 71 -87
106 -135 54z m91 -2 c33 -22 34 -83 1 -104 -38 -24 -97 6 -97 50 0 47 58 80
96 54z"/>
<path d="M2744 2920 c-58 -24 -70 -95 -25 -141 38 -37 82 -39 116 -4 64 63 -9
179 -91 145z m73 -25 c38 -26 37 -92 -1 -117 -20 -13 -69 -8 -88 9 -25 23 -24
77 4 103 26 24 55 26 85 5z"/>
<path d="M5060 2627 c-54 -27 -5 -86 60 -72 55 12 63 57 13 76 -32 12 -43 11
-73 -4z m79 -16 c24 -15 -6 -41 -46 -41 -36 0 -57 25 -32 41 18 11 60 11 78 0z"/>
<path d="M2798 2409 c-21 -12 -23 -40 -6 -57 15 -15 92 -16 119 -2 43 23 5 70
-57 70 -21 0 -47 -5 -56 -11z m86 -9 c14 -5 26 -14 26 -19 0 -19 -42 -33 -76
-26 -39 7 -45 31 -11 45 29 12 31 12 61 0z"/>
<path d="M7335 2404 c-21 -22 -3 -44 37 -44 32 0 47 23 28 45 -16 20 -45 19
-65 -1z m60 -14 c8 -13 -20 -24 -41 -16 -20 8 -9 26 16 26 10 0 22 -5 25 -10z"/>
<path d="M7115 2305 c-41 -15 -75 -47 -75 -71 0 -30 51 -49 135 -49 93 0 135
19 135 60 0 56 -113 91 -195 60z m134 -16 c27 -10 51 -35 51 -54 0 -3 -16 -13
-35 -21 -63 -26 -205 -12 -205 20 0 16 28 42 60 55 34 13 90 13 129 0z"/>
<path d="M3154 2295 c-9 -22 9 -37 37 -33 16 2 24 10 24 23 0 26 -52 35 -61
10z m50 -16 c-7 -11 -34 -12 -34 -1 0 14 11 21 26 15 8 -3 11 -9 8 -14z"/>
<path d="M2945 2214 c-86 -45 -45 -104 73 -104 67 0 118 15 126 36 23 60 -120
109 -199 68z m162 -29 c27 -24 28 -25 9 -40 -28 -21 -154 -20 -184 1 -19 13
-21 18 -10 31 19 23 47 32 105 32 42 1 57 -4 80 -24z"/>
<path d="M4959 2051 c-20 -16 -22 -23 -13 -38 16 -26 75 -39 112 -24 38 16 45
32 26 60 -20 28 -92 29 -125 2z m115 -11 c15 -15 -13 -40 -46 -40 -33 0 -68
16 -68 31 0 26 90 33 114 9z"/>
<path d="M5603 2056 c-39 -18 -43 -48 -11 -70 40 -28 129 -14 143 22 16 42
-74 74 -132 48z m102 -20 c16 -12 17 -16 6 -30 -23 -27 -121 -19 -121 10 0 32
80 46 115 20z"/>
<path d="M3530 2018 c-54 -29 -26 -78 44 -78 30 0 48 6 61 20 18 20 18 21 -1
40 -25 26 -73 34 -104 18z m90 -23 c19 -22 3 -35 -46 -35 -47 0 -71 23 -43 41
22 14 75 10 89 -6z"/>
<path d="M6750 1967 c-43 -15 -52 -48 -18 -71 60 -43 170 7 121 55 -25 25 -62
30 -103 16z m85 -21 c16 -12 17 -16 6 -30 -22 -27 -111 -19 -111 10 0 31 71
45 105 20z"/>
</g>
</svg>
