<?xml version="1.0" standalone="no"?>
<!DOCTYPE svg PUBLIC "-//W3C//DTD SVG 20010904//EN"
 "http://www.w3.org/TR/2001/REC-SVG-20010904/DTD/svg10.dtd">
<svg version="1.0" xmlns="http://www.w3.org/2000/svg"
 width="1024.000000pt" height="1024.000000pt" viewBox="0 0 1024.000000 1024.000000"
 preserveAspectRatio="xMidYMid meet">
<metadata>
Created by potrace 1.16, written by Peter Selinger 2001-2019
</metadata>
<g transform="translate(0.000000,1024.000000) scale(0.100000,-0.100000)"
fill="#000000" stroke="none">
<path d="M7880 9397 c0 -52 -4 -175 -10 -273 -20 -369 -38 -508 -85 -663 -35
-119 -38 -116 142 -116 137 0 154 -3 226 -28 42 -16 87 -27 100 -25 26 4 28
30 7 148 -13 78 -9 338 10 635 5 77 12 190 16 250 4 61 4 107 0 104 -11 -10
-34 -240 -46 -449 -15 -282 -13 -505 7 -595 9 -41 14 -78 10 -81 -3 -3 -47 9
-98 26 -95 33 -201 43 -319 30 -40 -4 -45 -2 -48 17 -2 12 8 57 21 100 14 43
32 121 41 173 33 199 60 820 36 835 -6 4 -10 -28 -10 -88z"/>
<path d="M7070 9452 c0 -38 31 -198 51 -267 44 -147 132 -280 228 -346 54 -36
62 -52 96 -188 16 -61 34 -301 23 -301 -3 0 -24 31 -47 69 -109 183 -305 407
-441 502 -156 110 -307 177 -373 167 -12 -2 12 -12 57 -22 43 -10 74 -21 70
-25 -5 -4 -38 -13 -74 -19 -39 -7 -103 -30 -159 -58 -77 -38 -112 -64 -189
-138 -133 -128 -284 -330 -360 -482 -17 -34 -28 -64 -25 -68 8 -7 60 23 227
131 325 212 468 358 528 540 29 89 50 97 136 52 35 -19 66 -37 68 -41 3 -4
-16 -13 -41 -19 -66 -17 -116 -57 -172 -142 -58 -86 -105 -207 -139 -357 -26
-116 -46 -259 -37 -273 8 -14 51 32 124 134 135 189 215 378 227 538 l7 86 37
3 c34 3 43 -3 119 -75 159 -152 285 -328 402 -562 71 -142 159 -381 173 -470
l7 -44 -66 37 c-70 40 -92 39 -84 -1 3 -19 1 -23 -12 -18 -39 15 -140 35 -178
35 -36 0 -43 -3 -43 -20 0 -16 -8 -19 -57 -22 -50 -3 -58 -6 -61 -24 -2 -17
-14 -23 -67 -33 -35 -6 -71 -14 -79 -17 -11 -4 -17 3 -22 23 -18 73 -94 187
-154 228 -26 18 -47 24 -80 23 -25 -1 -75 2 -111 7 -77 9 -123 1 -115 -20 3
-10 -10 -17 -52 -25 -53 -11 -64 -19 -146 -101 -74 -75 -87 -93 -83 -114 2
-14 0 -28 -5 -31 -33 -21 -73 -164 -49 -178 4 -3 10 -34 13 -69 6 -68 32 -129
72 -166 14 -14 26 -27 26 -30 0 -3 -27 -44 -61 -91 -118 -165 -160 -259 -239
-530 -63 -219 -81 -256 -169 -360 -53 -62 -70 -90 -67 -106 3 -11 -6 -47 -19
-80 -27 -65 -32 -114 -12 -114 9 0 12 -27 13 -98 0 -76 5 -107 20 -137 11 -22
25 -39 32 -38 6 2 15 -9 18 -25 4 -15 13 -39 20 -53 l13 -26 -82 -31 c-113
-43 -253 -132 -352 -224 l-82 -77 -7 46 c-10 75 -7 151 8 187 8 19 34 47 60
65 82 57 163 194 201 342 18 70 18 69 1 69 -18 0 -115 -107 -162 -177 -39 -59
-61 -114 -75 -188 -11 -59 -38 -125 -52 -125 -6 0 -7 -23 -3 -60 4 -33 5 -60
2 -60 -3 0 -21 25 -42 55 -47 72 -101 117 -198 166 -78 39 -106 47 -106 31 0
-19 101 -151 138 -181 49 -38 114 -68 169 -77 40 -6 41 -7 47 -57 7 -50 -1
-70 -71 -166 -2 -3 -11 6 -21 20 -41 59 -155 179 -220 232 -83 68 -198 136
-285 168 -34 12 -63 23 -65 25 -2 1 13 27 33 59 20 31 43 72 51 91 8 19 20 34
28 34 24 0 49 80 54 173 3 65 8 87 18 87 20 0 18 60 -5 119 -13 36 -15 53 -8
60 13 13 -7 50 -66 126 -58 73 -82 134 -112 280 -67 326 -149 531 -286 711
l-49 66 40 45 c39 44 70 120 70 169 0 13 5 26 11 30 14 9 3 64 -27 137 -14 32
-22 62 -20 66 7 11 -45 89 -88 130 -20 19 -36 41 -36 49 0 15 -68 47 -122 57
-27 5 -38 12 -38 25 0 26 -66 35 -146 20 -51 -10 -67 -10 -79 0 -13 11 -25 6
-72 -26 -68 -47 -123 -114 -154 -189 -20 -48 -26 -55 -44 -50 -11 3 -43 11
-72 17 -41 8 -53 15 -55 32 -2 17 -12 22 -53 26 -36 4 -50 9 -50 20 0 23 -97
24 -178 1 l-69 -19 6 22 c3 12 1 27 -3 35 -7 11 -22 7 -74 -23 -44 -24 -116
-49 -214 -75 -168 -44 -299 -94 -395 -150 l-65 -38 -39 69 c-63 113 -166 199
-267 222 -24 6 -30 3 -34 -14 -5 -18 -11 -21 -32 -16 -14 3 -66 9 -116 12 -99
7 -148 -5 -143 -32 2 -12 -10 -21 -42 -32 -57 -18 -113 -60 -106 -78 3 -7 -7
-22 -23 -33 -15 -11 -41 -37 -56 -57 -22 -28 -26 -40 -18 -53 8 -13 3 -30 -21
-71 -18 -30 -40 -74 -49 -98 -39 -99 16 -347 92 -416 12 -11 21 -27 21 -36 0
-9 8 -24 18 -33 27 -25 122 -65 180 -78 28 -6 52 -13 52 -16 0 -3 -17 -42 -37
-87 -20 -44 -36 -91 -35 -104 1 -13 -20 -94 -47 -181 -65 -206 -91 -308 -98
-389 -5 -56 -4 -65 9 -60 13 5 16 -12 21 -115 6 -133 27 -216 57 -224 16 -4
60 -100 60 -130 0 -6 -24 -62 -54 -124 -30 -63 -66 -151 -81 -197 l-27 -82
-40 57 c-22 32 -68 87 -103 123 -77 80 -91 121 -68 208 34 128 -7 325 -108
522 -49 95 -114 190 -135 197 -19 6 -26 -102 -14 -199 21 -169 113 -419 189
-510 25 -30 41 -62 45 -89 4 -23 5 -44 3 -46 -12 -11 -70 57 -113 133 -82 146
-240 273 -469 376 -98 44 -303 113 -311 105 -20 -19 152 -237 257 -326 142
-120 268 -182 440 -216 46 -10 95 -24 109 -33 40 -25 139 -123 171 -169 l29
-41 -98 -7 c-163 -11 -240 -40 -377 -143 -82 -61 -292 -268 -314 -311 -13 -24
-13 -24 23 -18 52 8 274 109 384 173 104 62 220 165 259 231 32 55 50 64 103
55 41 -7 45 -11 81 -78 l37 -71 -38 -149 c-77 -299 -160 -654 -194 -824 -31
-152 -65 -376 -66 -428 -1 -9 -13 15 -29 55 -71 180 -201 380 -340 526 -90 94
-127 124 -137 114 -3 -3 33 -101 80 -218 104 -263 244 -643 281 -764 15 -49
36 -116 45 -147 10 -32 16 -58 14 -58 -2 0 -18 28 -35 63 -94 185 -286 385
-459 476 -68 36 -100 46 -100 32 0 -6 57 -104 126 -218 310 -508 388 -642 434
-741 28 -58 49 -106 48 -108 -2 -1 -32 34 -67 77 -122 154 -303 290 -484 365
-120 49 -168 44 -87 -10 160 -106 482 -436 550 -565 l12 -24 -30 21 c-47 34
-118 61 -227 88 -99 24 -225 32 -225 15 0 -5 36 -23 80 -41 83 -33 238 -130
278 -173 l23 -25 -44 -6 c-81 -12 -237 -99 -237 -131 0 -13 29 -14 197 -9 162
5 215 11 293 30 75 19 120 24 225 24 l131 0 44 -46 c56 -57 222 -168 332 -222
103 -50 236 -91 611 -186 305 -78 441 -103 511 -92 105 17 209 102 282 232 35
62 37 64 76 64 110 0 346 66 512 142 l108 51 76 -7 c110 -10 187 -28 367 -87
142 -47 170 -52 250 -53 102 -1 155 17 231 79 43 35 43 35 55 14 10 -20 3 -30
-86 -115 -81 -79 -95 -97 -90 -116 35 -114 118 -208 185 -208 13 0 56 37 117
101 53 55 110 109 126 121 l29 20 31 -30 c32 -30 45 -36 80 -33 29 2 102 77
135 140 l32 58 52 -26 c46 -22 66 -26 143 -26 79 1 107 6 235 47 185 60 242
71 365 72 99 1 101 1 183 -42 117 -61 270 -109 420 -134 l127 -21 45 -74 c53
-88 103 -136 176 -170 70 -32 134 -38 236 -23 96 14 717 169 828 207 186 63
369 173 480 288 l64 67 131 -5 c71 -3 164 -12 205 -20 92 -20 440 -28 440 -11
0 29 -115 96 -187 110 -18 3 -33 9 -33 13 0 10 146 95 218 126 34 15 61 33 59
39 -3 7 -41 11 -108 10 -100 -1 -161 -14 -263 -59 -34 -15 -3 26 96 127 103
104 177 164 286 227 39 24 72 48 72 53 0 18 -99 -1 -190 -37 -158 -60 -282
-133 -379 -221 -54 -48 -54 -48 -36 -14 73 141 277 424 439 610 70 80 58 89
-50 35 -108 -53 -220 -131 -292 -203 l-64 -63 29 48 c15 26 65 111 111 188 95
159 183 336 235 475 50 130 127 340 127 346 0 31 -141 -85 -238 -196 -133
-152 -255 -352 -313 -515 l-18 -50 0 127 c-1 98 5 156 25 255 55 281 136 553
230 775 31 71 53 132 50 135 -10 11 -55 -27 -114 -96 -110 -128 -183 -248
-243 -399 -21 -53 -40 -90 -42 -82 -9 30 -108 490 -147 685 -50 248 -90 400
-137 516 l-36 90 21 22 c11 12 34 49 51 82 16 33 38 65 49 72 31 19 53 98 59
216 4 81 9 107 19 107 10 0 14 16 14 60 0 72 -8 113 -71 351 -27 103 -49 197
-49 211 0 13 -16 62 -35 108 -19 46 -35 88 -35 92 0 4 17 10 38 13 101 17 217
69 229 103 4 9 17 31 29 47 51 68 78 146 78 227 1 55 5 79 14 83 20 8 6 56
-45 160 -28 54 -41 91 -34 93 23 8 9 35 -45 92 -31 32 -53 63 -50 69 8 13 -36
47 -80 61 -26 9 -34 17 -34 35 0 33 27 104 56 149 39 58 29 78 -61 120 -138
66 -355 114 -395 87 -11 -8 -15 -36 -15 -128 -1 -155 -8 -185 -48 -208 -60
-35 -98 -70 -139 -125 l-40 -55 4 230 c4 204 7 238 27 298 31 94 26 115 -28
143 -72 36 -185 58 -298 58 -159 -1 -172 -17 -133 -169 16 -63 20 -111 20
-247 0 -92 -3 -168 -6 -168 -14 0 -100 23 -106 29 -4 4 -22 56 -38 116 -17 60
-55 170 -84 244 -49 125 -54 144 -59 241 -6 110 -40 280 -80 402 -14 40 -32
113 -41 162 -32 169 -109 323 -238 475 -67 80 -88 94 -88 63z m98 -105 c80
-101 137 -200 172 -296 27 -74 56 -209 46 -218 -2 -2 -38 29 -79 70 -59 57
-84 92 -116 159 -42 86 -83 226 -96 328 -8 63 -11 65 73 -43z m-488 -356 c0
-11 -21 -62 -47 -112 -79 -154 -214 -278 -521 -476 -80 -51 -147 -91 -150 -89
-8 8 118 208 195 307 153 201 259 294 398 352 99 41 125 45 125 18z m147 -148
c-6 -93 -44 -218 -99 -328 -42 -84 -194 -315 -207 -315 -10 0 4 100 30 225 48
223 133 394 231 465 22 16 43 30 46 30 3 0 2 -35 -1 -77z m375 -152 c54 -63
137 -175 185 -248 96 -150 107 -154 98 -33 -4 59 -3 70 6 50 6 -14 12 -70 13
-125 2 -87 7 -110 35 -180 60 -145 131 -362 131 -397 0 -4 -13 -2 -30 3 -23 9
-31 18 -36 47 -50 302 -276 737 -508 981 -52 55 -60 67 -32 45 22 -16 84 -80
138 -143z m913 -427 c80 -21 135 -51 135 -72 0 -9 -10 -42 -22 -72 -20 -50
-23 -77 -28 -317 -3 -144 -7 -264 -10 -267 -3 -2 -26 9 -50 26 -52 35 -171 95
-251 127 l-55 22 0 167 c1 143 -2 182 -23 269 -26 112 -23 128 27 137 49 8
216 -3 277 -20z m-4123 -176 c-20 -20 -14 -26 41 -33 59 -8 119 -30 115 -42
-2 -5 30 -40 70 -77 40 -38 68 -72 63 -75 -6 -4 6 -37 27 -79 27 -56 33 -78
26 -90 -6 -9 -11 -44 -12 -76 -3 -64 -25 -123 -65 -171 l-26 -30 -22 22 c-19
19 -20 25 -10 54 6 17 11 67 11 109 0 66 -4 86 -31 139 -68 136 -195 168 -283
71 -20 -22 -36 -43 -36 -48 0 -4 -4 -13 -9 -20 -6 -10 -29 -3 -99 31 -49 25
-104 49 -121 55 -28 10 -30 14 -21 36 25 66 63 125 109 171 50 49 61 52 40 14
-9 -18 -6 -17 39 6 51 26 112 42 172 44 26 1 31 -2 22 -11z m4688 -36 c87 -26
216 -80 231 -98 9 -11 5 -26 -20 -73 -17 -32 -37 -82 -45 -112 -10 -38 -15
-46 -15 -26 -1 20 -8 30 -27 37 -30 12 -139 12 -206 1 -37 -6 -48 -5 -53 7 -4
11 -16 13 -43 10 l-37 -5 2 141 c1 77 2 143 2 145 2 9 151 -10 211 -27z
m-2015 -109 c33 -13 66 -27 74 -30 10 -5 12 0 7 18 -12 40 89 -73 117 -133 40
-84 42 -96 15 -107 -13 -6 -61 -26 -108 -46 -47 -20 -90 -39 -96 -41 -6 -3
-17 9 -24 25 -17 41 -80 97 -123 109 -20 6 -54 6 -78 2 -58 -11 -128 -84 -152
-160 -20 -62 -21 -160 -3 -213 13 -34 12 -40 -5 -60 l-19 -22 -40 43 c-45 50
-64 116 -59 200 4 49 -3 67 -14 40 -3 -8 -6 -6 -6 5 -1 21 32 90 65 133 14 20
19 35 13 41 -13 13 55 89 102 113 24 13 36 25 33 34 -6 15 62 36 120 36 35 0
55 13 36 25 -5 3 -10 10 -10 14 0 15 95 -1 155 -26z m-4560 -18 c87 -58 159
-158 214 -297 17 -43 34 -96 37 -118 4 -22 10 -40 15 -40 15 0 10 51 -10 125
-23 82 -26 77 79 134 98 52 186 85 342 127 70 18 159 49 197 68 60 30 68 33
64 16 -3 -10 -14 -26 -24 -36 -33 -30 -21 -32 39 -9 60 24 211 59 219 51 3 -3
-8 -16 -23 -30 -38 -32 -28 -40 26 -21 42 15 110 21 110 9 0 -3 -10 -14 -21
-23 -22 -17 -21 -18 49 -29 170 -28 369 -116 535 -235 323 -233 494 -507 583
-933 38 -184 73 -275 140 -363 42 -55 51 -71 35 -66 -12 3 -21 4 -21 2 0 -2
16 -34 35 -71 19 -37 35 -77 35 -88 0 -20 -1 -20 -18 -5 -17 15 -17 12 -14
-81 3 -61 -1 -114 -9 -142 l-13 -45 -6 35 c-7 38 -12 32 -31 -40 -13 -52 -49
-127 -90 -187 -28 -40 -30 -41 -62 -32 -17 6 -93 13 -167 16 -111 4 -152 2
-230 -15 -52 -11 -103 -23 -112 -27 -17 -7 -16 -4 1 36 20 43 21 44 78 50 71
7 110 26 153 75 56 64 97 196 83 265 -4 21 -1 34 8 40 10 6 10 9 2 9 -7 0 -24
22 -37 49 -14 26 -48 74 -77 105 -28 31 -50 58 -48 60 2 2 37 8 77 15 130 20
154 42 156 139 1 87 -18 152 -60 200 -83 97 -208 95 -266 -5 -26 -44 -33 -154
-14 -223 17 -66 13 -78 -10 -24 -38 88 -23 345 26 478 21 56 85 136 109 136 7
0 9 -4 6 -10 -4 -6 13 -10 43 -10 32 0 54 -5 62 -15 7 -8 9 -15 5 -15 -4 0 4
-10 19 -21 15 -12 25 -24 22 -27 -3 -3 5 -19 18 -36 39 -52 53 -86 91 -226 21
-78 49 -158 68 -190 45 -77 59 -134 59 -230 -1 -44 1 -51 10 -36 7 12 9 51 5
103 -5 69 -11 93 -35 131 -37 61 -52 100 -96 251 -20 68 -48 145 -61 171 -13
26 -22 50 -18 53 3 4 -15 26 -40 51 -33 34 -55 47 -86 52 -22 4 -38 10 -35 15
11 18 -44 8 -77 -14 -84 -57 -130 -198 -133 -407 -2 -198 -4 -193 128 -329 62
-64 121 -131 131 -150 29 -57 31 -138 5 -215 -40 -120 -109 -186 -196 -186
-62 0 -75 15 -61 73 7 28 17 47 25 47 44 0 160 87 187 141 22 42 19 86 -6 100
-30 16 -258 13 -359 -5 -93 -17 -120 -36 -120 -86 0 -52 89 -114 209 -145 25
-6 47 -18 49 -26 5 -30 -37 -77 -95 -105 -52 -26 -68 -29 -159 -29 -95 0 -104
2 -175 37 -49 24 -92 55 -123 88 -50 53 -54 73 -18 78 31 5 17 22 -17 22 -32
0 -81 -34 -81 -56 0 -12 4 -12 21 -4 11 7 22 10 24 8 1 -2 50 -76 108 -164
106 -163 138 -198 214 -232 l42 -18 -60 -60 c-71 -69 -131 -145 -181 -229
l-36 -60 -219 7 c-488 16 -648 35 -830 99 -98 35 -246 107 -310 150 -29 20
-43 25 -47 16 -3 -7 -35 19 -80 67 -54 56 -76 74 -76 60 0 -16 -4 -14 -25 11
-39 48 -126 174 -158 229 l-28 51 6 -38 c3 -21 8 -46 11 -55 2 -9 -11 15 -30
53 -19 39 -39 96 -46 128 -11 56 -30 78 -30 35 -1 -20 -2 -21 -11 -6 -12 22
-17 202 -6 288 l7 65 -20 -24 c-19 -23 -20 -23 -20 -2 0 30 53 223 107 386 25
77 46 158 47 181 3 56 54 171 80 178 12 3 39 6 62 6 22 0 49 7 60 15 17 13 12
14 -61 15 -44 0 -108 5 -143 10 -80 13 -176 55 -169 73 3 8 -13 31 -35 51 -93
88 -127 252 -78 380 10 28 2 34 -19 14 -26 -25 70 150 105 191 30 34 32 41 17
41 -11 0 -25 -6 -32 -12 -11 -11 -12 -9 -3 8 13 25 66 67 116 90 38 19 47 34
19 34 -32 0 1 19 61 34 70 18 73 21 56 41 -11 13 -5 15 51 15 95 0 188 -18
243 -46 27 -13 51 -22 54 -20 2 3 -11 21 -31 41 -45 45 -30 45 38 0z m2001
-120 c53 -40 87 -121 87 -204 -1 -36 -6 -79 -12 -94 l-11 -28 -80 70 c-44 38
-111 90 -150 117 -38 26 -70 52 -70 58 0 22 41 77 72 97 46 28 115 22 164 -16z
m3238 -15 c44 -12 96 -30 117 -40 55 -29 63 -25 35 17 -14 20 -23 39 -21 41 2
3 35 -11 72 -31 37 -19 116 -49 174 -66 157 -45 351 -134 436 -199 l23 -17
-20 -63 c-19 -60 -27 -133 -14 -119 3 3 19 45 36 94 32 97 63 156 115 221 40
49 126 116 163 127 l25 7 -27 -29 c-40 -42 -35 -46 20 -17 56 29 214 52 277
39 39 -7 39 -8 15 -18 -23 -9 -23 -10 -5 -15 43 -10 125 -44 125 -52 0 -5 -8
-10 -17 -12 -13 -3 -3 -12 32 -30 28 -15 66 -40 85 -57 32 -28 33 -30 13 -31
-28 0 -29 -8 -4 -34 25 -27 82 -127 105 -186 l18 -45 -23 20 c-22 20 -22 20
-15 0 4 -11 12 -41 17 -66 22 -101 -36 -275 -107 -323 -24 -16 -32 -26 -23
-31 14 -10 -19 -29 -97 -55 -76 -26 -159 -34 -228 -21 -33 6 -62 9 -65 6 -12
-12 21 -27 81 -37 l64 -11 36 -89 c20 -48 33 -90 28 -93 -5 -3 5 -54 21 -113
55 -199 109 -427 108 -457 l0 -30 -15 28 c-8 15 -16 27 -17 27 -2 0 -3 -64 -3
-142 0 -96 -5 -158 -14 -188 l-14 -45 -4 33 c-5 51 -17 38 -36 -40 -9 -40 -28
-93 -42 -118 -25 -45 -26 -40 -8 35 11 44 -11 27 -40 -32 -48 -100 -176 -261
-176 -224 0 8 -34 -19 -76 -59 -51 -48 -79 -68 -84 -60 -5 8 -23 2 -61 -23
-265 -169 -513 -214 -1119 -200 l-298 6 -21 51 c-31 76 -103 195 -150 248
l-42 47 36 10 c94 26 180 108 316 301 54 77 65 87 80 77 29 -18 35 1 9 28 -22
24 -76 43 -87 31 -4 -3 2 -12 12 -20 18 -13 18 -14 -3 -44 -26 -35 -105 -96
-148 -113 -99 -38 -255 -29 -334 19 -41 25 -93 95 -87 116 1 4 34 18 72 30 39
13 89 32 111 44 43 22 94 74 94 96 0 24 -40 64 -73 75 -94 29 -335 46 -399 28
-30 -8 -44 -41 -34 -81 9 -38 92 -122 148 -150 44 -22 55 -33 69 -71 17 -45
17 -45 -4 -57 -32 -17 -107 -14 -145 6 -72 37 -123 150 -123 270 0 110 45 182
181 287 42 33 82 71 88 84 41 89 41 348 1 468 -27 84 -87 154 -138 164 -23 4
-32 3 -28 -5 5 -6 -8 -13 -33 -17 -46 -8 -140 -80 -140 -108 0 -9 -11 -34 -23
-55 -26 -41 -65 -136 -92 -225 -10 -32 -42 -94 -71 -139 -30 -44 -51 -85 -48
-89 2 -5 -4 -25 -14 -46 -15 -30 -18 -49 -12 -93 9 -67 28 -104 76 -150 37
-35 38 -35 130 -35 l92 0 4 -77 c8 -135 89 -259 178 -274 76 -12 81 -14 96
-50 8 -20 14 -38 12 -39 -2 -2 -33 14 -69 36 -93 56 -245 83 -414 76 -66 -3
-130 -9 -142 -12 -20 -6 -25 -1 -42 38 -11 25 -25 71 -33 101 -13 56 -28 75
-28 34 0 -17 -3 -19 -12 -10 -14 14 -17 162 -5 237 7 44 6 48 -6 33 -8 -10
-17 -18 -21 -18 -12 0 31 97 64 144 31 46 31 48 9 41 -19 -6 -14 2 24 44 67
76 113 155 142 252 118 384 145 451 235 586 84 125 157 209 251 288 219 183
416 281 654 324 95 17 99 19 73 31 -16 7 -28 17 -28 22 0 13 74 9 120 -7 24
-8 45 -13 47 -11 2 2 -11 18 -29 35 -29 27 -31 31 -12 31 11 0 55 -9 98 -20z
m-783 -93 c34 -23 79 -80 79 -101 0 -6 -36 -35 -79 -64 -43 -29 -114 -82 -156
-118 -58 -50 -80 -63 -88 -55 -8 8 -12 49 -12 109 0 90 2 101 31 152 17 30 46
65 64 78 45 30 115 30 161 -1z m-191 -812 c34 -18 74 -81 97 -156 22 -70 24
-319 4 -397 -12 -48 -19 -57 -86 -107 -94 -71 -151 -134 -181 -200 -22 -48
-28 -54 -63 -60 -22 -3 -65 -2 -97 4 -32 6 -59 11 -61 11 -1 0 0 7 4 16 4 12
2 15 -8 12 -13 -4 -39 13 -39 28 0 4 -7 12 -17 19 -27 20 -29 149 -3 193 11
18 18 37 15 42 -3 5 15 40 39 77 24 38 60 114 79 170 40 113 68 172 103 220
14 18 23 38 22 44 -2 7 11 17 27 23 40 14 42 16 26 25 -19 12 53 35 86 26 20
-5 24 -3 20 9 -8 20 -3 20 33 1z m-2071 -253 c56 -41 91 -118 91 -198 0 -47
-17 -104 -32 -104 -6 0 -7 8 -3 18 4 9 10 40 12 69 7 71 -23 134 -81 168 -24
14 -53 25 -66 25 -39 0 -104 -38 -125 -72 -25 -43 -32 -19 -11 37 20 50 32 63
82 80 43 14 95 6 133 -23z m-55 -114 c16 -26 -4 -53 -40 -53 -23 0 -30 5 -32
23 -2 13 -1 30 2 38 8 20 56 14 70 -8z m-3101 -307 c53 -89 101 -206 128 -310
19 -76 24 -212 9 -261 l-7 -25 -11 26 c-6 14 -27 91 -48 169 -21 79 -39 139
-41 133 -2 -5 12 -70 31 -144 19 -73 33 -135 31 -137 -7 -7 -83 153 -113 240
-41 115 -61 214 -68 340 l-5 103 24 -29 c13 -15 45 -63 70 -105z m-605 -147
c270 -101 467 -224 560 -348 76 -103 88 -134 48 -127 -212 38 -345 100 -486
225 -72 63 -208 213 -234 258 -16 25 -16 28 -1 28 9 0 60 -16 113 -36z m3662
-33 c0 -12 -74 -40 -136 -52 -55 -10 -158 1 -211 23 -36 14 -26 17 118 27 163
12 229 12 229 2z m30 -21 c0 -32 -34 -80 -81 -117 -89 -69 -131 -77 -222 -43
-73 27 -143 73 -149 98 -3 12 -1 28 6 37 11 15 17 15 76 -6 46 -15 90 -22 151
-22 76 -1 91 2 145 29 68 36 74 38 74 24z m2372 -51 c48 -6 85 -15 83 -20 -9
-14 -148 -32 -210 -27 -55 5 -165 48 -165 65 0 8 185 -3 292 -18z m-250 -31
c80 -43 184 -49 298 -19 83 21 99 17 84 -26 -7 -21 -30 -38 -95 -72 -47 -23
-105 -45 -130 -48 -39 -4 -51 0 -106 36 -58 39 -123 117 -123 148 0 18 1 17
72 -19z m-857 -84 c-38 -107 -80 -176 -146 -239 l-41 -40 7 40 c10 61 39 136
70 185 29 46 135 163 142 156 2 -2 -12 -48 -32 -102z m-1492 -160 c7 -7 -32
-114 -49 -133 -10 -11 -20 -7 -59 23 -66 49 -78 45 -25 -8 l43 -45 -26 -12
c-23 -11 -30 -8 -68 24 -23 20 -57 41 -76 48 -34 11 -114 9 -143 -4 -11 -5
-25 8 -48 44 -18 28 -32 53 -30 55 2 2 33 -9 68 -24 57 -23 79 -27 170 -27 98
0 109 2 165 31 69 36 70 36 78 28z m2538 -84 c111 -80 288 -90 407 -25 23 13
42 20 42 17 0 -19 -84 -107 -99 -103 -9 2 -47 4 -86 4 -78 2 -144 -25 -166
-65 -11 -21 -11 -21 21 2 58 41 181 65 218 41 22 -14 -72 -89 -134 -107 -62
-18 -77 -13 -136 44 l-38 36 28 30 c26 29 26 29 2 13 -14 -10 -31 -20 -38 -23
-24 -12 -57 23 -75 77 -16 51 -16 55 0 67 21 15 20 16 54 -8z m-4825 -1 c3 -6
14 -9 24 -6 13 3 28 -10 55 -49 50 -72 200 -214 255 -241 284 -138 346 -164
457 -192 139 -35 292 -51 615 -64 175 -7 321 -16 324 -20 4 -3 -2 -28 -14 -54
-34 -81 -72 -224 -79 -299 l-6 -72 -36 -6 c-185 -30 -477 75 -645 233 -63 59
-65 54 -9 -16 62 -77 193 -158 353 -219 73 -28 80 -28 280 -29 236 -2 290 -12
358 -71 39 -33 72 -80 72 -102 0 -5 -17 -5 -39 1 -28 8 -46 8 -63 0 -21 -11
-20 -12 15 -12 86 -2 127 -46 127 -138 l0 -63 -37 0 c-21 0 -56 -9 -78 -20
-24 -12 -30 -18 -15 -14 14 3 47 8 74 11 l49 6 -7 -43 c-10 -64 -32 -98 -115
-180 -122 -120 -317 -225 -506 -275 -182 -47 -339 -67 -485 -63 -133 4 -169
12 -305 64 -18 7 -19 6 -5 -11 14 -17 13 -17 -10 -10 -111 33 -306 163 -428
285 -98 98 -164 190 -224 315 -28 58 -37 70 -33 45 11 -61 93 -217 161 -306
69 -90 66 -92 -36 -24 -30 21 -74 47 -98 59 -53 27 -209 182 -228 227 -8 18
-25 44 -38 57 -17 17 -27 44 -35 94 -12 67 -11 75 23 204 20 74 60 235 90 359
65 265 109 404 173 546 45 102 55 115 69 93z m3309 -38 c28 -14 78 -54 113
-87 90 -89 83 -106 -23 -56 -57 27 -148 112 -176 164 -10 18 -8 19 13 13 12
-4 46 -19 73 -34z m1214 23 c22 -7 23 -11 19 -79 -3 -60 -8 -78 -31 -108 -41
-54 -53 -58 -127 -40 -82 19 -240 12 -326 -15 -172 -54 -333 -182 -445 -354
l-37 -57 -26 58 c-14 32 -26 64 -26 71 0 6 -7 24 -16 40 -16 27 -16 29 7 61
140 202 390 371 624 425 62 14 335 13 384 -2z m-1689 -19 c77 -20 230 -90 297
-136 60 -41 233 -209 279 -270 40 -55 45 -110 14 -174 -23 -49 -61 -94 -67
-79 -13 38 -112 170 -170 227 -155 153 -329 227 -533 227 -41 0 -100 -6 -130
-14 l-55 -15 -33 32 c-57 55 -90 154 -64 195 15 22 93 31 247 28 102 -2 171
-9 215 -21z m-765 -36 c27 -19 50 -39 52 -44 2 -6 -13 -19 -32 -29 -33 -18
-37 -18 -78 -2 -24 9 -63 33 -86 52 -35 30 -40 39 -29 51 9 11 27 14 69 11 44
-3 66 -11 104 -39z m282 -21 c0 -70 14 -107 62 -152 23 -22 28 -32 19 -38 -21
-13 -25 -10 -64 45 -21 28 -39 54 -41 56 -2 2 -5 2 -8 -1 -3 -3 10 -29 30 -58
20 -29 34 -53 33 -54 -55 -22 -150 -79 -201 -122 -162 -133 -260 -326 -283
-553 -6 -61 -9 -71 -23 -66 -45 18 -130 35 -172 35 l-47 0 5 48 c14 143 98
372 184 502 83 124 214 254 329 324 124 77 128 78 133 29 3 -37 4 -36 5 9 2
41 9 54 33 57 4 1 6 -27 6 -61z m2245 10 c-2 -30 0 -48 7 -48 6 0 11 20 11 46
l0 46 38 -23 c181 -108 312 -220 389 -334 114 -169 203 -419 203 -572 l0 -43
-43 0 c-39 0 -124 -18 -169 -35 -16 -6 -18 0 -18 48 0 67 -22 182 -49 261 -60
170 -184 318 -353 418 l-68 40 22 37 c11 20 25 40 30 46 10 11 10 25 0 25 -4
0 -16 -16 -26 -34 -24 -45 -61 -80 -76 -71 -8 5 -4 15 13 34 44 47 59 88 55
152 -3 55 -1 60 17 57 17 -3 20 -9 17 -50z m2426 -188 c46 -116 87 -272 142
-545 28 -137 63 -295 77 -350 27 -108 26 -161 -3 -218 -57 -110 -200 -243
-346 -323 -140 -78 -152 -78 -91 -8 99 116 191 277 208 364 4 24 -8 6 -39 -56
-87 -175 -252 -364 -411 -469 -79 -53 -100 -64 -206 -105 -50 -20 -50 -20 -39
0 14 26 9 25 -64 -10 -91 -45 -188 -56 -349 -42 -394 34 -690 153 -899 362
-76 76 -112 135 -120 196 -3 25 1 29 25 32 16 2 46 -4 68 -12 21 -9 39 -13 39
-10 0 10 -85 44 -112 44 -27 0 -28 2 -28 50 0 73 22 117 66 136 20 9 47 13 60
10 31 -8 31 2 0 14 -15 5 -37 5 -55 0 -35 -10 -38 -3 -16 40 31 60 133 114
238 126 32 4 106 -1 182 -11 219 -29 396 3 578 107 69 40 192 136 184 145 -3
2 -32 -16 -65 -40 -83 -61 -230 -132 -327 -159 -65 -17 -109 -21 -235 -22
-211 -1 -205 -4 -214 86 -4 40 -16 114 -29 163 -12 50 -22 95 -22 100 0 6 137
10 390 11 527 0 651 19 893 136 48 23 107 49 132 58 62 21 167 98 270 197 46
45 85 81 86 80 1 -1 16 -36 32 -77z m-7287 -24 c27 -38 49 -79 49 -90 -1 -21
-1 -21 -16 -1 -8 11 -38 58 -65 104 -58 97 -39 89 32 -13z m4601 -15 c31 -33
97 -86 147 -119 l90 -59 -71 -89 c-39 -49 -121 -147 -183 -219 -251 -292 -329
-427 -366 -635 -13 -74 -6 -183 17 -262 18 -62 74 -166 103 -192 28 -25 26
-31 -6 -34 -16 -1 -44 -7 -63 -14 -38 -12 -120 -64 -120 -76 0 -12 -89 -52
-94 -43 -10 16 24 143 56 208 18 38 35 71 36 76 2 4 -1 7 -7 7 -16 0 -97 -76
-142 -133 l-39 -49 6 34 c14 72 58 197 95 268 42 81 45 90 29 90 -39 0 -185
-185 -240 -302 l-29 -63 5 75 c14 193 56 363 134 547 75 173 66 188 -35 61
-88 -112 -178 -292 -209 -423 -14 -55 -28 -113 -32 -130 -6 -25 -9 -17 -19 50
-15 103 -37 176 -82 278 -42 97 -73 147 -90 147 -16 0 -16 -1 -2 -37 39 -102
71 -418 54 -548 l-7 -60 -17 45 c-10 25 -29 63 -43 86 -27 42 -87 99 -95 90
-3 -2 7 -33 21 -68 31 -79 45 -140 44 -196 0 -41 -2 -43 -17 -28 -14 15 -14
18 -1 27 31 20 -83 91 -168 105 -23 4 -42 8 -42 9 0 2 15 26 34 54 44 65 74
146 93 246 45 248 -75 504 -457 980 -119 148 -154 195 -149 199 2 1 24 17 49
33 25 17 66 48 90 68 45 37 46 37 115 32 82 -6 209 -49 291 -98 81 -48 221
-189 277 -280 l46 -75 -20 -42 c-46 -93 19 -114 126 -41 l41 27 39 -24 c49
-29 71 -30 85 -4 7 14 6 29 -6 59 -16 39 -15 41 16 99 62 118 213 259 346 326
93 46 158 63 294 75 8 0 41 -26 72 -58z m120 20 c52 -15 119 -41 148 -57 55
-30 194 -154 231 -205 l20 -28 -38 15 c-21 9 -99 47 -173 85 -162 82 -344 219
-292 219 5 0 52 -13 104 -29z m-1852 16 c0 -11 -141 -103 -219 -141 -100 -51
-248 -109 -263 -104 -12 4 90 94 157 139 72 49 325 131 325 106z m-3070 -18
c-8 -5 -54 -33 -103 -62 -88 -52 -198 -129 -193 -134 1 -2 49 28 107 65 139
92 199 126 199 114 0 -16 -76 -105 -122 -143 -89 -74 -302 -191 -446 -245 -61
-23 -62 -24 -52 -4 19 35 212 224 284 279 107 80 242 139 321 140 16 0 17 -2
5 -10z m3009 -264 c50 -66 129 -169 175 -230 166 -218 251 -362 302 -510 23
-68 27 -97 28 -190 0 -78 -5 -127 -18 -169 -23 -76 -74 -178 -86 -171 -5 3
-12 -4 -15 -16 -19 -59 -129 -144 -231 -179 -68 -24 -204 -39 -204 -23 0 6 15
14 34 17 36 7 116 59 116 77 0 6 -14 1 -30 -11 -42 -30 -132 -60 -178 -60 -48
0 -128 39 -172 85 l-34 35 36 0 c46 0 95 17 136 47 46 35 36 37 -26 6 -71 -35
-136 -42 -164 -17 -30 28 -58 93 -58 140 0 34 6 48 33 74 17 17 44 39 60 48
15 9 27 20 27 25 0 11 -37 -10 -84 -47 l-39 -30 7 44 c14 92 58 163 183 293
108 113 193 217 178 217 -3 0 -28 -20 -55 -46 -26 -25 -50 -41 -53 -37 -3 4
-10 53 -17 107 -12 105 -39 205 -71 269 -11 20 -21 37 -23 37 -2 0 9 -39 24
-87 34 -105 48 -189 31 -179 -7 5 -11 -2 -11 -18 0 -30 -7 -32 -46 -11 -40 20
-53 19 -47 -5 5 -20 4 -20 -58 3 -35 14 -81 32 -101 41 -32 14 -38 14 -38 2 0
-8 6 -16 13 -19 29 -10 -3 -15 -43 -6 -25 6 -57 9 -72 6 -26 -3 -28 -1 -28 35
0 100 60 295 119 389 27 43 35 48 113 72 45 15 126 47 178 71 52 24 100 43
107 43 6 -1 52 -56 102 -122z m1000 -105 c29 -73 46 -129 41 -134 -6 -5 -26 2
-51 18 l-41 28 -27 -20 c-49 -36 -113 -64 -123 -54 -12 12 20 78 61 124 41 48
61 92 68 151 5 38 8 46 14 32 4 -11 30 -76 58 -145z m1266 64 l80 -32 28 -68
c40 -99 67 -218 67 -301 l0 -73 -50 0 c-40 0 -48 3 -44 15 4 9 0 15 -9 15 -8
0 -34 -7 -57 -15 -54 -19 -50 -20 -50 12 0 25 -1 25 -18 10 -41 -38 -42 -17
-1 109 17 53 28 98 26 100 -12 13 -103 -247 -122 -350 l-7 -36 -61 52 c-100
88 -48 19 108 -142 148 -152 152 -158 171 -265 l6 -40 -33 31 c-37 34 -70 54
-91 54 -7 0 10 -15 37 -34 80 -53 88 -67 83 -129 -2 -30 -13 -71 -25 -93 -18
-36 -23 -39 -67 -42 -42 -3 -83 6 -150 34 -14 5 -17 4 -12 -4 13 -21 84 -52
138 -60 l53 -7 -48 -48 c-67 -67 -123 -91 -196 -82 -31 4 -82 18 -114 30 -31
13 -55 19 -52 14 12 -19 83 -48 135 -55 66 -9 47 -22 -42 -30 -230 -21 -455
156 -499 391 -16 84 -5 215 25 310 44 138 130 271 321 495 54 63 136 163 182
222 l85 107 61 -31 c34 -17 98 -46 142 -64z m2879 -381 c-101 -226 -200 -549
-244 -792 -21 -120 -30 -147 -30 -91 0 18 -14 102 -31 186 -31 152 -31 154
-14 206 26 83 109 250 168 341 45 69 160 207 173 207 2 0 -8 -26 -22 -57z
m-5595 -84 c5 8 27 3 69 -14 71 -29 112 -32 112 -10 0 13 4 14 21 4 12 -6 32
-9 45 -6 27 5 28 1 39 -90 l5 -51 -61 -54 c-67 -59 -144 -154 -166 -208 -8
-19 -20 -64 -27 -100 l-12 -65 -29 72 c-26 68 -27 76 -16 129 16 80 14 118 -8
172 -10 26 -24 67 -31 90 -6 26 -28 62 -51 87 -46 50 -40 55 44 42 42 -6 62
-5 66 2z m2661 -14 c0 -8 4 -15 9 -15 5 0 25 7 44 15 47 19 67 19 67 -1 0 -14
7 -16 40 -11 l39 5 -29 -37 c-16 -20 -34 -57 -39 -81 -4 -25 -16 -58 -25 -75
-9 -16 -16 -49 -16 -73 l0 -43 -84 76 -83 77 14 71 c14 67 34 107 55 107 4 0
8 -7 8 -15z m-5629 -220 c135 -157 236 -320 306 -492 l36 -88 -10 -120 c-20
-253 31 -609 119 -828 39 -97 103 -212 160 -287 21 -29 38 -53 36 -55 -2 -2
-32 0 -68 4 -78 9 -197 -1 -271 -24 -36 -11 -119 -20 -253 -26 -110 -5 -201
-7 -203 -5 -2 2 20 18 49 36 64 39 149 70 195 70 18 0 33 5 33 10 0 33 -156
151 -274 206 -68 32 -70 33 -35 34 51 0 216 -43 283 -75 31 -14 81 -50 112
-78 48 -43 56 -47 49 -27 -34 114 -309 433 -508 590 -53 41 -94 76 -92 78 6 6
112 -41 188 -85 175 -101 347 -269 453 -440 32 -52 35 -54 29 -24 -8 39 -45
128 -108 261 -41 86 -138 252 -425 720 -55 90 -99 166 -97 168 7 7 103 -48
160 -92 77 -59 226 -207 271 -268 19 -25 62 -99 95 -165 33 -65 65 -122 71
-128 47 -45 -148 542 -350 1052 -75 191 -78 202 -53 183 16 -10 61 -58 102
-105z m550 -26 c11 -8 28 -32 37 -52 23 -50 165 -195 209 -213 19 -9 65 -38
102 -66 36 -28 98 -66 136 -84 39 -18 94 -52 123 -77 104 -87 266 -167 377
-186 33 -6 89 -18 125 -26 127 -29 328 -15 570 40 164 37 316 101 443 187 32
22 60 38 61 36 1 -1 31 -52 65 -113 35 -60 106 -174 158 -253 52 -79 104 -164
115 -189 12 -28 31 -51 50 -61 52 -28 228 -171 320 -260 l88 -85 -42 -79
c-158 -297 -446 -493 -832 -567 -113 -22 -156 -26 -156 -13 0 4 7 32 15 62 35
131 58 297 59 430 1 128 0 138 -27 195 -35 76 -69 111 -132 141 -57 27 -145
32 -220 12 l-45 -12 -32 39 c-81 104 -310 308 -393 353 -130 69 -234 101 -375
114 -140 13 -246 5 -274 -19 -11 -11 -47 -27 -78 -36 -129 -39 -261 -162 -329
-304 -76 -158 -78 -172 -69 -339 10 -200 34 -273 145 -449 19 -30 19 -30 -19
5 -65 60 -191 261 -234 373 -47 120 -86 274 -104 407 -19 141 -16 467 5 635
20 151 79 485 98 550 l12 40 14 -60 c8 -37 21 -66 34 -76z m4009 49 c-53 -115
-87 -222 -115 -363 -26 -129 -42 -327 -30 -365 6 -20 11 -13 30 46 12 38 36
98 54 134 38 74 125 194 157 215 20 13 19 9 -8 -40 -16 -29 -40 -86 -54 -127
-24 -72 -58 -250 -51 -271 2 -6 22 27 44 73 27 56 58 101 89 130 26 25 44 38
41 30 -3 -8 -18 -43 -32 -77 -23 -57 -46 -193 -32 -193 3 0 27 9 54 21 l48 20
-36 -38 c-38 -41 -77 -101 -84 -130 -3 -10 -13 -43 -24 -73 l-20 -55 -80 -5
c-61 -4 -87 -11 -110 -28 l-30 -22 -36 24 c-34 24 -69 37 -126 50 -23 5 -29
15 -49 92 -14 51 -35 102 -53 127 -26 36 -31 52 -33 112 -1 43 -12 98 -27 143
-14 39 -23 72 -21 72 12 0 85 -128 100 -173 9 -29 20 -56 25 -61 29 -32 34
346 6 489 -10 50 -20 104 -23 120 -5 30 -4 30 15 -6 64 -116 111 -299 127
-494 l7 -80 22 125 c44 243 87 366 182 517 45 73 99 143 109 143 2 0 -15 -37
-36 -82z m3639 -283 c58 -288 72 -412 72 -620 0 -346 -59 -628 -178 -844 -45
-83 -112 -177 -158 -221 -33 -32 -32 -29 18 47 91 135 125 252 128 444 2 88
-2 125 -16 164 -33 94 -103 221 -151 275 -58 64 -173 142 -247 166 -28 9 -61
23 -72 30 -26 17 -204 35 -227 23 -9 -5 -40 -9 -68 -9 -68 0 -215 -42 -311
-89 -104 -51 -276 -197 -399 -338 l-55 -62 -60 15 c-173 46 -312 -33 -361
-204 -32 -109 2 -444 62 -614 8 -23 12 -43 10 -45 -7 -8 -193 27 -281 52 -106
31 -268 106 -355 165 -138 94 -271 248 -356 414 l-39 76 105 105 c58 58 138
131 179 163 145 111 135 98 407 552 96 160 82 149 138 107 56 -44 146 -97 212
-127 279 -126 727 -183 893 -114 19 8 42 12 51 9 43 -14 255 82 365 165 37 28
94 62 128 76 34 13 91 42 127 64 36 21 77 43 91 49 49 18 181 144 231 220 27
41 51 85 54 98 4 14 10 21 15 16 5 -5 26 -98 48 -208z m590 -56 c-85 -228
-161 -390 -283 -602 -57 -100 -132 -234 -166 -297 l-61 -115 7 60 c3 33 10 79
15 102 21 100 210 490 327 677 34 54 56 93 48 87 -21 -17 -101 -144 -169 -266
-46 -81 -143 -290 -194 -415 -15 -37 -5 110 13 184 30 123 124 305 242 466 56
77 268 297 277 288 3 -3 -22 -79 -56 -169z m-5826 -22 c24 -48 37 -87 37 -113
0 -50 37 -130 85 -183 47 -52 145 -118 197 -132 l40 -10 -67 -67 c-37 -37 -86
-91 -108 -121 -36 -46 -43 -51 -52 -36 -5 9 -52 83 -104 163 -110 171 -231
372 -231 384 0 4 17 23 38 42 21 19 56 59 77 90 22 30 42 55 45 55 3 1 22 -32
43 -72z m2916 -168 c-16 -27 -66 -108 -112 -181 -46 -73 -110 -178 -142 -232
l-58 -100 -26 35 c-46 60 -155 170 -186 187 -21 11 -13 0 27 -37 49 -45 168
-190 168 -205 0 -2 -42 -36 -92 -75 -107 -80 -831 -802 -925 -922 l-59 -76
-34 61 c-18 33 -62 89 -96 125 -63 64 -63 65 -42 80 79 55 238 202 473 436
275 274 397 410 469 523 22 34 43 62 46 62 15 0 142 -125 171 -167 42 -60 50
-47 10 16 -31 48 -85 103 -146 149 -28 21 -29 23 -12 36 10 8 52 22 93 31 160
35 276 123 343 256 24 49 31 76 31 123 l1 61 63 -69 64 -69 -29 -48z m-1987
-129 c35 -10 72 -26 83 -34 19 -15 19 -15 -10 -16 l-29 0 24 -16 c34 -23 109
-95 121 -116 7 -14 6 -16 -6 -12 -22 9 -18 -3 16 -45 16 -21 37 -60 45 -86 16
-54 10 -65 -37 -65 -71 0 -206 -82 -275 -166 l-37 -45 -44 43 c-41 41 -42 45
-33 78 18 62 22 230 8 322 l-14 87 54 46 c30 25 58 45 62 45 4 0 37 -9 72 -20z
m1136 -34 c10 -10 10 -24 -4 -77 -9 -39 -18 -128 -21 -230 l-5 -167 -40 -46
-40 -47 -57 54 c-66 63 -127 104 -188 124 -23 8 -43 21 -43 29 0 25 40 100 66
124 25 25 31 46 14 52 -16 5 53 81 94 103 40 22 45 32 19 37 -28 6 21 34 87
52 57 15 96 12 118 -8z m188 -86 c27 -7 55 -14 62 -16 9 -3 4 -15 -16 -41 -16
-21 -49 -67 -74 -103 -25 -36 -68 -91 -96 -122 l-50 -56 -5 34 c-7 42 8 241
23 311 l12 53 48 -25 c26 -13 69 -29 96 -35z m-1533 -41 c10 -78 2 -298 -10
-310 -13 -13 -167 149 -225 236 -51 77 -50 85 20 85 43 0 159 33 177 51 19 19
30 1 38 -62z m-2293 11 c0 -5 -6 -10 -14 -10 -8 0 -17 -4 -20 -8 -3 -5 37 -8
89 -8 63 1 98 -3 106 -11 11 -11 10 -13 -4 -13 -9 0 -17 -4 -17 -10 0 -5 13
-10 30 -10 55 0 131 -22 153 -44 12 -12 56 -48 98 -79 73 -55 299 -278 299
-295 0 -5 -25 -26 -56 -47 -75 -52 -155 -142 -197 -223 -46 -89 -57 -131 -15
-61 113 190 266 320 380 321 26 1 63 -8 93 -22 28 -13 55 -26 60 -29 27 -12
-23 33 -54 49 l-36 19 38 1 c102 1 202 -94 211 -201 2 -24 1 -32 -1 -17 -10
61 -66 59 -99 -3 -30 -59 -21 -172 16 -184 42 -13 80 37 80 106 0 15 5 31 12
35 21 13 -13 -285 -53 -458 -41 -176 -142 -329 -255 -384 -144 -71 -288 20
-329 208 l-13 63 -1 -47 c-2 -80 49 -181 113 -226 26 -19 28 -22 11 -22 -11 0
-54 9 -95 21 -41 11 -201 54 -355 95 -431 115 -522 148 -652 240 -122 87 -214
220 -264 384 -18 58 -23 100 -23 185 -1 61 3 123 7 138 5 19 4 27 -3 22 -16
-10 -12 11 20 94 41 106 93 183 174 259 83 77 214 144 336 172 52 12 230 12
230 0z m1984 -9 c4 -5 -16 -26 -44 -46 -55 -40 -124 -115 -146 -157 -24 -47
-1 -30 46 33 41 55 131 139 150 139 4 0 27 -30 50 -67 72 -114 629 -652 842
-814 l81 -62 -29 -24 c-16 -13 -42 -32 -57 -41 -16 -9 -48 -47 -72 -84 l-43
-66 -129 130 c-70 72 -202 198 -293 281 -91 83 -207 191 -259 240 -121 115
-258 229 -316 262 l-45 27 33 46 c46 67 190 212 209 212 9 0 19 -4 22 -9z
m4188 -48 c7 -5 42 -20 78 -32 177 -63 306 -190 384 -380 30 -73 40 -115 26
-106 -8 5 -9 -6 -3 -41 39 -228 -77 -522 -260 -660 -142 -106 -235 -140 -719
-262 -467 -118 -429 -113 -363 -49 60 59 86 123 84 211 l-1 51 -13 -73 c-19
-102 -58 -169 -126 -210 -49 -31 -60 -33 -114 -29 -77 6 -135 35 -200 101 -84
86 -135 219 -175 457 -21 123 -37 309 -27 309 3 0 11 -24 17 -54 12 -60 37
-89 71 -84 34 5 51 44 45 106 -6 69 -33 116 -69 120 -23 3 -30 -2 -43 -30 -14
-31 -15 -31 -9 -4 25 118 120 206 224 206 24 0 23 -2 -15 -25 -23 -14 -44 -31
-47 -39 -4 -9 7 -6 30 9 77 53 161 47 267 -19 98 -61 174 -148 248 -281 42
-76 33 -35 -11 53 -51 101 -112 175 -195 236 -36 26 -66 52 -66 57 0 18 217
233 293 290 87 65 141 96 202 114 22 7 38 15 35 19 -12 16 32 26 120 26 88 1
94 2 75 16 -18 15 -9 16 112 12 73 -3 138 -9 145 -15z m1228 -68 c0 -2 -25
-33 -56 -67 -189 -212 -428 -575 -459 -698 -5 -21 -1 -19 27 15 110 133 205
207 362 280 161 75 309 116 197 55 -78 -43 -154 -102 -254 -199 -81 -78 -185
-207 -175 -217 2 -2 33 12 69 30 35 19 93 41 129 49 81 19 210 32 210 21 0 -5
-30 -22 -68 -37 -70 -29 -203 -114 -209 -134 -3 -6 13 -14 35 -18 50 -8 152
-56 172 -80 14 -17 8 -17 -140 -11 -85 4 -198 15 -250 24 -52 9 -150 16 -217
17 -78 0 -119 4 -115 10 70 106 91 142 123 211 21 44 52 128 69 185 18 57 49
131 68 164 83 138 234 278 393 365 71 38 89 45 89 35z m-4600 -170 c13 -14 28
-25 33 -25 5 0 2 11 -7 25 -15 22 -15 25 -1 25 22 0 86 -28 106 -46 16 -14 15
-18 -4 -53 -18 -33 -23 -36 -35 -25 -7 8 -26 14 -42 14 -49 0 -120 -103 -120
-174 0 -9 9 -25 21 -37 25 -25 51 -19 98 25 l33 31 -6 -40 c-19 -116 -19 -113
7 -145 42 -50 51 -92 30 -140 l-18 -41 -37 31 c-35 29 -38 36 -38 81 0 28 -5
59 -10 70 -18 32 -68 52 -119 46 -39 -4 -50 -1 -83 26 -42 34 -48 47 -19 47
52 0 130 127 104 168 -35 56 -116 -3 -147 -108 l-11 -38 -59 55 -59 55 49 49
c129 132 276 186 334 124z m300 -16 c-16 -29 -6 -35 19 -10 60 60 186 29 309
-76 79 -68 80 -71 17 -133 l-53 -53 -12 43 c-13 49 -67 110 -98 110 -73 0 -41
-151 39 -184 l29 -12 -39 -38 c-33 -32 -42 -36 -59 -27 -35 18 -78 13 -111
-14 -34 -29 -42 -48 -50 -124 -5 -45 -11 -57 -39 -79 l-32 -25 -36 78 c-78
168 -96 354 -45 453 12 23 26 40 30 37 5 -2 16 7 26 21 17 26 66 53 98 54 15
0 16 -3 7 -21z m-213 -105 c17 -46 -59 -164 -106 -164 -29 0 -36 23 -22 71 24
79 109 141 128 93z m-213 -29 c15 -41 -51 -135 -96 -135 -15 0 -17 5 -12 28
10 39 31 79 56 102 26 24 44 26 52 5z m648 -32 c24 -27 48 -81 48 -109 0 -21
-34 -17 -63 7 -28 22 -54 88 -44 113 9 24 30 19 59 -11z m-430 -227 c-10 -18
-23 27 -16 52 7 27 8 27 14 -8 3 -19 4 -39 2 -44z m-1768 2 c21 -60 -20 -169
-59 -155 -15 6 -17 17 -13 76 5 97 49 145 72 79z m1100 -17 c25 -26 28 -35 23
-73 l-6 -43 17 37 17 36 68 -62 67 -63 -14 -39 c-21 -62 -29 -137 -17 -181 16
-59 50 -85 115 -91 48 -4 62 0 112 28 51 29 58 30 72 16 14 -14 14 -17 -1 -34
-27 -30 -109 -70 -166 -83 -66 -14 -159 1 -203 32 -38 27 -67 90 -78 172 l-9
62 2 -75 c2 -53 8 -87 23 -117 12 -24 21 -43 20 -43 0 0 -46 16 -101 36 -129
46 -247 74 -312 74 -29 0 -53 4 -53 8 0 4 22 25 49 45 106 81 233 237 292 359
25 52 33 52 83 -1z m1564 -54 c67 -124 124 -197 231 -299 l89 -85 -97 -12
c-80 -11 -277 -60 -343 -86 -15 -6 -14 0 6 36 27 49 42 139 28 164 -7 13 -10
2 -14 -43 -3 -33 -17 -82 -30 -108 -32 -66 -76 -87 -173 -87 -84 1 -174 35
-221 84 -27 28 -27 29 -9 49 l18 20 26 -24 c86 -80 191 -73 236 14 21 40 19
126 -4 192 l-19 55 64 64 c35 34 65 61 67 58 3 -2 9 -17 16 -34 10 -28 11 -27
6 14 -5 41 -3 47 32 83 20 21 38 38 39 38 1 0 25 -42 52 -93z m-1016 60 c23
-22 46 -92 34 -104 -3 -3 -34 21 -70 53 -41 38 -60 62 -52 66 22 15 64 8 88
-15z m463 7 c13 -6 4 -19 -46 -70 -66 -67 -82 -68 -68 -5 13 59 65 93 114 75z
m1600 -18 c21 -32 30 -117 16 -144 -26 -49 -68 -8 -78 75 -9 81 28 122 62 69z
m-1857 -191 c24 -49 16 -56 -29 -25 -25 19 -27 24 -17 45 6 14 14 25 18 25 3
0 16 -20 28 -45z m-438 -100 c115 -115 113 -108 35 -145 -48 -23 -86 -25 -124
-6 -35 19 -51 55 -51 117 0 53 18 139 29 139 3 0 54 -47 111 -105z m975 33
c30 -101 11 -178 -49 -203 -19 -8 -41 -13 -48 -11 -7 3 -25 7 -40 10 -14 3
-41 18 -58 33 l-32 26 99 99 c53 54 101 98 105 98 4 0 14 -23 23 -52z m-564
-176 c49 -55 110 -152 113 -179 1 -11 -17 -26 -54 -44 -40 -19 -85 -57 -163
-138 -120 -126 -120 -126 -184 -61 -40 39 -81 115 -70 126 12 12 74 -45 111
-101 40 -59 51 -69 41 -32 -12 38 -84 126 -118 143 -17 9 -34 18 -36 20 -2 2
31 35 72 74 42 39 98 104 123 143 67 101 83 118 104 107 10 -5 37 -31 61 -58z
m295 -73 l23 -22 -25 -49 c-29 -56 -113 -148 -136 -148 -9 0 -26 9 -39 19
l-24 20 31 33 c16 18 43 51 59 73 31 44 76 95 84 95 2 0 15 -10 27 -21z"/>
<path d="M6584 8949 c-48 -30 -284 -255 -284 -271 0 -4 42 34 93 84 50 50 127
118 170 151 69 54 83 67 74 67 -2 0 -25 -14 -53 -31z"/>
<path d="M1793 7626 c-59 -28 -115 -95 -133 -163 -20 -69 -9 -199 22 -265 46
-99 139 -181 231 -203 17 -5 27 -3 27 4 0 6 -7 11 -15 11 -34 0 -115 52 -163
104 -66 73 -92 142 -92 244 0 94 27 159 88 214 87 79 189 75 284 -10 66 -60
110 -136 97 -169 -5 -13 -9 -38 -9 -55 0 -25 -3 -29 -17 -23 -41 16 -86 26
-99 21 -21 -8 -17 -36 8 -63 l21 -23 -22 0 c-33 0 -61 -18 -61 -39 0 -22 19
-31 63 -31 33 0 27 15 -8 22 -31 5 -20 22 22 31 20 4 39 10 42 12 3 3 -11 19
-30 36 l-34 30 40 -5 c22 -3 52 -8 68 -12 26 -6 27 -5 27 40 0 54 10 58 33 14
l18 -33 -6 35 c-10 67 -72 175 -131 229 -83 76 -174 92 -271 47z"/>
<path d="M3250 7021 c0 -5 -25 -9 -57 -8 -32 1 -58 -2 -58 -7 0 -5 -27 -18
-60 -28 -32 -11 -83 -35 -111 -54 -76 -50 -231 -216 -303 -324 -115 -173 -203
-389 -169 -414 8 -6 17 -36 21 -69 8 -76 34 -128 74 -147 23 -11 31 -20 27
-32 -6 -20 32 -43 89 -53 27 -5 37 -12 35 -24 -3 -14 11 -16 102 -19 129 -4
204 10 295 53 261 125 425 381 425 662 -1 157 -46 288 -131 378 -29 30 -54 53
-57 51 -2 -3 -21 3 -41 13 -51 26 -81 34 -81 22z m96 -52 c9 -10 23 -19 30
-19 7 0 22 -16 34 -34 12 -20 27 -33 34 -30 9 3 22 -16 39 -58 44 -106 51
-147 51 -283 -1 -115 -4 -139 -28 -210 -53 -155 -172 -300 -316 -386 -117 -69
-160 -82 -302 -87 -125 -4 -128 -4 -128 17 0 16 -6 21 -25 21 -36 0 -105 30
-105 45 0 15 -62 81 -70 74 -9 -9 -31 90 -33 148 0 35 -5 59 -10 56 -29 -18
31 136 105 270 67 122 122 192 243 312 105 105 179 152 257 163 28 3 38 9 34
18 -6 17 58 19 98 4 20 -7 24 -6 20 5 -8 21 48 0 72 -26z"/>
<path d="M3040 6649 c-98 -44 -150 -123 -158 -235 -5 -84 8 -132 50 -180 36
-41 79 -54 183 -54 157 1 237 47 266 154 23 86 -11 216 -73 273 -66 62 -184
80 -268 42z m232 -44 c26 -19 54 -52 72 -85 l29 -54 -44 46 c-42 44 -93 68
-143 68 -44 0 -104 -27 -141 -65 -80 -80 -85 -198 -12 -282 l32 -36 -34 6
c-51 10 -76 31 -100 80 -45 94 -17 237 60 301 54 46 87 57 166 53 61 -2 78 -7
115 -32z m-18 -116 c14 -11 26 -29 26 -40 0 -25 -34 -59 -59 -59 -49 0 -70 76
-29 104 29 20 30 20 62 -5z"/>
<path d="M3830 6373 c-43 -7 -132 -34 -128 -38 2 -3 36 2 74 10 38 8 96 15
129 16 49 1 54 3 30 9 -33 8 -67 9 -105 3z"/>
<path d="M4554 6125 c-4 -8 -12 -15 -20 -15 -8 0 -19 -9 -26 -19 -6 -10 -17
-17 -23 -14 -7 2 -15 -3 -19 -12 -4 -11 -12 -14 -26 -10 -11 4 -20 2 -20 -4 0
-6 -17 -11 -37 -12 -36 -1 -36 -1 -11 -9 38 -11 100 9 153 51 44 34 63 59 44
59 -5 0 -12 -7 -15 -15z"/>
<path d="M8558 7456 c-109 -30 -183 -112 -222 -246 l-16 -55 20 25 20 25 0
-38 c0 -46 14 -53 80 -40 57 12 63 3 20 -29 -32 -23 -38 -38 -17 -38 6 0 29
-5 50 -11 43 -11 41 -29 -4 -29 -46 0 -34 -15 27 -34 62 -20 85 -15 33 7 -32
13 -33 14 -11 21 35 12 26 34 -20 47 -55 16 -55 15 -28 37 47 38 -5 68 -73 43
-31 -12 -37 0 -37 68 0 108 130 231 244 231 160 -1 264 -202 201 -390 -24 -72
-109 -159 -180 -184 -84 -30 -82 -29 -57 -33 31 -6 121 38 171 82 22 20 55 66
73 102 57 116 41 269 -38 362 -63 73 -149 101 -236 77z"/>
<path d="M7246 6884 c-21 -8 -44 -19 -51 -24 -7 -6 -19 -8 -27 -5 -9 4 -22 -4
-32 -20 -9 -14 -28 -30 -41 -35 -16 -6 -37 -35 -64 -92 -147 -297 -57 -657
217 -877 121 -97 247 -141 404 -141 91 0 98 1 98 20 0 16 7 20 38 21 54 1 87
13 85 30 -2 8 15 24 36 36 44 25 66 66 83 150 6 32 16 61 21 65 6 3 7 26 3 55
-16 117 -108 328 -202 461 -100 140 -263 289 -346 314 -21 6 -44 20 -50 31 -8
17 -18 19 -69 15 -32 -2 -60 -1 -61 3 -2 3 -21 0 -42 -7z m18 -26 c-5 -8 -2
-9 12 -3 10 5 44 11 74 13 49 4 53 3 41 -12 -12 -14 -10 -16 11 -16 78 0 259
-144 376 -299 98 -130 224 -405 221 -482 0 -13 -3 -18 -6 -11 -11 28 -20 9
-16 -35 5 -54 -27 -169 -45 -166 -6 2 -16 -6 -22 -17 -6 -11 -24 -27 -41 -35
-16 -9 -27 -20 -24 -25 6 -10 -57 -30 -99 -30 -20 0 -27 -4 -23 -14 3 -8 0
-17 -8 -19 -18 -8 -181 9 -235 23 -164 44 -346 200 -426 366 -87 180 -96 367
-27 559 31 85 53 121 64 104 5 -8 12 -2 23 19 9 17 28 37 43 45 16 8 42 22 58
31 35 19 59 21 49 4z"/>
<path d="M7240 6504 c-45 -20 -96 -69 -123 -119 -17 -31 -22 -58 -22 -120 0
-145 36 -187 191 -220 149 -32 232 -11 279 69 37 63 44 153 20 227 -45 135
-220 217 -345 163z m185 -29 c86 -35 145 -128 145 -230 -1 -103 -51 -180 -126
-192 l-38 -6 36 42 c47 55 64 120 48 183 -23 90 -107 157 -197 158 -57 0 -91
-14 -135 -58 -47 -44 -49 -28 -5 29 67 89 168 116 272 74z m-132 -132 c29 -33
26 -67 -8 -89 -23 -15 -27 -15 -50 0 -29 19 -33 60 -8 88 20 23 45 23 66 1z"/>
<path d="M6555 6301 c-12 -5 10 -10 65 -14 47 -3 105 -13 129 -21 54 -20 61
-20 34 -1 -47 33 -181 54 -228 36z"/>
<path d="M6285 6633 c-53 -9 -67 -16 -100 -45 -20 -17 -46 -50 -57 -72 -25
-48 -36 -167 -19 -208 14 -36 73 -65 162 -79 89 -14 108 -6 145 57 23 38 29
63 32 129 3 47 0 97 -7 117 -21 64 -94 111 -156 101z m82 -43 c37 -22 59 -59
68 -115 l6 -40 -21 38 c-58 106 -207 103 -259 -6 -26 -55 -35 -115 -22 -149 6
-16 7 -28 2 -28 -15 0 -21 29 -21 93 0 97 51 188 120 216 40 16 93 12 127 -9z
m-33 -122 c15 -25 -3 -52 -38 -56 -30 -4 -41 15 -32 54 5 20 12 25 33 22 14
-2 31 -11 37 -20z"/>
<path d="M803 5854 c3 -6 54 -43 114 -84 59 -40 131 -92 158 -114 82 -67 94
-72 30 -12 -33 31 -109 90 -170 130 -131 87 -140 92 -132 80z"/>
<path d="M905 4110 c67 -116 146 -302 221 -519 15 -46 30 -78 32 -72 5 14 -67
222 -121 353 -43 101 -107 221 -142 263 -9 11 -5 0 10 -25z"/>
<path d="M830 3490 c156 -192 274 -394 360 -613 24 -59 45 -106 47 -103 2 2
-16 57 -42 123 -46 118 -137 299 -203 403 -47 74 -161 216 -212 265 -25 23 -4
-8 50 -75z"/>
<path d="M6777 3714 c5 -94 4 -104 -17 -134 -35 -49 -50 -115 -50 -219 1 -130
41 -313 64 -290 3 3 17 49 31 104 34 129 36 258 6 360 -12 38 -21 83 -21 99 0
27 1 28 18 13 10 -9 23 -42 30 -74 6 -32 29 -87 49 -123 39 -66 198 -240 221
-240 19 0 14 38 -17 127 -52 149 -134 257 -228 299 -28 13 -55 29 -59 36 -4 7
-13 42 -20 78 l-12 65 5 -101z m124 -121 c58 -49 88 -86 128 -163 39 -77 77
-178 68 -186 -7 -7 -112 100 -159 163 -62 85 -110 213 -79 213 5 0 24 -12 42
-27z m-89 -213 c0 -91 -25 -246 -42 -263 -9 -10 -25 57 -40 164 -11 79 1 195
26 260 l18 43 19 -55 c14 -39 19 -80 19 -149z"/>
<path d="M6570 3273 c-40 -45 -76 -124 -95 -208 -20 -86 -36 -248 -26 -258 21
-21 129 170 160 283 25 89 29 220 7 220 -8 0 -29 -17 -46 -37z m25 -158 c-16
-70 -96 -245 -121 -266 -11 -9 -12 -1 -8 43 15 147 56 281 112 363 l27 40 3
-55 c2 -30 -4 -86 -13 -125z"/>
<path d="M2916 2922 c-3 -5 18 -9 46 -9 35 0 59 -7 79 -22 36 -27 39 -10 3 18
-27 21 -117 30 -128 13z"/>
<path d="M3147 2919 c-50 -29 -86 -184 -53 -234 33 -50 101 -21 134 58 18 42
15 152 -4 171 -18 18 -51 20 -77 5z m61 -21 c15 -15 16 -107 1 -145 -14 -37
-48 -73 -70 -73 -55 0 -49 132 7 200 28 32 43 37 62 18z"/>
<path d="M2935 2725 c-66 -70 -69 -195 -5 -195 38 0 74 45 90 110 26 108 -20
155 -85 85z m75 -30 c0 -30 -32 -114 -50 -130 -47 -43 -68 30 -31 111 24 52
51 70 69 47 6 -9 12 -22 12 -28z"/>
<path d="M3083 2561 c-52 -37 -84 -79 -122 -159 -80 -172 -55 -353 56 -391 38
-13 45 -13 83 4 121 55 222 324 179 479 -26 95 -115 125 -196 67z m142 -15
c45 -45 54 -120 30 -237 -32 -151 -123 -279 -199 -279 -95 0 -140 123 -101
273 15 59 61 156 92 194 58 72 134 93 178 49z"/>
<path d="M7362 2900 c-37 -9 -72 -36 -72 -56 0 -8 10 -3 24 11 26 26 79 40
126 33 17 -3 27 -1 23 3 -14 12 -67 17 -101 9z"/>
<path d="M7154 2892 c-36 -24 -43 -88 -19 -170 25 -82 83 -115 125 -70 66 71
-30 291 -106 240z m59 -30 c47 -51 63 -165 28 -196 -38 -35 -84 18 -96 110
-11 86 26 133 68 86z"/>
<path d="M7350 2715 c-17 -21 -8 -111 16 -160 38 -78 106 -78 112 1 5 55 -13
108 -49 143 -33 34 -60 39 -79 16z m64 -35 c50 -60 59 -165 14 -158 -37 5 -82
126 -65 173 9 22 22 19 51 -15z"/>
<path d="M7131 2544 c-38 -27 -61 -90 -61 -169 0 -160 86 -337 186 -386 40
-19 50 -20 85 -10 46 14 82 61 100 133 31 128 -73 377 -182 433 -37 20 -99 19
-128 -1z m167 -61 c48 -54 98 -162 112 -241 47 -259 -143 -332 -261 -100 -88
173 -74 379 26 400 32 7 88 -19 123 -59z"/>
<path d="M9393 3208 c-114 -122 -190 -230 -283 -403 -50 -94 -8 -34 62 87 60
104 130 199 234 316 26 28 44 52 42 52 -3 0 -27 -24 -55 -52z"/>
<path d="M5276 3114 c-54 -54 29 -214 111 -214 29 0 37 15 36 71 -1 103 -96
194 -147 143z m68 -25 c36 -28 56 -70 56 -118 0 -49 -7 -54 -48 -34 -36 17
-72 82 -72 129 0 50 20 57 64 23z"/>
<path d="M5170 2975 c-24 -63 22 -170 74 -170 39 0 50 22 42 78 -9 60 -44 111
-79 115 -21 3 -29 -2 -37 -23z m62 -12 c38 -44 47 -143 13 -143 -31 0 -79 120
-60 150 9 15 30 12 47 -7z"/>
<path d="M5090 2396 c0 -3 22 -29 49 -57 28 -29 60 -72 73 -96 13 -23 26 -43
30 -43 18 0 -32 87 -83 145 -29 33 -69 62 -69 51z"/>
<path d="M8816 9367 c-24 -124 -233 -918 -257 -979 -11 -29 -38 -80 -60 -114
-69 -107 -52 -144 69 -144 80 0 171 -24 270 -70 97 -46 103 -47 126 -22 14 16
15 34 10 118 -5 82 -2 124 20 246 66 366 122 606 191 807 36 107 42 136 26
127 -16 -10 -118 -337 -155 -496 -47 -206 -105 -527 -108 -598 -2 -31 1 -84 5
-117 6 -44 5 -64 -5 -77 -12 -16 -19 -14 -91 21 -108 54 -173 72 -280 80 -84
5 -92 8 -95 28 -2 13 13 45 37 80 21 32 49 83 61 113 38 96 228 830 255 984
18 104 17 96 6 96 -4 0 -16 -37 -25 -83z"/>
<path d="M5975 9169 c-124 -16 -473 -113 -500 -140 -15 -15 8 -25 116 -48 351
-75 705 -64 886 27 32 16 69 39 83 50 l25 20 -47 21 c-167 71 -359 95 -563 70z
m391 -33 c80 -20 174 -55 174 -66 0 -13 -116 -66 -185 -84 -111 -30 -301 -41
-464 -28 -130 11 -373 51 -386 64 -6 6 196 69 310 98 44 11 116 24 160 29 103
13 313 5 391 -13z"/>
<path d="M5242 8470 c-70 -43 -93 -137 -52 -213 l20 -37 -40 0 c-61 0 -98 -24
-122 -77 -34 -77 -9 -174 55 -213 44 -27 102 -25 155 5 l42 24 0 -47 c0 -117
112 -177 226 -121 75 36 106 143 59 206 -21 27 -18 32 18 27 38 -6 92 20 119
56 41 56 35 150 -13 205 -51 58 -134 64 -201 15 l-28 -21 0 48 c0 59 -26 110
-70 141 -43 29 -121 30 -168 2z m156 -17 c42 -26 62 -72 62 -144 l0 -66 -48 5
c-44 4 -53 1 -84 -27 -42 -37 -53 -79 -34 -126 21 -49 56 -69 112 -62 87 9
128 89 85 163 -20 34 -21 38 -6 61 17 26 86 62 118 63 38 0 88 -33 107 -71 38
-74 17 -164 -45 -193 -41 -20 -61 -20 -114 -1 -22 8 -41 12 -41 8 0 -3 13 -20
29 -39 69 -79 57 -186 -26 -220 -49 -21 -105 -17 -144 9 -44 30 -60 76 -53
152 l6 59 -27 -32 c-58 -69 -145 -84 -195 -34 -56 57 -60 161 -8 209 49 44 94
51 165 27 10 -4 3 8 -19 30 -122 123 16 321 160 229z m69 -249 c22 -22 25 -32
20 -72 -3 -31 -12 -52 -27 -64 -22 -18 -83 -24 -115 -12 -26 10 -48 62 -41
100 14 71 111 100 163 48z"/>
<path d="M5060 5988 c0 -66 7 -140 16 -178 19 -84 79 -202 127 -254 l38 -41
-5 115 c-3 63 -12 142 -21 175 -17 68 -124 287 -142 293 -10 3 -13 -24 -13
-110z m75 -30 c60 -127 85 -223 85 -329 0 -63 -2 -70 -15 -59 -25 21 -94 173
-109 242 -16 72 -32 258 -22 258 4 0 31 -51 61 -112z"/>
<path d="M885 5544 c-192 -27 -350 -70 -488 -133 -113 -51 -88 -64 152 -81
156 -12 283 -8 396 11 101 18 213 58 249 90 19 16 40 29 47 29 30 1 -28 31
-105 56 -76 24 -190 37 -251 28z m193 -30 c42 -9 88 -22 102 -29 23 -13 20
-14 -45 -15 -102 -1 -351 -27 -342 -36 2 -3 83 3 180 12 97 8 189 14 204 12
27 -3 25 -5 -24 -30 -132 -70 -349 -98 -606 -79 -88 6 -167 15 -175 20 -33 18
267 118 438 146 116 18 177 18 268 -1z"/>
<path d="M9331 5433 c-47 -23 -81 -80 -88 -147 -5 -47 -2 -64 21 -111 18 -35
41 -65 64 -80 35 -24 37 -28 38 -83 0 -89 48 -142 127 -142 30 0 38 -6 65 -50
65 -105 206 -120 262 -28 21 35 26 97 11 127 -8 13 -3 24 20 45 24 23 29 36
29 76 0 41 -5 53 -31 79 -17 17 -35 31 -41 31 -7 0 -6 5 1 14 41 49 31 133
-21 183 -59 56 -136 69 -196 33 l-33 -20 -26 30 c-14 17 -38 37 -54 45 -37 20
-106 19 -148 -2z m168 -28 c39 -34 45 -54 26 -98 -8 -20 -15 -58 -14 -84 l1
-48 14 65 c22 101 60 140 137 140 84 0 152 -61 152 -135 0 -56 -27 -95 -66
-95 -33 0 -105 -27 -97 -36 4 -3 29 2 58 10 60 18 101 12 128 -18 27 -30 33
-64 17 -103 -18 -43 -36 -49 -85 -29 -22 9 -50 16 -63 15 -15 0 -9 -6 22 -18
71 -29 91 -52 91 -105 0 -131 -181 -157 -249 -36 l-22 40 30 26 c37 31 55 87
41 133 -26 92 -127 129 -205 75 l-38 -25 -36 28 c-75 60 -99 157 -61 240 25
56 70 83 137 83 41 0 58 -5 82 -25z m69 -323 c63 -59 46 -164 -30 -189 -104
-34 -193 70 -143 167 20 39 41 49 96 50 38 0 53 -5 77 -28z"/>
<path d="M8934 2290 c-52 -16 -128 -73 -138 -103 -13 -35 -1 -55 45 -82 29
-17 52 -20 149 -20 100 0 123 3 174 25 32 14 65 35 73 47 13 19 11 24 -16 56
-57 64 -202 103 -287 77z m205 -39 c55 -28 92 -65 85 -84 -5 -15 -49 -36 -119
-58 -65 -21 -193 -18 -239 6 -22 11 -44 28 -50 37 -16 26 19 67 85 101 48 25
62 28 124 24 46 -2 85 -12 114 -26z"/>
<path d="M1158 2205 c-55 -21 -127 -73 -148 -107 -44 -73 21 -103 220 -102
148 0 210 13 246 49 32 32 31 42 -15 86 -74 69 -221 106 -303 74z m225 -43
c37 -19 75 -45 84 -58 14 -23 14 -26 -2 -44 -30 -33 -91 -44 -240 -45 -152 0
-197 11 -203 51 -4 27 47 77 113 110 71 36 156 31 248 -14z"/>
<path d="M8356 1750 c-55 -14 -93 -40 -106 -71 -15 -36 2 -63 60 -92 65 -32
216 -32 277 1 73 38 66 100 -16 142 -47 23 -158 34 -215 20z m166 -20 c45 -13
98 -55 98 -79 0 -89 -303 -99 -350 -11 -36 67 127 124 252 90z"/>
<path d="M1878 1736 c-118 -44 -153 -123 -71 -160 123 -54 320 -29 363 47 13
24 13 28 -6 53 -11 15 -37 36 -57 47 -49 25 -178 33 -229 13z m185 -17 c49
-13 103 -60 94 -82 -17 -44 -162 -86 -249 -72 -67 11 -128 41 -128 63 0 23 45
66 90 86 41 18 139 20 193 5z"/>
<path d="M6145 1733 c-69 -15 -105 -51 -105 -108 0 -30 2 -29 -43 -10 -76 32
-163 10 -203 -49 l-16 -26 -27 29 c-36 39 -95 67 -166 80 -73 14 -185 14 -185
1 0 -5 30 -30 66 -54 l67 -45 -39 -6 c-74 -12 -156 -44 -207 -81 -59 -43 -267
-234 -267 -246 0 -14 123 -8 215 11 180 37 327 112 390 198 28 40 33 42 83 42
28 1 52 -1 52 -3 0 -1 -21 -16 -47 -33 -83 -51 -132 -179 -133 -340 0 -59 3
-73 16 -73 25 0 211 187 235 236 11 25 23 62 26 84 6 40 19 49 56 34 12 -4 10
-10 -9 -31 -29 -31 -48 -87 -40 -118 9 -35 53 -83 99 -107 73 -37 153 -13 204
61 l22 33 14 -34 c24 -57 70 -88 131 -88 60 0 130 31 159 71 25 35 25 94 -1
129 l-21 28 42 5 c115 16 131 161 25 228 -26 16 -45 19 -93 16 -33 -2 -67 -7
-76 -11 -14 -6 -16 -1 -12 36 4 34 0 49 -17 71 -38 48 -135 83 -195 70z m139
-46 c23 -13 45 -35 52 -52 12 -30 9 -47 -21 -119 -8 -19 -7 -19 21 1 45 32
107 46 153 33 88 -24 132 -130 76 -185 -19 -20 -34 -25 -77 -25 -29 0 -68 4
-86 9 -43 13 -41 -4 3 -19 36 -12 95 -71 95 -96 0 -67 -73 -125 -160 -128 -74
-2 -106 29 -144 139 -6 16 -12 10 -34 -35 -43 -86 -111 -110 -199 -70 -89 40
-108 134 -39 197 20 18 45 33 55 33 11 0 23 5 26 10 4 6 -18 10 -60 10 -69 0
-94 8 -132 43 -27 24 -30 65 -7 113 40 84 151 90 239 12 47 -41 54 -41 30 2
-17 30 -19 84 -4 111 27 52 135 60 213 16z m-679 -61 c94 -25 165 -77 165
-122 0 -23 -3 -24 -62 -24 -61 0 -64 -1 -87 -36 -64 -93 -282 -189 -486 -213
-44 -5 -82 -8 -84 -6 -4 5 97 101 189 179 109 93 247 139 351 117 51 -11 81
-8 43 5 -44 14 -141 65 -169 88 l-30 25 60 1 c33 0 83 -6 110 -14z m202 -212
c39 -35 40 -37 31 -76 -18 -83 -73 -159 -184 -253 l-57 -49 6 99 c6 117 28
189 70 240 23 28 81 74 93 75 0 0 19 -16 41 -36z"/>
<path d="M6125 1495 c-54 -19 -71 -44 -66 -95 8 -77 131 -126 211 -85 35 18
50 43 50 82 0 77 -106 130 -195 98z m120 -21 c44 -20 71 -74 54 -106 -26 -48
-78 -65 -141 -46 -45 13 -88 59 -88 93 0 14 13 34 31 49 36 31 93 35 144 10z"/>
<path d="M1536 1674 c-23 -22 -20 -41 9 -60 29 -19 90 -14 113 10 13 13 13 18
-2 40 -13 21 -24 26 -61 26 -26 0 -50 -6 -59 -16z m95 -4 c38 -21 17 -50 -36
-50 -52 0 -74 28 -37 49 22 13 48 14 73 1z"/>
<path d="M8718 1669 c-27 -10 -44 -40 -33 -59 11 -17 81 -30 121 -22 32 6 40
12 42 34 5 46 -65 70 -130 47z m106 -28 c17 -19 17 -20 -3 -30 -28 -15 -84
-14 -106 3 -16 12 -17 16 -6 30 20 23 93 21 115 -3z"/>
<path d="M8056 1651 c-22 -24 -7 -58 29 -67 29 -7 95 3 113 18 17 14 15 25 -8
48 -28 28 -110 28 -134 1z m108 -1 c29 -11 34 -35 10 -44 -27 -10 -89 -7 -102
6 -18 18 -15 28 11 38 30 12 51 12 81 0z"/>
<path d="M2280 1637 c-27 -9 -36 -18 -38 -39 -3 -22 2 -30 23 -38 53 -20 142
-5 152 26 7 20 -31 53 -67 58 -19 3 -51 0 -70 -7z m106 -22 c19 -15 19 -15 0
-30 -25 -19 -110 -20 -125 -1 -29 35 83 63 125 31z"/>
<path d="M6943 1451 c-72 -33 -91 -91 -36 -112 37 -14 139 -11 178 5 56 24 42
75 -28 107 -52 23 -62 23 -114 0z m105 -15 c35 -18 66 -52 58 -65 -19 -30
-179 -32 -208 -3 -14 14 1 39 38 63 34 22 75 24 112 5z"/>
<path d="M3713 1368 c-45 -21 -103 -79 -103 -102 0 -33 32 -41 174 -44 159 -4
219 8 224 44 5 33 -43 81 -104 103 -69 26 -137 26 -191 -1z m197 -19 c81 -36
105 -80 54 -99 -39 -15 -296 -13 -318 3 -23 17 -13 39 31 73 75 57 139 63 233
23z"/>
</g>
</svg>
