<?xml version="1.0" standalone="no"?>
<!DOCTYPE svg PUBLIC "-//W3C//DTD SVG 20010904//EN"
 "http://www.w3.org/TR/2001/REC-SVG-20010904/DTD/svg10.dtd">
<svg version="1.0" xmlns="http://www.w3.org/2000/svg"
 width="1024.000000pt" height="1024.000000pt" viewBox="0 0 1024.000000 1024.000000"
 preserveAspectRatio="xMidYMid meet">
<metadata>
Created by potrace 1.16, written by Peter Selinger 2001-2019
</metadata>
<g transform="translate(0.000000,1024.000000) scale(0.100000,-0.100000)"
fill="#000000" stroke="none">
<path d="M4955 9346 c-16 -7 -70 -50 -120 -95 -49 -45 -128 -107 -175 -138
-47 -31 -98 -64 -113 -75 -17 -12 -35 -17 -45 -13 -9 4 -80 13 -157 20 -78 7
-174 23 -216 36 l-77 22 -48 -24 c-42 -21 -67 -48 -176 -193 -146 -196 -203
-257 -339 -366 l-99 -80 -143 0 c-83 1 -175 7 -222 16 -110 21 -188 28 -219
20 -32 -8 -50 -43 -64 -124 -9 -49 -19 -72 -51 -110 -22 -26 -47 -64 -55 -84
-25 -60 -29 -162 -11 -288 9 -63 19 -158 22 -210 4 -86 2 -99 -19 -140 -20
-40 -30 -48 -82 -66 -75 -26 -111 -67 -127 -142 -13 -65 -9 -82 43 -195 38
-84 40 -95 49 -227 16 -256 33 -292 209 -422 50 -37 90 -91 90 -120 0 -27
-146 -131 -263 -188 -119 -58 -137 -73 -137 -117 0 -42 12 -65 62 -122 47 -54
62 -107 54 -187 -10 -97 -33 -171 -88 -287 -50 -103 -52 -110 -37 -135 11 -21
28 -30 79 -43 117 -28 155 -60 212 -173 41 -83 68 -109 147 -141 83 -33 158
-88 185 -135 13 -22 23 -63 27 -113 11 -125 36 -147 196 -173 54 -8 125 -27
158 -40 220 -92 238 -97 333 -102 186 -9 356 21 495 88 l59 27 -5 -27 c-3 -15
-9 -51 -12 -81 -11 -92 -14 -99 -83 -172 -78 -83 -103 -121 -127 -194 -17 -56
-27 -62 -59 -38 -25 19 -56 19 -56 1 0 -10 -17 -4 -57 20 -59 35 -134 66 -190
79 -27 5 -33 4 -33 -10 0 -12 -5 -15 -17 -10 -44 18 -132 43 -176 49 -44 7
-49 5 -54 -14 -5 -18 -11 -21 -42 -16 -122 18 -322 38 -328 33 -3 -4 12 -30
35 -59 22 -29 52 -75 67 -103 23 -44 24 -51 10 -61 -22 -16 -19 -30 25 -110
32 -58 37 -73 25 -78 -8 -3 -15 -12 -15 -19 0 -33 75 -161 120 -205 43 -42 47
-49 32 -59 -15 -10 -15 -12 -2 -25 48 -41 39 -45 -40 -17 -112 40 -201 54
-216 34 -10 -13 -20 -14 -64 -4 -56 12 -281 8 -313 -6 -10 -4 -16 -14 -13 -21
3 -9 -4 -16 -22 -20 -133 -28 -224 -73 -192 -93 18 -12 19 -11 -63 -46 -81
-33 -177 -94 -177 -112 0 -6 5 -15 11 -18 6 -4 -24 -31 -68 -60 -80 -53 -173
-138 -173 -157 0 -5 9 -12 21 -15 18 -5 13 -12 -35 -54 -66 -60 -146 -164
-146 -191 0 -17 5 -20 30 -16 17 3 30 3 30 1 0 -2 -17 -30 -39 -61 -46 -68
-81 -136 -81 -156 0 -8 7 -19 15 -23 12 -7 7 -19 -27 -68 -52 -76 -102 -181
-93 -196 4 -6 18 -9 31 -6 13 2 24 3 24 2 0 -1 -16 -38 -36 -81 -44 -97 -114
-271 -114 -284 0 -16 22 -12 88 15 76 31 245 75 289 75 27 0 30 -3 26 -21 -6
-21 -4 -21 106 -17 61 2 111 2 111 0 0 -2 -9 -16 -21 -30 l-21 -27 32 -13 c36
-14 224 -19 280 -7 l35 7 -24 -26 c-40 -43 -20 -50 97 -37 55 7 131 21 169 31
37 11 71 20 74 20 3 0 4 -13 1 -30 -4 -26 -1 -30 18 -30 40 0 203 60 287 106
46 24 85 44 87 44 3 0 2 -16 -1 -35 -7 -42 1 -43 60 -14 75 39 175 121 250
207 l37 43 6 -30 c4 -17 11 -34 16 -37 22 -14 153 152 195 247 19 44 28 48 36
18 3 -12 10 -18 16 -15 6 4 11 -12 13 -41 2 -38 6 -47 19 -45 15 2 16 -3 7
-40 -12 -53 -4 -218 14 -278 11 -37 18 -45 37 -45 20 0 26 -9 38 -55 14 -57
53 -147 79 -188 14 -22 17 -22 33 -8 17 15 21 11 69 -67 62 -102 79 -118 97
-94 7 9 15 17 17 17 12 0 91 -115 130 -186 33 -61 43 -73 54 -63 8 6 14 16 14
21 0 12 67 148 85 172 12 15 17 17 29 7 13 -11 24 0 70 71 29 47 69 111 87
143 30 54 34 57 42 37 6 -12 16 -22 22 -22 16 0 51 82 74 171 13 50 20 66 28
58 20 -20 31 -1 49 78 12 56 15 103 11 178 -4 91 -3 102 12 101 24 -2 18 103
-12 190 -21 63 -22 72 -9 81 14 8 11 19 -20 84 -19 41 -52 94 -72 118 -27 32
-34 46 -25 52 9 5 5 18 -15 50 -20 29 -24 40 -12 36 39 -15 168 -110 239 -177
l78 -73 -51 -45 c-28 -24 -48 -47 -45 -50 3 -3 27 -5 54 -3 57 3 92 -13 138
-61 27 -28 34 -45 42 -103 21 -146 33 -436 28 -639 -6 -242 -2 -231 -109 -266
-38 -12 -68 -25 -68 -29 0 -4 15 -12 33 -19 18 -7 53 -29 77 -49 l43 -37 -7
-91 c-16 -238 -114 -910 -152 -1052 -4 -14 -2 -23 4 -23 14 0 25 41 56 210 37
200 83 529 106 760 l21 203 -32 33 c-17 18 -45 38 -60 45 -32 13 -38 29 -11
29 9 1 34 7 55 14 l37 14 0 -51 c0 -83 10 -48 21 74 28 318 -5 1011 -49 996
-4 -1 -24 11 -44 26 -22 17 -56 31 -84 35 l-47 7 37 33 c43 38 42 44 -31 114
-164 159 -453 318 -675 372 -26 6 -28 4 -28 -21 0 -16 6 -55 14 -88 8 -33 17
-81 20 -107 l7 -47 -48 -25 c-105 -53 -234 -171 -274 -251 -6 -11 0 -6 12 10
76 103 292 273 310 243 4 -6 10 -49 13 -97 4 -47 9 -111 12 -142 l6 -56 -54
-30 c-94 -53 -204 -177 -267 -301 -32 -63 -19 -51 25 23 58 101 137 189 217
245 l72 51 3 -257 2 -258 -38 -36 c-22 -19 -45 -44 -53 -55 -7 -11 5 -1 29 23
23 23 47 42 52 42 7 0 9 -37 6 -107 l-5 -108 11 103 c6 56 14 102 18 102 4 0
21 -26 38 -57 17 -32 32 -53 32 -47 0 5 -16 37 -36 70 l-36 59 4 207 c1 115 7
208 11 208 14 0 118 -104 150 -150 17 -25 44 -67 59 -95 33 -59 38 -53 7 8
-52 101 -146 213 -206 245 -18 10 -20 25 -26 179 -4 92 -10 180 -13 195 -9 38
6 36 85 -11 70 -42 132 -96 195 -171 30 -35 33 -37 15 -10 -45 69 -152 164
-224 200 -39 19 -71 35 -72 36 -7 1 -45 226 -40 231 11 10 101 -18 182 -57 74
-36 195 -130 195 -151 0 -5 -7 -9 -16 -9 -10 0 5 -23 41 -66 45 -54 105 -149
105 -168 0 -2 -10 -2 -22 2 -16 4 -20 2 -16 -9 3 -8 20 -49 38 -92 34 -86 53
-192 29 -169 -24 22 -42 15 -35 -15 27 -127 27 -237 -1 -327 -5 -19 -6 -19
-19 -1 -8 10 -16 16 -20 13 -3 -4 -14 -44 -24 -91 -10 -46 -26 -102 -35 -123
l-16 -39 -18 24 -18 24 -15 -24 c-8 -13 -28 -46 -43 -74 -16 -27 -49 -81 -73
-118 -39 -61 -45 -66 -56 -51 -12 15 -16 12 -45 -30 -18 -25 -46 -76 -63 -111
l-30 -65 -68 102 c-37 57 -80 114 -95 128 -26 24 -27 25 -41 6 -14 -20 -14
-20 -29 0 -7 10 -29 45 -47 77 -18 32 -41 68 -50 80 -18 21 -18 22 -33 3 -14
-18 -16 -15 -44 44 -17 35 -35 89 -41 119 -22 112 -18 105 -45 87 l-23 -15
-12 68 c-12 65 -9 193 6 270 6 32 5 34 -16 28 -22 -6 -22 -4 -17 42 3 27 19
84 35 127 17 44 33 96 36 116 4 20 27 64 51 97 48 65 54 81 30 81 -22 0 -6 28
51 84 64 65 158 130 227 158 53 21 57 25 52 48 -9 36 -16 40 -86 50 -104 15
-345 7 -364 -12 -3 -3 2 -36 12 -74 21 -86 25 -356 5 -376 -9 -9 -12 -9 -12 0
0 7 -6 12 -14 12 -9 0 -15 -19 -20 -57 -4 -32 -14 -84 -23 -117 l-16 -58 -19
23 c-15 19 -21 21 -25 10 -46 -116 -187 -331 -197 -300 -2 8 -7 26 -10 42 -4
15 -10 27 -15 27 -5 0 -27 -24 -50 -54 -23 -30 -63 -74 -89 -98 -44 -41 -174
-138 -185 -138 -2 0 -2 21 1 47 l5 47 -44 -27 c-107 -66 -292 -147 -335 -147
-12 0 -12 4 1 31 9 17 14 33 11 36 -3 3 -25 0 -48 -6 -133 -38 -238 -61 -277
-61 l-45 0 29 30 c16 16 25 33 22 37 -4 3 -36 1 -71 -5 -76 -14 -245 -16 -266
-2 -12 8 -10 14 13 38 20 21 25 32 17 37 -7 4 -64 4 -128 0 -108 -7 -115 -6
-103 9 11 13 11 20 3 28 -16 16 -189 -14 -306 -53 -49 -16 -91 -28 -93 -25 -6
5 65 173 113 268 45 89 45 102 -2 93 l-36 -6 29 52 c15 29 54 89 85 134 l58
80 -30 3 c-17 2 -30 6 -30 9 0 13 64 116 106 170 l45 58 -40 3 c-23 2 -41 8
-41 14 0 15 128 144 183 185 55 40 59 53 17 53 -16 0 -30 4 -30 9 0 21 175
148 235 171 30 11 33 30 5 37 -11 3 -20 9 -20 13 0 11 146 85 208 105 52 17
66 36 36 53 -24 13 51 41 150 55 45 6 83 12 85 14 2 1 -2 9 -8 17 -8 10 -9 16
-2 21 21 13 236 5 296 -10 115 -31 108 -30 100 -6 -8 27 3 27 91 0 70 -22 149
-58 194 -89 14 -9 31 -15 38 -12 8 2 31 -4 53 -13 30 -14 38 -22 34 -36 -7
-20 33 -44 110 -69 51 -17 133 -79 181 -136 20 -25 35 -46 33 -48 -2 -2 -56
-6 -120 -9 l-116 -6 -22 30 c-45 61 -224 173 -345 215 -61 22 -53 10 12 -16
83 -33 203 -106 277 -168 36 -29 65 -57 65 -61 0 -4 -35 -13 -77 -20 -43 -7
-114 -23 -158 -36 l-79 -23 -42 28 c-137 95 -365 151 -599 148 l-120 -1 130
-8 c216 -12 350 -43 508 -116 91 -43 117 -63 82 -63 -24 0 -203 -70 -321 -125
l-111 -52 -74 25 c-62 21 -98 25 -219 29 -80 2 -165 0 -190 -5 -33 -7 -13 -8
75 -4 84 3 147 0 210 -12 109 -19 165 -34 165 -45 0 -4 -43 -31 -97 -61 -53
-29 -165 -99 -250 -156 l-154 -102 -79 -1 c-74 0 -227 -27 -217 -38 3 -2 22 0
44 6 44 13 223 27 223 18 0 -3 -33 -30 -72 -60 -79 -58 -298 -245 -298 -253 0
-3 35 23 78 59 93 77 311 237 323 237 5 0 6 -12 3 -28 -8 -35 -77 -183 -104
-225 l-22 -32 26 30 c38 44 94 155 109 216 l13 54 136 91 c75 50 185 118 244
152 128 72 128 72 93 -65 -27 -112 -66 -210 -135 -343 -30 -58 -45 -94 -34
-80 11 14 49 84 85 155 64 129 108 258 121 356 l7 52 121 57 c131 62 303 126
312 117 7 -7 -27 -176 -58 -287 -42 -153 -140 -372 -220 -487 -16 -24 -26 -43
-23 -43 10 0 111 162 150 240 73 146 140 349 160 490 14 103 11 98 83 120 100
30 230 55 239 46 4 -4 9 -74 11 -154 4 -159 -13 -272 -63 -430 -13 -42 -22
-78 -20 -80 8 -9 75 223 91 319 15 92 17 284 3 338 -5 19 30 26 229 47 108 11
216 15 318 12 170 -4 167 -6 137 57 -15 31 -21 36 -43 30 -60 -14 -205 -17
-270 -6 -57 11 -67 15 -63 30 4 16 -5 19 -67 25 -90 9 -122 20 -114 40 4 11
-3 17 -23 21 -15 4 -57 16 -92 27 -50 16 -60 23 -47 30 28 16 18 27 -56 64
-79 39 -178 109 -178 124 0 6 7 10 15 10 28 0 15 20 -48 80 -53 49 -127 157
-127 184 0 3 11 6 25 6 14 0 25 2 25 4 0 2 -17 33 -38 67 -21 35 -43 76 -50
91 -10 25 -10 28 8 28 11 0 20 2 20 5 0 12 -64 133 -92 173 l-30 44 58 -7 c33
-4 109 -13 169 -21 142 -18 138 -18 132 7 -5 19 -3 20 36 14 23 -4 74 -18 112
-32 106 -37 105 -37 105 -19 0 9 8 16 18 16 25 0 118 -45 183 -90 58 -40 69
-41 69 -8 0 17 2 18 30 3 29 -15 30 -17 25 -78 l-5 -62 20 43 c12 23 25 42 31
42 12 0 104 -91 147 -145 26 -33 33 -37 41 -25 9 13 12 12 26 -5 36 -46 72
-130 89 -207 4 -16 12 -28 20 -28 28 0 35 -185 11 -288 -8 -34 -24 -80 -35
-102 l-20 -40 -50 96 c-27 53 -47 101 -46 107 2 7 1 9 -1 5 -3 -5 -29 27 -60
70 -30 42 -76 100 -103 127 -40 42 -50 60 -60 110 -11 55 -72 205 -84 205 -2
0 10 -33 29 -72 29 -65 59 -168 48 -168 -2 0 -38 30 -81 66 -42 37 -125 98
-184 137 -94 62 -111 77 -134 123 -14 29 -47 72 -72 96 l-46 43 46 -52 c42
-49 81 -113 73 -121 -2 -2 -41 17 -87 41 -84 46 -178 90 -178 82 0 -2 46 -28
103 -57 141 -74 268 -158 260 -171 -4 -6 -1 -8 8 -5 8 3 36 -8 61 -26 62 -41
238 -199 232 -207 -6 -10 -98 -29 -147 -30 -23 -1 -53 -5 -67 -10 -41 -14 108
1 175 17 l60 15 33 -38 c48 -56 115 -143 140 -183 21 -34 146 -277 153 -298 2
-6 45 -23 94 -37 81 -24 157 -52 266 -99 35 -15 37 -14 32 3 -2 10 1 38 8 62
l12 44 17 -51 c10 -29 25 -63 34 -76 9 -14 14 -27 11 -30 -3 -3 27 -27 67 -53
86 -57 228 -175 282 -235 l38 -43 -7 54 c-8 59 -44 232 -100 484 -38 173 -85
481 -110 720 -13 130 -39 675 -32 680 1 1 46 5 99 8 l97 6 -7 -32 c-4 -18 -7
-131 -7 -252 0 -256 11 -347 87 -705 145 -693 186 -920 169 -957 -20 -43 -12
-40 57 27 83 81 181 152 281 202 74 37 88 48 37 28 -26 -9 -37 2 -15 16 6 3
21 29 33 56 l22 50 13 -42 c10 -34 10 -44 -1 -58 -11 -14 -10 -15 7 -8 57 22
187 55 240 61 72 9 82 16 91 62 6 29 2 39 -24 66 -60 64 -103 181 -117 319 -5
56 -4 68 10 75 11 7 19 32 25 80 5 38 19 96 31 128 19 51 23 56 34 42 7 -9 15
-17 18 -17 3 0 20 29 37 64 18 39 58 94 102 141 65 70 73 75 80 56 4 -12 10
-21 14 -21 3 0 36 28 74 63 37 34 86 72 109 85 41 23 41 23 41 3 0 -12 2 -21
5 -21 2 0 29 15 58 34 29 19 80 45 112 59 58 24 60 25 63 6 2 -10 6 -19 9 -19
5 0 285 94 320 107 8 3 4 -20 -11 -64 -13 -38 -27 -88 -31 -111 -6 -38 -5 -42
14 -42 25 0 23 -9 -14 -123 -23 -68 -21 -83 11 -70 15 6 16 2 10 -38 -8 -49
-55 -156 -86 -196 -25 -32 -25 -43 0 -43 11 0 20 -5 20 -11 0 -17 -95 -123
-135 -150 -41 -28 -43 -37 -13 -48 21 -8 17 -12 -48 -54 -39 -25 -83 -52 -98
-58 -26 -12 -35 -29 -16 -29 6 0 10 -4 10 -9 0 -11 -79 -45 -140 -61 -83 -21
-81 -20 -70 -39 8 -16 2 -20 -48 -34 -88 -24 -170 -37 -236 -37 -90 0 -94 5
-66 87 26 77 106 242 156 320 l34 53 95 0 c92 0 223 22 255 42 13 8 13 9 -1 5
-70 -21 -189 -37 -258 -35 l-82 3 53 71 c74 98 170 204 186 204 7 0 11 4 7 9
-6 10 172 176 273 255 73 57 82 72 16 24 -161 -114 -363 -306 -482 -455 -51
-65 -57 -70 -60 -48 -2 14 -7 25 -11 25 -4 0 -5 -15 -3 -32 3 -26 -8 -51 -45
-113 -26 -44 -62 -107 -78 -140 -17 -33 -33 -62 -37 -63 -5 -2 -8 -12 -8 -22
0 -9 -10 -39 -22 -66 -12 -27 -23 -69 -23 -94 -1 -25 -5 -60 -9 -77 l-8 -33
74 0 c77 0 228 -18 379 -44 79 -14 289 -63 295 -69 1 -1 -5 -33 -13 -72 -20
-93 -13 -339 12 -448 23 -99 31 -93 11 10 -23 123 -28 265 -14 388 10 87 16
110 29 113 18 3 261 -82 295 -103 18 -12 22 -27 27 -117 11 -173 64 -360 157
-553 32 -66 66 -129 75 -140 9 -11 -2 14 -23 55 -93 176 -157 386 -186 609 -9
68 -14 126 -12 128 6 6 264 -126 361 -185 l80 -48 7 -74 c5 -41 17 -107 28
-149 23 -83 98 -268 112 -277 5 -3 1 11 -8 33 -40 91 -94 265 -108 352 -9 52
-14 96 -12 98 6 7 193 -123 326 -227 l125 -97 14 -64 c7 -35 26 -91 43 -124
41 -84 56 -94 18 -13 -31 67 -63 168 -55 176 5 5 164 -129 258 -217 37 -35 69
-62 72 -59 2 2 -65 69 -150 148 l-154 145 39 3 c22 2 68 -4 102 -13 33 -8 63
-13 65 -11 8 8 -102 35 -170 42 -66 7 -72 10 -145 71 -42 35 -137 107 -210
160 l-134 97 59 14 c64 15 240 21 318 10 41 -6 45 -5 20 3 -60 20 -244 23
-337 4 l-87 -17 -108 65 c-59 36 -165 93 -235 128 -70 34 -125 65 -123 70 10
15 179 70 262 84 126 22 364 20 483 -5 110 -23 134 -19 30 4 -129 30 -232 39
-370 33 -154 -6 -255 -29 -366 -81 l-71 -33 -84 34 c-46 18 -118 43 -159 55
-41 12 -79 24 -83 28 -11 10 89 84 176 130 40 21 110 50 157 65 109 34 113 36
67 30 -115 -17 -273 -90 -373 -171 l-55 -45 -126 20 c-69 11 -127 22 -128 23
-7 7 160 145 222 186 63 41 258 142 276 142 4 0 3 -9 -3 -19 -19 -37 -10 -41
43 -20 76 31 169 57 231 64 53 7 55 7 49 -15 -6 -21 -3 -22 23 -16 64 14 222
18 294 7 41 -7 76 -14 79 -16 2 -3 -2 -11 -8 -19 -11 -13 -8 -16 16 -21 70
-16 141 -38 176 -56 l38 -20 -22 -18 -23 -18 80 -42 c43 -23 102 -58 129 -78
l50 -37 -27 -10 c-37 -13 -35 -20 10 -47 40 -25 202 -177 202 -191 0 -4 -13
-8 -30 -8 -16 0 -30 -3 -30 -6 0 -3 23 -32 52 -63 56 -61 138 -169 138 -181 0
-5 -19 -6 -42 -2 l-42 5 29 -49 c45 -75 95 -168 95 -176 0 -5 -11 -8 -25 -8
-14 0 -25 -4 -25 -9 0 -5 20 -44 45 -85 42 -72 75 -140 75 -155 0 -4 -13 -6
-30 -3 -16 2 -30 2 -30 -1 0 -3 9 -27 21 -54 36 -85 112 -294 107 -298 -2 -3
-37 9 -77 26 -69 29 -246 79 -278 79 -11 0 -13 -7 -9 -26 6 -24 5 -25 -21 -20
-15 3 -50 8 -78 11 -27 3 -65 8 -82 11 -27 4 -33 2 -33 -14 0 -10 9 -27 20
-37 11 -10 20 -22 20 -27 0 -16 -175 -8 -255 12 -43 11 -80 20 -82 20 -10 0 0
-31 18 -54 l20 -26 -23 0 c-31 0 -189 43 -256 69 -83 33 -92 29 -67 -31 5 -12
3 -18 -6 -18 -23 0 -251 115 -304 154 -27 20 -53 36 -57 36 -5 0 -8 -20 -8
-45 l0 -45 -62 49 c-73 57 -160 146 -208 213 -18 27 -39 48 -46 48 -6 0 -15
-16 -18 -35 -4 -20 -11 -33 -16 -30 -34 21 -133 202 -174 319 -6 18 -7 18 -25
2 -11 -10 -21 -14 -24 -9 -3 4 -11 51 -18 103 -7 52 -14 97 -16 99 -1 2 -9 -2
-18 -9 -24 -20 -28 9 -22 148 4 85 13 158 29 220 14 51 20 95 16 98 -47 30
-450 57 -479 33 -22 -19 -33 -79 -15 -79 8 0 59 -22 114 -50 71 -35 119 -68
168 -115 61 -58 67 -66 51 -76 -16 -9 -13 -15 27 -60 45 -50 66 -98 66 -150 0
-14 9 -36 20 -49 28 -32 75 -201 52 -186 -21 13 -21 -13 -1 -95 17 -65 20
-102 16 -169 -3 -47 -8 -93 -12 -103 -7 -17 -9 -17 -26 -1 -11 10 -21 15 -22
13 -2 -2 -9 -39 -15 -81 -11 -71 -43 -183 -57 -197 -4 -3 -11 2 -16 12 -6 9
-14 15 -19 12 -4 -3 -34 -53 -66 -111 -51 -93 -59 -103 -68 -85 -5 12 -13 21
-17 21 -13 0 -96 -111 -136 -182 -21 -37 -41 -68 -44 -68 -4 0 -12 14 -20 32
-18 44 -107 178 -118 178 -5 0 -12 -7 -15 -17 -5 -12 -25 8 -80 83 -40 54 -81
114 -90 132 -14 27 -20 31 -32 21 -8 -6 -14 -18 -14 -25 0 -52 -60 67 -90 179
-13 49 -19 54 -38 35 -29 -29 -62 167 -45 269 13 72 6 96 -22 73 -8 -7 -18
-10 -21 -7 -11 10 17 150 40 209 22 55 20 78 -5 62 -38 -23 36 123 100 197 28
34 31 42 20 56 -12 14 -5 24 53 78 70 65 168 122 264 155 l57 20 -6 -38 c-3
-20 -11 -76 -18 -124 -10 -75 -15 -89 -33 -94 -64 -20 -189 -124 -247 -205
-12 -17 16 7 62 54 69 69 174 147 200 147 3 0 4 -87 1 -193 l-5 -192 -61 -66
c-33 -36 -75 -90 -93 -120 -51 -86 -50 -101 1 -19 26 41 71 99 99 128 49 50
52 52 59 30 3 -13 6 -48 7 -78 1 -30 8 -114 16 -187 l16 -131 -31 -48 c-16
-26 -30 -53 -30 -58 0 -6 12 10 27 37 15 26 30 44 33 40 4 -5 13 -48 20 -96 7
-48 14 -86 16 -84 3 2 -1 45 -7 96 -7 50 -10 94 -6 97 4 4 17 -1 29 -11 13
-10 9 -5 -8 12 -30 30 -32 37 -42 155 -17 182 -25 388 -16 388 13 0 97 -51
151 -92 29 -22 78 -72 110 -111 74 -93 80 -99 57 -57 -33 60 -193 212 -263
249 l-63 33 7 142 c4 77 11 145 15 150 10 11 128 -52 190 -102 25 -20 69 -61
99 -91 31 -32 45 -43 33 -25 -51 75 -223 206 -299 229 -27 7 -29 33 -13 132 6
34 12 87 14 117 4 55 4 56 -24 56 -42 0 -208 -45 -272 -73 -98 -44 -214 -125
-287 -202 -94 -99 -105 -123 -92 -186 6 -27 17 -107 26 -177 56 -488 45 -1078
-35 -1907 -23 -230 -23 -225 -12 -225 9 0 34 204 57 463 12 136 19 175 35 202
32 52 127 133 171 146 21 7 39 16 39 20 0 9 -113 64 -150 72 -60 14 -60 13
-48 232 15 310 -2 761 -42 1055 -26 197 -28 179 23 239 106 124 247 219 402
270 102 34 185 49 185 35 0 -5 -33 -20 -74 -32 -105 -33 -189 -86 -279 -175
-68 -67 -78 -81 -73 -103 5 -17 0 -34 -18 -57 -32 -43 -82 -144 -91 -184 -5
-26 -3 -33 9 -33 9 0 16 -1 16 -2 0 -2 -9 -32 -20 -66 -12 -38 -20 -92 -20
-134 0 -65 1 -70 20 -65 19 5 20 0 20 -95 0 -142 42 -290 73 -259 7 7 19 -13
42 -72 30 -80 68 -147 84 -147 4 0 12 9 17 20 8 18 21 4 103 -107 84 -114 95
-125 106 -109 12 16 16 13 44 -28 18 -25 45 -75 61 -111 16 -36 34 -65 40 -65
6 0 18 17 27 38 12 29 90 154 135 217 4 6 13 2 23 -10 15 -20 15 -20 35 4 11
13 41 62 67 109 36 66 48 81 55 68 5 -9 13 -16 18 -16 24 0 90 183 90 246 0
32 1 34 21 23 28 -14 34 -4 48 76 17 94 11 195 -15 278 -3 11 0 17 9 17 9 0
19 12 24 26 8 23 12 18 56 -68 51 -101 130 -208 153 -208 8 0 17 13 21 30 7
38 14 38 37 -1 47 -79 267 -267 300 -256 6 2 9 20 8 41 l-4 37 64 -41 c114
-74 290 -149 321 -137 13 5 15 11 7 32 -11 29 -7 30 51 10 63 -22 185 -52 247
-60 46 -6 52 -5 52 11 0 9 -8 26 -17 37 -18 19 -17 20 12 13 54 -13 286 -19
297 -8 7 7 4 19 -11 39 -27 34 -19 37 55 24 32 -6 75 -11 96 -11 31 0 38 3 38
20 0 11 4 20 9 20 24 0 185 -53 259 -84 46 -20 86 -36 88 -36 16 0 -43 189
-100 322 -21 49 -21 48 14 41 20 -4 30 -2 30 7 0 20 -65 164 -94 206 -26 38
-26 39 -5 46 25 10 22 22 -36 140 l-43 88 27 0 c15 0 31 3 34 7 13 12 -101
184 -147 222 -22 18 -20 31 4 31 11 0 20 3 20 8 0 21 -51 85 -127 159 -47 46
-81 83 -74 83 6 0 11 9 11 19 0 23 -86 92 -178 144 -44 24 -58 36 -48 40 9 4
16 13 16 20 0 17 -87 65 -159 88 -40 12 -55 22 -53 33 5 25 -89 47 -233 53
-71 3 -133 10 -136 16 -16 24 -197 2 -308 -37 -55 -20 -59 -20 -57 2 2 29 -49
16 -179 -47 -126 -61 -249 -146 -336 -231 -28 -27 -58 -50 -68 -50 -9 0 -54 7
-101 15 -47 9 -133 18 -192 22 -70 4 -108 10 -108 17 0 8 33 12 103 13 142 1
321 47 315 81 -2 9 16 20 52 31 93 30 162 69 156 89 -4 13 4 23 27 36 56 33
137 98 137 111 0 8 -6 15 -12 18 -8 2 -1 14 19 31 36 30 123 142 123 158 0 5
-9 12 -19 15 -18 5 -17 9 14 66 36 68 65 155 65 199 0 21 -5 28 -19 28 -19 0
-19 1 -1 63 33 113 33 118 10 124 -13 4 -19 11 -16 22 2 9 8 32 12 51 3 19 18
61 32 93 14 31 23 60 20 63 -3 2 -79 -20 -168 -51 -90 -30 -167 -55 -171 -55
-5 0 -9 7 -9 15 0 26 -36 17 -136 -35 -82 -42 -99 -47 -108 -35 -9 12 -21 9
-73 -21 -34 -19 -87 -57 -116 -84 -50 -46 -55 -48 -60 -29 l-6 21 -30 -21
c-47 -34 -148 -150 -173 -200 -13 -26 -24 -48 -26 -51 -2 -2 -7 2 -13 10 -8
13 -12 11 -29 -10 -24 -29 -70 -169 -70 -209 0 -16 -7 -31 -15 -35 -11 -4 -15
-23 -15 -78 0 -136 43 -273 111 -359 44 -56 36 -84 -28 -94 -48 -7 -175 -38
-204 -50 -14 -5 -21 7 -38 64 -23 75 -37 88 -47 44 -22 -106 -68 -166 -178
-233 -32 -19 -87 -61 -121 -93 l-63 -57 -6 27 c-3 16 -10 64 -17 108 -10 76
-93 495 -140 710 -31 145 -30 216 3 288 15 32 41 76 58 96 16 21 27 41 24 44
-3 3 -37 -4 -76 -14 -39 -11 -74 -16 -79 -12 -24 26 -41 409 -25 584 l8 86 55
12 c50 12 56 11 68 -6 8 -10 15 -21 15 -24 0 -3 39 -36 86 -73 116 -91 137
-134 141 -295 2 -63 5 -116 6 -118 9 -8 68 139 78 193 14 73 3 174 -37 343 -4
20 5 14 56 -32 68 -63 106 -78 70 -27 -34 47 -57 111 -64 174 l-6 58 37 -29
c21 -16 63 -46 94 -66 43 -28 69 -57 108 -117 57 -87 111 -139 183 -176 71
-36 75 -30 20 32 -66 73 -96 131 -128 245 -15 52 -42 127 -60 168 -19 41 -31
78 -26 83 5 5 45 -16 90 -46 132 -89 313 -138 580 -157 231 -16 354 14 497
121 115 85 160 95 336 76 136 -15 153 8 154 218 1 171 11 203 82 267 49 45
205 134 276 158 75 26 95 38 102 60 13 43 -36 101 -150 174 -120 77 -140 106
-208 304 -46 130 -69 176 -123 239 l-43 51 45 34 c98 73 195 205 269 363 89
194 99 276 50 451 -35 128 -32 198 14 305 18 41 37 102 42 135 5 33 17 81 26
107 13 38 14 52 5 73 -23 49 -67 59 -292 65 l-205 5 -115 58 c-94 47 -129 60
-185 65 l-68 7 -19 115 c-14 86 -33 151 -75 255 -124 314 -173 371 -341 406
-91 20 -98 24 -145 99 -13 19 -37 44 -55 55 -18 11 -60 39 -95 63 -97 66 -156
92 -211 92 -39 0 -149 -30 -237 -65 -13 -5 -25 7 -48 49 -68 118 -155 169
-336 196 -108 16 -137 30 -203 96 -32 32 -75 65 -97 74 -55 24 -229 35 -270
16z m265 -31 c14 -8 50 -39 80 -70 73 -75 104 -89 235 -110 61 -9 131 -26 157
-37 67 -28 131 -102 183 -210 46 -94 93 -224 84 -233 -3 -2 -52 17 -110 42
-171 77 -242 72 -416 -31 -43 -25 -94 -58 -113 -75 l-35 -29 -90 87 c-133 127
-227 171 -371 171 -103 0 -153 -21 -238 -100 -41 -37 -82 -70 -92 -74 -33 -9
-148 -26 -152 -21 -9 9 30 142 59 202 16 34 52 87 79 116 48 53 60 62 195 150
39 25 109 81 155 125 131 123 135 124 260 116 58 -3 116 -12 130 -19z m-1060
-267 c36 -10 114 -23 174 -29 168 -15 163 -11 115 -72 -70 -88 -129 -227 -129
-302 0 -30 -4 -34 -59 -54 -68 -25 -139 -83 -174 -144 -13 -23 -45 -94 -70
-157 -42 -107 -59 -160 -87 -267 l-10 -42 -53 24 c-101 46 -238 42 -403 -13
-97 -32 -83 -48 -109 122 -31 198 -12 253 120 354 125 95 235 212 350 372 190
264 177 256 335 208z m2058 -108 c23 -10 70 -39 105 -63 34 -24 80 -54 102
-66 22 -12 53 -43 70 -68 42 -64 70 -82 148 -93 131 -19 181 -64 263 -235 86
-179 119 -290 160 -532 38 -229 46 -359 25 -445 -33 -141 -94 -236 -222 -347
-60 -52 -100 -77 -178 -110 -146 -62 -225 -122 -419 -317 l-172 -174 20 52
c11 29 29 98 40 153 14 68 34 126 61 180 22 44 36 76 31 70 -5 -5 -24 -37 -41
-69 l-31 -59 0 36 c0 20 5 82 11 137 l12 101 46 26 c116 65 153 94 172 136 10
23 19 53 19 67 0 52 23 104 65 149 53 56 68 92 55 125 -16 44 -52 59 -127 54
-38 -3 -77 -9 -88 -13 -19 -8 -19 -7 -4 11 31 36 71 126 85 193 21 102 29 276
14 345 -11 53 -20 67 -85 136 -61 64 -77 87 -91 136 -9 32 -22 67 -28 77 -19
31 -70 56 -161 80 l-88 22 -13 60 c-6 33 -24 86 -38 119 -14 32 -26 62 -26 66
0 17 186 78 240 79 14 0 44 -8 68 -19z m-1268 -156 c29 -9 81 -33 116 -55 59
-38 191 -165 213 -207 9 -18 7 -21 -22 -26 -42 -8 -96 -42 -222 -140 -54 -43
-105 -80 -112 -83 -7 -3 -33 5 -58 17 -41 20 -58 22 -168 18 -105 -3 -128 -6
-163 -27 -43 -24 -94 -92 -94 -124 0 -10 -20 -36 -45 -59 -58 -53 -80 -110
-80 -209 0 -68 3 -80 32 -125 18 -27 49 -80 69 -119 37 -70 37 -70 25 -130 -7
-33 -24 -87 -38 -120 -13 -33 -42 -104 -63 -159 -21 -54 -40 -92 -44 -85 -3 9
-5 6 -5 -6 3 -57 2 -57 -71 -9 -67 45 -73 52 -149 185 -129 225 -158 320 -148
482 7 118 49 304 97 432 76 203 114 263 197 312 47 27 168 63 215 63 48 0 96
26 156 86 78 78 136 104 233 104 41 0 99 -7 129 -16z m895 -107 c95 -43 131
-55 267 -92 76 -20 113 -53 127 -112 17 -66 51 -122 100 -161 23 -18 51 -52
64 -75 20 -38 22 -55 21 -182 -2 -199 -24 -281 -110 -410 -31 -47 -210 -216
-294 -277 l-37 -28 -22 73 c-25 84 -27 162 -6 231 8 27 15 75 15 107 0 63 -59
351 -86 420 -45 114 -144 223 -237 263 -34 15 -84 39 -112 54 -45 24 -60 27
-142 26 -67 -1 -93 2 -93 11 0 19 79 87 145 125 170 97 237 102 400 27z m-253
-241 c98 -48 125 -66 172 -117 78 -84 103 -139 142 -313 48 -216 52 -266 25
-378 -31 -126 -84 -295 -89 -280 -2 6 3 67 12 134 28 225 27 270 -2 98 l-28
-165 -28 60 c-69 151 -111 329 -86 368 36 57 45 87 48 162 7 150 -25 206 -140
244 -37 12 -72 28 -78 36 -6 8 -32 22 -56 31 -52 20 -183 14 -280 -13 -111
-30 -214 -36 -214 -13 0 12 201 161 238 177 19 8 59 18 90 23 101 16 147 7
274 -54z m-2647 4 c59 -14 147 -23 253 -27 89 -3 162 -7 162 -9 0 -1 -10 -19
-21 -39 -32 -54 -35 -139 -10 -286 l22 -127 -31 -49 c-42 -68 -47 -126 -21
-236 28 -116 27 -160 -5 -227 -32 -68 -33 -113 -4 -170 22 -42 22 -48 9 -110
-7 -36 -13 -92 -13 -125 1 -112 86 -268 229 -422 l76 -82 -37 -37 c-52 -53
-103 -165 -110 -245 -6 -63 -6 -65 51 -172 31 -60 55 -111 52 -113 -8 -8 -175
26 -259 52 -160 51 -313 143 -372 223 -19 25 -52 83 -75 128 -38 77 -47 87
-135 153 -131 98 -148 137 -165 380 -9 122 -12 135 -51 221 -48 103 -57 147
-41 205 14 52 49 87 103 103 129 39 148 110 107 398 -24 165 -22 279 4 330 9
17 34 52 56 77 30 35 41 57 46 93 10 82 20 107 45 120 32 16 29 16 135 -7z
m2516 -140 c50 -14 170 -109 191 -150 36 -71 14 -171 -62 -285 -22 -33 -40
-55 -40 -50 -1 40 -34 153 -59 203 -37 73 -77 108 -217 192 -121 71 -120 73 5
89 94 12 141 12 182 1z m-605 -26 c19 -9 32 -20 29 -24 -3 -5 -29 -22 -59 -39
-71 -41 -143 -106 -178 -160 -39 -63 -38 -111 7 -197 19 -37 35 -77 35 -89 0
-25 -36 -135 -48 -147 -12 -12 -111 145 -143 226 -18 45 -28 62 -29 46 0 -38
60 -166 121 -261 66 -100 121 -158 251 -262 53 -43 148 -124 210 -180 62 -56
141 -126 176 -156 34 -30 61 -56 59 -57 -9 -9 -199 47 -229 68 -19 12 -67 45
-107 72 -53 35 -77 58 -88 85 -23 55 -41 70 -94 77 -30 4 -58 15 -73 29 -24
23 -46 80 -46 123 0 38 -17 60 -57 72 -90 28 -93 30 -138 119 -24 47 -60 111
-79 141 -44 66 -52 106 -38 181 15 80 38 125 78 148 20 12 36 31 40 48 12 51
52 110 86 126 49 22 63 25 176 26 77 1 113 -3 138 -15z m154 -14 c11 -7 9 -11
-12 -19 -40 -15 -94 -75 -111 -123 -8 -24 -22 -87 -30 -142 -17 -109 -24 -123
-56 -107 -40 22 -74 80 -79 135 -7 86 38 150 158 221 76 45 103 52 130 35z
m222 -47 c34 -22 84 -52 109 -66 99 -56 159 -154 179 -294 9 -67 5 -88 -24
-112 -12 -10 -19 1 -45 68 -18 46 -31 99 -31 124 0 88 -42 162 -113 199 -33
18 -58 23 -117 22 -114 0 -210 -50 -241 -126 -15 -37 -29 -20 -29 37 0 40 23
88 64 134 l21 24 -22 -14 c-34 -23 -60 -60 -73 -105 -10 -35 -10 -50 5 -100
21 -72 73 -153 115 -177 17 -11 29 -21 27 -24 -3 -2 -50 6 -105 18 l-100 22 9
31 c5 16 13 74 19 128 14 141 44 192 140 237 69 33 132 25 212 -26z m435 0
c52 -24 73 -77 73 -184 0 -74 -4 -93 -27 -135 -14 -27 -39 -76 -56 -109 -16
-33 -42 -74 -57 -91 -17 -20 -30 -49 -34 -79 -10 -61 -38 -90 -112 -110 -82
-22 -90 -28 -86 -63 8 -77 -56 -124 -213 -157 -44 -10 -92 -24 -106 -31 -23
-12 -29 -11 -39 1 -18 22 -1 39 165 163 247 185 327 266 434 439 96 155 103
260 23 346 -29 31 -17 35 35 10z m-371 -92 c23 -10 54 -36 70 -56 24 -32 29
-49 32 -110 4 -65 2 -74 -23 -103 -15 -18 -41 -40 -57 -48 -38 -20 -108 -45
-108 -39 0 3 25 19 55 36 70 39 106 85 113 144 9 81 -26 128 -104 139 -37 6
-37 5 11 -12 66 -23 92 -65 78 -125 l-9 -42 -17 32 c-9 18 -34 45 -54 60 -33
26 -44 28 -122 28 -75 0 -90 -3 -119 -24 -19 -13 -42 -37 -52 -53 -18 -29 -18
-30 -29 -10 -16 30 -14 50 11 94 51 90 219 137 324 89z m-576 -33 c-11 -24
-20 -52 -20 -63 0 -43 23 -98 56 -135 42 -46 98 -69 244 -100 151 -33 423
-131 406 -147 -10 -11 -124 22 -160 46 -37 25 -47 26 -182 28 -148 2 -172 8
-210 48 -13 15 -38 24 -74 29 -73 10 -88 20 -116 79 -31 67 -32 134 -2 173 23
31 70 84 74 84 2 0 -6 -19 -16 -42z m545 -98 c39 -24 65 -66 65 -105 0 -33
-11 -31 -35 8 -30 47 -80 77 -132 77 -45 0 -109 -26 -132 -54 -17 -20 -41 -21
-41 -1 0 25 53 75 95 91 53 19 135 12 180 -16z m-1400 -10 c33 -16 49 -30 46
-40 -11 -45 -12 -266 -2 -322 15 -74 75 -205 153 -335 31 -51 55 -93 55 -93
-1 0 -30 9 -65 20 -65 20 -152 28 -189 16 -13 -4 -26 -21 -33 -41 -14 -43 4
-90 51 -128 91 -74 136 -138 165 -237 9 -30 24 -71 35 -92 10 -20 19 -40 19
-43 0 -3 -43 40 -96 95 -53 55 -99 98 -102 95 -3 -3 22 -33 55 -67 81 -86 158
-191 239 -328 67 -115 172 -275 236 -360 l33 -45 -36 23 c-20 12 -78 37 -128
56 -50 19 -135 59 -189 89 -53 30 -140 75 -193 100 -135 62 -208 115 -335 242
-111 109 -187 211 -241 323 -23 48 -27 70 -27 137 0 44 4 105 8 136 7 47 5 61
-13 97 -27 53 -26 85 3 147 33 72 38 111 21 185 -36 158 -38 173 -25 219 16
59 61 103 135 130 98 37 174 50 275 48 79 -2 103 -6 145 -27z m1355 -42 c24
-13 53 -36 64 -51 l21 -29 -33 -29 c-37 -33 -62 -36 -98 -12 l-26 16 29 12
c20 9 32 9 42 1 11 -9 9 -12 -10 -17 -19 -5 -15 -7 14 -6 37 0 37 1 20 21 -58
69 -95 80 -150 46 -31 -18 -63 -18 -63 0 0 11 50 47 81 59 38 15 62 13 109
-11z m-32 -61 c22 -17 -54 -38 -85 -24 l-24 11 32 17 c33 17 52 16 77 -4z
m-56 -58 c79 -40 85 -54 18 -46 -53 6 -95 27 -55 27 13 0 6 7 -20 21 -22 11
-49 30 -60 40 -20 20 -20 20 20 3 22 -9 66 -29 97 -45z m308 -39 c23 -80 23
-82 4 -100 -19 -19 -20 -19 -69 4 -28 13 -74 32 -104 42 l-53 17 81 39 c54 26
86 47 93 63 6 13 14 22 18 20 4 -2 17 -41 30 -85z m1740 79 c25 -6 90 -32 145
-59 55 -27 112 -52 127 -55 14 -4 113 -8 220 -9 148 -1 200 -5 222 -16 46 -24
53 -43 32 -87 -10 -21 -22 -64 -26 -96 -5 -32 -26 -100 -47 -150 -33 -81 -38
-102 -37 -172 0 -57 8 -105 27 -169 32 -106 34 -162 6 -252 -31 -102 -121
-279 -182 -359 -57 -74 -232 -238 -332 -310 -140 -100 -314 -164 -467 -172
-115 -7 -117 -4 -70 88 23 46 35 58 87 84 49 25 65 39 92 86 18 31 59 86 92
122 74 82 81 94 102 187 9 41 29 109 44 150 31 86 30 151 -3 217 -42 81 -168
164 -273 178 l-50 7 59 62 c79 82 117 144 147 239 34 106 41 217 21 344 -8 56
-18 113 -22 127 -5 22 -3 26 17 26 13 0 44 -5 69 -11z m-2325 -119 c39 -37 56
-41 215 -43 128 -2 137 -3 175 -29 24 -16 61 -30 93 -34 28 -4 52 -9 51 -13 0
-9 -110 -98 -229 -186 -58 -43 -122 -93 -142 -113 l-37 -35 -113 91 c-62 50
-135 113 -162 141 l-50 50 27 78 c15 43 27 91 27 106 l0 28 58 -6 c43 -6 64
-14 87 -35z m910 -249 c43 -102 46 -113 43 -187 l-3 -79 -125 -70 c-69 -39
-175 -98 -236 -130 l-111 -59 -142 129 c-78 70 -138 132 -134 136 4 4 55 19
113 34 167 42 229 91 214 170 -6 32 -4 35 22 40 132 28 168 55 179 134 5 35
15 56 36 77 15 15 34 43 41 63 l12 36 22 -93 c13 -51 44 -141 69 -201z m753
123 c37 -25 29 -67 -23 -123 -49 -53 -75 -104 -75 -151 0 -73 -45 -127 -151
-181 -32 -16 -81 -49 -109 -74 -101 -90 -171 -105 -270 -59 -86 40 -102 27
-151 -114 -25 -74 -57 -121 -111 -165 -87 -70 -164 -96 -368 -122 -69 -9 -151
-22 -182 -29 -51 -12 -61 -11 -102 7 -25 11 -46 23 -46 27 0 12 182 169 258
221 37 26 147 89 243 139 202 106 480 270 565 333 32 24 104 84 158 133 147
132 164 146 204 160 51 18 133 17 160 -2z m-1966 -124 c67 -16 72 -22 84 -91
17 -103 40 -129 131 -144 45 -7 63 -23 83 -73 8 -22 33 -47 69 -71 31 -21 80
-54 109 -74 57 -39 122 -62 203 -73 48 -6 62 -17 36 -27 -29 -11 -222 -162
-292 -229 l-77 -72 -51 29 c-160 89 -320 201 -417 291 -58 53 -106 103 -108
111 -5 21 34 144 80 252 21 51 46 121 55 156 15 61 16 62 34 44 10 -10 37 -23
61 -29z m1390 -83 c9 -40 17 -75 18 -78 0 -4 -29 -25 -65 -48 l-65 -40 6 27
c4 15 20 59 35 97 15 39 31 83 34 98 10 38 17 28 37 -56z m-1896 -218 c135
-41 200 -86 379 -258 71 -69 137 -120 230 -178 239 -149 345 -198 684 -314
249 -85 388 -153 496 -244 27 -23 29 -26 13 -41 -21 -22 -110 -42 -238 -55
-79 -7 -138 -21 -240 -55 -149 -51 -183 -52 -280 -14 -27 10 -88 26 -136 36
-175 32 -271 78 -354 168 -14 15 -56 50 -93 78 -84 63 -101 91 -92 162 8 64 0
73 -81 86 -64 11 -114 41 -174 107 -56 60 -80 121 -87 220 -7 95 -7 96 -111
148 -39 20 -81 50 -92 65 -22 31 -26 80 -8 98 19 19 109 14 184 -9z m2110
-334 c-25 -259 -75 -388 -214 -552 -35 -41 -69 -76 -77 -79 -7 -3 -42 16 -78
41 -92 64 -223 124 -427 194 -96 33 -202 71 -234 84 -70 29 -79 25 139 57 167
25 231 42 306 82 105 55 167 135 204 261 16 56 36 87 57 87 6 0 25 -9 42 -19
17 -11 50 -24 74 -31 55 -14 131 6 182 49 45 38 46 36 26 -174z m845 170 c66
-23 145 -81 178 -131 47 -72 49 -122 7 -248 -20 -58 -36 -114 -36 -124 0 -50
-25 -96 -94 -171 -40 -44 -87 -105 -104 -135 -24 -42 -39 -57 -67 -66 -72 -24
-103 -67 -160 -224 -36 -100 -97 -141 -254 -175 -52 -12 -108 -30 -125 -42
-17 -12 -57 -55 -89 -95 -32 -41 -77 -89 -100 -108 -66 -53 -166 -103 -242
-121 -152 -35 -192 -47 -255 -79 -98 -50 -187 -77 -270 -83 -85 -6 -147 8
-263 58 -37 17 -100 36 -138 44 -114 21 -133 58 -80 150 37 63 130 170 201
231 88 76 181 131 369 221 210 99 259 125 328 170 71 47 172 157 274 298 133
185 290 350 441 464 49 36 206 121 225 121 5 0 31 16 58 35 45 32 55 35 101
30 28 -3 71 -12 95 -20z m-2979 -47 c22 -15 27 -26 26 -53 -1 -19 -3 -35 -4
-35 -2 0 -15 17 -29 38 -14 20 -32 47 -41 60 -16 21 -16 22 2 16 11 -4 31 -16
46 -26z m281 -433 c104 -15 96 -8 95 -83 -1 -38 3 -77 10 -89 7 -12 54 -56
105 -96 50 -41 101 -84 112 -97 58 -65 157 -109 304 -135 47 -8 118 -26 156
-40 100 -35 175 -34 273 6 70 28 191 59 229 59 13 0 14 -2 2 -17 -13 -16 -12
-17 3 -4 15 11 148 43 155 37 2 -1 -111 -57 -250 -125 l-253 -122 -117 -11
-116 -12 -128 44 c-240 81 -338 141 -429 265 -155 210 -235 344 -259 437 l-13
47 39 -29 c22 -16 59 -31 82 -35z m-597 -108 c33 -26 127 -82 209 -123 83 -41
185 -94 228 -118 43 -24 115 -55 160 -70 45 -15 116 -49 157 -75 185 -119 229
-143 319 -177 229 -86 234 -88 305 -136 6 -4 -23 -41 -66 -86 -42 -44 -89 -98
-103 -121 -22 -32 -38 -44 -88 -60 -37 -13 -87 -21 -126 -21 -36 0 -103 -4
-148 -10 -209 -24 -359 55 -463 243 -59 109 -107 138 -305 184 -149 35 -179
51 -211 116 -15 28 -45 83 -67 121 -35 58 -40 76 -39 121 2 93 64 227 124 269
25 18 19 21 114 -57z m-827 -193 c52 -79 129 -139 256 -200 110 -52 237 -90
353 -104 48 -6 94 -17 102 -25 25 -23 84 -44 198 -71 96 -23 192 -56 192 -67
0 -2 -38 -27 -84 -55 -144 -88 -220 -191 -271 -368 -18 -63 -25 -110 -25 -173
0 -154 44 -259 147 -348 74 -64 102 -92 183 -178 67 -72 130 -102 245 -117 79
-11 84 -13 62 -25 -96 -50 -310 -92 -468 -93 -89 0 -146 15 -294 80 -83 37
-135 52 -214 65 -57 9 -116 22 -132 30 -31 17 -49 63 -49 130 0 108 -58 180
-198 246 -105 50 -126 68 -163 141 -35 69 -81 123 -123 145 -17 9 -62 24 -101
33 -89 20 -91 29 -31 149 25 50 55 123 65 163 45 171 37 238 -40 338 -62 81
-69 103 -38 136 12 13 27 24 33 24 27 0 181 86 256 144 47 35 87 65 90 65 3 1
25 -29 49 -65z m4694 -163 c14 -26 46 -100 70 -166 75 -204 89 -222 238 -318
82 -52 138 -114 125 -136 -4 -5 -37 -19 -74 -31 -82 -27 -223 -100 -288 -149
-33 -25 -59 -56 -79 -95 -29 -58 -30 -62 -30 -212 0 -145 -1 -155 -22 -175
-24 -24 -68 -27 -145 -9 -61 14 -129 12 -174 -4 -22 -7 -82 -43 -135 -78 -110
-75 -183 -105 -283 -118 -149 -19 -485 24 -626 80 -59 23 -190 100 -190 112 0
3 21 24 46 44 55 46 128 146 149 204 31 89 6 220 -65 331 -18 27 -31 51 -29
53 2 2 18 10 34 19 54 27 112 81 179 164 37 46 80 90 97 99 17 8 65 22 107 30
42 8 91 19 107 26 55 21 122 77 145 121 l24 45 100 5 c201 10 398 91 569 233
l52 43 36 -36 c21 -19 48 -56 62 -82z m-3496 -417 c54 -97 133 -178 206 -212
75 -35 133 -44 242 -38 55 4 132 9 170 11 39 2 92 11 120 19 27 8 50 14 52 12
2 -1 -2 -17 -8 -35 -20 -57 25 -101 126 -121 33 -7 96 -27 140 -45 112 -46
156 -56 240 -57 90 0 162 20 282 78 50 24 122 51 160 60 37 9 95 23 128 31
101 26 103 26 141 -42 72 -128 81 -218 33 -314 -64 -128 -176 -218 -319 -257
-95 -25 -115 -38 -212 -131 -56 -54 -106 -92 -140 -107 -117 -52 -366 -94
-494 -83 -40 3 -93 18 -158 46 -127 54 -191 68 -366 76 -345 16 -369 23 -509
164 -58 58 -126 122 -151 142 -113 90 -159 286 -110 473 40 153 101 248 212
333 62 48 147 95 158 88 5 -3 30 -44 57 -91z m1833 -986 c16 -35 41 -106 56
-158 31 -111 54 -159 101 -217 19 -24 30 -43 25 -43 -21 0 -97 80 -155 164
-52 75 -75 99 -142 144 -112 75 -129 92 -112 110 13 13 155 60 185 61 7 1 26
-27 42 -61z m-245 -105 c4 -38 17 -88 28 -113 12 -25 23 -49 25 -55 2 -5 -23
17 -57 50 -71 69 -72 68 -40 -81 29 -134 29 -270 1 -344 l-21 -55 0 56 c-2
147 -37 230 -124 296 -70 52 -127 104 -127 114 0 3 27 16 59 28 74 27 167 89
204 135 15 20 32 36 37 36 4 0 11 -30 15 -67z m-1002 -82 c37 -12 67 -24 67
-28 0 -18 -47 -76 -99 -121 -32 -28 -73 -73 -91 -99 l-32 -48 7 45 c4 25 15
69 24 98 20 58 16 64 -20 26 -13 -14 -69 -58 -124 -97 -120 -85 -260 -221
-303 -297 -36 -62 -39 -58 -16 21 26 87 57 139 138 228 72 79 82 98 78 151 0
8 6 46 15 84 l15 68 137 -5 c101 -3 153 -10 204 -26z m212 -77 c28 -8 60 -14
73 -14 l23 0 -3 -190 -3 -190 -100 -94 c-55 -52 -97 -97 -93 -101 4 -4 30 -2
58 4 144 31 154 20 181 -215 29 -253 59 -431 134 -774 36 -165 65 -301 65
-303 0 -2 -26 21 -57 50 -56 52 -95 83 -213 170 -62 45 -114 129 -126 201 -4
24 -11 41 -18 39 -6 -2 -19 -33 -29 -69 l-19 -65 -100 39 c-55 22 -132 47
-171 57 -62 16 -73 23 -86 49 -13 29 -12 35 14 93 43 96 60 222 47 333 -8 60
-17 95 -27 102 -8 6 -24 36 -34 66 -23 68 -40 101 -81 156 -26 36 -34 41 -46
31 -12 -10 -18 -8 -31 12 -9 13 -42 49 -75 79 -32 31 -58 59 -58 64 0 14 86
120 132 162 25 23 81 67 124 99 43 32 97 71 118 88 l39 31 -6 -31 c-10 -49
-20 -183 -14 -183 3 0 18 28 34 63 29 62 53 89 152 179 28 26 57 61 62 77 l11
31 36 -16 c21 -9 60 -22 87 -30z m117 -491 c3 -43 3 -79 2 -81 -1 -2 -14 4
-28 13 -20 14 -38 16 -84 11 l-57 -7 40 33 c22 18 56 49 75 69 19 20 38 37 41
38 4 0 9 -34 11 -76z m320 -225 c-16 -24 -35 -61 -42 -83 -11 -33 -14 -36 -20
-20 -4 11 -10 41 -14 67 l-7 46 43 15 c67 24 72 21 40 -25z m-1382 -637 c0
-16 11 -22 56 -31 69 -15 211 -18 280 -7 45 8 52 6 56 -10 5 -17 -6 -18 -195
-18 l-199 0 -35 43 -36 42 37 0 c29 0 36 -4 36 -19z m374 -147 c25 -4 46 -12
46 -18 0 -6 -31 -26 -69 -44 -82 -37 -202 -131 -253 -196 l-35 -45 -6 97 c-4
53 -13 120 -21 149 -8 28 -11 54 -8 57 7 8 288 7 346 0z m2210 -179 c60 -8
111 -16 113 -18 2 -3 -6 -38 -17 -78 -12 -41 -24 -116 -27 -166 -3 -51 -9 -93
-13 -93 -4 0 -14 7 -21 17 -11 13 -11 17 -1 20 24 9 11 35 -45 95 -69 73 -177
146 -262 177 -45 17 -61 28 -61 42 0 17 9 19 113 19 61 0 161 -7 221 -15z
m-2505 -182 c-7 -10 -15 -20 -16 -22 -2 -2 -3 5 -3 17 0 14 6 22 16 22 14 0
15 -3 3 -17z m1682 -1709 c6 -3 -11 -19 -39 -35 -27 -15 -68 -50 -91 -76 l-42
-48 6 85 c3 47 8 95 11 107 l4 22 70 -24 c38 -13 75 -27 81 -31z"/>
<path d="M5244 8829 c-3 -6 -15 -9 -25 -6 -11 3 -17 1 -13 -4 8 -14 30 -11 44
6 7 8 10 15 7 15 -3 0 -9 -5 -13 -11z"/>
<path d="M5257 8728 c2 -5 10 -8 18 -8 8 0 16 3 18 8 3 4 -5 7 -18 7 -13 0
-21 -3 -18 -7z"/>
<path d="M4092 8648 c-25 -25 -4 -78 32 -78 9 0 36 31 36 42 0 6 -8 0 -19 -13
-16 -20 -21 -21 -35 -10 -21 18 -20 47 2 60 9 6 12 11 7 11 -6 0 -16 -5 -23
-12z"/>
<path d="M3650 8281 c0 -10 19 -25 25 -20 1 2 -3 10 -11 17 -8 7 -14 8 -14 3z"/>
<path d="M6583 8429 c27 -16 21 -54 -14 -84 -64 -53 -116 -9 -69 59 l21 31
-25 -28 c-41 -45 -30 -97 21 -97 30 0 93 56 93 84 0 23 -17 46 -34 46 -6 0 -3
-5 7 -11z"/>
<path d="M6764 7928 l-19 -23 23 19 c21 18 27 26 19 26 -2 0 -12 -10 -23 -22z"/>
<path d="M6869 7910 c-3 -16 -16 -31 -39 -42 -19 -10 -27 -18 -18 -18 27 0 71
43 66 65 -4 17 -5 16 -9 -5z"/>
<path d="M6757 7859 c7 -7 15 -10 18 -7 3 3 -2 9 -12 12 -14 6 -15 5 -6 -5z"/>
<path d="M6791 7620 c-13 -11 -19 -20 -14 -20 6 0 18 9 28 20 23 25 17 25 -14
0z"/>
<path d="M6709 7608 c7 -10 23 -17 35 -17 20 1 20 2 1 6 -11 3 -27 10 -35 17
-13 10 -13 9 -1 -6z"/>
<path d="M6611 7163 c7 -12 15 -20 18 -17 3 2 -3 12 -13 22 -17 16 -18 16 -5
-5z"/>
<path d="M6597 7083 c-32 -37 -69 -44 -87 -15 -7 10 -10 11 -7 3 11 -44 74
-37 110 11 30 40 17 41 -16 1z"/>
<path d="M4105 7940 c-3 -6 1 -7 9 -4 18 7 21 14 7 14 -6 0 -13 -4 -16 -10z"/>
<path d="M4091 7883 c-1 -12 10 -35 23 -50 20 -23 28 -26 42 -17 10 6 20 17
22 25 2 8 -3 5 -11 -6 -21 -26 -47 -11 -64 36 -9 25 -12 29 -12 12z"/>
<path d="M6011 8089 c-1 -19 26 -45 36 -35 3 3 1 6 -6 6 -6 0 -16 10 -21 23
-6 15 -9 17 -9 6z"/>
<path d="M6218 8011 c4 -32 -22 -65 -45 -57 -8 3 -11 1 -8 -4 9 -15 23 -12 45
10 20 20 27 64 12 74 -5 3 -7 -8 -4 -23z"/>
<path d="M6058 7635 c4 -25 -13 -34 -34 -17 -5 4 -4 1 3 -7 6 -7 19 -11 27 -8
17 7 22 42 7 51 -4 3 -6 -6 -3 -19z"/>
<path d="M3069 7983 c-13 -17 -13 -17 6 -3 11 8 22 16 24 17 2 2 0 3 -6 3 -6
0 -17 -8 -24 -17z"/>
<path d="M3051 7937 c-1 -38 14 -64 49 -82 61 -32 116 -5 107 52 -4 27 -4 27
-6 -4 -1 -39 -29 -57 -71 -48 -35 8 -60 35 -70 77 -8 32 -8 32 -9 5z"/>
<path d="M3099 7428 c14 -19 46 -24 55 -9 4 5 -3 7 -14 4 -11 -3 -28 1 -38 8
-15 13 -16 12 -3 -3z"/>
<path d="M2920 7290 c-11 -11 -20 -32 -20 -47 0 -57 175 -184 233 -169 15 3
27 12 27 18 0 9 -3 9 -12 0 -21 -21 -51 -13 -123 33 -117 77 -142 122 -89 164
15 12 22 21 15 21 -6 0 -20 -9 -31 -20z"/>
<path d="M3078 7264 c23 -19 49 -45 57 -57 8 -12 15 -16 15 -9 0 15 -87 102
-103 102 -6 0 8 -16 31 -36z"/>
<path d="M3037 7244 c-6 -7 19 -64 29 -64 2 0 -2 13 -10 29 -9 16 -12 31 -9
35 4 3 4 6 1 6 -2 0 -7 -3 -11 -6z"/>
<path d="M3151 7164 c0 -11 3 -14 6 -6 3 7 2 16 -1 19 -3 4 -6 -2 -5 -13z"/>
<path d="M2762 6984 c10 -10 20 -16 22 -13 3 3 -5 11 -17 18 -21 13 -21 12 -5
-5z"/>
<path d="M3110 6604 c0 -18 24 -34 50 -33 20 1 21 2 5 6 -11 3 -28 12 -37 21
-10 8 -18 11 -18 6z"/>
<path d="M3334 6409 c14 -11 26 -28 27 -37 0 -12 2 -13 6 -4 5 14 -33 62 -50
62 -5 0 2 -9 17 -21z"/>
<path d="M3261 6374 c-1 -30 36 -74 63 -74 23 0 46 17 46 35 0 5 -5 2 -11 -7
-12 -22 -52 -23 -68 -4 -7 8 -16 27 -21 43 -7 22 -8 24 -9 7z"/>
<path d="M4461 7934 c0 -11 3 -14 6 -6 3 7 2 16 -1 19 -3 4 -6 -2 -5 -13z"/>
<path d="M4966 7206 c3 -9 2 -16 -4 -16 -6 0 -13 6 -15 13 -4 9 -6 9 -6 -1 -1
-17 28 -27 40 -15 6 6 4 14 -6 23 -13 11 -14 10 -9 -4z"/>
<path d="M3640 7880 c-31 -31 -25 -50 33 -105 29 -27 61 -62 71 -77 10 -16 24
-28 32 -28 19 0 36 36 31 68 -4 27 -4 27 -6 -3 -3 -64 -14 -61 -95 19 -42 42
-76 82 -76 89 0 22 16 38 46 47 24 7 25 8 7 9 -13 1 -32 -8 -43 -19z"/>
<path d="M3732 7874 c49 -26 75 -106 29 -89 -11 4 -13 3 -5 -5 12 -12 44 -3
44 12 0 32 -57 99 -85 98 -5 -1 2 -7 17 -16z"/>
<path d="M3603 7364 c-13 -35 46 -94 96 -94 44 0 61 51 29 85 -5 6 -4 -3 2
-19 9 -23 8 -32 -3 -44 -33 -32 -126 23 -114 68 6 24 -1 27 -10 4z"/>
<path d="M3828 6803 c6 -2 18 -2 25 0 6 3 1 5 -13 5 -14 0 -19 -2 -12 -5z"/>
<path d="M3782 6788 c-19 -19 -14 -76 8 -98 22 -22 61 -40 86 -40 22 0 54 38
53 63 -1 17 -3 15 -10 -10 -5 -17 -18 -34 -28 -38 -26 -8 -87 18 -100 43 -16
31 -13 70 7 81 9 6 12 11 7 11 -6 0 -16 -5 -23 -12z"/>
<path d="M3891 6774 c13 -17 26 -30 28 -27 3 2 -8 16 -24 31 l-28 27 24 -31z"/>
<path d="M3840 6761 c0 -10 29 -36 34 -30 1 2 -6 12 -16 22 -10 9 -18 13 -18
8z"/>
<path d="M4161 6403 c7 -12 15 -20 18 -17 3 2 -3 12 -13 22 -17 16 -18 16 -5
-5z"/>
<path d="M4111 6379 c-1 -19 26 -45 36 -35 3 3 1 6 -6 6 -6 0 -16 10 -21 23
-6 15 -9 17 -9 6z"/>
<path d="M7308 7270 c18 -20 15 -64 -6 -83 -30 -27 -71 -38 -95 -25 -20 10
-21 10 -8 -5 7 -10 20 -17 28 -17 20 0 76 30 90 49 18 23 16 67 -4 82 -15 11
-16 11 -5 -1z"/>
<path d="M7551 7039 c-19 -24 -30 -30 -52 -27 -15 3 -26 1 -23 -4 16 -26 104
17 104 52 0 14 -2 13 -29 -21z"/>
<path d="M6231 7324 c-2 -32 -26 -47 -70 -42 -22 2 -37 0 -35 -4 3 -5 22 -8
43 -8 43 0 76 27 68 57 -4 15 -5 15 -6 -3z"/>
<path d="M5608 6980 c43 -10 55 -22 55 -55 0 -71 -118 -150 -172 -116 -8 5
-17 26 -21 47 l-8 39 -1 -36 c-2 -74 79 -92 155 -34 33 25 64 77 64 105 0 22
-49 60 -77 59 -27 -1 -27 -1 5 -9z"/>
<path d="M5517 6959 c-15 -12 -32 -31 -38 -42 -8 -17 -5 -15 13 5 12 15 37 34
53 43 17 8 23 15 15 15 -8 -1 -27 -10 -43 -21z"/>
<path d="M5567 6929 c4 -13 8 -18 11 -10 2 7 -1 18 -6 23 -8 8 -9 4 -5 -13z"/>
<path d="M4150 6989 c0 -5 5 -7 10 -4 6 3 10 8 10 11 0 2 -4 4 -10 4 -5 0 -10
-5 -10 -11z"/>
<path d="M4157 6949 c7 -7 15 -10 18 -7 3 3 -2 9 -12 12 -14 6 -15 5 -6 -5z"/>
<path d="M4340 6748 c-51 -55 -6 -138 75 -138 44 0 82 27 72 52 -4 9 -6 7 -6
-4 -2 -40 -82 -51 -125 -17 -44 35 -32 101 24 122 12 4 12 6 -2 6 -10 1 -26
-9 -38 -21z"/>
<path d="M4430 6752 c19 -9 40 -28 47 -42 9 -17 13 -20 13 -8 0 20 -55 68 -78
68 -9 0 -1 -8 18 -18z"/>
<path d="M4655 6470 c-4 -7 -16 -10 -26 -7 -11 3 -17 1 -13 -4 3 -5 11 -9 17
-9 18 0 42 18 35 25 -3 4 -9 1 -13 -5z"/>
<path d="M5123 6403 c9 -2 25 -2 35 0 9 3 1 5 -18 5 -19 0 -27 -2 -17 -5z"/>
<path d="M5225 6379 c65 -57 37 -106 -50 -87 -66 15 -88 34 -83 74 2 19 0 30
-5 25 -18 -18 -2 -65 30 -87 70 -47 153 -36 153 20 0 25 -49 86 -69 86 -7 0 4
-14 24 -31z"/>
<path d="M5447 6233 c-12 -11 -7 -40 8 -53 12 -10 21 -10 38 -1 19 9 19 10 2
6 -29 -7 -49 9 -42 34 5 22 4 25 -6 14z"/>
<path d="M5920 6805 c-19 -22 -8 -25 13 -3 9 10 13 18 8 18 -5 0 -14 -7 -21
-15z"/>
<path d="M5957 6781 c-4 -18 -10 -22 -24 -17 -14 6 -16 5 -5 -5 10 -11 15 -10
28 3 9 9 14 22 12 29 -3 8 -7 4 -11 -10z"/>
<path d="M6671 6693 c7 -12 15 -20 18 -17 3 2 -3 12 -13 22 -17 16 -18 16 -5
-5z"/>
<path d="M6511 6665 c-74 -84 -43 -169 54 -151 45 9 125 81 125 112 0 12 -6 7
-19 -16 -19 -37 -69 -77 -108 -86 -87 -22 -111 62 -42 141 17 19 29 35 26 35
-3 0 -19 -16 -36 -35z"/>
<path d="M6587 6670 c3 -11 -1 -28 -8 -38 -13 -15 -12 -16 4 -3 18 14 23 46 8
55 -5 4 -7 -3 -4 -14z"/>
<path d="M6809 6478 c7 -10 11 -25 7 -33 -7 -20 -43 -19 -55 3 -6 9 -11 12
-11 6 0 -21 29 -36 55 -30 29 8 33 37 8 57 -16 13 -17 12 -4 -3z"/>
<path d="M6248 6273 c7 -3 16 -2 19 1 4 3 -2 6 -13 5 -11 0 -14 -3 -6 -6z"/>
<path d="M6300 6273 c26 -10 50 -35 50 -53 0 -34 -38 -55 -102 -55 -78 0 -94
18 -58 67 21 30 21 31 2 14 -55 -48 -30 -96 52 -96 65 0 116 29 116 65 0 29
-32 65 -57 64 -14 0 -15 -2 -3 -6z"/>
<path d="M6043 6083 c9 -2 25 -2 35 0 9 3 1 5 -18 5 -19 0 -27 -2 -17 -5z"/>
<path d="M6113 6062 c42 -46 0 -114 -71 -116 -22 0 -47 5 -56 13 -20 17 -21
59 0 91 l16 25 -21 -24 c-66 -75 27 -156 116 -101 48 29 58 108 16 124 -16 6
-16 6 0 -12z"/>
<path d="M6056 6057 c3 -10 9 -15 12 -12 3 3 0 11 -7 18 -10 9 -11 8 -5 -6z"/>
<path d="M5455 5791 c92 -16 119 -57 84 -127 -38 -79 -145 -119 -200 -76 -14
12 -25 35 -29 63 l-7 44 -2 -39 c-3 -108 133 -132 221 -39 81 85 44 185 -67
182 l-40 -2 40 -6z"/>
<path d="M5344 5748 l-29 -33 33 29 c30 28 37 36 29 36 -2 0 -16 -15 -33 -32z"/>
<path d="M5353 5681 c2 -8 11 -19 20 -25 13 -8 22 -5 39 14 19 20 19 21 2 7
-26 -22 -40 -22 -54 1 -7 10 -10 11 -7 3z"/>
<path d="M4013 6193 c9 -2 23 -2 30 0 6 3 -1 5 -18 5 -16 0 -22 -2 -12 -5z"/>
<path d="M4088 6162 c15 -15 29 -26 31 -25 6 4 -41 53 -50 53 -4 0 4 -13 19
-28z"/>
<path d="M3971 6153 c0 -13 8 -32 19 -43 21 -21 67 -37 77 -26 4 3 -3 6 -14 6
-28 0 -71 35 -76 63 l-4 22 -2 -22z"/>
<path d="M3910 6127 c11 -15 11 -20 -4 -35 -13 -14 -20 -14 -36 -4 -11 7 -20
8 -20 3 0 -13 30 -22 50 -16 27 9 33 36 13 54 -16 15 -16 15 -3 -2z"/>
<path d="M4100 6090 c-9 -6 -10 -10 -3 -10 6 0 15 5 18 10 8 12 4 12 -15 0z"/>
<path d="M4590 5895 c0 -5 5 -17 10 -25 5 -8 10 -10 10 -5 0 6 -5 17 -10 25
-5 8 -10 11 -10 5z"/>
<path d="M4470 5852 c0 -21 47 -62 72 -62 31 0 68 27 67 48 0 13 -2 12 -9 -5
-18 -44 -89 -42 -114 5 -9 15 -15 21 -16 14z"/>
<path d="M4360 5751 c0 -10 19 -25 25 -20 1 2 -3 10 -11 17 -8 7 -14 8 -14 3z"/>
<path d="M4410 5740 c-9 -6 -10 -10 -3 -10 6 0 15 5 18 10 8 12 4 12 -15 0z"/>
<path d="M2960 5610 c0 -5 5 -10 11 -10 5 0 7 5 4 10 -3 6 -8 10 -11 10 -2 0
-4 -4 -4 -10z"/>
<path d="M3500 5577 c17 -9 26 -22 28 -44 3 -26 -3 -36 -32 -58 -19 -14 -50
-28 -69 -32 -29 -4 -37 -1 -55 22 -12 15 -22 23 -22 16 0 -18 38 -51 59 -51
57 0 131 57 131 100 0 28 -27 60 -51 60 -8 0 -3 -6 11 -13z"/>
<path d="M3021 5117 c-13 -21 -12 -21 5 -5 10 10 16 20 13 22 -3 3 -11 -5 -18
-17z"/>
<path d="M2942 5115 c2 -14 12 -21 33 -22 18 -1 22 1 10 4 -11 2 -26 12 -33
21 -13 16 -13 15 -10 -3z"/>
<path d="M3457 5049 c7 -7 15 -10 18 -7 3 3 -2 9 -12 12 -14 6 -15 5 -6 -5z"/>
<path d="M7308 5793 c7 -3 16 -2 19 1 4 3 -2 6 -13 5 -11 0 -14 -3 -6 -6z"/>
<path d="M7256 5771 c-24 -26 -17 -70 15 -93 14 -11 50 -22 81 -25 52 -5 57
-4 72 19 10 15 14 33 10 44 -10 29 -56 74 -73 74 -10 -1 -5 -7 11 -16 66 -35
65 -114 0 -114 -31 0 -91 21 -107 36 -22 22 -19 60 7 78 12 9 18 16 12 16 -6
0 -19 -9 -28 -19z"/>
<path d="M7082 5420 c-38 -36 -28 -101 19 -125 96 -50 183 36 113 112 l-26 28
21 -29 c28 -38 27 -80 -1 -100 -55 -39 -138 -3 -138 59 0 24 7 39 26 54 15 12
22 21 17 21 -5 0 -19 -9 -31 -20z"/>
<path d="M6742 5231 c56 -8 88 -34 88 -72 0 -53 -76 -62 -148 -19 -38 23 -41
52 -10 74 12 9 18 16 12 16 -23 0 -46 -39 -40 -64 12 -49 124 -83 171 -52 60
40 5 127 -78 125 l-42 -2 47 -6z"/>
<path d="M6448 5123 c7 -3 16 -2 19 1 4 3 -2 6 -13 5 -11 0 -14 -3 -6 -6z"/>
<path d="M6400 5099 c-7 -11 -9 -23 -6 -27 3 -3 6 0 6 6 0 6 7 18 16 26 8 9
11 16 5 16 -6 0 -15 -9 -21 -21z"/>
<path d="M6506 5097 c3 -10 9 -15 12 -12 3 3 0 11 -7 18 -10 9 -11 8 -5 -6z"/>
<path d="M6405 5048 c4 -9 20 -21 37 -27 25 -9 36 -8 55 4 12 9 23 21 23 28 0
6 -5 4 -11 -5 -13 -23 -66 -23 -91 -1 -17 15 -18 15 -13 1z"/>
<path d="M3870 5293 c8 -3 22 -11 30 -17 13 -10 13 -9 1 7 -7 9 -21 17 -30 16
-13 0 -14 -1 -1 -6z"/>
<path d="M3825 5207 c11 -28 45 -32 69 -7 l21 22 -28 -17 c-26 -17 -28 -17
-48 1 -17 15 -19 16 -14 1z"/>
<path d="M4240 5022 c0 -17 38 -24 57 -12 16 9 15 10 -5 5 -13 -4 -29 -1 -37
5 -10 8 -15 9 -15 2z"/>
<path d="M4919 4990 l-24 -20 31 17 c26 14 36 15 58 5 57 -26 57 -104 0 -118
-34 -9 -77 23 -85 62 l-7 29 -1 -28 c-1 -35 39 -77 74 -77 31 0 75 41 75 70 0
27 -52 80 -78 80 -11 0 -30 -9 -43 -20z"/>
<path d="M4930 4966 c0 -2 8 -10 18 -17 15 -13 16 -12 3 4 -13 16 -21 21 -21
13z"/>
<path d="M5088 4118 c5 -5 16 -8 23 -6 8 3 3 7 -10 11 -17 4 -21 3 -13 -5z"/>
<path d="M3925 3826 c10 -14 19 -26 22 -26 7 0 -17 39 -28 46 -6 3 -3 -5 6
-20z"/>
<path d="M3698 3723 c7 -3 16 -2 19 1 4 3 -2 6 -13 5 -11 0 -14 -3 -6 -6z"/>
<path d="M3573 3713 c20 -2 54 -2 75 0 20 2 3 4 -38 4 -41 0 -58 -2 -37 -4z"/>
<path d="M6785 3644 l-70 -13 63 5 c35 3 73 9 85 14 29 12 6 10 -78 -6z"/>
<path d="M6451 3624 c0 -11 3 -14 6 -6 3 7 2 16 -1 19 -3 4 -6 -2 -5 -13z"/>
<path d="M6441 3584 c0 -11 3 -14 6 -6 3 7 2 16 -1 19 -3 4 -6 -2 -5 -13z"/>
<path d="M6429 3515 c-5 -50 -4 -63 7 -53 3 3 4 28 2 54 l-3 49 -6 -50z"/>
<path d="M3638 3473 c7 -3 16 -2 19 1 4 3 -2 6 -13 5 -11 0 -14 -3 -6 -6z"/>
<path d="M3728 3463 c12 -2 32 -2 45 0 12 2 2 4 -23 4 -25 0 -35 -2 -22 -4z"/>
<path d="M5197 3449 c7 -7 15 -10 18 -7 3 3 -2 9 -12 12 -14 6 -15 5 -6 -5z"/>
<path d="M4273 3385 c0 -27 2 -38 4 -22 2 15 2 37 0 50 -2 12 -4 0 -4 -28z"/>
<path d="M6212 3280 c0 -19 2 -27 5 -17 2 9 2 25 0 35 -3 9 -5 1 -5 -18z"/>
<path d="M4058 3233 c23 -2 61 -2 85 0 23 2 4 4 -43 4 -47 0 -66 -2 -42 -4z"/>
<path d="M6221 3204 c0 -11 3 -14 6 -6 3 7 2 16 -1 19 -3 4 -6 -2 -5 -13z"/>
<path d="M6680 3170 c-9 -6 -10 -10 -3 -10 6 0 15 5 18 10 8 12 4 12 -15 0z"/>
<path d="M6240 3145 c0 -5 5 -17 10 -25 5 -8 10 -10 10 -5 0 6 -5 17 -10 25
-5 8 -10 11 -10 5z"/>
<path d="M6508 3103 c7 -3 16 -2 19 1 4 3 -2 6 -13 5 -11 0 -14 -3 -6 -6z"/>
<path d="M6458 3093 c7 -3 16 -2 19 1 4 3 -2 6 -13 5 -11 0 -14 -3 -6 -6z"/>
<path d="M6353 3083 c15 -2 39 -2 55 0 15 2 2 4 -28 4 -30 0 -43 -2 -27 -4z"/>
<path d="M2508 3043 c12 -2 30 -2 40 0 9 3 -1 5 -23 4 -22 0 -30 -2 -17 -4z"/>
<path d="M7458 2973 c7 -3 16 -2 19 1 4 3 -2 6 -13 5 -11 0 -14 -3 -6 -6z"/>
<path d="M7408 2963 c6 -2 18 -2 25 0 6 3 1 5 -13 5 -14 0 -19 -2 -12 -5z"/>
<path d="M3546 2225 c-9 -26 -7 -32 5 -12 6 10 9 21 6 23 -2 3 -7 -2 -11 -11z"/>
<path d="M6971 2080 c0 -8 4 -24 9 -35 5 -13 9 -14 9 -5 0 8 -4 24 -9 35 -5
13 -9 14 -9 5z"/>
<path d="M1899 2013 c-13 -16 -12 -17 4 -4 9 7 17 15 17 17 0 8 -8 3 -21 -13z"/>
<path d="M7930 1760 c6 -11 13 -20 16 -20 2 0 0 9 -6 20 -6 11 -13 20 -16 20
-2 0 0 -9 6 -20z"/>
<path d="M6225 1530 c10 -11 20 -20 23 -20 3 0 -3 9 -13 20 -10 11 -20 20 -23
20 -3 0 3 -9 13 -20z"/>
<path d="M4442 1515 c0 -16 2 -22 5 -12 2 9 2 23 0 30 -3 6 -5 -1 -5 -18z"/>
<path d="M6041 1444 c0 -11 3 -14 6 -6 3 7 2 16 -1 19 -3 4 -6 -2 -5 -13z"/>
<path d="M6162 1360 c0 -14 2 -19 5 -12 2 6 2 18 0 25 -3 6 -5 1 -5 -13z"/>
</g>
</svg>
