<?xml version="1.0" standalone="no"?>
<!DOCTYPE svg PUBLIC "-//W3C//DTD SVG 20010904//EN"
 "http://www.w3.org/TR/2001/REC-SVG-20010904/DTD/svg10.dtd">
<svg version="1.0" xmlns="http://www.w3.org/2000/svg"
 width="1024.000000pt" height="1024.000000pt" viewBox="0 0 1024.000000 1024.000000"
 preserveAspectRatio="xMidYMid meet">
<metadata>
Created by potrace 1.16, written by Peter Selinger 2001-2019
</metadata>
<g transform="translate(0.000000,1024.000000) scale(0.100000,-0.100000)"
fill="#000000" stroke="none">
<path d="M4844 7470 c-17 -11 -37 -31 -44 -45 -15 -29 -25 -32 -34 -10 -9 24
-33 17 -46 -14 -6 -17 -10 -58 -9 -94 l4 -64 -49 -54 c-84 -93 -148 -266 -130
-355 5 -27 1 -31 -62 -63 -84 -44 -227 -154 -277 -215 -65 -79 -114 -173 -153
-295 -21 -64 -47 -125 -59 -137 -12 -12 -46 -29 -76 -39 -63 -21 -92 -43 -86
-66 3 -11 -5 -22 -21 -30 -59 -32 -120 -150 -93 -182 7 -10 7 -24 0 -53 -24
-84 14 -254 55 -254 8 0 26 -24 39 -54 48 -105 205 -246 374 -337 39 -21 63
-40 63 -51 0 -9 -33 -50 -72 -90 -40 -40 -99 -107 -131 -148 l-59 -75 -73 36
c-237 115 -510 85 -683 -76 -74 -68 -117 -141 -142 -239 -24 -95 -26 -190 -4
-293 8 -41 12 -83 8 -92 -4 -9 -8 -49 -9 -89 -3 -59 1 -84 20 -126 27 -61 75
-106 113 -106 22 -1 35 -13 70 -64 52 -77 164 -193 263 -272 41 -32 75 -59 77
-60 2 -1 -11 -25 -29 -53 -37 -61 -78 -174 -79 -215 0 -44 -9 -27 -45 81 -50
153 -172 397 -182 366 -2 -6 16 -131 41 -278 26 -146 46 -272 46 -278 0 -7
-22 22 -48 63 -60 93 -135 180 -210 243 -57 48 -110 82 -118 75 -2 -3 25 -48
61 -102 77 -118 146 -255 186 -373 16 -48 29 -89 29 -92 0 -2 -30 25 -67 61
-82 78 -171 139 -268 184 -70 32 -184 68 -192 60 -2 -2 32 -34 76 -70 94 -78
196 -186 257 -272 47 -65 134 -222 134 -241 0 -8 -14 -6 -43 7 -66 29 -167 42
-239 30 -96 -15 -98 -28 -8 -45 55 -11 171 -69 215 -108 l40 -35 -45 -12
c-386 -104 -590 -211 -590 -312 0 -129 254 -206 803 -243 130 -9 243 -17 250
-20 6 -2 26 -6 42 -10 l30 -7 -28 -14 c-38 -20 -34 -63 6 -82 63 -30 377 -72
707 -94 261 -17 1213 -17 1455 0 313 23 483 47 551 80 63 30 54 65 -22 88 -29
10 -51 21 -49 24 5 9 186 25 430 41 224 13 361 33 523 75 264 67 412 148 443
241 29 89 -68 180 -253 239 -32 10 -58 21 -58 25 0 3 21 25 46 49 50 46 128
85 219 110 56 16 58 18 36 29 -34 19 -129 30 -183 21 -27 -4 -48 -3 -48 2 0
15 93 100 155 141 l60 39 -61 -5 c-40 -3 -81 -15 -123 -37 -35 -17 -65 -29
-68 -27 -6 7 32 81 70 137 17 25 62 78 101 117 51 54 64 73 50 73 -31 0 -114
-43 -179 -93 -33 -25 -61 -44 -63 -42 -7 7 62 165 105 238 25 43 43 80 40 83
-10 11 -133 -104 -190 -177 -57 -73 -147 -236 -147 -267 0 -31 -15 1 -26 56
-11 55 -11 58 16 92 38 48 72 118 64 131 -3 6 -18 8 -31 4 -24 -6 -22 -2 17
42 85 96 158 244 185 374 17 80 20 246 5 269 -11 16 -18 11 -45 -35 -7 -12 -9
9 -6 70 6 158 -17 258 -138 593 -23 62 -41 116 -41 121 0 4 37 -5 83 -21 97
-33 191 -37 282 -12 33 9 89 17 125 18 130 4 308 128 390 273 21 37 42 63 52
63 45 0 143 166 179 300 27 103 35 257 17 341 -14 64 -13 66 4 55 15 -9 21 -8
29 4 16 23 2 158 -27 257 -48 169 -116 285 -243 416 l-75 78 62 -32 c34 -18
65 -30 68 -26 23 23 -128 193 -236 267 -165 112 -436 210 -580 210 -22 0 -40
5 -40 10 0 6 14 10 30 10 38 0 39 15 2 34 -97 50 -384 71 -563 41 -120 -20
-278 -69 -370 -115 -81 -42 -187 -111 -218 -144 -40 -43 -44 -29 -6 25 60 88
46 96 -66 37 -77 -40 -173 -122 -239 -203 l-54 -68 -13 30 c-27 68 -26 76 17
106 52 37 116 122 141 186 37 98 15 313 -41 408 l-20 33 39 35 c43 39 76 98
67 121 -7 18 -36 18 -64 -2 l-22 -15 0 68 c0 76 -9 97 -36 91 -13 -2 -26 -23
-41 -63 -12 -33 -22 -52 -22 -43 -1 25 -55 83 -69 74 -16 -10 -15 -88 3 -159
l13 -58 -58 -72 c-54 -67 -83 -93 -242 -221 l-57 -45 -63 29 c-91 43 -208 70
-299 70 -91 0 -91 0 -135 115 -17 46 -28 98 -31 151 l-6 82 57 57 c78 77 72
119 -12 91 -23 -8 -23 -7 -8 23 9 16 16 41 16 56 0 31 -22 33 -66 5z m11 -80
c-19 -38 -35 -74 -35 -80 0 -5 21 6 46 25 25 19 53 35 61 35 18 0 11 -10 -56
-82 -31 -34 -36 -45 -39 -104 -5 -82 11 -160 48 -236 l28 -58 -29 0 c-41 0
-172 -28 -243 -51 -32 -11 -60 -18 -63 -15 -3 2 1 40 8 83 17 106 73 215 153
299 51 53 58 64 38 59 -16 -4 -28 -1 -33 7 -10 15 -11 73 -2 106 9 35 23 7 24
-48 0 -49 -2 -53 37 43 15 37 63 87 83 87 5 0 -7 -31 -26 -70z m1023 -103 c-3
-35 -13 -78 -22 -96 -23 -43 -13 -51 22 -19 44 42 82 63 82 46 0 -21 -90 -118
-110 -118 -22 0 -55 -39 -69 -83 -6 -18 -19 -90 -30 -161 -21 -139 -65 -251
-107 -271 l-22 -11 20 -24 c58 -72 108 -216 142 -406 22 -124 40 -196 60 -245
6 -13 -1 -15 -47 -11 -30 2 -63 -1 -73 -7 -15 -8 -8 -10 36 -11 60 0 134 -30
185 -74 l30 -26 -30 7 -30 6 34 -38 c43 -50 78 -126 86 -190 l6 -50 -26 48
c-31 58 -40 56 -24 -5 9 -34 10 -62 2 -110 -11 -64 -49 -168 -62 -168 -4 0 -6
17 -4 38 l3 37 -14 -30 c-42 -90 -182 -197 -330 -253 -144 -54 -293 -81 -543
-96 l-83 -5 0 37 c0 58 -19 77 -77 76 -49 -2 -141 -37 -194 -74 -24 -18 -34
-20 -62 -11 -17 5 -54 13 -81 17 -43 6 -59 16 -122 74 -40 37 -84 70 -98 74
-27 7 -66 -8 -66 -24 0 -20 -28 -8 -118 50 -115 74 -256 209 -304 291 -21 34
-43 87 -50 118 -10 48 -13 51 -16 26 -6 -50 -20 -50 -27 0 -11 72 0 158 29
221 32 70 32 70 0 49 l-26 -17 18 32 c21 35 70 77 124 106 26 13 31 19 18 22
-30 6 -20 18 25 31 23 7 55 25 71 39 l29 27 -6 -57 c-4 -44 -1 -65 14 -96 19
-38 93 -101 105 -90 3 3 -11 15 -30 27 -52 32 -76 78 -76 143 0 150 127 440
212 484 29 15 86 18 104 6 6 -4 20 -23 30 -42 16 -30 19 -56 18 -195 0 -170
-20 -293 -63 -390 -24 -54 -19 -60 7 -7 40 80 82 293 82 417 0 76 -22 176 -46
213 -8 13 -29 31 -46 42 l-30 18 58 47 c81 63 239 140 359 172 90 25 116 28
255 27 126 -1 170 -5 235 -23 96 -26 212 -79 268 -123 35 -28 38 -29 24 -8
-10 14 -33 36 -52 50 -19 14 -35 28 -35 32 0 4 20 19 45 34 119 69 224 173
279 275 25 45 26 51 16 116 -6 37 -14 78 -17 91 -3 12 -1 22 5 22 10 0 34 -56
50 -120 l9 -35 7 30 c39 162 73 217 64 102z m13 -300 c20 -59 24 -93 24 -187
0 -104 -3 -121 -27 -172 -26 -56 -104 -150 -140 -169 -14 -8 -22 -3 -38 23
-26 43 -26 45 14 58 70 23 146 126 145 195 0 27 -2 25 -14 -15 -19 -61 -67
-115 -127 -146 -27 -14 -52 -23 -55 -21 -2 3 11 26 30 51 50 64 76 142 88 259
24 236 52 271 100 124z m1332 -247 c28 -7 29 -8 7 -9 -51 -2 -197 -43 -262
-73 -76 -34 -94 -59 -22 -28 25 11 78 25 116 32 185 30 544 -63 771 -201 79
-48 232 -169 224 -177 -2 -2 -33 9 -68 25 -64 29 -188 61 -231 61 -34 -1 -3
-16 50 -25 31 -5 63 -23 115 -64 157 -125 269 -282 344 -481 23 -61 65 -231
59 -237 -2 -2 -26 35 -54 81 -49 79 -139 183 -149 172 -3 -3 7 -20 21 -37 35
-41 80 -130 100 -198 47 -158 41 -357 -15 -526 -44 -130 -121 -259 -89 -148 6
21 13 83 17 138 6 103 -6 175 -42 261 -21 52 -28 38 -8 -16 12 -32 16 -76 16
-150 -2 -198 -63 -350 -193 -480 -44 -44 -100 -88 -135 -106 -105 -55 -114
-52 -42 16 68 63 137 177 137 224 0 13 -12 -3 -30 -40 -56 -115 -186 -213
-330 -250 -128 -32 -328 3 -351 63 -15 40 -11 213 7 274 34 117 78 159 164
159 80 0 128 -40 151 -125 7 -23 8 -18 5 23 -3 44 -9 59 -36 87 -34 35 -106
60 -143 50 -20 -6 -20 -5 3 14 70 58 199 54 275 -8 13 -10 11 -6 -5 13 -61 70
-165 85 -266 37 -166 -78 -244 -291 -203 -554 6 -40 42 -159 80 -265 94 -263
104 -308 104 -472 -1 -166 -18 -234 -95 -367 -21 -38 -21 -37 23 11 25 26 71
96 102 155 l56 106 -6 -60 c-8 -86 -42 -217 -77 -293 -63 -142 -207 -318 -323
-397 l-40 -28 35 7 c19 3 74 26 123 51 48 24 87 41 87 36 0 -12 -120 -124
-170 -158 -71 -48 -158 -88 -253 -118 -48 -15 -87 -30 -87 -33 0 -6 174 7 198
15 13 4 14 3 6 -6 -15 -16 -135 -57 -225 -77 -93 -20 -289 -33 -289 -19 1 5 7
39 15 75 20 88 29 298 17 390 -10 71 -9 76 11 90 44 30 121 107 182 180 62 75
139 189 133 196 -2 2 -23 -21 -47 -51 -24 -30 -45 -55 -47 -55 -2 0 10 30 27
67 17 37 38 97 49 134 18 67 37 219 27 219 -3 0 -11 -26 -17 -57 -20 -97 -70
-244 -108 -317 -20 -38 -36 -78 -37 -87 0 -22 -112 -158 -154 -189 -23 -16
-32 -18 -35 -8 -2 7 -12 45 -21 83 -38 149 -104 311 -241 585 -165 331 -192
393 -309 710 -48 129 -108 278 -133 330 -26 52 -48 97 -50 101 -2 4 29 24 69
45 39 21 99 64 133 96 33 32 66 58 73 58 35 0 113 139 113 201 0 11 10 29 21
40 19 19 21 30 17 93 -3 48 -12 86 -28 116 -13 25 -23 56 -21 69 2 18 -14 40
-66 90 -78 76 -89 102 -123 299 l-19 107 32 54 c38 65 191 224 261 271 27 18
47 29 43 24 -3 -5 -26 -39 -51 -77 -50 -75 -101 -176 -111 -222 -6 -25 -1 -21
23 20 35 60 164 185 245 238 117 78 322 159 467 186 151 28 407 33 503 11z
m-2809 -1699 c56 -56 59 -62 48 -86 -11 -23 -16 -25 -49 -20 l-38 5 33 -17
c17 -9 32 -19 32 -23 0 -3 -35 -11 -77 -17 -43 -7 -86 -15 -95 -18 -22 -9 -24
18 -3 55 9 18 12 45 8 92 -5 53 -2 73 11 93 16 24 18 24 44 11 15 -8 54 -42
86 -75z m514 -34 c2 -16 -4 -49 -12 -74 -10 -28 -16 -81 -16 -132 0 -47 -4
-92 -8 -98 -5 -9 -26 5 -68 45 -33 32 -90 72 -125 90 -48 24 -58 32 -39 32 14
0 36 3 48 7 32 8 9 23 -35 23 -43 0 -42 12 5 48 72 57 155 92 212 89 30 -2 35
-6 38 -30z m720 -79 c22 -46 79 -193 127 -328 112 -314 148 -403 244 -608 43
-92 113 -239 155 -328 137 -290 187 -487 186 -734 0 -246 -56 -397 -204 -558
-107 -114 -237 -183 -416 -216 -104 -20 -255 -20 -357 -1 -105 20 -230 82
-281 140 -105 119 -164 331 -132 470 5 22 7 41 5 43 -2 2 -15 -18 -29 -45
l-25 -48 -1 43 c0 47 40 177 68 220 16 25 16 26 -1 19 -25 -10 33 99 85 158
22 25 37 45 33 45 -3 0 -27 -14 -53 -32 l-46 -32 21 30 c80 111 314 281 462
335 35 12 59 25 54 26 -18 6 -158 -44 -236 -84 -40 -21 -75 -39 -78 -41 -3 -1
-9 41 -13 95 -3 54 -13 123 -21 153 -8 30 -15 56 -15 58 0 1 30 2 68 2 117 0
230 36 300 95 16 14 39 25 50 25 28 0 99 81 129 147 30 64 51 190 38 219 -7
15 -10 9 -13 -26 -4 -67 -38 -161 -82 -229 -22 -34 -42 -61 -45 -61 -3 0 -2
12 1 28 6 24 3 22 -35 -20 -87 -98 -260 -149 -433 -128 -108 13 -265 68 -259
90 17 64 15 66 -17 28 -48 -54 -120 -81 -204 -76 -44 2 -73 9 -83 19 -14 14
-11 17 38 28 30 6 63 19 73 27 18 15 18 15 -1 9 -11 -4 -50 -9 -86 -12 -73 -6
-85 1 -75 43 7 27 72 63 114 64 12 0 22 5 22 10 0 14 -18 13 -75 -5 -27 -8
-50 -13 -52 -12 -16 16 104 97 144 97 6 0 24 5 39 10 l27 11 -28 29 -29 30 33
0 c45 0 127 -37 146 -67 22 -33 30 -22 11 15 l-15 29 93 94 c75 77 101 111
134 179 23 47 44 105 47 130 3 25 2 38 -2 30 -61 -139 -65 -146 -73 -120 -20
72 -21 80 -5 74 18 -7 18 -2 5 89 -6 37 -21 94 -34 126 l-24 60 41 6 c114 19
267 81 375 152 45 30 119 59 158 62 7 1 30 -36 52 -81z m-1422 -5 c-9 -26 -16
-54 -16 -63 0 -10 -17 -25 -41 -36 -23 -10 -66 -35 -95 -56 -30 -20 -54 -35
-54 -31 0 3 21 31 47 62 107 127 168 191 171 181 2 -6 -3 -31 -12 -57z m383
38 c11 -7 11 -15 0 -45 l-13 -37 -61 7 c-33 4 -61 8 -63 9 -2 2 4 19 12 39 14
34 17 36 63 36 26 0 54 -4 62 -9z m694 -47 c-92 -45 -271 -94 -342 -94 l-34 0
6 41 c3 23 9 45 14 50 4 4 95 15 202 23 107 9 196 18 199 21 3 3 15 5 26 4 12
0 -20 -20 -71 -45z m-748 -89 c95 -20 167 -58 229 -119 97 -98 155 -247 156
-401 0 -68 -1 -70 -41 -111 l-40 -41 -41 14 c-57 19 -132 14 -136 -10 -2 -10
3 -26 12 -36 15 -17 12 -19 -44 -34 -71 -20 -125 -68 -133 -119 -3 -18 -9 -45
-12 -60 -6 -22 0 -34 39 -76 26 -28 60 -55 76 -62 31 -13 142 -10 174 5 15 6
12 -3 -14 -41 -62 -91 -164 -206 -265 -297 -132 -119 -379 -317 -395 -317 -20
0 -282 154 -389 228 -188 130 -323 256 -417 388 -54 75 -68 115 -52 150 9 18
8 31 -2 52 -7 15 -12 37 -11 50 3 23 -39 71 -88 103 -44 28 -63 204 -36 332
38 181 172 313 367 363 123 32 321 2 457 -70 l43 -23 -53 -46 c-93 -82 -25
-51 99 45 160 123 343 170 517 133z m457 -88 c32 -81 52 -167 40 -167 -5 0
-14 12 -21 26 -19 43 -20 23 -1 -51 9 -38 20 -93 24 -121 6 -46 4 -54 -26 -93
l-33 -42 -7 85 c-7 92 -16 129 -55 218 -25 55 -25 59 -9 92 9 19 16 48 16 65
0 27 3 31 28 31 23 0 30 -7 44 -43z m-1848 -687 c24 -16 46 -37 50 -46 7 -19
-10 -44 -31 -44 -26 0 -71 29 -78 51 -7 21 1 69 11 69 3 0 25 -13 48 -30z m18
-107 c47 -5 63 -20 52 -47 -14 -37 -112 -22 -128 19 -12 31 -7 48 12 40 9 -4
38 -10 64 -12z m46 -116 c-4 -31 -39 -33 -67 -3 l-23 24 47 0 c42 0 46 -2 43
-21z m1711 -53 c29 -14 83 -32 120 -41 36 -9 71 -17 77 -19 18 -4 46 -132 51
-236 l6 -96 -96 -92 c-62 -59 -105 -109 -121 -143 -29 -58 -33 -82 -12 -74 9
4 0 -24 -24 -74 -21 -45 -44 -106 -51 -136 -15 -74 -8 -191 12 -207 9 -7 19
-43 27 -99 14 -108 60 -210 129 -287 l48 -53 -127 7 c-391 22 -697 131 -865
309 -142 150 -234 374 -245 600 -2 37 -1 67 3 67 7 0 140 -72 199 -109 19 -11
41 -21 49 -21 15 0 216 150 363 271 53 44 139 124 191 178 89 93 197 240 197
268 0 18 9 17 69 -13z m-1506 -574 c19 -52 43 -130 53 -173 12 -52 25 -82 36
-88 14 -8 18 -22 18 -67 0 -31 5 -77 11 -102 16 -72 74 -183 125 -239 26 -28
45 -53 43 -55 -2 -1 -65 -13 -139 -25 -74 -12 -187 -34 -251 -48 l-116 -25
-57 46 c-63 51 -97 70 -170 97 l-51 18 60 0 c69 1 141 -16 203 -48 24 -12 46
-20 49 -17 8 7 -22 84 -63 166 -57 116 -210 302 -318 388 -22 17 -38 34 -35
36 9 9 185 -82 249 -129 76 -57 153 -132 199 -195 l33 -45 -7 50 c-16 117
-101 326 -196 482 -21 35 -34 63 -30 63 5 0 43 -36 85 -80 82 -86 170 -213
212 -305 15 -31 27 -55 28 -53 8 10 -18 212 -48 379 -20 108 -36 200 -36 205
2 18 78 -144 113 -236z m313 80 l92 -55 0 -100 c0 -55 5 -127 11 -160 19 -95
43 -175 51 -170 3 2 17 -22 30 -53 41 -101 92 -175 184 -267 78 -77 107 -99
205 -149 89 -46 110 -61 97 -68 -9 -5 -98 -27 -198 -48 -101 -22 -248 -57
-328 -79 -172 -46 -214 -54 -240 -46 -48 15 2 93 85 131 35 17 43 24 27 24
-48 0 -130 -58 -158 -112 -11 -21 -22 -28 -45 -28 -42 0 -69 17 -69 42 0 29
89 114 129 123 17 3 34 11 37 17 11 17 -57 -1 -103 -28 -24 -14 -54 -41 -67
-60 -28 -41 -44 -29 -21 15 18 36 67 74 115 90 50 18 364 34 409 21 20 -5 70
-10 111 -9 l75 1 -64 13 c-155 34 -263 95 -370 210 -128 138 -198 361 -162
518 11 45 7 47 -19 5 -17 -28 -20 -30 -20 -12 0 49 93 299 109 292 3 -2 47
-28 97 -58z m3680 -207 c-34 -68 -77 -182 -90 -238 -7 -28 -3 -26 56 31 69 67
148 127 156 119 3 -3 -10 -22 -30 -43 -70 -73 -144 -199 -162 -274 -8 -35 -2
-35 37 -2 32 27 139 84 158 84 6 0 -11 -17 -38 -38 -60 -48 -134 -144 -121
-157 2 -2 23 3 47 11 47 16 184 16 146 0 -84 -35 -156 -78 -199 -121 -28 -27
-54 -48 -59 -47 -4 1 -74 16 -155 32 -175 36 -463 75 -677 92 -85 7 -155 15
-155 18 1 22 27 28 150 33 106 4 154 10 223 31 140 42 254 107 241 139 -3 8
12 22 36 36 22 12 61 38 86 58 26 19 50 31 54 26 12 -12 30 -108 30 -156 0
-23 5 -49 10 -57 8 -12 10 -11 10 6 0 55 81 242 143 334 29 41 125 150 134
150 2 0 -12 -30 -31 -67z m-901 -583 c418 -36 834 -116 992 -191 240 -114 168
-247 -194 -358 -193 -60 -341 -83 -693 -106 -334 -22 -427 -39 -406 -73 4 -7
38 -21 77 -33 38 -11 69 -25 69 -29 0 -13 -87 -38 -190 -55 -401 -63 -1498
-74 -2070 -19 -244 23 -447 57 -469 79 -3 4 6 16 22 27 33 24 34 43 5 62 -32
19 -64 24 -318 41 -456 31 -673 77 -756 160 -75 75 23 164 286 258 166 60 570
154 800 187 l71 10 46 -35 c25 -19 50 -35 54 -35 5 0 9 -4 9 -9 0 -5 -55 -11
-122 -13 -128 -5 -183 -18 -242 -59 -75 -51 -99 -135 -51 -177 14 -12 25 -26
25 -31 0 -16 60 -34 95 -28 22 4 50 0 72 -10 44 -18 77 -13 308 48 83 21 206
50 275 64 150 30 212 50 234 73 15 17 21 17 124 -9 157 -40 247 -50 427 -48
135 1 167 -2 198 -17 20 -10 37 -20 37 -24 0 -3 -44 -18 -97 -33 -151 -42
-223 -104 -223 -193 0 -40 4 -45 62 -94 l63 -53 70 5 c38 3 81 2 95 -2 62 -16
181 32 463 188 138 76 221 137 232 171 3 9 30 28 60 40 127 53 260 166 331
282 34 55 39 59 68 54 17 -2 90 -9 161 -15z m-1075 -391 c89 -12 271 -3 360
17 l25 6 -27 -25 c-28 -26 -283 -167 -430 -238 -90 -42 -170 -60 -182 -40 -16
26 43 106 110 148 15 10 16 12 3 12 -33 2 -106 -59 -130 -107 -13 -26 -28 -50
-34 -54 -15 -11 -83 -10 -106 2 -52 28 2 129 107 198 17 11 17 12 -6 6 -46
-12 -106 -62 -130 -108 -19 -34 -27 -42 -37 -34 -27 22 -15 69 30 113 34 34
57 47 117 65 41 12 98 30 125 40 28 10 64 17 80 15 17 -3 73 -10 125 -16z"/>
<path d="M5174 6465 c-121 -59 -211 -180 -265 -355 -19 -60 -24 -98 -24 -190
0 -129 9 -154 68 -190 49 -30 57 -24 9 7 -53 35 -66 67 -64 167 3 190 67 352
186 472 65 65 77 73 130 84 100 21 179 -4 247 -77 51 -55 66 -82 88 -162 27
-97 34 -190 23 -290 -9 -77 -13 -86 -47 -121 -43 -44 -111 -76 -193 -91 -74
-14 -83 -24 -14 -15 114 15 212 70 250 140 13 25 16 63 17 201 0 155 -2 176
-24 236 -29 82 -78 150 -133 186 -33 23 -55 28 -112 31 -64 2 -78 -1 -142 -33z"/>
<path d="M4166 6354 c-31 -21 -37 -31 -33 -51 3 -16 -5 -45 -19 -74 -15 -29
-27 -75 -31 -116 -3 -37 -11 -71 -16 -75 -11 -7 10 -45 47 -86 25 -29 107 -72
135 -72 67 0 121 328 72 437 -32 69 -88 82 -155 37z m123 -50 c28 -36 27 -56
-1 -49 -39 10 -109 -34 -136 -85 -20 -38 -23 -56 -20 -122 2 -43 2 -78 1 -78
-1 0 -10 14 -19 32 -44 85 25 283 111 318 33 14 42 11 64 -16z m-1 -146 c4
-36 -32 -58 -56 -34 -13 12 -13 20 -4 41 17 36 56 31 60 -7z"/>
<path d="M5217 6258 c-49 -13 -126 -83 -160 -145 -49 -90 -74 -268 -47 -337 9
-26 10 -26 127 -26 65 0 137 5 161 10 75 18 182 77 156 87 -9 3 -8 17 3 51 22
69 11 235 -19 278 -26 37 -73 71 -119 84 -40 12 -51 11 -102 -2z m118 -71 c23
-13 52 -43 70 -71 27 -45 30 -57 30 -135 0 -101 -15 -139 -63 -158 -31 -13
-32 -12 -23 6 23 42 31 110 20 163 -9 40 -21 63 -53 94 -41 42 -109 70 -144
60 -9 -2 -28 -8 -42 -12 -23 -6 -24 -6 -10 11 21 26 109 65 145 65 17 0 48
-10 70 -23z m-131 -133 c19 -18 20 -28 6 -55 -20 -37 -80 -18 -80 26 0 42 44
59 74 29z m-150 -247 l25 -37 -23 0 c-24 0 -36 21 -36 64 0 23 1 22 34 -27z"/>
<path d="M4425 5891 c-74 -19 -181 -104 -205 -161 -7 -18 -20 -30 -31 -30 -20
0 -81 -49 -62 -50 6 0 15 5 18 10 3 6 14 10 24 10 15 0 20 -11 25 -52 12 -87
60 -158 121 -178 26 -8 34 -19 44 -53 30 -101 77 -137 179 -137 51 0 63 4 87
28 15 15 34 41 41 58 11 27 19 32 62 38 63 8 131 53 178 117 38 53 49 57 80
34 23 -17 34 -19 34 -5 0 20 -53 60 -92 70 -49 14 -71 2 -34 -17 l27 -14 -30
-38 c-36 -45 -96 -88 -142 -101 -91 -26 -197 -2 -250 56 -33 36 -46 84 -24 84
56 0 175 108 175 158 0 63 -73 112 -181 120 -144 10 -197 -70 -123 -184 14
-22 42 -51 62 -65 31 -22 37 -33 40 -67 3 -50 -20 -67 -79 -59 -52 7 -93 39
-118 90 -57 118 16 266 155 314 102 35 234 -8 356 -114 l63 -55 -66 65 c-107
104 -236 154 -334 128z m113 -117 c37 -24 17 -33 -66 -27 -87 6 -107 17 -77
39 24 18 107 11 143 -12z m-54 -416 c5 -72 5 -76 -14 -71 -31 8 -66 49 -79 94
-7 22 -11 42 -9 43 11 8 84 21 89 17 4 -3 9 -40 13 -83z m110 22 c25 0 29 -21
11 -63 -14 -34 -19 -37 -55 -37 -21 0 -41 4 -44 8 -3 5 -8 39 -12 77 l-7 68
45 -27 c25 -14 52 -26 62 -26z"/>
<path d="M4420 5227 c0 -18 38 -53 73 -66 36 -14 137 -14 137 -1 0 6 -15 10
-34 10 -41 0 -108 23 -147 50 -21 16 -29 18 -29 7z"/>
<path d="M7244 5765 c-82 -18 -198 -67 -259 -110 -28 -19 -68 -47 -90 -62
-195 -132 -304 -278 -356 -476 -39 -147 -35 -329 10 -460 10 -29 24 -92 30
-140 13 -95 44 -213 86 -322 15 -38 30 -89 32 -113 9 -78 -30 -279 -72 -377
-13 -31 -14 -37 -2 -27 22 19 66 123 89 214 17 69 20 101 15 193 -3 60 -9 121
-14 135 -7 24 -8 23 -13 -10 -4 -31 -9 -21 -38 80 -48 169 -62 244 -62 346 0
81 18 184 46 259 5 14 4 17 -4 10 -15 -14 -51 -126 -59 -181 -11 -81 -25 -31
-31 108 -6 156 6 237 50 351 83 215 270 392 470 443 l53 14 -60 -5 c-44 -4
-56 -2 -45 5 39 27 171 89 225 106 33 10 64 21 70 26 12 10 5 10 -71 -7z"/>
<path d="M7246 5727 c-33 -10 -16 -12 125 -12 144 0 173 -3 239 -23 118 -37
207 -89 294 -172 54 -51 72 -64 56 -40 -74 107 -221 203 -366 240 -88 23 -282
26 -348 7z"/>
<path d="M6915 2136 c-82 -20 -135 -55 -135 -87 0 -90 384 -81 407 9 17 68
-135 112 -272 78z m215 -34 c19 -9 36 -24 38 -33 11 -60 -346 -81 -365 -22 -5
14 33 40 85 59 56 20 199 18 242 -4z"/>
<path d="M2993 2071 c-37 -23 -43 -55 -14 -71 26 -13 124 -13 155 1 62 29 29
80 -56 86 -41 3 -60 -1 -85 -16z m145 -23 c23 -19 -14 -38 -74 -38 -88 0 -110
19 -51 46 35 15 101 11 125 -8z"/>
<path d="M4161 1919 c-52 -10 -83 -35 -79 -63 8 -57 226 -60 262 -4 16 26 -17
55 -75 67 -28 6 -53 11 -57 10 -4 -1 -27 -5 -51 -10z m144 -31 c14 -6 24 -16
22 -22 -13 -41 -222 -47 -222 -6 0 8 11 20 25 27 32 16 141 17 175 1z"/>
</g>
</svg>
