<?xml version="1.0" standalone="no"?>
<!DOCTYPE svg PUBLIC "-//W3C//DTD SVG 20010904//EN"
 "http://www.w3.org/TR/2001/REC-SVG-20010904/DTD/svg10.dtd">
<svg version="1.0" xmlns="http://www.w3.org/2000/svg"
 width="1024.000000pt" height="1024.000000pt" viewBox="0 0 1024.000000 1024.000000"
 preserveAspectRatio="xMidYMid meet">
<metadata>
Created by potrace 1.16, written by Peter Selinger 2001-2019
</metadata>
<g transform="translate(0.000000,1024.000000) scale(0.100000,-0.100000)"
fill="#000000" stroke="none">
<path d="M6263 9281 c-43 -38 -96 -92 -118 -120 -37 -47 -110 -161 -117 -182
-2 -6 -64 50 -139 123 -90 89 -142 148 -156 179 -35 75 -69 75 -101 1 -52
-122 -72 -263 -53 -366 6 -33 9 -62 6 -65 -11 -10 -130 57 -183 103 -43 37
-57 44 -72 36 -26 -14 -31 -49 -20 -129 27 -190 132 -335 298 -414 l64 -30
-47 -29 c-58 -36 -107 -46 -141 -27 -14 7 -47 43 -75 80 -268 362 -689 459
-1093 252 -75 -39 -108 -64 -191 -147 -108 -109 -156 -182 -206 -311 -105
-270 -97 -558 27 -982 5 -19 -5 -27 -93 -72 -231 -119 -371 -298 -390 -498
l-6 -62 -66 -22 c-153 -50 -294 -143 -384 -254 -115 -142 -163 -331 -123 -485
8 -30 14 -56 13 -56 -1 -1 -36 -16 -78 -33 -258 -107 -456 -312 -515 -533 -34
-131 -11 -303 57 -409 23 -36 29 -57 29 -100 0 -64 13 -116 47 -185 l25 -51
-26 -61 c-15 -34 -31 -84 -37 -112 -9 -43 -17 -55 -54 -80 -87 -60 -119 -132
-90 -206 9 -23 23 -48 31 -54 8 -7 14 -30 14 -54 0 -32 10 -58 45 -113 231
-372 436 -986 655 -1963 96 -430 96 -431 197 -533 288 -292 996 -485 1843
-504 583 -13 1031 48 1468 199 217 74 441 205 546 319 93 100 103 128 181 499
207 977 380 1549 596 1969 38 74 69 145 69 157 0 13 11 40 25 60 57 84 18 169
-113 244 -7 4 -20 38 -29 76 -9 38 -24 88 -34 112 l-19 43 50 61 c58 73 122
197 147 288 27 100 24 348 -5 455 -26 95 -86 223 -147 315 -76 115 -271 283
-381 328 l-29 12 4 120 c5 193 -38 329 -151 477 -94 121 -267 258 -411 323
l-66 30 45 76 c176 297 241 510 231 754 -7 171 -45 303 -124 428 -29 47 -31
53 -16 58 95 29 193 111 238 199 26 52 27 58 12 72 -14 14 -24 15 -69 5 -47
-10 -117 -16 -156 -13 -7 1 15 30 50 65 113 113 178 255 181 395 2 73 1 76
-21 79 -14 2 -33 -5 -45 -16 -54 -49 -160 -85 -307 -102 -115 -14 -211 -35
-249 -55 l-28 -14 -5 102 c-4 77 -14 135 -43 237 -48 174 -51 180 -74 180 -11
0 -55 -31 -98 -69z m139 -283 c23 -152 -15 -264 -132 -385 -88 -92 -105 -95
-97 -15 4 32 24 128 46 213 21 85 38 155 36 157 -7 8 -77 -212 -96 -305 -13
-59 -24 -110 -26 -112 -8 -10 -16 14 -39 116 -48 206 -3 344 165 513 l75 75
28 -90 c16 -50 34 -125 40 -167z m-555 48 c101 -95 149 -162 182 -250 32 -86
65 -246 54 -257 -6 -6 -41 23 -94 78 -87 90 -133 151 -181 238 -38 68 -35 49
3 -28 43 -85 103 -172 162 -234 28 -29 46 -53 42 -53 -29 0 -182 88 -230 131
-128 117 -176 321 -120 507 l16 53 37 -50 c20 -27 78 -88 129 -135z m1213
-154 c0 -24 -36 -124 -63 -175 -35 -66 -120 -156 -181 -192 -58 -33 -158 -65
-208 -65 -45 -1 -228 50 -228 63 0 4 11 7 25 7 91 0 315 82 390 144 21 17 2
10 -66 -23 -52 -26 -127 -54 -165 -64 -85 -20 -279 -50 -300 -45 -23 4 84 119
158 169 116 79 154 90 431 128 43 6 104 22 135 35 66 27 72 29 72 18z m-1575
-80 c22 -11 73 -31 113 -46 61 -22 83 -37 140 -93 44 -45 92 -81 142 -107 l75
-38 -53 6 c-68 9 -215 59 -261 89 -20 13 -49 32 -66 41 -25 15 -24 12 10 -19
49 -45 180 -109 258 -126 31 -7 57 -16 57 -20 0 -4 -25 -13 -55 -20 -168 -38
-393 117 -449 310 -9 30 -16 63 -16 73 0 17 3 17 33 -5 17 -14 50 -34 72 -45z
m-538 -126 c144 -49 250 -120 338 -226 25 -30 64 -77 87 -104 56 -66 92 -86
155 -86 44 0 69 9 169 61 214 112 379 157 531 145 333 -27 602 -249 684 -563
70 -273 1 -579 -206 -908 -71 -113 -70 -112 -94 -91 -11 10 -28 16 -38 14 -27
-5 -53 -66 -53 -124 0 -50 -3 -55 -74 -137 -64 -72 -236 -221 -343 -295 -38
-27 -43 -27 -43 -2 0 11 -8 23 -17 27 -10 3 -26 15 -36 25 -41 42 -87 -8 -96
-104 l-6 -63 -75 -32 c-183 -78 -343 -97 -476 -55 -39 12 -142 56 -230 98
l-159 77 65 12 c200 39 504 212 746 425 121 106 287 289 363 400 270 393 276
777 13 897 -144 67 -308 30 -571 -129 -66 -41 -96 -53 -138 -56 -71 -6 -100
17 -191 150 -136 200 -255 276 -416 266 -96 -6 -167 -41 -240 -118 -101 -106
-140 -227 -140 -435 0 -164 22 -289 84 -490 57 -182 56 -172 28 -181 -12 -4
-29 -7 -36 -5 -22 4 -42 -20 -42 -49 0 -30 48 -103 80 -120 18 -10 23 -7 40
32 12 27 21 37 24 28 14 -43 49 -173 86 -320 23 -91 50 -180 61 -198 10 -18
19 -35 19 -37 0 -2 -19 3 -42 11 -61 21 -200 59 -289 79 -91 20 -95 24 -207
230 -176 323 -310 722 -328 984 -7 92 -7 93 13 80 31 -18 49 -6 67 47 32 93
15 142 -44 130 -36 -7 -36 -5 -15 94 70 332 313 570 650 636 104 20 252 12
342 -20z m1808 -261 c50 -8 133 -15 185 -15 l94 0 -39 -40 c-51 -52 -127 -90
-180 -90 -33 0 -47 6 -70 30 l-29 30 65 0 c45 0 60 3 49 10 -8 5 -36 10 -61
10 -55 0 -180 57 -158 71 19 12 40 11 144 -6z m-1767 -167 c68 -25 162 -112
233 -215 74 -109 96 -135 138 -160 65 -41 124 -27 273 65 171 105 264 136 386
130 139 -7 214 -55 269 -173 26 -55 28 -70 27 -170 0 -132 -17 -198 -85 -343
-62 -131 -114 -210 -232 -347 -208 -244 -455 -439 -722 -571 -263 -130 -403
-132 -472 -9 -12 22 -34 90 -48 150 -39 161 -89 338 -150 525 -97 296 -125
435 -125 615 0 193 45 327 140 425 100 103 228 130 368 78z m-980 -326 c4 -23
-25 -122 -36 -122 -3 0 -14 7 -24 17 -12 11 -18 30 -18 62 0 38 4 48 23 58 32
16 52 11 55 -15z m17 -837 c54 -153 147 -345 237 -492 39 -66 37 -70 -22 -53
-19 6 -105 22 -190 36 -164 27 -349 36 -454 21 l-59 -9 7 67 c13 132 82 253
196 342 67 53 252 156 261 145 3 -4 14 -29 24 -57z m543 -43 c17 17 42 1 42
-27 0 -14 -7 -42 -15 -62 l-15 -36 -24 22 c-48 45 -61 125 -18 102 13 -7 22
-7 30 1z m2036 -164 c7 -12 3 -25 -18 -52 -15 -20 -31 -36 -37 -36 -14 0 -11
36 6 76 15 37 31 40 49 12z m169 -94 c117 -59 216 -132 313 -229 78 -78 98
-104 137 -185 25 -52 50 -119 56 -148 27 -131 1 -305 -62 -412 -17 -30 -72
-96 -122 -145 -73 -74 -108 -100 -184 -139 -172 -89 -362 -140 -681 -183 -111
-15 -203 -18 -520 -18 -404 0 -531 9 -945 66 -134 18 -423 73 -432 83 -2 1 60
15 137 30 183 35 505 115 695 172 328 100 635 233 827 360 176 117 350 313
420 473 12 27 57 84 110 139 49 52 100 111 115 133 15 22 34 39 45 39 10 0 51
-16 91 -36z m-2831 -239 c181 -24 669 -142 823 -200 55 -20 192 -81 305 -135
277 -132 286 -135 445 -134 151 1 225 20 402 105 95 45 287 167 356 225 89 75
-4 -67 -119 -182 -89 -89 -250 -202 -383 -269 -282 -141 -805 -306 -1281 -404
-282 -58 -277 -58 -457 -5 -556 161 -831 224 -979 224 l-51 0 -19 48 c-29 72
-26 247 5 325 47 120 163 239 300 310 185 96 398 126 653 92z m2048 -161 c0
-8 10 -14 26 -14 41 0 27 -39 -26 -71 -25 -15 -49 -28 -54 -28 -14 -1 4 102
21 121 17 19 33 15 33 -8z m1460 -589 c188 -121 333 -321 391 -540 28 -107 31
-292 6 -385 -76 -282 -326 -515 -698 -654 -213 -79 -487 -140 -790 -178 -159
-19 -231 -22 -534 -22 -501 0 -718 24 -1285 144 -179 38 -344 72 -368 76 -43
7 -68 24 -34 24 44 0 433 112 1147 330 778 237 884 274 1153 406 270 132 499
303 624 466 80 104 93 125 119 190 11 29 43 92 70 140 l50 88 42 -21 c23 -12
71 -40 107 -64z m-4251 -81 c125 -18 426 -94 776 -194 138 -40 251 -74 253
-75 2 -2 -79 -1 -180 2 -535 16 -979 -72 -1281 -254 -103 -62 -233 -197 -278
-288 -17 -36 -33 -65 -35 -65 -11 0 -54 84 -68 130 -58 194 41 427 247 584
118 89 237 148 337 166 71 12 115 11 229 -6z m3887 -151 c-51 -97 -220 -257
-395 -373 -250 -167 -518 -281 -1036 -440 -1528 -469 -1464 -452 -2135 -545
-137 -19 -317 -19 -417 0 -347 66 -633 299 -633 516 0 121 131 311 288 417
390 265 1089 333 2062 202 249 -34 433 -50 678 -60 690 -28 1250 71 1532 270
66 47 75 49 56 13z m594 -1180 c61 -162 43 -338 -48 -479 -51 -77 -63 -87
-109 -82 -87 11 -141 -29 -167 -122 -20 -72 -25 -73 -146 -30 -47 16 -97 30
-111 30 -83 0 -138 -39 -185 -131 -30 -61 -34 -61 -164 -5 -154 65 -236 46
-295 -67 -16 -31 -36 -57 -43 -57 -8 0 -45 19 -83 41 -121 72 -188 85 -264 50
-39 -18 -105 -81 -140 -134 -9 -15 -25 -27 -34 -27 -9 0 -46 21 -82 46 -176
127 -261 124 -393 -10 -35 -37 -69 -66 -75 -66 -5 0 -40 27 -78 60 -153 135
-242 136 -393 5 -35 -30 -69 -55 -76 -55 -7 0 -44 31 -81 68 -77 76 -122 102
-182 102 -55 0 -92 -16 -185 -84 -44 -31 -84 -56 -91 -56 -6 0 -37 29 -69 65
-116 131 -200 141 -359 42 -79 -50 -114 -58 -124 -29 -4 9 -20 39 -36 65 -59
97 -147 110 -293 44 -45 -20 -90 -37 -101 -37 -12 0 -28 15 -42 41 -31 55 -78
107 -112 125 -43 22 -93 17 -176 -16 -105 -42 -109 -41 -129 27 -11 37 -29 70
-49 90 -30 30 -39 33 -93 33 -59 0 -61 1 -95 43 -80 100 -111 188 -110 312 1
81 28 190 57 230 13 18 17 16 86 -48 55 -51 100 -80 193 -126 136 -67 227 -94
378 -112 123 -14 206 -8 484 33 316 47 382 42 810 -53 418 -93 553 -116 855
-144 214 -20 638 -29 810 -17 l135 9 34 -26 c29 -22 45 -26 102 -26 58 0 71 3
94 25 15 14 31 34 35 45 6 16 23 23 87 33 98 15 316 70 448 112 207 67 409
174 525 279 25 22 48 40 52 41 4 0 16 -26 28 -57z m176 -275 c19 -37 5 -58
-38 -58 -35 0 -42 16 -34 75 l7 45 25 -17 c14 -9 32 -29 40 -45z m-5456 40 c0
-7 3 -29 6 -49 6 -34 4 -37 -25 -47 -25 -9 -34 -8 -46 4 -17 17 -9 41 28 82
23 25 37 28 37 10z m54 -190 c12 -29 39 -74 59 -100 21 -27 31 -48 24 -49 -35
-3 -74 4 -95 17 -30 19 -62 73 -62 102 0 26 29 82 42 82 5 0 19 -24 32 -52z
m5346 12 c17 -32 11 -55 -24 -102 -36 -47 -79 -72 -115 -66 -20 3 -20 5 13 51
19 27 45 73 57 102 19 47 25 53 40 44 10 -5 23 -18 29 -29z m-1276 11 c4 -5
-8 -21 -25 -35 -25 -21 -41 -26 -89 -26 -42 0 -64 5 -81 19 l-24 19 25 5 c20
5 95 15 177 25 6 1 14 -2 17 -7z m-3788 -225 c12 -13 25 -46 28 -73 4 -26 36
-133 71 -238 165 -492 292 -1004 405 -1635 28 -157 61 -335 73 -397 l23 -112
-29 17 c-41 24 -103 101 -131 164 -14 29 -52 175 -85 323 -156 691 -257 1059
-384 1405 -88 237 -97 260 -172 417 -36 75 -65 137 -65 138 0 1 10 0 23 -2 12
-2 54 3 92 11 86 18 124 13 151 -18z m4925 1 l56 -1 -45 -100 c-157 -353 -306
-863 -471 -1607 -138 -622 -129 -599 -244 -705 -74 -68 -93 -78 -83 -41 15 57
72 346 136 697 113 615 235 1145 345 1500 24 80 47 161 50 181 3 21 15 49 27
64 21 27 23 27 97 20 42 -4 101 -8 132 -8z m-4560 -113 c58 -29 116 -139 165
-310 53 -184 91 -343 144 -594 78 -371 113 -603 170 -1125 29 -257 52 -422 66
-468 5 -16 2 -18 -18 -12 -52 16 -220 109 -233 129 -20 30 -48 153 -95 421
-121 687 -264 1278 -420 1744 -53 158 -54 170 -10 171 9 0 47 13 85 30 80 34
104 36 146 14z m3995 -11 c-19 -59 -189 -953 -183 -959 4 -4 140 674 178 886
7 36 15 70 18 77 5 9 29 4 91 -17 46 -17 97 -30 112 -30 15 0 28 -2 28 -5 0
-3 -20 -72 -44 -153 -123 -412 -216 -839 -371 -1692 -54 -293 -90 -461 -105
-490 -10 -19 -249 -145 -258 -136 -2 2 6 57 17 123 21 129 44 318 91 747 64
585 159 1181 224 1407 36 123 104 233 156 252 32 12 51 7 46 -10z m-3516 -88
c57 -29 78 -89 144 -404 89 -419 151 -895 201 -1536 20 -251 40 -430 59 -520
8 -38 14 -71 13 -72 -5 -4 -183 50 -243 73 l-63 26 -15 71 c-21 98 -30 171
-71 537 -19 173 -44 380 -56 460 -43 304 -148 807 -230 1105 -56 205 -55 195
-33 195 11 0 44 12 74 26 113 54 171 64 220 39z m3190 -45 c52 -23 96 -44 97
-45 2 -1 -2 -17 -7 -35 -23 -81 -101 -493 -134 -705 -34 -219 -76 -561 -111
-890 -30 -281 -65 -560 -83 -645 l-18 -85 -59 -22 c-104 -37 -245 -77 -251
-70 -3 3 -1 34 5 69 17 104 30 254 51 618 37 625 88 1077 176 1560 32 176 49
224 91 267 34 33 39 35 92 31 38 -3 86 -18 151 -48z m-2696 -24 c40 -23 111
-99 134 -141 17 -34 68 -394 116 -825 55 -492 69 -645 101 -1095 14 -192 28
-380 31 -417 6 -58 4 -68 -9 -68 -19 0 -284 45 -354 60 l-52 11 -15 72 c-30
136 -40 233 -81 747 -42 518 -123 1078 -210 1442 -14 59 -25 111 -25 116 0 4
12 9 27 10 15 1 58 20 95 43 131 77 174 85 242 45z m2185 -17 c31 -16 75 -40
98 -53 24 -14 48 -26 54 -28 7 -2 2 -46 -15 -133 -69 -357 -139 -969 -166
-1440 -30 -535 -55 -796 -78 -816 -9 -8 -270 -58 -346 -66 -58 -6 -59 -6 -53
18 6 26 21 246 67 994 31 493 43 643 80 1030 38 387 33 359 78 418 94 121 162
139 281 76z m-1663 -10 c23 -11 67 -48 97 -82 l54 -62 7 -335 c7 -362 18 -625
41 -1010 8 -135 19 -366 25 -515 6 -148 15 -333 20 -409 6 -76 9 -141 6 -143
-6 -7 -340 28 -347 35 -3 4 -16 158 -28 342 -48 728 -119 1423 -194 1902 -22
140 -22 148 -5 154 9 3 45 25 78 50 39 29 62 40 64 32 3 -7 7 -58 11 -113 15
-234 98 -1065 103 -1025 1 14 -20 266 -48 560 -27 294 -50 551 -50 571 0 33 4
38 38 52 50 22 78 21 128 -4z m527 -12 c16 -7 66 -43 112 -82 l85 -70 -6 -290
c-6 -313 -10 -457 -45 -1459 l-24 -658 -173 4 c-131 2 -175 7 -181 17 -10 16
-17 124 -36 568 -8 188 -22 465 -30 615 -14 261 -31 760 -37 1068 -3 141 -2
145 18 148 12 2 50 28 85 57 105 90 165 111 232 82z m428 -252 c-16 -281 -33
-746 -28 -752 5 -5 10 68 32 512 8 160 15 338 15 398 l0 107 40 0 c47 0 102
-26 175 -81 29 -21 66 -44 83 -50 30 -10 32 -14 27 -47 -36 -262 -91 -942
-125 -1567 -24 -432 -47 -756 -55 -778 -4 -10 -26 -17 -68 -21 -77 -8 -360
-26 -363 -23 -3 3 11 402 46 1322 5 138 13 434 16 660 l7 410 80 75 c44 41 89
80 101 87 20 11 21 9 24 -25 2 -20 -1 -122 -7 -227z"/>
<path d="M4857 8557 c-21 -21 -16 -53 20 -114 33 -58 55 -56 82 6 23 55 26 83
11 111 -13 25 -86 23 -113 -3z m97 -13 c9 -25 -18 -114 -35 -114 -16 0 -49 64
-49 94 0 25 3 27 24 22 14 -3 28 -2 31 4 9 15 22 12 29 -6z"/>
<path d="M4475 8523 c-12 -12 -16 -27 -12 -55 5 -40 51 -128 67 -128 29 0 92
125 82 162 -6 25 -39 43 -55 29 -8 -6 -18 -6 -27 -1 -22 14 -36 12 -55 -7z
m79 -18 c43 32 49 -26 10 -93 l-27 -46 -18 23 c-30 36 -45 97 -29 116 11 14
15 14 29 1 14 -12 19 -12 35 -1z"/>
<path d="M5170 8370 c-6 -10 -10 -28 -10 -40 0 -27 32 -90 57 -113 19 -16 20
-16 36 1 40 44 60 138 34 160 -6 6 -33 10 -60 10 -36 0 -50 -4 -57 -18z m108
-27 c2 -12 -6 -43 -17 -69 -17 -39 -23 -44 -35 -34 -20 16 -50 96 -41 110 4 7
17 9 31 6 14 -4 24 -2 24 5 0 20 35 4 38 -18z"/>
<path d="M6080 8330 c-15 -28 -5 -115 17 -149 l15 -23 35 33 c85 83 82 141 -9
154 -41 6 -48 5 -58 -15z m46 -11 c3 -6 17 -8 30 -5 48 12 36 -50 -19 -102
-28 -26 -28 -27 -42 45 -10 51 11 94 31 62z"/>
<path d="M5655 8230 c-14 -16 -17 -30 -12 -72 5 -55 24 -108 38 -108 19 0 77
62 94 99 17 38 17 42 1 67 -14 20 -23 24 -41 20 -13 -3 -27 -2 -30 4 -10 16
-30 12 -50 -10z m50 -20 c3 -6 17 -7 31 -4 21 5 24 3 24 -18 0 -25 -53 -108
-69 -108 -5 0 -11 6 -14 14 -11 27 -19 105 -12 115 8 14 32 14 40 1z"/>
<path d="M4114 8223 c-8 -8 -14 -26 -14 -39 0 -46 57 -134 87 -134 16 0 63 95
63 128 0 47 -16 61 -71 60 -29 -1 -57 -8 -65 -15z m114 -30 c4 -26 -32 -113
-47 -113 -15 0 -61 83 -61 110 0 20 4 22 30 17 16 -4 32 -2 36 4 10 17 39 5
42 -18z"/>
<path d="M6464 8165 c-13 -20 -15 -39 -10 -88 3 -34 13 -68 21 -76 12 -12 19
-11 55 13 42 28 80 79 80 108 0 24 -30 50 -51 45 -10 -3 -23 1 -30 9 -18 22
-47 17 -65 -11z m56 -10 c7 -9 20 -15 29 -14 31 3 41 -1 41 -16 0 -39 -82
-117 -101 -98 -5 5 -10 34 -11 64 -2 75 14 98 42 64z"/>
<path d="M6742 7850 c-24 -39 -4 -170 27 -170 34 1 111 89 111 128 0 24 -36
53 -55 46 -7 -3 -16 -1 -20 5 -11 18 -49 12 -63 -9z m56 -12 c7 -7 22 -13 35
-13 17 0 21 -5 19 -25 -3 -29 -65 -96 -80 -86 -17 10 -26 104 -12 121 15 18
22 19 38 3z"/>
<path d="M6388 7679 c-23 -13 -31 -63 -21 -124 6 -34 14 -51 25 -53 22 -4 92
60 108 98 11 26 10 33 -5 50 -10 11 -26 20 -36 20 -10 0 -21 5 -24 10 -8 13
-25 12 -47 -1z m62 -34 c16 10 39 -13 33 -34 -7 -26 -79 -95 -87 -83 -3 6 -7
36 -9 67 -1 41 2 58 13 65 10 7 19 5 27 -6 6 -9 17 -13 23 -9z"/>
<path d="M4245 7670 c-4 -6 -16 -8 -26 -5 -28 9 -49 -12 -49 -50 0 -35 46
-107 79 -125 26 -13 46 14 62 86 10 46 10 56 -5 78 -17 26 -50 34 -61 16z m44
-28 c12 -22 -5 -106 -24 -122 -11 -9 -20 -3 -44 31 -42 57 -42 111 -1 89 13
-7 21 -5 30 5 16 20 27 19 39 -3z"/>
<path d="M6604 7404 c-16 -37 -12 -114 6 -143 13 -22 56 -5 101 40 53 53 51
85 -6 116 -61 33 -83 30 -101 -13z m62 1 c4 -8 17 -15 30 -15 34 0 40 -24 14
-57 -26 -33 -70 -64 -82 -57 -9 6 -11 105 -2 128 8 20 33 21 40 1z"/>
<path d="M4175 7241 c-6 -5 -21 -11 -34 -13 -56 -7 -52 -69 8 -130 50 -50 77
-50 90 0 16 55 13 118 -5 136 -17 18 -45 21 -59 7z m49 -27 c10 -25 6 -77 -7
-108 l-13 -30 -43 43 c-50 50 -54 88 -10 83 17 -1 29 3 33 13 7 20 32 19 40
-1z"/>
<path d="M6263 7078 c-18 -23 -21 -55 -11 -110 15 -85 27 -90 87 -32 60 58 72
93 42 123 -11 11 -27 18 -35 15 -8 -3 -17 -1 -21 5 -9 15 -50 14 -62 -1z m49
-20 c3 -7 18 -12 34 -13 25 0 29 -3 26 -25 -3 -26 -77 -109 -87 -98 -9 9 -18
115 -12 132 7 19 34 21 39 4z"/>
<path d="M5940 6775 c-18 -21 -30 -93 -23 -132 8 -48 41 -44 98 10 60 58 61
89 3 117 -50 24 -62 25 -78 5z m47 -20 c3 -9 15 -15 26 -13 35 5 32 -29 -6
-67 -49 -49 -67 -46 -67 11 0 66 30 111 47 69z"/>
<path d="M4536 6731 c-3 -4 -19 -11 -36 -14 -27 -6 -30 -11 -30 -42 0 -27 9
-44 43 -80 24 -25 51 -45 60 -45 33 0 51 144 21 174 -17 17 -50 21 -58 7z m42
-23 c22 -22 10 -128 -14 -128 -18 0 -76 80 -71 99 2 10 12 15 25 14 13 -2 25
4 28 12 7 18 16 19 32 3z"/>
<path d="M5534 6442 c-22 -14 -34 -52 -34 -106 0 -30 5 -58 11 -61 18 -12 53
3 92 39 32 29 38 40 35 68 -2 25 -8 34 -25 36 -12 2 -27 10 -33 18 -14 15 -29
18 -46 6z m69 -42 c29 0 19 -36 -18 -69 -53 -47 -69 -42 -63 19 3 27 11 56 18
65 12 14 15 14 30 0 9 -8 24 -15 33 -15z"/>
<path d="M4675 8089 c-57 -68 -96 -180 -94 -268 l2 -56 7 67 c13 109 45 189
101 253 17 19 27 35 21 35 -6 0 -22 -14 -37 -31z"/>
<path d="M4676 7956 c-3 -13 -9 -32 -12 -43 -5 -12 -4 -15 3 -8 15 14 34 75
24 75 -5 0 -12 -11 -15 -24z"/>
<path d="M6196 7895 c19 -46 18 -187 -2 -254 -20 -67 -12 -78 11 -14 26 75 31
190 11 251 -10 29 -22 52 -26 52 -5 0 -2 -16 6 -35z"/>
<path d="M6141 7796 c-1 -26 2 -37 9 -30 6 6 6 21 1 39 -9 30 -9 30 -10 -9z"/>
<path d="M6900 5799 c-51 -45 -108 -83 -192 -129 -40 -23 -62 -38 -48 -35 61
17 280 161 280 185 0 13 0 13 -40 -21z"/>
<path d="M3580 6448 c-83 -12 -230 -60 -300 -100 -63 -35 -160 -109 -160 -121
0 -4 21 10 48 32 57 48 230 132 327 157 56 15 106 19 255 19 102 0 212 -4 245
-8 33 -5 57 -6 54 -3 -3 3 -53 13 -110 21 -115 16 -259 18 -359 3z"/>
<path d="M7750 5262 c0 -60 -36 -185 -75 -263 -51 -102 -88 -153 -179 -248
-45 -46 -72 -79 -60 -73 37 20 159 157 207 234 62 99 107 224 114 316 3 39 3
72 -1 72 -3 0 -6 -17 -6 -38z"/>
<path d="M7510 4260 c0 -5 7 -7 15 -4 8 4 15 8 15 10 0 2 -7 4 -15 4 -8 0 -15
-4 -15 -10z"/>
<path d="M2657 4213 c-14 -14 -6 -19 23 -15 34 5 72 -16 96 -54 16 -23 16 -27
1 -41 -14 -14 -19 -14 -51 6 -20 13 -45 34 -56 48 -11 14 -20 20 -20 13 0 -19
64 -78 94 -86 30 -7 56 9 56 36 0 51 -112 124 -143 93z"/>
<path d="M3004 4071 c8 -12 46 -21 46 -11 0 8 -24 20 -41 20 -6 0 -8 -4 -5 -9z"/>
<path d="M7285 4066 c-40 -17 -58 -41 -50 -65 8 -26 35 -34 71 -21 61 24 84
69 45 90 -24 13 -29 12 -66 -4z m71 -18 c11 -17 -43 -58 -77 -58 -22 0 -29 5
-29 19 0 38 87 70 106 39z"/>
<path d="M3746 4038 c-20 -29 -20 -34 4 -58 14 -14 33 -20 63 -20 48 0 67 13
67 46 0 51 -104 76 -134 32z m114 -13 c19 -20 3 -49 -29 -53 -34 -5 -81 18
-81 39 0 39 75 48 110 14z"/>
<path d="M4238 4040 c-57 -10 -88 -36 -88 -70 0 -44 35 -62 138 -71 48 -4 114
-17 146 -28 105 -37 176 -25 176 30 0 34 -33 70 -92 100 -63 32 -210 53 -280
39z m231 -33 c82 -29 138 -80 126 -118 -11 -32 -51 -34 -149 -6 -50 15 -125
29 -166 33 -86 7 -123 25 -118 57 6 42 61 59 169 53 53 -3 115 -11 138 -19z"/>
<path d="M7560 4010 c-8 -5 -12 -11 -9 -14 3 -3 14 1 25 9 21 16 8 20 -16 5z"/>
<path d="M3490 3990 c0 -5 10 -10 23 -10 18 0 19 2 7 10 -19 13 -30 13 -30 0z"/>
<path d="M6837 3954 c-11 -11 3 -24 18 -18 8 4 12 10 9 15 -6 11 -18 12 -27 3z"/>
<path d="M4860 3940 c20 -13 40 -13 40 0 0 6 -12 10 -27 10 -22 0 -25 -2 -13
-10z"/>
<path d="M5245 3860 c3 -5 18 -10 33 -9 24 0 25 1 7 9 -28 12 -47 12 -40 0z"/>
<path d="M3396 3844 c-20 -19 -20 -24 -1 -52 18 -25 115 -57 145 -47 28 9 43
40 31 64 -23 42 -144 66 -175 35z m134 -23 c38 -28 33 -55 -12 -59 -69 -6
-147 52 -106 80 19 13 89 1 118 -21z"/>
<path d="M5889 3844 c-82 -25 -110 -72 -68 -110 19 -17 35 -19 173 -16 88 2
161 8 176 15 33 16 38 59 10 85 -45 41 -196 55 -291 26z m254 -20 c42 -20 58
-52 33 -69 -22 -17 -325 -29 -343 -14 -18 16 -16 43 5 62 50 46 227 58 305 21z"/>
<path d="M6580 3780 c0 -13 11 -13 30 0 12 8 11 10 -7 10 -13 0 -23 -4 -23
-10z"/>
<path d="M5108 3623 c12 -2 32 -2 45 0 12 2 2 4 -23 4 -25 0 -35 -2 -22 -4z"/>
<path d="M2744 3405 c6 -30 164 -575 170 -588 27 -58 -104 417 -149 538 -14
39 -23 61 -21 50z"/>
<path d="M7520 3719 c-6 -24 -25 -91 -42 -149 -56 -197 -208 -773 -204 -777 2
-3 7 4 10 14 12 40 107 386 139 508 20 72 54 199 77 284 22 84 39 156 36 158
-3 3 -10 -15 -16 -38z"/>
<path d="M3140 3423 c0 -5 18 -81 39 -169 41 -165 155 -702 186 -879 20 -108
38 -154 23 -58 -45 295 -248 1200 -248 1106z"/>
<path d="M3295 1950 c13 -87 105 -543 110 -548 3 -3 5 -1 5 4 0 29 -110 577
-117 584 -3 3 -2 -15 2 -40z"/>
<path d="M6871 2049 c-3 -34 -71 -545 -76 -569 -4 -22 -3 -22 5 -5 14 30 82
528 77 561 -2 16 -5 22 -6 13z"/>
<path d="M3670 2629 c0 -4 5 -31 10 -60 19 -100 69 -439 143 -974 4 -29 4 -28
6 5 3 87 -128 981 -150 1020 -5 8 -9 12 -9 9z"/>
<path d="M6555 3119 c-22 -95 -140 -1156 -133 -1202 2 -12 18 115 37 283 18
168 50 447 71 620 34 288 41 363 25 299z"/>
<path d="M4221 1995 c-1 -11 8 -92 18 -180 11 -88 30 -277 43 -420 12 -143 24
-245 26 -227 5 49 -25 402 -53 627 -25 195 -33 241 -34 200z"/>
<path d="M6101 3086 c0 -10 -12 -118 -26 -240 -13 -121 -29 -284 -35 -361 -6
-77 -13 -169 -17 -205 -3 -36 -3 -62 1 -59 4 4 18 127 31 275 14 148 32 335
41 416 8 81 14 157 11 170 -3 17 -5 18 -6 4z"/>
<path d="M6006 1698 c-13 -364 -15 -540 -6 -443 10 110 25 625 18 625 -3 0 -8
-82 -12 -182z"/>
<path d="M4981 2345 c-1 -252 16 -806 29 -925 8 -80 8 -77 4 40 -2 69 -9 339
-15 600 -6 261 -12 480 -14 485 -2 6 -4 -84 -4 -200z"/>
<path d="M5672 2209 c-1 -42 -8 -218 -16 -390 -20 -431 -27 -667 -16 -564 13
130 42 842 38 940 l-4 90 -2 -76z"/>
<path d="M7555 7471 c-92 -42 -125 -112 -125 -261 0 -113 29 -244 79 -354 l31
-69 61 7 c33 3 110 22 169 42 166 55 296 149 330 238 17 46 12 125 -10 162
-43 68 -153 93 -239 54 -24 -11 -45 -19 -46 -18 0 2 -9 29 -19 61 -21 71 -74
133 -124 147 -50 13 -61 13 -107 -9z m123 -41 c42 -26 69 -71 83 -140 6 -30
13 -60 15 -67 2 -9 21 -3 60 17 109 58 208 32 235 -60 23 -77 -38 -168 -165
-244 -59 -36 -201 -87 -289 -104 -44 -9 -49 -8 -62 12 -38 57 -95 279 -95 367
0 104 39 191 100 221 45 23 77 23 118 -2z"/>
<path d="M2074 6991 c-63 -38 -104 -117 -104 -199 0 -44 0 -44 -27 -36 -16 5
-62 9 -104 9 -64 0 -81 -4 -112 -25 -103 -70 -103 -210 0 -300 97 -86 328
-150 541 -150 46 0 54 3 62 24 19 52 41 183 46 284 10 187 -32 319 -121 380
-57 39 -130 44 -181 13z m157 -44 c48 -32 75 -78 93 -157 25 -107 18 -298 -15
-424 l-11 -39 -111 6 c-231 13 -428 94 -483 199 -32 62 -6 151 55 183 38 19
126 19 181 0 68 -24 69 -23 68 53 -1 126 55 202 148 202 26 0 53 -8 75 -23z"/>
<path d="M2064 3211 c-64 -29 -104 -101 -104 -187 l0 -42 -47 14 c-99 30 -194
6 -233 -59 -110 -180 122 -364 485 -384 l111 -6 11 26 c45 99 63 383 31 487
-21 68 -69 127 -122 151 -52 23 -80 23 -132 0z m137 -43 c21 -14 45 -46 64
-83 29 -58 30 -64 30 -205 0 -110 -5 -163 -19 -219 l-19 -74 -111 6 c-210 12
-372 81 -433 185 -64 109 25 217 158 192 27 -5 58 -14 69 -20 40 -21 47 -13
52 58 3 37 13 85 23 106 35 73 120 97 186 54z"/>
<path d="M7960 2959 c-65 -27 -120 -112 -140 -217 -25 -124 7 -413 49 -455 16
-16 252 7 352 34 201 54 303 177 254 304 -25 66 -71 98 -151 103 -35 2 -76 0
-92 -6 l-29 -10 -6 59 c-6 72 -39 142 -79 171 -35 25 -118 34 -158 17z m131
-46 c42 -25 63 -76 67 -166 l4 -79 27 6 c128 29 137 30 182 8 72 -35 97 -101
65 -175 -41 -100 -237 -179 -450 -181 l-100 -1 -13 44 c-7 24 -17 90 -24 146
-25 239 49 415 174 415 22 0 52 -8 68 -17z"/>
</g>
</svg>
