<?xml version="1.0" standalone="no"?>
<!DOCTYPE svg PUBLIC "-//W3C//DTD SVG 20010904//EN"
 "http://www.w3.org/TR/2001/REC-SVG-20010904/DTD/svg10.dtd">
<svg version="1.0" xmlns="http://www.w3.org/2000/svg"
 width="1024.000000pt" height="1024.000000pt" viewBox="0 0 1024.000000 1024.000000"
 preserveAspectRatio="xMidYMid meet">
<metadata>
Created by potrace 1.16, written by Peter Selinger 2001-2019
</metadata>
<g transform="translate(0.000000,1024.000000) scale(0.100000,-0.100000)"
fill="#000000" stroke="none">
<path d="M1848 9621 c-83 -27 -139 -63 -197 -127 -77 -84 -111 -164 -126 -295
l-6 -57 -64 33 c-87 46 -167 54 -257 25 -168 -52 -255 -199 -214 -360 22 -83
49 -126 89 -139 101 -32 873 -49 1512 -32 555 14 627 23 670 83 100 143 -52
316 -241 274 l-31 -7 -7 58 c-28 242 -288 352 -483 204 l-51 -39 -12 46 c-31
125 -133 247 -256 309 -70 34 -85 38 -173 40 -73 2 -110 -1 -153 -16z m285
-51 c123 -47 239 -195 268 -341 8 -40 16 -59 26 -59 8 0 35 21 59 46 59 60
122 88 199 87 151 -1 248 -107 246 -269 0 -40 4 -76 9 -79 5 -3 27 3 49 15
114 58 251 -11 251 -126 0 -54 -30 -92 -85 -104 -75 -18 -529 -30 -1113 -30
-582 0 -905 11 -952 33 -30 15 -66 76 -74 128 -3 21 -1 61 5 89 27 124 136
210 268 210 84 0 141 -19 209 -70 29 -22 56 -40 61 -40 5 0 11 51 13 113 3
100 7 119 34 177 56 117 165 211 280 239 62 16 182 7 247 -19z"/>
<path d="M4337 9233 c-2 -5 -10 -32 -17 -61 -12 -51 -15 -54 -71 -83 -32 -16
-59 -36 -59 -44 0 -10 21 -21 61 -32 l62 -17 28 -64 c17 -38 34 -62 41 -60 7
2 22 33 34 68 19 60 23 64 77 92 31 15 57 35 57 43 0 8 -17 19 -42 25 -76 19
-87 28 -112 85 -22 49 -47 69 -59 48z m95 -152 l33 -12 -28 -15 c-16 -9 -37
-33 -46 -54 l-18 -39 -16 35 c-12 25 -25 36 -47 40 -37 8 -38 17 -4 32 14 7
32 28 40 48 l15 37 19 -30 c10 -17 33 -36 52 -42z"/>
<path d="M6955 9183 c-39 -10 -83 -53 -100 -98 -33 -84 -6 -178 90 -324 26
-40 63 -88 81 -107 l32 -35 44 22 c114 58 233 155 280 228 23 37 28 56 28 105
0 79 -24 120 -86 148 -57 25 -102 18 -147 -22 l-32 -28 -20 36 c-11 19 -32 44
-46 54 -27 20 -89 31 -124 21z m92 -52 c21 -14 37 -36 51 -73 11 -29 26 -54
33 -56 8 -1 24 13 37 32 13 19 39 42 58 51 71 33 144 -23 144 -111 0 -45 -36
-109 -91 -161 -33 -30 -198 -143 -209 -143 -12 0 -109 137 -138 195 -49 96
-58 147 -37 201 18 47 62 84 100 84 11 0 34 -9 52 -19z"/>
<path d="M5086 9028 c-8 -13 -20 -43 -26 -68 -17 -64 -253 -858 -305 -1025
-24 -77 -62 -205 -85 -285 -24 -80 -45 -150 -49 -157 -5 -9 -403 484 -731 905
-34 44 -46 53 -68 50 l-27 -3 0 -110 c0 -60 6 -341 14 -622 8 -282 12 -516 8
-519 -3 -3 -81 41 -174 98 -404 252 -1169 720 -1221 747 -12 7 -32 9 -42 6
-41 -13 -39 -17 220 -555 72 -151 177 -369 232 -485 55 -115 136 -284 179
-374 72 -150 77 -163 55 -157 -25 6 -716 149 -1024 212 -188 38 -202 37 -202
-15 0 -22 89 -117 495 -528 376 -381 491 -503 478 -507 -62 -18 -1125 -321
-1343 -383 -366 -103 -344 -95 -348 -125 -2 -13 3 -30 11 -36 12 -11 256 -85
1412 -429 137 -41 251 -76 253 -78 2 -2 1 -9 -3 -14 -8 -14 -579 -524 -822
-735 -101 -87 -184 -163 -184 -170 -3 -22 3 -41 15 -53 9 -10 131 0 596 52
322 35 620 67 663 71 l78 7 -14 -34 c-17 -38 -239 -509 -405 -854 -279 -584
-315 -662 -316 -690 -2 -49 32 -44 137 20 96 60 530 326 842 518 99 60 227
139 283 174 57 36 106 62 109 59 3 -2 -2 -85 -11 -183 -87 -1001 -86 -964 -40
-971 13 -2 36 16 69 55 28 32 183 206 345 388 162 182 330 369 372 417 l77 87
20 -55 c12 -30 21 -58 21 -63 0 -4 38 -126 84 -272 122 -385 279 -886 321
-1023 37 -123 48 -146 70 -146 24 0 35 28 104 261 39 129 99 326 134 439 151
483 237 753 241 757 2 3 37 -42 77 -99 40 -57 170 -240 289 -408 119 -168 236
-334 261 -370 47 -69 63 -79 92 -58 17 13 19 52 27 523 10 535 17 715 29 715
4 0 11 -4 17 -9 9 -9 372 -231 724 -441 107 -65 256 -155 330 -200 74 -46 179
-110 233 -142 153 -93 179 -72 104 84 -473 986 -668 1400 -662 1406 3 3 60 -4
128 -16 424 -76 1138 -191 1151 -186 9 3 19 18 23 32 6 24 -34 67 -503 528
l-509 502 90 27 c50 15 241 75 425 132 526 165 962 299 1177 362 52 16 74 27
78 42 10 29 -11 47 -74 65 -31 9 -333 99 -671 201 -338 102 -699 210 -803 241
-103 31 -186 59 -185 63 2 3 60 55 129 115 503 436 899 790 899 803 0 36 -17
44 -82 42 -34 -1 -76 -4 -93 -6 -16 -3 -203 -21 -415 -40 -212 -19 -456 -42
-542 -51 -86 -8 -163 -14 -171 -12 -10 2 -1 32 39 118 28 63 118 261 199 440
81 179 217 475 301 658 85 183 154 339 154 345 0 17 -21 37 -39 37 -8 0 -140
-80 -295 -178 -155 -98 -342 -216 -416 -262 -74 -46 -234 -145 -355 -220 -121
-75 -238 -147 -259 -160 l-39 -23 6 34 c4 19 18 149 31 289 89 894 86 854 60
864 -41 16 -8 48 -384 -369 -461 -511 -522 -577 -530 -568 -7 8 -219 688 -386
1238 -102 336 -120 372 -158 313z m163 -483 c65 -214 176 -573 246 -798 70
-224 125 -410 123 -413 -3 -3 -46 2 -94 11 -49 8 -155 21 -236 27 l-148 12 -1
200 c-1 111 -5 291 -9 401 -6 176 -7 153 -8 -201 l-2 -401 -97 -7 c-140 -10
-269 -26 -338 -41 -32 -8 -61 -13 -62 -11 -4 4 40 156 175 601 89 293 251 835
298 1000 15 54 18 57 25 35 5 -14 62 -200 128 -415z m-1240 -370 c74 -93 238
-300 364 -458 l229 -288 -15 -56 c-9 -30 -18 -57 -20 -60 -2 -2 -37 -13 -78
-24 -41 -11 -104 -31 -140 -44 l-66 -23 -48 126 c-89 239 -169 442 -172 439
-1 -2 42 -131 96 -287 l99 -285 -139 -67 -140 -68 -58 39 -58 39 -2 174 c-2
208 -18 798 -26 958 l-6 115 23 -30 c13 -16 83 -106 157 -200z m2496 24 c-9
-90 -26 -267 -39 -394 -14 -126 -32 -314 -42 -417 l-17 -187 -84 -52 -84 -51
-102 47 c-56 26 -104 49 -105 51 -2 1 48 131 112 289 165 406 155 397 -35 -35
-55 -123 -103 -228 -107 -232 -4 -4 -57 10 -117 31 -61 21 -132 43 -158 49
-37 10 -50 18 -58 40 -28 72 -26 77 48 154 70 73 198 214 591 651 112 125 206
226 208 224 2 -2 -3 -77 -11 -168z m1281 -211 c-8 -18 -61 -134 -119 -258
-144 -310 -298 -646 -407 -890 -50 -113 -111 -248 -135 -300 -23 -52 -51 -115
-61 -138 l-19 -44 -84 111 c-46 61 -119 148 -162 192 l-78 80 107 127 c154
182 402 479 436 521 22 27 18 25 -15 -9 -48 -49 -513 -577 -533 -606 -12 -15
-21 -10 -97 56 -76 65 -295 220 -330 232 -18 7 -28 -1 151 110 85 53 241 148
345 213 105 65 262 162 350 216 88 54 273 170 410 258 138 88 251 160 253 161
1 0 -4 -15 -12 -32z m-5209 -91 c139 -85 471 -288 723 -442 192 -118 593 -367
621 -386 22 -15 22 -16 -41 -54 -73 -44 -237 -170 -295 -226 -23 -21 -44 -39
-47 -39 -4 0 -129 134 -280 297 -382 415 -439 473 -187 187 160 -180 408 -468
424 -491 11 -16 2 -30 -81 -123 -52 -58 -120 -142 -152 -187 -31 -46 -60 -83
-63 -83 -6 0 -63 116 -479 990 -119 250 -234 488 -254 528 -53 105 -60 126
-41 119 8 -4 77 -44 152 -90z m2701 -567 c626 -48 1211 -348 1591 -815 59 -72
125 -165 118 -165 -3 0 -29 11 -58 24 -30 13 -79 29 -109 36 -66 16 -216 16
-284 0 -73 -16 -195 -76 -248 -121 -30 -25 -53 -37 -60 -33 -7 5 -33 24 -58
43 -100 76 -226 115 -370 114 -286 -1 -503 -166 -568 -431 l-17 -68 -110 1
c-60 0 -121 -2 -134 -5 -23 -5 -26 0 -42 64 -52 203 -205 359 -405 411 -74 19
-230 19 -312 0 -78 -18 -190 -75 -241 -120 -21 -19 -42 -35 -47 -35 -4 0 -19
11 -33 24 -44 42 -143 96 -216 119 -89 27 -260 30 -348 5 l-58 -16 18 28 c79
125 307 361 460 477 331 253 707 404 1123 452 85 10 119 13 240 19 19 1 95 -3
168 -8z m-3196 -695 c95 -20 364 -75 597 -123 l425 -87 27 -45 c15 -25 28 -51
28 -58 1 -7 -27 -39 -61 -71 -35 -33 -76 -82 -93 -110 -16 -28 -34 -51 -39
-51 -9 0 -227 112 -399 205 -48 26 -87 45 -87 42 0 -6 130 -82 343 -201 111
-62 137 -81 132 -94 -27 -65 -39 -138 -39 -250 -1 -168 -4 -169 -158 -16 -348
346 -878 894 -865 894 9 0 94 -16 189 -35z m6282 -138 c-27 -24 -121 -106
-209 -183 -88 -76 -252 -220 -365 -319 -316 -278 -421 -368 -424 -364 -7 12
-123 375 -121 379 2 4 130 64 285 134 154 71 279 130 277 132 -2 2 -41 -13
-88 -33 -46 -20 -174 -73 -284 -119 l-200 -82 -37 77 c-21 42 -58 99 -83 127
l-45 52 24 58 c21 52 28 60 58 66 18 4 161 19 318 34 157 14 413 39 570 54
157 15 305 28 329 29 l43 1 -48 -43z m-2414 -139 c67 -16 160 -62 217 -108 28
-22 58 -40 68 -40 9 0 42 20 73 44 116 90 224 126 374 126 162 0 286 -48 388
-150 199 -199 198 -576 -3 -911 -161 -269 -453 -541 -719 -669 -45 -22 -93
-40 -106 -40 -36 0 -162 62 -270 133 -338 222 -584 514 -667 792 -44 146 -41
142 -101 165 -91 34 -256 20 -293 -24 -6 -7 -22 -53 -36 -102 -34 -117 -99
-246 -183 -364 -86 -122 -287 -323 -427 -428 -122 -91 -290 -182 -336 -182
-65 0 -290 133 -444 262 -318 266 -491 548 -526 854 -28 253 81 484 275 580
205 100 439 77 616 -60 30 -23 60 -45 66 -49 7 -4 38 14 70 39 121 94 234 134
381 134 105 0 184 -19 267 -63 126 -67 231 -210 262 -359 8 -40 17 -75 20 -77
2 -3 31 0 62 7 72 15 146 15 212 1 28 -6 53 -9 55 -7 3 2 11 38 20 79 31 149
108 269 218 340 137 89 304 116 467 77z m1380 -797 c68 -334 64 -668 -11 -981
-158 -659 -593 -1202 -1204 -1500 -532 -260 -1153 -297 -1717 -104 -291 100
-526 238 -778 460 -409 358 -672 874 -731 1432 -15 147 -7 457 16 582 27 145
28 146 60 50 59 -180 164 -348 319 -508 l82 -85 -53 -53 c-99 -99 -145 -238
-124 -373 31 -203 174 -349 376 -384 82 -14 171 0 258 41 80 37 130 81 179
157 46 70 69 143 77 244 l6 74 65 40 c194 118 428 333 564 516 88 119 164 268
199 391 16 56 32 89 45 98 26 17 125 27 186 18 65 -10 83 -30 107 -116 27 -99
105 -261 171 -357 115 -168 386 -415 579 -527 l67 -39 4 -106 c3 -94 7 -114
35 -174 64 -134 191 -230 341 -257 202 -36 420 90 488 283 59 167 19 355 -99
471 l-54 52 87 90 c224 231 360 492 387 743 l7 66 23 -73 c12 -40 32 -117 43
-171z m-4457 -63 c-13 -62 -26 -169 -29 -238 -4 -69 -11 -131 -17 -137 -7 -10
-104 -13 -416 -15 l-406 -2 413 -9 c313 -7 412 -13 412 -22 0 -52 23 -288 36
-363 9 -52 14 -95 12 -98 -5 -4 -149 37 -633 184 -181 55 -492 148 -690 207
-198 59 -364 110 -369 113 -5 3 67 27 160 53 93 27 473 136 844 243 371 107
682 195 690 195 14 1 13 -14 -7 -111z m4604 58 c43 -14 116 -36 163 -49 47
-14 319 -96 605 -182 286 -87 596 -180 690 -207 93 -27 171 -51 173 -53 2 -2
-36 -15 -85 -30 -175 -52 -936 -287 -1295 -400 -202 -63 -369 -115 -371 -115
-2 0 7 50 19 112 25 122 44 269 44 347 l0 49 163 6 c89 3 295 10 457 14 l295
9 -456 1 -456 2 -6 143 c-6 123 -25 281 -44 355 -7 29 5 28 104 -2z m-4004
-737 c153 -129 361 -248 446 -257 32 -3 58 1 79 12 17 9 34 16 38 16 3 0 5
-37 2 -82 -5 -104 -37 -176 -108 -252 -160 -169 -414 -177 -584 -16 -169 160
-172 439 -7 594 28 25 53 46 56 46 3 0 38 -27 78 -61z m3360 -9 c70 -78 92
-143 92 -270 0 -97 -2 -110 -31 -170 -43 -91 -111 -162 -192 -202 -58 -29 -77
-33 -166 -36 -117 -4 -176 12 -267 76 -58 40 -130 137 -150 200 -16 54 -24
202 -11 202 6 0 35 -9 64 -21 34 -13 66 -19 89 -16 76 10 289 136 434 256 69
57 70 57 138 -19z m-3946 -248 c6 -4 23 -48 37 -97 14 -50 41 -130 61 -180 19
-49 35 -94 35 -100 0 -5 -137 -71 -305 -144 -167 -74 -303 -136 -301 -138 2
-2 48 15 102 37 276 114 514 210 518 210 3 0 19 -28 34 -62 16 -35 52 -101 80
-147 50 -83 51 -85 35 -115 -8 -17 -16 -32 -17 -33 -1 -1 -69 -9 -151 -18
-191 -21 -512 -56 -878 -96 -159 -17 -291 -28 -294 -25 -6 6 18 29 252 231
158 138 419 370 649 577 65 60 121 108 125 108 3 0 11 -4 18 -8z m4973 -592
c296 -291 497 -496 488 -498 -12 -2 -639 101 -1214 200 l-62 11 -27 57 -27 57
36 52 c19 29 54 85 77 126 l42 73 81 -38 c44 -21 198 -95 341 -165 143 -69
256 -122 250 -117 -5 6 -152 83 -325 172 -173 90 -319 166 -324 170 -4 5 14
62 42 127 27 65 60 150 72 188 26 81 29 87 40 83 4 -2 234 -226 510 -498z
m-4548 -270 c36 -47 109 -131 162 -187 86 -90 94 -102 79 -114 -9 -8 -116
-124 -237 -259 -121 -135 -240 -266 -265 -292 -24 -27 -41 -48 -39 -48 5 0
294 300 484 502 l92 98 78 -66 c44 -36 132 -101 196 -144 l117 -78 -107 -62
c-112 -66 -589 -356 -852 -518 -369 -227 -448 -276 -505 -313 -32 -21 -61 -36
-63 -35 -2 2 15 40 37 84 22 45 103 213 180 374 76 161 218 459 315 662 97
202 176 369 176 371 0 1 14 33 31 70 25 56 33 65 43 54 7 -8 42 -52 78 -99z
m3741 -72 c54 -120 337 -718 583 -1232 68 -143 123 -260 122 -262 -2 -1 -84
48 -183 108 -99 60 -441 267 -760 460 -319 193 -586 355 -593 361 -9 7 8 22
69 59 89 53 182 117 273 188 l59 45 66 -71 c36 -39 155 -167 265 -285 343
-369 335 -356 -39 66 -141 160 -259 295 -261 300 -2 6 46 62 108 125 62 63
138 148 168 188 30 39 58 72 61 72 3 0 31 -55 62 -122z m-2937 -584 c55 -26
100 -48 101 -48 2 -2 -27 -76 -144 -359 -35 -87 -63 -160 -61 -163 2 -2 56
111 118 251 63 140 117 255 121 255 4 0 24 -8 45 -17 22 -9 86 -31 144 -49
l104 -32 14 -50 c17 -60 23 -48 -108 -194 -133 -147 -484 -540 -608 -680 -84
-96 -112 -122 -112 -105 0 12 7 90 14 172 8 83 29 317 46 520 17 204 34 384
36 400 3 26 18 38 97 86 50 31 93 57 93 58 1 0 46 -20 100 -45z m2128 -46 c58
-37 66 -46 62 -68 -3 -14 -10 -288 -17 -610 -6 -322 -12 -586 -13 -587 0 -1
-69 96 -153 215 -83 120 -192 273 -241 342 -48 69 -132 186 -184 261 l-96 136
26 89 c14 49 26 90 27 91 4 8 241 70 246 65 3 -4 30 -83 58 -177 80 -261 115
-365 119 -360 2 2 -12 59 -31 127 -76 264 -118 421 -113 425 12 13 222 100
233 97 6 -1 41 -22 77 -46z m-1479 -158 c61 -10 158 -22 218 -26 l107 -7 1
-211 c1 -116 5 -283 9 -371 l6 -160 2 161 c1 88 5 255 9 371 l6 210 141 7 c78
4 185 15 239 25 71 13 97 14 97 6 0 -7 -33 -117 -74 -246 -222 -701 -341
-1083 -391 -1262 -15 -53 -30 -96 -32 -93 -2 2 -33 98 -67 212 -88 288 -437
1397 -444 1408 -3 5 9 6 29 2 19 -4 84 -16 144 -26z"/>
<path d="M5845 6816 c-65 -24 -98 -81 -79 -135 14 -38 49 -51 139 -51 144 0
272 -32 436 -107 91 -41 112 -37 88 19 -19 47 -134 157 -209 201 -124 72 -290
104 -375 73z m183 -37 c97 -24 205 -83 280 -154 40 -37 71 -69 69 -71 -2 -2
-39 12 -83 31 -114 49 -222 75 -349 82 -118 6 -145 14 -145 41 0 24 28 62 54
72 30 13 120 12 174 -1z"/>
<path d="M4105 6806 c-162 -37 -316 -135 -387 -245 -48 -76 -31 -106 39 -70
146 77 293 118 458 126 98 6 112 9 133 30 26 26 25 66 -2 108 -33 51 -141 73
-241 51z m181 -51 c14 -9 30 -27 36 -40 20 -45 8 -51 -114 -58 -62 -4 -150
-16 -196 -27 -81 -19 -224 -73 -249 -93 -9 -6 -13 -6 -13 1 0 22 146 143 214
176 129 64 262 81 322 41z"/>
<path d="M2410 6376 c0 -3 14 -12 30 -21 17 -9 30 -13 30 -11 0 3 -13 12 -30
21 -16 9 -30 13 -30 11z"/>
<path d="M7830 6290 c-8 -5 -10 -10 -5 -10 6 0 17 5 25 10 8 5 11 10 5 10 -5
0 -17 -5 -25 -10z"/>
<path d="M6528 6224 c-76 -18 -164 -63 -233 -119 l-56 -46 -62 46 c-118 88
-221 125 -347 125 -142 -1 -240 -40 -325 -132 -166 -179 -143 -511 57 -795
134 -191 425 -439 620 -528 l57 -26 48 21 c130 57 371 247 506 398 192 214
287 423 287 629 0 138 -41 242 -125 322 -113 107 -266 145 -427 105z m295 -62
c279 -130 290 -512 26 -862 -174 -231 -541 -519 -631 -497 -32 8 -184 104
-278 175 -105 79 -285 263 -348 355 -115 167 -157 300 -150 479 4 103 7 118
35 173 65 125 176 196 318 203 142 8 235 -23 365 -121 41 -32 78 -57 82 -57 4
0 35 24 69 54 113 99 221 138 361 132 71 -3 98 -9 151 -34z"/>
<path d="M3452 6209 c-118 -14 -222 -77 -283 -171 -56 -87 -73 -164 -66 -300
6 -128 28 -210 87 -328 113 -225 409 -503 679 -640 l60 -30 68 36 c258 137
567 435 678 655 101 198 117 403 46 556 -117 250 -456 308 -705 120 -38 -29
-75 -56 -81 -61 -9 -6 -28 4 -61 31 -127 106 -268 150 -422 132z m1028 -54
c60 -20 136 -80 175 -136 53 -77 68 -144 63 -272 -8 -168 -53 -280 -182 -454
-117 -158 -383 -388 -542 -470 l-72 -37 -83 48 c-132 76 -234 153 -351 265
-249 238 -358 459 -346 700 7 122 33 192 96 260 68 73 143 104 259 109 144 7
258 -36 370 -139 24 -22 48 -39 56 -39 7 0 40 23 72 51 145 123 330 167 485
114z"/>
<path d="M5010 5269 c-81 -24 -142 -97 -138 -164 4 -49 21 -51 29 -2 15 96
116 156 212 127 70 -20 117 -77 117 -141 0 -27 2 -30 15 -19 43 35 -7 144 -85
185 -36 19 -109 26 -150 14z"/>
<path d="M4386 4628 c-2 -7 -9 -31 -15 -53 -17 -63 -47 -103 -101 -137 -28
-17 -50 -35 -50 -39 0 -11 28 -10 55 0 17 7 23 -2 50 -68 47 -114 97 -185 204
-292 85 -84 109 -102 201 -147 155 -76 326 -102 472 -71 253 53 501 267 603
518 25 63 31 70 49 65 33 -11 49 -10 53 2 2 7 -7 14 -19 17 -13 4 -42 22 -65
42 -39 33 -63 78 -78 148 -7 35 -25 26 -25 -13 0 -28 0 -28 -82 -35 -46 -3
-139 -13 -208 -22 -200 -25 -502 -22 -782 7 l-238 24 0 28 c0 29 -18 48 -24
26z m314 -125 c214 -23 583 -22 778 4 l142 19 0 -39 c0 -80 -38 -120 -141
-146 -243 -62 -786 -47 -911 26 -36 20 -63 67 -71 126 -6 37 -5 38 21 33 15
-3 97 -14 182 -23z m320 -373 l24 -13 -32 -26 c-50 -41 -39 -57 15 -20 129 89
280 100 449 33 95 -39 97 -45 22 -100 -132 -97 -254 -143 -402 -151 -124 -6
-219 12 -326 63 -69 32 -199 121 -200 135 0 12 140 70 202 84 73 17 213 14
248 -5z"/>
<path d="M5300 3614 c-125 -53 -305 -56 -447 -9 -42 14 -77 24 -79 22 -9 -8
34 -36 83 -56 75 -29 205 -43 290 -31 102 14 223 61 223 87 0 16 -3 16 -70
-13z"/>
<path d="M8247 8503 c-3 -5 -8 -35 -12 -69 -7 -60 -7 -60 -61 -93 -30 -18 -54
-38 -54 -46 0 -13 76 -35 120 -35 12 0 30 -19 52 -55 43 -73 60 -69 71 13 8
55 13 66 44 90 19 15 45 35 56 44 31 23 14 37 -58 46 -58 7 -61 9 -95 59 -33
49 -53 63 -63 46z m114 -143 c36 0 36 -5 -1 -37 -17 -14 -30 -35 -30 -47 0
-36 -10 -37 -37 -5 -14 16 -35 29 -47 29 -36 0 -37 10 -5 37 16 14 29 35 29
47 0 36 10 37 37 5 17 -20 34 -29 54 -29z"/>
<path d="M3205 8378 c-11 -6 -30 -23 -42 -37 -17 -21 -24 -24 -34 -13 -7 6
-32 12 -55 12 -35 0 -47 -5 -68 -31 -71 -84 2 -201 178 -286 l38 -18 28 34
c51 61 92 149 97 210 6 67 -5 94 -50 121 -36 22 -63 25 -92 8z m91 -63 c11
-17 15 -38 11 -63 -5 -40 -45 -130 -76 -171 l-19 -24 -48 28 c-104 60 -144
104 -144 156 0 57 69 78 110 34 30 -32 46 -32 55 3 16 63 80 85 111 37z"/>
<path d="M8772 7473 c-52 -25 -99 -88 -113 -149 -10 -44 -9 -68 3 -132 22
-110 94 -267 174 -375 41 -57 33 -58 189 19 253 123 370 264 335 402 -33 132
-153 180 -272 108 l-56 -33 -11 36 c-18 60 -47 97 -93 120 -53 25 -110 27
-156 4z m121 -37 c57 -24 97 -89 97 -156 0 -15 7 -33 15 -40 13 -11 24 -5 68
37 56 53 97 69 147 58 42 -9 86 -55 99 -101 32 -119 -72 -239 -308 -357 -142
-70 -121 -75 -194 48 -149 253 -158 445 -23 506 49 22 58 23 99 5z"/>
<path d="M1222 7199 c-46 -23 -87 -75 -96 -121 -3 -16 -8 -39 -11 -53 l-5 -24
-36 24 c-96 65 -222 35 -275 -65 -26 -48 -25 -141 2 -197 45 -92 199 -191 404
-258 154 -51 148 -52 200 58 145 306 150 529 13 624 -55 37 -136 43 -196 12z
m162 -43 c24 -14 52 -42 66 -68 50 -87 26 -258 -69 -478 -22 -51 -42 -94 -45
-97 -10 -10 -198 57 -293 103 -154 76 -223 153 -223 251 0 84 63 153 140 153
40 0 102 -29 142 -68 39 -36 58 -18 58 57 0 138 113 212 224 147z"/>
<path d="M8272 5900 c-34 -15 -47 -29 -63 -66 -26 -59 -19 -103 25 -151 61
-67 174 -52 218 28 40 72 8 162 -69 195 -43 18 -60 17 -111 -6z m131 -61 c80
-86 -41 -210 -131 -134 -16 14 -33 36 -36 50 -10 39 18 93 56 110 43 19 77 11
111 -26z"/>
<path d="M1141 5832 c-79 -43 -93 -149 -27 -209 47 -43 77 -49 132 -28 111 42
115 196 8 241 -45 19 -73 18 -113 -4z m126 -54 c25 -24 31 -75 12 -110 -29
-55 -125 -53 -154 3 -18 34 -18 57 -1 88 29 53 97 62 143 19z"/>
<path d="M1598 4488 l-13 -63 -58 -28 c-76 -36 -74 -56 7 -75 58 -15 59 -15
85 -73 40 -89 51 -86 83 21 12 40 19 48 71 75 73 38 71 55 -8 76 -58 15 -61
17 -90 72 -41 77 -59 76 -77 -5z m63 -57 c11 -18 28 -31 48 -36 38 -8 39 -18
6 -33 -15 -7 -33 -29 -43 -54 l-18 -41 -14 33 c-9 21 -25 37 -48 47 l-35 14
32 20 c20 12 34 30 38 49 7 37 14 38 34 1z"/>
<path d="M9172 4228 c-5 -7 -35 -66 -67 -130 -31 -64 -62 -121 -68 -127 -7 -5
-73 -25 -147 -43 -98 -25 -136 -39 -138 -50 -2 -12 34 -36 133 -88 75 -40 138
-78 140 -84 2 -6 21 -73 41 -149 29 -108 41 -137 53 -135 9 2 44 59 81 133
l65 129 143 40 c109 31 142 44 140 56 -2 8 -62 45 -134 82 l-131 67 -32 123
c-52 199 -55 205 -79 176z m43 -198 c15 -58 31 -112 35 -120 4 -8 54 -37 109
-65 56 -27 101 -52 101 -56 0 -3 -35 -16 -77 -28 -150 -43 -139 -34 -202 -154
l-56 -109 -9 34 c-5 18 -21 74 -35 123 l-26 90 -112 60 c-62 33 -106 63 -100
66 7 3 55 16 107 29 53 13 104 31 117 42 12 11 41 62 64 114 24 51 46 90 50
86 4 -4 19 -54 34 -112z"/>
<path d="M1415 3113 c-33 -9 -61 -32 -80 -68 l-19 -34 -33 29 c-43 38 -88 46
-141 25 -54 -22 -84 -64 -90 -126 -9 -100 72 -204 243 -310 43 -27 85 -49 92
-49 20 0 134 151 173 227 66 132 48 248 -45 293 -41 20 -61 22 -100 13z m85
-50 c66 -39 76 -119 28 -224 -25 -54 -135 -209 -148 -209 -4 0 -42 23 -85 51
-98 64 -168 135 -191 195 -16 42 -16 51 -3 88 10 31 23 45 51 59 33 16 40 16
71 4 19 -8 47 -31 62 -51 16 -20 35 -36 42 -34 8 2 21 21 29 43 15 46 65 95
95 95 12 0 34 -8 49 -17z"/>
<path d="M8366 2759 c-31 -56 -35 -59 -108 -68 -72 -8 -75 -30 -9 -73 51 -34
53 -37 66 -125 9 -59 32 -56 70 10 27 47 34 53 75 60 25 5 55 11 68 13 36 7
26 29 -30 65 -47 30 -53 39 -61 79 -14 81 -17 90 -31 90 -7 0 -25 -23 -40 -51z
m68 -124 c33 -26 33 -35 0 -35 -16 0 -37 -12 -54 -30 l-28 -30 -7 30 c-4 16
-19 40 -35 54 -30 25 -24 36 20 36 10 0 29 14 41 32 l23 32 7 -34 c4 -19 19
-44 33 -55z"/>
<path d="M6703 2151 c-79 -50 -82 -137 -8 -279 25 -49 55 -98 66 -108 19 -17
22 -17 95 19 79 39 166 112 190 159 51 98 -42 208 -136 160 l-35 -17 -35 38
c-44 48 -90 57 -137 28z m80 -32 c24 -11 47 -46 47 -72 0 -7 4 -18 9 -26 8
-12 16 -8 46 18 46 40 88 40 118 -1 26 -35 17 -67 -32 -121 -37 -40 -153 -117
-176 -117 -16 0 -82 116 -102 176 -18 60 -13 95 22 130 27 27 34 28 68 13z"/>
<path d="M8570 2019 c-193 -32 -359 -200 -401 -407 l-13 -62 -31 28 c-49 47
-87 69 -155 92 -166 56 -353 -18 -427 -168 -24 -48 -28 -70 -28 -137 0 -44 4
-93 8 -109 7 -25 6 -28 -10 -21 -37 14 -132 17 -183 5 -65 -16 -132 -76 -150
-135 -18 -61 5 -110 57 -124 89 -23 430 -34 1098 -35 672 -1 879 6 1040 35 69
12 126 74 155 167 46 146 -22 288 -159 337 -55 19 -151 19 -198 0 -50 -21 -52
-20 -46 23 8 63 -14 170 -51 249 -66 138 -201 238 -356 263 -73 11 -74 11
-150 -1z m265 -79 c172 -83 275 -273 246 -456 -6 -43 -7 -72 -1 -78 6 -6 30 1
65 19 230 116 437 -84 325 -312 -24 -49 -40 -68 -64 -78 -43 -18 -178 -32
-446 -46 -374 -20 -1569 1 -1700 29 -33 7 -35 11 -38 50 -3 39 1 47 35 81 39
39 92 61 148 61 27 0 69 -9 164 -36 22 -6 23 -5 18 22 -3 16 -12 47 -21 69
-43 112 4 252 109 325 133 92 313 69 436 -56 29 -30 59 -54 66 -54 7 0 15 16
18 35 3 19 8 52 11 72 17 109 94 240 179 304 87 66 168 90 285 86 84 -3 103
-7 165 -37z"/>
<path d="M2615 1728 c-86 -31 -138 -107 -139 -202 0 -79 24 -148 85 -242 53
-81 238 -279 271 -290 24 -7 74 24 182 115 200 168 284 339 232 475 -57 150
-253 173 -348 41 l-25 -35 -34 50 c-55 81 -144 116 -224 88z m121 -48 c43 -21
88 -77 100 -124 3 -14 13 -31 21 -38 13 -11 18 -10 27 6 66 113 109 149 176
148 137 -2 202 -149 129 -293 -19 -38 -63 -96 -117 -151 -87 -90 -205 -188
-227 -188 -18 0 -186 177 -239 253 -27 37 -57 91 -68 120 -43 114 -15 221 72
265 55 27 72 28 126 2z"/>
<path d="M5674 1631 c-46 -28 -64 -59 -64 -111 0 -58 30 -107 76 -126 107 -45
209 53 175 166 -22 74 -122 112 -187 71z m127 -47 c48 -43 27 -133 -34 -153
-94 -32 -158 80 -87 151 27 26 36 30 67 25 19 -4 44 -14 54 -23z"/>
<path d="M4023 1515 c-64 -28 -93 -123 -57 -185 48 -81 180 -81 228 0 37 63 7
158 -59 186 -43 17 -71 17 -112 -1z m97 -40 c84 -44 55 -165 -39 -165 -91 0
-122 122 -42 165 34 18 46 18 81 0z"/>
</g>
</svg>
