<?xml version="1.0" standalone="no"?>
<!DOCTYPE svg PUBLIC "-//W3C//DTD SVG 20010904//EN"
 "http://www.w3.org/TR/2001/REC-SVG-20010904/DTD/svg10.dtd">
<svg version="1.0" xmlns="http://www.w3.org/2000/svg"
 width="1024.000000pt" height="1024.000000pt" viewBox="0 0 1024.000000 1024.000000"
 preserveAspectRatio="xMidYMid meet">
<metadata>
Created by potrace 1.16, written by Peter Selinger 2001-2019
</metadata>
<g transform="translate(0.000000,1024.000000) scale(0.100000,-0.100000)"
fill="#000000" stroke="none">
<path d="M8813 8136 c-67 -22 -124 -60 -181 -120 -55 -58 -102 -143 -102 -187
0 -37 -9 -41 -38 -19 -34 27 -115 27 -159 0 -18 -11 -33 -24 -33 -30 0 -5 -4
-10 -10 -10 -5 0 -10 8 -10 18 0 36 -59 139 -105 185 -74 73 -161 111 -260
115 -202 9 -342 -121 -362 -335 -5 -53 -9 -63 -22 -57 -60 24 -70 25 -105 10
-20 -8 -41 -26 -48 -40 -14 -33 -22 -33 -36 -1 -20 43 -98 120 -149 145 -137
70 -349 13 -472 -126 -52 -59 -74 -108 -79 -175 l-4 -55 -57 4 c-49 3 -59 1
-82 -20 -14 -13 -28 -31 -31 -39 -3 -10 -12 -7 -36 13 -40 34 -65 42 -106 34
-43 -8 -75 -44 -97 -108 l-18 -53 -88 -2 c-137 -4 -384 -64 -427 -104 -6 -5
676 -9 1592 -9 l1602 0 25 -40 c14 -22 25 -41 25 -44 0 -2 -25 -6 -55 -8 -90
-8 -147 -62 -147 -142 0 -60 37 -123 94 -161 24 -16 45 -31 47 -32 3 -2 -14
-19 -37 -39 -82 -70 -76 -161 12 -204 23 -11 52 -20 63 -20 12 0 28 -3 37 -6
14 -5 14 -9 1 -34 -50 -96 18 -161 201 -195 49 -10 93 -19 97 -22 12 -7 -65
-64 -79 -59 -7 3 -58 10 -112 16 -114 12 -233 2 -335 -30 -76 -24 -74 -24 -54
-2 9 10 24 35 32 56 20 48 13 95 -21 135 l-24 29 25 48 c27 51 33 116 13 158
-15 34 -51 57 -112 70 l-51 11 -6 86 c-7 103 -32 161 -91 214 -69 63 -154 83
-217 51 -42 -22 -89 -80 -102 -128 -17 -58 -23 -64 -72 -77 -95 -25 -131 -103
-92 -199 11 -24 12 -38 5 -40 -21 -7 -31 -41 -19 -63 9 -18 6 -26 -19 -53 -42
-44 -54 -72 -55 -125 -1 -85 47 -140 139 -162 27 -6 55 -13 62 -15 6 -2 12
-14 12 -28 0 -49 114 -124 152 -100 8 5 9 -12 4 -62 -11 -112 -14 -117 -50
-110 -21 4 -39 1 -51 -9 -28 -21 -32 -19 -45 20 -17 52 -28 51 -54 -4 l-23
-50 -39 75 c-21 41 -44 80 -51 86 -21 17 -43 1 -65 -49 l-21 -48 -18 52 c-28
83 -63 120 -109 115 -8 -1 -26 15 -39 36 -22 34 -23 41 -12 93 6 30 11 66 11
80 0 33 -25 67 -52 71 -17 2 -24 14 -33 56 -15 64 -49 104 -84 100 -29 -3 -71
-59 -71 -93 0 -16 -11 -30 -35 -44 -30 -18 -35 -25 -35 -59 0 -34 -3 -39 -35
-51 -37 -13 -65 -53 -65 -93 0 -13 11 -41 23 -63 l23 -41 -41 -81 -42 -81 -17
34 c-9 19 -16 53 -16 75 0 31 -7 47 -29 70 -16 16 -40 29 -53 29 -39 0 -46 15
-32 70 20 76 -10 150 -60 150 -35 0 -44 13 -51 75 -22 185 -137 259 -203 130
-5 -11 -13 -44 -17 -72 -6 -47 -9 -53 -31 -53 -13 0 -32 -9 -41 -20 -10 -11
-35 -37 -55 -59 -30 -31 -38 -47 -38 -76 0 -27 -8 -47 -30 -72 -34 -39 -37
-63 -14 -145 l17 -58 -61 -58 c-33 -31 -64 -66 -70 -76 -9 -18 -10 -18 -22 3
-9 18 -9 37 1 90 21 101 16 309 -9 402 -62 230 -224 432 -427 529 -110 53
-174 70 -268 70 -188 0 -383 -118 -457 -277 -17 -37 -47 -99 -66 -138 -19 -38
-34 -78 -34 -87 0 -28 22 -67 42 -73 36 -12 23 -73 -50 -227 l-45 -97 -48 102
c-27 56 -53 125 -60 153 -11 49 -11 51 20 81 39 39 39 64 2 139 -16 32 -47 98
-70 145 -31 67 -53 98 -101 142 -110 102 -231 143 -397 135 -156 -8 -297 -72
-421 -192 -205 -196 -296 -450 -262 -730 6 -55 21 -129 32 -165 l20 -65 -28
-53 c-27 -48 -30 -51 -46 -36 -13 12 -21 13 -31 5 -10 -9 -16 1 -26 50 -20
100 -48 138 -100 138 -13 0 -19 5 -15 14 10 25 -16 94 -45 122 -24 23 -28 33
-24 61 4 23 1 39 -11 52 -16 17 -15 21 9 66 35 67 35 151 0 193 -14 17 -44 37
-67 44 -37 13 -43 19 -58 64 -34 106 -111 165 -226 172 -111 7 -218 -63 -245
-160 -6 -24 -13 -49 -15 -55 -2 -7 -13 -13 -24 -13 -36 0 -70 -44 -70 -90 0
-34 -3 -40 -21 -40 -32 0 -79 -53 -79 -90 0 -28 22 -79 52 -122 16 -22 -5 -48
-39 -48 -17 0 -30 -10 -45 -36 l-21 -35 -19 53 c-11 29 -28 81 -38 114 -23 77
-35 100 -56 108 -22 8 -36 -5 -73 -74 -29 -51 -31 -53 -31 -25 0 47 -34 92
-87 118 l-48 22 3 65 c6 117 -37 180 -122 180 -32 0 -37 4 -54 43 -27 61 -73
97 -126 97 -63 0 -116 -43 -138 -113 -8 -26 -19 -39 -35 -43 -13 -4 -35 -20
-49 -37 -23 -27 -26 -38 -22 -84 4 -51 4 -52 -24 -58 -48 -11 -65 -77 -32
-124 16 -22 15 -24 -19 -59 -20 -21 -40 -48 -45 -62 l-10 -25 -17 35 c-17 36
-17 36 16 88 26 43 33 65 37 125 5 80 -7 118 -56 170 -22 23 -24 31 -14 45 39
55 62 115 62 160 0 69 -29 109 -113 152 -77 40 -79 46 -42 135 26 64 32 124
15 156 -11 19 3 19 955 19 620 0 965 3 965 10 0 13 -49 37 -134 67 -51 17
-110 27 -211 35 l-140 11 -52 53 c-44 46 -57 54 -88 54 -20 0 -54 -9 -77 -21
-36 -18 -46 -20 -80 -10 -34 11 -38 15 -38 44 0 57 -20 104 -56 136 -29 26
-43 31 -85 31 -52 0 -98 -18 -138 -54 -18 -16 -25 -18 -29 -7 -16 45 -63 61
-118 41 -25 -10 -26 -9 -20 12 3 13 11 56 17 97 26 181 -36 325 -163 382 -44
20 -70 24 -148 24 -84 0 -102 -3 -157 -29 -118 -54 -204 -171 -240 -324 l-17
-70 -30 19 c-51 31 -102 23 -152 -22 -21 -19 -21 -19 -33 36 -43 194 -194 333
-334 310 -46 -8 -117 -40 -117 -54 0 -4 21 2 47 15 123 63 271 -2 342 -149 30
-60 61 -163 61 -199 0 -26 13 -22 32 11 36 64 109 74 168 25 l29 -25 6 38 c24
144 54 212 126 288 111 117 252 150 405 94 61 -23 105 -67 135 -134 30 -67 37
-203 15 -298 -9 -38 -16 -72 -16 -77 0 -4 17 1 37 11 21 10 45 19 55 19 26 0
58 -36 58 -65 0 -14 2 -25 4 -25 2 0 21 18 43 39 72 73 166 79 222 15 27 -30
31 -43 31 -89 0 -50 2 -56 30 -70 38 -20 84 -19 116 1 13 9 42 17 64 18 37 1
45 -5 93 -57 l53 -57 96 0 c115 0 179 -11 278 -47 l75 -28 -950 -5 -950 -5
-34 22 c-19 13 -52 28 -75 33 -106 26 -99 22 -112 74 -16 63 -59 115 -120 146
-41 21 -62 25 -134 25 -78 0 -92 -3 -155 -35 -38 -19 -71 -41 -73 -48 -3 -8
12 -4 35 11 145 92 332 72 404 -41 16 -25 29 -55 29 -67 0 -39 27 -63 78 -70
152 -21 198 -103 138 -244 -38 -88 -34 -100 44 -138 106 -53 137 -110 106
-200 -9 -26 -30 -64 -46 -84 l-29 -37 25 -23 c50 -47 68 -89 68 -159 0 -110
-55 -187 -169 -237 -31 -13 -69 -17 -170 -18 -71 0 -156 2 -188 4 -48 3 -63 0
-87 -18 -27 -20 -32 -20 -52 -7 -51 33 -174 25 -186 -12 -3 -11 3 -10 26 2 93
48 222 -22 222 -120 0 -41 3 -41 41 -9 43 35 92 42 147 19 97 -40 140 -164 93
-269 -26 -58 -26 -58 -2 -45 50 26 83 -9 57 -62 -21 -41 -21 -40 18 -33 29 6
37 3 51 -19 13 -19 15 -36 10 -63 l-7 -37 41 37 c85 77 180 51 181 -50 0 -41
1 -42 28 -37 44 9 82 -27 82 -77 0 -39 0 -40 22 -25 35 25 85 21 103 -8 14
-20 22 -24 50 -19 32 5 66 -15 77 -47 3 -9 10 -9 31 1 25 11 30 10 57 -16 17
-16 30 -32 30 -37 0 -4 -47 -8 -104 -8 -63 0 -107 -4 -111 -11 -13 -20 6 -78
40 -128 l35 -51 -36 17 c-35 17 -36 17 -50 -2 -8 -11 -13 -24 -10 -31 5 -12
-313 -30 -699 -39 -277 -7 -425 -15 -425 -25 0 -4 30 -6 68 -3 37 2 225 8 417
14 193 5 416 13 496 16 l146 6 34 -62 c30 -57 147 -181 170 -181 5 0 9 -7 9
-16 0 -9 10 -30 22 -47 l22 -30 -47 6 c-79 11 -220 89 -340 189 -63 51 -77 57
-77 32 0 -11 -15 -4 -51 25 -29 23 -58 41 -65 41 -21 0 -17 -38 11 -105 17
-41 21 -61 13 -66 -10 -6 3 -38 78 -194 8 -17 32 -53 54 -80 21 -28 50 -72 64
-100 56 -110 311 -392 392 -433 21 -11 63 -27 92 -36 58 -17 380 -59 587 -76
208 -18 887 -24 1235 -11 549 20 761 41 822 80 55 34 105 115 145 231 3 8 13
-13 24 -47 24 -76 93 -181 135 -206 77 -43 242 -61 808 -83 802 -32 1577 0
1906 77 105 24 167 63 271 169 94 96 237 274 255 316 7 18 38 67 69 109 30 43
58 89 62 103 3 14 18 44 34 66 28 43 38 74 27 91 -3 6 -2 21 3 33 9 22 13 24
67 18 233 -25 742 -45 742 -29 0 6 -85 12 -222 16 -213 6 -499 23 -544 32 -20
4 -20 8 -11 45 8 30 8 43 -1 52 -9 9 -25 0 -72 -36 -52 -41 -60 -45 -60 -27 0
22 -14 28 -25 11 -4 -6 -11 -8 -16 -5 -16 11 -9 59 14 100 19 34 29 41 62 45
22 3 39 8 38 13 -6 17 -2 27 18 37 16 9 25 8 40 -6 19 -17 20 -17 35 5 12 17
22 21 41 16 16 -4 22 -2 18 5 -8 13 -52 13 -60 0 -4 -6 -23 -7 -44 -4 -33 5
-41 2 -58 -19 -11 -14 -32 -29 -47 -33 -42 -10 -71 -60 -73 -124 -1 -30 -5
-54 -10 -53 -4 0 -52 4 -105 8 -54 4 -98 9 -98 10 0 2 11 26 25 53 24 48 34
122 17 122 -5 0 -16 6 -26 13 -16 11 -16 15 -1 49 8 21 15 50 15 66 0 28 -2
29 -61 36 -34 3 -85 6 -113 6 l-51 0 43 42 c46 47 64 46 89 -3 11 -21 13 -21
19 -6 7 19 54 47 79 47 27 0 65 -46 65 -80 0 -27 3 -30 24 -24 34 8 64 -3 71
-27 7 -21 7 -21 31 2 18 17 31 21 59 16 30 -5 35 -3 35 14 0 73 69 103 121 53
l26 -25 7 25 c9 37 49 45 87 17 l29 -22 0 35 c0 20 7 51 16 69 45 94 187 87
231 -10 10 -21 19 -40 20 -42 2 -2 12 8 24 22 23 30 41 34 59 12 17 -21 30
-19 30 4 0 25 46 61 77 61 24 0 66 -34 75 -60 3 -10 10 -9 31 5 15 9 27 22 27
27 0 6 -10 4 -22 -4 -20 -13 -24 -12 -48 15 -19 22 -35 29 -62 29 -43 0 -75
-15 -83 -41 -5 -16 -12 -19 -38 -14 -23 3 -37 0 -46 -11 -12 -14 -16 -12 -35
16 -49 74 -135 99 -200 59 -35 -22 -65 -68 -68 -104 -2 -22 -5 -24 -40 -19
-24 3 -46 -1 -61 -11 -20 -13 -27 -13 -48 -1 -13 7 -34 13 -45 14 -26 0 -72
-44 -76 -73 -2 -18 -9 -21 -31 -19 -15 2 -35 -2 -43 -9 -12 -10 -21 -9 -45 5
-16 9 -39 16 -52 14 -18 -2 -23 2 -25 24 -6 55 -91 88 -137 54 -16 -11 -22
-11 -46 3 -16 9 -30 25 -31 36 -2 15 -12 21 -40 23 -34 3 -36 5 -25 23 13 22
33 25 40 7 4 -10 7 -10 18 0 19 18 40 15 67 -10 l24 -23 -6 22 c-11 35 27 67
71 60 30 -5 34 -4 27 11 -4 9 -9 38 -12 65 -4 43 -1 50 32 83 33 33 40 36 83
32 27 -3 57 -8 67 -13 16 -7 18 -5 13 14 -4 15 1 29 15 43 19 19 40 20 79 4
14 -6 16 -1 15 31 -1 38 -1 38 43 43 39 4 42 7 28 19 -27 21 -22 68 9 84 23
12 24 15 10 26 -9 8 -16 20 -16 27 0 23 38 54 65 54 30 0 31 4 4 46 -30 49
-23 113 14 134 25 14 30 13 66 -6 l39 -21 7 35 c4 21 21 50 41 70 32 32 38 34
80 29 31 -3 54 -13 73 -31 l28 -27 26 53 c17 34 42 64 69 83 40 28 49 30 135
30 116 0 107 18 -9 21 -160 4 -353 50 -394 95 -24 27 -23 79 4 116 28 40 28
43 -9 43 -104 0 -175 53 -166 122 6 45 17 61 70 99 l38 27 -54 38 c-100 69
-132 155 -85 224 29 43 62 60 119 61 71 3 74 11 30 92 -49 89 -56 125 -38 168
27 64 107 113 204 125 82 11 81 11 80 121 -1 85 2 104 21 141 49 93 138 164
242 193 27 7 38 14 27 16 -20 5 -82 -13 -113 -32 -20 -13 -24 -9 -69 56 -53
77 -119 135 -202 176 -67 32 -191 42 -260 19z m265 -41 c82 -39 162 -113 200
-185 l24 -45 -60 -61 c-73 -74 -95 -131 -92 -237 1 -39 2 -77 1 -83 -1 -6 -22
-14 -48 -18 -88 -12 -143 -36 -196 -87 l-49 -48 4 -58 c3 -32 9 -66 13 -75 7
-17 -71 -18 -1566 -17 -1423 1 -1571 2 -1539 16 73 32 228 64 339 71 l114 7
18 55 c34 105 113 132 187 65 l39 -34 16 35 c25 52 70 63 152 39 18 -6 20 -2
16 45 -7 105 87 234 220 300 111 57 231 60 328 11 47 -25 126 -111 143 -157
14 -41 24 -43 32 -8 17 68 89 93 154 54 l32 -20 0 38 c0 56 26 165 49 211 30
58 85 110 150 139 45 21 72 26 141 26 77 1 92 -2 150 -31 115 -57 196 -156
215 -265 4 -21 10 -38 14 -38 4 0 17 13 29 30 42 56 143 64 196 15 l26 -24 5
27 c24 117 53 169 129 240 55 50 121 88 180 103 61 16 155 2 234 -36z m-703
-1112 c86 -44 126 -113 135 -237 7 -96 19 -116 68 -116 63 0 122 -59 122 -122
0 -12 -13 -50 -29 -84 l-28 -60 28 -32 c20 -23 29 -43 29 -67 0 -91 -61 -149
-176 -167 -38 -6 -76 -17 -84 -24 -9 -7 -33 -20 -53 -29 -46 -19 -44 -21 -56
105 -9 95 -9 95 22 155 59 114 67 132 77 163 5 18 6 32 2 32 -11 0 -43 -61
-36 -71 3 -5 -16 -48 -42 -96 l-48 -87 12 -115 c7 -64 15 -132 18 -151 6 -34
3 -38 -42 -73 -26 -20 -49 -36 -50 -34 -2 2 1 57 7 122 6 65 9 168 7 229 -3
109 -4 112 -45 184 -23 40 -40 78 -37 85 2 7 -4 22 -16 32 -33 30 -24 0 30
-100 l50 -92 0 -152 0 -151 -24 0 c-56 0 -103 34 -121 87 -12 34 -18 39 -62
49 -97 22 -138 57 -150 128 -7 46 18 113 56 150 26 25 28 30 17 58 -10 27 -9
32 11 45 l21 14 -19 56 c-12 33 -18 67 -14 83 8 38 52 76 101 89 50 13 60 24
79 87 16 55 65 110 111 124 35 11 87 4 129 -17z m-3776 -118 c136 -36 255
-127 309 -238 18 -36 32 -69 32 -75 0 -12 -114 8 -149 27 -12 7 -42 33 -65 57
-43 45 -72 55 -82 30 -7 -18 30 -92 51 -99 19 -8 20 -107 2 -183 l-12 -51 -65
36 c-81 44 -198 157 -206 200 -7 34 -24 52 -24 26 0 -9 5 -25 10 -36 10 -18 7
-19 -42 -19 -68 -1 -122 -25 -179 -83 -126 -128 -169 -336 -115 -550 56 -220
174 -406 473 -748 323 -370 433 -532 495 -729 20 -65 23 -95 23 -225 -1 -166
-13 -216 -78 -312 -44 -65 -70 -81 -158 -98 -255 -48 -1357 -77 -1824 -46
-406 26 -711 71 -797 118 -68 37 -246 222 -354 367 -23 32 -25 37 -9 29 11 -6
29 -21 40 -33 11 -12 29 -26 40 -32 11 -6 -19 30 -66 78 -131 136 -218 261
-114 165 47 -44 192 -141 210 -141 5 0 -22 21 -60 47 -106 70 -180 138 -225
205 -22 33 -40 64 -40 68 0 4 33 -25 73 -64 40 -39 87 -79 105 -89 20 -12 -1
14 -57 70 -70 69 -97 104 -125 163 -20 41 -36 80 -36 87 0 19 134 -92 164
-135 14 -21 43 -54 63 -73 40 -36 37 -30 -18 41 -43 55 -81 120 -71 120 5 0
21 -14 38 -31 81 -86 279 -195 374 -206 43 -5 63 -13 93 -40 21 -18 60 -47 87
-64 27 -16 65 -52 84 -80 64 -88 200 -173 413 -258 409 -162 873 -218 1178
-141 91 23 223 86 275 132 l35 31 -35 -22 c-69 -44 -184 -93 -279 -119 -88
-24 -112 -26 -301 -26 -225 0 -344 15 -567 74 -215 56 -473 160 -578 233 -52
36 -125 99 -125 107 0 5 33 -7 73 -25 97 -45 203 -80 305 -100 104 -21 118
-14 20 10 -93 22 -223 68 -315 110 -133 61 -294 177 -343 246 -18 24 -9 22 93
-32 162 -84 379 -161 491 -174 24 -3 5 5 -44 19 -341 98 -624 251 -721 392
-35 52 -63 130 -49 139 14 9 100 -38 180 -99 132 -99 403 -222 549 -250 55
-10 34 0 -84 40 -223 75 -414 183 -531 299 -59 59 -103 129 -104 163 0 9 23
12 83 12 45 0 163 7 262 16 112 10 227 14 305 11 91 -4 116 -3 90 4 -19 6
-107 13 -195 16 -183 6 -197 11 -299 104 -82 75 -75 99 31 99 44 0 63 -6 96
-29 46 -32 134 -71 241 -107 100 -34 116 -28 21 7 -197 74 -355 174 -315 199
43 27 377 -5 575 -55 226 -57 443 -147 602 -251 172 -111 356 -257 506 -402
83 -81 175 -164 203 -184 59 -43 170 -98 199 -98 11 0 -12 15 -50 34 -97 46
-175 107 -339 266 -348 337 -643 520 -1020 634 -101 31 -104 47 -8 54 93 7
218 -33 352 -113 33 -19 38 -21 20 -6 -43 37 -141 88 -270 142 -151 63 -166
74 -85 64 175 -21 562 -179 755 -308 169 -113 280 -226 486 -492 125 -162 211
-234 282 -235 26 0 28 -16 7 -67 -24 -58 -8 -51 20 8 48 103 26 261 -57 409
-44 77 -175 273 -245 366 -316 417 -413 633 -413 917 0 133 12 207 47 297 96
240 292 424 518 485 66 18 197 18 264 0z m1225 -5 c234 -60 440 -257 530 -508
30 -85 31 -91 31 -267 0 -158 -3 -190 -23 -260 -50 -173 -133 -317 -376 -649
-283 -386 -346 -508 -346 -668 0 -60 30 -157 55 -178 20 -16 19 -11 -5 41 -28
62 -26 69 11 59 36 -11 103 1 152 27 54 28 145 122 282 293 222 275 359 392
612 519 212 106 513 208 588 199 26 -3 22 -6 -31 -27 -113 -45 -320 -150 -340
-172 -17 -20 -15 -19 21 4 22 15 78 43 125 63 69 30 100 38 170 41 64 4 90 1
104 -10 18 -13 9 -18 -110 -56 -176 -56 -329 -125 -452 -202 -171 -106 -378
-268 -537 -419 -179 -170 -243 -220 -350 -272 -80 -38 -63 -42 30 -6 74 29
158 94 312 239 212 203 499 416 680 507 80 41 236 103 341 136 233 73 669 121
697 77 7 -13 -62 -72 -125 -108 -30 -17 -108 -50 -173 -73 -64 -24 -116 -45
-114 -47 7 -6 195 56 263 87 34 15 79 39 100 54 58 39 174 32 174 -10 0 -23
-78 -93 -153 -138 -61 -37 -63 -37 -142 -31 -84 6 -262 -8 -276 -22 -5 -5 31
-5 79 -1 57 5 154 3 282 -7 107 -8 241 -18 296 -21 l101 -7 -10 -33 c-16 -51
-93 -141 -177 -207 -90 -70 -314 -182 -457 -228 -56 -18 -101 -35 -99 -37 3
-2 49 8 103 23 120 33 287 106 385 169 40 26 111 72 157 102 46 30 90 54 98
54 36 0 -12 -113 -79 -186 -80 -86 -235 -181 -413 -253 -102 -40 -322 -110
-353 -112 -9 0 -12 -3 -6 -5 39 -16 344 84 511 167 120 60 130 63 112 38 -85
-120 -373 -278 -629 -345 -47 -12 -75 -23 -63 -23 55 -2 276 65 370 113 67 34
73 33 37 -5 -108 -115 -409 -248 -739 -329 -217 -52 -321 -65 -550 -64 -184 0
-221 3 -299 22 -93 23 -235 85 -295 128 -29 20 -27 17 9 -15 234 -212 786
-224 1374 -30 264 86 473 204 539 301 15 23 58 61 95 86 37 25 79 56 95 70 21
20 42 27 96 33 101 11 256 93 371 196 27 25 50 40 50 34 0 -6 -29 -49 -65 -95
-71 -94 -67 -108 5 -19 49 61 48 60 133 128 32 26 60 45 63 42 8 -8 -27 -88
-61 -142 -36 -56 -85 -109 -160 -174 -41 -34 -44 -39 -17 -24 19 10 72 53 118
96 89 83 104 88 52 16 -48 -66 -125 -138 -214 -198 -102 -70 -114 -83 -39 -41
65 35 121 76 173 124 87 81 -7 -54 -117 -167 -46 -48 -81 -87 -76 -87 5 0 26
17 47 37 21 20 40 34 43 32 8 -8 -122 -167 -218 -266 -137 -142 -187 -167
-392 -197 -394 -58 -971 -84 -1485 -67 -692 23 -921 39 -1039 71 -78 21 -147
110 -185 239 -20 69 -21 260 -2 352 41 190 158 378 432 689 182 207 318 375
379 467 71 106 158 287 179 373 54 215 17 415 -101 541 -61 65 -113 92 -181
93 -30 1 -51 5 -48 11 22 60 15 77 -8 20 -22 -53 -110 -140 -193 -192 -41 -25
-75 -44 -77 -42 -2 2 -8 31 -14 63 -17 85 -15 151 4 167 22 18 56 88 49 99
-14 22 -49 7 -96 -39 -49 -49 -57 -52 -176 -77 -31 -6 -29 7 9 79 43 81 109
145 195 190 128 67 236 81 367 47z m-3777 -252 c14 -13 35 -43 46 -68 19 -39
26 -45 57 -48 94 -7 110 -29 110 -155 l0 -84 45 -17 c76 -30 112 -104 80 -166
-20 -39 -53 -59 -117 -74 -53 -11 -53 -12 -50 -47 2 -23 -2 -42 -13 -52 -18
-19 -77 -36 -132 -40 l-38 -2 -3 75 c-2 51 4 105 18 168 12 51 19 98 17 105
-3 6 -19 -19 -36 -57 -18 -37 -30 -70 -27 -73 5 -6 36 63 36 80 0 6 3 8 6 5 3
-3 -2 -34 -12 -69 -13 -51 -15 -92 -11 -204 3 -77 10 -155 16 -173 9 -29 8
-32 -7 -28 -9 2 -40 9 -69 16 l-51 12 9 31 c11 38 29 260 30 372 1 120 15 138
21 27 5 -84 11 -113 22 -101 2 2 -2 60 -10 129 -7 69 -13 129 -14 135 0 5 -4
5 -10 -1 -5 -5 -14 -95 -20 -199 -7 -105 -14 -200 -16 -212 -5 -26 -41 -32
-50 -8 -4 8 -18 15 -33 15 -15 0 -37 7 -49 16 -20 14 -23 23 -20 62 3 44 2 46
-29 54 -33 9 -63 41 -63 68 0 8 7 27 15 43 13 25 12 31 -7 62 -27 48 -18 82
25 93 32 8 32 9 33 71 1 67 23 104 68 115 15 4 27 19 36 46 8 23 31 56 53 77
35 31 44 35 79 30 22 -3 51 -16 65 -29z m1194 -15 c56 -30 85 -67 107 -136 15
-46 22 -53 59 -67 22 -8 50 -23 61 -33 43 -39 37 -138 -12 -210 l-25 -36 26
-16 c25 -17 27 -34 9 -76 -5 -10 2 -20 20 -29 58 -32 73 -128 29 -193 -40 -57
-95 -81 -190 -83 -51 0 -93 -7 -117 -17 -67 -30 -71 -27 -67 61 4 72 9 88 61
193 31 63 54 116 52 118 -8 8 -35 -23 -30 -35 3 -8 1 -13 -4 -11 -5 1 -27 -18
-49 -43 l-40 -45 -2 95 c-6 240 -8 265 -18 255 -11 -12 -31 -106 -31 -145 0
-17 -3 -30 -7 -29 -5 0 -25 23 -46 50 -21 28 -41 49 -43 46 -3 -3 16 -51 41
-107 44 -95 47 -105 41 -163 -3 -34 -8 -108 -12 -164 l-7 -103 -28 0 c-53 0
-110 30 -125 66 -8 18 -14 43 -14 54 0 15 -7 20 -27 20 -52 0 -102 20 -128 52
-23 27 -26 39 -22 75 3 25 16 57 32 79 l27 35 -24 37 c-14 20 -31 54 -38 76
-11 34 -10 41 7 64 11 14 34 30 51 34 29 8 32 12 32 49 0 47 35 89 73 89 21 0
25 6 31 41 25 155 201 232 347 152z m1473 21 c9 -22 -3 -32 -14 -14 -12 19
-12 30 -1 30 5 0 12 -7 15 -16z m752 -31 c-11 -11 -19 6 -11 24 8 17 8 17 12
0 3 -10 2 -21 -1 -24z m1412 -49 c34 -23 62 -87 69 -156 7 -79 17 -98 49 -98
14 0 36 -12 51 -26 23 -23 25 -30 19 -77 -15 -112 -16 -110 31 -120 85 -17
104 -83 53 -183 -19 -37 -30 -74 -30 -100 0 -55 -24 -82 -81 -92 -34 -7 -55
-19 -85 -50 -21 -23 -48 -42 -59 -44 -19 -3 -20 4 -25 104 -3 59 -9 111 -13
115 -9 8 1 -214 12 -293 7 -49 6 -51 -22 -67 -16 -10 -33 -15 -38 -11 -5 3 -9
59 -8 124 1 112 -1 121 -27 167 l-28 48 27 -24 c28 -26 31 -24 40 31 2 15 0
25 -4 22 -5 -3 -9 -17 -9 -32 l0 -26 -35 34 c-30 29 -35 31 -35 14 0 -10 14
-41 30 -69 22 -37 30 -63 30 -99 l0 -49 -52 5 c-54 6 -88 31 -88 68 0 13 -11
20 -37 25 -71 13 -103 32 -119 72 -25 59 -13 111 35 153 l40 35 -19 70 c-26
90 -26 91 10 127 17 16 30 40 30 53 0 36 18 77 48 107 15 15 35 37 45 48 9 11
28 20 41 20 26 0 36 16 36 60 0 38 17 80 42 108 25 26 45 28 76 6z m-2413 -71
c34 -38 85 -77 143 -112 84 -48 99 -63 179 -164 173 -220 238 -273 282 -233
16 15 19 15 31 1 16 -19 43 -19 79 0 31 16 181 185 246 278 32 45 58 68 128
109 50 30 111 76 143 110 34 36 68 61 85 65 87 17 203 -67 264 -190 59 -120
75 -337 24 -337 -30 0 -63 -39 -84 -98 -10 -28 -22 -52 -26 -52 -6 0 -30 58
-44 110 -10 33 -52 105 -71 121 -19 16 -36 -6 -58 -77 -9 -29 -34 -90 -55
-136 l-39 -83 -16 39 c-9 21 -16 42 -16 47 0 17 -63 79 -80 79 -18 0 -56 -75
-81 -158 l-12 -42 -18 30 c-33 54 -59 36 -109 -75 -38 -86 -90 -142 -145 -156
-22 -5 -91 -26 -154 -46 -140 -44 -149 -41 -201 62 -48 95 -73 97 -127 12 -23
-36 -26 -38 -42 -23 -10 9 -24 16 -32 16 -9 0 -19 18 -26 48 -17 75 -39 119
-67 137 -39 26 -63 11 -99 -61 -31 -63 -47 -79 -47 -47 0 20 -28 116 -45 158
-7 17 -18 42 -24 58 -12 31 -65 67 -100 67 -26 0 -71 -35 -71 -55 0 -16 -57
-68 -63 -58 -16 25 -48 166 -53 233 -21 249 123 479 300 480 47 0 51 -2 101
-57z m433 -15 c7 -7 12 -28 12 -47 0 -19 8 -44 18 -55 10 -12 24 -46 31 -76 6
-30 34 -103 62 -163 48 -100 55 -137 29 -137 -18 0 -120 107 -209 220 -93 118
-108 135 -92 103 19 -38 167 -218 228 -279 44 -44 50 -53 25 -38 -35 22 -196
209 -244 283 -42 67 -38 80 43 144 40 32 75 57 78 57 4 0 12 -5 19 -12z m2635
-8 c19 -15 29 -37 38 -80 10 -53 14 -59 38 -62 43 -5 55 -44 37 -120 l-15 -63
31 -53 c49 -85 28 -151 -61 -197 l-49 -24 -7 107 c-3 59 -8 114 -10 122 -5 16
3 -280 7 -302 2 -8 -9 -14 -26 -16 l-28 -4 7 85 c6 80 5 89 -24 158 l-30 74
28 -34 c24 -29 29 -31 34 -17 4 10 7 28 7 41 0 13 5 27 10 30 12 8 13 52 1 59
-9 6 -20 -48 -21 -99 l-1 -30 -39 45 c-47 54 -51 38 -10 -48 22 -47 30 -78 30
-118 0 -55 0 -55 -22 -40 -12 9 -34 16 -49 16 -84 0 -130 53 -102 121 13 34
13 39 -6 70 -40 65 -20 141 38 154 27 6 30 11 33 47 2 34 8 44 32 57 20 12 33
30 42 60 12 41 39 81 54 81 4 0 19 -9 33 -20z m-2186 -23 c21 -18 52 -43 70
-55 29 -20 31 -25 22 -54 -11 -40 -42 -86 -115 -174 -80 -96 -135 -154 -159
-165 -11 -6 -4 5 16 23 47 43 208 236 233 280 24 43 19 37 -108 -119 -131
-161 -196 -215 -196 -164 0 10 21 62 46 117 25 54 51 124 58 155 6 32 20 67
30 78 10 11 21 41 23 66 7 56 27 59 80 12z m-2228 -489 c3 -19 23 -4 58 42 20
27 38 48 40 47 1 -2 -15 -38 -37 -81 -61 -122 -72 -207 -50 -385 6 -46 10 -85
8 -86 -2 -2 -23 2 -46 8 l-44 12 6 50 c3 27 11 145 17 261 l11 210 -33 70
c-45 95 -45 94 -7 50 19 -22 37 -35 41 -30 3 5 9 39 14 74 7 60 8 54 14 -85 4
-82 7 -153 8 -157z m-593 268 c8 -14 22 -49 29 -78 18 -72 60 -181 71 -185 5
-2 19 15 32 37 12 22 29 40 38 40 12 0 13 -4 4 -20 -6 -12 -12 -38 -13 -59 -2
-69 51 -121 132 -131 44 -5 46 -7 52 -42 10 -63 42 -86 141 -103 l38 -6 -7
-77 c-3 -42 -7 -78 -8 -80 -1 -1 -26 2 -55 8 -143 27 -186 0 -77 -50 62 -29
62 -29 25 -30 -20 0 -48 -4 -62 -10 -19 -7 -39 -3 -88 16 -35 14 -108 38 -163
54 -55 15 -149 49 -210 75 -60 26 -161 64 -224 85 -62 21 -118 45 -123 53 -5
9 -11 46 -15 82 -6 65 -6 65 20 65 46 0 121 20 146 39 17 13 25 30 26 57 2 36
5 39 39 46 20 4 51 15 68 24 25 13 32 14 39 2 7 -11 9 -11 9 1 0 29 101 211
116 211 2 0 11 -11 20 -24z m6625 -42 c29 -6 29 -5 -8 -73 -1 -2 -14 6 -28 18
-75 58 -177 21 -201 -74 -5 -19 -11 -24 -23 -19 -9 4 -32 9 -52 12 -67 7 -99
-66 -62 -143 9 -19 15 -36 12 -37 -2 -2 -17 -10 -34 -18 -25 -13 -30 -22 -31
-53 0 -20 -8 -45 -19 -56 -12 -15 -16 -29 -12 -51 5 -21 3 -30 -6 -30 -23 0
-48 -24 -50 -48 -1 -18 -7 -22 -36 -22 -36 0 -71 -23 -71 -47 0 -10 -9 -12
-34 -7 -75 13 -153 -41 -163 -113 -3 -22 0 -50 6 -62 11 -20 9 -21 -23 -21
-24 0 -40 -7 -53 -23 -15 -19 -25 -22 -70 -19 -40 3 -54 8 -58 23 -6 19 -60
39 -108 39 -24 0 -26 2 -15 19 18 29 -4 48 -62 56 -45 6 -51 11 -75 51 -53 90
-155 127 -295 106 -44 -6 -108 -23 -143 -37 -34 -14 -95 -30 -135 -36 -73 -10
-217 -51 -300 -84 -42 -17 -46 -17 -98 1 -30 10 -54 21 -54 24 0 6 246 144
325 183 71 34 229 93 305 113 39 10 101 17 155 17 102 0 214 -32 388 -109 53
-23 97 -39 97 -35 0 5 -24 19 -52 31 l-53 23 55 49 c93 83 292 242 355 284
130 87 244 138 380 170 60 14 285 13 346 -2z m-7464 -106 c8 -9 28 -22 44 -28
25 -11 29 -17 27 -53 -2 -47 26 -77 73 -77 18 0 32 -7 39 -20 6 -11 20 -20 32
-20 19 0 20 -4 13 -57 -4 -31 -9 -61 -11 -68 -3 -8 -35 -6 -117 6 -62 10 -190
23 -284 30 -131 10 -173 16 -173 26 0 28 -41 93 -76 119 -49 38 -129 45 -178
16 l-34 -20 -15 41 c-8 23 -17 50 -21 59 -6 12 1 21 24 33 28 15 42 15 121 4
152 -20 338 7 379 56 19 22 25 19 45 -25 21 -46 32 -50 45 -15 5 14 17 37 27
52 l18 27 3 -34 c2 -19 10 -42 19 -52z m6764 -28 c-50 -33 -94 -60 -96 -60 -3
0 -5 13 -5 29 0 23 5 30 27 36 15 3 40 17 56 31 20 17 41 24 69 24 l40 0 -91
-60z m-2555 -60 c35 -97 58 -150 65 -150 4 0 19 32 34 70 27 70 66 114 84 94
16 -17 -53 -227 -99 -301 l-20 -33 -99 0 c-137 0 -373 -33 -546 -75 l-30 -8
25 27 c14 15 43 64 65 109 48 97 68 108 92 48 18 -47 28 -46 38 6 8 46 64 183
74 183 18 0 61 -60 81 -110 12 -30 25 -58 29 -63 7 -7 111 210 111 232 0 7 7
26 16 44 l17 31 23 -29 c13 -17 31 -50 40 -75z m1870 33 c13 -14 32 -51 40
-82 9 -31 20 -60 25 -65 4 -5 19 15 32 46 14 31 30 58 36 62 12 8 39 -31 79
-116 15 -32 30 -58 34 -58 4 0 18 23 30 52 l22 52 18 -42 c20 -45 29 -50 48
-27 13 16 54 21 48 7 -4 -11 -149 -141 -168 -152 -9 -5 -49 6 -105 27 -109 42
-199 63 -281 63 -61 0 -62 0 -68 32 -3 17 -5 32 -4 33 2 2 27 15 56 29 59 30
92 74 92 122 0 52 27 60 66 17z m-476 -79 c0 -21 55 -51 108 -59 62 -9 82 -24
82 -60 0 -16 -4 -35 -8 -42 -4 -7 -48 -26 -97 -43 -113 -40 -229 -94 -368
-171 -59 -33 -112 -57 -117 -54 -6 3 -10 23 -10 45 0 31 4 39 24 44 13 3 39
23 58 44 25 27 46 41 73 45 73 12 105 49 105 125 1 20 11 56 24 80 l22 44 19
-42 c21 -46 25 -44 49 23 16 44 36 55 36 21z m-2989 -27 c22 -14 37 -35 44
-59 6 -21 16 -43 23 -50 6 -6 12 -22 12 -35 0 -28 40 -153 49 -153 4 0 23 34
44 76 34 68 40 75 64 72 37 -4 60 -41 80 -126 15 -62 20 -72 36 -68 10 2 27
-4 37 -14 18 -18 19 -17 57 33 21 29 45 52 53 52 8 0 29 -29 47 -65 18 -36 42
-73 54 -83 12 -9 20 -19 18 -21 -2 -1 -80 -31 -173 -66 -166 -61 -171 -63
-245 -57 -75 6 -76 6 -119 53 -55 60 -173 237 -218 326 -34 68 -34 69 -17 98
9 17 21 30 26 30 4 0 13 14 19 31 9 28 35 47 64 48 6 1 26 -9 45 -22z m-700
-57 c27 -15 46 -57 59 -133 12 -69 17 -76 39 -54 10 10 16 7 31 -11 l19 -24
28 56 c25 52 43 71 43 45 0 -16 85 -181 131 -254 23 -36 40 -68 38 -70 -2 -2
-94 5 -204 15 -110 10 -281 21 -380 24 -186 6 -239 15 -249 43 -4 9 -9 54 -12
102 l-6 86 61 23 c45 17 77 22 123 20 l62 -3 11 -39 c7 -22 16 -41 21 -42 5
-2 23 24 39 58 27 54 52 92 100 151 17 20 20 20 46 7z m2887 -107 c15 -27 57
-50 109 -61 28 -6 39 -14 43 -31 8 -37 52 -64 104 -65 l46 -1 0 -57 c0 -34 -4
-58 -10 -58 -6 0 -68 17 -138 39 -70 21 -178 51 -240 66 -72 18 -111 32 -108
39 17 37 75 182 80 200 6 20 7 19 22 -8 15 -27 17 -28 26 -10 6 10 18 30 27
44 l16 25 5 -50 c3 -27 11 -60 18 -72z m-4908 17 c151 -13 331 -42 460 -75
218 -56 487 -165 405 -165 -21 0 -29 -24 -15 -49 10 -21 9 -21 -83 -21 -111 0
-138 -12 -119 -54 l12 -26 -49 0 c-33 0 -56 -6 -72 -19 -21 -17 -23 -22 -13
-50 12 -29 11 -30 -20 -33 -27 -3 -31 -7 -31 -31 -1 -42 -25 -52 -50 -21 -16
20 -30 26 -58 26 -27 0 -45 7 -62 24 -25 25 -55 30 -84 14 -15 -8 -20 -3 -30
30 -12 42 -35 60 -74 60 -21 0 -25 6 -31 41 -13 83 -97 116 -174 69 -41 -25
-42 -25 -42 2 0 29 -28 58 -56 58 -20 0 -22 4 -17 35 7 42 -9 65 -44 65 -20 0
-24 4 -18 18 5 9 12 40 18 69 l10 52 56 -4 c31 -3 112 -10 181 -15z m1863 -62
c-25 -50 -27 -52 -34 -28 -12 42 -10 48 19 63 43 23 44 20 15 -35z m2500 -54
c9 -9 -81 -140 -182 -266 l-86 -107 -45 -1 c-25 0 -209 11 -410 25 -201 14
-421 28 -490 33 l-125 7 120 43 c321 117 380 136 520 172 83 22 204 49 270 61
154 27 414 47 428 33z m477 -89 c163 -42 510 -148 510 -155 0 -4 -17 -12 -37
-19 -50 -17 -268 -126 -303 -151 -23 -16 -44 -20 -110 -20 -84 0 -422 20 -428
25 -2 2 37 61 86 132 49 70 102 149 117 176 15 26 28 47 28 47 1 0 63 -16 137
-35z m1373 -14 c33 -20 87 -84 87 -102 0 -4 -18 -9 -40 -11 -33 -3 -39 -1 -34
12 4 8 9 25 11 37 11 50 -92 39 -280 -29 -119 -42 -122 -43 -206 -31 l-53 8
61 28 c42 19 61 34 61 46 0 12 14 24 43 34 76 29 120 36 217 34 80 -2 102 -6
133 -26z m-5118 -82 c134 -43 175 -64 110 -55 -22 3 -94 13 -160 22 -162 21
-163 21 -175 44 -29 53 40 50 225 -11z m5125 18 c0 -8 -10 -23 -22 -34 -18
-16 -48 -23 -131 -33 -59 -7 -135 -18 -168 -24 -32 -7 -59 -9 -59 -5 0 4 33
19 73 34 185 67 307 92 307 62z m-4000 -72 c91 -8 176 -17 190 -21 18 -4 58
-51 148 -176 68 -94 121 -172 119 -174 -2 -3 -70 -8 -152 -14 l-148 -9 -68 61
c-141 127 -317 234 -534 325 l-80 34 180 -5 c99 -3 254 -12 345 -21z m955 -95
c206 -11 719 -46 827 -56 l68 -6 -76 -89 -77 -89 -176 -1 c-97 0 -183 -2 -191
-3 -8 -2 -114 -6 -235 -10 l-220 -6 -100 116 c-55 64 -109 127 -119 141 l-20
26 65 -7 c35 -3 150 -11 254 -16z m-2538 -117 l76 -48 -62 -9 -62 -9 -50 49
c-27 26 -49 55 -49 62 0 26 67 6 147 -45z m5951 19 c2 -7 -18 -33 -45 -57 -44
-41 -52 -45 -98 -44 -43 0 -111 16 -79 18 6 1 39 19 72 41 84 54 140 70 150
42z m-1839 -12 c101 -5 186 -12 188 -14 2 -2 -11 -14 -29 -27 -18 -12 -45 -33
-60 -47 -27 -24 -31 -25 -260 -32 -128 -5 -235 -6 -237 -4 -2 2 1 9 6 16 5 7
29 39 52 71 l43 59 56 -6 c32 -3 140 -11 241 -16z m-45 -224 l-89 -94 -197 -1
c-109 -1 -198 1 -198 4 0 3 25 43 56 90 l57 85 161 3 c88 1 192 4 230 5 l69 2
-89 -94z m-877 -11 l-72 -85 -205 -2 c-113 0 -227 -2 -254 -3 -39 -1 -53 3
-67 19 -9 12 -38 46 -64 76 l-46 55 63 8 c65 7 697 25 710 19 4 -1 -25 -41
-65 -87z m-1087 -14 c22 -33 40 -62 40 -65 0 -4 -66 -6 -147 -5 l-148 0 -48
57 -49 57 74 6 c40 3 110 6 155 7 l82 2 41 -59z m3970 -20 c0 -5 -7 -12 -16
-15 -24 -9 -28 -7 -14 9 14 17 30 20 30 6z m-2120 -73 c0 -18 -182 -238 -242
-292 -82 -74 -132 -98 -199 -94 -48 3 -53 5 -60 31 -15 55 9 157 58 257 l48
95 125 5 c210 8 270 8 270 -2z m-1745 -90 c44 -95 69 -191 63 -243 -3 -28 -6
-30 -38 -27 -39 3 -99 39 -143 86 -39 41 -217 263 -217 270 0 3 66 6 146 6
l145 0 44 -92z m846 24 c-68 -93 -127 -205 -165 -313 l-33 -92 -11 45 c-21 83
-82 211 -150 312 -37 56 -68 104 -70 109 -2 4 105 7 237 7 l241 0 -49 -68z
m3183 -71 l29 -6 -57 -43 c-102 -78 -263 -152 -327 -152 -17 0 -16 3 4 37 12
20 54 67 92 104 l70 68 80 0 c44 -1 93 -4 109 -8z"/>
<path d="M8250 6588 c0 -29 -3 -77 -7 -106 l-6 -53 -28 33 c-16 18 -28 28 -29
22 0 -5 15 -25 34 -43 41 -40 46 -32 46 81 0 45 2 79 5 76 3 -2 10 -65 15
-139 13 -166 14 -168 43 -132 39 47 69 94 65 99 -3 2 -20 -18 -39 -46 -19 -27
-37 -50 -40 -50 -4 0 -10 48 -13 108 -7 117 -23 202 -37 202 -5 0 -9 -24 -9
-52z"/>
<path d="M2751 5102 c-13 -4 -33 -19 -44 -34 -17 -22 -18 -30 -8 -61 11 -33
68 -94 119 -127 22 -14 19 -15 -51 -15 -60 0 -79 -4 -96 -19 -24 -22 -27 -56
-7 -94 20 -38 102 -113 161 -147 64 -36 61 -33 47 -47 -20 -20 -13 -56 18 -91
26 -30 28 -36 15 -47 -39 -32 1 -116 82 -169 50 -34 158 -71 202 -71 16 1 0 9
-45 24 -139 45 -234 117 -234 177 0 46 19 51 95 23 37 -14 75 -23 84 -21 9 1
-9 11 -39 21 -129 43 -196 100 -166 142 12 16 18 17 52 5 86 -28 94 -30 89
-20 -4 5 -11 9 -17 9 -24 0 -178 81 -236 124 -92 69 -128 142 -85 177 17 15
126 19 178 6 l30 -7 -25 18 c-146 103 -193 177 -138 216 32 23 156 21 248 -3
95 -25 103 -19 13 9 -72 22 -202 34 -242 22z"/>
<path d="M3161 4431 c-1 -14 6 -32 15 -42 15 -17 15 -19 0 -34 -9 -9 -16 -23
-16 -30 0 -22 50 -74 90 -95 31 -16 37 -23 33 -44 -12 -59 112 -125 247 -132
l75 -3 -73 14 c-147 28 -232 71 -232 117 0 16 4 19 23 14 90 -26 135 -36 157
-35 14 0 -10 9 -53 20 -84 20 -188 68 -224 101 -35 33 -29 75 10 69 15 -2 6
19 -13 29 -11 6 -24 25 -29 43 -8 27 -9 28 -10 8z"/>
<path d="M4979 4362 c5 -34 6 -35 9 -8 2 16 0 32 -5 37 -5 5 -7 -7 -4 -29z"/>
<path d="M5002 4245 c0 -16 2 -22 5 -12 2 9 2 23 0 30 -3 6 -5 -1 -5 -18z"/>
<path d="M4951 4234 c0 -11 3 -14 6 -6 3 7 2 16 -1 19 -3 4 -6 -2 -5 -13z"/>
<path d="M4887 4178 c-4 -21 -20 -52 -35 -69 -15 -19 -20 -30 -12 -28 20 6 63
93 58 116 -3 11 -7 3 -11 -19z"/>
<path d="M4811 4104 c0 -11 3 -14 6 -6 3 7 2 16 -1 19 -3 4 -6 -2 -5 -13z"/>
<path d="M4940 4079 c-7 -11 -10 -23 -7 -25 2 -2 9 7 15 21 14 30 7 33 -8 4z"/>
<path d="M4965 4060 c-10 -11 -13 -20 -7 -20 6 0 16 9 22 20 6 11 9 20 7 20
-2 0 -12 -9 -22 -20z"/>
<path d="M2399 4026 c6 -8 25 -19 41 -26 18 -8 30 -20 30 -31 0 -26 38 -48 96
-55 27 -4 59 -15 71 -26 13 -13 40 -22 70 -24 l48 -4 -48 13 c-26 8 -56 22
-67 32 -11 10 -38 19 -60 21 -47 4 -92 23 -98 42 -2 7 5 12 17 12 12 0 21 5
21 10 0 6 -10 10 -23 10 -12 0 -40 9 -62 20 -47 24 -51 25 -36 6z"/>
<path d="M7294 5075 c-34 -7 -81 -23 -105 -34 -24 -12 -35 -19 -25 -16 129 37
185 47 249 43 57 -3 73 -8 88 -26 14 -19 16 -28 8 -50 -13 -35 -72 -96 -133
-138 l-50 -33 87 6 c71 5 91 3 112 -11 33 -22 32 -53 -4 -103 -42 -57 -101
-101 -220 -161 -97 -49 -107 -60 -22 -26 30 13 37 13 49 0 40 -40 -22 -99
-156 -147 -97 -35 -67 -38 35 -4 67 23 78 24 91 11 52 -52 -81 -171 -243 -217
-39 -12 -51 -18 -33 -18 14 -1 54 8 87 18 149 46 258 164 202 220 l-20 20 35
35 c37 37 43 66 19 86 -14 11 -9 17 34 41 75 41 131 88 163 138 34 55 35 72 4
108 -22 25 -30 28 -90 28 l-66 0 27 19 c196 138 122 264 -123 211z"/>
<path d="M7041 4403 c0 -12 -12 -30 -26 -41 -30 -24 -31 -28 -5 -35 12 -3 20
-14 20 -27 0 -49 -95 -105 -250 -147 -77 -21 -80 -23 -30 -17 30 4 72 13 94
20 52 19 66 18 66 -5 0 -41 -107 -94 -227 -111 -89 -12 -94 -24 -8 -17 151 13
266 79 249 144 -4 15 4 24 36 38 72 33 110 96 75 125 -14 12 -14 15 1 31 9 10
14 28 11 41 -4 22 -4 22 -6 1z"/>
<path d="M5170 4360 c0 -16 2 -30 4 -30 2 0 6 14 8 30 3 17 1 30 -4 30 -4 0
-8 -13 -8 -30z"/>
<path d="M5140 4247 c0 -14 5 -29 10 -32 7 -4 8 3 4 22 -9 38 -14 42 -14 10z"/>
<path d="M5190 4236 c0 -8 4 -17 9 -20 5 -4 7 3 4 14 -6 23 -13 26 -13 6z"/>
<path d="M5256 4173 c10 -40 29 -75 52 -97 23 -20 43 -14 41 12 -1 15 -2 15
-6 0 -2 -10 -8 -18 -13 -18 -15 0 -50 52 -60 91 -12 44 -24 54 -14 12z"/>
<path d="M5172 4055 c6 -14 15 -25 20 -25 5 0 1 11 -8 25 -9 14 -18 25 -20 25
-2 0 2 -11 8 -25z"/>
<path d="M5210 4061 c0 -6 4 -13 10 -16 6 -3 7 1 4 9 -7 18 -14 21 -14 7z"/>
<path d="M7831 4006 c-7 -8 -34 -20 -62 -27 -49 -13 -66 -29 -29 -29 11 0 20
-4 20 -8 0 -15 -58 -42 -89 -42 -17 0 -31 -5 -31 -10 0 -16 70 -2 100 20 14 9
25 25 25 34 0 10 17 24 41 35 23 11 45 24 48 30 10 16 -10 13 -23 -3z"/>
<path d="M7591 3869 c-15 -12 -40 -19 -70 -20 -38 0 -43 -2 -25 -10 25 -13 95
4 114 26 19 23 8 26 -19 4z"/>
<path d="M4874 6345 c-8 -34 3 -90 22 -105 8 -7 16 -11 18 -9 7 8 -16 139 -25
139 -5 0 -11 -11 -15 -25z"/>
<path d="M5267 6313 c-3 -27 -9 -56 -12 -65 -5 -12 -2 -18 7 -18 27 0 48 73
32 114 -11 29 -21 17 -27 -31z"/>
<path d="M5913 4783 c26 -2 68 -2 95 0 26 2 4 3 -48 3 -52 0 -74 -1 -47 -3z"/>
<path d="M5818 4703 c17 -2 47 -2 65 0 17 2 3 4 -33 4 -36 0 -50 -2 -32 -4z"/>
<path d="M5808 4593 c18 -2 45 -2 60 0 15 2 0 4 -33 4 -33 0 -45 -2 -27 -4z"/>
<path d="M4218 4773 c12 -2 32 -2 45 0 12 2 2 4 -23 4 -25 0 -35 -2 -22 -4z"/>
<path d="M4258 4723 c18 -2 45 -2 60 0 15 2 0 4 -33 4 -33 0 -45 -2 -27 -4z"/>
<path d="M4343 4633 c9 -2 23 -2 30 0 6 3 -1 5 -18 5 -16 0 -22 -2 -12 -5z"/>
<path d="M5053 4773 c20 -2 54 -2 75 0 20 2 3 4 -38 4 -41 0 -58 -2 -37 -4z"/>
<path d="M5038 4693 c7 -3 16 -2 19 1 4 3 -2 6 -13 5 -11 0 -14 -3 -6 -6z"/>
<path d="M5068 4623 c12 -2 32 -2 45 0 12 2 2 4 -23 4 -25 0 -35 -2 -22 -4z"/>
<path d="M1118 4753 c46 -2 118 -2 160 0 42 1 5 3 -83 3 -88 0 -123 -2 -77 -3z"/>
<path d="M938 4673 c45 -2 119 -2 165 0 45 1 8 3 -83 3 -91 0 -128 -2 -82 -3z"/>
<path d="M1448 4613 c12 -2 30 -2 40 0 9 3 -1 5 -23 4 -22 0 -30 -2 -17 -4z"/>
<path d="M8883 4593 c20 -2 54 -2 75 0 20 2 3 4 -38 4 -41 0 -58 -2 -37 -4z"/>
<path d="M788 4554 c-50 -15 -2 -21 140 -19 186 4 330 -7 467 -36 209 -44 252
-88 133 -139 -118 -50 -319 -75 -605 -75 -118 1 -153 -2 -153 -12 0 -19 331
-17 486 2 252 31 377 82 360 148 -7 31 -34 48 -116 75 -109 36 -251 53 -480
57 -118 2 -223 2 -232 -1z"/>
<path d="M850 4506 c0 -2 8 -10 18 -17 15 -13 16 -12 3 4 -13 16 -21 21 -21
13z"/>
<path d="M909 4463 c20 -17 21 -21 7 -26 -22 -9 -9 -37 18 -36 17 1 18 2 3 6
-33 8 -11 28 34 31 51 3 83 -12 59 -27 -8 -6 -12 -12 -9 -16 3 -3 14 4 24 15
17 19 17 20 -9 30 -15 5 -43 10 -62 10 -19 0 -47 7 -62 16 l-27 16 24 -19z"/>
<path d="M1308 4463 c7 -3 16 -2 19 1 4 3 -2 6 -13 5 -11 0 -14 -3 -6 -6z"/>
<path d="M1148 4443 c7 -3 16 -2 19 1 4 3 -2 6 -13 5 -11 0 -14 -3 -6 -6z"/>
<path d="M848 4433 c7 -3 16 -2 19 1 4 3 -2 6 -13 5 -11 0 -14 -3 -6 -6z"/>
<path d="M8995 4433 c-76 -6 -230 -36 -284 -55 -61 -20 -101 -52 -101 -79 0
-45 105 -93 270 -124 194 -36 590 -44 590 -12 0 9 -62 12 -228 13 -231 1 -317
9 -450 45 -161 42 -192 82 -99 124 110 50 377 80 635 72 118 -4 142 -3 142 9
0 12 -36 14 -217 12 -120 -1 -236 -3 -258 -5z"/>
<path d="M973 4393 c9 -2 23 -2 30 0 6 3 -1 5 -18 5 -16 0 -22 -2 -12 -5z"/>
<path d="M1060 4376 c0 -3 9 -10 20 -16 11 -6 20 -8 20 -6 0 3 -9 10 -20 16
-11 6 -20 8 -20 6z"/>
<path d="M9314 4364 c-18 -14 -18 -15 4 -4 12 6 22 13 22 15 0 8 -5 6 -26 -11z"/>
<path d="M9226 4340 c-63 -11 -26 -50 48 -50 31 0 66 24 53 36 -11 11 -72 20
-101 14z m78 -19 c3 -5 0 -11 -7 -13 -19 -7 -87 3 -87 13 0 12 87 12 94 0z"/>
<path d="M9018 4333 c7 -3 16 -2 19 1 4 3 -2 6 -13 5 -11 0 -14 -3 -6 -6z"/>
<path d="M9125 4320 c3 -5 13 -10 21 -10 8 0 14 5 14 10 0 6 -9 10 -21 10 -11
0 -17 -4 -14 -10z"/>
<path d="M9013 4303 c9 -2 25 -2 35 0 9 3 1 5 -18 5 -19 0 -27 -2 -17 -5z"/>
<path d="M8908 4293 c6 -2 18 -2 25 0 6 3 1 5 -13 5 -14 0 -19 -2 -12 -5z"/>
<path d="M9335 4265 c11 -9 29 -21 40 -26 l20 -10 -20 16 c-11 9 -29 21 -40
26 l-20 10 20 -16z"/>
<path d="M9090 4250 c-8 -5 -10 -10 -5 -10 6 0 17 5 25 10 8 5 11 10 5 10 -5
0 -17 -5 -25 -10z"/>
<path d="M1298 4183 c7 -3 16 -2 19 1 4 3 -2 6 -13 5 -11 0 -14 -3 -6 -6z"/>
<path d="M1203 4173 c15 -2 37 -2 50 0 12 2 0 4 -28 4 -27 0 -38 -2 -22 -4z"/>
<path d="M1038 4163 c23 -2 61 -2 85 0 23 2 4 4 -43 4 -47 0 -66 -2 -42 -4z"/>
<path d="M1573 4093 c15 -2 39 -2 55 0 15 2 2 4 -28 4 -30 0 -43 -2 -27 -4z"/>
<path d="M1390 4080 c-27 -5 -7 -6 50 -3 52 3 97 7 99 9 7 6 -101 2 -149 -6z"/>
<path d="M1205 4052 c-44 -8 -75 -16 -70 -18 6 -2 55 5 110 15 55 11 87 19 70
19 -16 0 -66 -7 -110 -16z"/>
<path d="M1098 4023 c7 -3 16 -2 19 1 4 3 -2 6 -13 5 -11 0 -14 -3 -6 -6z"/>
<path d="M1023 4004 c-31 -15 -47 -54 -23 -54 5 0 7 6 4 13 -6 16 10 31 51 45
17 6 23 11 15 11 -8 0 -30 -7 -47 -15z"/>
<path d="M1498 3873 c7 -3 16 -2 19 1 4 3 -2 6 -13 5 -11 0 -14 -3 -6 -6z"/>
<path d="M9102 3860 c20 -11 42 -28 48 -37 8 -12 10 -13 7 -3 -4 17 -64 60
-81 60 -6 -1 6 -10 26 -20z"/>
<path d="M1448 3863 c7 -3 16 -2 19 1 4 3 -2 6 -13 5 -11 0 -14 -3 -6 -6z"/>
<path d="M1390 3850 c-18 -12 -2 -12 25 0 13 6 15 9 5 9 -8 0 -22 -4 -30 -9z"/>
<path d="M8408 3853 c7 -3 16 -2 19 1 4 3 -2 6 -13 5 -11 0 -14 -3 -6 -6z"/>
<path d="M1746 3829 c-58 -45 -23 -78 120 -114 97 -25 317 -59 336 -53 7 3
-44 12 -113 22 -231 32 -359 72 -359 111 0 8 15 24 33 35 17 11 27 20 21 20
-6 0 -23 -9 -38 -21z"/>
<path d="M8471 3830 c19 -10 41 -26 48 -34 20 -24 -8 -59 -71 -90 -29 -15 -42
-24 -28 -20 67 18 126 70 116 101 -6 18 -73 64 -92 63 -5 -1 7 -9 27 -20z"/>
<path d="M1336 3819 c-14 -11 -26 -27 -26 -35 0 -16 47 -64 62 -64 5 0 -4 12
-21 26 -38 32 -39 47 -3 73 15 11 24 21 21 21 -4 0 -18 -9 -33 -21z"/>
<path d="M8212 3824 c35 -41 -12 -68 -178 -104 -56 -12 -164 -30 -240 -40 -77
-10 -123 -19 -104 -19 50 -1 282 34 384 58 141 34 188 69 143 107 -22 19 -22
19 -5 -2z"/>
<path d="M5016 3816 c8 -22 -11 -43 -47 -51 -17 -4 -28 -9 -25 -12 2 -3 21 0
40 7 44 14 62 42 41 60 -13 11 -14 10 -9 -4z"/>
<path d="M1945 3808 c8 -19 42 -35 92 -42 34 -5 32 -4 -10 8 -27 8 -57 22 -68
32 -16 14 -19 15 -14 2z"/>
<path d="M9136 3762 l-19 -27 24 22 c12 12 21 24 18 27 -2 2 -13 -8 -23 -22z"/>
<path d="M5138 3758 c21 -23 109 -58 97 -38 -3 5 -18 11 -35 15 -16 3 -42 16
-57 28 l-28 21 23 -26z"/>
<path d="M2210 3755 c61 -21 248 -53 345 -59 77 -5 76 -5 -25 9 -88 13 -170
27 -340 60 -14 3 -5 -2 20 -10z"/>
<path d="M5070 3749 c0 -5 5 -7 10 -4 6 3 10 8 10 11 0 2 -4 4 -10 4 -5 0 -10
-5 -10 -11z"/>
<path d="M2653 3683 c9 -2 23 -2 30 0 6 3 -1 5 -18 5 -16 0 -22 -2 -12 -5z"/>
<path d="M4358 3683 c6 -2 18 -2 25 0 6 3 1 5 -13 5 -14 0 -19 -2 -12 -5z"/>
<path d="M4065 3673 c-16 -2 -190 -8 -385 -13 l-355 -8 380 5 c209 3 430 8
490 12 l110 8 -105 0 c-58 0 -118 -2 -135 -4z"/>
<path d="M5152 3669 c55 -32 314 -73 523 -83 107 -5 107 -5 -35 9 -185 19
-400 52 -452 71 -47 16 -60 18 -36 3z"/>
<path d="M3198 3663 c7 -3 16 -2 19 1 4 3 -2 6 -13 5 -11 0 -14 -3 -6 -6z"/>
<path d="M4825 3654 c-76 -13 -246 -31 -445 -44 l-125 -9 155 5 c169 5 384 27
470 48 69 17 37 17 -55 0z"/>
<path d="M5738 3663 c12 -2 32 -2 45 0 12 2 2 4 -23 4 -25 0 -35 -2 -22 -4z"/>
<path d="M8310 3660 c-20 -6 -21 -8 -5 -8 11 0 29 3 40 8 25 11 -1 11 -35 0z"/>
<path d="M2238 3653 c7 -3 16 -2 19 1 4 3 -2 6 -13 5 -11 0 -14 -3 -6 -6z"/>
<path d="M5935 3650 c55 -4 291 -10 525 -13 396 -5 402 -5 90 3 -184 4 -420
10 -525 12 -130 4 -158 3 -90 -2z"/>
<path d="M7998 3593 c7 -3 16 -2 19 1 4 3 -2 6 -13 5 -11 0 -14 -3 -6 -6z"/>
<path d="M7895 3580 c-97 -19 -340 -40 -575 -50 -252 -11 -337 -20 -184 -20
131 1 430 19 579 36 140 16 292 42 245 42 -14 0 -43 -4 -65 -8z"/>
<path d="M2805 3570 c39 -5 210 -10 380 -13 305 -5 306 -5 55 3 -140 4 -311
10 -380 13 -92 4 -107 3 -55 -3z"/>
<path d="M1105 3473 c-157 -13 -335 -54 -335 -77 0 -11 14 -9 67 5 240 67 680
75 968 18 120 -23 228 -73 233 -106 3 -19 -3 -22 -50 -28 -29 -4 -154 -2 -277
3 -123 6 -230 8 -238 5 -8 -3 40 -28 109 -55 67 -27 127 -53 131 -57 20 -20
-200 -41 -423 -41 -207 0 -420 24 -503 56 -11 4 -17 1 -17 -9 0 -19 132 -51
272 -66 256 -28 717 3 726 49 2 11 -21 26 -72 48 -42 17 -80 32 -86 32 -5 0
-10 3 -10 8 0 4 99 6 219 4 l220 -3 17 26 c16 25 16 27 -2 53 -44 60 -192 107
-416 131 -89 10 -436 13 -533 4z"/>
<path d="M2786 3407 l-51 -55 -24 19 c-13 10 -30 19 -37 19 -16 0 -34 -39 -34
-76 0 -30 -12 -30 -58 1 -20 14 -40 25 -44 25 -4 0 -10 -22 -14 -50 -4 -27 -8
-50 -11 -50 -2 0 -17 7 -33 15 -30 15 -30 15 -30 -13 0 -16 7 -48 15 -71 l14
-41 -37 0 c-20 0 -43 -4 -50 -9 -20 -12 7 -60 63 -109 l46 -40 -36 -22 c-44
-27 -42 -49 5 -72 88 -43 225 -47 301 -10 l36 18 27 -27 c36 -36 102 -53 182
-46 36 2 68 8 71 11 4 3 -1 22 -10 41 l-17 35 45 0 c62 0 145 34 199 81 25 22
46 44 46 48 0 13 -46 30 -98 37 l-49 6 23 57 c13 31 24 77 26 102 3 39 0 44
-19 47 -12 2 -43 -6 -68 -17 l-45 -20 0 33 c0 83 -21 116 -50 81 -18 -21 -24
-19 -37 15 -13 34 -28 37 -62 11 -24 -18 -24 -18 -59 21 -61 67 -67 68 -126 5z
m112 -11 c64 -69 87 -128 64 -164 -6 -9 -21 0 -56 34 l-47 47 -45 -44 c-25
-24 -58 -64 -72 -89 l-27 -45 -3 58 c-2 45 2 70 21 110 27 58 92 137 112 137
7 0 31 -20 53 -44z m132 -55 c-1 -16 -38 -67 -44 -60 -1 2 -9 19 -16 38 -13
32 -12 35 10 53 23 19 25 19 37 2 7 -10 13 -25 13 -33z m-313 11 c10 -6 8 -21
-8 -68 -14 -39 -19 -73 -16 -101 l5 -43 -42 24 c-22 14 -52 40 -65 60 -26 39
-40 42 -21 5 11 -19 10 -21 -5 -16 -9 4 -19 7 -21 7 -2 0 -4 23 -4 50 0 28 3
50 6 50 4 0 28 -16 54 -35 l47 -35 6 55 c8 80 12 83 64 47z m351 -64 c-10 -35
-29 -85 -41 -111 l-23 -48 -22 40 -23 41 22 33 c26 38 90 107 100 107 3 0 -2
-28 -13 -62z m27 -87 c-6 -44 -14 -61 -46 -95 -35 -37 -39 -39 -39 -18 0 12 8
39 19 60 10 20 29 71 42 112 23 74 24 75 27 35 2 -22 1 -64 -3 -94z m-185 42
c106 -120 116 -224 31 -296 -63 -52 -156 -41 -205 26 -28 37 -27 118 1 173 22
42 109 144 123 144 5 0 27 -21 50 -47z m257 -40 c-31 -32 -58 -55 -60 -53 -3
3 -2 20 0 39 5 28 13 36 56 57 28 13 53 21 56 18 3 -2 -20 -30 -52 -61z m67
-3 c-33 -142 -116 -233 -232 -254 -19 -3 -32 -2 -30 2 2 4 16 32 30 64 18 37
43 69 75 95 26 21 74 64 108 95 33 32 61 58 62 58 1 0 -5 -27 -13 -60z m-561
-64 c24 -16 27 -24 27 -73 0 -30 7 -68 16 -85 l16 -31 -29 7 c-116 28 -214
138 -237 263 l-5 33 92 -48 c51 -27 105 -56 120 -66z m-180 -41 c64 -71 78
-93 61 -99 -35 -13 -57 -4 -104 44 -54 53 -60 66 -32 73 37 10 54 6 75 -18z
m806 -54 c12 -8 8 -11 -15 -16 -28 -6 -112 -32 -144 -43 -8 -3 -1 10 15 30 27
33 35 37 80 37 28 0 57 -3 64 -8z m-8 -51 c-69 -59 -181 -92 -236 -70 l-30 12
35 13 c56 21 234 74 250 74 9 0 1 -12 -19 -29z m-669 -19 c18 -11 53 -25 78
-32 l45 -12 -30 -9 c-16 -5 -84 -6 -149 -2 -131 7 -134 11 -41 55 50 23 56 23
97 0z m399 -51 c19 -10 49 -59 49 -80 0 -6 -30 -10 -77 -10 -81 0 -155 25
-167 56 -5 13 2 15 46 12 29 -2 62 -8 73 -12 l20 -8 -20 13 c-30 18 -31 19
-15 29 20 13 67 12 91 0z m-237 -6 c27 -10 18 -21 -31 -38 -60 -20 -164 -20
-233 0 -76 23 -48 32 79 27 62 -3 116 -1 131 5 31 13 34 14 54 6z"/>
<path d="M8513 3406 l-38 -43 -33 25 c-41 31 -60 23 -82 -36 -15 -40 -15 -40
-43 -26 -15 8 -32 12 -37 9 -5 -3 -14 -30 -21 -61 -10 -44 -16 -54 -28 -48
-58 23 -128 44 -149 44 -23 0 -24 -2 -19 -44 5 -35 37 -118 64 -167 2 -3 -31
-9 -74 -12 -89 -8 -123 -15 -123 -29 0 -17 94 -109 135 -133 53 -31 123 -54
174 -56 42 -3 53 -12 26 -23 -56 -21 38 -77 142 -84 80 -5 135 10 187 51 l29
23 38 -19 c81 -40 219 -20 278 41 20 20 52 44 72 53 49 23 116 84 151 138 45
71 42 75 -59 68 -49 -3 -96 -8 -105 -12 -15 -6 -15 -2 3 45 11 28 22 78 26
110 7 73 -4 81 -73 51 -56 -25 -54 -25 -54 -3 0 10 -6 27 -14 37 -13 17 -16
18 -37 4 -23 -16 -24 -15 -46 33 -27 59 -43 66 -83 38 l-31 -22 -49 46 c-27
25 -58 46 -69 46 -11 0 -37 -20 -58 -44z m100 4 c41 -35 117 -149 117 -174 0
-9 -7 -28 -16 -41 l-16 -25 -20 26 c-23 29 -16 44 12 26 11 -7 20 -8 20 -3 0
5 -7 11 -15 15 -8 3 -12 12 -9 21 3 8 1 15 -6 15 -7 0 -9 8 -5 23 5 17 4 19
-4 7 -9 -13 -15 -10 -39 17 l-27 33 -14 -23 c-13 -20 -13 -21 2 -8 12 10 17
10 17 2 0 -15 19 -35 43 -44 18 -7 23 -32 8 -41 -5 -4 -23 7 -39 24 -17 16
-39 30 -49 30 -10 0 -42 -21 -71 -46 l-52 -45 -12 26 c-9 21 -8 32 5 60 11 24
21 33 32 29 17 -7 18 -13 6 -33 -5 -7 -14 -11 -20 -7 -7 5 -9 1 -5 -8 8 -21
17 -20 32 4 7 12 18 18 24 14 6 -4 8 -3 5 3 -3 5 2 17 12 25 15 12 22 13 31 5
10 -10 10 -7 1 11 l-12 23 -20 -25 c-17 -22 -23 -24 -40 -13 -10 6 -19 14 -19
17 0 10 91 110 100 110 5 0 25 -14 43 -30z m-153 -55 c0 -2 -11 -26 -23 -54
l-24 -50 -29 30 -28 30 24 44 24 44 28 -20 c15 -11 28 -22 28 -24z m330 -16
l22 -52 -31 -30 c-17 -17 -32 -29 -33 -26 -2 2 -15 28 -29 57 l-27 52 32 25
c17 14 34 25 37 25 4 0 16 -23 29 -51z m-445 -49 c48 -33 95 -85 95 -105 0 -8
-10 -30 -21 -50 -29 -48 -37 -147 -16 -198 9 -20 12 -37 7 -37 -4 0 -31 25
-59 56 -56 61 -81 125 -84 216 -2 68 11 148 24 148 6 0 30 -13 54 -30z m539
-12 c9 -36 7 -133 -5 -188 -13 -63 -61 -134 -117 -177 -56 -43 -67 -42 -42 4
31 59 34 110 11 181 -12 34 -21 66 -21 71 0 13 140 131 156 131 6 0 14 -10 18
-22z m-253 -48 c93 -99 122 -213 77 -299 -30 -58 -65 -83 -125 -88 -66 -7
-115 15 -149 66 -36 56 -38 145 -4 217 24 49 121 154 142 154 7 0 33 -23 59
-50z m369 35 c0 -2 -25 -49 -56 -102 -31 -54 -53 -87 -50 -73 4 14 9 53 13 86
5 56 8 63 37 77 31 16 56 21 56 12z m-798 -43 c45 -19 45 -20 51 -81 4 -34 12
-72 18 -84 10 -21 -9 -3 -140 137 l-56 59 41 -5 c22 -3 61 -15 86 -26z m806
-29 c-17 -109 -70 -196 -146 -240 -25 -15 -40 -29 -34 -31 16 -5 91 51 124 92
24 30 35 35 108 46 44 7 83 10 85 8 6 -6 -144 -107 -202 -137 -45 -22 -86 -28
-120 -17 -21 7 -20 9 26 70 26 35 72 109 102 165 29 55 56 101 60 101 3 0 2
-26 -3 -57z m-721 -188 c44 -49 80 -91 78 -93 -1 -1 -29 7 -61 19 -99 36 -200
161 -220 271 -7 36 -17 46 203 -197z m864 11 c-32 -52 -117 -124 -162 -137
-30 -10 -45 -9 -67 0 l-27 13 51 26 c27 15 72 43 99 62 60 43 119 78 124 74 2
-2 -6 -19 -18 -38z m-970 -22 c18 -20 51 -45 72 -56 111 -57 -92 -14 -237 50
-71 31 -59 40 55 41 74 1 76 0 110 -35z m4 -79 c33 -8 97 -17 143 -21 45 -3
85 -11 88 -15 3 -5 -3 -9 -13 -9 -10 0 -39 -8 -66 -17 -40 -15 -57 -15 -114
-6 -84 15 -177 60 -227 112 l-40 41 85 -36 c46 -19 111 -42 144 -49z m713 -42
c42 -20 41 -29 -5 -37 -80 -13 -233 -4 -233 13 0 4 22 13 50 20 27 7 53 17 56
22 8 13 89 1 132 -18z m-417 -25 c27 -13 48 -26 49 -29 0 -4 -19 -14 -43 -23
-46 -17 -217 -23 -217 -7 0 16 108 71 159 80 2 1 26 -9 52 -21z m242 -28 c30
-6 75 -6 124 0 42 6 78 8 81 6 2 -3 -14 -14 -36 -25 -77 -39 -199 -37 -256 4
-23 17 -11 39 18 31 11 -4 42 -11 69 -16z m-117 -2 c10 -16 -41 -55 -100 -74
-55 -18 -130 -15 -186 8 -34 15 -33 15 50 15 75 0 92 3 150 31 73 36 76 37 86
20z"/>
<path d="M1240 3416 c0 -3 9 -10 20 -16 11 -6 20 -8 20 -6 0 3 -9 10 -20 16
-11 6 -20 8 -20 6z"/>
<path d="M1284 3356 c-15 -12 -16 -17 -7 -27 15 -15 111 -15 126 1 18 17 -19
40 -63 40 -20 0 -45 -6 -56 -14z m100 -2 c29 -11 5 -24 -44 -24 -47 0 -73 13
-48 23 19 8 74 8 92 1z"/>
<path d="M1108 3353 c6 -2 18 -2 25 0 6 3 1 5 -13 5 -14 0 -19 -2 -12 -5z"/>
<path d="M1523 3353 c26 -2 67 -2 90 0 23 2 2 3 -48 3 -49 0 -68 -1 -42 -3z"/>
<path d="M1218 3343 c7 -3 16 -2 19 1 4 3 -2 6 -13 5 -11 0 -14 -3 -6 -6z"/>
<path d="M7553 3343 c32 -2 81 -2 110 0 29 2 3 3 -58 3 -60 0 -84 -1 -52 -3z"/>
<path d="M1128 3323 c7 -3 16 -2 19 1 4 3 -2 6 -13 5 -11 0 -14 -3 -6 -6z"/>
<path d="M1048 3313 c6 -2 18 -2 25 0 6 3 1 5 -13 5 -14 0 -19 -2 -12 -5z"/>
<path d="M5020 3250 c-52 -4 -201 -9 -330 -10 -213 -3 -226 -4 -140 -12 63 -6
174 -5 330 4 281 15 230 15 585 -2 212 -9 374 -10 600 -4 l310 9 -570 6 c-313
3 -597 9 -630 11 -33 3 -103 2 -155 -2z"/>
<path d="M3977 3243 c18 -2 50 -2 70 0 21 2 7 4 -32 4 -38 0 -55 -2 -38 -4z"/>
<path d="M4413 3243 c9 -2 23 -2 30 0 6 3 -1 5 -18 5 -16 0 -22 -2 -12 -5z"/>
<path d="M6730 2914 c-14 -2 -59 -9 -100 -15 -198 -29 -287 -94 -218 -159 28
-26 147 -63 258 -81 129 -21 520 -19 631 4 169 34 249 74 249 123 0 50 -105
94 -285 119 -91 13 -464 19 -535 9z m550 -39 c158 -24 251 -62 237 -99 -11
-29 -111 -66 -237 -87 -62 -11 -421 -18 -529 -11 -120 8 -294 57 -325 91 -16
18 -16 20 9 39 101 80 532 113 845 67z"/>
<path d="M6925 2820 c-10 -17 3 -27 42 -34 28 -5 50 -20 82 -54 l43 -47 -37
48 c-29 38 -35 51 -25 62 6 8 9 19 5 25 -8 13 -102 13 -110 0z m105 -10 c0 -5
-23 -10 -51 -10 -31 0 -48 4 -44 10 3 6 26 10 51 10 24 0 44 -4 44 -10z"/>
<path d="M7348 2803 c7 -3 16 -2 19 1 4 3 -2 6 -13 5 -11 0 -14 -3 -6 -6z"/>
<path d="M7388 2803 c7 -3 16 -2 19 1 4 3 -2 6 -13 5 -11 0 -14 -3 -6 -6z"/>
<path d="M6848 2793 c6 -2 18 -2 25 0 6 3 1 5 -13 5 -14 0 -19 -2 -12 -5z"/>
<path d="M6898 2764 c-38 -20 -36 -28 2 -9 17 9 30 18 30 20 0 7 -1 6 -32 -11z"/>
<path d="M7178 2763 c7 -3 16 -2 19 1 4 3 -2 6 -13 5 -11 0 -14 -3 -6 -6z"/>
<path d="M7228 2753 c7 -3 16 -2 19 1 4 3 -2 6 -13 5 -11 0 -14 -3 -6 -6z"/>
<path d="M7268 2743 c7 -3 16 -2 19 1 4 3 -2 6 -13 5 -11 0 -14 -3 -6 -6z"/>
<path d="M5383 2903 c42 -2 112 -2 155 0 42 1 7 3 -78 3 -85 0 -120 -2 -77 -3z"/>
<path d="M778 2874 c-23 -23 -1 -27 130 -21 173 7 499 -7 662 -28 353 -46 618
-142 664 -240 9 -18 16 -38 16 -44 0 -30 -29 -65 -78 -93 -30 -17 -69 -44 -87
-59 -42 -37 -101 -62 -248 -104 -243 -71 -522 -105 -859 -105 -186 0 -208 -2
-208 -16 0 -15 24 -16 273 -11 363 7 614 42 858 120 l107 34 -10 -29 c-6 -16
-8 -49 -5 -74 24 -220 553 -406 1290 -455 234 -15 810 -6 1007 16 556 61 946
175 1109 321 57 52 81 97 81 154 0 58 -24 102 -85 158 -195 179 -702 299
-1396 333 -578 28 -1264 -54 -1638 -194 l-91 -34 0 44 c0 37 -6 50 -42 89 -89
97 -309 169 -668 220 -124 17 -769 33 -782 18z m3502 -189 c656 -61 1094 -212
1166 -402 16 -40 16 -46 0 -88 -63 -163 -464 -316 -1008 -384 -451 -57 -1036
-59 -1463 -5 -272 34 -593 117 -740 192 -177 89 -250 195 -200 291 41 80 213
184 410 249 230 76 622 140 988 162 195 12 647 4 847 -15z"/>
<path d="M3058 2573 c6 -2 18 -2 25 0 6 3 1 5 -13 5 -14 0 -19 -2 -12 -5z"/>
<path d="M3825 2538 l-40 -43 43 40 c39 36 47 45 39 45 -2 0 -21 -19 -42 -42z"/>
<path d="M3108 2563 c7 -3 16 -2 19 1 4 3 -2 6 -13 5 -11 0 -14 -3 -6 -6z"/>
<path d="M3148 2553 c7 -3 16 -2 19 1 4 3 -2 6 -13 5 -11 0 -14 -3 -6 -6z"/>
<path d="M3195 2540 c11 -5 27 -9 35 -9 9 0 8 4 -5 9 -11 5 -27 9 -35 9 -9 0
-8 -4 5 -9z"/>
<path d="M4553 2543 c9 -2 25 -2 35 0 9 3 1 5 -18 5 -19 0 -27 -2 -17 -5z"/>
<path d="M4483 2533 c9 -2 25 -2 35 0 9 3 1 5 -18 5 -19 0 -27 -2 -17 -5z"/>
<path d="M3314 2504 c39 -13 75 -24 80 -23 6 0 -20 11 -58 25 -39 13 -75 24
-80 23 -6 0 20 -11 58 -25z"/>
<path d="M3585 2500 c9 -16 18 -30 21 -30 2 0 -2 14 -11 30 -9 17 -18 30 -21
30 -2 0 2 -13 11 -30z"/>
<path d="M4413 2523 c9 -2 25 -2 35 0 9 3 1 5 -18 5 -19 0 -27 -2 -17 -5z"/>
<path d="M4353 2513 c9 -2 23 -2 30 0 6 3 -1 5 -18 5 -16 0 -22 -2 -12 -5z"/>
<path d="M4298 2503 c6 -2 18 -2 25 0 6 3 1 5 -13 5 -14 0 -19 -2 -12 -5z"/>
<path d="M4238 2493 c6 -2 18 -2 25 0 6 3 1 5 -13 5 -14 0 -19 -2 -12 -5z"/>
<path d="M3745 2445 c-36 -44 -38 -44 -94 -44 -61 1 -155 -31 -165 -56 -8 -21
39 -57 86 -66 71 -13 181 -10 231 7 46 16 74 45 62 64 -10 17 -58 37 -103 45
l-43 7 36 44 c20 24 34 44 31 44 -2 0 -21 -20 -41 -45z m26 -65 c30 -6 62 -19
73 -29 18 -19 18 -19 -5 -34 -70 -46 -264 -47 -325 -2 -18 13 -18 14 0 34 33
36 152 51 257 31z"/>
<path d="M4150 2480 c-20 -6 -21 -8 -5 -8 11 0 31 4 45 8 20 6 21 8 5 8 -11 0
-31 -4 -45 -8z"/>
<path d="M3420 2470 c8 -5 20 -10 25 -10 6 0 3 5 -5 10 -8 5 -19 10 -25 10 -5
0 -3 -5 5 -10z"/>
<path d="M4098 2463 c7 -3 16 -2 19 1 4 3 -2 6 -13 5 -11 0 -14 -3 -6 -6z"/>
<path d="M3480 2445 c14 -8 30 -14 35 -14 6 0 -1 6 -15 14 -14 8 -29 14 -35
14 -5 0 1 -6 15 -14z"/>
<path d="M4005 2445 c-54 -17 -33 -18 30 -1 28 8 41 14 30 14 -11 0 -38 -5
-60 -13z"/>
<path d="M2588 2433 c12 -2 30 -2 40 0 9 3 -1 5 -23 4 -22 0 -30 -2 -17 -4z"/>
<path d="M2658 2433 c7 -3 16 -2 19 1 4 3 -2 6 -13 5 -11 0 -14 -3 -6 -6z"/>
<path d="M2797 2423 c18 -2 50 -2 70 0 21 2 7 4 -32 4 -38 0 -55 -2 -38 -4z"/>
<path d="M2948 2413 c18 -2 45 -2 60 0 15 2 0 4 -33 4 -33 0 -45 -2 -27 -4z"/>
<path d="M3088 2403 c12 -2 30 -2 40 0 9 3 -1 5 -23 4 -22 0 -30 -2 -17 -4z"/>
<path d="M3193 2393 c9 -2 23 -2 30 0 6 3 -1 5 -18 5 -16 0 -22 -2 -12 -5z"/>
<path d="M3283 2383 c9 -2 25 -2 35 0 9 3 1 5 -18 5 -19 0 -27 -2 -17 -5z"/>
<path d="M3363 2373 c9 -2 23 -2 30 0 6 3 -1 5 -18 5 -16 0 -22 -2 -12 -5z"/>
<path d="M4353 2363 c71 -2 183 -2 250 0 67 1 10 3 -128 3 -137 0 -192 -2
-122 -3z"/>
<path d="M3998 2353 c23 -2 61 -2 85 0 23 2 4 4 -43 4 -47 0 -66 -2 -42 -4z"/>
<path d="M4813 2353 c20 -2 54 -2 75 0 20 2 3 4 -38 4 -41 0 -58 -2 -37 -4z"/>
<path d="M5053 2343 c9 -2 25 -2 35 0 9 3 1 5 -18 5 -19 0 -27 -2 -17 -5z"/>
<path d="M3312 2308 c-62 -12 -110 -23 -108 -25 5 -5 258 37 265 43 9 8 -48 1
-157 -18z"/>
<path d="M3888 2303 c7 -3 16 -2 19 1 4 3 -2 6 -13 5 -11 0 -14 -3 -6 -6z"/>
<path d="M3928 2293 c7 -3 16 -2 19 1 4 3 -2 6 -13 5 -11 0 -14 -3 -6 -6z"/>
<path d="M3978 2283 c6 -2 18 -2 25 0 6 3 1 5 -13 5 -14 0 -19 -2 -12 -5z"/>
<path d="M3068 2266 c-43 -7 -81 -16 -85 -20 -9 -9 44 -2 147 19 82 16 41 17
-62 1z"/>
<path d="M4028 2273 c6 -2 18 -2 25 0 6 3 1 5 -13 5 -14 0 -19 -2 -12 -5z"/>
<path d="M4083 2263 c9 -2 23 -2 30 0 6 3 -1 5 -18 5 -16 0 -22 -2 -12 -5z"/>
<path d="M4185 2244 c33 -7 67 -13 75 -12 23 1 -82 26 -110 26 -14 0 2 -6 35
-14z"/>
<path d="M2703 2243 c15 -2 37 -2 50 0 12 2 0 4 -28 4 -27 0 -38 -2 -22 -4z"/>
<path d="M3440 2240 c-8 -5 -10 -10 -5 -10 6 0 17 5 25 10 8 5 11 10 5 10 -5
0 -17 -5 -25 -10z"/>
<path d="M3600 2230 c-6 -11 -8 -20 -6 -20 3 0 10 9 16 20 6 11 8 20 6 20 -3
0 -10 -9 -16 -20z"/>
<path d="M2588 2233 c12 -2 30 -2 40 0 9 3 -1 5 -23 4 -22 0 -30 -2 -17 -4z"/>
<path d="M2928 2233 c6 -2 18 -2 25 0 6 3 1 5 -13 5 -14 0 -19 -2 -12 -5z"/>
<path d="M3810 2237 c0 -3 12 -12 26 -22 15 -9 23 -12 20 -6 -7 11 -46 35 -46
28z"/>
<path d="M2478 2223 c12 -2 30 -2 40 0 9 3 -1 5 -23 4 -22 0 -30 -2 -17 -4z"/>
<path d="M2878 2223 c6 -2 18 -2 25 0 6 3 1 5 -13 5 -14 0 -19 -2 -12 -5z"/>
<path d="M3390 2220 c-8 -5 -10 -10 -5 -10 6 0 17 5 25 10 8 5 11 10 5 10 -5
0 -17 -5 -25 -10z"/>
<path d="M4288 2223 c6 -2 18 -2 25 0 6 3 1 5 -13 5 -14 0 -19 -2 -12 -5z"/>
<path d="M2388 2213 c6 -2 18 -2 25 0 6 3 1 5 -13 5 -14 0 -19 -2 -12 -5z"/>
<path d="M2823 2213 c9 -2 23 -2 30 0 6 3 -1 5 -18 5 -16 0 -22 -2 -12 -5z"/>
<path d="M4343 2213 c9 -2 23 -2 30 0 6 3 -1 5 -18 5 -16 0 -22 -2 -12 -5z"/>
<path d="M2298 2203 c6 -2 18 -2 25 0 6 3 1 5 -13 5 -14 0 -19 -2 -12 -5z"/>
<path d="M2768 2203 c6 -2 18 -2 25 0 6 3 1 5 -13 5 -14 0 -19 -2 -12 -5z"/>
<path d="M4408 2203 c7 -3 16 -2 19 1 4 3 -2 6 -13 5 -11 0 -14 -3 -6 -6z"/>
<path d="M2718 2193 c6 -2 18 -2 25 0 6 3 1 5 -13 5 -14 0 -19 -2 -12 -5z"/>
<path d="M3870 2197 c0 -3 66 -51 148 -108 81 -56 153 -107 160 -112 6 -5 12
-7 12 -4 0 3 -66 51 -147 108 -82 56 -154 107 -160 112 -7 5 -13 7 -13 4z"/>
<path d="M4453 2193 c9 -2 23 -2 30 0 6 3 -1 5 -18 5 -16 0 -22 -2 -12 -5z"/>
<path d="M2668 2183 c6 -2 18 -2 25 0 6 3 1 5 -13 5 -14 0 -19 -2 -12 -5z"/>
<path d="M3300 2180 c-8 -5 -10 -10 -5 -10 6 0 17 5 25 10 8 5 11 10 5 10 -5
0 -17 -5 -25 -10z"/>
<path d="M4508 2183 c7 -3 16 -2 19 1 4 3 -2 6 -13 5 -11 0 -14 -3 -6 -6z"/>
<path d="M2618 2173 c6 -2 18 -2 25 0 6 3 1 5 -13 5 -14 0 -19 -2 -12 -5z"/>
<path d="M3565 2169 c-4 -6 -5 -12 -2 -15 2 -3 7 2 10 11 7 17 1 20 -8 4z"/>
<path d="M4553 2173 c9 -2 23 -2 30 0 6 3 -1 5 -18 5 -16 0 -22 -2 -12 -5z"/>
<path d="M2578 2163 c7 -3 16 -2 19 1 4 3 -2 6 -13 5 -11 0 -14 -3 -6 -6z"/>
<path d="M4608 2163 c7 -3 16 -2 19 1 4 3 -2 6 -13 5 -11 0 -14 -3 -6 -6z"/>
<path d="M2528 2153 c7 -3 16 -2 19 1 4 3 -2 6 -13 5 -11 0 -14 -3 -6 -6z"/>
<path d="M3200 2135 c-25 -13 -40 -24 -35 -24 6 0 30 11 55 24 25 13 41 24 35
24 -5 0 -30 -11 -55 -24z"/>
<path d="M4663 2153 c9 -2 23 -2 30 0 6 3 -1 5 -18 5 -16 0 -22 -2 -12 -5z"/>
<path d="M2478 2143 c6 -2 18 -2 25 0 6 3 1 5 -13 5 -14 0 -19 -2 -12 -5z"/>
<path d="M4718 2143 c7 -3 16 -2 19 1 4 3 -2 6 -13 5 -11 0 -14 -3 -6 -6z"/>
<path d="M2438 2133 c7 -3 16 -2 19 1 4 3 -2 6 -13 5 -11 0 -14 -3 -6 -6z"/>
<path d="M3535 2110 c-9 -16 -13 -30 -11 -30 3 0 12 14 21 30 9 17 13 30 11
30 -3 0 -12 -13 -21 -30z"/>
<path d="M4758 2133 c6 -2 18 -2 25 0 6 3 1 5 -13 5 -14 0 -19 -2 -12 -5z"/>
<path d="M2398 2123 c7 -3 16 -2 19 1 4 3 -2 6 -13 5 -11 0 -14 -3 -6 -6z"/>
<path d="M4808 2123 c6 -2 18 -2 25 0 6 3 1 5 -13 5 -14 0 -19 -2 -12 -5z"/>
<path d="M4858 2113 c6 -2 18 -2 25 0 6 3 1 5 -13 5 -14 0 -19 -2 -12 -5z"/>
<path d="M4918 2103 c7 -3 16 -2 19 1 4 3 -2 6 -13 5 -11 0 -14 -3 -6 -6z"/>
<path d="M3050 2065 c-36 -19 -60 -34 -55 -34 6 0 39 15 75 34 36 19 61 34 55
34 -5 0 -39 -15 -75 -34z"/>
<path d="M2960 2020 c-9 -6 -10 -10 -3 -10 6 0 15 5 18 10 8 12 4 12 -15 0z"/>
<path d="M2890 1985 c-25 -13 -41 -24 -37 -25 11 0 87 39 87 45 0 7 0 7 -50
-20z"/>
<path d="M3837 1955 c9 -19 18 -33 21 -31 4 5 -26 66 -33 66 -3 0 3 -16 12
-35z"/>
<path d="M3452 1945 c-17 -37 -14 -45 4 -12 9 16 14 31 11 33 -2 2 -9 -7 -15
-21z"/>
<path d="M4200 1966 c0 -3 20 -19 45 -36 25 -17 45 -29 45 -26 0 3 -20 19 -45
36 -25 17 -45 29 -45 26z"/>
<path d="M3870 1890 c6 -11 13 -20 16 -20 2 0 0 9 -6 20 -6 11 -13 20 -16 20
-2 0 0 -9 6 -20z"/>
<path d="M1244 2748 l-29 -33 33 29 c17 17 32 31 32 33 0 8 -8 1 -36 -29z"/>
<path d="M770 2756 c0 -3 9 -10 20 -16 11 -6 20 -8 20 -6 0 3 -9 10 -20 16
-11 6 -20 8 -20 6z"/>
<path d="M1728 2743 c7 -3 16 -2 19 1 4 3 -2 6 -13 5 -11 0 -14 -3 -6 -6z"/>
<path d="M1668 2733 c6 -2 18 -2 25 0 6 3 1 5 -13 5 -14 0 -19 -2 -12 -5z"/>
<path d="M820 2726 c0 -3 9 -10 20 -16 11 -6 20 -8 20 -6 0 3 -9 10 -20 16
-11 6 -20 8 -20 6z"/>
<path d="M1618 2723 c7 -3 16 -2 19 1 4 3 -2 6 -13 5 -11 0 -14 -3 -6 -6z"/>
<path d="M1568 2713 c7 -3 16 -2 19 1 4 3 -2 6 -13 5 -11 0 -14 -3 -6 -6z"/>
<path d="M1518 2703 c7 -3 16 -2 19 1 4 3 -2 6 -13 5 -11 0 -14 -3 -6 -6z"/>
<path d="M889 2682 c14 -11 38 -27 55 -37 l31 -17 -24 20 c-14 11 -38 27 -55
37 l-31 17 24 -20z"/>
<path d="M1458 2693 c6 -2 18 -2 25 0 6 3 1 5 -13 5 -14 0 -19 -2 -12 -5z"/>
<path d="M8371 2690 c-284 -15 -581 -58 -800 -116 -390 -102 -564 -252 -481
-413 80 -157 464 -300 980 -365 320 -41 826 -53 1095 -28 239 23 305 34 305
48 0 17 10 17 -130 0 -375 -47 -896 -43 -1290 10 -474 64 -864 207 -935 345
-103 199 283 389 945 464 419 47 821 44 1255 -11 66 -8 128 -17 138 -20 11 -3
17 0 17 10 0 19 -11 22 -165 40 -298 36 -669 50 -934 36z"/>
<path d="M1143 2658 c-28 -28 -38 -31 -95 -33 -35 -1 -75 -8 -90 -15 -33 -16
-37 -46 -7 -55 20 -7 20 -7 2 -28 -18 -22 -18 -22 3 -4 12 10 37 17 62 17 30
0 42 -4 45 -17 4 -15 5 -15 6 -2 1 11 14 18 42 22 22 3 49 13 60 23 18 16 18
18 3 36 -10 10 -26 18 -38 18 -17 0 -16 4 14 35 19 19 32 35 29 35 -2 0 -19
-14 -36 -32z m8 -58 c29 -16 23 -28 -18 -39 -98 -27 -249 7 -171 38 32 13 165
13 189 1z"/>
<path d="M1418 2683 c7 -3 16 -2 19 1 4 3 -2 6 -13 5 -11 0 -14 -3 -6 -6z"/>
<path d="M1378 2673 c7 -3 16 -2 19 1 4 3 -2 6 -13 5 -11 0 -14 -3 -6 -6z"/>
<path d="M1338 2663 c7 -3 16 -2 19 1 4 3 -2 6 -13 5 -11 0 -14 -3 -6 -6z"/>
<path d="M2028 2623 c7 -3 16 -2 19 1 4 3 -2 6 -13 5 -11 0 -14 -3 -6 -6z"/>
<path d="M778 2613 c7 -3 16 -2 19 1 4 3 -2 6 -13 5 -11 0 -14 -3 -6 -6z"/>
<path d="M1663 2613 c37 -2 97 -2 135 0 37 2 6 3 -68 3 -74 0 -105 -1 -67 -3z"/>
<path d="M823 2603 c9 -2 25 -2 35 0 9 3 1 5 -18 5 -19 0 -27 -2 -17 -5z"/>
<path d="M1468 2603 c23 -2 61 -2 85 0 23 2 4 4 -43 4 -47 0 -66 -2 -42 -4z"/>
<path d="M1313 2593 c15 -2 39 -2 55 0 15 2 2 4 -28 4 -30 0 -43 -2 -27 -4z"/>
<path d="M1208 2583 c6 -2 18 -2 25 0 6 3 1 5 -13 5 -14 0 -19 -2 -12 -5z"/>
<path d="M8250 2580 c8 -5 20 -10 25 -10 6 0 3 5 -5 10 -8 5 -19 10 -25 10 -5
0 -3 -5 5 -10z"/>
<path d="M1367 2563 c18 -2 50 -2 70 0 21 2 7 4 -32 4 -38 0 -55 -2 -38 -4z"/>
<path d="M1548 2553 c17 -2 47 -2 65 0 17 2 3 4 -33 4 -36 0 -50 -2 -32 -4z"/>
<path d="M8841 2486 c-74 -74 -74 -74 -135 -78 -34 -2 -70 0 -81 5 -11 5 -16
6 -12 1 4 -4 -12 -17 -35 -28 -55 -27 -59 -56 -8 -72 19 -6 34 -16 32 -23 -2
-9 3 -9 17 -1 28 14 34 13 26 -7 -5 -15 -4 -16 6 -5 7 6 34 12 59 12 25 0 70
6 100 14 29 8 58 13 64 12 6 -2 8 -1 5 1 -3 2 -4 14 -2 27 4 18 -2 26 -30 39
-19 10 -42 17 -51 17 -9 0 -16 3 -16 7 0 4 33 40 72 80 40 40 70 73 67 73 -2
0 -38 -33 -78 -74z m-55 -97 c112 -19 109 -61 -6 -80 -65 -10 -157 -2 -212 20
-53 20 -26 45 64 60 75 12 84 12 154 0z"/>
<path d="M848 2543 c6 -2 18 -2 25 0 6 3 1 5 -13 5 -14 0 -19 -2 -12 -5z"/>
<path d="M1693 2543 c15 -2 39 -2 55 0 15 2 2 4 -28 4 -30 0 -43 -2 -27 -4z"/>
<path d="M798 2533 c6 -2 18 -2 25 0 6 3 1 5 -13 5 -14 0 -19 -2 -12 -5z"/>
<path d="M1813 2533 c15 -2 37 -2 50 0 12 2 0 4 -28 4 -27 0 -38 -2 -22 -4z"/>
<path d="M8420 2510 c30 -16 60 -29 65 -29 6 0 -15 13 -45 29 -30 16 -59 29
-65 29 -5 0 15 -13 45 -29z"/>
<path d="M1923 2523 c15 -2 39 -2 55 0 15 2 2 4 -28 4 -30 0 -43 -2 -27 -4z"/>
<path d="M2023 2513 c9 -2 25 -2 35 0 9 3 1 5 -18 5 -19 0 -27 -2 -17 -5z"/>
<path d="M9288 2513 c7 -3 16 -2 19 1 4 3 -2 6 -13 5 -11 0 -14 -3 -6 -6z"/>
<path d="M878 2475 c-27 -20 -48 -38 -48 -41 0 -6 89 57 96 68 8 13 1 9 -48
-27z"/>
<path d="M9238 2503 c6 -2 18 -2 25 0 6 3 1 5 -13 5 -14 0 -19 -2 -12 -5z"/>
<path d="M1325 2490 c27 -12 43 -12 25 0 -8 5 -22 9 -30 9 -10 0 -8 -3 5 -9z"/>
<path d="M9188 2493 c7 -3 16 -2 19 1 4 3 -2 6 -13 5 -11 0 -14 -3 -6 -6z"/>
<path d="M9062 2468 c-40 -11 -71 -22 -69 -25 4 -4 158 36 166 43 9 8 -27 2
-97 -18z"/>
<path d="M1425 2456 c17 -7 41 -16 55 -20 20 -5 19 -3 -5 8 -16 7 -41 16 -55
20 -20 5 -19 3 5 -8z"/>
<path d="M8520 2465 c0 -2 18 -14 40 -25 22 -11 40 -18 40 -15 0 2 -18 14 -40
25 -22 11 -40 18 -40 15z"/>
<path d="M8958 2433 c7 -3 16 -2 19 1 4 3 -2 6 -13 5 -11 0 -14 -3 -6 -6z"/>
<path d="M799 2413 c-13 -16 -12 -17 4 -4 9 7 17 15 17 17 0 8 -8 3 -21 -13z"/>
<path d="M1518 2423 c7 -3 16 -2 19 1 4 3 -2 6 -13 5 -11 0 -14 -3 -6 -6z"/>
<path d="M7815 2393 c95 -7 215 -7 215 0 0 4 -57 6 -127 5 -71 -1 -110 -3 -88
-5z"/>
<path d="M7608 2383 c7 -3 16 -2 19 1 4 3 -2 6 -13 5 -11 0 -14 -3 -6 -6z"/>
<path d="M8118 2383 c34 -2 90 -2 125 0 34 2 6 3 -63 3 -69 0 -97 -1 -62 -3z"/>
<path d="M8343 2373 c15 -2 39 -2 55 0 15 2 2 4 -28 4 -30 0 -43 -2 -27 -4z"/>
<path d="M8458 2363 c12 -2 30 -2 40 0 9 3 -1 5 -23 4 -22 0 -30 -2 -17 -4z"/>
<path d="M9258 2343 c23 -2 61 -2 85 0 23 2 4 4 -43 4 -47 0 -66 -2 -42 -4z"/>
<path d="M9423 2333 c9 -2 25 -2 35 0 9 3 1 5 -18 5 -19 0 -27 -2 -17 -5z"/>
<path d="M8448 2313 c12 -2 30 -2 40 0 9 3 -1 5 -23 4 -22 0 -30 -2 -17 -4z"/>
<path d="M6890 2260 c-28 -27 -50 -57 -50 -67 0 -12 5 -8 15 12 8 17 34 47 58
67 23 21 38 38 34 38 -4 0 -30 -22 -57 -50z"/>
<path d="M8348 2303 c12 -2 32 -2 45 0 12 2 2 4 -23 4 -25 0 -35 -2 -22 -4z"/>
<path d="M8268 2293 c12 -2 30 -2 40 0 9 3 -1 5 -23 4 -22 0 -30 -2 -17 -4z"/>
<path d="M8105 2280 c-48 -7 -48 -7 -10 -7 22 -1 65 2 95 7 54 7 54 7 10 7
-25 0 -67 -3 -95 -7z"/>
<path d="M9084 2244 c55 -18 101 -32 103 -30 5 5 -177 66 -192 65 -6 0 35 -16
89 -35z"/>
<path d="M7998 2263 c12 -2 30 -2 40 0 9 3 -1 5 -23 4 -22 0 -30 -2 -17 -4z"/>
<path d="M7923 2253 c9 -2 25 -2 35 0 9 3 1 5 -18 5 -19 0 -27 -2 -17 -5z"/>
<path d="M8503 2229 c-29 -17 -53 -33 -53 -36 0 -5 89 44 105 58 16 16 1 9
-52 -22z"/>
<path d="M8578 2178 c-71 -108 -94 -145 -81 -133 19 18 147 215 140 215 -2 0
-29 -37 -59 -82z"/>
<path d="M7785 2240 c-33 -6 -35 -7 -10 -8 17 0 53 3 80 8 47 7 48 7 10 7 -22
0 -58 -3 -80 -7z"/>
<path d="M7693 2223 c9 -2 25 -2 35 0 9 3 1 5 -18 5 -19 0 -27 -2 -17 -5z"/>
<path d="M7633 2213 c9 -2 23 -2 30 0 6 3 -1 5 -18 5 -16 0 -22 -2 -12 -5z"/>
<path d="M7553 2203 c9 -2 25 -2 35 0 9 3 1 5 -18 5 -19 0 -27 -2 -17 -5z"/>
<path d="M7493 2193 c9 -2 23 -2 30 0 6 3 -1 5 -18 5 -16 0 -22 -2 -12 -5z"/>
<path d="M9240 2190 c8 -5 20 -10 25 -10 6 0 3 5 -5 10 -8 5 -19 10 -25 10 -5
0 -3 -5 5 -10z"/>
<path d="M7428 2183 c6 -2 18 -2 25 0 6 3 1 5 -13 5 -14 0 -19 -2 -12 -5z"/>
<path d="M8408 2174 c-38 -20 -36 -28 2 -9 17 9 30 18 30 20 0 7 -1 6 -32 -11z"/>
<path d="M9290 2172 c8 -5 26 -13 40 -16 17 -5 20 -4 10 2 -8 5 -26 13 -40 16
-17 5 -20 4 -10 -2z"/>
<path d="M6831 2154 c0 -11 3 -14 6 -6 3 7 2 16 -1 19 -3 4 -6 -2 -5 -13z"/>
<path d="M8272 2096 c-87 -50 -137 -84 -82 -56 86 44 196 112 178 110 -2 0
-45 -25 -96 -54z"/>
<path d="M9370 2140 c8 -5 20 -10 25 -10 6 0 3 5 -5 10 -8 5 -19 10 -25 10 -5
0 -3 -5 5 -10z"/>
<path d="M6840 2125 c0 -19 39 -74 62 -86 19 -10 18 -6 -8 22 -17 19 -36 43
-42 54 -6 11 -12 16 -12 10z"/>
<path d="M9430 2115 c14 -8 30 -14 35 -14 6 0 -1 6 -15 14 -14 8 -29 14 -35
14 -5 0 1 -6 15 -14z"/>
<path d="M5416 2039 c-65 -66 -184 -127 -416 -212 -10 -4 -11 -6 -2 -6 20 -1
198 67 272 104 74 37 164 105 180 135 15 28 11 25 -34 -21z"/>
<path d="M7070 2051 c30 -56 157 -135 312 -192 151 -56 419 -114 572 -124 62
-4 59 -3 -27 10 -394 57 -704 161 -819 276 -27 27 -44 40 -38 30z"/>
<path d="M8134 2014 c-18 -14 -18 -15 4 -4 12 6 22 13 22 15 0 8 -5 6 -26 -11z"/>
<path d="M8871 2025 c0 -5 6 -21 14 -35 8 -14 14 -20 14 -15 0 6 -6 21 -14 35
-8 14 -14 21 -14 15z"/>
<path d="M1810 1990 c0 -28 48 -87 102 -123 58 -38 144 -76 227 -101 92 -27
81 -17 -19 18 -166 57 -266 122 -296 191 -7 17 -13 23 -14 15z"/>
<path d="M8078 1984 c-38 -20 -36 -28 2 -9 17 9 30 18 30 20 0 7 -1 6 -32 -11z"/>
<path d="M8014 1944 c-18 -14 -18 -15 4 -4 12 6 22 13 22 15 0 8 -5 6 -26 -11z"/>
<path d="M4935 1810 c-13 -5 -14 -9 -5 -9 8 0 24 4 35 9 13 5 14 9 5 9 -8 0
-24 -4 -35 -9z"/>
<path d="M2228 1743 c7 -3 16 -2 19 1 4 3 -2 6 -13 5 -11 0 -14 -3 -6 -6z"/>
<path d="M2268 1733 c7 -3 16 -2 19 1 4 3 -2 6 -13 5 -11 0 -14 -3 -6 -6z"/>
<path d="M2308 1723 c7 -3 16 -2 19 1 4 3 -2 6 -13 5 -11 0 -14 -3 -6 -6z"/>
<path d="M8048 1723 c12 -2 32 -2 45 0 12 2 2 4 -23 4 -25 0 -35 -2 -22 -4z"/>
<path d="M4320 1700 c-162 -26 -339 -40 -600 -49 -204 -7 -212 -8 -84 -9 200
-3 467 15 661 43 91 13 168 27 171 30 8 7 -19 5 -148 -15z"/>
<path d="M3313 1653 c32 -2 81 -2 110 0 29 2 3 3 -58 3 -60 0 -84 -1 -52 -3z"/>
<path d="M5513 1563 c37 -2 96 -2 130 0 34 2 4 3 -68 3 -71 0 -99 -1 -62 -3z"/>
<path d="M5205 1450 c-151 -4 -84 -6 270 -9 573 -5 926 -3 1065 7 118 8 -1021
10 -1335 2z"/>
<path d="M4748 1443 c12 -2 32 -2 45 0 12 2 2 4 -23 4 -25 0 -35 -2 -22 -4z"/>
</g>
</svg>
