<?xml version="1.0" standalone="no"?>
<!DOCTYPE svg PUBLIC "-//W3C//DTD SVG 20010904//EN"
 "http://www.w3.org/TR/2001/REC-SVG-20010904/DTD/svg10.dtd">
<svg version="1.0" xmlns="http://www.w3.org/2000/svg"
 width="1024.000000pt" height="1024.000000pt" viewBox="0 0 1024.000000 1024.000000"
 preserveAspectRatio="xMidYMid meet">
<metadata>
Created by potrace 1.16, written by Peter Selinger 2001-2019
</metadata>
<g transform="translate(0.000000,1024.000000) scale(0.100000,-0.100000)"
fill="#000000" stroke="none">
<path d="M6638 9256 c-74 -27 -134 -72 -256 -190 -332 -323 -638 -748 -861
-1194 -65 -130 -192 -418 -215 -484 -4 -15 -17 -18 -65 -18 -128 0 -242 -43
-286 -107 -14 -21 -25 -46 -25 -55 0 -11 -10 -20 -27 -23 -56 -12 -125 -50
-158 -86 -41 -46 -56 -73 -85 -162 l-22 -68 -53 115 c-321 698 -825 1304
-1458 1754 -521 370 -974 530 -1158 407 -131 -86 -168 -308 -103 -622 33 -161
105 -337 247 -606 29 -54 47 -101 47 -121 0 -19 -18 -72 -40 -118 -87 -183
-74 -372 41 -603 178 -357 567 -708 1084 -976 l153 -80 7 -47 c4 -26 20 -71
36 -101 16 -30 28 -55 26 -56 -1 -2 -22 -13 -47 -25 -73 -37 -152 -94 -197
-143 -169 -183 -102 -384 177 -526 84 -43 195 -84 299 -109 l34 -8 -69 -51
c-110 -81 -99 -78 -308 -80 -233 -3 -346 -26 -346 -69 0 -7 16 -16 36 -20 l36
-7 -36 -29 c-40 -33 -48 -68 -16 -68 11 0 23 -7 26 -15 10 -26 70 -17 147 21
73 37 137 48 159 26 7 -7 -2 -17 -30 -31 -46 -24 -72 -55 -72 -88 0 -31 14
-30 159 14 115 35 129 42 182 91 57 53 103 74 409 190 8 3 -19 -19 -60 -49
-41 -30 -122 -93 -180 -139 -170 -138 -278 -201 -423 -245 -115 -35 -131 -50
-125 -124 6 -79 41 -144 116 -210 56 -50 62 -59 57 -85 -9 -49 29 -112 87
-146 28 -15 66 -31 84 -35 22 -4 34 -12 34 -22 0 -9 11 -35 25 -59 24 -41 89
-84 128 -84 22 0 22 -9 -8 -82 -31 -75 -36 -81 -158 -180 -153 -125 -230 -230
-288 -395 -11 -32 -42 -141 -69 -243 -54 -207 -80 -282 -113 -331 -20 -30 -30
-35 -89 -44 -75 -13 -111 -33 -132 -74 -9 -16 -41 -104 -72 -197 -50 -147 -58
-179 -57 -244 0 -123 55 -220 124 -220 41 0 57 9 80 46 l21 34 34 -30 c70 -61
114 -33 173 112 24 57 64 137 90 178 26 41 72 115 102 163 67 109 226 286 435
482 87 83 220 209 294 281 74 71 176 163 225 204 50 40 119 101 155 136 l65
63 47 -15 c41 -14 53 -14 95 -2 42 12 52 12 78 -1 45 -23 108 -18 152 11 l38
25 42 -19 c39 -17 46 -17 78 -4 19 8 35 19 35 25 0 6 15 4 35 -5 49 -20 101
-18 124 5 11 11 38 25 60 31 22 6 44 16 48 23 4 7 27 19 51 26 56 16 122 75
122 108 0 14 -8 37 -19 51 -83 119 -101 213 -111 577 -7 285 -9 305 -34 390
-15 50 -38 110 -52 134 -13 24 -24 50 -24 58 0 47 156 289 251 389 38 41 77
90 84 109 14 32 16 34 45 23 17 -6 45 -7 63 -4 28 6 35 2 63 -30 32 -39 54
-40 54 -3 0 12 3 19 8 17 4 -2 68 -34 142 -71 173 -87 188 -89 284 -44 127 60
193 111 481 367 l80 71 50 -5 c28 -3 93 -8 147 -12 l96 -7 134 83 c73 46 141
91 151 100 17 16 17 18 2 34 -9 9 -25 16 -35 16 -13 0 -17 5 -13 19 12 45 -94
31 -142 -19 -30 -31 -54 -36 -127 -24 l-37 6 35 34 c25 23 35 40 32 56 -4 31
-30 34 -86 10 -26 -11 -79 -25 -119 -30 -83 -12 -99 -21 -149 -86 -32 -43 -55
-56 -270 -161 -128 -63 -254 -128 -278 -144 -25 -17 -49 -31 -55 -31 -14 0
-171 93 -171 101 0 4 30 22 68 39 37 18 78 42 90 53 57 52 79 155 48 215 -8
15 -39 51 -69 79 -86 83 -85 124 7 192 77 57 108 101 114 161 6 68 -3 95 -49
145 -36 39 -68 57 -172 95 l-28 10 73 82 c243 274 428 602 505 896 36 135 38
320 5 440 -21 77 -22 85 -8 145 8 34 29 103 46 152 40 117 85 294 106 420 24
142 25 430 2 505 -28 90 -78 122 -150 96z m84 -53 c35 -40 43 -94 42 -273 -1
-233 -36 -427 -133 -733 -45 -142 -49 -187 -24 -268 28 -87 23 -296 -10 -421
-54 -203 -151 -406 -304 -635 -71 -106 -206 -276 -252 -317 -20 -18 -22 -18
-41 -1 -11 10 -20 22 -20 27 0 5 36 53 80 106 116 138 192 256 275 427 169
347 222 630 156 836 l-21 66 30 89 c98 286 124 527 71 632 -26 52 -52 66 -108
59 -128 -14 -388 -282 -638 -657 -134 -201 -208 -332 -317 -560 -49 -102 -93
-192 -97 -200 -7 -13 -57 -16 -69 -5 -5 5 129 308 195 440 237 474 539 895
876 1222 170 165 265 216 309 166z m-4464 -79 c215 -44 505 -192 845 -431 617
-433 1137 -1054 1467 -1750 53 -112 53 -113 34 -134 -47 -52 -48 -51 -129 112
-205 409 -419 704 -749 1035 -282 281 -545 482 -801 611 -145 73 -206 97 -309
123 -252 64 -396 -30 -396 -257 0 -156 83 -397 194 -561 l36 -54 -25 -32 c-38
-50 -73 -135 -86 -209 -40 -237 135 -621 421 -921 162 -170 415 -358 620 -461
30 -15 56 -29 58 -30 2 -2 -4 -17 -12 -34 -9 -16 -16 -39 -16 -51 0 -11 -4
-20 -8 -20 -20 0 -324 177 -444 259 -189 128 -285 206 -433 355 -192 193 -315
379 -375 564 -55 171 -51 287 17 432 56 119 54 133 -60 367 -108 221 -147 321
-183 468 -81 334 -33 578 123 625 45 13 128 11 211 -6z m4246 -384 c26 -44 27
-175 2 -300 -13 -64 -140 -466 -183 -577 -3 -7 2 -13 10 -13 8 0 39 32 69 70
l53 71 12 -28 c17 -40 16 -72 -7 -138 -56 -163 -192 -355 -356 -501 l-73 -66
-28 20 c-48 34 -119 52 -203 52 l-79 0 30 88 c80 225 220 437 304 458 76 19
111 -34 102 -156 -11 -159 -94 -290 -183 -290 -41 0 -54 16 -54 70 0 64 37
134 73 138 24 3 27 0 27 -28 0 -32 -15 -69 -34 -83 -7 -6 -6 -7 4 -5 8 3 24
21 35 40 27 50 13 93 -30 93 -23 0 -35 -9 -59 -42 -39 -55 -48 -146 -20 -180
29 -33 55 -35 104 -11 81 41 145 157 157 284 7 80 -2 126 -33 164 -93 110
-270 -80 -405 -435 -38 -100 -38 -100 -71 -97 -17 1 -33 4 -35 5 -5 5 56 168
98 261 86 191 227 398 309 452 22 15 40 31 40 35 0 19 -84 9 -124 -15 -106
-62 -265 -319 -382 -618 l-38 -98 -48 0 c-26 0 -49 3 -51 8 -7 10 108 256 188
402 193 355 430 680 637 875 81 77 177 138 207 133 8 -2 24 -19 35 -38z m52
-12 c22 -43 29 -169 15 -267 -21 -139 -81 -352 -126 -441 -27 -53 -85 -134
-91 -127 -3 2 15 58 39 123 113 303 151 464 145 616 -2 57 -8 112 -13 122 -14
32 13 9 31 -26z m-3992 -53 c149 -20 426 -154 656 -318 431 -308 812 -720
1082 -1170 82 -135 218 -397 218 -418 0 -20 -78 -4 -183 37 l-99 39 -52 130
c-143 357 -315 625 -539 842 -161 156 -294 223 -411 209 -59 -8 -103 -31 -76
-40 8 -2 38 -12 66 -21 179 -56 419 -284 586 -555 63 -102 150 -284 192 -403
42 -116 41 -116 -96 19 -77 76 -94 100 -149 207 -106 209 -191 326 -307 422
-161 133 -300 164 -400 88 -53 -40 -77 -96 -76 -183 0 -130 68 -246 176 -299
138 -70 278 -18 278 102 0 79 -58 151 -132 163 -42 7 -88 -25 -88 -62 0 -34
26 -81 51 -95 33 -17 33 -4 -1 29 -74 75 2 143 91 81 87 -61 73 -194 -23 -220
-160 -43 -328 111 -328 302 0 74 17 115 63 156 158 139 464 -78 663 -470 73
-144 104 -184 224 -292 55 -48 97 -92 95 -96 -3 -4 -19 -10 -36 -14 -16 -4
-50 -22 -75 -41 l-45 -34 -127 58 c-70 33 -233 98 -362 146 -416 154 -651 285
-826 460 -82 82 -159 189 -171 234 -6 25 10 63 46 110 l17 24 70 -53 c74 -56
126 -82 154 -77 14 2 -3 37 -92 183 -177 291 -242 442 -255 590 -12 151 53
253 152 239 11 -2 42 -6 69 -9z m-216 -47 c-16 -31 -23 -66 -26 -129 -8 -162
53 -323 241 -633 54 -88 97 -161 97 -163 0 -15 -114 62 -165 112 -52 50 -73
81 -123 185 -73 149 -108 254 -121 358 -16 138 15 248 84 292 16 11 31 20 33
20 1 0 -7 -19 -20 -42z m3632 -600 c-113 -113 -257 -366 -331 -580 -32 -92
-36 -98 -61 -98 -16 0 -28 5 -28 10 0 14 60 167 99 254 112 247 279 466 355
466 14 0 6 -12 -34 -52z m-2597 -50 c151 -58 373 -278 539 -533 74 -113 185
-332 244 -476 24 -61 44 -112 44 -113 0 -1 -28 0 -62 2 -68 4 -97 25 -98 68 0
67 -148 391 -248 544 -148 228 -378 446 -537 508 -37 15 -45 21 -30 24 32 7
96 -3 148 -24z m3096 -226 c-52 -159 -148 -317 -272 -448 -100 -106 -112 -113
-136 -82 l-19 23 122 125 c140 143 226 267 283 404 44 105 59 90 22 -22z m18
-80 c-20 -216 -155 -551 -322 -802 -79 -118 -194 -255 -206 -243 -30 30 66
172 170 251 39 29 90 133 97 197 5 42 2 55 -16 78 -18 22 -29 27 -66 27 l-45
0 89 89 c49 49 115 127 146 173 53 81 146 262 146 287 0 6 3 11 6 11 4 0 4
-31 1 -68z m-3933 -258 c187 -187 378 -293 821 -459 297 -111 490 -198 481
-217 -3 -7 -11 -32 -18 -55 -12 -43 -21 -52 -33 -33 -8 13 -120 78 -230 133
-109 55 -272 112 -361 128 -79 14 -313 117 -432 191 -154 96 -338 291 -411
436 -19 38 -21 48 -10 79 l11 35 41 -69 c24 -40 81 -109 141 -169z m-84 -70
c112 -140 266 -256 470 -353 l123 -58 -57 -6 c-152 -15 -214 -117 -150 -245
65 -131 229 -200 334 -141 117 66 48 240 -96 243 -58 1 -93 -30 -78 -71 11
-33 60 -61 77 -44 8 8 6 11 -8 11 -22 0 -55 28 -55 46 0 23 45 46 76 38 74
-18 124 -69 124 -127 0 -38 -47 -84 -96 -93 -148 -28 -323 153 -270 279 24 58
80 81 196 80 190 -1 439 -88 678 -236 71 -45 84 -57 93 -89 11 -42 29 -60 29
-29 0 12 4 21 8 21 4 0 38 -25 75 -56 l67 -57 0 -91 c0 -138 -38 -194 -138
-204 -135 -13 -216 102 -134 190 30 33 25 42 -17 33 -84 -18 -151 -109 -151
-203 0 -55 -4 -59 -45 -40 -29 13 -31 29 -9 63 14 22 15 25 1 25 -9 0 -29 -11
-45 -25 l-29 -24 -104 58 c-187 104 -284 172 -443 309 -302 262 -546 682 -546
940 l0 36 35 -58 c19 -31 57 -86 85 -122z m2895 -27 c-11 -7 -45 -37 -76 -67
-41 -39 -61 -68 -70 -100 -7 -25 -13 -46 -14 -48 -1 -1 -14 2 -29 7 -24 10
-26 15 -26 70 0 50 4 65 27 92 15 18 21 30 13 27 -8 -2 -26 -20 -38 -39 -19
-28 -23 -44 -20 -86 l5 -52 -30 15 c-17 9 -36 32 -46 55 -9 21 -19 39 -23 39
-9 0 8 -58 22 -75 8 -10 -1 -10 -42 2 -69 20 -73 25 -54 62 21 40 83 81 149
97 70 17 280 18 252 1z m215 -6 l55 -7 -65 -30 c-36 -17 -76 -41 -90 -53 -28
-25 -26 -25 52 12 130 60 278 77 378 43 38 -14 70 -35 108 -73 30 -30 52 -57
48 -60 -3 -3 -14 1 -24 10 -32 29 -94 49 -155 48 -33 0 -62 -2 -65 -5 -3 -4
21 -6 54 -6 64 0 123 -22 163 -60 25 -24 60 -95 61 -121 0 -30 -30 -117 -50
-141 l-19 -23 9 34 c14 50 -3 103 -45 140 -66 57 -164 55 -330 -9 -185 -71
-286 -66 -370 20 -38 39 -39 40 -19 61 10 12 48 41 84 65 36 24 61 44 57 44
-20 0 -93 -45 -133 -82 -57 -53 -76 -42 -49 28 22 57 65 108 125 145 48 31 99
35 220 20z m610 -161 c37 -37 21 -133 -35 -218 -35 -53 -59 -64 -40 -19 26 63
28 119 6 182 -16 46 -18 61 -8 67 22 14 56 9 77 -12z m-1192 -9 c10 -6 4 -10
-20 -15 -47 -9 -120 -57 -149 -97 l-23 -34 41 37 c63 56 119 80 194 86 72 5
103 -11 44 -22 -25 -5 -57 -27 -106 -74 -72 -67 -118 -92 -176 -92 -39 0 -55
-24 -52 -78 1 -20 -1 -47 -5 -60 -5 -15 -2 -31 7 -46 15 -23 14 -24 -22 -35
-49 -14 -96 -14 -163 1 -53 11 -53 11 -23 21 17 5 43 21 58 36 29 26 77 109
77 133 0 23 49 119 80 158 54 68 188 113 238 81z m229 -71 c48 -29 67 -72 59
-139 -13 -116 -85 -209 -223 -289 -39 -23 -74 -42 -78 -42 -3 0 20 22 53 49
116 97 193 211 207 306 5 35 3 33 -13 -16 -62 -184 -222 -325 -430 -380 -70
-19 -96 -20 -277 -14 -163 5 -209 3 -250 -9 -64 -20 -125 -59 -153 -100 -34
-49 -26 -50 18 -2 22 24 64 54 93 67 50 23 60 24 312 24 260 0 260 0 335 28
41 15 92 32 113 38 22 5 57 19 79 30 22 11 42 18 44 16 8 -8 -99 -118 -137
-143 -85 -53 -151 -67 -354 -74 -168 -5 -195 -8 -231 -28 -47 -24 -119 -101
-127 -135 -5 -21 -5 -21 6 -2 27 46 107 114 149 127 44 13 368 19 368 7 0 -3
-23 -29 -52 -58 -71 -71 -185 -126 -302 -145 -122 -20 -173 -48 -213 -116 -55
-97 -87 -134 -133 -158 -38 -20 -56 -23 -115 -19 -39 2 -85 11 -103 21 -19 10
-36 15 -38 13 -3 -3 19 -16 47 -31 90 -44 214 -32 277 27 13 12 38 49 55 82
66 123 116 149 322 164 153 12 221 36 287 102 26 26 48 53 48 59 0 17 14 11
33 -15 16 -23 16 -26 -3 -79 -12 -30 -41 -78 -66 -105 -46 -51 -68 -63 -280
-161 -115 -53 -166 -110 -214 -240 -39 -107 -72 -154 -129 -188 -38 -22 -58
-27 -116 -27 -63 0 -77 4 -138 38 -56 32 -75 38 -103 33 -36 -7 -54 -29 -54
-68 -1 -22 -2 -21 -17 6 -23 44 -18 112 11 156 34 51 100 82 195 90 66 6 141
30 141 46 0 2 -8 0 -19 -5 -47 -26 -109 -31 -194 -16 -74 13 -91 13 -141 0
-32 -8 -66 -20 -76 -25 -49 -26 -131 2 -194 66 -68 70 -95 201 -60 282 l17 37
7 -35 c9 -47 24 -74 54 -94 31 -19 95 -21 121 -2 17 13 17 15 -10 50 -51 67
-41 179 22 237 l26 24 -7 -38 c-6 -29 -2 -49 15 -84 44 -90 185 -121 277 -60
62 41 82 93 82 215 0 64 5 115 14 135 30 74 151 137 237 123 22 -3 39 -4 39
-2 0 11 -106 68 -160 86 -110 37 -214 23 -282 -38 -38 -34 -40 -35 -34 -12 15
51 62 105 116 135 48 26 65 30 130 29 63 0 92 -7 185 -43 222 -87 247 -94 335
-99 76 -4 95 -1 183 28 53 18 97 37 97 42 0 5 4 7 9 3 11 -6 26 33 17 42 -3 4
-6 1 -6 -6 0 -16 -97 -61 -132 -61 -35 0 -50 26 -35 63 l12 27 28 -26 c26 -24
31 -25 55 -13 15 7 30 12 35 11 13 -3 47 62 47 89 0 15 -7 32 -16 39 -13 12
-9 19 33 63 98 100 197 132 270 87z m732 -60 c83 -42 92 -141 20 -227 -48 -58
-63 -101 -57 -164 8 -84 18 -92 230 -187 86 -39 111 -74 105 -148 -4 -61 -21
-85 -106 -150 -36 -27 -76 -65 -88 -83 -23 -34 -31 -85 -14 -95 5 -3 9 0 8 7
-2 54 17 65 27 15 4 -20 25 -49 60 -82 63 -60 76 -82 76 -131 0 -61 -45 -123
-117 -159 -50 -25 -54 -20 -27 32 45 82 22 147 -72 209 -92 61 -103 97 -58
193 47 97 34 167 -46 254 -29 32 -40 53 -45 91 -4 28 -15 69 -26 93 -10 23
-16 42 -14 42 2 0 14 -19 28 -42 34 -58 69 -89 152 -136 109 -61 140 -126 94
-201 -28 -45 -19 -48 11 -4 29 43 32 108 7 147 -9 14 -49 44 -89 67 -90 51
-140 98 -180 167 -32 56 -35 85 -23 193 8 65 -13 163 -46 216 -19 30 -19 33
-3 33 36 0 100 -48 119 -90 17 -37 17 -48 6 -98 -20 -91 -24 -148 -12 -168 10
-16 11 -14 6 12 -4 19 3 65 15 113 17 67 19 89 10 122 -16 60 -66 108 -125
124 -28 7 -49 16 -49 21 2 14 74 32 132 33 34 1 66 -6 91 -19z m-241 -57 c33
-48 59 -106 67 -151 l7 -42 -26 10 c-48 18 -126 -14 -99 -41 7 -7 23 -7 52 2
35 10 44 10 56 -2 18 -18 9 -70 -11 -62 -25 9 -61 -6 -80 -34 l-18 -28 33 28
c18 15 40 27 49 27 11 0 6 -7 -14 -19 -55 -34 -75 -69 -72 -125 3 -49 4 -51
31 -49 15 1 42 9 59 17 17 9 34 13 39 10 19 -12 42 -112 35 -156 -13 -84 -137
-257 -209 -292 -46 -21 -77 -20 -173 4 -121 31 -235 92 -308 165 -51 51 -66
61 -80 53 -24 -13 -58 -3 -96 28 -28 24 -70 91 -70 112 0 5 18 16 39 24 37 15
41 15 57 -3 19 -21 5 -26 -27 -9 -11 7 -19 7 -19 1 0 -5 5 -11 12 -13 6 -2 16
-22 23 -44 8 -32 16 -40 38 -42 15 -2 27 1 27 6 0 5 -10 8 -22 8 -18 -1 -24 5
-26 27 -4 32 13 36 22 5 4 -16 8 -19 14 -11 6 9 16 9 47 -1 21 -8 46 -12 54
-11 9 2 20 4 25 4 4 1 -6 14 -22 29 -76 71 -41 213 84 344 60 63 88 118 99
195 l7 50 38 -18 c55 -27 156 -24 245 6 90 30 90 30 113 -2z m-815 -39 c3 -3
2 -16 -3 -29 -5 -14 -5 -26 3 -34 8 -8 8 -14 -1 -23 -7 -7 -12 -8 -12 -3 0 5
-7 -1 -16 -13 -22 -32 -48 -27 -79 17 -33 49 -30 75 9 79 27 3 28 2 22 -23 -6
-23 -4 -26 9 -21 9 3 22 6 28 6 8 0 7 4 -1 12 -21 21 -15 28 29 37 3 0 8 -2
12 -5z m-740 -236 c26 -5 47 -13 47 -16 0 -4 -24 -16 -53 -27 l-52 -20 -47 35
c-27 20 -43 37 -36 41 12 8 72 2 141 -13z m-132 -34 c27 -20 49 -37 49 -39 0
-2 -11 -21 -25 -41 -14 -21 -28 -48 -31 -61 -6 -21 -9 -20 -75 34 -38 31 -69
59 -69 62 1 20 72 81 94 81 4 0 30 -16 57 -36z m1699 -89 c0 -8 -4 -15 -10
-15 -5 0 -10 7 -10 15 0 8 5 15 10 15 6 0 10 -7 10 -15z m-31 -42 c10 -19 9
-23 -4 -23 -10 0 -15 9 -15 27 0 29 2 29 19 -4z m-633 -17 c-4 -20 -1 -51 8
-75 7 -23 10 -41 6 -41 -4 0 -27 18 -51 39 l-44 39 40 36 c22 19 42 35 44 36
2 0 0 -15 -3 -34z m-196 -130 c0 -28 -68 -100 -119 -125 -39 -21 -96 -36 -166
-45 -37 -5 -34 -2 35 31 56 27 94 55 148 110 60 61 76 72 88 63 8 -7 14 -22
14 -34z m1065 -152 c22 -46 19 -106 -10 -174 -43 -103 -29 -148 64 -204 38
-24 64 -48 75 -70 20 -41 20 -57 2 -99 -18 -44 -43 -67 -72 -67 -19 0 -24 5
-24 27 0 40 -36 106 -67 125 -16 9 -46 19 -68 23 -32 6 -88 28 -102 40 -2 1
11 28 29 60 26 49 32 70 31 120 0 33 -8 79 -17 101 l-17 42 39 61 c22 33 43
73 46 87 l7 27 34 -33 c19 -18 41 -48 50 -66z m-963 39 c26 -16 29 -22 23 -53
-20 -109 -90 -195 -210 -257 -40 -20 -72 -39 -70 -41 2 -3 42 14 89 37 117 56
189 146 203 251 3 22 9 40 13 40 5 0 16 3 25 7 16 5 17 -2 13 -68 -7 -130 -79
-232 -171 -242 -31 -3 -72 -19 -120 -47 -39 -23 -105 -50 -146 -61 -125 -32
-156 -65 -156 -166 l0 -63 -32 -6 c-18 -3 -38 -13 -45 -21 -10 -13 -8 -19 15
-37 l27 -22 -78 -76 c-42 -42 -88 -81 -102 -86 -33 -13 -120 1 -176 28 -49 24
-127 105 -142 149 l-10 29 50 -26 c104 -54 242 -25 317 65 17 20 49 80 71 133
59 140 105 181 304 270 144 65 198 112 241 213 16 37 31 67 33 67 2 0 17 -8
34 -17z m163 -167 c0 -109 -21 -146 -90 -163 -27 -7 -60 -10 -73 -6 -23 6 -23
6 16 47 57 58 84 119 90 198 l5 66 26 -31 c23 -28 26 -39 26 -111z m102 17
c38 -27 92 -59 120 -72 l51 -23 -5 -57 c-5 -52 14 -132 24 -104 7 20 31 3 42
-30 6 -18 9 -56 8 -85 -6 -102 -82 -133 -188 -76 -59 33 -144 120 -178 186
l-25 46 31 35 c36 41 58 120 51 185 -2 23 -3 42 -2 42 2 0 33 -21 71 -47z
m-1636 -37 c24 -30 1 -41 -45 -22 -35 14 -56 41 -56 71 0 13 6 12 42 -6 23
-12 49 -31 59 -43z m2170 -29 c9 -44 8 -64 -5 -108 -9 -30 -24 -65 -34 -77
l-18 -24 -47 30 c-41 26 -45 31 -31 43 26 22 54 86 54 126 0 27 8 45 27 65 32
33 38 28 54 -55z m-105 -40 c-4 -19 -19 -53 -35 -74 -24 -33 -36 -41 -73 -46
-23 -3 -62 -1 -85 5 -40 10 -43 13 -43 44 0 18 4 45 10 59 10 26 12 26 77 20
55 -4 76 -2 108 13 22 11 42 18 44 16 2 -2 1 -18 -3 -37z m-703 -118 c13 -6
31 -23 39 -37 23 -38 41 -148 33 -202 -8 -61 -35 -141 -44 -135 -5 2 -25 -20
-45 -49 -52 -75 -103 -109 -174 -114 l-57 -4 -27 47 c-16 25 -28 51 -28 57 0
5 17 26 38 46 34 32 34 34 7 18 -16 -10 -36 -25 -42 -34 -12 -14 -15 -13 -35
6 -13 11 -31 34 -40 49 -15 27 -15 32 2 83 14 40 15 50 4 35 -8 -11 -20 -36
-26 -57 l-11 -37 -30 21 c-28 20 -29 23 -25 86 4 57 8 68 35 92 21 19 49 31
90 38 36 6 96 29 147 56 90 48 141 57 189 35z m127 -51 c71 -126 204 -228 296
-228 85 0 138 88 115 190 -11 50 -6 64 14 36 29 -39 114 -334 122 -422 7 -78
-14 -128 -92 -215 -32 -35 -98 -125 -146 -199 -49 -74 -93 -141 -99 -147 -7
-8 -38 -13 -86 -13 -121 0 -220 45 -313 143 -77 80 -76 78 -45 155 19 48 28
88 29 139 l3 73 52 52 c60 61 92 120 110 199 16 74 9 203 -14 248 -15 28 -15
35 -4 42 20 13 21 13 58 -53z m2039 21 c-6 -11 -31 -30 -55 -40 -24 -11 -44
-23 -44 -28 0 -4 30 -13 68 -20 37 -7 79 -15 95 -17 15 -3 27 -10 27 -15 0 -5
-3 -8 -7 -8 -24 4 -53 -2 -53 -11 0 -6 9 -6 25 0 26 10 34 -1 13 -17 -7 -6
-26 -15 -43 -21 l-30 -10 33 -1 c28 -1 37 6 65 46 40 58 88 115 93 110 8 -7
-48 -122 -77 -158 -46 -59 -71 -64 -227 -51 -116 10 -139 10 -158 -3 -13 -8
-96 -76 -186 -151 -251 -210 -402 -303 -471 -290 -39 7 -260 114 -292 141 -16
13 -17 18 -6 22 33 13 53 45 47 74 -4 24 -1 30 22 41 15 7 31 23 37 36 5 12
12 21 15 20 3 -2 44 -25 92 -52 l87 -49 -16 -31 -15 -31 38 36 c59 54 81 67
334 195 212 107 240 124 296 181 34 35 63 63 65 63 30 0 175 33 196 44 38 21
46 20 32 -5z m-1440 -44 c41 -25 98 -49 129 -56 35 -7 63 -20 78 -36 41 -44
57 -130 27 -141 -7 -2 -13 5 -13 15 0 13 -3 14 -8 5 -6 -9 -12 -6 -20 12 -6
14 -21 30 -34 37 l-23 12 22 -25 c13 -13 28 -38 34 -56 10 -28 8 -37 -15 -76
-24 -42 -27 -44 -60 -36 -18 4 -40 11 -47 16 -12 6 -12 5 -1 -8 7 -9 27 -20
43 -23 23 -5 29 -11 24 -23 -4 -10 -14 -36 -22 -59 -13 -38 -18 -43 -46 -43
-67 0 -77 8 -78 59 0 25 -8 75 -18 111 -24 84 -96 291 -111 320 -10 18 -9 24
1 31 28 17 66 8 138 -36z m1691 6 c0 -5 -18 -32 -40 -60 -22 -28 -40 -54 -40
-59 0 -5 -7 -15 -15 -22 -14 -12 37 111 58 138 11 14 37 16 37 3z m-3846 -51
l39 -24 -24 -15 c-13 -8 -47 -38 -75 -66 -175 -176 -63 -394 254 -495 51 -17
103 -30 117 -30 37 0 31 -14 -24 -54 l-49 -36 -68 14 c-234 50 -455 179 -513
300 -28 56 -28 134 0 188 31 60 112 137 209 196 46 29 87 51 90 49 3 -1 23
-13 44 -27z m311 4 c-31 -23 -94 -36 -139 -28 l-41 7 55 18 c30 9 75 17 100
18 42 0 44 -1 25 -15z m3584 7 c9 -6 -6 -19 -55 -45 l-69 -36 47 45 c49 47 55
50 77 36z m-3702 -67 l31 -6 -16 -44 c-15 -41 -19 -44 -53 -44 -90 0 -137
-135 -54 -156 32 -8 75 10 75 31 0 19 -16 20 -24 0 -7 -18 -47 -20 -64 -3 -36
36 12 108 73 108 27 0 35 -4 35 -18 0 -10 9 -35 20 -57 11 -22 20 -45 20 -52
0 -50 -100 -113 -180 -113 -69 0 -147 41 -166 86 -30 73 17 178 113 249 50 37
69 39 190 19z m2303 -140 c0 -3 -16 -12 -35 -20 -31 -13 -34 -17 -25 -34 14
-26 6 -38 -33 -48 -24 -7 -31 -14 -29 -28 11 -59 8 -69 -20 -72 -25 -3 -28 -7
-28 -43 0 -46 -19 -49 -34 -7 -7 21 -1 42 32 109 56 115 86 149 135 149 20 0
37 -2 37 -6z m-2122 -74 l33 -63 -24 -21 c-78 -66 -51 -156 47 -156 37 0 48 5
66 27 12 15 19 35 17 44 -4 14 1 14 44 -4 l48 -21 -39 -20 c-22 -11 -75 -46
-117 -78 -43 -32 -83 -58 -89 -58 -39 0 -215 55 -271 84 -71 38 -156 105 -173
137 -10 18 -9 18 24 -2 44 -26 128 -35 186 -19 44 12 120 75 132 110 4 12 8
13 19 3 15 -15 49 -17 49 -4 0 5 -7 14 -15 21 -28 23 -12 97 20 87 5 -2 25
-32 43 -67z m623 45 c72 -54 161 -192 152 -237 -3 -16 -9 -28 -13 -28 -10 0
-20 26 -20 50 0 14 -7 18 -32 16 l-33 -1 2 48 c1 46 1 47 -30 47 -48 0 -59 12
-55 55 3 39 3 39 -41 48 -32 6 -40 11 -30 18 25 16 64 9 100 -16z m-57 -63
c-7 -34 15 -60 58 -69 26 -5 28 -9 23 -34 -5 -23 -1 -34 18 -51 l24 -21 -111
-81 c-277 -200 -284 -204 -644 -352 -181 -74 -210 -89 -261 -136 -51 -47 -70
-57 -167 -88 -146 -47 -138 -45 -125 -22 6 11 31 29 56 41 82 38 72 64 -38
106 -53 20 -99 30 -172 34 l-100 7 40 13 c26 9 118 16 255 20 l216 6 54 33
c30 18 145 101 255 183 131 98 229 164 285 190 47 22 99 47 116 55 17 9 71 56
120 105 49 49 92 89 96 89 4 0 5 -13 2 -28z m-446 -162 c-4 -31 -45 -55 -80
-47 -64 16 -76 71 -27 119 l30 31 40 -39 c29 -28 39 -46 37 -64z m816 -52 c-9
-87 -25 -136 -59 -175 l-33 -38 -148 3 c-127 3 -163 1 -242 -18 -51 -12 -95
-20 -98 -18 -2 3 31 15 73 27 93 27 234 98 291 146 22 19 44 35 50 35 5 0 21
18 35 39 27 40 26 40 119 49 15 2 16 -5 12 -50z m-217 -15 c6 -16 -200 -143
-213 -131 -6 7 188 149 199 145 6 -2 12 -8 14 -14z m274 -305 c94 -94 232
-148 341 -134 50 7 60 -1 33 -28 -19 -19 -110 -30 -167 -21 -108 18 -258 124
-308 219 -21 39 -22 46 -10 61 14 16 16 16 35 -11 11 -16 45 -55 76 -86z
m-141 42 c28 -36 25 -40 -23 -40 -86 0 -258 -63 -327 -119 -14 -11 15 -1 63
24 95 47 197 75 274 75 44 0 51 -4 104 -56 l56 -55 -87 -87 c-48 -48 -93 -98
-100 -112 -7 -14 26 14 74 62 48 49 100 95 116 103 26 14 32 13 62 -4 18 -11
58 -27 89 -36 56 -16 56 -16 62 -60 11 -75 -20 -262 -68 -410 -4 -13 -1 -11 8
5 46 78 94 313 83 401 l-6 47 36 4 c31 4 37 0 50 -23 20 -40 52 -164 63 -244
8 -67 9 -68 10 -20 1 72 -17 171 -43 237 l-23 56 24 11 c23 11 26 8 57 -61 62
-134 68 -174 75 -493 4 -159 3 -292 -1 -293 -13 -6 -36 -30 -40 -43 -3 -9 -9
-9 -25 0 -12 6 -33 11 -47 11 -48 0 -63 -75 -22 -107 21 -17 22 -21 10 -38
-21 -28 -17 -62 8 -79 31 -22 55 -20 81 7 20 19 26 21 48 9 13 -7 34 -10 46
-7 18 4 28 -4 54 -42 l32 -47 -34 -28 c-59 -50 -166 -71 -249 -49 -19 6 -53
14 -76 20 l-40 11 23 90 c32 127 43 233 42 385 -2 194 -14 213 -15 24 -2 -166
-23 -327 -59 -446 -14 -48 -18 -53 -45 -53 -16 0 -85 -19 -152 -41 -109 -37
-131 -41 -193 -37 -124 8 -245 91 -302 208 l-21 41 132 132 c155 155 266 314
326 467 28 72 22 64 -36 -47 -77 -147 -169 -268 -302 -401 l-124 -124 -45 79
c-24 43 -56 94 -71 113 -87 114 -232 205 -351 218 l-64 7 58 53 c80 73 149
119 332 218 138 75 263 155 263 169 0 3 -31 -15 -68 -39 -37 -24 -128 -73
-202 -109 -171 -82 -272 -149 -372 -244 l-79 -76 -56 7 c-96 11 -137 37 -257
161 -61 63 -126 120 -145 128 l-33 14 28 7 c57 15 175 66 229 101 56 35 60 35
46 0 -5 -11 -5 -30 0 -42 7 -19 5 -23 -13 -23 -57 0 -81 -85 -33 -116 16 -10
36 -14 54 -11 25 5 28 3 24 -13 -7 -25 38 -70 69 -70 40 0 68 27 68 65 0 29 4
34 27 37 58 7 69 90 17 125 -21 13 -32 15 -55 6 -28 -11 -29 -10 -27 15 4 53
-46 98 -84 77 -74 -42 291 244 382 300 173 104 329 145 543 142 145 -2 149 -3
167 -27z m-1610 -230 c-32 -27 -94 -49 -105 -38 -11 11 82 67 110 67 l30 0
-35 -29z m95 10 c17 -6 6 -15 -64 -49 -47 -22 -87 -38 -90 -35 -3 3 2 10 11
15 9 5 35 25 58 44 44 36 52 39 85 25z m467 -222 c28 -22 28 -78 0 -78 -10 0
-24 -6 -31 -12 -10 -11 -16 -8 -31 12 -25 32 -25 45 0 70 23 23 40 25 62 8z
m120 -95 c10 -9 18 -26 18 -38 0 -33 -24 -48 -63 -41 -32 6 -34 9 -32 42 3 53
40 70 77 37z m-108 -9 c19 -7 21 -35 4 -52 -7 -7 -17 -8 -30 -1 -21 11 -23 30
-6 47 14 14 12 14 32 6z m-59 -36 c9 -28 15 -34 45 -36 45 -5 60 -18 60 -51 0
-33 -17 -51 -46 -51 -31 0 -54 36 -47 71 6 33 4 34 -32 17 -35 -16 -75 3 -75
35 0 31 18 47 55 47 26 0 32 -5 40 -32z m-310 -42 c14 -9 47 -40 73 -69 26
-29 77 -82 114 -119 38 -37 68 -73 68 -80 0 -22 38 -76 62 -89 37 -20 86 -27
123 -19 30 7 35 5 35 -10 0 -29 -50 -234 -60 -244 -5 -5 -29 1 -57 15 -39 20
-53 34 -74 78 -25 51 -31 56 -88 77 -95 34 -139 85 -127 149 6 30 2 36 -54 85
-68 59 -103 112 -121 183 -15 61 -3 78 47 67 19 -4 46 -15 59 -24z m386 -283
c30 -3 78 -1 105 5 112 24 262 -35 374 -147 49 -50 79 -91 118 -168 47 -91 51
-103 33 -103 -23 0 -61 49 -61 78 0 44 -10 52 -51 46 -49 -8 -77 13 -85 66
l-6 37 -44 -16 c-40 -14 -47 -14 -72 -1 -20 12 -28 25 -30 52 l-3 36 -50 -16
c-46 -15 -53 -15 -77 -1 -23 13 -27 21 -25 53 2 33 0 37 -15 31 -9 -5 -44 -10
-77 -12 -51 -4 -64 -2 -88 17 -15 12 -32 31 -38 42 -10 19 -9 20 12 14 13 -4
49 -10 80 -13z m213 -166 c33 10 35 9 45 -17 18 -53 73 -71 134 -45 12 5 17 3
17 -8 0 -54 54 -94 109 -82 28 6 31 4 31 -19 0 -64 -196 -334 -353 -486 -236
-227 -444 -513 -722 -991 -130 -222 -163 -275 -205 -322 -38 -44 -54 -46 -77
-11 -23 35 -20 112 7 188 32 93 113 236 162 287 58 60 93 144 158 384 100 365
130 415 393 648 54 48 86 86 106 126 29 56 68 189 91 302 l11 57 29 -11 c20
-8 38 -8 64 0z m1462 -95 c4 -29 3 -42 -5 -42 -6 0 -11 4 -11 9 0 5 -9 13 -20
16 -25 8 -26 42 -3 67 20 23 29 12 39 -50z m-92 9 c16 -18 16 -21 1 -44 -31
-47 -92 -5 -71 49 8 20 50 17 70 -5z m61 -66 c0 -13 -8 -21 -22 -23 -17 -3
-23 2 -23 16 0 10 3 22 7 26 13 13 38 1 38 -19z m61 -47 c7 -20 10 -39 7 -42
-12 -12 -40 -6 -61 14 l-21 20 22 25 c28 31 37 28 53 -17z m-113 10 c30 -15
35 -39 11 -63 -36 -36 -88 2 -66 49 13 30 18 31 55 14z m-958 -88 c16 0 32
-14 55 -49 30 -48 79 -98 129 -133 l25 -18 -25 -26 c-31 -35 -235 -214 -324
-286 -106 -85 -712 -691 -789 -788 -37 -47 -92 -128 -123 -180 -58 -99 -131
-207 -159 -235 -28 -27 -49 4 -48 68 1 47 10 68 104 226 286 487 506 790 745
1026 131 130 232 255 301 372 l36 63 26 -20 c13 -11 35 -20 47 -20z m884 -178
c79 -17 91 -32 25 -32 -14 0 -24 -6 -24 -14 0 -31 -51 -34 -104 -6 l-39 19
-23 -24 c-28 -30 -58 -32 -100 -6 l-32 19 -38 -26 c-46 -32 -123 -37 -149 -11
-14 14 -10 16 47 27 35 6 101 28 148 47 96 40 130 41 289 7z m-565 -53 c27 -5
51 -9 55 -10 3 0 -10 -7 -29 -14 -39 -15 -109 -19 -127 -7 -19 12 14 55 36 47
9 -4 38 -11 65 -16z m-1708 -1121 c-60 -114 -96 -219 -96 -279 0 -82 46 -142
91 -118 19 10 20 9 14 -13 -10 -32 -44 -97 -67 -130 -41 -58 -94 -23 -124 80
-23 79 -14 141 51 326 62 181 74 202 118 221 69 30 70 22 13 -87z m123 -375
c7 -14 21 -23 36 -23 l25 0 -20 -50 c-11 -27 -25 -59 -32 -70 -26 -41 -71 -35
-98 15 -13 24 -12 34 9 93 12 37 30 78 39 92 l16 25 6 -30 c4 -16 12 -40 19
-52z"/>
<path d="M6621 9044 c-37 -47 -18 -134 29 -134 29 0 60 47 60 91 0 67 -51 91
-89 43z m69 -14 c23 -42 -16 -111 -54 -97 -19 7 -22 67 -6 98 14 25 46 24 60
-1z"/>
<path d="M6494 8986 c-9 -24 0 -51 18 -54 20 -4 40 30 32 52 -8 20 -43 21 -50
2z m36 -21 c0 -26 -14 -33 -25 -15 -9 14 1 40 15 40 5 0 10 -11 10 -25z"/>
<path d="M6536 7593 c-8 -19 17 -48 33 -39 6 4 11 18 11 32 0 28 -34 34 -44 7z
m34 -8 c0 -8 -4 -15 -10 -15 -5 0 -10 7 -10 15 0 8 5 15 10 15 6 0 10 -7 10
-15z"/>
<path d="M6510 7454 c0 -31 23 -28 28 4 2 15 -2 22 -12 22 -11 0 -16 -9 -16
-26z"/>
<path d="M6482 7371 c-18 -11 -11 -56 8 -56 17 0 27 42 13 56 -4 4 -14 4 -21
0z m18 -26 c0 -8 -4 -15 -10 -15 -5 0 -10 7 -10 15 0 8 5 15 10 15 6 0 10 -7
10 -15z"/>
<path d="M2074 8965 c-44 -19 -62 -71 -39 -118 15 -33 50 -57 81 -57 33 0 74
31 82 63 21 79 -51 144 -124 112z m74 -21 c73 -51 24 -158 -57 -125 -73 31
-56 131 24 140 6 0 21 -6 33 -15z"/>
<path d="M2326 8924 c-34 -34 -8 -82 39 -70 20 5 25 13 25 36 0 19 -7 33 -19
40 -25 13 -27 13 -45 -6z m48 -20 c8 -21 -1 -34 -25 -34 -12 0 -19 7 -19 18 0
34 33 45 44 16z"/>
<path d="M2231 7296 c-21 -25 -4 -58 27 -54 23 2 27 8 27 33 0 23 -5 31 -21
33 -11 2 -26 -4 -33 -12z m43 -14 c8 -13 -11 -35 -23 -28 -16 10 -14 36 3 36
8 0 17 -4 20 -8z"/>
<path d="M2294 7155 c-9 -23 3 -45 25 -45 23 0 35 28 20 46 -15 18 -38 18 -45
-1z m36 -16 c0 -5 -7 -9 -15 -9 -15 0 -20 12 -9 23 8 8 24 -1 24 -14z"/>
<path d="M2350 7035 c-14 -17 -5 -51 16 -59 20 -8 54 11 54 29 0 17 -27 45
-44 45 -8 0 -19 -7 -26 -15z m50 -26 c0 -25 -33 -22 -38 4 -2 12 3 17 17 17
15 0 21 -6 21 -21z"/>
<path d="M6260 8496 c-65 -36 -139 -202 -140 -315 0 -21 3 -23 31 -17 34 6 60
-14 91 -72 20 -38 44 -41 83 -10 66 52 75 168 12 168 -14 0 -17 4 -12 18 42
98 47 174 14 216 -23 29 -42 32 -79 12z m64 -22 c25 -24 21 -113 -9 -186 -14
-34 -23 -63 -21 -65 2 -3 13 0 23 5 44 24 61 -35 28 -98 -17 -33 -55 -56 -78
-47 -8 3 -18 18 -21 34 -11 42 -35 63 -73 63 -39 0 -42 13 -18 105 22 81 53
141 93 176 37 33 54 36 76 13z"/>
<path d="M6247 8369 c-20 -12 -57 -80 -57 -106 0 -10 11 6 25 35 29 62 51 70
42 15 -8 -47 9 -30 18 18 7 41 -1 52 -28 38z"/>
<path d="M2749 8420 c-46 -13 -66 -29 -83 -64 -32 -68 -12 -152 51 -206 l28
-25 -49 -6 c-55 -6 -86 -34 -86 -78 0 -41 36 -90 83 -111 79 -36 135 -21 166
44 33 71 63 91 137 91 58 0 64 2 64 21 0 29 -29 122 -52 167 -56 110 -179 190
-259 167z m131 -55 c57 -39 108 -113 136 -196 13 -39 24 -73 24 -75 0 -2 -24
-4 -52 -4 -68 0 -109 -25 -137 -83 -28 -58 -43 -70 -89 -70 -67 0 -132 53
-132 106 0 34 28 52 82 52 l53 0 0 34 c0 29 4 36 25 41 21 5 25 12 28 48 2 23
7 42 12 42 16 0 71 -52 87 -84 9 -17 18 -26 20 -19 12 34 -71 123 -115 123
-19 0 -22 -6 -22 -39 0 -97 -91 -91 -121 8 -15 49 1 102 39 132 37 29 107 22
162 -16z"/>
<path d="M3409 6635 c-98 -55 -14 -235 109 -235 40 0 82 38 82 75 0 28 -40 75
-64 75 -26 0 -46 -12 -46 -28 0 -12 3 -13 12 -4 17 17 42 15 61 -6 24 -27 21
-59 -8 -78 -50 -33 -131 6 -159 77 -28 71 8 119 87 119 73 -1 233 -76 356
-169 72 -54 89 -52 26 4 -58 51 -152 109 -244 149 -78 35 -173 44 -212 21z"/>
<path d="M5590 7112 c-93 -46 -97 -47 -190 -46 -74 0 -87 -2 -60 -9 68 -18
159 -4 243 35 77 37 130 69 112 67 -6 0 -53 -22 -105 -47z"/>
<path d="M5096 6895 c-32 -47 -83 -108 -114 -136 -59 -52 -199 -129 -236 -129
-11 0 -28 -5 -36 -10 -11 -7 -5 -8 20 -4 107 18 209 74 292 160 46 49 144 192
136 200 -3 2 -30 -34 -62 -81z"/>
<path d="M5345 6741 c-46 -12 -70 -27 -109 -73 -39 -45 -42 -64 -4 -28 40 39
104 62 160 58 40 -2 53 1 62 15 20 32 -33 46 -109 28z"/>
<path d="M5343 6623 c9 -2 25 -2 35 0 9 3 1 5 -18 5 -19 0 -27 -2 -17 -5z"/>
<path d="M5400 6616 c0 -2 7 -7 16 -10 8 -3 12 -2 9 4 -6 10 -25 14 -25 6z"/>
<path d="M5285 6588 c-16 -6 -35 -15 -42 -20 -7 -5 -17 -7 -23 -3 -20 12 -9
-23 19 -63 34 -45 71 -62 168 -72 l63 -6 0 51 c0 59 -16 86 -64 109 -38 18
-77 19 -121 4z m54 -35 c0 -5 -4 -17 -8 -28 -5 -11 -5 -30 0 -42 10 -27 0 -29
-41 -8 -36 18 -37 31 -8 62 20 22 59 32 57 16z m36 -33 c-5 -16 -10 -19 -18
-11 -7 7 -6 15 3 26 17 20 24 13 15 -15z"/>
<path d="M5611 6532 c-1 -40 20 -83 54 -111 26 -19 26 -20 10 -51 -13 -24 -13
-31 -3 -28 7 3 19 17 27 32 12 27 11 30 -28 70 -25 26 -44 56 -50 81 l-9 40
-1 -33z"/>
<path d="M5600 6350 c-12 -8 -11 -10 8 -10 12 0 22 5 22 10 0 13 -11 13 -30 0z"/>
<path d="M5404 6258 c-10 -12 -14 -18 -7 -15 7 5 31 -13 60 -44 56 -60 89 -79
137 -79 25 0 40 7 55 26 12 15 21 34 21 42 0 9 14 31 32 49 27 28 29 33 14 39
-17 6 -121 1 -223 -12 -37 -5 -53 -3 -53 5 0 17 -15 13 -36 -11z m272 -13
c-22 -17 -161 -21 -171 -6 -6 11 34 17 125 19 59 1 63 0 46 -13z m-67 -44 c24
-15 -6 -22 -49 -11 -22 6 -40 13 -40 15 0 9 75 5 89 -4z m-86 -16 c20 -8 58
-15 84 -15 44 0 46 -1 31 -17 -29 -29 -112 -11 -147 31 -17 20 -13 20 32 1z"/>
<path d="M5218 5763 c6 -2 18 -2 25 0 6 3 1 5 -13 5 -14 0 -19 -2 -12 -5z"/>
<path d="M5304 5740 c28 -11 51 -18 53 -16 6 6 -64 36 -84 36 -10 -1 4 -10 31
-20z"/>
<path d="M5425 5750 c-3 -5 -2 -10 4 -10 5 0 13 5 16 10 3 6 2 10 -4 10 -5 0
-13 -4 -16 -10z"/>
<path d="M5367 5522 c-10 -10 -17 -26 -17 -36 0 -14 -5 -16 -22 -10 -34 11
-58 7 -79 -12 -34 -31 -20 -102 23 -116 8 -3 7 -11 -5 -28 -9 -14 -17 -35 -17
-47 0 -55 80 -83 119 -44 20 20 20 20 26 0 10 -31 50 -42 85 -24 34 18 47 56
31 91 -9 21 -8 24 8 24 10 0 25 8 34 18 37 40 9 112 -44 112 -24 0 -29 4 -29
23 0 12 -7 33 -16 45 -19 28 -74 30 -97 4z m81 -14 c15 -15 15 -58 -1 -79 -8
-11 -22 -15 -44 -12 -25 4 -32 10 -35 33 -7 45 7 70 40 70 15 0 33 -5 40 -12z
m-99 -71 c19 -21 20 -25 6 -37 -8 -7 -15 -20 -15 -30 0 -15 -5 -17 -34 -10
-18 4 -39 10 -45 14 -15 9 -14 59 1 74 20 20 63 14 87 -11z m189 -19 c7 -7 12
-25 12 -40 0 -32 -35 -52 -75 -42 -30 7 -41 62 -16 81 21 16 64 16 79 1z
m-120 -30 c17 -17 15 -43 -4 -59 -31 -26 -70 25 -44 56 15 18 32 19 48 3z
m-65 -68 c20 -24 60 -26 82 -4 15 15 18 15 41 -6 44 -42 24 -95 -33 -88 -22 2
-30 10 -38 36 -5 17 -12 32 -15 32 -3 0 -13 -14 -22 -30 -13 -22 -24 -30 -46
-30 -56 0 -71 53 -26 89 33 26 35 26 57 1z"/>
<path d="M5148 5124 c-54 -17 -65 -29 -15 -18 17 4 73 12 122 19 l90 13 -75 0
c-41 0 -96 -6 -122 -14z"/>
<path d="M6876 5737 c-18 -13 -15 -14 30 -10 41 4 64 -1 124 -26 97 -42 114
-34 19 8 -87 40 -146 49 -173 28z"/>
<path d="M3271 5563 c-40 -28 -18 -103 30 -103 21 0 59 33 59 53 0 20 -28 54
-49 60 -11 2 -29 -2 -40 -10z m59 -18 c19 -23 4 -65 -23 -65 -43 0 -60 35 -31
64 19 20 38 20 54 1z"/>
<path d="M3292 5391 c-19 -11 -11 -45 11 -49 9 -2 20 4 23 13 9 21 -16 47 -34
36z m26 -23 c-6 -18 -28 -21 -28 -4 0 9 7 16 16 16 9 0 14 -5 12 -12z"/>
<path d="M3381 5311 c-15 -10 -8 -41 9 -41 15 0 25 29 14 40 -5 5 -15 5 -23 1z
m19 -21 c0 -5 -2 -10 -4 -10 -3 0 -8 5 -11 10 -3 6 -1 10 4 10 6 0 11 -4 11
-10z"/>
<path d="M4310 5270 c0 -6 7 -10 15 -10 8 0 15 2 15 4 0 2 -7 6 -15 10 -8 3
-15 1 -15 -4z"/>
<path d="M4340 4190 c-23 -23 -24 -33 -10 -61 9 -16 7 -19 -9 -19 -13 0 -27
-12 -37 -31 -15 -30 -15 -33 4 -58 15 -19 28 -26 51 -25 23 2 31 -2 31 -15 0
-23 31 -51 56 -51 34 0 64 29 64 61 0 22 5 29 20 29 11 0 27 12 37 26 15 23
15 29 2 52 -22 39 -43 49 -80 35 -26 -10 -30 -10 -25 3 3 8 -1 28 -9 45 -19
35 -64 40 -95 9z m80 -19 c15 -30 12 -51 -8 -51 -10 0 -23 -5 -30 -12 -9 -9
-15 -8 -27 8 -8 10 -15 26 -15 35 0 39 61 54 80 20z m110 -71 c16 -30 -4 -60
-39 -60 -25 0 -29 5 -34 33 -2 18 0 35 7 39 21 14 55 8 66 -12z m-92 -24 c4
-21 -14 -37 -35 -29 -14 5 -18 35 -6 47 12 12 38 1 41 -18z m-68 -10 c10 -28
37 -45 64 -43 26 3 44 -28 30 -50 -25 -40 -74 -21 -74 28 0 31 -9 36 -27 18
-15 -15 -59 -4 -67 17 -9 25 12 54 40 54 17 0 27 -8 34 -24z"/>
<path d="M4856 3854 c-20 -19 -21 -68 -2 -86 11 -12 11 -18 -5 -37 -25 -30
-24 -66 1 -91 24 -24 48 -25 79 -4 21 15 23 15 37 -5 19 -27 67 -28 94 -1 24
24 25 48 5 77 -14 20 -14 22 5 28 27 9 37 52 19 84 -20 36 -70 40 -98 10 -12
-13 -21 -17 -21 -11 0 42 -83 68 -114 36z m91 -30 c16 -25 16 -27 -8 -45 -41
-31 -79 -19 -79 26 0 49 59 62 87 19z m121 -6 c18 -18 14 -56 -7 -68 -31 -16
-45 -12 -62 19 -16 27 -16 30 -1 45 19 19 53 21 70 4z m-83 -73 c0 -13 -8 -21
-22 -23 -17 -3 -23 2 -23 16 0 10 3 22 7 26 13 13 38 1 38 -19z m-52 -32 c15
-19 16 -25 5 -43 -17 -26 -42 -34 -68 -20 -24 13 -26 47 -3 72 20 23 43 20 66
-9z m111 -9 c31 -30 13 -74 -30 -74 -22 0 -54 33 -54 56 0 11 35 32 57 33 6 1
19 -6 27 -15z"/>
<path d="M3806 3379 c-11 -36 -16 -88 -8 -93 5 -3 12 18 15 47 5 51 2 73 -7
46z"/>
<path d="M4104 3184 c-8 -20 -14 -46 -12 -58 2 -13 9 0 19 37 18 65 15 74 -7
21z"/>
<path d="M4617 8332 c-10 -10 -17 -24 -17 -30 0 -7 -15 -12 -33 -12 -69 0 -90
-70 -37 -120 30 -28 119 -55 158 -48 23 4 53 92 48 141 -8 72 -79 113 -119 69z
m82 -16 c22 -26 25 -84 6 -132 l-17 -46 -47 7 c-74 11 -121 42 -121 80 0 30
24 48 60 47 23 0 31 5 39 29 8 23 16 29 39 29 16 0 35 -6 41 -14z"/>
<path d="M7242 7767 c-30 -32 -29 -81 3 -112 49 -49 125 -16 125 55 0 70 -82
106 -128 57z m104 -22 c21 -32 11 -72 -22 -87 -58 -27 -114 35 -80 87 23 35
79 35 102 0z"/>
<path d="M8070 7138 c-105 -71 -117 -240 -30 -425 l29 -63 53 0 c150 1 311 77
358 171 62 120 -41 245 -167 205 -16 -5 -22 1 -31 32 -18 60 -61 95 -124 100
-44 3 -59 0 -88 -20z m126 -14 c38 -18 59 -50 69 -106 l7 -36 34 14 c46 19 73
18 112 -6 45 -27 64 -76 51 -124 -27 -97 -147 -166 -332 -191 l-48 -6 -28 63
c-40 88 -54 160 -48 234 5 73 29 119 77 151 39 27 60 28 106 7z"/>
<path d="M6985 6724 c-25 -25 -16 -75 18 -94 24 -13 30 -13 55 0 53 30 33 110
-29 110 -15 0 -35 -7 -44 -16z m80 -14 c27 -30 7 -70 -35 -70 -42 0 -62 40
-35 70 10 11 26 20 35 20 9 0 25 -9 35 -20z"/>
<path d="M7237 5954 c-11 -12 -8 -59 5 -72 18 -18 56 -14 78 8 22 22 24 29 11
48 -9 15 -83 27 -94 16z m37 -13 c3 -5 15 -7 26 -4 31 8 27 -34 -5 -49 -28
-13 -55 3 -55 32 0 27 22 41 34 21z"/>
<path d="M2251 5939 c-52 -21 -66 -77 -30 -123 16 -20 29 -26 59 -26 69 0 103
73 58 124 -28 30 -55 38 -87 25z m67 -25 c18 -12 22 -24 20 -52 -7 -79 -109
-81 -116 -3 -6 60 46 90 96 55z"/>
<path d="M7472 5698 c-35 -35 10 -81 48 -50 19 16 21 22 11 40 -13 24 -40 29
-59 10z m46 -21 c4 -21 -27 -35 -38 -17 -12 19 0 42 19 38 9 -2 17 -11 19 -21z"/>
<path d="M7557 5546 c-8 -8 -24 -12 -40 -9 -35 7 -57 -12 -57 -47 0 -35 30
-73 76 -95 l36 -17 30 30 c38 37 50 109 23 135 -20 21 -49 22 -68 3z m61 -49
c3 -40 -28 -97 -53 -97 -26 0 -85 61 -85 86 0 29 25 42 51 26 15 -10 20 -8 29
9 7 13 19 19 33 17 17 -2 23 -11 25 -41z"/>
<path d="M7710 5390 c-28 -28 -11 -63 28 -58 21 2 28 9 30 30 5 39 -30 56 -58
28z m48 -21 c4 -19 -27 -34 -41 -20 -14 14 0 43 20 39 10 -2 19 -10 21 -19z"/>
<path d="M7475 5310 c-9 -15 4 -30 26 -30 12 0 19 7 19 20 0 21 -33 29 -45 10z"/>
<path d="M7362 5261 c-7 -19 -20 -31 -39 -36 l-28 -8 32 -13 c23 -10 33 -22
39 -46 l7 -33 9 33 c6 23 18 36 41 45 l32 14 -27 6 c-17 5 -30 17 -36 37 -13
37 -17 37 -30 1z m28 -61 c-13 -13 -17 -13 -30 0 -13 13 -13 17 -1 31 12 15
15 15 30 0 14 -14 14 -18 1 -31z"/>
<path d="M7674 5238 c-12 -5 -27 -20 -34 -32 -10 -20 -18 -22 -60 -18 -43 4
-52 1 -75 -23 -23 -22 -27 -33 -22 -66 3 -22 16 -54 30 -72 29 -38 105 -82
165 -95 41 -10 44 -9 67 22 59 77 81 180 53 241 -21 46 -78 66 -124 43z m88
-39 c29 -28 30 -34 25 -85 -7 -69 -54 -158 -87 -162 -32 -5 -146 54 -170 88
-32 45 -35 81 -9 108 21 24 58 27 100 8 12 -5 19 1 29 23 10 26 42 47 73 50 5
1 22 -13 39 -30z"/>
<path d="M7437 4867 c-3 -8 -2 -20 3 -27 11 -18 42 -4 38 17 -4 22 -34 29 -41
10z"/>
<path d="M7792 4848 c-16 -16 -15 -63 2 -77 20 -17 67 -10 80 11 18 29 -4 72
-39 76 -17 2 -36 -3 -43 -10z m62 -14 c9 -8 16 -19 16 -24 0 -14 -30 -40 -45
-40 -12 0 -35 29 -35 44 0 8 31 36 40 36 5 0 16 -7 24 -16z"/>
<path d="M7537 4783 c-11 -10 -8 -41 4 -49 6 -3 18 1 27 9 13 13 13 19 2 31
-14 17 -23 20 -33 9z m23 -23 c0 -5 -4 -10 -10 -10 -5 0 -10 5 -10 10 0 6 5
10 10 10 6 0 10 -4 10 -10z"/>
<path d="M7648 4660 c-28 -29 -30 -35 -26 -88 2 -32 14 -79 27 -105 19 -39 27
-47 50 -47 42 0 114 28 150 58 69 58 45 159 -36 150 -29 -4 -37 0 -48 23 -26
49 -73 52 -117 9z m92 -10 c11 -11 20 -27 20 -35 0 -12 8 -14 38 -9 69 11 97
-52 47 -102 -31 -31 -101 -63 -136 -64 -22 0 -30 8 -48 49 -27 64 -27 120 0
155 24 31 52 33 79 6z"/>
<path d="M7407 4653 c-15 -14 -7 -62 12 -68 40 -12 70 20 51 56 -10 18 -50 26
-63 12z m48 -29 c0 -10 -8 -20 -18 -22 -22 -4 -35 27 -16 39 20 12 34 5 34
-17z"/>
<path d="M2065 4636 c-56 -25 -95 -85 -95 -147 0 -26 -3 -29 -34 -29 -73 0
-125 -36 -152 -105 -43 -114 62 -226 243 -257 84 -14 250 1 264 24 17 27 32
126 32 208 1 149 -51 262 -136 301 -49 22 -81 23 -122 5z m132 -45 c78 -57
117 -195 95 -342 -16 -112 -19 -116 -98 -125 -148 -15 -270 13 -339 80 -70 67
-71 144 -2 202 27 23 38 26 89 22 l58 -4 0 59 c0 56 2 62 39 98 50 50 98 53
158 10z"/>
<path d="M6135 4515 c-65 -64 14 -168 94 -125 10 5 24 23 31 40 33 79 -65 146
-125 85z m97 -12 c39 -35 11 -103 -43 -103 -36 0 -59 24 -59 60 0 54 61 80
102 43z"/>
<path d="M7246 4487 c-14 -15 -26 -33 -26 -42 0 -10 -10 -15 -34 -15 -37 0
-76 -36 -76 -71 0 -67 61 -110 165 -117 84 -5 88 -2 105 89 17 90 -15 163 -77
175 -26 5 -37 1 -57 -19z m81 -12 c34 -24 46 -82 31 -152 l-13 -58 -45 -3
c-59 -5 -111 12 -144 44 -48 49 -24 104 46 104 34 0 38 3 38 24 0 24 32 56 55
56 6 0 20 -7 32 -15z"/>
<path d="M7520 4411 c-13 -25 -4 -48 21 -56 38 -12 65 35 37 63 -18 18 -46 14
-58 -7z m50 -22 c0 -25 -33 -22 -38 4 -2 12 3 17 17 17 15 0 21 -6 21 -21z"/>
<path d="M7614 4266 c-15 -40 21 -80 54 -60 37 24 21 74 -25 74 -13 0 -26 -6
-29 -14z m54 -24 c3 -16 -2 -22 -17 -22 -26 0 -36 17 -20 36 16 19 33 13 37
-14z"/>
<path d="M7803 4255 c-31 -22 -38 -73 -18 -121 19 -46 82 -114 106 -114 28 0
101 56 126 96 28 48 29 74 2 108 -21 27 -60 34 -88 17 -10 -7 -23 -3 -39 10
-30 23 -60 24 -89 4z m86 -31 c19 -24 22 -25 36 -10 40 40 102 2 90 -54 -7
-34 -55 -86 -99 -110 -27 -14 -29 -13 -71 31 -52 55 -66 106 -41 144 22 33 59
33 85 -1z"/>
<path d="M7358 4131 c-32 -29 -33 -31 -33 -113 0 -61 5 -92 19 -117 l18 -34
67 5 c110 8 181 60 181 133 0 36 -42 75 -80 75 -24 0 -33 6 -41 27 -22 59 -80
70 -131 24z m97 -7 c9 -9 19 -29 22 -44 5 -26 8 -28 38 -23 39 6 75 -23 75
-61 0 -50 -95 -106 -181 -106 -32 0 -38 4 -50 33 -8 17 -14 62 -14 99 0 57 4
70 24 92 28 30 62 33 86 10z"/>
<path d="M6958 4078 c-13 -13 -27 -21 -33 -20 -27 10 -78 2 -96 -14 -28 -26
-25 -89 7 -131 25 -33 94 -74 146 -87 21 -5 31 0 52 25 63 74 81 161 47 217
-18 27 -26 32 -61 32 -28 0 -47 -7 -62 -22z m107 -28 c8 -16 15 -39 15 -52 0
-30 -42 -118 -67 -140 -18 -17 -22 -16 -79 11 -33 16 -70 41 -82 56 -52 66 -6
145 63 109 15 -8 29 -13 30 -12 28 51 37 58 70 58 28 0 37 -5 50 -30z"/>
<path d="M7674 3895 c-8 -33 12 -57 45 -53 50 6 36 78 -15 78 -17 0 -25 -7
-30 -25z m56 -1 c11 -12 10 -18 -3 -32 -16 -15 -18 -15 -34 0 -13 14 -14 20
-3 32 7 9 16 16 20 16 4 0 13 -7 20 -16z"/>
<path d="M7778 3785 c-4 -11 -9 -35 -13 -52 -8 -39 -44 -70 -91 -79 -43 -8
-44 -20 -1 -28 53 -10 75 -32 94 -94 l16 -57 9 35 c18 71 29 88 69 104 22 9
47 16 56 16 27 0 3 15 -45 29 -45 13 -59 32 -79 111 -8 29 -10 31 -15 15z m64
-131 l32 -16 -33 -14 c-19 -8 -37 -26 -46 -46 l-14 -33 -11 31 c-7 19 -23 37
-43 46 l-32 15 31 16 c17 9 37 31 45 48 l13 33 13 -32 c7 -17 27 -39 45 -48z"/>
<path d="M7255 3776 c-22 -16 -15 -50 11 -54 25 -4 47 19 38 41 -8 22 -29 28
-49 13z m35 -19 c0 -8 -3 -17 -7 -20 -9 -9 -34 13 -27 24 8 14 34 11 34 -4z"/>
<path d="M7530 3680 c0 -13 7 -20 20 -20 13 0 20 7 20 20 0 13 -7 20 -20 20
-13 0 -20 -7 -20 -20z"/>
<path d="M7017 3674 c-14 -14 -7 -53 12 -63 26 -14 54 8 49 40 -2 17 -10 25
-28 27 -14 2 -29 0 -33 -4z m43 -19 c13 -16 6 -35 -15 -35 -18 0 -28 17 -21
35 7 19 20 19 36 0z"/>
<path d="M7346 3664 c-29 -29 -12 -64 31 -64 27 0 42 42 23 65 -16 19 -35 19
-54 -1z m50 -15 c8 -14 -21 -43 -35 -35 -19 12 -13 46 8 46 11 0 23 -5 27 -11z"/>
<path d="M6722 3640 c-14 -6 -25 -21 -28 -40 -5 -25 -11 -30 -34 -30 -50 0
-77 -60 -49 -112 16 -29 86 -58 144 -58 72 0 79 7 83 91 5 82 -12 129 -54 148
-29 13 -31 13 -62 1z m53 -16 c27 -11 45 -60 45 -121 0 -82 -6 -87 -81 -80
-72 6 -112 31 -117 71 -5 37 14 56 53 56 28 0 32 3 28 19 -3 11 4 28 16 40 22
22 30 25 56 15z"/>
<path d="M7104 3475 c-4 -9 -2 -21 4 -27 15 -15 44 -1 40 19 -4 23 -36 29 -44
8z"/>
<path d="M7562 3418 c-7 -7 -12 -18 -12 -26 0 -8 -7 -11 -18 -8 -43 14 -73
-52 -41 -91 19 -22 71 -43 108 -43 35 0 49 19 57 82 5 35 2 48 -16 71 -23 28
-58 35 -78 15z m72 -40 c6 -17 6 -41 0 -65 -9 -37 -10 -38 -52 -37 -55 1 -104
43 -85 72 6 9 22 16 36 15 17 -1 28 6 36 23 15 34 52 29 65 -8z"/>
<path d="M6351 3376 c-19 -23 -4 -56 25 -56 28 0 42 25 27 49 -14 22 -37 25
-52 7z m44 -26 c0 -8 -8 -16 -17 -18 -13 -2 -18 3 -18 18 0 15 5 20 18 18 9
-2 17 -10 17 -18z"/>
<path d="M6874 3321 c-32 -14 -47 -31 -68 -72 -32 -65 -34 -131 -6 -220 29
-94 138 -249 175 -249 24 0 140 45 190 74 100 59 167 145 181 233 13 85 -62
173 -148 173 -18 0 -50 -8 -70 -19 l-37 -18 -23 35 c-49 75 -120 98 -194 63z
m147 -47 c15 -15 33 -42 40 -61 6 -18 13 -33 15 -33 3 0 22 11 42 25 89 60
203 3 202 -102 -1 -46 -38 -115 -89 -163 -51 -48 -182 -118 -235 -127 -28 -4
-35 1 -74 51 -62 80 -103 175 -109 250 -7 80 8 126 54 167 32 27 41 31 80 26
30 -3 54 -14 74 -33z"/>
<path d="M6667 3313 c-15 -14 -7 -43 12 -43 26 0 36 17 21 35 -14 16 -23 19
-33 8z"/>
<path d="M6437 3262 c-21 -23 -21 -41 -1 -70 21 -31 69 -30 90 2 36 56 -45
117 -89 68z m64 -2 c25 -14 25 -56 -1 -70 -42 -22 -82 34 -48 68 15 15 24 15
49 2z"/>
<path d="M6019 3091 c-35 -35 -38 -75 -10 -130 22 -41 74 -92 122 -116 29 -15
31 -15 68 14 57 46 93 104 99 160 4 43 1 53 -21 75 -30 30 -80 35 -114 11 -19
-13 -24 -13 -50 0 -41 22 -61 19 -94 -14z m98 -15 l28 -24 22 24 c44 47 113
20 113 -45 0 -59 -85 -171 -130 -171 -27 0 -101 71 -121 114 -25 54 -24 72 6
101 30 31 47 31 82 1z"/>
<path d="M6461 3024 c-44 -57 -8 -138 62 -138 66 0 103 63 73 122 -17 34 -34
42 -81 42 -24 0 -39 -7 -54 -26z m103 -5 c32 -25 35 -70 6 -99 -41 -41 -110
-10 -110 50 0 34 30 70 59 70 10 0 30 -9 45 -21z"/>
<path d="M7494 2966 c-10 -26 4 -48 28 -44 17 2 23 10 23 28 0 18 -6 26 -23
28 -13 2 -25 -3 -28 -12z m42 -7 c10 -17 -13 -36 -27 -22 -12 12 -4 33 11 33
5 0 12 -5 16 -11z"/>
<path d="M5735 2840 c-9 -52 -33 -81 -81 -95 -33 -10 -36 -13 -19 -19 76 -28
82 -33 96 -88 l13 -53 13 44 c16 56 37 79 79 87 34 6 47 24 19 24 -43 0 -75
30 -90 85 -9 30 -18 55 -20 55 -2 0 -6 -18 -10 -40z m67 -99 l22 -8 -22 -12
c-13 -7 -32 -27 -42 -44 -15 -23 -20 -27 -20 -14 0 11 -13 31 -30 47 l-29 27
24 11 c14 6 27 23 31 37 l6 26 19 -31 c11 -17 29 -34 41 -39z"/>
<path d="M7621 2828 c-13 -33 4 -60 36 -56 56 7 55 69 -1 76 -20 3 -28 -2 -35
-20z m54 -18 c0 -16 -6 -26 -18 -28 -19 -4 -32 20 -23 44 9 25 41 13 41 -16z"/>
<path d="M6326 2770 c-73 -65 -92 -208 -44 -340 l23 -65 105 0 c91 1 112 4
160 26 90 42 130 93 130 166 0 28 -8 44 -40 75 -36 37 -43 40 -85 36 -38 -3
-45 0 -45 15 0 10 -7 31 -15 47 -39 76 -127 94 -189 40z m124 -5 c37 -19 50
-43 50 -95 0 -35 3 -41 18 -36 55 16 72 17 101 2 91 -48 70 -156 -42 -210 -61
-30 -173 -51 -221 -42 -30 6 -36 13 -51 54 -9 26 -19 81 -22 122 -5 64 -2 83
17 129 15 34 35 60 54 72 38 23 58 24 96 4z"/>
<path d="M7405 2775 c-14 -13 -25 -33 -25 -45 0 -27 43 -70 70 -70 27 0 70 43
70 70 0 12 -11 32 -25 45 -31 32 -59 32 -90 0z m84 -9 c17 -20 10 -67 -11 -80
-28 -17 -72 4 -76 37 -4 36 13 57 48 57 15 0 33 -6 39 -14z"/>
<path d="M6802 2704 c-12 -8 -22 -24 -22 -34 0 -10 10 -26 22 -34 19 -13 25
-14 43 -2 11 7 20 24 20 36 0 12 -9 29 -20 36 -18 12 -24 11 -43 -2z m46 -32
c4 -28 -24 -40 -45 -19 -14 13 -14 19 -3 32 18 22 44 15 48 -13z"/>
<path d="M7176 2669 c-13 -64 -27 -87 -59 -99 -77 -29 -75 -26 -32 -40 56 -18
72 -34 86 -92 13 -55 21 -51 33 15 8 41 51 77 94 77 31 0 28 16 -6 23 -44 9
-81 44 -88 85 -11 59 -21 70 -28 31z m63 -114 c26 -8 27 -21 2 -28 -11 -3 -29
-20 -40 -38 -12 -19 -21 -28 -21 -20 0 7 -15 28 -34 46 l-35 32 24 11 c13 6
29 27 36 46 l13 35 17 -39 c9 -21 27 -41 38 -45z"/>
<path d="M4820 2655 c-21 -25 3 -67 37 -63 34 4 52 31 37 56 -15 23 -57 27
-74 7z m60 -10 c10 -12 10 -18 0 -30 -25 -30 -61 -7 -46 30 3 8 12 15 19 15 8
0 20 -7 27 -15z"/>
<path d="M5112 2658 c-7 -7 -12 -21 -12 -33 0 -12 5 -26 12 -33 28 -28 78 -7
78 33 0 12 -5 26 -12 33 -7 7 -21 12 -33 12 -12 0 -26 -5 -33 -12z m56 -15
c13 -26 4 -43 -23 -43 -27 0 -40 26 -24 46 16 19 37 17 47 -3z"/>
<path d="M6067 2658 c-22 -12 -22 -35 1 -46 25 -13 42 -4 42 23 0 27 -19 37
-43 23z m33 -23 c0 -8 -7 -15 -15 -15 -8 0 -15 7 -15 15 0 8 7 15 15 15 8 0
15 -7 15 -15z"/>
<path d="M5247 2560 c-14 -11 -33 -40 -43 -65 -35 -93 4 -210 108 -321 l60
-63 49 19 c104 39 205 123 235 196 31 74 10 160 -46 189 -36 19 -97 19 -130 0
-33 -19 -38 -19 -45 6 -18 54 -137 79 -188 39z m142 -26 c17 -14 31 -31 31
-37 0 -7 4 -18 9 -26 7 -11 16 -8 47 13 111 75 210 -34 146 -161 -28 -54 -96
-112 -179 -153 l-67 -33 -48 54 c-75 82 -103 148 -103 237 0 70 1 75 33 103
42 38 89 39 131 3z"/>
<path d="M4992 2498 c-30 -30 9 -69 44 -43 15 11 17 17 8 32 -14 23 -36 27
-52 11z m38 -18 c0 -11 -7 -20 -15 -20 -15 0 -21 21 -8 33 12 13 23 7 23 -13z"/>
<path d="M5839 2481 c-26 -21 -19 -56 13 -67 30 -9 64 27 49 54 -15 29 -37 33
-62 13z m49 -24 c4 -20 -25 -34 -40 -19 -15 15 -1 44 19 40 10 -2 19 -11 21
-21z"/>
<path d="M6876 2456 c-9 -46 -46 -86 -81 -86 -35 0 -31 -19 5 -27 38 -7 70
-46 70 -84 0 -39 17 -37 25 4 9 41 42 77 71 77 29 0 41 18 17 26 -50 15 -67
31 -83 79 l-17 50 -7 -39z m56 -87 l21 -11 -23 -13 c-12 -7 -28 -23 -35 -35
l-13 -23 -6 21 c-4 12 -19 28 -32 35 l-25 13 26 14 c14 7 28 25 32 38 l6 25
14 -26 c7 -15 23 -32 35 -38z"/>
<path d="M6014 2445 c-21 -33 -6 -72 31 -81 52 -13 86 53 47 89 -27 24 -59 21
-78 -8z m75 -14 c14 -26 -8 -54 -39 -49 -25 3 -36 27 -26 54 8 20 53 17 65 -5z"/>
<path d="M5764 2335 c-4 -9 -2 -21 4 -27 15 -15 44 -1 40 19 -4 23 -36 29 -44
8z"/>
<path d="M4697 2329 c-25 -14 -47 -63 -47 -101 0 -38 30 -108 66 -155 21 -28
30 -32 52 -27 50 12 119 53 150 89 62 70 29 163 -53 153 -31 -3 -42 1 -65 24
-30 29 -70 36 -103 17z m81 -25 c12 -8 22 -21 22 -29 0 -20 20 -29 33 -16 16
16 58 13 79 -6 44 -40 0 -121 -87 -162 -63 -29 -78 -27 -108 17 -52 79 -58
151 -17 192 24 24 48 25 78 4z"/>
<path d="M6712 2258 c-19 -19 -14 -46 10 -54 28 -9 52 20 37 47 -11 22 -30 24
-47 7z m38 -23 c0 -8 -6 -15 -14 -15 -17 0 -28 14 -19 24 12 12 33 6 33 -9z"/>
<path d="M6344 2211 c-87 -53 -81 -227 13 -349 24 -33 28 -34 72 -28 25 3 73
19 107 35 115 54 171 140 140 215 -24 57 -84 83 -143 63 -18 -7 -25 -3 -38 22
-17 34 -61 61 -97 61 -13 0 -37 -9 -54 -19z m116 -33 c12 -13 24 -35 27 -50 5
-26 6 -27 34 -13 95 50 176 -39 120 -131 -36 -59 -139 -117 -221 -126 -33 -3
-35 -1 -73 72 -36 70 -39 80 -35 147 3 59 8 76 27 97 32 34 91 36 121 4z"/>
<path d="M5895 2195 c-29 -28 -31 -54 -9 -98 21 -42 52 -75 86 -93 27 -14 29
-13 77 33 35 34 51 59 56 86 13 68 -37 108 -96 77 -14 -8 -25 -7 -41 5 -31 21
-45 19 -73 -10z m76 -16 c19 -19 22 -19 38 -5 41 37 87 9 77 -47 -7 -38 -69
-107 -96 -107 -22 0 -77 59 -91 98 -9 27 -8 37 5 57 20 30 39 32 67 4z"/>
<path d="M7534 2161 c-49 -30 -69 -82 -69 -181 l0 -85 40 -14 c60 -20 153 -19
199 4 76 37 80 134 7 164 -19 9 -31 21 -31 33 0 10 -7 32 -15 48 -27 52 -77
64 -131 31z m97 -20 c18 -15 23 -28 23 -59 -1 -38 0 -41 32 -47 57 -10 73 -74
29 -115 -31 -29 -125 -39 -193 -21 l-42 12 0 56 c0 78 18 129 57 163 39 35 62
37 94 11z"/>
<path d="M5056 2114 c-45 -45 17 -114 70 -79 44 28 22 95 -31 95 -13 0 -31 -7
-39 -16z m62 -6 c21 -21 14 -57 -12 -64 -32 -8 -46 2 -46 30 0 24 17 46 35 46
6 0 16 -5 23 -12z"/>
<path d="M5716 2105 c-11 -29 -7 -44 15 -55 27 -15 51 5 47 39 -2 20 -9 27
-29 29 -17 2 -29 -3 -33 -13z m52 -18 c4 -22 -27 -35 -38 -16 -10 15 7 42 24
36 6 -2 12 -11 14 -20z"/>
<path d="M4456 2074 c-9 -8 -16 -21 -16 -28 0 -15 32 -46 48 -46 15 0 42 29
42 45 0 18 -27 45 -45 45 -7 0 -21 -7 -29 -16z m52 -27 c4 -20 -25 -34 -40
-19 -15 15 -1 44 19 40 10 -2 19 -11 21 -21z"/>
<path d="M6772 2068 c-7 -7 -12 -18 -12 -25 0 -15 30 -32 48 -26 17 7 15 50
-4 57 -20 8 -18 8 -32 -6z m38 -23 c0 -8 -7 -15 -15 -15 -8 0 -15 7 -15 15 0
8 7 15 15 15 8 0 15 -7 15 -15z"/>
<path d="M5338 1987 c-44 -27 -71 -60 -101 -124 -19 -41 -22 -64 -21 -163 1
-69 7 -133 15 -160 l15 -45 69 -13 c83 -16 211 -10 275 13 133 47 191 147 142
245 -24 48 -75 80 -128 80 l-44 0 0 43 c0 114 -124 184 -222 124z m147 -29
c37 -29 55 -75 48 -126 l-6 -41 49 5 c41 5 55 2 84 -18 41 -28 60 -61 60 -107
0 -55 -33 -96 -108 -133 -62 -31 -73 -33 -172 -33 -58 0 -121 3 -141 8 -35 7
-37 10 -48 64 -42 211 36 403 164 403 28 0 51 -7 70 -22z"/>
<path d="M4281 1954 c-23 -29 -28 -85 -11 -128 8 -22 16 -26 52 -26 45 0 104
29 114 55 12 30 -5 65 -34 71 -16 3 -32 15 -37 27 -15 33 -58 34 -84 1z m74
-21 c6 -14 19 -23 32 -23 27 0 37 -14 29 -44 -7 -28 -52 -49 -97 -44 -33 3
-34 5 -37 50 -2 26 2 57 8 68 15 27 52 23 65 -7z"/>
<path d="M4051 1904 c-23 -17 -28 -53 -9 -72 19 -19 55 -14 72 9 30 43 -20 93
-63 63z m53 -26 c8 -14 7 -21 -5 -33 -28 -29 -73 11 -48 42 15 17 38 13 53 -9z"/>
<path d="M4935 1878 c-27 -15 -35 -28 -35 -60 0 -35 32 -68 65 -68 61 0 87 81
39 119 -30 24 -41 25 -69 9z m56 -18 c22 -12 26 -59 7 -78 -20 -20 -56 -14
-74 13 -15 23 -15 27 0 50 18 27 36 31 67 15z"/>
<path d="M6132 1878 c-32 -32 -1 -85 42 -74 31 8 40 33 21 62 -17 26 -44 31
-63 12z m55 -42 c-4 -9 -16 -16 -27 -16 -29 0 -38 30 -15 47 16 11 21 11 33
-1 8 -8 12 -22 9 -30z"/>
<path d="M5887 1831 c-4 -20 -15 -32 -34 -39 l-28 -10 27 -10 c16 -7 30 -22
34 -37 8 -31 22 -33 26 -3 2 14 15 29 33 37 l30 14 -27 9 c-16 6 -30 21 -37
39 -13 36 -17 36 -24 0z m27 -37 c4 -9 1 -23 -5 -30 -10 -12 -14 -11 -24 3
-10 13 -10 22 -3 30 14 17 25 16 32 -3z"/>
<path d="M4663 1790 c-28 -11 -46 -46 -40 -77 3 -18 -1 -26 -17 -33 -56 -21
-67 -88 -21 -128 25 -21 36 -24 94 -20 36 2 83 12 105 23 l38 18 -5 59 c-6 64
-29 111 -67 139 -33 23 -60 29 -87 19z m81 -39 c27 -23 56 -90 56 -132 0 -34
-3 -38 -40 -53 -22 -9 -63 -16 -91 -16 -61 0 -105 34 -94 73 8 27 33 47 57 47
16 0 17 6 12 39 -5 33 -3 41 17 55 25 17 53 13 83 -13z"/>
<path d="M3599 1705 c-40 -22 -53 -70 -32 -114 31 -63 103 -67 146 -9 52 70
-37 166 -114 123z m85 -26 c49 -39 22 -119 -41 -119 -34 0 -46 8 -62 37 -17
33 -14 51 14 78 30 30 54 31 89 4z"/>
<path d="M4343 1673 c-7 -3 -13 -13 -13 -24 0 -14 7 -19 25 -19 18 0 25 5 25
19 0 20 -17 31 -37 24z"/>
<path d="M4980 1640 c-11 -11 -20 -29 -20 -40 0 -27 35 -60 63 -60 50 0 76 70
39 103 -25 23 -58 21 -82 -3z m88 -34 c8 -39 -52 -63 -78 -31 -16 19 -5 62 18
68 22 5 56 -16 60 -37z"/>
<path d="M6126 1647 c-11 -8 -17 -23 -14 -38 2 -19 9 -24 32 -24 40 0 56 27
32 54 -22 25 -26 25 -50 8z m39 -32 c0 -11 -7 -21 -16 -23 -18 -3 -33 23 -23
39 10 17 39 5 39 -16z"/>
<path d="M4383 1539 c-16 -16 -5 -39 19 -39 14 0 19 6 16 22 -4 25 -19 33 -35
17z m27 -13 c0 -3 -4 -8 -10 -11 -5 -3 -10 -1 -10 4 0 6 5 11 10 11 6 0 10 -2
10 -4z"/>
<path d="M6370 1510 c-11 -11 -20 -29 -20 -40 0 -26 34 -60 60 -60 26 0 60 34
60 60 0 26 -34 60 -60 60 -11 0 -29 -9 -40 -20z m74 -22 c15 -25 -3 -52 -37
-56 -21 -3 -28 2 -33 22 -12 49 43 76 70 34z"/>
<path d="M4158 1475 c-8 -19 -8 -28 2 -40 18 -21 57 -19 70 4 13 25 13 27 -6
45 -23 24 -53 20 -66 -9z m57 -20 c0 -30 -39 -27 -43 3 -3 20 0 23 20 20 15
-2 23 -10 23 -23z"/>
<path d="M5117 1423 c-4 -3 -7 -15 -7 -25 0 -12 -12 -24 -32 -33 l-33 -13 27
-7 c18 -5 31 -18 42 -43 14 -34 15 -35 15 -11 1 27 28 59 52 60 8 0 4 4 -9 9
-13 6 -29 23 -36 40 -7 17 -15 27 -19 23z m22 -57 c8 -10 8 -16 -3 -25 -10 -9
-16 -8 -26 3 -12 15 -6 36 9 36 5 0 14 -6 20 -14z"/>
<path d="M5583 1380 c-76 -31 -64 -145 17 -165 94 -23 145 116 59 160 -32 17
-44 18 -76 5z m86 -36 c12 -15 21 -34 21 -44 0 -10 -9 -29 -21 -44 -40 -50
-119 -21 -119 44 0 65 79 94 119 44z"/>
<path d="M3930 1321 c-17 -32 -12 -60 14 -76 46 -31 102 25 71 71 -20 30 -69
33 -85 5z m61 -1 c34 -19 18 -70 -23 -70 -15 0 -38 27 -38 44 0 6 30 36 36 36
3 0 14 -5 25 -10z"/>
<path d="M4757 1322 c-22 -25 -21 -75 1 -95 41 -37 105 -7 105 50 0 52 -72 83
-106 45z m81 -14 c7 -7 12 -21 12 -33 0 -29 -19 -45 -52 -45 -36 0 -56 36 -39
69 13 23 59 29 79 9z"/>
<path d="M4337 1308 c-23 -12 -22 -45 2 -57 26 -14 56 9 47 36 -8 26 -27 34
-49 21z m31 -31 c2 -10 -3 -17 -12 -17 -18 0 -29 16 -21 31 9 14 29 6 33 -14z"/>
<path d="M3175 1244 c-24 -25 -16 -75 16 -93 24 -13 29 -13 53 2 34 22 36 69
4 91 -29 20 -52 20 -73 0z m75 -24 c15 -28 -4 -60 -35 -60 -14 0 -29 8 -35 20
-15 28 4 60 35 60 14 0 29 -8 35 -20z"/>
</g>
</svg>
