<?xml version="1.0" standalone="no"?>
<!DOCTYPE svg PUBLIC "-//W3C//DTD SVG 20010904//EN"
 "http://www.w3.org/TR/2001/REC-SVG-20010904/DTD/svg10.dtd">
<svg version="1.0" xmlns="http://www.w3.org/2000/svg"
 width="1024.000000pt" height="1024.000000pt" viewBox="0 0 1024.000000 1024.000000"
 preserveAspectRatio="xMidYMid meet">
<metadata>
Created by potrace 1.16, written by Peter Selinger 2001-2019
</metadata>
<g transform="translate(0.000000,1024.000000) scale(0.100000,-0.100000)"
fill="#000000" stroke="none">
<path d="M5822 9934 c-41 -28 -19 -94 32 -94 30 0 46 18 46 51 0 24 -30 59
-50 59 -3 0 -16 -7 -28 -16z m56 -16 c19 -19 14 -46 -9 -59 -18 -9 -25 -7 -41
9 -16 16 -18 23 -9 41 13 23 40 28 59 9z"/>
<path d="M7002 9885 c-16 -20 -25 -23 -56 -18 -41 6 -42 4 -21 -38 14 -27 14
-32 0 -51 -23 -33 -19 -41 21 -36 29 3 39 0 51 -19 21 -32 43 -29 43 5 0 34 8
44 43 60 28 12 29 32 2 32 -23 0 -45 30 -45 61 0 35 -12 37 -38 4z m32 -37 c4
-15 15 -30 28 -34 22 -6 21 -7 -5 -26 -16 -12 -27 -29 -27 -44 0 -30 -11 -31
-28 -3 -11 17 -20 20 -43 15 -28 -5 -40 6 -18 20 11 6 9 32 -6 66 -6 15 -3 17
22 12 21 -4 33 0 48 16 11 12 20 18 21 13 1 -4 5 -20 8 -35z"/>
<path d="M8279 9879 c-33 -33 -19 -75 42 -131 28 -27 57 -48 64 -48 17 0 83
85 91 117 16 63 -31 102 -81 69 -23 -15 -28 -15 -47 -1 -30 20 -44 19 -69 -6z
m73 -16 c17 -15 19 -15 36 0 39 35 88 11 77 -36 -7 -27 -71 -107 -86 -107 -5
0 -29 19 -54 43 -34 33 -45 51 -45 74 0 16 3 33 7 36 12 12 46 7 65 -10z"/>
<path d="M2606 9864 c-31 -31 -7 -94 35 -94 26 0 59 30 59 54 0 47 -62 73 -94
40z m69 -39 c0 -24 -5 -31 -24 -33 -32 -5 -54 23 -40 50 7 13 19 18 37 16 23
-2 27 -8 27 -33z"/>
<path d="M5070 9754 c-406 -47 -707 -189 -975 -461 -215 -217 -363 -503 -410
-796 -33 -207 -28 -398 15 -585 135 -574 592 -1025 1169 -1153 404 -89 842 -9
1188 217 240 156 418 357 549 620 59 118 56 155 -5 65 -24 -35 -73 -94 -110
-131 -348 -353 -886 -457 -1342 -261 -185 80 -372 224 -489 379 -65 86 -162
283 -194 393 -195 684 246 1376 954 1494 78 14 136 16 239 12 152 -6 239 -22
359 -66 45 -16 82 -25 82 -20 0 15 -132 97 -233 144 -203 96 -399 144 -620
149 -78 3 -158 2 -177 0z m420 -44 c58 -12 146 -35 195 -51 88 -29 320 -137
312 -145 -2 -2 -26 3 -53 11 -140 44 -368 56 -530 30 -260 -42 -481 -158 -674
-355 -160 -162 -245 -314 -307 -548 -23 -86 -26 -117 -27 -272 -1 -231 27
-356 127 -557 272 -549 914 -806 1508 -602 160 55 312 151 447 283 50 51 92
89 92 86 0 -3 -20 -41 -45 -84 -202 -354 -553 -618 -956 -716 -373 -91 -743
-48 -1077 125 -147 77 -250 153 -382 285 -220 219 -347 456 -416 780 -25 116
-25 386 0 520 21 118 82 303 132 401 204 407 604 714 1046 804 195 40 426 42
608 5z"/>
<path d="M3520 9605 l-36 -35 -47 16 c-27 9 -50 14 -53 12 -2 -3 5 -28 17 -56
l22 -52 -26 -40 c-31 -45 -24 -54 36 -45 41 6 44 5 75 -34 18 -23 37 -39 42
-36 4 3 11 27 15 53 6 48 8 49 52 63 26 8 48 19 50 25 2 6 -17 20 -41 33 -44
21 -45 23 -48 73 -2 28 -8 53 -13 55 -6 2 -26 -13 -45 -32z m49 -58 c1 -21 9
-31 36 -44 43 -20 44 -29 5 -38 -40 -9 -60 -30 -60 -65 0 -43 -16 -45 -40 -5
-21 35 -24 36 -66 29 -24 -3 -44 -4 -44 0 0 3 9 20 19 37 19 31 19 32 0 76
l-19 45 22 -6 c66 -19 72 -18 103 14 l30 31 6 -23 c4 -13 7 -35 8 -51z"/>
<path d="M8770 9530 c-36 -36 -16 -90 35 -90 52 0 74 65 33 94 -30 21 -44 20
-68 -4z m70 -19 c13 -25 4 -48 -21 -56 -26 -8 -49 11 -49 40 0 37 52 48 70 16z"/>
<path d="M7910 9417 c0 -53 0 -53 -45 -75 -25 -12 -45 -26 -45 -31 0 -5 17
-15 38 -22 47 -15 62 -27 62 -50 0 -10 5 -30 11 -46 l10 -28 34 41 c33 40 36
41 85 36 27 -2 50 -2 50 2 0 4 -12 25 -27 47 -26 39 -26 41 -10 75 16 32 22
64 13 64 -2 0 -23 -7 -47 -15 l-43 -15 -36 35 c-20 19 -39 35 -43 35 -4 0 -7
-24 -7 -53z m52 -4 c26 -25 30 -26 66 -15 55 17 55 17 32 -28 -22 -42 -20 -50
13 -87 l20 -23 -51 0 c-46 0 -53 -3 -69 -30 -23 -39 -29 -38 -40 6 -9 38 -17
46 -68 65 l-30 12 43 19 c40 18 42 21 42 63 0 25 3 45 7 45 4 0 19 -12 35 -27z"/>
<path d="M6516 9341 c-24 -25 -32 -28 -53 -20 -13 5 -33 9 -44 9 -19 0 -19 -1
1 -40 19 -37 19 -41 3 -75 -9 -19 -14 -37 -11 -41 3 -3 23 -1 43 5 35 9 39 8
62 -20 30 -35 43 -30 43 16 0 31 4 36 43 53 l42 19 -42 22 c-40 20 -43 24 -43
61 0 22 -4 40 -8 40 -5 0 -21 -13 -36 -29z m34 -27 c0 -31 4 -37 30 -47 17 -6
30 -14 30 -17 0 -3 -13 -11 -30 -17 -24 -9 -30 -17 -30 -42 0 -36 -13 -40 -34
-10 -12 18 -21 20 -50 15 -40 -8 -44 -1 -21 32 14 19 14 24 0 51 -20 40 -20
42 17 29 29 -10 33 -9 52 15 28 35 36 33 36 -9z"/>
<path d="M1520 9270 c0 -23 -6 -33 -25 -42 -34 -15 -32 -34 4 -41 22 -5 31
-13 36 -37 8 -37 22 -39 37 -5 9 19 19 25 45 25 38 0 39 2 18 34 -12 17 -13
30 -6 49 12 32 5 39 -25 25 -18 -8 -29 -7 -48 6 -34 22 -36 21 -36 -14z m41
-6 c14 -12 22 -13 38 -4 23 12 26 8 11 -20 -7 -13 -6 -21 5 -30 22 -18 18 -30
-10 -30 -15 0 -29 -8 -36 -22 -11 -21 -12 -21 -25 10 -9 22 -20 32 -36 33
l-23 0 23 16 c12 9 22 26 22 39 0 28 7 30 31 8z"/>
<path d="M5215 9098 c-3 -8 1 -47 9 -88 l14 -74 -32 -27 c-17 -15 -44 -38 -61
-52 -40 -34 -27 -45 64 -56 40 -5 74 -11 75 -13 2 -2 15 -34 31 -71 16 -37 32
-70 37 -73 5 -3 24 28 43 69 38 81 47 87 141 87 23 0 46 5 50 11 3 6 -18 36
-49 67 l-55 57 16 77 c9 42 13 80 10 84 -4 3 -36 -10 -72 -30 -35 -20 -69 -36
-76 -36 -6 0 -30 13 -53 29 -69 46 -87 54 -92 39z m85 -53 c30 -19 57 -35 61
-35 4 0 35 16 69 35 35 20 64 34 65 33 2 -2 -4 -36 -13 -76 l-16 -73 53 -53
52 -53 -47 -7 c-26 -3 -59 -6 -73 -6 -24 0 -32 -9 -62 -71 l-34 -71 -32 69
-32 70 -63 7 c-34 3 -66 10 -71 15 -5 5 15 28 44 54 l51 45 -11 64 c-18 105
-20 103 59 53z"/>
<path d="M2706 9078 c-8 -13 -25 -44 -37 -70 l-23 -48 -78 0 c-96 0 -99 -9
-29 -83 l49 -52 -20 -74 c-11 -42 -16 -77 -11 -82 5 -5 39 5 80 25 l71 34 58
-39 c81 -54 88 -52 79 19 -3 31 -9 67 -12 78 -3 17 8 31 54 66 32 24 58 51 58
58 0 11 -23 20 -74 30 l-75 15 -29 73 c-16 39 -33 72 -38 72 -5 0 -15 -10 -23
-22z m53 -71 l25 -66 68 -12 c38 -7 71 -16 74 -20 2 -4 -23 -27 -56 -51 -33
-23 -58 -48 -56 -54 3 -7 8 -41 12 -75 6 -52 5 -61 -7 -54 -8 5 -37 24 -65 41
l-52 33 -67 -36 c-67 -35 -68 -36 -62 -12 4 13 12 48 18 77 l12 53 -46 47
c-26 26 -47 53 -47 60 0 8 22 12 73 12 l72 0 34 65 c19 35 37 62 40 60 3 -1
17 -33 30 -68z"/>
<path d="M6071 8894 c-43 -54 -20 -115 74 -202 37 -34 75 -62 83 -62 22 0 114
97 136 144 26 56 25 104 -3 127 -30 25 -92 25 -122 0 -22 -18 -24 -18 -53 0
-45 28 -90 25 -115 -7z m90 6 c6 0 21 -12 34 -26 21 -23 26 -24 31 -10 8 20
55 46 84 46 26 0 60 -34 60 -62 0 -37 -40 -107 -91 -159 l-49 -51 -66 58 c-71
63 -94 97 -94 142 0 43 34 77 68 66 8 -2 18 -4 23 -4z"/>
<path d="M7160 8820 c-23 -76 -12 -68 -130 -98 -19 -4 -35 -15 -35 -22 0 -8
26 -32 58 -53 l58 -38 -2 -77 c-1 -42 2 -77 7 -79 6 -2 34 15 64 37 29 22 60
40 67 40 7 0 41 -11 74 -25 34 -13 65 -22 70 -20 4 3 -4 39 -18 80 l-25 75 51
56 c28 31 49 60 45 65 -3 5 -40 9 -82 9 l-77 0 -39 60 c-21 33 -44 60 -52 60
-8 0 -22 -28 -34 -70z m80 -7 l35 -56 78 2 c42 1 77 -1 77 -4 0 -3 -23 -30
-50 -59 l-51 -54 26 -67 c14 -38 24 -70 21 -72 -2 -2 -33 8 -69 23 l-66 27
-41 -29 c-91 -65 -82 -67 -79 17 l2 74 -57 41 c-31 23 -54 44 -49 47 5 3 36
11 71 18 l63 13 20 68 c12 37 24 68 27 68 4 0 23 -26 42 -57z"/>
<path d="M8250 8829 c-14 -5 -30 -17 -37 -25 -10 -14 -15 -13 -41 6 -21 15
-40 20 -68 18 -33 -3 -41 -8 -56 -38 -27 -55 -10 -101 67 -176 90 -88 98 -89
162 -20 103 111 122 195 52 231 -32 17 -44 18 -79 4z m-81 -37 l28 -27 27 27
c49 50 126 29 126 -34 0 -16 -9 -47 -20 -68 -22 -44 -100 -130 -117 -130 -21
0 -114 84 -138 124 -30 52 -32 85 -5 114 28 30 66 28 99 -6z"/>
<path d="M2059 8812 c-21 -18 -27 -18 -44 -6 -25 19 -80 18 -99 -2 -41 -41 1
-132 90 -196 35 -25 44 -28 60 -18 34 22 94 104 105 144 9 33 8 43 -9 65 -24
33 -70 39 -103 13z m79 -8 c25 -18 28 -41 8 -88 -14 -34 -82 -116 -96 -116 -3
0 -28 16 -53 36 -56 44 -94 113 -78 143 17 31 49 36 83 11 l29 -21 30 25 c36
30 47 32 77 10z"/>
<path d="M2896 8499 c-24 -19 -27 -19 -48 -5 -55 39 -125 2 -115 -60 8 -45 38
-87 100 -135 l50 -40 34 33 c45 42 93 125 93 160 0 29 -40 68 -70 68 -10 0
-29 -9 -44 -21z m82 -11 c28 -28 3 -99 -60 -172 l-35 -40 -46 38 c-75 62 -107
132 -75 164 18 18 59 14 83 -8 l21 -20 24 25 c25 27 68 33 88 13z"/>
<path d="M4796 8364 c-21 -21 -20 -57 2 -77 24 -22 45 -21 65 1 23 26 21 58
-5 76 -28 20 -43 20 -62 0z m65 -20 c9 -11 10 -20 2 -32 -24 -39 -82 -15 -68
28 8 24 47 27 66 4z"/>
<path d="M8578 8364 c-13 -14 -22 -15 -47 -6 -35 12 -35 13 -21 -23 8 -22 6
-32 -11 -53 l-21 -27 33 -3 c20 -2 41 -12 50 -24 18 -24 39 -17 39 13 0 14 9
21 30 26 43 8 46 20 10 38 -24 12 -30 22 -28 42 4 31 -12 39 -34 17z m43 -59
c26 -9 24 -22 -6 -29 -16 -4 -25 -13 -25 -26 0 -26 -12 -25 -28 1 -10 16 -19
19 -40 14 -26 -6 -26 -6 -8 14 13 14 16 28 12 46 -6 23 -5 25 12 16 14 -7 24
-6 38 4 17 12 19 11 22 -10 2 -13 12 -27 23 -30z"/>
<path d="M6125 8310 c-3 -5 -3 -20 1 -34 4 -18 1 -26 -14 -30 -11 -4 -26 -13
-32 -21 -10 -13 -7 -17 18 -26 21 -7 31 -18 36 -40 7 -36 19 -37 34 -4 11 23
16 25 47 19 40 -7 42 -4 19 32 -14 20 -15 29 -5 51 15 32 11 36 -22 24 -21 -8
-30 -6 -51 14 -14 13 -28 20 -31 15z m74 -43 c21 5 22 4 11 -16 -9 -19 -9 -26
4 -40 23 -25 20 -31 -13 -25 -24 5 -30 2 -36 -15 -8 -25 -25 -19 -25 9 0 10
-9 22 -20 25 -11 3 -20 9 -20 13 0 4 9 13 20 20 11 7 20 22 20 34 0 20 1 20
18 5 11 -10 26 -14 41 -10z"/>
<path d="M1364 8205 c-33 -50 20 -104 71 -71 30 20 33 56 7 79 -27 24 -59 21
-78 -8z m83 -21 c8 -20 -15 -44 -43 -44 -32 0 -45 47 -19 66 20 15 52 3 62
-22z"/>
<path d="M8950 8150 c-24 -24 -25 -51 -4 -96 19 -40 111 -124 135 -124 25 0
95 84 115 137 16 41 16 48 3 72 -20 35 -86 42 -113 12 -19 -20 -19 -20 -44 -1
-32 26 -67 25 -92 0z m224 -6 c9 -8 16 -25 16 -37 0 -28 -50 -115 -83 -146
l-26 -23 -45 37 c-74 61 -106 131 -74 163 18 18 59 14 83 -8 l21 -20 24 25
c27 28 61 32 84 9z"/>
<path d="M6801 8051 c-26 -26 -27 -53 -3 -74 49 -45 120 13 80 65 -22 28 -55
31 -77 9z m67 -32 c4 -34 -20 -54 -47 -39 -20 10 -29 49 -14 64 4 4 19 6 33 4
19 -2 26 -10 28 -29z"/>
<path d="M2018 7784 c-2 -28 -9 -42 -26 -50 -36 -18 -36 -22 2 -38 28 -12 36
-21 36 -40 0 -33 13 -33 35 0 14 21 22 25 46 20 31 -6 36 3 17 33 -9 15 -9 26
0 47 16 34 9 41 -27 27 -25 -9 -32 -7 -54 15 l-26 25 -3 -39z m77 -16 c28 13
30 10 14 -20 -8 -14 -8 -23 0 -31 17 -17 13 -27 -13 -27 -13 0 -30 -10 -39
-22 l-16 -23 0 22 c-1 14 -11 28 -28 36 l-27 14 22 12 c14 7 22 21 22 38 0 25
0 26 20 8 17 -15 24 -16 45 -7z"/>
<path d="M3186 7746 c6 -52 6 -54 -30 -82 -20 -16 -36 -34 -36 -41 0 -6 22
-14 49 -18 47 -6 51 -9 64 -48 7 -22 18 -42 25 -45 6 -2 20 15 32 37 20 39 22
41 69 41 26 0 51 3 55 7 3 4 -9 23 -29 43 l-35 36 15 49 c8 27 12 51 9 54 -2
3 -24 -5 -48 -16 l-43 -21 -44 29 c-24 16 -47 29 -52 29 -4 0 -4 -24 -1 -54z
m66 0 c27 -19 29 -19 64 -2 20 9 38 15 39 14 2 -2 -2 -22 -8 -45 -10 -40 -10
-44 17 -72 l29 -30 -44 -3 c-39 -3 -46 -7 -66 -42 l-22 -40 -16 41 c-16 41
-35 53 -82 53 -31 0 -29 5 11 40 31 28 33 33 28 76 -5 51 -5 51 50 10z"/>
<path d="M8021 7751 c-25 -25 -26 -39 -5 -69 18 -27 55 -29 77 -4 20 22 21 42
5 64 -22 28 -55 31 -77 9z m69 -21 c8 -15 6 -24 -10 -40 -16 -16 -25 -18 -40
-10 -19 10 -27 49 -13 63 14 14 53 6 63 -13z"/>
<path d="M5625 7683 c4 -21 9 -49 11 -63 4 -20 -3 -31 -36 -55 -55 -40 -50
-59 18 -63 l53 -3 24 -55 c13 -29 28 -54 33 -54 5 0 19 22 31 49 23 54 33 61
97 61 26 0 44 5 44 11 0 6 -18 28 -40 48 l-40 36 14 57 c8 33 10 60 5 63 -5 4
-30 -6 -56 -21 l-46 -28 -49 27 c-65 36 -72 35 -63 -10z m63 -8 c20 -14 40
-25 45 -25 4 0 26 12 48 26 23 14 43 24 45 21 2 -2 -1 -27 -8 -56 -11 -51 -11
-52 20 -84 18 -18 32 -36 32 -39 0 -4 -21 -8 -47 -10 -47 -3 -49 -4 -72 -53
l-24 -50 -23 53 c-21 47 -26 52 -56 53 -18 0 -42 4 -52 8 -17 6 -15 11 19 38
38 31 38 32 31 87 -3 31 -4 56 -1 56 4 0 23 -11 43 -25z"/>
<path d="M7250 7485 l0 -74 -47 -36 c-27 -20 -48 -42 -48 -48 0 -7 30 -18 66
-26 l66 -13 22 -69 c12 -38 26 -69 30 -69 5 0 23 27 40 60 l32 60 69 0 c38 0
71 4 75 9 3 6 -15 33 -40 61 -25 28 -45 52 -45 53 0 1 9 32 19 69 11 37 16 70
13 72 -4 2 -35 -9 -69 -24 l-62 -28 -52 39 c-29 21 -56 39 -61 39 -4 0 -8 -34
-8 -75z m64 20 c24 -19 50 -35 58 -35 9 0 37 12 62 26 26 15 49 24 52 22 2 -3
-5 -34 -16 -69 l-19 -64 39 -40 c22 -23 40 -44 40 -48 0 -4 -28 -7 -63 -7
l-63 0 -27 -55 c-15 -30 -31 -55 -35 -55 -5 0 -17 27 -27 60 -19 61 -21 64
-88 76 -20 3 -40 10 -43 15 -3 5 16 23 42 41 l46 33 -5 68 c-2 37 -2 67 0 67
3 0 24 -16 47 -35z"/>
<path d="M1089 7339 c-15 -6 -32 -23 -39 -39 -24 -59 11 -123 114 -207 l58
-47 57 60 c94 100 118 182 65 223 -33 26 -70 27 -112 1 -29 -18 -35 -18 -55
-6 -33 21 -59 25 -88 15z m254 -31 c21 -25 21 -43 -2 -93 -18 -39 -106 -145
-120 -145 -15 0 -132 113 -146 141 -46 89 29 159 100 93 l28 -26 16 20 c34 44
90 48 124 10z"/>
<path d="M3402 7270 c-30 -19 -35 -19 -55 -5 -31 22 -93 19 -117 -5 -24 -24
-26 -79 -6 -118 15 -28 79 -92 130 -130 l28 -22 30 22 c40 28 115 131 123 169
9 39 -10 83 -41 98 -35 16 -54 14 -92 -9z m-63 -26 l32 -26 26 26 c46 46 123
26 123 -32 0 -48 -44 -118 -112 -180 l-26 -23 -60 50 c-64 53 -107 124 -96
157 21 58 65 69 113 28z"/>
<path d="M6936 7259 c-25 -20 -28 -20 -45 -5 -26 24 -77 21 -95 -6 -35 -50 -9
-111 74 -177 29 -23 55 -41 60 -41 12 0 87 85 104 118 24 46 21 98 -6 116 -31
22 -60 20 -92 -5z m-52 -20 l27 -21 23 21 c13 12 35 21 54 21 69 0 58 -85 -20
-175 l-35 -40 -43 30 c-79 55 -116 141 -74 172 25 18 37 16 68 -8z"/>
<path d="M8253 7265 c-14 -10 -24 -12 -28 -5 -3 5 -22 10 -41 10 -45 0 -63
-33 -44 -80 16 -38 93 -103 117 -98 25 5 93 98 93 129 0 50 -54 74 -97 44z
m-34 -21 c22 -16 24 -16 33 0 5 9 21 16 38 16 37 0 56 -30 39 -62 -17 -33 -69
-98 -78 -98 -5 0 -29 19 -55 43 -35 33 -46 51 -46 74 0 16 3 33 7 36 11 12 38
8 62 -9z"/>
<path d="M2600 7120 c-11 -11 -20 -26 -20 -33 0 -24 31 -57 55 -57 52 0 74 65
33 94 -30 21 -44 20 -68 -4z m70 -21 c9 -15 8 -24 -1 -35 -18 -21 -57 -18 -64
6 -14 44 44 69 65 29z"/>
<path d="M8912 7109 c-12 -5 -24 -20 -28 -34 -14 -57 74 -93 98 -40 22 49 -19
93 -70 74z m52 -25 c9 -8 16 -19 16 -24 0 -13 -30 -40 -44 -40 -17 0 -36 21
-36 40 0 19 19 40 36 40 7 0 20 -7 28 -16z"/>
<path d="M3694 6881 c-6 -59 -6 -59 -55 -82 -27 -12 -49 -28 -49 -35 0 -7 23
-21 50 -31 52 -19 53 -19 65 -95 3 -21 9 -38 13 -38 4 0 25 20 47 45 l40 45
48 -11 c70 -16 71 -9 18 77 -12 18 -10 26 13 62 14 23 26 46 26 52 0 13 -36
13 -80 0 -33 -10 -37 -9 -70 30 -20 22 -41 40 -47 40 -7 0 -15 -24 -19 -59z
m61 2 l33 -38 47 13 c26 7 50 11 52 8 3 -3 -7 -24 -21 -48 l-25 -43 25 -43 26
-44 -54 7 -54 7 -29 -44 c-28 -42 -29 -43 -36 -18 -4 14 -7 37 -8 53 -1 23 -9
31 -53 51 l-53 23 47 23 c47 23 58 44 58 106 0 33 7 30 45 -13z"/>
<path d="M7545 6830 c-12 -4 -27 -15 -34 -24 -12 -14 -15 -14 -38 4 -35 27
-94 27 -119 -1 -27 -30 -24 -88 6 -133 14 -20 53 -59 88 -88 l63 -51 50 49
c101 98 129 184 75 230 -28 25 -56 29 -91 14z m-78 -34 l28 -24 29 25 c39 33
94 29 115 -8 13 -24 13 -31 -3 -73 -10 -26 -42 -73 -71 -104 l-53 -57 -58 51
c-101 88 -128 150 -84 194 27 27 62 25 97 -4z"/>
<path d="M1910 6670 c-11 -11 -20 -27 -20 -35 0 -21 36 -55 58 -55 24 0 52 31
52 58 0 21 -34 52 -57 52 -7 0 -22 -9 -33 -20z m69 -19 c14 -26 -8 -54 -39
-49 -25 3 -36 27 -26 54 8 20 53 17 65 -5z"/>
<path d="M9246 6655 l-37 -25 -21 20 c-33 30 -91 27 -117 -6 -43 -55 -20 -116
75 -202 38 -34 74 -62 80 -62 18 0 124 117 139 154 29 69 16 117 -36 135 -42
15 -41 15 -83 -14z m-65 -23 l31 -28 28 28 c37 37 81 38 109 2 22 -28 21 -54
-6 -108 -17 -32 -101 -126 -114 -126 -17 0 -129 102 -144 130 -21 40 -19 86 5
110 27 27 54 25 91 -8z"/>
<path d="M7824 6642 c-39 -27 -14 -92 36 -92 45 0 66 52 34 84 -16 17 -51 21
-70 8z m60 -18 c9 -8 16 -19 16 -24 0 -13 -30 -40 -44 -40 -17 0 -36 21 -36
40 0 19 19 40 36 40 7 0 20 -7 28 -16z"/>
<path d="M2366 6549 c-24 -19 -27 -19 -48 -5 -31 22 -101 21 -120 -1 -48 -56
-29 -111 68 -202 42 -39 79 -71 83 -71 16 0 117 112 138 152 30 57 29 93 -2
123 -30 31 -82 33 -119 4z m-57 -24 l30 -26 25 26 c17 17 36 25 60 25 96 0 84
-108 -23 -214 l-50 -50 -48 40 c-102 87 -136 161 -94 203 28 28 63 27 100 -4z"/>
<path d="M6882 6538 c-30 -30 -2 -88 42 -88 29 0 46 18 46 50 0 14 -5 31 -12
38 -7 7 -24 12 -38 12 -14 0 -31 -5 -38 -12z m66 -10 c19 -19 14 -46 -9 -59
-18 -9 -25 -7 -41 9 -16 16 -18 23 -9 41 13 23 40 28 59 9z"/>
<path d="M8651 6453 l-34 -27 -49 18 c-28 10 -52 16 -54 13 -2 -2 3 -25 12
-50 l16 -47 -32 -36 c-17 -20 -29 -38 -26 -41 3 -3 27 -6 53 -7 44 -1 49 -3
70 -41 12 -22 26 -40 30 -40 4 0 15 20 24 45 15 40 21 46 60 56 23 6 44 15 46
20 2 5 -15 20 -36 33 -39 25 -39 25 -34 78 3 29 2 53 -3 53 -5 0 -24 -12 -43
-27z m32 -41 c-5 -47 -5 -48 31 -67 45 -24 46 -35 2 -35 -38 0 -51 -12 -69
-65 l-14 -39 -19 40 c-17 35 -23 39 -61 42 -24 2 -43 6 -43 9 0 4 10 17 22 30
20 21 21 27 11 66 -6 23 -10 43 -8 45 1 2 19 -4 40 -12 38 -16 59 -12 85 18
22 27 29 18 23 -32z"/>
<path d="M4100 6437 c-20 -10 -26 -21 -28 -57 -3 -39 2 -51 32 -86 19 -22 53
-53 76 -69 l43 -30 44 49 c53 59 74 97 75 137 2 61 -64 90 -113 50 -20 -16
-26 -17 -44 -6 -34 22 -59 25 -85 12z m208 -13 c26 -18 28 -43 6 -87 -21 -42
-83 -117 -95 -117 -17 0 -99 73 -120 106 -23 38 -24 67 -3 88 22 22 54 20 81
-6 l23 -21 23 20 c19 18 40 30 57 32 3 1 16 -6 28 -15z"/>
<path d="M3112 6318 c-7 -7 -12 -24 -12 -38 0 -34 17 -50 52 -50 18 0 33 8 44
25 15 23 15 27 0 50 -18 27 -63 34 -84 13z m59 -8 c34 -19 18 -70 -23 -70 -15
0 -38 27 -38 44 0 6 30 36 36 36 3 0 14 -5 25 -10z"/>
<path d="M5023 6248 c-19 -19 -25 -20 -53 -8 -38 16 -44 10 -29 -23 10 -21 8
-30 -9 -55 -25 -34 -20 -43 18 -35 24 4 31 1 44 -26 9 -17 19 -31 21 -31 3 0
11 16 19 35 12 27 21 35 40 35 37 0 40 16 8 39 -24 17 -28 25 -24 55 5 41 -5
45 -35 14z m22 -27 c-5 -24 -1 -32 22 -49 l28 -21 -27 -1 c-19 0 -32 -8 -41
-27 l-14 -27 -12 22 c-8 15 -21 22 -43 22 -30 0 -31 1 -13 20 11 12 16 29 13
45 -5 24 -3 25 26 19 23 -4 36 -1 45 10 19 23 23 20 16 -13z"/>
<path d="M7138 6155 c-61 -46 -139 -80 -225 -97 -44 -9 -66 -7 -135 10 -145
36 -239 45 -416 39 -185 -5 -268 -22 -425 -85 -86 -34 -90 -34 -145 -22 -66
14 -123 41 -172 81 -42 35 -54 26 -41 -30 9 -41 9 -42 -10 -25 -27 24 -34 0
-15 -54 8 -23 11 -42 6 -42 -42 0 45 -139 88 -140 18 0 16 -6 -23 -69 -117
-194 -178 -439 -155 -629 12 -95 39 -190 77 -266 l25 -49 -26 -47 c-14 -26
-39 -87 -54 -135 l-29 -87 -42 63 -43 64 24 95 c31 129 31 327 0 443 -39 141
-117 286 -227 422 l-44 54 33 33 c38 38 69 119 48 126 -8 2 -10 19 -6 58 7 54
0 66 -24 42 -9 -9 -12 -3 -12 29 0 23 -4 45 -10 48 -5 3 -26 -13 -46 -35 -42
-47 -100 -83 -167 -106 -44 -15 -52 -14 -137 5 -264 63 -539 38 -803 -71 -89
-37 -110 -42 -171 -40 -79 2 -162 23 -225 58 -24 13 -47 24 -52 24 -33 0 37
-110 93 -147 21 -14 36 -28 34 -30 -7 -7 -135 37 -141 48 -9 14 -25 11 -25 -5
0 -7 11 -30 25 -50 14 -21 23 -42 19 -47 -6 -10 57 -76 89 -94 17 -9 16 -15
-17 -87 -89 -192 -106 -427 -47 -658 l19 -75 -58 -63 c-131 -142 -227 -408
-261 -724 -7 -60 -15 -108 -18 -108 -4 0 -33 10 -66 23 l-59 23 -47 170 c-26
93 -59 195 -73 227 -21 48 -29 57 -51 57 -29 0 -54 -34 -82 -112 -19 -55 -29
-60 -38 -20 -8 40 -42 92 -60 92 -20 0 -51 -51 -72 -117 -9 -29 -19 -53 -22
-53 -3 0 -16 54 -29 119 -12 66 -37 173 -56 238 -65 226 -106 284 -163 232
-14 -13 -44 -62 -66 -108 l-40 -85 -27 75 c-44 121 -67 159 -95 159 -32 0 -46
-23 -84 -134 -26 -78 -69 -146 -91 -146 -4 0 -24 57 -44 128 -53 176 -95 273
-128 291 -25 15 -29 14 -53 -9 -34 -32 -83 -135 -129 -270 -20 -58 -39 -112
-42 -120 -4 -9 -16 10 -31 50 -15 36 -40 85 -56 110 -29 44 -30 47 -20 106 6
34 18 76 27 95 14 30 20 34 58 35 140 4 201 113 178 319 -12 106 -21 155 -27
155 -12 0 -132 -89 -168 -124 -85 -85 -111 -197 -66 -284 l21 -41 -25 -36
c-13 -20 -27 -45 -30 -56 -8 -24 -25 -25 -25 -1 0 10 -13 59 -29 109 l-28 91
37 44 c54 62 72 104 78 175 4 56 1 70 -27 127 -38 77 -103 140 -257 250 l-109
77 -17 -148 c-32 -285 -21 -397 49 -474 48 -53 86 -72 151 -75 30 -1 55 -4 57
-6 4 -3 35 -232 35 -253 0 -6 -6 -20 -14 -30 -13 -18 -14 -18 -50 4 -28 18
-36 29 -36 52 0 35 -24 95 -48 123 -31 34 -93 56 -164 56 -80 0 -208 -20 -208
-33 0 -22 98 -172 133 -203 l38 -35 -37 -112 c-19 -61 -41 -130 -48 -152 l-13
-40 -66 -9 c-37 -4 -67 -13 -67 -18 0 -7 19 -8 53 -3 189 26 379 31 535 15
167 -17 155 -12 220 -98 135 -180 197 -309 221 -461 5 -29 4 -51 -1 -51 -5 0
-100 7 -211 16 -144 12 -259 14 -400 10 -198 -6 -198 -6 -260 20 -104 44 -166
63 -172 53 -4 -5 2 -12 12 -16 161 -56 172 -62 198 -116 33 -65 101 -136 185
-191 88 -58 156 -85 264 -105 88 -16 91 -17 96 -46 5 -31 59 -75 89 -75 9 1
-1 10 -21 21 -40 21 -65 56 -51 70 15 15 80 -10 157 -62 84 -56 181 -157 257
-266 50 -73 54 -96 9 -48 -26 28 -149 109 -217 144 -23 11 -120 53 -215 92
-95 39 -210 90 -255 113 -46 24 -83 40 -83 35 0 -4 8 -13 18 -18 9 -6 14 -11
10 -11 -3 0 -77 -13 -163 -30 -86 -17 -188 -30 -226 -30 -39 0 -69 -4 -69 -10
0 -21 164 -10 322 21 l156 32 99 -46 c54 -25 139 -62 189 -80 124 -48 275
-125 361 -186 40 -28 137 -116 215 -195 150 -151 252 -227 412 -308 l80 -40
-45 -35 c-24 -20 -98 -91 -164 -159 -66 -68 -123 -124 -127 -124 -3 0 -86 34
-184 76 -99 42 -242 99 -319 128 -129 47 -144 55 -187 102 -26 28 -69 62 -96
77 -48 26 -225 97 -243 97 -5 0 -9 -22 -9 -50 0 -27 -4 -50 -9 -50 -4 0 -53
11 -107 24 -148 36 -313 68 -327 63 -18 -7 -1 -11 191 -51 94 -20 188 -42 208
-49 l35 -12 2 -110 c2 -91 6 -117 24 -150 42 -79 111 -124 204 -132 48 -5 59
-10 70 -31 8 -13 43 -51 78 -83 35 -33 62 -59 60 -59 -2 0 -56 9 -119 20 -63
11 -116 20 -117 20 -1 0 -7 16 -13 35 -6 19 -32 52 -57 74 -49 44 -102 58
-178 48 -45 -7 -236 -65 -246 -75 -12 -12 99 -150 149 -187 137 -100 283 -84
357 40 9 15 16 14 90 -10 43 -14 129 -34 190 -45 161 -30 163 -30 123 -67 -32
-29 -55 -39 -160 -74 -51 -16 -130 -50 -175 -74 -71 -39 -83 -42 -94 -29 -40
48 -146 68 -212 40 -46 -19 -101 -80 -141 -156 -36 -67 -101 -238 -94 -245 6
-6 280 23 314 33 114 35 164 105 164 227 0 66 0 66 35 81 43 17 191 54 222 54
22 0 21 -2 -13 -70 -33 -65 -38 -70 -68 -70 -54 0 -117 -39 -151 -94 -29 -47
-30 -55 -33 -183 -3 -88 0 -133 7 -133 30 0 182 56 223 82 103 65 125 180 53
277 l-24 34 21 39 c30 53 114 131 174 161 27 13 108 43 179 65 151 47 216 80
335 166 47 34 97 69 112 78 26 17 27 17 445 -188 541 -266 678 -330 903 -421
443 -179 972 -325 1305 -359 36 -4 62 -10 58 -14 -4 -5 -109 -42 -233 -84
-124 -42 -262 -89 -307 -105 l-83 -28 0 44 c0 78 -36 123 -100 123 -42 0 -80
-21 -123 -69 -43 -47 -47 -49 -47 -19 0 12 -10 42 -21 66 -26 53 -90 88 -140
77 -64 -14 -148 -125 -149 -195 0 -25 0 -25 -26 8 -25 32 -63 42 -90 24 -21
-14 -35 -52 -37 -102 -1 -28 -3 -50 -3 -50 -1 0 -15 7 -30 15 -40 21 -58 19
-91 -9 -25 -22 -28 -31 -28 -85 l1 -60 -51 -10 c-259 -52 -473 -84 -662 -102
-73 -7 -133 -16 -133 -21 0 -11 12 -11 215 13 349 39 744 118 1146 228 401
110 784 239 1547 522 177 65 325 119 328 119 3 0 23 -14 45 -32 32 -26 51 -33
99 -36 50 -4 69 0 115 23 l56 27 59 -56 c34 -33 87 -69 124 -87 l65 -31 -57
-29 c-31 -17 -75 -45 -97 -63 l-40 -33 -30 18 c-36 22 -103 33 -149 25 -51
-10 -108 -53 -180 -138 -37 -43 -80 -85 -96 -93 -17 -9 -30 -19 -30 -24 0 -13
109 -59 170 -72 117 -25 260 9 319 77 34 38 48 104 32 147 -6 16 -11 30 -11
33 0 14 178 87 265 108 112 28 265 63 265 61 0 -1 -11 -16 -25 -34 -23 -33
-26 -34 -99 -35 -125 -2 -156 -40 -198 -241 -15 -71 -30 -140 -34 -152 -6 -21
-3 -23 28 -23 44 0 176 33 220 56 124 62 167 193 102 312 l-24 44 50 51 c35
38 68 60 120 82 39 16 103 48 143 71 40 23 73 41 74 40 2 -2 -7 -40 -18 -87
-17 -67 -21 -102 -16 -174 3 -49 7 -96 9 -104 2 -10 -17 -20 -59 -33 -139 -42
-187 -160 -129 -318 14 -36 39 -108 58 -160 18 -52 34 -96 34 -98 3 -6 146 87
203 131 104 80 148 180 121 270 -11 40 -65 101 -142 164 -16 13 -28 33 -28 46
0 47 41 183 76 255 37 76 127 183 175 208 43 22 245 29 393 14 145 -15 135 -9
321 -170 214 -186 404 -399 670 -752 111 -148 135 -174 135 -147 0 21 -217
313 -363 489 -108 130 -329 351 -460 461 -87 73 -111 98 -90 93 164 -37 256
-74 370 -150 151 -100 250 -210 436 -485 70 -102 155 -218 189 -257 65 -74
176 -167 187 -156 3 3 -7 16 -24 28 -104 74 -192 177 -340 396 -131 193 -173
247 -264 339 -166 170 -333 257 -593 311 -225 46 -519 46 -595 -1 -76 -47
-166 -177 -208 -302 -21 -63 -26 -99 -27 -178 0 -55 -2 -98 -4 -97 -2 2 -11
52 -20 112 -23 147 -10 242 51 389 5 13 -35 -4 -136 -57 -181 -94 -271 -130
-381 -152 -159 -31 -308 7 -418 107 -41 37 -42 39 -10 19 113 -70 222 -97 328
-80 34 6 73 15 87 20 14 5 27 5 30 0 3 -4 18 -11 35 -15 40 -9 102 20 172 82
32 28 76 55 100 62 63 19 130 55 245 131 108 72 151 90 278 116 103 21 160 50
215 111 43 46 48 49 120 59 63 9 68 11 31 13 -39 1 -50 8 -123 76 -104 98
-263 217 -345 257 -99 48 -166 43 -186 -15 -1 -5 -45 7 -96 28 -112 44 -293
92 -382 99 -73 6 -67 4 91 -31 130 -28 301 -83 371 -119 l48 -24 -6 34 c-4 29
-2 35 16 41 57 18 175 -38 336 -159 79 -60 195 -164 195 -176 0 -4 -30 -10
-67 -14 -38 -4 -96 -14 -130 -23 l-61 -15 -69 41 c-143 85 -464 212 -673 267
-447 117 -966 122 -1805 18 -28 -3 -9 7 65 34 258 96 359 151 585 316 159 116
308 165 526 173 217 8 365 -24 435 -94 28 -28 34 -41 34 -77 0 -28 -7 -52 -19
-68 -28 -35 -135 -85 -248 -115 -83 -22 -121 -26 -253 -27 -174 -1 -243 14
-280 61 -28 36 -25 57 14 97 60 59 225 109 366 109 88 1 144 -17 157 -49 10
-27 -15 -62 -59 -86 -36 -19 -59 -22 -143 -23 -87 0 -100 2 -103 17 -2 11 6
22 22 29 14 7 26 16 26 21 0 13 -60 -21 -67 -38 -11 -29 22 -46 95 -52 83 -5
165 16 210 57 41 35 47 62 22 94 -57 72 -299 60 -463 -22 -106 -54 -137 -113
-87 -166 47 -50 98 -60 295 -59 200 1 275 15 406 75 87 40 120 75 126 131 7
62 -24 104 -108 146 -95 48 -210 66 -379 59 -230 -10 -383 -66 -579 -212 -147
-109 -198 -140 -324 -197 -139 -61 -385 -144 -469 -157 -108 -18 -335 -41
-457 -47 -108 -6 -114 -5 -94 10 31 23 69 36 148 51 54 10 61 13 33 14 -64 2
-137 -20 -191 -56 l-52 -35 -190 12 c-104 7 -194 15 -199 18 -5 3 31 13 80 23
70 14 121 34 239 93 83 42 177 83 210 91 71 18 188 25 460 29 180 2 210 5 300
29 199 52 310 111 615 326 102 71 219 150 260 175 149 90 309 126 474 106 223
-27 355 -79 741 -290 309 -169 489 -239 643 -247 103 -6 132 6 132 56 0 78
-156 201 -275 218 -100 13 -99 -74 3 -126 37 -19 25 3 -14 24 -68 36 -71 85
-6 85 83 0 261 -119 278 -186 9 -36 -24 -64 -75 -64 -46 0 -157 24 -244 51
-84 27 -288 126 -509 248 -203 111 -291 151 -411 190 -189 60 -366 76 -512 46
-108 -22 -248 -100 -500 -275 -251 -175 -329 -222 -449 -270 -139 -56 -258
-81 -386 -83 -133 -2 -172 9 -191 55 -11 28 -10 36 16 85 35 67 101 121 220
179 159 77 296 93 331 38 35 -52 -9 -119 -109 -169 -88 -43 -156 -55 -180 -30
-22 21 -21 27 5 60 31 39 107 85 141 85 36 0 32 -17 -13 -47 -18 -13 -26 -23
-18 -23 23 0 68 39 68 60 0 49 -94 26 -162 -40 -97 -94 -38 -149 110 -105 64
19 221 124 267 178 19 22 38 56 41 74 21 114 -132 152 -335 84 -119 -40 -210
-87 -386 -201 -262 -169 -491 -268 -705 -306 -110 -19 -201 -14 -321 16 -148
38 -218 77 -354 199 -44 40 -109 86 -144 104 -55 27 -75 32 -140 32 -133 0
-198 -55 -189 -157 7 -63 46 -113 121 -152 58 -30 136 -43 182 -32 38 10 75
53 75 88 0 99 -127 190 -214 154 -72 -30 -55 -120 31 -165 32 -16 58 -14 77 8
21 23 6 71 -21 71 -17 -1 -17 -1 0 -11 21 -12 22 -42 2 -59 -33 -27 -115 33
-115 84 0 63 57 83 136 47 69 -31 103 -99 80 -156 -42 -100 -262 -50 -326 75
-58 114 23 199 178 188 88 -6 159 -44 266 -140 130 -115 237 -172 385 -204 85
-18 247 -18 333 0 198 43 433 147 662 295 265 172 448 248 582 239 97 -6 137
-45 120 -114 -7 -26 -68 -99 -96 -114 -15 -8 -16 -4 -12 39 4 43 1 50 -23 69
-97 76 -460 -66 -556 -216 -32 -51 -38 -105 -14 -138 14 -21 13 -21 -121 -28
-181 -10 -257 -31 -417 -115 -133 -70 -228 -102 -349 -116 -66 -7 -147 6 -408
67 -96 22 -220 48 -275 58 l-100 16 80 18 c102 23 276 25 366 3 37 -9 113 -34
170 -55 57 -22 113 -43 124 -47 14 -6 17 -5 10 3 -5 6 -48 26 -95 45 -201 83
-383 105 -555 67 -72 -16 -153 -25 -285 -30 -204 -8 -318 -29 -445 -82 -69
-30 -93 -45 -268 -165 -94 -65 -179 -103 -344 -153 -136 -41 -248 -124 -298
-220 -9 -17 -18 -30 -21 -30 -3 0 13 34 35 76 23 41 41 77 41 80 0 10 -71 3
-142 -15 -43 -10 -78 -17 -78 -15 0 6 88 42 184 74 102 34 166 76 166 111 0
26 -24 36 -131 53 -52 8 -135 27 -184 41 -135 39 -130 44 22 19 53 -8 100 -11
104 -7 5 5 -25 39 -66 76 -41 38 -80 78 -87 90 -6 12 15 -2 48 -32 105 -97
221 -136 375 -129 91 4 99 -1 47 -28 -31 -16 -100 -15 -168 1 -18 5 -21 4 -10
-3 8 -6 41 -15 73 -21 67 -12 97 -4 142 38 17 16 53 43 80 61 28 19 131 117
230 218 189 193 262 253 366 302 35 16 55 29 44 29 -11 1 -44 -10 -74 -24
l-53 -25 -95 50 c-240 126 -422 284 -549 477 -93 141 -232 284 -322 331 -46
25 -96 40 -190 57 -154 28 -208 48 -301 110 -102 69 -210 189 -188 211 2 3 56
-20 119 -51 94 -46 116 -62 125 -86 14 -36 67 -62 190 -90 263 -62 370 -112
492 -227 84 -80 107 -91 45 -22 -100 111 -255 195 -432 235 -199 45 -282 77
-282 110 0 10 19 7 78 -14 42 -16 122 -39 177 -51 141 -31 271 -69 334 -96 59
-26 80 -31 41 -10 -24 14 -24 15 -25 168 -2 182 -19 276 -75 395 l-39 83 27
-14 c91 -48 139 -160 167 -391 25 -206 60 -310 123 -367 l26 -23 -28 38 c-46
63 -75 138 -90 237 -9 52 -23 142 -32 200 -26 168 -75 266 -161 320 -25 16
-66 60 -99 106 -31 43 -73 99 -94 124 -106 128 -159 248 -185 419 -9 58 -23
146 -31 195 -8 49 -13 90 -11 93 2 2 21 -60 43 -137 36 -128 53 -168 54 -122
1 9 10 33 21 52 11 19 17 26 14 15 -18 -57 -26 -122 -21 -157 8 -47 45 -123
80 -166 17 -19 26 -42 26 -65 0 -50 63 -140 152 -215 155 -132 220 -247 293
-515 69 -257 93 -298 215 -358 36 -18 94 -57 130 -87 69 -59 168 -125 247
-166 27 -14 89 -66 143 -121 153 -156 221 -196 457 -265 93 -27 187 -65 288
-115 140 -68 251 -107 535 -186 61 -18 284 -18 333 -1 51 19 47 33 -5 17 -143
-42 -266 -26 -598 80 -89 29 -187 69 -255 105 -78 42 -155 72 -265 105 -85 25
-198 67 -250 93 -81 39 -109 61 -200 149 -96 95 -102 102 -65 88 71 -29 229
-65 282 -65 93 0 331 -108 607 -274 268 -161 405 -201 671 -193 103 3 181 10
220 21 33 9 195 83 360 165 437 217 589 271 760 271 139 0 205 -53 215 -172
l5 -57 50 18 c28 10 111 53 185 95 147 83 173 94 194 77 10 -8 15 -5 24 13 16
36 49 42 77 16 l23 -21 10 29 c9 26 18 32 69 43 32 8 121 14 201 14 141 0 143
0 162 -25 18 -24 20 -24 32 -7 12 16 17 17 43 6 17 -7 38 -19 47 -27 13 -11
21 -12 30 -4 25 21 367 -127 597 -257 40 -22 76 -41 80 -41 5 0 6 21 4 48 -4
41 -2 50 21 71 37 35 112 39 196 11 137 -46 237 -125 515 -405 239 -242 293
-282 538 -400 150 -72 484 -221 521 -232 12 -4 17 -2 13 4 -4 6 -91 48 -194
93 -277 122 -478 221 -568 280 -56 37 -155 126 -325 294 -183 181 -268 258
-338 304 -163 109 -298 131 -372 62 -23 -21 -30 -37 -30 -64 0 -20 -2 -36 -4
-36 -2 0 -33 16 -68 36 -124 71 -380 192 -478 225 -55 19 -100 39 -100 46 0 6
5 24 10 39 l11 27 25 -36 c28 -42 50 -47 59 -14 29 110 67 170 108 175 35 4
354 -50 520 -88 l128 -30 122 -92 c67 -50 187 -144 267 -208 164 -131 378
-298 490 -381 193 -144 480 -309 647 -373 109 -41 110 -26 2 18 -285 116 -551
291 -1074 706 -115 92 -257 202 -315 245 -58 42 -96 75 -85 71 274 -80 570
-184 726 -256 17 -8 40 -38 65 -87 69 -135 209 -266 385 -362 75 -41 330 -131
370 -131 32 0 13 17 -28 25 -119 22 -338 117 -458 198 -106 72 -238 223 -271
310 -10 27 7 22 148 -43 139 -65 176 -73 82 -20 l-57 33 6 56 c4 31 15 85 26
119 l19 61 -63 108 c-67 115 -97 186 -54 128 36 -47 144 -155 157 -155 32 0
148 214 177 327 23 87 33 98 28 31 -14 -193 -49 -322 -113 -423 -67 -105 -74
-188 -25 -285 23 -44 95 -123 95 -104 0 6 -14 23 -31 40 -54 51 -74 100 -74
184 0 66 4 81 30 125 l29 50 7 -52 c21 -166 119 -291 307 -391 59 -31 83 -39
88 -30 4 6 3 13 -3 15 -33 11 -193 114 -233 150 -47 42 -117 139 -108 148 3 3
76 10 164 16 147 10 175 14 163 22 -2 2 -77 -1 -167 -6 -90 -5 -165 -7 -168
-4 -3 3 -11 35 -17 71 -10 62 -9 70 22 162 18 54 38 138 44 187 11 86 13 90
42 103 44 18 83 52 101 86 29 56 20 115 -38 252 l-52 125 -36 -26 c-212 -159
-243 -263 -116 -386 l46 -44 -19 -54 c-23 -68 -63 -147 -108 -215 l-35 -53
-45 36 c-76 63 -78 68 -33 127 89 118 91 200 6 292 -41 45 -292 197 -308 188
-4 -3 -8 -21 -8 -41 0 -20 -7 -81 -16 -137 -22 -136 -15 -230 20 -290 35 -59
95 -95 166 -99 l53 -2 49 -87 50 -87 -20 -78 -19 -77 -52 -13 -52 -14 -193 81
c-404 167 -827 285 -1223 341 -82 11 -92 16 -73 35 5 5 6 24 0 49 -8 35 -7 42
13 57 30 24 31 23 61 -21 15 -22 42 -45 59 -53 40 -16 163 -18 160 -2 -2 9 11
8 44 -2 25 -8 68 -14 95 -14 55 0 54 -12 17 125 -11 38 -19 73 -19 77 0 5 26
7 58 6 l57 -3 3 73 3 72 67 31 c500 229 1021 370 1489 404 52 4 90 11 87 16
-3 5 -27 7 -53 3 l-48 -6 -12 63 c-20 100 -87 365 -126 495 -66 215 -117 301
-170 280 -30 -11 -77 -137 -135 -365 l-12 -44 -21 38 c-41 72 -73 72 -114 -1
-15 -26 -24 -34 -27 -24 -49 138 -66 164 -108 158 -49 -7 -129 -212 -204 -525
-21 -90 -41 -163 -44 -163 -3 0 -18 31 -33 69 -77 190 -121 162 -183 -112 -18
-83 -37 -154 -41 -157 -6 -6 -198 -93 -304 -138 -4 -2 -10 19 -13 45 -3 26
-13 104 -21 173 -18 141 -83 454 -120 576 -14 45 -25 87 -25 92 0 6 28 26 63
45 34 19 130 72 212 118 562 312 1017 486 1400 535 136 17 143 18 130 26 -10
5 -187 -14 -256 -27 l-36 -7 -37 119 c-75 232 -140 355 -181 340 -22 -9 -59
-97 -98 -229 l-31 -108 -56 163 c-81 233 -125 307 -168 281 -39 -24 -89 -167
-137 -396 -40 -194 -33 -180 -57 -133 -57 112 -99 102 -143 -34 l-17 -54 -25
32 c-29 37 -57 40 -77 9 -20 -30 -58 -150 -102 -317 -31 -119 -50 -161 -73
-161 -3 0 -21 30 -40 66 -36 70 -69 99 -99 90 -24 -8 -61 -89 -97 -211 -23
-76 -32 -94 -57 -108 l-29 -17 -20 48 c-87 203 -153 306 -266 413 l-75 71 -2
186 c-2 159 -6 199 -25 267 -27 98 -85 222 -138 301 l-41 59 44 49 c31 34 44
56 42 75 -1 14 6 40 15 58 9 18 17 37 17 43 0 15 -26 12 -41 -6 -12 -14 -100
-64 -114 -64 -4 0 10 19 29 42 43 50 79 120 74 147 -3 17 -9 15 -60 -24z m14
-52 c-27 -51 -87 -107 -142 -132 -56 -26 -153 -27 -282 -5 -74 13 -106 14
-164 5 -137 -20 -261 -83 -363 -184 -57 -56 -59 -58 -67 -35 -13 43 -54 98
-95 127 -99 72 -218 61 -312 -30 l-52 -51 -34 19 c-30 16 -76 71 -67 81 2 2
19 -6 37 -17 51 -31 58 -25 16 14 -33 31 -57 70 -57 96 0 5 21 -7 46 -26 58
-44 85 -46 39 -2 -19 17 -42 49 -50 70 -16 38 -8 49 16 21 15 -18 80 -53 124
-66 16 -4 77 -15 135 -23 118 -17 212 -56 254 -105 13 -17 27 -30 30 -30 3 0
33 20 67 45 75 56 185 110 264 131 39 10 132 18 260 23 221 9 267 20 362 85
27 18 49 31 51 30 2 -1 -6 -19 -16 -41z m-589 -23 c51 -6 106 -14 122 -19 27
-7 24 -9 -30 -14 -187 -20 -289 -56 -413 -145 l-74 -53 -38 35 c-47 42 -88 64
-160 86 l-55 16 59 23 c192 72 378 94 589 71z m643 -78 c-18 -34 -39 -53 -96
-87 -49 -29 -19 -24 43 6 42 22 48 13 14 -23 -34 -37 -70 -58 -124 -74 l-48
-14 60 5 60 5 33 -50 c49 -74 109 -205 132 -285 30 -105 46 -285 34 -386 -10
-80 -9 -85 10 -98 89 -60 231 -244 292 -378 l34 -74 -23 -8 c-32 -13 -86 12
-128 59 -20 22 -39 40 -42 40 -2 0 2 -18 9 -41 22 -63 28 -149 12 -194 -12
-36 -17 -40 -50 -43 -63 -5 -140 48 -199 138 -22 33 -31 22 -19 -21 13 -43 13
-180 0 -213 -5 -14 -18 -30 -30 -36 -54 -29 -205 71 -250 166 -20 41 -22 57
-18 147 4 68 13 123 28 167 27 80 99 190 151 232 42 34 45 47 7 28 -69 -36
-149 -146 -189 -260 -34 -97 -32 -268 5 -405 29 -112 91 -248 159 -351 92
-138 275 -320 404 -402 24 -15 43 -32 43 -39 0 -15 -100 -123 -152 -165 -22
-17 -50 -32 -62 -33 -13 -1 -22 -9 -24 -24 -5 -34 -44 -54 -75 -40 -21 9 -30
9 -41 0 -16 -14 -126 -6 -161 11 -11 6 -41 31 -67 56 -27 26 -48 41 -48 35 0
-17 48 -71 81 -90 36 -22 36 -29 2 -36 -16 -4 -57 -13 -93 -22 -97 -23 -305
-24 -348 -1 -31 16 -35 16 -52 1 -28 -25 -72 -8 -207 81 -87 57 -150 110 -238
198 -268 268 -391 544 -411 920 -6 102 6 259 20 274 4 3 19 -6 34 -20 28 -27
91 -68 105 -68 4 0 7 11 7 25 0 30 4 31 40 5 45 -32 133 -70 162 -70 23 0 27
5 33 40 7 44 15 49 36 23 22 -26 101 -73 123 -73 27 0 114 41 170 79 39 27 45
29 63 16 69 -48 243 -8 372 86 53 38 48 50 -5 14 -137 -94 -306 -132 -362 -82
-16 14 -20 13 -57 -9 -74 -46 -154 -84 -178 -84 -26 0 -102 45 -131 78 -27 31
-34 28 -42 -23 -5 -35 -10 -45 -25 -45 -32 0 -116 36 -161 69 l-43 32 -3 -31
c-2 -16 -6 -30 -10 -30 -14 0 -102 76 -133 115 -41 52 -104 183 -124 260 -9
33 -18 105 -21 160 l-5 100 25 -46 c70 -130 215 -179 347 -117 31 14 75 42 97
62 l41 37 10 -38 c6 -21 11 -63 11 -93 0 -85 48 -147 102 -132 34 9 109 85
160 163 l51 78 55 -50 c116 -106 245 -141 387 -104 154 41 266 149 310 300 21
72 24 199 5 275 -29 123 -106 248 -189 306 -22 16 -41 31 -41 34 0 3 23 6 51
7 65 2 210 47 264 82 41 27 48 25 31 -7z m-426 -67 c100 -34 227 -166 270
-281 61 -163 42 -347 -48 -478 -40 -59 -133 -123 -214 -147 -193 -59 -385 35
-493 242 -48 92 -116 199 -142 221 -35 31 -74 32 -116 4 -36 -24 -38 -25 -32
-6 19 61 -41 190 -108 230 -60 37 -182 19 -226 -34 -13 -15 -23 -98 -24 -201
-1 -76 23 -128 75 -163 51 -33 119 -35 172 -4 20 12 39 22 42 22 2 0 4 -20 4
-45 0 -26 7 -60 16 -77 15 -29 15 -31 -12 -59 -16 -17 -53 -42 -83 -56 -164
-81 -356 31 -354 207 1 131 125 412 229 516 81 84 141 101 237 68 54 -18 129
-94 147 -149 6 -19 16 -35 21 -35 5 0 26 18 46 41 77 85 211 164 332 194 68
18 197 13 261 -10z m-1637 -22 c-3 -21 -19 -55 -35 -75 -39 -51 -14 -48 39 4
25 24 43 36 43 28 -1 -23 -35 -94 -53 -109 -28 -23 -19 -33 13 -14 17 9 30 21
30 25 0 4 4 8 9 8 18 0 -10 -59 -41 -85 -37 -31 -43 -31 -82 2 -72 61 -175 80
-254 47 -69 -28 -130 -104 -147 -181 l-6 -32 -50 39 c-110 87 -250 134 -394
134 -75 -1 -108 -7 -200 -36 -60 -20 -127 -39 -148 -43 -74 -12 -203 44 -256
111 -32 41 -25 45 33 18 89 -41 191 -50 321 -29 61 10 158 20 217 22 135 6
212 -11 346 -78 84 -42 98 -46 106 -32 21 39 84 97 129 119 26 14 87 36 133
50 107 31 170 62 213 108 19 20 36 36 37 36 2 0 0 -17 -3 -37z m-384 -79 l84
-17 -65 -33 c-41 -21 -83 -53 -114 -86 l-48 -54 -96 48 c-124 63 -212 82 -350
75 -58 -3 -114 -9 -125 -12 -16 -6 -17 -5 -5 4 28 20 174 64 274 82 123 23
318 19 445 -7z m246 -117 c53 -26 147 -124 213 -219 68 -99 140 -250 148 -310
12 -88 -50 -194 -140 -240 -78 -40 -200 -19 -286 50 -20 17 -22 23 -11 35 7 9
15 41 18 72 5 46 9 55 22 49 79 -32 177 -1 213 70 30 56 29 144 -2 211 -12 28
-22 62 -21 77 2 38 -47 70 -115 76 -69 6 -96 -2 -138 -39 -48 -41 -69 -101
-64 -182 l3 -65 -27 14 c-84 44 -121 4 -207 -224 -28 -73 -64 -152 -80 -176
-119 -173 -356 -226 -537 -120 -60 35 -141 125 -170 189 -34 75 -57 204 -49
280 17 156 115 318 227 376 175 90 447 45 616 -102 18 -16 36 -29 41 -29 4 0
13 19 20 43 49 165 187 235 326 164z m3725 -89 c21 -46 64 -162 95 -258 31
-96 65 -201 75 -233 14 -43 16 -59 7 -62 -64 -21 -274 -104 -356 -140 l-103
-44 7 42 c40 246 132 642 169 724 37 80 57 74 106 -29z m-2840 47 c43 -22 79
-76 92 -138 11 -51 10 -58 -15 -108 -36 -74 -82 -104 -159 -104 -54 0 -60 3
-95 38 l-38 38 38 -16 c114 -47 218 91 160 212 -22 47 -73 70 -126 55 -42 -11
-39 -2 8 22 38 20 98 20 135 1z m-2245 -40 c124 -29 189 -36 233 -27 23 6 42
8 42 5 0 -3 -18 -25 -40 -50 -80 -91 -120 -207 -120 -348 0 -158 48 -283 146
-375 188 -178 493 -150 636 58 l31 45 25 -29 c145 -173 231 -221 282 -156 19
23 22 38 19 107 -1 44 -1 95 -1 113 l2 34 41 -36 c82 -69 208 -87 298 -41 59
29 117 95 133 148 18 60 26 23 27 -120 1 -207 -42 -352 -137 -454 -57 -62 -72
-71 -72 -41 0 34 -12 31 -74 -16 -70 -54 -123 -79 -136 -66 -5 5 -12 24 -17
43 -12 47 -23 48 -53 4 -14 -20 -44 -49 -68 -64 -50 -32 -61 -30 -182 27 l-78
36 -30 -22 c-63 -47 -201 -32 -340 37 -40 20 -75 33 -79 29 -12 -11 162 -84
239 -100 85 -18 155 -11 188 19 19 17 23 17 100 -19 44 -20 93 -39 109 -42 39
-8 94 20 135 67 18 22 35 39 38 39 3 0 10 -18 17 -40 11 -37 14 -40 39 -34 39
10 73 28 126 69 40 30 46 32 46 16 0 -11 4 -22 8 -25 12 -7 86 48 106 79 9 14
20 25 25 25 4 0 15 -24 24 -52 36 -119 42 -174 41 -368 0 -187 -1 -200 -32
-315 -89 -329 -319 -630 -619 -811 -50 -30 -103 -36 -103 -13 0 5 -19 0 -42
-12 -62 -32 -251 -39 -358 -13 l-78 18 49 54 c27 29 49 61 49 70 -1 12 -7 8
-22 -13 -37 -51 -88 -95 -116 -100 -15 -3 -40 -10 -55 -15 -18 -5 -38 -5 -55
1 -16 6 -35 6 -53 0 -34 -12 -64 7 -74 46 -5 20 -9 23 -15 13 -12 -20 -89 29
-177 114 l-74 71 57 45 c167 132 333 361 409 565 37 98 59 252 52 374 -7 147
-41 238 -129 348 -42 54 -133 123 -161 123 -15 0 -8 -8 26 -31 102 -67 200
-211 227 -334 6 -27 12 -81 13 -120 2 -64 -1 -74 -30 -116 -17 -25 -48 -60
-69 -78 -122 -107 -181 -67 -192 132 l-5 98 -28 -49 c-31 -55 -97 -119 -133
-128 -51 -13 -70 -2 -89 51 -17 48 -18 158 -2 211 4 13 1 12 -12 -6 -9 -14
-34 -42 -54 -62 -29 -30 -44 -38 -73 -38 -20 0 -36 4 -36 9 0 5 15 51 33 103
42 120 107 234 179 312 39 43 54 66 48 76 -25 46 -44 193 -44 335 0 176 13
238 81 396 l24 56 55 -5 c36 -3 54 -1 54 7 0 6 -18 11 -42 11 -51 0 -114 28
-147 64 -28 30 -26 31 22 11 20 -8 49 -15 64 -14 23 0 20 3 -18 15 -26 8 -65
32 -90 55 -26 24 -36 38 -24 34 11 -4 47 -13 80 -20z m-2232 -215 c86 -80 117
-138 117 -217 0 -35 -8 -74 -19 -99 -18 -40 -77 -114 -90 -114 -15 0 -111 219
-125 285 -8 39 -15 58 -15 44 -2 -55 21 -136 65 -232 25 -54 43 -106 39 -114
-4 -12 -17 -14 -55 -11 -110 11 -180 101 -188 242 -4 69 9 271 24 373 l5 32
87 -62 c48 -34 117 -91 155 -127z m4357 170 c15 -29 3 -59 -26 -66 -30 -8 -54
11 -54 40 0 46 59 64 80 26z m3306 -77 c38 -77 124 -317 124 -347 0 -9 -42
-24 -127 -45 -71 -17 -131 -31 -135 -31 -10 0 -48 120 -48 151 0 33 61 247 90
313 28 67 46 59 96 -41z m-4015 16 c49 -17 58 -29 17 -23 -41 7 -92 -15 -109
-48 -19 -35 -14 -113 10 -151 44 -71 126 -94 175 -48 38 36 35 2 -4 -42 -39
-45 -79 -61 -132 -53 -49 8 -71 23 -117 84 -42 54 -55 109 -40 165 28 103 104
148 200 116z m797 -37 c4 -30 -26 -42 -44 -17 -10 14 -11 22 -2 32 16 20 42
12 46 -15z m269 -5 c31 -17 51 -47 127 -181 40 -69 65 -125 61 -134 -14 -38
-99 -153 -140 -191 -49 -45 -83 -52 -111 -23 -17 16 -16 17 15 20 26 3 47 17
88 60 62 65 113 138 113 161 0 19 -22 54 -58 94 -46 49 -141 31 -214 -40 l-37
-36 -11 43 c-21 76 2 143 69 203 43 39 63 44 98 24z m-996 -27 c33 -18 19 -80
-18 -80 -15 0 -53 35 -53 49 0 13 29 41 41 41 6 0 19 -5 30 -10z m-86 -119 c0
-22 -34 -39 -44 -22 -5 8 -7 20 -4 28 7 18 48 13 48 -6z m-207 -61 c69 -50 98
-112 87 -185 l-6 -45 -37 30 c-41 33 -125 56 -165 46 -38 -9 -65 -42 -84 -103
l-17 -53 45 -46 c24 -25 71 -66 104 -91 47 -36 65 -44 87 -39 31 6 36 -5 12
-28 -24 -24 -57 -19 -110 17 -62 41 -177 176 -168 197 4 8 22 56 41 105 88
234 119 262 211 195z m-3048 -119 c10 -95 10 -128 0 -170 -20 -85 -83 -141
-159 -141 l-29 0 35 65 c24 46 36 82 39 123 l4 57 -15 -59 c-16 -61 -62 -156
-76 -156 -12 0 -35 49 -43 90 -9 51 17 128 61 180 35 41 147 130 163 130 4 0
13 -53 20 -119z m6622 82 c27 -31 58 -101 58 -130 -1 -15 -11 -75 -23 -133
-16 -78 -26 -106 -39 -108 -10 -2 -19 6 -23 20 -4 13 -23 59 -42 102 l-34 80
17 62 c17 65 47 124 62 124 5 0 16 -8 24 -17z m-2373 -56 c18 -55 38 -177 30
-182 -13 -8 -21 13 -35 89 -7 39 -16 86 -20 105 -9 44 10 35 25 -12z m193 -15
c15 -6 7 -19 -47 -83 -80 -95 -95 -103 -95 -48 0 91 73 158 142 131z m2026
-39 c22 -31 127 -272 121 -277 -6 -6 -288 -146 -293 -146 -2 0 11 60 30 133
54 209 93 317 114 317 5 0 17 -12 28 -27z m-3375 -190 c-4 -77 -10 -112 -20
-123 -14 -13 -15 -2 -10 101 2 64 7 122 11 128 18 28 23 -7 19 -106z m-103 0
c32 -30 44 -48 50 -83 5 -25 7 -47 4 -49 -6 -7 -58 32 -117 88 -53 50 -57 56
-41 68 30 22 60 15 104 -24z m-3559 -89 c39 -19 77 -69 85 -109 10 -53 -2 -58
-54 -21 -44 32 -149 72 -160 61 -3 -2 1 -6 9 -9 66 -19 112 -42 145 -70 33
-28 37 -36 26 -49 -7 -8 -36 -21 -63 -27 -64 -16 -119 3 -171 58 -39 40 -110
153 -102 161 2 3 37 10 77 17 80 14 168 9 208 -12z m676 -62 c28 -43 125 -337
125 -382 0 -19 -3 -60 -7 -91 -6 -43 -3 -63 9 -87 9 -18 14 -32 11 -32 -3 0
-53 12 -111 27 -106 27 -106 27 -181 99 -75 71 -76 72 -68 110 8 46 88 259
121 326 23 46 49 70 69 64 6 -1 20 -17 32 -34z m7271 15 c39 -41 106 -242 177
-532 25 -99 47 -199 51 -222 l6 -41 -58 -7 c-92 -10 -305 -43 -352 -53 -23 -6
-44 -7 -46 -3 -2 3 -11 38 -20 76 -17 69 -17 72 8 187 59 274 136 541 170 593
20 31 36 31 64 2z m-1235 -29 c14 -18 34 -52 46 -75 l21 -42 -22 -14 c-57 -35
-191 -107 -194 -104 -2 2 12 53 31 113 51 161 72 183 118 122z m-2320 -54 c17
-23 18 -28 3 -88 -10 -39 -16 -106 -16 -180 0 -75 -4 -115 -10 -111 -6 4 -10
-12 -10 -42 0 -26 -5 -66 -12 -88 l-11 -40 -18 88 c-10 49 -25 109 -33 135 -9
25 -16 60 -16 78 0 60 77 275 98 274 4 0 15 -12 25 -26z m-3369 -52 c9 -10 34
-67 57 -126 l40 -108 -27 -75 -27 -75 -17 64 c-31 116 -55 188 -63 188 -5 0
-22 -9 -38 -21 -16 -11 -29 -19 -29 -16 0 9 49 147 59 166 14 26 23 26 45 3z
m-871 -41 c29 -21 60 -47 69 -58 21 -23 62 -113 55 -120 -3 -2 -20 17 -38 44
-18 26 -60 76 -93 111 -32 34 -56 62 -52 62 4 0 30 -17 59 -39z m1133 21 c17
-11 39 -59 72 -162 43 -131 121 -475 110 -485 -2 -2 -97 28 -211 67 l-209 71
7 33 c11 59 93 293 131 375 21 44 47 87 58 95 23 16 27 17 42 6z m-1171 -33
c19 -17 35 -38 35 -46 0 -25 -44 -153 -52 -153 -5 0 -8 7 -8 15 0 8 -13 52
-29 99 -25 77 -27 86 -12 100 21 22 25 21 66 -15z m115 -6 c0 -25 -1 -26 -16
-11 -9 9 -13 21 -10 27 13 20 26 11 26 -16z m-251 -6 l40 5 35 -113 c20 -63
38 -127 41 -144 l6 -30 -155 -2 c-86 -1 -156 2 -156 7 0 10 64 223 79 262 9
24 13 26 40 18 16 -4 48 -6 70 -3z m4241 -122 c59 -120 81 -214 83 -350 1
-123 -7 -150 -41 -129 -22 14 -51 97 -52 149 0 28 -3 36 -9 26 -7 -10 -11 0
-15 35 -17 127 -39 229 -60 278 l-24 54 20 33 20 33 19 -25 c11 -13 37 -60 59
-104z m-3867 78 c26 -51 28 -79 3 -33 -14 25 -25 48 -26 53 0 15 10 6 23 -20z
m7174 -10 c27 -49 83 -224 123 -383 17 -69 38 -147 46 -173 9 -27 14 -50 12
-52 -2 -2 -82 -24 -178 -49 -96 -25 -202 -54 -234 -65 -75 -26 -77 -26 -66 4
5 13 21 76 35 140 55 245 144 521 191 593 21 33 47 27 71 -15z m-1210 -9 c30
-21 46 -25 80 -21 l42 4 39 -121 c22 -66 48 -159 58 -205 l18 -84 -22 -17
c-28 -23 -50 -17 -102 27 -58 50 -154 248 -146 301 4 21 2 61 -2 90 -5 28 -8
52 -6 52 2 0 20 -12 41 -26z m-6066 -88 c19 -26 49 -69 67 -94 17 -26 32 -49
32 -52 0 -8 -214 15 -229 24 -22 14 -11 75 38 199 l11 28 23 -28 c13 -15 39
-50 58 -77z m765 -46 c47 -163 34 -228 -55 -258 -23 -8 -44 -12 -47 -9 -3 3 2
32 10 65 9 33 16 84 15 113 -1 53 -1 53 -15 -27 -7 -44 -18 -94 -24 -110 l-12
-29 -34 39 c-54 63 -58 140 -9 207 31 41 128 120 136 111 4 -4 19 -50 35 -102z
m6700 54 l27 -45 -28 -127 c-28 -125 -44 -176 -45 -140 0 9 -16 71 -35 138
-33 115 -34 123 -20 157 33 79 62 84 101 17z m-1579 -108 c40 -20 97 -21 117
-1 8 8 17 15 19 15 3 0 23 -44 45 -97 67 -163 79 -315 28 -349 -37 -23 -74 -8
-141 60 -47 47 -75 89 -123 184 -60 118 -62 125 -62 198 l0 75 43 -34 c23 -19
56 -42 74 -51z m-5354 -346 c29 -50 36 -58 31 -34 -6 31 24 104 61 149 l17 20
-7 -20 c-28 -79 -45 -141 -45 -166 0 -18 -4 -28 -10 -24 -6 3 5 -24 24 -62 19
-37 55 -126 80 -198 63 -176 92 -244 132 -311 19 -32 33 -58 31 -60 -1 -1 -25
9 -52 24 -93 51 -117 101 -199 407 -15 55 -47 143 -72 195 -43 88 -55 104
-179 225 -124 122 -175 190 -175 232 1 30 318 -301 363 -377z m5056 228 c57
-36 120 -39 151 -6 11 12 20 27 21 32 0 6 27 -41 59 -105 64 -127 90 -209 90
-288 0 -43 -4 -53 -25 -67 -20 -13 -30 -14 -58 -5 -98 33 -187 128 -271 291
-41 80 -96 226 -96 256 0 7 19 -7 43 -33 23 -25 62 -59 86 -75z m-1445 -15
c11 -78 44 -188 91 -308 43 -109 60 -205 36 -205 -17 0 -98 122 -145 219 -40
83 -46 103 -46 159 0 46 5 71 16 83 9 10 19 39 21 63 7 57 19 51 27 -11z
m-2575 -86 c42 -134 83 -288 78 -294 -8 -7 -287 98 -287 108 0 22 103 270 122
294 l22 28 18 -23 c10 -12 31 -63 47 -113z m464 -167 c-29 -101 -59 -156 -108
-199 -42 -37 -48 -38 -76 -10 -23 23 -22 47 7 224 32 188 29 182 81 188 33 3
54 13 77 36 l31 32 7 -93 c5 -82 3 -103 -19 -178z m-1538 229 c46 -12 92 -27
102 -34 16 -12 15 -17 -12 -73 -17 -34 -32 -61 -35 -61 -3 -1 -13 11 -22 27
-9 15 -44 58 -78 95 -34 37 -57 67 -51 67 7 0 50 -10 96 -21z m871 -43 l24
-59 -23 -73 c-24 -80 -20 -78 -94 -48 -41 17 -42 35 -9 130 45 132 64 142 102
50z m-399 -90 c120 -41 279 -97 353 -126 74 -28 185 -69 245 -91 212 -77 246
-92 240 -107 -3 -8 -8 -88 -12 -178 -6 -156 -7 -164 -29 -179 -22 -14 -23 -13
-34 21 -25 74 -98 64 -120 -16 l-11 -39 -52 20 c-296 118 -438 165 -641 214
-78 19 -149 35 -160 37 -13 2 -27 28 -50 93 -18 50 -45 113 -59 142 -31 60
-34 115 -12 189 23 76 27 79 117 93 4 0 106 -32 225 -73z m1321 -190 c-51
-139 -70 -177 -114 -225 -70 -78 -133 -78 -155 1 -17 65 -6 199 26 301 25 83
28 88 44 73 10 -9 31 -16 47 -16 38 0 114 48 144 91 l24 33 12 -74 13 -74 -41
-110z m3949 198 c13 -4 35 -2 49 4 28 13 23 27 58 -168 39 -212 59 -428 37
-390 -5 8 -30 76 -56 150 -26 74 -76 206 -111 292 -35 86 -64 160 -64 163 0 4
14 -5 31 -19 17 -14 42 -29 56 -32z m-2248 -68 c7 -9 23 -16 36 -16 21 0 22
-3 14 -51 -18 -113 -65 -238 -131 -353 -30 -50 -43 -65 -49 -55 -17 27 -8 95
27 219 22 79 39 168 46 244 l12 119 15 -45 c9 -25 22 -53 30 -62z m2921 28
c43 -86 63 -159 56 -197 -6 -34 -10 -37 -89 -65 -140 -50 -127 -54 -111 30 8
40 23 108 34 152 39 150 65 169 110 80z m-707 -94 c71 -174 177 -465 177 -485
0 -31 -31 -13 -103 58 -106 104 -213 243 -320 413 l-26 42 51 -34 c60 -41 107
-45 138 -12 16 18 20 35 20 92 0 38 2 67 4 65 3 -2 29 -65 59 -139z m-3598 12
c-50 -225 -186 -438 -293 -458 -30 -6 -39 -3 -55 17 -17 21 -19 35 -14 119 5
80 13 114 50 213 l44 117 23 -25 c33 -35 84 -34 140 4 42 28 109 103 111 125
1 6 4 0 6 -12 3 -13 -3 -58 -12 -100z m1568 -160 c24 -37 69 -96 100 -132 31
-36 57 -67 57 -71 0 -6 -38 -16 -260 -65 -85 -19 -165 -36 -177 -39 -20 -5
-18 2 24 66 70 109 153 333 153 413 0 12 13 -6 30 -42 16 -34 49 -93 73 -130z
m1842 18 c90 -134 141 -197 239 -298 l71 -72 -55 15 c-133 39 -278 128 -432
267 -81 73 -98 97 -50 72 15 -7 46 -14 69 -14 57 0 76 28 71 104 -1 30 0 52 3
48 3 -4 41 -59 84 -122z m-4075 -171 c-22 -79 -58 -216 -79 -304 -27 -110 -41
-154 -47 -141 -9 22 3 476 14 526 5 22 11 30 15 22 14 -21 61 -13 97 17 19 16
36 28 38 26 1 -1 -16 -67 -38 -146z m2444 14 c33 -46 98 -125 145 -174 47 -49
84 -89 80 -89 -12 0 -150 119 -235 202 l-90 89 10 45 c9 37 13 43 21 29 5 -10
37 -55 69 -102z m3481 2 c70 -161 65 -222 -25 -282 -57 -40 -60 -36 -60 90 0
61 -5 119 -10 127 -7 11 -10 -5 -10 -51 0 -36 -7 -89 -16 -118 l-15 -53 -32
24 c-38 29 -77 100 -77 141 0 37 31 95 72 134 32 30 122 102 124 99 1 0 23
-50 49 -111z m-5866 21 c14 -75 32 -96 83 -96 31 0 47 8 85 43 l46 42 -64
-125 c-34 -69 -94 -171 -131 -227 -68 -101 -162 -213 -179 -213 -17 0 -9 39
57 298 36 141 71 276 77 299 6 24 11 42 13 40 1 -1 7 -29 13 -61z m-1809 14
c69 -5 149 -12 178 -16 l52 -6 0 -124 c0 -68 -2 -124 -4 -124 -2 0 -28 11 -57
24 -50 22 -81 30 -274 73 -120 27 -435 153 -435 174 0 12 383 11 540 -1z
m2044 -182 c4 -9 20 -21 36 -28 24 -10 36 -8 74 9 61 26 54 14 -54 -101 -118
-127 -277 -241 -379 -273 -21 -7 -18 1 26 56 79 100 169 243 226 358 l52 106
6 -55 c4 -30 10 -62 13 -72z m5084 63 c126 -72 185 -128 202 -191 14 -53 6
-93 -32 -152 -47 -75 -55 -78 -90 -38 -38 44 -86 143 -94 193 -4 20 -10 40
-15 42 -16 10 5 -73 47 -185 l43 -115 -26 -3 c-49 -7 -93 9 -132 46 -43 41
-61 90 -61 166 0 64 32 307 40 304 3 -2 56 -32 118 -67z m-6338 -22 c203 -55
364 -113 661 -238 l145 -62 15 -87 c15 -95 13 -93 87 -77 l34 8 -7 -49 c-12
-87 -3 -81 -131 -89 -202 -13 -368 18 -537 99 -226 108 -374 239 -451 398 -25
51 -48 107 -52 125 l-6 32 63 -15 c35 -8 116 -29 179 -45z m2872 -35 c9 -14
-66 -110 -171 -217 -113 -116 -140 -129 -57 -29 73 89 169 235 188 290 l13 35
10 -34 c5 -19 13 -39 17 -45z m563 3 c92 -82 196 -158 241 -179 69 -30 218
-127 203 -132 -8 -2 -75 -9 -149 -16 -245 -20 -404 -50 -845 -157 -427 -103
-434 -104 -476 -82 -19 10 -46 18 -61 19 -16 0 -28 3 -28 8 0 4 71 55 158 114
120 81 181 131 258 210 55 57 109 115 120 130 17 25 36 31 184 63 91 19 197
44 235 54 39 11 77 20 85 20 8 1 42 -23 75 -52z m1718 -38 c40 -20 48 -31 100
-135 54 -108 56 -114 34 -114 -81 0 -135 41 -200 149 -37 62 -38 70 -9 104 19
22 22 21 75 -4z m126 -53 c12 -15 61 -196 53 -195 -4 0 -29 46 -57 102 -27 56
-51 105 -53 108 -5 11 47 -3 57 -15z m-4555 -8 c9 -12 16 -37 16 -55 0 -40 6
-41 32 -8 11 14 24 23 29 20 11 -7 12 -105 2 -104 -5 0 -42 15 -83 32 -83 36
-93 52 -65 106 18 37 47 40 69 9z m4384 -101 c28 -44 52 -82 52 -84 0 -7 -88
-2 -123 8 -26 7 -47 23 -68 51 l-30 42 48 48 c42 42 49 47 58 32 6 -9 34 -52
63 -97z m-244 -69 c10 -38 7 -45 -24 -58 -17 -7 -42 -22 -57 -33 -27 -21 -83
-129 -83 -159 0 -32 -21 -19 -40 25 -53 115 3 224 107 210 33 -4 44 -1 59 15
25 27 30 27 38 0z m-212 -24 c3 -3 -2 -20 -11 -37 -9 -18 -17 -57 -17 -87 -1
-30 -9 -72 -18 -92 -9 -21 -16 -42 -16 -49 0 -23 -26 -1 -47 41 -52 102 -13
230 70 230 19 0 36 -3 39 -6z m-132 -46 c-11 -24 -20 -64 -20 -89 0 -26 -7
-63 -16 -84 -14 -35 -17 -36 -31 -22 -25 25 -29 116 -7 162 15 32 64 75 86 75
4 0 -2 -19 -12 -42z m-3363 -10 c13 -12 23 -28 23 -36 0 -7 -21 -54 -46 -102
l-45 -89 -52 6 c-29 3 -54 7 -56 9 -2 2 11 43 29 90 28 71 41 92 73 115 22 16
42 29 45 29 3 0 16 -10 29 -22z m2803 12 c12 -8 11 -15 -8 -48 -12 -23 -22
-57 -22 -80 0 -21 -11 -63 -23 -93 l-24 -53 -16 25 c-50 77 -38 211 22 244 31
17 50 18 71 5z m185 -8 c66 -9 66 -30 1 -54 -66 -23 -102 -60 -128 -130 -11
-32 -22 -58 -24 -58 -3 0 -13 15 -24 33 -14 22 -20 50 -20 89 0 47 5 62 27 88
32 38 59 51 93 44 14 -3 48 -9 75 -12z m-358 -13 c-27 -16 -57 -87 -57 -134 0
-40 35 -115 56 -122 7 -2 15 12 18 32 4 19 11 35 15 35 9 0 36 -59 30 -64 -2
-1 -38 -20 -79 -41 -41 -21 -91 -48 -111 -60 -46 -30 -176 -95 -188 -95 -5 0
-10 26 -13 58 -5 70 -32 113 -91 145 -36 19 -56 22 -147 21 -176 -2 -311 -50
-760 -273 -311 -155 -367 -175 -520 -187 -94 -8 -273 10 -367 36 -99 27 -199
75 -349 166 -159 97 -327 183 -416 215 -38 13 -68 27 -68 31 0 5 58 8 129 8
98 0 164 -6 268 -26 76 -14 181 -31 233 -38 l94 -11 38 -55 c21 -30 44 -71 50
-92 14 -49 32 -48 58 2 24 47 34 45 50 -8 6 -20 13 -43 16 -51 7 -21 34 6 57
58 18 42 21 43 33 26 8 -10 14 -27 14 -37 0 -10 6 -18 14 -18 22 0 50 70 51
123 l0 49 125 -4 c99 -3 130 -7 151 -21 33 -22 77 -85 88 -123 11 -43 28 -40
54 12 26 51 32 49 51 -16 6 -21 16 -39 21 -41 6 -2 21 20 35 48 14 29 28 53
31 53 3 0 12 -19 19 -41 l14 -41 18 22 c40 49 45 116 14 191 -6 13 1 18 31 23
21 4 175 40 343 81 367 89 559 129 751 154 173 23 223 25 196 10z m63 7 c0 -2
-7 -17 -15 -32 -8 -16 -15 -50 -15 -76 0 -45 -25 -118 -41 -118 -10 0 -29 59
-29 92 0 37 33 102 62 122 21 15 38 20 38 12z m573 -18 c-4 -13 -8 -53 -8 -90
l1 -67 -126 0 c-69 0 -149 -5 -179 -11 -84 -16 -84 -16 -62 29 26 50 70 87
114 95 21 4 41 16 51 31 15 22 24 25 103 28 49 1 94 4 101 5 10 1 11 -4 5 -20z
m-3430 -100 c-41 -115 -61 -122 -43 -15 9 50 17 67 33 75 37 18 37 14 10 -60z
m247 38 c20 -18 45 -38 55 -43 16 -9 16 -12 -3 -49 -33 -65 -53 -78 -114 -70
-28 4 -55 9 -59 12 -7 4 71 182 80 184 2 0 20 -15 41 -34z m116 -82 c21 -14
23 -22 18 -50 -4 -22 -2 -40 7 -51 13 -15 9 -15 -45 -9 -84 11 -88 13 -61 42
13 13 28 38 35 54 15 35 13 35 46 14z m3168 -10 c10 -26 7 -32 -14 -27 -11 3
-20 7 -20 8 0 12 14 35 20 35 4 0 11 -7 14 -16z m-3034 -50 c39 5 52 3 75 -16
53 -41 68 -115 39 -188 -16 -39 -34 -53 -34 -26 0 19 -48 107 -73 135 -12 13
-41 32 -64 42 -43 18 -51 35 -37 72 5 13 9 12 26 -5 17 -17 28 -19 68 -14z
m2460 12 c0 -16 -18 -31 -27 -22 -8 8 5 36 17 36 5 0 10 -6 10 -14z m-2243
-45 c32 -47 39 -109 18 -170 -9 -28 -20 -53 -24 -56 -13 -8 -61 94 -61 129 0
18 -11 54 -24 80 l-24 47 21 8 c33 13 70 -2 94 -38z m618 27 c54 -42 70 -130
39 -208 -9 -22 -19 -40 -23 -40 -10 0 -49 102 -55 143 -3 22 -17 54 -31 73
l-26 34 23 9 c34 14 43 13 73 -11z m-119 -7 c59 -36 78 -114 47 -192 l-16 -42
-28 55 c-34 68 -78 106 -130 114 -22 4 -48 14 -56 23 -15 14 -13 16 18 24 19
5 50 15 69 22 49 18 61 18 96 -4z m215 -18 c14 -13 31 -42 38 -64 12 -39 6
-105 -9 -114 -13 -8 -50 60 -50 92 0 16 -11 51 -24 77 -23 46 -23 47 -2 40 11
-3 33 -17 47 -31z m-641 -1 c40 -41 57 -101 41 -152 -6 -22 -15 -40 -19 -40
-13 0 -40 63 -51 118 -6 29 -18 64 -27 77 -16 24 -15 25 6 25 12 0 34 -13 50
-28z m214 -17 c4 -12 -3 -15 -33 -15 -21 0 -58 -3 -82 -6 -37 -5 -46 -3 -57
15 -12 21 -11 21 77 21 70 0 90 -3 95 -15z m4472 -193 c-4 -3 -21 1 -39 10
l-32 16 35 9 c31 8 35 7 38 -10 2 -10 1 -21 -2 -25z m-7452 -183 c77 -31 152
-86 185 -136 52 -78 40 -184 -27 -247 -17 -15 -35 -25 -40 -22 -6 3 -13 25
-17 49 -9 51 -59 191 -81 224 -27 42 -27 18 0 -35 25 -49 76 -210 76 -238 0
-24 -80 -17 -136 11 -98 49 -124 112 -124 305 0 75 3 139 6 143 3 3 29 -3 58
-15 28 -11 73 -29 100 -39z m343 -208 c148 -52 503 -202 503 -212 0 -15 -134
-129 -177 -150 -88 -43 -248 -36 -355 15 -50 24 -159 107 -166 128 -2 5 8 18
22 29 46 36 68 93 64 165 -2 35 -2 64 -1 64 1 0 51 -17 110 -39z m1569 -226
c51 -8 177 -34 281 -59 103 -25 256 -57 338 -72 264 -47 696 -44 1019 6 106
17 94 9 -134 -82 -144 -58 -473 -168 -501 -168 -15 0 -19 7 -19 32 0 39 -25
68 -58 68 -28 0 -62 -26 -62 -47 0 -18 -6 -17 -33 11 -29 29 -62 25 -79 -8 -6
-11 -12 -22 -13 -24 -1 -2 -16 11 -33 28 -34 33 -57 37 -89 15 -30 -21 -56
-95 -51 -145 3 -39 2 -41 -32 -50 -19 -5 -104 -20 -188 -33 l-153 -24 -58 27
-58 28 5 50 c4 45 1 54 -22 77 -27 27 -53 30 -98 10 -14 -6 -18 -2 -18 17 0
56 -68 92 -100 53 -19 -23 -27 -18 -34 19 -8 42 -58 88 -84 79 -24 -9 -40 -33
-47 -70 -3 -18 -8 -33 -10 -33 -12 0 -415 206 -415 211 0 10 134 56 215 75
156 35 335 38 531 9z m-2009 -16 c45 -22 93 -80 93 -113 0 -17 -6 -18 -92 -14
-57 3 -116 14 -151 26 -38 14 -57 17 -54 9 6 -19 165 -56 245 -56 84 -1 90
-10 41 -66 -70 -79 -210 -70 -318 21 -17 14 -52 53 -77 85 l-45 59 28 11 c77
29 193 58 237 58 31 1 66 -7 93 -20z m5303 -14 c316 -33 577 -103 885 -237 88
-38 164 -73 168 -77 5 -5 -54 -20 -130 -34 -76 -15 -217 -46 -315 -70 l-176
-44 -7 44 c-12 79 -73 109 -114 57 l-21 -27 0 25 c0 62 -39 112 -71 92 -19
-12 -49 -88 -49 -127 l0 -38 -26 20 c-15 12 -35 21 -46 21 -31 0 -68 -45 -68
-82 0 -25 -3 -29 -12 -20 -19 19 -76 14 -99 -9 -16 -16 -20 -30 -17 -65 3 -43
3 -44 -36 -57 l-40 -13 -30 40 c-64 83 -175 110 -334 81 -50 -9 -92 -21 -92
-26 0 -4 25 -49 55 -99 30 -50 55 -94 55 -99 0 -4 -181 -74 -402 -156 l-403
-148 -110 12 c-177 19 -417 69 -662 138 l-93 26 0 37 c0 42 -20 65 -48 56 -13
-5 -22 1 -30 19 -12 27 -55 35 -68 13 -5 -7 -12 1 -19 23 -24 71 -101 71 -137
1 -9 -19 -18 -35 -20 -38 -10 -9 -526 202 -551 226 -4 4 24 10 64 14 93 8 353
59 499 97 336 88 600 178 875 299 109 48 112 48 330 74 121 14 301 32 400 41
99 8 198 16 220 18 119 10 553 5 675 -8z m-3518 -206 c11 -14 22 -45 25 -68
l6 -42 31 30 c18 17 40 31 49 31 28 0 50 -45 44 -91 l-5 -41 26 25 c39 36 65
41 93 18 18 -14 24 -29 24 -59 0 -23 -3 -43 -6 -47 -3 -3 -88 34 -188 81 -177
86 -181 88 -181 118 0 38 26 78 47 74 9 -2 25 -15 35 -29z m1177 -63 c7 -8 14
-29 17 -48 5 -29 2 -36 -19 -45 -21 -10 -259 -71 -346 -89 -23 -5 -23 -4 -19
60 3 51 9 71 28 91 43 46 88 26 115 -52 l13 -38 7 40 c10 55 22 75 45 75 25 0
50 -37 51 -75 1 -27 2 -26 15 15 20 66 66 99 93 66z m2603 -38 c6 -13 12 -53
12 -90 0 -38 3 -68 6 -68 3 0 11 20 18 45 12 47 48 80 74 70 20 -8 38 -49 38
-88 l0 -32 -162 -45 c-89 -25 -167 -46 -173 -48 -7 -2 -18 17 -25 41 -10 38
-9 49 4 76 13 24 23 31 46 31 29 0 70 -38 70 -66 0 -8 3 -14 8 -14 4 0 7 33 7
73 1 109 44 174 77 115z m862 -43 c21 -16 29 -11 -90 -56 -28 -11 -91 -40
-140 -65 -82 -41 -142 -80 -447 -290 -129 -88 -202 -114 -316 -114 -84 0 -148
22 -247 81 l-54 33 0 53 0 52 98 30 c330 100 679 194 917 245 88 19 169 36
180 39 40 9 80 6 99 -8z m257 -4 c-14 -24 -74 -77 -112 -96 -16 -9 -74 -25
-127 -36 -123 -26 -171 -48 -308 -141 -76 -52 -134 -83 -184 -99 -57 -19 -86
-36 -138 -81 -69 -62 -118 -83 -158 -68 -13 5 -24 11 -24 14 0 2 30 21 68 41
37 21 112 70 167 110 308 223 577 347 818 374 4 1 3 -7 -2 -18z m-6631 -101
c22 -11 40 -24 40 -29 0 -4 -33 -24 -74 -44 -68 -34 -206 -150 -194 -163 3 -2
32 20 64 51 66 64 213 143 226 122 21 -33 -5 -148 -43 -192 -46 -52 -114 -75
-263 -90 -72 -7 -132 -12 -133 -11 -8 7 88 220 121 269 68 102 163 134 256 87z
m5271 -69 c16 -16 29 -34 29 -39 0 -12 -117 -45 -130 -37 -17 11 -11 64 10 85
28 28 57 25 91 -9z m-315 -29 c21 -11 49 -31 61 -44 31 -33 56 -96 49 -124
l-6 -24 -49 30 c-51 32 -123 60 -150 60 -9 0 10 -11 42 -24 68 -28 137 -72
137 -87 0 -18 -83 -49 -132 -49 -60 0 -87 11 -127 50 -28 29 -127 180 -134
205 -4 16 112 34 194 31 50 -3 89 -11 115 -24z m-4666 -39 c0 -3 -22 -52 -49
-107 -51 -104 -72 -159 -53 -141 5 6 20 35 33 65 13 30 39 82 58 114 l34 60
23 -27 c13 -15 28 -44 33 -65 34 -121 -27 -194 -212 -252 -34 -11 -63 -20 -64
-20 -9 0 -1 212 8 245 15 54 76 111 131 123 57 13 58 13 58 5z m2573 -108 c9
-8 18 -33 22 -54 l7 -40 22 26 c31 36 56 26 56 -23 l0 -37 25 23 c20 19 27 21
40 10 16 -13 21 -55 6 -64 -4 -3 -68 14 -142 37 -115 36 -134 46 -137 65 -4
26 38 72 67 72 11 0 26 -7 34 -15z m2454 -305 c-59 -21 -120 -45 -135 -55 -26
-15 -25 -15 3 10 51 44 145 85 195 84 43 0 39 -2 -63 -39z m283 -25 c0 -10
-73 -150 -92 -178 -11 -16 -18 -30 -15 -33 7 -8 59 70 96 144 38 75 52 72 77
-15 30 -103 -14 -192 -120 -242 -48 -22 -155 -51 -193 -51 -21 0 -22 1 -8 48
8 26 21 88 30 137 21 110 44 157 87 178 30 15 138 24 138 12z m-540 -41 c22
-9 40 -19 39 -23 -1 -16 -146 -129 -197 -153 -31 -16 -49 -28 -39 -28 30 0
111 46 183 104 38 31 72 56 75 56 9 0 19 -39 19 -76 0 -60 -70 -132 -149 -154
-82 -23 -222 -6 -304 37 l-29 14 29 22 c16 12 59 56 96 98 98 113 177 143 277
103z m-2158 -31 c33 -30 50 -73 57 -147 l7 -71 14 43 c25 78 107 152 170 152
12 0 32 -11 46 -25 22 -22 25 -32 22 -82 l-3 -58 -200 -57 c-289 -83 -610
-162 -629 -155 -11 5 -16 19 -16 49 0 91 64 118 126 53 l33 -35 -5 67 c-12
152 85 198 121 57 l11 -46 17 83 c19 95 53 154 107 182 41 21 93 17 122 -10z
m3124 -125 c18 -84 17 -130 -5 -208 -33 -116 -33 -117 -12 -78 31 55 51 152
51 246 0 45 4 82 8 82 17 0 124 -112 137 -144 46 -111 -25 -226 -211 -342 -41
-26 -76 -45 -77 -43 -1 2 -17 47 -36 99 -18 52 -42 118 -52 145 -43 116 -12
220 77 265 66 33 98 47 103 44 2 -2 9 -31 17 -66z"/>
<path d="M6733 4377 c12 -65 2 -146 -19 -154 -23 -8 -71 44 -104 112 -16 33
-30 52 -30 42 0 -25 43 -106 73 -139 31 -33 72 -37 87 -9 11 21 14 159 4 185
-14 35 -20 13 -11 -37z"/>
<path d="M5710 4368 c0 -53 29 -151 51 -173 15 -15 23 -17 37 -9 26 16 50 73
56 134 l6 55 -18 -65 c-24 -84 -39 -112 -60 -108 -21 4 -51 88 -52 145 0 23
-4 45 -10 48 -6 4 -10 -8 -10 -27z"/>
<path d="M6384 4272 c-1 -80 -14 -122 -39 -122 -23 0 -72 75 -86 130 -7 28
-17 50 -22 50 -22 0 35 -138 72 -177 53 -56 91 -5 91 122 0 41 -3 75 -7 75 -5
0 -8 -35 -9 -78z"/>
<path d="M5965 4281 c14 -127 79 -200 120 -137 17 26 37 166 25 179 -4 4 -10
-21 -13 -57 -7 -78 -30 -138 -50 -130 -21 8 -55 75 -63 125 -10 67 -26 84 -19
20z"/>
<path d="M6856 4060 c13 -51 11 -167 -2 -180 -18 -18 -85 48 -114 109 -26 57
-48 71 -26 16 23 -55 76 -125 103 -138 34 -15 56 1 65 47 9 43 -6 154 -23 170
-8 8 -9 2 -3 -24z"/>
<path d="M6537 3946 c7 -87 -2 -136 -27 -136 -24 0 -76 63 -96 117 -9 24 -20
43 -25 43 -18 0 37 -112 74 -152 28 -30 58 -36 75 -15 16 20 24 92 17 151 -10
77 -24 70 -18 -8z"/>
<path d="M5919 3905 c-4 -92 -17 -118 -45 -94 -20 17 -74 127 -74 152 0 9 -5
17 -10 17 -13 0 -4 -40 22 -100 34 -79 79 -110 108 -75 16 19 26 170 12 179
-6 4 -11 -24 -13 -79z"/>
<path d="M6223 3887 c0 -78 -15 -120 -41 -115 -21 4 -58 59 -80 120 -20 57
-35 65 -20 11 22 -82 76 -153 115 -153 23 0 43 65 43 140 0 38 -4 70 -8 70 -5
0 -9 -33 -9 -73z"/>
<path d="M7077 3745 c11 -71 9 -133 -4 -146 -18 -18 -57 12 -100 76 -20 31
-38 53 -41 51 -7 -8 44 -89 75 -117 38 -36 59 -41 79 -22 14 14 16 31 11 94
-3 42 -10 85 -16 96 -9 14 -10 7 -4 -32z"/>
<path d="M6764 3588 c1 -88 0 -93 -21 -96 -23 -3 -68 48 -101 116 -9 17 -20
32 -24 32 -16 0 54 -120 84 -146 37 -31 53 -30 74 1 14 21 16 39 10 98 -10
105 -23 102 -22 -5z"/>
<path d="M6457 3548 c7 -81 -1 -118 -26 -118 -24 0 -44 24 -87 101 -24 43 -33
54 -29 35 14 -64 85 -156 120 -156 29 0 40 33 38 108 -1 41 -7 80 -12 85 -7 7
-9 -10 -4 -55z"/>
<path d="M6167 3573 c12 -44 10 -146 -4 -150 -18 -7 -70 47 -103 107 -16 30
-30 47 -30 37 0 -26 26 -73 67 -118 65 -72 111 -41 98 66 -8 66 -14 85 -26 85
-5 0 -6 -11 -2 -27z"/>
<path d="M6510 5751 c-116 -38 -182 -127 -183 -245 0 -80 25 -137 79 -185 58
-51 119 -68 191 -53 106 22 173 89 195 193 10 48 16 60 39 69 15 7 37 22 50
36 l22 24 -21 0 c-12 0 -50 26 -89 62 -38 33 -87 70 -111 80 -49 22 -135 32
-172 19z m101 -63 c78 -23 158 -118 159 -188 0 -77 -53 -159 -125 -191 -79
-36 -188 -18 -240 41 l-20 23 22 -12 c62 -32 153 -2 200 68 59 87 8 222 -93
247 -25 7 -26 8 -9 15 29 11 63 10 106 -3z m-136 -88 c41 -45 -18 -110 -70
-76 -29 19 -32 51 -8 78 21 24 55 23 78 -2z m99 -96 c21 -8 21 -50 0 -58 -20
-8 -44 10 -44 34 0 28 14 36 44 24z"/>
<path d="M6736 5274 c-23 -23 -20 -46 13 -92 41 -55 47 -57 87 -27 52 40 69
70 56 100 -12 26 -55 35 -67 15 -4 -7 -14 -5 -28 5 -27 19 -42 19 -61 -1z m62
-21 c9 -15 11 -15 27 1 26 25 50 16 50 -18 0 -21 -10 -37 -38 -60 l-39 -31
-29 35 c-37 45 -39 90 -4 90 13 0 28 -8 33 -17z"/>
<path d="M4190 5511 c-67 -22 -126 -71 -178 -147 -12 -17 -35 -37 -52 -44 -16
-7 -30 -17 -30 -22 0 -5 22 -19 49 -31 45 -18 50 -24 56 -59 17 -97 124 -188
222 -188 133 0 227 84 240 216 15 146 -85 268 -229 279 -29 3 -64 1 -78 -4z
m125 -51 l20 -9 -20 0 c-31 -1 -83 -37 -106 -73 -15 -26 -19 -46 -17 -89 5
-68 35 -114 92 -140 53 -24 92 -24 139 1 44 24 46 19 11 -27 -76 -100 -244
-102 -327 -4 -84 101 -49 260 72 323 53 28 99 34 136 18z m109 -81 c28 -40 -9
-88 -57 -75 -31 7 -44 44 -27 75 15 28 64 28 84 0z m-126 -125 c4 -25 -22 -49
-43 -40 -31 12 -9 70 25 64 8 -2 16 -13 18 -24z"/>
<path d="M4120 4996 c-9 -11 -17 -12 -34 -4 -17 7 -30 7 -45 -1 -41 -22 -19
-73 51 -117 l39 -25 22 27 c48 59 59 98 35 122 -16 16 -53 15 -68 -2z m59 -14
c11 -21 -7 -69 -36 -95 -19 -17 -21 -16 -61 13 -30 21 -42 37 -42 55 0 19 5
25 23 25 13 0 28 -5 35 -12 10 -10 16 -7 28 10 18 27 40 28 53 4z"/>
<path d="M5270 4160 c-1 -77 -18 -133 -42 -138 -19 -4 -60 68 -73 126 -3 17
-11 32 -16 32 -11 0 -7 -15 23 -97 19 -51 48 -83 76 -83 30 0 65 169 43 207
-8 14 -11 4 -11 -47z"/>
<path d="M4262 4087 c6 -90 17 -120 49 -137 17 -9 24 -6 49 20 31 33 73 132
68 159 -2 9 -14 -12 -27 -47 -12 -35 -35 -78 -51 -95 -27 -30 -30 -31 -46 -15
-14 13 -19 39 -22 108 -3 52 -9 90 -15 90 -6 0 -8 -30 -5 -83z"/>
<path d="M5028 4078 c-5 -63 -39 -148 -59 -148 -14 0 -45 74 -59 143 -14 69
-25 76 -16 10 14 -107 54 -181 89 -167 34 13 80 173 59 209 -7 13 -10 1 -14
-47z"/>
<path d="M4613 4052 c16 -205 118 -198 156 11 12 68 -4 58 -18 -10 -12 -61
-48 -134 -69 -141 -17 -5 -39 51 -52 134 -15 92 -24 96 -17 6z"/>
<path d="M4186 3761 c-11 -94 12 -171 50 -171 36 0 114 120 113 175 0 11 -13
-9 -30 -45 -31 -68 -64 -110 -85 -110 -21 0 -36 68 -32 141 5 84 -7 91 -16 10z"/>
<path d="M5238 3731 c-38 -159 -86 -160 -104 -1 -4 33 -10 60 -15 60 -4 0 -5
-26 -2 -57 16 -158 69 -187 121 -65 23 54 38 132 25 132 -4 0 -15 -31 -25 -69z"/>
<path d="M4509 3755 c-8 -11 5 -151 16 -178 4 -10 16 -22 27 -28 15 -8 24 -5
48 21 33 35 73 133 67 164 -2 15 -7 8 -16 -24 -22 -77 -66 -150 -91 -150 -15
0 -32 59 -38 132 -4 40 -10 69 -13 63z"/>
<path d="M4824 3680 c4 -120 40 -168 91 -120 24 23 70 149 63 172 -3 7 -14
-19 -26 -57 -25 -81 -46 -115 -71 -115 -20 0 -36 44 -51 141 -9 52 -9 51 -6
-21z"/>
<path d="M4006 3442 c-4 -38 -2 -72 6 -98 24 -71 74 -54 126 44 34 63 37 72
24 72 -4 0 -14 -15 -20 -34 -7 -19 -30 -54 -51 -78 -53 -59 -66 -46 -66 67 0
47 -3 85 -6 85 -4 0 -9 -26 -13 -58z"/>
<path d="M4326 3397 c-9 -41 -1 -129 15 -159 14 -25 45 -22 75 7 28 28 77 131
71 148 -2 7 -16 -15 -31 -48 -25 -56 -70 -115 -87 -115 -14 0 -22 36 -29 120
-5 76 -7 81 -14 47z"/>
<path d="M4918 3384 c-11 -11 -10 -128 2 -158 21 -55 79 -15 125 87 15 32 25
61 22 64 -3 3 -19 -23 -35 -58 -30 -65 -76 -119 -89 -105 -5 4 -10 46 -13 93
-3 47 -8 81 -12 77z"/>
<path d="M4630 3323 c0 -70 16 -132 36 -140 35 -13 98 72 120 162 10 44 -9 19
-31 -39 -10 -27 -30 -63 -46 -80 -39 -44 -53 -26 -58 74 -4 91 -21 109 -21 23z"/>
<path d="M6088 5438 c-8 -21 2 -38 22 -38 23 0 32 13 24 34 -7 19 -40 21 -46
4z"/>
<path d="M4737 5254 c-4 -4 -7 -16 -7 -26 0 -14 6 -19 23 -16 14 2 22 10 22
23 0 20 -25 32 -38 19z"/>
<path d="M2545 3836 c-25 -18 -24 -69 2 -104 11 -15 39 -40 62 -57 50 -35 59
-31 108 39 34 50 43 102 21 124 -17 17 -73 15 -88 -3 -11 -13 -15 -13 -33 0
-27 19 -48 19 -72 1z m179 -12 c9 -8 16 -19 16 -24 0 -21 -20 -59 -53 -97
l-35 -42 -45 35 c-51 40 -76 87 -60 113 14 22 47 25 67 6 15 -15 18 -15 42 4
32 25 47 26 68 5z"/>
<path d="M5590 3440 c-43 -43 -11 -114 81 -185 l50 -38 31 29 c75 71 109 162
72 198 -22 23 -77 20 -99 -4 -16 -18 -20 -19 -35 -5 -30 27 -75 30 -100 5z
m225 -7 c22 -22 14 -62 -24 -116 -63 -92 -75 -93 -154 -8 -48 52 -61 93 -35
119 19 19 56 14 79 -9 l21 -21 26 26 c30 30 63 33 87 9z"/>
<path d="M5645 1768 c-11 -6 -23 -16 -26 -21 -4 -6 -16 -3 -30 7 -30 20 -73
21 -93 0 -9 -9 -16 -32 -16 -55 0 -32 7 -48 42 -85 23 -25 55 -55 71 -66 l29
-20 39 38 c51 50 94 135 85 169 -10 38 -62 55 -101 33z m-66 -29 l33 -20 22
20 c25 23 66 27 84 9 16 -16 15 -43 -4 -83 -17 -36 -81 -115 -93 -115 -15 0
-102 82 -116 111 -19 36 -19 58 2 81 21 23 30 23 72 -3z"/>
<path d="M1200 6161 c-23 -43 1 -81 50 -81 29 0 50 22 50 54 0 42 -80 64 -100
27z m68 -3 c19 -19 14 -56 -8 -63 -24 -8 -50 10 -50 34 0 19 19 41 35 41 6 0
16 -5 23 -12z"/>
<path d="M5372 6150 c-30 -19 -35 -19 -55 -5 -33 23 -93 20 -111 -7 -20 -28
-20 -71 -1 -107 17 -33 132 -141 151 -141 18 0 115 109 131 147 21 51 17 89
-13 112 -33 26 -60 26 -102 1z m-72 -15 c15 -8 30 -20 33 -27 3 -9 13 -4 30
15 19 19 36 27 61 27 65 0 79 -63 31 -137 -24 -35 -86 -103 -95 -103 -17 0
-112 83 -131 113 -24 41 -25 102 -1 116 24 14 38 13 72 -4z"/>
<path d="M3050 5882 c-22 -7 -30 -23 -30 -61 0 -29 9 -43 52 -83 29 -26 58
-48 64 -48 16 0 80 77 93 113 22 58 -32 108 -81 75 -19 -12 -28 -13 -53 -3
-16 7 -37 10 -45 7z m52 -29 c17 -15 19 -15 36 0 38 34 90 10 79 -35 -8 -31
-66 -108 -81 -108 -21 0 -94 74 -101 103 -13 49 29 74 67 40z"/>
<path d="M7970 5877 c-31 -16 -45 -54 -36 -102 8 -39 74 -114 144 -164 l34
-23 57 58 c64 67 91 116 91 167 0 67 -86 101 -142 57 -25 -19 -25 -19 -64 0
-45 23 -51 24 -84 7z m263 -29 c13 -15 16 -30 12 -52 -8 -36 -62 -120 -104
-160 l-30 -28 -60 47 c-81 63 -106 105 -102 167 3 51 72 63 117 22 18 -18 29
-23 32 -15 2 7 18 21 36 32 36 23 73 18 99 -13z"/>
<path d="M1624 5852 c-35 -5 -56 -37 -56 -81 0 -22 5 -48 11 -59 11 -20 90
-98 134 -133 l28 -21 36 29 c20 16 55 55 77 87 33 46 41 66 41 101 0 52 -17
73 -66 81 -26 4 -43 0 -71 -19 -30 -21 -39 -23 -48 -12 -15 18 -59 32 -86 27z
m75 -37 l30 -26 25 26 c46 46 126 25 126 -33 0 -39 -35 -104 -85 -155 -25 -26
-48 -47 -52 -47 -5 0 -37 26 -72 57 -88 78 -112 142 -71 183 27 27 62 25 99
-5z"/>
<path d="M2590 5581 c0 -25 -6 -36 -30 -49 -37 -21 -37 -27 0 -41 24 -8 30
-16 30 -40 0 -37 12 -40 33 -8 12 19 22 22 51 19 40 -5 43 -1 20 33 -12 18
-13 28 -5 44 16 29 14 33 -18 29 -21 -2 -38 5 -55 21 l-26 24 0 -32z m69 -26
c23 7 26 2 11 -25 -7 -13 -6 -21 5 -30 23 -19 18 -31 -11 -24 -21 5 -31 2 -45
-17 l-19 -24 0 28 c0 20 -6 30 -20 34 -11 3 -20 9 -20 14 0 4 9 13 20 19 11 6
20 20 20 32 0 20 1 20 19 4 13 -11 27 -15 40 -11z"/>
<path d="M7792 5124 c-49 -34 -18 -114 64 -165 l36 -22 31 38 c66 79 75 123
31 152 -25 16 -28 16 -56 0 -27 -15 -32 -15 -51 -2 -27 19 -27 19 -55 -1z m60
-21 c17 -15 19 -15 36 0 25 23 59 21 72 -3 14 -25 -8 -75 -50 -115 l-28 -27
-40 32 c-49 39 -68 79 -52 109 13 25 37 27 62 4z"/>
<path d="M2944 5091 c-26 -16 -33 -17 -49 -5 -49 36 -115 4 -115 -57 0 -36 49
-100 106 -137 l48 -32 29 27 c81 76 112 175 65 207 -29 21 -46 20 -84 -3z
m-58 -24 l27 -23 23 23 c32 32 81 31 96 -2 9 -20 6 -33 -15 -77 -15 -30 -40
-67 -56 -82 l-30 -29 -45 34 c-56 43 -86 87 -86 127 0 52 42 66 86 29z"/>
<path d="M8244 4511 c-26 -16 -33 -17 -49 -5 -32 23 -82 18 -101 -11 -27 -41
-11 -89 46 -144 27 -26 61 -54 76 -61 26 -14 28 -13 66 30 76 87 96 152 58
190 -25 25 -56 25 -96 1z m-71 -13 c12 -6 27 -18 32 -25 9 -12 15 -9 34 11 14
15 36 26 51 26 73 0 65 -81 -18 -174 -40 -46 -53 -43 -121 29 -41 44 -51 60
-51 89 0 49 31 67 73 44z"/>
<path d="M1107 4070 c-22 -17 -26 -18 -37 -5 -19 23 -87 20 -100 -4 -15 -30
-12 -73 9 -104 22 -34 108 -107 126 -107 18 0 94 86 111 125 19 47 18 71 -6
95 -26 26 -70 26 -103 0z m78 -2 c19 -8 25 -19 25 -43 0 -33 -41 -105 -82
-142 l-24 -23 -56 50 c-69 62 -87 99 -64 135 20 31 45 32 81 3 25 -20 28 -20
37 -4 8 14 28 27 55 35 1 1 14 -4 28 -11z"/>
<path d="M840 3681 c0 -6 27 -24 60 -42 68 -36 195 -148 183 -160 -12 -12
-182 -59 -214 -59 -28 0 -47 -14 -31 -24 20 -12 292 58 292 75 0 18 -173 167
-222 192 -63 30 -68 31 -68 18z"/>
<path d="M8300 3483 c-8 -3 -22 -12 -31 -19 -13 -12 -21 -12 -49 2 -61 31
-113 -13 -96 -80 8 -33 66 -98 113 -127 l34 -21 30 28 c75 72 113 172 76 202
-16 14 -58 22 -77 15z m64 -29 c9 -8 16 -21 16 -27 -1 -24 -39 -93 -72 -132
l-35 -40 -43 30 c-77 54 -113 128 -78 163 18 18 56 14 75 -7 16 -20 17 -19 46
5 33 28 69 31 91 8z"/>
<path d="M1182 3409 c-56 -36 -173 -72 -262 -79 l-85 -7 75 -2 c42 0 102 6
135 14 60 16 175 73 175 87 0 11 0 11 -38 -13z"/>
<path d="M2120 3186 c0 -4 11 -23 24 -44 13 -21 45 -80 70 -131 26 -52 70
-123 98 -159 101 -127 255 -230 358 -240 68 -6 97 3 115 39 31 58 -5 136 -107
236 -145 142 -280 209 -349 173 -50 -27 -7 -124 98 -221 119 -110 243 -144
243 -68 0 51 -105 149 -160 149 -22 0 -29 -34 -8 -46 8 -5 9 -2 5 9 -17 44 51
17 111 -44 49 -50 55 -85 17 -95 -38 -10 -127 40 -211 118 -183 171 -101 268
108 127 202 -136 296 -281 227 -350 -49 -49 -196 1 -324 109 -94 79 -149 153
-225 299 -54 106 -90 161 -90 139z"/>
<path d="M2825 2386 c-148 -47 -248 -128 -384 -310 -114 -152 -140 -173 -292
-240 -57 -26 -131 -63 -164 -83 -73 -44 -70 -42 -62 -49 3 -3 27 9 53 27 27
18 100 57 164 86 176 81 199 99 302 236 146 196 215 257 347 303 68 24 155 32
166 14 11 -18 -46 -64 -171 -138 -67 -39 -153 -97 -190 -127 -38 -31 -95 -77
-127 -102 -31 -26 -55 -48 -52 -51 5 -5 75 48 175 133 36 31 108 81 160 112
161 95 200 123 212 149 10 22 9 28 -7 40 -23 17 -76 17 -130 0z"/>
<path d="M7206 2376 c272 -34 474 -97 724 -228 282 -147 516 -329 858 -668 92
-91 199 -189 237 -218 84 -63 205 -126 231 -120 18 5 18 5 -1 12 -76 29 -172
85 -245 143 -137 109 -351 329 -383 392 -31 63 -35 125 -11 160 15 21 23 23
78 19 41 -3 82 -14 126 -35 180 -87 461 -316 658 -537 38 -43 62 -62 62 -52 0
25 -286 308 -411 407 -183 144 -359 239 -444 239 -88 0 -128 -74 -90 -167 8
-19 15 -38 15 -40 0 -3 -30 22 -67 54 -214 188 -402 321 -596 423 -269 141
-519 217 -742 225 l-110 4 111 -13z"/>
<path d="M3326 1340 c-35 -17 -41 -18 -60 -5 -70 50 -133 -23 -91 -104 18 -37
114 -121 137 -121 22 0 105 106 117 148 12 40 0 76 -28 91 -26 15 -31 14 -75
-9z m87 -22 c17 -26 -7 -89 -54 -142 -22 -25 -46 -46 -54 -46 -21 0 -121 103
-127 131 -2 14 -1 36 3 47 11 29 61 30 89 2 19 -19 20 -19 47 6 31 28 79 30
96 2z"/>
<path d="M8030 1243 c-8 -3 -23 -12 -32 -20 -15 -13 -19 -13 -40 1 -43 30
-101 16 -112 -28 -12 -47 22 -100 107 -168 l38 -31 36 34 c39 37 93 125 93
150 0 37 -55 74 -90 62z m-66 -49 c10 -13 15 -12 35 10 46 49 110 26 97 -34
-6 -33 -51 -103 -85 -134 -20 -19 -21 -18 -67 19 -80 66 -105 129 -63 159 24
16 64 7 83 -20z"/>
</g>
</svg>
