<?xml version="1.0" standalone="no"?>
<!DOCTYPE svg PUBLIC "-//W3C//DTD SVG 20010904//EN"
 "http://www.w3.org/TR/2001/REC-SVG-20010904/DTD/svg10.dtd">
<svg version="1.0" xmlns="http://www.w3.org/2000/svg"
 width="1024.000000pt" height="1024.000000pt" viewBox="0 0 1024.000000 1024.000000"
 preserveAspectRatio="xMidYMid meet">
<metadata>
Created by potrace 1.16, written by Peter Selinger 2001-2019
</metadata>
<g transform="translate(0.000000,1024.000000) scale(0.100000,-0.100000)"
fill="#000000" stroke="none">
<path d="M4374 9483 c3 -49 13 -113 21 -143 8 -30 15 -61 15 -67 0 -18 -134
-17 -196 2 -60 18 -64 18 -64 2 0 -20 109 -97 235 -168 168 -94 243 -147 285
-203 68 -91 80 -120 167 -416 13 -47 45 -122 69 -168 33 -61 40 -80 26 -73
-28 15 -78 73 -182 212 -112 148 -220 257 -319 324 -320 212 -697 131 -802
-172 -52 -151 -21 -352 68 -445 25 -26 25 -28 7 -34 -10 -4 -43 -18 -72 -31
l-54 -23 -41 34 c-136 111 -271 115 -386 11 -24 -22 -46 -53 -52 -76 l-12 -38
-30 17 c-17 9 -64 48 -104 86 -44 41 -77 66 -83 60 -5 -5 -1 -51 9 -109 14
-73 15 -102 7 -107 -15 -10 -128 -9 -191 2 -27 4 -54 4 -59 0 -19 -19 133
-128 244 -175 63 -26 65 -29 42 -67 -16 -26 -65 -57 -229 -147 -253 -138 -273
-152 -273 -192 0 -17 5 -29 13 -29 7 0 21 -13 30 -30 26 -44 73 -73 104 -65
14 3 75 28 135 55 l110 49 -6 -31 c-3 -17 -6 -51 -6 -77 0 -40 -4 -49 -28 -63
-15 -9 -73 -55 -130 -102 -57 -48 -107 -84 -111 -82 -5 3 -11 34 -15 70 -18
173 -104 294 -223 312 -124 18 -217 -70 -215 -203 l0 -62 -36 -6 c-163 -27
-235 -162 -160 -297 34 -59 136 -118 205 -118 20 0 24 -4 18 -17 -62 -143 -91
-290 -80 -407 6 -61 2 -88 -24 -186 -16 -63 -35 -143 -42 -177 -6 -35 -14 -63
-16 -63 -3 0 -22 15 -43 33 -71 61 -197 85 -273 53 -66 -27 -97 -87 -142 -271
-34 -136 -33 -153 12 -206 36 -43 96 -69 161 -69 59 0 83 9 125 48 51 48 34
63 -60 54 -73 -6 -123 10 -123 40 0 11 10 42 22 70 21 48 22 50 55 45 57 -10
122 -47 177 -101 l52 -51 -3 -235 c-2 -129 -8 -257 -14 -283 -13 -69 -11 -128
8 -234 16 -93 16 -95 -5 -139 -44 -90 -169 -194 -234 -194 -20 0 -58 75 -65
129 -7 54 6 58 162 48 39 -3 45 26 13 60 -40 43 -75 55 -148 51 -83 -4 -131
-33 -162 -97 -24 -50 -23 -60 30 -231 61 -201 118 -260 251 -260 76 0 153 38
196 97 16 23 32 42 35 42 3 1 18 -45 34 -102 23 -86 27 -114 21 -168 -11 -105
19 -260 79 -401 6 -13 -2 -18 -44 -27 -131 -28 -210 -113 -210 -226 1 -95 100
-185 203 -185 29 0 30 -1 24 -41 -3 -23 0 -63 8 -91 32 -124 168 -179 280
-114 84 50 133 143 156 296 l11 80 72 -63 c39 -35 99 -84 132 -110 l61 -46 6
-73 c3 -40 4 -74 2 -76 -1 -1 -53 20 -115 48 -62 27 -126 50 -142 50 -32 0
-81 -43 -93 -81 -4 -10 -13 -19 -21 -19 -24 0 -16 -45 13 -72 16 -14 125 -78
244 -142 191 -103 217 -120 232 -152 18 -36 15 -54 -6 -54 -25 0 -153 -68
-214 -114 -93 -68 -88 -75 61 -69 77 4 125 2 129 -4 4 -6 -2 -55 -12 -109 -11
-55 -17 -103 -14 -107 2 -4 31 16 62 46 32 29 80 68 107 85 l49 33 16 -39 c33
-77 145 -152 228 -152 52 0 129 30 190 75 l60 44 68 -25 c37 -14 70 -27 72
-29 1 -2 -11 -21 -28 -42 -162 -202 -90 -552 138 -667 205 -104 449 -65 668
108 90 72 165 155 286 319 79 106 153 184 164 173 3 -3 -4 -18 -16 -35 -39
-54 -81 -155 -117 -282 -76 -266 -123 -321 -382 -453 -175 -89 -262 -146 -262
-171 0 -18 -4 -19 65 5 54 19 193 29 207 15 3 -3 -3 -40 -13 -83 -27 -112 -36
-222 -18 -222 8 0 25 19 38 42 35 62 94 121 226 228 264 214 329 327 351 611
l6 86 57 -1 c38 0 66 5 83 16 l26 17 6 -37 c3 -20 8 -73 11 -117 14 -174 52
-314 113 -414 52 -85 126 -158 280 -274 135 -101 192 -161 212 -223 6 -19 18
-34 26 -34 26 0 13 184 -22 293 -6 19 -3 20 82 14 49 -3 109 -12 133 -21 126
-46 21 57 -164 161 -317 178 -354 222 -439 515 -56 193 -78 251 -116 312 -17
27 -29 50 -27 53 9 9 104 -96 183 -203 232 -314 445 -454 689 -454 138 0 244
39 331 122 99 93 140 207 132 362 -6 101 -24 157 -75 229 -18 26 -33 49 -33
51 0 2 31 17 70 32 l69 27 38 -33 c47 -41 133 -81 188 -88 92 -10 215 63 249
148 l16 40 33 -16 c17 -9 64 -48 103 -85 39 -38 74 -69 77 -69 11 0 8 47 -7
135 -11 61 -12 82 -3 88 7 5 65 6 130 4 91 -4 117 -2 117 8 0 28 -162 133
-262 170 l-47 17 19 39 c22 41 40 53 303 191 162 85 207 119 207 155 0 16 -7
27 -20 30 -10 3 -22 13 -25 24 -9 27 -63 69 -91 69 -13 0 -74 -23 -136 -50
-61 -28 -113 -49 -115 -47 -2 2 0 36 3 75 l7 71 66 50 c36 27 94 75 129 106
35 32 64 56 66 54 2 -2 9 -40 16 -84 16 -105 42 -172 86 -224 74 -86 180 -109
267 -58 63 37 90 95 85 181 l-3 64 47 5 c103 13 173 78 184 173 12 104 -78
209 -201 234 -30 6 -55 13 -55 15 0 2 9 25 21 52 39 92 59 200 59 330 0 99 5
139 26 220 14 54 28 101 30 104 2 3 25 -15 52 -41 102 -99 252 -117 335 -42
70 63 155 399 128 500 -26 93 -123 159 -220 150 -53 -5 -111 -40 -132 -79 -18
-34 3 -44 86 -40 97 3 139 -17 130 -64 -17 -81 -63 -196 -85 -210 -26 -16
-162 89 -215 165 -27 39 -27 41 -17 117 14 104 15 622 1 748 -15 139 -16 136
24 197 62 97 174 186 223 176 23 -4 63 -84 64 -125 0 -27 -5 -33 -36 -43 -21
-7 -56 -10 -88 -6 -41 6 -56 4 -65 -8 -11 -13 -8 -21 21 -50 103 -103 300 -42
315 97 3 28 -4 68 -21 120 -14 43 -26 83 -26 90 0 28 -69 155 -98 179 -98 82
-260 55 -345 -57 l-34 -44 -26 93 c-23 78 -27 115 -30 241 -3 140 -5 156 -35
240 -18 50 -35 98 -38 108 -5 12 -1 17 15 17 32 0 118 36 157 65 70 53 99 168
60 242 -29 57 -110 103 -181 103 l-32 0 5 48 c8 92 -35 179 -105 208 -47 20
-127 17 -172 -5 -41 -21 -92 -74 -115 -119 -19 -36 -43 -132 -51 -205 l-7 -58
-52 49 c-28 26 -87 76 -132 110 l-81 63 -6 72 c-3 39 -4 73 -2 76 3 2 54 -19
115 -47 60 -29 121 -52 136 -52 32 0 134 97 134 128 0 33 -56 72 -276 190
-186 100 -213 118 -228 149 -9 20 -16 37 -14 38 2 2 48 26 103 54 93 47 195
121 195 142 0 5 -49 6 -117 3 -70 -3 -124 -1 -132 4 -12 9 -12 22 2 94 19 91
21 128 9 128 -4 0 -28 -21 -52 -46 -25 -25 -71 -63 -102 -85 l-57 -39 -10 33
c-15 43 -84 111 -141 136 -92 42 -188 22 -296 -59 l-52 -39 -64 26 c-34 15
-65 28 -67 30 -2 1 15 29 36 62 57 84 77 166 71 285 -4 82 -10 104 -40 168
-80 165 -225 249 -428 250 -234 1 -440 -132 -662 -426 -86 -114 -184 -226
-199 -226 -3 0 15 42 40 93 26 50 64 151 85 222 77 264 123 318 372 443 233
117 377 236 209 173 -60 -23 -199 -30 -210 -11 -4 6 2 50 14 98 37 164 28 253
-18 165 -32 -62 -86 -119 -215 -222 -263 -212 -344 -345 -361 -589 -3 -48 -8
-101 -11 -119 l-5 -31 -30 15 c-29 14 -47 14 -112 -2 l-25 -7 -6 109 c-12 171
-39 294 -92 401 -58 119 -128 194 -299 321 -141 106 -185 149 -218 217 -11 24
-27 44 -35 44 -12 0 -14 -15 -8 -87z m246 -198 c166 -125 239 -203 290 -310
50 -105 66 -176 85 -375 9 -91 23 -192 32 -225 20 -78 20 -79 8 -85 -23 -11
-74 126 -109 295 -42 203 -72 295 -93 295 -9 0 -13 -6 -10 -14 21 -55 51 -169
76 -289 32 -153 50 -212 82 -266 14 -24 17 -37 10 -44 -25 -25 -97 121 -145
293 -48 172 -70 233 -107 297 -61 106 -124 156 -370 293 -42 23 -88 52 -103
63 l-27 22 72 -3 c39 -2 87 -1 106 3 30 5 34 9 29 28 -18 62 -35 137 -41 177
l-7 45 43 -48 c23 -27 104 -95 179 -152z m1161 -20 c-29 -122 -29 -123 23
-130 24 -4 69 -5 99 -3 41 2 53 0 46 -9 -6 -6 -84 -48 -174 -93 -250 -124
-300 -184 -380 -460 -51 -173 -118 -312 -143 -296 -8 5 -5 21 12 54 28 55 48
125 71 242 9 47 23 107 31 134 17 59 17 66 4 66 -17 0 -28 -35 -59 -182 -33
-159 -69 -266 -94 -282 -9 -6 -18 -8 -20 -6 -3 3 3 37 13 77 10 39 24 134 30
209 22 276 85 383 346 595 66 53 141 119 165 147 25 28 45 44 47 37 2 -8 -6
-52 -17 -100z m-1558 -412 c183 -54 336 -183 537 -453 34 -47 92 -113 129
-147 36 -35 58 -63 50 -63 -29 0 -165 100 -311 228 -169 148 -283 231 -298
216 -7 -7 13 -26 60 -58 39 -27 109 -83 157 -125 166 -147 249 -213 316 -253
75 -45 84 -55 68 -71 -22 -22 -139 40 -486 257 -292 182 -465 241 -599 202
-104 -31 -172 -116 -186 -236 l-6 -55 -12 53 c-46 203 44 400 221 483 108 50
239 58 360 22z m2090 0 c110 -32 206 -116 255 -221 22 -47 27 -75 30 -157 2
-69 -1 -114 -11 -145 l-15 -45 -1 55 c-3 107 -49 183 -139 227 -47 23 -70 28
-132 28 -142 -1 -288 -65 -575 -250 -172 -111 -383 -225 -417 -225 -25 0 -24
37 2 45 44 14 173 109 305 225 77 67 175 147 218 177 42 30 77 59 77 64 0 31
-80 -20 -220 -140 -274 -235 -380 -314 -397 -297 -4 3 18 29 49 56 30 27 103
112 162 189 281 367 533 496 809 414z m-2279 -299 c60 -15 296 -121 296 -133
0 -4 -30 -14 -66 -24 -65 -17 -67 -17 -131 6 l-65 22 -24 -30 c-13 -16 -30
-47 -36 -69 -16 -50 -35 -57 -65 -20 -47 59 -83 144 -83 200 0 32 5 54 13 57
25 11 101 6 161 -9z m2331 2 c37 -27 6 -140 -68 -243 -26 -36 -32 -40 -48 -30
-11 7 -19 18 -19 25 0 7 -11 35 -25 62 -29 57 -44 61 -115 29 -44 -20 -46 -20
-112 -3 -38 10 -68 22 -68 27 0 14 220 115 285 131 77 19 146 20 170 2z
m-2500 -178 c82 -163 270 -313 456 -364 68 -19 303 -26 424 -12 l60 6 -75 -20
c-98 -25 -412 -37 -527 -19 -253 39 -438 133 -490 248 -22 48 -25 65 -21 130
4 61 10 81 34 116 17 23 45 52 64 65 l35 23 7 -60 c4 -33 19 -84 33 -113z
m2585 148 c55 -37 94 -117 94 -192 0 -126 -56 -199 -208 -275 -136 -67 -251
-91 -462 -96 -138 -4 -205 -2 -284 11 -57 9 -106 18 -108 21 -2 2 58 1 134 -2
152 -6 276 9 377 47 121 45 271 168 346 284 41 62 77 173 68 207 -7 25 1 24
43 -5z m-1279 -66 c23 -13 24 -40 4 -108 -11 -36 -22 -53 -38 -58 -44 -15 -61
-3 -76 56 -23 88 -23 96 1 108 30 14 84 15 109 2z m848 -106 c57 -19 221 -95
221 -102 0 -4 -14 -20 -31 -38 l-31 -32 -80 38 c-80 39 -203 73 -312 85 l-60
7 67 43 67 43 58 -15 c31 -8 77 -21 101 -29z m-1894 24 c30 -14 32 -24 5 -31
-13 -3 -24 1 -30 13 -18 33 -14 36 25 18z m317 -24 c69 -42 66 -48 -30 -58
-88 -8 -172 -31 -270 -73 l-82 -35 -35 27 c-19 14 -35 30 -35 34 0 11 175 88
265 117 97 31 118 30 187 -12z m1692 12 c-7 -17 -39 -22 -48 -7 -4 5 6 14 21
19 33 11 35 10 27 -12z m-2060 -13 c5 -11 1 -22 -10 -30 -28 -20 -34 -15 -23
17 12 34 24 38 33 13z m2115 -9 c14 -32 9 -39 -17 -25 -14 7 -18 17 -15 31 7
27 17 25 32 -6z m-1543 -119 c51 -31 130 -73 176 -95 46 -22 72 -38 58 -36
-208 40 -298 50 -435 50 -114 0 -165 -4 -214 -17 l-63 -18 -41 27 -41 27 45
23 c96 50 258 91 373 93 43 1 61 -6 142 -54z m1288 25 c85 -23 206 -74 206
-87 0 -4 -15 -18 -33 -30 l-32 -22 -95 19 c-122 25 -240 25 -410 0 -74 -11
-155 -23 -180 -26 l-45 -5 50 23 c84 39 167 85 225 123 l55 36 90 -5 c50 -3
125 -15 169 -26z m-707 5 c43 -30 58 -197 24 -271 -15 -32 -27 -45 -56 -54
-54 -18 -83 -6 -105 43 -35 77 -22 194 30 268 24 33 71 39 107 14z m-142 -12
c-35 -81 -47 -132 -42 -188 2 -34 12 -75 21 -93 14 -27 14 -32 2 -32 -23 0
-77 51 -92 87 -18 42 -18 134 0 177 17 41 51 66 89 66 24 0 28 -3 22 -17z
m-1657 -93 c44 -20 152 -99 152 -112 0 -16 -74 -21 -104 -7 -19 8 -65 14 -116
14 -78 0 -92 -3 -155 -35 -39 -19 -73 -36 -77 -38 -14 -6 -9 58 7 87 17 34 68
79 110 97 45 20 133 17 183 -6z m3567 0 c52 -25 67 -37 99 -84 26 -39 34 -80
17 -90 -4 -3 -33 8 -63 24 -68 37 -169 63 -211 55 -18 -3 -49 -13 -69 -22 -26
-11 -50 -13 -83 -9 l-45 7 52 45 c111 93 213 118 303 74z m-3953 -145 c26 -17
50 -36 53 -43 3 -8 -23 -45 -60 -84 -36 -39 -65 -74 -65 -79 0 -19 -42 -7
-126 36 -49 25 -101 55 -116 68 l-28 22 100 0 c130 0 134 3 114 105 -7 41 -14
79 -14 84 0 5 21 -11 48 -35 26 -25 68 -58 94 -74z m729 98 c16 -10 29 -20 29
-23 0 -9 -158 -30 -176 -23 -10 4 5 15 48 33 35 16 65 28 66 29 2 1 17 -7 33
-16z m579 12 c0 -21 -32 -75 -40 -70 -18 11 9 75 31 75 5 0 9 -2 9 -5z m407
-28 c72 -12 134 -25 138 -29 23 -22 -475 -47 -527 -26 -16 7 -16 9 0 49 l17
41 120 -6 c66 -3 179 -16 252 -29z m1113 -7 l20 -40 -27 -7 c-75 -21 -552 2
-528 25 13 13 338 60 422 61 l93 1 20 -40z m57 2 c11 -28 11 -32 -2 -32 -14 0
-35 37 -35 61 0 21 25 2 37 -29z m641 6 c61 -24 69 -42 15 -34 -21 3 -65 8
-98 12 l-60 6 30 24 c17 13 37 21 45 18 8 -3 39 -15 68 -26z m-2278 14 c0 -5
-6 -16 -13 -26 -12 -17 -16 -17 -43 -3 l-29 15 35 10 c46 13 50 14 50 4z
m1733 -12 c5 -4 -5 -12 -22 -18 -27 -9 -32 -8 -41 8 -5 10 -10 21 -10 24 0 7
63 -5 73 -14z m1296 -64 c-10 -61 -10 -79 0 -89 8 -8 46 -12 112 -12 l101 0
-34 -28 c-36 -30 -157 -93 -199 -102 -22 -6 -31 1 -68 49 -23 31 -55 66 -71
78 -17 12 -30 25 -30 29 0 4 35 32 78 62 42 30 86 64 96 76 11 11 21 19 23 17
3 -2 -1 -38 -8 -80z m-3417 -38 c-26 -16 -41 -18 -87 -13 -30 4 -55 11 -55 15
0 5 17 22 37 38 l38 30 49 -25 49 -25 -31 -20z m2568 1 c0 -3 -22 -9 -50 -13
-39 -5 -58 -2 -87 12 l-36 19 54 25 54 25 33 -30 c17 -17 32 -34 32 -38z
m-2730 26 c-21 -23 -30 -25 -70 -20 -91 13 -74 22 84 44 5 0 -1 -10 -14 -24z
m2826 9 c74 -8 73 -19 -1 -29 -46 -6 -52 -4 -75 21 -19 20 -21 26 -7 21 9 -4
47 -9 83 -13z m-3122 -14 c7 -7 3 -10 -10 -10 -43 0 -142 -42 -198 -85 -177
-132 -294 -375 -337 -697 l-11 -88 -35 0 -34 0 6 83 c24 311 98 510 245 658
83 83 142 122 222 144 55 15 134 13 152 -5z m1506 1 c0 -14 -133 -69 -222 -92
-119 -31 -346 -38 -507 -15 -66 10 -133 21 -148 25 -28 7 -28 8 -6 19 16 9 44
8 125 -4 78 -12 145 -15 273 -10 183 6 271 20 394 65 73 27 91 29 91 12z m455
-22 c161 -56 455 -76 649 -44 74 12 93 12 114 1 24 -13 23 -14 -39 -24 -229
-40 -477 -41 -623 -3 -100 26 -216 79 -216 99 0 10 5 12 18 6 9 -4 53 -20 97
-35z m1548 21 c251 -78 421 -360 457 -760 13 -149 4 -260 -21 -260 -9 0 -24
-2 -32 -5 -11 -5 -15 21 -20 147 -11 254 -66 440 -182 613 -90 135 -199 221
-311 246 -57 13 -69 25 -31 32 47 9 77 6 140 -13z m-2916 -34 c4 -3 4 -9 0
-12 -9 -10 -85 -17 -103 -10 -16 6 -16 8 2 22 18 14 87 14 101 0z m2263 -1
c26 -14 23 -17 -28 -28 -23 -5 -82 12 -82 24 0 8 30 16 65 17 11 1 31 -5 45
-13z m-2505 -24 c61 -11 173 -31 250 -46 387 -72 658 -55 871 53 l41 21 22
-23 22 -23 -54 -36 c-102 -68 -235 -114 -392 -137 -104 -14 -426 -12 -709 5
-264 17 -387 11 -477 -20 -85 -30 -235 -130 -330 -220 -26 -25 -50 -45 -52
-45 -7 0 29 93 60 154 42 83 96 157 160 217 64 61 100 83 183 111 69 23 241
19 405 -11z m1655 -45 c82 -25 234 -46 333 -46 122 0 252 16 459 55 215 42
386 65 477 65 196 0 357 -122 471 -355 27 -55 52 -111 56 -125 6 -22 2 -21
-39 17 -70 64 -205 162 -269 194 -132 67 -264 76 -673 50 -127 -8 -291 -12
-415 -9 -178 5 -218 9 -303 31 -103 27 -222 80 -271 120 -28 23 -29 24 -11 50
l17 26 56 -28 c32 -16 82 -36 112 -45z m-319 -11 c14 -2 41 0 61 4 32 8 40 5
76 -28 l41 -36 -13 -46 c-24 -91 -106 -160 -304 -256 -74 -36 -135 -63 -137
-61 -2 1 -14 30 -28 63 -14 33 -41 98 -61 144 -20 46 -35 85 -34 85 34 19 62
25 74 15 15 -12 34 -4 34 15 0 8 13 19 29 26 16 6 55 29 87 50 61 40 68 41
175 25z m303 -105 l89 -34 -33 -14 c-99 -40 -160 -116 -160 -198 0 -85 83
-145 172 -125 36 8 38 8 48 -25 14 -40 68 -90 109 -99 90 -20 181 75 181 188
0 37 -16 113 -46 215 -6 22 -6 22 104 22 l111 0 11 -40 c5 -22 15 -59 21 -82
43 -177 110 -319 175 -377 39 -34 99 -61 135 -61 35 0 93 24 123 51 30 26 35
27 41 12 4 -10 10 -103 14 -208 8 -212 14 -235 75 -255 41 -13 82 0 112 36 20
24 21 24 57 9 45 -18 77 -12 109 22 l23 25 10 -144 10 -143 115 -6 c63 -4 128
-7 144 -8 l29 -1 -39 -26 c-121 -81 -161 -164 -115 -240 27 -44 76 -59 129
-41 40 14 41 14 61 -14 11 -15 34 -30 51 -34 16 -4 30 -9 30 -12 0 -2 -14 -43
-30 -90 -17 -47 -29 -87 -28 -88 4 -4 214 -80 261 -95 20 -6 37 -15 37 -18 0
-4 -28 -22 -63 -41 -173 -94 -247 -173 -247 -264 0 -96 68 -166 183 -188 l59
-12 -111 -111 -111 -111 80 -100 c44 -55 80 -102 80 -105 0 -3 -29 -18 -64
-33 -84 -37 -139 -85 -171 -152 -24 -48 -27 -64 -23 -127 5 -92 34 -154 105
-224 29 -30 87 -72 128 -95 42 -23 75 -43 73 -44 -2 -2 -48 -20 -103 -40 -55
-21 -103 -40 -107 -44 -3 -3 4 -33 17 -66 13 -33 46 -119 73 -192 l48 -132
-118 114 c-132 127 -166 145 -229 126 -66 -20 -98 -93 -73 -167 14 -42 14 -46
-6 -71 -27 -35 -27 -101 1 -137 27 -35 55 -49 109 -56 39 -4 45 -8 48 -31 3
-26 2 -26 -74 -32 -42 -4 -94 -7 -114 -7 l-38 0 -7 -125 -7 -125 -37 6 c-26 4
-48 1 -71 -11 -29 -15 -35 -15 -44 -3 -52 67 -156 60 -186 -12 -29 -71 -10
-134 84 -268 49 -71 50 -74 31 -88 -10 -8 -23 -13 -27 -12 -4 2 -22 28 -40 58
-102 170 -323 127 -354 -69 l-7 -41 -56 0 c-60 0 -124 -24 -153 -56 -52 -59
-61 -147 -23 -218 14 -26 25 -48 25 -49 0 -1 -27 0 -60 1 -33 2 -60 7 -60 10
1 4 7 34 15 67 22 89 19 163 -7 215 -49 97 -149 118 -215 46 -19 -20 -36 -50
-40 -66 -4 -22 -10 -29 -22 -26 -56 17 -72 16 -113 -2 -32 -14 -49 -30 -61
-55 -32 -66 -19 -119 46 -184 27 -28 36 -43 25 -43 -8 0 -47 -10 -87 -23 l-71
-23 -25 38 c-48 73 -166 141 -359 207 -84 29 -118 37 -121 28 -49 -137 -89
-244 -94 -249 -4 -5 -49 3 -101 16 -52 13 -126 27 -165 30 -140 13 -162 17
-137 27 12 5 62 13 110 19 204 24 272 56 287 136 13 69 -45 134 -119 134 -31
0 -36 3 -36 23 0 29 -33 83 -61 97 -60 33 -136 3 -170 -66 -19 -40 -23 -69
-27 -178 -4 -123 -6 -132 -29 -153 -19 -18 -36 -23 -77 -23 l-53 0 -12 58
c-37 164 -112 356 -167 421 -74 88 -198 101 -279 29 -20 -17 -39 -27 -43 -24
-4 4 -9 98 -13 209 -3 130 -10 210 -17 225 -34 62 -125 69 -172 13 -19 -22
-29 -27 -40 -21 -8 6 -32 10 -53 10 -29 0 -46 -7 -67 -28 l-28 -29 -6 116
c-10 184 -9 181 -59 182 -23 1 -89 4 -147 8 l-105 6 52 33 c109 70 154 153
119 221 -23 44 -58 64 -103 59 -21 -3 -45 -8 -54 -12 -10 -4 -19 1 -28 18 -7
13 -29 32 -47 42 -19 10 -34 21 -34 24 0 3 11 41 25 84 14 44 23 81 22 83 -2
2 -68 26 -148 54 -79 27 -145 52 -146 53 -2 2 27 21 64 42 84 49 200 163 233
229 28 59 37 147 20 200 -28 84 -117 146 -215 149 -25 0 -44 4 -42 8 1 3 49
59 107 123 58 64 105 120 105 125 0 4 -42 53 -92 108 -100 108 -101 113 -30
126 51 9 96 52 107 101 12 53 -15 116 -57 134 -28 12 -30 15 -26 55 9 77 -42
136 -117 136 -64 0 -95 -30 -117 -115 -13 -49 -106 -194 -125 -195 -15 0 -14
8 9 78 42 130 75 216 87 229 9 9 151 67 352 143 l24 9 -29 78 c-16 43 -41 110
-55 148 l-26 70 41 -48 c78 -90 178 -122 250 -80 55 33 71 121 31 181 -14 21
-13 25 10 50 53 56 61 105 28 159 -24 41 -56 61 -111 72 -35 7 -18 9 82 10
l127 1 6 88 c4 48 9 110 12 139 6 51 7 52 35 46 15 -3 42 0 60 6 29 10 35 8
66 -19 46 -41 100 -41 144 -2 63 56 48 145 -52 298 -21 33 -39 64 -39 68 0 3
10 10 22 15 20 7 26 2 51 -40 46 -82 131 -122 221 -105 71 13 135 98 136 177
l0 37 63 -5 c52 -4 69 -1 106 19 87 47 118 166 66 256 l-24 42 60 0 c32 0 59
-3 59 -7 0 -5 -5 -26 -10 -48 -12 -53 4 -209 25 -241 69 -106 249 -72 316 58
10 21 19 49 19 64 0 15 9 37 20 49 31 33 40 75 25 118 -8 23 -9 39 -3 43 5 3
10 4 12 3 6 -10 105 -248 117 -281 7 -22 20 -38 29 -38 8 0 84 34 167 75 116
58 167 89 214 133 62 57 98 116 99 160 0 13 3 22 8 20 4 -2 47 -19 96 -38z
m-1840 -117 c-7 -43 -13 -86 -13 -95 -2 -40 -357 -182 -494 -198 -48 -6 -79
-15 -105 -34 -20 -14 -37 -24 -39 -22 -2 1 4 25 12 52 12 41 27 61 82 110 83
73 146 124 155 124 3 0 9 -13 13 -30 8 -36 48 -70 84 -70 14 0 43 5 64 11 50
13 64 43 50 104 l-10 45 66 40 c48 29 77 40 107 40 l40 0 -12 -77z m346 57
c102 -6 192 -13 201 -16 28 -8 59 -78 59 -134 0 -100 -64 -157 -164 -147 -28
3 -60 8 -71 12 -19 6 -20 1 -21 -53 -1 -70 -24 -116 -75 -150 -28 -20 -44 -23
-91 -20 -70 5 -116 38 -149 105 -21 41 -24 62 -23 148 1 91 19 249 31 268 3 4
30 5 61 2 32 -3 140 -10 242 -15z m2650 -27 c0 -96 -38 -312 -66 -373 -34 -77
-88 -126 -146 -135 -117 -18 -209 81 -276 295 -42 133 -47 160 -30 160 8 0 37
16 64 35 27 19 62 37 79 40 32 6 249 21 328 24 l47 1 0 -47z m194 3 l56 -36
-6 -59 c-7 -60 -7 -60 27 -80 37 -23 98 -27 130 -10 11 6 28 29 38 51 l17 41
59 -48 c33 -26 84 -71 113 -99 50 -48 57 -61 76 -148 l6 -27 -82 39 c-46 21
-150 62 -233 90 -170 59 -296 117 -342 158 -32 27 -32 28 -26 101 l6 74 53 -6
c37 -4 69 -16 108 -41z m-2120 12 c24 -34 19 -66 -13 -99 -23 -22 -39 -29 -69
-29 -23 0 -45 6 -52 15 -18 22 -40 18 -40 -5 0 -29 -26 -76 -45 -84 -32 -12
-73 -6 -98 14 -32 25 -44 89 -27 148 l11 42 72 1 c40 1 97 4 127 9 100 13 118
12 134 -12z m1066 6 c23 -5 30 -16 49 -76 44 -135 40 -225 -10 -283 -38 -42
-87 -54 -134 -32 -34 16 -65 68 -65 111 0 30 -7 32 -46 11 -89 -46 -191 28
-165 120 16 58 48 92 124 130 69 35 75 37 146 30 41 -3 86 -9 101 -11z m-2324
-9 c-11 -8 -25 -15 -30 -15 -6 0 -2 7 8 15 11 8 25 15 30 15 6 0 2 -7 -8 -15z
m2724 7 c0 -5 -16 -17 -35 -28 -31 -17 -37 -17 -45 -4 -16 25 -12 29 33 33 23
2 43 4 45 5 1 1 2 -2 2 -6z m735 -13 c16 -16 -19 -9 -40 7 -19 16 -19 16 5 9
14 -4 29 -11 35 -16z m-3515 -13 c0 -2 7 -19 15 -38 l14 -35 -31 -1 c-18 0
-46 -13 -69 -32 l-38 -30 -9 32 c-11 40 -3 52 57 83 45 23 61 29 61 21z m3608
-26 c43 -25 52 -35 52 -58 0 -52 -15 -59 -55 -24 -23 21 -46 32 -65 32 -17 0
-30 2 -30 5 0 10 34 75 39 75 3 0 30 -14 59 -30z m-4092 -82 c-9 -24 -24 -77
-34 -118 l-18 -75 -79 -39 c-44 -21 -101 -47 -127 -57 l-48 -19 0 33 c0 41
-15 57 -54 57 -17 0 -38 5 -46 11 -13 8 -11 13 13 32 33 26 400 226 406 222 2
-2 -4 -23 -13 -47z m4689 -58 c177 -95 235 -132 235 -151 0 -4 -24 -9 -52 -11
l-53 -3 -3 -42 c-2 -24 -6 -43 -10 -43 -4 0 -62 24 -127 54 l-120 54 -16 64
c-8 35 -25 92 -37 126 -11 34 -18 61 -14 58 4 -2 93 -50 197 -106z m-4191 64
c43 -16 2 -54 -59 -54 -42 0 -39 12 9 41 36 22 30 21 50 13z m3574 -20 c31
-21 28 -34 -9 -34 -38 0 -69 16 -69 35 0 20 49 20 78 -1z m-2352 -12 c47 4 52
-9 24 -67 -32 -66 -138 -131 -123 -76 3 10 -2 32 -11 48 -14 29 -14 31 9 53
14 13 27 32 31 42 4 15 9 17 19 8 8 -7 31 -10 51 -8z m2072 -32 c71 -44 159
-82 312 -134 74 -26 179 -67 232 -93 101 -48 108 -55 108 -121 l0 -33 -35 35
c-56 56 -133 68 -206 30 -25 -12 -38 -8 -185 60 -88 40 -191 89 -229 109 l-71
35 10 71 c5 39 11 71 13 71 1 0 25 -13 51 -30z m-3083 -82 l0 -71 -145 -64
c-134 -58 -146 -62 -158 -46 -21 31 -74 83 -83 83 -5 0 -9 4 -9 9 0 4 37 21
83 36 106 36 220 81 266 105 20 10 38 19 41 20 3 0 5 -32 5 -72z m826 32 c31
0 39 -4 47 -27 5 -16 13 -36 17 -45 6 -15 1 -18 -28 -18 -68 0 -117 42 -117
100 0 20 1 20 22 6 12 -9 39 -16 59 -16z m2338 -228 c-63 -2 -137 0 -165 3
l-51 6 18 35 c9 19 22 48 27 63 l10 27 137 -65 137 -66 -113 -3z m-4412 97
c64 -24 123 -105 149 -204 16 -58 41 -353 32 -376 -8 -20 -199 -44 -348 -44
-95 0 -110 3 -163 28 -186 92 -139 331 66 332 53 0 57 2 53 20 -22 91 -14 149
26 200 39 49 120 69 185 44z m5739 -24 c20 -15 42 -43 50 -61 16 -39 18 -121
4 -158 l-10 -26 61 0 c226 0 256 -258 38 -335 -72 -26 -156 -29 -324 -10 -88
10 -161 18 -162 19 -5 4 28 353 38 388 48 182 193 268 305 183z m-5552 19 c9
-3 16 -17 16 -31 0 -22 -2 -24 -16 -13 -38 32 -38 59 0 44z m639 -8 c44 -19
91 -71 119 -131 21 -45 23 -64 23 -205 0 -85 -4 -180 -8 -211 l-8 -56 -142 -6
c-78 -3 -177 -2 -219 3 -162 19 -245 96 -236 222 4 50 9 63 38 93 40 42 96 59
163 52 l47 -6 -6 37 c-12 78 31 177 91 207 38 18 96 19 138 1z m4597 -3 c0
-10 -32 -43 -42 -43 -4 0 -8 11 -8 25 0 20 5 25 25 25 14 0 25 -3 25 -7z
m-4197 -86 c91 -138 111 -221 62 -267 -36 -34 -81 -31 -115 7 -15 17 -30 37
-32 44 -4 11 -11 8 -30 -9 -20 -18 -35 -23 -64 -20 l-39 3 -8 69 c-7 69 -7 70
25 104 24 24 132 105 164 121 1 1 17 -23 37 -52z m-114 39 c-42 -37 -121 -96
-129 -96 -5 0 -10 8 -10 18 0 11 22 27 68 49 68 31 79 36 71 29z m3547 -139
c-35 -45 -63 -113 -71 -169 l-7 -47 -33 50 -34 49 26 57 c16 35 27 77 27 104
l1 47 58 -29 58 -30 -25 -32z m-242 73 l129 0 -7 -46 c-9 -65 -76 -184 -76
-134 0 6 -7 10 -15 10 -8 0 -15 -5 -15 -11 0 -7 -7 -17 -17 -24 -19 -14 -8
-39 13 -31 8 3 14 1 14 -4 0 -6 7 -10 15 -10 8 0 15 6 15 14 0 33 22 24 50
-20 35 -56 38 -96 10 -124 -31 -31 -84 -22 -118 19 -7 9 -15 12 -18 6 -18 -41
-47 -75 -69 -81 -33 -8 -69 10 -84 43 -14 31 -15 30 10 36 22 6 21 34 0 29 -7
-1 -10 2 -7 7 4 5 2 12 -4 16 -5 3 -10 49 -11 103 0 53 -4 123 -8 156 l-7 58
35 -6 c20 -3 94 -6 165 -6z m494 -39 c47 -33 74 -99 70 -171 l-3 -61 51 6
c109 14 193 -41 202 -133 2 -27 -1 -65 -7 -84 -16 -50 -78 -105 -146 -131 -55
-20 -77 -22 -252 -21 -106 0 -195 3 -199 6 -3 4 -8 87 -11 186 -5 163 -4 185
15 248 25 81 65 133 124 163 52 27 112 24 156 -8z m-4438 -40 c0 -12 -9 -21
-25 -25 -38 -10 -102 -73 -116 -113 -7 -21 -9 -61 -6 -96 l5 -60 -74 -85 c-41
-46 -74 -87 -74 -91 0 -4 -15 -13 -34 -19 -70 -25 -126 -115 -126 -200 0 -33
-59 -146 -106 -204 l-22 -28 -11 52 c-7 28 -14 84 -18 123 l-6 72 56 94 c88
150 80 144 198 159 l102 13 -6 111 -6 111 76 65 c94 80 172 140 184 140 5 0 9
-9 9 -19z m4709 -25 c32 -25 89 -75 129 -113 l71 -68 -9 -100 c-4 -55 -7 -101
-6 -102 1 -2 38 -7 82 -13 43 -6 89 -13 101 -15 23 -5 94 -102 148 -202 l28
-52 -18 -120 c-10 -67 -21 -121 -25 -121 -6 0 -27 35 -119 196 -6 10 -16 39
-22 64 -10 41 -56 100 -99 126 -8 5 -28 26 -43 46 -15 21 -52 64 -82 97 -38
41 -55 67 -55 85 0 53 -60 128 -117 147 l-34 11 2 89 c1 49 4 89 6 89 3 0 30
-20 62 -44z m-4803 -325 c13 -16 46 -40 72 -52 26 -12 49 -24 51 -25 3 -3 -28
-43 -89 -117 -4 -4 -30 6 -57 23 -28 18 -69 34 -92 37 -22 3 -41 9 -41 14 0
10 118 149 126 149 3 0 16 -13 30 -29z m4954 -112 l54 -64 -57 -6 c-39 -4 -74
-16 -107 -37 l-49 -31 -21 26 -20 25 50 45 c27 24 55 60 62 79 6 19 17 33 23
31 5 -2 35 -33 65 -68z m-4641 15 c21 -5 18 -8 -30 -30 -30 -14 -86 -50 -126
-80 -40 -30 -77 -54 -82 -54 -6 0 -15 8 -20 18 -7 14 3 32 47 87 l55 71 66 -4
c36 -1 77 -5 90 -8z m-731 -2 c-1 -4 -25 -44 -53 -90 -56 -93 -63 -91 -64 20
l-1 67 33 4 c59 7 89 7 85 -1z m5751 2 c28 -6 31 -10 31 -43 0 -20 -3 -60 -6
-89 l-7 -52 -58 91 c-33 49 -59 92 -59 95 0 6 63 5 99 -2z m-5859 -404 c7 -41
16 -114 19 -163 6 -74 12 -94 37 -130 16 -23 40 -69 53 -102 13 -33 51 -113
84 -178 32 -65 58 -119 56 -121 -2 -1 -21 -13 -42 -25 -20 -13 -42 -31 -47
-42 -6 -10 -15 -19 -20 -19 -6 0 -39 57 -74 128 -132 263 -190 473 -190 687
-1 135 10 189 57 300 l21 50 17 -155 c9 -85 22 -189 29 -230z m992 331 c40
-45 38 -93 -4 -135 -18 -18 -40 -35 -48 -38 -12 -4 -9 -11 13 -37 45 -54 48
-110 7 -151 -71 -71 -194 -4 -308 169 l-42 63 78 60 c107 84 164 110 226 105
40 -4 55 -10 78 -36z m4993 -116 c22 -81 22 -274 0 -380 -23 -114 -95 -324
-148 -435 -36 -74 -115 -217 -133 -238 -1 -2 -14 4 -29 14 -14 9 -48 22 -75
28 l-49 11 56 85 c55 85 143 253 143 275 0 6 19 27 41 45 61 49 83 106 75 194
-4 51 1 117 18 236 13 91 28 201 32 245 l7 80 23 -50 c13 -27 30 -77 39 -110z
m-5508 99 c47 -27 79 -65 116 -139 29 -58 151 -384 146 -389 -13 -10 -353
-137 -390 -145 -77 -18 -131 -13 -190 17 -151 76 -154 259 -6 328 29 13 62 24
74 24 33 0 36 15 9 55 -49 71 -43 176 13 229 61 59 147 66 228 20z m4798 -48
l27 -35 -27 -46 c-15 -25 -29 -44 -31 -42 -2 2 -21 31 -43 64 l-40 62 42 15
c23 8 43 15 44 15 1 1 14 -14 28 -33z m316 2 c46 -26 79 -86 79 -144 0 -21
-12 -66 -25 -99 -14 -33 -25 -61 -25 -61 0 -1 21 -4 48 -8 61 -8 120 -42 150
-86 34 -50 28 -142 -12 -195 -59 -77 -174 -103 -312 -70 -63 15 -343 113 -357
125 -10 8 84 281 129 375 42 89 82 137 136 164 58 28 137 28 189 -1z m-427
-50 c70 -111 69 -105 35 -199 -17 -46 -33 -87 -37 -91 -15 -14 -73 22 -83 52
-13 35 -15 36 -54 10 -66 -43 -135 -8 -135 70 0 34 7 48 42 86 40 44 160 124
186 124 7 0 27 -24 46 -52z m-4961 -178 c-4 -4 -22 -12 -40 -18 l-32 -10 27
44 27 44 13 -26 c8 -15 10 -30 5 -34z m5531 -19 c20 -32 36 -61 36 -64 0 -2
-24 4 -53 15 l-54 20 16 44 c9 24 17 44 18 44 1 0 18 -26 37 -59z m306 -261
l23 -80 -23 -95 c-13 -52 -24 -95 -25 -95 -1 0 -12 35 -25 79 l-22 78 22 97
c12 53 24 96 25 96 1 0 12 -36 25 -80z m-6156 -208 c-14 -48 -27 -93 -30 -101
-3 -9 -16 4 -35 34 l-30 47 16 82 c15 77 39 173 51 206 4 8 17 -29 30 -83 l24
-99 -26 -86z m6519 264 c18 -7 42 -24 54 -37 25 -28 68 -119 78 -166 l6 -32
-31 11 c-44 15 -124 3 -186 -27 -72 -35 -141 -109 -198 -212 -73 -132 -115
-191 -151 -213 -47 -29 -49 -25 -11 24 39 51 58 121 80 286 19 143 45 220 94
284 48 63 110 96 180 96 29 0 67 -6 85 -14z m-6758 -210 c144 -65 261 -292
281 -543 4 -58 3 -85 -3 -78 -6 6 -50 64 -99 130 -106 143 -169 206 -240 241
-69 34 -156 42 -208 20 -22 -9 -40 -15 -42 -13 -6 5 33 142 50 179 45 95 140
118 261 64z m545 8 c32 -11 64 -14 108 -10 34 3 62 3 62 0 0 -12 -84 -239 -91
-248 -4 -5 -28 33 -54 83 -54 108 -88 191 -77 191 4 0 27 -7 52 -16z m395 -28
c46 -19 59 -48 51 -111 -6 -52 -6 -53 24 -59 41 -8 73 -59 66 -105 -7 -48 -40
-78 -100 -92 -28 -6 -56 -16 -63 -21 -8 -7 -26 2 -58 29 l-46 38 67 8 c84 9
116 28 112 64 -2 15 -9 28 -16 31 -7 2 -13 -2 -11 -9 1 -8 1 -19 0 -26 -1 -14
-63 -33 -108 -33 -41 0 -43 22 -8 75 29 42 26 58 -6 29 -31 -28 -51 -73 -47
-105 4 -24 2 -26 -13 -18 -10 5 -29 13 -44 19 l-26 10 20 37 c11 21 34 58 50
83 17 25 31 56 31 70 1 34 22 70 51 86 30 17 33 17 74 0z m-605 -127 c12 -32
10 -43 -13 -105 -14 -38 -28 -78 -32 -89 -5 -15 -13 -2 -36 55 l-29 75 25 93
c14 52 25 97 26 100 1 9 42 -81 59 -129z m5520 98 c8 -12 31 -40 51 -62 48
-54 69 -86 69 -106 0 -10 -25 -55 -55 -101 -52 -77 -61 -86 -131 -122 -69 -35
-80 -38 -135 -33 -151 13 -232 114 -179 223 26 53 85 102 217 180 97 58 135
63 163 21z m464 11 c45 -160 47 -176 36 -240 -7 -34 -19 -76 -27 -92 l-16 -31
-13 52 c-7 28 -24 79 -38 113 -25 62 -25 62 -7 98 10 21 24 56 31 80 15 47 25
53 34 20z m-275 -67 c-17 -39 -35 -71 -39 -71 -3 0 -12 21 -18 48 -6 26 -13
54 -17 63 -4 12 5 17 47 25 29 5 54 9 56 8 2 -1 -11 -34 -29 -73z m-117 57 c9
-7 19 -29 23 -48 l8 -35 -37 43 c-20 24 -36 46 -36 48 0 9 27 3 42 -8z m976
-21 c29 -30 40 -102 22 -147 -11 -26 -57 -70 -73 -70 -2 0 -6 38 -9 84 -3 62
-10 92 -26 120 -12 20 -22 40 -22 43 0 16 86 -8 108 -30z m-6448 -406 c-23
-78 -33 -93 -87 -141 l-48 -42 -8 77 c-10 91 -7 100 30 108 30 6 73 41 73 59
0 6 -19 29 -42 50 -46 42 -48 52 -22 115 l15 35 53 -102 53 -103 -17 -56z
m5799 165 c1 -11 -17 -34 -39 -53 -48 -41 -51 -68 -11 -91 19 -11 29 -24 28
-37 -2 -15 5 -21 26 -23 27 -3 27 -4 27 -74 l0 -70 -27 17 c-49 31 -84 69
-107 115 -43 85 -42 101 17 211 l52 98 17 -37 c9 -20 17 -46 17 -56z m559 48
c-2 -15 -10 -31 -19 -37 -23 -15 -85 0 -116 29 l-28 24 50 -6 c28 -3 61 -1 75
5 38 15 42 13 38 -15z m-7033 -1 c-26 -62 -34 -94 -35 -140 0 -29 -4 -53 -8
-53 -15 0 -71 65 -77 90 -8 34 27 87 68 105 45 20 61 19 52 -2z m992 -88 c51
-26 314 -269 313 -290 0 -19 -179 -212 -236 -255 -106 -80 -192 -100 -264 -61
-106 56 -107 211 -1 289 l31 22 -42 38 c-69 63 -86 133 -47 202 45 80 149 103
246 55z m5706 -62 c4 -38 7 -142 7 -231 l0 -164 -52 56 -53 55 1 115 2 115 38
60 c22 33 42 60 45 60 3 1 9 -29 12 -66z m-6133 35 c43 -30 46 -42 15 -56 -46
-21 -62 -15 -68 25 -10 59 2 66 53 31z m5945 -7 c13 -27 13 -31 -4 -52 -18
-22 -18 -22 -49 -3 -18 10 -32 21 -32 25 0 7 58 59 66 59 2 0 10 -13 19 -29z
m-6390 -47 l60 6 -25 -20 c-58 -46 -144 -48 -161 -3 -15 39 -11 43 28 26 27
-11 55 -14 98 -9z m6113 -21 c78 -57 94 -144 42 -226 -16 -26 -33 -47 -37 -47
-5 0 -17 -7 -27 -15 -19 -15 -19 -16 6 -42 47 -51 68 -95 68 -147 0 -97 -81
-164 -185 -153 -29 3 -67 13 -84 21 -42 22 -121 103 -221 226 l-84 103 121
118 c149 144 234 193 321 186 32 -2 64 -12 80 -24z m177 -169 l57 -51 -38 -7
c-49 -9 -116 -48 -143 -82 -11 -14 -25 -23 -31 -19 -15 9 -12 32 5 39 8 3 29
27 45 53 37 58 41 128 10 187 -10 22 -17 43 -13 49 3 5 16 -19 29 -54 18 -51
34 -74 79 -115z m-6023 104 c29 -37 37 -59 43 -112 l7 -66 -58 -55 c-32 -30
-60 -55 -62 -55 -6 0 7 316 14 333 7 20 8 20 56 -45z m6188 -74 c0 -86 -2 -95
-17 -92 -15 3 -19 18 -24 83 -6 80 0 105 27 105 11 0 14 -21 14 -96z m-5819
-20 l29 -30 -20 -19 c-11 -10 -30 -34 -41 -52 -17 -27 -24 -31 -35 -22 -7 6
-39 21 -69 34 l-56 23 46 43 c26 24 56 62 67 83 l20 40 15 -35 c8 -19 27 -48
44 -65z m-265 -69 c-10 -27 -31 -11 -34 26 l-3 34 22 -22 c13 -13 19 -28 15
-38z m6091 -47 c65 -30 112 -115 128 -229 5 -42 -11 -224 -22 -242 -2 -4 -23
20 -45 55 -35 54 -40 70 -43 127 -4 117 -62 191 -149 191 -45 0 -97 -29 -116
-64 -13 -26 -13 -25 -31 27 -22 63 -13 82 57 123 79 46 141 50 221 12z m-5960
-3 c57 -24 73 -43 73 -87 0 -53 24 -107 62 -139 l32 -26 -18 -28 -18 -28 -33
69 c-44 95 -80 126 -147 131 -100 8 -157 -60 -158 -185 0 -57 -4 -68 -42 -124
l-43 -63 -13 70 c-16 85 -10 226 12 277 23 53 74 108 121 129 49 23 123 24
172 4z m5866 -125 c7 0 -11 -14 -40 -30 -56 -32 -81 -62 -118 -141 -19 -42
-26 -49 -31 -35 -4 10 -2 21 4 25 6 4 16 29 22 57 6 28 22 62 37 78 29 32 81
58 101 51 8 -3 19 -5 25 -5z m-5896 -11 c44 -16 81 -58 103 -116 28 -74 25
-87 -6 -26 -30 61 -93 121 -134 130 -16 3 -27 9 -24 14 7 12 27 11 61 -2z
m-119 -180 c-7 -5 -16 -9 -20 -9 -15 0 -8 91 9 128 l18 37 3 -74 c2 -53 -1
-77 -10 -82z m6042 126 c0 -14 -4 -25 -9 -25 -6 0 -7 -24 -4 -55 5 -52 5 -55
-17 -55 -29 0 -79 -30 -85 -52 -7 -22 10 -50 46 -74 33 -22 36 -43 11 -97
l-17 -38 -52 96 c-29 53 -53 102 -53 109 0 26 31 101 57 138 47 69 123 102
123 53z m-5929 -8 c43 -29 75 -77 94 -140 l14 -49 -54 -101 -54 -102 -14 35
c-30 73 -30 75 8 104 19 15 40 36 46 48 10 19 6 26 -32 60 -23 21 -50 38 -60
38 -22 0 -29 20 -29 81 0 45 2 49 24 49 12 0 38 -10 57 -23z m5985 -54 l6 -48
-21 25 c-21 26 -26 55 -15 85 6 15 8 15 16 2 4 -9 11 -37 14 -64z m-5343 46
c47 -13 106 -63 123 -106 20 -47 17 -131 -7 -182 -40 -89 -133 -178 -262 -251
-57 -32 -60 -32 -112 -21 l-54 12 -35 107 -36 106 39 59 38 58 12 -29 c18 -43
80 -99 123 -110 145 -39 261 130 157 227 -28 26 -100 29 -119 6 -18 -22 -8
-27 25 -15 21 8 36 8 57 -1 36 -15 48 -37 48 -87 0 -33 -6 -45 -35 -70 -81
-72 -183 -40 -229 70 l-16 37 66 88 c37 48 74 94 82 101 19 15 84 16 135 1z
m-265 -121 c-106 -134 -147 -198 -218 -340 -31 -64 -76 -138 -98 -163 -47 -53
-66 -118 -52 -178 6 -27 3 -65 -10 -130 -20 -96 -50 -339 -50 -404 l-1 -38
-14 25 c-8 14 -27 61 -42 105 -23 71 -26 95 -27 215 0 118 4 150 31 260 17 69
46 163 63 210 43 119 140 310 208 410 l57 84 70 1 c49 1 83 7 115 22 25 12 46
22 48 22 1 1 -35 -45 -80 -101z m4954 40 c29 -28 76 -61 105 -74 28 -13 57
-32 63 -44 13 -24 14 -24 -40 -5 -59 21 -155 19 -205 -4 -48 -21 -89 -66 -105
-115 -26 -81 39 -175 128 -184 44 -4 52 -1 84 27 44 39 62 80 54 125 -8 39
-41 86 -62 86 -20 0 -18 -8 11 -42 57 -67 8 -170 -80 -170 -99 0 -146 122 -78
202 39 47 79 64 153 63 72 0 183 -41 200 -73 6 -12 -2 -59 -26 -151 -20 -74
-39 -140 -44 -148 -4 -7 -39 -26 -79 -41 l-72 -28 -80 40 c-298 149 -327 451
-53 563 32 14 62 25 66 25 4 0 30 -23 60 -52z m683 -105 c161 -272 297 -382
456 -371 32 2 59 2 59 0 0 -2 -7 -27 -15 -55 -22 -74 -55 -128 -95 -155 -31
-21 -44 -23 -102 -19 -81 5 -138 36 -197 104 -50 59 -104 167 -126 250 -29
115 -57 343 -41 343 2 0 29 -44 61 -97z m-6105 37 c-37 -37 -61 -111 -81 -250
-24 -170 -42 -240 -75 -296 -56 -95 -161 -146 -253 -124 -79 19 -130 80 -165
199 -21 72 -21 72 19 55 45 -18 98 -18 165 2 76 22 158 108 233 241 65 115 97
157 141 184 37 23 45 18 16 -11z m5900 -215 c82 -168 119 -272 155 -431 24
-107 27 -133 22 -259 -5 -138 -21 -216 -62 -295 -12 -23 -13 -20 -20 45 -11
119 -44 358 -55 395 -5 19 -10 60 -10 90 0 53 -26 130 -48 144 -6 3 -23 39
-38 79 -41 110 -97 216 -169 322 -64 94 -64 95 -37 95 31 0 106 32 117 50 11
18 64 -68 145 -235z m627 201 c7 -6 15 -26 19 -44 l7 -32 -38 16 c-25 10 -59
14 -97 12 -32 -2 -58 0 -58 3 0 13 41 42 77 54 39 14 69 11 90 -9z m-514 -16
c13 -62 -12 -77 -58 -34 l-29 27 23 18 c35 28 57 24 64 -11z m-5919 7 c17 -13
16 -15 -14 -40 -17 -15 -36 -27 -41 -27 -12 0 -23 46 -15 65 7 19 46 20 70 2z
m6503 -15 c37 -30 63 -84 63 -133 0 -57 -16 -146 -32 -176 -14 -27 -68 -47
-107 -38 l-28 6 33 76 c40 94 59 197 46 247 -12 40 -7 44 25 18z m-6558 -140
c17 -46 31 -89 31 -95 0 -12 -57 -158 -65 -165 -2 -2 -16 36 -31 84 -29 98
-29 177 3 256 14 35 18 39 24 22 4 -10 21 -57 38 -102z m6019 -113 c8 -32 5
-52 -24 -129 -3 -9 -19 17 -38 65 l-34 79 25 66 c13 36 26 72 30 80 3 8 12
-17 18 -56 7 -39 17 -86 23 -105z m-6465 147 c18 -7 40 -22 49 -32 16 -18 14
-19 -68 -19 -79 0 -83 1 -78 20 7 23 32 45 51 45 8 0 28 -6 46 -14z m-125 -33
c-12 -46 -3 -124 22 -180 l19 -43 -23 0 c-30 0 -87 39 -103 70 -30 58 -8 132
49 169 45 28 48 27 36 -16z m6302 -168 c20 -44 40 -90 44 -102 7 -22 7 -22
-28 -8 -20 9 -66 15 -107 15 -54 0 -70 3 -66 13 5 14 38 130 57 206 l12 44 25
-44 c14 -24 42 -80 63 -124z m-5407 33 l26 -78 -32 0 c-18 0 -50 -5 -72 -10
-22 -5 -42 -7 -44 -4 -3 2 15 45 39 94 24 50 47 87 51 82 3 -4 18 -42 32 -84z
m-394 -110 l23 -73 -25 -95 c-14 -52 -28 -88 -31 -80 -3 8 -15 46 -25 84 -17
61 -18 73 -5 108 7 21 16 61 20 88 4 27 10 48 13 45 4 -2 17 -37 30 -77z
m6154 -163 c-13 -49 -25 -90 -27 -92 -1 -1 -14 42 -27 96 -26 102 -26 101 7
191 3 10 16 -6 38 -45 l32 -60 -23 -90z m-5488 94 c103 -34 189 -67 191 -73 7
-19 -84 -293 -127 -382 -62 -131 -156 -196 -258 -179 -122 20 -176 145 -117
271 l23 51 -56 11 c-31 7 -72 23 -92 37 -41 27 -79 96 -79 141 1 45 34 108 74
140 91 73 182 70 441 -17z m5110 20 c52 -13 116 -65 139 -113 21 -44 21 -118
0 -162 -19 -40 -84 -82 -139 -91 -28 -4 -35 -10 -31 -22 3 -9 15 -43 26 -76
78 -217 -164 -342 -323 -166 -20 22 -45 57 -55 78 -23 44 -154 394 -150 398 2
1 84 34 183 73 238 94 269 101 350 81z m-4859 -335 c8 -19 16 -34 19 -34 2 0
19 9 38 20 42 25 78 19 107 -17 47 -60 16 -125 -95 -198 -92 -60 -126 -73
-142 -53 -6 7 -25 42 -44 77 l-33 65 28 80 c50 142 41 129 77 111 17 -9 37
-31 45 -51z m-681 -86 c103 -189 113 -205 138 -225 12 -10 38 -38 57 -63 19
-25 60 -74 91 -110 35 -40 59 -78 63 -99 9 -49 52 -100 102 -123 l44 -19 0
-94 c0 -52 -2 -95 -4 -95 -8 0 -161 124 -212 172 l-51 48 5 109 4 109 -63 6
c-141 15 -136 13 -177 74 -84 124 -112 179 -112 216 0 34 30 236 35 236 2 0
38 -64 80 -142z m5729 18 c9 -58 16 -113 16 -124 0 -18 -118 -225 -143 -249
-7 -7 -55 -17 -107 -24 -52 -6 -98 -14 -101 -18 -3 -3 -3 -53 0 -109 l6 -104
-55 -52 c-62 -58 -194 -166 -204 -166 -3 0 -6 10 -6 23 0 17 9 26 34 35 77 28
128 125 110 212 l-10 48 77 93 c46 55 93 101 116 112 21 11 46 27 57 36 30 27
57 91 60 142 2 40 14 69 62 149 32 55 61 100 65 100 4 0 14 -47 23 -104z
m-5709 74 c22 -11 47 -20 57 -20 10 0 18 -1 18 -2 0 -2 -8 -29 -18 -60 l-18
-58 -42 74 c-39 68 -47 86 -39 86 1 0 20 -9 42 -20z m4835 3 c29 -19 300 -284
300 -292 0 -4 -21 -17 -47 -31 -26 -14 -81 -49 -122 -78 -40 -29 -81 -52 -89
-50 -9 2 -19 18 -23 37 -9 41 -22 51 -76 51 -94 0 -139 98 -74 159 29 27 29
27 10 52 -39 51 -30 130 18 158 27 16 76 13 103 -6z m760 -57 c0 -3 -10 -22
-22 -42 l-22 -38 -12 30 c-11 26 -10 30 9 41 22 12 47 17 47 9z m-5071 -181
c17 -30 31 -59 31 -64 0 -5 -17 -13 -37 -18 -34 -8 -40 -6 -61 18 l-22 27 27
46 c16 25 29 46 30 46 0 0 15 -25 32 -55z m-549 -218 c0 -1 -29 0 -65 1 l-65
4 0 66 c0 123 5 124 71 22 33 -50 59 -92 59 -93z m5769 56 l1 -53 -64 0 -64 0
56 91 57 91 7 -38 c4 -22 7 -63 7 -91z m-5335 23 c-27 -23 -56 -60 -68 -87
l-21 -48 -60 70 c-73 86 -76 93 -36 84 37 -8 125 16 161 44 25 20 25 20 48 -2
l23 -21 -47 -40z m550 33 c3 -3 9 -84 12 -180 7 -194 -4 -270 -51 -341 -79
-120 -231 -124 -294 -9 -18 33 -25 61 -25 108 l-1 62 -60 -1 c-112 -4 -185 57
-185 154 0 66 19 107 69 150 68 58 117 67 338 65 105 -1 194 -5 197 -8z m4170
-1 c-4 -7 -24 -35 -45 -63 -38 -50 -38 -50 -89 -46 -29 1 -48 7 -43 12 9 9
174 109 180 109 2 0 1 -6 -3 -12z m126 -44 c19 -10 52 -20 73 -23 l39 -6 -63
-75 c-34 -41 -64 -77 -65 -79 -2 -2 -19 11 -37 30 -18 19 -52 43 -75 53 -23
11 -42 23 -42 28 0 4 21 35 47 68 46 60 47 60 67 41 12 -10 37 -27 56 -37z
m-5215 -104 c50 -6 104 -13 120 -15 l30 -5 -8 -133 c-15 -253 -51 -370 -135
-433 -101 -78 -229 -38 -262 82 -12 41 -11 63 6 128 6 26 6 26 -52 26 -103 0
-173 57 -181 147 -9 88 51 168 149 198 52 17 211 19 333 5z m5084 -25 c70 -39
104 -89 109 -163 3 -47 0 -63 -20 -91 -43 -63 -70 -76 -158 -76 l-78 0 5 -45
c15 -130 -88 -241 -197 -210 -141 41 -194 181 -171 461 6 78 14 146 17 151 4
5 97 8 223 6 l216 -3 54 -30z m762 20 c121 -43 179 -153 132 -252 -25 -54 -80
-85 -161 -91 l-68 -4 13 -52 c15 -56 6 -117 -23 -161 -17 -26 -89 -65 -120
-65 -113 0 -208 109 -233 268 -12 77 -32 334 -26 340 10 10 212 30 321 31 86
1 134 -3 165 -14z m-4561 -55 c22 -22 27 -62 8 -57 -6 1 -14 -6 -16 -15 -2
-12 3 -18 15 -19 11 0 13 -3 5 -6 -10 -4 -10 -7 2 -17 12 -9 15 -43 18 -161
l3 -150 -164 3 -163 3 5 36 c3 19 20 65 37 101 24 50 33 63 40 52 14 -22 50
-21 50 1 0 11 5 19 10 19 6 0 10 5 10 10 0 6 -7 10 -15 10 -8 0 -15 5 -15 10
0 6 -11 10 -25 10 -16 0 -25 -6 -25 -15 0 -8 -4 -15 -9 -15 -12 0 -61 59 -61
73 0 8 3 9 8 2 13 -19 50 -15 55 6 6 22 -34 52 -41 30 -6 -18 -22 -13 -22 8 0
11 12 29 27 41 32 25 68 20 95 -11 18 -22 38 -18 38 7 0 8 11 26 25 39 30 31
77 33 105 5z m-273 -202 c14 -16 14 -23 -10 -78 -15 -33 -29 -82 -33 -109 l-6
-50 -53 26 -53 26 33 43 c33 43 58 106 71 177 l6 38 15 -28 c8 -15 21 -36 30
-45z m3334 42 c10 -6 26 -24 34 -41 l16 -30 30 26 c30 24 72 32 96 17 6 -4 14
-39 18 -77 l7 -70 -43 -42 c-24 -23 -67 -60 -96 -83 l-51 -40 -61 90 c-87 130
-100 191 -51 240 22 22 70 26 101 10z m-3809 -190 c10 -251 60 -418 178 -598
88 -133 177 -205 310 -248 l65 -22 -38 -7 c-192 -37 -416 148 -518 426 -49
136 -70 264 -71 440 0 86 3 162 7 169 4 6 19 10 33 8 l27 -3 7 -165z m4508
-54 c0 -167 -41 -341 -117 -496 -39 -79 -62 -110 -133 -180 -102 -103 -171
-141 -271 -148 -37 -2 -74 0 -84 5 -14 8 -8 12 31 22 253 64 450 367 495 764
l13 107 33 0 33 0 0 -74z m-4394 -17 c38 -14 105 -14 146 1 31 11 44 7 240
-83 113 -53 216 -102 228 -109 22 -13 22 -36 4 -131 l-6 -27 -27 19 c-53 38
-168 90 -331 149 -185 68 -271 104 -312 133 -24 18 -28 27 -28 71 l0 50 29
-31 c16 -17 42 -36 57 -42z m3871 -27 c-101 -46 -104 -45 -37 17 l65 59 12
-26 c11 -26 10 -28 -40 -50z m-2932 39 c77 -34 138 -138 190 -321 15 -52 30
-100 32 -107 5 -12 -53 -41 -157 -78 -47 -17 -97 -25 -185 -30 -66 -3 -135 -8
-154 -11 l-33 -5 7 103 c14 219 44 335 104 401 61 67 121 82 196 48z m2579
-31 c20 -12 48 -42 63 -68 22 -38 28 -61 31 -135 4 -84 -11 -248 -28 -292 -8
-22 -40 -22 -339 -1 l-164 11 -30 37 c-60 74 -44 184 33 236 31 22 43 24 113
19 l77 -5 0 46 c1 79 44 148 110 175 28 12 98 0 134 -23z m-2840 -63 c-13 -29
-24 -57 -24 -64 0 -27 -24 -20 -161 47 l-144 69 177 0 176 -1 -24 -51z m3277
16 c8 -14 31 -39 51 -53 l38 -27 -118 -43 c-64 -23 -150 -58 -191 -76 -41 -19
-78 -34 -82 -34 -5 0 -9 31 -9 69 l0 68 88 40 c209 97 202 95 223 56z m-4277
-56 l118 -52 23 -92 c13 -50 29 -101 35 -113 6 -11 10 -25 8 -30 -2 -5 -84 34
-183 86 -247 131 -288 164 -202 164 52 0 67 13 67 57 0 18 3 33 8 33 4 0 60
-24 126 -53z m4986 14 c0 -44 10 -51 72 -51 80 0 38 -32 -220 -169 -95 -50
-175 -91 -177 -91 -2 0 3 16 11 37 9 20 25 75 37 122 l22 85 115 52 c63 29
121 53 128 53 7 1 12 -13 12 -38z m-5150 4 c0 -20 -5 -25 -25 -25 -25 0 -25 1
-9 25 9 14 20 25 25 25 5 0 9 -11 9 -25z m501 -14 c46 -22 151 -63 233 -91
157 -54 213 -79 310 -138 l58 -36 -6 -51 c-3 -27 -6 -62 -6 -77 0 -26 -3 -28
-43 -28 -33 0 -59 10 -108 39 l-64 39 3 56 c3 48 0 59 -22 81 -21 21 -35 25
-79 25 -64 0 -92 -18 -104 -69 l-9 -34 -74 61 c-122 98 -156 139 -169 200 -12
59 -13 62 -7 62 2 0 41 -18 87 -39z m4719 -3 c0 -4 -12 -8 -26 -8 -20 0 -25 4
-20 16 3 9 6 20 6 26 0 6 9 3 20 -7 11 -10 20 -22 20 -27z m-3169 3 c23 -24
29 -38 29 -74 l0 -45 38 9 c42 9 105 -14 110 -42 4 -22 -83 -116 -130 -140
-21 -11 -71 -24 -111 -29 -118 -15 -107 -25 -107 98 0 138 18 205 63 232 44
28 74 25 108 -9z m2699 -50 c-8 -31 -28 -55 -84 -106 -104 -93 -155 -130 -160
-113 -18 66 -23 73 -57 85 -43 14 -101 3 -131 -24 -17 -15 -19 -26 -15 -75 l5
-58 -56 -34 c-55 -33 -152 -58 -152 -39 0 5 5 36 10 69 6 32 13 74 16 92 5 31
12 37 87 72 119 55 363 137 424 143 36 3 63 12 85 29 38 30 45 21 28 -41z
m-1402 -6 c45 -38 56 -74 49 -168 -3 -45 -11 -98 -16 -118 l-11 -35 -146 -13
-145 -13 -37 26 c-67 46 -89 114 -58 175 25 48 95 65 146 36 34 -19 40 -18 40
5 0 33 29 93 53 112 33 26 90 23 125 -7z m-2723 -230 c102 -75 206 -129 284
-146 61 -13 327 -8 679 12 363 21 552 -4 737 -95 112 -55 130 -73 114 -110 -7
-15 -15 -25 -18 -23 -143 79 -257 108 -448 114 -176 6 -272 -3 -525 -52 -278
-54 -423 -70 -514 -57 -192 27 -346 170 -453 422 -17 40 -31 75 -31 78 0 3 19
-12 43 -35 23 -23 82 -71 132 -108z m4067 56 c-71 -168 -193 -316 -308 -372
-131 -65 -252 -62 -631 11 -271 53 -367 63 -546 58 -173 -6 -280 -28 -392 -83
l-68 -33 -19 22 c-17 21 -17 22 14 48 53 46 164 98 262 123 187 48 364 55 721
30 266 -19 494 -19 560 -1 108 28 218 94 361 215 38 32 70 57 72 56 2 -2 -10
-35 -26 -74z m-3853 4 c18 -17 6 -35 -23 -35 -31 0 -72 33 -62 49 9 15 64 5
85 -14z m1391 -7 c-7 -14 -26 -33 -43 -43 -32 -18 -32 -18 8 26 22 25 41 44
43 43 1 -1 -2 -13 -8 -26z m2200 25 c0 -4 -10 -17 -22 -30 -31 -34 -101 -30
-80 4 14 23 102 45 102 26z m-1928 -49 c56 -20 135 -52 173 -72 68 -36 165
-117 165 -139 0 -6 -24 -26 -52 -43 -29 -18 -62 -41 -74 -51 -19 -17 -27 -18
-100 -8 -49 6 -88 7 -104 1 -20 -7 -36 -1 -98 40 -41 26 -80 48 -88 48 -7 0
-16 5 -19 10 -7 12 76 250 87 250 3 0 53 -16 110 -36z m1977 -25 c1 -21 -8
-31 -48 -52 -61 -34 -67 -34 -86 3 -20 39 -20 40 15 40 21 0 42 11 68 34 40
37 50 33 51 -25z m-3702 2 c12 -6 31 -11 42 -11 24 0 26 -9 9 -45 -15 -32 -34
-32 -90 4 -38 24 -46 34 -41 53 11 51 12 52 36 31 12 -11 32 -26 44 -32z m883
-80 c0 -19 -36 -32 -89 -30 -22 1 -18 4 24 24 62 29 65 30 65 6z m-780 -21
c28 -22 24 -25 -14 -10 -14 5 -26 14 -26 20 0 15 12 12 40 -10z m3454 11 c3
-5 -9 -14 -27 -20 l-32 -11 25 20 c29 23 27 22 34 11z m494 -116 c42 -20 99
-50 127 -68 l50 -32 -103 -6 c-56 -3 -107 -10 -113 -16 -9 -9 -8 -33 3 -92
l14 -81 -40 35 c-23 19 -65 50 -93 67 -29 18 -55 41 -59 51 -4 12 14 38 60 88
36 39 66 75 66 80 0 13 5 12 88 -26z m-4375 2 c8 -13 38 -49 67 -80 28 -31 49
-61 45 -67 -3 -5 -27 -24 -53 -42 -26 -17 -69 -50 -96 -72 -36 -30 -47 -35
-43 -21 13 44 26 136 21 149 -7 18 -49 26 -143 26 l-76 1 30 24 c40 33 184
104 211 105 12 0 28 -10 37 -23z m1591 -77 c121 -14 207 -36 294 -76 47 -22
72 -38 72 -49 0 -10 -5 -15 -12 -12 -168 74 -238 88 -483 93 -145 4 -221 2
-277 -8 -60 -11 -82 -12 -99 -2 -21 11 -21 12 -3 17 26 8 228 36 289 40 104 7
132 7 219 -3z m1534 -23 c40 -8 75 -17 78 -20 15 -15 -56 -19 -136 -7 -112 16
-437 8 -530 -14 -56 -13 -149 -44 -212 -71 -13 -5 -18 -3 -18 8 0 28 166 95
300 121 50 9 446 -3 518 -17z m-972 -44 c44 -66 39 -172 -12 -259 -30 -51 -64
-65 -103 -43 -39 22 -52 60 -54 157 -1 65 3 95 16 119 38 71 114 84 153 26z
m71 12 c102 -71 89 -287 -19 -310 -46 -11 -52 6 -24 60 31 57 36 162 11 222
-8 19 -15 37 -15 39 0 9 27 3 47 -11z m-1187 -10 l25 -13 -28 -11 c-35 -14
-40 -14 -72 1 -31 14 -32 25 -2 31 40 8 52 7 77 -8z m2285 5 c19 -1 19 -2 -4
-20 -27 -23 -39 -24 -78 -9 l-28 11 25 14 c14 7 34 12 45 9 11 -3 29 -5 40 -5z
m-1643 -25 c104 -18 161 -38 78 -27 -106 14 -350 7 -419 -12 -244 -66 -471
-289 -488 -477 l-6 -58 -26 13 c-111 58 -144 238 -66 358 52 79 213 160 387
197 120 25 413 28 540 6z m1498 -15 c182 -48 321 -136 363 -229 45 -101 11
-246 -70 -304 l-38 -27 -7 47 c-16 111 -68 201 -171 300 -171 164 -333 220
-607 210 -80 -3 -154 -8 -165 -11 l-20 -7 20 11 c53 27 183 39 395 36 185 -3
227 -6 300 -26z m960 -6 c0 -87 -131 -183 -234 -172 -24 3 -64 15 -89 27 -52
25 -140 99 -132 111 11 18 74 21 99 4 14 -8 52 -18 84 -21 67 -6 163 20 223
61 39 27 49 25 49 -10z m-3915 -10 c100 -48 192 -57 257 -25 37 18 49 19 83
10 l40 -11 -45 -40 c-57 -51 -154 -98 -201 -98 -104 0 -219 91 -219 174 0 14
2 26 4 26 2 0 38 -16 81 -36z m703 18 l23 -18 -50 -23 -50 -24 -35 29 c-19 16
-35 32 -35 36 -1 7 39 14 94 16 17 1 40 -6 53 -16z m2546 9 l29 -6 -37 -32
c-20 -18 -41 -33 -46 -33 -5 0 -30 10 -54 22 l-45 22 27 17 c28 18 74 22 126
10z m-2715 -35 l23 -24 -39 9 c-21 5 -55 9 -75 9 -20 0 -39 4 -43 9 -5 9 18
13 91 19 11 1 31 -9 43 -22z m2874 14 c55 0 25 -17 -40 -23 -38 -3 -77 -9 -88
-13 -18 -6 -17 -4 5 20 21 23 31 27 60 22 19 -3 47 -6 63 -6z m-1785 -40 c39
-7 72 -15 72 -19 0 -11 -290 -53 -402 -58 l-106 -6 -21 42 c-23 44 -22 45 29
55 45 8 354 -2 428 -14z m1048 7 c4 -3 0 -24 -8 -44 l-14 -38 -105 1 c-101 1
-386 39 -402 54 -5 4 31 13 80 19 48 7 95 14 103 16 26 7 339 0 346 -8z m48
-51 c-3 -14 -12 -26 -20 -26 -17 0 -18 11 -2 45 14 32 32 18 22 -19z m-2140
14 c19 -6 18 -8 -7 -25 -26 -17 -29 -17 -90 5 -34 13 -66 27 -72 32 -11 11
137 0 169 -12z m554 -5 c15 -32 15 -45 2 -45 -8 0 -40 51 -40 65 0 16 28 1 38
-20z m2277 17 c-13 -12 -115 -52 -130 -52 -6 0 -20 9 -29 19 -17 19 -16 20 36
29 68 12 135 14 123 4z m-2332 -24 c4 -12 5 -23 4 -25 -2 -1 -21 3 -43 9 l-39
11 30 13 c40 18 42 17 48 -8z m1726 8 c23 -13 23 -13 -18 -23 -41 -11 -46 -8
-35 21 7 19 21 20 53 2z m-494 -47 c174 -29 370 -31 477 -5 l78 19 42 -28 42
-28 -37 -18 c-76 -39 -219 -80 -320 -91 l-104 -12 -99 59 c-54 32 -131 73
-172 91 -40 17 -75 34 -78 37 -5 5 -5 5 171 -24z m-697 -13 c-43 -18 -119 -59
-170 -91 l-93 -57 -83 7 c-46 3 -116 15 -157 25 -79 20 -225 78 -225 88 0 4
17 18 37 31 l37 24 75 -19 c101 -25 331 -23 481 4 58 11 121 20 140 21 31 1
26 -3 -42 -33z m122 -3 c0 -11 -28 -35 -76 -63 -41 -24 -125 -88 -187 -142
-157 -138 -254 -216 -309 -250 -27 -17 -48 -34 -48 -38 0 -44 114 35 322 222
106 96 203 170 261 199 49 26 47 15 -9 -34 -25 -22 -94 -104 -152 -181 -156
-208 -270 -314 -418 -389 -165 -83 -383 -76 -522 18 -125 85 -192 254 -164
416 16 95 27 110 28 41 1 -105 60 -198 152 -239 56 -25 172 -22 257 6 95 32
219 95 377 193 279 172 315 193 388 225 86 38 100 40 100 16z m448 -12 c82
-34 159 -78 350 -200 294 -188 428 -244 578 -243 150 1 252 104 255 256 l1 51
13 -40 c18 -53 18 -187 1 -253 -30 -111 -108 -201 -224 -255 -59 -27 -79 -31
-177 -35 -103 -4 -117 -2 -197 25 -167 58 -316 184 -486 410 -95 126 -149 187
-191 216 -37 25 -18 31 26 9 62 -33 123 -80 273 -212 175 -155 293 -239 299
-213 2 9 -1 19 -7 21 -29 9 -160 112 -272 212 -133 119 -218 184 -287 220 -28
14 -43 29 -43 41 0 25 4 24 88 -10z m-1080 -127 c52 -13 112 -24 132 -24 73 0
74 -10 6 -51 -36 -21 -76 -39 -89 -39 -42 0 -157 40 -267 92 l-105 50 38 33
38 33 76 -35 c42 -19 118 -46 171 -59z m1920 21 c-25 -22 -195 -94 -278 -118
l-84 -24 -67 41 c-71 44 -71 54 2 55 59 1 220 46 300 84 l74 34 33 -30 c25
-24 29 -34 20 -42z m-948 -34 c39 -56 79 -156 124 -313 90 -310 133 -363 441
-537 61 -34 121 -70 135 -81 l25 -19 -91 6 c-58 4 -98 2 -111 -5 l-21 -12 19
-61 c10 -33 22 -86 25 -117 l7 -57 -37 47 c-20 26 -96 92 -169 146 -290 218
-355 336 -387 707 -10 117 -26 216 -46 284 -13 43 18 18 47 -40 29 -56 43
-108 79 -293 34 -173 66 -263 86 -243 3 3 -6 43 -20 88 -14 46 -37 144 -51
218 -29 149 -53 226 -84 269 -19 27 -19 42 0 42 4 0 17 -13 29 -29z m-1261
-55 c16 -35 37 -66 47 -70 10 -4 44 2 79 15 l60 21 65 -20 64 -19 -55 -32
c-150 -86 -338 -140 -403 -115 -24 9 -20 88 8 156 26 64 83 141 97 132 5 -3
22 -34 38 -68z m971 65 c0 -5 -12 -32 -26 -61 -14 -28 -37 -104 -51 -168 -14
-64 -33 -147 -43 -185 -11 -42 -14 -70 -8 -74 16 -9 24 11 47 120 53 249 87
347 121 347 17 0 17 -3 0 -59 -11 -32 -24 -122 -30 -200 -13 -165 -28 -231
-75 -326 -45 -92 -112 -165 -260 -285 -67 -54 -147 -126 -178 -161 -65 -71
-63 -75 -31 69 8 35 14 76 14 92 0 25 -5 30 -35 36 -20 3 -65 4 -101 2 -84 -5
-79 -2 130 104 129 65 170 91 216 137 70 70 117 163 161 321 33 120 73 220
109 270 21 29 40 39 40 21z m1351 -105 c35 -68 50 -158 28 -172 -19 -12 -125
-9 -179 6 -49 13 -280 119 -280 129 0 4 29 14 64 25 64 18 64 18 125 -5 l62
-22 24 23 c13 13 32 44 42 69 9 25 22 49 27 53 14 10 50 -33 87 -106z m-1191
94 c11 0 40 -93 40 -126 0 -31 -36 -54 -85 -54 -68 0 -73 8 -52 87 18 70 47
109 74 98 8 -3 19 -5 23 -5z m1045 -50 c-9 -18 -17 -30 -19 -28 -1 1 -7 11
-14 20 -12 14 -9 19 15 31 15 9 29 14 31 12 2 -2 -4 -17 -13 -35z m-2127 22
c9 -6 10 -16 4 -32 l-9 -24 -12 21 c-20 38 -12 53 17 35z m87 -42 c5 -8 -55
-33 -62 -26 -3 2 0 13 6 24 10 20 45 21 56 2z m1979 4 c11 -29 6 -33 -26 -22
-29 10 -30 12 -13 25 24 17 32 17 39 -3z"/>
<path d="M4825 7681 c-8 -15 3 -31 21 -31 9 0 14 7 12 17 -4 20 -24 28 -33 14z"/>
<path d="M4881 7587 c-9 -11 -8 -17 4 -27 12 -10 16 -9 21 5 9 23 -10 40 -25
22z"/>
<path d="M6141 7637 c-6 -6 -11 -16 -11 -23 0 -7 -6 -14 -12 -17 -18 -6 26
-47 50 -47 28 0 50 39 38 67 -11 24 -49 36 -65 20z m39 -42 c0 -8 -4 -15 -9
-15 -13 0 -22 16 -14 24 11 11 23 6 23 -9z"/>
<path d="M6280 7605 c0 -11 12 -15 51 -15 62 0 103 -22 125 -68 43 -92 -63
-185 -155 -136 -20 10 -41 31 -48 46 -27 54 25 110 82 88 27 -10 32 -30 13
-60 -18 -29 1 -39 23 -11 40 49 8 101 -61 101 -109 0 -124 -147 -20 -190 18
-7 52 -10 82 -8 44 5 57 11 85 42 82 90 8 226 -124 226 -41 0 -53 -4 -53 -15z"/>
<path d="M7932 7321 c-21 -13 -11 -55 15 -59 30 -4 49 31 27 52 -18 18 -24 19
-42 7z m29 -34 c-13 -13 -26 -3 -16 12 3 6 11 8 17 5 6 -4 6 -10 -1 -17z"/>
<path d="M8003 7212 c-11 -7 -16 -26 -14 -49 2 -26 71 -8 71 18 0 10 -29 39
-38 39 -4 0 -12 -4 -19 -8z m27 -32 c0 -5 -4 -10 -10 -10 -5 0 -10 5 -10 10 0
6 5 10 10 10 6 0 10 -4 10 -10z"/>
<path d="M7862 7188 c-30 -30 0 -78 37 -58 32 17 21 70 -14 70 -6 0 -16 -5
-23 -12z m33 -38 c-5 -8 -11 -8 -17 -2 -6 6 -7 16 -3 22 5 8 11 8 17 2 6 -6 7
-16 3 -22z"/>
<path d="M7976 7034 c-19 -18 -19 -20 -6 -45 12 -21 40 -25 58 -7 18 18 14 46
-7 58 -25 13 -27 13 -45 -6z m42 -26 c-6 -18 -28 -21 -28 -4 0 9 7 16 16 16 9
0 14 -5 12 -12z"/>
<path d="M7816 7027 c-33 -24 -1 -79 38 -64 21 8 22 63 0 71 -20 8 -17 8 -38
-7z m32 -29 c-3 -7 -8 -13 -13 -13 -5 0 -10 6 -12 13 -3 6 3 12 12 12 9 0 15
-6 13 -12z"/>
<path d="M8195 7006 c-24 -17 -15 -50 14 -54 39 -6 56 39 22 57 -13 7 -23 6
-36 -3z m35 -26 c0 -5 -7 -10 -15 -10 -8 0 -15 5 -15 10 0 6 7 10 15 10 8 0
15 -4 15 -10z"/>
<path d="M7960 6875 c-26 -31 18 -71 47 -43 12 12 13 20 4 37 -14 25 -34 27
-51 6z m31 -28 c-13 -13 -26 -3 -16 12 3 6 11 8 17 5 6 -4 6 -10 -1 -17z"/>
<path d="M7822 6871 c-8 -4 -12 -19 -10 -32 4 -29 45 -34 61 -7 19 30 -19 60
-51 39z m29 -34 c-13 -13 -26 -3 -16 12 3 6 11 8 17 5 6 -4 6 -10 -1 -17z"/>
<path d="M8082 6858 c-30 -30 11 -85 44 -57 25 21 11 69 -21 69 -6 0 -16 -5
-23 -12z m38 -23 c0 -8 -7 -15 -15 -15 -16 0 -20 12 -8 23 11 12 23 8 23 -8z"/>
<path d="M6780 7166 c-10 -13 -10 -19 0 -32 12 -14 15 -14 29 0 14 15 14 17 0
32 -14 14 -17 14 -29 0z"/>
<path d="M6636 7162 c-3 -6 -1 -14 5 -17 15 -10 25 3 12 16 -7 7 -13 7 -17 1z"/>
<path d="M6640 7105 c0 -8 5 -15 10 -15 6 0 10 7 10 15 0 8 -4 15 -10 15 -5 0
-10 -7 -10 -15z"/>
<path d="M6710 7110 c0 -5 5 -10 10 -10 6 0 10 5 10 10 0 6 -4 10 -10 10 -5 0
-10 -4 -10 -10z"/>
<path d="M6627 7004 c-3 -3 -3 -12 -1 -19 3 -7 1 -16 -5 -20 -18 -10 11 -32
39 -30 20 1 25 8 27 34 2 26 0 32 -12 27 -8 -3 -17 -1 -20 4 -7 11 -19 13 -28
4z"/>
<path d="M6817 6927 c-3 -8 -2 -20 3 -27 11 -18 42 -4 38 17 -4 22 -34 29 -41
10z"/>
<path d="M2402 6234 c2 -11 8 -18 13 -16 15 3 12 25 -3 30 -9 3 -13 -2 -10
-14z"/>
<path d="M2460 6215 c0 -8 7 -15 15 -15 8 0 15 7 15 15 0 8 -7 15 -15 15 -8 0
-15 -7 -15 -15z"/>
<path d="M2270 6185 c0 -10 7 -15 17 -13 22 4 23 22 1 26 -11 2 -18 -3 -18
-13z"/>
<path d="M2335 6180 c-4 -6 -3 -16 3 -22 6 -6 12 -6 17 2 4 6 3 16 -3 22 -6 6
-12 6 -17 -2z"/>
<path d="M2384 6169 c-10 -17 13 -36 27 -22 12 12 4 33 -11 33 -5 0 -12 -5
-16 -11z"/>
<path d="M2265 6110 c-3 -6 1 -13 10 -16 19 -8 30 0 20 15 -8 14 -22 14 -30 1z"/>
<path d="M2325 6110 c-8 -13 4 -32 16 -25 12 8 12 35 0 35 -6 0 -13 -4 -16
-10z"/>
<path d="M2680 5746 c0 -20 27 -39 45 -32 8 3 15 15 15 26 0 16 -7 20 -30 20
-19 0 -30 -5 -30 -14z"/>
<path d="M7593 5793 c-11 -22 -10 -31 2 -49 12 -18 20 -21 42 -15 23 6 29 14
31 43 3 30 -1 36 -20 42 -37 9 -42 7 -55 -21z m43 -31 c-22 -5 -30 3 -21 18 5
8 11 7 22 -2 15 -12 14 -13 -1 -16z"/>
<path d="M7500 5703 c-89 -29 -118 -107 -61 -164 35 -34 63 -37 92 -8 24 24
23 72 -3 77 -12 2 -16 -4 -15 -30 2 -27 -2 -34 -19 -36 -55 -8 -75 80 -28 117
34 27 64 27 93 0 50 -47 55 -117 10 -161 -36 -37 -25 -59 14 -28 68 53 50 193
-28 226 -19 8 -36 14 -37 13 -2 0 -10 -3 -18 -6z"/>
<path d="M7340 5660 c0 -5 7 -10 16 -10 8 0 12 5 9 10 -3 6 -10 10 -16 10 -5
0 -9 -4 -9 -10z"/>
<path d="M7312 5613 c2 -10 10 -18 18 -18 22 0 18 29 -3 33 -14 3 -18 -1 -15
-15z"/>
<path d="M7331 5566 c-14 -17 3 -61 20 -51 15 10 10 25 -8 25 -17 1 -17 1 0
14 9 7 17 16 17 20 0 11 -17 6 -29 -8z"/>
<path d="M7886 4212 c-3 -6 -1 -14 5 -17 15 -10 25 3 12 16 -7 7 -13 7 -17 1z"/>
<path d="M7940 4175 c0 -10 7 -15 17 -13 22 4 23 22 1 26 -11 2 -18 -3 -18
-13z"/>
<path d="M7890 4164 c0 -17 22 -14 28 4 2 7 -3 12 -12 12 -9 0 -16 -7 -16 -16z"/>
<path d="M7820 4099 c0 -24 23 -21 28 4 2 10 -3 17 -12 17 -10 0 -16 -9 -16
-21z"/>
<path d="M7877 4114 c-13 -13 -7 -24 14 -24 11 0 19 5 17 12 -5 14 -22 21 -31
12z"/>
<path d="M7930 4085 c0 -8 7 -15 15 -15 8 0 15 7 15 15 0 8 -7 15 -15 15 -8 0
-15 -7 -15 -15z"/>
<path d="M7757 4063 c-13 -12 -7 -33 8 -33 8 0 15 9 15 20 0 20 -11 26 -23 13z"/>
<path d="M7810 4035 c0 -8 7 -15 15 -15 8 0 15 7 15 15 0 8 -7 15 -15 15 -8 0
-15 -7 -15 -15z"/>
<path d="M7153 3964 c-3 -8 -15 -14 -28 -14 -29 0 -47 -22 -43 -52 3 -21 8
-23 53 -23 51 0 105 -24 105 -47 0 -6 8 -17 18 -25 12 -10 14 -16 5 -19 -7 -3
-13 -16 -13 -29 0 -29 -32 -38 -82 -25 -39 11 -60 30 -56 51 2 8 -4 14 -12 14
-9 0 -15 -9 -15 -24 0 -48 87 -82 168 -67 30 6 34 9 29 33 -3 18 -1 24 7 19
17 -11 13 9 -10 60 -15 30 -34 52 -60 67 -39 22 -50 52 -28 74 7 7 4 12 -11
16 -13 3 -23 0 -27 -9z m1 -56 c-3 -4 -14 -8 -25 -8 -24 0 -25 27 -1 32 18 4
34 -11 26 -24z"/>
<path d="M7304 3728 c-4 -6 1 -17 12 -25 20 -15 30 -4 20 22 -6 18 -22 19 -32
3z"/>
<path d="M3560 3323 c0 -12 -4 -25 -10 -28 -15 -9 -12 -25 4 -25 8 0 17 -6 19
-12 4 -10 6 -9 6 1 1 11 4 11 16 1 12 -10 15 -9 15 8 0 11 3 27 6 36 4 11 0
16 -13 16 -10 0 -24 5 -31 12 -9 9 -12 7 -12 -9z"/>
<path d="M3577 3163 c-12 -11 -8 -23 8 -23 8 0 15 7 15 15 0 16 -12 20 -23 8z"/>
<path d="M3505 3150 c4 -6 11 -8 16 -5 14 9 11 15 -7 15 -8 0 -12 -5 -9 -10z"/>
<path d="M3424 3125 c-7 -18 3 -35 21 -35 18 0 26 25 12 39 -15 15 -27 14 -33
-4z"/>
<path d="M3580 3100 c0 -5 7 -10 15 -10 8 0 15 5 15 10 0 6 -7 10 -15 10 -8 0
-15 -4 -15 -10z"/>
<path d="M3809 2897 c-45 -30 -73 -87 -65 -133 14 -72 96 -131 171 -122 47 5
40 34 -7 30 -96 -9 -164 80 -126 163 25 56 125 74 172 33 36 -33 42 -68 16
-101 -24 -30 -70 -37 -90 -12 -10 12 -9 20 4 39 18 28 7 42 -17 23 -29 -23
-30 -55 -3 -82 33 -33 75 -33 115 1 26 21 31 33 31 68 0 50 -21 83 -66 102
-48 20 -96 17 -135 -9z"/>
<path d="M4041 2701 c-20 -15 -22 -22 -14 -46 12 -37 62 -47 70 -15 3 11 9 20
14 20 14 0 10 18 -8 40 -21 25 -31 25 -62 1z m35 -38 c-10 -10 -19 5 -10 18 6
11 8 11 12 0 2 -7 1 -15 -2 -18z"/>
</g>
</svg>
