<?xml version="1.0" standalone="no"?>
<!DOCTYPE svg PUBLIC "-//W3C//DTD SVG 20010904//EN"
 "http://www.w3.org/TR/2001/REC-SVG-20010904/DTD/svg10.dtd">
<svg version="1.0" xmlns="http://www.w3.org/2000/svg"
 width="1024.000000pt" height="1024.000000pt" viewBox="0 0 1024.000000 1024.000000"
 preserveAspectRatio="xMidYMid meet">
<metadata>
Created by potrace 1.16, written by Peter Selinger 2001-2019
</metadata>
<g transform="translate(0.000000,1024.000000) scale(0.100000,-0.100000)"
fill="#000000" stroke="none">
<path d="M5706 9198 c-13 -19 -14 -25 -2 -43 19 -29 62 -32 76 -5 9 17 8 26
-5 46 -19 30 -49 31 -69 2z m52 0 c17 -17 15 -45 -4 -52 -18 -7 -44 10 -44 28
0 13 20 36 30 36 3 0 11 -5 18 -12z"/>
<path d="M6719 9169 c-9 -17 -17 -20 -46 -14 -32 6 -35 4 -28 -12 11 -23 11
-63 0 -87 -7 -16 -5 -18 22 -12 22 5 34 2 48 -14 24 -27 35 -25 35 5 0 18 10
31 32 45 l31 19 -26 12 c-18 8 -29 22 -33 46 -7 38 -18 42 -35 12z m48 -57
c16 -11 15 -14 -5 -28 -12 -8 -22 -25 -22 -36 0 -20 -1 -20 -18 -5 -10 10 -29
17 -41 17 -19 0 -20 3 -11 20 8 14 8 26 0 40 -9 17 -8 20 13 20 14 0 30 7 38
16 12 14 14 13 21 -8 5 -12 16 -29 25 -36z"/>
<path d="M7808 9169 c-20 -11 -24 -50 -8 -79 5 -10 28 -33 50 -50 l41 -33 30
29 c41 39 62 81 55 110 -8 29 -45 40 -76 24 -16 -9 -25 -9 -33 -1 -14 14 -36
14 -59 0z m53 -15 c16 -14 19 -14 42 0 59 39 79 -28 26 -89 -17 -19 -35 -35
-40 -35 -16 0 -77 64 -84 86 -3 14 0 28 10 38 20 20 24 20 46 0z"/>
<path d="M2980 9145 c-17 -20 -5 -62 20 -70 44 -14 80 41 48 73 -17 17 -53 15
-68 -3z m60 -10 c17 -21 5 -45 -24 -45 -27 0 -42 26 -25 46 15 18 33 18 49 -1z"/>
<path d="M4985 9046 c-267 -42 -504 -160 -703 -350 -116 -111 -193 -213 -259
-342 -413 -807 126 -1772 1042 -1865 558 -57 1096 252 1330 764 34 73 28 93
-10 36 -41 -63 -149 -173 -226 -229 -90 -67 -235 -135 -354 -166 -87 -23 -121
-26 -255 -27 -136 0 -167 3 -251 25 -317 85 -570 302 -693 595 -62 145 -71
199 -71 398 0 160 3 189 24 260 50 172 123 298 245 424 95 98 170 153 283 210
246 123 565 139 814 41 132 -53 -40 66 -192 131 -225 97 -487 132 -724 95z
m510 -39 c126 -32 365 -132 365 -152 0 -2 -33 6 -72 16 -96 26 -290 35 -399
20 -97 -14 -231 -57 -321 -102 -218 -110 -404 -312 -489 -534 -53 -136 -72
-250 -66 -405 5 -166 29 -264 98 -409 61 -129 115 -205 215 -302 269 -260 652
-356 1009 -254 176 51 305 126 444 259 l84 81 -37 -69 c-54 -100 -132 -200
-227 -292 -239 -229 -518 -347 -854 -360 -386 -16 -730 124 -997 404 -305 321
-418 756 -307 1187 68 266 237 515 468 688 179 135 349 206 601 251 14 2 106
3 205 1 154 -2 194 -6 280 -28z"/>
<path d="M3764 8929 c-27 -26 -34 -29 -58 -19 -15 5 -36 10 -46 10 -19 0 -19
-1 -1 -44 19 -42 19 -44 0 -72 -27 -41 -24 -47 22 -42 37 3 44 0 66 -29 14
-18 29 -33 34 -33 4 0 12 19 16 42 8 37 13 44 48 57 46 17 50 19 43 26 -3 3
-25 -3 -50 -14 -39 -17 -46 -24 -53 -57 l-7 -38 -25 33 c-24 30 -29 32 -66 26
l-40 -7 23 32 c22 31 22 33 6 67 -9 20 -15 37 -13 39 2 2 18 -1 36 -7 29 -10
35 -9 60 15 15 14 30 26 34 26 4 0 7 -18 7 -40 0 -34 4 -42 31 -55 17 -9 33
-14 36 -11 3 2 -9 12 -26 21 -27 13 -31 21 -31 55 0 21 -4 41 -8 44 -5 3 -22
-9 -38 -25z"/>
<path d="M8215 8856 c-19 -29 -10 -54 23 -63 48 -12 81 37 47 71 -23 23 -52
20 -70 -8z m59 -2 c12 -12 13 -20 6 -35 -11 -20 -19 -23 -44 -13 -19 7 -21 35
-4 52 16 16 23 15 42 -4z"/>
<path d="M7490 8770 c0 -36 -4 -43 -35 -62 -42 -24 -41 -39 3 -50 26 -7 33
-16 42 -48 13 -47 21 -49 50 -13 18 23 27 27 65 24 25 -1 45 1 45 4 0 4 -10
20 -21 37 -20 27 -20 33 -9 69 7 21 11 41 9 44 -3 2 -22 -1 -42 -7 -35 -11
-39 -9 -65 15 -16 15 -31 27 -35 27 -4 0 -7 -18 -7 -40z m46 -1 c15 -17 26
-20 56 -15 l37 6 -14 -34 c-13 -31 -13 -36 5 -59 27 -34 26 -36 -18 -30 -35 5
-41 2 -59 -28 l-21 -33 -11 41 c-9 34 -17 43 -41 48 -38 8 -38 16 0 37 24 14
30 24 30 53 0 40 9 44 36 14z"/>
<path d="M6301 8706 c-20 -21 -27 -23 -52 -14 -39 13 -45 6 -24 -30 16 -26 16
-31 2 -59 -20 -37 -15 -43 29 -36 28 5 38 2 50 -16 21 -29 31 -26 38 12 5 25
15 37 38 49 l33 15 -33 17 c-19 10 -32 24 -32 35 0 25 -10 51 -19 51 -4 0 -18
-11 -30 -24z m55 -58 c30 -14 30 -22 -1 -36 -18 -8 -25 -19 -25 -39 l0 -26
-22 20 c-17 16 -31 20 -53 16 l-29 -6 17 26 c17 26 17 28 0 54 l-18 26 32 -6
c24 -5 35 -1 49 15 l19 20 3 -26 c2 -17 13 -31 28 -38z"/>
<path d="M2060 8646 c0 -15 -8 -30 -20 -36 -27 -14 -25 -27 5 -34 14 -4 25
-12 25 -19 0 -6 5 -19 10 -27 8 -13 12 -12 25 8 10 13 27 22 42 22 20 0 24 3
17 18 -4 9 -7 31 -7 48 1 28 -1 30 -30 30 -18 0 -40 4 -49 8 -15 7 -18 3 -18
-18z m35 -6 c4 -6 16 -8 27 -4 17 5 19 3 14 -14 -4 -11 -2 -23 4 -27 17 -10
11 -25 -10 -25 -11 0 -23 -7 -26 -15 -9 -21 -24 -19 -24 4 0 11 -9 23 -22 27
-19 6 -19 7 -5 16 10 5 17 18 17 28 0 21 15 27 25 10z"/>
<path d="M5200 8483 c1 -16 5 -48 10 -73 l9 -45 -52 -48 c-60 -54 -57 -61 33
-71 l58 -7 26 -59 c14 -33 30 -60 36 -60 7 0 23 27 37 59 l26 59 68 7 c41 4
69 12 69 19 0 6 -21 29 -46 52 l-47 40 13 67 c8 37 11 69 7 73 -3 3 -32 -8
-64 -26 l-59 -32 -56 36 c-32 20 -60 36 -63 36 -3 0 -5 -12 -5 -27z m95 -42
l30 -20 53 30 c30 17 56 29 58 27 2 -2 -3 -31 -11 -63 l-15 -60 45 -40 c25
-22 45 -43 45 -47 0 -5 -15 -8 -34 -8 -78 0 -94 -9 -117 -66 -13 -30 -25 -54
-28 -54 -3 0 -16 25 -29 54 -24 56 -38 65 -97 66 -57 1 -59 14 -10 55 46 37
47 38 40 84 -3 25 -9 57 -12 69 -6 23 -5 24 23 8 16 -8 42 -24 59 -35z"/>
<path d="M3062 8469 c-53 -94 -46 -89 -117 -89 -36 0 -65 -4 -65 -9 0 -5 20
-31 44 -58 l44 -49 -16 -61 c-9 -34 -13 -65 -9 -69 3 -4 31 5 60 20 30 14 59
26 66 26 7 0 32 -13 56 -30 63 -44 67 -41 59 38 l-6 69 51 37 c69 51 68 55
-19 71 -64 12 -68 15 -90 75 -12 33 -27 60 -32 60 -5 0 -17 -14 -26 -31z m53
-52 c21 -52 22 -52 77 -62 31 -5 59 -13 63 -16 3 -4 -17 -23 -45 -43 -55 -39
-54 -37 -34 -133 6 -30 0 -29 -59 9 l-50 32 -51 -27 c-28 -15 -54 -27 -58 -27
-3 0 1 27 10 61 l15 60 -42 43 c-22 23 -41 45 -41 48 0 4 28 8 63 10 l62 3 28
53 c16 29 32 51 35 47 4 -3 16 -30 27 -58z"/>
<path d="M5930 8330 c-24 -24 -26 -60 -5 -99 16 -31 121 -131 138 -131 14 0
93 83 110 117 27 53 28 79 6 107 -24 30 -72 35 -107 10 -20 -14 -24 -14 -44 0
-31 22 -74 20 -98 -4z m102 -17 c15 -14 20 -13 44 6 33 26 66 27 89 1 25 -28
13 -78 -34 -137 -66 -84 -62 -83 -136 -11 -59 58 -65 67 -65 105 0 29 5 45 18
52 21 13 61 5 84 -16z"/>
<path d="M6866 8298 c-7 -18 -18 -46 -23 -63 -8 -26 -18 -32 -68 -46 -32 -8
-61 -21 -63 -27 -2 -6 19 -25 47 -43 l51 -31 0 -69 c0 -38 4 -69 9 -69 4 0 29
16 55 36 l47 36 60 -22 c33 -13 63 -20 67 -16 3 4 -3 33 -14 65 l-21 58 42 49
c24 27 41 52 38 57 -2 4 -33 7 -68 7 l-65 0 -36 55 c-20 30 -39 55 -41 55 -2
0 -10 -15 -17 -32z m53 -38 l30 -49 67 -3 66 -3 -42 -48 -42 -48 21 -56 c12
-31 20 -57 19 -59 -2 -1 -29 8 -60 21 l-57 23 -45 -34 c-25 -19 -47 -34 -50
-34 -3 0 -6 27 -6 60 0 60 0 61 -45 92 -25 18 -45 35 -45 39 0 3 26 12 58 18
l59 11 16 60 c10 33 19 60 21 60 2 0 18 -22 35 -50z"/>
<path d="M7635 8268 c-28 -16 -35 -28 -35 -69 0 -42 27 -82 95 -138 58 -48 65
-46 133 42 55 69 66 123 31 156 -28 26 -55 27 -94 3 -25 -16 -33 -17 -50 -6
-33 20 -59 24 -80 12z m223 -27 c23 -29 -16 -117 -77 -175 -29 -28 -31 -28
-55 -12 -40 26 -96 86 -107 113 -28 75 31 122 94 73 23 -18 26 -18 38 -4 29
36 81 38 107 5z"/>
<path d="M2400 8250 c-24 -24 -25 -41 -6 -79 18 -35 101 -111 120 -111 21 0
94 100 102 139 12 58 -53 95 -97 55 -16 -15 -20 -15 -41 0 -30 21 -54 20 -78
-4z m194 -9 c17 -18 17 -22 -2 -63 -11 -24 -33 -59 -50 -78 l-30 -35 -57 57
c-49 49 -56 61 -53 90 3 28 7 33 31 36 17 2 36 -3 47 -13 17 -16 20 -15 39 4
26 26 53 27 75 2z"/>
<path d="M3227 7990 c-22 -17 -26 -18 -37 -5 -28 34 -100 6 -100 -39 0 -30 28
-73 76 -115 26 -22 50 -41 54 -41 13 0 69 69 91 111 25 50 19 86 -17 99 -34
13 -38 13 -67 -10z m-45 -20 c25 -19 25 -19 44 1 12 13 28 19 48 17 46 -4 47
-49 4 -113 -51 -75 -60 -77 -112 -26 -55 54 -70 90 -50 120 19 26 34 26 66 1z"/>
<path d="M4848 7879 c-21 -12 -24 -49 -6 -67 39 -39 100 17 63 58 -20 22 -32
24 -57 9z m55 -21 c6 -18 -11 -48 -27 -48 -20 0 -39 27 -32 45 7 18 52 20 59
3z"/>
<path d="M8058 7874 c-13 -13 -20 -14 -38 -4 -28 15 -35 8 -20 -20 9 -17 8
-25 -4 -39 -22 -24 -20 -31 6 -31 12 0 32 -10 44 -21 l23 -22 6 26 c4 15 16
28 31 31 29 8 31 22 4 36 -12 6 -20 21 -20 35 0 29 -9 31 -32 9z m22 -24 c0
-11 7 -23 15 -26 21 -9 19 -24 -4 -24 -11 0 -21 -9 -25 -22 l-6 -23 -15 22
c-9 13 -22 20 -30 17 -17 -7 -21 11 -5 21 6 4 8 16 4 27 -5 17 -3 19 14 14 11
-4 23 -2 27 4 10 17 25 11 25 -10z"/>
<path d="M5970 7805 c0 -14 -8 -29 -20 -35 -27 -14 -25 -28 5 -36 18 -4 25
-13 25 -30 0 -29 15 -31 30 -4 6 11 18 20 28 21 11 0 13 2 4 6 -7 3 -22 -3
-33 -13 -17 -15 -19 -15 -19 -1 0 9 -9 21 -21 28 l-21 11 22 15 c12 8 19 21
16 29 -6 16 10 19 20 3 3 -6 15 -8 26 -6 15 4 18 2 14 -10 -7 -17 14 -73 26
-73 12 0 9 13 -7 34 -10 13 -11 24 -5 37 15 27 12 31 -18 24 -20 -4 -33 -1
-42 10 -18 22 -30 18 -30 -10z"/>
<path d="M1932 7748 c-21 -21 -14 -57 14 -70 31 -14 57 -1 62 31 7 42 -46 69
-76 39z m62 -20 c8 -14 7 -21 -5 -33 -28 -29 -73 11 -48 42 15 17 38 13 53 -9z"/>
<path d="M8520 7712 c-8 -2 -23 -11 -32 -19 -15 -14 -19 -13 -33 1 -23 23 -72
21 -85 -3 -23 -43 -12 -72 49 -134 57 -56 61 -58 82 -44 38 27 89 108 89 143
0 41 -34 68 -70 56z m-72 -32 l22 -20 20 20 c41 41 98 16 85 -37 -7 -35 -71
-123 -88 -123 -21 0 -104 87 -111 115 -8 32 9 65 32 65 10 0 28 -9 40 -20z"/>
<path d="M6538 7595 c-9 -21 -8 -28 7 -45 31 -34 75 -20 75 25 0 48 -62 63
-82 20z m66 -7 c14 -22 -12 -52 -37 -42 -17 6 -23 44 -10 58 11 11 35 3 47
-16z"/>
<path d="M2480 7381 c0 -18 -8 -34 -22 -44 l-23 -15 26 -10 c16 -7 29 -21 34
-39 l7 -28 18 23 c10 12 29 22 44 22 29 0 31 3 15 32 -8 15 -8 27 0 44 12 26
3 31 -28 14 -14 -7 -23 -5 -36 10 -25 28 -35 25 -35 -9z m35 -7 c9 -14 16 -14
33 -5 24 13 27 9 12 -19 -7 -13 -7 -21 0 -25 18 -11 10 -25 -15 -25 -14 0 -25
-4 -25 -10 0 -5 -4 -10 -10 -10 -5 0 -10 6 -10 14 0 8 -10 18 -22 22 -20 6
-20 8 -5 19 9 7 17 22 17 34 0 25 8 27 25 5z"/>
<path d="M3477 7394 c-3 -3 -2 -24 1 -47 5 -37 2 -43 -28 -69 -38 -31 -36 -39
17 -47 30 -5 38 -12 48 -40 16 -47 31 -49 52 -7 15 33 20 36 60 36 24 0 43 3
43 7 0 4 -12 19 -26 34 -25 26 -26 31 -16 71 6 23 9 44 6 47 -2 3 -21 -3 -40
-13 -36 -17 -37 -17 -74 8 -21 14 -40 23 -43 20z m106 -46 c38 14 42 11 29
-27 -9 -25 -7 -32 14 -52 33 -31 30 -39 -15 -39 -33 0 -40 -4 -51 -30 -16 -38
-27 -38 -35 1 -7 31 -9 33 -59 44 l-30 6 29 23 c26 21 29 29 26 66 l-3 43 33
-23 c28 -20 36 -22 62 -12z"/>
<path d="M7588 7359 c-36 -21 -16 -79 27 -79 42 0 59 44 29 74 -18 18 -32 20
-56 5z m57 -27 c8 -20 -19 -47 -39 -39 -26 10 -32 38 -12 53 21 15 42 9 51
-14z"/>
<path d="M5554 7278 c7 -52 7 -53 -31 -86 -31 -26 -35 -34 -23 -42 8 -5 32
-10 52 -10 34 0 39 -3 57 -45 11 -25 24 -45 29 -45 5 0 17 19 28 43 18 40 21
42 67 45 56 4 60 17 15 53 -31 26 -31 27 -21 78 6 28 7 53 4 56 -4 2 -26 -7
-48 -20 l-41 -23 -39 24 c-21 13 -42 24 -47 24 -5 0 -5 -24 -2 -52z m53 11
l35 -22 39 22 c43 25 48 19 28 -39 -11 -30 -10 -34 20 -57 17 -13 31 -28 31
-33 0 -5 -19 -10 -42 -12 -39 -3 -45 -7 -62 -43 l-19 -40 -20 43 c-16 33 -27
42 -46 43 -15 0 -35 4 -45 8 -18 7 -17 10 13 32 31 23 33 27 27 72 -3 26 -2
47 1 47 3 0 21 -10 40 -21z"/>
<path d="M6930 7128 c0 -62 -1 -63 -41 -92 -22 -15 -38 -33 -36 -40 2 -6 24
-15 50 -21 55 -12 57 -13 76 -72 9 -26 21 -48 26 -50 6 -2 23 20 38 47 l28 50
60 0 c32 0 59 3 59 6 0 4 -16 27 -36 51 l-37 45 16 56 c9 31 14 59 11 61 -2 3
-29 -6 -59 -18 l-55 -23 -42 31 c-23 17 -46 31 -50 31 -4 0 -8 -28 -8 -62z
m62 12 l37 -31 51 26 c56 29 60 25 35 -46 l-15 -43 35 -36 c19 -20 35 -39 35
-43 0 -4 -25 -7 -55 -7 l-55 0 -22 -45 c-12 -25 -25 -45 -29 -45 -3 0 -15 24
-25 52 -19 51 -21 53 -67 62 -26 4 -47 12 -47 17 0 5 18 20 39 35 39 26 39 26
34 80 -3 30 -2 54 3 54 5 0 26 -14 46 -30z"/>
<path d="M1677 6992 c-23 -25 -21 -78 2 -116 11 -17 43 -50 72 -74 60 -49 69
-47 128 28 52 66 67 110 49 147 -10 22 -21 29 -51 31 -23 2 -48 -3 -63 -13
-22 -14 -27 -14 -46 0 -30 20 -71 19 -91 -3z m87 -13 l26 -20 26 20 c30 23 74
27 92 9 20 -20 14 -73 -14 -114 -32 -47 -75 -94 -86 -94 -5 0 -29 17 -54 38
-78 64 -103 125 -67 164 21 24 44 23 77 -3z"/>
<path d="M3522 6944 c-16 -11 -22 -25 -22 -52 0 -49 27 -92 90 -141 42 -34 55
-39 71 -31 29 16 96 105 109 146 11 32 10 39 -7 63 -26 34 -79 40 -109 13 -20
-19 -21 -19 -43 -1 -28 23 -59 24 -89 3z m93 -25 c20 -18 21 -18 38 1 25 29
64 36 87 15 37 -33 20 -91 -47 -166 -19 -21 -40 -39 -46 -39 -17 0 -98 71
-118 104 -26 42 -24 81 3 100 25 18 53 13 83 -15z"/>
<path d="M6547 6932 c-22 -24 -21 -60 1 -93 18 -28 99 -99 112 -99 9 0 72 76
88 107 15 28 15 76 0 91 -17 17 -68 15 -90 -5 -17 -15 -19 -15 -36 0 -24 22
-55 21 -75 -1z m80 -20 c12 -14 15 -14 33 6 44 47 104 11 82 -48 -15 -38 -71
-110 -85 -110 -22 0 -103 85 -111 115 -14 54 46 82 81 37z"/>
<path d="M7692 6938 c-24 -24 -13 -60 33 -105 25 -24 49 -43 54 -43 13 0 78
77 84 99 8 33 -10 61 -41 61 -15 0 -33 -5 -40 -12 -9 -9 -15 -9 -24 0 -7 7
-21 12 -33 12 -12 0 -26 -5 -33 -12z m58 -13 c12 -14 15 -14 31 1 27 24 63 15
67 -18 3 -28 -49 -98 -73 -98 -16 0 -85 76 -85 93 0 16 20 37 36 37 6 0 17 -7
24 -15z"/>
<path d="M2970 6809 c-9 -16 -8 -26 5 -45 19 -29 46 -31 70 -4 15 17 16 24 7
45 -15 32 -66 35 -82 4z m65 -19 c0 -18 -6 -26 -23 -28 -13 -2 -25 3 -28 12
-10 26 4 48 28 44 17 -2 23 -10 23 -28z"/>
<path d="M8338 6809 c-28 -16 -23 -67 7 -81 21 -9 28 -8 45 7 26 24 25 50 -2
69 -26 19 -27 19 -50 5z m51 -23 c17 -20 2 -46 -25 -46 -26 0 -40 20 -30 45 7
19 40 20 55 1z"/>
<path d="M3917 6664 c-4 -4 -7 -23 -7 -43 0 -46 -8 -57 -53 -76 -20 -8 -37
-20 -37 -25 0 -6 20 -19 44 -29 40 -18 44 -23 50 -65 4 -25 11 -46 16 -46 5 0
22 16 37 35 27 35 29 35 82 29 58 -7 58 -8 18 49 -19 28 -19 28 4 72 13 24 20
47 16 51 -4 4 -25 2 -48 -5 -41 -12 -42 -12 -78 23 -21 20 -40 33 -44 30z
m114 -67 c24 6 45 10 47 8 2 -2 -8 -20 -21 -41 l-26 -37 25 -39 25 -39 -38 7
c-21 3 -41 7 -45 8 -4 0 -20 -15 -36 -34 l-29 -35 -8 44 c-6 39 -11 45 -46 59
-21 8 -39 18 -39 21 0 3 18 14 40 23 37 15 40 19 40 56 0 21 3 41 6 45 3 3 18
-9 34 -26 27 -31 29 -31 71 -20z"/>
<path d="M7023 6554 c-21 -21 -24 -32 -20 -60 3 -19 14 -45 24 -58 25 -31 112
-106 124 -106 13 0 86 75 109 113 56 91 -9 171 -96 118 -29 -18 -31 -18 -53 0
-32 26 -57 24 -88 -7z m228 -5 c24 -24 20 -52 -16 -114 -32 -56 -69 -88 -92
-81 -33 11 -102 80 -117 117 -12 28 -12 40 -3 60 16 32 64 37 94 10 19 -18 23
-19 34 -4 30 35 72 40 100 12z"/>
<path d="M2392 6438 c-32 -32 4 -87 48 -73 25 8 37 50 20 70 -15 18 -51 20
-68 3z m57 -12 c17 -20 2 -46 -25 -46 -29 0 -41 24 -24 45 16 19 34 19 49 1z"/>
<path d="M8480 6420 c-42 -42 -17 -115 62 -181 68 -56 66 -56 115 -8 50 49 83
106 83 144 0 57 -73 85 -121 46 -23 -19 -24 -19 -48 0 -31 25 -66 24 -91 -1z
m87 -14 l28 -24 28 24 c35 29 61 30 87 4 24 -24 24 -30 5 -78 -15 -34 -91
-122 -106 -122 -18 0 -109 84 -123 115 -19 38 -13 80 13 95 25 15 38 12 68
-14z"/>
<path d="M7410 6405 c-7 -8 -10 -25 -6 -39 11 -45 71 -45 82 0 8 30 -11 54
-41 54 -12 0 -28 -7 -35 -15z m60 -10 c17 -21 5 -45 -24 -45 -27 0 -42 26 -25
46 15 18 33 18 49 -1z"/>
<path d="M2640 6330 c-26 -26 -26 -74 1 -116 18 -30 113 -114 128 -114 4 0 27
21 53 48 77 79 97 143 58 182 -25 25 -77 26 -102 3 -18 -16 -21 -16 -47 0 -38
22 -67 21 -91 -3z m96 -21 c16 -18 17 -18 46 6 36 30 61 32 88 5 24 -24 24
-30 5 -78 -17 -38 -91 -122 -110 -122 -20 0 -103 80 -120 116 -20 43 -13 82
17 93 28 10 52 4 74 -20z"/>
<path d="M6622 6328 c-17 -17 -15 -53 3 -68 20 -17 61 -5 68 19 11 42 -42 78
-71 49z m46 -10 c17 -17 15 -45 -4 -52 -18 -7 -44 10 -44 28 0 13 20 36 30 36
3 0 11 -5 18 -12z"/>
<path d="M8116 6249 c-27 -21 -28 -21 -67 -4 -21 10 -41 16 -44 13 -3 -3 1
-23 9 -44 13 -38 12 -41 -10 -67 -34 -39 -30 -47 19 -47 40 0 45 -3 60 -35 9
-19 20 -35 25 -35 4 0 14 19 22 43 13 36 20 43 49 47 45 7 48 21 11 43 -26 16
-30 24 -30 63 0 50 -6 53 -44 23z m31 -29 c-5 -36 -2 -42 24 -57 37 -22 37
-33 -1 -33 -27 0 -33 -6 -49 -42 -19 -43 -19 -43 -29 -18 -15 38 -36 52 -66
44 -32 -8 -33 2 -5 32 19 20 20 27 10 55 -6 18 -10 34 -8 35 2 2 18 -2 35 -8
28 -11 35 -10 59 9 16 12 30 22 32 22 2 1 1 -17 -2 -39z"/>
<path d="M4249 6240 c-25 -15 -32 -56 -15 -89 18 -33 103 -111 122 -111 13 0
73 69 93 107 36 70 -25 131 -87 87 -20 -14 -24 -14 -44 0 -25 18 -46 20 -69 6z
m186 -16 c11 -12 14 -25 10 -43 -7 -29 -47 -90 -76 -117 -18 -16 -21 -15 -75
39 -48 48 -55 60 -52 89 3 28 7 33 31 36 17 2 37 -4 47 -13 18 -16 21 -16 46
4 32 25 47 26 69 5z"/>
<path d="M3409 6129 c-16 -30 3 -69 34 -69 29 0 47 17 47 45 0 45 -60 63 -81
24z m65 -12 c8 -12 7 -21 -5 -32 -21 -21 -49 -9 -49 20 0 36 34 44 54 12z"/>
<path d="M5035 6076 c-14 -10 -25 -11 -42 -3 -29 13 -38 5 -23 -23 10 -18 8
-26 -10 -45 -24 -25 -14 -41 20 -30 15 5 23 0 32 -19 14 -33 26 -33 34 -1 4
18 15 28 35 32 16 3 29 9 29 14 0 11 -1 11 -38 -2 -16 -6 -33 -20 -37 -32 l-6
-22 -11 23 c-7 14 -20 22 -35 22 -22 0 -23 1 -9 16 11 10 14 24 10 41 -6 23
-5 24 14 12 18 -11 24 -10 43 6 l22 20 -6 -24 c-6 -25 7 -51 25 -51 6 0 4 7
-3 16 -8 9 -12 27 -11 40 4 27 -6 30 -33 10z"/>
<path d="M6844 6005 c-47 -37 -122 -71 -185 -85 -50 -11 -66 -10 -150 10 -69
17 -134 24 -249 28 -183 5 -283 -10 -429 -65 -73 -27 -102 -33 -130 -28 -46 8
-120 41 -146 64 -42 38 -48 37 -43 -8 4 -43 0 -49 -20 -29 -9 9 -12 7 -12 -11
0 -12 5 -32 11 -43 8 -15 8 -22 -1 -28 -25 -16 35 -107 81 -122 6 -2 -8 -35
-30 -73 -138 -236 -165 -509 -69 -717 l30 -66 -31 -67 c-18 -37 -37 -89 -43
-116 -6 -27 -15 -49 -20 -49 -4 0 -8 4 -8 8 0 5 -14 29 -31 55 l-31 46 21 83
c59 232 2 473 -162 691 l-67 89 31 30 c16 17 32 42 35 57 6 27 3 47 -6 44 -3
-1 -3 22 -1 50 3 46 2 50 -13 38 -14 -12 -16 -9 -16 28 0 22 -3 41 -7 41 -5 0
-20 -16 -35 -34 -17 -21 -58 -50 -102 -71 l-74 -37 -88 23 c-74 19 -115 23
-244 23 -178 0 -265 -17 -433 -84 -55 -22 -116 -40 -136 -40 -56 0 -161 28
-207 55 -23 13 -44 22 -47 18 -11 -11 25 -68 70 -110 l44 -42 -38 11 c-21 5
-51 17 -66 25 -39 20 -44 11 -18 -32 11 -20 21 -42 21 -50 0 -8 20 -30 44 -50
l43 -37 -34 -78 c-49 -114 -67 -220 -60 -360 3 -65 14 -143 25 -181 l18 -66
-48 -52 c-59 -65 -107 -151 -146 -261 -36 -104 -71 -266 -79 -371 -3 -44 -7
-79 -9 -79 -2 0 -28 9 -58 21 -50 18 -57 24 -65 57 -47 180 -66 245 -89 292
-38 77 -57 74 -101 -13 l-35 -69 -15 43 c-32 84 -66 76 -102 -22 -12 -33 -23
-58 -25 -56 -2 1 -15 59 -29 127 -28 131 -86 319 -111 358 -18 27 -55 29 -79
2 -10 -11 -32 -50 -50 -86 l-31 -67 -28 76 c-30 83 -59 127 -82 127 -15 0 -49
-67 -74 -145 -15 -47 -68 -113 -75 -93 -3 7 -19 60 -35 117 -42 143 -82 227
-111 236 -19 6 -29 1 -51 -26 -27 -31 -91 -181 -119 -276 -7 -24 -15 -43 -18
-43 -4 0 -14 22 -23 48 -10 27 -29 65 -43 86 -29 43 -31 81 -7 151 17 50 17
50 70 56 68 9 99 30 124 87 18 41 20 59 15 157 -6 110 -14 155 -26 155 -18 0
-150 -111 -176 -148 -27 -39 -30 -52 -30 -117 0 -52 5 -78 16 -91 14 -18 13
-23 -17 -72 l-32 -53 -7 33 c-4 18 -16 61 -27 94 l-20 62 41 51 c69 88 77 155
30 250 -34 67 -80 111 -219 210 -72 52 -86 58 -91 43 -10 -29 -24 -202 -24
-312 0 -90 3 -112 24 -153 31 -63 84 -99 156 -105 l53 -4 14 -107 c13 -100 9
-151 -12 -151 -20 0 -60 44 -60 66 0 38 -25 88 -55 112 -47 37 -99 46 -199 33
-49 -7 -93 -14 -98 -17 -13 -9 53 -122 98 -168 l40 -41 -41 -129 c-22 -71 -45
-131 -50 -132 -6 -1 -31 -5 -58 -9 -26 -3 -45 -10 -42 -14 2 -5 24 -4 47 0
117 25 513 20 581 -7 20 -7 120 -150 168 -239 42 -79 79 -192 79 -245 0 -16
-5 -20 -17 -16 -47 14 -365 28 -511 23 l-163 -5 -82 34 c-81 33 -124 43 -113
25 3 -5 18 -12 33 -16 16 -4 49 -16 76 -27 38 -16 51 -29 66 -62 24 -54 136
-158 214 -197 45 -23 199 -66 245 -69 1 0 2 -9 2 -19 0 -20 53 -71 73 -70 7 0
3 6 -7 12 -29 18 -56 46 -56 57 0 19 53 10 99 -16 77 -45 149 -113 227 -213
40 -52 71 -97 69 -99 -2 -2 -27 16 -57 40 -66 54 -193 120 -363 188 -71 29
-157 67 -190 84 -79 41 -82 42 -67 24 10 -13 -5 -18 -125 -42 -76 -14 -162
-26 -191 -26 -33 0 -51 -4 -47 -10 11 -17 105 -11 230 15 149 31 174 31 234 0
27 -13 107 -47 177 -75 230 -91 313 -146 484 -320 118 -120 235 -207 359 -265
34 -16 61 -32 61 -35 0 -3 -19 -18 -41 -35 -23 -16 -86 -77 -139 -134 l-98
-104 -159 68 c-167 71 -359 145 -376 145 -5 0 -28 20 -50 46 -22 25 -66 58
-98 74 -59 30 -184 80 -200 80 -5 0 -9 -20 -9 -44 l0 -44 -36 9 c-54 15 -307
69 -323 69 -35 0 7 -15 83 -31 46 -9 127 -27 180 -39 l96 -22 0 -92 c0 -78 4
-100 23 -137 33 -62 92 -101 161 -107 50 -4 57 -8 82 -43 14 -21 42 -50 61
-65 19 -14 32 -28 29 -31 -2 -3 -45 1 -95 8 -77 11 -92 16 -97 33 -10 34 -53
85 -84 101 -46 24 -129 18 -236 -16 -71 -23 -94 -34 -90 -45 12 -32 90 -124
126 -149 108 -75 207 -72 278 9 l33 38 92 -26 c51 -14 122 -30 159 -36 76 -12
98 -19 98 -31 0 -19 -71 -58 -150 -84 -47 -14 -115 -43 -151 -62 l-67 -36 -27
21 c-60 47 -145 47 -205 0 -55 -43 -127 -179 -155 -291 l-7 -28 93 6 c232 16
311 70 313 212 l1 63 45 15 c59 19 181 47 186 42 2 -2 -8 -29 -24 -59 -24 -50
-31 -56 -64 -61 -103 -14 -146 -81 -155 -241 -7 -122 -12 -117 88 -86 117 36
183 92 189 160 5 54 -1 79 -26 115 -31 46 -26 61 37 130 57 61 104 86 254 133
131 42 183 69 334 175 l68 48 140 -70 c591 -296 975 -469 1252 -565 243 -85
544 -160 773 -195 115 -17 121 -19 93 -31 -28 -11 -496 -170 -502 -170 -2 0
-3 16 -3 36 0 118 -113 141 -198 39 l-29 -36 -6 36 c-12 71 -82 127 -138 110
-50 -16 -97 -77 -123 -157 -5 -16 -8 -15 -30 7 -29 29 -48 31 -70 10 -19 -19
-39 -92 -32 -112 5 -11 2 -13 -11 -8 -40 17 -69 16 -93 -3 -21 -17 -25 -29
-24 -71 l0 -50 -50 -11 c-126 -28 -413 -72 -533 -83 -73 -6 -133 -15 -133 -21
0 -15 296 19 520 60 562 103 1002 237 2045 623 l189 70 27 -25 c50 -48 138
-52 207 -8 22 14 26 12 75 -32 29 -26 78 -59 110 -75 50 -23 55 -28 37 -34
-12 -4 -50 -27 -86 -51 -62 -42 -66 -44 -92 -30 -45 23 -97 29 -139 16 -27 -9
-69 -44 -140 -117 l-103 -104 58 -27 c120 -55 288 -39 351 34 38 42 47 77 34
125 l-10 37 76 36 c42 19 117 45 166 56 231 54 220 54 186 13 -15 -18 -28 -21
-72 -20 -97 1 -139 -37 -164 -146 -8 -34 -21 -95 -30 -135 -9 -41 -14 -76 -12
-79 9 -9 154 26 201 48 113 53 155 178 92 274 -15 22 -15 27 -1 48 26 40 59
63 159 110 53 25 110 55 126 67 34 24 35 22 15 -44 -21 -69 -19 -199 6 -309
22 -101 20 -158 -11 -240 -22 -58 -9 -63 14 -4 14 33 34 170 36 245 0 22 90
-58 111 -99 33 -65 21 -130 -35 -196 -26 -31 -193 -150 -199 -142 -10 14 -82
212 -90 251 -20 89 20 164 106 197 34 13 44 20 29 20 -32 1 -96 -33 -121 -65
-50 -63 -47 -139 8 -273 17 -40 36 -91 41 -112 6 -22 15 -39 21 -39 22 0 180
113 217 155 93 106 73 220 -53 306 -30 21 -35 29 -35 65 0 42 31 158 55 204
27 51 107 149 138 169 45 28 200 37 349 21 l115 -12 99 -83 c204 -171 424
-413 641 -705 71 -96 103 -131 103 -113 0 24 -222 318 -365 483 -99 113 -252
263 -353 344 -40 32 -71 60 -69 62 9 10 143 -33 222 -70 178 -85 283 -189 476
-473 109 -160 241 -313 297 -342 37 -20 24 5 -19 35 -67 46 -152 147 -269 318
-188 276 -301 389 -475 472 -162 78 -410 123 -614 111 -120 -7 -140 -15 -201
-78 -87 -91 -147 -237 -151 -369 -1 -39 -3 -35 -15 35 -16 93 -7 191 26 277
11 29 20 53 20 53 0 0 -74 -36 -164 -81 -194 -96 -269 -118 -393 -112 -99 4
-167 30 -238 93 l-40 34 81 -41 c97 -48 186 -60 269 -34 32 10 53 12 59 6 16
-16 79 -11 107 8 15 9 50 36 79 59 28 24 59 43 67 43 23 0 150 66 217 115 73
52 134 77 239 99 96 19 122 33 174 89 36 39 47 45 104 54 53 9 57 10 25 12
-33 1 -48 10 -102 62 -139 136 -327 254 -394 247 -28 -2 -44 -16 -56 -46 -1
-1 -36 12 -79 29 -95 37 -248 77 -324 84 -44 4 -33 0 49 -19 122 -28 253 -69
328 -102 52 -23 53 -23 47 -3 -17 53 44 60 134 14 86 -43 331 -233 331 -257 0
-3 -27 -9 -60 -13 -32 -4 -81 -12 -107 -19 l-48 -12 -110 57 c-118 62 -253
118 -405 167 -368 121 -763 144 -1378 81 -111 -11 -225 -24 -253 -28 -68 -11
-53 -1 71 44 163 59 275 117 395 206 61 44 136 94 168 111 157 79 355 106 538
74 129 -23 209 -78 209 -145 0 -51 -92 -110 -231 -148 -48 -13 -102 -18 -219
-18 -135 0 -160 3 -195 20 -111 55 -44 139 147 185 103 25 182 26 228 2 97
-48 0 -127 -149 -120 -72 3 -88 18 -44 42 20 11 23 15 11 16 -10 0 -27 -9 -39
-21 -20 -20 -20 -22 -5 -38 13 -12 36 -16 94 -16 63 0 85 4 122 25 24 14 51
37 60 52 14 26 14 29 -13 55 -25 26 -35 28 -115 31 -233 9 -441 -116 -338
-205 41 -35 100 -46 236 -45 146 1 246 19 343 64 83 38 117 75 117 127 0 102
-134 161 -368 161 -73 0 -154 -6 -200 -16 -97 -20 -237 -86 -324 -152 -154
-118 -303 -195 -523 -267 -120 -39 -223 -58 -415 -75 -69 -6 -149 -13 -177
-16 -29 -3 -53 -1 -53 3 0 17 75 45 133 50 31 3 57 10 57 15 0 6 -18 7 -42 3
-80 -12 -117 -25 -148 -52 -31 -26 -32 -26 -159 -20 -70 4 -150 10 -177 14
l-49 6 83 18 c47 10 114 35 155 56 147 76 165 84 218 99 38 11 132 18 324 23
251 8 276 10 360 35 120 36 229 91 361 182 296 205 395 266 476 296 76 28 93
31 203 31 204 0 331 -43 670 -228 295 -160 440 -219 576 -231 55 -6 73 -3 94
10 50 33 17 106 -78 167 -69 45 -119 62 -162 57 -44 -5 -47 -46 -5 -82 17 -14
39 -26 48 -26 10 0 1 10 -20 22 -39 22 -55 49 -42 69 8 14 74 4 118 -17 58
-30 134 -95 147 -126 12 -28 11 -32 -11 -50 -53 -43 -238 8 -485 134 -461 236
-510 258 -610 285 -85 23 -121 27 -235 27 -205 1 -238 -14 -596 -261 -308
-213 -460 -275 -680 -277 -139 -1 -164 9 -164 69 0 106 242 257 412 257 59 0
78 -14 78 -60 0 -27 -8 -42 -35 -68 -58 -54 -201 -95 -220 -63 -15 23 7 61 52
89 71 45 128 37 66 -9 -16 -11 -23 -21 -16 -21 20 0 67 46 59 58 -10 16 -61
15 -95 -2 -33 -17 -91 -81 -91 -99 0 -41 95 -50 167 -17 64 29 154 93 196 140
33 36 38 47 35 83 -3 35 -8 44 -37 61 -49 29 -145 25 -244 -8 -104 -35 -154
-61 -327 -171 -244 -156 -424 -232 -609 -260 -201 -31 -391 27 -546 165 -100
89 -145 116 -216 129 -161 29 -263 -82 -180 -196 61 -84 206 -122 267 -69 55
47 22 140 -63 178 -53 23 -97 17 -120 -18 -13 -20 -13 -29 -3 -54 7 -17 24
-40 38 -50 55 -44 125 -8 81 42 -17 20 -18 20 -8 2 15 -27 5 -54 -20 -54 -32
0 -81 48 -81 79 0 36 17 51 57 51 102 0 175 -116 107 -169 -36 -28 -96 -27
-159 3 -174 80 -137 259 49 244 83 -7 138 -35 236 -123 94 -83 161 -123 270
-157 63 -19 95 -23 200 -22 111 1 137 5 230 33 141 44 301 121 453 220 219
142 381 211 494 211 80 0 123 -27 123 -78 0 -22 -47 -88 -77 -107 l-24 -16 6
33 c20 107 -128 114 -324 16 -146 -73 -229 -180 -187 -242 9 -14 16 -27 16
-29 0 -3 -60 -7 -132 -10 -155 -6 -211 -20 -320 -83 -104 -60 -163 -81 -269
-100 -101 -17 -101 -17 -424 56 -93 22 -195 42 -225 46 l-55 8 45 14 c30 10
88 15 175 16 121 0 137 -2 229 -33 54 -18 118 -41 142 -51 24 -11 44 -16 44
-12 0 12 -178 78 -257 96 -91 20 -230 20 -308 0 -33 -9 -138 -19 -235 -24
-263 -13 -380 -50 -560 -181 -109 -79 -155 -101 -293 -145 -61 -20 -130 -47
-152 -59 -39 -22 -109 -91 -148 -145 -10 -14 -2 5 17 42 19 37 32 69 28 72 -4
2 -41 -2 -82 -10 -40 -7 -75 -12 -78 -10 -4 5 75 35 162 62 61 19 121 65 114
86 -7 21 -48 35 -148 53 -52 9 -120 25 -150 36 l-55 19 45 -5 c25 -3 69 -8 98
-12 28 -3 52 -2 52 2 0 4 -31 36 -70 72 -38 36 -70 70 -70 75 0 6 22 -10 49
-35 90 -84 214 -126 334 -112 31 3 57 4 57 1 0 -3 -14 -13 -32 -22 -31 -16
-95 -15 -143 2 -16 5 -18 4 -8 -6 6 -7 40 -14 76 -17 62 -5 66 -4 103 29 21
18 65 53 96 76 31 24 111 101 178 172 155 165 222 217 339 261 13 5 21 12 18
15 -3 3 -32 -5 -65 -19 l-61 -24 -88 47 c-196 103 -351 238 -458 400 -73 109
-190 230 -267 277 -40 25 -80 37 -168 53 -69 12 -139 32 -177 50 -110 51 -218
146 -237 208 l-8 23 49 -24 c26 -13 74 -37 106 -51 40 -19 57 -33 57 -46 0
-32 47 -53 204 -92 192 -48 275 -88 372 -180 41 -39 74 -66 74 -61 0 17 -104
109 -169 152 -70 45 -142 71 -281 101 -99 22 -172 50 -185 70 -12 20 1 22 41
5 20 -8 118 -35 216 -60 99 -24 205 -56 236 -70 31 -14 49 -18 38 -11 -16 13
-19 32 -21 158 -3 158 -17 231 -64 327 -16 34 -25 61 -20 61 5 0 29 -19 53
-43 55 -56 71 -103 101 -305 25 -170 56 -262 98 -299 23 -20 24 -21 -26 57
-24 38 -44 122 -62 253 -27 202 -62 282 -146 339 -22 15 -59 53 -81 85 -22 32
-57 78 -78 103 -114 139 -150 232 -180 470 -6 47 -13 96 -16 110 -7 42 24 -46
47 -133 22 -80 23 -81 33 -50 15 42 30 56 19 18 -4 -17 -8 -52 -7 -80 0 -81
40 -140 214 -320 86 -88 166 -177 179 -199 l24 -39 28 56 c28 53 62 94 44 51
-17 -43 -35 -109 -35 -131 0 -13 -4 -22 -9 -18 -6 3 4 -21 20 -52 16 -32 52
-120 79 -197 28 -76 68 -172 89 -212 21 -41 37 -74 34 -74 -2 0 -22 9 -44 20
-25 13 -52 39 -70 68 -29 46 -40 78 -94 272 -43 156 -92 245 -181 331 -131
126 -144 140 -169 188 -27 52 -33 49 -10 -7 9 -21 64 -84 133 -152 140 -138
168 -188 232 -414 23 -83 48 -166 56 -185 21 -50 78 -106 133 -130 25 -11 75
-44 110 -74 35 -30 102 -76 149 -103 58 -33 121 -83 197 -155 129 -123 195
-160 370 -209 65 -19 163 -57 240 -95 178 -87 433 -165 565 -172 98 -6 210 10
210 29 0 6 -7 7 -17 3 -66 -27 -174 -31 -277 -10 -135 28 -359 105 -467 160
-60 31 -161 71 -235 93 -203 61 -295 113 -409 233 -42 43 -46 50 -25 44 116
-35 203 -54 243 -54 71 -1 276 -92 487 -216 262 -154 360 -185 578 -185 177 0
227 16 546 175 320 159 447 205 583 213 107 5 139 -4 183 -55 25 -28 30 -42
30 -83 0 -36 4 -50 14 -50 23 0 77 26 180 85 121 70 163 88 171 75 9 -15 25
-12 25 5 0 9 12 21 26 27 22 11 28 10 40 -7 15 -20 16 -20 32 11 14 26 111 44
243 44 82 0 95 -3 117 -22 17 -16 26 -19 29 -10 6 16 16 15 61 -4 20 -9 46
-16 58 -15 42 4 319 -119 501 -222 34 -19 64 -33 67 -30 2 3 1 16 -4 29 -12
30 2 69 29 83 32 17 116 13 175 -10 97 -36 176 -98 401 -319 159 -156 241
-229 297 -264 116 -72 628 -306 628 -287 0 4 -75 40 -167 81 -204 89 -409 190
-483 238 -30 19 -152 130 -270 246 -224 221 -313 291 -416 326 -120 42 -214 9
-214 -73 0 -24 -7 -21 -182 68 -101 51 -225 108 -275 125 -94 33 -106 44 -84
79 8 12 15 8 36 -17 15 -18 30 -30 35 -27 4 2 10 22 13 42 8 46 61 133 81 133
33 0 378 -63 463 -84 104 -27 136 -47 378 -241 451 -361 655 -505 870 -610
144 -70 215 -99 215 -87 0 4 -37 23 -82 41 -123 50 -256 123 -418 232 -138 93
-248 176 -608 459 -87 69 -172 135 -188 147 l-29 23 30 -7 c71 -15 370 -117
485 -165 l125 -53 36 -67 c92 -168 246 -287 476 -368 127 -44 173 -55 173 -42
0 5 -17 13 -37 17 -149 27 -356 131 -464 233 -93 87 -181 212 -151 212 6 0 60
-23 120 -50 123 -56 152 -64 76 -20 l-51 30 9 67 c5 37 15 81 23 99 13 31 11
35 -33 111 -52 86 -75 133 -69 139 2 3 17 -14 33 -37 28 -41 100 -109 116
-109 5 0 31 34 58 75 50 78 83 153 95 218 12 61 28 57 21 -4 -23 -187 -46
-266 -106 -359 -36 -55 -47 -126 -31 -186 11 -41 76 -134 93 -134 6 0 -4 17
-22 37 -66 74 -81 173 -39 254 l22 44 17 -65 c22 -90 54 -146 114 -205 58 -55
216 -146 216 -123 0 8 -24 25 -52 40 -83 40 -171 111 -206 163 -18 27 -32 52
-32 55 0 10 92 20 187 20 45 0 85 5 88 10 7 11 -55 12 -190 1 -54 -4 -93 -3
-97 3 -3 5 -9 33 -13 62 -5 43 -1 68 20 131 15 43 31 114 38 158 11 80 11 80
51 100 23 11 52 36 64 55 32 47 25 110 -22 213 -20 43 -36 84 -36 92 0 29 -18
22 -88 -36 -87 -72 -112 -109 -112 -167 0 -53 19 -92 65 -130 l36 -29 -26 -68
c-26 -70 -84 -174 -109 -194 -12 -10 -23 -4 -61 33 l-47 45 29 38 c82 104 84
191 5 266 -31 29 -230 147 -249 147 -8 0 -13 -13 -13 -35 0 -19 -7 -79 -16
-134 -18 -112 -10 -177 27 -237 24 -39 91 -74 142 -74 35 0 38 -3 81 -77 34
-59 42 -81 35 -97 -4 -12 -13 -40 -19 -63 -9 -37 -15 -44 -48 -53 -20 -5 -42
-10 -48 -10 -5 0 -84 31 -175 69 -195 82 -430 159 -624 206 -154 38 -401 85
-443 85 -26 0 -27 2 -26 51 1 32 8 57 18 68 15 14 19 12 55 -29 37 -43 39 -44
109 -48 41 -2 72 0 72 5 0 6 24 5 58 -2 95 -19 104 -10 78 75 -7 25 -16 57
-20 72 l-6 27 49 -6 c48 -5 49 -5 56 26 3 17 4 45 0 61 -7 30 -6 31 82 71 353
164 820 296 1148 324 39 3 93 9 120 13 l50 6 -45 6 c-42 5 -45 7 -53 45 -27
126 -91 374 -120 461 -52 155 -91 216 -131 201 -24 -9 -62 -101 -94 -225 -29
-115 -32 -124 -39 -104 -3 7 -15 25 -27 39 -28 32 -59 25 -78 -17 -7 -17 -16
-30 -19 -30 -4 0 -15 23 -25 50 -30 83 -64 108 -97 72 -39 -42 -108 -247 -158
-462 -12 -52 -24 -99 -27 -104 -2 -5 -15 16 -27 46 -69 169 -108 144 -163
-103 -18 -82 -31 -123 -42 -127 -8 -3 -69 -29 -134 -58 -66 -30 -120 -53 -121
-51 -1 1 -7 55 -14 120 -14 136 -68 410 -107 545 -15 51 -25 94 -23 96 2 2
115 65 252 139 506 276 824 397 1170 445 67 10 118 20 112 23 -8 5 -111 -6
-225 -23 -20 -3 -26 8 -60 107 -103 304 -138 338 -197 191 -17 -43 -37 -105
-44 -137 -7 -33 -16 -59 -19 -59 -3 0 -13 28 -23 63 -53 180 -118 317 -151
317 -42 0 -88 -130 -149 -425 l-13 -60 -24 42 c-25 46 -53 62 -74 44 -11 -10
-33 -59 -52 -120 -3 -11 -9 -8 -21 10 -23 33 -34 39 -54 29 -23 -13 -41 -62
-90 -242 -43 -161 -62 -198 -82 -165 -65 102 -73 112 -97 112 -32 0 -60 -50
-93 -164 -23 -80 -44 -111 -74 -111 -7 0 -13 5 -13 11 0 22 -87 196 -128 255
-22 33 -68 86 -103 119 l-63 60 -1 155 c-1 137 -5 165 -28 243 -29 95 -72 186
-120 256 -26 39 -28 45 -13 53 22 12 66 79 59 91 -3 5 3 26 12 48 10 22 16 42
13 45 -3 3 -25 -8 -49 -25 -24 -16 -55 -33 -69 -37 -23 -6 -22 -3 13 36 48 52
83 130 60 130 -5 0 -22 -11 -39 -25z m3 -52 c-37 -69 -137 -132 -210 -133 -21
0 -83 7 -138 17 -85 14 -110 14 -170 3 -96 -17 -212 -76 -283 -144 -47 -46
-58 -52 -63 -38 -26 69 -98 132 -169 147 -53 10 -120 -13 -174 -62 -55 -49
-75 -50 -110 -6 -28 36 -25 46 10 28 43 -22 49 -18 13 10 -27 21 -62 85 -47
85 3 0 20 -11 38 -25 44 -34 64 -32 26 3 -17 15 -34 41 -39 58 l-9 32 41 -28
c49 -33 126 -56 217 -65 80 -8 144 -35 192 -82 l37 -36 30 26 c52 43 143 94
211 118 53 18 98 23 245 29 192 8 248 21 325 74 19 13 36 23 38 21 2 -2 -3
-16 -11 -32z m-402 -30 c25 -8 15 -11 -68 -21 -121 -15 -188 -40 -290 -108
l-81 -54 -30 29 c-36 33 -82 58 -140 75 l-41 12 60 23 c126 48 216 61 395 57
91 -3 178 -9 195 -13z m455 -40 c-1 -15 -36 -52 -74 -77 -45 -30 -27 -35 22
-6 17 11 32 16 32 11 0 -16 -79 -80 -107 -87 -47 -10 -60 -16 -45 -21 7 -3 27
0 44 6 26 9 35 8 50 -5 32 -29 126 -235 143 -313 20 -92 29 -251 18 -311 l-8
-45 68 -65 c83 -77 143 -160 191 -260 31 -64 34 -75 21 -83 -26 -14 -83 12
-117 54 -17 21 -33 38 -34 36 -2 -1 3 -21 11 -42 21 -59 19 -158 -3 -185 -16
-20 -24 -22 -57 -16 -30 6 -54 23 -104 74 -35 36 -62 58 -58 49 14 -36 17
-163 5 -197 -11 -30 -18 -35 -48 -38 -45 -4 -112 38 -166 103 -36 44 -39 53
-42 120 -7 140 40 268 132 360 30 31 48 55 40 55 -8 0 -37 -22 -64 -49 -123
-123 -159 -301 -105 -517 59 -238 213 -451 458 -633 31 -24 57 -47 57 -51 0
-15 -171 -171 -183 -167 -7 2 -17 -9 -24 -25 -11 -25 -17 -28 -55 -28 -24 0
-56 0 -73 0 -16 0 -43 -1 -59 -1 -32 0 -101 44 -117 73 -5 10 -14 18 -20 18
-16 0 17 -42 56 -71 l35 -27 -47 -15 c-27 -8 -65 -18 -85 -21 -61 -11 -227 -8
-264 4 -26 9 -38 9 -48 0 -23 -18 -64 -2 -171 68 -131 85 -307 262 -384 386
-61 99 -111 216 -142 333 -23 87 -37 320 -25 416 l8 57 36 -28 c36 -29 75 -52
86 -52 3 0 6 9 6 20 0 26 3 25 49 -6 22 -14 59 -31 84 -39 50 -15 67 -7 67 32
0 13 2 23 4 23 2 0 27 -16 56 -35 29 -19 64 -35 79 -35 14 0 61 20 103 43 72
42 77 43 104 29 58 -30 206 8 305 79 50 36 26 32 -37 -6 -58 -35 -167 -75
-205 -75 -10 0 -36 7 -57 15 -38 15 -38 15 -117 -30 -44 -25 -87 -45 -95 -45
-19 0 -99 50 -119 73 -18 22 -31 12 -31 -23 0 -16 -5 -32 -10 -35 -15 -9 -78
13 -131 46 -54 34 -59 35 -59 9 0 -32 -17 -24 -80 35 -94 91 -149 220 -165
388 -8 84 1 98 28 42 20 -42 85 -91 140 -106 69 -18 163 11 226 70 19 17 36
29 38 27 3 -3 10 -43 17 -90 12 -96 30 -126 75 -126 36 0 104 65 156 149 l35
57 47 -44 c72 -70 141 -97 243 -97 74 0 93 4 150 31 117 56 187 150 211 286
26 142 -30 306 -138 410 l-58 55 55 11 c101 19 145 32 185 56 43 26 55 30 55
19z m-340 -83 c63 -32 152 -125 183 -192 83 -175 54 -374 -70 -488 -75 -69
-144 -93 -248 -88 -145 8 -228 71 -323 246 -61 113 -117 182 -148 182 -10 0
-34 -9 -51 -20 l-33 -20 0 40 c0 140 -125 228 -240 170 -48 -25 -51 -28 -57
-98 -14 -152 -2 -203 60 -241 40 -24 100 -27 137 -6 35 20 37 20 44 -25 3 -23
12 -49 18 -60 10 -16 8 -23 -12 -46 -34 -37 -117 -74 -165 -74 -65 0 -140 41
-175 96 -40 64 -40 125 1 248 63 189 161 331 247 356 91 28 186 -18 234 -114
11 -23 22 -43 24 -45 2 -2 34 25 71 60 69 64 150 112 233 136 70 20 215 11
270 -17z m-1420 -4 c0 -13 -11 -40 -25 -60 -30 -44 -17 -47 25 -5 17 17 33 29
36 26 7 -7 -23 -77 -44 -101 -19 -22 -1 -15 31 12 28 25 22 -11 -9 -47 -28
-34 -55 -39 -75 -15 -16 20 -75 50 -115 58 -86 19 -186 -46 -220 -141 l-18
-51 -36 28 c-54 42 -153 89 -227 106 -91 21 -185 13 -295 -25 -138 -49 -215
-39 -299 37 -27 24 -49 48 -49 52 0 5 19 0 43 -10 90 -40 159 -44 317 -21 80
12 163 21 185 21 61 0 150 -26 245 -71 l84 -40 34 41 c44 52 99 84 191 109 94
26 150 53 186 91 16 16 30 30 32 30 2 0 3 -11 3 -24z m-340 -66 c30 -6 61 -13
69 -16 7 -2 -14 -18 -48 -35 -36 -18 -76 -48 -97 -74 l-36 -42 -53 32 c-94 56
-154 70 -303 70 -72 0 -132 1 -132 2 0 7 177 56 244 68 90 16 267 13 356 -5z
m216 -101 c82 -39 200 -185 272 -336 30 -64 37 -89 37 -140 0 -52 -5 -68 -30
-105 -64 -90 -171 -116 -271 -65 -61 31 -82 53 -66 69 7 7 12 34 12 60 0 45 1
48 19 38 32 -16 103 -12 138 10 18 10 39 33 48 49 20 39 19 122 -1 169 -9 20
-19 53 -23 72 -5 27 -14 39 -41 52 -117 59 -236 -27 -228 -165 2 -48 1 -56
-12 -51 -8 4 -27 9 -42 12 -41 6 -78 -39 -118 -145 -56 -152 -87 -211 -132
-256 -64 -63 -126 -90 -223 -95 -113 -6 -179 20 -261 102 -78 78 -105 144
-112 272 -7 144 31 245 126 339 125 123 389 112 566 -24 29 -23 56 -41 59 -41
3 0 9 16 13 35 10 56 56 119 105 143 55 28 111 28 165 1z m3194 -131 c27 -67
117 -341 131 -397 3 -10 -33 -28 -116 -61 -66 -25 -153 -61 -194 -78 -41 -17
-76 -30 -78 -28 -10 9 81 445 118 566 11 36 29 81 41 100 l20 34 23 -26 c13
-15 38 -64 55 -110z m-2423 86 c32 -20 60 -69 68 -116 8 -46 -25 -121 -66
-151 -43 -31 -107 -33 -148 -5 -19 12 -36 30 -39 38 -4 12 -2 13 9 3 23 -22
84 -16 118 13 91 76 32 239 -75 206 -30 -9 -33 -8 -23 4 28 34 110 39 156 8z
m-1912 -31 c28 -8 88 -15 135 -16 l86 -2 -34 -44 c-157 -207 -126 -507 68
-642 165 -115 401 -73 502 89 l20 32 70 -75 c99 -106 153 -129 194 -84 16 18
19 34 16 115 -3 94 3 110 29 77 24 -29 111 -63 162 -63 90 0 162 47 202 134
l23 48 8 -47 c11 -76 -2 -233 -26 -310 -25 -80 -68 -153 -113 -191 -31 -26
-31 -26 -39 -5 -10 27 -19 26 -49 -5 -26 -28 -73 -58 -105 -68 -17 -5 -23 0
-37 34 l-16 41 -46 -50 c-26 -28 -55 -53 -65 -56 -19 -6 -175 49 -185 66 -3 5
-19 0 -34 -12 -58 -43 -173 -31 -295 31 -69 35 -87 33 -24 -3 63 -37 134 -59
210 -64 55 -5 73 -2 101 15 l34 20 63 -30 c34 -17 79 -32 99 -35 33 -5 42 0
89 42 l52 47 11 -31 c8 -22 17 -31 32 -31 26 0 81 31 119 67 26 25 26 25 33 4
9 -30 19 -27 72 24 25 25 47 44 48 42 1 -1 6 -15 13 -32 29 -81 37 -147 37
-320 0 -193 -9 -243 -71 -406 -70 -185 -250 -401 -439 -527 -76 -50 -117 -63
-130 -42 -4 6 -18 4 -38 -7 -47 -24 -235 -30 -304 -10 -29 9 -53 13 -53 10 0
-4 -3 -3 -6 0 -4 4 12 27 35 52 22 24 41 50 41 56 0 6 -21 -12 -46 -40 -31
-34 -54 -51 -69 -51 -13 0 -36 -5 -50 -12 -21 -9 -31 -9 -46 0 -14 9 -25 9
-39 2 -29 -16 -39 -12 -59 20 -10 16 -21 27 -24 24 -10 -10 -87 41 -152 100
l-60 55 40 32 c128 103 261 273 330 422 46 100 64 179 72 312 6 123 -7 196
-53 286 -43 86 -162 198 -197 186 -6 -2 2 -11 19 -20 48 -25 134 -125 165
-192 45 -95 62 -221 38 -268 -24 -47 -83 -108 -120 -128 -76 -39 -106 -5 -117
132 l-7 94 -28 -48 c-32 -54 -98 -107 -133 -107 -14 0 -30 10 -40 25 -20 31
-29 129 -16 178 6 21 7 37 1 37 -5 0 -9 -4 -9 -10 0 -5 -16 -28 -36 -50 -29
-31 -43 -40 -70 -40 l-33 0 15 53 c24 86 99 228 157 297 42 52 52 70 46 86 -4
12 -15 67 -25 124 -27 164 -11 308 53 467 l25 63 52 1 51 1 -55 12 c-63 14
-87 26 -114 55 -23 25 -22 25 29 6 68 -24 73 -16 8 14 -33 16 -67 39 -73 51
-11 21 -10 22 6 15 11 -4 42 -14 69 -22z m1797 -38 c19 -41 -28 -75 -60 -43
-16 16 -15 33 4 52 22 23 43 20 56 -9z m-3817 -45 c161 -116 214 -187 215
-283 0 -26 -7 -62 -16 -80 -23 -45 -63 -97 -75 -97 -16 0 -88 159 -104 230
l-15 65 4 -58 c3 -39 17 -85 45 -145 23 -49 41 -94 41 -99 0 -17 -43 -23 -82
-13 -45 13 -103 76 -117 127 -6 21 -11 70 -11 108 0 72 21 305 28 305 2 0 41
-27 87 -60z m6619 0 c30 -55 120 -309 113 -316 -3 -3 -47 -16 -98 -30 -52 -13
-102 -27 -111 -30 -13 -4 -21 9 -39 64 l-22 69 32 109 c40 136 67 197 83 192
7 -2 26 -28 42 -58z m-3412 0 c48 -14 56 -27 13 -22 -48 6 -95 -41 -95 -93 0
-100 110 -175 170 -115 28 28 26 1 -2 -35 -55 -70 -141 -66 -203 10 -45 55
-59 102 -46 152 14 52 38 82 75 99 38 16 42 16 88 4z m685 -26 c3 -8 1 -20 -6
-27 -14 -14 -47 15 -37 32 10 16 36 13 43 -5z m251 -32 c21 -22 121 -189 140
-234 5 -12 -83 -140 -119 -174 -46 -42 -64 -47 -91 -24 l-23 19 27 1 c31 0 74
39 139 125 47 62 46 71 -6 133 -21 25 -35 32 -61 32 -45 0 -97 -22 -130 -55
-33 -33 -44 -21 -44 48 0 33 7 59 24 85 47 75 100 91 144 44z m-864 -11 c14
-15 15 -24 6 -40 -13 -25 -33 -27 -54 -5 -21 20 -20 41 2 53 24 14 26 14 46
-8z m-82 -83 c7 -19 -2 -38 -17 -38 -21 0 -28 19 -15 35 15 18 26 19 32 3z
m-165 -67 c50 -36 79 -102 69 -156 l-7 -36 -30 25 c-29 25 -86 46 -122 46 -41
0 -68 -30 -97 -105 -11 -30 13 -62 104 -137 49 -41 64 -49 87 -44 22 4 27 2
22 -10 -11 -30 -41 -36 -80 -15 -37 19 -108 87 -150 143 l-21 28 25 62 c78
203 94 228 136 228 13 0 42 -13 64 -29z m-2594 -161 c3 -129 -32 -185 -123
-197 l-40 -6 31 61 c18 35 33 80 35 108 l4 49 -13 -50 c-18 -66 -55 -137 -70
-132 -19 6 -40 84 -33 121 10 54 61 123 128 172 l63 46 8 -43 c4 -24 9 -82 10
-129z m5649 93 l29 -51 -20 -107 c-12 -58 -21 -108 -21 -111 0 -2 -6 -4 -13
-4 -8 0 -30 39 -51 86 l-37 85 16 57 c19 66 41 105 57 100 6 -2 24 -27 40 -55z
m-2044 2 c15 -32 35 -156 27 -163 -10 -11 -25 21 -25 54 0 17 -7 53 -15 80
-18 58 -17 54 -7 54 5 0 14 -11 20 -25z m176 -23 c6 -10 -111 -142 -125 -142
-21 0 -8 68 21 108 25 35 36 42 64 42 19 0 37 -4 40 -8z m1707 -28 c17 -15
114 -232 107 -239 -11 -10 -248 -124 -248 -119 0 30 82 319 102 357 11 21 17
21 39 1z m-2865 -161 c-3 -54 -5 -101 -5 -105 -1 -5 -6 -8 -12 -8 -13 0 -8
178 5 199 14 22 16 10 12 -86z m-90 2 c32 -25 65 -97 51 -111 -9 -9 -42 14
-102 69 -41 38 -47 48 -35 57 25 16 51 12 86 -15z m-3019 -82 c42 -20 73 -66
73 -110 l0 -32 -51 34 c-47 33 -118 60 -127 50 -3 -3 4 -7 14 -10 45 -14 120
-56 132 -75 10 -17 8 -21 -18 -35 -84 -43 -173 3 -244 127 l-27 47 23 5 c13 3
32 7 43 9 52 11 149 6 182 -10z m588 -76 c13 -30 40 -106 60 -170 32 -104 35
-125 30 -185 -4 -40 -2 -78 4 -94 6 -16 8 -28 5 -28 -2 0 -44 10 -92 22 -81
20 -91 25 -149 81 -35 33 -63 68 -63 78 0 42 100 296 132 337 23 28 49 13 73
-41z m6192 -17 c43 -88 184 -602 169 -617 -2 -2 -51 -10 -109 -18 -100 -13
-208 -30 -253 -40 -19 -4 -24 3 -39 56 -19 69 -19 72 31 279 42 176 81 310
105 368 28 64 55 56 96 -28z m-1085 43 c34 -40 66 -112 55 -121 -25 -18 -169
-93 -173 -89 -6 6 54 177 71 204 18 28 27 29 47 6z m-1962 -140 c-7 -37 -13
-107 -13 -155 0 -48 -4 -85 -9 -82 -4 3 -8 -13 -8 -34 0 -52 -10 -102 -21
-102 -5 0 -9 16 -9 34 0 19 -12 72 -26 117 -26 81 -26 84 -10 147 8 35 28 91
42 123 27 60 27 60 47 41 18 -19 19 -24 7 -89z m-2862 34 c6 -7 27 -54 46
-104 l36 -91 -23 -61 -23 -60 -29 97 c-15 53 -30 101 -33 105 -2 4 -15 1 -28
-7 -41 -28 -41 -25 -2 82 19 52 36 64 56 39z m-699 -72 c37 -38 79 -115 63
-115 -4 0 -16 15 -27 33 -10 17 -46 61 -79 96 -50 53 -55 61 -28 45 18 -10 50
-37 71 -59z m930 51 c20 -24 77 -206 105 -336 15 -69 31 -143 36 -165 5 -21 8
-41 6 -42 -2 -2 -84 24 -184 58 l-180 61 14 50 c30 99 86 253 111 302 41 83
67 103 92 72z m-1001 -29 l32 -33 -22 -62 c-22 -58 -38 -79 -38 -48 0 7 -10
45 -23 84 -20 62 -21 71 -7 80 22 16 23 15 58 -21z m95 2 c3 -13 1 -19 -6 -16
-15 5 -22 37 -9 37 5 0 12 -9 15 -21z m-146 -109 c18 -58 32 -112 32 -120 1
-12 -21 -15 -129 -17 -100 -2 -130 1 -130 11 0 7 16 62 35 122 l34 110 63 -1
63 -1 32 -104z m3532 7 c22 -45 47 -110 55 -144 19 -72 23 -250 7 -266 -19
-19 -50 23 -61 83 -6 29 -14 56 -19 59 -4 4 -11 38 -15 76 -9 88 -24 149 -48
198 -18 36 -18 39 -1 67 22 38 31 30 82 -73z m-3263 6 c-6 -6 -36 52 -36 69 1
7 10 -4 21 -25 11 -22 18 -41 15 -44z m6074 45 c24 -40 68 -178 118 -371 l39
-147 -36 -9 c-20 -6 -74 -19 -121 -31 -47 -11 -120 -32 -163 -46 -43 -15 -80
-24 -83 -21 -13 12 117 493 154 574 44 95 60 104 92 51z m-959 -26 c38 6 45
-8 88 -157 41 -142 47 -181 31 -200 -21 -26 -49 -17 -98 33 -67 67 -114 181
-117 283 l-3 77 34 -20 c22 -13 46 -19 65 -16z m-5212 -71 c39 -54 71 -101 71
-105 0 -9 -161 5 -182 16 -28 14 -24 47 21 161 6 15 12 27 15 27 2 0 36 -44
75 -99z m641 -25 c29 -103 30 -147 4 -183 -20 -26 -78 -53 -89 -41 -3 3 1 31
10 64 17 67 20 124 5 124 -5 0 -10 -18 -10 -41 0 -48 -19 -129 -30 -129 -15 0
-58 60 -65 90 -11 50 12 95 78 155 33 30 64 52 67 48 4 -5 17 -44 30 -87z
m5694 43 c20 -36 20 -37 -3 -140 -12 -57 -25 -111 -28 -119 -5 -15 -61 177
-62 213 -1 11 6 35 15 54 22 45 52 42 78 -8z m-1316 -99 c27 -7 43 -6 63 4 27
14 27 14 55 -48 42 -93 54 -143 54 -221 0 -77 -9 -95 -48 -95 -64 0 -125 66
-201 217 -46 92 -51 109 -51 169 l0 66 46 -41 c26 -22 63 -45 82 -51z m-264
-95 c61 -30 99 -27 119 11 12 23 15 20 61 -74 55 -110 76 -176 76 -245 0 -40
-4 -49 -24 -58 -20 -9 -34 -7 -79 14 -88 40 -191 184 -249 350 -37 105 -36
120 7 69 20 -22 60 -53 89 -67z m-1233 -58 c9 -46 35 -130 58 -188 34 -84 42
-115 39 -155 l-3 -49 -43 60 c-98 136 -148 290 -108 334 9 10 20 35 23 55 3
20 8 34 11 31 3 -3 14 -43 23 -88z m-2227 55 c14 -28 76 -233 91 -301 6 -30 5
-33 -11 -27 -11 4 -63 24 -117 43 -55 20 -101 42 -104 50 -3 7 9 53 27 101 62
166 84 191 114 134z m415 -240 c-31 -90 -66 -147 -105 -164 -59 -27 -68 44
-31 241 l22 114 38 2 c26 1 47 10 65 29 l27 27 6 -82 c6 -74 4 -91 -22 -167z
m-1295 214 c48 -14 90 -27 93 -30 3 -3 -7 -30 -22 -59 l-29 -54 -39 51 c-22
28 -54 66 -70 84 -17 17 -29 32 -26 32 2 0 44 -11 93 -24z m739 -43 c17 -46
17 -51 -2 -103 -20 -59 -27 -62 -84 -41 -34 13 -34 32 -2 117 42 110 56 115
88 27z m-346 -67 c103 -35 265 -93 358 -128 94 -36 212 -80 263 -99 l93 -34
-7 -150 c-5 -119 -10 -153 -22 -162 -22 -18 -25 -17 -42 20 -22 48 -59 44 -85
-8 -11 -22 -20 -41 -21 -43 -1 -1 -64 22 -140 51 -190 74 -279 103 -451 145
l-147 37 -15 40 c-7 22 -30 78 -49 123 -30 73 -34 92 -29 140 7 81 22 109 66
120 20 6 37 10 38 11 1 1 86 -28 190 -63z m1117 -185 c-45 -120 -80 -174 -132
-204 -64 -38 -92 1 -92 126 0 54 7 105 20 147 31 98 29 95 42 82 31 -31 111
-3 159 55 l24 29 11 -60 c11 -60 11 -63 -32 -175z m3375 189 c15 0 32 5 38 11
12 12 20 -19 52 -211 20 -121 37 -288 28 -280 -3 3 -32 79 -66 170 -33 91 -78
207 -101 259 -22 52 -40 96 -40 99 0 2 14 -8 31 -22 17 -14 43 -26 58 -26z
m-1922 -52 c9 -10 24 -18 34 -18 15 0 17 -6 12 -37 -16 -111 -122 -356 -148
-343 -18 9 -9 94 23 213 21 78 32 141 32 186 0 76 10 99 23 49 5 -18 16 -41
24 -50z m2472 42 c10 -17 29 -62 42 -100 34 -100 26 -115 -76 -151 -44 -16
-82 -29 -84 -29 -11 -1 38 214 63 274 18 44 31 45 55 6z m-3644 -76 c-33 -157
-100 -291 -182 -364 -54 -47 -104 -55 -124 -18 -21 38 -4 156 37 267 l37 101
22 -20 c12 -11 35 -20 52 -20 38 0 104 47 139 100 15 22 29 39 31 37 2 -3 -4
-40 -12 -83z m3066 -56 c58 -146 139 -370 139 -385 0 -23 -17 -14 -74 38 -63
57 -169 188 -243 299 -70 106 -70 107 -31 76 20 -15 52 -29 71 -33 46 -7 77
30 77 96 1 57 6 49 61 -91z m-1811 40 c0 -23 90 -165 151 -236 33 -40 59 -75
58 -77 -5 -3 -366 -85 -379 -85 -4 0 13 35 39 79 49 81 97 209 108 286 3 25
10 45 14 45 5 0 9 -5 9 -12z m1719 -233 c25 -33 75 -91 111 -129 l65 -69 -35
8 c-63 13 -173 71 -255 132 -82 62 -197 174 -158 154 12 -6 38 -11 57 -11 48
0 70 33 63 96 l-5 45 56 -83 c30 -46 75 -110 101 -143z m-3543 -36 c-19 -68
-49 -184 -66 -257 -18 -73 -34 -131 -36 -129 -8 7 -6 266 1 374 l7 101 32 -5
c25 -4 39 1 62 20 16 14 30 24 32 22 1 -1 -13 -58 -32 -126z m2193 -122 c47
-50 79 -87 71 -82 -33 18 -148 117 -207 177 -60 61 -62 64 -56 105 l5 41 50
-75 c28 -41 89 -116 137 -166z m2845 132 c49 -118 50 -169 0 -215 -19 -19 -44
-34 -55 -34 -17 0 -19 8 -19 93 0 50 -5 99 -10 107 -7 11 -10 -2 -10 -44 0
-59 -17 -136 -30 -136 -20 0 -60 45 -76 85 -16 43 -16 47 1 91 13 33 34 59 83
100 36 30 69 51 73 47 3 -5 23 -47 43 -94z m-4958 -46 c30 -22 71 -15 109 18
19 17 35 29 35 26 0 -3 -23 -50 -52 -104 -89 -170 -243 -381 -264 -361 -6 7
23 131 88 382 l42 160 12 -54 c7 -30 20 -60 30 -67z m-1416 70 l45 -8 3 -103
c2 -81 0 -103 -10 -100 -7 2 -51 15 -98 29 -47 15 -133 38 -192 52 -99 24
-330 114 -353 139 -11 12 529 4 605 -9z m1605 -159 c24 -18 37 -18 81 1 l35
15 -29 -38 c-43 -54 -180 -183 -232 -219 -50 -34 -112 -67 -149 -78 -22 -7
-20 -2 16 41 63 76 145 203 199 309 l49 98 5 -58 c4 -40 11 -61 25 -71z m4292
75 c117 -68 147 -91 167 -132 28 -59 21 -115 -21 -177 l-36 -54 -35 40 c-37
42 -57 83 -78 154 -8 31 -12 37 -13 20 0 -14 8 -47 18 -75 10 -27 28 -76 39
-107 l21 -58 -38 0 c-51 0 -101 35 -128 90 -27 52 -28 95 -8 235 8 55 15 103
15 108 0 11 4 10 97 -44z m-5434 -9 c201 -50 435 -134 688 -246 l55 -25 14
-75 c14 -82 10 -79 83 -58 16 5 17 1 11 -48 -3 -29 -10 -57 -14 -62 -5 -4 -84
-6 -177 -4 -192 6 -245 18 -398 95 -218 109 -321 214 -394 401 -25 64 -31 63
132 22z m2457 -114 c-44 -57 -200 -215 -200 -202 0 4 22 33 49 64 54 63 103
137 147 222 l28 55 8 -44 c7 -42 5 -48 -32 -95z m543 53 c80 -68 124 -98 272
-184 55 -32 95 -60 90 -61 -6 -2 -66 -8 -135 -14 -221 -20 -427 -59 -773 -146
-271 -68 -315 -75 -349 -58 -15 8 -38 14 -53 14 -14 0 -25 3 -25 8 0 4 57 45
127 92 120 80 267 211 324 287 23 30 33 34 169 63 80 16 168 36 195 44 28 8
58 15 68 15 9 1 50 -27 90 -60z m1520 -125 c26 -52 47 -97 47 -100 0 -9 -74 8
-101 24 -21 12 -86 97 -113 148 -3 7 3 23 15 37 l20 26 43 -21 c38 -18 48 -31
89 -114z m24 72 c7 -6 49 -166 44 -166 -6 0 -91 164 -91 176 0 4 40 -4 47 -10z
m-3867 -15 c5 -11 10 -32 10 -47 l0 -27 23 21 c13 12 26 22 30 22 4 0 7 -21 7
-46 0 -42 -2 -45 -21 -39 -38 12 -129 55 -129 60 0 3 7 21 14 40 17 40 49 47
66 16z m3713 -67 c26 -41 47 -80 47 -85 0 -12 -94 -3 -122 12 -9 5 -26 23 -39
40 l-21 31 38 39 c21 21 41 39 44 38 3 0 26 -34 53 -75z m-199 -79 c8 -30 1
-45 -19 -45 -8 0 -29 -13 -48 -30 -30 -26 -44 -50 -74 -129 l-9 -24 -17 27
c-22 33 -26 115 -8 149 17 31 59 50 94 42 18 -5 30 -1 44 13 24 27 30 27 37
-3z m-185 -14 c11 -7 11 -13 -3 -32 -9 -13 -16 -43 -16 -69 0 -59 -32 -147
-47 -128 -43 54 -54 123 -28 183 18 44 63 66 94 46z m-105 -28 c-4 -10 -10
-45 -13 -78 -7 -61 -24 -105 -41 -105 -5 0 -14 17 -21 38 -15 50 2 114 38 141
32 26 48 27 37 4z m-2855 -27 l23 -24 -42 -81 c-44 -85 -48 -88 -111 -72 l-27
6 30 77 c23 59 37 81 61 97 41 25 40 25 66 -3z m2378 16 c9 -6 7 -15 -7 -37
-11 -17 -20 -46 -20 -65 0 -39 -28 -120 -42 -120 -20 0 -40 74 -36 129 4 44
10 59 32 78 28 24 52 29 73 15z m161 -9 c49 -6 51 -23 6 -38 -57 -19 -86 -46
-114 -108 l-27 -60 -19 27 c-23 36 -24 114 -1 146 24 34 58 51 87 44 14 -3 44
-8 68 -11z m-329 -32 c-34 -46 -36 -117 -5 -166 l25 -40 11 33 c14 38 23 40
38 8 9 -21 8 -26 -7 -31 -9 -3 -69 -35 -132 -71 -99 -57 -172 -94 -186 -94 -2
0 -3 10 -2 23 5 58 -2 81 -39 117 -48 48 -104 64 -194 55 -142 -14 -229 -46
-598 -226 -309 -150 -368 -169 -512 -169 -209 1 -356 48 -567 179 -110 69
-236 134 -316 166 -38 15 -74 31 -79 36 -22 20 212 9 350 -16 75 -14 163 -28
196 -32 52 -5 62 -10 89 -42 16 -20 36 -55 45 -78 9 -24 21 -43 26 -43 5 0 17
13 26 30 9 16 20 30 23 30 8 0 29 -47 29 -65 0 -8 6 -15 13 -15 15 0 47 51 47
74 0 26 17 18 30 -14 7 -16 17 -30 22 -30 14 0 38 65 38 105 l0 35 106 0 107
0 43 -44 c25 -25 47 -57 50 -75 8 -41 26 -39 47 5 16 32 36 39 37 11 1 -7 7
-25 14 -42 l13 -30 24 48 c12 26 26 47 30 47 4 0 12 -13 18 -30 5 -16 12 -30
15 -30 3 0 13 14 22 31 18 36 21 108 5 138 -10 18 -8 21 11 26 13 3 64 14 113
24 50 11 142 33 205 50 272 70 633 138 743 140 l48 1 -22 -29z m54 -13 c-8
-23 -13 -53 -12 -67 1 -14 -4 -39 -11 -54 -13 -27 -15 -27 -27 -11 -29 40 -10
124 35 162 27 21 30 14 15 -30z m502 -32 l0 -74 -110 -1 c-60 0 -132 -5 -160
-10 -27 -5 -52 -8 -53 -6 -2 2 -1 13 3 24 11 34 64 80 101 87 19 3 39 15 44
25 10 18 38 24 130 27 l45 2 0 -74z m-2913 -36 c-29 -81 -46 -92 -37 -22 11
80 13 83 56 91 3 0 -5 -30 -19 -69z m268 -17 c0 -7 -15 -30 -33 -49 -32 -36
-34 -36 -86 -29 -28 4 -51 10 -49 14 2 3 20 39 41 79 l38 73 44 -38 c25 -20
45 -43 45 -50z m50 -18 c7 -8 10 -25 6 -39 -3 -14 -2 -27 3 -30 5 -3 11 8 15
25 l6 31 26 -21 c20 -16 31 -18 50 -11 29 11 77 -9 93 -38 21 -39 23 -88 5
-132 l-18 -44 -14 34 c-39 97 -106 154 -164 143 -15 -3 -43 -2 -62 1 l-35 7
27 44 c29 47 42 54 62 30z m2690 -17 c0 -5 -7 -8 -15 -8 -15 0 -20 21 -8 33 7
7 23 -11 23 -25z m-498 -30 c-15 -15 -24 -6 -16 16 5 12 10 14 17 7 8 -8 8
-14 -1 -23z m-1914 -10 c43 -47 52 -103 26 -168 -16 -39 -34 -53 -34 -26 0 7
-9 25 -20 39 -12 15 -20 40 -20 64 0 21 -9 52 -19 70 -14 23 -16 33 -8 37 27
11 55 5 75 -16z m432 6 c54 -32 73 -94 49 -163 -13 -37 -25 -40 -33 -8 -10 42
-65 96 -109 109 -70 20 -87 48 -29 48 15 0 38 7 52 14 33 19 37 19 70 0z m124
-15 c24 -28 32 -61 27 -114 -2 -26 -22 -75 -30 -75 -10 1 -39 71 -46 113 -4
20 -16 48 -27 62 -23 30 -16 45 22 45 19 0 36 -10 54 -31z m60 2 c30 -26 48
-79 41 -122 -4 -22 -10 -39 -14 -39 -12 0 -41 57 -41 82 0 13 -9 41 -20 63
-11 22 -20 40 -20 42 0 6 37 -12 54 -26z m-561 8 c34 -15 57 -60 57 -111 0
-40 -13 -79 -23 -68 -16 17 -37 74 -37 97 0 15 -9 43 -20 61 -21 34 -16 39 23
21z m201 -28 c14 -22 -125 -28 -144 -6 -11 13 -3 15 63 15 42 0 78 -4 81 -9z
m3806 -144 c0 -22 -11 -26 -36 -15 -18 8 -21 14 -12 20 20 12 48 9 48 -5z
m-6345 -174 c45 -18 98 -47 118 -64 67 -55 93 -136 66 -206 -10 -28 -57 -83
-70 -83 -4 0 -15 31 -24 69 -17 71 -71 198 -80 189 -3 -3 7 -31 21 -63 29 -63
65 -191 56 -199 -12 -13 -60 -5 -108 18 -91 42 -117 111 -108 279 8 124 -6
117 129 60z m540 -274 c94 -39 175 -75 180 -81 12 -12 -80 -99 -140 -131 -33
-18 -56 -22 -135 -22 -85 0 -102 3 -160 31 -36 17 -85 49 -110 72 l-45 40 31
34 c40 42 58 96 49 148 l-7 40 84 -31 c45 -16 160 -62 253 -100z m1046 -90
c46 -6 167 -30 269 -54 351 -83 403 -89 695 -89 187 0 295 5 385 17 143 20
151 20 128 6 -54 -31 -546 -209 -578 -209 -4 0 -10 14 -14 32 -3 17 -11 37
-17 45 -18 21 -56 15 -77 -12 -12 -15 -23 -21 -27 -15 -3 5 -15 15 -26 20 -15
9 -24 6 -44 -14 l-25 -25 -25 24 c-27 28 -37 30 -65 15 -29 -15 -44 -49 -50
-110 -6 -63 8 -57 -201 -89 l-116 -18 -50 23 -51 22 5 45 c4 37 1 49 -17 67
-21 21 -32 22 -79 9 -9 -3 -17 8 -23 28 -4 18 -17 34 -28 38 -23 7 -60 -2 -60
-16 0 -5 -4 -9 -10 -9 -5 0 -10 7 -10 15 0 26 -29 73 -48 80 -31 9 -50 -4 -64
-45 l-13 -38 -170 85 c-93 47 -172 87 -175 90 -7 7 21 21 90 43 147 47 321 61
491 39z m-1664 -19 c40 -18 83 -68 83 -97 0 -26 -144 -13 -245 22 -19 6 -19 6
-1 -9 25 -20 142 -46 210 -46 31 0 56 -4 56 -9 0 -18 -45 -64 -76 -77 -81 -34
-179 -1 -257 86 -77 85 -77 85 -4 109 135 45 175 48 234 21z m4630 -28 c135
-21 302 -62 430 -106 75 -26 332 -134 346 -146 5 -4 -45 -17 -110 -29 -65 -12
-186 -39 -269 -60 l-152 -38 -5 39 c-3 21 -11 45 -17 53 -16 20 -55 19 -75 -1
-19 -19 -19 -20 -31 31 -7 33 -13 40 -33 40 -29 0 -61 -54 -61 -103 0 -32 -1
-33 -22 -18 -12 9 -30 16 -39 16 -22 0 -59 -46 -59 -72 0 -16 -3 -17 -21 -8
-16 9 -28 9 -50 0 -32 -14 -45 -45 -35 -84 5 -19 1 -25 -18 -30 -13 -3 -31 -8
-38 -11 -9 -4 -19 4 -26 19 -32 70 -152 104 -284 81 -44 -7 -82 -16 -85 -19
-3 -3 16 -39 41 -81 26 -42 48 -81 49 -86 2 -11 -12 -16 -411 -163 -147 -54
-279 -96 -298 -96 -70 0 -309 42 -482 85 -222 55 -232 58 -225 83 7 28 -15 64
-36 60 -11 -2 -28 8 -39 22 -17 20 -23 23 -33 13 -19 -19 -25 -16 -39 17 -7
18 -22 33 -36 36 -31 8 -72 -18 -80 -51 -3 -14 -11 -25 -16 -25 -13 0 -318
122 -403 161 l-70 32 90 13 c321 45 767 173 1098 315 136 59 142 60 310 80
381 46 572 58 842 55 200 -3 290 -9 392 -24z m-3102 -173 c8 -15 15 -39 15
-54 0 -31 3 -31 34 0 14 14 32 25 40 25 22 0 39 -37 34 -76 -2 -19 0 -34 4
-34 4 0 8 4 8 10 0 15 57 41 75 34 30 -12 45 -63 26 -92 -6 -10 -44 5 -157 60
-135 67 -149 76 -152 102 -4 32 23 67 44 59 8 -3 21 -18 29 -34z m993 -41 c7
-7 12 -27 12 -45 0 -31 -3 -33 -57 -49 -104 -30 -256 -63 -266 -57 -13 8 0 92
18 120 9 13 25 23 40 23 27 0 64 -42 66 -74 1 -13 6 -7 13 18 7 22 20 44 28
50 23 14 48 -9 48 -45 0 -16 5 -29 10 -29 6 0 10 11 10 24 0 26 35 76 54 76 6
0 17 -5 24 -12z m2216 -40 c3 -13 6 -48 7 -78 0 -48 2 -52 11 -30 24 58 32 70
51 76 27 9 47 -15 50 -60 l2 -39 -135 -38 c-74 -21 -140 -38 -147 -39 -19 0
-33 56 -22 89 14 39 45 46 75 16 13 -13 24 -29 24 -35 0 -5 3 -10 8 -10 4 0 7
28 8 63 0 69 15 107 43 107 11 0 21 -9 25 -22z m728 -29 c17 -9 7 -16 -84 -52
-120 -49 -208 -101 -404 -238 -172 -120 -230 -148 -323 -156 -82 -7 -145 10
-233 63 -54 33 -56 36 -56 78 0 51 -24 40 289 130 253 72 457 124 629 161 132
27 154 29 182 14z m218 7 c0 -45 -80 -92 -216 -126 -118 -30 -150 -45 -239
-111 -56 -42 -131 -80 -190 -99 -22 -7 -56 -27 -75 -45 -63 -58 -92 -75 -126
-75 -47 0 -50 16 -7 39 21 10 110 69 197 130 215 150 397 238 571 276 66 15
85 17 85 11z m-5641 -94 c19 -9 36 -21 38 -27 1 -5 -23 -22 -55 -37 -61 -28
-145 -95 -164 -132 -6 -11 16 4 50 36 55 50 152 108 183 108 8 0 10 -19 7 -63
-7 -119 -62 -158 -250 -179 -65 -8 -118 -10 -118 -6 0 13 47 132 69 176 62
121 154 169 240 124z m4488 -64 c13 -12 23 -25 23 -29 0 -10 -101 -39 -112
-33 -11 7 -10 42 2 65 14 26 58 25 87 -3z m-253 -32 c26 -15 50 -39 60 -60 16
-35 22 -90 8 -84 -4 2 -32 15 -62 30 -30 15 -68 30 -85 33 -34 6 -41 10 60
-37 22 -10 49 -25 60 -33 17 -13 17 -17 5 -29 -8 -7 -30 -18 -49 -25 -70 -23
-121 -9 -172 46 -28 30 -112 163 -107 168 11 12 114 23 171 20 50 -3 80 -11
111 -29z m-3984 -30 c0 -2 -21 -47 -46 -100 -26 -53 -45 -99 -42 -101 3 -3 27
40 53 95 27 55 52 100 56 100 12 0 36 -39 50 -78 28 -81 -23 -152 -140 -195
-105 -39 -101 -41 -101 61 0 103 23 163 79 199 29 20 91 32 91 19z m2205 -122
c10 -40 10 -41 26 -21 20 27 49 16 49 -18 0 -24 1 -25 24 -10 20 14 25 14 35
1 15 -18 5 -59 -12 -53 -7 2 -59 19 -116 38 -57 19 -106 40 -108 47 -3 6 2 24
12 38 13 20 23 25 48 22 28 -3 33 -8 42 -44z m2145 -194 c0 -5 -8 -10 -17 -10
-10 0 -55 -15 -100 -34 -99 -40 -99 -28 0 20 71 34 117 43 117 24z m154 -46
c13 -5 13 -9 2 -27 -40 -66 -86 -159 -72 -148 8 7 33 46 56 87 22 41 44 74 49
74 13 0 41 -76 41 -110 0 -69 -39 -121 -115 -155 -49 -22 -163 -51 -171 -43
-8 8 48 244 65 273 23 41 100 66 145 49z m-446 -40 l37 -15 -55 -49 c-30 -27
-78 -62 -107 -77 -28 -15 -50 -29 -48 -31 8 -9 96 40 155 86 35 28 68 48 72
46 12 -8 9 -86 -5 -114 -32 -64 -148 -101 -256 -81 -50 10 -108 30 -128 45 -6
5 167 177 192 190 39 20 96 20 143 0z m-1835 -24 c30 -24 47 -74 48 -140 l0
-45 23 50 c36 79 104 127 156 110 28 -9 52 -65 44 -104 -7 -34 -7 -34 -324
-120 -234 -64 -388 -100 -395 -93 -12 12 -4 87 12 104 23 26 47 22 86 -12 l34
-29 -5 54 c-5 57 10 110 33 119 23 8 54 -24 69 -72 13 -42 15 -44 15 -16 3
105 75 214 143 214 20 0 46 -9 61 -20z"/>
<path d="M6489 4455 c3 -72 0 -86 -13 -91 -23 -9 -61 29 -91 90 -13 28 -24 43
-25 33 -1 -46 84 -154 114 -144 30 10 45 91 30 166 -12 57 -19 32 -15 -54z"/>
<path d="M5620 4480 c0 -40 22 -121 39 -141 15 -18 21 -20 39 -10 23 12 57
107 50 139 -3 9 -10 -8 -17 -39 -14 -65 -32 -95 -53 -87 -17 7 -38 72 -38 122
0 20 -4 36 -10 36 -5 0 -10 -9 -10 -20z"/>
<path d="M6194 4402 c-1 -71 -17 -116 -37 -109 -19 6 -58 69 -70 115 -6 23
-15 42 -20 42 -16 0 32 -121 60 -152 20 -22 46 -23 63 -2 15 17 27 174 14 174
-5 0 -10 -31 -10 -68z"/>
<path d="M5835 4408 c10 -64 47 -132 73 -136 17 -3 25 4 36 30 18 43 28 136
15 143 -5 4 -9 -14 -10 -42 0 -59 -19 -118 -38 -118 -20 0 -53 68 -59 121 -2
24 -9 44 -14 44 -6 0 -7 -18 -3 -42z"/>
<path d="M6597 4215 c10 -62 8 -134 -5 -147 -16 -16 -65 31 -97 92 -13 25 -24
39 -25 32 -1 -39 79 -142 112 -142 9 0 23 10 29 22 14 25 7 136 -10 164 -9 15
-10 11 -4 -21z"/>
<path d="M6324 4100 c1 -96 -11 -116 -49 -80 -14 13 -37 48 -51 78 -30 63 -45
64 -16 0 40 -90 98 -133 122 -89 12 23 14 158 2 165 -5 3 -8 -30 -8 -74z"/>
<path d="M5800 4106 c0 -58 -13 -106 -29 -106 -14 0 -60 80 -67 118 -4 18 -11
32 -16 32 -12 0 -3 -31 29 -97 17 -37 32 -55 49 -59 31 -8 34 -5 45 43 12 51
11 110 -1 118 -6 4 -10 -15 -10 -49z"/>
<path d="M6059 4062 c-4 -40 -11 -78 -17 -84 -17 -17 -51 18 -83 87 -15 33
-28 53 -28 45 -1 -23 38 -102 61 -127 49 -52 81 -13 76 91 l-3 61 -6 -73z"/>
<path d="M6774 3975 c13 -33 18 -129 8 -144 -15 -21 -47 2 -87 62 -19 28 -35
46 -35 39 0 -8 14 -34 31 -58 49 -72 101 -84 112 -27 7 34 -9 124 -25 138 -8
7 -9 5 -4 -10z"/>
<path d="M6518 3822 c3 -55 1 -82 -8 -87 -15 -9 -55 28 -87 83 -14 24 -27 41
-30 38 -7 -7 25 -63 58 -101 58 -66 96 -35 85 69 -9 90 -23 89 -18 -2z"/>
<path d="M6256 3773 c3 -38 1 -74 -5 -82 -16 -24 -57 11 -90 77 -17 31 -30 50
-31 42 0 -9 15 -40 33 -70 35 -60 80 -87 97 -60 13 20 13 147 1 155 -6 3 -8
-21 -5 -62z"/>
<path d="M6013 3760 c2 -69 0 -75 -18 -75 -13 0 -34 21 -62 63 -49 73 -59 64
-12 -10 63 -98 116 -94 112 9 -4 89 -22 101 -20 13z"/>
<path d="M6270 5644 c-79 -34 -123 -106 -123 -199 -1 -135 108 -226 236 -196
88 20 140 75 155 163 6 35 14 45 47 63 47 27 54 41 22 49 -13 3 -45 26 -73 52
-27 26 -67 55 -89 65 -48 22 -127 24 -175 3z m169 -67 c47 -31 81 -91 81 -142
0 -81 -70 -157 -158 -171 -50 -8 -119 15 -148 48 -19 21 -19 21 1 13 62 -25
111 -11 159 45 54 65 24 192 -52 215 -50 15 -38 28 22 23 37 -3 68 -13 95 -31z
m-175 -43 c21 -8 20 -43 -1 -66 -20 -22 -31 -23 -55 -1 -44 39 -2 89 56 67z
m104 -110 c4 -27 -22 -38 -42 -18 -8 8 -13 21 -9 30 8 22 47 13 51 -12z"/>
<path d="M6484 5236 c-7 -28 4 -52 40 -85 l25 -24 36 27 c42 32 55 71 32 94
-13 13 -21 13 -41 4 -16 -7 -28 -8 -31 -2 -4 6 -17 10 -30 10 -18 0 -26 -7
-31 -24z m58 0 c11 -11 16 -11 34 1 18 12 23 11 35 -3 15 -19 6 -38 -34 -68
-26 -19 -27 -19 -48 0 -29 26 -40 50 -33 68 8 20 29 21 46 2z"/>
<path d="M4328 5450 c-50 -15 -96 -50 -134 -101 -20 -27 -48 -55 -62 -63 l-25
-13 24 -14 c13 -8 33 -19 44 -25 11 -6 22 -24 26 -40 19 -95 97 -158 194 -157
118 1 195 83 195 205 -1 144 -131 248 -262 208z m102 -39 c25 -8 25 -8 -7 -15
-118 -27 -125 -193 -11 -252 36 -19 88 -18 116 2 34 23 37 11 6 -25 -56 -67
-147 -83 -225 -40 -134 74 -110 272 37 324 44 16 49 16 84 6z m100 -71 c23
-43 -17 -83 -60 -60 -22 12 -27 49 -8 68 19 19 56 14 68 -8z m-105 -109 c0 -8
-8 -19 -17 -25 -22 -13 -44 5 -34 29 7 20 51 16 51 -4z"/>
<path d="M4280 5020 c-8 -6 -26 -8 -40 -5 -65 13 -68 -53 -5 -97 l40 -27 27
29 c33 36 45 75 28 95 -14 17 -29 19 -50 5z m37 -57 c-28 -54 -42 -59 -82 -29
-20 16 -35 36 -35 48 0 18 5 20 33 15 20 -3 40 0 52 9 16 12 21 12 33 0 12
-11 12 -18 -1 -43z"/>
<path d="M5252 4360 c-2 -3 -4 -35 -7 -72 -4 -74 -18 -110 -39 -102 -15 6 -56
92 -56 118 0 9 -5 16 -10 16 -19 0 17 -105 45 -134 9 -9 23 -16 31 -16 25 0
45 65 41 133 -2 34 -4 60 -5 57z"/>
<path d="M4390 4258 c0 -173 77 -182 135 -17 8 22 10 39 6 39 -5 0 -12 -12
-16 -27 -3 -16 -18 -47 -31 -70 -46 -79 -77 -47 -78 80 0 26 -3 47 -8 47 -4 0
-8 -24 -8 -52z"/>
<path d="M5038 4225 c-5 -61 -27 -115 -48 -115 -11 0 -50 104 -50 135 0 14 -5
25 -10 25 -19 0 16 -131 42 -160 19 -20 21 -20 39 -4 33 30 63 164 40 178 -4
3 -11 -24 -13 -59z"/>
<path d="M4687 4218 c8 -70 26 -119 47 -132 14 -9 22 -6 41 17 22 25 31 48 49
130 4 16 2 27 -4 27 -5 0 -10 -10 -10 -23 0 -36 -29 -113 -50 -132 -18 -16
-19 -15 -34 14 -9 17 -19 58 -23 91 -3 33 -9 60 -14 60 -4 0 -5 -24 -2 -52z"/>
<path d="M4327 3972 c-8 -45 -1 -103 15 -134 23 -45 82 4 113 92 23 65 12 58
-24 -15 -33 -67 -63 -95 -78 -73 -4 7 -10 49 -13 93 -5 75 -6 78 -13 37z"/>
<path d="M5222 3940 c-7 -34 -23 -71 -37 -87 l-23 -28 -12 30 c-6 17 -14 54
-17 83 -3 28 -9 52 -13 52 -21 0 15 -159 37 -167 22 -8 60 37 72 85 19 77 21
92 13 92 -4 0 -14 -27 -20 -60z"/>
<path d="M4601 3907 c-1 -64 20 -127 43 -127 22 0 62 54 81 110 9 28 14 54 11
57 -3 3 -7 0 -10 -8 -18 -64 -40 -110 -60 -128 -24 -23 -24 -23 -35 -3 -6 11
-15 51 -20 89 l-8 68 -2 -58z"/>
<path d="M4864 3893 c9 -77 25 -108 56 -108 20 0 30 10 48 46 13 26 25 64 27
85 4 34 2 31 -14 -19 -21 -64 -46 -107 -62 -107 -16 0 -39 66 -39 115 0 27 -5
45 -11 45 -8 0 -10 -17 -5 -57z"/>
<path d="M4176 3724 c-9 -24 -7 -90 4 -119 21 -54 59 -39 107 42 14 24 23 48
21 55 -2 6 -14 -9 -26 -34 -27 -54 -56 -83 -77 -75 -16 7 -20 34 -16 105 3 43
-2 54 -13 26z"/>
<path d="M4448 3674 c-21 -21 0 -157 26 -167 22 -9 55 21 81 73 37 72 30 85
-8 16 -33 -60 -60 -87 -74 -72 -4 4 -10 41 -13 83 -3 41 -8 71 -12 67z"/>
<path d="M4947 3643 c-11 -10 -8 -112 3 -134 27 -49 78 -4 120 106 18 49 -5
24 -28 -29 -28 -65 -57 -95 -74 -78 -6 6 -10 40 -10 76 1 67 0 71 -11 59z"/>
<path d="M4707 3632 c-13 -19 3 -130 20 -148 13 -13 18 -13 37 -1 25 17 80
122 72 140 -3 7 -8 2 -12 -12 -20 -68 -72 -136 -90 -118 -4 4 -10 40 -13 80
-4 44 -9 67 -14 59z"/>
<path d="M5945 5390 c-8 -13 14 -42 26 -34 5 3 9 14 9 25 0 20 -24 26 -35 9z"/>
<path d="M4791 5226 c-8 -10 -8 -16 3 -25 10 -9 16 -8 26 3 12 15 6 36 -9 36
-5 0 -14 -6 -20 -14z"/>
<path d="M2925 4016 c-11 -17 -13 -30 -6 -48 10 -27 87 -98 106 -98 15 0 74
79 82 109 3 13 1 31 -4 40 -12 20 -59 26 -78 11 -10 -8 -19 -8 -34 -1 -31 17
-49 13 -66 -13z m165 -6 c12 -22 -1 -53 -44 -104 l-24 -28 -46 42 c-36 34 -46
49 -44 69 3 30 39 41 64 20 12 -10 18 -9 32 4 22 23 49 21 62 -3z"/>
<path d="M5520 3690 c-25 -25 -25 -44 1 -86 23 -38 90 -94 112 -94 19 0 72 66
93 115 14 33 14 39 -1 61 -18 27 -60 32 -90 10 -17 -12 -22 -12 -39 0 -28 19
-53 17 -76 -6z m193 -11 c5 -9 7 -27 3 -42 -7 -28 -65 -108 -82 -114 -6 -2
-35 18 -63 45 -46 43 -52 54 -49 83 3 29 7 34 31 37 16 2 36 -3 46 -12 16 -15
19 -14 36 4 22 24 63 23 78 -1z"/>
<path d="M5440 2260 c-25 -25 -25 -57 -1 -94 19 -29 97 -96 111 -96 9 0 72 77
88 107 15 28 15 76 0 91 -17 17 -59 15 -86 -4 -20 -14 -24 -14 -44 0 -30 21
-44 20 -68 -4z m184 -3 c14 -10 17 -21 12 -43 -9 -37 -72 -124 -90 -124 -8 0
-35 20 -61 45 -41 40 -46 50 -43 83 2 30 7 38 26 40 13 2 33 -3 45 -11 20 -13
25 -13 46 4 27 22 41 24 65 6z"/>
<path d="M1788 5995 c-10 -22 -9 -29 10 -47 18 -19 25 -20 47 -10 16 8 25 20
25 35 0 50 -62 66 -82 22z m60 6 c21 -13 10 -46 -16 -49 -24 -4 -38 18 -28 43
6 17 24 19 44 6z"/>
<path d="M5200 5990 c-43 -43 -16 -111 71 -180 l52 -41 30 28 c74 70 107 161
71 197 -21 22 -67 20 -95 -3 -23 -19 -24 -19 -48 0 -31 24 -56 24 -81 -1z
m214 -6 c9 -8 16 -24 16 -35 0 -31 -35 -90 -74 -128 l-36 -35 -47 41 c-65 54
-91 102 -75 137 14 32 62 36 90 8 18 -18 20 -18 46 5 32 27 58 29 80 7z"/>
<path d="M3340 5749 c-18 -32 -4 -64 47 -108 l46 -41 28 25 c45 44 65 89 51
119 -12 28 -39 33 -74 15 -14 -8 -23 -8 -31 0 -18 18 -55 13 -67 -10z m65 -5
c15 -15 17 -15 34 0 41 37 79 4 56 -49 -7 -17 -24 -41 -39 -54 l-26 -25 -40
39 c-51 50 -55 99 -8 104 4 1 14 -6 23 -15z"/>
<path d="M7527 5752 c-23 -25 -21 -80 2 -116 18 -27 119 -116 132 -116 12 0
97 97 113 128 21 41 20 85 -2 105 -23 21 -81 22 -110 1 -20 -14 -24 -14 -44 0
-30 21 -71 20 -91 -2z m87 -13 l26 -20 26 20 c61 48 123 10 104 -61 -10 -34
-92 -138 -109 -138 -4 0 -29 16 -54 36 -79 62 -106 126 -70 166 21 24 44 23
77 -3z"/>
<path d="M2266 5729 c-24 -19 -27 -19 -48 -5 -12 9 -37 16 -54 16 -57 0 -81
-58 -49 -120 17 -34 116 -120 137 -120 19 0 90 76 112 118 47 90 -23 170 -98
111z m-53 -19 l26 -21 21 21 c36 36 110 18 110 -28 0 -30 -39 -97 -80 -137
l-39 -39 -58 51 c-71 62 -94 110 -69 148 20 31 54 32 89 5z"/>
<path d="M2970 5505 c0 -17 -8 -29 -25 -37 -14 -6 -25 -15 -25 -19 0 -5 11
-11 25 -15 17 -4 25 -13 25 -28 0 -33 11 -39 27 -16 9 12 26 20 44 20 29 0 39
13 19 25 -6 4 -8 21 -4 40 5 30 4 32 -18 28 -15 -3 -29 2 -37 11 -19 23 -31
20 -31 -9z m57 -15 c20 0 22 -3 13 -19 -7 -13 -7 -22 0 -26 18 -11 11 -27 -10
-22 -13 3 -25 -2 -35 -16 l-15 -21 0 21 c0 12 -9 27 -21 34 l-21 11 21 14 c12
9 21 23 21 32 0 12 3 13 12 4 7 -7 23 -12 35 -12z"/>
<path d="M7473 5125 c-14 -10 -24 -12 -28 -5 -9 14 -48 13 -63 -2 -25 -25 -13
-64 33 -107 24 -22 48 -41 53 -41 4 0 20 12 34 28 55 59 65 116 22 132 -31 12
-26 13 -51 -5z m-30 -20 c13 -13 16 -13 27 0 18 22 57 19 65 -5 9 -28 -41
-110 -67 -110 -19 0 -67 44 -79 71 -19 47 20 79 54 44z"/>
<path d="M3170 5103 c-67 -24 -44 -106 50 -175 40 -30 41 -30 62 -12 37 33 78
107 78 141 0 49 -54 71 -91 37 -16 -14 -20 -14 -48 0 -16 9 -31 16 -33 15 -2
0 -10 -3 -18 -6z m161 -13 c10 -6 19 -20 19 -31 0 -28 -33 -90 -64 -118 l-26
-24 -39 28 c-52 35 -73 68 -69 108 4 38 35 48 73 23 23 -15 26 -15 45 4 23 23
33 24 61 10z"/>
<path d="M7772 4605 c-16 -12 -27 -13 -41 -5 -26 14 -64 13 -79 -2 -7 -7 -12
-28 -12 -47 0 -30 9 -44 60 -94 69 -67 66 -67 132 16 26 34 38 59 38 81 0 57
-51 83 -98 51z m-42 -23 c23 -18 24 -18 42 0 23 23 66 20 82 -5 13 -21 -20
-90 -64 -132 l-29 -28 -38 33 c-67 58 -90 109 -61 138 17 17 42 15 68 -6z"/>
<path d="M1734 4240 c-12 -5 -25 -13 -29 -19 -4 -8 -13 -6 -28 4 -50 35 -106
-2 -91 -61 7 -29 98 -124 119 -124 19 0 83 73 100 113 17 41 10 69 -25 87 -21
11 -18 11 -46 0z m-62 -29 c24 -20 25 -20 42 0 20 24 64 22 79 -2 5 -9 7 -27
4 -41 -7 -27 -64 -103 -83 -112 -7 -2 -35 17 -63 43 -39 37 -51 54 -51 77 0
53 30 68 72 35z"/>
<path d="M1480 3896 c0 -2 25 -18 56 -36 56 -31 154 -115 154 -131 0 -9 -111
-44 -172 -54 -21 -3 -38 -10 -38 -15 0 -5 17 -6 38 -3 36 6 204 51 210 57 7 8
-109 119 -158 151 -47 30 -90 45 -90 31z"/>
<path d="M7692 3714 c-27 -18 -29 -64 -5 -100 9 -14 37 -41 61 -60 l46 -35 37
37 c41 40 69 90 69 122 0 46 -64 69 -100 37 -15 -14 -20 -14 -46 0 -36 18 -35
18 -62 -1z m183 -10 c24 -24 0 -87 -54 -138 l-30 -29 -44 36 c-51 41 -76 90
-60 116 14 23 51 26 73 6 18 -16 20 -16 41 4 27 25 52 27 74 5z"/>
<path d="M1770 3665 c-57 -33 -140 -58 -215 -65 l-80 -7 65 -1 c91 -2 184 25
260 77 23 16 -2 12 -30 -4z"/>
<path d="M2632 3359 c55 -107 74 -134 153 -214 69 -70 105 -99 155 -123 84
-39 124 -47 160 -32 75 31 57 120 -43 223 -140 143 -303 210 -323 133 -19 -78
176 -263 269 -254 26 2 33 8 35 30 6 53 -119 151 -151 119 -8 -8 -8 -14 1 -23
9 -9 12 -8 12 5 0 21 4 21 38 3 42 -22 94 -81 90 -102 -8 -46 -99 -13 -196 72
-87 76 -115 174 -49 174 74 -1 256 -132 319 -229 75 -119 -5 -180 -147 -113
-123 59 -228 171 -306 329 -28 57 -58 108 -65 114 -8 6 14 -44 48 -112z"/>
<path d="M3152 2790 c-123 -44 -192 -101 -308 -256 -47 -62 -97 -122 -112
-132 -15 -11 -88 -49 -162 -86 -135 -66 -178 -92 -169 -101 3 -2 28 11 57 30
28 20 92 53 142 75 122 52 159 82 242 192 98 130 161 192 237 232 69 35 159
60 186 50 37 -15 4 -47 -132 -128 -71 -42 -157 -102 -193 -134 -36 -31 -79
-67 -95 -79 -17 -12 -25 -23 -20 -23 6 0 59 40 119 89 59 49 146 111 194 137
48 27 102 62 119 78 76 65 13 99 -105 56z"/>
<path d="M6885 2789 c266 -28 551 -134 805 -300 125 -81 330 -250 445 -364
157 -157 275 -264 338 -307 61 -41 133 -77 155 -78 23 0 4 17 -25 23 -72 14
-302 202 -442 360 -87 99 -114 199 -61 227 98 53 373 -120 659 -414 62 -64
115 -115 118 -112 12 12 -206 230 -342 342 -123 101 -293 198 -367 211 -45 7
-96 -19 -104 -53 -7 -26 -1 -73 12 -109 4 -13 -8 -6 -37 21 -79 74 -252 208
-351 271 -272 176 -611 296 -822 292 l-61 -2 80 -8z"/>
<path d="M3470 1900 c-24 -24 -25 -41 -5 -79 14 -28 101 -111 115 -111 4 0 26
20 49 45 61 66 77 118 45 149 -20 20 -62 21 -84 1 -15 -14 -20 -14 -46 0 -38
20 -50 19 -74 -5z m186 2 c32 -22 11 -94 -44 -145 -36 -34 -49 -30 -106 33
-29 33 -37 48 -34 73 4 37 35 48 71 24 20 -13 25 -13 46 4 24 20 48 24 67 11z"/>
<path d="M7572 1815 c-16 -12 -27 -13 -41 -5 -34 17 -69 12 -86 -14 -14 -21
-14 -28 -2 -58 13 -31 99 -118 117 -118 14 0 82 82 96 116 18 44 18 50 -6 74
-24 24 -48 25 -78 5z m59 -5 c27 -15 24 -49 -9 -101 -53 -83 -68 -84 -136 -9
-41 45 -46 84 -13 104 13 8 24 7 48 -7 30 -16 32 -16 56 3 30 23 29 23 54 10z"/>
</g>
</svg>
