<?xml version="1.0" standalone="no"?>
<!DOCTYPE svg PUBLIC "-//W3C//DTD SVG 20010904//EN"
 "http://www.w3.org/TR/2001/REC-SVG-20010904/DTD/svg10.dtd">
<svg version="1.0" xmlns="http://www.w3.org/2000/svg"
 width="1024.000000pt" height="1024.000000pt" viewBox="0 0 1024.000000 1024.000000"
 preserveAspectRatio="xMidYMid meet">
<metadata>
Created by potrace 1.16, written by Peter Selinger 2001-2019
</metadata>
<g transform="translate(0.000000,1024.000000) scale(0.100000,-0.100000)"
fill="#000000" stroke="none">
<path d="M6377 8621 c-84 -43 -190 -140 -340 -311 -326 -371 -538 -722 -751
-1242 -15 -38 -15 -38 -72 -38 -89 0 -171 -27 -215 -71 -21 -21 -39 -47 -41
-60 -2 -17 -14 -25 -48 -33 -85 -22 -145 -89 -180 -201 -7 -22 -15 -44 -18
-49 -2 -4 -19 25 -37 65 -248 568 -699 1119 -1225 1496 -499 359 -905 487
-1046 331 -50 -54 -74 -142 -74 -272 0 -194 60 -397 193 -659 l92 -178 -17
-42 c-9 -23 -29 -71 -44 -107 -23 -55 -28 -79 -28 -155 0 -112 20 -192 79
-312 146 -297 496 -613 917 -828 l136 -70 6 -45 c4 -25 17 -64 30 -87 l24 -42
-75 -42 c-179 -98 -253 -241 -190 -366 50 -98 183 -190 361 -247 43 -14 89
-26 102 -26 13 0 24 -3 24 -7 -1 -5 -33 -30 -73 -58 l-72 -50 -185 -6 c-118
-4 -201 -11 -230 -20 -53 -17 -65 -45 -25 -55 l26 -7 -33 -34 c-27 -28 -30
-35 -18 -43 8 -5 21 -10 28 -10 6 0 12 -4 12 -10 0 -20 62 -9 122 21 34 17 77
31 95 31 38 0 57 -12 33 -20 -27 -9 -80 -70 -80 -91 0 -28 16 -27 115 5 112
37 159 61 183 93 16 22 58 43 175 90 86 33 159 61 163 61 4 0 -18 -18 -49 -40
-32 -22 -99 -73 -150 -113 -160 -128 -247 -178 -373 -216 -40 -12 -78 -29 -85
-38 -8 -9 -13 -36 -12 -64 1 -62 36 -123 104 -182 40 -35 50 -49 45 -65 -17
-53 50 -130 132 -151 27 -8 42 -17 42 -28 0 -46 71 -113 120 -113 51 0 -4
-117 -91 -191 -211 -179 -260 -257 -334 -539 -60 -225 -81 -287 -111 -327 -21
-28 -31 -33 -67 -33 -46 0 -99 -27 -116 -58 -6 -11 -33 -87 -61 -169 -68 -205
-67 -298 6 -371 28 -28 39 -33 62 -28 15 4 38 21 53 37 21 27 27 29 37 16 7
-8 26 -20 41 -27 53 -21 73 1 130 139 15 36 67 131 116 211 l90 145 315 314
c173 172 349 340 390 374 41 33 114 96 162 139 48 43 89 74 92 69 10 -15 69
-22 105 -11 25 7 46 6 77 -5 46 -15 82 -10 127 20 23 15 28 15 56 1 39 -21 53
-20 82 3 16 12 30 16 44 10 33 -13 93 -10 107 5 8 7 28 17 45 20 18 4 37 14
43 21 6 8 28 19 48 26 52 17 81 38 98 71 14 26 13 31 -4 56 -76 107 -92 189
-97 472 -4 259 -15 336 -66 449 -16 35 -29 71 -29 81 0 30 139 242 203 310 35
36 69 80 75 96 13 30 14 30 70 26 45 -3 61 -9 75 -28 22 -28 43 -31 51 -6 5
16 19 11 121 -40 151 -75 168 -78 250 -40 102 48 162 94 395 300 80 72 84 74
124 68 22 -3 77 -8 121 -11 l80 -7 105 65 c146 90 158 101 141 121 -7 9 -19
16 -26 16 -7 0 -15 9 -18 21 -5 17 -10 19 -44 13 -21 -3 -52 -19 -69 -36 -30
-28 -35 -29 -88 -23 l-56 7 30 28 c55 51 31 91 -37 60 -22 -10 -72 -23 -109
-29 -66 -10 -72 -13 -120 -65 -46 -50 -74 -66 -250 -151 -109 -52 -213 -107
-231 -121 l-33 -25 -76 41 c-71 40 -74 43 -59 60 9 10 28 20 43 23 38 8 102
64 118 103 17 40 18 88 3 117 -7 12 -36 48 -65 79 -30 31 -54 65 -54 75 0 27
25 59 75 93 59 41 85 85 85 146 0 85 -57 140 -193 187 -15 6 -8 18 45 79 218
252 368 521 429 774 28 113 30 263 5 347 -23 77 -19 113 36 287 57 179 85 312
98 467 11 122 2 259 -19 315 -26 68 -82 85 -154 49z m102 -30 c27 -27 41 -105
41 -229 0 -174 -40 -392 -115 -624 -38 -118 -41 -154 -20 -243 55 -226 -33
-525 -254 -861 -96 -148 -227 -306 -248 -302 -9 2 -20 10 -26 19 -8 12 4 33
57 95 141 168 260 379 329 584 70 207 83 335 47 476 l-20 80 34 105 c93 287
95 512 4 550 -81 33 -224 -76 -421 -324 -183 -229 -388 -569 -488 -809 -29
-72 -34 -78 -61 -78 -36 0 -37 -4 39 170 197 453 477 877 802 1213 109 113
221 195 269 197 6 0 21 -9 31 -19z m-3720 -88 c334 -95 890 -482 1232 -858
264 -290 455 -565 625 -905 l83 -165 -26 -27 c-15 -16 -30 -28 -34 -28 -3 0
-21 32 -38 71 -45 99 -161 305 -237 421 -310 467 -795 903 -1202 1082 -260
113 -433 96 -489 -49 -21 -56 -16 -194 13 -291 25 -89 91 -231 138 -301 l25
-37 -21 -34 c-85 -138 -96 -251 -41 -427 105 -334 394 -658 794 -887 57 -33
105 -61 107 -63 1 -1 -2 -13 -7 -26 -5 -13 -12 -32 -15 -42 -5 -17 -17 -13
-114 38 -126 67 -354 217 -467 308 -100 81 -277 263 -337 348 -138 193 -204
388 -178 530 6 35 25 92 42 128 45 99 42 119 -51 305 -137 274 -199 504 -188
690 7 101 41 185 89 220 55 40 156 40 297 -1z m3536 -303 c20 -38 20 -167 0
-268 -9 -42 -47 -169 -85 -281 -38 -113 -67 -207 -64 -210 6 -6 70 60 95 99
l17 25 11 -41 c9 -34 8 -50 -8 -95 -29 -85 -74 -168 -138 -254 -60 -80 -218
-239 -231 -233 -79 42 -114 53 -184 56 l-77 4 26 72 c66 185 195 376 265 391
27 6 36 3 56 -21 23 -26 24 -34 20 -115 -3 -72 -9 -98 -34 -145 -42 -83 -116
-128 -152 -92 -32 32 3 160 45 166 28 4 36 -22 18 -66 l-15 -37 20 24 c21 25
26 66 10 91 -16 25 -61 0 -87 -49 -29 -55 -30 -114 -3 -141 79 -79 219 96 220
272 0 114 -67 162 -148 106 -70 -49 -178 -229 -234 -390 -19 -57 -27 -68 -46
-68 -12 0 -25 6 -28 13 -13 36 118 324 206 451 58 84 135 166 156 166 21 0 17
17 -6 23 -106 28 -273 -191 -413 -543 -22 -55 -40 -86 -51 -88 -25 -5 -66 7
-66 19 0 23 152 323 232 459 192 325 457 643 588 708 58 29 66 28 85 -8z m54
-45 c23 -93 7 -236 -49 -425 -33 -110 -64 -176 -106 -225 -31 -37 -32 -40 45
184 33 96 67 217 77 268 16 92 16 207 -1 248 -8 17 -7 18 7 7 9 -7 21 -32 27
-57z m-3312 -36 c384 -119 903 -549 1260 -1045 102 -141 313 -516 313 -555 0
-17 -56 -6 -154 32 l-85 32 -37 96 c-188 490 -550 910 -786 911 -48 0 -98 -14
-98 -27 0 -5 26 -16 58 -25 181 -54 426 -311 567 -593 59 -119 130 -293 122
-301 -2 -2 -44 36 -94 84 -82 78 -97 98 -143 192 -72 145 -127 225 -218 315
-127 126 -262 177 -349 131 -103 -53 -126 -192 -54 -320 86 -154 293 -184 340
-49 13 37 13 43 -8 86 -17 35 -33 51 -66 67 -39 19 -48 20 -72 8 -40 -19 -45
-77 -9 -113 38 -38 52 -30 17 10 -36 42 -37 45 -12 76 17 22 20 22 56 8 111
-42 105 -187 -8 -206 -124 -20 -244 92 -255 237 -6 83 7 118 56 161 33 29 39
31 102 27 54 -3 77 -10 125 -38 123 -74 244 -220 340 -411 49 -96 62 -114 159
-206 58 -56 106 -104 106 -106 0 -3 -13 -8 -29 -12 -17 -3 -48 -19 -70 -35
l-40 -29 -103 49 c-57 27 -195 83 -308 125 -378 141 -558 243 -714 405 -103
107 -146 183 -127 227 6 15 20 39 30 53 l19 24 42 -38 c41 -37 146 -93 156
-83 3 3 -43 84 -101 181 -121 201 -159 280 -186 385 -34 132 -18 242 42 285
30 22 116 15 216 -15z m-274 -21 c-14 -25 -18 -56 -18 -128 0 -145 39 -245
202 -514 46 -76 82 -140 80 -142 -7 -8 -101 59 -146 104 -32 32 -64 81 -98
152 -120 244 -136 438 -46 533 36 37 47 34 26 -5z m3085 -510 c-98 -100 -211
-299 -279 -488 -31 -87 -40 -99 -66 -82 -15 10 30 129 109 286 85 169 162 274
233 317 54 34 55 20 3 -33z m-2210 -36 c101 -39 225 -145 351 -302 139 -173
240 -353 341 -609 l18 -48 -51 5 c-57 5 -87 24 -87 56 0 32 -61 189 -115 296
-133 265 -333 489 -520 580 l-80 40 47 0 c26 0 70 -8 96 -18z m2622 -238 c-57
-144 -176 -318 -269 -392 -41 -33 -43 -33 -62 -16 -19 17 -17 20 85 124 114
117 183 214 236 333 46 103 54 63 10 -49z m20 -91 c-40 -230 -200 -556 -377
-768 -54 -65 -58 -68 -61 -43 -5 41 23 84 104 163 141 137 170 295 53 295
l-39 0 78 78 c42 42 99 110 125 151 50 75 116 204 118 231 1 8 4 2 6 -14 3
-16 0 -58 -7 -93z m-3315 -172 c153 -145 320 -236 680 -371 256 -96 418 -169
411 -184 -3 -6 -10 -27 -17 -48 l-12 -36 -51 33 c-126 80 -296 154 -436 189
-292 72 -562 250 -700 461 -56 86 -65 112 -56 151 7 25 10 22 56 -48 27 -41
83 -107 125 -147z m-157 57 c79 -149 285 -320 498 -412 l75 -33 -50 -6 c-27
-3 -64 -13 -81 -22 -34 -18 -70 -69 -70 -100 0 -109 122 -225 238 -225 109 0
160 96 91 175 -57 65 -160 67 -167 3 -3 -27 27 -58 58 -58 8 0 0 9 -17 20 -37
22 -40 32 -17 54 45 46 154 -19 154 -91 0 -86 -107 -112 -210 -50 -44 26 -60
44 -84 90 -25 49 -28 63 -20 94 26 105 198 120 436 37 165 -58 388 -180 388
-213 0 -9 7 -26 15 -37 13 -17 14 -17 15 -1 0 26 11 21 72 -33 l57 -50 -3 -80
c-2 -91 -19 -123 -79 -153 -64 -32 -154 -1 -178 60 -11 29 10 86 36 101 28 15
-1 25 -38 13 -39 -13 -91 -64 -106 -104 -6 -16 -11 -48 -11 -73 l0 -45 -30 16
c-30 15 -39 38 -20 50 6 3 10 10 10 16 0 16 -26 10 -45 -11 -18 -20 -19 -20
-104 26 -461 249 -804 672 -844 1042 -3 23 -2 42 1 42 4 0 17 -19 30 -42z
m2522 -126 c-50 -32 -108 -101 -122 -143 l-14 -43 -22 22 c-28 28 -28 76 -2
122 l21 35 -26 -28 c-20 -22 -25 -39 -25 -79 0 -50 0 -50 -22 -36 -13 8 -31
30 -40 49 -12 21 -18 27 -18 16 0 -10 5 -28 11 -39 10 -18 9 -20 -7 -14 -11 4
-31 10 -47 13 -38 8 -40 16 -14 53 41 62 120 87 267 88 82 1 84 0 60 -16z
m190 -1 l45 -7 -62 -28 c-35 -16 -68 -35 -74 -42 -16 -20 -10 -18 62 16 87 40
200 57 274 41 57 -13 126 -57 153 -99 l15 -23 -48 25 c-36 20 -61 26 -104 25
l-56 -2 55 -7 c67 -8 109 -29 143 -70 57 -67 44 -144 -39 -246 -64 -78 -74
-99 -74 -155 0 -79 24 -100 192 -173 40 -17 64 -35 78 -58 40 -66 20 -125 -64
-187 -74 -55 -106 -96 -106 -134 l1 -32 13 30 13 30 7 -33 c5 -21 23 -46 51
-69 83 -69 91 -145 22 -210 -65 -61 -106 -70 -77 -16 37 69 17 132 -56 178
-76 48 -92 92 -58 157 45 87 37 142 -31 218 -35 40 -45 58 -45 86 0 19 -7 49
-16 65 -8 17 -13 33 -10 36 2 3 11 -8 19 -24 22 -40 73 -86 136 -119 82 -44
108 -97 76 -158 -9 -16 -13 -31 -11 -33 10 -10 36 58 36 93 0 43 -34 80 -127
136 -45 26 -72 52 -100 94 l-38 57 0 121 c0 119 -3 130 -43 209 -2 4 6 7 17 7
12 0 38 -15 59 -34 33 -31 37 -39 36 -83 0 -26 -5 -72 -12 -102 -8 -35 -9 -59
-2 -70 7 -12 9 -8 10 21 0 20 6 62 14 92 25 95 -18 177 -102 192 -20 4 -41 9
-46 12 -19 11 60 30 123 31 59 1 65 -1 97 -33 26 -26 34 -43 35 -73 1 -37 1
-37 11 -11 7 22 6 36 -9 65 -43 87 -127 104 -269 53 -116 -41 -183 -60 -214
-60 -48 0 -102 22 -141 57 -38 35 -39 36 -22 56 10 11 42 35 71 54 28 18 52
36 52 39 0 10 -81 -37 -115 -68 -48 -42 -61 -27 -31 37 25 53 50 80 106 114
37 22 94 26 180 12z m521 -142 c17 -17 20 -29 15 -61 -8 -48 -46 -126 -75
-152 -24 -22 -27 -12 -6 24 18 32 19 107 1 158 -8 22 -12 43 -9 46 13 13 54 5
74 -15z m-1021 1 c8 0 -10 -12 -40 -26 -60 -28 -86 -48 -102 -79 -7 -14 0 -10
23 11 49 45 94 65 161 71 66 7 76 -6 21 -26 -21 -8 -60 -37 -88 -66 -50 -52
-87 -70 -137 -66 -33 3 -43 -12 -44 -69 0 -25 -4 -53 -8 -62 -5 -11 -4 -18 3
-18 6 0 11 6 11 13 0 6 5 19 10 27 8 12 13 11 32 -8 21 -19 28 -20 55 -10 17
7 36 22 42 35 14 30 14 80 1 88 -5 3 7 22 27 43 86 88 146 113 213 86 55 -22
74 -60 67 -131 -10 -95 -79 -182 -199 -247 l-53 -30 81 80 c82 79 125 147 138
214 5 27 2 22 -17 -21 -36 -86 -63 -124 -130 -184 -116 -105 -220 -138 -417
-134 -181 3 -212 3 -252 -5 -50 -9 -124 -60 -143 -98 l-17 -33 31 36 c16 20
54 47 83 60 51 23 61 24 248 21 221 -3 251 2 453 78 26 10 47 16 47 14 0 -16
-70 -89 -109 -113 -82 -52 -132 -63 -296 -66 -113 -2 -160 -7 -190 -19 -47
-20 -91 -59 -112 -101 -12 -24 -7 -20 26 16 62 71 100 82 260 80 74 -1 137 -4
140 -7 11 -11 -97 -101 -153 -127 -30 -15 -84 -31 -119 -37 -130 -21 -171 -44
-215 -127 -37 -70 -74 -107 -126 -123 -44 -14 -111 -8 -159 15 l-32 16 23 -20
c31 -27 116 -43 166 -32 53 13 85 38 123 97 53 83 93 123 131 134 21 6 88 15
151 20 134 12 198 36 257 99 35 37 40 39 55 25 16 -14 16 -19 2 -60 -20 -60
-91 -136 -155 -167 -29 -14 -92 -44 -140 -67 -106 -49 -140 -88 -187 -214 -37
-97 -83 -148 -152 -166 -54 -15 -98 -6 -177 33 -59 30 -64 31 -89 17 -15 -9
-30 -26 -33 -40 l-6 -25 -12 22 c-7 12 -12 40 -12 62 0 33 7 49 36 81 39 42
82 60 150 60 36 0 114 23 114 34 0 2 -21 -2 -47 -9 -35 -8 -73 -9 -139 -2 -85
10 -96 9 -153 -13 -60 -22 -63 -22 -106 -6 -58 22 -110 82 -129 147 -19 62
-19 81 -5 132 12 44 29 49 29 9 0 -31 40 -75 78 -87 20 -6 82 10 82 21 0 2
-11 20 -25 40 -41 61 -31 148 23 197 19 18 20 17 15 -26 -5 -38 -1 -48 26 -80
73 -82 197 -74 265 17 17 22 22 47 26 134 3 59 11 117 17 128 34 60 122 101
198 91 38 -5 39 -5 20 10 -43 33 -146 75 -199 80 -66 7 -130 -14 -170 -54 -14
-14 -26 -20 -26 -14 0 23 29 68 64 98 80 71 170 69 357 -5 190 -76 246 -83
369 -47 67 20 120 44 120 55 0 6 -17 3 -37 -7 -21 -9 -54 -17 -75 -17 -20 -1
-34 -4 -32 -8 9 -13 -80 -30 -125 -23 -83 11 -88 15 -43 35 45 20 78 70 106
157 10 29 27 66 39 84 46 67 129 114 182 103 11 -2 27 -4 35 -4z m618 -167
c29 -42 48 -84 55 -121 7 -33 6 -33 -21 -27 -35 7 -82 -9 -82 -30 0 -18 7 -19
49 -4 39 14 60 0 54 -35 -4 -17 -10 -22 -27 -19 -13 3 -29 -3 -40 -16 -11 -12
-16 -21 -12 -21 3 0 -1 -11 -10 -25 -17 -26 -23 -99 -10 -113 4 -3 28 1 54 10
26 10 50 14 54 10 4 -4 13 -28 19 -55 18 -64 1 -122 -56 -202 -56 -78 -106
-122 -147 -130 -44 -8 -169 25 -249 65 -34 18 -88 57 -120 87 -47 45 -61 53
-82 48 -33 -9 -75 16 -106 61 -32 47 -31 63 6 79 29 12 33 12 50 -8 17 -19 17
-20 1 -14 -48 19 -54 19 -38 5 8 -7 20 -26 25 -43 7 -19 18 -31 33 -33 12 -2
22 1 22 6 0 5 -8 9 -17 8 -12 0 -19 7 -21 22 -2 12 1 22 7 22 6 0 11 -6 11
-13 0 -7 8 -13 18 -14 9 -1 36 -5 60 -9 41 -7 60 7 27 20 -25 9 -47 72 -39
114 11 58 52 132 101 179 51 50 81 110 84 171 2 23 5 42 6 42 2 0 18 -7 35
-16 44 -23 140 -20 208 4 72 27 75 27 98 -5z m-694 -64 c1 -36 -25 -69 -54
-68 -21 0 -62 55 -58 76 2 10 13 19 26 21 17 3 22 -2 22 -18 0 -13 5 -20 13
-17 6 2 12 10 12 18 0 16 16 30 29 26 5 -2 10 -19 10 -38z m-608 -170 l29 -11
-49 -18 -49 -19 -38 27 c-21 15 -39 31 -39 36 0 11 107 0 146 -15z m-123 -32
l38 -30 -20 -21 c-11 -11 -25 -34 -31 -50 -12 -32 -5 -35 -86 36 l-42 36 22
25 c25 30 57 48 71 39 5 -3 27 -19 48 -35z m1443 8 c-26 -19 -42 -19 -26 0 7
8 20 15 29 15 13 -1 13 -3 -3 -15z m-6 -75 c0 -5 -4 -10 -10 -10 -5 0 -10 5
-10 10 0 6 5 10 10 10 6 0 10 -4 10 -10z m-567 -54 c-3 -19 -1 -49 5 -65 10
-28 9 -30 -6 -22 -9 5 -28 21 -41 35 l-25 26 35 30 c19 16 35 29 36 30 1 0 -1
-15 -4 -34z m541 18 c9 -22 8 -24 -9 -24 -8 0 -15 9 -15 20 0 24 15 27 24 4z
m-709 -115 c8 -25 -49 -90 -106 -119 -31 -16 -140 -42 -147 -35 -1 1 22 14 52
29 34 17 75 49 108 86 56 62 82 73 93 39z m916 -168 c11 -38 10 -47 -14 -106
-44 -107 -46 -101 91 -224 24 -22 32 -38 32 -63 0 -44 -32 -94 -64 -100 -22
-4 -26 -2 -26 19 0 37 -26 90 -52 107 -13 8 -47 20 -75 26 -72 16 -77 26 -48
85 29 56 32 121 11 183 -14 38 -13 42 8 71 13 17 31 49 41 72 l19 41 32 -35
c18 -19 38 -54 45 -76z m-808 20 c-23 -99 -78 -168 -174 -216 -28 -15 -49 -29
-46 -31 9 -9 111 47 145 80 39 36 77 106 87 159 6 28 12 37 27 37 19 0 20 -5
16 -63 -6 -69 -23 -109 -69 -162 -24 -27 -39 -35 -65 -35 -20 0 -67 -18 -119
-46 -48 -25 -111 -50 -140 -56 -77 -15 -107 -50 -113 -128 -4 -57 -6 -60 -38
-70 -40 -13 -42 -23 -11 -45 l22 -16 -78 -76 -77 -76 -52 7 c-67 9 -106 26
-152 66 -33 29 -85 110 -71 110 3 0 22 -9 42 -20 50 -27 140 -27 192 0 53 27
105 90 130 159 43 118 99 170 259 239 131 56 188 113 226 225 6 17 7 17 36 1
24 -15 28 -23 23 -43z m116 -53 c11 -46 -4 -135 -25 -159 -20 -22 -85 -42
-108 -33 -14 5 -11 12 14 40 47 54 71 110 73 169 2 53 3 54 20 36 10 -10 22
-34 26 -53z m179 -87 l52 -24 0 -58 c0 -69 7 -90 27 -82 22 9 33 -15 33 -78 0
-97 -48 -131 -135 -94 -46 19 -138 106 -171 162 l-26 45 25 26 c32 35 47 83
47 149 l0 53 48 -37 c26 -21 71 -49 100 -62z m-1478 19 c10 -18 8 -20 -19 -20
-30 0 -71 38 -71 67 0 19 76 -20 90 -47z m1839 -7 c12 -62 4 -113 -27 -165
l-16 -27 -35 21 c-20 12 -37 23 -39 24 -2 1 8 20 23 42 14 21 27 55 29 75 3
37 29 87 45 87 5 0 13 -26 20 -57z m-79 -25 c-1 -21 -37 -95 -51 -104 -59 -38
-151 -27 -157 18 -2 13 2 36 7 51 10 25 12 26 73 21 45 -4 70 -1 88 9 32 19
40 20 40 5z m-587 -136 c29 -26 50 -117 43 -184 -8 -67 -21 -108 -39 -123 -7
-5 -27 -29 -45 -52 -37 -48 -82 -78 -129 -86 -44 -9 -58 -1 -83 39 -26 46 -25
58 6 83 34 27 21 27 -16 1 l-28 -20 -26 31 c-28 32 -32 62 -16 103 16 42 1 30
-18 -14 -17 -40 -17 -40 -41 -24 -21 15 -23 23 -19 71 6 70 27 91 109 110 35
8 88 28 117 45 85 48 145 55 185 20z m90 -32 c83 -147 251 -235 316 -166 31
33 43 86 32 135 -12 54 5 53 29 -1 17 -39 33 -93 76 -258 29 -111 14 -165 -74
-261 -44 -48 -185 -253 -195 -283 -2 -7 -34 -11 -83 -11 -116 1 -205 47 -290
151 l-36 44 22 46 c14 29 25 73 28 118 5 69 6 72 57 128 68 73 90 134 90 248
0 61 -5 94 -17 119 -10 19 -18 36 -18 38 0 1 8 3 18 3 10 0 28 -20 45 -50z
m1723 11 c-10 -11 -31 -25 -47 -31 -16 -7 -29 -16 -29 -20 0 -4 36 -13 80 -20
44 -7 80 -15 80 -19 0 -17 -32 -50 -53 -54 -19 -4 -18 -4 5 -6 23 -1 34 9 68
58 38 57 57 77 65 70 7 -9 -51 -114 -82 -146 l-33 -36 -134 7 -133 7 -52 -41
c-29 -23 -98 -80 -154 -127 -118 -99 -248 -187 -307 -208 -37 -13 -45 -13 -93
5 -69 27 -220 105 -224 116 -2 5 7 14 19 19 17 7 23 19 24 44 0 26 6 37 27 48
15 7 27 22 27 33 0 16 11 12 80 -27 71 -40 79 -48 74 -68 -5 -21 -1 -19 34 14
24 22 123 78 246 139 164 82 217 114 270 162 55 49 72 60 113 65 26 3 68 14
93 24 52 20 60 19 36 -8z m-1203 -34 c32 -20 77 -39 99 -42 23 -4 51 -17 64
-30 29 -29 48 -94 32 -112 -9 -11 -16 -8 -36 17 -32 39 -50 39 -21 1 23 -32
21 -63 -7 -106 -13 -20 -19 -22 -46 -14 -42 12 -50 2 -10 -12 18 -6 32 -12 32
-14 0 -2 -9 -24 -20 -49 -20 -47 -34 -54 -86 -40 -18 5 -22 15 -27 72 -3 45
-22 114 -57 210 -28 78 -48 147 -44 153 11 18 65 3 127 -34z m1427 14 c0 -4
-15 -28 -33 -52 -18 -24 -37 -53 -40 -63 -4 -10 -10 -17 -12 -14 -6 6 36 100
55 123 14 16 30 20 30 6z m-3240 -73 c0 -4 -9 -9 -19 -13 -10 -3 -39 -27 -64
-54 -147 -158 -31 -354 252 -426 36 -10 72 -19 80 -21 8 -3 -4 -17 -32 -39
l-45 -35 -94 24 c-115 29 -210 72 -292 130 -109 78 -147 167 -112 261 21 55
118 148 201 191 l58 32 34 -22 c18 -11 33 -24 33 -28z m220 22 c-35 -19 -110
-27 -124 -13 -9 10 69 30 119 31 l40 1 -35 -19z m3064 12 c2 -4 -17 -20 -44
-34 l-50 -27 16 25 c25 37 65 56 78 36z m-3126 -58 c2 -1 -2 -19 -9 -38 -11
-30 -18 -36 -42 -36 -36 0 -87 -49 -87 -84 0 -46 57 -75 88 -44 20 20 13 30
-10 14 -29 -21 -58 -4 -58 34 0 34 31 60 72 60 21 0 28 -5 28 -20 0 -10 8 -35
17 -54 22 -46 8 -78 -46 -106 -75 -38 -191 -19 -228 37 -37 55 8 164 91 223
38 27 45 29 111 23 39 -3 72 -7 73 -9z m661 -144 c42 -31 131 -155 131 -183 0
-9 -3 -23 -6 -32 -5 -13 -8 -14 -15 -3 -5 7 -9 22 -9 33 0 16 -6 21 -27 20
-26 0 -28 3 -28 40 0 34 -3 40 -20 38 -35 -3 -55 15 -52 49 2 28 -2 32 -33 41
-31 8 -32 10 -15 18 29 11 28 12 74 -21z m1266 20 c-3 -5 -15 -10 -25 -10 -22
0 -35 -16 -20 -25 20 -13 9 -36 -20 -42 -38 -7 -44 -17 -30 -43 14 -26 -2 -50
-32 -50 -14 0 -18 -5 -14 -15 3 -8 2 -24 -2 -36 -8 -20 -9 -20 -20 6 -11 24
-9 35 22 98 49 101 72 127 113 127 20 0 32 -4 28 -10z m-1794 -58 l26 -51 -28
-27 c-55 -53 -30 -124 43 -124 39 0 78 27 78 54 0 10 7 11 35 2 19 -6 35 -13
35 -16 0 -3 -14 -11 -31 -19 -18 -8 -61 -36 -98 -64 l-66 -50 -65 12 c-123 23
-254 92 -311 164 l-19 25 39 -19 c82 -39 198 -13 243 54 20 31 25 33 45 24 30
-13 41 -2 20 21 -20 22 -22 43 -5 60 19 19 30 10 59 -46z m481 -24 c2 -27 9
-35 36 -43 28 -8 32 -14 32 -42 0 -20 7 -36 18 -43 15 -9 15 -11 2 -19 -8 -6
-73 -53 -145 -105 -145 -107 -212 -142 -476 -251 -147 -60 -191 -83 -228 -118
-37 -35 -65 -49 -145 -75 -55 -18 -102 -30 -105 -26 -7 7 23 31 68 56 17 9 31
22 31 27 0 29 -153 81 -239 82 -57 0 -63 2 -41 11 14 6 108 14 210 17 l186 6
57 35 c31 18 128 87 214 152 105 79 193 136 263 170 87 43 116 63 175 124 38
40 73 73 77 73 4 1 8 -14 10 -31z m-410 -75 c46 -44 30 -93 -31 -93 -24 0 -61
33 -61 54 0 18 38 66 53 66 6 0 24 -12 39 -27z m721 -100 c-6 -66 -29 -126
-58 -153 -23 -22 -31 -23 -157 -21 -93 1 -150 -3 -188 -14 -89 -24 -92 -16 -5
14 98 34 148 59 209 105 25 20 50 36 55 36 5 0 19 15 31 34 15 26 29 36 53 39
69 8 65 11 60 -40z m-204 -32 c-28 -24 -159 -95 -159 -87 0 4 37 33 82 67 54
40 84 57 91 50 7 -7 2 -17 -14 -30z m272 -255 c72 -63 141 -90 231 -90 43 -1
78 -3 78 -6 -1 -25 -25 -35 -94 -38 -68 -4 -82 -1 -141 27 -67 31 -157 111
-184 163 -11 22 -12 30 -1 43 11 13 16 10 40 -23 15 -21 47 -55 71 -76z m-139
54 l20 -24 -73 -12 c-83 -14 -147 -37 -201 -71 -55 -34 -46 -36 20 -3 69 35
165 60 223 60 39 0 49 -6 93 -51 l49 -50 -24 -16 c-31 -21 -128 -122 -141
-148 -6 -11 18 8 52 43 35 35 78 74 96 88 l32 25 39 -19 c21 -11 58 -25 82
-32 l44 -12 -6 -106 c-4 -69 -15 -139 -31 -197 -14 -49 -24 -91 -22 -92 6 -7
47 113 61 182 8 39 15 103 15 143 l0 72 31 0 c25 0 32 -6 45 -37 9 -20 22 -69
31 -107 8 -39 17 -73 20 -76 12 -11 -7 108 -27 164 -11 32 -17 62 -14 67 13
21 32 5 57 -48 51 -109 59 -161 66 -417 l6 -240 -26 -25 c-22 -22 -30 -25 -53
-16 -55 19 -89 -42 -46 -85 16 -16 19 -25 11 -33 -15 -15 -14 -50 1 -65 17
-17 58 -15 78 3 13 12 23 13 44 6 14 -6 32 -8 39 -5 8 3 24 -11 40 -35 l27
-40 -34 -26 c-61 -47 -144 -57 -245 -31 -29 8 -55 16 -56 18 -2 2 4 35 15 74
25 95 40 230 39 339 -2 108 -16 72 -18 -45 -1 -84 -24 -238 -47 -317 -14 -48
-18 -53 -43 -53 -15 0 -68 -14 -117 -31 -112 -40 -194 -43 -271 -9 -57 24
-132 97 -160 154 l-16 36 86 81 c107 99 198 220 266 349 66 127 65 141 -2 22
-74 -131 -156 -238 -258 -337 -49 -47 -92 -85 -96 -85 -4 0 -24 30 -43 68 -72
139 -227 258 -351 270 -27 2 -49 7 -49 11 0 7 75 72 130 113 19 14 103 63 185
108 149 82 239 139 231 148 -3 2 -24 -9 -48 -26 -24 -16 -99 -58 -168 -92
-161 -81 -249 -138 -327 -213 -60 -57 -65 -60 -109 -58 -78 2 -128 32 -232
140 -54 54 -108 102 -122 106 -21 7 -16 10 42 30 37 13 95 38 130 57 l63 35 0
-39 c1 -29 -3 -38 -15 -38 -10 0 -25 -9 -35 -20 -33 -36 7 -100 55 -87 13 3
19 -2 23 -22 3 -15 17 -33 32 -41 23 -12 30 -12 53 1 21 11 27 23 27 47 0 26
4 32 22 32 33 0 59 44 44 76 -13 29 -49 45 -73 33 -24 -13 -27 -11 -21 11 7
28 -21 68 -51 72 -21 3 -4 19 114 113 254 202 416 266 664 262 101 -2 109 -4
128 -27z m-1342 -174 c0 -12 -82 -57 -101 -54 -20 3 -18 6 17 31 32 22 84 37
84 23z m58 -14 c8 -6 -9 -19 -55 -40 -94 -44 -95 -36 -4 35 19 14 41 16 59 5z
m406 -198 c12 -32 5 -50 -23 -61 -21 -8 -32 -8 -40 0 -12 12 -15 60 -4 70 13
13 61 7 67 -9z m90 -70 c34 -34 5 -80 -42 -67 -17 4 -22 13 -22 38 0 44 34 59
64 29z m-154 -14 c13 0 18 -48 7 -59 -26 -26 -77 -5 -77 31 0 20 29 40 48 33
8 -3 17 -5 22 -5z m75 -15 c0 -13 -8 -21 -22 -23 -17 -3 -23 2 -23 16 0 10 3
22 7 26 13 13 38 1 38 -19z m-336 -35 c12 0 231 -234 231 -247 0 -8 16 -31 35
-50 33 -33 38 -35 90 -31 53 3 55 2 54 -22 0 -14 -10 -63 -22 -110 -21 -80
-23 -85 -47 -82 -41 6 -69 30 -93 79 -18 39 -29 49 -67 62 -25 9 -55 21 -66
28 -29 16 -54 72 -47 104 4 22 -2 32 -37 60 -53 43 -95 102 -110 158 -15 56
-2 73 43 60 18 -5 34 -9 36 -9z m361 -51 c0 -22 -6 -30 -25 -35 -33 -8 -57 12
-53 45 2 17 11 27 28 32 33 8 50 -7 50 -42z m72 -196 l123 2 73 -39 c49 -26
91 -59 127 -99 57 -63 145 -217 124 -217 -19 0 -59 41 -59 61 0 38 -10 48 -44
42 -39 -6 -64 14 -73 59 -4 22 -10 27 -22 23 -65 -25 -111 -7 -111 43 0 19 -4
23 -17 17 -70 -27 -119 -12 -109 35 l5 27 -72 -5 c-68 -4 -74 -3 -99 23 -32
32 -28 48 7 35 14 -5 80 -8 147 -7z m84 -142 c15 5 27 8 28 7 1 -2 7 -15 14
-31 15 -35 55 -51 94 -38 25 9 29 7 34 -14 9 -38 38 -58 79 -53 32 4 35 2 35
-21 0 -58 -149 -262 -304 -416 -61 -61 -148 -157 -194 -213 -102 -128 -279
-395 -403 -607 -113 -195 -183 -301 -208 -314 -22 -12 -44 9 -54 48 -16 66 71
277 149 361 57 61 83 122 139 324 86 315 126 383 314 540 110 92 135 144 195
408 6 24 9 26 31 18 16 -6 34 -6 51 1z m1242 -71 c12 -48 5 -55 -27 -29 -21
17 -22 23 -13 44 16 36 28 31 40 -15z m-78 -5 c13 -14 18 -25 12 -25 -7 0 -12
-7 -12 -16 0 -11 -8 -14 -27 -12 -31 3 -43 38 -23 64 17 19 23 18 50 -11z m58
-52 c5 -17 -26 -29 -40 -15 -6 6 -7 15 -3 22 9 14 37 9 43 -7z m49 -45 c7 -14
9 -29 6 -32 -11 -11 -40 -6 -53 9 -16 19 -30 19 -30 1 0 -21 -27 -38 -50 -31
-24 8 -27 47 -5 65 12 10 19 10 27 2 18 -18 43 -14 63 8 20 22 25 19 42 -22z
m-907 -68 c9 0 33 -24 53 -52 20 -29 55 -66 77 -83 l40 -29 -57 -59 c-32 -32
-103 -95 -157 -140 -54 -45 -183 -163 -285 -262 -349 -337 -473 -472 -549
-595 -91 -149 -155 -240 -168 -240 -20 0 -36 49 -30 85 8 39 208 376 337 565
127 188 293 395 369 462 92 80 220 239 280 345 l23 42 25 -20 c14 -10 32 -19
42 -19z m720 -142 c72 -18 87 -24 63 -26 -20 -2 -33 -9 -33 -17 0 -25 -47 -29
-88 -8 l-38 19 -18 -23 c-20 -27 -36 -29 -78 -7 -29 15 -33 15 -68 -5 -43 -24
-98 -27 -125 -7 -17 12 -15 14 31 20 27 4 85 23 129 41 44 19 91 34 105 35 14
0 68 -10 120 -22z m-458 -50 l53 -11 -43 -13 c-41 -13 -102 -9 -102 5 0 9 22
31 32 31 4 0 31 -5 60 -12z m-1452 -965 c-55 -109 -85 -209 -75 -253 10 -47
44 -83 71 -76 l23 6 -19 -46 c-56 -130 -110 -137 -146 -18 -23 76 -17 120 36
274 55 157 70 187 103 200 57 23 58 14 7 -87z m113 -310 c5 -7 18 -13 29 -13
15 0 18 -4 12 -22 -10 -35 -43 -96 -54 -103 -16 -10 -47 4 -64 30 -14 21 -14
28 3 78 11 30 25 66 32 78 l12 24 10 -30 c5 -17 14 -36 20 -42z"/>
<path d="M6400 8460 c-35 -35 -21 -120 20 -120 43 0 68 91 34 124 -20 21 -30
20 -54 -4z m56 -27 c8 -31 -14 -78 -36 -78 -22 0 -36 49 -22 80 16 34 50 33
58 -2z"/>
<path d="M6285 8400 c-9 -29 12 -55 32 -38 8 6 13 21 11 32 -4 28 -35 33 -43
6z m35 -16 c0 -14 -12 -19 -23 -8 -9 9 4 35 14 28 5 -3 9 -12 9 -20z"/>
<path d="M6331 7230 c-17 -10 -7 -40 14 -40 8 0 15 9 15 19 0 24 -12 32 -29
21z m19 -20 c0 -5 -4 -10 -10 -10 -5 0 -10 5 -10 10 0 6 5 10 10 10 6 0 10 -4
10 -10z"/>
<path d="M6304 7116 c-4 -9 -4 -20 0 -23 3 -4 12 -1 18 5 9 9 9 15 0 24 -9 9
-13 7 -18 -6z"/>
<path d="M6271 7027 c-13 -17 -4 -50 13 -44 15 5 20 37 9 48 -6 6 -14 4 -22
-4z m19 -17 c0 -5 -5 -10 -11 -10 -5 0 -7 5 -4 10 3 6 8 10 11 10 2 0 4 -4 4
-10z"/>
<path d="M2533 8390 c-47 -19 -57 -87 -18 -125 48 -49 125 -16 125 53 0 30
-28 72 -49 72 -5 0 -15 2 -23 4 -7 3 -23 1 -35 -4z m81 -43 c19 -26 19 -30 5
-55 -29 -53 -109 -35 -109 25 0 63 66 82 104 30z"/>
<path d="M2740 8345 c-18 -22 -1 -50 31 -50 20 0 24 5 24 30 0 23 -5 31 -21
33 -11 2 -27 -4 -34 -13z m47 -11 c8 -21 -13 -42 -28 -27 -13 13 -5 43 11 43
6 0 13 -7 17 -16z"/>
<path d="M2664 6965 c-9 -23 3 -45 25 -45 25 0 34 14 26 40 -7 23 -43 27 -51
5z m36 -21 c0 -16 -16 -19 -25 -4 -8 13 4 32 16 25 5 -4 9 -13 9 -21z"/>
<path d="M2714 6849 c-3 -6 1 -18 9 -27 13 -12 19 -13 31 -3 8 7 12 19 9 27
-6 17 -39 19 -49 3z m36 -9 c0 -5 -4 -10 -10 -10 -5 0 -10 5 -10 10 0 6 5 10
10 10 6 0 10 -4 10 -10z"/>
<path d="M2772 6748 c-17 -17 -15 -36 6 -47 25 -13 44 1 40 30 -3 27 -27 36
-46 17z m38 -24 c0 -8 -7 -14 -15 -14 -15 0 -21 21 -9 33 10 9 24 -2 24 -19z"/>
<path d="M6059 7961 c-43 -46 -76 -126 -85 -208 -7 -55 -7 -56 16 -50 33 8 58
-8 75 -48 18 -44 50 -47 87 -7 46 48 50 132 7 132 -16 0 -19 4 -14 18 34 78
37 151 7 185 -24 27 -52 20 -93 -22z m92 -3 c16 -29 5 -107 -21 -159 l-22 -42
26 5 c51 10 59 -50 14 -99 -32 -34 -55 -29 -78 17 -17 33 -26 40 -50 40 -26 0
-30 4 -30 28 0 42 28 130 56 173 38 61 84 77 105 37z"/>
<path d="M6077 7879 c-20 -12 -47 -61 -47 -86 0 -10 9 1 19 23 25 56 46 69 37
23 -5 -24 -3 -30 5 -22 6 6 9 24 7 41 -3 26 -6 29 -21 21z"/>
<path d="M3083 7915 c-78 -34 -83 -137 -10 -212 l31 -33 -37 0 c-79 0 -103
-76 -44 -135 65 -65 144 -56 180 18 25 53 70 80 126 73 l44 -6 -7 43 c-16 102
-91 211 -171 248 -48 22 -69 23 -112 4z m101 -19 c67 -28 142 -131 160 -221 6
-30 6 -30 -37 -30 -54 0 -91 -24 -117 -75 -25 -49 -51 -64 -97 -55 -46 8 -83
46 -83 84 0 36 26 54 73 49 29 -3 32 0 32 25 0 19 7 31 25 40 19 10 24 20 22
39 -1 15 2 29 7 32 13 8 59 -31 78 -67 9 -18 18 -26 20 -20 8 22 -36 80 -71
97 -46 22 -46 22 -46 -24 0 -34 -4 -42 -25 -52 -23 -10 -29 -8 -53 15 -22 23
-27 36 -27 78 0 43 4 54 28 75 32 27 63 30 111 10z"/>
<path d="M3656 6397 c-65 -65 3 -187 104 -187 33 0 70 30 70 58 0 32 -29 62
-60 62 -16 0 -32 -5 -36 -11 -4 -7 0 -9 14 -5 29 10 62 -10 62 -37 0 -78 -129
-52 -158 31 -10 30 -2 61 22 81 45 38 217 -23 350 -123 33 -25 62 -43 65 -40
12 12 -138 115 -225 156 -38 18 -88 32 -123 35 -54 5 -62 3 -85 -20z"/>
<path d="M5520 6812 c-68 -33 -83 -37 -157 -37 -45 0 -75 -3 -65 -7 30 -12
128 -8 170 6 44 16 153 76 137 76 -5 0 -44 -17 -85 -38z"/>
<path d="M5087 6611 c-63 -88 -148 -159 -230 -189 -28 -11 -59 -22 -67 -25
-11 -4 -9 -6 5 -6 32 -1 129 43 182 82 50 37 106 103 149 175 40 67 21 49 -39
-37z"/>
<path d="M5272 6483 c-31 -15 -82 -70 -82 -87 0 -5 16 6 35 22 34 31 62 39
140 44 29 2 41 8 43 21 3 14 -4 17 -50 17 -29 0 -68 -8 -86 -17z"/>
<path d="M5328 6393 c6 -2 18 -2 25 0 6 3 1 5 -13 5 -14 0 -19 -2 -12 -5z"/>
<path d="M5253 6363 c-29 -9 -53 -19 -53 -24 0 -4 9 -24 21 -43 23 -39 56 -54
139 -63 l56 -5 2 42 c3 46 -13 72 -60 96 -33 17 -38 17 -105 -3z m51 -30 c-4
-10 -7 -30 -7 -45 0 -33 -7 -35 -38 -8 l-24 20 28 25 c33 29 53 33 41 8z m36
-12 c0 -6 -4 -13 -10 -16 -5 -3 -10 1 -10 9 0 9 5 16 10 16 6 0 10 -4 10 -9z"/>
<path d="M5541 6302 c-1 -25 7 -41 29 -64 32 -32 37 -47 18 -66 -9 -9 -9 -12
0 -12 7 0 18 12 24 26 11 25 10 29 -21 54 -19 16 -37 43 -41 62 l-8 33 -1 -33z"/>
<path d="M5525 6160 c3 -5 10 -10 16 -10 5 0 9 5 9 10 0 6 -7 10 -16 10 -8 0
-12 -4 -9 -10z"/>
<path d="M5364 6088 c-11 -12 -14 -18 -7 -15 6 4 24 -8 41 -29 75 -90 164
-100 187 -21 4 12 16 32 27 44 11 12 17 26 14 31 -7 12 -132 6 -184 -8 -23 -6
-36 -5 -46 5 -12 12 -17 11 -32 -7z m239 -9 c-15 -15 -104 -24 -140 -13 -28 8
-27 8 12 14 71 12 140 11 128 -1z m-87 -39 c13 0 24 -4 24 -10 0 -14 -19 -12
-55 6 -16 8 -22 12 -12 9 10 -3 30 -5 43 -5z m21 -30 c36 -1 37 -1 18 -16 -24
-18 -65 -12 -100 13 -35 26 -30 34 10 17 19 -7 51 -14 72 -14z"/>
<path d="M5264 5650 c28 -11 52 -18 54 -16 6 7 -31 23 -68 30 -30 5 -27 3 14
-14z"/>
<path d="M5330 5460 c-11 -11 -20 -24 -20 -28 0 -4 -15 -6 -34 -4 -26 3 -37
-1 -50 -19 -23 -33 -20 -65 9 -87 21 -17 23 -21 10 -32 -18 -15 -19 -51 -2
-72 20 -26 52 -30 77 -10 23 19 24 19 45 -6 20 -24 24 -25 53 -13 34 14 47 40
38 75 -4 16 1 24 17 31 44 19 29 105 -18 105 -18 0 -25 7 -30 30 -11 50 -60
65 -95 30z m76 -24 c8 -32 -13 -69 -33 -62 -20 8 -63 -19 -63 -39 0 -17 -18
-19 -54 -5 -26 9 -32 31 -20 64 8 21 52 20 76 -1 17 -15 18 -14 18 19 0 42 5
48 41 48 22 0 30 -6 35 -24z m68 -62 c9 -8 16 -22 16 -29 0 -22 -29 -45 -57
-45 -25 0 -25 -1 -9 -19 21 -23 18 -60 -6 -75 -23 -14 -52 3 -56 33 -4 27 -10
27 -34 -4 -11 -14 -28 -25 -38 -25 -44 0 -53 65 -11 86 19 10 26 9 42 -7 39
-39 83 -15 77 43 -2 26 2 35 22 45 32 16 35 16 54 -3z m-95 -31 c11 -21 -3
-53 -24 -53 -21 0 -35 31 -24 52 12 23 35 23 48 1z"/>
<path d="M5162 5130 c-19 -4 -38 -12 -44 -18 -9 -9 9 -7 137 16 l50 10 -55 0
c-30 0 -70 -4 -88 -8z"/>
<path d="M6615 5646 c-19 -14 -18 -15 17 -9 27 4 55 -2 103 -21 89 -35 106
-32 23 4 -87 39 -118 45 -143 26z"/>
<path d="M6868 5623 c7 -3 16 -2 19 1 4 3 -2 6 -13 5 -11 0 -14 -3 -6 -6z"/>
<path d="M3548 5499 c-21 -12 -24 -59 -6 -77 7 -7 21 -12 33 -12 46 0 62 57
23 84 -26 19 -27 19 -50 5z m52 -24 c26 -31 -18 -71 -47 -42 -19 19 -8 57 16
57 10 0 24 -7 31 -15z"/>
<path d="M3554 5339 c-3 -6 0 -17 7 -25 18 -17 44 -2 36 20 -7 18 -33 21 -43
5z m36 -9 c0 -5 -4 -10 -9 -10 -6 0 -13 5 -16 10 -3 6 1 10 9 10 9 0 16 -4 16
-10z"/>
<path d="M3635 5281 c-8 -15 3 -31 21 -31 9 0 14 7 12 17 -4 20 -24 28 -33 14z"/>
<path d="M4430 5250 c0 -5 5 -10 11 -10 5 0 7 5 4 10 -3 6 -8 10 -11 10 -2 0
-4 -4 -4 -10z"/>
<path d="M4460 4330 c-15 -15 -20 -29 -16 -45 4 -17 1 -24 -14 -28 -10 -3 -22
-17 -26 -31 -8 -35 21 -69 53 -63 14 2 23 -1 23 -8 0 -18 34 -45 56 -45 26 0
44 19 44 45 0 12 12 27 30 37 21 12 30 25 30 42 0 30 -40 61 -67 52 -13 -4
-22 3 -33 27 -18 39 -51 46 -80 17z m68 -30 c2 -19 -4 -28 -23 -37 -23 -10
-27 -9 -37 12 -16 35 -4 57 29 53 21 -2 29 -9 31 -28z m87 -65 c0 -25 -4 -31
-26 -33 -22 -3 -27 2 -32 25 -6 31 7 45 38 41 15 -2 20 -11 20 -33z m-140 -1
c25 -25 15 -49 -20 -49 -33 0 -45 25 -25 50 16 19 25 19 45 -1z m65 -4 c0 -13
-7 -20 -20 -20 -13 0 -20 7 -20 20 0 13 7 20 20 20 13 0 20 -7 20 -20z m30
-71 c0 -4 -7 -15 -16 -23 -21 -21 -54 -4 -54 29 0 17 6 25 23 27 20 4 47 -15
47 -33z"/>
<path d="M4896 4044 c-18 -18 -21 -55 -6 -70 8 -8 6 -20 -7 -41 -16 -29 -16
-32 0 -57 19 -28 54 -35 75 -14 9 9 16 7 31 -6 24 -22 69 -17 87 9 11 17 11
25 0 46 -12 23 -11 27 5 38 22 13 26 60 7 79 -17 17 -63 15 -78 -3 -11 -13
-15 -11 -32 10 -22 28 -59 33 -82 9z m78 -26 c16 -26 -26 -68 -52 -52 -19 12
-27 37 -18 60 8 20 56 14 70 -8z m101 -4 c21 -22 16 -46 -15 -61 -22 -11 -26
-9 -41 15 -16 26 -16 28 3 45 25 21 32 21 53 1z m-65 -59 c0 -9 -7 -18 -16
-22 -18 -7 -39 11 -30 26 11 17 46 13 46 -4z m-42 -38 c9 -11 7 -19 -12 -36
-20 -19 -28 -21 -45 -12 -25 14 -27 38 -5 62 17 19 39 14 62 -14z m96 -9 c22
-35 -27 -74 -59 -48 -20 17 -19 47 3 59 23 14 42 10 56 -11z"/>
<path d="M4000 3624 c-12 -32 -13 -67 -1 -60 8 5 21 86 14 86 -2 0 -8 -12 -13
-26z"/>
<path d="M4264 3499 c-11 -18 -22 -79 -15 -79 4 0 12 20 18 45 10 46 10 54 -3
34z"/>
<path d="M4692 7843 c-15 -15 -38 -28 -52 -29 -28 -3 -50 -28 -50 -56 0 -41
79 -88 147 -88 29 0 56 51 57 108 1 36 -4 48 -27 68 -35 30 -42 30 -75 -3z
m72 -15 c19 -26 20 -49 5 -102 l-11 -38 -49 4 c-76 8 -125 64 -84 98 8 7 25
10 40 6 20 -5 25 -3 25 12 0 43 49 56 74 20z"/>
<path d="M6921 7364 c-27 -35 -26 -59 4 -89 29 -30 55 -32 86 -7 47 39 16 122
-46 122 -13 0 -33 -11 -44 -26z m92 -15 c5 -9 7 -28 3 -42 -7 -30 -49 -46 -75
-30 -20 13 -26 60 -10 79 16 19 69 14 82 -7z"/>
<path d="M7653 6849 c-57 -16 -103 -100 -103 -186 0 -46 40 -181 66 -220 40
-62 278 8 346 101 33 46 37 102 11 146 -23 39 -57 55 -114 54 -45 -2 -48 0
-54 27 -7 30 -57 79 -80 79 -7 0 -19 2 -27 4 -7 2 -27 0 -45 -5z m108 -48 c19
-19 29 -40 29 -59 0 -35 9 -45 27 -31 7 7 32 12 54 13 34 1 46 -5 70 -32 44
-50 35 -105 -28 -163 -38 -36 -81 -56 -155 -74 -108 -25 -116 -23 -143 40 -47
105 -51 206 -12 282 21 40 42 52 90 53 29 0 45 -7 68 -29z"/>
<path d="M6706 6481 c-23 -26 -17 -63 13 -78 48 -23 95 29 66 73 -19 29 -55
31 -79 5z m58 -4 c26 -19 18 -61 -12 -65 -44 -7 -67 32 -36 62 19 19 25 20 48
3z"/>
<path d="M6920 5825 c-16 -19 -9 -45 15 -61 18 -12 24 -11 43 2 21 15 30 48
15 57 -26 14 -62 15 -73 2z m66 -18 c10 -10 -16 -37 -36 -37 -18 0 -34 25 -25
40 6 9 51 7 61 -3z"/>
<path d="M2656 5798 c-34 -49 -6 -110 50 -110 56 0 87 70 49 112 -25 28 -79
27 -99 -2z m82 -4 c26 -18 28 -50 5 -76 -22 -25 -59 -23 -77 4 -21 30 -20 44
4 68 24 24 38 25 68 4z"/>
<path d="M7114 5606 c-10 -26 4 -48 28 -44 17 2 23 10 23 28 0 18 -6 26 -23
28 -13 2 -25 -3 -28 -12z m42 -7 c10 -17 -13 -36 -27 -22 -12 12 -4 33 11 33
5 0 12 -5 16 -11z"/>
<path d="M7185 5480 c-4 -6 -16 -8 -26 -5 -25 8 -49 -11 -49 -39 0 -30 25 -63
63 -82 30 -16 31 -16 59 15 30 34 38 87 16 109 -15 15 -55 16 -63 2z m59 -23
c14 -22 -20 -90 -47 -95 -22 -4 -80 53 -75 75 2 13 13 18 35 18 18 0 38 6 45
13 15 15 28 12 42 -11z"/>
<path d="M7314 5346 c-10 -26 4 -48 28 -44 17 2 23 10 23 28 0 18 -6 26 -23
28 -13 2 -25 -3 -28 -12z m46 -10 c0 -20 -19 -31 -32 -18 -6 6 -7 15 -4 21 10
16 36 13 36 -3z"/>
<path d="M7122 5273 c2 -10 10 -18 18 -18 8 0 16 8 18 18 2 12 -3 17 -18 17
-15 0 -20 -5 -18 -17z"/>
<path d="M7023 5239 c-6 -16 -18 -29 -27 -29 -9 0 -16 -4 -16 -10 0 -5 7 -10
15 -10 9 0 22 -13 28 -30 l13 -29 11 29 c6 17 18 30 27 30 23 0 20 17 -4 23
-12 3 -20 14 -20 25 0 33 -15 33 -27 1z m27 -49 c-21 -13 -44 8 -28 27 10 12
14 12 27 -2 14 -14 14 -17 1 -25z"/>
<path d="M7272 5202 c-22 -24 -33 -28 -64 -24 -48 5 -78 -23 -78 -75 0 -30 8
-44 43 -78 46 -43 141 -81 163 -64 20 16 63 105 70 146 15 97 -73 160 -134 95z
m97 -18 c27 -35 26 -77 -3 -139 -32 -69 -42 -76 -87 -61 -65 23 -104 51 -122
89 -18 35 -18 39 -3 62 18 27 72 35 93 14 8 -8 13 -5 18 10 17 55 71 68 104
25z"/>
<path d="M7092 4907 c-16 -19 7 -40 28 -27 13 8 13 11 -1 25 -13 14 -17 14
-27 2z"/>
<path d="M7392 4888 c-26 -26 -7 -78 28 -78 19 0 50 30 50 48 0 32 -54 54 -78
30z m46 -7 c21 -13 10 -46 -16 -49 -27 -4 -40 22 -22 43 14 17 20 18 38 6z"/>
<path d="M7169 4824 c-9 -11 -9 -18 -1 -26 14 -14 42 -3 42 16 0 20 -27 27
-41 10z m31 -8 c0 -3 -4 -8 -10 -11 -5 -3 -10 -1 -10 4 0 6 5 11 10 11 6 0 10
-2 10 -4z"/>
<path d="M7267 4732 c-37 -41 -29 -136 16 -187 22 -26 22 -26 73 -10 63 18 99
46 112 84 15 44 -4 75 -50 79 -26 2 -41 10 -52 28 -20 30 -75 33 -99 6z m77
-8 c9 -8 16 -22 16 -30 0 -11 8 -13 33 -9 25 5 37 2 51 -14 29 -32 7 -74 -57
-106 -28 -14 -59 -25 -70 -25 -28 0 -61 82 -54 134 8 58 48 83 81 50z"/>
<path d="M7061 4716 c-26 -31 14 -71 45 -45 8 7 14 22 12 33 -4 26 -40 33 -57
12z m44 -17 c0 -7 -8 -15 -17 -17 -18 -3 -25 18 -11 32 10 10 28 1 28 -15z"/>
<path d="M2514 4701 c-41 -25 -63 -57 -71 -103 -5 -35 -8 -38 -37 -38 -73 0
-132 -70 -123 -145 11 -106 118 -166 291 -164 126 1 138 6 154 59 21 68 20
205 -2 268 -40 117 -133 171 -212 123z m127 -32 c48 -34 73 -102 77 -209 2
-62 -1 -109 -10 -135 -11 -34 -18 -40 -53 -48 -22 -5 -74 -7 -117 -4 -127 6
-238 78 -238 154 0 67 67 120 136 107 l34 -6 0 49 c0 57 19 89 64 109 36 16
68 11 107 -17z"/>
<path d="M5986 4609 c-32 -25 -35 -70 -6 -99 42 -42 113 -11 113 50 0 22 -7
39 -22 52 -30 23 -52 23 -85 -3z m78 -15 c9 -8 16 -22 16 -30 0 -55 -66 -75
-96 -29 -15 23 -15 27 0 50 19 29 56 33 80 9z"/>
<path d="M6926 4585 c-8 -8 -17 -23 -20 -33 -4 -10 -17 -18 -33 -19 -30 -1
-63 -35 -63 -63 0 -30 48 -79 88 -90 20 -5 56 -10 79 -10 38 0 42 3 52 33 23
73 18 141 -14 172 -27 28 -66 32 -89 10z m77 -22 c25 -28 30 -68 17 -124 l-13
-51 -58 4 c-73 5 -113 31 -117 76 -4 36 25 57 64 48 20 -5 24 -3 24 17 0 45
52 64 83 30z"/>
<path d="M7160 4515 c-10 -12 -10 -18 0 -30 20 -25 55 -15 55 15 0 30 -35 40
-55 15z m43 -10 c7 -16 -8 -29 -23 -20 -15 9 -12 35 4 35 8 0 16 -7 19 -15z"/>
<path d="M7240 4389 c-9 -15 -8 -24 1 -35 18 -22 53 -13 57 15 6 40 -39 56
-58 20z m50 -14 c0 -19 -20 -29 -32 -17 -15 15 -2 43 17 36 8 -3 15 -12 15
-19z"/>
<path d="M7403 4385 c-11 -8 -24 -26 -27 -40 -9 -35 23 -104 63 -138 l33 -27
40 22 c45 25 88 81 88 113 0 34 -28 65 -60 65 -16 0 -32 -5 -35 -10 -4 -6 -16
-3 -32 10 -31 24 -42 25 -70 5z m71 -27 c15 -21 16 -21 36 -3 17 15 24 16 45
7 51 -23 17 -110 -57 -148 -29 -15 -30 -14 -63 21 -38 40 -53 92 -36 124 15
28 55 27 75 -1z"/>
<path d="M7010 4268 c-17 -26 -20 -45 -17 -93 2 -33 9 -72 15 -87 10 -26 16
-28 64 -28 98 0 178 62 162 125 -7 30 -45 58 -71 53 -12 -2 -23 7 -33 27 -13
25 -22 30 -57 33 -39 3 -44 0 -63 -30z m92 5 c10 -9 18 -27 18 -39 0 -21 4
-23 30 -17 35 7 70 -18 70 -49 0 -35 -52 -75 -114 -88 -70 -14 -81 -7 -95 59
-12 59 0 114 32 136 27 19 36 19 59 -2z"/>
<path d="M6686 4237 c-18 -18 -31 -22 -64 -19 -34 3 -43 0 -57 -22 -22 -33
-12 -77 26 -115 32 -33 110 -66 133 -58 28 11 69 86 74 136 4 43 1 53 -21 75
-32 32 -61 33 -91 3z m78 -13 c25 -24 20 -90 -9 -141 -29 -49 -46 -53 -104
-23 -74 37 -101 99 -61 135 17 16 23 16 52 4 24 -10 33 -10 36 -1 13 40 59 54
86 26z"/>
<path d="M7291 4081 c-13 -24 8 -55 34 -50 28 6 42 34 26 53 -18 22 -48 20
-60 -3z m46 -7 c8 -20 -8 -36 -26 -25 -15 10 -8 41 9 41 6 0 13 -7 17 -16z"/>
<path d="M7370 3958 c-14 -54 -24 -65 -77 -83 -32 -11 -35 -14 -18 -20 67 -23
74 -28 85 -64 6 -20 14 -43 17 -51 3 -9 10 2 18 28 17 56 30 70 71 78 41 8 44
19 7 27 -44 9 -63 29 -77 82 l-13 50 -13 -47z m59 -83 c24 -7 28 -25 6 -25 -8
0 -24 -14 -35 -32 l-19 -31 -12 26 c-7 15 -15 27 -18 27 -3 0 -13 4 -21 10
-12 7 -10 12 12 30 15 11 30 30 34 42 6 20 7 19 19 -9 7 -17 23 -34 34 -38z"/>
<path d="M6930 3975 c-17 -20 -5 -45 20 -45 11 0 23 7 26 15 6 15 -11 45 -26
45 -4 0 -13 -7 -20 -15z m35 -14 c7 -12 -12 -24 -25 -16 -11 7 -4 25 10 25 5
0 11 -4 15 -9z"/>
<path d="M7165 3911 c-8 -15 3 -31 21 -31 9 0 14 7 12 17 -4 20 -24 28 -33 14z"/>
<path d="M6730 3886 c-27 -33 18 -72 48 -42 13 13 14 20 6 34 -15 23 -38 26
-54 8z m40 -22 c0 -8 -7 -14 -15 -14 -15 0 -21 21 -9 33 10 9 24 -2 24 -19z"/>
<path d="M7015 3886 c-25 -18 -15 -50 16 -54 28 -3 43 16 33 42 -8 21 -30 26
-49 12z m35 -26 c0 -21 -24 -28 -35 -10 -8 14 3 30 21 30 8 0 14 -9 14 -20z"/>
<path d="M6470 3850 c-11 -11 -20 -26 -20 -34 0 -9 -12 -16 -27 -18 -17 -2
-32 -12 -39 -27 -27 -53 24 -102 112 -109 71 -6 84 8 84 85 0 102 -57 156
-110 103z m72 -17 c24 -27 31 -60 23 -109 l-6 -44 -50 0 c-80 0 -131 37 -113
83 6 17 34 29 55 25 8 -2 15 8 17 22 7 42 47 54 74 23z"/>
<path d="M6811 3730 c-17 -10 -7 -40 14 -40 8 0 15 9 15 19 0 24 -12 32 -29
21z"/>
<path d="M7189 3662 c-7 -11 -18 -18 -24 -15 -18 6 -46 -27 -43 -50 4 -30 65
-69 103 -65 25 3 32 9 45 46 13 38 13 46 0 70 -20 34 -64 42 -81 14z m59 -4
c14 -14 16 -57 3 -92 -9 -23 -12 -24 -48 -15 -68 18 -94 79 -33 79 19 0 29 6
33 20 6 22 27 26 45 8z"/>
<path d="M6164 3635 c-9 -23 3 -45 26 -45 25 0 37 25 20 45 -16 19 -39 19 -46
0z m36 -21 c0 -16 -16 -19 -25 -4 -8 13 4 32 16 25 5 -4 9 -13 9 -21z"/>
<path d="M6635 3603 c-101 -26 -135 -173 -70 -305 34 -70 110 -168 131 -168
28 0 158 60 206 95 94 69 137 196 87 259 -41 53 -108 70 -159 41 -34 -20 -37
-19 -54 14 -25 47 -90 77 -141 64z m90 -45 c15 -12 34 -36 41 -55 l14 -34 46
27 c42 25 49 26 85 15 44 -13 79 -58 79 -101 -1 -43 -35 -104 -83 -146 -50
-44 -142 -93 -190 -101 -29 -4 -36 0 -68 44 -78 103 -108 195 -89 275 21 88
103 125 165 76z"/>
<path d="M6433 3574 c-8 -20 8 -36 26 -25 15 10 8 41 -9 41 -6 0 -13 -7 -17
-16z"/>
<path d="M6241 3546 c-21 -25 -9 -69 21 -80 34 -12 58 6 58 45 0 42 -54 66
-79 35z m69 -36 c0 -25 -30 -41 -53 -29 -39 22 -4 79 35 58 10 -5 18 -18 18
-29z"/>
<path d="M5885 3395 c-29 -28 -32 -63 -9 -112 18 -37 97 -103 123 -103 18 0
92 72 110 107 16 31 14 85 -5 111 -18 26 -69 30 -99 8 -17 -12 -22 -12 -39 0
-30 20 -54 17 -81 -11z m200 -10 c30 -29 30 -38 6 -90 -19 -43 -72 -95 -96
-95 -20 0 -83 57 -101 91 -7 15 -14 39 -14 53 0 49 54 73 91 40 17 -15 20 -15
45 5 34 27 40 26 69 -4z"/>
<path d="M6283 3360 c-47 -19 -56 -78 -18 -115 47 -48 115 -19 115 48 0 51
-50 86 -97 67z m76 -42 c23 -40 3 -78 -42 -78 -42 0 -57 15 -57 57 0 57 71 72
99 21z"/>
<path d="M7140 3295 c-17 -20 -5 -45 20 -45 11 0 23 7 26 15 6 15 -11 45 -26
45 -4 0 -13 -7 -20 -15z m35 -14 c7 -12 -12 -24 -25 -16 -11 7 -4 25 10 25 5
0 11 -4 15 -9z"/>
<path d="M5648 3204 c-5 -4 -8 -18 -8 -31 0 -32 -43 -73 -77 -74 -26 0 -25 -2
14 -19 43 -19 63 -44 63 -79 0 -12 5 -21 10 -21 6 0 10 7 10 15 0 37 30 74 65
81 34 6 49 24 20 24 -37 0 -65 24 -77 67 -7 25 -16 41 -20 37z m43 -99 c23 -8
25 -25 4 -25 -9 0 -20 -11 -27 -25 l-11 -24 -27 29 -28 30 27 29 c24 27 27 28
35 10 5 -10 17 -21 27 -24z"/>
<path d="M7243 3174 c-8 -22 10 -49 32 -49 10 0 22 7 28 16 15 24 1 49 -28 49
-15 0 -28 -7 -32 -16z m52 -4 c4 -6 1 -18 -6 -26 -11 -13 -14 -13 -27 0 -8 8
-11 19 -8 25 9 14 33 14 41 1z"/>
<path d="M6152 3134 c-12 -8 -32 -34 -44 -57 -29 -55 -29 -169 -2 -241 24 -62
55 -74 157 -57 126 21 197 77 197 155 0 66 -61 119 -119 103 -15 -3 -20 2 -25
25 -9 47 -57 88 -103 88 -21 0 -49 -7 -61 -16z m114 -27 c20 -18 28 -34 28
-61 1 -37 1 -37 38 -31 40 7 91 -13 102 -40 31 -82 -40 -153 -178 -175 -111
-18 -127 -5 -145 113 -25 156 67 270 155 194z"/>
<path d="M7060 3130 c-11 -11 -20 -29 -20 -40 0 -26 34 -60 60 -60 26 0 60 34
60 60 0 26 -34 60 -60 60 -11 0 -29 -9 -40 -20z m75 -40 c0 -33 -2 -35 -35
-35 -29 0 -36 4 -38 23 -6 40 5 54 40 50 30 -3 33 -6 33 -38z"/>
<path d="M6546 3067 c-36 -26 4 -84 42 -61 23 15 26 38 7 58 -20 19 -26 20
-49 3z m44 -26 c0 -27 -19 -36 -37 -18 -18 18 -9 37 18 37 12 0 19 -7 19 -19z"/>
<path d="M6862 3018 c-13 -52 -23 -62 -72 -76 -30 -8 -32 -10 -15 -16 56 -19
70 -33 86 -81 l15 -50 12 46 c13 53 23 63 72 77 l35 9 -30 12 c-50 18 -60 27
-69 57 -21 69 -22 70 -34 22z m56 -75 c21 -18 23 -23 9 -23 -9 0 -26 -14 -36
-31 -18 -29 -19 -30 -26 -10 -3 12 -18 29 -32 38 l-25 17 22 8 c12 4 27 22 33
38 11 29 12 30 19 8 5 -13 21 -33 36 -45z"/>
<path d="M4864 3026 c-12 -31 0 -51 31 -51 27 0 30 3 30 30 0 25 -4 30 -28 33
-17 2 -29 -2 -33 -12z m54 -19 c4 -20 -25 -34 -40 -19 -15 15 -1 44 19 40 10
-2 19 -11 21 -21z"/>
<path d="M5110 3025 c-26 -32 13 -81 48 -59 34 22 22 74 -18 74 -10 0 -23 -7
-30 -15z m50 -10 c15 -17 5 -35 -20 -35 -22 0 -33 23 -17 39 15 15 22 14 37
-4z"/>
<path d="M5914 3019 c-8 -14 21 -43 35 -35 6 4 11 16 11 27 0 21 -34 27 -46 8z
m36 -9 c0 -5 -4 -10 -10 -10 -5 0 -10 5 -10 10 0 6 5 10 10 10 6 0 10 -4 10
-10z"/>
<path d="M5261 2956 c-54 -17 -76 -56 -75 -129 0 -73 28 -135 94 -209 47 -54
63 -57 123 -27 124 63 196 156 184 237 -12 74 -106 119 -163 78 -17 -13 -21
-11 -44 15 -32 37 -75 50 -119 35z m109 -62 c8 -16 16 -30 16 -32 1 -2 17 6
35 17 43 26 79 27 112 1 78 -62 9 -195 -139 -268 l-56 -27 -40 45 c-22 25 -52
68 -66 95 -63 123 -7 249 93 210 17 -6 37 -25 45 -41z"/>
<path d="M5004 2885 c-4 -9 -2 -21 4 -27 16 -16 47 -5 47 17 0 26 -42 34 -51
10z m41 -4 c7 -12 -12 -24 -25 -16 -11 7 -4 25 10 25 5 0 11 -4 15 -9z"/>
<path d="M5724 2876 c-11 -28 1 -51 25 -51 32 0 49 28 32 49 -17 20 -50 21
-57 2z m43 -12 c8 -21 -13 -42 -28 -27 -13 13 -5 43 11 43 6 0 13 -7 17 -16z"/>
<path d="M6610 2857 c0 -33 -26 -65 -60 -72 -32 -7 -32 -25 0 -25 24 0 60 -46
60 -77 0 -14 4 -21 10 -18 6 3 10 17 10 31 0 31 33 64 65 64 14 0 25 5 25 10
0 6 -9 10 -20 10 -29 0 -70 44 -70 75 0 14 -4 25 -10 25 -5 0 -10 -10 -10 -23z
m20 -41 c0 -8 8 -21 19 -28 17 -12 17 -14 -10 -40 -26 -26 -28 -27 -34 -9 -3
11 -13 22 -22 25 -14 6 -14 9 5 22 12 8 22 22 22 30 0 8 5 14 10 14 6 0 10 -6
10 -14z"/>
<path d="M5886 2854 c-30 -30 -13 -74 29 -74 44 0 63 60 26 80 -27 14 -37 13
-55 -6z m64 -28 c0 -23 -30 -41 -48 -30 -23 15 -25 29 -7 48 12 12 21 13 36 6
10 -6 19 -17 19 -24z"/>
<path d="M5672 2757 c-10 -11 -9 -17 3 -27 24 -20 45 4 24 26 -14 13 -17 13
-27 1z"/>
<path d="M4751 2736 c-36 -38 -38 -92 -4 -155 15 -30 35 -59 45 -64 46 -29
188 67 188 127 0 40 -44 80 -80 72 -23 -4 -35 0 -54 19 -32 32 -66 32 -95 1z
m83 -12 c9 -8 16 -22 16 -31 0 -11 5 -13 18 -8 56 24 92 7 92 -42 0 -56 -127
-134 -166 -102 -24 20 -54 88 -54 124 0 62 56 97 94 59z"/>
<path d="M6470 2685 c-16 -19 -6 -45 19 -45 23 0 35 28 20 46 -15 18 -24 18
-39 -1z m30 -20 c0 -8 -4 -15 -10 -15 -5 0 -10 7 -10 15 0 8 5 15 10 15 6 0
10 -7 10 -15z"/>
<path d="M6157 2649 c-29 -17 -47 -65 -47 -127 0 -47 6 -72 31 -118 47 -90 46
-90 126 -66 158 48 229 157 153 234 -26 26 -36 29 -73 26 -37 -4 -46 0 -73 29
-33 35 -80 44 -117 22z m103 -29 c11 -11 20 -29 20 -40 0 -21 24 -28 35 -10
12 19 65 11 90 -15 52 -51 17 -122 -85 -172 -36 -18 -78 -34 -95 -35 -28 -3
-32 2 -62 61 -40 77 -44 148 -13 199 16 26 26 32 55 32 22 0 43 -8 55 -20z"/>
<path d="M5770 2631 c-24 -45 4 -113 62 -150 l32 -20 29 21 c37 26 67 75 67
109 0 46 -58 77 -88 47 -9 -9 -15 -9 -24 0 -19 19 -66 15 -78 -7z m72 -7 c14
-13 21 -14 32 -5 8 7 25 11 38 9 18 -2 24 -10 26 -35 3 -26 -4 -40 -37 -75
l-41 -43 -40 42 c-41 44 -52 87 -28 111 16 16 28 15 50 -4z"/>
<path d="M7155 2587 c-37 -37 -60 -117 -49 -173 5 -27 13 -35 43 -45 84 -29
189 -6 213 46 15 33 -6 81 -43 97 -21 9 -29 20 -29 39 0 14 -10 35 -23 47 -34
32 -73 28 -112 -11z m105 -2 c7 -9 13 -31 12 -50 -1 -31 2 -35 23 -35 27 0 59
-39 53 -66 -7 -36 -56 -59 -121 -58 -34 0 -73 6 -86 13 -22 12 -23 17 -17 72
6 65 26 112 53 128 27 15 69 13 83 -4z"/>
<path d="M5060 2560 c-26 -48 30 -91 70 -55 24 22 25 38 4 59 -22 22 -61 20
-74 -4z m54 4 c20 -8 21 -38 2 -53 -19 -16 -46 -3 -46 23 0 34 12 42 44 30z"/>
<path d="M5624 2555 c-10 -25 4 -45 30 -45 28 0 37 17 24 43 -11 21 -46 23
-54 2z m46 -15 c0 -21 -24 -28 -35 -10 -8 14 3 30 21 30 8 0 14 -9 14 -20z"/>
<path d="M4563 2538 c-21 -28 -23 -37 -7 -52 21 -22 41 -20 54 5 9 16 8 25 -6
40 -20 22 -28 24 -41 7z m35 -31 c2 -12 -3 -17 -17 -17 -12 0 -21 6 -21 13 0
31 32 34 38 4z"/>
<path d="M6519 2524 c-10 -12 -9 -18 4 -31 18 -18 47 -11 47 11 0 25 -35 39
-51 20z m30 -19 c3 -12 -13 -9 -17 4 -2 7 0 11 6 7 5 -3 10 -8 11 -11z"/>
<path d="M5293 2451 c-57 -42 -86 -106 -91 -206 -2 -44 1 -107 8 -138 10 -48
16 -60 38 -69 40 -16 229 -16 276 1 52 18 114 76 125 117 22 81 -39 164 -121
164 -30 0 -36 3 -31 15 3 9 -2 36 -11 60 -33 84 -119 109 -193 56z m150 -31
c22 -24 27 -40 27 -78 l0 -48 51 0 c45 1 54 -3 80 -32 57 -64 28 -145 -68
-189 -45 -21 -72 -26 -137 -26 -45 -1 -98 2 -118 6 -34 7 -37 11 -47 58 -31
145 6 276 93 331 41 25 83 17 119 -22z"/>
<path d="M4406 2428 c-17 -23 -20 -66 -9 -107 5 -21 10 -23 55 -19 27 3 57 13
68 23 34 31 21 85 -21 85 -9 0 -19 9 -22 20 -7 28 -51 26 -71 -2z m48 6 c9 -3
16 -15 16 -25 0 -14 7 -19 25 -19 30 0 43 -24 25 -45 -19 -23 -88 -41 -103
-26 -16 16 -15 85 2 105 15 18 14 18 35 10z"/>
<path d="M4206 2384 c-21 -21 -17 -42 11 -61 19 -13 24 -12 43 7 19 19 20 24
7 43 -19 28 -40 32 -61 11z m49 -29 c0 -30 -39 -27 -43 3 -3 20 0 23 20 20 15
-2 23 -10 23 -23z"/>
<path d="M5980 2366 c-6 -8 -10 -25 -8 -38 2 -18 9 -23 33 -23 24 0 31 5 33
23 4 25 -13 52 -33 52 -7 0 -18 -7 -25 -14z m45 -30 c0 -22 -14 -29 -34 -17
-19 12 -6 43 16 39 10 -2 18 -12 18 -22z"/>
<path d="M4947 2352 c-34 -38 -8 -92 44 -92 33 0 49 18 49 55 0 17 -5 36 -12
43 -18 18 -63 14 -81 -6z m67 -8 c24 -23 20 -53 -9 -66 -30 -13 -55 3 -55 36
0 42 36 59 64 30z"/>
<path d="M5771 2327 c-6 -15 -21 -31 -33 -36 l-23 -8 23 -7 c13 -4 28 -20 34
-34 l11 -27 6 23 c3 13 17 30 30 37 24 12 24 13 3 19 -11 4 -25 19 -30 34
l-10 27 -11 -28z m20 -60 c-17 -17 -34 12 -19 31 10 11 13 10 21 -3 6 -11 5
-21 -2 -28z"/>
<path d="M4722 2284 c-15 -11 -22 -25 -22 -50 0 -23 -5 -34 -14 -34 -8 0 -22
-10 -30 -22 -57 -81 58 -140 173 -88 l43 20 -7 47 c-9 64 -29 100 -68 123 -39
24 -46 24 -75 4z m83 -37 c42 -42 57 -113 29 -134 -36 -27 -94 -36 -133 -21
-30 11 -37 19 -39 46 -3 29 0 35 28 45 26 10 30 15 25 38 -7 29 15 59 42 59 8
0 30 -15 48 -33z"/>
<path d="M3815 2205 c-30 -30 -32 -64 -4 -99 27 -34 71 -35 104 -1 39 38 32
86 -16 110 -39 21 -56 19 -84 -10z m89 -11 c24 -23 20 -70 -6 -88 -31 -22 -45
-20 -74 9 -25 26 -26 52 -2 83 14 17 63 15 82 -4z"/>
<path d="M4452 2173 c2 -10 10 -18 18 -18 8 0 16 8 18 18 2 12 -3 17 -18 17
-15 0 -20 -5 -18 -17z"/>
<path d="M5002 2168 c-7 -7 -12 -24 -12 -38 0 -14 5 -31 12 -38 28 -28 88 -2
88 38 0 40 -60 66 -88 38z m55 -6 c11 -7 16 -26 14 -49 -2 -18 -40 -26 -56
-13 -37 31 2 88 42 62z"/>
<path d="M5972 2168 c-30 -30 1 -73 36 -51 23 14 25 29 7 47 -20 19 -27 20
-43 4z m38 -22 c0 -8 -5 -18 -11 -22 -14 -8 -33 11 -25 25 10 16 36 13 36 -3z"/>
<path d="M4492 2063 c4 -21 33 -25 33 -3 0 8 -8 16 -18 18 -14 3 -18 -1 -15
-15z"/>
<path d="M6188 2059 c-21 -12 -24 -59 -6 -77 19 -19 55 -14 72 10 20 29 20 34
-4 58 -22 22 -37 24 -62 9z m59 -25 c8 -22 -10 -49 -32 -49 -10 0 -22 7 -28
16 -15 24 -1 49 28 49 15 0 28 -7 32 -16z"/>
<path d="M4315 2036 c-20 -15 -17 -44 7 -59 12 -8 21 -7 32 2 36 30 -1 85 -39
57z m35 -26 c0 -11 -6 -20 -14 -20 -18 0 -29 16 -21 30 11 18 35 11 35 -10z"/>
<path d="M5112 1958 c-7 -15 -20 -28 -34 -30 -23 -4 -23 -4 3 -15 16 -7 30
-23 34 -40 l8 -28 8 31 c6 20 17 34 31 38 l23 7 -23 9 c-12 5 -26 20 -31 32
l-9 23 -10 -27z m23 -28 c11 -17 -5 -32 -21 -19 -7 6 -11 15 -8 20 7 12 21 11
29 -1z"/>
<path d="M5495 1925 c-32 -31 -32 -69 0 -100 31 -32 69 -32 102 1 20 20 24 31
19 57 -12 64 -77 87 -121 42z m95 -15 c31 -57 -24 -119 -75 -86 -32 21 -40 52
-21 81 22 33 80 35 96 5z"/>
<path d="M4112 1898 c-30 -30 -3 -83 39 -76 32 5 45 31 31 62 -13 28 -49 35
-70 14z m52 -14 c19 -19 4 -57 -21 -52 -26 5 -39 34 -24 52 17 20 26 20 45 0z"/>
<path d="M4810 1890 c-24 -24 -25 -38 -4 -68 17 -24 62 -30 82 -10 18 18 14
63 -6 81 -25 22 -48 21 -72 -3z m70 -15 c15 -18 10 -45 -12 -59 -33 -20 -69
20 -54 60 7 18 50 18 66 -1z"/>
<path d="M4452 1881 c-21 -13 -10 -46 16 -49 27 -4 40 22 22 43 -14 17 -20 18
-38 6z m28 -27 c0 -9 -5 -14 -12 -12 -18 6 -21 28 -4 28 9 0 16 -7 16 -16z"/>
<path d="M3466 1824 c-21 -21 -20 -47 2 -67 24 -22 45 -21 65 1 22 24 21 45
-1 65 -23 21 -46 22 -66 1z m59 -10 c18 -18 16 -33 -7 -47 -35 -22 -66 21 -36
51 16 16 23 15 43 -4z"/>
</g>
</svg>
