<?xml version="1.0" encoding="UTF-8" standalone="yes"?>
<svg version="1.0" xmlns="http://www.w3.org/2000/svg" width="1024.000000pt" height="1024.000000pt" viewBox="0 0 1024.000000 1024.000000" preserveAspectRatio="xMidYMid meet">
  <metadata>
Created by potrace 1.16, written by Peter Selinger 2001-2019
</metadata>
  <g transform="translate(0.000000,1024.000000) scale(0.100000,-0.100000)" fill="#000000" stroke="none">
    <path d="M2260 9584 c-183 -35 -346 -169 -391 -322 l-13 -44 -43 5 c-73 7&#xA;-212 -10 -277 -34 -125 -47 -214 -177 -203 -299 l5 -55 -49 -2 c-143 -6 -318&#xA;-104 -370 -205 -48 -94 -15 -175 97 -235 104 -56 133 -58 859 -57 913 1 1100&#xA;10 1195 59 14 7 30 14 35 15 20 5 96 65 119 94 73 96 91 193 57 304 -28 93&#xA;-80 158 -159 200 -98 52 -247 62 -323 21 -18 -9 -19 -5 -19 74 0 199 -89 367&#xA;-233 436 -34 17 -75 33 -92 36 -43 9 -166 14 -195 9z m238 -133 c90 -49 139&#xA;-115 173 -236 19 -67 16 -198 -4 -258 -22 -62 -21 -74 3 -87 17 -9 30 -5 80&#xA;28 132 88 277 80 381 -21 37 -36 69 -121 69 -183 0 -48 -48 -132 -94 -166&#xA;-106 -78 -214 -95 -606 -98 -151 -1 -293 -3 -315 -5 -69 -5 -862 -6 -887 -1&#xA;-12 3 -48 7 -78 11 -125 12 -186 35 -216 80 -33 50 13 114 121 171 98 52 215&#xA;67 310 42 50 -13 77 -5 83 25 3 15 -10 31 -69 81 -43 37 -13 154 56 215 67 58&#xA;117 75 230 75 98 1 101 0 147 -32 33 -24 52 -32 67 -27 25 8 37 46 22 73 -47&#xA;88 55 247 204 318 66 31 76 33 165 31 87 -2 100 -5 158 -36z m-478 -1097 c0&#xA;-8 -19 -13 -24 -6 -3 5 1 9 9 9 8 0 15 -2 15 -3z"/>
    <path d="M7945 9533 c-98 -10 -216 -63 -283 -126 -52 -49 -102 -140 -116 -209&#xA;-7 -35 -17 -62 -22 -61 -5 1 -31 7 -58 14 -60 14 -136 6 -212 -23 -97 -37&#xA;-234 -191 -234 -262 0 -11 -14 -15 -57 -15 -32 0 -78 -5 -103 -11 -51 -13&#xA;-126 -61 -123 -79 2 -6 -2 -10 -8 -8 -33 7 -84 -132 -68 -188 12 -40 40 -76&#xA;76 -98 76 -44 316 -81 603 -92 85 -3 166 -8 179 -11 33 -7 1634 -5 1696 2 105&#xA;12 188 55 226 118 28 47 24 86 -14 135 -72 90 -189 138 -317 129 -49 -4 -73&#xA;-2 -75 6 -34 134 -68 183 -159 235 -69 39 -126 53 -217 53 -57 0 -87 -5 -117&#xA;-21 -23 -12 -45 -21 -49 -21 -4 0 -9 23 -10 50 -4 119 -63 251 -151 336 -112&#xA;110 -247 161 -387 147z m190 -128 c172 -80 263 -253 256 -486 -1 -61 2 -80 17&#xA;-99 23 -29 44 -19 82 36 71 106 206 122 341 41 68 -41 121 -121 119 -182 -3&#xA;-71 0 -81 24 -94 20 -11 30 -9 77 14 46 24 61 27 114 22 34 -3 75 -12 91 -18&#xA;40 -17 104 -79 104 -101 0 -24 -83 -65 -157 -77 -82 -14 -1942 -1 -2053 14&#xA;-14 2 -54 6 -90 10 -85 9 -117 14 -165 26 -22 6 -47 13 -56 14 -24 5 -77 33&#xA;-84 46 -13 20 6 80 38 116 60 68 155 90 251 58 67 -23 94 -3 73 55 -13 34 19&#xA;95 81 162 55 59 106 87 172 95 75 9 132 -11 179 -63 43 -47 61 -53 82 -28 14&#xA;17 14 77 -1 104 -10 19 14 138 36 182 21 41 111 125 158 147 91 44 223 47 311&#xA;6z"/>
    <path d="M5403 9498 c-4 -7 -15 -40 -23 -73 -14 -54 -19 -60 -41 -58 -13 1&#xA;-71 7 -128 13 -116 12 -252 2 -371 -29 l-70 -17 -11 35 c-27 90 -56 128 -85&#xA;117 -14 -5 -16 -17 -11 -74 3 -37 9 -77 12 -88 6 -18 -3 -27 -59 -58 -152 -85&#xA;-310 -228 -411 -371 -27 -39 -49 -71 -50 -72 -1 -2 -37 17 -81 42 -88 50 -124&#xA;57 -124 23 0 -21 81 -109 128 -138 l23 -15 -44 -95 c-25 -52 -59 -138 -78&#xA;-191 l-33 -96 -48 19 c-59 22 -94 23 -102 2 -10 -26 12 -53 70 -85 41 -24 54&#xA;-36 49 -48 -11 -28 -43 -172 -59 -265 -9 -49 -18 -91 -21 -94 -2 -3 -37 5 -77&#xA;17 -84 24 -121 27 -137 8 -8 -11 -7 -18 7 -30 21 -19 162 -87 181 -87 15 0 15&#xA;-6 -14 -275 -8 -77 -15 -161 -15 -186 0 -26 -3 -59 -6 -75 -5 -27 -8 -29 -50&#xA;-25 -62 4 -94 -5 -94 -29 0 -24 30 -43 93 -60 l48 -13 -6 -71 c-3 -39 -7 -203&#xA;-8 -364 -2 -288 -2 -293 -22 -287 -11 3 -41 8 -68 12 -37 5 -51 2 -67 -12 -31&#xA;-28 -10 -51 73 -76 39 -13 75 -25 78 -28 4 -4 9 -126 11 -274 4 -238 2 -267&#xA;-11 -263 -79 23 -141 17 -141 -13 0 -27 28 -46 98 -66 l62 -19 0 -66 c0 -37 3&#xA;-89 7 -115 l6 -48 -104 6 c-177 10 -313 60 -401 148 -54 54 -87 117 -117 225&#xA;l-19 72 60 22 c34 12 72 33 86 47 23 23 23 26 8 41 -14 14 -23 15 -78 3 -35&#xA;-7 -67 -13 -73 -14 -6 -1 -11 94 -13 264 l-2 266 74 27 c80 30 112 55 102 82&#xA;-6 14 -16 16 -74 11 -37 -4 -77 -9 -88 -13 -20 -5 -22 -1 -29 58 -10 89 -45&#xA;269 -56 291 -9 15 0 28 55 80 67 63 72 72 57 96 -11 17 -67 1 -124 -36 -22&#xA;-13 -40 -23 -41 -21 -1 2 -13 20 -25 40 -41 69 -175 157 -263 173 l-38 7 0 78&#xA;c0 65 -4 82 -21 101 -15 17 -19 19 -15 7 3 -11 0 -17 -7 -15 -15 3 -46 -87&#xA;-47 -135 0 -36 -2 -38 -32 -38 -53 -1 -119 -19 -182 -51 -32 -16 -60 -29 -61&#xA;-27 -2 2 -24 31 -50 66 -35 48 -51 63 -67 60 -12 -2 -22 -12 -24 -23 -3 -21&#xA;32 -133 48 -152 7 -9 -6 -30 -47 -75 -66 -73 -152 -240 -185 -358 -26 -95 -60&#xA;-300 -60 -362 l0 -47 -97 2 c-94 2 -98 1 -101 -20 -4 -28 34 -48 122 -65 l66&#xA;-13 0 -116 c0 -119 23 -399 39 -469 5 -22 6 -42 2 -44 -3 -2 -28 -7 -56 -12&#xA;-156 -23 -153 -85 4 -89 66 -1 76 -4 80 -21 20 -104 113 -347 169 -438 24 -40&#xA;32 -61 24 -64 -22 -7 -113 -83 -119 -98 -3 -9 1 -22 10 -31 13 -14 23 -12 96&#xA;20 l81 35 45 -52 c73 -81 183 -171 277 -227 72 -43 86 -55 78 -69 -5 -9 -12&#xA;-39 -15 -67 -6 -39 -4 -53 10 -66 9 -9 21 -17 26 -17 6 0 24 30 41 68 16 37&#xA;31 68 33 70 1 1 18 -4 38 -13 73 -30 245 -75 367 -95 69 -11 128 -20 131 -20&#xA;3 0 3 -27 1 -60 -3 -44 0 -66 12 -85 25 -38 44 -21 68 61 l22 74 121 0 c66 0&#xA;162 5 214 10 52 6 95 9 97 8 1 -2 6 -76 10 -165 l7 -163 -41 0 c-51 0 -91 -15&#xA;-99 -36 -9 -25 22 -42 88 -50 l57 -6 6 -97 c4 -53 9 -125 12 -160 l6 -64 -89&#xA;7 c-48 4 -119 12 -158 17 -38 6 -90 12 -115 15 -25 3 -79 11 -120 19 -89 16&#xA;-412 73 -455 79 -35 5 -313 51 -435 71 -82 14 -260 38 -365 50 -27 3 -66 7&#xA;-85 10 -19 2 -98 7 -175 11 -77 3 -187 10 -245 14 -226 17 -586 -1 -925 -47&#xA;-60 -8 -130 -17 -155 -19 -25 -3 -76 -11 -115 -19 -38 -7 -90 -16 -115 -19&#xA;-56 -8 -113 -41 -108 -63 4 -20 53 -25 133 -13 33 5 87 12 120 15 86 9 119 16&#xA;127 29 5 8 8 7 8 -2 0 -7 4 -11 9 -8 4 3 35 8 67 12 32 3 65 11 73 17 12 10&#xA;13 9 7 -2 -7 -10 -2 -12 20 -7 16 3 70 8 119 12 50 3 98 8 108 10 9 1 79 6&#xA;155 10 75 4 143 12 151 18 9 7 12 7 9 0 -5 -7 53 -11 185 -12 191 -1 267 -5&#xA;447 -22 52 -5 124 -12 160 -15 36 -3 74 -7 85 -9 11 -2 47 -7 80 -11 72 -8&#xA;624 -94 645 -100 8 -3 58 -11 110 -19 52 -8 160 -26 240 -39 147 -25 194 -32&#xA;285 -42 28 -3 68 -8 90 -10 22 -3 69 -7 105 -10 36 -3 79 -8 97 -10 l31 -6 8&#xA;-112 c4 -62 7 -114 8 -117 1 -3 -26 -7 -58 -10 -103 -9 -101 -61 3 -75 69 -10&#xA;71 -11 71 -52 0 -21 11 -130 25 -243 14 -113 25 -209 25 -215 0 -6 -26 -9 -63&#xA;-8 -71 2 -112 -13 -112 -42 0 -14 10 -21 35 -26 19 -4 62 -13 96 -20 l60 -12&#xA;18 -122 c10 -66 30 -183 45 -258 16 -75 26 -137 25 -137 -2 0 -25 16 -51 36&#xA;-67 52 -140 84 -191 84 -24 0 -41 -4 -38 -9 4 -5 0 -11 -6 -13 -7 -3 25 -30&#xA;72 -61 80 -52 215 -165 207 -173 -3 -3 -109 -13 -307 -29 -36 -3 -74 -8 -85&#xA;-10 -11 -2 -69 -11 -130 -20 -60 -9 -117 -18 -125 -20 -10 -3 -39 25 -80 76&#xA;-69 87 -194 188 -270 221 -101 44 -213 59 -310 43 -228 -37 -450 -216 -542&#xA;-438 -17 -40 -31 -73 -32 -74 0 0 -48 -11 -106 -23 -202 -42 -387 -95 -525&#xA;-150 -173 -70 -254 -123 -311 -206 -35 -50 -39 -63 -39 -118 0 -52 5 -68 31&#xA;-106 17 -26 38 -44 47 -44 9 1 14 -2 12 -7 -8 -12 113 -71 127 -63 6 4 8 3 5&#xA;-3 -13 -21 202 -85 413 -123 130 -24 316 -38 307 -23 -3 5 0 10 8 10 8 0 12&#xA;-4 10 -8 -7 -11 31 -18 46 -8 11 7 11 9 1 9 -8 0 -10 5 -6 12 5 7 2 9 -9 5 -9&#xA;-3 -17 -2 -19 4 -4 13 -148 51 -175 46 -12 -2 -20 -1 -18 4 3 4 -19 10 -47 14&#xA;-29 4 -64 12 -78 17 -14 5 -41 11 -60 14 -78 8 -288 73 -372 114 -88 45 -138&#xA;94 -138 139 0 76 96 150 298 230 146 57 505 151 578 151 6 0 15 -15 18 -34 15&#xA;-77 77 -116 237 -146 86 -16 139 -18 314 -16 116 2 226 6 245 10 80 16 180 40&#xA;260 63 47 13 92 26 100 28 8 2 35 11 60 20 69 26 193 31 265 10 93 -26 109&#xA;-25 113 7 4 30 -36 65 -63 54 -9 -3 -14 -2 -11 3 8 12 -27 20 -125 27 l-85 7&#xA;-2 33 c-2 18 -9 52 -17 75 -9 23 -14 44 -12 46 3 3 103 18 287 42 41 6 104 13&#xA;140 15 36 3 104 8 152 12 l87 7 9 -39 c36 -140 55 -209 76 -279 13 -44 23 -81&#xA;22 -82 -1 -1 -39 -3 -85 -4 -168 -4 -277 -42 -237 -81 12 -12 25 -13 68 -6 73&#xA;12 196 11 271 -2 66 -11 149 -35 367 -105 195 -62 311 -79 484 -72 154 7 269&#xA;28 420 76 215 69 284 83 376 77 47 -4 118 -15 158 -25 68 -18 73 -18 93 -2&#xA;l22 17 -28 22 c-37 29 -108 49 -225 63 -52 6 -96 12 -97 13 -2 1 21 88 50 192&#xA;l53 189 34 -3 c51 -4 209 -31 252 -43 29 -7 38 -15 43 -40 4 -17 14 -33 22&#xA;-36 21 -8 101 -9 108 -1 4 3 9 30 12 60 10 102 57 261 113 383 34 74 144 235&#xA;161 235 11 0 -35 -160 -113 -395 -73 -219 -86 -289 -56 -308 14 -9 36 8 140&#xA;113 68 69 155 150 193 181 67 54 213 145 220 137 5 -5 -164 -208 -260 -312&#xA;-77 -83 -106 -128 -92 -142 3 -4 24 -7 47 -8 32 0 45 5 68 30 l28 31 79 -8&#xA;c70 -8 165 -22 230 -36 11 -2 56 -10 100 -18 101 -18 330 -81 504 -139 74 -25&#xA;138 -43 142 -41 4 3 9 2 11 -3 5 -14 78 -52 99 -52 30 0 22 26 -18 60 -130&#xA;108 -597 262 -957 315 -54 8 -100 16 -102 17 -1 2 12 20 29 39 201 230 243&#xA;282 251 319 10 42 -7 55 -65 53 -135 -6 -288 -89 -461 -252 -76 -71 -88 -79&#xA;-68 -43 60 107 160 431 160 519 0 50 -16 63 -73 55 -47 -5 -136 -84 -203 -178&#xA;-47 -65 -111 -195 -138 -279 -9 -27 -19 -57 -22 -65 -3 -8 -16 16 -28 57 -26&#xA;79 -58 138 -82 147 -21 8 -54 -11 -55 -32 -2 -31 3 -66 16 -119 8 -28 17 -72&#xA;20 -96 l7 -44 -64 13 c-34 7 -96 16 -136 20 l-74 7 6 31 c25 120 76 417 86&#xA;496 19 163 19 160 43 160 41 0 132 29 144 46 22 30 -2 44 -78 44 -37 0 -70 3&#xA;-72 8 -3 4 3 79 13 167 10 88 21 198 25 245 4 47 12 91 17 98 6 6 25 12 42 12&#xA;50 0 169 29 177 42 18 29 -17 41 -118 40 l-98 -2 12 143 c6 78 12 159 12 180&#xA;1 21 6 39 14 41 6 2 55 11 107 21 52 9 118 21 145 26 205 39 352 62 490 80 88&#xA;10 178 22 200 24 319 40 527 51 950 53 355 1 520 -6 950 -43 292 -24 306 -25&#xA;400 -35 50 -5 122 -12 160 -15 89 -7 189 -15 240 -20 22 -2 66 -7 98 -10 47&#xA;-5 57 -4 51 7 -5 10 -4 11 7 0 9 -8 51 -12 136 -12 110 0 123 2 133 19 8 17 5&#xA;21 -23 30 -53 16 -98 23 -252 37 -44 4 -87 8 -95 9 -8 1 -55 5 -105 9 -49 4&#xA;-101 9 -115 11 -14 3 -97 11 -185 20 -88 9 -171 18 -185 20 -14 2 -68 7 -120&#xA;10 -52 4 -108 8 -125 10 -16 1 -61 5 -100 9 -38 3 -90 8 -115 11 -358 37&#xA;-1096 37 -1455 0 -22 -3 -110 -12 -195 -20 -193 -20 -321 -38 -520 -75 -180&#xA;-33 -176 -32 -343 -60 -71 -12 -130 -20 -133 -18 -2 2 0 47 4 99 l7 94 55 6&#xA;c97 10 169 45 144 68 -11 11 -79 20 -147 20 l-49 1 6 88 c4 48 9 119 12 158&#xA;l5 72 177 1 c178 2 337 14 402 31 19 6 49 10 65 10 28 0 31 -4 47 -59 21 -71&#xA;48 -107 72 -98 16 6 18 19 14 97 l-3 91 40 10 c113 28 274 88 394 145 73 35&#xA;134 64 136 64 1 0 8 -13 15 -29 16 -40 65 -85 84 -78 20 8 20 58 1 112 -8 22&#xA;-15 45 -15 50 0 6 22 27 48 48 123 94 294 285 374 418 l39 67 31 -15 c17 -9&#xA;62 -18 99 -21 66 -4 69 -4 69 18 0 15 -4 20 -15 16 -8 -3 -14 0 -12 5 1 6 -28&#xA;26 -65 45 l-66 34 34 80 c45 107 99 284 120 391 l16 87 79 4 c73 4 109 18 109&#xA;40 0 12 -57 36 -121 49 l-51 11 6 57 c3 31 9 136 12 234 l7 177 41 11 c63 16&#xA;126 57 126 80 0 28 -24 34 -93 21 -34 -6 -62 -10 -63 -9 -1 1 -11 68 -23 148&#xA;-12 87 -34 187 -54 245 l-32 99 68 66 c70 67 83 100 44 107 -19 4 -109 -39&#xA;-140 -67 -18 -15 -20 -14 -38 9 -41 52 -126 132 -170 161 -25 16 -75 40 -110&#xA;52 l-64 23 3 37 c4 45 -15 144 -30 153 -21 13 -47 -36 -59 -111 l-13 -75 -32&#xA;0 c-44 0 -156 -36 -235 -76 l-66 -33 -31 45 c-70 99 -121 21 -54 -83 13 -21&#xA;12 -26 -14 -56 -92 -105 -158 -265 -189 -458 l-5 -37 -73 30 c-113 46 -178 48&#xA;-162 6 7 -18 86 -70 163 -108 62 -31 62 -31 57 -68 -3 -20 -12 -118 -21 -217&#xA;-9 -99 -18 -183 -20 -187 -3 -4 -18 -1 -34 7 -41 21 -138 45 -155 38 -46 -17&#xA;9 -76 111 -117 68 -28 66 -19 23 -151 -70 -212 -209 -360 -407 -435 -68 -26&#xA;-239 -60 -301 -60 l-51 0 5 48 c2 26 7 109 11 185 l6 137 37 0 c88 0 203 57&#xA;182 89 -11 17 -57 19 -153 8 l-67 -8 5 88 c2 48 7 168 10 265 l6 177 68 22&#xA;c38 12 78 30 90 41 19 18 20 22 7 36 -16 15 -85 18 -141 6 l-29 -6 6 53 c4 30&#xA;7 145 7 256 l0 202 38 6 c103 17 140 27 171 46 32 19 33 21 17 37 -14 14 -36&#xA;17 -119 17 l-102 -1 -3 261 -2 261 48 23 c69 33 125 82 117 104 -9 23 -58 22&#xA;-114 -3 -24 -11 -46 -20 -51 -20 -4 0 -10 64 -14 143 -3 78 -13 191 -21 251&#xA;-8 61 -13 111 -12 112 1 1 30 13 63 28 107 44 156 80 137 100 -13 13 -104 5&#xA;-162 -13 l-61 -19 -11 42 c-43 165 -114 336 -178 430 -17 24 -31 49 -31 54 0&#xA;5 24 30 54 55 63 55 94 107 70 120 -20 11 -130 -41 -163 -77 l-24 -25 -50 45&#xA;c-95 85 -326 226 -405 246 -17 5 -18 10 -9 54 8 39 6 57 -6 87 -16 37 -39 48&#xA;-54 25z m-347 -290 c-27 -163 -59 -396 -70 -503 -21 -206 -26 -263 -32 -360&#xA;-3 -60 -8 -121 -10 -135 -11 -73 -19 -654 -19 -1440 1 -881 13 -2961 20 -3285&#xA;2 -93 6 -555 10 -1025 3 -470 8 -906 10 -967 3 -87 1 -113 -9 -113 -20 0 -217&#xA;37 -262 49 -47 13 -44 5 -84 246 -30 186 -33 206 -51 365 -5 52 -12 102 -14&#xA;110 -2 8 -7 53 -10 100 -3 47 -8 92 -10 100 -2 8 -7 53 -10 100 -3 47 -8 92&#xA;-10 100 -2 8 -7 56 -10 105 -3 50 -8 106 -10 125 -3 19 -11 125 -20 235 -8&#xA;110 -22 281 -30 380 -24 293 -59 875 -71 1174 -5 114 -3 164 6 180 9 18 9 26&#xA;-3 39 -21 24 -26 156 -33 1020 -6 698 -6 734 12 746 16 12 16 17 4 45 -10 25&#xA;-11 80 -6 249 6 196 31 655 40 742 3 19 10 97 17 173 12 130 14 140 36 148 27&#xA;10 28 16 7 40 -15 16 -15 29 -4 116 6 54 20 139 30 188 10 50 20 104 23 120 9&#xA;56 49 200 87 317 89 270 216 466 337 523 29 14 77 26 137 34 5 0 5 -18 2 -41z&#xA;m218 7 c25 -27 111 -165 144 -230 42 -85 98 -303 130 -513 16 -102 17 -124 5&#xA;-133 -19 -17 -16 -50 6 -56 22 -6 24 -24 45 -358 19 -296 21 -426 21 -1390 0&#xA;-792 -6 -1217 -20 -1525 -3 -58 -10 -225 -15 -372 -11 -271 -13 -313 -30 -608&#xA;-15 -236 -20 -318 -25 -380 -2 -30 -7 -95 -10 -145 -11 -190 -25 -422 -30&#xA;-475 -2 -30 -7 -95 -10 -145 -6 -96 -31 -388 -50 -595 -2 -19 -6 -66 -10 -105&#xA;-3 -38 -8 -86 -10 -105 -3 -19 -9 -78 -15 -130 -10 -95 -46 -357 -54 -395 -2&#xA;-12 -7 -46 -11 -78 -5 -39 -12 -58 -24 -61 -40 -13 -164 -33 -219 -35 -53 -2&#xA;-61 0 -60 16 2 34 -14 1208 -17 1283 -2 41 -6 401 -9 800 -3 399 -8 968 -11&#xA;1265 l-5 540 75 53 c76 54 110 98 99 126 -10 26 -39 18 -103 -29 -34 -25 -64&#xA;-45 -67 -45 -11 0 3 2606 15 2775 16 229 39 480 56 609 8 61 22 166 30 234 9&#xA;68 20 146 25 174 6 28 10 52 10 54 0 2 27 4 60 4 52 0 64 -4 84 -25z m218 -60&#xA;c113 -56 165 -94 254 -187 118 -122 205 -294 303 -599 33 -101 59 -249 73&#xA;-419 21 -253 16 -1659 -7 -1995 -3 -38 -12 -259 -20 -490 -41 -1143 -85 -1875&#xA;-146 -2415 -11 -96 -26 -233 -34 -305 -48 -428 -130 -848 -222 -1131 l-36&#xA;-112 -126 -30 c-69 -17 -127 -29 -127 -29 -1 1 11 90 26 197 15 107 30 220 34&#xA;250 3 30 10 93 15 140 6 47 13 119 16 160 3 41 8 91 10 110 5 40 11 114 20&#xA;245 3 50 10 137 15 195 5 58 12 152 16 210 3 58 9 141 14 185 4 44 7 114 6&#xA;157 0 42 2 74 7 71 4 -2 7 20 7 50 l0 55 86 49 c96 53 144 92 144 117 0 29&#xA;-56 18 -144 -29 -47 -25 -84 -39 -81 -32 4 15 13 127 20 272 3 61 8 133 10&#xA;160 2 28 7 113 11 190 3 77 8 154 9 170 2 17 4 60 4 97 l1 67 65 32 c83 41&#xA;141 90 132 112 -10 26 -48 21 -121 -17 l-67 -33 6 181 c3 100 8 210 10 245 2&#xA;34 7 160 11 280 4 119 8 225 9 236 1 11 3 82 4 157 l1 137 62 33 c82 43 131&#xA;90 126 120 -5 38 -45 34 -116 -12 -35 -22 -65 -40 -68 -40 -3 0 -3 19 0 43 3&#xA;23 5 269 5 547 l1 506 53 26 c74 36 119 76 115 102 -5 34 -46 31 -110 -8 l-58&#xA;-35 0 52 c-1 29 -3 88 -5 132 -2 44 -7 177 -10 295 -6 223 -21 502 -34 628&#xA;l-7 72 42 25 c51 30 106 91 102 113 -6 31 -55 26 -107 -11 l-48 -35 -22 137&#xA;c-51 310 -105 473 -197 604 -19 26 -31 47 -28 47 3 0 46 -20 96 -45z m-799&#xA;-77 c-102 -152 -194 -372 -237 -563 -8 -33 -21 -94 -31 -135 -25 -112 -55&#xA;-291 -55 -327 l0 -31 -71 41 c-55 32 -75 38 -87 30 -43 -27 -17 -70 78 -131&#xA;30 -19 56 -36 58 -37 2 -2 -6 -94 -17 -206 -20 -203 -25 -274 -36 -484 -3 -60&#xA;-8 -141 -10 -180 -2 -38 -5 -139 -6 -222 0 -84 -5 -155 -10 -158 -5 -4 -29 6&#xA;-53 20 -81 47 -140 15 -78 -43 16 -15 52 -38 79 -52 l50 -24 -1 -501 c-1 -468&#xA;9 -1055 20 -1166 3 -27 3 -49 0 -49 -2 0 -32 16 -65 36 -34 20 -68 34 -76 30&#xA;-18 -7 -20 -37 -2 -57 14 -17 90 -77 127 -101 14 -8 26 -24 27 -34 0 -11 1&#xA;-68 3 -129 1 -60 6 -171 10 -245 5 -74 12 -193 15 -265 4 -71 8 -140 10 -151&#xA;2 -12 6 -85 10 -162 l7 -140 -48 24 c-78 38 -111 45 -130 27 -14 -14 -13 -18&#xA;11 -44 15 -15 60 -44 101 -65 41 -21 74 -42 75 -48 1 -6 2 -22 3 -36 2 -14 6&#xA;-74 10 -135 8 -124 14 -199 21 -265 3 -25 10 -110 15 -190 5 -80 12 -163 14&#xA;-185 5 -43 5 -45 36 -375 11 -118 22 -231 25 -250 2 -19 7 -60 10 -90 8 -79&#xA;43 -321 60 -417 17 -91 19 -123 8 -122 -5 0 -48 15 -98 32 l-90 32 -33 95&#xA;c-72 207 -165 628 -226 1017 -57 364 -119 1025 -141 1488 -3 66 -7 149 -10&#xA;185 -10 135 -33 691 -50 1170 -15 461 -13 1719 4 1900 42 458 118 837 213&#xA;1070 100 246 244 448 411 577 55 43 185 123 198 123 4 0 -18 -37 -48 -82z&#xA;m3028 -1815 c34 -88 69 -396 70 -607 0 -111 -3 -142 -16 -156 -18 -20 -19 -34&#xA;-2 -48 16 -14 13 -72 -14 -297 -43 -360 -146 -631 -316 -831 -28 -34 -49 -65&#xA;-45 -70 4 -4 2 -4 -5 -1 -6 4 -37 -15 -70 -41 -113 -94 -226 -156 -395 -217&#xA;-78 -28 -279 -82 -338 -91 -19 -3 -42 -7 -50 -9 -15 -5 -294 -35 -317 -35 -15&#xA;0 -17 57 -7 198 l7 91 56 6 c159 18 386 69 377 84 -2 3 8 7 23 8 37 3 186 66&#xA;186 80 0 6 4 15 9 20 5 5 6 3 2 -4 -13 -22 12 -14 71 23 82 52 164 124 157&#xA;136 -4 7 -2 8 4 4 17 -10 83 65 135 153 93 156 154 357 182 596 3 28 7 66 10&#xA;85 6 48 23 273 30 395 22 377 59 521 138 544 18 5 49 10 70 10 32 1 39 -3 48&#xA;-26z m168 -6 c71 -33 142 -110 189 -207 83 -169 108 -342 99 -689 -3 -124 -13&#xA;-271 -21 -326 -71 -475 -243 -820 -529 -1064 -47 -39 -89 -71 -94 -71 -5 0&#xA;-20 11 -32 24 -13 14 -37 29 -53 35 -42 15 -48 -11 -15 -70 l26 -48 -97 -49&#xA;c-128 -66 -267 -116 -427 -157 -179 -45 -327 -63 -548 -68 l-188 -5 2 108 c1&#xA;59 4 112 8 117 3 6 38 13 76 17 39 3 99 9 135 12 58 5 268 43 360 64 137 32&#xA;394 141 497 211 104 70 236 195 228 216 -2 7 1 10 8 8 13 -5 81 95 140 205 92&#xA;170 174 499 192 765 12 182 12 183 58 203 83 37 135 97 115 135 -12 24 -21 22&#xA;-91 -23 l-62 -39 -6 177 c-4 98 -14 227 -23 287 -9 61 -19 125 -22 144 -5 35&#xA;-12 73 -21 105 -4 16 -1 18 22 12 15 -4 48 -17 74 -29z m-438 -90 c-23 -60&#xA;-45 -242 -56 -452 -24 -461 -66 -708 -159 -928 -9 -21 -14 -43 -10 -50 4 -7 3&#xA;-9 -1 -5 -5 5 -22 -16 -38 -45 -35 -60 -172 -202 -235 -241 -25 -16 -40 -31&#xA;-36 -38 4 -7 3 -8 -4 -4 -6 4 -42 -9 -79 -27 -163 -82 -371 -143 -528 -154&#xA;l-80 -6 3 75 3 75 52 1 c123 4 285 41 401 91 133 58 291 200 357 321 97 177&#xA;139 342 174 688 41 407 78 538 191 677 48 59 61 65 45 22z m-4810 -42 c22 -91&#xA;39 -354 44 -705 6 -416 16 -530 62 -674 14 -45 37 -103 50 -131 38 -75 104&#xA;-165 116 -158 5 3 7 2 4 -4 -9 -15 63 -95 80 -89 8 3 12 2 9 -3 -9 -14 71 -71&#xA;157 -111 89 -42 261 -96 335 -106 26 -3 50 -8 53 -10 4 -2 58 -7 120 -10 63&#xA;-4 115 -7 115 -8 1 0 5 -70 8 -154 l8 -154 -129 7 c-281 13 -585 89 -772 191&#xA;-270 148 -434 407 -512 808 -10 51 -9 60 5 68 22 12 20 27 -6 56 -23 23 -23&#xA;28 -23 285 0 297 7 404 36 556 33 173 66 278 106 344 23 37 25 38 75 35 48 -3&#xA;52 -5 59 -33z m175 -62 c49 -48 100 -148 123 -238 29 -118 40 -244 42 -490 5&#xA;-562 50 -735 233 -881 132 -105 235 -139 491 -162 l79 -7 2 -45 c1 -25 -3 -48&#xA;-10 -52 -56 -37 -447 50 -611 135 -202 105 -339 311 -387 582 -16 92 -21 184&#xA;-28 550 -8 390 -16 540 -36 653 l-6 33 37 -23 c21 -12 53 -37 71 -55z m-410&#xA;-5 c-45 -120 -89 -347 -103 -534 -4 -55 -8 -194 -7 -310 l0 -212 -35 23 c-53&#xA;33 -76 38 -91 20 -19 -22 10 -60 80 -103 l58 -36 12 -76 c12 -81 44 -202 84&#xA;-316 32 -96 105 -236 119 -227 6 3 7 1 3 -5 -18 -30 155 -221 259 -287 108&#xA;-69 323 -159 362 -152 12 2 20 1 18 -3 -5 -7 77 -31 180 -52 96 -19 251 -35&#xA;349 -36 54 -1 101 -4 104 -7 9 -9 15 -165 6 -166 -5 0 -18 -2 -29 -5 -37 -8&#xA;-346 -10 -438 -2 -253 19 -534 101 -692 201 -178 113 -319 272 -411 465 -44&#xA;95 -107 285 -128 387 -43 217 -59 569 -35 796 26 260 97 456 212 584 49 56&#xA;121 115 138 115 5 0 -2 -28 -15 -62z m5004 -1844 c0 -8 -19 -13 -24 -6 -3 5 1&#xA;9 9 9 8 0 15 -2 15 -3z m830 -1248 c0 -2 -8 -10 -17 -17 -16 -13 -17 -12 -4 4&#xA;13 16 21 21 21 13z m-7446 -74 c3 -5 -1 -9 -9 -9 -8 0 -12 4 -9 9 3 4 7 8 9 8&#xA;2 0 6 -4 9 -8z m1487 -19 c13 -16 12 -17 -3 -4 -10 7 -18 15 -18 17 0 8 8 3&#xA;21 -13z m-2060 -46 c-10 -9 -11 -8 -5 6 3 10 9 15 12 12 3 -3 0 -11 -7 -18z&#xA;m3429 -163 c0 -8 -19 -13 -24 -6 -3 5 1 9 9 9 8 0 15 -2 15 -3z m1877 -827 c0&#xA;-8 -6 -14 -14 -14 -9 0 -10 4 -2 14 6 7 12 13 14 13 1 0 2 -6 2 -13z m-2581&#xA;-675 c161 -56 334 -221 398 -379 45 -110 54 -100 -129 -145 -286 -69 -356 -78&#xA;-570 -74 -199 4 -288 17 -342 49 -46 27 -48 71 -6 177 66 167 225 321 382 371&#xA;74 24 199 24 267 1z m-1626 -1048 c0 -8 -19 -13 -24 -6 -3 5 1 9 9 9 8 0 15&#xA;-2 15 -3z m235 -73 c3 -5 2 -12 -3 -15 -5 -3 -9 1 -9 9 0 17 3 19 12 6z m81&#xA;-7 c-1 -8 -4 -15 -7 -16 -2 -2 -3 -1 -2 1 2 2 -2 9 -7 16 -7 8 -5 12 4 12 8 0&#xA;13 -6 12 -13z"/>
    <path d="M4710 7266 c0 -25 49 -86 70 -86 6 0 8 5 5 10 -3 6 -1 10 4 10 21 0&#xA;11 32 -18 61 -36 36 -61 38 -61 5z"/>
    <path d="M4707 4353 c-19 -18 -1 -47 64 -102 75 -66 119 -80 119 -39 0 31&#xA;-119 148 -152 148 -13 0 -28 -3 -31 -7z"/>
    <path d="M4693 3065 c-7 -19 4 -74 18 -91 30 -36 54 38 29 87 -13 23 -38 25&#xA;-47 4z"/>
    <path d="M5643 2430 c-74 -30 -126 -84 -82 -86 19 0 103 41 123 61 31 32 10&#xA;45 -41 25z"/>
    <path d="M1290 7307 c-3 -2 -25 -7 -50 -10 -99 -13 -193 -59 -246 -121 -37&#xA;-43 -52 -82 -50 -132 l1 -32 -80 -7 c-148 -12 -225 -45 -272 -116 -48 -73 -31&#xA;-149 42 -183 55 -27 165 -33 493 -31 321 3 485 11 543 26 39 10 57 33 36 46&#xA;-7 4 -235 8 -507 8 l-495 0 -33 23 c-39 28 -37 53 9 93 35 30 91 49 169 56 30&#xA;3 61 10 69 17 11 8 13 8 8 0 -10 -17 64 -25 82 -9 9 9 13 34 12 72 -3 137 110&#xA;215 309 215 186 0 283 -66 281 -191 -1 -80 12 -91 80 -61 43 18 73 24 152 29&#xA;5 1 5 5 2 11 -3 5 0 7 8 4 26 -10 28 13 2 30 -27 18 -93 21 -141 7 -29 -8 -30&#xA;-8 -26 21 12 80 -67 173 -173 204 -82 23 -214 42 -225 31z m-606 -563 c3 -8 2&#xA;-12 -4 -9 -6 3 -10 10 -10 16 0 14 7 11 14 -7z m306 -20 c11 -12 11 -15 -1&#xA;-12 -8 2 -13 -3 -11 -10 1 -8 -2 -11 -8 -7 -8 5 -8 11 -1 19 6 7 8 16 4 19 -3&#xA;4 -4 7 -1 7 3 0 11 -7 18 -16z m139 -1 c-6 -7 -15 -10 -20 -7 -13 8 -3 21 15&#xA;21 12 0 13 -4 5 -14z"/>
    <path d="M9025 5733 c-64 -14 -181 -81 -260 -148 -107 -90 -124 -108 -118&#xA;-117 4 -7 1 -8 -7 -3 -15 9 -182 -153 -173 -168 3 -6 2 -7 -4 -4 -13 8 -86&#xA;-67 -76 -78 5 -4 3 -5 -3 -2 -14 8 -60 -31 -56 -47 2 -6 0 -8 -4 -3 -10 10&#xA;-65 -43 -57 -56 3 -6 1 -7 -4 -4 -14 9 -65 -32 -57 -45 4 -6 2 -8 -3 -5 -6 4&#xA;-39 -19 -74 -49 -81 -72 -123 -114 -115 -115 3 -1 10 -2 15 -3 5 0 12 -4 16&#xA;-8 9 -9 -16 -5 -33 5 -13 9 -14 8 -75 -62 -27 -29 -36 -46 -29 -53 6 -6 18 -7&#xA;29 -3 10 5 21 9 24 9 9 1 97 65 129 93 14 12 42 36 62 53 21 18 36 36 33 40&#xA;-3 5 0 12 6 16 8 4 9 3 5 -4 -4 -7 -3 -12 1 -12 12 0 79 72 76 82 -2 4 2 7 8&#xA;5 16 -3 148 116 144 129 -2 6 2 11 9 10 7 0 77 60 155 134 78 74 151 140 162&#xA;148 11 7 16 18 13 24 -4 7 -2 8 5 4 11 -7 106 68 106 84 0 5 4 12 9 17 5 5 6&#xA;3 2 -4 -11 -20 -2 -16 80 27 l75 40 51 -20 c28 -11 54 -23 57 -27 19 -24 71&#xA;-65 87 -67 11 -2 18 -7 17 -12 -4 -14 149 -164 160 -157 6 3 7 1 4 -4 -9 -14&#xA;72 -115 84 -107 5 3 9 2 8 -3 -3 -18 2 -30 19 -49 10 -10 30 -36 46 -56 15&#xA;-21 32 -36 36 -33 5 3 12 0 16 -6 4 -8 3 -9 -4 -5 -17 10 -15 -9 1 -23 8 -6&#xA;18 -7 22 -3 5 4 5 2 2 -5 -4 -6 5 -26 20 -45 67 -80 65 -78 82 -65 14 10 14&#xA;10 4 -4 -11 -13 -7 -23 23 -57 20 -23 40 -39 46 -36 7 5 8 2 3 -5 -8 -15 63&#xA;-93 77 -85 5 3 7 0 6 -8 -2 -8 4 -12 15 -10 9 2 20 -4 23 -13 5 -13 9 -13 23&#xA;-3 14 11 14 11 4 -3 -7 -9 -12 -18 -10 -20 1 -3 -6 4 -16 15 -10 10 -21 16&#xA;-24 12 -10 -10 94 -109 106 -101 6 3 8 0 6 -8 -3 -7 10 -30 30 -50 19 -20 35&#xA;-34 35 -32 0 3 9 -4 21 -16 24 -24 41 -21 45 9 4 22 -41 79 -58 74 -5 -1 -7 2&#xA;-3 8 3 5 -14 31 -38 58 -24 26 -59 64 -77 85 -28 32 -35 36 -49 25 -14 -11&#xA;-14 -11 -4 2 6 9 9 21 5 27 -10 15 -48 9 -44 -7 1 -6 -2 -8 -8 -5 -8 5 -6 13&#xA;6 26 16 18 16 20 -6 44 -13 13 -27 22 -33 18 -6 -3 -7 -1 -3 5 3 6 -13 33 -36&#xA;59 -48 54 -153 183 -280 343 -105 133 -247 282 -261 273 -5 -3 -7 -1 -3 5 7&#xA;12 -88 88 -151 121 -41 21 -58 23 -98 14z m141 -68 c1 -8 -1 -17 -5 -19 -4 -3&#xA;-7 6 -7 19 0 25 8 25 12 0z m-475 -212 c7 -10 9 -15 5 -11 -5 4 -16 2 -25 -5&#xA;-14 -10 -14 -10 -4 4 7 9 10 19 6 22 -3 4 -4 7 -1 7 3 0 12 -8 19 -17z m773&#xA;-91 c3 -5 -1 -9 -9 -9 -8 0 -12 4 -9 9 3 4 7 8 9 8 2 0 6 -4 9 -8z m-907 -37&#xA;c0 -8 -4 -12 -9 -9 -5 3 -6 10 -3 15 9 13 12 11 12 -6z m-78 -59 c9 -11 9 -16&#xA;-1 -22 -7 -4 -10 -4 -6 1 4 4 3 14 -3 22 -6 7 -9 13 -6 13 2 0 10 -6 16 -14z&#xA;m1068 -1 c0 -6 -6 -12 -12 -12 -6 0 -12 6 -12 12 0 6 6 12 12 12 6 0 12 -6 12&#xA;-12z m-1166 -82 c13 -16 12 -17 -3 -4 -10 7 -18 15 -18 17 0 8 8 3 21 -13z&#xA;m1328 -167 c-3 -3 -11 5 -18 17 -13 21 -12 21 5 5 10 -10 16 -20 13 -22z&#xA;m-1524 -15 c-1 -9 -6 -16 -10 -16 -4 0 -9 7 -10 16 -2 9 3 16 10 16 7 0 12 -7&#xA;10 -16z m1620 -39 c-3 -3 -11 0 -18 7 -9 10 -8 11 6 5 10 -3 15 -9 12 -12z&#xA;m-1669 -14 c3 -4 -1 -5 -10 -4 -8 1 -18 5 -22 8 -3 4 1 5 10 4 8 -1 18 -5 22&#xA;-8z m-31 -27 c-9 -8 -36 -10 -30 -2 2 4 11 8 20 8 8 0 13 -3 10 -6z m1735 3&#xA;c0 -8 -19 -13 -24 -6 -3 5 1 9 9 9 8 0 15 -2 15 -3z m164 -182 c3 -5 -1 -9 -9&#xA;-9 -8 0 -12 4 -9 9 3 4 7 8 9 8 2 0 6 -4 9 -8z m31 -21 c3 -5 2 -12 -3 -15 -5&#xA;-3 -9 1 -9 9 0 17 3 19 12 6z m35 -47 c0 -8 -19 -13 -24 -6 -3 5 1 9 9 9 8 0&#xA;15 -2 15 -3z m40 -80 c0 -8 -19 -13 -24 -6 -3 5 1 9 9 9 8 0 15 -2 15 -3z m45&#xA;-13 c3 -5 2 -12 -3 -15 -5 -3 -9 1 -9 9 0 17 3 19 12 6z"/>
    <path d="M1334 5256 c-54 -17 -166 -94 -158 -108 4 -7 2 -8 -5 -4 -6 4 -18 2&#xA;-27 -4 -12 -10 -12 -16 -2 -28 9 -10 9 -13 1 -9 -6 4 -13 4 -16 0 -2 -5 -2 -2&#xA;-1 5 5 20 -5 15 -66 -35 -33 -27 -57 -54 -55 -61 3 -7 0 -10 -5 -7 -6 4 -48&#xA;-29 -93 -72 -45 -44 -93 -89 -106 -101 -13 -11 -20 -25 -17 -30 3 -5 0 -9 -8&#xA;-8 -20 2 -267 -234 -259 -246 3 -6 1 -8 -4 -5 -10 6 -50 -29 -46 -42 1 -3 -1&#xA;-8 -4 -11 -4 -3 -3 1 1 8 4 6 3 12 -2 12 -15 0 -152 -151 -146 -161 3 -5 2 -8&#xA;-3 -7 -14 5 -49 -26 -55 -49 -5 -20 -4 -21 21 -12 14 6 33 17 41 24 8 7 20 14&#xA;25 15 6 2 19 8 29 16 17 11 17 15 5 31 -13 16 -12 17 3 5 14 -11 20 -10 37 7&#xA;12 12 21 19 21 17 0 -2 24 18 53 45 28 28 60 57 69 65 9 9 15 25 13 35 -2 11&#xA;0 17 6 14 5 -4 7 -11 4 -16 -15 -23 13 -5 55 35 25 24 87 84 137 131 51 48 90&#xA;92 87 97 -3 4 0 7 8 6 7 -2 12 3 10 10 -1 8 1 11 6 8 5 -3 19 4 30 15 22 20&#xA;30 35 13 24 -5 -3 -12 -1 -16 4 -3 6 3 8 13 6 23 -4 95 52 86 67 -4 7 -2 8 4&#xA;4 14 -8 84 53 75 67 -3 5 -1 7 4 4 14 -9 65 32 57 45 -4 6 -2 8 4 4 6 -3 39&#xA;14 74 38 71 49 135 85 166 91 15 2 50 -25 133 -103 62 -59 117 -106 122 -104&#xA;4 1 6 -2 3 -7 -7 -10 104 -137 117 -133 5 1 6 -1 3 -6 -5 -9 3 -19 120 -149&#xA;135 -150 237 -252 247 -246 6 3 7 2 4 -4 -10 -16 157 -168 174 -157 5 3 8 0 7&#xA;-7 -2 -6 3 -14 11 -17 8 -2 11 0 8 6 -4 5 1 16 10 23 15 12 16 12 8 -1 -21&#xA;-34 -15 -50 28 -72 23 -13 54 -26 69 -29 25 -6 26 -5 16 17 -13 27 -18 29 -38&#xA;12 -12 -11 -12 -10 -1 5 12 15 11 21 -5 39 -28 33 -67 63 -77 60 -5 -1 -6 1&#xA;-3 6 3 5 -19 33 -50 62 -48 46 -56 50 -72 39 -15 -12 -16 -12 -4 2 10 14 1 27&#xA;-64 90 -42 41 -81 73 -87 71 -7 -2 -9 -1 -5 3 4 4 -30 48 -75 99 -45 50 -100&#xA;112 -121 138 -21 26 -43 45 -49 41 -5 -3 -7 -2 -4 4 9 14 -93 134 -107 126 -6&#xA;-3 -8 -2 -3 2 12 14 -24 47 -39 34 -8 -7 -14 -7 -19 1 -4 6 -1 9 6 8 6 -2 13&#xA;2 15 8 6 16 -133 147 -147 138 -8 -4 -9 -3 -5 4 10 17 -81 72 -118 71 -17 0&#xA;-49 -6 -72 -13z m50 -18 c-3 -4 -11 -5 -19 -1 -21 7 -19 12 4 10 11 0 18 -5&#xA;15 -9z m59 -23 c-3 -9 -8 -14 -10 -11 -3 3 -2 9 2 15 9 16 15 13 8 -4z m-143&#xA;-31 c0 -8 -19 -13 -24 -6 -3 5 1 9 9 9 8 0 15 -2 15 -3z m277 -77 c0 -8 -6&#xA;-14 -14 -14 -9 0 -10 4 -2 14 6 7 12 13 14 13 1 0 2 -6 2 -13z m64 -50 c-6 -8&#xA;-8 -16 -5 -19 3 -3 1 -9 -4 -12 -6 -3 -9 0 -8 6 2 16 15 38 23 38 3 0 0 -6 -6&#xA;-13z m53 -35 c3 -5 -1 -9 -9 -9 -8 0 -12 4 -9 9 3 4 7 8 9 8 2 0 6 -4 9 -8z&#xA;m-678 -54 c3 -4 -1 -5 -10 -4 -8 1 -18 5 -22 8 -3 4 1 5 10 4 8 -1 18 -5 22&#xA;-8z m-151 -107 c3 -5 2 -12 -3 -15 -5 -3 -9 1 -9 9 0 17 3 19 12 6z m1027&#xA;-110 c8 11 9 11 5 -1 -2 -8 -7 -15 -12 -15 -5 0 -10 7 -12 15 -2 11 -1 11 3 1&#xA;5 -11 8 -11 16 0z m24 -39 c-3 -3 2 -11 12 -19 19 -16 -4 -7 -25 10 -15 11 -7&#xA;30 8 21 6 -3 8 -8 5 -12z m-1192 -30 c3 -5 -1 -9 -9 -9 -8 0 -12 4 -9 9 3 4 7&#xA;8 9 8 2 0 6 -4 9 -8z m1380 -121 c3 -5 -2 -15 -12 -22 -15 -12 -16 -12 -5 2 7&#xA;9 10 19 6 22 -3 4 -4 7 0 7 3 0 8 -4 11 -9z m-1547 -26 c0 -8 -4 -12 -9 -9 -5&#xA;3 -6 10 -3 15 9 13 12 11 12 -6z m-13 -23 c3 -5 -1 -9 -9 -9 -8 0 -12 4 -9 9&#xA;3 4 7 8 9 8 2 0 6 -4 9 -8z m-94 -35 c0 -2 -10 -12 -22 -23 l-23 -19 19 23&#xA;c18 21 26 27 26 19z m1814 -95 c3 -5 -1 -9 -9 -9 -8 0 -12 4 -9 9 3 4 7 8 9 8&#xA;2 0 6 -4 9 -8z m36 -6 c0 -2 -8 -10 -17 -17 -16 -13 -17 -12 -4 4 13 16 21 21&#xA;21 13z m7 -31 c0 -8 -4 -12 -9 -9 -5 3 -6 10 -3 15 9 13 12 11 12 -6z m81 -71&#xA;c0 -17 -3 -22 -8 -13 -5 6 -6 18 -3 26 8 19 11 16 11 -13z m35 -39 c-3 -9 -8&#xA;-14 -10 -11 -3 3 -2 9 2 15 9 16 15 13 8 -4z"/>
    <path d="M2895 3253 c-206 -10 -438 -27 -595 -43 -102 -11 -210 -22 -240 -25&#xA;-30 -3 -80 -10 -110 -15 -30 -5 -79 -11 -108 -14 -30 -4 -73 -11 -95 -16 -23&#xA;-5 -85 -16 -137 -24 -113 -19 -107 -18 -323 -62 -242 -49 -496 -109 -677 -161&#xA;-85 -24 -164 -46 -175 -48 -81 -17 -205 -90 -205 -122 0 -21 65 -15 152 13 44&#xA;15 170 50 279 78 110 29 196 56 192 61 -4 4 -3 5 4 1 7 -4 115 16 240 44 125&#xA;28 243 53 262 56 18 3 43 8 55 10 11 2 59 11 106 19 47 9 121 22 165 30 44 8&#xA;96 16 115 19 19 3 98 14 175 25 142 20 170 24 330 41 245 26 500 41 920 55 99&#xA;3 218 8 265 12 47 3 93 5 103 5 30 -1 71 18 61 28 -22 21 -166 32 -464 34&#xA;-135 0 -267 0 -295 -1z m545 -19 c0 -8 -19 -13 -24 -6 -3 5 1 9 9 9 8 0 15 -2&#xA;15 -3z m-646 -52 c3 -5 -1 -9 -9 -9 -8 0 -12 4 -9 9 3 4 7 8 9 8 2 0 6 -4 9&#xA;-8z m-650 -10 c3 -5 -1 -9 -9 -9 -8 0 -12 4 -9 9 3 4 7 8 9 8 2 0 6 -4 9 -8z"/>
    <path d="M6430 3191 c-14 -4 -26 -14 -28 -23 -4 -19 13 -22 213 -38 186 -15&#xA;254 -21 300 -25 112 -12 247 -26 305 -30 77 -7 343 -39 530 -64 41 -6 98 -13&#xA;125 -17 28 -3 57 -7 65 -9 8 -3 33 -7 55 -10 22 -4 69 -11 105 -17 36 -5 79&#xA;-12 95 -14 17 -3 50 -9 75 -14 39 -8 148 -27 260 -44 112 -18 389 -68 470 -86&#xA;118 -26 122 -26 195 -40 33 -6 83 -18 110 -25 28 -7 122 -30 210 -50 88 -21&#xA;222 -52 297 -71 75 -19 145 -35 155 -37 10 -2 30 -7 45 -12 16 -4 35 -4 44 -1&#xA;31 12 -19 59 -93 88 -78 30 -157 55 -193 62 -14 3 -61 15 -105 26 -164 43&#xA;-324 81 -445 106 -69 14 -143 29 -165 34 -44 11 -290 57 -345 65 -19 3 -55 10&#xA;-80 15 -197 42 -898 144 -1415 205 -191 23 -735 41 -785 26z m177 -28 c0 -9&#xA;-4 -10 -14 -2 -7 6 -13 12 -13 14 0 1 6 2 13 2 8 0 14 -6 14 -14z m247 -11 c3&#xA;-5 -1 -9 -9 -9 -8 0 -12 4 -9 9 3 4 7 8 9 8 2 0 6 -4 9 -8z m-70 -10 c3 -5 -1&#xA;-9 -9 -9 -8 0 -12 4 -9 9 3 4 7 8 9 8 2 0 6 -4 9 -8z"/>
    <path d="M2923 2858 c-47 -10 -72 -33 -55 -50 14 -14 135 4 158 23 31 25 -32&#xA;42 -103 27z"/>
    <path d="M1663 2594 c-10 -27 4 -115 41 -248 20 -71 36 -131 36 -133 0 -2 -24&#xA;20 -54 49 -69 69 -196 149 -245 155 -32 4 -41 2 -50 -14 -13 -25 -1 -36 127&#xA;-123 51 -34 95 -66 98 -71 3 -5 -40 -9 -95 -9 -55 0 -122 -5 -150 -12 -93 -21&#xA;-128 -97 -38 -84 85 13 399 18 410 7 16 -16 73 -13 109 5 19 10 67 18 127 21&#xA;107 5 175 19 166 33 -3 6 1 7 9 4 10 -4 16 -1 16 8 0 8 -6 15 -12 16 -7 0 -31&#xA;5 -53 11 -22 6 -59 11 -82 11 -23 0 -44 4 -47 9 -3 4 15 40 40 80 49 76 51&#xA;101 8 101 -37 0 -94 -62 -123 -134 -20 -48 -27 -56 -50 -56 -26 0 -28 4 -55&#xA;118 -49 202 -78 272 -113 272 -7 0 -16 -7 -20 -16z"/>
    <path d="M1007 2499 c-53 -13 -97 -37 -97 -54 0 -23 59 -20 205 9 6 1 20 6 32&#xA;10 19 6 21 10 10 27 -9 15 -22 19 -62 18 -27 -1 -67 -5 -88 -10z"/>
    <path d="M8821 2445 c-42 -48 -89 -153 -109 -242 -8 -40 -19 -73 -23 -73 -4 0&#xA;-17 30 -29 68 -36 112 -61 157 -90 157 -20 0 -26 -6 -28 -27 -3 -25 16 -116&#xA;33 -159 5 -14 -7 -17 -87 -21 -106 -6 -141 -19 -136 -51 3 -20 11 -23 88 -29&#xA;87 -8 201 -32 255 -53 17 -7 37 -11 45 -9 8 2 35 8 60 15 28 7 74 8 120 4 41&#xA;-4 89 -8 105 -10 34 -3 75 10 75 24 0 19 -56 44 -124 56 l-71 12 52 26 c29 15&#xA;58 27 65 27 7 0 26 11 42 23 l29 23 -22 21 c-38 35 -126 15 -243 -57 -26 -16&#xA;-48 -28 -48 -27 0 19 50 149 81 211 22 43 39 88 37 100 -5 36 -41 31 -77 -9z"/>
    <path d="M7847 2448 c-54 -11 -79 -27 -75 -46 3 -15 19 -17 123 -17 105 0 126&#xA;-3 167 -23 26 -13 53 -20 59 -16 8 4 9 3 5 -4 -4 -7 -3 -12 2 -12 14 0 23 28&#xA;11 35 -5 4 -7 10 -4 14 9 15 -42 52 -91 67 -51 15 -132 16 -197 2z"/>
    <path d="M9433 2325 c-61 -26 -40 -47 52 -50 35 -2 67 -5 73 -9 5 -3 17 1 28&#xA;8 25 19 6 42 -44 51 -20 3 -46 8 -57 11 -11 2 -35 -3 -52 -11z"/>
    <path d="M725 1998 c-64 -17 -134 -73 -135 -106 0 -20 69 -10 112 15 43 26&#xA;133 30 199 8 56 -19 73 -12 67 26 -7 50 -148 83 -243 57z"/>
    <path d="M8421 1668 c-13 -7 -29 -21 -35 -31 -17 -28 10 -39 79 -32 86 10 140&#xA;7 177 -9 26 -12 73 -3 73 14 0 8 -6 14 -12 13 -7 -2 -12 2 -10 9 1 6 -11 19&#xA;-28 27 -40 21 -210 27 -244 9z"/>
    <path d="M6785 1457 c-97 -25 -183 -73 -248 -139 -80 -81 -119 -153 -119 -218&#xA;1 -54 15 -77 67 -103 104 -53 409 -47 655 13 86 21 251 27 295 10 11 -4 48&#xA;-11 81 -15 53 -6 62 -4 68 10 8 21 -7 40 -47 60 -41 21 -149 45 -198 45 l-39&#xA;0 0 43 c0 54 -38 115 -118 188 -83 76 -166 112 -267 116 -44 1 -103 -3 -130&#xA;-10z m240 -126 c72 -34 146 -98 169 -145 29 -62 24 -69 -64 -81 -25 -4 -79&#xA;-13 -120 -21 -41 -8 -120 -17 -175 -20 -55 -3 -118 -7 -140 -9 -59 -5 -165 15&#xA;-172 32 -18 46 94 184 189 231 115 59 207 63 313 13z"/>
    <path d="M7514 1312 c-29 -4 -58 -37 -50 -58 5 -13 16 -15 64 -9 39 4 70 2 98&#xA;-8 52 -19 73 -9 57 26 -8 17 -27 30 -60 41 -45 15 -59 16 -109 8z"/>
    <path d="M8824 1302 c-113 -34 -187 -93 -200 -160 -5 -23 0 -33 25 -55 60 -50&#xA;139 -56 559 -45 111 3 197 9 203 15 23 23 -99 83 -168 83 -16 0 -23 6 -23 20&#xA;0 51 -57 108 -139 138 -61 22 -188 24 -257 4z m239 -97 c35 -14 74 -51 64 -61&#xA;-3 -3 -64 -8 -135 -11 -136 -6 -262 3 -262 17 0 5 25 21 55 35 88 43 203 52&#xA;278 20z"/>
    <path d="M2010 1282 c-31 -5 -52 -21 -44 -33 3 -5 0 -8 -7 -7 -19 5 -22 -20&#xA;-2 -30 33 -18 161 35 137 57 -13 12 -54 19 -84 13z"/>
    <path d="M2403 1159 c-25 -7 -33 -15 -33 -33 0 -27 25 -37 68 -30 51 10 69 44&#xA;33 64 -23 12 -25 11 -68 -1z"/>
    <path d="M8089 1065 c-33 -18 -44 -42 -21 -49 44 -13 74 -13 119 0 64 19 71&#xA;29 35 48 -38 20 -98 20 -133 1z"/>
    <path d="M3917 940 c-41 -12 -60 -30 -47 -45 19 -23 140 -5 140 20 0 24 -50&#xA;37 -93 25z"/>
    <path d="M2957 919 c-79 -19 -165 -77 -193 -131 -19 -37 -11 -82 19 -101 76&#xA;-48 271 -49 417 -2 73 24 96 27 160 22 86 -7 107 0 92 30 -11 20 -101 53 -145&#xA;53 -17 0 -27 5 -27 15 0 28 -70 93 -117 109 -50 17 -145 19 -206 5z m205 -109&#xA;c22 -27 16 -34 -42 -50 -105 -29 -270 -30 -270 -2 0 12 67 53 112 68 25 8 72&#xA;13 112 11 58 -2 71 -6 88 -27z"/>
    <path d="M5726 880 c-49 -15 -90 -68 -53 -71 25 -2 62 3 69 10 4 3 54 3 110&#xA;-1 83 -5 106 -4 118 8 12 12 12 16 -5 29 -11 9 -30 20 -43 25 -28 12 -156 12&#xA;-196 0z"/>
    <path d="M4193 845 c-84 -36 14 -69 102 -35 l30 12 -29 15 c-41 22 -67 24&#xA;-103 8z"/>
    <path d="M884 835 c-73 -32 -44 -71 43 -59 32 4 72 8 90 8 18 1 38 7 45 14 11&#xA;11 9 17 -11 33 -28 23 -119 25 -167 4z"/>
  </g>
  <title>Cactus Desert</title>
  <desc>Cactus Desert</desc>
</svg>