<?xml version="1.0" encoding="UTF-8" standalone="yes"?>
<svg version="1.0" xmlns="http://www.w3.org/2000/svg" width="1024.000000pt" height="1024.000000pt" viewBox="0 0 1024.000000 1024.000000" preserveAspectRatio="xMidYMid meet">
  <metadata>
Created by potrace 1.16, written by Peter Selinger 2001-2019
</metadata>
  <g transform="translate(0.000000,1024.000000) scale(0.100000,-0.100000)" fill="#000000" stroke="none">
    <path d="M4425 9720 c-27 -5 -93 -17 -145 -26 -364 -64 -819 -264 -1175 -517&#xA;-189 -133 -334 -258 -750 -646 -110 -103 -231 -213 -270 -246 -38 -33 -79 -68&#xA;-90 -78 -40 -37 -202 -155 -265 -195 -36 -22 -114 -64 -175 -92 -60 -28 -126&#xA;-59 -145 -68 -20 -10 -39 -28 -44 -45 -9 -25 -6 -32 38 -76 95 -96 595 -381&#xA;831 -473 330 -128 631 -204 985 -248 314 -39 686 -13 970 67 290 82 565 206&#xA;804 363 222 146 287 198 674 532 347 301 596 485 790 584 47 24 89 44 94 44&#xA;17 0 -122 -201 -210 -303 -113 -130 -245 -274 -426 -462 -116 -121 -312 -328&#xA;-436 -460 -124 -132 -266 -282 -316 -335 -382 -402 -771 -863 -1040 -1235&#xA;-158 -219 -409 -607 -498 -772 l-29 -52 -86 80 c-216 197 -396 291 -658 345&#xA;-100 20 -151 25 -257 23 -360 -4 -649 -127 -924 -393 -319 -309 -496 -660&#xA;-584 -1158 -18 -103 -21 -163 -22 -378 -1 -246 2 -300 25 -467 78 -572 399&#xA;-1150 807 -1451 202 -149 458 -260 682 -296 19 -3 58 -10 87 -15 132 -26 353&#xA;-24 553 4 63 9 242 56 342 91 260 91 531 258 749 463 64 59 89 77 96 68 5 -6&#xA;29 -48 53 -92 139 -258 380 -545 630 -751 305 -250 598 -389 975 -458 81 -15&#xA;290 -27 370 -22 517 37 984 286 1350 721 239 285 434 636 555 1005 186 564&#xA;171 1158 -40 1581 -114 229 -285 434 -475 571 -194 139 -475 228 -719 228&#xA;-199 0 -485 -79 -703 -195 -60 -31 -83 -40 -87 -30 -12 31 -21 303 -20 595 1&#xA;271 11 480 28 595 3 17 11 80 20 140 34 253 112 656 167 865 127 482 256 903&#xA;343 1123 76 190 187 436 197 437 7 0 -7 -128 -21 -190 -5 -25 -12 -56 -14 -70&#xA;-2 -14 -18 -99 -35 -190 -52 -281 -64 -404 -65 -660 -2 -417 31 -641 141 -970&#xA;74 -221 246 -518 423 -730 237 -283 593 -568 1105 -886 226 -141 356 -235 438&#xA;-319 46 -46 90 -65 115 -48 35 22 44 81 47 333 3 257 7 321 30 460 8 47 17&#xA;103 20 125 4 22 15 92 25 155 11 63 22 138 25 165 3 28 8 61 10 75 20 101 33&#xA;328 30 510 -5 255 -24 411 -80 665 -29 131 -152 461 -231 616 -177 353 -451&#xA;666 -764 874 -233 154 -568 283 -805 309 -33 4 -67 9 -76 12 -9 2 -33 41 -53&#xA;85 l-37 81 25 37 c14 20 82 108 152 196 194 246 234 312 234 384 0 48 -28 91&#xA;-92 141 -116 92 -446 230 -551 230 -40 0 -53 -5 -78 -29 -16 -16 -29 -36 -29&#xA;-44 0 -24 -66 -234 -122 -384 l-52 -141 -75 -40 c-99 -52 -196 -86 -302 -106&#xA;-146 -27 -137 -31 -215 87 -259 393 -615 644 -1074 754 -96 24 -127 26 -365&#xA;29 -143 1 -282 -1 -310 -6z m595 -146 c282 -48 561 -188 780 -391 88 -81 290&#xA;-330 290 -357 0 -3 -145 -6 -323 -6 l-323 0 -30 38 c-16 20 -87 97 -159 170&#xA;-137 141 -264 248 -378 318 -129 80 -387 178 -387 148 0 -5 35 -25 77 -44 94&#xA;-42 232 -124 333 -198 73 -54 422 -401 428 -427 3 -13 -35 -18 -373 -51 -93&#xA;-9 -221 -24 -284 -34 l-115 -18 -114 59 c-213 112 -403 175 -697 231 -91 17&#xA;-339 16 -380 -3 -29 -12 -27 -13 55 -22 103 -11 500 -98 607 -133 125 -41 273&#xA;-101 336 -137 l59 -34 -60 -17 c-185 -52 -499 -162 -657 -231 -80 -34 -109&#xA;-43 -140 -39 -22 3 -151 18 -287 34 -243 29 -478 39 -478 21 0 -12 31 -18 150&#xA;-31 78 -9 318 -54 470 -88 l35 -8 -40 -21 c-69 -36 -316 -140 -467 -197 -223&#xA;-85 -327 -114 -673 -193 -157 -35 -484 -90 -590 -98 l-80 -6 80 43 c268 146&#xA;442 277 785 593 470 431 533 485 725 618 532 368 1070 548 1585 531 85 -3 193&#xA;-12 240 -20z m2129 -125 c84 -23 274 -110 351 -160 54 -35 69 -66 53 -102 -6&#xA;-12 -60 -85 -120 -162 -221 -284 -316 -426 -445 -670 -138 -261 -183 -359&#xA;-243 -535 -24 -69 -62 -176 -84 -238 -108 -298 -266 -858 -335 -1187 -75 -356&#xA;-121 -661 -141 -945 -2 -36 -7 -99 -10 -140 -7 -107 -9 -544 -2 -615 3 -33 11&#xA;-116 17 -185 5 -69 12 -138 15 -155 5 -31 42 -316 51 -396 l5 -46 -46 -13&#xA;c-25 -7 -62 -13 -82 -14 -35 -1 -37 0 -49 47 -15 59 -20 106 -44 437 -27 371&#xA;-32 811 -11 1085 6 83 13 161 15 175 2 14 7 52 11 85 12 120 37 284 70 465 78&#xA;422 149 703 320 1265 54 176 118 391 172 578 26 88 -230 -147 -898 -825 -536&#xA;-544 -600 -611 -740 -768 -221 -249 -378 -440 -586 -710 -235 -307 -545 -788&#xA;-637 -988 -66 -145 -136 -318 -136 -336 0 -21 -3 -20 -70 10 l-58 26 15 51&#xA;c23 78 79 207 157 357 281 544 677 1100 1231 1730 60 69 112 127 116 130 3 3&#xA;52 57 109 120 57 63 191 207 299 320 108 113 252 266 321 340 69 74 226 240&#xA;350 370 123 129 250 262 282 296 299 313 553 794 678 1282 6 23 14 42 17 42 4&#xA;0 41 -9 82 -21z m-684 -730 c-150 -75 -210 -112 -360 -218 -191 -135 -272&#xA;-198 -394 -305 -564 -499 -763 -650 -1051 -798 -511 -264 -962 -323 -1644&#xA;-218 -433 68 -834 221 -1296 496 -129 76 -129 78 5 83 39 1 149 16 245 32 467&#xA;80 883 192 1328 358 96 36 111 38 90 14 -8 -10 -46 -63 -83 -118 -106 -154&#xA;-247 -327 -385 -469 -96 -99 -116 -124 -85 -106 104 61 291 232 410 375 84&#xA;101 202 267 251 354 15 26 40 43 124 83 278 133 722 298 801 298 7 0 -1 -15&#xA;-17 -32 -88 -94 -197 -260 -316 -478 -150 -277 -300 -515 -399 -632 -39 -48&#xA;-24 -49 32 -2 109 91 250 287 429 599 77 134 253 395 351 521 l47 60 163 22&#xA;c200 27 411 50 502 56 l67 4 -32 -36 c-64 -73 -132 -192 -284 -496 -86 -171&#xA;-172 -340 -191 -376 -35 -67 -34 -66 28 11 39 47 112 170 199 334 112 210 263&#xA;444 336 521 l49 52 340 6 c433 8 662 22 756 45 115 29 113 24 -16 -40z m1097&#xA;-857 l99 -183 -46 -141 c-104 -316 -154 -577 -170 -885 -6 -115 0 -261 11&#xA;-251 2 3 6 22 9 44 3 21 7 53 10 69 3 17 7 50 10 75 22 185 67 450 96 565 17&#xA;65 103 344 125 405 9 25 54 -72 243 -525 49 -115 98 -235 111 -266 l22 -55&#xA;-37 -100 c-67 -178 -120 -438 -166 -809 -11 -93 -11 -225 0 -225 5 0 14 46 20&#xA;103 21 180 117 602 186 817 l38 115 29 -75 c16 -41 70 -183 119 -315 179 -472&#xA;198 -524 309 -800 62 -154 136 -348 165 -432 78 -221 99 -271 186 -450 43 -89&#xA;79 -165 79 -168 0 -4 -21 11 -47 32 -27 22 -91 69 -143 105 -52 35 -115 78&#xA;-140 95 -25 17 -121 81 -215 143 -246 163 -404 284 -640 491 -244 214 -412&#xA;430 -545 700 -144 293 -240 720 -240 1071 0 272 35 576 107 923 29 142 36 197&#xA;40 335 2 91 6 175 9 188 4 19 32 -21 136 -195 72 -120 175 -300 230 -401z&#xA;m-37 417 c184 -35 435 -136 617 -247 165 -100 379 -293 506 -458 236 -304 456&#xA;-812 517 -1194 4 -25 9 -52 10 -60 35 -191 31 -585 -9 -855 -14 -93 -36 -240&#xA;-50 -325 -35 -213 -44 -311 -52 -552 l-7 -206 -84 206 c-47 114 -109 268 -140&#xA;342 -30 74 -146 407 -258 740 -112 333 -215 638 -229 679 -14 41 -24 76 -22&#xA;79 3 2 33 -18 68 -44 189 -145 340 -279 482 -428 88 -92 169 -172 180 -178 20&#xA;-10 20 -10 5 8 -8 10 -71 89 -140 174 -68 85 -155 188 -194 229 -93 98 -280&#xA;259 -380 327 l-80 55 -49 122 c-27 67 -105 248 -173 401 -68 153 -122 280&#xA;-121 281 6 6 258 -103 357 -155 240 -124 527 -349 666 -521 61 -77 83 -99 97&#xA;-99 32 0 -137 216 -279 357 -115 113 -249 220 -358 285 -130 77 -426 213 -507&#xA;232 -23 5 -39 30 -107 166 -103 204 -178 339 -324 583 -43 70 -45 77 -24 73&#xA;12 -3 49 -10 82 -17z m-1191 -786 c-199 -648 -328 -1200 -378 -1613 -17 -141&#xA;-19 -158 -42 -395 -24 -254 -23 -838 3 -1038 3 -26 2 -47 -3 -47 -5 0 -58 9&#xA;-119 21 -140 25 -414 36 -511 20 -38 -7 -107 -23 -152 -37 l-84 -25 -77 69&#xA;c-274 248 -542 352 -905 352 -69 0 -126 3 -126 8 0 14 81 155 161 280 95 149&#xA;229 342 349 501 47 62 94 125 105 140 92 126 351 438 523 631 113 127 1306&#xA;1340 1318 1340 1 0 -27 -93 -62 -207z m-3438 -2237 c110 -27 232 -81 331 -145&#xA;75 -48 103 -72 213 -178 82 -79 84 -83 73 -110 -6 -15 -32 -75 -57 -132 -25&#xA;-57 -51 -121 -58 -142 -6 -22 -13 -39 -15 -39 -17 0 -103 79 -253 230 -125&#xA;125 -191 184 -230 205 l-55 29 37 -45 c20 -25 73 -104 117 -175 45 -71 108&#xA;-161 141 -200 136 -162 330 -279 521 -314 64 -12 277 -15 334 -4 134 24 229&#xA;56 223 76 -8 23 -65 30 -265 32 -111 1 -205 5 -209 9 -9 9 40 155 80 237 l32&#xA;65 104 7 c95 5 269 -3 345 -17 168 -32 355 -117 505 -231 72 -55 107 -93 94&#xA;-102 -6 -4 -56 -38 -112 -75 -223 -149 -422 -379 -518 -597 -61 -139 -112&#xA;-328 -129 -475 -6 -57 -7 -399 0 -418 2 -6 7 -30 10 -52 16 -111 26 -167 46&#xA;-240 24 -92 75 -250 112 -347 l26 -66 -67 -64 c-207 -195 -384 -316 -601 -411&#xA;-172 -76 -297 -118 -447 -148 -152 -32 -426 -32 -594 -1 -566 104 -967 446&#xA;-1243 1062 -174 388 -236 987 -151 1444 67 358 224 685 449 933 121 134 295&#xA;267 429 328 86 39 231 83 318 95 117 16 351 4 464 -24z m4430 -737 c165 -31&#xA;286 -83 419 -177 165 -117 331 -315 433 -518 43 -85 99 -252 123 -363 26 -122&#xA;35 -387 21 -571 -46 -574 -353 -1229 -771 -1648 -267 -267 -599 -445 -951&#xA;-507 -141 -25 -359 -30 -470 -10 -523 92 -930 333 -1268 754 -251 312 -395&#xA;573 -481 871 -156 540 -123 969 103 1374 63 113 259 319 371 391 179 114 387&#xA;181 592 191 95 5 268 -13 404 -43 l77 -16 5 -91 c4 -50 11 -118 17 -151 5 -33&#xA;12 -75 15 -93 l4 -34 -62 7 c-34 4 -134 25 -222 47 -99 24 -193 41 -245 44&#xA;-80 4 -83 3 -50 -10 19 -7 87 -41 150 -74 64 -34 165 -78 225 -98 101 -33 122&#xA;-37 255 -41 132 -4 154 -2 244 21 168 43 345 143 508 287 43 37 104 86 138&#xA;109 33 22 60 45 60 50 0 13 4 14 -86 -16 -82 -26 -177 -74 -374 -188 -85 -50&#xA;-116 -63 -122 -53 -4 7 -16 69 -27 138 -12 68 -23 136 -25 150 -4 21 3 30 42&#xA;56 96 63 256 138 378 177 176 57 389 70 570 35z"/>
    <path d="M1945 4611 c-88 -36 -258 -343 -223 -405 24 -43 131 -4 199 72 73 80&#xA;155 257 141 302 -11 36 -67 51 -117 31z"/>
    <path d="M1724 3571 c-91 -89 -117 -277 -55 -400 36 -70 84 -52 138 54 70 136&#xA;94 296 52 349 -30 38 -94 37 -135 -3z"/>
    <path d="M3890 2125 c-41 -30 -115 -83 -163 -118 -140 -98 -242 -180 -230&#xA;-184 18 -6 163 54 243 101 93 55 150 104 199 170 75 102 61 111 -49 31z"/>
    <path d="M7561 3407 c-46 -50 -51 -221 -11 -361 14 -46 63 -99 87 -94 64 12&#xA;96 238 54 376 -29 98 -82 130 -130 79z"/>
    <path d="M4793 3086 c-26 -23 -28 -30 -31 -114 -6 -148 40 -299 116 -380 57&#xA;-61 110 -31 132 73 23 110 -53 367 -126 424 -35 27 -56 27 -91 -3z"/>
    <path d="M5648 2423 c-41 -47 -53 -132 -30 -213 37 -127 171 -216 212 -140 41&#xA;76 -19 303 -93 355 -29 20 -71 19 -89 -2z"/>
    <path d="M5177 1982 c-24 -26 -21 -81 9 -170 43 -129 110 -224 185 -263 48&#xA;-24 80 -24 110 0 97 78 -111 451 -251 451 -23 0 -43 -7 -53 -18z"/>
  </g>
  <title>Cherries Pair</title>
  <desc>Cherries Pair</desc>
</svg>