<?xml version="1.0" standalone="no"?>
<!DOCTYPE svg PUBLIC "-//W3C//DTD SVG 20010904//EN"
 "http://www.w3.org/TR/2001/REC-SVG-20010904/DTD/svg10.dtd">
<svg version="1.0" xmlns="http://www.w3.org/2000/svg"
 width="1024.000000pt" height="1024.000000pt" viewBox="0 0 1024.000000 1024.000000"
 preserveAspectRatio="xMidYMid meet">
<metadata>
Created by potrace 1.16, written by Peter Selinger 2001-2019
</metadata>
<g transform="translate(0.000000,1024.000000) scale(0.100000,-0.100000)"
fill="#000000" stroke="none">
<path d="M6982 9739 c-39 -15 -134 -93 -199 -163 -122 -130 -179 -234 -287
-521 -6 -14 -15 13 -31 91 -31 155 -51 209 -86 239 -36 30 -63 31 -105 6 -96
-59 -132 -350 -70 -564 29 -98 33 -172 12 -232 -12 -34 -15 -37 -22 -20 -4 11
-13 36 -21 55 -8 19 -33 84 -55 144 -105 284 -221 406 -312 327 -34 -29 -46
-76 -46 -175 0 -160 24 -237 155 -497 96 -193 104 -226 80 -335 l-17 -77 -41
94 c-104 234 -257 504 -364 643 -47 61 -104 93 -141 80 -65 -23 -89 -112 -79
-293 11 -199 77 -344 262 -576 173 -219 196 -276 158 -399 l-17 -54 -49 86
c-27 48 -106 173 -176 279 -69 106 -169 258 -221 339 -169 260 -247 334 -320
304 -52 -22 -74 -77 -77 -195 -2 -108 15 -193 63 -314 64 -161 141 -267 349
-481 89 -91 177 -186 198 -211 86 -107 97 -190 45 -344 l-31 -95 -27 69 c-75
193 -198 377 -381 571 -27 28 -170 208 -255 319 -108 143 -219 255 -268 271
-34 11 -41 10 -65 -7 -51 -38 -66 -86 -66 -213 1 -131 20 -208 86 -345 68
-141 131 -217 445 -525 349 -344 401 -447 340 -669 -14 -51 -27 -95 -29 -98
-2 -2 -10 18 -17 44 -15 56 -90 209 -133 273 -38 57 -165 216 -203 255 -16 17
-51 55 -78 85 -27 30 -81 89 -120 130 -86 90 -158 169 -250 275 -127 146 -288
299 -338 323 -86 40 -151 23 -182 -47 -16 -33 -18 -58 -14 -143 10 -199 84
-344 308 -602 14 -15 127 -120 251 -232 451 -405 571 -566 586 -786 5 -62 1
-92 -18 -158 l-23 -80 -31 92 c-52 152 -118 266 -243 420 -80 98 -322 334
-512 497 -85 74 -195 171 -245 216 -163 150 -192 175 -261 230 -71 57 -177
115 -210 115 -70 0 -121 -93 -110 -199 13 -122 84 -289 185 -431 55 -79 283
-308 406 -410 50 -41 92 -77 95 -80 3 -3 64 -53 135 -110 464 -370 615 -561
615 -777 0 -78 -17 -202 -29 -216 -4 -4 -15 17 -26 45 -48 137 -158 324 -262
443 -146 169 -272 279 -623 545 -129 98 -305 236 -390 307 -205 170 -217 178
-314 224 -99 46 -146 50 -181 15 -102 -102 -20 -409 175 -648 147 -183 351
-355 684 -578 324 -218 331 -223 449 -322 130 -111 206 -195 261 -292 73 -129
80 -204 34 -410 l-13 -59 -19 59 c-28 91 -100 237 -158 322 -29 42 -114 138
-188 213 -186 188 -332 295 -870 639 -140 90 -282 182 -315 205 -210 147 -376
212 -446 175 -47 -26 -64 -135 -35 -230 63 -206 228 -420 470 -608 160 -124
299 -214 646 -417 241 -141 309 -186 427 -286 222 -186 336 -346 350 -491 6
-67 -23 -262 -38 -253 -3 3 -11 24 -17 47 -15 58 -74 178 -130 263 -61 91
-270 299 -400 398 -158 120 -451 307 -667 427 -102 56 -160 90 -295 169 -333
195 -450 250 -577 270 -130 20 -178 -81 -117 -251 59 -165 165 -302 354 -463
160 -135 397 -278 800 -483 157 -80 323 -167 370 -195 270 -159 453 -333 533
-506 29 -61 31 -73 29 -168 -2 -95 -8 -162 -17 -171 -1 -2 -9 14 -16 35 -14
45 -102 190 -161 265 -174 225 -442 420 -875 637 -100 50 -184 91 -187 91 -2
0 -175 84 -383 186 -438 215 -495 238 -606 238 -75 1 -80 0 -104 -28 -23 -27
-25 -36 -20 -92 12 -160 182 -390 427 -580 70 -55 197 -141 251 -172 169 -94
454 -232 719 -347 396 -172 649 -354 788 -568 61 -93 73 -142 65 -267 -9 -141
-13 -145 -56 -56 -79 160 -248 350 -428 484 -170 126 -391 254 -574 334 -38
17 -106 46 -150 66 -142 62 -587 243 -708 288 -237 88 -403 113 -463 68 -42
-31 -49 -64 -28 -131 41 -131 203 -318 390 -451 228 -162 485 -286 964 -462
366 -136 559 -244 740 -417 107 -102 177 -188 217 -267 23 -46 24 -55 18 -145
-4 -53 -8 -97 -10 -99 -1 -2 -16 19 -33 47 -101 164 -305 360 -518 497 -226
146 -657 329 -1089 462 -218 68 -324 90 -467 99 -117 7 -158 0 -198 -33 -45
-38 -41 -77 14 -151 151 -198 583 -453 1153 -679 620 -245 937 -441 1081 -668
25 -41 25 -42 28 -291 3 -254 8 -310 26 -333 15 -17 55 -15 62 4 3 9 3 91 -1
183 -13 306 -8 532 17 856 6 66 13 152 16 190 10 129 47 468 64 585 18 122 13
189 -19 255 -75 158 -286 368 -500 498 -85 52 -326 172 -466 232 -60 26 -134
58 -163 71 -29 13 -55 24 -58 24 -3 0 -83 39 -177 86 -410 205 -694 446 -809
684 -35 74 -49 150 -27 150 32 0 139 -31 204 -58 39 -16 198 -92 355 -170 157
-77 384 -188 505 -247 746 -361 1029 -629 1171 -1109 44 -148 40 -152 78 77
51 312 54 375 23 463 -58 160 -175 299 -392 460 -115 86 -220 146 -485 282
-387 197 -521 274 -720 410 -121 83 -139 98 -229 185 -95 93 -177 203 -220
297 -36 78 -52 172 -32 184 32 20 237 -62 395 -158 41 -25 110 -65 153 -89 76
-42 318 -182 378 -218 17 -10 48 -28 69 -40 100 -54 330 -200 445 -282 393
-281 547 -479 640 -827 33 -124 41 -149 51 -155 11 -7 11 -5 54 175 69 294 80
391 51 470 -39 109 -122 225 -247 346 -156 151 -239 210 -583 416 -491 293
-607 373 -765 529 -165 162 -272 339 -288 473 -5 38 -5 69 0 72 17 11 83 -8
151 -42 37 -18 147 -86 245 -150 97 -64 210 -137 250 -163 496 -315 742 -496
910 -670 109 -112 167 -193 227 -316 63 -128 85 -190 121 -340 14 -60 29 -114
34 -118 9 -10 18 15 65 198 20 77 45 169 56 205 62 203 -9 389 -232 605 -137
133 -244 213 -594 447 -215 144 -355 257 -505 407 -180 180 -260 306 -305 481
-21 80 -20 159 2 167 41 16 219 -101 431 -284 50 -43 141 -114 408 -318 303
-231 504 -419 615 -575 72 -101 157 -272 195 -390 47 -150 67 -201 78 -197 17
6 117 384 123 468 7 93 -15 166 -85 287 -87 150 -214 281 -481 497 -290 234
-373 306 -497 429 -73 72 -157 165 -188 206 -109 145 -190 336 -184 433 3 51
3 52 35 51 17 -1 54 -17 82 -35 39 -27 308 -260 401 -349 9 -8 45 -40 80 -70
36 -30 81 -69 100 -86 61 -54 233 -208 274 -244 131 -118 320 -359 389 -497
31 -61 81 -231 95 -327 6 -38 18 -76 27 -85 15 -15 18 -14 35 7 38 47 130 330
137 427 6 69 -13 152 -58 262 -59 140 -200 302 -494 566 -329 296 -448 430
-529 601 -48 100 -72 194 -70 272 2 84 21 93 95 45 67 -43 144 -121 344 -346
39 -43 130 -142 204 -220 272 -286 351 -387 444 -568 68 -132 96 -213 104
-300 11 -122 50 -100 113 61 55 142 90 265 90 316 0 92 -58 228 -146 343 -31
40 -113 128 -182 195 -282 273 -368 367 -439 476 -91 143 -138 299 -131 437 2
41 7 77 10 81 16 15 77 -43 175 -165 56 -69 147 -182 202 -251 55 -69 146
-177 201 -240 148 -171 309 -462 328 -594 8 -54 31 -78 59 -60 35 22 153 353
153 430 0 50 -34 146 -70 200 -18 27 -97 114 -174 194 -223 228 -281 301 -354
445 -74 148 -113 350 -82 425 13 31 18 35 35 22 22 -15 116 -143 190 -257 43
-66 119 -183 170 -260 129 -194 230 -356 261 -417 14 -28 32 -58 40 -66 8 -7
14 -21 14 -31 0 -20 19 -41 37 -41 24 0 115 250 115 314 0 102 -61 217 -191
362 -99 111 -190 277 -222 407 -16 63 -20 106 -17 188 2 59 6 111 10 115 27
26 182 -213 328 -506 38 -74 75 -152 84 -173 65 -159 100 -207 128 -179 20 20
89 208 96 261 13 97 0 149 -68 278 -141 265 -161 324 -167 478 -5 136 4 156
48 105 57 -66 86 -128 185 -389 60 -159 75 -183 113 -179 21 2 34 19 70 88 60
114 65 182 25 325 -23 83 -28 120 -28 215 0 126 15 209 45 235 18 17 19 16 28
-8 16 -41 39 -136 57 -228 43 -228 109 -213 209 47 46 121 113 247 169 319 39
51 177 195 187 195 11 0 -64 -191 -121 -305 -27 -55 -85 -156 -130 -225 -119
-185 -105 -204 81 -115 82 39 136 58 174 62 30 3 55 2 55 -3 0 -16 -53 -84
-84 -107 -86 -65 -146 -102 -290 -177 -87 -45 -159 -81 -161 -79 -2 2 21 53
51 113 30 59 52 111 49 114 -8 8 -50 -38 -109 -118 -59 -79 -117 -201 -293
-610 -163 -378 -158 -365 -293 -760 -59 -173 -143 -414 -185 -535 -298 -854
-591 -1757 -700 -2160 -15 -55 -40 -145 -55 -200 -100 -356 -245 -957 -305
-1260 -8 -38 -21 -102 -30 -142 -44 -206 -127 -687 -140 -813 -4 -36 -9 -74
-11 -85 -2 -11 -6 -49 -10 -85 -3 -36 -8 -72 -9 -80 -1 -8 -6 -44 -10 -80 -4
-36 -9 -72 -10 -80 -1 -8 -6 -49 -10 -90 -3 -41 -8 -86 -10 -100 -28 -188 -39
-409 -39 -801 -1 -449 0 -459 44 -459 42 0 46 27 36 212 l-6 118 36 39 c61 69
191 119 349 136 115 12 294 -13 610 -85 229 -51 309 -69 350 -75 22 -3 65 -10
95 -15 94 -17 397 -24 500 -12 244 29 410 107 410 191 0 18 -5 42 -11 53 -16
29 -133 80 -304 132 -83 24 -186 56 -230 70 -109 34 -476 141 -551 160 -84 22
-283 54 -380 61 -174 13 -418 -34 -591 -115 -97 -45 -160 -87 -229 -152 l-52
-49 5 92 c4 82 8 97 34 136 55 80 118 132 223 184 132 65 186 79 337 86 155 7
248 -4 569 -67 413 -82 630 -108 850 -105 330 5 595 91 698 224 38 50 41 89
10 118 -38 34 -59 41 -279 93 -117 28 -255 62 -308 76 -247 66 -606 155 -696
173 -587 118 -991 33 -1314 -274 -84 -80 -84 -80 -78 -45 3 19 9 64 13 100 19
188 214 365 476 431 93 23 310 33 413 19 33 -5 80 -11 105 -14 61 -8 119 -18
410 -71 407 -73 757 -82 1005 -25 306 71 515 217 450 316 -26 41 -102 68 -365
134 -561 140 -808 191 -1120 230 -112 13 -405 14 -505 0 -282 -39 -543 -156
-722 -324 -53 -49 -63 -55 -59 -35 3 13 10 55 17 92 23 137 154 281 323 357
202 91 446 107 841 55 17 -2 91 -11 165 -20 74 -9 149 -17 165 -20 226 -30
618 -31 791 -1 311 53 601 218 580 331 -8 42 -29 59 -106 88 -154 58 -765 167
-1190 213 -173 18 -477 26 -575 13 -132 -16 -147 -19 -233 -39 -215 -51 -369
-128 -554 -277 -43 -35 -78 -60 -78 -56 0 3 7 42 16 87 13 64 24 91 55 131 96
126 299 245 489 288 181 41 377 40 890 -5 148 -13 529 -17 600 -6 25 3 70 10
100 13 30 4 94 18 143 31 234 65 397 158 448 256 18 34 18 41 5 72 -29 69 -83
87 -451 151 -394 69 -919 102 -1190 76 -390 -38 -648 -135 -884 -331 -36 -30
-62 -46 -58 -37 4 10 14 46 22 80 25 99 34 114 102 177 105 96 321 195 473
217 19 3 55 9 80 15 25 5 286 13 580 18 295 5 571 13 615 20 283 40 611 176
683 284 73 109 -7 170 -288 220 -131 23 -144 25 -325 41 -345 32 -750 20
-1010 -31 -254 -49 -529 -172 -692 -311 -29 -25 -53 -40 -53 -34 0 5 12 47 26
91 18 57 36 94 62 122 42 47 136 115 207 151 44 21 181 72 224 83 9 2 34 8 56
13 148 36 297 49 750 66 162 6 162 6 340 30 304 41 549 128 655 234 52 52 64
86 43 129 -56 116 -525 190 -1013 162 -217 -13 -269 -21 -456 -65 -233 -56
-474 -163 -609 -270 -38 -30 -70 -53 -72 -51 -7 7 36 109 64 148 127 184 459
317 882 353 52 5 120 11 216 20 22 2 72 7 110 10 416 36 778 166 851 306 20
40 0 96 -45 126 -48 32 -181 72 -281 85 -173 21 -541 -2 -800 -51 -311 -59
-616 -182 -759 -306 l-23 -20 7 25 c15 52 62 126 110 174 109 111 294 178 745
271 312 65 450 101 580 152 257 101 370 183 370 268 0 43 -58 91 -143 117 -64
20 -92 23 -242 22 -141 -1 -194 -6 -309 -28 -77 -15 -160 -33 -185 -41 -25 -7
-86 -25 -136 -40 -228 -67 -458 -174 -554 -259 -16 -14 -23 -16 -19 -6 3 8 13
39 23 68 14 44 28 62 82 107 121 99 247 150 618 249 296 79 442 129 576 198
215 110 291 207 224 287 -43 50 -102 66 -245 65 -171 -2 -373 -43 -605 -124
-160 -56 -395 -177 -434 -224 -25 -30 -29 -16 -9 38 24 65 107 154 170 183 43
20 289 101 513 169 204 62 409 170 468 248 43 57 58 93 48 119 -29 76 -190 97
-396 54 -206 -44 -411 -123 -551 -212 -52 -33 -55 -34 -48 -13 16 53 24 66 62
100 76 69 210 131 462 215 193 63 328 140 381 215 124 173 -138 236 -488 117
-48 -16 -89 -29 -92 -29 -3 0 57 34 134 76 252 137 269 147 318 182 66 47 157
173 157 216 0 8 -12 28 -26 45 -24 29 -31 31 -87 31 -39 0 -87 -9 -129 -24
-38 -13 -68 -23 -68 -21 0 2 16 27 36 57 93 139 225 458 227 547 1 61 -27 82
-81 60z m32 -1180 c14 -12 -39 -75 -87 -103 -45 -27 -118 -55 -356 -141 -85
-30 -188 -73 -229 -96 -41 -22 -76 -38 -78 -37 -1 2 27 65 64 140 63 128 69
137 96 137 16 1 69 17 118 36 104 41 191 63 297 74 80 9 160 4 175 -10z m62
-462 c33 -33 -157 -156 -341 -221 -38 -13 -135 -43 -214 -66 -206 -59 -254
-76 -364 -131 -54 -27 -99 -49 -102 -49 -6 0 11 53 32 102 22 49 93 113 188
171 123 75 360 163 513 192 80 15 274 16 288 2z m73 -478 c20 -6 40 -15 44
-19 16 -14 -24 -59 -92 -104 -118 -79 -290 -147 -513 -206 -430 -112 -567
-157 -677 -225 l-69 -42 25 74 c19 55 37 87 75 128 149 163 518 318 933 393
77 13 233 14 274 1z m21 -614 c78 -24 82 -31 35 -72 -108 -95 -390 -198 -708
-258 -421 -81 -725 -175 -829 -256 -21 -17 -41 -29 -44 -26 -9 9 59 172 86
205 131 160 635 363 1036 416 139 19 348 14 424 -9z m-65 -635 c101 -14 209
-45 226 -66 19 -23 3 -42 -67 -85 -67 -40 -217 -96 -344 -128 -85 -21 -103
-24 -195 -37 -27 -3 -58 -8 -69 -10 -18 -3 -76 -9 -181 -19 -27 -3 -88 -7
-135 -10 -374 -25 -667 -105 -860 -234 -30 -21 -60 -40 -67 -44 -11 -7 29 138
50 178 5 11 31 41 56 66 189 187 653 352 1086 387 157 13 412 14 500 2z m-90
-675 c194 -24 355 -68 355 -98 0 -38 -133 -112 -293 -162 -209 -64 -390 -87
-849 -105 -141 -6 -263 -12 -270 -14 -7 -3 -44 -7 -82 -11 -224 -19 -497 -109
-638 -210 -26 -19 -48 -34 -48 -32 0 11 50 148 63 173 36 70 170 174 337 262
232 122 465 182 840 216 92 8 460 -4 585 -19z m-340 -680 c72 -3 144 -7 160
-9 17 -2 62 -7 100 -11 104 -9 368 -54 411 -69 49 -16 52 -29 17 -64 -46 -46
-156 -102 -293 -148 -238 -80 -364 -93 -936 -95 -461 -1 -558 -8 -732 -54
-129 -34 -230 -78 -323 -141 -43 -30 -79 -48 -79 -41 0 6 9 43 19 81 22 83 53
123 159 208 206 163 374 239 687 308 75 17 267 37 380 39 55 1 101 3 102 5 3
3 158 -1 328 -9z m-430 -709 c294 -9 538 -37 995 -116 92 -15 160 -39 160 -56
0 -8 -18 -32 -40 -54 -88 -88 -332 -169 -605 -199 -83 -10 -399 -8 -505 3 -25
2 -85 7 -135 11 -49 3 -108 8 -130 11 -109 12 -322 20 -420 17 -273 -9 -505
-85 -682 -224 -35 -27 -63 -47 -63 -45 0 3 9 41 19 85 23 95 40 122 136 216
221 217 515 327 935 351 63 4 117 8 118 10 2 1 9 1 15 -1 7 -2 98 -6 202 -9z
m-265 -726 c226 -16 536 -54 770 -96 426 -76 640 -124 640 -144 0 -4 -19 -25
-43 -47 -82 -75 -278 -148 -495 -184 -112 -19 -154 -20 -362 -16 -203 5 -318
14 -630 52 -25 3 -56 7 -70 10 -72 13 -292 27 -415 26 -210 -1 -360 -33 -516
-111 -55 -28 -153 -99 -176 -128 -22 -27 -23 -9 -5 80 13 64 27 99 50 132 72
100 265 238 440 316 140 62 238 86 467 113 63 8 206 6 345 -3z m-3904 -206
c78 -15 200 -53 259 -79 17 -8 158 -65 315 -128 353 -142 604 -252 738 -323
91 -49 298 -177 312 -193 3 -4 25 -22 50 -41 226 -176 389 -390 459 -602 19
-57 21 -77 14 -134 l-8 -67 -36 54 c-47 71 -162 193 -247 262 -161 132 -370
246 -632 347 -706 272 -928 387 -1146 593 -124 118 -189 207 -218 305 -7 20
-4 22 27 22 19 0 70 -7 113 -16z m3899 -554 c140 -21 355 -63 515 -100 674
-157 790 -187 790 -209 0 -16 -70 -71 -128 -100 -68 -34 -193 -73 -312 -97
-95 -19 -433 -25 -575 -11 -72 8 -354 54 -561 92 -260 47 -509 61 -656 35
-214 -37 -368 -111 -465 -222 -49 -55 -48 -56 -29 78 14 100 19 109 114 208
179 185 457 312 762 346 114 13 395 3 545 -20z m-3755 -341 c347 -68 1015
-321 1297 -490 283 -169 536 -426 619 -627 18 -43 24 -77 24 -134 0 -43 -3
-78 -7 -78 -5 0 -21 19 -37 41 -38 55 -181 177 -290 251 -149 99 -422 231
-756 363 -523 207 -901 422 -1081 613 -32 34 -59 67 -59 72 0 24 140 19 290
-11z m3495 -420 c123 -18 370 -76 725 -169 157 -42 330 -84 498 -121 51 -11
109 -27 128 -35 l36 -15 -27 -29 c-59 -62 -181 -111 -360 -146 -147 -29 -433
-25 -660 9 -225 35 -210 32 -395 68 -361 70 -422 79 -561 79 -207 0 -433 -75
-576 -190 l-61 -49 5 62 c7 80 33 135 100 207 185 201 455 326 758 353 77 7
261 -5 390 -24z m-295 -734 c124 -19 179 -30 296 -60 75 -20 217 -60 317 -91
100 -31 274 -83 387 -116 202 -59 280 -90 280 -107 0 -25 -178 -85 -315 -106
-56 -8 -264 -8 -360 0 -119 10 -314 43 -455 76 -213 51 -243 57 -325 73 -167
32 -249 39 -384 33 -184 -8 -308 -44 -390 -112 l-31 -27 0 32 c0 66 114 197
234 269 112 67 288 122 451 141 63 7 231 4 295 -5z"/>
</g>
</svg>
