<?xml version="1.0" encoding="UTF-8" standalone="yes"?>
<svg version="1.0" xmlns="http://www.w3.org/2000/svg" width="1024.000000pt" height="1024.000000pt" viewBox="0 0 1024.000000 1024.000000" preserveAspectRatio="xMidYMid meet">
  <metadata>
Created by potrace 1.16, written by Peter Selinger 2001-2019
</metadata>
  <g transform="translate(0.000000,1024.000000) scale(0.100000,-0.100000)" fill="#000000" stroke="none">
    <path d="M4995 9818 c-425 -26 -944 -208 -1490 -523 -521 -300 -1131 -877&#xA;-1612 -1525 -561 -756 -1050 -1676 -1159 -2180 -24 -115 -23 -286 4 -388 56&#xA;-208 203 -395 431 -547 127 -84 239 -141 430 -216 383 -152 672 -229 1186&#xA;-319 99 -18 180 -32 181 -33 0 -1 -50 -137 -113 -302 -327 -865 -356 -949&#xA;-407 -1193 -39 -186 -50 -295 -49 -487 0 -141 5 -206 21 -297 46 -245 152&#xA;-487 288 -654 33 -41 33 -42 11 -48 -12 -3 -36 -6 -54 -6 -28 0 -33 4 -43 38&#xA;-33 104 -124 235 -241 347 -92 88 -158 136 -240 175 -93 44 -128 39 -115 -16&#xA;4 -13 71 -91 149 -172 79 -81 163 -174 187 -206 58 -77 120 -179 114 -188 -3&#xA;-5 -25 -8 -50 -8 -41 0 -49 5 -102 58 -205 209 -720 398 -700 258 2 -16 44&#xA;-43 174 -111 180 -95 307 -168 362 -208 l32 -24 -167 -22 c-313 -41 -578 -93&#xA;-733 -143 -130 -42 -192 -86 -144 -105 8 -3 122 9 252 26 130 18 316 43 412&#xA;56 152 21 479 53 958 96 l134 12 57 -40 c350 -248 1051 -413 1821 -430 481&#xA;-11 827 31 1195 142 199 60 409 156 565 256 l77 49 234 0 c261 -1 679 -21 899&#xA;-44 140 -15 543 -54 780 -76 71 -7 125 -7 140 -2 l25 9 -35 22 c-128 79 -599&#xA;159 -1184 202 l-168 13 43 22 c68 34 276 119 452 185 189 71 219 86 215 113&#xA;-4 29 -50 38 -153 31 -207 -13 -483 -118 -717 -271 -82 -54 -103 -64 -140 -64&#xA;l-43 0 110 109 c108 105 250 217 430 338 117 78 147 107 143 136 -3 20 -8 22&#xA;-66 21 -56 -1 -76 -8 -195 -67 -146 -73 -282 -170 -395 -280 l-74 -72 38 60&#xA;c86 136 171 369 205 564 27 149 36 460 20 627 -24 239 -89 577 -202 1054 -43&#xA;184 -81 344 -84 356 -4 20 0 21 123 28 755 39 1265 123 1629 270 520 209 789&#xA;485 858 882 19 112 19 320 -1 448 -89 571 -513 1512 -1038 2301 -406 612 -990&#xA;1181 -1531 1492 -188 109 -542 273 -696 323 -410 135 -773 178 -1244 148z&#xA;m600 -173 c162 -19 254 -35 260 -44 2 -5 -5 -31 -15 -59 -33 -88 -42 -142 -41&#xA;-262 3 -322 137 -549 408 -692 141 -75 242 -100 398 -101 197 -2 310 37 433&#xA;148 91 83 153 223 136 311 -3 19 -2 34 2 34 5 0 72 -51 149 -112 229 -183 531&#xA;-490 742 -753 391 -489 858 -1326 1101 -1975 272 -725 253 -1153 -63 -1448&#xA;-192 -179 -525 -339 -890 -427 -262 -64 -780 -125 -1186 -141 l-167 -7 -20 89&#xA;c-32 138 -82 401 -82 428 0 27 -19 23 210 46 581 59 1114 196 1459 376 119 62&#xA;101 64 213 -23 79 -62 108 -107 108 -167 0 -26 -7 -60 -15 -75 -20 -39 -109&#xA;-118 -165 -146 -26 -13 -53 -31 -61 -41 -13 -16 -9 -17 58 -12 90 7 164 41&#xA;234 109 123 120 124 269 2 400 -167 179 -513 352 -1093 547 -195 66 -404 134&#xA;-465 151 l-110 33 3 62 c5 94 -13 171 -62 271 -78 156 -175 257 -313 324 -202&#xA;99 -508 103 -687 8 -123 -65 -287 -251 -317 -359 -8 -30 -15 -38 -32 -38 -12&#xA;0 -218 11 -457 25 -239 14 -474 25 -522 25 -49 0 -88 1 -88 3 0 39 -25 180&#xA;-40 222 -52 151 -190 320 -304 374 -180 85 -401 81 -586 -11 -70 -34 -102 -59&#xA;-186 -142 -160 -160 -234 -310 -234 -476 0 -44 -3 -80 -7 -80 -25 0 -449 -73&#xA;-553 -95 -298 -63 -677 -168 -880 -244 -139 -52 -227 -92 -332 -152 -98 -56&#xA;-112 -57 -153 -3 -103 136 -92 301 40 563 46 93 52 111 35 111 -29 0 -143&#xA;-182 -193 -307 -27 -69 -31 -90 -31 -183 -1 -99 1 -109 31 -170 18 -36 45 -78&#xA;62 -94 l30 -29 -53 -58 c-106 -114 -128 -213 -71 -317 51 -94 172 -182 273&#xA;-198 57 -9 51 19 -15 63 -106 70 -173 174 -159 248 9 46 52 94 114 128 l49 27&#xA;134 -64 c248 -118 539 -224 810 -295 180 -47 706 -161 743 -161 14 0 26 -5 26&#xA;-11 0 -21 -50 -188 -90 -300 -77 -215 -92 -249 -112 -249 -54 0 -515 86 -690&#xA;129 -304 74 -647 196 -878 311 -240 120 -433 288 -509 442 -58 117 -77 216&#xA;-62 324 68 488 619 1520 1242 2329 228 297 592 690 794 860 l80 67 13 -89 c22&#xA;-159 102 -272 240 -342 208 -105 448 -100 692 15 224 106 431 308 500 491 31&#xA;81 39 244 16 333 -23 94 -89 220 -145 283 l-50 53 156 58 c186 68 344 110 473&#xA;125 52 6 109 13 125 15 91 10 473 4 590 -9z m691 -175 c246 -98 609 -280 727&#xA;-366 62 -45 72 -71 59 -153 -21 -127 -106 -247 -214 -302 -152 -77 -384 -58&#xA;-593 48 -111 57 -242 182 -293 280 -85 163 -96 419 -22 562 l19 39 98 -30 c54&#xA;-17 152 -52 219 -78z m-2148 -116 c68 -34 154 -128 184 -201 19 -47 23 -77 23&#xA;-158 0 -95 -2 -104 -37 -177 -98 -206 -289 -368 -527 -448 -165 -55 -330 -50&#xA;-478 16 -68 30 -146 103 -178 167 -45 91 -29 234 33 300 48 51 414 287 615&#xA;397 109 59 268 130 293 130 11 0 43 -12 72 -26z m-6 -2655 c85 -18 174 -65&#xA;237 -127 97 -96 171 -254 171 -367 l0 -54 -52 -5 c-52 -6 -124 -11 -528 -41&#xA;-113 -8 -278 -22 -368 -31 -90 -9 -166 -14 -169 -11 -3 4 -5 35 -5 70 0 243&#xA;219 509 465 562 77 17 180 18 249 4z m2415 -254 c212 -40 336 -134 431 -324&#xA;42 -84 47 -103 51 -173 2 -62 0 -78 -11 -78 -8 0 -81 15 -164 34 -247 57 -588&#xA;123 -774 151 -96 14 -190 28 -208 31 l-33 5 37 69 c25 48 60 92 114 144 123&#xA;117 214 154 382 155 53 1 132 -6 175 -14z m-1275 -480 c18 -2 76 -6 128 -10&#xA;392 -26 747 -70 1030 -128 l65 -13 6 -249 c8 -309 17 -419 60 -705 57 -377&#xA;129 -736 263 -1310 103 -440 172 -839 187 -1070 39 -610 -50 -947 -332 -1254&#xA;-248 -270 -683 -459 -1254 -548 -149 -23 -621 -33 -830 -18 -485 35 -912 114&#xA;-1193 221 -220 84 -362 170 -493 299 -165 163 -275 374 -330 635 -20 94 -23&#xA;139 -23 310 0 279 31 457 140 790 46 140 303 830 429 1150 120 305 192 532&#xA;274 860 75 300 115 541 132 795 6 91 12 166 14 168 15 16 322 44 850 77 195&#xA;12 762 12 877 0z m-1858 -101 c3 -9 6 -37 6 -62 0 -56 -38 -294 -48 -304 -8&#xA;-8 -198 28 -357 68 -160 40 -282 80 -460 148 -39 16 361 98 708 146 73 10 135&#xA;18 138 19 4 1 10 -6 13 -15z m3425 -129 c159 -40 652 -181 710 -202 20 -8 11&#xA;-13 -65 -36 -228 -69 -609 -137 -768 -137 l-54 0 -11 78 c-7 42 -15 137 -18&#xA;210 -6 122 -5 132 12 132 9 0 97 -20 194 -45z m-4373 -79 c38 -19 98 -45 134&#xA;-59 148 -55 509 -151 665 -177 100 -16 94 -11 83 -72 -21 -128 -99 -442 -113&#xA;-456 -6 -7 -535 103 -710 148 -232 59 -377 105 -554 177 -176 71 -372 164&#xA;-366 173 7 12 294 136 420 183 90 33 344 114 366 116 3 1 36 -14 75 -33z&#xA;m5397 -232 c130 -46 370 -145 461 -191 70 -35 107 -63 100 -74 -3 -5 -45 -29&#xA;-92 -53 -325 -163 -819 -282 -1415 -342 -97 -9 -172 -13 -177 -8 -11 12 -70&#xA;434 -70 502 0 5 62 14 138 21 276 25 643 102 812 169 41 16 84 28 95 25 11 -3&#xA;78 -25 148 -49z"/>
    <path d="M5200 8445 c-174 -36 -295 -100 -416 -220 -138 -137 -203 -282 -204&#xA;-449 0 -180 86 -338 239 -441 142 -94 280 -135 452 -135 186 0 333 38 449 116&#xA;124 83 218 204 261 336 33 100 34 243 2 343 -56 176 -212 344 -388 418 -112&#xA;47 -262 59 -395 32z m234 -110 c108 -19 190 -62 279 -145 113 -106 159 -187&#xA;178 -317 26 -178 -102 -399 -284 -488 -111 -54 -184 -70 -322 -69 -109 0 -129&#xA;3 -214 32 -123 42 -195 87 -269 166 -168 180 -143 426 63 631 129 130 269 189&#xA;475 203 8 1 51 -5 94 -13z"/>
    <path d="M7505 7866 c-115 -26 -156 -47 -225 -117 -69 -70 -123 -151 -147&#xA;-221 -35 -100 -34 -286 2 -392 22 -64 88 -173 142 -235 166 -190 533 -315 740&#xA;-253 129 40 259 147 309 257 95 208 13 511 -200 733 -100 105 -211 176 -331&#xA;214 -79 25 -213 31 -290 14z m268 -127 c212 -71 402 -283 462 -514 20 -78 19&#xA;-199 -2 -261 -24 -72 -128 -173 -208 -203 -51 -20 -74 -22 -160 -19 -264 11&#xA;-528 191 -618 422 -28 73 -34 222 -13 306 51 199 206 310 411 294 39 -3 96&#xA;-14 128 -25z"/>
    <path d="M2635 7701 c-192 -25 -365 -117 -520 -275 -104 -106 -155 -187 -191&#xA;-303 -50 -158 -19 -290 92 -400 193 -188 553 -181 818 17 54 40 158 145 193&#xA;196 41 57 92 171 114 249 23 84 23 191 0 265 -32 107 -128 204 -233 235 -61&#xA;18 -195 26 -273 16z m240 -131 c113 -43 183 -154 172 -275 -7 -73 -42 -174&#xA;-88 -252 -51 -87 -190 -221 -275 -266 -210 -110 -442 -99 -584 29 -85 77 -108&#xA;174 -70 295 27 86 66 151 139 231 204 222 490 318 706 238z"/>
    <path d="M8455 6330 c-7 -12 2 -29 70 -134 73 -112 110 -190 141 -293 24 -78&#xA;27 -110 32 -276 3 -133 8 -187 16 -184 6 1 22 25 36 52 23 46 25 61 25 180 0&#xA;110 -5 145 -27 227 -48 172 -121 303 -222 396 -47 43 -60 49 -71 32z"/>
    <path d="M8840 6271 c0 -5 33 -77 74 -159 146 -299 178 -441 174 -767 -1 -121&#xA;2 -220 6 -220 38 0 86 165 86 296 0 107 -40 351 -75 454 -34 103 -98 227 -157&#xA;308 -58 79 -108 119 -108 88z"/>
    <path d="M2000 4667 c0 -54 388 -179 547 -176 32 1 69 4 82 8 39 11 36 29 -6&#xA;36 -95 16 -251 51 -403 93 -210 57 -220 59 -220 39z"/>
    <path d="M7999 4480 c-102 -27 -268 -62 -369 -79 -101 -17 -185 -33 -188 -35&#xA;-2 -3 -2 -13 2 -22 6 -15 20 -16 124 -11 64 3 162 15 217 27 184 38 408 115&#xA;440 150 18 20 17 20 -11 19 -16 -1 -113 -23 -215 -49z"/>
    <path d="M5207 5715 c-71 -25 -110 -85 -74 -112 6 -6 58 -11 115 -12 61 -1&#xA;133 -10 176 -21 70 -18 197 -76 261 -119 36 -25 71 -27 79 -5 9 22 -37 98 -89&#xA;149 -52 50 -142 99 -220 120 -73 18 -197 19 -248 0z"/>
    <path d="M4001 5684 c-113 -30 -214 -103 -255 -185 -44 -89 -14 -102 92 -40&#xA;113 67 207 93 355 99 139 5 163 14 148 55 -10 27 -62 63 -110 77 -51 14 -166&#xA;11 -230 -6z"/>
    <path d="M5260 5319 c-202 -33 -398 -237 -444 -465 -42 -201 -28 -353 46 -504&#xA;68 -140 212 -264 347 -300 60 -16 174 -16 241 0 304 70 496 419 424 767 -22&#xA;108 -49 173 -104 256 -91 135 -191 211 -322 242 -70 16 -106 17 -188 4z m235&#xA;-127 c97 -46 201 -161 249 -276 24 -58 46 -178 46 -256 0 -388 -315 -634 -618&#xA;-485 -136 68 -227 181 -267 335 -34 127 -2 378 61 486 61 103 160 188 257 220&#xA;71 23 193 12 272 -24z"/>
    <path d="M5250 4889 c-105 -44 -168 -240 -125 -386 34 -116 109 -170 197 -143&#xA;181 54 227 388 71 507 -37 29 -104 39 -143 22z"/>
    <path d="M4023 5296 c-159 -39 -279 -148 -377 -343 -63 -126 -81 -208 -80&#xA;-368 1 -124 4 -148 26 -212 50 -141 158 -255 286 -303 44 -17 74 -21 139 -18&#xA;46 2 83 0 83 -3 0 -3 -9 -14 -19 -23 -37 -34 -65 -116 -65 -196 -1 -65 3 -81&#xA;28 -124 85 -145 259 -252 491 -302 102 -23 309 -29 413 -14 238 34 479 163&#xA;564 300 l30 48 46 -27 c71 -41 80 -43 96 -19 13 18 13 25 1 48 -23 45 -95 99&#xA;-154 116 -102 30 -221 2 -202 -49 6 -17 20 -24 60 -30 28 -5 51 -12 51 -17 0&#xA;-16 -139 -136 -201 -173 -292 -172 -817 -126 -1039 93 -73 71 -97 130 -81 195&#xA;18 70 48 111 165 219 192 177 279 350 292 581 15 244 -83 472 -244 569 -104&#xA;62 -199 78 -309 52z m214 -121 c106 -48 174 -135 212 -275 63 -226 17 -457&#xA;-121 -605 -176 -189 -386 -200 -554 -29 -94 94 -109 141 -109 329 0 138 3 156&#xA;28 230 36 101 84 181 159 261 112 119 248 151 385 89z"/>
    <path d="M4155 4902 c-154 -98 -164 -409 -16 -509 41 -28 80 -29 129 -4 90 46&#xA;134 131 139 266 4 110 -20 181 -79 228 -49 39 -128 48 -173 19z"/>
    <path d="M6360 4130 c0 -91 181 -1051 245 -1300 37 -140 47 -162 67 -142 14&#xA;14 5 70 -93 575 -127 655 -181 887 -205 887 -8 0 -14 -9 -14 -20z"/>
    <path d="M3071 3283 c-40 -80 -111 -273 -145 -398 -124 -448 -161 -859 -101&#xA;-1121 16 -72 37 -115 50 -102 4 4 1 82 -5 174 -19 256 -1 489 61 799 41 204&#xA;82 364 135 527 24 75 44 142 44 147 0 23 -21 9 -39 -26z"/>
    <path d="M4293 3254 c-8 -21 42 -91 94 -130 129 -98 386 -121 564 -50 87 35&#xA;195 124 174 144 -3 3 -25 0 -48 -6 -249 -72 -371 -86 -503 -57 -96 21 -185 56&#xA;-230 90 -38 29 -43 30 -51 9z"/>
    <path d="M6334 2715 c-4 -9 -1 -92 6 -184 22 -279 3 -578 -51 -796 -72 -294&#xA;-180 -496 -372 -701 -39 -42 -57 -69 -53 -80 15 -40 171 99 274 245 126 179&#xA;212 423 259 731 20 138 23 436 4 585 -19 155 -50 246 -67 200z"/>
    <path d="M3183 2419 c-14 -18 -47 -116 -64 -194 -21 -93 -18 -399 4 -505 41&#xA;-194 99 -346 175 -456 42 -63 138 -162 187 -194 59 -39 89 -15 39 31 -60 55&#xA;-185 223 -218 291 -46 97 -100 279 -121 408 -22 138 -22 345 -1 488 19 123 19&#xA;154 -1 131z"/>
    <path d="M6687 2314 c-3 -10 -8 -57 -12 -104 -26 -352 -70 -544 -186 -809 -57&#xA;-132 -69 -171 -50 -171 28 0 146 210 189 335 69 203 113 505 97 663 -8 77 -28&#xA;122 -38 86z"/>
    <path d="M5930 2008 c-5 -13 -19 -61 -31 -108 -57 -231 -133 -412 -239 -570&#xA;-81 -121 -275 -316 -387 -390 -122 -81 -106 -112 22 -45 209 109 422 341 530&#xA;580 75 164 131 359 135 465 3 72 1 90 -10 90 -6 0 -15 -10 -20 -22z"/>
    <path d="M2242 699 c-112 -17 -224 -71 -206 -100 6 -10 404 -5 558 7 65 5 116&#xA;20 116 33 0 15 -64 43 -127 56 -75 16 -242 18 -341 4z"/>
    <path d="M7085 689 c-55 -11 -81 -30 -72 -52 8 -21 50 -25 312 -32 189 -5 233&#xA;-4 249 8 17 13 16 15 -18 31 -20 9 -67 23 -104 31 -90 18 -305 26 -367 14z"/>
    <path d="M2973 589 c-41 -12 -51 -28 -27 -47 27 -20 249 -11 272 12 14 14 12&#xA;17 -21 31 -40 17 -171 19 -224 4z"/>
  </g>
  <title>Mushroom Spots</title>
  <desc>Mushroom Spots</desc>
</svg>