<?xml version="1.0" encoding="UTF-8" standalone="yes"?>
<svg version="1.0" xmlns="http://www.w3.org/2000/svg" width="1024.000000pt" height="1024.000000pt" viewBox="0 0 1024.000000 1024.000000" preserveAspectRatio="xMidYMid meet">
  <metadata>
Created by potrace 1.16, written by Peter Selinger 2001-2019
</metadata>
  <g transform="translate(0.000000,1024.000000) scale(0.100000,-0.100000)" fill="#000000" stroke="none">
    <path d="M3188 9724 c-113 -20 -220 -63 -401 -159 -219 -117 -375 -222 -474&#xA;-320 -88 -86 -104 -123 -64 -145 11 -5 77 -10 148 -10 76 0 178 -8 253 -20&#xA;119 -18 281 -59 321 -81 11 -5 23 -8 28 -5 5 3 33 47 62 97 29 50 84 129 121&#xA;175 37 46 64 84 60 84 -20 0 -165 -105 -221 -160 l-63 -62 -92 27 c-102 31&#xA;-274 49 -398 42 -43 -2 -78 -1 -78 3 0 10 156 131 235 182 108 70 293 163 388&#xA;197 256 90 433 82 738 -35 581 -221 974 -619 1139 -1152 66 -213 90 -396 90&#xA;-688 0 -170 0 -172 -24 -187 l-23 -16 -7 107 c-18 273 -99 582 -216 827 -131&#xA;275 -352 548 -548 679 -94 62 -120 70 -45 12 34 -25 106 -93 161 -151 195&#xA;-204 358 -485 461 -792 88 -265 150 -722 106 -779 -15 -18 -16 -18 -28 0 -101&#xA;154 -249 354 -400 536 -43 52 -81 101 -84 108 -3 7 27 55 67 108 58 78 67 95&#xA;48 89 -19 -6 -124 -72 -172 -108 -7 -6 -45 25 -106 88 -52 53 -144 140 -203&#xA;193 l-109 96 135 133 c74 73 132 133 129 133 -22 0 -200 -98 -259 -143 l-71&#xA;-55 -32 27 -32 26 62 75 c35 41 88 101 118 133 31 31 52 57 47 57 -30 0 -170&#xA;-96 -252 -173 -22 -22 -46 -36 -51 -33 -6 4 -50 36 -99 72 -48 36 -145 100&#xA;-215 142 -71 42 -128 79 -128 82 0 15 272 229 352 276 23 14 36 24 28 21 -8&#xA;-2 -42 -12 -75 -22 -140 -40 -384 -184 -425 -250 -34 -55 -24 -82 40 -117 120&#xA;-66 192 -110 301 -189 271 -195 619 -519 795 -739 95 -120 93 -117 54 -93 -78&#xA;47 -280 142 -367 172 -164 56 -271 74 -438 74 -298 0 -610 -85 -935 -254 -418&#xA;-218 -697 -498 -891 -894 -141 -288 -224 -686 -205 -975 9 -122 20 -158 53&#xA;-166 36 -9 64 10 149 103 85 94 360 307 532 413 57 34 108 72 112 84 5 12 16&#xA;54 25 93 10 40 21 70 26 67 5 -3 9 -12 9 -20 0 -8 9 -34 21 -59 19 -41 23 -44&#xA;43 -33 11 7 97 44 191 83 l170 72 8 49 c12 79 16 83 37 38 10 -23 22 -44 28&#xA;-48 6 -3 30 2 54 13 80 34 380 132 512 166 185 49 446 103 446 93 0 -4 -6 -8&#xA;-13 -8 -22 0 -151 -66 -238 -122 -381 -247 -624 -597 -744 -1073 -47 -187 -59&#xA;-298 -52 -494 10 -268 81 -550 197 -782 98 -197 158 -257 213 -216 10 6 51&#xA;100 93 207 77 199 165 396 237 530 276 515 559 932 889 1312 110 127 111 128&#xA;154 128 47 0 51 -5 30 -35 -7 -11 -46 -90 -86 -175 -347 -743 -617 -1631 -765&#xA;-2520 -14 -85 -28 -168 -31 -183 l-6 -29 -1629 3 c-1489 3 -1630 2 -1645 -13&#xA;-21 -21 -12 -35 34 -48 25 -6 568 -10 1636 -10 l1598 0 -6 -32 c-37 -210 -67&#xA;-578 -73 -900 -3 -164 -10 -298 -14 -298 -5 0 -71 20 -148 45 -191 61 -348&#xA;102 -464 120 -112 18 -367 21 -492 5 -44 -5 -159 -12 -255 -16 -284 -10 -406&#xA;20 -675 171 -294 164 -394 196 -625 196 -210 0 -503 -34 -537 -63 -33 -27 6&#xA;-30 286 -23 315 8 398 1 535 -42 114 -36 190 -72 311 -148 273 -171 461 -207&#xA;890 -171 221 19 395 20 514 5 100 -12 285 -59 509 -128 90 -28 164 -51 165&#xA;-51 1 0 3 -28 5 -62 3 -72 20 -241 28 -277 4 -20 -4 -16 -54 30 -67 62 -145&#xA;110 -232 146 -95 38 -150 31 -150 -21 0 -24 -2 -20 113 -224 48 -85 87 -156&#xA;87 -158 0 -2 -37 21 -82 52 -46 30 -110 68 -143 84 -184 88 -446 134 -531 94&#xA;-35 -17 -41 -32 -24 -64 11 -20 183 -149 356 -266 l105 -71 -113 -17 c-166&#xA;-25 -263 -44 -358 -73 -105 -31 -288 -105 -356 -144 -42 -24 -63 -29 -115 -29&#xA;-193 0 -402 -52 -457 -113 -17 -19 -16 -20 28 -13 182 26 281 36 386 36 l121&#xA;0 72 39 c100 56 237 104 439 156 187 49 213 53 372 64 96 7 111 6 175 -17 39&#xA;-13 87 -33 108 -44 22 -11 41 -17 44 -14 3 3 -30 41 -73 84 -60 59 -138 116&#xA;-331 242 -139 90 -251 165 -249 167 2 2 38 -4 82 -12 109 -21 247 -68 348&#xA;-120 102 -52 332 -210 399 -274 26 -25 47 -40 47 -33 0 35 -52 138 -147 288&#xA;-117 186 -193 314 -193 326 0 15 17 8 76 -31 72 -47 123 -97 178 -176 82 -116&#xA;133 -217 156 -312 20 -76 28 -94 49 -105 14 -7 57 -30 95 -51 187 -102 360&#xA;-142 571 -134 182 7 338 42 461 105 72 37 72 39 31 165 -21 62 -37 121 -37&#xA;133 0 29 64 131 112 181 38 39 138 102 138 87 0 -3 -21 -70 -46 -148 -25 -77&#xA;-56 -190 -69 -249 l-23 -108 21 7 c12 3 66 37 119 75 154 110 269 165 381 184&#xA;51 8 45 1 -61 -81 -133 -104 -273 -237 -260 -249 2 -2 37 6 78 19 72 22 79 23&#xA;165 10 243 -36 421 -98 540 -190 46 -35 55 -37 169 -51 145 -16 236 -37 421&#xA;-96 147 -47 195 -60 195 -54 0 10 -124 89 -200 127 -134 68 -245 102 -385 120&#xA;-55 7 -95 22 -185 68 -129 66 -322 132 -458 158 l-90 18 71 49 c167 114 201&#xA;179 117 222 -78 41 -327 -18 -451 -106 -16 -11 -32 -19 -34 -17 -2 2 16 71 40&#xA;153 50 169 52 185 27 208 -65 59 -263 -37 -337 -162 -16 -28 -32 -51 -35 -51&#xA;-11 0 -121 408 -111 414 24 15 303 25 433 16 313 -22 517 -81 893 -258 251&#xA;-117 329 -148 452 -179 99 -25 125 -27 298 -27 143 0 245 7 415 27 537 64 761&#xA;40 1205 -132 280 -108 420 -135 685 -135 250 0 401 30 540 105 44 24 49 29 25&#xA;25 -281 -46 -640 -53 -839 -17 -116 21 -321 86 -535 170 -325 127 -556 143&#xA;-1146 76 -202 -23 -266 -26 -405 -22 -235 8 -326 34 -655 189 -447 212 -626&#xA;264 -940 275 -152 5 -285 -2 -414 -23 l-37 -6 -22 119 c-62 332 -102 749 -102&#xA;1066 l0 168 2553 -3 c2065 -2 2556 -1 2575 10 30 17 28 40 -4 52 -17 7 -918&#xA;10 -2576 10 l-2551 0 7 162 c33 782 193 1676 425 2383 69 213 67 208 90 195&#xA;37 -19 147 -29 227 -19 103 13 186 54 266 129 34 33 63 58 64 57 21 -20 243&#xA;-397 295 -499 38 -76 75 -138 82 -138 7 0 18 5 25 12 9 9 12 1 12 -35 0 -37&#xA;19 -93 79 -240 43 -106 96 -238 117 -294 21 -57 43 -103 49 -103 22 0 59 35&#xA;97 94 24 37 37 51 34 36 -18 -78 -35 -172 -41 -225 -6 -54 -1 -76 40 -205 80&#xA;-250 117 -418 131 -592 7 -94 18 -114 56 -104 53 13 168 140 309 341 127 179&#xA;229 406 275 610 32 146 43 378 25 532 -26 215 -108 454 -222 654 -164 286&#xA;-435 570 -725 759 l-79 52 50 -7 c94 -12 340 -54 490 -84 147 -30 150 -30 166&#xA;-11 16 18 17 18 37 -10 15 -20 36 -31 74 -40 99 -24 361 -112 521 -176 88 -35&#xA;166 -64 173 -64 7 0 26 16 42 36 33 40 34 39 46 -38 6 -35 12 -39 149 -114&#xA;262 -142 431 -249 639 -405 132 -99 148 -109 177 -109 49 0 66 81 50 251 -38&#xA;433 -203 894 -437 1224 -74 104 -345 374 -448 448 -218 154 -491 259 -786 303&#xA;-261 38 -688 -13 -930 -111 -34 -14 -64 -23 -66 -20 -9 9 491 498 592 580 156&#xA;126 159 129 152 151 -3 11 -19 34 -35 52 -36 39 -27 40 40 7 27 -14 54 -23 59&#xA;-20 5 3 49 40 97 81 95 83 331 262 406 309 54 35 76 68 61 93 -31 49 -214 124&#xA;-374 153 -117 22 -537 19 -665 -4 -338 -61 -656 -199 -890 -386 -85 -68 -231&#xA;-221 -306 -321 -96 -126 -211 -349 -258 -500 -46 -144 -43 -139 -48 -115 -85&#xA;401 -237 703 -483 959 -159 165 -310 276 -515 378 -209 105 -449 180 -631 198&#xA;-123 12 -141 11 -236 -6z m4027 -314 c54 -12 205 -60 205 -64 0 -2 -18 -15&#xA;-40 -30 -39 -25 -254 -196 -352 -279 l-47 -39 -93 31 c-119 40 -246 61 -362&#xA;61 l-91 0 66 -24 c79 -28 214 -102 287 -159 l54 -41 -29 -20 c-43 -32 -175&#xA;-148 -310 -274 l-121 -113 -92 46 c-77 39 -215 85 -253 85 -5 0 18 -18 51 -40&#xA;77 -52 204 -169 200 -185 -2 -7 -58 -70 -125 -139 l-123 -125 -63 39 c-51 32&#xA;-162 80 -185 80 -3 0 37 -43 88 -96 l93 -96 -227 -227 c-125 -124 -250 -245&#xA;-277 -269 l-49 -43 -70 35 c-39 19 -91 38 -116 42 -52 8 -52 -4 -2 171 85 300&#xA;230 601 393 818 79 104 234 283 351 402 44 46 78 83 76 83 -13 0 -200 -148&#xA;-263 -208 -136 -127 -319 -369 -412 -542 -91 -169 -209 -473 -251 -647 -11&#xA;-43 -24 -74 -33 -78 -14 -5 -15 8 -10 112 11 213 65 452 148 662 92 232 209&#xA;411 379 581 134 134 258 222 440 313 168 84 294 127 487 168 135 28 143 29&#xA;383 25 135 -3 268 -10 295 -16z m110 -1313 c430 -96 739 -298 1011 -662 194&#xA;-259 345 -603 413 -940 20 -101 43 -286 37 -293 -2 -2 -53 32 -112 75 -60 43&#xA;-163 113 -230 156 l-120 78 -18 92 c-35 186 -120 386 -223 525 -26 34 -47 61&#xA;-48 60 -1 -2 20 -70 47 -153 43 -132 114 -433 104 -443 -2 -2 -53 22 -114 52&#xA;-106 53 -110 56 -116 93 -32 180 -169 471 -281 598 -19 22 -25 24 -20 10 16&#xA;-46 37 -125 54 -210 20 -94 47 -322 40 -330 -3 -2 -50 13 -106 34 -146 56&#xA;-311 110 -442 145 l-113 31 -15 45 c-45 136 -162 336 -242 414 l-39 38 43&#xA;-113 c42 -111 103 -334 94 -344 -3 -2 -45 4 -94 14 -68 14 -91 22 -96 37 -4&#xA;10 -19 60 -34 109 -26 85 -102 251 -112 241 -3 -2 5 -51 16 -108 12 -57 24&#xA;-136 28 -176 l6 -73 -24 6 c-41 9 -281 35 -331 35 l-48 0 -36 73 c-39 77 -93&#xA;161 -100 154 -2 -2 7 -49 21 -105 14 -56 25 -104 25 -107 0 -13 -82 -3 -123&#xA;14 -86 37 -263 82 -367 93 -142 16 -153 33 -62 100 31 24 59 45 62 48 20 20&#xA;167 110 261 159 185 96 357 150 589 187 89 14 172 19 370 18 240 0 263 -1 385&#xA;-27 72 -15 177 -44 235 -63 127 -43 341 -144 441 -209 l74 -47 -35 37 c-73 77&#xA;-287 199 -443 254 -347 122 -786 153 -1167 85 -250 -45 -600 -204 -808 -366&#xA;-35 -27 -66 -47 -70 -44 -3 3 -3 7 -1 9 42 28 163 139 319 292 l195 192 115&#xA;55 c164 80 367 142 540 167 41 6 86 13 100 15 14 3 122 3 240 1 183 -3 231 -7&#xA;325 -28z m-3614 -126 c259 -59 527 -194 753 -381 81 -67 219 -205 196 -198 -8&#xA;3 -64 38 -125 77 -267 174 -514 261 -829 293 -202 20 -513 -15 -689 -79 -162&#xA;-58 -517 -249 -558 -300 -8 -9 6 -3 31 14 55 37 176 99 290 148 290 126 586&#xA;180 850 156 356 -33 647 -135 887 -309 l63 -46 -78 -26 c-42 -14 -95 -38 -117&#xA;-52 -50 -31 -132 -113 -151 -150 -14 -27 -18 -28 -87 -29 -39 0 -114 -6 -165&#xA;-13 l-92 -12 5 211 5 210 -21 -45 c-34 -73 -87 -239 -100 -315 -7 -38 -15 -73&#xA;-18 -77 -5 -6 -143 -38 -165 -38 -9 0 -2 116 20 299 8 68 13 126 10 128 -8 8&#xA;-65 -98 -96 -179 -35 -89 -80 -242 -80 -269 0 -11 -2 -19 -5 -19 -10 0 -318&#xA;-101 -424 -139 l-113 -41 7 78 c11 131 33 262 63 381 l29 114 -24 -29 c-34&#xA;-41 -129 -202 -160 -271 -14 -32 -49 -125 -78 -208 l-52 -150 -126 -51 -127&#xA;-52 0 66 c0 89 23 239 60 391 17 68 29 125 27 127 -2 2 -24 -25 -50 -60 -97&#xA;-133 -184 -325 -237 -529 -16 -60 -30 -110 -32 -111 -2 -1 -52 -33 -113 -71&#xA;-168 -105 -328 -228 -453 -349 l-113 -110 2 105 c9 470 153 861 447 1209 308&#xA;367 792 648 1232 715 130 20 384 13 501 -14z m1584 -536 c122 -59 189 -205&#xA;156 -341 l-12 -49 -122 -1 c-101 0 -131 -4 -177 -22 -30 -12 -56 -22 -57 -22&#xA;-1 0 -9 23 -18 50 -20 62 -86 161 -127 193 -26 21 -29 29 -24 54 14 61 97 135&#xA;186 164 44 15 138 2 195 -26z m-543 -206 c51 -13 127 -66 165 -117 112 -147&#xA;65 -414 -92 -524 -26 -18 -68 -34 -118 -44 -71 -15 -84 -15 -150 0 -93 21&#xA;-142 46 -196 97 -93 90 -121 234 -71 364 43 110 176 214 299 235 48 8 101 4&#xA;163 -11z m925 -80 c121 -17 283 -74 454 -161 616 -313 1038 -926 1066 -1549&#xA;18 -389 -126 -780 -406 -1108 l-46 -54 -12 94 c-22 165 -105 460 -173 617&#xA;l-23 53 26 137 c15 75 31 175 37 222 11 93 12 307 2 385 l-7 50 -34 -135 c-38&#xA;-154 -127 -410 -141 -410 -3 0 -29 62 -59 138 -30 75 -78 188 -107 251 l-54&#xA;114 25 43 c57 97 125 319 125 407 0 11 -21 -22 -48 -74 -47 -95 -152 -269&#xA;-162 -269 -3 0 -24 38 -48 84 -24 46 -61 112 -82 145 l-40 61 30 88 c28 83 50&#xA;190 50 241 0 16 -23 -15 -72 -95 -85 -141 -77 -132 -88 -114 -5 8 -36 53 -71&#xA;98 l-62 84 -1 96 c-2 79 -7 108 -28 159 -37 87 -140 218 -187 235 -11 4 18&#xA;128 31 128 15 0 194 -87 290 -141 548 -308 913 -787 1084 -1419 26 -97 32&#xA;-113 28 -70 -20 202 -68 368 -165 570 -225 468 -595 837 -1034 1034 -60 27&#xA;-129 51 -153 54 -23 2 -45 9 -48 13 -7 12 8 11 103 -2z m-244 -232 c166 -76&#xA;260 -278 197 -425 -30 -70 -114 -146 -182 -167 -178 -53 -373 29 -439 183 -26&#xA;60 -24 77 16 157 21 40 43 105 52 152 l16 83 43 16 c109 42 208 42 297 1z&#xA;m-1268 -59 c0 -35 3 -77 7 -94 7 -30 5 -32 -27 -38 -45 -9 -177 -77 -245 -128&#xA;-94 -70 -246 -206 -326 -291 -252 -267 -458 -659 -478 -908 l-6 -74 20 75 c73&#xA;270 168 455 351 685 148 187 387 402 599 541 128 83 130 84 157 26 27 -57 91&#xA;-125 156 -164 l47 -30 -20 -26 c-11 -15 -42 -52 -70 -82 -28 -30 -85 -99 -128&#xA;-152 l-77 -98 -58 118 -58 117 4 -100 c3 -55 12 -130 22 -167 l17 -67 -30 -38&#xA;c-32 -41 -217 -317 -248 -370 -10 -18 -21 -33 -24 -33 -10 0 -84 155 -112 235&#xA;-35 103 -42 84 -35 -103 4 -105 11 -169 27 -225 l21 -78 -36 -60 c-20 -32 -38&#xA;-59 -41 -59 -7 0 -50 92 -84 180 -18 47 -38 90 -43 95 -19 20 0 -264 23 -354&#xA;l22 -83 -61 -127 c-71 -150 -164 -368 -212 -498 -18 -51 -37 -93 -41 -93 -24&#xA;0 -134 225 -184 376 -113 347 -108 702 18 1079 93 281 220 487 410 670 161&#xA;154 302 247 502 330 64 26 204 70 236 74 3 1 5 -27 5 -61z m780 -475 c10 -14&#xA;37 -45 61 -68 l43 -42 -33 -84 c-18 -46 -43 -117 -56 -158 l-23 -73 -41 6&#xA;c-81 14 -275 90 -290 115 -4 5 20 67 52 138 l58 128 52 6 c29 4 73 18 99 31&#xA;62 32 58 32 78 1z m-99 -470 l70 -17 -23 -81 c-13 -44 -44 -154 -69 -245 -25&#xA;-91 -47 -173 -50 -183 -5 -16 -12 -17 -47 -12 -106 18 -233 76 -303 137 -29&#xA;26 -34 36 -29 57 8 33 149 390 169 428 l15 29 98 -48 c55 -26 131 -55 169 -65z&#xA;m-277 -557 c35 -14 90 -31 123 -38 32 -7 58 -17 58 -23 0 -5 -18 -91 -39 -190&#xA;-22 -99 -47 -229 -57 -289 l-19 -109 -85 6 c-110 7 -230 43 -303 90 -87 56&#xA;-87 58 -32 237 26 85 69 218 97 296 l50 142 71 -48 c40 -26 101 -60 136 -74z&#xA;m-376 -595 c96 -65 225 -109 345 -118 45 -3 82 -8 82 -10 0 -2 -13 -104 -29&#xA;-226 -16 -122 -33 -259 -37 -304 l-6 -81 -50 -7 c-60 -9 -179 1 -268 21 -75&#xA;17 -198 75 -229 108 l-21 23 34 149 c55 239 121 474 132 474 3 0 24 -13 47&#xA;-29z m22 -791 c58 -15 115 -21 204 -21 l123 -1 -6 -51 c-3 -29 -9 -179 -12&#xA;-334 l-7 -282 -71 -12 c-167 -28 -455 24 -569 103 -18 12 -33 22 -34 23 -5 3&#xA;56 364 88 525 l31 155 86 -43 c48 -23 123 -51 167 -62z m-313 -690 c36 -17&#xA;109 -42 164 -57 85 -22 120 -26 249 -27 83 -1 162 2 176 6 l26 8 7 -148 c3&#xA;-81 11 -214 18 -295 9 -126 9 -150 -3 -158 -39 -25 -103 -34 -254 -34 -136 0&#xA;-172 4 -239 23 -91 26 -223 91 -256 127 -22 24 -22 25 -11 157 19 220 46 428&#xA;55 428 2 0 33 -14 68 -30z m-101 -648 c38 -28 140 -71 225 -92 152 -39 342&#xA;-43 490 -10 25 6 48 9 49 8 1 -2 8 -41 14 -88 7 -47 28 -167 47 -267 19 -100&#xA;34 -186 34 -191 0 -12 -72 -43 -170 -74 -65 -20 -96 -23 -230 -23 -97 0 -176&#xA;5 -210 14 -72 17 -205 81 -252 121 l-38 31 0 295 c0 162 4 294 9 294 4 0 19&#xA;-8 32 -18z m184 -770 c179 -60 407 -53 606 17 46 17 87 27 90 23 4 -4 16 -45&#xA;28 -92 13 -47 58 -194 102 -327 44 -134 78 -247 74 -253 -8 -13 -155 -57 -240&#xA;-71 -111 -18 -307 -13 -424 11 -126 25 -185 47 -282 104 -65 38 -77 50 -83 78&#xA;-18 91 -67 394 -76 473 -16 149 -22 140 68 95 42 -21 104 -48 137 -58z"/>
    <path d="M4386 6988 c-18 -25 -23 -143 -6 -133 6 3 10 24 10 46 0 22 7 55 14&#xA;74 17 39 5 47 -18 13z"/>
    <path d="M4448 6807 c-2 -12 1 -42 8 -67 l12 -45 1 62 c1 61 -13 94 -21 50z"/>
    <path d="M5125 6600 c8 -48 53 -150 66 -150 10 0 -49 170 -63 185 -7 6 -8 -6&#xA;-3 -35z"/>
    <path d="M5260 6512 c0 -21 27 -62 41 -62 5 0 0 18 -11 40 -22 44 -30 49 -30&#xA;22z"/>
    <path d="M8350 9505 c-106 -24 -204 -78 -285 -159 -81 -80 -117 -147 -137&#xA;-249 l-12 -65 -51 5 c-163 17 -345 -86 -412 -234 -34 -73 -42 -181 -19 -235&#xA;28 -66 52 -72 301 -79 121 -3 389 -7 595 -8 393 -2 519 -4 1022 -16 168 -4&#xA;322 -5 342 -1 112 21 140 143 55 239 -51 58 -138 102 -233 118 l-74 11 -12 47&#xA;c-30 118 -109 221 -203 262 -68 29 -178 30 -258 2 l-56 -19 -12 48 c-44 195&#xA;-208 333 -404 343 -51 3 -106 -1 -147 -10z m224 -111 c108 -38 184 -113 211&#xA;-208 18 -64 21 -112 11 -198 -8 -65 -7 -68 13 -68 11 0 41 21 66 46 111 111&#xA;261 126 365 36 74 -62 100 -150 76 -253 l-8 -37 114 2 c107 1 116 -1 173 -29&#xA;60 -30 111 -87 98 -108 -8 -12 -2044 -1 -2112 12 -51 10 -61 22 -61 77 0 98&#xA;63 195 158 241 74 36 190 39 264 6 67 -31 75 -21 80 102 6 131 29 183 112 263&#xA;34 33 86 72 115 87 101 51 230 62 325 29z"/>
    <path d="M1466 8985 c-208 -57 -393 -259 -404 -442 -3 -50 -8 -63 -18 -59 -42&#xA;16 -143 17 -202 2 -92 -23 -140 -51 -213 -125 -70 -71 -94 -113 -111 -194 -23&#xA;-108 22 -186 122 -214 80 -21 599 -28 1109 -14 393 11 561 23 561 41 0 5 -30&#xA;16 -67 25 -59 15 -164 18 -798 25 -401 4 -747 11 -768 15 -46 9 -67 37 -67 88&#xA;0 79 90 199 180 240 54 24 160 33 216 18 22 -6 61 -25 87 -42 64 -42 78 -31&#xA;65 48 -23 143 17 265 125 376 145 149 348 179 503 75 93 -63 151 -187 161&#xA;-346 3 -45 10 -85 15 -88 4 -3 32 15 60 41 81 73 120 90 208 90 57 0 84 -5&#xA;115 -22 82 -43 127 -122 131 -228 4 -80 3 -80 94 -46 30 11 71 20 91 21 51 0&#xA;127 -25 179 -60 70 -46 105 -37 75 20 -39 76 -174 137 -279 126 l-61 -6 -17&#xA;58 c-32 107 -111 188 -217 219 -74 21 -191 13 -250 -17 -24 -12 -44 -20 -45&#xA;-18 -1 2 -10 32 -20 68 -30 111 -104 220 -185 272 -100 63 -257 85 -375 53z"/>
    <path d="M1032 3150 c-71 -10 -175 -38 -277 -74 l-70 -25 50 0 c28 -1 105 6&#xA;170 14 256 32 399 16 735 -81 209 -61 401 -68 590 -21 l95 23 -190 7 c-208 6&#xA;-248 13 -491 82 -87 25 -197 53 -244 61 -106 19 -285 26 -368 14z"/>
    <path d="M8085 3149 c-38 -4 -129 -21 -200 -37 -256 -60 -369 -64 -610 -22&#xA;-146 26 -351 27 -517 4 -62 -8 -114 -17 -116 -19 -8 -7 125 -21 343 -35 83 -5&#xA;193 -19 245 -30 124 -27 321 -36 431 -21 46 7 143 26 214 42 239 55 300 52&#xA;560 -32 211 -68 263 -79 407 -86 188 -9 385 24 518 87 l45 21 -60 -7 c-225&#xA;-25 -431 -24 -580 3 -49 8 -155 35 -235 58 -265 79 -310 86 -445 74z"/>
    <path d="M5110 3134 c-76 -16 -181 -52 -195 -66 -7 -7 14 -9 65 -4 329 27 401&#xA;20 635 -69 172 -64 259 -85 396 -92 106 -6 209 9 282 40 25 10 15 12 -75 13&#xA;-137 2 -229 22 -458 99 -104 35 -223 71 -264 80 -93 19 -296 19 -386 -1z"/>
    <path d="M2680 3115 c139 -47 353 -58 509 -25 51 10 95 20 96 22 2 2 -56 3&#xA;-128 3 -73 0 -220 4 -327 8 -182 6 -192 6 -150 -8z"/>
    <path d="M2560 2766 c-36 -8 -132 -30 -215 -50 -82 -19 -180 -41 -217 -47 -37&#xA;-7 -65 -16 -62 -21 3 -4 51 -8 107 -8 101 0 207 14 342 45 39 9 113 18 166 22&#xA;87 5 106 3 220 -27 141 -38 279 -46 359 -20 l45 14 -65 6 c-36 4 -130 26 -210&#xA;50 -132 38 -157 43 -275 46 -85 2 -153 -1 -195 -10z"/>
    <path d="M5610 2650 c-47 -10 -125 -29 -175 -43 -121 -34 -210 -54 -269 -63&#xA;-39 -5 -45 -9 -31 -17 33 -18 240 -1 393 32 187 41 278 41 422 1 58 -16 148&#xA;-40 200 -55 52 -14 131 -29 176 -32 86 -6 219 9 282 32 36 13 34 14 -59 14&#xA;-126 1 -185 13 -369 73 -85 28 -189 56 -230 64 -103 18 -238 16 -340 -6z"/>
    <path d="M7735 2619 c-128 -16 -300 -52 -340 -71 l-40 -18 180 7 c335 14 392&#xA;10 550 -32 284 -76 369 -85 573 -61 175 21 213 20 297 -5 185 -55 212 -61 300&#xA;-62 50 0 108 5 130 12 63 20 95 33 95 40 0 3 -42 6 -93 7 -107 1 -170 14 -287&#xA;61 -135 54 -194 60 -378 40 -86 -10 -180 -17 -209 -17 -58 0 -220 29 -328 59&#xA;-176 49 -294 59 -450 40z"/>
    <path d="M6590 2214 c-14 -3 -100 -23 -191 -45 -91 -21 -174 -39 -185 -40 -15&#xA;-1 -14 -3 6 -9 41 -13 171 -11 276 5 129 19 267 19 355 -1 38 -9 125 -35 193&#xA;-59 213 -76 357 -93 621 -74 193 13 372 11 457 -5 42 -8 148 -35 236 -60 254&#xA;-73 371 -89 592 -83 245 7 490 41 595 82 38 14 29 15 -150 10 -104 -3 -256 -8&#xA;-337 -11 -238 -10 -431 17 -688 97 -69 22 -161 46 -205 55 -93 17 -285 19&#xA;-460 5 -164 -14 -305 -13 -398 4 -43 7 -153 39 -245 71 l-167 57 -140 3 c-77&#xA;1 -151 0 -165 -2z"/>
    <path d="M1026 2097 c-19 -14 -19 -15 5 -23 33 -11 150 -7 162 5 18 18 -2 26&#xA;-76 29 -52 3 -77 -1 -91 -11z"/>
    <path d="M1407 2033 c-10 -3 -16 -10 -14 -16 4 -14 88 -21 126 -12 25 6 25 7&#xA;7 21 -19 13 -80 17 -119 7z"/>
    <path d="M1620 1440 c-12 -7 -12 -12 -2 -22 18 -18 163 -24 193 -8 22 12 22&#xA;13 4 26 -22 16 -171 19 -195 4z"/>
    <path d="M2035 1380 c-3 -5 0 -13 9 -16 21 -8 71 -1 71 11 0 14 -72 19 -80 5z"/>
    <path d="M7240 1131 c-19 -4 -35 -10 -35 -16 0 -13 75 -19 87 -7 15 15 -15 28&#xA;-52 23z"/>
    <path d="M7546 1027 c-17 -12 -17 -14 -1 -27 19 -16 169 -20 218 -7 33 9 31&#xA;28 -4 38 -45 13 -194 10 -213 -4z"/>
    <path d="M8042 869 c-34 -13 -17 -29 31 -29 52 0 80 15 57 30 -18 12 -57 12&#xA;-88 -1z"/>
    <path d="M3345 822 c-17 -4 -30 -14 -30 -22 0 -12 16 -16 74 -18 74 -3 105 8&#xA;85 28 -13 13 -92 20 -129 12z"/>
    <path d="M3783 750 c-36 -15 -27 -30 18 -30 45 0 83 16 74 31 -8 11 -62 11&#xA;-92 -1z"/>
    <path d="M5410 704 c-49 -9 -53 -13 -40 -29 16 -20 138 -21 165 -2 12 10 14&#xA;16 7 21 -15 9 -101 16 -132 10z"/>
    <path d="M5780 635 c0 -11 11 -15 39 -15 22 0 44 6 51 15 11 13 6 15 -39 15&#xA;-39 0 -51 -4 -51 -15z"/>
  </g>
  <title>Palma na plaży</title>
  <desc>Rozłożysta palma kokosowa rośnie na piaszczystej plaży. To symbol wakacji i beztroskiego odpoczynku. Pokoloruj pień na brązowo, a liście na soczyście zielono.</desc>
</svg>