<?xml version="1.0" encoding="UTF-8" standalone="yes"?>
<svg version="1.0" xmlns="http://www.w3.org/2000/svg" width="1024.000000pt" height="1024.000000pt" viewBox="0 0 1024.000000 1024.000000" preserveAspectRatio="xMidYMid meet">
  <metadata>
Created by potrace 1.16, written by Peter Selinger 2001-2019
</metadata>
  <g transform="translate(0.000000,1024.000000) scale(0.100000,-0.100000)" fill="#000000" stroke="none">
    <path d="M2310 9659 c-286 -17 -684 -125 -940 -254 -63 -32 -261 -148 -304&#xA;-178 -35 -25 -66 -93 -59 -128 3 -15 42 -72 88 -127 99 -120 179 -249 293&#xA;-472 132 -260 230 -397 386 -537 l58 -53 -96 0 c-52 0 -106 -5 -119 -11 -28&#xA;-13 -47 -48 -47 -88 0 -58 120 -202 285 -340 96 -80 371 -265 520 -349 107&#xA;-61 292 -141 394 -172 l74 -22 -64 -59 c-35 -32 -113 -89 -173 -125 -311 -189&#xA;-434 -285 -584 -458 -134 -155 -153 -180 -243 -331 -162 -272 -267 -587 -309&#xA;-921 -22 -171 -15 -365 21 -644 45 -342 259 -968 448 -1308 28 -52 88 -164&#xA;133 -250 268 -517 729 -1186 1091 -1584 257 -283 609 -546 865 -648 279 -110&#xA;457 -144 767 -145 185 0 223 3 315 23 587 132 1043 504 1858 1520 236 294 558&#xA;746 735 1033 221 359 398 771 497 1156 91 355 104 747 35 1090 -83 408 -269&#xA;753 -579 1071 l-81 82 72 0 c236 0 553 81 811 207 146 71 188 125 152 194 -15&#xA;26 -113 74 -212 103 l-82 24 79 40 c155 78 383 240 565 401 301 267 415 342&#xA;650 421 147 50 180 102 129 203 -51 101 -278 370 -400 474 -226 193 -350 281&#xA;-524 367 -156 77 -269 121 -392 151 l-72 17 62 41 c61 41 62 43 62 87 0 39 -4&#xA;47 -34 67 -155 104 -683 145 -937 73 -43 -13 -70 -16 -72 -10 -2 6 -17 17 -34&#xA;26 -49 26 -189 -1 -440 -82 -229 -75 -424 -183 -611 -339 -171 -143 -334 -334&#xA;-443 -520 -161 -275 -281 -577 -370 -934 l-29 -114 -70 -46 c-38 -25 -75 -49&#xA;-81 -53 -22 -14 101 487 166 677 80 235 310 670 540 1023 61 95 73 120 74 157&#xA;1 36 -5 49 -29 75 -112 118 -327 115 -510 -5 -139 -92 -262 -244 -374 -465&#xA;-75 -146 -99 -202 -181 -428 -65 -175 -68 -182 -75 -145 -14 80 -117 371 -168&#xA;477 -53 110 -211 354 -290 449 -68 80 -244 233 -352 304 -145 96 -336 193&#xA;-380 193 -49 0 -85 -39 -85 -91 0 -33 19 -136 36 -192 4 -13 -18 -1 -68 36&#xA;-213 159 -485 280 -748 333 -161 32 -401 45 -600 33z m438 -165 c280 -41 542&#xA;-139 757 -282 167 -111 261 -202 408 -394 28 -37 54 -65 58 -63 4 3 0 40 -8&#xA;82 -18 97 -103 480 -111 501 -3 10 23 0 74 -28 181 -98 372 -250 481 -382 220&#xA;-266 372 -615 448 -1026 l25 -134 -39 -202 c-21 -110 -51 -269 -67 -352 l-28&#xA;-152 -62 127 -62 126 -6 200 c-12 396 -77 680 -214 935 -41 78 -135 233 -153&#xA;254 -4 5 19 -55 51 -132 134 -321 220 -678 248 -1032 5 -58 8 -106 7 -108 -1&#xA;-1 -15 17 -31 40 -107 156 -357 420 -559 591 -164 139 -175 151 -175 182 0 41&#xA;-65 228 -108 309 -69 132 -166 263 -282 382 -119 124 -121 117 -11 -41 99&#xA;-140 142 -215 243 -420 54 -110 98 -203 98 -207 0 -3 -55 31 -123 77 -203 137&#xA;-478 285 -723 388 -121 51 -135 60 -195 122 -123 129 -311 263 -462 330 -61&#xA;27 -227 86 -227 81 0 -2 46 -27 103 -56 122 -62 235 -135 338 -217 89 -71 182&#xA;-153 174 -153 -3 0 -50 15 -103 34 -227 79 -563 137 -787 135 -133 0 -122 -6&#xA;91 -49 184 -36 388 -87 524 -128 72 -23 497 -186 507 -195 1 -1 -119 -2 -265&#xA;-2 -294 -1 -435 -18 -577 -70 l-70 -25 85 5 c196 12 936 15 980 5 55 -13 278&#xA;-133 421 -226 192 -125 431 -312 384 -300 -11 3 -70 14 -131 25 -326 58 -731&#xA;50 -1089 -23 l-120 -24 420 -1 c496 -1 698 -18 981 -82 l92 -20 99 -94 c54&#xA;-51 139 -139 188 -195 90 -101 235 -288 235 -302 0 -4 -29 11 -64 32 -96 59&#xA;-254 127 -369 160 -194 55 -264 64 -492 64 -198 0 -220 -2 -385 -34 -157 -30&#xA;-198 -34 -405 -39 l-230 -6 75 -18 c283 -66 404 -76 608 -51 218 28 528 26&#xA;680 -4 259 -52 426 -131 587 -277 l50 -46 -70 34 c-97 48 -232 91 -350 113&#xA;-148 28 -441 25 -585 -5 -187 -39 -288 -74 -443 -152 l-77 -39 -83 21 c-206&#xA;52 -428 149 -622 271 -146 92 -361 256 -457 348 l-83 79 255 2 c140 0 266 4&#xA;280 8 26 7 19 12 -265 175 -211 122 -325 255 -500 586 -118 222 -258 451 -323&#xA;528 l-53 63 23 20 c37 32 272 143 418 197 258 96 388 131 565 152 50 5 101 12&#xA;115 14 75 10 372 5 468 -10z m5417 -324 c119 -21 118 -14 19 -86 -111 -82&#xA;-134 -103 -134 -125 0 -29 26 -40 122 -49 248 -24 527 -132 793 -309 136 -90&#xA;179 -126 354 -296 112 -109 281 -304 281 -324 0 -5 -35 -21 -77 -36 -97 -33&#xA;-262 -119 -370 -192 -46 -30 -161 -121 -256 -202 -95 -80 -211 -176 -257 -212&#xA;-207 -162 -440 -288 -640 -348 -97 -29 -130 -44 -119 -55 4 -4 89 -29 428&#xA;-122 69 -19 126 -36 128 -38 7 -7 -244 -104 -347 -134 -58 -17 -143 -38 -190&#xA;-47 -100 -19 -352 -31 -431 -21 l-56 7 -42 75 c-65 113 -153 228 -269 346&#xA;-127 130 -239 212 -397 288 -202 98 -358 137 -584 147 l-134 6 28 21 c16 12&#xA;69 49 118 83 l89 61 52 -18 c75 -27 225 -90 353 -148 308 -142 626 -267 723&#xA;-286 29 -6 23 0 -35 32 -38 21 -146 80 -240 132 -192 106 -475 241 -638 305&#xA;l-109 43 143 75 c79 42 189 97 243 122 l100 46 105 -21 c348 -72 607 -188&#xA;1031 -464 69 -45 132 -86 140 -91 25 -15 -68 91 -128 146 -238 218 -608 405&#xA;-921 466 l-94 19 219 62 c120 35 267 72 325 84 l107 21 123 -27 c151 -34 275&#xA;-73 434 -136 126 -50 421 -185 443 -203 7 -5 14 -8 17 -6 6 6 -102 91 -177&#xA;140 -155 100 -395 202 -603 255 -26 7 -22 9 35 15 36 4 169 11 295 14 307 10&#xA;612 -14 890 -69 20 -4 13 2 -24 19 -213 101 -711 169 -1071 146 -80 -5 -146&#xA;-8 -148 -7 -1 2 144 74 323 161 178 87 323 160 321 162 -8 8 -279 -68 -367&#xA;-103 -161 -63 -272 -122 -385 -207 -48 -35 -62 -39 -200 -63 -190 -32 -521&#xA;-120 -681 -181 -17 -7 95 164 190 292 134 178 339 362 541 486 48 29 86 53 86&#xA;55 0 6 -139 -49 -215 -86 -135 -66 -234 -137 -355 -259 -132 -132 -210 -242&#xA;-298 -416 -57 -114 -62 -121 -104 -138 -23 -9 -123 -59 -220 -111 -202 -106&#xA;-189 -111 -136 49 33 101 200 446 276 572 27 45 71 108 98 139 46 55 47 57 14&#xA;34 -162 -114 -323 -344 -425 -608 -40 -105 -85 -264 -85 -303 0 -21 -11 -33&#xA;-60 -63 -87 -54 -206 -144 -278 -211 -43 -39 -75 -60 -100 -65 -20 -5 -52 -11&#xA;-70 -15 l-32 -8 58 169 c149 426 251 645 397 849 193 270 448 487 729 620 142&#xA;68 416 158 432 142 3 -3 -6 -22 -21 -41 -25 -34 -28 -66 -6 -66 6 0 45 15 88&#xA;34 89 39 167 61 292 81 99 17 446 13 546 -5z m-2189 -82 c3 -4 -50 -91 -119&#xA;-195 -280 -421 -453 -811 -577 -1298 -33 -129 -100 -489 -100 -537 0 -28 -90&#xA;-106 -165 -145 -38 -19 -82 -44 -96 -54 -27 -19 -27 -19 -33 6 -19 76 97 699&#xA;195 1047 79 281 203 599 303 777 168 298 341 432 533 411 29 -3 55 -9 59 -12z&#xA;m208 -1778 c174 -17 378 -84 538 -176 153 -88 343 -271 450 -434 164 -248 280&#xA;-600 295 -896 l6 -122 -69 33 c-90 43 -214 83 -416 135 -385 99 -443 118 -653&#xA;220 -246 120 -478 292 -754 558 -108 104 -214 201 -236 215 -22 15 -71 34&#xA;-109 44 l-69 17 74 33 c164 75 281 98 452 91 377 -18 752 -226 1222 -679 l129&#xA;-124 -65 84 c-216 283 -486 518 -743 648 -319 160 -621 191 -881 88 -20 -8&#xA;-20 -8 -1 13 26 30 150 114 221 150 101 50 244 89 390 106 60 6 122 5 219 -4z&#xA;m-2089 -200 c66 -10 154 -28 195 -39 90 -23 271 -89 285 -104 7 -7 4 -7 -10&#xA;-2 -11 5 -90 10 -176 13 -415 11 -815 -121 -1222 -404 -100 -69 -250 -189&#xA;-255 -205 -2 -5 25 9 60 30 140 84 442 249 583 317 315 152 550 206 820 189&#xA;118 -7 129 -13 66 -34 -116 -39 -294 -192 -366 -316 -34 -58 -51 -76 -115&#xA;-118 -150 -98 -400 -203 -612 -257 -43 -11 -176 -40 -296 -65 -283 -57 -457&#xA;-118 -591 -206 l-34 -23 7 60 c20 165 89 343 218 561 65 111 209 261 327 342&#xA;335 229 738 323 1116 261z m680 -283 c71 -28 71 -28 26 -88 -147 -193 -242&#xA;-519 -240 -819 l1 -125 19 100 c55 296 141 563 226 708 86 147 215 247 300&#xA;234 68 -11 158 -64 216 -127 77 -83 101 -147 101 -270 0 -85 -4 -103 -32 -170&#xA;-96 -221 -199 -360 -502 -675 -111 -115 -238 -258 -283 -317 l-81 -106 -31 26&#xA;c-81 71 -210 255 -275 395 -83 176 -121 339 -122 517 0 227 70 393 228 540 96&#xA;89 182 138 304 171 76 21 104 22 145 6z m-2329 -404 c-76 -151 -129 -355 -142&#xA;-548 -8 -105 7 -150 53 -161 29 -8 26 -9 183 83 87 51 209 105 290 129 25 7&#xA;146 34 268 59 348 71 568 136 759 225 l101 48 -5 -112 c-16 -353 144 -723 455&#xA;-1048 103 -108 152 -115 207 -28 40 63 190 231 373 417 298 303 413 449 503&#xA;638 44 94 79 212 79 270 0 23 9 18 113 -66 172 -139 446 -317 619 -403 177&#xA;-87 260 -116 539 -186 237 -60 462 -132 573 -184 43 -20 86 -36 96 -36 23 0&#xA;58 40 71 81 24 80 8 362 -32 558 -10 51 -19 96 -19 99 0 5 75 -75 170 -183&#xA;203 -230 360 -584 417 -940 24 -148 23 -461 -1 -635 -58 -421 -240 -899 -517&#xA;-1357 -241 -398 -672 -989 -989 -1357 -384 -444 -701 -755 -930 -908 -288&#xA;-194 -501 -265 -822 -275 -483 -15 -855 109 -1238 413 -117 93 -397 375 -510&#xA;514 -202 249 -489 649 -631 880 -294 478 -596 1090 -719 1458 -46 138 -95 339&#xA;-126 517 -25 142 -28 185 -28 385 -1 296 22 449 106 695 54 160 172 398 257&#xA;521 51 73 191 240 248 296 53 52 256 217 261 213 2 -2 -12 -34 -32 -72z"/>
    <path d="M3276 5655 c-52 -18 -128 -94 -166 -166 -35 -67 -70 -193 -70 -255 0&#xA;-128 51 -214 127 -214 96 0 223 127 284 285 39 101 47 176 25 242 -19 57 -45&#xA;85 -98 108 -45 18 -52 18 -102 0z m90 -117 c26 -50 15 -152 -26 -236 -37 -74&#xA;-132 -182 -162 -182 -58 0 -46 185 21 318 32 64 100 132 131 132 12 0 26 -12&#xA;36 -32z"/>
    <path d="M5793 5630 c-111 -57 -158 -253 -104 -430 50 -162 135 -270 213 -270&#xA;56 0 93 23 124 77 116 197 88 489 -58 606 -50 40 -117 47 -175 17z m116 -112&#xA;c73 -67 102 -244 63 -375 -23 -75 -46 -113 -67 -113 -8 0 -27 19 -43 43 -106&#xA;155 -109 467 -4 467 16 0 39 -10 51 -22z"/>
    <path d="M2092 5554 c-77 -39 -160 -175 -188 -306 -36 -169 12 -340 102 -362&#xA;60 -16 153 69 222 202 94 179 97 399 8 457 -38 25 -104 29 -144 9z m84 -105&#xA;c29 -33 31 -131 3 -224 -32 -110 -128 -249 -158 -231 -6 4 -15 23 -21 44 -32&#xA;118 23 329 107 403 40 35 44 35 69 8z"/>
    <path d="M7039 5257 c-55 -36 -83 -105 -87 -213 -5 -111 13 -188 68 -300 42&#xA;-86 99 -148 147 -160 42 -11 104 16 130 55 61 91 77 287 34 419 -59 180 -188&#xA;268 -292 199z m140 -134 c42 -51 62 -113 68 -213 6 -86 -14 -202 -38 -225 -16&#xA;-15 -65 47 -105 132 -61 130 -70 288 -18 340 29 29 47 22 93 -34z"/>
    <path d="M3805 4771 c-67 -17 -107 -55 -156 -154 -93 -183 -72 -469 42 -572&#xA;102 -91 216 5 290 245 31 99 33 268 6 348 -23 64 -60 110 -104 128 -35 15 -35&#xA;15 -78 5z m78 -167 c13 -38 17 -75 14 -169 -2 -112 -4 -125 -34 -188 -69 -146&#xA;-102 -162 -137 -67 -15 43 -20 81 -20 170 -1 156 30 262 90 309 24 19 30 20&#xA;48 8 12 -8 29 -36 39 -63z"/>
    <path d="M2535 4748 c-48 -28 -99 -108 -114 -180 -37 -170 15 -414 106 -500&#xA;94 -89 186 -42 238 124 31 99 43 252 26 343 -34 181 -147 276 -256 213z m111&#xA;-122 c60 -106 64 -324 9 -444 -29 -62 -47 -65 -82 -13 -42 62 -58 136 -58 261&#xA;0 120 11 169 47 215 28 36 57 29 84 -19z"/>
    <path d="M7734 4728 c-68 -53 -96 -117 -126 -283 -27 -153 -21 -286 17 -351&#xA;44 -75 95 -81 164 -19 104 94 179 352 150 511 -14 77 -31 108 -76 139 -46 31&#xA;-91 32 -129 3z m94 -121 c18 -37 16 -170 -3 -253 -16 -69 -48 -137 -90 -189&#xA;l-24 -29 -11 29 c-8 20 -10 73 -7 155 8 226 86 390 135 287z"/>
    <path d="M5069 4717 c-70 -47 -118 -145 -140 -291 -14 -86 -5 -165 28 -270 29&#xA;-94 64 -151 112 -183 40 -27 61 -29 107 -7 96 46 185 300 168 484 -11 124 -68&#xA;241 -135 275 -42 22 -100 19 -140 -8z m137 -153 c32 -66 43 -184 24 -276 -16&#xA;-84 -56 -181 -85 -208 l-23 -22 -17 25 c-75 115 -88 374 -24 499 38 74 83 67&#xA;125 -18z"/>
    <path d="M6424 4521 c-62 -38 -101 -115 -131 -260 -19 -94 -14 -260 12 -350&#xA;23 -81 76 -141 124 -141 119 0 237 201 248 425 7 124 -8 199 -50 262 -52 78&#xA;-136 105 -203 64z m99 -109 c53 -59 70 -232 33 -342 -34 -102 -101 -201 -125&#xA;-186 -15 10 -39 95 -46 166 -7 70 7 200 30 278 27 89 72 124 108 84z"/>
    <path d="M2113 3873 c-41 -39 -57 -98 -50 -193 14 -182 131 -410 238 -465 33&#xA;-17 82 -19 110 -5 95 51 56 362 -72 576 -44 73 -87 106 -147 112 -42 4 -51 1&#xA;-79 -25z m121 -116 c32 -42 81 -160 106 -256 20 -76 27 -191 12 -191 -5 0 -27&#xA;19 -50 41 -78 79 -142 239 -142 353 0 91 29 112 74 53z"/>
    <path d="M3139 3697 c-55 -36 -83 -105 -87 -217 -5 -113 13 -199 61 -303 80&#xA;-171 197 -243 277 -169 84 76 82 401 -4 570 -66 131 -161 177 -247 119z m103&#xA;-96 c60 -47 108 -203 107 -346 0 -106 -15 -160 -44 -160 -29 0 -89 93 -122&#xA;189 -35 102 -40 263 -10 309 21 32 36 34 69 8z"/>
    <path d="M7058 3671 c-60 -38 -117 -115 -172 -231 -69 -149 -94 -294 -66 -377&#xA;21 -60 99 -73 173 -29 55 32 144 127 190 203 77 127 112 316 72 393 -39 75&#xA;-117 92 -197 41z m102 -86 c19 -23 7 -136 -23 -217 -13 -38 -44 -93 -68 -125&#xA;-42 -54 -131 -133 -150 -133 -26 0 9 181 56 285 35 80 91 161 128 184 39 25&#xA;41 25 57 6z"/>
    <path d="M4442 3641 c-74 -20 -152 -147 -174 -283 -9 -58 -9 -96 0 -158 30&#xA;-208 116 -339 215 -326 49 6 81 35 118 108 91 180 98 453 15 576 -44 66 -114&#xA;99 -174 83z m90 -161 c54 -109 45 -308 -20 -440 -34 -69 -57 -73 -90 -13 -52&#xA;94 -65 258 -32 388 36 139 93 165 142 65z"/>
    <path d="M5645 3531 c-105 -63 -175 -247 -176 -456 0 -185 41 -265 133 -265&#xA;83 0 147 58 216 195 81 162 100 332 48 438 -35 73 -82 107 -146 107 -26 0 -58&#xA;-8 -75 -19z m105 -101 c30 -30 40 -64 40 -133 -1 -121 -51 -258 -125 -344 -69&#xA;-81 -90 -50 -89 127 0 133 14 200 60 292 23 46 56 78 81 78 7 0 22 -9 33 -20z"/>
    <path d="M2780 2768 c-74 -39 -91 -151 -44 -294 87 -267 274 -435 373 -336 66&#xA;65 43 247 -55 433 -81 153 -197 237 -274 197z m108 -133 c66 -59 146 -239 159&#xA;-355 8 -81 -6 -83 -76 -12 -79 81 -151 225 -159 318 -4 50 -2 68 9 75 21 13&#xA;26 12 67 -26z"/>
    <path d="M6173 2690 c-52 -26 -146 -127 -192 -203 -80 -135 -124 -344 -87&#xA;-415 61 -117 244 -29 379 183 80 127 120 259 103 347 -3 19 -19 49 -34 67 -37&#xA;45 -106 53 -169 21z m107 -123 c0 -79 -86 -270 -159 -350 -42 -47 -108 -97&#xA;-128 -97 -20 0 -16 81 8 152 25 74 72 171 106 216 36 48 121 112 149 112 21 0&#xA;24 -5 24 -33z"/>
    <path d="M3830 2617 c-34 -17 -67 -70 -87 -136 -35 -121 12 -340 102 -476 83&#xA;-125 193 -136 247 -27 30 63 37 251 14 361 -18 86 -60 181 -101 230 -47 55&#xA;-120 76 -175 48z m92 -114 c28 -32 65 -116 83 -187 26 -107 17 -281 -16 -302&#xA;-30 -18 -104 113 -138 245 -36 144 -22 261 32 261 13 0 31 -8 39 -17z"/>
    <path d="M4969 2487 c-50 -33 -112 -132 -145 -233 -25 -77 -29 -104 -29 -199&#xA;0 -168 36 -248 117 -261 46 -8 84 13 140 75 93 103 150 257 152 406 0 67 -4&#xA;90 -26 138 -23 48 -34 61 -70 77 -57 26 -98 25 -139 -3z m113 -117 c23 -44 24&#xA;-145 3 -224 -32 -122 -137 -278 -167 -248 -17 17 -23 191 -8 265 25 131 94&#xA;253 137 245 10 -2 26 -19 35 -38z"/>
    <path d="M3525 1742 c-46 -29 -69 -88 -61 -155 12 -93 64 -185 162 -287 118&#xA;-122 190 -154 264 -115 38 20 50 43 50 97 -1 154 -134 382 -262 449 -58 30&#xA;-117 34 -153 11z m163 -139 c62 -67 138 -213 147 -285 8 -61 -5 -62 -72 -9&#xA;-126 99 -218 258 -192 329 16 41 57 29 117 -35z"/>
    <path d="M5443 1699 c-44 -13 -132 -96 -188 -177 -52 -76 -105 -216 -105 -277&#xA;0 -174 118 -195 273 -47 147 141 233 352 178 439 -35 56 -96 80 -158 62z m65&#xA;-140 c4 -42 -24 -109 -76 -187 -61 -89 -160 -177 -178 -159 -13 12 16 122 50&#xA;192 60 124 130 199 181 193 15 -2 21 -12 23 -39z"/>
    <path d="M4417 1560 c-123 -108 -113 -432 18 -588 49 -58 117 -62 172 -10 87&#xA;82 96 370 15 528 -50 100 -138 130 -205 70z m115 -116 c45 -77 61 -260 30&#xA;-349 -21 -61 -45 -66 -79 -16 -37 54 -48 108 -48 226 0 87 4 117 18 143 23 42&#xA;53 40 79 -4z"/>
  </g>
  <title>Strawberry Leaves</title>
  <desc>Strawberry Leaves</desc>
</svg>