<?xml version="1.0" encoding="UTF-8" standalone="yes"?>
<svg version="1.0" xmlns="http://www.w3.org/2000/svg" width="1024.000000pt" height="1024.000000pt" viewBox="0 0 1024.000000 1024.000000" preserveAspectRatio="xMidYMid meet">
  <metadata>
Created by potrace 1.16, written by Peter Selinger 2001-2019
</metadata>
  <g transform="translate(0.000000,1024.000000) scale(0.100000,-0.100000)" fill="#000000" stroke="none">
    <path d="M5082 9975 c-101 -47 -223 -188 -307 -355 -90 -178 -122 -310 -132&#xA;-527 l-6 -152 -38 65 c-185 316 -492 589 -765 682 -260 88 -443 28 -505 -167&#xA;-27 -84 -37 -292 -20 -413 16 -113 54 -253 90 -332 16 -36 27 -66 23 -66 -4 0&#xA;-18 10 -32 21 -143 116 -380 226 -557 258 -175 32 -381 -2 -467 -78 -57 -50&#xA;-79 -173 -52 -281 42 -165 215 -453 386 -642 41 -45 67 -79 57 -75 -37 14&#xA;-174 46 -262 61 -360 63 -754 -52 -873 -254 -24 -39 -27 -56 -27 -130 0 -80 3&#xA;-92 39 -165 87 -176 343 -372 608 -465 79 -28 89 -40 34 -40 -40 0 -206 -43&#xA;-277 -70 -247 -98 -475 -282 -559 -454 -34 -68 -44 -99 -48 -155 -4 -62 -1&#xA;-77 22 -125 55 -112 200 -207 396 -260 116 -31 342 -59 450 -54 44 2 80 1 79&#xA;-2 0 -3 -39 -30 -85 -60 -105 -68 -289 -254 -367 -372 -204 -306 -232 -588&#xA;-70 -699 166 -114 577 -85 878 62 45 21 84 39 88 39 4 0 -8 -21 -27 -47 -85&#xA;-121 -181 -359 -206 -515 -18 -111 -9 -288 19 -359 59 -155 189 -213 388 -176&#xA;212 40 431 166 621 355 46 46 81 75 78 64 -40 -125 -55 -367 -32 -500 55 -313&#xA;213 -460 427 -398 182 53 409 273 544 526 l40 75 6 -70 c20 -213 103 -412 225&#xA;-544 53 -57 138 -111 176 -111 23 0 23 0 -12 -139 -73 -291 -129 -446 -320&#xA;-891 -102 -238 -149 -352 -196 -480 -3 -9 -15 15 -28 55 -13 39 -35 97 -50&#xA;130 -24 54 -28 78 -36 230 -10 181 -19 254 -51 377 -99 393 -325 682 -669 857&#xA;-279 142 -536 179 -955 136 -193 -19 -407 -19 -520 0 -96 17 -205 59 -275 105&#xA;-25 16 -55 30 -67 30 -104 0 -48 -341 106 -645 212 -417 502 -699 931 -904&#xA;273 -130 489 -171 893 -171 236 0 267 -5 324 -47 98 -72 240 -382 259 -563 4&#xA;-36 -1 -92 -14 -160 -11 -58 -23 -132 -27 -165 l-8 -60 -13 38 c-25 70 -138&#xA;280 -170 313 -22 24 -36 32 -52 27 -30 -7 -36 -38 -29 -156 4 -55 5 -98 3 -96&#xA;-2 2 -37 54 -77 114 -82 123 -239 288 -330 348 -71 46 -141 66 -163 48 -40&#xA;-34 -14 -114 131 -405 126 -252 125 -249 61 -190 -154 139 -451 270 -639 281&#xA;-71 5 -88 3 -102 -11 -39 -40 -18 -69 126 -167 105 -73 285 -219 347 -283 47&#xA;-49 47 -55 0 -31 -35 18 -198 61 -288 76 -89 14 -281 14 -326 -1 -44 -14 -61&#xA;-41 -45 -71 9 -18 49 -40 139 -76 20 -8 4 -12 -90 -22 -190 -20 -353 -42 -380&#xA;-51 -15 -5 104 -9 296 -9 176 -1 357 -6 402 -12 44 -6 88 -9 97 -7 27 5 -127&#xA;92 -245 139 -58 23 -108 45 -112 48 -14 12 248 -7 327 -24 118 -24 275 -79&#xA;374 -130 48 -25 90 -45 94 -45 18 0 1 26 -72 117 -108 135 -263 282 -411 392&#xA;-69 51 -127 96 -130 99 -3 2 17 2 43 -1 110 -15 360 -122 475 -204 85 -60 210&#xA;-186 287 -289 81 -108 78 -106 72 -47 -8 68 -47 160 -215 503 -141 288 -168&#xA;350 -153 350 19 0 131 -83 197 -147 136 -132 262 -322 369 -559 30 -68 55&#xA;-128 55 -134 0 -5 4 -10 9 -10 4 0 7 10 5 22 -2 13 -15 95 -29 182 -14 88 -28&#xA;200 -31 250 l-5 91 27 -50 c57 -106 154 -337 174 -416 27 -107 37 -126 55&#xA;-108 9 10 15 61 20 164 17 423 103 735 380 1385 213 500 258 623 321 890 44&#xA;184 43 180 58 180 7 0 40 14 74 31 149 74 288 291 333 518 18 94 30 56 34&#xA;-112 5 -235 -22 -450 -91 -737 -50 -201 -125 -421 -269 -784 -268 -677 -328&#xA;-920 -329 -1333 -1 -169 1 -194 16 -209 28 -28 61 -5 108 78 180 312 339 508&#xA;526 649 51 38 95 69 98 69 3 0 -10 -28 -28 -63 -80 -146 -236 -563 -253 -672&#xA;-5 -38 -1 -33 75 74 103 147 188 240 304 333 208 167 465 288 612 288 l41 0&#xA;-116 -118 c-237 -241 -376 -412 -459 -561 -52 -96 -41 -110 37 -44 207 177&#xA;454 310 682 369 147 38 157 34 75 -28 -78 -59 -247 -227 -305 -304 -34 -44&#xA;-50 -84 -34 -84 3 0 51 23 108 51 133 67 254 113 347 133 83 17 221 26 214 14&#xA;-3 -4 -11 -8 -18 -8 -23 0 -152 -98 -187 -141 l-33 -42 39 7 c122 22 200 27&#xA;385 25 376 -4 418 2 240 35 -124 22 -315 37 -400 31 l-75 -5 72 34 c56 27 74&#xA;40 79 60 16 66 -20 80 -191 73 -118 -4 -141 -8 -249 -44 l-119 -40 54 51 c30&#xA;28 70 63 89 77 127 97 140 109 140 138 0 54 -43 66 -175 49 -133 -17 -380&#xA;-117 -534 -215 l-53 -34 48 62 c27 34 136 151 242 260 105 109 192 204 192&#xA;213 0 42 -64 62 -164 52 -218 -22 -491 -166 -703 -370 l-103 -98 22 53 c12 30&#xA;64 136 115 236 93 183 110 237 77 250 -27 10 -86 -15 -184 -78 -155 -101 -315&#xA;-271 -465 -494 l-67 -100 7 65 c16 145 99 380 198 563 100 182 270 368 443&#xA;483 l89 59 85 0 c79 -1 101 -6 295 -72 319 -108 372 -118 655 -118 210 0 246&#xA;2 340 23 330 74 618 246 902 541 197 203 329 385 508 697 93 162 114 209 108&#xA;245 -6 41 -30 45 -125 25 -49 -11 -146 -21 -218 -24 -159 -5 -274 14 -575 93&#xA;-287 76 -315 80 -545 79 -171 0 -214 -3 -295 -23 -341 -80 -599 -220 -825&#xA;-446 -150 -149 -251 -290 -351 -489 -124 -245 -145 -277 -221 -337 -38 -29&#xA;-109 -93 -160 -142 l-92 -89 95 238 c118 298 183 491 240 712 63 246 124 618&#xA;124 757 l0 46 87 -92 c94 -99 168 -154 269 -201 340 -159 534 9 534 464 0 112&#xA;-12 224 -34 308 -7 27 -13 50 -12 50 1 0 33 -30 71 -66 196 -184 466 -330 685&#xA;-370 116 -21 255 -18 310 7 92 42 150 124 171 245 16 91 6 295 -20 399 -44&#xA;181 -137 381 -219 475 -26 29 -42 51 -37 49 6 -2 43 -21 83 -42 130 -67 325&#xA;-130 487 -157 91 -15 328 -15 402 0 233 48 317 199 255 460 -45 188 -143 359&#xA;-292 511 -97 98 -165 151 -273 213 l-76 43 147 6 c230 9 424 53 598 138 177&#xA;86 264 195 265 329 1 142 -96 297 -266 423 -194 144 -479 243 -717 248 -38 1&#xA;-68 5 -68 10 0 5 6 9 13 9 26 0 194 89 297 157 285 189 475 382 526 535 28 83&#xA;25 163 -8 220 -59 100 -184 177 -365 225 -87 23 -118 26 -273 27 -111 1 -201&#xA;-4 -245 -13 -78 -15 -185 -43 -228 -60 -16 -6 -31 -11 -34 -11 -2 0 23 30 57&#xA;68 280 305 390 747 227 916 -179 186 -729 51 -1096 -268 -36 -31 -66 -54 -68&#xA;-53 -2 2 4 24 12 48 99 280 114 684 31 848 -56 110 -120 154 -226 154 -291 2&#xA;-681 -328 -899 -758 l-51 -100 0 80 c0 221 -78 488 -202 694 -62 101 -183 232&#xA;-242 261 -60 29 -146 27 -214 -5z m199 -93 c152 -97 298 -370 355 -667 36&#xA;-183 22 -446 -37 -699 l-21 -88 -47 6 c-25 3 -106 9 -178 13 l-133 6 -1 81 c0&#xA;45 -2 88 -3 96 -2 8 -6 92 -10 185 -3 94 -12 244 -19 335 -12 163 -12 164 -19&#xA;90 -4 -41 -6 -235 -4 -430 l3 -355 -71 -2 c-39 -2 -111 -8 -160 -13 -49 -6&#xA;-91 -9 -93 -6 -10 9 -83 271 -100 354 -23 118 -23 364 1 485 32 167 103 327&#xA;203 463 123 165 229 212 334 146z m1481 -188 c153 -78 168 -503 32 -903 -49&#xA;-142 -180 -379 -266 -481 -53 -62 -171 -180 -180 -180 -5 0 -28 13 -51 29 -23&#xA;15 -88 52 -144 80 -57 28 -103 55 -103 60 0 21 75 253 107 330 38 91 141 300&#xA;194 391 43 75 31 61 -62 -72 -104 -147 -198 -335 -250 -501 -23 -72 -43 -133&#xA;-44 -135 -2 -2 -20 4 -41 13 -22 9 -91 30 -154 47 -63 16 -116 31 -118 33 -1&#xA;1 7 46 18 101 99 484 336 866 676 1090 167 110 297 143 386 98z m-3016 -74&#xA;c330 -84 680 -417 872 -830 42 -92 113 -284 126 -345 l7 -31 -98 -23 c-54 -13&#xA;-126 -35 -161 -49 -35 -13 -64 -23 -66 -21 -2 2 -34 65 -72 139 -90 176 -263&#xA;435 -353 530 -71 74 -72 74 -33 20 137 -194 402 -656 402 -703 0 -7 -43 -34&#xA;-96 -60 -53 -26 -127 -68 -165 -93 -69 -46 -69 -46 -96 -28 -46 29 -211 194&#xA;-291 289 -241 287 -353 585 -339 900 13 284 114 368 363 305z m4184 -575 c90&#xA;-53 118 -157 85 -316 -46 -230 -183 -451 -393 -635 -95 -84 -335 -245 -544&#xA;-366 -73 -43 -146 -86 -161 -95 -28 -18 -28 -18 -55 17 -15 19 -62 74 -105&#xA;123 l-78 87 37 53 c129 178 402 463 531 553 82 57 95 68 68 57 -160 -66 -389&#xA;-265 -581 -508 -47 -61 -90 -111 -93 -113 -10 -3 -181 148 -181 159 0 11 193&#xA;301 269 404 200 273 532 497 866 586 100 26 285 23 335 -6z m-5114 -140 c116&#xA;-21 273 -85 402 -166 152 -94 312 -238 535 -480 l198 -214 -53 -45 c-29 -25&#xA;-81 -72 -116 -104 -37 -36 -66 -56 -71 -50 -5 5 -37 45 -72 89 -105 134 -160&#xA;193 -248 267 -75 64 -263 188 -283 188 -5 0 35 -35 89 -79 193 -155 340 -309&#xA;450 -471 l31 -45 -77 -95 c-42 -52 -83 -106 -92 -120 l-16 -24 -64 40 c-35 22&#xA;-113 67 -174 99 -266 142 -426 268 -576 457 -115 144 -246 376 -274 485 -8 32&#xA;-15 82 -15 112 0 50 3 57 38 90 35 33 92 57 177 75 45 9 127 5 211 -9z m2659&#xA;-555 c302 -44 595 -150 811 -293 301 -199 556 -481 707 -783 49 -97 132 -346&#xA;156 -469 60 -299 49 -608 -33 -890 -88 -301 -227 -541 -463 -795 -253 -272&#xA;-676 -486 -1088 -550 -169 -26 -474 -37 -620 -21 -251 27 -480 89 -668 180&#xA;-120 59 -291 168 -393 251 -244 201 -482 554 -574 854 -149 489 -111 974 114&#xA;1442 66 137 134 240 242 365 288 332 649 574 980 658 75 19 284 55 369 65 63&#xA;7 383 -3 460 -14z m2979 -275 c161 -28 301 -98 353 -176 23 -35 27 -52 26 -99&#xA;-2 -107 -72 -214 -231 -355 -189 -167 -405 -302 -627 -390 -103 -41 -318 -91&#xA;-470 -110 -27 -4 -103 -16 -169 -26 -65 -11 -119 -19 -120 -17 -1 2 -13 41&#xA;-26 88 -13 47 -34 111 -47 144 -12 32 -20 62 -18 66 12 20 271 184 370 235&#xA;143 74 259 120 480 190 99 31 185 58 190 60 6 2 2 4 -8 4 -31 2 -350 -76 -447&#xA;-109 -126 -42 -347 -154 -493 -250 l-118 -78 -40 81 c-23 44 -52 98 -65 118&#xA;-13 21 -21 45 -18 53 16 42 225 203 403 310 263 158 440 227 701 269 65 11&#xA;295 6 374 -8z m-5904 -195 c149 -31 292 -80 444 -154 146 -72 223 -119 343&#xA;-212 l82 -64 -63 -123 c-35 -68 -65 -129 -67 -136 -3 -9 -31 5 -84 42 -223&#xA;153 -523 262 -745 272 l-105 5 135 -29 c265 -57 463 -140 673 -281 l106 -71&#xA;-18 -47 c-10 -26 -29 -87 -41 -137 -13 -49 -26 -93 -30 -98 -14 -16 -674 118&#xA;-835 170 -288 92 -550 275 -633 442 -37 75 -43 159 -16 217 43 90 204 175 424&#xA;223 73 16 311 6 430 -19z m5811 -1004 c294 -78 546 -244 633 -417 66 -132 57&#xA;-205 -36 -297 -151 -150 -485 -237 -873 -227 -170 5 -244 16 -535 79 -328 72&#xA;-312 67 -306 90 6 28 25 208 29 271 l2 50 125 24 c103 19 161 23 330 24 227 2&#xA;333 -9 504 -54 61 -15 112 -27 113 -25 5 5 -181 75 -242 91 -110 29 -329 48&#xA;-475 41 -119 -5 -166 -11 -321 -41 l-36 -7 -6 74 c-4 40 -9 100 -13 134 l-6&#xA;61 87 37 c240 103 471 140 790 124 100 -5 167 -14 236 -32z m-5589 -46 c117&#xA;-24 188 -47 306 -97 83 -36 84 -36 78 -67 -4 -17 -9 -76 -12 -131 -3 -55 -7&#xA;-105 -9 -111 -3 -9 -20 -8 -67 1 -92 19 -340 36 -438 30 -118 -7 -158 -13&#xA;-290 -40 -117 -24 -238 -59 -173 -50 294 41 682 46 876 10 l97 -18 0 -48 c0&#xA;-42 12 -157 25 -230 l4 -27 -247 -61 c-357 -88 -395 -94 -632 -97 -224 -3&#xA;-323 8 -472 51 -175 49 -313 144 -337 230 -34 125 90 317 302 463 267 184 656&#xA;260 989 192z m4890 -925 c152 -28 238 -56 373 -120 248 -119 444 -302 554&#xA;-515 73 -143 95 -218 96 -326 0 -83 -2 -94 -28 -133 -72 -109 -322 -148 -605&#xA;-95 -326 60 -785 309 -1029 556 l-73 73 36 59 c20 33 51 90 69 127 l34 67 93&#xA;-35 c248 -91 393 -154 565 -245 103 -55 209 -113 236 -129 81 -49 66 -32 -44&#xA;49 -211 157 -387 246 -714 364 -60 21 -111 40 -113 42 -1 2 11 38 28 81 17 42&#xA;39 107 49 144 l18 66 44 5 c71 8 264 -8 411 -35z m-4423 -121 c23 -70 40 -128&#xA;39 -129 -2 -2 -55 -19 -118 -38 -315 -95 -518 -204 -690 -367 -58 -55 -65 -64&#xA;-30 -40 245 174 467 284 729 361 74 21 136 38 137 36 1 -1 15 -31 31 -67 16&#xA;-36 42 -85 57 -109 l28 -44 -54 -54 c-118 -121 -404 -349 -561 -447 -218 -136&#xA;-480 -209 -716 -199 -161 6 -229 35 -268 113 -62 121 -3 332 153 549 153 213&#xA;334 355 569 444 197 75 382 114 551 116 l101 1 42 -126z m312 -586 c23 -29 62&#xA;-75 86 -102 l45 -50 -28 -20 c-58 -42 -182 -156 -226 -208 -81 -95 -199 -262&#xA;-230 -323 -34 -66 -98 -213 -98 -223 0 -4 27 39 60 96 96 165 165 260 295 406&#xA;66 74 211 208 246 226 15 9 50 -17 213 -153 l39 -33 -23 -69 c-51 -157 -148&#xA;-334 -271 -497 -206 -274 -520 -477 -764 -495 -141 -10 -209 26 -248 133 -95&#xA;254 76 733 366 1025 141 142 402 321 494 339 2 0 21 -24 44 -52z m3390 -38&#xA;c110 -54 309 -198 443 -321 116 -106 222 -272 280 -440 45 -134 59 -215 60&#xA;-359 1 -131 0 -137 -30 -201 -35 -73 -67 -100 -147 -120 -100 -25 -354 34&#xA;-507 117 -100 55 -249 157 -314 215 -148 133 -292 329 -396 539 -56 112 -61&#xA;125 -45 135 9 5 65 41 123 79 59 38 112 71 119 73 15 6 218 -165 359 -303 61&#xA;-60 157 -165 214 -234 124 -150 130 -156 100 -105 -42 72 -122 189 -170 250&#xA;-55 69 -251 262 -360 354 -41 35 -79 67 -84 72 -6 5 22 40 70 87 43 42 103&#xA;106 133 140 61 70 56 69 152 22z m-2718 -496 c72 -37 133 -68 135 -69 2 -2&#xA;-12 -34 -31 -72 -137 -271 -217 -526 -240 -768 -6 -58 -7 -61 53 158 47 172&#xA;105 326 200 524 l68 143 43 -15 c39 -14 176 -52 253 -69 27 -7 28 -9 22 -50&#xA;-12 -78 -104 -439 -131 -516 -63 -174 -162 -331 -291 -461 -161 -164 -310&#xA;-230 -417 -185 -74 31 -146 149 -179 296 -42 187 17 553 127 775 71 145 222&#xA;375 246 375 5 0 69 -30 142 -66z m1928 -49 c104 -70 274 -354 328 -545 69&#xA;-248 65 -519 -11 -668 -41 -81 -70 -104 -142 -110 -167 -14 -374 108 -527 310&#xA;-153 203 -219 431 -231 792 l-3 89 104 18 c57 10 110 20 117 23 8 3 20 -13 33&#xA;-47 58 -155 74 -195 136 -332 63 -142 195 -398 202 -391 2 1 -42 115 -98 252&#xA;-101 249 -211 536 -206 539 5 3 252 93 257 94 3 1 22 -10 41 -24z m-1124 -161&#xA;c53 -4 80 -11 78 -18 -13 -37 -36 -334 -36 -457 0 -129 18 -395 27 -386 2 1 4&#xA;95 5 207 1 113 6 252 11 310 9 116 36 331 41 337 2 2 66 7 143 11 98 6 141 6&#xA;146 -2 21 -32 62 -284 73 -447 8 -112 -9 -301 -36 -408 -10 -42 -42 -123 -70&#xA;-181 -83 -168 -200 -270 -311 -270 -51 0 -99 29 -169 99 -79 81 -143 202 -181&#xA;341 -20 76 -23 108 -23 295 0 235 9 288 82 485 l38 102 50 -6 c27 -3 87 -8&#xA;132 -12z m-3046 -1131 c166 -79 389 -101 690 -67 99 11 240 18 354 19 162 0&#xA;205 -3 290 -22 119 -27 226 -67 348 -130 386 -199 621 -587 652 -1073 l7 -105&#xA;-68 100 c-70 103 -321 366 -361 379 -14 4 -35 38 -64 103 -61 135 -133 258&#xA;-188 321 -25 30 -58 68 -73 85 -16 18 3 -20 42 -84 67 -113 187 -354 172 -347&#xA;-4 2 -56 28 -117 59 -60 30 -170 80 -244 110 -116 47 -137 59 -160 92 -139&#xA;202 -225 298 -330 369 -46 31 -46 31 20 -38 101 -106 251 -316 236 -330 -3 -3&#xA;-49 8 -104 25 -54 16 -188 54 -299 85 -275 75 -430 137 -639 256 -63 36 -30 8&#xA;88 -73 59 -42 153 -98 210 -126 101 -49 164 -71 550 -191 291 -89 348 -113&#xA;285 -117 -13 -1 -102 -16 -198 -33 -96 -17 -238 -41 -315 -54 l-140 -24 90 -1&#xA;c110 -1 295 20 486 55 83 15 163 24 190 22 86 -9 365 -156 503 -267 l39 -31&#xA;-48 0 c-69 0 -243 -27 -354 -56 -101 -26 -274 -84 -268 -90 2 -2 82 12 178 31&#xA;229 47 355 65 461 65 l86 0 61 -66 c183 -200 334 -462 391 -682 23 -86 23&#xA;-101 6 -157 l-12 -40 -22 70 c-26 87 -99 236 -151 314 -49 72 -117 133 -168&#xA;150 -26 9 -137 16 -348 21 -260 6 -327 11 -415 29 -562 117 -1063 517 -1311&#xA;1046 -46 97 -82 211 -104 327 -17 90 -18 111 -7 106 4 -2 37 -18 73 -35z&#xA;m5418 -89 c58 -8 220 -45 360 -80 383 -97 497 -110 706 -80 50 7 91 13 92 12&#xA;8 -7 -122 -228 -230 -391 -108 -163 -208 -287 -351 -434 -363 -371 -681 -523&#xA;-1121 -537 -218 -6 -400 26 -655 116 -264 93 -365 109 -454 70 -162 -69 -386&#xA;-273 -520 -474 -58 -87 -129 -233 -172 -351 -18 -49 -33 -85 -33 -80 -2 24 72&#xA;318 100 402 82 247 353 529 721 751 l103 62 95 0 c125 0 241 -15 370 -46 125&#xA;-31 393 -117 468 -150 94 -41 47 -10 -80 54 -236 118 -498 188 -723 192 l-40&#xA;1 75 36 c92 43 453 175 558 205 75 20 79 21 182 4 149 -23 303 -64 544 -145&#xA;115 -39 207 -68 204 -65 -12 12 -183 90 -296 135 -134 54 -260 91 -379 110&#xA;-65 11 -73 14 -48 20 193 43 350 72 495 94 352 53 553 100 748 177 57 22 102&#xA;42 100 44 -2 2 -32 -6 -67 -16 -123 -39 -433 -93 -744 -130 -87 -11 -175 -22&#xA;-195 -25 l-37 -6 45 41 c71 64 271 214 328 245 29 16 51 30 49 31 -2 2 -40&#xA;-11 -85 -30 -98 -41 -258 -144 -370 -238 l-82 -70 -113 -24 c-63 -13 -190 -46&#xA;-283 -73 -93 -27 -171 -48 -172 -46 -14 13 233 333 372 484 l41 44 -35 -23&#xA;c-101 -68 -323 -311 -423 -463 -42 -64 -65 -89 -85 -93 -100 -25 -367 -150&#xA;-527 -248 -49 -30 -91 -53 -93 -51 -2 2 21 52 51 111 266 530 725 865 1282&#xA;937 75 10 227 6 324 -9z"/>
    <path d="M4468 7977 c-116 -33 -239 -142 -302 -268 -35 -69 -46 -119 -27 -119&#xA;5 0 31 25 57 55 56 66 150 139 221 172 31 14 89 28 144 35 106 13 135 31 124&#xA;76 -3 15 -13 34 -21 42 -19 19 -135 23 -196 7z"/>
    <path d="M5675 7955 c-22 -8 -41 -15 -42 -15 -10 0 -32 -62 -27 -74 8 -20 25&#xA;-23 134 -30 89 -5 178 -33 242 -77 18 -12 70 -58 115 -102 45 -45 85 -78 89&#xA;-74 12 11 -15 88 -52 149 -40 65 -137 159 -197 190 -92 47 -189 59 -262 33z"/>
    <path d="M4385 7517 c-227 -76 -375 -325 -375 -634 0 -251 113 -429 309 -487&#xA;98 -29 194 -16 285 39 37 22 53 28 47 17 -39 -75 -15 -184 59 -265 101 -111&#xA;244 -132 380 -56 63 35 62 49 -2 33 -118 -31 -248 -10 -310 51 -93 90 -72 247&#xA;42 305 78 40 207 18 284 -49 18 -16 18 -15 3 15 -24 46 -92 101 -149 120 -53&#xA;17 -122 13 -168 -11 l-25 -13 32 66 c54 110 68 179 67 337 0 106 -5 156 -19&#xA;205 -42 147 -122 257 -222 306 -65 32 -175 42 -238 21z m173 -72 c34 -11 69&#xA;-32 107 -67 98 -89 136 -195 136 -374 0 -66 -6 -138 -16 -179 -49 -212 -201&#xA;-365 -361 -365 -259 0 -414 279 -333 601 51 199 163 338 312 384 56 18 93 18&#xA;155 0z"/>
    <path d="M4495 7140 c-39 -15 -94 -88 -111 -147 -35 -120 1 -296 73 -352 59&#xA;-47 149 -39 204 19 109 115 97 388 -21 467 -34 24 -104 30 -145 13z"/>
    <path d="M5692 7499 c-205 -40 -372 -307 -372 -593 0 -126 19 -216 65 -311 63&#xA;-132 163 -211 298 -236 171 -32 364 85 457 275 56 114 73 190 74 321 0 128&#xA;-18 206 -69 310 -85 176 -269 271 -453 234z m230 -101 c31 -14 75 -46 99 -70&#xA;47 -48 101 -156 118 -236 28 -134 3 -324 -56 -435 -39 -72 -127 -158 -198&#xA;-193 -52 -25 -71 -29 -145 -29 -69 0 -94 4 -133 23 -147 73 -237 265 -223 477&#xA;6 104 36 219 74 289 38 70 121 152 184 182 47 22 63 25 138 21 65 -2 98 -9&#xA;142 -29z"/>
    <path d="M5753 7101 c-37 -23 -76 -79 -93 -135 -18 -58 -9 -210 17 -267 42&#xA;-93 143 -134 213 -87 73 50 105 128 105 258 0 75 -4 92 -30 145 -16 32 -42 68&#xA;-57 78 -40 29 -115 33 -155 8z"/>
    <path d="M5970 6268 c-18 -10 -25 -22 -25 -43 0 -27 5 -31 40 -40 31 -8 40&#xA;-14 37 -28 -6 -32 -209 -173 -347 -242 -273 -136 -534 -173 -870 -124 -295 43&#xA;-524 153 -637 307 l-39 52 30 6 c16 4 38 15 48 26 17 19 17 21 -7 40 -75 61&#xA;-350 -49 -338 -136 5 -33 40 -31 115 8 38 20 74 36 79 36 5 0 18 -21 28 -48&#xA;30 -73 151 -187 259 -242 68 -35 89 -51 93 -70 68 -331 254 -569 504 -646 116&#xA;-35 274 -26 400 24 172 67 309 183 446 377 156 220 250 410 293 588 16 66 17&#xA;68 44 63 15 -3 62 -21 103 -41 78 -36 98 -37 87 -7 -27 76 -138 142 -251 149&#xA;-44 3 -76 -1 -92 -9z m-303 -726 c22 -7 22 -8 5 -33 -9 -15 -35 -46 -57 -70&#xA;-185 -200 -414 -287 -630 -238 -66 15 -169 69 -173 91 -5 25 68 90 145 131&#xA;160 83 350 122 598 124 50 1 100 -2 112 -5z"/>
    <path d="M4800 4959 c0 -37 110 -96 224 -121 61 -13 191 -5 261 16 48 15 126&#xA;68 115 79 -3 3 -30 -1 -60 -9 -135 -36 -334 -26 -456 22 -67 27 -84 29 -84 13z"/>
    <path d="M5424 2874 c-18 -14 -18 -15 4 -4 12 6 22 13 22 15 0 8 -5 6 -26 -11z"/>
  </g>
  <title>Uśmiechnięty słonecznik</title>
  <desc>Wielki słonecznik z uśmiechniętą buzią odwraca się w stronę słońca. Słoneczniki to bardzo radosne kwiaty. Użyj jasnożółtych i pomarańczowych kredek.</desc>
</svg>