<?xml version="1.0" standalone="no"?>
<!DOCTYPE svg PUBLIC "-//W3C//DTD SVG 20010904//EN"
 "http://www.w3.org/TR/2001/REC-SVG-20010904/DTD/svg10.dtd">
<svg version="1.0" xmlns="http://www.w3.org/2000/svg"
 width="1024.000000pt" height="1024.000000pt" viewBox="0 0 1024.000000 1024.000000"
 preserveAspectRatio="xMidYMid meet">
<metadata>
Created by potrace 1.16, written by Peter Selinger 2001-2019
</metadata>
<g transform="translate(0.000000,1024.000000) scale(0.100000,-0.100000)"
fill="#000000" stroke="none">
<path d="M7475 9990 c-14 -16 -16 -39 -10 -196 9 -289 13 -305 67 -288 18 5
19 17 17 202 -2 244 -7 282 -36 293 -15 5 -26 3 -38 -11z"/>
<path d="M8363 9668 c-146 -264 -156 -284 -143 -308 11 -20 36 -26 56 -12 6 4
30 43 54 87 24 44 79 144 123 223 60 109 77 149 73 168 -5 18 -13 24 -34 24
-25 0 -36 -15 -129 -182z"/>
<path d="M6522 9788 c-7 -7 -12 -21 -12 -31 0 -20 102 -192 203 -340 52 -77
63 -88 86 -85 41 5 38 40 -9 116 -66 108 -207 326 -219 340 -15 15 -34 15 -49
0z"/>
<path d="M1681 9595 c-190 -53 -339 -215 -370 -402 l-12 -68 -102 0 c-89 0
-109 -4 -159 -27 -99 -46 -179 -152 -180 -239 l0 -39 -44 0 c-60 0 -144 -34
-181 -72 -45 -48 -63 -90 -63 -147 0 -39 6 -56 27 -82 57 -68 -26 -64 1263
-60 672 1 1184 7 1210 12 25 5 59 15 75 21 143 54 156 268 24 412 -93 102
-226 129 -395 81 -18 -6 -21 -2 -22 22 -1 54 -41 137 -84 180 -62 61 -126 86
-214 85 -67 -1 -169 -28 -202 -55 -16 -13 -16 -13 -30 58 -27 134 -109 241
-227 297 -61 28 -82 33 -165 35 -62 2 -114 -2 -149 -12z m275 -107 c114 -59
180 -176 193 -338 6 -80 7 -85 30 -88 16 -3 35 7 60 31 105 102 253 121 345
45 60 -49 81 -99 81 -195 1 -104 10 -116 64 -79 81 56 209 73 287 37 89 -40
154 -137 156 -231 1 -54 -9 -72 -56 -98 -28 -15 -132 -17 -1211 -23 -1081 -6
-1183 -5 -1215 10 -29 13 -36 22 -38 52 -4 46 26 85 92 115 54 25 105 30 137
14 13 -8 25 -7 39 0 16 9 19 17 14 53 -14 97 42 184 147 232 55 24 70 27 127
22 42 -4 79 -15 107 -31 36 -21 45 -23 60 -12 15 10 18 30 19 117 2 91 5 111
29 159 49 103 121 168 234 216 51 22 70 24 153 21 79 -3 104 -8 146 -29z"/>
<path d="M7418 9329 c-227 -28 -453 -120 -633 -259 -75 -58 -234 -225 -283
-297 -132 -195 -207 -418 -219 -648 -19 -373 134 -725 415 -956 392 -323 953
-391 1415 -170 444 211 725 671 704 1151 -5 131 -25 244 -59 345 -144 424
-484 727 -916 814 -116 24 -317 33 -424 20z m423 -118 c466 -110 801 -474 870
-943 18 -121 7 -322 -24 -440 -117 -448 -512 -789 -981 -848 -117 -15 -320 -8
-421 14 -367 80 -674 317 -815 630 -102 225 -119 529 -43 771 59 187 160 352
303 495 177 178 404 295 648 335 122 20 350 13 463 -14z"/>
<path d="M6975 8533 c-32 -8 -84 -51 -110 -92 -23 -38 -53 -125 -49 -148 1 -7
2 -19 3 -27 1 -18 32 -29 55 -20 9 3 23 29 31 58 30 103 90 161 142 137 28
-13 59 -77 69 -141 9 -59 20 -80 44 -80 30 0 50 28 50 70 0 48 -35 158 -59
187 -43 52 -108 72 -176 56z"/>
<path d="M7849 8477 c-94 -49 -166 -224 -106 -261 27 -17 50 4 70 67 31 96 99
147 151 114 31 -21 58 -81 64 -142 5 -55 16 -75 42 -75 51 0 64 77 30 176 -44
128 -145 176 -251 121z"/>
<path d="M7931 7976 c-8 -9 -10 -27 -6 -46 6 -27 1 -36 -57 -93 -105 -105
-223 -163 -353 -174 -92 -7 -167 9 -265 58 -90 45 -150 105 -186 186 -13 28
-28 54 -33 58 -18 11 -51 -14 -51 -39 0 -60 87 -190 168 -249 253 -186 611
-132 809 123 40 52 49 58 73 54 36 -8 62 18 51 49 -9 26 -74 73 -112 82 -17 4
-30 1 -38 -9z"/>
<path d="M5826 9235 c-9 -10 -16 -25 -14 -33 6 -30 464 -332 503 -332 22 0 35
17 35 46 0 13 -458 322 -491 331 -9 3 -24 -3 -33 -12z"/>
<path d="M8995 9093 c-204 -128 -220 -140 -220 -167 0 -62 18 -56 263 95 226
140 233 145 230 174 -6 58 -36 46 -273 -102z"/>
<path d="M5488 8349 c-19 -11 -23 -36 -10 -57 11 -16 158 -38 394 -58 209 -18
238 -16 238 20 0 13 -6 28 -12 34 -7 5 -71 15 -143 21 -150 14 -388 39 -425
46 -14 3 -33 0 -42 -6z"/>
<path d="M9240 8293 c-102 -9 -195 -19 -207 -24 -16 -6 -23 -17 -23 -34 0 -46
5 -47 474 -7 68 5 91 11 100 25 8 12 8 22 0 35 -15 23 -103 24 -344 5z"/>
<path d="M5885 7504 c-132 -64 -245 -120 -252 -126 -20 -17 -15 -48 10 -59 20
-9 50 2 208 76 263 122 312 148 324 168 13 22 -4 51 -31 54 -10 1 -127 -50
-259 -113z"/>
<path d="M8897 7574 c-15 -16 -6 -54 16 -69 13 -8 123 -60 243 -115 143 -66
226 -99 240 -95 26 6 37 30 25 54 -10 17 -445 220 -491 228 -14 2 -28 1 -33
-3z"/>
<path d="M2125 7311 c-65 -29 -123 -106 -155 -205 -7 -21 -15 -81 -19 -134
l-6 -95 -45 57 c-53 67 -142 138 -220 175 -72 34 -165 36 -207 5 -73 -54 -102
-155 -83 -294 6 -46 20 -106 30 -134 11 -27 18 -51 16 -53 -1 -2 -29 8 -60 22
-80 35 -192 53 -279 43 -164 -17 -234 -122 -184 -273 22 -66 105 -175 173
-228 l55 -42 -96 -7 c-201 -15 -346 -87 -376 -189 -9 -29 -8 -46 5 -87 37
-111 167 -210 350 -267 15 -4 8 -11 -34 -33 -82 -42 -191 -149 -228 -225 -64
-129 -28 -221 108 -279 76 -33 251 -34 335 -1 9 3 -9 -29 -40 -72 -30 -43 -58
-88 -61 -102 -7 -27 -19 -26 -94 12 -142 71 -366 156 -500 189 -162 41 -363
58 -473 40 -36 -6 -37 -8 -37 -46 0 -38 1 -40 27 -34 46 12 261 7 356 -8 156
-26 353 -93 580 -199 83 -39 106 -54 102 -66 -13 -34 -17 -138 -6 -178 13 -49
51 -97 92 -118 57 -30 176 -12 280 41 l47 23 54 -29 55 -30 6 -93 c8 -135 50
-221 125 -253 68 -29 173 6 265 86 25 22 47 40 49 40 3 0 -1 -37 -8 -82 -36
-234 -66 -550 -80 -823 -6 -113 -10 -140 -16 -110 -62 327 -93 426 -169 539
-57 86 -101 129 -193 190 -119 78 -273 125 -441 133 -108 6 -585 -21 -635 -35
-40 -12 -36 -47 16 -139 104 -183 278 -382 434 -498 78 -58 255 -150 355 -184
33 -11 132 -39 220 -61 184 -47 250 -71 320 -115 95 -60 89 -28 74 -407 -8
-225 -10 -531 -6 -948 8 -743 21 -1099 63 -1642 l7 -88 38 0 c46 0 44 -23 24
220 -24 309 -46 794 -55 1205 -8 376 -5 1225 5 1410 2 50 7 149 10 220 14 330
55 804 95 1107 14 107 26 161 43 195 l24 47 16 -54 c17 -59 16 -98 -17 -440
-18 -190 -44 -570 -55 -825 -10 -200 -8 -1772 2 -1815 3 -14 8 -92 11 -175 13
-315 78 -1001 102 -1077 7 -22 74 -26 74 -5 0 8 -11 103 -25 213 -79 642 -105
1180 -100 2134 4 799 17 1087 77 1690 l12 125 51 -52 c85 -84 176 -99 250 -41
67 52 128 201 141 342 4 42 7 76 8 76 1 0 40 -37 86 -83 103 -101 186 -147
282 -154 54 -4 68 -2 97 19 19 12 46 45 60 73 24 46 26 60 26 175 -1 126 -5
146 -59 271 -5 12 7 9 52 -12 74 -36 210 -69 283 -69 112 0 198 45 215 113 6
28 8 29 53 22 118 -17 477 -122 519 -151 2 -1 -4 -16 -12 -33 -67 -128 79
-332 347 -484 l77 -44 -93 -6 c-113 -7 -183 -25 -294 -78 -179 -85 -258 -211
-201 -321 6 -14 2 -21 -23 -33 -17 -9 -32 -15 -34 -13 -2 2 4 35 12 73 24 111
-3 227 -63 274 -71 56 -200 -4 -289 -134 l-39 -56 -12 59 c-24 115 -96 218
-171 243 -89 29 -194 -81 -225 -238 -10 -51 -13 -54 -25 -37 -59 82 -173 164
-229 164 -48 0 -84 -22 -112 -69 -24 -41 -27 -56 -27 -141 0 -52 3 -111 8
-132 l8 -36 -63 33 c-119 64 -244 68 -299 9 -21 -22 -24 -35 -24 -97 0 -81 27
-151 85 -222 l32 -40 -74 -7 c-190 -20 -279 -104 -234 -223 27 -70 109 -141
197 -170 l49 -17 -50 -25 c-68 -34 -144 -104 -170 -159 -17 -35 -21 -57 -17
-97 4 -44 10 -56 42 -84 47 -40 114 -56 223 -51 45 1 82 2 82 2 0 -1 -14 -17
-30 -35 -46 -51 -90 -148 -97 -211 -7 -70 22 -143 64 -159 52 -20 161 -6 238
32 39 19 73 35 76 37 3 1 2 -21 -3 -50 -19 -116 19 -254 81 -291 38 -22 93
-22 139 2 39 20 120 100 142 141 12 22 14 19 40 -57 15 -45 39 -96 55 -115
l28 -33 -8 -195 c-11 -284 -21 -478 -23 -451 -4 45 -65 206 -105 276 -65 112
-146 189 -252 240 -139 67 -213 80 -455 80 l-204 0 -12 -24 c-15 -30 -6 -49
64 -133 26 -31 90 -125 141 -210 109 -176 206 -282 308 -336 34 -18 121 -53
195 -78 137 -47 204 -82 258 -137 63 -64 62 -52 54 -448 l-7 -359 36 0 37 0 0
128 c0 174 9 707 15 927 3 99 8 294 11 433 l7 252 29 0 28 0 0 -870 0 -870 35
0 35 0 0 236 0 235 29 43 c63 91 164 159 365 246 65 28 150 70 189 93 135 79
304 273 387 445 14 28 28 51 33 52 13 0 103 -130 197 -288 163 -272 269 -397
434 -513 132 -94 230 -136 502 -219 91 -28 202 -69 244 -90 92 -46 186 -122
237 -191 l37 -49 75 0 74 0 -7 108 c-3 59 -10 211 -16 337 -5 127 -12 280 -15
340 -2 61 -7 270 -11 465 -3 195 -7 361 -10 368 -5 16 -1 15 41 -9 35 -21 76
-22 133 -4 22 7 22 6 22 -81 0 -49 3 -118 5 -154 14 -202 30 -513 56 -1098
l12 -272 31 0 c27 0 34 7 55 45 13 25 55 74 92 110 79 74 178 126 334 175 634
199 740 289 1205 1035 47 75 116 174 154 218 79 95 91 116 82 151 -8 30 -14
32 -166 46 -510 45 -918 -51 -1228 -288 -265 -202 -389 -456 -482 -985 -7 -37
-14 -67 -15 -65 -5 5 -14 155 -20 323 -3 83 -8 177 -11 210 -2 33 -9 146 -14
250 -5 105 -12 249 -16 322 -7 131 -7 133 18 165 68 89 131 270 145 411 l6 68
26 -43 c99 -166 224 -294 345 -353 167 -83 268 -51 326 102 40 107 37 343 -6
467 -21 59 -18 60 41 11 70 -57 216 -127 319 -154 113 -30 231 -29 277 2 57
38 71 78 66 182 -9 156 -80 334 -185 463 -40 49 -42 54 -21 50 13 -3 67 -16
119 -28 80 -18 114 -21 220 -17 72 3 146 12 176 21 65 20 128 66 145 105 14
30 23 32 77 15 8 -2 -10 -27 -46 -61 -72 -72 -102 -133 -102 -209 0 -48 4 -60
28 -84 49 -49 129 -61 235 -36 67 16 65 25 23 -87 -42 -109 -32 -214 25 -261
66 -56 200 -20 309 83 30 28 54 51 55 51 0 0 0 -40 0 -89 1 -79 4 -95 34 -155
41 -84 76 -109 144 -103 28 2 60 13 77 26 16 11 32 21 35 21 7 0 6 -545 -2
-664 l-6 -99 -23 102 c-49 217 -144 351 -306 430 -129 63 -189 76 -361 76
-136 0 -150 -2 -163 -19 -19 -27 -19 -29 24 -79 21 -24 65 -86 97 -138 145
-232 202 -284 442 -404 134 -66 157 -81 214 -142 l64 -68 -7 -140 c-13 -233
-77 -809 -104 -938 -5 -26 -4 -27 34 -27 l40 0 11 68 c18 108 59 491 76 702
26 327 44 799 42 1120 l-3 305 38 75 37 75 1 -110 c0 -60 3 -236 6 -390 9
-406 -12 -1003 -56 -1625 -6 -80 -12 -162 -15 -182 l-5 -38 40 0 c22 0 40 4
40 9 0 4 6 100 14 212 8 112 20 308 27 434 8 165 16 240 27 265 9 19 45 64 81
100 73 73 150 117 299 171 l92 33 0 43 0 42 -107 -45 c-160 -66 -223 -99 -270
-139 -24 -20 -43 -33 -43 -30 0 18 94 172 150 245 58 76 182 183 248 213 15 7
22 19 22 39 l0 30 -37 -23 c-21 -12 -51 -31 -67 -42 -28 -19 -28 -19 -18 -1 6
11 35 43 66 72 56 53 77 94 37 73 -40 -22 -131 -113 -157 -159 -15 -26 -57
-78 -93 -117 -36 -38 -85 -99 -109 -135 -47 -71 -47 -70 -11 70 58 223 162
368 326 453 62 32 63 32 63 75 l0 43 -81 -43 c-195 -104 -313 -266 -373 -512
l-22 -90 -2 473 -1 473 55 -51 c111 -101 211 -93 271 21 24 47 27 64 27 153 1
55 -3 117 -7 137 l-8 38 33 -20 c18 -10 50 -26 71 -35 l37 -15 0 43 c0 42 -1
44 -49 66 -62 27 -169 108 -209 157 -28 34 -30 38 -16 60 27 41 43 38 155 -31
59 -36 110 -65 115 -65 16 0 -44 55 -118 107 -43 30 -78 57 -78 59 0 3 7 18
16 35 17 34 27 33 167 -26 16 -7 18 -3 15 30 -3 38 -5 39 -70 63 -38 14 -68
30 -68 36 0 6 5 28 11 50 l11 38 45 -7 c25 -4 52 -9 59 -12 8 -3 14 1 14 11 0
9 -12 18 -27 22 -93 21 -88 18 -84 55 4 41 14 49 69 49 40 0 42 1 42 30 0 30
0 30 -59 30 -64 0 -65 1 -74 41 -6 25 -3 28 60 51 37 13 69 30 71 38 5 15 -18
11 -101 -14 -48 -15 -48 -15 -57 10 -18 46 -17 47 138 141 18 11 22 22 22 64
l0 51 -45 -39 c-24 -22 -72 -58 -106 -81 l-62 -42 -24 22 c-13 12 -23 25 -23
29 0 4 22 34 48 66 107 129 104 158 -3 39 l-67 -75 -30 22 c-23 17 -28 27 -23
47 11 46 89 171 136 219 45 46 152 111 183 111 12 0 16 10 16 45 l0 44 -45
-13 c-47 -15 -130 -59 -140 -76 -13 -20 -21 -9 -17 23 10 84 -44 239 -94 272
-78 51 -185 -15 -265 -160 l-36 -65 -12 42 c-31 101 -93 192 -153 224 -15 8
-46 14 -69 14 -36 0 -48 -6 -84 -43 -51 -50 -75 -120 -75 -215 l0 -64 -41 37
c-50 45 -153 95 -196 95 -41 0 -88 -40 -104 -87 -18 -56 -6 -181 25 -248 l25
-56 -37 8 c-20 4 -75 8 -122 7 -127 -1 -180 -36 -180 -119 1 -57 30 -113 88
-167 l50 -47 -56 -16 c-32 -9 -75 -27 -98 -40 l-41 -24 -56 55 c-65 62 -173
135 -266 179 l-62 29 74 13 c185 31 377 115 467 203 49 47 59 64 70 112 17 76
-2 128 -71 193 -93 87 -288 154 -449 155 l-65 0 60 40 c33 22 69 40 80 40 45
0 250 80 400 156 88 45 248 126 355 180 297 152 490 210 725 221 139 6 247 -8
359 -47 l56 -19 0 43 0 43 -73 21 c-338 98 -708 25 -1177 -233 -250 -137 -529
-275 -557 -275 -2 0 20 28 51 61 31 35 73 98 97 147 37 74 43 94 43 153 1 84
-17 112 -98 153 -52 26 -71 30 -170 34 -126 4 -272 -20 -379 -63 -33 -14 -62
-25 -64 -25 -2 0 14 26 35 58 81 119 129 236 153 375 19 112 -4 192 -63 223
-47 24 -200 15 -294 -18 -94 -33 -248 -124 -319 -190 -56 -51 -58 -52 -51 -23
39 153 45 256 22 387 -26 143 -78 203 -174 202 -148 -1 -349 -177 -486 -424
-38 -69 -41 -73 -43 -45 -13 148 -54 291 -114 390 -43 72 -128 151 -177 164
-83 23 -174 -43 -233 -169 -38 -80 -79 -236 -79 -301 0 -27 -3 -49 -7 -49 -5
0 -23 25 -40 54 -118 195 -303 351 -439 372 -79 11 -135 -42 -170 -161 -35
-121 -19 -370 33 -493 l15 -36 -24 17 c-121 87 -213 136 -340 178 -183 62
-342 48 -384 -32 -46 -89 40 -350 176 -534 23 -31 40 -59 37 -61 -2 -2 -37 3
-78 11 -144 31 -349 17 -439 -30 -26 -13 -33 -13 -82 9 -100 44 -293 104 -418
131 -195 41 -180 34 -199 86 -27 71 -88 157 -167 235 l-71 70 84 2 c225 3 423
121 423 252 0 73 -89 180 -196 237 -59 30 -89 41 -173 63 l-44 12 79 46 c149
86 252 222 241 318 -7 64 -32 93 -111 133 -63 32 -77 35 -180 39 -101 4 -192
-5 -240 -24 -12 -5 -3 13 27 55 82 111 127 231 127 338 0 97 -43 153 -130 170
-78 14 -233 -42 -345 -126 l-50 -38 0 151 c0 145 -1 153 -29 213 -53 114 -129
140 -244 82 -75 -37 -146 -114 -198 -212 l-37 -70 -19 74 c-36 139 -120 258
-211 299 -53 24 -91 25 -142 1z m114 -85 c41 -22 100 -92 126 -150 46 -103 58
-194 52 -375 -3 -91 -10 -179 -15 -196 -8 -28 -11 -30 -58 -29 l-49 1 -12 124
c-13 128 -29 213 -45 239 -6 10 -7 -14 -3 -65 3 -44 8 -130 12 -192 l6 -111
-56 -7 c-30 -4 -60 -4 -65 -1 -29 17 -88 268 -98 407 -10 154 30 292 102 348
31 25 64 27 103 7z m624 -76 c44 -35 62 -101 61 -225 0 -169 -41 -287 -163
-472 l-54 -81 -43 21 c-24 11 -44 24 -44 28 0 4 16 49 35 100 43 112 78 241
73 271 -2 13 -25 -41 -57 -132 -56 -159 -86 -230 -98 -230 -4 0 -27 8 -51 17
l-44 16 7 76 c21 235 93 426 201 533 48 48 122 98 145 98 4 0 18 -9 32 -20z
m-1189 -137 c61 -34 182 -151 219 -214 29 -49 147 -340 147 -362 0 -7 -22 -22
-49 -34 -59 -25 -58 -26 -116 82 -59 109 -126 215 -135 215 -12 0 10 -50 88
-205 37 -71 67 -134 67 -138 0 -5 -20 -23 -45 -42 l-45 -33 -74 80 c-42 45
-89 99 -107 122 -82 107 -142 255 -151 372 -7 92 2 140 33 171 22 22 31 25 71
19 25 -3 68 -18 97 -33z m1748 -180 c13 -12 18 -31 18 -73 0 -130 -79 -282
-209 -402 -65 -60 -279 -215 -285 -206 -29 40 -46 69 -46 81 0 7 40 58 90 112
110 120 175 203 166 213 -7 6 -156 -141 -254 -251 -41 -46 -43 -47 -67 -31
-13 8 -31 26 -39 39 -15 22 -13 27 40 111 89 142 151 220 222 279 139 115 311
176 364 128z m-2149 -232 c139 -36 217 -89 358 -244 60 -66 109 -126 109 -133
0 -8 -13 -28 -28 -45 l-29 -32 -84 50 c-134 81 -265 149 -250 129 8 -9 60 -47
115 -83 81 -53 176 -116 194 -129 7 -4 -54 -104 -63 -104 -6 0 -63 23 -125 50
-302 132 -543 383 -480 500 31 57 151 74 283 41z m1177 -220 c109 -28 168 -52
237 -99 217 -148 323 -368 311 -652 -4 -92 -9 -116 -41 -195 -73 -176 -171
-288 -317 -358 -122 -58 -201 -77 -327 -77 -200 0 -336 55 -483 197 -152 145
-203 267 -204 488 0 130 15 206 62 300 31 62 117 178 168 226 93 88 254 164
376 178 113 13 137 12 218 -8z m1280 -86 c111 -40 119 -99 26 -202 -114 -127
-317 -218 -561 -253 -44 -6 -87 -13 -96 -16 -12 -3 -19 9 -29 51 -8 34 -10 59
-4 64 5 5 47 23 94 40 47 17 132 51 190 76 89 39 98 45 60 39 -25 -4 -108 -29
-185 -56 -196 -69 -180 -68 -206 -14 -22 44 -22 46 -5 65 26 28 151 114 211
143 160 80 380 108 505 63z m-2405 -262 c44 -14 117 -43 164 -64 64 -30 82
-42 77 -55 -3 -9 -9 -27 -12 -40 -5 -18 -11 -23 -28 -19 -73 17 -240 35 -318
34 -111 0 -94 -12 42 -28 172 -22 292 -39 296 -43 6 -6 -7 -124 -15 -137 -4
-6 -71 -15 -153 -20 -205 -14 -313 4 -450 76 -170 89 -224 192 -133 254 114
78 354 96 530 42z m5085 -140 c90 -62 174 -247 200 -441 15 -107 8 -294 -15
-442 -8 -52 -15 -98 -15 -102 0 -3 -24 -5 -52 -3 -29 2 -63 4 -75 4 -20 1 -21
7 -27 109 -9 143 -27 315 -35 327 -13 21 -18 -117 -9 -274 5 -89 8 -164 6
-166 -2 -1 -29 -5 -60 -9 -49 -5 -59 -3 -67 12 -5 9 -26 92 -47 182 -35 154
-38 176 -38 325 1 179 17 265 74 382 50 101 105 134 160 96z m869 -100 c27
-33 41 -108 41 -217 0 -146 -34 -293 -103 -448 -27 -60 -193 -334 -208 -344
-10 -6 -149 55 -149 65 0 4 30 78 66 166 69 170 117 305 110 313 -6 5 -87
-157 -165 -334 l-63 -140 -66 16 c-45 11 -68 22 -70 33 -6 31 29 248 54 335
74 254 278 516 447 573 57 19 80 16 106 -18z m-1576 -26 c144 -92 277 -261
352 -445 26 -64 135 -417 135 -437 0 -7 -29 -20 -63 -29 -35 -8 -71 -18 -79
-21 -11 -4 -29 25 -72 117 -47 98 -146 286 -163 307 -1 2 -5 2 -7 0 -9 -8 37
-125 110 -282 41 -88 73 -161 72 -162 -2 -1 -31 -16 -65 -32 l-61 -31 -80 107
c-146 196 -204 304 -250 471 -22 80 -27 115 -27 225 0 131 9 181 43 234 13 20
22 22 57 19 24 -3 65 -20 98 -41z m-2110 7 c109 -24 204 -74 265 -138 58 -61
66 -95 33 -138 -29 -36 -131 -87 -208 -103 -79 -17 -231 -19 -320 -5 -66 11
-284 76 -294 88 -3 4 -1 36 4 71 l9 63 47 -6 c95 -12 384 -19 378 -9 -7 11
-87 21 -279 32 -71 5 -130 10 -132 12 -2 2 -6 25 -10 51 l-7 46 73 16 c179 39
325 46 441 20z m-2043 -241 l0 -42 -82 -31 c-238 -89 -317 -125 -305 -136 5
-5 288 88 350 115 27 12 50 21 52 21 2 0 13 -30 25 -66 26 -78 37 -66 -135
-154 -148 -75 -230 -99 -366 -107 -158 -9 -245 19 -270 85 -8 21 -4 38 21 88
62 126 224 234 385 254 203 27 310 35 317 25 4 -5 8 -29 8 -52z m6453 -71 c52
-45 -15 -289 -124 -456 -91 -138 -242 -278 -463 -430 l-85 -58 -50 43 c-28 24
-50 50 -51 57 0 8 46 63 102 123 84 90 248 292 248 305 0 17 -55 -35 -206
-194 -98 -103 -181 -188 -185 -190 -7 -3 -109 66 -109 73 0 10 148 248 195
316 167 236 404 400 619 428 59 8 84 4 109 -17z m-4836 -100 c208 -71 363
-189 451 -345 56 -99 64 -146 29 -181 -24 -24 -33 -26 -109 -26 -193 0 -366
83 -535 257 -51 52 -93 99 -93 104 0 14 51 89 61 89 5 0 86 -52 180 -116 94
-63 174 -112 178 -108 10 10 -94 99 -205 174 -133 91 -133 90 -106 146 12 24
25 44 29 44 5 -1 58 -18 120 -38z m1873 -22 c270 -65 494 -247 670 -543 27
-47 50 -88 50 -90 0 -3 -23 -24 -50 -47 l-50 -42 -73 68 c-39 38 -128 116
-197 173 -69 57 -133 111 -142 119 -15 13 -18 13 -18 1 0 -8 88 -100 197 -205
l197 -192 -44 -53 c-24 -30 -45 -55 -46 -57 -1 -2 -80 43 -175 100 -192 114
-274 183 -370 311 -130 172 -220 432 -161 466 28 17 121 12 212 -9z m-3369
-102 c6 -13 21 -33 32 -45 l20 -22 -114 -119 c-228 -236 -231 -267 -4 -48 77
75 143 136 146 136 4 0 26 -17 50 -39 l44 -38 -66 -99 c-83 -125 -150 -198
-249 -273 -134 -101 -255 -147 -335 -127 -39 10 -69 83 -60 145 23 151 128
308 281 417 57 41 221 133 236 134 4 0 13 -10 19 -22z m1269 -220 c147 -166
210 -285 232 -438 14 -93 1 -182 -31 -214 -79 -79 -343 104 -439 304 -37 77
-102 259 -102 285 0 8 121 79 125 72 1 -1 25 -46 53 -100 64 -121 131 -227
143 -227 11 0 -48 129 -111 242 -28 49 -49 96 -46 104 5 12 73 62 88 63 3 1
43 -40 88 -91z m-971 -24 c25 -15 47 -28 49 -29 2 -1 -22 -76 -53 -166 -51
-152 -70 -231 -45 -188 5 9 37 87 70 174 33 87 62 160 64 162 3 4 117 -24 123
-30 9 -10 -49 -246 -83 -338 -76 -207 -204 -350 -317 -353 -72 -2 -102 67
-102 234 0 119 22 204 81 321 47 93 142 239 156 239 6 0 32 -12 57 -26z m579
-121 c77 -248 90 -380 52 -527 -60 -235 -170 -275 -281 -104 -88 137 -121 359
-83 573 8 49 16 91 18 92 3 3 68 6 92 4 19 -1 22 -9 29 -78 18 -203 60 -374
51 -208 -3 50 -8 104 -10 120 -3 17 -8 60 -11 97 l-5 67 47 15 c77 24 78 23
101 -51z m5937 3 c35 -15 55 -42 55 -75 0 -34 -39 -128 -77 -183 -97 -144
-301 -296 -473 -351 -116 -38 -458 -122 -466 -115 -3 4 -17 36 -30 71 l-23 65
23 15 c13 9 119 63 237 120 215 106 305 156 281 157 -17 0 -401 -173 -480
-217 -35 -19 -69 -32 -76 -30 -8 3 -28 31 -45 63 -26 48 -29 59 -17 66 8 5 72
51 143 103 288 213 457 294 678 324 88 12 225 5 270 -13z m-1877 -71 c241 -34
412 -116 576 -274 96 -93 154 -174 205 -283 132 -280 127 -630 -11 -901 -81
-160 -249 -332 -418 -429 -185 -106 -462 -158 -681 -129 -387 51 -733 320
-851 661 -35 101 -58 228 -58 317 0 480 320 890 788 1009 177 45 288 52 450
29z m-1748 -100 c118 -25 237 -76 405 -173 88 -51 171 -101 184 -111 l24 -18
-38 -69 c-21 -38 -39 -70 -40 -71 -1 -2 -37 11 -81 28 -202 78 -407 139 -421
125 -5 -5 455 -186 474 -186 10 0 13 -5 8 -17 -4 -10 -17 -46 -29 -81 l-21
-63 -40 7 c-351 53 -600 158 -783 328 -106 99 -141 171 -112 227 12 22 93 65
147 78 62 15 246 12 323 -4z m-3250 -104 l-11 -41 -30 16 -31 15 39 34 c43 38
49 34 33 -24z m7860 -397 c84 -76 134 -230 128 -399 l-3 -110 -35 0 c-30 0
-35 4 -38 25 -2 14 -17 68 -35 120 -37 111 -48 93 -18 -28 30 -114 28 -129
-11 -135 -18 -3 -36 -2 -40 2 -4 3 -26 53 -50 111 -42 103 -43 107 -43 220 0
100 3 121 22 157 21 38 56 73 75 73 4 0 26 -16 48 -36z m474 -92 c20 -59 20
-148 0 -231 -21 -85 -103 -244 -122 -236 -8 3 -25 8 -38 11 -30 8 -30 12 6
119 17 49 29 94 27 100 -5 13 -48 -72 -73 -143 -16 -47 -21 -53 -44 -50 -24 3
-25 7 -28 68 -8 173 73 365 183 431 29 18 30 18 52 -3 12 -11 29 -41 37 -66z
m-1534 52 c170 -34 300 -124 300 -208 0 -60 -113 -145 -275 -209 -144 -57
-260 -77 -443 -78 -147 -1 -203 4 -359 32 l-63 11 0 73 0 73 43 6 c23 3 121
10 217 16 254 14 320 21 320 30 0 19 -197 22 -383 6 -104 -10 -191 -15 -194
-13 -5 6 -25 158 -21 161 2 2 55 17 118 34 314 87 533 106 740 66z m-4852
-138 c63 -72 98 -228 82 -366 -5 -41 -9 -82 -10 -90 -1 -34 -16 -42 -64 -35
l-46 7 -1 87 c-1 103 -16 168 -19 81 -1 -57 -10 -164 -13 -166 -1 -1 -21 -4
-44 -7 l-42 -5 -16 72 c-26 109 -30 230 -11 303 26 105 95 185 137 162 9 -4
30 -24 47 -43z m1462 20 c36 -8 113 -25 173 -37 l107 -22 -1 -36 c0 -20 -4
-55 -7 -78 l-7 -42 -225 -5 c-124 -3 -244 -8 -267 -12 -101 -16 -25 -24 227
-24 l270 0 0 -79 0 -79 -82 -20 c-303 -76 -553 -65 -788 35 -212 90 -256 157
-162 251 74 74 232 139 395 162 83 12 287 4 367 -14z m-3735 -25 c44 -11 121
-41 172 -66 155 -76 249 -180 313 -346 28 -73 80 -266 80 -297 0 -8 -26 22
-58 65 -54 72 -155 170 -227 220 -17 12 -54 59 -82 105 -28 46 -71 102 -96
125 -81 74 -123 82 -46 8 43 -41 109 -135 109 -155 0 -6 -19 2 -42 18 -117 80
-297 161 -434 195 -73 19 -161 31 -152 22 3 -4 73 -29 155 -56 81 -27 186 -70
233 -96 86 -46 333 -203 328 -208 -2 -2 -28 1 -58 7 -64 12 -304 5 -340 -10
-19 -8 9 -11 116 -11 145 -1 220 -10 312 -39 59 -18 106 -62 187 -177 50 -70
109 -169 98 -163 -68 33 -130 56 -238 84 -192 51 -332 98 -418 137 -184 85
-350 223 -492 408 -66 86 -145 208 -145 223 0 3 28 6 63 7 34 0 121 6 192 13
187 18 371 13 470 -13z m7791 -1 c62 -30 124 -89 176 -167 52 -78 98 -166 98
-187 0 -13 -46 -46 -63 -46 -2 0 -25 32 -51 70 -25 39 -48 70 -51 70 -8 0 20
-63 49 -108 33 -52 32 -56 -2 -81 l-29 -20 -55 57 c-105 107 -168 232 -171
338 -3 94 21 112 99 74z m-5069 -72 c22 -41 24 -152 4 -223 -19 -67 -84 -194
-124 -240 l-33 -38 -33 17 c-18 10 -31 23 -28 29 29 80 68 209 64 214 -7 7
-42 -63 -63 -124 -34 -98 -29 -93 -70 -80 l-36 11 5 57 c12 110 88 279 154
340 40 38 94 69 120 69 15 0 28 -11 40 -32z m-906 -16 c59 -38 113 -102 154
-182 31 -62 85 -201 85 -220 0 -12 -53 -40 -75 -40 -9 0 -18 8 -22 18 -11 32
-98 181 -105 182 -15 0 -8 -24 37 -122 l46 -98 -28 -25 c-15 -13 -31 -25 -35
-25 -16 0 -92 102 -127 175 -66 133 -78 278 -30 339 26 33 45 33 100 -2z
m-274 -306 c41 -20 93 -50 114 -67 52 -41 164 -179 153 -187 -5 -4 -21 -18
-35 -30 l-26 -23 -89 71 c-49 38 -93 70 -99 70 -5 -1 30 -39 79 -86 l89 -86
-16 -34 c-9 -19 -23 -34 -30 -34 -26 0 -182 105 -237 160 -71 71 -120 165
-120 231 0 28 5 50 13 53 32 15 131 -4 204 -38z m6164 4 c38 -18 88 -54 118
-84 l51 -51 -23 -28 -22 -28 -72 41 c-100 58 -114 45 -20 -19 42 -28 77 -56
77 -61 0 -5 -5 -20 -11 -34 l-11 -24 -54 18 c-137 48 -276 145 -318 223 -36
68 -3 89 129 83 77 -3 100 -8 156 -36z m-4711 -10 c66 -34 70 -42 41 -106 -39
-86 -255 -276 -296 -260 -7 2 -22 17 -32 32 l-17 27 65 61 c140 132 143 158 4
41 -49 -41 -92 -75 -95 -75 -3 0 -16 13 -28 29 l-21 29 49 65 c59 78 115 128
184 161 66 32 75 32 146 -4z m3462 -20 c95 -11 216 -31 268 -45 116 -30 310
-126 398 -196 78 -62 146 -153 169 -226 15 -49 16 -57 2 -81 -39 -70 -144 -98
-333 -89 -126 6 -230 29 -371 82 -76 29 -360 177 -402 211 l-27 21 35 81 35
80 81 -28 c44 -16 161 -60 259 -99 99 -39 183 -71 188 -71 5 0 -3 9 -18 21
-44 35 -265 136 -384 175 l-114 37 6 36 c7 46 26 111 31 111 2 0 82 -9 177
-20z m1957 9 c132 -30 236 -115 302 -245 l44 -87 0 -121 c0 -117 -1 -124 -32
-186 -47 -94 -140 -193 -216 -229 -256 -122 -566 11 -646 277 -28 95 -35 170
-21 238 44 215 223 363 440 363 47 0 105 -4 129 -10z m-5194 -84 c48 -13 127
-30 176 -36 l90 -12 -42 -19 c-23 -10 -69 -37 -101 -59 -59 -40 -61 -40 -109
-30 -28 6 -82 11 -121 11 l-70 0 16 23 c27 37 66 115 66 132 0 19 -6 20 95
-10z m825 -38 c21 -68 42 -48 -160 -157 -160 -87 -344 -209 -316 -210 8 0 268
141 417 226 42 24 78 44 80 44 3 0 23 -36 44 -80 l39 -81 -29 -24 c-97 -80
-279 -200 -367 -244 -189 -92 -425 -139 -558 -111 -109 23 -123 63 -65 182 90
183 269 333 501 417 71 26 363 100 383 98 7 -1 21 -28 31 -60z m-1730 -28
c176 -28 326 -161 390 -343 88 -249 -6 -506 -233 -636 -74 -42 -220 -74 -305
-67 -113 9 -232 70 -328 166 -91 91 -138 234 -132 397 3 97 6 106 47 188 78
154 207 255 371 290 81 18 108 19 190 5z m5404 -155 c53 -21 61 -32 52 -69
l-7 -26 -112 7 c-62 4 -109 3 -104 -2 4 -4 53 -15 110 -23 l102 -16 6 -36 5
-37 -86 -11 c-105 -13 -161 -14 -220 -1 -60 14 -90 30 -90 49 0 9 -12 41 -26
71 l-25 54 23 18 c49 38 98 48 213 44 76 -2 125 -9 159 -22z m-4504 -8 c0 -2
-15 -19 -34 -39 -43 -46 -111 -149 -133 -204 l-18 -42 -80 -6 c-44 -4 -93 -5
-110 -3 -27 3 -30 7 -33 40 -3 36 -2 37 40 48 158 41 199 53 204 61 9 15 -37
10 -144 -16 -57 -14 -105 -25 -107 -25 -2 0 -8 15 -14 32 -10 29 -9 34 11 50
40 30 127 71 191 89 53 15 227 27 227 15z m-1770 -47 c25 -5 85 -28 133 -51
68 -32 86 -45 81 -57 -4 -9 -9 -26 -11 -38 -4 -17 -11 -22 -27 -18 -51 12
-219 45 -229 45 -8 0 -8 -3 -1 -10 6 -6 62 -24 125 -39 l114 -28 0 -44 0 -44
-105 1 c-116 1 -175 16 -273 67 -68 35 -127 97 -127 132 0 72 172 118 320 84z
m4944 -203 c252 -156 418 -398 433 -634 8 -109 -3 -122 -96 -122 -193 1 -431
125 -587 306 -48 56 -199 257 -239 317 l-18 28 58 59 59 59 40 -36 c56 -49
273 -251 311 -288 16 -16 39 -37 49 -45 19 -15 19 -14 2 20 -10 19 -98 114
-196 210 l-179 175 46 53 45 52 87 -46 c47 -26 130 -75 185 -108z m-2132 49
l47 -58 -106 -111 c-105 -110 -236 -276 -226 -286 3 -3 37 29 77 71 216 232
280 299 285 299 3 0 31 -22 61 -49 l54 -49 -84 -133 c-154 -246 -247 -352
-406 -458 -138 -93 -318 -146 -368 -108 -48 36 -23 239 48 391 47 102 101 178
189 265 80 78 355 291 372 287 6 -1 31 -29 57 -61z m3535 -99 c10 -32 9 -35
-16 -45 -47 -20 -166 -100 -149 -101 9 0 55 19 101 43 l84 43 21 -36 21 -37
-67 -51 c-87 -66 -168 -102 -256 -115 -135 -19 -179 7 -156 93 28 103 233 237
366 239 38 1 41 -1 51 -33z m-4777 -88 c0 -80 82 -140 210 -153 71 -8 81 -15
78 -60 -4 -42 -43 -59 -151 -63 -91 -4 -180 12 -281 50 -28 11 -59 22 -70 25
-15 5 -17 12 -12 47 4 23 10 44 14 48 4 4 43 1 87 -7 44 -8 93 -14 110 -15 50
0 15 18 -65 35 -132 27 -121 21 -118 67 4 50 15 55 126 57 l72 1 0 -32z m2890
-142 c51 -70 114 -169 141 -220 143 -274 155 -656 22 -707 -27 -10 -102 11
-169 48 -72 39 -211 184 -267 280 -66 110 -92 178 -137 357 -56 224 -59 203
30 237 41 15 82 28 90 28 15 1 24 -16 162 -316 39 -84 74 -153 79 -153 14 0
-57 193 -125 339 -37 79 -65 145 -63 147 7 7 142 93 143 91 0 -1 43 -60 94
-131z m-4272 88 c3 -32 2 -32 -80 -59 -97 -33 -170 -68 -148 -72 8 -2 64 12
124 31 60 20 113 33 117 30 11 -7 29 -75 23 -86 -8 -12 -98 -57 -174 -85 -74
-28 -211 -35 -288 -14 -55 15 -80 50 -63 88 28 62 73 104 154 143 104 50 142
59 247 57 l85 -2 3 -31z m3007 -159 c-18 -50 -45 -120 -59 -155 -25 -60 -76
-233 -76 -254 0 -6 3 -6 9 0 12 11 130 304 160 394 33 99 25 95 127 64 49 -15
90 -28 91 -29 4 -2 -36 -213 -52 -277 -51 -197 -201 -448 -327 -549 -106 -84
-195 -109 -236 -66 -45 48 -56 101 -57 272 0 137 3 172 23 245 29 108 123 303
207 432 l65 99 79 -42 79 -43 -33 -91z m-1002 78 c-98 -145 -153 -315 -153
-473 1 -136 45 -190 158 -190 136 0 356 106 477 230 21 22 42 40 45 40 4 0 -2
-33 -12 -72 -59 -229 -15 -503 92 -576 30 -21 44 -23 96 -19 151 11 323 165
449 399 44 82 45 82 45 45 0 -103 61 -288 134 -407 l33 -55 7 -320 c7 -379 14
-627 22 -785 3 -63 3 -112 0 -109 -3 2 -14 45 -25 94 -25 113 -79 279 -127
393 -146 338 -344 518 -695 630 -155 50 -256 64 -444 66 -93 0 -189 -2 -212
-7 -41 -7 -43 -6 -43 18 0 49 -29 56 -237 57 -174 1 -195 -1 -287 -26 -113
-30 -202 -74 -301 -148 -162 -123 -258 -306 -300 -573 -9 -60 -21 -130 -25
-155 -4 -25 -6 73 -4 220 3 146 6 367 8 491 l4 226 36 47 c35 46 46 75 63 164
l8 44 31 -44 c51 -72 147 -127 224 -128 45 0 94 30 116 72 24 45 30 177 11
246 -10 36 -11 52 -3 48 189 -84 322 -88 373 -10 41 63 1 211 -81 301 l-36 40
77 6 c103 7 145 21 189 62 35 34 37 37 31 88 l-5 53 86 18 c48 10 114 28 147
41 33 12 63 23 67 24 3 0 -14 -29 -39 -66z m4307 -28 c0 -6 -27 -48 -60 -93
-33 -45 -60 -84 -60 -87 0 -14 41 24 95 88 31 37 63 67 70 67 7 0 23 -9 36
-19 l23 -19 -39 -78 c-29 -58 -60 -99 -115 -154 -73 -73 -164 -130 -208 -130
-67 0 -71 127 -9 253 37 75 118 170 182 215 l30 21 28 -27 c15 -14 27 -31 27
-37z m-2546 -115 c46 -218 55 -334 35 -495 -29 -238 -152 -455 -258 -455 -12
0 -42 19 -67 42 -96 88 -173 269 -194 454 -12 103 -4 207 33 444 l12 75 89 -3
c49 -1 90 -3 91 -5 1 -1 5 -92 9 -202 3 -109 9 -217 13 -240 l7 -40 7 40 c5
22 8 133 8 246 l1 206 93 9 c50 5 95 7 98 4 4 -3 14 -39 23 -80z m3265 35
c113 -137 134 -407 37 -471 -23 -14 -27 -14 -66 6 -91 46 -160 147 -200 292
-11 40 -20 89 -20 109 0 36 1 37 43 43 23 4 47 5 52 4 6 -2 18 -25 27 -52 25
-69 58 -136 69 -136 5 0 -1 24 -12 53 -12 28 -29 75 -39 104 l-18 51 36 26
c20 13 40 24 44 23 3 -1 25 -24 47 -52z m-5799 -55 c140 -68 262 -209 277
-319 5 -34 2 -41 -21 -56 -24 -16 -34 -17 -97 -5 -111 19 -198 69 -302 172
l-90 89 30 31 31 30 46 -31 c55 -38 152 -84 167 -79 5 2 -34 30 -86 62 -53 32
-99 64 -102 71 -7 20 26 75 45 75 10 0 56 -18 102 -40z m5334 20 c4 -5 3 -31
-3 -60 -6 -28 -11 -77 -10 -108 l1 -57 13 48 c7 26 16 75 20 107 l7 60 59 0
59 0 0 -86 c0 -173 -76 -345 -170 -384 -46 -19 -75 -6 -99 42 -57 120 -51 249
19 414 19 44 20 45 57 38 21 -3 42 -10 47 -14z m-6537 -150 c-48 -50 -87 -96
-87 -101 0 -15 56 27 127 94 l63 60 35 -27 c19 -15 35 -30 35 -35 0 -4 -23
-35 -51 -70 -90 -112 -182 -182 -279 -212 -114 -35 -150 -14 -137 82 14 103
104 219 242 308 l79 52 30 -30 29 -30 -86 -91z m1048 -201 c40 -76 71 -217 61
-274 -4 -19 -17 -47 -30 -62 -22 -26 -25 -26 -63 -15 -107 32 -203 158 -254
332 -27 91 -25 106 12 119 28 10 31 8 47 -20 48 -87 115 -190 120 -185 3 4
-19 56 -49 116 l-55 110 21 19 c38 36 57 32 107 -22 26 -27 63 -80 83 -118z
m-770 125 c20 -15 20 -16 -14 -112 -19 -53 -36 -104 -39 -112 -5 -13 -3 -13
10 -2 9 7 31 50 49 95 17 45 35 86 39 90 4 5 26 4 48 -2 l40 -11 -20 -93 c-20
-95 -71 -218 -114 -274 -31 -40 -106 -86 -135 -81 -43 6 -64 51 -67 146 -5
123 31 225 124 349 25 33 42 34 79 7z m399 -52 c3 -5 15 -65 27 -133 19 -108
20 -133 10 -198 -34 -223 -142 -275 -226 -111 -47 93 -56 205 -27 345 l17 80
41 3 41 3 6 -108 c11 -181 25 -200 26 -36 l1 142 33 10 c43 12 45 12 51 3z
m5372 -477 c178 -31 319 -127 389 -266 29 -57 80 -218 71 -226 -2 -2 -19 20
-38 49 -81 122 -244 265 -373 329 -98 48 -97 30 1 -36 147 -99 278 -237 358
-377 l27 -47 -148 76 c-230 118 -282 165 -404 360 -39 61 -77 117 -85 124 -38
32 60 38 202 14z m-534 -181 l28 -6 -49 -57 c-48 -55 -187 -263 -309 -463
-174 -284 -354 -475 -553 -586 -73 -41 -226 -102 -429 -169 -219 -73 -285
-108 -382 -201 l-47 -45 15 42 c33 97 143 299 222 407 35 49 54 65 95 82 94
38 203 63 435 98 114 18 147 34 68 34 -135 0 -419 -45 -479 -77 -16 -8 -31
-12 -34 -10 -8 8 350 369 376 378 13 5 105 28 205 50 100 21 206 46 236 54
l55 15 -90 -5 c-79 -4 -252 -31 -325 -51 -30 -8 100 86 218 158 69 41 204 109
442 220 l35 17 -32 0 c-48 1 -187 -53 -351 -136 -189 -96 -257 -141 -426 -282
-25 -21 41 84 111 177 31 40 84 99 119 131 35 32 64 61 64 65 0 12 -93 -56
-149 -109 -76 -72 -143 -159 -192 -251 -30 -55 -70 -108 -134 -174 -153 -159
-330 -390 -409 -530 -20 -36 -36 -61 -36 -57 0 32 88 395 120 488 90 271 213
440 413 572 191 126 390 198 627 227 78 9 495 5 542 -6z m-5637 -53 c50 -10
126 -33 170 -52 167 -69 293 -248 348 -496 7 -31 4 -29 -26 15 -43 66 -188
213 -269 273 -76 56 -343 197 -353 187 -6 -6 55 -46 164 -107 81 -45 216 -148
271 -205 l34 -36 -100 6 c-61 4 -108 3 -118 -3 -14 -8 9 -14 93 -27 145 -22
163 -29 198 -79 35 -49 97 -160 112 -198 l10 -27 -55 33 c-30 19 -90 46 -132
61 -301 107 -377 160 -489 342 -99 162 -154 244 -194 287 l-42 45 144 0 c101
0 171 -6 234 -19z m1840 10 c-3 -5 -31 -17 -63 -26 -142 -42 -162 -86 -77
-170 19 -20 35 -44 35 -53 0 -19 -81 -161 -140 -247 -89 -130 -228 -239 -400
-315 -153 -67 -216 -99 -271 -135 -28 -19 -53 -35 -55 -35 -19 0 173 320 207
346 23 17 115 54 249 100 115 39 121 42 80 43 -40 1 -193 -33 -245 -54 -60
-24 237 244 377 340 78 54 106 80 95 91 -5 5 -181 -102 -245 -148 -29 -22 -87
-69 -130 -106 l-77 -67 29 50 c40 68 104 165 130 194 l21 24 -22 -12 c-39 -20
-144 -153 -187 -237 -22 -44 -76 -127 -119 -184 -43 -57 -99 -138 -123 -179
-39 -68 -44 -72 -44 -45 0 49 39 251 61 318 32 95 84 197 131 256 86 109 258
211 411 244 72 16 382 21 372 7z m502 -76 c619 -80 879 -342 1068 -1080 24
-93 42 -171 40 -173 -2 -2 -16 16 -31 40 -119 190 -198 290 -375 473 -102 105
-140 153 -198 250 -72 118 -179 260 -189 251 -3 -3 0 -12 7 -20 14 -17 150
-276 145 -276 -2 0 -48 33 -103 74 -109 81 -244 161 -336 199 -75 31 -205 70
-212 63 -3 -2 50 -33 118 -66 180 -90 276 -150 433 -269 170 -129 201 -155
226 -191 l20 -28 -73 28 c-103 40 -338 81 -454 80 -40 -1 -10 -15 47 -24 104
-16 333 -81 450 -127 101 -41 134 -59 173 -97 66 -64 181 -216 255 -337 59
-97 147 -273 140 -280 -2 -2 -27 25 -55 61 -107 130 -228 201 -476 280 -271
87 -384 137 -501 223 -149 109 -253 234 -401 481 -97 162 -172 267 -252 352
l-54 56 48 16 c165 53 339 67 540 41z"/>
<path d="M2186 6275 c-14 -21 -15 -29 -5 -41 14 -17 41 -18 57 -2 14 14 16 58
3 58 -5 0 -16 2 -24 6 -8 3 -21 -6 -31 -21z"/>
<path d="M2437 6246 c-12 -9 -17 -24 -15 -43 2 -23 8 -28 32 -28 31 0 59 30
41 43 -5 4 -10 14 -10 22 0 20 -26 23 -48 6z"/>
<path d="M2008 6189 c-24 -13 -23 -34 2 -59 20 -20 46 -28 35 -10 -3 6 1 7 9
4 13 -5 16 1 16 29 0 44 -25 58 -62 36z"/>
<path d="M2650 6109 c-15 -26 -6 -47 22 -58 17 -6 26 -4 35 8 17 22 16 28 -7
51 -25 25 -37 25 -50 -1z"/>
<path d="M2275 6084 c-26 -27 -15 -49 25 -49 41 0 53 28 23 50 -23 18 -28 18
-48 -1z"/>
<path d="M1855 6011 c-10 -33 4 -63 27 -59 29 4 46 33 32 56 -16 26 -51 27
-59 3z"/>
<path d="M2501 6008 c-39 -35 -19 -83 30 -71 41 10 49 21 38 53 -13 35 -42 43
-68 18z"/>
<path d="M2075 5970 c-14 -45 36 -80 65 -45 10 12 10 21 2 40 -14 31 -58 35
-67 5z"/>
<path d="M2807 5915 c-35 -26 -3 -87 37 -72 19 7 22 57 4 75 -15 15 -19 15
-41 -3z"/>
<path d="M2357 5859 c-17 -19 -17 -23 -2 -45 8 -13 23 -24 33 -24 40 0 57 52
25 76 -25 19 -36 17 -56 -7z"/>
<path d="M1740 5820 c-8 -5 -11 -10 -7 -10 4 0 3 -8 -2 -18 -13 -24 4 -42 36
-42 30 0 39 24 23 56 -14 26 -26 29 -50 14z"/>
<path d="M2612 5808 c-13 -13 -16 -57 -4 -74 21 -31 72 -17 78 22 7 45 -45 81
-74 52z"/>
<path d="M1960 5790 c0 -5 -7 -10 -15 -10 -18 0 -18 -1 -5 -35 8 -21 15 -25
37 -22 22 3 28 9 29 28 0 13 -4 30 -9 37 -11 14 -37 16 -37 2z"/>
<path d="M2190 5725 c-6 -8 -9 -18 -6 -24 3 -5 1 -11 -5 -13 -6 -2 1 -10 16
-18 25 -13 28 -13 45 9 9 13 15 32 13 42 -6 23 -45 25 -63 4z"/>
<path d="M2828 5664 c-11 -22 -10 -28 7 -40 25 -19 32 -18 45 7 9 16 8 25 -6
40 -23 25 -32 24 -46 -7z"/>
<path d="M2422 5620 c-22 -19 -27 -36 -16 -64 16 -41 93 1 79 43 -10 33 -37
42 -63 21z"/>
<path d="M1767 5624 c-13 -13 -7 -51 11 -66 12 -11 24 -13 40 -7 12 4 22 11
22 14 0 4 -4 3 -10 0 -5 -3 -10 1 -10 10 0 9 4 13 10 10 6 -4 7 2 1 17 -8 23
-49 37 -64 22z"/>
<path d="M1983 5553 c-7 -2 -13 -16 -13 -29 0 -30 44 -52 66 -33 37 31 -6 82
-53 62z"/>
<path d="M2621 5525 c-6 -18 -9 -40 -5 -49 13 -33 84 -11 84 27 0 31 -12 45
-41 50 -22 4 -28 0 -38 -28z"/>
<path d="M2238 5483 c-23 -6 -23 -25 1 -54 16 -20 23 -22 38 -13 25 15 29 45
7 61 -10 7 -20 12 -23 12 -3 -1 -14 -3 -23 -6z"/>
<path d="M2803 5443 c-20 -8 -15 -40 9 -57 15 -11 26 -12 40 -5 44 24 -2 82
-49 62z"/>
<path d="M1836 5384 c-17 -17 -10 -40 18 -64 13 -10 20 -9 41 4 30 20 31 26 5
54 -25 26 -43 28 -64 6z"/>
<path d="M2446 5364 c-20 -19 -20 -38 -2 -54 18 -14 62 -9 59 8 -2 6 0 11 5
11 20 -3 21 3 6 26 -19 29 -45 32 -68 9z"/>
<path d="M2050 5315 l-23 -25 23 -20 c26 -23 50 -26 68 -8 17 17 15 42 -6 61
-25 23 -34 21 -62 -8z"/>
<path d="M2632 5260 c-18 -30 0 -50 36 -41 20 6 27 14 27 32 0 33 -44 39 -63
9z"/>
<path d="M2286 5224 c-31 -30 -15 -64 30 -64 19 0 29 47 14 65 -16 19 -25 19
-44 -1z"/>
<path d="M2070 5143 c0 -26 18 -42 41 -36 31 9 21 47 -13 51 -22 3 -28 -1 -28
-15z"/>
<path d="M2480 5142 l-22 -17 21 -19 c25 -23 51 -14 51 18 0 31 -23 40 -50 18z"/>
<path d="M5860 4202 c-34 -35 -50 -87 -50 -170 0 -72 18 -122 51 -146 130 -90
234 197 117 321 -31 33 -82 31 -118 -5z"/>
<path d="M6780 4202 c-35 -35 -50 -87 -50 -175 0 -77 17 -127 51 -151 34 -24
64 -20 102 14 37 32 67 114 67 181 0 50 -28 127 -53 144 -35 25 -85 19 -117
-13z"/>
<path d="M6867 3673 c-4 -3 -7 -22 -7 -42 0 -31 -10 -45 -77 -111 -129 -125
-260 -178 -418 -167 -180 13 -333 107 -388 239 -16 38 -24 48 -40 46 -56 -8
-43 -82 31 -180 96 -126 251 -198 429 -198 114 0 193 19 288 68 75 40 184 135
220 193 20 31 27 35 57 31 44 -5 66 18 50 52 -19 41 -123 91 -145 69z"/>
<path d="M9483 3563 c-15 -5 -17 -39 -4 -47 16 -10 41 5 41 24 0 19 -17 30
-37 23z"/>
<path d="M9603 3553 c-18 -7 -16 -38 2 -53 20 -17 47 5 43 34 -3 21 -22 29
-45 19z"/>
<path d="M9793 3503 c-17 -6 -17 -50 0 -56 22 -8 39 8 35 33 -3 25 -14 32 -35
23z"/>
<path d="M9347 3482 c-11 -12 -13 -22 -6 -35 12 -21 27 -22 50 -1 14 13 16 21
8 35 -12 24 -31 24 -52 1z"/>
<path d="M9473 3413 c-7 -2 -13 -16 -13 -29 0 -19 5 -24 25 -24 21 0 25 5 25
30 0 29 -9 35 -37 23z"/>
<path d="M9637 3402 c-15 -16 -15 -20 -1 -40 12 -18 19 -20 35 -12 21 12 25
40 7 58 -16 16 -22 15 -41 -6z"/>
<path d="M9217 3363 c-4 -3 -7 -17 -7 -30 0 -26 34 -33 44 -8 11 30 -17 59
-37 38z"/>
<path d="M9896 3345 c-16 -41 34 -63 55 -24 9 17 8 23 -2 30 -21 13 -46 11
-53 -6z"/>
<path d="M9338 3285 c-10 -22 -9 -28 3 -36 33 -21 63 6 42 39 -16 26 -32 25
-45 -3z"/>
<path d="M9545 3260 c-15 -16 -15 -22 -5 -35 15 -18 29 -19 53 -1 18 14 18 15
0 35 -22 26 -25 26 -48 1z"/>
<path d="M9764 3256 c-14 -36 13 -57 46 -36 12 7 12 13 4 27 -15 24 -43 28
-50 9z"/>
<path d="M9200 3185 c-15 -18 -6 -45 14 -45 20 0 26 12 19 38 -6 26 -16 28
-33 7z"/>
<path d="M9454 3158 c-5 -7 -9 -25 -10 -40 -1 -23 3 -28 22 -28 20 0 24 5 24
29 0 34 -24 59 -36 39z"/>
<path d="M9940 3146 c0 -25 22 -51 33 -39 4 3 7 19 7 35 0 21 -5 28 -20 28
-14 0 -20 -7 -20 -24z"/>
<path d="M9311 3137 c-15 -19 10 -53 33 -44 21 8 21 43 0 51 -21 8 -20 8 -33
-7z"/>
<path d="M9652 3113 c-12 -24 -4 -43 18 -43 18 0 30 25 23 48 -7 18 -31 15
-41 -5z"/>
<path d="M9783 3084 c-3 -8 0 -27 6 -41 10 -23 14 -24 26 -12 13 14 19 32 16
57 -2 17 -41 15 -48 -4z"/>
<path d="M9213 3033 c-18 -7 -16 -42 3 -50 22 -8 37 11 29 36 -6 21 -11 23
-32 14z"/>
<path d="M9531 2998 c-11 -29 4 -48 33 -46 18 2 21 7 18 35 -5 40 -38 46 -51
11z"/>
<path d="M9368 2995 c-2 -3 -3 -19 0 -35 5 -34 27 -38 46 -7 9 15 7 21 -8 33
-21 15 -30 17 -38 9z"/>
<path d="M9873 2983 c-7 -2 -13 -15 -13 -28 0 -29 33 -51 47 -32 33 42 12 79
-34 60z"/>
<path d="M9720 2951 c0 -7 -6 -11 -15 -7 -20 7 -36 -24 -24 -46 14 -25 36 -22
55 8 16 23 16 26 1 42 -12 12 -17 13 -17 3z"/>
<path d="M9287 2883 c-13 -13 -7 -32 13 -38 29 -9 42 2 30 26 -11 19 -31 25
-43 12z"/>
<path d="M9424 2845 c-15 -39 27 -62 52 -28 9 13 9 22 2 30 -14 18 -47 16 -54
-2z"/>
<path d="M9577 2828 c-15 -12 -15 -15 3 -38 18 -24 19 -24 39 -6 16 14 18 23
10 37 -11 22 -28 24 -52 7z"/>
<path d="M9764 2832 c-19 -13 -23 -40 -8 -46 25 -10 33 -7 44 14 8 15 7 21 -8
29 -10 5 -23 7 -28 3z"/>
<path d="M3407 3398 c-8 -23 11 -47 33 -41 22 6 43 36 33 47 -11 11 -61 6 -66
-6z"/>
<path d="M3560 3395 c-16 -20 -5 -45 20 -45 16 0 20 7 20 30 0 33 -19 40 -40
15z"/>
<path d="M3269 3324 c-12 -14 -10 -19 10 -35 28 -23 54 -9 49 25 -4 26 -40 33
-59 10z"/>
<path d="M3711 3326 c-15 -18 -5 -56 15 -56 15 0 21 10 26 45 4 24 -24 32 -41
11z"/>
<path d="M3457 3253 c-12 -3 -17 -12 -15 -26 3 -23 34 -35 49 -20 9 9 1 54
-10 52 -3 -1 -14 -3 -24 -6z"/>
<path d="M3610 3235 c-14 -17 -5 -51 16 -59 16 -6 54 9 54 22 0 15 -32 52 -44
52 -8 0 -19 -7 -26 -15z"/>
<path d="M3140 3200 c0 -32 9 -37 39 -18 24 15 11 48 -19 48 -16 0 -20 -7 -20
-30z"/>
<path d="M3827 3213 c-13 -12 -7 -44 9 -50 20 -7 45 22 37 43 -5 14 -35 19
-46 7z"/>
<path d="M3297 3184 c-4 -4 -7 -18 -7 -31 0 -19 5 -23 31 -23 27 0 30 3 27 28
-3 26 -34 43 -51 26z"/>
<path d="M3500 3094 c-13 -34 -13 -41 5 -48 37 -14 62 33 33 62 -18 18 -27 15
-38 -14z"/>
<path d="M3743 3088 c-19 -25 -22 -47 -8 -58 24 -20 45 -4 42 31 -3 35 -18 47
-34 27z"/>
<path d="M3071 3047 c-11 -14 -6 -47 8 -47 17 1 33 19 29 35 -4 24 -22 29 -37
12z"/>
<path d="M3215 3050 c-4 -6 -4 -22 -1 -36 7 -28 43 -33 53 -8 12 32 -35 71
-52 44z"/>
<path d="M3906 3025 c-17 -17 -12 -40 10 -49 19 -7 55 29 48 49 -8 19 -38 19
-58 0z"/>
<path d="M3386 2999 c3 -5 0 -9 -5 -9 -18 0 -12 -39 8 -49 14 -8 22 -6 35 8
21 23 12 48 -19 54 -14 2 -22 0 -19 -4z"/>
<path d="M3595 2950 c-8 -14 13 -50 30 -50 15 0 30 35 20 50 -8 13 -42 13 -50
0z"/>
<path d="M3077 2893 c-13 -13 -7 -51 9 -57 23 -9 53 20 47 45 -5 18 -42 27
-56 12z"/>
<path d="M3917 2874 c-11 -11 -8 -52 3 -59 17 -10 41 16 38 39 -3 21 -28 33
-41 20z"/>
<path d="M3767 2863 c-13 -12 -7 -44 9 -50 20 -7 45 22 37 43 -5 14 -35 19
-46 7z"/>
<path d="M3254 2846 c-10 -26 1 -51 22 -54 30 -4 48 21 34 47 -12 24 -48 28
-56 7z"/>
<path d="M3469 2798 c-8 -16 -8 -24 3 -35 21 -21 50 -6 46 25 -4 32 -34 38
-49 10z"/>
<path d="M3631 2726 c-25 -30 13 -59 48 -37 10 7 11 13 2 30 -13 24 -33 27
-50 7z"/>
<path d="M3150 2705 c-18 -21 -5 -45 25 -45 14 0 28 7 31 15 7 17 -12 45 -31
45 -7 0 -18 -7 -25 -15z"/>
<path d="M3801 2696 c-9 -11 -9 -19 1 -35 16 -27 36 -23 56 9 9 14 12 22 8 18
-5 -4 -15 -1 -23 7 -18 19 -27 19 -42 1z"/>
<path d="M3322 2669 c-11 -18 -11 -23 5 -35 27 -20 42 -17 49 12 11 42 -31 60
-54 23z"/>
<path d="M3488 2579 c-22 -12 -23 -23 -2 -43 21 -22 56 -3 52 27 -3 25 -25 32
-50 16z"/>
<path d="M3670 2551 c-14 -28 -13 -31 14 -31 29 0 39 12 30 34 -8 22 -31 20
-44 -3z"/>
<path d="M3300 2525 c0 -29 21 -33 44 -9 20 20 12 34 -20 34 -19 0 -24 -5 -24
-25z"/>
<path d="M6419 6952 c-173 -179 -269 -289 -269 -309 0 -23 18 -43 41 -43 9 0
45 33 80 72 35 40 117 128 182 195 113 119 130 146 105 171 -24 24 -46 10
-139 -86z"/>
<path d="M8462 7028 c-7 -7 -12 -20 -12 -29 0 -18 313 -394 336 -403 20 -8 42
3 49 25 7 23 -37 83 -208 282 -115 133 -139 151 -165 125z"/>
<path d="M9650 6736 c-133 -37 -234 -132 -264 -248 -13 -49 -15 -53 -42 -51
-16 2 -65 3 -109 5 -130 3 -217 -48 -269 -157 l-23 -47 -104 -2 c-86 -1 -111
-5 -145 -23 -140 -75 -184 -201 -99 -283 59 -57 70 -58 898 -59 l747 -1 0 42
0 43 -758 1 c-809 0 -816 0 -848 49 -14 21 -14 27 0 54 46 89 200 130 297 80
23 -11 47 -18 54 -15 7 2 18 29 25 60 20 97 76 155 170 175 81 17 169 -11 212
-69 42 -57 95 -25 68 41 -29 69 7 196 72 256 40 38 127 75 187 80 91 9 162
-17 227 -81 68 -68 90 -134 80 -243 -7 -89 4 -99 65 -57 28 19 56 29 95 32
l54 4 0 45 0 45 -46 -7 c-26 -3 -52 -9 -59 -11 -8 -4 -15 10 -20 43 -20 136
-105 249 -218 291 -66 25 -173 28 -247 8z"/>
<path d="M7156 6711 c-19 -29 -136 -440 -136 -475 0 -27 25 -41 54 -30 9 3 23
30 32 63 9 31 38 132 65 225 56 189 58 219 17 224 -14 2 -29 -1 -32 -7z"/>
<path d="M7852 6698 c-7 -7 -12 -22 -12 -33 0 -35 107 -445 120 -461 29 -34
75 1 66 50 -19 98 -111 424 -124 439 -18 20 -33 22 -50 5z"/>
<path d="M185 3343 c-68 -35 -130 -116 -155 -200 -7 -23 -17 -40 -23 -36 -16
10 -1 -200 21 -299 l20 -86 -24 -6 c-20 -5 -24 -13 -24 -46 0 -22 2 -40 4 -40
2 0 23 8 47 17 68 26 247 23 319 -5 228 -89 350 -335 295 -595 -8 -37 -27 -91
-42 -120 -37 -69 -145 -178 -210 -211 -106 -53 -238 -69 -346 -41 -32 8 -60
15 -62 15 -3 0 -5 -137 -5 -304 l0 -305 37 -30 37 -30 -13 -248 c-7 -136 -16
-252 -20 -256 -4 -4 -14 12 -22 35 -13 41 -14 35 -17 -126 -2 -129 1 -173 11
-183 9 -10 11 -32 5 -90 -3 -43 -7 -95 -7 -115 -1 -37 0 -38 34 -38 33 0 35 2
35 33 0 46 28 479 40 622 5 66 10 170 10 230 0 61 4 115 8 120 4 6 21 15 39
21 27 10 31 10 28 -5 -1 -9 -5 -149 -9 -311 -6 -287 -13 -505 -21 -642 l-4
-68 34 0 c30 0 35 3 35 24 0 14 18 44 45 74 59 66 183 127 370 183 130 38 249
90 319 138 61 41 167 156 247 269 46 64 109 150 141 190 67 84 80 119 53 139
-26 18 -315 17 -455 -1 -274 -37 -489 -176 -594 -386 -40 -80 -57 -127 -104
-290 -11 -39 -10 13 9 495 10 242 14 285 30 317 11 21 25 62 33 90 l13 53 16
-30 c22 -43 115 -129 164 -154 127 -63 216 17 214 193 0 43 -3 92 -7 109 l-6
30 36 -21 c96 -57 242 -68 290 -23 13 13 30 37 37 53 25 60 -22 218 -83 285
l-20 21 80 1 c129 1 229 50 247 122 18 71 -55 176 -168 243 l-57 34 64 30 c69
32 149 99 172 143 20 39 17 98 -5 135 -28 46 -114 83 -221 97 l-88 11 41 46
c23 26 53 68 66 94 27 56 39 162 22 194 -40 74 -172 69 -357 -14 -7 -3 -6 17
3 63 25 118 -3 254 -58 284 -63 33 -165 -6 -247 -96 -29 -31 -52 -61 -52 -66
0 -5 -4 -9 -10 -9 -5 0 -10 15 -10 33 -1 76 -54 180 -118 230 -40 31 -64 33
-107 10z m99 -111 c60 -96 73 -227 39 -392 l-18 -85 -43 -3 -43 -3 7 120 c4
81 3 121 -3 121 -10 0 -15 -28 -29 -173 -6 -59 -9 -68 -29 -73 -49 -12 -59 -3
-73 71 -8 40 -12 114 -10 175 4 120 22 171 83 239 50 55 85 56 119 3z m418
-92 c56 -110 -24 -357 -154 -477 l-23 -21 -30 24 c-28 22 -29 25 -16 46 22 35
77 150 86 178 16 50 -24 0 -65 -83 -47 -93 -70 -115 -106 -98 -13 6 -24 15
-24 20 0 5 12 48 26 97 46 159 131 291 216 333 55 27 69 24 90 -19z m366 -299
c5 -52 -48 -150 -123 -225 -47 -48 -87 -77 -154 -111 -50 -25 -93 -45 -96 -45
-2 0 -13 17 -24 39 l-20 38 84 58 c79 54 127 95 111 95 -13 0 -71 -33 -144
-82 -71 -48 -74 -49 -98 -34 -13 9 -24 21 -24 27 0 6 39 50 88 97 121 122 242
183 347 179 49 -2 50 -3 53 -36z m89 -366 c113 -34 133 -85 59 -153 -95 -87
-235 -130 -380 -117 l-74 7 -5 41 c-3 24 -1 44 5 48 5 3 35 9 66 12 66 7 182
45 141 46 -14 1 -50 -3 -80 -8 -30 -5 -75 -12 -100 -15 -46 -5 -47 -5 -53 27
-8 38 2 47 83 78 137 51 244 62 338 34z m-194 -360 c119 -31 219 -97 258 -169
22 -43 23 -46 6 -64 -21 -23 -117 -52 -174 -52 -80 0 -308 77 -329 112 -10 16
17 78 34 78 9 0 50 -11 90 -25 75 -25 128 -32 118 -16 -4 5 -53 24 -111 42
-76 24 -104 37 -100 47 3 8 5 25 5 38 0 23 2 24 73 24 40 0 99 -7 130 -15z
m-189 -282 c100 -53 185 -140 219 -226 15 -37 27 -85 27 -106 0 -35 -4 -40
-30 -50 -99 -34 -291 76 -393 226 l-29 42 23 30 c13 17 27 31 32 31 5 0 37
-22 71 -48 70 -55 143 -102 132 -84 -4 7 -45 44 -92 82 -46 39 -84 77 -84 83
0 17 29 57 42 57 5 0 42 -17 82 -37z m-199 -241 c89 -139 118 -283 79 -382
-14 -35 -20 -40 -48 -40 -34 0 -107 41 -143 81 -57 64 -117 196 -129 289 -6
42 -4 49 17 64 31 21 58 20 65 -1 15 -45 78 -173 85 -173 9 0 -13 79 -42 154
-11 27 -18 49 -17 50 2 1 16 12 32 24 16 13 34 21 39 19 6 -2 34 -40 62 -85z
m-453 -2 l30 0 -7 -135 c-4 -86 -4 -135 3 -135 15 0 22 53 22 160 l0 98 46 4
c26 2 48 -1 50 -7 10 -28 18 -197 12 -250 -14 -111 -94 -235 -152 -235 -50 0
-104 100 -113 209 -4 49 0 97 17 177 25 124 27 127 47 120 8 -3 28 -6 45 -6z
m1208 -641 c0 -4 -7 -12 -15 -19 -8 -7 -58 -73 -112 -149 -53 -75 -135 -175
-182 -222 -107 -106 -183 -147 -408 -218 -89 -28 -192 -67 -228 -86 -36 -18
-62 -28 -59 -22 56 97 147 217 212 280 67 65 85 77 113 77 19 0 81 11 139 24
58 13 109 21 114 18 5 -3 6 0 2 6 -9 15 -89 15 -155 1 -28 -6 -60 -9 -71 -7
-43 6 198 147 341 198 82 30 132 60 99 60 -35 0 -262 -85 -340 -127 -167 -89
-326 -227 -413 -358 -34 -50 -34 -36 -1 57 63 177 161 304 294 381 95 55 236
98 350 106 119 8 320 8 320 0z"/>
<path d="M80 2585 c-7 -8 -10 -22 -6 -30 7 -20 40 -19 57 1 11 14 10 18 -6 30
-24 18 -30 18 -45 -1z"/>
<path d="M263 2589 c-15 -15 -5 -39 16 -39 23 0 41 19 34 36 -6 17 -35 18 -50
3z"/>
<path d="M411 2526 c-17 -20 3 -56 29 -56 21 0 37 40 25 59 -9 16 -41 13 -54
-3z"/>
<path d="M156 2461 c-17 -19 -17 -20 9 -37 24 -16 27 -16 43 0 13 13 14 20 6
34 -16 24 -37 26 -58 3z"/>
<path d="M324 2411 c-12 -8 -11 -38 1 -50 13 -13 55 -3 55 13 -1 30 -35 53
-56 37z"/>
<path d="M503 2403 c-17 -6 -17 -34 0 -57 16 -22 47 -11 47 18 0 12 -5 27 -12
34 -13 13 -16 13 -35 5z"/>
<path d="M0 2327 c0 -27 4 -37 15 -37 26 0 29 30 6 53 l-21 21 0 -37z"/>
<path d="M188 2275 c-9 -21 -9 -29 4 -42 21 -21 48 -10 48 20 0 23 -16 47 -32
47 -5 0 -14 -11 -20 -25z"/>
<path d="M389 2233 c-13 -35 0 -58 32 -58 21 0 24 4 22 34 -1 31 -15 50 -36
51 -4 0 -12 -12 -18 -27z"/>
<path d="M565 2188 c-8 -23 11 -49 31 -41 8 3 14 15 14 28 0 30 -37 41 -45 13z"/>
<path d="M75 2121 c-30 -24 -25 -46 10 -46 25 0 31 4 33 26 4 33 -17 42 -43
20z"/>
<path d="M252 2077 c-16 -18 -3 -57 18 -57 27 0 46 28 33 48 -13 22 -37 26
-51 9z"/>
<path d="M411 2041 c-9 -6 -11 -18 -7 -35 8 -32 41 -35 57 -4 10 18 8 24 -7
35 -21 15 -24 16 -43 4z"/>
<path d="M552 1998 c-14 -14 -16 -45 -3 -52 16 -10 41 5 41 24 0 26 -23 43
-38 28z"/>
<path d="M120 1955 c-18 -21 -5 -47 22 -43 26 3 37 36 16 49 -18 12 -24 11
-38 -6z"/>
<path d="M286 1887 c-15 -11 -17 -17 -7 -35 15 -29 49 -28 60 1 16 43 -14 63
-53 34z"/>
<path d="M420 1835 c-11 -13 -11 -19 3 -32 14 -15 18 -15 42 1 14 10 24 23 22
29 -6 19 -52 20 -67 2z"/>
<path d="M27 1823 c-4 -3 -7 -17 -7 -30 0 -17 6 -23 22 -23 27 0 58 28 51 46
-5 14 -54 20 -66 7z"/>
<path d="M152 1768 c-16 -16 -15 -33 2 -47 18 -15 46 -4 46 18 0 17 -18 41
-30 41 -3 0 -11 -5 -18 -12z"/>
</g>
</svg>
