<?xml version="1.0" encoding="UTF-8" standalone="yes"?>
<svg version="1.0" xmlns="http://www.w3.org/2000/svg" width="1024.000000pt" height="1024.000000pt" viewBox="0 0 1024.000000 1024.000000" preserveAspectRatio="xMidYMid meet">
  <metadata>
Created by potrace 1.16, written by Peter Selinger 2001-2019
</metadata>
  <g transform="translate(0.000000,1024.000000) scale(0.100000,-0.100000)" fill="#000000" stroke="none">
    <path d="M5002 9660 c-10 -11 -26 -46 -36 -77 -30 -99 -92 -214 -177 -328&#xA;-159 -216 -201 -313 -203 -470 -1 -135 25 -207 104 -286 65 -66 132 -102 219&#xA;-120 l62 -13 -3 -51 -3 -50 -80 -6 c-87 -6 -115 -17 -139 -51 -14 -19 -16 -80&#xA;-16 -449 l0 -426 -25 -11 c-20 -9 -34 -7 -79 13 -199 88 -482 90 -659 5 -27&#xA;-13 -39 -15 -42 -7 -2 7 -6 71 -10 142 -3 72 -10 209 -15 305 -26 485 -21 450&#xA;-71 476 -26 13 -50 15 -121 11 l-88 -5 0 52 c0 53 0 53 35 59 60 10 142 56&#xA;190 108 127 136 155 351 78 589 -46 143 -153 311 -293 463 -136 147 -155 142&#xA;-218 -54 -30 -95 -64 -175 -118 -274 -120 -221 -143 -291 -145 -430 -3 -225&#xA;117 -374 326 -407 l75 -12 0 -51 0 -52 -51 -6 c-66 -8 -153 -48 -174 -81 -18&#xA;-27 -18 -107 0 -381 3 -38 9 -151 15 -250 6 -99 12 -201 15 -227 l4 -48 -41 0&#xA;c-76 0 -212 -46 -260 -87 -13 -12 -21 -12 -38 -3 -51 27 -191 69 -269 81 -109&#xA;15 -273 6 -371 -21 -105 -29 -244 -100 -322 -164 -300 -248 -356 -688 -121&#xA;-963 l44 -52 -1 -1818 c-1 -1359 1 -1831 10 -1871 7 -30 26 -71 44 -95 36 -47&#xA;118 -113 150 -120 12 -2 199 -61 416 -130 217 -69 512 -159 655 -201 143 -42&#xA;276 -81 295 -86 186 -54 632 -180 975 -274 1542 -423 2679 -714 3150 -807 178&#xA;-34 219 -36 263 -9 59 36 63 61 61 348 -2 176 2 318 14 452 39 457 83 1022 92&#xA;1200 3 63 8 133 10 155 2 22 7 108 11 190 6 144 8 152 36 193 70 102 75 233&#xA;15 356 -33 66 -34 69 -17 86 20 20 29 122 46 505 3 77 16 286 29 465 13 179&#xA;27 378 31 442 6 100 9 118 25 123 31 10 100 86 121 133 13 29 21 68 21 106 1&#xA;94 -33 158 -140 263 -126 123 -509 471 -644 585 -139 117 -489 380 -616 463&#xA;-51 33 -92 63 -93 67 0 4 11 23 24 42 57 84 62 251 11 345 -56 102 -183 189&#xA;-313 214 l-59 11 4 65 c2 37 8 219 13 406 9 323 9 341 -9 365 -22 31 -77 48&#xA;-153 49 -64 1 -64 1 -52 73 6 33 10 37 52 48 274 69 384 394 255 753 -53 149&#xA;-160 332 -258 445 -69 78 -102 70 -140 -33 -30 -84 -69 -154 -161 -290 -105&#xA;-158 -158 -262 -180 -362 -55 -247 77 -467 308 -515 43 -9 57 -16 53 -26 -3&#xA;-7 -5 -29 -5 -48 l0 -34 -67 0 c-91 -1 -144 -14 -169 -43 -19 -22 -22 -42 -28&#xA;-198 -9 -248 -16 -396 -22 -536 l-6 -123 -63 0 c-35 0 -92 -9 -128 -20 l-65&#xA;-20 -55 25 c-100 46 -211 68 -312 62 -49 -3 -97 -7 -105 -9 -13 -3 -16 48 -20&#xA;393 -4 309 -8 399 -18 412 -20 23 -67 36 -152 40 l-75 4 -3 51 -3 51 48 7&#xA;c118 17 232 91 287 188 130 224 81 580 -119 881 -67 101 -190 235 -216 235&#xA;-10 0 -27 -9 -37 -20z m179 -252 c114 -166 172 -326 185 -508 11 -149 -39&#xA;-298 -125 -372 -33 -28 -128 -74 -137 -66 -1 2 8 41 22 87 39 134 30 239 -32&#xA;366 -25 52 -54 78 -76 69 -22 -9 -91 -126 -111 -189 -25 -79 -28 -232 -4 -292&#xA;20 -53 13 -54 -71 -12 -100 50 -159 139 -169 258 -11 131 37 244 192 461 113&#xA;158 133 194 189 345 7 18 11 17 42 -19 19 -22 62 -80 95 -128z m-1600 60 c94&#xA;-109 131 -159 180 -240 91 -150 129 -286 124 -437 -3 -84 -7 -101 -39 -167&#xA;-35 -71 -83 -122 -144 -153 -31 -16 -33 -13 -22 34 15 62 12 195 -6 260 -21&#xA;82 -75 179 -102 183 -17 3 -29 -12 -69 -94 l-48 -98 0 -110 c1 -76 6 -124 17&#xA;-153 15 -41 15 -43 -4 -43 -38 0 -128 52 -167 96 -54 62 -75 128 -74 234 1&#xA;119 12 147 160 430 39 75 83 176 98 228 16 50 31 92 35 92 4 0 32 -28 61 -62z&#xA;m2894 -38 c63 -90 144 -249 173 -340 54 -171 56 -323 4 -433 -35 -75 -96 -141&#xA;-155 -167 -23 -10 -43 -17 -45 -16 -2 2 4 32 13 67 25 94 16 182 -29 299 -20&#xA;52 -44 102 -52 110 -13 13 -18 11 -43 -19 -83 -97 -118 -248 -91 -391 6 -29 8&#xA;-55 6 -57 -8 -9 -74 26 -110 57 -83 73 -122 211 -96 342 18 92 56 168 165 329&#xA;91 133 154 246 168 300 5 19 8 20 22 9 9 -7 40 -48 70 -90z m-1407 -591 c30&#xA;-85 27 -211 -9 -314 -21 -61 -27 -70 -50 -73 -23 -3 -29 3 -44 40 -24 60 -29&#xA;131 -16 216 13 84 64 206 83 200 7 -3 23 -33 36 -69z m1332 -49 c26 -77 27&#xA;-153 4 -258 -16 -73 -16 -73 -47 -70 -27 3 -33 9 -43 43 -16 52 -17 169 -3&#xA;237 14 63 47 134 59 122 4 -5 18 -38 30 -74z m-2793 4 c17 -46 22 -82 22 -163&#xA;1 -57 -4 -121 -11 -142 -10 -35 -14 -39 -44 -39 -32 0 -34 3 -50 56 -24 82&#xA;-16 221 15 297 14 31 30 56 35 54 6 -2 21 -30 33 -63z m2773 -604 c182 -20&#xA;170 -16 170 -63 0 -39 -4 -45 -58 -88 -135 -108 -243 -170 -324 -183 -37 -7&#xA;-38 -6 -33 21 2 15 7 94 11 175 7 176 -12 165 234 138z m-2585 -69 l0 -55&#xA;-105 -83 c-94 -74 -207 -141 -266 -158 -21 -6 -22 -2 -29 107 -4 62 -5 135 -3&#xA;163 3 49 4 49 43 58 62 13 202 25 285 23 l75 -1 0 -54z m1378 53 c37 -7 37 -7&#xA;37 -55 l0 -48 -92 -81 c-89 -78 -211 -150 -280 -166 l-27 -6 -3 177 c-2 97 -1&#xA;179 1 181 7 6 322 4 364 -2z m-1361 -216 c3 -24 6 -82 7 -129 l2 -86 -84 -77&#xA;c-46 -42 -108 -95 -138 -117 -53 -40 -168 -104 -174 -97 -2 2 -7 70 -12 152&#xA;-7 128 -6 149 7 153 67 23 192 96 275 162 55 44 103 80 106 80 4 1 9 -18 11&#xA;-41z m1399 -103 l1 -139 -43 -38 c-96 -85 -253 -177 -326 -193 l-33 -7 0 140&#xA;0 140 35 6 c61 12 189 84 267 150 42 36 79 70 83 76 4 6 9 10 11 8 1 -2 4 -66&#xA;5 -143z m1331 10 l-3 -134 -47 -42 c-108 -95 -239 -168 -345 -193 l-28 -7 7&#xA;143 c3 79 8 146 11 150 2 4 20 10 41 14 59 10 191 78 276 144 44 33 82 60 85&#xA;60 3 0 5 -61 3 -135z m-2708 -312 c4 -60 9 -141 13 -181 l6 -73 -75 -74 c-94&#xA;-92 -305 -232 -323 -214 -6 6 -25 256 -25 324 l0 50 68 32 c74 36 165 102 257&#xA;187 33 30 63 55 66 56 4 0 9 -48 13 -107z m1354 -271 c-77 -79 -231 -179 -336&#xA;-216 l-42 -15 0 184 0 185 23 0 c57 0 237 98 332 180 l50 43 3 -163 3 -164&#xA;-33 -34z m1342 211 l0 -147 -69 -68 c-81 -79 -180 -145 -273 -182 -36 -14 -69&#xA;-26 -72 -26 -8 0 -8 222 0 297 l7 60 51 12 c72 17 178 71 271 141 44 32 81 59&#xA;83 60 1 0 2 -66 2 -147z m-958 -162 c42 -11 99 -31 127 -45 61 -31 74 -32 161&#xA;-5 42 12 87 19 121 17 l54 -3 -2 -85 c-2 -47 -5 -156 -9 -244 l-6 -159 -65 6&#xA;c-35 4 -91 14 -124 23 -58 16 -60 16 -140 -10 -127 -42 -223 -50 -356 -30&#xA;l-33 5 0 269 0 269 33 4 c82 10 169 6 239 -12z m-1189 -22 c91 -13 151 -31&#xA;228 -65 50 -23 64 -25 80 -16 10 7 23 12 29 12 6 0 10 -80 10 -226 l0 -226&#xA;-27 6 c-84 19 -90 18 -179 -17 -153 -61 -286 -70 -436 -32 -35 9 -77 15 -94&#xA;12 -31 -5 -32 -5 -37 41 -7 55 -22 315 -22 387 l0 49 69 29 c125 52 243 67&#xA;379 46z m2354 -49 c77 -35 150 -101 176 -160 27 -59 27 -151 0 -211 -30 -67&#xA;-41 -72 -100 -48 l-50 22 -81 -32 c-45 -17 -85 -31 -89 -31 -4 0 -5 73 -2 162&#xA;4 90 7 203 8 251 l1 88 38 -7 c20 -3 65 -19 99 -34z m-219 -176 l-4 -134 -54&#xA;-56 c-102 -103 -224 -172 -334 -188 l-38 -5 5 77 c4 42 6 109 7 148 l0 71 70&#xA;26 c93 34 219 110 289 173 40 38 57 48 60 36 1 -8 1 -75 -1 -148z m-1364 -240&#xA;c-107 -98 -230 -163 -311 -164 l-33 0 0 155 c0 128 3 155 14 155 8 0 72 29&#xA;143 64 87 44 147 82 188 119 l60 54 3 -161 3 -161 -67 -61z m-1289 217 l7&#xA;-154 -79 -76 c-43 -42 -105 -90 -138 -108 -57 -30 -172 -69 -180 -61 -2 2 -8&#xA;65 -12 140 l-8 136 65 32 c96 47 219 133 280 195 30 30 55 53 56 52 1 -1 5&#xA;-71 9 -156z m-501 77 c8 -64 26 -364 26 -436 l0 -62 -35 0 c-18 0 -57 5 -85&#xA;11 -50 11 -52 10 -113 -30 -127 -82 -231 -107 -345 -82 -52 11 -53 10 -108&#xA;-26 -31 -21 -93 -53 -137 -73 -105 -47 -113 -65 -24 -58 64 5 180 50 217 83&#xA;12 11 25 12 55 5 126 -29 294 11 393 95 30 25 35 26 82 16 28 -6 64 -11 80&#xA;-11 30 0 30 0 30 -61 0 -33 4 -68 10 -78 5 -10 33 -29 62 -42 47 -21 68 -23&#xA;183 -23 139 1 223 20 288 66 l29 21 -4 107 c-4 105 -4 108 20 122 21 13 31 13&#xA;90 -4 108 -31 240 -34 344 -9 49 11 111 32 139 47 48 24 55 25 103 13 28 -6&#xA;57 -16 64 -22 8 -6 12 -45 12 -129 0 -118 0 -120 28 -148 41 -41 100 -54 237&#xA;-55 131 0 202 16 263 62 l32 24 0 135 0 135 48 -8 c26 -4 92 -8 147 -7 84 0&#xA;114 5 189 31 l89 30 70 -18 c39 -11 94 -19 122 -19 l52 0 -1 -129 c-1 -154 2&#xA;-161 108 -194 100 -31 244 -31 343 1 47 14 78 30 87 45 15 23 24 87 25 195 1&#xA;40 5 62 13 62 6 0 42 14 78 31 l67 31 51 -26 c116 -59 472 -311 707 -501 324&#xA;-261 797 -701 836 -777 49 -95 3 -213 -106 -271 -36 -20 -55 -22 -190 -21&#xA;-121 0 -165 4 -230 22 -114 31 -208 64 -300 107 -220 102 -312 113 -605 70&#xA;-149 -22 -208 -26 -305 -22 -155 6 -219 28 -411 143 -247 147 -330 164 -619&#xA;124 -307 -42 -417 -29 -613 72 -220 115 -245 126 -308 142 -89 22 -166 20&#xA;-344 -11 -280 -48 -470 -37 -610 36 -30 15 -103 53 -162 83 -126 65 -237 93&#xA;-326 84 -31 -4 -82 -9 -112 -12 -30 -3 -74 -7 -98 -10 -65 -7 -196 13 -364 55&#xA;-156 39 -182 41 -193 13 -24 -64 -45 -645 -39 -1112 5 -339 11 -421 32 -442 6&#xA;-6 49 -13 94 -15 119 -4 229 -21 325 -49 93 -27 116 -37 285 -131 135 -75 262&#xA;-120 366 -132 91 -9 155 -6 302 16 223 33 315 20 460 -67 180 -106 298 -150&#xA;407 -150 l60 0 31 -82 c81 -212 228 -347 430 -394 116 -28 258 -4 371 63 60&#xA;35 155 125 193 185 17 26 34 48 37 48 4 0 21 -23 40 -51 l33 -51 -22 -23 c-13&#xA;-13 -20 -31 -17 -39 5 -12 17 -11 76 10 56 20 82 23 121 18 105 -14 180 -93&#xA;180 -189 0 -55 -10 -77 -58 -128 -55 -56 -125 -79 -239 -76 -51 2 -96 -1 -100&#xA;-5 -13 -13 40 -45 96 -57 146 -30 320 56 361 181 11 34 18 40 49 45 186 30&#xA;312 112 418 274 1 2 62 -14 135 -35 124 -36 142 -39 263 -39 100 0 156 6 245&#xA;25 72 15 147 24 200 24 82 0 89 -2 190 -51 132 -63 138 -65 239 -72 l85 -6 24&#xA;-60 c17 -41 26 -85 29 -140 3 -69 0 -86 -20 -124 -29 -57 -64 -82 -124 -91&#xA;-72 -11 -160 5 -295 55 -173 64 -255 73 -413 44 -183 -33 -257 -35 -356 -9&#xA;-152 40 -169 43 -176 36 -13 -13 67 -74 124 -96 115 -43 174 -45 359 -15 214&#xA;35 260 32 422 -29 144 -54 231 -71 324 -63 l68 6 0 -52 c0 -29 -5 -117 -10&#xA;-197 -5 -80 -12 -181 -15 -225 -25 -374 -101 -1356 -110 -1422 -6 -39 -9 -43&#xA;-33 -43 -73 1 -329 46 -593 104 -247 55 -1958 480 -2314 574 -60 17 -231 62&#xA;-380 102 -451 120 -1028 278 -1315 361 -588 170 -786 232 -797 246 -7 9 -13&#xA;44 -14 77 0 34 -2 70 -5 81 -2 11 -4 216 -4 455 0 449 13 817 31 835 17 17&#xA;245 11 324 -9 41 -10 148 -57 255 -111 102 -51 216 -102 253 -114 113 -34 230&#xA;-45 354 -32 295 31 304 32 385 21 45 -6 124 -27 177 -47 197 -72 263 -93 297&#xA;-93 60 0 36 21 -96 88 -252 127 -389 151 -666 117 -172 -21 -303 -16 -412 14&#xA;-39 12 -154 63 -255 114 -100 51 -213 101 -252 111 -90 24 -306 33 -381 17&#xA;-57 -13 -54 -10 -70 -87 -21 -106 -26 -1302 -6 -1413 6 -36 20 -73 29 -82 10&#xA;-9 86 -38 168 -63 83 -25 218 -66 300 -92 673 -206 1843 -523 3075 -833 1288&#xA;-323 1635 -401 1863 -418 l87 -6 -1 -151 c-1 -190 -4 -200 -52 -204 -78 -7&#xA;-330 48 -1061 229 -263 65 -508 128 -545 138 -36 10 -147 40 -246 66 -454 119&#xA;-1008 268 -1500 403 -159 44 -344 95 -410 112 -374 99 -1230 355 -1730 516&#xA;-175 57 -205 69 -238 102 -44 43 -57 63 -69 112 -4 19 -8 861 -8 1870 l1 1836&#xA;-41 44 c-58 64 -95 126 -119 196 -96 287 58 607 363 754 123 59 213 80 346 80&#xA;166 0 342 -48 436 -120 22 -16 47 -30 57 -30 25 0 32 26 13 55 -9 13 -16 27&#xA;-16 29 0 20 160 74 222 75 36 1 37 0 42 -41z m3141 -445 c-4 -93 -11 -173 -17&#xA;-180 -5 -7 -44 -20 -86 -29 -65 -15 -90 -16 -164 -6 -48 6 -100 17 -115 24&#xA;-26 12 -28 19 -31 74 l-3 62 78 17 c43 10 98 28 123 40 52 26 154 101 189 139&#xA;14 14 26 26 29 26 2 0 1 -75 -3 -167z m-2617 -195 c-25 -54 -324 -76 -394 -30&#xA;-6 4 -14 35 -17 68 l-6 62 67 17 c94 23 192 78 270 150 l67 63 10 -157 c6 -86&#xA;7 -164 3 -173z m1341 134 l2 -133 -48 -22 c-41 -18 -66 -21 -168 -22 -75 0&#xA;-134 5 -157 13 l-38 14 0 68 0 68 43 7 c23 3 64 13 91 22 51 16 207 115 241&#xA;153 l20 22 6 -28 c3 -16 7 -89 8 -162z m-2608 -641 c213 -55 276 -59 579 -35&#xA;94 8 173 -11 279 -66 211 -111 258 -131 356 -151 123 -25 237 -22 465 16 255&#xA;41 333 32 495 -60 283 -161 440 -193 724 -148 58 9 165 17 236 17 156 1 182&#xA;-6 345 -101 63 -36 138 -79 165 -95 149 -84 353 -108 591 -69 327 53 395 48&#xA;591 -44 225 -107 440 -159 631 -153 l112 3 0 -45 c0 -25 -6 -130 -14 -235 -8&#xA;-104 -17 -230 -20 -280 -4 -49 -10 -155 -16 -235 -9 -137 -11 -191 -26 -505&#xA;-3 -71 -9 -134 -14 -139 -4 -4 -48 -6 -97 -4 -81 3 -96 7 -200 55 -177 82&#xA;-226 85 -483 31 -149 -31 -268 -28 -420 12 -69 18 -127 35 -129 36 -2 2 6 29&#xA;18 61 31 85 42 155 42 276 0 129 -18 211 -71 322 -69 144 -192 254 -324 290&#xA;-47 13 -89 16 -154 13 -79 -4 -99 -9 -165 -41 -91 -45 -163 -108 -227 -199&#xA;l-48 -68 -22 55 c-50 124 -166 253 -279 314 -210 111 -435 70 -616 -113 -139&#xA;-139 -206 -309 -208 -525 l-2 -113 -64 6 c-83 9 -185 45 -275 98 -254 149&#xA;-315 160 -641 113 -218 -31 -355 -2 -569 119 -217 123 -354 165 -594 182&#xA;l-102 7 0 401 c0 467 19 1026 35 1026 1 0 53 -13 116 -29z m2863 -1229 c135&#xA;-63 250 -206 297 -370 87 -299 -44 -633 -295 -758 -62 -30 -88 -37 -158 -41&#xA;-154 -10 -269 37 -380 156 -203 216 -212 593 -23 853 57 78 183 167 269 189&#xA;17 5 74 7 127 5 83 -2 105 -7 163 -34z m996 -114 c88 -43 159 -117 209 -220&#xA;53 -108 71 -182 71 -289 0 -315 -174 -558 -436 -608 l-40 -8 -18 51 c-39 109&#xA;-169 193 -284 184 -53 -5 -54 -4 -78 33 -13 21 -37 53 -53 71 l-29 33 26 75&#xA;c23 67 26 93 28 233 l2 157 40 68 c79 133 174 211 301 248 75 22 183 10 261&#xA;-28z"/>
    <path d="M5162 5999 c9 -28 189 -69 523 -118 118 -18 389 -59 820 -127 899&#xA;-141 1214 -185 1375 -191 116 -5 137 -3 149 10 16 21 28 18 -284 62 -371 53&#xA;-708 103 -810 120 -49 8 -164 26 -255 39 -154 24 -552 84 -926 141 -228 35&#xA;-426 62 -518 70 -64 6 -78 5 -74 -6z"/>
    <path d="M4820 3360 c-56 -27 -77 -46 -101 -92 -22 -43 -25 -78 -6 -78 7 0 29&#xA;16 48 36 62 65 61 65 157 -28 188 -180 442 -311 687 -353 180 -31 393 -5 545&#xA;66 78 36 110 64 110 96 0 30 -8 29 -80 -7 -32 -16 -99 -42 -147 -57 -80 -24&#xA;-104 -27 -253 -27 -151 -1 -174 2 -264 27 -185 51 -404 174 -546 306 l-65 60&#xA;48 1 c34 0 49 5 54 16 18 47 -109 70 -187 34z"/>
    <path d="M3880 3175 c-10 -12 -10 -18 0 -30 25 -30 67 -7 49 27 -12 22 -32 23&#xA;-49 3z"/>
    <path d="M3054 3125 c-8 -19 3 -35 26 -35 19 0 34 25 24 41 -8 14 -44 10 -50&#xA;-6z"/>
    <path d="M3363 2768 c-43 -21 -23 -78 27 -78 47 0 66 42 34 74 -18 18 -30 19&#xA;-61 4z"/>
    <path d="M7427 2596 c-8 -20 19 -47 39 -39 22 8 13 47 -12 51 -12 2 -24 -4&#xA;-27 -12z"/>
    <path d="M4224 2425 c-9 -23 3 -45 26 -45 25 0 37 25 20 45 -16 19 -39 19 -46&#xA;0z"/>
    <path d="M6966 2338 c-24 -33 -20 -57 10 -64 32 -8 54 12 57 52 2 25 -2 29&#xA;-25 32 -18 2 -31 -4 -42 -20z"/>
    <path d="M5405 2146 c-13 -19 -14 -29 -5 -45 23 -44 89 -6 76 44 -9 34 -49 34&#xA;-71 1z"/>
    <path d="M6477 2043 c-12 -11 -7 -41 7 -46 21 -8 50 17 43 37 -6 16 -38 22&#xA;-50 9z"/>
    <path d="M7280 1966 c-18 -22 -5 -48 22 -44 17 2 23 10 23 28 0 29 -26 38 -45&#xA;16z"/>
    <path d="M2860 5436 c-18 -22 -5 -48 22 -44 17 2 23 10 23 28 0 29 -26 38 -45&#xA;16z"/>
    <path d="M5315 5323 c-112 -25 -207 -77 -303 -167 -66 -62 -104 -113 -114&#xA;-153 -8 -30 16 -30 57 -2 50 34 197 106 255 125 42 13 92 18 214 19 153 1 159&#xA;1 177 24 40 49 16 110 -55 142 -30 14 -63 18 -126 18 -47 -1 -94 -3 -105 -6z"/>
    <path d="M6304 5181 c-31 -14 -74 -69 -74 -96 0 -32 18 -40 118 -54 151 -22&#xA;244 -65 370 -172 66 -55 75 -60 89 -46 13 12 13 21 4 50 -37 110 -169 248&#xA;-279 292 -71 29 -191 42 -228 26z"/>
    <path d="M4062 5159 c-18 -7 -22 -14 -17 -31 11 -34 21 -41 49 -34 19 5 26 13&#xA;26 31 0 30 -27 46 -58 34z"/>
    <path d="M3126 5094 c-9 -8 -16 -26 -16 -39 0 -23 23 -55 40 -55 37 0 54 82&#xA;21 100 -25 13 -27 13 -45 -6z"/>
    <path d="M3632 4718 c-16 -16 -15 -33 3 -48 12 -10 18 -10 30 0 20 16 19 46&#xA;-1 54 -20 8 -18 8 -32 -6z"/>
    <path d="M7544 4646 c-10 -26 4 -48 28 -44 17 2 23 10 23 28 0 18 -6 26 -23&#xA;28 -13 2 -25 -3 -28 -12z"/>
    <path d="M7312 4388 c-30 -30 -4 -94 35 -86 14 3 18 13 18 48 0 37 -3 45 -20&#xA;48 -11 1 -26 -3 -33 -10z"/>
    <path d="M5293 4370 c-59 -24 -102 -151 -83 -250 11 -59 30 -92 72 -123 40&#xA;-30 112 -16 155 29 77 82 70 267 -12 332 -29 23 -90 29 -132 12z"/>
    <path d="M6144 4301 c-69 -43 -104 -117 -104 -220 1 -123 50 -188 136 -178 77&#xA;8 128 79 140 193 8 76 -8 136 -49 180 -40 43 -81 51 -123 25z"/>
  </g>
  <title>Birthday Cake Candles</title>
  <desc>Birthday Cake Candles</desc>
</svg>