<?xml version="1.0" encoding="UTF-8" standalone="yes"?>
<svg version="1.0" xmlns="http://www.w3.org/2000/svg" width="1024.000000pt" height="1024.000000pt" viewBox="0 0 1024.000000 1024.000000" preserveAspectRatio="xMidYMid meet">
  <metadata>
Created by potrace 1.16, written by Peter Selinger 2001-2019
</metadata>
  <g transform="translate(0.000000,1024.000000) scale(0.100000,-0.100000)" fill="#000000" stroke="none">
    <path d="M4832 9559 c-439 -49 -814 -251 -1071 -573 -32 -41 -75 -102 -97&#xA;-137 -44 -74 -51 -80 -84 -74 -288 56 -625 -17 -888 -192 -259 -172 -450 -458&#xA;-510 -767 l-18 -89 -90 -22 c-324 -82 -634 -326 -843 -662 -230 -371 -341&#xA;-842 -281 -1186 55 -311 198 -546 460 -759 71 -57 247 -150 345 -182 50 -16&#xA;95 -33 101 -38 7 -5 19 -39 28 -75 20 -80 71 -193 117 -260 35 -51 143 -163&#xA;158 -163 11 0 22 -44 76 -300 9 -41 38 -172 65 -290 88 -385 145 -648 210&#xA;-967 63 -309 185 -819 244 -1023 70 -245 101 -321 148 -363 159 -144 682 -324&#xA;1168 -401 363 -59 565 -76 950 -83 478 -8 838 9 1290 63 324 38 430 61 744&#xA;166 116 38 347 144 448 205 97 59 201 150 194 170 -3 8 -2 12 3 9 5 -3 16 4&#xA;24 17 37 57 163 511 247 892 9 44 36 163 60 265 23 102 55 244 70 315 15 72&#xA;64 294 108 495 77 344 157 720 168 786 7 46 55 278 57 280 1 1 31 10 66 19 91&#xA;23 261 100 350 158 207 135 332 275 432 482 180 375 152 813 -74 1150 -84 125&#xA;-286 298 -393 335 l-30 11 4 122 c7 211 -36 383 -138 554 -190 315 -531 513&#xA;-886 513 l-91 0 -6 43 c-9 63 -50 185 -95 280 -72 152 -212 321 -345 418 -253&#xA;184 -563 237 -840 143 -39 -13 -72 -24 -74 -24 -1 0 -17 28 -34 63 -87 172&#xA;-243 350 -399 453 -160 107 -312 164 -552 209 -105 19 -382 27 -496 14z m464&#xA;-94 c233 -37 432 -117 591 -237 132 -99 263 -261 335 -413 43 -94 42 -93 161&#xA;-57 196 61 334 66 500 17 283 -82 506 -287 633 -583 33 -78 74 -219 74 -257 0&#xA;-11 7 -31 16 -43 14 -21 23 -22 129 -22 170 0 308 -32 455 -105 191 -96 377&#xA;-297 451 -490 60 -154 64 -176 64 -372 l0 -181 55 -26 c246 -113 447 -355 518&#xA;-621 47 -182 51 -351 12 -520 -68 -292 -225 -521 -464 -680 -216 -142 -436&#xA;-208 -701 -208 -137 0 -212 10 -359 46 l-89 22 -31 -40 c-52 -68 -188 -205&#xA;-246 -249 -127 -98 -288 -171 -440 -202 -65 -13 -112 -15 -205 -11 -66 3 -133&#xA;9 -150 12 -112 21 -151 31 -240 62 -86 30 -179 77 -301 154 l-32 20 -83 -91&#xA;c-212 -230 -481 -414 -779 -533 -385 -154 -870 -138 -1240 40 -200 97 -352&#xA;223 -522 436 -34 42 -65 77 -69 77 -4 0 -36 -16 -71 -36 -75 -43 -163 -77&#xA;-272 -106 -115 -30 -318 -30 -432 -1 -282 74 -484 240 -572 471 -52 134 -68&#xA;119 125 116 191 -3 289 12 423 66 69 28 140 79 140 101 0 17 -20 19 -47 6 -49&#xA;-25 -216 -76 -283 -87 -312 -48 -627 28 -866 208 -157 119 -281 268 -358 433&#xA;-58 123 -73 170 -92 287 -76 473 124 1048 496 1423 183 185 349 282 578 340&#xA;64 16 120 35 124 42 4 6 8 22 8 35 0 40 48 227 76 298 63 156 184 332 295 428&#xA;73 62 209 148 299 187 211 93 437 116 707 73 37 -6 39 -4 60 33 88 157 272&#xA;372 395 461 222 163 491 264 768 291 119 12 339 5 456 -14z m2544 -4852 c74&#xA;-15 136 -27 137 -28 7 -4 -113 -663 -138 -755 -5 -19 -25 -105 -44 -190 -68&#xA;-296 -94 -404 -336 -1355 -38 -148 -98 -398 -135 -555 -97 -422 -83 -386 -162&#xA;-422 -77 -34 -273 -100 -280 -94 -2 3 7 71 22 153 26 152 39 224 101 563 20&#xA;107 56 312 80 455 25 143 59 339 75 435 27 155 119 773 134 905 4 28 22 171&#xA;41 319 19 147 35 272 35 276 0 4 34 33 75 64 83 63 206 183 232 228 10 15 20&#xA;28 23 28 2 0 66 -12 140 -27z m461 -234 c-82 -425 -129 -642 -309 -1449 -166&#xA;-740 -226 -979 -306 -1219 -39 -117 -62 -147 -166 -215 -75 -50 -208 -122&#xA;-213 -115 -6 7 170 728 382 1562 168 664 254 1050 320 1446 28 166 32 185 34&#xA;187 1 1 65 4 141 8 77 4 142 9 145 12 14 14 9 -27 -28 -217z m-2169 -55 c132&#xA;-73 252 -118 396 -149 49 -11 79 -22 77 -29 -2 -6 -11 -87 -20 -181 -9 -93&#xA;-22 -231 -30 -305 -8 -74 -21 -205 -30 -290 -68 -665 -158 -1379 -240 -1915&#xA;-8 -55 -22 -147 -30 -205 -22 -156 -23 -158 -53 -164 -38 -8 -226 -24 -357&#xA;-31 -60 -4 -121 -8 -134 -11 l-24 -5 7 98 c4 54 9 112 11 128 5 37 32 340 40&#xA;450 3 44 10 130 15 190 13 155 89 1142 95 1245 3 47 8 101 10 120 3 19 7 80&#xA;10 135 3 55 10 154 15 220 12 157 18 265 26 460 l6 160 61 63 c34 34 63 62 64&#xA;62 2 0 40 -21 85 -46z m-2767 -58 l35 -55 40 -388 c58 -566 68 -651 90 -828&#xA;24 -187 24 -190 45 -360 17 -147 52 -427 61 -495 3 -25 21 -151 41 -280 19&#xA;-129 49 -333 67 -454 l32 -218 -40 6 c-67 9 -285 72 -376 108 l-84 33 -18 90&#xA;c-91 475 -152 784 -222 1140 -46 231 -96 485 -110 565 -15 80 -31 163 -36 185&#xA;-18 76 -122 665 -135 760 -3 28 -9 59 -11 71 -5 19 0 20 73 23 136 4 308 49&#xA;439 114 38 19 70 35 72 36 1 1 18 -23 37 -53z m-1022 -2 c75 -38 174 -70 260&#xA;-84 l74 -12 22 -142 c21 -130 49 -290 86 -476 8 -41 28 -149 45 -240 67 -358&#xA;84 -449 160 -835 43 -220 110 -560 149 -755 38 -195 68 -356 67 -358 -9 -8&#xA;-209 103 -244 135 -39 36 -45 49 -96 214 -81 259 -233 874 -286 1159 -12 63&#xA;-53 257 -92 430 -86 391 -123 559 -148 675 -11 50 -30 141 -43 203 -14 61 -20&#xA;112 -15 112 5 0 32 -12 61 -26z m4942 -126 c-16 -135 -70 -546 -116 -868 -20&#xA;-144 -52 -341 -90 -560 -11 -63 -29 -169 -40 -235 -25 -150 -86 -495 -145&#xA;-815 -35 -187 -84 -465 -84 -476 0 -1 -137 -31 -180 -39 -57 -11 -268 -44&#xA;-300 -47 -34 -3 -35 -2 -32 27 4 36 50 350 91 630 43 286 156 1207 176 1430 6&#xA;59 17 159 40 360 2 22 9 90 15 150 6 61 12 130 15 155 2 25 9 102 16 172 l12&#xA;127 91 -3 c166 -7 307 24 466 102 41 20 77 36 79 35 2 -1 -4 -66 -14 -145z&#xA;m-1429 -70 c-21 -352 -88 -1321 -101 -1453 -3 -27 -12 -144 -20 -260 -8 -115&#xA;-20 -264 -25 -330 -6 -66 -15 -181 -21 -255 -5 -74 -14 -178 -19 -230 -5 -52&#xA;-17 -186 -26 -296 l-18 -201 -89 -7 c-50 -3 -168 -6 -264 -6 l-174 0 3 1198&#xA;c1 658 5 1271 8 1361 l5 164 116 47 c199 80 409 204 569 334 30 25 57 45 59&#xA;46 2 0 1 -51 -3 -112z m-2226 -80 c118 -93 289 -184 436 -233 79 -25 106 -33&#xA;130 -34 11 -1 15 -58 30 -391 2 -63 9 -189 14 -280 6 -91 19 -311 30 -490 11&#xA;-179 29 -442 40 -585 11 -143 29 -384 40 -535 11 -151 22 -296 24 -321 l5 -46&#xA;-52 9 c-29 4 -95 15 -147 23 -98 15 -292 52 -322 61 -9 3 -19 17 -22 32 -7 32&#xA;-7 36 -41 262 -14 96 -30 202 -35 235 -5 33 -12 76 -14 95 -3 19 -14 96 -25&#xA;170 -23 152 -62 461 -92 715 -60 514 -83 721 -114 1020 -19 182 -37 355 -41&#xA;385 l-6 55 58 -56 c33 -30 79 -71 104 -91z m1416 -425 c-3 -93 -6 -701 -6&#xA;-1352 l0 -1184 -182 7 c-172 7 -339 20 -399 32 -26 5 -26 6 -33 117 -4 62 -9&#xA;135 -12 162 -3 43 -21 279 -39 530 -2 39 -7 115 -10 170 -3 55 -8 120 -10 145&#xA;-8 71 -33 500 -55 930 -11 217 -23 437 -26 489 l-6 94 33 -7 c87 -16 193 -25&#xA;289 -26 99 0 339 29 405 49 60 19 58 26 51 -156z"/>
    <path d="M5085 9024 c-11 -2 -45 -9 -75 -15 -182 -36 -362 -218 -415 -419 -44&#xA;-167 10 -368 131 -487 136 -132 370 -194 576 -152 312 63 501 341 434 638 -45&#xA;197 -186 352 -375 412 -63 20 -228 34 -276 23z m257 -102 c69 -25 150 -76 202&#xA;-128 149 -149 180 -384 74 -561 -42 -70 -94 -115 -183 -159 -178 -87 -357 -88&#xA;-534 -3 -105 51 -161 106 -208 206 -77 161 -47 339 84 499 59 72 176 141 288&#xA;168 47 12 221 -2 277 -22z"/>
    <path d="M5154 8844 c-44 -22 -69 -79 -59 -139 7 -53 65 -125 119 -150 153&#xA;-69 296 30 238 165 -37 87 -118 140 -213 140 -30 0 -68 -7 -85 -16z"/>
    <path d="M3135 7759 c-244 -19 -446 -196 -510 -444 -22 -85 -20 -216 5 -296&#xA;70 -227 302 -389 557 -389 184 0 360 80 464 212 78 99 109 185 116 328 10 181&#xA;-34 299 -156 420 -134 134 -280 185 -476 169z m237 -97 c159 -57 270 -178 312&#xA;-340 57 -225 -46 -458 -250 -564 -114 -59 -232 -73 -375 -43 -96 20 -180 67&#xA;-251 139 -178 180 -184 443 -14 652 55 69 112 110 195 144 93 38 100 39 221&#xA;35 72 -2 123 -10 162 -23z"/>
    <path d="M2940 7444 c-148 -64 -179 -272 -50 -336 118 -60 279 57 280 201 0&#xA;109 -123 182 -230 135z"/>
    <path d="M6915 7499 c-112 -16 -211 -66 -304 -153 -105 -99 -161 -220 -169&#xA;-367 -5 -98 7 -167 45 -253 59 -133 147 -221 288 -287 101 -47 183 -63 288&#xA;-56 211 13 411 149 481 328 38 97 47 241 21 339 -76 292 -361 489 -650 449z&#xA;m191 -83 c140 -37 286 -152 349 -275 59 -117 74 -282 35 -395 -47 -139 -186&#xA;-253 -350 -287 -67 -14 -229 -6 -285 15 -105 38 -232 139 -282 223 -114 194&#xA;-76 460 86 606 122 109 297 153 447 113z"/>
    <path d="M7102 7240 c-47 -29 -76 -98 -68 -161 25 -186 168 -274 282 -175 l39&#xA;34 0 78 c-1 111 -39 185 -117 225 -48 25 -95 24 -136 -1z"/>
    <path d="M4695 7096 c-71 -33 -107 -92 -89 -145 10 -26 10 -26 101 -23 115 5&#xA;179 -9 306 -64 150 -65 167 -59 118 41 -36 73 -111 147 -181 178 -58 26 -210&#xA;33 -255 13z"/>
    <path d="M2155 6497 c-100 -34 -194 -111 -224 -184 -30 -73 22 -160 109 -183&#xA;89 -24 216 18 294 98 92 93 96 221 8 262 -40 18 -141 22 -187 7z m146 -64 c23&#xA;-14 29 -24 29 -51 0 -100 -140 -202 -258 -189 -86 10 -106 72 -47 149 64 85&#xA;207 131 276 91z"/>
    <path d="M4700 6466 c-85 -29 -113 -45 -189 -102 -67 -50 -162 -168 -195 -242&#xA;-21 -47 -31 -52 -42 -19 -24 78 -133 198 -234 257 -102 60 -195 84 -299 77&#xA;-159 -12 -272 -65 -391 -186 -87 -88 -147 -188 -190 -316 -34 -99 -55 -254&#xA;-45 -335 3 -30 8 -71 11 -91 20 -175 150 -388 295 -485 106 -70 191 -96 319&#xA;-97 l105 -1 -37 -74 c-58 -114 -51 -211 21 -294 56 -63 135 -100 226 -106 98&#xA;-6 145 3 145 28 0 17 -7 20 -50 20 -59 0 -144 17 -185 37 -39 20 -93 71 -112&#xA;107 -51 98 24 243 199 382 85 69 164 163 207 249 l33 65 59 -89 c186 -283 493&#xA;-365 766 -205 143 83 269 266 325 469 18 66 21 106 21 230 0 175 -16 250 -83&#xA;391 -80 166 -260 315 -419 344 -89 17 -189 11 -261 -14z m307 -67 c177 -65&#xA;318 -234 375 -448 30 -113 27 -294 -5 -422 -60 -231 -178 -384 -360 -463 -67&#xA;-29 -80 -31 -187 -31 -112 0 -117 1 -190 37 -88 43 -144 88 -204 166 -112 147&#xA;-166 338 -151 535 9 115 35 210 92 327 78 161 219 281 373 317 72 17 183 9&#xA;257 -18z m-1096 -49 c122 -41 230 -138 303 -271 43 -78 44 -89 22 -199 -22&#xA;-113 -21 -252 4 -370 l19 -95 -39 -80 c-89 -184 -205 -288 -367 -330 -269 -70&#xA;-548 113 -645 425 -33 107 -33 328 0 443 40 142 126 283 223 371 61 55 176&#xA;114 239 122 25 4 47 8 50 11 10 10 130 -7 191 -27z"/>
    <path d="M4985 5923 c-97 -24 -152 -245 -90 -369 28 -56 67 -84 119 -84 52 0&#xA;121 64 141 133 37 126 -6 266 -96 312 -29 15 -39 16 -74 8z"/>
    <path d="M3858 5838 c-102 -102 -96 -314 11 -385 70 -47 143 -14 188 85 22 47&#xA;25 64 21 132 -7 119 -57 193 -141 207 -32 5 -40 1 -79 -39z"/>
    <path d="M7925 6008 c-127 -42 -196 -116 -203 -216 -11 -158 124 -272 308&#xA;-259 41 3 97 13 125 23 67 24 149 105 165 165 15 55 9 133 -14 181 -51 107&#xA;-231 157 -381 106z m223 -64 c132 -55 151 -217 35 -297 -57 -39 -86 -47 -170&#xA;-47 -130 0 -211 58 -221 159 -7 78 35 144 112 176 83 35 175 38 244 9z"/>
    <path d="M6100 5480 c0 -47 87 -146 170 -193 102 -58 178 -80 285 -81 143 -1&#xA;235 28 315 101 22 19 40 44 40 54 0 11 -2 19 -5 19 -2 0 -33 -15 -67 -34 -82&#xA;-45 -167 -66 -264 -66 -91 0 -156 16 -234 55 -59 30 -150 97 -189 139 -29 31&#xA;-51 34 -51 6z"/>
    <path d="M4974 4607 c-8 -23 2 -34 36 -42 16 -4 33 -11 36 -17 3 -5 -10 -34&#xA;-31 -63 -91 -133 -256 -242 -424 -281 -93 -22 -250 -20 -357 6 -89 21 -114 19&#xA;-93 -7 38 -45 178 -83 312 -83 254 0 500 136 623 346 14 24 28 44 31 44 2 0&#xA;19 -11 37 -25 65 -50 92 -15 34 44 -66 67 -190 115 -204 78z"/>
  </g>
  <title>Blueberry Muffin</title>
  <desc>Blueberry Muffin</desc>
</svg>