<?xml version="1.0" encoding="UTF-8" standalone="yes"?>
<svg version="1.0" xmlns="http://www.w3.org/2000/svg" width="1024.000000pt" height="1024.000000pt" viewBox="0 0 1024.000000 1024.000000" preserveAspectRatio="xMidYMid meet">
  <metadata>
Created by potrace 1.16, written by Peter Selinger 2001-2019
</metadata>
  <g transform="translate(0.000000,1024.000000) scale(0.100000,-0.100000)" fill="#000000" stroke="none">
    <path d="M4855 9659 c-256 -26 -573 -112 -835 -226 -134 -58 -179 -82 -335&#xA;-176 -278 -168 -555 -439 -761 -742 -88 -131 -241 -445 -299 -615 -47 -139&#xA;-114 -400 -136 -530 -19 -113 -17 -293 5 -364 33 -111 73 -176 166 -268 77&#xA;-76 101 -93 201 -142 142 -69 205 -86 344 -93 208 -11 370 51 515 197 110 110&#xA;149 185 239 456 127 385 217 552 389 727 125 128 270 205 466 249 120 26 217&#xA;20 346 -22 265 -86 437 -274 486 -529 37 -191 -52 -573 -258 -1101 -44 -113&#xA;-108 -279 -143 -370 -35 -91 -117 -298 -182 -460 -66 -162 -136 -344 -157&#xA;-405 -79 -232 -98 -275 -131 -298 -143 -100 -247 -248 -290 -412 -20 -76 -22&#xA;-219 -5 -310 l12 -71 -147 -344 c-81 -190 -203 -482 -270 -650 -68 -168 -155&#xA;-384 -195 -480 -65 -160 -137 -341 -422 -1056 -109 -276 -116 -308 -84 -417&#xA;42 -143 209 -320 436 -460 170 -105 432 -211 620 -252 111 -24 376 -31 467&#xA;-12 86 19 182 65 240 115 48 42 61 73 390 952 343 917 434 1164 513 1385 43&#xA;122 127 351 188 510 61 160 138 371 172 470 111 325 137 397 260 720 232 609&#xA;382 1011 435 1165 29 85 83 240 120 345 141 403 245 789 281 1040 36 257 14&#xA;596 -55 860 -105 400 -373 822 -686 1084 -178 148 -455 312 -665 394 -172 67&#xA;-396 116 -630 137 -133 11 -487 11 -605 -1z m625 -110 c246 -23 513 -98 719&#xA;-201 l124 -62 -91 -22 c-314 -77 -638 -341 -829 -674 -65 -113 -118 -233 -139&#xA;-311 -10 -35 -21 -68 -24 -72 -4 -5 -41 2 -81 14 -63 20 -97 23 -224 24 -137&#xA;0 -158 -2 -234 -27 -46 -15 -87 -25 -91 -23 -9 6 -54 131 -77 215 -14 52 -18&#xA;104 -17 260 0 175 3 206 26 305 43 183 113 334 222 482 25 34 57 70 71 79 47&#xA;30 387 37 645 13z m-782 -71 c-127 -156 -226 -398 -257 -631 -30 -218 4 -457&#xA;89 -627 l28 -55 -86 -50 c-107 -63 -203 -143 -266 -222 l-49 -62 -76 52 c-306&#xA;211 -514 556 -537 890 -6 90 8 233 27 268 11 21 129 102 254 174 203 117 461&#xA;216 730 280 196 47 195 47 143 -17z m1797 -299 c229 -149 396 -318 567 -574&#xA;77 -115 185 -321 175 -332 -3 -2 -14 0 -26 6 -11 6 -60 21 -108 33 -127 32&#xA;-363 31 -518 -1 -362 -76 -674 -255 -872 -500 l-19 -24 -34 59 c-46 83 -198&#xA;231 -285 279 -38 21 -72 40 -74 42 -21 16 126 332 219 471 187 281 508 516&#xA;785 577 95 21 106 19 190 -36z m-3020 -361 c1 -124 5 -168 22 -235 89 -336&#xA;298 -607 608 -788 15 -9 12 -18 -31 -90 -57 -98 -95 -179 -143 -310 l-37 -100&#xA;-89 1 c-140 2 -325 59 -483 148 -226 128 -391 285 -475 455 -60 120 -58 144&#xA;21 303 122 244 293 473 497 666 60 56 109 102 110 102 0 0 0 -69 0 -152z&#xA;m3624 -578 c51 -10 114 -29 140 -42 45 -23 46 -24 78 -122 88 -271 111 -532&#xA;73 -836 -18 -145 -13 -139 -73 -74 -141 155 -415 273 -710 306 -232 26 -561&#xA;-37 -788 -152 l-80 -40 8 72 c12 106 7 234 -10 308 -18 77 -18 78 100 191 196&#xA;187 454 321 730 378 131 27 136 28 298 29 104 1 164 -3 234 -18z m-4226 -528&#xA;c92 -119 269 -265 412 -339 156 -81 381 -143 515 -143 l70 0 -6 -27 c-21 -93&#xA;-74 -227 -118 -300 -136 -225 -326 -321 -576 -293 -253 29 -448 152 -545 344&#xA;-38 75 -40 84 -44 189 -2 61 2 151 9 201 15 110 78 363 120 478 17 46 33 90&#xA;36 98 3 9 21 -18 44 -67 21 -46 59 -109 83 -141z m3802 -327 c173 -25 310 -70&#xA;438 -146 76 -45 186 -143 218 -195 l21 -34 -26 -124 c-28 -130 -40 -175 -150&#xA;-526 -66 -208 -73 -228 -79 -219 -100 145 -238 259 -425 353 -235 118 -494&#xA;169 -743 146 -115 -11 -325 -56 -370 -81 -12 -6 -22 -9 -24 -7 -1 2 20 71 46&#xA;153 49 151 80 256 121 418 l23 88 85 38 c287 129 588 176 865 136z m-353 -845&#xA;c294 -62 543 -203 704 -398 l53 -64 -55 -157 c-31 -86 -73 -205 -94 -266 -58&#xA;-171 -142 -385 -149 -385 -4 0 -15 17 -25 38 -30 62 -104 159 -178 234 -191&#xA;191 -417 305 -703 355 -156 27 -463 8 -579 -37 -16 -6 -30 -9 -32 -8 -4 4 201&#xA;542 224 587 14 30 27 38 87 58 62 21 196 53 280 67 74 11 372 -3 467 -24z&#xA;m-482 -715 c191 -29 379 -100 532 -202 104 -69 253 -221 326 -331 l61 -93 -34&#xA;-92 c-18 -51 -90 -244 -159 -430 -69 -185 -126 -342 -126 -347 0 -19 -19 -10&#xA;-25 11 -4 12 -24 40 -45 63 -25 27 -43 61 -55 100 -73 254 -274 391 -507 347&#xA;-82 -16 -211 -78 -271 -132 -39 -34 -51 -39 -58 -28 -5 8 -9 21 -9 30 0 9 -16&#xA;48 -35 86 -86 172 -282 266 -455 219 -30 -8 -56 -13 -58 -11 -2 2 14 45 35 97&#xA;39 91 40 94 95 122 50 25 66 28 154 28 59 0 129 -6 172 -17 70 -16 74 -16 93&#xA;1 23 21 24 45 3 85 -18 35 -78 66 -147 75 -56 8 -174 -12 -223 -37 -21 -10&#xA;-39 -17 -41 -15 -3 2 33 97 79 210 l83 206 60 19 c55 18 130 35 195 45 65 9&#xA;275 4 360 -9z m-627 -893 c84 -45 144 -112 176 -196 33 -88 28 -128 -28 -247&#xA;-53 -112 -81 -220 -81 -318 0 -57 -2 -61 -46 -104 -45 -45 -154 -109 -207&#xA;-121 -15 -4 -52 1 -84 10 -41 12 -78 15 -132 11 -86 -7 -110 2 -163 61 -77 85&#xA;-115 215 -105 360 12 173 65 291 187 412 90 91 157 133 255 162 84 25 141 17&#xA;228 -30z m800 -161 c186 -73 289 -329 228 -571 -53 -213 -189 -384 -359 -452&#xA;-81 -32 -236 -33 -304 -1 -63 29 -144 106 -174 165 -110 216 -50 526 137 716&#xA;139 142 329 199 472 143z m364 -467 c13 -21 23 -47 23 -57 0 -11 -42 -134 -94&#xA;-275 -52 -142 -119 -329 -149 -417 -30 -88 -134 -376 -231 -640 -98 -264 -185&#xA;-501 -195 -528 l-17 -47 -56 82 c-53 78 -166 196 -268 280 -40 34 -43 39 -27&#xA;48 9 6 45 34 78 62 113 94 231 281 303 480 l33 92 58 -78 c62 -85 84 -90 61&#xA;-14 -33 110 -150 225 -253 249 -49 10 -43 -15 12 -53 25 -18 45 -35 45 -38 0&#xA;-12 -173 -87 -260 -114 -140 -41 -237 -57 -392 -63 -166 -7 -229 2 -334 47&#xA;-67 29 -144 40 -144 21 0 -6 25 -27 54 -48 l55 -38 3 -125 c2 -69 2 -126 2&#xA;-128 -1 -2 -39 5 -85 15 -64 14 -128 18 -267 18 -115 0 -182 4 -182 10 0 27&#xA;204 529 297 729 35 77 76 166 90 198 l26 56 54 -55 54 -56 -25 -26 c-65 -68&#xA;-87 -202 -46 -287 40 -82 142 -154 237 -170 64 -10 150 4 179 29 l25 22 -98 1&#xA;c-114 0 -150 12 -217 74 -48 44 -67 86 -68 148 -1 78 39 142 106 173 52 24 93&#xA;24 256 -1 163 -25 162 -25 125 5 -32 27 -33 26 11 48 16 9 53 36 81 61 l51 46&#xA;22 -71 c53 -165 168 -276 318 -308 70 -15 112 -14 197 4 245 52 429 256 490&#xA;546 8 39 15 86 15 105 0 45 17 41 47 -12z m-890 -1266 c18 -13 33 -25 33 -28&#xA;0 -4 -21 -33 -48 -65 -63 -78 -153 -150 -222 -176 -75 -29 -180 -36 -248 -16&#xA;-59 18 -112 52 -112 72 0 19 102 109 163 143 100 56 224 90 336 91 52 1 72 -4&#xA;98 -21z m-1019 -68 c85 -9 161 -22 213 -36 9 -3 33 -31 53 -63 100 -162 267&#xA;-229 465 -187 l74 16 66 -47 c93 -66 228 -204 289 -298 29 -43 52 -85 52 -92&#xA;0 -7 -30 -90 -66 -185 -36 -95 -99 -265 -141 -378 -41 -113 -76 -206 -77 -208&#xA;-2 -1 -23 28 -48 65 -230 343 -608 572 -1063 644 -89 14 -352 15 -432 1 -29&#xA;-5 -53 -5 -53 -1 0 4 68 168 150 363 83 196 150 360 150 365 0 42 172 61 368&#xA;41z m-193 -845 c175 -25 265 -51 459 -137 228 -100 494 -343 590 -540 l27 -54&#xA;-37 -104 c-54 -155 -163 -447 -191 -510 l-24 -55 -38 71 c-146 279 -444 510&#xA;-823 639 -214 72 -479 102 -643 72 -44 -8 -81 -13 -83 -12 -1 1 13 38 32 81&#xA;19 44 73 180 121 304 49 124 91 229 96 234 23 26 360 33 514 11z m-260 -710&#xA;c409 -85 782 -319 948 -593 27 -44 54 -100 62 -125 l14 -46 -77 -38 -76 -38&#xA;-175 0 c-200 0 -270 12 -466 77 -191 63 -374 161 -531 284 -156 121 -244 248&#xA;-252 363 -5 80 8 107 60 122 102 29 339 26 493 -6z"/>
    <path d="M6005 5226 c-21 -6 -47 -23 -58 -39 -20 -25 -20 -28 -4 -44 9 -9 40&#xA;-23 69 -30 149 -37 269 -130 336 -260 20 -40 42 -73 49 -73 7 0 17 16 22 36&#xA;21 75 -26 205 -104 292 -81 90 -220 143 -310 118z"/>
    <path d="M5045 4499 c-69 -64 -97 -178 -66 -272 24 -71 99 -88 168 -38 93 68&#xA;124 241 57 321 -22 25 -33 30 -70 30 -38 0 -51 -6 -89 -41z"/>
    <path d="M5765 4386 c-86 -38 -140 -170 -115 -276 34 -143 198 -111 255 49 28&#xA;79 14 184 -28 219 -23 20 -78 24 -112 8z"/>
  </g>
  <title>Laska cukrowa w paski</title>
  <desc>Klasyczna, biało-czerwona laska cukrowa. Kojarzy się głównie ze świętami, ale jest pyszna przez cały rok. To prosta i przyjemna kolorowanka.</desc>
</svg>