<?xml version="1.0" encoding="UTF-8" standalone="yes"?>
<svg version="1.0" xmlns="http://www.w3.org/2000/svg" width="1024.000000pt" height="1024.000000pt" viewBox="0 0 1024.000000 1024.000000" preserveAspectRatio="xMidYMid meet">
  <metadata>
Created by potrace 1.16, written by Peter Selinger 2001-2019
</metadata>
  <g transform="translate(0.000000,1024.000000) scale(0.100000,-0.100000)" fill="#000000" stroke="none">
    <path d="M4865 9344 c-144 -14 -263 -27 -280 -30 -40 -7 -271 -46 -320 -54&#xA;-340 -56 -766 -202 -1115 -383 -467 -241 -912 -591 -1223 -962 -56 -66 -104&#xA;-122 -107 -125 -7 -6 -117 -150 -145 -189 -34 -47 -110 -162 -152 -231 -116&#xA;-186 -343 -670 -315 -670 4 0 2 -4 -4 -8 -14 -8 -95 -255 -123 -375 -44 -180&#xA;-60 -255 -71 -332 -6 -44 -13 -89 -15 -100 -12 -72 -15 -96 -19 -150 -41 -467&#xA;-26 -865 45 -1265 11 -58 21 -119 23 -135 7 -49 35 -165 55 -230 107 -340 147&#xA;-442 293 -742 23 -49 44 -80 51 -76 5 3 7 1 4 -4 -8 -12 38 -97 102 -191 22&#xA;-33 41 -63 41 -66 0 -7 199 -285 248 -346 119 -148 341 -382 355 -373 6 3 7 1&#xA;4 -4 -8 -13 209 -209 229 -207 8 1 12 -2 9 -6 -10 -15 198 -175 215 -165 6 4&#xA;9 2 8 -3 -3 -10 83 -78 167 -134 126 -83 475 -266 650 -341 264 -112 629 -224&#xA;825 -253 19 -3 49 -9 65 -14 27 -8 96 -19 220 -35 473 -62 1049 -33 1460 72&#xA;33 8 71 17 85 19 54 10 318 93 400 127 14 5 30 11 35 13 13 3 174 74 310 136&#xA;135 62 306 159 299 170 -3 4 1 5 8 3 27 -11 316 188 571 391 130 104 372 337&#xA;441 425 11 13 49 58 86 99 36 41 77 91 90 110 14 19 33 44 43 55 20 21 48 70&#xA;44 76 -1 2 0 3 2 2 10 -6 82 93 161 222 172 280 270 476 361 719 17 45 41 108&#xA;54 141 66 173 149 529 184 790 29 219 32 257 36 510 5 350 -33 693 -111 1010&#xA;-9 33 -19 76 -24 95 -82 334 -265 774 -431 1037 -34 54 -75 121 -92 148 -52&#xA;88 -228 315 -239 308 -6 -3 -8 -1 -4 5 14 23 -220 275 -464 499 -101 93 -355&#xA;287 -451 344 -24 15 -94 58 -156 97 -61 38 -114 67 -117 64 -3 -3 -6 0 -6 7 0&#xA;7 -4 10 -9 7 -5 -4 -11 -2 -13 2 -6 16 -217 114 -229 107 -7 -5 -10 -4 -5 3&#xA;13 21 -250 126 -529 210 -96 29 -325 85 -435 107 -41 8 -241 34 -305 40 -33 3&#xA;-109 10 -170 15 -118 11 -534 21 -600 14z m630 -118 c79 -6 279 -30 328 -40 9&#xA;-3 14 0 11 6 -4 7 0 7 12 0 11 -5 40 -13 67 -16 26 -4 57 -10 70 -15 12 -4 34&#xA;-8 50 -7 15 1 27 -1 27 -5 0 -3 6 -6 13 -7 84 -8 487 -138 708 -229 166 -68&#xA;615 -318 669 -373 19 -20 157 -113 167 -113 7 0 11 -4 10 -7 -1 -4 23 -27 53&#xA;-51 175 -139 435 -395 598 -589 111 -133 293 -397 363 -526 63 -117 75 -135&#xA;84 -126 5 4 5 2 1 -5 -4 -7 10 -45 30 -85 20 -40 56 -117 79 -170 23 -54 44&#xA;-95 47 -92 4 3 5 -1 5 -8 -2 -12 62 -215 83 -263 8 -19 21 -67 69 -250 11 -38&#xA;26 -108 35 -155 8 -47 18 -98 21 -115 3 -16 12 -77 20 -134 9 -57 18 -114 21&#xA;-127 22 -86 36 -615 21 -749 -3 -27 -9 -79 -12 -115 -17 -186 -53 -389 -102&#xA;-585 -14 -55 -26 -104 -27 -110 -1 -5 -5 -15 -9 -22 -4 -6 -8 -23 -9 -37 -1&#xA;-14 -5 -26 -9 -26 -5 0 -24 -57 -34 -106 -2 -6 -19 -51 -40 -100 -20 -49 -39&#xA;-101 -42 -116 -3 -16 -8 -28 -12 -28 -4 0 -13 -17 -20 -37 -7 -21 -37 -87 -67&#xA;-146 -30 -60 -51 -113 -48 -119 4 -6 2 -8 -4 -5 -6 4 -20 -13 -33 -40 -48&#xA;-101 -227 -383 -327 -515 -127 -167 -176 -226 -339 -401 -51 -55 -90 -104 -86&#xA;-110 3 -5 2 -7 -4 -4 -11 7 -43 -18 -138 -105 -34 -32 -91 -81 -126 -109 -35&#xA;-28 -63 -55 -62 -59 1 -4 -3 -7 -10 -6 -12 1 -30 -11 -120 -84 -31 -24 -73&#xA;-54 -159 -111 -21 -14 -35 -29 -31 -34 5 -4 2 -5 -5 0 -8 4 -25 0 -40 -12&#xA;-234 -171 -720 -392 -1052 -478 -8 -2 -59 -15 -113 -29 -54 -14 -164 -37 -245&#xA;-51 -81 -15 -158 -28 -172 -31 -14 -2 -50 -7 -80 -10 -30 -3 -98 -10 -150 -15&#xA;-90 -9 -431 -12 -550 -4 -223 15 -226 15 -445 51 -240 40 -570 131 -815 225&#xA;-47 19 -88 33 -91 32 -10 -3 -252 118 -413 205 -82 45 -153 79 -158 76 -4 -3&#xA;-7 0 -6 6 4 14 -121 92 -134 84 -5 -3 -7 -1 -6 4 4 13 -248 203 -257 194 -4&#xA;-4 -5 -2 -3 4 2 6 -38 45 -88 87 -161 133 -489 469 -575 587 -16 22 -35 47&#xA;-44 57 -8 10 -31 43 -52 74 -244 361 -281 428 -441 780 -32 69 -63 149 -79&#xA;202 -9 30 -18 45 -25 41 -7 -5 -8 -2 -4 5 5 7 -4 51 -19 99 -68 216 -79 261&#xA;-106 402 -38 208 -37 201 -55 390 -3 30 -7 69 -10 85 -3 17 -8 131 -11 255 -7&#xA;260 5 459 43 710 19 126 23 149 35 188 6 19 9 44 6 57 -2 14 -1 23 3 20 3 -2&#xA;14 31 24 73 33 136 94 348 125 432 12 30 19 61 16 68 -3 7 -1 11 4 8 5 -3 19&#xA;22 31 57 64 172 234 493 381 715 248 374 695 819 1064 1057 66 43 136 88 155&#xA;100 34 23 141 82 290 162 82 44 282 133 345 153 22 7 58 21 80 31 49 22 249&#xA;86 325 104 3 0 14 4 26 8 53 18 369 80 490 96 43 6 93 13 109 15 17 3 77 7&#xA;135 11 57 3 106 8 108 10 6 6 550 -2 657 -9z"/>
    <path d="M5235 8882 c-2 -3 -38 -4 -80 -3 -92 2 -316 -53 -475 -117 -46 -19&#xA;-163 -53 -204 -60 -74 -12 -297 -5 -376 13 -119 26 -270 30 -370 11 -99 -20&#xA;-198 -50 -255 -79 -83 -41 -235 -160 -325 -254 -202 -213 -238 -248 -312 -304&#xA;-43 -32 -151 -94 -240 -139 -90 -45 -179 -91 -198 -103 -88 -52 -263 -215&#xA;-326 -303 -90 -126 -113 -216 -113 -448 -1 -100 -6 -168 -17 -210 -22 -86 -83&#xA;-209 -143 -286 -186 -242 -265 -370 -304 -495 -39 -128 -45 -160 -46 -281 -3&#xA;-185 20 -266 137 -468 28 -49 56 -112 62 -140 19 -94 15 -252 -11 -426 -6 -36&#xA;-12 -81 -15 -100 -2 -19 -8 -64 -13 -100 -16 -112 -7 -336 16 -405 46 -139&#xA;116 -235 208 -283 44 -24 61 -27 150 -27 119 0 172 21 246 96 60 61 86 107&#xA;148 259 119 294 217 408 358 416 44 2 65 -3 143 -41 175 -86 245 -91 378 -30&#xA;86 40 163 114 209 202 34 63 78 195 86 258 3 22 11 65 18 95 18 86 7 250 -24&#xA;340 -37 107 -67 251 -71 339 -8 177 32 290 141 400 80 81 118 107 278 191 66&#xA;34 138 76 161 92 45 32 291 298 286 310 -1 5 1 7 5 6 5 -2 37 14 73 34 91 51&#xA;169 71 265 70 88 -2 97 -4 240 -57 131 -48 141 -50 270 -49 94 0 126 5 220 33&#xA;91 27 130 33 230 36 133 4 188 -6 291 -54 137 -64 212 -167 283 -386 60 -187&#xA;107 -264 221 -370 183 -169 208 -203 245 -332 53 -181 13 -392 -117 -625 -95&#xA;-170 -126 -277 -129 -443 -2 -87 13 -161 41 -217 18 -34 72 -88 82 -82 5 3 7&#xA;0 6 -7 -2 -7 23 -24 57 -38 163 -67 318 5 449 209 27 41 58 86 70 98 32 37&#xA;110 72 157 72 42 0 129 -36 129 -52 0 -5 5 -6 10 -3 6 4 9 3 8 -2 -1 -4 6 -23&#xA;15 -40 68 -128 84 -259 61 -498 -21 -213 -24 -333 -9 -404 18 -82 71 -195 86&#xA;-185 7 4 9 3 5 -4 -9 -15 53 -73 114 -106 44 -24 61 -28 136 -27 74 1 94 5&#xA;152 32 102 48 198 160 217 255 24 120 26 266 4 419 -60 423 -14 560 231 685&#xA;23 12 38 25 35 30 -3 5 0 7 7 5 7 -3 39 20 70 52 84 87 145 218 147 321 0 29&#xA;3 58 6 63 12 19 -17 212 -44 297 -16 49 -65 162 -110 253 -137 277 -144 318&#xA;-116 619 25 272 8 418 -69 576 -115 237 -232 345 -537 499 -187 94 -259 136&#xA;-308 179 -52 47 -113 151 -221 381 -102 216 -206 329 -386 418 -153 77 -248&#xA;93 -564 98 -196 2 -284 27 -545 154 -60 29 -123 57 -140 61 -16 4 -50 16 -74&#xA;26 -24 10 -54 19 -67 20 -13 1 -24 6 -24 10 0 4 -21 10 -47 14 -60 10 -54 9&#xA;-79 17 -28 10 -153 25 -159 19z m265 -124 c52 -17 158 -60 235 -96 190 -88&#xA;349 -152 415 -169 30 -7 127 -16 215 -19 190 -6 343 -20 406 -38 183 -54 324&#xA;-163 419 -326 25 -41 49 -78 55 -82 5 -4 7 -8 3 -8 -15 0 125 -294 171 -357&#xA;52 -72 138 -130 333 -228 233 -116 246 -124 335 -202 127 -112 228 -273 269&#xA;-428 21 -76 23 -202 11 -550 -7 -169 -6 -185 16 -260 24 -83 180 -398 192&#xA;-387 3 4 3 -1 0 -10 -4 -9 -2 -26 5 -37 43 -81 71 -312 50 -413 -36 -171 -91&#xA;-238 -295 -353 -113 -64 -184 -164 -206 -290 -14 -82 -7 -283 16 -425 17 -111&#xA;20 -263 6 -336 -10 -51 -39 -135 -51 -144 -3 -3 -16 -19 -27 -36 -12 -17 -49&#xA;-45 -81 -62 -111 -59 -241 -37 -321 53 -18 21 -37 49 -43 64 -38 100 -52 327&#xA;-28 474 9 53 11 129 7 235 -7 199 -32 289 -101 368 -69 78 -176 108 -278 78&#xA;-94 -28 -146 -75 -232 -209 -54 -84 -83 -113 -148 -146 -66 -33 -128 -38 -186&#xA;-14 -50 21 -79 50 -110 110 -25 46 -27 59 -26 160 1 131 26 217 102 354 26 47&#xA;52 97 58 111 82 178 105 272 105 415 -1 120 -12 170 -64 299 -33 81 -74 131&#xA;-212 257 -106 97 -150 168 -222 369 -76 211 -147 311 -285 402 -97 65 -163 82&#xA;-323 83 -131 0 -147 -2 -255 -34 -96 -29 -134 -35 -227 -38 -78 -2 -125 2&#xA;-153 12 -22 8 -40 12 -40 10 0 -3 -26 6 -57 19 -108 45 -168 59 -265 64 -118&#xA;5 -195 -15 -308 -82 -84 -49 -194 -152 -186 -173 3 -8 2 -11 -3 -8 -5 3 -29&#xA;-17 -53 -45 -68 -80 -174 -158 -288 -213 -115 -56 -192 -105 -184 -118 3 -5&#xA;-1 -6 -8 -4 -8 3 -47 -27 -90 -69 -133 -131 -179 -257 -173 -471 4 -120 19&#xA;-196 85 -410 42 -138 8 -391 -74 -554 -69 -135 -192 -226 -306 -226 -45 0 -72&#xA;8 -150 47 -157 78 -257 82 -365 16 -102 -62 -191 -194 -281 -419 -53 -132&#xA;-100 -206 -158 -253 -60 -48 -96 -59 -174 -54 -59 3 -75 8 -118 39 -66 48&#xA;-128 139 -140 207 -3 15 -9 44 -15 65 -21 81 -2 393 36 577 22 103 14 340 -12&#xA;410 -3 8 -8 26 -10 40 -2 14 -35 81 -72 150 -94 171 -105 213 -105 380 0 149&#xA;9 195 71 330 40 87 89 162 232 355 123 167 177 269 197 375 3 19 7 112 9 205&#xA;2 183 12 230 72 349 81 160 259 308 520 432 177 84 394 238 377 266 -4 6 -3 8&#xA;3 5 6 -4 46 33 89 80 180 198 278 280 414 346 162 79 315 94 572 56 177 -26&#xA;345 -22 453 10 39 12 78 23 89 26 10 2 75 24 145 49 214 75 223 78 336 90 134&#xA;14 243 1 385 -46z"/>
    <path d="M4875 6615 c-211 -39 -450 -147 -600 -272 -88 -73 -166 -154 -159&#xA;-164 4 -7 3 -9 -3 -6 -25 16 -149 -169 -218 -328 -160 -367 -155 -750 14&#xA;-1108 26 -55 46 -85 53 -81 7 4 8 3 4 -4 -9 -14 58 -115 69 -104 5 4 5 2 2 -5&#xA;-16 -26 124 -172 273 -283 150 -113 299 -181 510 -232 103 -24 148 -30 255&#xA;-31 124 -2 150 1 247 22 24 6 54 12 68 14 54 10 80 20 80 29 0 5 4 6 10 3 13&#xA;-8 131 35 124 46 -3 5 1 6 9 3 17 -6 124 50 235 124 76 51 195 158 263 237 75&#xA;88 163 250 218 402 92 252 96 587 11 838 -22 66 -22 67 -74 178 -86 187 -263&#xA;394 -431 504 -44 29 -85 57 -92 63 -18 15 -161 80 -223 102 -168 58 -477 84&#xA;-645 53z m400 -95 c198 -30 372 -101 524 -214 36 -27 68 -52 71 -55 3 -3 25&#xA;-24 50 -46 86 -76 179 -198 250 -330 40 -76 97 -221 106 -275 3 -14 11 -49 19&#xA;-78 14 -55 15 -356 1 -414 -3 -16 -8 -40 -11 -55 -11 -63 -70 -224 -112 -304&#xA;-76 -146 -168 -259 -293 -364 -159 -132 -312 -213 -495 -261 -99 -25 -126 -28&#xA;-270 -28 -115 0 -183 5 -243 18 -390 83 -707 318 -871 645 -39 77 -98 255&#xA;-107 322 -4 27 -9 47 -13 45 -3 -2 -7 66 -8 152 -2 134 1 173 22 267 29 134&#xA;70 245 130 350 25 43 45 82 45 86 0 4 3 9 8 11 4 2 31 35 60 75 119 162 330&#xA;318 527 390 77 29 221 61 309 69 33 3 62 7 63 8 6 5 177 -5 238 -14z"/>
    <path d="M4390 3943 c-111 -7 -179 -28 -277 -89 -104 -65 -175 -186 -125 -213&#xA;15 -8 33 0 88 37 38 26 101 61 139 79 112 50 130 54 260 55 106 1 125 7 125&#xA;42 0 32 -37 61 -95 75 -65 17 -63 16 -115 14z"/>
    <path d="M5651 3937 c-18 -6 -49 -25 -68 -44 -34 -31 -35 -34 -20 -55 10 -16&#xA;24 -23 43 -22 98 5 183 4 209 -1 69 -13 175 -59 226 -98 98 -74 129 -80 129&#xA;-25 0 19 -4 27 -12 22 -7 -4 -8 -3 -4 5 10 15 -42 84 -56 75 -6 -4 -8 -2 -5 3&#xA;10 16 -59 72 -128 104 -99 47 -233 62 -314 36z"/>
    <path d="M1815 3554 c14 -111 80 -265 188 -439 123 -197 271 -330 512 -460&#xA;253 -136 377 -226 452 -330 12 -16 43 -59 69 -95 63 -87 232 -253 251 -246 8&#xA;3 12 2 9 -3 -17 -26 205 -128 338 -155 92 -19 258 -20 301 -1 38 16 30 19&#xA;-110 40 -60 9 -119 18 -130 20 -123 19 -252 69 -346 133 -94 64 -219 186 -249&#xA;243 -27 51 -133 179 -187 225 -82 72 -140 108 -292 186 -75 38 -157 83 -183&#xA;100 -27 16 -53 26 -59 22 -7 -4 -9 -3 -6 3 4 6 -11 23 -32 38 -78 53 -245 237&#xA;-306 335 -63 102 -148 276 -185 378 -29 78 -45 81 -35 6z"/>
    <path d="M4315 3564 c-80 -19 -207 -83 -276 -137 -91 -72 -193 -243 -229 -382&#xA;-28 -107 -35 -296 -15 -385 19 -82 84 -215 142 -292 47 -61 153 -153 212 -183&#xA;71 -36 163 -56 262 -56 83 0 109 5 183 32 47 17 86 35 86 41 0 5 5 6 10 3 6&#xA;-3 10 -2 10 3 0 5 12 14 26 20 15 7 22 17 18 24 -5 7 -3 8 5 3 26 -15 201 181&#xA;185 207 -4 7 -4 10 1 6 16 -15 66 89 89 187 l12 50 30 -95 c91 -287 310 -475&#xA;565 -485 163 -6 295 42 424 154 58 51 106 111 98 123 -3 7 -1 8 5 4 21 -13&#xA;120 197 126 266 1 15 5 31 9 34 4 4 7 59 7 122 0 114 -15 202 -46 269 -8 18&#xA;-21 51 -29 74 -19 53 -92 162 -147 220 -58 60 -121 103 -210 142 -64 27 -85&#xA;32 -173 34 -55 1 -122 -3 -150 -8 -97 -18 -237 -100 -311 -180 -68 -75 -120&#xA;-162 -108 -181 4 -6 3 -8 -3 -5 -18 11 -83 -172 -74 -208 2 -7 -1 -7 -7 0 -6&#xA;6 -13 28 -16 50 -25 173 -163 382 -306 463 -136 76 -271 98 -405 66z m250 -65&#xA;c76 -21 178 -82 240 -144 70 -70 147 -229 163 -335 14 -88 7 -292 -11 -360&#xA;-26 -100 -91 -220 -154 -286 -31 -33 -56 -62 -55 -65 0 -3 -4 -6 -11 -6 -7 0&#xA;-34 -15 -60 -33 -72 -48 -142 -72 -234 -77 -163 -11 -281 34 -398 152 -82 81&#xA;-136 168 -172 274 -22 65 -26 94 -26 201 -1 148 21 238 86 364 125 241 397&#xA;377 632 315z m1191 0 c68 -12 176 -63 239 -111 85 -65 184 -229 221 -368 23&#xA;-82 25 -282 5 -355 -16 -58 -68 -167 -105 -221 -14 -20 -22 -42 -19 -48 3 -6&#xA;3 -8 -2 -4 -4 4 -36 -19 -70 -51 -67 -62 -144 -111 -216 -137 -54 -19 -206&#xA;-21 -269 -5 -146 39 -296 165 -362 302 -69 143 -82 200 -82 344 0 113 4 142&#xA;28 220 15 49 30 92 34 95 4 3 18 27 32 54 34 66 162 195 230 231 111 59 216&#xA;76 336 54z"/>
    <path d="M4580 3110 c-43 -8 -90 -32 -111 -56 -23 -28 -59 -90 -64 -111 -2&#xA;-10 -9 -34 -14 -53 -22 -71 -9 -178 29 -241 19 -33 68 -74 100 -84 14 -5 45&#xA;-7 69 -6 61 3 103 38 143 119 30 63 32 74 31 167 0 84 -5 109 -25 155 -40 87&#xA;-90 122 -158 110z"/>
    <path d="M5533 3071 c-71 -51 -109 -159 -101 -286 8 -124 66 -206 169 -236 31&#xA;-10 43 -9 75 7 47 23 100 90 115 147 15 57 7 234 -13 273 -8 16 -22 42 -31 58&#xA;-39 72 -141 90 -214 37z"/>
    <path d="M8239 3254 c-9 -11 -48 -67 -87 -125 -39 -58 -76 -112 -84 -120 -7&#xA;-8 -31 -37 -53 -64 -80 -101 -208 -216 -320 -288 -114 -73 -216 -119 -358&#xA;-163 -79 -25 -237 -109 -302 -161 -73 -60 -275 -284 -268 -298 4 -5 3 -7 -2&#xA;-3 -4 4 -35 -16 -69 -46 -80 -69 -112 -90 -201 -135 -41 -21 -73 -40 -71 -42&#xA;3 -2 -5 -4 -17 -5 -12 -1 -58 -11 -101 -23 -64 -17 -108 -21 -225 -21 -143 0&#xA;-193 -9 -162 -29 20 -13 99 -24 113 -15 7 4 8 3 4 -4 -5 -9 13 -12 66 -13 187&#xA;-2 260 11 383 67 113 51 234 134 227 156 -1 5 2 7 7 3 6 -3 50 36 98 86 249&#xA;260 321 324 413 365 14 6 50 22 80 36 30 14 82 33 115 43 268 80 535 294 727&#xA;584 66 99 110 188 106 213 -3 20 -3 20 -19 2z"/>
    <path d="M5563 2023 c-19 -7 -16 -31 7 -50 30 -26 25 -39 -33 -80 -72 -53&#xA;-104 -69 -189 -99 -105 -37 -313 -45 -444 -16 -109 24 -263 99 -344 166 -57&#xA;48 -65 52 -74 37 -12 -18 15 -63 64 -110 125 -120 370 -200 594 -193 61 1 193&#xA;31 262 58 34 14 101 52 149 85 84 57 87 58 111 43 34 -23 56 -12 48 23 -10 42&#xA;-35 78 -78 112 -38 31 -49 34 -73 24z"/>
  </g>
  <title>Donut Chocolate Glaze</title>
  <desc>Donut Chocolate Glaze</desc>
</svg>