<?xml version="1.0" encoding="UTF-8" standalone="yes"?>
<svg version="1.0" xmlns="http://www.w3.org/2000/svg" width="1200.000000pt" height="400.000000pt" viewBox="0 0 1200.000000 400.000000" preserveAspectRatio="xMidYMid meet">
  <metadata>
Created by potrace 1.16, written by Peter Selinger 2001-2019
</metadata>
  <g transform="translate(0.000000,400.000000) scale(0.100000,-0.100000)" fill="#000000" stroke="none">
    <path d="M2 2003 l3 -1998 1785 0 1785 0 197 1960 c108 1078 197 1977 197&#xA;1998 l1 37 -1985 0 -1985 0 2 -1997z m3918 1940 c0 -27 -380 -3845 -386 -3871&#xA;l-4 -22 -1740 0 -1740 0 0 1955 0 1955 1935 0 c1836 0 1935 -1 1935 -17z"/>
    <path d="M1698 3810 c-76 -23 -126 -77 -114 -124 6 -26 12 -29 90 -41 46 -8&#xA;86 -44 86 -79 0 -44 -44 -81 -149 -126 -159 -67 -220 -136 -222 -251 l0 -54&#xA;-59 -28 c-159 -75 -259 -246 -222 -380 l11 -38 -78 -77 c-89 -88 -133 -167&#xA;-151 -273 -28 -160 47 -318 190 -401 35 -21 36 -24 58 -136 28 -145 49 -193&#xA;99 -226 40 -26 40 -27 72 -169 112 -494 216 -862 286 -1014 41 -89 109 -163&#xA;178 -194 76 -34 203 -34 270 1 120 61 177 169 283 532 55 191 161 614 185 736&#xA;11 61 14 64 64 96 32 21 58 47 69 70 18 39 65 261 66 311 0 25 10 38 60 75 33&#xA;25 73 64 90 87 31 43 70 140 70 176 0 10 22 49 48 86 26 36 59 84 72 106 13&#xA;22 38 54 55 72 94 100 115 131 355 558 288 511 312 555 316 593 6 49 -14 84&#xA;-54 96 -71 20 -92 -1 -389 -394 -210 -278 -377 -517 -415 -592 -16 -31 -35&#xA;-62 -43 -68 -8 -7 -15 -19 -15 -27 0 -12 -12 -31 -58 -93 -2 -3 -8 4 -15 15&#xA;-26 48 -128 141 -200 183 -55 32 -76 50 -72 60 47 124 20 245 -77 339 -43 42&#xA;-137 93 -172 93 -15 0 -17 4 -10 28 5 15 9 61 9 102 0 64 -5 83 -30 129 -60&#xA;108 -174 197 -304 235 -57 17 -186 20 -233 6z m231 -59 c110 -34 203 -109 253&#xA;-203 30 -57 32 -185 5 -237 -42 -76 -100 -119 -217 -158 -11 -4 -12 -7 -2 -10&#xA;27 -10 151 37 202 78 48 38 55 41 96 34 57 -8 141 -71 176 -133 29 -48 38 -99&#xA;16 -86 -7 4 -8 3 -4 -5 4 -6 12 -8 18 -5 13 9 3 -100 -12 -125 -7 -11 -8 -7&#xA;-4 17 6 28 4 32 -15 32 -14 0 -23 -8 -27 -25 -3 -14 -14 -31 -24 -38 -12 -8&#xA;-18 -23 -16 -40 2 -15 1 -25 -2 -22 -3 2 -11 0 -19 -7 -11 -9 -12 -6 -3 16 10&#xA;27 10 27 -13 9 -13 -9 -24 -22 -24 -28 0 -5 -3 -22 -6 -37 -7 -33 7 -36 43&#xA;-11 24 16 24 16 10 -2 -28 -35 -110 -65 -179 -65 l-63 0 35 40 c31 34 77 108&#xA;77 125 0 12 -28 4 -34 -11 -3 -8 -10 -12 -16 -9 -5 3 -7 0 -4 -8 8 -21 -97&#xA;-118 -180 -166 -83 -47 -227 -99 -299 -108 -64 -8 -70 -23 -10 -23 101 1 240&#xA;43 350 108 41 24 53 27 83 19 19 -5 58 -7 87 -5 46 4 53 2 64 -19 11 -21 9&#xA;-29 -21 -71 -102 -142 -112 -160 -113 -195 -1 -43 26 -77 61 -77 13 0 49 7 79&#xA;16 53 15 57 15 82 -3 15 -12 27 -32 29 -49 5 -39 31 -67 59 -61 24 4 27 -1 17&#xA;-27 -3 -9 -10 -14 -14 -11 -5 3 -6 -3 -4 -13 10 -36 -111 -190 -132 -169 -3 3&#xA;4 8 15 12 12 3 21 13 21 21 0 10 -7 8 -25 -8 -13 -11 -22 -25 -19 -29 2 -4 0&#xA;-10 -6 -14 -20 -12 -10 -26 33 -45 23 -11 36 -20 29 -20 -7 0 -26 7 -41 15&#xA;-16 8 -32 11 -36 7 -5 -4 -5 -1 -1 6 4 7 1 15 -9 18 -25 10 -27 0 -5 -24 12&#xA;-12 16 -22 10 -22 -6 0 -13 7 -16 15 -7 18 -25 20 -20 3 1 -7 1 -10 -1 -6 -3&#xA;4 -14 3 -26 -1 -31 -12 -51 -3 -36 15 9 11 8 14 -5 14 -14 0 -20 -11 -17 -32&#xA;0 -4 -6 -5 -14 -2 -8 4 -15 10 -15 16 0 5 5 6 12 2 7 -4 8 -3 4 4 -13 21 -44&#xA;33 -52 20 -4 -6 -3 -8 2 -5 6 3 16 2 24 -3 12 -7 9 -11 -10 -19 -19 -7 -20&#xA;-10 -7 -10 10 -1 16 -5 12 -10 -7 -12 8 -22 55 -38 l35 -12 -40 5 c-22 3 -62&#xA;16 -90 29 -79 37 -79 37 -60 75 24 46 10 49 -33 8 -43 -42 -110 -88 -126 -88&#xA;-6 1 1 8 17 16 15 8 27 17 27 20 0 3 -5 2 -10 -1 -6 -4 -17 -2 -24 4 -15 13&#xA;-66 -4 -66 -22 0 -5 -7 -7 -15 -3 -9 3 -15 0 -15 -10 0 -8 -4 -13 -9 -9 -6 3&#xA;-8 14 -6 25 2 12 0 18 -6 15 -5 -4 -7 -11 -4 -16 4 -5 1 -9 -4 -9 -6 0 -11 5&#xA;-11 12 0 9 -3 9 -12 0 -15 -15 -32 -16 -23 -2 3 5 1 10 -6 10 -8 0 -8 5 2 18&#xA;7 9 2 7 -12 -6 -14 -12 -29 -19 -34 -15 -4 5 -5 2 -1 -5 5 -7 14 -11 21 -8 12&#xA;4 25 -13 25 -35 0 -17 -54 -9 -105 15 -32 14 -73 47 -109 87 -50 55 -58 60&#xA;-52 36 4 -19 3 -26 -4 -22 -5 3 -10 2 -10 -3 0 -17 -100 -35 -166 -29 -164 13&#xA;-290 141 -302 307 -8 121 36 230 131 321 65 63 79 66 121 34 47 -36 120 -62&#xA;193 -70 90 -11 98 5 15 26 -183 46 -262 134 -241 268 17 110 110 210 232 250&#xA;35 12 41 11 60 -7 71 -65 206 -89 322 -57 36 9 65 20 65 24 0 3 -47 4 -104 3&#xA;-128 -5 -199 13 -250 61 -89 84 -33 227 112 284 156 61 212 110 212 185 0 52&#xA;-47 101 -111 118 -75 19 -74 18 -54 40 10 11 32 24 49 29 55 16 170 12 235 -8z&#xA;m521 -819 c0 -5 -7 -9 -15 -9 -8 0 -12 4 -9 9 3 4 9 8 15 8 5 0 9 -4 9 -8z&#xA;m-23 -47 c-4 -8 -11 -15 -17 -15 -6 0 -6 7 2 20 14 22 24 19 15 -5z m-8 -59&#xA;c-34 -48 -47 -60 -30 -27 6 10 7 22 3 26 -4 5 -2 5 5 1 7 -4 19 6 29 24 10 16&#xA;20 28 22 25 2 -2 -11 -24 -29 -49z m554 -109 c47 -20 99 -67 93 -84 -3 -8 -2&#xA;-11 4 -8 11 7 29 -25 23 -42 -6 -16 -39 -17 -48 -2 -4 6 -41 35 -82 65 -61 46&#xA;-72 58 -62 70 14 18 31 18 72 1z m11 -102 c71 -54 72 -60 4 -161 -32 -49 -62&#xA;-92 -66 -96 -5 -4 -31 9 -59 30 -27 21 -64 44 -81 51 l-31 13 16 32 c9 17 39&#xA;66 66 108 l50 77 34 -14 c18 -8 48 -26 67 -40z m-423 -412 c-17 -15 -21 -23&#xA;-12 -23 8 0 28 12 44 28 28 26 29 27 43 8 18 -25 18 -25 -11 -61 -15 -18 -28&#xA;-26 -32 -20 -5 6 -7 9 -4 8 9 -5 33 29 37 53 l5 27 -26 -31 c-16 -19 -33 -29&#xA;-49 -28 -13 0 -22 4 -19 9 2 4 -1 7 -6 7 -6 0 -11 -2 -11 -4 0 -2 -3 -11 -6&#xA;-19 -4 -10 1 -14 18 -12 13 1 15 0 6 -2 -10 -2 -18 -9 -18 -14 0 -6 -4 -8 -9&#xA;-4 -5 3 -13 -4 -16 -16 -4 -11 -8 -19 -10 -17 -5 5 44 140 56 155 8 9 14 8 28&#xA;-5 16 -16 16 -18 -8 -39z m-91 -143 c-6 -11 -13 -20 -16 -20 -2 0 0 9 6 20 6&#xA;11 13 20 16 20 2 0 0 -9 -6 -20z m80 16 c0 -2 -6 -9 -14 -15 -11 -9 -16 -9&#xA;-22 0 -4 7 -3 9 4 5 6 -3 13 -2 17 4 6 10 15 14 15 6z m-100 -50 c0 -2 -8 -10&#xA;-17 -17 -16 -13 -17 -12 -4 4 13 16 21 21 21 13z m-585 -116 c3 -5 1 -10 -4&#xA;-10 -6 0 -11 5 -11 10 0 6 2 10 4 10 3 0 8 -4 11 -10z m360 -20 c-3 -5 -10&#xA;-10 -16 -10 -5 0 -9 5 -9 10 0 6 7 10 16 10 8 0 12 -4 9 -10z m216 1 c-8 -5&#xA;-20 -7 -28 -4 -21 8 -15 13 15 13 20 0 23 -3 13 -9z m-641 -31 c-14 -4 -34 -8&#xA;-45 -8 -16 0 -15 2 5 8 14 4 34 8 45 8 16 0 15 -2 -5 -8z m577 4 c-3 -3 -12&#xA;-4 -19 -1 -8 3 -5 6 6 6 11 1 17 -2 13 -5z m-47 -8 c0 -7 -71 -13 -75 -6 -2 3&#xA;14 7 36 8 21 2 39 1 39 -2z m-929 -90 c103 -27 103 -35 -1 -11 -85 20 -121 35&#xA;-114 47 4 7 9 6 13 -1 4 -6 50 -22 102 -35z m-116 -4 c-3 -3 -11 0 -18 7 -9&#xA;10 -8 11 6 5 10 -3 15 -9 12 -12z m302 -38 c-3 -3 -12 -4 -19 -1 -8 3 -5 6 6&#xA;6 11 1 17 -2 13 -5z m106 -11 c-13 -2 -33 -2 -45 0 -13 2 -3 4 22 4 25 0 35&#xA;-2 23 -4z m197 -7 c14 -2 -17 -4 -68 -5 -51 0 -91 2 -89 7 5 6 99 6 157 -2z&#xA;m-407 -3 c-7 -2 -19 -2 -25 0 -7 3 -2 5 12 5 14 0 19 -2 13 -5z m490 0 c-7 -2&#xA;-19 -2 -25 0 -7 3 -2 5 12 5 14 0 19 -2 13 -5z m175 0 c-10 -2 -28 -2 -40 0&#xA;-13 2 -5 4 17 4 22 1 32 -1 23 -4z m-608 -12 c0 -5 -9 -7 -20 -4 -11 3 -20 7&#xA;-20 9 0 2 9 4 20 4 11 0 20 -4 20 -9z m-179 -19 c-7 -2 -18 1 -23 6 -8 8 -4 9&#xA;13 5 13 -4 18 -8 10 -11z m232 11 c-7 -2 -21 -2 -30 0 -10 3 -4 5 12 5 17 0&#xA;24 -2 18 -5z m74 -9 c-3 -3 -12 -4 -19 -1 -8 3 -5 6 6 6 11 1 17 -2 13 -5z&#xA;m90 -10 c-3 -3 -12 -4 -19 -1 -8 3 -5 6 6 6 11 1 17 -2 13 -5z m56 -1 c-7 -2&#xA;-21 -2 -30 0 -10 3 -4 5 12 5 17 0 24 -2 18 -5z m-353 -518 c32 -36 32 -37 4&#xA;-12 -17 15 -33 25 -37 22 -4 -3 -5 -2 -2 1 2 4 -1 16 -7 28 -6 11 -7 17 -2 11&#xA;5 -5 25 -28 44 -50z m280 42 c0 -1 -26 -27 -57 -57 l-58 -55 55 58 c50 53 60&#xA;62 60 54z m-219 -44 c13 -16 12 -17 -3 -4 -17 13 -22 21 -14 21 2 0 10 -8 17&#xA;-17z m19 -87 c0 -2 -8 -10 -17 -17 -16 -13 -17 -12 -4 4 13 16 21 21 21 13z&#xA;m320 -80 c0 -2 -8 -10 -17 -17 -16 -13 -17 -12 -4 4 13 16 21 21 21 13z m-170&#xA;-71 c13 -14 21 -25 18 -25 -2 0 -15 11 -28 25 -13 14 -21 25 -18 25 2 0 15&#xA;-11 28 -25z m180 22 c0 -2 -12 -14 -27 -28 l-28 -24 24 28 c23 25 31 32 31 24z&#xA;m-109 -24 c13 -16 12 -17 -3 -4 -17 13 -22 21 -14 21 2 0 10 -8 17 -17z m-51&#xA;-67 c0 -2 -8 -10 -17 -17 -16 -13 -17 -12 -4 4 13 16 21 21 21 13z m60 -10 c0&#xA;-2 -8 -10 -17 -17 -16 -13 -17 -12 -4 4 13 16 21 21 21 13z m45 -46 c10 -11&#xA;16 -20 13 -20 -3 0 -13 9 -23 20 -10 11 -16 20 -13 20 3 0 13 -9 23 -20z m86&#xA;-17 c13 -16 12 -17 -3 -4 -17 13 -22 21 -14 21 2 0 10 -8 17 -17z m-347 -49&#xA;c3 -8 2 -12 -4 -9 -6 3 -10 10 -10 16 0 14 7 11 14 -7z m78 -17 c-26 -27 -30&#xA;-36 -20 -47 11 -12 10 -12 -5 0 -17 12 -16 15 15 47 17 18 34 33 37 33 3 0 -9&#xA;-15 -27 -33z m278 -61 c0 -2 -8 -10 -17 -17 -16 -13 -17 -12 -4 4 13 16 21 21&#xA;21 13z m-274 -78 l29 -33 -32 29 c-31 28 -38 36 -30 36 2 0 16 -15 33 -32z&#xA;m55 -55 c13 -16 12 -17 -3 -4 -10 7 -18 15 -18 17 0 8 8 3 21 -13z m131 -16&#xA;c-21 -22 -21 -24 -4 -42 17 -19 17 -19 -6 0 l-22 18 22 24 c12 13 24 23 26 23&#xA;3 0 -4 -10 -16 -23z m-98 -16 c3 -5 -2 -15 -12 -22 -15 -12 -16 -12 -5 2 7 9&#xA;10 19 6 22 -3 4 -4 7 0 7 3 0 8 -4 11 -9z m6 -64 c0 -2 -12 -14 -27 -28 l-28&#xA;-24 24 28 c23 25 31 32 31 24z m91 -24 c13 -16 12 -17 -3 -4 -17 13 -22 21&#xA;-14 21 2 0 10 -8 17 -17z"/>
    <path d="M2114 3329 c-3 -6 -2 -15 3 -20 5 -5 9 -1 10 11 2 22 -2 25 -13 9z"/>
    <path d="M2136 3274 c-5 -14 -4 -15 9 -4 17 14 19 20 6 20 -5 0 -12 -7 -15&#xA;-16z"/>
    <path d="M2432 3050 c0 -14 2 -19 5 -12 2 6 2 18 0 25 -3 6 -5 1 -5 -13z"/>
    <path d="M2450 2979 c0 -11 4 -18 10 -14 5 3 7 12 3 20 -7 21 -13 19 -13 -6z"/>
    <path d="M2306 2892 c-2 -4 4 -8 15 -8 10 0 19 4 19 8 0 4 -6 8 -14 8 -8 0&#xA;-17 -4 -20 -8z"/>
    <path d="M2215 2810 c-3 -5 -3 -10 1 -10 4 0 -1 -7 -12 -15 -17 -14 -17 -14&#xA;10 -3 15 7 23 14 17 16 -6 2 -9 8 -5 13 3 5 3 9 0 9 -3 0 -8 -4 -11 -10z"/>
    <path d="M2107 2775 c-4 -8 -13 -15 -21 -15 -7 0 -16 -7 -20 -15 -3 -8 -14&#xA;-15 -25 -15 -25 0 -36 -15 -12 -17 19 -2 99 62 90 71 -4 4 -9 0 -12 -9z"/>
    <path d="M2161 2736 c-16 -17 -18 -23 -7 -23 8 0 13 4 10 9 -3 4 4 8 15 8 21&#xA;0 28 14 12 24 -4 3 -18 -5 -30 -18z"/>
    <path d="M1939 2703 c-13 -16 -12 -17 4 -4 9 7 17 15 17 17 0 8 -8 3 -21 -13z"/>
    <path d="M1935 2660 c-4 -6 -15 -8 -25 -5 -10 3 -21 1 -25 -5 -13 -21 3 -22&#xA;47 -2 23 11 35 21 26 21 -9 1 -20 -4 -23 -9z"/>
    <path d="M2384 2073 c3 -8 -4 -18 -17 -23 -12 -5 -16 -9 -9 -9 7 -1 10 -7 7&#xA;-13 -9 -17 24 23 35 43 6 11 5 16 -6 16 -8 0 -13 -6 -10 -14z"/>
    <path d="M1173 2073 c9 -2 23 -2 30 0 6 3 -1 5 -18 5 -16 0 -22 -2 -12 -5z"/>
    <path d="M1255 2050 c-2 -3 5 -6 15 -7 11 -1 22 2 24 5 3 4 -4 8 -15 8 -11 0&#xA;-22 -3 -24 -6z"/>
    <path d="M1367 1983 c-4 -3 -7 -11 -7 -17 0 -6 5 -5 12 2 6 6 9 14 7 17 -3 3&#xA;-9 2 -12 -2z"/>
    <path d="M2235 1980 c4 -6 11 -8 16 -5 14 9 11 15 -7 15 -8 0 -12 -5 -9 -10z"/>
    <path d="M1499 1947 c19 -20 36 -37 36 -37 1 0 2 7 2 15 0 8 -3 13 -5 10 -3&#xA;-3 -19 7 -36 22 -27 25 -27 23 3 -10z"/>
    <path d="M1310 1960 c0 -6 7 -10 15 -10 8 0 15 2 15 4 0 2 -7 6 -15 10 -8 3&#xA;-15 1 -15 -4z"/>
    <path d="M2017 1948 c-5 -15 2 -26 29 -41 7 -4 18 1 25 11 13 16 13 16 -5 2&#xA;-18 -14 -18 -13 -11 9 6 19 4 23 -8 18 -9 -3 -17 -1 -20 6 -2 6 -6 4 -10 -5z"/>
    <path d="M2206 1951 c-3 -5 0 -11 7 -14 8 -3 14 1 14 9 0 16 -13 19 -21 5z"/>
    <path d="M1570 1900 c0 -5 10 -14 23 -20 20 -10 20 -10 5 3 -10 8 -15 17 -11&#xA;20 3 4 1 7 -5 7 -7 0 -12 -4 -12 -10z"/>
    <path d="M1626 1876 c7 -17 54 -23 54 -6 0 6 -6 10 -14 10 -8 0 -22 3 -30 6&#xA;-12 5 -15 2 -10 -10z"/>
    <path d="M2995 2570 c3 -6 -1 -13 -9 -16 -9 -3 -16 -10 -16 -15 0 -4 -11 -25&#xA;-25 -45 -32 -48 -24 -57 12 -14 15 19 38 44 49 56 15 16 18 26 11 33 -14 14&#xA;-30 14 -22 1z"/>
    <path d="M4030 3987 c0 -8 -90 -902 -200 -1988 -110 -1086 -200 -1980 -200&#xA;-1987 0 -10 432 -12 2164 -10 1190 2 2168 6 2172 10 4 4 98 902 210 1995 112&#xA;1094 204 1989 204 1991 0 1 -979 2 -2175 2 -1814 0 -2175 -2 -2175 -13z m4293&#xA;-24 c5 -7 -390 -3903 -396 -3909 -7 -7 -4247 -16 -4247 -8 0 5 34 344 76 754&#xA;41 410 130 1287 197 1950 l122 1205 1845 5 c1015 3 1970 6 2122 8 152 1 279&#xA;-1 281 -5z"/>
    <path d="M5738 3787 c-9 -17 -8 -19 8 -12 11 5 45 8 76 8 31 1 55 4 52 9 -3 4&#xA;0 8 5 8 6 0 11 -4 11 -8 0 -4 12 -9 27 -10 45 -4 209 -89 248 -129 50 -51 86&#xA;-130 92 -203 7 -73 -8 -130 -49 -182 -35 -46 -22 -51 16 -6 14 17 26 26 26 19&#xA;0 -11 3 -11 15 -1 18 15 46 9 123 -27 31 -15 64 -27 72 -27 8 -1 15 -6 15 -11&#xA;0 -6 15 -33 32 -61 38 -59 56 -137 47 -208 -8 -56 -52 -157 -85 -192 -11 -12&#xA;-17 -24 -12 -26 4 -3 2 -3 -6 -1 -8 2 -23 -6 -33 -17 -10 -11 -16 -20 -13 -20&#xA;20 0 76 33 108 64 21 20 42 36 46 36 23 0 129 -65 179 -108 13 -12 30 -18 38&#xA;-15 10 4 1 19 -35 54 -28 27 -53 49 -56 49 -4 0 -13 7 -22 16 -9 8 -22 13 -30&#xA;10 -8 -3 -12 -2 -9 3 3 5 -8 14 -24 20 -35 12 -35 11 -15 58 9 22 15 64 14&#xA;112 -1 42 -3 68 -6 59 -2 -10 -9 -18 -13 -18 -6 0 -6 11 0 25 5 14 6 25 2 25&#xA;-4 0 -13 9 -20 21 -8 12 -9 18 -3 14 6 -3 11 -2 11 2 0 5 -9 14 -20 21 -11 7&#xA;-20 23 -20 36 0 12 -8 32 -17 43 -25 27 -159 96 -192 97 l-26 1 -2 95 c-2 124&#xA;-3 131 -12 125 -5 -2 -16 15 -25 38 -18 48 -104 151 -106 127 -1 -10 -4 -8&#xA;-10 6 -9 22 -107 77 -131 74 -8 -1 -23 -2 -34 -1 -16 1 -17 3 -6 10 10 7 0 11&#xA;-34 17 -31 4 -55 3 -66 -4 -10 -7 -21 -8 -24 -3 -3 5 -26 9 -51 9 -34 -1 -48&#xA;-6 -56 -21z m622 -499 c0 -5 4 -7 8 -4 5 3 21 -4 38 -15 37 -24 28 -24 -30 1&#xA;-48 20 -56 27 -31 27 8 0 15 -4 15 -9z"/>
    <path d="M5693 3778 c-13 -6 -23 -17 -23 -25 0 -7 -5 -12 -12 -10 -19 4 -42&#xA;-46 -34 -76 3 -15 11 -27 17 -27 8 0 8 4 0 14 -9 11 -9 20 -2 34 6 11 7 23 3&#xA;27 -4 3 -2 5 3 3 14 -4 55 38 47 48 -4 5 1 2 11 -5 9 -7 17 -12 18 -10 9 44 8&#xA;44 -28 27z"/>
    <path d="M5650 3690 c0 -5 5 -10 11 -10 5 0 7 5 4 10 -3 6 -8 10 -11 10 -2 0&#xA;-4 -4 -4 -10z"/>
    <path d="M7481 3670 c-17 -17 -34 -44 -37 -58 -7 -28 -34 -74 -34 -57 0 14&#xA;-50 -37 -66 -67 -8 -16 -12 -28 -9 -28 3 0 -8 -15 -24 -32 -39 -41 -105 -165&#xA;-92 -172 5 -4 19 10 31 29 14 23 29 35 43 35 27 0 172 -75 172 -88 0 -6 3 -14&#xA;7 -18 4 -4 2 -14 -4 -23 -10 -13 -10 -14 2 -3 18 16 30 15 30 -2 0 -15 45 -48&#xA;54 -39 7 7 -30 61 -59 85 -36 31 -182 108 -206 108 l-22 0 22 24 c14 14 30 22&#xA;40 19 13 -4 14 -3 1 5 -12 9 -12 13 1 29 9 10 19 26 22 36 4 11 12 15 19 11 8&#xA;-5 9 -2 5 9 -9 23 20 49 47 41 74 -22 166 -83 220 -147 32 -39 38 -51 30 -65&#xA;-15 -24 -28 -21 -32 6 -2 12 -8 20 -13 17 -5 -4 -16 0 -24 7 -35 32 -45 38&#xA;-45 30 0 -5 7 -15 15 -22 18 -15 21 -44 3 -34 -8 5 -8 2 1 -10 12 -15 12 -17&#xA;0 -14 -9 2 -13 -4 -10 -17 3 -18 2 -19 -15 -4 -41 35 -47 31 -16 -9 19 -23 38&#xA;-42 43 -42 18 0 9 -41 -14 -63 -22 -20 -78 -100 -183 -262 -21 -33 -42 -61&#xA;-46 -63 -5 -2 -8 -8 -8 -13 0 -5 -23 -39 -50 -74 -28 -36 -79 -111 -115 -167&#xA;-35 -57 -68 -107 -72 -113 -29 -35 -53 -75 -46 -75 4 0 1 -5 -8 -10 -9 -5 -38&#xA;-42 -64 -82 -27 -40 -61 -89 -77 -110 -15 -20 -35 -49 -43 -65 -8 -15 -15 -23&#xA;-15 -16 0 7 -15 -2 -32 -18 -18 -17 -58 -46 -88 -66 -30 -20 -64 -44 -76 -55&#xA;-20 -18 -21 -18 -44 7 -22 24 -47 35 -36 16 8 -12 -22 -68 -40 -75 -8 -3 -12&#xA;-11 -9 -16 4 -6 2 -9 -3 -8 -5 2 -19 -8 -30 -22 -22 -26 -30 -13 -11 21 5 11&#xA;16 48 24 82 66 300 80 335 187 488 130 184 199 292 191 300 -9 9 -70 -70 -156&#xA;-201 -27 -41 -53 -77 -57 -80 -3 -3 -28 -36 -53 -73 -46 -68 -57 -96 -82 -212&#xA;-18 -81 -64 -245 -77 -272 -16 -32 -30 -35 -178 -39 -113 -3 -145 -1 -197 16&#xA;-119 37 -145 61 -95 86 36 18 39 26 7 19 -17 -4 -46 -19 -65 -34 -57 -44 -152&#xA;-98 -200 -114 -34 -11 -59 -13 -100 -6 -63 10 -95 30 -129 82 -28 43 -37 44&#xA;-91 17 -75 -38 -236 -14 -314 48 -60 46 -109 143 -125 243 -9 56 -8 75 10 139&#xA;11 41 25 80 31 87 6 7 7 13 3 13 -4 0 -2 6 4 13 6 8 7 17 3 21 -4 4 0 6 8 4 9&#xA;-2 14 4 14 14 -1 10 2 15 7 13 4 -3 13 3 18 14 13 24 105 81 130 81 10 0 26&#xA;-9 36 -20 29 -32 76 -57 120 -63 l40 -6 -35 13 c-19 7 -38 11 -42 9 -5 -2 -8&#xA;-1 -8 4 0 4 -20 21 -45 36 -25 16 -43 32 -41 36 3 4 -4 23 -15 41 -27 43 -34&#xA;114 -19 170 15 57 74 146 108 162 14 7 27 18 29 25 6 18 -30 5 -62 -23 -15&#xA;-13 -32 -24 -38 -24 -5 0 -7 -7 -4 -15 4 -8 1 -17 -5 -21 -7 -5 -8 -2 -3 6 5&#xA;9 4 11 -4 6 -16 -10 -47 -73 -60 -124 -9 -31 -9 -58 -1 -101 12 -68 9 -80 -28&#xA;-105 -18 -12 -21 -16 -7 -12 17 5 16 3 -5 -14 -14 -11 -30 -20 -35 -20 -18 0&#xA;-86 -89 -83 -107 2 -10 -3 -17 -9 -15 -7 1 -14 -2 -14 -8 -3 -19 -5 -25 -18&#xA;-48 -7 -13 -10 -30 -7 -38 3 -8 1 -14 -5 -14 -13 0 -10 -151 4 -194 15 -47 31&#xA;-80 45 -94 6 -7 12 -17 12 -21 0 -15 108 -122 125 -125 14 -2 22 -18 31 -62&#xA;34 -157 46 -204 54 -204 5 0 11 -14 15 -31 5 -22 19 -39 50 -58 42 -26 43 -28&#xA;69 -131 14 -58 29 -116 31 -128 19 -82 37 -137 45 -140 6 -2 10 -8 10 -13 0&#xA;-6 -5 -7 -10 -4 -7 4 -8 -3 -4 -22 21 -83 32 -116 34 -98 l1 20 8 -20 c5 -11&#xA;4 -25 -1 -32 -6 -7 -5 -20 3 -35 7 -13 12 -26 11 -30 -1 -3 10 -48 23 -100 34&#xA;-129 37 -138 44 -138 3 0 7 -12 7 -28 1 -15 7 -40 14 -57 7 -16 12 -35 11 -42&#xA;-1 -6 7 -14 17 -17 10 -3 18 -16 19 -28 2 -22 1 -22 -12 2 -20 35 -19 17 2&#xA;-28 9 -20 15 -40 15 -44 -1 -5 5 -8 13 -8 8 0 19 -10 25 -22 10 -21 10 -21 -3&#xA;-5 -37 45 -27 -6 16 -78 37 -64 57 -86 70 -78 5 3 7 2 4 -4 -13 -21 58 -58&#xA;138 -71 72 -11 161 -5 207 16 87 38 136 106 217 305 17 42 84 269 86 293 1 11&#xA;4 24 7 30 15 26 118 418 155 589 11 49 12 70 4 73 -19 6 -12 21 20 37 43 23&#xA;108 83 126 119 30 59 63 209 63 292 0 49 1 51 61 100 57 46 137 146 224 279&#xA;22 33 38 60 35 60 -2 0 9 13 24 29 14 16 24 36 21 43 -3 8 0 11 6 8 5 -4 15 7&#xA;22 24 6 17 15 31 19 31 4 0 14 15 23 33 8 18 26 44 39 59 14 14 22 29 19 32&#xA;-4 3 -2 6 4 6 6 0 16 14 23 30 7 17 15 28 18 26 4 -5 37 39 82 109 8 13 52 78&#xA;98 145 45 67 82 126 82 131 0 5 4 9 8 9 9 0 62 76 62 88 0 4 20 29 44 56 25&#xA;27 48 61 51 75 4 14 24 49 45 76 64 85 61 145 -12 196 -18 13 -35 26 -38 29&#xA;-31 33 -104 68 -161 76 -31 5 -41 1 -68 -26z m137 -9 c12 -6 22 -9 22 -6 0 18&#xA;130 -114 141 -143 7 -19 5 -31 -8 -49 -10 -13 -32 -44 -49 -68 l-31 -44 -39&#xA;40 c-48 51 -139 111 -192 128 -37 13 -40 15 -29 35 7 11 14 23 17 26 3 3 12&#xA;18 20 33 8 16 24 39 36 52 18 20 27 22 56 16 18 -4 43 -13 56 -20z m5 -428&#xA;c-8 -13 -19 -23 -23 -23 -18 0 -16 26 3 48 26 28 42 9 20 -25z m-2431 -325&#xA;c-7 -7 -12 -8 -12 -2 0 14 12 26 19 19 2 -3 -1 -11 -7 -17z m-221 -485 c-12&#xA;-20 -14 -14 -5 12 4 9 9 14 11 11 3 -2 0 -13 -6 -23z m2059 -87 c0 -2 -8 -10&#xA;-17 -17 -16 -13 -17 -12 -4 4 13 16 21 21 21 13z m-2071 -171 l0 -20 -9 20&#xA;c-5 11 -9 27 -9 35 -1 13 0 13 9 0 5 -8 9 -24 9 -35z m21 -60 c0 -5 -5 -3 -10&#xA;5 -5 8 -10 20 -10 25 0 6 5 3 10 -5 5 -8 10 -19 10 -25z m110 -141 c0 -2 -9 0&#xA;-20 6 -11 6 -20 13 -20 16 0 2 9 0 20 -6 11 -6 20 -13 20 -16z m30 -25 c0 -6&#xA;-4 -7 -10 -4 -5 3 -10 11 -10 16 0 6 5 7 10 4 6 -3 10 -11 10 -16z m1575 -66&#xA;c-4 -49 -7 -98 -7 -110 0 -13 -3 -21 -8 -18 -5 3 -30 -59 -33 -85 -1 -11 -55&#xA;-58 -84 -73 -108 -56 -321 -88 -576 -86 -284 2 -335 4 -331 11 2 4 -13 7 -33&#xA;7 -21 0 -65 5 -98 10 -221 39 -282 82 -315 220 -11 45 -20 95 -20 110 0 25 3&#xA;27 33 23 17 -2 40 -14 49 -26 16 -19 18 -19 18 -3 0 11 5 17 13 14 6 -2 11&#xA;-15 9 -27 -2 -23 -2 -23 18 -5 13 12 17 21 10 25 -6 4 3 7 21 8 17 0 37 6 42&#xA;11 14 14 57 14 57 1 0 -5 -5 -10 -12 -10 -6 0 -8 -3 -5 -6 4 -4 13 -1 21 5 12&#xA;10 20 7 42 -18 29 -33 107 -61 166 -61 29 1 88 18 153 45 19 8 19 7 5 -11 -14&#xA;-17 -14 -18 2 -6 10 8 17 17 16 20 -2 19 3 25 11 13 8 -12 13 -12 35 2 34 22&#xA;38 22 162 -14 58 -17 112 -28 119 -25 7 2 16 2 19 -2 4 -3 25 -5 49 -4 23 0&#xA;57 -2 75 -5 30 -5 31 -6 15 -20 -17 -13 -16 -13 4 -3 12 5 25 14 28 20 7 11&#xA;35 2 35 -12 0 -5 -4 -6 -10 -3 -5 3 -10 1 -10 -4 0 -6 4 -11 9 -11 17 0 22 19&#xA;10 41 -8 15 -8 19 0 15 6 -4 11 -2 11 3 0 6 4 11 9 11 4 0 6 -11 3 -25 -3 -19&#xA;0 -25 14 -26 11 0 14 -3 6 -6 -7 -2 -17 -14 -24 -26 -11 -21 -10 -21 9 -4 11&#xA;9 23 14 26 11 4 -4 12 -3 19 3 7 5 26 10 41 11 37 2 50 11 43 29 -3 8 -2 12 3&#xA;9 4 -3 19 6 31 19 13 14 18 25 11 25 -7 0 -9 5 -6 10 3 6 10 10 15 10 14 0 3&#xA;-40 -17 -64 -10 -11 -3 -8 14 8 26 23 31 34 26 57 -4 22 -2 29 10 29 9 0 24&#xA;11 34 25 10 13 20 25 22 25 2 0 1 -39 -4 -87z m-162 -68 c-3 -9 -8 -14 -10&#xA;-11 -3 3 -2 9 2 15 9 16 15 13 8 -4z m-1013 -320 c25 -4 46 -8 48 -10 7 -7&#xA;-46 -75 -71 -90 -15 -9 -25 -19 -23 -23 6 -10 -21 -32 -30 -24 -4 4 -4 2 -1&#xA;-4 8 -14 -18 -38 -32 -30 -5 3 -14 34 -20 68 -7 35 -15 82 -20 104 l-8 41 56&#xA;-12 c31 -8 76 -16 101 -20z m975 -46 c-18 -86 -28 -101 -46 -68 -6 13 -25 40&#xA;-40 60 -34 43 -34 45 -13 53 10 4 13 2 8 -7 -6 -9 -4 -9 8 1 15 12 91 42 96&#xA;37 1 -1 -5 -35 -13 -76z m-785 57 c0 -2 -9 -6 -20 -9 -11 -3 -18 -1 -14 4 5 9&#xA;34 13 34 5z m108 -37 c78 -2 142 -5 142 -7 0 -7 -70 -92 -95 -117 l-21 -20 21&#xA;15 c11 8 35 28 53 44 17 17 32 26 32 22 0 -4 12 6 26 23 28 33 58 40 71 16 5&#xA;-8 34 -41 66 -73 31 -33 57 -65 57 -72 0 -6 -20 -35 -45 -63 -25 -29 -45 -55&#xA;-45 -60 0 -5 -16 -23 -35 -41 -19 -19 -35 -31 -35 -29 0 2 -7 -3 -16 -12 -18&#xA;-18 -18 -18 13 -34 15 -7 24 -8 28 -1 4 6 3 9 -2 8 -30 -10 -5 45 33 72 19 14&#xA;41 36 49 50 16 29 73 90 83 90 11 0 162 -155 162 -166 0 -12 -36 -58 -87 -111&#xA;-23 -24 -49 -56 -58 -70 l-17 -26 -24 27 c-14 14 -29 26 -35 26 -6 0 -29 18&#xA;-51 41 -22 22 -43 38 -46 35 -3 -3 26 -37 65 -75 l70 -69 -53 -62 c-28 -34&#xA;-61 -68 -73 -76 -11 -8 -26 -25 -32 -37 -11 -19 -8 -18 22 6 49 39 52 42 76&#xA;74 12 15 33 41 45 56 l23 28 31 -28 c47 -42 68 -58 79 -61 23 -7 24 -34 5 -96&#xA;-12 -36 -24 -66 -29 -66 -17 0 -62 -50 -55 -62 4 -6 3 -8 -4 -4 -6 3 -13 2&#xA;-17 -4 -3 -5 -15 -15 -27 -21 -16 -9 -19 -8 -13 2 6 9 3 11 -9 6 -9 -4 -15 -3&#xA;-12 2 3 5 -23 33 -59 62 -36 29 -65 58 -65 66 0 7 -9 13 -20 13 -11 0 -23 7&#xA;-26 15 -4 8 -11 15 -17 15 -5 0 -2 -9 8 -20 10 -11 15 -26 11 -36 -5 -14 -4&#xA;-15 8 -5 12 10 28 -2 90 -66 42 -43 76 -82 76 -87 0 -19 -175 -177 -191 -173&#xA;-12 3 -15 -1 -12 -13 6 -23 -54 -70 -89 -70 -14 0 -37 9 -52 21 -14 11 -26 17&#xA;-26 14 0 -4 -18 15 -40 41 -24 29 -39 56 -36 67 2 9 0 14 -5 11 -5 -3 -19 15&#xA;-30 40 -11 26 -24 44 -29 41 -4 -3 -6 5 -2 17 5 21 4 22 -13 8 -17 -14 -17&#xA;-14 -6 5 11 17 9 29 -9 74 -11 29 -19 55 -17 58 3 2 26 -21 52 -52 27 -31 57&#xA;-61 68 -67 11 -6 3 7 -19 29 -60 60 -85 93 -87 113 0 10 -6 16 -13 13 -7 -3&#xA;-18 15 -27 44 -33 103 -57 191 -59 219 -1 16 -5 31 -8 34 -4 4 -39 137 -55&#xA;213 -3 16 -1 27 5 27 6 0 3 11 -5 24 -14 21 -14 28 -3 49 16 31 134 157 147&#xA;157 5 0 11 6 14 13 3 7 23 -8 51 -38 48 -52 67 -42 21 11 -29 34 -32 47 -7 40&#xA;9 -3 81 -6 160 -7z m491 -13 c-8 -6 -33 -36 -57 -68 -53 -69 -81 -83 -73 -35&#xA;0 4 -3 7 -9 7 -10 0 -100 84 -100 94 0 7 45 11 154 12 75 1 96 -2 85 -10z&#xA;m110 -62 c28 -30 51 -59 51 -63 0 -31 -42 -147 -61 -167 -29 -31 -44 -30 -66&#xA;2 -20 31 -93 104 -104 104 -19 0 -17 35 5 64 37 48 104 116 115 116 5 0 32&#xA;-25 60 -56z m-3 -292 c-12 -11 -18 7 -10 30 l8 23 4 -23 c2 -13 1 -26 -2 -30z&#xA;m-16 -29 c0 -19 -52 -222 -67 -260 -8 -22 -9 -22 -56 18 -72 62 -73 67 -19&#xA;126 26 28 63 69 82 92 37 43 60 52 60 24z m-880 -288 c0 -5 -5 -3 -10 5 -5 8&#xA;-10 20 -10 25 0 6 5 3 10 -5 5 -8 10 -19 10 -25z m45 -124 c-6 -5 -25 10 -25&#xA;20 0 5 6 4 14 -3 8 -7 12 -15 11 -17z m683 -121 c-17 -40 -24 -49 -42 -46 -11&#xA;2 -20 9 -18 15 3 15 63 81 73 81 4 0 -1 -22 -13 -50z m35 5 c-3 -9 -8 -14 -10&#xA;-11 -3 3 -2 9 2 15 9 16 15 13 8 -4z m-95 -67 c9 -9 12 -9 12 2 0 10 3 11 11&#xA;3 16 -16 -41 -125 -93 -179 -49 -51 -94 -70 -178 -73 l-65 -2 34 35 c39 41 47&#xA;43 73 19 11 -9 18 -11 18 -5 0 7 -4 12 -9 12 -15 0 -22 33 -9 41 17 10 125&#xA;108 151 137 23 25 37 28 55 10z"/>
    <path d="M5251 1865 c1 -19 18 -51 18 -35 0 8 -4 22 -9 30 -5 8 -9 11 -9 5z"/>
    <path d="M5300 1770 c0 -5 5 -10 11 -10 5 0 7 5 4 10 -3 6 -8 10 -11 10 -2 0&#xA;-4 -4 -4 -10z"/>
    <path d="M6555 1765 c-11 -3 -129 -30 -180 -41 -16 -3 -44 -7 -60 -9 -17 -2&#xA;-44 -7 -60 -10 -17 -4 -42 -7 -57 -8 -16 0 -28 -5 -28 -9 0 -5 14 -7 32 -4 18&#xA;3 39 0 47 -7 8 -7 12 -7 9 -2 -4 7 9 11 33 12 28 2 38 -1 32 -10 -4 -7 0 -6&#xA;10 2 10 7 34 15 55 16 20 2 37 4 37 5 0 1 14 4 30 6 63 10 89 21 103 42 8 12&#xA;13 22 11 21 -2 0 -8 -2 -14 -4z"/>
    <path d="M6479 1683 c-13 -16 -12 -17 4 -4 16 13 21 21 13 21 -2 0 -10 -8 -17&#xA;-17z"/>
    <path d="M6491 1662 c-14 -20 -16 -29 -7 -29 7 0 18 13 24 29 5 15 9 28 7 28&#xA;-2 0 -13 -13 -24 -28z"/>
    <path d="M6535 1679 c-4 -6 -5 -12 -2 -15 2 -3 7 2 10 11 7 17 1 20 -8 4z"/>
    <path d="M6443 1658 c-15 -20 -25 -38 -20 -38 3 0 12 11 21 25 17 26 16 35 -1&#xA;13z"/>
    <path d="M6296 1643 c-6 -14 -5 -15 5 -6 7 7 10 15 7 18 -3 3 -9 -2 -12 -12z"/>
    <path d="M5804 1277 c-11 -13 -17 -29 -10 -24 3 1 22 -14 43 -33 l38 -35 -33&#xA;36 c-21 23 -30 41 -26 52 7 20 3 21 -12 4z"/>
    <path d="M5910 1145 c19 -19 36 -35 39 -35 3 0 -10 16 -29 35 -19 19 -36 35&#xA;-39 35 -3 0 10 -16 29 -35z"/>
    <path d="M5470 1166 c0 -2 8 -10 18 -17 15 -13 16 -12 3 4 -13 16 -21 21 -21&#xA;13z"/>
    <path d="M5619 1083 c-13 -16 -12 -17 4 -4 16 13 21 21 13 21 -2 0 -10 -8 -17&#xA;-17z"/>
    <path d="M5590 1050 c-9 -6 -10 -10 -3 -10 6 0 15 5 18 10 8 12 4 12 -15 0z"/>
    <path d="M5960 1040 c-9 -6 -10 -10 -3 -10 6 0 15 5 18 10 8 12 4 12 -15 0z"/>
    <path d="M5929 1003 c-13 -16 -12 -17 4 -4 9 7 17 15 17 17 0 8 -8 3 -21 -13z"/>
    <path d="M5781 861 c-8 -5 -9 -11 -3 -15 5 -3 12 1 16 9 6 17 6 18 -13 6z"/>
    <path d="M5907 594 c-39 -36 -49 -56 -12 -25 23 19 60 61 54 61 -2 0 -21 -17&#xA;-42 -36z"/>
    <path d="M5836 523 c-6 -14 -5 -15 5 -6 7 7 10 15 7 18 -3 3 -9 -2 -12 -12z"/>
    <path d="M5744 481 c20 -22 20 -22 -7 -47 -15 -14 -27 -28 -27 -31 0 -4 13 6&#xA;29 21 16 16 34 25 40 22 23 -14 -1 20 -27 38 l-27 20 19 -23z"/>
    <path d="M5795 489 c-4 -6 -5 -12 -2 -15 2 -3 7 2 10 11 7 17 1 20 -8 4z"/>
    <path d="M5850 381 c19 -17 39 -31 43 -31 12 0 -14 24 -48 44 -28 17 -28 16 5&#xA;-13z"/>
    <path d="M6223 1432 c-10 -9 -14 -14 -8 -11 5 4 19 9 30 11 13 2 16 6 9 11 -7&#xA;4 -20 -1 -31 -11z"/>
    <path d="M6010 250 c0 -5 5 -10 11 -10 5 0 7 5 4 10 -3 6 -8 10 -11 10 -2 0&#xA;-4 -4 -4 -10z"/>
    <path d="M5688 3673 c6 -2 9 -10 5 -16 -3 -7 -3 -9 2 -5 4 4 25 -2 46 -13 39&#xA;-19 56 -52 50 -93 -4 -26 -42 -77 -53 -70 -4 3 -8 0 -8 -5 0 -6 -3 -10 -7 -10&#xA;-25 4 -43 -3 -43 -17 0 -8 -4 -13 -9 -9 -5 3 -12 1 -16 -4 -9 -15 39 -3 50 12&#xA;6 8 20 13 32 12 12 -1 19 3 16 8 -3 5 0 7 8 5 8 -3 19 4 26 16 9 15 13 16 13&#xA;6 1 -23 30 49 30 76 0 12 -8 28 -17 33 -10 6 -13 11 -6 11 21 0 -33 50 -55 50&#xA;-11 0 -24 5 -27 10 -3 6 -16 10 -28 9 -12 0 -16 -3 -9 -6z"/>
    <path d="M5577 3416 c-60 -37 -96 -76 -127 -139 -26 -50 -29 -65 -24 -118 3&#xA;-32 2 -59 -3 -58 -4 1 -15 1 -23 0 -13 -1 -13 -2 0 -11 13 -8 12 -10 -2 -10&#xA;-10 0 -18 -4 -18 -10 0 -13 33 0 43 17 11 18 36 17 43 -2 4 -8 10 -12 15 -9 5&#xA;3 9 1 9 -3 0 -10 72 -45 78 -38 2 2 -10 11 -27 19 -16 9 -42 32 -57 51 -23 31&#xA;-26 42 -22 93 7 76 23 105 102 180 71 66 74 75 13 38z m-37 -50 c0 -2 -8 -10&#xA;-17 -17 -16 -13 -17 -12 -4 4 13 16 21 21 21 13z"/>
    <path d="M7170 3198 c-14 -22 -29 -46 -35 -52 -11 -12 -70 -101 -100 -151 -10&#xA;-16 -24 -37 -32 -45 -36 -39 -83 -111 -83 -126 0 -10 -3 -14 -6 -11 -4 3 -16&#xA;-5 -27 -19 -11 -15 -16 -29 -11 -34 9 -9 84 81 84 100 0 4 4 10 8 12 5 2 56&#xA;73 113 158 139 207 141 210 126 210 -6 0 -23 -19 -37 -42z"/>
    <path d="M7503 3125 c-3 -9 -3 -18 -1 -21 3 -3 8 4 11 16 6 23 -1 27 -10 5z"/>
    <path d="M6436 2903 c-6 -14 -5 -15 5 -6 7 7 10 15 7 18 -3 3 -9 -2 -12 -12z"/>
    <path d="M6323 2841 c-19 -31 -75 -68 -112 -75 l-35 -6 21 22 c33 38 39 52 17&#xA;45 -18 -7 -18 -7 0 8 17 13 17 15 4 15 -9 0 -19 -8 -22 -18 -10 -29 -140 -155&#xA;-150 -145 -3 3 -8 -1 -12 -10 -3 -9 -12 -13 -20 -10 -8 3 -14 0 -14 -7 0 -6&#xA;-4 -9 -9 -6 -5 3 -14 -1 -21 -9 -6 -7 -35 -22 -63 -31 -33 -11 -45 -19 -34&#xA;-22 10 -2 33 3 50 11 18 8 59 27 92 43 33 15 78 42 100 61 21 18 45 31 52 29&#xA;7 -3 13 0 13 7 0 9 3 8 9 -1 7 -11 9 -11 14 2 4 10 18 16 36 16 20 0 37 9 55&#xA;31 14 17 30 27 36 24 5 -3 10 -2 10 4 0 5 3 16 6 25 9 22 -9 20 -23 -3z"/>
    <path d="M6592 2614 c10 -10 20 -16 22 -13 3 3 -5 11 -17 18 -21 13 -21 12 -5&#xA;-5z"/>
    <path d="M6660 2571 c0 -6 4 -13 10 -16 6 -3 7 1 4 9 -7 18 -14 21 -14 7z"/>
    <path d="M6985 2484 c-9 -15 -12 -23 -6 -20 11 7 35 46 28 46 -3 0 -12 -12&#xA;-22 -26z"/>
    <path d="M6950 2435 c-11 -13 -10 -14 4 -9 9 3 16 10 16 15 0 13 -6 11 -20 -6z"/>
    <path d="M5130 2236 c0 -11 30 -66 36 -66 2 0 -3 15 -12 33 -19 36 -24 44 -24&#xA;33z"/>
    <path d="M5410 2163 c1 -26 71 -75 90 -63 11 6 7 10 -13 15 -15 4 -36 18 -46&#xA;31 -19 24 -31 31 -31 17z"/>
    <path d="M5330 2139 c-19 -4 -53 -6 -75 -4 -32 4 -35 3 -15 -4 31 -11 98 -12&#xA;124 -2 30 12 5 19 -34 10z"/>
    <path d="M5520 2100 c0 -5 5 -10 11 -10 5 0 7 5 4 10 -3 6 -8 10 -11 10 -2 0&#xA;-4 -4 -4 -10z"/>
    <path d="M6399 2041 c-19 -21 -38 -45 -42 -55 -4 -10 11 1 32 23 22 23 42 41&#xA;46 41 4 0 13 7 21 15 14 13 13 15 -3 14 -10 -1 -34 -18 -54 -38z"/>
    <path d="M6669 2023 c-13 -16 -12 -17 4 -4 16 13 21 21 13 21 -2 0 -10 -8 -17&#xA;-17z"/>
    <path d="M6327 2015 c-10 -7 -14 -16 -9 -19 5 -3 15 1 22 9 17 21 9 27 -13 10z"/>
    <path d="M6258 1999 c-21 -22 -24 -36 -5 -20 8 6 16 8 19 6 3 -3 8 3 11 15 6&#xA;25 -2 24 -25 -1z"/>
    <path d="M6445 1980 c-3 -5 -1 -10 4 -10 6 0 11 5 11 10 0 6 -2 10 -4 10 -3 0&#xA;-8 -4 -11 -10z"/>
    <path d="M6285 1920 c-3 -5 -1 -10 4 -10 6 0 11 5 11 10 0 6 -2 10 -4 10 -3 0&#xA;-8 -4 -11 -10z"/>
    <path d="M8430 3984 c0 -20 -388 -3906 -394 -3952 l-5 -32 1985 0 1984 0 0&#xA;2000 0 2000 -1785 0 c-1639 0 -1785 -1 -1785 -16z m3528 -1981 l-3 -1958&#xA;-1932 -3 -1933 -2 0 27 c0 35 380 3863 386 3881 3 9 360 12 1744 12 l1740 0&#xA;-2 -1957z"/>
    <path d="M9795 3909 c-82 -20 -165 -95 -165 -151 0 -26 34 -46 90 -53 69 -9&#xA;100 -28 100 -61 0 -40 -55 -87 -138 -118 -88 -34 -155 -78 -196 -129 -30 -37&#xA;-31 -43 -31 -133 l0 -94 -46 -15 c-103 -34 -196 -115 -237 -204 -31 -67 -34&#xA;-163 -8 -225 9 -22 15 -40 14 -40 -37 -19 -132 -105 -165 -149 -99 -135 -112&#xA;-354 -29 -486 30 -46 106 -117 149 -137 34 -16 34 -17 40 -100 11 -155 59&#xA;-247 144 -275 35 -11 38 -18 67 -154 90 -424 254 -975 339 -1138 64 -123 160&#xA;-176 296 -163 140 13 235 97 300 267 59 154 160 492 211 704 28 116 64 262 80&#xA;325 16 63 30 122 30 131 0 9 14 22 31 30 46 18 87 56 108 98 26 49 55 241 47&#xA;307 l-6 52 54 41 c163 126 208 346 110 538 -44 88 -149 192 -248 248 l-66 37&#xA;17 31 c12 23 17 57 18 117 0 75 -4 93 -31 150 -17 36 -46 83 -63 103 -40 44&#xA;-144 97 -206 104 -25 3 -45 6 -45 8 0 1 7 23 16 49 22 63 14 168 -17 227 -12&#xA;24 -49 71 -83 104 -128 127 -325 190 -481 154z m216 -55 c83 -24 185 -82 234&#xA;-132 62 -63 89 -122 93 -208 6 -117 -42 -200 -148 -254 -50 -26 -51 -31 -2&#xA;-18 51 14 72 26 109 61 30 28 35 29 84 23 114 -15 205 -82 252 -184 34 -73 31&#xA;-189 -6 -265 -33 -67 -112 -148 -177 -183 l-45 -25 35 7 c53 9 126 53 171 101&#xA;l40 44 52 -28 c67 -35 204 -173 240 -240 78 -147 47 -341 -75 -459 l-49 -49 6&#xA;40 7 40 -27 -52 c-34 -68 -98 -130 -160 -159 -161 -73 -435 -70 -585 6 -39 20&#xA;-40 22 -25 43 28 40 15 37 -25 -7 -78 -85 -235 -144 -332 -125 -24 4 -46 8&#xA;-50 9 -15 0 -88 72 -88 86 0 24 -19 25 -101 3 -74 -21 -87 -22 -153 -11 -136&#xA;24 -227 85 -278 190 -29 60 -33 76 -32 147 0 44 8 106 18 137 23 81 91 175&#xA;159 222 l56 39 44 -40 c68 -63 139 -85 287 -90 101 -4 143 -1 217 16 163 36&#xA;328 112 419 195 47 42 52 44 96 39 37 -4 54 -1 83 17 39 24 65 66 65 102 0 17&#xA;-5 13 -20 -19 -27 -61 -98 -100 -137 -75 -9 6 -4 20 17 52 17 25 30 48 30 52&#xA;0 4 -42 -35 -92 -86 -79 -78 -109 -101 -193 -143 -173 -88 -340 -128 -503&#xA;-121 -77 3 -108 9 -152 29 -110 51 -165 123 -176 227 -13 125 62 231 212 298&#xA;l84 37 23 -20 c76 -70 254 -93 410 -54 66 17 157 55 157 65 0 2 -27 -5 -60&#xA;-15 -160 -50 -352 -46 -452 8 -104 56 -113 166 -22 263 42 45 62 56 206 117&#xA;55 23 109 83 115 129 9 68 -32 101 -149 119 -45 7 -48 22 -9 59 56 54 193 72&#xA;302 40z m779 -1912 c0 -48 -32 -237 -45 -270 -30 -71 -72 -98 -204 -132 -136&#xA;-35 -285 -51 -522 -57 -248 -6 -312 0 -519 47 -186 43 -213 56 -249 130 -17&#xA;33 -47 207 -38 216 2 3 27 -1 55 -7 55 -11 175 1 214 22 17 9 25 5 50 -25 37&#xA;-45 94 -75 157 -83 81 -9 222 37 282 94 l27 25 40 -21 c22 -11 76 -31 119 -43&#xA;194 -55 498 -6 592 96 29 31 41 33 41 8z m-1171 -489 c10 -2 -15 -34 -69 -88&#xA;-47 -47 -87 -85 -91 -85 -3 0 -16 46 -29 102 -12 56 -24 108 -27 114 -4 10 80&#xA;-7 216 -43z m979 45 c-3 -7 -27 -100 -54 -206 l-49 -192 -82 82 c-46 46 -83&#xA;86 -83 90 0 4 34 51 76 105 64 83 83 101 122 115 57 21 76 22 70 6z m-164 -40&#xA;c-4 -7 -34 -48 -67 -91 l-60 -78 -74 73 -74 73 43 7 c40 7 179 23 221 27 12 1&#xA;16 -3 11 -11z m-487 -28 c88 0 88 0 -9 -105 l-64 -68 -94 92 -95 92 94 -5 c52&#xA;-3 127 -6 168 -6z m249 -72 c46 -45 84 -84 84 -88 0 -8 -182 -210 -189 -210&#xA;-3 1 -48 40 -100 89 l-95 88 83 96 c46 53 88 98 95 101 27 11 43 1 122 -76z&#xA;m-347 -120 c4 -12 -178 -198 -194 -198 -16 0 -185 173 -185 190 0 8 41 56 92&#xA;107 l91 92 96 -91 c53 -49 98 -95 100 -100z m604 -131 c21 -25 26 -40 20 -51&#xA;-15 -26 -165 -196 -174 -196 -5 0 -50 39 -100 88 l-91 87 97 108 98 107 61&#xA;-54 c33 -29 74 -69 89 -89z m-416 -39 l31 -33 -98 -105 -99 -105 -95 94 -95&#xA;94 97 103 96 102 66 -58 c36 -32 79 -73 97 -92z m-430 -23 l34 -30 -49 -49&#xA;-50 -48 -26 109 c-14 60 -26 116 -26 124 0 8 19 -6 42 -31 22 -25 56 -58 75&#xA;-75z m583 -125 l94 -89 -99 -100 c-54 -56 -101 -101 -104 -101 -3 1 -49 41&#xA;-101 90 l-94 89 99 100 c54 56 102 101 105 101 3 -1 48 -41 100 -90z m249 -41&#xA;c-18 -63 -34 -116 -36 -119 -2 -2 -21 14 -43 36 l-40 39 72 82 c39 46 73 81&#xA;75 79 2 -2 -10 -55 -28 -117z m-681 19 l93 -93 -103 -97 c-122 -114 -112 -117&#xA;-163 62 l-34 119 52 50 c29 28 54 51 57 51 2 0 47 -42 98 -92z m592 -133 l43&#xA;-44 -27 -93 c-32 -106 -46 -136 -74 -162 -21 -18 -22 -17 -106 60 l-85 77 97&#xA;103 c53 56 99 103 102 103 3 1 26 -19 50 -44z m-367 -84 c37 -36 67 -70 67&#xA;-76 0 -13 -182 -195 -195 -195 -5 0 -51 41 -101 91 l-91 90 91 87 c50 48 95&#xA;93 99 100 10 16 20 8 130 -97z m188 -177 c43 -38 78 -74 78 -81 1 -10 -180&#xA;-185 -197 -190 -4 -1 -45 33 -92 76 l-84 79 99 95 c55 53 104 95 109 93 5 -1&#xA;44 -33 87 -72z m-341 -116 c0 -8 -89 -82 -93 -77 -9 12 -47 112 -61 161 -9 32&#xA;-19 65 -23 75 -4 10 34 -20 85 -67 50 -47 92 -88 92 -92z m443 -26 c-33 -80&#xA;-64 -133 -98 -167 -20 -19 -39 -35 -44 -35 -5 0 -21 10 -36 21 l-27 22 103&#xA;103 c56 57 106 101 110 98 4 -2 1 -21 -8 -42z m-297 -105 l52 -49 -43 -39&#xA;c-23 -21 -51 -39 -61 -39 -39 0 -124 69 -154 125 -15 27 -14 28 35 71 l49 44&#xA;36 -32 c19 -18 58 -55 86 -81z m96 -84 c10 -9 18 -19 18 -24 0 -10 -57 -29&#xA;-88 -29 l-26 0 34 35 c39 41 38 40 62 18z"/>
    <path d="M9931 3590 c-1 -56 -32 -94 -120 -146 -96 -58 -92 -70 7 -20 102 51&#xA;147 116 123 177 -9 23 -10 22 -10 -11z"/>
    <path d="M10360 3111 c0 -12 6 -21 16 -21 9 0 14 7 12 17 -5 25 -28 28 -28 4z"/>
    <path d="M9402 2873 c-15 -26 -15 -53 -2 -53 11 0 24 43 18 62 -3 8 -9 5 -16&#xA;-9z"/>
    <path d="M9500 2721 c0 -20 13 -35 23 -25 7 8 -4 44 -14 44 -5 0 -9 -9 -9 -19z"/>
    <path d="M10690 2622 c0 -5 10 -17 21 -28 29 -25 59 -91 59 -130 0 -17 -11&#xA;-48 -25 -68 -22 -32 -23 -35 -5 -26 51 27 66 119 31 187 -25 50 -81 94 -81 65z"/>
    <path d="M9150 2344 c-30 -77 4 -175 77 -223 61 -41 150 -46 209 -12 30 18 31&#xA;18 62 -10 53 -47 156 -39 202 15 10 13 4 12 -31 -4 -75 -34 -133 -23 -179 33&#xA;-15 18 -17 18 -55 -4 -51 -30 -124 -31 -181 -1 -55 28 -87 92 -87 174 0 32 -2&#xA;58 -4 58 -2 0 -8 -12 -13 -26z"/>
    <path d="M10670 2195 c0 -24 -35 -87 -62 -112 -44 -41 -117 -66 -195 -67 -82&#xA;-1 -86 -5 -12 -17 102 -16 220 33 257 108 23 46 35 103 22 103 -6 0 -10 -7&#xA;-10 -15z"/>
    <path d="M9355 1755 c124 -62 274 -91 525 -100 184 -8 350 4 517 35 117 23&#xA;241 58 249 71 3 5 -5 5 -18 0 -37 -14 -221 -49 -353 -67 -95 -13 -172 -15&#xA;-370 -11 -267 5 -358 18 -510 71 -111 38 -114 38 -40 1z"/>
    <path d="M10215 1770 c17 -4 59 -8 95 -8 36 0 79 4 95 8 18 5 -18 8 -95 8 -77&#xA;0 -113 -3 -95 -8z"/>
  </g>
  <title>Header</title>
  <desc>Header</desc>
</svg>