<?xml version="1.0" encoding="UTF-8" standalone="yes"?>
<svg version="1.0" xmlns="http://www.w3.org/2000/svg" width="1024.000000pt" height="1024.000000pt" viewBox="0 0 1024.000000 1024.000000" preserveAspectRatio="xMidYMid meet">
  <metadata>
Created by potrace 1.16, written by Peter Selinger 2001-2019
</metadata>
  <g transform="translate(0.000000,1024.000000) scale(0.100000,-0.100000)" fill="#000000" stroke="none">
    <path d="M7015 9674 c-206 -29 -383 -98 -520 -204 -67 -52 -189 -170 -249&#xA;-242 l-48 -57 -32 24 c-146 111 -431 138 -660 61 -181 -60 -264 -109 -410&#xA;-240 -103 -93 -181 -187 -281 -341 -128 -199 -189 -335 -315 -705 -19 -58 -76&#xA;-244 -90 -295 -59 -222 -178 -583 -235 -716 -210 -487 -346 -709 -724 -1184&#xA;-31 -38 -146 -160 -256 -270 -184 -185 -280 -271 -595 -535 -205 -171 -491&#xA;-442 -646 -610 -127 -139 -288 -379 -361 -539 -91 -198 -137 -404 -138 -606 0&#xA;-297 58 -495 178 -600 l49 -43 -16 -49 c-9 -27 -18 -58 -21 -69 -33 -151 -37&#xA;-181 -36 -300 0 -181 27 -297 105 -452 76 -151 306 -396 467 -498 137 -86 329&#xA;-161 471 -184 155 -25 378 -1 552 59 32 12 63 18 70 14 6 -4 40 -30 76 -58&#xA;150 -119 350 -207 544 -241 50 -8 102 -17 116 -20 32 -5 347 -6 380 0 14 2 59&#xA;10 100 17 111 17 346 83 468 130 351 136 743 365 1072 627 131 105 204 167&#xA;370 316 81 74 522 519 572 578 24 28 79 92 123 142 214 243 545 680 660 871&#xA;22 36 54 87 70 113 54 83 97 156 128 212 17 30 38 66 47 80 9 14 20 32 24 40&#xA;4 8 36 69 72 135 139 256 315 635 427 920 187 474 343 1075 392 1509 8 72 20&#xA;169 26 216 17 137 23 636 10 803 -22 275 -75 506 -166 730 -52 128 -76 170&#xA;-155 275 -116 154 -248 254 -389 296 -35 10 -93 16 -162 16 l-107 0 -6 28 c-3&#xA;15 -10 61 -16 102 -31 206 -122 384 -266 521 -98 92 -250 176 -370 203 -73 16&#xA;-245 28 -299 20z m270 -90 c184 -38 360 -159 469 -324 63 -95 113 -247 134&#xA;-408 l9 -63 -76 -37 c-150 -72 -302 -259 -391 -481 -62 -153 -143 -447 -173&#xA;-626 -3 -16 -12 -64 -21 -105 -8 -41 -40 -203 -71 -360 -31 -157 -69 -337 -84&#xA;-400 -16 -63 -34 -142 -41 -175 -90 -424 -234 -829 -441 -1245 -284 -569 -636&#xA;-1059 -1065 -1482 -268 -264 -496 -459 -924 -791 -340 -264 -432 -342 -613&#xA;-521 -289 -285 -422 -522 -458 -815 -12 -97 -7 -202 18 -347 5 -30 1 -34 -79&#xA;-86 -325 -215 -608 -276 -926 -199 -140 34 -344 143 -457 245 l-50 45 85 1 86&#xA;0 39 -41 c57 -60 165 -127 215 -135 56 -9 49 1 -48 69 -73 52 -130 103 -121&#xA;110 2 2 31 11 64 21 90 27 213 105 200 126 -5 8 -59 -5 -80 -20 -20 -14 -161&#xA;-59 -202 -64 -41 -6 -43 -5 -71 36 -42 61 -96 172 -121 250 -25 76 -36 89 -45&#xA;53 -14 -55 45 -231 106 -318 11 -16 18 -31 15 -34 -3 -2 -44 -2 -91 2 l-86 7&#xA;-64 68 c-35 37 -78 88 -95 114 -44 63 -97 179 -116 251 -16 60 -35 257 -30&#xA;305 19 171 31 221 81 353 127 332 381 635 844 1006 211 169 331 267 419 342&#xA;36 31 75 63 86 72 122 99 172 141 305 258 182 160 546 525 688 689 233 271&#xA;492 627 642 885 159 275 316 573 361 688 45 113 69 158 82 151 6 -4 26 -18 43&#xA;-30 54 -41 145 -75 216 -81 l68 -6 -73 -36 c-100 -50 -205 -154 -235 -234 -46&#xA;-122 -19 -249 71 -345 30 -31 56 -51 64 -47 8 2 11 0 8 -5 -8 -12 64 -57 145&#xA;-90 114 -47 210 -63 340 -57 63 3 124 7 135 10 11 3 42 10 68 16 92 21 189 76&#xA;251 141 l59 61 41 -38 c22 -21 42 -41 44 -46 2 -4 8 -5 12 -2 30 19 -77 145&#xA;-148 176 -78 34 -96 20 -35 -27 l36 -28 -54 -50 c-111 -103 -239 -147 -429&#xA;-149 -159 -1 -278 29 -384 97 -77 49 -121 91 -153 144 -24 40 -28 57 -27 117&#xA;2 92 21 134 97 210 64 62 152 115 262 156 91 33 186 92 256 159 l64 60 12 -47&#xA;c37 -146 156 -297 276 -353 206 -96 492 -33 655 144 149 161 223 418 178 611&#xA;-37 157 -137 297 -261 369 -27 16 -51 30 -53 31 -1 1 8 31 22 66 13 35 32 98&#xA;42 139 l18 76 79 -28 c48 -17 104 -46 146 -78 71 -52 89 -58 109 -38 25 25 13&#xA;74 -32 135 -75 98 -156 156 -247 174 -54 11 -58 13 -64 45 -13 73 -46 158&#xA;-107 275 -61 116 -63 124 -63 194 0 88 13 107 115 162 117 65 150 108 150 197&#xA;0 46 -5 61 -33 98 -50 66 -106 90 -194 85 -103 -6 -180 -46 -269 -140 -113&#xA;-119 -167 -254 -163 -415 2 -115 18 -173 84 -304 72 -141 89 -208 82 -314 -8&#xA;-110 -41 -189 -127 -299 -76 -98 -147 -175 -160 -175 -5 0 -13 23 -19 52 -26&#xA;118 -133 255 -244 311 -57 29 -167 57 -225 57 -19 0 -32 4 -30 8 2 4 21 56 42&#xA;115 21 59 46 112 55 116 28 15 202 41 272 41 78 0 89 10 89 77 0 77 -67 109&#xA;-207 100 -46 -3 -83 -4 -83 -3 0 4 54 136 70 171 5 11 21 49 36 85 192 470&#xA;516 891 792 1029 54 27 204 80 267 94 52 12 268 6 340 -9z m-1351 -365 c64&#xA;-11 145 -47 190 -84 l29 -23 -75 -119 c-42 -65 -96 -154 -120 -198 -54 -99&#xA;-178 -375 -228 -510 -37 -98 -39 -101 -92 -132 -29 -17 -60 -43 -67 -56 -18&#xA;-33 -7 -75 23 -89 l24 -10 -43 -121 c-23 -67 -49 -123 -56 -125 -309 -92 -491&#xA;-329 -506 -657 -5 -111 -4 -126 21 -199 15 -43 40 -98 57 -123 l31 -44 -43&#xA;-107 c-43 -107 -273 -571 -308 -621 -10 -14 -32 -51 -48 -81 -129 -239 -460&#xA;-703 -671 -940 -310 -346 -603 -626 -957 -914 -61 -50 -173 -142 -250 -206&#xA;-187 -154 -295 -243 -321 -260 -20 -14 -56 -46 -255 -222 -100 -89 -261 -260&#xA;-320 -339 -22 -30 -46 -61 -52 -69 -33 -41 -113 -174 -149 -248 l-40 -84 -33&#xA;32 c-66 64 -115 195 -140 374 -39 276 48 645 213 911 17 28 39 64 48 80 21 38&#xA;57 84 170 220 110 133 331 348 554 540 91 78 219 189 285 246 66 57 133 115&#xA;149 129 159 137 428 408 551 555 51 61 139 173 196 250 172 231 242 342 370&#xA;590 154 298 269 593 380 970 28 94 57 190 65 215 8 25 36 115 63 201 149 470&#xA;279 713 510 952 249 259 541 368 845 316z m862 -320 c58 -54 71 -128 32 -173&#xA;-13 -14 -59 -45 -103 -69 -45 -25 -92 -60 -110 -81 -28 -36 -30 -43 -30 -124&#xA;0 -87 0 -88 64 -217 70 -143 101 -224 101 -264 0 -15 -9 -44 -20 -66 -26 -51&#xA;-25 -67 5 -103 l24 -29 -20 -84 c-27 -116 -54 -185 -71 -180 -7 2 -62 4 -123&#xA;4 -79 0 -121 -5 -149 -17 -52 -22 -63 -20 -39 7 100 112 146 309 108 462 -10&#xA;39 -44 124 -76 190 -64 130 -79 189 -79 299 0 166 74 311 208 409 65 48 125&#xA;68 194 64 45 -3 64 -9 84 -28z m1377 -179 c167 -27 346 -177 477 -399 59 -102&#xA;110 -242 160 -447 57 -234 78 -426 77 -729 0 -266 -9 -383 -53 -725 -36 -285&#xA;-186 -901 -284 -1170 -18 -47 -42 -114 -55 -150 -37 -103 -89 -235 -143 -360&#xA;-82 -189 -296 -629 -343 -705 -14 -22 -42 -73 -62 -112 -140 -269 -511 -816&#xA;-728 -1073 -106 -125 -167 -198 -187 -225 -13 -16 -47 -55 -75 -85 -29 -31&#xA;-72 -78 -96 -105 -123 -138 -383 -396 -541 -535 -46 -41 -107 -95 -135 -121&#xA;-27 -25 -93 -80 -145 -123 -52 -43 -115 -94 -140 -115 -128 -106 -449 -306&#xA;-665 -414 -398 -200 -701 -280 -1055 -280 -140 0 -195 5 -275 22 -181 39 -293&#xA;84 -430 173 -73 48 -131 96 -124 102 2 1 40 25 84 51 44 26 94 59 111 72 17&#xA;12 35 23 40 23 6 0 29 -29 52 -64 79 -121 225 -221 309 -214 l35 3 -64 36&#xA;c-130 75 -204 163 -265 318 -32 78 -35 98 -40 216 -8 191 20 312 114 501 126&#xA;252 403 536 879 901 72 55 142 109 155 121 13 11 69 56 124 100 241 193 232&#xA;186 455 383 150 133 406 388 517 516 99 114 186 226 303 389 30 43 60 82 65&#xA;89 6 6 15 18 20 28 6 9 42 63 81 119 200 290 451 784 586 1153 48 132 132 409&#xA;157 520 33 139 113 489 121 525 10 44 100 493 141 700 107 549 240 852 436&#xA;1001 30 22 74 49 97 60 79 35 204 47 309 29z m-2343 -1059 c111 -55 201 -170&#xA;229 -292 17 -72 13 -94 -29 -163 -53 -88 -88 -193 -102 -315 -11 -99 -12 -100&#xA;-57 -146 -60 -62 -113 -97 -186 -124 -163 -61 -356 -22 -478 97 -97 94 -137&#xA;195 -137 347 0 214 81 393 232 515 116 94 198 121 353 116 101 -2 115 -5 175&#xA;-35z m903 -239 c195 -96 310 -326 275 -549 -30 -190 -163 -395 -304 -466 -210&#xA;-107 -453 -76 -588 75 -204 226 -165 616 84 841 109 99 215 137 366 134 91 -2&#xA;107 -5 167 -35z"/>
    <path d="M5178 5505 c-179 -49 -378 -243 -437 -426 -24 -73 -24 -75 -35 -399&#xA;-5 -150 -23 -208 -84 -269 -51 -50 -139 -90 -260 -116 -230 -50 -374 -85 -424&#xA;-103 -109 -39 -251 -149 -317 -247 -46 -67 -71 -139 -97 -281 -39 -211 -75&#xA;-282 -169 -332 -35 -18 -166 -41 -275 -48 -207 -13 -347 -69 -450 -181 -32&#xA;-35 -68 -85 -80 -110 -99 -211 34 -438 215 -369 51 20 94 59 153 139 80 107&#xA;148 137 319 137 263 0 461 103 580 300 50 82 79 165 99 283 30 180 64 252 148&#xA;312 65 46 141 70 311 100 179 30 250 52 372 111 160 77 278 212 326 372 17 55&#xA;21 108 26 297 6 212 8 234 29 276 34 68 84 122 162 174 206 137 246 285 99&#xA;374 -40 25 -135 27 -211 6z m213 -83 c37 -41 37 -78 0 -128 -35 -49 -68 -78&#xA;-151 -136 -95 -67 -162 -146 -185 -218 -4 -14 -11 -131 -15 -260 -8 -249 -15&#xA;-292 -68 -395 -13 -27 -55 -79 -91 -115 -109 -108 -254 -168 -531 -220 -228&#xA;-42 -325 -87 -394 -180 -52 -71 -69 -116 -96 -255 -32 -170 -55 -235 -106&#xA;-306 -54 -75 -90 -110 -159 -154 -98 -63 -193 -85 -427 -99 -99 -6 -178 -33&#xA;-223 -74 -17 -15 -52 -56 -79 -91 -55 -72 -125 -121 -170 -121 -100 2 -154&#xA;175 -92 297 26 53 101 130 168 176 50 33 185 77 236 77 76 0 285 31 340 50&#xA;126 44 195 143 222 317 11 70 13 79 25 148 12 66 69 177 119 232 90 99 237&#xA;177 392 207 206 39 419 101 490 141 22 13 56 41 75 62 78 86 97 169 99 419 1&#xA;169 3 184 31 271 39 119 137 237 264 318 86 56 148 75 229 72 63 -3 71 -5 97&#xA;-35z"/>
    <path d="M5689 7240 c-75 -40 -135 -187 -110 -270 15 -51 54 -97 90 -105 104&#xA;-23 217 138 191 274 -13 70 -26 90 -65 107 -44 18 -62 17 -106 -6z"/>
    <path d="M6584 7010 c-60 -39 -114 -143 -114 -221 0 -98 55 -157 135 -145 109&#xA;17 192 214 136 324 -12 23 -30 46 -40 52 -31 16 -83 11 -117 -10z"/>
  </g>
  <title>Hot dog z musztardą</title>
  <desc>Klasyczny hot dog w bułce, polany musztardą. To szybka i popularna przekąska na całym świecie. Możesz dorysować do niego ketchupu lub inne dodatki.</desc>
</svg>