<?xml version="1.0" encoding="UTF-8" standalone="yes"?>
<svg version="1.0" xmlns="http://www.w3.org/2000/svg" width="1024.000000pt" height="1024.000000pt" viewBox="0 0 1024.000000 1024.000000" preserveAspectRatio="xMidYMid meet">
  <metadata>
Created by potrace 1.16, written by Peter Selinger 2001-2019
</metadata>
  <g transform="translate(0.000000,1024.000000) scale(0.100000,-0.100000)" fill="#000000" stroke="none">
    <path d="M4820 9439 c-209 -20 -737 -199 -986 -335 -125 -67 -145 -95 -159&#xA;-226 -7 -64 0 -59 -130 -78 -466 -66 -944 -199 -1315 -364 -402 -179 -645&#xA;-354 -782 -563 -192 -292 -209 -609 -45 -853 l36 -53 -38 -56 c-85 -125 -151&#xA;-275 -186 -426 -71 -303 -11 -561 180 -763 l62 -67 -34 -50 c-48 -72 -128&#xA;-238 -152 -320 -102 -340 -50 -647 145 -865 26 -28 44 -53 41 -56 -3 -3 -42&#xA;-19 -88 -35 -590 -211 -966 -522 -1101 -909 -74 -213 -51 -484 60 -705 78&#xA;-157 229 -337 396 -471 229 -185 585 -381 950 -523 86 -34 133 -60 216 -121&#xA;453 -335 975 -557 1656 -704 291 -63 410 -82 714 -116 348 -39 564 -51 905&#xA;-49 627 4 1089 59 1664 200 581 142 1095 369 1496 660 111 80 126 88 295 159&#xA;160 67 428 201 550 275 379 230 610 454 740 719 129 262 145 536 46 768 -155&#xA;361 -543 653 -1183 893 -40 15 -73 28 -73 30 0 2 15 35 34 72 60 119 71 172&#xA;71 328 -1 112 -5 154 -21 210 -34 113 -81 217 -140 306 -29 45 -54 85 -54 87&#xA;0 2 24 30 54 62 160 174 236 368 236 611 0 219 -90 456 -243 641 l-39 48 47&#xA;52 c133 148 205 351 205 576 -1 407 -240 707 -780 976 -91 45 -213 101 -272&#xA;123 -370 144 -837 254 -1323 313 -99 12 -190 26 -202 31 -18 7 -23 16 -23 47&#xA;0 96 -53 183 -135 225 -39 20 -360 118 -493 152 -190 48 -607 136 -672 143&#xA;-36 4 -94 4 -130 1z m140 -119 c63 -11 525 -116 725 -166 158 -39 380 -112&#xA;407 -134 14 -10 30 -32 37 -47 17 -42 29 -253 27 -480 -1 -187 -2 -204 -22&#xA;-230 -56 -77 -277 -189 -649 -328 -197 -74 -239 -85 -324 -85 -251 0 -968 170&#xA;-1228 290 -88 41 -111 65 -124 133 -15 77 -23 632 -10 664 14 34 73 71 216&#xA;136 201 91 287 122 500 184 249 71 324 82 445 63z m1555 -605 c765 -112 1335&#xA;-295 1728 -555 397 -263 549 -607 432 -978 -65 -206 -254 -403 -500 -522 -98&#xA;-47 -284 -112 -302 -106 -16 7 -17 67 -2 207 17 173 46 261 110 334 51 58 105&#xA;83 236 109 213 43 306 114 333 258 6 29 6 56 1 61 -4 4 -11 -4 -14 -21 -20&#xA;-99 -151 -182 -327 -207 -236 -35 -359 -149 -407 -380 -18 -88 -25 -454 -11&#xA;-615 4 -47 10 -119 13 -160 12 -159 47 -491 66 -630 37 -274 47 -405 45 -560&#xA;-4 -213 -36 -318 -133 -431 -64 -76 -76 -104 -81 -196 -6 -105 11 -240 51&#xA;-418 26 -116 32 -161 32 -265 0 -110 -3 -130 -22 -166 -34 -64 -76 -94 -130&#xA;-94 -40 0 -51 5 -82 38 -20 21 -43 58 -50 83 -18 58 -16 233 3 345 33 191 46&#xA;312 46 431 0 142 -5 159 -76 253 -56 73 -96 158 -118 246 -33 128 -37 231 -30&#xA;644 7 429 1 562 -36 782 -20 115 -73 315 -105 393 -117 283 -297 449 -731 672&#xA;-449 231 -754 258 -1214 108 -238 -78 -352 -85 -625 -39 -140 23 -201 28 -345&#xA;28 -197 1 -273 -11 -444 -71 -258 -90 -443 -217 -555 -382 -112 -165 -160&#xA;-312 -210 -651 -24 -158 -32 -188 -69 -254 -41 -75 -90 -109 -162 -114 -50 -4&#xA;-66 0 -104 22 -120 70 -134 245 -60 730 13 87 26 170 29 185 31 169 31 301 2&#xA;358 -30 57 -68 75 -181 85 -346 28 -454 59 -550 154 -33 33 -65 98 -66 131 0&#xA;39 31 116 71 176 22 31 37 57 34 57 -18 0 -66 -34 -98 -69 -50 -56 -68 -95&#xA;-74 -163 -5 -51 -2 -66 26 -123 73 -147 264 -231 551 -241 176 -7 187 -9 210&#xA;-47 27 -44 26 -122 -6 -293 -14 -76 -31 -177 -39 -223 -8 -46 -17 -86 -20 -89&#xA;-6 -7 -256 63 -395 110 -158 54 -365 157 -461 230 -176 133 -279 316 -279 498&#xA;0 247 164 519 425 705 296 212 844 425 1375 536 167 34 451 82 457 76 2 -3 6&#xA;-67 9 -143 l6 -139 -44 -23 c-63 -32 -145 -107 -168 -153 -36 -69 -25 -154 27&#xA;-225 47 -64 213 -125 336 -124 39 1 36 3 -43 29 -147 48 -203 87 -234 163 -20&#xA;48 -20 71 1 115 15 32 103 113 122 113 5 0 11 -24 14 -54 7 -66 35 -124 79&#xA;-161 121 -103 741 -284 1198 -351 219 -31 290 -16 717 157 290 117 480 225&#xA;531 302 17 25 29 59 32 91 5 48 7 51 30 47 86 -12 185 -73 217 -134 23 -45 13&#xA;-119 -24 -170 -32 -47 -129 -103 -194 -113 -55 -9 -38 -24 26 -24 201 0 342&#xA;190 264 355 -35 74 -101 119 -228 154 -39 11 -75 22 -80 25 -4 3 -9 73 -10&#xA;156 l-2 150 43 0 c24 0 120 -11 213 -25z m-615 -1365 c216 -30 544 -174 815&#xA;-356 106 -71 202 -150 194 -158 -9 -9 -170 -38 -284 -51 -126 -15 -185 -30&#xA;-185 -47 0 -15 279 -4 415 17 l110 17 28 -34 c40 -47 112 -199 137 -291 12&#xA;-44 20 -81 17 -83 -8 -9 -253 -52 -382 -68 -111 -14 -375 -36 -426 -36 -9 0&#xA;-38 17 -65 39 -322 256 -800 190 -1039 -144 -102 -143 -139 -262 -139 -445 0&#xA;-150 15 -216 79 -347 52 -105 150 -215 245 -275 325 -206 760 -133 986 165&#xA;105 138 148 273 148 462 0 120 -3 137 -33 225 -18 52 -45 116 -62 143 -16 26&#xA;-29 51 -29 56 0 4 46 11 103 15 145 10 332 32 477 57 170 30 162 30 171 -11&#xA;11 -53 29 -256 29 -332 l0 -67 -37 -10 c-80 -21 -142 -34 -256 -51 -65 -9&#xA;-120 -20 -123 -23 -22 -22 209 -19 343 4 35 6 67 9 70 5 13 -13 1 -640 -13&#xA;-655 -2 -2 -153 -25 -336 -51 -183 -26 -345 -54 -360 -61 -34 -15 -36 -34 -5&#xA;-51 49 -29 431 -7 683 38 l31 6 12 -86 c23 -168 84 -313 169 -407 64 -70 69&#xA;-81 77 -166 12 -117 -31 -387 -63 -397 -27 -8 -187 -43 -324 -70 -560 -112&#xA;-1141 -170 -1793 -179 -282 -5 -755 10 -925 28 -25 3 -106 10 -180 15 -170 13&#xA;-556 56 -675 75 -49 7 -137 21 -195 30 -538 84 -1107 243 -1400 390 -204 102&#xA;-390 263 -469 405 -155 280 -128 611 77 931 l36 56 65 -42 c283 -183 755 -351&#xA;1321 -469 339 -71 587 -77 625 -16 13 20 -10 31 -86 41 -432 58 -913 174&#xA;-1309 316 -160 57 -428 187 -524 253 -79 55 -180 151 -222 213 -158 233 -151&#xA;558 20 871 25 46 54 93 64 106 l19 23 59 -48 c90 -74 183 -131 317 -195 164&#xA;-79 282 -119 584 -199 l42 -11 -2 -178 c-2 -151 1 -185 17 -232 52 -149 156&#xA;-229 284 -217 171 15 282 155 322 405 10 60 15 72 31 72 10 0 87 -11 171 -25&#xA;84 -13 203 -29 263 -36 61 -6 112 -13 114 -14 1 -2 -8 -19 -22 -37 -80 -107&#xA;-137 -274 -142 -423 -15 -415 274 -728 695 -752 337 -19 648 213 735 546 78&#xA;302 -43 639 -293 812 -242 169 -559 170 -803 4 l-66 -45 -179 20 c-194 23&#xA;-462 65 -472 74 -13 13 37 219 71 290 132 277 350 443 707 538 102 27 134 31&#xA;280 34 143 3 190 -1 355 -26 314 -49 396 -42 709 54 219 68 424 90 596 66z&#xA;m2661 -712 c295 -419 237 -887 -146 -1171 -102 -76 -387 -219 -403 -202 -10&#xA;10 -82 474 -85 544 l-2 74 55 14 c284 71 499 200 561 337 11 24 18 63 18 96&#xA;l0 55 -20 -52 c-46 -120 -195 -234 -415 -317 -88 -33 -206 -67 -212 -61 -7 7&#xA;-31 318 -32 401 l0 71 82 22 c165 44 359 133 478 219 30 22 58 41 62 41 4 1&#xA;31 -32 59 -71z m-4146 -273 c218 -39 416 -215 486 -435 27 -82 36 -246 20&#xA;-332 -7 -35 -33 -106 -58 -158 -38 -79 -59 -108 -127 -175 -135 -135 -267&#xA;-189 -456 -188 -176 0 -320 61 -445 187 -196 198 -239 485 -114 745 34 69 58&#xA;102 123 167 117 116 233 176 376 193 95 12 107 12 195 -4z m1623 -37 c361&#xA;-130 533 -542 373 -892 -109 -236 -371 -392 -626 -371 -171 14 -313 82 -429&#xA;206 -83 89 -139 192 -162 301 -21 95 -14 260 14 338 76 215 235 370 445 431&#xA;96 29 288 22 385 -13z m2490 -1040 c58 -89 110 -206 134 -301 16 -65 19 -101&#xA;16 -186 -12 -259 -157 -453 -468 -628 -116 -66 -359 -151 -372 -130 -14 22&#xA;-31 153 -32 237 0 94 11 125 64 175 114 107 160 266 160 551 l0 131 83 33&#xA;c111 44 274 123 317 154 19 14 40 25 46 26 7 0 30 -28 52 -62z m422 -1074&#xA;c195 -95 362 -194 488 -288 110 -83 248 -223 306 -310 49 -74 110 -206 127&#xA;-276 19 -77 17 -250 -4 -328 -104 -391 -489 -748 -1117 -1038 -517 -238 -1232&#xA;-442 -1940 -553 -161 -26 -487 -69 -570 -76 -36 -3 -105 -10 -155 -15 -49 -5&#xA;-148 -12 -220 -16 -71 -3 -141 -8 -155 -9 -14 -2 -187 -6 -385 -10 -904 -18&#xA;-1868 88 -2728 301 -471 116 -907 270 -1247 441 -332 166 -521 295 -690 470&#xA;-205 210 -300 415 -300 643 0 373 272 695 835 991 108 57 325 153 325 144 0&#xA;-3 -23 -33 -50 -67 -57 -71 -130 -207 -154 -288 -15 -51 -21 -58 -86 -99 -149&#xA;-95 -302 -275 -350 -413 -31 -87 -38 -241 -16 -328 121 -483 852 -916 1991&#xA;-1179 981 -226 2091 -301 3180 -215 656 52 1326 179 1857 354 539 177 988 414&#xA;1232 649 139 134 217 255 251 391 22 82 15 218 -14 310 -52 165 -243 369 -475&#xA;508 -37 23 -71 42 -75 44 -3 2 -24 39 -45 82 -29 60 -59 100 -121 163 l-81 82&#xA;34 35 35 34 81 -29 c45 -16 151 -63 236 -105z m-7236 -56 c430 -276 1363 -498&#xA;2471 -588 72 -6 155 -13 185 -15 319 -26 1017 -34 1365 -15 372 20 766 62&#xA;1090 116 155 25 469 88 526 104 18 5 35 7 38 5 2 -3 4 -54 2 -113 -3 -151 16&#xA;-224 81 -297 93 -106 243 -105 341 4 58 64 79 118 92 232 5 49 -13 220 -32&#xA;296 -4 18 0 23 24 29 111 27 380 149 503 228 80 52 79 52 159 -47 102 -129&#xA;151 -262 151 -413 0 -211 -79 -374 -266 -555 -366 -352 -1102 -610 -2089 -733&#xA;-459 -58 -757 -76 -1222 -76 -505 0 -849 19 -1273 70 -1278 156 -2090 492&#xA;-2354 972 -146 265 -122 539 66 780 29 37 55 68 57 68 2 0 40 -23 85 -52z&#xA;m7214 -357 c182 -125 304 -263 358 -407 161 -427 -269 -859 -1205 -1210 -536&#xA;-202 -1373 -376 -2006 -419 -49 -3 -103 -8 -120 -10 -246 -30 -1275 -31 -1639&#xA;-1 -1034 86 -1897 285 -2552 589 -288 134 -483 265 -640 429 -137 142 -201&#xA;274 -211 429 -9 141 32 251 145 392 46 58 203 197 223 197 3 0 6 -39 7 -87 5&#xA;-517 470 -938 1317 -1193 526 -158 1139 -256 1905 -304 292 -19 1044 -14 1315&#xA;8 644 51 1143 132 1580 257 308 87 458 144 685 259 497 252 761 586 759 960 0&#xA;47 -4 104 -8 128 -5 23 -6 42 -4 42 3 0 44 -27 91 -59z m-6661 -2275 c563&#xA;-159 1247 -284 1748 -321 44 -3 90 -8 101 -10 28 -6 382 -32 564 -42 262 -14&#xA;974 -8 1220 11 277 21 621 58 800 86 74 12 162 26 195 30 238 35 656 127 959&#xA;209 121 33 221 59 223 57 6 -5 -231 -132 -332 -178 -355 -161 -761 -288 -1190&#xA;-372 -252 -49 -281 -53 -490 -80 -752 -96 -1682 -67 -2375 75 -496 102 -979&#xA;259 -1320 429 -136 68 -281 149 -268 150 4 0 79 -20 165 -44z"/>
    <path d="M6035 8965 c-5 -1 -46 -13 -90 -25 -44 -13 -181 -63 -305 -113 -124&#xA;-49 -285 -111 -358 -138 -132 -49 -133 -49 -200 -39 -79 13 -433 101 -686 171&#xA;-264 74 -462 114 -486 99 -15 -9 83 -48 315 -124 274 -89 772 -226 822 -226&#xA;12 0 24 -4 27 -8 15 -24 38 -219 44 -369 7 -167 14 -203 32 -173 28 45 40 223&#xA;30 448 l-5 114 135 48 c202 73 667 265 711 295 46 30 54 53 14 40z"/>
    <path d="M2475 8049 c-94 -26 -237 -98 -308 -155 -32 -26 -56 -48 -54 -50 2&#xA;-3 28 12 58 32 72 48 216 118 331 159 101 37 85 45 -27 14z"/>
    <path d="M6863 7418 c187 -111 330 -228 393 -322 36 -54 44 -51 20 6 -56 133&#xA;-271 305 -416 332 l-35 7 38 -23z"/>
    <path d="M3313 7400 c-69 -31 -157 -95 -208 -152 -59 -65 -108 -164 -103 -210&#xA;l3 -33 14 40 c42 120 192 283 326 353 50 26 25 28 -32 2z"/>
    <path d="M7505 4947 c-13 -31 1 -149 25 -205 27 -63 70 -102 112 -102 l30 0&#xA;-42 43 c-53 53 -98 145 -109 223 -5 42 -10 54 -16 41z"/>
    <path d="M4119 6866 c-145 -31 -279 -131 -279 -209 0 -15 3 -27 8 -27 4 0 30&#xA;16 57 36 110 80 251 124 395 124 71 0 85 7 75 39 -13 42 -140 61 -256 37z"/>
    <path d="M5741 6870 c-41 -10 -66 -33 -58 -54 5 -12 21 -16 69 -16 141 -1 282&#xA;-43 413 -123 55 -34 60 -35 63 -18 11 66 -109 161 -257 205 -57 17 -172 20&#xA;-230 6z"/>
    <path d="M3535 6780 c3 -5 18 -10 32 -10 32 0 28 5 -10 14 -19 4 -26 3 -22 -4z"/>
    <path d="M1510 6452 c12 -98 68 -181 180 -266 162 -121 342 -189 580 -219 19&#xA;-3 44 -1 55 3 16 6 12 10 -24 20 -164 44 -386 133 -484 193 -157 94 -297 242&#xA;-297 312 0 8 -4 15 -8 15 -5 0 -5 -26 -2 -58z"/>
    <path d="M1531 5160 c-1 -81 28 -149 96 -221 143 -154 451 -312 813 -418 258&#xA;-75 630 -138 860 -147 184 -6 185 6 2 37 -830 140 -1394 342 -1635 586 -73 74&#xA;-86 93 -113 168 l-23 60 0 -65z"/>
    <path d="M4513 4826 c-17 -14 -36 -39 -42 -55 -27 -63 7 -137 45 -99 16 16 21&#xA;13 83 -43 67 -62 182 -125 271 -150 67 -19 290 -16 375 5 109 26 225 88 300&#xA;158 65 61 66 61 81 40 19 -27 60 -29 73 -4 7 14 5 30 -10 60 -40 80 -127 130&#xA;-178 103 -24 -13 -28 -49 -6 -57 24 -10 17 -32 -23 -71 -154 -155 -516 -202&#xA;-716 -95 -68 36 -163 129 -171 167 -14 68 -37 79 -82 41z"/>
    <path d="M4454 5931 c-93 -57 -136 -194 -100 -315 31 -104 90 -158 171 -158&#xA;54 0 95 21 134 69 100 121 68 343 -60 409 -39 20 -108 18 -145 -5z"/>
    <path d="M5520 5928 c-19 -13 -48 -45 -64 -71 -25 -41 -30 -61 -34 -133 -3&#xA;-64 0 -95 13 -130 86 -227 335 -147 335 108 0 91 -17 143 -64 195 -38 42 -47&#xA;46 -96 50 -46 4 -61 1 -90 -19z"/>
    <path d="M8497 4874 c-38 -79 -181 -198 -342 -285 -86 -47 -83 -63 8 -34 130&#xA;43 274 144 328 232 23 37 41 110 29 118 -4 2 -14 -12 -23 -31z"/>
    <path d="M1653 3825 c11 -109 93 -211 249 -308 376 -235 1288 -458 2113 -517&#xA;193 -14 679 -9 715 7 20 10 4 12 -90 13 -63 1 -133 3 -155 5 -22 3 -110 9&#xA;-196 15 -405 26 -926 101 -1319 191 -752 172 -1172 364 -1281 585 -17 35 -34&#xA;64 -37 64 -3 0 -2 -25 1 -55z"/>
    <path d="M8480 3678 c-66 -74 -186 -154 -327 -218 -57 -27 -107 -50 -110 -53&#xA;-13 -13 83 4 146 26 143 50 275 144 327 233 43 73 25 79 -36 12z"/>
    <path d="M7075 3139 c-157 -34 -345 -63 -560 -85 -88 -9 -162 -17 -163 -19&#xA;-12 -11 114 -17 243 -12 225 9 466 57 589 116 76 37 56 37 -109 0z"/>
  </g>
  <title>Naleśnik z masłem</title>
  <desc>Ciepły, puszysty naleśnik (pancake) z kostką topiącego się masła na wierzchu. To klasyczne amerykańskie śniadanie. Polej go w wyobraźni syropem klonowym.</desc>
</svg>