<?xml version="1.0" standalone="no"?>
<!DOCTYPE svg PUBLIC "-//W3C//DTD SVG 20010904//EN"
 "http://www.w3.org/TR/2001/REC-SVG-20010904/DTD/svg10.dtd">
<svg version="1.0" xmlns="http://www.w3.org/2000/svg"
 width="1024.000000pt" height="1024.000000pt" viewBox="0 0 1024.000000 1024.000000"
 preserveAspectRatio="xMidYMid meet">
<metadata>
Created by potrace 1.16, written by Peter Selinger 2001-2019
</metadata>
<g transform="translate(0.000000,1024.000000) scale(0.100000,-0.100000)"
fill="#000000" stroke="none">
<path d="M4820 9199 c-143 -14 -288 -99 -380 -224 -97 -131 -144 -259 -144
-392 l0 -82 -55 55 c-102 100 -226 138 -315 94 -62 -29 -130 -107 -147 -167
-21 -71 -15 -226 10 -292 l20 -53 -27 7 c-54 14 -79 17 -152 18 -63 1 -84 -4
-135 -28 -117 -56 -218 -186 -296 -382 -55 -137 -67 -148 -93 -83 -12 32 -16
77 -16 208 0 125 -4 182 -16 223 -52 177 -192 309 -328 309 -65 0 -96 -10
-126 -42 -40 -41 -52 -86 -51 -185 0 -100 -10 -143 -33 -143 -8 0 -49 59 -92
131 -89 149 -199 275 -287 327 -151 91 -303 106 -430 44 -126 -63 -177 -150
-177 -306 0 -200 74 -324 399 -676 33 -36 60 -68 61 -72 0 -16 -30 -7 -112 32
-160 76 -266 87 -367 35 -112 -56 -160 -179 -120 -304 32 -102 162 -206 320
-258 l78 -26 -27 -40 c-25 -38 -27 -48 -27 -153 0 -176 -16 -175 -137 4 -74
111 -164 208 -241 261 -111 76 -260 101 -370 61 -175 -63 -260 -203 -222 -366
35 -152 118 -255 346 -432 153 -117 152 -110 6 -110 -163 1 -221 -16 -293 -87
-73 -71 -90 -139 -59 -242 30 -100 117 -177 243 -214 23 -7 42 -14 42 -16 0
-2 -11 -20 -25 -41 -82 -125 -96 -253 -64 -607 67 -737 183 -1190 448 -1738
226 -469 561 -906 901 -1177 175 -140 483 -321 633 -373 14 -5 17 -18 17 -69
0 -119 53 -208 171 -289 226 -153 710 -273 1314 -325 234 -20 796 -28 1055
-14 359 19 421 25 760 76 194 30 510 115 647 175 223 98 328 213 340 374 l6
71 126 64 c177 91 420 239 526 320 257 196 513 482 752 839 145 216 348 649
443 946 99 311 183 744 215 1110 4 39 10 106 16 150 5 44 9 154 9 245 0 181
-10 234 -56 321 -32 60 -155 189 -179 189 -10 0 10 26 49 64 145 143 163 273
52 382 -54 54 -102 77 -195 91 l-53 8 66 43 c79 53 183 161 214 223 43 90 21
202 -53 268 -18 16 -60 39 -92 51 -51 19 -69 21 -148 15 -148 -12 -198 -11
-202 2 -3 7 19 36 48 65 29 29 84 95 123 148 177 237 213 466 100 621 -66 90
-167 143 -303 161 -232 30 -415 -90 -559 -367 -17 -33 -51 -103 -75 -155 -50
-108 -72 -134 -91 -107 -7 9 -18 49 -25 89 -17 105 -41 184 -63 208 -19 21
-19 21 12 53 44 45 105 151 125 219 24 85 10 144 -48 205 -47 50 -111 67 -226
60 -53 -3 -107 -9 -121 -15 -14 -5 -44 -12 -68 -16 -65 -10 -64 11 6 103 218
289 251 546 91 701 -62 60 -134 83 -244 77 -231 -12 -391 -134 -572 -437 -28
-47 -64 -112 -81 -145 -33 -66 -67 -104 -81 -89 -5 5 -12 63 -15 129 -11 242
-64 319 -216 320 -84 0 -177 -43 -255 -116 -74 -70 -111 -128 -140 -221 -35
-111 -41 -212 -20 -328 10 -52 20 -108 23 -124 l5 -29 -34 19 c-25 14 -45 41
-74 99 -48 95 -81 119 -158 112 -61 -5 -94 -29 -134 -98 -59 -101 -68 -114
-85 -117 -15 -3 -16 1 -7 30 16 55 22 219 10 263 -15 56 -56 116 -99 145 -29
20 -47 25 -96 24 -77 -1 -113 -17 -201 -88 -111 -89 -123 -78 -81 72 74 263
84 425 34 532 -61 131 -174 186 -348 169z m152 -79 c85 -24 149 -133 156 -265
3 -69 -2 -102 -36 -235 -52 -200 -57 -270 -22 -308 32 -34 69 -28 134 23 82
63 170 115 195 115 59 0 122 -63 142 -143 16 -63 6 -196 -19 -267 -11 -30 -45
-111 -77 -179 -48 -103 -56 -128 -49 -150 12 -33 55 -39 122 -17 66 21 179 35
219 25 73 -16 133 -80 133 -142 0 -29 -8 -34 -254 -162 l-169 -88 -30 39 c-58
75 -166 172 -221 199 -45 22 -70 27 -129 28 -85 0 -118 -13 -202 -81 -64 -51
-128 -153 -143 -227 l-8 -40 -22 60 c-12 33 -27 86 -32 117 -9 57 -9 58 28
100 86 100 201 213 257 253 33 24 77 60 97 82 46 48 108 150 108 177 0 18 -6
15 -38 -19 -20 -22 -53 -59 -72 -83 -19 -24 -66 -66 -105 -94 -83 -61 -240
-212 -261 -250 -8 -15 -14 -38 -14 -52 0 -14 -4 -27 -8 -30 -19 -12 -45 241
-48 474 -5 280 -2 298 108 640 11 36 23 83 25 105 l5 40 -28 -40 c-30 -42
-100 -234 -134 -364 -29 -110 -35 -182 -34 -401 2 -174 7 -250 30 -384 l7 -40
-32 24 c-127 90 -304 315 -371 473 -19 42 -37 77 -42 77 -23 0 7 -121 53 -210
86 -168 197 -293 348 -395 45 -31 54 -46 64 -108 5 -34 4 -36 -13 -27 -10 6
-21 14 -25 19 -12 20 -125 53 -225 67 -132 17 -133 17 -126 -1 4 -11 -1 -15
-19 -15 -37 0 -143 -67 -212 -134 -58 -56 -64 -59 -80 -44 -33 29 -240 126
-313 146 -14 4 -92 7 -175 6 -114 0 -173 -6 -245 -22 -172 -38 -325 -97 -434
-167 -46 -29 -60 -34 -67 -24 -11 18 -11 26 2 51 14 26 50 161 78 290 25 118
29 263 6 271 -20 8 -23 0 -30 -79 -4 -38 -27 -154 -52 -257 l-45 -188 -52 93
c-133 239 -508 758 -548 758 -19 0 1 -34 149 -253 288 -425 317 -471 380 -597
35 -68 63 -128 63 -132 0 -4 -24 4 -52 17 -49 22 -93 30 -291 50 -60 6 -113
22 -165 49 -38 20 -51 5 -21 -25 37 -37 121 -68 227 -84 125 -18 188 -32 214
-46 18 -10 17 -13 -19 -52 -40 -44 -85 -112 -174 -264 -54 -92 -69 -109 -69
-75 0 36 -68 159 -113 204 -65 65 -136 98 -209 98 -61 0 -134 19 -277 73 -139
52 -221 154 -209 262 10 85 84 155 165 155 48 0 149 -28 271 -74 140 -54 172
-48 172 30 0 48 -25 85 -142 214 -121 134 -227 273 -265 350 -37 72 -38 77
-38 185 0 93 4 116 22 150 38 71 95 110 192 131 59 12 75 12 125 -1 64 -17
145 -56 195 -94 62 -47 109 -104 193 -235 46 -71 99 -147 119 -169 83 -94 169
-15 169 157 0 79 15 132 46 163 21 21 31 24 62 18 54 -10 109 -41 164 -93 90
-84 106 -138 108 -365 2 -158 12 -223 44 -284 23 -45 50 -58 87 -43 36 15 55
46 117 187 58 131 126 236 178 277 21 17 65 41 98 54 51 21 70 23 123 18 80
-8 158 -37 225 -83 48 -34 52 -35 65 -18 9 14 10 22 2 32 -40 48 -96 168 -116
248 -32 129 10 261 97 305 49 25 61 25 138 -1 76 -26 144 -84 207 -179 31 -47
51 -67 60 -63 17 6 18 14 17 170 -1 204 46 343 151 454 105 111 225 168 352
169 39 0 87 -5 107 -10z m2635 -146 c89 -55 132 -182 103 -305 -19 -82 -61
-168 -138 -281 -84 -125 -102 -159 -102 -195 1 -72 36 -79 218 -48 177 31 211
28 264 -25 30 -29 38 -45 38 -73 0 -63 -36 -154 -89 -226 l-52 -69 -30 15
c-63 32 -190 -10 -268 -87 -49 -50 -80 -110 -115 -230 -28 -97 -34 -109 -46
-95 -7 9 -33 28 -57 41 -58 34 -175 38 -243 7 -83 -38 -187 -168 -218 -275
-17 -58 -18 -58 -52 -56 -43 2 -67 -12 -101 -60 -37 -51 -109 -132 -118 -132
-4 0 -4 30 0 68 8 70 -1 198 -22 301 -11 58 -10 67 15 144 15 45 41 109 59
141 46 85 86 104 347 162 203 45 316 94 394 171 25 26 44 48 42 50 -2 2 -34
-14 -72 -36 -73 -42 -237 -98 -369 -126 -130 -27 -209 -53 -249 -80 -20 -14
-39 -25 -42 -25 -3 0 21 48 52 108 123 231 305 479 510 692 55 58 107 116 114
130 l13 24 -29 -18 c-136 -87 -386 -362 -532 -585 -30 -46 -90 -151 -132 -233
l-77 -149 -6 54 c-3 34 -31 120 -71 219 -36 91 -70 189 -76 218 -6 29 -15 72
-21 94 -6 23 -11 59 -11 81 l1 40 -19 -25 c-10 -14 -21 -39 -25 -57 -10 -54
51 -279 106 -393 31 -64 47 -118 69 -232 12 -60 12 -73 -5 -127 -10 -34 -21
-61 -24 -61 -3 0 -27 42 -53 93 -55 106 -134 216 -185 254 -28 22 -39 25 -61
17 -16 -5 -28 -19 -32 -34 -5 -20 -33 -40 -140 -97 l-135 -72 -6 27 c-10 45
-37 89 -74 120 -70 57 -163 66 -301 30 -46 -12 -86 -19 -89 -16 -3 2 18 53 46
111 49 104 51 107 84 107 42 0 86 36 122 99 63 113 71 121 109 121 57 0 91
-24 124 -90 47 -93 136 -145 190 -110 19 12 19 65 1 258 -15 155 -10 200 29
304 14 39 39 75 78 116 81 83 137 114 222 120 64 4 70 3 93 -22 32 -34 44 -82
62 -238 24 -215 66 -251 175 -152 40 36 75 85 51 70 -20 -13 -11 6 64 131 198
328 342 438 562 430 70 -3 89 -8 130 -33z m-792 -572 l-28 -27 23 33 c12 18
25 31 28 27 3 -3 -7 -18 -23 -33z m1992 -468 c54 -17 151 -88 185 -135 11 -14
24 -55 31 -92 9 -56 8 -77 -7 -142 -26 -111 -71 -192 -200 -358 -63 -82 -118
-162 -121 -179 -5 -22 -2 -37 13 -57 21 -29 15 -28 262 -20 107 4 118 2 152
-19 83 -52 104 -119 65 -206 -37 -79 -110 -147 -274 -256 -79 -51 -143 -99
-143 -105 0 -7 8 -19 18 -28 16 -14 25 -14 113 1 80 13 105 14 151 4 144 -33
211 -136 158 -243 -48 -97 -163 -184 -299 -228 -104 -34 -112 -50 -55 -108 94
-93 156 -247 149 -363 -7 -94 -16 -160 -23 -160 -4 0 -22 33 -40 73 -56 126
-174 222 -303 249 -33 7 -59 15 -59 18 0 3 17 46 37 96 35 82 38 97 37 184 0
82 -4 105 -30 171 -51 126 -111 187 -223 224 -105 34 -275 1 -453 -88 l-87
-44 -6 26 c-3 17 7 56 27 109 30 76 38 87 88 123 80 56 172 98 275 124 183 47
331 106 413 164 41 30 54 51 31 51 -6 0 -50 -17 -98 -39 -84 -38 -187 -72
-386 -129 -115 -33 -150 -50 -184 -86 -24 -25 -49 -36 -36 -16 3 6 1 10 -4 10
-6 0 -11 -8 -11 -17 0 -10 -9 -29 -20 -43 -23 -29 47 145 103 256 126 250 220
385 416 599 86 94 164 200 159 216 -6 18 -309 -291 -387 -394 -69 -93 -247
-392 -257 -434 -4 -13 -9 -23 -13 -23 -12 1 -119 245 -150 343 -17 53 -31 116
-31 140 0 55 -14 78 -29 49 -36 -68 33 -337 131 -506 l51 -89 -23 -51 c-44
-98 -99 -272 -112 -351 -9 -60 -21 -92 -47 -132 l-35 -52 -28 52 c-38 69 -79
110 -145 144 -29 15 -52 31 -50 34 1 4 22 22 47 41 25 20 44 40 42 47 -1 6 2
11 7 11 9 0 -9 124 -33 230 -8 36 -20 112 -26 170 -18 169 -20 184 -29 198 -5
8 -51 23 -102 33 -52 11 -179 41 -284 67 l-190 47 2 43 c4 91 84 211 167 251
87 43 200 19 266 -56 41 -47 78 -130 87 -196 7 -45 37 -68 60 -44 14 13 13 26
-2 111 -25 139 -18 292 17 367 14 31 42 75 62 97 40 43 125 92 162 92 61 0
125 -78 139 -170 17 -109 61 -214 95 -225 11 -4 36 -1 55 5 43 14 79 64 127
175 67 155 172 315 249 377 40 33 128 71 189 82 43 8 143 -2 197 -20z m-2499
-259 c100 -113 167 -255 203 -425 19 -95 21 -125 16 -320 -5 -187 -24 -361
-41 -378 -3 -2 -47 14 -98 36 -51 22 -115 46 -141 53 -35 8 -47 16 -43 26 19
48 47 185 56 266 15 150 -17 311 -79 387 -29 36 -34 21 -12 -41 22 -64 41
-197 41 -285 0 -63 -27 -217 -52 -289 l-13 -40 -78 -7 c-143 -13 -230 -73
-301 -207 -42 -80 -72 -186 -58 -204 15 -19 22 -107 8 -107 -6 0 -27 10 -46
23 -32 20 -47 22 -175 22 l-140 0 -95 -46 c-52 -25 -117 -64 -143 -87 -27 -23
-50 -42 -52 -42 -2 0 -2 29 -2 64 2 50 -2 68 -17 85 -11 11 -15 21 -10 21 4 0
-15 24 -44 53 l-51 52 24 50 c51 102 51 244 0 364 -14 33 -25 67 -25 74 0 18
71 127 83 127 5 0 36 -18 69 -40 33 -22 68 -40 78 -40 10 0 32 12 49 26 37 31
40 65 11 142 -25 66 -25 87 1 123 21 30 144 107 279 175 83 41 530 282 600
323 25 14 50 25 57 23 6 -1 15 3 19 9 4 8 3 9 -4 5 -7 -4 -12 -5 -12 -2 0 2
18 15 40 27 22 13 40 26 40 31 0 19 30 5 58 -27z m-1141 -175 c45 -23 82 -53
138 -116 43 -46 76 -86 74 -88 -2 -1 -30 -15 -62 -30 -69 -33 -144 -107 -157
-156 -14 -50 -13 -140 1 -120 9 12 10 11 6 -7 -3 -13 1 -24 9 -27 8 -3 14 -10
14 -16 0 -6 -5 -8 -11 -4 -6 3 -4 -5 6 -19 10 -16 12 -27 6 -32 -15 -9 -44 9
-79 49 -16 19 -33 33 -36 30 -3 -2 -4 -1 -1 3 6 8 -25 43 -38 43 -15 0 -57
-41 -57 -55 0 -7 -9 -20 -21 -31 -11 -10 -32 -39 -47 -65 l-26 -47 -35 24
c-20 13 -50 28 -67 34 l-32 11 5 152 c5 171 15 230 51 302 90 183 212 238 359
165z m-681 -136 c73 -36 140 -103 177 -177 27 -52 29 -64 28 -164 -1 -115 -9
-133 -56 -133 -102 0 -261 -93 -305 -179 l-12 -24 -13 34 c-29 81 -51 128 -92
194 -59 96 -154 215 -203 254 l-40 32 22 32 c43 62 73 89 131 118 79 40 118
49 218 46 72 -3 95 -8 145 -33z m-896 -29 c276 -72 535 -322 660 -639 28 -72
70 -227 70 -261 0 -17 -225 -136 -244 -129 -8 3 -17 1 -21 -5 -4 -7 1 -9 12
-5 16 5 16 4 -1 -10 -24 -20 -36 -6 -36 40 0 65 -32 209 -60 278 -68 163 -215
341 -330 401 -91 47 -150 57 -242 44 -46 -6 -113 -24 -150 -40 -36 -16 -72
-29 -78 -29 -19 0 -66 -37 -85 -67 -16 -26 -14 -25 20 7 42 39 38 26 -10 -35
-98 -123 -150 -282 -161 -492 -7 -151 9 -272 51 -379 57 -142 222 -374 267
-374 9 0 30 11 47 25 30 26 61 104 96 245 18 72 42 117 56 103 8 -8 65 -212
68 -245 1 -4 29 3 64 15 34 13 94 29 134 36 71 12 74 12 130 -15 32 -14 69
-35 82 -46 29 -22 71 -77 71 -92 0 -6 -27 -33 -61 -60 -58 -47 -124 -132 -160
-206 l-17 -35 -13 30 c-25 59 -81 142 -108 163 -83 61 -207 70 -344 25 -74
-24 -89 -34 -155 -98 l-72 -71 -89 91 c-91 93 -169 192 -202 258 -32 63 -88
207 -104 267 -56 215 -46 487 26 701 36 108 138 321 150 314 5 -4 6 1 3 9 -13
34 213 212 301 238 11 4 47 16 80 29 33 12 74 25 90 30 44 12 191 3 265 -16z
m-650 -90 c0 -2 -24 -28 -52 -57 -29 -29 -69 -75 -89 -103 -76 -104 -169 -320
-195 -451 l-17 -84 -54 -16 c-54 -16 -55 -17 -90 -89 -46 -97 -42 -148 4 -57
34 67 63 97 105 107 l24 6 1 -153 c0 -180 24 -318 80 -467 33 -89 34 -95 16
-104 -10 -6 -61 -40 -113 -75 -52 -36 -101 -65 -108 -65 -17 0 -9 -21 10 -25
8 -2 62 24 120 57 58 33 112 61 121 63 10 2 33 -25 67 -77 29 -44 73 -102 100
-130 70 -74 170 -196 170 -209 0 -6 -5 -4 -10 4 -5 8 -10 10 -10 4 0 -6 3 -14
7 -18 10 -10 9 -126 -1 -126 -5 0 -36 17 -70 39 -34 21 -104 55 -156 76 -78
30 -104 36 -147 33 l-52 -5 -13 55 c-12 58 -62 149 -106 195 -15 16 -57 51
-94 79 -72 54 -97 93 -124 198 -25 98 -43 265 -37 344 l6 75 62 59 c37 35 64
69 67 86 l6 28 -32 -29 c-44 -41 -72 -61 -62 -45 4 6 5 12 2 12 -3 0 -12 -12
-20 -27 -12 -23 -15 -24 -16 -9 0 33 32 136 41 130 7 -4 13 53 8 69 -3 8 54
144 77 184 91 158 247 343 289 343 8 0 15 5 15 11 0 23 69 73 186 133 67 35
84 41 84 31z m-1719 -206 c85 -21 226 -146 327 -289 86 -122 130 -169 166
-176 74 -13 107 37 114 176 2 56 10 104 18 117 8 12 14 30 14 40 0 26 79 57
122 48 53 -12 102 -41 141 -84 99 -110 119 -247 68 -475 -17 -75 -22 -134 -23
-245 -1 -159 9 -311 22 -324 4 -5 5 4 3 20 l-5 28 17 -29 c17 -32 39 -116 31
-123 -3 -3 -11 -1 -18 3 -17 11 -15 11 -128 13 l-95 2 -49 101 c-61 125 -62
155 -10 314 37 112 38 117 27 181 -7 36 -18 72 -26 80 -12 12 -14 5 -16 -53
-1 -45 -14 -104 -37 -174 -19 -59 -34 -120 -35 -136 0 -26 -1 -27 -12 -10
-130 205 -170 264 -223 332 -72 93 -190 204 -216 204 -10 0 -18 -3 -18 -6 0
-3 31 -41 70 -85 91 -103 165 -204 259 -353 82 -129 166 -276 157 -276 -3 0
-21 9 -40 21 -68 40 -126 51 -298 58 -110 4 -172 11 -180 19 -18 18 -32 14
-17 -5 12 -15 12 -16 -6 -9 -13 4 -16 4 -10 -2 27 -26 130 -52 203 -53 92 0
143 -10 239 -43 93 -32 134 -53 155 -80 29 -36 22 -52 -41 -91 -77 -46 -172
-150 -210 -229 -34 -70 -71 -191 -71 -230 0 -25 -2 -26 -56 -26 -100 0 -183
53 -214 136 -26 67 -3 178 50 244 41 53 32 110 -18 110 -65 0 -314 41 -355 59
-101 44 -175 145 -162 225 9 52 36 97 72 117 41 24 144 39 276 40 125 1 147 8
147 52 0 57 -39 103 -183 214 -78 61 -165 135 -193 165 -80 85 -121 220 -94
316 22 83 118 161 224 182 42 8 72 6 137 -11z m2339 -61 c43 -13 84 -40 141
-94 123 -113 198 -219 238 -336 20 -58 51 -236 51 -294 0 -41 -33 -140 -96
-284 l-46 -106 -69 4 c-74 5 -139 -8 -200 -37 l-37 -18 -4 76 c-4 76 -20 123
-58 169 -16 19 -22 21 -44 11 -25 -12 -76 -97 -76 -128 0 -32 -54 -200 -72
-222 l-18 -24 -47 50 c-88 95 -161 219 -205 350 -21 61 -50 258 -37 250 4 -3
7 28 8 68 2 93 8 140 27 206 19 65 76 182 98 200 9 7 13 17 11 22 -3 4 24 33
61 63 50 41 80 58 127 70 104 27 169 28 247 4z m3310 14 c0 -5 12 -9 28 -10
15 0 115 -24 222 -52 179 -48 230 -58 300 -63 21 -2 26 -8 32 -47 3 -25 16
-106 28 -180 42 -264 47 -300 39 -300 -10 0 -195 76 -358 147 -128 56 -135 61
-147 96 -7 21 -30 75 -50 120 -47 102 -113 297 -102 297 4 0 8 -4 8 -8z m-79
-29 c12 -14 12 -16 0 -9 -9 6 -12 5 -9 -5 3 -8 11 -13 17 -11 7 1 11 -6 9 -15
-1 -10 0 -22 4 -28 3 -5 29 -68 58 -140 28 -71 61 -153 72 -181 l20 -50 -44
-70 c-24 -38 -82 -132 -128 -209 -83 -139 -108 -175 -119 -175 -3 0 -6 48 -6
108 0 94 -3 113 -26 162 -14 30 -47 80 -72 111 l-46 56 18 49 c11 27 27 88 36
136 17 83 20 90 97 187 43 56 85 101 92 101 8 0 20 -8 27 -17z m-2056 -151
c89 -35 156 -98 176 -165 25 -84 30 -193 12 -243 -6 -16 -14 -38 -17 -48 -6
-16 -26 0 -129 101 -67 66 -132 124 -144 127 -24 8 -52 -5 -170 -72 -40 -23
-76 -42 -81 -42 -24 0 -28 130 -7 191 52 146 206 211 360 151z m1545 -252
c154 -57 258 -145 311 -265 28 -64 23 -188 -12 -264 -24 -54 -33 -59 -64 -38
-27 18 -88 34 -161 42 -100 11 -236 -46 -331 -138 -38 -36 -43 -38 -48 -21
-15 45 -26 63 -82 127 -32 38 -68 82 -80 98 -28 38 -47 129 -40 190 7 53 75
197 109 229 27 26 92 60 133 71 58 16 177 2 265 -31z m-1298 -404 c14 -26 2
-34 -217 -152 -99 -54 -199 -108 -222 -121 l-42 -23 -62 68 c-35 37 -119 122
-188 190 -113 112 -123 124 -106 136 10 7 92 53 184 101 91 49 195 106 230
126 l64 37 174 -171 c96 -95 179 -181 185 -191z m2221 263 c89 -39 190 -82
225 -96 34 -15 62 -30 62 -33 0 -4 -20 -23 -45 -43 -38 -29 -57 -36 -113 -42
-78 -8 -148 -33 -205 -72 -51 -35 -108 -109 -100 -131 3 -11 2 -13 -4 -6 -21
29 -144 86 -198 91 -30 3 -55 8 -55 11 0 3 11 22 24 41 69 103 200 308 209
328 6 13 16 23 24 23 7 0 86 -32 176 -71z m-3097 -229 c11 -16 87 -100 167
-186 194 -205 184 -188 163 -280 -10 -41 -19 -74 -21 -74 -2 0 -19 9 -38 20
-72 43 -202 53 -308 25 -22 -5 -28 -2 -39 25 -7 17 -35 51 -63 76 l-51 45 44
107 c77 192 112 272 119 272 3 0 15 -14 27 -30z m4314 -10 c132 -67 208 -298
150 -453 -29 -76 -88 -149 -175 -214 -77 -58 -94 -64 -88 -30 2 12 -5 48 -17
79 -50 134 -194 178 -400 123 -30 -8 -71 -15 -91 -15 -34 0 -37 2 -43 38 -3
20 -6 71 -6 113 0 69 3 80 36 135 45 76 90 114 189 163 176 87 348 110 445 61z
m-937 -60 c74 -28 129 -78 157 -142 25 -59 50 -202 50 -290 0 -47 4 -59 22
-72 29 -21 77 -20 164 3 39 10 111 19 160 20 104 2 140 -14 169 -74 24 -51 17
-160 -15 -233 -12 -29 -21 -55 -18 -57 2 -3 33 -5 69 -6 196 -3 290 -104 253
-274 -10 -48 -49 -117 -84 -150 -18 -16 -48 -46 -69 -65 -41 -41 -156 -83
-274 -102 -61 -9 -89 -8 -169 6 l-96 18 65 66 c72 72 88 102 99 180 6 46 3 60
-24 115 -62 126 -142 177 -287 185 l-90 4 3 59 c2 34 -3 81 -12 113 -37 127
-196 209 -307 158 -52 -23 -113 -82 -140 -134 -18 -36 -37 -54 -26 -25 8 21
-12 127 -33 166 -73 145 -258 153 -397 18 -27 -25 -43 -50 -43 -65 0 -23 0
-23 -24 -5 l-25 18 25 19 c37 27 66 93 71 161 4 53 1 67 -26 119 -36 67 -37
76 -15 117 20 40 68 59 147 59 94 0 153 -24 214 -87 29 -29 59 -53 66 -53 16
0 27 21 27 49 0 33 71 128 114 152 88 50 212 62 299 29z m-1852 -19 c143 -49
230 -116 279 -214 80 -161 -4 -373 -211 -533 -82 -63 -146 -90 -277 -115 -98
-20 -122 -21 -177 -12 -181 31 -279 154 -279 348 0 158 46 267 161 383 75 75
164 127 270 158 60 17 160 11 234 -15z m-641 -110 c0 -46 -5 -66 -25 -95 -27
-40 -31 -51 -15 -41 6 3 10 2 10 -4 0 -5 -4 -12 -9 -15 -4 -3 -18 -36 -30 -74
l-21 -69 -53 14 c-72 19 -145 18 -186 -2 -47 -24 -61 -66 -58 -168 1 -47 -2
-89 -6 -94 -14 -13 -117 134 -117 166 0 9 11 54 25 100 16 58 31 90 47 102 13
10 100 59 193 108 94 50 184 99 200 110 17 11 33 20 38 20 4 1 7 -25 7 -58z
m1452 -40 c49 -22 122 -92 137 -134 19 -49 13 -120 -14 -172 -13 -27 -22 -52
-19 -56 2 -4 -22 -1 -53 7 -83 19 -130 17 -196 -10 -133 -55 -186 -116 -273
-316 -20 -47 -38 -87 -40 -89 -1 -1 -31 7 -66 19 -37 13 -98 24 -150 28 -49 2
-88 8 -88 11 0 14 26 39 75 71 58 39 65 46 127 125 63 81 94 146 117 246 26
112 34 130 72 174 90 102 258 145 371 96z m2655 -148 c143 -95 219 -274 193
-456 -22 -154 -79 -284 -178 -407 -144 -181 -360 -316 -728 -455 -294 -112
-605 -191 -1019 -259 -222 -37 -562 -79 -945 -117 -462 -46 -1340 -61 -1915
-34 -449 21 -804 46 -855 60 -8 2 -58 7 -110 10 -52 4 -97 8 -100 10 -3 2 -39
6 -80 10 -64 6 -208 25 -375 50 -630 96 -1255 293 -1554 490 -230 152 -375
355 -396 555 -11 108 25 227 102 328 25 33 26 33 99 31 41 -2 74 -4 74 -6 0
-1 -11 -18 -24 -38 -45 -66 -61 -131 -61 -250 0 -102 2 -115 31 -175 182 -385
1026 -665 2409 -799 625 -61 1004 -76 1695 -67 512 6 551 8 790 27 69 5 208
16 310 24 414 33 535 47 854 100 318 52 376 63 591 115 312 76 585 177 782
291 205 118 310 231 369 397 56 159 12 392 -98 518 -18 21 -28 39 -23 41 6 2
26 11 45 22 49 26 55 25 117 -16z m-6857 -157 c168 -58 268 -172 271 -309 2
-52 -1 -58 -39 -98 -40 -41 -152 -244 -152 -275 0 -9 -7 -31 -16 -50 -29 -60
-152 -99 -294 -93 -175 8 -305 110 -346 271 -42 164 50 397 200 505 120 86
228 101 376 49z m2565 -2 c65 -15 85 -32 86 -72 0 -63 25 -175 46 -217 29 -56
106 -125 178 -161 57 -28 66 -29 190 -29 127 1 132 1 225 38 120 48 130 51
130 41 0 -5 -28 -19 -62 -32 -113 -41 -196 -120 -235 -224 -18 -50 -21 -189
-4 -230 10 -27 10 -28 -27 -28 -20 -1 -56 -5 -79 -9 -24 -5 -43 -6 -43 -2 0 3
7 28 15 55 20 66 19 105 -5 167 -30 76 -73 133 -139 183 -62 48 -141 76 -196
70 -81 -8 -195 -54 -242 -97 l-23 -20 0 69 c0 63 -11 149 -26 215 -5 21 -2 27
16 32 12 3 19 10 15 16 -3 6 0 11 8 11 33 0 41 27 28 98 -16 93 -4 129 47 135
38 3 46 3 97 -9z m-566 -4 c29 -5 68 -17 86 -26 46 -21 115 -83 149 -133 58
-84 116 -316 103 -413 l-5 -39 36 7 c21 4 66 24 100 45 74 44 145 57 213 39
140 -37 239 -159 239 -295 0 -65 -47 -164 -96 -201 -31 -24 -46 -54 -27 -54 5
0 50 18 101 41 156 68 253 64 360 -18 34 -26 71 -92 72 -127 0 -10 -12 -38
-27 -61 -27 -41 -31 -44 -88 -50 -76 -8 -901 -2 -910 7 -3 3 3 25 15 49 12 23
25 69 28 102 l5 59 56 35 c31 20 66 42 79 50 19 11 21 17 11 29 -9 11 -9 14 2
14 8 0 25 10 39 21 14 11 -17 -1 -67 -26 -51 -25 -99 -54 -105 -65 -19 -30
-24 -25 -43 33 -53 167 -192 281 -368 301 -95 11 -221 -35 -301 -109 -30 -28
-41 -33 -47 -23 -5 7 -9 17 -9 21 0 15 -70 77 -111 99 -95 49 -282 31 -386
-38 -105 -68 -195 -226 -210 -365 l-6 -60 -36 5 c-20 3 -56 8 -81 12 -25 3
-117 19 -205 35 -88 17 -187 35 -220 41 -65 12 -86 29 -167 135 -55 72 -70
126 -54 195 20 84 104 236 161 288 26 24 32 25 153 25 114 -1 135 -4 200 -29
41 -15 97 -41 125 -58 28 -16 58 -27 68 -25 10 3 18 2 17 -2 -2 -20 4 -30 16
-25 15 6 12 28 -8 52 -5 8 -10 37 -11 65 -2 72 47 179 105 231 111 100 262
129 368 71 83 -45 148 -142 171 -257 11 -54 34 -89 48 -74 4 3 7 30 7 59 1 42
10 72 43 138 67 133 151 217 262 260 54 21 79 23 150 9z m2693 -16 c80 -41
117 -162 86 -279 -9 -32 -9 -48 -1 -56 11 -11 12 -9 147 153 41 49 68 71 102
84 43 16 49 16 98 1 29 -9 62 -27 74 -40 51 -54 66 -157 37 -253 -8 -27 -15
-60 -15 -73 0 -25 1 -25 75 3 22 8 69 15 105 15 111 1 195 -53 241 -154 25
-55 24 -80 -9 -150 -27 -56 -49 -80 -132 -143 -16 -13 -30 -30 -30 -38 0 -19
54 -52 108 -66 23 -6 41 -12 39 -14 -3 -3 -50 -14 -137 -30 -14 -3 -32 -7 -40
-9 -19 -6 -270 -51 -330 -60 -25 -3 -52 -9 -61 -11 -14 -4 -13 5 8 57 21 52
24 75 21 143 -6 146 -83 258 -228 328 -95 46 -170 65 -288 74 l-93 7 7 41 c8
45 8 44 1 102 -8 64 -27 125 -53 173 -29 52 -29 55 -6 82 91 114 134 142 202
133 25 -3 57 -12 72 -20z m-432 -99 c57 -29 95 -79 135 -179 35 -91 32 -157
-13 -249 -48 -97 -96 -145 -155 -156 -62 -11 -119 -61 -69 -61 28 0 143 -58
189 -96 107 -88 154 -264 90 -337 -21 -24 -31 -26 -297 -47 -352 -29 -505 -38
-657 -39 l-121 -1 21 40 c25 45 26 45 83 25 145 -50 350 -19 449 70 67 59 83
78 111 128 25 44 29 63 29 127 0 67 -4 84 -37 151 -36 72 -112 162 -194 229
l-31 25 33 65 c17 36 44 92 59 124 78 166 245 247 375 181z m2135 -30 c82 -22
146 -66 201 -138 57 -76 66 -98 66 -162 -1 -88 -30 -136 -126 -207 -66 -49
-204 -129 -288 -166 -4 -2 8 20 27 48 71 105 86 258 34 335 -37 55 -162 115
-243 116 -33 1 -53 3 -43 6 9 2 15 8 12 12 -8 14 38 49 135 101 52 29 99 56
105 61 13 13 53 11 120 -6z m-7305 -303 c0 -24 148 -72 223 -72 l47 0 0 -39
c0 -24 12 -61 31 -97 35 -68 62 -100 102 -121 16 -8 27 -17 24 -19 -8 -9 -168
75 -245 129 -40 28 -93 73 -118 100 -46 51 -90 127 -73 127 5 0 9 -4 9 -8z
m4511 -38 c118 -35 194 -80 263 -157 90 -100 118 -153 119 -230 1 -49 -5 -73
-25 -112 -35 -67 -100 -128 -173 -162 -53 -25 -71 -28 -155 -27 -109 0 -225
34 -244 69 -31 59 -63 97 -119 142 -52 41 -66 60 -79 100 -30 93 -4 211 62
286 84 96 217 131 351 91z m1089 -124 c120 -35 246 -127 293 -215 33 -61 31
-182 -5 -251 -33 -62 -41 -69 -103 -82 -79 -18 -347 -53 -353 -47 -2 1 2 22 8
45 16 58 -2 158 -42 232 -34 64 -157 187 -179 179 -14 -4 75 103 107 130 45
38 160 42 274 9z m2345 13 c-3 -10 -13 -81 -21 -158 -8 -77 -16 -151 -18 -165
-2 -14 -7 -47 -11 -75 -15 -105 -86 -451 -115 -560 -138 -515 -398 -1038 -702
-1416 -299 -372 -498 -542 -892 -764 -477 -269 -1022 -435 -1631 -499 -302
-32 -922 -43 -1210 -21 -556 43 -1090 147 -1440 282 -416 160 -649 287 -912
500 -291 235 -617 672 -829 1108 -252 520 -373 977 -439 1665 l-7 65 36 -59
c99 -162 261 -294 511 -416 381 -187 1046 -358 1656 -425 30 -3 126 -15 214
-25 88 -11 194 -22 235 -25 41 -3 122 -10 180 -15 149 -15 191 -17 610 -35
654 -29 1516 -12 2015 41 83 8 193 19 245 25 568 55 1084 152 1465 276 557
181 858 372 1019 648 37 63 56 84 41 48z m-5590 -152 c23 -10 60 -41 84 -69
23 -29 47 -49 53 -46 5 3 3 -7 -5 -22 -39 -79 -43 -138 -21 -303 l6 -44 -58 6
c-33 4 -124 14 -204 22 -80 8 -188 21 -240 28 l-95 13 -3 37 c-4 50 32 170 70
229 91 144 274 210 413 149z m617 -28 c113 -53 166 -115 194 -225 24 -92 3
-249 -36 -273 -6 -3 -70 -1 -143 4 -72 6 -163 13 -202 16 -192 13 -203 15
-234 51 -34 38 -47 98 -38 179 7 69 38 127 97 185 106 103 230 125 362 63z
m-1967 -130 c14 -32 38 -70 52 -85 15 -16 24 -28 20 -28 -28 0 -447 125 -447
133 0 1 44 3 98 5 53 1 120 9 147 16 92 26 100 23 130 -41z m4871 -3114 c-20
-167 -191 -288 -544 -385 -144 -39 -443 -98 -577 -113 -50 -6 -148 -17 -220
-25 -462 -52 -1206 -44 -1685 20 -162 21 -493 89 -637 130 -344 98 -503 218
-503 381 l0 33 68 -26 c638 -248 1505 -368 2362 -328 389 19 541 36 945 109
171 31 542 146 710 219 44 20 82 36 84 36 1 0 0 -23 -3 -51z"/>
<path d="M3710 7830 c0 -20 21 -53 87 -134 36 -43 72 -93 80 -111 20 -43 53
-54 53 -19 0 38 -37 102 -94 162 -62 66 -126 118 -126 102z"/>
<path d="M2270 6771 c0 -6 4 -13 10 -16 6 -3 7 1 4 9 -7 18 -14 21 -14 7z"/>
<path d="M7861 6164 c0 -11 3 -14 6 -6 3 7 2 16 -1 19 -3 4 -6 -2 -5 -13z"/>
<path d="M5587 7071 c-46 -16 -64 -30 -36 -29 7 0 44 5 80 10 61 9 69 8 117
-16 28 -14 62 -40 74 -56 12 -17 28 -28 35 -26 7 3 10 -1 7 -8 -7 -18 -137
-76 -170 -76 -55 0 -115 23 -159 62 -25 22 -45 46 -45 53 0 8 -10 19 -22 26
-18 10 -20 9 -15 -6 4 -9 7 -20 7 -24 0 -3 13 -21 29 -38 16 -18 31 -36 33
-41 1 -5 27 -25 57 -45 73 -51 103 -49 236 13 82 38 106 54 103 67 -2 10 -12
22 -24 28 -11 5 -35 27 -53 47 -36 42 -117 77 -172 75 -20 0 -57 -8 -82 -16z"/>
<path d="M5213 6603 c-47 -27 -59 -53 -49 -107 13 -71 130 -178 213 -196 32
-8 41 -6 60 12 30 28 42 71 38 143 -4 78 -3 77 -15 70 -5 -3 -10 0 -10 7 0 12
-67 62 -117 87 -33 17 -74 12 -120 -16z m147 -43 c50 -25 70 -64 70 -133 0
-85 -37 -97 -121 -42 -66 43 -122 158 -92 188 14 15 105 6 143 -13z"/>
<path d="M3643 6591 c-43 -27 -84 -100 -86 -153 -2 -36 4 -51 32 -86 19 -23
42 -42 52 -42 26 0 87 57 110 103 11 21 15 36 9 32 -8 -5 -10 -2 -6 11 11 36
9 113 -4 129 -7 8 -21 15 -31 15 -21 0 -25 -20 -9 -36 7 -7 7 -27 -1 -63 -6
-28 -8 -59 -5 -67 7 -19 -39 -94 -58 -94 -17 0 -46 59 -46 94 0 35 26 95 52
123 12 13 18 23 14 23 -5 0 -3 7 4 15 16 20 11 19 -27 -4z"/>
<path d="M3267 6564 c-3 -3 5 -18 19 -33 40 -42 63 -84 70 -129 6 -39 5 -42
-22 -53 -39 -14 -96 3 -124 39 -18 22 -21 37 -18 85 2 31 1 57 -3 57 -33 0
-45 -109 -16 -154 36 -54 118 -80 177 -56 34 14 47 56 35 112 -16 72 -92 158
-118 132z"/>
<path d="M5338 5680 c-35 -38 -35 -40 -18 -60 24 -27 56 -25 85 6 27 29 29 65
3 72 -10 2 -15 8 -12 13 3 5 -1 9 -9 9 -7 0 -30 -18 -49 -40z"/>
<path d="M1971 5203 c0 -10 4 -27 8 -37 11 -28 25 -2 17 30 -7 28 -26 33 -25
7z"/>
<path d="M4177 5343 c-7 -13 -19 -65 -26 -119 -5 -37 -4 -54 7 -63 11 -11 16
-11 28 0 18 19 36 147 23 171 -10 19 -25 24 -32 11z"/>
<path d="M2661 4861 c-10 -7 -5 -11 17 -16 18 -3 35 -4 40 -1 5 3 47 -8 93
-25 46 -16 91 -31 99 -32 24 -3 18 24 -10 44 -43 32 -204 52 -239 30z"/>
<path d="M4340 3883 c-88 -19 -237 -118 -280 -188 -27 -43 -46 -173 -29 -190
9 -7 10 -5 6 7 -4 12 -2 15 7 12 8 -3 31 18 58 53 57 75 119 121 210 156 73
28 85 30 210 43 40 4 65 11 61 16 -3 6 0 13 6 17 20 12 1 41 -38 57 -37 16
-168 26 -211 17z"/>
<path d="M5630 3851 c-47 -9 -84 -19 -82 -24 1 -4 2 -11 2 -17 0 -5 7 -10 15
-10 8 0 24 -9 35 -20 15 -15 33 -20 73 -20 140 -1 275 -54 380 -151 91 -82
123 -69 78 33 -39 90 -139 176 -245 211 -60 21 -143 20 -256 -2z"/>
<path d="M5665 3395 c-44 -22 -88 -76 -109 -134 -15 -42 -17 -74 -14 -184 3
-127 4 -136 36 -200 27 -53 41 -71 72 -87 49 -25 67 -25 107 -1 39 25 76 87
98 168 22 80 17 257 -10 318 -24 56 -61 102 -95 120 -36 19 -47 19 -85 0z"/>
<path d="M4359 3385 c-35 -19 -85 -98 -100 -158 -7 -30 -10 -89 -7 -160 6
-131 30 -206 85 -259 45 -43 107 -47 148 -8 76 71 109 186 99 348 -5 99 -8
111 -41 164 -19 32 -44 65 -56 73 -27 19 -94 19 -128 0z"/>
<path d="M4838 2867 c-9 -6 -38 -39 -65 -72 -28 -33 -82 -87 -122 -120 -140
-117 -177 -206 -127 -309 50 -103 145 -166 331 -222 80 -24 106 -27 240 -27
238 0 402 43 539 140 l49 35 -23 -38 c-134 -222 -284 -357 -462 -418 -75 -25
-178 -30 -249 -12 -34 9 -64 15 -65 13 -10 -10 28 -37 79 -57 50 -20 70 -22
145 -17 106 6 182 32 270 91 139 93 255 220 333 366 13 25 27 47 30 50 10 8
29 82 29 113 0 39 -23 35 -78 -14 -56 -49 -241 -141 -332 -165 -42 -11 -119
-19 -218 -22 -132 -4 -166 -1 -246 17 -200 47 -326 143 -326 251 0 42 24 75
139 190 104 105 171 185 171 205 0 23 -25 36 -42 22z"/>
<path d="M5649 2491 c-13 -11 -21 -22 -18 -25 4 -4 33 -11 65 -16 32 -5 70
-18 84 -28 27 -20 64 -87 80 -142 5 -20 16 -44 24 -55 14 -19 16 -19 32 -3 16
15 16 23 5 75 -35 153 -188 262 -272 194z"/>
</g>
</svg>
