<?xml version="1.0" encoding="UTF-8" standalone="yes"?>
<svg version="1.0" xmlns="http://www.w3.org/2000/svg" width="1024.000000pt" height="1024.000000pt" viewBox="0 0 1024.000000 1024.000000" preserveAspectRatio="xMidYMid meet">
  <metadata>
Created by potrace 1.16, written by Peter Selinger 2001-2019
</metadata>
  <g transform="translate(0.000000,1024.000000) scale(0.100000,-0.100000)" fill="#000000" stroke="none">
    <path d="M4627 8760 c-96 -18 -297 -79 -347 -106 -14 -7 -65 -30 -115 -50&#xA;-117 -49 -257 -129 -300 -172 -56 -56 -76 -111 -72 -195 2 -40 7 -79 11 -88 6&#xA;-14 -4 -20 -51 -35 -138 -42 -789 -372 -1133 -574 -8 -5 -67 -39 -130 -75 -63&#xA;-37 -173 -102 -245 -145 -71 -44 -150 -90 -175 -104 -36 -20 -142 -86 -230&#xA;-145 -237 -158 -404 -271 -430 -291 -270 -209 -311 -281 -311 -537 0 -144 21&#xA;-444 32 -465 5 -9 9 -29 9 -44 0 -38 21 -104 31 -98 5 3 6 -1 4 -8 -7 -18 46&#xA;-98 94 -141 l38 -35 -72 -17 c-96 -22 -182 -71 -220 -124 -27 -38 -30 -51 -30&#xA;-116 0 -66 3 -77 31 -116 42 -58 96 -94 164 -109 109 -24 134 -34 150 -62 13&#xA;-25 13 -32 -3 -77 -36 -101 -18 -213 43 -279 14 -15 17 -22 7 -22 -28 0 -126&#xA;-62 -165 -104 -56 -61 -74 -107 -75 -191 0 -113 41 -189 131 -242 l43 -26 -50&#xA;-44 c-58 -50 -76 -94 -68 -164 7 -57 25 -94 66 -138 l31 -33 4 -172 c6 -267&#xA;40 -399 119 -458 74 -58 547 -291 547 -271 0 3 7 0 15 -7 8 -7 22 -10 30 -6&#xA;11 4 14 2 9 -6 -5 -8 -2 -9 10 -5 9 4 15 3 12 -1 -5 -8 210 -103 289 -128 22&#xA;-7 69 -25 105 -39 203 -84 322 -126 337 -121 8 3 12 2 9 -3 -3 -5 7 -13 22&#xA;-19 179 -66 209 -75 223 -66 7 4 9 3 6 -3 -6 -9 84 -45 208 -83 33 -10 132&#xA;-43 220 -73 159 -53 300 -99 425 -136 36 -10 101 -30 145 -44 70 -22 220 -63&#xA;265 -72 8 -2 89 -22 180 -45 91 -23 174 -43 185 -46 11 -2 54 -13 95 -23 41&#xA;-10 84 -18 97 -16 12 1 20 -1 18 -5 -3 -4 17 -11 43 -15 26 -3 72 -13 102 -20&#xA;60 -15 104 -23 195 -35 66 -8 306 -6 345 4 14 3 41 9 60 12 80 15 211 73 432&#xA;191 91 48 303 184 301 192 -2 6 3 8 10 5 21 -8 440 273 430 289 -3 6 -1 7 5 3&#xA;13 -8 84 33 76 45 -3 5 1 7 8 4 7 -3 39 14 70 38 31 23 77 54 103 70 28 17 43&#xA;32 39 39 -4 7 -3 8 4 4 13 -8 171 93 171 110 1 6 7 11 14 11 13 0 228 143 367&#xA;244 47 34 112 81 145 103 86 59 128 90 141 101 6 6 46 35 88 65 42 30 103 74&#xA;134 98 31 23 95 69 142 102 47 33 104 73 128 90 102 73 130 93 185 131 32 22&#xA;55 44 52 48 -2 5 1 8 8 7 17 -1 59 31 173 133 145 128 186 193 204 319 11 81&#xA;17 503 7 519 -4 7 7 33 24 58 49 73 70 154 72 275 2 119 -4 152 -37 218 -26&#xA;50 -64 94 -134 153 l-42 36 48 26 c63 36 105 74 96 89 -4 6 -3 8 3 5 6 -4 23&#xA;17 39 46 25 45 28 62 28 132 -1 101 -19 142 -93 214 -57 55 -200 141 -237 141&#xA;-17 1 -17 2 -3 13 123 94 178 181 205 322 30 157 39 286 39 550 0 148 -3 189&#xA;-18 232 -32 93 -146 251 -170 236 -6 -3 -7 -1 -3 5 9 16 -96 113 -209 192 -19&#xA;14 -44 32 -55 40 -10 8 -31 22 -47 32 -15 9 -65 38 -111 66 -98 59 -247 134&#xA;-392 198 -58 25 -118 52 -135 60 -99 45 -434 180 -465 186 -8 2 -17 5 -20 8&#xA;-3 3 -21 11 -40 17 -19 6 -120 40 -225 76 -194 66 -342 113 -520 165 -55 16&#xA;-140 41 -190 56 -141 41 -407 109 -436 111 -14 1 -30 4 -35 7 -13 8 -331 85&#xA;-384 93 -25 4 -70 13 -100 20 -30 8 -82 16 -115 19 -33 4 -87 11 -120 17 -33&#xA;6 -168 13 -300 14 -199 3 -257 0 -338 -15z m14 -63 c-10 -9 -11 -8 -5 6 3 10&#xA;9 15 12 12 3 -3 0 -11 -7 -18z m547 -31 c4 -2 41 -7 82 -10 41 -4 119 -14 172&#xA;-22 54 -8 103 -12 109 -8 7 4 9 3 6 -3 -4 -6 18 -15 51 -22 31 -7 77 -19 102&#xA;-26 25 -8 59 -16 75 -19 17 -2 62 -12 100 -21 39 -9 81 -19 94 -21 14 -3 28&#xA;-7 31 -9 4 -2 22 -7 41 -10 19 -3 70 -15 114 -26 44 -12 87 -22 95 -24 75 -17&#xA;122 -29 163 -42 42 -14 50 -14 59 -2 8 11 9 11 5 -3 -6 -18 35 -34 56 -22 7 4&#xA;9 3 5 -1 -9 -9 71 -40 142 -56 25 -5 54 -14 65 -19 11 -5 56 -20 100 -34 198&#xA;-60 365 -115 465 -153 36 -14 70 -26 75 -28 6 -1 24 -8 40 -14 17 -7 64 -26&#xA;105 -41 71 -27 106 -41 260 -105 36 -15 147 -65 247 -112 101 -46 187 -81 193&#xA;-78 6 4 9 1 8 -5 -2 -6 31 -29 72 -52 41 -22 90 -49 107 -60 18 -10 38 -16 44&#xA;-12 7 4 9 3 5 -4 -3 -6 11 -21 31 -33 56 -35 212 -155 261 -201 51 -49 95&#xA;-111 117 -166 14 -34 15 -50 6 -92 -6 -29 -8 -56 -5 -62 4 -6 2 -8 -4 -4 -6 3&#xA;-13 -2 -17 -13 -3 -11 -35 -48 -70 -83 -144 -141 -424 -250 -700 -273 -101 -8&#xA;-184 -15 -235 -20 -49 -5 -147 -50 -195 -89 -16 -14 -87 -69 -156 -123 -69&#xA;-54 -171 -134 -226 -178 -56 -44 -151 -120 -212 -168 -67 -52 -109 -92 -105&#xA;-99 4 -7 3 -8 -4 -4 -12 7 -66 -31 -276 -200 -56 -44 -159 -125 -231 -179 -71&#xA;-55 -134 -103 -140 -108 -5 -4 -44 -32 -85 -62 -41 -30 -86 -63 -100 -73 -14&#xA;-11 -69 -48 -122 -84 -54 -36 -94 -69 -90 -73 4 -5 2 -5 -5 -2 -6 4 -51 -13&#xA;-100 -37 -206 -104 -414 -135 -678 -102 -71 9 -147 18 -167 21 -20 2 -66 11&#xA;-103 20 -37 8 -71 13 -76 9 -5 -3 -9 -1 -9 3 0 5 -33 17 -72 27 -40 10 -95 24&#xA;-123 32 -27 7 -102 28 -165 45 -108 30 -166 47 -430 130 -58 19 -111 33 -117&#xA;32 -7 0 -13 3 -13 7 0 4 -24 14 -52 21 -29 7 -55 14 -58 14 -3 1 -12 4 -20 8&#xA;-8 3 -58 17 -110 32 -52 14 -109 33 -127 40 -17 8 -37 15 -45 15 -8 0 -43 11&#xA;-79 25 -35 14 -74 26 -86 27 -13 2 -23 6 -23 9 0 8 -50 26 -85 31 -11 2 -22 5&#xA;-25 8 -3 3 -50 20 -105 38 -131 44 -314 108 -393 139 -35 13 -70 22 -78 19 -8&#xA;-3 -13 -2 -10 3 3 5 -43 25 -102 46 -59 20 -118 41 -132 47 -14 6 -33 13 -43&#xA;15 -10 2 -62 21 -115 42 -53 22 -131 51 -172 66 -41 15 -88 34 -103 42 -15 8&#xA;-35 12 -43 9 -8 -3 -13 -2 -10 3 3 4 -11 15 -32 24 -307 130 -455 205 -524&#xA;267 -30 27 -41 45 -45 75 -5 39 -3 42 55 95 66 61 62 57 217 170 61 44 115 83&#xA;120 87 14 11 99 67 225 148 58 37 134 87 170 111 36 24 69 44 74 44 5 0 39 20&#xA;75 43 36 24 125 77 196 117 163 92 254 152 247 164 -3 5 0 6 6 2 14 -8 73 24&#xA;66 36 -3 4 1 5 8 3 18 -7 300 149 290 160 -4 5 -2 5 5 1 6 -3 65 23 130 59&#xA;264 146 630 317 763 355 41 12 79 24 83 27 5 3 -7 22 -26 42 -78 82 -72 178&#xA;17 258 38 36 226 136 288 155 20 6 35 15 31 21 -3 6 -1 7 4 4 10 -7 99 19 118&#xA;33 9 7 69 23 175 47 14 3 41 7 60 9 19 2 67 8 105 13 67 9 427 7 443 -3z&#xA;m3777 -1833 c-8 -189 -12 -232 -19 -263 -3 -14 -8 -57 -10 -97 -9 -136 -42&#xA;-212 -133 -300 -49 -47 -118 -87 -258 -148 -66 -28 -198 -76 -225 -82 -14 -2&#xA;-54 -12 -90 -22 -36 -10 -104 -24 -152 -32 -48 -7 -85 -15 -83 -18 2 -4 -35&#xA;-6 -81 -6 -95 0 -90 -7 -73 95 20 121 13 337 -16 475 l-12 60 -8 -35 c-11 -46&#xA;-12 -57 -19 -186 -21 -356 -40 -430 -143 -543 -12 -14 -20 -28 -17 -33 3 -5 1&#xA;-7 -5 -6 -5 2 -49 -33 -98 -78 -211 -193 -412 -360 -709 -589 -42 -33 -105&#xA;-83 -138 -111 -55 -45 -228 -179 -356 -274 -26 -20 -54 -42 -63 -50 -8 -8 -66&#xA;-46 -127 -85 -61 -38 -139 -89 -173 -113 -182 -126 -420 -204 -616 -204 -114&#xA;0 -139 5 -426 78 -72 18 -142 35 -155 38 -97 19 -494 128 -629 173 -40 13 -80&#xA;22 -88 19 -8 -3 -12 -2 -9 3 3 5 -9 11 -26 15 -30 6 -272 82 -473 149 -49 16&#xA;-94 30 -100 31 -5 1 -21 8 -34 15 -12 7 -32 11 -42 8 -10 -3 -17 -2 -14 2 2 4&#xA;-46 24 -108 44 -62 19 -175 59 -252 87 -77 28 -147 53 -155 55 -8 2 -42 14&#xA;-75 26 -194 71 -278 98 -288 92 -5 -3 -7 -2 -4 4 3 5 -11 15 -31 22 -70 24&#xA;-177 64 -210 78 -18 8 -37 11 -44 7 -7 -5 -8 -3 -3 6 6 10 4 12 -9 7 -9 -4&#xA;-15 -3 -12 2 5 7 -127 66 -149 66 -5 0 -12 3 -15 6 -6 7 -180 90 -194 92 -6 1&#xA;-13 5 -16 9 -3 3 -45 23 -95 43 -193 80 -353 181 -400 253 -61 94 -92 350 -85&#xA;690 0 21 3 20 52 -19 29 -23 62 -45 73 -49 11 -4 49 -24 83 -44 35 -20 68 -33&#xA;73 -30 5 3 9 1 9 -3 0 -8 106 -61 190 -96 19 -8 69 -28 110 -45 70 -29 145&#xA;-59 415 -162 126 -49 353 -129 470 -166 44 -14 121 -41 170 -59 50 -19 106&#xA;-39 125 -46 19 -7 64 -23 99 -36 35 -13 70 -22 78 -19 8 3 12 2 9 -2 -3 -5 25&#xA;-19 62 -31 37 -12 75 -27 84 -32 9 -5 36 -12 60 -15 24 -4 48 -10 53 -14 6 -4&#xA;42 -18 80 -29 160 -50 325 -102 395 -126 41 -14 82 -24 90 -22 9 2 21 -2 28&#xA;-10 7 -7 21 -13 32 -13 11 0 44 -9 74 -20 30 -12 63 -22 73 -24 10 -2 47 -14&#xA;82 -25 35 -12 76 -23 91 -24 16 -1 26 -5 24 -9 -3 -4 4 -7 13 -7 10 0 92 -20&#xA;183 -45 156 -43 335 -85 390 -92 14 -1 59 -8 100 -14 192 -28 396 -23 546 15&#xA;87 22 235 86 227 98 -3 5 -1 7 5 3 14 -9 63 14 55 27 -3 6 -1 7 5 3 10 -6 75&#xA;28 140 73 15 10 55 37 89 60 35 22 71 48 80 56 10 8 65 51 123 95 133 101 305&#xA;235 479 373 158 124 157 124 276 216 92 71 258 204 309 247 15 13 30 24 33 24&#xA;3 0 36 24 72 53 210 169 265 209 294 218 17 5 108 16 202 25 185 17 323 41&#xA;425 74 224 72 373 159 485 283 28 31 52 56 54 56 2 1 0 -65 -4 -146z m-7700&#xA;-493 c3 -6 -1 -7 -9 -4 -18 7 -21 14 -7 14 6 0 13 -4 16 -10z m7566 -410 c34&#xA;-16 68 -35 76 -42 12 -9 16 -9 24 3 8 12 9 12 7 -1 -2 -9 16 -32 38 -53 59&#xA;-53 77 -95 71 -167 -4 -63 -23 -97 -82 -149 -44 -38 -79 -56 -126 -65 -52 -9&#xA;-157 -52 -199 -81 -71 -49 -102 -143 -75 -225 23 -69 76 -114 167 -141 40 -12&#xA;81 -29 90 -38 58 -56 -9 -196 -107 -222 -44 -12 -165 -18 -159 -8 2 4 -10 9&#xA;-26 12 -16 4 -48 18 -70 32 -32 20 -40 31 -40 56 0 42 -21 122 -34 131 -6 4&#xA;-10 9 -8 10 9 8 -11 57 -21 51 -6 -3 -7 -1 -3 6 9 14 -49 94 -108 149 -44 40&#xA;-45 43 -47 106 -1 36 -8 82 -15 103 -19 53 -19 53 33 37 145 -44 313 25 401&#xA;164 40 63 66 192 59 290 l-5 72 49 0 c34 0 68 -9 110 -30z m-244 -122 c-3 -66&#xA;-9 -94 -26 -122 -13 -20 -20 -36 -17 -36 8 0 -63 -68 -90 -86 -38 -26 -130&#xA;-34 -175 -16 -19 8 -30 7 -38 -1 -9 -9 -11 -8 -6 5 5 13 -5 19 -51 33 -92 27&#xA;-158 3 -170 -60 -5 -26 -1 -44 16 -72 86 -143 89 -150 86 -215 -3 -50 -11 -77&#xA;-40 -129 -70 -127 -134 -169 -259 -169 -94 0 -416 94 -465 135 -2 2 6 31 18&#xA;65 23 69 39 140 47 214 4 38 11 54 32 70 14 11 49 42 77 68 l51 48 39 -16 c48&#xA;-20 135 -27 171 -13 22 8 24 12 12 23 -8 7 -45 25 -82 41 -77 32 -79 19 19&#xA;120 l52 53 103 13 c57 7 106 14 109 14 3 1 32 5 65 9 128 17 401 92 471 129&#xA;46 25 57 2 51 -105z m-352 -296 c-3 -3 -11 0 -18 7 -9 10 -8 11 6 5 10 -3 15&#xA;-9 12 -12z m-6723 -182 c35 -18 110 -51 168 -74 100 -41 161 -68 168 -72 7 -4&#xA;-22 -50 -88 -139 -79 -107 -93 -132 -81 -139 16 -10 35 4 75 55 21 28 56 61&#xA;78 75 21 14 36 29 33 34 -3 5 0 7 7 5 8 -3 29 6 48 20 19 14 40 25 48 25 7 0&#xA;89 -30 181 -66 l167 -67 38 -71 c49 -89 94 -211 112 -300 8 -38 16 -71 18 -73&#xA;2 -3 11 18 20 45 28 83 11 215 -41 316 -15 28 -14 29 9 23 32 -7 164 -55 213&#xA;-77 26 -12 174 -67 202 -75 22 -6 26 -26 10 -51 -13 -22 -20 -124 -8 -124 10&#xA;0 84 106 94 134 2 6 376 -112 504 -160 2 0 -35 -40 -81 -88 -80 -84 -95 -105&#xA;-130 -188 -18 -41 -20 -58 -6 -58 10 0 35 41 32 53 -1 4 3 6 9 5 16 -4 130&#xA;132 122 145 -3 5 -2 7 4 4 5 -4 19 2 29 11 10 10 40 33 66 51 l47 34 103 -33&#xA;c173 -54 186 -60 207 -95 18 -30 29 -111 31 -215 0 -24 3 -31 11 -23 16 16 30&#xA;80 34 161 2 41 5 76 8 78 3 3 31 -4 63 -15 33 -11 95 -29 139 -41 102 -28 128&#xA;-35 195 -55 75 -22 404 -111 514 -139 l89 -22 22 -50 c18 -42 25 -62 40 -116&#xA;2 -5 3 -9 5 -10 4 -6 11 -46 17 -99 4 -45 1 -65 -17 -105 -13 -27 -22 -53 -21&#xA;-59 2 -5 0 -7 -4 -3 -4 3 -21 0 -38 -7 -73 -29 -156 21 -234 143 -20 31 -39&#xA;50 -45 46 -7 -4 -8 -3 -4 4 12 20 -70 117 -123 145 -101 56 -232 49 -297 -14&#xA;-19 -18 -52 -68 -75 -111 -22 -44 -54 -94 -70 -112 -16 -18 -28 -35 -26 -37 1&#xA;-2 0 -3 -2 -2 -2 2 -19 -7 -38 -18 -46 -29 -141 -37 -183 -15 -18 8 -37 13&#xA;-43 9 -6 -3 -7 -1 -3 5 4 7 3 12 -2 12 -19 0 -41 78 -47 163 -6 93 -12 120&#xA;-25 112 -4 -3 -7 2 -6 11 1 22 -60 54 -103 54 -37 0 -85 -25 -197 -101 -96&#xA;-67 -179 -99 -253 -99 -96 0 -151 32 -192 112 -26 50 -24 97 7 169 29 69 43&#xA;159 26 159 -6 0 -9 6 -6 14 6 15 -34 45 -86 63 -40 15 -150 17 -150 4 0 -5 -8&#xA;-7 -17 -5 -10 3 -45 -4 -78 -15 -169 -56 -225 -78 -219 -83 3 -4 -2 -5 -13 -3&#xA;-10 2 -54 6 -99 8 -89 5 -128 21 -168 67 -22 27 -26 41 -26 93 0 33 5 87 12&#xA;119 15 74 -4 121 -57 144 -54 22 -206 -1 -189 -28 4 -7 2 -8 -4 -4 -16 10 -74&#xA;-22 -66 -36 4 -7 3 -8 -4 -4 -7 4 -33 -4 -59 -18 -101 -53 -164 -71 -246 -71&#xA;-78 0 -79 0 -113 37 -19 21 -34 47 -34 58 0 11 -6 20 -12 20 -8 0 -9 3 -3 8 6&#xA;4 12 20 13 36 2 17 8 40 13 53 14 37 22 116 11 110 -5 -4 -7 4 -5 17 8 41 -57&#xA;101 -122 112 -111 18 -180 48 -219 94 -37 45 -30 135 14 175 11 10 17 22 13&#xA;28 -3 6 -1 7 5 3 6 -4 21 -2 33 4 35 19 170 39 231 35 36 -3 79 -16 120 -35z&#xA;m7427 -63 c52 -49 87 -121 103 -207 16 -85 -1 -219 -37 -289 -14 -28 -23 -57&#xA;-19 -63 4 -6 3 -8 -3 -5 -5 3 -27 -12 -49 -35 -58 -61 -156 -97 -369 -139 -58&#xA;-11 -147 -47 -153 -61 -2 -5 -11 -8 -19 -8 -11 0 -13 3 -5 13 14 16 42 128 44&#xA;172 1 22 6 34 12 31 70 -30 158 -48 211 -44 67 6 148 42 195 87 47 44 79 124&#xA;77 190 -4 104 -59 169 -157 185 -70 11 -137 91 -123 147 9 40 53 77 109 95 30&#xA;9 51 21 48 26 -12 18 93 -55 135 -95z m-1623 25 c-2 -4 -7 -27 -11 -51 -3 -24&#xA;-10 -51 -14 -60 -33 -67 -50 -114 -45 -123 4 -6 3 -8 -3 -5 -5 3 -20 -12 -33&#xA;-35 -28 -50 -132 -162 -180 -194 -19 -13 -73 -53 -120 -89 -47 -35 -109 -76&#xA;-138 -90 -68 -32 -183 -65 -247 -71 -27 -2 -70 -6 -95 -9 l-45 -5 36 33 c21&#xA;17 49 41 64 51 14 11 38 31 53 44 15 13 39 31 53 40 14 10 45 34 70 54 24 21&#xA;60 50 80 65 38 29 142 113 245 198 33 28 95 77 138 110 43 33 102 79 130 102&#xA;47 39 74 54 62 35z m944 -248 c14 -18 42 -76 47 -99 1 -5 4 -21 7 -35 24 -107&#xA;27 -141 22 -196 -14 -146 -89 -292 -214 -421 -76 -79 -195 -179 -240 -202 -12&#xA;-7 -20 -17 -16 -23 4 -7 3 -8 -4 -4 -14 9 -85 -38 -74 -49 4 -5 1 -5 -6 -1 -7&#xA;4 -41 -6 -78 -24 -131 -63 -318 -135 -378 -146 -16 -3 -62 -13 -101 -23 -157&#xA;-42 -204 -46 -480 -46 -216 0 -289 4 -363 18 -51 10 -98 15 -104 11 -6 -4 -8&#xA;-3 -5 2 4 8 -88 38 -149 50 -5 1 -39 13 -74 27 -35 14 -67 24 -72 21 -4 -3 -8&#xA;0 -8 6 0 6 -4 8 -10 5 -5 -3 -10 -2 -10 3 0 13 -70 43 -82 36 -6 -4 -8 -3 -5&#xA;3 4 6 -17 23 -46 38 -29 16 -82 51 -120 79 -63 47 -66 51 -45 60 13 5 35 10&#xA;51 12 33 5 159 66 204 100 39 30 63 31 63 4 0 -29 29 -82 40 -75 6 3 7 0 5 -8&#xA;-9 -21 92 -109 165 -144 65 -31 169 -67 225 -77 17 -3 44 -8 60 -12 17 -3 122&#xA;-8 235 -11 178 -5 221 -2 328 16 204 35 289 90 283 183 -1 24 -71 99 -84 91&#xA;-5 -3 -7 -1 -4 4 4 6 -74 89 -173 185 -99 96 -180 179 -180 184 0 6 15 17 33&#xA;26 17 9 41 23 52 32 11 9 40 30 65 46 25 16 55 37 68 46 18 13 22 14 20 3 -2&#xA;-8 3 -13 10 -11 8 1 11 -1 8 -6 -6 -10 19 -30 173 -132 139 -92 257 -154 279&#xA;-145 9 3 13 3 9 -1 -4 -4 16 -18 45 -30 69 -28 165 -27 223 3 103 54 185 206&#xA;185 345 0 61 -16 118 -33 118 -7 0 6 12 28 27 50 34 76 63 68 76 -3 6 -1 7 5&#xA;3 15 -9 46 42 64 101 l13 44 30 -34 c16 -18 37 -42 45 -53z m-731 -147 c22 -1&#xA;37 -5 35 -8 -8 -14 187 -40 285 -38 93 2 104 0 115 -17 30 -51 22 -129 -24&#xA;-226 -16 -34 -26 -66 -23 -71 3 -6 2 -7 -4 -4 -5 4 -23 -7 -39 -24 -16 -17&#xA;-41 -37 -56 -45 -35 -18 -105 -18 -158 1 -23 8 -47 12 -54 8 -6 -3 -8 -2 -3 2&#xA;4 5 -44 34 -105 65 -62 31 -167 95 -233 143 -66 48 -125 85 -132 83 -20 -8&#xA;-16 1 20 37 73 75 108 121 103 134 -3 8 -2 11 4 8 5 -3 16 5 25 19 l16 24 95&#xA;-44 c52 -25 112 -46 133 -47z m-5417 -282 c8 -19 12 -35 8 -35 -10 0 -26 -120&#xA;-23 -172 4 -82 72 -156 159 -173 155 -31 221 -23 448 55 135 45 264 38 259&#xA;-16 -1 -10 -16 -57 -33 -104 -34 -92 -36 -159 -6 -204 13 -20 12 -24 -7 -37&#xA;-60 -39 -165 -49 -239 -22 -51 18 -88 53 -120 112 -11 20 -22 30 -29 25 -7 -4&#xA;-9 -3 -6 3 9 15 -39 57 -54 48 -8 -5 -10 -4 -5 3 11 19 -69 52 -137 58 -34 2&#xA;-100 6 -147 8 -148 8 -204 31 -250 103 -31 49 -37 80 -43 214 l-3 86 40 24&#xA;c58 34 117 58 146 58 20 1 29 -7 42 -34z m6849 -233 c-2 -193 -14 -277 -47&#xA;-336 -28 -49 -139 -164 -209 -216 -27 -20 -68 -52 -91 -71 -59 -49 -114 -92&#xA;-139 -109 -13 -8 -59 -42 -105 -75 -45 -33 -123 -89 -174 -125 -170 -120 -341&#xA;-243 -346 -249 -3 -3 -48 -35 -100 -70 -82 -55 -312 -216 -413 -289 -18 -12&#xA;-50 -34 -71 -48 -22 -15 -44 -31 -50 -36 -6 -5 -56 -40 -111 -78 -55 -38 -120&#xA;-83 -145 -100 -58 -40 -524 -346 -581 -382 -24 -15 -98 -61 -164 -102 -494&#xA;-308 -672 -367 -998 -326 -81 10 -336 59 -417 80 -19 5 -48 12 -65 15 -16 3&#xA;-55 12 -85 21 -81 23 -128 35 -195 49 -84 19 -252 63 -300 79 -22 8 -105 33&#xA;-185 56 -80 23 -193 57 -251 76 -58 20 -112 37 -120 38 -8 2 -21 6 -29 9 -8 4&#xA;-107 38 -220 76 -288 98 -440 152 -550 196 -52 20 -178 68 -280 105 -184 67&#xA;-430 162 -525 202 -115 48 -418 202 -474 242 -114 79 -131 129 -131 387 0 153&#xA;2 169 15 155 35 -34 160 -40 268 -12 81 21 160 26 181 10 13 -9 15 -31 13&#xA;-115 -2 -88 1 -111 19 -150 29 -61 82 -114 139 -139 52 -22 91 -25 150 -9 22&#xA;6 56 14 75 18 19 4 76 29 125 56 50 27 101 54 115 62 28 15 75 16 140 4 33 -7&#xA;54 -19 80 -48 19 -21 39 -37 43 -35 5 1 6 -2 2 -7 -3 -6 6 -27 20 -48 14 -21&#xA;36 -54 49 -73 33 -50 140 -146 189 -171 67 -35 147 -59 194 -59 82 0 217 38&#xA;262 73 20 16 142 56 172 57 33 0 89 -19 111 -37 9 -9 23 -12 30 -7 7 4 10 4 7&#xA;0 -4 -4 17 -55 46 -114 56 -114 97 -162 177 -204 36 -19 59 -22 138 -22 87 0&#xA;101 2 162 32 37 18 73 38 80 45 7 6 31 25 53 42 22 16 57 45 78 64 21 20 66&#xA;44 104 58 36 12 82 32 100 43 l34 20 68 -40 c37 -22 74 -40 82 -40 9 0 33 -16&#xA;55 -36 62 -56 119 -79 195 -79 40 0 72 5 82 13 13 11 23 12 54 1 21 -7 49 -14&#xA;63 -15 14 -2 45 -8 70 -13 25 -6 110 -9 190 -7 117 3 157 8 210 26 100 34 198&#xA;89 260 146 l56 52 79 1 c68 0 88 5 151 35 88 42 115 75 168 208 34 88 55 120&#xA;104 159 41 34 194 27 257 -11 59 -37 75 -58 75 -103 0 -78 -77 -198 -136 -213&#xA;-13 -3 -22 -9 -20 -13 2 -3 -14 -7 -36 -9 -22 -1 -49 -7 -59 -12 -10 -6 -33&#xA;-10 -53 -10 -36 0 -56 -14 -34 -24 7 -3 3 -3 -9 0 -42 10 -23 -12 25 -29 57&#xA;-21 130 -22 174 -3 18 8 52 22 76 32 45 18 117 88 107 104 -4 6 -2 10 3 10 14&#xA;0 52 94 52 128 0 16 3 31 6 35 3 3 31 -4 62 -15 44 -15 73 -19 128 -15 160 11&#xA;238 102 260 304 l6 64 52 29 c28 16 76 42 106 58 30 16 54 35 52 41 -1 7 2 9&#xA;9 6 8 -6 77 34 134 78 6 4 29 21 53 38 25 17 40 34 36 41 -4 6 -3 8 3 5 6 -4&#xA;35 16 64 44 30 28 48 47 40 43 -9 -5 -12 -3 -7 5 4 6 11 9 15 7 21 -13 270&#xA;307 283 363 15 69 171 155 313 175 68 10 171 45 225 77 25 14 47 25 49 23 3&#xA;-2 4 -79 2 -172z m-2116 138 c16 -17 35 -28 43 -25 7 2 11 1 8 -4 -3 -4 78&#xA;-89 179 -189 114 -111 185 -188 185 -200 0 -23 -33 -46 -89 -64 -23 -7 -41&#xA;-15 -41 -18 0 -3 -14 -7 -31 -8 -18 -1 -37 -5 -42 -9 -29 -18 -428 -25 -563&#xA;-10 -144 15 -316 83 -397 156 -42 37 -76 100 -77 138 0 26 53 73 139 124 56&#xA;33 71 37 159 43 154 11 282 28 282 38 0 5 4 7 8 4 11 -6 119 22 152 40 37 20&#xA;53 17 85 -16z m-5047 -40 c4 0 7 -21 8 -48 2 -157 53 -260 150 -303 54 -25&#xA;189 -46 304 -50 52 -1 107 -3 122 -3 14 -1 25 -2 24 -4 -2 -1 15 -21 38 -45&#xA;23 -23 62 -72 87 -108 50 -71 83 -93 174 -112 68 -14 174 2 243 37 l47 24 29&#xA;-23 c32 -26 112 -53 166 -58 69 -6 138 18 282 101 102 57 175 84 198 72 24&#xA;-13 28 -26 40 -127 6 -47 16 -96 22 -107 13 -27 54 -63 93 -84 60 -31 255 -26&#xA;247 7 -1 7 2 10 7 6 16 -9 62 19 102 62 42 45 102 139 102 159 0 8 2 12 5 9 3&#xA;-2 18 15 33 39 30 44 55 56 121 56 73 0 174 -91 238 -214 47 -89 163 -165 253&#xA;-166 85 0 150 39 190 115 18 33 22 56 21 135 0 58 -6 105 -14 120 -7 14 27&#xA;-14 76 -62 120 -117 200 -181 215 -172 7 4 9 3 6 -3 -9 -14 29 -47 44 -37 7 4&#xA;10 3 5 -4 -3 -6 15 -24 44 -43 27 -18 50 -34 50 -35 0 -2 -14 -11 -30 -19 -18&#xA;-9 -28 -21 -24 -27 4 -7 3 -8 -4 -4 -6 4 -47 -14 -90 -39 -136 -79 -275 -128&#xA;-439 -155 -90 -15 -203 -18 -203 -6 0 4 -11 6 -25 4 -13 -3 -22 -2 -20 2 2 4&#xA;-14 15 -37 24 -60 23 -291 157 -373 216 -85 61 -132 86 -142 76 -11 -11 33&#xA;-81 50 -80 8 1 14 -6 13 -14 -2 -23 327 -238 346 -226 6 4 8 3 4 -4 -11 -18&#xA;135 -84 188 -86 25 0 46 -3 46 -7 0 -9 74 -10 120 0 80 17 91 20 237 66 95 30&#xA;141 50 137 57 -4 7 -3 8 5 4 13 -8 130 54 238 126 72 48 91 55 108 40 6 -5 66&#xA;-34 135 -65 211 -94 425 -151 618 -164 50 -3 92 -9 92 -13 0 -23 -87 -216&#xA;-109 -242 -8 -10 -10 -18 -5 -18 17 -1 -71 -50 -89 -50 -10 0 -16 -3 -13 -8 8&#xA;-14 -149 4 -183 21 -18 9 -38 14 -44 10 -5 -3 -7 -1 -3 5 3 6 -2 13 -11 16&#xA;-10 4 -50 36 -88 74 -114 110 -241 158 -371 142 -80 -10 -131 -35 -158 -79&#xA;-24 -39 -49 -101 -39 -101 3 0 0 -7 -7 -15 -7 -8 -10 -15 -7 -15 14 0 -55&#xA;-166 -80 -192 -38 -40 -115 -78 -158 -78 -63 0 -106 38 -154 134 -23 48 -46&#xA;84 -51 81 -5 -3 -7 0 -4 8 11 30 -122 59 -162 35 -11 -7 -57 -40 -102 -74 -71&#xA;-53 -87 -61 -131 -63 -57 -2 -92 13 -134 57 -28 29 -29 31 -28 147 1 135 -9&#xA;166 -66 205 -26 18 -50 25 -84 25 -26 0 -45 4 -42 9 3 4 -3 6 -13 3 -11 -3&#xA;-41 -8 -69 -12 -46 -6 -207 -43 -280 -65 -34 -10 -140 -4 -199 11 -109 29&#xA;-188 88 -314 237 -59 69 -86 86 -180 113 -54 15 -105 19 -311 20 -284 1 -352&#xA;8 -551 51 -80 17 -157 31 -172 32 -14 0 -24 4 -22 8 6 10 -66 39 -77 32 -5 -3&#xA;-9 0 -9 6 0 5 -24 22 -53 35 -29 14 -74 43 -101 65 -26 22 -52 37 -57 34 -5&#xA;-3 -8 0 -7 8 2 7 -4 12 -12 10 -8 -2 -12 0 -8 4 4 4 -8 27 -28 50 -93 115&#xA;-151 253 -155 374 -3 99 -3 100 30 100 15 0 62 11 102 24 72 24 74 24 77 5 2&#xA;-10 6 -19 10 -19z m-305 -107 c10 -141 73 -343 105 -336 5 1 8 -5 6 -15 -5&#xA;-21 73 -115 88 -106 7 4 8 2 4 -4 -12 -20 103 -108 237 -181 53 -29 258 -100&#xA;332 -115 17 -4 41 -9 55 -12 93 -19 286 -35 470 -39 335 -8 394 -21 465 -102&#xA;l31 -34 -41 -42 c-69 -73 -132 -217 -94 -217 16 0 65 57 116 135 25 39 47 72&#xA;49 74 2 2 29 -19 61 -46 62 -53 76 -62 166 -112 36 -20 57 -27 57 -19 0 9 3 9&#xA;9 -1 14 -22 176 -25 265 -5 39 8 82 17 96 20 14 3 43 11 65 19 22 7 75 16 117&#xA;20 104 10 112 0 135 -148 9 -60 4 -139 -8 -131 -3 2 -18 -27 -32 -64 -37 -96&#xA;-41 -112 -24 -112 19 0 59 49 51 62 -4 6 -3 8 3 5 6 -4 17 8 25 28 l14 35 57&#xA;-55 57 -55 -38 -34 c-20 -19 -62 -50 -92 -68 -47 -29 -64 -33 -136 -36 -121&#xA;-6 -173 27 -233 146 -12 23 -27 42 -34 43 -9 0 -9 2 1 6 9 3 7 12 -8 33 -11&#xA;15 -20 32 -20 37 0 20 -78 82 -123 97 -63 21 -118 20 -197 -3 -80 -23 -212&#xA;-75 -206 -82 7 -6 -39 -10 -131 -11 -71 0 -90 4 -145 29 -76 36 -192 150 -219&#xA;215 -6 15 -15 28 -20 28 -5 0 -9 6 -9 14 0 22 -80 105 -124 129 -33 18 -57 22&#xA;-126 22 -77 -1 -91 -4 -145 -33 -212 -115 -281 -135 -367 -106 -79 26 -122&#xA;111 -106 208 20 119 5 171 -58 201 -43 20 -148 16 -241 -9 -77 -21 -197 -15&#xA;-260 13 -62 27 -91 56 -99 99 -6 29 -2 37 36 72 24 22 49 40 56 40 19 0 64 59&#xA;64 85 0 33 -42 79 -106 116 -86 49 -126 127 -110 213 9 45 67 101 145 137 36&#xA;17 73 34 81 39 8 4 18 6 21 4 3 -2 9 -43 12 -91z m6777 -87 c-39 -57 -70 -107&#xA;-70 -111 0 -10 -61 -85 -117 -144 -23 -25 -40 -49 -37 -53 3 -4 -2 -5 -10 -2&#xA;-8 3 -19 -3 -25 -15 -6 -11 -38 -41 -71 -66 -34 -26 -57 -51 -54 -57 5 -7 2&#xA;-8 -6 -3 -8 5 -17 2 -24 -7 -6 -8 -21 -20 -34 -27 -12 -7 -20 -17 -16 -23 4&#xA;-6 3 -8 -4 -4 -6 3 -39 -12 -74 -35 -79 -51 -322 -170 -407 -198 -69 -24 -265&#xA;-76 -321 -85 -19 -3 -46 -8 -60 -11 -96 -19 -441 -27 -554 -12 -69 9 -120 17&#xA;-150 23 -11 3 -42 9 -67 14 -42 8 -115 32 -269 89 -97 35 -348 177 -450 254&#xA;-73 55 -301 285 -290 292 4 3 21 1 36 -4 54 -17 164 -22 250 -10 l84 11 68&#xA;-54 c98 -79 119 -92 228 -146 158 -79 269 -121 414 -158 166 -43 300 -56 565&#xA;-53 204 3 322 16 455 50 41 10 86 21 98 24 136 31 438 168 572 259 108 74 192&#xA;145 185 157 -4 5 0 6 7 4 12 -5 158 134 158 150 0 5 51 54 57 55 2 0 -29 -47&#xA;-67 -104z m-832 -838 c-5 -24 -11 -50 -13 -60 -7 -35 -37 -78 -70 -104 -51&#xA;-39 -114 -43 -207 -13 -40 13 -79 23 -85 22 -7 0 -11 3 -8 7 3 5 -12 19 -32&#xA;31 l-38 24 55 12 c30 7 64 14 75 15 13 2 315 100 331 107 1 1 -3 -18 -8 -41z&#xA;m-1621 -296 c23 -12 68 -51 100 -88 32 -36 77 -81 101 -99 l43 -33 -63 -45&#xA;c-81 -57 -153 -93 -225 -112 -66 -18 -253 -19 -345 -3 l-58 10 24 31 c24 32&#xA;71 170 81 237 12 79 67 127 160 137 22 3 41 6 43 8 7 6 99 -23 139 -43z m-932&#xA;-260 c-7 -8 -55 23 -55 35 0 10 8 8 29 -9 15 -13 27 -24 26 -26z"/>
    <path d="M4725 8187 l-30 -14 32 -16 c35 -18 129 -23 153 -7 19 12 2 31 -32&#xA;36 -13 2 -39 6 -58 9 -20 3 -48 -1 -65 -8z"/>
    <path d="M4029 7660 c-82 -29 -129 -59 -190 -121 -59 -61 -101 -169 -66 -169&#xA;8 0 40 18 73 39 96 65 195 92 336 94 65 1 118 -1 118 -5 0 -16 59 -7 84 13 20&#xA;16 26 29 26 58 0 111 -191 156 -381 91z m321 -64 c0 -2 -7 -7 -16 -10 -8 -3&#xA;-12 -2 -9 4 6 10 25 14 25 6z"/>
    <path d="M5384 7551 c-73 -33 -93 -87 -51 -137 19 -22 33 -27 83 -31 128 -9&#xA;279 -65 357 -133 23 -20 61 -50 84 -68 l42 -33 7 25 c15 63 -37 185 -109 257&#xA;-120 117 -302 170 -413 120z"/>
    <path d="M7391 7477 c-33 -16 -32 -29 4 -46 35 -17 104 -17 135 -1 20 11 21&#xA;14 8 27 -21 20 -86 34 -92 19 -3 -7 -5 -7 -5 2 -1 15 -19 15 -50 -1z"/>
    <path d="M8091 7284 c-27 -20 -27 -28 4 -42 38 -17 94 -15 102 4 13 36 -67 65&#xA;-106 38z"/>
    <path d="M4005 7211 c-95 -24 -136 -43 -213 -98 -67 -48 -172 -147 -172 -163&#xA;0 -5 -6 -15 -13 -22 -30 -30 -88 -163 -105 -241 -57 -254 6 -494 178 -675 68&#xA;-71 190 -140 285 -160 75 -16 242 -14 299 2 66 19 172 67 205 92 52 39 153&#xA;149 179 193 l27 46 6 -35 c15 -85 91 -210 180 -298 54 -53 176 -127 244 -148&#xA;114 -34 275 -26 394 21 391 153 564 686 349 1073 -16 29 -34 50 -39 47 -5 -4&#xA;-6 0 -3 8 7 20 -121 136 -193 174 -114 61 -270 83 -393 57 -165 -36 -335 -157&#xA;-438 -311 l-36 -54 -31 95 c-102 310 -399 475 -710 397z m265 -56 c14 -3 30&#xA;-7 35 -9 20 -5 71 -31 108 -54 21 -12 42 -20 48 -17 5 4 8 2 7 -3 -2 -5 12&#xA;-22 31 -37 19 -16 51 -50 71 -77 21 -26 41 -44 44 -40 4 3 4 -2 0 -12 -6 -15&#xA;-4 -17 6 -11 8 5 11 4 6 -3 -3 -6 2 -30 14 -54 28 -60 60 -226 49 -252 -13&#xA;-32 -29 -157 -29 -226 0 -52 -6 -73 -40 -138 -94 -179 -281 -308 -456 -316&#xA;-71 -3 -142 3 -214 18 -47 10 -165 76 -203 114 -21 20 -57 63 -81 94 -24 31&#xA;-46 55 -49 52 -3 -3 -5 1 -4 8 1 32 -4 49 -13 43 -5 -3 -7 0 -4 8 3 8 -2 21&#xA;-10 30 -8 8 -13 16 -11 19 2 2 -3 26 -12 53 -11 34 -16 88 -16 170 -1 106 3&#xA;130 27 200 78 227 254 392 468 440 61 14 176 14 228 0z m155 -25 c3 -6 -1 -7&#xA;-9 -4 -18 7 -21 14 -7 14 6 0 13 -4 16 -10z m1074 -125 c55 -19 147 -71 185&#xA;-105 16 -14 33 -24 38 -22 5 1 7 -1 4 -6 -2 -4 10 -27 29 -50 18 -24 44 -67&#xA;56 -97 12 -30 25 -55 29 -55 3 0 6 -8 7 -17 1 -10 7 -43 13 -73 7 -30 13 -100&#xA;13 -155 2 -206 -77 -394 -217 -523 -114 -103 -237 -152 -388 -152 -90 0 -146&#xA;15 -258 70 -60 30 -179 152 -217 223 -83 152 -93 381 -25 569 11 31 17 60 14&#xA;64 -4 4 -2 4 5 0 7 -4 14 3 19 16 20 64 188 226 285 276 36 18 94 39 129 46&#xA;79 17 219 12 279 -9z"/>
    <path d="M4230 6773 c-115 -48 -185 -217 -150 -363 12 -52 65 -111 116 -130&#xA;137 -53 268 79 273 275 2 75 -16 131 -57 178 -39 44 -127 64 -182 40z"/>
    <path d="M5145 6636 c-102 -44 -167 -239 -124 -368 7 -21 15 -38 19 -38 4 0&#xA;12 -11 18 -25 15 -34 81 -65 137 -65 125 0 216 118 217 282 1 101 -43 187&#xA;-109 214 -41 18 -119 17 -158 0z"/>
    <path d="M2980 7100 c-80 -12 -96 -57 -21 -58 29 -1 49 6 68 22 26 22 26 24 7&#xA;33 -10 5 -35 6 -54 3z"/>
    <path d="M7200 6984 c-20 -23 7 -43 68 -51 40 -4 57 -2 79 12 l27 18 -23 18&#xA;c-30 25 -132 27 -151 3z"/>
    <path d="M2312 6698 c-43 -43 57 -91 119 -58 27 15 24 45 -6 58 -34 16 -98 15&#xA;-113 0z"/>
    <path d="M6679 6386 c-2 -3 -18 -7 -34 -10 -34 -6 -60 -30 -51 -45 12 -19 101&#xA;-13 127 9 24 20 24 20 5 35 -20 15 -39 19 -47 11z"/>
    <path d="M5200 5596 c0 -8 11 -21 25 -30 24 -16 24 -17 8 -35 -33 -35 -185&#xA;-72 -324 -78 -164 -7 -287 18 -436 87 -101 48 -124 50 -103 10 28 -52 150&#xA;-112 300 -147 105 -24 299 -24 405 1 91 21 174 55 194 79 13 16 16 16 48 -4&#xA;29 -18 37 -19 44 -8 16 26 9 38 -51 86 -59 48 -110 66 -110 39z"/>
    <path d="M1766 5632 c-14 -23 8 -62 36 -62 14 0 18 5 14 16 -3 8 -2 12 4 9 14&#xA;-9 12 19 -2 33 -14 14 -44 16 -52 4z"/>
    <path d="M2207 5603 c-21 -20 6 -83 36 -83 33 0 27 70 -8 84 -20 7 -20 7 -28&#xA;-1z"/>
    <path d="M6091 4881 c-8 -5 -10 -14 -6 -21 5 -8 4 -11 -3 -6 -6 4 -18 -6 -27&#xA;-23 -32 -63 -10 -68 47 -11 39 39 45 63 17 67 -8 2 -20 -1 -28 -6z"/>
    <path d="M3957 4863 c-16 -16 -6 -43 19 -49 35 -9 63 18 44 40 -13 16 -51 22&#xA;-63 9z"/>
    <path d="M5535 4747 c-7 -25 -22 -281 -21 -346 1 -19 5 -35 11 -35 20 -2 35&#xA;92 35 214 0 156 -11 226 -25 167z"/>
    <path d="M4679 4724 c-18 -21 0 -48 35 -52 20 -3 26 1 26 15 0 38 -40 62 -61&#xA;37z"/>
    <path d="M7585 4800 c-156 -17 -181 -110 -42 -156 97 -32 238 2 249 60 14 73&#xA;-67 110 -207 96z m136 -71 c27 -14 24 -26 -12 -45 -25 -12 -46 -14 -97 -9 -36&#xA;4 -76 12 -90 18 -24 11 -24 12 24 35 40 18 59 22 103 17 29 -3 62 -10 72 -16z"/>
    <path d="M8446 4029 c-30 -35 -33 -49 -11 -49 22 0 55 37 55 60 0 28 -14 25&#xA;-44 -11z"/>
    <path d="M6095 2544 c-15 -23 -15 -28 -2 -41 13 -13 17 -13 36 6 12 12 21 30&#xA;21 41 0 29 -34 25 -55 -6z"/>
    <path d="M3670 2476 c0 -24 29 -46 60 -46 24 0 28 3 23 18 -13 37 -83 61 -83&#xA;28z"/>
    <path d="M5546 2462 c-7 -12 -20 -194 -19 -282 1 -201 11 -283 27 -228 11 33&#xA;18 438 8 438 -4 0 -6 18 -4 40 4 38 -1 50 -12 32z"/>
    <path d="M4725 2333 c-43 -11 -40 -45 6 -68 54 -29 92 -9 69 35 -9 17 -43 42&#xA;-52 39 -2 -1 -12 -4 -23 -6z"/>
    <path d="M6342 4369 c-76 -56 -111 -172 -62 -211 26 -21 51 -22 102 -4 88 32&#xA;153 119 126 169 -13 25 -57 67 -72 68 -6 1 -21 3 -33 4 -13 1 -40 -10 -61 -26z&#xA;m88 -29 c0 -5 5 -10 11 -10 5 0 7 4 4 10 -4 6 1 7 11 3 14 -5 13 -8 -6 -18&#xA;-16 -9 -19 -14 -10 -20 7 -4 16 -2 21 6 18 29 8 -5 -13 -43 -42 -74 -128 -101&#xA;-128 -40 0 29 64 102 90 102 13 0 13 1 0 10 -13 8 -12 10 3 10 9 0 17 -4 17&#xA;-10z"/>
    <path d="M6730 4298 c-44 -67 -49 -99 -24 -151 18 -37 70 -77 101 -77 65 0&#xA;118 62 110 128 -5 44 -49 126 -80 147 -42 29 -65 19 -107 -47z m60 22 c0 -5&#xA;-8 -10 -17 -10 -15 0 -16 2 -3 10 19 12 20 12 20 0z m0 -30 c0 -5 6 -10 13&#xA;-10 10 0 39 -34 42 -50 1 -3 5 -16 9 -28 6 -18 2 -30 -15 -48 -13 -14 -29 -22&#xA;-36 -20 -8 3 -10 -1 -6 -12 3 -11 -1 -9 -11 5 -32 43 -39 80 -25 128 12 40 29&#xA;61 29 35z"/>
  </g>
  <title>Sandwich Lettuce Tomato</title>
  <desc>Sandwich Lettuce Tomato</desc>
</svg>