<?xml version="1.0" standalone="no"?>
<!DOCTYPE svg PUBLIC "-//W3C//DTD SVG 20010904//EN"
 "http://www.w3.org/TR/2001/REC-SVG-20010904/DTD/svg10.dtd">
<svg version="1.0" xmlns="http://www.w3.org/2000/svg"
 width="1024.000000pt" height="1024.000000pt" viewBox="0 0 1024.000000 1024.000000"
 preserveAspectRatio="xMidYMid meet">
<metadata>
Created by potrace 1.16, written by Peter Selinger 2001-2019
</metadata>
<g transform="translate(0.000000,1024.000000) scale(0.100000,-0.100000)"
fill="#000000" stroke="none">
<path d="M2140 9655 c-36 -8 -108 -35 -160 -61 -120 -60 -227 -163 -278 -267
-37 -75 -66 -197 -58 -239 l5 -27 -42 15 c-159 56 -353 -1 -420 -125 -17 -29
-31 -74 -34 -105 l-6 -53 -81 -6 c-163 -10 -285 -90 -288 -187 -2 -65 60 -94
232 -111 94 -9 400 -10 1235 -6 611 4 1121 8 1135 11 14 2 63 7 109 11 184 15
291 76 291 166 0 61 -28 109 -85 144 -42 26 -59 30 -129 32 l-80 2 -11 53
c-30 148 -152 265 -310 298 -106 22 -199 6 -342 -57 -9 -4 -13 6 -13 34 0 149
-108 323 -254 408 -125 73 -284 100 -416 70z m255 -100 c71 -20 163 -77 214
-133 84 -90 120 -208 102 -338 -6 -41 -11 -77 -11 -79 0 -7 32 -35 40 -35 5 0
32 20 62 45 29 25 78 58 108 73 49 24 66 27 155 27 89 0 106 -3 157 -28 105
-52 173 -154 170 -259 -1 -74 10 -84 78 -68 108 26 247 -33 224 -94 -9 -25
-70 -52 -144 -65 -108 -19 -980 -33 -1816 -28 -807 4 -864 6 -864 42 0 22 78
63 155 81 52 12 91 14 152 9 94 -8 107 2 83 59 -24 58 -24 108 2 146 84 124
277 133 419 19 28 -22 63 -20 72 5 3 7 0 37 -5 67 -32 172 39 347 185 456 148
110 307 144 462 98z"/>
<path d="M6385 9549 c-357 -33 -732 -149 -1115 -345 -357 -182 -641 -394 -972
-724 l-176 -177 -168 -7 c-197 -8 -375 -29 -494 -56 -479 -112 -866 -304
-1138 -564 -238 -227 -345 -434 -284 -546 39 -71 101 -85 278 -61 123 17 333
10 419 -14 210 -57 364 -203 435 -411 20 -56 20 -58 1 -123 -73 -247 -131
-551 -163 -851 -17 -162 -17 -726 0 -875 30 -268 86 -575 154 -855 57 -235
153 -509 262 -749 31 -68 56 -126 56 -128 0 -3 -39 -46 -88 -96 -158 -166
-228 -259 -301 -405 -102 -204 -147 -414 -138 -652 8 -233 62 -394 170 -515
119 -134 235 -154 251 -43 28 195 52 249 159 364 38 40 126 118 197 173 70 55
148 124 173 154 55 63 113 158 122 196 l6 27 87 -43 c123 -61 182 -73 382 -83
253 -13 355 -48 479 -164 96 -91 129 -88 174 13 26 59 34 196 17 298 -25 159
-104 333 -211 469 -76 96 -228 234 -323 293 -48 30 -127 69 -174 87 -83 31
-267 74 -318 74 -29 0 -29 4 -9 125 49 300 174 600 356 851 217 300 459 538
1374 1352 l160 143 21 -27 c74 -92 152 -257 206 -438 37 -123 58 -166 98 -200
42 -35 114 -36 188 -1 172 80 366 403 417 694 30 168 15 408 -34 545 -11 33
-20 60 -18 61 1 1 40 13 87 26 137 38 277 33 510 -16 164 -35 201 -39 320 -39
94 0 154 5 197 17 197 52 313 173 316 329 1 34 -2 79 -6 99 l-8 37 53 12 c166
39 439 169 588 281 142 107 274 264 344 409 28 59 31 74 31 160 0 83 -3 102
-28 151 -57 117 -199 213 -362 245 -90 18 -237 14 -389 -11 -49 -8 -100 -12
-113 -9 -27 7 -26 6 -48 174 -21 157 -45 258 -91 374 -137 347 -394 635 -709
794 -221 111 -442 175 -704 201 -118 13 -373 12 -506 0z m466 -129 c367 -36
653 -141 920 -337 154 -112 264 -250 359 -448 57 -120 99 -235 120 -330 12
-52 42 -277 37 -280 -1 -1 -27 -7 -57 -14 -127 -27 -350 -157 -350 -203 0 -30
32 -21 142 36 112 59 250 101 308 93 19 -3 55 -12 80 -22 41 -16 60 -16 205
-5 264 20 405 -7 504 -96 116 -104 123 -234 18 -342 -141 -147 -459 -280 -775
-327 -456 -67 -880 25 -1214 263 -141 101 -227 127 -408 126 -324 -2 -654
-135 -982 -396 -103 -82 -346 -331 -354 -363 -3 -13 6 -58 19 -102 42 -131 57
-225 57 -349 0 -419 -237 -858 -636 -1178 -167 -134 -386 -251 -455 -244 -55
5 -56 20 -21 200 45 235 52 316 52 595 -1 332 9 390 91 542 42 77 70 117 151
212 56 66 61 89 19 89 -54 0 -203 -147 -278 -275 -47 -80 -82 -177 -95 -262
-6 -44 -19 -87 -28 -98 -98 -115 -313 -496 -404 -717 -290 -703 -339 -1539
-121 -2077 42 -102 63 -137 77 -123 6 6 -4 52 -30 134 -39 120 -67 246 -94
413 -8 51 -12 182 -12 365 0 307 14 450 70 710 84 391 254 790 483 1130 l51
75 0 -205 c0 -227 -4 -265 -56 -526 -41 -210 -39 -249 19 -284 74 -46 167 -32
332 50 302 149 576 392 757 675 150 233 240 518 239 761 0 158 -25 269 -93
416 l-31 68 38 46 c66 80 192 201 293 282 309 246 653 386 947 386 105 0 215
-20 229 -43 3 -4 -24 -28 -61 -52 -74 -49 -113 -93 -97 -109 7 -7 22 -6 47 5
20 8 54 15 75 15 39 0 41 -2 112 -105 129 -187 235 -293 395 -397 239 -155
526 -201 599 -96 26 37 20 114 -15 188 -28 61 -29 65 -13 77 10 7 21 12 25 11
15 -6 142 -203 156 -242 19 -54 19 -145 -1 -184 -25 -48 -85 -91 -161 -115
-60 -19 -91 -22 -215 -21 -121 1 -170 6 -300 33 -336 68 -509 48 -783 -91
-185 -95 -479 -322 -882 -683 -49 -44 -229 -204 -400 -355 -715 -632 -901
-824 -1120 -1150 -173 -258 -291 -579 -325 -885 -23 -208 24 -475 88 -500 29
-11 35 11 23 96 -6 45 -11 113 -11 151 l0 69 48 -6 c143 -19 212 -39 326 -97
276 -138 486 -385 555 -654 22 -83 32 -187 24 -241 l-5 -32 -52 39 c-68 52
-183 104 -271 123 -38 9 -133 18 -210 22 -303 14 -422 70 -505 235 -22 44 -36
60 -48 58 -15 -3 -17 -14 -14 -80 8 -173 -76 -320 -262 -460 -185 -140 -277
-240 -344 -373 -35 -70 -62 -156 -62 -197 0 -42 -22 -35 -76 25 -161 178 -198
533 -92 867 67 210 181 381 387 584 71 69 121 126 121 137 0 11 -20 59 -44
107 -211 421 -365 965 -442 1562 -24 187 -30 708 -10 920 32 336 113 726 211
1025 131 395 334 808 567 1152 259 381 635 765 1011 1031 460 326 993 528
1512 575 90 8 319 6 416 -3z m-2910 -1355 c-247 -324 -463 -710 -621 -1110
-28 -71 -54 -139 -59 -150 -6 -16 -13 -9 -41 43 -67 125 -214 247 -371 306
-143 54 -371 71 -549 43 -104 -17 -138 -12 -146 19 -15 61 70 190 230 349 202
200 455 348 791 462 243 83 535 136 788 142 l58 1 -80 -105z m3254 -815 c74
-50 189 -103 323 -146 72 -24 138 -44 145 -44 16 0 197 -184 231 -235 14 -22
26 -50 26 -62 0 -19 -5 -23 -34 -23 -138 0 -424 164 -587 337 -58 61 -142 165
-164 202 -9 16 -3 13 60 -29z m1795 -31 c-168 -157 -464 -303 -689 -340 l-69
-12 -34 38 c-41 46 -61 82 -53 95 3 6 32 10 65 10 125 0 389 58 545 120 85 34
240 111 270 134 43 33 27 12 -35 -45z m-2176 -1056 c73 -239 47 -492 -74 -740
-87 -177 -206 -313 -275 -313 -43 0 -63 35 -120 207 -55 167 -122 310 -181
387 -19 25 -34 49 -34 55 0 13 225 204 362 308 112 85 264 183 283 183 6 0 24
-39 39 -87z"/>
<path d="M6729 8946 c-102 -27 -200 -109 -251 -209 -35 -70 -35 -120 -1 -125
17 -2 30 10 61 55 51 76 131 149 189 175 25 11 73 23 107 25 67 6 86 16 86 45
0 41 -99 59 -191 34z"/>
<path d="M6854 8549 c-158 -19 -288 -150 -325 -327 -15 -76 -6 -231 18 -308
l20 -61 -72 -12 c-83 -14 -158 -48 -163 -74 -6 -29 26 -31 152 -13 260 36 507
-23 643 -156 27 -26 47 -39 57 -35 22 9 20 25 -9 75 l-25 44 41 46 c60 68 107
171 120 268 15 102 -4 206 -57 313 -87 177 -228 261 -400 240z m163 -143 c84
-43 158 -133 192 -234 46 -137 13 -327 -77 -440 l-18 -23 -55 36 c-29 20 -56
39 -58 41 -3 2 5 14 16 27 94 102 87 274 -15 388 -54 61 -92 79 -162 79 -83 0
-157 -51 -189 -130 l-10 -25 0 26 c-1 41 26 122 59 171 73 110 200 144 317 84z
m-34 -264 c23 -20 22 -63 -4 -96 -35 -44 -92 -29 -108 29 -10 39 5 72 38 83
29 10 48 6 74 -16z"/>
<path d="M1610 6375 c-69 -20 -132 -57 -192 -113 -47 -44 -108 -148 -108 -184
0 -15 -5 -17 -27 -11 -16 5 -64 8 -108 8 -62 -1 -89 -6 -120 -22 -89 -47 -138
-128 -137 -225 0 -101 57 -161 182 -195 59 -16 119 -18 625 -17 660 1 756 9
828 74 28 25 32 35 32 79 0 41 -5 55 -29 80 -33 34 -79 51 -142 51 l-41 0 -6
47 c-11 102 -138 160 -257 118 -54 -19 -50 -20 -50 13 0 36 -23 119 -43 158
-22 42 -91 102 -145 126 -61 27 -188 33 -262 13z m235 -102 c91 -48 127 -116
130 -243 2 -123 12 -133 90 -78 35 25 58 33 103 36 52 4 61 1 90 -23 33 -28
42 -68 23 -104 -19 -34 3 -46 86 -46 58 0 86 -5 106 -18 112 -73 -124 -98
-888 -94 -392 3 -445 5 -487 21 -59 22 -98 66 -98 109 1 50 34 111 73 135 73
46 165 37 247 -23 19 -14 42 -25 52 -25 27 0 40 34 29 75 -10 37 0 98 24 144
15 31 90 102 126 122 83 44 221 50 294 12z"/>
<path d="M8323 5976 c-186 -43 -341 -176 -393 -338 -6 -21 -13 -38 -15 -38 -1
0 -22 7 -45 15 -57 20 -154 19 -215 -2 -73 -26 -139 -95 -160 -168 -9 -31 -15
-65 -12 -76 5 -17 -1 -19 -46 -19 -101 0 -176 -37 -210 -103 -27 -53 -12 -107
42 -142 79 -53 117 -56 911 -66 1019 -15 1244 -7 1335 45 79 44 102 120 56
185 -26 37 -109 65 -176 59 l-43 -3 -5 56 c-3 30 -14 73 -25 95 -26 51 -91
110 -151 137 -60 27 -199 35 -258 14 l-41 -14 -7 52 c-12 100 -71 192 -160
252 -90 61 -259 87 -382 59z m279 -105 c125 -48 187 -154 174 -298 -7 -92 0
-96 91 -51 61 30 76 33 148 32 115 -2 187 -39 227 -118 17 -32 19 -53 16 -108
-4 -45 -1 -71 6 -76 6 -4 49 -7 96 -7 100 0 153 -21 148 -58 -8 -59 -205 -70
-1113 -62 -805 7 -998 15 -1053 42 -106 52 41 130 174 93 39 -11 47 -11 61 3
14 14 15 21 3 56 -7 22 -10 58 -7 80 19 145 226 202 332 91 32 -33 70 -39 83
-12 5 9 12 43 15 74 14 146 158 296 324 338 65 16 211 6 275 -19z"/>
<path d="M2272 4780 c-40 -24 -71 -89 -72 -146 0 -105 64 -219 226 -394 53
-58 127 -147 166 -198 75 -101 97 -112 109 -53 14 70 -38 365 -93 520 -50 142
-131 254 -204 281 -41 16 -97 11 -132 -10z m107 -95 c78 -40 155 -195 196
-393 8 -40 15 -80 15 -88 0 -16 -141 136 -208 225 -50 67 -82 146 -82 204 0
65 24 81 79 52z"/>
<path d="M5367 4536 c-108 -39 -251 -161 -347 -298 -128 -181 -253 -508 -195
-508 9 0 59 39 113 86 103 90 246 189 426 295 224 130 297 254 225 375 -35 57
-137 80 -222 50z m131 -98 c18 -18 14 -69 -7 -104 -26 -42 -87 -90 -206 -161
-121 -72 -225 -140 -283 -183 l-44 -33 37 74 c117 232 318 419 451 419 22 0
45 -5 52 -12z"/>
<path d="M1596 4267 c-48 -30 -65 -60 -66 -112 0 -41 17 -74 55 -108 79 -71
363 -139 382 -91 9 24 -7 33 -118 65 -110 32 -169 61 -207 102 -54 58 12 93
113 62 143 -46 292 -168 422 -348 86 -119 98 -131 116 -124 76 29 -155 345
-348 475 -92 62 -172 94 -250 99 -50 3 -66 0 -99 -20z"/>
<path d="M6156 4009 c-129 -19 -348 -159 -450 -287 -73 -91 -62 -104 56 -66
72 23 109 27 273 35 144 6 206 13 256 28 95 30 148 95 133 165 -21 97 -125
145 -268 125z m99 -89 c50 -11 89 -53 75 -79 -20 -38 -86 -53 -270 -61 -96 -4
-176 -7 -178 -5 -7 7 95 77 152 105 88 43 155 56 221 40z"/>
<path d="M1765 3590 c-185 -46 -275 -218 -172 -328 45 -49 103 -72 278 -111
249 -55 397 -116 559 -229 106 -75 188 -151 272 -254 84 -104 112 -120 124
-71 12 47 -81 304 -158 438 -206 356 -504 568 -792 564 -45 -1 -94 -4 -111 -9z
m315 -137 c41 -16 104 -49 140 -72 130 -88 290 -274 389 -456 l33 -60 -43 41
c-157 147 -382 272 -574 318 -33 7 -103 24 -155 36 -102 24 -142 40 -177 73
-47 43 -14 109 72 142 67 25 223 15 315 -22z"/>
<path d="M2739 3567 c-47 -31 -71 -81 -66 -137 8 -90 46 -141 244 -317 45 -40
101 -100 125 -133 59 -82 72 -77 76 29 5 150 -40 330 -110 438 -80 125 -189
174 -269 120z m126 -100 c76 -52 145 -184 169 -326 6 -33 5 -32 -84 49 -167
153 -213 227 -180 291 15 27 41 24 95 -14z"/>
<path d="M5159 3500 c-148 -26 -302 -267 -303 -475 -1 -74 1 -80 20 -83 15 -2
32 11 58 43 21 25 92 91 158 146 128 108 180 170 198 234 23 84 -42 151 -131
135z m49 -106 c4 -41 -44 -99 -170 -203 l-97 -81 23 68 c30 87 46 117 90 168
37 43 109 86 136 82 9 -2 16 -16 18 -34z"/>
<path d="M8205 3433 c-136 -19 -266 -88 -505 -268 -218 -164 -344 -234 -468
-261 -98 -20 -174 -17 -292 12 -208 51 -240 42 -552 -142 -303 -180 -564 -305
-756 -363 -42 -12 -76 -29 -79 -38 -15 -40 45 -76 152 -93 75 -11 169 -2 404
40 189 33 300 27 496 -31 165 -48 242 -60 370 -60 141 0 264 23 413 78 152 55
221 73 307 80 111 8 204 -9 390 -71 222 -75 303 -90 445 -83 89 4 147 13 255
42 250 66 263 68 410 69 136 1 144 0 285 -41 202 -59 276 -73 390 -73 102 0
202 16 305 47 l60 19 3 51 3 52 -68 -20 c-172 -50 -317 -62 -447 -34 -37 8
-134 34 -215 57 l-146 43 -165 -1 c-158 0 -171 -2 -305 -38 -379 -103 -441
-102 -781 13 -291 98 -416 100 -674 10 -260 -90 -276 -94 -455 -94 -158 0
-162 1 -310 42 -209 58 -266 67 -414 60 -91 -4 -162 -14 -256 -37 -71 -17
-157 -33 -190 -36 l-60 -5 90 34 c136 51 360 164 550 277 94 56 197 116 230
132 74 38 158 47 236 25 140 -40 274 -49 373 -27 140 31 303 124 606 345 203
148 345 200 479 176 102 -18 192 -69 421 -237 350 -257 448 -316 595 -360 83
-25 234 -23 345 4 185 44 224 40 420 -44 68 -30 128 -54 132 -54 4 0 8 26 8
59 l0 59 -97 40 c-54 22 -122 47 -152 56 -74 22 -193 20 -300 -4 -49 -11 -120
-22 -158 -26 -164 -15 -330 63 -652 305 -278 208 -372 267 -471 295 -62 16
-159 26 -205 19z"/>
<path d="M5705 3200 c-142 -37 -258 -105 -384 -225 -74 -70 -153 -171 -165
-211 -6 -21 14 -54 33 -54 5 0 31 31 60 69 109 147 291 279 450 325 82 24 187
21 236 -7 44 -25 66 -67 49 -95 -21 -33 -90 -61 -217 -87 -184 -37 -250 -66
-361 -159 -49 -40 -106 -118 -106 -143 0 -7 9 -17 20 -23 17 -9 30 -1 92 56
99 91 178 127 359 165 178 37 203 45 257 81 44 30 82 91 82 130 -1 38 -35 101
-73 135 -71 62 -198 79 -332 43z"/>
<path d="M940 3044 c-85 -15 -142 -38 -385 -160 -278 -139 -347 -164 -498
-179 l-57 -6 0 -45 0 -44 48 0 c147 0 271 42 565 190 249 125 318 148 404 135
67 -9 155 -49 313 -139 236 -134 366 -173 540 -161 219 16 198 21 355 -75 77
-46 185 -108 239 -136 l100 -52 -41 -11 c-186 -50 -284 -43 -513 37 -101 36
-110 37 -240 36 -129 0 -140 -2 -250 -38 -241 -80 -246 -81 -380 -81 -114 1
-140 4 -300 44 -266 67 -384 68 -660 5 -58 -13 -122 -24 -142 -24 l-38 0 0
-45 0 -45 39 0 c21 0 104 14 184 30 234 48 367 42 647 -32 135 -35 280 -46
388 -29 40 6 144 34 230 62 131 43 173 52 253 57 103 5 99 6 359 -74 69 -21
106 -26 195 -26 172 -1 352 51 399 114 26 36 17 46 -93 104 -120 65 -260 148
-364 216 -122 80 -142 84 -291 70 -143 -14 -228 -5 -336 34 -76 26 -183 81
-275 140 -151 95 -300 144 -395 128z"/>
<path d="M5745 2084 c-16 -3 -59 -14 -95 -26 -214 -68 -427 -245 -648 -540
-109 -145 -154 -191 -181 -186 -34 7 -6 101 71 242 58 105 61 139 11 144 -60
6 -215 -90 -327 -203 -31 -31 -89 -100 -128 -153 -168 -229 -224 -282 -303
-282 -102 0 -172 170 -190 459 -8 135 -39 143 -150 39 -75 -70 -97 -104 -177
-278 -65 -138 -107 -190 -175 -216 -140 -54 -345 73 -468 290 -114 201 -229
322 -427 453 -225 148 -474 219 -680 193 -103 -12 -262 -51 -307 -75 -114 -58
-81 -109 100 -155 170 -44 339 -158 396 -269 39 -74 41 -116 10 -162 -63 -94
-164 -133 -326 -127 -98 4 -121 9 -311 72 -242 80 -317 96 -455 96 -160 0
-312 -37 -459 -113 -91 -47 -149 -97 -140 -121 9 -24 34 -20 129 24 156 72
317 110 463 110 109 0 232 -26 427 -90 228 -75 259 -82 375 -82 151 1 269 48
355 144 48 53 65 95 65 163 0 106 -56 202 -168 288 -91 71 -160 109 -245 137
l-80 27 54 14 c35 9 107 14 204 14 134 -1 159 -4 239 -28 202 -63 380 -171
549 -337 85 -82 129 -136 203 -247 119 -179 189 -244 317 -291 80 -30 175 -30
242 2 75 35 119 91 201 260 40 83 92 175 116 204 l43 52 7 -87 c18 -214 60
-336 136 -404 73 -64 142 -73 227 -28 61 32 117 91 228 239 107 144 213 256
289 309 l48 32 -35 -68 c-39 -74 -62 -165 -52 -204 3 -13 16 -35 28 -48 19
-20 29 -23 76 -19 71 6 104 34 221 184 233 300 436 467 641 528 62 18 196 21
238 5 28 -10 28 -11 -48 -50 -126 -66 -233 -177 -289 -302 -47 -102 -1 -197
95 -197 52 0 108 27 285 137 80 50 172 104 205 120 131 67 349 114 450 98 l50
-7 -83 -39 c-106 -49 -194 -111 -262 -186 -154 -169 -128 -344 59 -397 108
-30 232 -17 429 46 279 89 324 99 444 105 134 7 182 -1 378 -58 217 -62 332
-70 479 -33 70 18 161 62 168 81 13 32 -14 37 -109 20 -212 -38 -307 -31 -518
39 -181 59 -283 78 -388 70 -112 -8 -147 -17 -358 -86 -230 -76 -299 -92 -404
-93 -88 -2 -114 6 -157 46 -64 57 10 186 166 291 85 56 136 79 254 110 123 33
126 34 134 64 8 34 -6 53 -58 79 -72 36 -198 56 -314 50 -187 -10 -333 -62
-570 -207 -210 -127 -229 -139 -257 -145 -25 -6 -28 -4 -28 17 0 35 68 145
126 202 30 30 89 71 143 99 118 63 147 111 101 170 -40 50 -199 87 -305 71z"/>
<path d="M2563 2003 c-24 -9 -13 -42 24 -70 69 -53 126 -108 170 -166 34 -44
50 -57 67 -55 31 4 33 50 3 101 -32 54 -131 148 -185 176 -41 21 -56 24 -79
14z"/>
<path d="M4464 1927 c-162 -170 -313 -471 -317 -631 -2 -54 0 -61 17 -61 16 0
29 24 66 120 88 229 173 383 291 524 38 47 68 92 67 100 -2 9 -15 17 -29 19
-21 2 -39 -11 -95 -71z"/>
<path d="M8960 1881 c-30 -10 -104 -40 -165 -67 -109 -48 -111 -49 -215 -49
-103 0 -107 1 -210 47 -131 58 -176 70 -261 70 -112 0 -254 -55 -254 -97 0
-17 7 -20 40 -19 22 0 67 7 100 14 106 22 185 10 315 -48 228 -102 306 -98
580 25 79 35 92 38 175 38 84 -1 99 -4 230 -54 109 -41 157 -54 216 -58 118
-9 267 35 286 83 11 30 -11 33 -117 17 -133 -20 -208 -10 -351 47 -185 74
-265 85 -369 51z"/>
<path d="M775 1845 c-89 -20 -135 -42 -135 -64 0 -28 28 -33 102 -21 91 14
263 12 334 -5 34 -8 108 -33 165 -56 151 -60 224 -79 307 -79 81 0 112 11 112
39 0 24 -12 28 -117 41 -66 8 -122 25 -236 71 -82 33 -177 66 -211 74 -75 18
-241 18 -321 0z"/>
<path d="M5125 995 c-77 -18 -183 -62 -298 -124 -213 -115 -319 -141 -500
-121 -89 9 -122 9 -130 1 -37 -37 72 -81 218 -89 140 -6 223 16 444 122 216
103 254 116 357 123 103 7 164 -10 370 -106 375 -174 480 -174 910 4 172 70
256 88 388 83 111 -4 112 -5 291 -77 247 -100 320 -121 477 -136 85 -8 238 10
344 41 46 13 156 53 245 90 89 36 191 72 228 80 137 29 267 14 461 -51 199
-67 345 -81 482 -46 119 31 218 89 218 127 0 21 -47 16 -164 -19 -155 -47
-275 -36 -541 48 -294 93 -401 85 -740 -56 -226 -94 -272 -104 -460 -104 -193
0 -245 12 -499 115 -219 89 -283 104 -406 97 -113 -6 -178 -25 -400 -117 -225
-93 -264 -104 -385 -103 -121 1 -203 25 -400 116 -71 33 -161 71 -200 84 -88
30 -224 38 -310 18z"/>
<path d="M2174 940 c-64 -13 -127 -33 -264 -83 -161 -59 -243 -77 -338 -77
-93 0 -156 14 -338 76 -130 44 -147 48 -265 52 -106 4 -137 1 -203 -17 -92
-25 -136 -46 -136 -65 0 -30 24 -34 130 -19 175 24 257 14 477 -58 169 -55
199 -62 294 -66 132 -7 207 8 413 84 173 63 260 83 356 83 100 0 187 -21 450
-110 279 -94 381 -115 530 -106 168 9 291 43 399 108 63 38 82 61 64 79 -10
10 -40 4 -135 -28 -146 -49 -276 -68 -403 -59 -118 8 -218 33 -407 100 -270
96 -318 108 -458 112 -69 2 -144 -1 -166 -6z"/>
</g>
</svg>
