<?xml version="1.0" encoding="UTF-8" standalone="yes"?>
<svg version="1.0" xmlns="http://www.w3.org/2000/svg" width="1200.000000pt" height="400.000000pt" viewBox="0 0 1200.000000 400.000000" preserveAspectRatio="xMidYMid meet">
  <metadata>
Created by potrace 1.16, written by Peter Selinger 2001-2019
</metadata>
  <g transform="translate(0.000000,400.000000) scale(0.100000,-0.100000)" fill="#000000" stroke="none">
    <path d="M2 2003 l3 -1998 1785 0 1785 0 197 1960 c108 1078 197 1977 197&#xA;1998 l1 37 -1985 0 -1985 0 2 -1997z m3918 1940 c0 -27 -380 -3845 -386 -3871&#xA;l-4 -22 -1740 0 -1740 0 0 1955 0 1955 1935 0 c1836 0 1935 -1 1935 -17z"/>
    <path d="M1913 3590 c41 -53 87 -145 87 -177 0 -16 8 -24 28 -29 107 -24 192&#xA;-68 276 -144 l56 -52 -29 -33 c-33 -38 -57 -107 -65 -185 l-5 -55 15 65 c25&#xA;113 48 147 149 217 241 168 326 207 455 207 164 1 243 -75 417 -399 119 -222&#xA;155 -310 161 -385 6 -94 -15 -136 -130 -257 -57 -60 -113 -131 -143 -182 -83&#xA;-139 -198 -241 -340 -301 -51 -21 -75 -25 -165 -25 -94 0 -111 3 -161 27 -67&#xA;33 -125 89 -150 143 -23 50 -24 78 -3 139 20 58 14 180 -11 240 -22 52 -28 41&#xA;-9 -19 10 -33 14 -75 11 -125 -10 -192 -145 -324 -422 -413 -158 -51 -171 -52&#xA;-140 -11 33 43 12 32 -35 -19 -67 -74 -125 -101 -195 -94 -53 5 -110 30 -155&#xA;67 l-25 20 30 25 c37 31 36 31 81 0 54 -37 118 -35 167 6 44 36 61 68 111 209&#xA;49 141 47 138 86 110 l32 -23 -11 22 c-28 52 -131 80 -176 47 -16 -12 -13 -13&#xA;32 -9 28 3 53 1 56 -4 7 -12 -257 -241 -374 -325 -245 -174 -446 -211 -644&#xA;-118 -65 31 -162 112 -184 154 -13 23 -12 28 5 48 l19 22 -30 -21 c-43 -29&#xA;-69 -35 -98 -22 -35 16 -40 34 -26 90 10 40 10 50 -4 70 -28 38 -22 96 12 130&#xA;34 33 60 36 116 10 51 -23 98 -76 121 -137 26 -70 41 -91 75 -103 37 -13 80 1&#xA;131 40 52 41 87 37 148 -15 21 -17 20 -15 -4 11 -15 17 -41 37 -57 43 -16 7&#xA;-29 14 -29 16 0 1 9 18 20 37 32 54 96 62 176 22 62 -31 67 -31 24 0 -43 31&#xA;-102 48 -141 40 -36 -8 -36 -3 1 62 22 39 38 54 65 63 44 15 108 6 161 -20 47&#xA;-25 56 -19 12 8 -45 28 -113 44 -151 37 l-32 -6 40 35 c22 20 56 43 75 53 50&#xA;24 146 29 195 9 l40 -16 -25 20 c-30 23 -96 35 -150 26 l-38 -6 19 40 c46 94&#xA;46 195 0 251 -22 27 -68 30 -104 6 -35 -22 -68 -97 -74 -165 -6 -69 23 -150&#xA;57 -159 11 -3 20 -7 20 -10 0 -2 -25 -27 -54 -54 -51 -46 -116 -151 -116 -186&#xA;0 -23 -38 -14 -59 15 -31 45 -45 111 -31 161 14 52 64 111 95 111 13 0 27 5&#xA;30 10 3 6 7 88 9 183 3 156 5 179 29 250 52 149 147 265 304 368 155 101 309&#xA;145 481 135 71 -4 102 -2 102 5 0 38 -179 152 -255 163 -37 6 -36 5 13 -13 49&#xA;-17 185 -101 198 -122 3 -5 -41 -9 -98 -9 -193 0 -379 -68 -530 -191 -26 -22&#xA;-49 -39 -52 -39 -4 0 -57 49 -119 108 -64 62 -133 118 -161 131 -112 55 -247&#xA;31 -336 -58 -48 -48 -181 -260 -252 -403 -51 -101 -59 -158 -30 -214 25 -49&#xA;92 -117 147 -150 37 -21 44 -31 59 -86 40 -145 169 -268 297 -285 33 -5 45&#xA;-13 65 -44 13 -22 33 -45 44 -51 11 -7 20 -18 20 -25 0 -23 -65 -86 -107 -105&#xA;-68 -30 -97 -7 -133 106 -16 49 -85 120 -135 136 -120 40 -209 -54 -155 -164&#xA;16 -35 19 -49 11 -65 -19 -35 -13 -80 15 -108 21 -21 32 -25 64 -20 36 5 41 2&#xA;79 -43 52 -61 157 -132 241 -161 139 -47 314 -23 462 66 59 35 62 36 80 18 30&#xA;-31 11 -172 -52 -378 -97 -315 -110 -366 -115 -448 -9 -118 -9 -119 -73 -183&#xA;-60 -62 -90 -112 -99 -169 -7 -44 23 -73 109 -103 124 -44 277 -48 375 -11 21&#xA;8 24 7 18 -10 -16 -51 38 -92 166 -127 92 -25 303 -25 383 -1 133 41 173 73&#xA;185 144 6 33 10 37 70 58 35 13 73 33 84 44 19 18 20 24 9 71 -18 79 -18 79&#xA;34 69 25 -5 50 -11 55 -14 18 -12 8 -73 -21 -126 -34 -63 -47 -127 -31 -158&#xA;38 -71 275 -107 431 -66 78 20 155 60 181 93 25 32 24 67 -6 187 l-25 100 21&#xA;15 c53 38 104 89 133 131 30 45 33 47 56 33 35 -19 108 -17 155 5 69 31 144&#xA;136 145 202 0 14 10 34 21 45 78 69 76 205 -6 302 -22 27 -26 38 -21 67 4 20&#xA;3 35 -2 35 -16 0 -83 -80 -100 -119 -22 -51 -19 -146 7 -201 43 -94 23 -188&#xA;-49 -225 -37 -19 -63 -19 -100 0 l-30 16 0 113 c0 139 -22 233 -86 365 -57&#xA;119 -113 198 -202 283 l-70 68 34 21 c93 57 170 142 248 274 32 53 77 108 136&#xA;165 137 132 168 225 120 365 -28 81 -200 412 -266 512 -129 194 -272 251 -467&#xA;184 -81 -28 -123 -52 -246 -141 -103 -74 -115 -80 -124 -63 -36 67 -172 158&#xA;-284 189 -57 16 -63 20 -74 53 -15 49 -61 120 -100 156 -32 30 -32 30 4 -15z&#xA;m-997 -161 c44 -17 79 -42 153 -113 53 -51 107 -99 120 -108 l24 -17 -52 -61&#xA;c-28 -34 -55 -69 -59 -77 -8 -13 -12 -13 -39 0 -37 20 -75 64 -133 156 -49 80&#xA;-113 131 -164 131 -63 0 -172 -67 -217 -133 -16 -23 -7 -17 32 21 57 54 134&#xA;92 188 92 46 0 102 -50 168 -151 42 -65 74 -102 102 -119 22 -14 41 -28 41&#xA;-31 0 -4 -9 -27 -20 -53 -33 -74 -50 -186 -50 -335 l0 -137 -37 -17 c-61 -27&#xA;-103 -105 -103 -190 0 -36 -1 -37 -27 -31 -139 32 -250 140 -293 285 -17 58&#xA;-25 68 -52 80 -46 19 -143 120 -158 164 -23 71 -2 129 127 348 93 158 145 229&#xA;192 261 85 59 163 70 257 35z m353 -748 c15 -47 7 -101 -12 -82 -6 6 -19 11&#xA;-29 11 -37 0 -74 -96 -58 -151 11 -37 -12 -40 -36 -4 -43 66 -37 187 13 246&#xA;52 62 97 54 122 -20z m1071 -640 c0 -31 58 -109 107 -146 71 -52 166 -79 261&#xA;-73 43 3 104 15 136 27 71 25 78 22 164 -68 130 -136 225 -328 253 -510 25&#xA;-164 -28 -330 -137 -430 -31 -28 -59 -51 -64 -51 -4 0 -10 10 -13 22 -4 12 -9&#xA;20 -11 17 -7 -7 10 -116 36 -222 26 -106 21 -122 -53 -165 l-52 -30 -21 41&#xA;c-12 22 -28 45 -37 50 -26 16 -67 -1 -93 -39 l-25 -37 -14 34 c-28 67 -74 88&#xA;-130 60 -36 -18 -37 -18 -43 1 -7 25 -43 38 -71 27 -31 -12 -30 6 3 55 28 41&#xA;28 36 4 211 -16 110 -7 149 53 237 54 79 131 132 228 158 l74 20 -59 -5 c-33&#xA;-3 -80 -15 -104 -25 l-45 -20 19 21 c10 12 39 35 63 51 49 31 48 37 -2 12 -49&#xA;-26 -142 -119 -187 -190 -58 -88 -73 -141 -65 -236 l7 -77 -39 5 c-58 9 -157&#xA;34 -166 43 -14 14 46 135 93 187 42 47 127 190 118 199 -2 2 -23 -29 -48 -70&#xA;-24 -41 -53 -84 -66 -96 l-22 -21 24 66 c13 37 26 92 29 124 l5 57 -15 -64&#xA;c-8 -35 -31 -101 -51 -145 -19 -45 -58 -137 -86 -205 l-51 -125 6 -122 c7&#xA;-146 0 -160 -88 -193 -96 -36 -101 -36 -108 -4 -9 45 -44 83 -77 83 -21 0 -38&#xA;-11 -63 -40 l-35 -41 -6 34 c-14 76 -84 114 -146 80 l-37 -20 -12 28 c-14 33&#xA;-42 44 -71 29 -33 -17 -24 3 35 81 53 70 55 75 55 135 0 95 85 529 135 689 8&#xA;27 11 45 6 40 -16 -18 -69 -200 -97 -334 -18 -84 -32 -131 -40 -131 -19 0&#xA;-127 112 -168 175 -87 131 -120 241 -120 407 -1 64 2 119 5 123 3 3 26 -4 50&#xA;-15 84 -38 200 -22 260 36 18 18 49 30 100 40 221 45 427 152 478 247 15 28&#xA;31 27 31 -2z m-640 -94 c0 -15 -47 -87 -68 -104 -9 -7 -31 -13 -49 -13 -40 0&#xA;-42 14 -5 57 45 53 122 91 122 60z m1860 -552 l2 -30 9 30 c5 17 7 38 5 48 -4&#xA;15 -2 16 10 6 25 -21 46 -112 35 -158 -9 -43 -36 -91 -49 -91 -5 0 -13 12 -18&#xA;28 -8 22 -9 16 -6 -31 11 -147 -121 -283 -241 -247 -44 13 -52 26 -37 64 9 26&#xA;11 26 32 12 32 -23 106 -20 146 4 38 23 71 88 72 138 0 18 -11 65 -25 104 -30&#xA;86 -31 138 -4 197 35 79 42 81 56 15 7 -33 13 -72 13 -89z m-2151 45 c28 -151&#xA;153 -344 278 -431 22 -15 22 -16 7 -114 -8 -55 -12 -117 -9 -140 6 -37 3 -45&#xA;-45 -105 -29 -35 -59 -79 -68 -97 -14 -30 -53 -53 -88 -53 -7 0 -18 16 -23 36&#xA;-12 45 -38 74 -64 74 -10 0 -34 -15 -52 -33 l-34 -34 -16 44 c-11 29 -27 49&#xA;-48 59 -28 15 -33 15 -64 0 -33 -16 -34 -15 -45 9 -6 13 -20 25 -32 27 -18 3&#xA;-13 12 42 70 68 71 81 102 82 192 0 58 16 124 79 321 27 83 54 174 62 203 7&#xA;29 16 49 19 45 4 -5 12 -37 19 -73z m1004 -744 c10 -32 16 -64 13 -72 -6 -16&#xA;-82 -52 -130 -61 l-29 -6 5 94 c2 52 9 104 16 116 12 21 12 21 59 3 45 -17 49&#xA;-21 66 -74z m-1287 -52 c6 -25 0 -92 -10 -102 -3 -2 -17 3 -31 12 -29 19 -33&#xA;60 -9 94 20 29 42 28 50 -4z m119 -10 c24 -10 45 -58 45 -105 l0 -41 -37 7&#xA;c-21 3 -55 11 -75 17 -34 10 -38 15 -38 45 0 57 54 96 105 77z m189 -66 c9&#xA;-12 16 -35 16 -50 0 -24 -4 -27 -43 -33 -53 -8 -89 -4 -94 11 -2 6 10 29 27&#xA;52 35 48 69 56 94 20z m240 -60 c7 -19 5 -41 -5 -73 l-14 -46 -45 23 c-56 29&#xA;-65 64 -25 103 34 35 76 31 89 -7z m911 8 c12 -18 15 -36 10 -70 -4 -25 -10&#xA;-46 -14 -46 -17 2 -75 37 -84 51 -14 23 -1 64 25 77 35 16 46 14 63 -12z&#xA;m-779 -11 c39 -16 64 -62 64 -120 l0 -36 -47 6 c-27 3 -69 11 -95 17 -41 9&#xA;-48 13 -48 34 0 37 26 81 58 98 33 19 26 19 68 1z m916 4 c21 -11 57 -82 58&#xA;-111 0 -15 -9 -18 -54 -18 -29 0 -68 3 -85 6 -28 6 -31 10 -31 41 0 25 8 43&#xA;29 64 32 31 50 35 83 18z m208 -58 c11 -22 17 -42 12 -44 -15 -10 -133 -30&#xA;-139 -24 -8 9 15 61 38 86 32 34 65 27 89 -18z m-924 11 c14 -9 44 -67 44 -85&#xA;0 -15 -58 -27 -126 -27 -38 0 -41 7 -18 53 27 53 70 79 100 59z"/>
    <path d="M1845 1050 c-26 -6 -22 -8 23 -9 29 0 66 -8 82 -16 40 -21 38 -10 -2&#xA;15 -35 21 -53 23 -103 10z"/>
    <path d="M2710 991 c0 -4 18 -12 41 -18 22 -6 37 -7 32 -2 -13 13 -73 29 -73&#xA;20z"/>
    <path d="M1840 974 c14 -3 40 -9 59 -14 25 -7 31 -6 24 1 -6 6 -33 13 -60 15&#xA;-26 1 -37 1 -23 -2z"/>
    <path d="M2695 930 c17 -4 39 -11 50 -15 l20 -8 -20 16 c-11 9 -33 16 -50 16&#xA;l-30 -1 30 -8z"/>
    <path d="M1761 900 c9 -14 36 -36 62 -48 53 -27 111 -24 149 9 23 19 23 19&#xA;-14 4 -68 -27 -128 -16 -182 33 l-30 27 15 -25z"/>
    <path d="M2624 831 c4 -6 24 -15 44 -22 30 -9 45 -8 72 3 l35 15 -56 -5 c-34&#xA;-2 -65 1 -79 8 -14 7 -20 8 -16 1z"/>
    <path d="M1770 786 c0 -8 64 -44 90 -50 14 -4 1 7 -29 23 -55 32 -61 34 -61&#xA;27z"/>
    <path d="M1750 685 c0 -10 84 -45 105 -44 11 1 1 7 -21 14 -23 7 -51 18 -63&#xA;24 -11 7 -21 9 -21 6z"/>
    <path d="M2618 660 c31 -26 86 -40 147 -39 48 2 47 2 -18 10 -37 4 -87 17&#xA;-110 28 -40 19 -41 19 -19 1z"/>
    <path d="M1888 633 c7 -3 16 -2 19 1 4 3 -2 6 -13 5 -11 0 -14 -3 -6 -6z"/>
    <path d="M1320 1137 c7 -7 110 -46 110 -41 0 6 -54 31 -85 38 -16 4 -28 5 -25&#xA;3z"/>
    <path d="M1307 1083 c-3 -5 2 -9 11 -9 9 0 28 -4 42 -8 17 -6 22 -5 15 2 -14&#xA;15 -62 25 -68 15z"/>
    <path d="M1350 1010 c8 -5 22 -9 30 -9 10 0 8 3 -5 9 -27 12 -43 12 -25 0z"/>
    <path d="M1274 972 c34 -39 127 -46 160 -12 8 10 6 10 -11 1 -36 -18 -102 -13&#xA;-136 11 l-32 22 19 -22z"/>
    <path d="M1276 860 c6 -6 28 -13 50 -15 21 -2 30 -2 19 1 -11 3 -33 10 -50 15&#xA;-21 7 -26 6 -19 -1z"/>
    <path d="M1249 817 c20 -25 77 -47 118 -46 38 1 38 1 -10 9 -26 5 -64 18 -84&#xA;30 -22 13 -32 15 -24 7z"/>
    <path d="M2865 3281 c-123 -30 -216 -128 -379 -401 -66 -111 -71 -118 -111&#xA;-149 -28 -22 -29 -23 -5 -16 42 12 75 52 155 184 42 70 99 157 126 193 108&#xA;145 249 202 367 148 41 -19 140 -110 196 -180 32 -41 24 -21 -13 30 -50 71&#xA;-137 153 -186 176 -50 24 -94 28 -150 15z"/>
    <path d="M1764 3095 c-29 -29 -24 -45 13 -45 60 0 108 -24 164 -82 l57 -58 -9&#xA;41 c-12 54 -31 88 -66 121 -56 53 -120 62 -159 23z"/>
    <path d="M1199 3041 c-28 -24 -100 -131 -86 -131 2 0 24 20 50 45 47 44 110&#xA;71 141 59 20 -8 20 5 0 34 -21 31 -62 28 -105 -7z"/>
    <path d="M1736 2785 c-104 -36 -177 -189 -146 -305 11 -44 53 -100 74 -100 6&#xA;0 1 7 -11 15 -12 8 -29 35 -39 60 -46 122 40 297 154 312 51 7 95 -29 111 -91&#xA;15 -60 15 -74 -1 -58 -38 38 -109 -7 -129 -81 -11 -43 -4 -122 12 -132 15 -10&#xA;11 -23 -8 -28 -15 -4 -14 -5 3 -6 11 0 58 18 103 40 46 23 97 45 114 49 32 8&#xA;32 8 4 9 -15 1 -44 -6 -64 -14 -20 -8 -37 -14 -39 -13 -1 2 6 28 16 58 61 176&#xA;-23 331 -154 285z"/>
    <path d="M486 2124 c-4 -9 3 -33 14 -52 14 -23 19 -44 15 -61 l-5 -26 25 28&#xA;c28 32 32 72 9 105 -18 26 -49 29 -58 6z m44 -42 c0 -15 -2 -15 -10 -2 -13 20&#xA;-13 33 0 25 6 -3 10 -14 10 -23z"/>
    <path d="M4030 3987 c0 -8 -90 -903 -200 -1990 -110 -1086 -200 -1980 -200&#xA;-1986 0 -13 4323 -11 4336 1 4 4 98 902 210 1995 112 1094 204 1989 204 1991&#xA;0 1 -979 2 -2175 2 -1818 0 -2175 -2 -2175 -13z m4293 -24 c5 -7 -390 -3903&#xA;-396 -3909 -1 -1 -958 -6 -2125 -10 l-2124 -7 7 69 c4 38 93 920 199 1959&#xA;l191 1890 1845 5 c1015 3 1970 6 2122 8 152 1 279 -1 281 -5z"/>
    <path d="M7472 3790 c-18 -7 -52 -69 -139 -247 -63 -131 -117 -239 -118 -241&#xA;-2 -2 -34 27 -72 65 -108 109 -200 142 -322 117 -87 -18 -165 -59 -286 -149&#xA;-55 -41 -109 -78 -120 -80 -15 -4 -37 11 -86 59 -68 66 -151 115 -229 136 -25&#xA;6 -53 13 -62 16 -9 3 -23 26 -32 51 -23 68 -62 129 -99 154 l-32 23 36 -44&#xA;c20 -25 43 -59 52 -75 19 -38 32 -105 20 -105 -5 0 -31 26 -59 58 -56 63 -124&#xA;105 -197 122 -45 10 -97 5 -97 -9 0 -3 36 -19 80 -34 77 -27 171 -81 177 -102&#xA;2 -6 -38 -10 -105 -11 -177 -1 -340 -63 -528 -203 -30 -21 -33 -22 -61 -7 -16&#xA;8 -66 55 -111 103 -101 112 -157 144 -257 151 -58 4 -81 0 -119 -17 -107 -47&#xA;-148 -96 -285 -336 -131 -230 -143 -279 -90 -384 32 -63 71 -101 143 -136 36&#xA;-18 42 -25 48 -65 11 -65 56 -147 105 -189 55 -49 148 -98 198 -105 l40 -6&#xA;-40 14 c-67 23 -138 68 -190 121 -56 55 -80 99 -98 176 -11 46 -17 53 -57 74&#xA;-96 50 -150 127 -150 215 0 39 10 71 40 136 26 53 45 82 52 78 6 -4 8 -3 5 3&#xA;-8 12 79 177 130 245 79 109 185 168 276 154 63 -10 137 -49 177 -92 32 -36&#xA;32 -37 4 -11 l-32 29 -21 -23 c-11 -12 -19 -25 -16 -28 2 -4 -1 -13 -7 -21 -8&#xA;-12 -9 -12 -4 3 7 21 -12 23 -20 2 -4 -8 -10 -12 -16 -9 -5 3 -4 11 3 20 6 8&#xA;8 14 4 14 -4 0 -13 -7 -20 -16 -10 -15 -14 -15 -46 1 -107 56 -186 27 -289&#xA;-103 -56 -70 -46 -76 12 -9 25 29 67 64 92 78 42 21 49 22 59 9 7 -9 19 -14&#xA;29 -12 9 2 19 -2 23 -7 3 -6 15 -11 25 -11 13 0 18 -5 13 -15 -5 -13 -2 -14&#xA;21 -4 25 12 26 12 6 26 -11 8 -24 12 -29 8 -5 -3 -16 1 -24 10 -8 8 -24 12&#xA;-36 10 -12 -2 -21 0 -21 6 0 13 44 11 58 -3 7 -7 12 -9 12 -5 0 4 13 1 29 -8&#xA;38 -19 85 -80 75 -96 -4 -8 -3 -9 4 -5 6 4 17 -5 26 -21 8 -15 29 -48 47 -73&#xA;19 -25 34 -49 34 -54 0 -5 8 -10 18 -12 10 -1 24 -8 32 -14 12 -10 12 -15 0&#xA;-34 -33 -49 -55 -175 -55 -307 l0 -128 -54 -60 c-59 -67 -82 -125 -79 -204 3&#xA;-54 30 -123 62 -151 11 -11 21 -25 21 -31 0 -19 -76 -84 -106 -91 -31 -8 -69&#xA;17 -99 65 -89 142 -132 181 -212 188 -42 5 -53 1 -81 -22 -54 -45 -62 -117&#xA;-20 -177 15 -21 17 -32 8 -47 -28 -53 5 -103 70 -107 35 -1 47 -7 63 -30 35&#xA;-50 110 -124 158 -154 80 -52 153 -73 259 -73 126 -1 229 31 337 104 23 16 46&#xA;29 52 29 6 0 11 -21 11 -49 0 -116 -39 -308 -100 -486 -43 -125 -58 -197 -70&#xA;-327 -6 -62 -13 -122 -17 -133 -3 -11 -34 -50 -69 -87 -47 -50 -67 -81 -80&#xA;-122 -16 -51 -16 -56 0 -80 21 -34 99 -72 183 -92 53 -12 95 -15 184 -10 l116&#xA;7 12 -29 c28 -67 224 -125 396 -117 134 7 285 63 314 118 7 14 14 44 15 66 1&#xA;43 11 51 69 51 37 0 83 25 98 51 10 20 6 89 -8 125 -4 11 6 14 44 14 48 0 49&#xA;0 64 -42 15 -43 15 -43 -23 -101 -36 -57 -56 -131 -44 -162 19 -51 170 -90&#xA;320 -83 156 8 279 57 312 126 17 36 16 47 -18 183 l-22 87 66 63 c36 35 77 88&#xA;92 116 24 49 28 52 52 43 40 -16 115 -11 160 9 56 25 108 90 128 159 10 31 22&#xA;66 29 77 62 108 66 130 41 216 -9 30 -20 74 -23 99 l-7 45 -20 -32 c-36 -61&#xA;-45 -30 -20 67 8 30 12 57 9 60 -7 8 -52 -50 -74 -95 -10 -22 -19 -62 -19 -90&#xA;l-1 -50 -19 35 -19 35 -1 -52 c0 -40 8 -66 36 -119 45 -85 48 -133 11 -191&#xA;-15 -23 -35 -47 -46 -53 -35 -18 -87 -12 -119 15 -29 24 -29 27 -35 142 -6&#xA;141 -38 260 -99 373 -50 95 -125 195 -184 250 -38 35 -44 44 -31 51 84 47 189&#xA;168 254 291 27 51 65 98 143 177 125 124 147 169 135 269 -11 87 -50 199 -98&#xA;282 -25 41 -47 85 -51 97 -5 16 9 66 47 165 115 299 177 477 177 511 0 54 -56&#xA;88 -108 67z m22 -36 c13 -5 12 -12 -8 -52 -32 -64 -262 -570 -321 -707 -26&#xA;-60 -53 -123 -60 -140 -7 -16 -36 -81 -64 -144 -28 -63 -48 -118 -44 -124 3&#xA;-6 1 -7 -5 -3 -10 6 -18 -8 -9 -17 1 -1 -8 -13 -19 -25 -12 -13 -34 -52 -49&#xA;-88 -16 -36 -33 -64 -42 -64 -8 0 -12 3 -10 8 2 4 12 25 21 47 25 55 56 122&#xA;110 237 25 54 46 99 46 102 0 2 15 37 34 78 18 40 43 98 54 129 11 31 55 127&#xA;96 214 42 86 76 158 76 160 0 2 18 41 39 87 110 234 131 282 131 294 0 16 2&#xA;16 24 8z m-1684 -159 c27 -13 51 -29 54 -34 5 -7 -97 43 -113 56 -14 10 16 0&#xA;59 -22z m91 -62 c13 -16 12 -17 -3 -4 -10 7 -18 15 -18 17 0 8 8 3 21 -13z&#xA;m59 -77 c25 -8 61 -17 82 -20 29 -5 38 -13 47 -37 6 -19 15 -28 22 -23 8 5 9&#xA;2 1 -12 -6 -11 -7 -27 -1 -41 9 -24 0 -30 -17 -13 -6 6 -14 3 -22 -10 -7 -11&#xA;-8 -20 -3 -20 6 0 13 5 16 10 4 6 11 8 16 4 5 -3 20 1 33 9 19 13 23 13 23 1&#xA;0 -8 -4 -14 -8 -14 -4 0 -5 -9 -2 -20 4 -16 2 -19 -12 -13 -14 5 -16 3 -10 -7&#xA;6 -10 4 -12 -9 -7 -10 4 -15 3 -11 -3 3 -5 -4 -14 -15 -20 -11 -6 -20 -15 -20&#xA;-21 0 -6 7 -3 16 5 25 25 40 18 16 -7 -17 -18 -19 -26 -10 -35 9 -9 8 -12 -4&#xA;-12 -9 0 -19 -4 -22 -9 -4 -5 3 -7 14 -4 12 3 20 0 20 -6 0 -7 -5 -9 -12 -5&#xA;-8 5 -9 2 -5 -9 4 -12 1 -17 -10 -17 -9 0 -13 -3 -10 -7 4 -3 2 -12 -5 -20 -8&#xA;-10 -8 -12 4 -8 9 4 18 -1 22 -10 3 -10 2 -14 -5 -10 -7 5 -8 -5 -4 -28 4 -21&#xA;3 -37 -4 -42 -6 -3 -8 -12 -4 -18 3 -7 -3 -4 -14 6 -16 14 -23 15 -29 6 -4 -7&#xA;-3 -10 4 -5 6 3 16 -3 22 -15 9 -15 15 -18 23 -10 6 6 15 11 20 11 10 0 -12&#xA;-21 -38 -36 -11 -6 -22 -22 -25 -35 -9 -36 -16 -5 -15 68 0 33 -3 59 -6 58 -3&#xA;-2 -11 17 -17 41 -8 29 -28 62 -55 91 -36 37 -51 46 -88 50 -41 5 -50 2 -82&#xA;-27 -49 -43 -47 -55 11 -56 91 -1 197 -85 200 -159 1 -27 -3 -35 -16 -36 -11&#xA;0 -12 -2 -4 -6 19 -7 42 16 35 35 -3 9 -3 14 1 11 11 -11 15 -49 5 -49 -6 0&#xA;-8 -4 -4 -9 3 -5 1 -12 -5 -16 -6 -4 -8 -10 -6 -14 3 -4 0 -13 -5 -21 -7 -12&#xA;-8 -11 -6 5 1 11 6 26 10 33 5 7 3 12 -6 12 -8 0 -17 -14 -21 -31 -3 -19 -10&#xA;-28 -17 -23 -8 4 -8 1 -1 -13 15 -27 8 -58 -12 -57 -16 2 -16 0 1 -18 13 -14&#xA;14 -19 3 -16 -8 2 -22 19 -31 38 -9 19 -26 43 -37 53 -11 11 -19 24 -18 30 2&#xA;7 1 9 -1 5 -3 -5 -22 -5 -42 -2 -54 9 -122 -23 -159 -75 -16 -22 -32 -38 -35&#xA;-35 -3 3 -5 -1 -4 -8 2 -21 -15 -88 -22 -88 -3 0 -4 -27 -3 -60 3 -55 2 -60&#xA;-15 -54 -14 5 -15 4 -3 -4 8 -6 17 -9 20 -7 4 2 17 -17 29 -44 13 -26 28 -48&#xA;34 -49 30 -5 99 -10 77 -6 -75 14 -114 72 -113 170 1 76 27 137 80 185 48 44&#xA;91 56 130 37 32 -15 73 -88 73 -130 0 -27 0 -27 -33 -13 -26 11 -38 11 -58 2&#xA;-52 -26 -75 -126 -43 -188 12 -24 13 -34 3 -45 -25 -30 1 -24 58 14 78 54 214&#xA;95 229 70 4 -6 3 -9 -2 -6 -5 3 -18 2 -29 -3 -14 -6 -9 -7 18 -4 29 4 37 2 32&#xA;-7 -4 -7 0 -5 8 5 18 21 29 22 25 1 -2 -10 5 -18 15 -19 20 -4 22 6 5 23 -9 9&#xA;-9 12 1 12 7 0 9 5 6 11 -4 6 2 5 13 -2 12 -7 19 -16 16 -20 -2 -4 4 -12 13&#xA;-18 10 -6 13 -11 6 -11 -6 0 -9 -9 -6 -21 5 -19 4 -20 -15 -10 -18 9 -21 9&#xA;-16 -3 3 -8 0 -17 -6 -21 -6 -3 -9 -3 -8 2 2 4 0 9 -4 11 -5 1 -9 -1 -10 -5&#xA;-5 -19 -24 -31 -35 -21 -8 6 -10 4 -7 -9 3 -11 -5 -30 -21 -47 -21 -22 -31&#xA;-26 -55 -21 -20 4 -30 3 -30 -5 0 -7 -7 -10 -15 -6 -8 3 -15 2 -15 -2 0 -4 -9&#xA;-8 -19 -9 -14 -1 -18 3 -14 15 4 14 3 14 -5 3 -6 -8 -8 -21 -4 -30 3 -9 2 -13&#xA;-3 -9 -4 4 -15 2 -23 -5 -12 -10 -14 -9 -10 3 2 8 0 20 -6 26 -8 8 -15 5 -29&#xA;-12 -19 -25 -57 -33 -57 -13 0 6 -7 9 -15 5 -14 -5 -20 5 -16 27 1 5 -3 6 -9&#xA;2 -6 -3 -8 -11 -5 -16 4 -5 2 -9 -4 -9 -18 0 -21 17 -6 30 14 12 12 30 -3 30&#xA;-4 0 -20 -11 -35 -25 -20 -19 -27 -22 -27 -10 0 23 -18 18 -23 -7 -3 -19 -5&#xA;-17 -6 6 -1 24 -15 31 -16 8 0 -4 -9 -19 -19 -35 -13 -19 -24 -26 -37 -22 -11&#xA;4 -19 2 -19 -5 0 -6 -6 -10 -12 -7 -13 4 -48 -28 -48 -44 0 -4 -9 -10 -19 -14&#xA;-10 -3 -21 -15 -24 -27 -4 -13 -11 -19 -20 -15 -8 3 -24 -5 -37 -20 -12 -14&#xA;-28 -22 -36 -19 -8 3 -14 1 -14 -3 0 -5 6 -12 13 -14 6 -3 -1 -6 -18 -6 -16 0&#xA;-37 4 -45 10 -12 8 -9 9 10 4 22 -5 23 -5 6 6 -10 6 -32 27 -49 46 -16 19 -42&#xA;40 -57 48 -41 21 -104 29 -129 16 -32 -17 -27 7 12 65 25 38 40 50 71 58 52&#xA;12 130 -7 192 -45 44 -29 47 -29 32 -7 -26 40 -119 81 -185 81 l-57 0 48 43&#xA;c82 75 176 90 268 43 53 -27 48 -5 -7 26 -37 22 -54 26 -104 23 -56 -3 -58 -2&#xA;-45 17 27 41 37 122 24 190 -19 101 -72 140 -134 100 -29 -19 -66 -101 -66&#xA;-145 0 -23 -5 -33 -20 -37 -11 -3 -17 -9 -14 -15 3 -5 12 -4 20 3 12 10 14 4&#xA;14 -35 0 -43 -6 -51 -32 -47 -5 0 -8 -4 -8 -9 0 -6 8 -11 18 -11 16 -1 16 -2&#xA;0 -6 -22 -6 -24 -23 -2 -23 9 0 12 -5 8 -12 -4 -6 -3 -8 4 -4 6 3 17 -2 24&#xA;-13 10 -14 18 -17 28 -11 12 8 12 14 -3 45 -22 46 -22 155 -1 218 17 52 57 90&#xA;88 85 26 -4 53 -51 62 -107 6 -40 6 -43 -12 -33 -57 30 -115 -61 -92 -144 9&#xA;-34 8 -36 -43 -82 -29 -26 -58 -46 -63 -44 -6 2 -8 0 -4 -3 10 -10 -11 -47&#xA;-22 -40 -6 4 -7 -1 -3 -11 5 -14 3 -16 -11 -11 -13 5 -17 3 -13 -6 4 -11 -4&#xA;-13 -34 -11 -22 2 -45 6 -51 10 -5 4 -15 0 -20 -7 -6 -9 -8 8 -5 52 5 71 29&#xA;119 80 159 46 36 51 56 53 205 2 160 16 222 70 326 102 194 354 359 609 398&#xA;73 12 184 6 245 -13z m1057 -26 c42 -21 80 -51 118 -92 30 -34 55 -65 55 -70&#xA;0 -4 -30 -70 -66 -145 -144 -302 -263 -563 -295 -648 -18 -49 -39 -97 -46&#xA;-106 -8 -9 -15 -27 -17 -40 -1 -13 -7 -33 -13 -44 -6 -11 -18 -45 -28 -75 -37&#xA;-116 -57 -160 -67 -154 -7 5 -8 2 -3 -6 4 -6 2 -30 -5 -51 -10 -29 -16 -36&#xA;-26 -28 -14 11 -29 -4 -19 -21 3 -5 -6 -12 -20 -16 -13 -3 -22 -10 -19 -15 3&#xA;-5 -6 -4 -19 2 -25 11 -28 23 -13 47 4 7 3 19 -4 27 -7 8 -10 24 -7 35 7 27&#xA;-2 25 -12 -2 l-8 -22 -13 24 c-7 14 -9 22 -5 17 10 -8 39 53 30 62 -4 3 -9 1&#xA;-13 -4 -15 -21 -28 -12 -29 21 -1 21 3 32 10 27 6 -4 7 -1 1 8 -12 19 -13 61&#xA;-2 76 13 16 19 115 7 108 -5 -4 -9 -1 -9 4 0 6 7 11 15 11 8 0 17 12 21 28 3&#xA;15 10 37 16 48 5 12 8 30 6 40 -4 17 -6 16 -16 -6 -10 -25 -10 -25 -10 6 1 25&#xA;5 30 19 27 12 -4 25 8 45 43 26 44 42 110 24 99 -4 -2 -15 4 -25 15 -20 22&#xA;-35 26 -35 9 0 -5 4 -8 9 -5 4 3 19 -6 32 -20 21 -22 21 -24 4 -18 -16 6 -18&#xA;5 -7 -7 6 -7 12 -18 12 -24 0 -5 -4 -4 -9 4 -7 11 -13 12 -23 4 -25 -19 -48&#xA;-23 -48 -8 0 8 8 12 20 10 11 -2 22 1 26 6 3 5 2 9 -3 8 -23 -4 -35 2 -29 16&#xA;3 8 1 15 -4 15 -6 0 -10 -7 -10 -15 0 -8 -4 -15 -10 -15 -5 0 -10 5 -10 10 0&#xA;6 -7 10 -15 10 -8 0 -15 -5 -15 -12 0 -6 -3 -8 -6 -5 -4 4 -2 13 5 21 9 11 8&#xA;14 -5 12 -9 0 -19 4 -21 11 -3 8 6 10 29 7 29 -5 36 -2 45 19 13 28 6 42 -12&#xA;27 -9 -8 -14 -5 -17 8 -5 17 0 19 34 19 22 0 44 5 50 11 6 6 -5 8 -36 5 -58&#xA;-7 -100 3 -92 22 3 8 1 15 -5 15 -6 0 -8 -13 -5 -30 2 -16 0 -30 -5 -30 -5 0&#xA;-9 11 -9 25 0 14 -6 25 -13 25 -23 0 -26 -10 -11 -45 12 -29 12 -34 -1 -39&#xA;-10 -3 -16 1 -16 14 -1 11 -2 26 -3 33 -1 6 -5 15 -9 18 -4 3 -3 19 3 35 6 16&#xA;8 25 4 21 -4 -4 -12 -3 -18 3 -8 6 -12 2 -13 -13 -2 -17 0 -19 7 -7 8 13 10&#xA;13 10 -2 0 -9 -5 -20 -11 -24 -6 -3 -8 -17 -5 -30 4 -14 2 -24 -4 -24 -5 0&#xA;-10 -5 -10 -11 0 -5 3 -8 8 -6 4 3 7 -6 7 -19 0 -41 -11 -27 -29 39 -31 109&#xA;-28 293 6 374 6 15 11 31 10 36 -1 4 2 7 7 7 6 0 16 12 23 27 13 27 19 32 78&#xA;58 19 8 78 47 130 86 139 104 260 154 350 144 25 -3 73 -19 107 -35z m-868&#xA;-30 c9 -5 3 -7 -17 -7 -17 1 -34 8 -37 15 -5 14 22 10 54 -8z m21 -48 c-6 -2&#xA;-8 -8 -4 -13 3 -5 -2 -9 -10 -9 -9 0 -16 -4 -16 -10 0 -5 -5 -10 -10 -10 -7 0&#xA;-7 6 0 19 13 25 13 34 0 26 -5 -3 -7 0 -4 8 4 12 10 12 29 3 14 -6 20 -13 15&#xA;-14z m-1252 -37 c-3 -3 -9 2 -12 12 -6 14 -5 15 5 6 7 -7 10 -15 7 -18z m1236&#xA;-183 c3 -5 -1 -9 -9 -9 -8 0 -12 4 -9 9 3 4 7 8 9 8 2 0 6 -4 9 -8z m-33 -35&#xA;c-13 -13 -26 -3 -16 12 3 6 11 8 17 5 6 -4 6 -10 -1 -17z m12 -22 c-3 -9 -8&#xA;-14 -10 -11 -3 3 -2 9 2 15 9 16 15 13 8 -4z m998 -28 c-10 -9 -11 -8 -5 6 3&#xA;10 9 15 12 12 3 -3 0 -11 -7 -18z m-1024 -32 c0 -8 -4 -15 -9 -15 -10 0 -11&#xA;14 -1 23 9 10 10 9 10 -8z m-82 -185 c3 -6 -1 -7 -9 -4 -18 7 -21 14 -7 14 6&#xA;0 13 -4 16 -10z m1256 -105 c29 -51 31 -155 4 -185 -11 -12 -13 -20 -6 -20 11&#xA;0 21 19 35 63 5 15 9 16 27 7 19 -11 19 -13 4 -24 -15 -11 -14 -12 3 -12 15 0&#xA;19 6 16 20 -2 11 -9 23 -16 27 -7 4 -10 10 -7 14 3 3 16 -4 29 -15 12 -11 26&#xA;-17 31 -15 9 6 6 -36 -5 -53 -4 -7 -2 -12 3 -12 6 0 12 3 12 8 7 41 10 60 12&#xA;74 1 12 5 14 19 7 10 -6 15 -16 12 -27 -5 -14 -4 -14 4 -2 6 8 7 20 4 27 -11&#xA;19 -2 99 9 82 26 -41 -3 -154 -52 -207 -26 -28 -33 -31 -47 -20 -14 10 -15 10&#xA;-4 -2 10 -12 0 -25 -55 -79 -38 -36 -72 -64 -76 -63 -5 1 -6 -2 -3 -7 7 -11&#xA;-60 -134 -109 -200 -68 -93 -165 -166 -240 -180 l-43 -8 56 113 c31 62 60 111&#xA;64 108 4 -3 6 1 3 8 -3 7 4 27 15 43 30 46 33 52 90 172 30 62 57 110 62 107&#xA;4 -3 5 2 2 11 -4 8 -2 21 3 28 6 6 23 45 38 85 16 39 30 72 33 72 2 0 1 -7 -2&#xA;-16 -3 -8 -2 -12 4 -9 6 3 10 13 10 21 0 9 5 12 12 8 7 -4 8 -3 4 5 -4 6 -12&#xA;9 -17 6 -12 -8 -11 -5 2 34 6 17 15 31 20 31 4 0 6 8 2 18 -9 27 12 3 38 -43z&#xA;m-811 6 c0 -5 -7 -11 -15 -15 -15 -5 -20 5 -8 17 9 10 23 9 23 -2z m29 -28&#xA;c-7 -10 -14 -19 -15 -21 -1 -1 -7 5 -15 15 -12 15 -12 16 3 10 10 -3 20 -2 23&#xA;3 4 6 9 10 12 10 3 0 -1 -8 -8 -17z m-572 -75 c-2 -18 -4 -6 -4 27 0 33 2 48&#xA;4 33 2 -15 2 -42 0 -60z m498 72 c3 -5 1 -10 -4 -10 -6 0 -11 5 -11 10 0 6 2&#xA;10 4 10 3 0 8 -4 11 -10z m-65 -60 c0 -5 -2 -10 -4 -10 -3 0 -8 5 -11 10 -3 6&#xA;-1 10 4 10 6 0 11 -4 11 -10z m24 -22 c-5 -8 -1 -9 12 -4 14 5 16 4 7 -5 -13&#xA;-13 -37 -3 -28 12 4 5 8 9 11 9 3 0 2 -5 -2 -12z m103 -18 c-2 -29 -17 -24&#xA;-17 6 0 14 4 23 9 19 6 -3 9 -14 8 -25z m-59 -2 c0 -7 3 -24 7 -38 5 -24 5&#xA;-24 -4 -2 -6 12 -13 22 -16 22 -4 0 -3 -4 0 -10 3 -5 2 -10 -3 -10 -19 0 -21&#xA;14 -5 32 19 21 19 21 21 6z m979 6 c-3 -3 -12 -4 -19 -1 -8 3 -5 6 6 6 11 1&#xA;17 -2 13 -5z m-834 -43 c-4 -3 -11 -10 -15 -15 -5 -5 -8 0 -8 12 0 15 4 20 16&#xA;15 9 -3 12 -9 7 -12z m-62 -14 c-10 -9 -11 -8 -5 6 3 10 9 15 12 12 3 -3 0&#xA;-11 -7 -18z m-1400 -34 c13 -16 12 -17 -3 -4 -17 13 -22 21 -14 21 2 0 10 -8&#xA;17 -17z m1316 1 c-3 -3 -12 -4 -19 -1 -8 3 -5 6 6 6 11 1 17 -2 13 -5z m-40&#xA;-46 c-3 -8 -6 -5 -6 6 -1 11 2 17 5 13 3 -3 4 -12 1 -19z m-287 -103 c0 -8 -7&#xA;-15 -15 -15 -8 0 -15 5 -15 11 0 5 5 7 10 4 6 -3 10 -1 10 4 0 6 2 11 5 11 3&#xA;0 5 -7 5 -15z m814 -30 c39 -19 47 -48 19 -64 -15 -8 -16 -12 -5 -23 11 -11&#xA;16 -9 32 12 11 14 18 31 15 38 -3 7 0 10 5 7 16 -10 11 -38 -11 -64 -20 -24&#xA;-20 -24 -42 -4 -26 23 -71 43 -95 43 -10 0 -5 -7 14 -16 17 -8 46 -27 64 -42&#xA;l32 -27 -77 -154 c-42 -84 -77 -151 -79 -149 -1 1 -8 12 -16 23 -8 11 -11 17&#xA;-6 13 9 -7 157 273 150 284 -3 4 -11 5 -19 2 -8 -4 -13 -10 -10 -14 3 -4 -2&#xA;-11 -11 -14 -8 -3 -12 -10 -9 -16 3 -5 2 -10 -4 -10 -6 0 -7 -7 -4 -17 4 -11&#xA;3 -14 -5 -9 -7 4 -14 -4 -18 -20 -4 -15 -17 -42 -28 -59 -12 -17 -30 -50 -40&#xA;-73 -18 -40 -21 -42 -50 -36 -17 4 -37 7 -43 7 -7 0 -13 1 -13 3 0 8 100 276&#xA;112 300 8 16 20 28 26 27 9 -2 9 3 0 22 -25 55 33 69 116 30z m-1077 -35 c-1&#xA;-11 -7 -20 -14 -20 -11 0 -11 5 -3 20 6 11 13 20 15 20 2 0 3 -9 2 -20z m653&#xA;16 c0 -3 -4 -8 -10 -11 -5 -3 -10 -1 -10 4 0 6 5 11 10 11 6 0 10 -2 10 -4z&#xA;m-1881 -44 c14 -10 38 -35 55 -56 25 -30 28 -39 16 -46 -11 -7 -8 -11 13 -19&#xA;31 -12 35 -19 10 -17 -27 2 -42 21 -37 44 3 11 1 23 -5 26 -6 4 -12 1 -12 -6&#xA;-1 -7 -2 -17 -4 -23 -1 -5 -3 -16 -3 -23 -3 -17 -42 7 -42 26 0 7 -5 10 -10 7&#xA;-8 -5 -7 -11 1 -21 14 -17 -2 -19 -18 -3 -9 9 -10 6 -6 -12 3 -13 -5 -4 -19&#xA;20 -33 61 -51 70 -89 48 l-31 -17 7 27 c8 35 41 71 69 75 29 5 76 -8 105 -30z&#xA;m530 -62 c40 -11 98 -49 106 -69 3 -8 0 -11 -9 -8 -11 4 -13 1 -9 -10 5 -13 2&#xA;-15 -15 -11 -14 4 -20 2 -16 -4 4 -6 -2 -8 -17 -3 -23 7 -24 7 -4 -9 l20 -15&#xA;-20 -1 c-11 0 -27 -5 -35 -10 -13 -9 -13 -11 0 -20 12 -7 10 -9 -7 -7 -12 0&#xA;-20 4 -18 7 6 10 -87 67 -122 74 l-32 7 21 36 c31 51 81 65 157 43z m-515 -76&#xA;c3 -8 2 -12 -4 -9 -6 3 -10 10 -10 16 0 14 7 11 14 -7z m632 -31 c-2 -2 -8 -5&#xA;-13 -5 -4 0 -17 -4 -28 -10 -14 -6 -13 -3 5 11 13 10 28 17 33 14 5 -3 6 -7 3&#xA;-10z m-193 -40 c20 -14 37 -29 37 -34 0 -11 -36 -30 -43 -23 -3 3 -17 7 -31 8&#xA;-20 3 -30 -3 -40 -23 -15 -28 -22 -28 -46 -1 -15 16 -45 17 -35 0 6 -10 -15&#xA;-8 -32 3 -6 4 -15 2 -18 -4 -4 -5 -13 -8 -20 -5 -10 3 -12 -2 -10 -17 4 -21 4&#xA;-21 -10 -3 -8 10 -12 23 -9 28 3 5 2 8 -3 7 -24 -4 -43 3 -43 17 0 8 -4 13 -9&#xA;10 -5 -3 -11 3 -14 14 -3 11 -1 18 3 15 5 -3 11 -1 15 5 4 7 12 7 25 0 41 -22&#xA;117 -5 149 33 16 20 83 5 134 -30z m-584 10 c-12 -15 -12 -16 3 -10 12 4 16 1&#xA;15 -14 -1 -10 -7 -19 -15 -19 -7 0 -10 -5 -6 -12 4 -7 3 -8 -4 -4 -16 9 -15&#xA;59 0 74 17 17 23 5 7 -15z m266 18 c3 -5 1 -12 -5 -16 -5 -3 -10 1 -10 9 0 18&#xA;6 21 15 7z m1755 -15 c0 -3 -4 -8 -10 -11 -5 -3 -10 -1 -10 4 0 6 5 11 10 11&#xA;6 0 10 -2 10 -4z m-825 -97 c-16 -29 -17 -30 -31 -12 -14 17 -14 16 -4 -5 13&#xA;-27 -4 -57 -27 -48 -8 3 -11 2 -8 -3 3 -5 1 -12 -4 -15 -5 -4 -13 -1 -17 5 -4&#xA;8 -9 7 -15 -2 -6 -11 -9 -10 -15 4 -12 33 71 98 95 74 9 -9 13 -6 17 11 4 12&#xA;10 22 15 22 5 0 2 -14 -6 -31z m850 -9 c-5 -8 -11 -8 -21 1 -12 10 -12 14 -2&#xA;20 16 10 33 -5 23 -21z m-1665 -5 c-7 -9 -15 -13 -17 -11 -6 6 20 36 26 30 2&#xA;-2 -2 -10 -9 -19z m1646 -16 c3 -6 -5 -3 -20 6 -14 10 -26 19 -26 22 0 7 39&#xA;-17 46 -28z m220 -31 c30 -24 53 -49 54 -59 0 -4 -21 4 -47 17 -25 13 -59 24&#xA;-75 24 -26 0 -28 2 -18 20 14 26 50 25 86 -2z m-106 -13 c0 -7 -30 -13 -34 -7&#xA;-3 4 4 9 15 9 10 1 19 0 19 -2z m-137 -232 l-6 -37 25 25 c14 13 23 29 20 34&#xA;-3 6 4 1 16 -9 12 -11 22 -28 22 -39 0 -24 -46 -87 -64 -87 -7 0 -23 -9 -36&#xA;-20 -13 -11 -24 -20 -26 -20 -2 0 3 17 10 38 7 20 16 55 20 77 8 48 16 75 21&#xA;75 2 0 1 -17 -2 -37z m-453 -67 c0 -2 -6 -9 -14 -15 -11 -9 -16 -9 -22 0 -4 7&#xA;-3 9 4 5 6 -3 13 -2 17 4 6 10 15 14 15 6z m43 -31 c-3 -9 -8 -14 -10 -11 -3&#xA;3 -2 9 2 15 9 16 15 13 8 -4z m-71 -34 c3 8 9 10 14 6 4 -4 3 -17 -4 -27 -8&#xA;-13 -9 -20 -1 -20 5 0 8 -4 5 -9 -3 -5 0 -11 8 -14 10 -4 12 0 8 15 -4 17 -2&#xA;20 12 15 14 -5 16 -3 11 12 -5 16 -2 18 15 14 12 -3 19 -11 16 -18 -2 -7 1&#xA;-18 7 -24 8 -8 8 -11 -1 -11 -7 0 -12 -5 -12 -11 0 -8 4 -8 13 -1 18 15 84 25&#xA;91 14 3 -5 -5 -7 -18 -5 -18 4 -28 -3 -45 -30 -11 -19 -21 -43 -21 -53 1 -13&#xA;5 -9 14 12 16 36 36 53 36 30 0 -8 -5 -18 -11 -22 -8 -4 -8 -9 0 -17 14 -14&#xA;14 -30 0 -21 -8 5 -8 1 0 -13 8 -15 7 -25 -4 -39 -8 -11 -15 -14 -15 -9 0 6 6&#xA;17 13 24 10 10 9 11 -5 6 -22 -9 -22 -19 -2 -50 15 -23 14 -24 -5 -22 -15 1&#xA;-17 4 -9 14 14 17 -2 16 -26 -2 -11 -8 -14 -15 -8 -15 20 0 13 -16 -12 -28&#xA;-22 -10 -23 -14 -16 -47 5 -20 12 -40 16 -43 4 -4 5 0 2 9 -8 20 7 46 16 30 4&#xA;-6 2 -11 -4 -11 -8 0 -8 -6 0 -20 6 -11 7 -19 3 -19 -15 4 -63 -13 -63 -22 0&#xA;-12 14 -11 27 2 8 8 13 7 18 -3 5 -7 5 -10 0 -6 -12 11 -35 -11 -29 -27 3 -7&#xA;0 -16 -7 -21 -8 -4 -10 -3 -5 5 8 13 -16 41 -36 41 -8 0 -9 -3 -2 -8 15 -10&#xA;25 -40 15 -47 -5 -3 -11 1 -14 8 -3 7 -28 25 -56 40 -29 14 -49 22 -46 17 4&#xA;-6 -8 -10 -26 -10 -18 0 -29 3 -26 7 4 3 2 12 -4 20 -9 10 -8 13 1 13 7 0 10&#xA;7 6 15 -3 10 1 15 12 15 13 0 14 2 3 9 -7 5 -11 13 -8 17 3 5 -6 10 -19 10&#xA;-15 1 -24 -4 -24 -13 0 -9 6 -13 15 -9 23 9 18 -7 -15 -44 -17 -19 -29 -38&#xA;-27 -44 5 -14 27 -20 27 -6 0 6 -4 8 -10 5 -16 -10 -11 1 7 16 11 10 14 10 9&#xA;2 -4 -8 -2 -13 5 -13 8 0 6 -6 -4 -18 -25 -27 -2 -47 24 -21 19 19 62 25 93&#xA;13 25 -10 19 -22 -9 -19 -14 2 -25 -1 -25 -7 0 -6 7 -8 15 -4 8 3 15 1 15 -4&#xA;0 -12 -4 -12 -52 -1 -22 5 -38 5 -38 0 0 -5 -7 -9 -15 -9 -8 0 -15 -6 -15 -14&#xA;0 -8 -5 -18 -11 -22 -8 -4 -9 1 -4 17 7 21 6 22 -9 10 -20 -17 -21 -7 0 13 20&#xA;21 8 42 -14 24 -14 -11 -15 -10 -8 12 4 14 20 87 36 163 16 76 34 145 40 152&#xA;7 8 9 19 5 25 -3 5 -1 10 6 10 6 0 9 -8 6 -20 -4 -17 -2 -18 16 -8 30 15 36&#xA;23 12 14 -11 -4 -16 -4 -12 0 4 4 -1 16 -10 27 -18 20 -18 20 11 2 l29 -19&#xA;-16 30 c-14 28 -14 34 -1 60 8 16 20 34 26 39 7 6 6 2 -1 -12 -8 -16 -8 -23 2&#xA;-26 7 -3 5 -6 -5 -6 -10 -1 -18 -6 -18 -12 0 -5 4 -8 10 -4 5 3 18 -3 30 -15&#xA;12 -12 20 -15 21 -7 0 10 2 10 6 0 2 -7 9 -13 14 -13 6 0 7 6 2 13 -4 6 -8 17&#xA;-8 22 -2 23 -18 44 -29 38 -6 -3 -7 -2 -3 3 13 14 31 11 44 -6 10 -12 11 -9 8&#xA;20 l-3 35 13 -29 c8 -19 14 -24 17 -15z m43 29 c3 -5 1 -10 -4 -10 -6 0 -11 5&#xA;-11 10 0 6 2 10 4 10 3 0 8 -4 11 -10z m95 -5 c-6 -8 -8 -20 -4 -26 4 -8 3 -9&#xA;-4 -5 -7 4 -12 3 -12 -3 0 -5 6 -12 13 -14 7 -3 5 -6 -5 -6 -10 -1 -18 -6 -18&#xA;-13 0 -17 -13 0 -16 20 -1 9 -5 26 -9 37 l-8 20 16 -20 c16 -20 16 -20 32 3 9&#xA;12 19 22 22 22 3 0 0 -7 -7 -15z m-197 -71 c-4 -10 -9 -12 -15 -6 -12 12 -1&#xA;35 12 27 5 -3 6 -13 3 -21z m261 0 c9 -24 2 -26 -12 -4 -7 11 -8 20 -3 20 5 0&#xA;12 -7 15 -16z m3 -53 c0 -11 -6 -17 -14 -14 -7 3 -13 -1 -13 -8 0 -7 -2 -10&#xA;-5 -7 -9 8 6 38 16 32 5 -3 9 0 9 5 0 6 2 11 4 11 3 0 4 -9 3 -19z m-23 -56&#xA;c-4 -8 -11 -15 -16 -15 -6 0 -5 6 2 15 7 8 14 15 16 15 2 0 1 -7 -2 -15z m-22&#xA;-72 c-6 -2 -10 -9 -6 -14 3 -5 0 -9 -5 -9 -12 0 -14 13 -4 23 3 4 11 7 17 6 6&#xA;0 5 -3 -2 -6z m-48 -87 c4 -32 1 -32 -27 -5 -12 12 -17 19 -11 16 7 -4 15 0&#xA;18 9 8 22 17 13 20 -20z m620 -61 c-9 -14 -19 -23 -22 -20 -5 4 26 45 35 45 2&#xA;0 -4 -11 -13 -25z m51 6 c3 -5 1 -12 -4 -15 -5 -3 -11 1 -15 9 -6 16 9 21 19&#xA;6z m-87 -46 c0 -15 -6 -25 -14 -25 -13 0 -17 -10 -11 -27 1 -5 5 -7 9 -6 4 2&#xA;5 -4 2 -12 -4 -8 -12 -15 -20 -15 -7 0 -11 6 -8 14 6 15 -21 29 -39 20 -7 -3&#xA;-3 2 7 10 11 9 16 16 12 16 -5 0 -3 7 4 15 7 8 18 15 24 15 6 0 4 -5 -4 -10&#xA;-8 -5 -10 -10 -4 -10 15 0 36 25 27 33 -3 4 -2 7 4 7 6 0 11 -11 11 -25z m95&#xA;-30 c4 -8 1 -17 -5 -21 -7 -4 -8 -3 -4 4 4 7 3 12 -3 12 -12 0 -41 -28 -41&#xA;-40 0 -9 31 -24 43 -21 5 1 6 -3 2 -9 -5 -8 -11 -7 -21 1 -8 6 -29 15 -47 19&#xA;-26 6 -27 8 -8 9 24 1 24 1 5 24 -16 19 -16 20 0 6 16 -15 20 -15 43 7 31 28&#xA;29 28 36 9z m-840 -54 c-13 -2 -13 -5 -2 -12 11 -7 11 -9 -3 -9 -21 0 -22 4&#xA;-6 30 9 14 14 16 20 7 4 -7 1 -13 -9 -16z m683 7 c4 -6 3 -8 -4 -4 -5 3 -12 1&#xA;-14 -6 -2 -6 -12 -12 -21 -14 -14 -2 -15 1 -7 17 12 21 35 25 46 7z m179 -7&#xA;c3 -5 1 -12 -4 -15 -5 -3 -11 1 -15 9 -6 16 9 21 19 6z m-1069 -65 c-1 -44 -4&#xA;-58 -9 -44 -7 18 0 108 8 108 1 0 2 -29 1 -64z m165 34 c7 -5 10 -12 6 -16 -3&#xA;-4 -12 -2 -20 4 -13 11 -39 2 -36 -14 4 -21 -2 -35 -11 -29 -6 4 -10 14 -8 23&#xA;1 10 -1 22 -5 29 -8 13 52 16 74 3z m799 0 c0 -5 -7 -7 -15 -4 -8 4 -15 8 -15&#xA;10 0 2 7 4 15 4 8 0 15 -4 15 -10z m-878 -18 c-7 -2 -9 -9 -5 -15 4 -7 -1 -6&#xA;-10 2 -20 16 -13 33 10 24 11 -4 13 -8 5 -11z m78 -12 c8 -5 11 -10 5 -10 -5&#xA;0 -17 5 -25 10 -8 5 -10 10 -5 10 6 0 17 -5 25 -10z m663 -10 c3 -11 1 -18 -4&#xA;-14 -5 3 -9 12 -9 20 0 20 7 17 13 -6z m-796 -42 c-3 -8 -6 -5 -6 6 -1 11 2&#xA;17 5 13 3 -3 4 -12 1 -19z m63 2 c0 -5 -2 -10 -4 -10 -3 0 -8 5 -11 10 -3 6&#xA;-1 10 4 10 6 0 11 -4 11 -10z m-113 -22 c-3 -8 -6 -5 -6 6 -1 11 2 17 5 13 3&#xA;-3 4 -12 1 -19z m-490 -60 c-3 -7 -5 -2 -5 12 0 14 2 19 5 13 2 -7 2 -19 0&#xA;-25z m480 -70 c-2 -13 -4 -5 -4 17 -1 22 1 32 4 23 2 -10 2 -28 0 -40z m-500&#xA;20 c-13 -7 -15 -18 -11 -50 4 -26 3 -38 -4 -34 -11 7 -25 -21 -16 -35 3 -5 15&#xA;-9 27 -10 20 -1 20 -2 -3 -8 -14 -4 -30 -4 -36 1 -6 4 -14 5 -17 1 -4 -3 -7 3&#xA;-7 13 0 11 5 25 12 32 9 9 9 12 1 12 -7 0 -15 -4 -18 -10 -3 -5 -13 -10 -22&#xA;-10 -14 0 -14 2 2 20 10 11 22 17 28 13 6 -4 7 -1 2 6 -9 15 53 83 68 74 5 -3&#xA;3 -10 -6 -15z m30 -64 c-3 -3 -12 -4 -19 -1 -8 3 -5 6 6 6 11 1 17 -2 13 -5z&#xA;m-17 -35 c-7 -11 -14 -18 -17 -15 -3 3 0 12 7 21 18 21 23 19 10 -6z m-100&#xA;-31 c7 -16 6 -40 -3 -76 l-12 -54 -27 22 c-32 24 -34 45 -14 95 17 40 42 45&#xA;56 13z m115 -34 c24 -10 45 -58 45 -104 l0 -42 -42 7 c-115 19 -134 54 -70&#xA;128 16 18 39 22 67 11z m100 -14 c2 -4 -3 -14 -13 -21 -15 -13 -16 -12 -3 4&#xA;13 16 12 18 -13 13 -14 -3 -24 -2 -22 2 6 11 45 12 51 2z m64 -34 c20 -24 26&#xA;-87 10 -97 -15 -10 -92 -12 -101 -3 -9 8 12 77 30 97 18 21 45 22 61 3z m1131&#xA;-6 c-6 -11 -13 -20 -16 -20 -2 0 0 9 6 20 6 11 13 20 16 20 2 0 0 -9 -6 -20z&#xA;m-880 -61 c12 -21 6 -83 -9 -108 -7 -11 -16 -10 -45 8 -28 18 -36 29 -36 52 0&#xA;56 67 92 90 48z m166 5 c19 -15 19 -15 -1 -6 -11 5 -27 12 -35 15 -13 5 -13 6&#xA;1 6 8 1 24 -6 35 -15z m765 -7 c8 -17 7 -36 -1 -65 -6 -23 -13 -42 -15 -42 -2&#xA;0 -20 8 -40 17 -46 22 -56 55 -24 89 29 31 66 32 80 1z m-904 -9 c-3 -8 -6 -5&#xA;-6 6 -1 11 2 17 5 13 3 -3 4 -12 1 -19z m140 -13 c27 -19 42 -68 35 -114 l-5&#xA;-33 -51 6 c-82 11 -126 25 -126 42 0 25 28 71 56 93 32 25 61 27 91 6z m920&#xA;-7 c12 -13 24 -42 28 -65 l7 -43 -34 1 c-41 0 -126 14 -133 21 -9 8 15 61 37&#xA;86 12 12 33 22 48 22 15 0 36 -10 47 -22z m165 0 c8 -7 18 -27 21 -44 6 -30 4&#xA;-32 -36 -42 -98 -25 -100 -23 -73 42 21 50 57 68 88 44z m-904 -35 c11 -10 23&#xA;-32 27 -50 8 -40 -13 -53 -84 -53 -57 0 -61 7 -37 64 22 54 59 69 94 39z"/>
    <path d="M6030 3280 c-8 -5 -11 -10 -6 -10 5 0 3 -7 -4 -15 -10 -13 -9 -15 8&#xA;-15 12 0 24 5 28 12 5 7 3 8 -6 3 -10 -6 -12 -3 -8 13 4 12 5 22 5 22 -1 0 -9&#xA;-5 -17 -10z"/>
    <path d="M5210 3133 c-38 -27 -59 -53 -87 -111 -29 -62 -26 -75 10 -33 38 46&#xA;93 79 143 87 24 3 44 10 44 14 0 4 -9 19 -21 34 -24 30 -54 33 -89 9z"/>
    <path d="M6040 3001 c0 -5 7 -11 15 -15 8 -3 15 -1 15 3 0 5 -7 11 -15 15 -8&#xA;3 -15 1 -15 -3z"/>
    <path d="M5930 2920 c-18 -12 -2 -12 25 0 13 6 15 9 5 9 -8 0 -22 -4 -30 -9z"/>
    <path d="M5875 2820 c3 -5 8 -10 11 -10 2 0 4 5 4 10 0 6 -5 10 -11 10 -5 0&#xA;-7 -4 -4 -10z"/>
    <path d="M5903 2798 c-1 -10 0 -18 2 -18 2 0 9 8 14 18 7 14 6 19 -3 19 -6 0&#xA;-13 -9 -13 -19z"/>
    <path d="M5072 2700 c0 -19 2 -27 5 -17 2 9 2 25 0 35 -3 9 -5 1 -5 -18z"/>
    <path d="M5036 2594 c-9 -23 -8 -27 9 -20 8 3 15 0 15 -6 0 -19 14 1 15 22 2&#xA;24 -30 28 -39 4z"/>
    <path d="M5554 2575 c3 -21 16 -31 16 -12 0 9 -4 18 -9 21 -5 4 -8 -1 -7 -9z"/>
    <path d="M5080 2429 c0 -5 5 -7 10 -4 6 3 10 8 10 11 0 2 -4 4 -10 4 -5 0 -10&#xA;-5 -10 -11z"/>
    <path d="M5691 2402 c-1 -8 -6 -10 -13 -6 -10 5 -10 4 -1 -6 15 -16 28 -8 20&#xA;12 -4 11 -6 11 -6 0z"/>
    <path d="M5987 2363 c4 -9 9 -10 18 -3 6 5 15 8 18 5 4 -3 5 -2 2 2 -10 13&#xA;-43 10 -38 -4z"/>
    <path d="M5746 2342 c-3 -5 1 -9 9 -9 8 0 12 4 9 9 -3 4 -7 8 -9 8 -2 0 -6 -4&#xA;-9 -8z"/>
    <path d="M5380 2196 c0 -2 7 -6 15 -10 8 -3 15 -1 15 4 0 6 -7 10 -15 10 -8 0&#xA;-15 -2 -15 -4z"/>
    <path d="M6406 2847 c3 -10 9 -15 12 -12 3 3 0 11 -7 18 -10 9 -11 8 -5 -6z"/>
    <path d="M6610 2741 c0 -5 5 -13 10 -16 6 -3 10 -2 10 4 0 5 -4 13 -10 16 -5&#xA;3 -10 2 -10 -4z"/>
    <path d="M6485 2202 c0 -17 5 -29 13 -29 7 0 10 7 7 14 -3 8 -5 21 -5 29 0 8&#xA;-3 14 -7 14 -5 0 -8 -13 -8 -28z"/>
    <path d="M6525 2140 c10 -11 20 -20 23 -20 3 0 -3 9 -13 20 -10 11 -20 20 -23&#xA;20 -3 0 3 -9 13 -20z"/>
    <path d="M6577 1965 c-4 -8 -11 -15 -17 -15 -6 0 -8 6 -4 13 4 6 3 8 -1 4 -17&#xA;-15 -13 -35 5 -30 18 5 35 31 26 40 -2 2 -6 -3 -9 -12z"/>
    <path d="M7252 2495 c-7 -8 -10 -15 -7 -15 3 0 -6 -18 -20 -40 -14 -22 -25&#xA;-52 -24 -67 0 -22 4 -17 21 27 11 30 29 67 40 83 20 28 13 37 -10 12z"/>
    <path d="M7200 2331 c0 -6 4 -13 10 -16 6 -3 7 1 4 9 -7 18 -14 21 -14 7z"/>
    <path d="M4756 2052 c-3 -5 1 -9 9 -9 8 0 12 4 9 9 -3 4 -7 8 -9 8 -2 0 -6 -4&#xA;-9 -8z"/>
    <path d="M4966 2015 c4 -8 8 -15 10 -15 2 0 4 7 4 15 0 8 -4 15 -10 15 -5 0&#xA;-7 -7 -4 -15z"/>
    <path d="M5610 1950 c0 -5 -6 -7 -13 -4 -8 3 -20 -3 -28 -12 -13 -16 -12 -16&#xA;11 -4 14 7 27 11 29 9 2 -2 6 2 9 9 2 6 1 12 -2 12 -3 0 -6 -4 -6 -10z"/>
    <path d="M6525 1670 c-3 -5 -1 -10 4 -10 6 0 11 5 11 10 0 6 -2 10 -4 10 -3 0&#xA;-8 -4 -11 -10z"/>
    <path d="M5985 1473 c1 -10 -2 -23 -7 -30 -7 -9 -4 -9 15 0 20 9 23 14 13 29&#xA;-14 23 -25 23 -21 1z"/>
    <path d="M5885 1470 c-8 -13 15 -24 27 -12 6 6 4 11 -6 15 -8 3 -18 2 -21 -3z"/>
    <path d="M5935 1440 c-3 -5 -1 -10 4 -10 6 0 11 5 11 10 0 6 -2 10 -4 10 -3 0&#xA;-8 -4 -11 -10z"/>
    <path d="M6010 1420 c0 -5 6 -7 14 -4 8 3 17 1 20 -5 4 -6 14 -7 23 -4 15 6&#xA;14 7 -3 14 -27 11 -54 11 -54 -1z"/>
    <path d="M5879 1388 c-5 -19 -8 -50 -4 -46 7 7 15 48 9 48 -2 0 -4 -1 -5 -2z"/>
    <path d="M5846 1367 c3 -10 9 -15 12 -12 3 3 0 11 -7 18 -10 9 -11 8 -5 -6z"/>
    <path d="M5810 1297 c0 -10 8 -17 18 -17 9 0 13 4 7 8 -5 4 -13 11 -17 16 -5&#xA;5 -8 2 -8 -7z"/>
    <path d="M5943 1269 c-2 -23 3 -25 10 -4 4 8 3 16 -1 19 -4 3 -9 -4 -9 -15z"/>
    <path d="M5990 1261 c0 -6 5 -11 11 -11 5 0 7 -4 4 -10 -3 -5 1 -20 10 -34 12&#xA;-17 13 -25 4 -28 -7 -2 -13 -16 -15 -31 -2 -25 -1 -26 13 -11 22 21 25 63 7&#xA;81 -8 8 -12 18 -9 23 3 4 -2 13 -10 20 -10 9 -15 9 -15 1z"/>
    <path d="M5916 1232 c-3 -4 4 -9 15 -9 23 -2 25 3 4 10 -8 4 -16 3 -19 -1z"/>
    <path d="M5995 1190 c-3 -5 -1 -10 4 -10 6 0 11 5 11 10 0 6 -2 10 -4 10 -3 0&#xA;-8 -4 -11 -10z"/>
    <path d="M5160 686 c0 -2 8 -10 18 -17 15 -13 16 -12 3 4 -13 16 -21 21 -21&#xA;13z"/>
    <path d="M4685 3350 c-3 -5 -2 -10 4 -10 5 0 13 5 16 10 3 6 2 10 -4 10 -5 0&#xA;-13 -4 -16 -10z"/>
    <path d="M4850 3312 c0 -5 10 -17 22 -28 l21 -19 -18 28 c-18 28 -25 33 -25&#xA;19z"/>
    <path d="M4912 3204 c10 -10 20 -15 24 -12 3 4 -5 12 -18 18 -22 12 -22 12 -6&#xA;-6z"/>
    <path d="M4900 3180 c0 -5 5 -10 10 -10 6 0 10 5 10 10 0 6 -4 10 -10 10 -5 0&#xA;-10 -4 -10 -10z"/>
    <path d="M8430 3981 c0 -16 -25 -267 -101 -1006 -5 -55 -12 -125 -15 -155 -10&#xA;-119 -274 -2757 -278 -2788 l-5 -32 1985 0 1984 0 0 2000 0 2000 -1785 0&#xA;c-1742 0 -1785 0 -1785 -19z m3528 -1978 l-3 -1958 -1932 -3 -1933 -2 0 30 c0&#xA;39 269 2733 274 2737 8 9 117 -49 129 -69 8 -13 20 -52 27 -87 18 -99 50 -160&#xA;109 -209 63 -53 66 -46 6 15 -37 37 -86 109 -90 133 -21 119 -30 148 -53 173&#xA;-14 15 -31 27 -39 27 -7 0 -28 8 -48 17 -33 16 -35 20 -35 62 0 109 20 224 44&#xA;256 13 17 44 71 69 121 25 50 61 111 80 136 35 46 41 72 9 40 -32 -33 -86&#xA;-122 -74 -122 4 0 2 -4 -4 -8 -6 -4 -25 -34 -42 -67 -17 -33 -38 -69 -46 -80&#xA;-16 -20 -16 -19 -12 5 3 14 21 196 41 405 20 209 38 386 41 393 3 9 360 12&#xA;1744 12 l1740 0 -2 -1957z"/>
    <path d="M11421 3771 c-20 -20 -78 -141 -73 -153 1 -5 -7 -8 -18 -8 -14 0 -25&#xA;-12 -37 -37 -8 -21 -24 -55 -35 -75 -11 -21 -18 -46 -17 -55 4 -26 -7 -55 -61&#xA;-168 -103 -214 -138 -295 -129 -295 6 0 21 24 33 53 13 28 58 123 100 210 75&#xA;155 78 159 104 152 42 -9 164 -70 197 -98 l29 -24 -38 -79 c-21 -44 -53 -113&#xA;-72 -154 -18 -41 -54 -118 -79 -170 -26 -52 -59 -122 -75 -155 -16 -33 -56&#xA;-118 -90 -190 -35 -71 -85 -177 -112 -235 -28 -58 -82 -170 -120 -250 l-69&#xA;-145 -14 31 c-7 18 -19 35 -26 39 -7 5 -5 -2 4 -16 9 -13 17 -39 17 -59 -1&#xA;-30 -14 -49 -99 -140 l-98 -104 -43 19 -42 19 5 66 c19 214 40 285 82 277 14&#xA;-2 22 0 19 4 -3 5 -12 9 -20 9 -19 0 -18 13 5 58 10 20 19 39 19 42 0 3 23 54&#xA;51 113 29 59 53 117 54 127 1 11 4 20 8 20 4 0 17 24 29 53 12 28 47 103 76&#xA;166 30 62 54 115 54 118 0 3 22 48 49 102 26 53 46 102 43 110 -3 8 0 11 7 7&#xA;6 -4 11 -2 11 3 0 20 -20 11 -29 -13 -11 -27 -67 -146 -179 -376 -44 -91 -105&#xA;-223 -137 -295 -31 -71 -74 -166 -95 -210 -37 -78 -45 -101 -54 -175 -3 -19&#xA;-17 -115 -31 -213 -35 -235 -30 -248 56 -144 42 50 130 147 284 311 18 18 70&#xA;110 67 119 -1 4 5 7 13 7 8 0 15 5 15 11 0 5 -5 7 -12 3 -8 -5 -9 -2 -4 12 5&#xA;10 12 31 18 45 6 19 23 32 56 45 62 23 135 99 195 202 52 88 61 97 122 107 61&#xA;11 109 47 135 102 20 43 22 58 17 153 -6 127 -52 291 -77 275 -10 -6 29 -125&#xA;42 -125 5 0 7 -4 4 -9 -3 -4 0 -40 8 -78 33 -174 -13 -277 -134 -299 -65 -12&#xA;-111 -49 -137 -111 -7 -19 -18 -31 -23 -28 -5 3 -7 -1 -4 -9 6 -16 -12 -42&#xA;-69 -98 -41 -41 -97 -75 -97 -59 0 14 54 129 328 694 37 75 70 137 74 137 4 0&#xA;5 6 2 13 -8 23 129 300 159 320 17 11 28 30 33 54 4 21 15 49 26 63 11 13 18&#xA;36 16 51 -1 14 2 33 8 40 18 24 64 136 64 156 0 28 -39 75 -57 69 -8 -3 -12&#xA;-2 -9 3 6 9 -39 39 -76 54 -12 4 -15 2 -11 -9 5 -13 16 -17 28 -11 3 1 9 -3&#xA;13 -8 4 -6 26 -25 50 -44 23 -18 42 -41 42 -51 0 -16 -30 -78 -67 -138 -14&#xA;-23 -15 -23 -41 -6 -36 25 -135 73 -147 73 -5 1 18 -15 53 -33 100 -54 134&#xA;-84 126 -109 -3 -12 -15 -30 -25 -40 -11 -10 -19 -30 -19 -45 0 -48 -18 -55&#xA;-59 -24 -33 26 -100 58 -191 92 -19 8 -42 21 -51 29 -15 15 -14 19 6 46 12 17&#xA;25 42 29 57 9 40 33 60 56 48 28 -15 38 -11 15 5 -18 15 -18 17 -2 44 9 15 14&#xA;31 10 35 -3 3 -1 6 6 6 7 0 9 5 6 10 -3 6 -2 10 3 10 4 0 14 16 22 35 8 19 16&#xA;36 19 36 3 1 16 3 29 4 36 4 39 15 4 15 -18 0 -40 -8 -51 -19z m-847 -2138&#xA;c-7 -41 -22 -66 -34 -58 -13 8 12 95 27 95 11 0 12 -9 7 -37z"/>
    <path d="M11518 3773 c7 -3 16 -2 19 1 4 3 -2 6 -13 5 -11 0 -14 -3 -6 -6z"/>
    <path d="M9710 3702 c36 -10 69 -16 73 -14 19 9 -18 21 -93 28 -41 4 -39 3 20&#xA;-14z"/>
    <path d="M9800 3673 c36 -13 112 -78 145 -122 19 -27 35 -51 35 -53 0 -7 -93&#xA;7 -107 15 -6 4 -14 3 -17 -1 -3 -5 -27 -10 -53 -11 -179 -6 -344 -64 -502&#xA;-176 -80 -56 -194 -169 -213 -211 -6 -13 -14 -24 -18 -24 -10 0 -56 52 -70 80&#xA;-38 75 -124 192 -157 214 -31 21 -49 26 -98 25 l-60 -1 62 -16 c57 -16 96 -42&#xA;139 -95 22 -27 45 -78 39 -87 -3 -5 1 -7 9 -4 9 3 17 -3 21 -17 4 -13 21 -36&#xA;37 -52 24 -24 27 -32 16 -46 -10 -13 -10 -14 2 -4 11 10 17 10 31 -3 16 -14&#xA;16 -19 -6 -72 -13 -31 -26 -75 -30 -97 -8 -49 -7 -200 1 -276 l6 -56 -51 -56&#xA;c-68 -76 -91 -124 -91 -189 0 -59 23 -116 65 -166 l28 -33 -19 -41 c-20 -44&#xA;-47 -67 -97 -78 l-32 -8 37 -1 c30 -1 46 6 78 35 22 20 40 41 40 46 0 9 27 71&#xA;81 184 16 33 43 78 60 100 37 46 115 104 143 105 18 1 19 2 3 6 -13 3 -16 10&#xA;-12 21 17 39 35 107 35 127 0 16 -7 24 -25 27 -56 11 -91 -49 -82 -142 3 -33&#xA;2 -60 -2 -60 -4 0 -31 -23 -60 -52 -36 -36 -66 -80 -98 -145 -43 -89 -46 -93&#xA;-64 -77 -27 24 -59 99 -61 142 -2 59 20 108 77 174 29 33 56 73 58 87 3 14 3&#xA;76 0 136 -8 152 7 228 65 335 70 129 202 254 343 326 65 32 169 72 206 78 163&#xA;27 244 29 360 5 66 -13 197 -64 234 -90 16 -11 35 -17 41 -13 7 4 10 4 6 -1&#xA;-10 -10 11 -37 23 -29 5 3 12 -2 16 -12 3 -9 22 -32 42 -50 l35 -34 -40 -34&#xA;c-74 -66 -9 -38 137 60 79 52 149 101 154 108 6 7 12 13 15 13 3 0 29 12 58&#xA;27 106 54 217 65 299 31 19 -8 39 -13 43 -10 5 3 12 0 17 -8 4 -7 22 -20 38&#xA;-30 24 -15 22 -11 -10 17 -22 20 -46 34 -53 31 -7 -3 -15 2 -18 9 -10 25 -95&#xA;39 -171 27 -37 -6 -69 -15 -71 -21 -2 -5 -8 -8 -12 -5 -14 9 -120 -49 -240&#xA;-130 -61 -42 -116 -78 -123 -81 -7 -2 -28 16 -47 41 -62 83 -161 145 -300 190&#xA;-30 9 -61 25 -68 34 -7 9 -23 30 -35 46 -35 48 -97 106 -108 100 -5 -4 -12 1&#xA;-15 9 -4 9 -17 16 -33 15 -15 0 -20 -3 -11 -6z m-540 -1047 c0 -8 -4 -18 -10&#xA;-21 -5 -3 -10 3 -10 14 0 12 5 21 10 21 6 0 10 -6 10 -14z"/>
    <path d="M8731 3539 c-54 -16 -142 -82 -128 -96 4 -3 16 5 28 18 33 39 127 78&#xA;180 75 81 -3 167 -54 250 -149 86 -98 107 -117 125 -117 7 0 -7 19 -31 41 -25&#xA;23 -45 47 -45 54 0 21 -118 125 -167 148 -26 12 -55 23 -63 25 -44 9 -119 10&#xA;-149 1z"/>
    <path d="M9826 3526 c10 -8 21 -12 24 -10 5 6 -21 24 -34 24 -6 0 -1 -6 10&#xA;-14z"/>
    <path d="M11515 3415 c11 -8 25 -22 32 -31 6 -8 14 -11 17 -6 8 14 -16 39 -44&#xA;47 -24 6 -24 6 -5 -10z"/>
    <path d="M10860 3341 c-58 -18 -220 -146 -220 -174 0 -19 -141 -176 -197 -219&#xA;-54 -41 -58 -47 -56 -84 0 -21 2 -93 3 -159 2 -88 5 -113 12 -95 5 14 9 84 8&#xA;157 0 80 3 134 10 138 5 3 10 0 10 -7 1 -7 12 1 25 17 22 27 30 27 26 2 -1 -5&#xA;3 -6 9 -2 6 3 8 10 5 15 -6 10 53 69 69 70 6 0 -6 -17 -25 -37 -18 -21 -24&#xA;-30 -13 -20 17 14 23 15 28 5 4 -9 5 -9 3 2 -2 19 43 81 54 74 5 -3 6 1 4 8&#xA;-3 8 8 27 25 43 16 16 30 34 30 41 0 7 20 30 45 52 57 50 58 62 3 21 -24 -17&#xA;-42 -35 -41 -39 1 -4 -4 -11 -13 -14 -44 -17 91 124 154 161 41 24 57 28 134&#xA;28 73 0 85 2 71 13 -18 13 -122 15 -163 3z m-245 -277 c-27 -26 -43 -50 -39&#xA;-57 5 -8 2 -7 -7 1 -12 11 -7 20 32 57 26 24 44 47 40 51 -3 4 0 4 7 0 9 -6 0&#xA;-20 -33 -52z"/>
    <path d="M11415 3233 c-10 -21 -20 -41 -22 -45 -2 -5 -2 -8 1 -8 8 0 48 81 43&#xA;86 -2 3 -12 -12 -22 -33z"/>
    <path d="M9792 3169 c-36 -7 -72 -35 -72 -55 0 -9 17 -13 54 -13 63 0 108 -23&#xA;175 -93 l43 -43 -8 35 c-8 44 -55 112 -97 143 -42 31 -55 35 -95 26z m79 -26&#xA;c12 -16 12 -17 -2 -6 -9 7 -20 9 -24 5 -5 -4 -5 -1 -1 6 9 16 11 15 27 -5z&#xA;m-72 -16 c-7 -7 -21 -13 -31 -13 -24 0 -23 5 5 16 32 13 40 12 26 -3z m66 -7&#xA;c3 -5 12 -7 19 -4 7 3 19 -3 27 -13 13 -16 12 -17 -3 -5 -9 8 -22 11 -28 7 -5&#xA;-3 -17 1 -26 9 -8 9 -11 16 -5 16 5 0 12 -4 16 -10z"/>
    <path d="M9197 3120 c-26 -21 -87 -106 -87 -123 0 -5 20 9 45 32 48 44 90 65&#xA;112 57 8 -4 11 -1 7 5 -3 6 -17 9 -30 6 -14 -2 -27 0 -31 6 -3 6 -1 7 5 3 7&#xA;-4 12 -3 12 2 0 5 10 8 23 6 12 -1 25 -3 30 -3 4 -1 7 -9 8 -18 0 -10 3 -13 5&#xA;-6 3 7 0 21 -6 32 -14 27 -59 27 -93 1z"/>
    <path d="M11341 3079 c-13 -22 -21 -43 -18 -45 3 -3 8 4 12 15 3 12 11 18 17&#xA;15 7 -4 8 -2 4 5 -4 6 -2 19 5 27 6 8 10 17 7 19 -2 3 -15 -13 -27 -36z"/>
    <path d="M10426 2868 c3 -5 10 -6 15 -3 13 9 11 12 -6 12 -8 0 -12 -4 -9 -9z"/>
    <path d="M9737 2845 c-22 -7 -50 -24 -64 -37 -37 -33 -74 -124 -79 -188 l-3&#xA;-55 9 58 c19 115 87 195 168 199 50 2 76 -18 103 -77 22 -47 26 -116 7 -97&#xA;-40 40 -125 -14 -135 -85 -7 -52 3 -108 23 -128 25 -24 89 17 117 75 30 63 31&#xA;207 2 264 -35 68 -87 93 -148 71z m104 -258 c-8 -8 -11 -4 -11 14 0 33 14 47&#xA;18 19 2 -12 -1 -27 -7 -33z"/>
    <path d="M9155 2823 c-14 -13 -32 -48 -40 -73 -14 -48 -25 -127 -22 -152 4&#xA;-31 4 -31 5 6 3 72 33 155 64 181 16 14 35 25 42 25 18 0 43 -31 51 -63 4 -15&#xA;10 -26 12 -23 8 7 -18 79 -35 99 -19 22 -56 22 -77 0z"/>
    <path d="M10420 2789 c0 -5 5 -7 10 -4 6 3 10 8 10 11 0 2 -4 4 -10 4 -5 0&#xA;-10 -5 -10 -11z"/>
    <path d="M9592 2540 c0 -14 2 -19 5 -12 2 6 2 18 0 25 -3 6 -5 1 -5 -13z"/>
    <path d="M10365 2424 c20 -174 -101 -361 -290 -449 -108 -51 -121 -56 -160&#xA;-62 -34 -5 -137 -30 -160 -39 -13 -5 -14 -2 -5 22 9 23 -3 15 -54 -38 -36 -38&#xA;-77 -72 -91 -78 -61 -23 -116 -7 -169 49 l-30 31 24 25 23 24 34 -29 c38 -33&#xA;61 -37 102 -16 51 27 86 86 177 298 16 37 34 68 39 68 6 0 25 -4 43 -9 45 -13&#xA;31 6 -22 30 -44 20 -126 26 -126 9 0 -5 11 -10 25 -10 63 0 -7 -93 -160 -215&#xA;-33 -26 -94 -79 -135 -119 -72 -68 -205 -166 -227 -166 -5 0 -24 -7 -41 -16&#xA;-35 -17 -82 -26 -125 -25 -16 1 -26 -2 -24 -6 3 -5 -11 -9 -30 -11 -23 -1 -32&#xA;1 -27 9 5 8 -4 10 -29 7 -20 -2 -34 -1 -31 3 5 9 -56 20 -69 12 -6 -3 -7 -1&#xA;-3 5 4 7 1 12 -8 12 -19 0 -99 50 -130 82 -35 34 -106 131 -106 143 0 6 4 15&#xA;10 20 6 7 -14 9 -55 7 -35 -2 -73 1 -84 8 -25 13 -27 49 -5 92 13 26 14 37 4&#xA;73 -15 54 -10 86 17 108 33 27 88 22 140 -13 49 -33 67 -39 37 -12 -55 48&#xA;-134 69 -174 45 -41 -24 -55 -64 -43 -117 7 -32 6 -55 -4 -87 -7 -24 -13 -54&#xA;-13 -66 0 -32 37 -53 92 -53 47 0 47 0 101 -72 62 -83 94 -114 156 -153 50&#xA;-31 136 -59 158 -51 9 4 11 2 7 -6 -11 -18 162 -2 229 21 67 23 153 71 198&#xA;108 l30 26 31 -32 c38 -39 70 -56 132 -72 56 -14 72 -8 154 58 48 38 103 59&#xA;87 33 -3 -5 -13 -10 -21 -10 -8 0 -17 -7 -20 -15 -4 -8 -9 -13 -13 -10 -4 2&#xA;-8 -2 -8 -9 0 -8 6 -12 14 -9 7 3 13 11 13 18 0 7 10 15 23 18 12 3 33 9 47&#xA;12 24 7 25 7 5 -9 -13 -10 1 -7 40 9 32 14 63 31 67 38 4 7 8 8 8 3 0 -6 5 -5&#xA;12 2 7 7 17 12 23 12 5 -1 -3 -12 -20 -27 -24 -21 -25 -23 -5 -11 14 8 51 30&#xA;83 48 31 17 61 39 66 47 7 13 9 13 15 -2 4 -11 -2 -23 -16 -35 -13 -10 -41&#xA;-35 -63 -55 -22 -20 -73 -61 -112 -92 -40 -30 -73 -57 -73 -60 0 -3 6 -1 13 4&#xA;6 5 48 37 92 70 44 34 95 75 113 92 18 17 35 31 38 31 2 0 13 9 24 20 18 18&#xA;18 24 -1 22 -3 -1 -6 6 -6 14 0 7 3 12 5 9 3 -3 20 5 39 16 18 11 33 16 33 11&#xA;0 -5 -14 -15 -32 -23 -17 -7 -26 -15 -20 -17 13 -4 59 24 90 56 12 13 27 20&#xA;32 17 9 -6 14 8 11 28 0 4 4 6 11 5 7 -2 12 2 13 9 0 7 7 18 15 25 12 11 12&#xA;11 2 -3 -10 -13 -8 -18 13 -27 21 -10 23 -9 18 6 -4 9 11 -5 32 -33 21 -27 48&#xA;-57 59 -67 19 -16 106 -51 106 -43 0 2 -17 13 -37 26 -120 71 -167 188 -133&#xA;328 14 60 8 187 -10 205 -8 8 -10 -5 -5 -50z m-685 -342 c0 -4 -9 -13 -20 -20&#xA;-24 -15 -26 -9 -4 12 17 18 24 20 24 8z m10 -47 c0 -3 -11 -27 -24 -54 -25&#xA;-49 -86 -111 -110 -111 -18 0 -8 59 15 89 10 13 16 28 12 34 -3 5 -2 7 4 4 5&#xA;-4 25 5 43 18 31 23 60 32 60 20z m390 -99 c0 -11 -92 -56 -101 -50 -6 3 13&#xA;17 42 29 30 13 55 23 57 24 1 0 2 -1 2 -3z m-222 -94 c8 -5 -1 -8 -23 -8 -19&#xA;1 -35 4 -35 9 0 9 42 9 58 -1z"/>
    <path d="M8690 2407 c0 -11 131 -137 143 -137 6 0 8 1 6 3 -3 1 -37 33 -77 72&#xA;-39 38 -72 66 -72 62z"/>
    <path d="M8656 2212 c6 -4 21 -23 33 -42 11 -19 21 -30 21 -25 0 18 -40 75&#xA;-52 75 -9 0 -10 -2 -2 -8z"/>
    <path d="M8470 2197 c0 -2 7 -21 15 -40 8 -20 15 -50 15 -67 0 -34 21 -40 55&#xA;-14 20 15 20 15 0 51 -16 30 -85 87 -85 70z m61 -69 c6 -11 7 -18 2 -15 -5 3&#xA;-10 -4 -10 -16 -2 -17 0 -18 7 -7 5 8 12 11 17 7 9 -10 -18 -28 -30 -20 -5 3&#xA;-7 18 -5 34 3 16 1 29 -4 29 -4 0 -8 5 -8 11 0 15 18 2 31 -23z"/>
    <path d="M8716 2115 c4 -8 11 -15 16 -15 6 0 5 6 -2 15 -7 8 -14 15 -16 15 -2&#xA;0 -1 -7 2 -15z"/>
    <path d="M10295 2013 l-27 -38 32 33 c18 18 30 35 27 38 -2 2 -17 -12 -32 -33z"/>
    <path d="M10847 2005 c-2 -14 0 -28 6 -32 6 -3 7 -1 3 5 -4 7 -2 12 3 12 13 0&#xA;15 27 2 34 -5 3 -11 -6 -14 -19z"/>
    <path d="M10960 2017 c0 -2 43 -47 94 -100 58 -59 98 -92 102 -86 4 7 -32 49&#xA;-85 100 -77 75 -111 102 -111 86z"/>
    <path d="M10241 1941 c-12 -16 -21 -33 -21 -37 0 -4 11 7 25 26 14 19 25 35&#xA;25 37 0 9 -11 0 -29 -26z"/>
    <path d="M10179 1933 c-13 -17 -13 -17 6 -3 11 8 22 16 24 17 2 2 0 3 -6 3 -6&#xA;0 -17 -8 -24 -17z"/>
    <path d="M10953 1925 c0 -8 4 -12 9 -9 5 3 6 10 3 15 -9 13 -12 11 -12 -6z"/>
    <path d="M10168 1845 c-45 -52 -51 -72 -8 -24 28 31 55 69 48 69 -2 -1 -20&#xA;-20 -40 -45z"/>
    <path d="M10910 1880 c-9 -6 -10 -10 -3 -10 6 0 15 5 18 10 8 12 4 12 -15 0z"/>
    <path d="M11156 1822 c-4 -7 6 -29 23 -49 49 -62 120 -223 142 -324 27 -123&#xA;28 -191 4 -319 -20 -108 -73 -206 -160 -294 -67 -69 -85 -79 -85 -47 0 11 -4&#xA;23 -10 26 -13 8 -12 -29 1 -80 29 -112 48 -227 39 -249 -11 -31 -52 -62 -98&#xA;-76 -20 -6 -46 -15 -57 -20 -106 -45 -335 -37 -435 15 -33 17 -40 18 -40 7 0&#xA;-5 17 -16 38 -25 171 -76 482 -44 595 61 34 32 35 65 5 191 l-22 93 24 20 c61&#xA;47 135 127 161 174 l29 51 63 0 c73 2 120 18 175 63 50 40 73 82 111 207 31&#xA;102 39 195 21 253 -4 15 -6 -1 -4 -42 4 -78 -42 -278 -76 -334 -41 -65 -147&#xA;-133 -200 -128 -8 1 -28 2 -43 3 -27 1 -28 3 -22 34 14 64 24 80 40 67 23 -19&#xA;104 -14 133 7 33 25 44 51 14 32 -12 -7 -19 -16 -16 -20 11 -18 -81 -25 -120&#xA;-10 -17 7 -19 20 -20 157 -2 180 -15 234 -91 389 -59 118 -107 186 -119 167z"/>
    <path d="M9410 1785 c-1 -5 -3 -30 -5 -55 -1 -25 -10 -81 -20 -125 -9 -44 -17&#xA;-90 -19 -103 -1 -12 -6 -25 -9 -29 -4 -3 -7 -17 -7 -30 0 -14 -5 -33 -10 -44&#xA;-8 -13 -7 -19 0 -19 11 0 22 21 24 48 1 10 8 36 14 59 7 23 12 45 11 50 -5 19&#xA;14 102 22 97 10 -6 11 -1 13 66 1 41 -10 109 -14 85z"/>
    <path d="M9820 1770 c-9 -6 -10 -10 -3 -10 6 0 15 5 18 10 8 12 4 12 -15 0z"/>
    <path d="M11616 1711 c-13 -20 -25 -61 -18 -61 4 0 12 16 18 35 11 34 11 44 0&#xA;26z"/>
    <path d="M11549 1604 c-6 -16 -14 -65 -17 -109 l-5 -80 -18 50 c-9 28 -18 42&#xA;-18 32 -1 -28 28 -89 39 -82 5 3 10 0 10 -8 0 -8 9 -35 20 -60 23 -51 20 -123&#xA;-7 -163 -8 -13 -10 -25 -5 -28 16 -10 43 79 41 133 -2 28 -5 51 -9 51 -3 0 -5&#xA;13 -4 30 1 16 -2 27 -7 24 -27 -17 -35 158 -9 207 7 11 9 23 6 26 -3 3 -11 -7&#xA;-17 -23z"/>
    <path d="M9464 1425 c2 -22 26 -85 52 -139 39 -79 65 -116 122 -175 l74 -76&#xA;-11 -71 c-12 -70 -19 -143 -25 -240 -3 -46 -8 -56 -48 -92 -25 -23 -53 -61&#xA;-63 -84 -11 -24 -20 -44 -21 -46 -1 -2 -41 -10 -89 -17 -81 -13 -139 -13 -242&#xA;1 -29 3 -43 1 -43 -6 0 -6 8 -10 18 -9 9 2 26 -2 38 -8 22 -13 228 -11 275 1&#xA;23 7 27 4 32 -23 8 -39 33 -42 31 -4 -2 47 24 106 70 158 61 71 63 78 76 211&#xA;6 66 20 163 31 215 31 142 40 201 35 213 -2 6 -5 -2 -5 -17 -1 -16 -5 -26 -10&#xA;-23 -4 3 -7 -7 -5 -21 2 -25 -2 -38 -24 -72 -30 -44 -202 174 -259 329 l-13&#xA;35 4 -40z"/>
    <path d="M9330 1349 c0 -13 -4 -18 -12 -13 -6 4 -8 3 -4 -4 3 -6 -3 -29 -14&#xA;-50 -12 -22 -22 -50 -23 -61 -1 -12 -5 -21 -9 -21 -4 0 -7 -3 -6 -7 1 -5 -2&#xA;-19 -5 -33 -4 -14 -9 -36 -12 -50 -3 -14 -8 -37 -11 -52 -4 -16 -2 -28 3 -28&#xA;5 0 15 30 22 68 8 37 17 72 21 77 4 6 13 33 20 60 8 28 19 59 26 70 19 31 27&#xA;65 15 65 -6 0 -11 -9 -11 -21z"/>
    <path d="M9796 1355 c-3 -8 -1 -15 4 -15 6 0 10 7 10 15 0 8 -2 15 -4 15 -2 0&#xA;-6 -7 -10 -15z"/>
    <path d="M9776 1265 c-3 -8 -1 -15 4 -15 6 0 10 7 10 15 0 8 -2 15 -4 15 -2 0&#xA;-6 -7 -10 -15z"/>
    <path d="M10810 1246 c-5 -5 -10 -7 -10 -3 0 4 -26 -6 -57 -22 -137 -69 -232&#xA;-208 -235 -344 -1 -34 2 -72 6 -84 5 -17 3 -21 -11 -18 -10 2 -22 4 -26 4 -5&#xA;1 -5 7 -1 14 6 9 4 9 -8 -1 -17 -14 -68 -7 -68 10 0 5 -3 7 -7 5 -16 -9 -53&#xA;13 -53 31 0 10 29 67 64 127 71 121 125 222 100 188 -71 -98 -86 -116 -81&#xA;-102 18 56 39 140 35 144 -2 2 -19 -37 -38 -88 -18 -51 -55 -135 -81 -188 -42&#xA;-84 -65 -145 -86 -230 -3 -13 -8 -76 -10 -139 -4 -94 -9 -119 -25 -140 -11&#xA;-14 -23 -25 -26 -25 -4 -1 -26 -11 -48 -23 -23 -11 -58 -22 -77 -24 -20 -1&#xA;-34 -5 -31 -9 5 -8 4 -8 -106 -9 -53 0 -71 -3 -60 -10 21 -14 4 -12 -19 2 -15&#xA;9 -22 8 -36 -5 -15 -16 -12 -17 47 -17 37 0 69 5 76 12 7 7 12 8 12 1 0 -23&#xA;204 28 267 66 34 21 52 67 55 136 1 20 4 32 7 27 20 -28 142 15 181 65 22 28&#xA;23 64 5 121 -7 20 -4 22 24 22 26 0 33 -6 46 -36 23 -55 19 -77 -25 -135 -22&#xA;-30 -40 -58 -41 -64 0 -5 -3 -22 -5 -37 -7 -40 13 -34 25 7 5 19 23 53 40 74&#xA;46 58 54 89 37 138 -29 81 -40 183 -27 245 14 64 68 155 127 211 38 37 144 97&#xA;171 97 7 0 13 4 13 8 0 12 -27 11 -40 -2z m-468 -519 c-5 -20 -4 -21 12 -8 30&#xA;25 27 5 -5 -25 -22 -21 -28 -24 -23 -10 6 15 4 17 -7 11 -11 -7 -12 -6 -3 6 6&#xA;8 14 23 18 34 5 16 2 15 -14 -5 -16 -20 -19 -21 -14 -5 4 11 11 25 15 31 5 6&#xA;8 13 6 15 -1 2 3 -2 9 -9 7 -7 9 -23 6 -35z m76 -11 c-11 -8 -14 -17 -7 -27 7&#xA;-11 9 -10 9 6 0 15 3 16 12 7 6 -6 13 -17 14 -24 1 -7 5 -25 9 -40 6 -23 2&#xA;-29 -23 -42 -28 -15 -92 -30 -92 -23 0 2 10 12 22 23 20 18 21 18 15 1 -4 -11&#xA;-3 -16 3 -12 6 4 9 14 8 23 -2 10 3 16 10 14 8 -1 11 2 7 9 -5 7 -14 4 -29 -9&#xA;-52 -47 -68 -26 -29 40 35 59 65 90 77 77 8 -7 6 -14 -6 -23z m-115 -53 c-5&#xA;-13 -2 -15 12 -10 15 6 16 5 5 -8 -11 -13 -15 -13 -22 -3 -7 9 -8 6 -5 -9 3&#xA;-13 1 -23 -5 -23 -6 0 -8 -7 -5 -15 4 -8 3 -17 -2 -19 -4 -3 -8 3 -8 12 -1 29&#xA;17 92 27 92 5 0 6 -8 3 -17z"/>
    <path d="M10372 671 c-11 -7 -11 -9 1 -14 9 -3 18 1 21 9 6 16 -2 18 -22 5z"/>
    <path d="M10341 636 c-10 -12 -9 -14 6 -12 10 2 17 7 15 12 -6 15 -9 15 -21 0z"/>
    <path d="M9233 1005 c0 -8 4 -12 9 -9 5 3 6 10 3 15 -9 13 -12 11 -12 -6z"/>
    <path d="M9230 961 c0 -11 4 -22 9 -25 4 -3 6 6 3 19 -5 30 -12 33 -12 6z"/>
    <path d="M10455 939 c-4 -6 -13 -8 -21 -5 -7 3 -16 0 -20 -6 -4 -6 -3 -8 4 -4&#xA;5 3 12 1 14 -5 2 -6 12 -1 22 10 11 12 16 21 13 21 -3 0 -9 -5 -12 -11z"/>
    <path d="M9220 909 c0 -11 4 -18 10 -14 5 3 7 12 3 20 -7 21 -13 19 -13 -6z"/>
    <path d="M10387 894 c-4 -4 -7 -14 -7 -23 0 -11 3 -12 11 -4 6 6 10 16 7 23&#xA;-2 6 -7 8 -11 4z"/>
    <path d="M9210 839 c0 -5 5 -7 10 -4 6 3 10 8 10 11 0 2 -4 4 -10 4 -5 0 -10&#xA;-5 -10 -11z"/>
    <path d="M10389 833 c-13 -16 -12 -17 4 -4 9 7 17 15 17 17 0 8 -8 3 -21 -13z"/>
    <path d="M10456 813 c-6 -14 -5 -15 5 -6 7 7 10 15 7 18 -3 3 -9 -2 -12 -12z"/>
    <path d="M9203 813 c4 -6 -4 -18 -18 -27 -14 -9 -24 -22 -22 -28 1 -7 -4 -13&#xA;-10 -14 -7 -1 -17 -2 -22 -3 -5 0 -11 -10 -14 -22 -3 -12 -10 -18 -15 -15 -6&#xA;3 -17 -5 -26 -19 -9 -14 -13 -25 -9 -25 5 0 2 -4 -5 -8 -7 -5 -15 -29 -18 -55&#xA;-5 -36 -2 -50 13 -65 24 -25 81 -54 96 -49 7 2 -7 12 -31 22 -23 10 -47 26&#xA;-52 36 -16 28 -12 71 9 103 11 17 18 33 15 38 -3 4 -1 8 4 8 12 0 101 81 113&#xA;102 6 11 5 19 -3 24 -6 4 -8 3 -5 -3z"/>
    <path d="M10525 520 c-3 -6 1 -7 9 -4 18 7 21 14 7 14 -6 0 -13 -4 -16 -10z"/>
    <path d="M9540 396 c0 -2 7 -7 16 -10 8 -3 12 -2 9 4 -6 10 -25 14 -25 6z"/>
    <path d="M9590 365 c0 -8 17 -19 38 -26 20 -6 42 -15 47 -19 19 -15 103 -22&#xA;122 -11 14 10 9 11 -26 5 -32 -4 -42 -3 -36 5 5 8 -1 10 -21 5 -19 -5 -25 -4&#xA;-20 5 4 7 0 11 -11 11 -10 0 -35 9 -56 19 -28 14 -37 16 -37 6z"/>
  </g>
  <title>Header</title>
  <desc>Header</desc>
</svg>