<?xml version="1.0" encoding="UTF-8" standalone="yes"?>
<svg version="1.0" xmlns="http://www.w3.org/2000/svg" width="1024.000000pt" height="1024.000000pt" viewBox="0 0 1024.000000 1024.000000" preserveAspectRatio="xMidYMid meet">
  <metadata>
Created by potrace 1.16, written by Peter Selinger 2001-2019
</metadata>
  <g transform="translate(0.000000,1024.000000) scale(0.100000,-0.100000)" fill="#000000" stroke="none">
    <path d="M4450 9780 c-39 -39 -28 -61 136 -271 68 -87 124 -161 124 -163 0 -3&#xA;-26 4 -57 15 -329 114 -614 155 -1021 146 -251 -5 -368 -19 -554 -64 -156 -38&#xA;-208 -72 -194 -127 6 -23 41 -44 284 -164 l277 -137 -138 -7 c-302 -16 -583&#xA;-86 -884 -221 -238 -106 -502 -286 -519 -352 -8 -33 11 -62 48 -74 18 -6 113&#xA;-18 211 -26 163 -13 267 -26 340 -41 26 -5 23 -8 -35 -28 -224 -79 -570 -298&#xA;-778 -492 -173 -160 -359 -378 -435 -509 -52 -88 -13 -127 107 -106 107 19&#xA;480 91 500 97 9 3 -47 -59 -125 -138 -79 -79 -182 -195 -231 -258 -226 -295&#xA;-413 -646 -433 -811 -5 -39 -2 -49 14 -57 27 -15 70 6 278 137 96 61 175 108&#xA;175 106 0 -2 -25 -38 -55 -80 -210 -293 -347 -603 -429 -970 -61 -275 -66&#xA;-354 -20 -372 27 -10 65 18 209 157 77 74 158 151 179 170 l39 35 -37 -65&#xA;c-107 -186 -224 -467 -285 -685 -57 -207 -95 -481 -89 -654 3 -85 5 -95 26&#xA;-109 23 -15 25 -13 84 49 33 35 99 115 146 178 48 62 95 123 104 135 10 12 0&#xA;-24 -23 -84 -85 -225 -161 -513 -195 -740 -18 -122 -25 -408 -11 -472 6 -29&#xA;14 -39 33 -44 36 -9 52 9 184 205 63 93 116 168 118 167 1 -2 -6 -37 -17 -77&#xA;-28 -101 -58 -296 -72 -464 -18 -221 2 -458 51 -625 25 -84 44 -110 79 -110&#xA;34 0 54 22 71 75 22 71 87 227 132 320 l43 90 6 -155 c14 -319 87 -575 216&#xA;-753 39 -53 72 -67 107 -44 26 17 26 19 47 218 l13 117 32 -79 c61 -149 145&#xA;-278 253 -393 74 -77 174 -156 198 -156 27 0 53 31 53 62 0 24 -25 170 -36&#xA;213 -3 12 12 0 38 -29 166 -190 438 -338 702 -382 164 -27 185 -33 201 -64 52&#xA;-100 216 -175 525 -240 351 -74 679 -98 905 -65 112 16 154 28 205 60 72 46&#xA;119 126 120 203 l0 42 149 0 c217 0 449 34 646 94 49 15 50 15 253 -39 397&#xA;-106 554 -135 763 -142 164 -6 347 8 440 32 213 56 247 278 70 456 -64 64&#xA;-170 120 -274 146 l-68 16 79 81 c196 200 297 449 330 811 l8 80 43 -109 c60&#xA;-152 70 -172 98 -187 74 -39 144 109 159 336 9 124 -20 316 -62 420 -4 11 28&#xA;-17 71 -63 73 -77 81 -83 114 -80 45 4 61 32 61 109 0 201 -114 522 -264 740&#xA;-31 44 -56 82 -56 83 0 2 37 -12 83 -30 125 -49 132 -50 162 -20 30 30 29 37&#xA;-14 131 -38 80 -144 239 -281 421 -102 133 -111 149 -95 159 10 5 73 46 139&#xA;89 198 131 373 327 445 499 62 150 83 242 88 387 8 207 -24 341 -121 504 -80&#xA;134 -263 288 -432 362 l-66 29 6 85 c12 178 12 177 75 210 134 69 252 194 331&#xA;352 64 127 84 219 78 352 -8 157 -61 268 -169 352 l-58 46 79 57 c184 131 232&#xA;210 153 252 -30 16 -227 17 -306 1 -26 -5 -47 -7 -45 -3 2 3 27 53 55 111 60&#xA;120 93 237 94 330 1 55 -2 67 -22 83 -44 35 -106 0 -246 -140 l-92 -92 6 117&#xA;c11 220 -39 440 -145 645 -60 116 -88 147 -133 147 -50 0 -55 -17 -120 -364&#xA;l-22 -119 -34 93 c-112 311 -297 589 -498 749 -103 83 -155 99 -190 61 -20&#xA;-22 -21 -66 -7 -343 6 -125 6 -136 -8 -115 -162 248 -488 553 -758 707 -157&#xA;90 -257 113 -287 67 -18 -28 -20 -16 46 -262 27 -99 49 -184 49 -188 0 -4 -21&#xA;11 -47 33 -81 67 -242 169 -377 237 -296 151 -747 253 -816 184z m345 -150&#xA;c327 -82 655 -262 933 -514 55 -50 80 -66 102 -66 43 0 47 32 20 154 -20 92&#xA;-99 375 -116 419 -6 17 -3 17 37 -3 155 -79 345 -228 520 -408 152 -156 221&#xA;-245 326 -419 35 -59 68 -112 74 -120 14 -16 55 -17 66 0 16 25 20 167 13 387&#xA;-5 124 -6 227 -4 229 2 2 44 -36 92 -85 206 -209 388 -566 432 -850 7 -43 17&#xA;-87 22 -96 20 -40 67 -10 106 67 35 71 89 247 113 365 l23 115 22 -50 c84&#xA;-186 114 -440 78 -670 -27 -177 -29 -211 -9 -219 12 -4 33 3 58 19 42 29 182&#xA;164 267 260 60 67 60 66 -2 -93 -28 -72 -65 -141 -125 -228 -46 -70 -82 -132&#xA;-79 -140 7 -19 32 -18 97 5 89 30 359 81 359 67 0 -2 -55 -41 -122 -87 -154&#xA;-103 -290 -203 -390 -285 l-77 -64 -113 113 c-183 184 -324 255 -518 262 -174&#xA;7 -350 -44 -472 -136 -108 -81 -221 -229 -273 -360 l-19 -45 -35 40 c-108 120&#xA;-383 327 -540 405 -346 174 -798 207 -1167 85 -232 -77 -516 -258 -640 -410&#xA;l-38 -46 -22 65 c-75 221 -248 403 -461 485 -109 42 -189 56 -286 49 -388 -27&#xA;-658 -324 -657 -724 0 -201 82 -395 222 -529 155 -148 402 -235 631 -220 53 3&#xA;97 5 97 3 0 -2 -22 -40 -49 -85 -84 -140 -181 -391 -222 -574 -16 -70 -22&#xA;-142 -26 -288 -8 -284 16 -401 82 -408 24 -3 35 3 57 29 l28 33 0 -31 c0 -40&#xA;44 -192 71 -246 86 -169 268 -373 430 -480 177 -117 379 -208 604 -274 195&#xA;-56 330 -48 220 14 -21 12 -107 47 -190 79 -207 79 -421 182 -539 261 -243&#xA;164 -411 380 -476 613 -25 89 -36 259 -22 350 7 42 7 68 0 75 -13 14 -70 -53&#xA;-118 -138 -35 -63 -38 -66 -43 -41 -9 48 11 308 32 411 42 203 132 424 277&#xA;680 94 165 94 167 -41 147 -440 -64 -762 99 -881 446 -15 42 -19 82 -18 170 1&#xA;200 54 334 176 445 135 124 338 179 514 140 282 -62 482 -302 519 -623 7 -61&#xA;27 -98 46 -86 5 3 42 48 81 101 144 193 277 306 473 403 421 208 888 206 1303&#xA;-4 216 -110 401 -260 584 -476 60 -72 71 -65 121 71 115 318 341 499 622 499&#xA;262 0 508 -175 653 -465 54 -108 98 -237 121 -353 26 -129 44 -378 39 -543&#xA;l-3 -134 95 -50 c127 -66 213 -129 287 -208 211 -226 268 -529 156 -840 -100&#xA;-281 -352 -522 -738 -706 -44 -21 -154 -66 -245 -101 -326 -124 -325 -123&#xA;-325 -145 0 -19 7 -20 100 -21 l100 -1 23 -39 c43 -72 159 -318 209 -444 160&#xA;-400 256 -877 238 -1175 -9 -149 -39 -318 -76 -429 -72 -215 -189 -370 -406&#xA;-534 -46 -35 -83 -67 -83 -71 0 -9 96 -21 166 -21 63 0 178 -26 238 -55 67&#xA;-31 141 -96 178 -154 32 -51 37 -105 13 -151 -18 -34 -55 -59 -55 -37 0 44&#xA;-35 120 -76 165 -44 50 -147 112 -185 112 -39 0 -26 -23 55 -102 74 -73 86&#xA;-90 101 -141 9 -32 15 -60 13 -62 -7 -7 -200 -25 -209 -20 -5 4 -9 15 -9 26 0&#xA;51 -90 172 -152 205 -27 14 -78 19 -78 8 0 -4 25 -34 57 -67 52 -57 112 -161&#xA;100 -174 -10 -9 -315 27 -451 53 -114 22 -235 50 -369 85 l-37 10 77 41 c369&#xA;194 612 464 763 849 103 261 143 484 144 789 0 265 -29 449 -110 688 -38 114&#xA;-121 285 -136 279 -20 -6 -15 -41 26 -177 203 -684 140 -1344 -174 -1818 -202&#xA;-305 -521 -526 -905 -625 -204 -53 -335 -70 -547 -71 l-196 -1 -42 48 c-51 58&#xA;-116 103 -190 134 -30 12 -54 26 -53 30 1 5 20 39 42 78 84 143 121 279 120&#xA;445 0 122 -17 227 -52 323 l-25 67 64 0 c114 0 215 31 259 80 11 13 50 47 86&#xA;76 228 182 226 478 -5 770 -83 106 -189 196 -392 335 -231 159 -255 179 -336&#xA;274 -39 47 -76 85 -81 85 -18 0 2 -84 37 -154 53 -107 96 -148 302 -296 365&#xA;-261 529 -469 527 -667 -1 -55 -7 -85 -27 -129 -15 -31 -28 -55 -31 -53 -2 3&#xA;-11 37 -19 77 -18 89 -56 161 -117 224 -75 79 -104 59 -48 -31 45 -74 71 -157&#xA;77 -243 4 -65 1 -83 -18 -123 -24 -51 -77 -85 -130 -85 l-30 0 0 73 c0 125&#xA;-40 233 -110 302 -45 44 -59 41 -43 -13 45 -148 54 -188 60 -276 l6 -98 -34 7&#xA;c-19 4 -44 11 -57 16 -37 14 -119 97 -176 179 -95 134 -153 171 -359 226 -181&#xA;49 -253 72 -317 104 -86 43 -175 115 -226 183 -46 62 -124 208 -124 235 0 7&#xA;-8 12 -17 10 -42 -8 -19 -167 42 -294 39 -81 113 -167 181 -213 l46 -30 -39&#xA;-6 c-123 -20 -207 -54 -201 -83 4 -20 47 -21 238 -7 131 9 236 -2 402 -42 164&#xA;-40 201 -62 274 -166 64 -93 128 -164 154 -172 22 -7 83 -117 108 -195 32&#xA;-102 42 -163 42 -268 0 -160 -34 -279 -118 -418 l-48 -79 -103 -7 c-77 -5&#xA;-114 -12 -149 -30 -82 -40 -65 -52 84 -60 205 -11 310 -46 406 -136 59 -55 88&#xA;-107 88 -159 0 -46 -29 -103 -56 -114 -18 -6 -22 -1 -32 51 -23 108 -127 229&#xA;-212 246 -43 9 -39 -7 22 -79 59 -71 95 -144 104 -209 l6 -46 -58 -6 c-33 -4&#xA;-75 -9 -95 -11 -36 -5 -36 -5 -58 54 -27 74 -89 167 -135 203 -55 44 -124 74&#xA;-137 61 -9 -9 4 -29 47 -77 86 -96 160 -224 140 -243 -8 -9 -320 23 -461 47&#xA;-152 26 -306 64 -415 102 -117 41 -136 53 -170 100 -20 27 -55 55 -101 80&#xA;-238 129 -427 381 -506 675 -25 93 -27 111 -27 338 0 212 2 252 22 342 29 132&#xA;72 253 133 378 27 55 49 106 49 113 0 48 -97 -49 -166 -168 -160 -272 -211&#xA;-710 -123 -1055 41 -162 147 -359 264 -492 l46 -51 -77 24 c-251 77 -463 256&#xA;-602 508 -29 52 -57 98 -62 101 -5 3 -18 -3 -30 -15 -17 -17 -20 -33 -20 -107&#xA;0 -49 7 -137 15 -197 8 -61 13 -111 12 -112 -1 -1 -31 34 -67 77 -145 176&#xA;-235 386 -305 712 -7 36 -40 36 -58 -1 -29 -55 -68 -257 -83 -427 l-7 -80 -30&#xA;65 c-39 85 -82 260 -98 390 -11 102 -7 477 7 628 6 57 5 62 -13 62 -23 0 -46&#xA;-24 -100 -105 -87 -129 -191 -339 -238 -475 l-22 -65 -13 70 c-9 44 -14 134&#xA;-13 240 2 363 73 710 216 1050 30 71 53 135 50 142 -11 29 -44 9 -125 -75&#xA;-138 -142 -223 -246 -333 -407 l-68 -100 7 75 c19 223 79 497 164 755 73 222&#xA;155 405 296 663 31 57 56 109 56 117 0 29 -39 27 -78 -3 -116 -92 -366 -377&#xA;-500 -569 -31 -45 -60 -82 -63 -82 -9 -1 38 279 66 399 74 309 231 675 423&#xA;986 113 182 119 196 97 214 -22 18 -53 7 -151 -58 -114 -75 -190 -139 -341&#xA;-286 -68 -65 -123 -114 -123 -108 0 22 32 150 65 262 118 394 269 668 574&#xA;1039 57 69 101 131 99 140 -3 12 -14 16 -43 15 -52 -2 -323 -138 -482 -243&#xA;-68 -44 -123 -77 -123 -74 0 20 155 297 226 405 163 246 288 390 525 600 86&#xA;76 160 145 163 154 10 26 -12 53 -50 60 -76 14 -265 -11 -530 -70 -79 -18&#xA;-143 -29 -142 -25 11 29 148 185 255 290 306 299 629 497 1008 618 137 44 155&#xA;53 155 82 0 26 -34 46 -138 79 -152 49 -274 72 -512 98 l-65 7 70 46 c264 173&#xA;638 306 985 349 122 15 359 12 475 -5 55 -9 110 -13 122 -10 35 8 41 50 12 82&#xA;-63 69 -393 259 -619 357 -64 28 -65 29 -35 37 53 14 276 39 390 45 61 2 135&#xA;6 165 9 84 6 328 -12 464 -34 222 -37 478 -112 649 -190 48 -23 101 -41 117&#xA;-41 34 0 55 29 46 64 -11 45 -157 251 -321 453 l-26 33 33 -6 c18 -4 83 -19&#xA;143 -34z m3323 -2254 c53 -50 78 -89 97 -152 19 -62 19 -183 1 -251 -46 -172&#xA;-172 -341 -315 -421 l-38 -22 -6 108 c-4 59 -13 138 -22 176 l-15 69 84 111&#xA;c110 148 116 157 116 183 0 22 -1 23 -27 9 -31 -16 -149 -135 -178 -179 -21&#xA;-33 -25 -29 -50 38 -10 28 -31 77 -47 109 l-30 59 43 36 c23 20 94 75 158 123&#xA;l115 87 36 -21 c19 -12 54 -40 78 -62z m-310 -3338 c120 -165 236 -337 230&#xA;-343 -2 -2 -61 19 -133 46 -71 26 -142 51 -158 55 -29 6 -57 -9 -57 -31 0 -8&#xA;35 -60 78 -117 108 -142 152 -209 211 -319 62 -117 116 -249 141 -350 31 -122&#xA;28 -126 -36 -59 -61 64 -195 160 -224 160 -10 0 -23 -6 -29 -14 -12 -15 -13&#xA;-13 42 -158 36 -98 74 -250 88 -353 12 -93 6 -245 -11 -274 -8 -14 -9 -14 -10&#xA;-1 0 24 -65 153 -113 228 -40 62 -44 75 -56 172 -45 381 -188 834 -388 1234&#xA;-35 70 -63 129 -61 130 2 1 45 18 96 36 51 19 129 53 175 75 45 23 85 42 89&#xA;43 4 1 60 -71 126 -160z"/>
    <path d="M2850 7385 c-53 -17 -95 -56 -86 -80 4 -12 12 -14 33 -8 16 5 58 8&#xA;94 7 159 -1 308 -127 449 -379 103 -183 217 -273 304 -239 22 9 20 41 -3 49&#xA;-36 11 -136 131 -201 241 -142 241 -212 322 -334 383 -79 40 -180 51 -256 26z"/>
    <path d="M4920 7345 c-109 -24 -225 -88 -306 -169 -115 -115 -168 -246 -103&#xA;-254 21 -2 42 11 100 65 165 153 314 222 476 223 56 0 64 3 80 26 15 23 15 29&#xA;2 52 -33 59 -134 82 -249 57z"/>
    <path d="M6827 7346 c-53 -19 -77 -44 -77 -77 0 -47 36 -63 112 -51 139 21&#xA;265 -24 395 -143 81 -74 103 -81 103 -32 0 90 -101 211 -229 275 -67 33 -82&#xA;37 -170 39 -65 2 -108 -1 -134 -11z"/>
    <path d="M6918 6790 c-107 -18 -220 -114 -278 -235 -73 -153 -79 -370 -16&#xA;-557 l22 -68 -112 0 c-197 0 -390 -33 -557 -97 -72 -26 -128 -66 -114 -79 4&#xA;-4 58 4 120 19 190 45 236 50 437 51 165 1 216 -3 330 -24 l135 -24 -115 -17&#xA;c-63 -9 -135 -22 -160 -29 -71 -19 -202 -83 -243 -120 -47 -41 -84 -111 -92&#xA;-176 -8 -62 15 -169 53 -238 36 -68 155 -187 217 -219 86 -43 210 -77 281 -77&#xA;l65 0 -32 -60 c-46 -87 -135 -180 -210 -220 -182 -97 -447 -103 -700 -17 -150&#xA;52 -238 107 -355 222 -86 85 -204 238 -193 250 2 2 33 9 69 16 36 7 71 18 79&#xA;25 35 32 -32 74 -118 74 -140 0 -297 -98 -317 -198 -5 -26 -3 -32 11 -32 9 0&#xA;29 8 43 19 28 19 107 61 116 61 3 0 20 -28 37 -62 65 -130 204 -286 319 -360&#xA;145 -93 311 -157 475 -184 145 -23 352 -15 460 19 53 16 114 27 180 30 130 8&#xA;207 28 332 88 88 42 116 62 192 137 100 99 144 176 162 282 12 74 7 166 -14&#xA;224 -11 33 -11 49 0 95 31 136 10 232 -78 349 l-40 52 30 38 c37 46 75 137 91&#xA;220 18 90 8 307 -19 397 -49 168 -161 329 -268 387 -39 22 -150 51 -172 47 -3&#xA;-1 -27 -5 -53 -9z m130 -125 c94 -40 172 -126 232 -259 96 -212 93 -485 -8&#xA;-634 -7 -10 -21 -5 -61 22 -52 36 -139 67 -218 81 l-41 6 18 32 c30 54 41 129&#xA;30 210 -21 143 -87 227 -181 227 -58 0 -98 -29 -134 -99 l-24 -46 -1 36 c0 57&#xA;29 208 49 255 33 75 118 153 189 174 44 13 110 11 150 -5z m89 -1048 c59 -31&#xA;51 -97 -17 -132 -59 -31 -180 -49 -328 -49 -131 -1 -145 1 -158 18 -41 56 4&#xA;123 101 151 125 37 343 43 402 12z m209 -554 c-18 -151 -145 -313 -307 -391&#xA;-74 -36 -219 -79 -219 -65 0 3 11 19 26 35 34 41 68 110 90 183 10 33 22 65&#xA;26 71 5 6 35 17 67 24 78 16 187 77 258 145 32 30 60 54 62 55 2 0 0 -26 -3&#xA;-57z"/>
    <path d="M4920 6697 c-172 -58 -279 -176 -351 -387 -30 -87 -33 -106 -34 -220&#xA;0 -144 19 -242 70 -345 l31 -65 -95 0 c-115 0 -171 -13 -171 -39 0 -24 19 -31&#xA;83 -31 159 0 385 -62 601 -164 139 -66 173 -72 131 -26 -14 15 -11 18 40 29&#xA;85 19 187 75 248 137 114 113 186 319 174 494 -22 303 -206 564 -441 626 -80&#xA;21 -209 18 -286 -9z m275 -112 c119 -32 217 -120 285 -259 67 -136 85 -275 56&#xA;-429 -42 -216 -204 -355 -419 -358 -38 0 -73 9 -132 34 -44 19 -105 42 -136&#xA;51 -67 19 -108 60 -150 151 -113 241 -55 591 119 726 119 92 241 119 377 84z"/>
    <path d="M5024 6251 c-102 -46 -174 -233 -146 -376 24 -119 91 -223 158 -245&#xA;74 -25 160 36 212 149 19 41 26 77 30 148 8 161 -41 282 -131 324 -52 23 -71&#xA;23 -123 0z"/>
    <path d="M6746 4362 c-173 -157 -309 -208 -551 -206 -148 2 -241 22 -345 74&#xA;-95 48 -117 29 -50 -43 86 -94 220 -137 425 -138 158 -1 233 15 362 76 70 33&#xA;108 59 151 102 81 81 124 177 85 190 -6 2 -41 -23 -77 -55z"/>
  </g>
  <title>Jeż z małymi łapkami</title>
  <desc>Uroczy jeż z malutkimi łapkami i kolczastym grzbietem. To sympatyczne zwierzątko, które można spotkać w parku lub ogrodzie. Idealny rysunek dla najmłodszych.</desc>
</svg>