<?xml version="1.0" standalone="no"?>
<!DOCTYPE svg PUBLIC "-//W3C//DTD SVG 20010904//EN"
 "http://www.w3.org/TR/2001/REC-SVG-20010904/DTD/svg10.dtd">
<svg version="1.0" xmlns="http://www.w3.org/2000/svg"
 width="1024.000000pt" height="1024.000000pt" viewBox="0 0 1024.000000 1024.000000"
 preserveAspectRatio="xMidYMid meet">
<metadata>
Created by potrace 1.16, written by Peter Selinger 2001-2019
</metadata>
<g transform="translate(0.000000,1024.000000) scale(0.100000,-0.100000)"
fill="#000000" stroke="none">
<path d="M2506 9425 c-32 -8 -86 -30 -119 -47 -62 -34 -152 -115 -162 -149 -4
-10 -46 -46 -94 -79 -49 -33 -122 -89 -163 -124 -256 -219 -438 -573 -438
-854 0 -179 42 -294 145 -397 86 -86 229 -155 320 -155 24 0 35 -6 43 -24 17
-38 124 -86 208 -93 77 -6 160 12 203 46 l24 19 49 -57 c162 -187 290 -462
328 -706 7 -44 13 -141 14 -215 1 -215 -48 -420 -149 -620 l-43 -85 -21 47
c-25 58 -92 133 -143 159 -46 24 -128 25 -174 3 -109 -52 -169 -217 -146 -399
7 -50 6 -71 -2 -74 -6 -2 -43 -35 -81 -75 -155 -157 -183 -336 -85 -531 93
-187 254 -327 535 -470 111 -57 350 -144 438 -160 29 -6 37 -11 32 -23 -10
-28 -25 -146 -25 -210 0 -44 -9 -88 -31 -150 -184 -520 -253 -788 -274 -1062
-8 -110 -14 -152 -23 -146 -16 9 -792 20 -1324 18 -567 -2 -793 -11 -871 -34
-39 -12 -28 -13 133 -18 256 -8 1718 -8 1905 -1 88 3 161 6 162 6 1 0 3 -68 5
-150 l3 -150 -58 -134 c-49 -114 -65 -140 -104 -175 -26 -23 -65 -66 -87 -96
l-41 -55 -135 -1 c-148 -1 -260 -20 -464 -78 l-116 -33 -72 26 c-64 22 -90 26
-203 26 -130 0 -130 0 -213 -38 -82 -38 -87 -39 -242 -47 -109 -6 -185 -16
-240 -30 -83 -23 -177 -72 -220 -117 l-25 -25 51 25 c130 65 224 85 450 96
142 7 167 11 217 34 32 14 85 31 118 38 69 14 194 7 253 -14 l38 -13 -43 -13
c-24 -7 -95 -37 -156 -67 -87 -42 -128 -68 -178 -116 -80 -76 -101 -124 -79
-178 20 -47 41 -68 96 -96 91 -46 323 -93 538 -109 47 -3 103 -8 125 -10 22
-2 74 -7 115 -10 256 -21 540 -76 540 -105 0 -5 -22 -22 -49 -39 -27 -18 -52
-39 -55 -47 -23 -59 20 -127 102 -162 48 -21 203 -55 297 -66 99 -12 522 -16
625 -6 122 11 181 16 305 27 149 13 463 10 523 -5 50 -14 63 -24 42 -37 -18
-11 -11 -54 13 -69 21 -14 162 -52 282 -75 293 -58 926 -44 1135 25 70 23 90
40 90 75 0 17 -4 38 -10 48 -9 17 -2 19 88 24 198 11 509 0 717 -27 318 -41
502 -50 742 -37 114 6 242 18 283 27 88 19 190 63 243 105 64 52 123 62 482
84 138 9 293 23 345 31 155 25 250 80 250 143 0 37 -20 58 -87 88 -67 31 -72
41 -26 48 21 4 49 8 63 10 14 3 131 14 260 25 269 24 383 46 468 89 97 49 129
113 80 158 -59 54 -212 105 -363 120 l-80 9 31 16 c48 26 139 131 173 200 42
84 63 193 59 295 -2 45 -6 85 -10 88 -4 4 -41 -28 -81 -71 -125 -133 -247
-190 -387 -182 -81 5 -143 28 -256 96 l-61 36 33 72 c59 131 144 416 144 487
0 15 3 27 8 27 4 0 50 -5 102 -11 109 -12 595 -13 685 -1 l60 8 -105 14 c-76
11 -194 15 -424 14 l-318 -1 6 36 c14 79 27 301 21 381 -3 47 -8 119 -11 160
-22 344 -165 823 -353 1185 -203 392 -504 774 -856 1085 -133 117 -315 257
-391 300 l-55 32 6 77 c13 148 -33 279 -135 384 l-57 58 -6 167 c-4 125 -15
220 -41 377 -20 116 -36 215 -36 221 0 8 40 13 118 16 135 6 213 27 310 85
101 60 175 140 227 246 60 123 79 201 72 303 -9 145 -74 245 -197 303 -50 24
-66 26 -180 26 -116 0 -130 -2 -189 -28 -102 -45 -165 -90 -274 -197 -56 -54
-102 -98 -102 -97 -29 70 -101 163 -176 230 -36 31 -59 59 -59 72 0 39 -31
140 -65 212 -42 91 -107 160 -188 204 -58 31 -68 33 -162 34 -114 0 -166 -14
-288 -78 -73 -39 -80 -40 -110 -28 -18 7 -71 27 -119 45 -84 30 -88 32 -88 61
0 58 -21 107 -64 149 -127 128 -368 90 -497 -77 -38 -48 -48 -55 -125 -81
l-83 -29 -79 74 c-43 41 -101 90 -129 109 l-51 35 -4 66 c-9 126 -101 246
-244 317 -99 49 -155 63 -256 63 -110 0 -223 -26 -325 -76 l-85 -42 -66 19
c-145 40 -407 61 -557 45 l-60 -7 -38 51 c-88 116 -267 173 -421 134z m268
-114 c34 -16 79 -48 100 -70 l39 -40 -32 -26 c-17 -15 -31 -30 -31 -34 0 -4
30 -2 68 5 100 17 283 17 413 0 111 -15 220 -35 228 -42 2 -2 -11 -15 -28 -30
-29 -24 -69 -84 -56 -84 10 0 105 51 173 92 119 72 195 100 331 118 77 11 99
10 167 -5 176 -38 297 -147 312 -281 9 -84 -27 -143 -151 -241 -80 -64 -79
-83 2 -63 63 15 149 70 180 116 13 19 27 34 32 34 20 0 191 -155 246 -222 91
-112 122 -162 150 -241 45 -129 55 -194 62 -402 l6 -200 25 75 c22 67 25 91
25 230 0 125 -5 171 -22 240 -12 47 -25 93 -28 103 -13 31 15 18 64 -31 49
-50 108 -145 148 -241 l23 -56 0 37 c0 32 -22 115 -46 173 -6 14 6 8 43 -20
55 -44 153 -152 153 -168 0 -6 3 -8 6 -5 10 10 -54 124 -106 189 -71 89 -139
142 -248 196 -69 34 -99 55 -117 82 -14 19 -25 40 -25 46 0 14 115 51 200 64
174 28 389 -5 598 -91 l72 -30 -46 -51 c-44 -49 -81 -107 -68 -107 3 0 59 37
123 83 200 142 331 195 451 184 115 -10 205 -81 266 -211 53 -112 67 -194 68
-398 1 -97 3 -174 6 -172 8 9 39 146 46 207 4 31 10 57 14 57 14 0 109 -108
146 -165 l37 -59 -41 -77 c-23 -42 -42 -80 -42 -84 0 -4 76 68 169 160 186
184 229 218 341 273 71 35 80 37 175 37 89 0 106 -3 157 -28 95 -46 148 -131
148 -235 0 -190 -132 -396 -310 -484 -136 -67 -196 -75 -520 -64 -158 5 -163
5 -115 -10 28 -8 65 -21 84 -30 18 -8 52 -17 76 -21 40 -5 43 -8 48 -42 3 -20
22 -130 42 -246 33 -190 37 -229 38 -410 2 -215 -9 -303 -58 -474 -31 -106
-31 -120 -1 -84 45 53 114 216 130 306 7 38 8 38 27 22 10 -10 32 -39 48 -64
106 -166 58 -434 -135 -756 -36 -60 -77 -132 -91 -160 l-25 -50 42 40 c123
117 257 328 300 471 l13 42 50 -30 c82 -48 224 -157 357 -275 424 -375 813
-928 1001 -1426 295 -778 260 -1552 -93 -2097 -61 -94 -217 -247 -325 -317
-138 -91 -292 -149 -447 -168 l-58 -8 45 56 c101 124 171 246 221 387 26 70
66 222 66 245 0 6 -31 -48 -68 -120 -87 -167 -111 -208 -196 -335 -80 -119
-203 -248 -291 -305 -110 -72 -330 -159 -455 -179 l-35 -6 2 75 c2 112 -44
261 -101 323 -28 32 -89 62 -124 62 -62 0 -153 -85 -212 -197 -12 -24 -23 -43
-25 -43 -1 0 -1 12 1 26 6 60 -14 241 -31 274 -37 74 -104 120 -173 120 -74 0
-190 -81 -252 -175 l-20 -30 0 66 c0 57 -3 70 -25 91 l-24 24 52 52 c112 110
334 167 537 139 73 -10 47 6 -55 33 -98 26 -225 35 -283 22 l-44 -10 24 25
c29 31 90 68 148 88 71 25 247 23 335 -5 159 -50 328 -172 465 -337 105 -126
103 -124 90 -88 -22 60 -79 151 -137 220 -107 127 -243 220 -398 272 -69 23
-97 27 -208 27 l-128 1 7 55 c18 145 109 416 186 552 165 293 299 409 584 502
62 20 145 43 185 51 l74 14 -70 -1 c-115 -2 -298 -49 -408 -104 -27 -14 -51
-23 -53 -21 -7 7 168 169 249 230 203 153 379 217 597 218 162 0 272 -31 392
-112 166 -112 312 -271 408 -444 44 -80 12 15 -45 130 -57 117 -110 187 -215
281 -131 118 -230 176 -360 211 -94 24 -301 24 -400 -1 -338 -86 -665 -351
-922 -745 -155 -238 -242 -454 -278 -689 -25 -162 -28 -169 -85 -201 -58 -33
-127 -105 -151 -160 -9 -21 -32 -46 -55 -60 -79 -50 -212 -215 -250 -312 l-23
-59 -41 6 c-87 12 -83 8 -74 63 10 62 9 62 180 336 169 273 227 373 299 520
36 72 79 140 126 197 77 92 148 197 189 278 49 96 124 290 144 372 25 100 70
450 57 437 -4 -4 -25 -76 -46 -162 -92 -358 -190 -602 -305 -757 -30 -41 -55
-72 -55 -68 0 3 12 55 27 115 25 98 27 125 27 298 0 144 -4 201 -15 235 l-16
45 0 -110 c-3 -283 -78 -560 -240 -880 -63 -123 -130 -239 -313 -540 -77 -127
-128 -228 -135 -267 -2 -12 -9 -61 -15 -108 -29 -230 -80 -365 -165 -434 -37
-30 -132 -86 -147 -86 -3 0 -8 37 -11 83 -8 116 -38 204 -88 260 -94 108 -215
73 -353 -103 -22 -28 -26 -31 -21 -11 25 85 -16 231 -84 304 -56 62 -149 84
-232 56 -51 -18 -126 -76 -172 -133 -28 -36 -38 -44 -33 -26 16 50 19 150 6
180 -19 46 -56 70 -106 70 -24 0 -44 4 -44 8 0 12 128 169 157 192 l26 20 14
-20 c21 -30 29 -18 37 57 12 125 58 377 92 513 81 315 222 684 309 805 94 132
249 267 385 335 141 71 363 128 505 131 l60 1 -50 13 c-68 18 -209 18 -292 1
-226 -48 -465 -194 -605 -369 -21 -27 -38 -44 -38 -39 0 20 51 165 76 215 54
106 137 220 223 307 146 145 379 310 574 406 150 74 73 60 -131 -24 -281 -116
-522 -304 -671 -525 -90 -134 -134 -244 -195 -487 -20 -79 -65 -223 -100 -319
-101 -280 -154 -478 -207 -776 -11 -66 -22 -122 -24 -123 -2 -2 -16 5 -32 15
-15 11 -64 43 -108 73 -197 132 -478 394 -643 599 -90 112 -217 311 -278 436
-105 217 -180 514 -190 755 -6 123 4 271 18 286 2 1 21 -1 43 -6 139 -33 349
-53 540 -53 481 1 780 112 1095 409 28 27 69 52 110 67 176 66 322 161 451
294 l96 99 53 2 c70 3 151 25 274 73 347 138 660 393 834 679 143 236 201 431
188 625 -7 108 -27 189 -62 253 -14 26 -23 38 -19 28 26 -87 32 -308 11 -426
-26 -145 -92 -306 -179 -435 -201 -300 -609 -599 -936 -687 -45 -12 -83 -19
-86 -16 -3 3 11 40 31 84 39 85 84 209 84 232 0 8 -32 -35 -71 -95 -150 -226
-316 -416 -439 -499 -45 -31 -157 -94 -166 -94 -3 0 19 30 49 68 130 164 226
334 311 549 39 100 76 226 76 258 0 11 -52 -77 -116 -195 -210 -387 -327 -554
-528 -756 -245 -244 -464 -359 -772 -404 -120 -18 -440 -20 -584 -4 -161 17
-397 67 -530 111 -134 44 -330 138 -438 209 -158 106 -253 203 -319 329 -32
62 -37 80 -41 157 -4 80 -2 92 25 150 17 35 52 89 79 122 l48 58 19 -53 c12
-35 19 -78 18 -122 -2 -88 17 -124 110 -211 196 -186 513 -315 874 -357 147
-17 420 -14 540 5 311 52 574 167 805 353 323 260 636 759 766 1220 43 153 57
225 94 491 33 236 66 410 81 429 6 6 27 17 47 24 36 12 37 11 75 -32 59 -67
139 -192 201 -316 31 -62 59 -113 62 -113 12 0 -7 102 -33 173 -55 154 -127
271 -237 385 -69 71 -201 170 -213 159 -3 -3 23 -40 57 -83 34 -42 58 -80 53
-84 -17 -16 -202 -79 -279 -95 -307 -65 -667 4 -938 178 -33 22 -144 101 -246
177 -437 323 -655 447 -967 550 -230 75 -364 101 -573 107 -262 7 -472 -33
-609 -117 -125 -78 -172 -201 -117 -308 22 -43 91 -98 147 -118 43 -16 49 -22
49 -46 0 -26 -2 -27 -32 -21 -85 15 -192 75 -246 138 -79 89 -107 189 -99 354
8 174 55 305 174 486 69 104 244 288 336 353 l47 33 0 -37 c0 -50 18 -106 45
-140 l23 -28 -1 94 c-1 76 4 106 21 151 75 190 320 282 506 190z m2627 -505
c47 -20 122 -106 106 -122 -2 -2 -35 3 -73 13 -48 12 -112 17 -212 17 l-143 1
28 23 c32 26 96 61 133 73 42 12 126 10 161 -5z m-2696 -592 c219 -33 463
-109 658 -204 l84 -41 -36 -73 -36 -72 -57 47 c-80 66 -200 124 -290 139 -96
17 -226 7 -322 -24 l-76 -24 0 29 c0 44 -29 107 -59 128 -62 43 -142 64 -246
65 -89 0 -106 -3 -150 -26 -85 -45 -143 -126 -165 -233 -6 -30 -17 -55 -23
-55 -23 0 -87 50 -102 80 -72 138 129 261 455 278 155 9 237 5 365 -14z m-219
-135 c81 -31 87 -65 37 -223 -71 -228 -123 -282 -259 -274 -83 6 -127 27 -161
78 -19 27 -23 46 -23 104 1 179 63 303 167 336 43 14 177 2 239 -21z m539
-119 c38 -6 102 -25 142 -42 86 -35 199 -110 197 -129 -1 -8 -9 -53 -18 -100
-27 -150 -5 -247 73 -332 81 -87 233 -128 342 -92 80 27 168 118 220 230 37
79 42 85 59 73 10 -7 59 -42 109 -78 49 -36 90 -67 90 -70 0 -3 -35 -22 -78
-43 -87 -42 -178 -118 -245 -206 -96 -125 -176 -332 -176 -457 0 -68 14 -86
25 -31 14 68 69 226 107 304 82 167 190 278 345 355 l83 41 92 -45 c51 -25
118 -53 148 -63 68 -22 80 -32 40 -33 -17 0 -60 -14 -96 -31 -223 -105 -373
-340 -362 -568 l3 -73 -55 -11 c-223 -46 -465 -252 -702 -599 -89 -131 -173
-276 -208 -360 -104 -251 -44 -466 160 -576 l45 -25 -100 5 c-175 10 -298 47
-387 118 l-41 32 19 -29 c27 -41 125 -110 192 -135 102 -39 190 -47 493 -44
158 1 308 7 339 13 52 11 56 10 74 -11 18 -23 18 -23 -15 -30 -164 -37 -293
-51 -469 -50 -367 1 -718 95 -960 258 -92 62 -188 160 -190 196 0 3 19 -3 43
-15 51 -25 158 -29 229 -8 90 26 162 117 145 182 -4 13 7 25 38 43 53 31 139
123 197 213 220 332 283 830 161 1273 -85 311 -304 671 -484 795 -38 27 -40
31 -34 64 9 50 17 57 88 75 106 27 219 33 322 16z m558 -66 c72 -45 219 -145
290 -197 79 -58 79 -56 22 -174 -68 -140 -188 -214 -288 -180 -67 23 -124 63
-154 109 -26 39 -28 49 -27 142 0 82 5 115 26 177 29 82 64 149 79 149 5 0 28
-12 52 -26z m-962 -161 c147 -124 284 -330 385 -581 186 -462 139 -1043 -113
-1397 -58 -81 -141 -175 -154 -175 -5 0 -9 17 -9 38 -1 20 -7 66 -15 102 l-14
65 39 60 c134 207 205 434 217 690 10 204 -21 383 -98 580 -76 194 -158 332
-269 449 l-67 71 23 50 c13 28 24 56 24 63 0 19 16 14 51 -15z m2269 -529 c8
-1 27 -3 42 -3 25 -1 26 -3 21 -40 -3 -23 2 -71 12 -113 28 -111 18 -233 -17
-212 -7 4 -8 3 -4 -4 10 -17 -42 -35 -83 -28 -48 7 -80 32 -98 74 -16 39 -9
101 25 204 15 46 15 54 0 95 l-16 43 52 -6 c28 -4 58 -8 66 -10z m-540 -728
c30 -8 68 -20 85 -26 l29 -11 -64 -36 c-173 -96 -344 -277 -435 -463 -30 -62
-25 -58 69 57 194 237 447 414 656 459 87 18 260 18 335 -1 78 -20 155 -58
190 -95 l28 -30 -38 -102 c-140 -376 -351 -702 -616 -952 -56 -53 -106 -96
-110 -96 -4 0 -7 62 -7 138 0 142 -22 275 -57 341 -87 170 -283 180 -413 21
-50 -61 -82 -126 -103 -210 -20 -77 -17 -287 5 -369 9 -35 14 -66 12 -68 -3
-3 -67 -7 -143 -10 -289 -11 -469 54 -547 197 -78 143 -23 336 179 636 184
273 397 493 554 573 106 54 282 75 391 47z m-1878 -465 c62 -23 122 -124 157
-264 26 -98 32 -282 12 -319 -30 -58 -167 -82 -246 -43 -48 24 -75 73 -105
190 -28 109 -29 276 -2 337 26 59 83 108 127 108 18 0 44 -4 57 -9z m1797
-316 c62 -32 99 -103 120 -230 10 -63 8 -319 -3 -345 -13 -31 -331 -179 -348
-162 -5 5 -22 49 -39 98 -54 153 -49 365 10 500 22 48 75 110 116 136 36 22
105 23 144 3z m-1159 -2210 c62 -180 126 -310 234 -475 141 -214 325 -418 559
-620 37 -32 38 -34 32 -89 -2 -31 -7 -120 -10 -197 -8 -211 -45 -334 -132
-442 -19 -23 -52 -51 -73 -62 -31 -16 -171 -60 -190 -60 -3 0 -5 35 -5 78 -1
146 -61 274 -149 316 -47 22 -118 20 -167 -5 -52 -26 -121 -89 -156 -143 l-28
-42 0 111 c0 98 -3 116 -26 166 -22 47 -34 60 -74 79 -36 17 -56 21 -91 16
-74 -10 -154 -54 -220 -121 -106 -108 -155 -196 -172 -308 l-8 -52 -19 30
c-24 36 -25 128 -2 193 36 102 158 264 235 313 52 33 73 59 47 59 -9 0 -14 6
-12 13 3 6 17 47 32 90 26 76 28 78 46 61 11 -9 22 -15 25 -11 3 3 1 60 -5
125 -6 66 -11 161 -11 211 l0 91 40 -29 c21 -15 71 -38 110 -51 130 -42 304
-16 410 61 23 17 40 32 38 35 -3 2 -32 -7 -65 -20 -138 -57 -304 -60 -433 -9
-41 17 -78 37 -83 45 -6 8 -7 40 -3 72 7 53 9 56 24 43 25 -22 112 -64 151
-72 85 -18 208 2 257 43 26 22 53 73 56 105 3 30 -43 108 -83 142 -18 14 -64
43 -103 63 -66 34 -78 37 -157 37 l-86 0 38 146 c21 80 60 211 85 290 l47 144
24 -111 c12 -61 46 -178 73 -259z m-101 -264 c77 -24 200 -100 234 -145 26
-33 26 -34 8 -67 -55 -104 -263 -118 -415 -28 -28 16 -36 27 -36 49 0 49 31
195 43 202 22 14 104 8 166 -11z m1100 -998 c43 -32 103 -72 132 -89 l53 -32
-32 -16 c-20 -10 -70 -19 -137 -23 l-105 -6 0 111 c0 62 2 112 5 112 3 0 40
-26 84 -57z m5367 -154 c-46 -178 -178 -304 -371 -354 -166 -43 -375 1 -495
104 l-44 39 35 43 c19 24 59 81 88 127 29 45 55 82 57 82 2 0 31 -18 65 -40
123 -79 259 -112 378 -91 85 15 188 64 251 120 25 21 46 38 48 36 2 -2 -4 -31
-12 -66z m-6559 -34 c42 -29 57 -94 50 -215 -6 -105 -41 -285 -58 -304 -5 -6
-44 -5 -101 3 -155 20 -270 54 -290 85 -12 18 -9 88 7 140 38 124 164 266 263
296 44 13 106 11 129 -5z m1211 -45 l43 0 -30 -37 c-16 -21 -51 -72 -78 -114
-26 -42 -67 -104 -90 -139 -109 -160 -112 -307 -9 -398 105 -92 342 -176 616
-217 145 -22 452 -31 565 -16 271 36 422 125 501 296 35 76 64 178 64 229 0
28 1 28 38 22 20 -3 47 -6 59 -6 18 0 23 -8 29 -37 9 -51 26 -82 66 -120 49
-46 129 -90 226 -123 541 -183 1135 -145 1484 94 59 40 69 43 148 49 85 7 105
9 190 28 186 40 399 148 516 260 l40 39 42 -39 c92 -84 221 -131 377 -136 103
-4 168 5 268 36 83 25 133 22 302 -21 121 -30 225 -75 225 -97 0 -19 -85 -71
-145 -89 -59 -17 -200 -40 -305 -49 -334 -27 -490 -60 -490 -103 0 -24 20 -42
95 -84 33 -19 61 -41 63 -50 8 -43 -142 -72 -533 -103 -372 -30 -406 -37 -542
-123 -120 -76 -297 -98 -693 -88 -146 3 -335 13 -420 20 -85 8 -211 20 -280
27 -157 14 -573 6 -645 -13 -42 -11 -50 -17 -53 -39 -2 -14 4 -31 12 -39 46
-38 -18 -63 -217 -85 -162 -18 -634 -21 -802 -5 -114 11 -259 33 -333 52 -37
9 -42 13 -36 32 21 63 -7 89 -119 111 -101 19 -366 19 -552 0 -404 -42 -882
-23 -1132 44 -45 12 -93 46 -93 65 0 7 24 31 53 52 84 63 75 113 -29 160 -86
38 -261 67 -594 99 -273 26 -420 45 -514 66 -219 48 -266 105 -166 201 139
134 688 320 987 335 l122 6 -24 -59 c-32 -76 -35 -193 -6 -239 50 -81 153
-138 334 -184 333 -85 846 -55 1095 65 69 34 145 110 183 185 34 68 69 195 69
253 l0 39 38 -7 c20 -3 56 -6 80 -6z m-773 -113 c27 -15 49 -40 70 -77 28 -51
30 -62 30 -162 0 -58 -3 -109 -6 -113 -13 -13 -190 -25 -321 -23 l-137 3 28
83 c51 148 125 246 216 288 62 29 70 29 120 1z m3126 -24 c51 -43 60 -77 60
-236 1 -141 -4 -192 -23 -255 l-10 -33 -56 6 c-94 11 -232 45 -308 76 l-71 30
12 62 c7 34 22 84 34 111 46 105 153 228 222 255 48 19 105 13 140 -16z m-395
-27 c5 -30 -24 -150 -82 -335 -3 -11 -11 -8 -30 10 -63 58 -69 128 -20 234 43
94 67 125 98 125 23 0 28 -5 34 -34z m-1811 -41 c41 -40 40 -46 -71 -359 -13
-37 -27 -86 -30 -107 -4 -22 -11 -39 -17 -39 -18 0 -112 58 -139 87 -72 76
-48 199 69 347 74 95 140 120 188 71z m416 -78 c90 -61 122 -186 92 -362 -17
-104 -41 -175 -61 -182 -35 -14 -448 61 -474 86 -13 12 21 143 53 200 124 220
286 328 390 258z m2229 -45 c50 -49 74 -128 75 -242 0 -133 15 -124 -197 -117
-99 4 -183 9 -186 12 -7 7 21 116 49 191 42 113 122 193 193 194 20 0 40 -11
66 -38z m-1776 -146 c18 -7 43 -27 54 -44 44 -60 66 -210 41 -279 -8 -26 -17
-32 -52 -37 -81 -12 -264 -19 -320 -12 l-56 7 25 70 c50 138 135 257 209 290
48 22 57 23 99 5z"/>
<path d="M2534 9203 c-12 -2 -39 -19 -59 -36 -32 -28 -38 -40 -42 -82 -4 -41
-1 -55 18 -79 19 -25 27 -28 62 -23 43 6 87 40 87 69 0 19 -25 24 -49 9 -36
-23 -56 22 -23 52 25 23 39 21 67 -8 22 -21 25 -33 25 -101 0 -70 1 -75 17
-63 23 20 53 89 53 124 0 39 -33 111 -57 123 -24 12 -73 19 -99 15z"/>
<path d="M3965 9036 c-75 -24 -130 -59 -197 -126 -79 -79 -87 -105 -30 -96
129 20 144 19 236 -13 118 -41 161 -40 212 5 50 45 60 130 22 179 -45 58 -151
80 -243 51z m146 -96 c27 -15 24 -48 -7 -62 -20 -9 -38 -8 -89 5 -35 9 -73 17
-86 17 -29 0 -17 11 34 32 48 19 119 23 148 8z"/>
<path d="M5879 8176 c-82 -29 -153 -76 -201 -133 -50 -59 -48 -73 3 -29 85 72
206 111 323 104 99 -7 165 -38 226 -106 28 -31 50 -60 50 -64 0 -4 5 -8 11 -8
16 0 4 52 -23 107 -67 134 -226 187 -389 129z"/>
<path d="M5763 7990 c-54 -11 -139 -53 -181 -89 l-34 -29 150 6 c133 4 157 2
219 -17 110 -33 219 -115 286 -213 44 -65 62 -64 53 4 -15 109 -91 219 -194
282 -99 59 -191 77 -299 56z"/>
<path d="M7311 7913 c-19 -10 -87 -68 -150 -131 -126 -124 -205 -181 -333
-243 l-83 -39 59 6 c32 3 81 13 110 22 35 11 89 16 171 17 109 0 125 3 177 27
102 48 185 141 202 227 8 44 -10 108 -34 121 -28 15 -80 12 -119 -7z m94 -73
c9 -27 -11 -87 -43 -129 -34 -46 -148 -98 -232 -105 -63 -6 -64 -6 -40 10 14
10 69 62 123 116 124 126 177 156 192 108z"/>
<path d="M5755 7696 c93 -30 191 -89 320 -196 71 -58 77 -61 60 -31 -77 131
-255 243 -385 240 l-35 0 40 -13z"/>
<path d="M6542 5510 c-138 -181 -377 -397 -617 -559 -475 -320 -1258 -687
-1684 -787 -299 -71 -571 -46 -764 70 -42 26 -54 30 -47 16 29 -54 170 -134
290 -165 164 -41 418 -27 640 37 102 29 294 96 355 123 17 7 107 47 200 88
382 169 836 414 1045 563 265 189 525 461 624 652 9 17 15 32 14 32 -2 0 -27
-31 -56 -70z"/>
<path d="M4807 2929 c-37 -9 -127 -46 -127 -53 0 -2 26 3 58 11 60 14 185 18
249 8 132 -23 285 -103 406 -213 41 -39 32 -14 -16 46 -80 98 -207 176 -325
201 -62 13 -190 13 -245 0z"/>
<path d="M4768 2671 c148 -137 342 -183 490 -116 34 15 69 37 79 48 17 20 17
20 -2 12 -109 -43 -229 -50 -335 -21 -36 10 -108 39 -160 64 -124 60 -122 60
-72 13z"/>
<path d="M4640 2596 c0 -19 44 -78 87 -116 158 -138 433 -172 623 -75 50 25
93 66 55 51 -11 -4 -58 -17 -105 -28 -120 -29 -292 -21 -402 17 -78 27 -180
86 -230 133 -16 14 -28 22 -28 18z"/>
<path d="M4901 6973 c-1 -17 16 -25 25 -12 4 7 3 9 -4 5 -5 -3 -13 0 -15 6 -4
9 -6 10 -6 1z"/>
<path d="M1085 2394 c-16 -3 -100 -21 -185 -41 -90 -20 -184 -36 -227 -37 -80
-1 -83 -10 -8 -23 70 -13 152 -7 270 19 73 16 133 22 225 22 109 1 139 -3 240
-31 151 -41 174 -44 299 -44 83 0 146 8 286 36 100 20 231 40 295 44 l115 7
-54 17 c-77 24 -184 21 -331 -9 -150 -31 -355 -42 -456 -25 -38 7 -114 23
-169 36 -99 24 -242 37 -300 29z"/>
<path d="M661 1334 c-25 -32 -26 -55 -5 -99 31 -65 109 -104 269 -134 112 -20
187 -27 445 -36 227 -9 389 -39 494 -92 l50 -25 -15 23 c-25 38 -134 88 -239
109 -139 27 -161 29 -515 46 -126 6 -240 21 -327 44 -126 34 -186 105 -142
168 21 31 10 28 -15 -4z"/>
<path d="M9455 945 c-163 -78 -281 -95 -710 -105 -429 -9 -401 -4 -765 -140
-189 -70 -383 -96 -670 -87 l-185 5 90 -19 c136 -29 332 -35 498 -14 140 16
208 35 477 131 139 49 253 63 535 65 266 2 362 10 498 44 105 26 233 84 269
122 26 28 26 28 -37 -2z"/>
<path d="M1900 803 c0 -19 81 -85 136 -110 121 -55 297 -74 609 -65 411 13
609 8 735 -18 85 -17 95 -9 20 16 -159 54 -198 57 -715 58 -456 2 -484 3 -560
23 -99 27 -173 58 -202 85 -13 12 -23 17 -23 11z"/>
</g>
</svg>
