<?xml version="1.0" encoding="UTF-8" standalone="yes"?>
<svg version="1.0" xmlns="http://www.w3.org/2000/svg" width="1024.000000pt" height="1024.000000pt" viewBox="0 0 1024.000000 1024.000000" preserveAspectRatio="xMidYMid meet">
  <metadata>
Created by potrace 1.16, written by Peter Selinger 2001-2019
</metadata>
  <g transform="translate(0.000000,1024.000000) scale(0.100000,-0.100000)" fill="#000000" stroke="none">
    <path d="M6350 9578 c-23 -38 -34 -104 -60 -369 -11 -113 -25 -220 -31 -239&#xA;l-12 -33 -17 54 c-32 104 -102 228 -142 253 -13 8 -21 7 -30 -2 -16 -16 -17&#xA;-174 -4 -337 l9 -109 -65 51 c-65 51 -83 62 -227 139 -126 67 -279 156 -401&#xA;232 -63 40 -125 72 -137 72 -13 0 -39 -6 -57 -14 -45 -19 -71 -90 -88 -235&#xA;-10 -93 -9 -126 4 -222 30 -209 107 -387 215 -496 l62 -62 -67 -20 c-99 -28&#xA;-177 -33 -265 -17 -81 16 -112 29 -194 83 -29 19 -58 31 -64 27 -8 -4 -10 -28&#xA;-6 -71 9 -116 95 -253 191 -304 25 -13 46 -27 46 -30 0 -4 -21 -10 -47 -14&#xA;-91 -13 -223 -94 -343 -210 -127 -123 -164 -153 -203 -170 -43 -18 -89 -11&#xA;-134 19 -37 24 -53 54 -53 101 0 47 -14 51 -44 12 -77 -100 -53 -327 45 -425&#xA;72 -73 198 -118 299 -109 l55 5 -68 -23 c-159 -54 -298 -185 -373 -350 -25&#xA;-54 -29 -105 -9 -112 6 -2 21 7 35 19 68 62 222 139 317 158 31 7 64 14 73 17&#xA;8 2 -19 -13 -60 -34 -91 -47 -208 -159 -263 -253 -60 -103 -81 -184 -75 -295&#xA;6 -108 35 -182 117 -295 49 -67 82 -126 95 -167 7 -21 4 -23 -26 -23 -49 0&#xA;-231 50 -428 119 -97 33 -218 68 -270 77 -193 33 -473 -11 -637 -100 -65 -35&#xA;-73 -35 -50 -1 17 25 40 88 72 194 22 76 28 105 42 206 7 58 3 247 -7 311 -48&#xA;302 -280 555 -565 617 -345 75 -718 -50 -931 -311 -77 -95 -54 -123 58 -69&#xA;107 52 216 72 373 71 143 -2 243 -24 378 -86 76 -35 82 -48 10 -24 -109 35&#xA;-275 58 -373 53 -137 -8 -194 -26 -385 -121 -196 -98 -234 -108 -285 -74 -51&#xA;34 -74 88 -78 185 -5 95 14 160 84 290 48 88 52 103 29 103 -17 0 -119 -81&#xA;-155 -124 -99 -115 -148 -202 -200 -352 -29 -85 -35 -115 -44 -253 -13 -181&#xA;74 -360 208 -428 68 -34 194 -51 341 -45 66 2 117 2 114 -2 -3 -3 -51 -16&#xA;-106 -29 -127 -30 -291 -29 -389 4 -141 46 -297 179 -360 309 -22 43 -42 79&#xA;-46 79 -31 3 -49 -261 -24 -359 38 -147 127 -292 239 -386 135 -115 321 -158&#xA;519 -120 40 8 82 18 93 22 37 13 -109 -96 -165 -124 -48 -23 -66 -27 -137 -26&#xA;-46 1 -83 -2 -83 -6 0 -4 15 -21 34 -38 44 -39 138 -57 215 -43 84 17 245 101&#xA;376 198 66 48 145 105 176 126 64 43 161 77 223 77 152 0 276 -115 276 -255 0&#xA;-17 -26 -83 -59 -150 -114 -234 -154 -396 -190 -780 -29 -298 -70 -445 -140&#xA;-494 -36 -26 -53 -26 -152 -1 -44 11 -96 21 -115 22 -52 2 -96 -46 -159 -177&#xA;-49 -101 -79 -186 -165 -475 -70 -233 -191 -430 -294 -478 -46 -22 -56 -40&#xA;-56 -106 l0 -40 -27 26 c-16 15 -47 34 -71 43 -36 15 -50 15 -90 6 -111 -28&#xA;-251 -168 -328 -329 -56 -116 -74 -186 -74 -279 0 -86 25 -148 66 -163 68 -26&#xA;313 6 490 65 23 8 79 21 125 31 198 39 320 96 396 184 54 62 64 88 148 380 16&#xA;52 43 132 62 178 65 160 201 387 281 471 l37 39 100 -5 c172 -10 412 47 576&#xA;136 91 49 213 151 272 227 44 55 119 186 148 258 9 22 21 42 27 44 20 6 53&#xA;-109 59 -208 11 -178 -46 -293 -200 -407 -70 -52 -101 -111 -99 -190 3 -114&#xA;35 -189 199 -473 187 -323 237 -460 272 -736 11 -92 41 -158 82 -183 17 -11&#xA;58 -24 91 -30 91 -16 90 -14 82 -157 -6 -113 -5 -126 15 -167 34 -70 102 -112&#xA;216 -132 22 -4 49 -10 60 -12 41 -10 203 -19 310 -18 232 3 292 79 204 259&#xA;-46 94 -189 269 -267 325 -80 58 -89 73 -103 162 -16 103 -38 143 -125 229&#xA;-122 119 -204 252 -282 461 -65 172 -77 264 -44 329 13 26 51 56 169 130 84&#xA;52 191 127 239 165 48 39 93 74 100 80 8 6 42 5 96 -3 177 -28 216 -32 298&#xA;-35 78 -2 203 11 240 27 9 3 29 -7 50 -25 19 -17 51 -43 70 -58 85 -63 383&#xA;-315 461 -389 93 -88 101 -103 148 -257 38 -126 74 -178 196 -291 112 -103&#xA;180 -190 230 -295 42 -89 59 -175 75 -374 12 -148 25 -201 58 -239 9 -10 54&#xA;-43 99 -72 98 -64 113 -83 113 -149 0 -65 16 -167 34 -230 18 -61 80 -129 140&#xA;-155 111 -47 382 -79 513 -60 176 26 243 64 243 139 0 29 -86 191 -127 241&#xA;-54 65 -189 198 -253 250 -77 61 -126 124 -140 179 -28 109 -45 144 -105 228&#xA;-34 48 -72 97 -82 108 -26 27 -122 158 -160 220 -81 129 -126 266 -138 420 -9&#xA;127 -33 251 -57 299 -25 49 -91 131 -133 165 -16 13 -68 63 -115 110 -62 64&#xA;-95 107 -122 161 -30 61 -68 152 -68 165 0 1 31 13 70 25 l69 22 42 -36 c24&#xA;-20 47 -36 51 -36 5 0 30 -14 56 -32 75 -51 149 -77 221 -78 84 0 160 21 305&#xA;84 171 75 283 112 421 139 l120 24 23 -33 c34 -51 109 -204 121 -249 17 -64&#xA;13 -141 -10 -186 -11 -22 -45 -67 -75 -101 -54 -57 -56 -62 -52 -106 3 -26 7&#xA;-54 11 -62 6 -13 -7 -15 -83 -17 -76 -3 -97 -7 -129 -27 -130 -83 -194 -299&#xA;-147 -500 50 -214 243 -385 375 -335 23 9 211 196 211 210 0 3 11 19 25 35 14&#xA;16 53 72 86 125 69 113 90 140 188 245 159 172 182 278 111 510 -78 261 -84&#xA;301 -85 619 -1 254 -3 296 -19 340 -36 100 -108 170 -211 206 -67 23 -105 21&#xA;-273 -16 -173 -37 -305 -55 -414 -55 -54 0 -98 2 -98 5 0 2 12 30 26 62 65&#xA;145 100 310 90 430 -11 150 -36 244 -125 483 -24 63 -31 94 -26 120 3 19 12&#xA;73 20 120 25 154 34 198 61 327 47 228 106 399 155 451 40 43 137 41 196 -4&#xA;19 -15 73 -77 119 -140 46 -62 108 -134 137 -159 136 -122 318 -151 479 -76&#xA;87 40 187 142 225 227 23 54 31 64 53 64 14 0 63 8 108 17 77 16 84 16 93 1 5&#xA;-9 38 -51 73 -95 52 -63 96 -137 96 -159 0 -2 -12 -4 -27 -4 -80 -1 -199 -97&#xA;-246 -200 -38 -83 -48 -225 -24 -337 17 -78 90 -241 112 -249 25 -10 56 17 76&#xA;64 13 31 53 81 119 147 134 135 155 180 155 325 -1 91 -4 113 -28 169 -39 92&#xA;-113 218 -166 280 l-46 54 140 -73 c194 -102 256 -145 363 -252 l93 -94 -20&#xA;-45 c-41 -93 -37 -194 13 -302 33 -72 84 -127 201 -220 133 -106 157 -127 178&#xA;-160 11 -17 26 -27 41 -27 40 0 45 12 76 180 26 141 7 308 -47 397 -71 119&#xA;-150 172 -301 202 -81 17 -85 19 -132 72 -27 30 -49 56 -50 59 0 3 36 5 80 6&#xA;69 0 87 5 144 34 52 26 79 49 128 109 34 42 93 108 131 148 45 46 68 78 65 90&#xA;-8 45 -212 99 -341 90 -183 -11 -338 -118 -383 -262 l-17 -53 -111 58 c-94 49&#xA;-145 70 -255 106 -9 3 0 12 25 25 46 25 145 118 183 174 108 157 143 453 73&#xA;622 -45 109 -88 155 -189 199 -50 23 -78 27 -218 34 -184 10 -243 23 -370 85&#xA;-140 68 -128 40 -116 277 10 207 9 265 -10 345 -12 58 -73 191 -100 219 l-20&#xA;21 128 6 c148 6 216 25 315 89 80 52 110 85 98 109 -8 14 -16 15 -47 8 -61&#xA;-14 -208 -10 -286 7 -96 21 -103 32 -22 33 211 3 400 128 451 299 34 110 5&#xA;253 -62 312 -19 17 -39 28 -43 25 -5 -2 -12 -20 -15 -38 -15 -82 -91 -157&#xA;-158 -157 -46 0 -125 49 -222 136 -180 163 -240 204 -341 236 -52 16 -198 38&#xA;-255 38 -80 0 -345 -46 -426 -74 l-69 -24 -25 51 c-36 74 -161 197 -239 235&#xA;-84 42 -115 42 -141 0z m137 -87 c22 -16 56 -49 75 -72 44 -55 112 -158 107&#xA;-162 -106 -79 -251 -173 -279 -182 l-23 -7 7 108 c17 277 29 344 60 344 7 0&#xA;31 -13 53 -29z m928 -251 c120 -32 168 -63 305 -196 69 -66 139 -130 155 -141&#xA;35 -24 126 -53 169 -53 28 -1 29 -2 11 -12 -11 -7 -47 -12 -80 -12 -93 1 -141&#xA;30 -311 194 -78 74 -110 97 -187 134 -134 63 -219 79 -406 75 -130 -4 -148 -2&#xA;-122 8 88 36 338 38 466 3z m-2092 -105 c78 -54 281 -172 402 -232 100 -50&#xA;197 -107 235 -138 44 -36 122 -119 135 -146 27 -51 57 -194 56 -266 -1 -55 3&#xA;-73 13 -73 24 0 33 23 46 111 l12 86 38 12 c20 6 71 11 113 11 100 0 203 -33&#xA;332 -106 122 -70 214 -116 286 -144 155 -60 359 -71 359 -19 0 5 -17 17 -38&#xA;28 -70 36 -167 154 -203 247 -9 25 -8 25 38 -10 132 -100 268 -165 380 -182&#xA;64 -9 132 -78 178 -177 49 -107 56 -151 62 -386 l6 -215 -30 35 c-54 62 -76&#xA;122 -78 219 -2 135 -5 160 -19 160 -29 0 -56 -117 -51 -218 6 -135 126 -296&#xA;275 -369 175 -86 234 -101 440 -112 220 -11 287 -49 337 -192 67 -193 11 -460&#xA;-127 -600 -152 -154 -399 -191 -660 -101 -206 72 -417 227 -571 422 l-51 65&#xA;58 5 c44 4 58 9 60 22 5 38 -93 83 -155 72 -76 -14 -151 -71 -151 -115 0 -28&#xA;16 -31 52 -10 58 33 77 35 87 9 5 -13 37 -66 72 -118 35 -52 81 -131 102 -175&#xA;75 -153 142 -260 202 -321 52 -53 71 -65 129 -83 121 -37 189 -25 272 50 48&#xA;43 84 62 84 43 0 -20 -71 -126 -110 -165 -65 -65 -141 -92 -241 -87 -135 8&#xA;-214 62 -336 230 -116 162 -155 195 -275 228 -64 18 -87 20 -183 13 -60 -4&#xA;-173 -8 -250 -8 -127 1 -148 3 -225 30 -47 15 -101 37 -120 48 -210 117 -350&#xA;339 -395 622 -12 75 -33 301 -36 379 0 14 -5 7 -14 -17 -26 -69 -38 -206 -32&#xA;-352 9 -218 49 -335 166 -492 115 -156 251 -249 436 -299 55 -15 150 -47 211&#xA;-71 61 -23 120 -43 131 -43 29 0 34 -10 19 -39 -28 -53 -90 -287 -116 -436&#xA;-61 -352 -92 -550 -111 -722 -5 -46 -18 -128 -30 -183 -11 -56 -19 -105 -17&#xA;-110 5 -17 61 61 84 119 13 31 36 108 50 171 l28 115 28 -90 c78 -248 77 -398&#xA;-1 -602 -81 -209 -283 -449 -504 -597 -144 -96 -367 -199 -396 -182 -5 3 -14&#xA;34 -21 69 -11 63 -11 64 38 213 70 208 87 305 85 484 -2 258 -99 509 -290 748&#xA;-50 63 -151 162 -164 162 -17 0 -8 -19 55 -111 137 -200 236 -398 277 -558 13&#xA;-47 22 -125 26 -206 7 -164 -12 -286 -71 -473 -25 -76 -47 -153 -51 -173 -6&#xA;-35 14 -169 34 -221 5 -14 8 -28 6 -30 -6 -6 76 -193 117 -266 20 -38 76 -102&#xA;168 -192 195 -192 198 -197 220 -425 26 -265 116 -472 295 -680 146 -170 177&#xA;-219 205 -330 25 -98 71 -161 180 -247 43 -35 79 -65 79 -68 1 -4 -25 -11 -56&#xA;-18 -127 -27 -254 -95 -345 -186 -32 -32 -61 -56 -65 -53 -14 14 -33 129 -33&#xA;200 0 52 -6 91 -16 113 -20 41 -78 93 -151 134 -30 17 -64 47 -78 68 -24 36&#xA;-26 48 -30 193 -5 177 -23 277 -65 367 -48 103 -132 223 -201 287 -152 142&#xA;-183 179 -211 251 -15 39 -34 101 -43 139 -19 85 -39 117 -113 186 -117 109&#xA;-299 267 -368 319 -86 65 -174 140 -228 195 -77 78 -124 179 -271 578 -70 192&#xA;-102 229 -92 105 12 -132 127 -503 191 -617 20 -35 35 -66 32 -68 -2 -3 -65&#xA;-4 -139 -4 -471 2 -939 167 -1196 421 -185 184 -293 460 -295 755 0 66 6 154&#xA;13 195 22 126 85 330 114 368 22 28 -10 9 -40 -24 -102 -115 -174 -392 -170&#xA;-649 3 -149 23 -254 74 -381 l24 -61 -47 -104 c-48 -105 -105 -205 -153 -268&#xA;-49 -65 -173 -161 -266 -206 -151 -74 -395 -124 -551 -112 -65 5 -77 3 -101&#xA;-16 -41 -32 -69 -63 -128 -143 -139 -187 -239 -416 -334 -763 -48 -174 -128&#xA;-245 -336 -299 -345 -89 -319 -84 -331 -67 -17 23 -34 130 -34 211 1 114 36&#xA;225 94 297 l23 28 56 -51 c32 -29 57 -58 57 -66 0 -8 4 -14 9 -14 10 0 19 63&#xA;24 154 2 47 4 50 35 58 40 11 128 96 175 169 62 98 116 216 157 346 101 319&#xA;137 424 176 503 57 118 56 118 154 85 165 -57 268 -8 339 161 41 98 60 209 81&#xA;459 21 244 50 390 111 550 98 255 222 428 409 568 117 87 204 133 330 170 238&#xA;72 437 61 700 -38 212 -81 384 -124 489 -125 l34 0 -6 -45 c-4 -25 -13 -58&#xA;-20 -73 -24 -46 -11 -54 41 -28 53 28 114 86 141 137 16 30 24 35 72 40 103&#xA;13 250 88 331 171 109 111 212 293 308 548 16 41 46 118 68 170 42 102 74 193&#xA;145 415 213 662 202 628 267 914 l36 164 70 17 c38 9 75 20 82 24 7 4 19 2 27&#xA;-4 8 -6 19 -9 26 -5 28 18 -21 156 -107 302 -88 148 -177 244 -351 380 -49 37&#xA;-108 86 -131 108 -50 46 -66 50 -70 17 -6 -37 35 -90 203 -262 89 -91 186&#xA;-196 217 -235 69 -89 170 -236 165 -241 -2 -3 -36 -5 -74 -5 -200 -2 -455 138&#xA;-556 303 -28 46 -84 186 -101 254 -22 86 -33 338 -16 390 24 75 34 75 143 -1z&#xA;m1603 -185 c87 -42 171 -127 214 -216 17 -36 30 -67 28 -69 -2 -2 -29 31 -60&#xA;73 -32 42 -80 95 -107 117 -84 66 -202 105 -320 105 -46 0 -71 4 -65 9 14 14&#xA;60 19 155 17 76 -2 95 -6 155 -36z m-307 -185 c154 -32 250 -101 376 -270 97&#xA;-131 88 -128 -73 28 -93 90 -146 132 -197 159 -70 36 -217 78 -273 78 -16 0&#xA;-51 3 -78 7 l-49 7 35 7 c52 9 175 2 259 -16z m-1220 -929 c-2 -2 -60 -18&#xA;-129 -35 -218 -54 -418 -143 -560 -247 -89 -66 -171 -110 -223 -118 -46 -7&#xA;-47 1 -2 19 49 21 106 59 218 145 217 166 284 197 507 233 33 6 195 8 189 3z&#xA;m-119 -385 c-44 -63 -205 -177 -280 -199 -19 -6 -55 -13 -79 -15 -41 -5 -37&#xA;-2 70 58 63 35 157 92 209 127 52 35 97 63 99 61 2 -1 -7 -16 -19 -32z m-2865&#xA;-361 c141 -29 247 -83 340 -174 80 -78 111 -132 154 -264 29 -91 38 -168 33&#xA;-312 -3 -132 -20 -168 -20 -45 0 86 -7 180 -17 235 -31 162 -69 238 -171 341&#xA;-112 113 -230 168 -414 193 -93 13 -292 13 -334 0 -11 -4 -18 -3 -14 1 16 17&#xA;156 42 247 44 67 2 127 -4 196 -19z m2686 -244 c-35 -36 -90 -74 -160 -112&#xA;-244 -132 -352 -220 -458 -376 -26 -37 -48 -66 -51 -64 -7 7 46 115 83 172 66&#xA;99 219 220 345 273 82 34 210 106 250 139 55 47 49 27 -9 -32z m-3068 -446&#xA;c96 -18 179 -63 264 -143 68 -65 133 -144 133 -163 0 -4 -21 13 -47 38 -60 55&#xA;-233 169 -293 192 -47 19 -335 56 -434 56 -33 0 -57 3 -54 6 22 21 331 31 431&#xA;14z m5549 -21 c58 -35 187 -92 231 -103 24 -6 27 -11 27 -51 l0 -45 -42 0&#xA;c-56 0 -134 37 -178 84 -32 34 -105 146 -95 146 2 0 28 -14 57 -31z m1797 -30&#xA;c64 -14 66 -18 34 -53 -16 -17 -60 -72 -97 -123 -54 -74 -77 -97 -119 -117&#xA;-56 -29 -90 -31 -184 -15 l-64 11 108 72 c60 39 128 80 151 90 48 22 58 50 15&#xA;40 -75 -16 -130 -40 -217 -95 -107 -67 -132 -74 -121 -31 12 49 34 86 78 131&#xA;91 94 247 128 416 90z m-4513 -151 c-20 -24 -66 -77 -102 -118 -36 -41 -86&#xA;-108 -111 -147 -26 -40 -48 -72 -49 -70 -2 1 4 27 13 57 28 96 99 186 228 288&#xA;28 22 52 38 54 36 2 -2 -13 -23 -33 -46z m3643 -345 c-12 -63 -37 -138 -64&#xA;-193 -34 -68 -39 -90 -22 -90 38 0 113 124 143 235 23 86 26 85 48 -13 31&#xA;-133 0 -208 -146 -360 -57 -59 -106 -108 -109 -110 -13 -6 -49 132 -55 211&#xA;-13 167 38 291 142 346 63 34 73 29 63 -26z m758 -130 c28 -10 62 -36 101 -77&#xA;63 -68 89 -132 99 -246 5 -53 -10 -196 -21 -207 -3 -3 -25 12 -48 33 -24 22&#xA;-68 58 -98 81 -166 122 -256 284 -220 394 l13 39 36 -42 c20 -22 47 -58 61&#xA;-79 81 -121 140 -185 140 -151 0 37 -54 151 -116 246 -22 33 -23 38 -8 31 11&#xA;-4 38 -14 61 -22z m-1728 -1453 c51 -25 96 -82 118 -145 15 -43 18 -80 15&#xA;-261 -2 -116 2 -256 7 -311 11 -101 66 -349 96 -433 24 -65 26 -141 7 -202&#xA;-13 -39 -36 -73 -96 -137 -107 -116 -146 -166 -217 -282 -34 -55 -65 -101 -70&#xA;-104 -12 -8 -130 52 -172 86 -67 56 -136 227 -137 340 l0 46 85 7 c82 7 86 6&#xA;120 -19 59 -46 74 -11 25 56 -16 23 -32 56 -36 75 -6 30 -1 39 48 93 84 94&#xA;103 138 103 246 -1 50 -7 108 -14 130 -20 61 -90 205 -124 254 -16 23 -49 82&#xA;-73 130 -68 138 -97 144 -74 15 13 -78 12 -79 -64 -88 -105 -14 -358 -97 -516&#xA;-169 -76 -35 -193 -57 -256 -48 -33 5 -78 23 -128 53 l-78 45 61 37 c73 45&#xA;409 373 474 465 l46 63 188 3 c189 2 227 7 413 54 102 26 200 27 249 1z&#xA;m-3726 -738 c38 -24 100 -58 138 -76 83 -38 91 -26 -97 -149 -124 -81 -132&#xA;-88 -159 -144 -25 -54 -27 -65 -23 -153 12 -230 161 -539 353 -734 87 -87 98&#xA;-108 125 -239 14 -67 39 -101 121 -158 32 -23 56 -45 54 -49 -3 -4 -22 -11&#xA;-42 -15 -102 -18 -278 -127 -367 -226 l-45 -50 -7 38 c-4 20 -2 76 4 124 18&#xA;133 16 156 -16 189 -20 19 -46 31 -88 39 -103 20 -128 41 -139 111 -2 19 -12&#xA;82 -20 140 -36 244 -86 365 -305 740 -112 191 -160 302 -160 369 0 37 30 77&#xA;86 115 127 86 224 243 224 363 l0 33 148 -112 c81 -61 178 -131 215 -156z"/>
    <path d="M6530 8274 c-70 -40 -100 -73 -137 -152 -36 -77 -50 -180 -27 -189 7&#xA;-2 30 29 52 70 49 89 102 139 173 163 52 17 133 21 190 9 16 -4 30 0 38 9 19&#xA;23 -1 50 -63 85 -72 42 -159 43 -226 5z"/>
    <path d="M6698 7985 c-89 -22 -156 -82 -207 -183 -78 -155 -67 -373 25 -480&#xA;36 -42 146 -127 204 -157 72 -37 127 -47 203 -35 90 14 127 31 176 85 52 57&#xA;72 123 78 261 8 163 -23 255 -125 369 -43 48 -120 106 -172 127 -44 18 -137&#xA;25 -182 13z m179 -106 c64 -31 124 -88 172 -163 55 -87 71 -142 71 -241 0&#xA;-215 -63 -293 -240 -294 l-75 -1 31 25 c45 35 64 91 64 184 0 129 -42 226&#xA;-121 278 -35 23 -52 27 -105 26 -72 0 -104 -16 -135 -66 l-20 -32 7 55 c12&#xA;100 63 189 130 231 69 42 130 42 221 -2z"/>
    <path d="M7818 7180 c-47 -25 -73 -59 -94 -122 -14 -42 -15 -59 -5 -106 11&#xA;-55 52 -132 71 -132 5 0 8 49 7 116 l-2 115 37 35 c50 45 101 46 184 4 32 -16&#xA;62 -30 67 -30 15 0 6 30 -19 60 -58 69 -177 98 -246 60z"/>
    <path d="M8509 7097 c-16 -36 3 -191 26 -217 43 -48 70 -7 62 93 -10 111 -61&#xA;183 -88 124z"/>
    <path d="M7892 7018 c-32 -32 16 -175 83 -245 66 -69 111 -53 103 35 -12 125&#xA;-134 262 -186 210z"/>
    <path d="M1855 9409 c-91 -9 -166 -34 -233 -79 -157 -105 -231 -249 -219 -423&#xA;5 -70 3 -78 -11 -72 -72 30 -196 33 -273 6 -126 -43 -206 -114 -265 -238 -97&#xA;-202 -24 -364 180 -394 66 -10 2080 -13 2261 -3 229 12 335 83 335 224 0 67&#xA;-28 120 -90 169 -108 85 -277 114 -391 67 -13 -6 -18 2 -23 46 -33 248 -338&#xA;365 -566 217 -34 -21 -63 -39 -65 -39 -3 0 -5 12 -5 28 0 75 -66 214 -137 288&#xA;-148 154 -313 221 -498 203z m245 -126 c47 -22 102 -54 122 -71 118 -94 198&#xA;-255 199 -397 1 -56 4 -67 22 -77 18 -9 24 -7 47 23 101 134 225 182 368 144&#xA;133 -36 213 -160 196 -305 -8 -71 -1 -75 67 -32 89 57 139 64 242 32 68 -21&#xA;125 -60 164 -113 43 -56 20 -127 -52 -165 -75 -38 -117 -41 -595 -43 -997 -4&#xA;-1414 -4 -1630 1 -216 5 -228 6 -274 30 -68 35 -89 76 -82 158 7 84 35 142 95&#xA;201 118 113 257 146 371 88 30 -16 69 -42 86 -59 38 -36 70 -35 67 2 -1 14 -9&#xA;54 -17 90 -29 122 -14 256 38 337 32 51 114 126 167 154 79 40 119 49 219 46&#xA;88 -3 102 -6 180 -44z"/>
    <path d="M8980 8431 c-145 -27 -266 -140 -301 -279 -10 -41 -16 -51 -28 -46&#xA;-101 41 -267 -23 -338 -131 -73 -110 -65 -203 20 -244 64 -31 168 -36 742 -36&#xA;439 1 507 3 555 17 60 18 101 54 120 103 18 45 13 130 -9 174 -57 111 -223&#xA;178 -336 135 -9 -4 -16 10 -24 47 -27 123 -88 205 -179 239 -64 24 -156 33&#xA;-222 21z m182 -87 c54 -20 114 -84 130 -138 7 -22 13 -69 13 -103 1 -83 12&#xA;-94 67 -63 34 19 57 25 108 25 117 -1 199 -67 208 -168 5 -64 -17 -98 -78&#xA;-116 -49 -15 -1140 -16 -1204 -1 -49 11 -69 31 -68 67 3 98 118 204 222 206&#xA;41 1 58 -5 96 -32 66 -46 77 -40 79 39 3 130 82 240 203 285 52 19 172 19 224&#xA;-1z"/>
    <path d="M1267 4823 c-67 -106 -129 -301 -157 -489 -24 -167 -19 -158 -44 -84&#xA;-35 101 -85 188 -150 258 -61 65 -100 92 -134 92 -33 0 -32 -25 3 -134 50&#xA;-154 92 -303 104 -366 6 -30 15 -77 20 -105 5 -27 9 -51 7 -52 -1 -1 -24 32&#xA;-52 73 -52 81 -177 206 -230 232 -37 17 -64 11 -64 -15 0 -10 36 -130 80 -268&#xA;44 -137 80 -256 80 -262 0 -8 -14 -13 -35 -13 -39 0 -296 -27 -333 -35 -14 -4&#xA;-22 -13 -22 -27 0 -21 0 -21 197 -14 109 4 275 14 368 22 94 8 253 19 355 24&#xA;227 12 265 17 281 37 11 13 10 18 -9 33 -13 11 -34 17 -50 15 -154 -18 -174&#xA;-18 -168 1 3 11 14 58 24 104 26 118 94 252 198 392 48 65 89 117 90 115 2 -1&#xA;-15 -65 -37 -142 -58 -200 -78 -285 -79 -327 0 -39 10 -48 29 -25 13 17 133&#xA;370 167 495 28 101 24 122 -21 122 -45 0 -221 -203 -314 -365 -10 -16 -11 -11&#xA;-6 30 3 28 8 70 11 95 3 25 8 133 11 240 8 273 -12 380 -72 380 -18 0 -31 -11&#xA;-48 -37z m49 -353 c-4 -129 -10 -269 -15 -310 -5 -41 -17 -154 -26 -250 -10&#xA;-96 -20 -178 -24 -181 -3 -4 -63 -9 -132 -13 l-126 -6 -7 147 c-10 192 -41&#xA;357 -101 532 -14 41 -23 76 -22 78 7 6 66 -85 100 -153 50 -99 93 -227 112&#xA;-333 11 -58 21 -91 29 -88 14 4 31 82 46 212 30 250 65 416 118 554 32 83 37&#xA;91 45 70 5 -14 7 -121 3 -259z m-480 -536 c46 -83 88 -215 70 -226 -13 -9&#xA;-126 -11 -126 -2 0 29 -55 268 -78 339 l-29 89 62 -66 c35 -36 80 -97 101&#xA;-134z"/>
    <path d="M8658 4683 c-152 -158 -282 -425 -322 -664 l-12 -72 -26 124 c-27&#xA;130 -80 272 -122 324 -21 25 -28 28 -43 19 -16 -10 -18 -23 -15 -108 2 -53 5&#xA;-106 8 -118 2 -13 6 -122 10 -242 l5 -219 -135 7 c-138 7 -176 1 -176 -29 0&#xA;-24 33 -34 151 -45 63 -6 128 -13 144 -15 17 -3 73 -7 125 -10 52 -2 113 -7&#xA;135 -9 22 -3 83 -10 135 -16 101 -11 568 -67 635 -75 22 -3 108 -15 190 -26&#xA;83 -11 186 -24 230 -30 44 -5 96 -11 115 -14 113 -13 136 -15 148 -7 31 21&#xA;-27 62 -88 62 -8 0 -32 5 -52 10 l-37 11 20 52 c12 29 32 81 44 117 13 36 33&#xA;90 44 121 23 64 19 99 -13 99 -29 0 -170 -148 -224 -235 -42 -69 -43 -69 -36&#xA;-30 7 46 59 274 80 355 8 30 14 67 14 82 0 33 -33 70 -55 62 -34 -14 -162&#xA;-231 -210 -358 l-22 -58 -6 70 c-12 129 -63 253 -99 240 -15 -6 -40 -176 -55&#xA;-366 -5 -69 -9 -82 -22 -78 -16 5 -243 36 -263 36 -43 0 114 418 247 658 57&#xA;103 65 137 37 146 -43 14 -183 -83 -301 -209 -76 -82 -194 -247 -232 -326 -17&#xA;-34 -31 -60 -33 -58 -2 2 0 31 5 64 4 33 10 80 13 105 20 165 75 383 137 536&#xA;56 138 60 177 19 182 -21 2 -39 -11 -92 -65z m-29 -172 c-52 -139 -102 -422&#xA;-127 -726 l-7 -90 -40 2 c-22 1 -55 5 -74 8 l-34 6 6 52 c39 324 104 519 251&#xA;744 22 34 41 61 43 59 1 -1 -7 -26 -18 -55z m355 -271 c-82 -167 -154 -375&#xA;-174 -505 -6 -38 -13 -71 -14 -73 -2 -2 -52 2 -110 9 -125 14 -121 0 -43 158&#xA;70 141 183 300 291 410 49 50 90 91 91 91 2 0 -17 -40 -41 -90z m-721 -315&#xA;c23 -154 28 -203 19 -209 -4 -2 -27 -2 -52 1 l-45 5 4 242 3 241 28 -85 c15&#xA;-47 34 -134 43 -195z m1202 -65 c-18 -74 -36 -170 -40 -213 l-7 -77 -42 6&#xA;c-22 4 -44 9 -48 13 -18 15 60 227 127 347 20 36 38 64 40 62 2 -2 -11 -64&#xA;-30 -138z m-210 -197 l7 -63 -30 0 c-17 0 -34 5 -37 11 -4 5 1 67 12 137 l18&#xA;127 12 -75 c6 -41 14 -103 18 -137z m416 56 c-11 -30 -29 -81 -41 -114 l-21&#xA;-60 -39 3 c-22 2 -40 6 -40 9 0 9 34 68 59 102 45 63 94 121 98 117 2 -2 -5&#xA;-27 -16 -57z"/>
    <path d="M3163 3746 c3 -8 -3 -22 -14 -32 -20 -18 -26 -44 -9 -44 20 0 130 33&#xA;130 39 -1 23 -50 51 -92 51 -13 0 -18 -5 -15 -14z"/>
    <path d="M8651 3285 c-51 -59 -67 -176 -23 -174 21 0 107 172 98 194 -9 25&#xA;-43 17 -75 -20z"/>
    <path d="M8360 3295 c0 -8 17 -49 37 -90 40 -80 61 -92 74 -43 11 42 -59 148&#xA;-98 148 -7 0 -13 -7 -13 -15z"/>
    <path d="M964 3292 c-20 -14 -61 -77 -68 -105 -7 -28 7 -67 23 -67 15 0 93&#xA;150 87 166 -6 15 -25 18 -42 6z"/>
    <path d="M737 3263 c-20 -19 4 -140 30 -150 23 -9 34 17 29 69 -7 71 -34 107&#xA;-59 81z"/>
    <path d="M8805 3208 c-45 -53 -68 -95 -61 -114 10 -26 34 -15 80 37 46 51 64&#xA;88 51 108 -12 21 -34 11 -70 -31z"/>
    <path d="M4688 2963 c-48 -54 -78 -153 -63 -210 l7 -28 18 22 c28 35 82 172&#xA;78 200 -4 33 -20 39 -40 16z"/>
    <path d="M4455 2960 c-5 -9 5 -67 33 -184 10 -39 27 -43 48 -11 15 23 16 33 4&#xA;83 -19 90 -63 147 -85 112z"/>
    <path d="M9030 2860 c-90 -25 -150 -99 -150 -186 l0 -51 -47 15 c-92 30 -216&#xA;-19 -254 -101 -22 -50 -24 -118 -5 -155 28 -53 110 -112 156 -112 22 0 27 -15&#xA;9 -26 -21 -12 -51 -95 -51 -139 0 -54 22 -96 69 -132 33 -25 44 -28 114 -28&#xA;71 0 80 2 115 31 l39 31 -3 -345 c-1 -190 -4 -343 -6 -341 -2 2 -16 36 -31 74&#xA;-52 130 -133 240 -249 334 -113 92 -161 111 -172 67 -7 -29 2 -60 60 -209 97&#xA;-250 179 -363 323 -450 l52 -31 3 -341 c2 -187 2 -341 1 -343 0 -2 -9 22 -18&#xA;54 -24 84 -118 258 -179 334 -72 88 -144 149 -236 198 -93 50 -148 62 -166 37&#xA;-17 -23 -9 -38 62 -122 73 -86 135 -213 205 -421 32 -96 63 -180 68 -185 38&#xA;-38 33 90 -9 228 -43 143 -86 244 -137 325 -23 35 -40 66 -38 69 6 6 126 -93&#xA;176 -146 71 -75 114 -147 177 -295 61 -142 76 -168 97 -168 7 0 16 -8 19 -17&#xA;6 -15 8 -15 26 3 17 18 19 45 26 374 3 195 8 362 10 370 1 8 3 24 3 35 1 13&#xA;30 43 81 83 94 73 180 178 270 329 85 143 170 313 170 340 0 68 -168 21 -284&#xA;-79 -87 -76 -226 -286 -226 -342 0 -8 -3 -17 -7 -19 -5 -3 -4 142 1 321 l8&#xA;327 48 -47 c38 -37 58 -48 94 -53 65 -10 111 1 152 37 49 44 65 80 66 153 1&#xA;51 -4 71 -25 108 l-27 45 34 12 c59 19 113 75 132 135 16 51 16 56 0 100 -40&#xA;104 -175 144 -290 86 l-36 -19 0 49 c0 80 -39 152 -100 184 -32 17 -88 24&#xA;-120 15z m87 -87 c52 -34 67 -126 38 -226 l-15 -52 -60 3 c-97 6 -172 -41&#xA;-180 -113 -10 -89 22 -137 103 -156 48 -10 58 -9 105 11 100 43 149 139 102&#xA;202 -26 35 -25 35 57 91 83 56 167 61 213 12 40 -43 23 -113 -37 -152 -16 -11&#xA;-55 -19 -102 -23 -95 -6 -104 -24 -41 -78 58 -49 90 -119 80 -174 -24 -127&#xA;-174 -110 -243 27 -8 17 -24 39 -36 49 -27 24 -43 12 -78 -61 -30 -61 -82&#xA;-112 -116 -114 -12 -1 -31 -2 -42 -3 -52 -3 -95 42 -95 99 0 40 35 100 80 135&#xA;29 23 40 39 38 54 -3 18 -12 22 -65 28 -84 9 -148 38 -167 77 -67 129 120 218&#xA;243 115 18 -15 35 -22 46 -18 14 6 16 16 10 73 -9 89 6 149 45 184 35 31 78&#xA;35 117 10z m14 -353 c29 -16 24 -57 -12 -91 -59 -55 -149 -33 -149 37 0 48&#xA;106 83 161 54z m373 -642 c-10 -32 -149 -281 -194 -348 -43 -64 -210 -254&#xA;-217 -247 -8 9 49 180 87 262 61 132 166 254 279 327 54 34 54 34 45 6z m-686&#xA;-243 c61 -83 86 -128 117 -210 27 -73 46 -145 38 -145 -2 0 -29 24 -60 53 -59&#xA;56 -115 131 -155 212 -21 41 -88 219 -88 233 0 14 112 -94 148 -143z"/>
    <path d="M4792 2806 c-36 -41 -48 -74 -33 -89 16 -16 103 71 99 98 -5 32 -33&#xA;28 -66 -9z"/>
    <path d="M2306 2643 c-11 -12 -6 -48 28 -204 19 -85 42 -198 51 -251 18 -103&#xA;35 -124 56 -70 14 34 5 201 -15 293 -28 130 -94 257 -120 232z"/>
    <path d="M2672 2538 c-86 -93 -176 -355 -142 -417 6 -12 14 -21 19 -21 9 0 12&#xA;6 66 155 20 54 54 138 76 186 37 83 42 119 15 119 -7 0 -22 -10 -34 -22z"/>
    <path d="M2147 2343 c-12 -11 -8 -40 7 -52 8 -7 32 -52 52 -102 47 -110 74&#xA;-118 74 -21 0 87 -96 213 -133 175z"/>
    <path d="M2763 2263 c-38 -35 -75 -107 -71 -136 2 -13 11 -23 24 -25 15 -2 31&#xA;14 67 70 48 73 56 110 26 116 -9 2 -30 -10 -46 -25z"/>
    <path d="M4804 2225 c-4 -9 5 -32 18 -53 37 -56 84 -159 107 -237 29 -94 37&#xA;-106 56 -81 18 23 18 31 4 116 -14 88 -59 178 -114 229 -48 44 -62 49 -71 26z"/>
    <path d="M5158 2163 c-54 -57 -92 -150 -108 -260 -13 -93 6 -126 35 -60 32 73&#xA;104 275 110 310 9 44 -2 47 -37 10z"/>
    <path d="M5321 2023 c-85 -67 -154 -203 -103 -203 22 0 41 20 115 123 71 99&#xA;65 141 -12 80z"/>
    <path d="M8170 1988 c-57 -60 -127 -201 -156 -316 -31 -122 -42 -246 -24 -257&#xA;20 -12 48 28 65 94 38 139 101 314 147 403 27 54 47 102 43 108 -12 19 -34 10&#xA;-75 -32z"/>
    <path d="M7698 1948 c-2 -6 12 -50 33 -97 38 -89 80 -218 99 -306 30 -137 40&#xA;-151 61 -88 35 108 -39 376 -134 481 -22 24 -53 29 -59 10z"/>
    <path d="M1778 1926 c-57 -21 -84 -42 -125 -96 l-37 -50 -30 34 c-66 72 -160&#xA;94 -241 57 -52 -24 -74 -50 -95 -112 -28 -80 -8 -156 53 -203 30 -24 31 -26 9&#xA;-26 -58 0 -147 -67 -178 -134 -30 -64 -30 -100 -1 -156 33 -67 89 -95 190 -95&#xA;65 0 76 -2 71 -15 -3 -8 -8 -44 -11 -80 -8 -115 44 -176 147 -174 64 1 114 25&#xA;149 72 l20 27 1 -25 c0 -14 7 -54 15 -90 7 -36 24 -110 36 -165 11 -55 32&#xA;-136 44 -180 l23 -80 -30 37 c-34 43 -190 178 -258 223 -95 64 -176 93 -209&#xA;76 -27 -15 -17 -42 41 -113 24 -29 86 -124 138 -210 52 -87 100 -158 107 -158&#xA;40 0 -22 169 -112 306 l-61 92 45 -31 c91 -61 223 -180 291 -262 79 -94 85&#xA;-99 121 -101 24 -1 32 11 95 130 38 72 91 165 117 206 47 72 173 210 229 251&#xA;l27 20 -22 -48 c-13 -26 -41 -86 -64 -133 -46 -95 -64 -145 -99 -275 -26 -96&#xA;-29 -141 -14 -165 12 -20 24 -6 40 45 61 199 191 493 270 612 38 56 44 78 25&#xA;96 -33 33 -150 -32 -284 -157 -108 -103 -229 -287 -291 -447 l-27 -70 -12 63&#xA;c-11 59 -106 525 -117 576 l-5 24 28 -19 c72 -50 176 -57 231 -16 91 67 94&#xA;168 8 270 -28 34 -25 43 14 43 40 0 111 27 139 53 13 12 32 41 43 64 16 37 17&#xA;49 8 85 -17 65 -71 115 -138 129 -30 6 -67 9 -83 7 -26 -4 -28 -2 -22 21 3 14&#xA;10 34 14 43 14 26 11 105 -5 143 -30 70 -138 111 -218 81z m129 -90 c22 -19&#xA;27 -31 26 -64 -2 -49 -33 -117 -85 -185 -21 -29 -38 -57 -38 -63 0 -7 -15 3&#xA;-34 22 -29 29 -41 34 -80 34 -84 0 -153 -50 -181 -130 -58 -164 165 -271 282&#xA;-136 33 39 35 44 31 108 -2 37 -2 65 1 63 2 -2 21 11 42 29 85 72 224 74 273&#xA;5 23 -34 20 -63 -12 -97 -33 -36 -79 -50 -188 -57 -98 -8 -104 -9 -104 -35 0&#xA;-13 10 -24 28 -31 71 -27 155 -153 136 -207 -13 -38 -49 -54 -112 -49 -45 3&#xA;-58 9 -93 43 -22 21 -47 52 -55 67 -11 20 -21 27 -37 25 -19 -3 -23 -11 -28&#xA;-60 -10 -96 -59 -155 -137 -165 -35 -5 -44 -2 -66 22 -15 16 -26 40 -26 56 0&#xA;36 35 130 61 163 21 26 19 66 -3 66 -7 0 -45 -12 -86 -26 -78 -27 -106 -26&#xA;-173 3 -46 19 -64 50 -55 97 17 87 110 139 247 137 105 -1 103 22 -6 84 -102&#xA;57 -138 112 -115 179 23 70 100 97 171 60 34 -17 85 -91 99 -144 24 -86 58&#xA;-78 75 17 15 83 54 146 107 172 57 28 100 27 135 -3z m-176 -329 c37 -28 49&#xA;-84 28 -129 -13 -29 -62 -58 -99 -58 -38 0 -90 44 -90 77 0 30 33 87 63 108&#xA;26 18 76 19 98 2z"/>
    <path d="M8235 1659 c-52 -48 -98 -135 -93 -176 6 -57 32 -38 106 77 40 61 72&#xA;118 72 126 0 27 -40 14 -85 -27z"/>
    <path d="M7630 1604 c0 -15 18 -60 41 -101 33 -60 45 -74 63 -71 27 4 33 54&#xA;11 97 -43 84 -115 131 -115 75z"/>
    <path d="M2790 1601 c-15 -4 -25 -14 -25 -26 0 -16 17 -22 107 -41 117 -24&#xA;309 -91 376 -130 72 -42 86 -9 20 47 -93 77 -231 135 -343 145 -33 3 -71 6&#xA;-85 8 -14 2 -36 0 -50 -3z"/>
    <path d="M3204 1597 c-9 -24 -2 -29 88 -82 46 -26 85 -51 88 -55 8 -10 160&#xA;-100 170 -100 38 0 -14 78 -92 138 -112 85 -240 135 -254 99z"/>
    <path d="M2514 1576 c-10 -27 2 -42 46 -55 23 -7 95 -32 159 -56 138 -52 163&#xA;-47 88 20 -80 70 -277 132 -293 91z"/>
    <path d="M3480 1556 c0 -13 7 -27 16 -30 27 -10 120 -75 147 -102 24 -23 47&#xA;-26 47 -4 0 20 -83 111 -123 134 -57 34 -87 34 -87 2z"/>
    <path d="M582 1464 c-7 -13 6 -48 58 -153 94 -189 199 -518 215 -676 l6 -60&#xA;-23 45 c-56 110 -202 284 -271 324 -59 34 -86 40 -93 23 -3 -8 24 -75 60 -148&#xA;75 -154 148 -339 175 -442 31 -120 63 -96 42 31 -13 79 -78 277 -112 344 -11&#xA;21 -24 51 -29 66 -9 24 -6 23 26 -13 103 -116 178 -244 224 -382 46 -142 61&#xA;-135 64 30 1 117 -8 222 -28 330 -28 142 -103 381 -152 479 -19 37 -34 71 -34&#xA;75 0 14 84 -74 136 -143 76 -102 117 -183 158 -309 44 -137 70 -250 91 -385&#xA;23 -151 25 -160 40 -160 80 0 8 429 -118 700 -103 223 -391 503 -435 424z"/>
    <path d="M4710 1452 c-51 -25 -140 -114 -140 -140 0 -12 5 -22 10 -22 6 0 49&#xA;27 96 59 47 33 99 63 115 66 22 5 29 12 29 31 0 21 -4 24 -37 24 -21 0 -54 -8&#xA;-73 -18z"/>
    <path d="M4841 1324 c-51 -21 -63 -34 -51 -49 8 -10 20 -11 48 -3 89 23 132&#xA;40 132 54 0 19 -84 18 -129 -2z"/>
    <path d="M5882 1328 c-23 -23 -11 -36 77 -82 88 -45 202 -115 251 -155 14 -11&#xA;35 -21 48 -21 85 -1 -84 172 -239 245 -58 27 -118 32 -137 13z"/>
    <path d="M5415 1316 c-40 -9 -51 -16 -53 -34 -3 -20 1 -22 36 -22 112 0 379&#xA;-73 511 -140 95 -47 122 -27 51 40 -79 75 -246 142 -385 155 -33 3 -71 7 -85&#xA;9 -14 2 -47 -2 -75 -8z"/>
    <path d="M6223 1254 c-7 -18 26 -49 120 -115 45 -32 58 -37 63 -25 7 19 -10&#xA;52 -50 94 -53 58 -120 80 -133 46z"/>
    <path d="M9534 1234 c-166 -110 -345 -403 -414 -679 -29 -112 -33 -228 -9&#xA;-233 20 -4 33 29 55 136 21 100 67 228 121 337 48 94 149 249 184 281 20 18&#xA;20 18 10 -9 -6 -14 -19 -44 -31 -66 -90 -178 -193 -598 -162 -666 23 -49 43&#xA;-30 132 121 75 128 236 351 247 341 2 -3 -7 -26 -21 -53 -91 -183 -170 -434&#xA;-136 -434 16 0 36 39 116 220 42 96 101 223 131 281 59 115 63 149 18 149 -25&#xA;0 -111 -67 -176 -136 -50 -53 -149 -187 -189 -256 -19 -31 -36 -56 -38 -53 -4&#xA;4 27 118 63 235 28 92 84 229 135 330 52 105 65 147 50 165 -18 22 -42 18 -86&#xA;-11z"/>
    <path d="M5239 924 c-68 -99 -112 -273 -76 -303 14 -11 18 -8 32 26 23 52 74&#xA;197 91 257 22 80 1 89 -47 20z"/>
    <path d="M3623 934 c-6 -15 2 -190 14 -292 5 -41 9 -52 22 -50 64 13 45 358&#xA;-21 358 -5 0 -11 -7 -15 -16z"/>
    <path d="M3285 880 c-4 -6 15 -36 42 -66 63 -72 99 -127 120 -183 23 -63 32&#xA;-74 49 -60 24 20 17 98 -14 164 -31 65 -82 116 -139 140 -42 18 -50 18 -58 5z"/>
    <path d="M3910 832 c-27 -28 -61 -74 -75 -101 -37 -74 -32 -137 10 -114 17 10&#xA;135 217 135 238 0 32 -25 24 -70 -23z"/>
    <path d="M4906 864 c-3 -9 3 -28 13 -43 11 -15 40 -70 66 -124 26 -53 51 -97&#xA;56 -97 14 0 22 47 15 85 -15 76 -94 193 -132 195 -7 0 -15 -7 -18 -16z"/>
    <path d="M7638 773 c-40 -43 -58 -77 -74 -135 -18 -68 -18 -112 0 -127 21 -17&#xA;38 12 87 148 49 136 45 175 -13 114z"/>
    <path d="M5455 778 c-53 -29 -133 -152 -121 -185 11 -26 36 -12 78 45 23 31&#xA;59 75 79 97 21 21 35 43 33 47 -7 11 -46 9 -69 -4z"/>
    <path d="M7834 707 c-51 -29 -109 -125 -100 -163 12 -46 41 -28 101 61 67 99&#xA;66 141 -1 102z"/>
    <path d="M8260 705 c-15 -18 -9 -37 45 -145 23 -47 46 -96 50 -110 14 -46 56&#xA;-130 66 -130 25 0 -10 184 -51 260 l-12 23 30 -22 c44 -31 137 -136 185 -208&#xA;61 -93 90 -79 47 23 -45 104 -158 233 -250 286 -60 34 -95 42 -110 23z"/>
    <path d="M2535 662 c-60 -38 -181 -162 -232 -237 -26 -39 -44 -125 -25 -125 5&#xA;0 22 17 38 38 15 20 31 39 34 42 4 3 28 32 54 65 44 56 147 158 153 152 1 -2&#xA;-18 -44 -42 -94 -55 -112 -74 -178 -57 -195 16 -16 26 -1 92 131 29 58 65 127&#xA;81 152 31 49 36 78 17 97 -20 20 -51 13 -113 -26z"/>
    <path d="M7333 663 c-7 -18 64 -164 83 -170 6 -2 16 8 22 21 16 36 -11 110&#xA;-52 141 -39 30 -45 30 -53 8z"/>
  </g>
  <title>Koń na łące</title>
  <desc>Piękny koń galopuje swobodnie po kwiecistej łące. To darmowa kolorowanka dla wszystkich miłośników tych majestatycznych zwierząt. Użyj dowolnych kolorów, by stworzyć swojego wymarzonego konia.</desc>
</svg>
