<?xml version="1.0" standalone="no"?>
<!DOCTYPE svg PUBLIC "-//W3C//DTD SVG 20010904//EN"
 "http://www.w3.org/TR/2001/REC-SVG-20010904/DTD/svg10.dtd">
<svg version="1.0" xmlns="http://www.w3.org/2000/svg"
 width="1024.000000pt" height="1024.000000pt" viewBox="0 0 1024.000000 1024.000000"
 preserveAspectRatio="xMidYMid meet">
<metadata>
Created by potrace 1.16, written by Peter Selinger 2001-2019
</metadata>
<g transform="translate(0.000000,1024.000000) scale(0.100000,-0.100000)"
fill="#000000" stroke="none">
<path d="M6011 10143 c-21 -185 -31 -278 -41 -388 -20 -222 -61 -555 -90 -730
-40 -247 -51 -309 -54 -312 -2 -2 -23 5 -47 15 -115 49 -420 102 -586 102 -46
0 -83 3 -83 6 0 4 18 27 41 51 46 50 89 134 89 175 0 40 -20 78 -51 94 -80 41
-318 -12 -469 -105 l-52 -32 6 28 c26 123 12 163 -57 163 -81 0 -181 -64 -335
-214 -83 -80 -202 -217 -247 -285 -27 -40 -40 -49 -135 -86 -223 -89 -352
-158 -532 -287 -167 -119 -313 -269 -367 -376 l-22 -43 -57 59 c-225 233 -707
365 -1056 288 -233 -52 -439 -157 -559 -284 -91 -98 -89 -155 6 -204 l28 -14
-59 -47 c-67 -53 -112 -104 -199 -227 -81 -116 -107 -161 -152 -273 -65 -159
-88 -300 -68 -415 20 -115 114 -159 194 -89 24 21 35 26 30 14 -15 -41 -29
-206 -22 -277 27 -295 161 -557 348 -679 100 -65 235 -103 291 -81 23 8 32 6
60 -15 43 -32 165 -88 262 -118 212 -66 451 -36 597 76 26 21 49 37 52 37 3 0
5 -25 5 -56 0 -117 70 -326 135 -403 41 -47 104 -91 132 -91 15 0 36 -14 55
-36 18 -20 54 -51 81 -69 l49 -33 -33 -17 c-192 -98 -692 -542 -848 -755 -245
-331 -362 -558 -430 -830 -64 -252 -80 -383 -75 -615 3 -176 29 -323 87 -497
53 -159 98 -256 166 -360 l50 -77 -145 -3 c-80 -2 -148 -1 -150 1 -2 2 -4 72
-4 155 0 151 -19 315 -43 368 -26 59 -64 43 -106 -45 -16 -34 -32 -78 -36 -97
-13 -65 -22 -63 -29 5 -8 79 -36 199 -71 310 -32 97 -137 331 -180 400 -86
136 -208 258 -303 302 -55 26 -102 25 -102 0 0 -8 27 -101 59 -208 32 -107 76
-257 96 -334 20 -77 53 -194 72 -260 36 -128 74 -287 69 -293 -2 -2 -19 25
-38 60 -58 104 -128 199 -198 268 -78 75 -214 160 -271 167 -38 5 -39 5 -39
-24 0 -16 16 -56 36 -89 78 -126 134 -235 164 -315 53 -143 107 -302 115 -339
l7 -35 -74 71 c-117 113 -267 214 -318 214 -11 0 -23 -7 -27 -17 -10 -27 25
-141 78 -252 27 -57 48 -105 46 -107 -2 -2 -66 -11 -143 -19 -147 -16 -427
-51 -481 -61 -30 -4 -33 -8 -33 -39 0 -44 -33 -44 300 0 58 8 171 20 252 26
l146 11 35 -26 c69 -53 66 -25 -16 139 -60 120 -114 255 -101 255 2 0 30 -20
61 -45 32 -25 81 -61 109 -80 59 -40 137 -126 184 -204 31 -49 34 -52 47 -35
18 25 16 86 -7 208 -35 179 -106 367 -214 563 -28 53 -40 83 -32 83 21 0 148
-122 216 -207 34 -42 81 -114 105 -162 58 -116 130 -303 145 -373 6 -32 15
-58 20 -58 5 0 17 11 26 25 26 40 16 229 -22 405 -8 36 -21 98 -29 139 -36
178 -164 631 -222 784 -15 37 -23 70 -19 74 15 15 181 -171 250 -280 72 -114
148 -306 195 -495 45 -177 61 -281 72 -462 6 -111 14 -169 23 -178 25 -25 35
11 46 167 6 84 17 181 25 214 24 105 73 243 75 212 0 -5 7 -86 15 -180 12
-134 12 -205 4 -334 -10 -160 -6 -193 20 -177 6 4 13 23 16 44 3 20 8 48 11
61 l5 23 184 -3 185 -4 92 -91 c314 -308 637 -435 1173 -460 l146 -7 16 -31
c8 -17 33 -52 54 -78 l39 -46 -78 -42 c-194 -105 -345 -235 -395 -342 -15 -31
-27 -59 -27 -62 0 -16 30 -3 56 25 16 17 58 54 94 84 76 61 395 276 422 283
33 8 19 -15 -33 -54 -53 -41 -179 -181 -243 -272 -58 -80 -20 -51 64 50 41 49
115 128 163 174 80 76 90 83 110 73 12 -7 24 -13 26 -15 2 -2 -46 -56 -106
-121 -114 -124 -153 -173 -153 -193 0 -7 30 21 67 61 36 41 104 111 150 157
74 73 86 82 111 76 15 -4 30 -8 33 -10 4 -2 -34 -43 -83 -91 -88 -85 -188
-206 -188 -226 0 -5 68 61 151 147 138 142 155 156 186 156 l34 0 -77 -93
c-43 -50 -93 -109 -113 -129 -19 -21 -32 -40 -29 -43 7 -8 123 106 199 193
l54 63 52 -3 52 -3 -50 -60 c-92 -110 -93 -121 -3 -29 86 88 91 92 143 98 l54
7 -54 -58 c-94 -102 -130 -130 -179 -139 -54 -9 -48 -8 -83 -22 -16 -7 -31
-12 -35 -12 -4 0 -37 -12 -74 -26 -128 -49 -87 -47 332 16 191 28 390 37 459
20 30 -7 50 -17 48 -24 -3 -10 -27 -31 -163 -144 -33 -28 -35 -32 -14 -26 51
13 153 71 210 119 93 79 202 219 261 336 17 35 49 94 71 131 36 61 45 69 94
88 30 11 57 20 60 20 3 0 20 7 37 14 18 8 73 31 122 51 147 60 211 92 295 146
101 64 146 115 161 184 10 46 9 57 -9 97 l-20 45 56 23 c99 42 156 122 138
195 -3 13 -20 40 -37 60 -33 37 -104 65 -167 65 -29 0 -33 3 -27 18 17 42 16
88 -4 119 -71 113 -258 130 -524 47 -14 -4 -13 2 9 33 71 104 172 342 205 482
18 74 26 92 63 131 58 62 164 200 154 200 -2 0 -42 -45 -88 -99 -47 -55 -88
-100 -91 -100 -4 -1 -4 20 -1 47 4 40 17 64 87 157 112 149 207 286 202 291
-2 2 -45 -49 -96 -113 -50 -65 -108 -139 -129 -166 -20 -26 -40 -47 -43 -47
-4 0 -5 19 -2 43 6 45 85 156 187 262 46 48 56 54 103 60 l53 6 -5 -43 c-16
-141 -50 -395 -71 -535 -26 -178 -29 -218 -14 -192 17 29 38 138 75 380 20
129 44 272 53 319 l17 84 120 32 c164 44 247 75 407 155 137 69 365 200 426
246 33 25 34 25 91 9 31 -9 93 -16 137 -16 193 0 336 85 408 241 18 39 44 78
58 87 38 25 98 101 124 157 45 96 23 188 -53 222 -21 10 -39 18 -41 19 -2 1
16 20 40 43 92 84 125 207 73 269 -26 31 -86 52 -148 52 -19 0 -99 -14 -177
-30 -127 -27 -230 -38 -230 -25 0 2 7 30 15 62 20 76 29 251 15 288 -26 69
-94 74 -187 14 -71 -46 -133 -120 -211 -249 -68 -114 -120 -165 -217 -211 -73
-35 -247 -80 -260 -67 -3 3 25 98 62 211 l68 206 55 26 c140 65 316 219 434
379 137 186 180 266 231 426 51 158 60 217 60 380 0 162 -15 242 -65 362 -11
26 -20 51 -20 56 0 5 18 12 41 15 96 13 224 107 295 216 33 50 45 61 79 70 89
22 182 125 269 296 53 106 82 208 98 354 9 90 9 124 -6 226 -18 132 -48 262
-71 308 -8 17 -14 32 -12 34 2 2 21 -4 42 -13 49 -20 80 -7 101 41 68 164
-125 533 -371 709 -79 57 -143 89 -243 121 l-82 26 35 33 c19 19 35 41 35 50
0 39 -32 77 -88 105 -161 81 -323 97 -487 47 -49 -15 -126 -43 -169 -63 -272
-118 -518 -378 -602 -635 -13 -40 -24 -58 -36 -58 -27 0 -29 14 -8 69 21 54
40 149 64 316 35 241 56 407 61 495 3 52 12 156 20 230 8 74 21 199 30 278 22
206 24 192 -34 192 l-49 0 -11 -97z m1068 -814 c80 -23 124 -46 115 -60 -3 -5
-46 -36 -95 -69 -49 -34 -89 -66 -89 -74 0 -10 28 -15 104 -20 152 -10 238
-39 368 -127 151 -103 316 -320 362 -478 15 -51 21 -111 12 -111 -13 0 -98 42
-140 69 -97 61 -104 32 -32 -120 94 -196 127 -379 107 -593 -13 -133 -25 -189
-64 -284 -38 -91 -89 -171 -149 -231 l-53 -53 -5 81 c-4 57 -10 85 -20 91 -18
11 -24 -4 -45 -101 -21 -101 -66 -179 -150 -257 -74 -69 -153 -109 -223 -115
-32 -2 -34 1 -63 65 -16 37 -43 122 -60 190 -17 68 -33 131 -35 141 -4 14 1
17 33 17 54 0 114 46 147 112 14 29 26 60 26 69 0 35 10 46 41 41 39 -6 60 14
94 89 49 109 36 304 -28 410 -18 30 -40 55 -50 57 -21 4 -23 -21 -1 -39 8 -7
28 -36 42 -63 25 -47 27 -60 27 -176 0 -102 -3 -132 -19 -163 -22 -44 -49 -61
-92 -59 -30 2 -32 1 -38 -46 -14 -105 -88 -202 -154 -202 -37 0 -45 12 -61 97
-16 86 -92 289 -153 408 -50 99 -129 223 -228 361 l-52 71 44 84 c55 107 134
188 215 220 50 20 75 24 178 24 114 0 123 -2 175 -30 113 -61 232 -212 255
-325 14 -66 26 -69 22 -5 -9 110 -86 245 -181 313 -101 74 -142 86 -284 86
-107 0 -137 -3 -186 -22 -33 -12 -61 -20 -63 -18 -6 6 146 145 179 163 30 16
31 18 10 21 -62 10 -219 -118 -304 -247 -27 -42 -58 -105 -70 -145 -11 -39
-23 -73 -25 -75 -2 -3 -29 20 -61 50 -74 72 -191 167 -267 215 -33 22 -63 42
-68 45 -5 4 -5 15 1 25 5 11 30 62 55 114 77 161 227 329 392 439 93 62 225
125 310 147 80 20 208 17 294 -7z m-2494 -249 c13 -42 -15 -107 -111 -256 -67
-103 -104 -169 -104 -186 0 -7 64 53 143 133 141 146 143 147 257 202 63 31
143 63 176 71 79 21 173 21 180 2 15 -38 -142 -219 -254 -294 -61 -40 -132
-106 -132 -122 0 -5 35 8 78 29 214 107 413 65 282 -60 -36 -34 -115 -69 -157
-69 -20 0 -15 -28 6 -35 23 -7 119 25 160 54 63 45 85 118 57 184 -6 12 -4 16
5 12 8 -2 60 -9 117 -15 230 -22 395 -67 577 -155 219 -107 352 -209 523 -405
208 -238 383 -601 452 -940 37 -182 52 -232 102 -350 104 -241 136 -355 145
-520 7 -128 -31 -329 -85 -445 -123 -267 -297 -471 -517 -608 -351 -218 -1024
-460 -1395 -503 -191 -21 -455 -36 -552 -29 -92 6 -119 -4 -71 -28 39 -19 121
-35 243 -47 254 -24 535 -62 600 -81 133 -38 808 -6 1095 52 118 24 176 49
267 113 80 56 119 100 186 209 60 98 156 207 182 207 42 0 45 -41 14 -258 -8
-62 -13 -120 -10 -128 10 -25 153 -18 343 18 140 26 177 29 198 20 30 -14 32
-41 6 -97 -29 -64 -103 -120 -251 -192 -100 -48 -131 -67 -119 -73 9 -5 45 -3
90 6 100 21 229 16 258 -10 40 -36 22 -124 -39 -183 -59 -58 -139 -92 -252
-108 -122 -18 -128 -20 -128 -39 0 -20 66 -29 170 -25 44 3 80 1 80 -4 0 -18
-52 -87 -84 -112 -18 -14 -60 -35 -92 -47 -51 -17 -74 -20 -164 -15 -70 4
-126 13 -165 26 -70 25 -75 25 -75 7 0 -8 -13 -22 -29 -33 -16 -10 -55 -36
-87 -59 -228 -158 -606 -317 -869 -365 -151 -27 -355 -42 -470 -35 -539 34
-898 145 -1235 383 -67 47 -123 83 -126 80 -10 -9 114 -163 162 -201 74 -59
74 -59 24 -51 -66 11 -218 63 -270 93 -25 14 -80 52 -122 83 -43 32 -78 56
-78 53 0 -15 80 -100 135 -144 119 -95 294 -157 414 -147 41 3 63 -1 85 -14
198 -114 665 -229 986 -242 l55 -2 8 -60 c21 -153 -24 -467 -100 -700 -56
-174 -210 -438 -296 -508 -26 -21 -47 -36 -47 -34 0 3 14 47 30 97 43 132 57
295 35 420 -94 550 -541 904 -1103 877 -202 -10 -410 -66 -602 -161 -189 -94
-329 -224 -308 -287 2 -6 23 5 48 26 97 82 300 195 405 227 275 84 375 100
564 87 330 -22 567 -148 730 -388 177 -260 209 -554 95 -850 -87 -227 -148
-319 -341 -517 -113 -116 -189 -177 -261 -208 -51 -23 -47 -31 14 -27 134 7
313 142 511 386 167 206 298 308 483 377 113 42 228 56 314 38 63 -13 113 -48
103 -73 -3 -8 -45 -34 -94 -57 -206 -98 -257 -126 -301 -166 l-47 -43 33 -1
c18 0 66 17 110 38 146 73 416 104 489 57 33 -22 38 -41 18 -71 -28 -42 -126
-78 -366 -133 -25 -5 -72 -20 -103 -32 -94 -35 -61 -44 109 -30 80 7 150 9
155 6 6 -4 19 -24 30 -46 39 -75 -3 -122 -189 -218 -54 -28 -154 -71 -222 -96
-142 -52 -255 -95 -349 -132 -36 -14 -138 -50 -228 -79 -422 -138 -770 -151
-949 -35 -116 75 -151 136 -192 334 -15 72 -32 132 -39 135 -20 6 -35 -79 -29
-170 l4 -86 -76 5 c-455 28 -713 102 -955 270 -101 71 -285 253 -355 353 -180
256 -291 644 -276 965 18 379 105 677 284 973 177 293 338 487 642 772 180
168 270 239 445 348 l36 23 46 -38 c71 -58 109 -82 197 -123 129 -59 229 -88
385 -110 149 -22 278 -22 380 0 25 5 56 12 70 14 14 3 34 12 45 20 18 14 7 15
-125 16 -162 0 -270 15 -440 59 -133 35 -193 57 -293 107 -78 40 -221 134
-277 183 -19 17 -39 29 -45 28 -5 -2 -11 -22 -13 -45 l-3 -42 -28 15 c-49 25
-114 107 -170 216 -53 100 -55 103 -63 74 -5 -17 -7 -52 -4 -79 l5 -49 -23 22
c-36 34 -83 146 -105 251 -33 154 -54 422 -48 605 5 145 9 171 41 275 54 181
67 270 39 270 -5 0 -35 -20 -68 -45 -69 -52 -130 -75 -195 -75 -55 0 -70 13
-70 58 0 39 7 53 67 144 25 37 42 71 39 76 -3 5 -31 12 -61 15 -92 9 -185 80
-185 139 0 43 38 88 98 116 50 24 69 27 157 26 79 0 111 -5 153 -22 82 -34 89
-21 41 83 -35 77 -107 159 -189 215 -31 21 -62 46 -70 55 -24 29 -167 95 -253
115 -91 22 -215 26 -282 9 -71 -18 -120 -78 -52 -65 127 23 156 25 232 15 83
-11 192 -43 210 -61 7 -7 3 -8 -13 -3 -12 3 -75 7 -140 7 -140 0 -209 -15
-339 -77 -204 -96 -306 -215 -359 -418 -16 -62 -15 -201 1 -227 13 -21 25 11
25 65 1 129 84 321 172 400 58 51 263 156 340 174 26 6 96 11 155 11 133 0
230 -24 323 -81 73 -44 178 -134 169 -143 -4 -4 -26 -2 -50 3 -112 26 -220 -1
-301 -76 -86 -81 -87 -157 -2 -232 43 -37 116 -71 156 -71 25 0 24 -4 -26 -68
-24 -32 -47 -68 -51 -82 -10 -33 -8 -86 5 -109 24 -46 155 -52 247 -11 25 11
47 20 48 20 2 0 -9 -37 -25 -83 -16 -46 -36 -124 -45 -173 -31 -170 -24 -156
-87 -187 -31 -15 -90 -32 -132 -39 -68 -10 -82 -9 -158 11 -131 36 -169 61
-228 146 -35 50 -64 61 -54 20 8 -31 -11 -40 -62 -30 -46 8 -118 74 -149 135
-45 91 -36 232 20 306 32 42 11 47 -28 6 -75 -78 -71 -267 8 -382 49 -71 159
-125 205 -100 21 11 26 9 54 -23 17 -19 49 -47 71 -61 57 -36 198 -76 271 -76
71 0 179 30 218 61 l26 20 0 -119 c0 -66 3 -128 6 -137 12 -29 -119 -146 -201
-180 -65 -27 -79 -29 -205 -29 -153 -1 -219 13 -340 70 -102 48 -224 145 -288
228 -12 16 -24 27 -27 24 -5 -4 28 -101 45 -129 22 -40 -44 -39 -127 1 -194
91 -340 358 -368 671 -8 92 15 274 53 406 14 51 22 96 18 100 -8 8 -42 -30
-82 -91 -14 -21 -45 -58 -70 -82 -35 -35 -50 -44 -79 -44 -53 0 -61 26 -47
149 22 189 102 377 236 551 106 139 227 235 358 284 101 37 76 66 -58 66 -77
0 -144 19 -144 42 0 21 104 110 188 161 194 117 314 150 547 150 152 0 167 -2
300 -37 160 -42 235 -74 350 -151 125 -83 233 -207 329 -377 l19 -33 9 28 c16
45 0 129 -33 181 -16 26 -29 49 -29 52 0 16 126 171 194 239 92 91 164 147
285 224 114 72 403 221 429 221 18 0 22 -6 22 -30 0 -18 5 -30 13 -30 21 0 50
37 114 143 101 167 415 487 479 487 7 0 15 -9 19 -20z m1755 -4016 c-12 -26
-24 -63 -26 -83 -3 -20 -21 -85 -40 -144 -38 -114 -50 -129 -101 -119 -24 5
-24 5 15 46 46 49 82 99 82 117 0 6 -12 -6 -27 -29 -16 -22 -52 -66 -81 -96
-51 -53 -56 -56 -103 -56 l-49 0 81 73 c45 39 94 82 109 94 15 12 40 39 56 60
16 21 -18 -5 -76 -59 -57 -54 -109 -98 -114 -98 -5 0 2 12 16 28 14 15 38 51
54 79 58 105 200 257 222 238 2 -2 -6 -24 -18 -51z m-92 -11 c-59 -71 -107
-133 -122 -158 -11 -16 -48 -69 -83 -117 -57 -78 -69 -88 -96 -88 l-31 0 26
28 c14 15 44 54 68 87 24 33 67 86 97 117 29 31 53 62 53 68 0 15 -207 -196
-258 -262 -31 -41 -62 -62 -62 -42 0 8 175 235 211 273 26 27 115 76 189 104
24 9 24 8 8 -10z m-245 -116 c-15 -18 -45 -46 -65 -62 -20 -17 -35 -36 -33
-42 6 -16 -112 -153 -132 -153 -11 0 -10 6 7 30 12 16 18 34 15 40 -11 17 136
181 180 201 57 25 61 23 28 -14z m-155 -75 c-53 -56 -118 -147 -118 -165 0
-10 -1 -17 -2 -17 -74 -11 -78 -11 -78 4 0 22 177 209 204 217 33 9 32 1 -6
-39z m-118 -47 c-30 -30 -57 -55 -61 -55 -4 0 0 19 9 41 12 32 25 45 57 59 22
10 42 16 44 13 3 -2 -20 -28 -49 -58z m-151 -20 c-14 -8 -38 -15 -52 -17 -16
-3 -48 -25 -77 -53 -36 -35 -53 -46 -61 -38 -25 25 131 122 196 122 17 0 16
-2 -6 -14z m373 -42 c-11 -16 -30 -37 -43 -48 l-24 -20 20 25 c52 67 85 96 47
43z m-379 0 c-10 -29 -55 -73 -75 -73 -28 0 -21 15 25 54 47 40 59 44 50 19z
m-205 -30 c-21 -20 -41 -33 -45 -29 -9 9 51 66 69 66 7 0 -4 -17 -24 -37z
m-68 7 c-37 -20 -90 -26 -90 -11 0 10 67 28 105 30 14 0 10 -5 -15 -19z m-167
-7 c-7 -2 -21 -2 -30 0 -10 3 -4 5 12 5 17 0 24 -2 18 -5z m470 -1424 l-88
-102 -7 34 c-5 27 -2 41 18 70 49 71 81 93 147 98 11 1 -13 -34 -70 -100z
m-43 83 c0 -10 -53 -62 -63 -62 -13 0 -7 33 10 52 16 18 53 25 53 10z m-604
-2362 c-133 -208 -212 -315 -232 -313 -52 5 -104 16 -104 23 0 9 105 149 185
247 41 51 62 66 120 91 39 17 73 31 76 31 4 1 -16 -35 -45 -79z m-166 -18 c0
-5 -9 -17 -21 -28 -12 -10 -60 -70 -107 -133 l-85 -113 -44 5 c-47 5 -64 14
-48 25 6 4 53 55 104 114 72 83 103 111 135 122 48 17 66 19 66 8z m-241 -129
c-47 -49 -92 -97 -100 -109 -11 -16 -29 -23 -80 -28 l-66 -7 100 100 c86 88
106 103 151 115 28 7 57 14 65 15 8 0 -24 -38 -70 -86z m-156 -5 c-128 -143
-123 -139 -193 -148 -36 -4 -66 -7 -66 -6 -1 0 41 41 93 90 90 85 119 102 181
105 21 1 20 -2 -15 -41z"/>
<path d="M5777 8036 c-57 -16 -130 -64 -135 -90 -4 -21 10 -20 116 9 68 18
139 14 199 -10 18 -8 71 -50 118 -94 47 -45 90 -81 95 -81 37 0 -21 100 -105
179 -96 91 -179 116 -288 87z"/>
<path d="M3955 7641 c-33 -9 -81 -29 -107 -45 -63 -37 -189 -165 -222 -227
-40 -73 -46 -199 -8 -175 6 3 27 37 48 74 55 98 96 151 156 203 74 64 106 78
201 91 101 13 127 22 127 47 0 39 -107 57 -195 32z"/>
<path d="M5864 7417 c-107 -73 -154 -203 -135 -367 27 -222 117 -382 252 -451
166 -84 324 26 345 241 8 77 -20 248 -54 328 -56 133 -158 232 -275 267 -70
21 -78 20 -133 -18z m216 -80 c127 -77 219 -272 208 -444 -9 -128 -53 -224
-118 -258 -30 -15 -85 -21 -78 -7 44 85 57 165 46 286 -11 117 -69 229 -137
265 -42 23 -107 24 -150 1 -34 -17 -41 -18 -52 -4 -16 20 2 82 38 125 67 79
150 92 243 36z"/>
<path d="M5070 7259 c-58 -30 -128 -101 -162 -164 -34 -66 -69 -240 -73 -374
-6 -162 42 -504 88 -638 37 -109 133 -214 242 -264 59 -28 75 -31 165 -31 98
0 100 -1 106 -25 8 -30 -13 -140 -33 -174 -26 -43 -51 -52 -168 -57 -85 -3
-125 -1 -175 13 -36 10 -83 21 -106 24 -77 14 -174 100 -174 157 0 17 9 25 34
34 38 12 54 37 30 47 -38 14 -142 -45 -207 -116 -59 -65 -48 -81 21 -32 l40
30 28 -41 c34 -49 107 -114 154 -138 85 -43 189 -63 330 -63 278 0 425 56 547
206 56 70 57 71 60 146 4 75 -5 110 -25 97 -6 -4 -14 -28 -17 -54 -11 -92 -24
-119 -82 -177 -57 -57 -118 -95 -184 -113 l-37 -10 0 128 -1 127 56 23 c153
63 283 295 283 504 0 131 -68 374 -150 536 -83 165 -223 321 -341 381 -86 43
-185 50 -249 18z m555 -964 c30 -29 31 -56 6 -110 -29 -63 -87 -99 -118 -73
-38 31 27 208 77 208 6 0 22 -11 35 -25z"/>
<path d="M4025 7010 c-123 -50 -190 -172 -203 -367 -4 -70 -1 -94 23 -170 58
-187 131 -289 242 -340 76 -35 185 -37 254 -6 54 24 140 122 175 198 82 179
-8 504 -174 631 -83 63 -231 88 -317 54z m247 -78 c63 -28 116 -83 160 -168
48 -91 68 -176 68 -289 0 -78 -4 -98 -29 -150 -29 -62 -117 -155 -146 -155
-19 0 -20 -8 13 85 28 83 33 157 18 255 -22 138 -158 290 -260 290 -16 0 -46
-10 -67 -22 -36 -20 -39 -20 -63 -4 -53 34 -14 119 79 170 41 23 163 16 227
-12z"/>
<path d="M5565 5360 c-21 -34 -200 -112 -308 -135 -43 -9 -23 -24 26 -19 83 8
109 16 170 49 60 33 153 115 130 115 -7 0 -15 -4 -18 -10z"/>
<path d="M8585 10218 c-68 -308 -130 -729 -191 -1291 -8 -78 -19 -178 -24
-222 -18 -149 -40 -350 -50 -440 -5 -49 -14 -133 -20 -185 -6 -52 -17 -156
-25 -230 -7 -74 -23 -216 -34 -315 -11 -99 -28 -250 -36 -335 -9 -85 -22 -207
-30 -270 -15 -127 -17 -217 -4 -225 4 -3 23 16 41 42 18 27 84 107 148 178
242 273 317 394 402 652 23 73 48 131 53 129 41 -13 -93 -362 -208 -543 -68
-105 -120 -203 -108 -203 6 0 45 43 88 95 75 93 78 95 84 68 4 -19 1 -31 -10
-38 -41 -26 -84 -84 -168 -226 -88 -149 -285 -519 -298 -560 -4 -11 -20 -48
-35 -82 l-29 -62 2 70 c2 64 0 70 -18 70 -22 0 -29 -25 -69 -275 -14 -85 -30
-177 -35 -205 -12 -59 -36 -209 -51 -315 -5 -41 -19 -172 -30 -290 -19 -199
-35 -338 -60 -515 -17 -120 -79 -625 -90 -725 -5 -52 -19 -176 -29 -275 -11
-99 -23 -214 -26 -255 -4 -41 -13 -113 -20 -160 -8 -47 -16 -128 -20 -180 -3
-52 -12 -153 -20 -225 -8 -71 -24 -224 -35 -340 -12 -115 -25 -230 -30 -255
-13 -62 -12 -337 0 -440 33 -264 110 -475 238 -645 60 -81 196 -218 310 -313
182 -151 427 -275 628 -317 91 -19 134 -19 134 0 0 19 -34 40 -103 64 -94 33
-320 145 -413 206 -177 115 -415 336 -495 460 -79 121 -162 334 -176 448 l-6
48 84 -7 c46 -4 99 -13 118 -20 18 -8 37 -11 42 -8 5 3 9 29 9 58 0 123 65
446 120 596 17 47 38 105 47 130 39 115 123 247 212 335 28 27 51 47 51 45 0
-32 -44 -200 -87 -335 -39 -122 -69 -253 -84 -360 -43 -324 -52 -424 -40 -444
14 -23 28 -5 87 109 63 124 159 272 242 373 56 69 138 147 153 147 5 0 -36
-90 -91 -199 -93 -187 -159 -355 -174 -448 l-7 -40 133 -12 c73 -6 177 -16
230 -23 l97 -11 11 -53 c6 -30 15 -54 19 -54 9 0 27 73 40 165 21 142 85 282
200 435 79 106 210 242 197 205 -4 -11 -19 -51 -33 -89 -37 -103 -125 -395
-168 -558 -15 -59 -19 -90 -12 -97 14 -14 44 3 61 37 27 51 117 157 183 213
60 51 173 125 173 113 0 -20 -126 -225 -182 -298 -53 -67 -50 -76 20 -76 31 0
125 -11 207 -24 279 -45 570 -96 605 -106 56 -16 60 -14 60 33 l0 43 -122 22
c-68 12 -154 27 -193 33 -38 5 -139 21 -223 34 -84 14 -177 26 -207 28 -30 1
-55 3 -55 5 0 2 29 52 64 112 91 152 114 201 118 246 3 34 0 39 -20 42 -50 7
-203 -82 -305 -178 -37 -34 -67 -58 -67 -52 0 15 134 434 171 534 47 129 27
149 -78 79 -197 -132 -373 -384 -434 -621 -12 -47 -23 -88 -25 -91 -2 -3 -38
0 -81 6 -43 7 -127 16 -186 20 -104 7 -108 8 -101 28 3 12 15 51 26 87 38 128
112 298 167 386 36 55 74 164 69 196 -4 33 -32 33 -96 1 -82 -40 -212 -174
-300 -309 -40 -60 -78 -118 -86 -129 -17 -25 47 285 105 510 23 88 55 210 70
270 16 61 32 138 35 172 7 63 7 63 -19 63 -20 0 -53 -25 -128 -98 -109 -104
-182 -203 -234 -316 -44 -95 -138 -389 -161 -503 -10 -51 -22 -93 -26 -93 -4
0 -8 9 -8 19 0 32 -50 181 -82 246 -17 33 -48 76 -69 96 l-39 36 10 79 c5 43
17 149 25 234 9 85 23 220 31 300 8 80 21 204 29 275 9 72 22 197 30 279 8 83
21 193 29 245 8 53 20 143 26 201 6 58 16 139 20 180 5 41 14 116 20 165 5 50
15 119 20 155 6 36 21 159 35 273 14 115 27 212 29 215 2 4 9 64 16 132 6 69
15 152 20 185 5 33 19 128 31 210 59 415 89 501 340 965 64 118 127 240 140
270 61 143 137 237 185 227 50 -9 229 12 319 38 194 57 314 127 454 268 110
110 237 305 264 405 10 39 10 45 -6 57 -19 13 -43 13 -177 -6 -297 -42 -553
-145 -727 -295 -24 -20 -43 -32 -43 -27 0 5 13 51 29 101 16 51 27 101 24 110
-3 14 9 25 49 47 170 91 293 210 420 405 160 247 228 489 228 814 0 188 -1
189 -92 151 -415 -174 -652 -440 -728 -818 -12 -62 -15 -331 -5 -432 6 -57 3
-68 -50 -199 -72 -177 -111 -253 -173 -341 -75 -105 -232 -280 -232 -258 0 10
9 108 20 218 12 110 25 245 30 300 30 329 41 442 45 460 2 11 11 94 20 185 8
91 22 219 30 285 8 66 17 156 20 200 3 44 12 123 20 175 7 52 21 169 30 260
19 199 55 433 125 810 16 85 32 178 35 205 4 28 9 58 12 68 4 15 -3 17 -51 17
-50 0 -56 -2 -61 -22z m915 -1358 c-16 -130 -66 -371 -95 -453 -13 -37 -42
-100 -65 -138 -74 -125 -262 -339 -372 -425 -56 -44 -81 -56 -59 -30 6 7 17
33 25 57 38 118 258 626 338 782 44 85 46 110 5 50 -124 -183 -354 -671 -387
-821 -6 -26 -16 -65 -22 -87 l-11 -40 -8 40 c-12 59 -11 338 1 414 24 154 36
192 90 306 87 183 186 278 458 442 l107 64 3 -33 c2 -18 -2 -76 -8 -128z m160
-1176 c-20 -51 -135 -207 -206 -279 -161 -163 -354 -250 -618 -279 -52 -6 -57
-5 -46 9 13 15 278 205 337 241 17 10 64 39 105 63 145 88 218 134 214 138 -4
4 -69 -23 -247 -105 -102 -46 -280 -158 -378 -236 -38 -31 -72 -56 -75 -56
-12 0 74 139 114 183 99 111 285 234 416 276 82 26 289 65 366 70 26 1 27 -1
18 -25z m-1869 -5429 c43 -114 96 -291 104 -353 l7 -54 -43 6 c-24 3 -69 8
-100 11 l-56 6 -7 102 c-6 98 6 337 20 392 l7 27 18 -29 c11 -15 33 -64 50
-108z"/>
<path d="M6486 10092 c-3 -9 -12 -78 -21 -152 -9 -74 -22 -171 -30 -215 -8
-44 -17 -101 -20 -127 -3 -26 -10 -80 -15 -120 -20 -153 -23 -193 -12 -183 14
13 47 156 72 308 26 167 60 428 60 465 0 33 -26 51 -34 24z"/>
<path d="M7571 9733 c-15 -69 -19 -455 -5 -460 8 -3 13 35 18 119 18 361 18
388 8 388 -5 0 -15 -21 -21 -47z"/>
<path d="M1805 9705 c-81 -17 -124 -36 -187 -83 -107 -79 -180 -190 -194 -295
-6 -39 -10 -47 -23 -41 -43 19 -121 34 -172 34 -90 0 -162 -33 -241 -110 -65
-64 -74 -80 -93 -172 -4 -22 -11 -28 -33 -28 -37 0 -120 -40 -166 -80 -104
-92 -102 -232 4 -323 71 -60 77 -61 628 -52 273 4 760 11 1082 15 670 8 666 8
737 83 74 79 89 202 35 305 -36 70 -150 132 -242 132 -39 0 -40 1 -40 36 0 68
-73 187 -142 230 -83 53 -193 66 -306 38 -35 -9 -64 -14 -65 -13 -1 2 -17 34
-35 71 -59 117 -176 214 -298 247 -63 17 -185 20 -249 6z m262 -100 c63 -19
162 -91 203 -147 30 -40 51 -102 65 -181 l6 -38 35 30 c54 48 100 64 179 63
94 0 172 -30 220 -84 55 -60 69 -101 61 -178 l-6 -65 79 3 c86 4 141 -15 184
-64 45 -51 61 -157 33 -212 -18 -36 -79 -68 -141 -76 -46 -6 -1356 -20 -1936
-21 l-256 0 -36 28 c-23 17 -41 42 -48 67 -11 35 -10 44 12 87 33 63 101 105
180 111 l56 4 5 67 c16 216 272 314 481 182 l47 -31 0 63 c0 76 35 178 82 244
37 52 118 111 193 142 63 25 226 29 302 6z"/>
<path d="M8246 9538 c-2 -7 -11 -56 -21 -108 -9 -52 -25 -138 -35 -190 -44
-229 -56 -301 -90 -545 -34 -251 -49 -455 -32 -455 18 0 36 111 97 590 8 63
19 138 24 165 6 28 19 115 31 195 12 80 28 184 36 231 8 48 14 96 14 108 0 23
-18 29 -24 9z"/>
<path d="M7911 6852 c-6 -11 -18 -80 -26 -153 -9 -74 -18 -141 -20 -149 -12
-39 -75 -545 -75 -599 0 -77 15 -80 23 -3 3 31 17 127 31 214 14 86 32 227 41
315 9 87 22 210 30 273 7 63 12 116 10 118 -2 2 -8 -5 -14 -16z"/>
<path d="M7409 6385 c-4 -5 -10 -37 -13 -70 -22 -216 -49 -452 -66 -590 -20
-163 -24 -202 -15 -194 11 12 50 265 85 553 19 156 24 325 9 301z"/>
<path d="M8871 5540 c-133 -28 -273 -158 -300 -278 -5 -24 -11 -45 -13 -48 -2
-2 -21 1 -43 7 -58 16 -117 3 -182 -41 -100 -67 -142 -138 -143 -241 0 -69 45
-167 96 -205 69 -53 65 -53 688 -54 565 0 581 1 622 21 53 25 110 87 137 148
15 34 21 67 21 126 1 69 -3 88 -28 139 -34 69 -88 126 -147 156 -49 25 -167
37 -220 23 l-35 -10 -18 50 c-24 67 -94 140 -171 178 -50 25 -79 31 -141 34
-44 2 -99 0 -123 -5z m222 -89 c97 -43 177 -150 177 -236 0 -19 1 -35 3 -35 1
0 24 11 51 25 173 88 381 -53 363 -246 -7 -77 -44 -141 -105 -180 l-46 -29
-545 0 c-350 0 -560 4 -584 11 -43 12 -101 59 -123 100 -20 40 -18 113 6 158
26 52 104 119 147 127 56 11 128 -1 159 -25 l29 -23 6 69 c12 142 121 266 266
303 51 12 144 3 196 -19z"/>
<path d="M7528 3864 c-13 -20 -127 -617 -147 -769 -43 -321 -58 -475 -46 -463
6 6 24 104 75 428 22 140 61 373 86 518 42 243 50 315 32 286z"/>
<path d="M6546 3301 c-3 -5 -10 -42 -16 -82 -5 -41 -28 -162 -49 -269 -49
-242 -86 -447 -101 -565 -24 -184 -136 -786 -156 -839 -3 -9 -2 -16 2 -16 23
0 121 409 168 698 20 119 52 314 71 432 68 407 84 509 91 579 6 66 3 84 -10
62z"/>
<path d="M7137 2863 c-15 -66 -43 -219 -72 -393 -38 -228 -65 -616 -58 -830 4
-125 22 -303 32 -313 4 -4 6 84 3 195 -4 195 8 485 29 673 21 191 40 343 55
427 8 49 15 105 15 125 0 21 5 69 11 106 13 90 4 96 -15 10z"/>
<path d="M6516 1728 c-8 -13 -22 -70 -31 -126 -8 -57 -19 -122 -24 -145 -13
-57 -48 -296 -56 -382 -9 -98 9 -73 29 40 8 50 24 133 35 185 11 52 27 151 35
220 9 69 21 147 27 173 13 56 7 69 -15 35z"/>
<path d="M1631 1365 c-125 -95 -176 -173 -257 -400 l-7 -20 -4 20 c-9 45 -57
183 -79 226 -49 98 -147 186 -173 155 -8 -10 -7 -35 4 -97 16 -88 48 -305 60
-399 7 -63 6 -62 -59 37 -58 89 -146 170 -234 216 -131 69 -163 47 -91 -63 82
-127 121 -216 159 -366 12 -47 32 -69 56 -60 21 8 13 66 -21 164 -24 69 -103
230 -126 259 -12 14 -11 15 11 8 14 -4 34 -15 46 -24 49 -39 146 -154 207
-246 37 -55 76 -111 86 -125 l20 -25 0 115 c0 63 -4 147 -9 185 -11 89 -29
229 -35 275 -4 33 -4 34 10 15 9 -11 38 -65 65 -120 48 -96 56 -125 80 -285
19 -129 22 -145 31 -154 16 -17 21 1 29 106 9 107 51 241 113 365 27 52 125
178 133 170 3 -3 -8 -56 -25 -118 -28 -108 -34 -143 -61 -334 -15 -109 -17
-197 -5 -202 6 -2 28 29 48 69 43 84 96 143 176 197 52 36 134 81 145 81 3 0
-19 -37 -49 -83 -76 -117 -130 -243 -119 -276 18 -49 37 -29 85 86 26 62 69
148 95 190 65 104 77 130 70 149 -9 24 -54 12 -164 -43 -63 -31 -114 -67 -159
-109 l-66 -62 6 57 c7 67 57 284 92 400 14 47 25 90 25 98 0 27 -50 12 -109
-32z"/>
<path d="M7280 1372 c0 -93 74 -299 146 -408 59 -90 199 -229 291 -291 120
-80 322 -142 423 -131 l35 4 -30 13 c-16 7 -62 22 -102 32 -141 36 -325 148
-445 271 -31 32 -83 98 -116 146 -71 106 -182 339 -182 383 0 11 -4 19 -10 19
-5 0 -10 -17 -10 -38z"/>
<path d="M8450 1275 c0 -8 4 -15 10 -15 25 0 88 -183 125 -363 8 -37 28 -30
37 14 18 89 -34 283 -92 342 -38 38 -80 49 -80 22z"/>
<path d="M8785 1248 c-28 -81 -33 -228 -9 -288 9 -22 20 -40 24 -40 19 0 30
194 16 288 -7 49 -21 67 -31 40z"/>
<path d="M9036 1172 c-31 -32 -68 -75 -82 -96 -33 -49 -59 -125 -47 -137 13
-13 40 19 108 130 112 185 116 200 21 103z"/>
<path d="M9150 1017 c-52 -27 -105 -89 -96 -112 5 -13 21 -4 86 46 75 58 89
78 64 86 -6 2 -30 -7 -54 -20z"/>
<path d="M6885 1012 c-15 -11 -111 -259 -124 -320 -38 -181 28 -128 94 76 19
59 35 114 35 122 0 9 9 33 20 55 27 53 12 94 -25 67z"/>
<path d="M6560 796 l0 -163 -237 -6 c-185 -5 -255 -10 -315 -25 -87 -21 -139
-49 -117 -62 7 -5 21 -4 30 1 57 30 610 37 645 8 11 -9 18 -8 34 6 49 44 51
182 5 323 -15 45 -32 82 -36 82 -5 0 -9 -74 -9 -164z"/>
<path d="M2839 928 c-2 -41 2 -61 33 -163 31 -101 69 -188 88 -200 16 -10 11
81 -9 166 -19 80 -78 210 -99 217 -7 2 -12 -6 -13 -20z"/>
<path d="M2586 891 c-4 -5 10 -32 30 -59 21 -27 67 -103 103 -167 36 -65 72
-120 79 -123 29 -9 -1 112 -49 193 -52 89 -148 181 -163 156z"/>
<path d="M5692 888 c-5 -7 -19 -32 -30 -54 -25 -50 -151 -186 -224 -241 -60
-46 -138 -77 -318 -123 -151 -40 -175 -55 -70 -46 170 15 305 49 455 113 116
49 138 60 255 130 136 82 158 99 144 113 -16 16 -75 -7 -204 -79 -60 -34 -112
-61 -115 -61 -4 0 15 30 41 67 26 37 53 88 60 113 7 25 15 53 19 63 8 20 2 22
-13 5z"/>
<path d="M3088 853 c-33 -36 -64 -98 -74 -147 -5 -29 -4 -37 5 -31 14 8 110
205 101 205 -4 0 -18 -12 -32 -27z"/>
<path d="M2350 788 c0 -7 16 -22 34 -33 29 -17 149 -140 209 -214 37 -46 61 2
31 64 -37 78 -183 195 -244 195 -17 0 -30 -5 -30 -12z"/>
<path d="M7009 721 c-65 -39 -124 -103 -135 -147 -9 -37 3 -41 28 -8 47 60
104 117 145 146 40 27 55 48 35 48 -5 0 -37 -17 -73 -39z"/>
<path d="M7205 610 c-40 -6 -85 -28 -85 -42 0 -5 26 -9 58 -9 159 -4 280 -23
373 -58 103 -40 63 13 -45 58 -112 47 -214 64 -301 51z"/>
</g>
</svg>
