<?xml version="1.0" standalone="no"?>
<!DOCTYPE svg PUBLIC "-//W3C//DTD SVG 20010904//EN"
 "http://www.w3.org/TR/2001/REC-SVG-20010904/DTD/svg10.dtd">
<svg version="1.0" xmlns="http://www.w3.org/2000/svg"
 width="1024.000000pt" height="1024.000000pt" viewBox="0 0 1024.000000 1024.000000"
 preserveAspectRatio="xMidYMid meet">
<metadata>
Created by potrace 1.16, written by Peter Selinger 2001-2019
</metadata>
<g transform="translate(0.000000,1024.000000) scale(0.100000,-0.100000)"
fill="#000000" stroke="none">
<path d="M2930 9560 c-41 -41 -15 -129 67 -220 25 -27 43 -50 40 -50 -2 0 -33
10 -68 21 -36 12 -102 24 -149 26 -81 5 -86 4 -108 -20 -78 -83 35 -242 247
-349 41 -21 68 -39 60 -42 -194 -62 -219 -75 -219 -114 0 -23 44 -64 93 -86
53 -24 225 -56 304 -56 l65 0 -59 -64 c-250 -267 -445 -681 -550 -1167 -22
-102 -27 -151 -27 -274 -1 -131 2 -160 23 -227 l24 -78 -89 -93 c-271 -283
-390 -621 -355 -1008 24 -263 113 -526 261 -768 72 -119 129 -190 261 -326 64
-66 135 -148 158 -183 105 -157 271 -330 426 -445 44 -32 81 -60 82 -61 2 -1
-56 -13 -128 -25 -346 -60 -690 -181 -832 -293 -20 -16 -50 -51 -65 -76 -25
-43 -27 -56 -27 -147 0 -55 2 -134 4 -175 l4 -75 -74 -7 c-91 -8 -293 -50
-391 -82 -40 -13 -74 -23 -76 -21 -2 1 13 66 32 144 34 135 62 213 140 386 39
88 44 113 21 121 -27 11 -63 -5 -125 -55 -100 -81 -192 -207 -247 -341 l-23
-55 0 175 c0 96 -3 202 -6 235 -15 183 -43 334 -66 362 -28 35 -71 -6 -97 -92
-27 -86 -52 -260 -61 -415 -1 -16 -8 -2 -20 38 -50 170 -140 366 -234 512
-110 169 -316 358 -369 337 -25 -9 -21 -55 9 -107 70 -121 215 -501 313 -820
48 -155 60 -215 27 -137 -41 99 -183 271 -300 363 -81 65 -198 131 -270 154
-35 11 -41 11 -53 -6 -7 -10 -13 -21 -13 -25 0 -4 30 -42 68 -86 143 -166 229
-297 322 -489 48 -101 145 -353 137 -360 -2 -2 -20 18 -40 45 -79 103 -229
229 -330 277 -35 17 -38 17 -55 1 -20 -21 -28 -4 101 -208 47 -75 108 -177
135 -227 l50 -91 -67 -22 c-190 -62 -385 -153 -526 -244 -156 -100 -135 -96
205 40 140 56 295 117 343 134 l88 33 20 -24 20 -23 -5 34 c-9 52 -93 219
-184 369 -45 74 -82 136 -82 139 0 11 158 -128 213 -187 33 -36 98 -122 145
-193 47 -70 87 -125 89 -123 2 2 -10 59 -27 127 -101 401 -240 702 -440 953
-33 42 -58 76 -54 76 16 0 165 -112 230 -173 138 -128 286 -349 376 -561 24
-55 44 -93 46 -84 6 32 -70 374 -128 577 -85 293 -170 527 -262 716 l-29 60
90 -92 c206 -211 360 -526 457 -932 53 -223 52 -222 53 -71 3 275 23 525 52
644 10 43 19 80 19 82 0 2 4 4 8 4 5 0 14 -29 20 -65 23 -124 33 -368 26 -683
-4 -182 -3 -312 2 -312 5 0 15 28 21 63 38 197 130 412 231 538 57 71 132 149
132 137 0 -3 -11 -31 -25 -62 -46 -103 -93 -251 -114 -357 -23 -116 -42 -251
-36 -257 2 -2 14 3 27 12 32 21 275 90 435 124 l132 29 6 -51 c33 -309 49
-494 49 -611 1 -123 -2 -146 -20 -186 -31 -67 -86 -123 -173 -175 -171 -104
-220 -142 -345 -263 -156 -151 -218 -190 -406 -256 -210 -74 -325 -139 -426
-240 -59 -59 -75 -102 -50 -140 27 -41 75 -50 271 -49 275 1 540 33 722 87
l108 32 290 0 c160 0 313 4 340 8 l50 8 -65 -63 c-36 -35 -126 -104 -200 -153
-261 -175 -378 -321 -311 -392 49 -52 213 -51 388 1 119 36 220 54 398 71 263
26 397 62 697 189 219 93 317 117 499 123 278 10 394 -29 848 -285 166 -94
270 -134 431 -168 63 -14 183 -40 265 -60 162 -37 195 -40 228 -22 75 39 59
108 -50 228 -33 36 -86 101 -119 145 -58 79 -144 231 -144 255 0 9 13 10 48 6
101 -14 152 -31 297 -98 228 -106 290 -126 485 -159 168 -27 282 -56 531 -132
135 -41 303 -76 390 -79 53 -3 63 0 80 21 64 79 -48 240 -274 393 -111 75
-217 161 -217 177 0 3 44 5 97 4 222 -4 345 -14 478 -39 105 -19 167 -25 250
-23 237 4 242 3 380 -40 188 -60 281 -74 450 -68 211 8 272 34 262 110 -7 50
-34 78 -105 107 -140 58 -263 150 -401 304 -52 58 -117 125 -146 149 -114 99
-261 175 -450 232 -234 70 -304 106 -404 205 -128 129 -201 367 -201 663 l0
99 78 -64 c178 -148 322 -218 449 -218 92 0 153 38 153 96 0 19 4 20 53 16 66
-5 123 17 137 53 35 91 -10 264 -112 433 -21 34 -38 64 -38 66 0 1 55 -6 122
-16 399 -61 1039 -276 1636 -547 243 -111 322 -144 329 -138 8 8 -83 79 -172
135 -135 84 -524 262 -572 262 -7 0 -13 6 -13 13 0 23 128 162 248 269 66 59
122 117 125 128 9 36 -20 53 -77 45 -114 -15 -225 -76 -386 -213 l-111 -94 41
84 c139 281 212 405 353 595 95 128 103 145 91 177 -9 22 -69 20 -123 -4 -121
-55 -303 -230 -412 -394 -35 -52 -65 -94 -66 -92 -5 4 141 373 198 501 29 66
79 172 110 236 62 125 74 175 48 192 -54 35 -255 -117 -388 -293 -74 -99 -160
-246 -197 -335 l-32 -80 -6 60 c-18 171 -61 339 -106 413 -22 36 -58 43 -81
15 -30 -35 -22 -710 11 -916 6 -40 5 -47 -7 -42 -68 25 -398 87 -534 100 l-77
7 -80 102 c-45 55 -97 119 -116 142 l-35 40 162 -1 c89 -1 175 2 191 6 115 33
101 158 -41 363 l-56 81 32 260 c60 491 66 580 66 925 0 298 -5 348 -51 531
-67 271 -186 508 -376 749 -63 79 -67 87 -60 120 4 19 7 83 7 142 l0 107 25
-5 c57 -11 79 42 80 194 2 401 -172 963 -414 1337 l-65 100 62 2 c156 6 282
35 324 75 42 39 21 90 -43 107 -25 6 -19 10 61 35 205 64 279 143 209 225 -32
38 -104 61 -193 61 l-65 0 75 51 c175 119 219 209 133 265 -43 29 -232 31
-360 5 -196 -40 -496 -151 -672 -247 -34 -19 -69 -34 -77 -34 -8 0 -63 20
-122 44 -375 153 -781 226 -1258 226 -116 0 -272 -5 -346 -10 -325 -26 -692
-104 -949 -203 l-142 -55 -52 30 c-28 17 -96 63 -151 103 -120 87 -218 148
-292 181 -164 72 -321 96 -363 54z m179 -91 c133 -37 266 -107 436 -229 92
-66 214 -130 247 -130 13 0 57 13 98 29 518 199 1071 276 1620 226 314 -29
481 -64 797 -167 l221 -72 -29 -35 c-16 -20 -29 -42 -29 -49 0 -22 38 -8 157
58 179 100 469 214 703 276 108 29 304 44 336 26 17 -10 14 -16 -41 -69 -56
-54 -159 -120 -353 -225 -41 -22 -71 -42 -69 -45 3 -2 45 0 94 6 168 21 323
10 389 -27 16 -9 12 -14 -31 -41 -66 -42 -228 -93 -402 -127 -79 -16 -139 -31
-135 -35 10 -10 166 -39 207 -39 41 0 135 -21 135 -30 0 -4 -46 -15 -101 -25
-79 -13 -131 -16 -228 -12 -69 4 -139 9 -155 13 -28 7 -28 5 23 -55 246 -296
448 -781 515 -1236 22 -146 32 -320 18 -311 -6 3 -46 59 -89 122 -43 64 -79
110 -81 102 -1 -7 11 -83 27 -169 51 -263 55 -323 35 -451 -5 -35 0 -45 79
-150 228 -303 340 -555 393 -886 21 -130 26 -483 7 -489 -20 -7 -77 53 -147
152 -36 53 -73 109 -81 124 -14 28 -145 198 -145 189 0 -2 22 -54 49 -114 87
-194 122 -314 128 -434 5 -88 3 -108 -10 -119 -47 -39 -175 67 -288 238 -38
58 -69 102 -69 99 0 -3 16 -48 36 -99 77 -196 96 -339 53 -393 -28 -35 -61
-34 -145 8 -131 66 -272 204 -424 417 -40 54 -74 99 -76 99 -2 0 2 -15 10 -32
8 -18 37 -85 65 -149 58 -132 88 -248 71 -279 -26 -48 -114 -14 -220 87 -103
97 -159 178 -256 368 -91 178 -100 178 -43 1 72 -220 225 -423 383 -507 83
-45 147 -46 183 -5 22 26 25 37 21 88 l-4 58 30 -28 c101 -94 267 -194 344
-207 52 -8 101 13 127 58 16 25 20 49 19 109 l-1 77 36 -28 c20 -15 46 -33 58
-40 27 -14 88 -14 114 -1 51 28 63 128 30 263 l-18 78 62 -66 c40 -42 73 -67
92 -71 30 -6 30 -6 27 -67 -7 -110 -25 -331 -29 -367 -3 -19 -14 -125 -26
-234 -11 -110 -24 -208 -28 -218 -5 -14 -16 -5 -59 50 -74 93 -254 294 -259
288 -11 -11 90 -160 300 -440 104 -141 177 -270 177 -317 0 -27 -3 -29 -35
-29 -165 0 -624 382 -927 770 -23 30 -27 32 -28 14 0 -11 27 -60 61 -110 176
-257 400 -479 654 -647 l90 -59 -70 6 c-142 14 -333 101 -582 265 -582 385
-940 852 -1050 1371 -25 120 -25 357 1 460 89 356 372 597 796 675 52 10 110
21 129 24 19 4 37 13 39 20 4 12 -20 13 -134 8 -286 -11 -516 -107 -691 -290
-132 -138 -205 -286 -239 -484 -20 -115 -15 -313 11 -433 57 -271 190 -550
381 -797 88 -114 336 -360 447 -443 47 -36 86 -68 86 -71 2 -15 -226 -153
-341 -209 -201 -97 -384 -151 -623 -185 -142 -21 -192 -19 -296 11 -86 25 -98
26 -164 16 -67 -11 -75 -10 -135 15 -53 21 -75 24 -125 20 -73 -6 -144 -29
-209 -69 -46 -28 -54 -29 -156 -29 -106 0 -249 11 -420 32 -569 67 -1044 296
-1348 648 -198 230 -377 592 -443 896 -24 111 -32 370 -15 540 l8 90 -45 -90
c-24 -49 -63 -110 -86 -135 l-42 -45 5 115 c11 269 108 561 276 825 27 43 50
83 50 87 0 33 -89 -46 -159 -141 -128 -173 -214 -403 -240 -642 -19 -167 12
-319 65 -319 7 0 25 11 41 24 l28 23 1 -96 c3 -176 42 -363 116 -548 24 -60
45 -112 47 -118 7 -20 -68 82 -129 175 -80 123 -150 267 -199 416 -60 178 -76
279 -75 479 0 151 3 181 27 268 56 209 146 372 287 519 l95 99 65 -46 c61 -43
151 -95 166 -95 4 0 -27 35 -67 78 -192 201 -221 412 -114 827 109 422 292
800 489 1012 73 79 206 172 296 209 129 53 354 70 490 39 233 -54 417 -199
519 -406 l48 -99 28 39 c43 63 234 243 310 293 141 92 298 158 465 194 101 22
324 29 432 15 410 -55 738 -284 908 -635 56 -117 80 -187 112 -329 20 -88 23
-129 22 -297 0 -213 -8 -264 -64 -408 -104 -270 -363 -478 -685 -548 -38 -9
-126 -18 -195 -21 -281 -12 -597 76 -823 229 -121 81 -297 282 -297 338 0 38
-49 170 -84 224 -45 70 -116 131 -185 157 -134 50 -298 -15 -388 -155 -57 -88
-100 -283 -86 -394 l5 -48 -63 -41 c-252 -164 -585 -177 -814 -32 -169 107
-285 311 -316 561 -19 144 -32 133 -26 -22 9 -221 62 -360 191 -496 84 -91
166 -143 281 -181 71 -24 95 -27 215 -27 74 0 162 6 195 13 84 18 198 64 279
111 37 22 69 40 71 40 2 0 6 -17 10 -37 4 -20 16 -55 27 -78 57 -113 131 -132
180 -45 13 22 30 42 39 45 9 3 49 -11 88 -31 116 -61 216 -48 298 38 39 41 79
127 88 190 l7 47 49 -58 c117 -141 310 -264 524 -334 350 -115 713 -108 988
21 275 129 454 335 528 607 20 71 22 107 23 305 1 254 -11 350 -69 527 -143
435 -440 707 -888 815 -79 19 -120 22 -292 22 -183 0 -209 -2 -305 -26 -128
-32 -209 -62 -315 -116 -142 -72 -227 -139 -376 -299 l-76 -82 -41 82 c-130
262 -392 418 -704 418 -136 0 -246 -28 -388 -98 -114 -57 -116 -57 -195 -55
-136 4 -375 48 -390 72 -7 11 177 48 300 61 61 6 111 12 112 13 2 2 -53 26
-121 55 -162 69 -276 134 -343 195 -46 42 -83 91 -83 111 0 22 173 -10 344
-65 205 -65 206 -61 45 105 -141 146 -185 205 -152 205 9 0 51 -9 92 -21z
m1474 -2025 c51 -36 121 -137 142 -207 9 -29 19 -84 22 -124 l6 -72 -39 14
c-56 20 -105 18 -170 -6 -54 -21 -99 -58 -185 -155 -14 -16 -38 -39 -52 -52
-14 -13 -32 -36 -39 -52 -7 -17 -16 -30 -19 -30 -4 0 -16 20 -28 45 -103 219
-42 560 114 643 89 46 178 45 248 -4z m132 -476 c32 -15 32 -40 -3 -102 -31
-55 -77 -86 -132 -86 -38 0 -140 47 -140 64 0 24 63 85 112 110 56 28 120 34
163 14z m4471 -2626 c-120 -239 -293 -697 -353 -936 -20 -77 -37 -143 -39
-145 -3 -4 -233 59 -243 66 -2 1 -10 85 -17 185 -14 186 -17 568 -5 668 l6 55
18 -51 c33 -95 67 -299 79 -473 6 -96 15 -166 19 -155 4 10 26 73 49 139 59
167 108 267 200 403 92 136 191 248 274 309 32 24 60 43 62 43 2 0 -20 -49
-50 -108z m-2078 -428 c93 -155 365 -566 505 -762 102 -144 168 -244 185 -284
16 -38 -6 -58 -61 -58 -121 0 -273 79 -443 227 l-77 68 8 196 c6 189 6 199
-16 248 -29 70 -101 132 -213 186 -78 37 -134 57 -294 104 -21 6 -11 14 80 68
56 34 130 82 163 106 33 25 64 44 70 43 5 -1 47 -65 93 -142z m2325 73 c-11
-12 -59 -79 -105 -149 -96 -143 -212 -365 -282 -539 l-47 -115 -85 29 c-51 18
-84 35 -84 43 0 23 124 258 183 347 102 152 236 293 357 374 71 47 101 52 63
10z m-2211 -66 c76 -46 197 -108 244 -125 60 -21 376 -417 468 -587 67 -122
95 -246 64 -277 -22 -22 -91 -14 -139 17 -77 50 -121 107 -385 506 -228 344
-340 520 -328 512 5 -2 39 -23 76 -46z m-3640 -42 l42 -22 -49 -24 c-28 -14
-57 -31 -65 -38 -8 -7 -51 -18 -95 -24 -336 -51 -599 -161 -618 -258 -11 -57
28 -97 150 -157 226 -112 648 -191 1128 -212 83 -3 166 -8 185 -10 62 -6 815
-17 810 -11 -11 11 -300 27 -590 32 -585 10 -815 31 -1153 106 -299 66 -517
166 -517 235 0 74 224 180 500 239 168 35 166 36 125 -25 -19 -28 -39 -75 -45
-105 -10 -49 -15 -57 -45 -69 -42 -18 -60 -48 -44 -77 15 -28 87 -59 152 -64
l52 -5 -68 18 c-72 20 -120 49 -125 75 -2 10 11 23 34 35 l38 19 21 -31 c27
-40 61 -57 107 -54 l37 3 -6 -41 c-4 -28 0 -53 12 -78 36 -76 123 -87 230 -31
l67 35 34 -26 c72 -55 140 -43 304 56 160 96 175 102 218 90 20 -7 133 -14
250 -17 207 -6 212 -6 212 -27 1 -11 7 -32 15 -46 8 -14 14 -28 15 -32 0 -5
-165 -9 -367 -9 -445 -2 -398 -15 82 -24 182 -3 350 -8 375 -11 31 -4 58 -1
84 10 52 22 53 21 61 -22 10 -61 38 -98 90 -117 39 -16 53 -16 99 -6 29 6 77
27 107 46 l54 34 12 -23 c7 -13 29 -31 49 -41 55 -26 122 -8 204 55 26 21 55
31 115 39 241 36 445 115 445 171 0 23 -41 56 -79 65 l-29 6 21 39 c19 33 20
44 10 80 -8 33 -8 43 3 47 18 7 209 -31 338 -67 108 -30 166 -55 220 -93 20
-14 27 -16 24 -6 -8 27 -100 79 -192 108 -91 29 -246 61 -298 61 -42 0 -34 15
15 29 23 7 80 26 127 43 81 30 87 30 144 19 92 -19 256 -76 341 -118 134 -66
191 -131 166 -192 -60 -144 -500 -321 -988 -396 -386 -60 -601 -79 -893 -79
-214 0 -258 3 -348 22 -97 21 -113 21 -250 11 -187 -15 -697 -6 -892 15 -260
29 -416 57 -645 118 -304 80 -576 210 -629 299 -37 62 -13 105 97 173 165 102
452 195 776 251 171 30 183 30 233 4z m226 -105 l73 -27 -71 -23 c-71 -22
-114 -49 -179 -112 -88 -85 -151 -102 -151 -39 0 72 77 168 173 217 47 23 52
23 155 -16z m205 -71 c37 -10 67 -20 67 -23 0 -3 -16 -12 -37 -19 -41 -15
-133 -103 -179 -171 -53 -79 -183 -150 -220 -119 -29 24 3 137 62 215 47 61
161 129 224 133 8 1 45 -7 83 -16z m1337 -12 c0 -5 -8 -12 -18 -15 -38 -12
-114 -94 -150 -161 -33 -63 -43 -73 -99 -103 -77 -41 -109 -37 -119 14 -8 43
33 131 78 169 65 55 190 103 271 104 20 1 37 -3 37 -8z m-1035 -55 l130 -23
-75 -38 c-41 -21 -118 -63 -170 -95 -173 -104 -225 -124 -254 -95 -20 20 -20
27 -1 70 27 67 180 206 224 205 9 0 75 -11 146 -24z m1352 0 l25 -13 -35 -21
c-54 -34 -115 -107 -148 -175 -16 -34 -29 -67 -29 -72 0 -16 -120 -92 -166
-105 -73 -22 -101 12 -92 109 6 57 49 155 86 194 84 88 268 131 359 83z m483
-11 c0 -37 -36 -66 -130 -104 -95 -40 -185 -95 -255 -159 -105 -95 -186 -128
-200 -81 -22 67 65 233 157 299 36 26 50 30 112 31 39 0 118 9 176 19 144 24
140 24 140 -5z m-1337 -36 c53 -2 97 -5 97 -7 0 -1 -7 -19 -15 -39 -8 -19 -15
-44 -15 -54 0 -18 -12 -19 -245 -19 -135 0 -245 3 -245 8 0 4 25 20 57 37 33
17 64 42 74 60 l18 31 88 -7 c48 -4 132 -9 186 -10z m1431 -104 c115 -48 -5
-122 -293 -180 -68 -14 -126 -24 -128 -21 -12 12 128 105 222 147 60 26 113
53 119 59 14 14 37 13 80 -5z m3169 -133 c-65 -64 -138 -145 -163 -180 -24
-34 -47 -62 -50 -62 -3 0 -33 11 -67 23 l-63 23 63 61 c125 122 221 188 331
229 33 13 62 23 64 23 2 1 -50 -52 -115 -117z m-6741 -141 l123 -59 23 -198
c33 -278 33 -278 38 -283 3 -3 3 99 2 227 -2 152 0 232 7 230 173 -48 215 -64
216 -83 0 -11 6 -92 14 -180 8 -101 12 -290 12 -512 -1 -193 1 -346 4 -340 38
70 63 661 40 942 -4 50 -7 91 -7 92 1 1 51 -9 111 -22 216 -47 619 -95 791
-95 82 0 84 0 99 -30 27 -52 35 -121 39 -310 l3 -185 49 -140 48 -140 6 -245
c5 -241 8 -253 30 -110 29 194 21 361 -22 480 -56 157 -60 176 -62 380 -2 154
-6 204 -19 239 -9 24 -17 44 -17 46 0 1 98 5 218 9 119 4 240 9 268 12 l51 6
7 -98 c4 -55 15 -146 25 -204 l17 -105 8 203 c5 111 13 202 17 202 5 0 51 -10
102 -22 84 -21 116 -23 365 -22 l272 0 0 -197 c0 -110 5 -222 11 -251 7 -29
35 -109 65 -178 54 -129 74 -220 74 -338 0 -110 63 -342 92 -342 6 0 7 8 3 18
-22 57 -46 209 -56 352 -11 181 -16 203 -85 369 -54 131 -61 184 -56 427 l3
150 152 17 c224 26 462 64 630 101 l147 33 0 -116 c0 -64 -7 -170 -15 -236
-35 -286 -39 -355 -27 -440 15 -104 42 -182 82 -241 35 -49 51 -54 26 -6 -56
108 -80 341 -52 508 33 205 48 332 49 440 l2 111 119 39 c150 48 316 129 380
185 l49 43 -7 -79 c-13 -153 -8 -524 8 -625 40 -249 135 -424 290 -535 85 -61
164 -95 332 -145 163 -48 293 -109 384 -178 36 -27 124 -111 195 -187 170
-179 307 -282 449 -335 58 -21 12 -33 -146 -38 -173 -4 -218 3 -432 67 -72 22
-148 42 -168 46 -31 5 -44 16 -81 68 -79 111 -267 308 -267 280 0 -4 31 -44
68 -88 38 -44 98 -119 135 -167 l66 -86 -42 -8 c-77 -13 -180 -6 -342 22 -145
25 -183 28 -407 28 l-248 1 -42 80 c-87 161 -163 244 -337 369 -124 89 -218
182 -251 246 -50 98 -62 172 -66 415 -6 299 -14 342 -30 165 -35 -384 1 -576
139 -726 28 -31 104 -96 168 -144 164 -124 211 -180 305 -363 67 -131 88 -162
149 -222 38 -38 104 -92 145 -120 159 -106 221 -157 265 -216 25 -34 45 -64
45 -68 0 -10 -165 15 -259 39 -42 11 -141 39 -221 64 -149 45 -317 85 -448
106 -66 11 -73 14 -78 38 -18 82 -48 167 -85 242 -45 94 -135 234 -169 265
l-23 20 13 -25 c7 -14 20 -36 30 -50 33 -49 109 -198 139 -272 31 -80 63 -189
56 -196 -9 -10 -171 51 -297 112 -195 94 -252 111 -370 111 l-96 0 -21 42
c-11 24 -63 109 -115 190 -191 302 -224 397 -233 682 -3 101 -9 177 -13 170
-23 -42 -29 -284 -11 -399 26 -157 86 -310 201 -505 42 -72 113 -205 157 -296
93 -194 167 -308 269 -419 71 -77 86 -100 64 -100 -6 0 -59 11 -118 25 -59 14
-154 35 -212 46 -201 39 -403 111 -414 148 -3 9 -21 76 -41 149 -19 72 -43
149 -54 170 -11 21 -62 77 -114 125 -53 48 -113 115 -137 152 -24 36 -45 64
-47 61 -3 -2 11 -38 30 -79 29 -62 51 -90 122 -159 48 -46 95 -99 105 -119 11
-20 30 -81 44 -137 15 -55 31 -113 36 -127 5 -14 7 -24 2 -22 -76 39 -332 194
-332 202 0 24 -70 153 -105 195 -74 88 -77 108 -51 401 5 56 4 70 -4 56 -18
-28 -51 -215 -53 -297 -2 -85 5 -102 83 -205 28 -37 60 -85 71 -107 20 -38 20
-40 2 -33 -192 80 -286 100 -488 100 -222 0 -335 -27 -618 -149 -188 -81 -217
-91 -217 -79 1 23 71 249 92 295 14 29 52 83 85 120 87 94 138 165 167 228 64
142 102 394 93 630 -6 178 -25 261 -27 120 -3 -228 -28 -470 -61 -598 -35
-139 -74 -204 -199 -337 -73 -77 -105 -126 -130 -200 -18 -54 -47 -165 -65
-251 -5 -28 -12 -33 -63 -47 -67 -19 -155 -31 -352 -52 -154 -17 -197 -25
-383 -74 -116 -30 -267 -43 -267 -23 0 18 58 88 111 136 30 27 119 93 199 146
145 98 162 114 357 326 182 199 276 357 337 568 26 90 51 242 44 273 -5 19
-11 -1 -46 -150 -44 -185 -139 -354 -297 -530 l-101 -112 -79 -17 c-85 -17
-285 -24 -285 -9 0 5 14 44 32 87 33 85 79 163 135 232 53 65 34 60 -38 -11
-74 -72 -120 -146 -154 -243 -15 -42 -31 -71 -42 -75 -10 -3 -67 -2 -128 3
-135 11 -200 5 -335 -32 -113 -31 -237 -55 -340 -65 -36 -4 -78 -9 -95 -11
-68 -9 -374 -16 -419 -10 l-48 8 33 35 c43 45 139 113 206 147 28 14 112 46
185 71 193 66 255 106 428 270 126 119 166 151 278 217 153 91 237 173 273
267 25 64 33 213 19 341 -14 124 -58 569 -65 654 l-6 78 50 -36 c27 -20 105
-63 173 -95z"/>
<path d="M3830 8639 c-84 -9 -140 -24 -218 -60 -247 -111 -447 -384 -491 -668
-10 -60 -8 -93 3 -60 39 114 95 248 128 304 111 190 259 320 438 386 191 70
393 41 527 -75 103 -89 169 -244 172 -401 2 -93 21 -25 21 75 0 164 -42 271
-143 367 -113 107 -261 152 -437 132z"/>
<path d="M5481 8639 c-94 -16 -234 -69 -308 -115 -87 -54 -207 -179 -251 -262
-32 -60 -75 -172 -67 -172 3 0 14 19 26 43 95 186 246 326 428 396 209 80 486
64 694 -40 271 -136 419 -370 443 -698 9 -123 25 -97 25 42 0 403 -253 705
-665 793 -89 19 -256 26 -325 13z"/>
<path d="M4807 7763 c-12 -11 -7 -47 13 -90 51 -114 229 -242 426 -309 288
-96 644 -62 871 85 89 57 171 159 142 176 -5 3 -50 -16 -101 -44 -206 -109
-422 -152 -663 -130 -249 23 -449 109 -606 260 -62 59 -70 65 -82 52z"/>
<path d="M4265 7694 c-60 -51 -267 -151 -365 -175 -108 -28 -275 -30 -370 -6
-96 25 -206 84 -268 144 -60 59 -82 66 -82 28 0 -64 87 -172 184 -229 233
-138 564 -110 803 67 35 26 76 65 92 88 28 38 57 106 49 114 -1 2 -21 -12 -43
-31z"/>
<path d="M3965 7334 c-194 -156 -384 -202 -530 -129 -30 16 -62 36 -71 47 -22
24 -38 23 -24 -1 19 -37 76 -85 130 -110 47 -22 68 -26 145 -24 147 2 256 51
357 162 53 58 96 122 81 120 -4 0 -44 -29 -88 -65z"/>
<path d="M5015 7348 c57 -187 333 -358 574 -358 102 0 226 36 286 84 26 20 19
20 -95 -2 -183 -36 -351 -6 -520 94 -59 34 -230 179 -230 195 0 5 -5 9 -11 9
-6 0 -8 -9 -4 -22z"/>
<path d="M2880 6278 c-69 -147 -63 -265 15 -343 34 -35 53 -45 91 -51 88 -13
184 27 280 118 l52 49 4 -103 c6 -148 43 -224 131 -270 102 -52 212 -25 314
77 l61 62 7 -36 c15 -79 77 -164 154 -209 41 -24 56 -27 141 -27 85 0 102 3
155 29 74 36 179 140 219 217 l30 57 37 -77 c51 -104 96 -153 177 -193 61 -30
74 -33 157 -32 77 1 98 5 147 28 101 49 188 143 228 246 7 19 15 37 16 39 2 1
18 -9 36 -23 77 -58 176 -73 255 -36 60 27 135 100 167 164 30 58 50 186 28
172 -7 -4 -12 -19 -12 -33 0 -63 -80 -174 -156 -219 -109 -64 -179 -53 -272
42 -35 35 -64 64 -66 64 -2 0 -6 -17 -10 -37 -9 -60 -71 -179 -120 -231 -58
-62 -141 -103 -222 -110 -182 -14 -311 125 -368 399 l-13 64 -12 -45 c-64
-249 -225 -420 -396 -420 -152 1 -246 114 -262 316 l-6 86 -21 -49 c-49 -112
-105 -176 -190 -218 -103 -52 -194 -22 -249 80 -20 36 -22 55 -21 180 0 77 6
160 12 185 14 55 9 61 -19 24 -58 -77 -197 -202 -258 -232 -76 -38 -116 -40
-161 -9 -75 50 -97 153 -61 287 11 41 18 76 16 79 -3 2 -18 -25 -35 -61z"/>
<path d="M2993 5438 c18 -260 153 -447 322 -449 91 -2 152 38 211 137 9 16 13
12 28 -34 39 -117 164 -266 280 -333 172 -99 382 -92 528 19 84 64 136 143
174 261 3 10 12 4 26 -20 64 -106 161 -184 266 -215 86 -25 220 -16 291 21
148 75 253 248 250 415 l-1 55 -18 -68 c-54 -203 -196 -349 -360 -372 -55 -8
-146 12 -212 46 -97 49 -212 207 -235 320 -6 31 -8 26 -25 -51 -48 -226 -187
-380 -369 -409 -272 -45 -557 222 -595 557 -3 34 -10 62 -14 62 -4 0 -10 -28
-13 -63 -15 -157 -101 -267 -209 -267 -78 0 -172 79 -228 190 -29 57 -80 231
-80 272 0 10 -5 18 -12 18 -8 0 -9 -26 -5 -92z"/>
<path d="M3403 4615 c16 -158 115 -325 242 -410 87 -57 156 -77 250 -72 119 6
193 52 232 146 8 18 16 32 17 30 2 -2 23 -26 46 -53 108 -127 254 -206 413
-224 69 -9 93 1 35 13 -18 4 -63 20 -100 35 -170 69 -309 185 -393 326 l-46
79 6 -47 c10 -70 -16 -147 -64 -191 -50 -45 -98 -60 -180 -55 -175 10 -339
162 -422 390 -17 46 -33 85 -36 88 -3 3 -3 -22 0 -55z"/>
<path d="M4781 4385 c-1 -36 72 -145 139 -209 109 -102 235 -154 345 -143 111
11 156 60 154 167 l-1 65 -9 -45 c-16 -81 -57 -116 -147 -127 -104 -12 -238
54 -367 182 -45 44 -89 91 -98 105 -15 23 -16 23 -16 5z"/>
<path d="M6808 3461 c-9 -16 -34 -41 -55 -55 -97 -65 -412 -168 -672 -222
-137 -29 -172 -45 -54 -25 201 34 422 89 567 142 138 50 244 128 234 173 -2
11 -8 7 -20 -13z"/>
<path d="M6793 2680 c5 -328 25 -389 161 -512 74 -67 117 -130 191 -278 45
-89 102 -174 141 -212 34 -32 103 -64 159 -74 49 -8 40 3 -23 31 -26 11 -57
27 -68 35 -41 30 -116 134 -160 223 -89 176 -125 230 -214 317 -71 70 -91 96
-109 145 -34 88 -48 189 -56 380 -4 94 -11 175 -17 180 -6 7 -8 -72 -5 -235z"/>
<path d="M2748 2350 c-9 -250 -28 -284 -228 -416 -95 -62 -146 -104 -199 -162
-43 -48 -91 -90 -123 -107 -73 -39 -158 -98 -187 -128 -17 -19 12 -8 120 47
127 65 155 84 234 160 50 47 138 117 196 156 186 121 215 174 213 390 -1 74
-6 153 -11 175 -8 33 -11 13 -15 -115z"/>
<path d="M6917 1863 c39 -86 63 -120 63 -89 0 18 -75 152 -91 161 -4 3 8 -29
28 -72z"/>
<path d="M6272 1681 c116 -119 157 -171 255 -321 156 -237 145 -220 137 -190
-26 107 -179 344 -303 469 -74 76 -157 145 -211 176 -8 5 47 -55 122 -134z"/>
<path d="M8475 2776 c-31 -40 -115 -187 -115 -200 0 -18 44 31 106 119 35 49
64 96 64 102 0 24 -29 13 -55 -21z"/>
<path d="M8810 2743 c-90 -14 -213 -79 -279 -147 -48 -50 -18 -48 64 3 34 22
79 47 100 55 46 20 145 46 145 39 0 -3 -21 -28 -46 -57 -26 -28 -62 -73 -80
-101 -28 -41 -32 -52 -21 -63 11 -10 24 -8 73 14 83 37 182 55 294 55 100 0
138 10 110 30 -10 6 -68 9 -160 6 -116 -3 -156 -8 -197 -24 -67 -26 -62 -15
35 81 48 47 68 74 64 85 -11 30 -33 35 -102 24z"/>
<path d="M1307 2393 c-17 -17 -2 -34 55 -63 84 -43 125 -77 193 -160 31 -38
61 -70 65 -70 14 0 -7 59 -39 108 -70 109 -238 222 -274 185z"/>
<path d="M1717 2373 c-11 -10 -8 -159 3 -189 6 -15 12 -25 14 -23 2 2 6 42 10
87 8 105 -2 150 -27 125z"/>
<path d="M1101 2211 c-26 -17 4 -38 57 -40 60 -1 124 -19 235 -66 49 -20 91
-34 94 -31 12 12 -53 60 -131 97 -71 34 -98 42 -163 45 -43 3 -84 1 -92 -5z"/>
<path d="M9105 1947 c-68 -47 -161 -146 -221 -236 l-49 -74 -8 53 c-4 29 -19
79 -33 111 -26 57 -78 118 -90 106 -4 -4 10 -43 30 -87 20 -44 46 -121 59
-170 12 -49 25 -90 28 -90 3 0 29 35 59 78 52 75 228 262 246 262 5 0 -13 -46
-41 -103 -46 -93 -107 -247 -99 -247 2 0 34 19 71 42 38 23 106 59 153 81 70
33 99 41 163 45 42 3 77 2 77 -2 0 -3 -37 -30 -83 -60 -90 -60 -132 -99 -123
-115 6 -8 190 110 239 154 40 36 -3 75 -83 75 -86 0 -210 -42 -296 -100 -57
-38 -55 -32 33 126 73 131 84 177 43 182 -15 2 -44 -10 -75 -31z"/>
<path d="M1455 890 c-10 -16 2 -28 76 -76 38 -26 98 -77 132 -115 34 -38 65
-69 70 -69 15 0 -7 56 -40 102 -74 102 -215 196 -238 158z"/>
<path d="M1847 803 c-19 -18 3 -173 25 -173 4 0 8 30 8 68 0 93 -11 128 -33
105z"/>
<path d="M1240 751 c0 -15 12 -21 63 -30 75 -14 149 -37 197 -61 19 -10 46
-21 58 -25 22 -6 23 -5 13 14 -18 33 -80 70 -164 96 -97 31 -167 34 -167 6z"/>
<path d="M4240 735 c0 -8 19 -34 43 -58 23 -24 58 -72 77 -105 36 -63 50 -76
50 -45 0 46 -48 140 -98 196 -28 29 -72 37 -72 12z"/>
<path d="M4650 661 c-64 -34 -163 -132 -148 -147 2 -2 34 18 71 45 37 27 87
57 112 67 29 12 45 25 45 37 0 23 -34 22 -80 -2z"/>
</g>
</svg>
