<?xml version="1.0" standalone="no"?>
<!DOCTYPE svg PUBLIC "-//W3C//DTD SVG 20010904//EN"
 "http://www.w3.org/TR/2001/REC-SVG-20010904/DTD/svg10.dtd">
<svg version="1.0" xmlns="http://www.w3.org/2000/svg"
 width="1024.000000pt" height="1024.000000pt" viewBox="0 0 1024.000000 1024.000000"
 preserveAspectRatio="xMidYMid meet">
<metadata>
Created by potrace 1.16, written by Peter Selinger 2001-2019
</metadata>
<g transform="translate(0.000000,1024.000000) scale(0.100000,-0.100000)"
fill="#000000" stroke="none">
<path d="M2009 9725 c-137 -27 -309 -121 -388 -211 -51 -57 -96 -133 -117
-194 -10 -30 -19 -56 -20 -57 0 -2 -30 9 -65 24 -55 23 -79 27 -169 27 -98 1
-109 -1 -173 -31 -88 -42 -177 -129 -200 -197 -10 -29 -17 -81 -17 -122 l0
-73 -57 -11 c-178 -36 -313 -157 -300 -269 9 -82 82 -121 262 -143 177 -21
1526 5 1893 36 260 23 362 54 434 134 47 52 63 101 63 197 0 70 -4 87 -30 134
-85 154 -273 243 -416 196 -30 -10 -58 -21 -64 -26 -18 -17 -20 -8 -21 89 -1
90 -4 104 -42 194 -80 191 -149 255 -318 298 -90 22 -160 24 -255 5z m229 -60
c141 -33 211 -92 278 -230 51 -106 69 -202 60 -318 -3 -43 -2 -77 2 -75 4 2
40 20 79 41 64 32 81 37 143 37 89 0 168 -37 228 -105 67 -76 85 -124 80 -208
-3 -40 -12 -87 -22 -105 -21 -41 -105 -96 -176 -116 -145 -40 -836 -67 -1725
-66 -359 0 -451 3 -498 15 -78 20 -116 41 -129 71 -17 37 18 104 78 145 55 38
170 79 234 84 25 2 53 6 62 10 16 6 16 9 2 30 -25 38 -29 125 -9 186 25 73
100 148 180 179 91 35 209 33 295 -4 105 -46 107 -45 146 51 37 91 51 117 104
182 62 78 238 178 355 201 65 13 166 11 233 -5z"/>
<path d="M8534 9690 c-130 -24 -334 -132 -426 -227 -25 -26 -60 -70 -77 -98
-42 -66 -81 -193 -81 -261 0 -29 -1 -54 -2 -54 -2 0 -21 7 -43 15 -86 31 -229
12 -321 -41 -58 -34 -130 -114 -155 -171 -12 -27 -23 -76 -26 -109 -9 -107 50
-204 152 -249 59 -26 133 -43 218 -50 138 -11 638 -25 913 -25 447 0 656 19
815 75 103 37 162 118 163 224 0 43 -6 77 -16 97 -24 44 -81 98 -125 119 -64
31 -204 31 -284 0 -14 -5 -14 3 -6 72 15 129 -3 214 -76 362 -49 98 -73 133
-115 172 -62 57 -146 108 -217 133 -59 20 -217 29 -291 16z m292 -87 c78 -30
169 -97 216 -160 59 -78 124 -223 136 -302 10 -72 6 -199 -9 -238 -21 -57 -23
-56 116 -18 69 20 176 15 223 -9 37 -19 90 -79 98 -112 10 -40 -3 -125 -23
-147 -96 -107 -318 -138 -988 -135 -547 2 -878 18 -966 47 -116 37 -166 89
-176 184 -12 105 84 240 203 286 93 36 157 38 234 8 87 -33 130 -41 130 -22 0
7 -4 17 -10 20 -5 3 -10 36 -10 73 0 185 101 348 278 451 133 78 231 102 387
97 78 -3 125 -9 161 -23z"/>
<path d="M5275 9328 c-226 -34 -317 -57 -465 -114 -281 -110 -498 -250 -680
-441 -335 -350 -492 -667 -561 -1128 -15 -105 -15 -363 0 -495 17 -140 64
-370 102 -494 69 -227 174 -654 164 -664 -9 -10 -211 -21 -365 -22 -204 0
-363 21 -567 75 -72 19 -155 40 -184 45 -58 11 -317 14 -389 5 -87 -11 -266
-47 -390 -76 -187 -45 -262 -57 -384 -58 -60 -1 -113 -4 -117 -7 -22 -13 -235
19 -363 56 -240 67 -411 86 -636 69 -147 -11 -255 -31 -362 -66 -69 -23 -78
-28 -78 -50 0 -20 4 -24 18 -18 35 13 159 45 242 62 64 13 136 17 295 17 236
-1 271 -6 492 -69 312 -90 516 -88 894 9 270 69 347 80 559 80 198 0 202 -1
476 -73 61 -16 162 -37 224 -46 128 -17 427 -21 530 -5 123 18 114 24 128 -87
40 -323 -25 -636 -181 -876 -95 -146 -309 -358 -497 -495 -58 -41 -143 -103
-189 -136 -46 -34 -162 -128 -259 -211 -96 -82 -189 -162 -206 -176 -35 -29
-23 -29 -281 5 -136 18 -394 42 -565 53 -63 5 -275 8 -470 7 -325 0 -373 -3
-575 -28 -231 -29 -494 -75 -582 -101 -44 -13 -53 -20 -53 -39 l0 -22 107 23
c106 22 425 70 633 93 130 15 739 21 875 9 294 -26 536 -52 667 -71 169 -24
163 -14 67 -123 -237 -270 -426 -646 -481 -960 -42 -234 -24 -486 48 -699 13
-38 24 -70 24 -70 0 -1 -111 -1 -248 -1 -316 -1 -453 -21 -692 -101 -197 -67
-400 -206 -449 -307 -36 -75 -20 -168 38 -221 12 -11 21 -25 21 -32 0 -22 98
-131 147 -163 26 -17 65 -37 88 -43 22 -6 41 -12 43 -13 1 -1 -11 -28 -28 -60
-72 -137 -14 -223 201 -297 l94 -32 235 0 c320 0 449 19 730 109 58 18 157 49
220 69 63 20 142 47 175 60 33 13 92 36 130 51 39 15 98 40 133 56 35 16 68
29 75 29 17 0 342 165 394 200 24 17 47 30 50 30 3 0 20 11 37 24 l32 24 100
-34 c258 -85 387 -103 814 -111 414 -7 583 8 955 88 77 17 174 41 215 54 168
54 229 75 305 104 91 35 113 37 176 16 24 -8 106 -26 182 -40 76 -13 155 -29
175 -34 21 -6 66 -15 102 -22 36 -6 92 -18 125 -26 33 -8 73 -17 88 -19 28 -3
88 -15 177 -34 291 -61 352 -71 498 -82 127 -9 184 -9 255 1 202 27 361 88
446 171 121 119 159 194 148 290 -14 121 -118 221 -343 333 -131 65 -200 90
-359 127 -184 43 -350 63 -527 63 l-157 -1 37 57 c20 31 48 72 63 91 81 107
250 421 317 591 34 84 132 423 132 454 0 44 17 51 136 60 241 18 378 21 714
17 204 -2 458 1 575 7 116 6 287 14 380 17 94 3 223 9 287 15 65 6 168 7 230
4 185 -10 489 -35 553 -45 33 -6 63 -10 68 -10 4 0 7 17 7 39 l0 38 -87 12
c-247 32 -431 43 -613 37 -102 -4 -205 -9 -230 -11 -48 -5 -308 -20 -610 -35
-102 -5 -378 -10 -615 -10 -430 0 -471 -1 -663 -21 -57 -6 -105 -9 -108 -6
-12 11 13 36 79 76 208 129 443 361 633 626 196 273 355 640 437 1010 40 177
47 341 21 513 -18 121 -31 166 -86 280 -31 66 -48 90 -83 114 -39 28 -43 34
-38 63 7 46 -20 88 -80 121 -45 24 -57 26 -118 21 -48 -4 -92 -16 -148 -41
-43 -20 -83 -36 -88 -36 -19 0 -130 -78 -207 -145 -79 -69 -180 -193 -218
-269 -27 -54 -26 -53 -43 -29 -18 25 -102 48 -150 40 -19 -3 -57 -17 -86 -31
-28 -14 -61 -26 -73 -26 -25 0 -106 -54 -106 -70 0 -6 -4 -10 -10 -10 -5 0
-10 7 -10 15 0 19 -43 167 -67 230 l-19 50 67 71 c152 163 315 448 364 638 14
54 25 113 25 130 0 28 7 37 50 65 27 18 63 48 79 68 29 35 31 36 58 22 15 -8
77 -65 139 -126 106 -108 134 -129 134 -100 0 45 -104 171 -211 257 l-46 37
19 39 c11 21 27 73 37 114 13 52 23 74 32 72 8 -2 55 -23 106 -47 94 -44 163
-87 221 -137 45 -38 56 -35 31 10 -45 80 -85 116 -185 169 -55 28 -117 57
-140 63 l-40 12 -10 75 -10 76 106 -7 c129 -8 217 -26 294 -60 69 -31 86 -32
86 -8 0 62 -191 128 -401 139 l-116 6 -45 57 c-25 31 -67 71 -93 88 -64 42
-187 89 -272 103 l-69 11 -19 87 c-101 471 -289 809 -568 1023 -236 180 -493
296 -728 328 -95 13 -409 18 -474 8z m443 -129 c75 -11 169 -31 208 -44 79
-26 268 -114 299 -138 19 -16 19 -16 -13 -17 -43 0 -102 -55 -102 -94 0 -31 6
-32 51 -9 73 38 210 11 316 -61 49 -33 189 -207 228 -283 10 -21 27 -50 37
-64 61 -90 171 -408 192 -556 l6 -41 -43 -7 c-23 -3 -49 -8 -57 -11 -13 -3
-15 13 -15 99 -2 271 -161 511 -356 534 -120 14 -208 -71 -253 -244 -18 -70
-21 -235 -5 -303 29 -123 30 -151 7 -189 -12 -20 -25 -37 -30 -39 -41 -18
-133 -90 -158 -123 -39 -54 -38 -66 3 -36 82 62 275 141 422 172 92 19 92 19
56 -14 -29 -27 -40 -51 -24 -51 4 0 52 18 107 39 151 58 243 74 406 69 171 -6
268 -35 362 -106 78 -60 89 -77 64 -95 -27 -20 -14 -47 22 -47 25 0 30 -5 36
-31 12 -60 8 -89 -13 -89 -20 0 -71 -36 -71 -51 0 -5 18 -9 40 -9 46 0 49 -10
25 -81 -35 -101 -102 -197 -183 -261 -48 -39 -146 -84 -222 -104 -63 -16 -250
-17 -265 -2 -4 4 0 29 8 55 54 161 75 233 69 233 -4 -1 -34 -40 -67 -87 -156
-226 -325 -350 -538 -394 -115 -23 -208 -24 -317 -1 -84 18 -210 67 -210 83 0
4 15 18 33 30 93 64 247 182 247 190 0 12 -103 -26 -168 -62 -32 -18 -83 -52
-115 -76 l-57 -44 -28 20 c-62 44 -171 187 -155 202 7 7 185 49 338 80 98 20
86 29 -35 29 -265 0 -530 -82 -625 -193 -31 -36 -45 -67 -29 -67 3 0 42 21 87
48 45 26 93 53 107 59 l26 11 23 -107 c30 -138 101 -354 153 -461 35 -72 58
-101 145 -187 56 -57 106 -103 112 -103 5 0 38 -17 72 -38 138 -84 306 -111
427 -69 67 24 156 105 212 193 89 141 194 405 207 522 3 28 9 52 14 52 4 0 51
-7 105 -16 91 -16 104 -16 197 0 54 10 115 24 134 33 19 8 37 13 38 11 2 -2
-15 -50 -37 -107 -49 -125 -159 -326 -241 -441 -71 -98 -289 -321 -362 -369
l-50 -33 49 6 c51 6 148 46 177 72 15 13 20 4 57 -108 22 -68 46 -142 52 -166
l11 -43 -51 -56 c-75 -82 -118 -150 -236 -370 -141 -264 -209 -366 -319 -479
-28 -28 -161 -143 -211 -182 l-41 -31 -104 95 c-154 140 -314 240 -487 304
-69 25 -94 21 -42 -7 56 -31 181 -122 269 -197 80 -67 262 -255 270 -277 2 -6
-21 -35 -50 -65 -29 -29 -50 -57 -46 -60 21 -21 191 62 312 152 254 188 372
332 540 659 154 298 235 416 338 494 13 11 10 -3 -14 -60 -27 -61 -156 -435
-175 -504 -4 -15 1 -13 21 10 35 41 85 148 130 280 76 226 158 360 242 397 45
20 45 20 64 0 10 -11 28 -23 39 -27 19 -6 20 -9 7 -23 -33 -38 -78 -148 -142
-347 -37 -115 -83 -254 -102 -308 -34 -95 -38 -131 -9 -91 36 48 90 176 155
364 72 212 125 340 140 340 4 0 20 -12 35 -27 50 -50 96 -268 96 -459 0 -180
-51 -449 -121 -636 -119 -317 -267 -550 -476 -749 -159 -151 -273 -227 -494
-329 -177 -82 -251 -107 -389 -130 -251 -43 -468 -21 -695 70 -232 92 -454
272 -592 481 -49 75 -54 79 -47 39 14 -70 99 -216 188 -324 49 -58 179 -173
251 -221 78 -51 201 -110 280 -134 278 -83 674 -60 955 56 324 133 640 370
829 623 87 115 83 113 76 50 -54 -461 -105 -696 -205 -949 -97 -246 -258 -534
-406 -729 -60 -78 -197 -222 -284 -300 -231 -205 -649 -424 -965 -506 -467
-121 -771 -151 -1280 -128 -210 10 -412 35 -500 61 -16 5 -56 17 -88 26 l-58
16 82 87 c133 140 225 295 244 408 l6 39 -29 -51 c-142 -251 -435 -482 -877
-693 -147 -70 -176 -82 -515 -207 -86 -32 -331 -107 -455 -139 -94 -24 -200
-44 -290 -54 -149 -18 -465 -11 -465 9 0 16 464 212 692 294 43 16 78 30 78
33 0 5 -52 -2 -160 -24 -179 -35 -653 -208 -711 -259 -33 -30 -134 40 -127 88
2 16 23 36 68 65 35 24 61 43 56 43 -4 0 3 14 15 31 38 53 296 164 722 309
109 37 201 70 204 74 21 21 -216 -20 -362 -63 -135 -40 -464 -160 -592 -216
-66 -30 -95 -27 -193 17 -47 21 -76 42 -102 76 l-37 46 27 18 c26 16 196 84
317 126 96 34 407 121 492 138 126 26 122 36 -10 30 -250 -13 -604 -105 -828
-216 -32 -15 -60 -26 -63 -22 -11 11 -6 64 10 98 32 66 212 190 352 241 239
88 404 106 817 90 l190 -7 66 -62 c69 -66 146 -124 154 -116 3 2 -20 42 -51
89 -104 157 -169 310 -205 480 -19 92 -20 124 -15 284 8 266 44 402 175 663
122 244 240 401 458 612 211 204 367 333 571 471 171 117 410 333 514 464 143
181 242 395 279 605 9 48 13 151 13 285 -1 207 -2 213 -43 413 -23 112 -46
215 -52 229 -5 15 -25 85 -44 157 -18 72 -38 143 -44 157 -18 50 -79 294 -94
384 -42 244 -47 518 -13 715 28 161 109 395 179 520 97 171 226 338 373 481
116 113 191 169 323 244 374 211 770 292 1149 234z m822 -789 c47 -24 122
-106 153 -166 47 -92 71 -191 71 -294 l1 -95 -80 -12 c-43 -7 -80 -11 -82 -10
-1 2 -7 33 -13 71 -18 115 -82 216 -159 250 -29 14 -43 15 -53 7 -7 -6 -28
-23 -47 -38 -18 -15 -42 -45 -52 -67 l-18 -41 0 91 c-1 117 41 247 97 297 42
38 114 41 182 7z m-635 -1901 c39 -15 72 -37 110 -77 30 -30 55 -59 55 -64 0
-14 30 -9 36 6 3 8 -4 32 -15 55 -12 22 -21 42 -21 45 0 2 15 10 34 16 59 19
152 -15 234 -85 44 -38 82 -100 82 -133 0 -30 -66 -98 -122 -126 -153 -76
-421 17 -593 206 -79 88 -81 92 -46 117 49 35 114 61 153 61 21 0 62 -9 93
-21z m2269 -258 c4 -5 -2 -23 -11 -41 -17 -30 -17 -32 0 -45 17 -12 17 -16
-12 -74 -47 -92 -135 -315 -165 -416 -14 -49 -35 -114 -46 -143 -22 -58 -25
-82 -10 -82 13 0 60 95 93 185 53 146 201 455 218 455 16 0 60 -77 84 -147 41
-117 58 -250 51 -398 -3 -71 -8 -142 -10 -157 -14 -92 -20 -124 -47 -224 -16
-62 -43 -149 -60 -195 -17 -46 -44 -120 -60 -163 -33 -89 -109 -237 -193 -375
-142 -234 -375 -497 -606 -684 l-55 -44 1 251 c1 230 3 254 21 291 78 156 183
460 207 605 9 52 21 159 27 237 10 121 9 159 -5 257 -9 64 -25 144 -36 178
-11 35 -20 70 -20 79 0 9 -18 42 -40 73 -27 38 -39 64 -35 76 26 82 235 322
347 398 52 36 69 41 46 15 -25 -29 -83 -150 -132 -279 -26 -65 -51 -129 -56
-142 -6 -13 -10 -31 -10 -40 0 -40 52 40 110 168 63 141 138 273 180 319 56
60 78 71 151 71 37 0 70 -4 73 -9z m-1053 -4111 c224 -19 430 -78 630 -181
185 -96 261 -176 262 -281 1 -56 -6 -67 -30 -46 -83 70 -434 225 -620 273 -96
25 -269 55 -318 55 -43 0 -27 -18 23 -25 175 -25 451 -123 692 -246 186 -96
176 -86 144 -147 -19 -37 -37 -56 -67 -71 -39 -20 -41 -20 -66 -2 -117 83
-465 209 -675 246 -166 28 -233 13 -78 -18 99 -21 297 -85 452 -147 114 -45
240 -109 240 -121 0 -4 -35 -16 -77 -26 -58 -13 -121 -17 -248 -18 -179 0
-290 13 -520 61 -172 36 -504 98 -690 129 -88 15 -166 29 -174 31 -8 3 20 25
65 52 181 107 298 197 448 344 l150 147 71 3 c88 5 248 -1 386 -12z m839 -569
c0 -6 -11 -23 -25 -38 -28 -32 -35 -12 -9 25 16 23 34 29 34 13z"/>
<path d="M5159 8807 c-145 -50 -228 -142 -250 -278 -11 -66 -2 -117 23 -133
10 -6 19 -8 22 -5 3 2 12 40 21 84 19 92 33 122 81 175 43 47 152 95 242 105
57 6 62 9 62 31 0 49 -91 59 -201 21z"/>
<path d="M5234 8316 c-54 -17 -125 -67 -162 -113 -71 -91 -102 -192 -104 -339
-1 -121 12 -182 63 -291 37 -82 37 -83 16 -88 -12 -3 -53 -12 -90 -20 -85 -19
-167 -55 -195 -86 -27 -28 -29 -54 -4 -46 204 67 361 97 513 97 122 0 192 -11
306 -48 45 -14 86 -23 89 -19 9 9 -33 55 -56 62 -16 5 -16 9 -2 48 11 29 16
78 17 157 0 105 -2 120 -27 170 -30 62 -39 74 -86 113 -28 22 -43 27 -89 27
-122 0 -191 -84 -200 -242 -3 -56 1 -101 10 -138 9 -30 15 -56 14 -57 -1 -1
-34 -2 -72 -4 -49 -1 -69 2 -67 10 1 6 -7 29 -18 51 -55 108 -78 301 -50 421
27 112 84 197 168 247 41 24 57 27 132 27 77 0 92 -3 153 -34 178 -87 280
-268 281 -496 0 -112 -16 -172 -64 -249 -39 -61 -15 -62 35 -2 58 71 77 133
83 266 7 187 -41 323 -152 434 -130 130 -302 186 -442 142z"/>
<path d="M6720 7693 c-115 -8 -240 -59 -283 -117 -99 -129 -89 -238 27 -302
134 -74 326 -71 448 7 95 61 178 181 178 258 0 91 -183 166 -370 154z"/>
<path d="M6325 5885 c-90 -34 -280 -59 -395 -51 -79 6 -186 26 -267 52 -35 11
70 -76 121 -100 186 -88 496 -67 594 39 32 35 40 75 17 81 -5 1 -37 -8 -70
-21z"/>
<path d="M8706 6078 c4 -7 20 -29 36 -49 39 -50 80 -138 114 -239 26 -79 28
-96 28 -250 1 -147 -2 -177 -27 -274 -15 -60 -48 -157 -72 -215 -48 -113 -159
-298 -212 -355 -39 -40 -40 -46 -12 -46 26 0 115 88 161 161 149 233 227 479
229 717 1 144 -38 311 -98 417 -32 58 -114 145 -137 145 -11 0 -15 -4 -10 -12z"/>
<path d="M9100 6016 c0 -2 15 -27 33 -55 76 -120 88 -141 102 -181 8 -23 23
-96 32 -160 15 -103 16 -131 4 -220 -14 -114 -49 -231 -110 -366 -23 -51 -41
-95 -41 -98 0 -4 10 0 22 8 31 22 103 137 129 205 80 214 78 502 -5 692 -6 14
4 18 71 24 43 4 155 22 248 41 242 48 380 61 502 46 54 -6 110 -15 126 -18 24
-6 27 -4 27 19 0 16 -7 28 -17 31 -138 40 -327 33 -626 -23 -119 -22 -252 -42
-295 -43 l-78 -2 -41 41 c-38 38 -83 70 -83 59z"/>
<path d="M750 5469 c-114 -17 -333 -103 -355 -138 -3 -5 45 4 107 21 231 62
272 70 360 70 48 0 121 -8 162 -17 72 -16 118 -32 301 -105 127 -50 210 -64
355 -57 123 5 275 37 400 82 249 91 459 99 701 25 263 -81 386 -83 628 -14
108 31 171 55 171 64 0 4 -73 -6 -162 -22 -205 -38 -407 -43 -503 -14 -194 60
-282 78 -405 83 -150 6 -245 -8 -439 -66 -183 -56 -268 -72 -396 -78 -144 -7
-243 12 -410 78 -71 27 -161 59 -199 70 -85 23 -227 32 -316 18z"/>
<path d="M9614 5330 c-38 -10 -81 -20 -95 -22 -22 -4 -22 -5 -5 -13 11 -5 54
-4 101 3 122 18 172 15 307 -18 161 -39 318 -41 318 -4 0 11 -18 14 -79 14
-56 0 -114 9 -196 30 -138 36 -243 39 -351 10z"/>
<path d="M1010 4898 c-97 -10 -185 -39 -290 -97 -96 -51 -87 -68 16 -30 174
65 200 71 299 76 147 8 221 -9 493 -110 135 -51 206 -62 377 -61 115 0 187 7
310 28 173 29 274 53 290 69 12 11 -76 6 -335 -23 -339 -36 -477 -24 -706 66
-191 75 -310 96 -454 82z"/>
<path d="M9220 4436 c-52 -13 -157 -40 -232 -60 -146 -39 -268 -55 -358 -45
-30 3 -57 5 -58 3 -2 -1 9 -11 24 -21 23 -15 48 -18 144 -18 106 1 131 5 325
55 206 53 212 54 355 54 128 0 162 -3 287 -32 149 -34 215 -39 304 -22 73 14
219 59 219 69 0 4 -42 1 -92 -6 -153 -23 -309 -21 -408 4 -196 50 -354 56
-510 19z"/>
<path d="M670 3260 c-113 -16 -240 -53 -240 -71 0 -12 36 -11 80 1 116 31 402
41 482 16 68 -21 81 -30 113 -75 15 -23 33 -41 39 -41 6 0 25 14 41 31 59 61
98 74 220 74 61 0 128 -3 150 -8 l40 -7 -24 20 c-38 33 -126 53 -202 47 -77
-6 -125 -25 -179 -67 l-38 -30 -17 26 c-9 14 -47 40 -83 57 -63 30 -74 32
-192 34 -69 1 -154 -3 -190 -7z"/>
<path d="M8525 3018 c-147 -14 -371 -82 -406 -124 -17 -20 4 -19 86 7 149 46
278 69 385 69 180 0 277 -38 394 -153 l68 -69 -51 -34 c-96 -65 -54 -73 71
-14 121 57 200 73 328 67 58 -3 136 -13 174 -22 73 -17 94 -13 61 12 -43 32
-112 54 -203 63 -100 11 -159 5 -276 -27 l-59 -16 -21 29 c-62 87 -168 160
-281 192 -88 26 -156 31 -270 20z"/>
<path d="M8792 1139 c-97 -12 -164 -35 -230 -79 l-60 -40 -68 40 c-116 68
-229 78 -402 35 -129 -31 -262 -95 -262 -125 0 -5 30 4 68 19 131 54 228 75
347 75 l110 1 109 -52 109 -52 36 31 c44 39 120 74 191 89 73 15 224 6 325
-20 44 -11 91 -21 104 -21 77 0 -117 86 -216 95 -32 4 -67 8 -78 9 -11 2 -48
-1 -83 -5z"/>
<path d="M1478 723 c7 -3 16 -2 19 1 4 3 -2 6 -13 5 -11 0 -14 -3 -6 -6z"/>
<path d="M3490 696 c-110 -25 -257 -93 -239 -110 2 -3 46 8 96 24 50 16 131
34 180 41 120 15 187 -3 252 -67 24 -24 47 -44 51 -44 4 0 15 9 24 19 26 29
107 60 188 72 58 9 95 8 183 -4 61 -9 120 -19 133 -22 39 -12 24 11 -22 34
-54 27 -163 51 -231 51 -67 0 -170 -25 -223 -55 l-43 -24 -20 20 c-63 63 -212
93 -329 65z"/>
</g>
</svg>
