<?xml version="1.0" encoding="UTF-8" standalone="yes"?>
<svg version="1.0" xmlns="http://www.w3.org/2000/svg" width="1024.000000pt" height="1024.000000pt" viewBox="0 0 1024.000000 1024.000000" preserveAspectRatio="xMidYMid meet">
  <metadata>
Created by potrace 1.16, written by Peter Selinger 2001-2019
</metadata>
  <g transform="translate(0.000000,1024.000000) scale(0.100000,-0.100000)" fill="#000000" stroke="none">
    <path d="M1715 9615 c-110 -31 -195 -85 -296 -186 -79 -78 -104 -111 -138&#xA;-180 -78 -158 -87 -303 -28 -433 72 -158 249 -246 430 -215 57 9 71 9 78 -2&#xA;21 -33 110 -273 137 -370 38 -132 69 -287 82 -404 16 -148 16 -148 -33 -172&#xA;-122 -59 -331 -255 -427 -400 -155 -236 -217 -467 -226 -843 -6 -251 -5 -248&#xA;-151 -338 -225 -138 -340 -275 -405 -482 -20 -66 -23 -94 -22 -240 0 -151 3&#xA;-173 27 -254 74 -240 208 -432 411 -591 106 -82 175 -123 382 -228 268 -137&#xA;334 -203 369 -372 22 -101 17 -311 -12 -545 -24 -203 -25 -579 0 -705 25 -129&#xA;61 -249 102 -345 l36 -84 -78 -80 c-43 -45 -100 -103 -128 -131 l-50 -50 -240&#xA;-33 c-585 -80 -892 -175 -986 -305 -82 -114 12 -223 261 -302 120 -37 229 -59&#xA;515 -99 138 -19 261 -37 275 -39 23 -3 24 -4 5 -12 -51 -21 -127 -78 -145&#xA;-107 -100 -164 188 -280 850 -342 358 -34 1062 -61 1664 -65 l389 -2 48 -43&#xA;c39 -35 64 -48 127 -65 261 -70 720 -47 1149 58 234 57 314 66 598 66 207 -1&#xA;304 -6 480 -25 190 -21 266 -24 560 -24 301 0 356 2 480 22 244 38 355 79 396&#xA;145 21 35 25 87 9 117 -12 22 -47 15 316 69 534 81 773 148 883 247 62 56 78&#xA;92 63 142 -15 48 -52 83 -131 126 l-63 33 64 12 c97 19 234 68 287 102 173&#xA;113 94 240 -209 337 -73 23 -320 82 -344 82 -5 0 140 269 242 450 108 192 198&#xA;339 280 459 40 57 72 112 72 122 0 10 -9 25 -21 33 -19 13 -26 13 -62 0 -136&#xA;-48 -320 -192 -437 -342 -30 -39 -55 -70 -57 -69 -5 5 84 309 139 477 77 235&#xA;159 428 254 602 78 142 88 179 51 202 -55 35 -275 -172 -427 -402 -83 -125&#xA;-144 -241 -205 -392 -44 -109 -115 -335 -115 -366 0 -8 -4 -14 -10 -14 -5 0&#xA;-10 24 -10 54 0 65 -34 272 -56 341 -29 89 -54 125 -86 125 -34 0 -48 -27 -75&#xA;-143 -28 -121 -23 -542 10 -822 14 -121 25 -220 24 -221 -1 -1 -47 12 -102 28&#xA;-157 44 -289 114 -381 201 l-77 73 44 64 c63 92 82 160 77 270 -4 80 -8 97&#xA;-46 172 -22 46 -61 105 -85 132 l-44 50 76 46 c116 69 223 153 349 274 401&#xA;386 649 855 741 1406 63 371 52 777 -29 1155 -127 590 -381 1075 -765 1461&#xA;-157 158 -259 243 -420 349 -332 220 -672 352 -1055 410 -166 25 -459 30 -624&#xA;11 -855 -100 -1600 -624 -1988 -1401 -83 -165 -228 -553 -228 -610 0 -8 -4&#xA;-15 -10 -15 -5 0 -10 12 -10 26 0 46 -40 264 -70 384 -41 164 -82 276 -155&#xA;426 -79 160 -160 277 -265 379 l-80 77 20 102 c60 298 194 665 316 866 l46 77&#xA;92 -4 c298 -15 504 165 523 457 16 259 -138 480 -386 554 -70 20 -208 21 -286&#xA;1 -118 -31 -237 -116 -305 -217 -108 -163 -105 -348 10 -521 l39 -57 -36 -53&#xA;c-130 -192 -297 -625 -360 -934 -14 -67 -21 -82 -33 -77 -42 19 -185 57 -265&#xA;71 -68 11 -137 14 -287 11 l-196 -4 -7 80 c-27 314 -104 638 -211 888 l-34 79&#xA;36 47 c53 70 103 182 122 271 39 188 -44 362 -208 439 -47 22 -71 27 -160 29&#xA;-68 1 -123 -3 -155 -12z m243 -141 c47 -19 98 -68 125 -119 32 -58 29 -176 -6&#xA;-267 -64 -166 -191 -291 -346 -338 -157 -49 -293 -2 -355 122 -44 87 -32 213&#xA;30 329 38 72 175 209 244 245 105 53 222 64 308 28z m2115 -48 c152 -74 236&#xA;-225 225 -404 -8 -140 -82 -254 -196 -303 -73 -32 -184 -36 -270 -10 -120 36&#xA;-238 144 -294 267 -31 69 -31 180 0 248 45 99 117 165 229 212 50 21 70 24&#xA;153 22 81 -3 105 -8 153 -32z m-1997 -953 c61 -185 119 -484 125 -652 3 -70 3&#xA;-70 -68 -85 l-33 -8 0 64 c-1 196 -88 568 -188 803 l-30 69 46 27 47 27 33&#xA;-70 c18 -38 48 -117 68 -175z m1579 186 l42 -31 -46 -81 c-125 -218 -253 -582&#xA;-312 -884 -6 -35 -13 -63 -15 -63 -3 0 -28 14 -58 30 l-53 30 13 78 c42 239&#xA;192 637 326 863 29 49 54 89 56 89 2 0 23 -14 47 -31z m3180 -559 c493 -72&#xA;973 -309 1342 -664 485 -466 785 -1111 854 -1836 14 -146 6 -432 -15 -590 -77&#xA;-562 -321 -1063 -702 -1445 -456 -455 -1057 -611 -1661 -430 -424 128 -817&#xA;444 -1038 835 -346 610 -364 1419 -48 2080 108 228 221 391 381 554 405 411&#xA;928 566 1427 421 195 -57 370 -162 536 -322 220 -213 351 -452 415 -759 24&#xA;-112 27 -153 28 -309 0 -193 -13 -289 -59 -449 -128 -443 -456 -794 -852 -912&#xA;-119 -36 -312 -44 -434 -20 -337 69 -578 305 -666 652 -27 107 -24 380 5 497&#xA;52 207 125 340 267 482 85 85 114 108 195 148 75 38 115 52 192 64 87 15 104&#xA;15 181 0 157 -28 289 -112 370 -234 63 -95 89 -176 95 -298 11 -227 -90 -425&#xA;-256 -507 -61 -30 -75 -33 -162 -33 -85 0 -100 3 -141 27 -120 71 -175 215&#xA;-134 354 23 80 94 152 183 184 44 16 62 28 62 40 0 38 -100 41 -175 6 -182&#xA;-85 -244 -368 -122 -560 80 -126 253 -196 413 -167 194 35 369 213 430 438 25&#xA;92 29 244 10 338 -25 125 -93 253 -180 339 -287 285 -730 269 -1038 -36 -224&#xA;-221 -340 -508 -339 -839 0 -325 92 -573 283 -762 267 -264 680 -347 1058&#xA;-215 362 128 675 438 829 823 206 514 147 1106 -155 1568 -85 129 -281 328&#xA;-405 410 -247 163 -465 234 -754 244 -269 9 -464 -36 -730 -167 -369 -183&#xA;-657 -481 -855 -885 -87 -178 -133 -302 -180 -490 -57 -226 -74 -373 -74 -620&#xA;0 -115 5 -250 12 -300 77 -544 268 -945 608 -1276 346 -336 778 -527 1234&#xA;-546 241 -10 456 26 680 111 l95 36 47 -50 c69 -73 100 -146 106 -240 6 -105&#xA;-22 -167 -117 -260 -190 -187 -492 -280 -908 -280 -447 1 -837 136 -1221 424&#xA;-207 156 -377 335 -667 706 -331 421 -446 550 -640 715 -197 167 -383 290&#xA;-525 345 -30 12 -59 25 -63 29 -5 5 13 66 39 137 26 71 63 179 83 241 l36 112&#xA;90 -38 c315 -132 651 -402 956 -771 135 -163 196 -246 359 -490 250 -373 408&#xA;-568 571 -705 218 -183 463 -306 696 -351 91 -17 228 -18 274 -2 32 11 27 13&#xA;-106 35 -307 50 -542 160 -768 358 -185 162 -319 328 -594 737 -278 415 -394&#xA;559 -639 798 -252 245 -488 406 -735 500 l-85 32 13 76 c8 43 17 203 22 357 9&#xA;293 23 398 92 669 223 880 766 1516 1544 1809 378 143 740 183 1130 127z&#xA;m-4065 -465 c256 -39 461 -134 631 -293 290 -271 433 -678 504 -1437 19 -197&#xA;21 -550 5 -680 -18 -148 -58 -306 -126 -501 -72 -210 -100 -332 -110 -484 -12&#xA;-195 21 -364 104 -525 86 -167 273 -325 390 -328 74 -3 67 21 -25 85 -190 134&#xA;-304 318 -334 543 -6 48 -9 88 -7 91 3 2 25 -7 49 -20 24 -14 86 -36 138 -51&#xA;396 -110 568 -247 1006 -795 120 -149 272 -328 338 -396 397 -412 807 -640&#xA;1300 -724 91 -15 164 -20 310 -20 371 0 615 53 901 194 l89 45 73 -67 c124&#xA;-115 259 -182 467 -234 67 -17 139 -39 160 -50 126 -63 10 -196 -213 -244 -92&#xA;-19 -282 -17 -430 5 -278 43 -359 38 -582 -35 -255 -83 -387 -93 -644 -48&#xA;-118 21 -180 27 -299 26 -206 0 -346 -30 -574 -122 -58 -23 -157 -56 -220 -72&#xA;-103 -27 -133 -31 -266 -31 -135 -1 -167 3 -329 36 -183 38 -315 57 -398 57&#xA;-27 0 -48 2 -48 5 0 3 12 28 26 56 82 163 89 446 14 616 -28 64 -82 143 -97&#xA;143 -18 0 -16 -22 7 -126 29 -126 37 -318 16 -414 -28 -131 -74 -211 -184&#xA;-320 -188 -186 -370 -274 -692 -332 -119 -21 -385 -30 -442 -15 -34 9 -36 35&#xA;-12 118 20 70 53 126 121 206 52 61 62 93 30 93 -7 0 -38 -17 -68 -38 -74 -51&#xA;-152 -158 -187 -255 l-28 -77 -29 30 c-22 23 -29 41 -33 84 -6 73 16 133 88&#xA;246 139 216 143 335 26 615 -35 83 -71 174 -81 203 -12 39 -21 52 -33 50 -15&#xA;-3 -17 -17 -15 -93 1 -76 8 -111 43 -220 71 -221 66 -314 -23 -451 -41 -64&#xA;-43 -65 -77 -59 -58 11 -230 82 -315 130 -339 194 -579 543 -652 948 -24 138&#xA;-21 421 7 677 30 263 32 497 6 590 -55 196 -121 261 -426 418 -309 159 -491&#xA;306 -617 499 -119 183 -167 367 -143 557 26 211 126 362 336 509 45 31 100 74&#xA;122 96 l40 39 12 -42 c30 -99 108 -209 172 -242 l29 -15 -25 -29 c-88 -105&#xA;-129 -318 -91 -479 9 -35 14 -66 12 -68 -9 -8 -67 117 -87 187 -27 90 -41 110&#xA;-66 89 -26 -21 -15 -148 19 -222 51 -113 135 -203 263 -284 33 -21 87 -56 120&#xA;-78 66 -44 150 -80 226 -98 50 -12 52 -13 80 -77 87 -195 127 -254 198 -290&#xA;157 -80 386 29 533 253 119 181 246 455 278 600 7 31 14 57 17 57 2 0 21 -13&#xA;41 -29 56 -45 87 -57 106 -41 8 7 15 19 15 26 0 26 -77 99 -135 128 -115 58&#xA;-260 41 -260 -29 l0 -30 58 3 c36 2 57 -1 57 -8 0 -5 -10 -31 -21 -56 -48&#xA;-102 -187 -216 -364 -300 -312 -148 -654 -121 -845 66 -101 100 -146 228 -138&#xA;386 10 172 74 269 244 369 128 76 200 148 253 255 52 107 71 195 71 340 0 136&#xA;-17 225 -58 307 -106 208 -324 230 -505 49 -34 -34 -77 -91 -96 -125 -18 -34&#xA;-35 -60 -38 -58 -7 8 24 166 52 263 43 146 70 182 199 266 86 55 172 80 274&#xA;77 88 -3 106 4 100 41 -11 78 -202 94 -330 29 -21 -11 -38 -16 -38 -13 0 4 31&#xA;38 69 75 248 241 630 353 1011 294z m-845 -859 c65 -50 115 -186 115 -314 l0&#xA;-55 -23 21 c-106 99 -270 -13 -317 -217 -17 -72 -8 -186 19 -242 12 -23 21&#xA;-46 21 -50 0 -5 -20 -20 -44 -34 l-45 -26 -39 20 c-49 25 -108 90 -133 147&#xA;-79 185 -10 512 144 680 96 106 218 134 302 70z m60 -486 c35 -39 11 -120 -34&#xA;-120 -9 0 -27 7 -39 16 -24 17 -30 70 -12 105 14 25 62 25 85 -1z m724 -1472&#xA;c-6 -13 -31 -51 -55 -84 -86 -121 -200 -200 -306 -211 -110 -11 -121 26 -39&#xA;130 54 70 66 77 241 138 158 56 176 59 159 27z m6611 -1150 c-145 -311 -290&#xA;-793 -425 -1418 -27 -124 30 -95 79 42 48 130 124 271 205 379 81 107 220 247&#xA;282 284 l34 19 -16 -24 c-79 -122 -224 -375 -345 -601 -81 -151 -148 -275&#xA;-148 -276 -5 -8 -250 34 -277 48 -41 21 -37 1 -64 304 -29 324 -31 685 -5 685&#xA;20 0 53 -250 75 -570 9 -124 20 -229 25 -234 14 -14 39 1 44 26 2 13 12 73 21&#xA;133 77 501 232 899 464 1195 34 44 93 110 97 110 2 0 -19 -46 -46 -102z&#xA;m-7145 -1660 c104 -147 223 -258 389 -362 l87 -55 -68 -21 c-128 -40 -251 -52&#xA;-460 -47 -105 2 -196 7 -201 11 -14 8 8 62 55 132 37 56 38 84 4 84 -28 0&#xA;-123 -96 -145 -147 -17 -39 -20 -41 -45 -32 -14 6 -38 22 -53 37 -61 57 -26&#xA;137 118 271 75 69 248 200 264 200 3 0 28 -32 55 -71z m6787 -24 c243 -33 480&#xA;-95 583 -152 56 -30 78 -69 55 -97 -40 -49 -208 -101 -430 -135 -211 -33 -214&#xA;-59 -17 -124 122 -41 184 -76 211 -119 20 -32 -13 -69 -100 -113 -141 -70&#xA;-349 -117 -844 -189 -173 -25 -323 -48 -332 -51 -10 -3 -21 -16 -24 -29 -6&#xA;-25 10 -65 27 -65 5 0 14 -12 20 -26 14 -39 -10 -68 -76 -93 -73 -27 -242 -57&#xA;-406 -72 -190 -17 -644 -6 -884 21 -249 27 -544 36 -704 21 -137 -14 -217 -28&#xA;-402 -71 -371 -87 -789 -114 -1018 -65 -71 15 -151 50 -151 67 0 4 -17 19 -37&#xA;32 l-38 24 -550 6 c-579 6 -885 16 -1278 41 -606 39 -1028 130 -1015 219 4 29&#xA;80 78 180 115 113 42 132 53 136 78 5 31 -16 39 -158 57 -355 47 -575 79 -668&#xA;97 -224 43 -371 101 -406 160 -18 30 -18 32 1 58 67 90 330 171 773 235 96 14&#xA;189 28 207 31 l32 6 -34 -50 c-65 -97 -71 -177 -19 -252 66 -95 222 -144 499&#xA;-156 234 -10 486 29 666 101 61 25 62 25 126 9 58 -14 64 -18 59 -37 -30 -102&#xA;-25 -179 13 -253 91 -177 401 -233 816 -148 258 53 493 155 640 280 l61 52 94&#xA;7 c114 8 262 -6 425 -40 233 -48 281 -55 410 -55 157 -1 283 22 447 82 269 97&#xA;311 111 400 130 125 29 312 29 508 0 169 -25 334 -27 451 -6 46 8 149 35 229&#xA;60 80 25 182 50 227 57 85 12 83 12 396 -28 121 -15 154 -16 255 -6 144 15&#xA;214 33 317 82 149 70 211 149 203 261 -2 32 -1 59 4 59 4 0 58 -7 120 -16z"/>
    <path d="M1838 9096 c-67 -32 -134 -90 -184 -159 -47 -64 -54 -91 -26 -106 24&#xA;-13 43 -1 122 73 36 34 93 81 128 106 114 83 85 147 -40 86z"/>
    <path d="M3635 9066 c-31 -22 -13 -47 62 -86 74 -38 160 -99 203 -145 26 -28&#xA;58 -33 66 -10 12 29 -18 84 -76 139 -86 82 -213 133 -255 102z"/>
    <path d="M2822 7319 c-55 -10 -99 -36 -126 -72 -28 -38 -13 -63 35 -59 19 2&#xA;73 4 120 5 78 1 91 -1 155 -32 52 -26 90 -56 152 -120 69 -72 86 -84 100 -75&#xA;26 17 26 49 -1 108 -75 163 -277 277 -435 245z"/>
    <path d="M2768 6891 c-82 -27 -144 -65 -221 -140 -125 -120 -204 -281 -233&#xA;-475 -65 -430 245 -801 582 -698 338 103 547 525 449 907 -23 90 -89 217 -144&#xA;277 -116 126 -284 176 -433 129z m256 -115 c104 -51 200 -193 231 -341 63&#xA;-300 -70 -613 -312 -732 -70 -34 -84 -38 -157 -38 -68 0 -90 4 -137 28 -112&#xA;55 -210 196 -239 345 -15 76 -8 233 14 317 39 147 148 314 250 384 109 75 243&#xA;89 350 37z"/>
    <path d="M2945 6404 c-180 -93 -233 -425 -91 -563 119 -116 289 16 327 253 34&#xA;205 -100 381 -236 310z m124 -170 c25 -32 27 -61 5 -92 -33 -48 -104 -15 -104&#xA;48 0 65 61 92 99 44z"/>
    <path d="M2745 4205 c-181 -76 -333 -84 -500 -27 -49 17 -93 28 -98 23 -16&#xA;-16 45 -71 118 -107 65 -32 86 -37 167 -42 102 -5 183 10 275 53 82 37 179&#xA;138 131 134 -7 0 -49 -16 -93 -34z"/>
    <path d="M7597 1314 c-123 -27 -247 -94 -247 -135 0 -26 19 -24 123 11 85 29&#xA;183 50 312 67 50 7 60 11 60 28 0 45 -113 58 -248 29z"/>
    <path d="M7995 1234 c-11 -2 -45 -9 -75 -15 -69 -14 -167 -65 -176 -91 -12&#xA;-39 10 -42 108 -15 121 34 197 47 274 47 48 0 63 4 68 16 9 23 -10 42 -53 54&#xA;-35 10 -106 12 -146 4z"/>
    <path d="M6695 1123 c-84 -19 -143 -61 -113 -80 7 -4 94 -8 193 -9 99 -1 196&#xA;-4 215 -6 29 -2 35 0 38 18 4 30 -37 60 -99 73 -49 11 -194 13 -234 4z"/>
  </g>
  <title>Snail Shell</title>
  <desc>Snail Shell</desc>
</svg>