<?xml version="1.0" encoding="UTF-8" standalone="yes"?>
<svg version="1.0" xmlns="http://www.w3.org/2000/svg" width="1024.000000pt" height="1024.000000pt" viewBox="0 0 1024.000000 1024.000000" preserveAspectRatio="xMidYMid meet">
  <metadata>
Created by potrace 1.16, written by Peter Selinger 2001-2019
</metadata>
  <g transform="translate(0.000000,1024.000000) scale(0.100000,-0.100000)" fill="#000000" stroke="none">
    <path d="M8425 9710 c-194 -29 -362 -140 -464 -306 -62 -101 -84 -178 -85&#xA;-296 -1 -60 -3 -108 -5 -108 -3 0 -14 9 -25 19 -34 31 -117 69 -176 79 -101&#xA;18 -224 -14 -337 -87 -112 -72 -169 -168 -180 -303 l-6 -67 -26 13 c-44 23&#xA;-138 38 -197 31 -206 -22 -384 -189 -384 -361 0 -128 69 -159 410 -184 277&#xA;-20 699 -27 1530 -25 814 2 970 8 1178 41 110 17 126 24 152 67 26 42 27 141&#xA;2 179 -40 61 -123 100 -207 98 -27 -1 -53 -1 -57 -1 -4 1 3 22 15 49 31 68 30&#xA;191 -1 250 -31 58 -88 114 -148 143 -71 34 -184 33 -272 -3 -53 -22 -62 -23&#xA;-56 -10 53 127 42 314 -28 461 -44 94 -167 215 -268 265 -112 55 -241 75 -365&#xA;56z m217 -91 c84 -17 189 -73 249 -131 161 -157 200 -411 98 -636 -16 -36 -26&#xA;-69 -21 -74 4 -4 37 10 72 31 193 116 351 106 444 -26 44 -64 46 -125 7 -248&#xA;-24 -74 -29 -100 -20 -106 7 -4 51 -5 99 -2 74 5 91 3 127 -16 73 -37 89 -82&#xA;57 -160 -19 -48 -18 -47 -259 -56 -159 -5 -1760 -6 -1885 0 -36 1 -168 4 -295&#xA;5 -420 6 -626 26 -684 67 -21 14 -23 22 -19 73 11 149 168 270 350 270 87 0&#xA;133 -12 182 -45 36 -25 65 -32 67 -17 1 4 2 50 3 102 3 120 27 179 100 248 77&#xA;73 169 114 266 120 56 3 92 0 127 -12 63 -21 166 -92 188 -128 10 -17 24 -28&#xA;33 -26 15 3 17 19 14 138 -4 156 14 248 70 353 65 121 208 236 339 271 65 18&#xA;218 20 291 5z"/>
    <path d="M3690 9549 c-446 -33 -821 -166 -1048 -372 -192 -174 -326 -384 -412&#xA;-646 -61 -185 -109 -441 -110 -577 0 -33 -6 -68 -12 -77 -7 -10 -54 -33 -105&#xA;-51 -50 -19 -116 -50 -146 -70 -105 -67 -224 -209 -264 -316 -21 -56 -27 -60&#xA;-84 -60 -58 0 -232 -34 -319 -62 -78 -25 -205 -85 -221 -104 -24 -29 3 -26&#xA;108 9 131 44 249 73 377 91 53 7 96 12 96 12 0 -1 -7 -36 -15 -79 -8 -43 -15&#xA;-105 -15 -137 l0 -59 -91 -47 c-179 -93 -365 -259 -394 -354 -6 -18 14 -4 78&#xA;55 46 44 120 106 163 137 79 56 220 138 239 138 6 0 16 -28 22 -62 7 -34 27&#xA;-93 46 -130 l33 -67 -57 -50 c-136 -120 -306 -383 -284 -440 4 -9 23 16 53 68&#xA;71 123 126 193 230 292 l94 90 38 -40 c30 -30 122 -99 158 -117 1 0 -7 -61&#xA;-18 -135 -44 -297 -54 -458 -55 -854 0 -297 4 -422 19 -573 17 -179 17 -200 3&#xA;-300 -25 -170 -28 -207 -28 -377 0 -177 12 -301 42 -418 16 -62 17 -85 9 -116&#xA;-46 -171 -65 -492 -41 -711 4 -41 6 -77 4 -79 -1 -2 -166 -4 -365 -4 -400 1&#xA;-561 -6 -733 -32 -16 -3 -46 -7 -65 -9 -324 -41 -283 -63 100 -51 136 4 265 8&#xA;287 10 21 2 133 5 248 6 204 2 359 9 481 23 l59 7 27 -110 c15 -60 44 -155 66&#xA;-210 l39 -100 -76 -25 c-42 -14 -173 -50 -292 -79 -214 -54 -335 -98 -454&#xA;-165 -249 -140 -364 -323 -291 -463 l13 -26 -81 -7 c-45 -3 -106 -13 -135 -22&#xA;-29 -8 -55 -14 -57 -11 -2 2 14 9 37 16 54 16 43 26 -12 11 -40 -11 -95 -40&#xA;-75 -40 5 0 -11 -10 -35 -23 -59 -31 -89 -77 -89 -135 0 -41 5 -50 48 -92 89&#xA;-86 322 -158 677 -209 184 -26 411 -38 910 -46 633 -10 878 -25 1138 -70 210&#xA;-35 367 -85 367 -114 0 -5 -24 -17 -52 -27 -152 -49 -182 -96 -112 -174 139&#xA;-153 619 -217 1152 -154 24 3 53 9 65 14 27 11 -9 12 -338 15 -431 4 -706 56&#xA;-817 155 -42 37 -42 39 -23 53 11 9 46 23 77 33 121 36 148 78 88 134 -78 73&#xA;-396 141 -795 169 -244 18 -305 21 -550 26 -400 8 -637 15 -700 20 -33 2 -103&#xA;7 -155 10 -240 15 -539 68 -715 126 -135 45 -195 88 -195 140 0 56 92 101 274&#xA;135 49 9 100 20 113 25 14 5 25 4 29 -3 12 -19 147 -75 234 -96 249 -61 432&#xA;-77 885 -77 309 0 402 3 500 17 426 62 704 210 853 454 23 38 46 75 50 82 7&#xA;10 26 5 88 -24 43 -20 155 -67 248 -104 l168 -67 -1 -109 c-3 -195 59 -328&#xA;212 -452 253 -205 636 -308 1187 -319 418 -9 741 29 915 107 85 38 102 56 120&#xA;124 29 114 -21 223 -167 368 -54 53 -95 99 -91 101 5 3 60 12 123 21 63 9 140&#xA;23 170 31 30 8 58 15 62 15 3 0 4 -18 1 -40 -18 -130 81 -225 292 -280 175&#xA;-45 311 -62 540 -65 233 -4 326 3 495 36 190 38 332 84 470 154 29 15 54 25&#xA;55 23 2 -2 -18 -35 -45 -73 -138 -196 -196 -314 -227 -460 -43 -200 53 -385&#xA;213 -411 34 -5 67 3 185 43 79 28 203 67 274 87 331 96 407 120 500 157 233&#xA;91 458 268 536 421 35 69 59 164 59 236 0 148 -80 338 -209 494 -98 118 -183&#xA;191 -376 320 -279 188 -301 214 -307 365 l-5 101 471 5 c259 3 485 9 501 13&#xA;36 11 72 31 65 37 -10 9 -343 18 -687 17 -194 0 -353 4 -353 8 0 4 -7 64 -15&#xA;132 -132 1066 -750 2039 -1663 2614 -206 130 -544 296 -713 351 -30 10 -57 20&#xA;-61 24 -4 3 -16 49 -27 101 -32 145 -119 314 -249 482 l-58 76 -18 143 c-41&#xA;339 -150 819 -266 1169 -223 679 -500 1044 -965 1275 -370 183 -759 263 -1145&#xA;234z m437 -124 c131 -17 307 -59 441 -105 176 -61 400 -189 545 -314 335 -289&#xA;603 -889 772 -1731 32 -164 131 -779 156 -974 9 -67 14 -89 20 -74 8 21 27&#xA;179 32 260 l2 43 52 -78 c74 -110 110 -188 135 -289 19 -78 22 -117 22 -335 1&#xA;-144 5 -247 10 -245 27 9 96 248 96 332 0 19 2 35 4 35 2 0 68 -27 146 -60&#xA;481 -205 865 -462 1190 -796 561 -576 889 -1248 996 -2039 21 -160 26 -491 9&#xA;-617 -17 -122 -55 -262 -101 -372 -32 -76 -45 -94 -118 -163 -282 -267 -676&#xA;-416 -1138 -430 -170 -6 -338 3 -338 16 0 20 126 142 192 188 88 61 142 88&#xA;271 138 53 20 100 41 103 47 13 21 -173 -14 -284 -54 -154 -56 -297 -172 -339&#xA;-275 -21 -49 -10 -48 -178 -11 -139 30 -185 47 -185 67 0 27 56 108 111 162&#xA;93 90 187 146 364 215 112 44 103 55 -21 30 -204 -43 -406 -172 -501 -321 -15&#xA;-25 -31 -45 -35 -45 -12 0 -38 57 -38 82 0 63 111 201 221 273 84 56 243 115&#xA;389 144 306 62 721 66 944 11 99 -25 103 -25 81 0 -51 57 -181 105 -339 127&#xA;-127 17 -359 12 -515 -12 l-95 -14 -80 41 c-113 58 -239 183 -289 288 -95 194&#xA;-100 409 -16 647 38 108 57 146 124 250 150 231 443 445 690 504 122 29 125&#xA;30 95 39 -102 32 -315 -31 -492 -145 -273 -176 -469 -442 -542 -733 -63 -253&#xA;-36 -488 74 -657 46 -71 151 -175 229 -228 l50 -33 -77 -22 c-189 -55 -297&#xA;-117 -426 -245 -33 -33 -77 -65 -98 -73 -94 -33 -368 -74 -497 -74 -67 0 -85&#xA;8 -243 106 l-37 23 85 126 c309 456 494 852 555 1190 29 155 31 479 6 650 -34&#xA;223 -96 424 -174 563 -36 65 -52 78 -33 26 16 -40 64 -223 84 -314 52 -244 70&#xA;-572 41 -785 -34 -256 -89 -428 -224 -703 -126 -254 -348 -619 -415 -682 -23&#xA;-21 -30 -23 -54 -13 -162 68 -213 86 -312 112 -220 56 -456 64 -653 21 -92&#xA;-20 -207 -66 -207 -82 0 -6 6 -8 14 -5 8 3 72 15 142 27 111 19 153 22 299 17&#xA;233 -8 390 -39 567 -113 82 -34 448 -245 542 -313 106 -75 227 -189 267 -253&#xA;40 -62 47 -142 15 -177 -19 -20 -93 -53 -152 -65 -30 -7 -31 -6 -53 53 -38&#xA;105 -139 221 -264 304 -132 88 -338 170 -454 183 -80 8 -82 -7 -4 -29 90 -25&#xA;264 -110 372 -182 112 -75 230 -188 276 -266 54 -91 59 -83 -79 -103 -68 -10&#xA;-173 -20 -234 -23 l-112 -6 -7 34 c-25 116 -159 256 -323 338 -121 61 -248 96&#xA;-462 126 -56 8 -18 -9 131 -61 274 -95 446 -209 573 -377 20 -27 36 -53 36&#xA;-59 0 -11 -248 -6 -400 8 -315 28 -647 130 -827 252 -83 56 -170 154 -207 232&#xA;-26 56 -31 79 -34 165 -3 83 0 117 21 200 30 117 153 458 167 463 6 2 10 9 10&#xA;16 0 7 20 82 44 168 50 175 64 271 54 373 -9 102 -2 506 12 605 49 374 189&#xA;714 416 1012 86 114 73 114 -39 1 -109 -110 -196 -235 -276 -398 -79 -160&#xA;-110 -242 -152 -404 -56 -217 -63 -287 -64 -636 -1 -287 -4 -330 -23 -420 -30&#xA;-140 -60 -237 -132 -421 -34 -87 -72 -194 -86 -237 -14 -42 -28 -77 -32 -77&#xA;-11 0 -180 65 -269 103 -415 180 -723 386 -1031 688 -308 304 -494 569 -616&#xA;881 -95 242 -126 408 -126 666 l0 147 40 -117 c74 -220 139 -308 228 -308 66&#xA;0 84 59 112 380 38 432 84 801 141 1120 26 152 27 152 48 105 41 -91 167 -213&#xA;291 -282 76 -43 181 -78 272 -93 91 -15 313 -9 346 8 l22 13 1 -208 c0 -114 2&#xA;-217 4 -228 1 -11 6 -74 9 -140 18 -327 86 -649 164 -775 38 -62 87 -93 132&#xA;-85 133 25 181 167 320 940 33 187 81 453 106 590 24 138 47 257 49 266 3 8&#xA;42 44 86 79 95 75 195 181 272 288 106 149 108 162 6 59 -82 -82 -260 -226&#xA;-321 -258 -19 -10 -20 -9 -15 12 7 30 75 453 91 570 l12 87 81 78 c44 44 89&#xA;92 100 108 l20 29 146 -144 c79 -79 172 -179 206 -223 68 -88 79 -79 26 23&#xA;-61 114 -184 261 -302 358 l-41 34 22 52 c13 29 31 77 41 107 10 30 19 56 20&#xA;58 5 6 129 -72 203 -128 42 -32 104 -86 137 -119 33 -34 65 -61 72 -61 65 0&#xA;-120 211 -274 313 -133 88 -288 147 -425 161 -92 10 -72 -12 50 -55 29 -10 79&#xA;-30 112 -45 69 -31 68 -28 19 -149 -43 -102 -34 -98 -124 -55 -83 40 -135 56&#xA;-135 42 0 -4 41 -34 90 -66 50 -32 90 -62 90 -68 0 -6 -35 -45 -77 -88 -139&#xA;-138 -310 -199 -528 -186 -352 20 -677 189 -784 409 -41 84 -49 157 -23 221&#xA;19 49 21 50 77 63 31 7 82 28 113 47 50 31 70 36 167 46 61 6 128 16 150 22&#xA;100 26 186 93 227 177 33 67 33 187 -1 253 -50 97 -155 180 -281 222 -82 27&#xA;-264 52 -311 42 -29 -6 -37 2 -20 19 14 16 39 106 45 168 17 159 -63 339 -178&#xA;400 -62 33 -172 31 -249 -5 -118 -55 -226 -202 -256 -346 -27 -128 -2 -297 57&#xA;-392 l30 -48 -24 -23 c-13 -13 -39 -46 -57 -73 -58 -91 -40 -197 50 -297 47&#xA;-52 103 -84 183 -105 41 -10 78 -28 99 -46 38 -34 89 -58 121 -58 24 0 24 2 0&#xA;-60 -22 -55 -25 -116 -10 -170 13 -45 0 -64 -103 -146 -106 -84 -288 -175&#xA;-422 -209 -78 -20 -125 -26 -216 -27 -180 -1 -314 43 -415 136 l-49 45 63 56&#xA;c44 41 62 64 62 81 l0 25 -22 -24 c-13 -14 -48 -39 -80 -56 l-56 -31 -20 32&#xA;c-22 37 -46 105 -56 160 -8 47 -5 49 166 93 72 19 136 39 142 45 22 22 -188 4&#xA;-292 -26 -23 -7 -23 -6 -16 62 4 38 12 92 18 119 l11 50 132 5 c72 3 135 8&#xA;139 13 18 18 -23 32 -126 41 -104 9 -110 11 -104 30 25 80 159 220 264 278&#xA;113 63 366 126 459 116 l34 -4 -28 22 c-33 26 -96 44 -154 44 -41 0 -41 0 -41&#xA;39 0 104 69 435 130 622 173 528 543 810 1175 894 142 18 448 18 592 0z&#xA;m-1160 -936 c76 -37 139 -138 149 -241 l6 -53 -17 30 c-62 113 -164 127 -256&#xA;35 -36 -36 -52 -62 -65 -106 -20 -68 -14 -148 14 -202 l18 -36 -69 -33 c-38&#xA;-18 -83 -43 -99 -54 -22 -16 -32 -18 -42 -10 -25 21 -56 109 -68 189 -12 91 4&#xA;187 48 282 80 173 250 262 381 199z m435 -628 c103 -27 152 -54 213 -116 53&#xA;-54 75 -103 75 -169 0 -105 -111 -219 -226 -231 -48 -5 -48 -5 -17 7 76 30 97&#xA;89 50 144 -33 38 -101 36 -161 -5 -52 -36 -134 -124 -173 -186 -22 -36 -37&#xA;-48 -73 -59 -25 -7 -49 -10 -53 -6 -5 4 -11 45 -14 90 -7 99 -22 87 -30 -26&#xA;-6 -70 -7 -74 -27 -68 -56 17 -72 35 -126 139 -57 111 -95 155 -135 155 -32 0&#xA;-64 -29 -71 -65 -6 -32 13 -60 66 -98 24 -17 24 -17 -15 -2 -52 21 -81 49&#xA;-111 107 -33 65 -32 130 2 175 56 73 219 173 338 208 138 39 348 42 488 6z&#xA;m-683 -1292 c23 -66 108 -193 164 -245 116 -107 240 -149 425 -142 l114 4 -6&#xA;-40 c-3 -23 -8 -75 -12 -118 l-6 -76 -42 -6 c-77 -12 -231 -7 -306 8 -102 22&#xA;-238 92 -332 171 -43 36 -78 62 -78 58 0 -25 66 -117 117 -164 104 -96 241&#xA;-155 388 -166 75 -5 186 6 228 23 18 7 19 -1 12 -172 -4 -98 -9 -190 -11 -204&#xA;-1 -14 -3 -51 -3 -82 -1 -32 -4 -57 -8 -56 -5 1 -49 -2 -99 -6 -324 -28 -661&#xA;143 -795 404 l-26 50 58 293 c31 160 63 325 69 365 l12 73 56 29 c32 16 60 29&#xA;64 30 3 0 11 -14 17 -31z m602 -94 c21 -19 58 -40 82 -46 l43 -10 -6 -52 c-4&#xA;-29 -8 -53 -9 -54 0 -2 -1 -17 -1 -34 l0 -32 -122 5 c-125 6 -253 37 -303 74&#xA;-18 14 -17 16 25 60 25 25 59 53 75 62 24 12 157 60 174 62 2 0 21 -16 42 -35z&#xA;m-846 3 c-2 -13 -9 -52 -16 -88 -6 -36 -37 -189 -69 -340 -130 -608 -170 -897&#xA;-210 -1525 -11 -165 -23 -319 -26 -343 -11 -77 -46 -67 -94 27 -68 137 -123&#xA;389 -166 771 -19 171 -26 718 -11 950 11 187 50 546 59 555 2 2 32 -3 68 -11&#xA;91 -19 267 -16 365 6 107 24 106 24 100 -2z m1701 -90 c-4 -35 -32 -207 -61&#xA;-383 -30 -176 -97 -579 -150 -895 -164 -977 -191 -1098 -263 -1163 -31 -28&#xA;-54 -17 -88 41 -71 118 -104 322 -139 847 -6 96 -7 807 -1 826 2 8 7 91 10&#xA;184 4 94 11 222 16 285 5 63 13 154 16 203 6 73 9 87 23 83 97 -26 142 -31&#xA;296 -31 178 0 180 1 344 64 2 0 0 -27 -3 -61z m-2226 -2878 c154 -349 483&#xA;-760 826 -1033 140 -111 435 -309 497 -333 38 -14 -12 -105 -117 -210 -153&#xA;-152 -375 -249 -686 -298 -212 -34 -702 -44 -902 -19 l-48 6 20 27 c56 79 156&#xA;150 296 212 163 72 159 69 79 63 -38 -3 -92 -12 -119 -20 -136 -42 -286 -142&#xA;-340 -228 -26 -42 -31 -46 -60 -41 -177 30 -286 55 -286 66 0 5 9 27 20 49 68&#xA;133 266 257 491 308 53 12 105 29 115 37 17 13 8 14 -81 8 -184 -11 -345 -70&#xA;-471 -173 -63 -51 -128 -137 -139 -184 -8 -32 -14 -33 -63 -8 -174 89 -77 273&#xA;223 421 126 62 207 88 421 139 95 22 210 55 256 74 l85 34 53 -81 c82 -124&#xA;230 -263 230 -216 0 6 -30 52 -66 103 -130 180 -236 439 -280 682 -28 155 -24&#xA;733 5 699 4 -5 22 -43 41 -84z m7133 -1171 c237 -160 370 -278 456 -403 125&#xA;-181 153 -381 78 -546 -29 -62 -147 -177 -240 -233 -43 -26 -80 -47 -82 -47&#xA;-2 0 10 21 27 46 95 141 112 361 44 561 -53 153 -76 163 -38 16 20 -79 25&#xA;-123 25 -228 1 -145 -11 -191 -79 -312 -70 -125 -99 -146 -309 -219 -97 -34&#xA;-299 -94 -317 -94 -5 0 17 22 49 49 163 135 298 333 337 496 19 78 30 205 18&#xA;205 -5 0 -12 -22 -15 -49 -8 -71 -68 -211 -131 -305 -106 -158 -347 -363 -562&#xA;-476 -67 -36 -85 -41 -122 -37 -110 12 -167 152 -124 307 56 206 181 395 427&#xA;650 148 153 192 207 199 243 3 15 18 62 35 105 36 93 75 247 92 359 l12 82 49&#xA;-44 c27 -24 104 -81 171 -126z m-743 -713 c0 -2 -7 -7 -16 -10 -8 -3 -12 -2&#xA;-9 4 6 10 25 14 25 6z"/>
    <path d="M2938 9121 c-154 -51 -239 -118 -290 -228 -43 -96 -32 -133 28 -92&#xA;127 86 287 141 421 143 121 2 132 10 109 90 -32 110 -117 138 -268 87z"/>
    <path d="M4132 9122 c-61 -22 -96 -52 -124 -105 -26 -51 -21 -83 12 -80 111&#xA;11 199 6 264 -15 129 -43 272 -129 350 -211 17 -17 38 -31 48 -31 30 0 22 50&#xA;-23 140 -114 227 -353 364 -527 302z"/>
    <path d="M4036 8543 c-310 -95 -432 -553 -211 -792 30 -32 73 -66 97 -76 24&#xA;-10 44 -20 46 -21 2 -1 -4 -14 -14 -28 -9 -15 -14 -29 -11 -32 3 -3 44 15 90&#xA;40 226 123 508 164 831 121 61 -8 112 -12 114 -10 10 10 -125 63 -203 81 -56&#xA;13 -120 19 -212 19 l-132 0 15 23 c27 42 54 135 60 207 12 143 -40 290 -135&#xA;386 -92 92 -210 121 -335 82z m236 -96 c115 -68 178 -196 178 -360 0 -66 -22&#xA;-163 -40 -181 -8 -8 -8 -4 -1 17 40 105 -20 266 -116 316 -30 15 -109 14 -141&#xA;-3 -75 -39 -116 -115 -116 -216 -1 -100 35 -178 100 -220 l44 -28 -32 -13&#xA;c-18 -7 -55 -26 -81 -41 -58 -34 -65 -34 -126 -4 -233 119 -223 543 17 708 62&#xA;43 122 59 204 54 49 -2 78 -10 110 -29z"/>
    <path d="M4290 7415 c-8 -2 -33 -7 -55 -10 -37 -7 -38 -8 -16 -16 13 -5 69&#xA;-16 125 -24 275 -41 467 -112 651 -239 52 -36 82 -51 87 -43 29 48 -178 197&#xA;-379 273 -37 14 -100 32 -139 39 -70 14 -245 26 -274 20z"/>
    <path d="M2118 7335 c-14 -32 0 -78 25 -83 24 -5 67 25 67 46 0 56 -70 84 -92&#xA;37z"/>
    <path d="M5398 7120 c-7 -164 -24 -260 -74 -408 -94 -277 -220 -473 -473 -738&#xA;-111 -116 -135 -150 -83 -117 189 120 400 349 520 565 147 265 197 572 129&#xA;798 -13 44 -14 41 -19 -100z"/>
    <path d="M3905 7175 c-28 -27 -30 -37 -15 -66 13 -23 62 -26 80 -4 26 31 8 95&#xA;-27 95 -8 0 -25 -11 -38 -25z"/>
    <path d="M2265 7096 c-24 -36 -16 -70 16 -74 33 -4 61 28 57 65 -4 39 -50 45&#xA;-73 9z"/>
    <path d="M2021 6974 c-37 -47 -17 -93 34 -80 34 9 52 48 37 81 -15 33 -45 32&#xA;-71 -1z"/>
    <path d="M3686 6964 c-9 -8 -16 -26 -16 -40 0 -26 32 -64 53 -64 40 0 50 67&#xA;15 100 -26 24 -32 25 -52 4z"/>
    <path d="M3944 6856 c-7 -28 9 -61 36 -76 15 -8 24 -6 40 10 24 24 25 38 4 68&#xA;-22 32 -72 30 -80 -2z"/>
    <path d="M5753 6570 c-4 -14 -37 -86 -74 -160 -202 -409 -542 -788 -1016&#xA;-1135 -45 -33 -80 -61 -78 -63 9 -9 163 73 270 145 214 142 441 346 576 518&#xA;172 218 299 465 328 639 12 66 7 106 -6 56z"/>
    <path d="M6616 4005 c-26 -392 -110 -702 -281 -1045 -23 -47 -46 -96 -50 -110&#xA;-6 -24 -6 -24 19 5 92 108 203 309 259 471 62 179 81 303 81 519 0 105 -5 208&#xA;-11 230 -9 36 -10 30 -17 -70z"/>
    <path d="M4870 3555 c-138 -36 -266 -102 -350 -182 -77 -72 -130 -163 -130&#xA;-222 l0 -36 23 45 c12 25 53 77 92 116 57 58 89 80 175 122 159 78 241 96 435&#xA;96 121 0 175 -4 221 -17 99 -27 198 -71 264 -116 61 -42 61 -42 46 -13 -23 44&#xA;-102 110 -178 148 -114 57 -195 76 -358 80 -130 4 -155 2 -240 -21z"/>
    <path d="M8737 1653 c-40 -54 -94 -135 -121 -181 -51 -88 -189 -382 -182 -389&#xA;9 -9 70 80 170 246 97 164 226 399 226 414 0 23 -29 -5 -93 -90z"/>
    <path d="M1287 9519 c-157 -37 -248 -155 -269 -347 l-11 -99 -36 13 c-109 39&#xA;-254 -24 -302 -131 -47 -102 0 -229 99 -270 66 -28 169 -34 522 -30 303 3 526&#xA;14 605 30 11 2 30 4 43 4 12 1 22 5 22 10 0 16 -116 21 -565 22 -247 1 -477 5&#xA;-511 9 -111 14 -154 51 -157 136 -2 61 28 108 87 135 54 24 105 24 194 -3 66&#xA;-19 74 -20 89 -6 14 15 14 18 -1 39 -23 33 -21 154 3 224 28 78 64 120 135&#xA;155 125 62 243 48 340 -41 65 -60 116 -159 124 -242 5 -63 21 -80 50 -54 34&#xA;30 82 47 132 47 64 0 109 -18 143 -59 19 -23 32 -31 46 -26 33 10 34 36 3 74&#xA;-61 78 -190 113 -279 76 -20 -8 -37 -14 -38 -13 -1 2 -12 35 -24 75 -43 143&#xA;-148 242 -289 272 -61 13 -101 13 -155 0z"/>
    <path d="M7703 6985 c-66 -20 -127 -60 -176 -115 -61 -68 -87 -139 -87 -239&#xA;l0 -78 -69 5 c-98 7 -161 -16 -227 -83 -73 -73 -91 -141 -54 -202 24 -40 59&#xA;-58 137 -72 90 -17 612 -30 1078 -28 369 2 414 4 450 20 61 27 75 45 75 92 0&#xA;70 -64 115 -163 115 l-52 0 -1 73 c-1 109 -37 168 -134 218 -37 19 -60 23&#xA;-135 23 -61 0 -102 -5 -127 -16 l-36 -16 -11 61 c-21 120 -82 193 -196 236&#xA;-65 25 -204 28 -272 6z m277 -82 c61 -31 113 -91 130 -151 5 -20 10 -67 10&#xA;-104 0 -70 12 -86 39 -54 24 28 114 59 176 58 104 0 180 -46 211 -129 13 -34&#xA;15 -61 10 -123 l-6 -79 79 6 c65 5 85 3 106 -11 14 -9 25 -23 25 -31 0 -39&#xA;-17 -40 -780 -39 -730 0 -735 0 -783 22 -57 26 -71 53 -50 102 41 100 148 142&#xA;283 111 25 -6 50 -11 56 -11 7 0 10 38 10 113 -1 103 1 116 27 169 80 163 292&#xA;233 457 151z"/>
    <path d="M995 2663 c-65 -8 -171 -35 -195 -49 l-25 -15 30 5 c84 15 257 18&#xA;403 6 153 -11 302 -7 302 9 0 9 -398 52 -450 50 -19 -1 -48 -4 -65 -6z"/>
    <path d="M9488 2504 c-14 -3 -31 -11 -37 -18 -9 -10 28 -14 187 -19 108 -4&#xA;210 -3 227 1 28 8 26 9 -30 21 -62 13 -299 23 -347 15z"/>
    <path d="M375 2170 c-36 -12 -93 -56 -83 -65 3 -3 30 1 59 9 37 11 95 16 193&#xA;16 78 0 159 5 181 11 48 14 43 16 -60 23 -182 13 -262 15 -290 6z"/>
    <path d="M648 1733 c7 -3 16 -2 19 1 4 3 -2 6 -13 5 -11 0 -14 -3 -6 -6z"/>
    <path d="M3418 1670 c-60 -10 -138 -40 -138 -51 0 -12 18 -11 60 2 19 6 109&#xA;14 200 18 159 6 163 7 112 19 -74 17 -178 22 -234 12z"/>
    <path d="M9842 1187 c55 -42 84 -93 74 -132 -27 -106 -269 -215 -651 -291&#xA;-102 -20 -185 -41 -185 -47 0 -16 180 0 332 28 346 64 568 190 568 320 0 57&#xA;-56 119 -129 144 -54 18 -56 13 -9 -22z"/>
    <path d="M350 1112 c0 -20 70 -91 115 -118 68 -39 179 -74 290 -89 114 -16&#xA;590 -29 658 -18 41 6 41 7 13 14 -53 15 -210 29 -416 39 -348 17 -531 61 -627&#xA;153 -18 17 -33 26 -33 19z"/>
    <path d="M6700 1029 c-77 -12 -184 -59 -200 -88 -14 -28 7 -28 58 -2 91 47&#xA;323 57 680 32 207 -15 290 -11 349 16 l38 17 -170 12 c-238 18 -676 25 -755&#xA;13z"/>
    <path d="M2165 895 c-64 -12 -125 -30 -125 -37 0 -2 111 -3 247 -3 268 0 345&#xA;-5 516 -35 142 -25 155 -24 87 7 -113 52 -246 74 -460 78 -137 3 -216 0 -265&#xA;-10z"/>
    <path d="M6718 725 c-53 -8 -168 -27 -255 -44 -203 -40 -329 -58 -484 -71&#xA;-182 -16 -635 -13 -834 5 -207 18 -223 19 -208 4 16 -16 161 -46 293 -60 129&#xA;-14 616 -18 757 -6 145 12 322 35 507 67 311 52 451 58 866 34 108 -6 332 10&#xA;393 28 l41 12 -30 6 c-16 4 -81 8 -144 9 -63 1 -205 8 -315 16 -241 18 -456&#xA;18 -587 0z"/>
  </g>
  <title>Walrus Tusks</title>
  <desc>Walrus Tusks</desc>
</svg>