<?xml version="1.0" encoding="UTF-8" standalone="yes"?>
<svg version="1.0" xmlns="http://www.w3.org/2000/svg" width="1024.000000pt" height="1024.000000pt" viewBox="0 0 1024.000000 1024.000000" preserveAspectRatio="xMidYMid meet">
  <metadata>
Created by potrace 1.16, written by Peter Selinger 2001-2019
</metadata>
  <g transform="translate(0.000000,1024.000000) scale(0.100000,-0.100000)" fill="#000000" stroke="none">
    <path d="M8727 9954 c-203 -37 -366 -169 -426 -347 -27 -77 -38 -194 -23 -236&#xA;13 -36 8 -38 -35 -11 -131 80 -351 61 -465 -39 -50 -44 -88 -123 -88 -183 0&#xA;-45 -1 -47 -22 -39 -118 44 -308 2 -398 -89 -72 -71 -71 -144 0 -202 73 -58&#xA;100 -60 970 -59 432 0 835 3 895 6 61 2 191 7 290 10 337 11 494 29 566 66 78&#xA;39 126 125 115 204 -16 103 -103 163 -251 172 -47 3 -85 7 -85 8 0 2 9 22 20&#xA;46 34 77 22 187 -28 243 -68 76 -231 72 -337 -9 -25 -19 -46 -35 -48 -35 -1 0&#xA;-2 34 -3 75 -1 67 -5 84 -42 159 -72 145 -190 233 -348 261 -97 18 -156 17&#xA;-257 -1z m330 -65 c159 -59 266 -200 280 -371 4 -48 1 -81 -11 -119 -23 -68&#xA;-8 -84 30 -33 68 90 137 133 224 141 70 7 118 -8 156 -48 27 -28 29 -36 29&#xA;-104 0 -67 -3 -78 -33 -120 -18 -25 -33 -51 -35 -56 -1 -7 37 -12 103 -13 84&#xA;-2 115 -7 158 -26 161 -70 146 -239 -27 -290 -36 -10 -101 -24 -144 -30 -119&#xA;-15 -657 -24 -1562 -24 -796 -1 -822 0 -875 19 -61 22 -105 73 -94 109 9 34&#xA;81 93 142 118 85 33 230 33 289 -1 24 -14 46 -22 49 -18 4 3 2 26 -4 49 -21&#xA;82 15 172 91 228 63 46 133 63 241 58 97 -5 158 -27 224 -82 38 -33 56 -34 48&#xA;-3 -26 94 -30 160 -14 239 29 140 91 236 200 311 101 70 208 97 363 93 85 -3&#xA;124 -9 172 -27z"/>
    <path d="M1260 9824 c-125 -33 -208 -94 -258 -189 -24 -44 -27 -61 -27 -145&#xA;l0 -95 -48 24 c-158 79 -337 -6 -337 -158 0 -40 0 -40 -27 -30 -32 12 -105 4&#xA;-145 -17 -74 -38 -103 -155 -56 -224 29 -42 97 -77 163 -84 93 -10 1438 -15&#xA;1675 -6 247 9 321 21 361 61 46 46 3 125 -95 177 -43 22 -64 27 -133 27 -82 0&#xA;-83 0 -83 25 0 72 -41 133 -115 173 -57 31 -181 31 -247 0 l-48 -22 0 32 c0&#xA;97 -71 254 -154 340 -105 109 -271 152 -426 111z m280 -65 c72 -34 112 -69&#xA;161 -141 71 -104 116 -258 89 -308 -23 -44 4 -46 82 -6 59 30 85 37 133 37&#xA;124 2 205 -68 205 -177 0 -28 2 -53 6 -56 3 -3 25 0 50 8 25 7 64 11 86 9 54&#xA;-7 143 -50 168 -82 33 -43 26 -60 -32 -80 -49 -16 -125 -18 -973 -20 -952 -3&#xA;-1019 -1 -1081 37 -78 49 -69 151 16 195 41 21 109 19 148 -5 40 -25 55 -19&#xA;42 16 -25 65 -1 148 54 187 26 18 44 22 111 22 84 0 145 -21 193 -65 44 -42&#xA;59 -19 31 46 -18 39 -21 60 -16 119 11 143 81 225 237 277 81 27 216 21 290&#xA;-13z"/>
    <path d="M4398 9476 c-163 -60 -386 -295 -506 -531 -74 -146 -87 -195 -87&#xA;-330 0 -134 11 -170 87 -292 41 -65 162 -187 197 -198 31 -9 26 -22 -12 -29&#xA;-50 -9 -184 -77 -257 -131 -133 -97 -255 -249 -296 -368 -10 -30 -36 -68 -69&#xA;-103 -35 -36 -69 -87 -99 -147 -50 -104 -66 -163 -70 -263 l-3 -68 -57 -52&#xA;c-82 -74 -153 -108 -327 -155 -317 -84 -457 -197 -525 -425 -26 -84 -26 -274&#xA;0 -369 81 -303 350 -533 672 -576 48 -6 108 -9 133 -7 l47 5 -4 -59 c-6 -79&#xA;16 -134 77 -191 88 -82 185 -119 310 -118 131 1 266 51 432 160 104 67 149 88&#xA;149 70 0 -6 -9 -27 -19 -47 -25 -49 -101 -352 -142 -568 -31 -159 -33 -182&#xA;-33 -399 -1 -126 2 -242 7 -257 7 -27 6 -28 -31 -28 -49 0 -372 -55 -482 -81&#xA;-93 -23 -189 -63 -261 -110 -31 -20 -78 -71 -140 -152 -306 -401 -425 -532&#xA;-644 -705 -198 -158 -346 -301 -404 -391 -49 -77 -60 -121 -38 -166 17 -36 83&#xA;-81 133 -90 27 -6 32 -1 71 62 75 121 99 140 48 38 -25 -49 -45 -97 -45 -106&#xA;0 -21 34 -35 139 -59 265 -59 530 -8 621 120 15 21 27 60 35 118 18 121 23&#xA;138 61 215 48 97 97 161 280 367 141 158 170 185 217 200 35 11 129 8 192 -6&#xA;33 -7 195 -25 275 -30 41 -2 125 -9 187 -15 l112 -11 -31 -57 c-104 -188 -126&#xA;-218 -268 -366 -77 -81 -122 -139 -167 -216 -163 -275 -368 -484 -623 -634&#xA;-278 -164 -363 -227 -418 -310 -60 -91 -36 -164 85 -259 164 -129 535 -250&#xA;661 -217 95 26 171 104 234 241 93 203 313 546 457 712 131 153 254 266 529&#xA;485 136 108 312 259 390 336 136 132 145 139 175 133 123 -25 445 -33 612 -15&#xA;44 5 132 22 196 39 l115 29 101 -97 c67 -65 122 -108 167 -131 l66 -35 -16&#xA;-25 c-99 -156 -342 -377 -684 -623 -164 -118 -296 -268 -357 -406 -31 -70 -27&#xA;-118 14 -176 29 -41 105 -92 121 -82 5 3 21 40 37 83 26 77 73 168 81 160 2&#xA;-2 -5 -30 -16 -63 -24 -68 -50 -185 -44 -195 10 -17 147 -31 245 -26 118 6&#xA;196 25 285 68 80 39 120 82 155 164 70 166 149 270 436 578 247 263 327 367&#xA;360 464 21 60 13 100 -37 212 -40 89 -82 262 -67 277 3 3 21 -3 39 -14 67 -41&#xA;220 -113 295 -138 114 -39 304 -45 422 -14 46 11 106 32 132 45 l48 25 26 -58&#xA;c36 -78 47 -107 95 -258 53 -170 108 -265 214 -369 69 -69 97 -89 196 -138&#xA;172 -84 301 -100 401 -49 30 15 54 32 54 37 0 6 -52 36 -115 68 -63 32 -106&#xA;55 -95 52 225 -67 241 -70 270 -41 59 59 78 266 36 397 -22 70 -83 173 -135&#xA;227 -61 65 -147 91 -232 69 -28 -7 -37 -4 -69 24 -66 59 -85 115 -134 400 -34&#xA;197 -58 274 -104 326 -76 87 -183 81 -326 -17 -34 -23 -77 -48 -95 -55 -34&#xA;-14 -34 -14 -40 17 -3 17 -11 151 -16 297 -11 284 -31 443 -74 591 -13 47 -27&#xA;92 -31 101 -5 14 10 17 127 21 115 5 145 10 222 36 178 62 298 159 364 294 22&#xA;46 45 95 50 110 6 15 28 36 49 47 102 53 232 187 291 299 16 31 42 93 56 137&#xA;15 44 51 130 81 191 43 88 67 124 116 173 34 35 59 67 56 75 -12 32 -117 27&#xA;-186 -8 -55 -29 -33 3 43 61 85 64 160 94 251 100 81 6 126 27 104 48 -29 28&#xA;-162 87 -241 107 -185 47 -366 -5 -514 -147 -24 -23 -44 -40 -44 -38 0 20 54&#xA;100 101 149 33 33 59 64 59 67 0 19 -66 3 -138 -33 -148 -74 -269 -233 -322&#xA;-425 -17 -60 -23 -107 -23 -190 0 -116 10 -180 49 -311 13 -44 24 -95 24 -112&#xA;0 -48 -32 -103 -92 -157 -118 -106 -218 -139 -428 -139 -190 -1 -233 11 -301&#xA;80 -183 187 -423 276 -748 276 -219 0 -313 -22 -632 -145 -199 -77 -233 -84&#xA;-360 -79 l-107 4 25 37 c33 47 153 293 194 396 160 406 287 862 328 1180 6 44&#xA;17 130 26 190 9 61 19 211 22 335 7 276 -10 448 -56 585 -31 90 -86 186 -119&#xA;206 -17 11 -18 16 -6 68 53 221 -40 563 -217 801 -199 268 -361 250 -488 -55&#xA;-32 -77 -92 -278 -112 -373 -7 -34 -16 -62 -20 -62 -4 0 -31 20 -61 44 -69 56&#xA;-206 145 -283 183 -76 38 -184 78 -191 70 -3 -3 -5 -75 -5 -159 1 -112 -4&#xA;-188 -19 -283 -26 -166 -70 -345 -84 -345 -6 0 -21 44 -34 98 -12 53 -38 138&#xA;-57 187 l-34 90 24 90 c58 215 79 352 79 515 1 123 -3 167 -17 215 -46 148&#xA;-100 207 -195 212 -32 2 -73 -3 -94 -11z m142 -75 c67 -47 118 -233 106 -381&#xA;-14 -156 -56 -350 -141 -650 -24 -85 -47 -172 -50 -192 -7 -38 -8 -38 -55 -38&#xA;l-48 0 -21 93 c-35 156 -43 234 -42 442 0 138 -3 193 -10 176 -29 -73 -40&#xA;-363 -18 -501 6 -41 22 -105 34 -142 l23 -67 -27 -5 c-14 -3 -51 -8 -82 -11&#xA;l-56 -6 -84 84 c-128 127 -195 259 -204 402 -10 168 128 447 315 636 94 96&#xA;181 157 250 175 50 14 73 11 110 -15z m1249 -250 c113 -58 278 -317 332 -521&#xA;30 -118 37 -284 14 -384 -33 -151 -124 -293 -262 -411 -102 -87 -174 -129&#xA;-379 -221 -93 -41 -173 -79 -178 -84 -18 -18 34 -19 102 -1 61 16 72 16 72 4&#xA;0 -34 -25 -114 -60 -190 -69 -149 -131 -227 -299 -373 -67 -58 -121 -108 -121&#xA;-111 0 -12 112 12 166 36 143 63 270 186 339 329 25 50 45 97 45 104 0 7 4 12&#xA;8 12 9 0 62 -276 62 -322 0 -63 -92 -218 -177 -299 -53 -51 -103 -81 -176&#xA;-108 -38 -15 -27 -28 36 -41 102 -21 200 14 295 106 31 30 58 54 61 54 2 0 1&#xA;-60 -2 -134 l-6 -133 -49 -104 c-85 -181 -171 -308 -338 -499 -230 -262 -459&#xA;-442 -744 -586 -95 -47 -111 -58 -95 -66 48 -27 249 18 386 87 336 169 647&#xA;451 800 728 l26 48 6 -43 c2 -24 4 -97 3 -164 -2 -112 -4 -124 -30 -170 -104&#xA;-180 -331 -415 -531 -548 -365 -244 -735 -295 -894 -123 l-23 26 42 118 c23&#xA;65 50 143 59 174 20 70 51 97 157 139 43 17 151 67 239 110 263 130 393 243&#xA;476 415 63 129 79 256 48 380 -13 51 -73 162 -107 198 -29 31 -58 37 -47 10&#xA;83 -213 91 -404 22 -539 -49 -95 -52 -95 -52 8 0 83 -4 100 -32 160 -17 37&#xA;-51 86 -75 110 -47 47 -113 86 -124 75 -4 -4 7 -26 25 -50 66 -87 76 -120 76&#xA;-252 -1 -105 -4 -130 -29 -200 -60 -172 -53 -163 -185 -233 -65 -34 -123 -62&#xA;-130 -62 -6 0 7 23 30 52 55 70 116 194 139 282 63 244 -47 388 -353 461 -56&#xA;14 -164 42 -240 64 -75 21 -140 35 -142 30 -7 -10 46 -50 104 -79 24 -12 95&#xA;-39 159 -61 146 -51 183 -70 233 -121 104 -108 104 -320 -2 -608 -18 -51 -23&#xA;-57 -67 -72 -26 -10 -86 -46 -133 -80 -272 -202 -361 -256 -504 -303 -167 -56&#xA;-337 -24 -437 81 -34 37 -67 110 -68 150 0 26 5 33 24 36 20 4 27 -1 36 -22&#xA;15 -36 75 -93 126 -119 88 -46 209 -34 322 31 113 65 236 214 322 393 43 89&#xA;100 256 100 291 l0 23 45 -19 c44 -19 45 -19 45 0 0 30 -70 96 -115 109 -58&#xA;16 -167 14 -191 -3 -25 -19 -15 -27 43 -33 76 -7 76 -7 42 -65 -138 -235 -449&#xA;-444 -741 -499 -152 -28 -366 -4 -487 55 -176 85 -306 230 -366 407 -36 109&#xA;-46 271 -21 368 42 162 135 255 343 338 64 26 77 27 209 26 159 -1 252 -14&#xA;369 -50 206 -65 357 -178 494 -369 90 -127 74 -41 -17 93 -138 203 -394 340&#xA;-701 374 -104 12 -105 12 -68 25 52 18 139 78 181 124 42 46 46 48 46 18 0&#xA;-13 14 -47 30 -75 52 -90 143 -134 273 -130 252 8 484 306 464 597 -7 95 -31&#xA;160 -82 218 -57 65 -121 92 -217 92 -53 0 -94 -6 -129 -19 -41 -16 -50 -17&#xA;-45 -5 11 28 84 129 111 154 28 25 28 25 22 3 -3 -13 -4 -23 -2 -23 2 0 25 13&#xA;52 30 55 34 146 55 196 46 19 -4 51 -18 71 -31 l37 -25 9 26 c20 52 3 92 -50&#xA;119 -33 17 -106 20 -145 5 -45 -17 -19 7 48 44 34 19 105 49 157 67 83 27 112&#xA;32 235 36 l140 5 -53 -32 c-30 -17 -89 -65 -133 -107 -62 -59 -88 -93 -119&#xA;-156 -22 -43 -40 -86 -40 -94 0 -8 26 14 58 48 108 117 271 219 429 270 l72&#xA;22 103 -23 c90 -20 365 -103 375 -114 2 -2 -3 -21 -11 -41 -53 -126 26 -46 98&#xA;99 68 138 103 249 172 539 81 343 107 428 176 560 64 122 108 148 187 108z&#xA;m-539 -565 c48 -37 55 -47 53 -74 -4 -50 -184 -532 -199 -532 -10 0 -54 24&#xA;-54 30 0 4 7 27 16 51 24 67 80 320 101 452 10 64 20 117 23 117 3 -1 30 -20&#xA;60 -44z m1023 -584 c14 -38 33 -116 43 -173 l18 -105 -103 -126 c-157 -195&#xA;-245 -271 -510 -437 -18 -12 -34 -20 -35 -19 -5 7 -36 175 -36 191 0 10 15 30&#xA;33 45 73 59 203 192 272 277 77 95 202 275 251 362 16 29 32 53 35 53 4 0 18&#xA;-31 32 -68z m-70 -702 c-76 -74 -180 -164 -231 -200 -108 -76 -244 -152 -253&#xA;-142 -7 8 -33 152 -28 156 2 2 27 15 55 29 173 87 423 297 538 451 l51 69 3&#xA;-114 3 -114 -138 -135z m-2328 262 c194 -99 189 -425 -9 -639 -102 -110 -229&#xA;-157 -350 -129 -118 28 -177 113 -179 259 -1 100 15 170 59 264 56 118 159&#xA;216 267 255 65 23 156 19 212 -10z m2401 -749 c-3 -10 -15 -61 -26 -113 -12&#xA;-52 -24 -98 -28 -102 -4 -3 -95 -45 -202 -93 -107 -48 -216 -98 -242 -111&#xA;l-48 -24 0 93 0 93 54 17 c79 25 297 136 396 201 92 60 104 65 96 39z m-86&#xA;-374 c-16 -61 -30 -112 -32 -114 -17 -17 -402 -155 -431 -155 -4 0 -7 39 -6&#xA;86 1 69 5 87 18 91 46 16 382 158 421 179 25 13 48 23 51 24 4 0 -6 -50 -21&#xA;-111z m-196 -616 c-14 -38 -27 -70 -30 -72 -2 -2 -55 -21 -119 -41 l-115 -38&#xA;0 62 0 62 133 46 c72 25 137 46 144 46 8 1 3 -22 -13 -65z m-2015 -185 c-56&#xA;-106 -164 -220 -249 -263 -51 -26 -137 -51 -146 -42 -18 18 80 138 156 191 36&#xA;24 236 134 248 136 1 0 -3 -10 -9 -22z m3111 -265 l65 -18 33 -65 c17 -36 44&#xA;-110 59 -165 25 -94 27 -114 27 -315 1 -167 -3 -235 -17 -305 -34 -172 -101&#xA;-375 -144 -442 -29 -44 4 -23 69 45 150 155 263 391 304 632 21 131 15 309&#xA;-16 424 -11 43 -19 80 -17 82 2 2 30 -18 62 -44 81 -65 172 -174 208 -251 29&#xA;-61 30 -66 24 -165 -15 -240 -119 -461 -322 -686 -167 -185 -338 -326 -457&#xA;-378 -27 -12 -48 -24 -48 -28 0 -11 148 4 215 21 138 36 338 158 446 271 124&#xA;130 222 303 264 467 13 51 24 88 25 82 0 -5 4 -37 10 -69 5 -33 12 -121 16&#xA;-195 l7 -136 -32 -69 c-96 -213 -404 -501 -628 -588 -40 -15 -99 -31 -130 -34&#xA;l-58 -6 -98 66 c-55 36 -101 66 -104 66 -2 0 -2 -8 0 -17 15 -53 16 -73 7 -73&#xA;-5 0 -61 -32 -122 -71 -163 -102 -348 -191 -474 -227 -122 -36 -206 -53 -202&#xA;-42 2 4 28 27 58 52 210 169 362 488 415 869 21 156 15 422 -14 576 -47 248&#xA;-132 444 -241 553 l-41 41 68 30 c99 45 115 46 169 14 143 -84 255 -259 319&#xA;-496 102 -383 31 -884 -182 -1277 -25 -46 -42 -86 -39 -89 12 -12 116 107 182&#xA;206 275 421 367 1024 220 1453 -40 117 -84 194 -151 265 l-50 52 30 3 c71 8&#xA;225 -3 285 -19z m-1380 -71 c11 -53 10 -66 -10 -137 -73 -261 -239 -520 -564&#xA;-880 -126 -140 -147 -173 -103 -160 55 17 192 76 252 110 147 82 340 256 440&#xA;398 22 31 43 57 46 57 7 0 26 -141 34 -250 9 -134 -19 -418 -59 -602 -49 -223&#xA;-145 -424 -250 -528 -25 -24 -46 -42 -46 -40 0 3 5 21 10 40 6 19 10 72 11&#xA;117 1 98 -25 167 -86 226 -146 141 -434 177 -667 82 -32 -13 -58 -19 -58 -14&#xA;0 15 58 116 122 211 32 49 58 90 58 93 0 30 -137 -96 -191 -177 -46 -67 -112&#xA;-201 -154 -310 -17 -43 -33 -78 -38 -78 -4 0 -28 10 -53 22 -86 40 -224 237&#xA;-272 388 -24 74 -52 217 -52 264 l0 31 19 -31 c27 -45 67 -72 130 -91 47 -14&#xA;67 -14 124 -4 37 6 87 21 110 32 60 31 198 122 302 202 50 38 145 110 212 160&#xA;126 94 153 123 83 87 -22 -11 -115 -55 -207 -96 -389 -177 -514 -205 -639&#xA;-142 -57 28 -94 72 -118 138 -17 48 -17 53 5 205 12 85 26 160 30 167 5 8 18&#xA;2 43 -20 141 -124 375 -132 651 -22 170 68 350 172 506 292 99 76 278 251 319&#xA;311 30 45 41 36 60 -51z m2865 -52 c-14 -59 -57 -134 -106 -185 l-52 -56 -13&#xA;33 c-6 18 -18 47 -24 64 -13 30 -11 32 42 88 30 32 66 75 79 96 l24 38 28 -26&#xA;c21 -21 27 -33 22 -52z m-2591 -91 c41 -32 113 -132 162 -223 152 -286 202&#xA;-690 130 -1046 -64 -316 -184 -546 -363 -696 -86 -71 -116 -84 -217 -91 -99&#xA;-7 -296 5 -296 18 0 5 56 65 123 133 146 147 198 212 260 333 119 231 166 442&#xA;174 788 7 304 -21 540 -86 729 -12 33 -21 63 -21 68 0 4 24 8 54 8 39 0 60 -6&#xA;80 -21z m2287 -129 c11 -19 19 -47 19 -61 0 -22 -8 -30 -47 -47 -27 -11 -62&#xA;-23 -79 -26 l-31 -7 -6 58 c-3 32 -8 65 -12 74 -5 13 5 19 52 31 76 20 82 19&#xA;104 -22z m-374 0 c34 0 45 -5 54 -22 12 -21 41 -130 36 -134 -1 -1 -32 -5 -69&#xA;-9 l-68 -7 0 35 c0 23 -12 52 -35 87 -19 29 -35 54 -35 57 0 3 17 3 38 -1 20&#xA;-3 56 -6 79 -6z m-3861 -1157 c20 -72 75 -192 116 -256 29 -45 30 -52 25 -115&#xA;-6 -72 -38 -170 -59 -184 -24 -15 -208 -2 -239 18 -3 2 5 25 18 52 16 34 26&#xA;76 31 133 11 129 -2 211 -46 301 l-38 78 35 6 c20 3 52 10 71 14 66 15 68 14&#xA;86 -47z m-376 -47 c95 -75 139 -184 147 -368 l6 -118 -119 1 c-66 1 -132 -3&#xA;-149 -9 l-30 -9 0 96 c0 89 -3 102 -33 163 -38 78 -83 120 -152 145 -27 10&#xA;-49 22 -47 28 8 24 242 103 308 104 15 1 44 -13 69 -33z m4729 -22 c28 -20 58&#xA;-88 67 -153 11 -87 -66 -280 -151 -378 -75 -86 -175 -118 -175 -57 0 38 -22&#xA;38 -78 0 -46 -31 -94 -49 -185 -72 -24 -6 -20 1 33 52 115 110 199 279 200&#xA;402 0 35 -4 72 -10 82 -8 15 2 25 78 69 49 27 99 55 113 60 37 15 82 13 108&#xA;-5z m-418 -145 c11 -21 -8 -119 -42 -208 -52 -139 -190 -263 -321 -286 -60&#xA;-11 -265 62 -364 129 l-33 22 97 22 c189 43 341 130 465 262 40 44 91 109 112&#xA;146 l39 66 18 -67 c10 -37 23 -76 29 -86z m-2937 -54 c212 -57 315 -165 324&#xA;-339 l4 -81 -150 -142 c-83 -79 -152 -143 -155 -143 -2 0 -7 18 -11 41 -10 61&#xA;-39 111 -107 184 -119 127 -278 202 -406 191 -55 -4 -61 -3 -54 12 4 9 16 37&#xA;28 62 11 25 37 80 56 122 38 83 29 77 152 107 56 14 248 6 319 -14z m-1760&#xA;-44 c100 -49 156 -140 156 -255 0 -47 -3 -53 -63 -115 -34 -36 -77 -83 -95&#xA;-105 -18 -21 -34 -37 -35 -35 -1 2 -14 29 -29 60 -47 101 -126 172 -226 204&#xA;l-52 17 32 44 c18 24 62 82 98 129 l65 86 51 -4 c27 -2 72 -14 98 -26z m5275&#xA;-342 c17 -52 42 -111 56 -131 29 -43 90 -78 134 -78 40 0 44 -17 39 -172 -3&#xA;-113 -6 -128 -34 -189 -49 -103 -114 -159 -201 -174 -42 -7 -44 -6 -101 52&#xA;-49 49 -142 184 -142 206 0 4 8 7 18 7 78 0 181 75 230 168 29 53 54 152 39&#xA;152 -3 0 -18 -21 -35 -47 -66 -108 -180 -205 -252 -215 -23 -3 -27 4 -77 152&#xA;-28 85 -52 158 -52 163 -1 4 7 7 17 7 30 1 98 37 140 74 51 46 114 144 144&#xA;220 l22 60 13 -81 c7 -44 26 -123 42 -174z m-4144 151 c10 0 8 -12 -8 -51&#xA;l-22 -51 -48 6 c-78 11 -79 12 -58 55 11 20 22 53 26 73 l7 36 45 -34 c24 -19&#xA;51 -34 58 -34z m2577 8 l57 -53 6 -80 c9 -113 29 -192 75 -300 45 -106 48&#xA;-132 20 -193 -37 -82 -189 -270 -197 -245 -11 31 -52 80 -88 104 -55 38 -105&#xA;52 -206 58 l-87 6 57 70 56 70 50 -5 c64 -6 155 -1 155 10 0 4 -24 14 -52 20&#xA;-104 25 -186 58 -256 103 -40 26 -72 49 -72 51 0 2 17 0 38 -6 20 -6 70 -8&#xA;110 -5 84 6 193 51 238 98 33 35 33 35 -42 8 -35 -12 -95 -23 -149 -26 -97 -5&#xA;-154 9 -238 60 l-38 23 69 28 c78 30 323 169 391 222 24 19 45 34 46 34 0 0&#xA;26 -24 57 -52z m-4007 -199 c30 -11 77 -37 104 -58 47 -34 111 -105 111 -121&#xA;0 -4 -12 -20 -26 -36 -83 -94 -138 -182 -174 -282 -13 -34 -24 -62 -25 -62 -1&#xA;0 -20 16 -41 36 -22 20 -58 49 -81 65 -67 47 -233 126 -293 140 -30 7 -59 16&#xA;-63 19 -5 4 34 43 85 87 51 44 128 114 171 157 76 74 80 76 128 76 26 0 73 -9&#xA;104 -21z m1590 -44 c82 -22 169 -71 236 -133 60 -55 92 -108 107 -179 l10 -42&#xA;-124 -101 c-67 -55 -125 -100 -127 -100 -2 0 -7 27 -10 60 -15 165 -144 280&#xA;-323 288 l-82 4 51 86 c28 48 56 97 64 110 12 19 22 22 76 22 35 0 89 -7 122&#xA;-15z m-257 -340 c61 -16 141 -64 179 -109 29 -35 83 -142 83 -167 0 -9 -30&#xA;-43 -67 -76 -38 -33 -103 -95 -145 -137 -42 -42 -78 -76 -81 -76 -2 0 -7 16&#xA;-10 35 -10 59 -49 125 -104 175 -59 54 -123 80 -195 80 l-49 0 18 30 c9 17 36&#xA;54 58 84 138 184 168 199 313 161z m2334 -196 c29 -6 76 -22 104 -35 55 -26&#xA;134 -102 134 -129 0 -9 -55 -78 -122 -153 -177 -198 -195 -220 -244 -294 -43&#xA;-65 -64 -83 -64 -55 0 20 -67 80 -136 121 -78 47 -202 96 -265 103 -27 3 -49&#xA;9 -48 12 0 3 38 34 85 69 76 56 89 62 132 62 98 0 241 -52 319 -116 50 -41 57&#xA;-26 14 33 -46 63 -160 142 -208 143 -6 0 -24 5 -39 10 -26 10 -26 11 92 125&#xA;132 127 133 128 246 104z m-2694 -214 c34 -8 82 -25 105 -36 43 -22 177 -145&#xA;177 -162 0 -5 -26 -42 -59 -82 -118 -147 -268 -377 -343 -527 -22 -43 -41 -78&#xA;-42 -78 -2 0 -20 27 -40 59 -45 74 -168 189 -247 231 -67 36 -195 81 -203 72&#xA;-3 -3 -6 0 -6 6 0 5 15 20 33 31 19 11 65 44 103 72 68 50 70 51 124 45 130&#xA;-13 220 -60 296 -154 72 -90 82 -81 38 37 -44 119 -107 175 -226 201 -32 7&#xA;-58 15 -58 17 0 2 37 41 83 87 45 46 100 108 122 139 45 63 49 64 143 42z&#xA;m-854 -894 c73 -36 341 -239 330 -250 -2 -2 -52 28 -111 66 -121 79 -202 126&#xA;-283 164 -30 14 -75 36 -100 48 l-45 22 64 -5 c49 -3 84 -14 145 -45z"/>
    <path d="M5768 8710 c-15 -41 -57 -167 -94 -280 -84 -258 -151 -425 -254 -629&#xA;-44 -89 -78 -161 -75 -161 19 0 207 124 266 176 102 90 258 274 232 274 -5 0&#xA;-60 -52 -123 -116 -99 -100 -266 -244 -283 -244 -3 0 25 60 63 133 111 213&#xA;203 470 266 741 40 170 41 215 2 106z"/>
    <path d="M4664 7856 c-36 -16 -106 -85 -101 -100 2 -6 37 -11 78 -12 58 -1 86&#xA;-7 124 -27 78 -39 138 -98 179 -177 21 -39 39 -70 41 -68 12 12 11 78 -1 130&#xA;-19 80 -49 132 -113 191 -79 74 -139 92 -207 63z"/>
    <path d="M4411 7481 c-170 -64 -315 -241 -356 -436 -47 -224 28 -401 204 -484&#xA;49 -23 68 -26 161 -26 101 0 108 2 183 37 135 65 236 188 293 358 14 41 19 85&#xA;19 170 0 108 -2 119 -31 181 -42 89 -93 142 -172 181 -56 28 -77 33 -156 35&#xA;-72 3 -102 -1 -145 -16z m273 -65 c69 -34 135 -107 161 -177 26 -73 27 -213 1&#xA;-289 -34 -100 -77 -173 -140 -235 -161 -161 -383 -176 -523 -36 -62 62 -86&#xA;133 -85 251 0 116 24 199 83 291 69 106 181 194 282 220 60 15 162 4 221 -25z"/>
    <path d="M4473 7120 c-28 -11 -78 -80 -94 -127 -18 -57 -7 -132 25 -160 57&#xA;-49 143 -19 188 64 34 62 43 113 28 157 -21 64 -83 92 -147 66z"/>
    <path d="M2627 6422 c-37 -40 -50 -152 -26 -221 19 -53 29 -35 29 53 0 75 3&#xA;88 24 112 l23 28 18 -27 c15 -23 17 -43 13 -127 -5 -103 3 -124 26 -67 34 81&#xA;27 201 -15 246 -24 26 -70 28 -92 3z"/>
    <path d="M3325 6350 c-23 -3 -57 -16 -76 -27 -62 -39 -135 -162 -127 -215 3&#xA;-20 6 -18 26 20 45 84 131 159 204 176 20 5 33 1 48 -14 43 -43 11 -141 -80&#xA;-245 -55 -61 -54 -81 2 -46 66 41 138 159 146 239 3 40 0 53 -19 75 -29 33&#xA;-70 45 -124 37z"/>
    <path d="M3737 7240 c-43 -34 -77 -115 -77 -186 0 -56 3 -65 26 -83 49 -38&#xA;108 -20 159 49 49 66 60 168 24 214 -26 33 -93 37 -132 6z"/>
    <path d="M7988 8080 c-131 -22 -266 -92 -326 -167 -42 -53 -72 -120 -72 -161&#xA;0 -30 -2 -33 -22 -25 -13 4 -54 8 -93 8 -120 -1 -239 -74 -266 -165 -16 -54 5&#xA;-101 59 -129 76 -39 177 -45 652 -37 245 4 481 9 525 11 44 2 152 7 239 10&#xA;183 7 298 21 337 41 87 44 75 162 -21 218 -28 17 -52 21 -122 21 -81 0 -88 2&#xA;-88 20 0 36 -37 82 -75 95 -50 17 -133 8 -183 -18 l-41 -21 -12 42 c-51 190&#xA;-254 297 -491 257z m279 -74 c100 -46 175 -142 187 -240 6 -47 12 -54 34 -38&#xA;136 99 288 74 269 -43 -6 -35 -5 -37 16 -30 85 27 201 11 241 -34 23 -25 36&#xA;-74 24 -94 -14 -26 -74 -47 -152 -53 -196 -16 -728 -30 -1111 -30 l-430 1 -48&#xA;23 c-29 15 -49 32 -53 46 -12 49 34 109 114 150 92 47 176 47 232 0 16 -14 31&#xA;-24 31 -22 1 1 2 32 3 68 3 117 65 201 200 270 93 47 154 59 276 57 92 -2 113&#xA;-6 167 -31z"/>
    <path d="M1305 7615 c-208 -38 -361 -128 -425 -248 -23 -44 -25 -45 -73 -45&#xA;-65 -1 -103 -10 -157 -37 -73 -37 -95 -67 -95 -131 l0 -54 -45 0 c-109 -1&#xA;-243 -52 -298 -115 -35 -40 -39 -62 -17 -105 32 -63 135 -96 330 -106 l120 -7&#xA;78 -58 c86 -63 189 -110 284 -130 58 -12 67 -18 155 -104 92 -89 187 -157 241&#xA;-170 15 -4 27 -9 27 -11 0 -7 -49 -226 -63 -284 -25 -97 -80 -285 -87 -292&#xA;-11 -14 -183 93 -348 217 -205 154 -267 186 -365 193 -93 6 -183 -14 -336 -75&#xA;-154 -60 -231 -100 -231 -118 0 -22 7 -20 115 31 54 25 146 62 204 82 96 33&#xA;116 37 211 37 132 0 145 -6 382 -185 154 -117 283 -196 344 -212 21 -5 21 -7&#xA;8 -69 -38 -183 -58 -350 -58 -496 -1 -84 -3 -153 -6 -153 -3 0 -11 15 -19 33&#xA;-25 59 -75 137 -88 137 -27 0 -25 -32 5 -93 17 -34 29 -63 27 -65 -6 -7 -47&#xA;20 -139 89 -83 63 -126 84 -126 59 0 -9 79 -87 130 -129 30 -24 40 -24 -165&#xA;-11 -147 9 -467 14 -722 11 -96 -1 -103 -2 -103 -21 0 -19 7 -20 228 -20 252&#xA;-1 443 -6 757 -20 423 -20 512 -26 835 -51 252 -19 309 -25 565 -54 129 -15&#xA;155 -18 270 -30 59 -6 433 -58 840 -116 116 -16 226 -31 245 -34 54 -7 204&#xA;-25 208 -25 2 0 1 4 -2 9 -3 4 -20 11 -38 15 -55 11 -286 54 -408 75 -173 30&#xA;-800 116 -1100 150 -345 40 -426 47 -605 57 -125 7 -168 16 -122 28 13 3 27&#xA;13 31 21 8 23 -31 19 -102 -10 -67 -27 -128 -32 -95 -7 10 8 53 31 96 53 42&#xA;22 77 44 77 50 0 22 -71 0 -181 -55 -60 -31 -112 -56 -115 -56 -3 0 19 27 50&#xA;61 50 54 72 99 47 99 -17 0 -69 -50 -107 -102 -37 -49 -38 -50 -47 -27 -17 44&#xA;-1 343 27 497 14 78 26 144 26 147 0 2 17 7 38 10 62 11 102 25 227 81 283&#xA;126 334 118 671 -98 99 -63 230 -145 292 -181 204 -121 494 -258 510 -242 7 7&#xA;14 3 -153 90 -211 111 -378 208 -615 358 -258 164 -317 191 -425 190 -92 -1&#xA;-145 -18 -330 -108 -103 -50 -205 -83 -205 -67 0 37 69 276 88 307 58 92 142&#xA;197 246 305 123 127 198 213 270 308 26 34 53 62 61 62 26 0 191 90 236 129&#xA;l47 41 158 3 c233 6 369 41 407 106 22 38 22 68 -3 108 -44 73 -157 126 -272&#xA;127 -59 1 -68 3 -68 19 0 114 -253 188 -412 122 -14 -6 -18 -2 -18 16 -1 110&#xA;-153 227 -362 280 -104 27 -356 34 -463 14z m365 -41 c178 -31 289 -77 364&#xA;-151 46 -46 66 -88 66 -143 0 -22 4 -40 9 -40 6 0 27 10 48 23 33 19 52 22&#xA;138 22 90 0 106 -3 158 -28 63 -31 81 -55 79 -104 l-1 -32 77 0 c96 1 177 -27&#xA;233 -80 47 -45 49 -71 9 -104 -89 -75 -504 -89 -809 -26 -112 23 -121 23 -121&#xA;5 0 -34 -170 -68 -330 -65 -185 3 -433 44 -465 76 -13 13 -18 12 -41 -6 -32&#xA;-25 -152 -64 -254 -82 -100 -18 -398 -18 -470 0 -69 17 -128 49 -136 74 -19&#xA;59 167 146 313 147 l51 0 -5 60 c-6 59 -5 61 30 93 45 43 127 69 207 66 l61&#xA;-3 23 50 c90 191 439 304 766 248z m-454 -729 c22 -7 74 -18 116 -25 42 -7 80&#xA;-15 86 -19 20 -12 45 -229 39 -335 -4 -55 -10 -103 -14 -107 -12 -12 -132 73&#xA;-209 148 -77 76 -172 182 -228 257 l-37 50 68 36 c65 35 69 36 103 22 19 -8&#xA;53 -20 76 -27z m841 13 l42 -13 -81 -115 c-62 -88 -131 -166 -299 -334 -121&#xA;-120 -219 -214 -219 -210 0 5 9 56 19 113 11 58 19 143 19 189 l0 84 51 23&#xA;c68 32 131 99 155 163 15 43 22 52 42 52 33 0 130 38 145 56 14 17 49 15 126&#xA;-8z m197 -27 c24 -5 27 -8 15 -18 -21 -17 -201 -113 -197 -105 2 4 19 35 38&#xA;69 34 61 36 63 75 62 22 -1 53 -4 69 -8z m-1318 -63 c9 -18 32 -55 51 -81 19&#xA;-27 33 -51 30 -53 -13 -13 -219 80 -277 126 l-25 20 45 0 c25 1 63 5 85 9 67&#xA;14 74 13 91 -21z m774 21 c0 -15 -109 -120 -145 -141 l-31 -17 -20 85 -21 84&#xA;109 0 c71 0 108 -4 108 -11z"/>
    <path d="M7382 6648 c-122 -12 -222 -67 -452 -247 -202 -158 -441 -317 -650&#xA;-432 -61 -34 -109 -64 -106 -66 8 -8 191 83 315 156 154 91 280 177 478 327&#xA;242 183 322 221 475 228 163 6 316 -47 473 -163 228 -170 474 -321 444 -273&#xA;-7 11 -43 38 -80 62 -38 23 -131 88 -206 144 -247 182 -306 217 -418 245 -75&#xA;19 -191 27 -273 19z"/>
    <path d="M7250 6224 c-182 -183 -390 -361 -591 -505 -61 -43 -106 -79 -101&#xA;-79 20 0 244 157 348 244 122 102 331 302 405 387 28 33 49 59 47 59 -2 0 -51&#xA;-48 -108 -106z"/>
    <path d="M7840 6063 c24 -43 63 -107 88 -143 52 -74 174 -201 212 -219 14 -7&#xA;-4 13 -38 45 -77 69 -182 202 -246 313 -27 45 -50 81 -53 81 -3 0 14 -35 37&#xA;-77z"/>
    <path d="M9703 5915 c-79 -22 -109 -36 -247 -119 -93 -56 -131 -74 -140 -67&#xA;-20 17 -143 61 -150 54 -3 -4 -6 -10 -6 -13 0 -10 95 -50 119 -50 45 0 24 -20&#xA;-88 -81 -66 -35 -118 -65 -116 -67 6 -7 119 50 304 156 284 161 300 167 436&#xA;166 99 -1 122 -5 225 -39 63 -20 132 -46 152 -56 46 -23 48 -23 48 -1 0 21&#xA;-17 30 -132 72 -154 58 -299 73 -405 45z"/>
    <path d="M527 5730 c27 -51 250 -270 313 -307 84 -49 102 -51 35 -3 -104 73&#xA;-221 182 -340 315 l-27 30 19 -35z"/>
    <path d="M9715 5608 c-55 -33 -149 -87 -210 -119 -60 -32 -106 -59 -101 -59&#xA;26 0 330 169 401 224 41 31 7 14 -90 -46z"/>
    <path d="M1995 5495 c33 -30 107 -87 164 -126 104 -71 259 -154 268 -145 5 5&#xA;-10 15 -127 81 -109 61 -222 136 -285 189 -76 64 -88 65 -20 1z"/>
    <path d="M9960 5533 c0 -12 124 -133 163 -158 15 -10 30 -15 33 -12 3 3 -5 11&#xA;-18 18 -12 7 -58 46 -100 87 -43 42 -78 71 -78 65z"/>
    <path d="M9380 5266 c-36 -9 -61 -23 -75 -40 -13 -16 -31 -26 -46 -26 -14 0&#xA;-49 -7 -78 -16 -39 -11 -57 -23 -69 -45 -15 -25 -23 -29 -58 -29 -48 0 -120&#xA;-23 -146 -47 -10 -9 -18 -27 -18 -39 0 -39 50 -57 169 -61 101 -3 104 -3 155&#xA;-40 28 -21 80 -47 116 -60 l65 -22 12 -63 c16 -82 16 -171 1 -186 -20 -20&#xA;-127 -14 -228 14 -234 65 -280 65 -470 -1 -74 -26 -160 -55 -190 -65 -73 -24&#xA;-237 -57 -388 -80 -68 -10 -126 -20 -129 -24 -10 -9 125 -7 192 4 33 5 78 12&#xA;100 15 89 13 217 48 374 102 215 75 264 76 488 18 137 -35 158 -38 203 -29 27&#xA;6 50 8 50 5 0 -3 -8 -40 -17 -83 l-17 -76 -246 -2 c-135 0 -258 -3 -275 -5&#xA;-16 -2 -93 -6 -170 -10 -77 -3 -155 -8 -175 -10 -248 -29 -384 -48 -425 -60&#xA;-71 -19 -34 -18 216 5 117 10 259 21 314 24 55 3 156 8 225 12 170 9 1125 8&#xA;1278 -1 119 -6 122 -6 122 14 0 19 -6 21 -77 22 -43 0 -85 2 -95 4 -9 2 -154&#xA;5 -322 6 -195 3 -306 8 -306 14 0 6 4 26 9 45 6 19 14 53 20 75 l10 40 58 1&#xA;c39 1 83 12 133 32 131 52 179 48 425 -37 134 -46 148 -48 143 -25 -2 11 -54&#xA;34 -168 72 -153 52 -172 57 -255 56 -80 0 -98 -4 -165 -33 -68 -30 -141 -43&#xA;-156 -28 -7 7 9 81 37 173 18 59 20 61 76 84 35 14 75 42 102 69 38 40 50 46&#xA;90 48 76 3 121 13 161 33 72 37 57 103 -30 129 -42 13 -142 17 -158 7 -6 -3&#xA;-12 5 -16 17 -11 45 -46 76 -99 91 -79 22 -212 28 -277 12z m242 -37 c57 -13&#xA;118 -62 118 -96 0 -17 8 -19 88 -19 64 0 96 -4 120 -17 35 -19 39 -29 20 -44&#xA;-26 -21 -86 -33 -186 -37 -81 -3 -104 -1 -110 10 -7 13 -16 13 -67 -1 -70 -18&#xA;-144 -19 -232 -4 -46 8 -67 8 -77 0 -8 -7 -72 -12 -162 -13 -145 -3 -204 3&#xA;-204 21 0 14 71 38 135 46 71 9 79 13 66 29 -24 29 58 66 145 66 47 0 52 2 47&#xA;20 -4 15 2 23 28 35 42 17 196 20 271 4z m-254 -249 c20 0 22 -5 22 -46 0 -42&#xA;-1 -45 -22 -39 -39 11 -151 65 -146 70 9 9 84 23 103 19 11 -2 30 -4 43 -4z&#xA;m320 0 l25 0 -22 -24 c-22 -24 -119 -72 -127 -63 -2 2 2 21 9 43 14 38 44 57&#xA;75 48 8 -2 25 -4 40 -4z m-140 -22 c-3 -7 -20 -58 -38 -112 -37 -112 -39 -111&#xA;-70 10 -30 117 -31 114 46 114 49 0 65 -3 62 -12z"/>
    <path d="M2708 4613 c-24 -53 -36 -157 -20 -167 5 -3 13 10 17 32 3 20 15 66&#xA;26 101 22 73 23 81 8 81 -5 0 -20 -21 -31 -47z"/>
    <path d="M2865 4555 c-47 -17 -105 -75 -105 -106 0 -19 6 -16 48 24 27 24 63&#xA;52 80 61 18 9 32 21 32 26 0 13 -6 12 -55 -5z"/>
    <path d="M780 4545 c0 -2 20 -35 43 -72 24 -37 61 -101 82 -140 35 -66 55 -89&#xA;55 -64 0 22 -50 155 -74 195 -27 47 -69 86 -92 86 -8 0 -14 -2 -14 -5z"/>
    <path d="M993 4493 c-19 -45 -20 -132 -2 -165 13 -22 13 -22 20 17 4 22 10 73&#xA;14 113 8 82 -5 97 -32 35z"/>
    <path d="M2490 4500 c0 -5 6 -10 13 -10 6 0 38 -13 70 -29 67 -34 75 -24 15&#xA;19 -39 29 -98 41 -98 20z"/>
    <path d="M2866 4445 c-28 -21 -14 -28 31 -16 21 6 50 11 66 11 15 0 27 5 27&#xA;10 0 16 -102 11 -124 -5z"/>
    <path d="M616 4431 c22 -20 214 -161 219 -161 30 0 -81 122 -137 151 -37 19&#xA;-101 27 -82 10z"/>
    <path d="M1110 4402 c-35 -34 -60 -91 -60 -134 0 -28 16 -21 31 14 7 17 27 50&#xA;45 74 18 23 37 51 43 63 20 36 -16 26 -59 -17z"/>
    <path d="M1281 4388 c-29 -10 -69 -29 -88 -44 -34 -26 -61 -69 -51 -80 3 -3&#xA;41 19 85 49 43 30 87 58 97 64 37 21 9 28 -43 11z"/>
    <path d="M536 4301 c-4 -6 3 -12 16 -15 13 -2 59 -10 103 -19 44 -8 81 -13 83&#xA;-12 2 2 -14 13 -35 26 -41 26 -155 40 -167 20z"/>
    <path d="M9434 4166 c-15 -59 21 -280 38 -235 10 27 -4 228 -18 247 -11 15&#xA;-13 14 -20 -12z"/>
    <path d="M9613 4118 c-11 -13 -29 -39 -38 -58 -20 -39 -46 -140 -36 -140 5 0&#xA;89 163 109 212 7 16 -15 7 -35 -14z"/>
    <path d="M9725 4045 c-37 -13 -115 -85 -115 -107 0 -5 3 -7 8 -4 35 22 151 99&#xA;167 110 l20 15 -20 0 c-11 0 -38 -6 -60 -14z"/>
    <path d="M9250 4044 c0 -8 79 -105 99 -121 25 -21 32 -15 17 15 -29 54 -116&#xA;133 -116 106z"/>
    <path d="M2273 3988 c-39 -43 -63 -105 -63 -163 0 -58 13 -67 25 -18 3 16 22&#xA;62 41 104 19 42 34 82 34 88 0 17 -15 13 -37 -11z"/>
    <path d="M2402 3920 c-63 -32 -122 -91 -122 -122 0 -10 1 -18 3 -18 2 0 26 22&#xA;53 48 29 28 73 58 107 71 54 22 69 42 36 49 -8 1 -43 -11 -77 -28z"/>
    <path d="M1990 3935 c0 -3 17 -21 39 -40 21 -19 54 -58 72 -85 19 -27 37 -50&#xA;42 -50 33 -1 -37 129 -86 159 -32 19 -67 28 -67 16z"/>
    <path d="M1966 3801 c-7 -10 53 -51 74 -51 10 0 10 3 -1 16 -18 22 -67 45 -73&#xA;35z"/>
    <path d="M2408 3784 c-16 -8 -28 -21 -28 -29 0 -11 14 -8 58 12 72 33 72 33&#xA;31 33 -19 -1 -46 -8 -61 -16z"/>
    <path d="M8915 3475 c-71 -71 -56 -86 20 -20 36 32 65 59 65 61 0 2 -9 4 -20&#xA;4 -11 0 -41 -20 -65 -45z"/>
    <path d="M9215 3458 c-50 -18 -107 -61 -142 -106 -52 -69 -40 -80 24 -22 52&#xA;48 83 66 168 100 29 11 29 12 10 26 -22 16 -20 16 -60 2z"/>
    <path d="M904 3135 c-6 -14 20 -131 72 -332 22 -84 34 80 13 179 -11 50 -50&#xA;142 -69 162 -6 6 -12 2 -16 -9z"/>
    <path d="M1215 3061 c-38 -23 -80 -71 -107 -124 -21 -41 -58 -143 -58 -159 0&#xA;-25 21 2 69 87 30 51 76 119 102 149 27 30 49 57 49 60 0 12 -25 6 -55 -13z"/>
    <path d="M650 2957 c0 -7 16 -29 36 -48 20 -18 58 -62 86 -97 58 -72 81 -73&#xA;42 -1 -35 64 -88 126 -125 144 -34 18 -39 19 -39 2z"/>
    <path d="M1340 2913 c-63 -22 -123 -68 -149 -114 -12 -21 -19 -39 -16 -39 4 0&#xA;27 17 53 39 26 21 77 56 114 77 37 21 65 41 62 46 -7 10 -11 10 -64 -9z"/>
    <path d="M9715 2779 c-142 -18 -315 -186 -303 -293 l4 -31 12 30 c39 95 110&#xA;173 197 216 113 56 185 49 238 -23 68 -93 61 -197 -21 -311 -19 -26 -32 -51&#xA;-28 -54 3 -4 22 1 41 10 40 19 97 22 125 7 24 -13 32 -51 21 -100 -7 -31 -6&#xA;-40 4 -40 15 0 35 51 35 91 0 66 -37 99 -111 99 l-40 0 19 25 c44 56 52 176&#xA;17 259 -20 48 -79 102 -123 113 -20 5 -60 6 -87 2z"/>
    <path d="M8040 2310 c-111 -20 -234 -85 -326 -169 -71 -67 -206 -232 -255&#xA;-313 l-44 -73 -6 44 c-19 145 -232 117 -398 -51 -44 -45 -77 -96 -67 -106 3&#xA;-3 32 19 63 49 175 166 347 210 369 94 6 -31 -4 -98 -21 -137 -5 -12 -3 -18 6&#xA;-18 8 0 49 54 92 119 81 124 201 274 281 351 107 104 265 170 409 170 96 0&#xA;140 -17 174 -69 50 -74 22 -126 -159 -303 -77 -75 -137 -141 -134 -147 9 -14&#xA;34 -3 81 35 85 69 224 124 330 131 61 5 73 2 98 -17 15 -12 27 -30 27 -40 0&#xA;-34 -51 -80 -146 -131 -87 -47 -113 -69 -81 -69 8 0 51 12 98 26 295 91 399&#xA;114 520 114 71 0 86 10 47 31 -46 24 -236 -1 -426 -57 l-23 -7 25 38 c14 21&#xA;26 46 26 57 0 68 -79 116 -171 104 -28 -4 -85 -18 -126 -31 l-74 -23 56 58&#xA;c93 99 114 169 73 250 -33 65 -89 93 -193 96 -44 2 -100 -1 -125 -6z"/>
    <path d="M5173 2104 c-3 -9 -2 -22 3 -29 5 -7 31 -44 58 -82 27 -37 64 -101&#xA;83 -140 55 -119 72 -85 28 54 -45 144 -147 261 -172 197z"/>
    <path d="M4852 1908 c3 -7 41 -38 85 -68 45 -30 112 -84 149 -120 52 -50 69&#xA;-61 72 -48 8 41 -115 181 -197 222 -54 28 -116 35 -109 14z"/>
    <path d="M9125 1719 c-198 -22 -345 -51 -345 -68 0 -4 46 -2 103 5 163 20 396&#xA;34 557 34 140 0 183 8 142 26 -25 11 -365 14 -457 3z"/>
    <path d="M6945 1476 c-71 -13 -220 -45 -330 -70 -110 -26 -227 -54 -260 -61&#xA;-320 -75 -481 -118 -500 -136 -25 -25 153 10 500 97 143 36 366 87 495 114&#xA;129 27 255 56 280 64 l45 14 -50 0 c-27 0 -108 -10 -180 -22z"/>
    <path d="M7489 1486 c-2 -2 -28 -6 -57 -10 -102 -12 -422 -66 -514 -87 -51&#xA;-11 -115 -25 -143 -30 -79 -15 -195 -51 -190 -59 3 -4 40 -1 82 6 206 38 470&#xA;87 578 109 66 13 172 34 235 45 63 12 117 24 119 26 2 2 -20 4 -51 4 -30 0&#xA;-57 -2 -59 -4z"/>
    <path d="M7720 1449 c-36 -4 -85 -11 -110 -14 -87 -11 -165 -27 -180 -36 -20&#xA;-13 103 -4 280 21 74 11 141 20 148 20 6 0 12 5 12 10 0 11 -56 11 -150 -1z"/>
    <path d="M6440 1443 c-156 -19 -1107 -230 -1385 -308 -27 -8 -69 -19 -92 -25&#xA;-83 -21 -42 -27 70 -10 117 19 258 50 672 149 138 33 338 78 445 101 107 22&#xA;245 54 305 69 91 24 102 29 65 28 -25 0 -61 -2 -80 -4z"/>
    <path d="M640 1384 c0 -4 38 -46 84 -94 107 -113 159 -193 254 -387 73 -150&#xA;77 -156 80 -119 7 81 -76 280 -169 407 -56 75 -141 159 -187 183 -31 16 -62&#xA;21 -62 10z"/>
    <path d="M1190 1318 c-57 -100 -83 -199 -84 -328 -2 -187 27 -236 37 -63 6&#xA;105 41 260 82 360 29 72 30 83 10 83 -8 0 -28 -24 -45 -52z"/>
    <path d="M5455 1333 c-182 -17 -947 -201 -1015 -245 -28 -18 71 0 335 61 418&#xA;96 707 169 718 180 6 6 9 10 7 9 -3 -1 -23 -3 -45 -5z"/>
    <path d="M4746 1254 c-185 -28 -901 -228 -990 -276 -82 -44 131 8 553 136 71&#xA;22 326 89 489 129 23 6 42 14 42 19 0 4 -1 8 -2 7 -2 -1 -43 -7 -92 -15z"/>
    <path d="M4165 1195 c-122 -28 -704 -186 -835 -226 -164 -50 -144 -63 35 -23&#xA;267 61 967 252 983 269 13 13 -92 1 -183 -20z"/>
    <path d="M9350 1172 c-19 -9 -63 -44 -99 -77 -134 -125 -210 -260 -255 -455&#xA;-17 -71 -21 -206 -7 -214 12 -8 19 12 46 129 53 228 129 372 284 537 45 47 78&#xA;89 73 92 -4 2 -23 -3 -42 -12z"/>
    <path d="M1570 1118 c-117 -44 -237 -150 -298 -262 -32 -59 -47 -106 -35 -106&#xA;5 0 23 23 42 50 71 105 194 214 349 307 24 15 30 33 10 32 -7 0 -38 -9 -68&#xA;-21z"/>
    <path d="M8510 1125 c0 -3 28 -40 63 -83 64 -78 114 -156 159 -247 25 -49 38&#xA;-81 112 -277 21 -54 42 -98 48 -98 16 0 3 116 -23 208 -58 208 -197 433 -301&#xA;488 -27 14 -58 19 -58 9z"/>
    <path d="M486 1035 c4 -8 47 -36 97 -62 68 -35 112 -68 184 -136 51 -49 97&#xA;-87 100 -83 14 14 -33 83 -105 154 -52 52 -93 83 -145 108 -76 36 -141 46&#xA;-131 19z"/>
    <path d="M3077 995 c-123 -36 -177 -59 -177 -75 0 -6 2 -10 5 -10 17 0 256 84&#xA;285 100 50 28 21 24 -113 -15z"/>
    <path d="M1659 931 c-36 -15 -86 -42 -111 -59 -60 -41 -138 -120 -138 -138 0&#xA;-18 9 -13 65 32 64 51 182 110 283 140 111 33 123 54 30 54 -46 0 -81 -8 -129&#xA;-29z"/>
    <path d="M9570 857 c-79 -33 -171 -98 -254 -181 -81 -81 -163 -204 -171 -257&#xA;l-6 -34 23 29 c110 139 146 181 202 234 72 67 144 118 249 176 37 20 67 41 67&#xA;46 0 17 -53 10 -110 -13z"/>
    <path d="M8246 791 c-8 -13 22 -35 86 -64 128 -57 226 -144 322 -285 45 -66&#xA;66 -81 66 -48 0 7 -16 46 -36 85 -55 110 -173 226 -285 280 -81 39 -141 52&#xA;-153 32z"/>
    <path d="M5727 752 c-31 -32 -92 -160 -106 -223 -13 -56 -14 -152 -2 -144 6 3&#xA;22 45 36 92 15 48 47 127 71 175 59 117 59 161 1 100z"/>
    <path d="M5949 627 c-96 -44 -286 -253 -256 -283 4 -4 74 61 157 145 143 144&#xA;157 164 99 138z"/>
    <path d="M5386 621 c-6 -10 164 -301 176 -301 21 0 -6 100 -48 182 -32 61&#xA;-116 139 -128 119z"/>
    <path d="M9605 616 c-88 -28 -185 -92 -230 -151 -15 -19 -25 -38 -23 -41 3 -3&#xA;43 20 88 50 89 60 159 90 253 109 33 7 62 17 64 23 8 25 -86 31 -152 10z"/>
    <path d="M5130 576 c0 -8 19 -29 43 -47 23 -18 81 -71 129 -118 48 -47 90 -83&#xA;92 -80 12 12 -40 88 -102 152 -83 85 -162 130 -162 93z"/>
    <path d="M6013 455 c-52 -16 -121 -56 -147 -84 -20 -22 -15 -41 6 -24 20 16&#xA;139 61 193 73 53 12 78 27 69 41 -8 13 -72 10 -121 -6z"/>
  </g>
  <title>Zebra na sawannie</title>
  <desc>Zebra w charakterystyczne czarno-białe pasy biegnie po afrykańskiej sawannie. Czy wiesz, że układ pasów każdej zebry jest unikalny, jak linie papilarne u człowieka?</desc>
</svg>