<?xml version="1.0" encoding="UTF-8" standalone="yes"?>
<svg version="1.0" xmlns="http://www.w3.org/2000/svg" width="1024.000000pt" height="1024.000000pt" viewBox="0 0 1024.000000 1024.000000" preserveAspectRatio="xMidYMid meet">
  <metadata>
Created by potrace 1.16, written by Peter Selinger 2001-2019
</metadata>
  <g transform="translate(0.000000,1024.000000) scale(0.100000,-0.100000)" fill="#000000" stroke="none">
    <path d="M9472 9704 c-43 -30 -17 -104 36 -104 23 0 62 32 62 51 0 15 -21 53&#xA;-34 61 -17 12 -40 9 -64 -8z"/>
    <path d="M1810 9600 c-11 -11 -20 -29 -20 -40 0 -25 34 -60 58 -60 28 0 62 29&#xA;62 53 0 59 -60 87 -100 47z"/>
    <path d="M5956 9599 c-67 -53 -3 -160 78 -129 40 15 60 53 47 91 -21 60 -76&#xA;77 -125 38z"/>
    <path d="M8158 9550 c-207 -33 -380 -136 -493 -295 l-45 -62 -132 -6 c-279&#xA;-13 -445 -57 -513 -139 -24 -28 -27 -39 -23 -84 6 -68 36 -108 136 -179 73&#xA;-52 321 -184 408 -217 34 -13 42 -21 48 -49 9 -50 62 -157 107 -217 57 -75&#xA;160 -157 264 -208 118 -58 185 -74 330 -81 102 -5 133 -3 205 16 153 38 305&#xA;127 379 219 l30 39 163 6 c326 11 525 76 584 189 68 131 -128 305 -482 428&#xA;l-90 31 -12 59 c-7 33 -34 101 -59 152 -38 77 -62 109 -138 184 -77 78 -105&#xA;98 -185 137 -52 26 -125 53 -161 62 -84 19 -247 27 -321 15z m347 -120 c191&#xA;-59 342 -205 410 -393 52 -145 53 -300 3 -446 l-22 -63 -131 6 c-378 20 -831&#xA;119 -1119 247 -52 22 -52 25 -35 128 33 204 155 380 326 469 129 67 202 83&#xA;363 78 103 -3 152 -9 205 -26z m-925 -324 c0 -1 -5 -17 -11 -33 -9 -29 -14&#xA;-31 -76 -37 -120 -12 -172 -52 -159 -120 15 -80 194 -183 490 -282 353 -117&#xA;686 -174 1021 -174 191 0 281 14 343 54 117 74 92 166 -68 246 -71 36 -77 41&#xA;-73 64 3 15 9 26 12 26 24 0 171 -58 259 -101 129 -64 232 -155 232 -206 0&#xA;-76 -132 -132 -400 -168 -25 -3 -124 -6 -220 -6 -434 1 -930 94 -1365 256&#xA;-210 78 -496 242 -541 310 -22 34 -11 71 29 96 41 25 144 57 222 68 59 8 305&#xA;14 305 7z m-45 -143 c-4 -10 -9 -42 -12 -70 -3 -29 -8 -53 -11 -53 -10 0 -100&#xA;61 -113 76 -17 20 0 36 54 51 66 18 90 16 82 -4z m1564 -269 c54 -32 101 -73&#xA;101 -90 0 -19 -80 -53 -148 -62 -56 -8 -62 -7 -56 7 4 9 16 51 27 94 11 42 22&#xA;77 25 77 3 0 26 -12 51 -26z m-1156 -269 c252 -66 564 -119 749 -127 l68 -3&#xA;-43 -43 c-53 -55 -198 -127 -292 -147 -162 -34 -327 -11 -485 67 -67 32 -102&#xA;59 -165 122 -71 71 -145 181 -145 214 0 5 41 -3 90 -19 50 -16 150 -45 223&#xA;-64z"/>
    <path d="M3680 9384 c-6 -14 -15 -68 -22 -119 -6 -52 -14 -98 -17 -104 -4 -5&#xA;-54 -20 -111 -33 -90 -20 -105 -26 -108 -44 -3 -19 7 -23 100 -44 57 -12 106&#xA;-25 110 -29 4 -3 13 -56 21 -118 16 -118 20 -133 42 -133 18 0 23 17 35 123&#xA;18 147 6 132 126 160 59 14 113 32 121 40 14 14 12 17 -14 31 -17 8 -61 18&#xA;-99 22 -112 11 -108 6 -122 128 -11 105 -23 146 -43 146 -5 0 -14 -12 -19 -26z"/>
    <path d="M1136 9328 c-8 -13 -30 -79 -49 -148 l-34 -125 -69 -12 c-38 -6 -92&#xA;-12 -119 -12 -58 -1 -95 -22 -95 -55 0 -25 41 -67 150 -151 41 -32 78 -61 82&#xA;-64 4 -3 -4 -60 -17 -126 -32 -156 -32 -192 -1 -206 32 -15 58 0 181 102 l99&#xA;83 132 -69 c188 -97 216 -84 158 75 -14 39 -38 100 -54 134 l-28 63 75 74 c41&#xA;41 86 93 100 117 24 41 25 44 8 62 -20 22 -85 25 -223 11 l-73 -7 -56 109&#xA;c-30 59 -66 121 -80 138 -30 35 -67 38 -87 7z m114 -186 l65 -127 45 0 c25 0&#xA;85 4 135 8 l89 7 -92 -94 c-70 -71 -91 -98 -86 -112 3 -11 27 -72 51 -137 25&#xA;-65 43 -120 40 -123 -3 -3 -22 5 -44 19 -21 13 -75 43 -121 67 -71 37 -84 41&#xA;-100 29 -9 -8 -57 -47 -105 -88 -48 -40 -90 -71 -92 -69 -2 2 7 62 20 133 13&#xA;71 22 133 19 137 -3 4 -53 42 -112 85 l-106 78 104 11 c58 6 115 14 127 18 25&#xA;8 31 25 66 183 12 57 24 103 27 103 3 0 34 -57 70 -128z"/>
    <path d="M5647 9319 c-31 -24 -35 -57 -9 -89 35 -43 112 -15 112 40 0 23 -29&#xA;57 -56 64 -13 4 -30 -1 -47 -15z"/>
    <path d="M2341 8634 c-35 -45 -26 -95 20 -120 55 -28 113 9 113 73 0 69 -90&#xA;101 -133 47z"/>
    <path d="M4715 8578 c-104 -12 -267 -55 -379 -99 -146 -58 -233 -110 -436&#xA;-259 -200 -148 -293 -180 -565 -195 -125 -7 -172 -19 -260 -63 -86 -44 -225&#xA;-179 -309 -299 -76 -109 -162 -185 -291 -258 -259 -146 -343 -269 -419 -612&#xA;-50 -228 -60 -246 -229 -387 -149 -123 -218 -200 -261 -288 -79 -163 -93 -322&#xA;-51 -573 44 -258 29 -375 -80 -625 -95 -219 -133 -380 -121 -521 11 -139 80&#xA;-333 157 -446 18 -26 80 -97 139 -158 161 -167 179 -208 205 -461 27 -269 72&#xA;-386 201 -523 88 -93 161 -144 364 -251 85 -44 170 -93 190 -108 66 -50 129&#xA;-122 216 -248 128 -187 241 -300 383 -383 147 -87 279 -119 546 -131 275 -13&#xA;345 -37 560 -190 156 -112 308 -179 497 -221 135 -30 419 -37 554 -15 187 32&#xA;271 64 468 176 224 128 395 184 656 215 219 26 317 44 388 71 146 55 270 157&#xA;394 324 98 133 181 199 408 325 176 97 278 173 401 295 104 103 121 125 162&#xA;210 38 77 52 121 72 230 39 206 92 322 241 531 87 124 121 193 151 308 21 86&#xA;24 114 22 266 -5 344 -5 347 40 487 82 257 79 291 -44 608 -46 116 -52 183&#xA;-35 337 25 218 -23 333 -245 588 -105 122 -145 190 -245 427 -96 229 -203 386&#xA;-322 474 -32 23 -144 86 -250 139 -286 145 -314 167 -481 382 -92 118 -213&#xA;239 -278 277 -110 64 -288 111 -529 141 -151 19 -280 53 -355 93 -27 15 -90&#xA;65 -140 112 -111 106 -166 144 -268 187 -238 100 -553 143 -822 111z m507&#xA;-117 c166 -38 306 -89 372 -133 20 -14 60 -47 89 -74 108 -102 154 -137 227&#xA;-174 97 -48 198 -74 395 -100 203 -26 296 -51 414 -107 75 -36 108 -59 171&#xA;-121 142 -142 296 -403 375 -637 20 -60 47 -128 60 -151 31 -53 101 -117 163&#xA;-148 60 -30 132 -49 132 -34 0 6 -58 67 -129 137 -136 133 -149 151 -208 305&#xA;-19 50 -48 115 -65 145 l-30 55 63 -57 c49 -45 110 -81 280 -168 178 -90 230&#xA;-121 284 -171 103 -94 186 -227 271 -435 104 -254 121 -283 248 -428 174 -198&#xA;234 -319 222 -449 -25 -291 -22 -313 71 -529 56 -128 57 -135 57 -222 1 -80&#xA;-4 -104 -41 -210 -52 -152 -67 -243 -59 -349 12 -143 8 -327 -8 -409 -21 -105&#xA;-55 -178 -142 -299 -138 -193 -214 -353 -241 -507 -23 -129 -58 -238 -100&#xA;-311 -81 -139 -272 -296 -559 -459 -190 -108 -258 -163 -361 -291 -121 -148&#xA;-164 -192 -243 -244 -125 -82 -226 -109 -535 -141 -103 -11 -286 -55 -395 -96&#xA;-58 -22 -170 -75 -251 -119 -252 -137 -365 -169 -619 -175 -337 -8 -524 47&#xA;-813 242 -230 155 -278 170 -577 183 -229 10 -315 26 -437 84 -172 82 -304&#xA;202 -433 396 -136 203 -193 254 -425 375 -180 93 -258 146 -341 229 -140 141&#xA;-162 206 -213 623 -17 133 -75 235 -217 379 -133 135 -201 248 -240 402 -29&#xA;113 -31 230 -8 335 9 40 52 160 95 267 43 107 86 227 95 265 25 105 23 272 -5&#xA;430 -50 279 -4 501 131 636 26 27 92 84 147 128 177 144 213 203 262 432 68&#xA;316 142 425 377 559 159 90 216 140 321 283 192 262 303 326 572 327 103 0&#xA;251 39 347 90 67 36 158 100 270 189 66 53 210 138 285 170 98 40 233 79 337&#xA;96 126 21 447 13 562 -14z"/>
    <path d="M4343 8080 c-31 -18 -60 -57 -50 -66 7 -7 117 65 117 76 0 16 -33 11&#xA;-67 -10z"/>
    <path d="M4683 8044 c-39 -20 -121 -106 -106 -111 33 -11 143 77 143 113 0 17&#xA;2 17 -37 -2z"/>
    <path d="M5183 8001 c-38 -24 -53 -49 -53 -89 0 -41 31 -75 92 -102 167 -73&#xA;361 43 247 146 -46 41 -92 57 -174 61 -67 4 -85 1 -112 -16z m189 -57 c25 -8&#xA;56 -26 69 -40 22 -23 22 -25 6 -42 -13 -12 -39 -18 -96 -20 -91 -5 -141 13&#xA;-160 56 -11 23 -10 29 9 44 28 23 109 24 172 2z"/>
    <path d="M3399 7626 c-143 -41 -337 -198 -393 -319 -31 -65 -37 -150 -14 -187&#xA;37 -60 140 -84 247 -56 206 53 431 272 431 421 0 117 -126 183 -271 141z m133&#xA;-76 c74 -21 86 -61 42 -148 -33 -66 -107 -148 -177 -196 -158 -109 -357 -116&#xA;-357 -12 0 108 178 284 351 346 62 22 89 24 141 10z"/>
    <path d="M6395 7582 c6 -5 28 -15 50 -22 157 -49 268 -160 345 -348 39 -94 50&#xA;-107 50 -61 0 95 -55 227 -131 312 -69 77 -152 119 -248 125 -51 3 -73 1 -66&#xA;-6z"/>
    <path d="M4648 7569 c-149 -20 -301 -87 -402 -179 -83 -76 -125 -177 -81 -194&#xA;8 -3 56 16 107 42 152 77 361 122 563 122 74 0 95 14 95 64 0 70 -80 138 -175&#xA;149 -22 3 -70 1 -107 -4z"/>
    <path d="M5820 7438 c-53 -27 -90 -78 -90 -124 0 -41 14 -49 96 -58 176 -19&#xA;380 -92 495 -175 73 -53 87 -59 107 -39 21 21 13 62 -25 127 -124 208 -426&#xA;348 -583 269z"/>
    <path d="M4475 6995 c-197 -43 -362 -178 -463 -380 -58 -117 -74 -180 -79&#xA;-320 -6 -164 10 -246 73 -375 39 -78 61 -109 128 -175 132 -131 269 -191 456&#xA;-201 205 -11 362 48 504 190 45 44 91 94 102 110 l20 29 44 -73 c66 -112 158&#xA;-198 271 -254 196 -97 380 -100 568 -9 59 28 94 55 161 122 97 99 140 166 181&#xA;283 38 111 52 213 46 328 -15 287 -205 539 -469 622 -85 27 -246 31 -338 9&#xA;-142 -34 -307 -147 -380 -262 l-33 -51 -36 68 c-43 83 -168 217 -245 263 -106&#xA;64 -177 83 -316 87 -86 3 -147 -1 -195 -11z m367 -87 c92 -34 156 -78 230&#xA;-156 72 -76 137 -193 164 -292 36 -135 16 -351 -44 -482 -64 -139 -167 -243&#xA;-307 -308 -94 -44 -161 -60 -253 -60 -277 1 -530 188 -615 455 -18 59 -22 92&#xA;-21 205 0 122 3 142 28 210 42 113 91 194 163 271 131 139 267 191 478 185 86&#xA;-3 125 -9 177 -28z m1174 -92 c228 -83 387 -295 410 -547 8 -90 -15 -232 -51&#xA;-321 -72 -177 -219 -323 -383 -380 -54 -18 -87 -23 -172 -22 -94 0 -114 4&#xA;-187 33 -148 58 -261 162 -332 303 l-39 76 24 94 c32 121 41 253 24 367 l-13&#xA;89 38 62 c89 147 235 243 409 271 77 12 202 0 272 -25z"/>
    <path d="M4669 6387 c-76 -50 -110 -198 -63 -277 33 -57 80 -83 139 -77 43 4&#xA;54 10 87 46 88 100 67 282 -37 321 -43 16 -90 12 -126 -13z"/>
    <path d="M5496 6297 c-46 -47 -66 -100 -66 -172 0 -93 53 -154 140 -163 42 -4&#xA;51 -1 84 28 54 48 79 103 80 175 1 111 -54 175 -149 175 -44 0 -52 -4 -89 -43z"/>
    <path d="M2516 6830 c-70 -66 -116 -156 -116 -226 0 -29 4 -55 8 -58 5 -3 19&#xA;21 32 52 13 31 50 108 83 170 32 61 56 112 52 112 -3 0 -30 -22 -59 -50z"/>
    <path d="M6900 6752 c0 -4 18 -26 41 -47 78 -77 138 -201 140 -289 0 -23 4&#xA;-50 8 -61 7 -17 10 -14 21 20 40 121 -16 280 -125 355 -41 28 -85 40 -85 22z"/>
    <path d="M3525 6693 c-11 -3 -32 -14 -48 -25 -98 -70 -60 -207 55 -199 53 3&#xA;119 107 104 165 -10 39 -67 69 -111 59z m49 -59 c19 -18 20 -38 4 -67 -15 -29&#xA;-38 -46 -63 -47 -53 0 -62 64 -14 104 35 30 51 32 73 10z"/>
    <path d="M2724 6576 c-134 -43 -296 -238 -366 -441 -66 -191 -21 -325 110&#xA;-325 114 0 253 125 357 323 99 187 114 362 37 430 -27 24 -87 30 -138 13z m94&#xA;-75 c21 -13 30 -72 21 -137 -18 -130 -111 -296 -224 -402 -94 -88 -167 -105&#xA;-209 -49 -57 77 10 291 140 446 93 113 217 177 272 142z"/>
    <path d="M7808 6549 c-29 -28 -30 -34 -25 -83 7 -65 35 -124 90 -183 71 -77&#xA;128 -93 174 -47 23 23 25 31 21 88 -6 72 -35 135 -87 189 -70 75 -124 86 -173&#xA;36z m103 -48 c46 -38 90 -120 92 -173 2 -40 0 -43 -25 -46 -61 -7 -138 103&#xA;-138 196 0 63 16 68 71 23z"/>
    <path d="M2045 5960 c-138 -110 -187 -360 -90 -457 47 -47 56 -41 34 22 -41&#xA;116 -16 263 67 397 20 33 34 61 32 64 -3 2 -22 -9 -43 -26z"/>
    <path d="M7809 5877 c-19 -12 -45 -44 -59 -72 -22 -44 -25 -63 -24 -150 1&#xA;-127 26 -222 99 -372 88 -181 208 -293 314 -293 74 0 124 39 162 125 74 166&#xA;-44 540 -219 696 -97 86 -204 112 -273 66z m139 -57 c24 -11 74 -50 112 -88&#xA;113 -113 200 -325 200 -489 0 -86 -15 -129 -59 -166 -37 -30 -57 -33 -104 -13&#xA;-67 27 -92 66 -120 181 -32 130 -67 208 -135 298 -50 66 -52 70 -52 133 0 68&#xA;19 131 47 152 24 17 61 15 111 -8z"/>
    <path d="M3134 5777 c-121 -75 -154 -115 -90 -104 45 7 111 52 136 92 34 55&#xA;27 57 -46 12z"/>
    <path d="M3580 5759 c0 -26 44 -79 132 -161 182 -170 352 -286 583 -399 588&#xA;-286 1269 -336 1719 -125 102 47 216 136 216 166 0 28 -10 25 -79 -21 -127&#xA;-85 -311 -147 -531 -181 -223 -33 -539 -17 -786 42 -425 100 -795 300 -1154&#xA;623 -72 64 -100 80 -100 56z"/>
    <path d="M6766 5631 c-4 -6 11 -47 33 -91 51 -102 65 -171 58 -287 -5 -87 -4&#xA;-92 13 -83 36 19 53 76 48 171 -4 75 -9 97 -40 161 -38 76 -101 148 -112 129z"/>
    <path d="M2931 5558 c-17 -29 -34 -68 -37 -86 -9 -47 1 -121 19 -139 14 -14&#xA;16 -9 21 43 4 33 13 97 21 143 8 47 13 87 10 89 -2 2 -17 -20 -34 -50z"/>
    <path d="M7320 5517 c0 -5 40 -85 89 -180 104 -202 127 -280 118 -411 -10&#xA;-165 -85 -321 -223 -466 -167 -175 -196 -235 -195 -400 1 -181 -39 -259 -165&#xA;-321 -92 -46 -174 -50 -327 -15 -135 30 -192 32 -268 10 -141 -42 -243 -130&#xA;-325 -279 -121 -222 -309 -329 -574 -328 -143 0 -240 20 -346 72 -81 41 -108&#xA;64 -231 208 -90 105 -227 157 -352 134 -86 -16 -133 -42 -178 -98 -78 -98&#xA;-119 -131 -189 -152 -157 -49 -331 -6 -438 109 -24 25 -64 83 -90 127 -63 109&#xA;-112 162 -220 238 -50 35 -109 81 -130 102 -49 48 -86 126 -93 200 -8 73 -21&#xA;45 -22 -46 -2 -131 43 -201 194 -303 122 -82 176 -139 237 -249 100 -180 232&#xA;-261 423 -261 156 0 260 48 345 161 69 92 109 115 205 115 131 1 218 -49 311&#xA;-180 120 -168 261 -233 525 -241 126 -4 158 -2 230 16 193 48 328 151 436 332&#xA;78 133 127 188 200 226 114 60 190 65 368 22 69 -16 109 -20 170 -16 118 7&#xA;187 37 260 111 77 78 96 129 105 287 9 153 33 205 160 344 161 176 226 296&#xA;255 465 32 180 -16 361 -140 535 -43 59 -125 146 -125 132z"/>
    <path d="M6676 5220 c-27 -58 -35 -125 -14 -118 38 13 72 115 50 154 -9 17&#xA;-14 12 -36 -36z"/>
    <path d="M2241 5195 c-77 -36 -161 -126 -210 -227 -53 -108 -71 -180 -78 -309&#xA;-13 -238 77 -433 239 -519 53 -28 73 -34 128 -34 219 0 390 261 390 595 0 243&#xA;-91 437 -236 499 -67 29 -164 27 -233 -5z m218 -81 c67 -36 124 -115 157 -218&#xA;23 -69 27 -99 27 -196 0 -193 -50 -336 -153 -441 -61 -61 -121 -86 -189 -76&#xA;-118 15 -225 129 -266 283 -21 77 -21 239 -1 326 38 164 151 313 264 348 43&#xA;14 108 3 161 -26z"/>
    <path d="M2379 4816 c-45 -102 -43 -240 4 -316 l22 -35 5 190 c3 105 2 194 -2&#xA;199 -4 5 -17 -12 -29 -38z"/>
    <path d="M3626 4770 c-83 -25 -146 -106 -146 -189 0 -128 145 -209 268 -150&#xA;80 39 124 128 102 208 -26 99 -129 159 -224 131z m122 -78 c47 -30 65 -101 39&#xA;-152 -31 -62 -134 -90 -197 -54 -66 39 -84 133 -35 184 46 48 137 59 193 22z"/>
    <path d="M8402 4741 c-15 -42 -15 -111 -1 -148 9 -25 11 -26 20 -10 19 32 22&#xA;120 7 157 l-14 35 -12 -34z"/>
    <path d="M7800 4611 c0 -54 -43 -231 -71 -290 -22 -49 -50 -84 -113 -145 -77&#xA;-74 -126 -136 -126 -160 0 -6 15 4 33 21 17 17 59 46 92 64 109 61 168 141&#xA;202 272 17 68 13 231 -6 250 -8 8 -11 4 -11 -12z"/>
    <path d="M6446 4575 c-115 -41 -204 -180 -181 -284 15 -68 86 -121 163 -121&#xA;51 0 152 51 191 96 70 79 96 184 61 248 -35 66 -143 94 -234 61z m156 -71 c11&#xA;-11 24 -30 29 -42 33 -85 -104 -232 -215 -232 -29 0 -45 7 -68 30 -28 29 -30&#xA;35 -26 86 6 69 43 118 119 157 62 33 125 33 161 1z"/>
    <path d="M1635 4430 c-18 -72 -7 -149 33 -232 22 -45 72 -101 72 -80 0 23 -71&#xA;286 -85 311 l-13 26 -7 -25z"/>
    <path d="M3843 4270 c-38 -23 -55 -51 -56 -96 -3 -119 156 -158 207 -50 31 66&#xA;15 129 -39 151 -46 20 -74 19 -112 -5z m95 -46 c25 -17 29 -60 8 -89 -33 -45&#xA;-126 -5 -112 48 13 54 60 72 104 41z"/>
    <path d="M5328 4194 c-33 -18 -53 -50 -37 -60 6 -3 26 9 45 27 49 47 45 63 -8&#xA;33z"/>
    <path d="M8072 4129 c-134 -67 -280 -278 -332 -483 -23 -89 -25 -138 -9 -199&#xA;19 -74 59 -107 131 -107 65 1 123 33 202 113 163 162 265 433 221 583 -30 104&#xA;-116 141 -213 93z m122 -71 c24 -39 28 -99 11 -183 -48 -234 -221 -465 -347&#xA;-465 -35 0 -40 3 -54 37 -22 52 -12 100 38 181 58 94 94 177 109 251 16 75 57&#xA;128 133 171 61 36 91 38 110 8z"/>
    <path d="M5530 4123 c-23 -8 -80 -65 -96 -95 -14 -26 -13 -28 7 -28 26 0 119&#xA;89 119 114 0 17 -5 18 -30 9z"/>
    <path d="M2119 3788 c-25 -95 16 -253 76 -292 14 -9 25 -13 25 -9 0 5 -13 51&#xA;-29 103 -16 52 -34 128 -41 168 -6 39 -13 72 -16 72 -2 0 -8 -19 -15 -42z"/>
    <path d="M2441 3734 c-116 -98 -9 -384 144 -384 82 0 133 73 122 171 -12 97&#xA;-70 188 -142 220 -55 25 -88 24 -124 -7z m97 -48 c57 -30 100 -98 109 -175 10&#xA;-88 -35 -117 -108 -68 -77 52 -119 205 -67 241 27 20 32 20 66 2z"/>
    <path d="M7113 3345 c-121 -60 -223 -199 -223 -303 0 -57 12 -78 62 -103 82&#xA;-42 203 -4 292 91 119 127 139 288 41 334 -51 24 -95 19 -172 -19z m157 -55&#xA;c77 -77 -104 -310 -241 -310 -83 0 -104 70 -50 166 36 62 88 109 155 140 63&#xA;29 109 31 136 4z"/>
    <path d="M3107 3296 c-59 -22 -105 -63 -134 -119 -49 -97 -31 -235 50 -392 54&#xA;-104 190 -244 291 -300 78 -43 180 -75 241 -75 102 0 204 56 252 137 25 42 28&#xA;58 28 133 0 75 -4 93 -33 154 -83 175 -255 346 -434 431 -90 43 -196 55 -261&#xA;31z m148 -70 c231 -61 505 -361 505 -552 0 -59 -19 -103 -63 -141 -52 -45&#xA;-106 -58 -186 -45 -196 33 -409 231 -476 443 -40 128 -31 202 32 262 49 46&#xA;104 56 188 33z"/>
    <path d="M3255 3017 c-32 -125 110 -294 262 -313 54 -7 55 -9 -39 65 -90 70&#xA;-152 141 -187 214 -28 59 -30 60 -36 34z"/>
    <path d="M6470 3128 c-62 -48 -293 -168 -325 -168 -8 0 -15 -4 -15 -10 0 -26&#xA;137 -1 226 41 63 30 139 100 168 157 9 18 15 32 14 32 -2 0 -32 -23 -68 -52z"/>
    <path d="M2392 3018 c37 -69 267 -283 284 -265 9 8 -45 87 -99 144 -49 52&#xA;-186 163 -201 163 -4 0 3 -19 16 -42z"/>
    <path d="M7680 2801 c-20 -16 -86 -61 -149 -100 -141 -89 -210 -141 -187 -141&#xA;31 0 174 61 232 99 58 38 106 83 137 131 33 48 18 53 -33 11z"/>
    <path d="M4695 2725 c-103 -26 -179 -83 -209 -157 -21 -48 -20 -84 3 -133 86&#xA;-189 462 -248 653 -102 92 70 114 186 51 265 -35 44 -119 97 -188 118 -73 23&#xA;-237 27 -310 9z m267 -73 c70 -20 159 -71 183 -105 21 -30 18 -86 -5 -125 -14&#xA;-23 -41 -43 -88 -65 -126 -59 -306 -47 -419 28 -60 40 -82 68 -89 116 -20 122&#xA;216 207 418 151z"/>
    <path d="M6485 2560 c-260 -56 -525 -214 -600 -360 -25 -49 -31 -130 -11 -168&#xA;36 -70 111 -102 241 -102 215 0 467 115 621 284 76 81 104 138 104 204 0 43&#xA;-5 57 -30 86 -61 69 -173 89 -325 56z m209 -61 c48 -13 86 -50 86 -84 0 -91&#xA;-159 -251 -336 -339 -141 -69 -317 -102 -411 -77 -123 34 -138 123 -38 230 42&#xA;45 50 49 105 55 117 13 225 65 320 152 70 64 180 89 274 63z"/>
    <path d="M3325 2151 c42 -81 227 -171 351 -171 86 0 67 17 -93 80 -87 34 -181&#xA;76 -209 91 -63 36 -68 36 -49 0z"/>
    <path d="M4080 2064 c0 -21 44 -73 77 -91 83 -47 188 -47 273 -3 l35 19 -82 1&#xA;c-103 0 -172 15 -245 51 -32 16 -58 26 -58 23z"/>
    <path d="M4985 1914 c-122 -45 -128 -160 -9 -193 134 -37 310 22 329 110 9 39&#xA;-12 63 -73 83 -57 20 -193 20 -247 0z m238 -63 c33 -13 34 -26 5 -45 -60 -37&#xA;-187 -43 -263 -12 -124 52 127 107 258 57z"/>
    <path d="M9095 7438 c-3 -7 -14 -57 -24 -111 -11 -54 -21 -100 -23 -103 -3 -2&#xA;-41 -10 -86 -18 -90 -16 -102 -21 -102 -41 0 -15 61 -36 150 -52 l45 -9 11&#xA;-101 c10 -93 23 -133 44 -133 12 0 28 49 44 139 9 47 19 88 23 92 5 3 42 14&#xA;84 23 42 9 85 23 95 31 18 13 17 14 -11 25 -16 6 -60 17 -98 24 -37 7 -69 15&#xA;-71 17 -3 2 -13 54 -23 114 -14 88 -21 110 -36 113 -9 2 -19 -2 -22 -10z"/>
    <path d="M1660 7433 c-56 -20 -68 -87 -23 -123 45 -35 113 -2 113 55 0 42 -52&#xA;82 -90 68z"/>
    <path d="M1072 6908 c-18 -18 -15 -52 6 -71 25 -22 45 -21 67 3 27 30 10 74&#xA;-30 78 -17 2 -36 -3 -43 -10z"/>
    <path d="M726 6569 c-52 -41 -24 -129 42 -131 71 -2 107 78 57 127 -30 30 -64&#xA;32 -99 4z"/>
    <path d="M9326 6099 c-34 -27 -35 -71 -1 -104 31 -32 69 -32 102 1 20 20 24&#xA;31 19 57 -12 62 -70 85 -120 46z"/>
    <path d="M9626 5619 c-31 -25 -34 -61 -6 -89 39 -39 110 -11 110 45 0 27 -35&#xA;65 -61 65 -9 0 -28 -9 -43 -21z"/>
    <path d="M792 4788 c-16 -16 -16 -70 0 -86 7 -7 27 -12 45 -12 34 0 53 21 53&#xA;58 0 41 -69 69 -98 40z"/>
    <path d="M9332 3968 c-7 -7 -12 -24 -12 -38 0 -31 17 -50 45 -50 28 0 45 19&#xA;45 50 0 31 -17 50 -45 50 -12 0 -26 -5 -33 -12z"/>
    <path d="M721 3847 c-6 -8 -19 -55 -30 -106 -10 -51 -23 -96 -27 -100 -5 -4&#xA;-45 -15 -88 -24 -128 -27 -127 -44 2 -83 48 -14 92 -32 98 -40 7 -8 15 -45 19&#xA;-82 10 -103 22 -142 45 -142 23 0 28 15 43 142 l12 92 82 22 c94 26 103 30&#xA;103 50 0 18 -14 24 -114 44 l-81 16 -7 89 c-10 120 -27 157 -57 122z"/>
    <path d="M9198 3153 c-19 -5 -38 -42 -88 -173 l-36 -95 -128 -1 c-100 -1 -131&#xA;-5 -143 -17 -28 -28 -7 -67 83 -153 l85 -81 -36 -108 c-24 -71 -35 -122 -33&#xA;-149 5 -64 34 -61 163 19 59 36 113 64 119 62 7 -3 45 -31 86 -64 106 -84 126&#xA;-96 150 -88 17 5 20 15 20 58 0 29 -11 98 -24 155 l-23 104 74 49 c97 66 143&#xA;107 143 129 0 35 -34 47 -176 60 -46 4 -87 10 -91 13 -3 3 -21 57 -39 119 -42&#xA;140 -63 172 -106 161z m52 -203 c18 -63 38 -120 44 -127 6 -7 58 -17 115 -23&#xA;58 -5 105 -11 107 -13 1 -1 -42 -31 -95 -68 -69 -47 -96 -70 -95 -85 2 -20 41&#xA;-206 50 -238 4 -11 -26 9 -72 49 -128 108 -119 107 -230 36 -53 -34 -97 -61&#xA;-99 -61 -2 0 14 52 35 116 l40 117 -57 51 c-31 28 -72 65 -91 81 l-33 30 103&#xA;-2 c108 -2 158 4 158 18 0 11 82 240 85 237 1 -2 17 -55 35 -118z"/>
    <path d="M1065 2565 c-40 -39 -32 -96 16 -120 40 -21 57 -19 90 14 37 37 37&#xA;65 0 102 -36 36 -73 37 -106 4z"/>
    <path d="M1386 2008 c-29 -27 -64 -134 -92 -279 l-18 -95 -97 -17 c-54 -9&#xA;-128 -27 -166 -39 -56 -19 -70 -28 -78 -51 -16 -46 9 -73 147 -156 70 -42 130&#xA;-80 133 -83 3 -3 -1 -51 -10 -106 -24 -159 -24 -245 -1 -271 40 -44 87 -19&#xA;237 126 l89 85 142 -68 c153 -73 199 -83 225 -48 23 30 10 96 -45 245 l-50&#xA;132 95 106 c52 58 102 120 110 137 21 42 10 82 -25 95 -26 11 -181 7 -297 -7&#xA;l-50 -6 -49 99 c-63 127 -110 197 -141 211 -33 15 -30 16 -59 -10z m97 -145&#xA;c30 -54 69 -127 87 -161 31 -61 34 -63 64 -58 17 2 69 8 116 11 47 3 111 7&#xA;143 10 32 2 57 0 57 -6 0 -5 -50 -66 -111 -135 l-110 -125 60 -176 c34 -97 60&#xA;-178 58 -179 -1 -1 -40 16 -87 39 -125 62 -224 107 -236 107 -5 0 -68 -52&#xA;-139 -114 -71 -63 -131 -114 -132 -112 -2 2 6 81 17 177 l20 174 -27 22 c-26&#xA;21 -242 147 -267 156 -6 2 -8 7 -5 11 6 6 148 39 281 66 l57 11 11 57 c16 80&#xA;71 305 77 315 2 4 6 7 8 7 2 0 28 -44 58 -97z"/>
    <path d="M7965 1468 c-3 -7 -14 -62 -24 -122 -11 -59 -22 -110 -25 -113 -3 -3&#xA;-38 -11 -78 -19 -114 -21 -118 -23 -118 -44 0 -21 21 -29 140 -52 l65 -13 20&#xA;-115 c16 -92 24 -115 37 -118 24 -5 34 24 50 140 l13 93 104 22 c57 13 106 25&#xA;109 27 2 3 2 12 -1 20 -5 12 -46 25 -174 51 -31 6 -32 8 -53 103 -11 53 -24&#xA;108 -28 121 -8 28 -30 39 -37 19z"/>
    <path d="M9355 1346 c-22 -33 -16 -65 16 -88 20 -15 30 -17 52 -9 66 25 55&#xA;113 -15 119 -30 3 -40 -1 -53 -22z"/>
    <path d="M6626 1039 c-51 -40 -21 -129 43 -129 71 0 106 76 56 125 -30 30 -64&#xA;32 -99 4z"/>
    <path d="M2870 943 c-88 -33 -77 -150 16 -169 46 -9 94 35 94 85 0 56 -61 103&#xA;-110 84z"/>
    <path d="M9042 880 c-32 -30 -30 -82 4 -109 15 -12 35 -21 46 -21 27 0 68 45&#xA;68 75 0 32 -41 75 -73 75 -13 0 -33 -9 -45 -20z"/>
    <path d="M5887 744 c-53 -29 -61 -91 -18 -135 39 -38 88 -40 125 -3 71 72 -19&#xA;188 -107 138z"/>
  </g>
  <title>Asteroida w przestrzeni kosmicznej</title>
  <desc>Duża, skalista asteroida dryfuje w przestrzeni kosmicznej. Asteroidy to małe ciała niebieskie krążące wokół Słońca. Pokoloruj ją na odcienie szarości i brązu.</desc>
</svg>