<?xml version="1.0" encoding="UTF-8" standalone="yes"?>
<svg version="1.0" xmlns="http://www.w3.org/2000/svg" width="1024.000000pt" height="1024.000000pt" viewBox="0 0 1024.000000 1024.000000" preserveAspectRatio="xMidYMid meet">
  <metadata>
Created by potrace 1.16, written by Peter Selinger 2001-2019
</metadata>
  <g transform="translate(0.000000,1024.000000) scale(0.100000,-0.100000)" fill="#000000" stroke="none">
    <path d="M8197 9530 c-230 -41 -466 -183 -605 -363 -61 -81 -134 -228 -163&#xA;-328 -19 -70 -23 -108 -23 -234 -1 -180 19 -276 89 -423 57 -120 114 -200 203&#xA;-284 164 -154 328 -232 547 -258 289 -35 594 74 792 284 122 128 192 257 238&#xA;441 127 499 -176 1011 -681 1151 -68 19 -321 28 -397 14z m403 -71 c109 -29&#xA;253 -106 334 -177 20 -17 36 -34 36 -37 0 -3 -15 -5 -32 -5 -53 0 -193 -27&#xA;-287 -56 -104 -31 -264 -106 -424 -198 -240 -138 -355 -176 -544 -178 -65 -1&#xA;-137 2 -160 6 -40 7 -43 9 -36 34 13 53 62 161 98 218 57 89 102 141 183 210&#xA;221 189 546 260 832 183z m443 -288 c66 -73 162 -259 180 -348 l7 -33 -50 -1&#xA;c-28 -1 -53 -2 -57 -3 -5 -1 -30 -5 -58 -9 -82 -13 -233 -54 -338 -92 -112&#xA;-40 -130 -48 -346 -152 -277 -133 -383 -159 -609 -150 -134 5 -282 33 -307 58&#xA;-13 13 -16 250 -4 305 l10 41 42 -8 c23 -4 95 -8 160 -9 92 0 139 5 216 24&#xA;120 30 185 59 367 163 222 128 385 195 552 228 181 34 192 34 235 -14z m200&#xA;-439 c3 -15 5 -90 4 -167 -2 -127 -6 -150 -36 -245 l-33 -105 -131 -2 c-136&#xA;-2 -371 -31 -477 -58 -221 -57 -409 -156 -576 -301 l-72 -63 -68 45 c-124 81&#xA;-235 206 -302 339 -23 47 -82 205 -82 221 0 1 24 -5 53 -15 129 -44 385 -52&#xA;537 -16 96 23 133 38 380 153 300 140 403 176 615 216 168 32 181 32 188 -2z&#xA;m-94 -574 c-27 -51 -92 -140 -140 -193 -202 -218 -530 -325 -819 -268 -76 16&#xA;-208 58 -224 73 -9 9 116 112 217 178 178 115 401 187 655 212 59 5 123 12&#xA;142 13 19 2 68 5 108 5 72 2 73 2 61 -20z"/>
    <path d="M4315 9289 c-222 -33 -371 -74 -560 -155 -546 -233 -955 -691 -1083&#xA;-1215 -31 -122 -37 -178 -37 -317 0 -107 -2 -123 -17 -128 -32 -10 -87 -86&#xA;-104 -143 -64 -216 -9 -544 121 -714 21 -27 54 -55 87 -71 54 -27 108 -34 108&#xA;-14 0 22 38 -24 84 -102 56 -94 170 -227 254 -295 l61 -50 -37 -11 c-59 -17&#xA;-95 -40 -141 -86 -85 -88 -117 -199 -107 -378 l6 -115 -45 -49 -46 -49 -74 22&#xA;c-113 34 -238 51 -372 51 -212 0 -371 -34 -540 -115 -427 -204 -648 -574 -605&#xA;-1012 26 -263 111 -463 315 -746 265 -365 324 -491 334 -713 12 -259 -87 -484&#xA;-281 -640 -88 -71 -146 -100 -246 -123 -146 -35 -237 -20 -495 81 -215 85&#xA;-363 114 -529 105 -127 -7 -202 -25 -299 -69 -60 -28 -67 -34 -67 -59 l0 -28&#xA;68 34 c99 52 204 75 337 76 163 0 296 -30 505 -116 175 -71 206 -79 350 -79&#xA;161 -1 225 16 338 92 88 59 124 91 191 172 141 170 211 451 166 669 -36 179&#xA;-105 311 -298 579 -177 246 -239 357 -291 522 -121 381 -46 730 213 989 146&#xA;147 307 239 521 299 89 24 109 26 305 26 185 1 221 -2 300 -22 50 -12 96 -26&#xA;103 -31 11 -6 -1 -29 -48 -97 -34 -49 -67 -88 -73 -88 -7 1 -48 9 -92 19 -111&#xA;24 -297 25 -397 2 -227 -53 -438 -187 -548 -347 -98 -144 -135 -274 -127 -445&#xA;12 -236 103 -436 367 -805 92 -128 193 -312 226 -410 52 -161 68 -364 39 -527&#xA;-57 -333 -269 -614 -559 -743 -217 -96 -437 -94 -701 7 -397 152 -566 163&#xA;-775 52 -87 -47 -122 -80 -118 -112 l3 -27 45 36 c72 58 176 105 265 120 140&#xA;25 263 2 513 -95 199 -77 281 -95 442 -95 148 -1 209 12 335 66 150 65 317&#xA;202 414 338 76 107 156 290 177 404 28 153 30 267 9 401 -36 226 -144 449&#xA;-341 706 -88 114 -207 328 -246 439 -49 141 -62 320 -33 435 64 248 268 446&#xA;555 541 79 26 97 28 250 28 131 1 177 -3 222 -17 l57 -17 -54 -113 c-90 -187&#xA;-153 -401 -185 -634 -10 -75 -18 -101 -67 -218 -55 -130 -68 -204 -68 -380 0&#xA;-151 2 -163 26 -215 40 -84 113 -140 185 -140 15 0 42 -14 67 -35 62 -53 149&#xA;-60 209 -15 l28 21 37 -28 c66 -50 154 -34 196 37 22 37 37 132 37 235 0 150&#xA;17 228 34 159 8 -32 80 -110 120 -131 37 -19 106 -19 146 2 48 25 64 58 62&#xA;128 -2 70 -46 172 -126 297 -25 39 -43 70 -40 70 3 0 26 -22 51 -50 30 -33 69&#xA;-62 120 -87 70 -35 84 -38 179 -41 l102 -4 27 -82 c38 -117 100 -220 177 -298&#xA;61 -61 69 -75 103 -170 77 -216 92 -349 56 -490 -42 -163 -125 -273 -290 -382&#xA;-54 -35 -112 -81 -131 -102 -48 -55 -89 -151 -106 -245 -31 -177 28 -478 141&#xA;-724 173 -379 503 -533 825 -386 84 38 187 137 231 222 76 149 76 409 0 589&#xA;l-28 67 53 27 c168 88 371 388 441 651 23 91 26 117 26 285 0 189 0 190 -49&#xA;358 -6 20 -3 22 39 22 104 0 372 67 470 117 26 13 32 12 85 -18 284 -159 470&#xA;-376 582 -679 28 -77 72 -238 84 -315 45 -269 93 -435 158 -545 117 -195 293&#xA;-183 763 52 151 76 226 125 341 220 137 115 239 244 264 332 19 69 8 191 -24&#xA;261 -48 106 -165 193 -316 234 -57 16 -104 21 -197 21 -118 0 -123 1 -123 21&#xA;0 45 -41 220 -80 337 -106 323 -295 572 -573 756 -107 71 -286 166 -312 166&#xA;-8 0 -11 34 -11 113 1 61 -3 157 -7 212 -7 95 -64 462 -74 478 -2 4 31 7 75 7&#xA;149 0 390 44 529 96 206 78 416 214 573 373 140 141 227 266 309 449 33 73 75&#xA;151 94 174 34 43 68 103 81 145 4 11 50 63 102 115 191 186 244 316 162 395&#xA;-24 23 -38 28 -76 28 -50 0 -136 -38 -181 -78 -27 -25 -28 -28 25 93 44 100&#xA;53 163 30 208 -20 39 -46 53 -101 55 -56 2 -130 -48 -202 -135 -29 -35 -61&#xA;-74 -72 -88 l-21 -25 8 45 c4 25 7 83 7 128 0 82 0 84 -34 114 -30 27 -39 30&#xA;-80 25 -77 -9 -136 -91 -184 -258 l-24 -80 -12 43 c-49 164 -151 237 -248 178&#xA;-71 -43 -80 -119 -39 -340 l23 -124 -41 -56 c-23 -31 -59 -87 -81 -124 -126&#xA;-216 -330 -336 -547 -322 -47 3 -110 14 -138 23 -48 17 -54 22 -71 67 -10 27&#xA;-30 62 -45 78 l-28 28 32 42 c98 131 171 275 226 444 29 88 71 286 82 381 6&#xA;55 10 66 39 88 47 35 72 81 97 176 30 116 30 308 -1 425 -54 209 -153 366&#xA;-239 380 -36 6 -40 10 -86 102 -231 457 -633 779 -1111 890 -231 54 -554 67&#xA;-790 31z m550 -39 c28 -5 69 -11 92 -14 75 -9 253 -57 347 -92 470 -178 872&#xA;-637 1000 -1140 46 -182 60 -310 60 -554 0 -232 -7 -296 -55 -503 -69 -302&#xA;-234 -574 -448 -736 -349 -265 -786 -400 -1386 -427 -293 -13 -568 26 -810&#xA;114 -224 81 -459 244 -608 421 -60 71 -127 167 -127 181 0 4 17 12 38 18 110&#xA;33 184 136 209 292 12 72 6 239 -11 312 -40 174 -137 350 -224 411 -42 29 -54&#xA;32 -118 32 -62 0 -75 -3 -107 -28 l-37 -28 0 96 c0 298 125 632 342 913 312&#xA;404 836 679 1393 732 110 10 389 10 450 0z m1484 -1069 c40 -42 95 -152 126&#xA;-251 22 -70 28 -110 32 -225 4 -122 2 -151 -17 -225 -12 -47 -31 -101 -43&#xA;-120 l-22 -35 -2 100 c-6 304 -57 606 -127 768 -13 29 23 21 53 -12z m-3461&#xA;-680 c209 -107 324 -594 194 -824 -43 -76 -134 -132 -195 -119 -17 3 -16 6 7&#xA;31 93 97 103 378 20 596 -35 95 -92 185 -150 242 l-54 51 43 21 c52 26 87 27&#xA;135 2z m-167 -95 c63 -43 146 -190 186 -331 8 -27 16 -106 18 -175 3 -110 1&#xA;-133 -19 -195 -60 -177 -189 -166 -286 25 -64 126 -90 253 -86 415 3 130 19&#xA;195 63 253 30 40 72 43 124 8z m4830 -246 c16 -9 19 -21 18 -88 0 -78 -15&#xA;-177 -40 -264 -7 -26 -9 -51 -5 -55 8 -8 14 -2 134 147 41 52 98 116 125 142&#xA;104 101 193 81 174 -39 -9 -51 -74 -182 -141 -283 -31 -46 -56 -88 -56 -92 0&#xA;-21 41 -4 87 35 115 98 229 167 277 167 26 0 66 -41 66 -69 0 -54 -131 -238&#xA;-219 -309 -28 -22 -55 -59 -81 -112 -69 -138 -132 -189 -245 -197 -87 -7 -168&#xA;11 -265 58 -66 33 -102 60 -171 128 -110 110 -152 189 -151 284 1 34 -10 118&#xA;-23 187 -30 158 -28 215 9 247 32 27 72 30 106 6 39 -26 46 -40 91 -163 50&#xA;-136 71 -171 118 -196 70 -37 108 -92 132 -186 11 -48 25 -61 35 -34 10 26&#xA;-16 130 -41 168 -22 33 -65 70 -119 103 -30 18 -36 80 -16 159 30 117 60 185&#xA;99 227 39 40 66 48 102 29z m-493 -710 c75 -155 260 -301 433 -344 76 -19 172&#xA;-21 218 -5 18 6 34 9 37 7 2 -3 -20 -55 -50 -116 -53 -107 -56 -111 -95 -122&#xA;-44 -11 -148 -14 -194 -5 -201 40 -393 212 -480 431 l-29 71 42 69 c23 38 49&#xA;80 58 94 l15 24 9 -24 c5 -14 22 -50 36 -80z m-178 -145 c0 -28 59 -146 104&#xA;-209 127 -178 311 -279 508 -280 54 -1 98 -2 98 -4 0 -2 -24 -35 -53 -75 -114&#xA;-153 -319 -321 -515 -422 -84 -43 -83 -43 -174 29 -173 138 -282 390 -291 670&#xA;l-3 86 85 41 c63 31 100 57 150 108 67 69 91 83 91 56z m-801 -69 c26 -52 26&#xA;-79 2 -133 -56 -123 -277 -270 -530 -352 -175 -58 -529 -119 -891 -156 -168&#xA;-17 -485 -19 -615 -5 -228 26 -477 93 -562 152 -56 38 -67 60 -58 117 3 25 7&#xA;56 7 69 0 27 2 27 41 -2 18 -12 52 -30 77 -38 25 -9 86 -31 135 -50 220 -85&#xA;492 -115 880 -99 102 4 382 37 435 51 19 5 51 12 70 15 122 21 357 99 500 166&#xA;130 62 304 176 395 262 77 72 81 72 114 3z m311 -150 l125 -1 7 -110 c7 -132&#xA;13 -164 45 -274 38 -135 95 -234 188 -327 44 -45 93 -90 109 -101 l29 -20 -74&#xA;-23 c-167 -51 -329 -80 -454 -80 l-101 0 -27 115 c-38 160 -119 408 -178 546&#xA;l-50 117 46 47 c46 48 85 111 85 139 0 11 11 10 63 -7 48 -16 89 -21 187 -21z&#xA;m-3058 -75 c31 -21 55 -41 52 -43 -2 -3 -7 -34 -10 -69 -3 -35 -6 -64 -7 -65&#xA;-1 -1 -50 -34 -109 -73 -58 -39 -142 -105 -186 -146 l-80 -75 -6 73 c-20 217&#xA;75 388 239 428 47 11 47 11 107 -30z m2691 -228 c113 -293 181 -545 238 -881&#xA;23 -137 23 -137 -41 -176 -31 -20 -155 -76 -166 -76 -2 0 -4 20 -4 45 0 100&#xA;-83 605 -117 709 -21 65 -74 123 -120 132 -20 4 -93 1 -162 -5 -140 -13 -144&#xA;-13 -321 -41 -69 -11 -138 -21 -155 -24 -16 -2 -120 -18 -230 -35 -412 -64&#xA;-510 -88 -554 -135 -21 -22 -23 -31 -17 -98 4 -40 24 -173 46 -295 22 -122 42&#xA;-244 45 -270 3 -26 10 -70 15 -98 5 -27 11 -75 12 -105 l3 -55 -55 -8 c-89&#xA;-14 -445 -13 -545 1 -101 15 -215 41 -216 51 0 3 -2 15 -5 26 -2 11 -6 61 -10&#xA;110 l-6 90 55 12 c122 25 233 106 289 209 49 91 70 185 74 339 3 123 0 151&#xA;-21 235 -14 52 -25 97 -25 99 0 2 29 1 64 -3 131 -13 420 -7 601 13 159 18&#xA;544 71 616 86 77 15 272 70 329 92 90 35 234 108 284 143 22 16 44 29 47 30 3&#xA;0 27 -53 52 -117z m-2615 -41 c20 -22 69 -58 109 -80 39 -23 85 -56 102 -73&#xA;39 -39 104 -171 129 -264 34 -124 24 -305 -22 -393 -17 -33 -96 -112 -112&#xA;-112 -6 0 -23 -9 -36 -20 l-26 -20 -12 48 c-7 26 -33 89 -58 141 -104 216&#xA;-320 361 -538 361 l-75 0 23 33 c53 75 267 275 368 344 58 40 106 72 108 73 1&#xA;0 19 -17 40 -38z m452 -172 c69 -12 125 -22 126 -23 0 -1 8 -31 17 -67 43&#xA;-171 47 -259 16 -411 -25 -124 -73 -224 -133 -275 -51 -44 -136 -86 -191 -94&#xA;l-43 -7 -4 41 c-3 24 0 43 6 45 26 9 100 98 122 145 79 176 42 455 -85 640&#xA;-17 24 -31 47 -31 50 0 3 17 -1 38 -8 20 -7 94 -23 162 -36z m1985 -103 c23&#xA;-23 39 -55 54 -102 36 -122 97 -510 116 -736 5 -57 3 -78 -7 -86 -17 -15 -228&#xA;-69 -338 -88 -19 -3 -71 -12 -115 -20 -83 -15 -369 -60 -440 -69 -129 -17&#xA;-211 -25 -296 -31 l-97 -6 0 33 c0 33 -19 231 -27 278 -2 14 -7 45 -10 70 -20&#xA;144 -78 441 -109 558 l-14 52 26 6 c15 3 33 8 40 10 13 4 179 30 442 69 58 8&#xA;116 17 130 20 14 3 42 7 64 10 21 3 50 7 65 9 72 13 128 20 276 36 61 6 119&#xA;13 130 14 61 9 78 5 110 -27z m-1306 -204 c24 -115 80 -401 85 -438 10 -75 17&#xA;-120 21 -142 7 -30 35 -299 35 -330 0 -25 -2 -25 -56 -21 -70 6 -79 17 -88&#xA;105 -6 68 -36 254 -96 597 -17 98 -30 190 -28 205 2 19 14 32 48 49 24 12 50&#xA;22 56 22 7 0 17 -21 23 -47z m-1489 10 c139 -33 276 -129 354 -248 44 -65 92&#xA;-183 101 -247 7 -45 5 -50 -32 -95 -56 -68 -100 -135 -127 -193 l-23 -49 -58&#xA;66 c-72 80 -156 136 -250 166 -129 40 -410 25 -474 -27 -21 -16 -7 37 46 179&#xA;52 139 133 298 204 400 l49 72 73 -4 c39 -3 101 -11 137 -20z m565 -690 c5&#xA;-140 57 -428 95 -528 l11 -28 -91 5 c-104 6 -168 32 -244 99 -71 63 -80 86&#xA;-61 157 51 182 107 284 235 426 l35 39 8 -34 c5 -19 10 -80 12 -136z m2685 -2&#xA;c6 -78 7 -149 3 -156 -24 -42 -162 -117 -314 -170 -105 -36 -354 -108 -419&#xA;-120 -19 -4 -42 -9 -51 -11 -14 -4 -17 11 -22 108 -2 62 -8 121 -12 131 -6 13&#xA;-2 17 16 17 33 1 337 63 436 90 104 28 116 37 122 95 l6 47 75 29 c42 16 91&#xA;42 110 58 19 16 36 28 37 27 2 -1 7 -67 13 -145z m-3325 56 c113 -31 214 -103&#xA;292 -210 l36 -49 -22 -77 c-12 -42 -24 -78 -27 -80 -2 -2 -23 12 -46 31 -116&#xA;94 -281 148 -454 148 -60 0 -188 -27 -243 -51 l-44 -19 7 42 c3 24 14 83 23&#xA;132 l18 89 44 20 c104 46 295 57 416 24z m900 -309 c96 -15 482 -16 570 0 36&#xA;6 61 6 63 1 15 -40 193 -55 402 -33 69 7 217 27 329 43 113 17 207 29 209 26&#xA;2 -2 6 -60 9 -128 l6 -124 -114 -21 c-162 -31 -155 -30 -369 -58 -160 -21&#xA;-246 -26 -480 -29 -301 -4 -419 3 -590 34 -162 30 -150 19 -187 164 -18 68&#xA;-33 134 -33 145 0 19 2 20 53 7 28 -8 88 -19 132 -27z m2431 -25 c-20 -207&#xA;-125 -419 -288 -584 -188 -189 -454 -306 -779 -344 l-56 -7 -23 48 c-29 58&#xA;-70 106 -115 133 -47 27 -44 11 9 -57 96 -125 149 -288 160 -492 1 -21 -8 -29&#xA;-47 -48 -134 -64 -382 -97 -548 -72 -180 26 -355 89 -428 155 -38 34 -38 36&#xA;-44 127 -10 159 -93 386 -171 468 -85 89 -141 185 -180 310 -14 45 -26 83 -26&#xA;85 0 3 11 0 25 -5 39 -15 250 -48 354 -55 165 -13 538 -7 711 9 581 57 1217&#xA;222 1405 365 22 17 42 31 44 31 2 0 1 -30 -3 -67z m-3364 28 c96 -25 182 -68&#xA;233 -118 84 -82 217 -329 221 -410 2 -36 -2 -50 -21 -69 -37 -37 -69 -40 -123&#xA;-12 -38 19 -55 38 -90 96 -48 80 -70 90 -99 45 -14 -22 -19 -58 -24 -183 -8&#xA;-219 -35 -290 -110 -290 -55 0 -107 67 -127 165 -6 28 -14 97 -18 155 -9 133&#xA;-9 133 -22 138 -30 10 -28 -228 3 -337 l18 -64 -33 -30 c-27 -24 -38 -28 -69&#xA;-23 -51 8 -82 35 -116 101 -30 58 -30 61 -30 217 0 87 -1 158 -3 158 -2 0 -13&#xA;-21 -24 -47 -31 -71 -36 -209 -10 -290 11 -35 16 -63 11 -63 -23 0 -76 30&#xA;-101 56 -51 55 -62 96 -65 249 -2 160 11 244 57 363 43 113 77 156 138 176&#xA;122 41 284 47 404 17z m3490 -124 c124 -57 353 -210 412 -276 19 -21 19 -21&#xA;-15 -21 -135 0 -356 -125 -481 -271 -70 -82 -153 -220 -184 -306 -15 -43 -29&#xA;-80 -31 -82 -2 -3 -18 9 -36 26 -47 44 -131 104 -225 162 l-83 50 38 20 c64&#xA;32 215 154 270 217 117 136 196 289 243 472 6 23 13 42 15 42 2 0 37 -15 77&#xA;-33z m528 -403 c30 -37 66 -86 81 -109 l27 -42 -82 -6 c-46 -3 -107 -15 -139&#xA;-27 -160 -60 -405 -279 -528 -470 -24 -38 -47 -68 -50 -67 -4 1 -29 32 -56 68&#xA;l-50 66 28 77 c116 319 406 572 660 575 l56 1 53 -66z m180 -289 c59 -122 92&#xA;-217 124 -355 42 -181 44 -164 -22 -184 -117 -36 -277 -141 -333 -219 -27 -37&#xA;-37 -67 -23 -67 3 0 36 28 72 61 175 160 333 223 544 215 114 -4 201 -30 290&#xA;-88 43 -27 118 -102 118 -117 0 -3 -42 -5 -93 -4 -195 4 -436 -90 -717 -278&#xA;-157 -105 -369 -311 -447 -435 -15 -24 -31 -44 -34 -44 -15 0 -80 249 -104&#xA;400 -32 201 -90 392 -167 542 -57 113 -60 100 43 239 117 159 305 326 432 385&#xA;61 27 166 50 230 49 l39 0 48 -100z m-2858 -583 c35 -16 115 -45 178 -63 110&#xA;-32 122 -33 285 -33 151 0 182 3 278 27 59 14 125 36 147 47 21 11 41 20 44&#xA;20 6 0 -2 -89 -15 -171 -18 -112 -33 -152 -65 -171 -53 -30 -181 -50 -329 -51&#xA;-121 0 -153 3 -239 26 -172 46 -356 153 -430 250 -26 33 -26 35 -12 83 8 27&#xA;18 66 21 87 l6 38 34 -29 c18 -16 62 -43 97 -60z m-150 -177 c49 -56 186 -148&#xA;278 -187 197 -82 497 -100 677 -39 29 10 53 17 53 15 0 -11 -108 -206 -140&#xA;-253 -110 -162 -250 -266 -407 -301 -62 -14 -173 -14 -256 0 -37 7 -70 10 -73&#xA;7 -3 -3 16 -18 43 -34 46 -27 53 -28 173 -27 93 0 136 4 169 17 54 21 50 25&#xA;93 -103 28 -85 31 -108 32 -220 1 -144 -20 -229 -76 -314 -53 -80 -75 -91&#xA;-176 -90 -202 1 -372 100 -496 288 -133 201 -193 434 -182 706 3 80 7 155 10&#xA;166 2 12 7 39 10 60 12 77 30 110 90 174 64 67 126 150 126 169 0 20 12 12 52&#xA;-34z m3777 -44 c27 -7 38 -34 43 -104 l3 -42 -54 3 c-266 13 -702 -225 -1028&#xA;-562 -61 -62 -116 -127 -124 -144 l-14 -31 -28 27 c-16 15 -37 41 -48 59 -18&#xA;29 -19 35 -5 61 48 93 254 306 406 420 206 156 479 286 655 312 63 9 163 10&#xA;194 1z m-4089 -290 c-36 -184 -24 -455 27 -631 66 -229 225 -450 389 -539 72&#xA;-40 188 -71 263 -71 67 0 60 -10 -34 -46 -87 -33 -204 -40 -290 -18 -217 57&#xA;-379 240 -485 548 -59 174 -83 321 -78 477 4 114 7 132 35 190 36 78 82 132&#xA;143 170 24 15 46 27 47 25 1 -1 -6 -48 -17 -105z m4115 62 c-64 -155 -296&#xA;-359 -563 -496 -270 -138 -423 -191 -532 -185 -38 2 -72 7 -76 11 -17 17 187&#xA;229 326 339 312 246 568 366 783 367 l77 1 -15 -37z"/>
    <path d="M4729 8880 c-294 -34 -661 -167 -907 -329 -349 -230 -551 -598 -578&#xA;-1052 -14 -254 55 -588 169 -814 33 -67 126 -204 164 -243 286 -294 618 -433&#xA;1073 -449 452 -16 873 103 1185 336 81 61 189 165 235 227 65 87 147 263 184&#xA;394 46 165 50 208 51 465 0 226 -2 259 -23 345 -76 317 -195 548 -385 747&#xA;-177 185 -350 284 -611 349 -86 22 -129 26 -291 29 -104 2 -224 0 -266 -5z&#xA;m446 -55 c115 -22 149 -30 220 -55 111 -38 177 -70 270 -131 372 -242 624&#xA;-778 602 -1279 -10 -218 -39 -356 -113 -542 -102 -255 -264 -420 -574 -586&#xA;-328 -175 -831 -238 -1240 -155 -374 75 -705 305 -869 604 -102 188 -166 436&#xA;-178 696 -19 409 139 786 435 1039 233 199 607 355 982 409 93 14 395 14 465&#xA;0z"/>
    <path d="M4766 8714 c-281 -36 -604 -149 -800 -279 -92 -61 -208 -167 -268&#xA;-245 -91 -118 -190 -327 -213 -450 -38 -200 -46 -408 -21 -552 63 -358 223&#xA;-624 479 -797 211 -142 451 -214 757 -227 529 -23 1046 180 1260 496 143 211&#xA;220 525 207 850 -20 494 -282 930 -672 1115 -199 94 -449 125 -729 89z m334&#xA;-45 c78 -2 232 -32 286 -54 25 -10 35 -24 49 -65 24 -73 17 -146 -21 -207 -53&#xA;-85 -121 -113 -220 -93 -46 10 -54 15 -48 28 32 75 41 182 15 182 -5 0 -23&#xA;-41 -41 -92 -48 -139 -103 -208 -199 -251 -51 -22 -123 -20 -183 6 l-37 15 19&#xA;49 c23 60 36 143 22 143 -5 0 -30 -42 -55 -92 -109 -222 -268 -341 -410 -309&#xA;-79 17 -80 20 -52 76 25 48 35 135 16 135 -5 0 -25 -34 -45 -76 -45 -94 -134&#xA;-187 -221 -230 -55 -27 -68 -29 -157 -27 -91 1 -98 0 -98 -18 0 -11 11 -37 25&#xA;-58 51 -76 68 -138 73 -263 8 -209 -33 -358 -148 -536 -36 -57 -56 -80 -61&#xA;-70 -25 45 -72 206 -89 306 -21 119 -28 308 -15 407 11 86 56 257 88 335 99&#xA;241 286 433 550 567 233 117 612 206 842 196 22 0 74 -2 115 -4z m418 -139&#xA;c-12 -18 -13 -19 -20 -2 -13 34 -10 44 12 32 17 -9 18 -14 8 -30z m118 -51&#xA;c167 -122 313 -326 399 -554 63 -170 76 -239 82 -457 6 -199 -1 -244 -24 -149&#xA;-15 63 -89 213 -129 259 -24 28 -34 54 -43 107 -14 79 -67 226 -118 330 -56&#xA;113 -136 224 -223 310 -69 69 -80 84 -80 114 0 27 7 41 33 62 17 15 37 24 42&#xA;21 6 -3 33 -22 61 -43z m13 -314 c104 -145 166 -275 216 -457 17 -59 46 -128&#xA;80 -188 30 -53 66 -124 80 -159 23 -57 59 -238 57 -286 -2 -38 -72 -228 -108&#xA;-293 -120 -219 -312 -370 -602 -473 -218 -76 -366 -99 -622 -95 -215 4 -326&#xA;21 -495 77 -242 81 -463 252 -583 452 l-34 56 42 56 c83 112 150 257 175 377&#xA;31 143 13 374 -36 470 -11 21 -19 40 -19 43 0 3 22 5 48 5 27 0 70 6 96 14 52&#xA;16 159 82 196 121 21 22 25 23 49 10 74 -38 183 -35 269 7 52 25 162 125 193&#xA;174 19 31 23 33 38 21 49 -43 137 -61 207 -43 74 19 106 39 165 103 54 58 54&#xA;58 89 46 123 -42 273 16 323 125 10 22 11 22 65 -30 29 -29 79 -89 111 -133z"/>
    <path d="M5256 7955 c-47 -17 -60 -29 -53 -49 4 -10 14 -13 29 -9 13 3 53 7&#xA;89 10 58 4 74 2 119 -21 28 -14 58 -26 67 -26 26 0 10 43 -26 67 -64 43 -152&#xA;54 -225 28z"/>
    <path d="M4510 7761 c-89 -28 -186 -115 -208 -189 -24 -80 -7 -84 41 -9 39 61&#xA;111 118 183 144 36 14 50 24 52 41 3 17 -1 22 -20 21 -13 0 -34 -4 -48 -8z"/>
    <path d="M5506 7494 c-17 -169 -104 -192 -251 -66 -41 35 -69 52 -87 52 -16 0&#xA;-28 -4 -28 -9 0 -16 135 -137 174 -155 48 -23 122 -24 164 -2 18 9 41 34 52&#xA;56 32 63 25 190 -11 190 -3 0 -9 -30 -13 -66z"/>
    <path d="M4737 7374 c-4 -4 -7 -28 -7 -54 0 -54 -33 -125 -72 -154 -57 -41&#xA;-156 -15 -243 65 -48 45 -70 51 -59 17 12 -41 66 -98 113 -122 62 -31 104 -38&#xA;159 -25 98 22 160 106 148 203 -5 48 -25 84 -39 70z"/>
    <path d="M5114 7274 c-37 -18 -90 -71 -81 -80 4 -4 33 5 66 20 75 33 122 33&#xA;179 0 53 -31 76 -77 66 -132 -16 -89 -65 -134 -168 -156 -37 -7 -70 -17 -73&#xA;-20 -15 -15 18 -27 71 -27 99 0 171 49 211 144 28 68 13 147 -40 206 -53 58&#xA;-161 80 -231 45z"/>
    <path d="M4606 6831 c-10 -11 -24 -37 -31 -58 -18 -52 -2 -68 31 -30 l25 29&#xA;20 -26 c27 -35 151 -94 224 -107 67 -12 231 -6 285 10 19 6 51 21 70 33 47 29&#xA;24 34 -74 14 -92 -19 -224 -20 -291 -2 -98 26 -220 101 -205 126 20 33 -26 42&#xA;-54 11z"/>
    <path d="M5610 5335 c-8 -2 -61 -11 -117 -21 -121 -20 -116 -11 -82 -164 24&#xA;-103 41 -134 74 -126 20 5 211 34 265 40 44 5 60 23 60 68 0 59 -30 181 -48&#xA;196 -14 11 -109 15 -152 7z m130 -56 c14 -27 33 -150 24 -159 -8 -8 -243 -50&#xA;-278 -50 -10 0 -21 30 -36 92 -22 95 -20 107 20 108 8 1 53 7 100 13 103 16&#xA;160 14 170 -4z"/>
    <path d="M5040 5255 c-36 -8 -85 -16 -110 -20 -128 -18 -180 -40 -180 -78 0&#xA;-12 13 -85 30 -162 36 -169 48 -185 138 -185 67 0 276 36 312 53 22 11 25 20&#xA;28 72 2 32 -4 92 -13 132 -9 39 -18 83 -20 96 -3 12 -11 41 -18 63 -13 37 -16&#xA;39 -58 41 -24 0 -73 -5 -109 -12z m148 -120 c13 -50 26 -122 29 -161 l5 -71&#xA;-28 -7 c-47 -12 -257 -46 -285 -46 -47 0 -66 35 -92 170 -16 78 -22 129 -16&#xA;136 8 10 70 24 239 54 30 5 64 11 75 14 44 9 50 2 73 -89z"/>
    <path d="M5620 4898 c-164 -83 -89 -309 98 -295 90 7 141 59 143 149 2 72 -25&#xA;118 -85 147 -55 27 -101 26 -156 -1z m112 -28 c11 0 35 -15 54 -34 29 -29 34&#xA;-41 34 -79 0 -37 -5 -51 -30 -76 -98 -97 -267 9 -205 128 17 34 88 75 113 66&#xA;8 -3 23 -5 34 -5z"/>
    <path d="M6568 9170 c-100 -78 -49 -233 74 -225 76 4 125 69 115 150 -8 59&#xA;-52 95 -116 95 -33 0 -56 -6 -73 -20z m129 -46 c20 -20 24 -31 19 -57 -3 -17&#xA;-16 -41 -28 -54 -43 -46 -128 -18 -128 42 0 82 82 124 137 69z"/>
    <path d="M1441 9038 c-10 -24 -31 -92 -46 -153 -15 -60 -33 -120 -41 -131 -12&#xA;-21 -40 -31 -206 -79 -71 -20 -92 -38 -77 -66 12 -24 64 -47 177 -79 56 -16&#xA;87 -31 94 -44 6 -10 23 -80 38 -155 33 -157 43 -189 66 -198 29 -11 49 29 89&#xA;178 21 79 44 154 51 166 9 14 34 27 71 37 133 38 193 59 208 76 15 17 15 20&#xA;-3 38 -11 11 -57 32 -103 47 -140 45 -167 57 -174 74 -4 9 -20 73 -36 144 -31&#xA;143 -46 180 -72 185 -12 3 -23 -9 -36 -40z m64 -175 c32 -151 40 -165 117&#xA;-196 35 -14 89 -31 121 -38 31 -8 57 -16 57 -20 0 -3 -43 -17 -96 -30 -159&#xA;-40 -165 -47 -208 -229 -15 -63 -30 -122 -33 -130 -6 -16 -35 94 -54 205 -17&#xA;104 -31 119 -152 156 -56 17 -106 34 -111 37 -5 3 29 16 76 28 116 31 153 48&#xA;173 77 8 14 27 78 41 143 14 66 28 126 31 134 7 17 4 28 38 -137z"/>
    <path d="M8956 6488 c-8 -18 -26 -81 -41 -140 -40 -154 -44 -160 -151 -188&#xA;-151 -40 -176 -56 -139 -93 8 -8 47 -27 87 -42 40 -15 86 -31 101 -37 45 -17&#xA;54 -39 72 -163 4 -22 13 -69 22 -105 36 -151 71 -113 147 161 9 31 22 61 29&#xA;67 7 6 62 28 121 49 112 39 140 59 118 86 -6 7 -62 33 -123 57 -60 24 -114 51&#xA;-119 59 -4 9 -18 70 -30 136 -26 138 -42 185 -65 185 -9 0 -22 -15 -29 -32z&#xA;m60 -203 c21 -122 36 -139 149 -180 44 -15 84 -32 89 -36 4 -4 -37 -21 -92&#xA;-38 -54 -17 -106 -39 -115 -49 -9 -10 -32 -73 -51 -141 -20 -68 -37 -126 -40&#xA;-128 -2 -2 -13 49 -25 114 -12 65 -26 130 -32 144 -12 30 -57 57 -151 90 -69&#xA;24 -86 39 -45 39 27 0 146 33 176 50 28 15 46 56 72 168 30 131 31 133 40 97&#xA;4 -16 15 -75 25 -130z"/>
    <path d="M974 6116 c-66 -29 -97 -105 -73 -178 31 -95 140 -115 212 -40 70 74&#xA;41 196 -52 222 -45 12 -49 12 -87 -4z m108 -66 c26 -27 30 -36 25 -68 -12 -72&#xA;-96 -108 -145 -62 -32 30 -31 102 3 135 34 35 78 33 117 -5z"/>
    <path d="M7694 4870 c-28 -11 -61 -54 -69 -91 -9 -39 21 -100 58 -117 70 -34&#xA;157 21 157 98 0 91 -68 142 -146 110z m89 -58 c40 -35 6 -112 -50 -112 -73 0&#xA;-87 92 -19 128 22 11 42 6 69 -16z"/>
    <path d="M8565 4371 c-325 -86 -468 -479 -277 -758 65 -95 132 -146 239 -182&#xA;79 -27 132 -31 227 -21 110 13 190 54 275 139 78 78 117 152 139 264 15 74 14&#xA;87 -1 160 -36 174 -121 289 -266 360 -84 40 -89 42 -196 44 -60 1 -123 -2&#xA;-140 -6z m236 -47 c396 -116 442 -648 71 -831 -74 -37 -79 -38 -186 -38 -107&#xA;0 -114 1 -181 34 -162 80 -255 225 -256 401 -1 147 71 288 190 370 45 31 74&#xA;43 171 74 34 10 140 5 191 -10z"/>
    <path d="M8525 4184 c-50 -17 -75 -47 -75 -89 0 -60 44 -80 114 -51 80 33 89&#xA;123 16 148 -9 3 -34 0 -55 -8z m73 -49 c4 -29 -39 -67 -80 -68 -29 -2 -33 1&#xA;-36 24 -2 19 5 33 24 48 36 28 88 25 92 -4z"/>
    <path d="M8801 3973 c-54 -28 -76 -66 -76 -128 0 -46 4 -58 29 -84 89 -93 234&#xA;-41 237 86 2 52 -14 87 -51 113 -43 30 -97 35 -139 13z m132 -53 c75 -84 -14&#xA;-209 -118 -166 -33 14 -65 59 -65 91 0 31 32 86 59 100 39 22 91 12 124 -25z"/>
    <path d="M8397 3805 c-36 -35 -11 -122 43 -150 62 -32 107 -4 97 62 -12 70&#xA;-102 127 -140 88z m67 -30 c13 -9 30 -30 36 -46 11 -26 11 -33 -3 -47 -16 -15&#xA;-19 -15 -44 4 -31 23 -49 63 -40 88 8 20 21 20 51 1z"/>
    <path d="M8656 2038 c-12 -19 -69 -214 -90 -309 -11 -52 -37 -68 -158 -104&#xA;-153 -45 -170 -54 -166 -79 3 -24 53 -51 178 -96 47 -17 92 -38 102 -48 10&#xA;-10 28 -77 47 -174 35 -182 51 -228 79 -228 11 0 24 6 30 13 15 18 60 161 77&#xA;244 8 40 21 88 29 107 15 37 24 41 237 100 31 9 62 23 69 31 28 34 -3 54 -180&#xA;117 -47 17 -93 38 -102 47 -11 10 -29 74 -52 184 -42 205 -65 249 -100 195z&#xA;m53 -193 c26 -142 43 -194 75 -224 13 -12 68 -37 122 -57 54 -19 105 -37 113&#xA;-40 22 -7 13 -11 -109 -44 -157 -43 -158 -44 -205 -233 -21 -84 -41 -158 -45&#xA;-166 -7 -14 -21 38 -66 254 -21 102 -39 119 -183 169 -62 21 -111 39 -109 41&#xA;2 1 48 15 103 30 55 16 117 37 137 48 45 24 61 61 104 239 15 65 31 115 35&#xA;110 3 -4 16 -61 28 -127z"/>
    <path d="M2535 1609 c-7 -10 -28 -84 -54 -184 -16 -63 -25 -70 -130 -99 -168&#xA;-47 -171 -68 -21 -128 52 -21 98 -42 103 -47 5 -5 21 -60 37 -124 15 -63 33&#xA;-124 39 -136 25 -45 57 -17 84 74 8 28 22 76 31 107 20 67 26 71 139 102 132&#xA;36 129 63 -14 122 -49 20 -94 43 -100 50 -6 8 -25 71 -43 141 -23 95 -35 129&#xA;-48 131 -9 2 -19 -2 -23 -9z m73 -289 c11 -15 49 -37 95 -55 42 -16 77 -32 77&#xA;-35 0 -4 -26 -11 -57 -18 -94 -19 -119 -40 -142 -119 -11 -37 -23 -87 -27&#xA;-110 -6 -42 -24 -60 -24 -25 0 9 -11 62 -24 117 -28 116 -43 133 -143 162 -35&#xA;10 -63 21 -63 24 0 3 26 11 57 18 31 6 76 20 100 32 40 19 44 25 63 92 12 40&#xA;24 81 27 92 4 13 13 -10 25 -65 10 -47 26 -96 36 -110z"/>
    <path d="M5911 1373 c-92 -48 -107 -176 -29 -245 41 -35 122 -35 165 1 34 28&#xA;63 83 63 119 0 102 -111 171 -199 125z m126 -55 c17 -16 23 -32 23 -66 0 -120&#xA;-164 -144 -186 -27 -6 36 15 88 43 104 32 19 95 13 120 -11z"/>
  </g>
  <title>Astronauta na uwięzi kosmicznej</title>
  <desc>Astronauta unosi się w przestrzeni kosmicznej, połączony ze statkiem za pomocą specjalnej liny (uwięzi). To zapewnia mu bezpieczeństwo podczas spacerów kosmicznych.</desc>
</svg>