<?xml version="1.0" encoding="UTF-8" standalone="yes"?>
<svg version="1.0" xmlns="http://www.w3.org/2000/svg" width="1024.000000pt" height="1024.000000pt" viewBox="0 0 1024.000000 1024.000000" preserveAspectRatio="xMidYMid meet">
  <metadata>
Created by potrace 1.16, written by Peter Selinger 2001-2019
</metadata>
  <g transform="translate(0.000000,1024.000000) scale(0.100000,-0.100000)" fill="#000000" stroke="none">
    <path d="M1277 9684 c-217 -47 -432 -171 -541 -313 -116 -151 -159 -327 -121&#xA;-504 39 -186 183 -319 410 -378 112 -29 309 -30 417 -1 270 72 508 253 731&#xA;552 172 232 180 243 247 313 156 167 331 247 542 247 266 0 430 -144 416 -365&#xA;-15 -238 -273 -450 -524 -432 -116 8 -179 45 -215 122 -39 84 -10 185 75 263&#xA;71 66 183 105 250 88 36 -9 86 -55 86 -79 0 -52 -75 -127 -127 -127 -29 0 -52&#xA;25 -46 50 4 16 0 20 -20 20 -56 0 -58 -60 -4 -106 65 -54 192 -12 236 78 109&#xA;225 -203 315 -419 121 -67 -60 -102 -129 -108 -213 -6 -95 11 -146 68 -201 63&#xA;-62 126 -83 245 -83 258 0 490 174 560 419 53 182 -39 383 -210 461 -173 79&#xA;-420 67 -614 -31 -157 -78 -266 -190 -476 -485 -156 -218 -351 -401 -516 -483&#xA;-122 -60 -212 -80 -369 -81 -152 -1 -246 20 -352 76 -73 39 -162 131 -195 204&#xA;-31 69 -42 198 -24 287 45 213 237 395 509 481 155 49 310 54 446 15 119 -35&#xA;190 -97 222 -192 31 -92 5 -190 -79 -304 -80 -108 -200 -190 -319 -218 -111&#xA;-26 -181 -14 -235 40 -29 29 -33 39 -33 88 0 67 12 102 48 140 37 40 77 58&#xA;127 60 60 3 78 -16 72 -71 -5 -50 12 -65 42 -38 47 42 29 131 -32 159 -77 37&#xA;-169 15 -244 -58 -41 -40 -55 -62 -68 -109 -62 -213 124 -346 371 -266 113 36&#xA;166 69 263 163 160 155 206 342 123 503 -46 89 -155 163 -281 190 -84 18 -246&#xA;17 -334 -2z"/>
    <path d="M6033 9620 c-38 -23 -53 -48 -53 -89 0 -97 97 -142 164 -75 46 47 46&#xA;127 -1 164 -32 25 -69 25 -110 0z m89 -65 c23 -52 -55 -106 -82 -56 -14 27&#xA;-13 47 6 65 24 25 63 20 76 -9z"/>
    <path d="M8930 9577 c-94 -28 -158 -72 -198 -134 -41 -66 -55 -115 -54 -195 0&#xA;-110 54 -191 164 -250 61 -32 185 -32 246 0 106 56 142 183 75 262 -27 32 -54&#xA;38 -72 16 -9 -11 -6 -20 12 -42 38 -46 41 -69 15 -115 -58 -103 -210 -107&#xA;-310 -8 -59 59 -74 107 -59 192 26 146 147 231 331 230 145 -1 260 -53 370&#xA;-169 163 -173 143 -430 -50 -624 -189 -191 -518 -238 -794 -116 -143 64 -243&#xA;147 -440 370 -91 104 -142 149 -205 181 -166 83 -341 28 -406 -128 -31 -74&#xA;-14 -188 33 -230 39 -36 54 1 27 66 -8 20 -15 52 -15 72 0 107 122 207 233&#xA;191 93 -14 162 -71 406 -335 211 -228 449 -333 721 -318 308 18 534 172 638&#xA;436 22 56 26 82 26 172 1 104 1 106 -41 191 -67 135 -194 242 -342 288 -87 28&#xA;-212 26 -311 -3z"/>
    <path d="M7685 9549 c-231 -22 -427 -166 -495 -364 -58 -168 -28 -321 86 -445&#xA;142 -152 381 -195 545 -97 85 51 129 135 109 208 -18 63 -86 108 -130 86 -32&#xA;-17 -35 -33 -7 -41 13 -3 36 -17 50 -30 75 -69 -28 -190 -173 -203 -232 -21&#xA;-425 125 -438 330 -17 277 211 490 523 490 108 0 191 -20 300 -73 99 -47 172&#xA;-112 320 -285 128 -149 206 -222 297 -278 105 -64 229 -90 302 -65 60 20 58&#xA;38 -3 38 -162 0 -348 125 -546 365 -143 174 -252 263 -385 314 -118 46 -233&#xA;62 -355 50z"/>
    <path d="M4263 9281 c-46 -72 -62 -89 -78 -85 -11 2 -54 5 -95 7 -97 3 -100&#xA;-10 -26 -100 l55 -68 -45 -84 c-44 -84 -54 -126 -32 -133 7 -3 52 13 101 35&#xA;l89 39 77 -76 c59 -58 82 -75 95 -70 17 6 18 17 11 120 l-7 112 86 40 c133 63&#xA;129 84 -21 117 l-98 22 -6 94 c-9 151 -25 156 -106 30z m65 -101 l7 -75 75&#xA;-14 75 -15 -62 -27 c-34 -16 -64 -32 -67 -37 -3 -5 -2 -41 3 -80 4 -40 5 -72&#xA;1 -72 -3 0 -30 24 -59 54 l-53 54 -65 -29 c-36 -16 -66 -29 -68 -29 -2 0 13&#xA;31 33 69 l37 68 -38 46 c-20 25 -37 47 -37 50 0 2 19 1 43 -4 72 -14 74 -13&#xA;119 62 23 40 43 68 45 63 2 -5 6 -43 11 -84z"/>
    <path d="M5865 9069 c-480 -46 -1059 -310 -1615 -737 -489 -375 -821 -748&#xA;-1100 -1236 -235 -410 -392 -957 -402 -1403 -2 -62 -6 -109 -9 -105 -8 10 -46&#xA;225 -61 352 -20 161 -17 586 5 735 70 467 211 847 438 1180 37 55 111 154 163&#xA;220 117 146 156 210 156 253 0 36 -29 72 -60 72 -11 0 -75 -30 -143 -66 -277&#xA;-149 -474 -335 -674 -637 -280 -421 -442 -935 -462 -1457 -15 -419 36 -798&#xA;161 -1180 167 -514 474 -964 867 -1270 127 -99 131 -103 61 -69 -666 326&#xA;-1163 905 -1375 1605 -70 229 -79 304 -81 639 -1 165 -2 306 -3 313 -2 23 -41&#xA;52 -70 52 -116 0 -241 -357 -258 -735 -18 -425 102 -923 320 -1325 54 -100&#xA;191 -306 274 -410 103 -132 373 -396 488 -477 325 -231 636 -379 988 -469 201&#xA;-51 427 -84 576 -84 52 0 92 -2 90 -4 -11 -12 -220 -38 -362 -46 -452 -26&#xA;-916 78 -1375 309 -108 55 -327 202 -437 296 -232 197 -267 218 -324 200 -30&#xA;-9 -51 -56 -51 -112 1 -148 195 -431 429 -625 381 -315 896 -533 1456 -615&#xA;171 -25 610 -25 785 0 519 75 966 244 1384 525 324 218 663 563 825 840 141&#xA;243 239 526 271 786 17 135 14 368 -4 455 -27 130 -34 104 -29 -105 8 -285&#xA;-18 -476 -98 -718 -105 -314 -267 -566 -543 -842 -251 -251 -471 -410 -776&#xA;-563 -454 -227 -896 -331 -1405 -331 -286 0 -480 24 -745 90 -385 97 -760 280&#xA;-1053 512 -160 128 -359 365 -412 492 -23 53 -34 121 -23 140 20 35 47 18 218&#xA;-133 280 -248 554 -404 925 -526 302 -101 531 -138 840 -138 243 -1 397 18&#xA;615 75 85 22 202 49 260 59 335 61 628 165 895 318 213 123 356 233 521 402&#xA;285 294 479 666 550 1054 24 135 25 430 1 565 -110 611 -514 1038 -1083 1146&#xA;-120 22 -374 15 -484 -14 -423 -113 -729 -399 -854 -801 -44 -140 -61 -335&#xA;-34 -398 11 -27 12 -25 20 37 23 178 40 266 63 335 164 488 580 795 1078 795&#xA;147 0 262 -18 383 -61 470 -165 789 -575 859 -1106 79 -591 -191 -1234 -695&#xA;-1655 -134 -113 -273 -203 -446 -290 -250 -127 -473 -202 -741 -249 -152 -27&#xA;-481 -37 -644 -20 -634 66 -1262 368 -1678 807 -386 408 -627 878 -723 1411&#xA;-20 111 -23 161 -23 383 0 225 3 268 22 366 43 207 116 385 162 392 l22 4 -7&#xA;-234 c-10 -341 14 -529 98 -788 96 -297 251 -585 448 -835 150 -190 407 -426&#xA;611 -561 182 -120 458 -251 639 -304 36 -11 126 -40 200 -65 165 -56 380 -100&#xA;560 -116 445 -38 917 79 1266 312 247 166 456 385 516 541 10 28 17 52 15 55&#xA;-3 2 -31 -33 -62 -79 -65 -94 -219 -250 -345 -351 -379 -303 -782 -432 -1295&#xA;-414 -239 9 -384 35 -630 114 -256 82 -493 241 -743 497 -376 386 -613 849&#xA;-728 1423 -49 250 -63 408 -60 668 4 224 18 366 56 551 126 612 449 1171 852&#xA;1472 85 64 285 182 308 182 29 0 -3 -52 -117 -196 -70 -87 -164 -214 -209&#xA;-281 -277 -413 -432 -929 -451 -1498 -11 -348 48 -778 138 -1007 11 -28 40&#xA;-123 64 -212 107 -396 254 -655 525 -926 204 -205 391 -329 646 -430 389 -153&#xA;891 -163 1166 -24 53 27 76 51 37 40 -336 -96 -576 -108 -879 -45 -650 134&#xA;-1183 619 -1390 1264 -71 223 -92 335 -97 535 -16 579 169 1181 530 1720 288&#xA;431 613 756 1112 1112 341 244 744 448 1060 537 198 55 338 74 520 68 220 -6&#xA;369 -48 463 -131 28 -25 62 -79 62 -100 0 -14 -43 -14 -124 -2 -204 32 -357&#xA;28 -561 -14 -386 -79 -817 -312 -1136 -615 -58 -55 -162 -140 -232 -189 -676&#xA;-472 -1113 -1137 -1259 -1916 -29 -155 -36 -497 -14 -648 26 -174 86 -362 117&#xA;-362 6 0 8 7 5 16 -15 38 -57 218 -72 309 -24 137 -24 438 0 595 104 698 485&#xA;1348 1058 1807 256 205 413 293 716 402 381 137 661 185 1072 185 243 1 377&#xA;-12 590 -55 515 -105 1075 -384 1471 -732 240 -211 429 -524 417 -689 -2 -32&#xA;-8 -44 -21 -46 -12 -3 -79 57 -210 185 -106 104 -239 227 -297 273 -414 330&#xA;-915 536 -1512 621 -280 40 -646 27 -918 -32 -609 -133 -1178 -448 -1602 -887&#xA;-133 -138 -209 -233 -310 -387 -245 -373 -359 -732 -359 -1135 -1 -226 25&#xA;-386 92 -575 141 -399 465 -729 811 -825 64 -18 200 -29 186 -15 -3 3 -45 17&#xA;-94 31 -519 152 -890 643 -932 1234 -10 146 2 364 28 495 61 309 230 659 460&#xA;950 96 122 361 379 498 483 410 312 924 531 1396 597 488 67 1074 -21 1591&#xA;-239 325 -138 587 -320 900 -626 94 -92 183 -176 199 -188 40 -30 97 -29 133&#xA;2 26 22 28 30 28 93 0 182 -148 449 -371 669 -354 350 -910 649 -1456 783&#xA;-485 119 -1022 120 -1483 1 -141 -36 -381 -116 -480 -159 l-70 -31 40 35 c130&#xA;114 350 256 550 355 344 170 695 237 1000 189 101 -15 162 -12 185 11 42 42&#xA;11 142 -63 206 -89 76 -233 126 -413 144 -112 11 -124 11 -249 -1z"/>
    <path d="M2217 8542 c-230 -218 -431 -332 -665 -376 -293 -56 -556 -13 -768&#xA;125 -60 39 -88 47 -98 30 -17 -26 100 -115 215 -163 114 -48 213 -68 360 -75&#xA;266 -12 522 59 744 205 115 76 295 258 295 299 0 25 -22 13 -83 -45z"/>
    <path d="M8286 8411 c-12 -18 8 -43 69 -87 87 -61 215 -120 321 -145 173 -42&#xA;413 -26 584 37 78 30 160 81 160 100 0 19 -7 18 -91 -17 -157 -65 -357 -95&#xA;-515 -79 -160 17 -284 61 -424 150 -78 51 -94 57 -104 41z"/>
    <path d="M9138 7634 c-34 -18 -58 -62 -58 -105 0 -37 56 -99 89 -99 98 0 145&#xA;132 70 194 -34 29 -62 32 -101 10z m78 -65 c17 -19 17 -23 3 -47 -17 -32 -50&#xA;-39 -73 -17 -20 21 -21 49 0 69 21 22 47 20 70 -5z"/>
    <path d="M5800 7549 c-299 -29 -717 -166 -979 -319 -73 -42 -135 -89 -127 -97&#xA;2 -2 53 21 113 51 321 161 616 255 918 292 155 20 426 14 575 -11 443 -75 894&#xA;-293 1340 -648 691 -549 1188 -1507 1250 -2406 30 -433 -85 -896 -242 -977&#xA;-24 -13 -32 -13 -45 -2 -18 15 -15 71 13 238 24 141 24 417 0 555 -65 381&#xA;-205 735 -407 1037 -64 95 -168 228 -229 293 -20 22 -71 101 -113 175 -149&#xA;266 -293 462 -489 665 -396 410 -842 654 -1340 732 -138 22 -487 24 -623 5&#xA;-337 -48 -619 -153 -880 -327 -393 -262 -680 -675 -766 -1103 -25 -125 -35&#xA;-359 -20 -479 23 -187 93 -391 165 -478 40 -50 42 -20 3 59 -47 96 -82 217&#xA;-103 358 -20 138 -14 411 11 528 63 290 216 573 434 802 292 307 638 485 1096&#xA;564 143 25 508 25 661 1 623 -100 1178 -465 1611 -1062 187 -258 324 -543 413&#xA;-856 205 -725 135 -1520 -192 -2172 -207 -415 -560 -811 -861 -967 -123 -63&#xA;-197 -67 -197 -9 0 65 51 138 259 374 156 177 296 354 374 472 264 401 435&#xA;999 413 1448 -6 132 -27 260 -46 279 -12 12 -12 -8 0 -159 16 -215 -12 -509&#xA;-71 -750 -113 -458 -274 -754 -624 -1151 -252 -285 -296 -340 -330 -408 -38&#xA;-75 -43 -112 -20 -155 83 -161 515 100 847 512 355 442 570 1008 618 1626 25&#xA;330 -3 664 -80 972 -30 118 -84 288 -102 322 -5 10 -8 21 -5 23 2 3 34 -35 70&#xA;-83 235 -317 386 -672 458 -1080 32 -177 31 -401 0 -606 -13 -82 -20 -162 -17&#xA;-181 8 -42 51 -86 83 -86 100 0 224 181 283 412 86 343 78 746 -24 1169 -144&#xA;598 -445 1169 -853 1617 -204 225 -532 480 -858 667 -286 165 -649 288 -950&#xA;323 -101 12 -304 12 -415 1z"/>
    <path d="M1161 7438 c-21 -46 -46 -104 -56 -130 l-18 -48 -76 -1 c-141 -2&#xA;-171 -9 -171 -38 0 -18 26 -44 152 -152 l28 -24 -35 -114 c-38 -124 -42 -159&#xA;-21 -167 8 -3 63 28 125 71 l110 76 113 -76 c109 -73 140 -86 153 -65 3 5 -9&#xA;70 -27 142 -18 73 -33 136 -33 139 0 4 44 41 98 83 93 74 118 109 85 121 -7 2&#xA;-68 6 -136 9 -68 2 -125 6 -126 8 -2 1 -20 53 -40 113 -57 168 -70 173 -125&#xA;53z m126 -219 c4 -4 55 -10 112 -11 l103 -3 -81 -63 c-44 -34 -81 -64 -81 -66&#xA;0 -2 13 -54 29 -114 l28 -111 -56 36 c-31 19 -70 46 -87 58 -17 13 -37 25 -45&#xA;26 -14 4 -123 -65 -166 -104 -13 -11 -23 -19 -23 -16 0 2 14 47 30 99 16 52&#xA;30 102 30 110 0 8 -34 42 -75 75 l-75 60 96 5 97 5 46 109 45 110 32 -98 c17&#xA;-54 36 -102 41 -107z"/>
    <path d="M5360 6764 c-358 -43 -636 -162 -854 -365 -72 -67 -103 -105 -94&#xA;-115 3 -2 36 23 74 56 193 168 432 287 687 342 85 18 135 22 302 22 228 1 327&#xA;-13 510 -71 671 -213 1281 -896 1455 -1627 139 -583 67 -1156 -215 -1731 -152&#xA;-309 -323 -544 -595 -815 -256 -257 -513 -440 -845 -605 -495 -245 -917 -354&#xA;-1370 -355 -255 0 -445 35 -600 110 -119 57 -202 156 -148 177 9 4 78 -1 152&#xA;-10 348 -44 717 5 1143 153 633 218 1265 674 1643 1185 251 340 388 650 456&#xA;1030 21 115 24 161 23 395 0 207 -4 287 -17 365 -50 283 -134 513 -268 732&#xA;-153 250 -393 493 -581 589 -55 28 -58 28 -58 12 0 -7 33 -35 72 -63 94 -66&#xA;285 -250 363 -350 290 -372 435 -804 435 -1295 0 -571 -197 -1068 -617 -1552&#xA;-305 -352 -771 -691 -1225 -892 -470 -207 -972 -301 -1349 -252 -137 18 -182&#xA;14 -216 -17 -69 -62 19 -194 182 -272 305 -146 826 -154 1322 -20 404 110 855&#xA;328 1189 575 208 154 434 370 606 580 250 306 459 713 560 1089 114 430 117&#xA;860 7 1288 -82 320 -260 665 -477 923 -170 203 -414 414 -626 540 -180 108&#xA;-392 187 -605 225 -84 16 -351 27 -421 19z"/>
    <path d="M9278 6673 c-9 -10 -38 -63 -65 -117 l-50 -99 -114 -1 c-96 -1 -114&#xA;-3 -117 -17 -2 -9 30 -51 74 -98 l77 -82 -42 -102 c-41 -102 -49 -141 -32&#xA;-152 5 -3 57 20 115 51 62 33 111 52 118 48 7 -4 52 -38 100 -76 48 -37 97&#xA;-68 108 -68 26 0 26 28 1 168 l-18 102 82 59 c45 33 87 67 94 75 24 29 -3 42&#xA;-113 56 -57 7 -109 15 -114 19 -5 3 -20 53 -32 111 -23 107 -34 140 -49 140&#xA;-4 0 -15 -8 -23 -17z m32 -206 c14 -86 7 -80 128 -98 80 -11 82 -12 60 -27&#xA;-13 -9 -46 -33 -74 -53 l-51 -37 18 -89 c25 -119 24 -120 -11 -92 -16 13 -54&#xA;44 -84 67 l-55 44 -82 -46 c-44 -25 -83 -46 -85 -46 -2 0 12 36 31 81 19 44&#xA;35 88 35 97 0 9 -27 44 -60 77 l-60 60 87 0 87 0 44 90 c50 102 51 102 72 -28z"/>
    <path d="M731 6036 c-31 -17 -50 -53 -51 -94 0 -49 54 -102 104 -102 51 0 95&#xA;42 103 97 5 39 2 46 -30 78 -38 38 -81 46 -126 21z m92 -64 c34 -29 14 -72&#xA;-33 -72 -33 0 -50 17 -50 52 0 46 41 56 83 20z"/>
    <path d="M5344 5906 c-36 -16 -74 -61 -74 -87 0 -16 5 -16 58 9 110 51 232 32&#xA;371 -58 69 -45 71 -45 71 -26 0 24 -99 107 -167 139 -54 25 -83 31 -148 34&#xA;-54 2 -90 -1 -111 -11z"/>
    <path d="M4659 5886 c-60 -16 -130 -58 -163 -97 -15 -17 -25 -33 -23 -36 3 -2&#xA;24 9 48 25 67 44 123 62 193 62 54 0 75 -6 130 -35 78 -41 90 -43 81 -12 -12&#xA;38 -57 77 -109 92 -59 18 -95 18 -157 1z"/>
    <path d="M5322 5527 c-66 -68 -93 -234 -57 -355 39 -129 145 -121 212 16 25&#xA;50 28 68 28 147 -1 72 -5 100 -24 143 -40 90 -101 109 -159 49z"/>
    <path d="M4650 5511 c-46 -49 -70 -113 -77 -212 -10 -130 27 -229 86 -229 79&#xA;0 144 128 144 285 1 94 -15 147 -50 175 -37 29 -62 25 -103 -19z"/>
    <path d="M9379 5125 c-58 -31 -63 -123 -9 -169 42 -35 63 -39 105 -22 25 11&#xA;40 26 51 52 42 99 -54 190 -147 139z m97 -70 c11 -16 11 -25 1 -45 -17 -33&#xA;-54 -33 -79 1 -17 22 -18 30 -8 48 14 28 67 25 86 -4z"/>
    <path d="M5520 4916 c-36 -13 -112 -41 -170 -64 -58 -22 -143 -49 -190 -58&#xA;-114 -25 -302 -24 -435 2 -161 31 -221 25 -280 -28 -51 -44 -67 -80 -67 -151&#xA;0 -298 417 -548 834 -499 139 17 248 46 353 96 162 77 265 173 329 306 28 58&#xA;31 75 31 155 0 74 -4 98 -22 132 -64 119 -226 165 -383 109z m192 -347 c44&#xA;-10 101 -31 116 -45 9 -7 -62 -95 -116 -145 -103 -96 -282 -173 -461 -199 -97&#xA;-15 -306 -9 -324 9 -29 29 86 180 195 254 83 57 217 107 348 130 52 9 191 7&#xA;242 -4z"/>
    <path d="M878 4776 c-8 -8 -28 -55 -43 -104 l-28 -91 -76 -7 c-82 -7 -111 -17&#xA;-111 -38 0 -7 34 -39 75 -71 41 -31 75 -58 75 -59 0 0 -9 -48 -19 -106 -27&#xA;-146 -20 -149 104 -51 l55 43 69 -41 c144 -85 157 -78 110 69 l-32 101 73 74&#xA;c97 97 94 105 -43 105 l-104 0 -33 85 c-37 96 -51 113 -72 91z m152 -226 l84&#xA;0 -57 -57 -56 -58 24 -80 c14 -44 25 -81 25 -82 0 -1 -30 16 -67 38 -37 21&#xA;-72 39 -78 39 -6 0 -34 -21 -63 -46 -28 -25 -52 -43 -52 -41 0 3 7 41 15 84 8&#xA;43 15 81 15 85 0 4 -25 25 -56 47 l-55 39 58 7 c81 9 79 8 93 67 26 110 29&#xA;112 58 31 l27 -73 85 0z"/>
    <path d="M9391 3719 c-64 -64 -35 -154 50 -154 58 0 93 41 86 98 -11 84 -80&#xA;112 -136 56z m79 -50 c14 -25 -2 -49 -32 -49 -24 0 -33 23 -18 49 14 27 36 27&#xA;50 0z"/>
    <path d="M984 3440 c-11 -4 -33 -23 -48 -41 -24 -28 -27 -39 -23 -74 7 -50 53&#xA;-95 98 -95 62 0 114 89 90 152 -16 44 -77 74 -117 58z m60 -66 c22 -21 20 -50&#xA;-5 -75 -18 -18 -23 -19 -42 -6 -36 24 -42 42 -24 71 20 29 48 34 71 10z"/>
    <path d="M8964 2849 c-97 -133 -74 -122 -182 -98 -87 20 -95 20 -110 5 -15&#xA;-14 -15 -19 -3 -39 8 -12 34 -54 58 -93 l44 -71 -55 -95 c-86 -146 -78 -158&#xA;72 -100 l101 40 78 -89 c75 -87 105 -105 117 -73 3 9 6 64 6 123 l0 107 101&#xA;54 c56 30 104 61 107 69 8 21 -17 35 -126 65 l-100 28 -7 106 c-9 167 -20 173&#xA;-101 61z m55 -26 c-1 -5 -1 -47 0 -94 l1 -86 38 -11 c20 -6 64 -18 97 -28 l59&#xA;-17 -87 -43 -87 -44 0 -97 0 -98 -43 50 c-24 28 -55 63 -68 78 l-24 28 -83&#xA;-34 c-45 -20 -82 -33 -82 -30 0 2 20 38 45 79 25 40 45 78 45 83 0 5 -20 39&#xA;-44 75 -24 36 -39 66 -33 66 7 0 37 -7 67 -15 30 -8 61 -15 67 -15 7 0 37 36&#xA;65 80 47 70 71 96 67 73z"/>
    <path d="M1129 2520 c-190 -22 -368 -112 -394 -199 l-7 -24 38 23 c153 92 255&#xA;129 385 137 222 15 438 -61 645 -227 96 -77 134 -96 134 -66 0 8 -23 40 -52&#xA;71 -172 189 -500 313 -749 285z"/>
    <path d="M1139 2110 c-151 -24 -282 -91 -389 -199 -122 -123 -170 -239 -170&#xA;-415 0 -176 55 -311 180 -437 216 -219 542 -277 763 -137 46 29 87 72 87 89 0&#xA;17 -25 8 -80 -27 -185 -117 -451 -93 -661 62 -170 125 -257 347 -216 554 9 45&#xA;28 108 43 139 39 80 151 189 239 233 123 62 168 73 290 72 125 0 189 -15 300&#xA;-71 153 -76 253 -164 440 -383 156 -183 254 -277 345 -330 96 -56 203 -83 254&#xA;-64 33 12 14 30 -43 42 -151 31 -289 142 -516 412 -180 214 -282 303 -442 383&#xA;-135 68 -295 97 -424 77z"/>
    <path d="M2512 1831 c-98 -34 -156 -114 -156 -216 0 -96 52 -173 141 -210 101&#xA;-43 233 17 233 105 0 33 -19 60 -40 60 -16 0 -20 -7 -20 -38 0 -117 -183 -103&#xA;-246 19 -38 75 0 164 91 212 58 30 167 28 257 -5 175 -65 268 -206 255 -387&#xA;-16 -237 -186 -391 -447 -408 -172 -11 -360 54 -514 178 -42 33 -135 128 -206&#xA;210 -181 207 -273 281 -405 327 -97 34 -225 29 -308 -11 -214 -105 -223 -378&#xA;-16 -492 46 -25 65 -30 125 -30 61 0 76 4 113 28 25 16 49 43 57 62 36 88 -3&#xA;185 -75 185 -27 0 -26 -6 4 -42 64 -76 6 -178 -102 -178 -49 1 -110 28 -152&#xA;71 -71 71 -81 161 -28 249 26 45 43 60 97 88 62 32 69 34 152 30 75 -4 96 -9&#xA;160 -40 99 -50 193 -131 317 -277 190 -223 321 -326 485 -382 255 -88 527 -41&#xA;677 117 169 179 176 480 15 652 -112 119 -317 174 -464 123z"/>
    <path d="M8958 1840 c-85 -14 -203 -56 -296 -106 -150 -82 -266 -189 -513&#xA;-474 -182 -211 -309 -307 -484 -365 -95 -32 -233 -43 -317 -26 -208 44 -336&#xA;219 -298 407 43 211 227 381 480 445 147 37 317 13 399 -57 154 -132 50 -349&#xA;-207 -431 -146 -46 -262 -17 -262 66 0 56 146 147 253 158 46 5 57 9 57 24 0&#xA;65 -169 37 -283 -47 -60 -43 -87 -87 -87 -139 0 -90 71 -145 188 -145 184 0&#xA;384 114 449 256 21 47 25 66 21 128 -4 96 -40 157 -118 204 -81 48 -149 65&#xA;-265 65 -121 0 -210 -21 -320 -73 -191 -91 -329 -250 -366 -420 -15 -72 -6&#xA;-182 20 -252 26 -67 101 -154 164 -191 167 -98 404 -95 609 9 153 76 260 168&#xA;463 399 218 247 329 343 483 420 103 51 196 76 302 82 315 17 552 -172 552&#xA;-442 0 -221 -148 -413 -376 -490 -173 -58 -372 -19 -427 85 -39 72 -9 181 60&#xA;227 46 31 58 29 65 -10 3 -19 16 -43 29 -55 87 -81 247 -39 308 81 32 61 24&#xA;153 -17 204 -68 85 -196 123 -334 99 -161 -29 -281 -111 -463 -319 -168 -192&#xA;-266 -283 -367 -342 -70 -41 -81 -50 -61 -53 38 -6 149 43 223 97 36 27 112&#xA;103 169 168 234 269 346 357 492 387 149 32 288 -22 318 -124 30 -99 -95 -210&#xA;-192 -170 -35 15 -59 46 -59 77 0 57 -97 52 -166 -9 -47 -42 -75 -99 -81 -169&#xA;-5 -47 -1 -66 20 -112 46 -100 149 -151 307 -151 107 0 173 16 280 67 67 33&#xA;102 58 165 122 92 91 127 150 155 261 24 92 25 157 5 243 -43 181 -191 326&#xA;-384 376 -79 20 -216 27 -293 15z"/>
    <path d="M6050 1417 c-14 -7 -33 -29 -44 -51 -47 -96 52 -192 142 -136 40 24&#xA;55 62 48 115 -9 71 -79 106 -146 72z m92 -72 c9 -19 8 -29 -6 -50 -29 -44 -86&#xA;-28 -86 25 0 34 17 50 52 50 20 0 32 -7 40 -25z"/>
    <path d="M3784 1084 c-36 -17 -54 -51 -54 -97 1 -79 90 -114 151 -59 82 73 -1&#xA;205 -97 156z m64 -56 c38 -38 -13 -95 -52 -57 -17 15 -18 22 -8 44 12 27 40&#xA;33 60 13z"/>
    <path d="M5115 1041 c-33 -14 -56 -47 -62 -90 -11 -79 34 -131 113 -131 53 0&#xA;104 53 104 109 0 22 -5 52 -12 66 -21 46 -89 68 -143 46z m91 -76 c35 -54 -18&#xA;-116 -70 -82 -33 22 -41 52 -22 82 22 34 70 34 92 0z"/>
  </g>
  <title>Black Hole Swirls</title>
  <desc>Black Hole Swirls</desc>
</svg>