<?xml version="1.0" encoding="UTF-8" standalone="yes"?>
<svg version="1.0" xmlns="http://www.w3.org/2000/svg" width="1024.000000pt" height="1024.000000pt" viewBox="0 0 1024.000000 1024.000000" preserveAspectRatio="xMidYMid meet">
  <metadata>
Created by potrace 1.16, written by Peter Selinger 2001-2019
</metadata>
  <g transform="translate(0.000000,1024.000000) scale(0.100000,-0.100000)" fill="#000000" stroke="none">
    <path d="M2110 9319 c-198 -24 -370 -142 -458 -315 -46 -90 -66 -175 -66 -281&#xA;-1 -102 -3 -111 -21 -94 -6 5 -26 14 -45 20 -169 53 -341 -22 -421 -185 -38&#xA;-76 -41 -137 -11 -186 23 -37 50 -53 115 -67 23 -5 541 -11 1157 -12 l1115 -3&#xA;42 22 c85 44 122 148 84 232 -23 51 -40 71 -91 105 -42 28 -51 30 -140 30 -73&#xA;0 -101 -4 -120 -17 l-25 -17 0 82 c-1 128 -54 223 -147 261 -47 20 -135 20&#xA;-202 1 -57 -17 -146 -68 -146 -85 0 -5 -4 -10 -10 -10 -5 0 -10 15 -10 33 -1&#xA;88 -62 234 -131 311 -125 141 -280 199 -469 175z m-53 -35 c-3 -3 -12 -4 -19&#xA;-1 -8 3 -5 6 6 6 11 1 17 -2 13 -5z m40 0 c-3 -3 -12 -4 -19 -1 -8 3 -5 6 6 6&#xA;11 1 17 -2 13 -5z m253 -4 c0 -5 -2 -10 -4 -10 -3 0 -8 5 -11 10 -3 6 -1 10 4&#xA;10 6 0 11 -4 11 -10z m-14 -25 c66 -19 164 -85 208 -138 76 -94 132 -254 123&#xA;-349 -7 -74 6 -80 56 -27 116 124 283 161 377 83 73 -62 104 -181 73 -289 -10&#xA;-33 -12 -60 -7 -65 5 -5 32 7 66 29 76 52 142 61 221 31 86 -32 132 -108 113&#xA;-185 -11 -43 -71 -93 -119 -100 -23 -3 -535 -5 -1137 -3 -1195 3 -1143 1&#xA;-1184 59 -54 78 47 247 177 297 92 35 167 28 274 -26 29 -14 55 -23 59 -20 3&#xA;4 2 51 -3 105 -11 118 4 207 49 297 87 172 214 272 388 306 96 19 189 17 266&#xA;-5z m208 -101 c3 -8 2 -12 -4 -9 -6 3 -10 10 -10 16 0 14 7 11 14 -7z m96&#xA;-134 c0 -5 -2 -10 -4 -10 -3 0 -8 5 -11 10 -3 6 -1 10 4 10 6 0 11 -4 11 -10z&#xA;m47 -192 c-3 -8 -6 -5 -6 6 -1 11 2 17 5 13 3 -3 4 -12 1 -19z m511 -113 c-3&#xA;-3 -9 2 -12 12 -6 14 -5 15 5 6 7 -7 10 -15 7 -18z m-1801 -71 c-3 -3 -12 -4&#xA;-19 -1 -8 3 -5 6 6 6 11 1 17 -2 13 -5z m223 -34 c0 -5 -5 -10 -11 -10 -5 0&#xA;-7 5 -4 10 3 6 8 10 11 10 2 0 4 -4 4 -10z m1830 -49 c0 -5 -9 -7 -20 -4 -11&#xA;3 -20 7 -20 9 0 2 9 4 20 4 11 0 20 -4 20 -9z m108 -82 c-3 -8 -7 -3 -11 10&#xA;-4 17 -3 21 5 13 5 -5 8 -16 6 -23z m-2457 -76 c-12 -20 -14 -14 -5 12 4 9 9&#xA;14 11 11 3 -2 0 -13 -6 -23z m-6 -52 c3 -5 2 -12 -3 -15 -5 -3 -9 1 -9 9 0 17&#xA;3 19 12 6z m2 -53 c-3 -8 -6 -5 -6 6 -1 11 2 17 5 13 3 -3 4 -12 1 -19z m553&#xA;-84 c0 -2 -7 -4 -15 -4 -8 0 -15 4 -15 10 0 5 7 7 15 4 8 -4 15 -8 15 -10z&#xA;m175 -2 c-3 -3 -11 0 -18 7 -9 10 -8 11 6 5 10 -3 15 -9 12 -12z m75 14 c0 -3&#xA;-4 -8 -10 -11 -5 -3 -10 -1 -10 4 0 6 5 11 10 11 6 0 10 -2 10 -4z m55 -6 c3&#xA;-5 1 -10 -4 -10 -6 0 -11 5 -11 10 0 6 2 10 4 10 3 0 8 -4 11 -10z m495 0 c0&#xA;-5 -2 -10 -4 -10 -3 0 -8 5 -11 10 -3 6 -1 10 4 10 6 0 11 -4 11 -10z m120 0&#xA;c0 -5 -2 -10 -4 -10 -3 0 -8 5 -11 10 -3 6 -1 10 4 10 6 0 11 -4 11 -10z m830&#xA;6 c0 -3 -4 -8 -10 -11 -5 -3 -10 -1 -10 4 0 6 5 11 10 11 6 0 10 -2 10 -4z&#xA;m-1183 -12 c-3 -3 -12 -4 -19 -1 -8 3 -5 6 6 6 11 1 17 -2 13 -5z m680 0 c-3&#xA;-3 -12 -4 -19 -1 -8 3 -5 6 6 6 11 1 17 -2 13 -5z"/>
    <path d="M7611 9315 c-173 -42 -310 -178 -356 -351 -19 -72 -20 -233 -2 -295&#xA;l14 -45 -46 24 c-40 20 -57 23 -127 20 -65 -3 -90 -9 -126 -31 -55 -32 -97&#xA;-79 -127 -139 -63 -130 -21 -242 107 -286 44 -15 1869 -17 1923 -2 51 14 99&#xA;49 131 95 23 32 29 52 29 96 1 32 -6 69 -14 86 -21 39 -87 98 -134 119 -64 28&#xA;-215 28 -283 0 -12 -5 -14 2 -12 43 10 140 -99 256 -238 255 -60 -1 -90 -13&#xA;-130 -50 l-25 -23 -2 60 c-1 37 -12 87 -27 127 -88 228 -322 353 -555 297z&#xA;m156 -11 c-3 -3 -12 -4 -19 -1 -8 3 -5 6 6 6 11 1 17 -2 13 -5z m-197 -28 c0&#xA;-3 -4 -8 -10 -11 -5 -3 -10 -1 -10 4 0 6 5 11 10 11 6 0 10 -2 10 -4z m282&#xA;-16 c70 -21 173 -90 202 -135 9 -14 22 -23 28 -19 6 4 8 3 5 -4 -4 -5 5 -34&#xA;19 -62 35 -69 53 -178 42 -249 -12 -73 4 -89 40 -43 14 19 41 50 59 70 33 36&#xA;37 37 102 37 57 0 74 -4 109 -28 55 -36 82 -91 83 -168 1 -48 -3 -67 -21 -91&#xA;-37 -50 -12 -57 71 -18 152 70 324 32 381 -85 27 -55 19 -103 -28 -154 -59&#xA;-67 -28 -65 -1024 -64 -493 0 -916 3 -941 7 -102 16 -146 110 -100 212 42 92&#xA;119 148 221 159 49 6 62 3 124 -29 106 -54 109 -52 77 62 -19 68 -22 213 -7&#xA;277 26 109 132 247 226 295 104 53 223 64 332 30z m-347 -20 c-3 -5 -12 -10&#xA;-18 -10 -7 0 -6 4 3 10 19 12 23 12 15 0z m540 -68 c-3 -3 -11 0 -18 7 -9 10&#xA;-8 11 6 5 10 -3 15 -9 12 -12z m-710 -103 c-4 -5 -12 -9 -18 -8 -9 0 -8 2 1 6&#xA;6 2 9 10 6 15 -4 7 -2 8 5 4 6 -4 9 -12 6 -17z m1070 -189 c13 -6 2 -7 -30 -3&#xA;-27 3 -52 7 -54 9 -9 8 65 2 84 -6z m-1148 -52 c-3 -7 -5 -2 -5 12 0 14 2 19&#xA;5 13 2 -7 2 -19 0 -25z m1688 -278 c26 -28 15 -31 -14 -3 -13 13 -20 23 -14&#xA;23 5 0 18 -9 28 -20z m-2088 -82 c-3 -8 -6 -5 -6 6 -1 11 2 17 5 13 3 -3 4&#xA;-12 1 -19z m440 -244 c-3 -3 -12 -4 -19 -1 -8 3 -5 6 6 6 11 1 17 -2 13 -5z&#xA;m260 0 c-3 -3 -12 -4 -19 -1 -8 3 -5 6 6 6 11 1 17 -2 13 -5z m360 0 c-3 -3&#xA;-12 -4 -19 -1 -8 3 -5 6 6 6 11 1 17 -2 13 -5z m766 -1 c-7 -2 -19 -2 -25 0&#xA;-7 3 -2 5 12 5 14 0 19 -2 13 -5z m134 1 c-3 -3 -12 -4 -19 -1 -8 3 -5 6 6 6&#xA;11 1 17 -2 13 -5z"/>
    <path d="M6222 8061 c-101 -34 -161 -95 -231 -231 -78 -153 -101 -254 -101&#xA;-445 0 -66 2 -129 4 -140 2 -11 7 -44 11 -72 6 -50 5 -53 -18 -62 -29 -11 -91&#xA;-101 -105 -154 -14 -51 -8 -128 13 -160 15 -24 15 -28 0 -58 -24 -46 -17 -139&#xA;14 -180 22 -29 22 -32 6 -41 -26 -15 -55 -87 -55 -139 0 -28 9 -63 23 -90 22&#xA;-43 22 -45 4 -80 -25 -52 -25 -148 1 -200 l20 -41 -23 -50 c-29 -62 -28 -133&#xA;3 -196 l21 -43 -25 -36 c-34 -51 -36 -130 -3 -175 10 -15 19 -29 19 -32 0 -3&#xA;-101 -6 -225 -8 l-225 -3 -37 -38 -38 -37 -4 -130 -3 -130 -67 -1 c-36 0 -313&#xA;-2 -614 -4 l-548 -4 6 64 c7 71 -7 135 -36 161 -10 9 -39 19 -64 21 l-45 6 0&#xA;549 0 548 25 12 c14 6 26 18 26 27 1 9 3 23 4 31 1 8 3 61 4 117 l1 102 258 1&#xA;c340 2 515 8 544 19 35 13 77 57 95 98 14 32 17 84 19 333 3 310 -3 374 -36&#xA;420 -24 33 -43 43 -305 150 -110 45 -226 94 -257 107 -54 24 -63 25 -180 19&#xA;-68 -4 -168 -8 -223 -11 -55 -2 -145 -6 -200 -9 -92 -5 -194 -9 -520 -21 -340&#xA;-12 -395 -17 -428 -39 -18 -12 -42 -40 -53 -63 -21 -41 -21 -52 -19 -460 2&#xA;-451 2 -449 57 -500 44 -41 65 -43 473 -43 l394 0 3 -132 3 -133 28 -13 27&#xA;-13 0 -550 -1 -549 -35 0 c-43 0 -89 -23 -105 -52 -6 -11 -11 -54 -11 -94 0&#xA;-62 -15 -160 -17 -114 -1 14 -37 16 -307 14 -169 -1 -322 -5 -340 -9 -40 -7&#xA;-89 -46 -110 -86 -19 -38 -50 -38 -167 3 -102 34 -132 58 -171 136 -39 78&#xA;-121 156 -201 194 -68 32 -74 33 -200 33 -216 0 -277 -33 -507 -277 -73 -77&#xA;-149 -148 -168 -158 -20 -10 -75 -25 -123 -33 -142 -25 -255 -91 -428 -251&#xA;-36 -34 -57 -61 -53 -68 4 -7 3 -8 -5 -4 -14 9 -27 -22 -14 -35 7 -7 48 23&#xA;124 91 176 158 242 194 401 224 106 20 156 45 215 111 209 230 321 323 411&#xA;344 115 27 265 15 348 -27 54 -28 126 -102 159 -164 29 -55 77 -113 108 -130&#xA;31 -16 177 -57 214 -60 38 -2 39 -4 47 -58 3 -19 24 -127 47 -240 22 -113 43&#xA;-216 45 -230 13 -72 57 -276 61 -282 2 -5 -11 -9 -29 -9 -18 -1 -46 -3 -63 -4&#xA;-16 -2 -57 -6 -90 -9 -33 -3 -87 -8 -120 -11 -113 -11 -150 -14 -275 -25 -125&#xA;-11 -175 -16 -260 -25 -25 -3 -76 -7 -115 -10 -86 -7 -170 -15 -210 -20 -16&#xA;-2 -73 -9 -125 -15 -118 -13 -137 -16 -280 -35 -63 -9 -131 -18 -150 -21 -148&#xA;-20 -371 -59 -432 -75 -52 -13 -49 -47 3 -41 41 6 154 24 189 32 25 5 97 17&#xA;160 26 63 8 126 18 140 20 14 2 129 18 255 34 219 28 329 39 740 75 99 9 214&#xA;20 255 25 41 5 111 12 155 15 117 9 235 24 247 31 4 3 10 -5 13 -18 12 -49 34&#xA;-162 32 -163 -1 -1 -44 -30 -95 -64 -89 -60 -95 -62 -125 -51 -18 7 -61 16&#xA;-97 20 -36 5 -92 14 -125 20 -115 20 -351 24 -459 6 -55 -9 -105 -20 -110 -25&#xA;-6 -4 -27 -14 -46 -21 -60 -23 -165 -98 -226 -163 -130 -137 -202 -288 -238&#xA;-500 -53 -307 36 -635 219 -806 38 -35 49 -41 57 -30 8 11 9 11 5 -3 -7 -21&#xA;41 -59 125 -98 l63 -29 -80 -1 c-98 -1 -243 -9 -270 -15 -11 -2 -23 -4 -27 -4&#xA;-5 -1 -8 -8 -8 -16 0 -15 13 -19 65 -16 17 1 257 4 535 6 285 3 516 9 530 14&#xA;14 6 141 12 283 13 253 4 290 9 272 37 -4 8 -70 11 -203 10 -108 0 -201 0&#xA;-207 0 -5 1 6 11 25 22 52 32 147 127 190 189 126 185 186 402 177 637 -6 150&#xA;-11 183 -43 281 -29 90 -75 178 -120 230 l-34 40 34 26 35 26 62 -37 63 -38&#xA;286 -2 c157 -1 303 -2 325 -3 l41 0 -38 -79 c-22 -43 -41 -87 -43 -97 -64&#xA;-268 -57 -487 24 -674 68 -157 159 -262 286 -329 l40 -21 -85 -1 c-269 -4&#xA;-313 -10 -295 -39 4 -7 62 -11 183 -10 97 0 225 1 284 0 l108 0 26 -42 c40&#xA;-65 175 -193 235 -225 30 -15 78 -37 108 -49 l53 -21 -143 -6 c-137 -7 -168&#xA;-14 -155 -35 7 -11 704 -7 941 5 72 4 227 7 345 8 118 1 221 2 228 3 10 2 18&#xA;29 10 33 -2 1 -82 5 -178 8 l-175 6 47 24 c67 34 196 165 245 249 l25 42 144&#xA;-6 c127 -5 145 -4 150 11 12 30 7 31 -168 33 l-107 2 31 68 c17 37 45 85 63&#xA;107 73 92 122 193 158 325 29 110 33 369 7 471 -24 93 -65 197 -86 221 -16 17&#xA;-15 18 22 18 545 4 547 4 590 27 23 12 55 34 72 48 l31 26 77 -51 c110 -72&#xA;107 -68 84 -92 -24 -26 -93 -165 -115 -233 -23 -69 -53 -238 -56 -316 -9 -202&#xA;51 -445 147 -597 58 -90 198 -223 264 -249 30 -11 64 -25 75 -29 12 -5 -37&#xA;-11 -125 -16 -159 -8 -170 -10 -170 -33 0 -13 33 -14 263 -12 144 2 336 1 427&#xA;-2 91 -4 203 -3 250 1 47 4 194 8 327 8 222 0 242 1 246 17 4 17 5 17 6 1 0&#xA;-10 6 -18 11 -18 14 0 13 27 -1 36 -11 7 -165 14 -298 14 l-64 0 59 41 c83 58&#xA;105 80 99 99 -3 10 2 23 12 31 16 13 17 12 4 -4 -21 -27 -4 -33 19 -6 197 234&#xA;284 628 210 959 -71 317 -246 536 -469 586 -61 14 -130 18 -341 18 -294 1&#xA;-362 -5 -354 -32 5 -14 4 -15 -5 -2 -8 12 -17 13 -58 2 -26 -7 -70 -23 -98&#xA;-36 l-50 -22 -143 95 -143 96 5 54 c3 29 6 55 8 57 3 2 103 -3 224 -11 315&#xA;-21 354 -24 504 -40 74 -8 164 -17 200 -20 56 -4 258 -24 410 -39 161 -16 346&#xA;-42 660 -91 106 -17 121 -20 235 -40 44 -8 96 -17 115 -20 19 -3 42 -8 50 -10&#xA;8 -2 31 -6 50 -9 19 -3 76 -14 125 -26 109 -24 121 -24 129 -5 4 11 -3 19 -22&#xA;26 -50 19 -488 101 -747 140 -71 10 -145 21 -162 24 -18 3 -113 16 -210 29&#xA;-175 24 -228 30 -348 41 -33 3 -80 8 -105 10 -25 2 -81 7 -124 11 -44 3 -104&#xA;10 -135 14 -31 4 -68 7 -83 6 -16 -1 -28 0 -28 3 1 13 99 77 150 98 43 17 75&#xA;23 145 23 139 1 198 36 307 185 86 117 164 194 228 223 48 23 68 26 155 25&#xA;120 -1 220 -23 292 -64 60 -35 99 -78 142 -159 45 -83 101 -131 196 -165 44&#xA;-16 140 -57 214 -92 73 -34 137 -60 142 -57 25 15 -2 38 -108 91 -65 33 -160&#xA;75 -211 94 -107 39 -141 67 -201 169 -47 78 -126 154 -190 182 -110 47 -315&#xA;64 -417 33 -28 -8 -69 -28 -91 -44 -41 -29 -147 -151 -216 -247 -67 -93 -127&#xA;-124 -242 -124 -113 -1 -204 -34 -310 -116 l-60 -46 -85 7 c-82 5 -132 9 -250&#xA;19 -30 3 -113 8 -185 12 -71 4 -131 8 -133 9 -2 2 7 74 20 162 l23 158 73 -1&#xA;c64 -2 75 -5 92 -27 11 -13 33 -30 50 -37 42 -17 204 -9 247 13 71 37 110 128&#xA;99 233 -7 66 -16 42 145 382 27 57 49 105 49 107 0 2 18 43 41 92 23 48 51&#xA;111 64 138 37 81 75 165 111 243 l33 72 56 0 c36 0 57 -4 59 -12 2 -7 20 -74&#xA;40 -148 56 -204 40 -186 236 -275 124 -56 176 -75 192 -70 22 7 193 110 231&#xA;139 9 7 17 18 17 24 0 8 -187 86 -361 151 -22 8 -29 21 -42 78 -21 83 -22 153&#xA;-3 196 30 71 128 134 190 123 31 -6 161 -57 279 -110 73 -33 97 -34 96 -3 0&#xA;12 -15 80 -32 152 l-33 129 -49 18 c-28 10 -93 30 -144 44 -158 43 -297 26&#xA;-405 -49 -27 -19 -29 -19 -38 -2 -23 40 -82 95 -125 116 -53 26 -187 44 -318&#xA;43 -129 -1 -192 -38 -245 -143 -19 -38 -22 -57 -18 -116 5 -77 35 -138 90&#xA;-185 l30 -26 -57 -119 c-31 -65 -54 -124 -51 -131 3 -8 1 -13 -5 -11 -8 2 -67&#xA;-120 -195 -408 -20 -44 -47 -105 -61 -135 -14 -30 -32 -72 -40 -92 -14 -34&#xA;-19 -38 -50 -38 -28 0 -43 -8 -68 -35 -27 -28 -42 -35 -84 -39 -59 -5 -56 -11&#xA;-40 99 18 124 19 184 3 227 -32 91 -59 98 -349 101 l-220 2 3 120 c3 130 -7&#xA;164 -60 199 -33 22 -56 24 -207 25 l-135 1 22 20 c47 44 52 156 8 207 l-22 25&#xA;23 46 c29 58 31 151 4 202 -19 35 -19 35 6 78 22 37 25 52 21 112 -2 49 -9 77&#xA;-24 96 l-20 27 23 45 c30 59 30 131 0 192 -21 43 -22 46 -5 76 30 51 25 147&#xA;-8 185 -12 14 -11 18 6 34 19 17 21 16 92 -56 40 -41 94 -84 119 -97 25 -13&#xA;63 -39 85 -58 21 -19 68 -50 104 -67 57 -28 74 -32 150 -32 62 0 94 5 117 18&#xA;82 44 144 146 169 277 18 91 16 288 -3 408 -7 47 -10 89 -6 93 20 18 326 120&#xA;332 111 9 -15 58 -32 92 -32 48 0 85 26 110 76 20 43 21 51 10 93 -23 85 -53&#xA;111 -131 111 -57 0 -87 -18 -110 -65 -11 -23 -20 -46 -20 -52 0 -6 -71 -27&#xA;-157 -48 -87 -21 -162 -39 -168 -41 -5 -2 -27 49 -48 115 -84 262 -212 463&#xA;-334 522 -56 27 -156 32 -221 10z m65 -7 c-3 -3 -12 -4 -19 -1 -8 3 -5 6 6 6&#xA;11 1 17 -2 13 -5z m-47 -8 c0 -2 -8 -10 -17 -17 -16 -13 -17 -12 -4 4 13 16&#xA;21 21 21 13z m200 -48 c68 -41 133 -122 196 -242 27 -52 52 -92 56 -90 4 2 10&#xA;-1 14 -7 4 -8 3 -9 -4 -5 -17 10 -15 -6 9 -66 36 -90 60 -181 49 -188 -6 -4&#xA;-45 -15 -86 -24 -83 -20 -87 -18 -100 34 -11 40 -55 131 -95 191 -50 74 -100&#xA;111 -158 117 -57 5 -93 -20 -124 -87 -19 -40 -22 -64 -21 -186 0 -119 4 -155&#xA;27 -240 81 -300 260 -503 391 -444 46 21 61 71 61 204 0 66 -4 141 -8 166 l-8&#xA;47 81 31 c45 17 85 31 89 31 15 0 36 -184 36 -310 0 -71 -6 -149 -14 -180 -15&#xA;-60 -64 -160 -90 -183 -76 -69 -190 -78 -296 -25 -146 74 -312 310 -389 555&#xA;-63 203 -70 239 -70 403 0 221 39 350 132 438 104 98 221 120 322 60z m-330&#xA;-52 c0 -2 -7 -6 -15 -10 -8 -3 -15 -1 -15 4 0 6 7 10 15 10 8 0 15 -2 15 -4z&#xA;m-65 -65 c3 -5 2 -12 -3 -15 -5 -3 -9 1 -9 9 0 17 3 19 12 6z m-2575 -71 c0&#xA;-5 -2 -10 -4 -10 -3 0 -8 5 -11 10 -3 6 -1 10 4 10 6 0 11 -4 11 -10z m53 3&#xA;c-7 -2 -21 -2 -30 0 -10 3 -4 5 12 5 17 0 24 -2 18 -5z m734 -10 c55 -35 53&#xA;-16 51 -478 -1 -275 -5 -444 -12 -469 -12 -42 -45 -73 -86 -81 -14 -3 -339 -5&#xA;-722 -5 -624 -1 -700 1 -728 15 -59 30 -60 43 -60 490 0 361 2 408 16 431 34&#xA;52 54 55 439 69 83 3 175 8 205 10 30 3 125 7 210 10 204 7 384 16 387 19 2 2&#xA;64 4 137 5 115 2 139 0 163 -16z m236 -98 c265 -112 296 -127 314 -154 16 -24&#xA;18 -55 18 -352 l0 -325 -25 -37 c-13 -20 -36 -41 -50 -48 -31 -15 -440 -23&#xA;-440 -9 0 6 4 10 9 10 24 0 30 89 33 517 2 249 4 453 6 453 2 0 63 -25 135&#xA;-55z m1887 -25 c0 -5 -2 -10 -4 -10 -3 0 -8 5 -11 10 -3 6 -1 10 4 10 6 0 11&#xA;-4 11 -10z m-33 -12 c49 -21 105 -90 149 -183 23 -49 46 -102 49 -116 7 -27&#xA;-3 -31 -155 -64 -43 -9 -87 -19 -95 -21 -70 -18 -70 -18 -75 28 -19 168 3 306&#xA;57 348 30 23 33 24 70 8z m-2010 -65 c-2 -16 -4 -5 -4 22 0 28 2 40 4 28 2&#xA;-13 2 -35 0 -50z m2094 30 c13 -16 12 -17 -3 -4 -17 13 -22 21 -14 21 2 0 10&#xA;-8 17 -17z m309 -48 c0 -5 -5 -3 -10 5 -5 8 -10 20 -10 25 0 6 5 3 10 -5 5 -8&#xA;10 -19 10 -25z m510 11 c0 -2 -7 -7 -16 -10 -8 -3 -12 -2 -9 4 6 10 25 14 25&#xA;6z m97 -51 c52 -60 14 -155 -60 -155 -55 0 -78 26 -83 92 -3 51 -1 59 22 77&#xA;35 27 91 21 121 -14z m-3010 -42 c-2 -16 -4 -5 -4 22 0 28 2 40 4 28 2 -13 2&#xA;-35 0 -50z m2167 21 c3 -8 2 -12 -4 -9 -6 3 -10 10 -10 16 0 14 7 11 14 -7z&#xA;m-587 -16 c-3 -8 -6 -5 -6 6 -1 11 2 17 5 13 3 -3 4 -12 1 -19z m37 -165 c21&#xA;-177 104 -411 200 -561 43 -68 25 -59 -31 16 -136 179 -182 315 -188 552 -4&#xA;131 2 129 19 -7z m13 90 c-3 -10 -5 -2 -5 17 0 19 2 27 5 18 2 -10 2 -26 0&#xA;-35z m1170 31 c-3 -3 -12 -4 -19 -1 -8 3 -5 6 6 6 11 1 17 -2 13 -5z m26 -28&#xA;c4 -10 -6 -18 -31 -27 -20 -6 -71 -24 -112 -39 -41 -16 -127 -47 -190 -70&#xA;-111 -40 -189 -69 -335 -125 -133 -51 -208 -75 -214 -69 -3 3 -13 29 -22 57&#xA;-15 48 -16 53 0 59 9 4 117 33 241 63 124 31 254 63 290 72 36 10 70 18 75 19&#xA;6 1 58 14 115 29 128 34 163 43 171 44 4 1 9 -5 12 -13z m-306 -42 c-3 -3 -12&#xA;-4 -19 -1 -8 3 -5 6 6 6 11 1 17 -2 13 -5z m-4180 -36 c-3 -7 -5 -2 -5 12 0&#xA;14 2 19 5 13 2 -7 2 -19 0 -25z m3970 -14 c-3 -3 -12 -4 -19 -1 -8 3 -5 6 6 6&#xA;11 1 17 -2 13 -5z m-730 -76 c-3 -8 -6 -5 -6 6 -1 11 2 17 5 13 3 -3 4 -12 1&#xA;-19z m943 -82 c0 -3 -4 -8 -10 -11 -5 -3 -10 -1 -10 4 0 6 5 11 10 11 6 0 10&#xA;-2 10 -4z m-248 -71 c10 -58 10 -204 -1 -248 -14 -56 -38 -79 -75 -71 -73 16&#xA;-152 91 -207 197 -17 32 -29 60 -27 61 2 2 57 22 123 46 66 23 127 46 135 51&#xA;28 16 45 5 52 -36z m245 23 c-3 -8 -6 -5 -6 6 -1 11 2 17 5 13 3 -3 4 -12 1&#xA;-19z m-1997 -8 c0 -5 -2 -10 -4 -10 -3 0 -8 5 -11 10 -3 6 -1 10 4 10 6 0 11&#xA;-4 11 -10z m1398 -26 c-3 -14 -5 -12 -10 9 -3 19 -2 25 4 19 6 -6 8 -18 6 -28z&#xA;m-218 -9 c0 -5 -5 -3 -10 5 -5 8 -10 20 -10 25 0 6 5 3 10 -5 5 -8 10 -19 10&#xA;-25z m-1180 -25 c0 -11 -2 -20 -4 -20 -2 0 -6 9 -9 20 -3 11 -1 20 4 20 5 0 9&#xA;-9 9 -20z m1078 -42 c7 -29 30 -84 52 -122 22 -38 40 -73 40 -77 0 -5 -15 -18&#xA;-32 -29 -59 -36 -147 -20 -168 30 -18 43 -14 113 8 156 21 41 66 94 79 94 5 0&#xA;14 -24 21 -52z m42 -8 c0 -5 -5 -10 -11 -10 -5 0 -7 5 -4 10 3 6 8 10 11 10 2&#xA;0 4 -4 4 -10z m-157 -25 c-3 -9 -8 -14 -10 -11 -3 3 -2 9 2 15 9 16 15 13 8&#xA;-4z m267 -36 c12 -23 20 -43 18 -45 -3 -2 -14 17 -26 41 -27 56 -20 60 8 4z&#xA;m230 21 c0 -5 -2 -10 -4 -10 -3 0 -8 5 -11 10 -3 6 -1 10 4 10 6 0 11 -4 11&#xA;-10z m-1993 -77 c-3 -10 -5 -2 -5 17 0 19 2 27 5 18 2 -10 2 -26 0 -35z m1473&#xA;0 c-4 -42 -5 -44 -8 -15 -3 30 2 62 10 62 2 0 1 -21 -2 -47z m-1115 -153 c3&#xA;-5 -1 -10 -10 -10 -9 0 -13 5 -10 10 3 6 8 10 10 10 2 0 7 -4 10 -10z m-1418&#xA;-6 c-3 -3 -12 -4 -19 -1 -8 3 -5 6 6 6 11 1 17 -2 13 -5z m78 -4 c3 -6 -1 -7&#xA;-9 -4 -18 7 -21 14 -7 14 6 0 13 -4 16 -10z m452 4 c-3 -3 -12 -4 -19 -1 -8 3&#xA;-5 6 6 6 11 1 17 -2 13 -5z m2137 -4 c48 0 54 -3 66 -27 26 -54 24 -118 -6&#xA;-147 -20 -21 -93 -21 -122 0 -26 18 -52 65 -52 94 0 11 7 37 15 56 11 26 19&#xA;34 31 30 8 -3 39 -6 68 -6z m-2024 -135 l0 -115 -37 -1 c-21 -1 -84 -3 -140&#xA;-3 -119 -2 -111 -13 -112 137 l-1 97 145 0 145 0 0 -115z m27 3 c-3 -7 -5 -2&#xA;-5 12 0 14 2 19 5 13 2 -7 2 -19 0 -25z m-330 -40 c-3 -8 -6 -5 -6 6 -1 11 2&#xA;17 5 13 3 -3 4 -12 1 -19z m3157 -7 c3 -5 -1 -11 -9 -14 -9 -4 -12 -1 -8 9 6&#xA;16 10 17 17 5z m-2827 -63 c-3 -8 -6 -5 -6 6 -1 11 2 17 5 13 3 -3 4 -12 1&#xA;-19z m2018 2 c28 0 35 -6 51 -37 21 -46 21 -126 -2 -161 -23 -35 -73 -53 -116&#xA;-42 -49 14 -70 42 -76 99 -6 61 1 90 29 125 18 23 27 27 52 22 16 -3 44 -6 62&#xA;-6z m652 -16 c-3 -3 -12 -4 -19 -1 -8 3 -5 6 6 6 11 1 17 -2 13 -5z m-810 -46&#xA;c-3 -7 -5 -2 -5 12 0 14 2 19 5 13 2 -7 2 -19 0 -25z m-1938 -538 c-2 -294 -5&#xA;-543 -7 -552 -4 -15 -17 -18 -89 -18 l-85 0 5 553 c3 303 6 552 6 552 1 0 40&#xA;0 87 0 l86 0 -3 -535z m-192 403 c-3 -10 -5 -4 -5 12 0 17 2 24 5 18 2 -7 2&#xA;-21 0 -30z m2208 -63 c3 -5 1 -10 -4 -10 -6 0 -11 5 -11 10 0 6 2 10 4 10 3 0&#xA;8 -4 11 -10z m-1987 -25 c-3 -3 -9 2 -12 12 -6 14 -5 15 5 6 7 -7 10 -15 7&#xA;-18z m-231 -7 c-3 -8 -6 -5 -6 6 -1 11 2 17 5 13 3 -3 4 -12 1 -19z m2345 -18&#xA;c28 -40 33 -105 12 -152 -19 -42 -45 -58 -94 -58 -41 0 -76 18 -91 48 -19 35&#xA;-18 132 2 162 15 23 23 25 85 25 62 0 71 -2 86 -25z m56 -85 c-3 -3 -9 2 -12&#xA;12 -6 14 -5 15 5 6 7 -7 10 -15 7 -18z m1572 -25 c0 -5 -5 -10 -11 -10 -5 0&#xA;-7 5 -4 10 3 6 8 10 11 10 2 0 4 -4 4 -10z m215 -8 c-17 -11 -42 -35 -57 -54&#xA;-26 -34 -55 -124 -52 -163 4 -63 17 -115 38 -151 l24 -42 -42 6 c-162 21 -256&#xA;173 -190 309 40 84 94 111 219 112 l90 1 -30 -18z m219 -23 c50 -23 76 -48&#xA;105 -104 87 -165 -115 -375 -279 -290 -43 22 -87 83 -101 137 -23 98 7 181 86&#xA;240 41 31 58 38 98 38 27 0 66 -9 91 -21z m81 -19 c3 -6 -1 -7 -9 -4 -18 7&#xA;-21 14 -7 14 6 0 13 -4 16 -10z m235 -14 c0 -3 -4 -8 -10 -11 -5 -3 -10 -1&#xA;-10 4 0 6 5 11 10 11 6 0 10 -2 10 -4z m244 -5 c4 -5 -3 -7 -14 -4 -23 6 -26&#xA;13 -6 13 8 0 17 -4 20 -9z m74 -47 c57 -18 108 -31 113 -28 5 3 7 -1 4 -8 -2&#xA;-7 6 -56 19 -108 13 -52 22 -96 21 -98 -1 -2 -45 16 -96 38 -143 63 -194 80&#xA;-244 80 -122 0 -220 -103 -230 -239 -2 -41 11 -120 31 -182 17 -52 13 -50 189&#xA;-116 187 -70 181 -60 73 -124 -91 -55 -92 -55 -122 -40 -17 8 -87 41 -156 71&#xA;-91 41 -128 63 -137 81 -6 13 -29 90 -51 172 l-39 147 33 20 c43 27 90 82 109&#xA;127 8 19 15 64 15 99 0 35 4 64 9 64 5 0 32 14 60 31 108 68 222 71 399 13z&#xA;m-5031 4 c-3 -7 -5 -2 -5 12 0 14 2 19 5 13 2 -7 2 -19 0 -25z m2337 -66 c27&#xA;-56 16 -147 -24 -190 -31 -33 -91 -30 -131 6 -40 36 -51 109 -25 176 l17 43&#xA;74 -1 c73 -1 74 -1 89 -34z m1763 -14 c-3 -7 -5 -2 -5 12 0 14 2 19 5 13 2 -7&#xA;2 -19 0 -25z m-1730 -20 c-3 -8 -6 -5 -6 6 -1 11 2 17 5 13 3 -3 4 -12 1 -19z&#xA;m2450 -54 c-3 -3 -12 -4 -19 -1 -8 3 -5 6 6 6 11 1 17 -2 13 -5z m263 -74 c0&#xA;-5 -2 -10 -4 -10 -3 0 -8 5 -11 10 -3 6 -1 10 4 10 6 0 11 -4 11 -10z m-2920&#xA;-24 c0 -3 -4 -8 -10 -11 -5 -3 -10 -1 -10 4 0 6 5 11 10 11 6 0 10 -2 10 -4z&#xA;m55 -46 c3 -6 -1 -7 -9 -4 -18 7 -21 14 -7 14 6 0 13 -4 16 -10z m72 -6 c-3&#xA;-3 -12 -4 -19 -1 -8 3 -5 6 6 6 11 1 17 -2 13 -5z m1773 -14 c8 -5 11 -10 5&#xA;-10 -5 0 -17 5 -25 10 -8 5 -10 10 -5 10 6 0 17 -5 25 -10z m-1722 -36 c33&#xA;-62 3 -142 -62 -164 -99 -32 -182 76 -127 166 18 30 20 30 96 29 75 -2 78 -3&#xA;93 -31z m1774 8 c42 -4 80 -11 84 -15 4 -4 2 -17 -4 -30 -16 -32 -62 -137 -62&#xA;-141 0 -2 -22 -50 -49 -107 -27 -57 -76 -163 -110 -236 -33 -73 -78 -169 -99&#xA;-215 -22 -46 -54 -116 -72 -156 -33 -72 -33 -72 -54 -53 -33 29 -56 38 -123&#xA;46 l-61 7 18 31 c10 18 58 120 105 227 121 270 183 405 250 543 51 107 59 118&#xA;79 112 11 -4 56 -10 98 -13z m-1734 -47 c-3 -3 -9 2 -12 12 -6 14 -5 15 5 6 7&#xA;-7 10 -15 7 -18z m2022 -15 c0 -5 -2 -10 -4 -10 -3 0 -8 5 -11 10 -3 6 -1 10&#xA;4 10 6 0 11 -4 11 -10z m-2020 -18 c0 -10 -6 -27 -14 -38 -13 -17 -13 -15 -3&#xA;19 13 41 17 46 17 19z m-475 -132 c-3 -5 -12 -10 -18 -10 -7 0 -6 4 3 10 19&#xA;12 23 12 15 0z m83 -172 c2 -115 0 -148 -10 -149 -7 0 -84 -1 -171 -2 -183 -2&#xA;-169 -12 -167 116 4 166 25 184 218 183 l127 -1 3 -147z m662 127 c39 -23 49&#xA;-53 45 -137 -1 -29 -3 -73 -4 -98 l-1 -45 -263 1 c-144 1 -291 2 -327 3 l-65&#xA;1 0 151 0 151 290 -4 c270 -3 292 -4 325 -23z m2101 -2 c13 -15 12 -15 -8 -4&#xA;-24 12 -29 21 -14 21 5 0 15 -7 22 -17z m-297 -19 c3 -8 2 -12 -4 -9 -6 3 -10&#xA;10 -10 16 0 14 7 11 14 -7z m-6194 -4 c0 -5 -5 -10 -11 -10 -5 0 -7 5 -4 10 3&#xA;6 8 10 11 10 2 0 4 -4 4 -10z m3380 -5 c0 -8 -4 -15 -10 -15 -5 0 -7 7 -4 15&#xA;4 8 8 15 10 15 2 0 4 -7 4 -15z m-3263 -1 c-3 -3 -12 -4 -19 -1 -8 3 -5 6 6 6&#xA;11 1 17 -2 13 -5z m6468 -4 c3 -5 1 -10 -4 -10 -6 0 -11 5 -11 10 0 6 2 10 4&#xA;10 3 0 8 -4 11 -10z m-6765 -40 c0 -5 -2 -10 -4 -10 -3 0 -8 5 -11 10 -3 6 -1&#xA;10 4 10 6 0 11 -4 11 -10z m2206 -15 c31 -7 46 -52 42 -126 l-3 -64 -215 -2&#xA;c-118 -1 -223 0 -232 3 -15 4 -18 18 -18 78 0 102 8 110 112 116 91 5 281 2&#xA;314 -5z m1341 -17 c-3 -7 -5 -2 -5 12 0 14 2 19 5 13 2 -7 2 -19 0 -25z m390&#xA;-15 c-3 -10 -5 -2 -5 17 0 19 2 27 5 18 2 -10 2 -26 0 -35z m-3997 7 c0 -5 -2&#xA;-10 -4 -10 -3 0 -8 5 -11 10 -3 6 -1 10 4 10 6 0 11 -4 11 -10z m3607 -52 c-3&#xA;-7 -5 -2 -5 12 0 14 2 19 5 13 2 -7 2 -19 0 -25z m390 -45 c-2 -16 -4 -5 -4&#xA;22 0 28 2 40 4 28 2 -13 2 -35 0 -50z m700 25 c-3 -8 -6 -5 -6 6 -1 11 2 17 5&#xA;13 3 -3 4 -12 1 -19z m-4789 -8 c-7 -10 -14 -18 -15 -16 -6 6 9 36 18 36 5 0&#xA;4 -9 -3 -20z m3699 -22 c-3 -7 -5 -2 -5 12 0 14 2 19 5 13 2 -7 2 -19 0 -25z&#xA;m1090 -10 c-3 -8 -6 -5 -6 6 -1 11 2 17 5 13 3 -3 4 -12 1 -19z m-2370 -30&#xA;c-3 -8 -6 -5 -6 6 -1 11 2 17 5 13 3 -3 4 -12 1 -19z m-907 -48 c0 -5 -2 -10&#xA;-4 -10 -3 0 -8 5 -11 10 -3 6 -1 10 4 10 6 0 11 -4 11 -10z m35 -8 c-3 -3 -11&#xA;0 -18 7 -9 10 -8 11 6 5 10 -3 15 -9 12 -12z m115 13 c0 -7 -30 -13 -34 -7 -3&#xA;4 4 9 15 9 10 1 19 0 19 -2z m190 1 c0 -3 -4 -8 -10 -11 -5 -3 -10 -1 -10 4 0&#xA;6 5 11 10 11 6 0 10 -2 10 -4z m640 0 c0 -3 -4 -8 -10 -11 -5 -3 -10 -1 -10 4&#xA;0 6 5 11 10 11 6 0 10 -2 10 -4z m130 -6 c0 -5 -5 -10 -11 -10 -5 0 -7 5 -4&#xA;10 3 6 8 10 11 10 2 0 4 -4 4 -10z m170 6 c0 -3 -4 -8 -10 -11 -5 -3 -10 -1&#xA;-10 4 0 6 5 11 10 11 6 0 10 -2 10 -4z m2050 0 c0 -3 -4 -8 -10 -11 -5 -3 -10&#xA;-1 -10 4 0 6 5 11 10 11 6 0 10 -2 10 -4z m30 -6 c0 -5 -2 -10 -4 -10 -3 0 -8&#xA;5 -11 10 -3 6 -1 10 4 10 6 0 11 -4 11 -10z m140 6 c0 -3 -4 -8 -10 -11 -5 -3&#xA;-10 -1 -10 4 0 6 5 11 10 11 6 0 10 -2 10 -4z m-2040 -44 c46 -23 54 -56 75&#xA;-284 9 -101 22 -244 30 -318 8 -74 17 -166 21 -205 3 -38 7 -81 9 -95 2 -14 6&#xA;-61 10 -105 3 -44 8 -92 11 -107 5 -25 -3 -32 -111 -103 -93 -60 -116 -80&#xA;-112 -94 3 -13 -7 -27 -34 -47 -21 -16 -37 -35 -34 -42 3 -7 0 -10 -6 -7 -6 4&#xA;-16 0 -22 -9 -11 -15 -69 -16 -642 -14 -628 3 -630 3 -671 25 -43 23 -85 66&#xA;-109 112 -7 15 -30 108 -50 207 -21 98 -54 262 -75 364 -49 236 -84 411 -106&#xA;528 -16 87 -16 95 0 130 18 39 42 59 86 73 14 4 401 8 860 8 773 0 838 -1 870&#xA;-17z m2341 -20 c26 -29 29 -39 29 -100 0 -37 -5 -96 -10 -132 -5 -36 -11 -90&#xA;-14 -120 -4 -30 -8 -62 -11 -70 -2 -8 -18 -109 -35 -225 -17 -115 -34 -226&#xA;-37 -245 -3 -19 -10 -68 -17 -108 l-11 -73 -135 94 c-179 123 -223 155 -365&#xA;256 -66 48 -154 109 -196 136 -70 45 -77 54 -82 88 -15 106 -92 190 -187 202&#xA;-164 21 -246 -8 -305 -110 -31 -53 -38 -106 -21 -156 l14 -40 -41 -26 c-41&#xA;-26 -151 -97 -498 -325 -234 -154 -216 -146 -223 -100 -3 20 -8 73 -11 116 -4&#xA;43 -8 88 -11 99 -2 12 -6 62 -9 111 -4 50 -8 98 -10 106 -3 8 -7 51 -10 95 -3&#xA;44 -8 96 -11 115 -2 19 -7 58 -9 85 -2 28 -7 75 -10 105 -4 30 -8 72 -10 93&#xA;-6 73 -17 122 -31 145 l-15 22 1127 -2 1126 -3 29 -33z m-5691 -126 c0 -3 -4&#xA;-8 -10 -11 -5 -3 -10 -1 -10 4 0 6 5 11 10 11 6 0 10 -2 10 -4z m6323 -66 c-3&#xA;-12 -8 -19 -11 -16 -5 6 5 36 12 36 2 0 2 -9 -1 -20z m-4806 -12 c-3 -8 -6 -5&#xA;-6 6 -1 11 2 17 5 13 3 -3 4 -12 1 -19z m-1727 8 c0 -3 -4 -8 -10 -11 -5 -3&#xA;-10 -1 -10 4 0 6 5 11 10 11 6 0 10 -2 10 -4z m6233 -31 c-3 -9 -8 -14 -10&#xA;-11 -3 3 -2 9 2 15 9 16 15 13 8 -4z m-292 -18 c-10 -9 -11 -8 -5 6 3 10 9 15&#xA;12 12 3 -3 0 -11 -7 -18z m-6041 -21 c0 -3 -4 -8 -10 -11 -5 -3 -10 -1 -10 4&#xA;0 6 5 11 10 11 6 0 10 -2 10 -4z m-77 -64 c-10 -10 -20 -17 -22 -16 -6 5 20&#xA;34 30 34 5 0 1 -8 -8 -18z m3844 3 c0 -8 -4 -12 -9 -9 -5 3 -6 10 -3 15 9 13&#xA;12 11 12 -6z m2566 -2 c4 -3 -2 -12 -12 -19 -71 -50 -65 -240 9 -286 32 -21&#xA;24 -25 -42 -20 -77 5 -105 24 -59 40 58 20 35 32 -66 33 -54 1 -110 1 -125 0&#xA;-25 -1 -27 2 -22 26 2 16 10 60 17 98 14 79 -2 73 145 61 76 -6 83 -5 80 11&#xA;-2 11 -15 20 -32 23 -28 5 -29 6 -12 23 17 17 105 25 119 10z m-1637 -31 c-18&#xA;-16 -18 -16 -6 6 6 13 14 21 18 18 3 -4 -2 -14 -12 -24z m172 19 c1 0 -7 -10&#xA;-19 -22 -44 -44 -64 -108 -63 -204 0 -73 5 -98 23 -133 12 -24 21 -46 18 -48&#xA;-2 -2 -62 -43 -133 -90 -90 -60 -128 -91 -126 -102 2 -13 1 -14 -6 -4 -7 10&#xA;-22 4 -68 -27 -74 -52 -65 -45 -218 -146 l-128 -85 -82 -1 c-44 0 -94 -3 -111&#xA;-5 -107 -15 -165 -28 -223 -50 -36 -13 -66 -23 -68 -22 -1 2 95 66 215 142&#xA;119 77 266 172 326 211 61 40 157 103 215 140 58 37 140 92 182 123 l77 54&#xA;-17 26 c-10 15 -16 45 -16 77 0 85 58 150 149 168 17 3 64 2 73 -2z m1612 -33&#xA;c29 -32 40 -62 41 -111 3 -81 -53 -158 -109 -149 -25 4 -88 62 -90 83 -1 8 -4&#xA;28 -8 46 -14 75 49 164 112 158 21 -2 42 -12 54 -27z m-1479 2 c38 -21 63 -89&#xA;64 -170 0 -118 -51 -194 -130 -194 -116 0 -151 240 -50 341 35 35 77 43 116&#xA;23z m1300 -53 c-10 -9 -11 -8 -5 6 3 10 9 15 12 12 3 -3 0 -11 -7 -18z m1289&#xA;-1 c0 -2 -7 -6 -15 -10 -8 -3 -15 -1 -15 4 0 6 7 10 15 10 8 0 15 -2 15 -4z&#xA;m167 -2 c-3 -3 -12 -4 -19 -1 -8 3 -5 6 6 6 11 1 17 -2 13 -5z m-1210 -51 c-3&#xA;-10 -5 -4 -5 12 0 17 2 24 5 18 2 -7 2 -21 0 -30z m-249 -54 c-3 -8 -7 -3 -11&#xA;10 -4 17 -3 21 5 13 5 -5 8 -16 6 -23z m249 9 c-3 -8 -6 -5 -6 6 -1 11 2 17 5&#xA;13 3 -3 4 -12 1 -19z m1483 1 c0 -6 -4 -7 -10 -4 -5 3 -10 11 -10 16 0 6 5 7&#xA;10 4 6 -3 10 -11 10 -16z m-6132 -14 c-3 -3 -9 2 -12 12 -6 14 -5 15 5 6 7 -7&#xA;10 -15 7 -18z m6189 -57 c-3 -8 -6 -5 -6 6 -1 11 2 17 5 13 3 -3 4 -12 1 -19z&#xA;m-2652 -213 c39 -29 84 -61 100 -71 17 -10 32 -21 35 -24 3 -3 48 -35 100 -70&#xA;52 -35 138 -93 190 -130 52 -37 149 -104 214 -149 66 -44 114 -81 108 -81 -6&#xA;0 -37 -25 -68 -55 -32 -30 -59 -55 -60 -55 -2 0 -96 61 -124 80 -8 6 -67 46&#xA;-130 90 -63 43 -135 93 -160 110 -25 18 -97 67 -160 110 -63 43 -128 88 -145&#xA;100 -16 12 -89 62 -162 112 l-132 91 20 26 c27 34 49 87 49 117 0 22 11 17&#xA;128 -62 70 -48 159 -110 197 -139z m-628 193 c-3 -8 -6 -5 -6 6 -1 11 2 17 5&#xA;13 3 -3 4 -12 1 -19z m1243 12 c0 -5 -2 -10 -4 -10 -3 0 -8 5 -11 10 -3 6 -1&#xA;10 4 10 6 0 11 -4 11 -10z m440 -44 c0 -3 -4 -8 -10 -11 -5 -3 -10 -1 -10 4 0&#xA;6 5 11 10 11 6 0 10 -2 10 -4z m-523 -118 c-3 -7 -5 -2 -5 12 0 14 2 19 5 13&#xA;2 -7 2 -19 0 -25z m-1006 -24 c48 7 48 6 191 -90 79 -54 159 -109 178 -123 19&#xA;-14 42 -30 51 -36 50 -31 135 -89 139 -95 3 -3 66 -48 140 -99 74 -51 137 -95&#xA;139 -97 9 -9 -37 -48 -76 -66 -39 -17 -71 -19 -449 -18 l-407 0 -42 39 c-63&#xA;58 -143 108 -210 131 -59 21 -332 47 -362 36 -25 -10 -12 9 20 29 18 12 129&#xA;86 247 167 374 253 350 239 373 227 11 -7 40 -9 68 -5z m124 -22 c-3 -3 -11 0&#xA;-18 7 -9 10 -8 11 6 5 10 -3 15 -9 12 -12z m63 -47 c-3 -3 -9 2 -12 12 -6 14&#xA;-5 15 5 6 7 -7 10 -15 7 -18z m3247 15 c3 -5 1 -10 -4 -10 -6 0 -11 5 -11 10&#xA;0 6 2 10 4 10 3 0 8 -4 11 -10z m-4578 -22 c-3 -8 -6 -5 -6 6 -1 11 2 17 5 13&#xA;3 -3 4 -12 1 -19z m457 7 c-4 -8 -11 -12 -16 -9 -6 4 -5 10 3 15 19 12 19 11&#xA;13 -6z m1291 -13 c-3 -3 -11 0 -18 7 -9 10 -8 11 6 5 10 -3 15 -9 12 -12z&#xA;m-1344 -25 c-10 -9 -11 -8 -5 6 3 10 9 15 12 12 3 -3 0 -11 -7 -18z m4313 -16&#xA;c-2 -3 -12 3 -22 13 -16 17 -16 18 5 5 12 -7 20 -15 17 -18z m-1749 9 c-3 -5&#xA;-12 -10 -18 -10 -7 0 -6 4 3 10 19 12 23 12 15 0z m1805 -32 c0 -6 -6 -5 -15&#xA;2 -8 7 -15 14 -15 16 0 2 7 1 15 -2 8 -4 15 -11 15 -16z m-6910 -12 c0 -11&#xA;-19 -15 -25 -6 -3 5 1 10 9 10 9 0 16 -2 16 -4z m4563 -43 c-7 -2 -19 -2 -25&#xA;0 -7 3 -2 5 12 5 14 0 19 -2 13 -5z m-5050 -10 c-7 -2 -21 -2 -30 0 -10 3 -4&#xA;5 12 5 17 0 24 -2 18 -5z m5587 -33 c8 -5 11 -10 5 -10 -5 0 -17 5 -25 10 -8&#xA;5 -10 10 -5 10 6 0 17 -5 25 -10z m-6090 -4 c0 -2 -7 -7 -16 -10 -8 -3 -12 -2&#xA;-9 4 6 10 25 14 25 6z m6230 -6 c0 -5 -5 -10 -11 -10 -5 0 -7 5 -4 10 3 6 8&#xA;10 11 10 2 0 4 -4 4 -10z m-6280 -5 c0 -7 -30 -13 -34 -7 -3 4 4 9 15 9 10 1&#xA;19 0 19 -2z m6243 -2 c-7 -2 -19 -2 -25 0 -7 3 -2 5 12 5 14 0 19 -2 13 -5z&#xA;m-6436 -29 c-3 -3 -12 -4 -19 -1 -8 3 -5 6 6 6 11 1 17 -2 13 -5z m-147 -14&#xA;c0 -5 -5 -10 -11 -10 -5 0 -7 5 -4 10 3 6 8 10 11 10 2 0 4 -4 4 -10z m30 6&#xA;c0 -3 -4 -8 -10 -11 -5 -3 -10 -1 -10 4 0 6 5 11 10 11 6 0 10 -2 10 -4z m-63&#xA;-12 c-3 -3 -12 -4 -19 -1 -8 3 -5 6 6 6 11 1 17 -2 13 -5z m-97 -14 c0 -5 -5&#xA;-10 -11 -10 -5 0 -7 5 -4 10 3 6 8 10 11 10 2 0 4 -4 4 -10z m7343 3 c-7 -2&#xA;-19 -2 -25 0 -7 3 -2 5 12 5 14 0 19 -2 13 -5z m90 -10 c-7 -2 -21 -2 -30 0&#xA;-10 3 -4 5 12 5 17 0 24 -2 18 -5z m-7623 -23 c0 -5 -2 -10 -4 -10 -3 0 -8 5&#xA;-11 10 -3 6 -1 10 4 10 6 0 11 -4 11 -10z m-60 -4 c0 -3 -4 -8 -10 -11 -5 -3&#xA;-10 -1 -10 4 0 6 5 11 10 11 6 0 10 -2 10 -4z m6080 -22 c0 -2 -9 0 -20 6 -11&#xA;6 -20 13 -20 16 0 2 9 0 20 -6 11 -6 20 -13 20 -16z m-6180 2 c0 -3 -4 -8 -10&#xA;-11 -5 -3 -10 -1 -10 4 0 6 5 11 10 11 6 0 10 -2 10 -4z m2234 -167 c5 -12 -9&#xA;-28 -56 -62 -109 -78 -180 -165 -192 -237 -22 -122 -36 -228 -41 -320 -7 -123&#xA;-28 -200 -61 -231 -20 -19 -28 -21 -48 -11 -48 21 -58 51 -56 164 1 57 3 175&#xA;4 263 2 148 4 165 29 230 32 81 109 189 169 237 23 18 76 56 117 85 l76 52 26&#xA;-77 c15 -42 29 -84 33 -93z m5883 165 c-3 -3 -12 -4 -19 -1 -8 3 -5 6 6 6 11&#xA;1 17 -2 13 -5z m-6594 -31 c-7 -2 -21 -2 -30 0 -10 3 -4 5 12 5 17 0 24 -2 18&#xA;-5z m6772 -3 c3 -6 -1 -7 -9 -4 -18 7 -21 14 -7 14 6 0 13 -4 16 -10z m-6605&#xA;-30 c12 -7 10 -9 -10 -10 -21 0 -79 -25 -152 -65 -10 -5 -16 -16 -13 -23 3 -8&#xA;0 -10 -6 -6 -6 3 -37 -21 -70 -55 l-58 -62 -83 5 c-46 2 -151 8 -235 12 l-152&#xA;7 51 46 c106 97 210 143 353 158 89 10 354 5 375 -7z m123 -5 c-3 -9 -8 -14&#xA;-10 -11 -3 3 -2 9 2 15 9 16 15 13 8 -4z m2394 9 c-3 -3 -12 -4 -19 -1 -8 3&#xA;-5 6 6 6 11 1 17 -2 13 -5z m2536 -1 c-7 -2 -19 -2 -25 0 -7 3 -2 5 12 5 14 0&#xA;19 -2 13 -5z m75 0 c-10 -2 -28 -2 -40 0 -13 2 -5 4 17 4 22 1 32 -1 23 -4z&#xA;m382 3 c0 -2 -7 -7 -16 -10 -8 -3 -12 -2 -9 4 6 10 25 14 25 6z m-3330 -10 c0&#xA;-3 -4 -8 -10 -11 -5 -3 -10 -1 -10 4 0 6 5 11 10 11 6 0 10 -2 10 -4z m720 0&#xA;c0 -2 -7 -7 -16 -10 -8 -3 -12 -2 -9 4 6 10 25 14 25 6z m37 -2 c-3 -3 -12 -4&#xA;-19 -1 -8 3 -5 6 6 6 11 1 17 -2 13 -5z m2668 -4 c3 -6 -1 -7 -9 -4 -18 7 -21&#xA;14 -7 14 6 0 13 -4 16 -10z m-2873 -28 c-73 -38 -157 -107 -208 -172 -25 -30&#xA;-49 -60 -54 -67 -6 -7 -10 -17 -10 -23 0 -12 -100 -8 -294 11 -54 5 -125 9&#xA;-158 9 l-61 0 45 53 c131 153 307 210 663 215 l130 2 -53 -28z m2618 19 c0 -6&#xA;-7 -11 -15 -11 -13 0 -45 -16 -74 -37 -2 -1 2 -11 10 -20 13 -16 12 -17 -3 -4&#xA;-16 12 -23 9 -61 -22 -23 -19 -69 -71 -102 -116 -52 -71 -63 -81 -85 -76 -47&#xA;9 -328 34 -407 37 -24 1 -43 4 -43 8 0 3 27 34 60 68 88 89 231 153 382 170&#xA;113 13 338 14 338 3z m-2264 -34 c146 -53 256 -156 333 -311 41 -82 83 -213&#xA;96 -296 4 -25 9 -58 12 -75 11 -62 4 -273 -12 -365 -39 -224 -127 -405 -264&#xA;-540 -208 -205 -487 -217 -674 -28 -169 169 -261 436 -252 728 5 132 7 156 30&#xA;260 63 288 208 503 408 604 108 55 215 62 323 23z m-2849 9 c3 -2 -12 -23 -33&#xA;-46 -55 -58 -112 -155 -132 -222 -16 -55 -39 -78 -76 -78 -22 0 -103 -94 -135&#xA;-157 -43 -87 -71 -206 -71 -307 0 -199 65 -352 181 -426 40 -27 63 -34 120&#xA;-38 63 -4 75 -2 134 27 143 71 238 262 237 481 0 117 -23 197 -86 296 -44 68&#xA;-45 71 -34 113 8 31 28 62 68 104 50 54 58 59 78 48 57 -31 152 -255 173 -408&#xA;10 -76 6 -283 -5 -302 -2 -3 -7 -22 -10 -41 -9 -59 -47 -172 -79 -235 -72&#xA;-143 -154 -241 -259 -308 -215 -138 -460 -77 -618 154 -92 134 -137 303 -139&#xA;524 -3 298 92 545 276 717 85 79 197 118 326 113 44 -2 81 -6 84 -9z m5465&#xA;-29 c218 -107 371 -417 369 -747 -1 -184 -24 -306 -84 -449 -21 -51 -27 -76&#xA;-19 -79 7 -2 9 -8 6 -14 -4 -6 -9 -6 -14 2 -6 9 -13 2 -25 -21 -51 -99 -193&#xA;-241 -289 -287 -91 -45 -221 -55 -308 -24 -152 54 -261 181 -333 388 -49 142&#xA;-64 250 -61 429 6 290 104 545 268 701 112 107 201 146 329 142 76 -3 94 -7&#xA;161 -41z m-3587 23 c-3 -5 -12 -10 -18 -10 -7 0 -6 4 3 10 19 12 23 12 15 0z&#xA;m4970 -10 c3 -6 -1 -7 -9 -4 -18 7 -21 14 -7 14 6 0 13 -4 16 -10z m-7782 -35&#xA;c-3 -9 -8 -14 -10 -11 -3 3 -2 9 2 15 9 16 15 13 8 -4z m487 -70 c-7 -9 -15&#xA;-13 -19 -10 -3 3 1 10 9 15 21 14 24 12 10 -5z m4360 -35 c0 -5 -5 -10 -11&#xA;-10 -5 0 -7 5 -4 10 3 6 8 10 11 10 2 0 4 -4 4 -10z m-4007 -15 c-3 -9 -8 -14&#xA;-10 -11 -3 3 -2 9 2 15 9 16 15 13 8 -4z m760 8 c-7 -2 -19 -2 -25 0 -7 3 -2&#xA;5 12 5 14 0 19 -2 13 -5z m450 0 c-7 -2 -19 -2 -25 0 -7 3 -2 5 12 5 14 0 19&#xA;-2 13 -5z m145 0 c-10 -2 -26 -2 -35 0 -10 3 -2 5 17 5 19 0 27 -2 18 -5z m49&#xA;1 c-3 -3 -12 -4 -19 -1 -8 3 -5 6 6 6 11 1 17 -2 13 -5z m86 -1 c-7 -2 -21 -2&#xA;-30 0 -10 3 -4 5 12 5 17 0 24 -2 18 -5z m190 0 c-7 -2 -19 -2 -25 0 -7 3 -2&#xA;5 12 5 14 0 19 -2 13 -5z m50 0 c-7 -2 -19 -2 -25 0 -7 3 -2 5 12 5 14 0 19&#xA;-2 13 -5z m687 -3 c0 -5 -2 -10 -4 -10 -3 0 -8 5 -11 10 -3 6 -1 10 4 10 6 0&#xA;11 -4 11 -10z m1313 3 c-13 -2 -33 -2 -45 0 -13 2 -3 4 22 4 25 0 35 -2 23 -4z&#xA;m210 0 c-7 -2 -19 -2 -25 0 -7 3 -2 5 12 5 14 0 19 -2 13 -5z m507 -7 c0 -3&#xA;-4 -8 -10 -11 -5 -3 -10 -1 -10 4 0 6 5 11 10 11 6 0 10 -2 10 -4z m-2706 -16&#xA;l48 0 -31 -35 c-17 -19 -41 -53 -53 -75 l-23 -40 -180 4 c-99 2 -210 5 -247 5&#xA;l-66 1 28 53 c53 98 38 92 271 90 112 -2 226 -3 253 -3z m1685 -14 c30 -37 75&#xA;-150 97 -243 41 -181 24 -385 -47 -563 -29 -72 -68 -144 -74 -138 -2 2 4 28&#xA;12 58 32 116 22 403 -20 575 -26 108 -110 296 -141 317 -12 8 73 14 126 9 21&#xA;-1 41 -8 47 -15z m-4116 7 c-7 -2 -19 -2 -25 0 -7 3 -2 5 12 5 14 0 19 -2 13&#xA;-5z m55 -19 c162 -8 168 -10 134 -55 -35 -47 -88 -189 -116 -312 -7 -28 -8&#xA;-29 -54 -23 -26 3 -65 8 -87 10 -51 6 -323 20 -352 19 -29 -1 -29 1 8 111 31&#xA;94 60 150 113 224 l31 43 85 -5 c47 -3 154 -9 238 -12z m3015 8 c-6 -4 -12&#xA;-11 -12 -17 -1 -5 -6 -12 -12 -14 -8 -2 -8 3 0 18 7 11 17 21 24 21 9 0 9 -2&#xA;0 -8z m-580 -17 c-3 -9 -8 -14 -10 -11 -3 3 -2 9 2 15 9 16 15 13 8 -4z&#xA;m-2812 -22 c-12 -20 -14 -14 -5 12 4 9 9 14 11 11 3 -2 0 -13 -6 -23z m2210&#xA;-26 c-10 -9 -11 -8 -5 6 3 10 9 15 12 12 3 -3 0 -11 -7 -18z m3506 7 c-3 -3&#xA;-12 -4 -19 -1 -8 3 -5 6 6 6 11 1 17 -2 13 -5z m-5184 -19 c-3 -9 -8 -14 -10&#xA;-11 -3 3 -2 9 2 15 9 16 15 13 8 -4z m5112 0 c11 -2 58 -7 105 -10 47 -3 94&#xA;-7 105 -10 11 -2 26 -4 33 -4 9 -1 9 -7 -3 -25 -27 -41 -83 -211 -96 -291 -8&#xA;-53 -15 -72 -23 -66 -11 9 -147 24 -331 37 -55 3 -107 8 -115 10 -8 1 -25 3&#xA;-38 3 -21 1 -22 4 -16 39 13 79 48 180 87 256 l40 78 116 -6 c64 -4 125 -9&#xA;136 -11z m138 8 c-7 -2 -21 -2 -30 0 -10 3 -4 5 12 5 17 0 24 -2 18 -5z m62&#xA;-11 c-3 -3 -11 0 -18 7 -9 10 -8 11 6 5 10 -3 15 -9 12 -12z m-2815 -8 c47 -4&#xA;92 -8 100 -10 8 -1 50 -3 94 -3 62 -1 76 -4 68 -14 -34 -40 -117 -299 -121&#xA;-376 -1 -10 -10 -12 -33 -7 -54 11 -415 40 -485 39 -18 0 -33 1 -33 2 0 2 11&#xA;40 24 86 29 100 66 186 109 253 l31 48 80 -6 c45 -3 119 -9 166 -12z m-2523&#xA;-36 c-3 -8 -6 -5 -6 6 -1 11 2 17 5 13 3 -3 4 -12 1 -19z m2223 -2 c0 -2 -7&#xA;-9 -15 -16 -13 -11 -14 -10 -9 4 5 14 24 23 24 12z m573 -21 c-3 -9 -8 -14&#xA;-10 -11 -3 3 -2 9 2 15 9 16 15 13 8 -4z m2600 0 c-3 -9 -8 -14 -10 -11 -3 3&#xA;-2 9 2 15 9 16 15 13 8 -4z m-3540 -2 c-13 -2 -35 -2 -50 0 -16 2 -5 4 22 4&#xA;28 0 40 -2 28 -4z m197 3 c0 -3 -4 -8 -10 -11 -5 -3 -10 -1 -10 4 0 6 5 11 10&#xA;11 6 0 10 -2 10 -4z m5 -31 c50 -3 93 -5 96 -5 4 0 -9 -38 -27 -85 -19 -47&#xA;-36 -93 -37 -102 -24 -125 -30 -144 -46 -136 -9 4 -105 9 -214 11 l-197 3 5&#xA;77 c7 84 21 169 37 220 l10 34 142 -7 c77 -3 182 -8 231 -10z m-1648 -110 c1&#xA;-90 -2 -115 -12 -115 -7 0 -27 -16 -44 -37 -79 -96 -61 -285 34 -343 45 -28&#xA;106 -22 165 15 76 48 94 99 110 316 7 90 16 168 20 173 5 4 20 -10 33 -31 62&#xA;-98 82 -266 49 -400 -48 -189 -146 -299 -282 -317 -56 -8 -133 27 -181 81&#xA;-111 127 -138 372 -63 571 30 80 76 146 122 177 20 13 39 24 42 24 3 1 6 -51&#xA;7 -114z m1246 100 c-3 -9 -8 -14 -10 -11 -3 3 -2 9 2 15 9 16 15 13 8 -4z&#xA;m4751 -44 c-6 -6 -11 1 -18 29 l-7 25 15 -25 c8 -14 12 -27 10 -29z m-5977 17&#xA;c-3 -8 -6 -5 -6 6 -1 11 2 17 5 13 3 -3 4 -12 1 -19z m3447 -68 c5 -17 4 -20&#xA;-2 -10 -5 8 -13 26 -16 40 -5 17 -4 20 2 10 5 -8 13 -26 16 -40z m-2242 -2&#xA;c-8 -8 -9 -4 -5 13 4 13 8 18 11 10 2 -7 -1 -18 -6 -23z m4785 -10 c-3 -8 -6&#xA;-5 -6 6 -1 11 2 17 5 13 3 -3 4 -12 1 -19z m-5673 -14 c3 -8 2 -12 -4 -9 -6 3&#xA;-10 10 -10 16 0 14 7 11 14 -7z m293 -56 c-3 -8 -6 -5 -6 6 -1 11 2 17 5 13 3&#xA;-3 4 -12 1 -19z m580 -25 c-3 -10 -5 -2 -5 17 0 19 2 27 5 18 2 -10 2 -26 0&#xA;-35z m3130 25 c-3 -8 -6 -5 -6 6 -1 11 2 17 5 13 3 -3 4 -12 1 -19z m-4310&#xA;-20 c-3 -8 -6 -5 -6 6 -1 11 2 17 5 13 3 -3 4 -12 1 -19z m1676 7 c-3 -9 -8&#xA;-14 -10 -11 -3 3 -2 9 2 15 9 16 15 13 8 -4z m1784 -27 c-3 -8 -6 -5 -6 6 -1&#xA;11 2 17 5 13 3 -3 4 -12 1 -19z m-4437 -12 c73 -6 291 -18 360 -20 55 -1 59&#xA;-12 47 -111 -8 -67 -6 -125 9 -243 l7 -52 -29 5 c-38 6 -208 23 -309 30 -98 7&#xA;-179 16 -183 19 -9 10 -20 158 -17 244 4 121 10 145 33 138 9 -3 46 -7 82 -10z&#xA;m413 -3 c-7 -2 -19 -2 -25 0 -7 3 -2 5 12 5 14 0 19 -2 13 -5z m1174 -35 c-3&#xA;-8 -6 -5 -6 6 -1 11 2 17 5 13 3 -3 4 -12 1 -19z m-644 -72 c-8 -105 3 -163&#xA;37 -198 32 -32 23 -46 -17 -26 -47 23 -67 62 -71 139 -4 59 -1 78 18 115 13&#xA;24 27 44 31 44 4 0 5 -33 2 -74z m1773 46 c-5 -8 -66 -4 -66 4 0 2 16 4 36 4&#xA;19 0 33 -4 30 -8z m2827 -17 c265 -19 271 -20 262 -43 -9 -25 -7 -207 5 -296&#xA;5 -44 8 -81 7 -83 -2 -1 -28 1 -58 6 -30 6 -78 12 -106 15 -29 3 -74 9 -100&#xA;12 -27 3 -95 11 -153 17 l-105 12 -12 75 c-13 82 -16 214 -7 272 5 29 10 36&#xA;25 33 11 -2 119 -11 242 -20z m50 18 c-7 -2 -21 -2 -30 0 -10 3 -4 5 12 5 17&#xA;0 24 -2 18 -5z m-2820 -10 c-7 -2 -19 -2 -25 0 -7 3 -2 5 12 5 14 0 19 -2 13&#xA;-5z m-2906 -35 c-3 -7 -5 -2 -5 12 0 14 2 19 5 13 2 -7 2 -19 0 -25z m3056 25&#xA;c-7 -2 -19 -2 -25 0 -7 3 -2 5 12 5 14 0 19 -2 13 -5z m-646 -9 c-3 -3 -12 -4&#xA;-19 -1 -8 3 -5 6 6 6 11 1 17 -2 13 -5z m643 -9 c19 -2 69 -7 110 -10 41 -3&#xA;93 -8 115 -11 l41 -6 -1 -161 c0 -89 3 -183 7 -209 l8 -48 -58 5 c-31 3 -70 7&#xA;-87 10 -16 2 -75 7 -130 11 -55 3 -103 8 -106 9 -3 2 -42 5 -87 6 -46 1 -85 5&#xA;-87 9 -17 28 -25 274 -11 363 l8 49 121 -6 c67 -4 138 -9 157 -11z m-467 -2&#xA;c-13 -2 -33 -2 -45 0 -13 2 -3 4 22 4 25 0 35 -2 23 -4z m84 1 c-3 -3 -12 -4&#xA;-19 -1 -8 3 -5 6 6 6 11 1 17 -2 13 -5z m2720 -16 c-3 -8 -6 -5 -6 6 -1 11 2&#xA;17 5 13 3 -3 4 -12 1 -19z m-2677 -8 c3 0 5 -70 5 -156 l0 -156 -165 4 -165 3&#xA;-21 45 c-22 47 -50 155 -58 228 l-6 44 203 -6 c111 -3 204 -6 207 -6z m4417&#xA;-42 c-2 -13 -4 -5 -4 17 -1 22 1 32 4 23 2 -10 2 -28 0 -40z m-4840 10 c-3 -7&#xA;-5 -2 -5 12 0 14 2 19 5 13 2 -7 2 -19 0 -25z m-1190 -40 c-2 -13 -4 -5 -4 17&#xA;-1 22 1 32 4 23 2 -10 2 -28 0 -40z m1640 20 c-3 -7 -5 -2 -5 12 0 14 2 19 5&#xA;13 2 -7 2 -19 0 -25z m-1890 -50 c-3 -7 -5 -2 -5 12 0 14 2 19 5 13 2 -7 2&#xA;-19 0 -25z m4530 10 c-3 -8 -6 -5 -6 6 -1 11 2 17 5 13 3 -3 4 -12 1 -19z&#xA;m583 12 c0 -5 -5 -10 -11 -10 -5 0 -7 5 -4 10 3 6 8 10 11 10 2 0 4 -4 4 -10z&#xA;m-1373 -57 c-3 -10 -5 -2 -5 17 0 19 2 27 5 18 2 -10 2 -26 0 -35z m-4030 5&#xA;c-3 -8 -6 -5 -6 6 -1 11 2 17 5 13 3 -3 4 -12 1 -19z m-553 -34 c3 -8 2 -12&#xA;-4 -9 -6 3 -10 10 -10 16 0 14 7 11 14 -7z m2733 -26 c-3 -7 -5 -2 -5 12 0 14&#xA;2 19 5 13 2 -7 2 -19 0 -25z m1850 -20 c-3 -8 -6 -5 -6 6 -1 11 2 17 5 13 3&#xA;-3 4 -12 1 -19z m2530 -10 c-3 -7 -5 -2 -5 12 0 14 2 19 5 13 2 -7 2 -19 0&#xA;-25z m-7110 0 c-3 -8 -6 -5 -6 6 -1 11 2 17 5 13 3 -3 4 -12 1 -19z m2730 -25&#xA;c-3 -10 -5 -4 -5 12 0 17 2 24 5 18 2 -7 2 -21 0 -30z m-403 11 c3 -8 2 -12&#xA;-4 -9 -6 3 -10 10 -10 16 0 14 7 11 14 -7z m3623 -16 c-3 -8 -6 -5 -6 6 -1 11&#xA;2 17 5 13 3 -3 4 -12 1 -19z m-5787 -54 c52 -4 97 -8 100 -9 13 -3 209 -18&#xA;247 -18 l42 -1 31 -90 c36 -103 81 -196 104 -215 36 -30 28 -31 -174 -16 -81&#xA;6 -186 16 -210 21 -8 1 -34 3 -57 3 -37 1 -45 5 -77 49 -44 60 -98 162 -119&#xA;226 -21 62 -21 69 1 62 9 -2 60 -8 112 -12z m167 10 c-3 -3 -12 -4 -19 -1 -8&#xA;3 -5 6 6 6 11 1 17 -2 13 -5z m548 -4 c3 -5 1 -10 -4 -10 -6 0 -11 5 -11 10 0&#xA;6 2 10 4 10 3 0 8 -4 11 -10z m-462 -7 c-7 -2 -21 -2 -30 0 -10 3 -4 5 12 5&#xA;17 0 24 -2 18 -5z m4144 -15 c-3 -8 -6 -5 -6 6 -1 11 2 17 5 13 3 -3 4 -12 1&#xA;-19z m-4034 5 c-7 -2 -19 -2 -25 0 -7 3 -2 5 12 5 14 0 19 -2 13 -5z m2030&#xA;-20 c-7 -2 -19 -2 -25 0 -7 3 -2 5 12 5 14 0 19 -2 13 -5z m60 0 c-7 -2 -21&#xA;-2 -30 0 -10 3 -4 5 12 5 17 0 24 -2 18 -5z m-2 -18 l106 0 13 -50 c19 -79 41&#xA;-146 66 -197 12 -27 21 -48 21 -48 -21 2 -120 39 -177 68 -77 39 -198 146&#xA;-232 207 l-17 31 57 -6 c31 -3 105 -5 163 -5z m2936 -1 c-3 -3 -12 -4 -19 -1&#xA;-8 3 -5 6 6 6 11 1 17 -2 13 -5z m48 -24 c55 -6 109 -13 120 -14 11 -2 68 -9&#xA;128 -16 l107 -13 21 -71 c20 -69 60 -157 102 -225 11 -19 17 -32 11 -29 -5 3&#xA;-49 9 -99 12 -104 8 -375 45 -388 53 -41 25 -140 208 -161 297 -7 28 -6 28 26&#xA;23 18 -3 78 -11 133 -17z m58 13 c-7 -2 -19 -2 -25 0 -7 3 -2 5 12 5 14 0 19&#xA;-2 13 -5z m80 -10 c-7 -2 -19 -2 -25 0 -7 3 -2 5 12 5 14 0 19 -2 13 -5z&#xA;m-2893 -17 c0 -3 -4 -8 -10 -11 -5 -3 -10 -1 -10 4 0 6 5 11 10 11 6 0 10 -2&#xA;10 -4z m240 -20 c0 -3 -4 -8 -10 -11 -5 -3 -10 -1 -10 4 0 6 5 11 10 11 6 0&#xA;10 -2 10 -4z m45 -12 c1 -5 0 -6 -2 -2 -3 4 -11 4 -20 1 -11 -4 -14 -3 -9 6 9&#xA;13 29 10 31 -5z m-3065 -14 c6 -11 8 -20 6 -20 -3 0 -10 9 -16 20 -6 11 -8 20&#xA;-6 20 3 0 10 -9 16 -20z m2895 6 c77 -8 192 -18 255 -21 63 -4 116 -8 118 -10&#xA;1 -1 9 -29 17 -61 17 -64 96 -237 123 -268 17 -19 13 -19 -188 -13 -113 4&#xA;-226 7 -251 7 -52 0 -67 10 -121 85 -38 53 -100 179 -112 230 -4 17 -9 38 -12&#xA;48 -6 21 -10 21 171 3z m322 -2 c-3 -3 -12 -4 -19 -1 -8 3 -5 6 6 6 11 1 17&#xA;-2 13 -5z m-2010 -36 c-3 -8 -6 -5 -6 6 -1 11 2 17 5 13 3 -3 4 -12 1 -19z&#xA;m-182 -28 c19 -8 19 -9 -2 -9 -12 -1 -25 4 -28 9 -7 12 2 12 30 0z m485 -49&#xA;c0 -5 -7 -12 -16 -15 -14 -5 -15 -4 -4 9 14 17 20 19 20 6z m-885 -41 c3 -5 1&#xA;-10 -4 -10 -6 0 -11 5 -11 10 0 6 2 10 4 10 3 0 8 -4 11 -10z m1922 4 c-3 -3&#xA;-12 -4 -19 -1 -8 3 -5 6 6 6 11 1 17 -2 13 -5z m808 -54 c9 -16 13 -30 11 -30&#xA;-3 0 -12 14 -21 30 -9 17 -13 30 -11 30 3 0 12 -13 21 -30z m-1120 -30 c3 -5&#xA;1 -10 -4 -10 -6 0 -11 5 -11 10 0 6 2 10 4 10 3 0 8 -4 11 -10z m288 3 c-7 -2&#xA;-21 -2 -30 0 -10 3 -4 5 12 5 17 0 24 -2 18 -5z m-2343 -13 c0 -5 -5 -10 -11&#xA;-10 -5 0 -7 5 -4 10 3 6 8 10 11 10 2 0 4 -4 4 -10z m150 -9 c63 -6 166 -13&#xA;229 -17 l115 -6 45 -38 c25 -21 71 -51 101 -65 l55 -26 -170 4 c-93 3 -183 8&#xA;-200 11 -39 9 -142 45 -180 63 -45 22 -125 77 -125 86 0 5 4 6 8 3 4 -2 59 -9&#xA;122 -15z m107 13 c-3 -3 -12 -4 -19 -1 -8 3 -5 6 6 6 11 1 17 -2 13 -5z m4146&#xA;-1 c-7 -2 -21 -2 -30 0 -10 3 -4 5 12 5 17 0 24 -2 18 -5z m-4040 -10 c-7 -2&#xA;-19 -2 -25 0 -7 3 -2 5 12 5 14 0 19 -2 13 -5z m44 1 c-3 -3 -12 -4 -19 -1 -8&#xA;3 -5 6 6 6 11 1 17 -2 13 -5z m3773 -28 c0 -2 -8 -10 -17 -17 -16 -13 -17 -12&#xA;-4 4 13 16 21 21 21 13z m1340 -41 c8 -1 44 -6 80 -10 36 -3 76 -8 90 -10 14&#xA;-2 63 -7 109 -10 83 -7 85 -7 129 -51 24 -25 62 -54 83 -65 22 -10 39 -20 39&#xA;-22 0 -4 -207 2 -255 8 -137 18 -260 69 -375 158 l-25 19 55 -7 c30 -4 62 -9&#xA;70 -10z m307 -11 c-3 -3 -12 -4 -19 -1 -8 3 -5 6 6 6 11 1 17 -2 13 -5z&#xA;m-2937 -54 c0 -5 -5 -10 -11 -10 -5 0 -7 5 -4 10 3 6 8 10 11 10 2 0 4 -4 4&#xA;-10z m2587 -12 c-3 -8 -6 -5 -6 6 -1 11 2 17 5 13 3 -3 4 -12 1 -19z m-2420 6&#xA;c-3 -3 -12 -4 -19 -1 -8 3 -5 6 6 6 11 1 17 -2 13 -5z m158 -5 c3 -3 -11 -6&#xA;-30 -6 -19 0 -35 4 -35 8 0 8 56 6 65 -2z m2282 -11 c-3 -8 -6 -5 -6 6 -1 11&#xA;2 17 5 13 3 -3 4 -12 1 -19z m-4110 6 c-3 -3 -12 -4 -19 -1 -8 3 -5 6 6 6 11&#xA;1 17 -2 13 -5z m50 0 c-3 -3 -12 -4 -19 -1 -8 3 -5 6 6 6 11 1 17 -2 13 -5z&#xA;m1676 -18 l159 -4 46 -43 c26 -24 49 -47 52 -50 13 -15 91 -59 105 -59 8 0 15&#xA;-4 15 -8 0 -5 -71 -8 -157 -7 -139 2 -169 5 -252 29 -123 36 -291 122 -291&#xA;150 0 3 37 4 83 1 45 -3 153 -7 240 -9z m-3050 -13 c-7 -2 -21 -2 -30 0 -10 3&#xA;-4 5 12 5 17 0 24 -2 18 -5z m474 1 c-3 -3 -12 -4 -19 -1 -8 3 -5 6 6 6 11 1&#xA;17 -2 13 -5z m-680 -10 c-3 -3 -12 -4 -19 -1 -8 3 -5 6 6 6 11 1 17 -2 13 -5z&#xA;m3557 -83 c-2 -3 -12 3 -22 13 -16 17 -16 18 5 5 12 -7 20 -15 17 -18z m2431&#xA;19 c3 -5 1 -10 -4 -10 -6 0 -11 5 -11 10 0 6 2 10 4 10 3 0 8 -4 11 -10z m722&#xA;4 c-3 -3 -12 -4 -19 -1 -8 3 -5 6 6 6 11 1 17 -2 13 -5z m60 0 c-3 -3 -12 -4&#xA;-19 -1 -8 3 -5 6 6 6 11 1 17 -2 13 -5z m140 0 c-3 -3 -12 -4 -19 -1 -8 3 -5&#xA;6 6 6 11 1 17 -2 13 -5z m-1240 -10 c-3 -3 -12 -4 -19 -1 -8 3 -5 6 6 6 11 1&#xA;17 -2 13 -5z m451 -1 c-10 -2 -26 -2 -35 0 -10 3 -2 5 17 5 19 0 27 -2 18 -5z&#xA;m-1771 -89 c-3 -3 -12 -4 -19 -1 -8 3 -5 6 6 6 11 1 17 -2 13 -5z m-1270 -20&#xA;c-3 -3 -12 -4 -19 -1 -8 3 -5 6 6 6 11 1 17 -2 13 -5z"/>
    <path d="M3717 7660 c-134 -47 -218 -137 -252 -267 -52 -199 37 -397 215 -482&#xA;46 -22 69 -26 140 -26 76 0 93 4 152 33 74 36 149 111 185 183 53 107 47 265&#xA;-14 381 -34 65 -104 138 -132 138 -6 0 -11 4 -11 8 0 17 -86 43 -155 48 -54 4&#xA;-83 0 -128 -16z m184 -18 c-7 -2 -18 1 -23 6 -8 8 -4 9 13 5 13 -4 18 -8 10&#xA;-11z m48 -39 c126 -63 196 -181 195 -329 0 -71 -4 -90 -32 -146 -58 -119 -157&#xA;-188 -278 -196 -62 -4 -79 -1 -130 22 -132 60 -208 188 -205 343 2 114 58 216&#xA;154 282 58 39 91 48 173 49 57 0 82 -5 123 -25z m-429 -138 c0 -8 -4 -15 -10&#xA;-15 -5 0 -7 7 -4 15 4 8 8 15 10 15 2 0 4 -7 4 -15z m-20 -45 c0 -11 -4 -20&#xA;-9 -20 -5 0 -7 9 -4 20 3 11 7 20 9 20 2 0 4 -9 4 -20z m655 0 c3 -5 1 -10 -4&#xA;-10 -6 0 -11 5 -11 10 0 6 2 10 4 10 3 0 8 -4 11 -10z m8 -35 c-3 -9 -8 -14&#xA;-10 -11 -3 3 -2 9 2 15 9 16 15 13 8 -4z m-682 -28 c-10 -9 -11 -8 -5 6 3 10&#xA;9 15 12 12 3 -3 0 -11 -7 -18z m6 -153 c-3 -4 -2 -15 4 -25 6 -13 6 -19 -1&#xA;-19 -5 0 -10 4 -10 9 0 5 -3 16 -6 25 -4 10 -1 16 7 16 7 0 9 -3 6 -6z m663&#xA;-85 c0 -6 -4 -7 -10 -4 -5 3 -10 11 -10 16 0 6 5 7 10 4 6 -3 10 -11 10 -16z&#xA;m-620 -29 c0 -5 -2 -10 -4 -10 -3 0 -8 5 -11 10 -3 6 -1 10 4 10 6 0 11 -4 11&#xA;-10z m170 -160 c0 -5 -2 -10 -4 -10 -3 0 -8 5 -11 10 -3 6 -1 10 4 10 6 0 11&#xA;-4 11 -10z"/>
    <path d="M3803 7524 c-38 -9 -109 -81 -132 -134 -34 -78 -33 -178 3 -255 33&#xA;-74 50 -93 101 -116 51 -23 116 -24 179 -2 135 49 193 256 111 398 -26 45 -49&#xA;66 -97 91 -32 17 -124 26 -165 18z m140 -63 c56 -26 107 -107 113 -181 10&#xA;-124 -78 -230 -192 -230 -64 0 -104 27 -138 93 -96 190 46 399 217 318z m132&#xA;-270 c3 -5 1 -12 -5 -16 -5 -3 -10 1 -10 9 0 18 6 21 15 7z m-318 -127 c-3 -3&#xA;-12 -4 -19 -1 -8 3 -5 6 6 6 11 1 17 -2 13 -5z m68 -34 c3 -5 1 -10 -4 -10 -6&#xA;0 -11 5 -11 10 0 6 2 10 4 10 3 0 8 -4 11 -10z"/>
    <path d="M5306 3364 c-88 -27 -194 -159 -241 -299 -42 -125 -52 -297 -25 -435&#xA;24 -125 98 -234 196 -291 135 -77 298 -13 392 153 66 116 94 234 93 395 -1&#xA;174 -48 315 -134 407 -77 81 -169 104 -281 70z m199 -24 c3 -5 1 -10 -4 -10&#xA;-6 0 -11 5 -11 10 0 6 2 10 4 10 3 0 8 -4 11 -10z m-30 -19 c46 -21 115 -92&#xA;143 -148 46 -88 57 -151 56 -308 0 -130 -3 -159 -23 -215 -95 -271 -275 -370&#xA;-438 -241 -94 74 -146 215 -145 388 2 133 22 226 71 327 87 175 217 252 336&#xA;197z m232 -463 c-2 -13 -4 -5 -4 17 -1 22 1 32 4 23 2 -10 2 -28 0 -40z m-660&#xA;-110 c-3 -8 -6 -5 -6 6 -1 11 2 17 5 13 3 -3 4 -12 1 -19z m519 -316 c-18 -16&#xA;-18 -16 -6 6 6 13 14 21 18 18 3 -4 -2 -14 -12 -24z m-306 -77 c11 -13 10 -14&#xA;-4 -9 -9 3 -16 10 -16 15 0 13 6 11 20 -6z"/>
    <path d="M5323 3083 c-34 -7 -88 -77 -108 -139 -26 -83 -17 -199 18 -253 37&#xA;-55 72 -76 128 -76 153 0 226 254 118 411 -37 55 -82 71 -156 57z m-23 -43 c0&#xA;-5 -5 -10 -11 -10 -5 0 -7 5 -4 10 3 6 8 10 11 10 2 0 4 -4 4 -10z m110 -12&#xA;c100 -68 102 -270 4 -347 -79 -62 -174 22 -174 154 0 99 35 174 95 201 39 17&#xA;37 18 75 -8z m-183 -120 c-3 -8 -6 -5 -6 6 -1 11 2 17 5 13 3 -3 4 -12 1 -19z&#xA;m17 -173 c3 -8 1 -15 -4 -15 -6 0 -10 7 -10 15 0 8 2 15 4 15 2 0 6 -7 10 -15z"/>
    <path d="M7915 3391 c-137 -35 -255 -202 -289 -412 -41 -248 41 -496 188 -571&#xA;62 -32 160 -36 217 -9 193 91 307 448 227 711 -38 125 -111 229 -183 261 -48&#xA;21 -119 30 -160 20z m-28 -37 c-3 -3 -12 -4 -19 -1 -8 3 -5 6 6 6 11 1 17 -2&#xA;13 -5z m164 -24 c59 -31 94 -70 132 -152 47 -100 61 -177 54 -301 -8 -148 -53&#xA;-273 -131 -364 -39 -45 -125 -93 -165 -93 -120 0 -232 120 -271 289 -15 66 -8&#xA;262 13 336 24 84 82 188 132 234 85 78 153 93 236 51z m216 -442 c-3 -8 -6 -5&#xA;-6 6 -1 11 2 17 5 13 3 -3 4 -12 1 -19z m-62 -267 c-3 -12 -10 -21 -15 -21 -4&#xA;0 -3 11 3 24 14 29 22 27 12 -3z"/>
    <path d="M7870 3091 c-38 -19 -87 -89 -97 -137 -11 -50 -4 -163 12 -192 34&#xA;-63 89 -102 143 -102 38 0 104 57 131 115 16 33 21 63 20 117 -1 106 -24 157&#xA;-89 197 -43 26 -75 27 -120 2z m140 -31 c0 -5 -5 -10 -11 -10 -5 0 -7 5 -4 10&#xA;3 6 8 10 11 10 2 0 4 -4 4 -10z m-23 -22 c54 -60 67 -142 37 -231 -31 -91&#xA;-113 -125 -166 -69 -35 36 -48 72 -48 136 0 69 15 113 53 154 39 40 92 45 124&#xA;10z m-157 -18 c-6 -11 -13 -20 -16 -20 -2 0 0 9 6 20 6 11 13 20 16 20 2 0 0&#xA;-9 -6 -20z m227 -62 c-3 -8 -6 -5 -6 6 -1 11 2 17 5 13 3 -3 4 -12 1 -19z&#xA;m-260 -10 c-3 -8 -6 -5 -6 6 -1 11 2 17 5 13 3 -3 4 -12 1 -19z"/>
    <path d="M1660 4683 c-89 -11 -154 -48 -257 -147 -59 -55 -80 -96 -50 -96 6 0&#xA;47 32 89 70 43 38 98 81 124 96 91 54 222 36 406 -54 159 -78 255 -105 277&#xA;-78 15 18 7 36 -17 36 -41 0 -137 33 -243 83 -155 73 -249 99 -329 90z m120&#xA;-33 c0 -5 -2 -10 -4 -10 -3 0 -8 5 -11 10 -3 6 -1 10 4 10 6 0 11 -4 11 -10z&#xA;m210 -80 c0 -5 -2 -10 -4 -10 -3 0 -8 5 -11 10 -3 6 -1 10 4 10 6 0 11 -4 11&#xA;-10z m197 -76 c-3 -3 -12 -4 -19 -1 -8 3 -5 6 6 6 11 1 17 -2 13 -5z m44 -12&#xA;c-7 -2 -18 1 -23 6 -8 8 -4 9 13 5 13 -4 18 -8 10 -11z"/>
    <path d="M973 3335 c-87 -20 -133 -53 -133 -96 0 -17 7 -32 18 -37 27 -14 125&#xA;-15 207 -1 91 14 113 34 89 80 -30 59 -86 75 -181 54z m74 -11 c-3 -3 -12 -4&#xA;-19 -1 -8 3 -5 6 6 6 11 1 17 -2 13 -5z m56 -38 c28 -21 20 -33 -25 -40 -114&#xA;-15 -149 -18 -173 -12 -22 6 -25 9 -15 21 30 36 178 58 213 31z m43 -41 c-3&#xA;-8 -11 -15 -18 -14 -10 0 -10 2 0 6 6 2 12 14 13 26 0 12 3 16 6 9 3 -7 2 -19&#xA;-1 -27z"/>
    <path d="M8833 3308 c-24 -6 -33 -14 -33 -29 0 -18 4 -20 28 -15 15 3 49 9 75&#xA;12 37 5 47 11 45 23 -4 19 -63 23 -115 9z m90 -15 c-7 -2 -19 -2 -25 0 -7 3&#xA;-2 5 12 5 14 0 19 -2 13 -5z"/>
    <path d="M9243 3050 c-49 -25 -107 -86 -97 -102 4 -6 3 -8 -3 -5 -6 4 -16 0&#xA;-23 -8 -9 -11 -30 -15 -70 -14 -49 1 -64 -3 -94 -26 -20 -15 -36 -34 -36 -41&#xA;0 -55 142 -81 237 -43 15 6 73 13 128 14 106 3 146 13 183 47 27 26 32 69 5&#xA;47 -15 -13 -15 -12 -2 8 12 20 11 27 -4 55 -46 82 -141 110 -224 68z m7 -20&#xA;c0 -5 -5 -10 -11 -10 -5 0 -7 5 -4 10 3 6 8 10 11 10 2 0 4 -4 4 -10z m131&#xA;-23 c19 -12 42 -38 52 -57 17 -34 17 -35 -4 -50 -28 -19 -38 -21 -139 -27 -76&#xA;-5 -88 -3 -112 16 l-27 22 27 31 c37 43 103 83 139 86 18 1 44 -7 64 -21z&#xA;m-247 -144 c16 -11 -31 -21 -101 -22 -68 -1 -88 11 -46 28 28 11 126 6 147 -6z&#xA;m-187 -25 c-3 -8 -6 -5 -6 6 -1 11 2 17 5 13 3 -3 4 -12 1 -19z m376 5 c-7 -2&#xA;-19 -2 -25 0 -7 3 -2 5 12 5 14 0 19 -2 13 -5z"/>
    <path d="M975 2270 c-13 -21 9 -30 78 -30 74 0 105 10 93 29 -9 14 -162 15&#xA;-171 1z"/>
    <path d="M6530 2085 c-7 -8 -10 -19 -6 -22 12 -13 137 -16 149 -4 19 19 -6 32&#xA;-70 37 -46 4 -63 1 -73 -11z"/>
    <path d="M9015 1813 c-33 -5 -68 -31 -59 -44 2 -5 40 -6 83 -2 58 4 90 2 125&#xA;-10 40 -14 48 -14 52 -2 9 23 -4 34 -58 50 -50 15 -82 16 -143 8z m15 -17 c0&#xA;-2 -7 -7 -16 -10 -8 -3 -12 -2 -9 4 6 10 25 14 25 6z m57 -2 c-3 -3 -12 -4&#xA;-19 -1 -8 3 -5 6 6 6 11 1 17 -2 13 -5z m40 0 c-3 -3 -12 -4 -19 -1 -8 3 -5 6&#xA;6 6 11 1 17 -2 13 -5z m70 -20 c-3 -3 -12 -4 -19 -1 -8 3 -5 6 6 6 11 1 17 -2&#xA;13 -5z"/>
    <path d="M2400 1691 c-76 -25 -159 -95 -200 -168 -13 -24 -26 -43 -29 -43 -3&#xA;0 -13 12 -22 28 -23 40 -116 99 -184 117 -120 31 -233 14 -323 -47 -81 -56&#xA;-128 -149 -103 -204 6 -15 31 -34 59 -47 40 -18 67 -22 177 -23 72 -1 188 2&#xA;258 7 133 8 170 20 181 56 5 17 24 18 228 18 215 0 224 1 254 22 81 58 25 207&#xA;-100 267 -39 18 -160 29 -196 17z m87 -17 c-3 -3 -12 -4 -19 -1 -8 3 -5 6 6 6&#xA;11 1 17 -2 13 -5z m-97 -14 c-8 -5 -19 -10 -25 -10 -5 0 -3 5 5 10 8 5 20 10&#xA;25 10 6 0 3 -5 -5 -10z m186 -31 c50 -24 88 -63 108 -111 14 -34 14 -38 -3&#xA;-59 -12 -16 -34 -24 -72 -29 -66 -9 -367 -2 -385 8 -37 20 83 163 169 202 48&#xA;22 124 17 183 -11z m-699 -15 c-3 -3 -12 -4 -19 -1 -8 3 -5 6 6 6 11 1 17 -2&#xA;13 -5z m83 -34 c57 -15 125 -64 169 -123 44 -58 50 -81 24 -91 -9 -4 -114 -9&#xA;-232 -13 -324 -9 -377 8 -329 103 55 111 212 164 368 124z m165 -61 c11 -16 1&#xA;-19 -13 -3 -7 8 -8 14 -3 14 5 0 13 -5 16 -11z m96 -12 c-10 -9 -11 -8 -5 6 3&#xA;10 9 15 12 12 3 -3 0 -11 -7 -18z m-621 -7 c0 -5 -2 -10 -4 -10 -3 0 -8 5 -11&#xA;10 -3 6 -1 10 4 10 6 0 11 -4 11 -10z m550 -10 c0 -5 -5 -10 -11 -10 -5 0 -7&#xA;5 -4 10 3 6 8 10 11 10 2 0 4 -4 4 -10z m120 -80 c0 -5 -5 -10 -11 -10 -5 0&#xA;-7 5 -4 10 3 6 8 10 11 10 2 0 4 -4 4 -10z m-713 -22 c-3 -8 -6 -5 -6 6 -1 11&#xA;2 17 5 13 3 -3 4 -12 1 -19z m483 -58 c0 -5 -7 -7 -15 -4 -8 4 -15 8 -15 10 0&#xA;2 7 4 15 4 8 0 15 -4 15 -10z"/>
    <path d="M7559 1419 c-50 -23 -70 -61 -45 -88 27 -29 97 -44 181 -38 97 7 130&#xA;26 121 70 -4 18 -16 40 -29 49 -44 34 -160 37 -228 7z m181 -35 c22 -9 40 -20&#xA;40 -24 0 -10 -90 -23 -140 -22 -48 2 -90 12 -90 22 0 4 12 12 28 18 64 25 109&#xA;27 162 6z m-200 -38 c0 -3 -4 -8 -10 -11 -5 -3 -10 -1 -10 4 0 6 5 11 10 11 6&#xA;0 10 -2 10 -4z m266 -5 c-6 -9 -46 -22 -46 -15 0 3 10 9 23 14 29 11 29 11 23&#xA;1z m-201 -21 c13 -6 15 -9 5 -9 -8 0 -22 4 -30 9 -18 12 -2 12 25 0z m98 -7&#xA;c-7 -2 -19 -2 -25 0 -7 3 -2 5 12 5 14 0 19 -2 13 -5z"/>
    <path d="M3722 1355 c-23 -7 -38 -18 -40 -29 -4 -18 1 -18 69 -11 41 5 105 9&#xA;143 9 75 1 98 18 50 36 -33 13 -169 9 -222 -5z m85 -11 c-3 -3 -12 -4 -19 -1&#xA;-8 3 -5 6 6 6 11 1 17 -2 13 -5z m133 -4 c18 -12 2 -12 -25 0 -13 6 -15 9 -5&#xA;9 8 0 22 -4 30 -9z"/>
    <path d="M5598 1351 c-63 -25 -105 -57 -124 -93 -38 -73 21 -112 186 -126 58&#xA;-5 119 -8 135 -7 118 11 149 16 174 31 57 34 39 106 -38 156 -57 36 -95 46&#xA;-201 52 -68 4 -94 2 -132 -13z m162 -5 c0 -2 -7 -6 -15 -10 -8 -3 -15 -1 -15&#xA;4 0 6 7 10 15 10 8 0 15 -2 15 -4z m-140 -16 c-8 -5 -19 -10 -25 -10 -5 0 -3&#xA;5 5 10 8 5 20 10 25 10 6 0 3 -5 -5 -10z m241 -8 c-7 -2 -18 1 -23 6 -8 8 -4&#xA;9 13 5 13 -4 18 -8 10 -11z m-64 -7 c88 -10 193 -86 159 -114 -26 -21 -131&#xA;-33 -246 -28 -179 9 -228 31 -179 83 59 64 119 77 266 59z m191 -100 c-3 -3&#xA;-9 2 -12 12 -6 14 -5 15 5 6 7 -7 10 -15 7 -18z m-205 -72 c-7 -2 -19 -2 -25&#xA;0 -7 3 -2 5 12 5 14 0 19 -2 13 -5z"/>
  </g>
  <title>Mars Rover Wheels</title>
  <desc>Mars Rover Wheels</desc>
</svg>