<?xml version="1.0" encoding="UTF-8" standalone="yes"?>
<svg version="1.0" xmlns="http://www.w3.org/2000/svg" width="1024.000000pt" height="1024.000000pt" viewBox="0 0 1024.000000 1024.000000" preserveAspectRatio="xMidYMid meet">
  <metadata>
Created by potrace 1.16, written by Peter Selinger 2001-2019
</metadata>
  <g transform="translate(0.000000,1024.000000) scale(0.100000,-0.100000)" fill="#000000" stroke="none">
    <path d="M2128 9900 c-1145 -3 -1740 -8 -1747 -15 -17 -17 -19 -101 -25 -805&#xA;-4 -371 -8 -796 -11 -945 -24 -1346 -25 -7753 -2 -7771 1 -1 223 -4 492 -8&#xA;1234 -15 2890 -21 5824 -19 2838 2 3176 3 3189 17 39 38 44 669 46 5463 0&#xA;2690 -2 4055 -9 4061 -22 21 -4148 33 -7757 22z m4187 -94 c11 -8 81 -47 155&#xA;-88 74 -42 158 -88 185 -103 660 -368 1240 -772 1911 -1331 322 -268 345 -285&#xA;397 -291 34 -4 46 -1 61 16 23 25 23 68 1 111 -37 72 -290 322 -540 534 -392&#xA;333 -739 585 -1302 944 -139 89 -272 176 -295 193 l-43 31 1260 -6 c1234 -7&#xA;1695 -13 1704 -21 6 -7 4 -6478 -3 -6715 -3 -113 -6 -366 -6 -564 l0 -358 -47&#xA;38 c-267 216 -548 494 -819 810 -117 137 -364 450 -636 807 -567 744 -646 827&#xA;-775 827 -114 -1 -192 -70 -538 -475 -182 -214 -346 -396 -490 -545 -98 -102&#xA;-348 -377 -372 -409 -9 -13 -219 230 -424 491 -406 518 -448 566 -527 604 -56&#xA;26 -129 23 -183 -8 -45 -27 -209 -190 -344 -344 -172 -195 -427 -462 -708&#xA;-743 l-304 -303 -88 98 c-126 142 -295 345 -505 609 -502 630 -639 796 -720&#xA;869 -111 100 -234 101 -356 1 -36 -30 -176 -177 -328 -345 -23 -25 -86 -95&#xA;-141 -155 -55 -61 -154 -171 -220 -245 -186 -208 -825 -857 -856 -868 -5 -2&#xA;-9 668 -9 1667 0 919 4 1671 8 1671 30 0 342 -208 657 -436 199 -145 284 -209&#xA;580 -437 174 -135 241 -177 281 -177 41 0 70 36 59 72 -30 98 -337 397 -695&#xA;677 -328 257 -477 362 -750 527 l-135 82 1 68 c1 38 2 255 4 482 2 227 7 415&#xA;11 418 17 10 616 -313 962 -518 533 -317 1346 -906 1908 -1383 l96 -82 -18&#xA;-34 c-141 -262 -12 -581 265 -655 195 -52 412 47 501 229 83 169 57 360 -66&#xA;491 -123 132 -315 179 -477 118 l-50 -19 -108 106 c-217 212 -560 496 -974&#xA;806 -663 497 -1185 832 -1854 1190 l-187 100 3 350 c1 193 4 376 8 407 l5 57&#xA;154 -60 c360 -139 873 -425 1532 -855 152 -99 262 -160 307 -169 63 -13 98 33&#xA;73 98 -41 106 -462 438 -1031 813 -299 196 -558 347 -808 471 -174 85 -232&#xA;118 -228 129 3 8 6 176 6 374 l1 359 267 3 c147 2 825 4 1508 6 l1240 3 235&#xA;-115 c331 -160 643 -317 784 -394 906 -495 1757 -1074 2650 -1806 262 -215&#xA;726 -628 999 -888 l128 -123 -30 -50 c-83 -133 -81 -296 5 -437 80 -133 248&#xA;-219 398 -205 171 16 307 114 366 264 19 47 23 78 23 163 1 97 -2 110 -31 172&#xA;-83 175 -278 280 -462 248 l-63 -11 -262 259 c-306 304 -449 436 -761 707&#xA;-126 110 -281 245 -345 301 -97 85 -415 347 -594 490 -616 491 -1358 1007&#xA;-1939 1350 l-118 69 488 5 c758 8 1354 2 1378 -14z m-1912 -52 c497 -293 663&#xA;-399 1142 -733 187 -130 484 -349 665 -489 220 -172 270 -211 455 -361 242&#xA;-197 342 -281 484 -406 63 -55 151 -131 195 -169 225 -193 430 -383 779 -720&#xA;147 -142 267 -262 267 -266 0 -4 -17 -19 -39 -33 l-38 -26 -159 151 c-793 753&#xA;-1695 1471 -2549 2027 -290 189 -307 200 -495 313 -481 287 -745 428 -1325&#xA;709 l-140 68 323 0 323 1 112 -66z m2320 43 c152 -90 585 -364 737 -466 474&#xA;-318 969 -710 1302 -1030 120 -115 207 -216 196 -227 -7 -6 -141 95 -258 195&#xA;-278 237 -752 608 -995 778 -252 175 -683 448 -885 560 -19 11 -107 59 -195&#xA;108 -88 49 -164 92 -169 97 -6 4 44 8 110 8 105 0 123 -3 157 -23z m-6043&#xA;-940 c281 -142 514 -281 890 -530 300 -199 620 -440 757 -571 57 -54 103 -102&#xA;103 -107 0 -15 -117 56 -520 314 -558 358 -986 587 -1350 722 l-115 43 -3 121&#xA;c-1 67 1 121 5 121 4 0 109 -51 233 -113z m-41 -1218 c362 -196 627 -355 996&#xA;-597 279 -183 294 -193 490 -335 567 -410 1011 -768 1292 -1041 68 -66 72 -71&#xA;56 -88 -9 -10 -19 -18 -23 -18 -4 0 -43 30 -86 68 -438 374 -1005 800 -1529&#xA;1147 -374 248 -755 468 -1250 725 -77 40 -143 76 -147 79 -10 8 -21 171 -12&#xA;171 4 0 100 -50 213 -111z m8113 -1091 c72 -33 139 -100 175 -174 24 -52 28&#xA;-70 27 -149 -1 -74 -5 -100 -26 -145 -31 -69 -93 -131 -166 -167 -50 -25 -68&#xA;-28 -152 -28 -84 0 -102 3 -158 29 -243 112 -271 448 -49 608 89 64 241 75&#xA;349 26z m-8243 -169 c145 -87 301 -190 416 -274 309 -227 647 -508 831 -690&#xA;117 -116 170 -180 127 -156 -10 5 -85 62 -168 126 -318 245 -586 444 -779 579&#xA;-198 139 -434 292 -488 317 -16 7 -29 19 -29 28 -5 62 -5 121 -1 121 3 0 44&#xA;-23 91 -51z m3382 -798 c78 -30 151 -98 191 -179 30 -61 33 -74 33 -162 0 -83&#xA;-3 -102 -27 -150 -43 -87 -90 -135 -175 -177 -69 -34 -82 -37 -162 -37 -67 0&#xA;-97 5 -136 23 -238 107 -296 414 -113 602 40 41 115 84 175 99 54 13 150 5&#xA;214 -19z m3687 -1035 c63 -33 137 -121 636 -761 257 -330 255 -325 123 -285&#xA;-90 27 -208 88 -294 151 -71 53 -71 53 -92 40 -11 -7 -12 -35 -6 -147 3 -77 3&#xA;-150 -2 -162 l-9 -24 -50 40 c-55 44 -115 107 -222 235 -40 48 -79 87 -86 87&#xA;-24 0 -36 -26 -56 -121 -38 -177 -51 -224 -77 -288 l-27 -64 -38 44 c-40 46&#xA;-104 169 -134 254 -9 28 -29 101 -43 164 -16 69 -32 118 -41 124 -12 7 -37 -5&#xA;-101 -46 -194 -126 -308 -174 -374 -156 -19 6 -35 16 -35 23 0 7 42 57 93 112&#xA;94 100 272 302 493 559 67 77 138 155 159 174 67 59 129 75 183 47z m-5360&#xA;-90 c60 -32 217 -209 453 -511 90 -115 222 -282 293 -370 71 -88 134 -166 140&#xA;-174 9 -11 5 -12 -24 -6 -77 16 -256 101 -372 176 -66 43 -124 79 -129 79 -22&#xA;0 -24 -40 -7 -163 9 -72 18 -158 18 -190 l0 -58 -27 15 c-34 17 -269 256 -303&#xA;308 -14 21 -40 45 -58 54 -31 15 -35 14 -53 -2 -11 -10 -47 -74 -80 -142 -47&#xA;-99 -131 -246 -156 -272 -8 -9 -44 44 -74 108 -16 34 -45 124 -64 199 -36 138&#xA;-47 163 -71 163 -7 0 -44 -20 -81 -44 -140 -90 -289 -152 -395 -163 -40 -4&#xA;-62 -2 -73 7 -14 11 -1 28 97 129 63 64 161 170 218 235 177 202 459 508 513&#xA;558 29 26 66 54 82 63 38 19 118 19 153 1z m2939 -235 c26 -13 142 -138 201&#xA;-216 168 -219 532 -666 565 -694 50 -41 -18 -39 -105 4 -29 14 -97 57 -151 96&#xA;-96 69 -127 79 -127 42 0 -9 5 -68 11 -131 6 -62 9 -116 5 -119 -16 -17 -165&#xA;122 -310 290 -48 56 -63 68 -84 65 -24 -3 -32 -17 -88 -155 -33 -84 -69 -162&#xA;-79 -173 -18 -20 -19 -20 -36 -3 -35 36 -80 144 -101 240 -25 119 -34 143 -51&#xA;143 -7 0 -60 -30 -116 -66 -125 -80 -256 -144 -308 -150 -43 -5 -86 13 -91 38&#xA;-2 11 35 57 95 120 54 57 196 211 315 344 119 132 239 261 268 287 72 65 120&#xA;75 187 38z m1968 -493 c2 -7 7 -30 10 -52 21 -144 154 -419 228 -471 29 -20&#xA;80 -19 99 3 39 43 92 200 113 332 13 80 16 79 99 -23 106 -132 222 -227 277&#xA;-227 50 0 62 33 62 175 l0 124 56 -38 c127 -86 232 -124 345 -125 l79 -1 177&#xA;-220 c254 -314 353 -428 540 -619 176 -179 334 -324 493 -449 l97 -77 0 -160&#xA;0 -160 -64 44 c-106 72 -163 90 -292 91 -109 0 -113 -1 -184 -37 l-72 -37 -56&#xA;49 c-101 90 -262 150 -403 150 -75 0 -196 -28 -269 -61 -64 -30 -159 -95 -191&#xA;-131 -16 -18 -19 -18 -72 6 -150 66 -301 60 -459 -19 l-70 -35 -59 36 c-263&#xA;160 -615 463 -930 801 -101 109 -186 200 -189 203 -3 3 -45 50 -95 105 -49 55&#xA;-121 132 -158 172 l-69 72 175 193 c96 106 195 213 220 237 l45 43 32 -23 c26&#xA;-20 44 -24 104 -24 65 0 80 4 166 47 52 25 118 62 145 82 56 39 64 42 70 24z&#xA;m-5435 -152 c0 -19 57 -226 76 -278 45 -120 107 -179 169 -164 33 8 105 118&#xA;185 282 33 68 62 124 64 124 2 0 36 -40 74 -88 87 -109 217 -234 272 -262 54&#xA;-27 100 -24 117 10 17 33 16 111 -2 235 -7 55 -13 101 -12 102 2 1 31 -18 67&#xA;-42 143 -100 317 -165 409 -152 37 5 42 2 72 -37 119 -149 497 -565 713 -785&#xA;492 -499 993 -856 1702 -1211 l210 -105 -48 -74 c-26 -40 -48 -79 -48 -86 0&#xA;-9 -23 -11 -92 -7 -111 5 -185 -8 -269 -50 -120 -60 -251 -213 -300 -352 -10&#xA;-31 -25 -94 -32 -139 -14 -90 -6 -82 -83 -78 -15 1 -24 10 -29 28 -3 16 -24&#xA;66 -46 111 -33 69 -57 100 -132 175 -171 171 -317 225 -522 194 l-50 -7 -25&#xA;47 c-32 61 -132 160 -197 196 -123 66 -317 85 -433 43 -10 -4 -21 7 -34 37&#xA;-72 154 -265 211 -441 128 -36 -16 -66 -27 -68 -23 -3 4 -10 24 -17 45 -20 62&#xA;-82 132 -147 163 -80 40 -186 39 -288 -1 -39 -15 -75 -32 -82 -37 -9 -7 -22&#xA;11 -47 64 -45 95 -80 145 -146 215 -66 67 -142 118 -217 144 -64 22 -184 26&#xA;-256 10 -116 -27 -289 -136 -374 -237 l-39 -46 -29 43 c-66 94 -210 186 -350&#xA;223 -94 24 -248 16 -355 -19 -47 -15 -111 -40 -142 -56 l-58 -29 0 459 0 458&#xA;352 351 c346 345 352 350 375 335 37 -25 208 -13 299 21 68 25 208 97 229 117&#xA;9 9 25 13 25 5z m3100 -103 c0 -71 87 -274 133 -311 25 -21 84 -19 107 4 22&#xA;22 76 129 115 232 16 39 31 72 34 72 3 -1 26 -26 51 -56 129 -158 280 -284&#xA;340 -284 53 0 63 37 46 174 l-8 69 50 -36 c88 -65 194 -109 270 -112 l67 -4&#xA;95 -104 c348 -384 515 -563 670 -717 255 -254 560 -508 764 -634 42 -27 76&#xA;-51 76 -56 0 -4 -28 -38 -61 -76 -34 -38 -68 -83 -77 -101 l-15 -31 -51 28&#xA;c-28 16 -87 41 -131 56 -71 25 -94 28 -210 28 -122 0 -135 -2 -206 -30 -41&#xA;-17 -100 -47 -130 -67 -53 -35 -151 -131 -194 -190 l-20 -27 -50 24 c-80 38&#xA;-195 60 -289 53 -95 -6 -173 -32 -251 -81 l-56 -36 -152 74 c-591 291 -1000&#xA;560 -1465 964 l-142 124 70 70 c89 89 182 205 271 337 68 101 129 210 129 231&#xA;0 21 -20 8 -47 -31 -124 -180 -370 -489 -440 -552 -23 -20 -11 -30 -262 226&#xA;l-144 148 124 116 c68 64 197 189 287 277 89 88 162 155 162 148 0 -6 18 -24&#xA;40 -38 36 -24 47 -26 106 -21 75 6 196 60 314 140 67 46 80 45 80 0z m4075&#xA;-1568 c86 -23 171 -72 246 -142 37 -35 70 -63 74 -63 5 0 22 11 39 24 79 60&#xA;114 71 226 71 99 0 110 -2 170 -32 36 -18 91 -53 123 -78 l57 -45 0 -130 0&#xA;-131 -52 8 c-99 15 -719 8 -933 -11 -887 -76 -1701 -262 -2560 -586 -250 -94&#xA;-678 -275 -808 -342 -62 -32 -63 -32 -215 -32 l-153 -1 6 50 c25 203 147 385&#xA;310 465 64 31 78 34 160 35 50 0 116 -4 148 -9 46 -7 57 -6 57 6 0 29 71 159&#xA;110 202 82 89 194 140 315 145 76 2 201 -29 272 -69 29 -17 59 -30 68 -30 8 0&#xA;37 33 64 74 115 169 285 266 470 266 105 0 293 -63 356 -120 36 -33 56 -29 81&#xA;18 66 124 167 223 290 284 75 37 95 42 169 46 99 5 156 -7 242 -50 l63 -32 37&#xA;36 c55 52 129 106 186 135 101 50 268 67 382 38z m-6924 -25 c86 -16 158 -57&#xA;231 -131 53 -54 76 -88 118 -176 29 -59 57 -119 64 -133 15 -30 35 -28 85 6&#xA;102 69 261 83 341 30 63 -41 91 -95 115 -218 7 -38 34 -36 89 6 50 38 152 76&#xA;204 76 98 0 186 -63 224 -161 26 -67 15 -64 128 -34 102 28 230 17 323 -28 89&#xA;-42 180 -129 222 -212 34 -67 29 -66 148 -45 220 38 462 -119 577 -375 16 -36&#xA;26 -65 22 -66 -4 0 -189 0 -411 1 l-403 1 -102 51 c-372 187 -803 355 -1296&#xA;507 -390 120 -756 210 -1085 265 -303 51 -848 100 -1045 95 l-75 -2 -3 205 -2&#xA;206 82 40 c150 74 199 86 328 86 133 -1 178 -13 285 -79 77 -48 120 -90 184&#xA;-177 23 -32 48 -58 55 -58 7 0 41 34 75 75 77 94 153 155 256 205 107 51 161&#xA;60 266 40z m7798 -566 l64 -6 -7 -436 c-4 -240 -8 -437 -9 -438 -15 -11 -4254&#xA;-27 -4242 -16 16 15 461 200 720 300 44 16 197 69 340 117 843 281 1715 447&#xA;2535 483 183 8 500 6 599 -4z m-8899 -64 c893 -71 1809 -307 2750 -711 74 -32&#xA;164 -71 200 -88 l65 -30 -785 4 c-1516 9 -2595 16 -2620 18 l-25 2 -3 400 c-1&#xA;220 0 405 2 412 6 14 187 11 416 -7z"/>
    <path d="M1257 9483 c-10 -3 -23 -17 -28 -31 -10 -25 -7 -30 33 -64 24 -21&#xA;128 -98 231 -170 170 -120 341 -244 407 -297 14 -11 23 -22 20 -24 -3 -2 -106&#xA;27 -230 65 -280 86 -571 170 -673 193 -72 17 -79 17 -94 2 -27 -27 -3 -58 96&#xA;-123 186 -121 461 -303 611 -405 85 -58 342 -231 570 -384 228 -153 458 -308&#xA;510 -343 602 -413 1287 -937 1885 -1441 525 -442 655 -565 655 -622 0 -15 -4&#xA;-16 -36 -7 -20 5 -79 27 -131 48 -52 21 -119 44 -149 51 -48 11 -57 10 -71 -3&#xA;-32 -33 -7 -67 224 -300 125 -126 224 -230 221 -233 -3 -3 -36 0 -75 7 -84 14&#xA;-103 8 -103 -30 0 -35 66 -110 198 -229 132 -117 277 -210 486 -314 219 -108&#xA;280 -124 440 -116 185 8 334 70 462 190 160 149 234 320 234 537 0 129 -21&#xA;217 -76 330 -80 161 -248 309 -409 359 -42 13 -70 33 -132 91 -138 132 -411&#xA;361 -673 565 -353 275 -876 694 -1135 908 -381 316 -782 630 -1045 818 -358&#xA;257 -500 350 -855 565 -276 168 -493 284 -529 284 -25 0 -46 -17 -46 -37 0 -8&#xA;42 -57 93 -110 l92 -95 -101 50 c-197 99 -515 223 -733 286 -68 20 -124 35&#xA;-124 35 -1 -1 -10 -3 -20 -6z m209 -122 c251 -81 531 -201 756 -323 158 -86&#xA;191 -93 196 -46 3 23 -12 43 -84 118 -48 49 -84 90 -80 90 31 0 550 -314 801&#xA;-485 423 -286 1002 -725 1355 -1025 67 -57 152 -125 425 -345 455 -366 448&#xA;-361 825 -654 102 -79 226 -178 275 -219 90 -75 335 -292 335 -297 0 -2 -35&#xA;-3 -79 -3 -171 -2 -357 -73 -479 -186 -177 -163 -266 -439 -218 -676 17 -84&#xA;66 -204 105 -259 12 -16 21 -32 21 -35 0 -16 -229 163 -329 256 l-64 60 41 -7&#xA;c60 -10 101 2 113 32 18 48 -21 101 -224 304 -106 106 -185 190 -177 186 8 -3&#xA;62 -24 119 -47 135 -53 181 -60 210 -31 28 28 27 44 -8 116 -22 47 -57 87&#xA;-157 185 -71 69 -160 152 -199 185 -38 33 -126 110 -196 170 -275 241 -776&#xA;643 -1209 971 -366 278 -533 395 -1370 959 -624 421 -882 594 -959 642 -46 29&#xA;-81 53 -77 53 9 0 340 -99 536 -160 243 -75 303 -85 334 -54 57 57 -15 127&#xA;-424 413 -96 68 -177 125 -179 127 -8 7 6 4 65 -15z m4871 -3275 c318 -67 533&#xA;-326 533 -642 0 -167 -44 -295 -143 -415 -90 -109 -197 -178 -337 -219 -103&#xA;-31 -271 -25 -375 12 -196 69 -356 226 -422 414 -24 70 -27 93 -27 204 0 91 5&#xA;141 18 185 51 171 181 328 336 404 138 68 276 86 417 57z"/>
    <path d="M2822 8567 c-21 -25 46 -117 196 -269 80 -82 143 -148 139 -148 -4 0&#xA;-55 30 -114 67 -249 153 -417 242 -580 307 -104 41 -143 46 -143 18 0 -29 25&#xA;-56 158 -174 171 -150 382 -317 847 -669 215 -162 467 -356 560 -430 94 -74&#xA;258 -204 365 -289 231 -182 389 -317 788 -672 79 -71 150 -128 158 -128 29 0&#xA;12 34 -48 94 -93 92 -619 549 -771 670 -73 58 -249 198 -392 312 -143 113&#xA;-383 299 -534 413 -549 414 -1034 801 -1003 801 39 0 346 -159 514 -266 83&#xA;-53 181 -110 216 -127 62 -29 65 -30 78 -12 8 10 14 22 14 25 0 24 -83 124&#xA;-194 235 -73 72 -143 143 -156 159 l-25 28 35 -7 c50 -11 229 -96 345 -165 55&#xA;-33 204 -139 330 -235 383 -293 405 -310 900 -709 116 -93 309 -248 430 -344&#xA;121 -97 222 -178 225 -182 3 -3 41 -35 85 -70 190 -154 555 -479 580 -516 17&#xA;-26 45 -32 45 -10 0 61 -331 360 -935 846 -330 265 -645 519 -800 646 -119 96&#xA;-287 226 -565 438 -224 170 -436 291 -613 351 -84 28 -119 31 -135 12z"/>
    <path d="M3734 7718 c-9 -14 15 -35 201 -176 163 -124 509 -401 642 -513 111&#xA;-94 139 -113 153 -104 20 13 -91 115 -380 350 -149 122 -590 455 -601 455 -4&#xA;0 -11 -5 -15 -12z"/>
    <path d="M5150 6525 c0 -20 355 -315 379 -315 42 0 -51 91 -269 263 -85 68&#xA;-110 79 -110 52z"/>
    <path d="M6060 5970 c-47 -8 -77 -26 -96 -55 -18 -28 -15 -96 5 -103 11 -4 13&#xA;2 8 27 -4 18 -2 42 4 52 14 28 69 59 102 59 15 0 27 4 27 9 0 15 -12 18 -50&#xA;11z"/>
    <path d="M6500 5905 c0 -9 9 -15 25 -15 16 0 25 6 25 15 0 9 -9 15 -25 15 -16&#xA;0 -25 -6 -25 -15z"/>
    <path d="M5783 5785 c-11 -8 -28 -33 -37 -56 -41 -102 46 -177 122 -106 46 43&#xA;50 154 6 171 -27 10 -69 6 -91 -9z m89 -29 c23 -33 -11 -118 -50 -128 -31 -9&#xA;-62 18 -62 54 0 39 59 102 87 91 10 -3 21 -11 25 -17z"/>
    <path d="M6531 5674 c-30 -38 -29 -129 2 -174 42 -62 76 -65 104 -9 19 35 16&#xA;128 -5 169 -23 47 -70 54 -101 14z"/>
    <path d="M6106 5641 c-26 -28 -32 -120 -12 -160 21 -40 61 -57 93 -40 47 25&#xA;54 140 11 194 -24 30 -67 33 -92 6z"/>
    <path d="M6060 5325 c-31 -37 2 -155 57 -206 48 -46 93 -62 180 -67 166 -9&#xA;273 65 273 190 0 41 -28 51 -100 37 -78 -15 -140 -7 -236 30 -87 34 -154 40&#xA;-174 16z m150 -87 c83 -35 196 -48 249 -30 20 7 33 7 37 1 10 -16 -23 -45 -79&#xA;-69 -41 -18 -64 -21 -117 -17 -70 5 -130 28 -148 57 -6 10 -18 34 -26 54 -19&#xA;45 -13 46 84 4z"/>
    <path d="M5710 5270 c-12 -45 2 -92 38 -123 37 -33 112 -20 112 20 0 8 -3 13&#xA;-7 11 -5 -2 -21 -10 -37 -18 -27 -14 -30 -13 -58 19 -30 34 -33 61 -13 114 5&#xA;12 2 17 -9 17 -9 0 -19 -15 -26 -40z"/>
    <path d="M6736 5253 c-17 -74 -78 -154 -155 -204 -40 -26 -17 -42 28 -20 71&#xA;37 144 140 153 215 4 38 -18 45 -26 9z"/>
    <path d="M9079 9133 c-8 -9 -26 -43 -40 -77 -25 -57 -28 -61 -55 -57 -16 3&#xA;-51 5 -79 5 -68 1 -70 -19 -10 -95 l47 -59 -22 -65 c-37 -112 -4 -135 96 -68&#xA;l56 37 60 -62 c43 -47 65 -62 81 -60 20 3 22 9 21 58 0 30 -4 69 -8 87 -8 31&#xA;-7 33 47 59 90 42 87 83 -6 104 -81 20 -84 22 -97 102 -7 40 -16 81 -22 91&#xA;-11 22 -51 22 -69 0z m47 -170 c14 -40 57 -73 96 -73 7 0 -5 -15 -26 -33 -39&#xA;-33 -39 -34 -29 -75 6 -23 9 -42 6 -42 -3 0 -23 16 -44 35 -47 42 -62 43 -113&#xA;9 l-39 -27 7 24 c20 69 19 94 -8 126 -31 37 -33 47 -7 33 34 -18 68 -12 90 16&#xA;12 15 21 30 21 35 0 4 5 20 12 36 l12 28 3 -25 c2 -14 11 -44 19 -67z"/>
    <path d="M6954 8825 c-54 -22 -80 -79 -63 -139 14 -49 51 -76 106 -76 36 0 50&#xA;6 75 30 28 29 30 35 26 86 -3 37 -11 62 -25 75 -28 28 -83 39 -119 24z m78&#xA;-62 c36 -32 12 -103 -35 -103 -46 0 -78 75 -45 108 17 17 58 15 80 -5z"/>
    <path d="M4532 8590 c-12 -12 -22 -26 -22 -33 0 -7 -9 -23 -19 -36 -17 -22&#xA;-26 -25 -71 -22 -89 5 -103 -29 -39 -95 l41 -42 -22 -60 c-34 -94 -14 -117 55&#xA;-62 59 47 69 47 116 -5 29 -31 49 -45 63 -43 19 3 21 10 21 85 l0 83 40 21&#xA;c22 11 47 28 55 36 13 13 12 16 -8 33 -13 10 -43 22 -67 26 -52 7 -60 15 -70&#xA;69 -12 67 -34 81 -73 45z m55 -140 c14 -11 35 -20 46 -20 17 0 17 -2 -8 -21&#xA;-23 -19 -26 -28 -23 -65 2 -24 0 -44 -4 -44 -5 0 -8 4 -8 8 0 12 -46 32 -73&#xA;32 -13 0 -29 -6 -36 -12 -11 -11 -12 -7 -7 17 6 25 2 36 -23 59 -27 26 -34 55&#xA;-10 40 24 -14 75 7 94 39 18 30 20 30 23 10 2 -13 15 -32 29 -43z"/>
    <path d="M5645 7758 c-33 -19 -44 -41 -44 -83 0 -46 15 -70 53 -85 38 -14 71&#xA;-3 101 32 41 48 30 104 -25 133 -34 18 -58 19 -85 3z m63 -50 c17 -17 15 -57&#xA;-2 -64 -21 -8 -56 14 -56 34 0 20 18 42 35 42 6 0 16 -5 23 -12z"/>
    <path d="M8875 7238 c-89 -77 -6 -228 100 -184 44 19 65 52 65 104 0 88 -100&#xA;136 -165 80z m97 -45 c36 -32 13 -93 -36 -93 -31 0 -46 18 -46 57 0 49 46 69&#xA;82 36z"/>
    <path d="M2795 7111 c-37 -15 -58 -49 -63 -101 -4 -47 -3 -52 36 -90 29 -30&#xA;48 -40 71 -40 68 0 121 52 121 119 0 84 -87 143 -165 112z m89 -62 c32 -25 34&#xA;-64 4 -96 -28 -30 -53 -29 -83 2 -30 29 -32 68 -5 95 26 26 51 25 84 -1z"/>
    <path d="M6834 6966 c-11 -8 -31 -37 -44 -65 l-24 -52 -43 7 c-101 15 -123&#xA;-25 -49 -89 l44 -38 -19 -54 c-42 -120 -22 -128 97 -40 10 7 27 -3 63 -39 76&#xA;-75 111 -48 78 63 l-14 48 53 27 c44 21 54 30 54 51 0 28 -2 29 -74 41 l-50 9&#xA;-13 60 c-17 74 -31 91 -59 71z m42 -173 c10 -7 27 -13 38 -13 19 0 18 -3 -8&#xA;-23 -26 -21 -29 -28 -23 -65 l5 -42 -31 26 c-29 24 -40 26 -79 9 -15 -6 -17&#xA;-1 -16 29 1 27 -6 44 -26 65 l-28 29 44 -5 c42 -5 44 -4 68 38 l24 44 7 -39&#xA;c3 -22 15 -45 25 -53z"/>
    <path d="M1672 6290 c-25 -36 -31 -39 -74 -40 -63 0 -73 -26 -29 -76 36 -40&#xA;36 -40 16 -87 -30 -73 -8 -94 60 -57 l43 23 38 -31 c40 -33 73 -41 76 -19 1 6&#xA;2 32 2 56 1 41 4 47 44 74 61 41 53 72 -23 84 -33 5 -39 11 -60 59 -30 68 -53&#xA;71 -93 14z m66 -81 c10 -20 27 -36 42 -40 21 -5 22 -7 8 -14 -10 -4 -23 -22&#xA;-29 -40 -12 -33 -13 -33 -41 -19 -21 11 -33 12 -47 4 -27 -14 -26 -15 -26 28&#xA;-1 20 -5 45 -9 54 -6 13 -4 15 12 11 13 -3 27 5 43 25 27 34 25 34 47 -9z"/>
    <path d="M7645 5285 c-35 -34 -34 -93 1 -129 20 -19 37 -26 66 -26 81 0 116&#xA;85 62 149 -34 41 -92 44 -129 6z m94 -47 c10 -28 5 -44 -17 -53 -25 -9 -55 31&#xA;-42 56 15 26 49 24 59 -3z"/>
    <path d="M9081 5087 c-14 -7 -34 -37 -51 -77 -30 -71 -27 -70 -117 -55 -84 15&#xA;-96 -31 -28 -104 l45 -49 -25 -81 c-15 -45 -25 -92 -23 -104 5 -34 47 -33 117&#xA;3 l61 30 60 -49 c89 -74 115 -52 86 73 -9 37 -16 71 -16 76 0 4 21 16 46 26&#xA;58 22 94 50 94 74 0 25 -29 40 -93 47 -78 9 -82 12 -95 100 -15 91 -26 108&#xA;-61 90z m27 -204 c7 -13 25 -25 40 -29 15 -3 38 -9 52 -14 24 -7 24 -8 -17&#xA;-25 -47 -19 -59 -47 -47 -111 l7 -37 -41 32 c-43 35 -53 34 -111 -10 -35 -28&#xA;-42 -23 -27 19 31 89 30 108 -11 153 l-38 42 30 -8 c17 -5 44 -9 60 -9 26 -1&#xA;33 5 55 49 l25 50 5 -40 c4 -22 12 -50 18 -62z"/>
    <path d="M995 4924 c-44 -23 -64 -55 -65 -102 0 -35 6 -49 30 -74 29 -28 35&#xA;-30 86 -26 67 6 93 28 101 86 11 85 -79 154 -152 116z m71 -52 c58 -39 8 -126&#xA;-54 -93 -31 17 -34 50 -7 77 25 25 42 29 61 16z"/>
    <path d="M3570 4235 c-7 -8 -23 -34 -36 -58 -20 -36 -26 -41 -51 -38 -15 2&#xA;-48 4 -73 5 -42 1 -45 -1 -48 -26 -2 -20 7 -38 39 -73 40 -43 42 -48 29 -68&#xA;-38 -59 -51 -98 -39 -113 16 -20 51 -17 103 8 l45 21 36 -29 c20 -16 48 -38&#xA;62 -49 l25 -20 15 20 c14 19 12 89 -3 130 -4 9 9 21 39 35 99 47 99 83 0 112&#xA;l-60 18 -12 58 c-15 78 -41 103 -71 67z m44 -154 c6 -8 27 -21 46 -29 l34 -14&#xA;-29 -12 c-45 -19 -58 -41 -52 -81 7 -40 -2 -44 -28 -15 -22 25 -41 25 -85 2&#xA;l-35 -17 18 37 c21 43 17 65 -20 102 -32 32 -28 37 20 27 30 -7 42 -5 61 10&#xA;14 11 28 30 32 42 7 21 8 21 17 -8 5 -16 15 -36 21 -44z"/>
    <path d="M9205 3678 c-52 -30 -62 -99 -20 -138 36 -34 101 -32 132 4 65 76&#xA;-25 184 -112 134z m76 -54 c9 -11 10 -20 2 -32 -15 -24 -44 -27 -59 -7 -28 38&#xA;27 75 57 39z"/>
    <path d="M8484 6454 c-13 -51 29 -115 57 -87 10 10 9 17 -4 31 -9 10 -17 33&#xA;-17 50 0 40 -27 44 -36 6z"/>
    <path d="M8712 6416 c-78 -89 -64 -203 30 -252 35 -18 72 -18 88 1 16 19 10&#xA;26 -43 45 -79 29 -96 104 -42 185 24 34 25 55 5 55 -4 0 -21 -15 -38 -34z"/>
    <path d="M8413 6213 c-23 -57 -13 -117 28 -159 45 -46 94 -59 166 -43 53 12&#xA;56 12 74 -10 37 -45 67 -1 32 48 -15 23 -20 23 -95 18 -127 -10 -176 27 -165&#xA;128 4 44 3 55 -9 55 -8 0 -22 -17 -31 -37z"/>
    <path d="M3664 5486 c-7 -19 21 -73 49 -90 56 -36 147 -19 147 29 0 28 -7 31&#xA;-29 11 -37 -33 -91 -20 -121 30 -23 36 -37 43 -46 20z"/>
    <path d="M3960 5256 c0 -19 -9 -45 -21 -60 -18 -23 -26 -26 -55 -20 -27 5 -34&#xA;3 -34 -10 0 -18 30 -36 59 -36 50 0 99 85 80 138 -12 33 -29 26 -29 -12z"/>
    <path d="M3493 5270 c-41 -17 -25 -30 36 -30 38 0 61 -4 64 -12 3 -7 2 -42 0&#xA;-78 -5 -59 -3 -69 19 -94 31 -36 104 -46 161 -23 60 25 44 57 -18 37 -39 -13&#xA;-88 -6 -110 17 -10 10 -15 36 -15 81 0 37 -4 72 -8 78 -20 31 -83 42 -129 24z"/>
    <path d="M6850 3010 c0 -44 45 -173 86 -249 71 -129 186 -255 227 -249 16 2&#xA;26 15 37 50 8 27 17 48 20 47 7 -1 122 -134 204 -236 59 -73 98 -104 113 -90&#xA;14 15 -207 301 -278 361 -45 38 -64 34 -86 -19 -10 -25 -21 -45 -25 -45 -14 0&#xA;-112 118 -148 180 -41 70 -85 170 -104 235 -15 51 -46 61 -46 15z"/>
    <path d="M8300 2945 c0 -71 312 -460 495 -618 88 -77 129 -101 152 -93 11 5&#xA;-34 55 -165 184 -179 176 -279 289 -402 455 -64 87 -80 101 -80 72z"/>
    <path d="M7510 2764 c0 -42 89 -186 201 -326 128 -161 328 -332 355 -305 4 4&#xA;-53 69 -127 145 -181 184 -269 292 -373 460 -26 42 -56 56 -56 26z"/>
    <path d="M1314 2948 c-167 -192 -341 -365 -549 -547 -16 -15 -64 -52 -106 -83&#xA;-94 -69 -105 -84 -59 -74 140 27 611 457 784 715 34 50 46 91 28 91 -5 0 -49&#xA;-46 -98 -102z"/>
    <path d="M2970 2925 c0 -30 172 -235 360 -429 227 -234 430 -403 562 -467 55&#xA;-26 77 -17 34 15 -251 184 -633 544 -866 813 -63 73 -90 94 -90 68z"/>
    <path d="M2230 2723 c0 -116 93 -391 183 -545 48 -82 138 -188 159 -188 12 0&#xA;25 32 38 95 19 94 21 95 75 24 47 -62 138 -169 220 -257 68 -74 165 -136 165&#xA;-106 0 4 -42 50 -93 103 -51 54 -146 163 -210 244 -82 103 -123 147 -138 147&#xA;-22 0 -42 -38 -61 -120 -6 -27 -15 -47 -19 -45 -16 10 -99 145 -142 231 -52&#xA;104 -87 198 -128 344 -35 124 -49 145 -49 73z"/>
    <path d="M1570 2549 c-62 -117 -172 -290 -245 -386 -37 -48 -33 -67 8 -43 55&#xA;30 193 235 268 395 37 80 57 155 42 155 -5 0 -37 -54 -73 -121z"/>
    <path d="M4945 2700 c-9 -14 13 -152 37 -229 29 -95 88 -209 121 -237 52 -43&#xA;51 -13 -2 97 -28 57 -62 147 -77 199 -14 52 -31 113 -37 134 -12 40 -30 56&#xA;-42 36z"/>
    <path d="M5880 2686 c0 -89 124 -277 307 -467 140 -145 306 -269 329 -246 6 5&#xA;-55 64 -181 174 -146 127 -335 366 -415 523 -23 45 -40 52 -40 16z"/>
    <path d="M5384 2657 c-15 -41 72 -243 171 -392 88 -133 222 -265 239 -236 3 5&#xA;-13 31 -37 57 -110 125 -201 264 -288 438 -38 76 -71 141 -74 144 -2 3 -7 -2&#xA;-11 -11z"/>
    <path d="M9040 891 c-85 -22 -162 -65 -222 -123 -46 -45 -51 -47 -71 -34 -12&#xA;8 -58 27 -102 43 -75 26 -90 28 -235 27 -135 -1 -165 -4 -235 -25 -44 -14&#xA;-109 -41 -145 -61 -78 -44 -148 -103 -137 -114 4 -4 46 11 93 35 171 86 309&#xA;118 472 108 106 -6 241 -42 285 -77 14 -11 29 -20 34 -20 4 0 29 24 54 53 98&#xA;111 240 154 471 143 79 -4 138 -3 138 2 0 18 -36 41 -80 51 -69 16 -245 12&#xA;-320 -8z"/>
    <path d="M898 855 c-27 -9 -48 -20 -48 -25 0 -12 -2 -12 135 -15 158 -4 265&#xA;-45 405 -156 l53 -42 50 13 c108 27 229 12 370 -46 32 -14 62 -22 67 -19 20&#xA;12 -24 56 -88 87 -60 30 -76 33 -172 36 -70 2 -123 -2 -159 -11 l-55 -15 -40&#xA;42 c-50 50 -146 110 -224 138 -75 28 -227 34 -294 13z"/>
  </g>
  <title>Deszcz meteorów nad górami</title>
  <desc>'Spadające gwiazdy', czyli deszcz meteorów, rozświetlają niebo nad górami. To piękne zjawisko astronomiczne. Narysuj jak najwięcej świetlistych smug.</desc>
</svg>