<?xml version="1.0" encoding="UTF-8" standalone="yes"?>
<svg version="1.0" xmlns="http://www.w3.org/2000/svg" width="1024.000000pt" height="1024.000000pt" viewBox="0 0 1024.000000 1024.000000" preserveAspectRatio="xMidYMid meet">
  <metadata>
Created by potrace 1.16, written by Peter Selinger 2001-2019
</metadata>
  <g transform="translate(0.000000,1024.000000) scale(0.100000,-0.100000)" fill="#000000" stroke="none">
    <path d="M818 9890 c-311 -4 -349 -7 -368 -22 -18 -16 -20 -30 -21 -145 0 -71&#xA;-2 -135 -3 -143 -2 -8 -6 -204 -10 -435 -3 -231 -8 -523 -11 -650 -3 -126 -8&#xA;-547 -11 -935 -4 -388 -8 -716 -11 -730 -2 -14 -6 -1271 -8 -2795 -3 -2463 3&#xA;-3438 20 -3543 10 -59 17 -60 385 -71 559 -17 696 -21 1180 -27 256 -3 503 -8&#xA;550 -10 47 -3 1695 -7 3663 -11 3239 -5 3579 -4 3601 11 37 24 33 -51 61 1076&#xA;3 107 7 317 10 465 3 149 7 360 10 470 9 320 24 1316 31 2025 3 360 7 700 9&#xA;755 2 55 5 942 8 1970 6 1969 0 2652 -21 2678 -24 29 -122 42 -477 63 -128 8&#xA;-8072 11 -8587 4z m8197 -104 c28 -3 163 -7 300 -10 260 -5 463 -21 480 -37&#xA;16 -16 13 -3289 -5 -5014 -11 -987 -20 -1641 -25 -1815 -3 -85 -7 -319 -10&#xA;-520 -5 -346 -9 -549 -20 -1000 -3 -107 -7 -303 -10 -435 -3 -132 -8 -296 -11&#xA;-363 l-6 -124 -3562 5 c-1958 3 -3590 8 -3626 11 -36 2 -263 7 -505 11 -760 9&#xA;-1511 27 -1520 36 -2 3 -10 174 -16 380 -11 385 -15 4730 -5 5229 6 269 13&#xA;776 21 1630 10 1053 28 1996 39 2012 7 13 8356 16 8481 4z"/>
    <path d="M8655 9476 c-13 -13 -53 -83 -89 -155 -63 -125 -67 -130 -93 -126&#xA;-227 41 -263 43 -286 17 -36 -40 -23 -64 105 -200 91 -95 90 -74 12 -240 -54&#xA;-115 -64 -158 -42 -180 23 -23 66 -12 195 52 l131 64 108 -105 c123 -118 154&#xA;-139 184 -123 30 16 32 42 16 205 -8 82 -13 152 -10 156 2 3 52 33 111 67 121&#xA;67 148 91 139 120 -8 24 -27 32 -178 76 -134 39 -138 41 -138 65 0 9 -15 80&#xA;-34 156 -26 105 -40 144 -56 157 -30 24 -46 23 -75 -6z m54 -138 c11 -35 27&#xA;-99 36 -143 10 -44 23 -89 30 -101 9 -15 46 -29 134 -54 66 -18 118 -37 115&#xA;-41 -2 -4 -45 -29 -94 -55 -130 -68 -124 -57 -110 -219 7 -75 10 -138 7 -141&#xA;-3 -3 -54 42 -113 100 -60 58 -115 106 -122 106 -7 0 -29 -11 -50 -24 -57 -36&#xA;-203 -108 -209 -103 -2 3 19 58 46 123 28 64 51 127 51 139 0 25 -18 50 -110&#xA;154 l-65 74 80 -9 c44 -5 109 -9 145 -9 l65 0 68 133 c37 72 70 132 72 132 2&#xA;0 12 -28 24 -62z"/>
    <path d="M6964 9480 c-34 -13 -54 -50 -54 -98 0 -112 143 -143 195 -42 24 46&#xA;19 78 -19 116 -35 35 -75 43 -122 24z m74 -56 c12 -8 22 -26 22 -38 0 -54 -77&#xA;-64 -95 -12 -8 24 -6 31 14 47 28 23 31 23 59 3z"/>
    <path d="M1443 9402 c-10 -9 -42 -102 -72 -207 -30 -105 -55 -191 -55 -192 -1&#xA;-1 -78 -18 -171 -38 -94 -20 -176 -42 -184 -49 -23 -24 -5 -63 47 -101 26 -18&#xA;89 -60 141 -92 51 -32 97 -60 101 -63 5 -3 0 -68 -11 -145 -25 -187 -25 -237&#xA;1 -260 19 -17 23 -17 53 -3 17 9 91 69 162 133 79 70 136 114 145 111 8 -2 74&#xA;-32 147 -65 147 -68 186 -80 208 -61 25 21 18 56 -45 214 -33 84 -60 156 -60&#xA;162 0 6 14 23 31 40 17 16 74 76 126 133 82 90 94 108 91 135 l-3 31 -205 3&#xA;-205 3 -18 37 c-50 100 -134 240 -158 265 -32 32 -43 33 -66 9z m120 -247 c81&#xA;-148 93 -161 145 -151 15 3 87 8 161 11 l135 7 -51 -59 c-28 -32 -81 -87 -117&#xA;-123 -48 -47 -66 -72 -66 -91 0 -14 24 -85 54 -158 29 -72 51 -131 49 -131 -3&#xA;0 -64 27 -136 60 -73 33 -142 60 -155 60 -15 0 -64 -40 -149 -120 -70 -66&#xA;-130 -120 -135 -120 -4 0 -5 12 -3 28 3 15 12 90 21 166 12 107 13 144 4 161&#xA;-6 12 -67 55 -135 96 -68 41 -124 77 -125 80 0 6 24 12 212 54 42 9 83 22 92&#xA;28 9 7 37 87 63 179 27 92 50 168 53 168 3 0 40 -65 83 -145z"/>
    <path d="M2750 9354 c-17 -15 -37 -39 -45 -55 -47 -90 28 -199 127 -186 97 13&#xA;150 101 117 195 -24 70 -138 97 -199 46z m124 -45 c54 -42 21 -139 -48 -139&#xA;-69 0 -102 85 -51 135 30 30 64 32 99 4z"/>
    <path d="M4890 9369 c-563 -43 -1158 -205 -1615 -439 -514 -263 -931 -607&#xA;-1376 -1132 -158 -187 -349 -480 -479 -738 -262 -519 -394 -964 -451 -1514&#xA;-28 -266 -23 -682 11 -936 81 -619 260 -1135 571 -1648 331 -546 853 -1073&#xA;1374 -1387 516 -311 1115 -509 1720 -571 190 -19 599 -22 790 -5 825 74 1614&#xA;392 2269 915 369 295 619 569 885 971 192 291 310 523 438 865 148 398 224&#xA;777 254 1280 29 481 -39 1000 -198 1495 -116 362 -313 763 -532 1083 -76 111&#xA;-281 367 -398 498 -160 178 -463 446 -640 566 -229 154 -521 314 -763 416&#xA;-276 116 -684 220 -1030 262 -231 28 -609 37 -830 19z m515 -133 c276 -12 579&#xA;-57 816 -122 942 -257 1704 -813 2241 -1634 140 -214 203 -320 273 -465 211&#xA;-433 323 -809 391 -1320 24 -179 29 -587 10 -810 -87 -1009 -476 -1845 -1190&#xA;-2561 -221 -220 -434 -390 -716 -568 -537 -341 -1151 -550 -1805 -616 -144&#xA;-15 -556 -15 -720 -1 -514 45 -969 174 -1420 401 -458 231 -837 525 -1184 920&#xA;-168 191 -230 272 -368 481 -139 212 -217 357 -316 587 -170 398 -257 726&#xA;-313 1177 -22 174 -25 629 -6 815 59 564 234 1122 496 1584 234 411 561 822&#xA;886 1110 223 198 386 321 594 445 478 288 1027 478 1593 552 129 16 549 40&#xA;588 33 6 -2 73 -5 150 -8z"/>
    <path d="M5630 9088 c-48 -14 -62 -27 -58 -57 6 -55 107 -96 236 -95 93 1 135&#xA;20 140 67 8 69 -188 122 -318 85z m227 -53 c33 -14 42 -29 23 -40 -19 -12&#xA;-175 -6 -215 8 -45 16 -52 38 -15 49 35 10 167 0 207 -17z"/>
    <path d="M4480 9054 c-117 -18 -259 -54 -376 -95 -331 -117 -482 -300 -317&#xA;-383 155 -78 611 -4 869 139 64 36 124 86 124 103 0 6 -51 -13 -112 -42 -228&#xA;-108 -466 -166 -675 -166 -116 0 -165 12 -192 45 -25 33 -18 56 34 104 100 92&#xA;351 187 615 232 114 20 344 17 400 -4 66 -26 100 -62 100 -109 0 -43 12 -48&#xA;34 -16 33 47 11 121 -47 157 -83 51 -259 65 -457 35z"/>
    <path d="M5588 8719 c-83 -9 -122 -21 -180 -58 -90 -57 -95 -134 -12 -211 125&#xA;-115 438 -192 596 -146 78 22 128 78 128 142 0 25 -6 57 -14 73 -48 93 -241&#xA;189 -406 203 -25 2 -75 1 -112 -3z m182 -65 c141 -33 300 -138 300 -198 0 -71&#xA;-108 -114 -255 -102 -249 19 -492 168 -409 251 18 18 68 45 104 56 43 13 192&#xA;9 260 -7z"/>
    <path d="M6623 8690 c-76 -16 -141 -58 -169 -112 -25 -48 -13 -218 16 -218 4&#xA;0 13 40 19 90 9 62 19 98 34 116 53 68 187 84 341 39 404 -117 837 -556 853&#xA;-865 5 -97 -17 -139 -97 -184 -50 -28 -63 -31 -145 -31 -101 1 -186 22 -318&#xA;82 -43 19 -81 33 -83 30 -10 -9 78 -75 139 -105 135 -66 325 -81 427 -35 50&#xA;22 103 72 127 118 27 51 29 153 3 231 -53 166 -157 321 -322 479 -210 202&#xA;-455 333 -681 364 -87 12 -85 12 -144 1z"/>
    <path d="M4720 8609 c-173 -77 -451 -150 -625 -164 -103 -8 -111 -11 -95 -30&#xA;37 -44 400 14 592 95 83 35 208 107 208 120 0 14 -7 12 -80 -21z"/>
    <path d="M6630 8418 c0 -58 40 -155 102 -250 67 -102 220 -265 318 -339 77&#xA;-58 210 -129 300 -159 85 -29 205 -32 243 -7 43 28 32 37 -45 37 l-73 0 -1 49&#xA;c-3 71 -28 140 -84 225 -93 142 -270 296 -420 366 -66 30 -85 34 -156 35 -67&#xA;0 -86 -4 -103 -19 -25 -23 -23 -24 -42 38 -18 60 -39 73 -39 24z m254 -103&#xA;c158 -41 331 -173 444 -337 50 -73 93 -167 99 -218 l6 -49 -39 10 c-60 16&#xA;-214 92 -285 139 -129 87 -399 388 -399 445 0 27 89 32 174 10z"/>
    <path d="M3042 8420 c-278 -73 -633 -381 -777 -675 -63 -129 -79 -194 -72&#xA;-282 6 -80 40 -133 110 -177 91 -56 261 -45 402 26 71 36 183 118 232 171 53&#xA;57 44 75 -15 29 -151 -118 -343 -202 -461 -202 -150 1 -241 118 -212 275 13&#xA;75 84 219 150 306 120 157 349 343 523 424 148 68 251 81 328 43 74 -38 96&#xA;-109 77 -252 -7 -54 -6 -58 9 -45 53 44 71 185 35 266 -23 49 -76 87 -141 102&#xA;-64 15 -104 13 -188 -9z"/>
    <path d="M2937 8205 c-138 -57 -318 -205 -421 -345 -136 -184 -150 -313 -41&#xA;-365 104 -49 308 50 492 238 144 147 213 269 213 378 0 45 -4 55 -34 85 -31&#xA;31 -39 34 -92 34 -39 -1 -79 -9 -117 -25z m163 -55 c59 -59 -26 -238 -187&#xA;-391 -94 -90 -149 -129 -246 -174 -96 -45 -153 -49 -187 -15 -26 26 -25 71 3&#xA;140 63 152 230 321 405 410 110 55 177 65 212 30z"/>
    <path d="M5060 8077 c-52 -21 -55 -24 -55 -57 0 -30 5 -38 35 -52 72 -37 224&#xA;-13 244 37 32 85 -93 125 -224 72z m160 -37 c30 -19 -8 -35 -90 -39 -67 -3&#xA;-80 -1 -80 12 0 8 12 20 28 25 35 13 123 14 142 2z"/>
    <path d="M4347 8044 c-145 -35 -287 -129 -287 -191 0 -70 81 -113 214 -113&#xA;184 0 393 103 411 203 15 78 -49 117 -190 116 -49 0 -116 -7 -148 -15z m250&#xA;-56 c58 -28 29 -81 -73 -132 -75 -38 -159 -57 -251 -57 -97 -1 -148 20 -148&#xA;62 0 44 135 117 258 139 66 11 178 5 214 -12z"/>
    <path d="M3452 7879 c-77 -38 -140 -133 -122 -184 23 -64 164 20 207 123 14&#xA;33 10 72 -7 72 -5 0 -14 2 -22 5 -7 3 -32 -4 -56 -16z m48 -44 c0 -21 -93&#xA;-115 -113 -115 -22 0 -21 16 3 56 33 52 110 94 110 59z"/>
    <path d="M6227 7883 c-25 -24 13 -73 56 -73 34 0 46 34 21 61 -17 18 -64 26&#xA;-77 12z"/>
    <path d="M8090 7669 c-33 -61 74 -239 144 -239 39 0 50 23 37 76 -17 67 -45&#xA;116 -86 152 -41 37 -79 41 -95 11z m111 -104 c22 -45 29 -69 22 -76 -20 -20&#xA;-114 125 -98 151 13 20 44 -11 76 -75z"/>
    <path d="M5811 7444 c-71 -19 -116 -47 -146 -92 -33 -49 -33 -89 1 -102 14 -6&#xA;88 -10 164 -10 225 0 372 -39 602 -158 119 -62 129 -65 144 -50 16 15 14 21&#xA;-22 75 -66 98 -104 140 -165 183 -127 89 -353 171 -469 169 -30 0 -79 -7 -109&#xA;-15z"/>
    <path d="M4140 7365 c-69 -20 -243 -102 -307 -146 -109 -75 -207 -190 -239&#xA;-281 -29 -84 -2 -88 97 -14 87 66 257 156 360 190 112 38 259 59 351 51 70 -6&#xA;78 -5 98 15 44 44 3 122 -85 165 -69 34 -192 43 -275 20z"/>
    <path d="M7833 7335 c-119 -52 -85 -246 71 -400 147 -146 309 -178 360 -71 21&#xA;45 20 80 -4 158 -27 88 -88 178 -157 233 -114 89 -194 113 -270 80z m179 -82&#xA;c143 -78 257 -304 188 -373 -48 -48 -138 -14 -243 91 -76 76 -127 170 -130&#xA;239 -3 84 75 103 185 43z"/>
    <path d="M8256 7283 c-13 -13 -5 -36 35 -94 41 -61 63 -79 79 -63 11 11 -23&#xA;91 -53 122 -27 29 -52 43 -61 35z"/>
    <path d="M7189 7195 c-14 -7 -34 -32 -44 -54 -32 -73 0 -175 84 -264 64 -67&#xA;128 -100 206 -105 54 -4 64 -1 92 22 87 74 58 213 -68 331 -84 78 -200 108&#xA;-270 70z m147 -64 c122 -56 209 -207 158 -279 -47 -67 -217 27 -275 153 -52&#xA;113 6 176 117 126z"/>
    <path d="M1872 7073 c-48 -23 -150 -138 -205 -231 -69 -118 -90 -180 -91 -284&#xA;-1 -77 1 -90 21 -109 20 -20 26 -21 61 -11 81 25 173 133 261 310 81 162 93&#xA;282 32 329 -21 17 -40 16 -79 -4z m72 -49 c21 -54 -99 -335 -191 -449 -84&#xA;-103 -133 -113 -133 -26 0 96 53 227 145 356 79 111 161 166 179 119z"/>
    <path d="M2742 6869 c-106 -52 -196 -176 -197 -267 0 -37 5 -48 33 -73 112&#xA;-100 362 78 362 259 0 46 -4 58 -29 83 -40 39 -88 39 -169 -2z m125 -31 c38&#xA;-31 18 -123 -43 -204 -33 -42 -118 -94 -156 -94 -34 0 -68 42 -68 84 0 40 48&#xA;124 96 166 70 61 133 78 171 48z"/>
    <path d="M5795 6833 c-272 -58 -509 -272 -644 -580 -16 -37 -35 -87 -42 -111&#xA;-7 -23 -15 -39 -19 -35 -4 4 -19 44 -34 88 -66 192 -204 378 -359 484 -65 44&#xA;-177 95 -257 117 -89 24 -282 24 -368 0 -441 -121 -746 -632 -683 -1144 25&#xA;-202 105 -373 238 -513 125 -130 244 -199 416 -239 110 -25 176 -30 277 -19&#xA;337 37 632 284 740 619 15 44 20 51 25 35 25 -68 90 -207 115 -244 l29 -45&#xA;-52 -35 c-56 -37 -151 -130 -143 -138 3 -3 47 20 98 52 143 89 204 104 263 63&#xA;115 -78 121 -240 13 -347 -46 -47 -119 -78 -215 -91 -46 -7 -83 -16 -83 -20 0&#xA;-5 16 -14 37 -21 45 -15 149 -7 218 17 68 24 153 110 185 187 18 44 28 56 39&#xA;51 63 -26 174 -55 250 -64 227 -28 469 59 663 238 155 144 255 362 287 627 43&#xA;356 -143 769 -431 961 -164 109 -371 149 -563 107z m364 -98 c399 -135 648&#xA;-654 531 -1109 -70 -274 -199 -446 -422 -565 -197 -106 -379 -117 -622 -39&#xA;-37 12 -71 29 -73 38 -49 146 -126 220 -231 220 l-50 0 -61 123 c-82 163 -105&#xA;250 -104 392 1 178 37 323 125 501 116 236 319 411 530 459 103 24 274 14 377&#xA;-20z m-1734 -19 c33 -9 97 -35 142 -57 242 -121 413 -372 468 -686 19 -111 19&#xA;-180 -1 -283 -57 -305 -221 -534 -469 -656 -123 -61 -208 -77 -365 -71 -178 7&#xA;-292 48 -432 154 -296 225 -395 666 -237 1068 108 278 326 484 569 539 80 19&#xA;240 14 325 -8z"/>
    <path d="M5560 6108 c-92 -47 -140 -149 -141 -303 -1 -144 26 -228 93 -292 83&#xA;-79 184 -71 247 20 52 77 74 158 74 277 0 155 -43 259 -124 301 -50 25 -95 24&#xA;-149 -3z"/>
    <path d="M4545 6095 c-182 -64 -221 -442 -61 -583 98 -86 214 -52 277 81 90&#xA;191 44 435 -95 498 -49 22 -68 23 -121 4z"/>
    <path d="M2183 6691 c-84 -61 -100 -184 -27 -211 60 -23 138 51 150 142 6 41&#xA;4 49 -19 72 -33 33 -55 33 -104 -3z m72 -41 c4 -13 -2 -39 -17 -68 -18 -37&#xA;-29 -48 -50 -50 -26 -3 -28 -1 -28 36 0 67 79 134 95 82z"/>
    <path d="M7701 6684 c-25 -31 -26 -57 -7 -112 40 -112 142 -176 196 -122 51&#xA;51 -5 201 -92 246 -41 21 -74 17 -97 -12z m101 -51 c56 -61 75 -144 35 -151&#xA;-27 -5 -95 70 -103 113 -12 68 22 87 68 38z"/>
    <path d="M8405 6573 c-81 -42 -128 -120 -145 -242 -14 -101 3 -251 30 -251 4&#xA;0 10 48 14 108 12 202 60 309 149 333 32 9 45 7 82 -11 150 -72 303 -405 336&#xA;-729 10 -101 10 -130 -5 -216 -19 -115 -52 -190 -102 -234 -65 -58 -140 -35&#xA;-256 77 -38 36 -68 62 -68 58 0 -19 43 -87 83 -132 199 -221 417 -33 417 361&#xA;0 151 -45 373 -108 532 -34 85 -103 201 -154 258 -83 92 -196 129 -273 88z"/>
    <path d="M7272 6400 c-61 -57 -32 -190 53 -249 72 -49 135 -6 135 92 0 117&#xA;-122 219 -188 157z m95 -52 c32 -35 44 -65 45 -108 0 -48 -7 -60 -37 -60 -29&#xA;0 -70 48 -86 98 -22 76 30 123 78 70z"/>
    <path d="M8457 6319 c-109 -85 -48 -567 92 -736 29 -35 92 -73 121 -73 76 0&#xA;122 152 101 329 -29 234 -128 445 -228 488 -43 18 -56 17 -86 -8z m109 -41&#xA;c40 -48 92 -166 122 -277 21 -81 25 -119 26 -241 1 -124 -2 -150 -17 -173 -35&#xA;-53 -82 -29 -130 68 -82 167 -134 433 -108 556 22 102 58 124 107 67z"/>
    <path d="M1938 6167 c-123 -46 -236 -165 -326 -342 -93 -184 -145 -475 -122&#xA;-681 33 -306 164 -489 346 -486 142 2 265 115 373 343 84 176 122 356 122 569&#xA;0 232 -53 411 -153 526 -60 68 -164 99 -240 71z m129 -68 c124 -60 203 -268&#xA;203 -533 0 -209 -50 -423 -140 -595 -138 -264 -303 -331 -445 -180 -156 167&#xA;-186 551 -69 881 79 222 207 389 331 434 52 18 70 17 120 -7z"/>
    <path d="M1905 5892 c-186 -87 -310 -540 -223 -817 27 -87 105 -175 154 -175&#xA;142 1 270 216 305 511 18 156 -10 340 -63 419 -49 71 -108 92 -173 62z m102&#xA;-67 c59 -65 91 -233 75 -388 -28 -254 -118 -459 -212 -482 -84 -19 -160 139&#xA;-160 336 0 230 95 495 199 549 42 22 67 18 98 -15z"/>
    <path d="M2492 6080 c-20 -33 -26 -102 -9 -124 14 -19 15 -19 31 6 12 18 16&#xA;42 14 79 -3 57 -16 71 -36 39z"/>
    <path d="M1330 5982 c-69 -73 -111 -269 -73 -342 37 -72 95 -42 152 80 20 44&#xA;26 75 29 152 4 93 3 98 -21 122 -15 14 -31 26 -38 26 -7 0 -29 -17 -49 -38z&#xA;m65 -88 c-1 -38 -9 -95 -18 -126 -19 -63 -57 -115 -75 -104 -30 18 -3 183 42&#xA;261 37 63 51 54 51 -31z"/>
    <path d="M7841 5858 c-11 -28 2 -115 18 -131 17 -17 41 17 41 58 0 75 -40 124&#xA;-59 73z"/>
    <path d="M2803 5575 c-71 -30 -116 -162 -79 -232 50 -97 168 -97 239 -1 12 16&#xA;22 49 25 81 10 120 -83 197 -185 152z m82 -41 c23 -9 45 -58 45 -101 0 -111&#xA;-125 -158 -158 -59 -29 89 40 187 113 160z"/>
    <path d="M7135 5392 c-45 -10 -57 -48 -34 -109 43 -115 236 -182 264 -92 31&#xA;96 -118 226 -230 201z m119 -70 c42 -29 78 -85 69 -108 -15 -41 -112 -17 -159&#xA;39 -76 90 -11 140 90 69z"/>
    <path d="M6787 5238 c-63 -95 -152 -183 -230 -228 -50 -29 -51 -30 -21 -30 64&#xA;0 189 86 243 166 33 51 74 150 68 168 -2 5 -29 -28 -60 -76z"/>
    <path d="M3350 5228 c1 -78 77 -176 185 -238 86 -49 98 -34 21 28 -67 55 -150&#xA;151 -180 210 -9 17 -19 32 -21 32 -3 0 -5 -15 -5 -32z"/>
    <path d="M1238 5168 c-17 -57 -22 -98 -23 -183 0 -98 3 -115 25 -159 23 -46&#xA;53 -77 64 -66 2 3 -5 32 -16 65 -25 70 -34 230 -21 343 5 39 6 72 2 72 -5 0&#xA;-18 -33 -31 -72z"/>
    <path d="M7923 5206 c-152 -50 -274 -200 -352 -432 -46 -136 -64 -260 -57&#xA;-379 14 -240 96 -413 231 -483 43 -23 62 -27 140 -27 83 0 96 3 160 34 90 44&#xA;187 140 236 236 82 156 114 319 107 538 -4 117 -10 156 -32 223 -30 93 -89&#xA;190 -138 227 -84 65 -209 91 -295 63z m170 -60 c86 -31 170 -134 208 -255 81&#xA;-261 10 -648 -153 -826 -61 -67 -113 -99 -196 -120 -91 -24 -155 -9 -221 51&#xA;-180 162 -202 568 -47 889 68 141 149 230 241 263 42 15 123 14 168 -2z"/>
    <path d="M7953 5004 c-93 -46 -189 -210 -225 -383 -27 -131 -22 -299 12 -385&#xA;47 -122 138 -182 233 -154 95 28 204 180 249 347 25 94 30 288 9 371 -23 93&#xA;-67 168 -119 202 -34 22 -115 23 -159 2z m142 -77 c62 -65 80 -131 80 -297 0&#xA;-114 -4 -147 -23 -210 -74 -235 -198 -348 -302 -277 -152 101 -121 545 51 741&#xA;43 48 99 85 133 86 11 0 38 -19 61 -43z"/>
    <path d="M8916 4980 c-20 -50 -20 -81 -1 -106 15 -19 15 -19 30 1 18 23 17&#xA;136 -1 142 -6 2 -19 -14 -28 -37z"/>
    <path d="M7037 4779 c-45 -26 -62 -149 -30 -216 9 -20 30 -41 49 -50 30 -15&#xA;35 -14 66 4 49 29 61 60 59 157 -1 41 -6 53 -35 82 -36 36 -74 43 -109 23z&#xA;m58 -35 c64 -25 55 -194 -10 -194 -36 0 -58 49 -53 116 6 70 24 93 63 78z"/>
    <path d="M8692 4733 c-55 -77 -90 -301 -63 -401 11 -40 14 -43 44 -40 66 6&#xA;127 148 130 303 1 75 -2 97 -19 125 -27 47 -64 52 -92 13z m62 -45 c19 -73 -2&#xA;-216 -45 -301 -27 -53 -28 -54 -39 -37 -31 49 25 360 65 360 7 0 15 -10 19&#xA;-22z"/>
    <path d="M2304 4729 c-80 -39 -85 -248 -7 -309 71 -56 143 11 143 133 0 72&#xA;-17 125 -50 159 -30 29 -51 33 -86 17z m68 -79 c20 -39 24 -149 8 -181 -13&#xA;-24 -42 -25 -63 -1 -36 40 -43 128 -16 199 13 36 49 27 71 -17z"/>
    <path d="M1428 4669 c-45 -17 -68 -66 -68 -145 1 -171 93 -367 185 -393 82&#xA;-22 111 24 102 168 -7 117 -34 207 -86 289 -32 49 -85 96 -103 91 -2 0 -15 -5&#xA;-30 -10z m71 -86 c52 -63 93 -183 99 -289 5 -107 -6 -141 -41 -123 -72 37&#xA;-147 218 -147 356 0 62 15 93 45 93 7 0 27 -17 44 -37z"/>
    <path d="M3773 4655 c-58 -17 -127 -59 -152 -91 -26 -33 -28 -92 -4 -101 11&#xA;-4 22 1 32 18 9 13 28 37 42 53 l26 30 74 -62 c209 -175 532 -326 849 -395&#xA;199 -44 358 -61 570 -61 337 1 615 61 863 185 141 71 287 192 287 236 0 13 -2&#xA;23 -4 23 -2 0 -48 -30 -103 -66 -275 -185 -579 -279 -968 -300 -187 -10 -476&#xA;22 -689 75 -181 46 -380 128 -552 226 -90 52 -254 167 -249 175 2 4 32 18 65&#xA;30 33 12 60 26 60 31 0 13 -99 10 -147 -6z"/>
    <path d="M8916 4413 c-4 -38 -27 -144 -50 -238 -24 -93 -42 -172 -41 -173 5&#xA;-6 55 95 80 163 26 68 51 248 41 289 -11 45 -23 29 -30 -41z"/>
    <path d="M1889 4374 c-18 -22 -23 -111 -9 -163 22 -82 94 -126 133 -83 33 36&#xA;12 177 -34 236 -23 30 -69 35 -90 10z m76 -97 c25 -86 16 -137 -19 -102 -27&#xA;28 -45 120 -30 159 10 26 32 1 49 -57z"/>
    <path d="M2635 4186 c-52 -19 -109 -83 -126 -143 -66 -229 117 -527 378 -614&#xA;129 -43 237 -9 293 91 22 40 25 56 24 150 0 123 -19 183 -92 293 -82 126 -242&#xA;226 -370 234 -43 2 -81 -2 -107 -11z m168 -47 c211 -71 366 -274 367 -480 0&#xA;-131 -53 -191 -172 -192 -132 -1 -342 151 -417 304 -76 154 -53 316 52 368 53&#xA;26 91 26 170 0z"/>
    <path d="M8711 4050 c-6 -22 -40 -228 -41 -237 0 -25 16 -13 34 23 21 45 31&#xA;148 17 189 -5 17 -10 28 -10 25z"/>
    <path d="M1425 3980 c15 -129 94 -314 121 -287 3 2 -12 49 -31 103 -20 55 -47&#xA;127 -59 161 -30 83 -40 90 -31 23z"/>
    <path d="M8465 3912 c-91 -56 -223 -270 -259 -423 -49 -201 15 -320 132 -245&#xA;118 76 232 262 268 437 23 109 10 184 -37 224 -36 30 -63 32 -104 7z m64 -68&#xA;c42 -53 37 -141 -16 -274 -48 -120 -146 -249 -220 -288 -32 -18 -47 8 -46 81&#xA;1 131 90 357 180 457 51 56 72 62 102 24z"/>
    <path d="M1706 3859 c-34 -27 -44 -47 -56 -109 -18 -94 22 -273 93 -415 91&#xA;-185 256 -335 367 -335 45 0 94 30 117 72 26 48 23 164 -6 248 -79 230 -254&#xA;476 -388 544 -44 22 -95 20 -127 -5z m103 -53 c66 -35 226 -239 298 -381 64&#xA;-124 96 -269 73 -325 -24 -57 -98 -53 -175 11 -156 129 -287 397 -289 589 -1&#xA;112 24 141 93 106z"/>
    <path d="M7285 3867 c-149 -49 -305 -235 -305 -365 0 -48 4 -58 34 -88 44 -44&#xA;88 -45 175 -4 79 38 174 132 216 215 41 83 47 180 14 219 -29 32 -78 41 -134&#xA;23z m90 -52 c34 -33 32 -75 -5 -153 -34 -73 -138 -184 -194 -207 -52 -22 -119&#xA;-19 -141 5 -65 72 100 311 253 366 51 18 60 17 87 -11z"/>
    <path d="M3508 3373 c-38 -6 -78 -50 -78 -85 0 -90 113 -191 229 -205 58 -7&#xA;104 14 127 58 57 112 -119 260 -278 232z m149 -72 c85 -43 120 -123 68 -157&#xA;-45 -29 -141 3 -201 68 -43 45 -51 74 -27 100 15 17 26 19 69 15 28 -3 69 -14&#xA;91 -26z"/>
    <path d="M7654 3309 c-173 -54 -402 -273 -507 -484 -44 -87 -57 -135 -57 -205&#xA;0 -108 58 -155 181 -148 53 3 83 12 145 43 163 82 373 331 429 508 45 140 26&#xA;255 -48 290 -44 21 -67 21 -143 -4z m111 -45 c47 -19 60 -143 24 -240 -52&#xA;-137 -221 -341 -354 -426 -130 -83 -200 -97 -253 -53 -40 34 -47 72 -27 142&#xA;50 171 184 352 365 493 95 74 187 106 245 84z"/>
    <path d="M6451 3224 c-157 -42 -268 -164 -231 -253 44 -107 268 -101 395 11&#xA;55 49 75 84 75 135 0 49 -22 80 -74 104 -49 22 -92 23 -165 3z m173 -55 c58&#xA;-45 9 -132 -108 -191 -111 -56 -246 -38 -254 33 -12 109 268 232 362 158z"/>
    <path d="M2729 3145 c-55 -18 -133 -83 -159 -135 -33 -65 -43 -163 -25 -255&#xA;58 -303 362 -601 740 -726 93 -30 110 -33 240 -33 133 -1 143 0 200 27 148 69&#xA;198 178 156 340 -53 204 -250 451 -483 607 -116 78 -185 112 -301 152 -78 26&#xA;-110 32 -207 35 -82 2 -128 -1 -161 -12z m331 -74 c301 -102 584 -341 718&#xA;-606 112 -222 67 -366 -127 -411 -106 -26 -235 -11 -381 41 -265 96 -515 307&#xA;-628 530 -55 110 -75 243 -50 327 45 149 234 198 468 119z"/>
    <path d="M2837 2926 c-51 -19 -67 -34 -90 -85 -72 -163 147 -463 449 -614 100&#xA;-50 183 -70 270 -65 248 16 248 256 0 503 -199 199 -478 314 -629 261z m241&#xA;-69 c198 -69 428 -275 498 -445 28 -67 29 -93 9 -132 -43 -83 -204 -81 -370 2&#xA;-167 85 -317 224 -383 356 -91 182 -60 257 103 249 40 -2 101 -15 143 -30z"/>
    <path d="M4157 2962 c-38 -42 -5 -103 75 -136 54 -23 95 -20 123 8 22 22 23&#xA;29 14 53 -15 40 -29 54 -74 74 -53 24 -117 25 -138 1z m111 -36 c39 -20 66&#xA;-52 52 -61 -29 -18 -140 30 -140 60 0 19 51 20 88 1z"/>
    <path d="M8249 2863 c-24 -32 -67 -86 -96 -120 -58 -69 -57 -80 3 -33 59 46&#xA;154 168 154 197 0 25 -18 12 -61 -44z"/>
    <path d="M5772 2890 c-48 -20 -34 -70 20 -70 34 0 78 26 78 46 0 8 -12 19 -26&#xA;24 -30 12 -42 12 -72 0z"/>
    <path d="M8004 2844 c-50 -49 -97 -141 -92 -176 2 -16 11 -24 30 -26 67 -8&#xA;206 187 167 234 -22 26 -58 16 -105 -32z m57 -42 c-23 -45 -94 -119 -99 -104&#xA;-7 21 93 156 109 147 5 -4 0 -23 -10 -43z"/>
    <path d="M2060 2765 c0 -48 79 -153 136 -180 47 -22 54 -12 18 29 -16 19 -53&#xA;63 -83 98 -59 69 -71 78 -71 53z"/>
    <path d="M4817 2605 c-225 -57 -269 -223 -78 -296 127 -48 329 -19 413 59 78&#xA;73 58 167 -46 221 -40 21 -66 26 -140 28 -55 1 -114 -3 -149 -12z m266 -68&#xA;c51 -21 67 -41 67 -80 0 -51 -117 -114 -233 -124 -106 -10 -257 52 -257 106 0&#xA;99 271 162 423 98z"/>
    <path d="M6260 2530 c-83 -22 -222 -88 -228 -107 -6 -20 27 -15 122 17 158 53&#xA;278 61 388 24 92 -30 141 -129 118 -237 -42 -202 -349 -454 -675 -553 -80 -24&#xA;-106 -28 -240 -28 -175 -1 -232 13 -295 73 -53 51 -66 102 -45 184 23 90 69&#xA;161 169 260 48 48 86 90 83 93 -14 14 -89 -38 -163 -111 -107 -106 -159 -206&#xA;-159 -304 0 -85 31 -143 99 -188 66 -45 133 -63 251 -70 219 -12 453 62 683&#xA;215 164 109 296 259 338 384 21 65 22 161 2 209 -24 56 -73 104 -130 129 -76&#xA;33 -216 37 -318 10z"/>
    <path d="M2473 2393 c-23 -9 -14 -67 17 -116 38 -61 112 -109 160 -105 43 4&#xA;50 29 22 85 -46 89 -146 158 -199 136z m98 -80 c47 -42 78 -93 56 -93 -29 0&#xA;-127 94 -127 122 0 19 33 5 71 -29z"/>
    <path d="M7428 2336 c-181 -109 -338 -265 -338 -335 0 -38 17 -51 67 -51 98 0&#xA;269 90 381 201 64 62 127 158 120 180 -2 5 -43 -33 -91 -85 -95 -103 -213&#xA;-190 -316 -231 -63 -26 -121 -33 -121 -15 0 43 111 157 268 274 91 69 118 96&#xA;94 96 -5 0 -33 -15 -64 -34z"/>
    <path d="M6191 2350 c-187 -39 -402 -152 -518 -272 -64 -67 -86 -103 -96 -156&#xA;-14 -71 45 -142 133 -161 206 -44 509 54 688 224 158 149 185 292 66 351 -44&#xA;21 -198 29 -273 14z m243 -65 c50 -24 63 -62 38 -117 -62 -138 -242 -274 -452&#xA;-339 -59 -19 -99 -24 -185 -24 -120 0 -153 10 -188 57 -73 98 155 308 436 403&#xA;135 45 281 53 351 20z"/>
    <path d="M4190 2277 c-16 -8 -27 -25 -32 -51 -12 -57 22 -104 103 -145 116&#xA;-58 239 -36 239 42 0 49 -80 120 -165 146 -77 24 -110 26 -145 8z m170 -73&#xA;c66 -30 90 -51 90 -75 0 -41 -113 -37 -187 6 -43 26 -63 51 -63 79 0 27 95 21&#xA;160 -10z"/>
    <path d="M2840 2028 c0 -7 21 -32 48 -57 119 -115 389 -251 441 -222 10 6 -32&#xA;32 -145 89 -87 45 -201 108 -251 141 -51 33 -93 55 -93 49z"/>
    <path d="M4657 1798 c-29 -10 -43 -43 -32 -77 15 -49 158 -101 276 -101 81 0&#xA;110 18 112 70 2 32 -2 37 -49 62 -95 51 -235 72 -307 46z m214 -57 c113 -43&#xA;118 -76 10 -73 -94 3 -225 61 -206 92 11 18 127 7 196 -19z"/>
    <path d="M6651 1749 c-84 -42 -106 -66 -48 -54 43 9 151 61 167 80 24 29 -35&#xA;17 -119 -26z"/>
    <path d="M3697 1771 c-57 -12 -91 -42 -95 -82 -13 -150 444 -345 676 -289 65&#xA;15 112 56 112 98 0 58 -154 165 -315 220 -125 42 -306 68 -378 53z m263 -86&#xA;c158 -44 370 -153 370 -191 0 -30 -68 -47 -165 -41 -183 11 -459 130 -497 213&#xA;-11 23 -9 28 7 41 29 21 165 11 285 -22z"/>
    <path d="M6429 1566 c-213 -98 -474 -175 -727 -216 -113 -18 -81 -34 57 -27&#xA;137 7 224 24 381 77 180 59 400 170 400 200 0 15 -8 13 -111 -34z"/>
    <path d="M5008 1445 c-28 -9 -55 -26 -64 -40 -15 -23 -15 -27 0 -49 42 -65&#xA;248 -94 348 -49 54 25 87 66 71 92 -28 46 -261 76 -355 46z m281 -56 l34 -12&#xA;-39 -20 c-57 -30 -181 -29 -248 1 -49 22 -52 34 -11 46 33 9 228 -2 264 -15z"/>
    <path d="M9185 8016 c-16 -8 -43 -28 -59 -45 -24 -25 -30 -42 -34 -88 -3 -48&#xA;0 -64 20 -92 39 -58 72 -76 137 -76 47 0 65 5 98 28 100 69 96 217 -8 269 -40&#xA;21 -112 23 -154 4z m148 -74 c10 -11 21 -38 24 -60 5 -38 2 -45 -31 -78 -33&#xA;-33 -40 -36 -79 -31 -82 11 -124 100 -76 161 37 47 118 51 162 8z"/>
    <path d="M922 7657 c-37 -21 -62 -68 -62 -115 0 -34 6 -49 34 -80 30 -32 40&#xA;-37 80 -37 36 0 51 6 75 29 59 57 62 133 6 186 -29 27 -100 36 -133 17z m98&#xA;-67 c24 -24 25 -48 4 -78 -31 -44 -104 -17 -104 39 0 55 60 79 100 39z"/>
    <path d="M9387 6509 c-18 -26 -11 -56 18 -75 50 -33 110 32 70 76 -24 26 -70&#xA;26 -88 -1z"/>
    <path d="M893 3186 c-39 -18 -73 -69 -73 -111 0 -75 80 -137 150 -116 73 22&#xA;106 92 77 163 -26 62 -94 90 -154 64z m87 -66 c11 -11 20 -31 20 -45 0 -28&#xA;-32 -65 -55 -65 -22 0 -65 45 -65 67 0 55 62 81 100 43z"/>
    <path d="M9163 2880 c-39 -24 -53 -48 -53 -95 0 -138 191 -168 231 -36 30 101&#xA;-86 187 -178 131z m107 -60 c11 -11 20 -29 20 -40 0 -27 -35 -60 -63 -60 -45&#xA;0 -76 59 -52 96 19 30 67 32 95 4z"/>
    <path d="M1262 2197 c-6 -7 -32 -105 -57 -217 -26 -113 -48 -210 -50 -217 -2&#xA;-7 -71 -33 -152 -59 -176 -55 -193 -64 -193 -104 0 -35 34 -59 215 -155 61&#xA;-32 113 -61 118 -64 4 -4 2 -89 -4 -189 -12 -208 -7 -235 47 -240 27 -3 44 11&#xA;166 137 l137 140 159 -54 c189 -64 227 -72 247 -55 32 27 11 83 -112 302 l-55&#xA;98 100 128 c146 188 160 214 126 243 -13 11 -45 10 -187 -4 -260 -26 -222 -42&#xA;-324 131 -48 81 -97 157 -110 170 -25 25 -55 29 -71 9z m74 -155 c67 -119 148&#xA;-244 163 -252 12 -6 54 -4 117 5 54 7 135 17 178 20 93 9 96 22 -29 -135 -51&#xA;-63 -97 -125 -104 -137 -14 -28 -7 -45 87 -213 39 -68 70 -126 68 -127 -2 -2&#xA;-75 21 -164 52 -88 30 -167 55 -175 55 -8 0 -50 -42 -95 -92 -44 -51 -101&#xA;-113 -127 -138 l-47 -45 7 187 c6 173 5 188 -12 205 -10 10 -80 51 -156 92&#xA;-76 41 -134 78 -130 82 5 3 71 27 149 53 114 38 143 51 152 70 6 13 27 98 48&#xA;190 21 91 40 166 43 166 3 0 16 -17 27 -38z"/>
    <path d="M8796 1884 c-9 -8 -37 -46 -63 -82 -25 -37 -57 -81 -69 -98 l-23 -32&#xA;-113 35 c-132 40 -158 36 -158 -21 0 -25 16 -59 60 -125 33 -50 60 -96 60&#xA;-101 0 -5 -27 -58 -61 -119 -46 -84 -60 -117 -57 -143 4 -47 32 -47 171 0&#xA;l116 38 42 -60 c67 -96 130 -166 149 -166 10 0 23 6 29 13 12 15 31 168 31&#xA;253 l0 51 109 37 c108 37 141 58 141 88 0 22 -10 29 -137 92 -78 39 -113 62&#xA;-113 74 0 54 -23 249 -31 264 -12 23 -62 24 -83 2z m49 -225 c5 -70 12 -102&#xA;23 -111 8 -7 51 -31 95 -53 45 -22 82 -45 84 -50 2 -6 -35 -23 -82 -38 -100&#xA;-33 -115 -49 -115 -127 0 -30 -3 -79 -6 -108 -8 -63 -12 -61 -91 50 -30 44&#xA;-61 82 -68 84 -7 3 -61 -13 -121 -35 -59 -23 -109 -39 -112 -37 -2 3 21 52 52&#xA;109 31 58 56 115 56 127 0 12 -22 56 -50 97 -43 64 -58 93 -47 93 1 0 38 -11&#xA;82 -25 44 -14 90 -25 102 -25 16 0 42 28 99 107 l78 107 7 -33 c4 -19 10 -78&#xA;14 -132z"/>
    <path d="M7584 1281 c-58 -35 -77 -69 -72 -130 4 -47 10 -59 41 -88 32 -28 44&#xA;-33 88 -33 46 0 55 4 90 39 36 35 39 43 39 93 0 64 -23 102 -76 124 -45 19&#xA;-73 18 -110 -5z m113 -63 c46 -43 21 -122 -43 -134 -68 -13 -117 82 -69 136&#xA;25 27 81 27 112 -2z"/>
    <path d="M2508 1154 c-62 -33 -78 -131 -30 -185 77 -86 229 -9 208 106 -14 74&#xA;-110 117 -178 79z m114 -66 c26 -41 -6 -98 -55 -98 -63 0 -88 60 -43 105 21&#xA;21 29 23 57 15 18 -5 36 -15 41 -22z"/>
  </g>
  <title>Moon Craters Close</title>
  <desc>Moon Craters Close</desc>
</svg>