<?xml version="1.0" encoding="UTF-8" standalone="yes"?>
<svg version="1.0" xmlns="http://www.w3.org/2000/svg" width="1024.000000pt" height="1024.000000pt" viewBox="0 0 1024.000000 1024.000000" preserveAspectRatio="xMidYMid meet">
  <metadata>
Created by potrace 1.16, written by Peter Selinger 2001-2019
</metadata>
  <g transform="translate(0.000000,1024.000000) scale(0.100000,-0.100000)" fill="#000000" stroke="none">
    <path d="M3731 9059 c-6 -13 -15 -70 -20 -125 -15 -162 -54 -212 -201 -258&#xA;-119 -38 -120 -60 -4 -96 129 -39 181 -106 204 -261 6 -41 13 -89 16 -106 4&#xA;-24 10 -33 24 -33 22 0 24 7 41 125 12 91 38 157 77 199 26 28 173 106 199&#xA;106 7 0 13 2 13 4 0 2 3 11 6 19 4 11 -12 21 -63 37 -93 31 -122 46 -166 89&#xA;-43 41 -71 121 -82 233 -7 75 -28 106 -44 67z m87 -342 c20 -21 58 -50 85 -63&#xA;26 -13 47 -27 47 -29 0 -3 -18 -12 -40 -21 -50 -20 -124 -101 -142 -156 l-14&#xA;-42 -28 59 c-32 71 -73 116 -127 141 l-40 17 53 29 c71 39 92 61 118 121 l22&#xA;51 15 -35 c8 -19 31 -51 51 -72z"/>
    <path d="M1699 8589 c-81 -12 -181 -36 -277 -66 -104 -33 -121 -52 -105 -121&#xA;14 -63 423 -1131 563 -1472 28 -69 67 -165 87 -215 19 -49 42 -102 49 -118 13&#xA;-25 13 -28 -3 -33 -59 -17 -186 -72 -235 -101 -221 -130 -368 -391 -368 -655&#xA;0 -267 109 -453 292 -498 l46 -12 7 -76 c3 -43 31 -206 61 -363 29 -157 54&#xA;-291 54 -297 0 -7 -51 -37 -112 -68 -199 -100 -702 -387 -910 -520 -100 -64&#xA;-231 -167 -251 -198 -27 -41 -22 -83 16 -121 57 -57 171 -78 437 -78 387 0&#xA;656 46 2025 348 826 182 1467 320 1600 344 61 11 178 25 260 31 219 17 811 75&#xA;1105 110 1573 186 2413 385 2933 696 292 174 481 364 544 547 53 151 41 277&#xA;-42 443 -173 346 -774 765 -1372 955 l-72 23 -51 86 c-119 200 -299 402 -428&#xA;479 -164 99 -270 124 -507 124 -155 0 -187 -3 -360 -37 -327 -63 -576 -127&#xA;-1135 -292 -529 -156 -903 -276 -1393 -448 l-268 -94 -64 43 c-117 79 -219&#xA;107 -392 109 l-123 1 -32 40 c-53 65 -468 566 -517 624 -59 69 -254 301 -351&#xA;417 -118 141 -303 346 -345 383 -21 18 -66 46 -99 62 -52 25 -73 29 -136 28&#xA;-41 -1 -100 -5 -131 -10z m238 -94 c65 -33 120 -86 278 -270 160 -186 517&#xA;-610 641 -761 54 -66 161 -195 236 -285 180 -218 262 -327 298 -399 17 -33 30&#xA;-63 30 -67 0 -5 -28 -19 -62 -32 -93 -36 -274 -122 -354 -169 l-71 -41 -79 39&#xA;c-143 71 -380 110 -584 95 -58 -4 -118 -8 -134 -9 -27 -1 -31 5 -67 88 -21 49&#xA;-38 90 -36 91 1 1 85 12 187 24 222 26 226 27 233 45 3 8 -4 34 -17 58 -26 50&#xA;-189 367 -366 713 -197 385 -339 647 -365 674 -11 11 -29 12 -112 2 -54 -7&#xA;-108 -15 -120 -18 -24 -5 -36 13 -69 105 -16 46 -16 54 -4 62 13 8 228 61 295&#xA;73 11 2 58 4 104 6 73 2 90 -1 138 -24z m-78 -608 c198 -389 310 -602 445&#xA;-847 47 -85 86 -158 86 -161 0 -13 -368 -41 -382 -30 -20 17 -538 1336 -538&#xA;1371 0 7 115 26 175 29 30 1 32 -3 214 -362z m5396 -222 c105 -19 127 -26 211&#xA;-68 98 -49 106 -61 52 -80 -24 -8 -74 -27 -113 -41 -94 -36 -262 -79 -420&#xA;-110 -141 -27 -424 -66 -483 -66 -20 0 -42 -4 -47 -8 -16 -11 -86 -132 -149&#xA;-259 -115 -229 -101 -275 115 -377 129 -62 268 -106 347 -112 l67 -6 155 97&#xA;c379 235 705 355 964 355 105 0 252 -48 478 -157 l162 -78 -84 -7 c-102 -8&#xA;-148 -20 -259 -65 -315 -128 -521 -404 -587 -787 -19 -109 -14 -302 11 -415&#xA;23 -102 53 -181 71 -181 18 0 18 14 -2 69 -20 59 -44 221 -44 304 l0 67 83 0&#xA;c91 0 258 21 369 46 80 18 76 13 108 157 29 130 90 252 170 340 123 134 322&#xA;237 458 237 63 0 64 0 140 -62 42 -35 120 -104 172 -155 94 -91 95 -92 63 -93&#xA;-56 0 -139 -38 -192 -88 -121 -114 -175 -356 -116 -522 39 -112 123 -205 196&#xA;-216 22 -4 39 -10 39 -15 0 -14 -107 -95 -205 -156 -365 -228 -834 -379 -1665&#xA;-537 -527 -101 -1380 -207 -2335 -291 -372 -33 -511 -61 -2300 -464 -635 -142&#xA;-1072 -222 -1380 -252 -181 -18 -229 -19 -350 -10 -148 11 -234 30 -256 57&#xA;-10 13 -10 20 2 40 22 36 149 124 179 124 14 0 97 -9 185 -20 328 -41 503 -25&#xA;1050 95 390 86 1558 386 1695 436 363 132 725 217 1940 454 470 91 690 139&#xA;753 164 72 28 -22 86 -192 120 -219 43 -350 53 -766 58 -369 5 -671 -5 -945&#xA;-32 -767 -75 -1527 -217 -2147 -401 -87 -26 -167 -47 -178 -48 -16 -1 -24 17&#xA;-52 113 -47 163 -73 292 -80 402 l-6 95 59 13 c120 27 351 126 383 165 11 13&#xA;10 31 -4 103 -47 235 54 536 232 693 84 74 399 269 436 270 4 0 -24 -32 -63&#xA;-71 -136 -137 -230 -309 -267 -487 -32 -155 -5 -372 97 -768 53 -204 72 -259&#xA;90 -259 22 0 18 32 -23 190 -154 590 -165 757 -67 1001 63 158 260 403 360&#xA;446 271 119 1497 534 2090 708 446 130 562 163 765 213 548 137 817 171 1030&#xA;132z m453 -270 c85 -100 156 -200 212 -297 l32 -58 -49 -1 c-79 0 -131 -8&#xA;-304 -45 -24 -5 -32 6 -143 191 -65 108 -116 198 -114 198 2 1 41 15 88 31 47&#xA;16 105 39 130 52 25 13 50 23 56 24 6 0 47 -43 92 -95z m-417 -63 c9 -15 62&#xA;-101 118 -191 55 -91 101 -167 101 -171 0 -3 -24 -14 -52 -24 -90 -31 -308&#xA;-141 -405 -205 l-92 -60 -10 52 c-5 29 -14 81 -20 117 -6 36 -22 128 -35 205&#xA;-13 77 -26 159 -29 181 l-5 42 80 12 c44 7 130 25 191 40 142 35 139 35 158 2z&#xA;m-496 -94 c2 -13 20 -117 40 -233 19 -115 41 -244 49 -285 8 -41 12 -78 10&#xA;-82 -16 -25 -70 -40 -123 -34 -112 13 -353 109 -440 173 -31 24 -33 29 -28 71&#xA;3 31 33 102 88 210 46 90 86 165 89 167 4 2 35 7 70 11 34 3 86 10 114 14 100&#xA;15 125 12 131 -12z m-3245 -278 c40 -7 102 -28 160 -56 l95 -46 -115 -44 c-63&#xA;-24 -132 -51 -152 -59 l-38 -15 -34 68 c-19 37 -45 83 -58 102 -13 19 -27 41&#xA;-32 48 -9 15 80 16 174 2z m5229 -321 c51 -33 92 -62 89 -64 -2 -2 -37 -11&#xA;-77 -19 -217 -45 -430 -221 -530 -437 -31 -66 -71 -205 -71 -245 0 -25 -14&#xA;-30 -130 -53 -80 -16 -278 -41 -322 -41 l-39 0 6 38 c21 132 31 176 58 252 89&#xA;256 230 426 436 529 144 72 247 98 391 100 l95 1 94 -61z m-6148 -132 c74 -17&#xA;219 -74 219 -87 0 -4 -12 -16 -27 -25 -166 -109 -303 -363 -320 -595 -5 -77&#xA;11 -206 33 -264 12 -31 -296 -142 -448 -161 -51 -6 -62 -4 -101 18 -122 72&#xA;-192 221 -204 432 -12 231 78 455 251 624 46 46 64 56 113 67 78 17 394 11&#xA;484 -9z m-680 -94 c-144 -145 -222 -339 -222 -554 0 -110 15 -194 53 -293 25&#xA;-64 42 -90 94 -144 l65 -65 -73 6 c-139 11 -246 62 -299 142 -52 79 -74 167&#xA;-73 300 0 101 4 132 26 197 51 154 131 262 270 367 47 35 196 110 219 111 4 0&#xA;-23 -30 -60 -67z m7413 -291 c25 -38 54 -90 66 -116 26 -62 43 -170 35 -226&#xA;-17 -113 -88 -242 -189 -339 l-45 -44 -47 18 c-141 54 -225 232 -196 418 29&#xA;190 116 304 261 343 25 7 51 13 58 13 6 1 32 -30 57 -67z m-7261 -876 c-8 -83&#xA;10 -196 59 -386 22 -85 41 -161 41 -168 1 -9 -42 -29 -123 -57 -68 -24 -126&#xA;-42 -128 -40 -10 10 -122 627 -122 673 0 21 4 22 68 23 37 0 90 4 117 9 100&#xA;15 95 18 88 -54z m3728 -116 c101 -6 236 -17 299 -26 136 -18 300 -54 300 -66&#xA;0 -4 -5 -8 -10 -8 -6 0 -131 -22 -278 -50 -147 -27 -379 -70 -517 -95 -855&#xA;-156 -1453 -298 -1834 -436 -94 -34 -276 -87 -425 -125 -144 -36 -346 -87&#xA;-451 -114 -249 -65 -771 -190 -1005 -241 -268 -59 -421 -79 -580 -78 -220 2&#xA;-219 1 -55 93 287 162 745 425 1027 591 37 22 68 46 68 54 0 20 23 31 -580&#xA;-294 -185 -100 -459 -258 -593 -341 -105 -66 -122 -74 -165 -73 -108 2 -105 7&#xA;50 100 79 47 202 119 273 159 72 41 180 101 240 135 61 34 164 93 230 130 141&#xA;79 251 124 470 193 670 212 1460 371 2217 446 499 50 963 66 1319 46z"/>
    <path d="M5969 7313 c-152 -142 -201 -207 -279 -368 -169 -347 -164 -605 25&#xA;-1440 43 -189 56 -230 75 -230 22 0 18 39 -24 225 -193 848 -195 1123 -10&#xA;1480 59 113 129 206 243 318 70 69 89 92 73 92 -12 0 -56 -33 -103 -77z"/>
    <path d="M4467 6879 c-160 -169 -263 -386 -289 -610 -20 -167 5 -332 118 -791&#xA;58 -232 73 -273 94 -251 9 8 4 45 -23 155 -58 231 -124 546 -138 646 -14 111&#xA;-7 280 17 372 40 157 151 357 269 488 82 90 39 82 -48 -9z"/>
    <path d="M5325 6314 c-27 -8 -99 -26 -160 -40 -182 -42 -215 -53 -215 -73 0&#xA;-45 20 -45 227 4 252 60 255 61 251 94 -4 32 -30 35 -103 15z"/>
    <path d="M4576 6130 c-105 -27 -200 -53 -213 -59 -27 -12 -30 -33 -8 -51 13&#xA;-11 53 -4 228 40 117 29 218 58 225 63 22 17 10 52 -18 54 -14 1 -110 -20&#xA;-214 -47z"/>
    <path d="M3875 5953 c-77 -20 -157 -40 -178 -45 -31 -7 -38 -13 -35 -30 6 -43&#xA;27 -43 198 -2 179 42 210 57 191 92 -6 12 -17 22 -24 21 -7 0 -75 -17 -152&#xA;-36z"/>
    <path d="M3270 5810 c-143 -37 -169 -51 -157 -84 9 -22 45 -20 152 9 49 13&#xA;109 29 132 35 50 13 71 41 47 64 -8 9 -18 15 -22 15 -4 -1 -72 -18 -152 -39z"/>
    <path d="M953 5664 c-187 -41 -378 -99 -378 -115 0 -23 47 -16 285 46 236 60&#xA;264 70 255 86 -9 13 -36 10 -162 -17z"/>
    <path d="M1170 5313 c-235 -41 -704 -140 -802 -169 -10 -3 -18 -12 -18 -21 0&#xA;-21 68 -14 255 26 77 17 246 52 375 80 247 52 290 64 290 81 0 10 -51 11 -100&#xA;3z"/>
    <path d="M8366 4209 c-9 -13 -16 -38 -16 -56 0 -48 -20 -133 -41 -175 -27 -53&#xA;-72 -83 -164 -109 -132 -37 -135 -55 -19 -95 37 -13 82 -35 101 -50 46 -35 89&#xA;-115 108 -199 28 -123 35 -145 50 -145 21 0 27 15 36 97 15 139 81 237 196&#xA;292 37 18 79 38 93 45 28 13 33 35 10 47 -8 4 -55 16 -104 28 -56 13 -98 29&#xA;-112 42 -29 27 -57 100 -78 199 -8 40 -21 80 -29 87 -13 13 -17 12 -31 -8z&#xA;m42 -221 c6 -24 21 -58 32 -76 22 -36 88 -71 133 -72 38 0 33 -12 -13 -33 -55&#xA;-26 -118 -93 -149 -160 l-27 -59 -32 65 c-34 69 -95 132 -144 149 l-31 11 59&#xA;27 c70 32 120 85 136 146 7 24 15 44 18 44 3 0 11 -19 18 -42z"/>
    <path d="M5990 3529 c-142 -37 -294 -134 -372 -237 -39 -51 -88 -145 -107&#xA;-203 l-12 -36 -37 18 c-90 45 -206 43 -302 -6 -87 -45 -149 -129 -150 -204 0&#xA;-32 -2 -33 -29 -28 -87 18 -130 18 -191 3 -156 -40 -288 -171 -265 -263 16&#xA;-66 81 -98 231 -112 49 -5 658 -8 1354 -8 1204 2 1267 3 1313 20 79 31 106 86&#xA;71 147 -23 37 -68 62 -138 75 l-58 11 -4 43 c-20 219 -293 329 -525 211 l-36&#xA;-19 -6 97 c-6 114 -30 189 -88 279 -42 64 -126 141 -190 174 -118 60 -314 76&#xA;-459 38z m404 -92 c210 -104 326 -360 260 -571 -14 -44 -15 -59 -6 -68 9 -9&#xA;24 -1 65 39 75 75 151 107 252 108 65 0 89 -5 129 -24 122 -60 165 -141 131&#xA;-248 -7 -22 -5 -23 51 -23 98 -1 174 -39 174 -86 0 -50 30 -49 -1335 -52 -844&#xA;-2 -1303 1 -1369 8 -125 13 -160 31 -164 84 -3 34 2 43 41 81 100 96 220 125&#xA;343 83 40 -13 77 -22 83 -20 6 2 11 29 11 65 0 83 28 131 100 175 70 41 123&#xA;56 182 49 89 -11 144 -55 162 -130 5 -20 12 -27 24 -25 14 3 18 19 23 94 6 78&#xA;12 100 47 169 51 101 101 158 196 222 133 90 216 113 397 110 124 -3 128 -3&#xA;203 -40z"/>
    <path d="M1980 3319 c-561 -93 -1294 -231 -1412 -265 -27 -8 -22 -34 7 -34 29&#xA;0 380 60 785 135 162 30 396 73 520 95 261 48 333 66 327 83 -6 19 -41 17&#xA;-227 -14z"/>
    <path d="M2528 3091 c-202 -45 -371 -178 -460 -361 -45 -93 -68 -170 -68 -231&#xA;0 -17 -3 -29 -7 -27 -130 65 -146 71 -231 76 -197 11 -386 -89 -473 -250 -31&#xA;-57 -34 -70 -34 -148 0 -47 4 -98 9 -113 l8 -28 -43 8 c-90 16 -249 8 -321&#xA;-16 -167 -56 -278 -174 -278 -297 0 -127 101 -194 325 -216 151 -15 3278 5&#xA;3350 21 224 50 275 210 103 324 -80 53 -144 70 -237 65 l-79 -5 -4 77 c-3 59&#xA;-11 87 -33 128 -108 198 -388 276 -618 170 -37 -17 -69 -29 -72 -27 -2 3 1 25&#xA;7 49 5 25 8 96 5 160 -8 191 -70 332 -207 471 -127 128 -282 189 -475 188 -49&#xA;0 -125 -9 -167 -18z m334 -70 c115 -30 174 -64 265 -156 131 -133 195 -290&#xA;194 -480 -1 -78 -21 -191 -46 -257 -3 -8 1 -20 9 -27 13 -11 23 -5 63 32 90&#xA;84 204 123 333 114 231 -16 387 -188 341 -373 -16 -64 -5 -73 59 -50 111 40&#xA;240 15 321 -63 89 -86 50 -156 -107 -192 -66 -16 -1015 -25 -2329 -24 -950 1&#xA;-1046 3 -1104 18 -35 10 -82 27 -104 40 -150 84 -33 291 200 352 101 27 264&#xA;14 359 -30 67 -30 88 -20 60 27 -44 75 -58 109 -63 160 -14 140 109 288 287&#xA;348 92 31 221 25 302 -14 52 -24 97 -65 123 -110 6 -11 16 -15 26 -11 14 5 16&#xA;19 12 88 -7 106 8 177 59 280 56 112 162 219 270 272 150 74 321 94 470 56z"/>
    <path d="M8425 2421 c-49 -11 -109 -26 -133 -35 -223 -80 -422 -313 -422 -493&#xA;l0 -48 -69 0 c-57 -1 -75 -5 -110 -28 -22 -15 -51 -42 -63 -61 l-22 -33 -44&#xA;33 c-66 51 -164 77 -270 72 -75 -3 -98 -9 -163 -41 -123 -59 -209 -170 -209&#xA;-270 0 -26 -4 -47 -8 -47 -5 0 -30 7 -56 16 -109 37 -287 -8 -378 -96 -42 -41&#xA;-48 -51 -48 -87 0 -52 36 -85 118 -110 53 -17 153 -18 1542 -18 l1485 0 55 27&#xA;c87 43 113 113 69 184 -24 39 -109 84 -172 91 l-42 5 3 65 c5 90 -13 147 -62&#xA;199 -61 63 -143 79 -256 50 -30 -8 -56 -13 -58 -11 -2 2 1 20 7 42 15 53 13&#xA;158 -4 222 -47 176 -189 319 -366 367 -91 24 -222 26 -324 5z m270 -66 c146&#xA;-31 260 -118 321 -245 66 -135 70 -250 14 -366 -38 -79 -30 -101 23 -70 84 50&#xA;114 60 187 64 66 3 79 1 110 -20 69 -46 99 -154 65 -235 -23 -56 -16 -63 65&#xA;-63 114 0 180 -42 180 -115 0 -39 -63 -65 -188 -77 -66 -6 -622 -8 -1461 -5&#xA;-1459 4 -1452 4 -1503 55 -18 18 -20 25 -10 46 16 35 85 83 145 101 77 23 155&#xA;19 234 -11 37 -14 76 -28 87 -31 22 -7 38 15 26 38 -24 43 -28 101 -12 147 20&#xA;59 104 145 168 172 101 44 236 43 329 -1 41 -19 74 -51 116 -111 14 -19 19&#xA;-21 32 -10 9 8 19 27 22 43 9 41 72 105 116 117 50 13 84 5 118 -30 48 -49 56&#xA;-36 56 93 0 111 1 117 35 184 49 99 151 199 255 252 94 48 132 61 229 78 95&#xA;18 157 18 241 0z"/>
    <path d="M3400 937 c-3 -2 -248 -7 -545 -11 -297 -3 -580 -9 -630 -11 -49 -3&#xA;-227 -10 -395 -15 -311 -11 -731 -35 -800 -46 -41 -7 -61 -31 -34 -41 8 -3&#xA;113 -1 232 6 362 18 1080 42 1582 51 593 10 3047 4 3545 -9 396 -11 475 -13&#xA;1085 -36 710 -27 904 -35 990 -40 47 -2 243 -8 436 -11 274 -6 353 -4 359 5&#xA;17 29 5 30 -500 56 -55 3 -219 10 -365 15 -146 6 -434 17 -640 25 -206 8 -607&#xA;21 -890 30 -283 8 -594 17 -690 20 -233 7 -2734 18 -2740 12z"/>
  </g>
  <title>Lądujący wahadłowiec kosmiczny</title>
  <desc>Wahadłowiec kosmiczny ląduje na pasie startowym, niczym samolot. Wahadłowce to statki kosmiczne wielokrotnego użytku, które odbyły wiele misji.</desc>
</svg>