<?xml version="1.0" standalone="no"?>
<!DOCTYPE svg PUBLIC "-//W3C//DTD SVG 20010904//EN"
 "http://www.w3.org/TR/2001/REC-SVG-20010904/DTD/svg10.dtd">
<svg version="1.0" xmlns="http://www.w3.org/2000/svg"
 width="1024.000000pt" height="1024.000000pt" viewBox="0 0 1024.000000 1024.000000"
 preserveAspectRatio="xMidYMid meet">
<metadata>
Created by potrace 1.16, written by Peter Selinger 2001-2019
</metadata>
<g transform="translate(0.000000,1024.000000) scale(0.100000,-0.100000)"
fill="#000000" stroke="none">
<path d="M6745 9628 c-2 -7 -13 -48 -23 -90 -29 -112 -46 -137 -127 -178 -39
-19 -86 -41 -105 -48 -34 -12 -34 -12 -15 -31 11 -10 48 -28 83 -41 35 -12 77
-37 95 -53 18 -17 35 -31 39 -32 3 0 10 -4 15 -9 5 -5 2 -6 -6 -1 -10 5 -12 3
-7 -11 5 -19 29 -115 40 -166 9 -42 33 -34 47 15 57 210 71 229 193 261 99 25
100 37 9 80 -87 42 -137 77 -154 108 -6 11 -21 61 -33 111 -21 85 -40 117 -51
85z m25 -23 c0 -8 -4 -15 -10 -15 -5 0 -7 7 -4 15 4 8 8 15 10 15 2 0 4 -7 4
-15z m-28 -82 c-3 -16 -7 -22 -10 -15 -4 13 4 42 11 42 2 0 2 -12 -1 -27z m94
-160 c20 -18 57 -43 82 -55 l46 -22 -33 -11 c-18 -6 -29 -14 -24 -18 4 -5 -1
-5 -10 -1 -28 10 -98 -69 -119 -135 -9 -30 -14 -59 -11 -65 4 -7 3 -8 -4 -1
-5 6 -17 36 -27 68 -9 31 -21 55 -26 52 -6 -3 -7 0 -5 8 7 17 -30 51 -46 41
-8 -4 -10 -3 -5 4 8 13 -62 52 -96 52 -15 1 -2 10 39 30 52 23 61 32 58 49 -2
12 0 19 6 16 5 -4 7 -11 4 -16 -11 -16 11 -10 27 9 26 29 58 100 59 129 0 21
6 12 24 -37 16 -45 36 -75 61 -97z m-114 85 c-8 -8 -9 -4 -5 13 4 13 8 18 11
10 2 -7 -1 -18 -6 -23z m-32 -58 c0 -5 -2 -10 -4 -10 -3 0 -8 5 -11 10 -3 6
-1 10 4 10 6 0 11 -4 11 -10z m150 0 c0 -5 -2 -10 -4 -10 -3 0 -8 5 -11 10 -3
6 -1 10 4 10 6 0 11 -4 11 -10z m50 -42 c0 -6 -6 -5 -15 2 -8 7 -15 14 -15 16
0 2 7 1 15 -2 8 -4 15 -11 15 -16z m-326 -32 c-10 -8 -21 -12 -24 -10 -5 6 21
24 34 24 6 0 1 -6 -10 -14z m476 -30 c0 -3 -4 -8 -10 -11 -5 -3 -10 -1 -10 4
0 6 5 11 10 11 6 0 10 -2 10 -4z m-406 -44 c3 -5 -1 -9 -9 -9 -8 0 -12 4 -9 9
3 4 7 8 9 8 2 0 6 -4 9 -8z m46 -36 c0 -3 -4 -8 -10 -11 -5 -3 -10 -1 -10 4 0
6 5 11 10 11 6 0 10 -2 10 -4z m122 -88 c-7 -7 -12 -8 -12 -2 0 14 12 26 19
19 2 -3 -1 -11 -7 -17z m-77 2 c3 -5 1 -10 -4 -10 -6 0 -11 5 -11 10 0 6 2 10
4 10 3 0 8 -4 11 -10z"/>
<path d="M1455 9551 c-3 -5 -9 -31 -15 -58 -31 -159 -62 -290 -75 -316 -8 -16
-12 -33 -9 -38 3 -5 2 -8 -3 -7 -4 1 -26 -9 -48 -23 -38 -24 -114 -55 -235
-96 -84 -28 -74 -42 66 -88 216 -72 233 -94 293 -379 16 -76 34 -143 41 -149
16 -17 36 13 44 67 22 146 56 288 81 341 37 77 89 106 245 141 75 16 108 34
97 52 -4 5 -44 19 -89 32 -109 30 -195 69 -239 108 -39 34 -63 101 -94 262
-29 152 -41 181 -60 151z m35 -96 c0 -5 -5 -3 -10 5 -5 8 -10 20 -10 25 0 6 5
3 10 -5 5 -8 10 -19 10 -25z m-11 -28 c12 4 13 3 2 -5 -15 -11 -9 -48 30 -193
31 -117 92 -169 259 -220 l75 -23 -40 -7 c-64 -11 -154 -46 -190 -74 -48 -36
-80 -113 -108 -255 l-24 -124 -27 109 c-36 143 -67 209 -120 247 -49 36 -111
64 -175 80 -43 10 -86 33 -51 27 20 -4 107 24 161 51 74 38 110 71 135 124 29
64 62 248 45 254 -6 2 -11 9 -11 15 0 8 3 8 11 0 6 -6 19 -9 28 -6z m25 -60
c4 -17 3 -26 -2 -23 -6 3 -12 19 -14 36 -6 37 7 27 16 -13z m-84 -107 c0 -5
-5 -10 -11 -10 -5 0 -7 5 -4 10 3 6 8 10 11 10 2 0 4 -4 4 -10z m120 -14 c0
-3 -4 -8 -10 -11 -5 -3 -10 -1 -10 4 0 6 5 11 10 11 6 0 10 -2 10 -4z m-120
-10 c0 -3 -4 -8 -10 -11 -5 -3 -10 -1 -10 4 0 6 5 11 10 11 6 0 10 -2 10 -4z
m139 -58 c1 -5 -3 -8 -7 -8 -4 0 -8 12 -9 28 -1 23 -1 24 7 7 5 -11 9 -23 9
-27z m-164 -18 c-3 -5 -12 -10 -18 -10 -7 0 -6 4 3 10 19 12 23 12 15 0z m-52
-55 c-3 -9 -8 -14 -10 -11 -3 3 -2 9 2 15 9 16 15 13 8 -4z m317 -19 c0 -3 -4
-8 -10 -11 -5 -3 -10 -1 -10 4 0 6 5 11 10 11 6 0 10 -2 10 -4z m-410 -30 c0
-2 -7 -7 -16 -10 -8 -3 -12 -2 -9 4 6 10 25 14 25 6z m-163 -98 c-3 -8 -6 -5
-6 6 -1 11 2 17 5 13 3 -3 4 -12 1 -19z m60 -14 c-3 -3 -12 -4 -19 -1 -8 3 -5
6 6 6 11 1 17 -2 13 -5z m463 -84 c0 -5 -4 -10 -10 -10 -5 0 -10 5 -10 10 0 6
5 10 10 10 6 0 10 -4 10 -10z m-29 -43 c-10 -9 -11 -8 -5 6 3 10 9 15 12 12 3
-3 0 -11 -7 -18z m-13 -42 c-3 -3 -9 2 -12 12 -6 14 -5 15 5 6 7 -7 10 -15 7
-18z m-138 -85 c0 -5 -2 -10 -4 -10 -3 0 -8 5 -11 10 -3 6 -1 10 4 10 6 0 11
-4 11 -10z m30 -110 c0 -5 -5 -10 -11 -10 -5 0 -7 5 -4 10 3 6 8 10 11 10 2 0
4 -4 4 -10z m14 -73 c7 -6 6 -7 -4 -4 -8 2 -16 12 -17 23 -2 13 -1 15 4 4 3
-8 11 -19 17 -23z m-7 -54 c-3 -10 -5 -4 -5 12 0 17 2 24 5 18 2 -7 2 -21 0
-30z m33 7 c0 -5 -5 -10 -11 -10 -5 0 -7 5 -4 10 3 6 8 10 11 10 2 0 4 -4 4
-10z m-15 -40 c3 -5 1 -10 -4 -10 -6 0 -11 5 -11 10 0 6 2 10 4 10 3 0 8 -4
11 -10z"/>
<path d="M3338 9483 c-52 -33 -64 -108 -25 -157 19 -23 33 -30 73 -33 43 -4
55 -2 78 18 51 45 48 136 -7 169 -39 24 -83 25 -119 3z m57 -3 c3 -5 1 -10 -4
-10 -6 0 -11 5 -11 10 0 6 2 10 4 10 3 0 8 -4 11 -10z m43 -36 c45 -31 14
-114 -43 -114 -57 0 -85 71 -43 110 26 24 56 26 86 4z m-120 -46 c1 -26 -1
-29 -9 -16 -5 9 -6 23 -3 32 9 23 11 20 12 -16z m85 -95 c-7 -2 -19 -2 -25 0
-7 3 -2 5 12 5 14 0 19 -2 13 -5z"/>
<path d="M8129 9451 c-32 -32 -34 -45 -18 -88 8 -22 12 -25 20 -13 8 12 9 10
4 -7 -5 -18 0 -23 29 -33 44 -14 69 -7 96 27 71 90 -50 195 -131 114z m51 16
c0 -2 -10 -12 -22 -23 l-23 -19 19 23 c18 21 26 27 26 19z m37 -3 c-3 -3 -12
-4 -19 -1 -8 3 -5 6 6 6 11 1 17 -2 13 -5z m4 -34 c21 -12 25 -50 7 -68 -28
-28 -93 2 -81 36 15 42 37 51 74 32z m42 -25 c4 -8 2 -17 -3 -20 -6 -4 -10 3
-10 14 0 25 6 27 13 6z m-3 -45 c0 -5 -2 -10 -4 -10 -3 0 -8 5 -11 10 -3 6 -1
10 4 10 6 0 11 -4 11 -10z m-80 -30 c0 -5 -7 -7 -15 -4 -8 4 -15 8 -15 10 0 2
7 4 15 4 8 0 15 -4 15 -10z"/>
<path d="M4777 9343 c-3 -5 -10 -41 -17 -82 -14 -87 -31 -107 -111 -135 -30
-10 -58 -23 -64 -28 -17 -16 26 -38 75 -38 25 0 55 -7 67 -15 25 -18 43 -71
43 -131 0 -48 20 -83 36 -62 6 7 16 42 23 78 20 101 27 111 101 136 80 26 90
48 28 64 -53 13 -99 30 -114 42 -7 5 -17 43 -23 84 -6 42 -14 80 -17 85 -6 11
-21 12 -27 2z m30 -95 c-3 -7 -5 -2 -5 12 0 14 2 19 5 13 2 -7 2 -19 0 -25z
m14 -113 c17 -14 37 -25 45 -25 22 0 16 -16 -11 -28 -15 -7 -32 -26 -39 -43
l-13 -31 -13 31 c-7 17 -13 31 -14 31 0 0 -19 7 -41 14 -34 12 -37 15 -20 22
36 13 65 47 66 78 2 30 2 30 6 4 2 -15 18 -39 34 -53z m-57 30 c-4 -8 -8 -15
-10 -15 -2 0 -4 7 -4 15 0 8 4 15 10 15 5 0 7 -7 4 -15z m-24 -15 c0 -5 -5
-10 -11 -10 -5 0 -7 5 -4 10 3 6 8 10 11 10 2 0 4 -4 4 -10z m-70 -40 c0 -5
-8 -10 -17 -10 -15 0 -16 2 -3 10 19 12 20 12 20 0z m283 -10 c-3 -11 -7 -20
-9 -20 -2 0 -4 9 -4 20 0 11 4 20 9 20 5 0 7 -9 4 -20z m-23 -6 c0 -8 -5 -12
-10 -9 -6 4 -8 11 -5 16 9 14 15 11 15 -7z m-33 -16 c-3 -8 -6 -5 -6 6 -1 11
2 17 5 13 3 -3 4 -12 1 -19z m-152 -18 c4 -6 11 -7 17 -4 7 4 8 2 4 -5 -6 -9
-12 -9 -24 1 -10 7 -19 14 -21 15 -2 2 1 3 7 3 6 0 14 -5 17 -10z m37 -45 c3
-13 1 -22 -3 -19 -9 5 -13 44 -5 44 2 0 6 -11 8 -25z m49 -2 c-12 -20 -14 -14
-5 12 4 9 9 14 11 11 3 -2 0 -13 -6 -23z m-24 -35 c-9 -5 -14 -15 -11 -23 4
-8 2 -15 -3 -15 -13 0 -12 32 1 46 6 7 15 10 20 7 5 -3 1 -10 -7 -15z m10 -30
c-3 -8 -6 -5 -6 6 -1 11 2 17 5 13 3 -3 4 -12 1 -19z m-15 -60 c-8 -8 -9 -4
-5 13 4 13 8 18 11 10 2 -7 -1 -18 -6 -23z"/>
<path d="M9185 9120 c-23 -138 -33 -153 -128 -181 -40 -11 -76 -24 -80 -28
-11 -11 9 -25 73 -52 30 -12 65 -31 76 -41 20 -18 46 -91 75 -211 11 -44 31
-68 46 -54 3 3 11 54 18 112 8 67 20 116 31 133 10 15 17 34 16 42 -2 12 -1
12 6 2 7 -10 23 -9 81 6 71 19 101 35 89 48 -3 3 -41 14 -85 25 -43 11 -86 28
-96 38 -15 15 -36 80 -53 170 -16 81 -21 96 -35 99 -12 2 -19 -21 -34 -108z
m45 70 c0 -11 -4 -20 -9 -20 -7 0 -8 17 -2 38 4 10 11 -2 11 -18z m-5 -40 c-3
-5 -12 -10 -18 -10 -7 0 -6 4 3 10 19 12 23 12 15 0z m34 -207 c13 -25 94 -59
113 -47 10 6 10 4 -1 -9 -7 -9 -17 -15 -20 -12 -15 9 -89 -37 -101 -63 -7 -15
-16 -52 -19 -82 l-7 -55 -12 53 c-21 94 -36 117 -90 144 l-49 25 41 15 c22 9
40 21 38 28 -1 6 2 9 7 6 16 -10 51 50 51 87 0 72 14 72 26 1 6 -39 17 -80 23
-91z m-5 121 c3 -8 2 -12 -4 -9 -6 3 -10 10 -10 16 0 14 7 11 14 -7z m-64 -41
c-11 -17 -11 -17 -6 0 3 10 7 26 7 35 1 15 2 15 6 0 2 -10 -1 -25 -7 -35z m67
-15 c-3 -7 -5 -2 -5 12 0 14 2 19 5 13 2 -7 2 -19 0 -25z m-122 -68 c-3 -5
-15 -10 -26 -10 -10 0 -19 -4 -19 -10 0 -5 -4 -10 -10 -10 -23 0 -7 20 23 29
17 5 33 10 35 10 2 1 0 -3 -3 -9z m185 -4 c0 -3 -4 -8 -10 -11 -5 -3 -10 -1
-10 4 0 6 5 11 10 11 6 0 10 -2 10 -4z m80 -60 c0 -2 -7 -7 -16 -10 -8 -3 -12
-2 -9 4 6 10 25 14 25 6z m-130 -100 c0 -3 -4 -8 -10 -11 -5 -3 -10 -1 -10 4
0 6 5 11 10 11 6 0 10 -2 10 -4z m-76 -21 c3 -8 1 -15 -4 -15 -6 0 -10 7 -10
15 0 8 2 15 4 15 2 0 6 -7 10 -15z m66 -25 c0 -11 -4 -20 -9 -20 -5 0 -7 9 -4
20 3 11 7 20 9 20 2 0 4 -9 4 -20z m-25 -150 c3 -5 1 -10 -4 -10 -6 0 -11 5
-11 10 0 6 2 10 4 10 3 0 8 -4 11 -10z"/>
<path d="M5860 8589 c-188 -15 -411 -57 -625 -115 -268 -74 -616 -207 -621
-239 -1 -9 -6 -20 -10 -23 -4 -4 -4 1 -1 11 7 19 -4 22 -31 8 -186 -101 -220
-123 -215 -139 4 -14 3 -14 -5 -3 -8 11 -26 4 -99 -40 -48 -30 -87 -59 -86
-64 2 -12 -27 -45 -40 -45 -5 0 1 9 14 20 47 38 2 19 -61 -27 -181 -131 -315
-247 -304 -264 4 -8 3 -9 -4 -5 -15 9 -94 -73 -85 -87 4 -6 1 -7 -7 -2 -16 10
-33 -17 -17 -28 8 -6 6 -7 -5 -4 -16 5 -45 -22 -114 -105 -29 -34 -154 -221
-188 -280 -15 -26 -24 -53 -20 -59 4 -8 3 -9 -5 -5 -8 5 -31 -32 -70 -116 -95
-199 -142 -351 -177 -568 -22 -137 -14 -408 16 -550 30 -141 77 -284 126 -385
25 -49 36 -80 27 -69 -10 12 -56 67 -102 123 -46 55 -88 98 -94 94 -6 -3 -7
-1 -3 5 3 6 -14 43 -39 82 -118 181 -185 421 -185 658 0 216 67 468 192 715
39 79 47 102 36 109 -10 7 -9 8 4 4 13 -4 23 5 38 34 11 21 17 47 14 57 -4 13
-3 14 4 5 7 -10 16 -2 37 35 73 125 248 361 384 516 47 54 85 103 83 108 -1 6
1 8 6 5 12 -7 94 78 85 89 -5 4 -3 5 4 2 15 -9 45 21 37 35 -5 7 -2 8 6 3 13
-8 222 200 246 246 58 113 -226 18 -526 -176 -151 -98 -292 -204 -285 -215 3
-5 0 -7 -7 -5 -8 3 -69 -46 -143 -116 -96 -90 -129 -128 -127 -143 1 -15 -1
-17 -6 -8 -7 10 -11 10 -21 -2 -6 -8 -8 -16 -4 -18 4 -3 3 -3 -4 -2 -23 6
-219 -247 -207 -267 4 -7 3 -9 -4 -5 -30 18 -251 -399 -320 -604 -88 -263
-114 -415 -118 -685 -2 -142 1 -222 11 -275 20 -108 19 -122 -6 -83 -12 18
-26 30 -32 26 -5 -3 -7 -1 -3 5 3 6 -9 37 -28 69 -135 231 -198 508 -198 873
-1 219 16 348 78 590 19 74 34 149 34 166 0 37 -26 64 -62 64 -30 0 -124 -63
-120 -80 1 -6 -1 -9 -6 -6 -24 14 -154 -159 -221 -292 -53 -105 -142 -333
-170 -432 -32 -115 -69 -304 -81 -414 -10 -92 -14 -400 -6 -456 2 -14 7 -52
11 -85 12 -105 45 -256 82 -370 44 -135 122 -307 136 -298 6 3 7 1 3 -5 -9
-15 22 -74 35 -67 5 4 6 11 3 17 -4 7 -2 8 5 4 9 -6 9 -11 0 -22 -9 -10 -4
-25 21 -66 50 -82 141 -199 151 -192 5 3 6 -2 3 -11 -8 -19 229 -256 338 -338
42 -31 79 -57 82 -57 3 0 3 8 -1 18 -3 9 -3 14 1 10 4 -3 9 -14 10 -25 3 -21
153 -116 168 -107 7 4 8 2 4 -4 -8 -14 50 -46 66 -36 6 4 8 3 5 -3 -9 -15 187
-105 354 -161 320 -109 570 -147 914 -139 237 5 376 21 609 68 118 24 342 89
466 136 10 4 12 2 5 -5 -15 -16 -259 -135 -342 -167 -55 -21 -70 -31 -66 -44
4 -12 3 -13 -5 -2 -8 11 -31 5 -128 -29 -107 -37 -251 -77 -389 -108 -27 -7
-102 -19 -165 -27 -63 -9 -128 -18 -145 -21 -16 -3 -121 -8 -231 -11 -178 -5
-369 4 -479 23 -17 2 -57 9 -90 15 -224 37 -540 142 -755 249 -105 52 -307
184 -409 267 -42 34 -56 41 -64 31 -6 -10 -7 -8 -3 4 3 11 -2 23 -14 31 -10 7
-55 46 -101 87 -45 42 -89 74 -98 72 -11 -2 -13 0 -4 6 10 6 3 19 -23 48 -20
21 -69 77 -107 124 -189 228 -230 272 -239 258 -6 -9 -7 -6 -3 9 12 44 -66 71
-100 33 -15 -17 -17 -31 -11 -102 15 -190 81 -407 178 -588 87 -162 267 -408
289 -394 5 3 8 2 7 -3 -3 -9 46 -73 56 -73 3 0 3 8 0 18 -5 14 -4 14 4 2 6 -8
8 -18 6 -22 -6 -9 93 -104 188 -180 94 -76 271 -189 286 -183 7 3 10 0 7 -5
-8 -12 205 -119 337 -169 142 -53 277 -93 295 -87 8 3 12 2 9 -3 -5 -8 101
-34 269 -66 273 -51 794 -47 1130 11 49 8 169 35 265 59 338 86 547 165 854
324 227 117 322 175 528 324 54 39 95 75 91 80 -3 6 -1 7 5 3 5 -3 25 6 42 20
24 21 28 29 18 36 -9 7 -8 8 6 4 22 -7 59 21 49 37 -4 6 -1 7 6 2 18 -11 85
56 68 68 -8 6 -7 7 5 4 18 -6 52 25 41 38 -5 4 -3 5 3 2 7 -4 45 29 91 77 260
275 413 537 484 828 20 82 41 269 34 309 -2 13 -6 61 -10 107 -12 148 -90 335
-184 435 -33 36 -47 44 -54 35 -6 -10 -8 -9 -4 3 6 18 -8 32 -91 92 -106 78
-328 147 -472 147 -87 0 -241 -24 -313 -49 -95 -33 -206 -100 -276 -167 -36
-34 -62 -66 -58 -70 4 -5 13 -2 18 6 9 13 10 13 6 0 -2 -8 -10 -15 -18 -15
-26 -1 -40 -16 -34 -38 5 -17 4 -18 -4 -8 -7 12 -16 1 -36 -45 -22 -47 -28
-76 -29 -139 -1 -79 17 -151 35 -139 5 3 6 -1 3 -9 -6 -17 50 -69 109 -99 64
-33 181 -37 250 -9 88 36 137 99 137 178 0 42 -29 96 -48 88 -7 -2 -10 0 -7 5
8 14 -56 40 -96 40 -44 0 -107 -20 -113 -36 -8 -20 9 -26 39 -14 46 17 100 12
138 -14 31 -22 36 -23 39 -8 2 9 5 -10 6 -44 1 -56 -1 -64 -32 -101 -88 -102
-269 -95 -367 14 -68 75 -76 163 -24 266 27 52 33 58 99 87 143 62 255 75 397
45 164 -35 271 -113 332 -243 29 -61 31 -76 31 -162 0 -159 -51 -283 -167
-406 -111 -119 -196 -175 -377 -247 -225 -91 -410 -121 -684 -114 -276 7 -461
42 -688 133 -100 39 -242 110 -262 129 -19 20 -100 68 -113 68 -7 0 -10 4 -8
8 3 3 -19 25 -48 47 -28 23 -74 63 -101 91 -27 28 -54 47 -59 44 -6 -3 -7 -1
-3 5 3 6 -17 38 -46 72 -67 78 -61 69 -108 173 -112 243 -157 427 -166 672 -8
191 8 323 62 508 61 210 169 435 299 623 29 42 42 70 40 88 -2 14 1 26 7 26 5
0 6 -10 2 -22 -8 -27 -9 -28 49 44 25 31 44 64 43 75 -2 10 -1 12 1 5 3 -8 61
41 146 125 78 76 179 167 224 202 45 35 80 69 76 74 -3 6 -1 7 5 3 6 -4 53 22
104 57 51 35 126 83 166 106 63 38 71 46 60 60 -11 14 -11 14 3 3 14 -11 34
-4 130 47 324 168 791 316 1182 372 263 38 629 36 765 -4 l43 -13 -78 -13
c-231 -37 -694 -180 -915 -281 -17 -8 -25 -18 -21 -29 4 -13 3 -13 -5 -2 -9
12 -19 11 -64 -9 -151 -64 -434 -220 -586 -322 -64 -44 -72 -51 -60 -66 7 -9
8 -14 4 -10 -5 4 -16 2 -25 -5 -14 -11 -14 -10 -2 6 17 21 4 22 -20 1 -10 -9
-15 -22 -13 -29 3 -7 0 -16 -7 -21 -9 -5 -10 -2 -6 9 3 10 3 17 -1 17 -14 0
-157 -128 -155 -138 2 -6 -3 -9 -11 -6 -14 6 -157 -139 -231 -236 -109 -141
-174 -293 -177 -413 -3 -123 27 -140 93 -51 23 31 64 81 91 111 43 47 47 57
36 71 -11 15 -11 15 3 5 13 -11 20 -8 42 15 15 16 24 32 20 37 -5 4 -3 5 3 2
6 -3 31 12 55 35 24 23 85 75 136 115 67 54 90 79 86 91 -3 12 -2 13 4 4 7 -9
45 11 154 84 79 53 147 101 151 108 4 6 8 7 8 3 0 -4 55 21 123 57 457 241
1006 382 1527 391 411 7 812 -61 1179 -202 128 -49 369 -170 464 -233 68 -45
80 -50 95 -38 15 11 15 11 5 -2 -10 -13 -3 -23 42 -58 58 -45 71 -51 61 -26
-3 9 -2 12 5 9 6 -4 8 -13 5 -20 -2 -7 16 -30 42 -52 25 -21 95 -85 155 -143
61 -58 114 -104 119 -102 5 1 7 -2 3 -7 -3 -6 17 -35 45 -66 27 -30 76 -90
107 -132 31 -42 58 -72 61 -65 2 7 8 12 14 12 6 0 6 -6 -2 -15 -10 -12 -6 -24
21 -64 17 -28 36 -48 42 -44 6 3 7 1 3 -6 -4 -6 -3 -18 4 -25 40 -49 175 -335
231 -490 38 -103 70 -242 76 -331 l6 -69 -49 41 c-27 22 -57 50 -68 62 -10 11
-23 18 -29 14 -6 -3 -7 -1 -3 5 9 14 -102 154 -115 146 -5 -3 -6 -11 -2 -17 4
-7 0 -6 -10 2 -26 21 -20 3 14 -40 17 -22 35 -37 40 -33 5 3 6 11 2 17 -4 7 0
6 10 -2 18 -14 23 -26 8 -16 -5 3 -13 1 -16 -5 -9 -15 14 -41 29 -33 6 3 8 3
4 -2 -4 -4 2 -21 14 -37 16 -23 23 -27 30 -16 8 10 9 9 5 -4 -7 -20 55 -80
108 -105 50 -24 65 -7 65 71 -1 174 -116 515 -268 788 -33 59 -47 76 -60 72
-13 -5 -14 -4 -3 4 11 8 5 22 -29 73 -66 97 -149 208 -199 264 -98 109 -329
334 -386 375 -33 24 -62 46 -65 50 -17 22 -227 148 -345 208 -318 160 -549
235 -905 292 -470 75 -974 40 -1457 -101 -173 -50 -356 -117 -477 -174 -53
-25 -98 -45 -100 -45 -2 0 -61 -32 -132 -70 -198 -109 -461 -291 -448 -312 4
-6 10 -5 15 3 5 8 9 9 9 3 0 -18 -12 -24 -26 -13 -16 13 -115 -59 -109 -79 3
-7 0 -10 -6 -6 -14 8 -105 -81 -222 -216 -49 -58 -92 -107 -95 -110 -16 -16
11 140 34 193 15 34 27 72 28 84 0 11 4 19 8 17 4 -3 12 6 19 18 70 133 345
402 579 567 41 29 74 57 72 63 -1 5 2 7 8 3 5 -3 50 18 98 48 49 30 121 71
161 91 45 23 69 41 65 48 -4 7 -3 8 4 4 6 -4 66 19 134 50 373 171 770 298
1121 358 21 4 35 11 32 16 -3 6 1 7 9 4 12 -5 16 0 16 19 0 33 -50 53 -179 72
-103 16 -377 18 -541 4z m155 -9 c-3 -5 -12 -10 -18 -10 -7 0 -6 4 3 10 19 12
23 12 15 0z m62 4 c-3 -3 -12 -4 -19 -1 -8 3 -5 6 6 6 11 1 17 -2 13 -5z
m-202 -14 c3 -5 1 -10 -4 -10 -6 0 -11 5 -11 10 0 6 2 10 4 10 3 0 8 -4 11
-10z m558 -7 c-7 -2 -21 -2 -30 0 -10 3 -4 5 12 5 17 0 24 -2 18 -5z m-686 -9
c-3 -3 -12 -4 -19 -1 -8 3 -5 6 6 6 11 1 17 -2 13 -5z m-80 -10 c-3 -3 -12 -4
-19 -1 -8 3 -5 6 6 6 11 1 17 -2 13 -5z m853 -4 c0 -5 -5 -10 -11 -10 -5 0 -7
5 -4 10 3 6 8 10 11 10 2 0 4 -4 4 -10z m17 -22 c-3 -8 -6 -5 -6 6 -1 11 2 17
5 13 3 -3 4 -12 1 -19z m-1047 -9 c0 -5 -5 -7 -10 -4 -6 4 -17 1 -25 -5 -15
-12 -22 0 -8 13 10 11 43 8 43 -4z m-120 -29 c-20 -13 -33 -13 -25 0 3 6 14
10 23 10 15 0 15 -2 2 -10z m-55 -10 c3 -5 2 -10 -4 -10 -5 0 -13 5 -16 10 -3
6 -2 10 4 10 5 0 13 -4 16 -10z m1060 -10 c-27 -12 -35 -12 -35 0 0 6 12 10
28 9 24 0 25 -1 7 -9z m-65 -4 c0 -3 -4 -8 -10 -11 -5 -3 -10 -1 -10 4 0 6 5
11 10 11 6 0 10 -2 10 -4z m-1105 -16 c3 -5 1 -10 -4 -10 -6 0 -11 5 -11 10 0
6 2 10 4 10 3 0 8 -4 11 -10z m1075 6 c0 -3 -4 -8 -10 -11 -5 -3 -10 -1 -10 4
0 6 5 11 10 11 6 0 10 -2 10 -4z m-1130 -20 c0 -3 -4 -8 -10 -11 -5 -3 -10 -1
-10 4 0 6 5 11 10 11 6 0 10 -2 10 -4z m830 -60 c0 -3 -4 -8 -10 -11 -5 -3
-10 -1 -10 4 0 6 5 11 10 11 6 0 10 -2 10 -4z m-2060 -10 c0 -3 -4 -8 -10 -11
-5 -3 -10 -1 -10 4 0 6 5 11 10 11 6 0 10 -2 10 -4z m-39 -101 c-51 -52 -90
-99 -86 -104 3 -6 0 -8 -8 -5 -17 6 -300 -284 -290 -299 3 -5 1 -7 -4 -4 -14
9 -37 -19 -27 -34 4 -7 3 -9 -3 -6 -6 4 -18 -2 -28 -13 -15 -17 -16 -22 -4
-37 13 -17 13 -17 -4 -3 -17 12 -20 12 -27 0 -5 -8 -42 -59 -84 -114 -42 -54
-73 -103 -69 -109 3 -5 2 -8 -3 -5 -5 4 -29 -23 -54 -59 -37 -54 -42 -66 -30
-75 13 -8 12 -9 -2 -5 -38 13 -235 -375 -301 -593 -49 -162 -62 -245 -62 -405
0 -214 20 -342 78 -496 43 -113 158 -305 177 -294 5 3 12 0 16 -6 4 -8 3 -9
-4 -5 -24 15 -10 -8 48 -77 106 -129 127 -150 141 -142 8 5 10 4 5 -4 -8 -12
30 -50 52 -51 6 0 12 -4 12 -9 0 -32 313 -326 337 -317 8 3 12 2 9 -3 -3 -5
31 -32 75 -61 340 -218 855 -319 1296 -255 415 61 720 232 865 484 55 97 77
165 85 259 10 142 -28 261 -113 353 -57 60 -105 89 -205 126 -69 26 -85 28
-224 27 -129 0 -157 -3 -203 -22 -30 -11 -60 -18 -68 -15 -10 4 -13 0 -8 -13
5 -15 4 -16 -4 -4 -13 17 -5 33 13 26 16 -6 38 17 27 29 -4 5 -2 5 4 2 6 -3
33 10 60 30 156 113 391 172 578 143 210 -32 380 -117 503 -254 25 -28 52 -50
59 -48 8 2 14 -2 14 -8 0 -6 -5 -8 -11 -4 -7 4 -10 3 -7 -2 2 -5 23 -47 45
-94 48 -98 68 -169 83 -295 23 -188 -31 -447 -141 -669 -27 -54 -46 -103 -42
-109 3 -6 1 -7 -4 -4 -6 4 -30 -23 -54 -61 -43 -66 -138 -188 -211 -270 -23
-25 -36 -48 -32 -55 4 -6 3 -8 -1 -4 -14 12 -154 -133 -148 -152 4 -14 3 -14
-6 -1 -10 14 -16 7 -12 -13 1 -5 -3 -6 -8 -3 -13 9 -82 -54 -74 -67 3 -6 1 -7
-6 -3 -16 10 -90 -50 -86 -72 1 -9 0 -11 -2 -4 -3 6 -7 12 -9 12 -3 0 -40 -26
-82 -59 -92 -69 -244 -168 -363 -236 -62 -35 -85 -54 -82 -65 4 -12 3 -12 -5
-2 -7 10 -39 -2 -148 -56 -76 -38 -154 -74 -171 -82 -18 -7 -30 -17 -26 -23 3
-5 1 -7 -4 -4 -6 4 -62 -13 -125 -37 -310 -119 -584 -187 -918 -228 -140 -17
-654 -17 -775 0 -361 51 -713 159 -966 296 -96 51 -293 182 -365 241 -88 72
-264 249 -317 317 -36 47 -54 64 -60 55 -6 -9 -7 -8 -5 3 3 8 -20 50 -50 95
-124 186 -212 401 -252 621 -26 141 -26 170 1 185 12 6 19 7 15 1 -5 -9 89
-132 101 -132 3 0 1 10 -3 23 -3 12 -3 19 1 15 4 -4 9 -18 10 -31 4 -33 34
-66 54 -60 12 4 13 3 3 -4 -10 -8 -4 -22 28 -62 22 -28 45 -49 50 -46 6 3 7 0
5 -8 -4 -8 52 -73 139 -163 119 -122 148 -146 156 -134 9 13 10 12 8 -4 -4
-27 151 -154 164 -134 8 10 9 9 4 -4 -7 -23 11 -33 30 -17 13 10 17 10 25 -2
14 -22 10 -35 -4 -14 -9 12 -16 14 -21 7 -6 -11 56 -58 179 -134 66 -42 80
-46 71 -22 -3 9 -2 12 5 9 6 -4 8 -13 5 -21 -14 -37 424 -213 671 -269 304
-69 352 -74 673 -71 243 2 319 6 430 24 270 43 467 93 685 174 163 61 442 199
558 277 56 37 157 96 224 131 134 68 153 84 134 103 -9 9 -35 0 -119 -45 -59
-31 -168 -81 -242 -111 -148 -61 -455 -167 -482 -167 -12 0 -16 -5 -12 -17 4
-14 3 -15 -4 -5 -7 11 -32 9 -133 -12 -219 -45 -342 -58 -594 -62 -276 -4
-389 7 -610 61 -295 71 -574 184 -762 309 -34 23 -46 26 -57 17 -10 -8 -16 -9
-21 -1 -4 6 -3 9 2 8 4 -2 10 0 13 4 3 3 -44 43 -104 89 -59 45 -149 122 -199
170 -50 48 -96 85 -101 82 -5 -3 -6 -1 -2 5 4 6 -16 39 -44 74 -28 35 -76 100
-107 145 -44 65 -59 80 -70 72 -9 -9 -14 -7 -19 5 -4 9 -4 20 0 23 3 4 6 -2 6
-12 0 -14 3 -16 11 -8 13 13 -62 158 -76 146 -4 -5 -5 -3 -2 3 9 16 -64 175
-76 167 -6 -3 -7 -1 -3 5 4 7 -5 49 -19 94 -67 211 -95 397 -95 628 0 363 62
650 217 1005 80 183 214 366 310 422 72 42 76 19 30 -158 -131 -494 -103
-1034 70 -1396 54 -112 161 -276 175 -267 7 4 8 3 4 -4 -3 -6 3 -16 15 -23 24
-13 42 4 34 31 -21 68 -43 276 -44 405 -3 322 73 649 221 952 27 57 46 108 42
114 -4 7 -3 9 4 6 6 -4 24 18 42 50 48 85 129 207 198 297 33 43 59 83 58 90
-2 6 -1 8 1 4 5 -9 249 242 246 253 -2 5 1 8 5 6 9 -2 162 120 162 129 0 3 -4
3 -9 -1 -5 -3 -12 -1 -16 4 -3 6 4 8 15 6 19 -4 63 23 170 103 103 76 449 261
518 276 17 4 32 12 32 18 0 6 3 8 7 5 3 -4 -35 -50 -86 -102z m926 49 c-3 -3
-12 -4 -19 -1 -8 3 -5 6 6 6 11 1 17 -2 13 -5z m-114 -51 c-7 -2 -19 -2 -25 0
-7 3 -2 5 12 5 14 0 19 -2 13 -5z m-791 -25 c-7 -7 -12 -8 -12 -2 0 14 12 26
19 19 2 -3 -1 -11 -7 -17z m1683 -8 c3 -5 1 -10 -4 -10 -6 0 -11 5 -11 10 0 6
2 10 4 10 3 0 8 -4 11 -10z m-2015 -40 c0 -5 -2 -10 -4 -10 -3 0 -8 5 -11 10
-3 6 -1 10 4 10 6 0 11 -4 11 -10z m247 -32 c-3 -8 -6 -5 -6 6 -1 11 2 17 5
13 3 -3 4 -12 1 -19z m670 6 c-3 -3 -12 -4 -19 -1 -8 3 -5 6 6 6 11 1 17 -2
13 -5z m-1089 -88 c-7 -7 -19 -11 -27 -8 -11 4 -10 7 5 13 29 12 36 10 22 -5z
m3237 4 c3 -5 1 -10 -4 -10 -6 0 -11 5 -11 10 0 6 2 10 4 10 3 0 8 -4 11 -10z
m132 4 c-3 -3 -12 -4 -19 -1 -8 3 -5 6 6 6 11 1 17 -2 13 -5z m103 -4 c0 -5
-5 -10 -11 -10 -5 0 -7 5 -4 10 3 6 8 10 11 10 2 0 4 -4 4 -10z m-1620 -10 c0
-5 -2 -10 -4 -10 -3 0 -8 5 -11 10 -3 6 -1 10 4 10 6 0 11 -4 11 -10z m1703 3
c-7 -2 -21 -2 -30 0 -10 3 -4 5 12 5 17 0 24 -2 18 -5z m-3583 -17 c0 -11 -19
-15 -25 -6 -3 5 1 10 9 10 9 0 16 -2 16 -4z m910 -6 c0 -5 -5 -10 -11 -10 -5
0 -7 5 -4 10 3 6 8 10 11 10 2 0 4 -4 4 -10z m2894 1 c4 -5 -3 -7 -14 -4 -23
6 -26 13 -6 13 8 0 17 -4 20 -9z m-3510 -40 c-10 -10 -21 -16 -24 -14 -3 3 4
11 14 19 28 20 33 17 10 -5z m2336 -15 c0 -2 -7 -7 -16 -10 -8 -3 -12 -2 -9 4
6 10 25 14 25 6z m-110 -20 c0 -2 -8 -10 -17 -17 -16 -13 -17 -12 -4 4 13 16
21 21 21 13z m1925 -76 c3 -5 -1 -10 -10 -10 -9 0 -13 5 -10 10 3 6 8 10 10
10 2 0 7 -4 10 -10z m-3771 -15 c-4 -8 -8 -15 -10 -15 -2 0 -4 7 -4 15 0 8 4
15 10 15 5 0 7 -7 4 -15z m-514 -19 c0 -3 -4 -8 -10 -11 -5 -3 -10 -1 -10 4 0
6 5 11 10 11 6 0 10 -2 10 -4z m1350 -6 c0 -5 -5 -10 -11 -10 -5 0 -7 5 -4 10
3 6 8 10 11 10 2 0 4 -4 4 -10z m630 -16 c0 -8 -19 -13 -24 -6 -3 5 1 9 9 9 8
0 15 -2 15 -3z m-2010 -14 c0 -5 -5 -10 -11 -10 -5 0 -7 5 -4 10 3 6 8 10 11
10 2 0 4 -4 4 -10z m480 6 c0 -2 -8 -10 -17 -17 -16 -13 -17 -12 -4 4 13 16
21 21 21 13z m837 -28 c-3 -8 -6 -5 -6 6 -1 11 2 17 5 13 3 -3 4 -12 1 -19z
m3293 -32 c0 -3 -4 -8 -10 -11 -5 -3 -10 -1 -10 4 0 6 5 11 10 11 6 0 10 -2
10 -4z m-3395 -46 c3 -5 1 -10 -4 -10 -6 0 -11 5 -11 10 0 6 2 10 4 10 3 0 8
-4 11 -10z m-1745 -10 c0 -5 -2 -10 -4 -10 -3 0 -8 5 -11 10 -3 6 -1 10 4 10
6 0 11 -4 11 -10z m425 -20 c-3 -5 -12 -10 -18 -10 -7 0 -6 4 3 10 19 12 23
12 15 0z m4873 -25 c-3 -3 -9 2 -12 12 -6 14 -5 15 5 6 7 -7 10 -15 7 -18z
m-3162 -17 c4 -7 3 -8 -4 -4 -7 4 -12 2 -12 -5 0 -7 -3 -10 -6 -6 -6 5 3 27
11 27 2 0 7 -5 11 -12z m3224 -9 c0 -4 -7 -6 -15 -3 -8 4 -15 10 -15 15 0 4 7
6 15 3 8 -4 15 -10 15 -15z m-3775 -58 c-3 -6 -13 -11 -21 -11 -8 0 -12 5 -9
10 4 6 11 8 16 5 5 -4 9 -1 9 6 0 7 3 10 6 6 3 -3 3 -10 -1 -16z m3850 1 c-3
-3 -11 0 -18 7 -9 10 -8 11 6 5 10 -3 15 -9 12 -12z m45 -22 c0 -5 -5 -10 -11
-10 -5 0 -7 5 -4 10 3 6 8 10 11 10 2 0 4 -4 4 -10z m-6430 -64 c0 -3 -4 -8
-10 -11 -5 -3 -10 -1 -10 4 0 6 5 11 10 11 6 0 10 -2 10 -4z m1205 -36 c-3 -5
-11 -10 -16 -10 -6 0 -7 5 -4 10 3 6 11 10 16 10 6 0 7 -4 4 -10z m-1154 -37
c-8 -15 -10 -15 -11 -2 0 17 10 32 18 25 2 -3 -1 -13 -7 -23z m6554 -3 c3 -5
1 -10 -4 -10 -6 0 -11 5 -11 10 0 6 2 10 4 10 3 0 8 -4 11 -10z m45 -40 c0 -5
-5 -10 -11 -10 -5 0 -7 5 -4 10 3 6 8 10 11 10 2 0 4 -4 4 -10z m-5520 -34 c0
-2 -7 -9 -15 -16 -13 -11 -14 -10 -9 4 5 14 24 23 24 12z m-1100 -30 c0 -8 -5
-18 -10 -21 -6 -4 -7 -11 -4 -17 4 -7 2 -8 -5 -4 -9 6 -9 11 -1 21 7 8 9 19 5
25 -3 5 -1 10 4 10 6 0 11 -6 11 -14z m6697 -28 c-3 -8 -6 -5 -6 6 -1 11 2 17
5 13 3 -3 4 -12 1 -19z m-6117 -12 c0 -2 -7 -7 -16 -10 -8 -3 -12 -2 -9 4 6
10 25 14 25 6z m1920 -10 c0 -3 -4 -8 -10 -11 -5 -3 -10 -1 -10 4 0 6 5 11 10
11 6 0 10 -2 10 -4z m4245 -7 c11 -16 1 -19 -13 -3 -7 8 -8 14 -3 14 5 0 13
-5 16 -11z m-6772 -32 c3 -8 2 -20 -3 -26 -5 -9 -7 -4 -7 13 0 29 2 32 10 13z
m-270 -18 c-8 -8 -13 -7 -18 2 -5 8 -4 10 3 5 7 -4 12 -2 12 5 0 7 3 9 7 6 4
-4 2 -12 -4 -18z m2472 -31 c-10 -13 -14 -16 -11 -8 3 8 9 24 13 35 4 11 8 14
11 7 2 -6 -4 -22 -13 -34z m252 16 c-3 -3 -12 -4 -19 -1 -8 3 -5 6 6 6 11 1
17 -2 13 -5z m-2470 -36 c-3 -8 -6 -5 -6 6 -1 11 2 17 5 13 3 -3 4 -12 1 -19z
m558 2 c-3 -5 -12 -10 -18 -10 -7 0 -6 4 3 10 19 12 23 12 15 0z m480 0 c-3
-5 -11 -10 -16 -10 -6 0 -7 5 -4 10 3 6 11 10 16 10 6 0 7 -4 4 -10z m-1344
-23 c-10 -9 -11 -8 -5 6 3 10 9 15 12 12 3 -3 0 -11 -7 -18z m2716 8 c0 -8 -4
-15 -9 -15 -10 0 -11 14 -1 23 9 10 10 9 10 -8z m-212 -25 c3 -5 1 -10 -4 -10
-6 0 -11 5 -11 10 0 6 2 10 4 10 3 0 8 -4 11 -10z m-12 -45 c-7 -21 -12 -19
-10 4 0 11 5 18 9 15 4 -3 5 -11 1 -19z m-2513 1 c0 -3 -4 -8 -10 -11 -5 -3
-10 -1 -10 4 0 6 5 11 10 11 6 0 10 -2 10 -4z m1660 -6 c0 -5 -2 -10 -4 -10
-3 0 -8 5 -11 10 -3 6 -1 10 4 10 6 0 11 -4 11 -10z m979 -34 c-22 -20 -22
-20 -6 0 9 11 17 27 18 35 0 11 2 11 6 0 3 -7 -5 -23 -18 -35z m-1342 2 c-3
-8 -6 -5 -6 6 -1 11 2 17 5 13 3 -3 4 -12 1 -19z m-987 2 c0 -5 -5 -10 -11
-10 -5 0 -7 5 -4 10 3 6 8 10 11 10 2 0 4 -4 4 -10z m2187 -37 c-3 -10 -5 -2
-5 17 0 19 2 27 5 18 2 -10 2 -26 0 -35z m-2530 15 c-3 -8 -6 -5 -6 6 -1 11 2
17 5 13 3 -3 4 -12 1 -19z m2633 -32 c0 -3 -4 -8 -10 -11 -5 -3 -10 -1 -10 4
0 6 5 11 10 11 6 0 10 -2 10 -4z m-2646 -21 c-4 -8 -10 -15 -15 -15 -4 0 -6 7
-3 15 4 8 10 15 15 15 4 0 6 -7 3 -15z m2533 -7 c-3 -8 -6 -5 -6 6 -1 11 2 17
5 13 3 -3 4 -12 1 -19z m4898 -8 c3 -6 -1 -7 -9 -4 -18 7 -21 14 -7 14 6 0 13
-4 16 -10z m-7098 -22 c-3 -8 -6 -5 -6 6 -1 11 2 17 5 13 3 -3 4 -12 1 -19z
m973 2 c0 -5 -4 -10 -10 -10 -5 0 -10 5 -10 10 0 6 5 10 10 10 6 0 10 -4 10
-10z m330 0 c0 -5 -5 -10 -11 -10 -5 0 -7 5 -4 10 3 6 8 10 11 10 2 0 4 -4 4
-10z m-1660 -24 c0 -3 -4 -8 -10 -11 -5 -3 -10 -1 -10 4 0 6 5 11 10 11 6 0
10 -2 10 -4z m2590 -10 c0 -2 -8 -10 -17 -17 -16 -13 -17 -12 -4 4 13 16 21
21 21 13z m-2243 -58 c-3 -7 -5 -2 -5 12 0 14 2 19 5 13 2 -7 2 -19 0 -25z
m456 17 c-3 -9 -8 -14 -10 -11 -3 3 -2 9 2 15 9 16 15 13 8 -4z m-836 -17 c-3
-8 -6 -5 -6 6 -1 11 2 17 5 13 3 -3 4 -12 1 -19z m380 -40 c-3 -8 -6 -5 -6 6
-1 11 2 17 5 13 3 -3 4 -12 1 -19z m434 9 c-6 -8 -8 -17 -4 -20 3 -4 1 -7 -5
-7 -15 0 -15 13 0 28 16 16 23 15 9 -1z m494 -7 c3 -5 1 -10 -4 -10 -6 0 -11
5 -11 10 0 6 2 10 4 10 3 0 8 -4 11 -10z m-928 -57 c-3 -10 -5 -4 -5 12 0 17
2 24 5 18 2 -7 2 -21 0 -30z m-397 17 c0 -5 -5 -10 -11 -10 -5 0 -7 5 -4 10 3
6 8 10 11 10 2 0 4 -4 4 -10z m-23 -42 c-3 -8 -6 -5 -6 6 -1 11 2 17 5 13 3
-3 4 -12 1 -19z m833 8 c0 -3 -4 -8 -10 -11 -5 -3 -10 -1 -10 4 0 6 5 11 10
11 6 0 10 -2 10 -4z m500 0 c0 -3 -4 -8 -10 -11 -5 -3 -10 -1 -10 4 0 6 5 11
10 11 6 0 10 -2 10 -4z m313 -16 c-3 -11 -7 -20 -9 -20 -2 0 -4 9 -4 20 0 11
4 20 9 20 5 0 7 -9 4 -20z m6027 16 c0 -3 -4 -8 -10 -11 -5 -3 -10 -1 -10 4 0
6 5 11 10 11 6 0 10 -2 10 -4z m-7253 -58 c-2 -13 -4 -5 -4 17 -1 22 1 32 4
23 2 -10 2 -28 0 -40z m1200 -43 c0 -8 -4 -12 -9 -9 -4 3 -8 9 -8 15 0 5 4 9
8 9 5 0 9 -7 9 -15z m-1200 -32 c-3 -10 -5 -4 -5 12 0 17 2 24 5 18 2 -7 2
-21 0 -30z m369 11 c-4 -9 -9 -15 -11 -12 -3 3 -3 13 1 22 4 9 9 15 11 12 3
-3 3 -13 -1 -22z m501 -6 c-3 -8 -6 -5 -6 6 -1 11 2 17 5 13 3 -3 4 -12 1 -19z
m313 -43 c0 -8 -4 -15 -10 -15 -5 0 -7 7 -4 15 4 8 8 15 10 15 2 0 4 -7 4 -15z
m-838 -62 c-3 -16 -7 -22 -10 -15 -4 13 4 42 11 42 2 0 2 -12 -1 -27z m515 5
c-3 -8 -6 -5 -6 6 -1 11 2 17 5 13 3 -3 4 -12 1 -19z m-1337 -38 c0 -5 -5 -10
-11 -10 -5 0 -7 5 -4 10 3 6 8 10 11 10 2 0 4 -4 4 -10z m0 -24 c0 -3 -4 -8
-10 -11 -5 -3 -10 -1 -10 4 0 6 5 11 10 11 6 0 10 -2 10 -4z m1327 -18 c-3 -8
-6 -5 -6 6 -1 11 2 17 5 13 3 -3 4 -12 1 -19z m306 2 c-3 -11 -7 -20 -9 -20
-2 0 -4 9 -4 20 0 11 4 20 9 20 5 0 7 -9 4 -20z m-293 -24 c0 -3 -4 -8 -10
-11 -5 -3 -10 -1 -10 4 0 6 5 11 10 11 6 0 10 -2 10 -4z m-843 -48 c-3 -8 -6
-5 -6 6 -1 11 2 17 5 13 3 -3 4 -12 1 -19z m1120 -10 c-3 -7 -5 -2 -5 12 0 14
2 19 5 13 2 -7 2 -19 0 -25z m-1640 -25 c-3 -10 -5 -4 -5 12 0 17 2 24 5 18 2
-7 2 -21 0 -30z m1640 -40 c-3 -10 -5 -2 -5 17 0 19 2 27 5 18 2 -10 2 -26 0
-35z m6301 16 c-3 -8 -7 -3 -11 10 -4 17 -3 21 5 13 5 -5 8 -16 6 -23z m-7398
-5 c0 -8 -5 -12 -10 -9 -6 4 -8 11 -5 16 9 14 15 11 15 -7z m-547 -9 c4 -8 2
-17 -3 -20 -6 -4 -10 3 -10 14 0 25 6 27 13 6z m817 8 c0 -5 -5 -15 -10 -23
-8 -12 -10 -11 -10 8 0 12 5 22 10 22 6 0 10 -3 10 -7z m-260 -58 c0 -5 -5 -3
-10 5 -5 8 -10 20 -10 25 0 6 5 3 10 -5 5 -8 10 -19 10 -25z m807 -7 c-3 -7
-5 -2 -5 12 0 14 2 19 5 13 2 -7 2 -19 0 -25z m-1370 -15 c-3 -10 -5 -4 -5 12
0 17 2 24 5 18 2 -7 2 -21 0 -30z m813 -3 c0 -5 -2 -10 -4 -10 -3 0 -8 5 -11
10 -3 6 -1 10 4 10 6 0 11 -4 11 -10z m-810 -35 c0 -8 -2 -15 -4 -15 -2 0 -6
7 -10 15 -3 8 -1 15 4 15 6 0 10 -7 10 -15z m803 -5 c-3 -11 -7 -20 -9 -20 -2
0 -4 9 -4 20 0 11 4 20 9 20 5 0 7 -9 4 -20z m585 -55 c0 -16 -2 -15 -8 5 -4
14 -8 36 -8 50 0 22 1 22 8 -5 4 -16 8 -39 8 -50z m6607 65 c3 -5 1 -10 -4
-10 -6 0 -11 5 -11 10 0 6 2 10 4 10 3 0 8 -4 11 -10z m-7418 -22 c2 -18 0
-20 -7 -8 -12 18 -13 30 -2 30 4 0 9 -10 9 -22z m1070 -70 l0 -73 -6 65 c-6
59 -5 80 3 80 2 0 3 -33 3 -72z m2593 42 c0 -5 -5 -10 -11 -10 -5 0 -7 5 -4
10 3 6 8 10 11 10 2 0 4 -4 4 -10z m80 0 c0 -5 -2 -10 -4 -10 -3 0 -8 5 -11
10 -3 6 -1 10 4 10 6 0 11 -4 11 -10z m160 -20 c0 -5 -2 -10 -4 -10 -3 0 -8 5
-11 10 -3 6 -1 10 4 10 6 0 11 -4 11 -10z m-400 -10 c-8 -5 -19 -10 -25 -10
-5 0 -3 5 5 10 8 5 20 10 25 10 6 0 3 -5 -5 -10z m-3488 -22 c-7 -7 -12 -8
-12 -2 0 14 12 26 19 19 2 -3 -1 -11 -7 -17z m-605 -10 c-3 -8 -6 -5 -6 6 -1
11 2 17 5 13 3 -3 4 -12 1 -19z m1422 -20 c1 -5 -3 -8 -7 -8 -4 0 -8 12 -9 28
-1 23 -1 24 7 7 5 -11 9 -23 9 -27z m-606 -3 c-3 -9 -8 -14 -10 -11 -3 3 -2 9
2 15 9 16 15 13 8 -4z m7222 6 c3 -5 2 -12 -3 -15 -5 -3 -9 1 -9 9 0 17 3 19
12 6z m-4130 -21 c3 -5 1 -10 -4 -10 -6 0 -11 5 -11 10 0 6 2 10 4 10 3 0 8
-4 11 -10z m-2481 -22 c1 -7 5 -19 9 -25 5 -7 4 -13 -1 -13 -11 0 -22 24 -22
47 0 19 10 12 14 -9z m6614 -13 c-3 -3 -9 2 -12 12 -6 14 -5 15 5 6 7 -7 10
-15 7 -18z m-8036 -40 c-2 -14 -6 -25 -8 -25 -2 0 -4 11 -4 25 0 14 4 25 9 25
4 0 6 -11 3 -25z m653 15 c3 -5 1 -10 -4 -10 -6 0 -11 5 -11 10 0 6 2 10 4 10
3 0 8 -4 11 -10z m4169 -16 c3 -8 2 -12 -4 -9 -6 3 -10 10 -10 16 0 14 7 11
14 -7z m-4154 -8 c0 -3 -4 -8 -10 -11 -5 -3 -10 -1 -10 4 0 6 5 11 10 11 6 0
10 -2 10 -4z m785 -14 c-3 -3 -11 0 -18 7 -9 10 -8 11 6 5 10 -3 15 -9 12 -12z
m6595 3 c0 -8 -2 -15 -4 -15 -2 0 -6 7 -10 15 -3 8 -1 15 4 15 6 0 10 -7 10
-15z m-7233 -27 c-3 -7 -5 -2 -5 12 0 14 2 19 5 13 2 -7 2 -19 0 -25z m3199 5
c-10 -10 -46 -11 -46 -1 0 4 12 8 27 8 14 0 23 -3 19 -7z m59 -3 c-3 -5 -14
-10 -23 -9 -14 0 -13 2 3 9 27 11 27 11 20 0z m65 -9 c0 -5 -9 -7 -20 -4 -11
3 -20 7 -20 9 0 2 9 4 20 4 11 0 20 -4 20 -9z m-3453 -33 c-3 -8 -6 -5 -6 6
-1 11 2 17 5 13 3 -3 4 -12 1 -19z m3553 -2 c0 -2 -9 -2 -20 1 -11 3 -20 9
-20 15 0 5 9 4 20 -2 11 -6 20 -12 20 -14z m-4233 -33 c-3 -10 -5 -4 -5 12 0
17 2 24 5 18 2 -7 2 -21 0 -30z m700 12 c0 -8 -4 -12 -9 -9 -5 3 -6 10 -3 15
9 13 12 11 12 -6z m123 -1 c0 -8 -5 -12 -10 -9 -6 4 -8 11 -5 16 9 14 15 11
15 -7z m660 12 c0 -3 -4 -8 -10 -11 -5 -3 -10 -1 -10 4 0 6 5 11 10 11 6 0 10
-2 10 -4z m2270 0 c0 -3 -4 -8 -10 -11 -5 -3 -10 -1 -10 4 0 6 5 11 10 11 6 0
10 -2 10 -4z m-3743 -61 c0 -8 -4 -12 -9 -9 -5 3 -6 10 -3 15 9 13 12 11 12
-6z m1488 5 c-3 -5 -2 -10 3 -10 5 0 9 -7 9 -16 0 -14 -2 -14 -14 2 -16 22
-17 34 -2 34 5 0 7 -4 4 -10z m2122 -52 c-3 -7 -5 -2 -5 12 0 14 2 19 5 13 2
-7 2 -19 0 -25z m-3610 0 c-3 -8 -6 -5 -6 6 -1 11 2 17 5 13 3 -3 4 -12 1 -19z
m13 -28 c0 -5 -2 -10 -4 -10 -3 0 -8 5 -11 10 -3 6 -1 10 4 10 6 0 11 -4 11
-10z m4997 -12 c-3 -8 -6 -5 -6 6 -1 11 2 17 5 13 3 -3 4 -12 1 -19z m-4233
-4 c3 -8 2 -12 -4 -9 -6 3 -10 10 -10 16 0 14 7 11 14 -7z m2803 -26 c-3 -8
-6 -5 -6 6 -1 11 2 17 5 13 3 -3 4 -12 1 -19z m362 -12 c-2 -2 -17 -6 -34 -10
-22 -5 -26 -4 -15 4 14 9 59 15 49 6z m541 -10 c0 -3 -4 -8 -10 -11 -5 -3 -10
-1 -10 4 0 6 5 11 10 11 6 0 10 -2 10 -4z m-900 -20 c0 -3 -4 -8 -10 -11 -5
-3 -10 -1 -10 4 0 6 5 11 10 11 6 0 10 -2 10 -4z m1468 -37 c-3 -8 -7 -3 -11
10 -4 17 -3 21 5 13 5 -5 8 -16 6 -23z m-3298 -6 c0 -21 -3 -24 -9 -14 -5 8
-7 20 -4 28 8 21 13 15 13 -14z m2752 -8 c3 -14 2 -25 -2 -25 -4 0 -10 11 -12
25 -3 14 -2 25 2 25 4 0 10 -11 12 -25z m-2852 -15 c8 -5 11 -10 5 -10 -5 0
-17 5 -25 10 -8 5 -10 10 -5 10 6 0 17 -5 25 -10z m3420 6 c0 -3 -4 -8 -10
-11 -5 -3 -10 -1 -10 4 0 6 5 11 10 11 6 0 10 -2 10 -4z m-5033 -43 c-3 -10
-5 -4 -5 12 0 17 2 24 5 18 2 -7 2 -21 0 -30z m4043 13 c0 -3 -4 -8 -10 -11
-5 -3 -10 -1 -10 4 0 6 5 11 10 11 6 0 10 -2 10 -4z m427 -38 c-3 -7 -5 -2 -5
12 0 14 2 19 5 13 2 -7 2 -19 0 -25z m-2717 2 c0 -5 -5 -10 -11 -10 -5 0 -7 5
-4 10 3 6 8 10 11 10 2 0 4 -4 4 -10z m2290 6 c0 -3 -4 -8 -10 -11 -5 -3 -10
-1 -10 4 0 6 5 11 10 11 6 0 10 -2 10 -4z m-4020 -30 c0 -3 -4 -8 -10 -11 -5
-3 -10 -1 -10 4 0 6 5 11 10 11 6 0 10 -2 10 -4z m1657 -18 c-3 -8 -6 -5 -6 6
-1 11 2 17 5 13 3 -3 4 -12 1 -19z m103 -47 c-1 -13 -29 45 -29 59 0 8 6 0 14
-19 8 -18 15 -36 15 -40z m2240 54 c-7 -9 -15 -13 -19 -10 -3 3 1 10 9 15 21
14 24 12 10 -5z m1030 5 c0 -5 -2 -10 -4 -10 -3 0 -8 5 -11 10 -3 6 -1 10 4
10 6 0 11 -4 11 -10z m-1460 -4 c0 -3 -4 -8 -10 -11 -5 -3 -10 -1 -10 4 0 6 5
11 10 11 6 0 10 -2 10 -4z m1457 -38 c-3 -8 -6 -5 -6 6 -1 11 2 17 5 13 3 -3
4 -12 1 -19z m-1417 -8 c0 -5 -5 -10 -11 -10 -5 0 -7 5 -4 10 3 6 8 10 11 10
2 0 4 -4 4 -10z m837 -22 c-3 -8 -6 -5 -6 6 -1 11 2 17 5 13 3 -3 4 -12 1 -19z
m-4427 8 c0 -3 -4 -8 -10 -11 -5 -3 -10 -1 -10 4 0 6 5 11 10 11 6 0 10 -2 10
-4z m5020 -11 c0 -8 -2 -15 -4 -15 -2 0 -6 7 -10 15 -3 8 -1 15 4 15 6 0 10
-7 10 -15z m-1360 -10 c0 -2 -9 -3 -19 -2 -11 0 -18 5 -15 9 4 6 34 0 34 -7z
m257 9 c-3 -3 -12 -4 -19 -1 -8 3 -5 6 6 6 11 1 17 -2 13 -5z m-2173 -40 c3
-8 2 -12 -4 -9 -6 3 -10 10 -10 16 0 14 7 11 14 -7z m3273 -31 c-3 -10 -5 -2
-5 17 0 19 2 27 5 18 2 -10 2 -26 0 -35z m-606 -24 c-5 -13 -10 -19 -10 -12
-1 15 10 45 15 40 3 -2 0 -15 -5 -28z m-2561 -28 c0 -6 -5 -13 -12 -17 -6 -4
-8 -3 -4 4 3 5 0 13 -6 15 -8 3 -6 6 5 6 9 1 17 -3 17 -8z m3167 -23 c-3 -7
-5 -2 -5 12 0 14 2 19 5 13 2 -7 2 -19 0 -25z m-4953 -6 c3 -5 -1 -9 -9 -9 -8
0 -12 4 -9 9 3 4 7 8 9 8 2 0 6 -4 9 -8z m4943 -94 c-3 -8 -6 -5 -6 6 -1 11 2
17 5 13 3 -3 4 -12 1 -19z m-662 -9 c-4 -5 -12 -9 -18 -8 -9 0 -8 2 1 6 6 2 9
10 6 15 -4 7 -2 8 5 4 6 -4 9 -12 6 -17z m662 -24 c0 -8 -4 -15 -9 -15 -4 0
-8 7 -8 15 0 8 4 15 8 15 5 0 9 -7 9 -15z m-4877 1 c0 -3 -4 -8 -10 -11 -5 -3
-10 -1 -10 4 0 6 5 11 10 11 6 0 10 -2 10 -4z m1880 -11 c0 -12 -19 -12 -23 0
-4 9 -1 12 9 8 7 -3 14 -7 14 -8z m2300 -9 c0 -2 -8 -10 -17 -17 -16 -13 -17
-12 -4 4 13 16 21 21 21 13z m-36 -51 c-4 -8 -13 -15 -22 -15 -13 0 -12 3 4
15 24 18 25 18 18 0z m-2184 -15 c0 -5 -2 -10 -4 -10 -3 0 -8 5 -11 10 -3 6
-1 10 4 10 6 0 11 -4 11 -10z m70 -50 c0 -5 -4 -10 -10 -10 -5 0 -10 5 -10 10
0 6 5 10 10 10 6 0 10 -4 10 -10z m-2753 -72 c-3 -8 -6 -5 -6 6 -1 11 2 17 5
13 3 -3 4 -12 1 -19z m828 12 c3 -5 2 -10 -4 -10 -5 0 -13 5 -16 10 -3 6 -2
10 4 10 5 0 13 -4 16 -10z m3885 -10 c0 -5 -2 -10 -4 -10 -3 0 -8 5 -11 10 -3
6 -1 10 4 10 6 0 11 -4 11 -10z m-1812 -35 c-3 -3 -9 2 -12 12 -6 14 -5 15 5
6 7 -7 10 -15 7 -18z m1792 21 c0 -3 -4 -8 -10 -11 -5 -3 -10 -1 -10 4 0 6 5
11 10 11 6 0 10 -2 10 -4z m-1740 -38 c0 -7 -5 -6 -13 1 -8 6 -18 7 -22 3 -5
-4 -5 -2 -1 5 8 14 36 6 36 -9z m-2941 -63 c0 -5 -4 -3 -9 5 -5 8 -9 22 -9 30
0 16 17 -16 18 -35z m4522 12 c-10 -9 -11 -8 -5 6 3 10 9 15 12 12 3 -3 0 -11
-7 -18z m-1431 -1 c0 -3 -4 -8 -10 -11 -5 -3 -10 -1 -10 4 0 6 5 11 10 11 6 0
10 -2 10 -4z m1392 -3 c-6 -2 -10 -9 -6 -14 3 -5 0 -9 -5 -9 -12 0 -14 13 -4
23 3 4 11 7 17 6 6 0 5 -3 -2 -6z m-1322 -27 c0 -3 -4 -8 -10 -11 -5 -3 -10
-1 -10 4 0 6 5 11 10 11 6 0 10 -2 10 -4z m1210 -26 c0 -5 -8 -10 -17 -10 -15
0 -16 2 -3 10 19 12 20 12 20 0z m-70 -14 c0 -2 -7 -7 -16 -10 -8 -3 -12 -2
-9 4 6 10 25 14 25 6z m-3329 -23 c13 -15 12 -15 -8 -4 -24 12 -29 21 -14 21
5 0 15 -7 22 -17z m2364 7 c3 -6 -1 -7 -9 -4 -18 7 -21 14 -7 14 6 0 13 -4 16
-10z m85 -20 c0 -5 -5 -10 -11 -10 -5 0 -7 5 -4 10 3 6 8 10 11 10 2 0 4 -4 4
-10z m70 -10 c0 -5 -2 -10 -4 -10 -3 0 -8 5 -11 10 -3 6 -1 10 4 10 6 0 11 -4
11 -10z m657 4 c-3 -3 -12 -4 -19 -1 -8 3 -5 6 6 6 11 1 17 -2 13 -5z m-4117
-58 c0 -6 -7 -2 -15 8 -8 11 -15 25 -15 30 0 6 7 2 15 -8 8 -11 15 -25 15 -30z
m3547 38 c-3 -3 -12 -4 -19 -1 -8 3 -5 6 6 6 11 1 17 -2 13 -5z m182 -9 c2 -3
-19 -5 -47 -5 -28 0 -53 3 -56 8 -5 8 94 5 103 -3z m224 8 c-7 -2 -19 -2 -25
0 -7 3 -2 5 12 5 14 0 19 -2 13 -5z m1428 -36 c-10 -9 -11 -8 -5 6 3 10 9 15
12 12 3 -3 0 -11 -7 -18z m-37 -72 c-4 -8 -11 -15 -16 -15 -6 0 -5 6 2 15 7 8
14 15 16 15 2 0 1 -7 -2 -15z m-5317 -21 c-3 -3 -12 -4 -19 -1 -8 3 -5 6 6 6
11 1 17 -2 13 -5z m3 -24 c0 -5 -2 -10 -4 -10 -3 0 -8 5 -11 10 -3 6 -1 10 4
10 6 0 11 -4 11 -10z m10 -30 c0 -5 -5 -10 -11 -10 -5 0 -7 5 -4 10 3 6 8 10
11 10 2 0 4 -4 4 -10z m5250 -5 c0 -8 -4 -15 -10 -15 -5 0 -7 7 -4 15 4 8 8
15 10 15 2 0 4 -7 4 -15z m-30 -45 c0 -5 -5 -10 -11 -10 -5 0 -7 5 -4 10 3 6
8 10 11 10 2 0 4 -4 4 -10z m-5192 -25 c-3 -3 -9 2 -12 12 -6 14 -5 15 5 6 7
-7 10 -15 7 -18z m1207 -14 c6 -1 11 -7 13 -13 3 -10 1 -10 -5 -1 -4 6 -12 10
-17 10 -5 -1 -11 5 -13 13 -3 10 -2 11 4 3 4 -6 13 -12 18 -12z m-1187 -36
c-3 -3 -9 2 -12 12 -6 14 -5 15 5 6 7 -7 10 -15 7 -18z m429 3 c-3 -8 -6 -5
-6 6 -1 11 2 17 5 13 3 -3 4 -12 1 -19z m4648 -47 c3 -5 1 -12 -5 -16 -5 -3
-10 1 -10 9 0 18 6 21 15 7z m-4550 -39 c-3 -3 -11 0 -18 7 -9 10 -8 11 6 5
10 -3 15 -9 12 -12z m835 -2 c0 -5 -2 -10 -4 -10 -3 0 -8 5 -11 10 -3 6 -1 10
4 10 6 0 11 -4 11 -10z m2810 0 c0 -5 -5 -10 -11 -10 -5 0 -7 5 -4 10 3 6 8
10 11 10 2 0 4 -4 4 -10z m-4106 -36 c5 -14 4 -15 -9 -4 -17 14 -19 20 -6 20
5 0 12 -7 15 -16z m3989 -19 c-3 -9 -8 -14 -10 -11 -3 3 -2 9 2 15 9 16 15 13
8 -4z m-2459 -64 c4 -5 -3 -7 -14 -4 -23 6 -26 13 -6 13 8 0 17 -4 20 -9z
m-854 -21 c8 -5 11 -13 6 -17 -5 -4 -11 -2 -13 5 -3 6 -9 10 -14 6 -5 -3 -9 0
-9 5 0 13 10 14 30 1z m959 -25 c12 5 13 3 5 -5 -13 -13 -54 3 -54 21 0 6 7 3
16 -6 9 -9 24 -13 33 -10z m81 -35 c0 -5 -2 -10 -4 -10 -3 0 -8 5 -11 10 -3 6
-1 10 4 10 6 0 11 -4 11 -10z m1860 -12 c0 -6 -3 -8 -7 -5 -3 4 -13 1 -22 -6
-14 -11 -14 -10 -2 6 15 20 31 22 31 5z m170 -2 c0 -3 -4 -8 -10 -11 -5 -3
-10 -1 -10 4 0 6 5 11 10 11 6 0 10 -2 10 -4z m-237 -27 c-8 -8 -13 -7 -18 2
-5 8 -4 10 3 5 7 -4 12 -2 12 5 0 7 3 9 7 6 4 -4 2 -12 -4 -18z m1227 -13 c0
-3 -4 -8 -10 -11 -5 -3 -10 -1 -10 4 0 6 5 11 10 11 6 0 10 -2 10 -4z m-1405
-26 c3 -5 1 -10 -4 -10 -6 0 -11 5 -11 10 0 6 2 10 4 10 3 0 8 -4 11 -10z
m-2411 -26 c3 -8 2 -12 -4 -9 -6 3 -10 10 -10 16 0 14 7 11 14 -7z m2353 10
c-3 -3 -12 -4 -19 -1 -8 3 -5 6 6 6 11 1 17 -2 13 -5z m1408 -4 c3 -5 1 -10
-4 -10 -6 0 -11 5 -11 10 0 6 2 10 4 10 3 0 8 -4 11 -10z m-2598 -6 c-3 -3
-12 -4 -19 -1 -8 3 -5 6 6 6 11 1 17 -2 13 -5z m1038 -14 c-3 -5 -12 -10 -18
-10 -7 0 -6 4 3 10 19 12 23 12 15 0z m-2142 -14 c4 -10 1 -13 -8 -9 -8 3 -12
9 -9 14 7 12 11 11 17 -5z m1184 8 c-3 -3 -12 -4 -19 -1 -8 3 -5 6 6 6 11 1
17 -2 13 -5z m38 -4 c3 -5 2 -10 -4 -10 -5 0 -13 5 -16 10 -3 6 -2 10 4 10 5
0 13 -4 16 -10z m775 -10 c-8 -5 -19 -10 -25 -10 -5 0 -3 5 5 10 8 5 20 10 25
10 6 0 3 -5 -5 -10z m517 4 c-3 -3 -12 -4 -19 -1 -8 3 -5 6 6 6 11 1 17 -2 13
-5z m-3272 -14 c3 -5 -1 -10 -10 -10 -9 0 -13 5 -10 10 3 6 8 10 10 10 2 0 7
-4 10 -10z m2255 -6 c0 -8 -19 -13 -24 -6 -3 5 1 9 9 9 8 0 15 -2 15 -3z
m-1340 -44 c0 -5 5 -9 11 -7 6 1 12 -2 14 -8 1 -5 0 -7 -3 -2 -2 4 -7 5 -12 2
-4 -3 -13 2 -20 10 -9 10 -9 15 -1 15 6 0 11 -4 11 -10z m2120 -30 c0 -5 -2
-10 -4 -10 -3 0 -8 5 -11 10 -3 6 -1 10 4 10 6 0 11 -4 11 -10z m-2960 -6 c0
-8 -19 -13 -24 -6 -3 5 1 9 9 9 8 0 15 -2 15 -3z m1000 -24 c0 -5 -5 -10 -11
-10 -5 0 -7 5 -4 10 3 6 8 10 11 10 2 0 4 -4 4 -10z m1850 -10 c0 -5 -2 -10
-4 -10 -3 0 -8 5 -11 10 -3 6 -1 10 4 10 6 0 11 -4 11 -10z m1278 -20 c-7 -10
-14 -17 -17 -15 -4 4 18 35 25 35 2 0 -1 -9 -8 -20z m-1348 0 c-8 -5 -22 -9
-30 -9 -10 0 -8 3 5 9 27 12 43 12 25 0z m-80 -20 c0 -5 -4 -10 -10 -10 -5 0
-10 5 -10 10 0 6 5 10 10 10 6 0 10 -4 10 -10z m-2586 -46 c3 -8 2 -12 -4 -9
-6 3 -10 10 -10 16 0 14 7 11 14 -7z m1206 10 c0 -8 -19 -13 -24 -6 -3 5 1 9
9 9 8 0 15 -2 15 -3z m85 -24 c3 -5 1 -10 -4 -10 -6 0 -11 5 -11 10 0 6 2 10
4 10 3 0 8 -4 11 -10z m1025 0 c0 -5 -2 -10 -4 -10 -3 0 -8 5 -11 10 -3 6 -1
10 4 10 6 0 11 -4 11 -10z m-2280 -25 c14 -19 14 -19 -2 -6 -10 7 -18 18 -18
24 0 6 1 8 3 6 1 -2 9 -13 17 -24z m1384 6 c4 -5 -3 -7 -14 -4 -23 6 -26 13
-6 13 8 0 17 -4 20 -9z m2426 -15 c0 -2 -7 -7 -16 -10 -8 -3 -12 -2 -9 4 6 10
25 14 25 6z m-3705 -66 c3 -5 1 -10 -4 -10 -6 0 -11 5 -11 10 0 6 2 10 4 10 3
0 8 -4 11 -10z m3395 -110 c0 -5 -5 -10 -11 -10 -5 0 -7 5 -4 10 3 6 8 10 11
10 2 0 4 -4 4 -10z m-33 -22 c-3 -8 -6 -5 -6 6 -1 11 2 17 5 13 3 -3 4 -12 1
-19z m-3147 -18 c0 -5 -2 -10 -4 -10 -3 0 -8 5 -11 10 -3 6 -1 10 4 10 6 0 11
-4 11 -10z m3100 0 c0 -5 -5 -10 -11 -10 -5 0 -7 5 -4 10 3 6 8 10 11 10 2 0
4 -4 4 -10z m-3000 -60 c0 -5 -2 -10 -4 -10 -3 0 -8 5 -11 10 -3 6 -1 10 4 10
6 0 11 -4 11 -10z m170 -82 c0 -11 -12 -10 -30 2 -12 7 -10 9 8 7 12 0 22 -5
22 -9z m2400 -39 c0 -5 -4 -7 -10 -4 -5 3 -10 1 -10 -6 0 -7 -3 -10 -6 -6 -8
7 4 27 17 27 5 0 9 -5 9 -11z m-2190 -44 c11 -13 10 -14 -4 -9 -9 3 -16 10
-16 15 0 13 6 11 20 -6z m2040 -5 c-8 -5 -19 -10 -25 -10 -5 0 -3 5 5 10 8 5
20 10 25 10 6 0 3 -5 -5 -10z m-1915 -30 c3 -5 2 -10 -4 -10 -5 0 -13 5 -16
10 -3 6 -2 10 4 10 5 0 13 -4 16 -10z m1815 6 c0 -2 -7 -6 -15 -10 -8 -3 -15
-1 -15 4 0 6 7 10 15 10 8 0 15 -2 15 -4z m-1780 -10 c0 -3 -4 -8 -10 -11 -5
-3 -10 -1 -10 4 0 6 5 11 10 11 6 0 10 -2 10 -4z m40 -10 c0 -2 -9 -6 -20 -9
-11 -3 -18 -1 -14 4 5 9 34 13 34 5z m95 -36 c3 -5 1 -10 -4 -10 -6 0 -11 5
-11 10 0 6 2 10 4 10 3 0 8 -4 11 -10z m65 -4 c0 -3 -4 -8 -10 -11 -5 -3 -10
-1 -10 4 0 6 5 11 10 11 6 0 10 -2 10 -4z m1315 -6 c-27 -12 -43 -12 -25 0 8
5 22 9 30 9 10 0 8 -3 -5 -9z m-1244 -18 c-7 -2 -18 1 -23 6 -8 8 -4 9 13 5
13 -4 18 -8 10 -11z m1129 0 c0 -5 -7 -9 -15 -9 -8 0 -12 4 -9 9 3 4 9 8 15 8
5 0 9 -4 9 -8z m-113 -18 c-3 -3 -12 -4 -19 -1 -8 3 -5 6 6 6 11 1 17 -2 13
-5z m-824 -11 c-7 -2 -19 -2 -25 0 -7 3 -2 5 12 5 14 0 19 -2 13 -5z m744 1
c-3 -3 -12 -4 -19 -1 -8 3 -5 6 6 6 11 1 17 -2 13 -5z m-512 -14 c-3 -5 -14
-8 -25 -7 -24 2 -18 12 9 14 12 1 19 -2 16 -7z m73 -5 c2 -2 -10 -3 -27 -3
-17 1 -31 5 -31 9 0 7 50 2 58 -6z m132 5 c13 -8 13 -10 -2 -10 -9 0 -20 5
-23 10 -8 13 5 13 25 0z m170 0 c0 -5 -2 -10 -4 -10 -3 0 -8 5 -11 10 -3 6 -1
10 4 10 6 0 11 -4 11 -10z m-237 -7 c-7 -2 -19 -2 -25 0 -7 3 -2 5 12 5 14 0
19 -2 13 -5z"/>
<path d="M2572 5263 c-6 -10 -13 -36 -17 -58 -10 -61 -26 -108 -42 -127 -8 -9
-43 -31 -78 -48 -87 -43 -97 -56 -54 -73 81 -32 134 -51 140 -50 4 1 6 -3 5
-10 0 -7 7 -41 16 -77 10 -36 22 -84 28 -107 10 -40 31 -56 44 -34 3 5 13 44
21 88 24 124 29 131 112 169 44 20 73 40 73 49 0 9 -26 28 -64 45 -101 48
-118 73 -144 204 -9 44 -26 56 -40 29z m22 -19 c3 -8 2 -12 -4 -9 -6 3 -10 10
-10 16 0 14 7 11 14 -7z m-4 -48 c0 -3 -4 -8 -10 -11 -5 -3 -10 -1 -10 4 0 6
5 11 10 11 6 0 10 -2 10 -4z m12 -28 c-8 -8 -9 -4 -5 13 4 13 8 18 11 10 2 -7
-1 -18 -6 -23z m76 -148 c26 -16 53 -30 60 -30 6 0 12 -4 12 -9 0 -5 -8 -7
-17 -5 -32 8 -83 -34 -108 -89 -14 -28 -25 -63 -26 -77 0 -15 -6 -2 -15 30
-20 75 -42 102 -97 120 -53 17 -58 25 -22 34 39 10 90 61 105 106 l14 42 23
-46 c16 -31 39 -56 71 -76z m-208 6 c0 -3 -4 -8 -10 -11 -5 -3 -10 -1 -10 4 0
6 5 11 10 11 6 0 10 -2 10 -4z m261 -13 c13 -16 12 -17 -3 -4 -10 7 -18 15
-18 17 0 8 8 3 21 -13z m-344 -45 c-3 -8 -6 -5 -6 6 -1 11 2 17 5 13 3 -3 4
-12 1 -19z m337 -13 c-7 -16 -24 -21 -24 -6 0 8 7 13 27 20 1 1 0 -6 -3 -14z
m-224 -15 c0 -5 -5 -10 -11 -10 -5 0 -7 5 -4 10 3 6 8 10 11 10 2 0 4 -4 4
-10z m145 -70 c3 -5 1 -10 -4 -10 -6 0 -11 5 -11 10 0 6 2 10 4 10 3 0 8 -4
11 -10z m-77 -25 c-3 -3 -9 2 -12 12 -6 14 -5 15 5 6 7 -7 10 -15 7 -18z m-1
-37 c-3 -8 -6 -5 -6 6 -1 11 2 17 5 13 3 -3 4 -12 1 -19z m37 -119 c-6 -11
-24 -2 -24 11 0 5 7 7 15 4 8 -4 12 -10 9 -15z"/>
<path d="M3383 4568 c-27 -13 -29 -25 -5 -32 10 -3 6 -4 -8 -3 -22 2 -25 -2
-28 -35 -3 -29 2 -43 22 -63 54 -54 146 -17 146 60 0 67 -64 103 -127 73z m56
-7 c10 -7 7 -9 -12 -8 -14 1 -23 5 -20 10 6 9 15 9 32 -2z m12 -31 c22 -13 25
-52 5 -70 -39 -32 -89 17 -60 59 17 24 27 26 55 11z m43 -5 c3 -8 1 -15 -4
-15 -6 0 -10 7 -10 15 0 8 2 15 4 15 2 0 6 -7 10 -15z m2 -51 c-4 -9 -9 -15
-11 -12 -3 3 -3 13 1 22 4 9 9 15 11 12 3 -3 3 -13 -1 -22z"/>
<path d="M8039 8561 c-23 -23 -29 -38 -29 -71 0 -58 33 -90 94 -90 37 0 48 5
71 31 21 25 25 40 23 73 -2 30 -7 40 -18 38 -8 -2 -12 0 -7 4 15 16 -26 44
-65 44 -30 0 -46 -7 -69 -29z m91 15 c0 -2 -13 -6 -29 -8 -17 -2 -28 -1 -25 4
5 8 54 12 54 4z m6 -41 c12 -8 24 -12 27 -8 11 10 -12 -59 -24 -73 -17 -21
-66 -18 -79 5 -14 28 -12 52 7 73 20 22 41 23 69 3z m-102 -50 c3 -8 1 -15 -4
-15 -6 0 -10 7 -10 15 0 8 2 15 4 15 2 0 6 -7 10 -15z m156 -6 c0 -6 -4 -7
-10 -4 -5 3 -10 11 -10 16 0 6 5 7 10 4 6 -3 10 -11 10 -16z m-10 -23 c0 -2
-8 -10 -17 -17 -16 -13 -17 -12 -4 4 13 16 21 21 21 13z m-85 -44 c-3 -3 -11
0 -18 7 -9 10 -8 11 6 5 10 -3 15 -9 12 -12z"/>
<path d="M2610 8433 c-57 -21 -70 -96 -23 -133 53 -42 133 -7 133 57 0 58 -55
96 -110 76z m0 -17 c0 -2 -8 -10 -17 -17 -16 -13 -17 -12 -4 4 13 16 21 21 21
13z m43 -3 c-7 -2 -19 -2 -25 0 -7 3 -2 5 12 5 14 0 19 -2 13 -5z m32 -3 c3
-5 1 -10 -4 -10 -6 0 -11 5 -11 10 0 6 2 10 4 10 3 0 8 -4 11 -10z m-17 -22
c32 -32 -2 -79 -43 -60 -29 13 -33 46 -7 61 23 14 36 13 50 -1z m-85 -23 c-3
-9 -8 -14 -10 -11 -3 3 -2 9 2 15 9 16 15 13 8 -4z"/>
<path d="M1036 7728 c-3 -18 -8 -55 -11 -83 -9 -64 -23 -79 -101 -105 -35 -12
-64 -25 -64 -29 0 -18 28 -31 66 -31 68 0 85 -21 94 -119 5 -46 11 -86 14 -88
17 -17 34 13 45 80 15 95 28 112 93 127 95 22 115 45 51 55 -21 4 -59 13 -84
21 -50 16 -59 33 -59 109 0 85 -33 132 -44 63z m19 -48 c3 -5 1 -10 -4 -10 -6
0 -11 5 -11 10 0 6 2 10 4 10 3 0 8 -4 11 -10z m15 -27 c0 -3 -7 -11 -15 -19
-13 -14 -15 -13 -15 4 0 10 7 19 15 19 8 0 15 -2 15 -4z m34 -133 c8 0 18 -4
21 -10 3 -5 0 -7 -8 -4 -33 12 -76 -85 -44 -100 7 -4 6 -5 -3 -3 -8 2 -18 19
-21 38 -4 18 -19 43 -34 55 l-26 20 26 12 c14 6 25 19 25 28 0 13 6 11 25 -10
13 -14 31 -26 39 -26z m74 -15 c-3 -3 -9 2 -12 12 -6 14 -5 15 5 6 7 -7 10
-15 7 -18z m62 8 c0 -3 -9 -3 -20 0 -11 3 -20 0 -20 -6 0 -6 -3 -8 -6 -4 -12
11 6 25 26 20 11 -3 20 -8 20 -10z m-306 -11 c2 -4 -4 -9 -15 -9 -11 -1 -17 2
-14 8 7 11 22 12 29 1z m103 -119 c-3 -10 -5 -4 -5 12 0 17 2 24 5 18 2 -7 2
-21 0 -30z m23 -63 c0 -5 -2 -10 -4 -10 -3 0 -8 5 -11 10 -3 6 -1 10 4 10 6 0
11 -4 11 -10z"/>
<path d="M9302 7584 c-27 -19 -29 -64 -4 -87 43 -39 112 -8 112 50 0 25 -34
53 -65 53 -11 0 -31 -7 -43 -16z m26 -13 c-7 -11 -16 -17 -21 -14 -4 3 0 11
10 19 24 18 25 17 11 -5z m36 -36 c-3 -7 -14 -15 -25 -18 -10 -3 -17 -2 -16 1
2 4 7 15 10 24 4 10 12 15 21 12 8 -3 12 -12 10 -19z m-54 1 c0 -3 -4 -8 -10
-11 -5 -3 -10 -1 -10 4 0 6 5 11 10 11 6 0 10 -2 10 -4z m55 -35 c-9 -8 -36
-10 -30 -2 2 4 11 8 20 8 8 0 13 -3 10 -6z"/>
<path d="M6355 7534 c-16 -2 -82 -8 -145 -14 -145 -14 -382 -61 -547 -109
-138 -40 -373 -143 -521 -228 -94 -54 -192 -124 -187 -133 3 -6 0 -8 -7 -5
-18 7 -181 -123 -172 -137 4 -7 3 -8 -5 -4 -13 9 -147 -130 -145 -150 1 -8 -2
-12 -6 -9 -12 8 -53 -43 -45 -56 5 -7 4 -10 -3 -5 -14 9 -42 -32 -35 -53 4
-12 3 -13 -5 -3 -7 10 -18 1 -47 -39 -55 -76 -138 -237 -129 -250 4 -7 3 -9
-3 -6 -12 7 -66 -155 -89 -268 -20 -96 -15 -287 10 -380 18 -67 93 -225 127
-269 17 -21 24 -25 30 -14 7 10 9 11 9 0 0 -7 5 -10 12 -6 7 4 8 3 4 -5 -4 -6
-12 -9 -17 -6 -23 15 -6 -15 26 -43 40 -37 49 -40 42 -12 -3 12 -1 18 5 14 5
-3 8 -14 5 -24 -8 -31 104 -102 229 -145 144 -51 362 -44 500 16 70 29 43 43
-36 18 -39 -12 -108 -22 -175 -26 -134 -7 -236 11 -343 62 -41 19 -79 32 -85
28 -6 -3 -7 -1 -3 5 4 6 -12 24 -37 41 -107 73 -198 209 -249 371 -31 100 -33
306 -4 420 39 153 140 373 217 468 23 29 37 56 33 65 -3 8 -1 18 5 22 7 3 8 0
5 -9 -11 -28 4 -17 40 30 19 25 34 51 32 57 -1 7 -1 8 2 3 2 -4 37 25 78 65
40 40 70 77 67 82 -3 6 -2 7 3 4 6 -3 41 20 79 50 39 31 107 81 152 111 62 41
81 59 78 73 -2 11 0 17 6 14 5 -4 7 -11 4 -16 -4 -5 -2 -9 3 -9 17 0 22 13 9
29 -10 14 -10 14 5 3 14 -12 33 -5 135 47 142 72 251 117 398 165 109 35 291
79 370 90 22 2 69 9 105 15 432 67 930 18 1375 -135 104 -36 200 -66 212 -67
11 -1 19 -5 17 -8 -2 -4 20 -16 49 -28 28 -12 123 -59 211 -106 87 -47 163
-82 169 -78 6 3 7 1 3 -5 -4 -7 -3 -12 3 -12 5 0 11 3 14 8 2 4 2 1 1 -5 -5
-20 36 -38 48 -22 6 11 8 9 6 -6 -2 -14 2 -20 14 -19 10 1 15 -2 13 -7 -3 -4
16 -22 42 -40 78 -53 202 -148 301 -231 50 -43 94 -78 96 -78 3 0 6 6 9 13 2
6 3 5 2 -4 -3 -21 168 -193 181 -182 5 4 6 4 2 -1 -11 -13 10 -34 30 -31 9 1
11 0 5 -2 -17 -6 -16 -13 5 -32 26 -25 101 -110 161 -183 48 -60 80 -78 88
-52 1 5 -17 32 -42 59 -36 41 -43 45 -38 25 3 -14 3 -22 -1 -19 -4 4 -8 18 -9
32 -2 31 -94 140 -109 131 -7 -4 -8 -2 -4 5 16 25 -308 333 -509 482 -168 125
-163 123 -183 107 -15 -11 -16 -11 -4 3 11 14 6 21 -40 49 -29 18 -69 43 -88
56 -73 47 -314 164 -327 159 -9 -3 -11 0 -7 7 5 8 2 9 -10 5 -9 -4 -15 -3 -11
2 3 5 -59 35 -137 65 -354 139 -704 206 -1093 211 -110 1 -213 1 -230 -1z
m245 -14 c0 -5 -7 -7 -15 -4 -8 4 -15 8 -15 10 0 2 7 4 15 4 8 0 15 -4 15 -10z
m-223 -6 c-3 -3 -12 -4 -19 -1 -8 3 -5 6 6 6 11 1 17 -2 13 -5z m413 -4 c0 -5
-5 -10 -11 -10 -5 0 -7 5 -4 10 3 6 8 10 11 10 2 0 4 -4 4 -10z m-565 -10 c-3
-5 -14 -10 -23 -9 -14 0 -13 2 3 9 27 11 27 11 20 0z m625 6 c0 -3 -4 -8 -10
-11 -5 -3 -10 -1 -10 4 0 6 5 11 10 11 6 0 10 -2 10 -4z m50 -6 c0 -5 -5 -10
-11 -10 -5 0 -7 5 -4 10 3 6 8 10 11 10 2 0 4 -4 4 -10z m-837 -27 c-7 -2 -21
-2 -30 0 -10 3 -4 5 12 5 17 0 24 -2 18 -5z m1137 -23 c0 -5 -2 -10 -4 -10 -3
0 -8 5 -11 10 -3 6 -1 10 4 10 6 0 11 -4 11 -10z m-1590 -80 c0 -5 -5 -10 -11
-10 -5 0 -7 5 -4 10 3 6 8 10 11 10 2 0 4 -4 4 -10z m2060 -60 c0 -5 -5 -10
-11 -10 -5 0 -7 5 -4 10 3 6 8 10 11 10 2 0 4 -4 4 -10z m-2250 -20 c0 -5 -5
-10 -11 -10 -5 0 -7 5 -4 10 3 6 8 10 11 10 2 0 4 -4 4 -10z m-233 -105 c0 -8
-4 -12 -9 -9 -5 3 -6 10 -3 15 9 13 12 11 12 -6z m2813 -19 c0 -3 -4 -8 -10
-11 -5 -3 -10 -1 -10 4 0 6 5 11 10 11 6 0 10 -2 10 -4z m134 -82 c3 -8 2 -12
-4 -9 -6 3 -10 10 -10 16 0 14 7 11 14 -7z m-3109 -4 c3 -5 1 -10 -4 -10 -6 0
-11 5 -11 10 0 6 2 10 4 10 3 0 8 -4 11 -10z m3335 -141 c0 -5 5 -7 12 -3 7 4
8 3 4 -5 -6 -9 -11 -9 -22 0 -17 14 -18 19 -4 19 6 0 10 -5 10 -11z m57 -35
c-3 -3 -12 -4 -19 -1 -8 3 -5 6 6 6 11 1 17 -2 13 -5z m-3657 -28 c0 -3 -4 -8
-10 -11 -5 -3 -10 -1 -10 4 0 6 5 11 10 11 6 0 10 -2 10 -4z m3715 -15 c3 -5
2 -12 -3 -15 -5 -3 -9 1 -9 9 0 17 3 19 12 6z m-3802 -76 c-3 -9 -8 -14 -10
-11 -3 3 -2 9 2 15 9 16 15 13 8 -4z m3944 -47 c-3 -8 -6 -5 -6 6 -1 11 2 17
5 13 3 -3 4 -12 1 -19z m-4202 -328 c-3 -5 -12 -10 -18 -10 -7 0 -6 4 3 10 19
12 23 12 15 0z m4643 -105 c-3 -3 -9 2 -12 12 -6 14 -5 15 5 6 7 -7 10 -15 7
-18z m-4709 -29 c-9 -8 -10 -7 -5 7 3 10 7 24 7 30 1 7 3 4 6 -7 3 -10 -1 -23
-8 -30z m-32 -92 c-6 -20 -13 -32 -14 -27 -4 11 14 63 21 63 2 0 -1 -16 -7
-36z m-35 -166 c-8 -8 -9 -4 -5 13 4 13 8 18 11 10 2 -7 -1 -18 -6 -23z m-10
-54 c-9 -16 -10 -14 -9 8 1 15 6 23 11 18 4 -4 4 -16 -2 -26z m8 -28 c0 -3 -4
-8 -10 -11 -5 -3 -10 -1 -10 4 0 6 5 11 10 11 6 0 10 -2 10 -4z m0 -96 c0 -5
-5 -10 -11 -10 -5 0 -7 5 -4 10 3 6 8 10 11 10 2 0 4 -4 4 -10z m-3 -52 c-3
-7 -5 -2 -5 12 0 14 2 19 5 13 2 -7 2 -19 0 -25z m13 -32 c0 -3 -4 -8 -10 -11
-5 -3 -10 -1 -10 4 0 6 5 11 10 11 6 0 10 -2 10 -4z m102 -276 c6 0 8 -3 5 -6
-10 -11 -38 17 -30 30 5 7 9 5 11 -6 2 -10 8 -18 14 -18z m176 -195 c-3 -3 -9
2 -12 12 -6 14 -5 15 5 6 7 -7 10 -15 7 -18z m267 -113 c-3 -3 -11 0 -18 7 -9
10 -8 11 6 5 10 -3 15 -9 12 -12z m75 -6 c0 -3 -4 -8 -10 -11 -5 -3 -10 -1
-10 4 0 6 5 11 10 11 6 0 10 -2 10 -4z m97 -12 c-3 -3 -12 -4 -19 -1 -8 3 -5
6 6 6 11 1 17 -2 13 -5z"/>
<path d="M6020 6973 c-77 -8 -280 -45 -375 -69 -122 -30 -182 -52 -299 -109
-158 -76 -375 -232 -359 -257 3 -6 1 -8 -4 -5 -6 4 -30 -15 -54 -41 -172 -185
-260 -419 -229 -610 20 -125 76 -242 117 -242 7 0 13 2 13 4 0 2 7 39 15 83
16 84 51 182 85 241 17 28 19 37 8 44 -10 7 -9 9 4 5 11 -4 23 4 36 26 10 18
41 56 68 86 26 29 49 60 50 68 2 8 6 18 10 21 4 4 4 -1 1 -10 -9 -26 -1 -23
49 19 34 27 42 39 32 46 -10 6 -8 7 4 3 10 -3 45 12 85 36 317 193 754 250
1132 147 41 -11 81 -17 88 -15 8 3 12 2 9 -2 -3 -5 20 -17 51 -26 102 -33 353
-159 396 -199 6 -7 36 -31 66 -55 99 -78 195 -177 275 -285 25 -32 31 -35 45
-25 14 11 14 11 3 -4 -11 -14 -7 -25 24 -75 83 -129 188 -411 219 -588 48
-275 43 -551 -16 -850 -54 -271 -148 -563 -242 -753 -35 -71 -39 -85 -27 -93
12 -9 12 -10 -2 -5 -13 4 -23 -5 -38 -34 -11 -22 -45 -83 -76 -136 -44 -76
-53 -99 -42 -106 10 -7 9 -8 -4 -6 -21 4 -189 -246 -181 -271 4 -12 2 -13 -4
-3 -8 10 -12 10 -22 -2 -7 -8 -9 -21 -5 -27 4 -7 3 -9 -3 -6 -12 7 -78 -71
-78 -93 -1 -8 -6 -14 -11 -13 -6 1 -28 -16 -49 -37 -34 -35 -37 -41 -24 -57
12 -16 12 -17 -2 -6 -13 10 -33 -5 -127 -100 -62 -62 -109 -117 -105 -122 4
-4 3 -5 -3 -2 -6 3 -38 -18 -73 -48 -34 -30 -77 -66 -96 -81 -19 -14 -32 -31
-28 -37 3 -5 2 -7 -4 -4 -6 4 -46 -19 -89 -51 -480 -350 -1099 -595 -1704
-676 -144 -19 -360 -16 -360 6 0 10 103 59 220 106 210 83 557 253 553 271 -2
6 3 8 10 6 16 -7 143 69 140 83 -2 6 3 9 10 7 18 -7 230 133 221 147 -4 7 -3
8 4 4 6 -4 34 10 62 30 50 36 63 51 34 40 -9 -3 -12 -2 -9 5 4 6 14 8 22 5 41
-16 469 375 666 608 51 59 91 114 91 122 -1 8 2 12 6 9 25 -16 291 379 274
406 -4 8 -3 9 5 5 13 -8 56 80 116 239 70 185 56 240 -34 137 -39 -44 -49 -63
-45 -82 3 -18 2 -20 -4 -7 -7 17 -9 16 -30 -6 -12 -13 -21 -30 -19 -38 2 -8 2
-11 0 -7 -2 4 -62 -51 -133 -121 -71 -71 -176 -170 -234 -221 -92 -80 -105
-95 -94 -109 11 -14 11 -14 -3 -3 -14 11 -32 0 -124 -74 -60 -47 -118 -92
-131 -100 -12 -8 -21 -23 -19 -32 1 -9 0 -11 -2 -4 -3 6 -6 12 -9 12 -2 0 -50
-31 -107 -69 -156 -104 -204 -134 -312 -197 -152 -87 -445 -234 -585 -293 -69
-29 -134 -56 -145 -61 -11 -5 -83 -30 -160 -55 -439 -145 -817 -214 -1283
-234 -158 -7 -208 -13 -228 -25 -28 -19 -29 -27 -9 -66 17 -33 50 -54 67 -44
7 4 8 3 4 -4 -9 -15 36 -38 167 -83 108 -37 141 -40 135 -11 -2 9 -41 27 -104
47 -55 18 -116 40 -135 50 -44 22 -99 64 -99 74 0 5 53 11 118 15 64 4 162 9
217 12 454 24 933 132 1395 315 176 70 455 203 453 217 -2 6 3 9 10 6 14 -5
87 33 284 150 93 55 130 82 128 94 -1 9 0 11 2 5 3 -7 7 -13 9 -13 13 0 149
103 146 112 -1 5 2 7 8 3 14 -9 102 54 94 67 -4 7 -2 8 5 4 15 -9 93 52 85 66
-4 6 -2 8 4 5 11 -8 79 43 192 143 41 37 87 77 102 90 15 13 25 28 21 33 -3 6
-1 7 5 3 6 -4 64 46 134 114 102 99 120 121 108 131 -13 9 -12 10 2 5 13 -4
32 12 68 56 27 34 56 76 65 93 8 16 15 23 15 15 0 -29 -108 -280 -160 -369
-28 -51 -48 -96 -44 -102 4 -7 3 -9 -3 -6 -6 4 -27 -19 -48 -51 -44 -67 -118
-164 -158 -207 -15 -16 -25 -36 -22 -42 2 -7 0 -12 -5 -10 -5 1 -28 -20 -51
-48 -22 -27 -105 -117 -183 -199 -77 -82 -140 -153 -138 -158 1 -5 -2 -7 -6
-4 -12 7 -44 -28 -35 -39 5 -4 3 -5 -4 -2 -6 4 -40 -18 -77 -49 -50 -43 -64
-60 -56 -69 8 -10 8 -15 -1 -21 -7 -4 -9 -3 -5 4 3 6 2 13 -4 17 -5 3 -54 -29
-108 -73 -287 -233 -647 -441 -1067 -617 -284 -119 -305 -131 -305 -166 0 -11
14 -26 33 -36 67 -37 407 -19 642 34 269 60 591 158 728 222 37 17 70 31 74
31 3 0 62 27 129 60 101 49 122 63 118 77 -5 14 -4 15 4 4 8 -11 31 -1 118 49
59 34 151 91 203 128 157 108 152 103 138 121 -10 14 -10 14 4 4 12 -10 20 -9
38 3 19 13 20 18 9 32 -11 15 -11 15 3 4 13 -10 21 -9 42 8 17 13 24 27 21 38
-5 14 -4 14 4 3 9 -12 27 0 99 64 121 108 129 118 115 123 -7 2 -12 9 -12 15
0 8 4 7 12 -1 15 -15 57 21 53 46 -1 9 0 11 2 5 3 -7 9 -13 15 -13 5 0 7 7 4
16 -3 8 -2 13 3 9 5 -3 37 25 70 62 50 56 58 69 48 82 -10 14 -10 14 3 4 13
-10 23 -4 56 35 63 74 157 201 204 275 35 56 40 71 29 79 -11 8 -11 9 3 4 13
-4 28 14 63 75 41 69 45 82 34 97 -12 15 -12 16 2 4 19 -15 33 5 117 173 102
205 166 382 239 660 75 287 100 701 59 967 -42 268 -153 558 -286 746 -65 93
-189 224 -203 215 -5 -3 -7 -1 -4 4 11 18 -58 72 -85 67 -18 -3 -19 -3 -5 4
17 7 16 9 -7 31 -14 14 -30 20 -37 16 -7 -5 -10 -4 -5 3 6 9 -27 35 -129 100
-39 24 -201 100 -280 130 -457 174 -1016 122 -1388 -130 -101 -68 -195 -156
-248 -231 -69 -97 -126 -218 -141 -299 -7 -38 -16 -68 -20 -68 -11 0 -46 104
-59 176 -26 148 40 346 169 507 12 16 19 34 16 39 -4 6 -3 8 3 5 13 -8 136
117 126 128 -4 4 -2 5 5 1 16 -10 44 12 35 28 -3 6 -3 8 2 4 4 -4 40 15 80 42
74 50 264 150 285 150 6 0 24 7 39 15 68 35 325 92 496 110 184 20 511 13 674
-15 130 -21 280 -57 391 -92 136 -43 410 -164 520 -231 103 -62 213 -137 277
-189 40 -33 78 -56 83 -53 6 4 7 11 4 17 -4 7 -2 8 4 4 7 -4 12 -4 12 1 -1 11
-144 123 -226 176 -122 78 -254 148 -266 141 -6 -4 -8 -3 -5 3 8 13 -121 76
-140 69 -8 -3 -12 -2 -8 3 9 15 -207 92 -390 141 -228 60 -420 82 -693 78 -98
-1 -193 -3 -212 -5z m140 -19 c0 -2 -9 -4 -21 -4 -11 0 -18 4 -14 10 5 8 35 3
35 -6z m205 6 c3 -5 1 -10 -4 -10 -6 0 -11 5 -11 10 0 6 2 10 4 10 3 0 8 -4
11 -10z m-385 -10 c0 -5 -5 -10 -11 -10 -5 0 -7 5 -4 10 3 6 8 10 11 10 2 0 4
-4 4 -10z m645 -18 c-3 -3 -11 0 -18 7 -9 10 -8 11 6 5 10 -3 15 -9 12 -12z
m82 -8 c-3 -3 -12 -4 -19 -1 -8 3 -5 6 6 6 11 1 17 -2 13 -5z m38 -4 c3 -5 2
-10 -4 -10 -5 0 -13 5 -16 10 -3 6 -2 10 4 10 5 0 13 -4 16 -10z m-965 -10 c0
-5 -4 -10 -10 -10 -5 0 -10 5 -10 10 0 6 5 10 10 10 6 0 10 -4 10 -10z m1060
-10 c0 -5 -2 -10 -4 -10 -3 0 -8 5 -11 10 -3 6 -1 10 4 10 6 0 11 -4 11 -10z
m-1260 -35 c-7 -9 -15 -13 -19 -10 -3 3 1 10 9 15 21 14 24 12 10 -5z m1587
-67 c-3 -8 -6 -5 -6 6 -1 11 2 17 5 13 3 -3 4 -12 1 -19z m43 -8 c8 -5 11 -10
5 -10 -5 0 -17 5 -25 10 -8 5 -10 10 -5 10 6 0 17 -5 25 -10z m-1830 -10 c0
-5 -2 -10 -4 -10 -3 0 -8 5 -11 10 -3 6 -1 10 4 10 6 0 11 -4 11 -10z m1890
-4 c0 -3 -4 -8 -10 -11 -5 -3 -10 -1 -10 4 0 6 5 11 10 11 6 0 10 -2 10 -4z
m94 -52 c3 -8 2 -12 -4 -9 -6 3 -10 10 -10 16 0 14 7 11 14 -7z m30 -10 c3 -8
2 -12 -4 -9 -6 3 -10 10 -10 16 0 14 7 11 14 -7z m36 -8 c0 -3 -4 -8 -10 -11
-5 -3 -10 -1 -10 4 0 6 5 11 10 11 6 0 10 -2 10 -4z m-2245 -25 c3 -5 1 -12
-5 -16 -5 -3 -10 1 -10 9 0 18 6 21 15 7z m785 -157 c0 -2 -16 -4 -35 -4 -19
0 -35 4 -35 8 0 4 16 6 35 4 19 -2 35 -6 35 -8z m70 6 c0 -5 -5 -10 -11 -10
-5 0 -7 5 -4 10 3 6 8 10 11 10 2 0 4 -4 4 -10z m65 0 c3 -5 -1 -10 -9 -10 -9
0 -16 5 -16 10 0 6 4 10 9 10 6 0 13 -4 16 -10z m142 -16 c-3 -3 -12 -4 -19
-1 -8 3 -5 6 6 6 11 1 17 -2 13 -5z m-1277 -14 c0 -5 -5 -10 -11 -10 -5 0 -7
5 -4 10 3 6 8 10 11 10 2 0 4 -4 4 -10z m787 4 c-3 -3 -12 -4 -19 -1 -8 3 -5
6 6 6 11 1 17 -2 13 -5z m-44 -11 c-7 -2 -21 -2 -30 0 -10 3 -4 5 12 5 17 0
24 -2 18 -5z m644 1 c-3 -3 -12 -4 -19 -1 -8 3 -5 6 6 6 11 1 17 -2 13 -5z
m368 -124 c3 -6 -1 -7 -9 -4 -18 7 -21 14 -7 14 6 0 13 -4 16 -10z m86 -30
c10 -6 19 -16 19 -23 0 -8 -3 -9 -8 -1 -4 6 -16 16 -27 22 -25 14 -11 16 16 2z
m-1541 -10 c0 -5 -2 -10 -4 -10 -3 0 -8 5 -11 10 -3 6 -1 10 4 10 6 0 11 -4
11 -10z m-30 -20 c0 -5 -8 -10 -17 -10 -15 0 -16 2 -3 10 19 12 20 12 20 0z
m1620 0 c0 -5 -2 -10 -4 -10 -3 0 -8 5 -11 10 -3 6 -1 10 4 10 6 0 11 -4 11
-10z m44 -36 c3 -8 2 -12 -4 -9 -6 3 -10 10 -10 16 0 14 7 11 14 -7z m123 -80
c-3 -3 -12 -4 -19 -1 -8 3 -5 6 6 6 11 1 17 -2 13 -5z m-2022 -84 c3 -5 1 -10
-4 -10 -6 0 -11 5 -11 10 0 6 2 10 4 10 3 0 8 -4 11 -10z m-40 -50 c3 -5 1
-10 -4 -10 -6 0 -11 5 -11 10 0 6 2 10 4 10 3 0 8 -4 11 -10z m-243 -55 c-6
-34 -12 -32 -12 6 0 16 4 28 9 25 4 -3 6 -17 3 -31z m2538 -41 c0 -8 -5 -12
-10 -9 -6 4 -8 11 -5 16 9 14 15 11 15 -7z m-2350 -4 c0 -5 -5 -10 -11 -10 -5
0 -7 5 -4 10 3 6 8 10 11 10 2 0 4 -4 4 -10z m-193 -57 c-3 -10 -5 -4 -5 12 0
17 2 24 5 18 2 -7 2 -21 0 -30z m166 22 c-3 -9 -8 -14 -10 -11 -3 3 -2 9 2 15
9 16 15 13 8 -4z m2422 -4 c3 -5 2 -12 -3 -15 -5 -3 -9 1 -9 9 0 17 3 19 12 6z
m-2433 -39 c-7 -2 -10 -8 -6 -13 3 -5 0 -9 -5 -9 -13 0 -13 3 -5 24 3 9 11 13
17 9 8 -5 7 -8 -1 -11z m2448 8 c0 -5 -5 -10 -11 -10 -5 0 -7 5 -4 10 3 6 8
10 11 10 2 0 4 -4 4 -10z m-2590 -20 c0 -5 -5 -10 -11 -10 -5 0 -7 5 -4 10 3
6 8 10 11 10 2 0 4 -4 4 -10z m2643 -45 c4 -8 1 -17 -5 -21 -7 -4 -8 -3 -4 4
4 7 2 12 -4 12 -6 0 -8 5 -5 10 8 14 12 13 18 -5z m-2633 -22 c1 -5 7 -17 13
-28 9 -18 9 -19 -7 -6 -9 8 -15 20 -12 27 3 7 2 14 -2 17 -4 2 -4 2 -1 0 4 -1
8 -6 9 -10z m28 -80 c1 -24 0 -25 -9 -10 -5 9 -7 22 -4 27 9 15 10 13 13 -17z
m59 5 c-3 -8 -6 -5 -6 6 -1 11 2 17 5 13 3 -3 4 -12 1 -19z m-10 -40 c0 -13
-1 -17 -4 -10 -3 6 -10 9 -16 5 -7 -4 -6 1 2 10 17 21 17 21 18 -5z m2630 -30
c-3 -7 -5 -2 -5 12 0 14 2 19 5 13 2 -7 2 -19 0 -25z m14 -21 c-10 -9 -11 -8
-5 6 3 10 9 15 12 12 3 -3 0 -11 -7 -18z m39 -70 c0 -4 -6 -2 -14 5 -8 7 -12
17 -9 22 5 8 23 -12 23 -27z m57 -199 c-3 -8 -6 -5 -6 6 -1 11 2 17 5 13 3 -3
4 -12 1 -19z m17 -33 c-4 -8 -8 -15 -10 -15 -2 0 -4 7 -4 15 0 8 4 15 10 15 5
0 7 -7 4 -15z m26 -59 c0 -3 -4 -8 -10 -11 -5 -3 -10 -1 -10 4 0 6 5 11 10 11
6 0 10 -2 10 -4z m10 -60 c0 -3 -4 -8 -10 -11 -5 -3 -10 -1 -10 4 0 6 5 11 10
11 6 0 10 -2 10 -4z m19 -136 c0 -9 -4 -8 -9 5 -5 11 -9 27 -9 35 0 9 4 8 9
-5 5 -11 9 -27 9 -35z m9 -88 c4 -35 -5 -25 -12 12 -3 16 -2 25 1 22 4 -4 9
-19 11 -34z m-1 -124 c-3 -7 -5 -2 -5 12 0 14 2 19 5 13 2 -7 2 -19 0 -25z m0
-60 c-3 -8 -6 -5 -6 6 -1 11 2 17 5 13 3 -3 4 -12 1 -19z m0 -60 c-3 -8 -6 -5
-6 6 -1 11 2 17 5 13 3 -3 4 -12 1 -19z m3 -112 c0 -3 -4 -8 -10 -11 -5 -3
-10 -1 -10 4 0 6 5 11 10 11 6 0 10 -2 10 -4z m-7 -41 c4 -8 3 -16 -1 -19 -4
-3 -9 4 -9 15 -2 23 3 25 10 4z m-6 -67 c-3 -7 -5 -2 -5 12 0 14 2 19 5 13 2
-7 2 -19 0 -25z m-20 -100 c-3 -7 -5 -2 -5 12 0 14 2 19 5 13 2 -7 2 -19 0
-25z m-2 -58 c3 -5 1 -10 -4 -10 -6 0 -11 5 -11 10 0 6 2 10 4 10 3 0 8 -4 11
-10z m-10 -30 c3 -5 1 -10 -4 -10 -6 0 -11 5 -11 10 0 6 2 10 4 10 3 0 8 -4
11 -10z m-5 -55 c0 -8 -4 -15 -10 -15 -5 0 -7 7 -4 15 4 8 8 15 10 15 2 0 4
-7 4 -15z m-37 -140 c-3 -9 -8 -14 -10 -11 -3 3 -2 9 2 15 9 16 15 13 8 -4z
m-16 -78 c0 -8 -6 -14 -14 -14 -9 0 -10 4 -2 14 6 7 12 13 14 13 1 0 2 -6 2
-13z m-26 -68 c-5 -13 -10 -19 -10 -12 -1 15 10 45 15 40 3 -2 0 -15 -5 -28z
m-13 -74 c-3 -3 -9 2 -12 12 -6 14 -5 15 5 6 7 -7 10 -15 7 -18z m-58 -169 c0
-2 -7 -7 -16 -10 -8 -3 -12 -2 -9 4 6 10 25 14 25 6z m-840 -36 c0 -5 -5 -10
-11 -10 -5 0 -7 5 -4 10 3 6 8 10 11 10 2 0 4 -4 4 -10z m-107 -35 c-3 -9 -8
-14 -10 -11 -3 3 -2 9 2 15 9 16 15 13 8 -4z m84 -20 c0 -8 -4 -15 -9 -15 -10
0 -11 14 -1 23 9 10 10 9 10 -8z m813 -19 c0 -3 -4 -8 -10 -11 -5 -3 -10 -1
-10 4 0 6 5 11 10 11 6 0 10 -2 10 -4z m-49 -89 c-6 -8 -7 -18 -3 -22 4 -5 2
-5 -5 -1 -14 8 -6 36 9 36 7 0 6 -5 -1 -13z m-1000 -40 c-10 -9 -11 -8 -5 6 3
10 9 15 12 12 3 -3 0 -11 -7 -18z m179 -6 c0 -5 -7 -14 -15 -21 -10 -9 -15 -9
-15 -1 0 6 5 11 11 11 5 0 7 5 4 10 -3 6 -1 10 4 10 6 0 11 -4 11 -9z m-230
-45 c0 -2 -7 -9 -15 -16 -13 -11 -14 -10 -9 4 5 14 24 23 24 12z m-50 -51 c-7
-9 -15 -13 -19 -10 -3 3 1 10 9 15 21 14 24 12 10 -5z m1010 -45 c0 -5 -5 -10
-11 -10 -5 0 -7 5 -4 10 3 6 8 10 11 10 2 0 4 -4 4 -10z m-1077 -15 c-3 -9 -8
-14 -10 -11 -3 3 -2 9 2 15 9 16 15 13 8 -4z m1001 -120 c-4 -8 -11 -15 -16
-15 -6 0 -5 6 2 15 7 8 14 15 16 15 2 0 1 -7 -2 -15z m-857 -57 c-3 -8 -6 -5
-6 6 -1 11 2 17 5 13 3 -3 4 -12 1 -19z m-401 -50 c-18 -26 -22 -17 -5 14 6
11 13 17 16 15 3 -3 -2 -16 -11 -29z m380 20 c4 -6 3 -8 -3 -5 -6 4 -13 -2
-16 -13 -3 -11 -11 -20 -19 -20 -8 0 -9 3 -2 8 6 4 13 15 17 25 7 20 13 21 23
5z m-81 -97 c3 -5 2 -12 -3 -15 -5 -3 -9 1 -9 9 0 17 3 19 12 6z m845 -5 c0
-2 -7 -7 -16 -10 -8 -3 -12 -2 -9 4 6 10 25 14 25 6z m-1290 -26 c0 -5 -2 -10
-4 -10 -3 0 -8 5 -11 10 -3 6 -1 10 4 10 6 0 11 -4 11 -10z m-180 -114 c0 -2
-12 -11 -27 -20 l-28 -17 24 20 c23 21 31 25 31 17z m490 -31 c-7 -8 -18 -15
-24 -15 -6 0 -3 7 7 14 9 7 17 19 18 27 0 11 2 11 6 1 3 -7 -1 -19 -7 -27z
m-100 -105 c-6 -11 -12 -20 -14 -20 -2 0 -2 9 1 20 3 11 9 20 15 20 5 0 4 -9
-2 -20z m-635 -19 c3 -5 2 -12 -3 -15 -5 -3 -9 1 -9 9 0 17 3 19 12 6z m585
-21 c0 -5 -5 -10 -11 -10 -5 0 -7 5 -4 10 3 6 8 10 11 10 2 0 4 -4 4 -10z
m-685 -39 c3 -5 1 -12 -5 -16 -5 -3 -10 1 -10 9 0 18 6 21 15 7z m-28 -23 c-3
-8 -6 -5 -6 6 -1 11 2 17 5 13 3 -3 4 -12 1 -19z m653 -18 c-12 -23 -16 -24
-26 -8 -4 6 -3 8 3 5 6 -4 13 0 17 8 3 8 8 15 11 15 3 0 1 -9 -5 -20z m-860
-90 c0 -5 -5 -10 -11 -10 -5 0 -7 5 -4 10 3 6 8 10 11 10 2 0 4 -4 4 -10z
m-55 -30 c-3 -5 -12 -10 -18 -10 -7 0 -6 4 3 10 19 12 23 12 15 0z m706 -73
c-10 -9 -11 -8 -5 6 3 10 9 15 12 12 3 -3 0 -11 -7 -18z m-24 -19 c-3 -8 -6
-5 -6 6 -1 11 2 17 5 13 3 -3 4 -12 1 -19z m893 8 c0 -2 -8 -10 -17 -17 -16
-13 -17 -12 -4 4 13 16 21 21 21 13z m-950 -52 c0 -8 -5 -12 -10 -9 -6 4 -8
11 -5 16 9 14 15 11 15 -7z m-1080 -54 c-18 -12 -30 -13 -30 -2 0 4 10 9 22 9
18 2 20 0 8 -7z m1891 -13 c-10 -9 -11 -8 -5 6 3 10 9 15 12 12 3 -3 0 -11 -7
-18z m-1981 -17 c0 -5 -5 -10 -11 -10 -5 0 -7 5 -4 10 3 6 8 10 11 10 2 0 4
-4 4 -10z m-255 -80 c-3 -5 -12 -10 -18 -10 -7 0 -6 4 3 10 19 12 23 12 15 0z
m-160 -40 c-3 -5 -12 -10 -18 -10 -7 0 -6 4 3 10 19 12 23 12 15 0z m1226 -63
c-10 -9 -11 -8 -5 6 3 10 9 15 12 12 3 -3 0 -11 -7 -18z m-1589 -9 c-7 -7 -12
-8 -12 -2 0 14 12 26 19 19 2 -3 -1 -11 -7 -17z m-112 -2 c0 -3 -4 -8 -10 -11
-5 -3 -10 -1 -10 4 0 6 5 11 10 11 6 0 10 -2 10 -4z m2570 -6 c0 -5 -2 -10 -4
-10 -3 0 -8 5 -11 10 -3 6 -1 10 4 10 6 0 11 -4 11 -10z m-2687 -17 c-13 -2
-33 -2 -45 0 -13 2 -3 4 22 4 25 0 35 -2 23 -4z m-233 -13 c0 -5 -5 -10 -11
-10 -5 0 -7 5 -4 10 3 6 8 10 11 10 2 0 4 -4 4 -10z m44 2 c3 -5 -1 -9 -9 -9
-8 0 -15 4 -15 9 0 4 4 8 9 8 6 0 12 -4 15 -8z m-254 -6 c0 -3 -4 -8 -10 -11
-5 -3 -10 -1 -10 4 0 6 5 11 10 11 6 0 10 -2 10 -4z m3058 -10 c-7 -8 -15 -12
-17 -11 -5 6 10 25 20 25 5 0 4 -6 -3 -14z m-3113 -26 c3 -5 1 -10 -4 -10 -6
0 -11 5 -11 10 0 6 2 10 4 10 3 0 8 -4 11 -10z m2155 -14 c0 -11 -19 -15 -25
-6 -3 5 1 10 9 10 9 0 16 -2 16 -4z m-80 -46 c0 -5 -2 -10 -4 -10 -3 0 -8 5
-11 10 -3 6 -1 10 4 10 6 0 11 -4 11 -10z m-1780 -100 c0 -5 -4 -10 -10 -10
-5 0 -10 5 -10 10 0 6 5 10 10 10 6 0 10 -4 10 -10z m2440 -20 c0 -5 -2 -10
-4 -10 -3 0 -8 5 -11 10 -3 6 -1 10 4 10 6 0 11 -4 11 -10z m-926 -13 c-3 -8
-12 -14 -21 -14 -13 0 -13 2 3 14 10 7 19 13 21 13 1 0 0 -6 -3 -13z m836 -21
c0 -2 -7 -6 -15 -10 -8 -3 -15 -1 -15 4 0 6 7 10 15 10 8 0 15 -2 15 -4z
m-925 -26 c3 -5 1 -10 -4 -10 -6 0 -11 5 -11 10 0 6 2 10 4 10 3 0 8 -4 11
-10z m875 0 c0 -5 -5 -10 -11 -10 -5 0 -7 5 -4 10 3 6 8 10 11 10 2 0 4 -4 4
-10z m-100 -34 c0 -3 -4 -8 -10 -11 -5 -3 -10 -1 -10 4 0 6 5 11 10 11 6 0 10
-2 10 -4z m-145 -56 c-3 -5 -12 -10 -18 -10 -7 0 -6 4 3 10 19 12 23 12 15 0z
m-140 -40 c3 -5 1 -10 -4 -10 -6 0 -11 5 -11 10 0 6 2 10 4 10 3 0 8 -4 11
-10z m-75 -24 c0 -2 -7 -7 -16 -10 -8 -3 -12 -2 -9 4 6 10 25 14 25 6z m-106
-28 c-3 -4 -9 -8 -15 -8 -5 0 -9 4 -9 8 0 5 7 9 15 9 8 0 12 -4 9 -9z m-40 -6
c3 -5 -1 -9 -9 -9 -8 0 -12 4 -9 9 3 4 7 8 9 8 2 0 6 -4 9 -8z m-154 -27 c0
-2 -10 -9 -22 -15 -22 -11 -22 -10 -4 4 21 17 26 19 26 11z m-580 -21 c0 -8
-19 -13 -24 -6 -3 5 1 9 9 9 8 0 15 -2 15 -3z m443 -11 c-7 -2 -19 -2 -25 0
-7 3 -2 5 12 5 14 0 19 -2 13 -5z m-393 -13 c0 -5 -5 -10 -11 -10 -5 0 -7 5
-4 10 3 6 8 10 11 10 2 0 4 -4 4 -10z m290 0 c0 -5 -7 -7 -15 -4 -8 4 -15 8
-15 10 0 2 7 4 15 4 8 0 15 -4 15 -10z m-170 -10 c-20 -13 -33 -13 -25 0 3 6
14 10 23 10 15 0 15 -2 2 -10z m93 3 c-7 -2 -19 -2 -25 0 -7 3 -2 5 12 5 14 0
19 -2 13 -5z"/>
<path d="M3646 6901 c-3 -4 -10 -29 -16 -56 -27 -122 -69 -175 -167 -214 -70
-27 -66 -51 13 -72 33 -9 71 -22 83 -29 26 -13 54 -71 74 -151 11 -40 19 -54
32 -54 14 0 24 18 43 80 37 123 57 143 180 175 60 15 53 40 -17 63 -30 10 -67
27 -82 38 -16 11 -34 17 -40 13 -7 -4 -9 -3 -5 4 3 6 -5 27 -19 47 -13 21 -30
64 -37 96 -11 53 -30 80 -42 60z m24 -30 c0 -29 -15 -33 -16 -5 -1 13 2 24 7
24 5 0 9 -9 9 -19z m4 -113 c9 -46 51 -92 114 -126 l54 -29 -34 -7 c-59 -12
-110 -72 -128 -151 -6 -27 -8 -28 -15 -10 -45 118 -48 122 -140 156 l-30 11
35 14 c62 27 117 98 122 158 3 33 14 24 22 -16z m26 -3 c0 -5 -5 -3 -10 5 -5
8 -10 20 -10 25 0 6 5 3 10 -5 5 -8 10 -19 10 -25z m-74 -16 c-9 -19 -15 -29
-16 -22 0 15 22 64 27 60 2 -2 -3 -19 -11 -38z m-132 -157 c3 -5 -1 -9 -9 -9
-8 0 -12 4 -9 9 3 4 7 8 9 8 2 0 6 -4 9 -8z m71 -22 c3 -5 1 -10 -4 -10 -6 0
-11 5 -11 10 0 6 2 10 4 10 3 0 8 -4 11 -10z m148 -95 c-3 -9 -8 -14 -10 -11
-3 3 -2 9 2 15 9 16 15 13 8 -4z m-55 -53 c2 -7 -1 -12 -8 -12 -6 0 -9 4 -6 9
4 5 3 11 -1 13 -5 3 -4 4 1 3 6 -1 12 -7 14 -13z"/>
<path d="M7951 6346 c-10 -12 -2 -23 41 -62 92 -84 217 -216 285 -301 47 -59
70 -80 78 -73 8 7 12 5 12 -5 0 -8 -4 -12 -9 -9 -17 11 -7 -10 28 -57 31 -43
38 -48 53 -37 14 11 14 11 3 -4 -11 -14 -5 -30 47 -116 33 -55 75 -129 92
-165 18 -36 37 -63 42 -60 6 3 7 1 3 -5 -3 -6 11 -50 32 -99 130 -297 193
-605 192 -946 0 -290 -30 -483 -119 -767 -72 -229 -154 -417 -257 -586 -48
-80 -52 -89 -28 -80 9 3 12 2 9 -5 -4 -6 -13 -8 -20 -6 -7 3 -33 -23 -61 -61
-89 -121 -214 -235 -214 -195 0 3 16 56 36 117 141 435 194 979 135 1364 -32
207 -45 270 -73 367 -56 192 -73 193 -81 3 -7 -155 -25 -288 -58 -438 -88
-399 -159 -606 -325 -948 -46 -96 -81 -178 -78 -184 4 -6 10 -5 15 3 5 8 9 9
9 3 0 -5 -7 -19 -15 -30 -11 -14 -14 -15 -9 -3 13 39 -16 25 -41 -18 -15 -27
-45 -76 -67 -110 -23 -36 -37 -67 -32 -74 4 -7 3 -9 -4 -5 -13 8 -106 -129
-97 -144 3 -5 0 -8 -7 -6 -7 3 -42 -34 -81 -87 -83 -114 -227 -272 -349 -383
-51 -47 -92 -89 -91 -95 2 -5 -3 -8 -10 -6 -6 1 -11 -4 -9 -11 1 -8 -2 -11 -7
-7 -6 3 -38 -17 -73 -45 -66 -54 -319 -224 -410 -275 -29 -16 -53 -34 -53 -40
0 -19 45 -16 74 4 16 12 32 21 35 21 6 0 63 35 158 98 25 16 35 29 31 40 -4
14 -3 14 5 3 11 -16 36 -5 26 11 -4 7 -2 8 5 4 13 -8 74 31 66 44 -3 4 3 14
12 21 12 10 14 10 9 2 -11 -19 2 -16 36 8 23 17 27 24 16 31 -10 8 -9 9 4 4
28 -9 247 179 249 214 0 11 2 11 6 2 3 -9 35 18 89 74 46 48 81 91 78 96 -3 5
-1 7 5 6 5 -2 39 33 76 76 90 108 107 134 99 147 -4 7 -3 9 3 6 16 -10 34 18
27 39 -4 13 -3 15 3 7 7 -10 18 0 42 33 26 37 30 49 19 56 -10 8 -9 9 4 4 36
-11 248 370 371 666 133 320 251 765 276 1046 5 57 11 106 13 108 4 3 45 -201
68 -331 28 -163 34 -502 12 -670 -7 -49 -14 -104 -16 -121 -21 -150 -77 -393
-132 -572 -47 -151 -39 -196 32 -178 73 19 276 275 386 486 278 536 381 1140
288 1685 -51 297 -166 603 -326 866 -85 140 -135 209 -148 202 -6 -3 -8 -3 -4
2 10 11 -7 40 -76 125 -66 82 -320 340 -335 340 -5 0 -14 -6 -20 -14z m149
-126 c0 -5 -2 -10 -4 -10 -3 0 -8 5 -11 10 -3 6 -1 10 4 10 6 0 11 -4 11 -10z
m17 -22 c-3 -8 -6 -5 -6 6 -1 11 2 17 5 13 3 -3 4 -12 1 -19z m31 -33 c-3 -3
-9 2 -12 12 -6 14 -5 15 5 6 7 -7 10 -15 7 -18z m202 -236 c0 -6 -4 -7 -10 -4
-5 3 -10 11 -10 16 0 6 5 7 10 4 6 -3 10 -11 10 -16z m69 -83 c9 -11 9 -16 0
-22 -8 -4 -9 -3 -5 4 4 7 2 12 -3 12 -6 0 -11 5 -11 10 0 14 5 13 19 -4z m86
-126 c3 -5 1 -10 -4 -10 -6 0 -11 5 -11 10 0 6 2 10 4 10 3 0 8 -4 11 -10z
m20 -41 c11 -16 1 -19 -13 -3 -7 8 -8 14 -3 14 5 0 13 -5 16 -11z m25 -39 c0
-5 -5 -10 -11 -10 -5 0 -7 5 -4 10 3 6 8 10 11 10 2 0 4 -4 4 -10z m160 -329
c7 -15 7 -22 -2 -27 -7 -4 -10 -4 -6 1 4 4 3 16 -3 26 -5 11 -7 19 -5 19 3 0
10 -9 16 -19z m35 -100 c3 -5 1 -12 -5 -16 -5 -3 -10 1 -10 9 0 18 6 21 15 7z
m9 -47 c3 -8 2 -12 -4 -9 -6 3 -10 10 -10 16 0 14 7 11 14 -7z m26 -59 c0 -5
-5 -3 -10 5 -5 8 -10 20 -10 25 0 6 5 3 10 -5 5 -8 10 -19 10 -25z m13 -45 c3
-11 1 -18 -4 -14 -5 3 -9 12 -9 20 0 20 7 17 13 -6z m4 -40 c0 -3 5 -15 12
-27 7 -15 8 -23 1 -23 -5 0 -10 3 -10 8 0 4 -3 18 -7 32 -3 14 -3 23 0 20 3
-3 5 -7 4 -10z m43 -150 c0 -5 -5 -10 -11 -10 -5 0 -7 5 -4 10 3 6 8 10 11 10
2 0 4 -4 4 -10z m10 -41 c0 -5 -4 -9 -10 -9 -5 0 -10 7 -10 16 0 8 5 12 10 9
6 -3 10 -10 10 -16z m10 -69 c0 -5 -5 -10 -11 -10 -5 0 -7 5 -4 10 3 6 8 10
11 10 2 0 4 -4 4 -10z m3 -85 c-3 -9 -8 -14 -10 -11 -3 3 -2 9 2 15 9 16 15
13 8 -4z m-646 -47 c-3 -8 -6 -5 -6 6 -1 11 2 17 5 13 3 -3 4 -12 1 -19z m-20
-10 c-3 -8 -6 -5 -6 6 -1 11 2 17 5 13 3 -3 4 -12 1 -19z m683 -48 c0 -5 -2
-10 -4 -10 -3 0 -8 5 -11 10 -3 6 -1 10 4 10 6 0 11 -4 11 -10z m0 -50 c0 -5
-4 -10 -10 -10 -5 0 -10 5 -10 10 0 6 5 10 10 10 6 0 10 -4 10 -10z m-683 -32
c-3 -7 -5 -2 -5 12 0 14 2 19 5 13 2 -7 2 -19 0 -25z m680 -75 c-2 -16 -4 -5
-4 22 0 28 2 40 4 28 2 -13 2 -35 0 -50z m-607 42 c0 -8 -4 -15 -10 -15 -5 0
-7 7 -4 15 4 8 8 15 10 15 2 0 4 -7 4 -15z m7 -67 c-3 -8 -6 -5 -6 6 -1 11 2
17 5 13 3 -3 4 -12 1 -19z m-87 -18 c0 -5 -5 -10 -11 -10 -5 0 -7 5 -4 10 3 6
8 10 11 10 2 0 4 -4 4 -10z m689 -47 c0 -34 -3 -50 -7 -40 -7 17 -4 97 4 97 2
0 4 -26 3 -57z m-708 -46 c-10 -9 -11 -8 -5 6 3 10 9 15 12 12 3 -3 0 -11 -7
-18z m696 -69 c-2 -13 -4 -5 -4 17 -1 22 1 32 4 23 2 -10 2 -28 0 -40z m-704
-3 c-3 -9 -8 -14 -10 -11 -3 3 -2 9 2 15 9 16 15 13 8 -4z m154 -87 c-3 -7 -5
-2 -5 12 0 14 2 19 5 13 2 -7 2 -19 0 -25z m540 -50 c-3 -7 -5 -2 -5 12 0 14
2 19 5 13 2 -7 2 -19 0 -25z m-724 -8 c-3 -11 -7 -20 -9 -20 -2 0 -4 9 -4 20
0 11 4 20 9 20 5 0 7 -9 4 -20z m727 -14 c0 -3 -4 -8 -10 -11 -5 -3 -10 -1
-10 4 0 6 5 11 10 11 6 0 10 -2 10 -4z m-529 -39 c-10 -9 -11 -8 -5 6 3 10 9
15 12 12 3 -3 0 -11 -7 -18z m-214 -9 c-3 -8 -6 -5 -6 6 -1 11 2 17 5 13 3 -3
4 -12 1 -19z m730 0 c-3 -8 -6 -5 -6 6 -1 11 2 17 5 13 3 -3 4 -12 1 -19z m-7
-48 c0 -5 -5 -10 -11 -10 -5 0 -7 5 -4 10 3 6 8 10 11 10 2 0 4 -4 4 -10z
m-740 -40 c0 -5 -4 -10 -10 -10 -5 0 -10 5 -10 10 0 6 5 10 10 10 6 0 10 -4
10 -10z m237 -22 c-3 -7 -5 -2 -5 12 0 14 2 19 5 13 2 -7 2 -19 0 -25z m484
-11 c-10 -9 -11 -8 -5 6 3 10 9 15 12 12 3 -3 0 -11 -7 -18z m-747 -51 c-3
-15 -8 -25 -11 -23 -2 3 -1 17 3 31 3 15 8 25 11 23 2 -3 1 -17 -3 -31z m-16
-66 c-15 -24 -19 -21 -11 8 3 12 9 19 14 16 5 -3 3 -14 -3 -24z m279 -12 c-3
-8 -6 -5 -6 6 -1 11 2 17 5 13 3 -3 4 -12 1 -19z m-293 -33 c-4 -8 -8 -15 -10
-15 -2 0 -4 7 -4 15 0 8 4 15 10 15 5 0 7 -7 4 -15z m293 -42 c-3 -10 -5 -4
-5 12 0 17 2 24 5 18 2 -7 2 -21 0 -30z m443 17 c0 -5 -5 -10 -11 -10 -5 0 -7
5 -4 10 3 6 8 10 11 10 2 0 4 -4 4 -10z m-794 -136 c-19 -19 -21 -11 -4 16 7
11 14 16 16 10 2 -5 -4 -17 -12 -26z m347 6 c-3 -11 -7 -20 -9 -20 -2 0 -4 9
-4 20 0 11 4 20 9 20 5 0 7 -9 4 -20z m-3 -40 c0 -5 -5 -10 -11 -10 -5 0 -7 5
-4 10 3 6 8 10 11 10 2 0 4 -4 4 -10z m380 -40 c0 -5 -5 -10 -11 -10 -5 0 -7
5 -4 10 3 6 8 10 11 10 2 0 4 -4 4 -10z m-779 -63 c-10 -9 -11 -8 -5 6 3 10 9
15 12 12 3 -3 0 -11 -7 -18z m369 -44 c-11 -17 -11 -17 -6 0 3 10 7 26 7 35 1
15 2 15 6 0 2 -10 -1 -25 -7 -35z m-380 -3 c0 -5 -5 -10 -11 -10 -5 0 -7 5 -4
10 3 6 8 10 11 10 2 0 4 -4 4 -10z m380 -50 c0 -5 -5 -10 -11 -10 -5 0 -7 5
-4 10 3 6 8 10 11 10 2 0 4 -4 4 -10z m-413 -22 c-3 -8 -6 -5 -6 6 -1 11 2 17
5 13 3 -3 4 -12 1 -19z m406 -18 c-3 -12 -8 -19 -11 -16 -5 6 5 36 12 36 2 0
2 -9 -1 -20z m317 -30 c0 -5 -5 -10 -11 -10 -5 0 -7 5 -4 10 3 6 8 10 11 10 2
0 4 -4 4 -10z m-790 -95 c-7 -9 -15 -13 -19 -10 -3 3 1 10 9 15 21 14 24 12
10 -5z m-25 -55 c3 -5 1 -10 -4 -10 -6 0 -11 5 -11 10 0 6 2 10 4 10 3 0 8 -4
11 -10z m455 -30 c0 -5 -5 -10 -11 -10 -5 0 -7 5 -4 10 3 6 8 10 11 10 2 0 4
-4 4 -10z m-499 -33 c-10 -9 -11 -8 -5 6 3 10 9 15 12 12 3 -3 0 -11 -7 -18z
m742 -12 c-3 -9 -8 -14 -10 -11 -3 3 -2 9 2 15 9 16 15 13 8 -4z m-736 -11
c-3 -3 -12 -4 -19 -1 -8 3 -5 6 6 6 11 1 17 -2 13 -5z m473 -30 c0 -8 -5 -12
-10 -9 -6 4 -8 11 -5 16 9 14 15 11 15 -7z m-19 -60 c-5 -16 -10 -21 -10 -12
-1 18 10 51 15 45 2 -1 -1 -16 -5 -33z m-537 -29 c-9 -14 -18 -25 -21 -25 -5
0 5 18 20 38 17 22 18 13 1 -13z m719 -10 c-3 -9 -8 -14 -10 -11 -3 3 -2 9 2
15 9 16 15 13 8 -4z m-50 -60 c-3 -9 -8 -14 -10 -11 -3 3 -2 9 2 15 9 16 15
13 8 -4z m-170 -20 c-3 -9 -8 -14 -10 -11 -3 3 -2 9 2 15 9 16 15 13 8 -4z
m-598 -75 c-3 -5 -11 -10 -16 -10 -6 0 -7 5 -4 10 3 6 11 10 16 10 6 0 7 -4 4
-10z m-125 -179 c0 -5 -7 -12 -16 -15 -14 -5 -15 -4 -4 9 14 17 20 19 20 6z
m-70 -85 c0 -3 -4 -8 -10 -11 -5 -3 -10 -1 -10 4 0 6 5 11 10 11 6 0 10 -2 10
-4z m-15 -36 c-3 -5 -11 -10 -16 -10 -6 0 -7 5 -4 10 3 6 11 10 16 10 6 0 7
-4 4 -10z m-368 -365 c0 -8 -3 -13 -5 -10 -3 3 -12 -1 -21 -7 -10 -8 -9 -4 3
10 23 26 23 26 23 7z"/>
<path d="M786 6194 c-28 -29 -33 -67 -15 -107 16 -35 51 -51 93 -43 44 8 66
38 66 89 0 79 -88 117 -144 61z m39 -4 c-3 -5 -11 -10 -16 -10 -6 0 -7 5 -4
10 3 6 11 10 16 10 6 0 7 -4 4 -10z m50 2 c17 -12 16 -75 -2 -94 -30 -33 -73
-16 -73 28 0 33 28 57 59 50 25 -6 25 -6 7 9 -19 15 -11 22 9 7z m-15 -130 c0
-5 -7 -9 -15 -9 -8 0 -12 4 -9 9 3 4 9 8 15 8 5 0 9 -4 9 -8z"/>
<path d="M3746 5994 c-37 -38 -37 -106 0 -130 40 -27 93 -22 121 10 72 84 -43
198 -121 120z m95 -45 c14 -26 -6 -59 -35 -59 -31 0 -50 24 -42 54 10 39 57
42 77 5z m27 -20 c-3 -20 -5 -19 -9 9 -3 20 -2 29 4 23 5 -5 7 -19 5 -32z
m-122 -26 c-10 -10 -19 5 -10 18 6 11 8 11 12 0 2 -7 1 -15 -2 -18z m107 -23
c-3 -11 -9 -20 -15 -20 -5 0 -4 9 2 20 6 11 12 20 14 20 2 0 2 -9 -1 -20z
m-88 0 c3 -6 -1 -7 -9 -4 -18 7 -21 14 -7 14 6 0 13 -4 16 -10z"/>
<path d="M8011 5726 c-18 -58 -38 -109 -45 -114 -15 -12 -61 -29 -114 -42 -65
-17 -53 -40 32 -65 94 -28 107 -47 114 -164 8 -139 33 -135 82 14 35 106 49
120 153 149 85 25 77 39 -50 86 -53 20 -57 26 -111 209 -14 48 -29 30 -61 -73z
m39 20 c0 -3 -4 -8 -10 -11 -5 -3 -10 -1 -10 4 0 6 5 11 10 11 6 0 10 -2 10
-4z m22 -85 c20 -62 46 -94 89 -111 l29 -13 -48 -22 c-39 -18 -53 -32 -70 -69
-12 -25 -22 -51 -22 -58 0 -7 -4 -19 -9 -27 -6 -10 -9 -4 -8 20 1 59 -13 111
-28 105 -9 -3 -12 0 -9 8 5 13 -35 36 -61 36 -8 0 -15 5 -15 10 0 6 7 10 16
10 57 0 137 143 92 164 -7 3 -4 5 6 3 13 -1 25 -18 38 -56z m18 19 c0 -13 -1
-13 -10 0 -5 8 -10 22 -10 30 0 13 1 13 10 0 5 -8 10 -22 10 -30z m-90 -70 c0
-5 -5 -10 -11 -10 -5 0 -7 5 -4 10 3 6 8 10 11 10 2 0 4 -4 4 -10z m-153 -66
c-3 -3 -12 -4 -19 -1 -8 3 -5 6 6 6 11 1 17 -2 13 -5z m377 -19 c3 -8 1 -15
-4 -15 -6 0 -10 7 -10 15 0 8 2 15 4 15 2 0 6 -7 10 -15z m-94 -45 c0 -5 -2
-10 -4 -10 -3 0 -8 5 -11 10 -3 6 -1 10 4 10 6 0 11 -4 11 -10z m-110 -55 c0
-5 -5 -3 -10 5 -5 8 -10 20 -10 25 0 6 5 3 10 -5 5 -8 10 -19 10 -25z m40 -82
c-11 -17 -11 -17 -6 0 3 10 6 24 7 30 0 9 2 9 5 0 3 -7 0 -20 -6 -30z m-29
-58 c5 3 6 -1 3 -9 -10 -26 -24 -18 -23 12 1 17 3 20 6 9 2 -9 9 -15 14 -12z"/>
<path d="M7025 5188 c-2 -7 -9 -49 -15 -93 -19 -130 -40 -226 -62 -271 -17
-36 -31 -48 -96 -82 -42 -21 -93 -45 -112 -52 -33 -13 -50 -27 -50 -42 0 -4
37 -18 83 -32 123 -38 147 -57 175 -140 13 -38 34 -124 48 -190 29 -144 32
-156 45 -156 16 0 29 46 64 229 43 219 42 218 228 300 40 18 67 36 67 45 0 17
-62 37 -121 40 -21 0 -35 4 -33 7 2 4 -6 9 -19 13 -12 3 -37 18 -54 34 -33 29
-53 92 -83 262 -18 106 -30 140 -46 140 -8 0 -17 -6 -19 -12z m15 -68 c0 -11
-4 -20 -9 -20 -5 0 -7 9 -4 20 3 11 7 20 9 20 2 0 4 -9 4 -20z m30 -16 c0 -8
-5 -12 -10 -9 -6 4 -8 11 -5 16 9 14 15 11 15 -7z m-36 -41 c-4 -15 -7 -33 -7
-40 0 -7 -4 -13 -9 -13 -11 0 -10 23 2 54 13 34 22 33 14 -1z m74 -260 c20
-36 72 -70 140 -90 l64 -20 -62 -27 c-63 -28 -123 -74 -141 -108 -12 -21 -58
-237 -60 -277 -1 -17 -4 -11 -10 19 -16 77 -49 198 -64 232 -23 55 -72 92
-153 112 l-43 11 88 45 c75 39 91 51 112 89 28 51 60 176 62 236 0 29 8 7 28
-80 15 -66 32 -130 39 -142z m-28 237 c0 -5 -2 -10 -4 -10 -3 0 -8 5 -11 10
-3 6 -1 10 4 10 6 0 11 -4 11 -10z m14 -90 c4 -25 3 -31 -4 -20 -5 8 -10 26
-10 39 0 32 6 24 14 -19z m-83 -3 c-10 -9 -11 -8 -5 6 3 10 9 15 12 12 3 -3 0
-11 -7 -18z m-20 -90 c-10 -9 -11 -8 -5 6 3 10 9 15 12 12 3 -3 0 -11 -7 -18z
m-21 -51 c0 -3 -4 -8 -10 -11 -5 -3 -10 -1 -10 4 0 6 5 11 10 11 6 0 10 -2 10
-4z m214 -42 c3 -8 2 -12 -4 -9 -6 3 -10 10 -10 16 0 14 7 11 14 -7z m-414
-88 c0 -2 -7 -7 -16 -10 -8 -3 -12 -2 -9 4 6 10 25 14 25 6z m120 -76 c0 -5
-5 -10 -11 -10 -5 0 -7 5 -4 10 3 6 8 10 11 10 2 0 4 -4 4 -10z m64 -59 c-2
-3 -12 3 -22 13 -16 17 -16 18 5 5 12 -7 20 -15 17 -18z m157 -54 c-10 -9 -11
-8 -5 6 3 10 9 15 12 12 3 -3 0 -11 -7 -18z m-114 -79 c2 -17 0 -19 -7 -8 -5
8 -6 18 -4 22 8 12 10 10 11 -14z m83 -83 c-7 -8 -9 -19 -6 -24 4 -5 3 -12 -2
-15 -4 -2 -8 4 -9 14 -1 11 3 22 8 25 5 4 6 11 3 17 -4 7 -2 8 5 4 9 -6 9 -11
1 -21z m-58 -35 c3 -16 1 -30 -4 -30 -4 0 -8 14 -8 30 0 17 2 30 4 30 2 0 6
-13 8 -30z m13 -50 c3 -5 1 -10 -4 -10 -6 0 -11 5 -11 10 0 6 2 10 4 10 3 0 8
-4 11 -10z m21 -25 c-11 -8 -15 -15 -8 -15 7 0 9 -7 5 -17 -6 -15 -7 -14 -14
3 -7 20 6 44 25 44 6 0 2 -7 -8 -15z"/>
<path d="M9348 4991 c-28 -25 -33 -36 -33 -76 0 -39 5 -51 28 -71 59 -51 127
-39 157 29 49 110 -63 197 -152 118z m102 -5 c0 -2 -9 -2 -20 1 -11 3 -20 9
-20 15 0 5 9 4 20 -2 11 -6 20 -12 20 -14z m-53 8 c-3 -3 -12 -4 -19 -1 -8 3
-5 6 6 6 11 1 17 -2 13 -5z m51 -30 c15 -10 22 -25 22 -49 0 -28 -6 -37 -31
-50 -28 -15 -33 -15 -55 -1 -24 16 -33 42 -31 82 1 12 6 20 13 17 7 -2 15 0
19 6 9 16 37 13 63 -5z m-110 -50 c0 -17 -3 -22 -8 -13 -5 6 -6 18 -3 26 8 19
11 16 11 -13z m159 4 c-3 -8 -6 -5 -6 6 -1 11 2 17 5 13 3 -3 4 -12 1 -19z
m-53 -76 c2 -4 -5 -9 -17 -9 -17 -2 -19 0 -7 7 18 12 18 12 24 2z"/>
<path d="M5585 3455 c-36 -35 -35 -96 1 -124 74 -58 172 25 129 108 -25 49
-90 57 -130 16z m85 -30 c15 -19 6 -61 -16 -69 -17 -7 -54 19 -54 37 0 15 31
47 45 47 7 0 18 -7 25 -15z m-80 -19 c0 -8 -4 -17 -8 -20 -4 -2 -8 4 -8 15 0
10 4 19 8 19 4 0 8 -6 8 -14z m14 -42 c3 -8 2 -12 -4 -9 -6 3 -10 10 -10 16 0
14 7 11 14 -7z m53 -30 c-3 -3 -12 -4 -19 -1 -8 3 -5 6 6 6 11 1 17 -2 13 -5z"/>
<path d="M905 3415 c-35 -34 -35 -96 0 -130 55 -56 155 -11 155 70 0 78 -99
116 -155 60z m95 3 c0 -4 -13 -6 -29 -5 -16 1 -27 5 -25 8 5 9 54 6 54 -3z
m12 -43 c22 -48 -43 -100 -80 -63 -15 15 -15 43 -2 69 16 29 67 26 82 -6z m33
5 c3 -5 1 -10 -4 -10 -6 0 -11 5 -11 10 0 6 2 10 4 10 3 0 8 -4 11 -10z m-140
-29 c0 -16 -3 -27 -7 -25 -6 4 -5 29 1 52 4 11 7 -3 6 -27z m145 -1 c0 -5 -5
-10 -11 -10 -5 0 -7 5 -4 10 3 6 8 10 11 10 2 0 4 -4 4 -10z m-10 -24 c0 -2
-8 -10 -17 -17 -16 -13 -17 -12 -4 4 13 16 21 21 21 13z m-40 -40 c0 -2 -7 -7
-16 -10 -8 -3 -12 -2 -9 4 6 10 25 14 25 6z"/>
<path d="M4756 3138 c-3 -18 -8 -55 -12 -83 -8 -63 -27 -102 -56 -111 -13 -4
-42 -15 -65 -25 -57 -24 -48 -43 29 -59 57 -13 62 -16 79 -54 10 -23 25 -72
35 -109 14 -59 35 -90 49 -76 2 2 9 49 15 104 7 55 16 108 21 118 6 9 39 30
74 46 67 31 84 57 43 65 -52 11 -117 15 -121 8 -2 -4 -3 -2 -1 3 1 6 -4 19
-11 29 -8 10 -19 50 -26 89 -11 66 -21 86 -41 87 -4 0 -9 -15 -12 -32z m30
-24 c-2 -13 -9 -30 -16 -37 -12 -10 -12 -9 -2 4 9 12 9 18 0 27 -9 9 -9 12 0
12 6 0 9 7 5 17 -4 10 -2 14 5 9 6 -3 9 -18 8 -32z m11 -66 c-3 -8 -6 -5 -6 6
-1 11 2 17 5 13 3 -3 4 -12 1 -19z m-40 -40 c-3 -8 -6 -5 -6 6 -1 11 2 17 5
13 3 -3 4 -12 1 -19z m36 -26 c6 -29 40 -52 77 -52 11 0 20 -4 20 -10 0 -5 -6
-10 -14 -10 -31 0 -67 -44 -73 -88 -7 -51 -18 -54 -27 -7 -7 34 -46 75 -72 75
-23 0 -16 18 7 22 26 4 59 45 62 76 2 31 13 27 20 -6z m-43 -22 c0 -5 -4 -10
-10 -10 -5 0 -10 5 -10 10 0 6 5 10 10 10 6 0 10 -4 10 -10z m-30 -24 c0 -2
-7 -7 -16 -10 -8 -3 -12 -2 -9 4 6 10 25 14 25 6z m62 -183 c6 -7 5 -14 -3
-19 -7 -4 -9 -3 -5 4 3 6 2 13 -4 17 -5 3 -10 14 -9 23 0 14 2 14 6 2 3 -8 10
-20 15 -27z m38 7 c0 -5 -2 -10 -4 -10 -3 0 -8 5 -11 10 -3 6 -1 10 4 10 6 0
11 -4 11 -10z m-13 -60 c1 -11 -2 -18 -7 -15 -4 3 -11 -1 -14 -7 -3 -7 -4 -4
-3 7 1 15 11 30 22 35 1 0 1 -9 2 -20z m0 -50 c-1 -12 -5 -16 -10 -11 -5 5 -6
14 -3 20 11 16 15 13 13 -9z"/>
<path d="M9114 3040 c-11 -4 -33 -22 -47 -40 -61 -72 -19 -177 74 -187 79 -9
139 43 139 119 0 75 -95 137 -166 108z m16 -20 c-8 -5 -19 -10 -25 -10 -5 0
-3 5 5 10 8 5 20 10 25 10 6 0 3 -5 -5 -10z m86 -41 c25 -28 22 -88 -6 -111
-47 -38 -130 -3 -130 55 0 70 90 107 136 56z m41 -46 c-3 -10 -5 -4 -5 12 0
17 2 24 5 18 2 -7 2 -21 0 -30z m-196 -26 c-10 -9 -11 -8 -5 6 3 10 9 15 12
12 3 -3 0 -11 -7 -18z"/>
<path d="M3490 2653 c-66 -24 -79 -141 -19 -173 22 -12 102 -13 95 -1 -3 5 2
8 12 7 9 0 16 5 14 12 -1 8 2 11 8 7 16 -10 33 40 26 79 -11 59 -75 91 -136
69z m67 -9 c-3 -3 -12 -4 -19 -1 -8 3 -5 6 6 6 11 1 17 -2 13 -5z m-57 -9 c0
-2 -10 -9 -22 -15 -22 -11 -22 -10 -4 4 21 17 26 19 26 11z m74 -37 c20 -29
20 -47 -1 -70 -30 -34 -103 -12 -103 31 0 31 30 61 60 61 18 0 34 -8 44 -22z
m33 -60 c-3 -8 -6 -5 -6 6 -1 11 2 17 5 13 3 -3 4 -12 1 -19z m-57 -48 c0 -5
-2 -10 -4 -10 -3 0 -8 5 -11 10 -3 6 -1 10 4 10 6 0 11 -4 11 -10z"/>
<path d="M2237 2620 c-15 -12 -27 -31 -27 -44 0 -30 42 -68 75 -68 32 0 75 38
75 68 0 24 -23 48 -34 36 -4 -4 -6 0 -4 8 5 25 -53 25 -85 0z m13 -14 c0 -2
-8 -10 -17 -17 -16 -13 -17 -12 -4 4 13 16 21 21 21 13z m44 -12 c20 -8 21
-33 1 -40 -23 -9 -48 15 -34 32 13 16 12 16 33 8z"/>
<path d="M1311 2303 c-6 -12 -15 -54 -21 -94 -14 -96 -37 -186 -57 -215 -18
-27 -115 -77 -185 -94 -26 -7 -46 -16 -43 -20 3 -5 -3 -6 -13 -3 -10 2 -24 -2
-30 -10 -15 -18 -11 -19 106 -52 46 -13 94 -31 108 -40 13 -9 30 -13 37 -9 7
4 9 4 5 -1 -4 -4 0 -21 8 -38 9 -16 28 -90 44 -164 42 -205 56 -205 98 3 39
199 47 208 210 250 61 17 102 32 102 40 0 13 -35 27 -100 40 -68 13 -139 51
-159 85 -21 34 -54 164 -66 256 -4 28 -12 59 -20 69 -12 17 -13 16 -24 -3z
m26 -48 c0 -8 -4 -12 -9 -9 -5 3 -6 10 -3 15 9 13 12 11 12 -6z m0 -47 c-3 -8
-6 -5 -6 6 -1 11 2 17 5 13 3 -3 4 -12 1 -19z m19 -173 c23 -93 65 -137 154
-162 l64 -17 -38 -8 c-70 -15 -135 -49 -155 -82 -23 -39 -64 -192 -58 -217 3
-11 1 -17 -4 -13 -5 3 -9 14 -9 25 0 40 -42 184 -57 199 -12 11 -14 12 -8 1 5
-9 4 -12 -3 -7 -6 4 -9 12 -6 20 6 16 -77 62 -128 71 -21 4 -38 10 -38 14 0 4
21 13 48 20 116 31 171 92 194 216 11 61 13 66 19 40 4 -17 15 -61 25 -100z
m4 121 c0 -3 -4 -8 -10 -11 -5 -3 -10 -1 -10 4 0 6 5 11 10 11 6 0 10 -2 10
-4z m27 -168 c-3 -7 -5 -2 -5 12 0 14 2 19 5 13 2 -7 2 -19 0 -25z m-127 -2
c0 -3 -4 -8 -10 -11 -5 -3 -10 -1 -10 4 0 6 5 11 10 11 6 0 10 -2 10 -4z m224
-82 c3 -8 2 -12 -4 -9 -6 3 -10 10 -10 16 0 14 7 11 14 -7z m-479 -54 c3 -6
-1 -7 -9 -4 -18 7 -21 14 -7 14 6 0 13 -4 16 -10z m105 -14 c0 -11 -19 -15
-25 -6 -3 5 1 10 9 10 9 0 16 -2 16 -4z m295 -86 c-3 -5 -12 -10 -18 -10 -7 0
-6 4 3 10 19 12 23 12 15 0z m-118 -167 c-3 -10 -5 -4 -5 12 0 17 2 24 5 18 2
-7 2 -21 0 -30z m64 14 c-10 -9 -11 -8 -5 6 3 10 9 15 12 12 3 -3 0 -11 -7
-18z m-41 -71 c0 -3 -4 -8 -10 -11 -5 -3 -10 -1 -10 4 0 6 5 11 10 11 6 0 10
-2 10 -4z m30 -24 c0 -4 -9 -8 -19 -8 -11 0 -17 4 -15 8 3 4 12 8 20 8 8 0 14
-4 14 -8z m-7 -29 c-7 -2 -19 -2 -25 0 -7 3 -2 5 12 5 14 0 19 -2 13 -5z"/>
<path d="M8705 2078 c-3 -13 -18 -89 -35 -171 -40 -200 -51 -224 -128 -265
-33 -18 -109 -45 -169 -61 -148 -38 -149 -68 -3 -101 74 -16 189 -72 222 -107
28 -30 57 -118 98 -295 18 -80 25 -98 40 -98 20 0 30 32 55 195 22 137 38 177
92 225 34 30 66 46 132 65 141 43 150 46 157 57 10 16 -21 35 -85 53 -91 26
-217 92 -241 125 -22 31 -65 185 -76 272 -10 84 -23 128 -39 128 -8 0 -17 -10
-20 -22z m22 -10 c-3 -8 -6 -5 -6 6 -1 11 2 17 5 13 3 -3 4 -12 1 -19z m-7
-88 c0 -5 -2 -10 -4 -10 -3 0 -8 5 -11 10 -3 6 -1 10 4 10 6 0 11 -4 11 -10z
m55 -250 c17 -50 46 -83 110 -122 49 -30 149 -68 178 -68 33 0 7 -16 -48 -29
-75 -18 -146 -54 -187 -95 -41 -40 -69 -115 -83 -221 -5 -33 -9 -63 -11 -67
-1 -5 -2 -14 -3 -20 -1 -7 -15 40 -31 105 -41 161 -67 210 -100 184 -13 -10
-13 -10 -2 5 14 18 16 15 -60 62 -30 17 -142 57 -168 59 -27 2 -25 17 3 17 34
0 177 53 224 83 56 36 79 83 105 222 l23 114 17 -91 c9 -49 24 -112 33 -138z
m-20 220 c3 -5 1 -10 -4 -10 -6 0 -11 5 -11 10 0 6 2 10 4 10 3 0 8 -4 11 -10z
m-58 -62 c2 -17 0 -19 -7 -8 -5 8 -6 18 -4 22 8 12 10 10 11 -14z m-17 -67
c-5 -10 -6 -22 -2 -26 4 -5 2 -5 -4 -2 -6 4 -9 18 -7 32 3 13 9 22 14 19 5 -3
5 -13 -1 -23z m120 -62 c0 -5 -5 -9 -12 -9 -6 0 -8 3 -5 7 4 3 1 13 -6 22 -11
14 -10 14 6 2 9 -7 17 -17 17 -22z m-178 -101 c-7 -7 -12 -8 -12 -2 0 14 12
26 19 19 2 -3 -1 -11 -7 -17z m-28 -13 c-4 -8 -8 -15 -10 -15 -2 0 -4 7 -4 15
0 8 4 15 10 15 5 0 7 -7 4 -15z m-24 -15 c0 -5 -5 -10 -11 -10 -5 0 -7 5 -4
10 3 6 8 10 11 10 2 0 4 -4 4 -10z m390 -30 c0 -5 -5 -10 -11 -10 -5 0 -7 5
-4 10 3 6 8 10 11 10 2 0 4 -4 4 -10z m50 -14 c0 -3 -4 -8 -10 -11 -5 -3 -10
-1 -10 4 0 6 5 11 10 11 6 0 10 -2 10 -4z m55 -26 c3 -5 1 -10 -4 -10 -6 0
-11 5 -11 10 0 6 2 10 4 10 3 0 8 -4 11 -10z m-721 -14 c-10 -8 -21 -12 -24
-10 -5 6 21 24 34 24 6 0 1 -6 -10 -14z m81 -56 c3 -6 -1 -7 -9 -4 -18 7 -21
14 -7 14 6 0 13 -4 16 -10z m60 -20 c3 -5 1 -10 -4 -10 -6 0 -11 5 -11 10 0 6
2 10 4 10 3 0 8 -4 11 -10z m35 -20 c0 -5 -2 -10 -4 -10 -3 0 -8 5 -11 10 -3
6 -1 10 4 10 6 0 11 -4 11 -10z m66 -32 c3 -4 -1 -5 -10 -4 -8 1 -18 5 -22 8
-3 4 1 5 10 4 8 -1 18 -5 22 -8z m264 -22 c0 -3 -4 -8 -10 -11 -5 -3 -10 -1
-10 4 0 6 5 11 10 11 6 0 10 -2 10 -4z m-200 -50 c0 -3 -4 -8 -10 -11 -5 -3
-10 -1 -10 4 0 6 5 11 10 11 6 0 10 -2 10 -4z m115 -198 c-8 -45 -14 -47 -12
-4 1 20 5 36 10 36 4 0 5 -14 2 -32z m-60 -18 c3 -5 1 -10 -4 -10 -6 0 -11 5
-11 10 0 6 2 10 4 10 3 0 8 -4 11 -10z"/>
<path d="M7473 1791 c-37 -23 -47 -50 -38 -97 7 -42 41 -66 91 -66 46 0 82 34
91 85 5 31 1 40 -25 67 -36 35 -72 39 -119 11z m112 -27 c1 -5 0 -6 -3 -1 -2
4 -8 5 -13 2 -5 -3 -3 -14 3 -24 9 -15 8 -24 -5 -45 -22 -32 -71 -36 -87 -7
-21 41 21 91 64 75 9 -4 16 -1 16 6 0 13 23 9 25 -6z m-127 -44 c-7 -11 -14
-17 -17 -15 -2 3 1 11 7 18 7 8 8 18 4 22 -4 5 -1 5 5 1 10 -5 10 -11 1 -26z
m142 -10 c0 -16 -4 -30 -8 -30 -5 0 -7 14 -4 30 2 17 6 30 8 30 2 0 4 -13 4
-30z m-36 -55 c-4 -8 -13 -15 -22 -15 -13 0 -12 3 4 15 24 18 25 18 18 0z"/>
<path d="M2685 1438 c-3 -7 -14 -53 -25 -101 -31 -137 -48 -160 -140 -186 -25
-7 -58 -20 -74 -28 -38 -20 -23 -33 65 -62 98 -32 117 -59 149 -206 11 -50 22
-80 30 -80 18 0 26 20 40 95 14 82 51 164 82 184 12 8 46 20 73 27 99 24 108
39 38 65 -100 36 -163 67 -167 83 -8 28 -25 124 -31 174 -4 32 -11 47 -21 47
-8 0 -17 -6 -19 -12z m-2 -128 c-3 -11 -7 -20 -9 -20 -2 0 -4 9 -4 20 0 11 4
20 9 20 5 0 7 -9 4 -20z m58 -126 c12 -13 46 -33 76 -46 l54 -22 -44 -13 c-56
-16 -84 -47 -111 -123 l-23 -63 -17 54 c-23 70 -30 77 -100 109 -56 26 -58 27
-32 34 75 19 126 76 143 158 l7 33 12 -49 c7 -26 22 -59 35 -72z m-11 106 c0
-5 -5 -10 -11 -10 -5 0 -7 5 -4 10 3 6 8 10 11 10 2 0 4 -4 4 -10z m-100 -115
c-7 -9 -15 -13 -19 -10 -3 3 1 10 9 15 21 14 24 12 10 -5z m157 -7 c-3 -8 -6
-5 -6 6 -1 11 2 17 5 13 3 -3 4 -12 1 -19z m58 -18 c3 -5 1 -10 -4 -10 -6 0
-11 5 -11 10 0 6 2 10 4 10 3 0 8 -4 11 -10z m75 -20 c0 -5 -2 -10 -4 -10 -3
0 -8 5 -11 10 -3 6 -1 10 4 10 6 0 11 -4 11 -10z m-418 -25 c-2 -14 -6 -25 -8
-25 -2 0 -4 11 -4 25 0 14 4 25 9 25 4 0 6 -11 3 -25z m-32 11 c0 -2 -7 -7
-16 -10 -8 -3 -12 -2 -9 4 6 10 25 14 25 6z m175 -116 c-3 -5 -1 -10 5 -10 6
0 8 -5 4 -11 -4 -8 -9 -7 -15 2 -7 12 -3 29 7 29 3 0 2 -4 -1 -10z m25 -50 c0
-5 -2 -10 -4 -10 -3 0 -8 5 -11 10 -3 6 -1 10 4 10 6 0 11 -4 11 -10z m7 -72
c-3 -8 -6 -5 -6 6 -1 11 2 17 5 13 3 -3 4 -12 1 -19z m15 -60 c-4 -16 -2 -19
8 -13 9 6 11 4 5 -4 -10 -18 -29 3 -22 23 9 24 16 19 9 -6z"/>
<path d="M5516 1213 c-3 -10 -8 -40 -12 -68 -11 -85 -25 -102 -104 -126 -94
-28 -94 -59 0 -59 68 0 98 -49 100 -163 0 -31 3 -38 17 -35 12 2 21 24 33 78
8 41 19 81 24 88 11 18 41 28 101 36 28 4 54 11 59 16 11 11 -1 30 -19 30 -35
0 -117 23 -135 38 -15 13 -21 35 -26 92 -3 41 -8 78 -11 83 -8 13 -21 8 -27
-10z m-6 -157 c0 -3 -4 -8 -10 -11 -5 -3 -10 -1 -10 4 0 6 5 11 10 11 6 0 10
-2 10 -4z m51 -47 c26 -10 28 -14 15 -21 -9 -5 -14 -14 -10 -19 3 -5 0 -8 -7
-7 -7 2 -18 -8 -26 -22 -7 -14 -13 -19 -13 -12 0 20 -49 64 -62 56 -7 -4 -8
-3 -4 4 4 7 13 12 21 12 8 0 22 11 32 24 12 16 19 19 21 11 2 -7 17 -19 33
-26z m-35 -194 c-1 -8 -5 -17 -8 -21 -5 -4 -4 16 1 34 3 9 9 -1 7 -13z"/>
<path d="M4171 911 c-13 -8 -13 -12 0 -28 13 -16 12 -17 -3 -4 -16 12 -19 10
-28 -14 -16 -43 -12 -65 19 -96 59 -58 151 -23 151 58 0 40 -17 76 -31 68 -5
-4 -8 -1 -7 7 4 16 -79 23 -101 9z m80 -41 c23 -13 25 -47 2 -72 -23 -25 -50
-23 -69 7 -15 23 -15 27 0 50 18 27 36 31 67 15z m-83 -90 c0 -9 -3 -7 -8 5
-5 11 -8 29 -8 40 0 16 2 15 8 -5 4 -14 8 -32 8 -40z"/>
<path d="M6884 891 c-62 -38 -66 -137 -9 -175 36 -24 104 -20 138 7 22 17 30
34 34 70 5 43 3 49 -30 82 -41 41 -84 46 -133 16z m76 -1 c8 -5 11 -10 5 -10
-5 0 -17 5 -25 10 -8 5 -10 10 -5 10 6 0 17 -5 25 -10z m47 -32 c-3 -8 -6 -5
-6 6 -1 11 2 17 5 13 3 -3 4 -12 1 -19z m-22 -13 c29 -28 31 -51 9 -83 -21
-30 -88 -31 -104 -2 -18 34 -8 83 20 97 36 18 48 16 75 -12z m-122 -60 c4 -27
3 -35 -3 -25 -5 8 -10 28 -10 44 0 39 6 30 13 -19z m172 5 c3 -5 1 -10 -4 -10
-6 0 -11 5 -11 10 0 6 2 10 4 10 3 0 8 -4 11 -10z m-105 -70 c0 -5 -5 -10 -11
-10 -5 0 -7 5 -4 10 3 6 8 10 11 10 2 0 4 -4 4 -10z"/>
</g>
</svg>
