<?xml version="1.0" encoding="UTF-8" standalone="yes"?>
<svg version="1.0" xmlns="http://www.w3.org/2000/svg" width="1024.000000pt" height="1024.000000pt" viewBox="0 0 1024.000000 1024.000000" preserveAspectRatio="xMidYMid meet">
  <metadata>
Created by potrace 1.16, written by Peter Selinger 2001-2019
</metadata>
  <g transform="translate(0.000000,1024.000000) scale(0.100000,-0.100000)" fill="#000000" stroke="none">
    <path d="M3524 8725 c-4 -8 -4 -21 -1 -29 3 -8 2 -16 -2 -18 -5 -2 -11 -40&#xA;-14 -85 -10 -135 -40 -171 -167 -199 -85 -18 -111 -34 -91 -58 10 -12 105 -31&#xA;121 -25 8 3 72 -32 88 -47 21 -21 39 -90 53 -202 12 -102 25 -130 50 -105 6 6&#xA;17 66 25 133 18 156 30 178 107 201 31 9 78 19 104 23 47 5 65 19 56 42 -5 14&#xA;-96 44 -131 44 -11 0 -35 6 -53 14 -19 7 -41 12 -49 10 -8 -2 -9 -1 -3 2 10 4&#xA;9 11 -2 28 -17 25 -30 94 -40 201 -4 38 -9 73 -11 77 -9 13 -34 9 -40 -7z m36&#xA;-310 c0 -22 41 -55 69 -55 26 -1 26 -1 -4 -14 -37 -16 -68 -50 -72 -79 -2 -12&#xA;-8 -26 -13 -31 -5 -5 -7 -1 -4 10 7 28 -32 84 -68 96 l-31 11 34 11 c19 7 33&#xA;17 32 24 -2 7 2 11 9 10 7 -2 17 7 22 19 11 23 26 22 26 -2z"/>
    <path d="M5728 8622 c-61 -25 -79 -128 -30 -174 56 -54 123 -55 173 -2 37 39&#xA;34 112 -5 153 -25 26 -37 31 -75 30 -25 0 -54 -3 -63 -7z m88 -73 c23 -26 11&#xA;-67 -23 -75 -20 -5 -31 -2 -45 16 -22 27 -23 44 -3 60 8 7 13 16 10 20 -9 15&#xA;45 -3 61 -21z m2 -114 c-3 -3 -9 2 -12 12 -6 14 -5 15 5 6 7 -7 10 -15 7 -18z"/>
    <path d="M7544 8428 c-5 -7 -16 -66 -25 -131 -21 -150 -28 -158 -153 -186 -48&#xA;-11 -93 -24 -99 -30 -15 -15 9 -38 43 -44 156 -24 184 -42 195 -125 6 -48 22&#xA;-146 31 -194 4 -18 12 -28 24 -28 20 0 23 12 41 160 6 52 18 108 27 123 18 29&#xA;70 49 164 63 35 4 49 11 54 26 8 27 2 31 -75 44 -102 17 -123 30 -143 89 -9&#xA;28 -21 87 -26 133 -12 96 -35 137 -58 100z m29 -249 c2 -19 10 -45 16 -58 14&#xA;-24 66 -51 103 -51 15 -1 5 -8 -27 -19 -27 -10 -49 -23 -48 -29 2 -6 -3 -9&#xA;-11 -6 -16 6 -38 -43 -39 -84 l0 -27 -13 30 c-7 17 -13 37 -14 47 0 33 -70 76&#xA;-112 69 -5 0 -8 3 -8 8 0 5 15 12 34 15 41 8 81 51 91 98 13 60 20 62 28 7z"/>
    <path d="M1815 8145 c-49 -17 -72 -47 -81 -102 -13 -86 29 -145 111 -158 87&#xA;-13 158 49 157 137 -1 54 -45 116 -87 124 -5 1 -21 5 -35 8 -14 3 -43 -1 -65&#xA;-9z m36 -68 c71 10 109 -54 61 -102 -29 -29 -32 -30 -77 -11 -32 14 -40 25&#xA;-36 50 1 4 2 24 3 44 1 20 3 32 5 25 3 -7 19 -9 44 -6z"/>
    <path d="M8495 7560 c-38 -4 -91 -16 -117 -27 -64 -25 -141 -80 -132 -95 4 -6&#xA;3 -8 -2 -5 -14 8 -35 -7 -38 -29 -2 -10 -9 -18 -15 -17 -14 4 -59 -67 -82&#xA;-129 -10 -25 -21 -75 -25 -111 l-7 -65 -46 12 c-106 28 -243 -7 -323 -81 -63&#xA;-59 -89 -116 -89 -190 0 -69 2 -79 23 -118 38 -70 97 -99 237 -115 112 -13&#xA;1204 -21 1299 -10 101 12 162 34 212 77 50 43 90 125 90 183 0 71 -57 189 -83&#xA;173 -5 -3 -7 -1 -4 4 11 18 -32 62 -85 89 -42 21 -63 25 -131 24 -45 -1 -93&#xA;-2 -107 -3 -22 -2 -27 7 -60 93 -55 149 -116 223 -239 289 -45 24 -194 67&#xA;-204 60 -1 -1 -33 -5 -72 -9z m202 -55 c0 -8 -4 -12 -9 -9 -5 3 -6 10 -3 15 9&#xA;13 12 11 12 -6z m-66 -15 c68 -13 120 -40 189 -99 30 -25 58 -45 63 -43 5 1 6&#xA;-1 3 -6 -3 -5 6 -24 19 -42 45 -62 67 -137 63 -220 -4 -86 8 -97 56 -55 16 14&#xA;33 25 38 25 5 0 7 3 5 8 -3 4 36 7 86 7 112 0 152 -17 208 -87 84 -106 69&#xA;-207 -42 -288 -21 -15 -37 -29 -34 -31 29 -29 -1226 -32 -1452 -3 -20 2 -50&#xA;11 -66 19 -16 8 -35 12 -41 8 -6 -3 -8 -3 -4 2 4 4 -2 21 -14 37 -29 41 -35&#xA;108 -14 162 17 45 77 108 121 128 14 6 23 14 21 17 -2 3 31 7 75 9 81 3 148&#xA;-16 191 -55 33 -30 43 -11 41 78 -2 89 17 169 57 237 11 18 18 38 14 43 -3 5&#xA;-2 8 3 7 5 -2 33 18 63 43 72 60 97 75 156 93 59 18 122 20 195 6z m-266 -9&#xA;c3 -5 2 -12 -3 -15 -5 -3 -9 1 -9 9 0 17 3 19 12 6z m-110 -80 c3 -5 2 -12 -3&#xA;-15 -5 -3 -9 1 -9 9 0 17 3 19 12 6z"/>
    <path d="M4705 7423 c-22 -2 -85 -13 -140 -24 -55 -11 -110 -22 -121 -25 -102&#xA;-20 -318 -109 -307 -127 3 -6 1 -7 -5 -3 -35 22 -397 -225 -385 -262 4 -15 3&#xA;-15 -6 -2 -9 12 -28 -3 -112 -90 -55 -58 -109 -121 -120 -140 -11 -19 -33 -55&#xA;-49 -80 -50 -77 -71 -120 -64 -132 4 -6 3 -8 -3 -5 -26 16 -181 -384 -170&#xA;-439 2 -13 1 -21 -4 -19 -9 6 -34 -103 -48 -210 -6 -44 -13 -91 -16 -105 -4&#xA;-14 -8 -127 -9 -253 -3 -202 -5 -230 -21 -247 -10 -11 -22 -20 -26 -20 -4 0&#xA;-44 -22 -88 -50 -44 -27 -83 -50 -85 -50 -14 0 -74 -49 -68 -55 4 -5 1 -5 -5&#xA;-1 -14 8 -126 -61 -119 -73 3 -4 -3 -7 -12 -7 -24 0 -253 -154 -247 -165 3 -5&#xA;0 -7 -7 -4 -29 11 -345 -264 -512 -446 -140 -151 -190 -215 -181 -229 4 -6 1&#xA;-9 -5 -8 -22 5 -53 -65 -58 -133 -7 -98 25 -150 138 -226 87 -59 307 -113 605&#xA;-149 97 -12 659 -16 710 -6 28 6 95 15 150 21 l100 10 105 -54 c58 -29 141&#xA;-64 185 -78 127 -40 348 -73 546 -81 88 -4 100 -7 155 -40 120 -72 264 -106&#xA;442 -106 110 0 255 12 312 25 14 3 46 10 71 15 233 46 568 157 552 183 -3 6&#xA;-1 7 5 3 21 -13 155 52 312 152 73 47 238 213 270 271 6 13 18 44 26 69 12 41&#xA;20 51 65 76 139 77 374 262 491 385 98 103 184 226 199 287 9 34 19 46 59 69&#xA;27 16 46 33 43 38 -3 6 -1 7 5 3 6 -3 28 3 49 15 98 55 123 72 117 80 -3 5 2&#xA;6 10 3 13 -5 66 24 86 46 3 3 56 38 117 79 63 41 110 78 106 84 -3 5 -1 7 5 3&#xA;9 -5 47 22 184 132 62 49 107 95 102 103 -3 5 -2 8 3 7 23 -7 170 153 158 172&#xA;-4 6 -1 9 6 8 17 -4 87 129 95 180 9 62 -12 126 -53 162 -68 60 -285 152 -314&#xA;134 -7 -4 -9 -3 -6 3 9 14 -39 25 -258 61 -395 66 -549 77 -966 68 l-306 -6&#xA;-78 152 c-95 188 -163 300 -178 291 -6 -3 -7 -1 -3 6 7 10 -39 94 -68 124 -7&#xA;7 -34 41 -61 77 -64 85 -104 127 -200 208 -141 120 -211 167 -189 130 4 -8 3&#xA;-10 -2 -5 -5 5 -9 14 -9 20 0 28 -305 158 -400 171 -16 2 -37 6 -45 9 -44 17&#xA;-357 31 -455 20z m395 -79 c193 -25 380 -101 538 -217 46 -34 88 -61 93 -60 5&#xA;2 8 0 7 -5 -1 -4 36 -45 83 -92 47 -47 109 -114 139 -150 29 -36 58 -64 63&#xA;-62 4 1 6 -1 3 -6 -3 -4 21 -47 52 -94 54 -82 90 -142 138 -230 11 -21 24 -35&#xA;28 -31 4 4 4 0 1 -9 -4 -10 10 -47 35 -92 l42 -76 -214 1 c-117 0 -229 -2&#xA;-248 -4 -19 -3 -56 -8 -81 -12 -25 -3 -57 -7 -70 -10 -13 -2 -50 -6 -83 -10&#xA;-64 -7 -88 -11 -161 -25 -113 -22 -147 -30 -156 -36 -6 -3 -13 3 -16 15 -3 11&#xA;-9 18 -14 15 -5 -3 -6 1 -4 8 7 18 -122 272 -178 350 -83 117 -208 212 -325&#xA;248 -90 28 -260 28 -362 -1 -127 -35 -335 -151 -335 -187 0 -7 -4 -12 -10 -13&#xA;-17 -1 -45 -31 -38 -42 3 -5 1 -7 -5 -4 -13 9 -64 -51 -56 -65 4 -6 2 -8 -4&#xA;-4 -6 3 -30 -23 -56 -63 -59 -89 -107 -203 -133 -316 -18 -83 -17 -301 2 -416&#xA;6 -35 5 -36 -39 -53 -27 -11 -43 -22 -40 -28 4 -7 2 -8 -4 -4 -23 14 -438&#xA;-217 -426 -236 5 -7 2 -8 -5 -4 -7 5 -21 0 -32 -10 -20 -18 -20 -16 -18 182 0&#xA;109 7 247 15 307 14 112 65 331 107 455 14 39 23 72 21 72 -2 0 7 21 20 48 13&#xA;26 38 79 57 117 18 39 58 106 88 150 29 44 54 85 54 92 0 7 4 10 8 7 4 -2 17&#xA;8 28 23 17 21 19 28 9 35 -9 6 -7 8 7 6 12 -2 19 2 18 9 -2 7 0 12 5 11 14 -4&#xA;147 134 144 151 -2 11 0 12 5 4 6 -8 28 3 73 39 36 28 64 54 63 59 -2 4 3 6&#xA;11 3 7 -3 20 1 28 9 23 23 167 101 258 140 174 75 348 115 545 125 137 8 167&#xA;7 325 -14z m208 -9 c-3 -3 -9 2 -12 12 -6 14 -5 15 5 6 7 -7 10 -15 7 -18z&#xA;m23 -8 c-10 -9 -11 -8 -5 6 3 10 9 15 12 12 3 -3 0 -11 -7 -18z m143 -55 c3&#xA;-5 -1 -9 -9 -9 -8 0 -12 4 -9 9 3 4 7 8 9 8 2 0 6 -4 9 -8z m-790 -520 c3 -5&#xA;-1 -9 -9 -9 -8 0 -12 4 -9 9 3 4 7 8 9 8 2 0 6 -4 9 -8z m-102 -32 c124 10&#xA;253 -40 361 -139 111 -103 171 -198 267 -426 39 -91 47 -114 49 -138 1 -5 6&#xA;-5 13 -1 7 4 8 3 4 -4 -4 -6 0 -35 9 -64 9 -29 18 -68 21 -86 3 -19 12 -52 20&#xA;-74 12 -36 19 -98 11 -98 -2 0 -68 -23 -148 -50 -195 -68 -407 -131 -719 -215&#xA;-191 -51 -169 -45 -374 -88 l-158 -34 -10 29 c-6 15 -14 26 -18 23 -5 -3 -12&#xA;0 -16 6 -4 8 -3 9 4 5 18 -11 15 13 -12 90 -12 38 -26 90 -30 117 -4 26 -10&#xA;45 -14 43 -7 -4 -8 11 -13 234 -3 156 6 220 48 335 14 39 26 78 26 87 1 9 4&#xA;15 8 12 10 -6 50 66 43 77 -3 5 -1 8 4 7 14 -5 64 60 56 73 -4 7 -3 9 3 6 5&#xA;-3 30 14 54 40 111 115 310 222 412 223 20 0 26 4 21 13 -5 8 -4 9 4 2 6 -6&#xA;38 -8 74 -5z m1595 -535 c0 -8 -4 -12 -9 -9 -5 3 -6 10 -3 15 9 13 12 11 12&#xA;-6z m-561 -30 c-1 -8 -5 -17 -8 -21 -5 -4 -4 16 1 34 3 9 9 -1 7 -13z m691 -8&#xA;c12 -12 -289 -176 -454 -247 -30 -13 -50 -27 -46 -33 4 -6 1 -7 -6 -2 -7 4&#xA;-23 2 -34 -4 -12 -5 -44 -19 -72 -29 -27 -11 -101 -40 -163 -66 -63 -25 -115&#xA;-46 -117 -46 -2 0 -8 24 -15 53 -15 65 -48 180 -66 230 -8 20 -14 41 -14 46 0&#xA;11 60 28 145 41 39 6 95 15 125 20 30 5 73 11 95 14 22 3 60 8 85 12 115 16&#xA;237 22 378 19 85 -2 156 -6 159 -8z m1033 -6 c41 -6 109 -15 150 -21 252 -31&#xA;434 -73 579 -134 34 -15 67 -24 74 -20 7 4 9 4 5 -1 -4 -4 -3 -14 2 -20 7 -9&#xA;-21 -46 -100 -132 -60 -66 -106 -124 -102 -128 4 -5 2 -5 -4 -2 -6 4 -20 -1&#xA;-31 -11 -63 -54 -118 -97 -198 -156 -49 -37 -89 -72 -87 -77 1 -6 -2 -8 -8 -4&#xA;-5 3 -33 -12 -62 -33 -29 -22 -101 -70 -161 -107 -63 -39 -104 -71 -101 -77 4&#xA;-7 2 -8 -4 -4 -15 9 -75 -22 -67 -34 3 -6 0 -8 -7 -5 -7 2 -67 -25 -133 -61&#xA;-197 -107 -633 -319 -730 -355 -42 -16 -53 -24 -49 -37 5 -13 4 -14 -4 -3 -8&#xA;11 -26 6 -98 -24 -49 -20 -100 -41 -114 -47 -58 -24 -345 -124 -460 -160 -513&#xA;-162 -655 -203 -980 -283 -96 -24 -200 -48 -230 -54 -30 -5 -106 -21 -168 -35&#xA;-377 -85 -734 -134 -1197 -166 -108 -8 -641 -4 -700 4 -277 40 -347 54 -450&#xA;87 -38 13 -76 23 -83 22 -7 0 -11 2 -8 5 3 3 1 11 -5 19 -9 10 -5 23 17 56 16&#xA;23 29 47 29 52 0 6 5 10 10 10 6 0 47 41 92 90 45 50 129 137 187 194 58 58&#xA;102 109 99 114 -4 6 -1 7 6 2 8 -4 25 4 44 23 57 53 324 244 465 333 39 24 60&#xA;44 56 51 -4 7 -3 8 5 4 7 -5 28 3 49 16 20 14 64 40 97 58 33 18 62 36 65 39&#xA;3 4 17 14 31 23 l27 17 6 -38 c8 -54 58 -95 148 -122 63 -19 99 -23 268 -24&#xA;230 -3 421 19 398 45 -11 12 -11 12 4 1 10 -8 31 -10 55 -7 141 22 182 29 179&#xA;35 -2 3 19 7 48 8 28 1 123 20 211 42 88 22 171 42 185 45 82 16 326 81 328&#xA;88 2 4 7 6 12 3 8 -5 189 51 445 137 118 40 430 163 450 178 6 4 31 15 57 25&#xA;26 10 45 21 42 26 -3 5 1 6 9 3 8 -3 21 1 28 8 8 7 21 14 29 16 34 6 129 56&#xA;123 65 -3 6 -1 7 5 3 16 -10 154 72 146 86 -4 7 -2 8 4 4 15 -9 94 43 85 57&#xA;-3 5 -1 7 4 4 17 -10 100 59 128 107 33 56 33 109 0 152 l-25 33 47 4 c94 9&#xA;759 -1 833 -12z m-913 -43 c15 -14 23 -33 23 -53 0 -53 -126 -161 -303 -259&#xA;-37 -20 -65 -41 -62 -46 3 -6 0 -7 -7 -5 -8 3 -45 -10 -83 -28 -39 -18 -85&#xA;-39 -102 -46 -18 -7 -30 -18 -26 -24 3 -6 1 -7 -5 -3 -10 6 -81 -21 -262 -99&#xA;-30 -13 -102 -40 -160 -61 -58 -20 -108 -42 -112 -48 -5 -8 -8 -7 -8 1 0 9&#xA;-17 5 -53 -11 -29 -13 -102 -38 -163 -55 -146 -43 -174 -53 -168 -62 2 -4 -4&#xA;-5 -13 -3 -10 2 -58 -6 -108 -19 -49 -14 -137 -36 -195 -51 -58 -15 -130 -33&#xA;-160 -41 -30 -8 -89 -22 -130 -30 -41 -9 -84 -18 -95 -21 -78 -17 -64 -14&#xA;-190 -35 -377 -63 -676 -69 -812 -17 -32 12 -62 21 -66 20 -5 -1 -6 2 -3 7 4&#xA;5 2 12 -4 16 -14 9 -12 51 3 64 10 7 87 11 238 11 145 -1 272 5 359 15 151 18&#xA;461 76 560 105 36 10 76 21 90 23 23 4 193 48 247 63 13 3 21 10 18 14 -3 5 0&#xA;12 6 16 8 5 9 3 4 -6 -6 -10 -1 -12 25 -6 78 15 110 27 104 38 -5 7 -3 8 5 4&#xA;17 -11 142 24 134 37 -3 6 -1 7 6 3 15 -10 122 24 115 35 -3 5 2 6 10 3 19 -7&#xA;297 87 290 98 -3 4 1 5 9 2 13 -5 130 36 247 86 25 10 55 22 68 25 12 4 19 11&#xA;16 17 -4 6 -2 8 4 5 19 -13 456 198 446 215 -4 7 -2 8 5 4 10 -6 82 32 199&#xA;106 35 21 32 22 59 -4z m1799 -219 c21 -41 12 -86 -31 -166 -18 -33 -32 -64&#xA;-29 -67 2 -3 1 -4 -2 -2 -3 3 -37 -30 -74 -73 -38 -43 -94 -99 -125 -125 -48&#xA;-42 -54 -50 -43 -65 11 -14 11 -14 -3 -3 -15 11 -32 0 -130 -79 -63 -50 -121&#xA;-94 -129 -97 -29 -11 -80 -54 -74 -63 3 -5 -1 -6 -8 -4 -14 6 -81 -38 -73 -47&#xA;3 -2 -1 -5 -8 -5 -23 0 -69 -35 -57 -43 7 -4 2 -7 -13 -7 -13 0 -54 -18 -91&#xA;-39 -70 -41 -78 -45 -241 -133 -55 -30 -102 -57 -105 -60 -3 -3 -10 -6 -16 -6&#xA;-6 0 -74 -31 -151 -69 -108 -53 -140 -73 -136 -85 4 -12 3 -13 -5 -3 -7 11&#xA;-20 8 -65 -12 -31 -14 -58 -26 -61 -26 -3 0 -38 -15 -78 -34 -143 -66 -184&#xA;-84 -278 -120 -135 -52 -172 -67 -195 -77 -46 -19 -207 -79 -312 -115 -61 -21&#xA;-109 -42 -107 -46 2 -3 -1 -10 -7 -14 -8 -4 -9 -3 -5 4 10 17 -9 15 -85 -10&#xA;-37 -12 -65 -26 -62 -31 3 -6 1 -7 -4 -4 -6 4 -51 -4 -99 -18 -49 -14 -108&#xA;-31 -131 -37 -23 -7 -40 -14 -38 -17 2 -4 -7 -6 -18 -7 -12 -1 -94 -20 -182&#xA;-44 -238 -63 -331 -86 -422 -105 -50 -11 -80 -22 -76 -28 3 -6 1 -7 -6 -3 -6&#xA;4 -93 -9 -194 -28 -100 -20 -195 -38 -212 -41 -16 -3 -91 -16 -165 -29 -74&#xA;-14 -184 -32 -245 -41 -60 -9 -113 -22 -117 -28 -6 -9 -8 -9 -8 0 0 7 -14 10&#xA;-37 7 -88 -9 -143 -14 -225 -20 -55 -4 -85 -11 -81 -17 3 -6 2 -8 -3 -5 -5 3&#xA;-143 3 -307 -1 -163 -3 -298 -3 -300 1 -1 3 -31 9 -67 12 -36 2 -94 9 -130 15&#xA;-36 6 -94 15 -130 20 -97 15 -216 48 -278 76 -30 14 -59 22 -65 18 -5 -3 -7&#xA;-1 -4 4 4 6 -11 23 -33 38 -42 29 -80 81 -80 109 0 9 -6 16 -12 17 -10 0 -10&#xA;2 0 6 6 2 9 10 5 16 -4 6 -1 8 8 4 143 -62 261 -93 469 -123 135 -19 658 -27&#xA;885 -13 155 10 487 45 550 59 22 5 69 12 105 15 36 4 97 13 135 21 39 8 84 16&#xA;100 19 41 6 390 80 495 104 47 11 123 29 170 40 92 21 374 93 455 116 134 38&#xA;201 58 210 64 6 3 15 6 20 6 18 1 344 107 400 130 17 7 51 18 77 25 28 7 45&#xA;17 41 23 -3 5 -1 7 4 4 15 -9 253 75 382 134 24 11 65 29 92 39 26 11 87 37&#xA;134 60 48 22 89 40 92 40 2 0 114 54 249 120 159 78 242 125 238 132 -4 7 -3&#xA;8 4 4 14 -8 124 53 116 65 -3 5 1 7 8 4 18 -6 214 110 210 125 -1 6 2 9 8 5&#xA;11 -7 213 126 325 214 181 143 338 294 411 396 21 30 42 55 46 55 4 0 15 -14&#xA;24 -31z m-3040 -285 c1 -9 0 -13 -4 -10 -3 4 -7 14 -8 22 -1 9 0 13 4 10 3 -4&#xA;7 -14 8 -22z m-1382 -66 c3 -13 10 -49 16 -80 6 -32 15 -58 19 -58 3 0 7 -8 7&#xA;-17 0 -10 3 -30 7 -45 7 -25 4 -28 -30 -36 -98 -24 -199 -32 -376 -32 -137 1&#xA;-187 4 -174 11 9 6 14 15 11 21 -4 7 -2 8 5 4 7 -5 29 3 51 18 22 14 44 26 49&#xA;26 6 0 14 6 18 14 4 8 13 15 18 16 12 2 47 20 220 111 72 37 136 68 142 68 7&#xA;1 15 -9 17 -21z m654 -130 c-2 -6 -12 -12 -21 -14 -9 -1 -15 2 -11 7 3 5 10 7&#xA;15 4 5 -4 9 -1 9 4 0 6 3 11 6 11 3 0 4 -5 2 -12z m312 -174 c0 -8 -19 -13&#xA;-24 -6 -3 5 1 9 9 9 8 0 15 -2 15 -3z m2275 -521 c-17 -31 -67 -96 -112 -143&#xA;-46 -48 -79 -91 -75 -95 4 -5 2 -5 -4 -2 -6 3 -33 -13 -60 -36 -106 -92 -255&#xA;-200 -372 -271 -36 -22 -59 -42 -56 -48 4 -7 2 -8 -4 -4 -6 4 -51 -18 -99 -48&#xA;-89 -55 -391 -206 -412 -206 -6 0 -11 -4 -11 -8 0 -5 -6 -9 -12 -9 -7 0 -69&#xA;-22 -138 -48 -69 -25 -191 -66 -273 -89 -81 -23 -144 -46 -140 -51 5 -4 2 -5&#xA;-4 -1 -7 4 -68 -6 -135 -23 -68 -16 -141 -33 -163 -36 -64 -9 -168 -25 -195&#xA;-31 -114 -21 -186 -26 -395 -29 -285 -5 -399 6 -615 59 -99 25 -221 79 -207&#xA;92 6 7 42 13 132 24 100 12 420 69 530 95 26 6 61 13 108 20 25 4 35 10 31 18&#xA;-5 9 -4 9 5 1 8 -8 23 -9 44 -3 70 19 254 59 270 59 9 0 17 5 17 11 0 5 4 8 9&#xA;5 8 -5 70 10 326 78 184 50 554 164 701 217 44 16 86 29 93 29 7 0 9 5 5 12&#xA;-4 6 -3 8 3 5 9 -6 85 19 168 53 17 7 35 14 41 15 61 13 326 124 320 134 -2 3&#xA;8 7 22 7 15 1 74 24 132 52 273 130 496 235 518 243 14 6 21 14 16 21 -5 10&#xA;-4 10 7 0 11 -10 8 -22 -16 -69z m-1988 -688 c0 -8 -4 -12 -9 -9 -5 3 -6 10&#xA;-3 15 9 13 12 11 12 -6z m1252 -34 c-47 -90 -249 -251 -431 -342 -141 -71&#xA;-364 -159 -441 -174 -9 -2 -21 -6 -26 -9 -11 -7 -262 -58 -283 -58 -10 1 -18&#xA;-2 -18 -6 0 -9 -20 -10 -235 -13 -109 -2 -190 2 -225 10 -62 14 -171 50 -183&#xA;61 -5 4 27 11 70 14 139 12 378 47 381 56 2 4 11 6 21 3 28 -7 361 63 361 76&#xA;0 5 11 6 24 4 13 -3 29 2 37 10 7 7 20 12 29 10 23 -6 387 120 525 182 119 53&#xA;332 161 345 175 10 10 55 39 62 39 4 1 -2 -17 -13 -38z m-4545 -87 c3 -8 2&#xA;-12 -4 -9 -6 3 -10 10 -10 16 0 14 7 11 14 -7z m461 -183 c3 -5 2 -12 -3 -15&#xA;-5 -3 -9 1 -9 9 0 17 3 19 12 6z"/>
    <path d="M4871 7141 c-26 -17 -4 -39 46 -46 256 -34 464 -124 611 -265 19 -18&#xA;37 -28 45 -24 6 4 9 4 5 -1 -4 -4 11 -29 35 -55 54 -59 92 -110 139 -182 21&#xA;-32 41 -58 44 -58 4 0 12 8 19 17 11 14 8 26 -13 70 -14 28 -30 49 -35 46 -6&#xA;-3 -7 -1 -4 4 12 19 -138 197 -156 186 -6 -3 -7 -2 -4 4 11 17 -108 118 -126&#xA;106 -6 -3 -7 -1 -3 5 8 14 -30 36 -46 26 -7 -4 -8 -3 -4 4 8 14 -90 66 -106&#xA;56 -6 -4 -8 -3 -5 3 11 17 -157 79 -263 97 -73 12 -166 16 -179 7z"/>
    <path d="M4203 6408 c-42 -44 -84 -115 -129 -218 -39 -89 -77 -240 -68 -265&#xA;11 -28 33 -15 39 23 4 20 11 48 16 62 5 14 10 39 12 57 1 17 5 29 9 27 5 -3&#xA;27 46 33 76 4 15 41 86 48 88 4 2 7 8 7 13 0 11 48 86 73 114 18 20 19 46 2&#xA;52 -6 2 -25 -11 -42 -29z"/>
    <path d="M6703 5834 c-7 -3 -13 -14 -13 -24 0 -20 10 -23 125 -40 217 -31 425&#xA;-93 618 -182 95 -44 111 -49 123 -36 8 8 12 21 9 30 -8 20 -201 111 -217 102&#xA;-7 -4 -8 -3 -4 4 4 7 -12 17 -46 27 -29 8 -55 15 -58 15 -3 -1 -25 6 -50 15&#xA;-50 18 -255 70 -310 79 -60 9 -164 15 -177 10z m201 -46 c-5 -8 -1 -9 12 -4&#xA;14 5 16 4 7 -5 -13 -13 -37 -3 -28 12 4 5 8 9 11 9 3 0 2 -5 -2 -12z"/>
    <path d="M6158 5465 c-26 -7 -62 -21 -79 -32 -38 -22 -78 -94 -79 -141 0 -40&#xA;17 -75 32 -66 7 5 8 2 3 -5 -9 -15 28 -57 69 -78 98 -51 287 3 335 95 7 12 9&#xA;28 5 34 -4 7 -3 8 4 4 8 -5 12 5 12 33 0 42 -35 115 -51 105 -5 -3 -8 0 -7 8&#xA;9 39 -154 68 -244 43z m181 -74 c17 -13 36 -32 43 -44 12 -23 18 -88 7 -82 -3&#xA;3 -17 -7 -29 -20 -51 -55 -201 -68 -249 -24 -51 48 -61 118 -22 153 54 49 192&#xA;58 250 17z"/>
    <path d="M4913 4986 c-57 -18 -115 -55 -107 -68 4 -6 3 -8 -3 -5 -15 9 -52&#xA;-34 -63 -74 -25 -86 4 -155 80 -194 58 -29 105 -31 177 -6 150 51 212 167 148&#xA;276 -41 70 -140 101 -232 71z m121 -60 c48 -20 77 -66 74 -114 -2 -22 -6 -38&#xA;-9 -36 -3 2 -15 -10 -27 -25 -27 -37 -102 -63 -170 -59 -28 2 -49 5 -46 7 2 2&#xA;-11 15 -29 30 -30 23 -33 31 -31 70 2 33 9 51 34 76 22 23 28 34 18 38 -7 2&#xA;-2 5 12 5 14 0 41 5 60 10 50 14 76 14 114 -2z"/>
    <path d="M3080 4774 c-60 -32 -196 -139 -193 -153 2 -5 -3 -8 -11 -5 -17 6&#xA;-299 -283 -290 -298 4 -6 2 -8 -3 -5 -11 7 -49 -42 -45 -56 1 -5 -1 -6 -6 -3&#xA;-5 3 -22 -11 -39 -32 -44 -55 -47 -63 -32 -74 11 -7 10 -8 -5 -6 -10 2 -25 -7&#xA;-33 -19 -14 -21 -14 -23 2 -29 19 -8 79 50 205 196 125 145 306 318 422 402&#xA;39 28 65 54 62 60 -4 7 -2 8 5 4 14 -9 27 22 15 34 -5 5 -29 -2 -54 -16z"/>
    <path d="M3645 4760 c-84 -18 -181 -84 -212 -143 -25 -49 -13 -121 27 -162 40&#xA;-42 85 -58 157 -57 193 2 314 242 168 332 -40 25 -102 38 -140 30z m104 -86&#xA;c39 -32 51 -86 26 -114 -10 -11 -15 -20 -11 -20 4 0 -6 -11 -22 -25 -37 -31&#xA;-93 -55 -127 -55 -37 0 -98 34 -114 63 -15 28 -12 86 6 105 7 8 10 18 7 24 -4&#xA;6 -3 8 3 5 5 -3 31 5 58 18 67 34 133 34 174 -1z"/>
    <path d="M1571 6068 c-5 -14 -12 -50 -16 -82 -9 -69 -21 -83 -83 -92 -57 -8&#xA;-82 -20 -82 -39 0 -15 4 -16 103 -35 50 -10 57 -14 57 -35 0 -19 4 -23 18 -19&#xA;16 5 16 5 0 -6 -20 -13 -22 -39 -7 -92 19 -71 58 -35 60 55 2 84 8 91 79 99&#xA;34 4 68 12 73 17 16 16 0 40 -30 46 -15 3 -46 11 -68 18 -38 11 -40 15 -48 62&#xA;-15 94 -22 118 -34 123 -7 2 -17 -7 -22 -20z"/>
    <path d="M9619 6045 c-6 -5 -157 -26 -184 -26 -11 0 -60 -6 -110 -15 -49 -8&#xA;-106 -17 -125 -20 -19 -3 -105 -19 -190 -35 -429 -82 -444 -86 -448 -117 -3&#xA;-19 0 -22 20 -18 13 3 61 10 108 16 157 20 351 56 343 65 -5 4 -3 6 2 3 14 -8&#xA;260 29 430 63 120 25 195 47 195 59 0 10 -35 31 -41 25z"/>
    <path d="M9280 5559 c-19 -4 -82 -17 -140 -28 -58 -12 -168 -34 -245 -51 -77&#xA;-16 -192 -39 -255 -50 -179 -32 -407 -90 -421 -106 -9 -11 -9 -18 -1 -26 8 -8&#xA;34 -7 99 5 48 10 99 19 113 22 14 2 113 22 220 45 107 22 233 48 280 56 47 8&#xA;93 17 102 20 10 3 30 7 45 10 81 15 270 68 282 80 27 25 -14 37 -79 23z"/>
    <path d="M9075 5103 c-75 -10 -604 -117 -905 -183 -74 -16 -182 -39 -240 -50&#xA;-58 -11 -123 -25 -145 -30 -238 -54 -252 -60 -239 -95 5 -12 14 -15 33 -10 63&#xA;15 161 35 221 45 36 5 97 17 135 25 191 40 265 55 315 65 30 5 87 17 125 25&#xA;39 9 178 38 310 66 403 83 491 110 444 140 -8 5 -16 8 -19 7 -3 0 -18 -3 -35&#xA;-5z m35 -19 c0 -8 -19 -13 -24 -6 -3 5 1 9 9 9 8 0 15 -2 15 -3z m-325 -73 c3&#xA;-5 2 -12 -3 -15 -5 -3 -9 1 -9 9 0 17 3 19 12 6z m-1120 -239 c-3 -3 -11 0&#xA;-18 7 -9 10 -8 11 6 5 10 -3 15 -9 12 -12z"/>
    <path d="M8110 4480 c-19 -5 -51 -11 -70 -14 -59 -9 -178 -35 -325 -71 -77&#xA;-18 -183 -43 -235 -55 -158 -36 -303 -79 -317 -93 -12 -12 -12 -15 0 -25 11&#xA;-9 36 -7 108 9 52 12 110 25 129 29 19 5 94 22 165 38 72 17 182 42 245 56&#xA;312 70 381 89 391 108 8 15 6 18 -10 18 -11 0 -25 2 -33 4 -7 2 -29 0 -48 -4z"/>
    <path d="M8485 3690 c-5 -9 -21 -132 -27 -207 -1 -18 -4 -30 -6 -28 -3 2 -11&#xA;-2 -19 -10 -8 -8 -52 -26 -99 -40 -66 -21 -84 -30 -84 -45 0 -20 10 -24 75&#xA;-35 113 -18 119 -25 144 -175 14 -82 19 -95 36 -95 16 0 21 10 28 55 4 30 6&#xA;70 5 88 -2 17 -1 32 2 32 3 0 11 13 18 29 13 30 51 50 135 72 26 6 50 15 52&#xA;19 10 16 -8 40 -34 46 -81 18 -140 40 -150 55 -6 10 -15 49 -21 86 -5 37 -12&#xA;79 -14 93 -3 14 -5 32 -5 41 -1 19 -27 33 -36 19z m33 -280 c9 -20 25 -33 45&#xA;-39 18 -5 24 -10 15 -10 -10 -1 -18 -5 -18 -11 0 -5 -6 -10 -13 -10 -7 0 -22&#xA;-15 -32 -32 -18 -31 -20 -31 -23 -11 -3 24 -43 57 -77 66 -15 4 -14 5 8 6 30&#xA;1 67 32 67 56 0 25 14 17 28 -15z"/>
    <path d="M2384 3099 c-79 -7 -170 -31 -226 -60 -52 -27 -109 -79 -101 -93 3&#xA;-6 3 -8 -2 -4 -11 11 -36 -12 -28 -25 3 -5 1 -7 -4 -4 -13 8 -70 -78 -90 -136&#xA;-8 -23 -17 -69 -19 -102 -2 -33 -4 -61 -4 -62 0 -1 -21 4 -47 12 -81 25 -173&#xA;19 -246 -14 -35 -16 -78 -44 -96 -61 -27 -27 -30 -35 -19 -49 11 -14 11 -14&#xA;-3 -3 -21 16 -28 8 -67 -75 -38 -80 -41 -157 -9 -233 13 -30 29 -54 35 -53 7&#xA;2 11 0 10 -5 -10 -36 111 -119 211 -143 89 -21 155 -24 586 -23 464 0 886 20&#xA;964 45 57 18 126 57 123 70 -1 6 2 8 7 5 11 -7 51 40 51 60 0 7 5 14 12 16 20&#xA;7 22 114 3 183 -14 53 -25 72 -66 110 -41 39 -53 45 -65 34 -12 -9 -13 -9 -9&#xA;2 16 42 -183 66 -275 34 -23 -8 -46 -15 -51 -15 -5 0 -9 42 -9 93 0 56 -6 115&#xA;-16 148 -21 70 -64 150 -77 142 -6 -4 -7 -1 -3 6 11 18 -99 125 -119 117 -9&#xA;-3 -14 -2 -11 3 14 22 -111 70 -209 80 -33 3 -92 3 -131 0z m164 -69 c75 -14&#xA;138 -47 202 -106 31 -30 61 -50 65 -46 5 4 5 1 1 -6 -9 -16 12 -44 27 -35 6 4&#xA;7 1 2 -6 -7 -12 11 -60 28 -72 15 -11 20 -172 7 -234 -27 -131 -16 -147 67&#xA;-95 87 54 193 65 285 30 61 -23 61 -23 53 -11 -3 5 -1 12 4 16 6 3 8 -3 6 -14&#xA;-2 -11 5 -27 16 -37 38 -35 62 -86 68 -149 4 -35 3 -61 -1 -59 -4 3 -8 1 -8&#xA;-4 0 -16 -72 -92 -101 -107 -37 -20 -154 -43 -249 -49 -41 -3 -327 -8 -635&#xA;-12 -545 -6 -563 -6 -658 14 -109 24 -148 43 -201 102 -70 78 -83 168 -38 256&#xA;23 44 90 111 143 142 34 21 183 47 173 30 -3 -4 7 -8 21 -8 28 0 64 -16 122&#xA;-55 31 -22 39 -24 51 -12 11 12 11 20 -2 52 -20 47 -20 137 -1 200 8 27 11 53&#xA;8 58 -3 6 -2 8 3 5 5 -3 20 10 32 31 13 20 46 54 74 76 28 22 59 48 69 58 11&#xA;9 19 15 19 12 0 -2 19 3 43 12 85 32 210 41 305 23z m-581 -352 c-3 -8 -6 -5&#xA;-6 6 -1 11 2 17 5 13 3 -3 4 -12 1 -19z"/>
    <path d="M7147 2538 c-4 -13 -9 -54 -12 -93 -9 -99 -31 -162 -63 -183 -15 -9&#xA;-29 -19 -32 -22 -3 -3 -14 -6 -25 -6 -27 -2 -97 -14 -113 -19 -7 -3 -12 -15&#xA;-10 -27 2 -19 12 -24 53 -31 28 -4 71 -14 96 -23 66 -21 78 -51 104 -256 7&#xA;-50 14 -61 37 -53 10 4 14 21 14 55 -1 28 2 50 7 50 4 0 7 16 7 35 0 64 21&#xA;134 45 153 13 11 52 25 87 31 87 17 110 28 106 49 -2 13 -26 22 -97 37 -108&#xA;23 -130 42 -138 119 -3 25 -8 44 -12 42 -3 -2 -7 28 -9 67 -2 65 -13 97 -32&#xA;97 -4 0 -10 -10 -13 -22z m35 -280 c6 -17 27 -35 57 -50 l46 -23 -30 -5 c-36&#xA;-6 -73 -57 -82 -114 l-7 -41 -8 40 c-13 64 -30 99 -39 83 -7 -10 -9 -9 -9 3 0&#xA;19 -19 29 -58 30 l-27 1 28 12 c15 7 25 15 22 17 -3 3 5 5 16 5 23 -1 58 38&#xA;64 70 2 10 4 24 5 29 1 6 4 1 7 -10 2 -11 9 -32 15 -47z m193 -47 c3 -5 2 -12&#xA;-3 -15 -5 -3 -9 1 -9 9 0 17 3 19 12 6z"/>
    <path d="M4665 1714 c-11 -8 -19 -20 -17 -25 1 -6 -2 -8 -7 -4 -11 6 -29 -22&#xA;-41 -66 -6 -20 -5 -29 3 -29 9 0 9 -2 0 -8 -15 -10 14 -78 46 -106 38 -35 187&#xA;-31 166 4 -3 6 0 7 8 4 22 -8 57 56 57 102 0 44 -34 109 -52 98 -7 -4 -8 -3&#xA;-4 4 20 33 -120 56 -159 26z m40 -43 c-3 -6 14 -8 40 -7 25 2 43 1 40 -2 -3&#xA;-3 1 -12 9 -21 21 -25 26 -64 11 -85 -8 -10 -13 -22 -11 -25 2 -3 -16 -7 -40&#xA;-9 -36 -2 -49 2 -69 22 -31 31 -31 81 -1 102 11 8 17 14 13 14 -5 0 -5 5 -2&#xA;10 3 6 8 10 11 10 3 0 3 -4 -1 -9z"/>
  </g>
  <title>Ufo Zooming</title>
  <desc>Ufo Zooming</desc>
</svg>