<?xml version="1.0" encoding="UTF-8" standalone="yes"?>
<svg version="1.0" xmlns="http://www.w3.org/2000/svg" width="1024.000000pt" height="1024.000000pt" viewBox="0 0 1024.000000 1024.000000" preserveAspectRatio="xMidYMid meet">
  <metadata>
Created by potrace 1.16, written by Peter Selinger 2001-2019
</metadata>
  <g transform="translate(0.000000,1024.000000) scale(0.100000,-0.100000)" fill="#000000" stroke="none">
    <path d="M889 9649 c-121 -7 -186 -36 -258 -115 -39 -42 -56 -71 -71 -122 -20&#xA;-67 -20 -78 -18 -4367 l3 -4300 27 -57 c37 -79 96 -140 171 -174 l62 -29 4335&#xA;0 4335 0 62 29 c73 33 143 103 176 173 l22 48 0 4330 0 4330 -26 55 c-45 95&#xA;-154 182 -244 196 -52 7 -8447 11 -8576 3z m8609 -98 c65 -29 125 -95 149&#xA;-164 17 -50 18 -232 18 -4322 0 -4032 -1 -4273 -18 -4320 -23 -67 -63 -114&#xA;-128 -150 l-54 -30 -4305 -3 c-4834 -2 -4369 -10 -4458 76 -33 32 -54 64 -66&#xA;98 -15 46 -16 370 -14 4344 l3 4295 30 54 c36 66 86 108 157 132 51 18 207 18&#xA;4343 16 l4290 -2 53 -24z"/>
    <path d="M1913 9305 c-82 -58 -95 -372 -23 -580 39 -112 133 -244 217 -305&#xA;l49 -34 -4 -62 c-2 -34 1 -78 8 -98 10 -32 9 -42 -12 -86 -22 -47 -25 -50 -54&#xA;-45 -49 8 -181 -14 -268 -46 -117 -43 -210 -102 -302 -193 -122 -122 -191&#xA;-233 -253 -409 -58 -166 -74 -270 -75 -487 -1 -183 1 -199 24 -265 20 -55 32&#xA;-73 58 -88 33 -20 33 -20 100 6 114 43 106 44 141 -17 37 -67 89 -108 145&#xA;-115 32 -5 42 -10 44 -28 2 -16 -5 -26 -26 -37 -43 -22 -101 -91 -130 -155&#xA;-31 -66 -41 -194 -23 -281 55 -265 336 -472 738 -545 123 -23 366 -30 502 -16&#xA;l113 12 65 -61 c35 -33 82 -73 104 -87 l40 -27 -7 -50 c-14 -94 2 -241 35&#xA;-330 9 -21 8 -27 -1 -22 -160 66 -327 38 -439 -74 -87 -87 -124 -192 -117&#xA;-334 3 -77 8 -99 33 -144 49 -90 133 -151 174 -125 9 6 24 32 34 59 25 67 33&#xA;72 58 40 87 -111 217 -168 264 -116 18 20 18 24 2 123 -18 104 -22 173 -11&#xA;200 4 11 12 13 33 7 15 -4 59 -11 97 -15 l70 -7 72 -109 72 -108 -43 -88 c-77&#xA;-153 -115 -299 -123 -468 -7 -133 2 -203 40 -296 39 -96 86 -167 167 -249 123&#xA;-124 260 -209 439 -271 52 -18 96 -33 98 -35 7 -4 -121 -200 -169 -259 -125&#xA;-154 -191 -183 -444 -191 -174 -6 -260 -21 -345 -60 -57 -26 -63 -28 -190 -39&#xA;-89 -8 -370 -42 -419 -51 l-33 -7 46 57 c25 31 49 68 52 82 9 36 -17 59 -64&#xA;57 -47 -1 -141 -37 -171 -64 -12 -12 -25 -19 -27 -16 -3 3 4 33 15 67 33 100&#xA;53 221 43 266 -6 31 -13 40 -33 42 -68 8 -224 -192 -260 -333 -6 -25 -15 -43&#xA;-19 -38 -4 4 -13 37 -19 72 -18 91 -76 252 -128 353 -64 124 -126 171 -144&#xA;108 -21 -74 -3 -240 46 -432 14 -53 25 -100 25 -104 0 -4 -36 28 -80 70 -169&#xA;161 -377 257 -388 178 -7 -47 135 -238 310 -418 l79 -81 -173 -42 c-214 -53&#xA;-387 -109 -487 -158 -108 -53 -66 -54 112 -4 164 47 441 114 540 132 55 10 73&#xA;10 89 0 11 -7 22 -10 25 -7 15 15 -17 64 -114 172 -179 199 -283 326 -283 345&#xA;0 19 29 7 105 -43 120 -79 226 -186 307 -310 63 -96 88 -125 88 -100 0 4 -14&#xA;59 -31 122 -54 203 -87 343 -98 415 -17 111 -21 175 -12 175 11 0 93 -179 120&#xA;-260 11 -36 39 -141 62 -235 22 -93 44 -174 47 -180 3 -5 18 40 32 100 37 152&#xA;83 260 144 341 70 92 81 94 72 13 -9 -80 -53 -218 -110 -346 -53 -118 -46&#xA;-144 17 -68 68 81 135 141 190 169 49 25 87 33 87 20 0 -3 -42 -53 -92 -111&#xA;-51 -57 -97 -111 -101 -119 -12 -21 8 -17 56 10 36 20 83 28 307 55 146 17&#xA;275 33 288 35 12 2 22 1 22 -1 0 -2 -29 -38 -65 -80 -108 -126 -185 -307 -157&#xA;-368 16 -34 64 -33 214 4 65 15 120 26 122 24 3 -3 3 -10 0 -16 -12 -34 -20&#xA;-145 -12 -168 18 -51 29 -49 252 35 100 38 164 56 194 56 l45 0 -7 -37 c-18&#xA;-108 -19 -149 -2 -166 26 -25 67 -21 174 20 139 52 177 62 251 69 95 8 234 56&#xA;444 153 164 76 248 99 402 111 77 7 142 13 144 15 13 14 -67 25 -175 25 -68 0&#xA;-124 3 -124 8 0 4 4 25 9 47 5 22 12 83 16 135 6 94 29 227 41 239 3 3 191 6&#xA;417 5 465 0 957 -28 957 -53 0 -13 -55 -59 -95 -79 -49 -24 -105 -36 -255 -57&#xA;-207 -29 -335 -89 -466 -219 -90 -90 -143 -176 -179 -289 -34 -108 -41 -181&#xA;-20 -213 24 -37 58 -30 232 45 113 49 152 61 194 61 48 0 51 -1 45 -22 -3 -13&#xA;-11 -61 -17 -108 -10 -73 -9 -90 4 -122 14 -34 20 -38 51 -38 21 0 97 28 203&#xA;76 157 71 175 76 278 89 61 7 111 12 111 11 1 0 4 -41 7 -91 6 -108 18 -142&#xA;51 -151 37 -9 60 2 185 82 66 43 129 76 150 79 143 22 204 45 307 116 23 16&#xA;88 53 145 83 113 59 181 77 369 96 58 6 130 13 160 17 l55 6 -40 8 c-51 10&#xA;-263 10 -332 0 l-53 -7 6 85 c4 61 0 129 -15 231 -31 212 -36 194 57 186 135&#xA;-12 456 -66 696 -118 l148 -32 41 -83 c82 -164 78 -78 -8 171 -36 104 -63 192&#xA;-60 194 3 3 21 -10 41 -29 36 -35 119 -195 149 -286 9 -29 20 -53 25 -53 4 0&#xA;11 28 15 63 12 114 27 184 67 307 22 71 86 200 98 200 13 0 0 -85 -45 -300&#xA;-53 -252 -60 -300 -47 -300 6 0 32 37 58 83 26 45 73 107 104 137 56 55 151&#xA;115 171 108 6 -2 -12 -33 -40 -68 -77 -98 -190 -268 -197 -296 -9 -36 5 -43&#xA;26 -14 53 71 30 68 196 27 82 -21 250 -69 373 -107 122 -39 233 -70 244 -70&#xA;22 1 22 1 2 17 -68 54 -421 186 -610 229 -44 9 -84 21 -89 25 -4 4 22 44 58&#xA;89 77 94 108 141 125 190 10 30 9 36 -6 48 -41 30 -183 -31 -270 -116 -30 -30&#xA;-53 -46 -49 -36 41 130 74 362 62 428 -6 30 -11 36 -33 36 -57 0 -152 -153&#xA;-199 -321 -14 -52 -29 -105 -33 -119 -7 -22 -11 -18 -45 47 -24 45 -60 93 -97&#xA;128 -50 48 -64 56 -91 53 -31 -3 -33 -6 -36 -44 -2 -27 9 -79 31 -148 19 -58&#xA;31 -106 27 -106 -4 0 -61 11 -126 25 -177 36 -391 71 -549 90 -217 25 -205 22&#xA;-205 54 0 78 25 256 62 436 46 230 48 312 9 381 -12 22 -81 95 -152 163 -71&#xA;67 -129 128 -129 134 0 7 24 37 53 68 l52 56 235 76 c341 112 522 198 786 372&#xA;196 130 330 239 502 409 321 316 520 616 631 951 151 460 131 872 -63 1266&#xA;-136 275 -377 521 -631 644 -173 84 -320 102 -376 46 -54 -54 -45 -77 112&#xA;-292 158 -215 213 -367 213 -589 0 -232 -64 -391 -218 -545 -77 -77 -106 -98&#xA;-186 -137 -141 -69 -207 -83 -380 -82 -278 2 -451 73 -750 310 -267 212 -479&#xA;342 -700 428 -302 117 -630 165 -940 136 -121 -11 -385 -51 -434 -66 -15 -5&#xA;-18 -3 -12 12 12 32 65 363 74 469 14 147 14 475 2 590 -25 222 -76 418 -155&#xA;592 -29 62 -110 192 -179 288 -7 9 2 28 26 61 59 82 95 155 124 249 24 81 27&#xA;107 28 255 1 135 -2 175 -17 221 -29 88 -82 132 -137 114 -12 -4 -47 -34 -78&#xA;-68 -192 -205 -357 -335 -545 -428 l-85 -43 -89 22 c-193 47 -340 63 -593 62&#xA;-160 0 -290 -10 -455 -35 -36 -5 -50 0 -147 57 -158 92 -265 175 -417 323 -75&#xA;73 -146 137 -158 144 -30 15 -74 14 -100 -4z m196 -188 c133 -131 286 -250&#xA;413 -325 43 -24 78 -46 78 -47 0 -2 -16 -12 -36 -24 -42 -25 -39 -26 -166 62&#xA;-49 33 -90 58 -92 56 -10 -9 46 -69 105 -113 l60 -45 -43 -12 c-95 -25 -174&#xA;-88 -226 -180 l-27 -48 -38 37 c-161 155 -246 427 -206 661 13 73 24 101 41&#xA;101 6 0 68 -55 137 -123z m2533 31 c8 -27 12 -100 12 -193 0 -124 -4 -164 -22&#xA;-230 -35 -126 -103 -253 -179 -335 -58 -63 -69 -70 -102 -70 -52 0 -143 33&#xA;-221 80 -113 66 -240 197 -240 247 0 5 56 37 124 72 160 81 312 195 461 347&#xA;66 67 128 122 137 123 12 1 21 -12 30 -41z m-1046 -447 c129 -22 236 -45 252&#xA;-55 5 -3 13 -18 17 -33 14 -58 123 -179 218 -242 70 -47 164 -88 234 -102 60&#xA;-12 65 -12 110 11 27 13 51 24 55 25 15 0 99 -121 146 -213 197 -384 234 -886&#xA;116 -1572 -44 -252 -52 -386 -30 -490 9 -41 22 -80 29 -87 10 -10 12 12 13&#xA;120 0 176 10 247 33 247 31 0 93 -30 169 -83 40 -27 75 -47 79 -44 10 11 -44&#xA;83 -92 123 -56 45 -56 45 91 67 152 24 397 40 493 33 318 -23 585 -95 830&#xA;-222 281 -146 637 -437 847 -694 54 -66 100 -118 102 -115 9 9 -64 128 -123&#xA;202 -35 43 -62 79 -60 81 2 2 32 -11 66 -29 146 -73 354 -117 499 -105 243 20&#xA;414 89 562 225 162 149 252 340 267 566 17 247 -49 449 -226 702 -120 170&#xA;-123 175 -117 184 15 25 168 -12 276 -66 171 -86 363 -253 477 -415 240 -340&#xA;320 -791 216 -1217 -57 -236 -146 -438 -282 -641 -314 -470 -864 -918 -1381&#xA;-1123 -92 -37 -364 -130 -368 -127 -1 2 18 39 43 83 24 44 61 118 81 165 20&#xA;47 37 86 38 88 1 1 39 7 86 12 88 10 165 33 236 69 23 12 42 19 42 15 0 -3&#xA;-19 -43 -41 -89 -23 -46 -39 -89 -37 -96 3 -10 41 43 123 174 13 21 43 43 90&#xA;66 106 51 257 135 338 188 101 66 329 236 347 258 19 23 25 27 -141 -81 -291&#xA;-189 -591 -350 -576 -310 3 8 11 34 17 58 6 24 13 51 16 61 3 9 1 17 -3 17 -5&#xA;0 -26 -39 -47 -86 -39 -85 -39 -85 -105 -118 -84 -43 -184 -74 -265 -82 l-63&#xA;-6 28 108 c35 132 59 304 59 422 0 88 -22 258 -41 322 -26 88 -91 199 -74 128&#xA;26 -116 35 -170 46 -278 14 -151 7 -274 -26 -435 -63 -308 -179 -555 -369&#xA;-780 -97 -115 -97 -114 -48 -178 22 -30 86 -97 142 -148 56 -52 110 -111 121&#xA;-131 27 -52 24 -98 -16 -293 -72 -346 -81 -503 -45 -770 35 -257 28 -286 -85&#xA;-348 -38 -22 -110 -65 -160 -97 -96 -61 -176 -100 -206 -100 -16 0 -17 2 -3&#xA;28 35 68 -2 191 -78 257 -45 38 -88 50 -148 42 -35 -4 -39 -3 -31 11 15 28 82&#xA;87 149 131 62 42 73 56 50 63 -8 3 -1 17 20 37 32 32 35 33 100 29 37 -3 75&#xA;-8 85 -13 35 -15 16 15 -23 35 -76 39 -144 23 -192 -44 -21 -30 -50 -55 -87&#xA;-73 -111 -56 -204 -177 -257 -335 -14 -40 -29 -77 -35 -84 -5 -7 -33 -15 -62&#xA;-19 -29 -3 -60 -9 -69 -11 -16 -5 -16 -3 -3 30 22 51 18 114 -9 172 -44 94&#xA;-126 164 -193 164 l-28 0 25 20 c39 30 294 132 345 138 60 6 53 26 -9 30 -38&#xA;3 -81 -8 -198 -49 -82 -29 -167 -65 -189 -81 -45 -33 -150 -162 -181 -222 -42&#xA;-84 -82 -101 -46 -19 40 90 3 219 -79 278 -23 16 -42 33 -42 37 -3 27 176 83&#xA;326 103 144 19 195 31 251 59 47 24 128 102 151 145 12 22 14 22 206 19 139&#xA;-2 197 0 206 9 9 9 4 13 -22 17 -34 6 -275 28 -316 30 -13 1 -22 4 -20 7 1 3&#xA;20 45 42 93 l40 88 40 -6 c134 -21 325 -18 325 5 0 5 -24 9 -52 10 -70 0 -286&#xA;23 -293 31 -3 3 6 46 21 95 l28 90 86 6 c49 4 120 17 165 32 98 32 121 50 50&#xA;38 -95 -15 -303 -8 -387 15 -223 60 -407 170 -522 311 -29 36 -63 84 -73 106&#xA;-156 311 -45 1038 227 1492 89 147 157 232 288 361 68 67 123 124 121 127 -14&#xA;13 -150 -93 -254 -198 -192 -195 -316 -406 -415 -704 -82 -250 -137 -588 -123&#xA;-753 7 -85 24 -211 30 -227 6 -14 -14 -15 -203 -10 -444 11 -799 107 -1114&#xA;302 -207 128 -329 225 -485 386 -257 265 -455 567 -549 837 -39 112 -63 251&#xA;-52 296 6 26 10 28 39 22 18 -4 82 -9 142 -13 265 -14 524 54 692 181 62 47&#xA;108 95 99 104 -3 2 -47 -22 -98 -54 -113 -70 -216 -118 -317 -147 -67 -19 -99&#xA;-22 -281 -22 l-205 0 -48 28 c-47 28 -177 143 -177 157 0 4 33 15 73 25 209&#xA;51 483 154 649 244 275 149 451 330 583 596 142 288 205 563 205 905 0 262&#xA;-49 458 -137 541 -39 38 -39 36 -2 -36 126 -239 115 -746 -26 -1155 -83 -242&#xA;-201 -437 -348 -577 -236 -224 -605 -387 -1024 -454 -209 -33 -519 -38 -678&#xA;-11 -449 77 -723 326 -690 627 8 77 54 177 97 208 l27 20 33 -36 c90 -95 155&#xA;-39 244 211 29 80 40 101 53 98 9 -3 45 -12 81 -21 129 -32 127 -31 139 -85&#xA;15 -68 48 -135 87 -177 l33 -35 -24 -36 c-14 -20 -25 -42 -25 -49 0 -20 -8&#xA;-16 -41 22 -24 27 -39 35 -66 35 -61 0 -129 -53 -171 -133 l-20 -37 -27 55&#xA;c-52 107 -129 83 -160 -48 -15 -65 -15 -66 68 -104 152 -71 428 -107 651 -85&#xA;244 25 424 83 589 192 152 100 287 241 401 418 62 95 163 303 211 436 36 98&#xA;41 106 65 106 15 0 57 -18 94 -41 37 -22 70 -38 74 -35 15 15 -57 92 -113 121&#xA;-53 27 -68 30 -154 30 -98 0 -178 -18 -231 -53 l-25 -16 25 -6 c14 -3 43 -3&#xA;65 1 22 5 64 8 93 9 l53 0 -67 -77 c-186 -219 -228 -257 -359 -330 -191 -107&#xA;-371 -144 -609 -123 -166 14 -198 20 -376 70 -199 57 -291 77 -423 95 -196 25&#xA;-325 16 -486 -34 l-93 -29 -16 36 c-24 56 -28 326 -8 462 29 190 101 377 194&#xA;502 92 124 239 238 373 289 56 22 213 49 227 40 5 -3 11 -46 14 -96 3 -71 10&#xA;-102 31 -146 38 -79 46 -84 104 -65 148 48 376 47 538 -3 55 -17 108 -31 118&#xA;-31 32 0 18 29 -27 55 l-45 26 19 54 c75 219 -10 456 -193 541 -130 59 -263&#xA;34 -394 -72 l-33 -27 0 54 c0 60 22 117 65 167 112 133 288 115 458 -46 31&#xA;-31 60 -52 64 -49 22 23 -106 190 -183 238 -19 11 -32 25 -29 29 13 20 211 63&#xA;370 79 145 15 490 5 631 -18z m-976 -422 c115 -52 181 -172 180 -329 -1 -74&#xA;-28 -164 -50 -167 -33 -6 -40 11 -24 57 29 82 0 194 -60 232 -99 61 -206 -53&#xA;-206 -219 l0 -53 -36 0 c-20 0 -77 -10 -126 -21 -104 -24 -101 -26 -119 61&#xA;-39 185 59 376 226 443 58 23 160 21 215 -4z m-781 -1600 c54 -7 104 -15 110&#xA;-18 8 -5 2 -37 -18 -103 -33 -110 -69 -181 -93 -186 -37 -7 -158 222 -158 299&#xA;0 23 17 24 159 8z m-209 -26 c0 -10 3 -35 7 -57 6 -37 5 -38 -15 -27 -23 12&#xA;-52 60 -52 86 0 10 10 15 30 15 22 0 30 -5 30 -17z m833 -115 c87 -13 89 -16&#xA;57 -85 -23 -51 -58 -72 -94 -55 -33 15 -54 49 -71 112 -14 51 -13 52 8 46 12&#xA;-3 57 -11 100 -18z m800 -136 c37 -17 67 -35 67 -41 0 -17 -108 -117 -172&#xA;-160 l-60 -40 -27 39 c-36 54 -87 90 -128 90 -75 0 -120 -50 -163 -183 -27&#xA;-83 -32 -86 -188 -94 l-115 -6 7 38 c17 89 90 196 179 262 133 99 249 134 422&#xA;130 100 -3 117 -6 178 -35z m-1004 -204 c5 -13 25 -58 45 -100 44 -93 44 -101&#xA;9 -94 -16 3 -48 8 -73 11 -79 10 -140 27 -140 37 0 21 65 130 88 149 33 25 61&#xA;24 71 -3z m761 -23 c18 -19 31 -37 28 -41 -9 -8 -211 -85 -215 -81 -5 5 58&#xA;131 75 150 23 26 69 15 112 -28z m-1050 -51 c0 -7 3 -19 6 -28 5 -13 -1 -16&#xA;-25 -16 -35 0 -35 0 -20 55 10 37 12 38 25 20 8 -10 14 -24 14 -31z m1065&#xA;-1314 c116 -30 115 -30 172 -152 29 -61 51 -114 47 -117 -3 -3 -35 3 -72 13&#xA;-99 27 -103 27 -119 -19 -20 -57 -28 -200 -14 -264 6 -30 9 -56 6 -59 -10 -10&#xA;-89 53 -122 96 -59 77 -77 190 -49 297 8 28 11 52 9 55 -9 9 -53 -55 -68 -99&#xA;-8 -25 -15 -66 -15 -91 0 -34 -11 -71 -41 -135 l-42 -89 -33 36 c-18 20 -40&#xA;61 -50 92 -16 50 -16 67 -6 135 13 95 41 157 96 217 71 78 193 112 301 84z&#xA;m522 -673 c141 -177 319 -337 533 -479 124 -82 339 -199 418 -226 26 -9 32&#xA;-16 32 -40 0 -91 67 -227 165 -331 41 -44 77 -91 81 -105 9 -38 -12 -122 -92&#xA;-368 -86 -263 -110 -364 -119 -503 -7 -103 -32 -179 -65 -197 -22 -11 -314&#xA;-141 -398 -177 l-72 -30 7 27 c16 54 7 117 -23 171 -37 68 -80 101 -160 121&#xA;l-64 16 23 22 c24 23 271 140 367 174 42 15 68 18 113 13 38 -4 57 -2 57 5 0&#xA;18 -48 30 -117 30 -52 0 -80 -7 -143 -34 -43 -19 -98 -40 -121 -46 -72 -20&#xA;-161 -64 -217 -109 -50 -40 -165 -183 -182 -226 -9 -23 -50 -68 -56 -62 -2 2&#xA;3 20 11 40 23 55 19 143 -9 202 -26 56 -37 67 -92 95 l-39 18 69 32 c80 35&#xA;284 100 399 125 44 10 76 22 74 28 -6 19 -134 6 -283 -28 -160 -38 -269 -85&#xA;-364 -158 l-55 -43 -30 60 c-21 42 -42 69 -69 86 l-38 25 38 17 c50 21 172 38&#xA;282 38 174 1 307 32 374 88 30 25 36 26 162 28 72 1 139 3 148 6 51 12 16 21&#xA;-142 34 l-81 7 39 41 c21 23 49 56 61 74 l22 32 104 0 c57 0 106 4 110 10 6&#xA;10 -45 25 -122 35 l-52 7 39 77 39 78 103 0 c83 0 112 4 148 21 l45 20 -82 1&#xA;c-361 4 -766 229 -902 502 -72 143 -79 318 -23 539 29 113 87 270 100 270 4&#xA;-1 26 -25 49 -53z m1497 -844 c81 -12 189 -17 327 -18 l207 0 26 -47 c74 -130&#xA;190 -244 329 -322 66 -37 220 -98 295 -116 23 -6 42 -16 42 -23 0 -22 -80&#xA;-230 -122 -319 l-41 -88 -41 0 c-22 0 -124 7 -226 15 -291 24 -562 33 -857 29&#xA;-150 -2 -273 -3 -273 -1 0 1 25 76 56 167 62 184 94 308 94 360 -1 53 -33 115&#xA;-98 183 -33 34 -71 83 -86 108 -27 47 -67 154 -61 161 3 2 72 -13 156 -34 83&#xA;-21 206 -46 273 -55z m-1954 -1098 c34 -18 66 -67 74 -115 6 -30 -1 -45 -45&#xA;-113 -28 -43 -56 -80 -62 -81 -7 -2 -68 -16 -137 -31 -68 -15 -131 -30 -139&#xA;-33 -11 -4 -13 1 -7 28 16 81 92 212 179 306 54 59 82 67 137 39z m330 -137&#xA;c45 -31 72 -87 72 -148 0 -89 -9 -96 -247 -191 -71 -28 -136 -53 -142 -56 -34&#xA;-13 4 133 65 252 32 63 62 96 126 139 48 32 83 33 126 4z m491 -137 c78 -49&#xA;115 -132 85 -189 -21 -40 -42 -51 -143 -73 -45 -10 -127 -36 -183 -57 -55 -22&#xA;-102 -37 -105 -33 -7 12 21 131 45 191 28 72 94 158 134 176 53 23 116 18 167&#xA;-15z m1530 -37 c41 -39 59 -85 59 -149 0 -41 -6 -67 -20 -91 -21 -33 -26 -36&#xA;-85 -49 -16 -3 -85 -31 -153 -61 -67 -30 -125 -54 -127 -54 -12 0 -3 77 16&#xA;133 34 101 80 178 147 246 59 60 65 63 99 58 20 -4 49 -18 64 -33z m470 -153&#xA;c33 -34 53 -66 64 -103 17 -52 17 -56 -2 -99 -20 -43 -22 -45 -205 -131 -102&#xA;-49 -189 -88 -192 -88 -14 0 -5 121 15 190 48 174 138 275 248 279 17 1 39&#xA;-14 72 -48z m546 -42 c105 -40 151 -206 74 -266 -9 -7 -32 -17 -53 -23 -20 -6&#xA;-63 -30 -96 -54 -68 -50 -139 -96 -148 -96 -3 0 -4 62 -2 138 6 182 34 243&#xA;133 295 36 19 54 21 92 6z"/>
    <path d="M4287 8773 c-23 -43 -93 -103 -172 -148 -54 -31 -65 -40 -48 -43 29&#xA;-4 119 39 170 83 25 21 48 53 59 80 19 52 13 71 -9 28z"/>
    <path d="M4345 8572 c-44 -43 -91 -85 -105 -94 -14 -9 -22 -19 -18 -23 13 -14&#xA;84 25 126 69 42 43 98 126 85 126 -5 0 -44 -35 -88 -78z"/>
    <path d="M3515 8553 c-43 -9 -142 -47 -185 -71 -86 -48 -164 -122 -146 -139 3&#xA;-3 43 10 89 30 162 70 308 97 417 77 112 -20 175 -62 274 -180 l37 -45 -6 50&#xA;c-16 120 -111 222 -249 268 -46 16 -179 22 -231 10z"/>
    <path d="M2986 8299 c-45 -90 -48 -143 -10 -188 14 -17 32 -31 41 -31 12 0 11&#xA;6 -6 34 -12 18 -21 49 -21 69 0 31 23 117 45 170 4 10 3 17 -3 17 -6 0 -27&#xA;-32 -46 -71z"/>
    <path d="M3359 8272 c-225 -59 -385 -289 -365 -527 11 -145 119 -296 261 -366&#xA;66 -32 75 -34 175 -34 100 0 109 2 175 35 185 91 304 296 289 495 -6 76 -42&#xA;179 -83 238 -46 66 -146 142 -213 162 -67 19 -156 18 -239 -3z m261 -90 c67&#xA;-35 135 -106 166 -176 40 -88 46 -221 14 -309 -61 -167 -207 -283 -370 -294&#xA;-68 -5 -84 -3 -132 19 -255 117 -308 468 -102 674 45 46 120 88 181 104 70 17&#xA;193 8 243 -18z"/>
    <path d="M3480 7963 c-51 -26 -101 -128 -107 -220 -9 -117 36 -188 125 -200&#xA;33 -4 44 -1 75 27 50 44 80 124 81 220 1 58 -4 83 -19 109 -40 68 -99 92 -155&#xA;64z"/>
    <path d="M4466 7988 c-20 -28 -20 -78 -1 -194 28 -174 79 -291 136 -314 61&#xA;-26 99 30 99 147 0 160 -69 317 -160 363 -49 25 -55 25 -74 -2z m94 -64 c82&#xA;-94 130 -338 77 -391 -15 -15 -18 -15 -36 1 -31 28 -62 112 -87 236 -30 145&#xA;-31 190 -5 190 10 0 33 -16 51 -36z"/>
    <path d="M1499 7531 c-37 -37 -37 -51 0 -51 16 0 34 -7 41 -15 7 -8 19 -59 27&#xA;-112 18 -114 27 -141 49 -150 28 -11 35 19 31 142 -3 128 -16 169 -59 199 -33&#xA;23 -56 20 -89 -13z"/>
    <path d="M2305 7486 c-96 -43 -180 -213 -151 -304 13 -40 39 -20 79 61 40 80&#xA;117 171 153 181 25 7 64 -26 64 -54 0 -28 17 -25 24 3 8 34 -11 94 -37 112&#xA;-26 18 -91 19 -132 1z"/>
    <path d="M4625 7246 c-37 -63 -54 -188 -32 -238 9 -21 27 -43 42 -50 22 -10&#xA;30 -8 53 9 40 29 54 83 50 189 -2 73 -7 96 -22 113 -31 35 -62 27 -91 -23z&#xA;m73 -134 c-3 -59 -9 -87 -21 -99 -46 -47 -67 88 -26 177 20 43 21 44 36 25 11&#xA;-15 14 -39 11 -103z"/>
    <path d="M5712 6274 c-35 -24 -30 -75 12 -121 78 -87 284 -173 411 -173 87 0&#xA;115 16 115 64 0 73 -148 186 -302 230 -74 21 -206 21 -236 0z m284 -64 c94&#xA;-37 146 -71 187 -123 40 -49 28 -63 -56 -60 -71 1 -209 45 -292 93 -52 30&#xA;-105 81 -105 101 0 40 154 34 266 -11z"/>
    <path d="M5243 6259 c-44 -10 -83 -48 -83 -79 0 -27 61 -75 127 -101 80 -31&#xA;240 -34 272 -5 34 30 28 82 -13 120 -59 56 -208 88 -303 65z m189 -55 c89 -25&#xA;139 -83 86 -100 -36 -11 -128 -5 -188 12 -59 17 -120 52 -120 70 0 34 127 44&#xA;222 18z"/>
    <path d="M6380 5981 c-14 -28 -13 -41 11 -86 30 -56 96 -123 151 -151 51 -26&#xA;126 -32 146 -12 20 20 14 62 -17 109 -38 59 -64 82 -144 123 -78 41 -131 47&#xA;-147 17z m121 -52 c79 -40 176 -147 148 -164 -15 -10 -58 3 -107 31 -44 26&#xA;-122 115 -122 140 0 20 34 17 81 -7z"/>
    <path d="M5640 5933 c-29 -11 -50 -36 -50 -62 0 -69 94 -142 210 -163 49 -8&#xA;68 -7 112 7 66 22 78 31 78 61 0 51 -85 118 -189 150 -46 14 -132 18 -161 7z&#xA;m135 -48 c65 -17 165 -77 165 -99 0 -20 -81 -39 -132 -31 -87 14 -161 62 -170&#xA;109 -2 14 4 22 22 27 38 11 51 10 115 -6z"/>
    <path d="M6178 5734 c-37 -19 -36 -50 2 -102 52 -73 171 -113 226 -77 23 15&#xA;26 22 21 53 -16 95 -166 172 -249 126z m132 -55 c38 -23 69 -57 70 -76 0 -17&#xA;-52 -17 -93 1 -37 15 -90 73 -81 87 10 16 68 9 104 -12z"/>
    <path d="M8338 5641 c-67 -22 -111 -56 -134 -105 -42 -91 10 -136 117 -101 99&#xA;33 169 139 123 186 -23 22 -69 31 -106 20z m59 -67 c11 -30 -70 -94 -121 -94&#xA;-33 0 -41 16 -22 45 32 49 130 83 143 49z"/>
    <path d="M7735 5426 c-52 -16 -93 -43 -100 -66 -20 -63 98 -128 215 -117 141&#xA;12 253 133 165 177 -40 20 -225 24 -280 6z m243 -50 c34 -21 -73 -86 -143 -86&#xA;-46 0 -119 20 -137 38 -15 15 0 32 45 49 35 14 213 13 235 -1z"/>
    <path d="M4920 5180 c0 -5 16 -49 36 -96 46 -112 64 -197 64 -309 0 -143 -28&#xA;-209 -110 -255 -41 -22 -56 -25 -160 -25 -140 0 -248 18 -295 51 l-36 24 -9&#xA;-26 c-31 -81 -38 -328 -11 -396 14 -36 4 -35 -55 5 -100 67 -144 159 -144 304&#xA;0 46 -4 83 -9 83 -17 0 -52 -111 -50 -159 0 -25 -8 -82 -20 -125 -12 -44 -21&#xA;-87 -21 -98 0 -28 -20 -22 -60 20 -50 54 -75 134 -67 220 8 84 40 180 71 213&#xA;39 42 109 97 138 108 63 24 185 41 332 45 87 3 160 7 162 9 2 2 -23 30 -55 64&#xA;-67 69 -110 152 -136 261 -24 99 -45 94 -45 -12 0 -67 21 -138 60 -199 16 -26&#xA;30 -49 30 -51 0 -2 -57 -6 -127 -9 -159 -7 -233 -28 -330 -96 -110 -78 -162&#xA;-177 -171 -327 -8 -150 36 -251 136 -315 84 -53 124 -31 137 73 l6 48 54 -55&#xA;c87 -89 208 -131 239 -83 7 12 5 45 -7 120 -18 104 -22 213 -11 256 5 17 11&#xA;21 23 16 9 -4 54 -16 101 -26 119 -26 274 -21 348 11 138 61 197 225 158 435&#xA;-21 108 -56 200 -97 249 -33 40 -69 65 -69 47z"/>
    <path d="M5873 3837 c-18 -6 -40 -20 -50 -31 -17 -18 -17 -18 12 -12 17 4 66&#xA;9 110 12 72 6 88 4 145 -19 66 -27 90 -27 55 0 -67 51 -204 77 -272 50z"/>
    <path d="M5685 3548 c36 -120 167 -208 308 -208 92 1 166 38 228 116 46 58 35&#xA;69 -24 21 -82 -67 -147 -90 -232 -85 -89 6 -156 39 -219 109 -25 28 -46 55&#xA;-46 60 0 5 -5 9 -11 9 -6 0 -8 -9 -4 -22z"/>
    <path d="M6143 2158 c-13 -6 -23 -14 -23 -18 0 -11 167 -18 220 -10 l45 7 -40&#xA;7 c-22 4 -64 11 -94 16 -66 12 -80 12 -108 -2z"/>
    <path d="M3492 3731 c-17 -10 17 -21 70 -21 20 0 65 -9 99 -20 67 -20 79 -20&#xA;60 4 -29 35 -191 61 -229 37z"/>
    <path d="M3440 3485 c0 -30 93 -111 149 -130 103 -34 237 1 266 68 7 18 10 33&#xA;5 35 -4 2 -29 -12 -55 -30 -42 -30 -53 -33 -118 -33 -58 0 -83 5 -127 27 -30&#xA;15 -67 39 -82 53 -31 29 -38 31 -38 10z"/>
    <path d="M4296 2404 c-4 -9 -5 -18 -4 -20 3 -3 74 -6 101 -5 31 2 18 19 -20&#xA;25 -21 4 -45 9 -54 12 -10 3 -19 -3 -23 -12z"/>
    <path d="M2064 1590 c-28 -11 -60 -30 -70 -42 l-19 -21 45 6 c25 4 65 11 90&#xA;16 60 13 136 13 184 0 l39 -11 -50 -28 c-51 -30 -80 -56 -70 -66 3 -4 37 6 74&#xA;21 98 39 193 44 261 15 29 -13 55 -20 59 -17 3 4 -10 22 -29 41 -25 25 -49 37&#xA;-89 45 -31 7 -63 9 -72 6 -9 -4 -36 6 -64 21 -41 25 -59 29 -143 31 -77 3&#xA;-105 -1 -146 -17z"/>
    <path d="M7683 1370 c-73 -17 -141 -80 -72 -66 86 17 195 18 253 3 33 -9 63&#xA;-14 68 -11 20 13 -22 46 -81 64 -65 21 -113 23 -168 10z"/>
  </g>
  <title>Karnozaur z rogami</title>
  <desc>Drapieżny karnozaur z charakterystycznymi rogami nad oczami i bardzo krótkimi ramionami. Był szybkim i groźnym łowcą. Jego skóra mogła mieć maskujące barwy.</desc>
</svg>