<?xml version="1.0" standalone="no"?>
<!DOCTYPE svg PUBLIC "-//W3C//DTD SVG 20010904//EN"
 "http://www.w3.org/TR/2001/REC-SVG-20010904/DTD/svg10.dtd">
<svg version="1.0" xmlns="http://www.w3.org/2000/svg"
 width="1024.000000pt" height="1024.000000pt" viewBox="0 0 1024.000000 1024.000000"
 preserveAspectRatio="xMidYMid meet">
<metadata>
Created by potrace 1.16, written by Peter Selinger 2001-2019
</metadata>
<g transform="translate(0.000000,1024.000000) scale(0.100000,-0.100000)"
fill="#000000" stroke="none">
<path d="M2175 9308 c-177 -17 -331 -99 -430 -229 -53 -68 -111 -187 -120
-244 -9 -57 -6 -173 5 -220 15 -62 13 -77 -7 -66 -40 21 -125 41 -178 41 -121
0 -235 -46 -299 -122 -88 -102 -106 -210 -52 -302 25 -42 36 -51 59 -47 5 1 6
-3 3 -8 -10 -15 71 -58 154 -81 127 -35 377 -42 1230 -37 619 4 792 8 860 20
94 16 186 50 183 66 -2 6 3 8 10 5 17 -6 59 34 51 48 -4 6 -3 8 4 4 19 -12 42
36 42 89 0 69 -37 122 -110 160 -38 20 -130 27 -184 15 -33 -7 -37 -6 -31 8
28 66 27 129 0 182 -19 36 -55 71 -66 64 -5 -3 -8 0 -7 7 4 17 -81 59 -138 67
-97 15 -225 -16 -263 -62 -8 -9 -16 -16 -20 -16 -3 0 -6 46 -6 102 0 168 -30
244 -144 370 -24 26 -48 45 -54 41 -5 -3 -7 -2 -4 4 13 21 -104 91 -198 118
-75 22 -200 32 -290 23z m62 -30 c-3 -8 -6 -5 -6 6 -1 11 2 17 5 13 3 -3 4
-12 1 -19z m216 -48 c136 -42 255 -139 309 -251 18 -37 35 -66 38 -64 11 7 18
-210 10 -304 -3 -33 -1 -55 6 -58 5 -2 25 10 44 27 59 53 165 100 225 100 116
0 224 -62 245 -141 11 -41 -3 -144 -22 -155 -4 -3 -8 -19 -8 -35 0 -33 -7 -33
93 -2 28 9 64 13 88 10 47 -6 118 -42 137 -68 7 -11 17 -17 20 -15 4 2 6 -17
5 -42 -2 -39 -8 -52 -35 -76 -45 -38 -123 -74 -193 -87 -111 -20 -406 -27
-1150 -24 -776 2 -834 5 -975 46 -89 26 -157 84 -167 143 -15 83 7 146 74 212
60 60 129 86 239 89 52 1 94 -1 94 -4 0 -4 17 -12 38 -18 20 -6 62 -20 92 -32
30 -12 58 -21 63 -21 4 0 -1 17 -12 38 -24 47 -41 137 -41 217 0 162 93 345
220 433 64 44 179 91 242 98 29 3 55 9 58 11 11 11 204 -9 263 -27z m394 -432
c-2 -13 -4 -5 -4 17 -1 22 1 32 4 23 2 -10 2 -28 0 -40z m-410 -790 c-3 -8 -6
-5 -6 6 -1 11 2 17 5 13 3 -3 4 -12 1 -19z m440 0 c-3 -8 -6 -5 -6 6 -1 11 2
17 5 13 3 -3 4 -12 1 -19z"/>
<path d="M7793 9055 c-57 -16 -140 -55 -176 -83 -50 -39 -144 -139 -161 -172
-55 -109 -80 -236 -58 -298 14 -41 5 -46 -32 -17 -43 33 -125 49 -211 42 -75
-6 -165 -33 -165 -49 0 -5 -4 -7 -9 -4 -8 5 -92 -61 -118 -94 -27 -33 -53
-102 -54 -143 -2 -74 0 -83 35 -123 65 -76 182 -120 371 -139 105 -11 339 -20
375 -15 19 3 69 3 110 0 73 -5 695 -5 970 0 201 3 353 29 434 73 103 56 129
105 107 203 -10 41 -20 60 -44 78 -65 48 -97 58 -195 61 l-93 3 -3 63 c-2 64
-28 125 -47 113 -5 -3 -6 1 -3 9 6 17 -54 60 -116 82 -62 22 -192 5 -244 -31
-29 -20 -31 -19 -33 37 -4 116 -70 243 -165 319 -92 73 -151 93 -298 97 -88 2
-140 -1 -177 -12z m322 -60 c60 -21 129 -66 168 -109 69 -77 114 -219 101
-323 -7 -62 1 -66 51 -27 79 60 218 84 286 50 17 -9 36 -13 42 -9 5 3 7 1 4
-4 -4 -6 3 -19 14 -29 53 -47 62 -116 28 -189 -12 -25 -20 -48 -18 -50 2 -2
31 3 64 11 79 18 126 18 197 -2 106 -30 151 -112 100 -180 -50 -66 -150 -97
-372 -116 -250 -21 -1422 -16 -1493 7 -7 2 -47 6 -91 10 -156 12 -241 42 -305
109 -28 29 -34 43 -34 78 0 60 26 110 87 165 70 63 114 81 222 90 80 7 159
-16 214 -62 68 -57 72 -53 64 78 -5 92 -3 124 11 172 32 110 94 192 195 258
30 20 62 42 70 49 9 7 22 14 30 15 8 1 44 9 80 17 81 19 216 15 285 -9z
m-1058 -977 c-3 -8 -6 -5 -6 6 -1 11 2 17 5 13 3 -3 4 -12 1 -19z"/>
<path d="M4406 7840 c-43 -4 -104 -13 -135 -19 -31 -6 -92 -18 -136 -26 -89
-18 -179 -41 -210 -55 -11 -5 -54 -23 -95 -39 -150 -58 -265 -135 -395 -266
-28 -27 -62 -55 -75 -62 -109 -54 -339 -134 -510 -178 -134 -34 -256 -72 -320
-97 -81 -33 -217 -115 -267 -161 -55 -50 -113 -129 -113 -153 0 -9 -3 -14 -7
-11 -15 16 -74 -135 -98 -249 -22 -107 -23 -210 -2 -251 21 -39 105 -111 179
-153 74 -41 201 -81 369 -116 127 -27 147 -28 409 -29 262 0 352 5 448 26 23
5 59 12 80 15 46 7 241 66 311 94 41 16 51 17 51 6 0 -32 -23 -178 -45 -286
-21 -109 -26 -121 -84 -208 -61 -92 -91 -155 -91 -195 0 -18 -1 -19 -17 -5
-32 28 -143 79 -165 76 -11 -2 -26 -12 -32 -23 -6 -11 -14 -22 -18 -25 -10 -7
-38 -131 -33 -141 3 -4 -12 -10 -33 -13 -87 -15 -122 -49 -125 -119 -2 -37 -6
-45 -37 -62 -67 -39 -76 -109 -20 -158 90 -81 294 -77 541 11 202 72 466 201
610 300 56 38 64 39 65 10 3 -86 20 -201 45 -310 35 -158 59 -229 112 -342
l41 -88 -62 -123 c-68 -132 -92 -164 -122 -166 -11 -1 -26 -2 -32 -3 -31 -4
-139 16 -214 39 -50 15 -110 44 -158 75 -107 70 -139 84 -244 110 -197 48
-386 -3 -524 -140 -32 -31 -58 -62 -58 -67 0 -6 9 -21 19 -34 19 -23 23 -24
170 -23 143 1 149 0 121 -15 -40 -22 -107 -87 -134 -130 -40 -66 -57 -125 -54
-193 3 -61 4 -63 31 -66 20 -3 45 10 95 45 94 68 148 98 222 123 57 19 82 22
199 18 123 -3 134 -2 137 15 3 24 -6 27 -186 43 -112 11 -256 -39 -388 -132
-47 -34 -63 -42 -59 -28 3 11 10 37 16 59 9 36 48 104 83 146 7 8 30 27 50 41
21 13 35 28 30 33 -4 5 -1 5 6 1 7 -4 35 0 63 9 64 22 126 15 186 -20 24 -14
43 -22 43 -17 0 15 -56 63 -64 55 -4 -5 -6 -2 -4 6 2 10 -18 23 -62 40 -56 21
-84 25 -205 27 -77 2 -161 -1 -187 -5 -62 -10 -62 3 -3 52 168 141 420 153
622 30 32 -20 63 -36 70 -36 7 0 11 -5 10 -10 -3 -14 121 -75 179 -88 61 -14
216 -23 249 -15 45 11 85 58 141 167 31 60 60 109 63 109 3 0 16 -17 29 -38
13 -20 58 -74 101 -119 67 -71 96 -116 70 -110 -5 1 -32 -29 -61 -68 -53 -70
-122 -130 -188 -162 -26 -13 -59 -18 -125 -18 -80 1 -105 6 -229 48 -143 49
-238 67 -250 49 -11 -17 21 -34 167 -84 189 -66 238 -78 327 -78 93 0 152 20
224 77 64 49 189 200 179 216 -8 14 10 2 77 -48 74 -55 146 -100 195 -120 45
-18 95 -62 95 -82 0 -8 -4 -12 -9 -9 -4 3 -39 -4 -77 -15 -157 -45 -205 -52
-415 -54 -159 -2 -220 -7 -265 -20 -124 -36 -218 -91 -308 -181 -69 -69 -96
-110 -119 -178 -43 -126 -3 -171 93 -106 25 17 60 38 77 46 18 9 30 21 26 27
-3 6 -1 7 5 3 6 -4 30 3 53 14 22 12 43 19 45 17 3 -2 0 -17 -6 -32 -12 -33
-15 -163 -5 -220 10 -54 38 -108 82 -155 40 -45 59 -49 90 -21 21 20 41 110
29 130 -4 5 -3 12 2 15 5 3 18 -15 30 -40 28 -57 101 -106 152 -102 l35 3 0
160 c0 158 0 161 30 215 16 30 28 59 27 63 -1 5 2 6 8 2 5 -3 10 2 10 11 0 10
3 14 7 11 3 -4 14 0 23 8 13 11 57 16 189 21 167 7 173 6 168 -12 -35 -124
-34 -350 2 -445 12 -30 68 -151 126 -267 58 -116 105 -223 105 -237 0 -44
-118 -197 -242 -313 -26 -25 -45 -49 -42 -54 3 -5 2 -7 -3 -6 -11 3 -73 -34
-73 -44 0 -18 -26 -5 -108 54 -131 95 -248 166 -335 205 -222 98 -505 43 -665
-131 -25 -28 -40 -51 -36 -59 4 -6 4 -9 -1 -5 -19 17 -65 -68 -65 -121 0 -50
25 -55 137 -27 127 32 186 39 234 26 21 -6 39 -12 39 -14 0 -2 -14 -19 -32
-37 -30 -33 -67 -102 -68 -126 0 -7 9 -22 19 -32 19 -19 21 -18 122 3 57 13
134 24 171 25 l66 2 49 -49 c81 -82 273 -180 386 -196 23 -3 60 -9 81 -12 42
-7 138 11 173 32 18 11 96 14 370 14 333 1 347 2 318 18 -26 15 -65 17 -322
17 -160 0 -288 2 -284 5 6 5 140 156 191 216 185 217 395 514 363 514 -4 0 -2
5 5 12 17 17 15 108 -3 151 -16 38 -9 47 35 47 10 0 21 8 23 18 4 16 5 16 6 0
1 -16 16 -18 161 -18 121 0 160 3 160 13 0 8 3 9 8 1 5 -7 226 -10 747 -9 407
1 769 3 805 4 61 3 63 4 30 12 -31 9 -986 19 -1731 19 l-276 0 -26 59 c-32 73
-67 195 -67 236 0 56 21 104 79 182 31 43 64 85 72 93 21 22 218 271 262 332
15 21 32 38 36 38 4 0 14 -19 21 -42 39 -123 157 -317 182 -302 6 4 8 2 5 -3
-18 -28 159 -153 269 -191 124 -42 157 -47 299 -46 124 1 154 5 258 33 106 28
159 45 222 71 11 5 28 11 38 14 10 3 15 10 12 16 -3 5 0 7 9 4 19 -7 306 140
357 184 74 63 15 65 -91 3 -310 -182 -529 -257 -782 -266 -133 -4 -207 7 -316
52 -227 91 -399 323 -448 605 -22 127 -14 380 15 489 24 87 63 193 92 251 11
22 18 46 15 54 -3 8 -2 13 2 10 5 -3 18 15 29 39 11 25 18 45 14 45 -12 0 -78
-74 -105 -118 -61 -98 -113 -260 -136 -422 -12 -82 -6 -292 10 -355 5 -22 10
-53 10 -69 l0 -29 -62 7 c-35 4 -79 11 -98 16 -19 5 -48 11 -65 13 -16 3 -64
15 -105 27 -41 12 -92 26 -113 32 -43 12 -44 13 -51 153 -5 100 -33 230 -79
375 -28 86 -73 190 -82 190 -11 0 5 -88 45 -255 57 -236 62 -269 58 -402 -4
-140 -12 -159 -91 -200 -38 -20 -75 -28 -189 -39 -79 -7 -200 -14 -269 -14
-137 0 -221 -8 -214 -20 3 -5 -4 -6 -14 -3 -31 8 -113 -76 -147 -150 -26 -56
-28 -72 -28 -167 0 -58 4 -117 7 -133 20 -76 -85 24 -117 112 -18 51 -23 128
-10 183 4 22 2 27 -9 22 -20 -7 -61 -99 -52 -115 5 -7 4 -10 -2 -6 -14 9 -23
-26 -37 -143 l-12 -95 -26 38 c-14 21 -28 35 -30 30 -3 -4 -4 -3 -2 3 1 6 -5
35 -13 65 -25 95 4 269 53 310 21 17 18 43 -3 34 -10 -4 -39 -13 -64 -20 -48
-13 -215 -94 -261 -126 -37 -27 -40 -24 -21 24 38 96 144 216 227 255 144 68
164 72 401 81 218 9 222 10 360 51 161 48 236 84 228 109 -2 9 -43 97 -90 196
-47 99 -90 191 -96 205 -5 14 -13 33 -18 42 -5 10 -9 25 -9 33 0 8 -5 15 -11
15 -15 0 -3 -104 20 -171 34 -101 63 -159 75 -152 6 3 8 3 4 -2 -4 -4 -3 -16
3 -27 6 -11 8 -22 6 -25 -16 -16 -266 165 -362 262 -17 16 -103 119 -146 172
-24 31 -81 137 -115 214 -71 161 -124 403 -124 565 l0 81 48 33 c69 50 262
247 309 316 38 56 79 151 69 161 -6 6 -31 -39 -28 -50 1 -5 -2 -6 -7 -3 -4 3
-20 -11 -33 -32 -63 -94 -260 -288 -378 -371 -266 -187 -378 -250 -580 -328
-167 -65 -214 -81 -320 -110 -81 -22 -108 -25 -183 -20 -75 5 -94 10 -123 32
-63 48 -43 71 106 121 74 24 170 73 343 174 72 42 168 121 161 132 -4 7 -2 8
4 4 25 -15 312 270 296 295 -3 5 0 8 7 7 18 -4 133 170 189 287 49 101 96 240
99 292 3 42 117 35 191 -12 23 -15 44 -24 47 -22 8 9 -26 65 -49 81 -12 8 -46
21 -76 27 -66 15 -236 0 -327 -29 -47 -16 -314 -127 -460 -192 -73 -33 -288
-85 -400 -97 -22 -2 -70 -8 -107 -13 -88 -13 -409 -13 -523 0 -335 38 -584
143 -646 270 -20 42 -21 51 -11 125 12 89 40 181 79 265 14 30 26 61 26 68 0
6 2 10 5 8 2 -3 21 16 42 42 88 112 216 197 355 237 33 9 85 25 115 35 30 10
82 26 115 35 33 10 71 21 85 25 14 5 61 18 105 30 44 12 119 38 166 56 48 19
91 34 95 34 17 1 163 95 201 130 21 20 66 57 101 83 34 27 60 53 56 58 -3 5
-2 8 3 7 4 -2 49 18 98 43 50 26 126 59 170 74 44 15 85 31 90 35 13 10 214
54 325 71 131 21 597 18 583 -3 -2 -5 5 -8 17 -8 37 0 157 -47 216 -85 138
-88 219 -172 298 -306 33 -57 82 -206 96 -291 32 -202 -10 -480 -116 -753 -20
-49 -49 -126 -66 -170 -36 -95 -66 -172 -78 -200 -34 -80 -58 -154 -66 -205
-3 -19 -8 -39 -11 -43 -6 -11 -5 -245 1 -256 3 -4 8 -23 11 -42 11 -62 55
-121 115 -152 51 -27 61 -28 135 -23 44 3 96 11 115 17 19 5 46 12 60 15 14 3
57 13 95 23 214 57 417 87 610 90 177 2 360 -28 695 -117 46 -12 101 -17 190
-16 110 1 134 5 200 29 86 31 163 73 156 84 -3 4 1 8 8 8 39 0 315 251 300
274 -3 5 -1 8 4 7 14 -4 133 145 127 159 -2 7 0 12 4 10 5 -1 32 30 59 69 37
51 49 78 46 95 -4 20 -3 21 4 5 7 -17 15 -8 54 55 60 96 168 279 168 285 0 7
113 189 130 209 10 11 29 40 44 65 47 79 51 85 57 90 16 12 122 166 122 177 0
7 3 11 6 10 3 -1 71 64 151 145 225 227 409 348 576 382 101 20 124 18 124
-10 0 -24 -39 -80 -134 -189 -129 -147 -311 -409 -301 -432 2 -8 1 -12 -4 -9
-26 16 -246 -468 -351 -774 -12 -36 -28 -78 -35 -95 -7 -16 -16 -41 -20 -55
-4 -14 -22 -68 -42 -119 -19 -52 -32 -103 -30 -113 3 -10 2 -16 -2 -14 -3 2
-19 -32 -35 -77 -15 -45 -36 -100 -46 -122 -10 -22 -42 -96 -70 -165 -29 -69
-66 -151 -82 -183 -16 -32 -26 -63 -22 -69 4 -6 3 -8 -4 -4 -6 3 -17 -6 -25
-21 -125 -246 -266 -442 -434 -603 -108 -104 -117 -112 -236 -194 -90 -62
-303 -186 -320 -186 -4 0 0 14 8 31 9 17 32 90 51 162 30 112 36 154 41 277 7
187 -7 177 -41 -31 -39 -234 -117 -472 -224 -684 -14 -27 -25 -52 -25 -55 0
-3 -13 -26 -28 -53 -16 -26 -25 -47 -21 -47 12 0 58 47 91 93 l32 44 56 -19
c31 -11 93 -22 137 -25 110 -7 198 18 373 109 126 65 140 70 185 66 88 -9 163
-95 274 -312 234 -460 359 -644 529 -781 100 -80 271 -164 379 -187 28 -5 116
-13 194 -17 l144 -6 -21 -27 c-12 -14 -49 -40 -83 -57 -179 -89 -482 -50 -682
88 -50 35 -56 37 -56 17 0 -20 110 -118 126 -112 8 3 13 0 11 -6 -2 -12 83
-50 153 -68 32 -8 64 -28 105 -66 66 -61 164 -120 213 -130 39 -8 41 -22 5
-30 -16 -3 -39 -10 -53 -15 -62 -23 -207 -16 -316 16 -76 22 -197 106 -299
208 -49 50 -94 89 -100 88 -5 -2 -7 1 -3 5 9 8 -9 34 -23 34 -39 0 139 -236
196 -260 18 -8 17 -9 -7 -9 -35 -1 -176 72 -219 113 -44 43 -89 94 -89 103 0
3 -6 14 -14 22 -14 17 -126 290 -126 309 0 15 -94 272 -133 362 -53 126 -125
265 -147 285 -15 13 -24 15 -31 8 -8 -8 -3 -24 16 -58 15 -25 51 -102 80 -171
28 -68 55 -121 60 -116 4 4 5 2 2 -4 -9 -15 112 -379 185 -559 51 -126 166
-254 273 -304 56 -26 85 -35 205 -63 25 -6 88 -26 140 -46 112 -41 241 -53
331 -32 73 17 155 54 162 73 14 37 -5 57 -97 101 -50 24 -104 58 -120 75 l-30
31 57 0 c196 0 421 132 379 224 -12 26 -44 34 -181 42 -257 15 -450 89 -597
230 -140 136 -255 305 -386 569 -88 177 -125 248 -141 269 -4 6 -22 33 -40 61
-127 197 -251 213 -499 62 -95 -57 -183 -80 -281 -74 -143 9 -179 30 -143 82
7 11 19 36 25 55 11 31 24 41 104 80 85 41 286 155 297 169 3 3 23 20 45 36
67 50 85 66 185 165 86 85 146 150 205 221 114 139 310 494 423 769 41 100
137 368 140 390 1 8 12 41 29 85 8 22 26 72 38 110 13 39 30 88 38 110 9 22
30 78 47 125 51 136 107 265 177 410 37 74 66 140 66 147 0 7 3 10 7 8 3 -2
23 27 43 65 60 113 188 286 335 451 45 51 82 99 82 105 0 7 5 14 10 16 14 4
24 70 16 102 -4 17 -19 29 -51 42 -43 16 -50 16 -133 0 -235 -46 -523 -262
-781 -586 -67 -83 -195 -270 -276 -400 -12 -19 -30 -48 -41 -65 -10 -16 -24
-39 -30 -50 -6 -11 -21 -37 -33 -58 -12 -21 -18 -43 -15 -49 4 -7 2 -8 -4 -4
-7 4 -19 -9 -32 -31 -11 -21 -30 -54 -42 -74 -13 -20 -38 -61 -56 -90 -53 -88
-56 -93 -69 -106 -6 -7 -21 -29 -34 -50 -13 -21 -26 -40 -29 -43 -4 -3 -20
-25 -37 -50 -17 -25 -54 -71 -82 -103 -29 -33 -48 -64 -45 -70 4 -7 4 -9 -1
-5 -5 5 -51 -34 -104 -85 -188 -183 -344 -252 -541 -241 -41 2 -163 24 -270
50 -310 72 -396 84 -605 80 -152 -3 -276 -17 -370 -40 -5 -2 -28 -6 -50 -11
-22 -4 -105 -23 -185 -42 -174 -42 -302 -53 -346 -30 -74 39 -106 115 -103
247 4 180 70 399 218 725 54 117 109 337 131 525 13 102 -8 303 -43 415 -29
94 -119 271 -135 267 -8 -1 -10 2 -7 9 11 17 -155 169 -242 222 -44 26 -127
64 -184 84 l-104 36 -200 3 c-110 1 -235 -1 -279 -6z m547 -47 c-7 -2 -19 -2
-25 0 -7 3 -2 5 12 5 14 0 19 -2 13 -5z m-2086 -635 c-3 -8 -6 -5 -6 6 -1 11
2 17 5 13 3 -3 4 -12 1 -19z m1387 -1200 c-30 -98 -194 -306 -360 -458 -70
-64 -164 -133 -171 -126 -12 11 18 109 53 172 108 198 279 366 424 420 53 19
62 18 54 -8z m3813 -60 c-3 -8 -6 -5 -6 6 -1 11 2 17 5 13 3 -3 4 -12 1 -19z
m-4469 -509 c45 -27 80 -54 77 -59 -3 -5 -23 -19 -45 -31 -22 -12 -36 -27 -33
-32 3 -6 1 -7 -5 -3 -11 7 -104 -40 -110 -56 -2 -4 -8 -8 -13 -8 -12 0 -3 150
12 201 7 21 17 39 24 39 6 0 48 -23 93 -51z m4979 -31 c-3 -7 -5 -2 -5 12 0
14 2 19 5 13 2 -7 2 -19 0 -25z m-2800 -1617 c75 -29 281 -78 341 -80 20 -1
16 -9 -39 -78 -34 -43 -73 -93 -88 -112 -14 -19 -31 -39 -36 -45 -6 -6 -26
-31 -45 -56 -19 -25 -43 -54 -53 -65 -37 -40 -103 -141 -115 -176 -30 -90 -10
-198 79 -420 59 -149 60 -174 10 -257 -18 -28 -30 -56 -26 -62 4 -6 2 -9 -3
-8 -6 2 -27 -19 -48 -47 -21 -27 -42 -54 -46 -60 -4 -5 -35 -43 -68 -83 -33
-41 -57 -78 -54 -83 3 -5 1 -8 -3 -7 -9 3 -42 -33 -141 -153 -85 -105 -155
-175 -192 -194 -59 -31 -195 -26 -302 12 -123 43 -343 175 -236 142 18 -6 42
-13 53 -16 11 -4 29 -12 40 -19 21 -13 125 -37 132 -30 8 7 -93 74 -152 101
-87 39 -139 51 -240 54 -77 2 -103 -2 -180 -27 -49 -17 -91 -29 -92 -28 -5 4
44 66 85 109 142 151 255 211 392 209 36 -1 72 -3 81 -4 23 -5 142 -83 204
-133 100 -82 127 -92 104 -41 -7 14 -10 28 -8 29 106 85 175 147 210 188 24
29 61 71 82 93 53 56 92 114 106 157 15 46 1 89 -67 215 -165 303 -192 375
-192 511 0 80 22 261 32 268 4 2 156 24 205 29 47 5 127 38 156 64 21 18 57
88 57 109 0 17 0 17 57 -6z m-1400 -533 c-3 -8 -6 -5 -6 6 -1 11 2 17 5 13 3
-3 4 -12 1 -19z m1520 -500 c-3 -8 -6 -5 -6 6 -1 11 2 17 5 13 3 -3 4 -12 1
-19z m2370 -125 c-3 -10 -5 -4 -5 12 0 17 2 24 5 18 2 -7 2 -21 0 -30z m-2370
-115 c-3 -7 -5 -2 -5 12 0 14 2 19 5 13 2 -7 2 -19 0 -25z m-1338 -69 c75 -15
236 -84 175 -75 -63 9 -237 -65 -322 -138 -30 -25 -57 -44 -62 -41 -52 32
-318 18 -380 -20 -34 -21 33 97 79 138 78 71 191 129 285 146 49 9 150 5 225
-10z m4808 -251 c-3 -8 -6 -5 -6 6 -1 11 2 17 5 13 3 -3 4 -12 1 -19z"/>
<path d="M4070 7515 c-259 -72 -425 -306 -390 -552 28 -203 223 -378 435 -390
230 -14 425 117 521 352 53 128 36 302 -42 425 -46 73 -134 137 -224 164 -64
19 -233 20 -300 1z m236 -45 c104 -17 209 -92 255 -181 28 -57 56 -169 52
-214 -10 -102 -68 -239 -130 -303 -7 -8 -10 -18 -7 -24 4 -6 2 -8 -4 -4 -6 3
-18 -1 -26 -10 -35 -34 -128 -82 -186 -94 -67 -14 -192 -9 -250 11 -97 34
-206 129 -248 219 -22 47 -26 69 -26 150 -1 143 37 234 141 331 59 56 106 81
193 102 119 30 144 32 236 17z"/>
<path d="M3915 7122 c-67 -14 -103 -123 -74 -227 13 -47 77 -115 109 -115 35
0 78 31 96 69 13 26 15 50 11 99 -6 57 -39 146 -59 159 -18 10 -64 19 -83 15z"/>
<path d="M2474 6710 c-52 -26 -116 -89 -109 -107 2 -8 1 -12 -4 -9 -9 6 -26
-29 -36 -75 -12 -49 12 -39 58 25 88 123 177 156 137 51 -6 -15 -8 -30 -5 -35
10 -16 47 3 66 34 28 45 25 90 -7 115 -33 26 -48 26 -100 1z"/>
<path d="M921 5898 c0 -7 28 -36 62 -64 100 -81 157 -225 157 -395 0 -49 -3
-59 -17 -59 -10 0 -27 -3 -38 -6 -17 -4 -22 2 -32 47 -22 93 -112 198 -207
243 -74 35 -158 45 -181 22 -15 -15 -15 -16 2 -16 45 0 170 -58 229 -106 23
-18 45 -30 49 -26 5 4 5 2 2 -4 -4 -7 2 -23 13 -37 11 -14 31 -49 45 -78 l24
-53 -42 -17 c-23 -9 -56 -24 -73 -33 -38 -20 -126 -111 -148 -154 -23 -44 -28
-130 -9 -165 16 -33 68 -67 101 -67 12 0 45 -16 73 -36 32 -22 72 -40 107 -47
70 -13 66 -11 53 -36 -23 -41 -111 -67 -138 -40 -18 18 -43 3 -43 -25 0 -28
24 -45 67 -47 59 -3 81 2 109 26 16 14 32 25 35 25 3 0 14 17 23 38 16 36 18
37 67 36 49 -2 52 -3 75 -44 13 -23 24 -43 24 -45 0 -2 -10 -5 -23 -8 -32 -9
-104 -82 -122 -124 -20 -47 -20 -146 0 -163 8 -6 23 -9 35 -5 17 6 20 15 20
73 0 45 5 75 16 90 8 12 12 28 8 35 -4 6 -4 9 1 5 4 -4 27 9 51 28 l43 35 35
-39 c20 -21 56 -50 81 -63 50 -27 50 -27 32 -72 -8 -18 -15 -62 -16 -99 -1
-56 2 -71 19 -88 25 -25 32 -25 54 -1 13 14 14 24 7 43 -13 33 -7 156 8 171 7
7 11 7 11 1 0 -6 38 -16 85 -23 l85 -13 11 -45 c7 -27 27 -60 53 -88 48 -52
85 -65 111 -39 17 17 16 19 -8 40 -14 12 -35 28 -45 36 -24 17 -65 95 -53 102
5 3 26 8 47 12 22 3 52 13 68 21 28 15 29 14 85 -40 62 -60 93 -72 140 -56 45
16 36 38 -24 69 -28 14 -66 36 -86 49 l-35 24 23 45 c30 58 31 141 3 216 l-21
54 22 36 c30 51 35 177 6 159 -6 -4 -7 -1 -3 6 11 18 -37 83 -90 120 -59 43
-138 70 -228 77 -86 8 -155 -6 -243 -47 l-61 -30 -42 40 c-38 36 -149 91 -184
91 -10 0 -13 23 -14 96 -1 210 -73 366 -199 432 -28 16 -53 15 -52 0z m300
-602 c63 -26 114 -63 140 -102 8 -13 18 -22 21 -18 3 3 5 -38 4 -91 l-1 -96
-41 -39 c-42 -39 -94 -60 -149 -60 -47 0 -185 32 -185 43 0 6 3 8 6 4 11 -11
132 40 164 69 63 59 78 137 39 201 -12 19 -23 33 -25 31 -1 -2 2 -24 7 -48 14
-63 4 -104 -34 -136 -31 -26 -84 -53 -116 -59 -85 -15 -160 -24 -176 -21 -11
3 -25 5 -32 5 -27 2 -53 45 -53 85 1 138 176 274 333 259 20 -1 64 -14 98 -27z
m564 -50 c166 -44 257 -139 223 -232 l-11 -32 -22 31 c-12 18 -27 31 -34 29
-7 -1 -10 2 -7 6 10 16 -30 43 -99 67 -84 29 -231 42 -295 25 -25 -6 -55 -14
-66 -17 -18 -4 -22 0 -26 27 -4 28 0 35 26 51 81 50 220 70 311 45z m-12 -161
c32 -8 77 -24 100 -36 46 -23 107 -77 107 -93 0 -17 -60 -51 -113 -66 -62 -17
-132 -8 -249 31 -139 47 -168 64 -168 98 0 16 7 34 15 41 46 39 206 52 308 25z
m-249 -189 l66 -28 -20 -28 c-11 -16 -20 -31 -20 -34 0 -4 -13 -21 -29 -39
-16 -17 -39 -43 -50 -55 -17 -21 -22 -22 -39 -10 -22 16 -71 73 -95 110 -16
25 -16 28 0 40 9 7 35 31 57 54 30 31 43 38 52 30 6 -7 41 -25 78 -40z m476
-112 c0 -46 -22 -107 -48 -133 -36 -36 -55 -45 -121 -56 l-69 -12 23 38 c25
39 55 139 55 183 0 20 6 27 28 32 15 3 45 11 67 18 36 10 41 10 52 -9 7 -11
12 -39 13 -61z m-304 60 c37 -8 76 -13 85 -11 15 4 17 -1 12 -32 -3 -20 -9
-51 -14 -70 -4 -19 -5 -39 -2 -45 3 -6 3 -8 -2 -4 -4 4 -17 -11 -28 -33 -10
-22 -28 -44 -38 -50 -24 -12 -137 13 -191 43 l-38 22 32 31 c49 47 78 86 95
128 8 20 17 37 18 37 2 0 34 -7 71 -16z"/>
<path d="M951 5204 c-28 -23 -32 -32 -29 -67 3 -34 7 -42 32 -50 57 -19 116
57 85 111 -20 36 -50 38 -88 6z"/>
<path d="M2290 4591 c0 -6 5 -11 11 -11 40 0 250 -122 280 -164 4 -5 12 -5 18
-2 6 4 11 4 9 -1 -1 -4 38 -49 88 -99 49 -49 89 -92 90 -95 1 -2 17 -29 36
-59 19 -30 47 -77 62 -105 15 -27 39 -63 53 -80 l25 -30 -6 34 c-10 57 -84
199 -148 286 -73 100 -249 247 -354 297 -67 31 -164 49 -164 29z"/>
<path d="M1065 3614 c-89 -32 -128 -96 -128 -209 0 -66 5 -93 30 -155 17 -41
29 -76 28 -78 -2 -2 -26 8 -54 22 -28 14 -67 26 -87 26 -101 0 -184 -101 -145
-178 35 -71 50 -94 79 -126 l32 -36 -38 0 c-48 0 -82 -29 -82 -70 0 -16 5 -32
10 -35 27 -17 7 -30 -48 -32 -32 -1 -96 -7 -142 -12 -47 -6 -88 -11 -93 -11
-4 0 -5 -5 -2 -11 5 -7 484 -9 1639 -5 897 2 1976 5 2399 5 675 1 767 3 767
16 0 13 -36 15 -257 16 -142 1 -361 3 -488 5 -126 1 -643 3 -1148 3 l-917 1
30 42 c52 72 37 154 -33 177 -31 10 -99 8 -138 -4 -23 -8 -24 3 -3 33 21 31
22 111 0 144 -9 14 -30 31 -46 38 -35 14 -108 7 -152 -15 -17 -8 -32 -15 -34
-15 -1 0 4 21 12 47 18 61 18 113 -2 162 -20 50 -52 71 -119 78 -66 7 -130
-21 -192 -84 -22 -24 -44 -43 -47 -43 -3 0 -6 16 -6 35 0 45 -32 114 -70 150
-17 16 -30 25 -30 19 0 -5 -4 -3 -9 5 -12 19 -89 18 -128 -2 -17 -9 -42 -30
-56 -46 l-25 -31 -26 45 c-30 51 -78 99 -119 121 -40 21 -114 25 -162 8z m135
-49 c51 -27 92 -76 138 -167 23 -47 42 -91 42 -97 0 -7 6 -11 13 -8 8 2 12 24
12 62 0 55 2 59 43 94 52 45 97 49 137 11 27 -26 58 -113 70 -197 4 -29 11
-53 15 -53 5 0 30 27 56 60 47 60 77 85 128 107 38 17 97 16 122 -2 12 -8 25
-11 29 -7 3 4 6 2 4 -3 -1 -6 1 -18 6 -28 14 -32 -2 -140 -30 -210 -15 -37
-25 -70 -23 -73 3 -2 38 14 78 37 50 28 89 42 125 46 49 5 54 4 70 -20 19 -29
14 -74 -12 -114 -8 -12 -11 -28 -7 -35 4 -7 4 -10 0 -6 -7 5 -96 -85 -96 -97
0 -6 61 13 73 24 21 16 119 41 164 41 29 0 49 -6 62 -19 11 -11 23 -16 27 -13
5 4 3 0 -2 -8 -6 -8 -14 -26 -18 -40 -3 -14 -20 -42 -38 -62 l-33 -37 -215 -2
c-139 -2 -218 -6 -222 -13 -5 -8 -8 -7 -8 0 0 9 -147 12 -562 13 -310 0 -566
1 -569 1 -8 0 -29 48 -29 65 0 20 69 20 117 0 19 -8 50 -15 67 -15 l31 0 -34
27 c-62 49 -121 117 -147 170 -34 69 -38 111 -12 143 17 21 28 25 72 24 57 -2
137 -36 171 -74 11 -12 32 -28 47 -36 37 -19 37 -8 -2 87 -27 64 -60 163 -66
194 -19 109 -10 171 29 204 9 7 14 18 10 24 -3 6 -1 7 5 3 7 -4 19 -3 27 2 28
15 103 14 135 -3z m-463 -787 c-3 -8 -6 -5 -6 6 -1 11 2 17 5 13 3 -3 4 -12 1
-19z"/>
<path d="M1186 2171 c-4 -6 7 -33 24 -59 98 -148 208 -440 234 -622 l7 -45
-39 55 c-21 30 -44 54 -50 52 -7 -1 -11 4 -10 10 2 7 -3 12 -10 10 -8 -1 -11
2 -8 7 7 11 -52 61 -134 114 -77 50 -213 94 -240 77 -12 -7 -11 -13 10 -34 13
-15 30 -26 37 -26 8 0 12 -4 8 -9 -3 -6 1 -13 8 -18 7 -4 26 -26 42 -48 17
-22 33 -42 36 -45 9 -8 101 -165 159 -272 48 -88 70 -116 70 -88 0 17 -49 141
-81 204 -49 98 -130 216 -143 209 -6 -3 -8 -2 -3 2 4 5 0 19 -8 32 l-15 23 47
-22 c151 -71 268 -198 330 -360 16 -39 33 -70 38 -67 18 7 9 207 -13 299 -51
210 -103 360 -168 479 -19 35 -33 65 -31 67 2 2 31 -21 65 -51 80 -73 129
-141 192 -265 54 -105 78 -180 126 -383 12 -55 25 -102 29 -105 12 -12 23 22
35 102 22 156 50 236 141 405 29 54 181 211 186 194 3 -7 -4 -25 -15 -40 -49
-69 -115 -238 -147 -373 -18 -78 -31 -247 -21 -285 6 -23 9 -25 22 -14 9 7 25
33 36 57 40 84 189 221 306 281 23 12 40 26 37 30 -3 5 3 7 14 4 10 -3 22 0
25 6 4 6 14 11 22 11 10 0 5 -11 -15 -32 -17 -18 -31 -36 -31 -40 0 -4 -7 -13
-15 -21 -18 -19 -136 -220 -154 -265 -14 -34 -10 -49 9 -37 7 4 37 46 67 94
30 47 82 125 114 172 32 48 55 90 51 94 -4 5 -2 5 4 2 6 -3 28 14 48 39 50 60
39 71 -45 48 -127 -35 -255 -114 -376 -233 -67 -66 -94 -87 -77 -60 4 6 13 48
21 93 29 169 90 324 188 475 35 54 44 75 35 81 -35 22 -161 -51 -238 -137 -57
-64 -132 -171 -132 -187 0 -5 -6 -17 -14 -25 -21 -24 -77 -196 -71 -217 17
-57 -28 54 -51 126 -40 128 -135 307 -155 294 -5 -3 -6 1 -4 8 7 16 -44 80
-57 72 -4 -3 -7 -1 -6 5 5 16 -60 79 -120 117 -59 38 -115 54 -126 35z m81
-823 c-3 -8 -6 -5 -6 6 -1 11 2 17 5 13 3 -3 4 -12 1 -19z"/>
<path d="M2832 2108 c-35 -5 -78 -15 -95 -22 -28 -12 3 -14 238 -9 251 5 301
11 281 30 -11 11 -347 12 -424 1z"/>
<path d="M7500 1949 c0 -5 20 -56 44 -112 24 -56 59 -140 76 -187 17 -47 35
-94 40 -105 14 -32 42 -137 37 -141 -2 -2 -15 8 -29 23 -89 98 -189 160 -302
189 -92 23 -103 10 -43 -53 25 -26 60 -65 77 -85 18 -21 37 -35 43 -31 5 3 7
1 3 -5 -3 -6 12 -37 35 -69 22 -32 47 -71 55 -88 20 -43 53 -98 70 -115 12
-12 14 -11 14 8 0 51 -105 242 -175 320 -73 81 -12 62 117 -35 65 -49 112
-104 155 -180 16 -29 33 -50 37 -46 4 4 4 0 0 -10 -3 -10 -1 -17 5 -17 7 0 14
7 18 16 8 22 -21 160 -64 293 -20 64 -37 118 -38 121 -1 3 -5 17 -9 33 -5 15
-11 27 -15 27 -4 0 -7 9 -8 20 -1 11 -16 48 -33 81 -17 34 -29 63 -27 65 5 5
137 -124 165 -161 36 -47 111 -199 132 -266 11 -33 25 -90 31 -125 6 -35 15
-66 19 -69 7 -4 31 51 45 105 13 51 70 190 77 190 4 0 8 6 8 13 0 16 78 123
114 156 32 30 33 19 2 -51 -41 -92 -87 -297 -84 -368 2 -36 8 -65 14 -67 7 -2
27 22 45 54 40 71 80 124 139 183 46 45 140 116 140 105 0 -3 -16 -29 -35 -58
-19 -28 -35 -55 -35 -60 0 -4 -11 -25 -25 -45 -29 -43 -68 -154 -63 -179 4
-20 36 24 91 127 50 93 117 193 161 240 l41 45 -38 3 c-40 3 -143 -38 -195
-78 -57 -45 -137 -127 -164 -169 -26 -42 -28 -43 -28 -18 0 47 66 241 131 384
24 53 24 53 -8 53 -52 0 -125 -59 -201 -163 -48 -64 -74 -113 -106 -197 -18
-48 -25 -58 -25 -38 -3 100 -175 415 -214 391 -6 -3 -7 -1 -4 4 9 14 -117 118
-166 138 -43 18 -47 18 -47 4z"/>
<path d="M9051 1729 c-54 -5 -90 -14 -100 -23 -14 -15 6 -16 207 -16 122 0
222 2 222 5 0 2 -14 12 -30 20 -37 19 -178 26 -299 14z"/>
<path d="M6060 1320 c-47 -5 -101 -16 -120 -24 l-35 -15 75 -1 c104 0 361 12
356 17 -8 9 -82 23 -136 27 -30 2 -93 0 -140 -4z"/>
<path d="M3935 1216 c-5 -3 -36 -7 -67 -11 -43 -5 -58 -10 -58 -22 0 -13 12
-14 78 -9 42 3 119 6 170 7 88 2 112 9 75 24 -21 8 -183 17 -198 11z"/>
</g>
</svg>
