<?xml version="1.0" encoding="UTF-8" standalone="yes"?>
<svg version="1.0" xmlns="http://www.w3.org/2000/svg" width="1024.000000pt" height="1024.000000pt" viewBox="0 0 1024.000000 1024.000000" preserveAspectRatio="xMidYMid meet">
  <metadata>
Created by potrace 1.16, written by Peter Selinger 2001-2019
</metadata>
  <g transform="translate(0.000000,1024.000000) scale(0.100000,-0.100000)" fill="#000000" stroke="none">
    <path d="M2565 9304 c-22 -3 -65 -10 -95 -16 -30 -6 -58 -11 -62 -10 -5 1 -8&#xA;-2 -8 -6 0 -4 -10 -9 -22 -10 -32 -2 -116 -36 -137 -53 -9 -9 -22 -14 -28 -12&#xA;-6 2 -18 -3 -26 -12 -9 -8 -20 -15 -25 -15 -5 0 -28 -13 -50 -30 -23 -16 -44&#xA;-30 -47 -30 -3 0 -11 -4 -18 -10 -7 -5 -41 -33 -77 -62 -77 -61 -135 -118&#xA;-124 -118 5 0 1 -5 -9 -11 -9 -6 -15 -15 -11 -20 3 -5 0 -8 -8 -7 -7 2 -12 -5&#xA;-12 -14 1 -9 -4 -14 -11 -12 -12 5 -26 -10 -87 -87 -78 -101 -128 -175 -123&#xA;-187 3 -7 1 -10 -5 -7 -15 9 -196 -316 -183 -329 4 -3 1 -6 -6 -6 -7 0 -10 -4&#xA;-7 -9 4 -5 2 -11 -3 -13 -13 -5 -51 -99 -44 -111 3 -5 2 -7 -4 -4 -11 7 -26&#xA;-27 -77 -168 -56 -158 -81 -238 -80 -262 0 -12 -3 -20 -7 -18 -3 3 -11 -14&#xA;-17 -38 -11 -45 -48 -215 -56 -257 -2 -14 -11 -56 -19 -95 -45 -210 -55 -336&#xA;-55 -675 0 -301 3 -367 28 -595 12 -107 59 -353 91 -472 10 -40 19 -75 19 -78&#xA;0 -4 4 -3 10 0 5 3 7 0 5 -7 -9 -22 54 -248 95 -343 10 -22 30 -71 46 -110 36&#xA;-88 147 -306 185 -363 16 -24 29 -44 29 -46 0 -12 95 -140 102 -138 5 1 7 -1&#xA;4 -6 -6 -10 51 -92 65 -92 5 0 8 -4 6 -8 -4 -15 85 -112 96 -105 6 3 7 1 3 -5&#xA;-7 -12 48 -77 139 -165 28 -27 71 -69 97 -94 25 -25 51 -42 57 -39 6 4 9 1 5&#xA;-7 -2 -7 7 -22 21 -33 31 -23 46 -34 115 -94 29 -25 67 -54 84 -65 18 -11 46&#xA;-30 62 -43 57 -45 107 -73 120 -68 8 3 13 1 11 -5 -1 -5 11 -17 27 -27 43 -25&#xA;76 -62 76 -86 1 -12 4 -39 8 -61 4 -22 7 -134 7 -250 0 -128 4 -213 10 -217 6&#xA;-5 6 -8 -1 -8 -7 0 -15 -21 -19 -47 -4 -27 -18 -93 -31 -148 -13 -55 -25 -109&#xA;-27 -120 -2 -11 -8 -31 -14 -45 -11 -25 -35 -106 -38 -125 -4 -34 -64 -105&#xA;-88 -105 -14 0 -137 -131 -137 -146 0 -8 -4 -14 -8 -14 -5 0 -17 -24 -26 -52&#xA;-30 -90 4 -128 127 -143 31 -4 57 -11 57 -15 0 -4 14 -14 32 -21 33 -13 109&#xA;-17 206 -9 31 3 56 0 60 -6 11 -17 130 -16 217 2 122 25 125 26 125 36 0 5 4&#xA;7 9 4 14 -9 86 60 109 105 25 50 59 167 63 219 2 19 6 40 10 45 4 6 10 46 14&#xA;89 4 44 12 84 19 90 6 7 48 10 101 10 l90 -2 0 -45 c0 -25 -3 -43 -6 -41 -7 4&#xA;-43 -162 -42 -196 0 -15 -1 -18 -4 -8 -7 28 -17 22 -72 -39 -45 -50 -56 -70&#xA;-52 -96 0 -4 -3 -6 -7 -5 -29 9 -102 -135 -102 -201 0 -49 71 -86 159 -83 19&#xA;1 42 -4 50 -12 23 -19 101 -47 112 -41 5 4 9 2 9 -3 0 -8 102 -8 145 1 11 2&#xA;26 -2 33 -10 22 -22 190 -23 204 0 5 8 8 8 8 1 0 -12 55 -5 103 14 15 7 27 9&#xA;27 7 0 -13 96 54 105 73 5 12 13 22 17 22 5 0 8 7 8 15 0 8 4 15 8 15 19 0 66&#xA;258 67 362 0 25 3 44 8 41 4 -2 7 17 8 44 1 103 11 178 26 193 9 8 13 9 9 3&#xA;-5 -9 2 -13 23 -13 16 0 32 6 34 13 4 9 6 9 6 -1 1 -7 5 -10 11 -7 5 3 10 1&#xA;10 -5 0 -6 5 -8 10 -5 6 4 71 6 145 6 121 -1 155 5 126 23 -4 3 -78 6 -164 7&#xA;-86 1 -169 4 -186 7 l-30 4 3 192 c5 235 3 219 19 209 6 -4 23 -8 37 -9 22 -1&#xA;116 -8 264 -20 33 -3 53 0 58 8 6 10 8 10 8 1 0 -10 25 -13 91 -13 86 0 90 -1&#xA;84 -20 -3 -11 -8 -32 -11 -47 -2 -16 -9 -48 -14 -73 -5 -25 -11 -87 -14 -138&#xA;-3 -89 -5 -95 -35 -126 -17 -18 -28 -36 -24 -41 5 -4 3 -5 -3 -2 -7 4 -19 -5&#xA;-28 -19 -10 -14 -39 -49 -66 -79 -52 -57 -83 -108 -73 -119 4 -3 1 -6 -5 -6&#xA;-8 0 -12 -20 -12 -54 0 -88 22 -104 170 -121 8 0 25 -7 38 -14 38 -20 62 -24&#xA;177 -25 139 -1 279 10 358 30 34 8 73 17 87 20 44 8 124 52 138 75 35 56 58&#xA;259 30 259 -10 0 -9 3 2 10 8 5 11 10 5 10 -5 0 -10 15 -11 33 l-1 32 113 -3&#xA;c75 -2 114 0 114 7 0 21 -42 31 -134 31 l-95 0 -8 38 c-12 58 -9 400 4 413 6&#xA;6 29 13 50 15 l38 5 37 -78 c20 -43 47 -90 60 -104 13 -15 34 -41 48 -59 14&#xA;-18 31 -39 38 -46 6 -7 12 -17 12 -23 0 -6 4 -11 8 -11 20 0 75 -164 74 -222&#xA;-1 -23 4 -38 11 -38 9 0 9 -2 0 -8 -7 -4 -13 -34 -14 -70 -1 -34 -6 -59 -10&#xA;-56 -5 3 -9 0 -9 -6 0 -14 -43 -72 -92 -125 -21 -22 -38 -45 -38 -51 0 -6 -9&#xA;-23 -20 -37 -12 -15 -24 -49 -27 -76 -5 -43 -2 -56 18 -86 13 -19 27 -35 32&#xA;-36 12 -2 21 -5 38 -13 9 -4 41 -8 72 -9 31 -1 57 -5 57 -8 0 -3 18 -14 40&#xA;-24 37 -17 186 -27 350 -25 124 2 305 61 371 121 37 34 62 76 55 94 -3 8 0 14&#xA;6 12 17 -3 38 91 36 161 0 34 -4 62 -7 62 -3 0 -7 24 -8 53 -2 28 -5 61 -7 72&#xA;-2 11 -5 26 -5 33 -1 8 -6 10 -13 6 -9 -5 -9 -2 1 9 7 9 10 17 5 17 -5 0 -10&#xA;12 -10 27 -2 30 -7 58 -17 83 -5 14 -11 41 -24 102 -3 16 -8 28 -12 28 -4 0&#xA;-7 8 -8 18 -3 34 -11 68 -31 122 -11 30 -29 88 -42 128 -12 40 -25 70 -29 68&#xA;-4 -3 -6 21 -5 52 2 49 6 76 18 127 2 6 9 38 16 72 10 52 15 61 29 54 9 -5 23&#xA;-6 31 -3 8 2 11 1 7 -4 -11 -12 268 -94 329 -97 29 -1 50 -5 48 -8 -2 -3 26&#xA;-11 62 -18 52 -9 69 -9 81 0 8 7 13 8 11 3 -2 -5 -1 -11 2 -13 10 -7 136 -28&#xA;162 -27 15 1 25 -1 22 -4 -19 -18 322 -31 553 -21 12 1 24 9 26 19 4 16 5 16&#xA;6 0 0 -10 7 -16 14 -13 6 2 32 6 57 9 44 5 63 8 153 21 87 13 337 89 437 133&#xA;179 78 285 139 370 211 30 26 68 58 85 72 60 50 86 79 79 90 -4 7 -3 9 4 5 12&#xA;-7 112 106 142 162 26 48 43 76 51 82 6 5 17 35 20 55 1 6 8 15 14 20 18 14&#xA;88 194 90 231 1 17 5 36 9 43 4 6 5 15 1 20 -3 5 0 13 6 16 5 4 8 13 5 21 -3&#xA;8 -2 14 2 14 4 0 8 8 9 18 0 16 5 51 19 155 5 36 3 47 -7 47 -11 0 -11 2 0 9&#xA;11 7 13 34 8 148 -9 181 -10 193 -32 295 -11 49 -23 84 -28 81 -6 -3 -7 -1 -3&#xA;5 11 19 -83 250 -107 260 -4 2 -5 7 -2 12 3 4 -18 39 -45 76 -28 38 -50 73&#xA;-50 77 0 5 -7 6 -16 3 -8 -3 -12 -2 -9 4 8 12 -125 146 -198 199 -102 74 -245&#xA;138 -307 137 -14 -1 -28 4 -32 9 -9 13 -305 13 -333 1 -11 -5 -33 -11 -48 -13&#xA;-37 -6 -147 -56 -173 -79 -11 -11 -26 -34 -33 -51 -11 -28 -11 -36 2 -57 18&#xA;-27 44 -32 161 -35 44 -1 83 -4 88 -7 4 -3 29 -8 55 -11 27 -3 56 -9 65 -14 9&#xA;-5 24 -9 33 -9 9 0 35 -9 57 -20 23 -11 46 -20 50 -20 5 0 45 -23 89 -51 146&#xA;-94 240 -221 305 -414 25 -72 27 -96 30 -250 3 -177 1 -191 -47 -325 -20 -54&#xA;-34 -85 -67 -144 -55 -97 -155 -188 -269 -242 -52 -25 -105 -48 -119 -50 -13&#xA;-2 -36 -9 -51 -16 -16 -6 -93 -13 -173 -16 -123 -4 -161 -1 -250 18 -58 12&#xA;-124 28 -148 36 -24 8 -48 11 -54 8 -6 -4 -8 -3 -5 3 3 5 -17 18 -46 28 -29&#xA;10 -87 35 -129 57 -43 21 -78 35 -78 32 0 -4 -8 3 -19 14 -10 12 -21 22 -25&#xA;22 -25 0 -229 172 -366 309 -91 91 -168 165 -172 164 -4 -2 -5 3 -3 10 3 6&#xA;-15 35 -40 62 -71 79 -77 85 -88 78 -6 -4 -7 -1 -2 7 4 7 4 15 -1 19 -5 3 -29&#xA;30 -53 59 -23 28 -48 49 -53 45 -7 -3 -8 -1 -4 5 4 7 -5 24 -21 40 -15 15 -47&#xA;49 -71 75 -24 27 -48 45 -54 41 -6 -4 -8 -3 -5 3 4 6 -38 52 -93 103 -109 102&#xA;-149 132 -163 123 -6 -3 -7 -1 -3 5 3 6 -8 22 -26 35 -72 53 -200 136 -255&#xA;163 -32 16 -59 32 -61 37 -2 4 -10 7 -17 7 -8 0 -30 9 -49 21 -20 12 -36 17&#xA;-36 12 0 -4 -4 -2 -8 4 -7 11 -119 56 -207 84 -42 14 -255 56 -350 70 -91 13&#xA;-454 15 -464 2 -3 -4 -22 -9 -41 -9 -55 -2 -159 -19 -255 -41 -80 -19 -347&#xA;-106 -415 -135 -133 -58 -349 -172 -343 -181 3 -6 1 -7 -6 -3 -9 6 -115 -45&#xA;-131 -63 -3 -3 -30 -19 -60 -35 -70 -37 -101 -61 -92 -71 4 -5 2 -5 -4 -2 -6&#xA;3 -45 -13 -88 -38 -87 -49 -262 -135 -277 -135 -5 0 -35 -9 -67 -21 -79 -28&#xA;-134 -34 -307 -33 -129 0 -160 4 -225 24 -41 13 -77 27 -80 30 -3 4 -16 10&#xA;-30 13 -69 17 -274 168 -326 239 -22 30 -135 170 -144 178 -3 3 -21 31 -40 62&#xA;-18 31 -38 54 -43 51 -6 -3 -7 -1 -3 5 4 6 -7 38 -24 72 -17 33 -27 60 -23 60&#xA;5 0 1 6 -7 13 -8 7 -17 19 -19 27 -2 8 -19 67 -38 130 -33 113 -38 131 -48&#xA;200 -3 19 -7 51 -10 70 -36 225 -33 570 5 718 6 22 5 32 -3 32 -9 0 -9 2 -1 8&#xA;6 4 16 34 23 67 19 101 21 111 41 181 11 37 17 71 13 77 -3 6 -2 7 4 4 5 -3&#xA;20 26 32 66 13 40 38 97 55 127 17 30 38 68 46 85 17 35 31 53 84 112 21 24&#xA;35 43 32 43 -4 0 5 11 19 24 l26 25 47 -32 c26 -17 59 -39 74 -49 51 -34 118&#xA;-69 118 -61 0 4 4 3 8 -4 15 -24 235 -103 265 -95 4 1 7 -3 7 -10 0 -6 2 -9 6&#xA;-6 3 3 25 0 48 -7 33 -10 47 -11 56 -2 10 9 11 9 6 0 -4 -7 4 -14 21 -17 175&#xA;-36 431 -39 561 -8 104 26 219 87 250 133 18 27 35 37 75 47 29 7 77 25 107&#xA;39 64 31 163 120 155 140 -2 8 -1 12 4 8 5 -3 20 21 33 52 20 51 23 75 23 193&#xA;0 105 -4 148 -19 195 -34 108 -86 192 -109 178 -6 -3 -7 -2 -4 4 8 13 -31 55&#xA;-44 47 -5 -3 -8 -2 -7 3 2 5 -6 18 -17 29 -57 59 -211 137 -367 185 -43 13&#xA;-78 28 -78 34 0 24 -41 92 -85 145 -87 103 -169 169 -260 210 -98 43 -235 76&#xA;-235 56 0 -7 -3 -6 -8 2 -9 13 -163 24 -237 16z m293 -68 c12 -3 26 -7 31 -10&#xA;5 -4 12 0 14 6 3 8 6 6 6 -5 1 -10 5 -16 9 -13 10 6 173 -76 222 -112 48 -35&#xA;148 -141 167 -177 22 -42 40 -58 46 -42 4 7 6 8 6 1 1 -6 -7 -18 -16 -25 -12&#xA;-10 -15 -11 -9 -1 6 10 1 11 -21 7 -15 -3 -37 -7 -48 -9 -36 -5 -65 -17 -65&#xA;-27 0 -5 10 -9 23 -9 124 -3 171 -11 282 -50 50 -17 98 -32 107 -33 9 -1 15&#xA;-4 13 -7 -2 -3 13 -15 33 -25 52 -27 157 -103 202 -147 21 -20 41 -34 46 -30&#xA;4 4 4 2 1 -5 -4 -6 0 -18 8 -26 8 -9 15 -22 15 -30 0 -7 3 -17 7 -21 4 -4 16&#xA;-28 27 -54 15 -37 20 -75 22 -185 1 -75 -1 -135 -5 -133 -4 3 -15 -19 -25 -47&#xA;-21 -62 -36 -81 -98 -128 -26 -20 -46 -38 -45 -40 1 -2 0 -3 -2 -2 -2 1 -19&#xA;-4 -37 -12 -19 -8 -34 -12 -34 -10 0 2 -21 -2 -47 -10 -36 -11 -93 -14 -228&#xA;-11 -99 2 -196 6 -215 10 -19 3 -51 8 -70 10 -19 2 -42 6 -50 9 -19 7 -129 38&#xA;-152 42 -10 2 -32 10 -50 18 -18 8 -55 23 -83 32 -73 26 -203 92 -260 133 -55&#xA;39 -115 93 -115 103 0 4 14 12 30 19 33 14 38 25 14 34 -51 19 -223 -80 -207&#xA;-120 8 -21 30 -17 67 11 33 25 60 25 69 1 6 -16 123 -106 137 -106 6 0 10 -4&#xA;10 -10 0 -12 222 -120 305 -148 98 -33 160 -51 196 -56 19 -3 72 -12 119 -20&#xA;86 -14 227 -28 310 -31 73 -3 77 -4 50 -19 -162 -89 -153 -86 -405 -93 -183&#xA;-4 -248 2 -418 41 -38 9 -74 13 -79 9 -6 -3 -8 -2 -5 4 3 5 -10 15 -30 21 -29&#xA;9 -39 9 -45 -1 -5 -8 -8 -7 -8 6 0 16 -17 21 -58 20 -7 -1 -11 2 -8 5 3 3 -22&#xA;19 -57 36 -34 18 -83 44 -110 59 -26 15 -53 25 -59 21 -6 -4 -8 -3 -5 3 4 5&#xA;-10 23 -31 39 -20 16 -61 52 -90 79 -30 28 -59 49 -64 47 -5 -1 -7 2 -4 7 6&#xA;10 -53 85 -60 78 -5 -5 43 -93 73 -133 30 -40 29 -49 -7 -87 -111 -117 -260&#xA;-383 -255 -454 1 -12 -2 -20 -6 -17 -9 5 -49 -116 -64 -196 -24 -127 -36 -196&#xA;-41 -245 -3 -33 -10 -77 -14 -97 -5 -27 -4 -38 4 -38 8 0 8 -2 0 -8 -13 -8&#xA;-18 -362 -6 -362 4 0 7 -24 8 -52 0 -29 4 -75 8 -103 4 -27 7 -58 7 -68 0 -10&#xA;5 -15 11 -11 6 4 8 2 4 -4 -8 -13 4 -93 13 -88 3 2 6 -8 6 -23 1 -36 36 -162&#xA;44 -157 3 2 7 -7 8 -21 0 -14 5 -28 10 -32 4 -3 9 -13 11 -21 2 -8 7 -16 12&#xA;-18 5 -2 6 -10 3 -19 -5 -12 -3 -14 7 -8 8 5 11 4 7 -2 -13 -20 81 -198 145&#xA;-278 5 -5 27 -35 50 -65 49 -65 233 -250 248 -250 6 0 18 -7 27 -15 8 -8 19&#xA;-12 25 -9 6 4 8 2 4 -4 -6 -9 125 -80 132 -71 1 2 6 -1 10 -7 9 -15 90 -43&#xA;172 -60 130 -26 406 -7 525 37 134 50 310 141 468 243 113 72 279 163 420 230&#xA;65 31 120 56 123 56 2 0 26 9 52 21 102 45 113 49 132 49 10 0 26 7 34 16 9 8&#xA;16 13 16 10 0 -3 24 2 53 11 56 17 75 21 95 22 7 1 10 6 6 13 -4 7 -3 8 4 4 7&#xA;-4 40 -2 74 5 35 6 70 12 78 14 8 1 14 8 12 16 -2 9 0 10 11 1 8 -7 16 -9 19&#xA;-7 10 10 82 16 275 21 208 7 373 -5 508 -36 44 -10 83 -16 87 -14 4 3 8 1 8&#xA;-4 0 -4 37 -19 83 -32 45 -13 94 -29 108 -36 15 -7 29 -10 33 -7 3 4 6 1 6 -5&#xA;0 -7 6 -12 13 -12 6 0 52 -21 101 -45 49 -24 94 -41 100 -38 6 3 8 2 3 -2 -9&#xA;-11 77 -66 95 -61 7 1 9 1 5 -2 -13 -7 36 -43 50 -37 8 2 11 0 8 -5 -7 -12 55&#xA;-51 68 -43 6 3 7 1 4 -4 -4 -6 3 -18 16 -26 12 -8 37 -29 55 -46 18 -18 37&#xA;-29 43 -26 5 4 8 2 7 -3 -2 -5 29 -40 67 -77 39 -37 95 -91 125 -120 30 -29&#xA;67 -67 82 -85 16 -20 31 -29 39 -24 8 5 10 3 5 -5 -10 -15 23 -53 37 -44 6 3&#xA;7 1 3 -5 -5 -8 32 -62 64 -92 3 -3 23 -27 45 -55 88 -111 138 -164 149 -158 6&#xA;3 8 3 4 -2 -11 -11 12 -36 25 -28 5 3 7 2 4 -4 -3 -5 39 -54 93 -108 55 -54&#xA;100 -94 100 -89 0 5 5 1 11 -9 6 -9 15 -14 21 -11 7 4 8 2 4 -4 -7 -12 50 -59&#xA;66 -54 5 1 7 -2 3 -7 -7 -12 29 -33 40 -23 5 4 5 2 2 -5 -8 -12 68 -73 90 -73&#xA;7 0 13 -4 13 -10 0 -5 7 -10 15 -10 8 0 15 -4 15 -8 0 -8 66 -45 82 -46 3 -1&#xA;10 -4 14 -9 11 -11 113 -58 134 -62 10 -2 28 -9 40 -15 11 -6 56 -20 98 -30&#xA;42 -10 91 -22 107 -26 72 -17 296 -25 375 -13 101 16 112 18 124 27 11 9 49&#xA;21 91 29 71 13 318 214 300 244 -6 8 -4 10 4 5 8 -5 14 0 18 13 3 12 9 21 13&#xA;21 13 0 82 149 74 161 -4 7 -3 9 3 6 12 -8 47 108 39 128 -3 8 0 15 6 17 7 3&#xA;12 51 14 139 3 135 -16 274 -45 327 -6 12 -8 22 -4 22 4 0 2 5 -5 12 -7 7 -12&#xA;18 -12 25 0 14 -50 122 -73 157 -75 117 -271 282 -309 260 -7 -4 -10 -4 -6 1&#xA;16 17 -167 83 -198 71 -9 -3 -12 -1 -9 4 4 6 -6 10 -22 11 -15 0 -37 2 -48 4&#xA;-11 1 -47 6 -80 9 -143 16 -146 17 -133 29 44 43 128 81 208 96 48 8 289 8&#xA;320 -1 14 -4 41 -11 60 -16 106 -27 237 -96 315 -168 26 -24 52 -41 58 -37 5&#xA;3 7 2 4 -4 -8 -13 47 -66 57 -56 4 5 6 4 4 -2 -1 -5 19 -40 45 -76 26 -37 47&#xA;-69 47 -71 0 -3 20 -40 45 -84 37 -65 97 -219 110 -284 2 -8 4 -15 5 -15 1 0&#xA;3 -20 6 -44 2 -24 8 -49 13 -55 4 -6 9 -45 10 -86 3 -90 9 -122 25 -114 6 3 4&#xA;0 -4 -8 -10 -9 -15 -34 -16 -78 -2 -113 -7 -185 -14 -195 -4 -5 -12 -41 -18&#xA;-80 -22 -135 -44 -199 -121 -355 -36 -72 -58 -112 -73 -134 -29 -42 -132 -166&#xA;-157 -190 -17 -16 -28 -33 -25 -38 3 -5 0 -7 -8 -6 -7 2 -12 -3 -10 -10 1 -8&#xA;-1 -11 -6 -8 -14 8 -53 -24 -46 -37 4 -7 4 -9 -1 -5 -4 4 -24 -5 -44 -21 -20&#xA;-15 -46 -33 -59 -40 -12 -7 -20 -17 -16 -23 4 -6 3 -8 -4 -5 -9 6 -148 -64&#xA;-162 -82 -3 -3 -10 -7 -17 -8 -12 -3 -175 -65 -218 -83 -27 -12 -163 -51 -195&#xA;-56 -14 -3 -32 -7 -40 -10 -8 -3 -37 -8 -65 -11 -27 -3 -57 -9 -65 -13 -8 -4&#xA;-40 -8 -70 -9 -30 -2 -58 -5 -63 -8 -24 -15 -437 -19 -484 -4 -27 8 -31 7 -27&#xA;-7 5 -16 5 -16 -5 -1 -8 12 -34 18 -93 23 -46 4 -99 11 -118 16 -19 5 -75 16&#xA;-125 25 -150 27 -185 35 -319 78 -180 58 -192 63 -187 79 8 24 11 478 3 478&#xA;-4 0 -7 27 -8 61 0 33 -5 64 -10 67 -5 4 -9 21 -9 37 1 80 -81 335 -107 335&#xA;-11 0 2 -54 14 -58 4 -2 6 -7 3 -12 -2 -4 2 -32 9 -61 21 -79 37 -191 43 -296&#xA;4 -60 9 -90 16 -86 5 3 7 2 4 -4 -3 -5 -8 -103 -11 -219 -3 -115 -8 -220 -11&#xA;-234 -5 -23 -18 -152 -19 -192 0 -10 -3 -18 -7 -18 -13 0 -29 -102 -23 -149 9&#xA;-69 18 -105 64 -231 48 -135 101 -333 114 -425 4 -23 9 -52 12 -65 3 -14 8&#xA;-65 11 -113 6 -95 -3 -139 -44 -213 -12 -23 -19 -45 -15 -49 4 -5 2 -5 -4 -2&#xA;-6 3 -26 -4 -45 -17 -19 -13 -45 -26 -59 -30 -14 -4 -33 -10 -42 -12 -14 -4&#xA;-18 1 -18 18 0 29 -44 121 -53 111 -4 -3 -7 0 -7 9 0 24 -36 49 -79 55 -38 5&#xA;-45 3 -81 -35 l-40 -40 -14 46 c-8 26 -19 46 -25 45 -5 -2 -8 3 -5 11 6 15&#xA;-22 30 -37 20 -5 -3 -8 0 -7 8 4 20 -68 12 -100 -10 -15 -11 -37 -25 -50 -31&#xA;-22 -11 -22 -11 -10 8 10 17 9 25 -8 48 -12 15 -35 32 -51 37 l-31 8 29 47&#xA;c49 80 49 267 -1 375 -11 25 -25 57 -30 72 -6 14 -14 23 -18 20 -4 -2 -8 4 -9&#xA;15 -1 10 -13 30 -27 44 -14 14 -26 29 -26 34 0 4 -8 16 -18 27 -82 88 -185&#xA;322 -209 474 -3 19 -8 37 -12 40 -6 5 -7 10 -9 61 -1 16 -5 28 -9 26 -5 -3 -9&#xA;14 -10 36 -2 23 -7 80 -12 127 -13 112 -5 415 13 505 13 66 17 120 7 105 -9&#xA;-15 -48 -128 -57 -165 -15 -62 -24 -221 -20 -337 8 -209 24 -310 82 -501 20&#xA;-65 34 -124 31 -130 -6 -16 -69 -33 -192 -52 -11 -2 -45 -6 -75 -9 -30 -3 -80&#xA;-9 -110 -14 -72 -9 -728 -9 -850 1 -52 4 -98 11 -103 16 -5 5 -10 19 -12 32&#xA;-2 13 -9 59 -16 102 -7 42 -15 77 -18 77 -4 0 -8 16 -9 36 -2 20 -7 44 -11 53&#xA;-5 9 -12 34 -16 56 -5 22 -9 45 -11 52 -10 51 -78 243 -86 243 -14 0 -1 -83&#xA;38 -250 18 -80 34 -149 34 -153 0 -5 4 -6 9 -3 4 3 6 -5 4 -18 -3 -13 0 -27 6&#xA;-30 5 -4 8 -12 5 -20 -3 -7 0 -33 6 -57 6 -24 13 -60 16 -79 2 -19 9 -55 15&#xA;-78 5 -24 9 -125 8 -225 -1 -168 -7 -266 -25 -452 -4 -38 -8 -86 -8 -107 -1&#xA;-20 -4 -34 -7 -32 -4 2 -10 -27 -14 -64 -12 -98 -16 -117 -34 -164 -6 -16 -7&#xA;-28 -3 -28 4 0 1 -4 -6 -9 -7 -4 -14 -17 -15 -29 0 -12 -3 -19 -6 -17 -2 3&#xA;-18 -6 -35 -18 -28 -22 -87 -47 -107 -47 -5 0 -9 16 -9 36 0 59 -21 113 -58&#xA;150 -61 61 -151 41 -182 -42 l-12 -29 -12 35 c-28 74 -35 88 -62 109 -58 45&#xA;-110 39 -165 -19 l-37 -39 -6 31 c-6 28 -50 78 -69 78 -5 0 5 17 22 39 17 21&#xA;27 41 23 45 -4 4 -2 7 3 6 62 -13 104 112 140 415 3 28 10 79 16 115 14 88 9&#xA;193 -11 265 -21 74 -79 197 -90 190 -4 -3 -7 1 -7 8 1 6 -36 87 -81 179 -45&#xA;92 -82 174 -82 182 0 9 -4 16 -10 16 -5 0 -9 3 -8 8 3 11 -22 92 -29 92 -11 0&#xA;10 -155 27 -195 4 -11 18 -48 30 -82 12 -35 26 -63 31 -63 5 0 9 -7 9 -17 0&#xA;-9 12 -32 26 -51 l27 -34 -44 5 c-43 5 -167 44 -279 87 -30 12 -71 27 -91 35&#xA;-20 7 -45 18 -55 23 -38 21 -99 45 -112 45 -6 0 -10 3 -7 6 3 3 -9 12 -27 21&#xA;-84 42 -144 75 -156 87 -8 8 -28 21 -45 29 -18 9 -40 23 -49 31 -9 8 -22 12&#xA;-28 8 -6 -3 -9 -1 -8 5 2 6 -14 21 -36 33 -21 12 -48 31 -60 42 -32 29 -66 50&#xA;-77 48 -5 -2 -8 1 -6 6 1 5 -57 58 -130 119 -73 60 -149 127 -169 148 -20 22&#xA;-83 90 -141 151 -58 62 -110 110 -116 106 -5 -3 -7 -1 -4 4 8 13 -120 189&#xA;-134 185 -6 -1 -7 3 -3 9 4 7 -1 18 -11 26 -11 7 -16 13 -12 13 7 0 -102 192&#xA;-114 200 -4 3 -7 7 -7 10 0 18 -37 78 -45 73 -6 -3 -7 -1 -3 5 9 14 -48 124&#xA;-59 114 -5 -4 -5 -1 -1 6 4 7 4 18 -2 25 -5 7 -17 35 -27 64 -10 29 -23 49&#xA;-28 46 -6 -3 -7 -1 -3 5 3 6 -5 39 -18 74 -13 35 -30 82 -37 105 -6 24 -16 40&#xA;-22 36 -6 -3 -7 -2 -4 4 4 6 -11 79 -33 164 -21 85 -41 165 -44 179 -8 38 -14&#xA;70 -26 120 -9 42 -32 199 -33 228 0 6 -3 12 -6 12 -3 0 -6 24 -6 53 -1 28 -5&#xA;88 -10 132 -12 97 -13 611 -2 715 24 222 63 442 107 610 36 135 42 154 67 227&#xA;13 40 25 82 26 93 1 11 4 20 7 20 4 0 7 6 7 13 0 14 75 213 93 245 5 10 31 62&#xA;58 117 27 55 58 116 69 135 124 215 135 232 153 247 8 7 12 13 8 13 -5 0 1 9&#xA;12 20 12 12 18 25 15 30 -4 6 -2 10 3 10 4 0 27 23 51 52 105 130 238 255 349&#xA;330 81 55 243 130 307 143 22 5 45 9 50 11 59 17 121 21 235 18 74 -2 145 -5&#xA;158 -8z m-613 -1356 c3 -6 -1 -7 -9 -4 -18 7 -21 14 -7 14 6 0 13 -4 16 -10z&#xA;m1122 -86 c-3 -3 -12 -4 -19 -1 -8 3 -5 6 6 6 11 1 17 -2 13 -5z m-2140 -86&#xA;c-3 -8 -6 -5 -6 6 -1 11 2 17 5 13 3 -3 4 -12 1 -19z m-93 -284 c3 -8 2 -12&#xA;-4 -9 -6 3 -10 10 -10 16 0 14 7 11 14 -7z m7786 -1960 c0 -8 -19 -13 -24 -6&#xA;-3 5 1 9 9 9 8 0 15 -2 15 -3z m565 -314 c-3 -5 -12 -10 -18 -10 -7 0 -6 4 3&#xA;10 19 12 23 12 15 0z m-6838 -42 c-3 -8 -6 -5 -6 6 -1 11 2 17 5 13 3 -3 4&#xA;-12 1 -19z m164 -1690 c106 -58 132 -69 140 -57 7 11 9 11 9 -3 0 -19 34 -33&#xA;51 -22 7 4 9 3 6 -4 -7 -9 98 -50 116 -44 4 1 7 -2 7 -7 0 -5 15 -12 33 -16&#xA;17 -3 41 -10 52 -15 11 -4 28 -11 37 -13 31 -10 34 -124 12 -442 -4 -44 -7&#xA;-87 -9 -95 -2 -8 -6 -46 -9 -85 -12 -125 -17 -155 -32 -215 -8 -32 -16 -72&#xA;-17 -89 -1 -17 -5 -31 -9 -31 -5 0 -8 -6 -8 -14 0 -31 -52 -153 -75 -177 -31&#xA;-31 -55 -51 -55 -45 0 2 -14 1 -31 -4 -41 -12 -59 -3 -59 29 0 38 -11 72 -21&#xA;65 -5 -3 -6 1 -3 9 3 8 -2 22 -11 31 -9 9 -13 16 -9 16 4 0 -5 9 -20 21 -14&#xA;11 -30 17 -36 14 -5 -3 -10 0 -10 7 0 9 -3 9 -10 -2 -7 -11 -10 -11 -10 -2 0&#xA;18 -35 -1 -84 -47 -21 -20 -36 -31 -33 -25 11 19 -12 81 -42 113 -23 24 -37&#xA;31 -68 31 -21 0 -49 -7 -61 -16 -27 -19 -25 -20 -45 28 -16 37 -16 38 14 59&#xA;21 15 29 27 26 40 -3 11 -2 17 2 15 4 -3 13 16 20 42 8 26 22 74 33 107 48&#xA;146 71 249 88 400 13 109 4 401 -16 493 -2 12 -2 22 1 22 3 0 64 -32 136 -72z&#xA;m614 -227 c32 -18 64 -75 90 -163 25 -86 18 -287 -14 -405 -1 -2 -1 -7 -1 -13&#xA;0 -6 -38 -10 -95 -10 l-95 0 5 71 c3 39 7 75 11 80 7 12 16 187 16 346 l1 123&#xA;26 -6 c14 -4 39 -14 56 -23z m828 -86 c-3 -9 -8 -14 -10 -11 -3 3 -2 9 2 15 9&#xA;16 15 13 8 -4z m1263 -88 c-1 -7 -5 -17 -9 -24 -8 -13 -2 -368 9 -483 4 -41&#xA;12 -78 18 -82 8 -6 7 -8 -1 -8 -9 0 -11 -15 -7 -50 6 -53 -8 -113 -33 -142&#xA;-20 -23 -140 -61 -233 -73 -25 -3 -64 -8 -87 -11 -31 -5 -46 -2 -58 10 -9 9&#xA;-12 16 -7 16 11 0 -7 75 -29 125 -40 87 -94 126 -151 106 -17 -6 -40 -19 -50&#xA;-28 -17 -15 -18 -15 -18 6 0 47 -60 103 -73 69 -3 -7 -6 -2 -6 12 -1 18 12 37&#xA;46 66 l47 41 7 124 c6 102 26 270 32 275 1 1 47 5 102 8 190 13 422 40 431 49&#xA;1 1 18 3 37 4 22 1 34 -3 33 -10z m-616 -57 c0 -5 -2 -10 -4 -10 -3 0 -8 5&#xA;-11 10 -3 6 -1 10 4 10 6 0 11 -4 11 -10z m-33 -302 c-3 -7 -5 -2 -5 12 0 14&#xA;2 19 5 13 2 -7 2 -19 0 -25z m-103 -240 c-5 -7 -2 -9 9 -5 9 3 18 -1 22 -11 5&#xA;-14 7 -14 15 -2 7 11 10 4 11 -25 2 -54 -1 -78 -11 -90 -5 -6 -14 -32 -21 -58&#xA;l-12 -48 -46 2 c-25 1 -58 8 -73 16 -36 18 -37 57 -3 121 31 59 43 73 80 94&#xA;38 20 38 20 29 6z m270 -132 c24 -48 34 -135 17 -145 -20 -13 -118 -13 -181 0&#xA;-56 11 -75 22 -50 31 6 2 11 17 13 35 1 17 5 29 10 26 6 -4 11 15 10 44 -1 7&#xA;3 11 7 8 5 -3 17 8 26 25 38 64 111 52 148 -24z m-2576 11 c21 -27 22 -67 3&#xA;-105 -10 -20 -25 -56 -32 -80 l-13 -43 -50 6 c-56 8 -77 25 -68 58 7 30 43 85&#xA;85 129 19 20 33 38 31 40 -2 2 5 4 16 5 10 1 23 -4 28 -10z m201 -83 c21 -30&#xA;25 -48 25 -109 1 -40 -2 -76 -6 -80 -13 -13 -143 -9 -176 5 -28 13 -32 19 -29&#xA;45 10 74 84 169 134 173 22 1 33 -6 52 -34z m3277 -22 c12 -6 23 -9 26 -7 3 3&#xA;5 -1 6 -7 1 -7 4 -32 7 -54 5 -29 2 -51 -9 -72 -9 -17 -16 -42 -16 -56 0 -16&#xA;-7 -27 -20 -31 -32 -10 -92 -2 -125 16 -24 13 -30 22 -28 45 3 40 52 131 85&#xA;159 29 25 41 26 74 7z m-3059 -17 c8 -8 18 -13 21 -11 4 2 8 -10 9 -27 1 -17&#xA;6 -33 11 -36 4 -3 9 -22 11 -42 2 -32 -1 -38 -28 -49 -17 -7 -40 -10 -51 -7&#xA;-11 3 -20 0 -20 -6 0 -7 -5 -5 -10 3 -9 13 -10 13 -10 0 0 -12 -2 -12 -9 -2&#xA;-4 7 -12 12 -17 11 -24 -4 -34 3 -34 25 0 34 20 88 41 112 11 11 16 24 12 29&#xA;-5 4 -3 5 4 1 6 -3 14 -2 18 4 9 15 34 12 52 -5z m1363 -11 c0 -8 -19 -13 -24&#xA;-6 -3 5 1 9 9 9 8 0 15 -2 15 -3z m1938 -21 c32 -31 48 -104 43 -205 l-1 -26&#xA;-92 0 c-62 0 -99 5 -113 14 -12 8 -25 11 -28 7 -4 -3 -7 5 -7 18 1 22 45 109&#xA;80 155 36 48 90 65 118 37z m-2782 -66 c2 -2 9 -29 15 -59 14 -72 -1 -109 -48&#xA;-119 -18 -3 -30 -3 -28 2 3 4 -9 9 -26 11 -18 2 -37 12 -45 23 -12 19 -10 28&#xA;17 80 17 33 36 63 42 67 10 6 66 2 73 -5z m3005 3 c52 -29 94 -159 52 -161&#xA;-10 0 -27 -2 -38 -4 -21 -4 -103 -8 -123 -6 -8 1 -11 17 -10 50 2 27 5 47 7&#xA;45 2 -2 13 13 24 34 28 53 48 63 88 42z m-2782 -10 c15 0 43 -63 56 -127 18&#xA;-88 10 -103 -55 -103 -102 0 -193 34 -172 64 4 6 14 29 21 51 8 22 22 52 32&#xA;66 21 30 77 61 97 54 8 -3 17 -5 21 -5z m2628 -35 c0 -8 -4 -12 -9 -9 -5 3 -6&#xA;10 -3 15 9 13 12 11 12 -6z m-2343 -58 c16 -22 21 -43 21 -90 l0 -62 -92 -3&#xA;-93 -3 0 31 c0 34 44 128 69 147 26 21 72 11 95 -20z"/>
    <path d="M2595 9031 c-17 -4 -29 -13 -27 -20 1 -7 -2 -10 -8 -6 -16 10 -95&#xA;-40 -128 -82 -37 -48 -72 -116 -72 -142 0 -11 -4 -22 -9 -25 -13 -8 -14 -166&#xA;-1 -166 6 0 8 -5 5 -10 -7 -12 41 -105 73 -140 53 -59 69 -72 105 -91 21 -11&#xA;42 -17 47 -14 6 3 10 2 10 -3 0 -10 11 -11 90 -12 70 0 90 4 153 33 57 26 140&#xA;104 132 124 -2 7 1 12 7 10 11 -2 46 53 55 88 3 11 8 59 10 106 4 77 2 92 -21&#xA;140 -33 70 -116 165 -127 147 -7 -10 -9 -9 -9 3 0 16 -17 27 -84 54 -39 15&#xA;-145 19 -201 6z m205 -67 c54 -17 126 -81 160 -144 21 -38 24 -59 24 -135 0&#xA;-94 -17 -147 -65 -198 -10 -11 -16 -25 -12 -30 3 -6 1 -7 -5 -3 -6 4 -27 -9&#xA;-46 -27 -19 -19 -37 -32 -40 -30 -2 2 -18 -3 -35 -11 -71 -37 -210 -8 -290 60&#xA;-125 107 -127 331 -3 458 75 78 187 100 312 60z"/>
    <path d="M2813 8732 c-12 -2 -34 -17 -48 -33 -21 -26 -25 -41 -25 -92 0 -35 6&#xA;-69 14 -79 16 -22 66 -42 66 -27 0 6 5 7 10 4 38 -24 79 44 77 127 -3 77 -34&#xA;110 -94 100z"/>
    <path d="M3597 8332 c-15 -16 -15 -21 -2 -39 8 -11 28 -26 44 -33 22 -9 36&#xA;-26 52 -66 13 -30 28 -53 33 -51 6 2 12 26 14 53 3 54 -28 121 -50 108 -6 -4&#xA;-8 -3 -4 4 9 15 -21 42 -48 42 -13 0 -30 -8 -39 -18z"/>
    <path d="M5120 5643 c-30 -8 -58 -20 -62 -26 -4 -7 -8 -9 -8 -4 0 4 -14 0 -30&#xA;-8 -19 -10 -28 -20 -24 -28 4 -7 4 -9 -1 -5 -27 24 -94 -74 -102 -150 -5 -52&#xA;8 -90 50 -138 30 -35 104 -77 118 -68 7 4 9 3 6 -3 -8 -14 28 -29 102 -44 118&#xA;-23 326 2 378 46 6 6 27 21 46 35 47 34 73 77 80 131 5 38 1 54 -23 96 -16 28&#xA;-44 63 -62 78 -40 34 -151 86 -190 89 -15 1 -31 5 -34 9 -13 12 -187 5 -244&#xA;-10z m311 -60 c50 -16 93 -38 124 -64 26 -21 43 -39 39 -39 -5 0 0 -7 10 -15&#xA;26 -19 25 -92 -1 -137 -25 -43 -90 -86 -156 -104 -77 -20 -245 -20 -309 2&#xA;-135 44 -193 101 -203 199 -2 19 33 80 62 107 25 24 118 60 183 71 68 12 178&#xA;3 251 -20z"/>
    <path d="M4387 5524 c-9 -3 -14 -10 -11 -16 4 -7 2 -8 -4 -4 -23 14 -121 -61&#xA;-148 -112 -35 -67 0 -161 76 -200 49 -26 184 -41 195 -22 4 6 10 8 15 5 12 -7&#xA;88 31 118 59 13 11 30 33 38 48 16 32 19 128 3 128 -5 0 -8 4 -4 9 8 14 -34&#xA;55 -83 80 -43 22 -156 36 -195 25z m175 -57 c9 -1 16 -3 14 -5 -2 -2 11 -19&#xA;30 -39 19 -19 31 -39 28 -44 -3 -5 -1 -9 4 -9 12 0 3 -49 -15 -76 -7 -11 -10&#xA;-24 -6 -29 5 -4 3 -5 -4 -2 -6 4 -17 1 -25 -6 -39 -39 -171 -63 -232 -42 -49&#xA;17 -106 72 -106 101 0 54 43 111 103 138 56 25 61 26 127 20 36 -3 73 -7 82&#xA;-7z"/>
    <path d="M5960 5339 c-56 -33 -89 -78 -90 -122 0 -45 16 -81 32 -71 7 4 8 3 4&#xA;-4 -11 -18 46 -70 110 -98 69 -31 165 -42 218 -24 20 6 52 26 71 45 29 26 35&#xA;40 35 72 0 67 -75 153 -175 199 -66 31 -155 33 -205 3z m154 -28 c-2 -2 14&#xA;-12 36 -22 23 -10 48 -25 56 -33 8 -9 20 -19 27 -23 23 -15 48 -51 57 -83 9&#xA;-30 7 -36 -26 -67 -31 -29 -42 -33 -89 -33 -55 0 -158 32 -183 56 -7 8 -21 19&#xA;-31 26 -23 16 -64 88 -51 88 6 0 10 8 10 18 0 26 43 63 81 71 35 7 120 9 113&#xA;2z"/>
    <path d="M4799 4996 c-63 -22 -115 -72 -124 -117 -7 -38 35 -99 87 -125 85&#xA;-43 236 -22 305 42 28 27 33 38 33 77 0 40 -4 49 -39 79 -63 54 -180 74 -262&#xA;44z m155 -37 c-2 -4 9 -9 24 -12 45 -9 82 -44 82 -78 0 -16 -5 -29 -11 -29 -5&#xA;0 -7 -5 -3 -12 4 -6 3 -8 -3 -5 -6 4 -21 -2 -35 -12 -31 -25 -130 -39 -188&#xA;-28 -64 13 -97 39 -102 81 -2 19 -1 33 3 31 3 -3 15 5 25 16 23 26 50 41 87&#xA;48 38 8 126 8 121 0z"/>
    <path d="M5514 4995 c-38 -17 -91 -76 -100 -111 -9 -36 11 -96 43 -129 33 -33&#xA;100 -68 113 -60 6 3 10 2 10 -2 0 -14 44 -13 52 0 5 8 8 8 8 1 0 -16 110 4&#xA;133 24 9 8 17 11 17 7 0 -21 69 60 80 95 17 50 9 77 -37 127 -30 32 -49 43&#xA;-91 52 -70 15 -189 13 -228 -4z m250 -49 c74 -31 88 -101 31 -156 -19 -19 -35&#xA;-31 -35 -27 0 4 -15 0 -32 -9 -51 -27 -158 -23 -200 7 -18 13 -36 27 -39 32&#xA;-4 5 -12 6 -19 2 -9 -5 -11 -4 -6 3 4 6 2 20 -3 30 -8 14 -5 29 8 55 13 25 15&#xA;38 7 42 -6 3 -4 3 4 1 8 -2 23 3 32 11 9 9 32 19 50 24 44 11 160 3 202 -15z"/>
    <path d="M7267 9212 c-20 -2 -35 -7 -33 -11 3 -5 -5 -6 -18 -4 -31 6 -160 -50&#xA;-211 -92 -108 -87 -213 -213 -199 -237 4 -6 3 -8 -3 -5 -11 7 -51 -93 -73&#xA;-182 -14 -55 -20 -230 -9 -237 14 -8 11 -34 -3 -31 -7 1 -21 10 -32 20 -11 9&#xA;-27 17 -36 17 -9 0 -20 4 -25 9 -16 15 -142 41 -199 41 -118 0 -207 -28 -296&#xA;-94 -61 -45 -81 -67 -73 -79 2 -4 -1 -6 -9 -5 -7 2 -12 -3 -11 -9 2 -7 -2 -12&#xA;-8 -10 -6 1 -28 -29 -48 -68 -34 -66 -36 -75 -36 -168 0 -63 4 -100 12 -105&#xA;11 -7 13 -12 13 -30 0 -5 8 -17 18 -28 10 -10 20 -23 21 -29 6 -19 39 -55 50&#xA;-55 6 0 11 -4 11 -9 0 -12 122 -72 150 -74 11 -1 20 -4 20 -8 0 -12 39 -17 44&#xA;-5 3 7 5 7 5 -2 1 -7 6 -10 11 -7 6 3 10 2 10 -3 0 -5 6 -9 13 -10 6 0 30 -5&#xA;52 -11 53 -13 121 -23 285 -40 106 -11 1866 -9 1900 3 14 4 34 8 45 7 29 -1&#xA;171 28 230 46 135 43 203 130 189 239 -10 81 -73 152 -163 182 -47 16 -178 15&#xA;-234 -2 -47 -14 -47 -14 -41 9 9 36 7 136 -4 175 -24 93 -86 167 -159 190 -21&#xA;7 -42 15 -48 19 -17 9 -37 13 -113 18 -79 6 -146 -10 -233 -53 -27 -13 -51&#xA;-19 -58 -14 -8 4 -9 9 -3 11 16 6 25 111 10 121 -9 5 -10 8 -1 8 15 0 4 94&#xA;-21 181 -25 82 -85 186 -100 171 -4 -3 -4 0 -1 9 3 9 -14 35 -50 72 -31 31&#xA;-59 57 -64 57 -4 0 -21 12 -39 28 -29 26 -95 55 -152 67 -14 2 -47 9 -75 15&#xA;-46 10 -109 10 -208 2z m213 -57 c8 -2 30 -7 49 -10 19 -3 42 -10 52 -16 11&#xA;-5 19 -7 19 -3 0 4 8 0 18 -8 9 -9 31 -23 48 -31 16 -9 53 -36 81 -61 28 -25&#xA;52 -43 55 -41 3 3 5 -1 5 -8 0 -6 12 -31 26 -54 15 -24 34 -61 43 -83 9 -22&#xA;19 -38 23 -36 4 3 7 -3 7 -12 1 -9 4 -33 8 -52 15 -71 15 -263 0 -318 -21 -79&#xA;1 -97 49 -42 65 73 238 124 335 100 20 -5 32 -5 32 2 0 5 7 2 16 -6 8 -9 22&#xA;-16 30 -16 19 0 55 -20 76 -43 9 -11 22 -16 28 -12 6 3 10 3 9 -2 -4 -22 2&#xA;-34 14 -27 6 4 9 3 4 -1 -4 -5 0 -19 8 -32 9 -13 13 -23 11 -23 -3 0 2 -16 10&#xA;-35 18 -44 18 -109 -1 -160 -30 -84 -11 -102 66 -61 44 25 58 27 140 25 90 -2&#xA;133 -14 181 -52 16 -13 63 -107 53 -107 -3 0 0 -12 5 -26 6 -14 6 -23 1 -20&#xA;-5 3 -14 -8 -21 -24 -7 -17 -17 -30 -22 -30 -5 0 -7 -4 -4 -8 8 -13 -60 -47&#xA;-139 -70 -187 -54 -131 -51 -1225 -49 -756 1 -1020 5 -1035 14 -12 6 -51 13&#xA;-88 15 -37 1 -67 5 -67 8 0 4 -36 14 -80 24 -44 10 -87 24 -97 32 -10 7 -23&#xA;14 -30 14 -20 0 -79 44 -104 77 -19 25 -27 29 -39 20 -13 -10 -13 -10 -3 4 10&#xA;12 8 24 -10 60 -34 68 -29 167 13 245 18 32 45 73 61 90 16 17 27 33 24 37 -3&#xA;4 -2 5 1 2 11 -7 45 15 39 26 -4 5 -3 8 2 7 4 -1 40 11 78 27 60 25 85 29 177&#xA;32 108 2 154 -8 239 -53 14 -7 29 -11 33 -7 3 3 6 1 6 -5 0 -6 8 -13 18 -16 9&#xA;-3 30 -17 46 -31 52 -44 87 -13 48 42 -37 53 -45 190 -18 307 7 30 10 53 6 51&#xA;-10 -6 77 161 95 183 8 9 28 35 45 57 18 22 53 57 78 79 26 21 46 43 44 48 -1&#xA;5 2 7 8 3 6 -4 25 2 43 12 46 28 95 44 152 50 28 3 52 7 54 9 5 4 149 -5 171&#xA;-11z"/>
    <path d="M1210 3499 c-32 -13 -51 -35 -74 -83 -15 -33 -17 -54 -12 -140 3 -55&#xA;8 -119 12 -141 5 -36 3 -41 -14 -41 -11 0 -19 3 -17 7 9 14 -92 51 -127 46&#xA;-60 -8 -99 -41 -81 -69 3 -7 1 -8 -5 -4 -12 7 -15 -9 -15 -66 1 -30 56 -146&#xA;84 -177 l20 -21 -50 0 c-70 0 -111 -35 -111 -93 1 -46 22 -83 41 -71 8 4 10 3&#xA;5 -5 -4 -6 0 -14 8 -17 43 -16 3 -24 -126 -24 -143 0 -202 -11 -137 -24 50&#xA;-10 1847 -7 1853 3 11 16 -24 20 -191 22 -150 1 -166 2 -148 15 11 9 19 23 18&#xA;32 -1 9 0 11 3 5 8 -19 27 -16 20 3 -3 8 -2 13 3 10 9 -6 34 46 36 77 1 11&#xA;-10 33 -23 49 -23 27 -30 30 -71 25 -25 -3 -56 -8 -69 -11 -13 -3 -22 -2 -20&#xA;2 39 73 52 114 52 160 1 47 -3 57 -27 78 -19 16 -40 24 -65 24 -45 0 -107 -16&#xA;-124 -33 -7 -7 -25 -20 -40 -30 l-28 -17 10 26 c6 14 7 30 4 36 -4 6 -2 8 3 5&#xA;7 -5 13 17 18 61 9 97 4 151 -18 200 -27 58 -56 76 -111 69 -66 -9 -108 -34&#xA;-143 -84 -30 -42 -32 -43 -38 -21 -12 36 -64 107 -114 156 -69 66 -129 85&#xA;-191 61z m120 -71 c25 -12 49 -20 53 -19 5 1 6 -3 3 -8 -4 -5 0 -15 7 -23 39&#xA;-39 84 -132 93 -194 10 -60 30 -129 40 -129 10 0 32 91 33 141 2 55 32 98 88&#xA;128 45 23 76 20 103 -9 13 -14 20 -25 16 -25 -4 0 -2 -9 5 -21 25 -48 10 -165&#xA;-42 -329 -13 -38 -20 -73 -16 -77 4 -4 29 16 55 43 26 28 64 61 85 73 20 13&#xA;37 26 37 30 0 4 6 8 13 9 91 14 92 14 111 -7 18 -20 19 -32 14 -108 -1 -7 -5&#xA;-13 -8 -13 -4 0 -14 -15 -21 -32 -11 -28 -33 -63 -84 -134 -26 -36 23 -25 86&#xA;19 15 11 52 21 88 24 52 5 61 3 61 -11 0 -9 6 -16 13 -17 9 0 9 -2 -1 -6 -6&#xA;-2 -9 -9 -6 -15 10 -15 -97 -113 -126 -115 -28 -3 -472 -2 -825 0 l-230 2 -47&#xA;30 c-54 34 -78 79 -55 103 21 20 83 32 98 18 9 -8 10 -8 5 1 -3 6 11 3 32 -7&#xA;101 -49 124 -32 55 41 -73 77 -78 85 -114 159 -20 39 -37 141 -22 126 3 -3 12&#xA;1 20 9 19 19 56 19 94 0 16 -9 35 -13 41 -9 6 4 8 3 5 -3 -4 -6 5 -19 20 -28&#xA;15 -10 38 -31 51 -46 13 -16 28 -27 33 -23 5 3 9 -1 9 -9 0 -18 46 -61 54 -49&#xA;8 13 -49 153 -59 145 -4 -5 -6 -3 -3 2 4 6 2 30 -3 55 -36 175 -34 261 6 304&#xA;30 32 73 34 135 4z"/>
    <path d="M6902 2582 c-13 -4 -24 -11 -25 -17 -2 -11 50 -12 706 -18 256 -2&#xA;377 1 377 8 0 6 3 6 8 -1 11 -17 702 -18 702 -1 0 9 2 9 8 0 7 -11 618 -16&#xA;820 -5 186 9 84 19 -230 21 -178 2 -350 5 -383 8 -94 8 -1957 12 -1983 5z"/>
    <path d="M8555 2108 c-56 -40 -155 -143 -150 -156 3 -7 1 -11 -4 -7 -8 4 -33&#xA;-22 -69 -70 -21 -29 -73 -150 -94 -217 -12 -43 -25 -78 -28 -78 -3 0 -13 23&#xA;-23 50 -10 28 -22 50 -27 50 -6 0 -10 6 -10 13 0 14 -59 104 -99 151 -89 105&#xA;-198 189 -262 201 -10 2 -28 9 -40 15 -17 10 -24 9 -36 -3 -13 -12 -11 -18 12&#xA;-43 15 -16 31 -28 35 -27 3 1 7 -3 7 -10 0 -7 20 -43 45 -82 25 -38 49 -80 52&#xA;-92 4 -13 12 -23 17 -23 5 0 9 -7 9 -15 0 -8 5 -15 10 -15 6 0 9 -3 8 -7 -1&#xA;-5 7 -28 18 -53 30 -67 86 -240 78 -240 -3 0 -17 14 -31 30 -26 31 -136 120&#xA;-148 120 -4 0 -36 14 -70 30 -78 37 -172 44 -201 15 -17 -17 -17 -19 13 -44&#xA;68 -57 165 -126 174 -124 5 2 8 -1 6 -6 -1 -5 12 -24 28 -42 17 -19 46 -56 64&#xA;-84 63 -92 98 -121 85 -67 -13 51 -72 140 -130 197 -65 63 -132 123 -145 129&#xA;-8 3 2 3 21 0 19 -4 47 -13 62 -20 15 -8 34 -14 43 -14 8 0 15 -4 15 -8 0 -10&#xA;80 -48 92 -45 5 2 7 0 5 -5 -4 -12 79 -82 89 -74 5 4 6 3 2 -2 -8 -9 69 -116&#xA;84 -116 13 0 23 31 12 39 -5 3 -10 17 -12 31 -6 53 -24 120 -33 120 -5 0 -8 3&#xA;-7 8 5 20 -19 89 -68 199 -8 17 -14 36 -14 42 0 6 -4 11 -10 11 -5 0 -10 7&#xA;-10 16 0 8 -4 12 -10 9 -6 -3 -7 1 -4 10 4 9 -12 46 -40 92 -26 41 -45 78 -42&#xA;80 22 22 195 -157 273 -282 43 -67 91 -176 98 -222 11 -61 16 -73 30 -73 9 0&#xA;16 17 20 48 11 84 15 106 24 147 6 22 8 41 5 44 -2 2 2 11 9 20 8 9 22 39 32&#xA;66 10 28 21 52 24 55 3 3 15 22 25 43 11 20 23 37 28 37 4 0 8 5 8 11 0 14 95&#xA;122 131 148 l27 20 -23 -42 c-62 -113 -133 -390 -138 -544 -4 -101 5 -120 36&#xA;-78 12 16 20 30 17 30 -3 0 1 7 7 15 7 8 37 47 67 85 49 63 81 95 156 153 29&#xA;23 114 66 150 77 23 7 22 5 -10 -27 -19 -19 -43 -45 -54 -58 -35 -43 -126&#xA;-190 -119 -190 5 0 3 -4 -3 -8 -19 -12 -76 -143 -70 -159 3 -8 10 -12 15 -9&#xA;20 13 82 117 75 128 -4 6 -3 8 3 5 5 -3 25 20 44 51 49 83 98 151 141 197 26&#xA;27 33 42 25 47 -8 5 -7 8 4 8 9 0 33 15 54 33 28 24 37 38 32 51 -6 14 -14 16&#xA;-39 11 -88 -17 -215 -68 -238 -95 -3 -3 -25 -21 -50 -39 -51 -39 -88 -76 -145&#xA;-145 -32 -40 -40 -45 -45 -30 -4 9 -2 40 3 68 5 28 11 62 13 76 12 85 96 328&#xA;128 370 22 29 46 78 46 94 0 23 -49 20 -85 -6z m-120 -698 c3 -6 -1 -7 -9 -4&#xA;-18 7 -21 14 -7 14 6 0 13 -4 16 -10z"/>
    <path d="M1408 1877 c-16 -6 -28 -14 -28 -18 0 -10 38 -22 48 -15 5 3 69 6&#xA;143 7 75 0 148 4 165 7 l29 5 -35 13 c-43 16 -284 16 -322 1z"/>
    <path d="M4496 1492 c-7 -14 3 -44 27 -80 36 -54 107 -182 107 -193 0 -5 5 -9&#xA;12 -9 6 0 9 -2 6 -5 -3 -3 -44 15 -91 39 -49 25 -110 48 -140 52 -109 16 -137&#xA;-10 -58 -54 21 -12 41 -18 45 -14 4 4 6 0 4 -8 -2 -9 3 -14 12 -12 8 2 12 0 8&#xA;-4 -5 -4 16 -33 45 -65 66 -73 94 -110 107 -143 5 -15 14 -24 20 -21 12 7 14&#xA;45 2 45 -4 0 -8 9 -9 19 -3 40 -97 166 -116 154 -6 -3 -7 -1 -4 4 7 11 -16 37&#xA;-25 28 -2 -3 -5 2 -5 10 0 19 -2 20 72 -16 42 -20 87 -54 130 -97 36 -37 65&#xA;-70 65 -74 0 -4 7 -8 15 -8 8 0 15 6 15 14 0 20 -25 77 -32 71 -3 -3 -3 5 -1&#xA;18 5 25 -106 254 -130 269 -7 4 -8 8 -4 8 4 0 19 -7 32 -16 13 -9 30 -12 36&#xA;-8 7 4 9 3 6 -3 -4 -6 8 -21 26 -33 17 -12 47 -42 66 -66 18 -24 37 -41 42&#xA;-38 5 3 8 2 7 -3 -3 -14 13 -54 21 -49 4 3 7 -3 8 -12 0 -9 12 -48 26 -87 34&#xA;-92 50 -92 82 -2 13 38 40 96 59 129 20 32 36 61 36 64 0 2 20 22 45 45 25 23&#xA;42 46 38 53 -3 6 -3 8 2 4 4 -4 24 2 44 14 l36 21 -21 -24 c-22 -24 -59 -134&#xA;-89 -260 -27 -114 -14 -184 21 -122 32 55 184 153 184 119 0 -8 -7 -19 -16&#xA;-27 -23 -19 -44 -64 -44 -95 0 -22 2 -25 15 -14 8 7 15 18 15 24 1 6 14 26 30&#xA;45 16 19 26 39 23 44 -3 6 -2 7 4 4 6 -4 27 12 48 34 40 43 37 59 -12 59 -30&#xA;0 -126 -36 -151 -58 -68 -57 -62 -56 -62 -17 0 43 40 172 80 253 32 66 36 87&#xA;20 97 -16 10 -106 -41 -102 -57 2 -7 0 -10 -3 -6 -32 32 -173 -133 -220 -256&#xA;-18 -47 -19 -48 -29 -25 -6 13 -13 26 -16 29 -3 3 -7 14 -8 25 -5 24 -55 98&#xA;-105 153 -56 59 -237 157 -251 134z"/>
    <path d="M2135 1448 c-64 -12 -78 -25 -34 -32 29 -4 357 -2 397 2 22 3 13 20&#xA;-15 27 -45 11 -293 13 -348 3z"/>
    <path d="M6490 1303 c-14 -2 -41 -9 -60 -16 l-35 -11 30 -6 c53 -11 355 -4&#xA;367 8 7 7 8 13 3 13 -6 1 -21 3 -35 6 -39 6 -242 11 -270 6z"/>
  </g>
  <title>Diplodok z długą szyją</title>
  <desc>Diplodok był jednym z najdłuższych dinozaurów, z bardzo długą szyją i ogonem. Jego ogon, niczym bicz, służył do obrony. Wyobraź sobie, jak ogromny był ten roślinożerca.</desc>
</svg>