<?xml version="1.0" encoding="UTF-8" standalone="yes"?>
<svg version="1.0" xmlns="http://www.w3.org/2000/svg" width="1200.000000pt" height="400.000000pt" viewBox="0 0 1200.000000 400.000000" preserveAspectRatio="xMidYMid meet">
  <metadata>
Created by potrace 1.16, written by Peter Selinger 2001-2019
</metadata>
  <g transform="translate(0.000000,400.000000) scale(0.100000,-0.100000)" fill="#000000" stroke="none">
    <path d="M2 2003 l3 -1998 1785 0 1785 0 197 1960 c108 1078 197 1977 197&#xA;1998 l1 37 -1985 0 -1985 0 2 -1997z m3918 1945 c1 -36 -354 -3574 -359 -3580&#xA;-4 -4 -66 59 -138 140 -72 81 -199 216 -282 301 -83 85 -149 155 -148 156 1 0&#xA;34 15 72 34 205 98 360 275 435 499 29 86 33 109 33 207 0 93 -4 122 -27 190&#xA;-37 107 -97 215 -200 360 -194 270 -215 372 -119 577 19 42 33 84 30 92 -18&#xA;45 -158 -14 -236 -100 -128 -140 -169 -298 -122 -469 11 -39 42 -124 69 -190&#xA;28 -66 57 -145 66 -175 41 -136 2 -233 -108 -265 -71 -21 -105 -19 -148 11&#xA;l-38 27 0 76 c0 117 -39 163 -147 177 -27 4 -58 16 -71 27 -19 18 -22 30 -21&#xA;89 1 60 -2 72 -22 95 -32 34 -91 59 -161 68 l-58 6 0 65 c0 39 -6 77 -15 94&#xA;-17 33 -71 65 -128 75 -21 4 -37 13 -37 21 0 7 18 41 40 76 70 112 65 148 -25&#xA;199 -30 17 -55 36 -55 43 0 7 22 41 50 74 81 101 79 159 -7 208 -26 15 -50 29&#xA;-52 31 -3 2 3 19 12 38 9 19 22 63 28 98 10 52 9 69 -2 93 -20 41 -73 66 -131&#xA;61 l-48 -4 0 58 c0 187 -80 261 -189 174 -42 -34 -71 -44 -71 -27 0 5 -14 29&#xA;-31 55 -38 58 -84 87 -137 87 -50 0 -76 -29 -99 -110 l-15 -56 -59 -11 c-74&#xA;-14 -145 -48 -166 -79 -23 -36 -11 -38 38 -4 49 33 70 39 47 13 -9 -10 -19&#xA;-28 -22 -41 -4 -12 -16 -27 -27 -33 -31 -16 -77 -96 -85 -144 l-6 -43 -40 14&#xA;c-63 22 -168 28 -229 14 -116 -27 -192 -87 -245 -194 -32 -65 -36 -85 -41&#xA;-172 -10 -183 22 -253 131 -284 40 -11 52 -21 80 -64 82 -128 227 -196 420&#xA;-196 58 0 58 0 53 -27 -3 -16 -15 -101 -28 -189 l-22 -162 -44 15 c-95 33&#xA;-189 -6 -243 -100 -34 -59 -39 -111 -15 -157 17 -32 42 -39 51 -15 8 21 24 19&#xA;24 -3 0 -23 28 -62 44 -62 7 0 25 21 39 48 15 26 35 58 46 72 l19 24 41 -28&#xA;c55 -38 55 -39 75 -134 l17 -84 -35 -71 c-60 -123 -79 -193 -84 -302 -5 -129&#xA;16 -190 94 -275 43 -46 76 -69 152 -106 53 -26 98 -49 100 -50 2 -1 0 -30 -4&#xA;-66 l-6 -64 -77 9 c-171 20 -340 -54 -371 -163 -12 -43 1 -60 46 -60 19 0 34&#xA;-4 34 -10 0 -6 26 -10 58 -10 33 0 73 -7 90 -15 26 -14 47 -14 144 -5 148 15&#xA;297 46 328 68 29 21 88 184 97 270 5 45 2 58 -16 83 -27 37 -51 102 -51 140&#xA;l0 28 43 -18 c23 -10 79 -28 124 -40 75 -20 87 -27 141 -80 77 -77 151 -114&#xA;292 -145 l26 -5 -10 -71 c-7 -52 -14 -70 -25 -70 -9 0 -60 -5 -114 -10 -119&#xA;-12 -183 -37 -237 -96 -46 -50 -60 -80 -60 -130 0 -34 1 -34 44 -34 29 0 46&#xA;-5 49 -14 6 -15 120 -26 287 -28 80 -1 207 33 284 75 50 28 68 67 101 212 37&#xA;162 42 234 21 267 l-17 26 71 12 70 12 103 -104 c91 -92 228 -216 402 -364&#xA;101 -86 246 -184 272 -184 25 0 25 0 18 -78 -4 -42 -9 -85 -11 -94 -5 -17 -97&#xA;-18 -1745 -18 l-1739 0 0 1955 0 1955 1935 0 c1541 0 1935 -3 1935 -12z&#xA;m-2692 -454 c56 -39 69 -132 31 -210 -28 -59 -51 -71 -87 -46 -15 11 -50 31&#xA;-78 45 l-52 26 9 46 c12 65 56 123 109 147 25 11 44 9 68 -8z m277 -68 c46&#xA;-46 55 -148 19 -217 -67 -131 -229 -86 -226 63 3 130 133 228 207 154z m-193&#xA;-733 c-6 -2 -10 -8 -8 -11 2 -4 -7 -7 -20 -7 -13 0 -24 1 -24 3 0 4 44 21 55&#xA;21 6 -1 4 -3 -3 -6z m-98 -48 c7 -18 47 -20 66 -2 8 6 2 -2 -13 -19 -63 -70&#xA;-162 -92 -237 -54 -43 22 -51 31 -21 23 11 -3 49 4 85 16 53 17 70 19 91 9 34&#xA;-15 45 -1 16 23 -16 13 -19 19 -8 19 8 0 17 -7 21 -15z m-212 -22 c-22 -3 -30&#xA;-8 -25 -16 4 -7 0 -6 -10 2 -24 19 -22 21 26 19 37 -1 38 -2 9 -5z m587 -110&#xA;c-18 -144 -5 -384 25 -463 3 -8 2 -21 -3 -29 -8 -12 -22 -11 -94 9 -116 31&#xA;-192 26 -244 -16 -54 -44 -83 -105 -83 -175 0 -78 13 -109 45 -109 14 0 25 6&#xA;25 13 0 6 13 -4 29 -23 34 -41 37 -39 107 56 26 35 48 64 50 64 1 0 41 -19 88&#xA;-41 47 -23 106 -44 130 -46 39 -5 45 -9 50 -34 10 -49 78 -181 130 -249 l48&#xA;-64 -13 -56 c-19 -77 -17 -272 4 -328 l16 -42 -27 6 c-157 38 -336 131 -438&#xA;226 -113 106 -194 252 -262 468 -25 80 -26 96 -26 285 1 156 6 229 23 335 12&#xA;74 23 135 24 135 1 0 46 12 100 25 54 13 142 43 195 66 53 23 99 42 103 43 3&#xA;1 2 -25 -2 -56z m978 -1197 c159 -142 262 -247 257 -261 -3 -8 -25 -30 -48&#xA;-49 l-43 -35 -154 154 c-85 84 -154 158 -154 164 0 5 -7 16 -15 23 -12 11 -12&#xA;10 0 -7 15 -20 14 -20 -8 -1 l-22 19 30 18 c16 10 35 28 42 39 7 11 16 19 20&#xA;18 3 -2 46 -38 95 -82z m263 -351 c-30 -30 -59 -55 -64 -55 -5 0 -6 3 -3 7 4&#xA;3 2 12 -4 20 -9 10 -1 26 36 69 l48 56 21 -21 20 -21 -54 -55z"/>
    <path d="M1191 3357 c-7 -13 -11 -39 -9 -58 2 -26 8 -35 25 -37 28 -4 45 27&#xA;41 76 -4 46 -37 57 -57 19z"/>
    <path d="M1450 3305 c-21 -25 -19 -95 3 -109 29 -17 59 26 55 78 -2 33 -7 42&#xA;-24 44 -11 2 -27 -4 -34 -13z"/>
    <path d="M4030 3987 c0 -8 -90 -902 -200 -1988 -110 -1086 -200 -1980 -200&#xA;-1987 0 -10 432 -12 2164 -10 1190 2 2168 6 2172 10 4 4 98 902 210 1995 112&#xA;1094 204 1989 204 1991 0 1 -979 2 -2175 2 -1814 0 -2175 -2 -2175 -13z m4293&#xA;-24 c5 -7 -390 -3903 -396 -3909 -1 -1 -958 -6 -2125 -10 l-2124 -7 7 69 c4&#xA;38 93 920 199 1959 l191 1890 1845 5 c1015 3 1970 6 2122 8 152 1 279 -1 281&#xA;-5z"/>
    <path d="M5350 3815 c-18 -19 -24 -39 -27 -92 l-5 -69 -74 -12 c-104 -16 -169&#xA;-52 -187 -104 -9 -26 6 -22 34 8 47 52 101 67 254 72 240 7 358 -24 448 -120&#xA;100 -106 138 -235 167 -557 44 -502 38 -482 223 -653 67 -62 161 -151 210&#xA;-198 161 -154 288 -339 348 -505 16 -46 18 -47 18 -19 1 17 -6 51 -14 74 -8&#xA;23 -15 44 -15 46 0 2 22 0 48 -3 111 -13 222 51 250 144 27 90 8 176 -78 363&#xA;-89 191 -104 270 -79 392 26 125 118 247 227 302 53 27 102 34 102 16 0 -6&#xA;-19 -45 -42 -87 -35 -64 -42 -87 -46 -148 -5 -77 12 -154 50 -230 11 -22 69&#xA;-113 129 -203 176 -263 222 -373 223 -532 1 -154 -30 -248 -114 -349 -154&#xA;-185 -442 -301 -750 -301 l-49 0 45 87 c51 100 61 159 13 73 -18 -30 -58 -95&#xA;-90 -143 -33 -49 -59 -95 -59 -103 0 -8 19 -36 43 -62 60 -64 77 -92 77 -122&#xA;0 -14 -15 -90 -34 -170 -56 -241 -49 -225 -104 -248 -76 -33 -212 -69 -272&#xA;-73 l-55 -4 2 30 c3 38 30 74 79 103 37 22 38 23 9 17 -46 -9 -78 -37 -103&#xA;-88 l-22 -47 -81 0 -81 0 6 33 c11 57 58 120 106 145 38 19 41 22 19 22 -45 0&#xA;-92 -41 -124 -108 l-30 -62 -40 5 c-21 3 -41 8 -43 10 -10 10 43 97 76 126 52&#xA;46 105 66 207 79 142 18 130 11 156 95 21 68 27 77 54 84 l30 8 -40 7 c-223&#xA;40 -342 101 -398 203 -97 180 -68 412 78 618 23 33 52 69 64 79 32 29 25 40&#xA;-9 16 -37 -26 -99 -107 -139 -179 l-28 -53 -60 76 c-55 71 -111 169 -128 224&#xA;-5 17 -2 22 11 22 30 0 99 47 127 87 14 21 33 57 41 81 22 60 31 165 18 188&#xA;-10 16 -11 14 -12 -18 0 -92 -39 -203 -90 -261 -61 -70 -144 -69 -297 3 -82&#xA;38 -87 39 -111 24 -13 -8 -34 -40 -47 -69 -13 -29 -29 -56 -34 -60 -13 -8 -32&#xA;36 -38 90 -5 36 -1 45 28 75 l34 33 -35 -20 c-24 -14 -44 -39 -65 -82 -16 -33&#xA;-33 -61 -37 -61 -18 0 -8 116 15 160 46 93 119 109 318 70 56 -11 104 -18 107&#xA;-15 3 3 -1 5 -8 5 -20 0 -6 72 29 159 35 84 36 88 17 72 -8 -7 -27 -41 -42&#xA;-77 -25 -60 -29 -64 -37 -42 -14 36 -13 244 2 341 16 101 9 129 -9 35 -22&#xA;-119 -25 -298 -5 -382 10 -42 16 -79 13 -82 -3 -3 -37 3 -74 12 -95 23 -209&#xA;23 -257 -1 -57 -27 -97 -102 -97 -180 0 -111 23 -136 62 -68 12 20 23 32 24&#xA;27 2 -5 8 -28 14 -51 18 -71 57 -55 98 39 11 25 29 49 39 52 12 4 49 -8 96&#xA;-29 42 -19 99 -41 127 -48 50 -13 52 -16 74 -69 31 -75 59 -120 127 -204 l58&#xA;-72 -21 -63 c-26 -79 -29 -247 -5 -321 8 -27 11 -48 7 -48 -21 0 -222 71 -271&#xA;95 -123 62 -246 170 -312 276 -62 97 -100 204 -134 369 -30 145 -23 528 13&#xA;711 4 23 11 27 55 33 81 11 218 54 309 98 100 48 202 143 239 223 27 57 41&#xA;143 31 189 -5 25 -7 19 -11 -34 -7 -93 -56 -195 -126 -261 -66 -63 -205 -130&#xA;-340 -166 -76 -19 -132 -26 -249 -30 -136 -5 -157 -3 -215 16 -36 12 -81 35&#xA;-102 52 -36 30 -94 115 -85 125 3 2 34 -2 69 -10 35 -8 93 -18 129 -21 61 -7&#xA;67 -10 92 -45 46 -65 117 -62 164 7 21 31 22 32 39 14 52 -59 150 -11 162 78&#xA;5 33 12 45 39 62 79 48 161 166 185 265 15 63 19 66 52 49 31 -16 36 -6 9 18&#xA;-21 19 -64 22 -93 7 -23 -13 -26 -35 -3 -26 14 5 16 1 11 -34 -12 -90 -103&#xA;-213 -206 -279 -128 -82 -342 -111 -552 -76 -147 24 -255 60 -275 91 -25 37&#xA;-22 229 4 310 27 85 94 178 146 203 106 52 285 46 461 -14 93 -32 101 -33 113&#xA;-17 36 47 24 115 -21 120 -32 4 -46 -20 -26 -44 10 -12 9 -18 -3 -31 -15 -14&#xA;-22 -13 -82 7 -63 21 -66 23 -60 48 28 121 133 193 191 130 44 -48 55 -86 54&#xA;-182 -1 -75 2 -97 19 -124 64 -104 185 -89 244 30 40 79 31 159 -25 223 -51&#xA;58 -126 56 -184 -5 l-28 -29 -22 48 c-28 59 -57 81 -108 81 -76 0 -128 -49&#xA;-150 -140 l-12 -52 -55 9 c-97 14 -219 8 -282 -16 -106 -41 -187 -163 -209&#xA;-316 -13 -93 -4 -230 17 -262 9 -14 38 -29 83 -43 66 -19 71 -23 99 -73 38&#xA;-68 118 -140 180 -162 31 -12 90 -19 176 -23 l128 -4 -6 -47 c-18 -125 -26&#xA;-203 -28 -274 -2 -74 -3 -78 -23 -72 -103 32 -160 30 -217 -8 -43 -29 -94&#xA;-107 -103 -156 -8 -49 10 -121 31 -121 8 0 23 13 32 30 9 16 20 30 23 30 4 0&#xA;9 -17 13 -39 6 -42 26 -64 48 -56 8 3 31 35 51 70 21 36 39 65 40 65 2 0 20&#xA;-9 42 -20 22 -11 45 -20 52 -20 7 0 15 -10 17 -22 2 -13 13 -63 23 -113 l18&#xA;-90 -31 -47 c-44 -64 -90 -190 -104 -281 -29 -193 53 -330 245 -411 48 -20 91&#xA;-36 96 -36 10 0 12 -100 3 -124 -5 -13 -26 -16 -128 -16 -152 0 -211 -16 -271&#xA;-71 -72 -66 -82 -139 -20 -139 12 0 28 -7 35 -15 9 -11 32 -15 81 -15 37 0 70&#xA;-4 73 -9 21 -34 340 -6 457 40 30 12 73 96 108 213 29 94 27 112 -19 181 -42&#xA;64 -48 90 -27 119 13 18 19 17 126 -15 108 -31 113 -34 146 -79 58 -79 139&#xA;-124 278 -155 87 -19 89 -22 56 -101 l-21 -51 -94 -12 c-164 -20 -252 -69&#xA;-304 -170 -37 -73 -25 -101 42 -101 18 0 36 -7 44 -17 10 -15 29 -18 99 -19&#xA;47 -1 89 -4 92 -8 33 -32 354 41 411 94 13 12 34 80 67 214 51 203 50 197 20&#xA;268 -5 14 2 18 42 23 385 49 681 252 808 553 17 42 37 99 44 125 17 71 16 221&#xA;-3 297 -25 99 -115 270 -221 420 -109 153 -151 234 -166 317 -15 79 -6 123 47&#xA;231 56 114 55 128 -8 125 -61 -2 -134 -42 -204 -110 -90 -89 -134 -198 -134&#xA;-333 1 -103 10 -138 86 -307 110 -245 116 -349 24 -426 -59 -50 -187 -65 -228&#xA;-27 -20 19 -22 31 -22 118 0 135 -24 164 -147 178 -84 10 -93 21 -93 114 0 63&#xA;-3 80 -19 94 -26 24 -104 46 -161 46 -70 0 -81 13 -68 83 18 102 -2 129 -113&#xA;149 -35 6 -67 16 -71 22 -15 23 -8 56 17 72 35 23 85 103 85 136 0 37 -36 74&#xA;-88 87 -33 9 -42 17 -47 42 -6 27 -1 37 52 92 33 34 63 74 66 89 14 54 -24&#xA;100 -105 128 l-37 14 20 27 c28 40 49 105 49 154 0 32 -6 48 -26 68 -28 28&#xA;-95 44 -139 33 -28 -7 -27 -11 -25 86 2 84 -24 149 -69 172 -16 9 -38 16 -47&#xA;16 -28 0 -82 -39 -104 -76 -12 -18 -25 -34 -29 -34 -4 0 -12 19 -18 43 -33&#xA;123 -168 201 -233 132z m116 -14 c23 -10 50 -32 61 -47 22 -32 49 -101 42&#xA;-108 -2 -2 -55 -2 -116 1 l-113 6 0 53 c0 108 36 136 126 95z m313 -87 c33&#xA;-24 51 -74 51 -145 l0 -61 -37 32 c-20 18 -65 46 -100 62 -35 17 -63 32 -63&#xA;34 0 15 39 60 65 75 37 23 54 24 84 3z m216 -278 c21 -14 25 -24 25 -64 0 -48&#xA;-40 -152 -59 -152 -5 0 -12 17 -16 38 -3 21 -21 73 -39 115 -19 42 -31 79 -27&#xA;83 11 11 90 -3 116 -20z m-504 4 c51 -28 75 -148 43 -216 -41 -87 -118 -108&#xA;-180 -51 -31 28 -37 41 -42 85 -12 128 88 230 179 182z m-271 -150 c0 -5 -4&#xA;-10 -10 -10 -5 0 -10 5 -10 10 0 6 5 10 10 10 6 0 10 -4 10 -10z m822 -146&#xA;c15 -8 35 -26 44 -39 22 -33 8 -67 -51 -125 l-43 -42 -6 38 c-3 22 -8 74 -12&#xA;118 l-7 78 24 -7 c13 -4 36 -14 51 -21z m44 -359 c35 -22 31 -63 -10 -117 -48&#xA;-63 -66 -68 -66 -20 0 20 -3 67 -6 104 l-7 67 33 -9 c18 -5 43 -16 56 -25z&#xA;m-761 -92 c-16 -67 -91 -97 -130 -53 -22 24 -23 23 40 44 28 9 57 21 65 26 25&#xA;16 32 11 25 -17z m-185 -54 c0 -6 -14 -24 -30 -41 -36 -36 -68 -33 -113 10&#xA;l-29 27 54 6 c90 10 118 9 118 -2z m1020 -168 c35 -16 35 -17 33 -75 -1 -32&#xA;-5 -61 -8 -64 -12 -12 -145 135 -145 160 0 12 79 -1 120 -21z m241 -236 c40&#xA;-21 51 -47 42 -99 l-8 -43 -90 84 -90 85 58 -6 c32 -4 72 -13 88 -21z m-1323&#xA;-197 c40 -12 49 -32 51 -121 2 -67 1 -68 -21 -62 -13 4 -32 16 -44 26 -11 11&#xA;-25 19 -31 19 -15 0 -44 -35 -73 -88 -14 -25 -30 -47 -36 -49 -16 -5 -38 81&#xA;-30 119 3 17 14 41 24 51 16 19 16 20 -4 9 -24 -13 -50 -50 -59 -83 -3 -13&#xA;-13 -33 -21 -44 -38 -52 -42 60 -4 134 11 22 36 52 55 67 57 43 107 49 193 22z&#xA;m1531 -44 c70 -20 87 -53 75 -145 l-9 -64 -35 55 c-19 30 -54 79 -77 107 -24&#xA;29 -43 55 -43 58 0 9 36 5 89 -11z m-1389 -521 c39 -102 111 -213 178 -275 59&#xA;-55 188 -142 238 -160 38 -13 41 -20 19 -38 -25 -21 -17 -71 21 -133 30 -48&#xA;35 -66 31 -95 -8 -65 -81 -254 -102 -268 -21 -14 -188 -38 -344 -50 l-93 -7 7&#xA;24 c16 53 46 88 88 103 23 8 49 17 57 20 8 4 -7 4 -34 1 -65 -7 -93 -27 -118&#xA;-82 l-20 -45 -59 4 c-32 2 -61 7 -65 11 -19 19 42 119 99 161 25 18 46 21 152&#xA;25 140 3 129 -4 140 94 6 49 9 57 28 57 33 0 8 14 -58 34 -74 23 -182 76 -223&#xA;111 -45 38 -93 140 -99 214 -6 66 8 157 38 236 19 51 77 151 84 144 1 -2 17&#xA;-41 35 -86z m2163 -185 c-27 -48 -150 -169 -218 -215 -137 -92 -304 -155 -461&#xA;-175 -105 -13 -128 -7 -157 41 -15 26 -15 29 8 63 l24 35 143 6 c221 9 381 57&#xA;536 161 37 24 83 61 101 80 43 44 47 45 24 4z m-2322 -674 c-22 -25 -45 -61&#xA;-51 -80 -8 -23 -18 -34 -31 -34 -54 0 -23 85 48 130 68 43 81 37 34 -16z"/>
    <path d="M5440 3330 c-9 -16 -8 -25 1 -36 9 -11 8 -18 -5 -33 -26 -29 -17 -56&#xA;19 -56 42 0 72 52 59 104 -7 29 -14 37 -36 39 -19 2 -30 -3 -38 -18z m30 -85&#xA;c0 -8 -4 -15 -10 -15 -5 0 -10 7 -10 15 0 8 5 15 10 15 6 0 10 -7 10 -15z"/>
    <path d="M5399 3563 c-14 -9 -31 -24 -37 -34 -11 -17 -10 -17 21 1 67 41 143&#xA;19 188 -54 17 -29 19 -29 19 -8 0 36 -27 80 -60 97 -38 19 -98 19 -131 -2z"/>
    <path d="M4622 3168 c-27 -27 0 -156 31 -145 18 6 15 123 -4 142 -11 12 -17&#xA;13 -27 3z m22 -34 c3 -9 6 -34 6 -57 -1 -39 -2 -41 -15 -23 -8 11 -15 37 -15&#xA;58 0 39 13 51 24 22z"/>
    <path d="M4892 3148 c-43 -21 -83 -116 -62 -148 8 -12 18 -7 55 31 44 47 62&#xA;86 51 114 -6 17 -13 18 -44 3z m28 -28 c0 -38 -60 -124 -75 -109 -8 9 15 76&#xA;36 103 25 31 39 33 39 6z"/>
    <path d="M5363 3075 c15 -14 32 -25 38 -25 17 0 9 8 -28 29 l-38 22 28 -26z"/>
    <path d="M6125 2156 c-45 -20 -59 -57 -39 -106 29 -73 114 -119 194 -106 62&#xA;10 75 50 39 124 -37 75 -130 117 -194 88z m124 -36 c34 -23 71 -86 71 -119 0&#xA;-78 -180 -32 -216 55 -15 36 -13 45 15 78 21 24 87 17 130 -14z"/>
    <path d="M6380 1925 c-41 -49 65 -171 142 -163 29 3 33 7 36 36 6 63 -69 142&#xA;-135 142 -17 0 -36 -7 -43 -15z m95 -21 c32 -21 79 -99 70 -115 -19 -30 -121&#xA;25 -150 81 -30 58 14 77 80 34z"/>
    <path d="M6242 1823 c-22 -43 32 -123 82 -123 53 0 63 65 17 111 -34 34 -85&#xA;40 -99 12z m58 -8 c53 -28 71 -95 25 -95 -47 0 -96 75 -68 103 9 9 10 9 43 -8z"/>
    <path d="M8430 3984 c0 -20 -388 -3906 -394 -3952 l-5 -32 1985 0 1984 0 0&#xA;2000 0 2000 -1785 0 c-1639 0 -1785 -1 -1785 -16z m3528 -1981 l-3 -1958&#xA;-1932 -3 -1933 -2 0 27 c0 35 380 3863 386 3881 3 9 360 12 1744 12 l1740 0&#xA;-2 -1957z"/>
    <path d="M9382 3820 c-32 -19 -62 -83 -62 -130 0 -31 -5 -34 -85 -45 -76 -10&#xA;-165 -60 -165 -92 0 -11 8 -9 30 7 72 52 134 65 295 64 212 -1 300 -30 396&#xA;-131 111 -116 148 -254 174 -658 9 -134 45 -335 68 -380 20 -40 88 -110 338&#xA;-345 155 -146 249 -267 324 -418 49 -98 76 -121 40 -35 -19 45 -19 59 0 43 19&#xA;-16 108 -17 161 -2 88 25 136 94 137 196 1 71 -15 123 -90 294 -69 156 -91&#xA;264 -76 367 20 137 101 258 218 324 51 29 120 50 114 35 -2 -5 -24 -49 -49&#xA;-98 -44 -88 -45 -91 -44 -185 0 -86 4 -103 32 -164 17 -38 74 -128 126 -200&#xA;136 -191 187 -287 232 -441 29 -102 7 -298 -48 -418 -11 -26 -24 -47 -27 -46&#xA;-19 2 -32 -6 -77 -47 -64 -58 -51 -58 21 0 30 25 55 43 55 40 0 -11 -40 -68&#xA;-85 -122 -62 -74 -154 -151 -221 -184 l-52 -27 47 -46 c26 -25 50 -46 53 -46&#xA;4 0 -11 17 -34 38 l-41 38 49 29 c189 108 323 286 375 495 17 69 20 106 17&#xA;200 -4 104 -8 124 -42 208 -44 109 -87 185 -172 302 -94 130 -133 195 -161&#xA;268 -21 57 -24 79 -21 148 4 70 10 93 48 172 24 51 40 95 36 99 -15 16 -78 3&#xA;-135 -27 -73 -39 -149 -117 -186 -191 -81 -158 -73 -313 27 -534 71 -156 88&#xA;-210 88 -277 0 -118 -72 -188 -194 -188 -48 0 -116 28 -116 47 0 5 -1 49 -3&#xA;100 -2 79 -5 95 -25 115 -22 24 -110 58 -148 58 -11 0 -30 7 -42 16 -19 13&#xA;-22 24 -22 83 0 54 -4 74 -21 95 -31 40 -77 59 -145 61 -34 1 -66 5 -72 9 -7&#xA;4 -9 28 -7 59 9 101 -38 160 -136 173 -58 8 -62 21 -23 77 34 51 64 117 64&#xA;144 0 32 -46 81 -91 94 -25 8 -39 18 -39 29 0 9 25 49 55 89 30 40 58 83 61&#xA;96 10 39 -17 77 -76 108 -30 16 -55 31 -55 35 0 4 10 26 23 49 83 156 22 262&#xA;-128 222 -12 -3 -16 12 -21 82 -6 95 -28 151 -70 182 -24 17 -29 17 -60 4 -19&#xA;-8 -52 -31 -73 -51 -22 -20 -40 -35 -41 -34 -1 2 -14 26 -30 55 -55 104 -133&#xA;149 -193 113z m100 -27 c42 -36 54 -50 78 -95 25 -46 26 -62 3 -53 -10 4 -61&#xA;9 -113 12 -125 6 -122 5 -114 50 19 108 78 142 146 86z m301 -81 c28 -30 44&#xA;-84 46 -152 l2 -65 -33 31 c-52 50 -116 92 -149 99 l-31 7 29 30 c34 37 82 68&#xA;104 68 9 0 23 -8 32 -18z m214 -278 c22 -22 25 -32 20 -67 -9 -63 -64 -178&#xA;-68 -140 -2 20 -8 46 -24 93 -17 51 -17 52 4 66 12 8 21 19 21 25 0 5 -9 0&#xA;-21 -12 l-21 -21 -19 32 c-11 17 -17 35 -14 41 4 5 26 9 51 9 35 0 51 -6 71&#xA;-26z m59 -300 c24 -11 37 -51 26 -83 -11 -32 -83 -124 -90 -116 -3 2 1 11 8&#xA;20 11 13 10 15 -1 10 -20 -7 -19 46 1 63 8 8 10 11 3 7 -17 -8 -31 23 -33 75&#xA;-1 25 -1 48 -1 53 1 4 18 0 39 -9 20 -9 42 -18 48 -20z m-10 -320 c14 -10 23&#xA;-23 20 -30 -3 -8 -1 -14 4 -14 6 0 10 6 11 13 0 6 5 2 11 -10 13 -26 2 -77&#xA;-14 -67 -7 4 -8 3 -4 -4 4 -6 -7 -33 -25 -59 -18 -28 -29 -39 -26 -26 3 13 2&#xA;25 -2 28 -4 2 -9 21 -10 42 -1 21 -3 53 -4 71 -2 21 1 32 10 32 7 0 11 -6 9&#xA;-12 -1 -7 -1 -10 1 -5 3 4 9 5 14 1 5 -3 9 -1 9 5 0 6 -11 13 -25 17 -14 3&#xA;-25 12 -25 20 0 19 15 18 46 -2z m96 -330 c15 -8 32 -23 38 -33 14 -27 21 -91&#xA;10 -91 -5 0 -7 -8 -4 -17 5 -15 4 -16 -5 -3 -6 8 -15 15 -20 15 -15 0 -60 54&#xA;-50 61 5 3 7 10 4 15 -4 5 -2 9 2 9 5 0 9 8 9 19 0 10 -6 17 -12 14 -7 -2 -15&#xA;0 -19 6 -3 6 -15 11 -26 11 -10 0 -19 4 -19 9 0 12 58 3 92 -15z m-66 -12 c-2&#xA;-4 -1 -14 5 -22 6 -10 9 -11 9 -2 0 6 5 12 11 12 8 0 9 -4 0 -13 -6 -8 -10&#xA;-16 -8 -18 1 -3 -6 4 -15 14 -16 17 -16 37 -2 37 3 0 3 -4 0 -8z m269 -215 c6&#xA;-1 25 -9 43 -16 28 -12 30 -16 20 -29 -11 -13 -11 -14 1 -8 8 5 17 3 22 -5 15&#xA;-24 10 -44 -16 -56 -14 -6 -23 -7 -20 -3 3 5 0 10 -6 12 -8 3 -6 10 5 21 10 9&#xA;14 17 9 17 -5 0 -17 12 -27 28 -9 15 -15 19 -12 10 6 -21 -19 -25 -27 -5 -4 9&#xA;-6 9 -6 -1 -1 -7 10 -17 24 -22 27 -10 34 -30 10 -26 -17 3 -95 75 -95 89 0 8&#xA;37 5 75 -6z m92 -143 c1 -24 0 -25 -15 -10 -15 15 -15 18 -2 26 8 5 15 10 15&#xA;10 0 0 1 -12 2 -26z m208 -136 c26 -39 35 -56 35 -72 0 -20 0 -20 -14 0 -8 10&#xA;-18 16 -22 11 -4 -4 -2 -7 4 -7 7 0 12 -7 12 -15 0 -8 5 -15 10 -15 6 0 10 -8&#xA;10 -17 0 -15 -2 -16 -10 -3 -8 13 -10 12 -10 -2 0 -10 4 -18 9 -18 5 0 9 -12&#xA;9 -26 0 -25 -1 -25 -19 6 -11 17 -19 33 -19 37 0 3 -7 11 -14 17 -8 6 -16 18&#xA;-18 26 -2 8 -11 20 -20 25 -14 8 -14 13 -3 28 11 15 13 16 19 2 3 -8 0 -15 -7&#xA;-15 -8 0 -6 -4 3 -10 22 -14 33 -12 26 5 -7 18 5 19 24 3 12 -11 12 -10 0 5&#xA;-7 10 -20 15 -28 12 -10 -4 -12 0 -8 12 4 10 4 14 1 11 -4 -4 -17 -3 -30 2&#xA;-20 8 -22 6 -17 -13 3 -12 3 -20 1 -17 -2 3 -17 20 -33 37 l-29 33 68 -20 c37&#xA;-11 69 -21 70 -22z"/>
    <path d="M9953 3295 c0 -8 4 -12 9 -9 5 3 6 10 3 15 -9 13 -12 11 -12 -6z"/>
    <path d="M10070 2749 c0 -5 5 -7 10 -4 6 3 10 8 10 11 0 2 -4 4 -10 4 -5 0&#xA;-10 -5 -10 -11z"/>
    <path d="M10018 2743 c7 -3 16 -2 19 1 4 3 -2 6 -13 5 -11 0 -14 -3 -6 -6z"/>
    <path d="M10039 2732 c-12 -2 -16 -13 -14 -40 1 -20 6 -37 11 -37 5 0 8 4 6 9&#xA;-1 4 3 15 10 24 11 13 11 14 -2 7 -13 -8 -13 -6 -2 8 17 20 13 34 -9 29z"/>
    <path d="M10133 2454 c3 -4 2 -15 -4 -25 -12 -23 -2 -24 23 -2 17 15 18 15 18&#xA;-1 0 -9 -4 -14 -10 -11 -5 3 -10 2 -10 -4 0 -5 6 -12 13 -15 6 -3 1 -3 -13 0&#xA;l-25 5 25 -20 c28 -22 44 -18 31 7 -4 9 -6 23 -4 30 6 16 -15 42 -35 42 -8 0&#xA;-12 -3 -9 -6z"/>
    <path d="M10296 2251 c-3 -5 2 -15 12 -22 16 -13 16 -13 2 5 -14 18 -13 19 3&#xA;13 11 -4 16 -3 12 3 -8 12 -22 13 -29 1z"/>
    <path d="M10616 1897 c3 -10 9 -15 12 -12 3 3 0 11 -7 18 -10 9 -11 8 -5 -6z"/>
    <path d="M9393 3558 c-13 -6 -23 -15 -23 -20 0 -5 4 -7 8 -4 42 26 130 1 177&#xA;-50 14 -15 25 -22 25 -17 0 19 -46 78 -70 90 -30 15 -87 16 -117 1z"/>
    <path d="M9119 3504 c-40 -26 -72 -80 -77 -134 -2 -28 -6 -50 -7 -50 -2 0 -32&#xA;7 -66 16 -87 22 -216 15 -287 -16 -97 -42 -177 -158 -202 -294 -15 -81 -8&#xA;-212 14 -254 15 -29 78 -63 142 -76 24 -5 33 -14 37 -34 16 -75 101 -151 209&#xA;-189 58 -20 94 -26 175 -27 64 -1 103 -5 103 -11 0 -6 -6 -62 -14 -125 -8 -63&#xA;-18 -150 -21 -192 l-7 -77 -40 15 c-58 20 -131 18 -179 -6 -81 -42 -135 -162&#xA;-105 -234 17 -40 30 -44 58 -19 10 9 19 14 21 12 1 -2 9 -17 17 -34 25 -48 45&#xA;-43 80 19 46 80 50 82 107 47 l49 -30 21 -95 22 -96 -33 -67 c-73 -149 -90&#xA;-208 -90 -328 -1 -99 2 -116 26 -167 44 -94 127 -157 286 -218 52 -20 52 -22&#xA;25 -100 l-15 -45 -122 0 c-117 0 -124 -1 -188 -33 -64 -31 -101 -68 -125 -124&#xA;-10 -22 -9 -30 3 -43 9 -8 21 -15 29 -15 7 0 24 -6 38 -13 14 -8 52 -15 84&#xA;-16 32 -1 62 -6 68 -12 17 -17 127 -11 315 15 83 12 151 31 164 45 17 19 106&#xA;271 106 300 0 10 -11 35 -25 55 -41 61 -55 93 -55 131 0 19 2 35 4 35 2 0 32&#xA;-11 67 -24 36 -13 92 -29 125 -36 50 -10 64 -17 78 -41 39 -66 157 -137 272&#xA;-165 38 -8 74 -17 81 -19 8 -3 6 -22 -6 -72 l-17 -68 -85 -11 c-114 -15 -187&#xA;-38 -236 -73 -43 -31 -87 -96 -103 -151 -10 -35 -6 -38 53 -43 21 -2 42 -10&#xA;47 -17 6 -9 42 -16 112 -21 57 -4 110 -10 119 -13 46 -20 359 70 386 110 17&#xA;26 83 348 83 405 0 21 -8 47 -20 62 l-20 25 37 6 c21 3 58 8 83 11 l45 6 160&#xA;-143 c88 -79 218 -200 290 -270 71 -71 133 -128 137 -128 5 0 34 -20 66 -45&#xA;68 -54 106 -59 149 -19 l28 26 -29 -21 c-44 -32 -76 -27 -145 25 -34 25 -61&#xA;48 -61 50 0 11 45 92 67 121 26 33 84 73 108 73 20 0 29 20 15 33 -7 7 -10 7&#xA;-7 2 3 -6 -8 -17 -24 -24 -37 -16 -146 -116 -154 -140 -3 -10 -12 -18 -20 -18&#xA;-16 0 20 73 58 117 l22 25 -28 -25 c-16 -13 -38 -40 -50 -60 -27 -44 -37 -18&#xA;-12 33 21 45 61 82 118 110 l48 23 -23 22 -24 21 -44 -29 c-52 -34 -48 -40 5&#xA;-9 39 24 76 20 55 -6 -7 -8 -18 -15 -26 -15 -7 0 -42 -27 -78 -60 -43 -41 -67&#xA;-57 -72 -49 -5 8 -3 9 6 4 9 -5 11 -4 6 3 -4 7 5 29 20 49 l27 38 -29 -31&#xA;c-16 -17 -39 -43 -51 -59 -13 -16 -23 -24 -23 -17 0 27 51 111 82 136 18 14&#xA;30 26 25 26 -16 0 -123 -108 -119 -121 3 -12 2 -12 -7 0 -13 20 9 62 62 112&#xA;50 49 93 73 115 64 14 -6 12 -10 -13 -31 l-30 -25 31 13 c17 7 33 16 35 20 2&#xA;4 -41 46 -96 93 -82 70 -87 74 -27 18 l73 -69 -33 -24 c-18 -13 -51 -41 -74&#xA;-62 l-41 -38 -24 26 c-13 14 -33 30 -44 36 -11 5 -1 -7 22 -29 l43 -38 -23&#xA;-37 -23 -37 -70 63 c-38 35 -141 128 -229 207 -88 79 -162 146 -165 149 -11&#xA;14 -254 227 -290 255 -21 17 -47 50 -59 78 -11 26 -24 47 -28 47 -3 0 -3 -3 0&#xA;-6 4 -4 -3 -15 -15 -25 -17 -16 -18 -19 -5 -19 10 0 17 -8 17 -19 0 -10 7 -24&#xA;15 -31 13 -11 14 -10 9 4 -3 9 -1 16 5 16 18 0 13 -25 -9 -45 -11 -10 -20 -24&#xA;-20 -31 0 -7 -8 -15 -17 -18 -15 -4 -14 -5 2 -4 21 1 75 -18 75 -26 0 -3 -6&#xA;-3 -13 0 -8 3 -20 -3 -28 -12 -13 -16 -12 -17 9 -12 19 5 22 3 16 -14 -4 -15&#xA;-3 -18 6 -13 9 5 11 4 6 -3 -10 -17 -24 -15 -29 5 -4 17 -5 17 -6 1 0 -10 -5&#xA;-18 -9 -18 -5 0 -9 -7 -9 -15 0 -11 4 -12 14 -4 19 16 17 -6 -3 -25 -14 -15&#xA;-14 -16 0 -16 9 0 16 7 16 15 0 8 5 15 10 15 6 0 10 -6 10 -14 0 -8 4 -18 10&#xA;-21 6 -3 7 1 4 9 -3 9 -1 16 5 16 6 0 11 -12 11 -27 0 -14 -3 -23 -7 -20 -8 9&#xA;-34 -13 -28 -24 3 -4 -4 -6 -16 -4 -26 5 -68 -20 -47 -28 9 -4 6 -11 -11 -27&#xA;-29 -25 -24 -34 9 -16 14 7 23 19 22 27 -7 30 -7 34 8 34 8 0 14 -6 12 -14 -1&#xA;-7 2 -19 9 -27 6 -8 9 -23 6 -35 -4 -16 -3 -18 9 -8 17 14 19 50 3 47 -6 -2&#xA;-14 3 -17 11 -3 10 0 12 12 8 9 -4 16 -2 16 4 0 6 4 8 10 4 5 -3 7 -12 4 -19&#xA;-7 -18 22 -40 38 -29 7 4 14 16 14 25 1 10 -2 16 -6 13 -5 -3 -10 1 -13 7 -5&#xA;18 3 48 14 48 13 0 11 -14 -3 -29 -11 -11 -10 -13 4 -8 13 5 19 0 24 -18 3&#xA;-13 2 -29 -2 -36 -5 -9 -2 -10 9 -6 11 4 14 2 10 -8 -3 -8 -9 -12 -14 -9 -11&#xA;7 -11 -17 0 -35 7 -10 12 -11 27 -1 16 10 16 11 2 6 -21 -6 -21 -6 -8 30 8 20&#xA;8 29 0 34 -8 5 -7 9 4 13 9 4 17 2 17 -3 3 -20 5 -25 13 -39 7 -11 5 -13 -9&#xA;-7 -18 7 -18 6 0 -14 10 -11 14 -20 9 -20 -11 0 18 -20 30 -20 4 0 1 11 -8 25&#xA;-11 17 -13 25 -4 25 6 0 3 7 -8 15 -10 8 -14 15 -8 15 18 0 67 -58 59 -71 -5&#xA;-8 -4 -10 3 -5 17 10 15 -34 -3 -119 -20 -89 -65 -299 -65 -302 0 -1 -60 -23&#xA;-85 -30 -5 -1 -44 -14 -85 -28 -71 -24 -220 -45 -220 -31 0 4 11 28 24 54 24&#xA;47 63 89 101 110 13 8 15 11 6 12 -38 0 -122 -82 -143 -141 -4 -9 -21 -19 -40&#xA;-22 -43 -6 -125 -3 -134 6 -4 4 3 30 17 58 23 50 99 129 125 129 7 0 16 5 19&#xA;11 9 14 -59 -15 -96 -42 -17 -11 -44 -45 -60 -75 -29 -51 -33 -54 -70 -54 -21&#xA;0 -39 5 -39 10 0 22 49 106 77 132 49 47 210 91 315 87 32 -1 61 1 65 4 3 4&#xA;-3 7 -15 7 -20 0 -20 0 -2 62 10 35 22 62 28 61 6 -2 9 3 7 10 -3 7 5 13 21&#xA;13 l26 2 -23 -24 c-12 -13 -17 -24 -11 -24 6 0 15 8 21 17 9 17 10 17 29 0 13&#xA;-12 22 -15 27 -8 10 17 28 13 21 -5 -4 -10 -2 -13 6 -8 7 5 9 2 6 -8 -4 -8 -1&#xA;-15 7 -15 8 0 11 7 7 15 -3 10 -1 13 6 8 7 -4 12 -3 12 2 0 7 -20 20 -64 40&#xA;-5 3 -6 0 -2 -6 4 -6 -2 -8 -14 -5 -11 3 -20 9 -20 14 0 5 6 6 13 4 17 -7 41&#xA;11 33 24 -5 8 -24 9 -55 5 -84 -11 -262 40 -341 99 -67 50 -72 56 -112 132&#xA;-27 52 -32 73 -36 158 -3 56 1 124 7 160 17 83 76 207 140 290 31 40 45 64 33&#xA;58 -19 -10 -132 -152 -132 -166 0 -3 -7 -22 -15 -41 l-15 -36 -39 53 c-22 30&#xA;-45 59 -51 66 -19 23 -80 148 -83 172 -2 14 -10 27 -16 29 -19 6 -6 -29 51&#xA;-138 27 -52 67 -115 89 -140 21 -24 39 -48 39 -53 0 -5 -7 -37 -17 -71 -17&#xA;-66 -24 -266 -9 -266 5 0 7 -3 4 -6 -4 -3 0 -21 8 -40 l15 -35 -38 6 c-48 9&#xA;-176 52 -226 77 -161 81 -302 219 -381 375 -26 53 -59 150 -92 273 -34 129&#xA;-24 514 19 684 l12 49 75 19 c41 10 84 20 95 23 93 22 244 99 313 158 113 98&#xA;153 178 147 296 -5 90 -20 94 -22 6 -2 -117 -52 -208 -159 -292 -93 -72 -246&#xA;-137 -392 -167 -220 -45 -375 -18 -487 85 -44 41 -82 96 -72 105 2 3 16 0 30&#xA;-5 14 -6 73 -16 131 -22 90 -11 106 -15 106 -30 0 -10 15 -30 34 -44 46 -35&#xA;93 -27 136 22 l30 34 27 -20 c55 -44 131 -8 155 72 7 23 21 49 33 57 96 68&#xA;167 169 200 283 17 59 23 64 57 46 26 -14 33 -6 13 15 -24 24 -97 21 -120 -5&#xA;-19 -20 -19 -20 8 -10 33 13 35 -1 10 -75 -49 -148 -174 -254 -358 -305 -85&#xA;-23 -294 -29 -375 -10 -25 5 -76 15 -115 21 -83 13 -169 50 -184 79 -18 33&#xA;-25 162 -12 237 42 241 205 349 456 301 70 -14 109 -26 238 -76 26 -10 32 -8&#xA;58 20 l29 31 0 -38 c0 -22 9 -53 20 -71 61 -100 184 -89 240 22 30 61 33 168&#xA;6 210 -43 65 -119 78 -180 31 -21 -15 -42 -39 -48 -52 -11 -23 -12 -21 -29 28&#xA;-29 88 -103 123 -170 82z m96 -10 c71 -33 87 -145 32 -218 l-27 -35 -83 38&#xA;c-74 35 -82 41 -85 69 -6 62 65 156 121 161 5 1 24 -6 42 -15z m276 -50 c87&#xA;-45 74 -229 -20 -291 -39 -27 -59 -28 -105 -9 -23 10 -40 28 -56 61 -21 43&#xA;-22 51 -10 102 9 43 22 65 59 104 52 54 79 61 132 33z m-175 -783 c-27 -51&#xA;-80 -66 -124 -35 -33 23 -28 31 31 48 28 9 63 23 77 30 32 19 38 1 16 -43z&#xA;m-185 -29 c-31 -58 -107 -76 -142 -33 -11 13 -19 27 -19 32 0 4 30 10 68 12&#xA;37 2 75 4 85 5 14 2 16 -2 8 -16z m-81 -593 c25 -7 50 -16 55 -20 15 -11 18&#xA;-75 4 -100 -8 -15 -8 -19 0 -15 6 4 11 2 11 -3 0 -6 -5 -11 -12 -11 -9 0 -9&#xA;-3 0 -12 19 -19 15 -41 -5 -29 -50 27 -56 36 -42 62 44 80 -42 7 -98 -83 -20&#xA;-32 -39 -58 -43 -58 -4 0 -13 14 -20 30 -16 38 -7 96 21 133 11 16 19 31 16&#xA;33 -10 10 -64 -67 -81 -116 -10 -27 -22 -50 -26 -50 -30 0 -35 92 -7 146 32&#xA;60 123 120 167 109 8 -2 35 -9 60 -16z m134 -491 c-3 -4 3 -22 12 -40 9 -18&#xA;16 -33 14 -33 -2 0 5 -24 14 -53 11 -31 22 -50 28 -46 6 4 8 2 5 -3 -4 -6 9&#xA;-27 28 -47 38 -40 42 -52 23 -59 -8 -3 -6 -6 5 -6 13 -1 16 -7 13 -26 -3 -15&#xA;-1 -23 5 -20 5 4 7 11 4 16 -9 13 9 11 23 -3 15 -15 16 -32 2 -23 -16 10 -12&#xA;-5 12 -38 12 -17 17 -28 11 -24 -5 3 -16 -5 -23 -18 -7 -13 -18 -22 -23 -18&#xA;-6 3 -7 1 -3 -6 4 -6 11 -9 16 -6 4 3 11 -1 14 -7 3 -7 3 -3 1 9 -3 12 -1 24&#xA;5 28 13 8 42 -14 34 -26 -2 -5 7 -11 21 -15 14 -3 25 -10 25 -14 0 -5 -8 -6&#xA;-19 -3 -10 3 -22 0 -25 -6 -4 -6 0 -11 8 -11 9 0 16 -6 16 -12 0 -9 3 -8 10 2&#xA;7 12 12 12 21 3 18 -18 -5 -41 -36 -37 -14 1 -25 -2 -25 -8 0 -5 9 -7 20 -3&#xA;16 5 19 3 13 -12 -3 -10 -3 -15 2 -11 8 8 45 -8 45 -20 0 -4 -14 -13 -31 -21&#xA;-16 -7 -28 -16 -25 -19 3 -2 11 0 18 5 17 14 50 13 45 -1 -2 -6 -11 -10 -20&#xA;-10 -8 1 -13 -4 -11 -11 6 -15 34 -16 31 -1 -1 6 4 10 11 8 8 -1 11 2 7 8 -7&#xA;11 8 14 19 3 3 -4 -8 -20 -26 -36 -18 -16 -28 -27 -23 -24 6 3 11 -3 11 -13 0&#xA;-14 -4 -16 -13 -9 -7 6 -17 8 -23 4 -5 -3 -10 -2 -10 4 0 5 4 11 9 13 5 2 2&#xA;10 -7 18 -14 13 -15 12 -9 -3 9 -24 -10 -31 -46 -16 -99 40 -197 92 -229 122&#xA;-20 19 -49 59 -64 88 -26 49 -29 63 -29 159 0 104 6 131 48 240 31 81 58 124&#xA;68 109 4 -7 6 -17 3 -21z m225 -370 c25 -22 25 -24 9 -40 -18 -18 -34 -12 -17&#xA;8 8 9 5 15 -10 24 -12 6 -21 15 -21 20 0 15 10 12 39 -12z m976 -18 c3 -6 -1&#xA;-7 -9 -4 -18 7 -21 14 -7 14 6 0 13 -4 16 -10z m-917 -32 c15 -19 -10 -39 -26&#xA;-21 -8 8 -9 13 -2 13 6 0 8 5 5 10 -9 14 11 12 23 -2z m40 -40 c9 -11 10 -18&#xA;2 -23 -6 -4 -9 -1 -8 7 2 7 -5 12 -14 12 -21 -2 -24 12 -5 19 6 2 12 4 12 3 1&#xA;0 6 -8 13 -18z m917 -48 c-3 -5 -12 -7 -20 -3 -21 7 -19 13 6 13 11 0 18 -4&#xA;14 -10z m-907 -22 c-2 -8 7 -12 22 -11 14 1 18 0 8 -3 -10 -3 -18 -12 -18 -20&#xA;0 -8 -4 -14 -10 -14 -5 0 -6 7 -3 17 4 10 2 14 -4 10 -6 -4 -13 0 -16 7 -5 12&#xA;1 19 21 25 1 1 1 -5 0 -11z m1115 -41 c-4 -20 -3 -21 7 -4 11 18 15 16 52 -20&#xA;l39 -38 -28 -6 c-46 -11 -123 -10 -144 1 -20 11 -26 40 -8 40 6 0 9 -7 5 -15&#xA;-3 -8 -1 -15 4 -15 6 0 10 5 10 12 0 6 7 3 15 -8 8 -11 14 -14 15 -6 0 7 10&#xA;17 23 22 19 9 18 9 -8 5 -40 -7 -66 9 -46 27 11 11 13 11 6 -1 -6 -10 -4 -12&#xA;4 -7 7 5 10 14 7 22 -3 8 -2 13 2 13 28 -4 34 1 21 19 -12 15 -12 15 8 -1 13&#xA;-12 19 -26 16 -40z m-1143 7 c0 -17 -22 -14 -28 4 -2 7 3 12 12 12 9 0 16 -7&#xA;16 -16z m940 -30 c0 -8 -19 -13 -24 -6 -3 5 1 9 9 9 8 0 15 -2 15 -3z m-876&#xA;-29 c-4 -8 -11 -12 -16 -9 -6 4 -5 10 3 15 19 12 19 11 13 -6z m95 -21 c14&#xA;-23 18 -41 13 -51 -8 -14 -10 -13 -15 1 -4 9 -2 16 3 16 5 0 0 16 -11 35 -12&#xA;19 -19 35 -16 35 3 0 15 -16 26 -36z m-92 -18 c-8 -8 -17 -12 -21 -9 -3 4 -6&#xA;1 -6 -5 0 -7 -4 -12 -10 -12 -18 0 -10 15 17 32 32 19 42 16 20 -6z m40 -26&#xA;c-1 -11 -4 -20 -8 -20 -11 0 -29 27 -22 33 14 14 32 6 30 -13z m33 -5 c0 -8&#xA;-4 -15 -10 -15 -5 0 -7 7 -4 15 4 8 8 15 10 15 2 0 4 -7 4 -15z m-110 -15 c0&#xA;-5 -2 -10 -4 -10 -3 0 -8 5 -11 10 -3 6 -1 10 4 10 6 0 11 -4 11 -10z m178 -2&#xA;c14 -14 16 -58 3 -90 -5 -13 -17 -50 -27 -83 -10 -33 -22 -64 -26 -70 -4 -5&#xA;-8 -17 -8 -27 0 -10 -4 -18 -10 -18 -5 0 -10 -9 -10 -19 0 -24 -18 -29 -190&#xA;-57 -81 -13 -250 -27 -256 -21 -25 25 53 123 107 134 28 5 41 23 17 23 -47 -1&#xA;-148 -79 -148 -115 0 -18 -20 -24 -73 -20 -65 4 -70 10 -47 53 27 51 50 79 85&#xA;102 35 23 17 27 -25 5 -31 -16 -90 -94 -90 -119 0 -22 -15 -27 -35 -12 -39 28&#xA;20 106 110 148 46 21 63 23 198 21 133 -1 147 0 130 14 -10 8 -13 12 -7 9 7&#xA;-3 15 1 18 10 3 9 2 12 -5 9 -6 -4 -7 3 -3 22 17 68 19 70 77 72 63 2 79 -11&#xA;48 -40 -12 -11 -21 -23 -21 -26 0 -4 10 3 23 15 31 29 43 28 23 -2 -15 -24&#xA;-15 -25 6 -21 12 3 26 9 32 15 8 8 6 9 -8 4 -13 -5 -17 -4 -12 4 4 7 16 12 27&#xA;12 10 0 19 6 19 14 0 9 -10 12 -32 10 -24 -3 -29 -1 -17 6 20 12 48 7 59 -10&#xA;9 -14 -32 -67 -65 -81 -16 -8 -15 -8 8 -4 25 5 26 4 15 -14 -7 -11 -18 -17&#xA;-27 -13 -14 5 -14 4 -1 -10 14 -15 17 -14 40 10 15 16 20 27 12 30 -20 6 -14&#xA;17 21 37 l32 18 -19 -21 c-12 -14 -14 -22 -7 -22 8 0 4 -10 -8 -26 -15 -19&#xA;-18 -30 -11 -39 14 -17 -8 -34 -37 -29 -12 2 -25 -1 -29 -8 -4 -6 -3 -8 4 -4&#xA;6 3 13 2 17 -4 3 -5 1 -10 -6 -10 -7 0 -9 -3 -6 -7 4 -3 -3 -17 -15 -30 -12&#xA;-12 -18 -26 -15 -30 4 -3 7 -1 7 5 0 7 7 12 15 12 14 0 20 -12 16 -33 -1 -5 3&#xA;-6 9 -2 7 4 7 12 0 25 -7 13 -4 24 12 45 14 18 23 23 28 15 4 -7 13 2 24 23&#xA;18 40 20 57 6 57 -5 0 -10 -5 -10 -12 0 -6 -3 -8 -6 -5 -4 4 -1 14 6 22 9 11&#xA;15 13 20 5 5 -7 9 -4 13 9 3 12 1 19 -4 15 -15 -9 -10 14 7 30 8 9 12 16 8 16&#xA;-5 0 -3 5 4 12 14 14 17 52 3 44 -5 -3 -11 3 -14 14 -6 23 3 26 21 8z m-51&#xA;-14 c-3 -3 -12 -4 -19 -1 -8 3 -5 6 6 6 11 1 17 -2 13 -5z m1573 -324 c0 -5&#xA;-2 -10 -4 -10 -3 0 -8 5 -11 10 -3 6 -1 10 4 10 6 0 11 -4 11 -10z m73 -40&#xA;c-3 -11 -9 -20 -15 -20 -5 0 -4 8 1 19 6 10 7 22 3 26 -4 5 -2 5 5 2 6 -4 9&#xA;-16 6 -27z m21 -45 c-4 -8 -10 -13 -15 -10 -4 3 -6 12 -3 20 4 8 10 13 15 10&#xA;4 -3 6 -12 3 -20z m30 -30 c3 -8 1 -15 -4 -15 -6 0 -10 7 -10 15 0 8 2 15 4&#xA;15 2 0 6 -7 10 -15z"/>
    <path d="M9203 3368 c-29 -38 -24 -98 9 -98 26 0 53 62 38 90 -12 23 -33 26&#xA;-47 8z"/>
    <path d="M9458 3313 c-34 -40 -33 -113 2 -113 34 0 51 29 48 79 -3 51 -23 65&#xA;-50 34z"/>
    <path d="M9283 1285 c0 -7 6 -11 14 -8 7 3 13 6 13 8 0 2 -6 5 -13 8 -8 3 -14&#xA;-1 -14 -8z"/>
    <path d="M9334 1188 c3 -9 0 -19 -7 -21 -7 -2 -10 -7 -7 -10 3 -3 12 -2 19 2&#xA;11 7 11 13 1 27 -9 15 -10 15 -6 2z"/>
    <path d="M9401 965 c0 -5 3 -16 8 -23 7 -11 9 -10 14 3 4 9 3 14 -2 10 -5 -3&#xA;-12 1 -14 7 -3 7 -6 9 -6 3z"/>
    <path d="M9298 913 c13 -13 28 -23 35 -23 7 0 3 6 -8 12 -11 6 -27 16 -35 22&#xA;-9 6 -5 1 8 -11z"/>
    <path d="M9376 894 c-4 -9 -5 -17 -4 -18 2 -1 13 -7 26 -14 23 -13 26 -9 12&#xA;23 -5 11 -9 14 -9 8 -1 -7 -5 -13 -11 -13 -5 0 -7 7 -4 15 4 8 4 15 1 15 -3 0&#xA;-8 -7 -11 -16z"/>
    <path d="M9437 794 c-4 -4 -7 -14 -7 -23 0 -11 3 -12 11 -4 6 6 10 16 7 23 -2&#xA;6 -7 8 -11 4z"/>
    <path d="M9480 780 c-6 -12 -3 -16 11 -17 10 -1 19 4 19 12 0 7 8 16 18 18 9&#xA;3 4 4 -11 4 -16 -1 -32 -9 -37 -17z"/>
    <path d="M9421 743 c-1 -17 16 -25 25 -12 4 7 3 9 -4 5 -5 -3 -13 0 -15 6 -4&#xA;9 -6 10 -6 1z"/>
    <path d="M9587 567 c-2 -6 1 -17 8 -24 10 -9 13 -6 13 13 0 25 -13 32 -21 11z"/>
    <path d="M9490 521 c0 -7 -4 -9 -10 -6 -5 3 -10 2 -10 -3 0 -5 12 -9 26 -9 14&#xA;0 22 2 18 6 -5 3 -12 10 -16 15 -5 5 -8 4 -8 -3z"/>
    <path d="M8620 3151 c-5 -11 -10 -32 -9 -48 1 -27 1 -27 8 -4 11 40 33 39 31&#xA;0 -3 -53 0 -67 10 -44 28 64 -9 153 -40 96z"/>
    <path d="M8865 3117 c-26 -26 -35 -43 -35 -68 l0 -34 19 40 c10 22 28 49 40&#xA;60 19 16 24 17 31 5 5 -8 7 -24 3 -35 -3 -11 -8 -27 -10 -35 -3 -9 2 -7 12 5&#xA;21 27 17 89 -8 93 -10 2 -32 -11 -52 -31z"/>
    <path d="M9602 2360 c0 -14 2 -19 5 -12 2 6 2 18 0 25 -3 6 -5 1 -5 -13z"/>
    <path d="M9593 2255 c0 -38 2 -53 4 -32 2 20 2 52 0 70 -2 17 -4 1 -4 -38z"/>
    <path d="M9683 2187 c-29 -43 -73 -145 -73 -169 0 -15 -4 -18 -17 -13 -100 38&#xA;-227 42 -296 9 -58 -28 -101 -102 -105 -183 -3 -49 1 -71 12 -86 16 -20 16&#xA;-20 41 10 17 21 25 25 25 14 0 -22 38 -69 56 -69 8 0 29 24 48 53 18 28 43 60&#xA;54 71 20 18 22 18 49 -2 39 -27 92 -53 117 -58 76 -14 132 -21 139 -17 4 2 7&#xA;-1 7 -7 0 -7 14 -3 34 9 26 16 35 18 39 9 3 -8 6 -6 6 5 1 9 4 17 9 17 4 0 12&#xA;10 18 23 68 133 77 155 81 208 3 33 3 59 0 59 -3 0 -11 -26 -17 -58 -14 -69&#xA;-73 -176 -113 -206 -24 -17 -43 -21 -111 -21 -77 0 -89 3 -167 42 -46 23 -87&#xA;39 -92 36 -5 -3 -29 -36 -53 -74 -25 -38 -49 -69 -53 -69 -10 0 -41 73 -41 96&#xA;0 8 10 34 21 57 l21 42 -24 -23 c-14 -12 -35 -45 -48 -72 -13 -28 -27 -50 -32&#xA;-50 -4 0 -8 26 -8 58 0 47 6 67 29 104 17 26 44 54 62 64 63 32 177 28 317&#xA;-12 17 -5 21 -3 17 8 -7 19 29 131 57 176 26 43 19 60 -9 19z"/>
    <path d="M10104 2162 c-65 -43 -9 -180 89 -216 36 -14 48 -15 86 -4 24 8 48&#xA;20 54 29 28 44 -33 147 -107 180 -42 19 -102 25 -122 11z m95 -22 c39 -11 83&#xA;-48 74 -63 -3 -5 -9 -3 -15 4 -8 11 -9 11 -5 -1 2 -8 11 -14 20 -12 8 1 23 -8&#xA;31 -20 19 -27 21 -42 4 -32 -10 6 -10 4 0 -7 6 -7 12 -16 12 -21 0 -10 -52&#xA;-35 -70 -33 -8 1 -24 3 -36 3 -30 3 -108 77 -100 97 3 9 2 14 -2 11 -5 -3 -9&#xA;12 -10 34 -1 29 2 40 16 43 29 8 46 7 81 -3z"/>
    <path d="M10140 2128 c0 -5 -4 -7 -9 -3 -5 3 -12 1 -16 -4 -3 -6 6 -8 22 -5&#xA;l28 4 -25 -16 c-14 -8 -17 -13 -7 -10 11 3 17 0 17 -9 0 -8 -5 -15 -11 -15 -8&#xA;0 -8 -5 1 -15 7 -8 10 -15 7 -15 -3 0 11 -16 30 -36 25 -26 37 -33 43 -24 5 9&#xA;9 9 14 1 10 -15 29 -14 24 2 -3 6 -20 14 -39 17 -19 3 -32 9 -29 13 3 5 -3 13&#xA;-12 18 -11 6 -18 22 -18 39 0 39 10 61 24 53 6 -3 8 -2 3 2 -10 12 -47 14 -47&#xA;3z"/>
    <path d="M10200 2110 c-8 -5 -10 -10 -5 -10 6 0 17 5 25 10 8 5 11 10 5 10 -5&#xA;0 -17 -5 -25 -10z"/>
    <path d="M10205 2080 c27 -12 43 -12 25 0 -8 5 -22 9 -30 9 -10 0 -8 -3 5 -9z"/>
    <path d="M10210 2050 c0 -5 5 -10 11 -10 5 0 7 5 4 10 -3 6 -8 10 -11 10 -2 0&#xA;-4 -4 -4 -10z"/>
    <path d="M10245 2030 c-4 -6 -1 -9 7 -8 7 2 14 -4 14 -12 3 -32 6 -34 13 -15&#xA;13 30 -18 61 -34 35z"/>
    <path d="M9602 2100 c0 -14 2 -19 5 -12 2 6 2 18 0 25 -3 6 -5 1 -5 -13z"/>
    <path d="M10378 1915 c-15 -34 8 -83 55 -119 34 -26 91 -37 115 -22 23 14 13&#xA;64 -19 101 -59 67 -130 86 -151 40z m98 -17 c8 -7 15 -30 16 -51 3 -33 4 -35&#xA;16 -20 11 16 14 16 22 3 13 -20 13 -40 0 -40 -5 0 -10 5 -10 10 0 6 -5 10 -11&#xA;10 -5 0 -7 -6 -3 -12 6 -10 5 -10 -8 -1 -8 7 -17 12 -19 10 -2 -1 -1 2 3 7 8&#xA;10 -1 36 -13 36 -5 0 -9 -9 -9 -20 0 -17 -3 -18 -23 -9 -25 11 -49 62 -40 85&#xA;7 18 59 12 79 -8z"/>
    <path d="M10441 1903 c0 -5 3 -15 7 -24 6 -13 9 -14 18 -5 9 10 7 16 -7 24&#xA;-11 7 -19 9 -18 5z"/>
    <path d="M10414 1864 c13 -27 42 -44 32 -18 -3 8 -6 19 -6 24 0 4 -8 10 -18&#xA;12 -17 5 -17 2 -8 -18z"/>
    <path d="M9900 1865 c-7 -9 -8 -15 -2 -15 5 0 12 7 16 15 3 8 4 15 2 15 -2 0&#xA;-9 -7 -16 -15z"/>
    <path d="M10237 1833 c-29 -28 27 -112 78 -117 42 -5 55 2 55 31 0 36 -60 93&#xA;-97 93 -16 0 -33 -3 -36 -7z m66 -22 c5 -1 5 -5 2 -11 -3 -5 0 -7 8 -4 8 3 17&#xA;-2 21 -11 3 -9 2 -14 -3 -11 -5 4 -7 -2 -4 -13 8 -32 -16 -34 -47 -2 -36 36&#xA;-40 63 -7 57 12 -3 26 -5 30 -5z"/>
    <path d="M10260 1805 c0 -2 6 -8 13 -14 10 -8 14 -7 14 2 0 8 -6 14 -14 14 -7&#xA;0 -13 -1 -13 -2z"/>
    <path d="M10281 1767 c2 -1 13 -9 24 -17 19 -14 19 -14 6 3 -7 9 -18 17 -24&#xA;17 -6 0 -8 -1 -6 -3z"/>
    <path d="M11472 1750 c0 -14 2 -19 5 -12 2 6 2 18 0 25 -3 6 -5 1 -5 -13z"/>
    <path d="M9760 1720 c-9 -6 -10 -10 -3 -10 6 0 15 5 18 10 8 12 4 12 -15 0z"/>
    <path d="M10167 1646 c-3 -8 13 -45 35 -83 46 -77 88 -130 88 -113 0 7 9 25&#xA;21 41 11 16 17 33 14 39 -3 6 1 7 9 4 9 -4 16 -1 16 6 0 6 -9 14 -20 17 -11 3&#xA;-20 9 -20 15 0 5 9 4 21 -2 11 -6 25 -9 32 -7 7 3 -15 17 -48 31 -33 15 -76&#xA;35 -96 46 -44 24 -45 24 -52 6z m125 -89 c-5 -18 -7 -19 -10 -4 -2 9 -7 15&#xA;-12 12 -5 -3 -11 -2 -14 3 -2 4 6 9 19 10 19 1 22 -2 17 -21z"/>
    <path d="M10600 1447 c0 -2 15 -16 33 -33 l32 -29 -29 33 c-28 30 -36 37 -36&#xA;29z"/>
    <path d="M10726 1334 c82 -79 287 -268 309 -283 11 -8 8 -2 -8 13 -15 15 -25&#xA;31 -22 36 3 5 28 16 57 26 28 9 67 27 86 40 19 13 40 24 46 24 12 1 66 45 66&#xA;55 0 4 -12 -3 -26 -14 -14 -11 -52 -33 -83 -47 -31 -15 -58 -30 -61 -34 -3 -4&#xA;-29 -14 -58 -23 l-52 -15 -50 45 c-30 27 -50 53 -50 66 0 16 -3 18 -9 9 -6&#xA;-11 -21 -3 -62 33 -30 26 -59 52 -64 59 -6 6 -24 22 -40 35 -17 14 -7 2 21&#xA;-25z"/>
    <path d="M11295 1369 c-4 -6 -4 -13 -1 -16 3 -4 6 -1 6 7 0 10 4 10 18 -1 15&#xA;-13 16 -12 3 4 -16 20 -18 20 -26 6z"/>
    <path d="M11290 1329 c0 -5 5 -7 10 -4 6 3 10 8 10 11 0 2 -4 4 -10 4 -5 0&#xA;-10 -5 -10 -11z"/>
    <path d="M11209 1293 c-13 -17 -13 -17 6 -3 11 8 22 16 24 17 2 2 0 3 -6 3 -6&#xA;0 -17 -8 -24 -17z"/>
    <path d="M10402 1260 c0 -14 2 -19 5 -12 2 6 2 18 0 25 -3 6 -5 1 -5 -13z"/>
    <path d="M11275 1250 c-3 -6 1 -7 9 -4 18 7 21 14 7 14 -6 0 -13 -4 -16 -10z"/>
    <path d="M11153 1235 c-3 -9 -3 -18 -1 -21 3 -3 8 4 11 16 6 23 -1 27 -10 5z"/>
    <path d="M11019 1203 c-13 -16 -12 -17 4 -4 9 7 17 15 17 17 0 8 -8 3 -21 -13z"/>
    <path d="M10969 1183 c-13 -15 -12 -15 9 -4 23 12 28 21 13 21 -5 0 -15 -7&#xA;-22 -17z"/>
    <path d="M10356 981 c-4 -5 3 -7 14 -4 23 6 26 13 6 13 -8 0 -17 -4 -20 -9z"/>
    <path d="M10880 920 c0 -5 5 -10 11 -10 5 0 7 5 4 10 -3 6 -8 10 -11 10 -2 0&#xA;-4 -4 -4 -10z"/>
    <path d="M11200 895 c13 -14 26 -25 28 -25 3 0 -5 11 -18 25 -13 14 -26 25&#xA;-28 25 -3 0 5 -11 18 -25z"/>
    <path d="M10935 870 c10 -11 20 -20 23 -20 3 0 -3 9 -13 20 -10 11 -20 20 -23&#xA;20 -3 0 3 -9 13 -20z"/>
    <path d="M10325 860 c-16 -7 -17 -9 -3 -9 9 -1 20 4 23 9 7 11 7 11 -20 0z"/>
    <path d="M10450 861 c-8 -6 -18 -7 -22 -5 -4 3 -8 0 -8 -6 0 -6 -4 -9 -9 -6&#xA;-5 3 -15 -2 -22 -12 -13 -15 -12 -16 3 -4 11 9 18 10 23 2 5 -8 10 -8 20 0 10&#xA;8 16 7 24 -7 6 -10 11 -13 11 -6 0 6 -5 15 -11 18 -6 5 -4 12 8 21 20 15 6 19&#xA;-17 5z"/>
    <path d="M10243 842 c-13 -2 -23 -8 -23 -13 0 -12 27 -12 35 1 4 6 13 5 25 -2&#xA;14 -9 24 -9 42 0 22 11 22 11 -5 6 -15 -4 -33 -2 -40 3 -6 5 -22 7 -34 5z"/>
    <path d="M11014 799 c27 -24 67 -61 88 -82 21 -21 38 -34 38 -28 0 11 -144&#xA;144 -163 150 -7 2 10 -16 37 -40z"/>
    <path d="M10279 800 c5 -3 11 -9 13 -15 1 -5 8 -8 13 -6 6 2 28 5 50 6 65 4&#xA;50 20 -20 21 -35 0 -60 -3 -56 -6z"/>
    <path d="M10464 785 c-4 -10 -14 -14 -28 -10 -20 5 -20 4 2 -6 24 -13 29 -35&#xA;10 -41 -7 -3 -4 -7 7 -12 11 -4 16 -4 12 0 -4 4 -1 14 6 22 9 12 9 16 0 19 -9&#xA;3 -10 10 -3 24 6 10 8 19 5 19 -3 0 -8 -7 -11 -15z"/>
    <path d="M10490 785 c-8 -11 -10 -16 -3 -12 8 5 10 -4 8 -28 -2 -19 1 -35 6&#xA;-35 6 0 7 9 4 22 -6 17 -4 20 9 15 10 -4 15 -3 12 2 -3 5 2 12 11 16 10 3 19&#xA;1 21 -4 2 -6 8 -11 13 -11 6 0 7 5 4 10 -6 9 8 14 28 11 5 -1 6 3 2 9 -3 6&#xA;-11 8 -16 4 -5 -3 -25 -7 -44 -10 -25 -3 -34 0 -37 13 -3 14 -5 14 -18 -2z"/>
    <path d="M10520 789 c0 -5 5 -7 10 -4 6 3 10 8 10 11 0 2 -4 4 -10 4 -5 0 -10&#xA;-5 -10 -11z"/>
    <path d="M10553 710 c2 -8 -5 -22 -16 -31 -13 -10 -16 -18 -9 -23 6 -3 21 8&#xA;33 26 13 17 18 29 12 25 -6 -4 -14 -1 -17 5 -4 8 -5 7 -3 -2z"/>
    <path d="M10500 684 c0 -8 5 -12 10 -9 6 4 8 11 5 16 -9 14 -15 11 -15 -7z"/>
    <path d="M10557 653 c-4 -3 -7 -11 -7 -17 0 -6 5 -5 12 2 6 6 9 14 7 17 -3 3&#xA;-9 2 -12 -2z"/>
    <path d="M10520 621 c0 -5 7 -11 14 -14 10 -4 13 -1 9 9 -6 15 -23 19 -23 5z"/>
    <path d="M11510 621 c0 -5 5 -13 10 -16 6 -3 10 -2 10 4 0 5 -4 13 -10 16 -5&#xA;3 -10 2 -10 -4z"/>
    <path d="M10524 555 c-31 -35 -33 -46 -4 -22 14 11 44 57 38 57 -2 0 -17 -16&#xA;-34 -35z"/>
    <path d="M10523 455 c-3 -9 -3 -19 1 -22 3 -4 6 1 6 11 0 10 5 14 12 10 7 -4&#xA;8 -3 4 4 -10 16 -15 15 -23 -3z"/>
    <path d="M10477 406 c-4 -9 -11 -15 -16 -11 -5 3 -12 1 -16 -5 -3 -5 1 -10 9&#xA;-10 8 0 17 4 21 10 3 5 12 7 20 3 8 -3 15 0 15 7 0 6 5 8 12 4 7 -4 8 -3 4 5&#xA;-6 9 -11 9 -21 1 -10 -8 -14 -8 -17 2 -3 8 -7 6 -11 -6z"/>
    <path d="M11540 393 c-22 -16 -22 -17 -4 -31 18 -13 18 -14 -3 -8 -16 5 -25 2&#xA;-32 -13 -17 -30 -14 -46 4 -31 8 7 12 17 8 23 -3 5 -1 7 4 4 6 -4 22 2 34 14&#xA;13 11 18 18 12 14 -16 -8 -17 7 -1 23 19 19 4 23 -22 5z"/>
    <path d="M10335 359 c-4 -6 -5 -12 -2 -15 2 -3 7 2 10 11 7 17 1 20 -8 4z"/>
    <path d="M10400 360 c0 -5 7 -7 15 -4 8 4 15 8 15 10 0 2 -7 4 -15 4 -8 0 -15&#xA;-4 -15 -10z"/>
  </g>
  <title>Header</title>
  <desc>Header</desc>
</svg>