<?xml version="1.0" standalone="no"?>
<!DOCTYPE svg PUBLIC "-//W3C//DTD SVG 20010904//EN"
 "http://www.w3.org/TR/2001/REC-SVG-20010904/DTD/svg10.dtd">
<svg version="1.0" xmlns="http://www.w3.org/2000/svg"
 width="1024.000000pt" height="1024.000000pt" viewBox="0 0 1024.000000 1024.000000"
 preserveAspectRatio="xMidYMid meet">
<metadata>
Created by potrace 1.16, written by Peter Selinger 2001-2019
</metadata>
<g transform="translate(0.000000,1024.000000) scale(0.100000,-0.100000)"
fill="#000000" stroke="none">
<path d="M7070 9587 c-117 -42 -214 -119 -297 -235 -36 -50 -58 -69 -107 -94
-171 -85 -332 -220 -473 -398 -96 -121 -159 -236 -207 -381 -45 -133 -56 -205
-56 -356 0 -139 18 -246 79 -471 108 -396 133 -649 85 -865 -18 -82 -88 -235
-132 -287 l-30 -36 -136 66 c-453 222 -990 293 -1500 199 -629 -117 -1209
-485 -1609 -1022 -79 -106 -92 -112 -207 -103 -355 27 -630 301 -706 702 -22
120 -15 378 15 514 97 439 344 840 692 1120 53 42 184 137 293 210 200 135
236 166 236 205 0 153 -448 135 -877 -35 -356 -141 -717 -404 -961 -699 -156
-188 -240 -322 -361 -571 -260 -539 -336 -1163 -217 -1775 160 -817 617 -1413
1376 -1795 252 -126 538 -229 810 -290 72 -16 301 -59 317 -60 6 0 -40 -107
-83 -192 -81 -161 -150 -271 -403 -637 -111 -159 -121 -195 -121 -414 0 -224
51 -767 79 -841 31 -79 333 -249 571 -319 272 -81 449 -85 507 -12 23 28 30
32 51 24 42 -16 205 -39 277 -39 161 0 255 53 255 143 l0 44 83 5 c142 9 207
53 207 141 0 129 -131 314 -286 405 -76 45 -222 101 -345 134 -76 20 -82 24
-106 65 -30 52 -86 213 -104 301 l-13 62 39 33 c85 69 259 232 332 313 197
215 345 456 393 641 l24 90 115 6 c64 3 173 18 243 32 70 14 130 25 133 25 9
0 5 -67 -10 -152 -19 -111 -58 -228 -144 -435 -82 -197 -101 -268 -101 -380 0
-132 29 -237 159 -582 62 -162 86 -206 126 -231 78 -48 363 -140 555 -179 215
-44 449 -52 516 -18 22 11 57 13 151 9 249 -9 370 41 365 153 l-1 42 70 6
c117 10 167 56 155 141 -10 67 -72 160 -167 250 -165 157 -342 220 -684 242
-106 7 -111 8 -139 38 -36 38 -118 161 -136 205 -12 30 -11 34 13 59 44 47
135 191 196 311 71 141 104 223 147 360 l32 105 20 -95 c12 -52 28 -132 37
-179 28 -145 58 -194 121 -194 37 0 93 45 121 97 13 26 16 27 31 14 55 -48
129 -18 188 75 30 47 74 176 74 217 0 39 11 39 34 0 10 -16 33 -37 51 -46 44
-21 83 -2 110 52 17 35 20 60 20 190 -1 178 -13 232 -85 381 -42 86 -126 210
-224 329 l-25 31 62 49 c99 80 247 227 317 313 l64 81 36 -72 c51 -104 135
-221 199 -278 31 -27 93 -68 139 -91 77 -39 89 -42 185 -46 56 -2 136 1 177 7
145 23 338 99 486 192 34 22 64 39 66 39 3 0 11 -14 18 -30 7 -17 33 -48 57
-70 172 -151 520 -98 612 93 11 23 27 75 36 116 12 58 23 82 50 112 44 49 63
87 75 149 33 174 -115 388 -350 505 -30 15 -56 28 -58 30 -1 1 11 65 27 141
77 362 81 568 13 620 -30 23 -85 17 -128 -14 -116 -84 -321 -377 -441 -629
-24 -51 -48 -93 -52 -93 -13 0 -236 -145 -334 -216 -49 -36 -91 -63 -94 -61
-3 3 -31 85 -64 182 -62 186 -113 305 -170 396 l-34 54 12 85 c23 160 27 400
9 595 -9 99 -21 205 -27 235 -17 96 -23 290 -10 364 12 69 47 152 74 174 11
10 40 8 133 -8 136 -24 354 -29 451 -11 212 39 383 159 385 268 1 74 -24 98
-130 120 -148 31 -274 137 -295 248 -11 57 0 60 109 35 245 -55 357 -104 705
-303 299 -171 394 -202 490 -160 141 63 264 391 245 655 -14 200 -68 359 -181
528 -74 112 -132 168 -260 253 -213 140 -490 237 -756 263 l-69 7 0 32 c0 91
-69 224 -159 308 -61 57 -112 83 -202 104 -59 13 -80 13 -132 3 -69 -13 -163
-59 -197 -96 l-23 -23 -56 44 c-146 115 -323 134 -487 53 -241 -118 -333 -404
-208 -650 15 -29 54 -80 88 -113 210 -210 569 -187 712 45 l36 58 41 -18 c86
-38 262 -42 366 -9 83 26 167 95 196 160 10 21 22 39 26 39 35 0 325 -68 409
-96 225 -75 438 -200 552 -323 114 -123 197 -320 217 -517 23 -224 -44 -495
-149 -605 -39 -41 -40 -41 -97 -37 -70 5 -165 48 -379 171 -209 119 -393 210
-499 246 -119 40 -290 73 -586 116 -323 45 -472 89 -606 176 -34 23 -79 59
-99 81 -47 52 -138 193 -164 253 l-20 47 27 -6 c16 -4 35 -9 43 -11 8 -3 22 0
30 5 41 26 -97 90 -193 90 -105 0 -198 -44 -233 -111 -18 -35 -12 -36 30 -4
46 35 110 55 176 55 l57 0 17 -82 c9 -46 25 -137 36 -203 34 -214 84 -326 198
-447 214 -228 486 -340 882 -363 100 -6 310 5 375 20 32 8 49 -9 41 -41 -16
-62 -147 -150 -272 -181 -83 -20 -334 -23 -434 -4 -427 80 -707 171 -871 282
-180 121 -282 276 -339 510 l-20 84 4 -95 c10 -232 143 -456 346 -582 130 -81
390 -178 593 -222 l28 -7 -25 -32 c-66 -88 -82 -270 -47 -547 60 -469 51 -727
-34 -1065 -51 -206 -165 -473 -278 -654 -107 -173 -296 -390 -480 -554 l-68
-60 -47 45 c-101 96 -358 298 -394 310 -6 2 43 58 109 124 180 178 262 318
298 509 55 289 -81 574 -320 673 -26 11 -24 8 15 -25 73 -62 118 -114 159
-183 65 -109 76 -156 75 -310 -1 -117 -4 -145 -27 -215 -48 -145 -166 -322
-314 -467 l-68 -67 -55 19 c-30 11 -70 19 -89 20 -39 0 -111 -20 -111 -30 0
-4 28 -9 63 -12 115 -7 230 -76 465 -276 305 -260 485 -501 542 -726 32 -125
25 -330 -12 -352 -7 -4 -31 15 -59 47 -35 39 -48 62 -49 85 0 50 -38 184 -64
228 -26 44 -93 116 -108 116 -5 0 -1 -12 10 -27 36 -52 72 -132 87 -195 39
-165 -4 -388 -95 -491 -35 -40 -54 -45 -81 -22 -16 15 -16 19 2 77 29 91 35
217 16 310 -16 74 -63 186 -74 175 -3 -3 2 -37 11 -76 20 -87 21 -255 1 -337
-18 -76 -57 -167 -92 -213 l-26 -34 -18 22 c-22 27 -40 92 -69 241 -26 137
-72 263 -151 421 -32 64 -67 146 -79 182 l-21 65 -86 41 c-287 138 -540 337
-623 491 -35 64 -35 66 -34 185 0 101 5 135 28 210 51 168 178 406 360 670 32
47 56 88 53 91 -10 10 -106 -87 -172 -171 -126 -162 -233 -347 -288 -502 -54
-148 -72 -332 -43 -439 38 -143 171 -299 366 -429 59 -38 256 -140 330 -169
l44 -18 -169 -84 c-209 -104 -378 -170 -581 -229 -208 -60 -377 -94 -504 -102
l-105 -6 0 244 c0 266 -10 351 -66 582 -163 670 -502 1206 -859 1359 -90 38
-119 36 -47 -5 402 -226 745 -842 869 -1565 30 -172 33 -533 5 -659 -69 -323
-252 -598 -612 -925 -263 -238 -331 -279 -510 -307 -109 -18 -125 -22 -125
-33 0 -15 184 -4 274 16 38 9 95 31 126 49 l56 34 42 -131 c24 -72 57 -157 75
-190 l32 -58 133 -44 c307 -102 485 -236 554 -416 34 -91 21 -115 -78 -134
-124 -24 -135 -22 -171 39 -105 173 -318 323 -543 381 -187 48 -224 44 -75 -9
189 -66 314 -143 441 -269 105 -106 158 -196 152 -262 -3 -33 -8 -42 -38 -57
-30 -16 -53 -18 -160 -14 -69 2 -160 12 -203 22 l-78 18 -29 65 c-90 196 -297
379 -422 370 l-42 -3 67 -34 c195 -99 418 -422 325 -472 -56 -30 -332 20 -530
96 -109 43 -316 149 -359 185 -27 23 -32 36 -49 135 -47 283 -75 790 -50 908
12 61 18 71 240 392 153 222 290 469 336 605 10 30 20 57 21 59 2 3 21 -6 43
-18 22 -12 47 -21 56 -19 21 4 0 31 -199 249 -187 205 -272 318 -346 459 -189
361 -218 815 -77 1219 19 56 31 101 27 101 -13 0 -80 -122 -112 -205 -59 -150
-73 -246 -73 -475 0 -174 3 -220 21 -302 32 -140 66 -238 128 -363 76 -151
167 -274 322 -436 l133 -137 -78 15 c-368 68 -669 166 -987 323 -443 217 -764
487 -999 839 -217 324 -356 725 -402 1161 -24 219 -15 557 20 755 30 172 78
354 136 511 94 255 275 568 449 776 239 285 630 560 981 691 252 93 588 143
687 102 36 -15 36 -15 17 -36 -10 -11 -84 -62 -164 -112 -501 -317 -773 -623
-954 -1075 -167 -415 -177 -810 -30 -1121 89 -188 219 -328 378 -406 115 -56
185 -75 311 -82 l101 -6 -81 -161 c-84 -166 -144 -332 -170 -469 -14 -75 -21
-186 -10 -175 3 2 20 56 39 120 145 491 463 962 876 1291 344 275 759 455
1210 524 157 24 479 24 645 0 234 -35 495 -111 705 -207 52 -24 97 -45 99 -47
3 -2 -13 -22 -35 -44 -35 -37 -36 -41 -14 -34 14 4 51 21 83 38 229 120 335
497 261 927 -15 91 -40 191 -120 498 -30 113 -37 160 -41 269 -11 271 43 462
193 689 112 170 441 445 511 428 20 -5 37 6 101 68 140 135 238 188 389 209
100 14 113 21 113 63 0 26 -8 41 -31 60 -26 22 -40 26 -92 26 -39 0 -87 -9
-127 -23z m313 -427 c67 -25 164 -110 204 -177 59 -101 78 -232 49 -340 -32
-119 -85 -194 -173 -240 -188 -101 -445 -35 -558 142 -51 79 -68 152 -63 262
4 79 10 103 38 159 53 107 136 177 250 209 72 20 179 14 253 -15z m620 -22
c117 -55 216 -194 225 -320 9 -122 -45 -205 -159 -244 -81 -28 -244 -26 -322
5 -46 18 -57 27 -52 39 44 114 21 297 -50 404 -14 21 -25 40 -25 42 0 12 75
60 127 82 78 33 173 30 256 -8z m-980 -1275 c118 -129 356 -220 672 -257 77
-9 169 -21 205 -27 l65 -10 1 -62 c0 -95 58 -188 153 -249 l45 -28 -65 -1
c-131 -1 -235 1 -286 7 -47 6 -52 9 -58 35 -11 47 -79 142 -144 200 -82 73
-166 122 -265 156 -68 24 -97 28 -185 28 l-103 0 -29 50 c-29 50 -63 149 -73
215 l-5 35 17 -25 c9 -14 34 -44 55 -67z m285 -286 c99 -35 172 -79 255 -157
60 -56 127 -137 127 -154 0 -13 -44 -5 -137 25 -107 34 -174 65 -243 113 -54
36 -210 185 -210 199 0 17 131 1 208 -26z m1393 -1844 c37 -95 -58 -639 -141
-810 -66 -133 -178 -175 -295 -110 -84 47 -105 143 -61 270 63 177 334 584
436 653 44 30 48 30 61 -3z m-1157 -780 c42 -110 76 -205 76 -210 -1 -4 -20
-22 -44 -40 -44 -32 -95 -93 -79 -93 21 0 429 254 550 342 29 21 55 38 58 38
3 0 5 -21 5 -46 0 -91 73 -181 174 -214 52 -17 151 -8 202 18 54 28 105 85
144 166 38 77 35 77 144 13 90 -52 185 -147 222 -223 24 -48 29 -72 29 -130 0
-61 -4 -77 -30 -120 -38 -61 -106 -108 -197 -135 -59 -18 -88 -21 -186 -17
-107 4 -123 7 -189 37 -137 64 -174 139 -101 206 60 55 150 59 242 10 l46 -24
77 39 c43 22 85 40 95 40 10 0 18 4 18 9 0 14 -26 20 -67 15 -36 -5 -37 -4
-19 10 20 16 20 16 0 16 -10 0 -39 -12 -63 -26 l-45 -25 -49 21 c-61 27 -166
30 -218 8 -127 -55 -165 -177 -83 -268 l36 -39 -24 -43 c-66 -120 -425 -281
-659 -295 -81 -5 -108 -2 -165 15 -160 49 -279 163 -390 376 l-42 79 49 74
c63 97 166 301 218 431 33 83 108 311 112 340 2 18 85 -173 153 -355z m901
-701 c60 -22 87 -26 190 -25 115 0 166 9 257 48 15 6 16 3 3 -46 -18 -68 -58
-116 -126 -150 -110 -56 -251 -56 -353 -1 -82 45 -111 106 -85 181 9 24 15 30
28 25 9 -4 48 -19 86 -32z m-2575 -741 c0 -5 27 -67 61 -137 l61 -128 -16 -94
c-42 -244 -197 -580 -400 -861 -81 -113 -86 -134 -21 -91 35 23 45 25 45 8 0
-24 81 -147 132 -201 l53 -54 125 -13 c343 -33 522 -97 672 -238 115 -109 159
-211 105 -246 -12 -9 -54 -18 -93 -22 l-70 -6 -28 41 c-38 55 -137 146 -210
195 -120 80 -346 164 -346 128 0 -5 17 -18 38 -27 213 -99 302 -156 394 -252
105 -111 141 -190 101 -226 -38 -33 -181 -53 -302 -42 -70 6 -80 9 -85 29 -19
78 -170 220 -311 293 -75 38 -184 78 -192 69 -2 -2 22 -18 54 -36 97 -55 217
-137 271 -185 89 -80 137 -173 96 -189 -30 -12 -250 -6 -349 9 -181 28 -555
140 -632 190 -31 21 -45 50 -130 280 -94 253 -123 364 -123 464 0 97 13 139
112 381 92 221 136 380 145 523 l6 97 41 11 c212 56 532 187 692 284 93 56
104 61 104 46z"/>
<path d="M7201 8767 c-66 -33 -91 -134 -51 -205 65 -115 210 -56 210 84 0 102
-79 162 -159 121z"/>
<path d="M7855 8812 c-55 -11 -93 -88 -74 -155 18 -66 84 -88 135 -44 23 20
28 34 32 86 4 54 2 65 -18 86 -24 26 -45 33 -75 27z"/>
<path d="M5505 2125 c-33 -13 -99 -33 -147 -45 -98 -25 -119 -46 -35 -35 73 9
175 42 220 71 35 23 46 35 30 33 -5 -1 -35 -12 -68 -24z"/>
<path d="M7753 9591 c-30 -14 -56 -56 -48 -80 6 -21 43 -36 117 -46 77 -10
157 -57 239 -140 40 -41 79 -75 85 -75 55 0 -11 147 -107 240 -81 78 -222 128
-286 101z"/>
<path d="M7584 8317 c-62 -65 -128 -97 -256 -126 -54 -13 -98 -25 -98 -28 0
-13 158 7 214 26 68 24 141 76 174 126 39 57 20 58 -34 2z"/>
<path d="M8690 8177 c-54 -27 -26 -124 55 -196 65 -56 65 -43 0 64 -14 22 -25
46 -25 53 0 16 35 15 68 -2 41 -21 118 -107 133 -149 16 -46 33 -43 37 6 8 91
-125 237 -215 237 -15 0 -39 -6 -53 -13z"/>
<path d="M6709 7002 c20 -37 116 -115 178 -144 69 -33 222 -68 296 -68 85 0
48 23 -79 51 -181 38 -263 72 -358 144 -31 24 -44 29 -37 17z"/>
<path d="M4190 3159 c-36 -11 -121 -31 -190 -45 -178 -36 -188 -45 -45 -40 87
3 136 10 178 25 67 23 137 61 137 73 0 10 -1 10 -80 -13z"/>
<path d="M4145 2907 c-70 -23 -115 -30 -202 -34 -62 -3 -113 -9 -113 -14 0 -4
26 -13 58 -20 104 -21 289 18 338 72 9 11 15 21 13 22 -2 2 -44 -9 -94 -26z"/>
<path d="M3430 1745 c-48 -11 -124 -21 -318 -41 -29 -3 -50 -9 -47 -13 2 -5
40 -11 82 -15 126 -11 284 19 344 65 28 22 17 23 -61 4z"/>
</g>
</svg>
