<?xml version="1.0" standalone="no"?>
<!DOCTYPE svg PUBLIC "-//W3C//DTD SVG 20010904//EN"
 "http://www.w3.org/TR/2001/REC-SVG-20010904/DTD/svg10.dtd">
<svg version="1.0" xmlns="http://www.w3.org/2000/svg"
 width="1024.000000pt" height="1024.000000pt" viewBox="0 0 1024.000000 1024.000000"
 preserveAspectRatio="xMidYMid meet">
<metadata>
Created by potrace 1.16, written by Peter Selinger 2001-2019
</metadata>
<g transform="translate(0.000000,1024.000000) scale(0.100000,-0.100000)"
fill="#000000" stroke="none">
<path d="M2875 9744 c-268 -42 -370 -66 -750 -179 -376 -111 -521 -141 -790
-166 -114 -10 -351 -7 -388 6 -6 2 -28 6 -47 9 -84 12 -181 37 -260 66 -97 36
-121 40 -127 22 -7 -19 146 -86 262 -116 136 -34 243 -46 410 -46 295 1 570
48 950 166 512 158 758 204 1024 191 211 -11 305 -31 741 -162 350 -106 432
-124 695 -156 129 -16 430 -16 570 0 104 12 300 46 520 91 353 71 609 70 966
-5 270 -57 414 -75 614 -75 229 0 427 29 759 111 739 183 1010 193 1441 53 61
-20 143 -51 184 -70 73 -33 111 -42 111 -26 0 39 -230 142 -430 191 -151 38
-222 46 -430 45 -252 -1 -380 -20 -832 -130 -394 -96 -530 -117 -758 -118
-204 0 -281 9 -600 69 -474 90 -634 88 -1160 -10 -315 -60 -451 -75 -660 -75
-294 0 -507 34 -862 136 -566 163 -623 174 -918 179 -113 2 -218 1 -235 -1z"/>
<path d="M7070 9120 c0 -23 107 -72 220 -100 159 -41 387 -26 513 33 124 58
115 81 -15 39 -117 -38 -127 -40 -224 -48 -110 -9 -236 10 -376 56 -104 34
-118 36 -118 20z"/>
<path d="M3413 8990 c-91 -55 -95 -186 -8 -240 89 -55 225 19 225 121 0 107
-125 175 -217 119z m117 -45 c31 -16 55 -72 45 -105 -10 -33 -54 -60 -97 -60
-53 0 -88 35 -88 87 1 77 69 115 140 78z"/>
<path d="M2315 8986 c-34 -8 -130 -34 -215 -59 -228 -67 -287 -78 -465 -83
-144 -5 -172 -3 -275 20 -75 16 -118 21 -125 14 -17 -16 21 -35 123 -59 81
-20 122 -24 252 -24 173 1 253 14 445 70 289 85 299 87 440 82 112 -3 151 -9
288 -45 186 -49 287 -57 287 -22 0 4 -23 11 -51 15 -28 4 -123 27 -212 52
-148 41 -174 45 -297 49 -91 2 -155 -1 -195 -10z"/>
<path d="M8879 8977 c-73 -48 -87 -146 -30 -210 23 -25 37 -31 84 -35 45 -4
62 0 92 18 43 27 65 66 65 117 0 107 -122 170 -211 110z m126 -49 c38 -34 44
-87 12 -124 -54 -63 -157 -22 -157 62 0 74 88 111 145 62z"/>
<path d="M5635 8939 c-44 -4 -125 -17 -180 -29 -55 -12 -154 -33 -220 -47
-127 -28 -297 -36 -403 -20 -71 11 -67 -11 7 -36 82 -27 256 -24 401 8 63 14
156 34 205 45 335 73 562 47 970 -110 175 -67 238 -86 349 -106 95 -16 293
-18 385 -3 126 20 133 52 8 36 -39 -5 -135 -6 -212 -4 -164 7 -262 29 -455
105 -394 154 -577 189 -855 161z"/>
<path d="M1773 8391 c-65 -41 -73 -113 -19 -167 36 -36 71 -43 120 -24 33 12
66 66 66 107 0 77 -99 127 -167 84z m99 -61 c28 -28 29 -32 15 -53 -32 -49
-85 -54 -114 -11 -28 43 1 91 55 93 8 1 27 -13 44 -29z"/>
<path d="M3745 8323 c-400 -33 -784 -141 -1105 -311 -248 -131 -524 -338 -664
-498 -52 -59 -82 -84 -129 -106 -212 -100 -353 -286 -391 -517 l-11 -63 -106
-38 c-333 -119 -521 -256 -658 -482 -89 -147 -131 -298 -131 -471 1 -239 64
-375 202 -433 42 -17 48 -23 58 -64 17 -66 58 -135 107 -180 82 -77 135 -44
187 118 10 28 23 52 29 51 7 0 59 -6 116 -12 l103 -12 22 -55 c48 -125 100
-180 168 -180 36 0 47 6 83 43 23 24 51 69 65 103 12 32 28 64 34 71 7 7 47
13 102 14 50 1 113 5 140 9 27 4 51 6 53 4 2 -2 -8 -22 -22 -46 -37 -62 -144
-175 -239 -254 -46 -37 -113 -97 -150 -132 l-67 -64 -25 40 c-33 53 -74 84
-105 80 -36 -4 -87 -83 -101 -156 -11 -54 -15 -59 -53 -78 -142 -68 -136 -260
13 -404 111 -107 298 -185 515 -216 142 -19 421 -15 575 10 131 21 352 77 495
125 65 22 121 39 122 37 2 -2 -16 -39 -40 -82 -172 -311 -206 -712 -85 -976
86 -184 201 -226 288 -106 17 24 84 129 148 233 138 226 222 345 338 480 94
109 151 204 179 294 l17 59 76 -35 c484 -220 888 -323 1272 -323 l125 0 1 -88
c4 -235 131 -479 340 -652 120 -99 228 -152 288 -141 16 4 38 19 50 34 19 26
21 42 22 185 0 86 1 167 2 179 2 20 10 18 135 -42 238 -114 481 -181 633 -173
71 3 78 6 105 36 41 46 33 80 -52 224 -79 133 -98 174 -146 313 -32 94 -83
285 -83 313 0 7 13 12 33 12 42 0 195 45 276 81 66 30 81 30 81 0 0 -49 78
-207 158 -321 219 -311 683 -567 1035 -571 120 -1 167 27 167 98 0 30 -3 34
-113 179 -83 110 -131 200 -201 381 -60 154 -101 240 -140 293 -38 51 -147
159 -178 178 -16 9 -28 19 -28 23 0 4 47 32 105 63 133 71 269 154 367 222 74
53 77 54 83 32 16 -51 69 -165 112 -236 92 -157 245 -331 417 -475 137 -115
241 -184 379 -255 206 -107 303 -118 343 -41 22 44 14 95 -40 255 -106 314
-194 505 -382 830 -102 177 -200 374 -229 458 -68 205 -68 405 0 706 54 240
83 390 104 540 61 431 178 712 487 1171 182 271 237 369 279 493 33 99 33 145
-2 186 -26 31 -29 32 -89 28 -77 -5 -168 -49 -354 -173 -384 -256 -728 -605
-945 -959 -161 -263 -284 -562 -336 -816 -35 -169 -33 -436 4 -680 15 -96 30
-208 33 -249 l7 -74 -54 7 c-68 9 -196 69 -276 130 -85 64 -202 191 -267 289
-30 45 -93 154 -141 242 -232 425 -447 750 -659 995 -676 782 -1491 1215
-2430 1290 -119 9 -357 11 -451 3z m420 -84 c448 -38 865 -154 1246 -345 358
-179 596 -351 890 -644 351 -349 594 -680 859 -1170 198 -366 339 -549 515
-668 200 -135 455 -162 592 -63 54 39 83 89 89 153 l5 53 -22 -40 c-44 -82
-115 -132 -210 -149 l-36 -6 -7 97 c-4 54 -19 168 -33 253 -23 133 -27 184
-27 355 0 221 13 308 75 495 197 597 618 1133 1189 1515 144 97 293 175 333
175 40 0 43 -22 17 -104 -36 -115 -113 -254 -254 -459 -200 -290 -284 -434
-360 -619 -77 -186 -122 -356 -151 -573 -21 -156 -58 -346 -101 -520 -64 -260
-80 -469 -49 -651 34 -198 85 -311 329 -733 141 -244 205 -385 305 -669 34
-95 61 -189 61 -209 l0 -36 -44 5 c-56 7 -253 101 -365 175 -219 144 -453 371
-578 561 -57 87 -143 263 -143 293 0 9 30 47 66 85 115 120 172 224 197 357 8
43 8 60 -1 69 -9 9 -12 6 -12 -14 0 -40 -64 -158 -128 -234 -143 -170 -387
-348 -727 -529 l-102 -55 -81 37 c-56 26 -84 46 -92 63 -19 42 -92 150 -101
150 -16 0 -10 -33 16 -88 14 -30 25 -56 25 -58 0 -2 -15 -1 -32 2 l-33 5 35
-31 c19 -17 87 -57 151 -90 121 -62 246 -154 316 -234 51 -58 98 -147 163
-311 71 -178 149 -326 226 -426 101 -132 100 -129 83 -140 -21 -13 -118 -11
-206 6 -381 72 -781 353 -933 656 -46 91 -80 177 -80 202 0 27 -60 177 -71
177 -5 0 -9 -12 -9 -27 0 -26 -2 -25 -34 20 -42 59 -72 128 -95 220 -23 88
-36 71 -29 -37 6 -87 45 -181 104 -246 36 -40 37 -43 20 -56 -53 -38 -336
-131 -358 -117 -5 2 -8 13 -8 23 0 28 -53 167 -98 257 -135 268 -402 490 -723
604 l-117 41 -22 62 c-41 111 -110 236 -131 236 -15 0 -11 -14 37 -145 26 -69
45 -127 43 -130 -3 -2 -27 2 -54 10 -26 8 -51 13 -54 10 -21 -21 108 -98 268
-161 441 -171 690 -443 791 -864 79 -329 139 -495 251 -685 32 -56 60 -112 61
-126 3 -22 -1 -24 -43 -27 -114 -7 -384 71 -595 172 -365 176 -649 433 -832
752 -63 111 -170 343 -187 406 -16 57 -81 178 -97 178 -7 0 -9 -14 -5 -37 l6
-38 -45 50 c-99 111 -130 241 -97 409 6 28 5 30 -10 18 -9 -8 -26 -39 -38 -70
-17 -47 -20 -71 -16 -140 7 -118 53 -209 155 -312 71 -71 77 -81 108 -170 18
-52 48 -130 68 -174 39 -85 170 -311 186 -321 29 -18 -1 -25 -107 -25 -232 0
-518 39 -733 101 -144 41 -340 111 -340 122 0 4 9 6 20 2 30 -9 211 14 319 40
139 35 351 147 351 185 0 5 -55 -18 -122 -50 -209 -100 -304 -122 -525 -121
-140 0 -145 0 -260 40 -132 44 -383 152 -383 164 0 4 18 7 40 7 100 0 348 71
509 146 180 84 368 231 444 347 57 87 48 86 -47 -6 -124 -121 -202 -178 -331
-242 -116 -58 -329 -133 -455 -160 -92 -20 -302 -31 -350 -18 l-35 10 75 38
c309 156 594 358 742 527 209 239 319 533 320 854 0 296 -83 528 -241 671 -55
50 -55 39 0 -33 62 -82 91 -140 129 -252 36 -110 50 -210 50 -365 0 -259 -77
-509 -220 -722 -96 -143 -272 -306 -462 -429 -276 -179 -793 -399 -1156 -491
-218 -55 -340 -69 -587 -70 -220 0 -235 1 -340 28 -199 51 -342 139 -406 251
-32 56 -37 102 -14 145 20 39 43 46 69 22 62 -58 196 -89 396 -90 339 -4 731
113 1064 316 185 113 365 269 482 419 142 182 311 479 390 687 26 67 102 225
129 264 5 9 129 -33 174 -58 57 -32 69 -33 52 -1 -36 67 -162 132 -256 132
-96 0 -235 -72 -235 -121 0 -18 3 -18 49 6 51 27 121 44 121 29 0 -29 -74
-130 -145 -199 -192 -186 -456 -341 -761 -443 -397 -134 -653 -174 -1123 -174
-280 0 -343 4 -576 33 -263 33 -316 49 -377 117 -63 69 -89 180 -82 340 12
278 148 521 378 676 148 101 387 194 607 237 120 24 372 33 469 16 l45 -7 -25
20 c-52 42 -124 55 -300 55 -91 0 -188 -4 -217 -8 l-51 -9 18 73 c30 116 75
194 166 286 141 145 257 180 619 189 213 5 219 4 195 -13 -47 -34 -125 -111
-144 -144 -22 -37 -23 -38 97 43 102 69 205 119 297 144 94 25 315 26 389 1
109 -37 224 -131 280 -229 17 -29 32 -45 36 -39 11 18 -5 71 -40 139 -18 34
-28 62 -21 62 52 0 285 -52 371 -83 522 -187 941 -609 1090 -1097 l26 -85 -6
60 c-8 82 -39 202 -81 312 -141 368 -557 735 -1003 883 -136 46 -290 78 -404
87 -65 4 -93 11 -136 35 -109 60 -286 75 -459 36 -85 -18 -131 -21 -382 -23
-157 -1 -312 -5 -345 -10 l-59 -8 82 78 c364 345 822 573 1329 660 243 42 493
54 718 34z m-905 -2562 c0 -26 -32 -107 -42 -107 -16 0 -88 43 -88 52 0 4 6 8
13 9 6 0 32 13 57 29 52 33 60 35 60 17z m63 -196 c16 -1 13 -9 -19 -53 -80
-113 -266 -328 -283 -328 -3 0 -17 17 -31 37 -27 39 -74 73 -102 73 -10 0 -24
-11 -33 -23 -13 -20 -41 -133 -61 -244 -3 -14 -19 -30 -42 -42 l-37 -19 -43
39 c-62 54 -125 83 -166 75 -52 -10 -60 -28 -66 -139 l-5 -101 -60 -23 c-32
-13 -61 -23 -62 -23 -10 0 0 57 17 102 61 161 346 434 618 591 143 83 181 94
278 86 44 -4 87 -8 97 -8z m-2330 -132 c42 -6 77 -14 77 -17 0 -3 -16 -38 -35
-78 -51 -105 -77 -98 -140 38 -31 67 -32 82 -2 75 12 -3 57 -11 100 -18z
m1413 -4 c-21 -57 -81 -192 -87 -199 -17 -19 -169 139 -169 176 0 4 17 8 38 8
20 1 66 7 102 14 94 19 124 20 116 1z m-749 -59 c1 0 -9 -24 -23 -51 -29 -62
-56 -93 -90 -101 -34 -9 -74 31 -108 109 l-26 59 123 -7 c67 -4 123 -8 124 -9z
m1284 -175 c16 -16 29 -34 29 -39 0 -12 -100 -85 -107 -79 -7 8 30 147 39 147
5 0 23 -13 39 -29z m-373 -187 c20 -8 49 -27 65 -42 l27 -26 -80 -38 c-45 -21
-83 -38 -86 -38 -6 0 -5 126 2 144 8 20 25 20 72 0z m-395 -135 c43 -53 77
-99 77 -102 0 -4 -134 -38 -202 -52 -20 -4 -27 42 -16 120 7 60 45 152 57 139
4 -5 42 -52 84 -105z m-689 3 c26 -42 64 -102 86 -132 47 -66 42 -69 -77 -47
-129 25 -133 28 -133 89 1 75 46 188 70 173 4 -3 29 -40 54 -83z m395 -184 c0
-5 -49 -8 -110 -8 l-112 0 7 84 c10 131 5 130 116 24 54 -51 98 -96 99 -100z
m1523 -271 c53 -19 123 -47 155 -62 32 -16 86 -41 121 -56 34 -16 62 -32 62
-38 0 -24 -40 -135 -64 -175 -14 -24 -76 -104 -137 -178 -117 -140 -260 -349
-349 -508 -29 -52 -70 -121 -92 -152 -32 -49 -44 -58 -68 -58 -52 0 -113 104
-152 255 -18 69 -20 100 -15 235 5 175 30 289 94 440 34 78 123 244 142 263
16 16 176 77 191 73 8 -3 58 -20 112 -39z m2066 -564 c62 -86 258 -258 398
-348 l59 -38 0 -186 c0 -102 -4 -192 -8 -198 -13 -20 -34 -16 -106 22 -125 66
-275 214 -347 341 -68 122 -113 297 -100 388 7 46 8 46 46 46 31 0 43 -6 58
-27z"/>
<path d="M4065 8005 c-27 -8 -53 -14 -57 -15 -20 -1 -78 -65 -78 -86 0 -80
227 -198 453 -234 102 -17 236 -9 279 17 18 10 39 31 46 46 41 85 -103 208
-308 261 -92 24 -271 30 -335 11z m280 -56 c139 -22 286 -95 311 -156 24 -56
7 -67 -119 -71 -238 -9 -561 101 -545 185 10 53 163 71 353 42z"/>
<path d="M4832 7978 c-35 -17 -37 -50 -6 -108 56 -102 251 -238 418 -289 83
-26 119 -26 157 -4 98 58 -3 203 -231 331 -122 68 -275 100 -338 70z m150 -49
c171 -36 408 -207 408 -295 0 -27 -118 -13 -201 22 -82 36 -185 96 -224 132
-51 46 -105 115 -105 134 0 22 40 24 122 7z"/>
<path d="M4792 7539 c-103 -21 -77 -113 57 -203 118 -79 261 -124 356 -113 58
6 85 30 85 74 0 87 -224 222 -400 241 -36 4 -80 5 -98 1z m143 -54 c95 -24
218 -90 270 -146 25 -27 43 -54 40 -59 -17 -27 -200 6 -301 54 -99 47 -186
128 -169 156 9 15 93 12 160 -5z"/>
<path d="M5623 7535 c-64 -28 -48 -95 40 -170 88 -76 226 -115 287 -83 54 29
35 103 -46 177 -87 80 -202 111 -281 76z m177 -62 c59 -26 104 -63 125 -103
19 -38 9 -50 -43 -50 -82 0 -202 72 -238 142 -14 27 -14 29 8 38 31 12 82 3
148 -27z"/>
<path d="M5587 7212 c-24 -27 -21 -60 12 -117 58 -101 185 -187 279 -189 76
-2 87 41 33 134 -75 130 -269 233 -324 172z m141 -58 c69 -34 162 -143 162
-188 0 -58 -203 61 -245 143 -7 15 -16 36 -19 49 -6 19 -4 22 21 22 16 0 52
-12 81 -26z"/>
<path d="M2841 7185 c-140 -40 -241 -127 -312 -270 -52 -106 -69 -180 -69
-295 0 -295 173 -484 442 -482 95 1 143 14 233 60 219 115 325 377 255 631
-28 101 -60 159 -126 230 -81 88 -173 132 -286 137 -55 3 -101 -1 -137 -11z
m255 -100 c181 -88 282 -323 229 -530 -35 -135 -125 -255 -237 -316 -59 -32
-69 -34 -158 -34 -161 0 -258 45 -332 155 -169 252 -46 637 237 742 74 28 184
20 261 -17z"/>
<path d="M2925 6696 c-39 -17 -60 -41 -84 -96 -59 -138 -14 -280 89 -280 146
0 209 320 75 376 -41 17 -42 17 -80 0z"/>
<path d="M6127 7132 c-21 -23 -21 -63 -1 -133 37 -124 124 -258 241 -370 86
-82 134 -111 185 -113 33 -1 44 4 64 29 26 33 29 57 13 125 -36 156 -209 383
-343 450 -70 35 -134 40 -159 12z m131 -52 c103 -52 209 -175 292 -339 37 -74
51 -164 28 -174 -29 -11 -98 33 -183 114 -132 127 -215 265 -232 385 -5 39 -4
44 14 44 11 0 47 -14 81 -30z"/>
<path d="M8597 7092 c-103 -109 -191 -269 -256 -470 -52 -157 -65 -241 -64
-407 0 -151 17 -266 58 -400 41 -133 60 -145 38 -25 -66 371 -68 544 -7 763
51 183 170 431 262 545 51 64 33 60 -31 -6z"/>
<path d="M3616 6645 c-43 -15 -88 -45 -93 -62 -3 -7 15 -5 49 4 101 26 254 16
345 -22 61 -26 57 0 -6 40 -83 51 -213 69 -295 40z"/>
<path d="M1333 6261 c-94 -68 -185 -296 -143 -361 12 -20 14 -16 44 73 32 95
74 172 120 216 49 48 70 40 76 -29 l5 -55 19 28 c10 15 21 47 23 71 4 35 1 48
-16 65 -30 30 -79 27 -128 -8z"/>
<path d="M803 6180 c-19 -8 -43 -38 -43 -55 0 -3 8 -4 19 0 17 5 19 -3 23 -90
5 -98 17 -130 40 -107 14 14 24 196 14 237 -7 26 -17 29 -53 15z"/>
<path d="M8480 4650 c0 -27 80 -176 129 -240 72 -95 214 -228 320 -299 88 -59
147 -89 156 -79 3 3 -45 40 -107 84 -128 91 -255 207 -337 309 -58 72 -72 91
-128 184 -18 30 -33 49 -33 41z"/>
<path d="M5690 4131 c0 -26 60 -137 112 -206 94 -126 266 -282 400 -364 41
-24 98 -44 98 -33 -1 4 -48 43 -107 87 -213 161 -387 336 -469 472 -19 31 -34
51 -34 44z"/>
<path d="M7285 4117 c12 -57 47 -137 86 -198 71 -111 356 -376 378 -353 4 4
-30 38 -74 77 -183 162 -281 280 -362 436 -19 36 -32 53 -28 38z"/>
<path d="M3261 4165 c-126 -192 -253 -601 -226 -725 9 -40 25 -28 25 17 0 59
47 272 86 389 20 60 65 169 100 243 35 74 63 136 61 137 -2 2 -22 -26 -46 -61z"/>
<path d="M5557 3553 c11 -101 60 -211 126 -280 48 -51 52 -39 9 25 -53 78 -75
124 -103 212 -28 93 -38 106 -32 43z"/>
<path d="M5697 8314 c-16 -17 -4 -32 41 -52 228 -103 415 -131 812 -124 338 5
458 -15 751 -129 97 -37 203 -75 235 -84 71 -19 312 -31 334 -16 8 5 12 12 10
14 -3 3 -48 8 -100 12 -142 10 -256 38 -419 104 -339 137 -366 141 -836 151
-433 9 -491 16 -690 86 -55 19 -107 37 -115 40 -9 3 -19 2 -23 -2z"/>
<path d="M820 8303 c-36 -14 -72 -48 -91 -86 -30 -59 -24 -151 14 -201 67 -87
189 -98 273 -24 46 41 64 77 64 132 0 76 -37 138 -102 172 -26 14 -128 18
-158 7z m129 -61 c66 -36 90 -125 51 -190 -46 -75 -177 -70 -224 8 -20 35 -21
102 -2 139 29 56 113 76 175 43z"/>
<path d="M8184 8291 c-12 -5 -31 -22 -43 -38 -58 -72 38 -180 121 -137 34 18
61 73 52 108 -13 52 -82 87 -130 67z m68 -53 c26 -22 29 -47 8 -68 -24 -24
-57 -26 -82 -3 -22 20 -23 41 -1 65 19 21 52 23 75 6z"/>
<path d="M1352 7830 c-96 -59 -66 -212 44 -227 109 -14 188 93 138 188 -29 56
-121 76 -182 39z m123 -55 c34 -33 33 -77 -1 -104 -55 -43 -134 -12 -134 53 0
69 85 102 135 51z"/>
<path d="M7079 7507 c-62 -42 -76 -108 -36 -168 48 -71 127 -77 184 -15 97
106 -30 263 -148 183z m111 -47 c29 -29 35 -66 16 -96 -20 -29 -60 -47 -87
-39 -54 18 -79 110 -37 139 31 22 84 20 108 -4z"/>
<path d="M869 7311 c-39 -39 -40 -96 -3 -140 22 -26 33 -31 71 -31 63 0 103
40 103 103 0 62 -35 97 -97 97 -36 0 -50 -6 -74 -29z m111 -31 c11 -11 20 -29
20 -40 0 -28 -35 -60 -64 -60 -50 0 -74 76 -34 104 30 21 54 20 78 -4z"/>
<path d="M7446 6769 c-20 -15 -26 -29 -26 -58 0 -71 57 -108 118 -77 52 27 57
82 13 127 -35 34 -68 37 -105 8z m89 -69 c0 -30 -29 -49 -52 -34 -26 16 -30
71 -6 77 27 6 58 -17 58 -43z"/>
<path d="M9595 6569 c-98 -72 -227 -137 -304 -152 -58 -12 -77 -31 -31 -33 91
-2 265 75 356 159 52 48 83 88 67 86 -4 0 -44 -27 -88 -60z"/>
<path d="M9473 5500 c-99 -22 -145 -130 -90 -211 28 -41 60 -59 110 -59 50 0
90 22 116 63 63 102 -23 231 -136 207z m67 -60 c22 -12 44 -72 35 -100 -10
-30 -54 -60 -90 -60 -43 0 -77 37 -77 85 0 67 71 108 132 75z"/>
<path d="M590 3896 c-62 -8 -86 -15 -88 -26 -2 -14 26 -16 240 -16 235 1 246
0 341 -27 54 -15 197 -70 319 -122 296 -128 378 -149 569 -148 133 1 269 28
269 53 0 4 -93 6 -207 6 -186 -1 -217 1 -289 21 -104 29 -186 60 -367 140 -81
35 -200 78 -265 95 -104 28 -134 31 -277 33 -88 1 -198 -3 -245 -9z"/>
<path d="M3900 3315 c-70 -12 -140 -39 -140 -53 0 -19 14 -20 63 -4 71 22 206
21 282 -2 33 -10 148 -57 255 -103 258 -113 347 -136 505 -131 107 4 178 19
162 35 -3 3 -65 6 -139 8 -166 3 -247 24 -478 125 -249 109 -283 120 -420 134
-14 2 -54 -2 -90 -9z"/>
<path d="M1161 3238 c-101 -54 -107 -182 -12 -245 41 -28 85 -29 131 -4 76 40
101 126 59 200 -25 44 -42 56 -94 65 -32 5 -50 2 -84 -16z m100 -43 c51 -27
65 -96 27 -140 -55 -62 -158 -27 -158 54 0 41 22 78 54 91 31 13 44 12 77 -5z"/>
<path d="M8874 2804 c-45 -7 -135 -29 -200 -49 -65 -19 -173 -51 -239 -70
-316 -93 -537 -100 -755 -24 -66 23 -70 23 -70 3 0 -18 81 -56 168 -79 33 -8
107 -18 164 -21 167 -11 331 19 598 106 192 63 320 90 456 97 154 7 211 -3
434 -78 151 -50 188 -60 236 -57 68 4 84 24 27 33 -46 7 -200 52 -303 90 -175
63 -338 79 -516 49z"/>
<path d="M6985 2799 c-17 -5 -46 -24 -65 -44 -30 -31 -35 -43 -38 -98 -3 -52
0 -67 20 -97 45 -67 125 -87 198 -50 48 24 77 65 86 118 18 114 -86 202 -201
171z m103 -65 c51 -33 57 -120 13 -165 -83 -83 -218 20 -167 128 27 57 97 74
154 37z"/>
<path d="M1880 2743 c-99 -15 -244 -56 -420 -118 -267 -95 -367 -117 -540
-121 -145 -4 -218 7 -341 50 -37 13 -70 21 -74 18 -16 -16 3 -33 69 -61 109
-45 236 -65 376 -57 143 7 253 32 439 97 377 132 479 155 646 146 55 -3 135
-15 179 -26 76 -20 116 -37 372 -155 227 -104 361 -131 599 -123 175 6 229 16
463 83 207 59 315 78 442 77 178 0 306 -36 653 -182 352 -148 467 -176 722
-175 170 0 191 3 380 42 215 44 361 64 439 60 30 -2 50 1 53 9 6 16 -21 22
-108 28 -89 5 -184 -6 -384 -45 -445 -87 -614 -61 -1190 185 -203 86 -404 135
-560 135 -114 0 -228 -21 -450 -85 -254 -72 -369 -89 -555 -82 -209 8 -272 26
-550 158 -181 85 -247 109 -362 133 -70 15 -232 20 -298 9z"/>
<path d="M8809 2341 c-48 -15 -69 -32 -89 -71 -54 -106 8 -220 120 -220 163 0
223 206 80 278 -46 23 -68 26 -111 13z m69 -52 c64 -22 84 -112 38 -166 -20
-23 -32 -28 -70 -28 -36 0 -51 6 -73 28 -53 52 -28 157 41 170 11 2 24 5 27 6
3 0 20 -4 37 -10z"/>
<path d="M7658 2145 c-114 -22 -250 -68 -475 -162 -371 -153 -543 -174 -852
-102 -58 13 -88 16 -95 9 -16 -16 3 -27 98 -54 258 -75 481 -55 786 71 445
184 491 196 705 197 129 1 170 -3 292 -28 79 -16 146 -26 150 -22 19 19 -61
50 -207 82 -98 22 -310 27 -402 9z"/>
<path d="M1772 2120 c-42 -26 -76 -99 -69 -146 14 -86 68 -134 149 -134 120 0
196 108 150 214 -27 60 -69 86 -142 86 -38 0 -65 -6 -88 -20z m169 -74 c55
-89 -19 -188 -117 -156 -46 15 -74 54 -74 101 0 100 139 141 191 55z"/>
<path d="M3840 1819 c-128 -51 -104 -241 32 -256 75 -8 151 61 150 136 -1 53
-30 94 -82 115 -46 18 -64 19 -100 5z m108 -76 c32 -35 29 -76 -9 -107 -39
-33 -78 -33 -113 -1 -46 42 -28 116 34 138 26 9 64 -4 88 -30z"/>
<path d="M1302 1595 c-36 -30 -47 -66 -32 -111 30 -90 151 -99 195 -14 24 46
19 78 -19 116 -44 44 -99 47 -144 9z m110 -42 c33 -29 21 -75 -23 -92 -35 -13
-70 6 -80 42 -14 54 59 90 103 50z"/>
<path d="M4658 1590 c-111 -20 -248 -83 -226 -105 3 -3 47 7 97 24 207 69 375
50 696 -79 387 -156 598 -196 894 -172 220 18 386 51 378 75 -5 14 -39 12
-187 -9 -357 -52 -676 -6 -1035 148 -101 43 -198 77 -290 99 -90 23 -256 32
-327 19z"/>
<path d="M8800 1489 c-67 -8 -101 -17 -310 -79 -216 -65 -277 -75 -460 -74
-131 0 -186 5 -267 22 -122 27 -135 27 -131 6 6 -31 246 -84 376 -84 163 0
268 19 524 95 240 72 376 88 534 63 31 -5 150 -40 265 -79 190 -64 218 -70
297 -72 51 -1 88 2 90 8 2 10 -10 14 -118 34 -36 7 -157 44 -270 82 -262 88
-351 101 -530 78z"/>
<path d="M2310 1365 c-8 -2 -49 -9 -90 -15 -87 -14 -292 -78 -388 -122 -118
-53 -305 -126 -377 -147 -183 -53 -361 -61 -502 -21 -87 24 -93 24 -93 5 0
-19 53 -41 160 -67 68 -16 103 -19 175 -14 181 12 263 35 580 161 347 138 435
161 623 164 204 4 321 -29 826 -233 355 -144 537 -149 1031 -31 83 20 147 28
261 32 178 7 255 -6 427 -69 293 -106 395 -138 462 -144 57 -5 73 -3 84 9 11
14 9 17 -11 20 -116 22 -237 58 -380 112 -409 158 -542 167 -973 68 -246 -56
-396 -66 -560 -37 -108 19 -192 46 -400 132 -393 161 -497 190 -705 197 -74 2
-142 2 -150 0z"/>
<path d="M7194 1131 c-115 -70 -15 -238 105 -176 16 8 36 30 45 50 23 47 7 98
-38 126 -39 24 -73 24 -112 0z m94 -47 c30 -21 28 -58 -4 -83 -33 -26 -56 -27
-79 -1 -53 58 17 130 83 84z"/>
</g>
</svg>
