<?xml version="1.0" standalone="no"?>
<!DOCTYPE svg PUBLIC "-//W3C//DTD SVG 20010904//EN"
 "http://www.w3.org/TR/2001/REC-SVG-20010904/DTD/svg10.dtd">
<svg version="1.0" xmlns="http://www.w3.org/2000/svg"
 width="1024.000000pt" height="1024.000000pt" viewBox="0 0 1024.000000 1024.000000"
 preserveAspectRatio="xMidYMid meet">
<metadata>
Created by potrace 1.16, written by Peter Selinger 2001-2019
</metadata>
<g transform="translate(0.000000,1024.000000) scale(0.100000,-0.100000)"
fill="#000000" stroke="none">
<path d="M3787 9880 c-172 -20 -370 -92 -501 -182 l-61 -43 -1220 -5 c-1220
-5 -1220 -5 -1266 -26 -105 -49 -170 -142 -189 -271 -13 -95 -14 -8511 0
-8583 23 -123 88 -211 189 -259 l56 -26 4355 0 4355 0 46 22 c85 39 155 119
180 205 6 21 9 1597 9 4334 0 3761 -2 4308 -15 4357 -33 128 -128 217 -261
245 -36 8 -791 9 -2575 5 l-2524 -6 -19 37 c-41 77 -147 151 -261 181 -74 19
-203 25 -298 15z m263 -101 c107 -25 196 -90 236 -174 65 -138 -6 -323 -239
-625 -36 -46 -65 -85 -64 -87 1 -1 41 18 89 42 110 55 216 80 314 72 82 -6
176 -42 193 -75 21 -39 -36 -85 -164 -133 -59 -22 -69 -36 -32 -43 152 -31
207 -55 255 -111 59 -67 45 -69 -86 -16 -140 56 -251 89 -355 106 -141 23
-349 18 -460 -10 l-29 -8 42 54 c77 101 237 479 202 479 -10 0 -10 0 -97 -191
-104 -227 -158 -295 -375 -478 -243 -205 -323 -261 -370 -261 -25 0 -99 111
-137 203 -62 151 -82 373 -49 525 92 421 514 736 991 741 50 0 110 -4 135 -10z
m-992 -267 c-106 -115 -182 -255 -220 -409 -24 -96 -31 -297 -15 -423 l9 -65
-79 -57 c-64 -47 -85 -58 -118 -58 -66 -1 -123 -33 -145 -82 -22 -49 -26 -104
-7 -111 6 -2 35 4 62 14 28 11 51 19 53 19 1 0 2 -13 2 -30 0 -25 -9 -36 -59
-69 -119 -81 -192 -192 -232 -351 -26 -102 -22 -232 9 -321 l20 -56 -84 -32
c-265 -101 -485 -349 -565 -636 -27 -99 -37 -329 -19 -432 43 -248 156 -429
334 -535 73 -45 154 -61 194 -39 12 6 55 62 96 124 41 61 97 134 125 162 l52
50 32 -19 c165 -99 239 -119 437 -119 165 -1 257 17 413 79 49 20 92 33 95 29
4 -3 7 -32 6 -63 0 -78 -27 -133 -176 -353 -137 -203 -195 -305 -258 -452
-121 -284 -139 -583 -43 -697 18 -22 33 -30 57 -30 l33 0 6 -77 c6 -90 39
-185 91 -267 39 -60 66 -82 113 -92 26 -5 37 -1 58 20 28 28 35 31 35 17 0 -5
18 -41 41 -80 29 -50 42 -86 46 -126 3 -30 3 -55 -1 -55 -3 0 -63 36 -134 81
-240 152 -428 229 -562 229 -125 0 -300 -68 -422 -165 -147 -115 -237 -304
-238 -496 0 -157 70 -289 154 -289 21 0 46 4 56 10 13 7 29 5 53 -5 19 -8 37
-11 41 -8 3 4 6 2 6 -3 0 -15 -58 -189 -63 -189 -2 0 -22 23 -44 50 -234 296
-549 336 -799 103 -147 -137 -241 -341 -275 -596 -15 -111 -6 -372 15 -471 9
-41 15 -75 13 -77 -1 -1 -34 17 -72 42 -68 44 -146 74 -192 74 -30 0 -56 -40
-55 -88 2 -84 63 -194 176 -311 39 -41 62 -71 51 -67 -11 4 -63 10 -115 13
-114 7 -191 -11 -239 -56 -42 -39 -41 -71 6 -111 47 -42 119 -75 218 -100 83
-21 235 -28 235 -10 0 6 -8 10 -19 10 -10 0 -65 12 -122 26 -156 39 -294 111
-275 143 3 5 29 17 58 27 98 32 272 6 449 -67 83 -34 79 -33 79 -16 0 6 -37
41 -82 77 -222 175 -358 343 -358 441 0 19 4 21 36 16 41 -7 160 -78 225 -136
25 -22 61 -68 79 -103 136 -257 334 -441 531 -493 30 -8 90 -15 135 -15 l81 0
44 -62 c24 -35 75 -96 114 -137 38 -41 61 -71 50 -67 -53 22 -178 58 -269 78
-234 51 -595 11 -714 -79 -18 -14 -31 -27 -29 -29 3 -3 49 6 103 20 357 90
695 48 1146 -142 201 -85 302 -107 461 -100 112 5 138 12 327 83 135 51 575
46 855 -9 66 -13 122 -22 124 -20 2 2 -20 15 -51 28 -63 28 -228 69 -342 86
-88 13 -371 16 -437 5 l-43 -7 42 50 c60 71 106 151 127 219 10 32 19 60 21
62 2 2 33 -13 69 -33 73 -41 166 -76 202 -76 39 0 26 -17 -28 -36 -51 -19 -85
-44 -58 -44 8 0 95 20 194 45 246 61 367 75 653 76 217 1 234 2 204 15 -47 21
-207 43 -334 46 -59 2 -108 5 -107 8 0 3 32 28 71 55 137 97 273 270 348 444
l38 86 98 67 c121 81 225 135 281 144 36 5 43 3 53 -15 29 -56 -102 -205 -378
-431 -83 -68 -152 -130 -152 -137 0 -9 14 -7 53 8 192 78 317 108 445 109 39
0 72 4 72 8 0 4 -13 16 -30 25 -39 23 -143 32 -209 18 -30 -6 -55 -10 -57 -8
-2 1 23 22 54 47 112 87 310 159 647 235 341 77 444 110 465 150 19 35 126 50
303 42 148 -7 160 0 51 28 -63 16 -221 19 -292 6 -36 -7 -45 -6 -50 8 -3 9
-25 46 -49 83 -45 70 -129 236 -122 242 2 2 82 -14 178 -35 l174 -39 86 -65
c110 -83 288 -174 419 -216 l103 -32 -38 -39 c-24 -25 -82 -61 -158 -98 -211
-104 -312 -126 -605 -135 -279 -8 -423 -36 -570 -110 -144 -73 -265 -193 -330
-331 -59 -123 -73 -200 -45 -253 29 -57 60 -55 250 19 122 48 291 99 325 100
3 0 -11 -35 -32 -77 -66 -137 -90 -311 -48 -353 41 -41 110 -22 423 115 60 26
110 45 113 42 2 -2 -1 -28 -7 -57 -6 -29 -9 -78 -7 -108 6 -65 30 -92 84 -92
42 0 155 40 266 96 176 87 270 160 403 315 218 253 220 255 319 303 144 71
411 138 679 171 30 4 45 10 41 17 -9 15 -220 4 -339 -17 -91 -16 -198 -42
-290 -70 -49 -15 -50 -15 -30 3 11 11 81 76 156 145 169 157 201 207 207 336
l5 84 107 -6 c144 -8 155 -13 152 -65 -6 -73 14 -53 58 59 78 200 190 371 329
501 92 86 174 138 230 145 35 5 41 3 42 -13 5 -85 -68 -210 -276 -469 -141
-177 -201 -262 -191 -272 3 -4 28 14 54 39 199 190 401 319 568 362 71 18 170
21 179 5 16 -25 -82 -123 -220 -218 -38 -27 -128 -81 -200 -121 -125 -69 -170
-100 -150 -100 6 -1 100 -2 210 -4 225 -4 348 -21 572 -82 73 -20 138 -34 145
-32 25 9 -70 58 -187 96 -141 47 -269 71 -415 80 l-105 7 75 42 c149 82 303
213 335 284 23 49 14 84 -28 109 -80 49 -231 13 -490 -118 -4 -2 20 34 53 80
89 125 131 213 137 290 5 57 3 68 -16 87 -49 49 -178 8 -318 -103 -146 -114
-304 -338 -358 -506 -10 -30 -18 -56 -19 -57 -1 -1 -20 3 -42 9 -21 6 -86 13
-144 17 l-105 6 -18 40 c-11 22 -39 72 -63 112 -44 71 -104 193 -104 212 0 5
17 15 38 21 288 92 565 449 647 835 8 39 15 80 15 92 0 15 13 31 38 47 20 13
100 70 177 128 493 368 798 714 813 919 8 110 -53 126 -200 51 l-77 -40 27 32
c326 384 453 604 512 895 66 325 -40 382 -245 131 -16 -19 -25 -26 -20 -15
110 272 163 550 145 756 -19 221 -104 332 -198 262 -26 -19 -79 -109 -97 -163
l-8 -25 -4 30 c-63 495 -444 981 -869 1111 -84 25 -251 25 -324 0 -145 -50
-212 -134 -211 -266 0 -88 15 -128 134 -365 110 -220 150 -309 238 -524 58
-141 72 -196 28 -109 -34 68 -147 228 -198 281 -61 64 -101 88 -152 90 -49 2
-72 -21 -90 -86 -29 -106 7 -239 137 -519 140 -301 211 -495 256 -698 19 -88
22 -134 22 -285 0 -168 -2 -185 -27 -260 -14 -44 -42 -107 -62 -140 -34 -58
-105 -135 -123 -135 -5 0 -32 31 -59 68 -236 323 -626 663 -932 813 -50 24
-91 47 -91 50 0 4 14 9 30 13 46 9 83 51 75 84 -10 40 -32 60 -105 97 -132 66
-319 111 -516 123 l-109 7 32 19 c47 29 61 61 42 94 -28 51 -57 57 -254 57
-149 -1 -199 -5 -290 -24 -304 -64 -552 -181 -837 -394 -235 -175 -351 -247
-401 -247 -16 0 -18 5 -12 33 26 129 92 268 288 609 208 361 301 556 375 788
163 512 100 1058 -164 1426 -88 122 -154 194 -218 236 -57 37 -58 38 -28 38
36 0 57 28 48 64 -9 36 -83 113 -147 152 l-59 37 28 17 c72 44 95 130 52 190
-56 78 -281 123 -420 84 -23 -7 -23 -5 13 42 105 137 162 282 155 390 l-4 64
2546 -2 2545 -3 40 -22 c53 -28 100 -78 121 -128 15 -37 17 -330 15 -4325 -1
-3018 -4 -4301 -12 -4338 -14 -69 -61 -130 -124 -162 l-50 -25 -4310 0 c-3728
0 -4317 2 -4360 14 -66 20 -145 97 -168 165 -16 46 -17 349 -17 4290 0 2705 4
4263 10 4300 20 124 82 203 175 225 23 5 509 9 1174 10 l1133 1 -54 -58z
m1075 -847 c321 -48 607 -232 787 -505 170 -259 242 -624 195 -984 -42 -321
-164 -625 -446 -1116 -237 -414 -284 -526 -284 -680 0 -86 3 -102 32 -162 47
-101 130 -173 231 -203 36 -11 25 12 -22 44 -75 52 -145 159 -146 224 0 22 4
27 25 27 45 0 188 84 360 212 341 252 569 364 889 434 125 28 374 43 416 26
23 -9 20 -13 -60 -50 -47 -22 -139 -59 -205 -82 -66 -23 -131 -49 -145 -57
-24 -13 -22 -14 25 -9 28 3 91 10 140 17 116 15 442 6 554 -15 165 -31 375
-106 354 -127 -20 -20 -147 -29 -328 -24 -131 3 -169 2 -140 -5 332 -83 569
-200 840 -417 139 -110 434 -405 545 -543 167 -209 319 -463 396 -662 20 -54
40 -95 44 -93 9 5 -2 78 -25 165 -34 131 -122 334 -187 428 l-30 43 46 40
c173 152 249 447 201 774 -38 260 -96 432 -270 810 -48 105 -102 236 -121 291
-37 111 -45 200 -19 210 41 16 177 -120 287 -286 82 -125 222 -403 275 -550
46 -128 55 -105 23 63 -73 385 -187 705 -425 1192 -105 216 -115 241 -115 302
0 54 18 90 65 131 99 88 293 80 487 -18 145 -74 335 -253 448 -421 237 -355
286 -661 175 -1100 -26 -103 -88 -286 -112 -332 -25 -50 -7 -40 28 15 66 102
107 211 200 533 84 290 113 368 150 409 l29 31 20 -23 c36 -43 45 -98 45 -277
-1 -150 -4 -184 -29 -290 -60 -257 -209 -594 -385 -873 -50 -79 -91 -146 -91
-149 0 -24 116 118 244 300 129 182 197 266 294 360 108 104 133 101 112 -15
-42 -228 -172 -498 -384 -797 -100 -140 -192 -246 -325 -373 -64 -62 -95 -98
-84 -98 10 0 86 37 168 81 197 107 305 159 327 159 46 0 8 -93 -92 -230 -157
-214 -624 -624 -866 -761 l-51 -29 -7 -63 c-19 -174 -119 -418 -235 -573 -116
-156 -290 -290 -386 -297 l-29 -2 -42 185 c-66 295 -144 503 -248 659 -37 54
-104 132 -84 96 25 -45 124 -294 156 -395 50 -155 71 -237 116 -463 43 -213
76 -306 151 -432 144 -240 133 -323 -63 -502 -154 -140 -445 -434 -527 -532
l-70 -83 -5 39 c-13 88 -85 167 -165 180 l-36 6 71 38 c87 48 170 101 170 110
0 23 -331 -130 -404 -185 -25 -20 -47 -36 -49 -36 -1 0 -1 17 1 39 7 71 -45
144 -128 179 l-44 19 152 42 c156 43 255 80 216 81 -51 0 -444 -90 -486 -112
-16 -8 -18 -3 -18 36 0 48 -29 94 -81 125 -25 15 -19 16 123 18 81 1 188 9
236 17 151 26 367 111 479 187 30 21 53 29 85 29 60 0 159 -25 218 -55 59 -30
69 -31 46 -6 -30 33 -128 70 -205 77 -71 7 -71 7 -51 26 11 10 27 32 35 48
l16 30 114 0 c105 0 140 8 100 24 -9 3 -77 20 -153 37 -348 79 -541 174 -739
362 -102 98 -164 177 -240 308 -49 83 -50 86 -35 114 11 22 13 49 9 111 l-5
82 32 -19 c46 -28 117 -26 155 6 41 36 55 83 48 174 -4 61 -33 176 -64 256 -2
7 9 15 26 18 112 23 60 296 -106 555 l-33 53 37 72 c96 183 263 286 460 287
134 0 328 -52 488 -133 221 -110 386 -250 594 -504 111 -136 131 -135 56 2
-83 150 -254 340 -414 460 -325 245 -765 325 -1024 188 -72 -38 -175 -145
-216 -223 -19 -36 -35 -67 -37 -69 -1 -2 -18 14 -36 35 -141 165 -297 293
-453 370 -52 26 -97 45 -100 42 -3 -3 41 -40 97 -83 113 -86 310 -278 404
-395 120 -148 199 -290 244 -436 22 -73 24 -145 4 -151 -6 -2 -39 34 -73 81
-55 76 -193 216 -213 216 -5 0 15 -37 44 -82 71 -114 170 -317 203 -413 35
-107 44 -205 21 -240 -14 -22 -23 -26 -44 -20 -45 10 -123 68 -228 166 -92 88
-159 144 -194 164 -8 5 9 -21 38 -58 72 -92 135 -192 177 -279 28 -58 35 -84
35 -134 0 -49 -4 -65 -21 -80 -69 -62 -255 40 -521 284 -16 14 -28 21 -28 15
0 -25 91 -145 178 -235 72 -74 93 -102 90 -120 -2 -19 -10 -23 -46 -26 -111
-8 -287 87 -519 280 -95 79 -216 168 -228 168 -4 0 -5 -7 -1 -15 4 -12 0 -14
-17 -10 -34 9 -130 -59 -220 -156 -44 -46 -122 -149 -175 -229 -54 -81 -109
-151 -124 -159 -41 -23 -78 -6 -106 49 -21 40 -23 55 -19 140 8 166 62 284
190 417 66 69 61 80 -14 32 -118 -76 -202 -204 -244 -374 -38 -156 -71 -203
-122 -175 -69 39 -102 189 -68 306 67 236 361 478 730 603 179 60 423 101 604
101 52 0 92 3 88 6 -12 13 -156 45 -227 51 -86 7 -151 32 -249 98 -207 137
-283 328 -211 532 11 31 31 74 45 95 32 49 17 49 -25 1 -121 -137 -133 -361
-29 -524 34 -54 125 -143 187 -184 l44 -29 -129 -31 c-272 -67 -499 -184 -680
-350 l-63 -57 -107 62 c-146 84 -250 159 -354 258 -200 190 -302 375 -343 628
-9 54 -19 110 -23 124 l-6 25 -9 -30 c-4 -16 -8 -102 -6 -190 2 -153 -6 -205
-31 -205 -26 0 -85 113 -107 207 -22 93 -14 319 16 461 12 56 20 108 18 114
-3 7 -28 -46 -57 -118 -63 -153 -102 -234 -111 -234 -37 0 -47 219 -16 355 36
160 118 349 239 550 77 129 120 188 357 486 107 135 206 260 220 278 25 31 26
32 145 42 383 32 603 119 774 306 156 170 214 435 139 638 -30 80 -34 67 -34
-113 1 -162 -1 -183 -24 -252 -46 -141 -158 -275 -301 -362 -121 -74 -324
-142 -459 -154 l-65 -6 51 31 c128 75 167 198 104 324 -51 101 -148 162 -326
203 -276 65 -368 113 -501 262 -134 150 -263 279 -297 297 l-33 18 23 73 c100
314 -55 655 -310 681 -54 6 -56 7 -56 34 0 53 59 38 203 -48 35 -21 62 -32 68
-26 20 20 -75 155 -142 202 -21 14 -38 29 -39 33 0 8 89 62 94 57 2 -2 26 -49
54 -104 27 -56 69 -125 92 -154 l42 -53 63 4 c83 5 143 42 288 178 208 195
229 208 398 244 138 29 207 31 342 11z m-1351 -467 c137 -41 239 -263 209
-454 -14 -90 -27 -135 -46 -159 -14 -19 -15 -18 -8 10 14 57 8 148 -12 189
-41 84 -139 101 -201 33 -56 -60 -72 -186 -35 -260 12 -23 15 -39 9 -43 -5 -4
-52 -1 -104 6 -52 7 -110 10 -130 7 -34 -6 -36 -5 -57 41 -30 66 -37 254 -12
338 50 173 180 303 304 304 24 0 61 -5 83 -12z m243 -747 c70 -32 140 -96 239
-219 181 -226 252 -270 551 -341 113 -28 181 -58 235 -107 100 -90 104 -204
12 -268 -21 -14 -154 -72 -297 -130 -143 -57 -321 -129 -395 -160 -74 -31
-171 -65 -215 -77 -110 -28 -278 -36 -373 -15 -82 17 -183 59 -208 87 -15 17
-14 20 32 49 114 74 583 276 834 360 230 77 355 78 500 5 27 -14 52 -25 55
-25 16 0 -34 65 -70 91 -125 92 -300 76 -659 -61 -667 -254 -873 -379 -1045
-634 -28 -41 -56 -78 -62 -81 -6 -4 -44 9 -84 29 -101 50 -179 130 -233 238
-67 133 -85 216 -85 393 0 134 2 159 26 238 51 166 128 290 255 408 109 102
227 164 371 194 127 26 221 13 356 -49 92 -43 135 -73 260 -181 110 -96 172
-141 181 -132 20 20 -209 255 -321 330 -36 25 -62 48 -56 51 14 9 89 24 126
25 17 0 48 -8 70 -18z m-167 -3346 c90 -21 182 -66 387 -190 145 -88 188 -109
220 -109 35 -1 42 3 58 34 l19 35 92 -93 c87 -90 237 -212 258 -212 7 0 9 -23
6 -64 -12 -142 -118 -246 -252 -246 -41 0 -43 2 -101 82 -155 211 -343 343
-519 364 -31 4 -56 12 -56 18 0 6 14 35 30 65 38 69 38 82 -1 45 -41 -38 -100
-130 -180 -277 -62 -116 -113 -177 -147 -177 -53 0 -85 64 -85 170 0 127 63
273 165 385 64 70 59 82 -14 36 -161 -102 -247 -322 -214 -547 7 -48 6 -52
-20 -69 -15 -10 -47 -20 -70 -23 -36 -4 -44 -1 -58 21 -9 13 -22 65 -28 114
-18 151 21 284 123 419 53 71 45 83 -22 32 -114 -88 -188 -291 -176 -490 5
-92 -3 -107 -35 -70 -75 85 -73 262 4 420 50 101 168 217 278 271 82 40 182
69 245 70 17 0 58 -6 93 -14z m231 -505 c99 -33 181 -88 281 -189 132 -132
248 -316 291 -459 11 -38 10 -44 -8 -65 -37 -41 -120 -171 -162 -255 -49 -97
-95 -230 -112 -324 l-12 -66 -74 79 c-168 177 -394 325 -570 369 -81 21 -219
26 -285 11 l-38 -9 0 67 c0 202 73 464 148 535 28 26 34 28 57 18 76 -35 157
8 233 123 28 42 60 101 72 131 l22 54 49 0 c28 0 76 -9 108 -20z m950 -115
l60 -36 -34 -54 c-20 -30 -47 -90 -61 -133 -25 -77 -28 -81 -88 -120 -33 -23
-87 -66 -119 -97 -33 -30 -60 -55 -62 -55 -1 0 -10 21 -20 48 -10 26 -28 68
-41 93 l-23 46 46 7 c108 15 214 106 252 218 12 34 21 75 21 90 0 15 2 28 4
28 3 0 32 -16 65 -35z m-2078 -231 c100 -31 192 -108 299 -248 l69 -91 -10
-95 c-5 -52 -7 -108 -4 -125 5 -28 1 -32 -53 -60 -72 -37 -176 -141 -225 -225
-86 -149 -129 -374 -107 -562 15 -127 41 -230 85 -331 l34 -80 -74 6 c-144 13
-263 75 -383 201 -123 130 -209 294 -255 490 -19 78 -21 121 -21 301 0 197 2
216 27 310 107 389 353 592 618 509z m3151 -389 c32 -22 58 -42 58 -45 0 -3
-42 -6 -93 -6 -56 -1 -109 -8 -135 -18 -33 -12 -44 -12 -47 -3 -41 117 -71
191 -100 244 l-35 64 22 28 23 27 125 -126 c69 -69 151 -143 182 -165z m-1122
195 c0 -43 34 -136 65 -176 49 -64 104 -78 169 -43 21 11 39 19 40 17 74 -124
136 -154 225 -108 42 21 71 54 151 175 29 44 56 84 61 89 21 23 114 -219 140
-364 20 -110 17 -393 -5 -504 -71 -363 -260 -644 -518 -770 -110 -54 -183 -69
-307 -64 -126 6 -211 31 -303 92 l-63 41 -7 94 c-13 193 -49 317 -141 494
l-61 118 18 105 c41 247 151 468 324 655 67 72 189 179 204 179 4 0 8 -14 8
-30z m1202 -321 c111 -24 237 -111 328 -228 l60 -76 -40 -18 c-22 -10 -111
-34 -197 -53 -87 -19 -211 -48 -275 -65 -64 -16 -120 -29 -124 -29 -4 0 -4 36
-1 79 5 78 -5 252 -18 325 -7 33 -5 37 21 47 75 28 165 35 246 18z m-2484
-135 c144 -42 343 -169 484 -308 146 -145 259 -329 324 -526 25 -77 28 -99 28
-235 1 -128 -2 -160 -21 -220 -27 -84 -85 -178 -149 -239 -58 -56 -180 -121
-265 -141 -161 -38 -368 -6 -544 83 -247 124 -464 422 -531 727 -25 117 -23
333 5 440 63 237 201 384 406 431 71 16 182 11 263 -12z m3373 -835 c47 -16
78 -46 100 -97 11 -24 19 -45 19 -46 0 -2 -30 -18 -67 -37 -38 -19 -99 -64
-142 -105 -62 -58 -83 -72 -117 -76 l-42 -6 -4 72 c-6 87 -33 151 -87 205
l-41 41 30 15 c93 48 260 64 351 34z m-367 -142 c43 -44 72 -111 82 -187 l6
-46 -78 -18 c-82 -19 -190 -57 -284 -99 -30 -13 -66 -28 -79 -32 -24 -7 -24
-7 -17 41 16 120 149 314 249 363 59 30 75 27 121 -22z m679 -71 c18 -7 45
-28 61 -45 25 -25 30 -42 34 -92 4 -56 2 -63 -25 -92 -17 -18 -49 -60 -71 -93
-33 -50 -50 -65 -84 -77 -24 -8 -51 -18 -60 -22 -16 -6 -18 -1 -18 42 0 35 -9
67 -30 109 -34 68 -60 96 -115 123 l-38 18 54 43 c111 88 215 119 292 86z
m405 -160 c38 -20 68 -54 91 -106 30 -65 27 -80 -26 -131 -55 -52 -137 -119
-147 -119 -3 0 -6 12 -6 27 0 67 -94 184 -161 198 -16 4 -29 10 -29 14 0 15
100 102 133 116 42 18 111 19 145 1z m-704 -47 c35 -28 74 -96 96 -170 l19
-61 -57 -25 c-31 -14 -115 -52 -186 -84 -70 -33 -134 -59 -142 -59 -39 0 23
210 97 329 51 85 119 112 173 70z m509 -171 c42 -42 83 -127 74 -151 -9 -25
-270 -157 -308 -157 -28 0 3 176 47 265 32 63 59 84 107 85 31 0 45 -7 80 -42z"/>
<path d="M8920 1581 c0 -10 170 -65 177 -57 10 9 -21 39 -54 53 -36 15 -123
18 -123 4z"/>
<path d="M8305 1384 c-11 -2 -44 -9 -74 -15 -104 -21 -191 -71 -191 -109 0
-53 125 -101 270 -103 101 -2 177 13 250 47 38 18 46 26 48 52 3 26 -4 37 -37
66 -23 19 -60 41 -83 48 -46 13 -150 22 -183 14z m175 -70 c25 -8 56 -23 70
-34 24 -20 24 -21 6 -35 -76 -58 -377 -55 -466 5 -19 13 -7 21 70 51 105 40
223 45 320 13z"/>
<path d="M7793 1145 l-28 -24 56 -1 c31 0 78 -3 104 -6 43 -6 47 -5 43 12 -4
22 -56 43 -110 43 -26 1 -46 -7 -65 -24z"/>
<path d="M1875 886 c-23 -6 -40 -18 -40 -26 0 -12 24 -15 125 -17 69 -1 136
-5 148 -8 39 -10 21 17 -28 43 -50 25 -137 29 -205 8z"/>
<path d="M3781 8565 c-30 -8 -79 -29 -111 -46 -64 -34 -155 -118 -142 -131 5
-5 40 -2 78 6 38 8 110 20 159 26 167 22 313 -16 476 -126 63 -42 104 -63 110
-57 15 15 -17 104 -61 165 -46 65 -137 130 -214 154 -73 23 -228 28 -295 9z"/>
<path d="M3641 8294 c-165 -44 -295 -153 -377 -316 -88 -174 -91 -405 -8 -576
52 -108 176 -212 301 -254 71 -24 216 -25 293 -2 210 62 370 237 414 456 19
90 20 139 5 227 -22 141 -77 248 -174 343 -119 118 -295 165 -454 122z m293
-103 c157 -77 266 -266 266 -461 0 -378 -373 -638 -687 -479 -287 145 -327
581 -78 835 101 103 204 145 342 140 80 -3 102 -8 157 -35z"/>
<path d="M3820 7868 c-87 -45 -134 -160 -110 -273 22 -104 85 -161 169 -151
62 8 103 38 137 98 25 46 29 63 28 133 0 67 -4 88 -25 124 -47 86 -119 110
-199 69z"/>
<path d="M8450 6961 c54 -213 92 -423 117 -651 21 -188 23 -694 5 -870 -39
-359 -114 -637 -236 -875 -76 -149 -75 -146 -37 -110 143 133 277 547 320 990
50 507 -3 1109 -134 1518 -26 79 -71 187 -78 187 -2 0 17 -85 43 -189z"/>
<path d="M6130 5292 c0 -4 31 -24 69 -45 144 -78 251 -178 267 -249 10 -49
-14 -61 -108 -55 -76 5 -160 34 -350 121 -32 14 -58 24 -58 22 0 -3 39 -33 88
-68 48 -34 126 -96 175 -136 48 -40 87 -69 87 -64 0 5 -14 28 -31 52 -24 33
-27 41 -13 36 41 -17 141 -29 178 -22 79 15 107 82 69 164 -27 58 -133 156
-205 190 -70 33 -168 65 -168 54z"/>
<path d="M3600 4386 c0 -40 38 -148 69 -197 29 -47 97 -107 108 -96 3 4 -13
28 -36 55 -41 50 -84 128 -116 215 -20 53 -25 58 -25 23z"/>
<path d="M6870 1921 c-17 -6 -1 -9 55 -12 66 -4 93 -10 150 -39 95 -46 96 -46
51 -5 -61 54 -175 79 -256 56z"/>
<path d="M2530 7062 c-23 -25 -44 -62 -58 -106 -42 -128 -18 -144 39 -27 43
90 67 112 114 104 30 -5 35 -3 35 15 0 23 -39 52 -71 52 -13 0 -38 -17 -59
-38z"/>
</g>
</svg>
