<?xml version="1.0" encoding="UTF-8" standalone="yes"?>
<svg version="1.0" xmlns="http://www.w3.org/2000/svg" width="1024.000000pt" height="1024.000000pt" viewBox="0 0 1024.000000 1024.000000" preserveAspectRatio="xMidYMid meet">
  <metadata>
Created by potrace 1.16, written by Peter Selinger 2001-2019
</metadata>
  <g transform="translate(0.000000,1024.000000) scale(0.100000,-0.100000)" fill="#000000" stroke="none">
    <path d="M3898 9715 c-2 -1 -41 -5 -88 -9 -255 -19 -573 -96 -843 -205 -449&#xA;-180 -822 -433 -1177 -797 -219 -224 -372 -421 -639 -819 -95 -143 -215 -314&#xA;-265 -380 -195 -255 -288 -421 -322 -580 -28 -127 -28 -243 1 -326 34 -97 118&#xA;-184 225 -236 67 -32 180 -63 231 -63 21 0 41 -5 44 -10 10 -16 94 -56 155&#xA;-74 83 -25 203 -30 285 -13 39 8 144 46 235 85 172 72 250 95 385 112 44 6 95&#xA;13 114 16 l34 5 -7 -95 c-8 -107 -10 -123 -31 -221 -31 -146 -45 -246 -62&#xA;-443 -14 -173 -15 -225 -5 -355 22 -294 88 -527 210 -742 27 -47 35 -74 38&#xA;-125 6 -86 30 -210 54 -270 l19 -48 -67 -30 c-37 -17 -107 -47 -157 -67 -115&#xA;-46 -286 -136 -348 -183 -151 -115 -256 -323 -259 -510 -1 -97 16 -149 67&#xA;-199 32 -33 50 -43 75 -43 26 0 40 -9 71 -44 72 -82 190 -114 225 -62 l16 25&#xA;39 -21 c52 -27 129 -21 164 12 37 35 52 115 37 201 -26 149 -9 274 42 325 24&#xA;24 48 34 111 48 135 29 286 76 362 112 98 47 158 116 197 227 6 18 7 18 33 0&#xA;16 -11 75 -41 133 -67 58 -27 107 -50 109 -52 2 -2 -23 -27 -55 -56 -223 -198&#xA;-332 -365 -384 -583 -51 -213 20 -392 171 -428 16 -4 39 0 60 11 34 18 35 18&#xA;57 -9 29 -36 99 -69 146 -69 35 0 76 27 87 57 3 8 22 7 64 -4 54 -14 63 -14&#xA;97 0 21 9 46 30 57 49 34 54 35 102 6 218 -31 128 -44 306 -24 333 8 9 57 37&#xA;109 60 90 40 221 111 283 151 16 11 27 14 27 7 0 -6 -5 -11 -12 -11 -6 0 -4&#xA;-7 5 -18 12 -13 17 -37 17 -79 0 -166 103 -332 377 -608 160 -162 161 -163&#xA;123 -311 -45 -179 -100 -295 -164 -352 -35 -31 -53 -37 -264 -96 -232 -65&#xA;-435 -203 -501 -339 -51 -104 -23 -146 102 -155 66 -5 68 -6 62 -29 -8 -33 8&#xA;-57 52 -79 32 -16 62 -19 188 -19 100 0 163 -5 189 -14 39 -13 205 -11 281 4&#xA;154 30 323 83 408 128 53 28 129 95 149 132 5 7 33 114 63 237 30 123 79 306&#xA;109 408 108 368 108 366 23 541 -65 132 -86 203 -94 310 l-6 77 44 -5 c24 -2&#xA;73 -7 109 -11 l64 -7 21 -60 c56 -163 153 -288 343 -444 53 -43 204 -137 392&#xA;-243 81 -46 86 -57 71 -146 -26 -156 -110 -357 -183 -436 -39 -42 -55 -51&#xA;-159 -86 -64 -21 -147 -56 -184 -76 -185 -102 -333 -258 -351 -370 -5 -37 -3&#xA;-43 21 -62 41 -32 99 -44 192 -40 l83 3 -4 -30 c-8 -47 15 -72 80 -85 70 -15&#xA;173 -6 298 24 90 22 92 22 135 3 38 -17 50 -17 114 -7 213 36 494 202 560 331&#xA;27 53 30 69 42 260 14 213 25 286 74 507 38 167 45 250 31 349 -13 97 -42 161&#xA;-165 358 -95 152 -154 234 -223 307 -39 41 -43 29 43 136 47 58 52 62 85 58&#xA;19 -3 67 -8 105 -11 126 -11 293 -60 525 -155 134 -54 424 -133 665 -180 508&#xA;-100 706 -200 807 -410 27 -57 32 -78 36 -168 8 -174 -38 -306 -157 -455 -76&#xA;-93 -156 -167 -251 -232 -241 -163 -240 -261 0 -259 93 1 118 5 214 38 392&#xA;131 688 412 807 765 102 302 75 655 -74 947 -90 176 -244 355 -399 461 -69 48&#xA;-274 173 -284 173 -12 0 -287 165 -384 231 -322 218 -571 459 -950 919 -52 63&#xA;-106 129 -121 145 -15 17 -76 86 -137 155 -409 465 -879 806 -1311 950 -188&#xA;63 -321 83 -556 84 -236 0 -342 -17 -563 -91 -169 -56 -318 -130 -577 -286&#xA;-287 -173 -361 -209 -443 -215 -85 -6 -127 11 -174 69 -46 56 -72 109 -95 190&#xA;-15 54 -18 98 -17 279 l1 215 61 300 c62 311 65 327 82 485 18 173 11 314 -25&#xA;489 -32 162 -132 337 -267 471 l-81 80 104 102 c239 236 517 358 818 358 149&#xA;0 196 -8 376 -67 306 -99 533 -19 601 213 38 131 -6 311 -99 402 -73 72 -261&#xA;165 -378 187 -13 3 -58 12 -99 20 -119 24 -224 33 -387 33 -83 0 -153 -1 -155&#xA;-3z m472 -91 c192 -30 341 -80 444 -149 93 -61 139 -143 152 -267 12 -119 -52&#xA;-230 -164 -285 -45 -22 -71 -28 -141 -29 -88 -3 -133 6 -271 51 -156 50 -200&#xA;58 -355 58 -230 1 -447 -67 -659 -207 -79 -52 -215 -175 -284 -258 l-31 -38&#xA;-47 30 c-58 36 -150 67 -227 76 l-57 7 42 36 c23 20 76 62 117 94 42 32 84 65&#xA;94 73 21 17 123 83 219 142 209 126 547 247 808 287 129 19 440 14 525 -9 83&#xA;-23 163 -55 208 -84 22 -13 42 -20 45 -17 10 10 -44 50 -117 85 -367 179 -950&#xA;92 -1481 -222 -303 -179 -716 -529 -925 -783 -27 -33 -74 -87 -104 -120 -72&#xA;-78 -185 -233 -273 -370 -38 -60 -90 -139 -114 -175 -143 -208 -244 -450 -244&#xA;-584 0 -115 61 -209 154 -237 25 -7 46 -16 46 -20 0 -15 -126 -117 -210 -170&#xA;-153 -97 -355 -169 -472 -169 -162 0 -345 99 -410 222 -20 38 -23 57 -23 168&#xA;1 151 14 202 91 348 61 116 106 184 250 374 55 73 176 246 269 383 252 376&#xA;402 569 609 783 451 466 990 776 1604 923 68 16 147 32 175 35 29 4 54 8 57 9&#xA;3 2 31 6 61 10 215 25 478 25 639 -1z m-1440 -1130 c80 -38 167 -102 245 -180&#xA;90 -90 180 -248 215 -380 54 -201 58 -328 20 -624 -11 -88 -8 -68 -69 -380&#xA;-59 -297 -76 -440 -69 -591 12 -248 76 -399 212 -498 87 -63 207 -121 252&#xA;-121 22 0 8 17 -29 35 -18 8 -45 26 -62 40 l-30 24 26 1 c70 1 174 50 439 210&#xA;320 193 508 279 730 335 275 70 523 71 805 5 265 -63 537 -199 821 -411 104&#xA;-78 334 -277 403 -348 218 -227 205 -213 421 -471 406 -486 592 -675 869 -883&#xA;124 -92 222 -154 513 -320 130 -75 262 -154 292 -177 231 -170 387 -405 463&#xA;-699 31 -120 39 -324 17 -446 -41 -226 -138 -417 -294 -574 -81 -83 -95 -94&#xA;-185 -157 -138 -96 -315 -171 -455 -194 -86 -13 -162 -10 -167 7 -2 6 47 50&#xA;109 97 242 181 397 373 444 549 25 93 29 248 9 324 -67 255 -275 405 -685 496&#xA;-63 14 -131 29 -150 32 -226 39 -561 132 -750 207 -230 92 -388 134 -532 141&#xA;-32 2 -60 5 -62 8 -2 2 23 45 56 94 131 199 240 460 287 690 23 114 29 290 12&#xA;375 -17 81 -31 86 -31 10 0 -36 -5 -112 -10 -170 -9 -88 -20 -150 -65 -340&#xA;-13 -56 -66 -193 -115 -295 -74 -156 -202 -348 -362 -545 -15 -19 -28 -39 -28&#xA;-45 0 -6 23 -33 51 -60 74 -74 115 -131 238 -333 131 -216 151 -267 151 -389&#xA;0 -80 -8 -128 -61 -368 -16 -74 -17 -83 -25 -132 -3 -26 -8 -57 -10 -67 -2&#xA;-11 -6 -76 -9 -145 -11 -260 -17 -284 -87 -352 -111 -109 -368 -230 -493 -233&#xA;l-50 -1 3 35 c6 81 107 233 206 308 40 30 26 38 -30 17 -49 -18 -146 -107&#xA;-179 -162 l-18 -31 -29 39 c-31 43 -89 85 -145 104 l-37 13 64 41 c35 23 81&#xA;46 102 52 53 14 39 33 -18 25 -44 -6 -125 -42 -176 -78 l-27 -18 -43 30 c-24&#xA;16 -67 36 -97 43 l-53 14 48 20 c27 12 92 36 144 53 126 42 139 50 195 112&#xA;127 141 248 526 192 612 -16 24 -59 52 -283 184 -151 89 -229 147 -321 240&#xA;-121 122 -187 239 -218 387 -14 65 -23 384 -12 403 3 4 8 30 11 57 28 207 136&#xA;536 255 775 99 197 266 445 360 534 43 41 39 50 -10 26 -140 -72 -355 -388&#xA;-494 -725 -92 -223 -169 -510 -185 -685 -5 -47 -6 -147 -4 -224 l4 -138 -77 6&#xA;c-375 32 -905 144 -1105 233 -32 14 -58 29 -58 32 0 4 34 37 75 74 41 38 86&#xA;87 99 110 88 150 72 400 -46 727 -48 134 -127 275 -144 257 -4 -4 27 -112 70&#xA;-239 85 -257 102 -329 112 -463 7 -103 -8 -177 -50 -249 -60 -103 -335 -286&#xA;-578 -386 -74 -30 -78 -34 -89 -73 -15 -54 -6 -239 16 -332 31 -130 36 -178&#xA;19 -203 -51 -78 -163 -22 -198 100 -8 29 -22 90 -32 136 -23 108 -39 102 -38&#xA;-14 1 -66 8 -110 27 -168 19 -58 23 -85 16 -102 -28 -75 -132 -18 -190 103&#xA;-28 60 -31 74 -32 174 -1 60 -5 109 -9 109 -13 0 -38 -103 -38 -160 0 -31 7&#xA;-82 15 -114 8 -32 13 -62 9 -67 -3 -5 -20 -9 -38 -9 -39 0 -96 54 -121 114&#xA;-50 119 9 358 130 536 82 119 200 232 455 435 164 132 180 146 180 162 0 10&#xA;-5 11 -19 3 -11 -5 -27 -10 -35 -10 -22 0 -194 232 -276 371 -131 221 -141&#xA;460 -28 683 16 32 27 61 24 64 -9 8 -64 -47 -93 -92 -46 -71 -65 -143 -70&#xA;-266 -10 -227 42 -351 285 -680 l85 -114 -34 -26 c-18 -14 -61 -48 -94 -76&#xA;l-61 -51 -135 61 c-269 123 -422 224 -595 389 -260 248 -415 579 -452 967 -12&#xA;132 -4 499 13 585 42 207 77 410 83 489 l7 99 104 34 c244 78 431 232 523 429&#xA;30 63 31 99 2 59 -108 -152 -222 -263 -346 -337 -107 -64 -290 -118 -514 -152&#xA;-55 -9 -112 -18 -128 -21 -33 -7 -218 -75 -350 -130 -110 -45 -181 -59 -268&#xA;-52 -71 6 -188 35 -188 46 0 4 24 13 53 20 111 28 283 114 397 200 30 23 89&#xA;75 131 116 85 84 114 93 177 55 41 -25 52 -25 52 -1 0 25 -42 58 -92 73 -30 9&#xA;-49 8 -86 -1 -69 -19 -86 -16 -135 17 -48 34 -85 102 -91 169 -10 132 90 346&#xA;341 725 80 121 146 218 148 216 1 -2 -1 -32 -7 -68 -22 -158 34 -322 139 -409&#xA;53 -44 112 -69 193 -82 362 -60 644 338 479 678 -91 189 -327 264 -564 179&#xA;-11 -4 56 67 148 158 109 108 179 169 200 175 18 6 68 9 112 7 69 -2 91 -8&#xA;165 -42z m-390 -325 c216 -34 347 -214 310 -426 -43 -249 -263 -403 -490 -343&#xA;-222 58 -322 323 -214 567 42 96 152 180 266 202 59 12 56 12 128 0z m180&#xA;-4002 c59 -50 146 -117 193 -147 53 -34 86 -62 86 -73 3 -58 -89 -170 -166&#xA;-202 -56 -24 -211 -74 -263 -86 -25 -5 -49 -11 -55 -13 -5 -1 -28 -6 -50 -11&#xA;-91 -18 -137 -61 -167 -158 -18 -62 -20 -82 -13 -191 13 -209 13 -215 -15&#xA;-238 -33 -27 -96 -19 -127 16 -41 48 -63 128 -63 233 0 108 -10 113 -35 18&#xA;-18 -67 -17 -132 2 -185 17 -49 16 -99 -2 -106 -49 -19 -154 68 -176 146 -16&#xA;59 -14 173 4 233 22 70 3 67 -33 -6 -27 -56 -31 -72 -31 -155 0 -53 -5 -92&#xA;-10 -92 -19 0 -56 50 -68 92 -27 89 -8 207 56 338 27 57 55 94 117 155 103&#xA;102 125 114 603 321 6 3 19 -6 28 -20 17 -25 45 -36 45 -16 0 5 -14 47 -30 92&#xA;-34 92 -70 229 -70 268 0 22 9 16 66 -48 36 -40 115 -114 174 -165z m1580&#xA;-740 c222 -68 357 -98 665 -147 33 -6 75 -12 93 -15 l32 -6 0 -65 c0 -95 33&#xA;-213 97 -344 75 -154 75 -174 1 -415 -31 -99 -79 -274 -107 -390 -78 -319 -85&#xA;-338 -136 -383 -64 -57 -264 -128 -470 -167 -66 -13 -232 -18 -239 -7 -13 21&#xA;46 120 109 184 44 45 82 73 129 94 36 16 66 33 66 38 0 17 -98 -1 -153 -29&#xA;-32 -16 -73 -46 -94 -67 l-36 -37 -28 39 c-16 22 -47 52 -69 66 -23 15 -37 31&#xA;-33 35 22 21 120 62 173 71 78 15 67 29 -18 23 -73 -6 -117 -18 -173 -46 l-36&#xA;-18 -24 26 c-13 14 -39 32 -58 40 l-34 15 44 20 c54 24 128 49 234 78 136 37&#xA;163 50 214 105 75 83 137 231 176 424 25 124 17 140 -165 326 -233 239 -328&#xA;382 -350 527 -6 43 -9 82 -6 87 4 5 23 1 44 -9 20 -10 89 -34 152 -53z m-308&#xA;-1576 l33 -30 -30 -23 c-16 -12 -63 -55 -103 -95 -46 -46 -83 -74 -98 -75 -72&#xA;-5 -91 -4 -112 5 -17 8 -21 16 -16 31 30 94 177 216 261 216 22 0 43 -10 65&#xA;-29z m165 -131 c18 -10 39 -33 48 -50 15 -29 15 -34 -9 -85 -15 -30 -26 -58&#xA;-26 -63 0 -10 4 -9 -116 -18 -92 -7 -167 -1 -192 15 -22 14 20 84 94 157 63&#xA;62 67 64 117 64 34 0 63 -7 84 -20z m1578 -109 c22 -10 48 -27 57 -38 17 -18&#xA;15 -21 -38 -78 -31 -33 -67 -76 -80 -96 -18 -27 -37 -40 -70 -49 -52 -15 -199&#xA;-9 -216 8 -28 28 83 178 179 241 55 36 107 40 168 12z m239 -115 c37 -16 102&#xA;-70 117 -98 8 -14 7 -34 -1 -69 -11 -46 -14 -49 -53 -59 -23 -6 -53 -15 -67&#xA;-20 -39 -14 -152 -30 -206 -30 -64 0 -94 9 -94 26 0 26 47 107 97 169 72 89&#xA;132 112 207 81z"/>
    <path d="M1229 7070 c-45 -23 -86 -77 -116 -149 -23 -57 -30 -121 -14 -121 5&#xA;0 31 41 58 91 46 89 90 139 119 139 8 0 17 -6 19 -12 2 -7 9 -26 15 -43 l12&#xA;-30 13 25 c18 32 9 69 -22 98 -29 26 -37 27 -84 2z"/>
    <path d="M740 7031 c0 -13 54 -174 63 -189 15 -22 27 -2 27 44 0 48 -20 107&#xA;-47 136 -17 19 -43 24 -43 9z"/>
    <path d="M5187 6231 c-126 -42 -191 -109 -217 -227 -32 -140 61 -238 278 -294&#xA;128 -33 404 -46 517 -25 98 19 159 50 183 95 47 90 -65 282 -219 373 -108 64&#xA;-204 89 -354 93 -108 4 -140 1 -188 -15z m388 -75 c141 -45 256 -140 307 -254&#xA;29 -65 21 -102 -26 -129 -143 -79 -605 -47 -757 54 -42 28 -79 92 -79 139 0&#xA;44 43 126 81 155 31 23 92 50 144 63 11 3 72 3 135 1 87 -3 135 -10 195 -29z"/>
    <path d="M4431 6029 c-116 -20 -262 -100 -360 -199 -71 -72 -95 -127 -87 -194&#xA;7 -63 29 -94 87 -124 40 -21 54 -23 149 -19 98 4 124 8 190 23 14 3 36 8 49&#xA;10 54 11 210 66 255 92 27 15 63 44 80 65 28 35 31 46 30 105 -1 133 -85 216&#xA;-244 241 -73 12 -74 12 -149 0z m224 -83 c66 -30 102 -69 113 -119 11 -56 -1&#xA;-96 -41 -133 -88 -82 -455 -167 -604 -140 -75 13 -107 90 -70 162 19 37 99&#xA;117 152 154 153 105 325 134 450 76z"/>
    <path d="M6158 5881 c-137 -45 -169 -235 -63 -374 89 -116 336 -240 507 -253&#xA;87 -7 132 12 161 67 73 137 -141 428 -394 534 -68 29 -164 41 -211 26z m143&#xA;-65 c127 -38 271 -146 348 -262 138 -205 74 -292 -161 -218 -207 66 -339 156&#xA;-378 262 -61 163 29 266 191 218z"/>
    <path d="M5063 5565 c-156 -44 -248 -142 -246 -262 2 -96 63 -143 238 -184&#xA;133 -31 419 -34 500 -5 108 39 151 94 142 186 -12 137 -104 215 -311 267 -55&#xA;14 -273 12 -323 -2z m331 -65 c136 -30 221 -91 247 -178 23 -78 -30 -140 -141&#xA;-163 -170 -36 -528 12 -596 79 -46 46 -44 88 6 163 68 104 274 145 484 99z"/>
    <path d="M5830 3127 c-85 -41 -164 -47 -237 -18 -58 23 -69 14 -25 -18 38 -27&#xA;114 -45 162 -38 70 9 180 69 180 98 0 13 -8 11 -80 -24z"/>
    <path d="M5900 3006 c-14 -7 -50 -19 -80 -26 -82 -19 -89 -23 -50 -30 59 -10&#xA;177 26 188 58 5 16 -27 15 -58 -2z"/>
    <path d="M2575 7873 c-79 -19 -131 -180 -88 -270 18 -38 65 -73 98 -73 34 0&#xA;83 37 105 80 47 92 34 203 -29 246 -35 24 -47 26 -86 17z"/>
  </g>
  <title>Parasaurolophus Crest</title>
  <desc>Parasaurolophus Crest</desc>
</svg>