<?xml version="1.0" encoding="UTF-8" standalone="yes"?>
<svg version="1.0" xmlns="http://www.w3.org/2000/svg" width="1024.000000pt" height="1024.000000pt" viewBox="0 0 1024.000000 1024.000000" preserveAspectRatio="xMidYMid meet">
  <metadata>
Created by potrace 1.16, written by Peter Selinger 2001-2019
</metadata>
  <g transform="translate(0.000000,1024.000000) scale(0.100000,-0.100000)" fill="#000000" stroke="none">
    <path d="M2137 9506 c-56 -15 -92 -40 -115 -78 -24 -40 -9 -44 40 -9 55 39 99&#xA;52 168 49 49 -2 55 0 58 19 5 33 -64 42 -151 19z"/>
    <path d="M4666 9492 c-27 -26 46 -52 264 -96 252 -50 450 -55 820 -20 169 16&#xA;444 17 555 2 39 -5 183 -38 320 -75 401 -105 407 -106 600 -107 94 -1 193 3&#xA;220 7 136 22 543 110 583 127 32 14 27 30 -11 30 -17 0 -118 -18 -222 -39&#xA;-287 -59 -381 -71 -533 -72 -181 0 -245 10 -512 80 -380 100 -414 106 -655&#xA;106 -182 0 -420 -11 -435 -20 -19 -11 -364 -15 -470 -5 -126 11 -356 48 -462&#xA;74 -31 8 -59 11 -62 8z"/>
    <path d="M2150 9185 c-82 -17 -210 -89 -210 -119 0 -6 -11 -33 -25 -60 -23&#xA;-45 -32 -86 -20 -86 3 0 34 29 69 65 90 92 153 120 271 120 79 0 97 -3 143&#xA;-27 28 -15 69 -40 89 -56 32 -25 50 -31 115 -36 275 -21 480 -110 650 -283 98&#xA;-99 149 -170 203 -286 86 -182 120 -364 112 -594 -10 -301 -43 -430 -311&#xA;-1235 -189 -567 -229 -703 -275 -933 -93 -465 -49 -808 139 -1085 109 -161&#xA;318 -281 525 -304 62 -7 162 5 155 19 -3 5 -42 17 -87 27 -46 9 -88 18 -94 20&#xA;-7 2 26 22 72 45 46 22 160 90 252 152 444 295 695 416 1010 485 155 34 177&#xA;36 387 41 210 5 348 -11 550 -64 312 -81 487 -172 859 -449 176 -131 270 -187&#xA;378 -225 83 -29 97 -31 238 -31 176 -1 239 12 383 80 192 90 324 197 697 564&#xA;328 324 442 417 630 510 167 84 245 100 245 53 0 -30 -45 -105 -153 -256 -134&#xA;-186 -219 -323 -362 -587 -147 -270 -183 -332 -261 -450 -238 -359 -503 -569&#xA;-978 -775 -122 -52 -126 -52 -265 -12 l-75 22 -12 71 c-13 78 -35 128 -60 138&#xA;-27 10 -28 0 -5 -47 20 -42 30 -137 13 -137 -19 0 -55 36 -93 91 -38 57 -81&#xA;90 -96 76 -4 -4 5 -20 19 -35 14 -15 37 -49 51 -77 14 -27 33 -57 43 -66 26&#xA;-23 132 -68 316 -133 381 -134 522 -233 800 -556 134 -155 328 -348 472 -470&#xA;49 -41 103 -87 120 -102 l31 -27 -22 -22 c-48 -49 -365 -82 -574 -60 -226 24&#xA;-503 100 -698 192 -159 75 -291 167 -406 283 -118 120 -168 191 -305 431 -145&#xA;255 -188 326 -220 360 -33 36 -60 87 -60 114 0 11 -5 23 -11 27 -8 5 -10 -10&#xA;-7 -53 3 -49 12 -73 50 -134 69 -113 101 -177 95 -191 -13 -35 -338 -165 -547&#xA;-218 -243 -62 -579 -110 -771 -110 l-106 0 -70 55 c-39 30 -128 91 -199 136&#xA;-71 45 -130 82 -132 84 -1 1 4 28 13 61 21 80 19 163 -5 231 -38 109 -58 99&#xA;-34 -17 17 -88 15 -145 -10 -205 -13 -30 -18 -34 -38 -26 -19 7 -24 18 -31 71&#xA;-4 35 -17 85 -29 111 -34 81 -135 159 -203 159 -34 0 -24 -15 28 -41 54 -27&#xA;104 -74 128 -122 20 -39 38 -137 25 -137 -4 0 -30 7 -57 16 -27 9 -52 14 -55&#xA;11 -8 -8 174 -139 375 -271 214 -140 308 -219 408 -341 87 -107 178 -282 252&#xA;-485 87 -238 192 -460 276 -583 110 -161 104 -183 -52 -179 -210 4 -542 112&#xA;-784 253 -316 184 -584 478 -726 794 -99 220 -155 456 -189 795 -3 36 -8 67&#xA;-9 69 -2 2 -11 -23 -21 -55 -13 -46 -15 -78 -9 -163 l6 -106 -36 35 c-20 19&#xA;-52 67 -71 106 -29 58 -37 87 -41 153 -8 111 -28 92 -28 -27 0 -77 4 -95 31&#xA;-153 20 -41 57 -93 98 -136 46 -50 66 -78 66 -96 0 -17 -5 -25 -12 -22 -7 2&#xA;-53 6 -103 10 -414 27 -975 220 -1300 447 -139 97 -312 264 -398 385 -391 550&#xA;-409 1320 -52 2288 20 55 53 143 72 195 19 52 42 113 50 135 115 308 212 645&#xA;225 789 3 28 7 31 133 68 205 62 328 130 431 240 131 140 178 303 138 478 -18&#xA;80 -55 137 -114 176 -53 35 -135 57 -161 43 -29 -15 -17 -24 48 -38 49 -11 66&#xA;-21 109 -65 69 -71 88 -129 82 -245 -6 -108 -45 -195 -126 -282 -96 -104 -196&#xA;-165 -363 -220 -170 -56 -314 -80 -509 -84 -286 -7 -507 35 -727 137 -83 38&#xA;-218 127 -158 104 9 -3 62 -14 118 -23 126 -22 494 -25 602 -5 39 7 84 15 100&#xA;18 259 42 633 213 715 325 l27 38 35 -37 c20 -20 43 -50 51 -67 l15 -30 7 28&#xA;c17 64 -49 155 -140 193 -41 17 -58 17 -110 3 -44 -13 -41 -16 43 -38 23 -7&#xA;42 -16 42 -21 0 -16 -42 -50 -115 -93 -221 -130 -485 -217 -770 -253 -307 -39&#xA;-678 22 -942 154 -124 63 -173 138 -173 266 0 135 51 247 165 362 92 94 195&#xA;152 325 185 171 42 263 32 482 -55 167 -66 245 -64 326 9 179 161 165 495 -24&#xA;582 -161 74 -358 -16 -451 -206 -25 -49 -28 -67 -28 -153 l0 -96 -25 4 c-216&#xA;35 -449 -31 -608 -173 -138 -122 -220 -285 -229 -453 -12 -212 47 -286 312&#xA;-395 59 -24 105 -51 135 -79 156 -145 453 -263 750 -296 106 -12 340 -12 440&#xA;0 36 5 67 6 70 4 9 -9 -33 -192 -80 -349 -27 -88 -96 -290 -155 -450 -235&#xA;-639 -294 -844 -346 -1206 -28 -195 -30 -482 -5 -668 9 -68 15 -126 12 -129&#xA;-6 -6 -225 19 -386 43 -114 18 -363 25 -447 13 -61 -9 -100 -19 -365 -87 -109&#xA;-28 -207 -51 -219 -51 -12 0 -19 -5 -17 -12 11 -32 146 -18 371 38 195 49 232&#xA;53 432 50 138 -2 223 -9 310 -24 155 -27 187 -31 260 -32 33 0 66 -4 73 -9 8&#xA;-5 30 -62 49 -127 37 -126 114 -300 178 -399 47 -74 193 -253 235 -289 l31&#xA;-26 -44 -57 c-62 -82 -177 -256 -221 -336 -49 -88 -102 -244 -117 -349 -15&#xA;-102 -6 -329 16 -412 9 -33 34 -98 55 -144 65 -139 137 -212 209 -212 43 0 92&#xA;49 150 150 23 38 59 101 81 139 64 110 184 266 306 396 62 66 130 142 150 169&#xA;41 55 134 211 134 226 0 13 -9 15 102 -25 236 -84 559 -150 818 -168 32 -2 36&#xA;-6 48 -47 55 -189 81 -261 137 -375 82 -166 172 -291 310 -430 154 -155 302&#xA;-265 495 -367 255 -134 535 -218 732 -218 115 0 167 11 196 45 38 44 29 77&#xA;-54 215 -119 196 -212 394 -304 645 -73 202 -156 351 -268 483 -30 35 -52 65&#xA;-50 67 3 3 59 9 193 20 135 12 301 36 453 66 84 16 157 27 162 24 5 -3 30 -37&#xA;55 -76 141 -217 490 -480 692 -520 54 -11 64 -11 87 5 50 32 53 56 18 144 -35&#xA;89 -78 230 -87 288 l-6 39 18 -25 c151 -207 309 -338 537 -445 323 -153 652&#xA;-223 991 -212 302 10 445 59 445 153 0 41 -14 57 -170 189 -128 109 -382 362&#xA;-525 523 -64 73 -147 160 -184 193 -91 84 -253 189 -361 235 -50 21 -90 41&#xA;-90 44 0 4 26 17 58 29 89 36 310 153 406 215 243 157 386 292 516 487 l24 36&#xA;145 1 c87 0 180 6 231 16 340 62 403 66 605 41 153 -19 199 -19 215 0 17 20&#xA;37 16 -260 56 -125 16 -250 10 -436 -22 -184 -31 -409 -48 -436 -33 -13 8 -6&#xA;25 44 109 34 55 97 168 141 250 182 342 272 488 422 690 126 169 167 270 135&#xA;331 -34 63 -134 53 -305 -30 -212 -102 -336 -199 -645 -501 -377 -369 -555&#xA;-510 -748 -594 -214 -93 -398 -92 -599 3 -75 36 -261 159 -403 266 -409 311&#xA;-865 454 -1390 437 -306 -10 -549 -65 -808 -184 -168 -77 -288 -148 -557 -328&#xA;-178 -119 -388 -235 -426 -235 -9 0 -54 19 -100 42 -180 90 -319 288 -375 536&#xA;-21 95 -29 316 -15 442 29 262 85 473 283 1060 233 688 290 888 324 1135 23&#xA;167 23 395 0 530 -73 429 -360 780 -726 889 -88 25 -117 30 -257 42 -76 6 -85&#xA;9 -129 46 -27 22 -60 46 -74 53 -67 35 -177 47 -260 30z m-65 -376 c51 -14 80&#xA;-41 113 -104 22 -43 26 -63 27 -140 0 -76 -4 -97 -24 -135 -36 -69 -78 -117&#xA;-111 -129 -35 -12 -36 -9 -14 25 9 14 22 48 29 77 17 74 3 114 -50 142 l-40&#xA;20 -37 -42 c-36 -42 -78 -135 -78 -174 0 -23 -17 -20 -109 16 -62 24 -68 35&#xA;-70 126 -2 105 58 213 153 277 75 50 134 62 211 41z m437 -5578 c2 -5 44 -37&#xA;93 -72 106 -75 286 -173 402 -220 l81 -32 -31 -56 c-55 -101 -120 -184 -237&#xA;-306 -132 -138 -237 -273 -306 -395 -106 -189 -125 -220 -150 -249 -34 -41&#xA;-54 -39 -97 9 -72 79 -128 226 -148 386 -23 188 16 384 112 563 77 144 244&#xA;381 269 381 5 0 10 -4 12 -9z m4312 -576 c16 -122 37 -206 75 -305 11 -30 21&#xA;-61 21 -69 0 -22 -58 -8 -153 37 -163 76 -341 212 -467 357 -58 67 -117 152&#xA;-109 159 2 2 36 13 74 26 143 45 270 102 370 164 l40 25 67 -137 c63 -130 68&#xA;-144 82 -257z"/>
    <path d="M2603 2936 c-129 -141 -234 -357 -268 -555 -17 -96 -20 -201 -5 -201&#xA;6 0 10 18 10 39 0 65 36 220 75 326 46 125 100 228 173 328 84 115 85 117 74&#xA;117 -5 0 -32 -24 -59 -54z"/>
    <path d="M8735 8886 c-64 -28 -90 -96 -65 -171 41 -124 250 -84 250 49 0 99&#xA;-95 162 -185 122z m113 -72 c29 -33 28 -65 -3 -94 -31 -29 -85 -32 -115 -5&#xA;-50 45 -3 144 63 131 18 -3 42 -17 55 -32z"/>
    <path d="M5245 8780 c-44 -10 -142 -32 -219 -49 -177 -41 -328 -42 -475 -4&#xA;-52 13 -96 21 -100 18 -14 -15 21 -42 80 -61 153 -52 306 -54 507 -8 272 63&#xA;297 67 412 67 133 0 214 -17 446 -93 204 -67 305 -83 469 -77 130 5 199 19&#xA;192 41 -2 6 -17 10 -33 9 -105 -5 -260 -2 -324 7 -95 14 -151 28 -336 89 -83&#xA;27 -188 57 -233 65 -110 21 -283 19 -386 -4z"/>
    <path d="M2654 8711 c-101 -26 -210 -124 -266 -239 -31 -64 -33 -72 -33 -182&#xA;0 -102 3 -120 24 -160 80 -152 205 -219 353 -190 83 16 131 42 200 108 134&#xA;128 175 329 101 493 -51 112 -141 169 -273 175 -41 2 -89 0 -106 -5z m193 -77&#xA;c58 -21 119 -92 139 -163 23 -78 15 -201 -18 -273 -54 -114 -188 -208 -300&#xA;-208 -73 0 -115 17 -167 69 -77 77 -111 179 -92 282 27 158 153 289 296 309&#xA;57 8 82 5 142 -16z"/>
    <path d="M2703 8330 c-83 -50 -111 -234 -42 -270 55 -30 116 11 149 98 51 136&#xA;-9 232 -107 172z"/>
    <path d="M7520 8294 c-82 -29 -126 -102 -115 -191 15 -122 143 -188 260 -134&#xA;95 44 130 140 86 236 -22 48 -44 69 -94 90 -45 19 -79 18 -137 -1z m114 -48&#xA;c131 -55 94 -246 -48 -246 -70 0 -136 63 -136 132 0 37 34 90 71 110 40 22 68&#xA;23 113 4z"/>
    <path d="M1465 8010 c-49 -20 -102 -110 -112 -189 -5 -42 -3 -51 9 -51 10 0&#xA;24 23 38 60 26 69 68 120 99 120 28 0 34 -17 22 -68 -11 -53 10 -58 39 -9 28&#xA;46 26 83 -9 118 -30 30 -50 34 -86 19z"/>
    <path d="M4754 7810 c-38 -15 -64 -59 -64 -107 0 -38 5 -50 35 -80 33 -33 39&#xA;-35 81 -30 85 9 127 78 94 156 -21 52 -94 83 -146 61z m94 -62 c17 -15 15 -68&#xA;-5 -90 -33 -37 -103 -10 -103 41 0 60 60 87 108 49z"/>
    <path d="M7952 7521 c-63 -40 -70 -115 -17 -168 33 -33 39 -35 82 -30 37 4 54&#xA;12 75 36 83 93 -34 228 -140 162z m100 -48 c36 -32 11 -103 -36 -103 -34 0&#xA;-66 28 -66 57 0 55 62 83 102 46z"/>
    <path d="M5847 7276 c-24 -12 -48 -34 -57 -51 -18 -38 -16 -120 5 -152 53 -80&#xA;174 -83 234 -7 43 55 19 173 -41 205 -48 26 -96 28 -141 5z m124 -64 c64 -57&#xA;29 -152 -57 -152 -48 0 -70 14 -83 51 -17 49 -13 78 14 104 34 35 85 34 126&#xA;-3z"/>
    <path d="M8854 7055 c-66 -15 -177 -51 -439 -143 -248 -86 -436 -133 -568&#xA;-139 -124 -7 -255 9 -370 43 -44 13 -83 21 -88 18 -23 -14 -4 -34 49 -54 139&#xA;-53 323 -75 480 -58 94 10 312 71 532 148 271 95 348 118 444 135 122 21 194&#xA;19 390 -10 93 -14 205 -25 248 -25 71 0 78 2 78 20 0 18 -7 20 -67 20 -38 0&#xA;-147 14 -243 30 -194 33 -341 38 -446 15z"/>
    <path d="M4353 6848 c-12 -6 -29 -26 -38 -45 -51 -107 103 -186 159 -82 44 83&#xA;-36 168 -121 127z m71 -54 c24 -23 19 -53 -10 -66 -31 -14 -57 -1 -62 31 -7&#xA;45 40 67 72 35z"/>
    <path d="M920 6383 c-8 -3 -27 -17 -42 -31 -48 -44 -36 -141 22 -175 89 -53&#xA;197 27 169 126 -5 19 -20 44 -33 56 -24 23 -87 36 -116 24z m78 -60 c33 -29&#xA;36 -58 10 -87 -32 -37 -64 -41 -94 -11 -29 30 -30 54 -3 89 24 30 58 34 87 9z"/>
    <path d="M5293 6300 c-105 -64 -70 -230 50 -230 50 0 93 23 117 63 24 38 25&#xA;66 6 112 -28 67 -111 93 -173 55z m112 -45 c44 -43 30 -114 -25 -134 -83 -29&#xA;-137 69 -74 133 33 33 68 33 99 1z"/>
    <path d="M6661 6265 c-68 -15 -150 -43 -165 -57 -7 -5 -7 -11 0 -17 5 -6 47 0&#xA;109 15 206 50 324 34 645 -88 192 -73 333 -108 472 -115 150 -8 319 20 290 49&#xA;-6 6 -37 5 -89 -2 -90 -12 -198 -7 -323 16 -111 20 -142 29 -350 107 -97 36&#xA;-207 74 -245 85 -86 24 -252 27 -344 7z"/>
    <path d="M8704 6211 c-45 -27 -64 -59 -64 -107 0 -110 133 -156 214 -75 25 26&#xA;30 38 30 82 0 47 -4 55 -37 85 -43 40 -94 45 -143 15z m103 -36 c44 -31 37&#xA;-114 -11 -136 -52 -24 -106 11 -106 67 0 65 66 104 117 69z"/>
    <path d="M1365 5768 c-56 -32 -76 -91 -50 -148 51 -113 228 -58 210 65 -9 58&#xA;-48 95 -99 95 -23 0 -50 -6 -61 -12z m90 -48 c39 -43 9 -110 -50 -110 -36 0&#xA;-50 12 -60 51 -5 19 0 31 21 52 32 32 64 35 89 7z"/>
    <path d="M4680 5588 c-121 -27 -153 -31 -305 -32 -152 0 -182 2 -285 27 -67&#xA;16 -118 23 -123 18 -12 -12 25 -35 89 -56 168 -54 391 -56 629 -5 152 32 200&#xA;34 429 17 47 -3 41 20 -11 38 -31 10 -91 18 -168 20 -107 4 -135 1 -255 -27z"/>
    <path d="M6614 5540 c-36 -14 -64 -59 -64 -102 0 -113 156 -135 200 -29 33 82&#xA;-53 165 -136 131z m70 -53 c24 -17 24 -67 0 -84 -24 -17 -59 -17 -74 2 -29 35&#xA;-4 95 40 95 9 0 24 -6 34 -13z"/>
    <path d="M925 5145 c-65 -23 -93 -69 -86 -144 9 -99 128 -149 214 -89 78 55&#xA;72 169 -12 225 -39 26 -60 28 -116 8z m102 -54 c64 -47 24 -161 -57 -161 -42&#xA;0 -90 47 -90 88 0 33 32 79 64 92 25 10 52 4 83 -19z"/>
    <path d="M5230 4960 c-116 -16 -201 -49 -258 -104 -98 -92 -81 -192 41 -249&#xA;75 -36 156 -50 292 -50 177 0 322 33 412 95 55 37 73 64 73 109 0 131 -292&#xA;235 -560 199z m358 -84 c91 -30 152 -74 152 -111 0 -84 -206 -158 -431 -154&#xA;-166 2 -270 28 -326 81 -67 63 17 157 180 203 38 11 91 14 197 11 124 -3 157&#xA;-7 228 -30z"/>
    <path d="M7402 4944 c-99 -50 -69 -193 40 -194 54 0 89 33 95 91 5 41 2 50&#xA;-23 77 -36 39 -70 47 -112 26z m72 -50 c52 -51 -22 -126 -76 -77 -24 21 -23&#xA;48 2 73 24 24 53 26 74 4z"/>
    <path d="M5970 4798 c-67 -36 -60 -120 16 -187 113 -100 385 -181 464 -139 27&#xA;14 36 51 25 95 -16 63 -159 175 -275 213 -82 28 -195 36 -230 18z m242 -78&#xA;c40 -16 98 -49 128 -73 53 -42 101 -109 88 -123 -28 -28 -205 4 -305 55 -111&#xA;56 -173 141 -125 171 29 18 135 3 214 -30z"/>
    <path d="M4464 4680 c-209 -55 -334 -179 -289 -287 23 -55 86 -78 210 -77 57&#xA;0 130 8 170 18 102 25 224 87 270 137 34 38 37 45 32 87 -13 118 -194 174&#xA;-393 122z m228 -41 c60 -13 108 -54 108 -92 0 -52 -138 -130 -294 -167 -99&#xA;-23 -148 -25 -212 -9 -78 20 -95 74 -43 134 90 103 295 165 441 134z"/>
    <path d="M5414 4456 c-161 -37 -240 -131 -182 -216 94 -140 504 -190 697 -85&#xA;142 78 87 224 -108 286 -86 27 -316 36 -407 15z m268 -36 c152 -22 278 -90&#xA;278 -149 0 -66 -133 -116 -310 -115 -123 0 -192 12 -280 51 -67 30 -100 59&#xA;-100 90 0 56 35 82 153 113 81 21 160 24 259 10z"/>
    <path d="M1125 3699 c-33 -5 -96 -20 -140 -33 -90 -28 -187 -50 -257 -60 -32&#xA;-5 -48 -12 -48 -22 0 -32 168 -11 365 46 120 35 257 34 395 -3 58 -16 145 -31&#xA;194 -34 83 -6 88 -5 84 13 -2 14 -13 20 -38 22 -55 4 -189 31 -257 52 -74 23&#xA;-214 32 -298 19z"/>
    <path d="M8715 3645 c-94 -15 -157 -36 -163 -55 -5 -14 -8 -14 148 10 110 16&#xA;179 12 310 -22 143 -36 298 -44 358 -19 60 25 33 36 -84 33 -94 -3 -126 1&#xA;-232 28 -147 36 -229 42 -337 25z"/>
    <path d="M1515 3279 c-239 -34 -395 -121 -395 -220 0 -56 21 -91 77 -127 99&#xA;-62 246 -94 418 -90 71 2 120 7 120 13 0 6 -20 11 -45 12 -95 6 -243 25 -297&#xA;39 -135 35 -223 95 -223 151 0 56 133 133 280 162 30 6 69 13 85 16 17 4 140&#xA;8 275 11 264 5 294 8 287 27 -5 15 -487 20 -582 6z"/>
    <path d="M8372 3148 c6 -18 51 -25 233 -37 303 -21 362 -27 480 -47 230 -38&#xA;378 -98 360 -145 -16 -41 -130 -85 -325 -124 -194 -39 -220 -46 -220 -62 0&#xA;-12 8 -14 43 -8 23 3 74 11 112 16 122 18 267 50 322 71 109 40 154 118 99&#xA;173 -84 83 -363 148 -716 165 -287 14 -393 13 -388 -2z"/>
    <path d="M7120 2937 c0 -26 99 -155 184 -239 143 -142 320 -256 524 -340 103&#xA;-42 238 -78 287 -77 36 0 32 2 -110 48 -294 95 -630 316 -810 531 -41 50 -75&#xA;85 -75 77z"/>
    <path d="M1155 2514 c-22 -2 -94 -11 -160 -20 -278 -36 -365 -79 -365 -180 0&#xA;-109 163 -198 460 -249 156 -27 364 -46 485 -44 162 3 205 8 205 25 0 11 -20&#xA;14 -92 14 -51 0 -115 3 -143 5 -229 21 -308 30 -429 51 -170 30 -304 73 -373&#xA;120 -109 75 -76 140 89 179 103 23 302 45 473 52 88 3 162 10 163 14 2 5 11 9&#xA;20 9 11 0 13 3 5 11 -11 11 -263 21 -338 13z"/>
    <path d="M4560 2423 c0 -12 21 -64 48 -115 131 -257 413 -544 645 -658 88 -43&#xA;177 -73 177 -60 0 4 -33 25 -72 45 -313 160 -595 432 -753 727 -28 52 -45 75&#xA;-45 61z"/>
    <path d="M3192 2263 c-43 -3 -53 -7 -50 -21 3 -15 31 -17 316 -19 197 -2 312&#xA;1 312 7 0 10 -19 16 -85 25 -56 7 -429 14 -493 8z"/>
    <path d="M3627 2073 c-42 -41 105 -100 258 -105 172 -4 265 1 265 16 0 18 -41&#xA;24 -220 30 -103 3 -150 9 -200 26 -36 12 -69 26 -74 31 -12 11 -20 11 -29 2z"/>
    <path d="M6567 1715 c-4 -8 1 -19 11 -24 33 -18 239 -71 336 -87 132 -22 364&#xA;-15 531 16 86 16 161 23 265 23 165 1 228 -10 527 -93 290 -82 368 -94 593&#xA;-95 202 0 201 0 380 52 92 27 116 41 101 56 -6 6 -44 1 -103 -12 -51 -11 -122&#xA;-26 -158 -32 -73 -13 -287 -15 -376 -4 -78 9 -270 49 -364 75 -335 92 -432&#xA;110 -594 110 -105 0 -168 -7 -386 -45 -19 -3 -98 -8 -175 -10 -140 -4 -221 4&#xA;-390 41 -38 8 -81 17 -95 20 -23 4 -37 8 -81 20 -9 3 -19 -2 -22 -11z"/>
    <path d="M1779 1476 c-2 -2 -26 -7 -54 -10 -64 -9 -234 -52 -286 -72 -21 -9&#xA;-39 -22 -39 -30 0 -19 2 -18 153 16 157 36 308 54 391 45 66 -8 135 -25 320&#xA;-80 227 -67 349 -69 623 -5 358 82 433 81 713 -14 178 -60 244 -74 371 -82&#xA;127 -8 253 15 246 45 -2 9 -10 14 -18 12 -8 -2 -64 -6 -125 -9 -140 -6 -220&#xA;10 -454 89 -310 104 -368 104 -805 -2 -103 -25 -279 -35 -371 -20 -39 6 -129&#xA;29 -200 51 -165 51 -264 70 -373 70 -48 0 -90 -2 -92 -4z"/>
    <path d="M6961 1228 c-118 -10 -292 -48 -298 -65 -3 -8 -4 -16 -2 -18 2 -2 67&#xA;6 144 17 77 11 194 21 260 21 110 1 133 -3 290 -43 157 -40 180 -44 300 -44&#xA;132 -1 225 15 225 38 0 8 -44 11 -157 9 -155 -2 -161 -2 -313 37 -134 35 -301&#xA;62 -350 57 -8 -1 -53 -5 -99 -9z"/>
    <path d="M4855 1002 c-57 -12 -80 -21 -80 -32 0 -11 9 -14 30 -12 17 1 89 5&#xA;162 8 151 7 195 -2 445 -95 254 -94 414 -103 703 -40 195 43 336 46 465 9 75&#xA;-21 105 -24 250 -24 157 1 220 10 220 33 0 5 -84 11 -187 14 -155 4 -203 9&#xA;-273 28 -124 34 -310 32 -475 -4 -175 -38 -170 -38 -292 -38 -147 0 -203 11&#xA;-405 81 -93 33 -203 66 -243 75 -94 19 -218 18 -320 -3z"/>
    <path d="M8464 956 c-46 -46 -48 -104 -5 -147 28 -28 47 -33 101 -29 88 6 120&#xA;125 49 184 -46 39 -101 36 -145 -8z m114 -28 c26 -26 11 -85 -26 -99 -54 -21&#xA;-98 53 -56 95 18 19 65 21 82 4z"/>
    <path d="M3321 926 c-89 -49 -53 -186 49 -186 33 0 48 6 72 30 28 28 30 36 25&#xA;78 -9 78 -79 115 -146 78z m80 -46 c38 -21 11 -90 -36 -90 -43 0 -61 52 -29&#xA;84 18 19 38 20 65 6z"/>
  </g>
  <title>Plesiosaur Long Neck</title>
  <desc>Plesiosaur Long Neck</desc>
</svg>