<?xml version="1.0" standalone="no"?>
<!DOCTYPE svg PUBLIC "-//W3C//DTD SVG 20010904//EN"
 "http://www.w3.org/TR/2001/REC-SVG-20010904/DTD/svg10.dtd">
<svg version="1.0" xmlns="http://www.w3.org/2000/svg"
 width="1024.000000pt" height="1024.000000pt" viewBox="0 0 1024.000000 1024.000000"
 preserveAspectRatio="xMidYMid meet">
<metadata>
Created by potrace 1.16, written by Peter Selinger 2001-2019
</metadata>
<g transform="translate(0.000000,1024.000000) scale(0.100000,-0.100000)"
fill="#000000" stroke="none">
<path d="M3378 9115 c-2 -1 -52 -5 -113 -9 -312 -19 -564 -87 -895 -244 -163
-77 -385 -221 -490 -318 -25 -23 -62 -56 -82 -73 -108 -93 -303 -350 -377
-497 -87 -174 -92 -303 -17 -534 30 -91 43 -159 50 -267 l6 -82 -38 -38 c-102
-101 -144 -296 -109 -499 10 -56 10 -77 0 -101 -6 -16 -19 -68 -29 -114 -21
-106 -14 -270 16 -355 11 -32 19 -59 17 -60 -2 -2 -27 9 -57 23 -102 49 -167
41 -224 -28 -100 -119 -148 -342 -113 -526 l16 -81 -35 -99 c-56 -161 -78
-295 -71 -443 7 -153 32 -252 93 -380 79 -165 225 -330 358 -405 137 -76 166
-69 255 63 33 50 65 93 71 97 5 3 22 -2 38 -13 99 -71 266 -130 389 -138 90
-7 94 -8 69 -21 -15 -8 -24 -19 -20 -25 4 -7 3 -8 -5 -4 -6 4 -32 -8 -59 -28
-68 -50 -212 -200 -212 -220 0 -9 -6 -29 -14 -44 -22 -42 -46 -171 -37 -196 9
-21 8 -21 -163 -21 -124 -1 -193 -6 -251 -18 -185 -40 -201 -67 -27 -46 59 8
180 14 269 14 153 0 164 -2 190 -23 40 -31 119 -72 141 -72 10 0 42 -9 72 -19
61 -22 197 -26 286 -10 44 8 57 7 85 -10 83 -48 218 -33 388 41 24 11 73 27
110 37 125 33 271 136 289 204 7 26 31 48 138 124 71 51 135 92 141 93 7 0 50
-15 95 -34 46 -18 108 -42 138 -52 30 -10 57 -20 59 -21 3 -2 -16 -25 -40 -51
-70 -73 -167 -199 -194 -251 -21 -42 -30 -93 -26 -143 0 -9 12 -30 26 -46 28
-33 126 -72 180 -72 25 0 35 -6 44 -27 12 -26 10 -30 -73 -112 -47 -46 -86
-88 -86 -92 0 -5 -4 -9 -10 -9 -5 0 -10 5 -10 11 0 22 -89 136 -148 190 -130
121 -240 172 -367 172 -185 -1 -330 -116 -392 -310 -12 -38 -20 -50 -28 -43
-7 5 -16 6 -20 2 -5 -4 -5 -2 -2 4 14 25 -145 143 -267 199 -324 150 -583 93
-697 -154 -34 -71 -34 -71 -74 -71 -56 0 -234 -34 -320 -60 -191 -60 -387
-186 -476 -306 -59 -80 -47 -84 30 -11 160 150 354 247 597 297 53 11 120 20
150 20 l54 0 0 -57 c0 -138 49 -294 128 -413 l40 -59 -36 18 c-65 33 -251 91
-323 101 -77 11 -161 2 -222 -24 -52 -21 -46 -34 11 -25 206 34 530 -72 735
-240 40 -32 98 -73 130 -91 32 -18 57 -34 55 -35 -2 -2 -28 3 -58 11 -235 62
-396 67 -570 18 -71 -20 -200 -81 -200 -94 0 -14 10 -13 61 6 167 59 406 80
559 49 178 -36 346 -100 549 -210 67 -36 144 -82 171 -101 l50 -36 -23 -18
c-49 -41 0 -29 140 33 142 63 226 89 323 101 25 4 70 10 100 15 84 14 306 11
381 -4 115 -24 321 -85 432 -127 59 -22 111 -38 115 -33 18 18 -115 95 -243
140 -16 6 -10 10 30 21 179 50 455 57 585 15 35 -11 66 -19 67 -17 11 10 -15
38 -50 55 -75 36 -173 53 -283 49 l-101 -3 35 42 c39 47 84 71 211 115 176 60
381 72 556 33 39 -9 86 -19 105 -22 32 -6 34 -5 21 10 -26 32 -134 75 -220 88
-156 22 -386 -11 -528 -76 -30 -14 -57 -25 -59 -25 -1 0 9 25 23 56 14 31 31
90 37 131 10 72 12 76 51 103 109 75 336 172 432 185 66 9 83 15 83 27 0 7
-32 9 -97 5 -107 -6 -177 -28 -305 -94 -40 -21 -76 -39 -80 -41 -4 -2 12 38
36 90 45 96 73 206 75 292 l1 29 173 -6 c126 -4 192 -11 247 -26 201 -53 287
-99 400 -208 46 -46 90 -83 97 -83 7 0 13 11 13 25 0 18 -23 49 -82 108 -68
68 -99 91 -170 125 -123 60 -253 95 -423 116 -22 3 -88 5 -147 6 -120 0 -108
-7 -122 78 -5 28 -3 32 17 32 12 0 54 9 92 19 39 11 106 27 150 36 44 9 87 18
95 20 63 15 186 75 249 120 22 16 48 25 75 26 23 0 48 2 56 3 8 2 47 6 85 10
146 13 303 63 408 130 62 40 140 121 164 170 11 25 23 36 38 36 12 0 44 7 70
15 27 8 50 13 52 11 2 -2 -15 -30 -37 -63 -88 -133 -129 -277 -96 -342 18 -34
66 -61 110 -61 18 0 31 -11 50 -44 41 -71 90 -89 255 -94 124 -4 138 -7 164
-28 34 -28 86 -44 148 -44 81 0 220 30 298 64 42 18 114 41 161 50 162 32 356
85 485 132 286 103 403 160 497 244 l48 42 10 -27 c15 -40 12 -96 -9 -158 -50
-144 -195 -264 -486 -403 -228 -108 -419 -161 -847 -234 -486 -83 -652 -123
-852 -209 -149 -64 -221 -108 -295 -179 -73 -71 -103 -139 -80 -181 31 -55 88
-62 266 -34 155 26 540 22 853 -6 377 -35 876 -38 1036 -7 12 2 45 7 75 11 30
4 83 13 119 21 373 83 649 196 920 378 105 70 221 166 215 177 -4 5 0 6 8 3
15 -5 137 121 238 246 193 241 335 557 401 898 26 136 36 445 18 605 -33 311
-131 601 -301 892 -71 121 -263 389 -384 537 -113 136 -190 230 -388 477 -109
135 -237 291 -285 346 -130 150 -314 335 -325 328 -6 -3 -7 -1 -4 4 14 22
-229 222 -444 366 -342 227 -734 379 -1123 434 -144 20 -442 22 -591 4 -123
-15 -328 -59 -336 -73 -9 -13 -15 -2 -29 52 -16 64 -106 271 -153 354 -114
202 -218 336 -381 493 -169 162 -308 260 -516 364 -253 126 -488 200 -725 229
-80 10 -340 21 -347 15z m392 -89 c200 -29 391 -92 617 -201 368 -177 627
-398 828 -705 131 -199 188 -322 248 -540 30 -111 32 -122 31 -305 0 -179 -1
-195 -27 -270 -77 -231 -234 -373 -542 -491 -296 -113 -408 -237 -402 -447 2
-66 11 -105 45 -202 48 -140 72 -245 72 -320 0 -165 -79 -319 -237 -465 -94
-87 -164 -133 -338 -223 -128 -67 -144 -77 -109 -74 47 5 232 77 284 111 130
84 164 110 240 187 89 90 134 156 178 261 25 58 27 74 27 203 l0 140 -52 150
c-62 181 -72 249 -48 330 19 68 62 134 108 169 48 36 159 89 272 131 176 65
258 113 366 212 98 91 168 208 204 342 30 108 29 436 -1 514 -6 16 85 40 239
63 641 97 1250 -55 1847 -460 254 -172 561 -473 866 -851 53 -66 129 -160 169
-210 40 -49 113 -139 162 -200 48 -60 117 -146 153 -190 260 -321 431 -579
515 -775 146 -341 198 -668 165 -1035 -30 -341 -138 -653 -320 -930 -152 -231
-366 -437 -599 -576 -375 -224 -739 -336 -1201 -369 -244 -17 -473 -10 -950
30 -249 20 -518 23 -660 6 -228 -28 -263 -29 -284 -13 -51 38 51 153 211 235
198 101 443 169 878 242 626 105 850 177 1160 371 120 76 142 94 324 272 179
177 306 340 331 427 17 59 -17 31 -104 -87 -86 -117 -264 -318 -273 -309 -3 2
1 15 8 27 21 40 20 155 -1 212 -17 45 -18 58 -8 117 8 44 8 84 2 121 l-9 54
60 44 c80 59 168 144 220 211 118 154 203 359 213 513 2 48 2 87 -1 87 -4 0
-11 -19 -17 -42 -49 -190 -100 -313 -186 -444 -59 -92 -214 -255 -271 -286
l-31 -18 -34 69 -34 68 80 79 c185 183 288 430 288 694 0 111 -18 225 -43 271
-17 32 -28 12 -17 -33 6 -25 8 -112 5 -203 -5 -157 -12 -195 -63 -355 -37
-118 -188 -329 -279 -391 -47 -32 -51 -51 -20 -96 14 -21 39 -74 56 -117 26
-66 31 -93 29 -155 -2 -105 -4 -130 -11 -125 -3 2 -12 -8 -20 -22 -24 -45
-114 -119 -196 -161 -80 -42 -230 -100 -413 -160 -109 -35 -360 -96 -367 -89
-3 2 1 14 7 26 6 12 11 48 11 81 0 114 -104 269 -198 297 -82 24 -152 -9 -285
-136 -82 -79 -169 -204 -190 -275 -14 -46 -31 -51 -146 -45 -144 9 -192 40
-192 124 0 59 65 168 152 255 85 87 182 141 287 162 67 14 83 24 61 37 -24 15
-115 12 -167 -6 -89 -30 -264 -168 -248 -195 5 -8 4 -10 -3 -5 -16 10 -76 -76
-111 -159 -25 -59 -34 -71 -56 -73 -45 -6 -75 22 -75 69 0 103 131 321 245
407 112 85 286 162 404 178 31 4 53 -2 117 -34 244 -122 611 -184 842 -141 34
6 62 15 62 20 0 5 -24 9 -52 10 -87 1 -231 8 -258 13 -274 46 -375 73 -554
151 -91 39 -242 155 -331 254 -106 118 -183 250 -236 405 -104 301 -105 557
-4 861 41 121 55 155 115 260 77 137 261 336 388 419 236 155 420 193 682 140
99 -21 173 -46 285 -98 148 -70 248 -144 453 -341 67 -65 125 -115 128 -112
17 17 -82 151 -183 248 -244 236 -527 368 -828 385 -125 8 -223 -5 -328 -43
-309 -111 -604 -422 -742 -783 -60 -156 -86 -284 -92 -456 -6 -166 7 -277 52
-436 69 -240 213 -466 398 -620 35 -29 53 -50 45 -52 -7 -3 -39 -12 -71 -21
-81 -22 -222 -89 -292 -139 -60 -43 -247 -118 -260 -104 -4 4 1 31 11 60 29
83 26 349 -5 478 -54 223 -176 468 -339 684 -123 162 -268 306 -309 306 -17 0
-9 -16 32 -62 223 -249 315 -378 423 -593 65 -131 89 -194 130 -349 23 -87 27
-120 26 -236 -1 -329 -117 -496 -401 -578 -126 -37 -218 -52 -325 -52 -77 0
-77 0 -113 -39 -19 -21 -57 -50 -83 -64 -47 -25 -176 -69 -241 -81 -32 -6 -33
-5 -25 22 14 42 8 153 -9 193 -20 49 -85 119 -124 136 -78 32 -161 7 -248 -75
-46 -45 -47 -45 -59 9 -9 41 -63 107 -105 129 -81 41 -180 21 -268 -55 l-41
-35 -11 47 c-17 67 -66 113 -121 113 l-41 0 28 28 c48 49 126 108 173 132 58
30 219 84 293 100 31 6 112 38 180 70 163 78 274 115 404 136 94 14 124 15
237 4 70 -6 158 -20 194 -30 37 -10 68 -17 70 -15 9 9 -86 67 -130 80 -152 45
-361 38 -517 -16 -31 -11 -35 -10 -52 12 -32 42 -89 165 -109 236 -27 93 -27
243 0 365 12 50 19 96 17 102 -6 15 -61 -108 -78 -174 -7 -30 -13 -100 -13
-155 1 -120 29 -218 98 -338 38 -67 42 -79 28 -83 -29 -10 -54 -21 -167 -74
-60 -29 -146 -61 -190 -72 -153 -36 -242 -70 -350 -133 -30 -18 -33 -17 -115
10 -162 54 -394 176 -570 299 -86 60 -204 178 -188 187 7 3 63 19 123 34 159
40 294 89 425 156 120 61 281 165 288 187 7 23 -24 12 -133 -49 -207 -116
-340 -169 -590 -234 -174 -45 -360 -105 -520 -168 -297 -116 -599 -96 -826 55
l-46 31 66 59 c88 79 210 159 296 194 l70 29 250 0 c246 0 251 0 325 27 279
100 526 312 700 602 l53 89 91 -6 c70 -3 110 -12 171 -36 90 -35 95 -36 95
-18 0 15 -39 46 -95 75 -122 62 -335 53 -465 -19 -44 -24 -66 -59 -37 -59 9 0
35 8 59 19 24 10 58 22 76 26 l32 7 -50 -82 c-71 -116 -125 -183 -226 -280
-131 -127 -209 -178 -364 -238 -116 -45 -181 -54 -405 -51 -231 3 -235 2 -382
-68 -44 -21 -71 -39 -67 -45 4 -7 2 -8 -4 -4 -14 8 -77 -33 -151 -100 -56 -50
-143 -154 -223 -267 -28 -40 -55 -67 -66 -67 -31 0 -140 72 -216 142 -40 37
-76 65 -80 63 -3 -3 -4 -2 -2 1 3 4 -12 29 -33 58 -189 255 -226 536 -119 902
l21 73 44 -38 c132 -117 310 -66 526 150 100 101 137 166 137 242 0 77 -16 98
-115 156 l-66 38 53 9 c187 29 347 -27 506 -180 51 -48 63 -56 57 -36 -41 133
-266 280 -429 280 l-50 0 47 44 c25 24 58 63 73 85 19 30 34 41 53 42 14 0 39
3 55 5 30 5 106 -8 161 -28 84 -31 217 -144 342 -290 66 -78 53 -27 -23 89
-59 89 -150 178 -229 223 -61 35 -165 60 -247 60 l-60 0 7 38 c28 146 31 245
9 349 -38 183 -143 287 -256 254 -73 -22 -136 -68 -176 -129 l-17 -26 -7 40
c-19 105 1 241 46 318 44 76 145 146 209 146 36 0 106 -33 163 -76 35 -27 54
-25 54 7 0 22 -43 63 -106 99 l-44 26 28 25 c147 134 309 230 534 319 185 72
220 104 317 290 60 116 113 248 175 439 26 79 61 178 78 220 45 111 89 244 83
249 -7 7 -7 7 -48 -68 -59 -108 -115 -244 -188 -457 -76 -223 -128 -341 -200
-448 -54 -81 -104 -120 -209 -160 -41 -15 -119 -47 -172 -71 l-97 -42 -6 56
c-21 214 -116 542 -155 542 -15 0 -13 -9 31 -189 45 -183 69 -319 69 -398 0
-50 -1 -52 -45 -78 -25 -14 -97 -69 -160 -120 -62 -52 -129 -98 -147 -103 -18
-6 -41 -13 -50 -17 -16 -6 -18 0 -18 60 0 67 -33 253 -51 286 -5 10 -16 51
-25 91 -42 193 -29 261 84 455 142 242 362 468 627 643 312 207 715 350 1068
380 140 12 430 4 557 -14z m-2076 -2399 c65 -66 89 -137 90 -267 1 -111 -11
-223 -23 -216 -3 3 -8 19 -9 38 -6 79 -35 123 -88 133 -73 14 -142 -82 -151
-211 -5 -66 -3 -77 18 -109 13 -19 39 -42 57 -51 37 -17 33 -26 -29 -63 -121
-74 -215 45 -226 285 -4 87 -2 128 12 185 45 189 152 319 262 319 38 0 49 -6
87 -43z m-498 -722 c20 -8 82 -46 138 -83 55 -38 128 -83 161 -101 133 -73
152 -105 116 -186 -11 -26 -32 -60 -46 -77 -14 -16 -22 -35 -19 -40 4 -6 3 -8
-3 -5 -5 3 -27 -12 -49 -34 -52 -54 -161 -134 -215 -159 -58 -26 -138 -26
-189 0 -68 35 -99 98 -120 248 -13 98 7 227 50 317 60 125 100 152 176 120z
m1725 -1801 c101 -104 216 -190 383 -284 l60 -34 -29 -20 c-15 -12 -62 -47
-104 -78 -74 -56 -76 -57 -86 -35 -34 76 -116 155 -144 137 -11 -6 -4 -19 27
-57 73 -86 91 -160 49 -205 -36 -38 -198 -138 -225 -138 -5 0 -12 33 -14 73
-13 192 -135 335 -257 299 -44 -14 -120 -77 -151 -127 l-22 -35 -31 47 c-63
94 -158 118 -254 63 -28 -16 -54 -34 -58 -40 -4 -6 -14 -1 -26 14 -10 13 -42
35 -69 49 l-50 25 63 59 c100 93 201 147 332 176 105 24 251 75 435 151 47 20
88 36 91 36 4 0 40 -34 80 -76z m-222 -421 c50 -38 99 -178 87 -251 -7 -44
-29 -68 -88 -98 -110 -56 -267 -69 -311 -26 l-21 22 23 77 c34 117 69 181 132
247 57 58 58 59 104 53 26 -2 59 -14 74 -24z m-766 6 c12 -6 37 -25 54 -42 30
-28 32 -33 19 -52 -19 -29 -62 -153 -71 -202 -7 -47 -24 -55 -63 -27 -26 18
-62 88 -62 122 0 33 28 129 51 175 20 39 36 44 72 26z m341 -19 c44 -21 96
-89 96 -125 0 -11 -12 -54 -25 -95 -14 -41 -25 -82 -25 -92 0 -30 -41 -42
-162 -46 -155 -6 -168 -2 -168 46 0 89 49 207 109 268 22 21 37 43 34 48 -3 5
-1 6 5 3 5 -4 21 -3 34 2 36 15 58 13 102 -9z m1471 -200 c28 -11 64 -78 65
-120 0 -15 -19 -51 -45 -85 -25 -33 -50 -75 -57 -92 -9 -24 -18 -33 -35 -33
-39 0 -133 41 -149 65 -33 50 11 153 96 227 52 45 82 54 125 38z m416 -63 c54
-36 73 -87 70 -189 l-1 -37 -77 5 c-99 8 -178 -12 -290 -71 -79 -42 -82 -43
-99 -24 -16 18 -16 21 1 65 17 45 30 62 125 167 87 95 201 131 271 84z m2828
-57 c94 -95 118 -226 52 -293 -17 -19 -28 -37 -24 -42 5 -4 3 -5 -3 -2 -6 3
-46 -8 -89 -24 -98 -38 -205 -59 -302 -59 -71 0 -77 2 -103 30 -30 32 -30 45
1 115 41 92 192 260 271 301 79 41 139 33 197 -26z m-2427 1 c64 -24 117 -115
119 -204 2 -80 -20 -111 -90 -131 -74 -20 -133 -24 -139 -8 -9 28 -83 111
-116 132 -48 29 -46 51 12 119 26 30 46 59 44 64 -1 5 2 6 7 3 5 -4 25 3 43
14 35 21 82 26 120 11z m-1446 -206 c27 -8 75 -30 108 -50 32 -19 63 -32 69
-28 5 3 7 2 4 -4 -3 -5 12 -27 34 -49 64 -62 127 -148 161 -221 34 -71 80
-245 69 -260 -3 -5 -33 -24 -66 -43 -90 -50 -164 -110 -247 -199 l-74 -80 -43
55 c-24 30 -47 51 -53 48 -7 -4 -8 -2 -4 4 25 41 -245 236 -393 282 l-43 14 6
86 c19 239 109 384 276 446 48 17 136 17 196 -1z m1135 -35 c55 -15 119 -68
146 -120 72 -142 51 -394 -47 -560 -59 -99 -57 -98 -71 -51 -16 55 -74 120
-136 154 -125 68 -283 75 -493 23 -24 -6 -26 -4 -49 86 -40 158 -45 136 60
241 209 207 396 279 590 227z m-2146 -34 c127 -31 289 -114 380 -198 92 -84
104 -108 96 -186 l-6 -63 -85 -3 c-100 -5 -123 -9 -186 -36 -157 -68 -244
-201 -244 -374 0 -45 7 -105 15 -131 8 -27 12 -51 10 -53 -6 -6 -91 53 -154
107 -69 58 -174 181 -212 246 -16 28 -41 86 -56 130 -24 70 -28 95 -28 205 0
110 3 130 23 171 81 163 247 232 447 185z m507 -517 c133 -27 336 -164 453
-306 30 -36 77 -112 105 -167 61 -120 67 -177 30 -256 -22 -47 -25 -49 -74
-55 -137 -19 -235 -46 -333 -95 l-102 -50 -73 55 c-40 30 -144 92 -231 137
-127 66 -164 90 -191 125 -18 23 -35 41 -37 38 -3 -2 -5 4 -6 13 0 9 -8 51
-18 92 -21 95 -17 219 9 273 28 58 101 133 154 158 90 45 212 59 314 38z
m1448 -51 c85 -30 150 -92 175 -168 34 -104 1 -277 -74 -380 -17 -23 -28 -48
-24 -54 3 -6 2 -8 -2 -3 -5 4 -30 -13 -55 -38 -43 -43 -56 -49 -184 -86 l-138
-39 -82 21 c-61 16 -123 22 -252 26 l-171 5 13 37 c26 72 16 150 -35 278 l-21
53 47 57 c54 68 59 73 141 141 62 51 182 118 252 140 138 45 299 48 410 10z"/>
<path d="M3476 8488 c-197 -203 -288 -332 -393 -556 -62 -131 -119 -299 -107
-311 6 -7 32 30 38 55 9 34 105 229 164 333 73 130 131 216 207 307 35 43 61
82 58 87 -3 6 -1 7 4 4 13 -8 173 165 173 187 0 34 -29 12 -144 -106z"/>
<path d="M4611 8075 c-284 -168 -612 -476 -730 -686 -31 -55 -39 -84 -22 -77
5 2 44 48 87 102 132 170 206 250 344 370 58 50 123 105 144 121 22 17 60 46
85 65 25 19 76 55 113 80 60 40 85 66 75 76 -2 2 -45 -21 -96 -51z"/>
<path d="M4580 7626 c-47 -25 -84 -50 -82 -56 1 -6 -2 -9 -7 -5 -13 7 -65 -25
-166 -105 -208 -163 -185 -172 48 -17 100 67 221 142 269 167 48 25 88 48 88
53 0 20 -74 2 -150 -37z"/>
<path d="M3165 7360 c-54 -11 -153 -49 -161 -61 -3 -6 17 -7 58 -2 113 14 298
8 353 -11 146 -51 274 -166 349 -313 28 -56 56 -70 56 -29 0 13 -17 57 -37 97
-69 138 -223 266 -366 303 -72 19 -201 27 -252 16z"/>
<path d="M2360 7074 c-38 -35 -51 -66 -31 -78 11 -7 112 95 105 106 -10 16
-35 7 -74 -28z"/>
<path d="M3040 7005 c-165 -46 -292 -153 -372 -315 -65 -130 -90 -241 -90
-395 1 -177 35 -334 102 -465 29 -58 114 -155 165 -190 110 -76 253 -92 360
-41 314 148 291 707 -35 886 -48 26 -65 30 -135 30 -71 0 -89 -4 -147 -33
-105 -51 -189 -165 -218 -292 -20 -90 -23 -89 -32 10 -14 163 21 358 88 477
57 103 131 175 232 225 l87 43 120 0 c105 0 126 -3 166 -23 62 -31 161 -121
194 -177 31 -53 75 -167 75 -195 0 -10 5 -31 11 -47 10 -26 11 -27 24 -10 15
20 11 69 -12 162 -32 131 -136 256 -267 320 -68 34 -85 38 -168 41 -62 3 -111
-1 -148 -11z m107 -577 c150 -73 242 -254 230 -453 -7 -117 -34 -189 -98 -259
-68 -75 -129 -100 -229 -94 -74 5 -118 20 -168 58 -22 18 -22 18 15 13 105
-13 172 128 127 264 -42 126 -135 184 -223 139 -37 -20 -49 -35 -77 -103 l-24
-58 0 79 c-1 308 229 521 447 414z"/>
<path d="M2331 6713 c-33 -40 -42 -93 -16 -93 14 0 43 48 65 105 15 39 -13 32
-49 -12z"/>
<path d="M4435 6729 c-71 -10 -152 -36 -161 -51 -5 -8 6 -9 36 -4 41 6 306 25
363 26 30 0 38 24 11 34 -22 8 -177 5 -249 -5z"/>
<path d="M3922 5890 c-24 -15 -32 -27 -30 -43 4 -31 55 -34 108 -7 32 16 41
26 38 43 -4 31 -70 35 -116 7z"/>
<path d="M3765 5701 c-36 -22 -85 -77 -85 -96 0 -17 27 -45 44 -45 66 0 176
67 176 107 0 50 -78 69 -135 34z"/>
<path d="M4077 5696 c-43 -13 -97 -60 -97 -84 1 -45 41 -58 106 -36 62 20 84
40 84 74 0 45 -35 63 -93 46z"/>
<path d="M1794 5308 c-25 -23 -43 -47 -40 -55 3 -7 0 -12 -6 -10 -15 3 -66
-101 -73 -149 -4 -27 -2 -45 8 -59 15 -19 16 -19 43 11 16 16 51 47 77 69 51
41 107 134 107 179 0 30 -24 56 -51 56 -11 0 -40 -19 -65 -42z"/>
</g>
</svg>
