<?xml version="1.0" encoding="UTF-8" standalone="yes"?>
<svg version="1.0" xmlns="http://www.w3.org/2000/svg" width="1024.000000pt" height="1024.000000pt" viewBox="0 0 1024.000000 1024.000000" preserveAspectRatio="xMidYMid meet">
  <metadata>
Created by potrace 1.16, written by Peter Selinger 2001-2019
</metadata>
  <g transform="translate(0.000000,1024.000000) scale(0.100000,-0.100000)" fill="#000000" stroke="none">
    <path d="M7820 9583 c-267 -45 -479 -285 -497 -566 -5 -79 -7 -86 -22 -73 -34&#xA;31 -105 51 -176 50 -73 0 -109 -13 -172 -61 -34 -26 -83 -113 -83 -147 0 -20&#xA;-6 -21 -92 -21 -99 -1 -173 -19 -238 -60 -145 -93 -138 -259 15 -337 105 -55&#xA;42 -52 1375 -56 789 -2 1262 1 1311 7 181 24 279 93 279 196 0 81 -65 149&#xA;-185 194 -60 23 -205 44 -247 36 l-27 -5 6 80 c6 76 4 83 -26 145 -25 49 -45&#xA;75 -84 104 -76 55 -110 66 -212 66 -78 0 -98 -4 -152 -28 -33 -16 -74 -42 -89&#xA;-58 -15 -16 -31 -29 -34 -29 -3 0 -7 18 -8 40 -4 59 -37 179 -66 239 -69 144&#xA;-180 235 -341 277 -47 13 -178 17 -235 7z m225 -68 c175 -46 298 -181 356&#xA;-390 12 -44 22 -109 23 -145 1 -36 5 -67 8 -70 3 -3 26 18 51 46 25 28 74 66&#xA;109 85 58 31 70 34 153 34 107 0 149 -18 212 -89 64 -73 77 -147 44 -243 l-18&#xA;-53 94 0 c176 0 321 -47 371 -120 33 -49 29 -77 -18 -121 -44 -42 -98 -62&#xA;-220 -80 -73 -11 -2361 -15 -2427 -5 -16 2 -48 8 -73 11 -100 16 -218 92 -221&#xA;143 -5 70 28 117 108 155 95 44 224 53 306 22 15 -6 17 0 17 46 0 64 28 118&#xA;82 162 29 23 49 30 100 34 83 7 133 -8 203 -60 31 -23 60 -42 63 -42 4 0 7 54&#xA;7 120 0 146 21 218 98 332 125 187 363 282 572 228z"/>
    <path d="M2216 9400 c-196 -35 -359 -232 -383 -462 -3 -32 -6 -58 -7 -58 -1 1&#xA;-24 9 -53 19 -41 14 -65 16 -117 10 -78 -10 -129 -34 -179 -86 -31 -32 -77&#xA;-122 -77 -152 0 -4 -37 -11 -82 -14 -103 -8 -169 -30 -213 -71 -84 -80 -37&#xA;-175 100 -201 58 -10 2093 -6 2200 5 147 15 204 43 236 116 39 87 1 162 -107&#xA;215 -54 27 -79 33 -141 35 -42 1 -89 -2 -105 -7 l-30 -8 7 49 c10 69 -9 149&#xA;-46 193 -44 53 -98 78 -186 84 -65 5 -82 3 -145 -22 -39 -15 -98 -49 -132 -74&#xA;l-61 -46 0 116 c0 114 -1 118 -36 185 -41 79 -89 121 -176 154 -65 25 -189 34&#xA;-267 20z m270 -81 c58 -28 111 -82 137 -139 25 -55 34 -197 18 -284 -6 -32 -8&#xA;-62 -6 -67 3 -4 52 27 108 70 124 94 177 116 272 116 162 -1 240 -116 190&#xA;-281 -8 -27 -15 -52 -15 -56 0 -11 34 -10 46 2 5 5 37 15 69 21 67 12 155 0&#xA;215 -31 114 -58 111 -161 -5 -205 -71 -28 -250 -32 -1280 -33 -920 -1 -1004 0&#xA;-1049 16 -27 9 -56 27 -64 40 -14 21 -12 24 21 56 54 51 154 71 277 54 24 -3&#xA;25 0 31 55 13 116 105 198 230 205 55 3 77 0 114 -18 25 -12 50 -31 56 -41 5&#xA;-10 15 -19 23 -19 9 0 11 20 8 83 -9 181 95 375 241 447 105 51 268 56 363 9z"/>
    <path d="M3208 8176 c-85 -25 -172 -74 -219 -123 l-32 -32 -36 24 c-52 35&#xA;-154 59 -219 52 -140 -15 -275 -145 -298 -287 -6 -37 -14 -47 -73 -90 -85 -62&#xA;-166 -102 -266 -131 -74 -21 -101 -23 -350 -24 -291 -2 -373 -12 -505 -62 -91&#xA;-34 -141 -65 -215 -135 -151 -141 -212 -320 -202 -592 6 -172 24 -249 69 -290&#xA;32 -29 40 -30 128 -11 22 5 28 0 47 -42 26 -56 113 -157 154 -178 42 -22 75&#xA;-19 98 11 24 30 48 103 57 175 8 58 19 70 29 31 3 -15 23 -63 44 -107 102&#xA;-218 200 -214 261 11 36 130 33 128 68 52 61 -134 122 -198 188 -198 18 0 38&#xA;8 48 19 21 23 51 102 60 156 l7 40 134 -3 134 -3 11 -37 c5 -20 10 -44 10 -54&#xA;0 -25 -118 -128 -203 -176 l-76 -44 -29 22 c-57 42 -103 14 -117 -71 -3 -24&#xA;-13 -40 -30 -49 -23 -12 -27 -11 -60 23 -43 44 -79 56 -104 33 -20 -19 -41&#xA;-99 -41 -161 0 -36 -5 -46 -27 -61 -16 -9 -42 -32 -59 -51 l-31 -33 -64 48&#xA;c-35 26 -92 69 -126 95 -34 26 -92 61 -128 78 -61 29 -73 31 -143 27 -132 -8&#xA;-214 -64 -492 -337 -320 -315 -373 -364 -493 -460 -102 -81 -138 -121 -108&#xA;-121 12 0 155 104 231 167 36 30 166 152 289 271 270 262 340 324 409 369 154&#xA;99 229 85 461 -88 l138 -104 0 -46 c1 -96 109 -237 229 -297 60 -30 179 -62&#xA;231 -62 20 0 66 -28 159 -97 305 -229 483 -342 699 -447 145 -70 219 -98 110&#xA;-40 -163 85 -321 192 -664 448 l-174 130 64 12 c140 26 220 65 476 232 183&#xA;120 312 189 413 221 91 30 190 52 201 45 20 -12 90 -115 119 -176 43 -87 75&#xA;-204 110 -398 17 -91 37 -190 46 -220 15 -55 75 -215 96 -257 13 -25 1 -93&#xA;-33 -199 l-20 -62 -192 -4 c-166 -4 -201 -7 -256 -27 -122 -42 -236 -143 -291&#xA;-256 -40 -83 -42 -194 -3 -222 20 -15 67 -17 92 -3 17 8 19 3 23 -58 7 -101&#xA;49 -172 111 -187 23 -6 33 -2 61 29 19 19 40 51 46 71 12 37 30 47 30 18 0&#xA;-31 48 -121 72 -136 47 -30 66 -30 96 0 23 22 32 45 45 116 18 102 50 177 98&#xA;231 l33 39 116 -7 c91 -5 127 -3 169 10 63 18 136 82 171 147 l23 43 95 -63&#xA;c52 -35 100 -63 105 -63 6 0 -21 -22 -60 -49 -107 -76 -189 -182 -214 -278&#xA;l-11 -42 -163 6 c-141 5 -165 4 -186 -10 -22 -16 -14 -17 157 -17 l180 0 0&#xA;-112 c-1 -139 13 -185 65 -212 35 -19 38 -19 63 -3 15 10 26 27 26 39 0 28 13&#xA;14 30 -32 31 -83 102 -139 157 -125 30 7 52 57 61 139 l7 61 34 -53 c45 -71&#xA;84 -102 128 -102 31 0 43 -8 96 -65 32 -36 99 -100 148 -141 74 -63 89 -80 89&#xA;-105 0 -33 -83 -198 -135 -269 -43 -59 -126 -137 -162 -152 -16 -6 -107 -15&#xA;-203 -18 -193 -8 -235 -18 -345 -83 -127 -75 -255 -202 -270 -269 -3 -15 -12&#xA;-31 -18 -36 -7 -5 -62 -12 -122 -14 -61 -2 -119 -10 -130 -16 -16 -10 29 -12&#xA;221 -10 l241 3 -1 -49 c-1 -44 2 -52 24 -64 44 -23 279 -2 363 33 14 6 17 2&#xA;17 -19 0 -16 9 -31 25 -42 70 -46 548 55 705 149 30 18 71 54 90 80 l35 47&#xA;102 0 c56 0 104 4 107 9 3 4 -38 11 -90 14 -53 3 -98 8 -101 11 -8 7 50 175&#xA;144 421 98 255 101 280 45 382 -83 151 -97 185 -97 253 0 56 5 77 35 134 19&#xA;38 40 70 46 73 10 4 94 -10 200 -32 14 -3 24 -15 28 -32 4 -16 27 -69 51 -118&#xA;92 -191 241 -308 598 -470 77 -35 135 -68 144 -81 19 -29 12 -68 -38 -214 -78&#xA;-225 -126 -269 -344 -315 -129 -28 -213 -63 -315 -131 -109 -73 -221 -202&#xA;-245 -282 -11 -37 46 -54 190 -56 l121 -1 -4 -27 c-5 -36 36 -77 80 -80 18 -1&#xA;44 -2 58 -3 31 -2 170 28 229 49 54 20 51 20 51 -7 0 -13 9 -32 20 -42 35 -32&#xA;95 -29 230 10 163 47 309 117 380 182 63 57 71 59 270 68 69 3 145 9 170 12&#xA;l45 7 -60 7 c-33 4 -124 7 -203 8 l-144 1 6 43 c3 23 8 94 11 157 13 264 24&#xA;357 67 538 58 246 46 312 -90 484 -81 103 -217 306 -210 313 3 3 41 8 84 11&#xA;43 3 142 14 219 25 183 26 170 24 390 65 105 19 226 41 270 49 314 56 603 53&#xA;834 -10 259 -70 463 -233 518 -413 22 -70 24 -226 4 -297 -23 -81 -96 -214&#xA;-166 -302 -68 -85 -149 -155 -314 -272 -105 -75 -161 -130 -161 -161 0 -114&#xA;327 -55 622 111 242 138 459 368 555 590 35 81 67 193 84 299 26 154 6 398&#xA;-42 529 -11 29 -18 55 -17 57 2 1 158 4 346 5 l342 2 0 24 0 24 -355 -3 c-195&#xA;-2 -355 -1 -355 2 0 3 -23 46 -51 95 -106 186 -256 343 -444 465 -84 54 -306&#xA;168 -460 235 -176 77 -462 224 -521 268 -32 25 -87 78 -122 119 -215 250 -296&#xA;472 -372 1023 -11 83 -23 164 -25 182 -5 28 -2 33 27 47 79 38 211 154 473&#xA;414 289 287 348 340 450 409 210 142 340 147 519 19 97 -69 190 -173 566 -636&#xA;197 -242 324 -385 507 -570 l163 -165 -1 40 c0 37 -8 48 -96 140 -217 227&#xA;-364 395 -628 720 -318 391 -396 476 -505 548 -140 93 -293 102 -441 27 -127&#xA;-65 -203 -132 -569 -500 -275 -277 -450 -433 -466 -417 -3 3 -17 86 -30 184&#xA;-73 550 -199 869 -448 1130 -235 248 -581 368 -881 304 -552 -116 -977 -621&#xA;-1250 -1486 -121 -386 -173 -521 -233 -613 l-15 -23 -25 23 c-80 74 -119 286&#xA;-137 753 -24 582 -133 901 -392 1147 -77 73 -192 147 -290 188 -43 18 -107 50&#xA;-143 71 -137 80 -324 102 -482 55z m360 -70 c34 -14 78 -34 96 -45 52 -33 130&#xA;-122 152 -173 10 -27 23 -48 27 -48 11 0 0 62 -18 107 -8 20 -14 38 -12 39 6&#xA;6 160 -88 218 -132 74 -56 152 -143 207 -229 135 -209 197 -469 217 -900 17&#xA;-373 34 -533 70 -650 60 -193 191 -290 369 -271 94 10 152 23 411 92 132 36&#xA;300 76 373 89 433 81 951 -29 1348 -286 81 -52 335 -245 354 -269 11 -13 180&#xA;-150 255 -206 239 -179 539 -347 900 -504 482 -210 687 -360 859 -627 130&#xA;-201 183 -420 164 -670 -21 -276 -136 -514 -345 -714 -101 -97 -182 -154 -323&#xA;-228 -157 -81 -273 -123 -387 -136 -99 -12 -92 2 55 110 164 121 264 214 344&#xA;319 105 140 155 264 165 411 11 168 -44 313 -162 431 -141 143 -343 232 -605&#xA;269 -209 29 -436 15 -780 -46 -400 -72 -640 -109 -708 -109 l-26 0 36 38 c63&#xA;64 203 249 254 335 137 230 204 414 212 580 3 71 1 112 -6 119 -8 8 -12 4 -16&#xA;-13 -3 -13 -12 -60 -21 -104 -60 -295 -207 -569 -470 -874 -64 -74 -129 -143&#xA;-146 -153 -16 -10 -29 -20 -29 -24 0 -12 191 -293 253 -371 109 -137 114 -170&#xA;62 -385 -35 -146 -53 -285 -65 -498 -6 -102 -13 -194 -15 -205 -2 -11 -4 -28&#xA;-4 -38 -2 -37 -90 -115 -184 -161 -182 -90 -396 -139 -405 -93 -6 27 66 163&#xA;116 218 25 28 62 59 84 70 44 22 46 42 4 47 -53 6 -136 -69 -201 -182 l-29&#xA;-49 -12 44 c-17 57 -65 115 -109 130 -19 7 -35 16 -35 20 0 4 33 20 73 36 83&#xA;34 96 58 31 57 -25 0 -70 -14 -116 -36 l-74 -35 -28 19 c-15 11 -47 28 -72 38&#xA;l-46 17 59 21 c32 12 102 31 156 43 129 27 176 48 238 106 66 62 89 103 137&#xA;248 52 157 59 212 33 262 -17 34 -34 45 -177 113 -294 139 -398 206 -487 316&#xA;-91 112 -132 217 -173 444 -12 70 -6 335 11 440 55 343 192 643 420 915 41 50&#xA;75 93 75 98 0 27 -76 -29 -156 -115 -196 -210 -349 -560 -399 -911 -8 -56 -15&#xA;-173 -15 -259 0 -138 4 -184 26 -286 4 -19 1 -23 -13 -18 -10 3 -31 7 -47 10&#xA;-175 30 -332 75 -498 142 -117 47 -228 102 -228 113 0 3 39 26 85 51 194 102&#xA;227 187 165 422 -16 62 -43 163 -59 223 -16 61 -31 126 -35 145 -7 38 -40 100&#xA;-54 100 -22 0 13 -209 72 -430 44 -163 50 -209 35 -260 -18 -59 -71 -100 -256&#xA;-203 -204 -112 -216 -124 -228 -238 -5 -48 -2 -89 10 -145 18 -87 17 -155 -3&#xA;-162 -22 -7 -86 70 -114 139 -15 36 -32 94 -39 128 -7 34 -18 60 -24 58 -17&#xA;-6 -33 -50 -39 -112 -3 -33 -8 -94 -12 -135 -11 -126 -30 -147 -77 -90 -62 73&#xA;-75 229 -27 338 44 102 -10 70 -63 -37 -18 -36 -44 -103 -57 -148 -14 -46 -28&#xA;-83 -31 -83 -15 0 -32 62 -37 131 -3 56 1 96 17 159 45 181 137 268 419 401&#xA;201 94 217 103 217 114 0 5 -11 12 -25 15 -18 4 -30 20 -46 61 -13 31 -58 116&#xA;-101 190 -140 238 -163 326 -129 473 9 38 14 71 11 74 -20 21 -73 -92 -81&#xA;-176 -11 -106 24 -208 139 -400 60 -99 130 -233 124 -237 -1 -1 -51 -23 -111&#xA;-49 l-109 -47 -48 20 c-92 38 -277 176 -364 273 -135 148 -240 327 -288 488&#xA;-14 47 -40 157 -57 245 -53 276 -107 432 -185 534 -19 25 -36 50 -38 54 -1 5&#xA;49 24 111 43 183 56 287 110 416 218 139 117 250 324 271 503 7 62 -9 198 -24&#xA;208 -5 2 -11 -37 -14 -88 -9 -130 -30 -207 -87 -322 -121 -247 -310 -383 -665&#xA;-480 -381 -105 -460 -140 -763 -337 -244 -159 -321 -192 -472 -204 -195 -16&#xA;-370 50 -471 178 -35 44 -69 122 -58 132 2 2 31 -1 63 -6 78 -14 249 3 376 37&#xA;123 33 330 134 555 270 582 352 765 516 912 821 53 108 35 104 182 42 51 -21&#xA;95 -37 98 -35 2 3 -10 21 -27 41 -55 63 -198 116 -310 116 -96 0 -107 -31 -16&#xA;-44 68 -11 74 -19 43 -60 -93 -121 -410 -257 -772 -331 -172 -34 -242 -40&#xA;-485 -39 -209 0 -272 7 -580 64 -58 11 -121 22 -140 26 -19 3 -93 6 -165 6&#xA;-138 0 -211 -13 -333 -57 -60 -22 -69 -23 -89 -10 -37 25 -48 85 -48 275 0&#xA;155 3 184 23 250 64 206 215 349 428 405 100 26 212 35 434 35 227 0 308 10&#xA;410 49 68 26 206 104 240 135 38 36 156 114 222 147 70 35 76 54 14 47 -36 -4&#xA;-74 -19 -169 -66 -5 -2 1 15 13 38 29 57 95 127 145 153 55 30 168 29 247 -2&#xA;l58 -22 -24 -47 c-13 -26 -26 -60 -30 -76 -6 -25 -1 -22 35 25 52 65 49 62&#xA;126 126 70 58 153 101 233 119 84 20 231 11 308 -20z m2969 -121 l61 -17 8&#xA;-87 c10 -120 -2 -507 -21 -681 -19 -179 -66 -459 -106 -633 -37 -163 -129&#xA;-499 -140 -511 -5 -5 -36 -4 -77 2 -37 6 -113 14 -168 18 -54 4 -100 7 -101 8&#xA;-2 1 6 54 17 117 69 415 89 964 45 1249 -28 183 -48 261 -95 372 l-37 87 47&#xA;20 c71 31 136 51 209 67 87 18 276 12 358 -11z m245 -98 c134 -73 293 -224&#xA;363 -343 l25 -42 -15 -136 c-36 -326 -119 -591 -365 -1171 -40 -93 -81 -186&#xA;-91 -207 l-18 -36 -63 20 c-35 11 -102 30 -150 42 -48 12 -89 24 -92 27 -3 3&#xA;6 41 20 84 151 486 214 794 244 1200 18 245 10 533 -16 617 -5 16 -2 16 38 2&#xA;24 -8 78 -33 120 -57z m-858 -69 c76 -194 106 -424 106 -800 0 -250 -15 -489&#xA;-45 -743 -25 -212 -20 -195 -65 -195 -32 0 -245 -25 -282 -33 -7 -1 -10 50 -9&#xA;153 3 336 -52 778 -123 987 -23 67 -88 206 -107 229 -17 21 179 246 302 347&#xA;49 39 179 127 189 127 3 0 18 -33 34 -72z m1312 -430 c32 -62 80 -186 109&#xA;-278 31 -98 77 -322 79 -385 2 -71 -35 -173 -130 -365 -67 -134 -282 -499&#xA;-314 -533 -4 -5 -59 17 -123 47 -64 31 -121 56 -126 56 -17 0 -13 14 30 107&#xA;139 297 216 484 290 698 93 272 145 526 137 667 -4 78 2 76 48 -14z m-1823&#xA;-75 c75 -163 144 -487 162 -768 3 -49 8 -112 10 -140 2 -27 7 -113 10 -190 4&#xA;-77 9 -147 11 -156 4 -13 -11 -20 -68 -34 -40 -9 -143 -36 -228 -60 -85 -24&#xA;-202 -53 -260 -66 -116 -25 -258 -31 -303 -11 l-28 12 21 30 c45 63 102 206&#xA;195 490 52 162 102 309 109 325 l13 30 30 -60 c49 -97 106 -279 127 -410 12&#xA;-69 46 -311 46 -322 0 -7 5 -13 10 -13 13 0 13 69 0 185 -5 50 -12 115 -16&#xA;145 -10 96 -51 255 -89 344 -9 21 -34 68 -56 105 l-41 66 33 75 c84 194 249&#xA;500 270 500 3 0 22 -35 42 -77z m-2073 -618 c0 -3 -9 -25 -21 -48 -20 -39&#xA;-210 -237 -229 -237 -7 0 -40 126 -40 154 0 6 40 26 88 44 48 18 110 46 137&#xA;61 51 30 65 35 65 26z m4114 -157 c4 -40 9 -86 11 -103 2 -16 14 -109 26 -205&#xA;l22 -175 -38 -75 c-37 -74 -182 -299 -214 -332 -15 -16 -20 -14 -76 28 -32 24&#xA;-85 61 -117 82 -32 20 -56 42 -54 49 3 6 38 62 79 125 176 270 283 474 323&#xA;613 10 36 22 65 25 65 4 0 10 -33 13 -72z m-4434 -11 c0 -18 7 -59 15 -91 15&#xA;-57 15 -58 -7 -77 -38 -32 -326 -223 -442 -293 l-109 -66 -48 45 c-121 113&#xA;-184 97 -204 -52 -4 -29 -10 -53 -13 -53 -12 1 -104 144 -94 148 22 7 162 104&#xA;206 143 33 30 51 39 54 30 2 -7 18 -28 34 -47 37 -42 85 -53 126 -29 54 32&#xA;124 158 146 261 6 29 11 31 99 53 51 12 120 30 152 41 82 26 85 25 85 -13z&#xA;m-1710 6 c0 -5 -9 -46 -19 -93 -34 -153 -44 -163 -105 -110 -35 31 -133 167&#xA;-125 174 22 21 249 47 249 29z m269 -19 c41 -7 76 -16 79 -19 9 -9 -38 -147&#xA;-64 -187 -28 -44 -36 -46 -64 -16 -22 24 -120 217 -120 236 0 13 44 9 169 -14z&#xA;m354 -60 c51 -6 57 -9 57 -30 0 -13 -9 -48 -21 -79 -24 -65 -41 -70 -86 -22&#xA;-27 28 -83 125 -83 143 0 4 17 4 38 1 20 -4 63 -9 95 -13z m683 -48 c-32 -84&#xA;-71 -144 -103 -159 -24 -11 -28 -9 -57 25 -18 20 -44 66 -58 102 l-26 65 77 7&#xA;c42 3 96 10 121 14 25 4 51 8 57 9 9 1 5 -19 -11 -63z m-585 -333 c73 -77 170&#xA;-203 165 -212 -7 -10 -169 -71 -190 -71 -23 0 -56 106 -56 181 0 67 20 139 37&#xA;139 5 0 25 -17 44 -37z m347 -57 c26 -25 45 -46 42 -48 -3 -3 -43 -24 -89 -47&#xA;l-83 -43 7 43 c4 24 9 57 11 73 13 79 45 85 112 22z m-570 -23 c35 -40 132&#xA;-199 132 -215 0 -7 -46 -15 -132 -23 l-67 -7 -7 38 c-13 71 -10 219 5 237 20&#xA;24 25 22 69 -30z m5789 -342 l21 -73 -56 -79 c-30 -44 -59 -78 -63 -77 -11 4&#xA;-219 179 -219 184 0 2 40 61 90 132 49 70 104 156 122 191 l32 64 27 -134 c14&#xA;-74 35 -167 46 -208z m-5919 126 c4 -28 0 -30 -35 -21 -22 6 -22 7 -5 30 21&#xA;29 36 26 40 -9z m6126 -554 c30 -40 51 -73 46 -73 -5 0 -11 4 -14 9 -3 5 -56&#xA;45 -118 90 -62 44 -128 94 -146 110 l-34 29 48 69 49 69 57 -115 c32 -64 82&#xA;-149 112 -188z m-4084 -551 c0 -19 109 -155 187 -233 l85 -86 -16 -32 c-26&#xA;-49 -76 -100 -120 -123 -37 -19 -51 -20 -156 -14 -134 8 -154 3 -208 -53 -57&#xA;-59 -88 -125 -110 -234 -23 -115 -35 -133 -63 -98 -53 65 -62 210 -18 311 23&#xA;53 20 72 -7 50 -29 -25 -73 -96 -134 -220 -36 -71 -66 -120 -73 -117 -22 7&#xA;-48 66 -54 121 -7 71 23 172 77 250 46 68 51 90 18 77 -13 -5 -44 -37 -70 -72&#xA;-76 -104 -109 -139 -135 -145 -85 -22 -30 151 84 265 108 108 192 130 490 131&#xA;160 0 173 1 183 19 8 16 6 21 -9 26 -18 5 -17 8 6 71 13 36 24 77 25 90 2 21&#xA;18 36 18 16z m1150 -829 c80 -39 181 -82 225 -96 44 -14 110 -35 147 -47 l67&#xA;-21 -40 -82 c-64 -132 -53 -219 46 -394 68 -119 68 -115 -25 -363 -45 -118&#xA;-100 -270 -122 -337 -63 -192 -109 -231 -354 -298 -156 -43 -279 -65 -362 -65&#xA;-61 0 -63 1 -57 23 25 81 145 216 228 255 53 25 63 52 19 52 -66 0 -161 -70&#xA;-243 -180 l-26 -34 -25 55 c-14 30 -39 71 -57 91 -36 42 -38 39 67 78 58 21&#xA;77 32 77 46 0 30 -34 28 -140 -11 l-99 -35 -38 37 -39 38 33 14 c22 9 94 16&#xA;208 21 169 6 177 7 229 36 69 37 129 97 193 191 78 117 122 217 122 281 1 60&#xA;1 59 -153 187 -102 84 -152 148 -144 185 3 16 -3 64 -13 107 -20 87 -24 228&#xA;-8 256 10 18 124 89 134 84 3 -2 70 -35 150 -74z m-749 -1348 l38 -34 -42 -29&#xA;c-23 -16 -64 -53 -92 -83 -53 -57 -82 -67 -188 -68 l-48 -1 18 30 c42 72 217&#xA;218 262 220 7 0 31 -16 52 -35z m140 -122 c29 -30 79 -124 79 -146 0 -15 -46&#xA;-31 -145 -53 -73 -16 -215 -18 -215 -4 0 45 115 183 190 229 37 22 50 19 91&#xA;-26z m1595 -158 c82 -25 83 -28 36 -79 -23 -25 -58 -71 -78 -101 l-35 -56&#xA;-104 2 c-57 1 -115 4 -128 6 l-26 5 29 47 c16 25 53 69 82 97 103 99 129 108&#xA;224 79z m227 -100 c41 -19 82 -71 96 -120 6 -21 9 -40 8 -41 -1 -1 -42 -16&#xA;-92 -34 -91 -32 -201 -48 -248 -36 -22 5 -24 9 -17 38 18 75 63 144 125 189&#xA;43 33 67 33 128 4z"/>
    <path d="M3233 7881 c-103 -35 -166 -94 -217 -201 -29 -60 -31 -73 -31 -170 1&#xA;-95 3 -110 28 -158 37 -71 97 -129 165 -159 45 -19 72 -24 137 -24 181 1 311&#xA;95 366 264 30 92 24 218 -14 292 -34 67 -101 127 -171 154 -72 27 -189 28&#xA;-263 2z m208 -36 c98 -21 177 -98 204 -200 16 -56 16 -75 6 -136 -20 -124 -81&#xA;-208 -187 -260 -208 -103 -436 36 -435 266 1 225 192 378 412 330z"/>
    <path d="M3426 7630 c-47 -56 -54 -133 -19 -202 40 -81 144 -53 172 46 13 50&#xA;-2 132 -31 163 -33 35 -89 32 -122 -7z"/>
    <path d="M1433 7239 c-54 -13 -124 -75 -157 -141 -25 -49 -35 -109 -18 -107 4&#xA;0 27 28 52 62 25 34 64 76 88 94 93 70 161 23 117 -81 -14 -33 17 -13 37 24&#xA;18 35 23 84 12 115 -7 17 -55 46 -76 44 -7 -1 -32 -5 -55 -10z"/>
    <path d="M6051 3532 c-34 -19 -64 -27 -121 -30 -77 -4 -82 -3 -184 46 -27 14&#xA;12 -22 48 -43 58 -34 143 -49 197 -35 37 10 121 73 109 82 -3 3 -25 -7 -49&#xA;-20z"/>
    <path d="M6125 3401 c-21 -11 -55 -16 -117 -16 -78 0 -84 -1 -62 -13 14 -8 49&#xA;-16 78 -19 57 -6 96 8 130 46 22 25 13 25 -29 2z"/>
    <path d="M8476 6855 c-59 -123 -91 -170 -185 -268 -188 -197 -360 -271 -446&#xA;-191 -15 14 -25 18 -25 10 0 -30 50 -60 108 -64 48 -3 68 1 122 25 36 17 93&#xA;51 127 77 76 58 205 193 239 252 15 25 28 43 30 41 2 -2 -2 -21 -8 -43 -6 -21&#xA;-12 -84 -12 -139 -1 -89 1 -103 22 -132 19 -27 30 -33 60 -33 45 0 84 27 142&#xA;98 25 30 54 66 66 80 15 18 26 23 41 18 12 -4 110 -102 220 -218 209 -223 338&#xA;-342 360 -333 8 2 11 0 8 -5 -9 -15 70 -50 114 -50 56 0 76 31 76 120 0 49 -6&#xA;77 -25 113 -35 70 -50 75 -27 9 24 -73 32 -149 18 -184 -15 -38 -60 -37 -131&#xA;3 -54 31 -226 198 -481 467 -77 81 -122 122 -137 122 -13 0 -37 -19 -64 -52&#xA;-87 -107 -145 -158 -178 -158 -50 0 -64 47 -57 195 6 123 25 220 58 289 10 22&#xA;17 41 15 44 -2 2 -25 -40 -50 -93z"/>
    <path d="M905 5448 c-26 -15 -64 -46 -154 -127 -40 -36 -126 -103 -190 -149&#xA;-160 -115 -177 -129 -96 -81 117 70 217 139 284 198 110 98 173 141 202 141&#xA;37 0 81 -39 185 -166 104 -127 215 -230 255 -239 42 -9 74 22 89 87 7 27 18&#xA;52 25 54 17 7 51 -11 182 -96 116 -76 173 -99 268 -106 73 -6 59 7 -35 31 -81&#xA;21 -145 53 -218 108 -88 68 -145 97 -186 97 -40 0 -46 -8 -66 -88 -13 -52 -32&#xA;-61 -77 -37 -31 17 -161 150 -229 235 -108 135 -175 174 -239 138z"/>
    <path d="M1059 4609 c-36 -38 -43 -78 -36 -190 l6 -89 -49 25 c-140 71 -232&#xA;-18 -186 -178 9 -31 19 -63 22 -72 5 -13 -5 -15 -60 -15 -104 0 -146 -30 -146&#xA;-105 0 -43 12 -69 53 -112 l31 -33 -35 0 c-49 0 -79 -24 -79 -63 0 -18 7 -42&#xA;15 -53 14 -21 14 -21 -153 -27 -92 -3 -180 -10 -197 -15 l-30 -9 40 -8 c52&#xA;-11 1999 3 2048 14 52 12 87 38 100 72 l11 29 131 1 c152 1 237 10 216 23 -7&#xA;5 -87 8 -178 8 l-164 0 -15 36 c-19 48 -68 81 -131 89 l-51 6 24 35 c28 41 32&#xA;106 8 140 -37 54 -141 69 -223 32 -40 -18 -43 -19 -36 -2 4 9 10 47 12 83 5&#xA;63 4 68 -25 100 -25 28 -37 34 -69 33 -46 -2 -87 -21 -129 -63 l-31 -31 -6 81&#xA;c-17 252 -207 302 -307 80 l-23 -49 -28 57 c-36 73 -91 136 -148 173 -35 22&#xA;-57 28 -99 28 -47 0 -57 -4 -83 -31z m151 -35 c63 -32 146 -147 180 -250 12&#xA;-35 25 -62 30 -59 5 3 16 29 26 58 55 168 139 239 206 172 32 -32 49 -90 50&#xA;-173 1 -66 -10 -170 -19 -184 -2 -5 0 -8 6 -8 6 0 23 17 38 37 97 127 161 169&#xA;209 138 43 -28 43 -92 0 -197 -29 -70 -20 -93 21 -60 93 74 201 95 248 48 22&#xA;-22 23 -28 14 -63 -7 -24 -31 -58 -66 -95 -30 -31 -53 -61 -49 -66 4 -7 24 -6&#xA;58 5 112 33 198 -3 198 -82 0 -45 -28 -63 -112 -75 -34 -5 -404 -11 -821 -13&#xA;l-758 -3 -25 29 c-46 55 -22 73 86 65 77 -6 85 11 24 53 -44 30 -104 109 -104&#xA;136 0 8 11 25 25 38 30 31 91 33 154 5 45 -21 71 -25 71 -12 0 4 -16 45 -35&#xA;92 -43 105 -48 180 -13 204 49 35 113 14 205 -66 31 -28 59 -46 61 -40 2 6 -9&#xA;46 -24 89 -22 61 -28 97 -28 166 -1 85 0 90 27 113 29 25 65 25 117 -2z"/>
    <path d="M7909 3297 c-76 -51 -135 -166 -146 -284 l-6 -63 -34 49 c-37 57&#xA;-140 147 -191 168 -19 8 -36 13 -38 11 -1 -2 15 -26 37 -53 59 -75 95 -141&#xA;125 -233 14 -45 28 -82 31 -82 3 0 3 26 0 58 -6 59 -37 147 -69 195 -33 47 -5&#xA;28 42 -29 25 -30 61 -85 82 -123 l36 -69 7 72 c13 143 63 285 118 333 19 18&#xA;20 17 9 -2 -20 -40 -34 -152 -33 -279 0 -71 2 -131 5 -133 2 -2 20 29 40 69&#xA;35 72 99 158 110 147 3 -3 -6 -32 -19 -65 -24 -57 -36 -166 -15 -134 5 8 10&#xA;24 10 36 0 11 22 65 49 119 28 54 48 102 45 107 -9 14 -48 9 -81 -12 -28 -17&#xA;-47 -38 -101 -116 -20 -30 -7 166 18 253 11 40 20 75 20 78 0 11 -18 4 -51&#xA;-18z"/>
    <path d="M3655 3280 c-26 -10 -82 -80 -102 -128 -9 -20 -21 -61 -27 -91 l-11&#xA;-54 -37 59 c-48 78 -134 159 -204 191 -30 14 -58 22 -61 19 -4 -3 12 -27 34&#xA;-54 54 -63 102 -142 140 -227 17 -38 39 -86 47 -105 l16 -35 -4 58 c-3 42 -16&#xA;82 -48 145 -24 48 -45 92 -47 97 -2 6 19 -17 48 -50 28 -33 72 -100 96 -149&#xA;l43 -88 6 48 c17 136 27 181 52 231 14 30 28 52 31 49 3 -2 0 -36 -6 -75 -11&#xA;-71 -15 -239 -6 -229 3 3 7 32 10 64 2 33 15 117 30 188 14 71 24 132 23 136&#xA;-2 4 -12 4 -23 0z"/>
    <path d="M988 3265 c-2 -1 -192 -6 -423 -10 -231 -4 -431 -8 -445 -10 -14 -1&#xA;-46 -3 -72 -4 -39 -1 -48 -4 -48 -19 0 -16 49 -17 948 -17 521 0 1010 -4 1087&#xA;-8 248 -14 428 -27 500 -37 39 -5 90 -12 115 -15 75 -10 242 -52 295 -75 60&#xA;-26 105 -66 105 -95 0 -44 -85 -99 -230 -148 -41 -14 -156 -51 -255 -82 -99&#xA;-31 -212 -72 -250 -89 -114 -53 -175 -118 -175 -186 0 -117 159 -197 660 -330&#xA;489 -131 1177 -332 1347 -396 240 -89 407 -194 448 -280 58 -122 -99 -229&#xA;-575 -392 -404 -138 -550 -229 -550 -344 0 -116 176 -233 591 -393 96 -36 221&#xA;-85 279 -107 58 -22 212 -83 343 -135 231 -91 239 -94 308 -91 l71 3 -333 133&#xA;c-184 72 -395 154 -469 181 -566 205 -782 336 -732 446 27 59 188 142 467 240&#xA;376 132 519 198 594 273 81 82 90 157 28 249 -83 123 -314 235 -776 379 -329&#xA;101 -861 252 -1131 319 -126 32 -346 108 -413 143 -200 104 -125 197 253 317&#xA;80 26 188 60 240 76 282 90 378 204 256 306 -85 72 -339 131 -676 158 -41 3&#xA;-91 8 -110 10 -35 4 -106 7 -510 25 -177 7 -755 11 -762 5z"/>
    <path d="M3764 3120 c-31 -20 -79 -80 -108 -137 -24 -48 -19 -61 9 -23 29 40&#xA;29 40 10 -24 -8 -27 -13 -51 -12 -53 2 -2 18 25 36 59 17 35 52 90 76 123 25&#xA;33 45 63 45 67 0 14 -24 8 -56 -12z"/>
    <path d="M1670 3005 c-30 -7 -113 -31 -185 -54 -125 -41 -134 -43 -230 -39&#xA;-74 4 -130 14 -215 39 -100 29 -130 33 -230 34 -95 0 -133 -5 -215 -27 -125&#xA;-34 -202 -42 -285 -30 -36 5 -67 8 -68 7 -13 -12 74 -38 137 -42 64 -5 97 0&#xA;206 27 120 30 139 32 245 27 86 -4 140 -13 215 -35 189 -56 268 -53 495 20&#xA;186 60 268 62 465 14 151 -38 334 -59 322 -39 -4 6 -39 14 -79 18 -40 4 -124&#xA;22 -188 40 -179 51 -285 61 -390 40z"/>
    <path d="M8184 2980 c-51 -7 -145 -51 -125 -58 5 -2 19 1 29 7 33 18 34 -1 1&#xA;-35 -54 -56 -23 -59 39 -4 30 27 73 58 94 68 20 11 35 22 31 26 -3 3 -9 5 -12&#xA;5 -3 -1 -29 -5 -57 -9z"/>
    <path d="M1635 2705 c-5 -1 -36 -10 -67 -20 -32 -9 -60 -21 -64 -26 -7 -12 -1&#xA;-11 33 3 17 7 113 14 248 18 142 4 227 10 240 18 16 9 -21 11 -180 11 -110 0&#xA;-204 -2 -210 -4z"/>
    <path d="M425 2416 c-59 -17 -129 -46 -124 -51 2 -2 33 4 69 12 109 27 257 23&#xA;377 -10 156 -42 198 -43 354 -14 150 29 183 35 219 37 23 1 23 2 5 10 -35 15&#xA;-120 11 -232 -11 -128 -25 -232 -21 -333 12 -85 27 -263 35 -335 15z"/>
    <path d="M5580 2399 c115 -16 220 -22 220 -12 0 15 -63 23 -175 21 -92 -1 -95&#xA;-1 -45 -9z"/>
    <path d="M7035 2351 l-40 -7 50 -5 c28 -4 147 -6 265 -6 l215 -1 -105 13&#xA;c-115 13 -322 17 -385 6z"/>
    <path d="M7670 2320 c141 -16 288 -21 255 -9 -16 6 -97 12 -180 14 -120 3&#xA;-135 2 -75 -5z"/>
    <path d="M9030 2141 c-51 -17 -87 -41 -134 -91 -45 -48 -106 -160 -106 -195 0&#xA;-25 -17 -17 -30 15 -22 54 -55 80 -101 80 -83 0 -139 -98 -139 -247 0 -40 -3&#xA;-73 -6 -73 -3 0 -29 20 -57 45 -61 53 -104 75 -146 75 -43 0 -75 -17 -96 -52&#xA;-30 -52 -21 -109 40 -260 6 -16 4 -17 -25 -7 -18 7 -60 9 -96 6 -170 -13 -202&#xA;-137 -74 -288 l39 -46 -77 -5 c-89 -5 -150 -30 -169 -67 -38 -78 87 -107 457&#xA;-109 174 -1 245 7 188 21 -15 4 -118 11 -230 17 -205 10 -315 23 -350 41 -50&#xA;27 32 49 180 49 105 0 112 1 112 20 0 11 -12 26 -28 34 -42 22 -101 92 -129&#xA;153 -21 45 -23 59 -14 79 27 59 142 69 245 20 30 -14 59 -26 64 -26 12 0 24&#xA;27 14 32 -4 2 -29 47 -56 101 -59 119 -70 183 -37 216 41 41 96 13 250 -126&#xA;l64 -58 -9 60 c-25 170 -2 300 58 331 51 26 75 1 119 -126 33 -96 52 -99 60&#xA;-10 13 130 98 278 182 319 119 58 197 1 197 -143 0 -48 -9 -85 -52 -218 -18&#xA;-54 -29 -100 -25 -104 3 -4 37 22 75 57 111 103 197 134 243 88 45 -45 5 -180&#xA;-92 -308 -53 -70 -40 -95 24 -47 116 87 277 113 277 45 0 -37 -42 -104 -111&#xA;-175 -72 -74 -86 -102 -46 -89 12 4 60 9 107 12 94 5 128 -7 116 -43 -7 -24&#xA;-80 -99 -117 -121 -59 -35 -44 -40 131 -39 133 1 166 4 158 13 -16 19 -85 35&#xA;-153 34 l-61 0 43 46 c53 57 65 105 34 136 -17 17 -36 22 -96 25 l-75 4 34 39&#xA;c78 85 107 187 65 225 -27 24 -146 25 -201 1 -36 -15 -48 -12 -29 9 5 5 20 36&#xA;33 69 46 115 32 202 -38 231 -46 19 -93 11 -169 -31 l-61 -32 19 71 c33 127&#xA;10 250 -55 299 -29 21 -100 31 -138 18z"/>
    <path d="M1020 1774 c-54 -6 -171 -36 -205 -51 l-30 -14 31 5 c128 20 222 28&#xA;304 24 82 -4 115 -12 235 -54 136 -48 143 -49 250 -48 104 0 118 3 245 46 74&#xA;26 160 50 191 53 90 11 190 -10 344 -72 200 -81 295 -96 455 -73 167 24 306&#xA;11 475 -45 91 -30 268 -46 301 -27 16 10 12 11 -26 12 -78 0 -171 20 -300 62&#xA;-119 39 -131 41 -255 42 -71 1 -187 -2 -256 -5 -158 -9 -218 3 -381 72 -229&#xA;97 -328 101 -555 22 -133 -46 -142 -48 -248 -48 -102 1 -117 4 -205 37 -159&#xA;61 -246 75 -370 62z"/>
    <path d="M6963 1530 c-29 -17 -70 -52 -91 -79 -42 -53 -88 -156 -98 -221 -4&#xA;-22 -9 -40 -13 -40 -3 0 -17 26 -31 57 -14 34 -45 77 -76 108 -54 53 -118 94&#xA;-130 83 -3 -4 12 -35 35 -69 49 -74 92 -161 121 -249 28 -83 34 -88 26 -20 -7&#xA;64 -35 144 -72 201 -14 23 -20 38 -14 34 24 -15 110 -158 127 -211 9 -30 20&#xA;-54 23 -54 3 0 14 44 24 98 21 111 77 240 125 286 40 38 48 29 20 -25 -54&#xA;-106 -83 -246 -70 -339 l6 -45 38 56 c20 31 58 73 84 93 50 39 68 41 34 5 -17&#xA;-19 -61 -115 -61 -135 0 -16 27 18 82 102 34 52 65 94 70 94 4 0 8 7 8 15 0&#xA;25 -52 18 -102 -14 -25 -16 -62 -49 -84 -75 -21 -25 -41 -46 -45 -46 -4 0 1&#xA;38 11 84 21 93 65 205 104 263 28 40 34 73 14 73 -7 0 -37 -14 -65 -30z"/>
    <path d="M5720 1325 c-85 -44 -190 -183 -190 -252 0 -12 -4 -25 -10 -28 -5 -3&#xA;-10 0 -10 8 0 36 -74 158 -121 201 -46 42 -133 86 -145 73 -3 -3 10 -27 29&#xA;-54 19 -26 66 -109 103 -183 38 -74 70 -127 72 -118 4 22 -33 128 -75 212&#xA;l-35 71 40 -38 c41 -40 96 -142 127 -237 l18 -54 22 79 c36 132 78 208 141&#xA;257 l29 23 -17 -25 c-52 -73 -92 -176 -104 -265 -8 -64 6 -50 35 35 25 71 97&#xA;203 142 261 50 64 30 77 -51 34z"/>
    <path d="M5808 1150 c-52 -15 -161 -120 -144 -138 4 -3 22 10 41 28 19 19 35&#xA;29 35 23 0 -6 -7 -16 -16 -23 -15 -13 -44 -73 -44 -92 0 -6 21 18 46 51 25 34&#xA;68 80 95 103 27 23 49 45 49 50 0 10 -25 9 -62 -2z"/>
    <path d="M690 1109 c-69 -7 -197 -45 -187 -55 2 -3 28 1 58 8 30 6 122 12 204&#xA;12 l150 1 130 -45 c125 -43 135 -45 245 -45 93 0 138 6 235 30 168 40 272 40&#xA;460 -4 163 -39 318 -46 445 -21 l75 15 -195 6 c-188 6 -237 12 -395 53 -77 21&#xA;-250 21 -335 0 -137 -33 -272 -52 -333 -47 -34 3 -107 20 -162 38 -174 56&#xA;-258 68 -395 54z"/>
    <path d="M5200 1105 c0 -7 15 -26 34 -42 18 -15 57 -62 87 -103 63 -88 80 -75&#xA;30 23 -21 41 -26 56 -14 46 10 -9 30 -23 46 -32 24 -15 27 -16 27 -2 0 19&#xA;-122 99 -172 113 -30 8 -38 8 -38 -3z"/>
    <path d="M8812 1058 c-17 -17 -15 -98 3 -142 18 -42 19 -43 22 -13 1 12 7 46&#xA;14 75 9 37 10 58 3 69 -14 22 -27 26 -42 11z"/>
    <path d="M8941 1006 c-12 -18 -25 -54 -30 -80 -7 -40 -6 -46 8 -46 40 0 81 59&#xA;81 117 0 36 -3 43 -19 43 -11 0 -28 -14 -40 -34z m15 -64 c-9 -17 -21 -34 -27&#xA;-37 -6 -4 -1 12 11 35 12 23 24 40 26 37 3 -3 -2 -19 -10 -35z"/>
    <path d="M8736 979 c-14 -17 -26 -35 -26 -40 0 -18 -17 -8 -28 16 -14 29 -32&#xA;33 -32 6 0 -20 36 -71 50 -71 8 0 80 104 80 115 0 14 -21 1 -44 -26z"/>
    <path d="M9248 940 c-59 -3 -110 -9 -114 -12 -15 -15 107 -20 324 -14 246 7&#xA;303 13 280 27 -15 10 -326 9 -490 -1z"/>
  </g>
  <title>Spinosaurus River</title>
  <desc>Spinosaurus River</desc>
</svg>