<?xml version="1.0" standalone="no"?>
<!DOCTYPE svg PUBLIC "-//W3C//DTD SVG 20010904//EN"
 "http://www.w3.org/TR/2001/REC-SVG-20010904/DTD/svg10.dtd">
<svg version="1.0" xmlns="http://www.w3.org/2000/svg"
 width="1024.000000pt" height="1024.000000pt" viewBox="0 0 1024.000000 1024.000000"
 preserveAspectRatio="xMidYMid meet">
<metadata>
Created by potrace 1.16, written by Peter Selinger 2001-2019
</metadata>
<g transform="translate(0.000000,1024.000000) scale(0.100000,-0.100000)"
fill="#000000" stroke="none">
<path d="M4351 9524 c-12 -15 -21 -33 -21 -41 0 -30 46 -101 180 -279 381
-505 527 -745 689 -1138 23 -54 41 -101 41 -105 0 -4 -17 -17 -39 -29 -46 -26
-95 -28 -176 -6 -33 9 -86 16 -117 17 l-58 0 -135 153 c-452 509 -1154 1014
-1724 1238 -137 54 -205 43 -187 -30 10 -38 95 -121 336 -325 107 -91 263
-229 345 -306 358 -335 814 -836 947 -1043 44 -69 48 -80 48 -137 0 -55 -3
-64 -26 -82 -15 -12 -39 -21 -53 -21 -16 0 -91 39 -184 94 -491 293 -929 452
-1510 551 -87 14 -287 35 -344 35 -68 0 -103 -20 -103 -59 0 -41 72 -81 590
-328 195 -93 466 -231 570 -291 259 -148 690 -441 690 -469 0 -7 16 -51 35
-97 19 -47 35 -97 35 -112 0 -26 -1 -27 -52 -20 -29 3 -96 11 -148 18 -147 18
-483 15 -630 -5 -333 -46 -615 -157 -615 -242 0 -25 5 -32 36 -42 20 -6 85
-14 145 -18 341 -18 380 -21 520 -46 140 -24 298 -64 480 -123 133 -43 144
-49 187 -95 42 -45 70 -111 54 -127 -3 -3 -59 0 -124 7 -466 48 -919 -114
-1372 -490 -114 -94 -263 -247 -342 -350 -52 -69 -56 -72 -184 -130 -165 -76
-257 -96 -405 -88 -186 10 -320 63 -441 175 -159 147 -231 297 -279 585 -26
156 -44 190 -107 203 -97 19 -206 -235 -242 -568 -29 -264 12 -591 103 -827
109 -281 238 -473 478 -707 229 -225 491 -388 858 -538 75 -30 136 -61 138
-69 4 -18 -46 -81 -236 -297 -225 -254 -355 -435 -438 -605 -32 -68 -38 -90
-39 -146 0 -57 5 -76 42 -150 50 -100 115 -183 201 -256 l62 -53 -42 0 c-96 0
-371 -21 -385 -29 -27 -15 75 -22 304 -21 143 1 229 -3 251 -11 39 -14 98 -6
122 16 16 14 21 14 64 -5 68 -29 201 -67 279 -81 87 -14 152 -5 184 27 24 25
28 25 127 19 153 -10 276 17 289 65 5 19 13 20 259 22 139 0 258 2 263 3 6 2
23 3 38 4 16 0 26 5 22 10 -9 16 -216 30 -436 31 l-145 0 -18 58 c-26 82 -76
179 -152 295 -36 55 -62 103 -57 107 4 4 46 33 93 66 128 89 243 188 365 315
l110 114 90 -31 c50 -18 144 -43 211 -55 l121 -23 32 -231 c40 -285 127 -803
140 -838 l11 -27 -333 -1 c-182 -1 -343 -5 -357 -9 -14 -4 -20 -9 -15 -9 131
-16 237 -22 460 -27 l270 -7 56 -34 c77 -47 185 -87 309 -115 100 -22 124 -23
470 -23 362 0 365 0 402 23 20 12 39 29 42 37 4 11 21 15 56 15 85 0 190 29
222 60 37 38 35 63 -11 156 -22 43 -38 80 -37 82 2 1 97 5 212 8 115 2 241 7
279 9 39 2 140 5 225 5 119 0 151 3 142 12 -19 19 -216 26 -574 22 l-327 -4
-16 23 -15 22 82 8 c123 11 135 29 98 149 -39 126 -136 256 -244 328 -47 31
-66 50 -66 65 0 11 23 61 51 110 55 96 76 147 87 210 7 38 9 40 77 63 148 50
284 106 382 158 l102 54 12 -43 c40 -150 99 -239 279 -422 203 -206 268 -311
360 -582 53 -154 74 -188 135 -217 104 -50 624 -88 709 -52 26 11 68 16 128
16 158 0 312 35 353 80 13 15 16 29 12 58 l-7 38 68 11 c136 22 232 73 232
123 0 76 -203 308 -347 397 -71 43 -210 110 -264 126 -8 3 -44 54 -79 113 -91
153 -163 245 -327 415 -151 157 -189 208 -254 342 -35 72 -159 431 -159 461 0
6 12 39 27 72 l28 62 125 7 c188 11 274 8 400 -15 209 -38 224 -40 292 -40
119 0 285 46 378 105 24 15 64 47 90 71 l47 44 30 -33 c86 -92 142 -180 184
-292 15 -40 27 -57 44 -61 69 -17 218 121 308 286 164 298 162 739 -4 1098
-41 88 -45 114 -30 156 6 13 15 71 22 128 9 87 9 118 -5 195 -20 114 -49 193
-86 233 -46 49 -68 42 -147 -47 -125 -143 -197 -214 -211 -211 -8 2 -20 12
-28 23 -11 18 -8 27 23 80 109 181 303 593 448 949 146 359 411 1117 590 1691
141 449 194 718 150 755 -22 18 -60 5 -98 -34 -102 -102 -389 -573 -816 -1338
-324 -582 -539 -927 -805 -1292 l-79 -108 -29 61 c-34 71 -114 162 -162 185
-41 19 -117 20 -168 2 -44 -16 -42 -26 -29 126 8 81 14 106 40 152 22 38 31
66 29 90 -2 32 5 43 52 92 76 77 237 197 490 367 121 80 220 154 227 167 81
162 -526 47 -897 -170 -55 -32 -74 -39 -80 -29 -5 7 -11 59 -15 116 l-7 103
71 114 c204 326 461 626 756 881 164 142 203 181 222 224 13 31 13 36 -5 60
-29 40 -81 39 -204 -3 -278 -93 -602 -294 -833 -515 -132 -127 -296 -315 -378
-431 l-16 -23 -37 28 c-20 15 -45 48 -56 73 -19 42 -20 52 -8 136 37 285 133
587 326 1023 131 298 149 356 124 404 -74 138 -575 -437 -815 -936 -54 -112
-136 -326 -155 -402 -7 -29 -17 -44 -32 -49 -12 -3 -45 -28 -73 -55 l-51 -48
-43 20 c-23 10 -72 46 -108 79 -36 32 -78 65 -94 72 -22 10 -48 45 -104 143
-87 153 -221 356 -313 475 -94 121 -357 385 -487 489 -186 150 -404 281 -467
281 -17 0 -34 -10 -47 -26z m200 -114 c145 -85 311 -220 484 -394 225 -227
371 -416 562 -731 l73 -120 -91 -7 c-103 -8 -175 -36 -246 -94 l-43 -35 -21
48 c-11 26 -29 69 -39 95 -31 78 -164 336 -230 448 -80 135 -250 381 -407 588
-122 161 -183 248 -183 264 0 12 58 -14 141 -62z m2519 -27 c-7 -21 -60 -148
-118 -283 -200 -465 -303 -790 -328 -1032 -4 -38 -8 -68 -9 -68 -2 0 -34 18
-71 40 -80 47 -177 79 -251 83 -31 1 -53 7 -53 13 0 50 133 371 216 519 152
272 407 601 573 738 25 20 46 35 49 33 2 -3 -2 -22 -8 -43z m-4015 -148 c323
-138 792 -437 1140 -727 133 -110 344 -316 469 -458 56 -63 105 -120 109 -126
4 -6 -16 -27 -47 -48 -53 -36 -163 -146 -201 -200 l-21 -29 -28 44 c-107 163
-680 790 -946 1035 -128 117 -298 266 -469 411 -91 76 -166 143 -168 150 -6
17 28 6 162 -52z m6376 -527 c-96 -388 -464 -1488 -673 -2013 -165 -415 -328
-767 -458 -989 -88 -151 -123 -176 -248 -176 -265 0 -524 220 -488 415 5 26
29 58 92 124 159 166 408 517 667 938 128 208 176 291 399 693 403 724 534
943 733 1226 25 36 14 -66 -24 -218z m-1307 1 c-21 -23 -97 -93 -169 -157
-325 -290 -549 -549 -749 -864 l-69 -108 -32 46 c-30 42 -140 144 -156 144 -4
0 -23 7 -43 15 l-36 15 56 78 c80 109 213 260 300 341 165 154 402 316 615
421 122 60 304 124 318 113 3 -2 -13 -22 -35 -44z m-2385 -625 c35 -10 70 -31
108 -66 58 -53 130 -90 171 -90 16 0 43 19 80 55 88 87 147 103 265 72 62 -16
135 -50 210 -99 36 -23 56 -46 77 -87 31 -60 86 -116 123 -123 12 -3 40 -7 63
-9 23 -3 58 -13 78 -22 54 -26 136 -104 173 -166 30 -50 33 -63 39 -172 l7
-118 43 -33 c57 -44 112 -110 136 -164 28 -62 37 -219 15 -253 -32 -48 -48
-116 -56 -229 -8 -127 -20 -161 -79 -228 l-37 -42 -49 15 c-27 8 -65 15 -84
15 -27 0 -45 9 -79 41 -42 39 -133 89 -162 89 -20 0 -126 66 -196 121 -225
178 -366 446 -480 909 -15 58 -36 137 -48 175 l-22 70 -3 -53 c-9 -155 123
-598 240 -804 82 -146 203 -286 322 -374 l59 -43 -29 -6 c-205 -45 -288 -82
-383 -170 -81 -76 -136 -160 -151 -231 -7 -31 -9 -58 -7 -61 3 -2 27 32 53 78
57 99 143 192 215 236 128 76 302 109 419 79 115 -29 186 -90 285 -244 22 -34
44 -62 49 -62 16 0 -4 92 -29 138 -14 24 -25 46 -25 48 0 7 67 -18 201 -76
149 -65 243 -115 272 -148 16 -17 16 -21 1 -52 -49 -98 -3 -253 108 -356 53
-51 152 -110 235 -140 69 -26 91 -29 193 -29 101 0 120 3 153 22 37 23 37 23
57 3 11 -11 25 -20 30 -20 17 0 10 -14 -17 -34 -14 -11 -67 -28 -117 -38 -97
-20 -199 -62 -248 -103 -16 -14 -26 -25 -23 -25 4 0 53 13 109 30 92 27 239
61 242 57 42 -91 131 -180 229 -228 61 -30 80 -34 149 -35 92 -1 91 0 137
-118 65 -168 106 -405 95 -550 -17 -217 -74 -387 -177 -527 -49 -67 -131 -149
-148 -149 -5 0 -24 33 -43 73 -45 94 -137 216 -223 296 -131 121 -409 283
-585 340 -146 47 -194 52 -540 61 -232 6 -358 14 -410 24 -128 27 -225 64
-298 116 -64 45 -122 101 -122 119 0 4 40 18 90 30 49 13 87 27 84 32 -10 17
-143 10 -205 -11 -67 -23 -93 -38 -155 -87 -37 -30 -74 -87 -63 -97 2 -2 45
22 94 55 50 32 96 58 102 58 7 1 22 -16 32 -38 27 -52 118 -132 195 -169 139
-68 302 -92 620 -92 272 0 397 -14 540 -61 136 -46 286 -120 424 -212 l124
-82 -46 -41 c-124 -113 -355 -183 -511 -155 -33 6 -109 19 -170 30 -169 30
-215 32 -420 20 -167 -10 -206 -10 -325 5 -141 19 -245 47 -358 97 l-67 30 29
-30 c63 -66 235 -132 409 -156 55 -8 101 -16 104 -18 6 -7 -149 -258 -205
-331 -291 -384 -606 -621 -1027 -776 -195 -72 -415 -123 -621 -145 l-60 -7
-17 61 c-9 33 -17 62 -17 65 0 2 53 43 118 92 144 108 371 333 437 433 126
191 155 392 90 616 -30 104 -121 263 -140 244 -2 -2 10 -33 27 -69 41 -91 75
-229 82 -335 19 -287 -120 -504 -529 -829 -66 -53 -144 -108 -174 -122 -65
-31 -213 -64 -293 -64 -31 0 -59 -4 -63 -9 -25 -41 203 -40 321 1 l72 25 6
-51 c20 -153 106 -490 152 -594 13 -31 21 -59 17 -63 -15 -14 -168 -41 -265
-46 -102 -6 -117 -16 -45 -29 89 -15 239 -2 348 32 23 7 203 -134 191 -149
-22 -28 -34 -94 -33 -185 l1 -97 -31 55 c-35 64 -109 143 -155 165 -53 25 -89
19 -134 -21 -64 -58 -84 -123 -84 -281 l-1 -133 -26 0 c-23 0 -28 6 -43 61
-35 128 -121 258 -201 305 -122 71 -235 -26 -267 -231 -13 -84 -8 -82 -98 -43
-89 38 -139 77 -150 116 -11 44 -57 306 -105 602 -104 647 -109 772 -40 951
75 196 206 415 404 679 55 74 101 139 101 143 0 24 -115 -73 -199 -167 -126
-143 -324 -490 -376 -659 -36 -119 -48 -225 -37 -332 5 -49 7 -92 5 -94 -11
-14 -311 62 -352 88 -11 7 -7 20 22 67 105 175 145 312 161 545 14 201 -50
508 -152 732 -65 143 -172 293 -253 358 -51 40 -47 31 46 -107 187 -278 282
-565 292 -884 6 -180 -9 -290 -57 -421 -89 -245 -336 -521 -656 -734 -102 -68
-122 -78 -182 -86 -77 -11 -147 -6 -280 23 -52 11 -96 17 -99 14 -11 -10 63
-45 140 -66 66 -18 101 -21 205 -19 l125 3 29 -42 c17 -24 28 -44 27 -45 -72
-38 -104 -88 -143 -222 l-23 -78 -12 63 c-32 161 -125 249 -226 214 -97 -33
-175 -175 -176 -321 0 -59 -9 -64 -60 -37 -22 11 -29 20 -24 32 12 32 6 197
-10 249 -58 196 -266 186 -374 -16 -18 -34 -34 -61 -36 -61 -8 0 -84 130 -100
172 -24 64 -16 120 29 210 86 169 219 348 436 588 67 74 142 163 168 197 l46
62 25 -37 c58 -85 23 47 -62 233 -62 137 -101 252 -128 375 -17 79 -22 143
-26 378 -3 155 -9 282 -13 282 -13 0 -39 -89 -45 -150 -15 -156 -10 -374 11
-485 l6 -34 -159 63 c-180 72 -253 108 -407 200 -61 36 -112 63 -115 60 -11
-12 99 -100 201 -161 112 -68 292 -149 412 -185 l75 -23 22 -69 c11 -39 38
-115 60 -170 21 -55 37 -101 35 -103 -6 -6 -203 80 -330 144 -513 261 -886
666 -1038 1128 -69 211 -93 390 -85 629 8 238 52 439 125 571 51 93 72 69 103
-116 43 -265 137 -462 289 -602 169 -157 422 -226 669 -183 86 15 226 64 260
90 18 14 15 7 -36 -85 -24 -42 -54 -106 -67 -142 -25 -64 -44 -167 -32 -167 3
0 35 60 70 133 215 440 625 844 1079 1062 235 113 438 160 692 160 88 0 186
-4 218 -8 l57 -8 0 -38 c0 -29 -8 -46 -32 -73 -69 -74 -138 -220 -138 -292 0
-47 27 -76 76 -83 31 -4 75 4 168 32 106 30 132 35 159 26 17 -6 56 -13 86
-17 33 -4 63 -15 79 -29 24 -21 25 -25 15 -66 -6 -24 -27 -89 -47 -144 -46
-128 -50 -212 -11 -250 14 -15 36 -25 52 -25 33 0 125 42 214 98 108 68 189
101 330 132 170 37 285 49 277 29 -37 -96 -45 -368 -14 -479 44 -159 132 -295
254 -392 120 -95 244 -149 377 -164 74 -8 65 4 -25 36 -247 88 -416 238 -504
447 -28 67 -56 209 -56 282 1 83 28 254 56 346 15 50 29 108 31 130 l4 40 -30
-33 c-19 -19 -37 -56 -47 -90 l-16 -57 -86 -1 c-54 -1 -148 -14 -247 -34 -125
-25 -174 -31 -224 -26 -116 10 -186 74 -211 193 -17 78 -82 123 -177 123 -48
0 -79 15 -127 64 -51 50 -98 137 -115 211 -6 28 -10 95 -9 150 2 114 -7 142
-74 211 -39 41 -40 42 -39 116 1 131 31 218 106 302 48 53 48 106 -1 230 -34
85 -36 94 -25 136 6 25 32 87 58 139 60 120 136 202 203 219 76 19 93 47 100
156 5 88 7 97 44 150 51 75 143 158 208 190 76 37 131 45 203 28 36 -8 92 -12
141 -10 96 5 144 28 160 76 14 45 115 132 178 154 65 22 194 23 265 2z m-3139
-104 c453 -57 866 -183 1277 -388 145 -72 347 -186 416 -234 l28 -20 -44 -47
c-49 -52 -116 -163 -142 -234 -18 -48 -18 -48 -39 -29 -38 34 -338 238 -471
320 -270 166 -461 265 -983 511 -145 69 -265 128 -268 133 -8 13 60 9 226 -12z
m5485 -489 c-6 -5 -93 -64 -195 -131 -202 -134 -387 -269 -454 -330 l-43 -40
-12 53 c-12 54 -43 109 -88 158 l-24 27 60 36 c149 91 373 178 551 215 101 20
221 28 205 12z m-4144 -846 c79 -8 156 -18 171 -21 l28 -6 -24 -31 c-51 -69
-73 -135 -77 -237 -1 -30 -4 -60 -6 -66 -3 -7 -40 1 -106 23 -290 97 -595 151
-900 160 -109 3 -200 9 -202 13 -14 22 217 100 413 140 203 41 462 50 703 25z
m3596 -230 c49 -42 95 -111 119 -182 l19 -53 -49 -49 -49 -50 -46 39 c-46 38
-155 96 -263 140 l-57 23 40 48 c80 96 116 117 205 118 32 1 48 -6 81 -34z
m-3282 -803 c15 -18 26 -34 24 -36 -14 -12 -170 -56 -198 -56 l-34 0 6 41 c6
45 54 150 88 194 l22 27 32 -69 c17 -37 44 -83 60 -101z m4425 81 c54 -115 65
-335 23 -468 l-19 -60 -65 0 c-47 0 -78 7 -119 26 -64 30 -160 114 -182 160
l-16 31 107 103 c58 57 135 137 171 179 35 42 67 76 71 76 4 0 17 -21 29 -47z
m-3995 -451 c21 -17 60 -36 86 -43 l47 -12 -56 -35 c-132 -80 -156 -93 -182
-98 -49 -10 -47 42 7 198 l27 77 17 -28 c9 -15 34 -42 54 -59z m2208 -1828
c37 -96 93 -213 133 -276 l24 -38 -78 0 c-99 0 -180 -21 -253 -66 -51 -31
-108 -89 -98 -99 2 -1 47 16 99 40 118 53 175 65 293 64 l92 -1 136 -142 c134
-140 250 -297 324 -439 17 -32 39 -60 50 -63 11 -3 73 -31 137 -61 113 -54
117 -57 110 -82 -14 -50 -4 -175 21 -258 13 -46 23 -83 22 -83 -1 0 -21 27
-46 61 -59 82 -215 222 -289 259 -97 49 -154 36 -63 -15 57 -31 132 -87 133
-97 0 -5 -7 -8 -16 -8 -28 0 -83 -68 -99 -122 -19 -65 -19 -165 0 -243 20 -82
17 -101 -5 -38 -47 132 -143 264 -221 304 -61 31 -112 26 -159 -17 -60 -54
-82 -124 -78 -246 l3 -98 -25 0 c-49 0 -188 29 -226 47 -38 18 -40 22 -85 151
-92 264 -201 445 -372 616 -178 178 -217 235 -285 414 l-20 52 46 32 c245 166
500 423 654 659 l52 80 27 -98 c15 -54 43 -139 62 -189z m-1513 -778 c0 -13
-32 -77 -119 -240 -17 -32 -31 -71 -31 -86 0 -23 -6 -29 -40 -39 -22 -6 -52
-23 -67 -37 l-28 -26 35 7 c103 18 116 17 161 -5 71 -36 74 -40 40 -61 -36
-22 -85 -87 -103 -135 -7 -19 -15 -33 -18 -31 -3 1 -31 16 -63 32 l-57 29 -41
106 c-32 83 -119 390 -119 420 0 4 53 12 118 19 64 6 162 22 217 35 124 30
115 29 115 12z m2570 -423 c72 -48 212 -200 246 -265 13 -25 14 -33 2 -43 -18
-18 -114 -51 -168 -59 l-46 -7 -37 118 c-40 128 -62 234 -53 258 7 20 26 19
56 -2z m-2506 -146 c47 -49 106 -158 109 -202 l2 -30 -90 -2 -90 -3 -58 55
-58 55 16 50 c20 60 73 120 105 120 14 0 39 -17 64 -43z m-3419 -1 c39 -42 55
-100 54 -198 -1 -133 -36 -177 -117 -149 -52 18 -131 71 -179 121 l-41 41 20
50 c25 60 85 130 130 152 55 27 96 22 133 -17z m5703 -33 c65 -49 192 -248
192 -302 0 -31 -89 -55 -244 -67 -96 -8 -87 -16 -107 100 -24 141 2 263 62
293 29 15 53 9 97 -24z m-5239 -18 c45 -39 72 -121 78 -241 5 -94 4 -103 -16
-123 -27 -27 -70 -27 -177 -1 -126 30 -133 34 -127 84 25 229 142 365 242 281z
m346 1 c44 -44 125 -229 125 -287 0 -9 -10 -19 -24 -23 -60 -15 -161 -24 -212
-19 l-57 6 7 66 c6 74 57 235 82 263 23 25 50 23 79 -6z m4462 -65 c23 -16 52
-45 66 -63 36 -47 98 -173 104 -213 5 -32 4 -34 -32 -41 -41 -7 -312 0 -321 9
-3 3 -6 47 -6 99 0 201 79 289 189 209z m-1967 -183 c76 -79 193 -280 174
-298 -17 -14 -74 -29 -142 -36 l-69 -6 -17 88 c-22 121 -28 201 -15 246 12 47
29 48 69 6z m-314 -37 c39 -24 95 -92 127 -156 37 -73 72 -194 60 -206 -26
-26 -317 -38 -340 -15 -14 13 -9 248 6 289 17 51 67 107 95 107 11 0 35 -9 52
-19z m-517 -55 c72 -38 185 -223 179 -296 l-3 -35 -60 -3 c-64 -3 -155 9 -246
34 l-56 16 5 56 c6 96 30 162 72 204 41 41 65 46 109 24z"/>
<path d="M6493 7639 c-118 -76 -122 -375 -9 -713 50 -150 150 -335 169 -316 3
3 -19 66 -49 140 -111 271 -161 490 -151 651 9 147 56 218 133 206 104 -17
251 -145 321 -282 70 -136 80 -196 89 -517 6 -221 20 -339 37 -311 4 6 7 136
8 290 1 359 -14 438 -113 605 -49 82 -175 205 -250 242 -66 33 -139 35 -185 5z"/>
<path d="M5213 7586 c-171 -55 -377 -256 -435 -423 -43 -125 -25 -279 45 -390
136 -216 483 -402 872 -468 138 -23 235 -32 224 -20 -3 2 -85 25 -182 49 -238
61 -367 105 -509 176 -205 102 -316 198 -381 330 -30 61 -32 71 -32 175 0 108
1 113 37 186 64 127 208 265 338 320 78 34 196 34 260 0 69 -37 104 -67 163
-139 88 -110 139 -188 242 -367 125 -218 217 -364 249 -394 14 -14 26 -21 26
-17 0 12 -104 206 -209 391 -272 477 -389 597 -586 602 -46 2 -97 -3 -122 -11z"/>
<path d="M6575 6196 c-206 -49 -365 -282 -365 -536 0 -338 296 -624 565 -545
134 39 216 107 274 229 183 382 -13 846 -364 861 -33 2 -82 -3 -110 -9z m237
-82 c160 -72 270 -289 255 -503 -15 -206 -100 -351 -245 -419 -48 -23 -71 -27
-142 -27 -73 0 -93 4 -145 30 -114 55 -212 185 -250 332 -20 75 -19 215 1 284
37 127 126 249 216 295 95 49 210 52 310 8z"/>
<path d="M6765 5848 c-45 -35 -75 -112 -75 -192 0 -87 15 -137 54 -181 41 -46
80 -54 126 -23 108 71 116 298 14 388 -41 36 -80 39 -119 8z"/>
<path d="M3258 5649 c-95 -22 -223 -109 -248 -168 -19 -47 -9 -101 23 -125 60
-44 207 -14 273 56 l29 30 -40 -17 c-103 -44 -207 -59 -233 -33 -55 55 69 174
246 236 19 6 31 16 27 22 -7 12 -25 11 -77 -1z"/>
<path d="M3664 5631 c-70 -25 -110 -57 -134 -106 -28 -58 -25 -82 14 -121 31
-31 42 -35 106 -38 40 -1 119 17 150 35 l35 19 -60 -7 c-94 -12 -174 -7 -196
13 -42 38 -12 107 64 146 50 25 130 48 172 48 29 1 29 1 11 15 -27 20 -100 18
-162 -4z"/>
<path d="M2753 5266 c-66 -31 -137 -97 -174 -161 -42 -73 -38 -114 12 -140 39
-21 85 -19 135 6 57 27 140 119 108 119 -4 0 -26 -16 -50 -35 -93 -77 -184
-87 -184 -20 0 52 102 163 194 211 31 16 56 32 56 37 0 14 -46 6 -97 -17z"/>
<path d="M3895 5184 c-46 -17 -108 -74 -130 -120 -61 -129 67 -225 224 -165
45 17 126 70 118 77 -1 2 -38 -8 -80 -21 -167 -53 -266 -10 -213 93 34 65 117
109 222 119 59 5 65 8 49 20 -25 17 -138 16 -190 -3z"/>
<path d="M3297 5146 c-106 -29 -174 -152 -137 -250 19 -51 104 -65 176 -28 41
21 111 88 102 97 -3 3 -27 -9 -54 -27 -56 -38 -125 -63 -148 -55 -28 11 -49
55 -42 89 15 82 72 127 189 152 60 13 61 14 34 25 -35 14 -59 13 -120 -3z"/>
<path d="M6991 5114 c-114 -95 -195 -123 -351 -125 l-95 -1 60 -20 c149 -49
350 16 425 137 33 54 20 57 -39 9z"/>
<path d="M8044 5055 c-8 -19 37 -85 85 -127 45 -40 121 -88 138 -88 35 0 -14
119 -68 164 -68 57 -143 82 -155 51z"/>
<path d="M5810 4144 c0 -56 146 -211 267 -283 84 -49 203 -90 289 -98 85 -8
84 10 -3 31 -187 47 -334 135 -469 280 -62 67 -84 86 -84 70z"/>
<path d="M2949 2917 c30 -37 114 -67 188 -68 68 -1 133 19 133 40 0 5 -39 6
-87 4 -81 -5 -157 6 -230 34 -16 6 -16 5 -4 -10z"/>
<path d="M6460 1580 c-179 -8 -260 -18 -260 -31 0 -8 38 -10 270 -11 219 -1
544 4 558 9 11 5 4 11 -24 21 -48 17 -318 24 -544 12z"/>
</g>
</svg>
