<?xml version="1.0" standalone="no"?>
<!DOCTYPE svg PUBLIC "-//W3C//DTD SVG 20010904//EN"
 "http://www.w3.org/TR/2001/REC-SVG-20010904/DTD/svg10.dtd">
<svg version="1.0" xmlns="http://www.w3.org/2000/svg"
 width="1024.000000pt" height="1024.000000pt" viewBox="0 0 1024.000000 1024.000000"
 preserveAspectRatio="xMidYMid meet">
<metadata>
Created by potrace 1.16, written by Peter Selinger 2001-2019
</metadata>
<g transform="translate(0.000000,1024.000000) scale(0.100000,-0.100000)"
fill="#000000" stroke="none">
<path d="M3908 9180 c-156 -28 -295 -105 -423 -234 -50 -50 -104 -108 -120
-129 l-30 -38 -60 41 c-130 87 -323 134 -457 110 -108 -20 -201 -70 -282 -152
-101 -103 -149 -207 -182 -393 -3 -18 -11 -20 -106 -20 -96 0 -108 -3 -170
-33 -161 -78 -249 -262 -233 -487 3 -49 10 -110 16 -134 5 -24 8 -45 6 -48 -6
-5 -164 179 -228 267 -31 41 -93 135 -138 207 -116 186 -154 214 -212 152 -51
-55 -64 -121 -64 -324 0 -197 12 -272 67 -440 40 -124 142 -329 227 -457 l71
-106 -34 -51 c-84 -125 -104 -275 -57 -420 77 -233 302 -411 522 -412 l65 0
11 -42 c10 -36 9 -48 -8 -86 -34 -77 -49 -156 -49 -252 0 -98 21 -208 46 -246
14 -23 14 -23 -33 -23 -27 0 -64 -3 -83 -6 -34 -5 -38 -2 -114 85 -119 135
-215 268 -307 423 -45 76 -93 148 -107 158 -77 61 -149 -22 -206 -240 -67
-253 -62 -560 11 -783 l26 -78 -30 -32 c-41 -44 -84 -109 -125 -192 -157 -312
-138 -702 46 -958 142 -200 420 -357 514 -292 12 9 38 44 58 78 20 34 61 93
91 130 l55 68 37 -34 c92 -83 207 -144 336 -177 101 -27 282 -36 393 -21 l84
11 74 -78 74 -77 -5 -95 c-3 -52 -8 -142 -11 -200 -10 -177 18 -482 66 -738
11 -57 20 -106 20 -110 0 -4 -41 -36 -91 -71 -101 -72 -183 -156 -253 -261
-154 -229 -135 -328 71 -376 37 -8 95 -24 127 -35 73 -25 350 -53 501 -51 282
4 620 64 760 134 72 37 97 60 123 117 23 51 26 71 30 208 4 149 -7 306 -32
450 -7 41 -8 73 -3 73 5 0 52 -13 105 -30 174 -53 382 -92 568 -106 l91 -7 7
-71 c4 -39 9 -100 12 -136 l5 -65 -81 -65 c-92 -74 -156 -144 -223 -244 -52
-77 -103 -192 -113 -253 -16 -100 67 -151 276 -168 41 -4 84 -12 95 -19 57
-35 185 -47 565 -49 183 -1 495 73 653 155 137 71 183 148 194 319 l6 86 96 6
c53 3 124 15 158 25 179 56 233 143 236 382 2 120 2 121 27 126 85 19 227 62
291 89 12 4 25 -7 49 -46 17 -28 62 -83 100 -122 l69 -70 -127 -133 c-134
-139 -192 -223 -218 -312 -37 -124 25 -183 215 -207 29 -4 74 -17 100 -28 38
-17 71 -21 201 -25 108 -2 168 -8 198 -19 68 -25 283 -12 438 26 264 65 371
128 426 246 21 45 23 64 22 190 0 169 -25 296 -110 575 -31 102 -65 219 -75
260 -19 76 -25 196 -11 216 4 6 35 18 69 28 158 43 342 141 522 276 133 100
337 306 424 427 176 247 295 527 343 808 27 154 24 410 -5 545 -93 433 -372
849 -569 850 -44 0 -92 -46 -92 -89 0 -16 14 -85 31 -153 73 -292 40 -568 -87
-707 -54 -61 -102 -82 -181 -82 -111 0 -187 50 -282 189 -13 18 -82 148 -155
290 -154 296 -219 412 -323 572 -179 273 -398 520 -623 703 -198 159 -484 302
-737 367 l-43 11 0 87 c0 159 -45 269 -154 378 -76 76 -170 129 -273 155 -45
11 -51 15 -42 30 5 10 18 55 29 101 25 104 27 261 4 339 -78 264 -336 427
-619 391 -49 -7 -100 -15 -112 -18 -21 -6 -23 -3 -23 28 0 58 -37 185 -76 259
-90 170 -289 272 -498 255 -132 -11 -271 -61 -382 -137 l-42 -28 -34 52 c-110
165 -276 263 -461 272 -45 2 -103 0 -129 -5z m223 -98 c128 -34 250 -134 318
-261 17 -33 39 -62 48 -65 10 -4 36 6 67 25 178 113 227 134 348 152 218 32
410 -67 483 -250 22 -56 48 -179 57 -268 3 -28 6 -30 43 -29 22 1 72 8 110 17
241 57 456 -36 557 -241 l43 -85 0 -131 c0 -135 -6 -159 -66 -304 -21 -50 -6
-64 92 -83 110 -22 186 -58 257 -124 150 -139 182 -344 87 -559 -29 -66 -111
-190 -150 -226 -43 -40 -34 -65 43 -114 170 -110 254 -256 255 -441 0 -164
-68 -311 -203 -438 -77 -73 -163 -124 -263 -157 -89 -29 -96 -50 -38 -116 115
-131 106 -285 -26 -425 -146 -154 -326 -217 -587 -206 -147 6 -244 27 -390 83
l-95 36 -11 57 c-24 124 -103 339 -131 357 -15 9 -10 -20 25 -143 46 -161 60
-274 53 -435 -8 -199 -55 -347 -157 -499 -86 -127 -259 -274 -416 -352 -145
-73 -381 -132 -545 -136 -46 -1 -87 -5 -92 -8 -41 -25 132 -41 267 -24 292 37
548 162 742 363 103 106 168 208 214 336 33 93 60 236 60 326 0 51 2 57 18 51
61 -25 166 -59 241 -77 124 -31 371 -31 486 1 277 75 488 267 511 465 9 71
-16 170 -57 226 l-28 39 73 35 c189 91 345 262 406 446 31 90 38 251 16 344
-9 38 -31 96 -49 130 -31 59 -140 179 -201 222 l-29 20 47 64 c46 63 126 214
126 239 0 15 23 11 147 -25 312 -90 599 -281 879 -585 251 -273 397 -493 649
-984 167 -326 250 -436 372 -496 66 -33 206 -34 273 -3 105 49 185 154 232
304 20 67 23 94 22 245 0 145 -4 189 -27 297 -34 161 -34 162 0 154 96 -25
233 -188 334 -400 154 -324 187 -639 102 -1001 -43 -185 -127 -386 -234 -562
-171 -280 -453 -539 -747 -688 -84 -42 -231 -99 -238 -92 -2 1 17 68 42 147
117 379 148 595 125 876 -19 230 -92 544 -128 544 -16 0 -16 5 3 -77 56 -242
78 -599 50 -810 -18 -136 -64 -323 -125 -514 -109 -335 -108 -367 13 -747 65
-203 101 -359 115 -497 22 -207 -11 -280 -159 -355 -32 -16 -86 -37 -120 -47
-66 -18 -79 -13 -80 30 0 33 -42 142 -66 175 -78 102 -229 78 -324 -51 l-27
-37 -7 49 c-11 84 -75 141 -157 141 -48 0 -124 -33 -142 -61 -16 -26 -22 -24
-25 7 -5 62 -51 98 -122 97 -26 0 -58 -4 -71 -8 -17 -6 6 25 76 101 54 60 100
110 101 112 0 1 30 -11 66 -27 100 -46 182 -64 290 -65 53 -1 100 3 104 7 12
12 -13 24 -65 32 -60 8 -235 62 -286 87 -219 110 -378 356 -461 714 -26 112
-28 133 -28 354 -1 182 3 260 17 345 39 237 98 434 198 664 32 74 56 137 54
139 -16 16 -100 -119 -160 -257 -119 -270 -180 -539 -192 -842 -10 -248 25
-458 113 -678 25 -62 42 -117 37 -121 -12 -12 -195 -67 -278 -84 -104 -22
-328 -46 -422 -46 l-83 0 5 58 c54 606 57 1003 7 1020 -9 3 -12 -30 -13 -140
0 -78 -2 -156 -4 -173 -2 -16 -6 -75 -10 -130 -3 -55 -15 -183 -26 -285 -40
-389 -41 -410 -35 -721 4 -169 4 -325 0 -348 -11 -71 -61 -139 -132 -181 -57
-35 -211 -91 -289 -106 -30 -6 -32 -5 -39 32 -38 207 -153 311 -280 254 -27
-11 -68 -39 -90 -61 l-42 -41 -11 35 c-16 48 -89 114 -136 123 -54 10 -111
-11 -166 -63 l-48 -45 -11 40 c-12 46 -69 102 -104 102 -32 0 -125 -29 -154
-48 -24 -16 -25 -15 -14 3 23 44 145 176 217 235 42 35 81 72 86 81 5 11 5 55
-1 116 -63 587 -72 864 -41 1182 12 118 19 217 15 220 -20 20 -52 -85 -80
-264 -25 -154 -30 -547 -10 -712 9 -73 16 -140 16 -148 0 -15 -10 -16 -87 -10
-197 16 -460 72 -678 146 -255 87 -478 197 -717 355 -70 46 -132 84 -138 84
-25 0 -6 -33 48 -79 152 -134 342 -254 543 -342 63 -27 128 -56 145 -64 31
-13 32 -16 48 -122 24 -163 36 -304 35 -417 -1 -175 -16 -224 -88 -273 -60
-41 -247 -92 -397 -109 l-61 -6 -7 50 c-12 95 -35 151 -80 197 -37 39 -48 45
-85 45 -54 0 -99 -19 -150 -65 -35 -32 -41 -34 -41 -18 0 31 -54 98 -93 116
-63 30 -168 16 -218 -29 -16 -14 -18 -13 -24 18 -15 68 -54 82 -148 54 l-47
-14 19 27 c35 49 167 168 244 220 l75 50 -10 48 c-28 142 -57 317 -55 320 2 2
19 -2 38 -9 38 -14 218 -17 262 -5 54 15 25 24 -95 30 -68 3 -143 12 -168 19
l-45 14 -9 97 c-5 54 -7 100 -4 102 11 11 202 -18 269 -41 78 -26 98 -24 59 7
-42 32 -128 59 -208 65 -43 3 -88 7 -102 8 l-25 3 -3 174 c-2 96 0 202 3 236
l6 61 84 -44 c261 -139 601 -178 940 -108 272 57 562 206 715 369 66 71 52 85
-22 22 -373 -316 -981 -441 -1424 -292 -147 49 -249 111 -356 214 -71 67 -79
81 -51 81 59 0 476 170 517 210 28 28 -22 17 -187 -38 -372 -125 -634 -165
-829 -128 -135 26 -257 82 -343 158 l-46 41 23 24 c29 31 184 136 251 170 156
78 327 125 527 143 281 25 333 32 404 50 233 59 393 181 479 363 17 37 37 67
44 67 19 0 131 -44 192 -75 76 -38 90 -20 30 38 -86 82 -242 134 -371 124 -81
-7 -115 -22 -97 -43 6 -8 29 -14 53 -14 22 0 58 -3 78 -6 l38 -7 -33 -61 c-49
-93 -153 -196 -245 -245 -75 -39 -183 -73 -267 -85 -22 -4 -130 -13 -240 -21
-281 -21 -430 -57 -615 -150 -201 -100 -393 -266 -507 -437 -42 -64 -71 -98
-83 -98 -32 0 -193 88 -257 140 -183 148 -288 435 -253 687 23 168 72 304 156
431 l56 82 49 -44 c60 -54 121 -76 208 -76 127 1 255 63 360 176 129 138 156
247 85 341 -13 17 -24 34 -24 37 0 3 53 6 118 6 189 0 274 -31 400 -146 39
-35 73 -64 76 -64 25 0 -17 83 -70 141 l-24 25 123 23 c170 33 250 64 309 121
l48 46 35 -74 c90 -191 297 -305 495 -275 160 25 328 148 398 293 88 180 79
412 -23 581 -113 185 -327 283 -514 235 -143 -37 -275 -140 -341 -268 l-35
-67 -37 72 c-93 177 -286 286 -458 258 -121 -20 -215 -73 -302 -169 -21 -23
-39 -42 -41 -42 -1 0 1 45 5 101 l8 101 -39 39 c-57 57 -85 120 -89 203 -4 64
-3 69 14 61 123 -49 252 -18 374 92 122 109 190 247 170 340 -6 25 -8 48 -6
51 3 3 36 -2 72 -11 104 -26 161 -80 186 -175 19 -77 52 -25 35 57 -7 35 -22
57 -66 102 -66 66 -133 92 -225 88 l-54 -3 -193 156 c-107 85 -237 194 -290
241 -110 98 -105 83 -115 304 -10 197 15 299 98 389 23 25 60 55 82 66 56 29
149 34 218 14 84 -24 108 -7 108 77 0 64 35 189 72 260 38 73 126 166 186 196
57 29 146 51 206 51 109 0 260 -57 361 -137 68 -54 72 -55 93 -44 11 6 47 48
80 94 187 258 455 381 693 319z m-2743 -921 c148 -235 190 -298 265 -391 138
-173 418 -427 722 -656 66 -50 127 -99 135 -109 9 -11 15 -37 14 -64 -2 -142
-213 -341 -361 -341 -83 0 -193 72 -334 217 -249 256 -429 568 -499 863 -24
104 -38 290 -29 386 7 74 28 154 41 154 4 0 25 -27 46 -59z m542 -1547 c44
-28 46 -31 38 -64 -18 -88 25 -220 95 -291 33 -34 35 -39 27 -74 -4 -20 -11
-39 -14 -42 -3 -4 -38 -1 -77 6 -204 37 -382 210 -425 413 -23 109 -7 207 50
294 l20 31 120 -122 c67 -67 141 -135 166 -151z m1693 -428 c138 -66 240 -205
274 -371 53 -260 -101 -527 -342 -589 -292 -77 -554 152 -555 484 0 176 93
364 217 441 83 52 152 69 253 66 80 -3 105 -8 153 -31z m-983 8 c131 -39 241
-148 289 -285 25 -73 23 -334 -3 -373 -42 -65 -130 -104 -291 -130 -55 -9
-115 -19 -134 -22 -20 -3 -35 -12 -38 -23 -4 -16 -11 -15 -74 17 -48 24 -96
38 -152 46 -78 11 -81 13 -94 45 -43 104 -57 261 -33 368 26 114 110 238 208
305 92 63 216 83 322 52z m-1170 -294 c125 -214 224 -349 380 -515 152 -161
155 -168 115 -250 -64 -131 -233 -252 -369 -262 -152 -13 -238 73 -297 294
-16 58 -23 120 -26 245 -6 183 3 277 42 425 22 82 71 201 80 191 1 -1 36 -59
75 -128z m5280 -3670 c0 -117 -13 -187 -44 -232 -43 -64 -142 -100 -307 -111
l-57 -3 -6 70 c-6 74 -9 190 -7 287 l1 56 158 7 c86 5 177 11 202 16 25 4 48
8 53 9 4 0 7 -44 7 -99z m-3902 -322 c22 -22 14 -88 -17 -137 -17 -25 -39 -68
-51 -94 -15 -34 -27 -47 -41 -47 -31 0 -121 29 -143 45 -17 13 -18 19 -8 53
14 46 69 121 107 146 60 40 132 55 153 34z m4531 -24 c32 -41 27 -91 -14 -160
-20 -33 -39 -70 -42 -83 -6 -23 -8 -23 -76 -17 -39 3 -90 15 -114 26 -35 15
-43 24 -43 45 0 68 76 164 153 194 74 28 111 27 136 -5z m-4239 -39 c23 -20
50 -77 50 -102 0 -8 -18 -52 -40 -97 l-41 -81 -102 6 c-121 8 -187 24 -187 45
0 42 107 206 153 235 42 26 136 22 167 -6z m4529 1 c55 -29 80 -142 50 -229
l-18 -52 -91 -3 c-87 -3 -226 10 -237 22 -10 10 28 95 69 157 72 107 151 144
227 105z m-4191 -61 c33 -37 48 -80 58 -161 6 -51 6 -52 -22 -57 -16 -4 -100
-9 -188 -13 l-158 -7 7 24 c23 76 110 194 170 230 16 11 46 19 66 19 30 0 43
-7 67 -35z m4595 7 c32 -33 62 -106 72 -173 l7 -47 -49 -12 c-26 -6 -114 -14
-195 -17 -172 -6 -168 -10 -119 93 73 155 212 231 284 156z m-3144 -102 c20
-10 51 -78 51 -111 0 -12 -19 -59 -42 -105 l-41 -84 -41 0 c-57 0 -166 19
-196 34 -30 14 -29 40 2 106 57 117 194 200 267 160z m335 -40 c39 -23 77 -89
78 -133 0 -17 -12 -67 -28 -109 l-29 -77 -130 3 c-83 2 -144 8 -168 17 l-38
15 45 90 c90 179 185 247 270 194z m386 -50 c16 -11 40 -44 54 -73 26 -53 52
-154 43 -164 -23 -22 -294 -51 -362 -39 -35 7 -37 9 -31 36 8 43 64 153 99
195 36 44 98 75 139 70 16 -2 42 -13 58 -25z"/>
<path d="M3841 8577 c-46 -15 -146 -109 -182 -171 -49 -86 -32 -109 20 -27 40
61 120 138 166 157 49 20 124 18 161 -5 17 -10 41 -35 54 -56 15 -24 26 -33
32 -27 15 15 -31 92 -71 119 -38 26 -118 30 -180 10z"/>
<path d="M4725 8467 c-52 -25 -110 -82 -99 -98 3 -5 22 5 43 22 66 52 155 70
235 47 58 -17 141 -102 156 -159 19 -75 20 -76 32 -55 16 28 -7 116 -42 165
-46 63 -108 94 -199 98 -65 3 -84 0 -126 -20z"/>
<path d="M2845 8332 c-62 -29 -106 -71 -131 -127 -28 -58 -33 -135 -9 -135 10
0 15 10 15 32 0 75 79 173 159 196 84 26 144 10 212 -55 47 -45 63 -26 22 25
-52 64 -77 76 -156 80 -54 2 -82 -2 -112 -16z"/>
<path d="M4118 8313 c-14 -16 -31 -39 -38 -52 -25 -49 -50 -212 -60 -396 -21
-365 -49 -531 -122 -724 -29 -77 -36 -86 -82 -116 -100 -65 -175 -167 -176
-238 0 -41 19 -30 56 34 37 62 120 148 110 113 -13 -43 -9 -130 8 -181 22 -65
87 -139 155 -176 100 -55 266 -69 369 -33 58 21 121 65 148 105 l23 34 12 -29
c7 -16 13 -58 13 -94 1 -54 -4 -73 -27 -112 -31 -54 -75 -90 -129 -108 -44
-14 -49 -27 -13 -36 43 -11 110 22 160 78 82 92 95 206 35 325 l-28 56 26 121
c62 290 17 637 -134 1040 -66 175 -159 360 -195 390 -40 34 -78 33 -111 -1z
m132 -189 c200 -410 292 -847 246 -1164 -27 -184 -44 -247 -77 -285 -80 -91
-267 -111 -401 -44 -89 45 -144 119 -155 207 -5 43 0 56 45 142 126 235 162
402 192 887 13 208 34 334 63 371 16 20 32 -1 87 -114z"/>
<path d="M5404 8041 c-46 -12 -114 -53 -114 -69 0 -10 6 -12 18 -7 101 43 184
48 259 15 100 -44 152 -122 153 -227 0 -66 13 -82 30 -37 14 37 12 119 -4 159
-23 53 -91 120 -148 145 -56 24 -145 34 -194 21z"/>
<path d="M2326 7889 c-67 -11 -126 -95 -126 -179 0 -36 19 -100 30 -100 6 0
10 29 10 64 0 135 63 197 178 173 76 -16 68 14 -9 37 -26 7 -60 10 -83 5z"/>
<path d="M3240 7863 c-1 -5 -1 -71 0 -148 1 -217 -31 -383 -118 -608 -42 -111
-49 -157 -15 -112 30 41 92 174 117 251 42 135 50 192 51 364 0 169 -9 260
-26 260 -5 0 -9 -3 -9 -7z"/>
<path d="M5449 7374 c-111 -74 -213 -155 -389 -307 -166 -143 -196 -172 -182
-181 13 -8 126 76 317 235 83 68 196 162 253 207 93 75 117 102 94 102 -5 0
-47 -25 -93 -56z"/>
<path d="M5919 7260 c-18 -12 -1 -30 27 -30 44 0 114 -41 149 -87 66 -87 70
-197 10 -297 -35 -58 -34 -76 3 -50 40 28 74 100 80 169 8 109 -32 200 -113
257 -41 29 -134 51 -156 38z"/>
<path d="M5624 6710 c-18 -4 -45 -17 -62 -28 -28 -21 -29 -24 -21 -67 11 -61
34 -90 93 -120 77 -39 159 -29 210 24 25 26 28 36 23 72 -6 44 -41 90 -89 115
-29 15 -102 17 -154 4z m172 -73 c38 -41 42 -67 17 -92 -73 -73 -229 -18 -236
83 -2 22 4 29 33 39 19 7 62 11 94 10 53 -3 62 -7 92 -40z"/>
<path d="M6949 6611 c-27 -22 -31 -78 -9 -133 22 -55 96 -152 138 -181 92 -65
206 -85 255 -47 78 61 15 234 -114 316 -93 59 -226 81 -270 45z m152 -41 c110
-35 194 -111 221 -202 10 -34 9 -45 -3 -67 -13 -23 -21 -26 -65 -25 -112 3
-242 115 -284 247 -22 69 17 83 131 47z"/>
<path d="M3325 6573 c-26 -7 -55 -32 -55 -49 0 -18 24 -22 145 -27 114 -5 231
-38 307 -86 26 -16 55 -31 65 -33 30 -5 25 26 -11 68 -42 50 -132 99 -217 119
-61 14 -190 18 -234 8z"/>
<path d="M5200 6543 c-61 -32 -96 -78 -86 -117 9 -36 55 -87 93 -102 43 -18
107 -18 147 1 82 39 89 168 12 219 -48 31 -105 31 -166 -1z m120 -18 c74 -39
82 -127 13 -163 -32 -18 -105 -15 -133 5 -75 52 -64 119 25 159 39 17 60 17
95 -1z"/>
<path d="M2486 6540 c-70 -25 -131 -65 -174 -115 -59 -67 -40 -72 62 -16 87
48 133 61 255 71 107 10 126 20 94 52 -33 32 -157 36 -237 8z"/>
<path d="M6110 6246 c0 -8 11 -17 24 -20 37 -9 87 -56 107 -101 41 -90 11
-196 -81 -278 -28 -26 -56 -47 -61 -47 -5 0 -9 -4 -9 -10 0 -17 41 -11 76 11
181 111 188 370 12 444 -46 19 -68 19 -68 1z"/>
<path d="M5603 6061 c-73 -34 -98 -99 -65 -173 57 -129 261 -167 317 -58 42
80 -10 194 -107 235 -49 20 -94 19 -145 -4z m137 -43 c59 -31 83 -66 84 -123
1 -60 -26 -85 -91 -85 -114 0 -208 113 -152 183 40 52 91 59 159 25z"/>
<path d="M7546 6058 c-43 -61 -1 -209 85 -303 67 -73 129 -98 182 -74 82 37
60 195 -43 312 -72 81 -189 115 -224 65z m129 -41 c76 -43 145 -162 145 -249
0 -31 -5 -40 -22 -47 -58 -21 -138 42 -194 153 -32 65 -45 141 -27 159 13 14
59 6 98 -16z"/>
<path d="M7063 5965 c-68 -48 -32 -225 64 -317 86 -82 177 -101 234 -50 40 36
49 97 24 173 -43 128 -245 250 -322 194z m127 -52 c73 -36 133 -98 153 -158
22 -64 21 -101 -3 -125 -26 -26 -62 -25 -118 2 -87 44 -152 147 -152 243 0 72
32 82 120 38z"/>
<path d="M8032 5378 c-16 -16 -15 -114 2 -172 37 -124 157 -196 220 -133 22
22 23 28 14 81 -5 32 -15 71 -24 88 -25 48 -86 110 -129 129 -47 22 -67 23
-83 7z m98 -67 c73 -58 129 -198 86 -214 -28 -11 -83 19 -110 60 -22 33 -55
142 -56 181 0 19 37 6 80 -27z"/>
<path d="M7615 5368 c-50 -18 -75 -47 -75 -88 0 -130 153 -295 242 -261 70 26
81 122 27 228 -50 98 -125 146 -194 121z m85 -55 c35 -24 47 -40 75 -98 27
-54 33 -123 13 -143 -52 -52 -185 70 -204 187 -6 36 -4 46 11 58 26 18 76 16
105 -4z"/>
<path d="M6857 5358 c-48 -26 -62 -139 -27 -208 51 -100 177 -170 252 -141 16
6 37 25 49 43 37 61 7 170 -68 240 -57 53 -166 89 -206 66z m100 -50 c96 -42
152 -127 144 -220 0 -10 -11 -24 -24 -32 -72 -48 -227 82 -227 189 0 71 37 93
107 63z"/>
<path d="M5917 5313 c-4 -3 -7 -15 -7 -25 0 -33 -38 -95 -80 -130 -55 -48
-127 -70 -239 -74 -52 -2 -96 -5 -98 -8 -3 -2 6 -10 19 -17 37 -21 192 -18
256 6 104 38 171 122 172 213 0 39 -8 51 -23 35z"/>
<path d="M2164 4946 c-76 -33 -157 -135 -194 -241 -21 -62 -14 -96 12 -54 118
194 206 278 253 239 33 -27 6 -103 -67 -190 -32 -39 -58 -74 -58 -80 0 -37
100 33 147 104 64 95 65 189 3 221 -35 18 -55 18 -96 1z"/>
<path d="M9003 4418 c4 -13 15 -57 27 -98 43 -156 49 -359 16 -548 -7 -42 -9
-75 -4 -79 13 -8 14 -5 39 82 30 111 38 339 15 457 -17 85 -69 208 -88 208 -6
0 -8 -10 -5 -22z"/>
<path d="M7323 3415 c-70 -13 -158 -47 -198 -78 -38 -29 -6 -28 87 3 138 47
271 53 397 16 109 -31 107 -31 90 -9 -32 38 -186 84 -274 82 -16 0 -62 -7
-102 -14z"/>
<path d="M6637 3323 c-3 -5 -8 -44 -12 -88 -13 -161 -50 -369 -80 -455 -34
-95 -9 -110 28 -16 55 136 87 308 87 465 0 89 -8 119 -23 94z"/>
<path d="M5266 3225 c-95 -24 -204 -90 -183 -111 2 -2 36 10 76 27 156 65 322
74 478 24 98 -31 114 -32 87 -4 -12 11 -52 32 -90 46 -87 33 -273 42 -368 18z"/>
<path d="M7230 3121 c0 -31 127 -71 228 -71 76 0 152 18 152 35 0 10 -24 12
-102 8 -95 -5 -200 8 -260 32 -11 4 -18 3 -18 -4z"/>
<path d="M4547 2984 c-64 -33 -233 -89 -330 -109 -107 -21 -327 -38 -412 -31
-67 5 -119 -6 -85 -18 37 -13 154 -26 242 -26 225 0 451 58 602 154 85 55 73
77 -17 30z"/>
<path d="M5140 2883 c0 -31 91 -74 202 -97 149 -31 363 -11 363 34 0 8 -7 13
-15 11 -121 -28 -320 -17 -442 25 -40 13 -81 27 -90 31 -10 3 -18 1 -18 -4z"/>
<path d="M7689 2796 c-140 -58 -282 -66 -417 -22 -46 15 -86 25 -89 22 -11
-11 19 -34 80 -61 125 -57 339 -43 445 29 42 29 65 57 45 56 -4 -1 -33 -11
-64 -24z"/>
<path d="M5080 2552 c0 -27 94 -76 187 -98 128 -30 309 -6 327 43 9 23 6 24
-53 6 -88 -25 -253 -14 -366 26 -102 35 -95 34 -95 23z"/>
<path d="M3096 2142 c-11 -17 10 -23 112 -32 53 -5 119 -14 145 -20 77 -17 88
6 19 37 -45 19 -266 31 -276 15z"/>
<path d="M5165 1962 c-60 -14 -28 -27 85 -34 63 -3 162 -16 218 -28 99 -20
134 -20 102 1 -8 5 -51 21 -95 35 -83 27 -247 41 -310 26z"/>
<path d="M3372 5805 c-37 -31 -57 -105 -47 -173 19 -126 100 -172 171 -97 64
68 68 226 7 275 -37 29 -94 26 -131 -5z"/>
<path d="M2561 5804 c-99 -83 -44 -334 68 -309 61 13 101 90 101 192 0 69 -13
99 -52 123 -44 27 -80 25 -117 -6z"/>
</g>
</svg>
