<?xml version="1.0" encoding="UTF-8" standalone="yes"?>
<svg version="1.0" xmlns="http://www.w3.org/2000/svg" width="1024.000000pt" height="1024.000000pt" viewBox="0 0 1024.000000 1024.000000" preserveAspectRatio="xMidYMid meet">
  <metadata>
Created by potrace 1.16, written by Peter Selinger 2001-2019
</metadata>
  <g transform="translate(0.000000,1024.000000) scale(0.100000,-0.100000)" fill="#000000" stroke="none">
    <path d="M792 8850 c-143 -20 -212 -55 -212 -108 0 -47 16 -59 137 -97 246&#xA;-77 478 -223 704 -443 189 -183 309 -343 409 -547 115 -233 194 -617 245&#xA;-1195 43 -483 132 -826 302 -1160 190 -371 494 -708 772 -853 47 -25 109 -52&#xA;136 -61 37 -12 58 -27 80 -57 17 -22 78 -87 137 -145 l106 -103 -36 -8 c-21&#xA;-4 -67 -7 -103 -7 -81 0 -142 28 -244 109 -104 84 -138 99 -216 99 -52 0 -77&#xA;-6 -120 -28 -120 -63 -209 -149 -471 -456 -398 -466 -645 -639 -955 -666 -89&#xA;-8 -103 -15 -103 -56 0 -57 50 -118 142 -174 96 -59 188 -85 318 -93 l115 -6&#xA;-78 -33 c-79 -33 -200 -62 -262 -62 -37 0 -65 -22 -65 -51 0 -51 122 -139 245&#xA;-175 80 -24 230 -24 309 0 73 22 174 72 241 120 27 20 61 36 74 36 36 0 161&#xA;70 209 117 76 76 171 237 324 551 83 169 152 309 154 311 2 2 38 -25 81 -60&#xA;162 -130 342 -232 513 -290 79 -27 111 -32 190 -33 90 -1 99 1 174 37 43 20&#xA;128 71 188 113 61 41 111 74 113 72 47 -57 122 -229 206 -476 38 -111 83 -230&#xA;100 -265 64 -126 153 -220 478 -502 102 -88 243 -211 315 -273 240 -208 347&#xA;-276 436 -276 126 1 321 163 754 627 71 76 139 145 152 154 22 14 27 12 84&#xA;-24 116 -73 107 -70 127 -50 15 14 18 33 17 97 -1 57 2 80 10 80 33 0 119 -34&#xA;191 -75 44 -25 89 -44 100 -43 29 4 31 70 6 163 -44 160 -97 257 -193 353&#xA;-111 112 -243 166 -403 166 -162 0 -343 -20 -407 -44 -157 -59 -296 -220 -459&#xA;-535 -40 -77 -73 -141 -73 -142 -1 -1 -42 32 -91 74 -50 42 -152 127 -228 190&#xA;-324 269 -447 493 -502 908 -9 66 -19 183 -22 260 l-6 140 79 3 c82 3 252 40&#xA;409 91 152 48 143 48 244 -4 48 -26 101 -57 117 -70 l28 -23 -24 -52 c-27 -57&#xA;-84 -114 -136 -136 -18 -8 -57 -14 -87 -14 -29 0 -58 -5 -65 -12 -39 -39 16&#xA;-131 105 -174 53 -26 68 -29 163 -29 101 0 108 2 183 37 74 36 78 36 72 15 -4&#xA;-12 -25 -49 -47 -81 -51 -74 -62 -138 -28 -156 29 -15 86 -1 188 47 136 64&#xA;263 211 292 338 18 80 14 204 -9 266 -35 93 -142 197 -293 285 -37 21 -68 41&#xA;-68 44 0 3 28 24 63 47 34 23 86 62 115 87 30 25 55 46 57 46 1 0 30 -49 63&#xA;-109 116 -207 235 -278 381 -226 82 28 270 164 387 277 l61 60 41 -12 c98 -30&#xA;192 -143 192 -232 0 -87 45 -103 103 -39 20 22 43 54 53 72 32 63 65 175 71&#xA;242 3 37 9 67 13 67 3 0 25 -16 47 -35 44 -38 81 -111 85 -170 3 -44 36 -68&#xA;63 -45 29 24 65 107 77 179 39 229 -103 463 -330 542 -79 28 -217 24 -282 -8&#xA;-25 -12 -108 -82 -185 -155 -194 -184 -342 -298 -366 -283 -13 9 -52 87 -90&#xA;182 -55 138 -55 131 -6 230 109 217 195 500 268 888 23 121 44 225 48 232 4 8&#xA;39 -9 106 -51 256 -159 563 -312 770 -384 192 -67 384 -89 504 -58 116 30 184&#xA;91 183 165 -1 50 -19 85 -81 156 l-49 56 19 54 c30 86 22 152 -21 175 -17 9&#xA;-36 7 -90 -9 -85 -26 -88 -26 -100 2 -5 12 -40 95 -79 185 -39 89 -74 174 -77&#xA;187 l-6 24 49 -15 c96 -29 373 -81 558 -105 297 -38 785 -20 887 32 104 53&#xA;163 264 147 519 -16 244 -130 463 -307 594 -64 47 -250 143 -397 206 -116 50&#xA;-369 177 -469 236 -45 27 -52 36 -85 120 -48 119 -105 201 -166 239 -43 27&#xA;-56 30 -124 29 -53 -1 -98 -9 -148 -27 l-72 -25 -91 34 c-108 41 -239 73 -455&#xA;111 -212 37 -423 39 -560 5 -307 -76 -587 -254 -733 -465 -151 -219 -222 -471&#xA;-222 -787 0 -176 19 -342 76 -650 75 -411 52 -709 -65 -842 -68 -78 -144 -77&#xA;-396 5 -418 136 -679 186 -979 188 -181 0 -317 -14 -530 -57 -190 -38 -305&#xA;-44 -401 -19 -167 44 -376 238 -509 473 -98 174 -165 360 -241 677 -92 380&#xA;-172 592 -306 812 -137 223 -352 445 -569 586 -288 186 -649 302 -980 312 -69&#xA;2 -153 0 -188 -5z m448 -104 c610 -124 1093 -505 1340 -1056 76 -167 119 -299&#xA;186 -570 116 -467 221 -705 410 -930 139 -164 341 -290 468 -290 l31 0 -35&#xA;-27 c-50 -40 -131 -115 -127 -120 2 -2 51 20 108 48 204 100 462 168 719 189&#xA;332 27 656 -28 1180 -200 257 -85 377 -57 462 107 108 208 116 471 28 935 -96&#xA;503 -89 757 29 1064 113 293 345 502 681 613 303 101 590 78 1119 -91 120 -38&#xA;141 -49 451 -231 286 -169 500 -280 670 -351 138 -57 327 -154 391 -201 128&#xA;-94 226 -236 264 -380 65 -253 24 -553 -84 -609 -53 -28 -172 -39 -406 -40&#xA;-311 -1 -490 16 -790 78 -259 53 -392 92 -675 201 -237 91 -358 146 -549 249&#xA;-197 107 -281 136 -400 138 -194 1 -294 -71 -321 -233 -19 -114 14 -263 87&#xA;-389 48 -83 206 -242 343 -346 58 -44 104 -87 104 -95 -1 -8 -16 -86 -33 -174&#xA;-96 -488 -155 -693 -270 -930 -106 -220 -195 -349 -350 -508 -87 -90 -255&#xA;-217 -286 -217 -14 0 -241 111 -284 139 -10 6 1 26 50 84 136 162 218 322 227&#xA;439 7 94 -6 119 -24 48 -35 -135 -161 -342 -288 -474 -42 -44 -76 -87 -76 -96&#xA;0 -17 236 -158 390 -235 159 -79 326 -215 370 -302 21 -40 25 -62 25 -138 0&#xA;-81 -3 -97 -32 -158 -52 -110 -186 -224 -303 -257 -37 -10 -37 -5 -4 43 64 95&#xA;91 191 60 216 -12 11 -11 19 9 59 32 64 57 156 53 189 -4 26 -6 25 -27 -22&#xA;-87 -193 -128 -248 -213 -286 -78 -35 -204 -34 -272 1 -53 27 -70 50 -39 50&#xA;42 0 116 34 161 75 52 47 106 138 117 196 10 52 -24 85 -162 159 -160 85 -361&#xA;206 -411 247 -121 99 -104 183 121 606 55 103 97 191 93 194 -16 17 -99 -94&#xA;-196 -262 -75 -131 -121 -229 -149 -321 -19 -58 -20 -75 -10 -123 17 -88 58&#xA;-136 199 -228 67 -45 118 -83 113 -86 -39 -23 -389 -110 -495 -122 l-58 -7 0&#xA;136 c0 299 -68 580 -198 818 -50 93 -262 407 -274 408 -18 1 -3 -34 80 -186&#xA;170 -310 226 -439 272 -625 40 -160 59 -344 61 -583 5 -576 90 -899 300 -1151&#xA;79 -93 124 -135 410 -377 179 -151 188 -162 183 -206 l-5 -37 18 24 c9 13 34&#xA;61 56 107 93 203 232 428 319 520 84 89 202 154 280 154 l28 0 -33 -49 c-38&#xA;-55 -66 -144 -75 -240 l-7 -65 -45 -17 c-61 -22 -125 -81 -155 -140 -39 -75&#xA;-30 -77 38 -8 69 71 130 99 217 99 62 0 180 -31 264 -69 l68 -30 -173 -188&#xA;c-257 -280 -334 -357 -442 -444 -99 -80 -200 -139 -236 -139 -32 0 -148 66&#xA;-220 123 -36 30 -122 105 -191 167 -69 62 -188 167 -265 233 -391 337 -427&#xA;374 -504 517 -22 41 -65 152 -97 245 -170 509 -246 621 -594 878 -74 55 -177&#xA;131 -229 170 -336 249 -494 466 -577 792 -23 87 -27 128 -31 318 -3 120 -9&#xA;215 -14 210 -19 -20 -40 -139 -46 -258 -9 -191 29 -385 108 -550 15 -32 26&#xA;-61 24 -63 -8 -9 -67 18 -132 61 -220 142 -459 395 -600 635 -204 347 -351&#xA;857 -378 1312 -21 363 -75 686 -160 963 -50 164 -195 430 -318 585 -121 152&#xA;-323 336 -502 457 -83 56 -346 186 -428 211 -109 34 -16 55 223 49 127 -2 194&#xA;-9 290 -29z m7006 -318 c16 -13 40 -36 54 -52 28 -32 101 -148 96 -153 -3 -3&#xA;-333 191 -345 202 -7 8 67 23 115 24 39 1 58 -4 80 -21z m-1433 -1239 c58 -16&#xA;102 -69 220 -264 151 -250 204 -322 342 -461 180 -182 327 -294 615 -469 239&#xA;-146 335 -191 412 -197 41 -3 29 -20 -28 -41 -73 -26 -257 -18 -381 17 -257&#xA;73 -627 258 -963 482 -193 128 -291 206 -400 320 -128 134 -180 249 -180 399&#xA;0 152 80 224 250 225 41 0 92 -5 113 -11z m485 -307 c101 -32 202 -113 330&#xA;-267 42 -51 95 -123 117 -161 47 -80 95 -188 95 -214 0 -11 5 -22 10 -25 16&#xA;-10 12 105 -6 166 -24 81 -98 217 -179 332 -40 56 -69 103 -65 105 5 2 61 -17&#xA;127 -42 65 -24 142 -52 171 -62 63 -20 91 -52 127 -148 33 -87 41 -168 25&#xA;-248 -13 -69 -57 -163 -88 -192 -21 -18 -22 -17 -104 39 -235 162 -475 380&#xA;-597 543 -68 90 -111 160 -111 180 0 18 78 15 148 -6z m885 -759 c17 -84 28&#xA;-155 25 -158 -7 -7 -112 44 -169 82 l-38 25 24 32 c31 41 71 128 86 191 l13&#xA;50 14 -35 c8 -19 29 -104 45 -187z m207 54 c0 -18 -11 -56 -25 -83 -25 -49&#xA;-70 -102 -80 -93 -10 11 -27 161 -19 169 11 11 83 37 107 39 13 1 17 -7 17&#xA;-32z m48 -265 l35 -42 -35 0 c-29 0 -136 26 -146 35 -2 2 14 19 35 39 44 40&#xA;53 38 111 -32z m-856 -902 c65 -25 161 -95 206 -152 57 -73 75 -116 80 -200 5&#xA;-80 -4 -168 -17 -168 -4 0 -13 16 -20 36 -18 51 -64 98 -134 141 -34 20 -84&#xA;56 -110 80 -26 25 -69 54 -94 65 -62 27 -161 35 -188 15 -19 -15 -19 -16 10&#xA;-22 154 -32 208 -62 245 -136 24 -45 25 -82 6 -182 -14 -70 -49 -161 -66 -172&#xA;-5 -3 -16 17 -25 45 -33 100 -145 191 -259 210 -51 9 -51 8 -86 -30 -51 -55&#xA;-236 -201 -316 -248 -96 -57 -152 -69 -208 -48 -24 9 -64 38 -89 63 -45 45&#xA;-157 233 -157 263 0 8 23 41 50 74 28 32 76 94 107 137 31 44 60 79 63 79 4 0&#xA;15 -21 25 -47 10 -27 38 -92 63 -146 49 -105 62 -116 124 -103 67 13 194 113&#xA;398 311 63 62 126 118 140 125 65 35 176 39 252 10z m-4470 -843 c171 -139&#xA;225 -167 327 -174 37 -3 105 2 156 11 l89 16 37 -25 c21 -13 127 -91 236 -173&#xA;187 -140 333 -275 333 -306 0 -37 -243 -195 -331 -216 -165 -40 -475 95 -775&#xA;336 -100 81 -141 102 -158 83 -8 -8 -8 -13 2 -16 19 -7 14 -29 -23 -101 -19&#xA;-37 -95 -191 -169 -342 -179 -368 -248 -471 -355 -525 l-34 -17 46 60 c56 72&#xA;94 142 103 187 10 57 0 59 -32 8 -36 -57 -143 -199 -196 -257 -33 -38 -125&#xA;-101 -157 -108 -8 -2 -15 7 -17 22 -10 58 -26 99 -59 155 -24 40 -32 61 -24&#xA;64 35 11 126 66 178 106 101 77 183 189 209 288 15 54 -1 45 -43 -24 -81 -133&#xA;-215 -244 -362 -301 -93 -36 -109 -35 -87 7 22 43 28 107 14 151 -7 21 -35 59&#xA;-63 87 -27 26 -48 49 -46 51 166 117 342 284 522 495 274 322 380 423 500 477&#xA;51 23 138 14 179 -19z m-1206 -1029 c73 -57 90 -106 58 -174 -25 -53 -78 -94&#xA;-122 -94 -106 0 -299 73 -371 140 -41 39 -35 44 58 54 75 8 196 46 261 81 59&#xA;31 65 31 116 -7z m4929 -118 c201 -51 357 -207 419 -419 24 -83 23 -85 -41&#xA;-52 -66 33 -154 61 -193 61 -23 0 -28 7 -44 58 -47 153 -140 285 -240 343&#xA;l-51 29 36 0 c20 0 71 -9 114 -20z m-175 -53 c66 -24 161 -115 203 -194 31&#xA;-59 90 -271 85 -310 l-3 -25 -62 46 c-108 81 -296 161 -409 172 l-64 7 0 38&#xA;c0 95 40 206 96 266 37 39 49 39 154 0z m-4582 -213 c34 -42 55 -105 50 -155&#xA;-3 -30 -8 -36 -43 -48 -56 -19 -190 -25 -256 -12 -64 13 -168 60 -188 84 -12&#xA;15 -11 17 12 17 80 0 285 76 347 128 34 29 44 27 78 -14z"/>
    <path d="M7110 8403 c-118 -33 -210 -105 -252 -199 -29 -68 -12 -70 42 -6 97&#xA;118 159 151 295 159 198 12 397 -62 594 -221 109 -88 111 -88 51 -2 -94 136&#xA;-196 206 -370 256 -106 30 -273 36 -360 13z"/>
    <path d="M7243 8175 c-191 -59 -326 -268 -309 -476 26 -319 263 -528 551 -488&#xA;144 20 271 109 339 238 179 341 -73 743 -464 740 -41 0 -94 -6 -117 -14z m228&#xA;-71 c220 -66 349 -231 349 -449 0 -225 -195 -390 -438 -372 -184 14 -325 142&#xA;-377 343 -54 207 53 422 238 480 58 18 163 17 228 -2z"/>
    <path d="M7561 7844 c-90 -63 -96 -317 -10 -378 73 -51 166 37 188 179 17 113&#xA;-39 215 -118 215 -20 0 -47 -7 -60 -16z"/>
    <path d="M9090 7385 c-17 -21 -5 -58 32 -100 31 -36 88 -73 88 -57 0 4 -6 16&#xA;-13 27 -41 59 -49 75 -38 75 17 0 107 -87 132 -126 25 -40 39 -43 39 -9 0 53&#xA;-49 119 -134 183 -33 25 -88 29 -106 7z"/>
    <path d="M1058 4361 c-106 -8 -137 -27 -57 -35 87 -9 238 -15 489 -21 129 -4&#xA;244 -8 255 -10 52 -10 531 -16 545 -6 25 17 -2 32 -76 41 -167 21 -995 43&#xA;-1156 31z"/>
    <path d="M683 3883 c-27 -5 -30 -18 -5 -28 20 -8 233 -21 487 -30 99 -4 194&#xA;-8 210 -10 17 -2 165 -7 330 -11 267 -6 302 -5 313 9 22 26 -9 34 -173 47&#xA;-266 20 -1093 37 -1162 23z"/>
    <path d="M2578 2253 c-10 -2 -18 -11 -18 -18 0 -18 56 -23 395 -40 61 -3 189&#xA;-10 285 -15 96 -5 282 -13 413 -16 210 -6 237 -5 237 8 0 25 -15 27 -405 53&#xA;-244 16 -881 36 -907 28z"/>
    <path d="M3223 1625 c-13 -37 70 -66 407 -144 140 -33 311 -73 380 -90 287&#xA;-69 417 -85 427 -55 7 21 -27 42 -134 84 -205 79 -569 173 -797 205 -141 20&#xA;-275 20 -283 0z"/>
    <path d="M3935 1630 c-19 -31 56 -63 285 -121 207 -53 368 -96 467 -124 322&#xA;-93 473 -66 169 30 -157 49 -618 172 -768 204 -109 23 -144 26 -153 11z"/>
    <path d="M4412 1618 c9 -26 89 -58 338 -136 384 -120 515 -158 631 -182 157&#xA;-32 234 -18 156 28 -122 72 -675 239 -947 287 -107 19 -183 20 -178 3z"/>
    <path d="M2587 1602 c-4 -5 -1 -15 7 -21 13 -11 41 -17 371 -81 88 -17 239&#xA;-49 335 -71 397 -91 461 -101 476 -78 20 34 -187 97 -571 174 -317 64 -605&#xA;100 -618 77z"/>
    <path d="M5085 1591 c-17 -29 86 -79 324 -157 298 -99 607 -179 715 -186 125&#xA;-8 22 53 -229 135 -288 94 -735 217 -789 217 -8 0 -17 -4 -21 -9z"/>
    <path d="M2280 1537 c0 -13 58 -35 125 -46 108 -19 251 -46 473 -91 204 -40&#xA;276 -48 287 -30 20 33 -255 109 -529 146 -127 17 -356 30 -356 21z"/>
    <path d="M5712 1522 c-56 -18 62 -60 503 -181 324 -88 438 -112 457 -93 19 19&#xA;-7 38 -90 71 -143 55 -649 182 -793 199 -36 5 -71 6 -77 4z"/>
    <path d="M1900 1491 c-8 -6 -11 -13 -7 -17 4 -4 107 -20 229 -35 123 -16 285&#xA;-37 361 -47 104 -14 141 -16 153 -7 33 23 -16 40 -221 74 -184 30 -488 49&#xA;-515 32z"/>
    <path d="M6350 1449 c0 -25 169 -79 424 -134 336 -72 376 -22 56 70 -209 60&#xA;-480 96 -480 64z"/>
  </g>
  <title>Velociraptor Running</title>
  <desc>Velociraptor Running</desc>
</svg>