<?xml version="1.0" standalone="no"?>
<!DOCTYPE svg PUBLIC "-//W3C//DTD SVG 20010904//EN"
 "http://www.w3.org/TR/2001/REC-SVG-20010904/DTD/svg10.dtd">
<svg version="1.0" xmlns="http://www.w3.org/2000/svg"
 width="1200.000000pt" height="400.000000pt" viewBox="0 0 1200.000000 400.000000"
 preserveAspectRatio="xMidYMid meet">
<metadata>
Created by potrace 1.16, written by Peter Selinger 2001-2019
</metadata>
<g transform="translate(0.000000,400.000000) scale(0.100000,-0.100000)"
fill="#000000" stroke="none">
<path d="M2 2003 l3 -1998 1785 0 1785 0 102 1010 c57 556 105 1037 108 1071
2 33 45 466 95 962 49 495 90 912 90 926 l0 26 -1985 0 -1985 0 2 -1997z
m3918 1945 c1 -7 -41 -430 -91 -939 l-93 -927 -155 54 c-198 67 -405 128 -498
145 -40 7 -73 16 -73 20 0 3 15 17 33 30 72 52 397 323 397 331 0 5 -7 11 -16
15 -19 7 -285 -21 -431 -46 -57 -9 -103 -16 -103 -15 0 1 54 100 121 220 152
274 246 461 235 471 -11 12 -156 -68 -436 -242 -135 -83 -251 -155 -259 -160
-8 -5 -12 -4 -8 1 9 15 97 488 97 523 0 50 -23 38 -101 -51 -67 -78 -231 -292
-254 -333 -9 -14 -19 13 -53 133 -40 140 -161 535 -177 575 -14 34 -34 15 -63
-60 -42 -110 -154 -437 -195 -568 l-33 -110 -143 180 c-79 99 -155 197 -170
217 -22 32 -51 50 -51 32 0 -3 11 -87 24 -187 14 -100 28 -227 32 -282 l7 -99
-24 15 c-13 9 -46 29 -74 44 -27 16 -166 100 -307 187 -142 87 -265 158 -274
158 -12 0 -15 -6 -10 -26 12 -45 180 -395 248 -516 37 -65 64 -118 60 -118 -3
0 -122 26 -264 57 -315 69 -320 68 -203 -44 97 -91 284 -256 343 -302 l43 -34
-288 -72 c-158 -40 -333 -89 -388 -109 -55 -20 -101 -36 -102 -36 -2 0 -3 -7
-3 -16 0 -31 305 -149 607 -235 84 -24 153 -46 153 -49 -1 -3 -53 -44 -118
-92 -137 -101 -342 -274 -342 -288 0 -21 165 -6 445 40 66 10 121 17 123 15 2
-2 -16 -32 -41 -67 -95 -133 -327 -562 -327 -603 0 -8 5 -15 10 -15 25 0 548
281 654 351 53 35 58 37 53 16 -15 -59 -37 -207 -51 -342 -9 -83 -18 -167 -21
-188 -4 -31 -2 -38 10 -35 18 4 244 297 306 397 24 39 46 70 49 71 3 0 28 -75
54 -167 84 -286 195 -620 211 -633 12 -10 18 -5 36 36 48 114 212 629 227 715
l7 40 142 -189 c159 -211 218 -280 228 -270 10 9 -11 193 -46 397 -16 96 -27
176 -26 177 2 2 25 -12 53 -30 60 -41 432 -259 548 -321 85 -46 106 -53 106
-34 0 33 -281 572 -353 678 -25 36 -27 43 -11 37 34 -14 476 -86 525 -86 35 0
47 3 43 12 -7 18 -153 140 -322 272 l-144 111 49 13 c117 31 459 135 562 170
l112 39 -5 -36 c-3 -20 -46 -450 -96 -956 -50 -506 -93 -930 -96 -943 l-4 -22
-1740 0 -1740 0 0 1955 0 1955 1935 0 c1541 0 1935 -3 1935 -12z m-1786 -549
c73 -235 119 -400 114 -404 -2 -1 -49 2 -105 8 l-101 11 -7 73 c-4 40 -10 73
-13 73 -4 0 -6 -34 -4 -75 l4 -75 -49 0 c-26 0 -77 -5 -113 -10 -35 -5 -66 -8
-68 -6 -4 5 74 244 171 525 l71 205 12 -40 c7 -21 46 -150 88 -285z m427 -249
c-28 -139 -52 -254 -55 -257 -2 -2 -30 9 -62 25 -33 16 -83 37 -111 46 -61 20
-62 14 17 131 70 104 249 320 257 311 2 -2 -19 -117 -46 -256z m-909 -45 c53
-66 94 -121 90 -123 -4 -1 -56 -23 -117 -48 -160 -66 -145 -67 -145 9 0 62
-24 325 -36 397 -5 32 -2 30 53 -40 32 -41 101 -129 155 -195z m1442 -51
c-106 -198 -226 -414 -248 -446 -11 -15 -18 -11 -63 41 l-52 58 49 59 c27 32
47 60 45 62 -1 2 -25 -20 -52 -49 l-50 -52 -60 49 c-33 27 -73 59 -89 70 -16
12 -27 24 -24 27 3 3 118 74 255 158 249 152 387 231 392 225 2 -1 -45 -92
-103 -202z m-1964 -10 c171 -102 310 -189 310 -194 0 -5 -21 -23 -46 -41 -25
-17 -61 -44 -79 -60 l-33 -29 -37 51 c-47 66 -57 57 -12 -11 l36 -53 -51 -63
c-50 -62 -52 -63 -71 -46 -11 9 -44 59 -74 110 -84 143 -271 522 -257 522 2 0
144 -84 314 -186z m1046 -79 c308 -54 554 -236 698 -515 75 -145 98 -233 103
-395 5 -154 -12 -266 -60 -385 -63 -155 -219 -348 -356 -440 -90 -60 -211
-114 -316 -141 -76 -19 -115 -23 -245 -23 -141 1 -166 4 -275 32 -318 83 -528
263 -646 554 -39 95 -59 211 -59 343 0 147 47 346 109 461 201 372 631 581
1047 509z m-1284 -334 c111 -27 215 -54 230 -60 l28 -10 -29 -47 c-16 -25 -42
-80 -57 -122 -15 -43 -29 -79 -30 -81 -7 -9 -181 137 -295 248 l-124 120 37 1
c20 0 128 -22 240 -49z m2448 -23 c-56 -49 -355 -288 -360 -288 -5 0 -122 239
-123 250 -1 18 328 66 463 68 l55 1 -35 -31z m-2334 -422 c-9 -41 -16 -87 -16
-101 0 -25 0 -25 -87 -25 -49 0 -95 -5 -103 -10 -10 -7 17 -10 87 -10 l102 0
3 -107 c2 -60 2 -110 1 -112 -10 -19 -565 163 -689 227 l-39 20 85 26 c102 31
664 175 668 171 2 -2 -4 -37 -12 -79z m2107 58 c212 -53 624 -191 610 -204
-14 -13 -693 -230 -720 -230 -5 0 -2 37 13 163 l6 47 51 1 c29 0 75 4 102 9
42 6 34 8 -56 9 l-106 1 -6 83 c-4 45 -11 97 -16 115 -12 40 -11 40 122 6z
m-2084 -551 c12 -38 34 -95 50 -128 17 -33 28 -61 26 -64 -10 -9 -258 -49
-475 -76 l-55 -7 49 43 c35 31 362 286 383 298 0 1 10 -29 22 -66z m2086 -26
c44 -34 127 -99 185 -146 104 -85 105 -86 72 -89 -54 -5 -492 69 -492 84 0 1
15 34 34 71 19 37 42 91 52 120 l18 52 26 -16 c14 -9 61 -43 105 -76z m-171
-326 c63 -113 266 -512 266 -523 0 -23 -630 341 -636 367 -1 6 30 36 69 67
l72 57 55 -55 c75 -73 86 -69 16 6 l-55 61 62 79 c62 80 62 80 80 59 9 -12 42
-65 71 -118z m-1701 -8 c6 -9 -7 -30 -37 -66 -25 -28 -46 -55 -46 -60 0 -5 12
5 26 22 14 17 39 40 56 52 l29 21 27 -24 c15 -14 49 -41 75 -61 l48 -35 -28
-20 c-59 -41 -363 -211 -610 -341 -20 -10 -16 2 27 91 65 132 175 326 257 451
l65 99 52 -58 c28 -31 55 -63 59 -71z m415 -254 c23 -6 42 -15 42 -19 0 -15
-248 -367 -292 -415 -16 -17 24 328 53 466 l10 47 72 -33 c40 -18 91 -39 115
-46z m891 -41 c26 -146 61 -391 57 -395 -7 -7 -316 402 -316 417 0 4 17 12 38
18 20 6 69 27 107 46 39 19 75 35 81 35 6 1 20 -53 33 -121z m-631 -5 l72 -6
0 -88 c0 -48 5 -91 10 -94 6 -4 10 28 10 89 l0 96 43 0 c23 0 73 5 111 10 38
6 71 8 74 6 9 -9 -17 -98 -125 -429 -60 -183 -110 -322 -114 -315 -20 36 -229
716 -229 745 0 3 17 3 38 -1 20 -4 70 -9 110 -13z"/>
<path d="M2290 2684 c-34 -12 -60 -28 -60 -36 0 -4 32 -8 71 -8 94 0 141 -15
195 -63 25 -22 48 -37 51 -33 12 12 -53 91 -93 113 -40 22 -135 38 -164 27z"/>
<path d="M1567 2660 c-61 -24 -113 -63 -132 -100 -25 -48 -17 -53 23 -14 60
59 133 88 220 87 79 -2 92 10 37 33 -46 19 -90 17 -148 -6z"/>
<path d="M2270 2453 c-61 -22 -142 -104 -163 -167 -21 -62 -22 -158 -1 -218
20 -61 70 -117 135 -153 44 -24 66 -29 119 -29 39 1 79 7 100 17 47 22 106 57
97 57 -4 0 6 18 22 40 84 116 58 309 -54 408 -70 62 -161 78 -255 45z m188
-32 c105 -54 162 -179 140 -303 -18 -97 -57 -151 -138 -187 -159 -72 -350 61
-350 244 0 49 27 128 59 172 60 83 201 119 289 74z"/>
<path d="M2252 2263 c-22 -9 -42 -61 -42 -112 0 -122 127 -155 161 -42 23 78
-15 162 -74 160 -18 0 -38 -3 -45 -6z"/>
<path d="M1578 2450 c-88 -16 -182 -107 -208 -198 -39 -143 31 -302 158 -358
21 -10 65 -17 102 -17 152 -2 262 120 262 289 -1 120 -55 210 -155 258 -61 29
-108 36 -159 26z m150 -49 c178 -91 189 -366 19 -465 -166 -96 -359 24 -361
224 -1 194 182 323 342 241z"/>
<path d="M1626 2248 c-45 -39 -48 -141 -5 -186 14 -16 32 -22 60 -22 34 0 42
5 59 33 44 72 11 188 -57 195 -21 2 -39 -4 -57 -20z"/>
<path d="M1948 2090 c-4 -8 -12 -33 -17 -55 -7 -23 -29 -60 -55 -88 -69 -75
-70 -130 -3 -181 43 -33 85 -41 131 -26 57 19 51 28 -17 23 -57 -5 -65 -3 -95
22 -48 41 -40 107 20 161 43 40 65 46 98 29 16 -9 30 -20 30 -25 0 -6 5 -10
10 -10 7 0 7 6 0 19 -7 14 -6 21 3 24 6 2 -11 10 -40 17 l-52 14 -3 45 c-2 26
-6 40 -10 31z"/>
<path d="M1375 1981 c19 -22 55 -46 55 -38 0 3 -17 17 -37 33 -31 23 -34 24
-18 5z"/>
<path d="M2570 1975 c-10 -12 -10 -15 1 -15 9 -1 8 -5 -5 -15 -11 -8 -15 -15
-10 -15 5 0 25 14 44 31 29 25 30 28 8 15 -24 -14 -27 -14 -22 -1 8 19 0 19
-16 0z"/>
<path d="M2340 1784 c0 -4 8 -12 17 -19 15 -11 11 -18 -37 -69 -60 -64 -158
-118 -247 -136 -82 -17 -225 -8 -294 19 -67 26 -158 100 -137 112 18 11 3 22
-20 15 -26 -9 -72 -45 -72 -57 0 -5 12 -3 27 5 26 13 29 12 73 -24 198 -165
518 -140 697 54 43 46 62 60 80 58 37 -5 27 7 -23 28 -48 21 -64 24 -64 14z"/>
<path d="M4030 3987 c0 -8 -90 -903 -200 -1990 -110 -1086 -200 -1980 -200
-1986 0 -13 4323 -11 4336 1 5 6 153 1405 229 2178 38 388 175 1729 180 1768
l6 42 -2175 0 c-1819 0 -2176 -2 -2176 -13z m4293 -24 c5 -7 -390 -3903 -396
-3909 -1 -1 -958 -6 -2125 -10 l-2124 -7 7 69 c4 38 93 920 199 1959 l191
1890 1845 5 c1015 3 1970 6 2122 8 152 1 279 -1 281 -5z"/>
<path d="M6012 3738 c-7 -7 -12 -16 -12 -20 0 -4 -21 -54 -46 -110 -26 -57
-47 -107 -48 -113 -1 -5 -8 -20 -14 -33 -7 -12 -10 -28 -6 -34 4 -6 3 -8 -3
-5 -10 6 -46 -93 -73 -203 -6 -24 -15 -49 -20 -55 -5 -6 -10 -23 -12 -37 -2
-15 -7 -30 -11 -34 -4 -4 -7 -14 -7 -21 0 -8 -5 -20 -12 -27 -10 -10 -24 5
-71 76 -33 49 -61 87 -64 85 -2 -3 9 -24 25 -48 16 -24 33 -55 37 -68 7 -23
14 -34 43 -66 20 -22 14 -32 -23 -39 -20 -4 -33 -11 -30 -16 3 -5 -3 -9 -12
-9 -43 1 -126 -32 -157 -62 -20 -19 -32 -7 -35 34 -1 23 -6 60 -11 82 -4 22
-11 87 -15 145 -9 137 -11 149 -19 158 -8 8 0 -170 14 -313 7 -65 6 -91 -2
-96 -7 -5 -40 12 -78 38 -123 87 -151 105 -156 100 -5 -5 167 -141 205 -162
27 -15 21 -27 -40 -71 -31 -23 -82 -68 -113 -100 -32 -33 -62 -58 -68 -56 -5
1 -7 -2 -4 -7 4 -5 -5 -22 -20 -38 -14 -15 -23 -21 -19 -13 5 11 2 10 -7 -2
-13 -15 -19 -8 -65 65 -28 45 -75 129 -104 187 -60 122 -55 114 -68 106 -11
-7 76 -184 137 -280 18 -27 30 -51 28 -54 -2 -2 -37 6 -77 17 -39 11 -75 18
-79 16 -3 -2 -35 5 -69 15 -60 19 -252 52 -259 45 -3 -3 79 -23 128 -31 8 -1
51 -12 95 -24 44 -11 91 -23 105 -26 54 -10 139 -48 127 -57 -8 -6 -4 -7 11
-4 12 3 22 1 22 -5 0 -5 4 -7 8 -4 5 3 9 -1 9 -9 0 -9 -5 -11 -11 -7 -6 5 -20
-2 -33 -15 -18 -18 -19 -23 -6 -23 11 0 13 -3 5 -13 -7 -8 -7 -18 -2 -27 9
-14 11 -13 14 9 1 9 46 56 46 48 0 -2 -14 -32 -32 -68 -17 -35 -31 -67 -30
-71 1 -5 -6 -8 -15 -9 -11 0 -13 -3 -6 -6 9 -3 9 -11 -3 -29 -17 -24 -57 -33
-69 -14 -3 6 -13 10 -22 10 -12 0 -13 -3 -4 -14 15 -18 9 -22 -59 -35 -55 -10
-103 -23 -275 -76 -102 -31 -98 -30 -145 -55 -19 -10 -30 -19 -25 -20 6 0 27
9 47 20 21 11 46 19 55 18 24 -2 83 13 83 21 0 3 14 7 30 8 17 1 43 9 58 17
35 19 178 49 192 41 6 -4 16 -2 23 3 7 5 23 9 37 8 14 -1 32 1 41 5 13 7 13
-1 -3 -69 -11 -41 -27 -82 -36 -89 -16 -12 -15 -13 2 -7 15 6 17 3 12 -12 -8
-25 -11 -228 -3 -240 3 -6 2 -15 -2 -22 -6 -10 -20 -10 -62 -1 -83 18 -432
134 -571 190 -26 10 -53 19 -60 18 -18 0 89 -48 122 -54 33 -6 90 -28 150 -59
25 -13 113 -44 195 -70 83 -26 161 -51 174 -57 l24 -10 -23 -24 c-13 -14 -27
-25 -32 -25 -4 0 -16 -8 -27 -17 -10 -10 -31 -28 -47 -40 -52 -39 -96 -88 -87
-96 3 -4 -7 -9 -21 -13 -15 -3 -25 -9 -22 -12 3 -3 -2 -11 -12 -18 -11 -9 -13
-13 -4 -14 7 0 42 28 78 63 35 35 64 61 64 58 0 -2 8 3 19 13 11 10 26 14 37
10 14 -4 15 -3 6 4 -11 7 -7 14 16 31 17 11 35 21 40 21 6 0 13 6 15 13 4 9 6
9 6 0 1 -18 31 -3 31 16 0 14 2 14 10 1 5 -8 10 -22 10 -30 0 -12 -2 -12 -9
-2 -6 10 -17 4 -45 -24 -20 -20 -35 -39 -32 -41 8 -8 55 31 56 46 0 11 3 11
15 1 8 -7 13 -16 10 -20 -3 -5 0 -10 6 -12 6 -2 12 -13 13 -23 2 -31 28 -99
40 -107 8 -5 7 -8 -1 -8 -7 0 -13 -5 -13 -11 0 -5 4 -8 8 -5 5 3 9 -2 9 -10 0
-9 -6 -13 -14 -10 -8 3 -11 1 -8 -4 3 -6 0 -12 -7 -14 -7 -2 -33 -9 -58 -16
-25 -7 -58 -16 -75 -21 -16 -5 -52 -11 -79 -15 -32 -4 -45 -9 -36 -14 13 -8
23 -7 80 5 14 3 42 7 62 10 20 3 55 11 78 19 22 7 42 11 44 7 2 -3 -20 -48
-49 -100 -32 -55 -51 -99 -48 -109 5 -11 3 -13 -7 -7 -9 5 -11 4 -6 -3 4 -7 2
-12 -4 -12 -6 0 -8 -4 -5 -10 3 -5 2 -10 -3 -10 -6 0 -17 -18 -25 -39 -9 -22
-21 -42 -27 -46 -5 -3 -10 -17 -10 -31 0 -14 -4 -22 -10 -19 -6 4 -7 -1 -3
-11 4 -12 3 -15 -5 -10 -8 5 -10 2 -6 -8 9 -22 11 -21 30 22 10 20 47 87 82
147 108 182 100 172 107 153 4 -9 13 -14 21 -11 10 4 12 0 8 -11 -3 -9 -2 -16
3 -16 5 0 9 9 10 20 1 11 -4 20 -12 20 -13 0 -29 29 -20 38 3 3 5 0 5 -8 0
-10 3 -10 14 -1 10 8 16 9 21 1 3 -5 0 -10 -7 -11 -7 0 -3 -5 10 -11 13 -7 21
-17 18 -25 -7 -16 18 -28 35 -17 8 5 4 13 -12 25 -14 11 -18 19 -10 19 14 0
51 -37 51 -52 0 -4 0 -10 0 -13 0 -3 -3 -4 -7 -2 -5 1 -7 5 -5 10 1 4 -3 7 -9
7 -7 0 -9 -10 -7 -25 5 -26 -6 -34 -16 -12 -4 7 -4 6 -2 -3 2 -8 -1 -24 -7
-35 -10 -19 -9 -19 15 -3 17 11 29 13 36 6 6 -6 12 -6 17 1 3 6 1 10 -6 9 -6
-2 -14 3 -17 11 -2 8 0 11 6 7 6 -3 16 2 22 11 11 17 11 17 6 1 -5 -17 9 -26
16 -10 2 4 16 -5 32 -19 20 -19 25 -29 15 -34 -8 -5 -10 -4 -5 3 4 7 3 12 -1
12 -10 0 -36 -40 -30 -47 3 -2 14 0 24 5 12 7 25 7 38 1 19 -10 19 -10 2 4
-10 8 -15 17 -10 20 4 2 22 -8 38 -24 24 -24 27 -29 12 -29 -12 0 -16 4 -11
13 5 8 2 8 -9 -2 -24 -19 -22 -20 24 -17 l41 3 -29 -23 c-15 -12 -70 -48 -120
-80 -51 -32 -93 -61 -93 -66 0 -4 -6 -8 -14 -8 -8 0 -27 -13 -44 -28 -16 -15
-35 -26 -42 -24 -7 3 -10 0 -6 -6 6 -10 -43 -48 -57 -44 -5 1 -6 -2 -2 -8 3
-5 -1 -10 -9 -10 -9 0 -16 -5 -16 -11 0 -11 6 -8 70 36 25 17 86 56 135 85 50
29 99 61 110 70 19 16 113 70 122 70 2 0 2 -4 -1 -9 -4 -5 0 -12 6 -14 10 -4
10 -7 1 -14 -7 -5 -12 -24 -12 -43 -1 -19 -3 -64 -5 -100 l-5 -65 14 75 c7 41
16 82 19 90 3 8 8 28 10 44 7 41 16 45 16 7 0 -18 4 -30 8 -27 5 3 19 -2 31
-10 19 -13 20 -18 9 -32 -7 -9 2 -5 20 8 22 16 28 26 20 31 -7 4 -16 5 -20 3
-4 -3 -8 0 -8 6 0 6 -3 9 -7 7 -5 -3 -14 1 -21 9 -20 22 0 17 54 -13 35 -20
49 -33 46 -46 -2 -9 -7 -15 -12 -12 -16 10 -78 -22 -91 -47 l-12 -23 24 21
c13 12 31 19 39 17 13 -4 13 -3 0 6 -9 6 -10 11 -3 11 6 0 19 3 27 6 11 4 15
2 13 -7 -2 -8 -2 -11 0 -6 3 4 11 7 19 7 9 0 13 4 10 8 -2 4 4 8 15 9 16 2 16
-1 -6 -21 -14 -13 -25 -29 -25 -37 0 -7 -15 -29 -32 -49 l-33 -35 32 29 c18
17 43 45 55 63 26 37 38 42 38 16 1 -12 5 -8 13 10 11 26 13 27 32 12 11 -9
15 -14 9 -11 -6 3 -18 -10 -27 -29 -9 -18 -55 -84 -102 -145 -48 -62 -84 -114
-82 -117 5 -5 120 122 126 139 2 6 11 18 20 28 27 29 49 57 61 80 11 20 13 21
30 5 9 -9 23 -43 29 -76 8 -38 16 -57 23 -53 7 4 8 2 4 -4 -9 -15 13 -89 31
-103 17 -15 18 13 1 44 -6 12 -13 34 -15 49 -1 14 -13 60 -27 102 -13 42 -22
76 -20 76 2 0 12 -8 23 -19 12 -12 15 -23 10 -33 -5 -10 -3 -15 6 -15 8 0 15
9 15 19 0 10 7 18 16 18 8 0 13 -4 10 -9 -9 -14 20 -21 33 -8 6 6 13 8 16 5 3
-3 -1 -13 -10 -22 -9 -9 -12 -16 -6 -16 14 0 30 32 24 48 -8 20 15 13 31 -10
19 -27 21 -42 4 -32 -7 4 -10 4 -6 -1 4 -4 -2 -16 -13 -26 -11 -9 -16 -20 -10
-23 5 -3 11 -3 13 1 8 18 79 63 90 57 7 -4 8 -3 4 4 -5 8 1 12 15 12 18 0 20
-2 8 -16 -10 -13 -10 -17 1 -24 8 -5 19 -5 25 -1 5 4 22 6 36 5 17 -2 26 2 26
12 0 17 -9 18 -25 2 -6 -6 -13 -10 -16 -7 -2 2 10 17 26 33 29 28 30 28 23 6
-6 -19 -4 -22 9 -17 9 4 23 10 31 13 8 3 15 1 15 -5 0 -6 -4 -12 -10 -12 -5
-1 -16 -2 -22 -3 -7 0 -13 -7 -13 -14 0 -7 -6 -17 -14 -21 -8 -5 -9 -11 -3
-15 5 -3 17 3 27 14 10 11 22 17 28 13 6 -3 7 -1 3 5 -4 7 -1 12 8 12 9 0 16
-5 16 -12 0 -6 3 -8 6 -5 4 4 1 13 -6 22 -11 13 -9 15 13 15 14 0 28 7 31 16
4 9 9 14 13 11 3 -4 0 -13 -6 -21 -7 -8 -14 -27 -17 -43 -3 -15 -16 -58 -29
-95 -15 -40 -20 -70 -15 -73 6 -3 10 -1 10 4 0 19 2 25 22 76 33 84 62 145 70
145 12 0 38 -29 80 -86 38 -52 81 -95 63 -64 -4 8 -15 23 -23 33 -8 9 -20 26
-26 36 -6 11 -26 40 -43 66 -18 25 -33 48 -33 51 0 8 29 4 35 -6 4 -6 -1 -7
-12 -3 -10 3 -15 3 -12 -1 11 -12 59 -17 59 -6 0 6 -5 8 -12 4 -7 -4 -8 -3 -4
4 4 7 13 12 21 12 7 0 15 6 18 13 2 6 7 9 11 6 4 -4 0 -14 -9 -23 -14 -13 -14
-16 -2 -16 8 0 17 7 21 15 3 8 12 12 21 9 8 -3 15 -2 15 4 0 6 -5 12 -10 14
-6 2 -2 8 9 15 17 11 18 9 14 -25 -3 -28 -1 -33 6 -22 9 13 12 13 20 1 7 -11
11 -9 20 8 7 12 17 18 23 15 6 -4 9 -3 6 2 -3 5 0 15 8 21 8 8 15 9 19 3 3 -6
1 -10 -4 -10 -6 0 -11 -5 -11 -11 0 -5 4 -8 9 -4 16 9 29 -52 47 -225 l13
-125 -5 120 c-6 139 -15 257 -20 266 -2 4 3 9 11 12 8 4 24 -6 39 -23 14 -17
29 -30 35 -30 6 0 11 -5 11 -11 0 -5 4 -8 9 -5 5 4 11 2 13 -3 6 -16 212 -152
224 -147 7 3 38 -26 69 -64 57 -69 98 -111 80 -80 -20 35 -94 131 -165 215
-133 158 -141 170 -142 217 l0 42 -12 -29 c-13 -31 -19 -27 -30 18 -4 16 -18
52 -32 80 -14 29 -32 72 -40 96 l-16 43 34 28 c28 24 31 30 19 44 -16 19 -1
22 18 4 11 -11 13 -10 8 5 -4 9 -2 17 4 17 6 0 7 5 4 10 -8 13 -3 13 32 -1 39
-14 22 -2 -83 64 -98 61 -134 71 -134 37 0 -12 7 -34 15 -50 21 -40 95 -259
100 -294 5 -34 2 -37 -110 -105 -68 -42 -121 -66 -230 -106 -89 -32 -339 -47
-442 -25 -26 6 -61 12 -78 14 -39 5 -197 55 -210 67 -5 5 -14 9 -21 9 -12 0
-170 86 -184 100 -3 3 -33 29 -68 59 -67 57 -169 186 -209 265 -45 88 -85 226
-86 298 -1 37 -5 68 -9 68 -4 0 -5 28 -2 63 3 34 7 85 8 112 18 292 215 606
478 761 110 65 148 81 273 114 102 28 292 37 406 21 290 -42 530 -201 684
-451 39 -63 49 -84 74 -142 6 -16 15 -38 20 -50 16 -38 29 -90 36 -141 4 -27
8 -59 11 -70 6 -31 7 -235 1 -245 -3 -4 -8 -29 -11 -54 -7 -62 -27 -141 -37
-152 -5 -6 -9 -17 -9 -25 0 -8 -19 -52 -42 -98 -37 -70 -46 -82 -63 -77 -26 8
-21 4 45 -36 30 -18 49 -25 41 -16 -12 14 -10 16 15 17 29 1 29 1 4 8 -14 4
-28 3 -31 -2 -4 -5 -12 -6 -19 -2 -8 5 -3 16 17 38 15 16 22 27 16 23 -15 -9
-18 10 -3 19 6 4 8 11 5 16 -4 5 -1 9 4 9 6 0 11 6 11 14 0 8 6 21 13 28 6 7
13 22 14 33 3 25 33 149 38 153 6 7 51 -22 105 -67 84 -71 101 -80 42 -22 -29
28 -56 51 -60 51 -9 0 -45 40 -40 45 2 1 30 9 62 17 33 8 62 20 64 26 2 7 -1
12 -8 12 -6 0 -8 -5 -4 -12 5 -7 2 -9 -8 -6 -8 4 -41 0 -74 -8 -32 -7 -62 -14
-66 -14 -4 0 -5 28 -1 63 12 126 4 294 -17 368 -15 51 -2 56 88 36 101 -22
300 -75 312 -82 6 -3 10 -2 10 2 0 5 -21 15 -47 22 -27 7 -55 15 -63 19 -8 3
-22 7 -30 8 -50 9 -204 54 -212 62 -7 7 -3 14 11 22 13 6 19 16 15 23 -4 7 -4
9 1 5 8 -7 84 57 198 166 87 83 58 68 -39 -21 -47 -43 -90 -80 -96 -82 -21 -7
-47 -35 -41 -44 3 -6 1 -7 -5 -3 -7 4 -33 -9 -58 -28 -26 -20 -50 -36 -54 -36
-7 0 -19 31 -27 73 -1 10 -23 56 -47 103 -24 46 -40 87 -35 90 12 7 140 36
161 35 10 0 15 6 12 14 -4 10 -12 11 -27 5 -31 -13 -129 -31 -135 -26 -2 3 10
28 27 55 17 29 26 53 20 56 -5 4 -9 3 -8 -2 4 -15 -13 -43 -22 -38 -5 3 -11
-6 -15 -20 -3 -14 -16 -31 -27 -37 -19 -10 -27 -5 -72 48 -69 82 -143 152
-189 182 l-40 25 30 24 c16 13 77 56 137 95 59 39 105 73 102 76 -3 3 -13 -2
-22 -10 -21 -18 -107 -63 -110 -57 -1 2 -9 -5 -18 -16 -9 -11 -14 -13 -10 -5
4 8 -2 6 -12 -5 -15 -17 -35 -29 -86 -53 -5 -3 -4 4 1 15 6 11 14 44 18 74 4
30 11 65 16 77 6 18 5 23 -4 20 -7 -3 -13 -9 -13 -14 0 -5 -3 -13 -7 -19 -3
-5 -9 -26 -12 -45 -8 -45 -30 -108 -43 -121 -7 -7 -21 -4 -44 10 -19 12 -42
21 -51 21 -10 0 -18 4 -18 9 0 5 -13 11 -29 14 -17 4 -46 13 -66 22 l-37 15
48 67 c26 38 63 85 83 106 19 20 31 37 26 37 -6 0 -2 5 7 11 10 5 32 30 49 56
18 25 48 63 68 84 82 86 88 108 8 29 -48 -47 -85 -91 -82 -97 2 -7 1 -13 -3
-13 -4 0 -22 -13 -40 -30 -18 -16 -30 -30 -25 -30 4 0 -3 -7 -15 -16 -12 -8
-20 -19 -18 -23 3 -4 -8 -18 -25 -30 -17 -13 -28 -25 -25 -28 3 -4 -3 -12 -14
-20 -11 -8 -20 -19 -20 -24 0 -12 -38 -54 -44 -48 -2 2 -6 18 -9 34 -3 17 -20
73 -37 125 -17 52 -29 105 -27 117 2 12 0 20 -4 17 -5 -3 -9 3 -9 12 0 10 -2
15 -5 12 -6 -6 22 -139 56 -264 21 -79 22 -87 11 -80 -16 9 -174 20 -304 20
-95 0 -128 3 -128 13 0 6 11 47 24 90 13 43 35 119 49 168 36 124 92 274 142
378 40 82 44 102 17 75z m-951 -1221 c-13 -13 -26 -3 -16 12 3 6 11 8 17 5 6
-4 6 -10 -1 -17z m1557 -972 c11 -13 23 -21 27 -17 5 4 5 1 1 -6 -8 -14 -21
-7 -59 30 -14 14 -15 18 -3 18 8 0 23 -11 34 -25z m262 -49 c0 -3 -4 -8 -10
-11 -5 -3 -10 -1 -10 4 0 6 5 11 10 11 6 0 10 -2 10 -4z m-1785 -66 c3 -11 12
-20 18 -20 8 0 7 -4 -2 -9 -10 -6 -20 -3 -32 12 -17 21 -17 37 1 37 5 0 12 -9
15 -20z m1562 -262 c-3 -8 -6 -5 -6 6 -1 11 2 17 5 13 3 -3 4 -12 1 -19z m-63
-39 c-2 -4 2 -9 8 -12 7 -2 1 -4 -13 -4 -14 0 -26 5 -26 11 0 6 8 12 18 12 10
0 16 -3 13 -7z m-89 -29 c-3 -5 -12 -10 -18 -10 -7 0 -6 4 3 10 19 12 23 12
15 0z m157 -2 c-10 -10 -4 -19 25 -45 51 -46 71 -43 37 5 -9 13 -14 26 -11 29
7 6 42 -58 39 -72 -1 -6 8 -17 21 -24 20 -13 21 -13 8 3 -8 9 -11 19 -7 23 3
3 7 4 9 2 2 -2 29 -34 60 -70 31 -36 57 -69 57 -73 0 -11 -101 63 -126 91 -11
13 -36 32 -55 42 -18 11 -33 24 -31 31 1 6 -2 8 -9 5 -6 -4 -25 8 -42 26 -18
18 -26 29 -20 25 7 -4 21 -2 30 3 24 14 30 14 15 -1z m-194 -66 c-7 -8 -14
-10 -21 -3 -7 7 -6 15 3 26 10 12 15 13 21 3 4 -7 3 -18 -3 -26z m-698 -32 c0
-13 -11 -13 -30 0 -12 8 -11 10 8 10 12 0 22 -4 22 -10z m55 -10 c3 -6 -1 -7
-9 -4 -18 7 -21 14 -7 14 6 0 13 -4 16 -10z m355 0 c0 -5 -2 -10 -4 -10 -3 0
-8 5 -11 10 -3 6 -1 10 4 10 6 0 11 -4 11 -10z m-25 -10 c3 -5 -1 -10 -9 -10
-8 0 -18 5 -21 10 -3 6 1 10 9 10 8 0 18 -4 21 -10z m-227 -12 c-2 -6 -11 -13
-19 -16 -12 -3 -12 -2 0 6 11 8 10 11 -5 15 -16 4 -15 5 4 6 14 1 22 -4 20
-11z m96 -16 c-16 -15 -33 -26 -37 -24 -5 2 6 15 24 28 43 32 48 30 13 -4z"/>
<path d="M6450 1039 c0 -5 5 -7 10 -4 6 3 10 8 10 11 0 2 -4 4 -10 4 -5 0 -10
-5 -10 -11z"/>
<path d="M6087 3551 c8 -31 15 -60 17 -66 1 -5 5 2 8 17 3 15 2 25 -2 23 -4
-2 -7 9 -8 25 -3 51 -5 57 -17 57 -9 0 -9 -14 2 -56z"/>
<path d="M6117 3470 c-5 -20 11 -96 19 -88 2 2 0 18 -5 36 -5 17 -7 40 -4 52
3 11 3 20 0 20 -2 0 -7 -9 -10 -20z"/>
<path d="M5413 3370 c0 -25 2 -35 4 -22 2 12 2 32 0 45 -2 12 -4 2 -4 -23z"/>
<path d="M6629 3408 c-2 -7 -8 -47 -13 -83 -3 -27 -2 -33 3 -20 9 22 21 105
15 105 -2 0 -4 -1 -5 -2z"/>
<path d="M4799 3269 c18 -11 35 -18 38 -15 5 5 -50 36 -64 36 -4 0 7 -9 26
-21z"/>
<path d="M7155 3266 c-11 -7 -23 -14 -27 -15 -8 -1 -11 -9 -5 -13 1 -2 16 7
32 19 32 24 32 32 0 9z"/>
<path d="M4850 3245 c0 -9 82 -56 91 -53 5 2 -13 15 -41 30 -27 15 -50 25 -50
23z"/>
<path d="M7193 3224 c-6 -16 -104 -194 -181 -326 -12 -21 -18 -38 -14 -38 8 0
36 45 67 105 11 22 32 58 46 80 14 22 26 42 26 45 1 3 17 36 38 73 21 37 35
71 31 74 -3 3 -9 -3 -13 -13z"/>
<path d="M6592 3205 c-14 -31 -15 -55 -3 -55 7 0 22 70 16 78 -1 1 -7 -9 -13
-23z"/>
<path d="M7014 3191 c-16 -9 -46 -29 -65 -45 -19 -16 -23 -21 -9 -12 41 26
104 60 125 67 l20 7 -20 0 c-11 0 -34 -8 -51 -17z"/>
<path d="M4794 3160 c0 -13 4 -16 10 -10 7 7 7 13 0 20 -6 6 -10 3 -10 -10z"/>
<path d="M4996 3162 c-3 -5 1 -9 9 -9 8 0 12 4 9 9 -3 4 -7 8 -9 8 -2 0 -6 -4
-9 -8z"/>
<path d="M6575 3130 c3 -5 8 -10 11 -10 2 0 4 5 4 10 0 6 -5 10 -11 10 -5 0
-7 -4 -4 -10z"/>
<path d="M5066 3119 c3 -5 12 -9 20 -9 8 0 17 -7 21 -15 3 -9 18 -22 34 -30
25 -14 28 -14 23 0 -4 8 -10 15 -15 15 -19 0 -24 3 -36 20 -13 18 -58 36 -47
19z"/>
<path d="M4827 3104 c4 -12 3 -15 -5 -10 -15 9 -8 -8 30 -84 16 -30 26 -44 22
-31 -5 17 -3 21 6 16 9 -5 11 -4 6 4 -4 6 -12 8 -18 5 -6 -4 -8 1 -3 16 5 16
4 20 -5 15 -9 -5 -10 -1 -5 16 4 17 3 20 -3 10 -13 -18 -25 3 -17 28 3 11 1
22 -4 26 -7 4 -8 -1 -4 -11z"/>
<path d="M6884 3104 c-18 -14 -18 -15 4 -4 12 6 22 13 22 15 0 8 -5 6 -26 -11z"/>
<path d="M6834 3074 c-18 -14 -18 -15 4 -4 12 6 22 13 22 15 0 8 -5 6 -26 -11z"/>
<path d="M6971 2832 c-8 -14 -6 -19 5 -19 7 0 12 3 9 5 -3 3 3 11 13 18 16 13
16 13 0 14 -10 0 -22 -8 -27 -18z"/>
<path d="M6931 2758 c-21 -41 -21 -42 -2 -18 11 14 21 30 21 37 0 6 6 14 13
16 8 4 8 6 1 6 -7 1 -22 -18 -33 -41z"/>
<path d="M5630 2731 c-58 -11 -142 -63 -177 -109 -40 -53 -43 -75 -5 -40 52
49 151 86 240 90 41 2 52 6 52 19 0 33 -50 51 -110 40z"/>
<path d="M6232 2714 c-43 -30 -27 -41 66 -46 94 -6 129 -18 187 -69 58 -51 40
-9 -22 51 -78 75 -176 103 -231 64z"/>
<path d="M5167 2704 c-4 -4 -7 -14 -7 -23 0 -11 3 -12 11 -4 6 6 10 16 7 23
-2 6 -7 8 -11 4z"/>
<path d="M4570 2687 c0 -26 186 -227 210 -227 8 0 10 -3 7 -6 -7 -8 31 -44 45
-44 5 0 6 -4 3 -10 -3 -5 -1 -10 4 -10 6 0 20 -9 32 -21 11 -11 23 -19 25 -16
3 3 -34 42 -82 88 -90 87 -175 174 -219 225 -14 16 -25 25 -25 21z"/>
<path d="M7095 2631 c-11 -5 -26 -6 -32 -4 -7 3 -13 0 -13 -6 0 -7 11 -10 28
-7 15 2 33 5 40 5 6 1 12 6 12 11 0 12 -7 12 -35 1z"/>
<path d="M7208 2633 c6 -2 18 -2 25 0 6 3 1 5 -13 5 -14 0 -19 -2 -12 -5z"/>
<path d="M7339 2603 l-24 -28 28 24 c15 14 27 26 27 28 0 8 -8 1 -31 -24z"/>
<path d="M4969 2518 c0 -2 -3 -14 -5 -28 -4 -23 -4 -23 9 -6 9 13 19 16 28 11
12 -8 12 -6 0 8 -11 15 -29 23 -32 15z"/>
<path d="M5005 2470 c-3 -5 -1 -10 4 -10 6 0 11 5 11 10 0 6 -2 10 -4 10 -3 0
-8 -4 -11 -10z"/>
<path d="M6254 2458 c-113 -38 -169 -127 -168 -268 0 -91 16 -135 68 -197 44
-52 125 -80 181 -64 27 8 25 9 -20 10 -131 2 -215 107 -215 266 0 101 74 215
155 236 66 18 78 19 116 9 175 -47 231 -292 101 -440 -17 -19 -29 -37 -26 -39
7 -7 54 41 54 56 0 7 4 13 9 13 11 0 36 62 45 112 8 42 -8 154 -27 190 -21 41
-53 77 -81 89 -14 7 -26 16 -26 20 0 7 -43 19 -86 24 -12 2 -47 -6 -80 -17z"/>
<path d="M4930 2455 c-11 -13 -10 -14 4 -9 9 3 16 10 16 15 0 13 -6 11 -20 -6z"/>
<path d="M5545 2459 c-56 -21 -124 -79 -150 -128 -14 -28 -14 -31 0 -31 8 0
15 6 15 14 0 7 19 34 43 58 74 78 173 95 268 47 97 -49 144 -201 104 -337 -27
-89 -93 -145 -194 -162 l-46 -8 43 -1 c89 -2 179 67 206 160 32 105 12 251
-42 315 -52 61 -177 98 -247 73z"/>
<path d="M5016 2433 c-6 -14 -5 -15 5 -6 7 7 10 15 7 18 -3 3 -9 -2 -12 -12z"/>
<path d="M4966 2401 c-10 -11 -16 -25 -14 -31 2 -6 11 3 21 20 21 34 18 39 -7
11z"/>
<path d="M5378 2268 c-20 -37 -16 -147 7 -193 27 -56 118 -145 147 -145 21 0
21 1 -7 16 -48 25 -105 86 -117 126 -6 21 -15 35 -21 31 -5 -3 -6 3 -2 16 4
12 2 21 -4 21 -6 0 -11 5 -11 11 0 5 4 8 8 5 12 -7 9 38 -3 46 -6 5 -6 8 2 8
6 0 11 8 11 18 -1 9 2 27 6 40 4 12 5 22 2 22 -3 0 -11 -10 -18 -22z"/>
<path d="M6255 2281 c-41 -17 -59 -50 -63 -116 -4 -58 -2 -66 21 -89 36 -36
80 -35 118 3 53 54 37 171 -28 200 -13 6 -25 11 -26 10 -1 0 -11 -4 -22 -8z
m83 -55 c4 -17 -12 -35 -30 -36 -10 0 -20 38 -13 50 10 17 39 7 43 -14z"/>
<path d="M5647 2268 c-29 -22 -49 -87 -42 -134 6 -44 49 -94 81 -94 46 0 102
100 87 157 l-5 23 -17 -21 c-15 -19 -18 -20 -30 -5 -18 22 -6 50 19 43 16 -4
18 -2 10 13 -17 31 -72 41 -103 18z"/>
<path d="M4950 2260 c-8 -5 -11 -10 -6 -10 5 0 1 -10 -10 -22 -17 -20 -17 -21
-1 -9 16 13 43 51 35 51 -2 0 -10 -5 -18 -10z"/>
<path d="M4919 2183 c-13 -16 -12 -17 4 -4 9 7 17 15 17 17 0 8 -8 3 -21 -13z"/>
<path d="M4892 2072 c-11 -25 -11 -25 4 -10 9 9 15 21 13 27 -2 6 -10 -2 -17
-17z"/>
<path d="M4886 2023 c-6 -14 -5 -15 5 -6 7 7 10 15 7 18 -3 3 -9 -2 -12 -12z"/>
<path d="M5304 2009 c-3 -5 6 -9 20 -9 31 0 34 6 6 13 -11 3 -23 1 -26 -4z"/>
<path d="M7600 2000 c-12 -8 -10 -10 8 -10 13 0 20 4 17 10 -7 12 -6 12 -25 0z"/>
<path d="M6013 1989 c-28 -10 -30 -23 -3 -14 28 9 83 -11 109 -39 13 -13 25
-42 28 -63 4 -32 0 -45 -21 -70 -34 -41 -99 -67 -145 -58 -51 10 -91 33 -101
58 -8 21 -9 21 -9 1 -1 -11 9 -30 22 -42 67 -63 190 -54 251 18 31 38 36 115
10 156 -28 42 -100 70 -141 53z"/>
<path d="M4871 1974 c0 -11 3 -14 6 -6 3 7 2 16 -1 19 -3 4 -6 -2 -5 -13z"/>
<path d="M7550 1969 c-22 -18 -22 -19 -3 -10 12 6 25 16 28 21 9 15 3 12 -25
-11z"/>
<path d="M6394 1955 c-10 -8 -14 -15 -8 -15 6 0 17 7 24 15 16 19 9 19 -16 0z"/>
<path d="M7490 1951 c0 -7 -6 -11 -14 -8 -8 3 -22 0 -32 -8 -16 -11 -15 -12
10 -10 31 4 54 21 43 32 -4 3 -7 1 -7 -6z"/>
<path d="M4836 1928 c3 -5 10 -6 15 -3 13 9 11 12 -6 12 -8 0 -12 -4 -9 -9z"/>
<path d="M4911 1924 c0 -11 3 -14 6 -6 3 7 2 16 -1 19 -3 4 -6 -2 -5 -13z"/>
<path d="M4870 1895 c-7 -8 -17 -12 -23 -8 -6 4 -7 1 -3 -6 6 -9 13 -8 27 5
10 9 19 19 19 21 0 7 -8 2 -20 -12z"/>
<path d="M7371 1901 c-7 -5 -23 -6 -35 -4 -15 3 -17 2 -8 -5 11 -7 8 -11 -11
-16 -14 -3 -32 -3 -41 0 -10 4 -18 0 -22 -10 -3 -9 -10 -13 -15 -10 -5 3 -9 0
-9 -5 0 -6 -7 -11 -16 -11 -8 0 -12 5 -8 11 5 8 1 8 -14 0 -35 -19 -39 -35 -6
-27 39 10 224 77 224 82 0 7 -25 4 -39 -5z"/>
<path d="M4921 1854 c0 -11 3 -14 6 -6 3 7 2 16 -1 19 -3 4 -6 -2 -5 -13z"/>
<path d="M6398 1768 c33 -16 28 -31 -29 -82 -62 -56 -154 -108 -229 -131 -74
-22 -201 -26 -280 -9 -89 18 -217 85 -271 140 l-44 45 24 20 c22 18 22 19 3
19 -48 0 -122 -47 -122 -77 0 -11 8 -9 30 7 l31 22 53 -50 c102 -97 260 -155
421 -156 167 0 298 51 410 159 67 64 67 64 96 49 25 -13 29 -13 29 0 0 28 -50
56 -99 55 -40 0 -43 -2 -23 -11z"/>
<path d="M6970 1745 c0 -2 10 -10 23 -16 20 -11 21 -11 8 4 -13 16 -31 23 -31
12z"/>
<path d="M4899 1723 c-13 -16 -12 -17 4 -4 9 7 17 15 17 17 0 8 -8 3 -21 -13z"/>
<path d="M4943 1690 c-3 -11 -10 -17 -15 -14 -5 3 -8 -2 -6 -12 2 -10 -2 -19
-7 -19 -15 0 -83 -65 -69 -65 6 0 17 7 24 15 7 8 18 15 24 15 19 0 65 59 63
80 -2 26 -7 25 -14 0z"/>
<path d="M7020 1690 c-9 -6 -10 -10 -3 -10 6 0 15 5 18 10 8 12 4 12 -15 0z"/>
<path d="M4964 1625 c-4 -8 -15 -15 -25 -15 -10 0 -19 -4 -19 -10 0 -5 8 -7
18 -3 13 5 14 3 6 -7 -7 -6 -23 -13 -37 -13 -14 -1 -23 -5 -21 -9 2 -4 0 -9
-6 -13 -5 -3 -10 -13 -10 -22 0 -12 3 -13 15 -3 8 6 19 9 24 6 5 -4 13 -1 17
5 4 8 3 9 -4 5 -7 -4 -12 -5 -12 -2 0 3 18 15 40 26 38 20 56 38 25 26 -18 -6
-19 -1 -5 25 6 10 8 19 5 19 -3 0 -8 -7 -11 -15z"/>
<path d="M4967 1564 c-15 -8 -27 -17 -27 -20 0 -3 6 -2 13 1 6 4 4 0 -6 -8
-13 -11 -15 -16 -5 -19 7 -3 20 3 28 12 8 9 20 19 27 21 7 2 9 9 5 16 -5 8
-14 7 -35 -3z"/>
<path d="M4575 1490 c-50 -52 -31 -52 26 0 27 24 38 39 29 40 -9 0 -34 -18
-55 -40z m45 26 c0 -2 -8 -10 -17 -17 -16 -13 -17 -12 -4 4 13 16 21 21 21 13z"/>
<path d="M6960 1440 c0 -6 7 -10 15 -10 8 0 15 2 15 4 0 2 -7 6 -15 10 -8 3
-15 1 -15 -4z"/>
<path d="M4525 1430 c-3 -6 1 -7 9 -4 18 7 21 14 7 14 -6 0 -13 -4 -16 -10z"/>
<path d="M4698 1413 c7 -3 16 -2 19 1 4 3 -2 6 -13 5 -11 0 -14 -3 -6 -6z"/>
<path d="M7200 1399 c0 -5 9 -9 20 -9 11 0 20 2 20 4 0 2 -9 6 -20 9 -11 3
-20 1 -20 -4z"/>
<path d="M6948 1372 c13 -17 28 -35 34 -39 7 -3 2 8 -10 25 -13 17 -28 35 -34
39 -7 3 -2 -8 10 -25z"/>
<path d="M5081 1332 c-1 -7 -5 -11 -9 -8 -5 3 -19 -8 -31 -24 -12 -17 -17 -30
-11 -30 6 0 16 12 22 26 11 23 13 24 24 9 11 -15 13 -15 24 5 7 13 8 20 2 16
-6 -3 -13 0 -15 6 -4 10 -6 10 -6 0z"/>
<path d="M6990 1316 c0 -2 8 -10 18 -17 15 -13 16 -12 3 4 -13 16 -21 21 -21
13z"/>
<path d="M5200 1270 c-8 -5 -11 -10 -6 -10 5 0 3 -7 -4 -15 -7 -9 -10 -18 -7
-22 4 -3 1 -13 -6 -22 -11 -14 -10 -14 5 -2 10 7 15 17 12 22 -3 5 2 16 10 25
9 8 16 20 16 25 0 11 -1 11 -20 -1z"/>
<path d="M5131 1234 c0 -11 3 -14 6 -6 3 7 2 16 -1 19 -3 4 -6 -2 -5 -13z"/>
<path d="M5100 1209 c0 -5 5 -7 10 -4 6 3 10 8 10 11 0 2 -4 4 -10 4 -5 0 -10
-5 -10 -11z"/>
<path d="M6750 1121 c0 -6 4 -13 10 -16 6 -3 7 1 4 9 -7 18 -14 21 -14 7z"/>
<path d="M7170 1096 c0 -2 8 -10 18 -17 15 -13 16 -12 3 4 -13 16 -21 21 -21
13z"/>
<path d="M6789 1075 c16 -29 59 -80 65 -75 2 3 -14 25 -35 50 -22 25 -36 36
-30 25z"/>
<path d="M5404 1058 c-4 -6 -3 -8 4 -4 6 3 13 2 17 -4 4 -6 11 -8 16 -4 5 3 7
10 4 15 -8 13 -32 11 -41 -3z"/>
<path d="M5515 1060 c-3 -5 -1 -10 4 -10 6 0 11 5 11 10 0 6 -2 10 -4 10 -3 0
-8 -4 -11 -10z"/>
<path d="M6496 995 c-3 -9 -6 -22 -5 -28 0 -7 5 -1 10 12 5 13 8 26 5 28 -2 2
-6 -3 -10 -12z"/>
<path d="M5853 958 c-2 -16 1 -18 10 -9 7 7 8 14 1 21 -6 6 -10 2 -11 -12z"/>
<path d="M6384 958 l-19 -23 23 19 c12 11 22 21 22 23 0 8 -8 2 -26 -19z"/>
<path d="M6915 920 c10 -11 20 -20 23 -20 3 0 -3 9 -13 20 -10 11 -20 20 -23
20 -3 0 3 -9 13 -20z"/>
<path d="M5750 926 c0 -2 7 -9 15 -16 13 -11 14 -10 9 4 -5 14 -24 23 -24 12z"/>
<path d="M5787 919 c7 -7 15 -10 18 -7 3 3 -2 9 -12 12 -14 6 -15 5 -6 -5z"/>
<path d="M5941 914 c0 -11 3 -14 6 -6 3 7 2 16 -1 19 -3 4 -6 -2 -5 -13z"/>
<path d="M7070 906 c0 -2 8 -10 18 -17 15 -13 16 -12 3 4 -13 16 -21 21 -21
13z"/>
<path d="M5939 879 l-24 -20 28 17 c15 9 27 18 27 20 0 8 -8 4 -31 -17z"/>
<path d="M5342 868 c-1 -14 -5 -35 -8 -45 -5 -14 -4 -15 5 -7 7 7 11 26 8 45
-3 28 -4 29 -5 7z"/>
<path d="M6015 880 c-3 -6 1 -7 9 -4 18 7 21 14 7 14 -6 0 -13 -4 -16 -10z"/>
<path d="M6980 840 c23 -27 47 -53 53 -57 7 -4 -5 13 -25 37 -21 24 -38 47
-38 51 0 4 -7 10 -16 13 -9 3 3 -16 26 -44z"/>
<path d="M6401 778 c42 -61 92 -119 97 -113 3 3 -13 26 -35 52 -22 27 -46 58
-54 71 -8 12 -18 22 -22 22 -5 0 2 -15 14 -32z"/>
<path d="M4756 792 c-2 -4 4 -8 14 -8 10 0 16 4 14 8 -3 4 -9 8 -14 8 -5 0
-11 -4 -14 -8z"/>
<path d="M5325 779 c-4 -6 -5 -12 -2 -15 2 -3 7 2 10 11 7 17 1 20 -8 4z"/>
<path d="M7070 732 c0 -12 19 -26 26 -19 2 2 -2 10 -11 17 -9 8 -15 8 -15 2z"/>
<path d="M6115 699 c4 -6 -1 -16 -11 -24 -11 -7 -16 -17 -12 -20 4 -4 -1 -24
-12 -45 -15 -30 -16 -37 -4 -37 8 0 13 5 11 11 -2 6 6 31 19 56 26 49 30 70
13 70 -5 0 -7 -5 -4 -11z"/>
<path d="M7245 690 c10 -11 20 -20 23 -20 3 0 -3 9 -13 20 -10 11 -20 20 -23
20 -3 0 3 -9 13 -20z"/>
<path d="M5785 679 c1 -10 6 -24 12 -30 7 -7 9 -3 6 15 -6 32 -20 43 -18 15z"/>
<path d="M7085 658 c22 -23 42 -45 45 -48 3 -3 16 -21 29 -40 38 -54 283 -360
289 -360 3 0 -3 9 -13 20 -10 11 -14 20 -9 20 5 0 0 7 -10 15 -11 8 -17 15
-13 15 7 0 -4 13 -82 100 -23 25 -41 48 -41 51 0 3 -18 25 -40 50 -22 24 -56
67 -74 94 -19 28 -48 63 -65 79 -17 16 -28 33 -25 38 3 4 -3 8 -12 8 -14 0 -9
-10 21 -42z"/>
<path d="M5379 643 c-13 -16 -12 -17 4 -4 16 13 21 21 13 21 -2 0 -10 -8 -17
-17z"/>
<path d="M6510 651 c0 -6 4 -13 10 -16 6 -3 7 1 4 9 -7 18 -14 21 -14 7z"/>
<path d="M5813 585 c0 -8 4 -15 9 -15 4 0 8 4 8 9 0 6 -4 12 -8 15 -5 3 -9 -1
-9 -9z"/>
<path d="M6054 543 c-4 -10 -8 -20 -8 -23 -1 -3 -5 -11 -10 -18 -4 -7 -5 -16
-1 -20 9 -9 26 20 20 36 -2 6 0 12 4 12 5 0 11 7 15 15 8 21 -10 19 -20 -2z"/>
<path d="M7371 533 c7 -12 15 -20 18 -17 3 2 -3 12 -13 22 -17 16 -18 16 -5
-5z"/>
<path d="M7290 456 c0 -2 8 -10 18 -17 15 -13 16 -12 3 4 -13 16 -21 21 -21
13z"/>
<path d="M8430 3983 c0 -30 -180 -1817 -185 -1833 -2 -8 -7 -53 -10 -100 -5
-85 -190 -1956 -199 -2018 l-5 -32 1985 0 1984 0 0 2000 0 2000 -1785 0
c-1687 0 -1785 -1 -1785 -17z m3528 -1980 l-3 -1958 -1932 -3 -1933 -2 0 27
c0 27 191 1956 194 1960 1 1 78 -27 171 -62 94 -35 228 -79 298 -98 l129 -33
-104 -89 c-129 -112 -308 -292 -308 -310 0 -8 4 -17 10 -20 9 -6 485 70 518
83 15 5 14 2 -3 -23 -88 -135 -253 -453 -330 -638 -39 -95 -29 -101 77 -47
125 65 357 202 501 296 70 46 127 78 127 71 0 -7 -9 -64 -21 -127 -26 -143
-58 -401 -52 -417 3 -7 11 -13 19 -13 18 0 154 156 267 307 l92 122 11 -37
c109 -350 231 -693 255 -717 15 -15 34 13 74 110 52 125 144 377 190 518 21
65 41 114 45 110 4 -4 53 -65 109 -135 142 -180 226 -266 242 -251 14 14 2
170 -31 393 -10 68 -18 125 -17 126 1 1 43 -25 92 -58 50 -33 149 -93 221
-134 l131 -74 81 -127 c91 -144 182 -269 284 -390 158 -186 268 -255 336 -207
30 21 30 86 -1 156 -72 162 -329 509 -647 874 -95 108 -95 109 -96 164 -1 31
-9 71 -18 89 -10 18 -15 35 -12 38 3 3 110 -11 238 -31 128 -20 239 -36 246
-36 48 0 -67 128 -291 319 -53 46 -96 85 -95 86 2 2 55 17 119 34 114 30 554
177 636 212 24 10 43 25 43 33 0 17 -384 146 -627 211 -79 21 -143 41 -143 44
1 3 20 20 43 37 48 35 312 269 341 303 37 41 11 45 -161 21 -87 -11 -203 -30
-258 -41 -55 -10 -103 -19 -107 -19 -4 0 27 57 68 126 86 144 284 521 284 540
0 7 -4 15 -10 19 -17 10 -313 -147 -556 -296 -64 -39 -117 -69 -119 -67 -1 1
8 50 21 108 20 89 32 154 69 385 6 38 -7 60 -28 49 -20 -12 -214 -228 -303
-337 -38 -47 -70 -84 -71 -83 -2 1 -25 83 -52 182 -70 256 -166 538 -184 542
-23 5 -209 -448 -268 -650 -12 -43 -25 -78 -28 -77 -3 0 -29 32 -58 72 -94
132 -264 328 -282 325 -13 -3 -16 -17 -17 -73 -1 -98 13 -329 24 -400 6 -33 9
-61 7 -63 -2 -2 -81 43 -177 99 -202 119 -487 269 -511 269 -10 0 -17 -6 -17
-14 0 -25 179 -418 239 -527 32 -57 58 -105 57 -106 -2 -2 -54 9 -117 23 -223
50 -367 73 -385 59 -15 -11 -10 -20 47 -81 73 -79 207 -206 292 -278 40 -34
54 -52 45 -57 -7 -3 -80 -25 -163 -47 -82 -23 -208 -59 -279 -81 -71 -23 -132
-39 -134 -36 -4 4 167 1750 174 1773 3 9 360 12 1744 12 l1740 0 -2 -1957z
m-1938 1697 c-16 -31 -23 -18 -8 15 7 15 14 23 16 17 2 -6 -2 -21 -8 -32z m48
-110 c0 -8 -4 -2 -10 13 -8 21 -15 27 -29 24 -10 -3 -22 -1 -25 4 -3 5 -2 9 3
8 21 -4 33 2 33 17 0 14 -3 14 -15 4 -10 -9 -15 -9 -15 -1 0 6 5 11 10 11 6 0
10 8 11 18 1 20 37 -75 37 -98z m-77 52 c-14 -27 -14 -35 2 -26 6 4 2 -3 -10
-15 -13 -12 -23 -27 -23 -33 0 -6 -2 -9 -5 -6 -3 3 4 28 16 57 12 28 24 50 26
47 3 -2 0 -13 -6 -24z m-67 -161 c-9 -23 -18 -40 -20 -38 -2 2 4 22 13 45 9
23 18 40 20 38 2 -2 -4 -22 -13 -45z m205 -81 c0 -9 -4 -8 -9 5 -5 11 -9 27
-9 35 0 9 4 8 9 -5 5 -11 9 -27 9 -35z m470 -86 c-11 -65 -28 -153 -39 -194
-18 -68 -19 -62 -7 25 2 17 2 23 0 13 -2 -9 -11 -19 -20 -22 -12 -5 -14 -1 -9
18 4 17 1 26 -10 30 -16 6 -49 -12 -39 -22 2 -3 11 0 18 6 10 9 14 8 14 -2 0
-18 -35 -15 -48 4 -8 11 -9 9 -3 -10 6 -24 6 -24 -13 -8 -15 14 -22 15 -31 6
-9 -9 -12 -9 -12 1 0 11 -3 11 -15 1 -8 -7 -13 -16 -10 -19 2 -4 -2 -8 -10 -8
-10 0 -9 7 6 26 40 51 243 281 246 278 1 -2 -7 -57 -18 -123z m-708 89 c-12
-20 -14 -14 -5 12 4 9 9 14 11 11 3 -2 0 -13 -6 -23z m-368 -123 c-2 -3 -9 3
-14 13 -6 9 -15 14 -21 11 -6 -4 -8 -3 -4 4 3 6 -5 19 -19 30 -13 11 -21 23
-17 27 4 5 2 5 -4 2 -7 -4 -12 -40 -13 -89 -2 -109 -11 -114 -11 -6 0 47 -3
101 -7 119 -6 32 -3 30 54 -36 33 -39 58 -72 56 -75z m346 61 c-6 -18 -13 -30
-15 -28 -2 2 1 18 7 36 6 18 13 30 15 28 2 -2 -1 -18 -7 -36z m-405 -37 c3 -8
2 -12 -4 -9 -6 3 -10 10 -10 16 0 14 7 11 14 -7z m1718 -65 c-11 -19 -54 -101
-97 -183 -57 -110 -80 -145 -87 -135 -8 11 -9 10 -4 -3 7 -24 -3 -50 -17 -41
-6 3 -7 1 -3 -5 6 -10 -39 -102 -49 -102 -2 0 -7 5 -11 12 -4 7 -3 8 4 4 7 -4
12 -3 12 3 0 5 -3 11 -7 14 -5 2 -2 2 4 1 8 -2 11 5 9 19 -2 12 3 29 11 39 10
11 11 18 3 23 -6 3 -9 3 -8 -2 4 -12 -14 -12 -39 0 -12 5 -20 14 -17 19 3 5
11 5 17 -1 8 -6 21 -5 37 4 24 13 22 14 -26 12 -46 -2 -50 0 -40 15 8 14 13
15 26 5 13 -11 13 -10 1 5 -13 17 -15 17 -41 -2 -40 -29 -47 -25 -11 6 17 14
38 23 46 20 8 -3 14 -2 14 2 -3 20 2 32 11 27 6 -4 8 -16 4 -28 -6 -22 -6 -22
10 -2 8 11 15 27 16 35 0 13 -1 13 -10 0 -9 -14 -14 -7 -11 13 1 4 -8 2 -18
-5 -11 -7 -17 -16 -14 -22 3 -5 1 -6 -6 -2 -6 4 -18 2 -26 -4 -13 -10 -15 -8
-15 14 0 25 -1 25 -18 9 -19 -18 -19 -39 -1 -28 5 4 9 1 9 -4 0 -21 -24 -10
-50 23 -14 18 -13 19 8 13 13 -3 21 -3 18 0 -3 4 0 13 7 22 11 14 10 15 -7 1
-15 -12 -20 -12 -24 -2 -3 9 -13 7 -40 -9 -21 -11 -28 -13 -17 -4 31 25 456
263 463 259 2 -1 -6 -17 -16 -35z m-1622 6 c13 -14 21 -25 18 -25 -2 0 -15 11
-28 25 -13 14 -21 25 -18 25 2 0 15 -11 28 -25z m-537 -134 c-2 -6 5 -7 14 -4
11 4 14 3 9 -5 -5 -8 -1 -10 10 -5 13 5 15 3 9 -7 -5 -9 -4 -11 3 -6 10 6 202
-99 202 -111 0 -2 -9 1 -19 7 -28 14 -44 12 -38 -5 4 -8 1 -17 -5 -21 -7 -5
-8 -2 -3 6 6 10 4 12 -8 7 -11 -4 -14 -2 -10 9 3 7 9 14 14 14 5 0 9 4 9 10 0
5 -7 6 -17 3 -11 -4 -14 -3 -9 5 4 7 3 12 -3 12 -17 0 -33 -38 -18 -43 6 -3 2
-5 -9 -4 -19 1 -22 10 -15 35 1 1 1 5 2 10 0 4 5 10 10 13 5 3 -3 11 -18 17
-23 10 -25 10 -13 0 23 -20 25 -42 3 -33 -35 15 -58 11 -55 -9 2 -11 -1 -15
-8 -11 -14 9 -42 -14 -34 -27 4 -6 -3 -5 -16 2 -18 10 -24 9 -35 -6 -7 -10
-11 -24 -8 -31 3 -7 -1 -13 -8 -13 -8 0 -3 -9 11 -21 21 -17 22 -19 3 -10 -29
14 -33 14 -33 -5 0 -8 4 -13 8 -10 4 2 14 0 22 -6 12 -8 12 -9 -2 -4 -21 6
-22 2 -8 -25 6 -10 8 -19 5 -19 -6 0 -107 209 -152 315 -14 33 -32 75 -40 93
l-14 34 133 -71 c73 -39 132 -75 131 -80z m1154 117 c-3 -8 -6 -5 -6 6 -1 11
2 17 5 13 3 -3 4 -12 1 -19z m-576 -35 c13 -16 12 -17 -3 -4 -17 13 -22 21
-14 21 2 0 10 -8 17 -17z m-164 -80 c-2 -16 -4 -5 -4 22 0 28 2 40 4 28 2 -13
2 -35 0 -50z m370 45 c-3 -8 -6 -5 -6 6 -1 11 2 17 5 13 3 -3 4 -12 1 -19z
m-161 -25 c15 -20 23 -33 16 -29 -13 8 -56 66 -49 66 3 0 17 -17 33 -37z m551
15 c-3 -8 -6 -5 -6 6 -1 11 2 17 5 13 3 -3 4 -12 1 -19z m153 -31 c0 -2 -10
-12 -22 -23 l-23 -19 19 23 c18 21 26 27 26 19z m190 -1 c0 -3 -4 -8 -10 -11
-5 -3 -10 -1 -10 4 0 6 5 11 10 11 6 0 10 -2 10 -4z m-1093 -88 c-3 -8 -6 -5
-6 6 -1 11 2 17 5 13 3 -3 4 -12 1 -19z m1090 -10 c-3 -8 -6 -5 -6 6 -1 11 2
17 5 13 3 -3 4 -12 1 -19z m-1437 -8 c0 -5 -7 -7 -15 -4 -8 4 -15 8 -15 10 0
2 7 4 15 4 8 0 15 -4 15 -10z m1143 -18 c336 -91 588 -342 683 -678 27 -96 30
-337 6 -454 -18 -89 -72 -244 -92 -264 -12 -12 -70 29 -156 110 -79 73 -99 83
-123 60 -12 -13 -17 -42 -19 -130 -4 -123 10 -204 52 -288 l23 -48 -71 -49
c-171 -118 -324 -170 -516 -178 -70 -3 -156 -1 -196 6 -417 65 -724 325 -825
702 -31 114 -34 378 -6 479 54 189 128 322 256 454 152 156 329 252 546 295
88 17 349 7 438 -17z m-1127 -9 c0 -5 -7 -7 -13 -7 -7 1 -13 -2 -13 -7 0 -6
-8 -6 -19 0 -10 6 -21 7 -25 4 -3 -3 -6 -1 -6 6 0 7 6 11 13 8 6 -2 21 -1 32
4 21 8 33 4 31 -8z m1579 1 c-24 -18 -83 -50 -73 -39 10 10 81 54 88 54 3 0
-4 -7 -15 -15z m82 -26 c-3 -8 -6 -5 -6 6 -1 11 2 17 5 13 3 -3 4 -12 1 -19z
m-1647 -9 c0 6 8 11 17 11 12 0 14 -3 7 -10 -16 -16 -62 -22 -70 -9 -4 8 -3 9
4 5 7 -4 12 -2 12 5 0 8 4 8 15 -1 10 -9 15 -9 15 -1z m-101 -13 c9 -10 8 -15
-4 -20 -10 -4 -15 1 -15 14 0 24 4 25 19 6z m-29 -6 c0 -5 -5 -10 -11 -10 -5
0 -7 5 -4 10 3 6 8 10 11 10 2 0 4 -4 4 -10z m1600 -5 c-7 -8 -17 -15 -23 -15
-6 0 -2 7 9 15 25 19 30 19 14 0z m286 -62 c-2 -10 -14 -18 -32 -19 -25 -3
-26 -2 -8 6 12 5 25 13 29 19 9 16 14 13 11 -6z m2 -54 c-19 -12 -25 -11 -25
5 0 8 8 11 20 8 14 -4 16 -7 5 -13z m-1885 -16 c-9 -3 -5 -18 14 -51 30 -54
17 -46 -15 9 -21 35 -20 50 2 48 6 0 6 -3 -1 -6z m1885 -31 c2 -7 -1 -12 -8
-12 -6 0 -9 4 -6 9 4 5 3 11 -1 13 -5 3 -4 4 1 3 6 -1 12 -7 14 -13z m-2183
-73 c61 -11 111 -22 113 -24 2 -1 -11 -5 -27 -7 -16 -2 -28 -1 -25 4 3 4 -7 8
-21 8 -20 0 -26 -4 -21 -15 3 -8 1 -15 -4 -15 -6 0 -10 4 -10 9 0 14 -29 21
-36 9 -4 -7 -3 -8 4 -4 7 4 13 2 13 -3 1 -6 2 -16 3 -21 2 -21 46 -39 46 -19
0 5 -4 8 -8 5 -4 -2 -14 0 -22 5 -12 7 -10 8 7 6 32 -4 38 -14 22 -34 -12 -14
-12 -16 1 -11 11 4 16 0 16 -13 0 -14 -5 -18 -21 -13 -20 6 -20 6 0 -9 11 -8
28 -13 38 -11 17 3 26 -8 31 -39 1 -8 8 -23 16 -33 8 -11 -8 1 -36 26 -116
106 -163 154 -157 163 3 6 2 7 -4 4 -5 -3 -25 10 -44 29 -33 34 -33 35 -9 30
14 -3 75 -15 135 -27z m2086 4 c13 -16 12 -17 -3 -4 -10 7 -18 15 -18 17 0 8
8 3 21 -13z m-1726 -29 c9 -15 12 -23 6 -20 -11 7 -35 46 -28 46 3 0 12 -12
22 -26z m2290 6 c-4 -6 -11 -7 -17 -4 -6 4 -8 3 -5 -3 3 -5 -11 -26 -31 -46
-27 -26 -44 -35 -60 -32 -13 2 -20 0 -17 -6 4 -5 12 -6 18 -2 7 3 4 -3 -7 -15
-22 -26 -166 -145 -166 -139 0 3 27 28 59 55 33 27 57 53 53 57 -4 5 -2 5 5 1
14 -8 27 10 13 19 -5 3 -10 11 -10 16 0 6 4 8 8 5 5 -3 9 1 9 9 0 9 -10 15
-24 15 -21 0 -28 10 -24 34 1 5 -6 3 -15 -5 -12 -9 -15 -9 -10 -1 4 7 2 12 -7
12 -10 0 -14 -7 -10 -22 4 -22 4 -22 -10 -5 -12 15 -24 17 -64 13 -93 -11 -26
4 122 28 172 28 199 30 190 16z m-2420 -31 c24 -10 -48 0 -85 12 -16 6 -10 7
20 3 25 -4 54 -10 65 -15z m62 -15 c-3 -3 -12 -4 -19 -1 -8 3 -5 6 6 6 11 1
17 -2 13 -5z m118 -6 c5 4 5 1 1 -6 -6 -10 -11 -10 -22 -1 -8 6 -14 14 -14 16
0 3 6 0 13 -6 8 -6 18 -7 22 -3z m1868 -5 c-7 -2 -19 -2 -25 0 -7 3 -2 5 12 5
14 0 19 -2 13 -5z m-46 -9 c-3 -3 -12 -4 -19 -1 -8 3 -5 6 6 6 11 1 17 -2 13
-5z m218 -64 c3 -5 1 -10 -4 -10 -6 0 -11 5 -11 10 0 6 2 10 4 10 3 0 8 -4 11
-10z m-2280 -120 c10 -11 16 -20 13 -20 -3 0 -13 9 -23 20 -10 11 -16 20 -13
20 3 0 13 -9 23 -20z m2175 -14 c0 -2 -8 -10 -17 -17 -16 -13 -17 -12 -4 4 13
16 21 21 21 13z m-2129 -23 c13 -16 12 -17 -3 -4 -10 7 -18 15 -18 17 0 8 8 3
21 -13z m-114 -119 c-3 -3 -12 -4 -19 -1 -8 3 -5 6 6 6 11 1 17 -2 13 -5z
m-40 -10 c-3 -3 -12 -4 -19 -1 -8 3 -5 6 6 6 11 1 17 -2 13 -5z m-52 -13 c-11
-5 -36 -11 -55 -14 -35 -6 -34 -6 5 8 43 14 84 19 50 6z m-89 -29 c8 -5 7 -11
-4 -22 -14 -13 -15 -12 -9 3 5 14 3 17 -11 13 -9 -2 -36 -10 -59 -17 -23 -7
-40 -16 -37 -21 3 -4 11 -5 17 -2 7 4 9 3 5 -1 -5 -5 -20 -10 -35 -11 -22 -3
-25 -1 -13 7 13 9 13 10 0 6 -8 -2 -14 -10 -12 -16 3 -15 -15 -14 -21 2 -3 9
-8 9 -18 -2 -8 -8 -9 -11 -2 -7 6 3 14 2 18 -4 3 -5 20 -7 37 -3 25 5 29 3 23
-8 -7 -11 -6 -11 9 1 16 13 18 12 14 -10 -1 -13 -9 -25 -17 -28 -8 -3 -11 0
-8 6 4 5 -2 12 -13 15 -18 5 -19 4 -3 -17 18 -24 53 -30 53 -9 0 7 5 13 10 13
6 0 10 -3 10 -7 0 -16 65 -8 81 9 16 17 17 16 32 -14 9 -18 12 -34 7 -36 -5
-2 -6 -11 -3 -20 5 -14 3 -13 -9 2 -10 13 -17 15 -22 8 -4 -7 -1 -12 6 -12 9
0 9 -3 -2 -10 -22 -14 -33 -12 -27 4 4 11 1 13 -10 9 -12 -5 -14 -3 -8 7 5 8
4 11 -3 6 -14 -8 -4 -38 16 -50 13 -8 13 -11 -4 -24 -19 -14 -19 -15 1 -8 11
4 25 8 30 9 6 1 13 7 17 12 5 6 8 6 8 -2 0 -7 -8 -16 -17 -22 -15 -8 -9 -12
30 -22 26 -6 46 -14 43 -16 -3 -3 -37 4 -75 16 -51 16 -69 25 -65 36 3 7 13
11 22 8 13 -4 14 -3 4 5 -7 5 -25 7 -39 4 -19 -4 -22 -7 -11 -14 22 -15 -27 0
-155 50 -110 42 -117 47 -114 70 3 19 13 29 43 39 21 8 47 12 57 9 11 -3 16
-2 12 2 -4 4 37 21 92 39 110 35 113 36 129 25z m2982 -76 c92 -30 127 -46
115 -51 -69 -27 -297 -105 -300 -102 -2 3 31 17 74 32 43 15 87 36 99 46 11
11 24 16 29 12 4 -5 5 -2 1 5 -4 7 -11 10 -16 7 -4 -3 -10 4 -13 15 -6 22 8
28 16 8 4 -10 6 -10 6 -1 2 20 -21 27 -33 11 -10 -14 -13 -14 -26 0 -13 14
-12 15 5 9 20 -7 20 -7 0 9 -11 8 -30 13 -42 11 -12 -2 -20 -1 -18 4 3 4 -7
12 -22 17 -16 6 -23 11 -18 11 6 1 70 -19 143 -43z m-2910 10 c-7 -8 -15 -12
-17 -11 -5 6 10 25 20 25 5 0 4 -6 -3 -14z m-68 -31 c0 -5 -5 -3 -10 5 -5 8
-10 20 -10 25 0 6 5 3 10 -5 5 -8 10 -19 10 -25z m160 24 c0 -4 -11 -6 -24 -5
-13 0 -22 4 -20 8 6 9 44 6 44 -3z m-210 -33 c0 -2 -9 -2 -20 1 -11 3 -20 9
-20 15 0 5 9 4 20 -2 11 -6 20 -12 20 -14z m2950 20 c0 -2 -7 -7 -16 -10 -8
-3 -12 -2 -9 4 6 10 25 14 25 6z m10 -39 c0 -7 -4 -6 -10 3 -8 13 -10 13 -10
-1 0 -9 7 -20 16 -23 8 -3 12 -11 8 -17 -4 -8 -9 -7 -15 2 -5 8 -9 10 -9 4 0
-5 -4 -3 -9 4 -6 9 -6 22 0 33 10 19 29 16 29 -5z m-2776 -28 c-11 -13 -12
-18 -3 -21 9 -3 8 -6 -4 -11 -19 -7 -25 17 -7 28 15 9 12 25 -5 25 -8 0 -15 4
-15 10 0 6 10 5 25 -2 23 -10 24 -13 9 -29z m2735 -6 c2 -1 -5 -1 -16 0 -11 0
-20 7 -20 14 0 10 4 10 16 1 9 -7 18 -13 20 -15z m95 18 c-9 -9 -34 -9 -34 -1
0 5 9 8 20 7 10 -1 17 -3 14 -6z m-2864 -31 c-6 -11 -17 -17 -24 -14 -12 5
-12 9 2 23 21 22 35 16 22 -9z m75 -20 c3 -6 -1 -7 -9 -4 -18 7 -21 14 -7 14
6 0 13 -4 16 -10z m-86 -13 c-2 -1 -13 -9 -24 -17 -19 -14 -19 -14 -6 3 7 9
18 17 24 17 6 0 8 -1 6 -3z m43 -50 c-7 -8 -9 -17 -5 -20 3 -4 1 -7 -5 -7 -13
0 -17 42 -5 54 13 12 27 -12 15 -27z m2558 -12 c-46 -18 -64 -17 -25 0 17 8
37 14 45 14 8 0 -1 -7 -20 -14z m-63 -21 c-3 -3 -12 -4 -19 -1 -8 3 -5 6 6 6
11 1 17 -2 13 -5z m-2452 -18 c28 -8 41 -14 30 -14 -21 0 -107 25 -90 27 6 0
33 -6 60 -13z m82 -22 c-3 -3 -12 -4 -19 -1 -8 3 -5 6 6 6 11 1 17 -2 13 -5z
m2124 -121 c13 -16 12 -17 -3 -4 -10 7 -18 15 -18 17 0 8 8 3 21 -13z m-2151
-6 c0 -2 -10 -12 -22 -23 l-23 -19 19 23 c18 21 26 27 26 19z m2201 -34 c13
-16 12 -17 -3 -4 -10 7 -18 15 -18 17 0 8 8 3 21 -13z m-2274 -31 c-10 -10
-14 -22 -10 -27 5 -4 3 -5 -3 -2 -14 8 -47 -26 -37 -38 5 -4 3 -6 -3 -2 -20
11 -67 -38 -71 -75 -4 -46 13 -61 55 -49 18 5 34 6 36 2 5 -7 -204 -44 -211
-37 -4 4 247 246 256 246 2 0 -3 -8 -12 -18z m2468 -143 l90 -87 -40 6 c-22 2
-74 11 -115 18 l-75 13 69 -5 c65 -6 68 -5 53 11 -20 20 -21 27 -4 45 6 7 0 5
-15 -6 -22 -16 -23 -20 -10 -26 10 -3 0 -5 -20 -5 -35 2 -56 17 -23 17 19 0
19 16 0 24 -17 6 -15 44 4 55 10 6 9 10 -3 14 -9 4 -16 2 -16 -3 0 -6 -5 -10
-12 -10 -9 0 -9 3 0 12 9 9 5 20 -20 48 l-33 35 40 -35 c22 -19 81 -74 130
-121z m-2530 41 c4 -6 10 -8 15 -5 5 3 12 0 16 -6 5 -8 3 -9 -6 -4 -10 6 -12
4 -7 -7 4 -12 1 -14 -15 -10 -15 4 -17 7 -6 14 10 8 10 9 -2 5 -8 -2 -14 -11
-12 -21 2 -9 -3 -16 -11 -16 -16 0 -19 29 -4 48 12 15 24 16 32 2z m188 -67
c-7 -2 -19 -2 -25 0 -7 3 -2 5 12 5 14 0 19 -2 13 -5z m2050 0 c-7 -2 -19 -2
-25 0 -7 3 -2 5 12 5 14 0 19 -2 13 -5z m-2096 -9 c-3 -3 -12 -4 -19 -1 -8 3
-5 6 6 6 11 1 17 -2 13 -5z m2156 -1 c-7 -2 -19 -2 -25 0 -7 3 -2 5 12 5 14 0
19 -2 13 -5z m58 -11 c-13 -2 -27 0 -32 5 -6 6 3 7 23 4 28 -4 29 -6 9 -9z
m-2268 1 c-7 -2 -21 -2 -30 0 -10 3 -4 5 12 5 17 0 24 -2 18 -5z m2224 -361
c59 -70 114 -135 121 -144 12 -15 8 -20 -37 -43 -28 -14 -57 -34 -63 -45 -15
-24 -33 -27 -24 -4 3 8 2 13 -3 10 -12 -8 -53 63 -45 76 4 7 2 8 -4 4 -13 -8
-36 30 -27 44 4 6 1 9 -7 8 -7 -2 -12 5 -12 14 1 10 -2 16 -6 13 -4 -3 -18 11
-30 32 -17 29 -19 38 -8 45 9 7 8 8 -6 4 -14 -5 -17 -2 -12 9 3 9 2 13 -4 10
-5 -3 -15 6 -22 21 -11 24 -10 29 15 50 16 13 36 24 47 24 11 0 60 -49 127
-128z m-2179 -7 c-29 -57 -54 -103 -56 -101 -4 5 96 206 103 206 3 0 -19 -47
-47 -105z m2031 -90 c13 -22 15 -31 6 -20 -9 11 -21 19 -26 17 -6 -1 -8 2 -4
8 3 5 1 20 -6 32 -19 37 6 7 30 -37z m-109 9 c0 -2 -9 0 -20 6 -11 6 -20 13
-20 16 0 2 9 0 20 -6 11 -6 20 -13 20 -16z m-1660 1 c0 -2 -10 -9 -22 -15 -22
-11 -22 -10 -4 4 21 17 26 19 26 11z m277 -27 c-3 -8 -6 -5 -6 6 -1 11 2 17 5
13 3 -3 4 -12 1 -19z m1130 -15 c-3 -10 -5 -4 -5 12 0 17 2 24 5 18 2 -7 2
-21 0 -30z m307 16 c20 -12 36 -17 36 -13 0 4 6 0 13 -11 8 -10 19 -15 25 -11
6 3 16 -3 22 -15 10 -18 2 -16 -57 17 -37 20 -72 41 -77 46 -18 15 2 8 38 -13z
m-2049 -48 c-16 -32 -9 -40 15 -18 12 10 12 9 1 -5 -7 -10 -20 -18 -27 -18 -8
0 -14 -5 -14 -11 0 -5 4 -8 8 -5 9 5 36 -23 39 -41 2 -10 -95 -69 -101 -61 -5
5 86 199 91 194 3 -2 -3 -18 -12 -35z m602 -18 c-3 -10 -5 -4 -5 12 0 17 2 24
5 18 2 -7 2 -21 0 -30z m964 0 c13 -16 12 -17 -3 -4 -10 7 -18 15 -18 17 0 8
8 3 21 -13z m198 -93 c6 -58 14 -123 17 -145 l6 -40 -23 30 c-13 16 -24 33
-24 36 0 4 -4 11 -9 16 -5 5 -6 2 -1 -7 14 -26 -16 7 -90 100 -37 47 -54 71
-37 53 23 -24 33 -28 43 -20 11 10 11 9 1 -4 -10 -13 -9 -19 2 -28 8 -7 16 -8
18 -4 3 4 3 3 2 -4 -2 -9 4 -10 23 -2 22 8 24 7 14 -4 -9 -11 -8 -17 3 -26 11
-9 13 -4 10 34 -3 34 0 47 11 51 9 4 15 19 15 42 0 63 8 30 19 -78z m-1579 95
c0 -2 -10 -9 -22 -15 -22 -11 -22 -10 -4 4 21 17 26 19 26 11z m777 -17 c-3
-8 -6 -5 -6 6 -1 11 2 17 5 13 3 -3 4 -12 1 -19z m-370 -45 c-3 -10 -5 -4 -5
12 0 17 2 24 5 18 2 -7 2 -21 0 -30z m173 23 c0 -2 -8 -10 -17 -17 -16 -13
-17 -12 -4 4 13 16 21 21 21 13z m-670 -11 c0 -2 -13 -11 -30 -20 -38 -19 -40
-11 -2 9 31 17 32 18 32 11z m640 -29 c0 -2 -8 -10 -17 -17 -16 -13 -17 -12
-4 4 13 16 21 21 21 13z m257 -38 c-3 -8 -6 -5 -6 6 -1 11 2 17 5 13 3 -3 4
-12 1 -19z m-410 -20 c-3 -7 -5 -2 -5 12 0 14 2 19 5 13 2 -7 2 -19 0 -25z
m113 8 c0 -2 -8 -10 -17 -17 -16 -13 -17 -12 -4 4 13 16 21 21 21 13z m335
-92 c4 -25 3 -24 -8 6 -8 19 -17 46 -20 60 -5 19 -3 17 8 -6 7 -17 16 -44 20
-60z m-458 14 c-2 -13 -4 -5 -4 17 -1 22 1 32 4 23 2 -10 2 -28 0 -40z m72 15
c-14 -16 -40 -45 -57 -66 l-32 -38 1 33 c1 18 3 25 6 16 4 -16 6 -16 25 1 16
16 18 23 8 43 -10 20 -10 21 3 6 13 -16 15 -16 37 7 32 34 40 32 9 -2z m410
-103 c0 -10 -3 -8 -9 5 -12 27 -12 43 0 25 5 -8 9 -22 9 -30z m45 -18 c3 -5
-1 -9 -9 -9 -8 0 -15 4 -15 9 0 4 4 8 9 8 6 0 12 -4 15 -8z m-10 -82 c5 -20 3
-19 -8 5 -7 17 -16 41 -20 55 -5 20 -3 19 8 -5 7 -16 16 -41 20 -55z m116 20
c0 -5 -5 -10 -11 -10 -5 0 -7 5 -4 10 3 6 8 10 11 10 2 0 4 -4 4 -10z m41 -57
c-12 -20 -14 -14 -5 12 4 9 9 14 11 11 3 -2 0 -13 -6 -23z m-47 2 c-4 -8 -3
-22 0 -31 5 -13 9 -14 21 -4 20 17 20 16 -19 -80 l-33 -83 -31 79 c-26 70 -51
150 -36 116 5 -10 9 -10 22 0 13 11 14 11 7 -2 -8 -13 -7 -13 8 -1 15 11 17
11 17 -2 0 -8 -6 -18 -12 -21 -7 -3 -2 -4 12 -3 17 1 26 9 28 25 2 12 7 22 12
22 5 0 7 -7 4 -15z"/>
<path d="M10405 3190 c-3 -5 -1 -10 4 -10 6 0 11 5 11 10 0 6 -2 10 -4 10 -3
0 -8 -4 -11 -10z"/>
<path d="M10870 3009 c0 -5 5 -7 10 -4 6 3 10 8 10 11 0 2 -4 4 -10 4 -5 0
-10 -5 -10 -11z"/>
<path d="M8911 3014 c0 -11 3 -14 6 -6 3 7 2 16 -1 19 -3 4 -6 -2 -5 -13z"/>
<path d="M8996 2999 c21 -23 21 -23 21 -5 0 8 -9 17 -20 20 -18 4 -18 4 -1
-15z"/>
<path d="M8955 2979 c-4 -6 -5 -12 -2 -15 2 -3 7 2 10 11 7 17 1 20 -8 4z"/>
<path d="M8916 2952 c-3 -5 1 -9 9 -9 8 0 12 4 9 9 -3 4 -7 8 -9 8 -2 0 -6 -4
-9 -8z"/>
<path d="M9553 2731 c-63 -21 -114 -59 -143 -106 -37 -59 -22 -70 35 -25 68
54 129 73 216 68 64 -3 70 -2 67 16 -8 50 -96 75 -175 47z"/>
<path d="M10283 2742 c-34 -10 -63 -39 -63 -63 0 -16 4 -20 18 -14 75 29 173
10 264 -51 28 -19 55 -33 60 -32 16 6 -48 93 -88 119 -68 45 -131 58 -191 41z"/>
<path d="M10253 2494 c-54 -20 -119 -83 -146 -142 -33 -72 -31 -200 5 -268 51
-98 143 -151 242 -141 66 7 106 26 156 78 73 75 100 207 64 311 -19 58 -74
123 -127 149 -53 28 -140 33 -194 13z m172 -43 c123 -55 167 -216 97 -353
-109 -211 -393 -140 -410 102 -14 188 155 323 313 251z"/>
<path d="M10227 2309 c-28 -16 -47 -64 -47 -120 0 -45 4 -55 34 -85 56 -56
110 -40 141 41 21 54 14 103 -21 145 -27 32 -71 40 -107 19z"/>
<path d="M9520 2488 c-54 -25 -109 -80 -135 -133 -71 -143 -10 -326 130 -391
162 -76 338 52 338 246 0 118 -40 202 -125 257 -34 23 -54 28 -112 30 -39 2
-82 -3 -96 -9z m140 -28 c51 -14 107 -65 137 -124 37 -72 37 -170 1 -241 -31
-60 -49 -77 -108 -104 -76 -35 -146 -22 -212 37 -187 168 -49 496 182 432z"/>
<path d="M9642 2304 c-50 -34 -68 -125 -37 -184 29 -57 90 -67 134 -22 90 89
2 276 -97 206z"/>
<path d="M9946 2132 c-9 -68 -15 -82 -35 -82 -9 0 -29 -9 -45 -19 -71 -47 -90
-144 -38 -199 52 -55 150 -66 204 -23 27 22 19 38 -10 22 -12 -6 -43 -11 -71
-11 -69 0 -111 35 -111 92 0 80 47 114 142 104 62 -6 69 3 18 24 -27 11 -30
17 -31 59 -1 75 -15 95 -23 33z"/>
<path d="M10320 1830 c-13 -8 -11 -11 8 -16 34 -10 27 -27 -37 -86 -182 -169
-491 -162 -678 15 -47 44 -51 51 -36 62 11 8 13 14 5 19 -18 11 -82 -24 -95
-51 -13 -29 -2 -42 20 -20 15 15 20 12 73 -36 106 -99 232 -147 382 -147 155
0 280 51 384 157 45 46 64 59 75 52 20 -13 29 -11 29 6 0 20 -58 55 -90 55
-14 0 -32 -5 -40 -10z"/>
<path d="M8685 2590 c10 -11 20 -20 23 -20 3 0 -3 9 -13 20 -10 11 -20 20 -23
20 -3 0 3 -9 13 -20z"/>
<path d="M8775 2510 c21 -24 26 -25 19 -6 -3 8 -13 17 -22 21 -13 5 -13 2 3
-15z"/>
<path d="M11258 2653 c7 -3 16 -2 19 1 4 3 -2 6 -13 5 -11 0 -14 -3 -6 -6z"/>
<path d="M11176 2641 c-4 -5 3 -7 14 -4 23 6 26 13 6 13 -8 0 -17 -4 -20 -9z"/>
<path d="M11299 2633 c-13 -16 -12 -17 4 -4 16 13 21 21 13 21 -2 0 -10 -8
-17 -17z"/>
<path d="M8644 2086 c-3 -9 -17 -16 -29 -16 -13 0 -26 -4 -29 -8 -6 -10 40
-10 49 0 4 4 12 5 18 4 7 -2 8 -1 3 2 -4 2 -3 8 4 12 9 5 9 9 1 14 -6 4 -14 0
-17 -8z"/>
<path d="M8550 2060 c0 -5 5 -10 10 -10 6 0 10 5 10 10 0 6 -4 10 -10 10 -5 0
-10 -4 -10 -10z"/>
<path d="M8550 2026 c0 -20 13 -27 30 -14 12 8 11 9 -4 4 -16 -6 -17 -4 -6 9
10 12 10 15 -4 15 -9 0 -16 -6 -16 -14z"/>
<path d="M8480 2020 c-9 -6 -10 -10 -3 -10 6 0 15 5 18 10 8 12 4 12 -15 0z"/>
<path d="M11640 2091 c0 -6 4 -13 10 -16 6 -3 7 1 4 9 -7 18 -14 21 -14 7z"/>
<path d="M8604 1518 c-27 -29 -42 -47 -33 -40 9 6 19 9 22 6 10 -11 78 6 71
17 -4 7 -10 7 -17 0 -6 -6 -22 -11 -35 -11 -21 0 -23 2 -12 15 7 9 20 13 27
10 9 -3 13 0 10 7 -2 7 3 18 12 25 9 6 13 14 10 17 -3 3 -27 -18 -55 -46z"/>
<path d="M11182 1560 c7 -10 14 -18 15 -16 6 6 -9 36 -18 36 -5 0 -4 -9 3 -20z"/>
<path d="M11240 1531 c0 -6 5 -13 11 -16 6 -4 8 -13 5 -21 -3 -8 1 -14 9 -14
9 0 12 6 8 17 -5 12 -3 14 8 8 8 -5 5 1 -5 13 -20 23 -36 29 -36 13z"/>
<path d="M10915 1111 c-3 -5 0 -13 6 -17 7 -4 9 -3 5 4 -3 5 0 13 6 15 9 4 10
6 1 6 -6 1 -14 -3 -18 -8z"/>
<path d="M10955 1090 c-3 -5 1 -10 10 -10 9 0 13 5 10 10 -3 6 -8 10 -10 10
-2 0 -7 -4 -10 -10z"/>
<path d="M11010 958 c0 -17 3 -19 9 -9 5 7 14 10 20 7 6 -4 9 -11 6 -16 -7
-11 23 -6 35 6 6 6 5 15 -1 24 -9 13 -10 12 -5 -2 8 -26 -9 -30 -29 -8 -24 26
-35 25 -35 -2z"/>
<path d="M8752 901 c2 -21 -3 -41 -11 -37 -5 3 -11 -1 -15 -9 -5 -13 -1 -13
27 -2 37 16 47 42 18 50 -11 3 -20 2 -19 -2z m28 -21 c0 -5 -5 -10 -11 -10 -5
0 -7 5 -4 10 3 6 8 10 11 10 2 0 4 -4 4 -10z"/>
<path d="M10516 892 c-3 -6 -1 -14 5 -17 15 -10 25 3 12 16 -7 7 -13 7 -17 1z"/>
<path d="M9921 480 c-10 -5 -9 -9 3 -13 9 -4 16 -3 16 2 0 4 15 5 33 3 17 -3
28 -1 24 4 -10 11 -61 14 -76 4z"/>
</g>
</svg>
