<?xml version="1.0" standalone="no"?>
<!DOCTYPE svg PUBLIC "-//W3C//DTD SVG 20010904//EN"
 "http://www.w3.org/TR/2001/REC-SVG-20010904/DTD/svg10.dtd">
<svg version="1.0" xmlns="http://www.w3.org/2000/svg"
 width="1024.000000pt" height="1024.000000pt" viewBox="0 0 1024.000000 1024.000000"
 preserveAspectRatio="xMidYMid meet">
<metadata>
Created by potrace 1.16, written by Peter Selinger 2001-2019
</metadata>
<g transform="translate(0.000000,1024.000000) scale(0.100000,-0.100000)"
fill="#000000" stroke="none">
<path d="M6031 9697 c-13 -6 -34 -25 -45 -40 -29 -39 -35 -176 -12 -247 21
-64 21 -65 -11 -42 -85 60 -276 130 -462 169 -117 25 -143 27 -381 28 -224 0
-270 -3 -383 -23 -232 -42 -389 -92 -733 -233 -297 -122 -396 -140 -645 -114
-223 23 -285 13 -342 -54 -120 -143 1 -350 243 -415 49 -13 52 -16 30 -22 -14
-4 -72 -31 -130 -60 -134 -67 -217 -140 -261 -229 -28 -57 -31 -72 -27 -129 4
-70 24 -103 79 -131 73 -38 210 -20 338 44 74 38 82 39 49 4 -60 -64 -71 -130
-28 -168 26 -23 87 -44 133 -45 37 0 37 0 37 -40 0 -128 79 -332 165 -428 l47
-52 -39 -43 c-95 -103 -206 -311 -244 -453 -44 -169 -34 -375 26 -510 13 -30
22 -54 20 -54 -2 0 -111 51 -242 114 -284 136 -338 159 -433 185 -40 11 -75
22 -77 25 -2 2 0 39 6 81 25 175 4 262 -72 299 -34 16 -42 17 -75 4 -45 -17
-93 -78 -122 -155 -11 -32 -23 -65 -26 -73 -4 -10 -12 -3 -26 25 -92 178 -320
375 -434 375 -51 0 -100 -26 -114 -61 -27 -63 13 -154 127 -290 42 -51 68 -89
57 -85 -197 81 -318 113 -380 101 -69 -12 -117 -90 -100 -160 9 -37 64 -93
115 -119 25 -13 101 -42 169 -66 67 -24 121 -44 120 -45 -2 -2 -51 -14 -109
-28 -58 -14 -130 -37 -160 -50 -170 -75 -181 -237 -18 -265 50 -9 178 2 276
22 66 14 67 14 96 -10 39 -33 200 -110 262 -126 61 -15 60 -15 47 -30 -21 -26
-43 -124 -33 -150 16 -44 81 -87 256 -173 399 -196 970 -384 1390 -456 66 -12
121 -22 123 -24 1 -1 -14 -56 -33 -121 -125 -414 -228 -603 -480 -879 -106
-117 -122 -144 -112 -194 5 -24 1 -31 -31 -49 -52 -29 -154 -123 -196 -181
-39 -52 -96 -163 -115 -223 -11 -34 -14 -36 -48 -32 -43 5 -94 -10 -117 -35
-25 -28 -152 -476 -171 -605 -6 -38 -11 -47 -24 -42 -9 3 -41 14 -71 25 -154
54 -322 23 -413 -78 -65 -72 -82 -115 -82 -211 0 -77 4 -91 34 -150 77 -150
325 -347 624 -495 291 -145 416 -160 513 -61 45 45 67 94 279 621 65 160 142
346 173 415 84 191 81 237 -22 332 l-51 47 27 54 c35 71 135 193 195 238 88
66 192 107 278 110 45 2 62 -4 114 -35 206 -126 499 -233 799 -292 18 -4 22
-9 17 -22 -43 -108 -46 -432 -5 -572 61 -213 203 -389 363 -448 47 -18 80 -26
203 -48 12 -2 24 -14 28 -27 9 -37 73 -104 122 -127 38 -19 56 -22 107 -17 61
6 203 54 298 102 59 30 59 30 59 3 1 -52 32 -167 64 -235 98 -205 302 -272
513 -168 205 101 271 332 207 728 -45 281 -147 511 -288 653 -91 90 -149 119
-236 118 -58 -1 -101 -15 -390 -127 -179 -69 -333 -128 -342 -132 -39 -16 -48
143 -15 270 12 46 16 50 53 57 104 21 237 63 290 92 l59 33 0 279 c0 368 -26
1069 -51 1375 l-6 77 114 7 c327 22 583 -4 827 -85 91 -29 260 -108 441 -205
117 -62 173 -62 241 2 l26 24 15 -23 c8 -13 25 -42 37 -65 45 -90 141 -163
212 -163 94 0 131 154 75 304 -14 38 -26 70 -26 72 0 2 15 4 33 4 24 0 61 -18
128 -61 154 -100 266 -149 336 -149 51 0 108 33 128 76 16 33 16 39 1 78 -19
51 -76 107 -175 175 l-75 51 66 0 c145 0 285 45 317 101 13 24 13 31 -3 73
-37 96 -141 135 -330 122 -56 -4 -117 -9 -136 -12 l-35 -5 30 23 c71 54 114
102 145 159 27 51 31 69 27 106 -7 65 -39 94 -103 95 -110 0 -208 -48 -324
-158 l-45 -43 -95 47 c-173 86 -458 193 -630 237 -187 49 -434 68 -588 46 -46
-7 -52 -5 -46 8 32 78 27 159 -16 250 l-29 61 47 -24 c143 -72 297 -74 346 -5
49 71 -21 231 -130 295 l-44 26 62 67 c107 115 165 234 192 394 24 142 0 279
-65 375 l-29 42 29 88 c41 122 63 266 63 407 0 243 -84 454 -245 623 l-41 42
44 0 c49 0 134 35 162 66 56 63 51 139 -12 182 -32 22 -43 23 -120 20 -55 -3
-97 -11 -119 -22 -18 -10 -31 -14 -29 -9 2 4 19 38 37 75 92 188 12 345 -138
269 -46 -24 -89 -72 -127 -141 l-28 -51 -12 39 c-20 70 -91 205 -145 275 -126
167 -312 264 -408 214z m152 -68 c69 -35 147 -100 202 -169 80 -99 113 -166
191 -382 9 -27 20 -48 24 -48 5 0 14 24 20 53 31 129 125 247 198 247 10 0 27
-9 38 -21 40 -45 13 -168 -66 -298 -27 -45 -48 -86 -45 -91 3 -4 36 5 73 21
97 40 180 60 222 53 78 -14 101 -55 58 -109 -30 -38 -75 -55 -171 -62 -45 -3
-85 -11 -89 -17 -4 -6 22 -40 62 -78 247 -244 323 -603 205 -976 -25 -78 -36
-95 -50 -72 -9 15 -95 56 -134 65 -116 25 -288 -24 -390 -111 -21 -19 -41 -34
-44 -34 -3 0 -8 17 -12 38 -9 50 -42 125 -53 118 -4 -3 -2 -44 5 -93 17 -107
12 -213 -11 -248 -13 -20 -25 -25 -55 -25 -35 0 -45 6 -96 63 -109 119 -196
349 -226 591 -15 121 -7 352 15 456 9 41 27 109 40 150 14 42 20 77 15 78 -5
2 -22 -8 -37 -24 -103 -104 -396 -241 -588 -275 -76 -13 -299 -7 -355 10 -49
15 -103 53 -107 75 -2 10 9 32 26 50 16 17 33 44 36 60 10 39 55 82 102 95
121 34 250 -7 325 -101 21 -27 39 -54 39 -59 0 -15 30 -10 36 6 16 42 -51 134
-130 180 -150 86 -371 33 -406 -96 -13 -48 -48 -73 -228 -163 -480 -240 -953
-410 -1211 -434 -91 -8 -237 2 -257 19 -29 24 -15 56 64 142 42 47 109 112
147 144 73 63 139 132 132 139 -3 3 -40 -21 -83 -52 -228 -163 -456 -262 -581
-252 -48 4 -61 10 -85 37 -72 80 -6 212 165 325 92 61 188 105 356 162 l114
39 -139 6 c-104 5 -154 12 -197 27 -121 43 -180 93 -212 175 -31 82 16 167
102 183 19 4 86 2 147 -5 209 -21 383 -12 501 26 28 8 149 55 270 103 349 139
524 191 760 225 113 17 419 23 505 11 172 -25 330 -64 453 -111 109 -43 155
-69 285 -163 57 -41 105 -73 107 -71 2 2 -22 45 -53 94 -109 175 -131 314 -64
388 20 23 72 17 135 -14z m-175 -1101 c-59 -232 -41 -564 42 -808 52 -151 148
-307 223 -362 36 -26 49 -29 90 -25 27 2 56 12 69 23 31 28 58 93 58 141 0 36
5 46 43 78 99 86 268 136 370 110 110 -28 207 -124 246 -241 85 -260 -105
-646 -367 -744 -109 -42 -265 -35 -366 15 -40 21 -41 20 -55 -27 -19 -64 -105
-225 -163 -303 -112 -152 -298 -310 -488 -413 -379 -206 -905 -267 -1342 -157
-469 119 -818 413 -909 763 -26 100 -27 250 -4 352 32 139 124 320 239 473 36
48 40 60 50 145 7 69 6 128 -4 235 -8 78 -14 162 -14 186 l-1 44 100 22 c251
57 695 233 1033 410 58 31 106 54 107 53 1 -2 8 -13 14 -26 7 -12 29 -33 50
-46 124 -78 369 -86 600 -20 96 28 260 105 336 158 28 19 53 35 56 35 3 1 -3
-32 -13 -71z m-2338 -535 c0 -5 7 -71 15 -148 15 -145 20 -305 9 -305 -21 0
-101 139 -130 226 -13 40 -27 107 -31 148 l-6 75 44 4 c83 7 99 7 99 0z
m-1638 -782 c121 -58 348 -329 335 -400 -2 -14 -21 -64 -41 -111 -42 -99 -47
-170 -17 -236 28 -62 63 -77 40 -18 -6 16 -10 60 -10 98 1 73 -4 60 126 348
80 177 115 209 170 154 34 -34 41 -101 22 -215 -29 -168 -29 -179 -12 -203 9
-13 15 -44 15 -74 0 -67 -49 -237 -99 -341 l-40 -83 -59 0 c-116 0 -257 50
-357 125 -76 58 -108 75 -120 65 -17 -14 -209 -50 -268 -50 -58 0 -93 15 -113
45 -12 18 -11 26 4 55 26 47 98 84 227 115 191 47 225 58 225 71 0 18 -10 22
-200 93 -91 34 -182 73 -202 86 -65 43 -81 101 -40 148 21 24 102 22 187 -4
37 -11 126 -47 198 -80 72 -32 142 -59 155 -59 23 0 23 1 6 28 -9 16 -66 89
-126 162 -149 182 -181 248 -141 293 22 23 72 19 135 -12z m4947 -548 c51 -37
83 -79 102 -136 20 -58 16 -81 -17 -96 -59 -27 -156 -9 -293 55 -51 24 -97 41
-102 38 -17 -10 -9 -43 26 -101 40 -67 67 -163 59 -207 -3 -17 -13 -47 -22
-66 -14 -28 -25 -36 -65 -46 -48 -12 -49 -12 -42 9 3 12 9 47 12 78 7 71 -23
176 -67 238 -34 46 -105 96 -162 113 -21 6 -38 14 -38 17 0 4 30 90 35 98 0 1
30 -7 65 -18 122 -39 305 -20 395 41 35 24 63 20 114 -17z m-4218 1 c30 -9 87
-30 127 -46 81 -35 77 -24 72 -168 -6 -206 -107 -441 -258 -602 l-64 -68 -111
57 c-60 32 -123 70 -139 85 -32 30 -32 51 -2 124 12 29 19 34 49 34 19 0 35
-4 35 -10 0 -5 -16 -28 -35 -49 -41 -45 -36 -56 15 -32 72 34 186 225 231 386
17 60 23 108 23 192 1 62 1 113 2 113 0 0 25 -7 55 -16z m688 -313 c34 -13 56
-32 101 -92 113 -147 285 -286 474 -381 75 -38 294 -117 326 -118 9 0 27 -27
43 -63 15 -34 50 -88 78 -120 62 -70 202 -164 303 -202 l74 -29 -24 -48 c-55
-109 -65 -141 -183 -628 -60 -245 -122 -441 -203 -645 -34 -82 -66 -169 -72
-192 l-11 -43 -155 106 c-196 134 -327 199 -451 224 -119 25 -139 25 -139 2 0
-14 -13 -21 -51 -30 -29 -7 -54 -10 -56 -8 -13 12 17 57 96 145 48 53 106 120
130 148 l42 53 52 -39 c124 -93 277 -143 370 -120 58 14 119 63 149 122 24 47
40 137 27 153 -5 6 -60 33 -122 59 -111 47 -290 125 -294 129 -1 1 16 47 38
101 74 184 228 718 216 749 -4 9 -13 16 -20 16 -13 0 -23 -26 -72 -202 -14
-48 -20 -58 -38 -58 -44 0 -367 72 -547 121 -290 79 -544 168 -811 282 l-36
16 63 65 c157 165 263 425 264 648 l0 87 198 -95 c108 -53 217 -103 241 -113z
m2956 135 c19 -8 57 -36 84 -61 64 -59 91 -128 91 -225 0 -99 -9 -115 -72
-135 -235 -77 -459 -192 -778 -403 -282 -186 -407 -245 -589 -276 -96 -16
-211 -21 -211 -9 0 16 90 119 183 210 122 118 202 183 227 183 60 0 369 130
486 205 201 128 397 323 481 478 29 51 42 56 98 33z m792 -411 c136 -19 234
-45 435 -112 l167 -57 -47 -31 c-64 -43 -163 -151 -204 -222 -74 -127 -123
-277 -135 -410 l-6 -72 -51 26 c-76 39 -298 109 -416 131 -142 28 -356 44
-493 37 -97 -5 -299 -24 -304 -28 0 -1 5 -76 12 -167 8 -91 16 -247 20 -345 3
-99 8 -208 10 -242 2 -35 9 -265 16 -512 14 -503 18 -469 -59 -502 -135 -58
-345 -96 -587 -105 -343 -14 -691 63 -1014 222 l-133 67 6 45 c3 25 33 111 65
191 81 201 143 399 203 646 104 434 127 513 168 602 l41 89 97 1 c245 2 429
70 732 273 346 231 626 367 896 435 211 54 395 67 581 40z m1359 -150 c37 -56
-17 -134 -206 -297 -36 -31 -62 -59 -57 -64 4 -4 75 1 157 11 233 28 371 9
415 -59 25 -37 15 -58 -36 -83 -64 -30 -151 -43 -302 -43 -81 0 -126 -4 -122
-10 3 -5 66 -52 139 -104 72 -52 146 -110 164 -130 41 -47 43 -88 6 -113 -58
-38 -143 -10 -351 114 -111 66 -128 73 -176 73 -29 0 -61 -6 -72 -14 -20 -14
-20 -14 19 -121 37 -102 33 -215 -9 -231 -28 -11 -85 7 -120 37 -19 17 -56 71
-81 120 -48 90 -86 138 -138 175 l-28 21 35 87 c47 116 116 224 196 309 65 68
65 69 82 48 23 -28 35 -26 44 6 9 36 38 75 113 150 93 93 185 142 269 143 35
0 46 -5 59 -25z m-660 -61 c76 -30 214 -97 214 -104 0 -3 -15 -11 -34 -18 -52
-19 -184 -164 -249 -273 -117 -197 -184 -434 -122 -434 16 0 22 10 29 53 5 28
12 52 16 52 3 0 19 -14 36 -31 l29 -31 -30 -24 c-56 -45 -78 -42 -212 32 -80
43 -123 72 -123 83 0 9 7 57 15 106 30 188 115 372 220 478 49 50 147 127 161
127 6 0 29 -7 50 -16z m-3351 -139 c59 -9 145 -16 190 -16 l83 -1 56 -115 c31
-64 54 -123 51 -132 -3 -9 -16 -29 -30 -45 l-24 -30 -53 17 c-128 40 -302 172
-359 271 -27 47 -34 66 -26 66 2 0 52 -7 112 -15z m630 -13 c-17 -15 -71 -67
-121 -115 l-90 -87 -40 99 -40 98 110 7 c61 4 129 11 151 15 61 13 62 13 30
-17z m-872 -1183 c35 -12 38 -16 33 -43 -9 -46 -64 -123 -104 -148 -76 -47
-215 -18 -369 78 l-72 45 33 52 c18 29 49 82 70 118 l36 67 168 -78 c92 -43
184 -84 205 -91z m-520 -474 c78 -20 200 -83 326 -168 77 -52 101 -72 86 -74
-102 -17 -220 -73 -297 -142 -79 -71 -142 -160 -205 -289 0 -2 -20 9 -43 23
-85 53 -356 155 -459 171 -23 4 -41 7 -41 9 0 1 10 26 23 57 81 199 224 344
397 404 77 27 135 29 213 9z m-611 -535 c249 -48 483 -155 597 -273 44 -46 51
-101 22 -177 -34 -89 -28 -89 -132 12 -67 67 -118 106 -179 140 -153 85 -309
134 -452 145 -50 3 -88 10 -88 16 0 20 33 132 43 145 14 17 70 15 189 -8z
m2633 -107 c-19 -50 -27 -127 -23 -209 4 -74 11 -104 32 -148 27 -55 78 -108
133 -137 63 -34 123 -208 123 -356 0 -102 -4 -109 -80 -137 -131 -47 -310 -38
-445 24 -197 89 -322 276 -356 530 -14 106 -6 317 15 386 l16 51 202 -4 c112
-2 237 0 278 5 114 14 113 14 105 -5z m-2639 -113 c93 -22 217 -73 317 -131
89 -52 252 -210 244 -236 -10 -33 -335 -824 -341 -830 -6 -7 -123 95 -311 272
-238 223 -338 302 -462 364 -105 52 -165 71 -247 78 l-70 6 35 29 c66 55 188
73 302 43 81 -21 169 -66 262 -135 48 -35 84 -55 89 -49 15 14 -44 79 -112
124 -33 22 -61 47 -61 55 -1 8 24 111 56 229 l57 213 82 -6 c45 -4 117 -15
160 -26z m3539 -5 c51 -29 142 -125 189 -198 71 -111 138 -293 173 -472 12
-64 17 -141 18 -265 0 -220 -15 -277 -102 -371 -31 -33 -58 -58 -60 -56 -2 3
5 20 16 38 57 96 75 230 60 422 -29 362 -171 717 -354 886 -25 23 -45 43 -45
46 0 10 68 -9 105 -30z m-101 -36 c117 -107 201 -252 269 -464 70 -219 104
-499 78 -651 -14 -77 -51 -167 -84 -202 -100 -108 -287 -73 -384 72 -37 54
-78 174 -88 256 -6 53 -6 55 23 73 17 9 55 38 86 63 87 70 105 122 24 67 -24
-17 -82 -51 -129 -76 -86 -47 -121 -59 -101 -34 21 26 43 143 44 233 0 145
-32 260 -108 386 -37 61 -126 148 -152 148 -8 0 -12 3 -8 7 10 10 438 171 458
172 9 1 41 -22 72 -50z m-455 -235 c46 -52 105 -170 128 -254 24 -91 24 -265
-1 -340 -41 -120 -44 -124 -160 -165 -152 -54 -206 -48 -276 31 -30 35 -31 38
-14 45 11 4 35 8 54 9 19 0 65 11 103 24 37 12 67 21 67 19 0 -14 -43 -82 -64
-102 -36 -33 -23 -45 24 -21 109 56 153 298 89 493 -26 81 -94 187 -130 204
-28 13 -104 92 -96 99 2 2 35 15 73 28 l69 24 49 -26 c26 -15 65 -45 85 -68z
m-3656 -277 c146 -53 267 -142 556 -411 91 -85 201 -183 243 -217 l77 -62 -19
-38 c-11 -21 -24 -40 -30 -44 -14 -9 -180 127 -333 272 -162 154 -269 245
-367 310 -143 96 -215 123 -325 124 -71 1 -67 -4 -49 60 3 11 15 25 27 30 35
15 146 3 220 -24z m-20 -156 c135 -67 280 -182 522 -415 l90 -87 -115 5 c-169
7 -218 21 -338 96 -217 136 -352 281 -392 420 l-9 33 78 -5 c67 -4 91 -11 164
-47z m709 -579 c29 -21 64 -45 78 -52 23 -12 24 -14 5 -21 -61 -23 -167 1
-323 73 l-91 43 139 -2 139 -2 53 -39z"/>
<path d="M4207 8616 c-127 -53 -212 -150 -205 -234 l3 -37 22 40 c40 74 91
123 168 161 63 31 81 36 124 32 34 -3 59 -13 82 -32 22 -19 35 -24 42 -17 16
16 -7 52 -51 80 -53 35 -114 37 -185 7z"/>
<path d="M5250 8199 c-153 -19 -304 -119 -392 -259 -148 -235 -115 -553 76
-728 136 -125 313 -144 501 -53 208 100 334 307 335 551 0 224 -133 417 -330
478 -48 15 -124 19 -190 11z m167 -64 c118 -35 227 -140 274 -264 29 -79 36
-217 15 -301 -27 -108 -81 -205 -156 -281 -89 -91 -171 -131 -282 -137 -243
-14 -429 171 -445 443 -10 162 37 287 151 401 130 129 298 182 443 139z"/>
<path d="M4992 7513 c-19 -8 -42 -59 -42 -95 0 -38 30 -92 59 -108 50 -26 101
22 101 95 0 80 -57 133 -118 108z"/>
<path d="M4155 8067 c-173 -58 -293 -191 -331 -366 -27 -130 -13 -245 46 -366
77 -160 231 -255 389 -242 37 3 73 8 81 11 12 5 19 -5 28 -37 34 -113 148
-179 295 -168 9 0 17 7 17 15 0 9 -17 16 -47 20 -27 4 -76 20 -110 37 -71 34
-103 76 -110 143 -5 37 -1 47 26 79 65 73 151 83 264 31 32 -14 61 -23 64 -20
16 16 -66 89 -120 108 -4 2 -1 17 7 33 45 91 62 265 37 375 -34 143 -128 268
-246 325 -51 25 -73 30 -155 32 -59 2 -110 -2 -135 -10z m232 -63 c102 -34
188 -124 235 -246 30 -77 37 -246 13 -319 -31 -95 -52 -129 -81 -129 -29 0
-99 -34 -132 -64 -13 -11 -32 -38 -43 -58 -16 -32 -26 -38 -73 -49 -150 -33
-315 61 -391 224 -121 257 -3 564 248 642 58 19 167 18 224 -1z"/>
<path d="M4355 7435 c-31 -30 -33 -86 -5 -132 16 -27 26 -33 54 -33 47 0 61
22 61 92 0 51 -4 63 -24 79 -31 26 -57 24 -86 -6z"/>
<path d="M6795 7431 c-89 -40 -241 -193 -296 -295 -24 -45 -21 -69 5 -47 27
22 71 29 103 16 61 -26 80 -126 42 -216 -12 -27 -20 -51 -18 -53 13 -12 53 20
69 56 52 113 1 251 -97 267 l-37 6 74 79 c94 100 178 156 232 156 44 0 84 -17
112 -49 24 -26 36 -27 36 -1 0 29 -28 69 -61 86 -38 19 -116 17 -164 -5z"/>
<path d="M5545 7071 c-42 -11 -103 -43 -189 -102 -126 -85 -350 -168 -512
-190 -53 -7 -131 -9 -194 -5 -161 9 -244 -23 -290 -115 -75 -145 56 -363 283
-474 209 -101 484 -113 690 -30 159 65 331 218 404 360 83 163 105 305 63 418
-41 108 -145 165 -255 138z m76 -58 c8 -120 -70 -203 -296 -314 -176 -87 -283
-113 -465 -113 -163 -1 -194 8 -237 74 -38 55 -35 57 90 57 61 0 141 5 177 12
147 27 375 117 485 191 84 56 126 79 180 96 55 17 65 17 66 -3z m101 -371 c31
-13 -61 -161 -162 -262 -89 -89 -157 -135 -262 -177 -65 -27 -233 -61 -244
-50 -23 23 97 209 189 292 106 97 255 175 370 194 65 11 87 11 109 3z"/>
<path d="M4995 5153 c-11 -3 -34 -16 -52 -29 -37 -28 -56 -98 -51 -185 4 -67
30 -88 114 -96 119 -10 173 31 181 138 11 135 -65 203 -192 172z m123 -63 c18
-17 22 -32 22 -86 0 -56 -4 -68 -25 -89 -20 -21 -34 -25 -85 -25 -34 0 -70 5
-82 11 -18 10 -19 17 -13 67 3 32 9 68 12 80 13 55 127 83 171 42z"/>
<path d="M4813 4475 c-37 -16 -55 -47 -77 -129 -22 -86 -7 -117 71 -146 68
-25 131 -23 172 7 47 35 78 173 50 225 -26 48 -148 73 -216 43z m142 -45 c36
-14 47 -50 34 -111 -14 -65 -40 -89 -96 -89 -50 0 -111 22 -119 44 -8 22 24
124 46 146 22 22 90 27 135 10z"/>
<path d="M5315 4390 c-5 -8 -10 -57 -13 -110 -6 -125 13 -194 70 -256 84 -91
250 -134 431 -113 146 18 243 72 289 163 29 56 35 166 15 237 l-16 54 -283 0
c-188 0 -305 5 -348 13 -118 24 -137 25 -145 12z m120 -57 c63 -13 136 -17
352 -17 l272 -1 5 -29 c20 -98 -4 -195 -60 -248 -92 -86 -297 -110 -472 -56
-80 24 -153 89 -172 153 -15 51 -25 215 -14 215 5 0 45 -8 89 -17z"/>
<path d="M1922 3621 c-67 -17 -103 -79 -87 -150 10 -46 75 -105 162 -147 98
-46 364 -154 381 -154 19 0 14 30 -17 97 -62 130 -184 280 -267 329 -46 27
-121 38 -172 25z m138 -71 c50 -25 139 -122 204 -222 31 -48 56 -89 56 -92 0
-3 -24 7 -52 23 -29 16 -100 48 -158 72 -134 54 -192 90 -215 132 -49 92 50
144 165 87z"/>
<path d="M7899 3340 c-51 -15 -148 -72 -212 -125 -114 -94 -246 -293 -307
-463 -34 -93 -21 -97 92 -23 51 34 161 96 243 138 248 126 347 201 381 290 20
51 14 115 -13 145 -37 42 -117 59 -184 38z m136 -65 c46 -45 27 -113 -51 -186
-55 -50 -137 -101 -294 -179 -58 -29 -136 -72 -174 -97 -37 -24 -70 -42 -73
-40 -8 9 47 120 103 204 71 109 160 204 244 258 79 51 111 63 173 64 38 1 53
-4 72 -24z"/>
<path d="M1504 2966 c-17 -7 -41 -27 -53 -42 -19 -24 -22 -38 -19 -81 5 -62
34 -104 114 -167 67 -52 255 -165 295 -176 67 -19 15 30 -136 130 -134 89
-162 112 -197 158 -57 73 -28 132 67 140 78 6 156 -34 266 -136 84 -78 127
-112 141 -112 26 0 -4 43 -94 134 -123 123 -186 159 -288 163 -40 2 -77 -2
-96 -11z"/>
<path d="M3991 2628 c-51 -35 -76 -90 -76 -168 1 -89 26 -141 153 -318 113
-158 188 -301 222 -423 11 -40 20 -75 20 -77 0 -2 -43 35 -95 82 -239 217
-479 312 -620 247 -55 -25 -76 -52 -82 -105 -4 -35 0 -54 23 -96 15 -28 43
-64 61 -80 18 -16 33 -31 33 -34 0 -2 -69 -5 -152 -5 -84 -1 -193 -4 -243 -7
-244 -15 -506 -37 -655 -55 -514 -63 -790 -134 -857 -219 -19 -24 -15 -84 7
-113 58 -73 321 -139 655 -163 50 -4 97 -8 105 -10 8 -1 57 -3 109 -3 l95 -1
-31 -31 c-39 -37 -49 -76 -30 -121 63 -151 377 -233 1192 -313 302 -29 598
-40 1170 -40 730 0 1048 18 1293 76 98 22 120 32 149 67 l23 27 247 6 c333 9
510 31 771 95 544 133 709 356 385 517 -228 114 -670 202 -1183 236 -215 15
-329 20 -443 21 l-99 0 27 31 c68 82 103 197 74 251 -15 28 -74 51 -113 43
-99 -20 -213 -80 -366 -195 -63 -48 -134 -99 -157 -114 -41 -27 -41 -27 -93
-12 -29 9 -81 19 -116 22 l-64 7 0 54 c0 60 -17 109 -48 137 -33 29 -98 17
-174 -32 -35 -23 -79 -48 -100 -56 -33 -14 -38 -14 -58 2 -20 16 -23 32 -31
158 -10 155 -23 230 -48 289 -40 91 -112 140 -171 115 -49 -20 -67 -75 -85
-255 -9 -88 -18 -162 -20 -164 -5 -5 -29 54 -76 186 -127 359 -272 543 -442
560 -43 4 -58 1 -86 -19z m181 -74 c111 -78 195 -219 312 -524 48 -126 91
-200 116 -200 26 0 48 74 61 210 14 139 27 206 44 220 27 23 68 7 97 -36 40
-59 56 -137 67 -311 11 -171 20 -196 79 -213 40 -10 72 2 197 75 111 64 128
49 135 -116 7 -147 21 -172 93 -177 82 -5 201 60 439 240 130 99 204 141 287
160 43 10 53 9 75 -6 54 -35 29 -98 -105 -266 -50 -63 -97 -128 -106 -143 -18
-36 -20 -76 -4 -106 12 -21 18 -22 89 -19 42 2 143 15 223 28 142 23 148 23
215 7 38 -10 75 -24 84 -33 13 -14 11 -19 -20 -45 -51 -43 -170 -85 -337 -119
-288 -57 -568 -85 -970 -97 -173 -5 -233 -9 -233 -18 0 -35 483 -28 870 11
501 51 803 172 725 290 -44 68 -179 88 -370 56 -197 -34 -234 -37 -241 -19 -8
22 18 67 74 128 l49 53 287 -12 c659 -29 1146 -113 1430 -247 70 -33 146 -103
146 -134 0 -167 -444 -328 -1045 -380 -66 -6 -154 -13 -195 -16 -313 -23 -350
-30 -350 -59 0 -37 -322 -84 -725 -105 -204 -10 -991 -11 -1240 0 -684 28
-1283 101 -1539 188 -238 81 -271 169 -98 256 30 14 52 28 49 31 -2 2 -91 11
-198 19 -366 28 -579 59 -731 105 -76 24 -102 37 -123 61 -25 31 -25 32 -8 52
100 112 907 239 1679 263 l221 7 81 -62 c79 -60 172 -154 172 -173 0 -5 -8 -7
-18 -4 -37 12 -170 25 -254 26 -318 1 -349 -158 -46 -239 206 -56 808 -107
796 -68 -3 7 -34 15 -79 20 -228 24 -636 80 -709 97 -95 23 -163 57 -168 83
-3 12 8 23 35 35 31 13 67 17 188 16 164 0 261 -14 280 -41 11 -15 13 -15 24
5 16 29 14 47 -9 93 -31 59 -82 111 -203 206 -131 103 -197 185 -197 244 0 52
31 72 119 77 142 8 335 -96 537 -290 63 -60 120 -108 127 -105 17 6 10 100
-13 192 -39 151 -104 275 -243 459 -130 172 -159 257 -119 349 16 37 27 48 54
55 44 11 90 0 140 -34z m1331 -963 c16 -6 5 -13 -51 -34 -40 -15 -78 -24 -86
-21 -13 5 -36 46 -36 66 0 11 136 2 173 -11z"/>
<path d="M2977 1399 c-23 -14 -57 -82 -57 -116 0 -62 61 -127 170 -183 107
-54 371 -124 550 -146 36 -4 67 -8 70 -9 3 -1 55 -5 115 -9 61 -4 121 -9 135
-11 85 -12 258 -15 284 -5 16 6 26 13 24 16 -3 2 -77 11 -164 19 -399 36 -540
56 -719 99 -198 48 -326 105 -384 171 -38 44 -40 79 -6 129 14 20 25 41 25 46
0 13 -20 12 -43 -1z"/>
<path d="M7030 1291 c0 -5 22 -28 49 -51 58 -48 69 -72 47 -104 -56 -87 -364
-162 -816 -201 -133 -11 -412 -45 -421 -51 -46 -28 82 -30 381 -4 537 47 821
118 896 224 21 31 18 99 -7 130 -33 42 -129 84 -129 57z"/>
<path d="M8045 2519 c-196 -56 -371 -173 -542 -362 -109 -122 -191 -257 -154
-257 5 0 41 44 81 98 181 241 412 412 631 466 72 18 184 21 222 7 68 -26 87
-96 41 -150 -48 -58 -129 -99 -586 -301 -189 -83 -274 -137 -252 -159 7 -8 36
1 101 33 50 25 208 95 350 156 142 62 285 127 319 146 74 40 129 98 145 153
24 79 -23 157 -109 181 -57 16 -170 11 -247 -11z"/>
<path d="M1740 2204 c-110 -48 -129 -158 -38 -224 53 -39 131 -63 338 -105 96
-20 201 -43 234 -51 32 -8 106 -24 164 -35 59 -10 115 -22 125 -25 35 -11 -1
36 -107 142 -154 153 -323 262 -463 298 -77 20 -207 20 -253 0z m302 -68 c80
-33 249 -146 352 -236 41 -36 73 -66 72 -68 -2 -1 -45 9 -97 23 -52 13 -195
45 -318 70 -138 28 -244 55 -277 71 -95 45 -105 115 -24 157 54 28 203 19 292
-17z"/>
<path d="M7805 1839 c-67 -13 -213 -58 -247 -75 -16 -8 -28 -21 -28 -29 0 -16
9 -19 110 -35 36 -6 119 -26 185 -45 151 -43 204 -50 249 -35 101 33 98 148
-6 201 -50 26 -179 35 -263 18z m243 -72 c40 -22 60 -60 43 -81 -26 -31 -81
-28 -261 17 l-175 44 75 17 c159 36 254 37 318 3z"/>
</g>
</svg>
