<?xml version="1.0" standalone="no"?>
<!DOCTYPE svg PUBLIC "-//W3C//DTD SVG 20010904//EN"
 "http://www.w3.org/TR/2001/REC-SVG-20010904/DTD/svg10.dtd">
<svg version="1.0" xmlns="http://www.w3.org/2000/svg"
 width="1024.000000pt" height="1024.000000pt" viewBox="0 0 1024.000000 1024.000000"
 preserveAspectRatio="xMidYMid meet">
<metadata>
Created by potrace 1.16, written by Peter Selinger 2001-2019
</metadata>
<g transform="translate(0.000000,1024.000000) scale(0.100000,-0.100000)"
fill="#000000" stroke="none">
<path d="M4680 9422 c-386 -393 -855 -909 -1265 -1391 -353 -413 -951 -1152
-985 -1217 -12 -21 -9 -30 37 -96 27 -40 115 -170 195 -289 403 -600 1136
-1564 1652 -2174 105 -123 315 -355 446 -490 75 -77 153 -166 174 -197 93
-138 222 -249 374 -321 l87 -41 -45 -8 c-289 -51 -376 -94 -387 -191 -7 -57
10 -89 94 -177 115 -122 265 -207 351 -197 88 10 125 77 144 262 11 108 12
111 47 141 l36 32 65 -33 c36 -18 119 -54 185 -80 152 -60 283 -122 361 -173
74 -48 198 -162 187 -172 -4 -4 -42 -2 -83 6 -41 7 -116 13 -165 14 -75 0 -99
-4 -135 -22 -85 -43 -92 -109 -25 -243 83 -167 184 -265 272 -265 37 0 50 6
88 41 51 47 108 152 126 234 11 50 14 55 33 48 12 -4 31 -7 44 -8 49 -3 109
-132 119 -255 15 -193 -43 -359 -181 -520 -43 -50 -50 -54 -84 -51 -20 1 -38
4 -40 6 -1 1 -5 31 -8 66 -26 295 -145 394 -298 249 -93 -88 -198 -291 -182
-353 18 -74 118 -120 263 -121 88 -1 92 -2 96 -24 4 -19 -4 -29 -37 -49 -64
-41 -213 -109 -298 -137 -229 -74 -530 -76 -795 -4 -81 22 -83 23 -111 81 -2
4 2 7 10 7 26 0 153 67 204 108 59 46 96 112 87 154 -12 61 -207 235 -288 258
-82 23 -154 -20 -198 -118 -40 -87 -53 -185 -40 -279 10 -70 9 -81 -8 -115
l-19 -38 -146 0 c-295 0 -439 63 -749 329 -117 100 -158 133 -240 188 -189
127 -442 213 -630 213 -269 0 -527 -151 -634 -371 -43 -89 -71 -193 -71 -264
0 -129 68 -273 185 -391 70 -71 95 -89 203 -143 95 -47 134 -61 168 -61 52 0
58 17 12 33 -18 7 -87 38 -153 71 -104 51 -130 69 -196 136 -89 90 -144 188
-161 291 -34 208 115 471 325 572 202 98 413 101 656 10 186 -69 340 -170 543
-354 150 -136 311 -235 454 -279 69 -21 217 -38 301 -36 24 1 39 -1 35 -4 -4
-4 -36 -27 -72 -52 -114 -80 -180 -156 -180 -208 0 -96 251 -240 419 -240 71
0 111 24 139 82 36 74 39 231 6 341 -3 10 0 17 9 17 8 0 22 9 31 19 17 19 18
19 74 0 31 -11 104 -29 162 -41 134 -27 369 -30 506 -5 169 31 351 103 481
190 46 31 54 33 70 21 10 -7 28 -14 39 -14 20 0 22 -7 27 -98 6 -118 27 -181
73 -222 55 -48 109 -39 228 37 84 54 176 144 205 201 30 59 28 122 -5 161 -50
60 -194 111 -314 111 -38 0 -60 4 -63 13 -2 6 20 39 48 72 147 168 203 329
193 551 -4 87 -9 110 -37 170 -18 38 -39 77 -48 86 -14 16 -14 24 -4 56 l13
37 86 1 c153 2 251 35 272 90 25 65 5 138 -69 248 -84 124 -155 201 -213 230
-65 33 -89 33 -127 1 -64 -55 -100 -155 -107 -305 -3 -72 -6 -86 -21 -89 -10
-2 -23 -7 -29 -12 -6 -5 -30 12 -65 47 -62 64 -193 154 -283 194 -34 16 -134
58 -222 93 -87 36 -181 75 -209 88 l-50 22 44 8 c25 5 63 11 85 14 75 11 161
36 207 61 87 48 100 110 44 220 -49 99 -156 236 -212 273 -101 67 -186 26
-259 -124 -35 -73 -74 -207 -74 -256 0 -24 -6 -30 -39 -40 -35 -10 -45 -9 -94
14 -90 41 -168 96 -251 176 -81 78 -166 188 -166 212 1 18 392 511 1089 1373
62 78 299 373 526 656 227 283 454 567 506 630 51 63 161 199 244 301 82 103
185 229 228 282 52 64 77 103 77 121 0 20 -42 68 -200 226 -233 233 -681 664
-945 910 -44 41 -82 77 -85 80 -9 10 -429 400 -550 511 -381 349 -917 822
-945 833 -16 6 -50 -23 -195 -172z m664 -311 c324 -290 818 -743 1036 -950
102 -97 261 -248 355 -336 157 -148 394 -378 674 -654 l115 -114 -109 7 c-127
8 -227 15 -305 21 -185 15 -600 28 -947 28 l-402 1 7 25 c15 54 6 224 -17 306
-30 108 -64 168 -141 246 -101 103 -211 149 -355 149 -328 0 -604 -306 -607
-672 l-1 -98 -38 0 c-22 0 -42 -1 -46 -2 -9 -4 -5 91 7 197 5 44 12 105 15
135 9 102 25 247 40 375 3 22 12 101 20 175 9 74 22 178 30 230 13 84 46 322
61 435 14 106 106 654 129 764 14 68 25 126 25 128 0 6 197 -166 454 -396z
m-528 263 c-31 -149 -109 -602 -136 -794 -12 -80 -23 -156 -25 -170 -3 -23
-32 -237 -55 -420 -5 -41 -12 -102 -15 -135 -3 -33 -7 -69 -10 -80 -2 -11 -11
-94 -20 -184 -8 -91 -17 -167 -20 -169 -2 -3 -7 4 -11 14 -76 232 -278 360
-497 314 -94 -19 -174 -66 -258 -149 -137 -137 -190 -270 -193 -480 -1 -101
-4 -125 -16 -126 -8 -1 -49 -5 -90 -9 -185 -17 -533 -74 -805 -132 -88 -19
-164 -34 -168 -34 -7 0 52 75 287 365 110 135 449 546 521 630 328 385 430
503 574 665 172 192 209 233 327 359 38 42 135 146 214 231 181 194 412 431
417 427 2 -2 -8 -57 -21 -123z m561 -1605 c212 -65 343 -266 343 -526 0 -271
-189 -527 -430 -582 -104 -24 -238 -8 -331 40 -56 28 -145 114 -183 177 -98
161 -101 397 -7 586 122 245 380 375 608 305z m-1114 -92 c148 -68 247 -243
247 -438 0 -110 -13 -175 -55 -264 -65 -141 -163 -242 -283 -291 -83 -34 -199
-33 -288 2 -159 64 -264 243 -264 449 0 254 169 498 389 561 72 21 186 13 254
-19z m2437 -628 c74 -4 212 -10 305 -13 160 -6 328 -18 457 -32 l57 -7 -22
-27 c-22 -28 -296 -365 -507 -625 -182 -224 -325 -401 -672 -835 -178 -223
-411 -513 -518 -645 -106 -132 -351 -437 -544 -678 -226 -283 -352 -433 -357
-425 -11 22 -118 453 -160 648 -59 273 -111 540 -129 665 -6 39 -12 86 -15
105 -21 140 -31 210 -40 285 -3 28 -10 84 -15 125 -5 41 -12 104 -15 140 l-6
66 135 -4 c122 -4 143 -2 228 22 272 77 481 273 553 519 9 31 21 57 26 57 16
0 85 -38 98 -54 8 -9 20 -16 27 -16 42 0 -25 86 -91 116 -59 28 -94 29 -154 6
-66 -25 -64 -42 4 -42 l56 0 -30 -57 c-84 -156 -241 -307 -406 -389 -127 -62
-225 -86 -360 -88 -121 -1 -175 12 -321 79 -42 19 -80 33 -83 29 -19 -19 160
-131 247 -153 l42 -12 0 -57 c0 -101 58 -595 95 -813 62 -366 200 -978 258
-1148 8 -22 14 -41 12 -41 -1 0 -45 44 -97 98 -395 406 -964 1110 -1664 2062
-203 275 -272 372 -394 550 -73 107 -152 221 -176 252 l-43 57 67 15 c221 49
679 128 824 141 35 4 70 8 78 10 8 2 45 7 81 10 l66 7 18 -49 c40 -106 124
-196 234 -251 72 -35 80 -37 175 -37 97 0 104 2 181 39 93 45 210 155 263 246
l33 55 -6 -55 c-2 -30 -7 -98 -10 -150 -6 -113 -14 -216 -21 -287 -4 -42 -2
-53 9 -53 23 0 33 52 52 290 3 41 8 95 10 120 2 25 7 80 11 123 l7 77 52 0 52
0 12 -42 c62 -208 263 -370 473 -382 251 -13 512 181 602 447 5 17 28 18 413
16 225 -2 469 -6 543 -10z m-907 -3412 c64 -49 198 -243 212 -308 9 -41 -16
-76 -70 -100 -49 -22 -176 -54 -247 -63 -41 -5 -48 -3 -62 19 -16 24 -15 25
26 64 55 50 44 63 -18 21 -45 -31 -48 -32 -73 -17 -14 8 -27 25 -29 37 -6 40
28 167 67 247 63 129 118 158 194 100z m-238 -439 c45 -42 55 -88 26 -117 -30
-30 -50 -26 -103 20 -37 31 -48 47 -48 69 0 66 68 81 125 28z m-168 -55 c4
-10 14 -28 24 -41 17 -23 17 -24 -22 -79 -21 -31 -36 -59 -33 -62 6 -6 46 36
76 78 l17 24 31 -24 31 -24 -6 -95 c-10 -174 -32 -223 -105 -228 -73 -5 -175
52 -286 162 -100 98 -117 131 -93 175 17 30 58 52 150 81 55 17 172 45 202 49
4 1 11 -7 14 -16z m1365 -125 c25 -18 104 -110 171 -200 64 -86 95 -191 64
-217 -30 -25 -108 -43 -207 -48 l-105 -5 -19 32 c-21 37 -21 38 45 81 42 29
12 33 -36 5 -44 -26 -46 -26 -70 -9 -20 15 -24 26 -24 68 -1 132 38 267 87
306 28 21 50 18 94 -13z m-180 -398 c29 -22 58 -78 58 -109 0 -11 -12 -28 -26
-37 -23 -16 -28 -16 -59 -1 -28 13 -37 26 -51 71 -17 53 -17 56 1 76 23 25 45
25 77 0z m-157 -58 c22 -6 31 -15 33 -34 2 -20 -8 -35 -50 -72 -62 -54 -43
-64 26 -12 63 49 74 33 41 -65 -45 -135 -113 -229 -165 -229 -78 0 -250 225
-267 347 -5 39 -3 42 28 59 58 30 254 34 354 6z m-147 -665 c35 -37 59 -107
77 -220 21 -135 16 -144 -54 -93 -84 60 -101 45 -20 -18 l50 -38 -22 -24 c-19
-21 -32 -24 -88 -24 -81 0 -175 21 -210 47 -37 28 -39 78 -5 145 37 74 94 155
143 206 49 50 94 57 129 19z m-1162 -163 c109 -76 174 -142 174 -175 0 -58
-132 -168 -244 -203 -81 -26 -89 -16 -59 75 13 39 22 74 19 77 -4 3 -20 -27
-38 -66 -31 -69 -32 -71 -62 -65 -17 3 -32 7 -34 8 -11 9 -12 144 -3 200 20
111 68 189 121 197 40 6 61 -2 126 -48z m1361 -210 c9 -25 -7 -64 -43 -104
-42 -47 -65 -50 -93 -14 -18 23 -19 29 -7 53 37 70 125 110 143 65z m187 -59
c179 -34 257 -110 199 -195 -49 -75 -196 -198 -268 -225 -40 -16 -49 -16 -72
-4 -43 23 -65 90 -71 211 -6 135 1 149 60 112 55 -35 69 -25 19 15 l-41 33 17
29 c25 42 47 46 157 24z m-1726 -144 c52 -27 84 -64 80 -93 -3 -20 -8 -23 -44
-21 -23 1 -59 10 -80 20 -32 15 -40 24 -42 49 -3 30 18 64 39 64 5 0 26 -9 47
-19z m-87 -118 c19 -9 36 -18 38 -20 2 -1 -13 -28 -34 -58 -21 -31 -35 -59
-31 -63 9 -9 51 42 67 81 10 24 16 27 38 22 14 -4 27 -7 28 -8 9 -10 21 -131
19 -202 -1 -75 -6 -97 -27 -135 l-25 -45 -74 1 c-60 1 -90 8 -153 34 -89 37
-161 84 -191 123 -20 27 -20 28 -1 63 28 52 141 140 260 203 48 25 44 25 86 4z"/>
<path d="M5181 8300 c-37 -9 -58 -26 -63 -53 -3 -17 7 -18 122 -20 121 -2 128
-3 195 -36 50 -24 91 -55 143 -109 40 -41 75 -72 79 -69 9 9 -18 80 -48 123
-49 72 -133 129 -224 152 -58 15 -165 22 -204 12z"/>
<path d="M4008 8201 c-125 -40 -230 -152 -244 -259 l-5 -37 23 30 c65 84 135
147 197 178 60 29 73 32 163 32 l98 0 0 27 c0 20 -7 28 -31 37 -47 16 -136 12
-201 -8z"/>
<path d="M5313 7194 c-56 -28 -87 -135 -64 -221 14 -51 39 -67 93 -60 50 7 83
29 104 69 22 42 30 140 15 176 -21 50 -86 66 -148 36z"/>
<path d="M4251 7177 c-48 -24 -66 -62 -70 -148 -4 -105 10 -129 75 -129 89 0
134 53 142 165 4 55 1 64 -23 93 -21 25 -34 32 -63 32 -21 0 -48 -6 -61 -13z"/>
<path d="M4130 6553 c-63 -12 -120 -88 -120 -161 0 -92 96 -216 212 -275 61
-30 158 -53 183 -43 23 9 10 23 -28 31 -93 20 -251 136 -292 215 -33 63 -17
142 31 160 43 17 80 11 195 -30 62 -22 116 -40 121 -40 22 0 3 28 -40 57 -96
65 -196 98 -262 86z"/>
<path d="M2034 9235 c-161 -35 -302 -140 -411 -308 -73 -112 -96 -190 -97
-334 -1 -68 -2 -123 -4 -123 -1 0 -22 10 -45 22 -54 28 -173 34 -248 12 -62
-19 -143 -90 -160 -141 -6 -20 -9 -57 -6 -83 l6 -47 -63 -6 c-85 -8 -166 -40
-239 -95 -81 -62 -118 -116 -125 -181 -12 -132 44 -199 215 -257 121 -41 250
-55 508 -55 300 0 431 13 690 68 159 33 395 110 395 129 0 16 6 17 -170 -27
-143 -36 -329 -75 -395 -84 -225 -30 -295 -34 -550 -31 -282 4 -365 14 -485
58 -113 41 -160 89 -160 163 1 109 107 212 260 251 68 17 160 14 185 -6 26
-22 26 9 -1 60 -39 75 -31 130 28 186 93 88 261 86 368 -5 46 -39 70 -50 70
-33 0 4 -7 39 -15 77 -28 133 -13 280 40 386 72 143 178 251 310 314 88 41
149 54 245 51 97 -3 174 -33 241 -93 60 -54 87 -95 119 -178 31 -79 33 -226 6
-333 -26 -104 -12 -108 62 -18 78 95 154 136 253 136 173 0 251 -143 183 -336
-30 -87 -30 -93 2 -63 92 84 99 268 14 371 -85 103 -296 105 -409 3 l-36 -33
0 107 c-1 125 -23 204 -85 300 -46 72 -138 143 -213 167 -68 21 -206 26 -283
9z"/>
<path d="M8705 9209 c-105 -30 -242 -101 -306 -158 -182 -163 -104 -353 144
-353 105 0 228 85 212 146 -12 42 -30 68 -56 81 -37 20 -43 8 -14 -27 32 -38
32 -69 -1 -101 -80 -80 -291 -64 -329 26 -21 51 -3 107 58 173 40 44 72 66
153 105 57 27 141 59 186 71 74 19 92 20 171 10 151 -19 255 -84 313 -199 26
-52 29 -68 29 -153 0 -87 -3 -100 -32 -155 -44 -85 -111 -156 -208 -220 -152
-102 -308 -155 -565 -195 -176 -27 -578 -23 -756 9 -216 37 -456 108 -626 185
-45 20 -58 22 -58 12 0 -50 298 -166 565 -220 231 -48 269 -51 550 -51 292 1
455 24 654 91 335 115 534 327 528 562 -5 167 -110 303 -282 362 -79 27 -232
27 -330 -1z"/>
<path d="M6730 8978 c0 -24 171 -116 335 -181 262 -102 521 -169 849 -219 112
-17 188 -21 371 -22 222 0 309 8 303 29 -2 6 -94 10 -248 11 -212 1 -269 5
-420 28 -420 65 -744 160 -1057 311 -120 58 -133 62 -133 43z"/>
<path d="M8245 6384 c-286 -71 -528 -363 -527 -635 l0 -67 -53 28 c-131 69
-317 41 -435 -66 -60 -55 -87 -152 -67 -246 l6 -28 -69 0 c-255 0 -459 -217
-367 -390 57 -108 267 -181 592 -207 126 -10 608 -10 780 -1 539 31 1000 125
1246 254 217 114 269 272 129 397 -70 64 -179 96 -261 78 -24 -5 -45 -9 -46
-7 -1 1 9 24 23 51 22 43 25 61 22 126 -3 85 -25 128 -86 170 -69 47 -210 35
-304 -27 -21 -13 -39 -24 -42 -24 -2 0 2 21 10 47 8 25 14 85 14 134 0 200
-90 340 -257 401 -75 28 -224 33 -308 12z m259 -49 c111 -34 198 -112 237
-214 18 -45 22 -76 22 -156 -1 -85 -5 -113 -32 -189 -17 -50 -31 -93 -31 -98
0 -18 25 -5 73 38 84 76 185 115 274 106 48 -5 110 -66 125 -124 15 -59 2
-104 -53 -188 -25 -36 -38 -65 -33 -70 6 -6 30 -3 59 6 111 35 254 -2 325 -83
124 -140 -65 -308 -457 -407 -98 -25 -322 -70 -398 -80 -442 -60 -867 -79
-1225 -54 -336 23 -556 85 -610 173 -58 93 13 226 156 292 72 33 144 43 227
31 38 -5 72 -7 75 -4 3 4 -2 23 -12 43 -31 64 -32 123 -3 185 41 90 135 146
260 155 95 7 167 -19 228 -82 24 -25 47 -45 52 -45 4 0 6 42 3 93 -8 176 38
317 148 449 90 109 219 192 344 222 76 19 186 19 246 1z"/>
<path d="M1300 5345 c0 -24 110 -128 199 -188 290 -196 817 -336 1269 -338
136 0 192 6 192 21 0 4 -66 10 -146 13 -341 15 -734 91 -992 193 -191 76 -294
134 -426 241 -95 78 -96 78 -96 58z"/>
<path d="M740 5043 c0 -28 93 -144 173 -219 212 -197 499 -358 816 -460 127
-40 277 -78 381 -94 41 -7 84 -15 95 -17 11 -3 116 -8 234 -10 177 -4 213 -3
209 8 -3 9 -24 15 -59 16 -59 3 -325 30 -374 38 -494 84 -837 223 -1173 476
-73 54 -220 194 -260 247 -27 36 -42 41 -42 15z"/>
<path d="M1480 4856 c0 -18 101 -94 188 -143 219 -123 538 -217 817 -243 157
-14 390 -14 496 0 85 11 249 51 295 72 37 17 29 32 -13 24 -381 -65 -633 -68
-988 -11 -216 34 -549 161 -723 274 -70 46 -72 47 -72 27z"/>
<path d="M7832 3928 c3 -7 20 -14 39 -16 75 -7 281 -53 365 -83 250 -87 444
-243 540 -433 24 -48 47 -106 50 -127 4 -23 12 -39 20 -39 21 0 18 70 -5 135
-93 266 -413 496 -775 560 -111 19 -239 20 -234 3z"/>
<path d="M7280 3697 c-3 -2 -32 -7 -65 -10 -164 -16 -129 -37 58 -35 84 0 179
-3 212 -6 33 -4 80 -9 104 -12 226 -26 487 -132 603 -245 66 -65 88 -108 88
-174 0 -62 -21 -99 -76 -131 -86 -51 -224 -44 -348 18 -78 39 -97 23 -30 -26
158 -115 404 -95 482 39 19 33 22 51 19 105 -1 36 -11 82 -21 103 -46 95 -172
193 -334 262 -71 30 -105 40 -242 75 -94 24 -435 52 -450 37z"/>
<path d="M1096 3512 c-9 -15 53 -90 132 -158 268 -230 662 -408 1049 -474 126
-22 208 -26 218 -10 8 13 8 13 -165 45 -465 87 -877 283 -1169 555 -58 54 -57
54 -65 42z"/>
<path d="M3080 3432 c-166 -44 -292 -173 -277 -285 12 -89 95 -160 209 -179
82 -14 166 8 215 57 44 44 47 107 7 154 -14 17 -32 31 -41 31 -12 0 -11 -6 6
-34 28 -44 26 -78 -3 -113 -41 -49 -135 -66 -219 -41 -49 15 -113 73 -123 112
-17 71 49 166 149 216 104 50 206 62 312 35 140 -36 246 -113 292 -213 22 -46
24 -64 21 -130 -5 -101 -34 -159 -119 -242 -127 -125 -294 -201 -536 -245 -78
-14 -436 -14 -528 0 -325 50 -596 130 -829 247 -43 22 -81 37 -84 34 -27 -28
207 -151 418 -220 125 -41 309 -87 405 -101 23 -3 50 -7 60 -9 11 -2 87 -9
168 -16 165 -13 318 -4 483 30 267 55 495 203 581 377 25 52 28 68 28 158 0
85 -4 107 -24 148 -89 181 -352 286 -571 229z"/>
</g>
</svg>
