<?xml version="1.0" encoding="UTF-8" standalone="yes"?>
<svg version="1.0" xmlns="http://www.w3.org/2000/svg" width="1024.000000pt" height="1024.000000pt" viewBox="0 0 1024.000000 1024.000000" preserveAspectRatio="xMidYMid meet">
  <metadata>
Created by potrace 1.16, written by Peter Selinger 2001-2019
</metadata>
  <g transform="translate(0.000000,1024.000000) scale(0.100000,-0.100000)" fill="#000000" stroke="none">
    <path d="M4891 9824 c-340 -49 -719 -221 -878 -398 -57 -64 -73 -96 -80 -160&#xA;-4 -42 -1 -57 19 -86 28 -42 112 -94 188 -117 30 -9 56 -18 58 -19 1 -1 -9&#xA;-50 -23 -110 -36 -150 -60 -268 -85 -404 -11 -63 -34 -171 -50 -240 -16 -69&#xA;-32 -145 -37 -169 l-8 -43 -110 -50 c-220 -99 -426 -238 -582 -394 -144 -144&#xA;-181 -229 -128 -292 34 -41 101 -62 217 -69 89 -5 96 -7 88 -24 -6 -10 -10&#xA;-35 -10 -57 0 -44 23 -72 60 -72 27 0 103 42 142 78 26 24 26 23 -12 -65 -82&#xA;-191 -97 -290 -51 -336 19 -19 22 -19 78 -5 32 8 65 18 73 22 10 4 18 -1 25&#xA;-16 13 -29 57 -35 90 -14 14 9 34 33 44 54 l20 37 1 -42 c0 -69 20 -142 42&#xA;-157 38 -27 70 -7 105 64 18 36 35 84 39 108 3 23 9 42 13 41 3 0 30 -49 59&#xA;-107 73 -149 154 -244 305 -357 24 -18 26 -25 21 -61 l-6 -41 -62 -6 c-33 -4&#xA;-99 -11 -146 -17 -260 -30 -788 -69 -950 -70 -154 -1 -284 -15 -314 -35 -14&#xA;-10 -29 -28 -32 -41 -7 -29 -2 -28 -195 -8 -83 8 -163 13 -178 9 -66 -17 -82&#xA;-78 -31 -125 l29 -27 -120 -8 c-160 -9 -199 -21 -221 -65 -22 -43 -24 -166 -4&#xA;-215 26 -61 50 -69 195 -62 70 3 136 9 146 13 10 4 -4 -15 -32 -42 -27 -27&#xA;-54 -57 -59 -66 -9 -16 -17 -15 -99 17 -117 46 -218 77 -385 115 -74 18 -138&#xA;36 -141 42 -16 25 -31 163 -26 226 8 80 20 118 59 189 l29 51 49 -33 c59 -39&#xA;135 -60 194 -51 55 9 130 56 151 95 14 27 21 31 58 31 57 0 138 41 180 91 56&#xA;64 71 150 43 241 l-13 45 52 22 c143 59 216 226 170 385 -22 76 -88 146 -162&#xA;172 l-51 18 24 46 c50 96 52 227 4 305 -69 112 -220 155 -352 100 -16 -6 -18&#xA;-1 -18 37 0 57 -43 144 -84 170 -25 15 -43 18 -91 14 -33 -3 -69 -8 -81 -11&#xA;-17 -5 -22 0 -33 36 -8 26 -31 60 -61 90 -65 65 -127 83 -261 77 -85 -4 -106&#xA;-9 -171 -40 -40 -19 -87 -47 -105 -62 -69 -59 -133 -189 -133 -274 0 -29 -3&#xA;-33 -17 -27 -35 15 -114 17 -157 5 -83 -23 -151 -106 -163 -200 -5 -36 -8 -39&#xA;-44 -45 -108 -18 -227 -114 -277 -223 -21 -47 -26 -72 -26 -142 -1 -74 3 -92&#xA;26 -136 15 -28 50 -72 78 -97 l51 -46 -25 -34 c-42 -55 -59 -106 -58 -179 1&#xA;-98 43 -171 126 -216 33 -18 186 -24 239 -9 24 7 27 5 27 -17 0 -41 60 -117&#xA;118 -149 46 -26 64 -30 130 -30 88 0 141 21 204 80 l36 35 23 -43 c21 -42 21&#xA;-51 15 -209 -4 -91 -9 -185 -12 -210 l-6 -45 -196 0 c-203 0 -334 -7 -482 -25&#xA;-280 -35 -533 -95 -555 -131 -13 -20 10 -29 45 -19 80 23 336 71 490 92 222&#xA;29 711 32 889 5 232 -35 462 -94 699 -178 45 -16 62 -27 62 -40 0 -22 37 -49&#xA;67 -49 35 0 103 26 183 70 40 22 75 40 77 40 3 0 -7 -14 -21 -31 -42 -49 -57&#xA;-85 -59 -140 -1 -43 2 -54 22 -70 29 -24 56 -24 101 -1 l35 17 215 -96 c118&#xA;-53 301 -138 405 -189 278 -135 464 -217 608 -270 121 -44 129 -49 149 -86 11&#xA;-21 28 -48 38 -59 14 -16 17 -31 13 -72 -4 -35 0 -65 11 -92 9 -25 12 -42 6&#xA;-46 -20 -12 -134 -170 -209 -288 -122 -194 -154 -255 -147 -283 8 -28 48 -47&#xA;89 -41 32 4 31 6 12 -40 -20 -48 -19 -93 5 -123 17 -22 26 -25 82 -24 45 1 79&#xA;8 121 27 32 15 59 27 62 27 2 0 -3 -16 -11 -35 -21 -51 -18 -121 6 -145 45&#xA;-45 153 -20 237 55 l38 33 12 -70 c20 -123 82 -158 174 -100 24 16 65 52 91&#xA;80 25 29 48 52 51 52 3 0 9 -15 12 -33 16 -71 59 -127 99 -127 l24 0 6 -398&#xA;c4 -218 9 -453 12 -521 5 -114 4 -124 -10 -112 -9 8 -43 14 -77 15 l-60 1 -27&#xA;45 c-115 193 -278 326 -442 361 -36 8 -68 23 -94 45 -90 77 -272 94 -350 33&#xA;-24 -19 -26 -19 -26 -2 0 57 69 151 177 243 23 20 45 49 49 65 23 90 -153 205&#xA;-266 175 -51 -14 -154 -92 -199 -151 -20 -26 -38 -48 -41 -48 -3 -1 -17 39&#xA;-32 87 -70 225 -287 486 -487 586 -127 64 -263 88 -375 67 -52 -10 -63 -9 -84&#xA;7 -54 39 -89 52 -138 52 l-51 0 -13 48 c-41 150 -172 324 -277 368 -46 20&#xA;-120 17 -167 -6 -78 -37 -156 -129 -156 -183 0 -30 11 -42 110 -127 48 -40&#xA;110 -113 110 -129 0 -3 -40 -6 -89 -6 -84 0 -92 -2 -172 -42 -55 -28 -103 -45&#xA;-139 -49 -189 -20 -384 -146 -526 -339 -138 -188 -231 -436 -251 -670 -14&#xA;-158 4 -365 43 -504 l7 -23 -114 5 c-133 5 -177 17 -224 58 -41 37 -51 75 -31&#xA;123 26 61 101 62 138 1 23 -40 38 -45 38 -12 -1 55 -60 107 -123 107 -70 0&#xA;-117 -52 -119 -133 -1 -54 21 -96 69 -136 53 -44 118 -61 259 -68 l120 -6 20&#xA;-36 20 -36 -76 0 c-64 0 -82 -4 -122 -27 -88 -52 -144 -162 -136 -266 4 -47&#xA;10 -60 37 -84 34 -30 62 -36 80 -15 8 11 3 17 -24 30 -28 14 -35 23 -40 60&#xA;-13 84 38 187 115 231 69 41 187 18 223 -44 32 -54 120 -141 166 -165 25 -13&#xA;60 -41 78 -63 l31 -39 -49 -12 c-88 -23 -209 -128 -294 -256 -52 -78 -60 -107&#xA;-41 -143 33 -64 213 -108 406 -99 63 3 125 9 138 13 21 6 22 4 15 -22 -4 -16&#xA;-7 -57 -8 -91 0 -51 4 -66 24 -87 59 -62 214 -31 348 69 l71 54 20 -33 c23&#xA;-39 76 -82 114 -91 62 -16 152 64 215 192 30 60 37 88 41 151 4 67 1 87 -22&#xA;142 l-26 65 38 38 c35 36 120 94 126 86 1 -2 10 -46 19 -96 46 -248 165 -446&#xA;313 -525 59 -32 152 -58 205 -58 24 0 56 -12 95 -35 85 -52 154 -70 256 -69&#xA;65 1 97 6 128 21 l40 21 79 -41 c71 -36 87 -40 153 -40 88 -1 135 12 209 56&#xA;39 23 61 31 75 26 10 -4 53 -8 95 -8 80 -1 157 17 224 52 24 13 69 24 112 27&#xA;147 13 289 117 385 281 38 64 39 65 160 126 139 69 197 89 296 98 182 18 312&#xA;-67 312 -205 0 -75 -28 -122 -92 -154 -53 -27 -120 -34 -148 -16 -13 8 -12 11&#xA;6 16 57 15 58 131 2 191 -59 63 -182 19 -229 -82 -39 -85 -15 -179 65 -253&#xA;133 -122 364 -105 507 38 75 75 94 124 94 243 0 58 4 97 10 97 11 0 117 -25&#xA;177 -41 l37 -9 -6 -69 c-8 -91 15 -157 79 -226 49 -54 154 -117 216 -130 69&#xA;-14 112 27 112 105 0 22 2 40 4 40 2 0 28 -11 57 -24 73 -32 146 -46 232 -45&#xA;93 0 208 21 242 43 25 17 27 22 23 72 -10 114 -116 272 -219 324 -24 12 -45&#xA;24 -47 25 -2 1 7 19 19 39 52 89 -46 177 -218 193 -101 9 -181 -17 -253 -83&#xA;-31 -30 -63 -67 -70 -84 -14 -34 -5 -34 -123 3 l-67 21 57 27 c72 33 151 111&#xA;194 192 17 34 33 63 34 65 1 1 24 -7 51 -19 29 -12 81 -23 126 -26 71 -5 81&#xA;-3 145 26 79 37 113 67 158 136 46 71 74 156 82 240 6 70 5 74 -21 100 -25 25&#xA;-33 27 -76 22 l-48 -6 0 89 c0 147 -21 250 -59 292 -21 23 -76 23 -128 -1 -64&#xA;-29 -159 -106 -205 -166 l-43 -56 -13 30 c-8 20 -20 31 -33 31 -62 0 -194&#xA;-166 -232 -292 -30 -103 -24 -202 17 -261 39 -56 111 -99 174 -105 28 -2 50&#xA;-8 50 -12 0 -4 -17 -33 -38 -66 -84 -129 -193 -194 -321 -194 -99 1 -206 26&#xA;-294 69 -173 85 -344 76 -550 -29 -72 -36 -97 -45 -92 -32 4 9 9 71 12 137 8&#xA;183 -23 374 -81 508 -7 14 -3 17 27 17 19 0 48 -3 65 -6 l31 -6 3 -102 3 -101&#xA;75 -6 c83 -8 127 -21 145 -46 11 -15 15 -15 50 1 27 13 55 17 103 14 75 -4 94&#xA;13 38 33 l-36 13 0 63 0 62 38 11 c20 6 74 14 120 17 86 6 102 14 82 38 -16&#xA;19 -117 20 -186 1 l-51 -13 -6 330 c-4 182 -7 457 -7 611 0 260 2 279 16 250&#xA;56 -114 175 -120 203 -11 6 25 11 60 11 77 l0 32 42 -36 c54 -47 134 -86 174&#xA;-86 24 0 39 8 54 28 19 24 21 35 16 92 -4 36 -3 60 1 53 10 -14 138 -78 175&#xA;-87 15 -3 38 -1 52 6 31 13 35 57 11 115 -8 20 -14 37 -13 38 2 1 39 -2 82 -8&#xA;76 -9 80 -9 98 13 10 12 18 34 18 47 0 62 -182 448 -283 600 l-54 82 19 58&#xA;c11 31 18 71 15 88 -3 23 2 38 26 65 16 19 41 59 55 88 22 49 24 63 19 136 -4&#xA;45 -9 90 -12 101 -6 19 6 22 167 53 302 56 364 64 538 64 141 -1 284 -12 296&#xA;-25 3 -3 -192 -114 -421 -240 -161 -88 -318 -163 -442 -212 -97 -37 -123 -51&#xA;-123 -66 0 -28 24 -24 153 21 118 42 483 230 842 435 743 422 1227 570 1809&#xA;552 256 -8 422 -34 652 -103 114 -35 154 -38 154 -15 0 25 -160 83 -330 120&#xA;-235 50 -501 69 -720 52 -467 -38 -842 -156 -1352 -427 l-141 -75 -106 18&#xA;c-73 12 -161 17 -281 17 -193 0 -299 -13 -545 -68 -82 -19 -152 -32 -154 -30&#xA;-2 2 -8 51 -12 108 -5 57 -18 176 -29 263 -30 234 -30 218 5 215 290 -24 828&#xA;-47 1121 -47 137 0 142 1 175 27 19 14 44 46 54 70 10 23 20 45 21 46 1 2 34&#xA;-15 73 -38 149 -89 251 -112 305 -69 21 16 26 29 26 62 0 37 -6 47 -57 96 -32&#xA;30 -49 51 -38 47 95 -39 177 -46 225 -21 25 13 30 22 30 53 0 46 -17 71 -74&#xA;109 l-45 30 142 6 c80 3 154 10 169 17 41 19 62 72 55 140 -5 63 -38 146 -65&#xA;166 -25 20 -151 16 -372 -11 l-45 -6 51 30 c85 50 118 127 73 172 -29 29 -66&#xA;23 -301 -48 l-187 -56 -27 26 c-32 32 -48 33 -254 13 -165 -16 -368 -23 -930&#xA;-32 l-395 -6 61 41 c34 22 95 76 136 119 110 115 177 240 217 403 l19 74 22&#xA;-50 c12 -27 30 -68 40 -91 24 -54 45 -74 80 -74 47 0 62 34 58 129 -2 45 0 81&#xA;3 81 4 0 13 -10 21 -22 48 -73 125 -116 173 -98 68 26 71 140 10 295 -8 19 -8&#xA;19 12 3 46 -42 113 -10 113 54 0 52 -121 296 -196 396 -34 43 -21 40 34 -9 48&#xA;-42 133 -89 164 -89 27 0 78 49 78 76 0 14 6 24 14 24 22 0 206 96 259 135 84&#xA;63 107 126 67 190 -72 116 -492 301 -849 373 l-144 29 -17 54 c-9 30 -37 97&#xA;-62 149 -25 52 -58 124 -73 160 -15 36 -42 99 -60 140 -18 41 -52 120 -75 175&#xA;-23 55 -89 191 -147 303 -96 184 -112 209 -178 275 -105 105 -227 168 -388&#xA;201 -94 20 -303 20 -436 0z m454 -68 c154 -37 308 -136 388 -248 57 -81 277&#xA;-518 277 -552 0 -2 -30 11 -67 29 -73 36 -162 60 -257 71 -99 12 -63 -14 85&#xA;-60 130 -40 240 -92 267 -125 16 -20 92 -174 87 -179 -1 -2 -38 4 -81 12 -203&#xA;41 -446 53 -654 35 -213 -19 -453 -60 -637 -109 -62 -17 -114 -30 -117 -30 -4&#xA;0 -6 14 -6 31 0 39 -21 34 -34 -9 -7 -25 -17 -34 -51 -46 l-43 -14 -4 49 c-3&#xA;48 -3 48 37 63 68 26 193 57 299 75 l101 18 0 58 0 59 68 14 c85 19 84 38 -2&#xA;35 l-62 -3 3 43 3 42 54 7 c29 3 61 13 69 22 15 15 10 16 -54 16 l-70 0 -12&#xA;83 c-18 116 -27 123 -132 108 -45 -7 -89 -15 -98 -18 -13 -6 -14 1 -8 48 12&#xA;84 12 92 -1 96 -13 5 -29 -42 -41 -116 -7 -41 -10 -44 -57 -62 -28 -10 -51&#xA;-19 -53 -19 -1 0 0 29 4 64 4 39 3 66 -4 70 -18 11 -32 -21 -39 -86 l-6 -64&#xA;-59 -34 c-39 -23 -61 -43 -66 -60 -10 -34 -9 -368 1 -404 7 -26 11 -28 47 -24&#xA;l40 4 0 -47 0 -46 -77 -28 c-43 -15 -116 -45 -162 -66 -46 -22 -86 -37 -88&#xA;-35 -5 5 57 313 102 501 40 172 45 235 17 235 -10 0 -22 -12 -29 -30 l-11 -30&#xA;-54 20 c-76 30 -140 71 -157 102 -50 88 120 256 388 384 163 78 356 133 586&#xA;168 65 9 302 -2 370 -18z m-466 -597 c6 -27 11 -65 11 -83 0 -30 -3 -33 -42&#xA;-42 -62 -13 -64 -37 -3 -32 l48 3 -7 -94 c-4 -52 -9 -98 -12 -102 -3 -5 -16&#xA;-9 -30 -9 -42 0 -224 -47 -326 -83 -96 -35 -96 -35 -102 -14 -3 12 -6 101 -6&#xA;197 l0 176 38 14 c20 8 40 16 43 18 4 1 9 -6 12 -18 7 -28 25 -25 29 6 2 21&#xA;14 30 61 49 54 22 57 23 57 5 0 -32 20 -33 26 -1 6 27 12 31 73 45 87 20 105&#xA;23 113 19 3 -2 11 -26 17 -54z m1006 -489 c61 -6 146 -18 190 -28 76 -16 80&#xA;-19 102 -57 22 -39 95 -217 90 -220 -1 -1 -47 2 -102 7 -180 16 -712 13 -900&#xA;-6 -406 -40 -743 -108 -1059 -215 l-147 -49 6 41 c4 23 16 78 27 122 l19 80&#xA;127 53 c362 150 919 275 1252 281 52 1 95 3 97 4 4 5 196 -3 298 -13z m348&#xA;-365 c347 -31 709 -144 934 -292 68 -45 113 -87 113 -106 0 -41 -99 -117 -232&#xA;-181 -43 -20 -81 -36 -85 -35 -4 0 -25 22 -46 50 -38 50 -191 177 -285 238&#xA;-29 18 -51 35 -50 36 5 4 136 -19 333 -59 204 -41 248 -44 243 -19 -8 40 -364&#xA;118 -778 170 -181 22 -822 26 -1015 5 -660 -71 -1253 -221 -1728 -439 -177&#xA;-81 -317 -175 -317 -212 0 -19 27 -8 240 100 175 88 313 149 340 149 5 0 -30&#xA;-36 -78 -79 -48 -44 -136 -129 -197 -190 l-110 -111 -81 0 c-88 0 -169 19&#xA;-206 49 l-23 20 23 44 c52 99 225 258 416 382 173 113 459 239 698 308 269 78&#xA;676 151 983 177 170 14 730 11 908 -5z m-382 -307 c29 -40 75 -100 102 -133&#xA;137 -164 188 -200 267 -193 l47 5 29 -121 c26 -110 29 -137 29 -301 -1 -220&#xA;-18 -305 -100 -471 -45 -92 -68 -127 -135 -197 -152 -161 -359 -267 -600 -308&#xA;-97 -17 -324 -17 -420 0 -424 74 -713 275 -853 594 -59 134 -56 172 40 507 34&#xA;118 53 164 53 128 0 -24 46 -68 72 -68 42 0 113 91 183 239 118 245 129 264&#xA;161 273 74 21 397 74 517 85 l58 5 92 -89 c171 -165 220 -194 304 -178 20 3&#xA;49 20 66 36 l30 30 48 -47 c78 -77 79 -27 1 58 -24 26 -42 57 -46 80 -4 21&#xA;-22 58 -41 83 -19 25 -35 47 -35 50 0 3 18 5 39 5 37 0 42 -4 92 -72z m210 25&#xA;c83 -111 139 -208 153 -265 6 -25 4 -28 -18 -28 -39 0 -103 57 -208 185 -137&#xA;167 -134 155 -40 155 l78 0 35 -47z m169 37 c179 -15 202 -20 245 -45 102 -59&#xA;268 -187 353 -270 91 -91 110 -126 76 -139 -21 -8 -63 17 -238 141 -153 110&#xA;-265 177 -275 167 -3 -3 14 -22 39 -42 98 -78 166 -159 242 -287 105 -178 158&#xA;-283 165 -329 6 -36 5 -38 -14 -27 -12 6 -58 47 -104 91 -46 44 -86 80 -88 80&#xA;-11 0 14 -71 65 -181 48 -103 58 -135 62 -193 4 -66 -3 -85 -31 -86 -19 0&#xA;-101 89 -157 170 -33 49 -65 92 -70 95 -13 8 -13 -45 -1 -116 15 -82 23 -229&#xA;13 -229 -5 0 -34 48 -64 108 l-55 107 -6 200 c-4 126 -11 222 -21 260 -8 33&#xA;-13 61 -12 63 4 4 47 -55 76 -103 49 -83 92 -145 101 -145 32 0 -37 136 -160&#xA;319 -238 354 -269 401 -263 401 4 0 59 -5 122 -10z m-547 -35 c32 -41 57 -95&#xA;57 -125 0 -12 -12 -33 -26 -47 -21 -21 -32 -25 -64 -20 -47 6 -91 37 -193 136&#xA;-64 62 -74 77 -60 83 10 3 72 7 138 7 l120 1 28 -35z m-3813 -25 c68 -35 103&#xA;-91 101 -163 0 -27 2 -53 5 -58 2 -5 30 4 62 20 78 39 106 44 146 27 49 -20&#xA;68 -63 70 -155 1 -74 2 -76 26 -75 14 1 43 9 65 18 46 18 151 21 192 5 40 -15&#xA;82 -57 104 -104 37 -79 17 -193 -51 -295 -16 -24 -27 -46 -25 -49 3 -2 30 -8&#xA;60 -12 112 -15 176 -76 197 -187 9 -47 8 -68 -5 -113 -30 -101 -130 -188 -218&#xA;-189 -20 0 -38 -2 -41 -5 -3 -3 7 -29 22 -58 55 -103 47 -182 -24 -253 -45&#xA;-45 -106 -69 -153 -59 -81 17 -75 19 -68 -15 8 -35 -17 -70 -68 -97 -60 -30&#xA;-170 -12 -240 41 -18 14 -18 16 2 53 12 21 40 67 62 103 23 36 50 82 60 103&#xA;13 25 26 37 40 37 32 0 96 40 108 68 14 30 6 41 -17 24 -73 -51 -172 -67 -228&#xA;-37 -38 20 -65 70 -72 132 -2 24 -7 43 -9 43 -2 0 -21 -14 -42 -30 -81 -66&#xA;-197 -87 -276 -51 -42 19 -108 85 -127 127 -13 27 -28 32 -28 8 0 -59 -103&#xA;-134 -183 -134 -49 0 -74 18 -103 73 -8 15 -19 27 -24 27 -17 0 -11 -53 10&#xA;-87 29 -48 72 -66 142 -60 51 4 58 3 58 -13 0 -9 29 -77 65 -150 l66 -133 -33&#xA;-34 c-46 -47 -122 -83 -177 -83 -56 0 -139 37 -169 75 -28 35 -36 83 -24 129&#xA;6 20 9 36 7 36 -1 0 -29 -12 -61 -27 -162 -76 -343 1 -344 145 0 102 56 203&#xA;121 217 16 4 29 11 27 17 -2 5 -33 24 -68 41 -108 53 -158 141 -147 259 7 76&#xA;40 140 104 198 54 50 122 80 179 80 57 0 64 7 64 64 1 64 34 133 80 164 43 29&#xA;127 30 189 2 68 -31 68 -31 73 73 3 74 9 102 30 142 51 98 170 180 282 194 65&#xA;8 174 -2 206 -19z m2673 -237 c-78 -159 -142 -263 -162 -263 -11 0 -31 55 -31&#xA;87 0 21 27 132 63 253 l13 45 84 22 c47 11 92 22 101 22 11 1 -8 -46 -68 -166z&#xA;m-228 -39 c-118 -329 -139 -399 -210 -709 -41 -179 -73 -285 -85 -285 -24 0&#xA;-27 166 -4 309 22 142 15 152 -35 46 -70 -153 -123 -245 -140 -245 -12 0 13&#xA;146 44 252 51 177 154 419 246 578 l32 55 -38 -35 c-110 -102 -261 -426 -324&#xA;-696 -17 -72 -45 -112 -94 -134 -23 -11 -48 -20 -54 -20 -51 -1 62 322 182&#xA;520 19 32 35 60 35 64 0 16 -29 2 -65 -32 -206 -192 -297 -252 -280 -184 13&#xA;54 62 111 287 334 l230 227 146 46 c180 57 166 53 170 45 1 -4 -18 -65 -43&#xA;-136z m-2714 -1081 c26 -16 27 -18 22 -102 -2 -47 -6 -119 -9 -160 l-6 -74&#xA;-78 149 c-96 183 -100 195 -65 214 15 8 31 23 36 33 10 17 13 16 42 -13 18&#xA;-17 44 -39 58 -47z m354 -27 l17 -44 -66 -88 c-36 -48 -66 -92 -67 -98 -1 -6&#xA;-5 0 -9 14 -4 14 -8 66 -9 115 l-1 90 58 27 c31 14 58 26 59 27 1 1 9 -19 18&#xA;-43z m-181 -149 c8 -163 16 -228 27 -222 4 3 33 42 65 88 31 45 79 110 106&#xA;144 48 61 49 61 76 47 15 -7 35 -14 45 -14 9 0 17 -2 17 -5 0 -2 -24 -42 -53&#xA;-87 -111 -172 -170 -275 -188 -327 -25 -71 -33 -189 -21 -281 6 -41 10 -76 8&#xA;-77 -2 -2 -49 3 -104 12 -56 8 -105 15 -108 15 -6 0 2 278 12 390 4 47 24 415&#xA;24 445 0 6 19 9 44 7 l43 -4 7 -131z m6216 -42 c0 -26 -50 -65 -135 -107 -73&#xA;-35 -243 -95 -249 -86 -5 8 -36 92 -33 93 1 1 45 13 97 27 52 15 138 40 190&#xA;57 110 34 130 37 130 16z m-3350 -75 c81 -41 147 -66 246 -95 80 -23 89 -29&#xA;206 -132 68 -59 151 -135 186 -169 l62 -61 -32 -63 c-32 -62 -33 -66 -33 -194&#xA;0 -72 4 -250 9 -396 6 -182 5 -331 -3 -477 -11 -203 -22 -273 -42 -273 -5 0&#xA;-9 -9 -9 -20 0 -11 -1 -20 -2 -20 -2 0 -99 11 -217 24 l-214 25 -39 43 c-46&#xA;53 -101 140 -119 191 -16 45 -29 48 -29 7 0 -49 38 -135 81 -184 24 -27 35&#xA;-46 27 -46 -31 0 -173 42 -217 65 -55 27 -126 101 -148 153 -28 65 -21 184 25&#xA;402 22 107 46 247 52 311 l13 116 36 13 c82 28 131 53 131 66 0 24 -18 25 -78&#xA;5 -139 -47 -925 -221 -938 -208 -3 3 1 25 8 48 9 30 13 100 12 214 -1 154 -4&#xA;178 -28 260 -15 50 -42 118 -60 152 l-33 62 41 5 c22 3 118 10 211 16 204 13&#xA;629 55 704 70 77 14 76 15 90 -41 30 -117 152 -293 230 -334 32 -16 41 -11&#xA;121 53 82 67 88 68 151 37 30 -15 77 -42 104 -59 28 -18 56 -36 63 -40 7 -4&#xA;12 -2 12 8 0 42 -183 166 -246 166 -19 0 -50 -19 -100 -60 -40 -33 -77 -60&#xA;-82 -60 -5 0 -36 28 -68 63 -64 68 -115 160 -139 252 -15 58 -20 135 -10 135&#xA;3 0 32 -14 65 -30z m2839 -5 c95 -108 107 -495 20 -667 -32 -62 -48 -68 -192&#xA;-68 -71 0 -127 3 -125 8 93 180 118 327 83 490 -15 74 -60 201 -75 216 -19 19&#xA;-8 23 98 35 59 7 114 14 122 16 33 6 39 4 69 -30z m-1569 -40 c24 -57 52 -204&#xA;47 -247 -5 -42 -14 -41 -140 8 l-99 38 -53 -28 c-57 -29 -165 -134 -165 -160&#xA;0 -26 16 -26 41 1 13 14 56 48 94 75 80 56 98 58 203 14 83 -35 135 -41 153&#xA;-20 22 26 16 183 -9 267 l-21 67 122 2 c67 0 151 2 187 3 36 2 237 6 448 9&#xA;211 4 389 9 396 12 15 6 71 -105 98 -196 14 -47 19 -96 19 -175 0 -128 -17&#xA;-202 -65 -290 l-33 -60 -179 0 c-204 0 -433 9 -645 26 l-145 12 -12 64 c-19&#xA;97 -52 151 -68 109 -3 -8 1 -48 10 -89 8 -41 22 -139 31 -218 9 -79 22 -200&#xA;30 -269 22 -188 24 -180 -29 -180 -43 0 -45 1 -48 32 -4 45 -25 47 -34 4 -6&#xA;-35 -7 -36 -55 -36 l-49 0 0 39 c0 36 -14 61 -27 48 -2 -3 -7 -24 -10 -47 l-6&#xA;-41 -52 6 c-33 5 -61 3 -74 -4 -27 -15 -27 -31 0 -31 17 0 20 -4 15 -22 -3&#xA;-13 -6 -54 -6 -91 l0 -69 -41 7 c-36 6 -40 5 -37 -11 2 -10 17 -21 36 -26 33&#xA;-9 33 -10 30 -61 l-3 -52 -47 -10 c-27 -5 -49 -14 -50 -20 -1 -5 19 -14 45&#xA;-19 l48 -8 -6 -62 c-11 -109 -5 -101 -95 -114 -77 -11 -83 -10 -110 9 -24 18&#xA;-43 22 -130 23 l-101 1 8 155 c10 188 10 456 -1 810 l-7 265 28 47 c15 25 56&#xA;87 89 137 42 61 73 122 95 187 24 68 40 99 54 104 11 5 58 20 105 34 47 15&#xA;108 40 135 55 28 16 54 29 58 30 4 1 16 -19 27 -44z m2382 -62 c37 -41 51&#xA;-170 21 -194 -30 -25 -495 -25 -467 0 5 4 36 13 69 20 86 18 125 31 125 43 0&#xA;13 -96 4 -253 -23 -168 -28 -163 -29 -170 34 -2 28 -4 53 -2 55 6 6 351 52&#xA;495 66 80 7 150 14 156 15 6 0 18 -7 26 -16z m-3042 -42 l95 -1 2 -133 2 -132&#xA;-19 30 c-17 28 -239 225 -261 233 -5 2 -9 7 -9 11 0 4 21 4 48 0 26 -4 90 -8&#xA;142 -8z m251 -8 c-25 -84 -102 -243 -119 -243 -4 0 -7 30 -6 68 0 37 -2 93 -6&#xA;124 l-6 58 30 5 c17 3 47 6 66 8 19 2 38 5 42 5 4 1 3 -10 -1 -25z m-2022&#xA;-102 c64 -123 94 -250 95 -401 1 -153 -23 -267 -58 -275 -162 -36 -281 -62&#xA;-283 -61 -1 1 7 31 19 66 31 93 31 305 0 445 -25 117 -80 235 -124 268 l-30&#xA;22 99 6 c54 3 130 6 169 7 l72 2 41 -79z m-574 -11 c71 -6 142 -8 158 -4 38 8&#xA;61 -14 87 -83 11 -29 20 -58 20 -62 0 -5 -45 -14 -100 -21 -54 -7 -107 -18&#xA;-117 -26 -16 -12 -2 -14 106 -13 140 1 132 6 145 -81 l7 -46 -83 -27 c-46 -15&#xA;-177 -74 -293 -132 -115 -58 -219 -104 -230 -103 -24 4 -23 31 4 68 24 35 171&#xA;133 258 172 74 33 99 65 46 55 -190 -34 -431 -67 -485 -67 -65 0 -69 1 -80 28&#xA;-12 31 -13 171 -1 182 4 4 145 17 312 28 355 24 397 37 196 57 -120 13 -219&#xA;54 -200 85 6 9 23 11 64 6 31 -3 114 -11 186 -16z m4905 -87 c159 -52 313&#xA;-151 265 -170 -9 -3 -40 -3 -68 0 -58 7 -363 99 -379 115 -6 6 -7 27 -3 51 l7&#xA;41 51 -6 c29 -3 86 -17 127 -31z m-123 -148 c99 -59 217 -149 230 -175 11 -21&#xA;10 -27 -3 -37 -9 -7 -30 -10 -48 -7 -45 8 -172 69 -220 106 -22 18 -43 33 -45&#xA;35 -5 3 19 113 24 113 2 0 30 -16 62 -35z m-4467 -175 c0 -38 -3 -42 -87 -104&#xA;-49 -36 -119 -96 -156 -135 -66 -66 -122 -105 -139 -95 -40 25 51 161 175 261&#xA;47 38 156 98 205 112 1 1 2 -17 2 -39z m-12 -172 c-13 -68 -35 -121 -49 -116&#xA;-6 2 -22 22 -35 44 l-24 41 52 41 c29 22 56 41 59 41 4 1 2 -23 -3 -51z m1157&#xA;-90 c-9 -62 -30 -174 -46 -248 -51 -229 -61 -292 -55 -342 4 -27 5 -48 2 -48&#xA;-33 0 -521 218 -931 416 -27 13 -119 55 -202 92 l-153 69 41 33 c33 26 43 30&#xA;50 19 5 -8 18 -28 29 -45 11 -17 37 -39 59 -48 38 -18 41 -17 257 23 427 81&#xA;938 191 953 206 13 13 12 -20 -4 -127z m1537 -397 c4 -32 32 -35 36 -3 3 19 9&#xA;22 53 22 48 0 49 -1 49 -30 0 -16 4 -30 9 -30 5 0 14 14 20 30 6 19 17 30 29&#xA;30 11 0 34 3 51 6 l31 7 0 -46 c0 -25 5 -79 10 -121 8 -52 8 -87 0 -114 -14&#xA;-54 -82 -128 -149 -161 -61 -31 -238 -87 -247 -79 -3 3 -1 39 3 79 l8 73 37&#xA;11 c49 14 52 29 4 33 -37 3 -38 4 -32 34 3 17 6 41 6 53 0 17 7 24 33 29 30 7&#xA;31 8 13 21 -11 8 -25 15 -30 15 -7 0 -10 31 -8 88 l3 88 34 -4 c28 -3 34 -9&#xA;37 -31z m184 -536 c-32 -58 -143 -108 -308 -140 -44 -8 -96 -15 -114 -15 -31&#xA;0 -34 2 -28 25 3 13 -1 37 -9 54 l-15 30 46 6 c114 16 320 67 376 93 l61 29 3&#xA;-26 c2 -14 -3 -40 -12 -56z m-1563 25 c99 -39 257 -64 572 -90 72 -6 136 -13&#xA;143 -15 16 -6 16 -80 -2 -94 -10 -8 -67 -7 -227 4 -358 26 -514 62 -569 132&#xA;-23 29 -29 109 -7 100 6 -3 47 -20 90 -37z m890 -52 c23 -27 26 -132 5 -172&#xA;-8 -15 -17 -17 -55 -12 -63 8 -73 19 -73 82 0 29 -5 65 -12 79 -13 30 -10 35&#xA;34 45 44 10 79 2 101 -22z m115 4 c53 -34 65 -118 23 -156 -16 -15 -81 -40&#xA;-87 -33 -1 1 3 26 9 55 11 50 6 90 -17 143 -6 14 -2 16 21 11 15 -3 38 -12 51&#xA;-20z m605 -165 c89 -134 289 -549 273 -565 -3 -3 -43 0 -88 6 -142 20 -147 17&#xA;-108 -69 43 -96 13 -103 -109 -26 -45 28 -93 59 -107 67 -39 25 -47 4 -29 -79&#xA;19 -92 19 -120 -1 -128 -25 -9 -93 29 -161 91 -33 31 -66 56 -72 56 -17 0 -28&#xA;-31 -36 -104 -16 -160 -57 -156 -143 16 -50 99 -106 273 -159 498 -19 77 -19&#xA;88 -6 123 12 30 20 37 42 37 25 0 29 -6 60 -102 44 -136 115 -284 144 -299 39&#xA;-22 110 -5 160 39 41 36 9 140 -103 332 -22 38 -40 71 -40 73 0 3 37 10 83 16&#xA;45 7 89 14 98 17 11 3 20 -5 29 -25 14 -34 47 -67 57 -57 4 3 -2 23 -12 44&#xA;-11 20 -21 40 -23 44 -2 3 25 15 60 27 35 12 77 29 93 40 17 10 33 17 37 14 4&#xA;-2 32 -41 61 -86z m-1661 58 c24 -13 68 -31 98 -39 30 -8 54 -18 53 -24 -1 -5&#xA;-25 -46 -53 -92 -49 -81 -60 -110 -41 -110 13 0 40 39 89 130 l41 76 41 -4&#xA;c22 -2 43 -8 46 -13 3 -5 -6 -46 -19 -92 -37 -120 -41 -147 -25 -147 8 0 27&#xA;45 49 118 19 64 40 116 45 116 5 -1 90 -8 189 -14 99 -7 181 -14 183 -15 1 -1&#xA;-32 -53 -74 -115 -86 -126 -101 -177 -69 -226 36 -55 156 -82 202 -46 12 9 40&#xA;55 62 102 23 49 40 76 40 63 1 -22 -121 -486 -141 -536 -12 -31 -44 -57 -70&#xA;-57 -24 0 -48 40 -69 117 -10 37 -23 71 -27 75 -5 5 -46 -30 -93 -78 -152&#xA;-155 -183 -153 -204 16 -8 66 -14 86 -27 88 -9 2 -55 -26 -101 -61 -89 -68&#xA;-137 -88 -163 -66 -18 15 -14 38 26 156 16 46 25 85 21 87 -4 3 -52 -17 -107&#xA;-45 -63 -31 -118 -52 -152 -56 l-52 -6 0 31 c0 16 10 55 21 86 30 77 23 89&#xA;-50 84 l-59 -3 13 25 c38 73 320 500 330 500 2 0 22 -11 47 -25z m-2185 -66&#xA;c47 -17 73 -49 66 -77 -4 -17 -2 -23 6 -18 6 4 11 15 11 24 1 11 16 1 46 -32&#xA;51 -55 115 -182 138 -271 21 -84 35 -219 29 -288 -5 -49 -8 -57 -22 -51 -29&#xA;14 -122 16 -167 5 -75 -19 -80 -11 -86 146 -5 125 -8 138 -38 199 -35 72 -88&#xA;131 -162 181 -35 24 -48 39 -48 56 0 32 34 74 89 108 48 31 91 36 138 18z&#xA;m3002 -51 l48 -21 -65 -146 c-74 -169 -85 -185 -125 -177 -39 8 -87 44 -87 65&#xA;0 10 27 60 61 112 33 52 72 115 86 142 14 26 28 47 31 47 2 0 25 -10 51 -22z&#xA;m389 -143 c54 -107 81 -172 77 -184 -5 -15 -68 -51 -90 -51 -15 0 -158 348&#xA;-151 367 3 7 14 13 25 13 11 0 23 5 26 10 16 26 36 -2 113 -155z m-242 -419&#xA;c23 -70 26 -99 29 -245 5 -293 8 -1311 4 -1316 -3 -2 -26 -10 -52 -17 -36 -9&#xA;-50 -10 -55 -1 -12 19 -60 33 -113 33 l-49 0 0 193 c0 105 -3 251 -5 322 -3&#xA;72 -7 268 -10 436 -4 294 -4 307 15 324 10 9 27 40 37 69 l18 51 5 -175 c4&#xA;-147 7 -175 20 -175 13 0 15 34 15 250 0 230 2 257 23 335 13 47 28 103 34&#xA;125 l10 40 25 -85 c13 -47 35 -121 49 -164z m-2704 168 c31 -16 31 -17 12 -31&#xA;-10 -7 -38 -32 -61 -55 -41 -39 -43 -40 -43 -16 0 14 -3 46 -6 72 l-7 46 37 0&#xA;c20 0 51 -7 68 -16z m-537 -15 c22 -6 43 -16 47 -23 4 -6 8 -48 8 -94 l0 -83&#xA;-67 52 c-70 54 -155 99 -185 99 -56 0 30 43 107 53 17 2 35 5 40 5 6 1 28 -3&#xA;50 -9z m945 -50 c249 -87 494 -362 570 -642 l21 -77 -25 -55 c-15 -30 -30 -65&#xA;-36 -80 -8 -21 -16 -25 -48 -25 -21 0 -60 -6 -85 -14 l-47 -14 -6 26 c-18 82&#xA;-69 245 -92 297 -91 207 -224 360 -376 436 -88 43 -91 44 -190 44 -78 0 -109&#xA;-4 -134 -18 -19 -10 -36 -17 -38 -14 -7 7 64 83 104 111 22 15 62 34 89 42 69&#xA;20 211 12 293 -17z m-1070 -84 l84 -40 -85 -6 c-70 -5 -98 -12 -160 -42 -285&#xA;-138 -498 -573 -500 -1027 -1 -188 20 -328 62 -412 20 -40 48 -66 35 -32 -25&#xA;64 -48 214 -53 349 -13 379 113 750 328 963 146 144 326 189 468 118 l50 -26&#xA;-42 -43 c-97 -97 -168 -281 -202 -526 -14 -106 -22 -427 -11 -491 2 -14 8 -47&#xA;12 -75 13 -89 22 -14 23 195 1 217 12 337 40 474 41 193 97 313 187 395 81 74&#xA;156 89 259 50 174 -65 337 -381 380 -734 3 -27 8 -61 11 -75 4 -20 -7 -37 -59&#xA;-90 -140 -144 -231 -323 -276 -545 l-18 -90 -82 2 c-128 2 -184 41 -151 104 7&#xA;11 40 34 75 50 48 21 65 35 73 57 15 43 4 78 -35 112 -58 51 -141 38 -223 -37&#xA;-43 -38 -100 -140 -100 -177 0 -15 -12 -8 -52 31 -29 27 -78 61 -108 76 -55&#xA;27 -171 56 -222 57 -44 0 -104 -29 -117 -56 -16 -36 -13 -101 8 -161 l18 -53&#xA;-48 0 c-88 0 -147 -19 -191 -61 -47 -44 -50 -44 -120 28 -52 53 -127 177 -159&#xA;263 -106 282 -91 668 38 967 113 260 305 457 523 534 44 15 76 19 155 16 93&#xA;-2 106 -5 185 -42z m811 -75 c220 -41 416 -264 528 -599 16 -50 33 -110 36&#xA;-135 l7 -44 -64 5 c-100 8 -245 -38 -365 -117 l-31 -21 -7 68 c-10 102 -43&#xA;268 -71 353 -52 156 -147 311 -234 380 -22 17 -40 38 -40 46 0 20 37 41 100&#xA;58 68 18 74 18 141 6z m1279 -371 c90 -54 93 -129 5 -129 -39 0 -65 16 -112&#xA;68 -30 33 -43 42 -43 29 0 -32 51 -96 91 -114 l38 -17 -45 -48 c-25 -27 -57&#xA;-74 -72 -106 -24 -50 -27 -69 -27 -162 0 -58 4 -118 9 -134 9 -28 8 -28 -23&#xA;-21 -55 12 -133 7 -173 -11 l-37 -17 -36 32 c-20 17 -41 31 -47 31 -18 0 0&#xA;145 29 234 29 86 77 165 150 246 45 50 131 120 163 133 34 13 96 6 130 -14z&#xA;m-514 -436 c-3 -16 -8 -47 -11 -70 l-6 -41 -52 51 c-29 29 -51 55 -49 59 4 10&#xA;60 26 95 27 26 1 28 -2 23 -26z m659 -9 c76 -19 86 -30 38 -39 -57 -10 -145&#xA;-49 -206 -89 -53 -35 -77 -44 -77 -28 -1 4 -5 26 -9 49 -7 36 -5 45 13 61 29&#xA;27 65 44 106 53 55 11 72 10 135 -7z m-863 -24 c39 -11 129 -69 135 -87 3 -7&#xA;-20 -12 -60 -15 -246 -15 -512 -345 -592 -732 -58 -287 0 -614 145 -804 l40&#xA;-52 -28 6 c-133 32 -234 113 -315 254 -36 62 -94 241 -107 326 -46 319 64 680&#xA;273 895 164 168 362 250 509 209z m1049 -70 c81 -15 210 -83 280 -147 116&#xA;-108 195 -245 246 -429 25 -92 27 -113 28 -294 0 -174 -2 -203 -23 -274 -48&#xA;-166 -158 -332 -268 -405 -48 -31 -141 -67 -151 -58 -3 3 10 25 29 49 140 174&#xA;217 480 188 738 -39 350 -179 597 -403 709 -45 23 -111 47 -147 55 l-64 13 44&#xA;16 c104 38 152 44 241 27z m2297 -85 c27 -102 26 -251 -2 -325 -3 -8 -2 -22 4&#xA;-30 8 -12 15 -13 52 -1 24 7 58 15 76 18 31 5 32 4 32 -30 0 -95 -42 -214 -98&#xA;-278 -50 -57 -142 -101 -210 -101 -66 0 -178 43 -169 64 26 62 32 68 67 68 19&#xA;0 51 5 70 10 45 12 133 67 126 79 -3 5 -45 -7 -93 -25 -122 -46 -128 -46 -99&#xA;14 50 99 148 334 153 366 6 35 -8 54 -24 33 -6 -6 -43 -91 -83 -187 -40 -96&#xA;-84 -197 -97 -224 -24 -48 -26 -49 -40 -30 -26 34 -63 113 -71 149 -10 50 -27&#xA;39 -26 -15 2 -50 32 -120 71 -162 24 -25 24 -27 6 -36 -67 -36 -143 -21 -197&#xA;38 -69 76 -70 163 -4 295 33 67 112 175 127 175 5 0 12 -16 15 -35 6 -29 29&#xA;-55 50 -55 3 0 21 24 39 53 70 108 227 231 287 225 21 -3 27 -11 38 -53z&#xA;m-3121 -19 c56 -28 59 -41 22 -83 -87 -99 -152 -233 -193 -399 -97 -385 -59&#xA;-838 88 -1061 23 -35 31 -55 23 -60 -6 -3 -46 -9 -88 -11 -277 -16 -479 174&#xA;-549 516 -71 351 42 735 290 982 41 41 98 86 125 100 98 48 209 54 282 16z&#xA;m681 -30 c137 -50 271 -192 342 -362 64 -155 83 -251 84 -434 1 -143 -2 -177&#xA;-22 -252 -42 -159 -107 -291 -186 -376 -75 -82 -251 -146 -349 -128 l-38 7 26&#xA;31 c35 42 89 151 120 241 75 224 75 564 -1 847 -35 132 -109 281 -177 356 -60&#xA;66 -61 82 -7 93 45 9 155 -3 208 -23z m-343 -30 c201 -94 341 -474 330 -891&#xA;-7 -260 -75 -466 -197 -601 -72 -78 -138 -107 -242 -107 -101 0 -171 30 -239&#xA;102 -71 76 -108 161 -144 331 -22 108 -25 451 -4 580 32 200 122 428 202 515&#xA;85 92 194 118 294 71z m-1567 -272 c40 -28 29 -57 -35 -90 -46 -23 -63 -38&#xA;-80 -74 -31 -59 -29 -76 10 -115 41 -41 117 -65 204 -65 l63 0 0 -67 0 -68&#xA;-43 -17 c-46 -20 -104 -68 -132 -110 -17 -27 -18 -28 -46 -11 -16 10 -29 23&#xA;-29 30 0 14 60 78 110 116 24 18 30 27 20 30 -8 3 -46 13 -84 22 -120 31 -186&#xA;101 -186 198 0 88 50 171 128 212 56 29 70 30 100 9z m-575 -89 c89 -19 162&#xA;-54 210 -100 54 -53 63 -70 92 -168 14 -49 38 -112 53 -140 15 -29 28 -55 30&#xA;-59 2 -5 -12 -8 -31 -8 -32 0 -38 5 -75 69 -45 74 -164 208 -206 230 -41 22&#xA;-43 4 -4 -32 47 -44 128 -141 172 -207 32 -49 34 -56 19 -62 -38 -14 -95 -8&#xA;-136 16 -71 42 -227 73 -227 46 0 -5 8 -10 18 -10 21 0 149 -42 183 -61 22&#xA;-11 18 -14 -56 -34 -111 -31 -192 -63 -328 -130 -119 -59 -171 -95 -113 -81&#xA;15 4 91 34 168 67 127 54 255 96 347 114 l34 7 -6 -34 c-9 -57 -65 -190 -106&#xA;-253 -41 -62 -45 -81 -11 -50 57 52 132 201 149 299 8 47 14 50 149 60 l94 7&#xA;48 -48 c95 -97 114 -224 52 -354 -34 -70 -115 -169 -138 -169 -25 0 -73 42&#xA;-105 92 -17 26 -36 48 -41 48 -6 0 -37 -20 -70 -45 -129 -97 -284 -151 -315&#xA;-110 -16 23 -17 81 -1 157 16 77 9 83 -73 62 -92 -24 -327 -15 -421 15 -37 12&#xA;-70 26 -73 32 -12 18 82 153 153 222 73 70 155 117 207 117 42 0 75 10 75 23&#xA;0 5 -25 36 -55 68 -30 32 -55 67 -55 78 0 11 14 30 33 43 28 20 46 23 145 26&#xA;61 2 112 6 112 9 0 3 -14 48 -30 100 -17 52 -28 107 -26 121 2 15 5 30 5 35 2&#xA;12 80 8 154 -8z m479 -417 c-14 -16 -28 -28 -32 -28 -3 0 -12 17 -19 38 -8 20&#xA;-16 43 -18 49 -3 8 14 4 45 -10 l50 -22 -26 -27z m3350 -107 c223 -111 282&#xA;-380 119 -539 -51 -50 -117 -81 -196 -94 -88 -15 -160 8 -226 69 -80 75 -89&#xA;165 -24 230 26 26 41 33 73 33 45 0 61 -14 69 -62 3 -25 0 -39 -12 -51 -22&#xA;-23 -30 -21 -32 4 -2 29 -12 36 -24 19 -65 -101 59 -185 209 -141 119 34 191&#xA;182 148 304 -23 63 -62 104 -134 140 -157 78 -350 52 -555 -74 -27 -17 -51&#xA;-28 -53 -26 -2 2 3 24 11 48 15 43 19 47 114 92 140 67 223 88 346 84 90 -2&#xA;107 -6 167 -36z m1057 -7 c125 -43 135 -68 51 -141 -34 -31 -21 -49 60 -81 41&#xA;-17 78 -41 104 -68 46 -48 116 -176 119 -219 3 -40 -28 -47 -208 -49 -138 -1&#xA;-154 1 -205 23 -30 13 -64 33 -76 43 -40 35 -57 20 -61 -57 -5 -108 -17 -114&#xA;-119 -66 -122 58 -187 144 -186 247 1 104 78 184 162 168 16 -4 30 -8 30 -9 0&#xA;-1 -7 -19 -15 -38 -21 -50 -19 -133 5 -184 20 -45 47 -60 36 -20 -29 101 -31&#xA;176 -7 216 14 22 215 -47 335 -114 54 -31 101 -54 104 -51 8 9 -66 70 -138&#xA;113 -36 22 -99 52 -140 68 -41 16 -79 32 -83 35 -5 4 15 28 43 52 31 27 48 48&#xA;41 52 -14 9 -44 -8 -92 -51 -39 -35 -40 -35 -84 -23 -51 14 -50 17 10 81 78&#xA;82 204 112 314 73z m-593 -129 c62 -19 117 -35 121 -35 5 -1 -10 -16 -31 -34&#xA;-39 -33 -40 -33 -75 -19 -20 8 -81 25 -136 38 l-100 22 -26 45 -26 45 79 -14&#xA;c44 -8 131 -29 194 -48z"/>
    <path d="M4900 7905 c-54 -17 -121 -71 -143 -117 -25 -52 -9 -52 47 0 29 27&#xA;67 57 86 67 38 19 136 23 168 6 26 -14 38 2 17 23 -17 17 -78 36 -110 35 -11&#xA;0 -40 -7 -65 -14z"/>
    <path d="M5700 7582 c-68 -68 -43 -234 43 -282 24 -13 30 -13 55 0 85 48 81&#xA;249 -7 294 -42 22 -58 20 -91 -12z"/>
    <path d="M4930 7543 c-61 -56 -58 -197 5 -260 39 -39 64 -41 103 -8 37 31 51&#xA;85 42 157 -9 65 -21 89 -56 117 -36 28 -58 26 -94 -6z"/>
    <path d="M5417 7463 c-11 -19 -107 -284 -120 -333 -9 -30 -18 -76 -21 -102 -5&#xA;-42 -3 -50 17 -63 43 -28 157 -40 275 -28 138 13 156 22 148 71 -10 65 -93&#xA;216 -187 341 -86 115 -102 131 -112 114z m103 -188 c56 -79 150 -247 150 -269&#xA;0 -2 -32 -10 -70 -16 -80 -13 -254 -10 -269 5 -11 12 2 107 23 163 8 20 29 80&#xA;48 133 18 54 36 94 40 90 3 -3 39 -51 78 -106z"/>
    <path d="M4875 6985 c-42 -15 -62 -36 -72 -73 -8 -35 5 -39 34 -10 l26 27 27&#xA;-42 c50 -78 123 -139 225 -190 171 -86 353 -90 509 -13 72 36 155 101 194 151&#xA;57 75 36 75 -54 1 -120 -99 -258 -155 -380 -156 -117 0 -282 64 -386 152 -42&#xA;35 -96 105 -87 112 2 1 17 7 32 14 16 7 27 18 25 25 -6 18 -47 19 -93 2z"/>
    <path d="M5430 5621 c-52 -52 -52 -131 1 -184 27 -26 35 -29 77 -24 67 7 102&#xA;48 102 118 0 45 -4 55 -34 85 -46 46 -104 48 -146 5z m126 -46 c21 -32 11 -78&#xA;-22 -104 -60 -47 -124 41 -78 107 22 32 78 30 100 -3z"/>
    <path d="M5451 5014 c-61 -51 -63 -157 -3 -204 21 -17 36 -21 70 -17 109 12&#xA;149 144 66 216 -45 40 -90 41 -133 5z m111 -41 c43 -39 3 -133 -56 -133 -56 0&#xA;-77 92 -30 129 32 25 61 27 86 4z"/>
    <path d="M2622 5849 c-76 -10 -102 -17 -102 -30 0 -12 132 -11 206 2 78 14 94&#xA;19 94 30 0 11 -109 10 -198 -2z"/>
    <path d="M2297 4124 c-3 -3 12 -29 34 -57 60 -80 80 -144 87 -274 5 -119 16&#xA;-138 27 -48 16 127 -38 304 -109 358 -18 15 -36 24 -39 21z"/>
    <path d="M5307 2813 c-8 -103 3 -515 14 -527 5 -6 11 -2 15 7 11 30 0 575 -12&#xA;587 -8 8 -13 -11 -17 -67z"/>
    <path d="M3886 2962 c-33 -53 -55 -123 -58 -185 -5 -84 13 -69 33 27 12 58 28&#xA;106 48 138 36 57 36 58 16 58 -8 0 -26 -17 -39 -38z"/>
    <path d="M2196 1503 c19 -38 37 -83 40 -100 7 -39 21 -43 30 -9 7 29 -22 98&#xA;-60 144 -43 51 -47 38 -10 -35z"/>
    <path d="M8871 9635 c-84 -107 -137 -155 -169 -155 -6 0 -31 27 -55 59 -76&#xA;108 -111 105 -147 -11 -32 -106 -54 -161 -67 -165 -5 -2 -16 9 -22 25 -17 41&#xA;-61 81 -98 88 -24 5 -36 1 -53 -16 -21 -21 -22 -28 -16 -119 3 -53 9 -157 12&#xA;-231 l7 -135 -22 19 c-12 11 -57 69 -101 130 -150 210 -152 211 -196 173 -19&#xA;-17 -26 -35 -31 -84 -3 -35 -9 -63 -12 -63 -4 0 -40 20 -80 45 -108 67 -156&#xA;72 -180 19 -15 -34 -12 -43 75 -194 41 -71 74 -131 74 -133 0 -3 -29 -7 -65&#xA;-9 -76 -5 -112 -29 -100 -68 12 -37 81 -106 178 -176 49 -36 85 -69 81 -73 -5&#xA;-4 -34 -13 -64 -20 -72 -18 -90 -28 -90 -50 0 -48 156 -121 305 -143 l86 -12&#xA;-93 -94 c-51 -51 -119 -111 -150 -133 -54 -37 -58 -43 -58 -78 0 -47 24 -71&#xA;78 -78 50 -7 85 11 152 79 57 56 147 186 156 225 4 12 7 23 8 23 0 0 42 -40&#xA;93 -88 129 -124 231 -175 274 -136 25 22 24 64 -2 121 -11 25 -18 47 -15 50 3&#xA;3 41 -10 83 -29 107 -49 206 -78 264 -78 40 0 51 4 64 24 17 26 13 43 -23 99&#xA;-15 22 -21 41 -16 46 5 5 63 19 129 31 131 25 200 52 223 88 14 22 13 25 -33&#xA;67 -26 25 -53 45 -59 45 -6 0 -26 13 -45 29 -33 27 -34 29 -18 52 21 29 22 73&#xA;2 89 -10 8 -51 12 -127 11 -120 -2 -198 6 -198 20 0 4 55 41 123 80 137 81&#xA;197 133 197 172 0 45 -36 65 -145 82 l-39 7 44 36 c91 73 150 140 150 170 0&#xA;44 -26 59 -108 64 -40 3 -78 10 -85 17 -8 8 -3 39 18 118 52 200 61 249 46&#xA;267 -27 32 -49 17 -140 -99z m53 -105 c-40 -150 -43 -202 -12 -224 12 -8 54&#xA;-21 95 -28 41 -7 72 -16 70 -22 -2 -6 -43 -44 -92 -86 -139 -118 -136 -154 16&#xA;-175 73 -11 80 -20 39 -56 -19 -17 -80 -56 -135 -87 -55 -31 -115 -70 -133&#xA;-86 -43 -38 -41 -72 8 -101 31 -17 52 -20 173 -20 75 0 137 -3 137 -6 0 -3 -9&#xA;-14 -20 -24 -41 -37 -18 -72 94 -140 36 -22 65 -43 66 -47 0 -10 -82 -33 -209&#xA;-58 -57 -12 -113 -26 -123 -31 -41 -22 -39 -87 3 -125 67 -60 -60 -40 -253 42&#xA;-123 52 -167 14 -122 -103 9 -24 14 -47 10 -50 -14 -15 -103 46 -198 136&#xA;l-100 95 6 40 c9 53 17 61 78 75 111 24 190 32 381 38 109 3 194 9 190 14 -15&#xA;14 -127 29 -224 29 -82 0 -266 -24 -354 -46 -22 -5 -14 11 64 137 87 142 89&#xA;144 130 151 85 14 255 82 306 122 34 26 0 19 -160 -33 -82 -28 -151 -48 -154&#xA;-46 -2 3 1 10 7 17 41 50 282 493 282 518 0 31 -28 -5 -106 -137 -48 -82 -117&#xA;-199 -154 -261 l-67 -113 -7 78 c-10 112 -17 153 -27 148 -4 -3 -7 -31 -7 -63&#xA;1 -31 1 -96 0 -143 l-2 -86 -82 -137 c-79 -129 -83 -135 -92 -109 -40 129&#xA;-102 245 -179 338 -82 100 -109 98 -35 -3 78 -106 188 -337 188 -397 0 -81&#xA;-188 -88 -361 -14 -27 12 -47 25 -44 29 2 4 26 10 51 14 54 7 84 29 84 60 0&#xA;25 -56 81 -150 151 -61 45 -109 92 -110 106 0 4 27 9 61 13 56 7 99 30 99 54&#xA;0 15 -41 95 -90 177 -54 89 -70 135 -49 135 8 0 52 -23 99 -50 126 -74 145&#xA;-68 157 45 l8 68 46 -59 c25 -33 74 -101 108 -151 66 -99 96 -127 133 -121 45&#xA;6 50 35 44 275 -7 250 -6 254 58 158 38 -58 64 -72 96 -55 27 14 42 47 75 158&#xA;16 50 31 92 35 92 4 0 21 -22 38 -49 16 -27 42 -57 56 -66 55 -36 132 11 227&#xA;139 35 47 64 84 65 83 1 -1 -13 -58 -32 -127z m-794 -1297 c-58 -93 -133 -183&#xA;-175 -212 -30 -20 -39 -22 -60 -13 -35 16 -31 26 20 59 25 15 92 76 148 134&#xA;56 58 104 105 106 103 2 -2 -15 -34 -39 -71z"/>
    <path d="M1648 9561 c-190 -62 -321 -223 -343 -418 l-7 -60 -42 15 c-67 23&#xA;-190 12 -260 -23 -68 -34 -134 -102 -172 -176 -39 -77 -40 -169 -1 -228 34&#xA;-52 103 -87 194 -100 37 -6 415 -13 838 -16 833 -7 852 -6 945 46 111 63 102&#xA;219 -15 278 -39 20 -58 23 -110 19 l-62 -5 -6 56 c-9 103 -72 187 -159 213&#xA;-67 19 -175 15 -231 -10 l-47 -21 0 54 c0 170 -71 286 -218 356 -86 42 -214&#xA;50 -304 20z m274 -68 c26 -12 70 -43 97 -68 83 -77 107 -172 79 -307 -10 -50&#xA;-10 -60 3 -74 14 -14 19 -13 47 11 80 67 224 83 314 34 64 -36 93 -94 93 -189&#xA;0 -85 -1 -84 85 -60 60 17 115 6 151 -29 55 -55 48 -112 -19 -158 -68 -45 -97&#xA;-46 -942 -39 -437 4 -811 10 -830 15 -103 23 -150 72 -150 154 0 124 120 252&#xA;256 273 67 10 150 -12 195 -53 23 -21 43 -32 48 -27 5 5 11 56 13 114 3 93 7&#xA;113 35 173 53 112 158 208 266 243 62 20 200 13 259 -13z"/>
    <path d="M8612 7639 c-64 -12 -159 -68 -198 -114 -43 -54 -73 -122 -81 -186&#xA;-5 -41 -9 -49 -22 -43 -118 49 -253 43 -372 -17 -54 -27 -125 -102 -144 -153&#xA;-51 -132 27 -226 203 -248 43 -5 374 -8 747 -6 l670 3 60 30 c75 38 109 83&#xA;102 138 -6 47 -26 78 -74 114 -33 25 -44 28 -114 28 l-77 0 -6 30 c-10 46 -50&#xA;100 -89 118 -43 21 -123 22 -169 2 l-35 -14 -6 68 c-7 83 -41 156 -93 199 -64&#xA;53 -187 74 -302 51z m228 -72 c65 -32 101 -88 107 -168 3 -35 1 -83 -5 -105&#xA;-9 -40 -1 -74 17 -74 4 0 21 11 37 25 43 37 125 61 171 49 48 -12 83 -61 83&#xA;-118 0 -58 11 -72 47 -58 53 20 95 24 139 12 116 -33 110 -149 -9 -186 -46&#xA;-14 -132 -16 -742 -15 -765 2 -780 3 -830 63 -55 65 -9 169 105 235 109 64&#xA;246 63 352 -2 32 -20 62 -33 68 -30 5 3 10 41 10 83 0 42 5 94 10 114 14 49&#xA;66 116 117 150 88 59 232 70 323 25z"/>
    <path d="M1495 5384 c11 -9 82 -54 157 -102 176 -111 280 -189 448 -332 146&#xA;-126 282 -266 362 -372 65 -87 91 -93 49 -10 -57 109 -199 264 -391 425 -221&#xA;186 -370 289 -534 368 -83 40 -129 52 -91 23z"/>
    <path d="M890 5383 c0 -5 19 -20 43 -33 264 -149 624 -455 854 -727 88 -104&#xA;113 -127 113 -104 0 15 -64 105 -137 192 -85 101 -264 276 -393 383 -170 142&#xA;-480 328 -480 289z"/>
    <path d="M2182 5319 c2 -8 79 -66 170 -129 315 -218 478 -355 663 -559 104&#xA;-114 153 -153 124 -98 -53 99 -329 380 -495 503 -209 155 -473 316 -462 283z"/>
    <path d="M470 5256 c0 -2 62 -51 138 -108 252 -189 358 -290 552 -526 69 -84&#xA;126 -148 128 -143 5 15 -37 91 -90 161 -167 221 -388 428 -583 547 -94 57&#xA;-145 82 -145 69z"/>
    <path d="M8085 5010 c-4 -6 -4 -26 -1 -44 l6 -33 -56 19 c-31 11 -94 22 -140&#xA;25 -72 5 -87 3 -104 -12 -25 -22 -25 -41 -2 -54 14 -8 9 -11 -23 -11 -122 -3&#xA;-193 -22 -201 -53 -5 -20 -12 -22 -102 -24 -146 -4 -216 -31 -199 -76 3 -9 22&#xA;-19 41 -23 20 -3 36 -9 35 -13 0 -3 -31 -26 -70 -51 -76 -48 -123 -105 -117&#xA;-142 2 -18 11 -24 39 -28 l37 -5 -55 -89 c-57 -96 -69 -126 -59 -152 5 -13 15&#xA;-15 47 -11 35 5 40 3 34 -11 -3 -10 -20 -64 -36 -121 -44 -157 -37 -234 21&#xA;-216 18 6 19 4 10 -17 -16 -37 -58 -208 -66 -265 -9 -73 0 -103 32 -103 19 0&#xA;24 -4 20 -17 -15 -53 -36 -147 -47 -215 -11 -68 -11 -79 4 -102 11 -17 22 -23&#xA;34 -19 13 5 15 2 10 -18 -19 -82 -29 -152 -23 -175 7 -25 10 -26 52 -20 26 3&#xA;44 2 44 -4 0 -6 39 -10 92 -10 72 0 89 -3 80 -12 -7 -7 -12 -20 -12 -30 0 -28&#xA;70 -41 186 -35 93 4 102 3 113 -15 11 -18 20 -20 77 -14 35 4 91 15 125 26&#xA;l61 18 51 -30 c71 -42 118 -57 199 -65 53 -4 72 -3 78 7 7 11 22 9 82 -8 93&#xA;-28 128 -28 135 -2 3 11 7 20 9 20 2 0 29 -7 61 -15 31 -8 89 -15 129 -15 57&#xA;0 74 4 88 19 10 11 15 25 11 31 -4 7 1 9 17 5 35 -8 188 -25 224 -25 18 0 42&#xA;9 55 19 20 17 22 23 12 39 -12 19 -11 20 40 6 29 -8 85 -17 125 -21 64 -5 74&#xA;-4 87 13 16 22 11 53 -14 73 -14 11 -2 13 81 8 118 -8 133 1 99 59 l-22 37 35&#xA;-6 c36 -6 66 11 66 36 0 7 -11 58 -25 115 -30 124 -30 118 -5 125 21 5 23 18&#xA;20 107 -1 54 -19 208 -26 232 -3 12 2 17 18 20 22 3 23 7 23 88 0 47 -4 109&#xA;-8 139 -7 45 -6 53 7 48 27 -11 39 19 31 79 -4 32 -9 63 -12 71 -4 10 18 13&#xA;110 13 67 0 118 4 122 10 11 18 -45 30 -144 30 l-98 0 -7 31 c-8 40 -8 54 1&#xA;46 3 -4 12 -2 20 4 17 15 17 76 -2 129 -19 53 -19 50 8 50 27 0 47 17 47 40 0&#xA;51 -86 176 -154 226 l-29 21 36 12 c29 10 37 18 37 37 0 32 -58 59 -162 75&#xA;l-74 12 4 32 c4 30 1 34 -30 43 -57 18 -108 24 -205 23 -51 0 -91 4 -89 8 3 4&#xA;-1 17 -8 27 -12 16 -26 19 -88 17 -67 -1 -141 -13 -180 -28 -12 -5 -14 -1 -11&#xA;18 12 61 -60 59 -192 -8 l-85 -43 -65 35 c-121 64 -302 112 -320 83z m161 -71&#xA;c38 -12 104 -39 146 -60 43 -22 82 -39 87 -39 5 0 31 13 58 30 50 31 153 74&#xA;153 64 0 -3 -16 -25 -35 -48 -19 -24 -32 -45 -29 -49 3 -3 24 1 47 9 96 34&#xA;297 71 297 55 0 -2 -15 -17 -32 -32 -18 -15 -30 -31 -25 -35 4 -4 34 -3 65 4&#xA;60 12 245 14 296 3 l28 -6 -46 -33 c-25 -18 -46 -37 -46 -43 0 -5 39 -9 88 -9&#xA;48 -1 116 -7 152 -14 l65 -12 -52 -23 c-59 -26 -60 -40 -5 -64 53 -23 120 -83&#xA;154 -136 38 -60 37 -72 -4 -60 -52 15 -61 -5 -34 -71 13 -30 27 -68 30 -85 l8&#xA;-30 -25 23 c-16 15 -27 20 -31 13 -4 -6 4 -66 18 -135 34 -162 34 -169 -4&#xA;-126 -35 42 -38 31 -15 -75 8 -39 17 -117 21 -175 l5 -105 -20 25 c-11 14 -26&#xA;37 -32 53 -24 57 -25 23 -2 -105 12 -73 25 -173 29 -223 l6 -90 -32 55 c-65&#xA;115 -69 98 -21 -96 22 -88 42 -176 46 -196 6 -37 6 -38 -24 -32 -41 8 -81 -3&#xA;-81 -23 0 -8 9 -30 19 -47 l20 -32 -100 9 c-56 5 -107 6 -115 3 -24 -9 -16&#xA;-38 19 -67 l32 -28 -46 -1 c-25 0 -68 7 -95 15 -27 8 -88 18 -136 22 -76 5&#xA;-88 4 -88 -10 0 -9 8 -18 18 -21 9 -3 31 -17 47 -30 l30 -25 -70 5 c-38 3&#xA;-109 12 -158 20 -144 23 -163 18 -107 -29 17 -14 30 -27 30 -29 0 -2 -35 -1&#xA;-79 4 -82 8 -184 38 -236 70 -53 32 -61 16 -19 -39 15 -20 20 -33 12 -33 -21&#xA;0 -161 46 -196 64 -37 19 -43 6 -16 -32 14 -20 14 -22 -4 -22 -39 0 -122 32&#xA;-172 65 -29 19 -57 35 -64 35 -6 0 -37 -9 -68 -20 -66 -22 -148 -36 -148 -25&#xA;0 4 10 16 22 26 31 28 15 35 -50 20 -62 -13 -252 -27 -252 -18 0 3 17 16 38&#xA;28 49 30 48 29 32 39 -8 6 -66 10 -128 10 l-113 0 15 22 c9 12 16 26 16 30 0&#xA;14 -40 8 -77 -12 -47 -25 -66 -26 -59 -2 12 36 56 253 56 269 -1 13 -12 6 -40&#xA;-26 l-40 -44 0 29 c0 36 42 234 70 329 34 119 23 138 -31 53 -24 -36 -35 -47&#xA;-37 -35 -4 20 17 122 57 272 15 61 31 130 35 155 l7 45 -51 -55 c-27 -30 -50&#xA;-49 -50 -41 0 38 46 194 81 275 22 50 43 97 46 104 10 23 -38 13 -83 -18 -24&#xA;-17 -44 -28 -44 -25 0 28 97 171 149 221 23 21 41 42 41 47 0 9 -81 -1 -119&#xA;-15 -13 -5 -26 -6 -29 -3 -13 12 59 69 136 107 45 23 82 45 82 49 0 11 -51 49&#xA;-66 49 -8 0 -14 5 -14 12 0 8 55 10 210 5 116 -3 208 -2 205 3 -2 4 -28 17&#xA;-57 28 -29 11 -62 24 -73 28 -15 6 -8 9 30 15 81 12 165 10 239 -6 38 -8 72&#xA;-12 75 -10 9 9 -32 43 -89 74 -47 26 -51 31 -28 31 35 0 145 -24 228 -50 36&#xA;-11 71 -20 78 -20 18 0 14 32 -8 60 -37 47 -25 50 76 19z"/>
    <path d="M8970 4740 c-68 -27 -161 -84 -242 -149 -94 -75 -115 -98 -101 -112&#xA;8 -8 37 9 101 58 49 38 133 96 187 127 85 51 116 79 104 90 -2 2 -24 -4 -49&#xA;-14z"/>
    <path d="M8362 4710 c-60 -14 -173 -100 -132 -100 19 0 190 90 190 100 0 11&#xA;-11 11 -58 0z"/>
    <path d="M8008 4670 c-31 -30 -32 -31 -8 -25 14 4 46 12 72 18 59 15 65 31 11&#xA;35 -35 3 -47 -2 -75 -28z"/>
    <path d="M8532 4655 c-45 -14 -85 -42 -77 -55 4 -7 119 28 143 43 18 12 15 27&#xA;-5 26 -10 0 -37 -6 -61 -14z"/>
    <path d="M9020 4640 c0 -18 42 -32 113 -36 64 -5 111 5 96 20 -7 7 -129 26&#xA;-171 26 -21 0 -38 -4 -38 -10z"/>
    <path d="M7586 4539 c-36 -42 -50 -71 -75 -153 -18 -60 -30 -188 -16 -174 3 3&#xA;17 47 30 98 14 51 43 128 65 171 22 44 40 82 40 84 0 14 -21 1 -44 -26z"/>
    <path d="M7768 4518 c-51 -42 -103 -151 -132 -276 -21 -94 -32 -237 -18 -246&#xA;11 -7 20 28 47 186 17 101 51 196 101 285 34 61 35 77 2 51z"/>
    <path d="M9282 4390 c28 -49 63 -126 78 -171 16 -44 31 -83 34 -86 14 -14 4&#xA;83 -14 136 -34 102 -107 211 -141 211 -4 0 16 -40 43 -90z"/>
    <path d="M7922 4383 c-34 -89 -41 -120 -27 -120 10 0 35 55 61 137 16 53 17&#xA;60 5 60 -5 0 -23 -35 -39 -77z"/>
    <path d="M8773 4438 c-42 -46 -73 -134 -98 -272 -15 -84 -12 -124 12 -143 13&#xA;-10 13 -24 -1 -111 -9 -55 -16 -143 -16 -197 0 -90 1 -97 21 -102 19 -5 21&#xA;-11 15 -52 -10 -77 -19 -445 -12 -485 7 -38 17 -41 23 -8 2 9 8 96 13 192 12&#xA;226 19 311 30 385 18 115 7 134 -31 51 l-19 -41 0 75 c0 83 20 233 44 325 9&#xA;32 16 70 16 84 0 23 -1 23 -19 7 -11 -10 -25 -31 -31 -47 -21 -50 -21 -26 0&#xA;76 24 117 55 221 75 252 26 40 11 47 -22 11z"/>
    <path d="M8189 4365 c-19 -29 -78 -307 -86 -405 -10 -130 13 -68 57 153 37&#xA;184 48 282 29 252z"/>
    <path d="M9016 4333 c24 -172 50 -290 55 -245 9 80 -24 260 -51 277 -5 3 -7&#xA;-12 -4 -32z"/>
    <path d="M8327 4113 c-14 -22 -39 -193 -43 -298 -8 -166 12 -111 37 105 19&#xA;174 21 217 6 193z"/>
    <path d="M9284 3855 c7 -160 15 -217 27 -209 23 14 3 315 -22 338 -9 8 -10&#xA;-22 -5 -129z"/>
    <path d="M7791 3893 c-21 -94 -31 -179 -31 -277 0 -191 26 -70 45 209 4 50 8&#xA;96 10 103 3 6 0 12 -4 12 -5 0 -14 -21 -20 -47z"/>
    <path d="M8950 3878 c0 -54 22 -256 32 -293 10 -38 11 -39 20 -16 12 33 0 157&#xA;-28 289 -8 39 -24 52 -24 20z"/>
    <path d="M7415 3773 c-11 -76 -16 -313 -6 -313 12 0 19 59 27 223 4 89 3 137&#xA;-3 137 -6 0 -14 -21 -18 -47z"/>
    <path d="M8426 3593 c-22 -72 -36 -353 -17 -353 14 0 20 46 27 213 7 145 4&#xA;184 -10 140z"/>
    <path d="M7576 3508 c-12 -43 -19 -204 -11 -263 12 -96 23 -44 26 122 3 146&#xA;-1 190 -15 141z"/>
    <path d="M9203 3390 c7 -163 23 -258 40 -241 8 8 6 60 -6 188 -22 226 -42 257&#xA;-34 53z"/>
    <path d="M8065 3308 c-10 -75 -7 -240 5 -252 7 -7 10 4 11 29 1 72 -2 270 -5&#xA;273 -2 1 -7 -21 -11 -50z"/>
    <path d="M8523 3245 c0 -33 2 -45 4 -27 2 18 2 45 0 60 -2 15 -4 0 -4 -33z"/>
    <path d="M8937 3273 c-4 -8 22 -225 28 -231 2 -2 8 -1 14 3 16 10 13 71 -8&#xA;153 -20 76 -26 89 -34 75z"/>
    <path d="M3124 4948 c16 -13 83 -63 150 -113 112 -83 356 -312 434 -409 18&#xA;-22 34 -37 37 -35 2 3 -12 34 -33 69 -91 157 -467 480 -587 505 l-30 6 29 -23z"/>
    <path d="M2820 4263 c1 -49 46 -238 55 -233 16 8 8 141 -12 199 -20 61 -43 79&#xA;-43 34z"/>
    <path d="M3026 4235 c-15 -14 -36 -44 -46 -68 -22 -50 -37 -127 -24 -127 14 0&#xA;115 208 105 214 -5 3 -21 -6 -35 -19z"/>
    <path d="M3483 4218 c6 -33 37 -155 60 -237 7 -25 19 -47 26 -49 19 -6 9 145&#xA;-15 213 -31 89 -83 142 -71 73z"/>
    <path d="M1524 4168 c-20 -64 -31 -262 -16 -272 11 -7 20 29 47 184 19 109 19&#xA;140 0 140 -8 0 -21 -21 -31 -52z"/>
    <path d="M3713 4178 c-36 -40 -52 -80 -77 -190 -4 -17 -2 -28 4 -28 12 0 110&#xA;201 110 225 0 21 -13 18 -37 -7z"/>
    <path d="M1347 4128 c8 -50 62 -216 73 -223 35 -22 17 95 -30 193 -32 68 -51&#xA;81 -43 30z"/>
    <path d="M811 4108 c-28 -88 -37 -309 -11 -293 15 10 57 296 45 315 -11 18&#xA;-23 11 -34 -22z"/>
    <path d="M1677 4101 c-38 -34 -82 -116 -96 -178 -13 -64 8 -55 46 20 18 34 51&#xA;86 73 115 37 49 43 72 20 72 -5 0 -24 -13 -43 -29z"/>
    <path d="M6860 4073 c-28 -60 -48 -159 -40 -198 8 -40 23 -35 33 12 5 21 20&#xA;73 33 115 13 42 24 86 24 98 0 36 -27 21 -50 -27z"/>
    <path d="M3386 4102 c-5 -9 100 -165 114 -170 29 -10 -13 88 -60 141 -32 37&#xA;-45 44 -54 29z"/>
    <path d="M6654 4076 c-7 -19 86 -247 98 -240 20 12 1 104 -36 179 -36 74 -51&#xA;89 -62 61z"/>
    <path d="M966 4030 c-39 -43 -64 -94 -76 -152 -14 -70 7 -64 45 13 21 41 51&#xA;93 66 116 51 73 25 90 -35 23z"/>
    <path d="M580 4034 c0 -20 122 -243 133 -244 17 0 5 72 -23 126 -31 62 -85&#xA;134 -101 134 -5 0 -9 -7 -9 -16z"/>
    <path d="M7020 3979 c-32 -13 -78 -56 -97 -92 -29 -57 -1 -45 87 36 64 59 68&#xA;79 10 56z"/>
    <path d="M846 3358 c-29 -46 -48 -138 -44 -213 3 -67 11 -96 22 -84 2 2 9 42&#xA;16 89 9 73 21 125 46 213 8 25 -23 22 -40 -5z"/>
    <path d="M9773 3358 c-48 -52 -90 -176 -64 -192 10 -7 101 173 101 200 0 20&#xA;-14 17 -37 -8z"/>
    <path d="M6397 3363 c-19 -18 32 -283 54 -283 21 0 4 194 -23 263 -10 27 -19&#xA;33 -31 20z"/>
    <path d="M570 3319 c0 -7 19 -42 42 -78 23 -36 56 -99 75 -140 25 -54 37 -71&#xA;45 -63 26 26 -49 201 -109 259 -37 34 -53 41 -53 22z"/>
    <path d="M6588 3290 c-14 -10 -35 -42 -47 -69 -21 -49 -39 -141 -28 -141 10 0&#xA;115 220 107 225 -4 3 -19 -4 -32 -15z"/>
    <path d="M6210 3247 c0 -7 18 -31 41 -52 22 -22 54 -59 70 -82 54 -77 69 -42&#xA;19 43 -16 28 -43 63 -60 78 -33 28 -70 35 -70 13z"/>
    <path d="M9808 3233 c-33 -34 -47 -83 -25 -83 16 0 67 71 67 95 0 22 -13 18&#xA;-42 -12z"/>
    <path d="M492 3167 c4 -17 147 -151 154 -145 7 8 -14 57 -36 86 -43 54 -127&#xA;96 -118 59z"/>
    <path d="M4875 2951 c-6 -11 107 -242 128 -259 52 -44 4 107 -70 220 -25 38&#xA;-48 53 -58 39z"/>
    <path d="M6885 2914 c-46 -12 -48 -13 -35 -29 10 -12 36 -15 116 -15 104 0&#xA;127 7 99 30 -16 13 -144 23 -180 14z"/>
    <path d="M5787 2829 c-52 -54 -120 -185 -132 -251 -10 -65 18 -45 58 40 20 42&#xA;63 115 96 161 33 47 58 88 55 93 -11 17 -29 7 -77 -43z"/>
    <path d="M4772 2826 c4 -19 128 -149 135 -143 13 14 -11 61 -55 107 -46 48&#xA;-87 66 -80 36z"/>
    <path d="M5923 2739 c-35 -13 -97 -83 -132 -149 -55 -102 -27 -93 68 23 31 38&#xA;66 81 79 97 25 31 19 42 -15 29z"/>
    <path d="M674 2649 c-42 -12 -104 -74 -134 -134 -35 -70 -35 -170 0 -238 37&#xA;-74 132 -162 197 -183 2 0 -10 -25 -27 -56 -86 -158 -46 -346 93 -432 58 -36&#xA;170 -48 227 -24 107 45 167 166 130 262 -22 59 -80 84 -114 50 -26 -25 -20&#xA;-47 10 -40 39 10 54 -9 54 -68 0 -193 -271 -223 -363 -41 -24 49 -29 97 -17&#xA;165 14 77 26 101 80 162 l41 47 -28 6 c-47 10 -129 52 -168 86 -127 111 -113&#xA;309 27 380 30 16 53 20 85 16 32 -3 43 -1 43 9 0 29 -83 49 -136 33z"/>
    <path d="M9590 2636 c0 -9 21 -17 63 -24 69 -11 91 -3 56 22 -30 20 -119 22&#xA;-119 2z"/>
    <path d="M7165 2619 c-11 -17 2 -23 63 -26 59 -4 90 6 78 26 -9 14 -133 15&#xA;-141 0z"/>
    <path d="M7465 2541 c-8 -13 3 -18 62 -26 59 -8 80 -1 62 21 -13 16 -114 20&#xA;-124 5z"/>
    <path d="M9447 2520 c-44 -8 -51 -14 -44 -35 5 -12 28 -15 137 -15 135 0 160&#xA;9 98 34 -41 17 -140 25 -191 16z"/>
    <path d="M8380 2441 c0 -15 7 -21 23 -23 39 -2 172 3 176 8 15 15 -31 28 -109&#xA;32 -86 4 -90 4 -90 -17z"/>
    <path d="M9167 2223 c-24 -47 -46 -124 -62 -217 -18 -109 -20 -165 -4 -149 13&#xA;13 98 334 99 371 0 30 -17 28 -33 -5z"/>
    <path d="M8920 2234 c0 -3 11 -43 24 -88 14 -44 32 -124 41 -176 9 -51 18 -96&#xA;20 -98 2 -3 10 8 16 24 19 48 -4 205 -42 282 -17 34 -37 62 -45 62 -8 0 -14&#xA;-3 -14 -6z"/>
    <path d="M7640 2220 c0 -6 11 -32 24 -58 31 -63 52 -130 71 -232 24 -127 36&#xA;-170 48 -163 14 9 2 194 -18 267 -19 73 -59 153 -87 178 -24 20 -38 23 -38 8z"/>
    <path d="M7961 2111 c-40 -42 -91 -230 -87 -315 1 -29 18 -26 27 4 4 14 20 68&#xA;35 120 15 52 38 116 51 142 39 79 25 104 -26 49z"/>
    <path d="M9335 2091 c-47 -28 -115 -110 -142 -170 -35 -79 -23 -84 33 -11 27&#xA;36 75 92 106 126 32 33 55 64 51 67 -9 10 -15 9 -48 -12z"/>
    <path d="M5750 2072 c-14 -11 -22 -23 -18 -27 4 -4 49 -9 100 -10 51 -2 105&#xA;-8 120 -13 17 -7 29 -8 33 -2 18 29 -48 60 -139 67 -61 5 -74 3 -96 -15z"/>
    <path d="M7510 2009 c0 -6 28 -45 62 -88 34 -42 75 -105 92 -141 l31 -65 3 44&#xA;c5 63 -43 157 -111 216 -51 44 -77 56 -77 34z"/>
    <path d="M8089 1952 c-24 -16 -56 -42 -69 -58 -33 -40 -66 -102 -58 -110 9 -8&#xA;198 167 198 184 0 19 -23 14 -71 -16z"/>
    <path d="M7426 1415 c-32 -24 -8 -33 109 -38 61 -3 119 -7 130 -9 14 -2 21 3&#xA;23 18 4 31 -42 44 -152 44 -64 -1 -97 -5 -110 -15z"/>
    <path d="M8470 1393 c0 -4 19 -43 42 -88 23 -44 56 -118 73 -165 17 -47 35&#xA;-83 40 -80 21 10 8 105 -24 181 -33 79 -92 159 -117 159 -8 0 -14 -3 -14 -7z"/>
    <path d="M8746 1348 c-20 -31 -44 -128 -51 -208 -5 -49 -3 -70 8 -84 14 -19&#xA;15 -16 22 31 3 28 19 100 35 160 15 59 26 111 23 116 -8 13 -22 7 -37 -15z"/>
    <path d="M8872 1201 c-60 -48 -135 -162 -104 -161 17 1 182 171 182 189 0 21&#xA;-28 11 -78 -28z"/>
    <path d="M4820 933 c-19 -8 -30 -25 -24 -35 3 -4 42 -8 87 -8 45 0 107 -7 137&#xA;-15 30 -8 56 -13 57 -11 10 9 -13 39 -41 53 -32 17 -187 29 -216 16z"/>
    <path d="M2527 908 c-2 -7 15 -71 39 -143 24 -71 43 -138 44 -147 0 -24 17&#xA;-23 25 1 23 75 -82 358 -108 289z"/>
    <path d="M2775 834 c-14 -15 -33 -50 -44 -79 -22 -59 -35 -158 -20 -153 8 3&#xA;109 238 109 253 0 13 -24 2 -45 -21z"/>
    <path d="M7493 810 c-13 -5 -23 -16 -23 -25 0 -12 14 -15 74 -15 40 0 94 -3&#xA;120 -6 38 -6 45 -4 41 8 -12 32 -164 59 -212 38z"/>
    <path d="M2345 800 c-4 -6 20 -38 53 -73 32 -34 69 -77 81 -94 22 -32 51 -44&#xA;51 -22 0 13 -47 96 -69 123 -19 22 -91 76 -102 76 -4 0 -11 -5 -14 -10z"/>
    <path d="M5894 746 c-4 -9 -3 -20 1 -24 3 -4 50 -10 103 -13 53 -4 112 -10&#xA;130 -14 25 -6 32 -4 32 8 0 28 -69 51 -167 55 -80 4 -94 2 -99 -12z"/>
    <path d="M4265 683 c-69 -12 -106 -27 -103 -42 2 -10 13 -15 28 -14 87 6 179&#xA;4 204 -6 35 -14 56 0 37 23 -21 26 -114 47 -166 39z"/>
  </g>
  <title>Scarecrow Fall Field</title>
  <desc>Scarecrow Fall Field</desc>
</svg>