<?xml version="1.0" encoding="UTF-8" standalone="yes"?>
<svg version="1.0" xmlns="http://www.w3.org/2000/svg" width="1024.000000pt" height="1024.000000pt" viewBox="0 0 1024.000000 1024.000000" preserveAspectRatio="xMidYMid meet">
  <metadata>
Created by potrace 1.16, written by Peter Selinger 2001-2019
</metadata>
  <g transform="translate(0.000000,1024.000000) scale(0.100000,-0.100000)" fill="#000000" stroke="none">
    <path d="M6857 9913 c-4 -3 -7 -13 -7 -20 0 -15 108 -153 265 -338 169 -199&#xA;219 -249 238 -242 43 17 25 43 -282 407 -62 74 -127 150 -144 168 -29 30 -56&#xA;40 -70 25z"/>
    <path d="M7694 9896 c-12 -32 76 -334 106 -361 41 -37 39 21 -6 224 -14 64&#xA;-30 124 -35 134 -11 20 -57 23 -65 3z"/>
    <path d="M8406 9883 c-3 -16 -13 -94 -22 -175 -15 -119 -16 -149 -5 -161 17&#xA;-21 38 -11 46 21 14 55 54 326 49 334 -3 4 -18 8 -34 8 -23 0 -29 -5 -34 -27z"/>
    <path d="M9183 9848 c-41 -46 -275 -446 -271 -464 6 -34 40 -21 75 28 75 103&#xA;254 412 251 432 -4 29 -30 31 -55 4z"/>
    <path d="M2145 9811 c-93 -27 -183 -80 -262 -155 -95 -89 -147 -173 -202 -319&#xA;-5 -16 -13 -13 -64 27 -75 58 -128 83 -218 102 -90 19 -193 7 -276 -31 -71&#xA;-32 -168 -126 -203 -195 -47 -94 -61 -220 -35 -315 6 -19 1 -20 -102 -20 -101&#xA;0 -111 -2 -161 -30 -94 -52 -151 -146 -159 -264 -7 -95 21 -164 93 -230 103&#xA;-95 250 -126 554 -118 l195 5 55 -34 c194 -119 493 -122 725 -7 l73 36 66 -31&#xA;c109 -52 175 -65 306 -59 147 7 256 43 353 119 l38 30 82 -13 c115 -19 315&#xA;-17 402 5 142 34 222 87 261 171 55 117 7 236 -120 303 -46 24 -61 27 -157 27&#xA;l-106 0 10 28 c5 16 7 61 5 100 -14 206 -176 312 -375 245 l-73 -24 0 107 c0&#xA;128 -12 192 -51 276 -47 99 -116 166 -223 218 -50 24 -115 48 -144 54 -78 16&#xA;-217 12 -287 -8z m294 -66 c165 -44 265 -134 322 -291 31 -83 31 -230 1 -337&#xA;-12 -42 -22 -84 -22 -92 0 -28 31 -15 80 34 63 63 126 85 221 79 83 -6 124&#xA;-29 162 -90 23 -37 29 -58 29 -105 1 -65 -8 -115 -27 -153 -7 -14 -15 -37 -19&#xA;-52 -8 -35 8 -37 64 -8 55 28 117 35 194 20 110 -21 176 -83 176 -167 0 -89&#xA;-72 -154 -212 -194 -111 -31 -312 -34 -435 -5 l-83 19 -36 -37 c-86 -89 -219&#xA;-132 -383 -124 -108 6 -185 29 -254 77 -25 17 -51 31 -58 31 -7 0 -33 -14 -59&#xA;-30 -123 -79 -326 -122 -473 -100 -97 14 -163 38 -248 89 -55 34 -67 37 -94&#xA;29 -51 -17 -340 -18 -441 -3 -225 34 -308 106 -309 265 0 64 4 82 28 122 75&#xA;129 240 167 353 81 34 -25 74 -31 74 -10 0 7 -10 40 -22 72 -18 48 -23 81 -23&#xA;165 0 95 3 111 28 161 59 121 182 200 323 207 101 5 169 -13 253 -69 77 -51&#xA;87 -67 101 -154 6 -38 15 -74 20 -79 19 -19 37 15 43 78 8 84 49 205 94 280&#xA;47 77 150 186 216 228 114 73 282 99 416 63z"/>
    <path d="M4732 9534 c-90 -45 -142 -124 -183 -280 -11 -43 -23 -118 -26 -166&#xA;-3 -49 -9 -88 -13 -88 -18 0 -76 72 -106 132 -38 75 -79 212 -70 234 5 12 12&#xA;11 45 -8 33 -19 41 -20 55 -9 22 19 20 28 -13 62 -24 23 -38 29 -75 29 -55 0&#xA;-76 -24 -76 -88 0 -53 40 -178 81 -250 l29 -52 -67 34 c-134 67 -240 83 -300&#xA;46 -18 -11 -35 -30 -39 -44 -11 -46 53 -127 91 -112 22 8 18 53 -6 70 -38 26&#xA;-13 39 64 33 58 -4 86 -13 161 -51 114 -59 122 -64 130 -102 l7 -31 -63 -12&#xA;c-168 -32 -278 -142 -278 -279 0 -83 62 -173 142 -206 21 -9 62 -16 92 -16 55&#xA;0 180 33 191 50 14 23 25 7 25 -35 0 -90 59 -160 142 -171 33 -4 51 0 76 16&#xA;44 27 61 71 63 163 2 70 3 76 22 74 13 -1 26 8 36 25 13 23 14 33 4 59 -7 18&#xA;-11 34 -10 36 2 2 30 -2 63 -8 128 -24 260 15 311 92 35 53 41 115 15 165 -41&#xA;79 -104 114 -206 114 l-65 0 35 76 c44 95 67 202 59 269 -8 62 -47 150 -83&#xA;189 -64 68 -170 85 -260 40z m157 -48 c42 -22 98 -90 110 -133 15 -54 13 -151&#xA;-4 -209 -8 -27 -39 -94 -70 -149 -47 -85 -53 -101 -41 -113 12 -12 24 -12 86&#xA;2 135 31 230 -12 230 -105 0 -53 -38 -95 -103 -114 -61 -18 -114 -19 -208 -3&#xA;-70 11 -70 11 -109 67 -57 86 -135 175 -174 202 -20 13 -38 29 -40 36 -10 26&#xA;30 239 63 334 54 157 163 234 260 185z m-259 -685 c74 -75 105 -115 139 -179&#xA;39 -76 41 -83 19 -71 -65 35 -298 307 -298 349 0 25 56 -14 140 -99z m-135&#xA;-38 c57 -86 122 -159 193 -214 l62 -49 0 -79 c0 -89 -21 -131 -66 -131 -71 0&#xA;-99 52 -91 168 6 100 -2 108 -67 63 -105 -73 -221 -95 -293 -58 -73 38 -105&#xA;145 -67 228 31 70 142 127 250 128 39 1 43 -2 79 -56z"/>
    <path d="M4782 9283 c-10 -15 -25 -45 -32 -67 -10 -32 -10 -40 3 -54 20 -20&#xA;40 -5 68 51 37 72 4 131 -39 70z"/>
    <path d="M4328 8659 c-22 -13 -23 -45 -2 -53 24 -9 61 -7 89 6 26 12 29 17 19&#xA;42 -7 18 -78 22 -106 5z"/>
    <path d="M9736 9425 c-69 -41 -138 -90 -339 -238 -119 -88 -147 -114 -145&#xA;-131 7 -46 19 -38 516 311 49 35 62 50 60 66 -5 33 -28 31 -92 -8z"/>
    <path d="M6126 9434 c-4 -10 -1 -23 6 -30 22 -22 874 -434 896 -434 55 0 24&#xA;38 -78 95 -90 52 -599 306 -687 344 -97 42 -128 48 -137 25z"/>
    <path d="M8025 9439 c-95 -14 -233 -56 -323 -99 -388 -185 -632 -558 -632&#xA;-967 0 -382 205 -738 539 -936 295 -175 641 -211 966 -102 335 112 591 365&#xA;699 690 211 632 -216 1299 -904 1411 -93 15 -251 16 -345 3z m341 -74 c101&#xA;-18 225 -56 299 -93 160 -79 335 -228 424 -360 266 -395 214 -917 -125 -1256&#xA;-204 -204 -467 -310 -769 -309 -289 0 -544 105 -750 308 -142 139 -227 283&#xA;-277 465 -20 74 -23 107 -22 255 0 156 2 177 28 259 154 505 670 821 1192 731z"/>
    <path d="M7629 8700 c-111 -116 -73 -346 47 -288 58 27 94 109 94 214 0 116&#xA;-67 152 -141 74z"/>
    <path d="M8449 8657 c-63 -42 -101 -146 -85 -231 10 -54 60 -106 101 -106 78&#xA;0 145 105 145 227 0 62 -3 75 -26 102 -33 39 -85 42 -135 8z"/>
    <path d="M7920 8421 c-55 -17 -90 -43 -115 -84 -31 -54 -34 -127 -6 -173 31&#xA;-51 144 -92 169 -61 15 17 4 28 -60 60 -74 38 -86 101 -29 158 40 40 93 47&#xA;145 20 22 -11 52 -30 66 -41 30 -24 60 -18 60 13 0 29 -69 90 -117 105 -45 13&#xA;-76 14 -113 3z"/>
    <path d="M8412 8137 c-5 -6 -15 -29 -21 -49 -19 -57 -93 -133 -166 -169 -56&#xA;-27 -72 -31 -127 -27 -41 2 -83 13 -122 32 -62 29 -84 25 -71 -13 9 -29 79&#xA;-68 142 -79 64 -11 163 2 220 29 96 46 193 168 193 241 0 32 -32 55 -48 35z"/>
    <path d="M5857 8733 c-15 -15 -6 -43 16 -48 120 -26 794 -127 934 -140 64 -6&#xA;74 -5 80 10 13 36 -9 42 -447 111 -416 65 -568 83 -583 67z"/>
    <path d="M9660 8678 c-96 -16 -185 -36 -197 -44 -28 -18 -30 -41 -4 -49 18 -5&#xA;327 43 395 63 38 10 57 39 36 52 -21 13 -31 12 -230 -22z"/>
    <path d="M5461 8193 c-69 -25 -154 -114 -181 -189 l-22 -62 -36 10 c-56 16&#xA;-170 5 -220 -21 -134 -69 -201 -221 -150 -342 34 -79 131 -146 248 -170 75&#xA;-16 229 -6 312 20 l67 21 63 -25 c225 -89 466 -68 597 51 47 42 61 63 72 114&#xA;31 136 -143 265 -297 221 l-32 -9 -4 78 c-8 132 -81 242 -196 292 -62 28 -163&#xA;33 -221 11z m185 -69 c129 -54 199 -199 164 -344 -16 -69 -6 -78 53 -46 92 49&#xA;177 43 241 -17 82 -78 47 -172 -86 -232 -53 -24 -80 -29 -171 -33 -128 -5&#xA;-209 8 -293 49 l-61 30 -64 -22 c-125 -42 -323 -37 -419 11 -196 100 -113 356&#xA;121 377 49 5 65 2 107 -20 52 -27 62 -26 62 5 0 29 57 134 96 177 68 76 165&#xA;101 250 65z"/>
    <path d="M6805 8109 c-368 -87 -465 -112 -474 -123 -6 -8 -8 -21 -5 -31 9 -22&#xA;32 -18 334 51 274 63 283 66 278 97 -4 29 -31 30 -133 6z"/>
    <path d="M9468 8104 c-15 -14 -8 -33 16 -49 25 -17 356 -105 394 -105 27 0 37&#xA;21 23 48 -8 16 -47 29 -178 61 -192 46 -245 56 -255 45z"/>
    <path d="M3805 8001 c-84 -38 -145 -134 -145 -228 l0 -53 -72 6 c-118 10 -190&#xA;-20 -254 -104 -100 -130 -11 -285 173 -300 l62 -5 -34 -39 c-68 -80 -86 -164&#xA;-48 -217 69 -93 183 -96 282 -7 13 11 25 17 27 11 3 -5 18 -34 34 -62 66 -115&#xA;197 -124 274 -20 18 24 21 43 21 118 0 67 3 88 12 85 7 -3 39 -11 72 -17 54&#xA;-12 65 -11 107 7 68 28 108 81 108 143 0 65 -40 132 -100 167 l-45 27 39 41&#xA;c96 100 104 202 22 290 -38 41 -39 41 -112 41 -60 0 -83 -5 -125 -27 l-52 -26&#xA;-10 50 c-26 121 -124 170 -236 119z m118 -52 c53 -24 70 -105 46 -219 -6 -28&#xA;-9 -54 -6 -56 2 -3 33 20 68 52 76 67 129 93 187 94 54 0 77 -12 97 -50 42&#xA;-81 -11 -169 -142 -241 -73 -39 -66 -60 26 -75 54 -9 83 -20 110 -42 89 -72&#xA;49 -182 -66 -182 -44 0 -129 37 -157 69 -23 26 -56 28 -56 4 1 -10 7 -45 15&#xA;-78 43 -176 -7 -284 -110 -241 -28 12 -41 27 -60 69 -14 29 -28 76 -31 103&#xA;-10 77 -33 95 -54 44 -33 -80 -108 -150 -160 -150 -36 0 -88 35 -96 64 -8 34&#xA;23 100 84 173 29 34 52 68 52 76 0 11 -24 16 -96 20 -161 11 -222 52 -211 145&#xA;4 39 12 53 46 83 76 68 184 71 283 8 26 -17 52 -29 57 -27 6 2 2 22 -9 47 -53&#xA;118 -2 268 105 306 49 17 49 17 78 4z"/>
    <path d="M3822 7535 c-36 -30 -47 -75 -28 -120 17 -41 42 -55 95 -55 73 0 125&#xA;71 107 145 -14 55 -122 74 -174 30z m115 -51 c11 -29 -14 -64 -46 -64 -39 0&#xA;-57 23 -43 55 9 20 19 25 47 25 23 0 38 -6 42 -16z"/>
    <path d="M1575 7897 c-77 -31 -165 -107 -210 -184 -18 -31 -35 -43 -35 -25 0&#xA;19 -98 62 -140 62 -37 0 -48 -5 -79 -39 -90 -98 -181 -365 -233 -686 -20 -124&#xA;-17 -459 6 -570 47 -235 131 -413 261 -553 39 -42 63 -73 55 -70 -8 3 -55 21&#xA;-105 41 -49 19 -146 52 -213 73 l-124 39 6 60 c16 161 17 260 4 285 -16 29&#xA;-48 36 -89 19 -16 -6 -31 -10 -33 -8 -2 2 15 65 36 139 35 116 41 150 42 236&#xA;1 87 -2 105 -18 123 -30 33 -60 26 -100 -21 -20 -23 -36 -37 -36 -32 0 36 -43&#xA;261 -57 300 -23 61 -62 92 -100 78 -42 -14 -57 -56 -61 -169 -4 -106 9 -200&#xA;53 -372 12 -51 22 -93 21 -93 -1 0 -17 11 -36 25 -67 49 -120 26 -120 -53 1&#xA;-75 75 -229 188 -391 l45 -64 -34 6 c-19 4 -93 10 -164 13 -114 6 -132 5 -144&#xA;-10 -22 -26 3 -46 58 -46 80 0 261 -20 366 -41 107 -21 363 -104 585 -189 156&#xA;-60 370 -134 418 -145 19 -4 36 -13 38 -20 3 -8 -6 -85 -20 -172 -56 -351 -80&#xA;-688 -80 -1138 -1 -455 3 -603 28 -960 l6 -80 -24 55 c-82 194 -207 398 -345&#xA;562 -44 53 -90 117 -100 142 -78 181 -211 681 -211 794 l0 23 33 -24 c43 -32&#xA;90 -47 149 -47 91 0 156 48 179 133 16 61 -2 112 -60 167 l-48 45 30 20 c54&#xA;36 89 89 95 144 6 62 -10 101 -54 141 -66 57 -165 61 -236 10 -15 -11 -29 -20&#xA;-31 -20 -3 0 -7 17 -11 38 -12 81 -76 142 -155 150 -66 6 -130 -18 -170 -64&#xA;-38 -42 -45 -71 -37 -138 6 -53 6 -53 -19 -48 -62 11 -175 -42 -209 -100 -24&#xA;-40 -21 -128 7 -169 25 -38 97 -79 139 -79 15 0 28 -2 28 -4 0 -2 -9 -23 -20&#xA;-47 -27 -60 -26 -127 3 -170 32 -49 100 -82 156 -75 53 7 121 45 149 83 l20&#xA;27 12 -75 c26 -159 113 -496 155 -596 8 -19 15 -39 15 -44 0 -5 -59 39 -132&#xA;98 -174 140 -425 303 -468 303 -5 0 -19 -9 -30 -20 -25 -25 -26 -82 -5 -206&#xA;58 -335 226 -697 465 -999 91 -116 632 -649 642 -633 26 42 -10 86 -290 357&#xA;-159 153 -247 247 -312 332 -161 211 -279 425 -360 654 -56 159 -116 435 -94&#xA;435 12 0 136 -74 237 -142 103 -69 297 -230 379 -315 166 -172 313 -391 422&#xA;-631 77 -167 100 -236 126 -372 31 -161 27 -169 -30 -63 -146 272 -401 635&#xA;-629 896 -116 133 -149 163 -164 148 -13 -13 35 -80 178 -251 240 -286 459&#xA;-619 651 -987 36 -71 71 -130 77 -132 12 -4 4 246 -13 389 -42 377 -75 1078&#xA;-67 1430 9 348 46 836 78 1028 11 60 12 62 41 62 16 0 38 5 50 11 11 6 21 9&#xA;23 7 2 -2 0 -33 -5 -68 -15 -107 -48 -501 -61 -720 -38 -666 56 -2200 136&#xA;-2200 7 0 25 35 40 78 52 144 132 298 297 573 421 698 566 1049 743 1796 5 22&#xA;5 22 48 4 23 -9 104 -39 180 -66 134 -48 140 -51 174 -98 105 -143 284 -217&#xA;521 -217 l109 0 -87 -87 c-136 -138 -190 -258 -190 -425 0 -151 35 -242 129&#xA;-341 157 -165 413 -193 644 -70 80 43 200 155 261 246 22 31 41 56 42 54 2 -1&#xA;-1 -20 -6 -42 -52 -235 -119 -868 -136 -1278 l-7 -168 -19 58 c-10 32 -43 108&#xA;-74 168 -139 280 -351 500 -603 625 -147 73 -330 123 -395 106 -45 -11 -56&#xA;-32 -56 -104 0 -230 108 -536 263 -746 121 -163 212 -243 472 -416 249 -166&#xA;339 -242 445 -380 31 -42 65 -82 75 -90 17 -14 18 -12 12 40 -40 325 -50 471&#xA;-51 755 -1 301 12 501 59 925 18 158 94 633 105 649 8 13 110 -5 110 -19 0 -5&#xA;-9 -56 -20 -113 -28 -143 -86 -542 -105 -717 -19 -173 -38 -766 -30 -935 11&#xA;-250 17 -317 36 -450 24 -160 49 -195 49 -67 0 69 3 84 28 123 46 71 139 149&#xA;286 238 282 171 414 307 536 551 124 248 190 615 122 683 -35 34 -128 35 -225&#xA;3 -329 -110 -574 -352 -723 -713 l-45 -108 5 250 c8 330 36 620 91 945 33 190&#xA;84 401 99 405 6 2 44 6 84 9 l72 5 0 -45 c0 -61 42 -184 92 -269 62 -104 175&#xA;-212 275 -262 103 -52 172 -66 287 -61 77 3 101 9 159 37 188 90 297 316 255&#xA;527 -24 120 -65 215 -135 314 -18 23 -17 24 2 16 63 -25 165 -38 253 -32 257&#xA;16 442 164 482 386 21 116 -4 228 -75 333 -25 37 -45 70 -45 73 0 10 132 64&#xA;277 113 132 45 374 113 379 108 2 -1 -8 -44 -22 -96 -13 -51 -33 -141 -45&#xA;-200 -40 -206 -65 -267 -175 -427 -35 -52 -64 -101 -64 -110 0 -101 215 -115&#xA;385 -25 28 14 53 27 56 29 4 1 9 -11 12 -27 8 -41 68 -105 123 -132 36 -17 62&#xA;-21 129 -20 47 0 85 -4 85 -9 0 -18 65 -83 97 -96 100 -42 206 11 262 131 26&#xA;54 37 67 73 83 50 22 103 79 130 139 10 24 20 43 21 43 1 0 29 -11 62 -25 110&#xA;-45 237 -31 307 36 55 52 53 86 -9 141 -183 164 -201 192 -293 453 -62 177&#xA;-129 325 -171 377 l-30 38 58 26 c54 23 308 103 379 118 30 7 32 5 53 -45 153&#xA;-356 260 -992 316 -1884 l7 -100 -48 80 c-26 44 -66 105 -89 135 -104 135&#xA;-273 256 -337 242 -57 -12 -18 -174 82 -344 64 -107 236 -331 340 -441 86 -91&#xA;93 -101 99 -150 l7 -52 9 90 c15 163 -5 618 -45 1060 -41 439 -106 827 -190&#xA;1123 -116 411 -265 631 -472 693 -238 73 -455 -67 -526 -338 l-17 -68 -53 -3&#xA;c-62 -4 -62 -4 -28 96 64 188 171 322 310 388 67 32 90 37 170 42 78 4 105 1&#xA;162 -18 230 -74 403 -284 513 -625 44 -133 117 -452 155 -675 78 -453 126&#xA;-1019 126 -1490 0 -208 6 -290 19 -290 4 0 26 27 50 59 98 135 324 331 417&#xA;361 153 51 21 -152 -212 -326 -69 -51 -84 -69 -84 -100 0 -37 34 -23 126 52&#xA;188 152 282 265 291 347 7 61 -18 87 -84 87 -53 0 -147 -39 -199 -83 -18 -15&#xA;-34 -27 -37 -27 -2 0 28 64 68 143 174 338 248 603 249 892 1 205 -14 239 -98&#xA;210 -129 -45 -336 -350 -430 -635 -33 -100 -35 -103 -36 -59 0 82 -39 438 -70&#xA;649 -59 401 -112 658 -185 895 -21 66 -39 127 -42 136 -6 20 8 23 222 45 125&#xA;13 211 15 395 10 129 -4 259 -9 287 -12 44 -5 54 -3 59 11 11 27 -17 43 -96&#xA;56 -41 7 -76 13 -78 14 -1 1 16 48 38 103 66 164 81 281 44 339 -30 48 -100&#xA;41 -166 -17 l-45 -39 -6 104 c-4 83 -10 115 -28 152 -59 119 -170 119 -224 0&#xA;-32 -70 -49 -184 -42 -289 l6 -88 -47 50 c-62 67 -107 77 -151 33 -42 -43 -48&#xA;-97 -22 -224 11 -57 23 -114 26 -125 6 -20 2 -22 -62 -29 -37 -3 -85 -10 -106&#xA;-15 l-38 -8 -26 51 c-79 158 -229 319 -354 381 -248 122 -507 69 -682 -141&#xA;-65 -78 -141 -233 -164 -332 -17 -78 -19 -81 -58 -98 -107 -48 -196 -139 -272&#xA;-278 l-38 -68 -137 -28 c-75 -15 -146 -30 -158 -34 -23 -7 -47 14 -141 125&#xA;-83 98 -97 150 -42 150 42 0 109 -38 175 -98 82 -76 89 -58 27 72 -82 172&#xA;-135 361 -115 412 6 15 8 15 28 -2 22 -20 120 -166 131 -197 4 -10 13 -17 20&#xA;-15 8 3 14 40 18 114 9 147 50 295 90 320 39 23 40 -157 2 -335 -14 -69 -27&#xA;-139 -27 -156 -2 -47 26 -37 52 20 28 59 98 135 125 135 16 0 18 -5 12 -32 -4&#xA;-18 -20 -67 -36 -108 -34 -88 -37 -123 -11 -118 30 5 93 146 99 222 4 45 2 70&#xA;-7 81 -20 24 -74 18 -111 -12 l-32 -27 7 29 c4 17 9 87 13 156 5 104 3 130&#xA;-11 157 -29 56 -68 66 -114 27 -49 -41 -91 -157 -104 -288 -3 -28 -4 -28 -41&#xA;22 -47 64 -86 86 -122 69 -58 -26 -56 -128 6 -305 47 -135 47 -125 3 -102 -46&#xA;23 -121 25 -152 3 -17 -11 -22 -25 -22 -57 0 -51 36 -108 135 -215 37 -40 66&#xA;-74 64 -76 -2 -2 -42 -16 -89 -31 -47 -15 -129 -45 -182 -67 l-97 -40 -33 25&#xA;c-45 34 -164 93 -217 107 -24 6 -71 15 -105 18 l-61 7 70 39 c97 54 229 189&#xA;278 282 113 219 80 480 -78 609 -23 19 -73 49 -111 67 -64 30 -76 32 -179 33&#xA;-87 0 -125 -5 -180 -22 -92 -29 -184 -84 -262 -157 -35 -32 -63 -56 -63 -52 0&#xA;3 7 54 16 113 52 348 -86 622 -346 689 -327 83 -642 -220 -667 -643 l-6 -102&#xA;-20 37 c-53 101 -178 230 -280 291 -195 115 -397 120 -563 13 -107 -70 -198&#xA;-203 -225 -329 -16 -78 -7 -213 21 -293 41 -122 145 -261 245 -326 l29 -19&#xA;-139 -6 c-123 -5 -150 -10 -222 -37 -166 -62 -287 -181 -344 -337 -25 -67 -30&#xA;-192 -11 -257 7 -27 7 -38 0 -38 -6 0 -69 20 -140 45 -71 25 -139 45 -150 45&#xA;-19 0 -20 4 -14 48 12 89 19 269 12 305 -10 56 -33 62 -103 27 -84 -42 -221&#xA;-161 -413 -356 -232 -237 -361 -415 -485 -669 -62 -127 -129 -307 -161 -429&#xA;-9 -33 -20 -68 -25 -76 -7 -10 -8 140 -5 420 5 434 15 615 56 1000 11 102 23&#xA;211 26 244 l6 58 37 -6 c66 -10 252 -77 456 -164 200 -85 285 -108 285 -80 0&#xA;25 -32 46 -140 93 -57 25 -106 47 -108 50 -4 4 59 34 215 106 89 40 233 84&#xA;359 111 89 18 141 22 289 22 189 0 255 -10 422 -65 34 -11 79 -19 100 -17 l38&#xA;3 -50 33 c-87 57 -248 96 -448 108 l-116 7 26 51 c14 28 50 93 80 143 63 105&#xA;77 165 49 208 -19 29 -70 34 -102 10 -10 -8 -21 -15 -24 -15 -3 0 -4 35 -2 78&#xA;4 95 -17 145 -61 150 -54 6 -86 -51 -122 -210 -9 -43 -20 -78 -24 -78 -3 0&#xA;-15 7 -25 15 -33 25 -83 19 -103 -11 -15 -23 -15 -33 -5 -84 7 -32 31 -107 53&#xA;-166 22 -58 39 -108 37 -109 -2 -1 -52 -15 -113 -30 -168 -41 -368 -127 -516&#xA;-221 -25 -16 -29 -16 -100 14 -83 34 -236 82 -262 82 -34 0 -16 16 32 27 156&#xA;37 335 146 487 298 189 187 307 411 384 726 76 313 78 597 6 824 -33 104 -68&#xA;141 -130 138 -23 -1 -59 -8 -79 -17 l-37 -15 -20 39 c-30 58 -80 111 -125 131&#xA;-48 22 -171 25 -228 5 -57 -21 -143 -76 -205 -132 l-57 -51 -43 78 c-90 160&#xA;-191 240 -301 238 -31 0 -69 -6 -86 -12z m168 -84 c57 -32 126 -112 177 -206&#xA;l33 -63 -61 -80 c-65 -86 -132 -196 -171 -282 l-24 -52 -67 128 c-73 141 -130&#xA;229 -197 310 l-45 52 23 38 c33 52 108 131 144 149 76 40 122 41 188 6z m725&#xA;-107 c125 -65 201 -315 207 -681 5 -270 -23 -471 -96 -690 -85 -257 -214 -432&#xA;-405 -551 -83 -52 -220 -104 -274 -104 -33 0 -34 0 -13 15 38 27 115 138 160&#xA;232 102 214 223 683 183 708 -21 13 -31 -9 -65 -146 -80 -320 -159 -537 -238&#xA;-655 -49 -74 -123 -144 -151 -144 -49 0 -112 121 -146 278 -98 450 -12 942&#xA;232 1337 107 171 270 334 393 391 59 28 169 33 213 10z m-1207 -55 c62 -40&#xA;116 -101 190 -211 70 -104 199 -354 199 -384 0 -11 -15 -67 -34 -125 -63 -195&#xA;-77 -284 -83 -521 -5 -189 -3 -230 16 -342 12 -70 37 -172 56 -227 21 -63 29&#xA;-101 22 -101 -22 0 -143 137 -189 215 -86 144 -121 249 -165 485 -5 30 -13 45&#xA;-23 45 -12 0 -15 -16 -13 -95 4 -209 91 -427 245 -612 l40 -48 -39 18 c-258&#xA;117 -433 329 -507 613 -38 147 -50 271 -43 453 12 326 119 726 225 839 32 34&#xA;47 34 103 -2z m1530 -111 c46 -62 86 -339 75 -515 -19 -310 -167 -771 -294&#xA;-915 l-40 -45 43 89 c72 146 120 318 145 516 18 150 23 397 11 530 -11 113&#xA;-39 269 -56 312 -5 13 2 23 27 38 41 25 65 22 89 -10z m-2325 -516 c25 -78 64&#xA;-299 64 -359 l1 -40 32 36 c17 20 46 59 62 85 l30 49 3 -77 c2 -59 -4 -105&#xA;-28 -201 -25 -102 -30 -141 -28 -213 4 -106 19 -119 62 -54 14 22 34 40 43 40&#xA;14 0 15 -11 9 -97 -3 -54 -9 -119 -12 -144 l-6 -46 -52 15 c-28 8 -57 20 -65&#xA;26 -43 34 -228 356 -252 439 -14 48 21 32 99 -48 40 -41 76 -75 79 -75 12 0&#xA;-9 149 -38 275 -54 230 -69 353 -53 434 10 47 26 33 50 -45z m4989 -125 c72&#xA;-27 162 -110 203 -186 32 -61 56 -143 66 -229 9 -73 -11 -234 -41 -328 -27&#xA;-87 -106 -277 -129 -314 l-15 -22 -47 24 c-53 27 -178 66 -211 66 -28 0 -28&#xA;29 5 202 14 76 23 145 20 154 -12 32 -43 -13 -65 -94 -15 -60 -41 -207 -41&#xA;-238 0 -2 -26 -4 -57 -4 -53 0 -116 -8 -215 -26 l-37 -6 -25 83 c-36 119 -49&#xA;220 -42 319 25 356 238 618 503 620 49 0 90 -7 128 -21z m4177 -280 c43 -57&#xA;48 -153 17 -342 -17 -107 -18 -131 -7 -138 26 -17 36 -8 57 50 41 114 119 201&#xA;179 201 25 0 25 0 19 -77 -5 -77 -36 -179 -87 -286 l-22 -48 -117 7 c-64 4&#xA;-120 10 -124 14 -31 28 -59 421 -38 531 23 113 76 151 123 88z m-5290 -79&#xA;c143 -59 287 -197 381 -366 31 -55 122 -295 114 -299 -1 -1 -27 -12 -57 -24&#xA;-30 -13 -88 -44 -129 -69 l-75 -45 -40 49 c-71 86 -202 214 -219 214 -31 0&#xA;-18 -32 41 -98 31 -36 83 -96 115 -134 l59 -69 -60 -63 c-32 -35 -74 -86 -92&#xA;-114 l-33 -51 -131 66 c-212 106 -330 198 -408 317 -103 158 -105 373 -7 528&#xA;119 185 329 247 541 158z m-1184 -322 c-3 -79 -3 -148 -1 -154 2 -6 27 13 57&#xA;43 59 59 86 68 86 28 0 -32 -19 -70 -108 -213 -39 -63 -72 -117 -74 -121 -2&#xA;-5 -22 -10 -45 -13 -41 -6 -41 -6 -61 41 -23 55 -68 194 -77 238 -3 17 -2 34&#xA;4 37 12 8 66 -38 88 -75 31 -51 40 -36 46 79 6 109 23 184 51 227 33 51 39 31&#xA;34 -117z m3207 107 c197 -52 304 -232 262 -439 -21 -101 -61 -186 -124 -262&#xA;-97 -116 -219 -190 -428 -257 -60 -20 -117 -38 -125 -41 -11 -5 -20 9 -35 55&#xA;-10 34 -36 90 -57 126 l-38 65 31 37 c28 36 88 88 207 181 37 29 51 45 44 52&#xA;-25 25 -128 -36 -249 -147 l-73 -66 -87 77 c-49 43 -89 81 -91 85 -5 11 54&#xA;123 105 204 102 160 264 287 423 331 63 17 165 17 235 -1z m2980 -59 c30 -32&#xA;127 -214 140 -263 6 -21 3 -23 -33 -23 -22 0 -60 -3 -85 -6 l-45 -7 -20 69&#xA;c-46 158 -50 215 -21 251 17 20 29 16 64 -21z m-795 -110 c82 -41 133 -88 189&#xA;-172 28 -42 51 -79 51 -84 0 -4 -44 -18 -97 -30 -102 -23 -253 -72 -337 -109&#xA;l-49 -22 -81 41 c-45 22 -105 44 -134 49 -29 4 -54 10 -56 12 -2 2 5 32 15 66&#xA;37 119 136 232 237 270 24 8 67 12 122 10 69 -3 95 -8 140 -31z m-3231 -327&#xA;c275 -70 485 -280 563 -565 29 -105 32 -335 5 -433 -23 -86 -58 -170 -98 -239&#xA;-44 -73 -198 -227 -271 -271 -80 -46 -204 -87 -327 -106 -125 -20 -214 -11&#xA;-356 36 -147 49 -239 103 -330 194 -157 156 -229 334 -229 560 0 174 39 296&#xA;149 465 196 304 551 447 894 359z m2847 -104 c75 -37 167 -125 210 -200 19&#xA;-35 68 -152 110 -261 113 -298 128 -322 294 -472 43 -39 44 -41 27 -60 -37&#xA;-40 -158 -55 -234 -28 -21 7 -62 28 -90 45 -27 17 -53 31 -55 31 -3 0 -8 -26&#xA;-12 -57 -12 -101 -78 -183 -149 -183 -52 0 -65 21 -59 95 2 36 2 65 -1 65 -3&#xA;0 -17 -20 -31 -44 -36 -61 -119 -134 -195 -169 -49 -23 -83 -32 -143 -35 -102&#xA;-6 -158 14 -194 68 -23 34 -25 47 -22 109 1 39 1 71 0 71 -2 0 -25 -19 -50&#xA;-41 -26 -23 -80 -57 -119 -76 -60 -29 -88 -36 -155 -40 -60 -4 -88 -1 -100 9&#xA;-16 12 -13 18 34 78 87 111 130 218 178 438 71 330 117 439 235 557 69 70 132&#xA;109 194 121 l32 7 -54 -81 c-71 -106 -115 -237 -123 -365 -6 -90 4 -147 25&#xA;-147 10 0 12 8 30 147 19 154 93 316 180 398 l32 30 20 -25 c93 -119 183 -352&#xA;225 -585 16 -86 27 -115 44 -115 26 0 12 176 -25 321 -27 103 -93 263 -145&#xA;349 l-50 83 41 -6 c22 -3 65 -17 95 -32z m-7371 -199 c50 -21 75 -68 75 -143&#xA;0 -106 14 -116 75 -52 52 53 84 69 137 69 60 0 105 -29 114 -74 14 -76 -26&#xA;-133 -121 -171 -81 -32 -85 -55 -13 -84 112 -46 145 -111 98 -189 -51 -83&#xA;-176 -64 -280 42 -58 60 -72 59 -87 -5 -16 -67 -55 -117 -110 -141 -55 -24&#xA;-94 -17 -128 24 -43 51 -28 113 50 204 29 34 41 55 34 59 -6 4 -37 4 -70 1&#xA;-32 -4 -75 -4 -94 0 -50 9 -95 54 -95 94 0 108 133 159 248 94 28 -16 53 -26&#xA;56 -23 3 2 -11 35 -30 73 -55 110 -44 189 30 222 40 17 69 17 111 0z m3280&#xA;-16 c86 -27 182 -71 214 -97 l23 -19 -20 -40 c-18 -36 -53 -142 -66 -205 l-6&#xA;-27 -147 5 c-149 4 -181 -1 -170 -30 4 -11 31 -16 104 -21 54 -4 122 -9 151&#xA;-13 l52 -5 0 -77 c1 -42 7 -112 15 -156 8 -44 15 -81 15 -83 1 -11 -151 -67&#xA;-225 -83 -326 -68 -628 66 -699 310 -68 233 106 486 380 556 87 22 287 14 379&#xA;-15z m-1178 -258 c-19 -278 -126 -707 -272 -1087 -120 -311 -256 -577 -493&#xA;-964 -117 -190 -248 -432 -267 -491 -16 -53 -17 17 0 137 63 464 202 862 533&#xA;1527 146 293 167 342 151 352 -18 10 -31 -10 -159 -249 -267 -499 -450 -951&#xA;-533 -1324 l-23 -102 -23 223 c-28 261 -26 354 14 531 81 365 213 647 449 960&#xA;139 184 560 581 620 584 5 1 6 -41 3 -97z m3560 23 c147 -46 266 -146 327&#xA;-275 28 -58 31 -75 31 -160 0 -88 -3 -101 -33 -162 -99 -202 -337 -282 -622&#xA;-208 -81 21 -207 79 -259 119 l-24 18 31 74 c16 41 37 108 46 149 l17 75 97&#xA;-7 c53 -3 119 -11 147 -18 55 -12 95 -7 95 14 0 27 -163 66 -270 66 l-57 0 -7&#xA;113 c-14 203 -20 178 49 199 143 45 298 46 432 3z m3411 -622 c-6 -197 -26&#xA;-307 -95 -517 -61 -183 -245 -558 -313 -636 l-21 -25 6 35 c11 59 103 372 181&#xA;619 41 129 76 248 77 265 3 51 -16 45 -45 -14 -29 -59 -205 -581 -233 -690 -9&#xA;-36 -21 -69 -26 -74 -5 -6 -7 68 -6 185 l4 194 41 135 c68 226 132 360 247&#xA;515 55 75 156 175 176 175 8 0 10 -43 7 -167z m-5567 -47 c17 -35 55 -96 84&#xA;-135 l53 -70 -71 -78 c-86 -93 -147 -175 -147 -196 0 -39 26 -26 83 39 34 38&#xA;89 96 122 130 l62 61 54 -40 c47 -35 106 -65 226 -118 l32 -14 -33 -71 c-100&#xA;-215 -260 -376 -433 -435 -55 -20 -88 -24 -178 -24 -103 0 -114 2 -175 31 -82&#xA;40 -136 87 -177 155 -148 248 -21 566 300 754 38 22 151 73 164 75 2 0 17 -29&#xA;34 -64z m1605 -95 c120 -69 228 -201 279 -341 99 -276 -34 -542 -295 -590 -73&#xA;-13 -196 7 -271 45 -191 97 -333 297 -351 494 l-3 34 77 22 c42 12 112 39 155&#xA;59 l78 37 28 -33 c16 -18 50 -67 78 -108 73 -112 79 -120 90 -120 39 0 7 85&#xA;-83 217 l-58 84 58 54 c32 29 78 81 102 114 25 34 49 61 55 61 5 0 33 -13 61&#xA;-29z m2280 -12 c19 -11 34 -23 34 -26 0 -21 -59 -107 -85 -123 -58 -36 -138&#xA;-21 -165 30 -9 17 -3 23 47 49 32 17 74 44 93 60 19 17 37 31 39 31 2 0 19 -9&#xA;37 -21z m599 -341 c127 -84 227 -204 299 -360 51 -110 73 -175 81 -243 l6 -50&#xA;-50 53 c-69 72 -249 312 -301 401 -39 67 -100 203 -100 222 0 15 15 10 65 -23z&#xA;m-5065 -830 c185 -60 406 -205 526 -347 180 -210 284 -426 338 -706 14 -71 28&#xA;-141 31 -155 3 -14 -13 8 -35 49 -81 148 -212 333 -352 498 -124 147 -278 277&#xA;-301 254 -7 -7 14 -36 75 -98 312 -322 557 -676 602 -866 6 -25 -2 -21 -84 47&#xA;-49 42 -184 138 -298 215 -117 79 -242 172 -288 215 -160 148 -273 329 -348&#xA;556 -55 164 -83 363 -54 372 20 7 118 -11 188 -34z m2082 -30 c31 -55 4 -241&#xA;-63 -434 -65 -189 -142 -323 -259 -448 -77 -82 -130 -122 -325 -246 -88 -56&#xA;-177 -118 -199 -138 -35 -34 -38 -35 -31 -12 16 53 90 209 147 310 56 100 119&#xA;192 311 453 48 65 87 125 87 133 0 57 -104 -52 -276 -290 -136 -188 -260 -401&#xA;-300 -515 l-24 -66 0 111 c0 201 45 378 145 572 131 253 310 429 541 533 136&#xA;61 225 74 246 37z"/>
    <path d="M4742 5590 c-36 -22 -47 -42 -38 -65 5 -13 13 -12 58 6 51 20 86 21&#xA;146 3 17 -5 22 -2 22 13 0 56 -123 84 -188 43z"/>
    <path d="M5482 5529 c-15 -5 -22 -16 -20 -26 2 -14 17 -19 61 -24 65 -7 99&#xA;-32 122 -86 20 -46 55 -46 55 0 0 91 -129 172 -218 136z"/>
    <path d="M4773 5265 c-52 -37 -82 -226 -46 -295 21 -40 48 -48 91 -26 53 27&#xA;81 129 67 241 -10 85 -57 118 -112 80z"/>
    <path d="M5418 5205 c-35 -35 -57 -84 -70 -154 -12 -66 -7 -96 23 -134 30 -39&#xA;79 -37 113 4 43 51 59 98 60 176 0 58 -4 78 -20 100 -29 39 -72 42 -106 8z"/>
    <path d="M4970 4938 c-23 -15 -36 -33 -38 -51 -4 -33 14 -35 60 -7 48 29 86&#xA;26 124 -11 59 -57 90 -9 35 53 -24 27 -36 32 -87 36 -50 3 -65 0 -94 -20z"/>
    <path d="M4751 4731 c-46 -46 -34 -146 26 -212 98 -109 318 -149 478 -89 115&#xA;44 216 179 183 246 -7 16 -25 35 -40 44 -26 14 -33 13 -110 -15 -146 -51 -312&#xA;-44 -438 20 -59 30 -74 31 -99 6z m105 -76 c96 -46 223 -57 377 -33 97 15 109&#xA;7 82 -53 -37 -82 -144 -120 -282 -99 -157 24 -243 90 -243 186 0 30 1 30 66&#xA;-1z"/>
    <path d="M739 5227 c-67 -45 -78 -110 -26 -162 57 -57 135 -59 188 -5 55 54&#xA;30 144 -47 176 -47 20 -76 17 -115 -9z m112 -68 c26 -26 21 -49 -14 -69 -24&#xA;-13 -30 -13 -54 0 -33 18 -41 51 -18 74 23 22 61 20 86 -5z"/>
    <path d="M6753 7481 c-394 -263 -487 -332 -491 -359 -7 -44 42 -24 194 79 298&#xA;202 588 405 616 431 15 14 28 31 28 37 0 35 -69 -2 -347 -188z"/>
    <path d="M9223 7604 c-3 -9 4 -25 18 -39 45 -45 513 -383 535 -388 32 -6 52 8&#xA;39 28 -36 54 -531 415 -570 415 -8 0 -18 -7 -22 -16z"/>
    <path d="M7358 7298 c-96 -132 -376 -536 -402 -581 -30 -50 -29 -77 3 -77 14&#xA;0 47 41 117 143 53 78 150 217 215 308 153 216 165 235 149 254 -21 25 -34 17&#xA;-82 -47z"/>
    <path d="M8850 7287 c0 -20 295 -500 347 -566 24 -29 53 -23 53 12 0 13 -24&#xA;63 -53 113 -73 124 -259 403 -290 437 -32 33 -57 35 -57 4z"/>
    <path d="M7861 7152 c-17 -32 -131 -495 -131 -533 0 -25 28 -36 46 -18 14 15&#xA;91 309 119 457 12 65 13 87 4 98 -15 19 -26 18 -38 -4z"/>
    <path d="M8373 7134 c-6 -16 42 -423 58 -486 12 -46 28 -57 46 -32 11 15 13&#xA;38 9 99 -8 108 -46 385 -57 413 -10 26 -47 30 -56 6z"/>
    <path d="M9537 5348 c-16 -34 -47 -182 -47 -224 0 -31 28 -43 45 -20 16 21 59&#xA;251 50 265 -12 20 -33 11 -48 -21z"/>
    <path d="M9713 5257 c-61 -66 -97 -126 -91 -154 6 -33 27 -22 74 39 27 35 66&#xA;82 87 105 41 44 44 73 8 73 -10 0 -45 -28 -78 -63z"/>
    <path d="M2091 5173 c-52 -36 -121 -238 -81 -238 16 0 107 175 117 226 6 33&#xA;-2 36 -36 12z"/>
    <path d="M1221 4511 c-17 -11 -40 -127 -41 -207 0 -46 5 -68 19 -85 11 -13 22&#xA;-21 26 -17 10 9 38 286 31 304 -6 16 -15 17 -35 5z"/>
    <path d="M3159 4275 c-29 -16 -59 -70 -59 -107 0 -34 -9 -39 -34 -23 -66 43&#xA;-188 19 -220 -44 -33 -63 -11 -148 49 -187 l26 -17 -26 -27 c-80 -83 -30 -210&#xA;83 -210 26 0 60 7 76 15 16 9 31 14 33 11 2 -2 -3 -64 -12 -137 -25 -211 -27&#xA;-243 -16 -258 8 -12 12 -12 25 -2 18 15 22 32 41 191 9 69 18 135 20 148 l5&#xA;22 38 -25 c68 -46 161 -25 197 46 16 30 16 47 0 112 -6 24 -3 27 36 37 83 23&#xA;123 96 93 170 -22 55 -67 85 -125 85 l-47 0 1 60 c1 71 -20 118 -63 140 -36&#xA;19 -87 19 -121 0z m107 -66 c28 -31 22 -91 -15 -171 -49 -105 -38 -132 31 -74&#xA;44 38 98 59 126 49 33 -12 52 -36 52 -68 0 -59 -53 -79 -156 -60 -38 7 -70 12&#xA;-72 10 -2 -1 15 -24 38 -50 75 -87 87 -130 44 -164 -68 -54 -134 -7 -134 96 0&#xA;107 -23 119 -74 40 -18 -30 -46 -63 -61 -75 -33 -26 -81 -28 -107 -5 -42 38&#xA;-9 94 92 159 33 22 60 42 60 47 0 4 -25 7 -55 7 -31 0 -71 7 -90 14 -66 28&#xA;-73 105 -11 131 47 20 96 4 136 -43 17 -20 41 -48 53 -61 l22 -24 6 106 c7&#xA;122 22 157 68 157 16 0 36 -9 47 -21z"/>
    <path d="M6822 4170 c-43 -26 -71 -89 -72 -158 l0 -54 -32 8 c-93 21 -177 -19&#xA;-207 -99 -15 -39 1 -103 36 -139 32 -34 77 -60 87 -51 3 4 6 2 6 -4 0 -6 -7&#xA;-16 -15 -23 -45 -37 -40 -133 10 -180 32 -30 107 -38 159 -16 49 20 56 20 56&#xA;-2 0 -28 57 -90 96 -102 97 -32 184 47 184 168 0 31 1 32 43 32 95 0 177 78&#xA;163 155 -7 37 -51 81 -92 91 -13 3 -24 8 -24 10 0 2 18 20 39 40 47 42 65 90&#xA;58 152 -11 101 -130 138 -248 76 -26 -13 -27 -12 -33 20 -16 82 -134 124 -214&#xA;76z m113 -46 c27 -11 45 -60 46 -126 1 -106 9 -111 58 -44 46 61 87 86 143 86&#xA;77 0 104 -68 52 -129 -31 -37 -49 -47 -131 -76 l-63 -22 -19 33 c-14 24 -29&#xA;35 -55 40 -33 6 -88 0 -121 -12 -32 -13 -48 162 -20 216 8 15 20 30 27 33 19&#xA;8 64 8 83 1z m-178 -249 l51 -34 -19 -38 c-10 -20 -19 -42 -19 -49 0 -12 -52&#xA;-24 -105 -24 -91 0 -132 116 -57 163 44 27 91 21 149 -18z m204 -65 c41 -22&#xA;11 -92 -46 -106 -33 -8 -75 19 -75 49 0 52 69 84 121 57z m141 -31 c65 -14&#xA;148 -50 166 -72 19 -23 6 -55 -31 -78 -43 -26 -88 -24 -147 6 -84 43 -100 30&#xA;-52 -39 21 -30 27 -50 26 -86 -3 -86 -44 -123 -108 -96 -38 16 -56 55 -56 121&#xA;0 83 9 103 57 126 43 21 83 76 83 114 0 18 -4 18 62 4z m-308 -84 c9 -14 33&#xA;-33 51 -42 19 -9 35 -20 35 -23 0 -4 -14 -26 -30 -49 -58 -80 -130 -102 -176&#xA;-56 -31 31 -26 52 25 113 20 24 42 53 50 63 18 25 25 24 45 -6z"/>
    <path d="M7633 3933 c-21 -51 -23 -148 -3 -148 10 0 20 21 32 62 32 120 32&#xA;123 8 123 -15 0 -26 -11 -37 -37z"/>
    <path d="M8134 3911 c-74 -34 -107 -108 -97 -217 l6 -64 -33 16 c-78 39 -258&#xA;-11 -307 -85 -32 -48 -32 -135 0 -182 29 -44 92 -78 156 -86 28 -3 51 -7 51&#xA;-10 0 -2 -17 -29 -37 -60 -35 -52 -38 -62 -38 -128 0 -63 3 -76 29 -109 82&#xA;-108 222 -112 335 -10 29 26 53 45 55 43 5 -6 78 -334 97 -439 10 -52 18 -115&#xA;19 -140 l0 -45 -40 61 c-43 67 -121 144 -144 144 -28 0 -27 -21 3 -55 76 -87&#xA;172 -249 186 -315 8 -37 22 -60 36 -60 4 0 18 33 29 73 52 179 118 325 170&#xA;372 28 25 26 55 -3 55 -12 0 -32 -7 -44 -15 -30 -21 -83 -107 -108 -177 l-22&#xA;-61 -7 54 c-7 56 -59 315 -95 476 -29 128 -28 134 12 96 53 -51 114 -76 183&#xA;-77 110 0 174 61 174 166 0 67 -21 117 -69 162 -17 17 -31 32 -31 36 0 3 20&#xA;11 45 18 52 14 122 73 142 119 32 78 7 166 -61 212 -84 57 -151 65 -234 26&#xA;-30 -14 -58 -25 -63 -25 -5 0 -9 15 -9 33 0 155 -150 259 -286 198z m173 -82&#xA;c53 -49 67 -131 38 -225 -28 -91 -24 -92 81 -15 113 82 201 91 270 28 65 -60&#xA;50 -143 -35 -186 -47 -24 -175 -61 -212 -61 -24 0 -28 5 -34 39 -15 89 -133&#xA;136 -231 92 -51 -23 -82 -65 -86 -116 -4 -47 -17 -52 -133 -54 -94 -1 -142 14&#xA;-187 59 -30 30 -38 45 -38 75 0 55 56 108 131 125 76 17 120 7 174 -40 43 -38&#xA;89 -59 101 -47 3 3 -4 24 -16 47 -25 48 -40 156 -30 212 8 44 51 95 84 100 39&#xA;6 97 -9 123 -33z m28 -394 c32 -32 31 -50 -4 -86 -24 -23 -38 -29 -74 -29 -77&#xA;0 -125 62 -79 103 47 43 121 49 157 12z m176 -139 c71 -36 117 -86 126 -139 8&#xA;-53 -4 -85 -40 -107 -92 -56 -238 12 -293 138 -35 76 -47 69 -73 -43 -16 -67&#xA;-52 -119 -103 -148 -65 -37 -100 -42 -152 -19 -77 35 -106 114 -68 188 26 50&#xA;52 74 132 119 51 29 68 34 80 26 38 -28 99 -51 138 -51 47 0 116 30 133 59 15&#xA;23 39 18 120 -23z"/>
    <path d="M8943 3442 c-32 -5 -53 -39 -53 -85 0 -45 15 -77 35 -77 10 0 15 15&#xA;17 53 3 49 5 52 28 50 16 -2 45 -25 82 -64 39 -42 61 -60 72 -56 25 10 19 31&#xA;-23 85 -60 75 -106 102 -158 94z"/>
    <path d="M4300 3367 c0 -23 135 -212 154 -215 16 -3 18 0 12 25 -9 32 -66 130&#xA;-103 173 -25 30 -63 41 -63 17z"/>
    <path d="M6370 3357 c-14 -7 -36 -33 -50 -57 -22 -40 -25 -55 -23 -143 l1 -98&#xA;-21 15 c-12 9 -31 23 -43 31 -11 8 -34 18 -51 21 -26 5 -37 1 -57 -19 -47 -47&#xA;-29 -125 45 -196 42 -40 75 -58 86 -47 3 3 -15 34 -40 69 -25 35 -49 76 -52&#xA;90 -18 70 37 51 135 -48 68 -68 100 -90 100 -67 0 5 -10 44 -21 88 -29 106&#xA;-31 248 -6 288 23 34 37 30 62 -20 15 -32 20 -66 23 -187 4 -139 6 -148 24&#xA;-145 13 2 29 28 53 83 37 84 89 145 108 126 12 -12 -2 -67 -40 -153 -26 -58&#xA;-25 -88 1 -88 19 0 43 38 72 116 42 112 27 184 -38 184 -26 0 -108 -53 -108&#xA;-70 0 -6 -4 -10 -9 -10 -4 0 -11 33 -13 73 -6 84 -33 147 -73 165 -32 15 -34&#xA;15 -65 -1z"/>
    <path d="M2547 3340 c-14 -11 -31 -37 -38 -57 -20 -61 -1 -251 38 -378 4 -13&#xA;-11 -4 -45 28 -82 75 -134 86 -183 38 -24 -24 -29 -38 -29 -78 0 -57 39 -146&#xA;106 -239 53 -75 82 -98 101 -82 20 17 16 28 -37 98 -91 120 -132 229 -96 259&#xA;40 33 143 -77 242 -256 28 -50 64 -72 64 -39 0 8 -18 92 -41 187 -67 287 -83&#xA;404 -59 450 15 26 32 24 62 -8 32 -35 39 -49 77 -155 34 -98 57 -220 66 -348&#xA;6 -82 21 -120 42 -107 6 4 13 53 16 109 7 110 35 239 66 298 22 42 54 51 72&#xA;19 16 -31 5 -206 -20 -324 -13 -63 -16 -94 -9 -102 17 -21 25 -16 53 35 61&#xA;104 132 172 183 172 19 0 22 -5 22 -36 0 -20 -13 -66 -30 -104 -34 -78 -37&#xA;-100 -12 -100 35 0 102 136 102 209 0 54 -31 91 -76 91 -43 0 -105 -31 -133&#xA;-65 l-20 -26 6 103 c9 160 -22 228 -102 228 -40 0 -86 -47 -105 -107 -20 -61&#xA;-22 -60 -46 26 -42 142 -102 243 -160 267 -43 18 -46 18 -77 -6z"/>
    <path d="M414 3289 c-4 -7 35 -52 92 -108 108 -105 138 -151 189 -295 18 -49&#xA;38 -92 45 -94 20 -7 6 131 -19 199 -61 161 -267 362 -307 298z"/>
    <path d="M7508 3260 c-41 -12 -118 -69 -130 -96 -18 -39 5 -54 39 -26 16 12&#xA;55 38 88 59 63 39 77 52 69 65 -6 10 -30 9 -66 -2z"/>
    <path d="M9743 3247 c-18 -7 -37 -17 -43 -23 -16 -16 -1 -44 25 -44 27 0 136&#xA;37 150 51 27 27 -70 38 -132 16z"/>
    <path d="M9225 3015 c-99 -40 -152 -121 -143 -217 2 -21 3 -38 2 -38 -1 0 -18&#xA;7 -37 15 -107 45 -237 -17 -254 -119 -14 -90 45 -157 181 -206 l29 -11 -32&#xA;-24 c-96 -70 -128 -182 -75 -262 50 -76 144 -104 229 -69 19 8 35 11 35 7 0&#xA;-5 -18 -68 -41 -141 -22 -72 -55 -189 -72 -260 l-33 -128 -28 82 c-73 208&#xA;-188 325 -320 326 -69 0 -123 -19 -153 -54 -21 -26 -24 -37 -20 -79 10 -114&#xA;187 -293 414 -422 l71 -40 4 -113 c3 -98 6 -116 22 -127 14 -11 24 -11 38 -4&#xA;11 6 94 39 186 74 235 89 342 137 421 190 207 137 256 316 94 341 -108 16&#xA;-223 -13 -351 -87 -81 -48 -270 -239 -310 -314 l-31 -60 -1 50 c0 66 24 228&#xA;49 335 16 70 107 385 127 440 3 10 11 1 23 -25 47 -104 174 -153 277 -106 69&#xA;31 111 106 101 180 l-4 36 87 0 c80 0 89 2 124 29 108 82 80 235 -54 294 l-56&#xA;25 52 51 c59 58 74 102 55 166 -37 126 -187 169 -303 88 l-28 -19 0 23 c0 81&#xA;-62 167 -135 187 -56 15 -72 14 -140 -14z m153 -61 c40 -28 52 -66 52 -169 0&#xA;-116 10 -121 88 -41 36 37 65 57 92 64 129 32 211 -82 126 -175 -19 -21 -61&#xA;-54 -95 -73 -64 -37 -79 -66 -38 -74 165 -32 210 -55 228 -115 15 -49 -6 -92&#xA;-57 -116 -66 -31 -141 -8 -232 71 -28 25 -56 42 -62 39 -6 -4 8 -40 36 -92 52&#xA;-94 59 -145 30 -200 -17 -33 -69 -63 -110 -63 -40 0 -99 34 -119 69 -24 42&#xA;-33 128 -18 187 9 35 9 50 0 58 -8 8 -14 6 -23 -8 -70 -117 -119 -160 -196&#xA;-174 -63 -12 -107 2 -130 41 -11 18 -20 43 -20 57 0 50 78 137 163 182 31 17&#xA;57 34 57 39 0 8 -24 16 -125 40 -69 17 -118 43 -149 79 -33 40 -33 74 0 105&#xA;69 64 139 53 256 -39 21 -16 41 -26 45 -23 4 4 -1 40 -10 80 -33 138 -16 206&#xA;60 246 46 24 120 27 151 5z m-643 -1063 c57 -25 112 -91 156 -185 41 -89 87&#xA;-232 77 -242 -19 -18 -269 162 -331 238 -91 112 -108 162 -65 192 30 22 113&#xA;20 163 -3z m1030 -224 c58 -43 -74 -188 -255 -281 -77 -40 -381 -156 -408&#xA;-156 -16 0 41 93 105 172 96 117 257 232 371 263 63 18 163 18 187 2z"/>
    <path d="M9310 2620 c-19 -5 -49 -24 -67 -44 -27 -29 -33 -44 -33 -78 0 -86&#xA;62 -142 155 -141 63 0 107 22 134 66 27 44 27 86 -2 127 -40 60 -114 88 -187&#xA;70z m97 -67 c40 -19 54 -47 41 -84 -18 -52 -111 -67 -153 -24 -31 30 -32 65&#xA;-2 92 40 36 64 40 114 16z"/>
    <path d="M7071 2949 c-79 -23 -158 -97 -180 -168 -6 -21 -11 -68 -11 -104 l0&#xA;-66 -56 34 c-130 79 -321 73 -415 -12 -80 -72 -104 -159 -69 -242 27 -61 63&#xA;-94 130 -118 28 -10 50 -20 50 -23 0 -3 -22 -13 -48 -22 -160 -57 -281 -207&#xA;-258 -320 8 -43 43 -92 80 -113 66 -40 213 -28 318 26 21 11 38 18 38 17 0 -2&#xA;-9 -27 -20 -56 -24 -64 -25 -89 -4 -144 45 -117 161 -165 290 -121 73 25 163&#xA;118 195 203 21 58 24 62 27 35 5 -48 61 -381 82 -490 19 -97 52 -342 65 -475&#xA;l5 -65 -32 80 c-91 221 -274 403 -430 430 -29 6 -40 3 -57 -14 -56 -56 12&#xA;-290 129 -441 62 -80 430 -440 450 -440 72 0 515 414 633 591 130 196 206 410&#xA;210 589 l2 95 -50 -1 c-107 -1 -288 -100 -427 -233 -150 -143 -266 -331 -334&#xA;-541 -15 -47 -30 -92 -33 -100 -3 -8 -6 3 -8 25 -16 227 -40 389 -103 722 -40&#xA;206 -40 204 10 160 57 -52 116 -79 186 -85 128 -10 216 57 238 181 9 50 -14&#xA;131 -54 185 -35 49 -37 57 -9 42 46 -25 128 -43 196 -43 59 0 81 5 129 29 83&#xA;42 117 88 122 168 8 130 -77 213 -242 236 -50 7 -51 7 -23 18 173 72 238 257&#xA;130 366 -107 107 -358 77 -479 -56 -18 -21 -36 -38 -38 -38 -1 0 -6 34 -9 75&#xA;-4 44 -15 92 -27 114 -24 48 -83 98 -130 111 -43 12 -124 11 -169 -1z m179&#xA;-74 c97 -50 120 -203 53 -357 l-16 -38 -71 0 c-39 0 -98 -7 -131 -15 -33 -8&#xA;-65 -14 -71 -15 -10 0 -41 68 -64 144 -18 56 -8 156 20 201 54 88 189 126 280&#xA;80z m583 -146 c78 -40 102 -102 67 -174 -40 -82 -145 -146 -307 -187 -74 -19&#xA;-87 -20 -91 -8 -11 31 -61 69 -114 85 l-56 18 41 50 c116 138 158 174 246 208&#xA;53 21 180 25 214 8z m-1128 -103 c28 -7 66 -21 85 -31 42 -22 160 -138 160&#xA;-157 0 -8 -23 -25 -51 -38 -52 -25 -102 -73 -114 -109 -3 -12 -9 -21 -13 -21&#xA;-4 0 -67 11 -140 24 -144 27 -191 48 -223 100 -49 80 5 195 107 231 50 18 125&#xA;18 189 1z m672 -244 c81 -42 91 -90 32 -156 -71 -81 -183 -120 -344 -120 -126&#xA;0 -174 13 -210 55 -69 83 15 180 196 229 104 28 265 24 326 -8z m482 -91 c89&#xA;-27 141 -89 141 -167 0 -69 -92 -134 -191 -134 -85 0 -270 68 -362 132 l-28&#xA;20 40 43 c21 23 42 56 46 73 3 18 15 34 25 37 70 22 251 20 329 -4z m-1089&#xA;-87 c0 -32 15 -61 52 -100 l29 -31 -107 -82 c-183 -139 -303 -183 -397 -147&#xA;-68 26 -87 97 -48 175 48 92 205 175 384 201 86 13 87 12 87 -16z m818 -335&#xA;c74 -153 -38 -287 -196 -235 -103 34 -175 127 -212 272 -28 109 -27 132 8 139&#xA;52 11 137 37 162 51 24 13 28 11 121 -84 52 -54 105 -119 117 -143z m-547 171&#xA;l59 0 0 -55 c0 -75 -27 -199 -56 -261 -13 -29 -45 -71 -70 -94 -78 -72 -142&#xA;-86 -222 -50 -34 15 -47 29 -63 66 -18 40 -19 52 -9 91 18 75 56 138 137 229&#xA;l77 86 44 -6 c25 -3 71 -6 103 -6z m1103 -512 c-45 -269 -126 -453 -287 -653&#xA;-91 -113 -427 -435 -427 -410 0 14 177 341 231 426 28 46 96 144 150 218 93&#xA;126 116 171 87 171 -22 0 -122 -115 -208 -239 -104 -149 -218 -346 -268 -465&#xA;-36 -86 -37 -87 -40 -51 -8 89 62 324 145 489 131 262 299 428 525 517 94 37&#xA;99 37 92 -3z m-1242 -384 c112 -57 224 -193 304 -372 38 -85 93 -276 83 -287&#xA;-10 -9 -322 306 -359 363 -66 100 -120 238 -120 304 0 26 31 23 92 -8z"/>
    <path d="M300 2931 c0 -11 27 -41 68 -73 37 -30 87 -83 112 -118 25 -34 52&#xA;-72 62 -84 l16 -21 7 26 c14 54 -77 194 -169 261 -46 33 -96 38 -96 9z"/>
    <path d="M2101 2657 c-34 -17 -101 -133 -101 -174 0 -27 4 -33 20 -33 16 0 31&#xA;21 66 94 51 104 54 133 15 113z"/>
    <path d="M975 2532 c-67 -43 -104 -118 -112 -228 l-6 -74 -35 31 c-48 43 -149&#xA;89 -193 89 -55 0 -155 -55 -186 -101 -30 -46 -41 -120 -24 -172 15 -45 73&#xA;-102 135 -134 l49 -25 -57 -23 c-137 -56 -206 -158 -177 -263 28 -101 126&#xA;-156 241 -134 34 6 75 18 92 26 30 15 30 15 23 -7 -14 -46 -17 -126 -5 -161&#xA;14 -44 58 -82 112 -97 33 -9 49 -8 84 6 39 15 94 65 120 111 9 16 12 4 18 -61&#xA;20 -225 66 -664 72 -679 3 -9 4 -16 1 -16 -2 0 -30 51 -60 113 -163 331 -414&#xA;526 -665 518 -54 -2 -60 -33 -27 -133 58 -176 145 -318 270 -444 87 -88 143&#xA;-128 310 -224 61 -34 128 -76 149 -91 22 -16 46 -29 53 -29 26 0 252 182 343&#xA;276 203 210 343 461 316 567 -13 55 -113 46 -254 -24 -150 -73 -279 -221 -354&#xA;-401 l-33 -82 -3 55 c-2 30 -16 175 -32 322 -17 148 -30 275 -30 284 0 11 8 9&#xA;32 -9 25 -17 50 -24 103 -26 60 -3 75 0 105 20 69 46 89 140 50 238 -11 27&#xA;-19 50 -17 50 1 0 20 -7 42 -15 108 -39 233 4 281 96 28 56 12 135 -42 206&#xA;-29 38 -110 83 -151 83 l-28 0 30 18 c45 28 101 94 115 136 21 64 6 120 -48&#xA;176 -91 93 -219 93 -326 -1 l-35 -30 6 73 c4 63 1 79 -19 117 -33 64 -66 84&#xA;-141 89 -48 2 -69 -1 -92 -16z m129 -52 c34 -13 66 -66 66 -111 0 -53 -30&#xA;-218 -49 -269 l-17 -45 -71 0 c-67 0 -73 2 -84 25 -17 35 -24 245 -10 296 25&#xA;91 90 133 165 104z m403 -196 c37 -18 73 -70 73 -106 0 -31 -50 -109 -86 -135&#xA;-45 -31 -112 -64 -186 -89 l-68 -23 -21 37 c-11 20 -27 49 -36 63 -16 25 -15&#xA;29 10 80 35 72 107 152 159 178 48 24 96 22 155 -5z m-766 -40 c41 -28 134&#xA;-133 160 -181 10 -19 8 -27 -20 -58 -17 -20 -31 -43 -31 -51 0 -36 -211 15&#xA;-303 73 -67 42 -92 105 -63 161 46 90 167 116 257 56z m384 -265 c16 -8 36&#xA;-26 45 -42 14 -25 13 -30 -10 -75 -56 -106 -199 -120 -251 -25 -29 53 -10 103&#xA;56 145 35 22 111 21 160 -3z m443 -99 c48 -27 92 -91 92 -132 0 -31 -32 -73&#xA;-70 -93 -39 -20 -116 -19 -181 2 -58 19 -205 112 -202 128 1 6 9 28 17 50 13&#xA;37 19 41 72 57 87 26 215 20 272 -12z m-732 -7 c2 -10 18 -44 34 -75 l29 -57&#xA;-57 -51 c-31 -28 -91 -68 -131 -88 -65 -32 -85 -37 -144 -37 -66 0 -70 1 -103&#xA;37 -27 30 -34 46 -34 79 0 82 72 139 226 178 141 35 173 38 180 14z m395 -179&#xA;c134 -162 161 -256 92 -320 -33 -31 -94 -32 -141 -4 -58 35 -102 163 -102 289&#xA;1 56 1 56 43 77 23 12 45 22 48 23 3 0 30 -28 60 -65z m-238 19 l27 -6 -5 -76&#xA;c-3 -42 -8 -98 -11 -126 -16 -149 -127 -234 -205 -156 -54 54 -35 132 68 284&#xA;49 71 71 96 82 92 9 -4 28 -9 44 -12z m-376 -573 c156 -77 304 -243 403 -453&#xA;51 -107 105 -267 90 -267 -5 0 -11 4 -14 9 -3 5 -43 31 -89 57 -319 185 -473&#xA;357 -568 633 -11 30 -19 59 -19 64 0 23 116 -2 197 -43z m1138 -27 c-30 -160&#xA;-201 -395 -427 -586 -63 -53 -119 -97 -123 -97 -12 0 3 118 25 194 52 184 177&#xA;361 316 448 44 28 168 77 198 77 16 1 17 -4 11 -36z"/>
    <path d="M5961 2493 c-57 -58 -123 -198 -156 -332 l-18 -74 -21 52 c-38 94&#xA;-87 123 -137 82 -22 -17 -24 -27 -23 -98 0 -62 5 -89 26 -135 28 -60 64 -91&#xA;74 -64 3 8 -4 43 -16 78 -27 77 -32 173 -10 173 22 0 61 -89 73 -165 24 -155&#xA;31 -175 56 -175 19 0 33 14 65 70 24 40 80 108 133 163 64 64 88 94 79 98 -37&#xA;14 -168 -87 -225 -173 -17 -25 -31 -45 -31 -42 0 2 9 51 20 109 35 181 88 314&#xA;156 390 38 42 40 70 4 70 -12 0 -34 -12 -49 -27z"/>
    <path d="M3215 2391 c-80 -20 -165 -100 -206 -195 -13 -31 -26 -56 -29 -56 -3&#xA;0 -13 18 -24 39 -62 130 -194 197 -322 162 -62 -17 -131 -68 -162 -120 -23&#xA;-39 -27 -57 -27 -117 1 -59 6 -82 31 -133 17 -33 29 -61 27 -61 -2 0 -22 9&#xA;-43 20 -99 50 -249 62 -336 25 -118 -49 -190 -169 -170 -281 17 -87 132 -158&#xA;277 -172 l84 -7 -49 -25 c-110 -55 -216 -185 -216 -265 0 -84 51 -163 128&#xA;-197 50 -22 137 -25 204 -8 77 21 181 83 248 147 35 35 64 63 65 63 0 0 0 -35&#xA;0 -78 1 -106 25 -173 85 -233 48 -48 119 -79 180 -79 24 0 28 -5 34 -42 3 -24&#xA;9 -147 13 -275 5 -181 9 -233 20 -237 22 -9 41 4 63 41 41 70 183 233 250 288&#xA;38 31 108 76 154 101 89 45 193 81 204 69 19 -19 -52 -111 -195 -252 -109&#xA;-107 -151 -156 -147 -167 17 -43 77 -3 224 151 109 113 162 190 185 266 16 55&#xA;7 71 -39 69 -95 -4 -225 -54 -340 -131 -103 -70 -137 -101 -224 -206 -41 -49&#xA;-78 -91 -82 -93 -4 -1 -10 64 -14 145 -4 81 -9 178 -13 215 l-6 67 46 21 c53&#xA;25 112 85 135 139 10 25 16 69 16 142 l1 105 49 -39 c67 -52 133 -84 213 -103&#xA;174 -41 329 45 358 197 16 87 -45 179 -157 239 l-62 33 61 13 c221 45 326 191&#xA;248 345 -28 55 -90 101 -160 120 -65 18 -190 6 -265 -24 -35 -14 -65 -25 -67&#xA;-24 -1 2 11 29 27 60 35 70 46 136 31 186 -13 46 -69 103 -125 129 -47 22&#xA;-137 33 -181 23z m136 -76 c54 -19 96 -59 108 -101 20 -73 -21 -160 -156 -331&#xA;l-65 -82 -38 25 c-42 28 -127 54 -179 54 l-33 0 7 58 c15 124 57 239 117 314&#xA;57 72 146 95 239 63z m-553 -54 c49 -25 76 -56 103 -116 23 -52 40 -178 32&#xA;-231 -5 -29 -9 -32 -77 -47 -40 -8 -96 -26 -124 -40 l-52 -25 -59 63 c-90 97&#xA;-133 204 -112 283 11 40 56 89 106 115 43 23 137 22 183 -2z m1010 -296 c66&#xA;-28 112 -86 112 -143 0 -45 -50 -114 -106 -144 -73 -39 -156 -57 -316 -68&#xA;-209 -14 -188 -19 -188 43 0 29 -9 70 -19 94 l-19 41 76 57 c84 63 173 111&#xA;230 124 63 15 189 13 230 -4z m-1425 -74 c77 -27 190 -87 217 -116 l22 -24&#xA;-22 -46 c-16 -34 -21 -58 -18 -89 l5 -43 -120 -7 c-180 -9 -237 -8 -302 9&#xA;-124 32 -173 95 -146 188 16 53 85 121 137 135 66 17 166 14 227 -7z m723 -96&#xA;c58 -17 129 -74 138 -110 10 -40 -12 -105 -47 -138 -73 -68 -208 -103 -332&#xA;-86 -88 12 -143 39 -191 91 -32 36 -36 45 -31 81 3 22 14 52 25 66 22 31 110&#xA;80 172 97 63 18 206 17 266 -1z m390 -255 c91 -23 205 -75 250 -113 49 -41 67&#xA;-88 54 -136 -24 -90 -100 -140 -212 -141 -82 0 -148 24 -233 85 -63 45 -163&#xA;145 -184 182 -10 20 -8 25 28 47 22 14 52 41 68 61 27 33 31 35 89 35 33 0 96&#xA;-9 140 -20z m-856 -44 c23 -25 61 -53 86 -63 24 -10 44 -21 44 -24 0 -12 -75&#xA;-106 -134 -168 -63 -65 -162 -137 -230 -165 -99 -41 -208 -27 -260 35 -85 101&#xA;-3 226 218 334 96 47 204 92 228 94 4 1 26 -19 48 -43z m490 -122 c73 -169 72&#xA;-341 -3 -423 -71 -77 -227 -81 -305 -8 -72 67 -91 195 -48 329 14 46 32 90 39&#xA;99 10 13 37 17 127 21 63 2 124 9 135 16 31 18 34 15 55 -34z"/>
    <path d="M5125 1695 c-33 -34 -52 -85 -40 -105 13 -21 35 -9 55 30 29 57 54&#xA;68 84 35 13 -13 34 -46 47 -72 13 -27 28 -51 34 -55 5 -4 34 17 65 46 30 29&#xA;81 70 113 91 31 21 57 42 57 46 0 14 -57 10 -95 -5 -18 -8 -54 -33 -79 -56&#xA;l-45 -41 -20 39 c-45 88 -119 108 -176 47z"/>
    <path d="M4381 1623 c-30 -37 -35 -64 -27 -154 4 -43 5 -79 2 -79 -2 0 -29 11&#xA;-60 25 -74 33 -119 33 -152 0 -27 -27 -26 -44 5 -100 21 -37 76 -75 107 -75&#xA;36 0 29 19 -27 71 -51 47 -56 69 -17 69 45 0 102 -26 148 -67 51 -46 80 -55&#xA;80 -24 0 10 -9 68 -19 129 -21 121 -17 167 15 167 31 0 63 -79 77 -191 10 -78&#xA;16 -100 30 -102 23 -5 31 35 24 122 -13 147 -62 236 -130 236 -27 0 -41 -7&#xA;-56 -27z"/>
    <path d="M5915 1504 c-51 -26 -95 -76 -109 -124 -9 -29 -19 -44 -27 -41 -8 2&#xA;-40 13 -73 24 -52 18 -65 19 -115 9 -92 -19 -141 -69 -148 -149 -6 -60 23&#xA;-107 84 -137 23 -12 42 -24 43 -27 0 -3 -19 -13 -41 -23 -62 -28 -116 -86&#xA;-124 -135 -8 -49 20 -115 63 -146 40 -29 142 -33 208 -8 l50 20 -4 -53 c-8&#xA;-98 60 -174 156 -174 67 0 99 11 138 46 20 19 38 33 40 32 1 -2 10 -61 19&#xA;-133 19 -151 22 -165 39 -165 41 0 43 54 9 273 -8 54 -13 101 -10 103 2 3 26&#xA;-5 53 -17 37 -15 63 -20 107 -17 71 5 104 28 136 92 22 44 23 51 12 102 -9 38&#xA;-23 65 -45 87 l-32 32 50 20 c30 12 61 35 80 58 27 34 31 47 31 97 0 66 -20&#xA;102 -74 133 -45 27 -138 33 -197 13 -26 -9 -48 -16 -48 -16 -1 0 0 28 2 62 4&#xA;78 -21 122 -88 156 -53 26 -140 30 -185 6z m149 -58 c84 -35 87 -125 7 -226&#xA;-18 -23 -26 -24 -105 -25 -86 0 -86 0 -96 29 -5 16 -10 48 -10 72 0 125 95&#xA;196 204 150z m-356 -146 c23 -10 66 -42 96 -70 l53 -50 -46 -46 c-45 -45 -47&#xA;-46 -96 -41 -125 14 -215 65 -215 122 0 87 107 131 208 85z m713 -89 c41 -41&#xA;39 -83 -4 -126 -44 -44 -102 -59 -196 -51 -87 8 -111 19 -111 49 -1 12 -7 33&#xA;-15 47 -8 14 -14 28 -15 32 0 6 129 62 165 71 11 3 48 5 83 6 58 1 66 -2 93&#xA;-28z m-406 -99 c5 -12 18 -25 27 -28 27 -8 21 -39 -13 -68 -26 -22 -40 -26&#xA;-92 -26 -49 0 -65 4 -84 22 -29 27 -29 59 0 85 38 34 60 43 107 40 36 -2 47&#xA;-7 55 -25z m-225 -103 c7 -17 24 -38 38 -47 l25 -16 -54 -49 c-130 -117 -295&#xA;-142 -326 -50 -30 87 60 157 232 182 33 5 63 9 66 10 4 0 12 -13 19 -30z m388&#xA;-33 c140 -48 182 -85 182 -161 0 -52 -44 -95 -97 -95 -83 1 -139 45 -201 159&#xA;-16 28 -32 48 -35 44 -4 -3 -7 -51 -7 -107 0 -79 -4 -108 -20 -141 -35 -72&#xA;-111 -96 -177 -55 -58 35 -57 100 4 220 l38 75 75 5 c81 6 101 14 139 54 14&#xA;14 25 26 26 26 1 0 34 -11 73 -24z"/>
    <path d="M4917 1322 c-18 -20 -22 -48 -8 -56 13 -8 76 37 76 54 0 23 -48 24&#xA;-68 2z"/>
    <path d="M8517 1142 c-27 -29 -40 -118 -34 -229 l5 -103 -41 35 c-83 71 -169&#xA;71 -196 2 -21 -56 4 -129 69 -200 l48 -53 -44 -41 c-43 -42 -61 -80 -50 -108&#xA;9 -25 33 -17 46 15 14 33 80 85 123 95 14 4 31 13 38 21 9 11 5 17 -21 31 -81&#xA;44 -160 140 -160 195 0 33 18 43 58 33 27 -7 115 -91 183 -175 20 -25 40 -42&#xA;43 -39 4 4 -2 51 -14 105 -26 125 -38 321 -21 353 12 22 13 22 33 5 42 -39 67&#xA;-141 77 -314 6 -107 7 -115 27 -118 18 -3 23 5 32 40 21 83 93 168 142 168 16&#xA;0 5 -48 -36 -149 -19 -47 -34 -95 -34 -108 0 -23 2 -23 108 -23 110 0 132 -7&#xA;132 -40 0 -9 -9 -25 -20 -35 -24 -22 -26 -55 -4 -55 30 0 74 56 74 93 0 61&#xA;-24 78 -126 90 l-90 11 28 79 c30 85 36 153 15 181 -12 16 -22 18 -61 12 -38&#xA;-6 -57 -16 -90 -50 l-42 -42 -11 81 c-21 153 -77 255 -141 255 -16 0 -36 -8&#xA;-45 -18z"/>
    <path d="M4663 1080 c-41 -25 -88 -106 -110 -191 l-17 -66 -60 31 c-80 39&#xA;-157 46 -204 17 -86 -55 -58 -171 60 -244 l48 -30 -45 -48 c-77 -82 -86 -140&#xA;-31 -195 41 -41 71 -43 151 -13 63 23 109 59 130 100 21 39 4 45 -45 14 -51&#xA;-32 -134 -65 -164 -65 -31 0 -50 24 -42 53 6 27 67 85 140 135 60 41 59 64 -4&#xA;73 -69 10 -127 38 -160 75 -36 41 -37 57 -9 85 17 17 29 20 60 16 56 -7 127&#xA;-45 171 -90 52 -54 64 -46 70 50 11 166 101 298 162 237 23 -22 21 -123 -4&#xA;-219 -15 -58 -17 -81 -9 -92 16 -19 25 -17 75 17 56 39 115 60 169 60 48 0 70&#xA;-18 60 -50 -9 -27 -93 -82 -177 -115 -51 -20 -68 -32 -68 -46 0 -19 5 -22 109&#xA;-65 75 -31 100 -74 64 -106 -39 -34 -132 -25 -220 20 -71 37 -100 24 -58 -26&#xA;33 -39 111 -72 188 -78 53 -4 68 -2 102 18 49 29 67 62 61 112 -5 40 -52 100&#xA;-88 112 -27 8 -22 16 33 49 127 75 157 175 66 221 -40 21 -127 21 -186 0 -24&#xA;-9 -45 -16 -47 -16 -2 0 0 37 3 83 7 97 -6 147 -44 177 -33 26 -88 26 -130 0z"/>
    <path d="M9685 1082 c-69 -42 -119 -121 -165 -257 l-27 -79 -37 72 c-21 39&#xA;-49 83 -62 97 -38 41 -91 30 -113 -24 -31 -74 68 -443 124 -465 28 -10 28 22&#xA;1 97 -60 168 -92 336 -67 352 21 12 83 -94 120 -205 24 -72 37 -97 46 -89 3 4&#xA;24 66 46 138 45 151 82 229 133 284 80 87 81 1 3 -238 -90 -275 -100 -325 -67&#xA;-325 5 0 33 30 61 66 53 66 131 134 155 134 25 0 15 -33 -37 -122 -48 -83 -54&#xA;-108 -25 -108 15 0 83 88 113 148 23 46 28 78 17 120 -13 47 -86 34 -157 -28&#xA;-20 -18 -37 -29 -37 -25 0 4 18 64 40 133 63 201 71 304 26 334 -19 13 -60 8&#xA;-91 -10z"/>
    <path d="M2358 764 c-24 -23 26 -162 90 -256 70 -101 177 -200 196 -181 18 18&#xA;-1 53 -67 122 -51 54 -86 103 -120 169 -26 50 -45 92 -42 92 3 0 43 -17 88&#xA;-37 160 -71 261 -151 409 -321 44 -51 63 -55 54 -12 -21 110 -249 309 -444&#xA;391 -78 32 -151 47 -164 33z"/>
    <path d="M2097 708 c-2 -7 13 -45 35 -84 21 -40 51 -105 66 -145 35 -95 46&#xA;-114 62 -104 31 19 -19 199 -82 295 -32 50 -70 67 -81 38z"/>
    <path d="M4643 659 c-27 -10 -53 -47 -53 -75 0 -27 44 -64 74 -64 37 0 66 28&#xA;66 63 0 58 -41 93 -87 76z m23 -86 c-10 -10 -19 5 -10 18 6 11 8 11 12 0 2 -7&#xA;1 -15 -2 -18z"/>
    <path d="M406 561 c-13 -20 10 -44 73 -76 36 -18 91 -52 121 -74 30 -23 58&#xA;-40 64 -38 24 8 13 31 -41 85 -80 80 -197 135 -217 103z"/>
    <path d="M8575 552 c-42 -26 -55 -44 -62 -86 -8 -48 8 -47 64 5 39 35 49 40&#xA;76 35 17 -4 48 -22 68 -42 56 -55 93 -26 48 37 -44 62 -136 86 -194 51z"/>
    <path d="M6623 540 c-52 -23 -143 -106 -143 -130 0 -38 27 -31 88 21 18 16 55&#xA;40 82 54 51 26 66 57 34 69 -19 7 -11 9 -61 -14z"/>
    <path d="M1790 534 c-40 -27 -101 -87 -115 -114 -9 -17 -10 -31 -4 -43 9 -15&#xA;18 -10 77 39 123 102 134 113 127 123 -10 16 -57 13 -85 -5z"/>
    <path d="M3845 502 c-38 -24 -105 -98 -105 -116 0 -32 32 -22 102 32 40 31 76&#xA;61 80 67 24 32 -32 45 -77 17z"/>
    <path d="M5437 513 c-16 -16 -5 -44 24 -59 17 -8 51 -34 75 -56 45 -41 74 -45&#xA;74 -10 0 23 -86 107 -123 121 -33 13 -41 13 -50 4z"/>
    <path d="M7896 488 c-36 -29 -96 -111 -96 -130 0 -4 9 -8 21 -8 13 0 47 28 92&#xA;76 40 42 74 81 75 85 9 23 -57 6 -92 -23z"/>
  </g>
  <title>Wiosenna ka pena kwiatw</title>
  <desc>ka pokryta dywanem z pierwszych, wiosennych kwiatw, takich jak krokusy i przebiniegi. To znak, e zima ju si skoczya. Uyj pastelowych, delikatnych barw.</desc>
</svg>