<?xml version="1.0" encoding="UTF-8" standalone="yes"?>
<svg version="1.0" xmlns="http://www.w3.org/2000/svg" width="1024.000000pt" height="1024.000000pt" viewBox="0 0 1024.000000 1024.000000" preserveAspectRatio="xMidYMid meet">
  <metadata>
Created by potrace 1.16, written by Peter Selinger 2001-2019
</metadata>
  <g transform="translate(0.000000,1024.000000) scale(0.100000,-0.100000)" fill="#000000" stroke="none">
    <path d="M8315 9541 c-95 -24 -175 -99 -234 -221 l-37 -76 -30 18 c-91 53&#xA;-283 8 -388 -91 -108 -101 -126 -203 -49 -283 66 -69 188 -87 573 -82 623 8&#xA;701 20 804 114 58 54 81 111 73 188 -12 133 -111 233 -243 246 -54 6 -146 -9&#xA;-186 -30 l-28 -15 0 43 c0 145 -108 225 -255 189z m134 -69 c20 -10 43 -33 54&#xA;-56 18 -34 19 -45 9 -95 -6 -31 -14 -66 -18 -78 -9 -33 21 -41 49 -15 46 43&#xA;117 67 197 66 141 -2 230 -80 230 -204 0 -90 -46 -147 -145 -180 -93 -31 -194&#xA;-38 -605 -44 -294 -4 -391 -3 -451 8 -130 24 -179 57 -179 124 0 116 153 227&#xA;315 227 61 0 76 -4 112 -29 44 -30 73 -29 73 1 0 32 67 159 105 201 72 81 180&#xA;112 254 74z"/>
    <path d="M1773 9526 c-152 -35 -291 -143 -358 -279 -32 -65 -39 -91 -43 -158&#xA;-4 -76 -6 -79 -26 -73 -48 16 -160 6 -224 -20 -155 -62 -244 -174 -245 -311 0&#xA;-89 33 -144 115 -186 71 -36 185 -48 503 -49 165 -1 498 -3 740 -5 519 -4 633&#xA;6 732 62 147 83 134 270 -24 349 -28 14 -60 19 -118 19 l-80 0 3 36 c11 115&#xA;-97 238 -210 239 -44 0 -123 -25 -160 -51 -36 -26 -38 -25 -38 20 0 57 -37&#xA;169 -76 228 -47 70 -114 130 -180 160 -70 32 -215 40 -311 19z m287 -77 c76&#xA;-35 124 -80 164 -153 41 -74 57 -138 59 -241 1 -44 7 -80 12 -82 6 -2 29 13&#xA;50 33 110 101 231 112 304 29 36 -41 45 -84 38 -171 -2 -35 -1 -67 5 -70 5 -3&#xA;24 1 43 10 42 20 127 24 176 7 93 -30 133 -156 72 -223 -28 -31 -82 -55 -163&#xA;-72 -66 -14 -167 -16 -857 -11 -855 5 -900 8 -972 62 -119 91 -57 277 124 371&#xA;42 21 64 26 135 26 70 1 93 -3 129 -22 53 -28 67 -20 52 33 -5 21 -9 68 -8&#xA;105 6 137 100 271 242 342 91 47 139 58 245 55 77 -2 105 -8 150 -28z"/>
    <path d="M5782 9396 c-54 -18 -138 -81 -175 -132 -16 -22 -48 -66 -73 -99 -49&#xA;-67 -127 -214 -168 -318 -68 -171 -144 -491 -164 -687 -4 -41 -12 -74 -17 -73&#xA;-87 15 -184 22 -242 18 l-73 -5 -1 53 c-1 200 -87 520 -195 727 -101 195 -269&#xA;396 -373 450 -113 56 -236 22 -255 -71 -10 -51 19 -123 65 -163 86 -73 244&#xA;-129 303 -106 15 5 36 26 47 45 12 19 22 35 24 35 7 0 97 -144 138 -220 55&#xA;-103 98 -218 136 -365 30 -116 55 -296 49 -355 -3 -32 -7 -36 -43 -43 -161&#xA;-34 -284 -85 -408 -169 l-57 -39 -27 33 c-229 279 -547 478 -763 478 -72 0&#xA;-172 -33 -232 -77 -96 -69 -210 -246 -261 -404 -133 -408 -45 -1029 204 -1435&#xA;183 -299 492 -536 854 -656 55 -18 101 -34 103 -35 2 0 -26 -40 -62 -88 -119&#xA;-155 -176 -310 -176 -476 0 -66 -3 -80 -14 -76 -8 3 -57 20 -108 37 -178 59&#xA;-316 137 -628 357 -210 147 -492 298 -660 351 -170 54 -320 90 -455 108 -46 6&#xA;-207 23 -214 22 -3 0 -26 0 -50 1 l-44 1 6 133 c3 72 11 148 17 167 l12 36 55&#xA;-28 c65 -33 120 -36 178 -9 37 17 95 72 95 90 0 5 25 11 56 14 68 7 116 41&#xA;152 108 21 38 23 54 20 125 l-4 81 33 12 c44 16 122 96 146 151 12 27 22 76&#xA;25 121 4 66 1 84 -20 130 -48 103 -130 167 -220 170 l-47 2 3 66 c4 85 -17&#xA;144 -70 197 -63 64 -168 82 -252 44 -31 -14 -44 -16 -46 -7 -38 139 -70 195&#xA;-149 255 -154 119 -403 89 -556 -66 -78 -80 -122 -169 -129 -262 l-5 -70 -31&#xA;-1 c-84 -2 -177 -61 -220 -140 -44 -79 -32 -205 25 -265 l20 -21 -49 -32 c-84&#xA;-54 -122 -126 -122 -231 0 -69 35 -148 82 -183 29 -23 108 -62 116 -58 1 0 27&#xA;1 57 1 54 0 55 -1 49 -24 -8 -33 11 -89 44 -128 36 -43 96 -68 163 -68 66 0&#xA;175 31 212 60 14 11 28 20 33 20 7 0 0 -189 -12 -340 -6 -73 -8 -76 -33 -78&#xA;-113 -8 -384 -76 -544 -136 -169 -63 -437 -216 -437 -248 0 -26 18 -22 85 18&#xA;188 114 506 242 670 270 16 3 46 9 65 14 44 11 84 18 180 29 273 34 481 30&#xA;760 -14 116 -18 377 -101 517 -164 156 -70 345 -185 558 -337 140 -101 173&#xA;-122 243 -162 104 -59 242 -120 356 -158 l100 -32 18 -57 c58 -185 207 -326&#xA;386 -364 109 -23 248 -9 357 36 47 20 159 91 196 125 50 46 137 157 180 228&#xA;l43 73 30 -39 c172 -218 423 -373 607 -374 117 0 227 81 249 183 16 77 1 198&#xA;-35 284 -9 20 -13 38 -11 41 3 2 29 -18 58 -46 213 -202 446 -316 673 -329&#xA;169 -9 276 29 386 137 111 110 149 211 150 400 0 133 -13 187 -72 301 -60 115&#xA;-164 216 -320 309 -44 27 -93 52 -109 55 -17 4 -30 10 -30 13 0 4 33 27 73 51&#xA;323 197 603 551 742 936 47 130 90 310 110 460 14 109 21 410 11 475 -2 14 -7&#xA;50 -11 80 -7 67 -58 257 -87 325 -122 294 -354 437 -640 395 -240 -34 -483&#xA;-168 -707 -389 -173 -171 -298 -337 -408 -540 -25 -47 -48 -88 -50 -90 -2 -3&#xA;-36 28 -76 67 -39 40 -94 88 -120 106 -57 41 -194 109 -254 127 -28 8 -43 18&#xA;-43 28 1 42 51 347 70 422 61 241 133 431 214 561 9 16 12 14 26 -14 44 -93&#xA;190 -70 323 52 84 77 116 149 97 219 -21 78 -100 109 -198 77z m119 -46 c15&#xA;-9 19 -22 19 -64 0 -56 -23 -99 -86 -158 -64 -59 -177 -103 -210 -80 -15 10&#xA;-34 47 -34 68 0 35 47 108 102 159 76 70 160 101 209 75z m-1648 -66 c52 -17&#xA;140 -91 162 -135 46 -87 -16 -133 -125 -92 -148 55 -222 150 -170 216 25 32&#xA;63 35 133 11z m2889 -580 c113 -29 197 -94 287 -224 142 -205 207 -641 148&#xA;-995 -3 -16 -8 -50 -12 -75 -33 -227 -167 -574 -290 -751 -169 -241 -360 -420&#xA;-590 -552 -169 -97 -409 -192 -600 -237 -168 -40 -419 -63 -453 -41 -9 5 -12&#xA;29 -10 81 l3 73 160 97 c253 153 290 176 465 293 181 121 293 205 415 311 330&#xA;287 477 491 553 766 24 85 26 113 27 260 0 147 -3 173 -23 235 -66 198 -177&#xA;305 -335 323 -207 24 -426 -111 -628 -388 -31 -41 -71 -102 -91 -135 -48 -80&#xA;-182 -351 -197 -397 -7 -21 -16 -38 -21 -38 -4 0 -15 30 -24 66 -19 76 -57&#xA;164 -110 254 l-37 62 67 122 c121 221 297 448 461 593 166 146 407 277 553&#xA;300 19 3 37 7 39 9 11 11 190 2 243 -12z m-3513 -390 c98 -28 233 -97 305&#xA;-154 120 -95 316 -299 316 -327 0 -5 -18 -26 -40 -48 -22 -21 -63 -71 -92&#xA;-111 l-51 -73 -36 47 c-98 130 -194 208 -313 255 -193 77 -350 -11 -436 -246&#xA;-25 -68 -26 -82 -26 -247 1 -158 3 -185 28 -274 27 -101 92 -243 149 -325 123&#xA;-179 305 -324 537 -427 47 -21 86 -50 145 -109 115 -112 309 -223 423 -240 21&#xA;-3 54 -10 73 -15 19 -6 55 -10 81 -10 26 0 49 -3 52 -8 2 -4 9 -41 15 -82 12&#xA;-87 17 -108 27 -134 7 -19 2 -19 -132 -13 -76 4 -152 9 -169 12 -86 15 -102&#xA;18 -130 22 -176 28 -434 124 -594 221 -259 156 -427 337 -552 593 -38 78 -103&#xA;239 -113 284 -2 6 -8 30 -15 55 -15 53 -17 61 -35 165 -47 265 -46 495 3 688&#xA;35 139 63 202 137 313 122 184 259 242 443 188z m3346 -119 c97 -47 190 -188&#xA;216 -330 19 -107 15 -264 -11 -370 -72 -300 -239 -527 -612 -835 -173 -143&#xA;-245 -194 -521 -369 -263 -167 -427 -262 -439 -255 -4 3 -8 15 -8 27 -1 29&#xA;-32 98 -55 121 -18 18 -18 19 11 40 63 46 185 171 232 239 134 195 183 363&#xA;182 621 l-1 151 35 82 c63 147 187 384 257 488 141 211 310 358 461 400 72 20&#xA;200 15 253 -10z m-1839 -165 c371 -59 670 -359 752 -755 19 -92 23 -122 22&#xA;-221 0 -104 -1 -115 -26 -234 -84 -393 -429 -685 -879 -744 -650 -86 -1105&#xA;296 -1072 899 9 176 63 355 163 544 118 224 277 371 488 451 183 70 361 89&#xA;552 60z m-3539 -146 c62 -11 119 -43 163 -91 53 -57 81 -121 87 -197 2 -34 6&#xA;-67 8 -73 7 -21 36 -15 57 12 44 56 152 72 222 32 73 -41 102 -138 71 -242&#xA;-20 -71 -12 -85 40 -66 157 56 309 -154 235 -326 -33 -77 -125 -153 -185 -153&#xA;-34 0 -37 -12 -15 -53 30 -55 32 -103 8 -159 -26 -62 -74 -93 -143 -93 -44 0&#xA;-50 -3 -53 -22 -2 -12 -21 -38 -43 -57 -33 -30 -46 -36 -85 -36 -49 0 -112 24&#xA;-121 46 -3 7 21 54 52 103 43 68 54 94 47 106 -7 14 -16 9 -54 -37 -65 -76&#xA;-136 -194 -155 -257 -10 -36 -16 -98 -17 -178 0 -68 -3 -123 -6 -123 -3 -1&#xA;-48 -3 -100 -6 -52 -2 -103 -6 -112 -8 -16 -4 -17 2 -10 52 4 32 7 156 7 277&#xA;0 197 -3 229 -23 303 -19 71 -21 89 -11 117 l12 33 56 -5 c31 -3 57 -6 57 -7&#xA;1 0 4 -46 8 -101 9 -137 18 -179 38 -183 41 -8 166 146 198 242 10 33 15 36&#xA;48 36 42 1 99 19 138 45 40 26 16 38 -42 20 -70 -21 -115 -19 -155 8 -42 28&#xA;-59 60 -59 115 0 54 -19 55 -49 2 -26 -46 -54 -78 -91 -103 -30 -21 -108 -22&#xA;-134 -2 -27 21 -33 19 -40 -11 -11 -43 -37 -74 -79 -95 -48 -25 -104 -18 -146&#xA;17 -33 28 -51 31 -51 9 0 -22 44 -63 85 -81 40 -16 98 -18 125 -4 16 8 20 5&#xA;29 -23 12 -40 18 -76 26 -148 l6 -56 -58 -31 c-96 -50 -203 -60 -271 -23 -54&#xA;29 -81 130 -47 175 19 25 2 38 -32 25 -32 -12 -109 -11 -156 2 -136 37 -179&#xA;223 -76 334 34 37 73 60 132 79 27 8 20 31 -18 60 -107 82 -97 226 20 304 47&#xA;32 54 34 125 30 l75 -3 -4 25 c-12 82 -5 146 26 211 50 107 120 174 224 213&#xA;48 18 145 36 166 30 6 -1 29 -6 50 -10z m2075 -14 c116 -35 248 -143 336 -272&#xA;l33 -47 -32 -63 c-18 -35 -47 -105 -65 -157 -30 -85 -34 -91 -40 -65 -27 112&#xA;-141 259 -220 282 -62 18 -86 15 -135 -18 -56 -36 -80 -85 -86 -170 -18 -229&#xA;183 -504 356 -488 l49 5 7 -61 c15 -136 79 -339 123 -390 20 -23 18 -22 -78&#xA;28 -84 43 -203 121 -268 175 -47 40 -153 163 -194 226 -121 189 -187 465 -158&#xA;661 33 224 141 363 291 373 9 1 46 -8 81 -19z m16 -379 c82 -42 143 -133 181&#xA;-271 16 -56 17 -79 9 -165 -6 -55 -12 -105 -14 -112 -6 -22 -72 -27 -118 -9&#xA;-56 22 -144 114 -184 192 -56 112 -68 238 -29 314 35 70 86 86 155 51z m-1916&#xA;-688 c22 -23 20 -40 -14 -106 -20 -39 -85 -117 -98 -117 -8 0 -30 132 -30 182&#xA;0 25 10 40 47 73 l47 42 14 -26 c7 -14 22 -36 34 -48z m3737 -666 c55 -89 67&#xA;-270 23 -352 -30 -56 -52 -79 -108 -115 -84 -53 -170 -73 -287 -68 -114 5&#xA;-148 18 -210 77 -61 57 -94 141 -111 274 l-6 47 48 0 c171 1 439 69 564 144&#xA;24 14 48 26 55 26 6 0 21 -15 32 -33z m1225 -161 c169 -77 332 -222 393 -348&#xA;80 -161 81 -366 3 -518 -36 -70 -114 -144 -187 -178 -250 -115 -565 -14 -879&#xA;282 -110 104 -177 185 -330 400 l-102 144 52 -1 c81 -3 190 11 344 42 201 42&#xA;343 88 507 164 17 7 46 21 65 30 48 22 52 21 134 -17z m-2373 -231 c16 -10&#xA;270 -35 357 -35 l94 0 45 -50 c25 -28 63 -60 84 -71 35 -17 39 -23 39 -58 0&#xA;-55 34 -180 75 -276 l36 -83 -27 -54 c-77 -152 -199 -287 -312 -346 -227 -118&#xA;-431 -100 -591 53 -139 132 -193 345 -142 547 30 118 108 255 195 346 39 41&#xA;42 42 90 37 27 -3 53 -8 57 -10z m1282 -103 c46 -64 48 -70 44 -118 -6 -64&#xA;-23 -96 -81 -161 -58 -64 -123 -106 -213 -138 -79 -27 -196 -49 -223 -40 -32&#xA;10 -109 203 -125 315 l-7 45 119 0 c97 0 131 4 188 23 106 35 165 77 211 148&#xA;16 24 19 25 29 10 5 -10 32 -47 58 -84z m162 -229 c74 -103 77 -108 70 -150&#xA;-3 -23 -22 -74 -41 -112 -62 -125 -192 -218 -338 -241 -65 -10 -70 -10 -100&#xA;13 -44 34 -140 134 -177 185 l-31 42 34 0 c109 1 291 72 376 147 55 50 98 115&#xA;113 175 7 26 14 48 15 48 1 0 36 -48 79 -107z m139 -298 c48 -191 27 -283 -76&#xA;-336 -84 -43 -279 -2 -388 81 l-24 18 45 0 c84 0 214 66 294 149 43 46 105&#xA;151 105 180 0 7 4 13 9 13 5 0 20 -47 35 -105z"/>
    <path d="M6669 7906 c-128 -46 -241 -191 -285 -366 -24 -96 -16 -220 19 -292&#xA;46 -94 154 -149 251 -128 138 29 232 128 303 314 23 61 27 86 27 181 1 94 -3&#xA;117 -22 160 -28 60 -75 112 -119 131 -40 17 -126 17 -174 0z m139 -41 c84 -36&#xA;123 -103 130 -220 13 -237 -147 -475 -319 -475 -61 0 -96 14 -137 53 -83 80&#xA;-83 283 0 439 59 111 135 180 228 204 59 16 55 16 98 -1z"/>
    <path d="M4347 7680 c-43 -13 -92 -55 -111 -93 -34 -74 -8 -91 37 -26 36 52&#xA;102 83 158 74 31 -5 39 -4 39 9 0 36 -61 54 -123 36z"/>
    <path d="M5176 7679 c-30 -8 -56 -27 -56 -40 0 -5 33 -8 73 -7 85 1 132 -17&#xA;189 -74 62 -62 81 -42 28 30 -56 77 -149 113 -234 91z"/>
    <path d="M4329 7307 c-86 -58 -106 -259 -31 -318 51 -40 101 -21 138 54 51 99&#xA;33 253 -32 277 -34 13 -36 13 -75 -13z"/>
    <path d="M5132 7305 c-50 -42 -75 -109 -70 -186 8 -101 45 -149 117 -149 58 0&#xA;112 99 111 203 -1 129 -81 197 -158 132z"/>
    <path d="M4564 7016 c-71 -31 -101 -123 -64 -195 22 -44 76 -79 104 -68 20 8&#xA;21 27 2 27 -29 0 -66 59 -66 104 0 74 60 105 157 80 31 -8 58 -12 61 -9 8 7&#xA;-29 45 -60 61 -34 18 -93 17 -134 0z"/>
    <path d="M5050 6786 c-17 -17 -11 -35 15 -42 33 -8 32 -16 -12 -55 -52 -45&#xA;-164 -94 -248 -108 -104 -18 -180 -3 -257 51 -14 10 -20 10 -30 0 -10 -10 -5&#xA;-27 24 -86 46 -93 82 -134 150 -171 66 -36 170 -41 231 -11 103 51 183 164&#xA;210 295 l12 64 33 -27 c31 -27 52 -28 52 -2 0 7 -15 29 -32 50 -27 30 -43 38&#xA;-85 45 -34 5 -56 4 -63 -3z m16 -181 c-14 -56 -29 -80 -84 -134 -59 -59 -107&#xA;-81 -174 -81 -52 0 -138 48 -176 99 -30 40 -37 70 -10 43 18 -18 184 -15 249&#xA;4 60 18 164 68 174 84 12 20 27 10 21 -15z"/>
    <path d="M6478 5657 c-106 -30 -175 -105 -185 -198 -22 -224 234 -424 434&#xA;-338 144 62 203 188 157 335 -24 77 -105 162 -179 188 -68 23 -169 29 -227 13z&#xA;m225 -71 c186 -88 199 -325 22 -411 -47 -24 -64 -27 -114 -22 -97 8 -187 68&#xA;-235 157 -90 166 11 318 204 307 44 -3 84 -13 123 -31z"/>
    <path d="M4434 5501 c-103 -47 -176 -156 -177 -265 -1 -93 19 -158 64 -210&#xA;147 -167 415 -37 445 215 12 104 -46 213 -137 260 -50 25 -140 25 -195 0z&#xA;m169 -45 c66 -27 117 -111 117 -193 0 -60 -39 -145 -91 -195 -69 -68 -139 -84&#xA;-214 -49 -72 33 -107 96 -107 195 -1 174 154 301 295 242z"/>
    <path d="M8657 8126 c-71 -26 -131 -92 -156 -171 l-19 -60 -58 -5 c-193 -17&#xA;-338 -203 -238 -303 40 -40 82 -55 189 -65 123 -12 579 -8 694 7 145 18 234&#xA;78 261 177 21 73 -1 153 -57 206 -65 62 -170 76 -266 34 l-55 -25 -6 44 c-14&#xA;93 -97 167 -193 172 -34 2 -74 -3 -96 -11z m173 -75 c42 -31 63 -77 65 -148 3&#xA;-85 14 -95 62 -56 61 49 101 65 158 64 65 0 92 -11 130 -51 27 -28 30 -38 30&#xA;-95 0 -79 -19 -109 -96 -148 -76 -39 -169 -48 -479 -46 -380 2 -471 16 -486&#xA;74 -10 41 5 78 50 120 67 65 186 87 240 44 14 -11 30 -18 35 -15 5 3 7 34 6&#xA;68 -5 79 23 140 83 182 68 48 144 51 202 7z"/>
    <path d="M8285 6960 c-73 -76 -18 -276 113 -413 52 -54 150 -114 198 -122 39&#xA;-6 42 -9 46 -41 2 -19 2 -34 0 -34 -3 0 -26 13 -52 29 -77 47 -193 82 -272 82&#xA;-57 0 -78 -5 -114 -26 -24 -14 -48 -34 -54 -45 -55 -103 106 -234 288 -233 66&#xA;0 71 -1 58 -16 -69 -76 -55 -235 24 -276 97 -50 207 28 252 181 l21 71 48 -57&#xA;c83 -100 157 -145 173 -105 8 23 -3 43 -37 64 -43 26 -119 107 -92 96 113 -42&#xA;203 -27 283 49 49 45 65 81 57 125 -17 90 -118 171 -214 171 l-51 0 37 66 c62&#xA;113 81 260 43 334 -43 84 -123 84 -210 0 -55 -54 -116 -144 -141 -210 l-17&#xA;-45 -7 30 c-23 94 -118 247 -187 298 -88 66 -148 74 -193 27z m109 -40 c84&#xA;-40 191 -179 221 -285 7 -27 16 -74 19 -102 l4 -53 -29 0 c-90 0 -242 159&#xA;-284 297 -26 84 -17 163 19 163 5 0 28 -9 50 -20z m583 -62 c5 -7 15 -36 21&#xA;-65 13 -61 -1 -130 -48 -231 -35 -74 -68 -117 -119 -151 -65 -45 -76 -65 -42&#xA;-76 12 -3 43 8 83 30 53 29 75 35 122 35 95 0 157 -43 172 -120 6 -25 2 -37&#xA;-22 -61 -16 -17 -47 -40 -69 -52 -116 -60 -297 20 -347 153 -42 110 -32 205&#xA;37 356 58 129 176 229 212 182z m-483 -483 c43 -15 96 -35 117 -44 l39 -18&#xA;-21 -27 c-55 -70 -196 -96 -302 -56 -116 44 -167 132 -94 165 48 22 165 13&#xA;261 -20z m234 -245 c-4 -91 -36 -164 -87 -197 -74 -50 -131 -17 -131 74 0 86&#xA;44 156 134 214 l59 39 14 -28 c10 -18 14 -50 11 -102z"/>
    <path d="M9303 5585 c-39 -27 -58 -99 -58 -220 0 -60 3 -125 7 -143 l8 -33&#xA;-33 25 c-55 42 -117 64 -187 67 -57 1 -75 -3 -150 -38 -47 -23 -94 -47 -104&#xA;-56 -19 -14 -24 -10 -85 52 -83 85 -153 114 -276 115 -70 0 -86 -3 -127 -28&#xA;-101 -59 -142 -137 -136 -260 3 -78 0 -87 -22 -61 -44 53 -158 87 -246 73&#xA;-106 -16 -187 -76 -238 -173 -57 -109 -14 -255 98 -335 42 -30 45 -40 10 -40&#xA;-69 0 -204 -102 -220 -167 -5 -17 -13 -23 -34 -23 -43 0 -279 -38 -335 -53&#xA;-115 -33 -229 -68 -263 -83 -24 -10 -38 -11 -40 -4 -2 6 -22 38 -44 71 -66 99&#xA;-177 159 -292 159 -165 -1 -313 -103 -355 -248 -17 -59 -12 -180 10 -242 12&#xA;-35 14 -50 6 -47 -135 58 -143 60 -218 60 -61 -1 -89 -6 -133 -26 -71 -33&#xA;-150 -111 -184 -185 -23 -49 -27 -70 -27 -147 0 -77 4 -98 27 -147 50 -108&#xA;177 -198 301 -213 l57 -7 -36 -40 c-20 -22 -49 -68 -65 -102 -24 -51 -29 -74&#xA;-29 -137 0 -42 7 -96 16 -122 31 -92 136 -181 252 -213 53 -15 72 -16 123 -6&#xA;127 23 239 104 290 208 12 26 24 44 25 38 7 -26 56 -391 74 -549 21 -199 36&#xA;-415 27 -415 -3 0 -12 20 -20 45 -21 60 -97 175 -160 242 -159 169 -428 278&#xA;-568 232 -53 -18 -62 -32 -62 -96 0 -195 156 -429 372 -557 111 -67 283 -124&#xA;379 -127 l72 -2 0 -161 c1 -89 4 -197 7 -241 l5 -80 -46 52 c-80 88 -188 142&#xA;-217 107 -10 -12 -9 -25 6 -66 31 -86 147 -288 165 -288 13 0 13 27 0 35 -5 3&#xA;-10 13 -10 21 0 9 -26 69 -59 135 -36 73 -54 119 -46 119 23 0 113 -78 154&#xA;-132 22 -29 54 -83 71 -120 18 -38 34 -68 35 -68 2 0 18 24 35 52 67 108 85&#xA;131 129 164 24 19 48 34 52 34 16 0 9 -39 -23 -119 -34 -88 -31 -114 8 -66 32&#xA;40 64 126 64 173 0 67 -35 79 -107 37 l-43 -24 -1 185 c-1 101 -2 196 -3 211&#xA;-1 26 3 28 84 50 108 28 147 45 245 108 87 56 180 145 253 240 92 122 182 360&#xA;182 484 0 33 -5 44 -26 57 -46 31 -136 22 -264 -24 -186 -66 -389 -263 -467&#xA;-452 -12 -30 -23 -48 -24 -40 -1 8 -3 20 -4 25 0 6 -4 53 -8 105 -17 216 -32&#xA;352 -57 495 -10 61 -17 111 -16 112 1 1 28 -11 60 -27 49 -25 71 -30 132 -30&#xA;101 0 170 27 238 93 150 148 149 354 -4 507 l-58 58 37 6 c101 17 204 97 248&#xA;193 49 106 27 256 -53 360 -55 72 -169 124 -260 117 -55 -3 -137 -38 -201 -86&#xA;-29 -21 -54 -38 -56 -38 -2 0 2 28 10 63 7 34 12 86 11 116 l-2 54 87 33 c90&#xA;33 250 80 302 88 279 46 255 46 255 -1 1 -84 75 -185 171 -234 75 -37 157 -46&#xA;239 -25 34 9 63 16 65 16 1 0 -8 -26 -21 -57 -52 -128 -22 -268 73 -337 125&#xA;-92 278 -88 380 9 24 24 46 38 48 31 2 -6 11 -60 19 -121 14 -104 21 -219 30&#xA;-518 4 -120 -4 -156 -19 -84 -12 55 -112 239 -162 298 -113 131 -227 199 -372&#xA;220 -132 19 -178 -19 -167 -139 16 -163 80 -290 218 -431 103 -104 245 -185&#xA;391 -221 29 -8 56 -23 71 -40 23 -28 23 -28 9 -131 -7 -57 -14 -116 -15 -131&#xA;-2 -25 -18 -41 -18 -19 0 23 -54 71 -86 77 -45 8 -78 -20 -102 -88 -9 -26 -19&#xA;-48 -22 -48 -3 0 -14 17 -25 37 -30 57 -134 156 -195 186 -62 31 -120 36 -120&#xA;11 0 -19 132 -271 159 -306 52 -63 24 30 -55 184 -25 49 -40 88 -35 88 13 0&#xA;122 -83 152 -116 32 -36 80 -114 109 -177 33 -69 37 -65 56 48 9 56 44 135 59&#xA;135 46 0 87 -67 107 -174 14 -71 22 -82 32 -39 12 52 51 117 98 164 53 53 82&#xA;67 103 49 20 -17 19 -97 -1 -145 -17 -42 -11 -58 12 -29 28 35 44 83 44 131 0&#xA;61 -21 93 -60 93 -29 0 -30 0 -24 48 9 79 13 92 32 92 32 0 264 80 350 120&#xA;251 118 442 360 476 602 6 40 4 49 -16 67 -73 69 -298 55 -448 -27 -138 -75&#xA;-231 -178 -323 -355 l-32 -62 -7 125 c-16 316 -32 449 -73 625 -13 55 -31 117&#xA;-39 137 -25 58 -19 63 23 25 54 -49 86 -64 153 -72 163 -20 316 92 334 246 11&#xA;100 -28 187 -118 258 l-48 39 48 7 c60 9 151 46 194 78 18 14 49 52 68 83 33&#xA;55 35 64 35 144 0 69 -5 93 -23 127 -47 90 -132 158 -212 173 -81 15 -220 -24&#xA;-284 -79 -18 -15 -19 -15 -12 4 29 72 38 135 33 223 l-5 92 85 41 c104 51 187&#xA;62 259 34 47 -18 148 -110 159 -145 7 -23 34 -34 41 -16 3 8 1 31 -5 52 -17&#xA;68 -34 231 -29 296 5 75 34 142 64 146 27 4 58 -43 86 -131 16 -48 21 -99 25&#xA;-229 3 -93 9 -168 13 -168 11 0 33 29 70 93 61 103 118 138 155 96 17 -18 20&#xA;-35 19 -100 -1 -44 2 -79 6 -79 29 0 55 107 39 163 -16 60 -45 87 -91 87 -47&#xA;0 -87 -26 -129 -83 l-29 -40 0 69 c0 142 -51 310 -108 354 -29 24 -79 26 -109&#xA;5z m-773 -301 c106 -31 165 -89 196 -190 39 -129 -10 -283 -139 -434 -28 -33&#xA;-29 -33 -55 -16 -15 9 -40 22 -55 28 -26 9 -28 14 -23 47 16 108 18 151 7 151&#xA;-16 0 -29 -40 -37 -115 l-7 -65 -43 0 c-24 0 -47 -1 -51 -2 -4 -2 -17 24 -30&#xA;57 -13 33 -28 69 -33 80 -40 86 -62 273 -41 338 39 116 164 165 311 121z&#xA;m-494 -278 c79 -37 137 -113 220 -288 l22 -46 -39 -32 -39 -31 -57 40 c-53 39&#xA;-93 52 -93 32 0 -6 27 -29 60 -52 33 -23 60 -43 60 -45 0 -1 -8 -22 -19 -46&#xA;-10 -24 -19 -46 -20 -50 -2 -12 -7 -11 -131 28 -132 41 -205 79 -249 129 -90&#xA;103 -91 199 -3 297 76 85 189 110 288 64z m1038 -166 c41 -15 116 -90 142&#xA;-142 31 -60 31 -126 3 -186 -71 -145 -244 -200 -469 -149 l-95 22 -3 46 -3 46&#xA;43 16 c24 8 65 22 92 29 51 14 74 38 37 38 -11 0 -57 -10 -101 -21 -45 -12&#xA;-82 -20 -84 -18 -1 2 -12 21 -24 42 l-22 38 48 51 c89 95 198 167 287 189 45&#xA;11 120 10 149 -1z m-601 -224 c105 -46 150 -176 100 -287 -36 -80 -139 -124&#xA;-229 -100 -99 27 -156 103 -155 209 0 66 15 104 54 140 51 48 164 67 230 38z&#xA;m-448 -159 l99 -24 8 -38 c5 -21 5 -42 1 -45 -5 -4 -39 -18 -78 -31 -78 -26&#xA;-117 -47 -110 -59 5 -8 45 1 154 35 52 16 55 16 64 -1 6 -10 21 -29 34 -42 25&#xA;-25 28 -32 13 -32 -6 0 -41 -25 -78 -56 -87 -72 -171 -112 -248 -120 -198 -21&#xA;-357 154 -285 312 52 115 206 151 426 101z m-1360 -112 c50 -25 108 -82 137&#xA;-137 51 -95 16 -358 -59 -446 l-28 -32 -45 16 c-28 10 -68 14 -107 12 l-63 -3&#xA;-1 73 c-2 89 -2 92 -11 92 -5 0 -13 0 -19 0 -7 0 -8 -28 -4 -88 l7 -87 -36&#xA;-18 c-20 -9 -39 -17 -41 -17 -15 0 -72 78 -106 146 -92 185 -91 312 3 417 63&#xA;70 137 98 248 94 59 -2 97 -8 125 -22z m2076 -36 c165 -55 236 -101 286 -186&#xA;66 -112 5 -262 -124 -309 -160 -57 -318 47 -399 262 -33 87 -31 98 15 119 43&#xA;19 42 19 117 -37 28 -21 58 -38 67 -38 31 0 23 11 -58 75 -27 22 -51 40 -53&#xA;41 -2 1 50 103 54 104 0 0 43 -14 95 -31z m-436 -148 c-11 -29 -45 -156 -45&#xA;-168 0 -25 28 -13 35 15 3 15 16 58 27 95 l20 68 46 -3 46 -3 20 -105 c39&#xA;-207 23 -322 -54 -397 -66 -65 -179 -76 -269 -27 -81 43 -114 90 -119 167 -7&#xA;106 53 222 181 354 l50 51 34 -16 c23 -11 32 -21 28 -31z m-1090 -202 c124&#xA;-31 220 -203 190 -339 -39 -177 -220 -257 -449 -200 -44 11 -81 21 -82 23 -1&#xA;1 -4 31 -6 66 l-3 63 84 32 c47 17 85 36 85 41 2 20 -42 15 -117 -14 l-77 -29&#xA;-21 34 c-11 19 -30 41 -42 49 l-21 15 24 27 c109 125 195 196 273 224 60 21&#xA;101 23 162 8z m-1080 -100 c65 -32 215 -158 215 -181 0 -5 -11 -24 -24 -41&#xA;-14 -18 -28 -44 -31 -59 l-7 -28 -89 7 c-66 4 -92 3 -104 -7 -23 -19 -2 -30&#xA;60 -30 28 -1 66 -4 85 -8 l35 -7 1 -70 1 -71 -80 -34 c-74 -32 -89 -34 -181&#xA;-35 -91 0 -107 3 -159 29 -73 36 -140 109 -158 173 -22 77 -18 170 9 223 26&#xA;49 70 99 116 133 82 59 198 61 311 6z m2425 -109 c45 -174 67 -294 76 -417 3&#xA;-43 7 -89 10 -103 9 -52 5 -423 -7 -616 l-12 -201 -49 -52 c-27 -28 -50 -51&#xA;-52 -51 -1 0 6 39 16 88 10 48 21 132 24 187 3 55 9 136 13 180 15 153 -4 641&#xA;-30 788 -25 146 -33 228 -25 262 4 15 9 26 11 24 2 -2 13 -42 25 -89z m-1882&#xA;-66 c106 -44 161 -163 128 -276 -33 -115 -139 -186 -259 -174 -98 10 -158 51&#xA;-196 136 -35 76 -21 200 27 253 23 26 97 68 135 78 42 10 119 3 165 -17z&#xA;m1368 -299 c193 -57 379 -295 450 -572 27 -106 29 -123 14 -123 -5 0 -10 7&#xA;-10 15 0 20 -50 119 -96 190 -76 119 -247 305 -281 305 -27 0 -10 -28 77 -125&#xA;120 -132 294 -393 240 -360 -5 3 -18 8 -29 10 -51 10 -181 71 -245 115 -152&#xA;105 -267 280 -298 453 -7 42 -7 66 1 83 9 21 17 24 69 24 32 0 81 -7 108 -15z&#xA;m-1086 -24 c162 -54 242 -112 290 -211 31 -65 29 -162 -5 -235 -33 -69 -109&#xA;-138 -177 -161 -176 -58 -379 84 -432 302 -30 126 -32 118 32 138 31 9 65 25&#xA;75 34 18 16 22 13 83 -51 35 -38 68 -65 74 -62 14 9 1 29 -59 96 l-50 56 28&#xA;39 c16 22 32 49 35 62 4 12 10 22 14 22 4 0 45 -13 92 -29z m2493 -36 c33 -14&#xA;37 -18 31 -43 -37 -168 -140 -335 -271 -438 -108 -85 -229 -146 -375 -188&#xA;l-76 -22 61 80 c34 45 126 146 204 225 79 78 140 147 137 152 -19 31 -276&#xA;-220 -386 -378 -32 -45 -62 -85 -69 -88 -20 -13 -2 95 31 185 78 211 184 359&#xA;321 446 111 71 306 105 392 69z m-3074 -87 c19 -11 18 -15 -19 -87 -49 -100&#xA;-56 -121 -36 -121 10 0 32 34 58 90 32 67 47 88 58 83 8 -3 33 -10 55 -15 22&#xA;-6 52 -13 66 -17 l25 -6 -13 -105 c-15 -116 -34 -185 -69 -245 -52 -91 -140&#xA;-143 -254 -152 -70 -5 -80 -3 -136 25 -119 60 -184 171 -170 290 14 120 98&#xA;218 255 298 l104 52 29 -39 c15 -21 37 -44 47 -51z m272 -350 c12 -24 33 -56&#xA;49 -73 33 -37 35 -45 85 -455 25 -207 44 -534 51 -895 l6 -330 -28 -47 c-16&#xA;-26 -32 -48 -36 -48 -9 0 -14 136 -16 482 -2 158 -4 293 -7 300 -2 7 -6 83&#xA;-10 168 -8 194 -25 365 -65 633 -20 134 -43 258 -55 290 -14 34 5 16 26 -25z&#xA;m941 -458 c-5 -79 -27 -151 -82 -266 -97 -202 -256 -358 -439 -435 -81 -33&#xA;-131 -45 -131 -30 0 31 223 332 330 444 65 69 95 113 82 121 -10 6 -178 -164&#xA;-243 -244 -50 -63 -139 -194 -179 -264 -41 -73 -50 -61 -44 62 13 243 229 526&#xA;481 628 83 33 124 43 183 41 l45 -2 -3 -55z m-1427 -92 c170 -59 298 -159 401&#xA;-313 43 -64 101 -194 116 -260 5 -22 11 -49 15 -60 3 -11 -53 41 -125 116&#xA;-124 129 -316 289 -348 289 -33 0 -6 -31 119 -137 72 -62 170 -151 217 -199&#xA;l85 -86 -55 5 c-110 10 -264 76 -375 160 -154 116 -274 317 -275 460 0 30 5&#xA;40 23 47 32 14 132 3 202 -22z"/>
    <path d="M1522 5496 c-31 -35 -65 -115 -77 -179 -4 -20 -9 -37 -12 -37 -3 0&#xA;-23 16 -46 35 -50 43 -131 75 -166 65 -36 -9 -58 -52 -83 -166 -19 -86 -22&#xA;-129 -22 -334 0 -273 13 -363 68 -475 19 -39 59 -96 88 -128 54 -58 157 -127&#xA;190 -127 23 0 23 2 -6 -127 -57 -257 -84 -475 -86 -692 0 -41 -3 -72 -6 -69&#xA;-3 3 -22 55 -43 114 -71 206 -207 460 -334 626 -80 105 -210 236 -243 244 -64&#xA;16 -78 -38 -41 -155 14 -42 38 -121 53 -176 78 -289 202 -680 244 -770 19 -42&#xA;129 -349 126 -352 -2 -2 -16 15 -31 38 -77 110 -261 246 -358 264 -32 6 -37 5&#xA;-37 -12 0 -10 6 -27 13 -38 38 -55 94 -171 143 -293 30 -75 54 -138 54 -139 0&#xA;-2 -32 28 -71 66 -101 99 -208 154 -246 126 -16 -12 -13 -16 42 -40 104 -46&#xA;224 -154 301 -269 40 -61 64 -72 64 -29 0 46 -88 291 -155 431 -35 72 -60 132&#xA;-56 132 21 0 115 -73 186 -144 103 -103 214 -269 254 -379 15 -39 31 -33 31&#xA;11 0 83 -42 213 -209 650 -120 313 -318 964 -309 1011 7 30 200 -186 289 -324&#xA;29 -43 129 -222 129 -229 0 -2 17 -42 39 -88 48 -102 114 -288 140 -388 20&#xA;-79 26 -132 36 -295 3 -55 8 -113 12 -130 12 -64 -11 -11 -34 77 -72 279 -217&#xA;681 -253 703 -24 15 -20 -8 18 -102 89 -217 168 -474 253 -823 23 -96 44 -177&#xA;46 -179 2 -3 8 0 14 6 8 8 8 76 0 239 -13 250 -16 665 -7 784 14 167 18 209&#xA;32 310 14 102 71 380 79 388 7 7 65 -10 60 -18 -3 -4 -10 -43 -16 -86 -5 -44&#xA;-12 -90 -14 -104 -3 -14 -10 -74 -16 -135 -6 -60 -12 -117 -14 -125 -17 -114&#xA;-25 -495 -14 -675 13 -215 30 -417 39 -475 5 -30 12 -72 15 -93 4 -23 11 -37&#xA;18 -34 8 2 14 51 18 153 5 138 8 157 42 258 43 127 129 309 212 451 127 218&#xA;145 250 145 263 0 27 -19 6 -77 -83 -167 -256 -303 -531 -336 -680 -5 -22 -11&#xA;95 -8 160 4 99 69 314 129 430 87 166 252 346 421 460 97 65 121 76 121 52 0&#xA;-18 -49 -186 -65 -222 -7 -16 -29 -77 -49 -134 -37 -105 -114 -278 -172 -386&#xA;-76 -142 -190 -357 -235 -440 -50 -95 -85 -196 -75 -221 4 -10 35 11 113 78&#xA;144 124 164 139 258 187 78 40 183 77 191 68 3 -2 -17 -29 -44 -58 -76 -84&#xA;-202 -292 -202 -334 0 -32 20 -12 66 68 63 110 114 178 197 264 82 85 85 106&#xA;17 111 -108 8 -308 -90 -453 -220 l-80 -72 26 44 c15 25 45 81 68 125 23 44&#xA;58 109 79 145 245 426 459 997 398 1058 -21 21 -53 13 -129 -35 -198 -126&#xA;-355 -275 -449 -428 -39 -63 -106 -205 -125 -265 -32 -99 -34 -98 -34 20 -1&#xA;107 14 400 24 480 2 19 9 80 15 135 7 55 18 143 26 195 8 52 14 98 14 101 0 3&#xA;33 12 73 18 212 34 388 201 485 461 64 172 99 349 108 550 6 132 5 147 -11&#xA;160 -26 22 -108 18 -188 -9 -38 -13 -69 -21 -71 -20 -1 2 -7 33 -13 69 -15 89&#xA;-36 136 -74 159 -54 33 -125 6 -167 -64 -27 -45 -42 -56 -42 -32 0 20 -68 95&#xA;-101 112 -47 25 -83 19 -117 -19z m130 -53 c50 -48 97 -156 115 -263 l15 -90&#xA;-45 -50 c-25 -28 -59 -71 -76 -97 -25 -38 -32 -43 -37 -27 -22 72 -66 171&#xA;-107 242 -40 70 -47 89 -41 116 10 47 55 157 77 189 23 34 47 30 99 -20z m291&#xA;-1 c19 -20 47 -122 47 -168 0 -28 -6 -36 -52 -62 -29 -17 -65 -42 -80 -56 -33&#xA;-32 -38 -32 -38 -4 0 12 -10 61 -21 109 l-22 87 22 36 c44 71 109 97 144 58z&#xA;m-621 -144 c98 -60 214 -246 257 -412 30 -113 52 -288 50 -390 -2 -94 -23&#xA;-313 -31 -321 -10 -10 -109 15 -157 40 -96 48 -185 145 -221 242 -70 185 -79&#xA;488 -24 768 26 130 30 132 126 73z m938 -100 c0 -58 -3 -86 -31 -263 -17 -108&#xA;-19 -115 -40 -194 -80 -299 -243 -500 -444 -549 -104 -26 -97 -26 -91 10 30&#xA;185 33 459 6 575 l-11 52 52 78 c29 43 89 115 134 159 65 65 99 90 166 123 90&#xA;43 174 69 227 70 l32 1 0 -62z"/>
    <path d="M3347 4769 c-202 -46 -253 -227 -141 -503 5 -13 -11 -5 -47 24 -198&#xA;158 -421 151 -524 -15 -26 -43 -30 -56 -28 -116 4 -133 87 -240 249 -321 l90&#xA;-45 -75 -18 c-201 -46 -295 -102 -345 -208 -50 -107 -43 -192 21 -267 62 -72&#xA;99 -85 243 -84 114 0 187 11 267 41 10 4 -3 -16 -29 -44 -89 -97 -144 -198&#xA;-154 -287 -19 -162 75 -276 228 -276 113 0 228 77 318 213 l40 59 0 -65 c0&#xA;-150 61 -297 141 -343 14 -8 16 -21 9 -99 -5 -49 -14 -146 -20 -215 -6 -69&#xA;-13 -136 -15 -148 -2 -13 -5 -55 -6 -93 -1 -38 -5 -72 -9 -74 -4 -2 -15 22&#xA;-25 53 -40 129 -134 279 -232 373 -160 153 -333 228 -543 235 -140 5 -164 -4&#xA;-168 -60 -5 -57 24 -226 54 -315 50 -150 89 -216 182 -310 95 -94 146 -128&#xA;372 -241 80 -40 174 -92 210 -115 138 -89 139 -96 103 -443 -12 -120 -13 -159&#xA;-4 -179 7 -15 16 -22 20 -17 12 13 29 130 40 274 18 226 21 266 36 555 3 61&#xA;10 162 15 225 5 63 12 151 15 195 7 93 23 261 31 323 5 39 7 42 35 42 l31 0&#xA;-6 -118 c-4 -64 -8 -144 -11 -177 -3 -33 -7 -114 -10 -180 -3 -66 -8 -163 -11&#xA;-215 -13 -235 -31 -916 -24 -924 13 -13 25 -1 84 88 87 131 234 269 349 327&#xA;l38 20 -36 -72 c-42 -83 -115 -249 -115 -261 0 -20 29 -4 75 40 89 85 190 161&#xA;257 192 90 42 258 76 258 52 0 -4 -16 -24 -36 -43 -101 -96 -226 -299 -185&#xA;-299 5 0 35 38 66 85 31 47 92 124 136 171 43 47 79 91 79 98 0 31 -29 38&#xA;-122 34 -143 -7 -251 -54 -368 -158 -30 -27 -58 -50 -61 -50 -3 0 18 49 48&#xA;110 56 115 62 137 39 146 -21 8 -134 -43 -201 -91 -70 -49 -206 -189 -229&#xA;-234 -9 -17 -19 -31 -23 -31 -3 0 -3 60 0 132 4 73 7 167 7 209 l0 76 33 0&#xA;c36 0 289 93 406 149 161 77 316 202 407 330 76 106 163 327 167 427 2 59 -19&#xA;79 -102 96 -134 27 -275 3 -438 -74 -179 -84 -314 -212 -407 -385 l-46 -85 5&#xA;70 c5 80 15 351 16 471 l2 81 39 18 c52 23 105 77 131 134 17 38 21 67 21 163&#xA;1 65 2 118 2 118 1 0 13 -18 28 -41 77 -116 178 -179 288 -179 104 0 173 41&#xA;222 130 25 46 28 60 24 114 -4 41 -15 81 -36 121 -30 59 -40 73 -110 147 l-35&#xA;37 40 -14 c23 -8 79 -20 125 -26 74 -11 94 -10 152 4 130 32 206 119 206 233&#xA;0 33 -5 76 -10 96 -15 51 -89 123 -164 157 -69 32 -106 40 -189 42 -31 1 -57&#xA;6 -57 10 0 5 6 9 14 9 27 0 162 82 207 126 66 65 92 122 93 204 0 55 -5 74&#xA;-28 114 -32 54 -92 101 -150 117 -96 26 -236 -9 -351 -89 -33 -22 -61 -39 -62&#xA;-38 -2 1 13 41 32 89 61 152 60 274 -3 347 -41 49 -120 90 -173 90 -98 0 -228&#xA;-111 -292 -249 l-33 -71 -18 68 c-35 131 -111 242 -196 287 -35 18 -98 24&#xA;-143 14z m121 -68 c118 -61 188 -237 199 -502 l6 -146 -41 -6 c-22 -4 -47 -9&#xA;-54 -12 -11 -5 -20 18 -37 94 -12 55 -28 104 -35 110 -24 20 -26 -13 -7 -81&#xA;10 -35 21 -80 25 -100 7 -36 6 -37 -45 -63 -28 -14 -53 -24 -54 -23 -16 19&#xA;-94 157 -134 239 -55 115 -91 236 -91 308 1 146 146 244 268 182z m635 -57&#xA;c59 -31 86 -73 92 -145 6 -77 -17 -165 -77 -283 -40 -81 -131 -222 -164 -255&#xA;-2 -2 -12 3 -21 11 -10 9 -33 23 -51 32 -23 12 -31 21 -24 29 8 11 62 160 62&#xA;172 0 5 -30 7 -30 3 -1 -17 -70 -173 -77 -173 -4 1 -30 5 -57 9 l-48 9 6 91&#xA;c23 295 157 512 319 515 21 1 52 -6 70 -15z m-1083 -330 c111 -49 191 -122&#xA;311 -279 l68 -90 -26 -27 c-26 -27 -27 -27 -52 -11 -81 54 -203 123 -217 123&#xA;-32 0 -5 -27 92 -88 54 -35 106 -67 114 -72 13 -8 5 -36 -35 -118 -3 -4 -161&#xA;38 -235 64 -180 62 -307 150 -355 245 -56 109 -14 224 98 275 51 23 159 13&#xA;237 -22z m1619 -82 c51 -41 73 -84 73 -140 0 -127 -122 -241 -328 -305 -90&#xA;-29 -264 -71 -267 -65 -12 19 -47 101 -45 102 2 1 43 19 91 40 48 22 90 43 93&#xA;47 15 24 -34 17 -111 -16 l-87 -38 -39 40 -40 39 98 95 c146 141 260 214 368&#xA;234 81 15 149 3 194 -33z m-797 -274 c107 -50 189 -148 214 -256 13 -54 12&#xA;-65 -1 -142 -22 -130 -128 -234 -277 -271 -45 -11 -142 -8 -198 5 -96 23 -192&#xA;105 -238 204 -33 70 -36 178 -8 260 24 70 100 153 174 188 85 40 100 43 192&#xA;41 68 -2 97 -8 142 -29z m-692 -232 c52 -7 98 -11 103 -9 4 2 7 -27 7 -64 l0&#xA;-68 -102 -25 c-60 -15 -104 -31 -106 -39 -4 -11 6 -12 50 -7 30 4 77 14 103&#xA;22 63 18 62 19 70 -13 3 -16 14 -43 22 -61 9 -18 14 -34 12 -36 -19 -17 -183&#xA;-89 -259 -114 -236 -76 -386 -62 -466 44 -25 32 -29 46 -29 98 1 142 123 235&#xA;355 271 107 16 124 17 240 1z m1487 -60 c144 -46 219 -177 164 -285 -30 -58&#xA;-81 -97 -147 -112 -113 -25 -309 18 -489 108 -49 25 -91 46 -92 47 -2 2 36&#xA;109 40 113 1 0 36 -5 77 -12 91 -17 130 -18 130 -5 0 17 -38 30 -120 42 l-80&#xA;11 0 52 c0 28 3 55 8 59 4 4 108 6 232 3 175 -3 237 -8 277 -21z m-1218 -353&#xA;c2 -1 -19 -30 -46 -65 -63 -80 -96 -135 -85 -142 13 -8 24 4 86 86 32 43 62&#xA;81 68 84 11 7 98 -24 98 -35 0 -20 -64 -167 -105 -241 -79 -143 -158 -235&#xA;-234 -275 -114 -58 -259 5 -277 121 -21 144 95 319 317 476 l94 67 40 -37 c22&#xA;-20 41 -38 44 -39z m690 35 c162 -91 281 -200 333 -305 59 -120 41 -200 -60&#xA;-264 -123 -78 -271 -2 -391 201 -45 76 -144 271 -139 275 2 2 21 11 43 21 22&#xA;10 43 19 46 21 4 2 36 -32 73 -77 58 -69 96 -98 96 -72 0 4 -30 44 -66 90&#xA;l-67 83 29 30 c15 16 32 29 37 29 5 0 35 -14 66 -32z m-260 -223 c56 -154 74&#xA;-242 67 -330 -10 -126 -44 -193 -117 -234 -106 -60 -221 -1 -265 137 -33 103&#xA;-20 300 32 480 l16 54 46 -7 c26 -4 48 -8 48 -8 1 -1 4 -48 7 -104 5 -103 10&#xA;-123 29 -123 8 0 9 35 5 114 l-5 114 31 10 c61 19 62 19 106 -103z m-993 -636&#xA;c257 -46 495 -242 605 -500 66 -155 109 -395 83 -462 -3 -9 -26 25 -58 87&#xA;-107 207 -223 354 -396 501 -95 80 -168 131 -176 122 -15 -14 13 -47 92 -107&#xA;167 -128 332 -324 440 -525 46 -86 47 -89 21 -72 -64 41 -141 84 -297 165&#xA;-191 98 -237 128 -304 197 -120 124 -184 273 -217 504 -10 69 -9 85 2 92 19&#xA;12 133 11 205 -2z m1807 -140 c43 -18 40 -45 -31 -240 -42 -118 -125 -243&#xA;-221 -331 -79 -73 -92 -82 -267 -169 -104 -51 -374 -154 -374 -142 0 2 20 34&#xA;45 72 112 171 341 404 504 513 47 32 70 53 63 60 -33 33 -272 -155 -458 -362&#xA;-47 -52 -143 -181 -168 -225 -17 -30 -17 -29 -13 60 10 201 110 412 262 553&#xA;114 104 268 186 406 216 72 15 210 12 252 -5z"/>
    <path d="M3633 3802 c-77 -32 -113 -82 -115 -157 -2 -124 146 -224 253 -170&#xA;73 37 109 88 109 155 0 126 -133 219 -247 172z m147 -58 c61 -52 75 -114 40&#xA;-171 -65 -106 -227 -72 -254 54 -23 103 131 186 214 117z"/>
    <path d="M5533 4415 c-47 -20 -110 -133 -128 -230 l-7 -40 -19 53 c-32 93 -89&#xA;148 -141 134 -40 -10 -61 -98 -39 -168 5 -16 15 -49 22 -74 15 -55 29 -74 42&#xA;-61 5 5 2 50 -9 119 -14 92 -15 114 -4 127 12 14 15 14 33 -2 28 -26 64 -106&#xA;84 -191 9 -41 23 -77 31 -79 17 -7 20 -3 27 37 24 138 75 287 110 320 56 53&#xA;77 -15 50 -159 -34 -180 -31 -228 12 -164 50 74 133 139 133 103 0 -5 7 -10&#xA;15 -10 16 0 31 43 20 59 -10 18 -65 12 -101 -10 l-34 -21 8 49 c4 26 7 77 7&#xA;112 -1 57 -4 66 -28 87 -32 28 -40 28 -84 9z"/>
    <path d="M9441 3995 c-44 -40 -57 -77 -76 -213 l-7 -52 -30 25 c-35 30 -68 40&#xA;-103 31 -45 -11 -60 -97 -29 -162 19 -39 50 -48 40 -11 -24 83 -18 127 15 127&#xA;37 0 75 -37 103 -100 15 -34 33 -59 39 -57 8 2 14 48 19 130 10 202 38 267&#xA;115 267 65 0 68 -56 17 -259 -24 -96 -32 -147 -26 -153 7 -7 17 2 30 28 36 69&#xA;135 150 168 137 19 -7 18 -22 -7 -94 -12 -33 -18 -63 -14 -67 16 -16 76 99 77&#xA;150 2 57 -66 77 -131 37 -18 -11 -35 -19 -37 -17 -1 2 1 21 6 43 9 45 14 101&#xA;11 158 -2 55 -37 87 -96 87 -37 0 -51 -6 -84 -35z"/>
    <path d="M5295 2929 c-80 -23 -134 -132 -142 -290 l-6 -96 -41 45 c-49 54&#xA;-112 98 -165 117 -34 12 -41 12 -51 0 -7 -8 -9 -24 -5 -37 13 -41 148 -288&#xA;158 -288 20 0 -3 77 -51 173 -27 53 -46 97 -42 97 31 0 149 -120 204 -207 46&#xA;-74 51 -61 51 130 0 165 2 174 27 229 24 52 64 88 97 88 54 0 53 -125 -3 -385&#xA;-18 -80 -20 -125 -7 -125 5 0 26 23 46 51 73 102 164 184 183 165 3 -3 -7 -38&#xA;-22 -76 -16 -39 -26 -74 -22 -77 18 -19 96 104 96 153 0 16 -6 38 -13 48 -12&#xA;17 -18 17 -51 6 -20 -6 -64 -37 -97 -68 -65 -60 -67 -58 -38 32 5 16 12 73 15&#xA;126 8 110 -4 160 -41 184 -27 18 -36 18 -80 5z"/>
    <path d="M9298 2545 c-102 -28 -209 -101 -275 -186 -58 -77 -85 -127 -81 -158&#xA;3 -25 4 -25 33 17 98 142 183 221 280 260 32 13 59 21 62 18 2 -2 -9 -19 -25&#xA;-37 -63 -73 -142 -217 -142 -258 0 -36 16 -23 54 47 20 37 68 110 106 162 39&#xA;52 73 101 77 109 6 12 -22 42 -36 40 -3 0 -27 -7 -53 -14z"/>
    <path d="M1538 1979 c-32 -18 -66 -93 -84 -179 -28 -140 -5 -395 36 -395 11 0&#xA;14 10 10 45 -3 25 -5 115 -5 200 1 141 3 160 25 214 29 70 54 90 75 62 26 -35&#xA;35 -118 35 -331 0 -180 2 -215 14 -215 10 0 24 30 41 88 35 116 42 135 83 215&#xA;36 71 137 176 154 159 4 -4 -1 -43 -13 -88 -44 -164 -59 -230 -65 -277 -10&#xA;-88 -1 -87 89 8 75 81 157 138 165 115 2 -4 -10 -40 -27 -79 -17 -39 -28 -71&#xA;-25 -71 2 0 0 -9 -6 -21 -10 -18 -9 -20 6 -17 25 5 97 153 98 203 1 36 -2 40&#xA;-26 43 -37 4 -115 -38 -170 -93 -27 -26 -48 -43 -48 -38 0 4 14 58 30 118 61&#xA;224 62 255 12 255 -35 0 -120 -57 -161 -108 -35 -45 -91 -147 -91 -167 0 -8&#xA;-3 -16 -7 -18 -5 -3 -9 52 -9 122 -2 141 -21 233 -54 251 -24 13 -60 12 -82&#xA;-1z"/>
    <path d="M1114 1835 c-4 -9 5 -33 19 -54 35 -53 92 -167 127 -257 40 -101 59&#xA;-136 69 -129 18 11 -44 199 -104 315 l-34 65 47 -51 c26 -28 70 -88 98 -135&#xA;71 -119 95 -100 34 27 -34 69 -92 139 -163 195 -51 41 -84 49 -93 24z"/>
    <path d="M7638 1762 c-54 -36 -108 -132 -129 -230 l-11 -53 -37 58 c-64 100&#xA;-126 136 -165 97 -37 -37 -6 -220 40 -238 17 -7 17 -9 -1 61 -28 106 -13 169&#xA;31 132 24 -20 92 -140 110 -194 9 -28 20 -54 24 -59 14 -14 37 45 44 112 9 81&#xA;47 193 80 236 30 40 79 61 96 41 15 -18 -2 -115 -39 -230 -29 -90 -34 -114&#xA;-32 -147 2 -30 18 -20 45 26 14 24 46 62 72 85 48 42 131 88 141 77 3 -3 -13&#xA;-33 -36 -67 -22 -34 -41 -69 -41 -78 0 -24 95 75 116 121 16 36 16 40 1 55&#xA;-28 29 -80 19 -144 -26 -31 -22 -58 -39 -60 -37 -2 2 3 32 12 67 24 104 17&#xA;177 -19 201 -20 14 -70 8 -98 -10z"/>
    <path d="M5406 1693 c-4 -5 -14 -23 -22 -42 -21 -50 -18 -112 12 -289 l5 -33&#xA;-61 45 c-48 36 -151 86 -175 86 -14 0 -1 -35 33 -87 21 -32 42 -65 45 -73 22&#xA;-46 77 -135 86 -138 25 -8 0 91 -39 157 -16 28 -25 51 -21 51 28 0 165 -152&#xA;184 -203 3 -8 8 -9 15 -2 7 7 2 64 -19 189 -33 199 -34 273 -6 290 15 9 23 6&#xA;46 -20 37 -41 67 -123 93 -249 29 -143 42 -152 59 -39 15 103 46 187 84 230&#xA;31 36 35 38 50 23 16 -16 16 -26 -4 -162 -33 -227 -28 -260 28 -181 52 72 128&#xA;140 177 159 25 9 48 15 51 12 3 -3 -7 -31 -21 -63 -48 -105 -23 -116 35 -14&#xA;28 48 35 69 30 89 -16 59 -135 28 -221 -58 -38 -38 -49 -45 -45 -28 14 59 22&#xA;119 24 183 2 58 -1 74 -19 97 -44 56 -109 19 -164 -95 -32 -66 -34 -68 -41&#xA;-41 -15 63 -73 170 -103 191 -30 22 -81 29 -96 15z"/>
    <path d="M8475 1568 c-3 -8 11 -49 31 -92 41 -90 114 -308 114 -342 0 -12 5&#xA;-35 11 -51 l12 -28 7 28 c17 56 -25 235 -86 372 -13 32 -22 60 -19 63 3 3 32&#xA;-21 64 -55 84 -86 127 -180 166 -365 5 -26 25 -40 25 -18 0 22 76 177 117 240&#xA;23 36 59 78 79 94 l37 29 -6 -24 c-3 -13 -21 -76 -40 -139 -40 -133 -49 -181&#xA;-36 -201 8 -11 15 -7 37 21 63 83 172 173 189 157 2 -3 -9 -35 -26 -72 -32&#xA;-69 -38 -95 -22 -95 14 0 82 105 98 152 12 36 12 43 -3 59 -28 31 -95 6 -171&#xA;-64 l-44 -41 7 30 c4 16 22 76 39 134 18 58 30 111 28 117 -9 22 -58 14 -100&#xA;-16 -57 -41 -109 -106 -148 -183 l-33 -67 -17 52 c-39 120 -137 257 -209 291&#xA;-53 25 -95 31 -101 14z"/>
    <path d="M2733 1463 c-21 -8 -15 -29 19 -64 52 -56 147 -207 210 -337 33 -68&#xA;63 -121 65 -118 3 2 0 29 -6 58 -15 70 -96 233 -165 333 -30 44 -53 81 -51 83&#xA;2 2 31 -11 66 -29 114 -60 254 -209 319 -341 42 -84 68 -93 41 -15 -28 79 -88&#xA;221 -126 298 -20 38 -31 69 -26 69 5 0 46 -34 90 -76 91 -86 179 -210 231&#xA;-326 33 -74 50 -91 56 -56 3 22 -39 139 -67 185 -44 74 -127 179 -187 236 -54&#xA;51 -147 107 -179 107 -19 0 -26 -40 -10 -58 12 -14 30 -49 66 -127 2 -5 -18&#xA;11 -45 37 -71 68 -96 86 -168 118 -61 28 -104 35 -133 23z"/>
    <path d="M7440 1063 c-30 -12 -70 -45 -65 -54 4 -5 23 -7 43 -4 20 3 48 7 62&#xA;9 14 2 50 -3 80 -10 62 -14 83 -5 57 24 -30 33 -130 52 -177 35z"/>
    <path d="M2393 1045 c-3 -9 -3 -18 0 -21 3 -3 47 -15 99 -26 51 -11 113 -31&#xA;136 -45 52 -29 73 -20 43 19 -47 60 -261 116 -278 73z"/>
  </g>
  <title>Spring Butterfly Garden</title>
  <desc>Spring Butterfly Garden</desc>
</svg>