<?xml version="1.0" standalone="no"?>
<!DOCTYPE svg PUBLIC "-//W3C//DTD SVG 20010904//EN"
 "http://www.w3.org/TR/2001/REC-SVG-20010904/DTD/svg10.dtd">
<svg version="1.0" xmlns="http://www.w3.org/2000/svg"
 width="1024.000000pt" height="1024.000000pt" viewBox="0 0 1024.000000 1024.000000"
 preserveAspectRatio="xMidYMid meet">
<metadata>
Created by potrace 1.16, written by Peter Selinger 2001-2019
</metadata>
<g transform="translate(0.000000,1024.000000) scale(0.100000,-0.100000)"
fill="#000000" stroke="none">
<path d="M0 9470 l0 -770 1183 -2 1182 -3 5 -735 c3 -404 3 -741 1 -747 -1 -7
-6 -11 -10 -9 -6 4 -2288 10 -2343 7 -17 -1 -18 -45 -18 -786 l0 -785 380 0
c373 0 380 0 380 -20 0 -23 -18 -27 -26 -5 -5 12 -58 14 -370 13 l-364 -1 0
-2813 0 -2814 306 0 c275 0 306 2 300 16 -3 9 -6 20 -6 24 0 5 -13 24 -30 43
-28 33 -75 58 -135 73 l-30 8 29 4 c69 9 179 -70 193 -138 l5 -30 359 0 c295
0 359 2 359 13 0 8 -13 33 -30 55 -32 45 -93 82 -140 85 -39 3 -39 17 0 17 71
0 190 -95 190 -152 0 -17 17 -18 400 -18 322 0 400 3 400 13 0 21 -57 104 -79
116 -11 6 -43 16 -73 23 -50 12 -51 13 -19 16 79 8 169 -59 186 -139 l7 -29
369 0 c353 0 369 1 369 19 0 58 -94 130 -170 131 -33 0 -41 3 -30 10 25 16 68
11 118 -14 52 -27 89 -70 98 -116 l7 -30 358 0 c244 0 359 3 359 10 0 45 -69
113 -133 131 -23 7 -46 16 -52 21 -11 10 57 1 91 -12 36 -14 104 -88 111 -120
l6 -30 378 0 c209 0 379 2 379 5 0 3 -9 23 -20 45 -27 52 -74 87 -141 102 -38
9 -47 13 -30 16 73 12 157 -40 193 -118 l23 -50 352 0 c194 0 353 3 353 7 0 3
-11 25 -25 49 -28 48 -98 94 -144 94 -17 0 -31 5 -31 10 0 16 51 11 95 -9 52
-23 100 -72 116 -116 l13 -35 78 0 79 0 -3 524 -3 524 810 6 c446 4 952 6
1125 4 l315 -3 3 -528 2 -527 305 0 c168 0 305 2 305 5 0 3 -9 23 -20 45 -28
56 -80 92 -140 98 -28 2 -50 9 -50 15 0 6 20 8 51 5 70 -7 127 -48 159 -115
l25 -52 373 -1 c253 0 372 3 372 10 0 22 -30 68 -64 98 -22 20 -55 35 -93 43
-44 10 -51 14 -31 17 74 9 166 -48 200 -125 l19 -43 369 0 370 0 -10 26 c-24
63 -96 124 -145 124 -9 0 -14 4 -11 9 4 5 23 4 48 -2 49 -12 112 -72 128 -123
l12 -34 229 0 229 0 0 1309 c0 1262 -1 1309 -18 1313 -10 3 -355 4 -765 3
l-747 -2 -2 733 c-3 726 -3 733 17 738 11 3 356 6 768 6 l747 0 0 796 0 795
-297 -2 -298 -2 -3 747 -2 746 300 0 300 0 0 749 0 750 -22 4 -23 4 23 2 22 1
0 775 0 775 -930 0 -930 0 0 -737 c0 -406 -4 -742 -8 -748 -4 -7 -383 -9
-1109 -7 l-1103 2 0 745 0 745 -25 0 -25 0 0 -745 c0 -410 -3 -745 -7 -745 -5
0 -7 335 -7 745 l2 745 -1127 0 -1126 0 1 -748 c1 -411 -2 -738 -6 -727 -7 18
-10 304 -10 1168 l0 307 -1135 0 -1135 0 -1 -37 c0 -21 0 -356 0 -745 0 -428
-4 -708 -10 -708 -5 0 -8 3 -8 8 1 4 1 339 0 745 l-1 737 -770 0 -770 0 0
-770z m2136 565 c47 -36 77 -105 72 -164 -3 -26 -13 -59 -23 -72 -14 -19 -16
-20 -10 -4 19 51 16 120 -7 165 -34 66 -90 101 -165 103 -68 2 -72 7 -16 17
45 8 103 -10 149 -45z m-1623 24 c50 -26 85 -61 103 -106 18 -41 17 -101 -1
-133 -12 -23 -13 -20 -8 35 4 50 1 67 -19 105 -26 47 -74 87 -117 96 -14 3
-35 9 -46 14 -17 7 -15 9 13 9 18 1 52 -9 75 -20z m772 -17 c73 -51 110 -149
81 -213 l-15 -34 5 46 c6 49 -18 123 -54 162 -21 24 -80 54 -129 67 -35 9 -33
9 17 5 39 -3 67 -13 95 -33z m1555 16 c93 -47 135 -160 91 -246 -27 -53 -45
-64 -20 -13 29 62 25 120 -13 177 -35 52 -78 79 -150 93 l-43 9 45 1 c29 1 62
-7 90 -21z m735 3 c104 -47 149 -150 109 -246 -19 -47 -27 -41 -13 10 15 53 6
109 -25 155 -31 47 -70 69 -151 86 l-60 12 50 1 c29 0 67 -7 90 -18z m780 0
c105 -47 151 -170 98 -261 -9 -16 -12 -17 -7 -5 41 121 -18 230 -148 270 -39
12 -40 14 -13 14 17 0 48 -8 70 -18z m740 0 c89 -41 135 -134 109 -219 -14
-50 -30 -73 -17 -27 14 50 7 110 -18 154 -26 47 -52 66 -123 92 -44 16 -47 18
-21 18 17 0 48 -8 70 -18z m740 0 c53 -24 83 -55 106 -105 21 -47 24 -98 6
-139 -11 -26 -12 -21 -12 46 0 67 -3 80 -30 118 -32 45 -85 78 -144 90 l-36 7
35 1 c19 0 53 -8 75 -18z m3060 0 c105 -47 157 -186 100 -263 -15 -19 -16 -20
-10 -3 4 11 10 43 13 72 8 93 -54 167 -166 198 -46 13 -46 13 -12 14 19 0 53
-8 75 -18z m809 -19 c74 -52 104 -153 66 -227 -11 -22 -17 -29 -13 -15 4 14 7
50 7 82 1 47 -4 63 -29 99 -30 42 -79 75 -138 90 -25 7 -21 8 18 4 32 -3 64
-15 89 -33z m-9174 -724 c88 -53 122 -146 86 -233 -17 -40 -30 -48 -16 -9 6
14 10 46 10 72 0 83 -57 150 -154 183 -50 17 -51 18 -16 18 24 1 55 -10 90
-31z m726 16 c103 -49 149 -173 97 -264 -10 -19 -13 -20 -9 -5 3 11 8 37 12
58 14 82 -59 184 -148 207 -64 17 -67 18 -25 19 22 1 54 -6 73 -15z m869 -22
c78 -54 104 -144 69 -232 -22 -56 -27 -45 -9 18 19 63 8 112 -37 166 -32 39
-127 81 -160 70 -15 -4 -18 -3 -13 6 13 21 104 4 150 -28z m715 15 c97 -49
134 -156 89 -252 -26 -55 -34 -54 -14 0 27 77 10 160 -42 207 -24 22 -84 47
-137 58 l-41 8 50 1 c34 0 65 -7 95 -22z m756 -12 c80 -47 119 -158 78 -225
l-15 -25 7 25 c34 124 -58 238 -195 242 -17 1 -28 5 -24 11 10 16 103 -1 149
-28z m788 -2 c78 -55 107 -151 71 -237 -22 -51 -25 -45 -9 16 19 75 -5 150
-66 201 -33 28 -103 52 -127 43 -8 -4 -11 -2 -7 5 12 20 93 3 138 -28z m736
-1 c33 -20 53 -42 73 -81 30 -60 33 -91 13 -136 -13 -29 -13 -29 -9 16 3 26 0
64 -7 84 -17 53 -89 122 -134 131 -20 3 -39 11 -43 17 -11 18 59 -2 107 -31z
m771 -31 c30 -30 51 -60 58 -86 15 -54 14 -63 -9 -110 -11 -22 -18 -31 -14
-20 14 45 16 95 5 126 -22 67 -110 139 -169 139 -19 0 -23 3 -14 9 27 17 94
-11 143 -58z m3043 21 c55 -38 89 -104 83 -163 -2 -25 -12 -57 -22 -70 -13
-19 -16 -20 -10 -4 12 30 18 102 11 130 -9 35 -74 105 -113 122 -18 7 -49 13
-70 14 -29 0 -33 2 -18 8 29 12 95 -6 139 -37z m717 33 c111 -40 170 -165 118
-255 -11 -19 -17 -26 -13 -15 4 11 9 45 11 75 4 47 1 61 -22 95 -31 48 -75 78
-141 99 -36 11 -42 15 -23 15 15 1 46 -6 70 -14z m-6976 -645 c3 -6 -1 -7 -9
-4 -18 7 -21 14 -7 14 6 0 13 -4 16 -10z m85 0 c0 -5 -2 -10 -4 -10 -3 0 -8 5
-11 10 -3 6 -1 10 4 10 6 0 11 -4 11 -10z m53 3 c-7 -2 -19 -2 -25 0 -7 3 -2
5 12 5 14 0 19 -2 13 -5z m60 0 c-7 -2 -19 -2 -25 0 -7 3 -2 5 12 5 14 0 19
-2 13 -5z m334 0 c-20 -2 -52 -2 -70 0 -17 2 0 4 38 4 39 0 53 -2 32 -4z m502
3 c-8 -8 -78 -10 -85 -3 -4 4 14 7 41 7 27 0 46 -2 44 -4z m125 -5 c-6 -6 -87
-1 -94 6 -2 2 19 3 48 2 28 -1 49 -5 46 -8z m79 2 c-7 -2 -19 -2 -25 0 -7 3
-2 5 12 5 14 0 19 -2 13 -5z m74 1 c-3 -3 -12 -4 -19 -1 -8 3 -5 6 6 6 11 1
17 -2 13 -5z m61 -1 c-10 -2 -26 -2 -35 0 -10 3 -2 5 17 5 19 0 27 -2 18 -5z
m109 1 c-3 -3 -12 -4 -19 -1 -8 3 -5 6 6 6 11 1 17 -2 13 -5z m46 -1 c-7 -2
-19 -2 -25 0 -7 3 -2 5 12 5 14 0 19 -2 13 -5z m80 0 c-13 -2 -33 -2 -45 0
-13 2 -3 4 22 4 25 0 35 -2 23 -4z m120 0 c-13 -2 -33 -2 -45 0 -13 2 -3 4 22
4 25 0 35 -2 23 -4z m85 0 c-10 -2 -28 -2 -40 0 -13 2 -5 4 17 4 22 1 32 -1
23 -4z m55 0 c-7 -2 -19 -2 -25 0 -7 3 -2 5 12 5 14 0 19 -2 13 -5z m220 0
c-7 -2 -21 -2 -30 0 -10 3 -4 5 12 5 17 0 24 -2 18 -5z m4387 -733 c0 -471 -4
-740 -10 -740 -6 0 -9 262 -9 723 0 397 0 727 -1 732 0 7 -159 9 -462 7 -1114
-7 -1718 -6 -1718 0 0 5 314 9 698 10 383 2 878 4 1100 6 l402 3 0 -741z m334
728 c-3 -4 -14 -8 -25 -8 -10 0 -19 4 -19 8 0 4 11 8 24 8 14 0 22 -4 20 -8z
m176 3 c0 -4 -37 -8 -82 -9 -46 -2 -78 1 -71 5 14 10 153 13 153 4z m85 -2 c2
-3 -11 -5 -30 -6 -19 -1 -37 2 -39 6 -5 7 61 7 69 0z m103 3 c7 -5 -8 -8 -37
-8 -27 1 -47 4 -44 9 6 9 65 9 81 -1z m-4741 -8 c-3 -3 -12 -4 -19 -1 -8 3 -5
6 6 6 11 1 17 -2 13 -5z m200 -729 c-1 -404 -4 -732 -9 -727 -13 13 -15 1462
-2 1462 8 0 11 -205 11 -735z m116 728 c-7 -2 -19 -2 -25 0 -7 3 -2 5 12 5 14
0 19 -2 13 -5z m60 0 c-7 -2 -19 -2 -25 0 -7 3 -2 5 12 5 14 0 19 -2 13 -5z
m84 1 c-3 -3 -12 -4 -19 -1 -8 3 -5 6 6 6 11 1 17 -2 13 -5z m50 0 c-3 -3 -12
-4 -19 -1 -8 3 -5 6 6 6 11 1 17 -2 13 -5z m61 -1 c-10 -2 -26 -2 -35 0 -10 3
-2 5 17 5 19 0 27 -2 18 -5z m200 0 c-21 -2 -57 -2 -80 0 -24 2 -7 4 37 4 44
0 63 -2 43 -4z m165 0 c-13 -2 -33 -2 -45 0 -13 2 -3 4 22 4 25 0 35 -2 23 -4z
m60 0 c-7 -2 -19 -2 -25 0 -7 3 -2 5 12 5 14 0 19 -2 13 -5z m80 0 c-7 -2 -21
-2 -30 0 -10 3 -4 5 12 5 17 0 24 -2 18 -5z m80 0 c-13 -2 -33 -2 -45 0 -13 2
-3 4 22 4 25 0 35 -2 23 -4z m84 1 c-3 -3 -12 -4 -19 -1 -8 3 -5 6 6 6 11 1
17 -2 13 -5z m76 -1 c-13 -2 -33 -2 -45 0 -13 2 -3 4 22 4 25 0 35 -2 23 -4z
m60 0 c-7 -2 -19 -2 -25 0 -7 3 -2 5 12 5 14 0 19 -2 13 -5z m60 0 c-7 -2 -21
-2 -30 0 -10 3 -4 5 12 5 17 0 24 -2 18 -5z m125 0 c-21 -2 -55 -2 -75 0 -21
2 -4 4 37 4 41 0 58 -2 38 -4z m125 0 c-13 -2 -33 -2 -45 0 -13 2 -3 4 22 4
25 0 35 -2 23 -4z m64 1 c-3 -3 -12 -4 -19 -1 -8 3 -5 6 6 6 11 1 17 -2 13 -5z
m41 -135 c-2 -77 -6 -143 -10 -145 -5 -3 -7 58 -5 135 2 94 0 142 -7 145 -6 2
-3 5 7 5 16 1 17 -11 15 -140z m2332 137 c0 -3 -4 -8 -10 -11 -5 -3 -10 -1
-10 4 0 6 5 11 10 11 6 0 10 -2 10 -4z m188 -3 c-10 -2 -28 -2 -40 0 -13 2 -5
4 17 4 22 1 32 -1 23 -4z m615 0 c-7 -2 -19 -2 -25 0 -7 3 -2 5 12 5 14 0 19
-2 13 -5z m125 0 c-21 -2 -55 -2 -75 0 -21 2 -4 4 37 4 41 0 58 -2 38 -4z
m-7287 -168 c92 -48 131 -169 82 -255 -10 -19 -13 -20 -9 -5 17 71 17 98 2
140 -23 58 -84 113 -136 121 -22 4 -40 11 -40 16 0 13 65 1 101 -17z m748 -13
c78 -48 111 -147 72 -218 -12 -21 -19 -30 -15 -19 4 11 9 40 11 65 7 81 -58
169 -136 186 -53 11 -68 25 -21 19 25 -3 65 -18 89 -33z m734 22 c99 -50 142
-155 103 -249 -21 -49 -25 -43 -10 14 27 104 -26 193 -138 232 -49 17 -50 18
-20 19 18 0 47 -7 65 -16z m736 -3 c83 -43 132 -134 111 -208 -12 -44 -36 -84
-25 -43 3 14 9 41 12 61 10 68 -53 156 -137 190 -32 13 -38 18 -22 18 12 1 40
-8 61 -18z m752 5 c39 -17 80 -57 103 -103 23 -46 20 -153 -4 -153 -5 0 -4 15
2 33 29 93 -64 210 -182 230 -18 3 -15 5 11 6 20 0 52 -5 70 -13z m800 -20
c57 -38 88 -91 90 -152 1 -28 -3 -59 -9 -70 -9 -15 -10 -11 -6 24 12 90 -49
178 -148 213 l-53 19 43 -4 c24 -2 61 -16 83 -30z m755 15 c47 -22 110 -91
119 -132 8 -37 -2 -96 -21 -129 -10 -16 -13 -18 -9 -5 14 45 17 105 5 139 -22
68 -96 122 -174 128 -21 1 -40 6 -42 10 -10 16 82 7 122 -11z m734 -3 c88 -45
132 -148 98 -229 -17 -41 -18 -42 -11 -9 10 49 5 107 -12 140 -33 64 -126 113
-198 104 -23 -2 -28 -1 -17 6 26 17 94 11 140 -12z m774 -1 c92 -52 131 -159
91 -247 -20 -44 -32 -49 -15 -6 18 48 19 76 5 124 -26 85 -116 145 -205 136
-30 -3 -32 -2 -10 5 44 16 94 11 134 -12z m782 -7 c84 -48 120 -130 94 -211
-7 -21 -17 -39 -21 -39 -5 0 -4 12 1 26 22 56 6 127 -39 178 -22 25 -67 47
-126 61 l-50 13 45 1 c33 1 59 -7 96 -29z m-2786 -130 c0 -5 -5 -10 -11 -10
-5 0 -7 5 -4 10 3 6 8 10 11 10 2 0 4 -4 4 -10z m-3 -115 c-5 -64 -14 -64 -13
-1 1 30 5 52 9 49 4 -2 6 -24 4 -48z m-5 -90 c-2 -14 -6 -25 -8 -25 -2 0 -4
11 -4 25 0 14 4 25 9 25 4 0 6 -11 3 -25z m3 -45 c3 -5 1 -10 -4 -10 -6 0 -11
5 -11 10 0 6 2 10 4 10 3 0 8 -4 11 -10z m0 -30 c3 -5 1 -10 -4 -10 -6 0 -11
5 -11 10 0 6 2 10 4 10 3 0 8 -4 11 -10z m5 -70 c0 -5 -2 -10 -4 -10 -3 0 -8
5 -11 10 -3 6 -1 10 4 10 6 0 11 -4 11 -10z m-6 -65 c3 -8 1 -15 -4 -15 -6 0
-10 7 -10 15 0 8 2 15 4 15 2 0 6 -7 10 -15z m4 -57 c2 -18 -1 -29 -4 -25 -10
10 -14 57 -5 57 4 0 8 -14 9 -32z m2 -78 c0 -52 -15 -52 -16 0 0 22 3 40 8 40
4 0 8 -18 8 -40z m-4018 -41 c81 -41 119 -149 84 -234 -21 -50 -27 -43 -10 11
31 105 -29 200 -151 237 l-50 16 44 -5 c25 -3 62 -14 83 -25z m1486 10 c81
-40 124 -141 95 -225 -8 -24 -19 -44 -23 -44 -5 0 -1 18 8 41 13 34 14 48 4
86 -23 84 -78 135 -164 152 l-43 9 39 1 c22 1 59 -8 84 -20z m747 -18 c82 -55
111 -137 76 -213 -15 -32 -18 -35 -13 -13 15 65 8 120 -21 162 -27 39 -90 83
-120 83 -9 0 -19 4 -22 10 -12 19 60 -2 100 -29z m741 6 c39 -20 92 -80 100
-113 9 -35 -1 -113 -16 -127 -10 -9 -11 -7 -5 11 14 47 7 109 -17 145 -26 40
-89 85 -130 94 -16 3 -28 9 -28 13 0 11 58 -3 96 -23z m751 12 c51 -25 110
-97 119 -146 6 -34 -11 -109 -28 -119 -4 -3 -3 7 2 21 35 92 -26 202 -136 245
-36 14 -42 19 -25 20 14 0 44 -9 68 -21z m794 -2 c88 -47 137 -147 105 -218
l-15 -34 5 50 c10 97 -68 193 -166 203 -27 2 -50 8 -50 13 0 18 78 8 121 -14z
m740 -7 c95 -49 140 -187 83 -256 -15 -19 -16 -19 -9 1 4 11 10 41 12 66 11
103 -82 197 -199 200 -35 1 -39 2 -18 8 36 11 86 4 131 -19z m-4543 -1 c29
-15 54 -37 74 -68 25 -40 29 -53 26 -101 -2 -33 -11 -66 -22 -80 -15 -21 -17
-22 -13 -5 3 11 11 34 17 50 29 72 -34 172 -130 205 -45 16 -50 19 -26 20 16
0 50 -10 74 -21z m5333 -14 c73 -51 109 -153 75 -214 -12 -22 -13 -20 -9 26
12 120 -94 223 -217 211 -21 -2 -36 1 -33 5 3 5 36 7 74 5 56 -3 76 -9 110
-33z m771 -1 c74 -52 109 -159 74 -222 -11 -21 -12 -16 -8 36 8 109 -55 187
-171 212 -42 9 -42 9 11 6 39 -2 64 -11 94 -32z m-2806 -54 c0 -22 -3 -40 -8
-40 -4 0 -8 18 -8 40 0 22 4 40 8 40 4 0 8 -18 8 -40z m0 -111 c-7 -45 -17
-49 -14 -6 1 20 6 37 11 37 4 0 6 -14 3 -31z m-1 -79 c3 -5 1 -10 -4 -10 -6 0
-11 5 -11 10 0 6 2 10 4 10 3 0 8 -4 11 -10z m0 -70 c-1 -22 -5 -43 -9 -47 -3
-4 -6 16 -5 45 1 28 5 49 9 47 4 -2 6 -23 5 -45z m3 -121 c-3 -8 -7 -3 -11 10
-4 17 -3 21 5 13 5 -5 8 -16 6 -23z m2 -59 c0 -16 -4 -30 -9 -30 -5 0 -9 14
-9 30 1 17 5 30 10 30 4 0 8 -13 8 -30z m-6203 -86 c-3 -3 -12 -4 -19 -1 -8 3
-5 6 6 6 11 1 17 -2 13 -5z m-594 -31 c-7 -2 -19 -2 -25 0 -7 3 -2 5 12 5 14
0 19 -2 13 -5z m80 0 c-13 -2 -33 -2 -45 0 -13 2 -3 4 22 4 25 0 35 -2 23 -4z
m54 1 c-3 -3 -12 -4 -19 -1 -8 3 -5 6 6 6 11 1 17 -2 13 -5z m46 -1 c-7 -2
-19 -2 -25 0 -7 3 -2 5 12 5 14 0 19 -2 13 -5z m44 1 c-3 -3 -12 -4 -19 -1 -8
3 -5 6 6 6 11 1 17 -2 13 -5z m56 -1 c-7 -2 -21 -2 -30 0 -10 3 -4 5 12 5 17
0 24 -2 18 -5z m105 0 c-16 -2 -40 -2 -55 0 -16 2 -3 4 27 4 30 0 43 -2 28 -4z
m59 1 c-3 -3 -12 -4 -19 -1 -8 3 -5 6 6 6 11 1 17 -2 13 -5z m40 0 c-3 -3 -12
-4 -19 -1 -8 3 -5 6 6 6 11 1 17 -2 13 -5z m163 -1 c0 -5 -24 -7 -52 -5 -95 5
-104 9 -25 11 42 0 77 -2 77 -6z m348 0 c-54 -2 -142 -2 -195 0 -54 1 -10 3
97 3 107 0 151 -2 98 -3z m1150 0 c-190 -2 -505 -2 -700 0 -194 1 -38 2 347 2
385 0 544 -1 353 -2z m425 0 c-13 -2 -35 -2 -50 0 -16 2 -5 4 22 4 28 0 40 -2
28 -4z m70 0 c-7 -2 -21 -2 -30 0 -10 3 -4 5 12 5 17 0 24 -2 18 -5z m219 0
c-40 -2 -103 -2 -140 0 -37 2 -4 3 73 3 77 0 107 -2 67 -3z m226 0 c-21 -2
-57 -2 -80 0 -24 2 -7 4 37 4 44 0 63 -2 43 -4z m105 0 c-7 -2 -19 -2 -25 0
-7 3 -2 5 12 5 14 0 19 -2 13 -5z m2724 0 c-500 -2 -1314 -2 -1810 0 -496 1
-87 2 908 2 996 0 1401 -1 902 -2z m3570 -643 c2 -373 -1 -650 -6 -650 -5 0
-9 57 -9 128 0 70 0 360 -1 644 l-1 518 -382 3 -383 2 390 3 390 2 2 -650z
m-8840 282 c-1 -53 -3 -7 -3 103 0 110 2 154 3 97 2 -57 2 -147 0 -200z m-216
172 c69 -48 106 -130 89 -196 -15 -53 -29 -57 -17 -4 20 87 -43 181 -145 218
l-53 19 43 -5 c25 -2 61 -16 83 -32z m1213 -198 c161 -58 273 -204 246 -320
-19 -83 -75 -126 -176 -134 -54 -4 -68 -2 -86 14 -12 11 -18 13 -14 7 4 -7 5
-13 2 -13 -3 0 -20 25 -37 55 -17 31 -41 62 -52 70 -33 23 -81 19 -117 -11
-64 -54 -84 -159 -78 -404 3 -105 10 -189 18 -210 49 -133 168 -158 245 -51
19 26 46 53 60 59 72 33 182 -4 222 -74 70 -123 -36 -302 -219 -371 -46 -17
-268 -27 -268 -12 0 5 -7 6 -15 3 -8 -4 -23 0 -32 7 -14 12 -16 12 -8 0 5 -9
-5 -7 -27 7 -19 12 -43 22 -52 22 -9 0 -24 9 -33 19 -9 11 -20 18 -25 15 -5
-3 -7 0 -6 8 2 7 -5 12 -14 12 -10 -1 -16 2 -13 6 2 4 -12 22 -33 41 l-37 34
30 -35 c21 -24 23 -29 6 -15 -41 35 -66 77 -70 118 -1 5 -6 5 -13 1 -6 -4 -8
-3 -5 4 9 13 -2 44 -14 37 -13 -8 -57 143 -70 241 -15 113 -6 344 16 443 40
171 106 282 213 359 102 72 174 93 302 89 66 -2 123 -10 154 -21z m961 9 c88
-23 173 -73 240 -141 69 -69 112 -149 147 -269 21 -73 23 -99 22 -285 -1 -231
-14 -303 -79 -436 -62 -126 -182 -220 -324 -254 -53 -13 -235 -9 -291 5 -14 4
-31 7 -37 7 -7 1 -13 5 -13 10 0 5 -4 7 -9 4 -4 -3 -19 3 -31 14 -22 19 -35
24 -53 21 -5 -1 -6 3 -2 8 5 9 -33 37 -45 33 -3 -1 -5 4 -5 11 -1 6 -7 11 -14
9 -7 -1 -10 2 -6 7 3 6 -8 20 -25 32 -27 21 -47 53 -42 72 1 4 -2 7 -7 7 -5 0
-17 21 -26 48 -10 26 -21 56 -26 67 -52 122 -60 393 -19 595 46 225 181 383
371 434 72 19 201 20 274 1z m2023 0 c201 -47 321 -178 385 -418 19 -72 22
-108 22 -297 0 -194 -2 -223 -23 -295 -58 -200 -159 -309 -335 -360 -68 -20
-282 -24 -316 -6 -12 7 -26 9 -31 6 -6 -3 -10 -1 -10 5 0 7 -7 9 -16 6 -10 -4
-22 1 -31 11 -8 10 -12 12 -8 6 4 -8 1 -11 -9 -7 -8 3 -17 12 -20 20 -3 8 -11
14 -18 14 -9 0 -8 -3 2 -10 9 -6 10 -10 3 -10 -7 0 -17 8 -22 18 -6 9 -11 13
-11 8 0 -5 -16 8 -36 30 -20 21 -33 32 -29 24 10 -23 -33 30 -65 79 -16 24
-27 48 -24 52 3 5 1 9 -4 9 -15 0 -59 147 -71 233 -23 164 -5 414 37 537 64
185 178 303 333 344 71 19 218 20 297 1z m4204 -10 c185 -48 297 -154 299
-283 2 -59 -10 -84 -54 -111 -40 -25 -161 -47 -201 -37 -30 7 -89 63 -81 76 2
4 -7 18 -21 30 -20 20 -35 24 -92 24 -108 1 -163 -44 -200 -163 -13 -45 -17
-93 -17 -236 1 -161 3 -186 23 -236 40 -100 113 -148 206 -136 76 10 116 61
124 155 l4 52 -51 0 c-33 0 -58 6 -68 15 -8 8 -19 13 -24 9 -5 -3 -12 3 -16
13 -4 10 -11 21 -15 24 -30 20 -30 183 0 207 12 9 77 12 244 12 l229 0 24 -25
c24 -23 25 -29 25 -152 -1 -282 -26 -390 -108 -477 -98 -103 -224 -150 -402
-150 -63 0 -134 3 -158 6 -60 9 -113 28 -107 38 3 4 -2 11 -11 14 -10 4 -13 2
-8 -7 3 -6 -4 -1 -17 13 -13 14 -19 19 -14 11 16 -24 -46 23 -86 66 -46 49
-88 109 -68 99 7 -4 5 0 -5 8 -11 9 -16 16 -11 16 5 0 2 6 -7 13 -20 15 -53
114 -69 202 -18 102 -6 378 20 483 58 231 187 375 381 426 75 20 256 20 332 1z
m-5362 -20 c60 -31 60 -29 60 -534 0 -357 3 -462 13 -468 6 -4 81 -10 164 -11
l153 -4 25 -30 c22 -27 25 -38 25 -116 0 -69 -4 -94 -20 -119 -37 -62 -50 -64
-360 -62 -154 0 -282 5 -285 10 -3 4 -11 6 -18 3 -7 -2 -21 3 -32 12 -11 8
-13 12 -5 8 8 -4 4 5 -9 19 l-24 26 -1 612 -1 611 33 29 c32 28 35 29 143 29
79 0 118 -4 139 -15z m2430 -9 c164 -69 250 -216 250 -425 0 -146 -35 -238
-116 -310 -26 -22 -53 -41 -61 -41 -20 0 -14 -16 77 -186 142 -263 143 -267
126 -307 -19 -47 -62 -68 -156 -76 -79 -7 -134 3 -166 29 -14 12 -16 12 -9 1
5 -10 4 -12 -3 -7 -7 4 -12 11 -12 16 0 4 -9 19 -21 32 -21 24 -158 323 -159
346 0 8 -9 26 -20 42 -11 15 -16 31 -12 35 4 5 1 5 -5 1 -7 -4 -13 -2 -13 3 0
6 -5 11 -11 11 -5 0 -7 -5 -3 -12 4 -7 3 -8 -5 -4 -6 4 -20 4 -31 1 -19 -6
-20 -15 -20 -205 0 -109 -4 -210 -10 -224 -13 -36 -49 -56 -111 -61 -94 -8
-157 4 -192 36 l-32 29 -3 616 -3 615 35 35 35 35 303 -3 c270 -3 308 -5 348
-22z m741 14 c49 -27 49 -28 49 -660 0 -635 0 -638 -51 -674 -18 -12 -48 -16
-132 -16 -69 0 -106 4 -102 10 3 6 -1 7 -9 4 -20 -8 -62 38 -70 77 -11 56 -7
1151 5 1192 17 62 53 77 182 77 60 0 117 -5 128 -10z m553 -4 c49 -20 83 -76
252 -409 82 -163 153 -294 157 -291 4 4 7 149 7 321 0 404 -5 393 165 393 114
0 156 -15 179 -65 14 -29 16 -106 16 -614 0 -635 0 -635 -57 -664 -31 -16
-203 -30 -203 -16 0 5 -7 6 -15 3 -42 -16 -111 36 -165 125 -65 107 -189 354
-183 364 3 5 2 7 -4 4 -5 -3 -33 43 -63 104 -29 60 -57 109 -62 109 -4 0 -8
-146 -8 -325 l0 -325 -28 -31 c-27 -30 -34 -32 -108 -36 -83 -5 -162 14 -156
37 1 6 -2 9 -7 6 -5 -3 -17 7 -27 22 -18 25 -19 62 -20 612 -1 334 2 601 7
622 15 60 36 68 172 68 78 0 129 -5 151 -14z m-6547 -133 c-2 -16 -4 -3 -4 27
0 30 2 43 4 28 2 -16 2 -40 0 -55z m0 -186 c-2 -23 -3 -1 -3 48 0 50 1 68 3
42 2 -26 2 -67 0 -90z m0 -69 c-3 -8 -6 -5 -6 6 -1 11 2 17 5 13 3 -3 4 -12 1
-19z m0 -60 c-3 -7 -5 -2 -5 12 0 14 2 19 5 13 2 -7 2 -19 0 -25z m0 -55 c-3
-10 -5 -4 -5 12 0 17 2 24 5 18 2 -7 2 -21 0 -30z m-204 -10 c73 -51 108 -158
73 -221 -11 -21 -12 -16 -8 36 7 98 -48 174 -150 208 l-43 14 44 -4 c27 -3 60
-16 84 -33z m204 -60 c-3 -10 -5 -2 -5 17 0 19 2 27 5 18 2 -10 2 -26 0 -35z
m0 -170 c-3 -10 -5 -4 -5 12 0 17 2 24 5 18 2 -7 2 -21 0 -30z m0 -95 c-3 -7
-5 -2 -5 12 0 14 2 19 5 13 2 -7 2 -19 0 -25z m8843 -290 c0 -127 -2 -229 -6
-226 -10 10 -14 458 -4 458 5 0 9 -104 10 -232z m478 5 c-10 -2 -26 -2 -35 0
-10 3 -2 5 17 5 19 0 27 -2 18 -5z m-9308 -705 c0 -353 -3 -638 -7 -635 -3 4
-6 275 -5 604 1 454 -2 600 -11 612 -10 12 -9 13 1 7 10 -6 13 -3 12 10 -3 26
-1 44 5 44 3 0 5 -289 5 -642z m-266 542 c47 -18 94 -60 115 -104 24 -50 27
-124 6 -152 -13 -17 -14 -15 -8 28 12 93 -59 197 -146 215 -20 4 -39 8 -43 9
-5 1 -11 2 -14 3 -3 0 -3 5 0 10 7 10 52 6 90 -9z m9594 -5 c100 -42 150 -157
106 -244 -22 -44 -26 -35 -8 18 30 87 -31 185 -136 221 -42 15 -49 19 -27 20
15 0 44 -7 65 -15z m-501 -107 c-3 -7 -5 -2 -5 12 0 14 2 19 5 13 2 -7 2 -19
0 -25z m0 -140 c-3 -8 -6 -5 -6 6 -1 11 2 17 5 13 3 -3 4 -12 1 -19z m0 -120
c-3 -8 -6 -5 -6 6 -1 11 2 17 5 13 3 -3 4 -12 1 -19z m-5022 -29 c212 -29 376
-129 466 -284 116 -199 176 -512 150 -785 -7 -69 -16 -141 -21 -160 -9 -32 -9
-32 -4 10 2 25 7 110 11 190 13 333 -79 669 -226 823 -145 152 -375 219 -626
182 -133 -20 -136 -21 -155 -27 -8 -3 -33 -11 -55 -18 -63 -20 -131 -67 -186
-128 -29 -31 -42 -43 -30 -25 33 49 120 122 181 153 136 69 317 94 495 69z
m1672 0 c304 -42 496 -241 575 -597 19 -84 22 -128 22 -332 0 -152 -4 -249
-12 -275 -10 -35 -11 -29 -5 50 8 119 5 307 -8 428 -14 138 -42 237 -99 352
-108 220 -269 332 -506 354 -151 13 -361 -8 -400 -40 -6 -5 -16 -9 -20 -8 -17
2 -54 -13 -49 -21 3 -4 -2 -11 -11 -14 -10 -4 -13 -2 -9 7 4 6 0 4 -8 -5 -8
-10 -19 -18 -25 -18 -6 0 -24 -12 -41 -26 -17 -14 -31 -22 -31 -17 0 16 96 82
161 112 114 51 307 72 466 50z m3350 -36 c-3 -10 -5 -4 -5 12 0 17 2 24 5 18
2 -7 2 -21 0 -30z m-6493 3 c172 -50 291 -165 332 -320 17 -65 17 -219 -1
-271 l-14 -40 7 40 c12 76 4 208 -16 272 -49 157 -154 252 -332 300 -57 16
-113 18 -466 18 -387 0 -403 -1 -425 -20 -21 -18 -22 -18 -9 -1 35 45 52 46
470 43 339 -3 404 -6 454 -21z m4309 2 c15 -6 37 -22 47 -36 19 -23 20 -41 19
-316 0 -160 -4 -300 -9 -311 -5 -12 -9 104 -9 283 -1 330 -2 338 -59 360 -34
14 -267 22 -306 11 -15 -5 -34 -16 -42 -26 -7 -10 -14 -13 -14 -7 0 16 34 44
64 52 38 10 277 3 309 -10z m853 -3 c41 -17 67 -68 58 -115 -9 -42 -27 -51
-19 -8 7 41 -23 94 -62 109 -15 6 -89 11 -164 12 -136 1 -137 1 -176 -28 l-38
-28 29 31 c17 19 46 35 70 41 56 14 259 4 302 -14z m1331 -97 c-3 -7 -5 -2 -5
12 0 14 2 19 5 13 2 -7 2 -19 0 -25z m3 -33 c0 -8 -2 -15 -4 -15 -2 0 -6 7
-10 15 -3 8 -1 15 4 15 6 0 10 -7 10 -15z m-3990 -15 c0 -5 -5 -10 -11 -10 -5
0 -7 5 -4 10 3 6 8 10 11 10 2 0 4 -4 4 -10z m3990 -20 c0 -5 -5 -10 -11 -10
-5 0 -7 5 -4 10 3 6 8 10 11 10 2 0 4 -4 4 -10z m-4020 -14 c0 -2 -8 -10 -17
-17 -16 -13 -17 -12 -4 4 13 16 21 21 21 13z m2700 -26 c-6 -11 -13 -20 -16
-20 -2 0 0 9 6 20 6 11 13 20 16 20 2 0 0 -9 -6 -20z m1320 -78 c0 -15 -2 -15
-10 -2 -13 20 -13 33 0 25 6 -3 10 -14 10 -23z m523 -29 c78 -46 117 -156 82
-233 -10 -22 -22 -40 -27 -40 -5 0 -1 11 7 24 21 32 21 105 0 149 -21 45 -72
91 -119 108 -20 7 -36 16 -36 20 0 11 56 -7 93 -28z m-9610 10 c60 -31 86 -56
106 -104 24 -56 27 -107 7 -135 -13 -17 -14 -15 -9 21 3 22 0 59 -6 81 -15 54
-85 120 -138 130 -21 3 -45 10 -53 15 -29 17 61 9 93 -8z m9087 -25 c0 -18 -2
-20 -9 -8 -6 8 -7 18 -5 22 9 14 14 9 14 -14z m-2 -83 c0 -19 -3 -35 -7 -35
-6 0 -7 35 -2 63 3 20 9 3 9 -28z m-6872 -299 c64 1 120 7 133 14 33 17 36 6
4 -16 -24 -16 -47 -19 -148 -19 l-120 0 -3 150 c-1 83 1 161 5 175 5 15 10
-38 13 -140 l5 -165 111 1z m6871 207 c-3 -10 -5 -2 -5 17 0 19 2 27 5 18 2
-10 2 -26 0 -35z m-5344 12 c-3 -9 -8 -14 -10 -11 -3 3 -2 9 2 15 9 16 15 13
8 -4z m1658 -32 c-12 -20 -14 -14 -5 12 4 9 9 14 11 11 3 -2 0 -13 -6 -23z
m-1680 -20 c-8 -15 -10 -15 -11 -2 0 17 10 32 18 25 2 -3 -1 -13 -7 -23z
m5369 -3 c0 -5 -5 -10 -11 -10 -5 0 -7 5 -4 10 3 6 8 10 11 10 2 0 4 -4 4 -10z
m-3717 -75 c-11 -55 -14 -122 -10 -310 6 -290 18 -346 90 -422 61 -65 193 -82
258 -34 17 13 33 21 35 18 3 -2 -18 -19 -46 -37 -46 -30 -56 -32 -114 -28
-118 7 -190 74 -224 207 -19 75 -28 443 -13 536 11 74 30 149 36 143 1 -1 -4
-34 -12 -73z m-1673 -20 c-6 -37 -11 -156 -10 -265 0 -274 22 -371 102 -447
43 -41 76 -53 148 -53 50 0 65 5 109 34 68 46 65 37 -6 -15 -51 -38 -62 -42
-113 -42 -131 1 -211 80 -246 241 -17 81 -20 387 -4 488 17 116 21 136 26 131
3 -2 0 -35 -6 -72z m5387 -57 c-2 -13 -4 -3 -4 22 0 25 2 35 4 23 2 -13 2 -33
0 -45z m-6667 38 c0 -2 -8 -10 -17 -17 -16 -13 -17 -12 -4 4 13 16 21 21 21
13z m6670 -81 c0 -8 -2 -15 -4 -15 -2 0 -6 7 -10 15 -3 8 -1 15 4 15 6 0 10
-7 10 -15z m-1532 -305 c82 -162 189 -365 236 -450 87 -157 100 -197 73 -234
-11 -15 -12 -12 -9 21 2 28 -5 53 -26 93 -16 30 -71 132 -121 225 -149 276
-311 602 -311 626 0 12 2 20 4 18 2 -2 71 -137 154 -299z m-7300 223 l-1 -58
-6 45 c-6 42 -4 70 5 70 2 0 3 -26 2 -57z m8829 25 c-3 -7 -5 -2 -5 12 0 14 2
19 5 13 2 -7 2 -19 0 -25z m0 -55 c-3 -10 -5 -4 -5 12 0 17 2 24 5 18 2 -7 2
-21 0 -30z m-6399 -12 c9 -5 48 -24 87 -42 89 -41 156 -109 198 -197 30 -63
32 -74 31 -172 0 -70 -6 -120 -17 -150 -13 -37 -15 -39 -9 -10 4 19 7 82 6
140 -1 135 -23 196 -101 280 -42 46 -75 69 -139 100 -46 22 -84 44 -84 50 0
12 5 13 28 1z m-2959 -82 c-17 -11 -219 -12 -219 -1 0 4 53 8 117 9 73 1 111
-2 102 -8z m91 3 c0 -5 -16 -8 -35 -9 -19 -1 -35 2 -35 6 0 4 16 8 35 9 19 1
35 -2 35 -6z m40 -2 c0 -5 -4 -10 -9 -10 -6 0 -13 5 -16 10 -3 6 1 10 9 10 9
0 16 -4 16 -10z m376 0 c-55 -10 -354 -11 -361 0 -2 4 86 8 198 7 115 0 185
-3 163 -7z m781 3 c-9 -9 -716 -10 -730 -1 -7 4 156 8 362 8 206 0 371 -3 368
-7z m40 -731 c2 -403 -1 -732 -5 -732 -4 0 -8 327 -10 726 -1 399 -5 730 -8
736 -4 6 -1 9 7 6 12 -4 14 -122 16 -736z m7103 647 c0 -16 -4 -28 -9 -25 -8
5 -3 56 5 56 2 0 4 -14 4 -31z m-3 -151 c-2 -24 -4 -7 -4 37 0 44 2 63 4 43 2
-21 2 -57 0 -80z m-8152 73 c47 -22 99 -74 114 -114 17 -44 12 -108 -10 -147
-11 -19 -17 -26 -13 -15 4 11 10 47 12 80 3 53 0 66 -26 106 -35 55 -97 89
-163 90 -34 0 -39 2 -24 9 32 14 67 11 110 -9z m792 -28 c53 -42 83 -98 83
-156 0 -44 -22 -117 -35 -117 -3 0 0 10 6 22 14 26 13 110 -1 154 -6 18 -31
50 -54 72 -34 32 -55 42 -92 47 -74 10 -77 15 -7 12 52 -3 69 -8 100 -34z
m1303 -142 c0 -134 2 -160 16 -165 8 -3 61 -4 117 -1 108 5 196 25 217 50 7 8
17 15 22 15 5 0 -4 -11 -20 -25 -17 -14 -35 -25 -41 -25 -6 0 -11 -4 -11 -10
0 -5 -15 -12 -33 -15 -42 -8 -258 -14 -274 -8 -16 6 -19 343 -3 343 6 0 10
-60 10 -159z m4204 15 c-3 -21 -8 -35 -11 -32 -2 2 -1 20 3 40 3 21 8 35 11
32 2 -2 1 -20 -3 -40z m-1669 -36 c-12 -39 -14 -40 -9 -10 8 49 16 77 21 65 2
-6 -4 -30 -12 -55z m2323 -440 c-11 -27 -13 4 -10 197 3 301 16 338 20 56 2
-162 -1 -231 -10 -253z m1202 445 c0 -8 -2 -15 -4 -15 -2 0 -6 7 -10 15 -3 8
-1 15 4 15 6 0 10 -7 10 -15z m-1879 -56 c-5 -13 -10 -19 -10 -12 -1 15 10 45
15 40 3 -2 0 -15 -5 -28z m1879 6 c0 -14 -4 -25 -9 -25 -4 0 -6 11 -3 25 2 14
6 25 8 25 2 0 4 -11 4 -25z m-1899 -62 c-12 -20 -14 -14 -5 12 4 9 9 14 11 11
3 -2 0 -13 -6 -23z m1899 17 c0 -5 -4 -10 -10 -10 -5 0 -10 5 -10 10 0 6 5 10
10 10 6 0 10 -4 10 -10z m0 -30 c0 -5 -2 -10 -4 -10 -3 0 -8 5 -11 10 -3 6 -1
10 4 10 6 0 11 -4 11 -10z m0 -35 c0 -8 -2 -15 -4 -15 -2 0 -6 7 -10 15 -3 8
-1 15 4 15 6 0 10 -7 10 -15z m-5209 -72 c-12 -20 -14 -14 -5 12 4 9 9 14 11
11 3 -2 0 -13 -6 -23z m5206 -95 l1 -53 -9 44 c-7 38 -5 61 5 61 2 0 3 -24 3
-52z m3 -190 c0 -16 -3 -19 -11 -11 -6 6 -8 16 -5 22 11 17 16 13 16 -11z
m-7366 -46 c80 -55 109 -136 80 -224 -8 -26 -20 -48 -26 -48 -6 0 -4 7 3 17
19 23 17 130 -4 170 -27 51 -85 92 -142 100 -42 6 -46 8 -25 14 36 9 69 1 114
-29z m-774 6 c65 -34 102 -86 108 -151 3 -37 -1 -63 -12 -85 -9 -18 -19 -32
-22 -32 -2 0 0 9 6 19 5 11 10 40 10 64 0 112 -72 182 -205 200 -19 3 -12 5
20 6 35 1 64 -6 95 -21z m8140 -74 c0 -51 -4 -83 -10 -79 -5 3 -7 36 -5 73 2
37 4 73 4 80 1 6 3 12 6 12 3 0 5 -39 5 -86z m0 -189 c0 -52 -3 -95 -8 -95 -4
0 -7 43 -7 95 0 52 3 95 8 95 4 0 7 -43 7 -95z m-4 -142 c-10 -10 -19 5 -10
18 6 11 8 11 12 0 2 -7 1 -15 -2 -18z m4 -44 c0 -16 -4 -28 -9 -25 -8 5 -3 56
5 56 2 0 4 -14 4 -31z m-2 -65 c0 -17 -3 -22 -8 -13 -5 6 -6 18 -3 26 8 19 11
16 11 -13z m-4810 -841 c1 -500 -1 -753 -8 -753 -5 0 -10 4 -10 10 0 6 -382
11 -1112 12 l-1113 3 -1 737 -2 738 362 2 c198 2 703 3 1121 3 l760 0 3 -752z
m-2290 717 c0 -16 -4 -30 -10 -30 -6 0 -8 11 -6 25 l5 25 -771 3 -771 2 776 3
776 2 1 -30z m4544 18 c3 -7 5 -64 6 -125 1 -84 -1 -113 -11 -113 -8 0 -8 -3
-1 -8 13 -9 17 -392 3 -392 -8 0 -13 22 -10 42 2 12 1 163 -2 388 l-2 205
-1092 0 c-601 0 -1093 3 -1093 8 0 4 495 7 1099 7 870 0 1100 -3 1103 -12z
m2270 -8 c-2 -8 -3 -123 -3 -255 0 -249 0 -333 -1 -571 -1 -78 2 -146 6 -153
4 -6 4 -11 -1 -11 -4 0 -8 -20 -7 -45 0 -25 -3 -45 -7 -45 -4 0 -8 241 -8 536
0 295 -3 539 -6 542 -2 3 -493 5 -1090 5 -617 0 -1085 3 -1085 8 0 5 473 8
1103 7 966 -3 1102 -5 1099 -18z m416 13 c-64 -2 -172 -2 -240 0 -68 1 -15 3
117 3 132 0 187 -2 123 -3z m480 0 c-64 -2 -172 -2 -240 0 -68 1 -15 3 117 3
132 0 187 -2 123 -3z m615 0 c-89 -2 -237 -2 -330 0 -92 1 -19 3 162 3 182 0
257 -2 168 -3z m305 0 c-27 -2 -69 -2 -95 0 -27 2 -5 3 47 3 52 0 74 -1 48 -3z
m-8630 -344 c-1 -148 -6 -269 -10 -269 -4 0 -8 124 -8 275 0 174 4 274 10 270
6 -4 9 -112 8 -276z m-1065 186 c108 -45 164 -158 123 -250 -13 -28 -14 -27
-9 27 7 75 0 101 -44 149 -43 47 -82 70 -138 80 l-40 6 36 2 c20 0 52 -6 72
-14z m768 -12 c93 -48 140 -145 106 -223 l-16 -35 6 47 c11 96 -62 201 -149
215 -44 6 -61 23 -25 23 13 0 48 -12 78 -27z m3072 16 c106 -29 175 -162 132
-254 l-14 -30 5 38 c19 122 -62 231 -178 239 -20 1 -34 6 -32 10 7 11 42 10
87 -3z m762 -10 c98 -46 154 -171 111 -248 -12 -22 -13 -20 -9 26 9 90 -31
164 -110 204 -22 12 -58 22 -79 23 -21 0 -38 4 -38 9 0 15 82 6 125 -14z m752
-3 c67 -31 105 -86 111 -159 2 -34 -1 -58 -10 -70 -12 -15 -13 -12 -10 28 5
63 -21 129 -65 162 -19 15 -65 35 -102 44 l-66 17 45 1 c28 1 65 -8 97 -23z
m758 13 c92 -25 163 -149 135 -236 -18 -57 -28 -60 -17 -6 22 113 -59 228
-167 235 -20 2 -36 6 -36 11 0 10 39 9 85 -4z m750 -8 c50 -23 78 -53 105
-114 22 -50 20 -96 -7 -149 -19 -39 -23 -35 -7 10 17 49 17 71 -1 123 -28 79
-91 128 -169 132 -24 1 -42 5 -39 10 8 13 78 7 118 -12z m740 0 c72 -32 125
-113 125 -189 0 -25 -27 -89 -41 -97 -4 -3 -1 15 8 40 23 69 11 127 -39 181
-40 43 -75 61 -136 67 -50 6 -51 17 -1 17 24 0 62 -9 84 -19z m811 -7 c67 -32
123 -138 109 -205 -10 -45 -24 -44 -18 1 11 79 -61 190 -134 205 -16 4 -37 11
-48 16 -15 7 -12 8 17 5 20 -3 53 -12 74 -22z m765 -1 c74 -38 114 -96 114
-166 0 -35 -6 -60 -19 -77 -14 -18 -16 -20 -11 -5 18 45 17 102 -4 142 -24 48
-81 101 -119 109 -15 3 -38 10 -52 14 -24 8 -24 8 6 9 17 1 55 -11 85 -26z
m-8115 -813 c-1 -193 -6 -353 -9 -357 -4 -3 -7 154 -7 350 0 228 4 357 10 357
6 0 9 -124 6 -350z m4554 315 c0 -8 -4 -15 -10 -15 -5 0 -10 7 -10 15 0 8 5
15 10 15 6 0 10 -7 10 -15z m-6 -40 c3 -8 1 -15 -4 -15 -6 0 -10 7 -10 15 0 8
2 15 4 15 2 0 6 -7 10 -15z m-3 -66 c-9 -22 -10 -22 -10 -3 -1 11 2 24 6 27
12 12 14 0 4 -24z m5 -139 c-1 -49 -5 -92 -8 -95 -3 -3 -5 37 -5 90 0 52 4 95
7 95 4 0 7 -40 6 -90z m-5557 1 c66 -47 96 -144 67 -213 -20 -47 -28 -49 -15
-6 20 70 5 132 -45 186 -26 29 -88 62 -116 62 -12 0 -19 4 -15 9 8 13 86 -11
124 -38z m3796 25 c90 -41 145 -132 130 -212 -9 -49 -27 -54 -19 -6 7 46 -8
99 -38 138 -33 41 -107 84 -147 85 -29 0 -32 2 -16 9 30 13 36 12 90 -14z
m760 -4 c85 -47 133 -150 102 -222 l-14 -35 5 47 c7 70 -32 148 -94 188 -29
18 -61 30 -81 30 -18 0 -33 5 -33 10 0 19 66 9 115 -18z m748 0 c42 -23 92
-100 101 -150 3 -25 1 -52 -7 -72 -14 -31 -14 -31 -13 27 1 111 -81 201 -187
204 -31 2 -43 5 -35 11 19 13 105 1 141 -20z m-4564 -15 c47 -31 91 -109 91
-160 0 -19 -7 -51 -15 -71 -17 -41 -30 -50 -15 -10 43 111 -40 244 -161 260
-65 9 -63 17 3 12 39 -3 69 -13 97 -31z m5332 10 c102 -54 150 -187 95 -262
-11 -16 -12 -11 -3 33 23 109 -46 207 -165 235 l-63 15 46 1 c30 1 61 -7 90
-22z m773 -16 c52 -36 86 -99 86 -160 0 -37 -22 -101 -36 -101 -2 0 0 9 6 20
20 37 14 116 -12 162 -31 57 -103 101 -163 100 -29 0 -43 4 -39 10 13 21 111
1 158 -31z m698 25 c65 -28 128 -119 128 -187 0 -26 -21 -79 -31 -79 -6 0 -5
10 2 21 15 29 5 101 -21 148 -28 48 -80 82 -149 97 l-56 12 46 1 c26 1 62 -5
81 -13z m834 -21 c69 -41 105 -119 90 -198 -3 -18 -13 -42 -21 -53 -14 -18
-14 -17 -5 10 40 112 -21 221 -145 260 l-50 15 44 -4 c24 -3 63 -16 87 -30z
m751 16 c81 -37 132 -149 103 -224 -7 -17 -18 -36 -23 -42 -7 -7 -7 -3 -2 10
29 72 7 163 -51 214 -30 27 -54 37 -129 54 -11 3 -2 5 20 6 22 0 59 -8 82 -18z
m-3573 -196 c-4 -8 -10 -12 -15 -9 -11 6 -2 24 11 24 5 0 7 -7 4 -15z m2262
-87 c-9 -63 -15 -57 -15 13 1 48 3 59 11 46 5 -10 7 -37 4 -59z m-2258 3 c-1
-59 -15 -70 -16 -12 -1 28 2 51 8 51 5 0 9 -17 8 -39z m2255 -81 c3 -11 1 -20
-4 -20 -5 0 -9 9 -9 20 0 11 2 20 4 20 2 0 6 -9 9 -20z m-2253 -15 c0 -8 -2
-15 -4 -15 -2 0 -6 7 -10 15 -3 8 -1 15 4 15 6 0 10 -7 10 -15z m2253 -30 c4
-8 2 -17 -3 -20 -6 -4 -10 3 -10 14 0 25 6 27 13 6z m-2253 -37 c0 -5 -4 -8
-10 -8 -5 0 -10 10 -10 23 0 18 2 19 10 7 5 -8 10 -18 10 -22z m2260 -19 c0
-11 -4 -18 -10 -14 -5 3 -7 12 -3 20 7 21 13 19 13 -6z m-6823 -76 c-2 -16 -4
-3 -4 27 0 30 2 43 4 28 2 -16 2 -40 0 -55z m4550 40 c-3 -10 -5 -4 -5 12 0
17 2 24 5 18 2 -7 2 -21 0 -30z m2273 -43 c0 -5 -2 -10 -4 -10 -3 0 -8 5 -11
10 -3 6 -1 10 4 10 6 0 11 -4 11 -10z m-5 -30 c3 -5 1 -10 -4 -10 -6 0 -11 5
-11 10 0 6 2 10 4 10 3 0 8 -4 11 -10z m-8307 -57 c-10 -2 -26 -2 -35 0 -10 3
-2 5 17 5 19 0 27 -2 18 -5z m55 0 c-7 -2 -19 -2 -25 0 -7 3 -2 5 12 5 14 0
19 -2 13 -5z m75 0 c-10 -2 -28 -2 -40 0 -13 2 -5 4 17 4 22 1 32 -1 23 -4z
m260 0 c-42 -2 -114 -2 -160 0 -46 1 -11 3 77 3 88 0 125 -2 83 -3z m581 3
c-7 -7 -479 -9 -486 -2 -3 2 107 5 243 6 136 0 246 -2 243 -4z m104 -3 c-18
-2 -48 -2 -65 0 -18 2 -4 4 32 4 36 0 50 -2 33 -4z m655 2 c-7 -7 -610 -7
-616 0 -3 3 136 5 308 5 172 0 311 -2 308 -5z m81 1 c-11 -9 -69 -14 -69 -6 0
6 17 10 37 10 20 0 34 -2 32 -4z m88 -3 c-41 -3 -56 -7 -50 -16 4 -7 0 -7 -10
2 -9 7 -17 15 -17 17 0 2 30 3 68 2 l67 -2 -58 -3z m186 0 c-18 -2 -48 -2 -65
0 -18 2 -4 4 32 4 36 0 50 -2 33 -4z m167 -1 c0 -4 -21 -6 -47 -4 -76 5 -83
10 -15 11 34 0 62 -2 62 -7z m55 -20 c-2 -9 -4 -34 -4 -54 -1 -21 -5 -38 -9
-38 -10 0 -16 96 -7 110 9 15 24 2 20 -18z m90 18 c3 -6 -4 -10 -17 -10 -18 0
-20 2 -8 10 19 12 18 12 25 0z m531 -8 c-2 -4 -105 -6 -228 -4 -122 1 -218 6
-211 10 14 9 445 3 439 -6z m5604 13 c0 -7 -30 -13 -34 -7 -3 4 4 9 15 9 10 1
19 0 19 -2z m127 -1 c-3 -3 -12 -4 -19 -1 -8 3 -5 6 6 6 11 1 17 -2 13 -5z
m57 -2 c3 -5 -1 -9 -9 -9 -8 0 -15 4 -15 9 0 4 4 8 9 8 6 0 12 -4 15 -8z m66
-7 c0 -2 -6 -5 -13 -8 -8 -3 -14 1 -14 8 0 7 6 11 14 8 7 -3 13 -6 13 -8z
m320 11 c0 -3 -4 -8 -10 -11 -5 -3 -10 -1 -10 4 0 6 5 11 10 11 6 0 10 -2 10
-4z m450 -6 c0 -5 -7 -7 -15 -4 -8 4 -15 8 -15 10 0 2 7 4 15 4 8 0 15 -4 15
-10z m-7087 -7 c-7 -2 -19 -2 -25 0 -7 3 -2 5 12 5 14 0 19 -2 13 -5z m535 0
c-10 -2 -28 -2 -40 0 -13 2 -5 4 17 4 22 1 32 -1 23 -4z m139 -3 c-16 -5 -38
-5 -50 0 -17 7 -10 9 28 9 43 -1 46 -2 22 -9z m433 3 c0 -9 -389 -7 -398 1 -3
3 85 6 196 6 111 0 202 -3 202 -7z m70 -3 c0 -13 -11 -13 -30 0 -12 8 -11 10
8 10 12 0 22 -4 22 -10z m1610 -22 c0 -32 -9 -34 -14 -1 -3 17 -33 18 -789 18
-432 0 -789 4 -793 7 -4 4 354 8 795 8 l801 0 0 -32z m3586 20 c-12 -7 -21 -7
-28 0 -6 6 0 10 18 10 23 0 24 -2 10 -10z m651 6 c-3 -3 -12 -4 -19 -1 -8 3
-5 6 6 6 11 1 17 -2 13 -5z m-4240 -84 c-2 -11 -6 -22 -9 -26 -4 -3 -5 2 -3
13 2 10 4 21 4 26 1 4 3 7 6 7 3 0 4 -9 2 -20z m-2949 -509 c0 -237 -4 -433
-8 -436 -5 -3 -8 203 -8 457 1 255 5 451 8 437 4 -15 8 -221 8 -458z m2948
444 c1 -14 -2 -22 -7 -19 -11 6 -12 44 -1 44 4 0 8 -11 8 -25z m-4009 -41 c40
-30 83 -114 82 -159 0 -16 -6 -43 -14 -60 -13 -30 -13 -30 -8 15 13 117 -74
230 -177 230 -17 0 -29 4 -26 9 10 16 107 -8 143 -35z m802 21 c69 -35 117
-122 107 -189 -11 -69 -21 -68 -21 2 0 55 -4 73 -25 102 -42 61 -92 87 -170
90 -37 2 -40 3 -20 9 33 10 97 3 129 -14z m772 -6 c71 -36 105 -106 96 -195
-3 -29 -13 -64 -21 -76 -20 -29 -20 -19 0 32 18 45 14 102 -12 151 -20 40 -89
88 -136 95 -21 4 -38 11 -38 16 0 14 66 1 111 -23z m1545 -33 c47 -46 70 -107
59 -162 -8 -47 -21 -50 -17 -4 10 105 -78 208 -182 211 -29 1 -30 1 -6 8 42
12 100 -9 146 -53z m5269 30 c78 -42 127 -155 94 -219 -13 -24 -14 -21 -14 42
0 58 -4 73 -27 103 -37 49 -90 80 -146 86 -35 4 -42 7 -27 12 28 11 73 1 120
-24z m-9278 18 c-3 -3 -12 -4 -19 -1 -8 3 -5 6 6 6 11 1 17 -2 13 -5z m141
-31 c69 -56 103 -161 68 -208 -13 -18 -14 -15 -9 26 10 89 -50 172 -149 205
l-43 14 48 -4 c35 -3 59 -12 85 -33z m3041 18 c69 -36 122 -117 121 -186 -1
-11 -10 -36 -21 -55 -20 -35 -20 -35 -13 -5 19 78 6 136 -44 188 -36 39 -76
58 -137 67 l-50 8 53 1 c35 1 66 -6 91 -18z m1490 -1 c88 -45 138 -155 107
-235 l-16 -40 6 50 c13 117 -55 206 -177 235 l-34 8 38 1 c21 1 55 -8 76 -19z
m3049 5 c47 -20 79 -50 103 -97 22 -44 25 -116 5 -144 -13 -17 -14 -15 -9 23
15 113 -50 199 -170 223 l-42 8 38 1 c21 1 54 -6 75 -14z m798 -17 c72 -50
107 -132 88 -205 -10 -38 -19 -26 -16 22 8 92 -60 176 -161 201 l-52 12 46 1
c37 1 57 -6 95 -31z m-3616 -18 c0 -11 -4 -20 -10 -20 -5 0 -10 9 -10 20 0 11
5 20 10 20 6 0 10 -9 10 -20z m-1 -165 c-1 -74 -5 -135 -10 -135 -8 0 -10 248
-2 263 11 19 13 -2 12 -128z m-849 -59 c0 -3 -4 -8 -10 -11 -5 -3 -10 -1 -10
4 0 6 5 11 10 11 6 0 10 -2 10 -4z m847 -281 c1 -102 -2 -187 -6 -190 -4 -2
-8 83 -8 190 0 107 3 193 7 190 3 -2 7 -88 7 -190z m-4 -220 c-3 -9 -8 -14
-10 -11 -3 3 -2 9 2 15 9 16 15 13 8 -4z m0 -86 c-8 -29 -13 -23 -13 14 0 22
3 28 9 18 5 -7 6 -22 4 -32z"/>
<path d="M1510 6629 c0 -32 28 -59 61 -58 23 1 23 1 -6 14 -16 7 -35 26 -42
41 l-12 29 -1 -26z"/>
<path d="M1750 6559 c0 -23 35 -52 57 -46 15 3 14 6 -9 15 -14 6 -31 19 -37
29 -9 15 -10 15 -11 2z"/>
<path d="M1230 6542 c0 -33 29 -72 53 -72 21 0 21 0 -2 16 -13 9 -29 31 -37
48 -11 27 -13 28 -14 8z"/>
<path d="M1206 6275 c11 -28 35 -44 64 -44 l25 0 -25 10 c-14 6 -35 20 -48 32
-22 20 -23 20 -16 2z"/>
<path d="M1171 6035 c-1 -11 3 -25 7 -31 8 -13 46 -34 61 -34 21 0 11 18 -14
24 -13 3 -31 19 -39 34 -13 23 -15 24 -15 7z"/>
<path d="M1210 5778 c0 -25 32 -57 65 -64 21 -4 27 -3 20 4 -5 5 -19 12 -30
14 -11 2 -25 13 -31 26 -15 31 -24 38 -24 20z"/>
<path d="M1730 5671 c0 -10 7 -24 15 -31 13 -11 13 -8 4 19 -12 35 -19 40 -19
12z"/>
<path d="M1361 5575 c-1 -27 17 -45 44 -45 18 1 18 2 -4 14 -14 8 -28 22 -32
32 -7 18 -8 18 -8 -1z"/>
<path d="M1581 5543 c-1 -29 32 -63 62 -63 19 0 18 2 -11 20 -18 11 -37 30
-42 43 l-9 22 0 -22z"/>
<path d="M2491 6628 c-1 -25 35 -58 62 -57 19 0 18 2 -10 16 -17 9 -36 25 -41
37 -9 17 -11 18 -11 4z"/>
<path d="M2777 6573 c-9 -15 9 -53 25 -53 7 0 7 4 0 13 -5 6 -12 21 -14 32 -2
14 -6 16 -11 8z"/>
<path d="M2240 6501 c0 -9 30 -24 36 -18 2 1 -6 8 -16 15 -11 7 -20 8 -20 3z"/>
<path d="M2540 6462 c-44 -22 -59 -36 -78 -73 -32 -63 -51 -183 -52 -319 0
-258 50 -360 177 -360 42 0 96 28 112 59 29 53 42 157 41 324 0 188 -13 269
-50 320 -13 16 -16 27 -9 23 8 -4 3 1 -11 12 -13 11 -27 20 -30 20 -27 -2 -50
4 -45 12 8 13 8 13 -55 -18z"/>
<path d="M2183 6288 c10 -25 20 -34 43 -36 l29 -3 -25 13 c-14 7 -29 23 -35
36 -15 35 -27 26 -12 -10z"/>
<path d="M2871 6304 c-1 -30 43 -76 65 -67 15 6 14 8 -7 15 -14 5 -33 23 -42
41 -13 26 -16 28 -16 11z"/>
<path d="M2880 6045 c0 -25 32 -55 58 -54 20 1 22 2 7 6 -11 2 -30 16 -42 31
-13 15 -23 22 -23 17z"/>
<path d="M2160 6024 c0 -31 33 -56 67 -51 l28 4 -28 2 c-19 1 -33 10 -47 34
-17 26 -20 28 -20 11z"/>
<path d="M2190 5781 c0 -19 56 -71 77 -71 16 1 16 2 -2 11 -11 6 -32 25 -47
42 -16 17 -28 25 -28 18z"/>
<path d="M2850 5736 c0 -13 28 -36 44 -36 13 0 4 16 -19 33 -21 15 -25 16 -25
3z"/>
<path d="M2410 5579 c0 -30 28 -59 56 -59 16 1 15 3 -6 15 -14 7 -30 26 -37
42 l-12 28 -1 -26z"/>
<path d="M2670 5559 c0 -23 33 -49 61 -48 20 1 21 2 4 6 -11 2 -30 16 -42 31
-16 19 -23 22 -23 11z"/>
<path d="M4541 6614 c-1 -23 28 -54 50 -54 8 0 4 9 -13 23 -14 12 -28 29 -31
37 -4 10 -6 8 -6 -6z"/>
<path d="M4267 6573 c11 -33 25 -43 57 -42 l31 1 -32 9 c-18 5 -35 18 -38 29
-4 11 -10 20 -15 20 -5 0 -7 -8 -3 -17z"/>
<path d="M4771 6559 c-1 -18 6 -29 24 -37 14 -6 25 -8 25 -3 0 5 -7 11 -15 15
-9 3 -20 16 -25 28 -9 23 -9 23 -9 -3z"/>
<path d="M4602 6470 c-116 -17 -161 -122 -162 -379 0 -156 12 -241 43 -296 42
-75 121 -104 186 -71 35 18 52 45 77 116 27 78 27 406 0 490 -9 30 -17 63 -17
72 0 10 -5 21 -11 24 -7 5 -8 2 -4 -7 4 -8 0 -5 -8 5 -9 11 -16 24 -16 29 0 4
-4 6 -9 2 -5 -3 -15 1 -23 8 -9 8 -27 10 -56 7z"/>
<path d="M4180 6334 c0 -30 37 -74 63 -74 20 1 19 2 -6 16 -16 9 -35 30 -42
47 -11 25 -14 28 -15 11z"/>
<path d="M4890 6325 c0 -36 54 -76 99 -74 9 0 -3 7 -27 16 -28 10 -46 23 -52
39 -8 21 -20 33 -20 19z"/>
<path d="M4181 6054 c-1 -11 5 -27 12 -36 16 -21 53 -32 62 -18 3 5 -2 10 -13
10 -19 0 -45 23 -55 50 -4 11 -6 9 -6 -6z"/>
<path d="M4910 6050 c0 -32 30 -60 63 -59 l32 1 -32 9 c-19 6 -39 21 -47 37
-9 15 -15 20 -16 12z"/>
<path d="M4186 5775 c12 -33 25 -45 53 -44 l26 0 -25 10 c-14 5 -33 20 -43 32
-16 20 -17 20 -11 2z"/>
<path d="M4890 5763 c0 -27 35 -53 70 -52 23 0 22 2 -9 13 -18 6 -39 23 -47
36 -13 24 -13 24 -14 3z"/>
<path d="M4391 5555 c-1 -28 18 -45 49 -44 l25 1 -26 9 c-15 5 -31 20 -37 32
-10 21 -11 21 -11 2z"/>
<path d="M4701 5562 c-2 -26 20 -52 42 -51 l22 0 -21 11 c-12 5 -27 20 -32 32
-6 11 -11 15 -11 8z"/>
<path d="M8677 6633 c-12 -20 11 -62 38 -69 14 -3 29 -4 32 0 4 3 0 6 -9 6
-19 0 -45 29 -50 55 -2 13 -6 16 -11 8z"/>
<path d="M8427 6593 c-15 -23 12 -63 43 -63 11 0 9 5 -7 18 -11 9 -23 26 -25
37 -2 13 -6 16 -11 8z"/>
<path d="M8945 6550 c12 -23 22 -30 43 -29 26 0 26 1 5 9 -12 5 -28 18 -35 30
-20 31 -30 24 -13 -10z"/>
<path d="M9048 6533 c7 -3 16 -2 19 1 4 3 -2 6 -13 5 -11 0 -14 -3 -6 -6z"/>
<path d="M8360 6304 c0 -13 47 -50 54 -43 2 2 -9 16 -25 30 -18 17 -29 22 -29
13z"/>
<path d="M8340 6044 c0 -31 33 -56 67 -51 l28 4 -28 2 c-19 1 -33 10 -47 34
-17 26 -20 28 -20 11z"/>
<path d="M9082 6044 c8 -9 23 -14 33 -12 12 2 7 7 -16 15 -30 12 -32 11 -17
-3z"/>
<path d="M8350 5784 c0 -28 30 -54 61 -53 l24 1 -26 10 c-14 6 -33 23 -42 37
-15 24 -16 24 -17 5z"/>
<path d="M9040 5783 c0 -12 12 -31 26 -42 29 -23 44 -27 44 -11 0 6 -7 10 -15
10 -8 0 -24 15 -35 33 -17 28 -20 29 -20 10z"/>
<path d="M8370 5528 c41 -45 50 -53 50 -45 0 2 -21 23 -47 47 l-48 45 45 -47z"/>
<path d="M8550 5554 c0 -11 6 -28 13 -37 14 -19 74 -37 63 -18 -4 6 -14 11
-22 11 -8 0 -23 15 -34 33 -16 26 -20 28 -20 11z"/>
<path d="M8821 5553 c-1 -21 37 -58 48 -47 3 3 -2 10 -12 16 -10 5 -22 19 -27
31 l-9 22 0 -22z"/>
<path d="M3401 6583 c-1 -29 32 -63 62 -63 19 0 18 2 -11 20 -18 11 -37 30
-42 43 l-9 22 0 -22z"/>
<path d="M3400 6308 c0 -21 37 -48 65 -47 17 0 17 2 -5 10 -14 5 -33 20 -42
32 -15 18 -18 19 -18 5z"/>
<path d="M3400 6041 c0 -31 21 -51 53 -50 23 1 26 3 10 6 -13 2 -32 16 -43 30
-11 14 -20 20 -20 14z"/>
<path d="M3400 5773 c0 -26 27 -43 67 -42 l28 1 -32 9 c-18 5 -39 19 -48 31
l-15 22 0 -21z"/>
<path d="M3410 5554 c0 -29 31 -54 66 -53 l29 0 -35 12 c-19 7 -40 23 -47 37
-12 23 -13 23 -13 4z"/>
<path d="M3690 5558 c0 -25 28 -48 58 -48 l27 1 -31 13 c-18 8 -37 22 -43 33
-9 16 -10 16 -11 1z"/>
<path d="M5630 6622 c0 -16 35 -55 46 -51 5 2 -3 17 -18 33 -16 16 -28 24 -28
18z"/>
<path d="M5400 6604 c0 -6 9 -23 21 -38 15 -19 29 -26 52 -25 l32 1 -33 12
c-19 6 -42 23 -53 36 -10 14 -19 20 -19 14z"/>
<path d="M5881 6593 c-1 -25 33 -53 64 -53 15 1 11 5 -13 15 -18 8 -36 24 -42
37 l-9 23 0 -22z"/>
<path d="M5703 6462 c-34 -2 -65 -8 -70 -15 -5 -7 -7 -72 -5 -144 l4 -133 76
0 c98 0 138 19 170 80 27 54 28 94 3 143 -10 20 -14 34 -7 30 6 -4 5 1 -3 10
-7 10 -19 17 -25 16 -26 -3 -47 2 -42 10 3 5 -4 8 -17 7 -12 0 -50 -2 -84 -4z"/>
<path d="M6001 6315 c-1 -25 8 -39 36 -54 37 -19 50 -12 15 9 -18 11 -37 30
-42 43 -8 20 -9 20 -9 2z"/>
<path d="M5400 6307 c0 -18 46 -57 66 -57 8 0 14 5 14 10 0 6 -7 10 -15 10 -9
0 -27 12 -40 26 -18 20 -25 23 -25 11z"/>
<path d="M5410 6022 c0 -15 26 -39 51 -47 26 -9 38 2 13 11 -10 4 -29 16 -41
27 -13 11 -23 16 -23 9z"/>
<path d="M5780 6007 c0 -15 27 -43 34 -36 3 2 -4 15 -15 28 -13 16 -19 18 -19
8z"/>
<path d="M5910 5789 c0 -8 4 -19 8 -26 10 -16 62 -35 62 -23 0 6 -6 10 -14 10
-8 0 -24 12 -35 26 -12 15 -21 21 -21 13z"/>
<path d="M5400 5774 c0 -27 30 -54 61 -54 23 1 23 1 -4 13 -16 7 -35 23 -42
37 -13 23 -14 23 -15 4z"/>
<path d="M6010 5559 c0 -21 37 -59 58 -59 13 0 12 3 -5 15 -12 9 -29 26 -38
38 -11 15 -15 17 -15 6z"/>
<path d="M5400 5545 c0 -28 19 -45 50 -44 l25 1 -25 7 c-14 4 -30 18 -37 31
-12 23 -13 23 -13 5z"/>
<path d="M6560 6600 c0 -34 30 -60 68 -59 38 1 36 3 -10 13 -16 4 -34 18 -42
34 -9 15 -15 20 -16 12z"/>
<path d="M6550 6327 c0 -13 22 -51 34 -59 6 -4 22 -7 36 -7 l25 0 -25 10 c-14
5 -35 22 -47 37 -13 15 -23 23 -23 19z"/>
<path d="M6560 6043 c0 -25 35 -53 65 -53 16 1 14 3 -8 13 -16 7 -35 23 -42
37 -14 24 -14 24 -15 3z"/>
<path d="M6560 5784 c0 -27 30 -54 61 -54 23 1 23 1 -4 13 -16 7 -35 23 -42
37 -13 23 -14 23 -15 4z"/>
<path d="M6560 5552 c0 -23 20 -52 37 -52 15 0 15 1 1 13 -8 6 -20 21 -26 32
-6 11 -12 14 -12 7z"/>
<path d="M7090 6588 c0 -29 37 -58 73 -57 l32 1 -30 9 c-16 4 -40 21 -52 36
-18 22 -23 24 -23 11z"/>
<path d="M7861 6585 c-1 -25 8 -39 36 -54 27 -14 43 -14 43 -1 0 6 -8 10 -18
10 -19 0 -45 24 -55 50 -4 11 -6 9 -6 -5z"/>
<path d="M7090 6317 c0 -24 44 -67 70 -67 30 0 24 17 -9 23 -19 4 -36 17 -45
34 -11 21 -15 23 -16 10z"/>
<path d="M7850 6314 c0 -29 31 -54 66 -53 l29 1 -32 9 c-19 6 -39 21 -47 37
-14 24 -15 25 -16 6z"/>
<path d="M7351 6308 c-1 -19 35 -48 59 -48 8 0 1 9 -16 19 -18 11 -34 25 -37
33 -4 9 -6 8 -6 -4z"/>
<path d="M7091 6053 c-1 -34 33 -63 72 -62 l32 1 -28 8 c-35 11 -57 28 -67 55
-8 19 -9 19 -9 -2z"/>
<path d="M7500 6038 c0 -20 44 -52 62 -45 8 3 2 9 -14 15 -14 6 -31 19 -37 29
-10 17 -10 17 -11 1z"/>
<path d="M7850 6039 c0 -25 34 -49 66 -48 l29 1 -32 9 c-18 5 -39 19 -48 31
-11 17 -15 18 -15 7z"/>
<path d="M7610 5793 c0 -31 34 -63 68 -63 27 0 27 0 -8 18 -19 9 -40 28 -47
42 -12 24 -13 25 -13 3z"/>
<path d="M7090 5786 c0 -8 8 -23 18 -34 19 -22 62 -39 62 -24 0 6 -11 13 -25
16 -15 4 -30 17 -35 31 -10 28 -20 33 -20 11z"/>
<path d="M7832 5768 c7 -19 55 -51 69 -45 9 3 4 9 -14 16 -15 6 -30 18 -33 26
-7 18 -28 21 -22 3z"/>
<path d="M7810 5544 c0 -12 7 -27 15 -34 23 -19 25 -9 4 25 -17 26 -19 27 -19
9z"/>
<path d="M7100 5542 c0 -13 27 -35 39 -30 5 1 -2 11 -15 21 -13 10 -24 14 -24
9z"/>
<path d="M2563 2348 c-56 -58 -93 -116 -93 -144 0 -13 -4 -24 -10 -24 -6 0 -5
-10 2 -25 8 -19 8 -28 -3 -42 -8 -9 -9 -14 -3 -10 8 4 16 -9 23 -36 27 -105
178 -165 282 -112 51 27 122 89 143 127 l18 33 -26 -27 c-61 -63 -143 -78
-227 -41 -121 54 -165 203 -88 299 27 35 33 44 26 44 -2 0 -21 -19 -44 -42z"/>
<path d="M1828 2361 c-13 -11 -37 -39 -54 -63 -16 -24 -33 -46 -39 -50 -5 -4
-6 -8 -1 -8 5 0 3 -7 -4 -15 -7 -8 -9 -15 -5 -15 4 0 2 -6 -4 -14 -13 -15 -11
-127 2 -119 4 2 7 -2 7 -9 0 -24 25 -68 38 -68 7 0 10 -4 7 -10 -3 -5 1 -10 9
-10 9 0 16 -4 16 -10 0 -5 7 -10 15 -10 8 0 15 -4 15 -8 0 -10 3 -10 78 -18
39 -4 67 -1 100 12 50 19 135 92 158 136 21 41 17 43 -13 7 -34 -40 -95 -68
-149 -69 -62 0 -144 46 -172 96 -43 80 -41 179 4 234 30 35 27 38 -8 11z"/>
<path d="M3311 2355 c-41 -35 -97 -114 -106 -150 -10 -44 -8 -159 5 -163 5 -2
10 -8 10 -14 0 -13 26 -38 39 -38 6 0 11 -4 11 -10 0 -15 53 -38 104 -45 63
-9 133 16 200 71 47 38 96 98 96 118 0 3 -16 -12 -35 -33 -113 -124 -319 -59
-350 110 -9 47 9 110 41 149 31 37 26 39 -15 5z"/>
<path d="M1813 1618 c-80 -74 -107 -134 -104 -228 2 -39 27 -100 41 -100 6 0
10 -7 10 -16 0 -10 5 -14 16 -10 8 3 13 2 11 -2 -6 -9 19 -33 27 -25 3 4 6 1
6 -6 0 -7 5 -9 10 -6 6 3 10 0 10 -7 0 -15 80 -17 140 -3 65 14 153 85 187
150 l15 30 -33 -33 c-18 -18 -44 -39 -58 -46 -133 -67 -301 38 -301 188 0 37
26 96 57 129 41 42 18 32 -34 -15z"/>
<path d="M3284 1594 c-35 -36 -61 -70 -58 -75 3 -5 -2 -16 -11 -25 -9 -9 -14
-23 -11 -30 3 -8 1 -14 -5 -14 -6 0 -7 -4 -4 -10 3 -5 1 -10 -6 -10 -9 0 -9
-4 1 -15 6 -8 9 -19 5 -25 -4 -6 -2 -16 3 -23 10 -12 12 -17 12 -39 0 -19 71
-99 81 -92 5 3 9 0 9 -6 0 -7 7 -9 16 -6 8 3 12 2 9 -4 -3 -6 4 -11 17 -11 13
-1 38 -2 56 -3 17 -1 32 2 32 7 0 5 6 5 13 -1 28 -24 154 59 206 135 31 45 26
49 -10 8 -77 -87 -238 -79 -311 17 -60 79 -61 167 -2 243 18 25 31 45 28 45
-4 0 -35 -30 -70 -66z"/>
<path d="M2538 1592 c-62 -66 -83 -114 -82 -187 0 -68 38 -151 68 -149 8 1 14
-2 11 -6 -6 -10 65 -39 111 -44 20 -3 46 -1 57 4 12 5 34 11 48 14 33 7 106
65 141 112 38 50 36 68 -2 22 -127 -154 -399 -14 -350 180 6 25 20 58 31 74
30 42 17 34 -33 -20z"/>
<path d="M6333 9983 c-63 -69 -94 -140 -87 -201 3 -26 7 -55 7 -64 1 -10 5
-18 9 -18 4 0 8 -7 8 -16 0 -8 4 -13 9 -10 5 4 15 -7 23 -24 7 -16 19 -30 25
-30 7 0 13 -5 13 -12 0 -6 3 -8 7 -5 3 4 17 0 29 -8 78 -51 253 24 319 137
l19 33 -44 -38 c-24 -20 -62 -42 -83 -48 -115 -31 -243 60 -255 180 -6 62 1
87 32 134 35 51 21 46 -31 -10z"/>
<path d="M7067 9982 c-26 -26 -47 -53 -47 -59 0 -7 -6 -16 -13 -20 -37 -24
-47 -156 -17 -214 17 -32 52 -69 66 -69 6 0 17 -7 24 -15 7 -8 16 -13 20 -10
5 3 11 1 15 -5 4 -6 11 -8 16 -5 5 4 9 2 9 -3 0 -18 126 6 185 35 39 20 103
80 121 115 21 40 17 43 -11 10 -14 -17 -45 -40 -68 -51 -179 -86 -366 111
-274 288 14 28 25 51 24 51 -2 0 -24 -22 -50 -48z"/>
<path d="M7819 9983 c-58 -61 -87 -103 -91 -134 -2 -13 -7 -30 -12 -38 -6 -10
-5 -12 2 -7 15 9 16 -6 2 -20 -13 -13 15 -101 41 -130 11 -11 19 -24 19 -30 0
-12 50 -35 61 -28 5 3 9 0 9 -6 0 -6 4 -9 9 -5 5 3 12 1 15 -3 8 -13 122 5
170 26 45 21 115 91 141 143 l17 34 -26 -30 c-14 -16 -25 -33 -26 -36 0 -3
-17 -15 -39 -27 -113 -64 -281 27 -306 165 -6 40 18 119 46 149 12 13 20 24
18 24 -3 0 -25 -21 -50 -47z"/>
<path d="M6336 9238 c-50 -56 -108 -147 -85 -132 5 3 9 0 9 -5 0 -6 -6 -11
-12 -11 -10 0 -9 -3 1 -9 9 -6 10 -14 4 -26 -10 -18 5 -95 21 -106 5 -4 5 -12
1 -19 -5 -8 -4 -11 2 -7 5 4 25 -8 43 -26 19 -18 30 -25 25 -18 -5 9 4 6 22
-7 17 -12 33 -19 37 -15 3 3 6 1 6 -5 0 -8 20 -11 64 -8 48 3 75 11 109 33 48
30 108 96 134 147 14 28 11 27 -21 -10 -19 -23 -51 -49 -70 -58 -104 -49 -254
23 -286 139 -16 56 -8 99 30 158 16 26 28 47 26 47 -2 0 -29 -28 -60 -62z"/>
<path d="M7800 9238 c-27 -35 -50 -68 -50 -75 0 -6 -4 -13 -9 -15 -5 -1 -12
-27 -16 -57 -3 -30 -8 -58 -11 -63 -3 -4 0 -8 7 -8 6 0 9 -8 6 -20 -3 -11 2
-27 10 -36 8 -8 13 -17 10 -20 -6 -7 42 -56 77 -79 12 -8 50 -17 83 -19 51 -4
70 -1 111 20 55 27 130 102 157 155 17 34 17 34 -19 -7 -66 -77 -138 -92 -230
-49 -62 29 -87 55 -109 113 -24 61 -21 102 12 166 17 31 28 56 26 56 -2 0 -27
-28 -55 -62z"/>
<path d="M7061 9239 c-59 -66 -72 -85 -74 -109 -1 -11 -6 -20 -12 -20 -5 0 -3
-5 5 -10 8 -5 11 -10 5 -10 -5 0 -10 -23 -11 -50 0 -28 3 -50 8 -50 4 0 7 -3
6 -8 -6 -15 85 -111 107 -113 24 -2 29 -4 42 -12 21 -13 118 0 159 22 48 26
109 84 140 133 34 53 30 59 -7 9 -113 -157 -369 -65 -369 132 0 33 24 94 47
119 9 10 12 18 7 18 -5 -1 -29 -23 -53 -51z"/>
<path d="M233 8458 c-55 -57 -115 -162 -100 -177 8 -8 7 -11 -4 -11 -12 0 -12
-2 1 -10 8 -5 10 -10 4 -10 -6 0 -9 -13 -6 -30 2 -16 8 -30 13 -30 5 0 9 -9 9
-20 0 -22 53 -84 63 -73 4 3 7 1 7 -6 0 -7 4 -10 9 -7 5 4 11 1 13 -6 2 -6 15
-12 29 -14 13 -1 42 -5 64 -8 60 -8 131 19 188 73 27 25 56 59 64 76 l15 30
-38 -37 c-46 -43 -80 -58 -135 -58 -110 0 -209 98 -209 206 0 34 8 62 30 101
17 29 29 53 27 53 -1 0 -21 -19 -44 -42z"/>
<path d="M958 8438 c-62 -67 -81 -109 -83 -186 -2 -63 15 -122 36 -122 5 0 9
-6 9 -13 0 -16 63 -52 110 -63 105 -23 219 28 290 131 17 24 30 45 30 48 0 2
-21 -16 -46 -39 -90 -84 -220 -70 -298 32 -56 73 -60 156 -11 229 35 50 19 43
-37 -17z"/>
<path d="M1792 8444 c-23 -25 -42 -48 -42 -53 0 -5 -8 -19 -19 -32 -37 -48
-19 -209 25 -226 9 -3 13 -12 9 -20 -4 -12 0 -14 15 -10 13 3 20 0 20 -9 0
-41 141 -53 215 -18 43 19 165 134 165 154 0 7 -12 -1 -28 -17 -110 -119 -307
-67 -352 92 -15 54 -3 124 27 157 9 10 14 20 12 22 -2 3 -23 -15 -47 -40z"/>
<path d="M214 7715 c-52 -55 -80 -113 -86 -180 -4 -44 47 -143 81 -158 14 -6
38 -19 53 -30 16 -10 32 -16 37 -12 5 3 12 1 15 -3 8 -13 107 3 146 23 44 23
118 92 137 129 15 30 14 29 -30 -11 -53 -49 -103 -65 -169 -54 -108 17 -187
119 -175 223 4 30 17 67 32 90 36 54 19 47 -41 -17z"/>
<path d="M962 7711 c-56 -61 -59 -66 -77 -124 -11 -38 -12 -59 -3 -102 6 -30
15 -55 21 -55 6 0 8 -3 4 -6 -9 -9 25 -44 36 -37 6 3 7 1 3 -5 -4 -7 -2 -12 4
-12 6 0 8 -4 5 -10 -5 -8 8 -14 18 -8 1 0 17 -7 36 -17 27 -13 50 -16 101 -13
78 6 130 36 199 114 50 57 55 81 6 31 -70 -72 -196 -72 -278 2 -73 66 -91 173
-42 251 34 53 20 50 -33 -9z"/>
<path d="M1795 7708 c-70 -78 -86 -113 -82 -184 4 -59 23 -114 39 -114 5 0 6
-4 3 -10 -3 -5 -2 -10 3 -10 4 0 18 -9 30 -21 12 -11 27 -17 34 -13 7 4 8 3 4
-4 -9 -15 53 -31 106 -26 62 6 101 21 143 54 40 32 105 109 105 125 0 6 -11
-4 -25 -21 -33 -43 -114 -77 -163 -69 -68 12 -98 25 -129 58 -71 74 -85 163
-39 242 15 25 25 45 23 45 -2 0 -25 -24 -52 -52z"/>
<path d="M9830 6922 c-62 -64 -88 -122 -94 -204 -2 -38 -1 -66 4 -63 4 2 14
-14 23 -36 12 -31 21 -40 32 -35 9 3 14 2 10 -3 -8 -14 76 -50 120 -51 47 -2
98 10 140 33 35 18 97 81 115 116 10 19 4 16 -25 -12 -109 -106 -286 -56 -329
93 -14 50 -15 61 -2 104 8 27 27 62 42 77 15 16 24 29 19 29 -5 0 -30 -22 -55
-48z"/>
<path d="M9829 6203 c-74 -80 -108 -142 -105 -193 1 -14 -3 -28 -9 -32 -6 -5
-6 -8 3 -8 6 0 12 -12 12 -27 1 -29 20 -63 37 -63 5 0 16 -11 23 -25 7 -14 18
-25 23 -25 6 0 18 -7 27 -15 9 -8 43 -17 76 -20 48 -3 69 1 112 21 63 30 127
85 149 128 16 31 16 31 -21 -6 -49 -50 -101 -65 -173 -50 -67 14 -114 48 -149
108 -23 38 -26 53 -22 104 3 48 10 67 37 100 40 50 27 52 -20 3z"/>
<path d="M8926 3839 c-71 -77 -90 -105 -82 -124 3 -9 2 -13 -4 -10 -9 6 -16
-36 -10 -60 1 -5 3 -22 3 -37 0 -16 4 -28 8 -28 5 0 6 -6 4 -12 -3 -7 6 -25
19 -39 14 -15 22 -30 19 -33 -4 -3 0 -6 8 -6 9 0 26 -10 38 -21 34 -32 144
-31 207 2 58 29 123 87 148 130 l20 34 -43 -38 c-52 -47 -78 -57 -143 -57 -63
0 -109 22 -152 72 -64 74 -66 174 -5 251 45 56 28 45 -35 -24z"/>
<path d="M9701 3834 c-69 -75 -85 -113 -82 -194 1 -36 6 -67 12 -68 5 -2 7 -7
5 -11 -3 -4 6 -20 20 -36 13 -15 24 -25 24 -22 0 4 9 -2 20 -13 11 -11 27 -20
36 -20 8 0 13 -4 10 -9 -4 -5 26 -9 68 -9 68 0 78 3 132 38 62 39 90 66 120
115 l18 30 -35 -31 c-58 -53 -81 -64 -132 -64 -113 0 -197 76 -213 192 -5 35
0 53 25 101 16 31 28 57 26 57 -1 0 -26 -25 -54 -56z"/>
<path d="M8927 3118 c-73 -85 -86 -103 -92 -139 -12 -61 -12 -79 -4 -85 4 -2
6 -11 2 -19 -3 -8 0 -15 6 -15 6 0 11 -9 11 -21 0 -11 4 -17 10 -14 6 3 7 -1
4 -9 -4 -11 0 -16 10 -16 15 0 21 -12 17 -34 -1 -5 5 -6 13 -3 8 3 17 0 19 -7
6 -14 97 -41 131 -38 81 5 181 66 220 133 l19 33 -40 -33 c-70 -56 -148 -61
-228 -16 -101 58 -138 195 -77 283 48 69 40 69 -21 0z"/>
<path d="M9704 3097 c-56 -60 -105 -147 -82 -147 6 0 6 -6 -2 -15 -8 -10 -9
-15 -1 -15 7 0 8 -8 1 -25 -6 -16 -6 -25 0 -25 5 0 7 -7 4 -15 -4 -10 0 -15
11 -15 9 0 13 -5 10 -10 -7 -12 60 -92 69 -82 3 3 6 1 6 -4 0 -19 165 -22 188
-4 1 2 5 3 10 4 24 4 103 60 124 88 39 52 43 65 12 36 -40 -37 -94 -58 -149
-58 -160 0 -255 191 -159 317 39 51 22 39 -42 -30z"/>
<path d="M5562 807 c-29 -29 -52 -56 -52 -60 0 -4 -8 -16 -17 -26 -19 -23 -22
-34 -27 -110 -5 -75 28 -144 82 -172 15 -8 30 -18 33 -22 5 -7 73 -18 121 -18
23 0 107 39 144 68 29 22 84 93 84 109 0 3 -18 -10 -39 -29 -68 -61 -135 -68
-228 -25 -119 56 -150 217 -60 316 40 43 11 21 -41 -31z"/>
<path d="M6341 812 c-22 -20 -41 -43 -41 -50 0 -7 -4 -10 -10 -7 -5 3 -12 -6
-16 -20 -3 -14 -10 -25 -14 -25 -9 0 -26 -78 -21 -95 2 -5 4 -27 5 -47 1 -21
7 -43 14 -50 7 -7 12 -16 12 -21 0 -11 40 -62 48 -62 10 0 73 -25 96 -37 14
-7 16 -7 10 4 -6 10 -5 11 7 2 17 -14 94 9 151 44 40 25 100 88 118 124 11 23
11 23 -7 3 -10 -11 -36 -34 -57 -50 -34 -26 -48 -30 -100 -30 -123 1 -206 84
-206 206 0 56 13 95 42 127 34 35 15 26 -31 -16z"/>
<path d="M7072 799 c-17 -16 -32 -33 -32 -38 0 -5 -7 -15 -16 -22 -18 -15 -34
-51 -40 -89 -9 -55 -11 -90 -5 -90 4 0 7 -9 8 -21 2 -27 22 -51 36 -42 5 3 7
1 3 -5 -3 -6 0 -17 8 -25 8 -8 12 -18 8 -22 -4 -5 1 -5 10 -2 10 4 17 2 15 -4
-4 -18 73 -38 137 -35 89 3 188 63 230 137 l19 34 -29 -26 c-56 -50 -76 -59
-138 -59 -107 0 -190 63 -217 163 -12 46 2 120 28 150 27 29 10 27 -25 -4z"/>
<path d="M5583 97 c-34 -36 -63 -77 -63 -89 0 -5 9 -8 19 -8 13 0 21 9 26 30
4 17 18 44 32 61 35 41 24 46 -14 6z"/>
<path d="M6318 66 c-27 -30 -48 -57 -48 -60 0 -3 11 -6 24 -6 18 0 26 7 31 27
3 16 18 43 31 61 40 52 13 37 -38 -22z"/>
<path d="M7074 77 c-68 -71 -71 -77 -40 -77 20 0 29 8 41 37 9 21 23 45 32 55
9 10 14 20 11 23 -2 2 -22 -14 -44 -38z"/>
</g>
</svg>
