<?xml version="1.0" standalone="no"?>
<!DOCTYPE svg PUBLIC "-//W3C//DTD SVG 20010904//EN"
 "http://www.w3.org/TR/2001/REC-SVG-20010904/DTD/svg10.dtd">
<svg version="1.0" xmlns="http://www.w3.org/2000/svg"
 width="1024.000000pt" height="1024.000000pt" viewBox="0 0 1024.000000 1024.000000"
 preserveAspectRatio="xMidYMid meet">
<metadata>
Created by potrace 1.16, written by Peter Selinger 2001-2019
</metadata>
<g transform="translate(0.000000,1024.000000) scale(0.100000,-0.100000)"
fill="#000000" stroke="none">
<path d="M4904 9880 c-147 -47 -245 -205 -224 -361 9 -68 39 -127 90 -183 l39
-42 -5 -1700 c-3 -934 -7 -1700 -8 -1701 -1 -1 -38 13 -81 32 -105 46 -159 55
-221 39 -62 -17 -64 -17 -64 -1 0 7 22 19 49 26 170 43 287 158 279 273 -3 43
-3 43 -43 44 -49 1 -94 23 -129 64 -53 64 -48 133 24 320 80 208 95 302 65
429 -26 108 -68 173 -175 270 -220 199 -223 206 -197 385 30 197 18 299 -49
442 -70 148 -203 282 -359 359 -49 24 -102 47 -117 51 -28 6 -28 7 -28 91 0
304 -148 475 -330 383 -81 -42 -192 -167 -257 -293 l-31 -57 -60 102 c-76 130
-153 223 -239 288 -131 99 -249 140 -403 140 -163 0 -298 -49 -395 -143 -32
-31 -55 -60 -51 -65 3 -5 63 -12 133 -14 135 -5 267 -33 310 -66 22 -16 20
-17 -65 -13 -134 5 -287 -28 -416 -90 l-60 -29 -29 37 c-58 73 -160 163 -213
188 -99 47 -160 25 -184 -66 -21 -75 -8 -279 24 -379 15 -47 28 -91 29 -99 4
-26 -87 -64 -166 -69 -62 -4 -82 0 -140 22 -37 15 -72 24 -78 20 -16 -10 -5
-102 19 -156 27 -63 134 -172 211 -218 78 -46 196 -86 281 -96 33 -4 60 -8 60
-11 0 -2 -10 -23 -21 -45 -54 -106 -68 -179 -74 -398 -1 -63 -7 -159 -13 -212
-9 -86 -16 -109 -62 -203 -48 -97 -56 -107 -98 -129 -26 -14 -72 -50 -102 -81
-33 -34 -77 -66 -108 -81 -73 -32 -169 -131 -209 -215 -64 -130 -78 -258 -43
-393 30 -117 72 -189 170 -286 132 -132 253 -183 427 -179 82 3 95 0 130 -22
64 -42 95 -51 188 -56 80 -5 97 -2 159 21 90 34 162 89 217 165 28 38 51 60
64 60 30 1 153 63 205 102 25 19 50 38 57 42 12 8 165 38 169 34 2 -2 -30 -95
-70 -208 -78 -219 -118 -339 -136 -406 -10 -41 -11 -42 -39 -32 -97 34 -202
-79 -188 -201 l6 -48 -42 -6 c-85 -13 -137 -70 -137 -151 0 -30 7 -44 36 -71
19 -19 42 -34 50 -34 19 0 18 -8 -6 -55 -27 -52 -26 -124 0 -158 38 -48 129
-59 186 -22 29 19 34 11 34 -57 0 -104 48 -357 84 -438 5 -13 -35 -19 -276
-43 -156 -15 -325 -36 -376 -46 -115 -24 -222 -73 -266 -121 -74 -82 -114
-292 -123 -641 -6 -233 5 -343 50 -474 29 -87 98 -221 161 -313 30 -45 80
-125 112 -179 63 -109 115 -177 146 -194 11 -6 40 -11 65 -11 132 0 318 214
373 428 47 183 24 246 -155 419 -68 66 -133 138 -145 161 -11 22 -25 76 -32
120 -15 101 2 186 43 217 26 18 32 19 150 6 137 -14 531 -18 622 -6 l58 7 -46
-60 c-26 -34 -98 -114 -160 -178 -170 -177 -200 -238 -199 -402 0 -83 5 -107
37 -195 19 -55 53 -138 75 -185 22 -47 70 -152 107 -235 134 -297 195 -395
326 -521 188 -181 484 -344 622 -344 86 0 161 162 174 377 7 126 -9 230 -48
311 -38 78 -76 107 -205 157 -69 27 -101 45 -117 67 -12 17 -55 47 -97 68 -73
37 -155 110 -193 171 -26 43 -57 145 -57 190 0 52 29 80 167 163 469 282 532
324 605 394 l56 55 67 -17 c127 -32 270 -47 501 -53 l232 -6 6 -51 c3 -28 6
-538 6 -1132 0 -1174 4 -1094 -50 -1094 -27 0 -87 -56 -110 -101 -11 -20 -22
-55 -26 -77 -3 -21 -9 -43 -13 -48 -3 -5 -33 -15 -66 -22 -96 -19 -197 -75
-265 -148 -86 -92 -149 -240 -120 -284 15 -24 121 -29 690 -36 524 -6 897 4
984 27 l38 10 -6 52 c-24 177 -197 341 -398 378 -66 12 -68 13 -68 43 -2 96
-83 206 -153 206 -19 0 -26 6 -30 28 -3 15 -6 538 -7 1163 l0 1137 47 7 c27 4
154 33 283 66 129 32 236 59 237 59 0 0 15 -25 32 -55 77 -135 309 -302 484
-346 26 -6 47 -14 47 -17 0 -3 -65 -103 -143 -221 -172 -258 -187 -283 -228
-386 -54 -136 -71 -285 -48 -424 29 -173 61 -337 79 -395 43 -138 129 -150
329 -46 132 69 283 224 341 351 39 88 17 206 -51 263 -39 33 -46 52 -53 144
-7 82 -7 83 29 150 41 75 103 160 247 339 53 68 107 141 118 162 24 48 26 125
5 195 -8 27 -15 62 -15 79 0 23 3 28 17 23 107 -42 274 -87 427 -116 173 -34
209 -61 264 -201 34 -85 92 -310 117 -449 83 -474 90 -490 292 -701 151 -156
259 -229 341 -229 175 1 344 286 330 557 -5 107 -27 155 -101 222 -28 25 -83
75 -121 111 -39 36 -92 83 -118 103 -34 27 -52 51 -66 90 -28 75 -67 253 -102
472 -36 230 -61 315 -106 375 -48 64 -85 85 -199 114 -151 40 -213 85 -258
185 -23 53 -20 131 13 331 36 222 26 658 -20 865 -29 129 -117 352 -174 444
-33 51 -36 47 99 116 119 61 187 69 269 32 43 -20 63 -37 86 -74 79 -124 78
-227 -4 -493 -81 -262 -91 -319 -90 -500 0 -140 3 -162 27 -235 68 -205 217
-375 416 -475 212 -106 516 -108 728 -5 259 127 450 411 427 635 -12 118 -35
140 -78 72 -55 -86 -117 -118 -198 -101 -42 9 -62 21 -104 64 -58 58 -74 98
-74 189 0 73 15 132 96 376 76 230 94 320 94 485 0 461 -224 853 -595 1038
-157 79 -309 112 -470 104 -364 -19 -645 -219 -833 -592 -43 -86 -102 -245
-102 -275 0 -31 -13 -31 -94 1 -99 38 -249 71 -348 75 -44 2 -90 10 -107 19
-82 42 -205 31 -542 -50 -380 -91 -654 -132 -824 -123 l-60 3 3 1740 4 1739
38 42 c133 145 125 347 -20 477 -37 34 -70 52 -117 67 -80 25 -120 24 -199 0z
m190 -46 c70 -24 150 -102 176 -172 60 -157 -45 -340 -212 -371 -75 -15 -122
-6 -202 37 -61 33 -112 106 -128 184 -10 47 -9 65 6 122 44 161 207 252 360
200z m-206 -576 c19 -19 170 -22 220 -5 l42 15 0 -28 c0 -28 -46 -74 -227
-229 l-63 -53 0 156 c0 86 4 156 8 156 4 0 13 -5 20 -12z m-2279 -53 c157 -50
276 -156 408 -365 l86 -135 -26 -80 c-29 -91 -57 -220 -57 -265 0 -16 -1 -30
-3 -30 -2 0 -25 11 -53 24 -75 36 -181 56 -297 56 -176 0 -275 -35 -565 -199
-157 -88 -245 -114 -392 -114 -178 1 -332 63 -441 179 -41 45 -107 159 -97
169 2 2 24 -3 48 -11 72 -25 181 -15 266 25 58 27 89 53 194 160 138 141 182
175 303 231 106 49 190 70 302 77 108 6 188 -7 272 -46 49 -23 64 -27 72 -17
8 10 -8 31 -63 85 -109 105 -204 143 -397 157 -57 4 -98 9 -91 12 7 2 35 19
62 37 123 83 304 102 469 50z m2541 -209 l0 -164 -145 -126 -145 -127 0 176
c0 97 4 175 9 175 11 0 149 111 221 178 30 28 56 51 58 52 1 0 2 -74 2 -164z
m-1561 55 c37 -27 77 -104 97 -187 22 -93 14 -288 -16 -394 -48 -170 -143
-317 -267 -417 -16 -12 -20 -22 -14 -32 7 -11 15 -10 45 8 l36 23 0 -77 c0
-158 -54 -425 -120 -590 -136 -343 -337 -579 -647 -762 -194 -114 -244 -124
-291 -61 -47 63 -237 244 -327 311 -163 122 -312 184 -465 194 l-86 6 34 65
35 65 12 -30 c26 -61 102 -113 166 -113 45 0 124 37 164 76 131 127 167 394
72 535 -78 116 -234 99 -334 -36 l-22 -30 -1 85 c0 47 7 113 15 145 16 62 69
178 89 195 7 5 48 16 91 25 108 23 173 50 318 136 230 137 326 169 498 169
115 0 213 -21 300 -65 46 -24 49 -28 49 -65 0 -21 4 -41 9 -45 18 -10 31 33
31 98 0 166 81 417 183 567 45 66 135 159 186 191 55 35 119 39 160 10z
m-1962 -16 c32 -16 82 -59 134 -112 l82 -86 -39 -30 c-21 -17 -85 -78 -141
-136 -56 -58 -104 -104 -106 -101 -2 3 -14 43 -27 90 -30 114 -39 308 -17 363
19 45 42 48 114 12z m3522 -447 l2 -193 -48 -46 c-26 -25 -75 -67 -108 -94
-33 -27 -77 -65 -97 -84 -25 -23 -38 -30 -39 -21 0 8 0 98 1 199 l1 183 32 27
c17 14 81 70 142 123 60 54 110 98 111 98 1 0 2 -87 3 -192z m-1184 -112 c137
-98 252 -258 289 -402 20 -77 20 -174 1 -284 -31 -178 -12 -237 113 -348 200
-177 224 -209 257 -333 31 -115 18 -197 -66 -409 -48 -125 -53 -142 -53 -221
-1 -77 2 -89 27 -127 34 -52 93 -92 146 -99 23 -3 41 -7 41 -10 0 -16 -44 -84
-72 -110 -37 -36 -130 -82 -180 -89 -29 -4 -36 0 -53 28 -34 56 -116 49 -192
-17 l-41 -35 -17 68 c-35 141 -64 283 -85 417 -87 574 -220 1049 -366 1306
-20 35 -45 92 -55 126 -11 34 -37 85 -59 114 -22 30 -40 60 -40 69 0 8 11 32
26 53 l25 38 32 -23 c69 -47 169 -143 216 -206 90 -120 131 -225 227 -582 35
-130 43 -100 14 53 -72 381 -197 604 -420 748 -28 18 -48 38 -46 43 35 77 78
194 91 250 9 39 18 77 20 83 6 18 140 -45 220 -101z m1158 -559 c-38 -41 -256
-227 -265 -227 -5 0 -8 90 -8 200 l0 199 98 79 c53 44 120 99 147 124 l50 46
3 -196 2 -195 -27 -30z m-1559 100 c59 -72 73 -140 56 -269 -31 -237 -102
-484 -190 -663 -129 -263 -377 -493 -696 -647 -69 -33 -126 -59 -127 -57 -18
33 -56 113 -54 114 1 1 47 25 103 54 360 183 610 468 744 847 59 169 109 436
110 587 0 42 4 77 9 77 5 0 25 -19 45 -43z m1575 -552 c-14 -26 -275 -245
-283 -238 -3 4 -6 99 -6 213 l0 206 71 49 c40 27 106 81 148 121 l76 72 3
-202 c2 -134 -1 -208 -9 -221z m-1324 -19 c87 -261 129 -443 206 -891 27 -159
66 -356 85 -436 l36 -145 -40 -63 c-23 -34 -49 -83 -58 -109 -9 -26 -31 -59
-47 -73 l-31 -26 -20 30 c-32 47 -70 69 -123 74 -116 10 -182 -111 -129 -237
5 -13 -3 -15 -51 -12 -70 3 -117 -18 -150 -67 -40 -60 -27 -156 30 -218 l20
-22 -26 -12 c-24 -11 -30 -9 -66 24 -22 20 -52 39 -66 43 -28 7 -110 1 -136
-10 -12 -5 -20 1 -28 22 -25 61 -91 102 -165 102 -78 0 -152 -88 -144 -170 3
-36 1 -40 -20 -40 -39 0 -88 -26 -118 -64 -18 -22 -38 -36 -51 -36 l-22 0 20
34 c11 19 22 57 26 85 11 92 -28 141 -112 141 -41 0 -45 2 -46 25 -1 14 -2 31
-3 38 -5 35 41 198 119 417 48 135 93 263 101 286 l15 41 82 17 c306 65 476
185 595 422 41 81 64 164 60 216 l-3 43 -24 -75 c-89 -286 -251 -447 -524
-525 -118 -33 -369 -85 -413 -85 l-36 0 20 33 c11 17 24 49 27 70 5 27 14 41
30 47 152 58 380 196 515 314 191 165 328 375 410 626 42 129 95 354 106 445
l7 60 48 -101 c27 -56 69 -163 94 -238z m-1849 211 c37 -40 64 -119 64 -185
l0 -44 -31 26 c-51 43 -103 40 -146 -10 -42 -47 -53 -88 -53 -191 0 -80 1 -82
30 -100 36 -21 37 -29 8 -37 -79 -21 -143 8 -178 78 -20 42 -22 59 -19 164 4
108 7 123 36 182 54 111 125 164 207 157 41 -4 55 -10 82 -40z m3184 -442 l0
-204 -116 -98 c-64 -54 -132 -111 -150 -126 l-34 -29 0 205 0 206 118 95 c64
52 130 108 146 125 17 17 31 31 33 31 2 0 3 -92 3 -205z m-3450 -200 c129 -30
252 -98 417 -232 88 -71 263 -247 263 -264 0 -4 -9 -10 -19 -14 -11 -3 -36
-24 -56 -47 l-37 -40 -30 38 c-64 81 -217 219 -316 285 -165 109 -343 168
-507 169 l-80 0 46 46 c25 25 63 51 85 59 51 19 153 18 234 0z m3418 -508
c-18 -16 -78 -66 -133 -110 -55 -45 -108 -90 -117 -99 -17 -17 -18 -8 -18 200
l0 218 32 24 c67 50 258 214 260 224 2 6 4 -88 6 -209 l3 -220 -33 -28z
m-3570 348 c207 -43 402 -161 600 -362 102 -104 102 -104 102 -154 0 -60 21
-114 61 -155 l30 -31 -40 -82 c-56 -110 -157 -217 -243 -257 -56 -26 -74 -29
-158 -29 -78 0 -102 4 -134 21 l-40 21 65 31 c127 62 235 171 298 302 14 30
27 57 28 59 2 3 9 -4 16 -14 12 -15 13 -12 8 26 l-6 44 -49 0 c-31 0 -51 -5
-53 -12 -3 -9 6 -13 27 -13 l31 0 -43 -82 c-50 -97 -156 -209 -234 -250 -72
-39 -156 -58 -249 -58 -159 0 -277 51 -395 170 -176 177 -218 403 -114 617 30
62 113 157 158 180 85 45 208 55 334 28z m6739 -160 c421 -80 717 -381 808
-820 57 -276 43 -413 -85 -795 -70 -209 -84 -278 -78 -368 8 -110 61 -192 153
-238 103 -50 227 -19 282 71 l18 30 3 -53 c5 -79 -14 -153 -65 -255 -83 -164
-241 -299 -428 -363 -74 -26 -92 -28 -240 -29 -148 0 -167 2 -245 27 -209 68
-368 204 -468 404 -65 130 -82 342 -41 530 11 54 43 171 70 259 76 245 85 347
41 463 -52 136 -177 209 -311 181 -68 -14 -163 -56 -227 -99 -49 -34 -48 -34
-75 12 -8 15 5 33 72 103 101 105 189 165 294 201 236 79 452 -49 516 -306 9
-34 14 -103 13 -180 -1 -110 -7 -151 -49 -335 -71 -320 -77 -478 -23 -654 32
-106 77 -180 158 -262 127 -128 302 -197 474 -186 43 3 83 11 90 17 8 9 2 10
-26 5 -50 -9 -196 12 -281 41 -151 50 -265 146 -335 281 -67 129 -77 175 -76
358 0 137 4 176 27 275 14 63 38 172 52 241 70 352 -12 619 -224 722 -61 29
-73 32 -171 32 -180 0 -294 -55 -456 -220 l-91 -92 -49 49 c-27 27 -61 57 -76
66 -33 20 -34 30 -7 118 92 302 275 555 489 675 164 93 384 129 567 94z
m-3137 -397 l0 -193 -134 -107 c-74 -60 -141 -111 -150 -114 -14 -5 -16 14
-16 179 l0 184 38 25 c43 29 221 177 241 201 7 10 15 17 17 17 2 0 4 -87 4
-192z m-2660 167 c45 -24 73 -87 68 -153 -4 -49 -9 -59 -47 -95 -38 -35 -47
-39 -81 -34 -113 15 -176 150 -110 234 45 58 113 77 170 48z m35 -341 c-33
-26 -148 -92 -173 -99 -23 -7 -23 -6 6 52 l30 58 79 2 c72 2 77 1 58 -13z
m1856 -99 c24 -112 -2 -223 -78 -333 l-36 -54 -18 37 c-10 21 -23 43 -29 50
-8 10 1 31 38 87 61 91 75 118 67 126 -3 4 -9 2 -13 -4 -4 -5 -35 -47 -70 -92
-65 -85 -71 -88 -135 -73 l-27 6 26 50 c76 142 178 240 244 233 19 -2 26 -10
31 -33z m769 -86 l0 -122 -52 7 c-29 4 -84 14 -123 23 l-70 16 34 26 c19 14
73 59 120 98 47 40 87 73 89 73 1 0 2 -55 2 -121z m1451 -2 c73 -49 112 -148
130 -334 27 -258 -45 -587 -173 -800 -83 -138 -178 -227 -351 -329 -166 -99
-315 -143 -547 -164 -122 -11 -179 -9 -345 11 -390 47 -690 340 -760 741 -15
82 -30 221 -40 353 -13 187 -18 235 -31 326 -7 54 -18 109 -24 124 -13 35 -14
32 22 51 40 21 119 14 175 -15 71 -36 105 -158 123 -444 14 -223 27 -306 64
-419 42 -126 85 -197 172 -284 121 -122 259 -172 495 -181 293 -11 512 69 700
256 75 76 137 163 174 247 62 139 104 351 105 519 0 94 -22 251 -44 314 -9 24
-16 45 -16 47 0 2 31 4 69 4 54 0 75 -5 102 -23z m-193 -24 c43 -148 54 -361
27 -519 -40 -232 -106 -379 -230 -513 -187 -202 -435 -293 -732 -270 -204 16
-335 71 -444 186 -137 146 -186 300 -209 653 -9 152 -32 294 -59 363 -6 16
-11 32 -11 36 0 5 32 -2 72 -15 40 -13 78 -24 85 -24 8 0 18 -12 23 -26 13
-34 37 -206 50 -359 17 -200 39 -283 107 -397 40 -67 129 -152 200 -191 66
-35 190 -67 264 -67 141 0 318 63 431 154 115 92 199 230 240 393 32 126 32
377 0 507 -13 49 -21 90 -20 91 5 4 153 33 174 34 16 1 23 -8 32 -36z m417 -5
c237 -36 415 -130 524 -275 47 -63 137 -221 129 -228 -12 -11 -166 -55 -228
-66 -93 -16 -335 -16 -412 0 l-58 12 0 102 c0 181 -32 364 -78 441 l-20 34 37
-5 c20 -2 68 -9 106 -15z m-651 -60 c40 -143 45 -373 11 -516 -9 -37 -37 -110
-63 -162 -100 -206 -283 -329 -527 -355 -136 -15 -290 41 -396 142 -114 108
-159 226 -178 464 -12 141 -37 307 -52 348 -5 13 -8 25 -7 26 2 2 32 -3 68
-11 231 -48 582 -17 1000 90 132 33 126 34 144 -26z m-1729 -134 c24 -193 20
-298 -20 -559 -50 -321 -69 -697 -41 -824 37 -175 137 -291 261 -304 61 -6
160 18 232 58 36 20 66 35 67 33 1 -2 17 -34 35 -72 23 -46 56 -92 104 -140
l70 -71 -38 -115 c-20 -63 -55 -154 -77 -202 -36 -77 -43 -87 -71 -92 -73 -13
-429 -18 -563 -7 -154 12 -351 44 -367 60 -6 6 -2 19 11 38 49 69 119 238 109
266 -2 6 -24 -31 -50 -83 -78 -162 -183 -293 -296 -369 -31 -21 -186 -116
-346 -211 -159 -96 -302 -186 -317 -201 -36 -36 -43 -71 -30 -147 24 -143 139
-294 277 -362 61 -31 73 -41 95 -85 22 -44 25 -62 25 -160 0 -80 -5 -125 -19
-165 -31 -92 -78 -171 -138 -233 l-57 -58 -48 32 c-77 53 -227 204 -284 286
-61 88 -294 588 -345 740 -53 156 -52 279 3 388 15 30 70 97 137 165 102 105
189 207 257 300 120 165 343 632 327 682 -3 7 -50 -80 -106 -192 -56 -113
-123 -240 -148 -283 -53 -91 -50 -91 -162 -14 -242 167 -407 499 -428 862 l-7
110 67 0 c65 0 69 1 102 37 19 21 34 47 34 59 0 17 5 20 28 15 15 -3 47 -6 72
-7 59 -3 61 -5 44 -37 -18 -34 -18 -103 0 -145 18 -43 67 -84 119 -98 79 -21
156 7 202 75 26 38 32 43 45 31 25 -22 90 -45 127 -45 46 0 106 32 134 72 35
48 33 131 -3 186 l-27 41 37 12 c48 15 132 57 154 76 15 13 18 12 31 -14 22
-41 57 -70 106 -88 124 -43 246 18 266 134 l6 38 70 -5 c92 -6 150 15 190 71
33 46 40 118 14 167 -18 35 -70 76 -108 85 l-28 8 24 26 c14 14 33 42 42 61
10 19 38 58 63 85 43 48 112 173 112 204 0 8 2 12 5 9 3 -3 12 -59 20 -124z
m-570 24 c32 -25 64 -91 65 -130 0 -40 12 -34 40 19 71 135 230 118 230 -24 0
-48 -36 -93 -100 -126 -25 -13 -44 -28 -43 -33 1 -5 19 -12 40 -16 93 -16 164
-65 179 -123 8 -31 -22 -92 -58 -118 -41 -30 -115 -34 -173 -8 -26 11 -51 21
-56 21 -5 0 -9 -29 -9 -65 0 -60 -3 -68 -32 -101 -72 -78 -215 -57 -264 39
-20 37 -14 113 11 151 23 35 14 43 -47 38 -44 -3 -58 0 -81 18 -33 26 -67 89
-67 125 0 38 27 84 56 95 34 13 108 12 155 -2 22 -6 42 -9 45 -6 3 3 -6 33
-20 67 -36 83 -34 134 3 172 36 36 86 39 126 7z m-1359 -282 c17 -13 19 -26
17 -116 0 -55 3 -100 7 -98 5 2 19 19 32 38 18 26 32 36 57 38 47 5 71 -20 71
-75 0 -56 -19 -93 -69 -132 -43 -34 -44 -45 -9 -90 43 -56 40 -144 -5 -176
-12 -8 -41 -15 -65 -15 -34 0 -48 6 -68 27 -13 14 -25 24 -27 22 -2 -2 -8 -17
-15 -32 -22 -51 -124 -73 -168 -36 -18 15 -18 92 0 127 8 15 23 36 35 46 29
26 27 46 -4 46 -38 0 -92 26 -105 50 -15 29 -4 73 26 101 20 19 38 24 82 25
89 2 85 1 78 32 -29 116 -24 157 21 204 30 31 76 37 109 14z m635 -112 c29
-25 49 -75 49 -119 0 -44 12 -44 45 -1 43 57 118 60 175 6 26 -24 30 -35 30
-78 0 -62 -30 -103 -89 -121 -51 -15 -55 -43 -9 -62 17 -7 46 -28 65 -46 28
-29 33 -41 33 -81 0 -54 -18 -85 -60 -107 -60 -31 -139 -11 -186 48 -31 39
-44 39 -44 1 0 -14 -9 -42 -20 -63 -46 -91 -188 -94 -246 -6 -24 37 -21 93 9
158 14 30 23 58 20 61 -3 3 -19 2 -35 -1 -54 -11 -117 73 -104 140 13 69 92
105 156 72 27 -14 34 -15 41 -3 5 7 8 15 6 18 -37 70 -39 80 -33 115 4 22 20
51 37 68 27 27 34 29 84 25 35 -3 63 -12 76 -24z m4385 -64 c18 -47 29 -89 25
-93 -15 -15 -152 -57 -244 -73 -120 -23 -424 -25 -515 -5 l-64 14 6 31 c4 17
11 61 17 97 l11 65 52 -14 c35 -11 103 -15 221 -16 184 -1 267 12 375 58 30
13 61 23 69 22 8 0 29 -39 47 -86z m-3042 -119 c9 -99 35 -217 63 -288 l25
-62 -31 -93 c-77 -237 -65 -376 41 -461 47 -38 144 -49 212 -23 48 18 109 74
133 121 9 17 16 31 18 32 1 2 26 -10 56 -26 30 -16 88 -39 129 -52 41 -12 76
-23 77 -24 2 -1 8 -37 13 -81 12 -88 55 -192 98 -237 69 -73 166 -90 262 -46
119 55 175 137 188 274 l7 78 87 17 c48 10 102 23 122 30 l34 11 79 -79 c73
-74 104 -94 213 -139 l24 -10 -28 -18 c-18 -12 -53 -21 -93 -23 -76 -5 -132
13 -201 66 -25 19 -48 30 -50 24 -2 -6 -21 -47 -42 -92 -88 -181 -240 -281
-430 -281 -127 0 -269 51 -361 130 -62 52 -126 145 -146 209 -9 31 -20 61 -24
66 -4 4 -25 -5 -46 -22 -102 -82 -251 -114 -336 -73 -111 54 -177 211 -177
420 0 89 16 266 57 664 3 31 9 57 13 57 4 0 10 -31 14 -69z m-849 5 c-4 -28
-8 -52 -9 -52 -26 -25 -180 -104 -202 -104 -3 0 9 18 27 40 23 29 33 53 37 89
4 46 7 50 41 64 20 8 53 14 74 14 l39 1 -7 -52z m3943 -33 c5 -10 12 -35 16
-56 7 -36 6 -38 -13 -28 -61 33 -141 -14 -141 -84 0 -47 13 -71 50 -90 42 -22
68 -19 100 13 l28 28 6 -50 c11 -93 10 -95 -41 -118 -54 -24 -139 -21 -192 6
-48 25 -106 81 -141 137 -18 27 -36 49 -41 49 -6 0 -23 -28 -38 -62 -58 -127
-129 -193 -233 -218 -97 -24 -206 21 -283 114 l-38 47 22 52 c13 29 35 87 50
129 15 43 29 80 32 82 3 3 27 -2 54 -10 69 -22 329 -30 448 -15 104 14 264 53
305 75 35 20 40 19 50 -1z m-4845 -109 c3 -32 13 -54 33 -75 30 -32 23 -35
-37 -17 -25 7 -39 17 -39 27 0 9 -9 34 -20 56 -11 22 -20 40 -20 41 0 2 15 5
33 7 17 2 35 5 38 5 4 1 9 -19 12 -44z m4841 -15 c14 -11 26 -29 26 -38 0 -25
-35 -67 -61 -74 -27 -7 -69 33 -69 67 0 25 41 66 65 66 7 0 24 -9 39 -21z
m-279 -241 c15 -15 53 -40 84 -54 68 -33 167 -38 217 -11 l31 16 7 -92 c8
-114 -8 -338 -34 -475 -38 -199 -24 -284 61 -377 54 -58 115 -90 226 -116 103
-25 131 -38 177 -84 48 -48 70 -125 107 -379 37 -254 51 -333 78 -423 28 -91
49 -124 113 -171 65 -48 118 -106 118 -130 -1 -59 -63 -214 -118 -294 -59 -86
-241 -248 -278 -248 -17 0 -148 152 -174 202 -28 53 -55 157 -95 373 -75 399
-139 613 -206 690 -45 50 -72 62 -212 90 -241 50 -396 100 -558 180 -266 133
-417 283 -499 497 l-30 78 32 30 c18 17 56 42 83 56 66 34 92 59 120 114 49
98 53 126 54 352 l1 177 45 -48 c97 -103 226 -137 350 -90 73 27 158 109 194
186 l24 52 27 -37 c15 -20 39 -49 55 -64z m-2663 -68 l35 -56 -28 -69 c-51
-125 -30 -205 52 -205 35 0 48 7 91 49 l51 48 44 -30 c42 -30 43 -31 27 -56
-83 -131 -230 -167 -320 -77 -68 68 -72 193 -13 387 12 38 22 69 24 67 1 -2
18 -28 37 -58z m1930 -122 c-5 -234 -35 -330 -122 -396 -41 -31 -49 -34 -94
-28 -73 8 -152 52 -225 125 l-64 64 54 28 54 28 20 -27 c40 -54 89 -104 116
-118 60 -31 113 -8 138 59 16 41 13 135 -5 196 -17 59 -22 48 55 133 19 21 40
47 48 58 8 11 17 20 21 20 4 0 6 -64 4 -142z m-1762 -89 c1 -14 -91 -89 -110
-89 -11 0 -27 11 -36 25 -19 29 -14 70 17 142 l19 46 55 -59 c30 -33 54 -62
55 -65z m1607 -29 c14 -102 -11 -180 -58 -180 -22 0 -76 46 -119 100 l-30 38
62 38 c35 21 76 48 93 60 16 13 33 20 37 16 4 -4 11 -36 15 -72z m-1077 -194
l45 -7 2 -58 c2 -94 43 -151 109 -151 17 0 43 9 56 20 33 25 60 93 57 141 -2
21 -1 40 1 42 3 2 33 7 68 10 l62 5 0 -49 c0 -104 -67 -216 -154 -258 -56 -28
-136 -28 -185 0 -67 38 -121 141 -136 263 -7 54 -6 58 11 53 11 -3 39 -8 64
-11z m232 -31 c9 -54 -24 -139 -58 -152 -26 -10 -64 15 -80 52 -14 35 -19 106
-8 118 4 3 37 5 75 4 60 -2 69 -4 71 -22z m-2984 -85 c71 -150 249 -355 362
-414 30 -16 56 -30 58 -31 10 -8 -15 -35 -40 -44 -72 -25 -346 -35 -591 -21
-284 16 -303 13 -333 -48 -29 -56 -39 -161 -23 -243 18 -99 55 -163 128 -230
l65 -58 -42 -85 c-63 -127 -180 -244 -308 -309 -91 -46 -101 -44 -161 47 -117
177 -162 348 -163 614 0 286 33 560 80 658 54 110 190 148 690 195 118 11 220
21 225 23 19 6 30 -5 53 -54z m3497 -105 c37 -18 71 -25 124 -27 l73 -3 17
-55 c10 -30 30 -79 45 -108 15 -30 25 -56 23 -59 -28 -27 -909 -294 -924 -279
-2 1 10 32 26 67 16 35 34 82 41 105 12 41 12 41 87 57 166 36 290 132 361
278 35 73 38 76 57 63 11 -8 43 -26 70 -39z m-847 -249 c54 -27 135 -51 204
-61 l47 -6 -20 -52 c-36 -91 -71 -166 -83 -176 -12 -10 -287 -61 -326 -61 -17
0 -16 7 15 71 19 39 51 125 72 190 20 65 39 119 40 119 2 0 25 -11 51 -24z
m1215 -111 c77 -88 190 -169 365 -263 l74 -39 4 -57 c2 -31 11 -84 19 -118 23
-88 9 -117 -145 -308 -120 -149 -199 -259 -232 -324 -29 -58 -30 -63 -27 -175
l4 -115 -57 -46 c-64 -52 -227 -140 -311 -169 -30 -11 -84 -22 -120 -26 l-66
-7 -7 37 c-13 70 2 295 24 355 54 147 99 226 280 493 129 189 136 197 168 197
42 0 54 17 17 26 -135 29 -201 50 -278 88 -117 58 -246 162 -302 244 -24 35
-43 66 -43 70 0 4 91 36 203 72 111 35 236 76 277 91 41 16 82 28 90 28 8 1
37 -24 63 -54z m-1303 -314 c0 -23 -14 -43 -67 -94 -59 -56 -176 -158 -224
-194 -14 -11 -15 3 -17 133 -1 106 2 146 11 149 7 2 73 10 147 18 74 8 138 15
143 15 4 1 7 -11 7 -27z m0 -283 l0 -203 -146 -135 c-81 -74 -149 -136 -153
-138 -3 -1 -5 94 -3 210 l4 213 84 65 c46 36 112 93 146 127 34 35 64 63 65
63 2 0 3 -91 3 -202z m-2805 -182 c44 -87 29 -201 -46 -353 -51 -105 -130
-192 -210 -232 -96 -48 -112 -37 -240 168 l-67 106 38 11 c151 45 353 233 408
379 l16 45 38 -37 c21 -21 50 -60 63 -87z m2758 -509 c-27 -27 -94 -89 -150
-139 l-103 -89 0 199 0 199 63 51 c34 28 100 86 147 130 l85 79 3 -190 2 -191
-47 -49z m3483 17 c70 -58 86 -92 92 -198 8 -160 -52 -338 -145 -431 -87 -87
-139 -94 -240 -33 -67 40 -183 147 -166 154 31 14 113 74 166 123 117 109 201
243 228 364 7 31 14 57 16 57 3 0 24 -16 49 -36z m-3436 -231 l0 -206 -52 -50
c-29 -27 -96 -85 -148 -129 l-95 -79 -3 198 -3 198 68 60 c37 33 104 94 148
137 44 43 81 78 83 78 1 0 2 -93 2 -207z m-1468 66 c97 -49 136 -125 145 -286
11 -169 -34 -361 -96 -417 -19 -18 -26 -18 -79 -7 -110 25 -311 119 -312 147
0 7 11 19 24 28 37 24 114 129 146 199 42 94 64 206 57 292 -4 40 -9 79 -13
88 -6 16 -3 16 32 1 22 -9 65 -29 96 -45z m2907 -36 c75 -91 56 -180 -68 -335
-100 -125 -233 -213 -363 -240 -62 -13 -81 -9 -102 25 -17 25 -71 223 -82 300
l-6 47 48 0 c68 0 166 26 260 70 82 38 219 124 243 154 20 24 37 20 70 -21z
m-1557 -784 c-66 -64 -133 -126 -151 -138 l-31 -22 0 203 0 204 83 61 c45 34
111 90 147 125 l65 63 3 -190 3 -190 -119 -116z m125 -147 l6 -202 -110 0
c-61 0 -131 3 -157 6 l-46 7 0 66 0 66 72 55 c40 30 106 89 148 130 41 42 76
75 78 75 1 -1 5 -92 9 -203z m118 -266 c30 -30 62 -92 70 -140 l7 -37 -352 2
-352 1 7 36 c7 36 33 93 57 123 30 36 50 39 296 38 241 0 244 0 267 -23z m210
-247 c43 -10 104 -34 133 -52 88 -52 171 -163 187 -249 l7 -36 -129 -8 c-166
-12 -1222 -12 -1375 -1 -138 10 -136 8 -82 116 45 91 112 159 194 199 123 60
134 61 580 55 354 -4 415 -7 485 -24z"/>
<path d="M2263 8654 c-98 -21 -179 -64 -317 -168 -72 -54 -160 -113 -197 -132
-124 -62 -286 -92 -341 -63 -11 6 -22 8 -25 5 -4 -3 10 -13 30 -21 81 -34 252
-6 376 61 37 20 121 76 186 124 65 49 147 102 181 119 87 42 205 64 320 59 95
-4 111 6 38 23 -55 12 -178 9 -251 -7z"/>
<path d="M3472 8802 c-48 -66 -146 -292 -203 -466 -33 -99 -57 -186 -55 -193
11 -27 26 -11 42 45 31 108 106 305 175 461 70 156 86 217 41 153z"/>
<path d="M2605 8153 c-29 -8 -46 -24 -43 -41 2 -11 20 -15 69 -17 87 -3 197
-54 258 -121 50 -53 74 -49 46 10 -46 96 -236 194 -330 169z"/>
<path d="M1812 7951 c-33 -21 -61 -66 -49 -78 4 -3 17 3 30 15 12 11 39 28 60
37 39 16 49 14 140 -33 4 -2 7 5 7 16 0 55 -123 83 -188 43z"/>
<path d="M2585 7786 c-66 -21 -98 -41 -152 -98 -228 -242 -171 -650 96 -684
167 -21 302 78 365 267 42 128 40 243 -5 365 -27 72 -62 112 -124 140 -56 27
-117 30 -180 10z m152 -47 c86 -32 144 -162 143 -318 l-1 -56 -19 37 c-63 119
-188 100 -240 -38 -24 -66 -26 -129 -4 -184 17 -41 59 -80 88 -80 31 0 15 -19
-30 -36 -138 -53 -280 15 -320 154 -18 62 -20 160 -3 229 28 114 124 244 211
283 48 22 131 26 175 9z"/>
<path d="M4214 7108 c100 -140 118 -280 65 -496 -48 -193 -32 -297 57 -370 34
-29 120 -59 132 -47 6 6 11 3 -60 38 -68 35 -104 81 -119 159 -12 59 -14 48
48 318 31 134 -2 287 -78 374 -42 47 -75 64 -45 24z"/>
<path d="M1549 6557 c-36 -23 -89 -115 -89 -153 0 -31 17 -74 30 -74 5 0 10
21 10 46 0 56 22 106 62 139 39 33 63 32 99 -4 39 -40 41 -111 4 -165 -34 -50
-12 -46 25 6 46 63 41 158 -11 207 -30 28 -86 27 -130 -2z"/>
<path d="M1056 6522 c-2 -4 7 -18 20 -31 13 -13 31 -49 40 -80 24 -87 25 -89
35 -56 11 36 -4 114 -27 150 -16 24 -57 34 -68 17z"/>
<path d="M7905 6406 c-194 -45 -347 -154 -477 -341 -71 -102 -120 -186 -113
-193 3 -3 6 -3 8 -1 2 2 38 54 81 116 142 204 283 317 466 375 96 29 253 31
345 4 263 -79 441 -278 520 -582 48 -186 40 -380 -29 -657 -57 -228 -68 -339
-47 -467 23 -140 103 -258 213 -312 60 -30 135 -48 124 -29 -4 6 -14 11 -23
11 -30 0 -134 64 -174 107 -129 140 -147 342 -60 685 54 210 65 298 58 459
-16 393 -220 696 -542 805 -97 33 -254 42 -350 20z"/>
<path d="M3830 5483 c-56 -51 -56 -143 1 -185 14 -11 44 -22 66 -25 117 -16
174 118 88 204 -28 28 -40 33 -79 33 -36 0 -52 -6 -76 -27z m131 -32 c73 -73
7 -176 -87 -136 -18 7 -38 23 -44 35 -27 51 20 130 77 130 14 0 37 -13 54 -29z"/>
<path d="M2432 5187 c-27 -28 -42 -77 -42 -134 0 -34 5 -46 31 -67 36 -30 41
-31 78 -11 40 20 64 76 59 137 -9 87 -77 127 -126 75z m88 -47 c16 -40 6 -91
-26 -121 -20 -18 -29 -21 -42 -13 -24 15 -29 107 -7 140 22 35 59 32 75 -6z"/>
<path d="M3052 5110 c-69 -42 -81 -150 -22 -202 72 -65 201 -10 200 84 -1 47
-38 108 -74 123 -47 20 -65 19 -104 -5z m93 -26 c21 -9 45 -56 45 -92 0 -41
-28 -71 -71 -78 -78 -13 -121 82 -68 150 20 26 57 34 94 20z"/>
<path d="M6853 4966 c-38 -17 -53 -43 -53 -91 0 -80 53 -124 125 -104 69 19
94 129 41 178 -29 28 -74 34 -113 17z m70 -27 c29 -16 37 -28 37 -64 0 -67
-65 -100 -110 -55 -34 34 -21 102 23 120 29 11 25 12 50 -1z"/>
</g>
</svg>
