<?xml version="1.0" encoding="UTF-8" standalone="yes"?>
<svg version="1.0" xmlns="http://www.w3.org/2000/svg" width="1024.000000pt" height="1024.000000pt" viewBox="0 0 1024.000000 1024.000000" preserveAspectRatio="xMidYMid meet">
  <metadata>
Created by potrace 1.16, written by Peter Selinger 2001-2019
</metadata>
  <g transform="translate(0.000000,1024.000000) scale(0.100000,-0.100000)" fill="#000000" stroke="none">
    <path d="M3760 9788 c-41 -27 -80 -98 -80 -145 0 -51 38 -153 73 -197 24 -31&#xA;26 -38 11 -32 -42 18 -151 19 -201 2 -62 -21 -121 -79 -133 -132 -16 -71 11&#xA;-143 63 -170 39 -21 159 -30 210 -16 35 10 51 2 26 -14 -6 -3 -22 -30 -35 -58&#xA;-27 -59 -32 -138 -10 -190 41 -97 172 -113 246 -30 37 42 49 69 65 144 l12 55&#xA;18 -35 c45 -89 109 -140 176 -140 44 0 97 28 114 61 19 36 19 110 1 154 -18&#xA;41 -86 117 -132 145 -29 19 -33 26 -31 62 l1 40 81 -4 c64 -4 94 -11 150 -38&#xA;98 -46 215 -165 272 -275 70 -137 70 -142 30 -238 -20 -45 -43 -111 -53 -147&#xA;-9 -36 -18 -66 -19 -67 -1 -2 -26 6 -57 17 -79 28 -131 34 -171 21 -71 -24&#xA;-106 -95 -81 -167 8 -22 14 -41 14 -44 0 -3 -22 -13 -49 -23 -57 -20 -137 -80&#xA;-176 -132 -22 -28 -34 -35 -61 -35 -44 0 -83 -16 -115 -46 l-26 -25 -13 31&#xA;c-21 51 -122 147 -186 178 -48 22 -73 27 -134 27 -163 0 -271 -103 -295 -281&#xA;l-6 -51 -62 25 c-150 61 -318 16 -395 -105 -80 -126 -78 -242 5 -394 2 -3 -36&#xA;-14 -84 -23 -367 -72 -586 -151 -770 -278 -328 -226 -497 -656 -637 -1623 -82&#xA;-562 -156 -1327 -182 -1876 l-6 -136 -50 -13 c-183 -46 -260 -386 -142 -627&#xA;62 -127 170 -223 287 -255 43 -11 49 -16 59 -51 13 -42 64 -93 103 -103 24 -6&#xA;25 -10 25 -83 1 -229 65 -522 152 -696 73 -145 190 -291 283 -354 174 -118&#xA;532 -144 785 -58 112 38 182 83 267 169 130 132 225 350 260 598 9 69 18 126&#xA;19 128 1 1 41 -6 90 -17 70 -16 500 -91 519 -91 3 0 5 -11 5 -24 0 -13 17 -57&#xA;37 -97 55 -109 160 -211 282 -272 51 -26 123 -56 160 -67 l67 -21 11 -72 c36&#xA;-223 161 -476 311 -626 109 -109 209 -159 402 -203 136 -30 395 -32 530 -4&#xA;204 43 317 101 446 230 164 165 260 375 325 714 10 52 15 62 28 56 22 -9 530&#xA;-13 658 -5 l102 6 26 -71 c77 -212 252 -370 482 -436 67 -20 102 -23 243 -23&#xA;201 0 281 18 445 100 232 115 359 287 435 588 l27 108 104 43 c132 54 178 83&#xA;260 165 113 113 176 258 186 428 9 147 -29 215 -139 248 l-43 12 -2 189 -2&#xA;188 34 71 c56 118 69 182 69 345 0 136 -2 151 -32 241 -42 126 -88 194 -208&#xA;309 -161 154 -301 233 -504 287 -114 30 -319 41 -453 24 l-88 -10 -93 64&#xA;c-177 122 -392 213 -636 266 -58 13 -106 23 -107 24 -2 1 -12 48 -23 106 -84&#xA;425 -226 947 -342 1254 l-49 130 25 50 c46 92 54 192 21 277 -6 15 0 16 47 11&#xA;55 -5 157 15 211 44 39 20 112 88 136 127 11 17 24 58 30 91 26 142 -61 285&#xA;-204 337 l-33 11 59 54 c81 76 114 144 114 243 0 87 -22 137 -78 187 -77 67&#xA;-204 82 -309 35 l-46 -20 1 66 c0 37 -5 84 -12 104 -15 46 -87 113 -139 128&#xA;-62 19 -188 9 -245 -19 -61 -29 -157 -118 -198 -181 l-31 -49 -38 47 -37 47&#xA;52 27 c62 32 100 74 116 128 10 34 9 44 -12 87 -36 71 -76 88 -207 87 -100 -1&#xA;-103 0 -98 20 20 81 28 174 24 271 -4 107 -6 116 -45 198 -73 152 -193 245&#xA;-387 301 -176 51 -324 43 -471 -27 -78 -38 -171 -117 -200 -171 -20 -37 -35&#xA;-47 -35 -23 0 24 -77 171 -118 227 -79 106 -201 191 -316 222 -25 7 -46 15&#xA;-45 18 0 3 26 22 58 42 139 90 158 229 40 291 -46 25 -116 16 -196 -23 -60&#xA;-30 -133 -99 -133 -127 0 -7 -4 -13 -9 -13 -5 0 -11 28 -13 63 -5 79 -44 166&#xA;-88 197 -49 35 -125 39 -170 8z m148 -53 c42 -35 64 -96 70 -197 l5 -87 -29&#xA;-11 c-16 -5 -36 -15 -44 -20 -35 -23 -43 -22 -86 21 -83 81 -116 188 -79 259&#xA;33 64 109 80 163 35z m463 -114 c73 -74 8 -173 -166 -252 l-66 -30 -26 32&#xA;c-15 18 -40 39 -55 49 l-28 17 39 59 c50 77 87 110 147 134 74 29 119 26 155&#xA;-9z m-587 -252 l64 -21 -10 -35 c-5 -19 -7 -52 -4 -74 6 -45 5 -46 -93 -78&#xA;-75 -25 -179 -28 -220 -7 -47 25 -65 91 -37 144 44 85 167 114 300 71z m273&#xA;-12 c31 -29 37 -41 40 -88 4 -50 2 -56 -25 -83 -42 -39 -106 -46 -144 -16 -84&#xA;65 -43 220 58 220 25 0 44 -9 71 -33z m179 -271 c78 -91 61 -206 -31 -206 -72&#xA;0 -152 91 -169 190 -6 33 -3 37 42 66 l47 31 39 -21 c21 -12 54 -39 72 -60z&#xA;m-351 44 c10 -11 35 -25 55 -31 l36 -11 -7 -73 c-16 -162 -109 -259 -197 -205&#xA;-54 33 -67 103 -36 195 16 46 98 145 121 145 5 0 18 -9 28 -20z m1540 -64&#xA;c100 -27 196 -79 263 -141 109 -101 152 -203 152 -358 0 -51 -4 -98 -9 -106&#xA;-13 -20 -200 -27 -332 -12 -142 16 -330 55 -443 91 -81 26 -297 126 -317 148&#xA;-12 11 25 105 62 159 94 137 200 206 359 237 47 9 205 -2 265 -18z m-631 -470&#xA;c260 -140 670 -226 941 -197 50 5 91 8 92 7 2 -1 -11 -52 -28 -113 l-31 -111&#xA;-45 -6 c-167 -23 -500 26 -752 109 -106 36 -265 109 -309 143 l-23 18 31 97&#xA;c17 53 34 97 37 97 3 0 42 -20 87 -44z m-261 -102 c37 -13 47 -20 47 -38 0&#xA;-75 287 -213 580 -280 183 -41 430 -62 545 -46 81 11 88 15 106 43 10 17 21&#xA;43 24 58 6 25 12 28 62 35 120 15 211 -12 234 -69 11 -26 10 -35 -7 -66 -56&#xA;-104 -262 -158 -559 -147 -453 16 -875 137 -1104 314 -89 68 -114 100 -113&#xA;142 2 76 61 94 185 54z m-115 -227 c203 -155 472 -253 845 -309 199 -30 498&#xA;-32 625 -5 45 10 87 15 92 12 24 -15 112 -163 140 -237 50 -128 71 -242 77&#xA;-423 6 -185 -11 -294 -66 -425 -40 -95 -46 -104 -64 -97 -14 5 -14 10 2 44 59&#xA;123 19 307 -88 412 -132 128 -326 120 -462 -20 -26 -27 -50 -58 -54 -69 -9&#xA;-28 -18 -25 -39 15 -28 51 -108 123 -170 151 -217 99 -465 -48 -506 -301 -22&#xA;-137 44 -298 153 -373 94 -65 235 -90 327 -57 23 8 44 15 45 15 2 0 -4 -19&#xA;-12 -42 -10 -29 -14 -67 -11 -114 5 -68 4 -71 -16 -66 -56 13 -176 78 -302&#xA;164 -162 110 -227 134 -341 126 -88 -7 -145 -33 -215 -97 -67 -62 -103 -130&#xA;-124 -238 -45 -237 19 -487 187 -733 134 -196 318 -341 543 -429 159 -62 218&#xA;-75 336 -75 118 0 184 16 289 69 234 117 502 445 566 692 22 82 20 165 -4 194&#xA;-26 32 -43 16 -32 -31 22 -98 -29 -256 -132 -411 -162 -243 -344 -392 -549&#xA;-449 -86 -24 -140 -25 -240 -6 -364 70 -673 311 -839 655 -131 270 -116 614&#xA;30 731 78 61 119 75 216 75 106 0 114 -4 311 -136 139 -94 205 -127 294 -150&#xA;45 -11 66 -25 111 -70 101 -101 252 -159 414 -159 210 0 373 87 443 238 23 49&#xA;27 71 27 149 0 51 3 93 8 93 24 0 101 -47 131 -81 91 -100 93 -311 5 -510 -67&#xA;-153 -245 -416 -428 -632 -137 -161 -311 -276 -478 -313 -118 -26 -341 -15&#xA;-493 24 -294 75 -552 227 -737 433 -127 142 -207 313 -244 523 l-11 63 31 31&#xA;c31 30 41 62 20 62 -6 0 -29 -15 -50 -34 -107 -91 -252 -66 -374 66 -93 101&#xA;-136 216 -136 365 1 167 71 294 196 354 169 81 350 -18 415 -228 15 -50 18&#xA;-53 24 -30 3 15 3 45 0 67 -5 29 -3 40 6 40 33 0 147 68 204 120 113 106 160&#xA;234 137 373 -19 116 -74 206 -157 256 -17 10 -18 12 -3 21 31 18 89 118 105&#xA;180 12 49 14 74 6 120 -24 135 -127 261 -244 299 l-36 12 41 38 c61 56 148&#xA;106 190 110 5 1 34 -18 65 -42z m-765 -7 c71 -27 165 -113 203 -184 16 -31 32&#xA;-56 36 -56 3 0 15 15 26 34 57 96 219 90 326 -12 53 -51 83 -101 102 -171 15&#xA;-52 15 -68 4 -120 -17 -81 -62 -155 -116 -194 -47 -33 -57 -57 -24 -57 30 0&#xA;90 -33 122 -67 51 -54 73 -118 73 -218 0 -82 -3 -97 -33 -157 -40 -81 -133&#xA;-172 -223 -217 -58 -29 -65 -30 -74 -15 -35 58 -72 99 -113 125 -257 163 -543&#xA;-39 -542 -385 0 -57 19 -168 36 -210 7 -18 2 -19 -92 -14 -138 7 -213 47 -261&#xA;141 -52 102 -41 243 23 304 53 50 43 71 -22 48 -21 -8 -70 -14 -109 -14 -157&#xA;-1 -264 103 -265 256 0 77 28 155 74 210 37 43 136 96 199 107 51 9 46 28 -13&#xA;49 -74 26 -155 107 -180 179 -39 112 -17 220 60 300 62 64 136 86 232 70 79&#xA;-14 160 -48 206 -87 18 -15 35 -25 38 -22 3 3 -4 23 -15 46 -54 105 6 268 120&#xA;325 65 32 127 34 202 6z m2931 -184 c58 -34 86 -90 86 -175 0 -34 -6 -74 -14&#xA;-90 -19 -37 -5 -63 21 -39 25 23 99 53 165 68 109 25 220 -37 248 -136 30&#xA;-106 -14 -213 -126 -307 -38 -32 -69 -63 -69 -69 0 -6 28 -19 62 -29 234 -72&#xA;287 -328 94 -457 -86 -57 -213 -78 -287 -47 -47 19 -51 6 -25 -73 63 -187 -39&#xA;-362 -219 -374 l-44 -3 -8 44 c-11 64 -44 125 -90 166 -46 43 -111 74 -150 75&#xA;-18 0 -31 8 -39 23 -7 12 -25 38 -40 58 l-28 36 40 79 c61 121 80 212 86 399&#xA;8 237 -20 388 -103 562 -19 39 -34 74 -34 77 0 3 27 36 59 74 64 74 149 137&#xA;215 158 60 20 147 11 200 -20z m-3661 -646 c10 0 17 -4 17 -10 0 -5 -7 -10&#xA;-15 -10 -28 0 -113 -49 -151 -87 -20 -21 -48 -63 -63 -93 -34 -74 -37 -210 -5&#xA;-281 51 -110 138 -168 266 -177 67 -4 78 -7 73 -21 -4 -9 -11 -41 -17 -71 -27&#xA;-144 43 -294 162 -351 50 -24 50 -24 45 -64 -3 -22 -9 -119 -15 -215 -6 -96&#xA;-12 -209 -15 -250 -2 -41 -7 -129 -10 -195 -3 -66 -8 -158 -10 -205 -28 -530&#xA;-23 -1757 9 -2295 18 -302 34 -501 42 -528 8 -27 27 -32 326 -86 315 -57 503&#xA;-85 525 -77 23 9 -1 32 -40 39 -17 3 -99 17 -182 31 -234 41 -579 108 -587&#xA;115 -6 6 -17 162 -44 621 -15 268 -32 1550 -21 1611 l7 34 102 -5 c57 -3 220&#xA;-7 363 -8 l260 -3 35 -33 c62 -60 91 -69 204 -64 100 4 114 8 229 66 4 2 7&#xA;-18 7 -45 0 -143 141 -261 300 -250 85 5 156 42 231 117 l58 57 11 -28 c17&#xA;-40 92 -107 148 -131 34 -15 68 -21 127 -21 88 -1 93 1 415 138 399 169 670&#xA;229 1040 229 276 0 457 -27 690 -103 305 -100 568 -277 729 -491 102 -136 173&#xA;-297 221 -500 33 -141 41 -150 36 -40 -4 118 -37 235 -106 378 -58 121 -115&#xA;203 -210 305 l-69 74 67 7 c300 28 542 -33 765 -192 42 -30 77 -56 77 -56 0&#xA;-1 -36 -1 -80 -2 -68 -1 -89 -6 -144 -33 -158 -77 -258 -277 -258 -516 -1&#xA;-202 52 -353 162 -466 82 -83 150 -114 255 -114 65 0 90 5 135 26 30 14 68 38&#xA;83 53 l28 26 -3 -170 c-2 -138 -6 -172 -19 -185 -27 -27 -193 -93 -311 -124&#xA;-185 -48 -165 -50 -160 20 13 183 -120 305 -263 240 -81 -36 -134 -131 -162&#xA;-285 l-16 -94 -106 -16 c-111 -17 -599 -79 -712 -91 l-66 -6 -5 78 c-5 93 -33&#xA;161 -86 217 -128 134 -319 84 -362 -95 -12 -50 -9 -177 5 -211 6 -15 -19 -17&#xA;-307 -20 l-313 -3 -60 -30 c-108 -54 -152 -158 -142 -340 6 -122 33 -199 88&#xA;-257 l39 -41 -59 6 c-75 6 -116 28 -130 68 -6 18 -25 116 -42 218 -17 102 -40&#xA;224 -51 271 -155 658 -516 999 -942 890 -306 -78 -541 -372 -646 -810 -17 -70&#xA;-50 -301 -50 -347 0 -7 -10 -13 -21 -13 -75 0 -1239 206 -1255 222 -2 2 1 58&#xA;7 123 31 372 -57 861 -207 1147 -107 201 -275 369 -428 427 -182 68 -394 46&#xA;-573 -60 -77 -46 -208 -177 -268 -269 -165 -252 -264 -598 -253 -883 l3 -88&#xA;-25 6 c-41 10 -129 67 -173 113 -90 91 -133 227 -125 392 4 81 10 108 35 162&#xA;32 67 76 111 125 123 26 7 27 5 30 -36 2 -32 8 -45 20 -47 13 -2 18 7 22 40 6&#xA;42 25 363 28 464 l1 52 62 5 c111 8 248 93 319 196 102 146 112 380 25 552&#xA;-59 117 -183 215 -281 221 -37 3 -37 4 -32 38 2 19 20 157 39 305 97 759 186&#xA;1158 319 1441 68 142 137 243 222 324 95 90 152 130 274 190 131 64 273 109&#xA;515 163 l190 43 31 -23 c17 -13 38 -23 47 -23z m2328 -165 c73 -38 143 -112&#xA;169 -182 31 -83 25 -206 -13 -285 -113 -231 -446 -237 -570 -11 -103 190 -19&#xA;420 181 496 66 25 163 17 233 -18z m614 -4 c138 -63 209 -217 175 -378 -16&#xA;-72 -19 -75 -65 -58 -22 8 -57 14 -78 15 -35 0 -37 2 -27 21 47 86 -54 174&#xA;-120 104 -19 -20 -22 -32 -18 -69 l5 -45 -46 -6 c-42 -5 -163 -33 -218 -50&#xA;l-22 -7 20 51 c20 55 25 153 9 195 -7 20 -4 35 17 73 45 84 110 142 183 164&#xA;47 14 143 9 185 -10z m98 -490 c83 -29 148 -80 183 -143 26 -48 29 -62 29&#xA;-143 0 -74 -4 -97 -23 -132 -71 -134 -205 -203 -392 -203 -184 0 -362 84 -430&#xA;204 -25 42 -30 62 -30 116 0 78 19 123 83 201 51 63 106 89 238 114 102 20&#xA;266 13 342 -14z m816 -611 c49 -134 153 -496 209 -725 44 -178 114 -516 109&#xA;-522 -2 -2 -35 1 -73 7 -38 5 -92 10 -120 10 l-52 0 -11 98 c-24 197 -56 336&#xA;-146 638 -53 178 -117 359 -171 486 -15 34 -30 80 -34 100 l-7 36 60 11 c33 6&#xA;82 24 111 40 l51 29 17 -47 c9 -25 35 -98 57 -161z m-3385 130 l69 0 -7 -292&#xA;c-4 -161 -11 -390 -16 -508 -5 -118 -13 -300 -16 -403 -7 -185 -8 -188 -28&#xA;-183 -12 3 -58 6 -103 6 l-82 0 4 43 c2 23 7 155 10 292 4 138 8 264 10 282 1&#xA;17 6 109 10 205 4 95 8 175 10 178 1 3 6 75 9 160 9 214 13 233 40 226 11 -3&#xA;52 -6 90 -6z m3185 -415 c115 -345 192 -650 216 -855 4 -30 9 -63 12 -73 4&#xA;-16 -2 -17 -74 -11 -43 3 -81 9 -85 13 -10 9 -52 178 -123 486 -52 230 -106&#xA;429 -126 466 -6 13 -1 36 20 83 17 36 36 90 43 120 7 31 16 52 20 48 4 -4 47&#xA;-129 97 -277z m-2525 -202 c32 -67 90 -147 161 -222 282 -298 678 -471 1073&#xA;-471 298 0 515 119 732 398 l64 83 53 -53 c66 -65 113 -154 113 -215 0 -107&#xA;-86 -187 -201 -186 -31 1 -65 6 -76 11 -11 6 -25 7 -33 2 -10 -6 -9 -15 9 -46&#xA;28 -47 38 -132 19 -157 -7 -10 -74 -40 -148 -66 -120 -43 -138 -47 -160 -36&#xA;-34 18 -66 54 -77 90 -16 50 -37 37 -44 -27 -6 -59 -22 -92 -68 -141 -45 -49&#xA;-98 -71 -171 -71 -130 0 -237 79 -261 192 -17 87 -17 86 -34 72 -8 -7 -15 -21&#xA;-15 -32 0 -55 -95 -164 -177 -203 -83 -40 -205 -25 -274 32 -56 48 -74 97 -73&#xA;201 1 65 -2 92 -11 92 -6 0 -17 -11 -23 -24 -14 -31 -119 -83 -198 -98 -109&#xA;-20 -192 8 -241 81 -19 28 -23 48 -23 107 0 98 27 168 92 239 28 31 48 58 46&#xA;61 -3 2 -17 0 -32 -6 -15 -5 -60 -10 -100 -10 -86 0 -149 27 -183 79 -64 96&#xA;14 258 161 335 65 35 79 33 100 -11z m-321 -312 c8 -39 58 -94 104 -116 22&#xA;-11 63 -18 104 -19 l67 -1 -23 -27 c-38 -45 -60 -124 -60 -218 l0 -85 -110 2&#xA;c-60 2 -165 3 -232 3 l-123 0 0 78 c0 84 19 137 81 230 37 55 169 193 179 187&#xA;4 -3 10 -18 13 -34z m2441 -463 c33 -12 55 -23 50 -25 -5 -1 -51 -13 -101 -26&#xA;l-93 -23 0 40 c0 23 -3 51 -6 63 -6 23 -6 23 42 8 27 -8 76 -24 108 -37z&#xA;m-4787 2 c208 -98 292 -392 178 -627 -60 -122 -185 -212 -307 -221 l-58 -4 0&#xA;28 c0 25 23 287 61 704 6 69 13 131 15 138 6 20 45 14 111 -18z m4252 -230 c1&#xA;-3 -23 -14 -53 -26 l-54 -21 25 48 26 48 28 -22 c15 -12 28 -24 28 -27z m3367&#xA;-485 c200 -98 289 -481 177 -763 -61 -152 -170 -242 -293 -242 -90 0 -146 25&#xA;-218 96 -113 113 -168 272 -159 459 9 165 61 300 151 390 97 98 221 119 342&#xA;60z m-6771 -180 c96 -20 136 -37 210 -90 147 -104 288 -301 360 -503 107 -301&#xA;159 -707 124 -982 -5 -46 -11 -86 -13 -87 -7 -7 -188 41 -191 51 -1 6 -17 92&#xA;-35 191 -57 319 -128 570 -207 733 -52 108 -160 231 -240 275 -188 102 -412&#xA;62 -562 -99 -157 -167 -240 -405 -247 -708 -3 -145 -9 -216 -19 -216 -16 0&#xA;-74 45 -83 65 -57 124 -33 457 50 700 166 488 493 744 853 670z m-10 -605&#xA;c126 -60 237 -195 306 -375 84 -216 124 -464 116 -725 -6 -200 -23 -312 -73&#xA;-459 -117 -351 -323 -519 -562 -457 -87 22 -132 47 -205 116 -141 132 -246&#xA;329 -304 570 -35 146 -44 433 -18 595 59 381 238 681 448 754 94 32 199 25&#xA;292 -19z m3005 -355 c203 -54 379 -235 487 -503 70 -172 123 -441 123 -621 0&#xA;-543 -229 -1002 -549 -1102 -81 -25 -214 -27 -303 -4 -290 76 -515 375 -600&#xA;800 -32 158 -32 422 1 584 91 460 311 769 601 845 71 19 171 19 240 1z m3312&#xA;-93 c50 -55 68 -127 52 -210 -6 -27 -12 -32 -53 -41 -94 -20 -294 -52 -298&#xA;-47 -8 8 26 156 47 204 63 143 169 182 252 94z m689 -117 c77 -34 99 -142 60&#xA;-297 -29 -111 -71 -196 -132 -262 -163 -179 -409 -258 -1179 -380 -533 -85&#xA;-805 -109 -1225 -110 -296 -1 -349 1 -410 17 -119 30 -185 81 -227 172 -20 44&#xA;-23 66 -23 175 0 143 16 202 66 244 59 50 104 55 452 57 177 1 405 8 507 15&#xA;532 39 1313 151 1662 240 165 41 336 110 367 148 9 10 18 12 29 6 10 -5 33&#xA;-16 53 -25z m-2118 12 c91 -39 148 -129 155 -248 3 -59 1 -76 -9 -76 -8 0 -81&#xA;-4 -164 -9 -201 -11 -188 -13 -196 16 -11 38 -10 141 1 181 15 54 51 101 95&#xA;126 46 26 73 28 118 10z m1152 -1019 c-23 -132 -105 -299 -190 -383 -57 -57&#xA;-170 -133 -181 -123 -3 3 15 17 38 31 24 14 78 61 120 105 84 88 133 177 183&#xA;330 29 90 41 105 30 40z"/>
    <path d="M4980 7767 c-76 -22 -123 -49 -177 -103 -52 -51 -69 -92 -61 -144 5&#xA;-36 41 -43 80 -15 79 58 116 79 157 92 52 15 148 17 210 2 53 -12 74 3 74 51&#xA;0 87 -159 153 -283 117z"/>
    <path d="M5765 7721 c-84 -21 -126 -78 -92 -124 9 -13 31 -18 89 -21 99 -4&#xA;164 -39 226 -120 46 -59 65 -68 82 -37 39 74 -42 226 -150 281 -46 23 -112 32&#xA;-155 21z"/>
    <path d="M3738 6727 c-45 -11 -98 -67 -98 -104 0 -25 1 -24 38 17 31 35 44 43&#xA;82 47 79 8 126 -36 167 -156 l22 -66 1 58 c0 139 -96 232 -212 204z"/>
    <path d="M4680 6359 c-62 -26 -104 -92 -115 -180 -8 -65 9 -91 20 -31 9 51 43&#xA;127 66 148 28 26 98 35 138 18 41 -17 41 -17 41 -1 0 40 -95 69 -150 46z"/>
    <path d="M4856 6180 c-66 -20 -96 -87 -96 -215 0 -342 343 -654 654 -596 98&#xA;18 161 54 246 139 60 59 82 89 96 131 18 52 21 55 89 86 124 57 188 152 151&#xA;223 -31 60 -64 64 -187 26 -72 -23 -102 -27 -204 -27 -205 1 -342 42 -515 155&#xA;-85 54 -163 90 -194 87 -6 0 -24 -5 -40 -9z m230 -132 c228 -146 469 -187 721&#xA;-124 61 16 118 26 127 23 8 -3 18 -17 22 -31 10 -40 -27 -89 -96 -125 -212&#xA;-113 -517 -65 -832 131 -41 25 -68 65 -68 98 0 16 43 60 59 60 9 0 39 -14 67&#xA;-32z m-31 -293 c126 -33 208 -111 249 -235 37 -112 36 -114 -21 -105 -138 20&#xA;-286 123 -385 268 l-39 57 23 9 c13 4 30 11 38 14 27 10 75 7 135 -8z"/>
    <path d="M2397 6608 c-130 -9 -267 -40 -322 -72 -51 -31 -127 -111 -154 -164&#xA;-79 -154 -154 -657 -160 -1074 -2 -113 0 -128 16 -136 10 -6 237 -11 537 -13&#xA;l519 -4 18 25 c25 34 36 136 54 500 22 444 25 510 35 661 10 155 3 197 -39&#xA;240 -15 15 -47 32 -70 39 -45 12 -258 11 -434 -2z m-134 -100 c-84 -87 -142&#xA;-214 -178 -393 -44 -217 -79 -594 -74 -789 l4 -126 -102 0 -103 0 0 123 c0&#xA;109 7 227 26 412 9 94 42 312 59 395 54 262 136 365 320 405 90 20 93 19 48&#xA;-27z"/>
    <path d="M2577 4930 c-57 -15 -128 -55 -164 -92 -100 -105 -131 -298 -69 -434&#xA;29 -62 114 -152 172 -182 95 -48 202 -49 292 -3 53 27 129 112 160 179 24 51&#xA;27 69 27 167 0 101 -2 115 -29 170 -57 115 -166 192 -286 200 -36 2 -82 0&#xA;-103 -5z m198 -64 c65 -31 121 -88 154 -156 22 -47 26 -69 26 -145 0 -81 -3&#xA;-97 -32 -155 -64 -130 -154 -188 -277 -178 -145 12 -257 122 -286 280 -8 44&#xA;-7 72 4 128 35 166 130 248 291 249 54 1 82 -5 120 -23z"/>
    <path d="M7065 4620 c-3 -5 -1 -10 5 -10 6 0 79 -66 162 -147 156 -153 317&#xA;-333 370 -415 31 -48 42 -56 52 -39 10 15 -105 186 -189 282 -92 106 -219 227&#xA;-279 268 -84 56 -114 72 -121 61z"/>
    <path d="M5550 4492 c0 -6 17 -14 38 -17 98 -17 275 -60 355 -86 139 -45 246&#xA;-102 421 -222 l39 -27 -40 0 c-169 0 -345 -130 -438 -325 -52 -109 -68 -179&#xA;-67 -305 2 -173 60 -318 171 -430 106 -106 216 -150 371 -150 212 0 396 154&#xA;472 394 28 88 35 260 15 357 -45 215 -191 390 -374 446 -40 12 -78 34 -113 63&#xA;-171 146 -375 243 -600 283 -123 23 -250 32 -250 19z m931 -406 c164 -38 305&#xA;-196 355 -396 22 -86 22 -237 0 -319 -50 -187 -173 -330 -324 -378 -69 -22&#xA;-195 -19 -272 7 -149 50 -263 178 -316 356 -25 81 -25 257 0 339 42 140 150&#xA;286 256 348 91 53 197 68 301 43z"/>
    <path d="M6333 3937 c-132 -49 -228 -202 -240 -382 -16 -229 111 -418 291&#xA;-432 307 -25 463 478 230 737 -71 79 -189 111 -281 77z m191 -61 c150 -88 204&#xA;-359 110 -547 -33 -66 -65 -101 -123 -132 -93 -51 -193 -35 -270 42 -77 77&#xA;-107 172 -99 317 7 117 33 184 103 262 86 95 182 115 279 58z"/>
    <path d="M3464 4444 c-12 -3 -32 -16 -45 -30 -21 -23 -24 -35 -23 -100 2 -139&#xA;34 -154 306 -151 205 2 198 -1 219 94 17 74 3 139 -34 167 -26 19 -43 21 -215&#xA;23 -103 1 -197 -1 -208 -3z m408 -74 c17 -21 19 -34 14 -77 -10 -89 4 -83&#xA;-196 -83 -187 0 -222 6 -240 39 -19 36 -16 107 5 131 18 20 26 21 208 18 188&#xA;-3 189 -3 209 -28z"/>
    <path d="M4718 4256 c-105 -38 -201 -127 -240 -224 -32 -81 -33 -236 -1 -304&#xA;30 -66 105 -143 169 -174 179 -88 425 3 510 189 25 55 29 73 29 162 0 93 -2&#xA;105 -33 167 -40 81 -111 149 -188 177 -64 24 -188 28 -246 7z m261 -66 c111&#xA;-60 163 -153 163 -292 0 -90 -27 -160 -85 -225 -93 -102 -255 -136 -382 -79&#xA;-71 32 -120 78 -152 144 -24 49 -28 69 -28 142 0 70 5 95 26 140 86 185 289&#xA;260 458 170z"/>
    <path d="M7623 3862 c-157 -56 -231 -169 -220 -338 4 -69 10 -92 36 -137 36&#xA;-62 90 -116 153 -149 36 -19 58 -23 143 -23 90 0 106 3 159 29 76 37 140 102&#xA;174 174 38 83 38 194 -1 273 -32 67 -100 132 -165 162 -67 30 -208 34 -279 9z&#xA;m260 -55 c68 -31 113 -70 140 -121 18 -33 22 -57 22 -131 0 -102 -17 -147 -82&#xA;-211 -87 -87 -240 -116 -348 -64 -98 48 -162 140 -172 249 -20 223 224 377&#xA;440 278z"/>
    <path d="M3768 3623 c-115 -44 -185 -128 -208 -250 -24 -123 10 -226 99 -304&#xA;84 -75 230 -90 336 -36 153 78 221 277 150 436 -30 66 -70 108 -138 143 -58&#xA;30 -175 35 -239 11z m178 -38 c138 -41 213 -190 170 -336 -58 -200 -278 -272&#xA;-429 -139 -64 57 -91 117 -90 201 2 134 83 243 202 275 62 17 88 17 147 -1z"/>
    <path d="M5110 6965 c-44 -46 -21 -127 40 -140 56 -12 110 44 96 100 -16 65&#xA;-92 87 -136 40z"/>
    <path d="M8832 4059 c-69 -20 -148 -134 -173 -250 -6 -29 -9 -89 -6 -133 15&#xA;-247 165 -406 319 -338 80 35 139 145 159 293 25 185 -71 393 -198 428 -44 13&#xA;-56 13 -101 0z m136 -69 c97 -76 143 -247 108 -401 -29 -131 -97 -219 -169&#xA;-219 -71 0 -150 73 -182 170 -22 67 -33 183 -23 247 15 97 77 197 138 222 34&#xA;14 97 5 128 -19z"/>
    <path d="M1972 3019 c-160 -80 -263 -356 -249 -672 7 -156 32 -266 84 -374&#xA;125 -257 330 -297 466 -90 95 145 132 309 124 547 -6 177 -25 264 -87 397 -85&#xA;181 -212 254 -338 192z m186 -66 c75 -60 146 -199 177 -348 24 -115 25 -336 2&#xA;-440 -26 -113 -94 -251 -150 -302 -92 -85 -174 -78 -263 20 -52 57 -106 164&#xA;-129 254 -34 134 -34 404 -1 528 36 133 125 272 198 309 49 25 120 16 166 -21z"/>
    <path d="M2017 2849 c-47 -27 -63 -157 -28 -215 59 -97 172 -7 159 126 -8 83&#xA;-70 124 -131 89z m82 -60 c10 -18 12 -39 7 -72 -12 -79 -56 -103 -82 -42 -20&#xA;48 -18 88 7 119 25 32 48 30 68 -5z"/>
    <path d="M1880 2501 c-68 -68 -39 -248 39 -239 38 4 61 57 61 138 0 74 -14&#xA;109 -48 121 -19 7 -29 3 -52 -20z m54 -47 c10 -25 7 -104 -5 -125 -19 -36 -39&#xA;-4 -39 60 0 67 28 108 44 65z"/>
    <path d="M2157 2502 c-36 -40 -47 -110 -26 -173 38 -113 137 -101 153 19 7 58&#xA;-7 127 -31 155 -21 22 -75 22 -96 -1z m79 -55 c4 -12 7 -43 7 -70 0 -89 -50&#xA;-101 -73 -17 -21 77 43 160 66 87z"/>
    <path d="M2010 2170 c-62 -62 -50 -200 22 -239 37 -21 74 -2 95 46 20 49 12&#xA;146 -15 182 -25 34 -73 40 -102 11z m74 -52 c32 -45 11 -148 -30 -148 -22 0&#xA;-47 68 -40 108 10 62 42 80 70 40z"/>
    <path d="M4990 2633 c-68 -24 -176 -138 -228 -239 -65 -126 -112 -334 -112&#xA;-492 0 -84 28 -253 56 -339 49 -153 148 -283 255 -339 158 -82 335 14 444 239&#xA;135 280 135 659 1 932 -51 104 -128 190 -203 226 -61 29 -151 35 -213 12z&#xA;m185 -57 c110 -52 200 -187 252 -381 23 -87 26 -119 27 -255 0 -158 -8 -221&#xA;-46 -340 -66 -208 -205 -354 -338 -354 -88 0 -191 79 -260 198 -204 357 -102&#xA;989 182 1130 65 32 118 33 183 2z"/>
    <path d="M5050 2432 c-51 -25 -72 -72 -68 -154 4 -74 26 -116 70 -132 69 -25&#xA;128 37 136 142 6 84 -13 127 -63 148 -42 17 -33 17 -75 -4z m75 -57 c40 -39&#xA;30 -139 -16 -168 -24 -15 -64 -1 -77 28 -30 65 4 165 55 165 8 0 25 -11 38&#xA;-25z"/>
    <path d="M5233 2038 c-39 -43 -50 -86 -45 -174 4 -69 72 -125 127 -104 77 29&#xA;81 250 6 290 -32 16 -66 12 -88 -12z m81 -50 c18 -26 22 -129 6 -159 -14 -26&#xA;-55 -24 -74 3 -35 49 -8 178 36 178 9 0 24 -10 32 -22z"/>
    <path d="M4828 2030 c-38 -29 -51 -71 -46 -149 3 -57 8 -75 28 -96 75 -79 169&#xA;30 141 164 -18 91 -69 124 -123 81z m66 -46 c22 -21 22 -122 0 -152 -35 -50&#xA;-74 -11 -74 76 0 75 37 113 74 76z"/>
    <path d="M5012 1648 c-42 -53 -54 -140 -28 -201 43 -103 161 -92 186 19 10 41&#xA;-3 118 -23 144 -35 45 -112 66 -135 38z m88 -56 c34 -28 41 -121 11 -151 -27&#xA;-27 -42 -27 -70 3 -31 33 -40 106 -17 141 19 30 45 32 76 7z"/>
  </g>
  <title>Clown Car Tiny</title>
  <desc>Clown Car Tiny</desc>
</svg>