<?xml version="1.0" encoding="UTF-8" standalone="yes"?>
<svg version="1.0" xmlns="http://www.w3.org/2000/svg" width="1024.000000pt" height="1024.000000pt" viewBox="0 0 1024.000000 1024.000000" preserveAspectRatio="xMidYMid meet">
  <metadata>
Created by potrace 1.16, written by Peter Selinger 2001-2019
</metadata>
  <g transform="translate(0.000000,1024.000000) scale(0.100000,-0.100000)" fill="#000000" stroke="none">
    <path d="M2412 9904 c-173 -156 -303 -419 -303 -615 0 -67 22 -135 62 -190 10&#xA;-13 1 -49 -49 -190 -34 -96 -67 -193 -73 -216 l-12 -41 -51 5 c-103 11 -224&#xA;-76 -261 -187 -9 -26 -23 -54 -32 -62 -34 -27 -73 -102 -73 -139 0 -21 -7 -42&#xA;-16 -50 -36 -30 -58 -92 -58 -165 1 -92 41 -183 112 -252 l48 -46 -39 -106&#xA;c-91 -244 -158 -455 -152 -477 8 -34 62 -64 110 -61 46 3 72 34 107 131 l22&#xA;61 27 -165 c91 -551 302 -1091 599 -1534 207 -308 404 -544 597 -713 129 -114&#xA;140 -125 150 -170 6 -26 35 -128 66 -227 93 -305 107 -385 107 -590 1 -184&#xA;-19 -331 -70 -531 -71 -278 -141 -428 -343 -726 -175 -261 -220 -385 -196&#xA;-552 17 -128 55 -211 135 -297 l43 -45 -70 -205 c-39 -112 -81 -236 -93 -275&#xA;l-21 -72 -125 -64 c-265 -135 -476 -300 -515 -401 -21 -55 -15 -84 26 -131 47&#xA;-55 104 -71 239 -70 188 1 398 63 618 180 68 36 110 53 122 49 24 -8 122 43&#xA;180 92 78 67 109 178 72 258 l-19 40 99 200 99 200 67 11 c215 37 354 157 464&#xA;399 29 63 355 815 380 875 l15 35 94 3 c81 2 178 14 319 37 32 6 42 0 118 -60&#xA;140 -113 248 -255 290 -380 30 -91 35 -159 18 -255 -18 -97 -20 -219 -6 -270&#xA;21 -76 78 -144 166 -196 17 -10 15 -23 -36 -229 -44 -177 -59 -225 -81 -249&#xA;-44 -52 -62 -97 -67 -173 -7 -107 -3 -115 75 -150 86 -39 177 -68 275 -88 96&#xA;-19 115 -19 125 0 7 12 20 11 88 -11 219 -68 525 -102 680 -75 175 31 243 103&#xA;185 198 -53 88 -302 204 -588 273 -121 29 -113 25 -102 57 5 15 27 96 50 178&#xA;68 248 71 255 84 255 24 0 131 76 189 135 172 174 216 481 110 779 -63 179&#xA;-188 359 -512 735 -137 160 -200 240 -196 250 13 32 64 260 89 391 35 185 56&#xA;355 56 452 0 60 3 79 13 75 201 -91 307 -118 487 -124 210 -7 366 26 582 126&#xA;160 73 400 234 493 330 l39 41 106 0 c158 0 278 33 474 132 113 56 213 128&#xA;285 203 56 58 61 67 61 108 0 30 5 47 15 50 22 9 55 82 55 121 0 50 -34 86&#xA;-88 93 -35 5 -42 9 -42 28 0 12 -12 32 -26 46 -44 41 -103 33 -288 -40 -162&#xA;-64 -287 -101 -338 -101 -26 0 -28 2 -21 28 5 15 8 74 8 132 -1 88 -5 112 -23&#xA;147 -28 54 -66 83 -109 83 -54 0 -87 -43 -123 -158 -16 -54 -42 -115 -57 -138&#xA;-15 -23 -47 -70 -71 -105 -23 -35 -50 -84 -59 -109 -16 -45 -20 -48 -102 -85&#xA;-120 -53 -239 -92 -356 -116 -81 -17 -123 -20 -220 -16 -199 9 -296 49 -591&#xA;244 -261 174 -332 213 -489 273 l-25 10 29 47 c43 70 90 193 107 280 41 215&#xA;-7 416 -130 538 l-52 52 110 21 c173 33 243 42 356 42 200 0 362 -35 744 -160&#xA;337 -110 408 -124 626 -124 115 -1 190 4 218 12 63 19 53 41 -33 67 -77 24&#xA;-136 53 -175 85 l-25 22 26 -6 c195 -42 437 -31 629 29 274 86 531 290 641&#xA;507 31 61 35 83 19 93 -5 3 -63 -6 -127 -21 -160 -36 -326 -39 -395 -7 -25 11&#xA;-51 30 -57 41 -27 51 28 130 104 151 26 7 94 9 196 5 127 -6 169 -4 232 10&#xA;164 37 324 149 422 295 69 104 163 356 141 378 -4 4 -21 1 -39 -6 -231 -95&#xA;-361 -114 -399 -57 -27 40 15 121 105 203 68 61 131 98 252 148 177 73 245&#xA;114 331 199 108 108 170 219 134 241 -5 3 -49 -10 -97 -29 -130 -51 -180 -57&#xA;-470 -54 -222 3 -267 1 -323 -15 -93 -25 -214 -86 -292 -145 l-67 -52 15 42&#xA;c42 120 145 224 287 292 51 24 110 49 132 56 76 24 193 89 266 149 84 67 134&#xA;129 179 219 47 94 52 112 39 128 -17 20 -23 18 -76 -28 -55 -47 -160 -100&#xA;-248 -124 -34 -9 -115 -18 -185 -21 -159 -6 -269 15 -499 97 -311 110 -380&#xA;125 -581 124 -170 0 -229 -10 -371 -65 -159 -61 -335 -205 -427 -347 -20 -32&#xA;-66 -126 -103 -209 -95 -216 -150 -287 -224 -287 -49 0 -91 43 -112 113 -28&#xA;97 1 243 73 364 36 62 42 87 21 87 -30 0 -208 -130 -288 -210 -71 -71 -94&#xA;-103 -133 -181 -26 -53 -53 -127 -62 -169 -23 -106 -13 -268 25 -437 16 -73&#xA;35 -169 42 -214 33 -228 -54 -460 -277 -736 -72 -88 -287 -303 -304 -303 -4 0&#xA;-20 20 -33 43 -46 78 -139 147 -218 162 l-36 7 19 36 c45 89 11 207 -72 250&#xA;-63 32 -188 27 -273 -11 l-57 -26 -44 30 c-25 16 -65 52 -90 80 -42 47 -50 66&#xA;-58 139 -2 18 -12 27 -39 35 -19 5 -53 25 -75 43 -79 66 -181 101 -291 102&#xA;-35 0 -63 4 -63 9 0 18 -53 72 -90 91 -20 10 -66 24 -102 31 -135 25 -357 -27&#xA;-513 -119 -250 -148 -433 -461 -449 -771 -4 -68 -11 -101 -29 -138 -34 -66&#xA;-67 -177 -67 -224 0 -21 -4 -39 -10 -39 -5 0 -10 4 -10 9 0 4 -23 48 -51 97&#xA;-150 260 -336 696 -425 992 l-28 92 32 43 c85 112 124 232 126 387 1 84 -2&#xA;102 -24 144 -31 61 -84 105 -136 113 -65 9 -67 22 -22 125 21 50 68 169 103&#xA;265 62 169 65 174 119 224 126 115 184 297 173 549 -7 190 -50 300 -117 300&#xA;-18 0 -46 -18 -88 -56z m140 -77 c8 -26 13 -106 13 -207 0 -146 -3 -174 -23&#xA;-240 -57 -181 -134 -270 -235 -270 l-39 0 6 48 c12 83 35 147 73 205 20 31 40&#xA;57 43 57 11 0 -9 -168 -24 -205 -18 -42 -20 -65 -8 -65 12 0 40 65 52 123 11&#xA;53 15 195 6 205 -14 13 -114 -106 -134 -161 -30 -79 -45 -179 -29 -189 9 -6 8&#xA;-8 -4 -8 -20 0 -65 47 -78 83 -49 130 49 415 209 605 30 36 71 73 90 84 35 18&#xA;35 18 52 -3 10 -11 23 -40 30 -62z m5163 -412 c80 -17 122 -30 396 -124 203&#xA;-69 292 -85 459 -78 95 3 157 11 208 26 77 23 165 62 195 89 32 28 27 6 -11&#xA;-54 -46 -71 -139 -159 -219 -207 -32 -19 -105 -54 -163 -77 -155 -61 -237&#xA;-108 -306 -173 -79 -73 -120 -137 -150 -232 -46 -145 -27 -165 67 -72 77 75&#xA;209 147 326 178 65 18 101 21 213 18 333 -8 421 -4 505 20 43 13 86 26 94 29&#xA;26 10 -72 -110 -129 -156 -30 -25 -102 -67 -160 -94 -294 -138 -309 -147 -390&#xA;-227 -90 -88 -113 -128 -114 -193 -1 -57 28 -93 88 -109 52 -14 180 9 278 51&#xA;38 15 68 25 68 20 0 -18 -55 -151 -93 -225 -55 -106 -173 -226 -272 -277 -116&#xA;-60 -175 -71 -378 -69 -99 1 -196 -3 -218 -9 -52 -14 -114 -74 -129 -127 -24&#xA;-80 25 -139 141 -169 82 -21 263 -14 362 14 37 11 67 17 67 15 0 -3 -23 -38&#xA;-51 -78 -158 -229 -440 -403 -730 -450 -156 -25 -389 -16 -493 20 -53 19 -65&#xA;7 -40 -41 26 -48 75 -90 148 -126 l61 -29 -165 4 c-199 6 -282 24 -592 126&#xA;-563 184 -739 194 -1313 72 -77 -16 -141 -29 -142 -27 -2 1 57 42 130 91 274&#xA;184 576 538 668 785 39 103 49 162 49 280 0 113 -3 131 -60 395 -69 317 15&#xA;558 263 753 87 69 89 69 63 10 -95 -216 -34 -458 116 -458 51 0 85 18 135 72&#xA;40 44 53 69 171 318 87 185 190 301 350 395 80 47 232 101 327 115 84 13 275&#xA;5 370 -15z m-5387 -360 c4 -4 -112 -319 -150 -406 l-34 -77 -33 30 -33 29 37&#xA;107 c20 59 53 158 73 219 l37 113 50 -7 c28 -3 51 -7 53 -8z m-288 -466 c19&#xA;-11 51 -39 71 -61 l36 -41 -51 -49 -50 -48 -30 31 c-16 17 -43 37 -59 46 -33&#xA;17 -106 22 -150 10 -28 -8 -28 -7 -13 20 49 95 167 139 246 92z m237 -159 c18&#xA;-10 42 -39 55 -62 19 -36 22 -58 22 -133 -2 -149 -47 -276 -137 -387 -61 -75&#xA;-67 -87 -36 -66 l26 16 28 -101 c66 -241 163 -484 311 -779 224 -447 404 -699&#xA;734 -1030 160 -160 181 -184 218 -260 103 -208 121 -479 45 -693 -58 -163&#xA;-188 -315 -300 -349 -19 -6 -24 1 -47 71 -30 91 -31 97 -10 89 31 -12 7 12&#xA;-161 167 -188 172 -268 260 -435 482 -200 264 -343 502 -471 785 -153 339&#xA;-271 768 -309 1123 l-11 108 71 208 c38 114 70 224 70 243 0 23 6 38 16 42 23&#xA;9 56 92 58 146 l1 47 36 -4 c22 -3 48 1 66 10 40 21 101 90 123 140 32 71 10&#xA;63 -51 -19 -81 -111 -166 -127 -162 -32 3 57 25 118 64 174 55 81 122 104 186&#xA;64z m-328 -19 c14 -9 34 -29 45 -44 19 -26 19 -29 3 -75 -9 -26 -17 -59 -17&#xA;-74 0 -16 -2 -28 -4 -28 -2 0 -18 14 -36 30 -57 53 -162 71 -258 44 l-23 -7&#xA;16 39 c48 115 192 175 274 115z m-84 -200 c52 -23 92 -71 101 -118 7 -38 -8&#xA;-117 -28 -140 -25 -31 -90 -6 -171 66 -89 79 -101 63 -20 -29 l39 -44 -25 -68&#xA;c-14 -37 -28 -68 -32 -68 -15 0 -84 80 -106 124 -32 63 -41 148 -20 197 15 37&#xA;66 83 102 92 46 11 122 6 160 -12z m29 -321 c12 0 -2 -50 -59 -217 -90 -268&#xA;-156 -443 -179 -477 -17 -27 -44 -33 -75 -17 -16 9 -15 17 16 113 18 57 77&#xA;221 130 365 l98 261 27 -14 c15 -8 34 -14 42 -14z m1999 -49 c79 -35 102 -85&#xA;65 -141 -33 -48 -82 -72 -238 -115 -230 -63 -336 -119 -442 -234 -120 -129&#xA;-131 -288 -27 -389 19 -19 73 -54 121 -79 107 -55 167 -117 216 -223 89 -193&#xA;96 -206 161 -271 69 -69 117 -93 216 -107 l45 -7 -20 -39 c-11 -22 -17 -42&#xA;-14 -45 11 -12 180 41 257 80 75 38 203 118 269 169 l27 21 -6 -73 c-11 -147&#xA;37 -259 132 -307 44 -23 63 -26 150 -26 93 0 105 2 167 33 76 37 124 86 134&#xA;137 10 53 0 76 -66 157 -33 40 -65 89 -70 108 -30 113 -59 217 -64 230 -5 12&#xA;4 15 45 17 62 1 134 20 150 39 9 11 14 10 29 -9 18 -22 18 -22 -36 -70 -30&#xA;-27 -54 -53 -54 -58 0 -14 86 -11 183 7 l88 16 39 -26 c131 -86 196 -302 159&#xA;-525 -20 -126 -85 -278 -161 -380 -22 -29 -46 -76 -53 -103 -23 -84 -71 -145&#xA;-150 -186 -43 -23 -62 -27 -140 -27 -82 0 -97 3 -155 32 -36 18 -90 55 -122&#xA;82 -80 73 -91 67 -34 -18 l35 -51 -23 -15 c-37 -25 -125 -37 -185 -25 -123 23&#xA;-272 129 -333 237 -16 29 -34 56 -39 59 -19 12 -20 -26 -1 -69 l20 -45 -25&#xA;-11 c-90 -41 -213 20 -308 153 -60 85 -97 167 -140 315 -56 191 -105 279 -234&#xA;414 -93 98 -142 127 -221 134 -138 13 -251 -87 -268 -238 l-7 -59 -79 117 -79&#xA;118 6 75 c6 84 36 187 73 242 18 28 24 51 24 90 0 77 26 222 53 303 105 306&#xA;294 495 587 584 110 34 271 35 343 2z m300 -125 c26 -8 68 -26 93 -41 l47 -28&#xA;-59 -23 c-68 -27 -124 -81 -124 -119 0 -35 15 -31 72 20 54 48 111 71 152 61&#xA;64 -16 146 -131 146 -205 0 -42 -29 -94 -61 -111 -33 -18 -104 -6 -149 25 -52&#xA;36 -62 25 -18 -19 35 -35 89 -56 145 -56 41 0 99 49 122 104 l17 39 28 -25 28&#xA;-24 -115 -75 c-64 -40 -115 -78 -113 -84 7 -26 51 -10 161 60 171 108 250 146&#xA;321 151 100 9 166 -42 166 -128 0 -56 -20 -95 -67 -137 -78 -69 -170 -100&#xA;-378 -132 -224 -33 -325 -76 -422 -180 -63 -67 -102 -156 -131 -296 -37 -185&#xA;-27 -167 -86 -160 -111 13 -218 97 -271 210 -129 275 -144 294 -287 372 -47&#xA;26 -100 61 -117 78 -92 87 -79 225 32 341 91 95 221 159 423 210 57 15 126 36&#xA;153 47 53 23 105 75 115 114 6 23 10 25 68 25 35 0 84 -6 109 -14z m950 -693&#xA;c56 -28 86 -53 116 -96 47 -70 47 -79 -4 -115 -25 -18 -50 -32 -56 -32 -6 0&#xA;-40 28 -75 62 -64 61 -80 63 -46 6 16 -28 16 -30 -3 -41 -66 -39 -203 -36&#xA;-307 8 -14 5 -18 2 -18 -14 0 -44 -31 -93 -117 -182 -132 -136 -309 -257 -491&#xA;-334 -91 -38 -96 -40 -87 -25 3 5 20 83 36 172 34 184 63 258 131 327 93 96&#xA;176 129 401 161 169 24 256 49 330 96 46 30 58 33 105 28 30 -2 68 -12 85 -21z&#xA;m-310 -285 c9 -7 24 -33 32 -58 15 -42 15 -46 -2 -58 -27 -19 -176 -63 -185&#xA;-54 -4 4 15 35 43 67 28 33 58 72 67 88 19 31 22 32 45 15z m-1522 -199 c57&#xA;-29 111 -80 181 -173 56 -75 128 -205 128 -232 0 -19 -70 -75 -127 -101 -102&#xA;-47 -221 -26 -329 58 -109 84 -160 175 -151 271 15 162 160 248 298 177z&#xA;m1552 -278 c24 -12 54 -32 66 -45 21 -22 22 -28 12 -59 -15 -44 -48 -57 -145&#xA;-57 -75 0 -137 21 -168 56 -17 20 -48 85 -48 103 0 35 211 37 283 2z m-1204&#xA;-262 c29 -105 60 -175 116 -258 109 -164 259 -247 374 -207 l44 15 46 -41 c59&#xA;-51 142 -100 212 -123 97 -33 223 -21 292 28 l28 19 65 -32 c113 -58 260 -51&#xA;358 15 21 14 41 23 44 20 12 -12 4 -193 -11 -256 -48 -198 -158 -324 -296&#xA;-336 -112 -10 -320 72 -526 207 -182 120 -304 220 -591 485 -65 61 -138 126&#xA;-161 146 -31 25 -43 44 -43 62 0 36 -34 122 -73 189 l-34 55 33 18 c18 9 45&#xA;30 60 46 15 16 31 29 34 29 4 0 17 -37 29 -81z m-272 -34 l72 0 32 -54 c18&#xA;-29 41 -76 50 -105 l18 -51 -30 -3 c-25 -3 -46 12 -154 113 -107 100 -121 116&#xA;-93 108 18 -4 65 -8 105 -8z m4171 -77 c11 -13 25 -36 31 -51 16 -41 13 -204&#xA;-3 -259 -8 -25 -12 -49 -9 -52 12 -11 88 -6 178 13 50 10 168 48 263 85 94 36&#xA;180 66 190 66 23 0 62 -28 62 -44 0 -8 -12 -17 -27 -21 -16 -3 -115 -48 -221&#xA;-98 -168 -80 -192 -95 -188 -112 9 -36 66 -155 75 -155 4 0 80 36 167 80 87&#xA;44 171 80 185 80 22 0 69 -31 69 -47 0 -17 -45 -74 -88 -110 -217 -184 -534&#xA;-307 -740 -288 l-73 7 -43 -40 c-115 -106 -341 -257 -491 -328 -352 -167 -658&#xA;-174 -986 -22 l-86 39 -17 106 c-45 274 -194 580 -394 810 -76 87 -77 91 -40&#xA;145 l19 27 92 -39 c117 -49 212 -102 362 -204 291 -199 400 -254 553 -282 111&#xA;-20 300 -15 397 11 174 46 342 113 415 165 15 11 30 35 37 62 7 25 36 78 65&#xA;119 81 113 95 138 116 215 20 70 35 106 55 132 15 19 51 14 75 -10z m-3883&#xA;-300 c70 -62 143 -127 162 -143 l35 -30 -22 -85 c-12 -47 -33 -125 -47 -173&#xA;-14 -49 -23 -90 -21 -91 134 -112 431 -372 435 -382 6 -15 -113 -240 -198&#xA;-373 l-52 -83 199 -193 c227 -221 228 -200 -6 -164 -236 37 -437 96 -641 189&#xA;-182 84 -170 71 -203 207 -15 65 -38 150 -51 190 l-22 72 62 30 c95 47 182&#xA;145 244 273 63 131 81 204 88 353 6 146 -19 285 -73 410 -19 44 -38 86 -41 93&#xA;-15 35 38 0 152 -100z m4704 -11 c19 -16 8 -84 -19 -112 -21 -22 -24 -23 -46&#xA;-8 -44 28 -146 -5 -319 -104 l-69 -40 -29 45 c-22 35 -26 47 -15 53 7 5 17 9&#xA;21 9 4 0 84 36 177 80 211 100 255 111 299 77z m-2970 -94 c38 -49 91 -123&#xA;117 -165 l47 -78 -12 -62 c-7 -35 -24 -112 -38 -173 l-26 -109 -41 46 c-42 47&#xA;-134 132 -173 159 -20 14 -21 17 -7 69 16 64 19 234 3 277 -9 26 -7 36 15 68&#xA;15 21 26 42 26 46 0 23 24 2 89 -78z m-1385 -206 c78 -67 202 -164 310 -242&#xA;l28 -20 -51 -130 c-28 -72 -56 -136 -61 -144 -7 -12 -20 -5 -66 35 -53 46 -89&#xA;76 -286 243 l-75 63 38 147 c22 80 39 148 39 150 0 5 17 -9 124 -102z m1611&#xA;-161 c77 -169 121 -342 131 -516 l6 -95 -60 100 c-33 55 -89 138 -124 184&#xA;l-64 84 27 106 c14 59 30 130 34 159 4 29 9 52 12 52 2 0 19 -33 38 -74z&#xA;m-212 -194 c31 -33 57 -65 57 -71 0 -36 -179 -464 -205 -489 -3 -3 -51 44&#xA;-107 104 -148 157 -217 224 -232 224 -7 0 -33 -43 -56 -96 -40 -87 -150 -288&#xA;-169 -307 -4 -4 -66 50 -137 121 -71 70 -168 165 -216 210 l-87 82 53 132 c29&#xA;73 56 141 59 150 5 15 15 12 74 -24 83 -50 204 -107 298 -139 52 -18 92 -24&#xA;155 -24 76 0 91 3 139 30 66 36 132 110 173 192 l31 63 56 -49 c31 -27 82 -76&#xA;114 -109z m144 -169 c58 -79 138 -198 176 -263 l25 -45 -30 -75 c-16 -41 -63&#xA;-144 -104 -229 l-74 -154 -51 73 c-28 41 -85 117 -128 169 l-77 96 43 90 c52&#xA;109 141 332 149 374 4 17 10 31 13 31 4 0 30 -30 58 -67z m-1095 -297 c87 -82&#xA;169 -164 184 -183 l26 -35 -58 -84 c-31 -47 -95 -132 -142 -190 l-84 -105&#xA;-192 188 -192 188 27 40 c42 64 160 275 186 334 l24 54 32 -30 c18 -16 103&#xA;-96 189 -177z m594 57 c66 -71 135 -145 153 -166 l33 -37 -62 -108 c-61 -104&#xA;-163 -257 -179 -266 -4 -3 -37 32 -73 77 -36 45 -98 116 -137 158 l-70 76 62&#xA;110 c34 60 80 148 102 195 22 48 42 87 45 88 3 0 60 -57 126 -127z m677 -323&#xA;c-14 -85 -26 -156 -28 -158 -1 -1 -29 -13 -61 -26 l-59 -23 63 126 c34 69 72&#xA;152 84 184 11 31 22 56 24 55 1 -2 -9 -73 -23 -158z m-382 -5 c78 -97 165&#xA;-223 158 -229 -2 -2 -46 -17 -98 -34 l-94 -32 -34 30 c-28 25 -42 30 -86 29&#xA;-29 0 -73 -4 -99 -8 -27 -4 -48 -6 -48 -4 0 2 18 27 39 56 46 61 171 265 171&#xA;279 0 21 22 0 91 -87z m-518 -115 c79 -91 113 -136 105 -141 -7 -3 -47 -9 -88&#xA;-13 -108 -9 -147 -22 -172 -56 l-22 -30 -117 0 c-119 0 -142 7 -112 31 25 21&#xA;161 194 217 277 28 40 55 71 60 69 6 -2 64 -64 129 -137z m-1202 -111 c250&#xA;-99 667 -179 934 -179 82 0 85 -1 85 -22 -1 -33 -38 -299 -42 -304 -10 -9&#xA;-121 -10 -223 -2 -202 16 -420 62 -615 130 -93 33 -297 130 -372 178 l-48 30&#xA;0 118 c0 64 -3 133 -6 154 l-6 36 95 -49 c53 -27 142 -68 198 -90z m2049 -66&#xA;c-10 -43 -25 -113 -35 -156 l-17 -78 -54 -24 c-58 -26 -275 -98 -279 -93 -1 2&#xA;3 50 11 108 7 58 13 124 14 147 l0 41 68 21 c37 11 119 41 182 65 63 25 118&#xA;45 121 45 4 1 -1 -34 -11 -76z m-419 -14 c24 -24 23 -54 -7 -294 -17 -135 -30&#xA;-163 -88 -182 -99 -33 -469 -56 -494 -31 -17 17 -15 58 10 263 27 220 27 220&#xA;144 230 43 3 131 12 194 19 179 20 216 20 241 -5z m-1866 -169 c53 -36 236&#xA;-128 327 -164 223 -88 580 -156 813 -156 66 0 74 -2 80 -21 14 -42 62 -59 165&#xA;-59 114 0 323 24 395 44 59 18 81 38 100 93 13 36 16 38 102 63 48 14 125 41&#xA;171 60 l82 34 17 -23 c25 -36 109 -136 223 -266 381 -432 504 -658 517 -946 7&#xA;-136 -10 -227 -58 -329 -69 -145 -201 -251 -356 -285 -32 -6 -31 -4 32 58 85&#xA;85 88 121 4 43 -33 -31 -89 -71 -122 -89 -60 -31 -66 -32 -187 -32 -147 0&#xA;-211 17 -304 80 -119 79 -147 167 -118 366 28 190 9 297 -79 446 -45 74 -167&#xA;203 -246 260 -35 25 -63 47 -61 48 2 2 31 13 66 24 88 30 202 82 202 92 0 15&#xA;-24 10 -117 -21 -196 -65 -368 -98 -558 -106 l-110 -4 -113 -252 c-62 -139&#xA;-158 -356 -213 -483 -129 -294 -158 -345 -238 -426 -126 -126 -300 -180 -459&#xA;-142 -19 4 -13 10 37 33 67 32 135 89 157 133 9 16 14 31 12 33 -3 2 -29 -19&#xA;-59 -47 -114 -106 -254 -144 -369 -100 -114 43 -169 119 -193 271 -10 59 -17&#xA;79 -22 67 -12 -28 1 -167 18 -210 9 -20 12 -37 7 -37 -5 0 -35 24 -67 54 -98&#xA;91 -143 196 -143 336 0 146 49 268 188 468 121 176 174 262 226 372 83 174&#xA;159 442 188 657 7 51 14 93 16 93 2 0 23 -13 47 -30z m-459 -2005 c22 -9 76&#xA;-34 121 -57 64 -32 98 -43 160 -49 43 -5 108 -16 144 -26 l67 -18 -94 -175&#xA;c-51 -96 -99 -187 -108 -202 -40 -73 -359 -91 -466 -27 -31 19 -32 22 -25 64&#xA;5 34 117 403 150 493 5 15 5 15 51 -3z m2638 -11 c54 -11 102 -14 150 -10 226&#xA;19 273 25 290 32 15 6 17 4 10 -7 -5 -8 -36 -106 -69 -218 -50 -169 -64 -207&#xA;-86 -223 -14 -11 -65 -26 -118 -35 -78 -14 -106 -15 -186 -5 -103 13 -182 38&#xA;-198 63 -9 14 18 151 80 407 4 18 10 22 27 18 11 -3 57 -13 100 -22z m-183&#xA;-469 c127 -57 335 -63 471 -12 l66 25 83 -25 c247 -74 342 -106 418 -143 180&#xA;-87 227 -161 132 -210 -141 -71 -580 -37 -840 67 -52 21 -65 23 -72 12 -5 -8&#xA;-9 -19 -9 -26 0 -19 -271 47 -345 84 -38 20 -45 30 -45 69 0 65 51 184 80 184&#xA;4 0 32 -11 61 -25z m-2676 -99 c70 -48 129 -61 265 -60 99 0 138 5 190 22 37&#xA;12 68 18 73 13 21 -21 19 -96 -5 -141 -32 -62 -130 -132 -174 -124 -24 4 -43&#xA;-2 -85 -29 -284 -181 -700 -274 -859 -192 -41 21 -52 63 -31 111 38 85 243&#xA;243 471 363 63 33 116 61 117 61 1 0 18 -11 38 -24z"/>
    <path d="M7910 9070 c-30 -10 -107 -26 -170 -35 -284 -41 -328 -48 -396 -65&#xA;-150 -39 -290 -107 -399 -196 -119 -98 -235 -278 -345 -539 -53 -125 -103&#xA;-224 -148 -295 l-35 -55 -12 35 c-34 99 -145 280 -171 280 -11 0 -14 -24 -14&#xA;-107 0 -186 -40 -383 -110 -537 -98 -219 -297 -475 -459 -591 -38 -27 -68 -54&#xA;-67 -60 3 -12 9 -11 139 5 160 20 458 9 652 -25 213 -38 457 -41 577 -7 140&#xA;39 279 113 383 204 54 48 125 134 125 152 0 8 -37 11 -132 11 -112 0 -325 21&#xA;-315 31 1 2 38 10 82 19 343 71 510 238 630 630 20 66 52 169 71 229 22 69 31&#xA;113 25 119 -18 18 -105 -14 -263 -98 -87 -45 -158 -81 -158 -79 0 2 16 25 36&#xA;51 21 27 62 100 92 163 154 324 186 388 233 458 58 87 119 163 192 239 33 34&#xA;48 57 44 67 -8 19 -17 19 -87 -4z m-58 -107 c-95 -111 -165 -219 -239 -373&#xA;-41 -85 -99 -204 -129 -265 -29 -60 -82 -148 -118 -195 -36 -48 -61 -89 -56&#xA;-94 17 -17 105 16 278 105 96 49 177 88 179 86 2 -2 -10 -49 -28 -103 -17 -54&#xA;-46 -148 -65 -209 -64 -203 -160 -365 -262 -440 -115 -85 -289 -145 -459 -160&#xA;-72 -6 -83 -10 -83 -26 0 -10 2 -19 4 -19 2 0 46 -11 97 -24 128 -33 221 -46&#xA;331 -46 l93 -1 -60 -56 c-147 -136 -313 -215 -509 -242 -115 -16 -178 -14&#xA;-368 14 -301 45 -337 47 -538 42 -107 -3 -206 -8 -220 -11 l-25 -7 25 17 c53&#xA;36 238 234 297 317 70 99 158 268 196 374 34 95 58 223 66 358 l6 110 56 -110&#xA;c31 -60 61 -125 67 -142 6 -18 15 -33 21 -33 29 0 138 182 215 361 117 271&#xA;193 395 314 511 168 160 333 224 707 274 104 14 201 29 215 34 44 15 43 11 -8&#xA;-47z"/>
    <path d="M5254 6128 c44 -81 52 -122 32 -178 -18 -52 -13 -62 16 -33 34 35 36&#xA;109 4 179 -30 65 -52 94 -72 94 -9 0 -2 -21 20 -62z"/>
    <path d="M5090 6002 c0 -5 7 -26 15 -45 17 -42 20 -133 5 -173 -14 -36 -4 -43&#xA;22 -16 31 30 32 140 2 196 -19 38 -44 59 -44 38z"/>
    <path d="M3845 7460 c-115 -45 -211 -154 -203 -232 5 -51 31 -48 52 5 36 95&#xA;122 165 235 191 73 17 78 20 61 41 -17 21 -84 18 -145 -5z"/>
    <path d="M4130 7253 c0 -5 9 -21 20 -38 42 -63 12 -142 -67 -177 -58 -25 -120&#xA;-19 -176 18 -45 29 -57 26 -33 -10 42 -65 172 -83 255 -36 90 50 115 158 51&#xA;222 -27 27 -50 36 -50 21z"/>
    <path d="M3141 6417 c-28 -14 -48 -43 -38 -53 4 -4 16 1 27 11 32 29 112 32&#xA;154 5 40 -24 41 -27 21 -53 -25 -34 -28 -92 -7 -139 10 -24 26 -49 35 -57 21&#xA;-17 21 -17 -4 49 -22 57 -20 109 5 129 10 8 16 5 24 -14 17 -37 33 -31 20 8&#xA;-16 48 -53 92 -91 111 -41 19 -112 21 -146 3z"/>
    <path d="M4960 5231 c0 -5 12 -17 28 -26 15 -10 39 -29 55 -43 15 -14 27 -20&#xA;27 -13 0 26 -22 52 -60 71 -44 22 -50 24 -50 11z"/>
    <path d="M4770 5182 c0 -12 62 -94 67 -88 8 7 -6 42 -28 70 -20 25 -39 34 -39&#xA;18z"/>
    <path d="M4560 5164 c0 -3 15 -24 32 -47 18 -23 34 -44 35 -46 2 -2 6 -2 9 1&#xA;7 8 -13 47 -39 76 -19 21 -37 29 -37 16z"/>
    <path d="M4950 5085 c0 -11 72 -105 81 -105 12 0 -6 44 -33 80 -19 26 -48 41&#xA;-48 25z"/>
    <path d="M4781 4980 c0 -8 8 -31 19 -50 19 -34 19 -34 20 -9 0 15 -9 37 -20&#xA;50 -13 17 -19 19 -19 9z"/>
    <path d="M7455 5291 c-43 -11 -86 -35 -114 -65 -32 -34 -23 -33 52 7 61 31 65&#xA;32 207 34 80 1 147 3 150 3 3 1 -11 8 -30 15 -38 14 -213 18 -265 6z"/>
    <path d="M5040 3795 c-58 -7 -128 -14 -156 -14 -31 -1 -56 -7 -63 -15 -14 -17&#xA;-50 -291 -40 -308 9 -14 91 -13 224 3 164 19 152 14 159 62 21 143 34 261 29&#xA;273 -6 16 -9 16 -153 -1z m95 -150 c-8 -60 -15 -111 -15 -115 0 -12 -283 -41&#xA;-293 -29 -3 2 2 49 9 104 7 55 13 106 14 113 0 8 17 12 48 13 26 0 92 6 147&#xA;13 55 7 101 11 103 10 1 0 -4 -50 -13 -109z"/>
  </g>
  <title>Fire Breather Perform</title>
  <desc>Fire Breather Perform</desc>
</svg>