<?xml version="1.0" encoding="UTF-8" standalone="yes"?>
<svg version="1.0" xmlns="http://www.w3.org/2000/svg" width="1024.000000pt" height="1024.000000pt" viewBox="0 0 1024.000000 1024.000000" preserveAspectRatio="xMidYMid meet">
  <metadata>
Created by potrace 1.16, written by Peter Selinger 2001-2019
</metadata>
  <g transform="translate(0.000000,1024.000000) scale(0.100000,-0.100000)" fill="#000000" stroke="none">
    <path d="M900 10032 c-321 -1 -588 -6 -592 -10 -4 -4 -8 -97 -9 -206 -1 -182&#xA;0 -201 17 -213 10 -7 29 -13 43 -13 l26 0 0 -243 c0 -236 1 -244 26 -314 15&#xA;-39 40 -92 58 -118 l31 -46 0 -3815 0 -3814 -95 0 c-90 0 -95 -1 -100 -22 -3&#xA;-13 -4 -117 -3 -233 l3 -210 73 -5 73 -5 -1 -383 -1 -382 36 0 35 0 0 385 0&#xA;385 395 0 395 0 0 -385 c0 -322 2 -385 14 -385 8 0 16 6 18 13 3 6 4 180 3&#xA;385 l-2 372 416 0 416 0 -3 -385 c-2 -339 -1 -385 13 -385 13 0 15 47 15 385&#xA;l0 385 408 0 407 0 -3 -385 c-2 -328 -1 -385 11 -385 8 0 17 8 19 18 3 10 5&#xA;183 4 385 l-1 367 463 0 462 0 0 -385 c0 -336 2 -385 15 -385 13 0 15 49 15&#xA;385 l0 385 415 0 415 0 0 -385 c0 -336 2 -385 15 -385 13 0 15 49 15 385 l0&#xA;385 385 0 385 0 0 -385 c0 -336 2 -385 15 -385 13 0 15 49 15 385 l0 385 388&#xA;0 388 0 0 -382 c-1 -357 0 -383 17 -386 16 -3 17 20 17 382 l0 386 415 0 415&#xA;0 0 -385 c0 -336 2 -385 15 -385 13 0 15 49 15 385 l0 385 355 0 355 0 0 -385&#xA;c0 -336 2 -385 15 -385 13 0 15 49 15 385 l0 385 405 0 405 0 0 -385 c0 -336&#xA;2 -385 15 -385 13 0 15 49 15 385 l0 385 410 0 410 0 0 -385 0 -385 30 0 30 0&#xA;0 385 0 385 63 0 c36 0 68 5 75 12 18 18 17 431 -1 446 -7 6 -52 12 -100 14&#xA;l-87 3 0 3853 0 3852 24 38 c60 91 87 266 80 515 l-3 87 35 0 c26 0 37 5 43&#xA;22 12 32 7 396 -5 408 -10 10 -7364 20 -9014 12z m8951 -162 c1 -124 1 -142 0&#xA;-182 l-1 -33 -4740 3 -4740 2 0 155 0 155 4740 0 4740 0 1 -100z m-77 -447&#xA;c-1 -198 -14 -286 -56 -370 -75 -153 -235 -246 -448 -260 -264 -17 -484 102&#xA;-589 319 -53 109 -70 184 -77 345 l-7 132 34 3 c19 2 284 2 589 1 l555 -3 -1&#xA;-167z m-8128 12 c-5 -122 -11 -170 -30 -229 -63 -198 -196 -342 -382 -412 -98&#xA;-37 -150 -46 -259 -45 -166 1 -282 42 -383 136 -119 110 -143 194 -142 495 l1&#xA;210 601 0 601 0 -7 -155z m1304 68 c0 -371 -196 -658 -494 -727 -211 -49 -432&#xA;10 -575 153 -139 139 -195 295 -204 564 l-3 97 638 0 638 0 0 -87z m1415 25&#xA;c-18 -287 -89 -461 -249 -611 -63 -59 -204 -129 -303 -151 -92 -21 -239 -20&#xA;-322 0 -120 29 -206 78 -296 168 -146 146 -215 332 -215 582 l0 74 694 0 694&#xA;0 -3 -62z m1445 -5 c0 -145 -49 -324 -122 -447 -119 -202 -344 -326 -588 -326&#xA;-292 1 -536 166 -645 437 -30 73 -52 191 -59 311 l-6 92 710 0 710 0 0 -67z&#xA;m1450 42 c0 -67 -35 -260 -61 -339 -95 -284 -325 -460 -619 -473 -127 -6 -216&#xA;11 -322 60 -136 64 -225 143 -302 272 -68 112 -99 225 -110 408 l-7 97 711 0&#xA;710 0 0 -25z m1307 -112 c-9 -231 -63 -369 -198 -505 -129 -131 -271 -184&#xA;-464 -175 -177 8 -288 58 -415 186 -127 128 -186 279 -197 509 l-6 122 643 0&#xA;643 0 -6 -137z m-2672 -387 c15 -31 52 -85 81 -120 202 -245 548 -331 855&#xA;-211 214 84 381 273 423 478 l13 62 16 -73 c38 -165 165 -333 315 -415 184&#xA;-100 443 -113 627 -31 68 29 192 130 243 196 45 59 99 166 108 216 6 31 8 28&#xA;33 -47 64 -190 218 -327 431 -380 82 -20 233 -27 318 -13 l52 9 0 -1573 0&#xA;-1574 -127 0 -128 0 -36 70 -36 69 23 22 c39 36 57 87 51 140 -6 48 -32 107&#xA;-64 144 -41 47 -133 112 -203 144 -41 19 -76 35 -78 36 -1 1 5 16 13 33 21 42&#xA;38 149 30 192 -10 51 -40 86 -90 105 -60 23 -121 13 -186 -31 -28 -19 -52 -34&#xA;-54 -34 -1 0 -5 15 -8 34 -13 83 -103 218 -168 251 -93 48 -192 -27 -221 -167&#xA;l-12 -58 -52 0 c-38 0 -61 -6 -88 -25 l-36 -24 -92 96 c-151 157 -301 265&#xA;-344 249 -9 -3 -14 -20 -14 -45 0 -56 52 -253 95 -361 l37 -92 -24 -25 c-35&#xA;-38 -72 -53 -127 -53 -67 0 -79 -6 -87 -45 -15 -79 83 -164 210 -181 l45 -7&#xA;-23 -46 c-13 -25 -31 -70 -40 -99 -21 -62 -71 -122 -183 -220 l-82 -72 -148 1&#xA;c-142 0 -147 1 -123 17 134 91 199 237 200 443 0 105 -13 180 -43 239 -31 64&#xA;-58 65 -128 5 -68 -59 -103 -77 -148 -77 -39 -1 -121 12 -121 19 0 2 9 32 21&#xA;66 50 147 -14 328 -145 412 -74 46 -118 58 -198 53 -89 -7 -200 -60 -254 -121&#xA;-47 -54 -83 -132 -91 -194 l-5 -49 -54 4 c-66 5 -112 -12 -120 -44 -10 -40 5&#xA;-92 38 -129 l30 -35 -38 -1 c-59 -2 -75 0 -120 17 l-42 15 21 52 c16 39 21 75&#xA;21 147 1 83 -2 102 -26 152 -62 133 -180 212 -318 212 -66 1 -84 -4 -150 -35&#xA;-42 -20 -94 -56 -118 -80 -52 -52 -98 -146 -107 -216 -4 -29 -8 -53 -8 -53 -1&#xA;0 -27 7 -57 15 -76 20 -110 19 -137 -7 -27 -25 -32 -93 -9 -136 29 -56 98&#xA;-104 169 -117 20 -4 37 -9 37 -12 0 -3 -8 -17 -19 -31 -60 -86 -83 -180 -70&#xA;-282 12 -81 47 -148 110 -204 l51 -46 -761 0 -761 0 0 296 c0 233 3 294 13&#xA;288 6 -4 33 -22 59 -41 61 -44 200 -109 275 -128 96 -25 127 -5 145 94 15 78&#xA;-2 193 -47 327 l-32 98 31 24 c59 48 196 194 220 235 34 60 41 102 22 132 -9&#xA;13 -16 27 -16 30 0 3 1054 5 2343 5 1288 0 2348 4 2354 8 19 12 19 1602 1&#xA;1613 -7 5 -1167 9 -2579 9 -1982 0 -2568 -3 -2577 -12 -9 -9 -12 -189 -12&#xA;-748 l-1 -735 -25 64 c-40 105 -127 263 -165 302 -82 82 -176 52 -243 -80 -10&#xA;-18 -42 -105 -71 -194 l-54 -161 -85 -17 c-175 -35 -286 -83 -329 -141 -20&#xA;-26 -20 -28 -2 -73 23 -63 67 -118 145 -184 36 -30 85 -71 109 -92 l44 -37&#xA;-18 -71 -17 -72 -36 58 c-58 94 -103 151 -220 279 l-110 121 57 49 c110 94&#xA;177 200 202 315 16 73 6 201 -20 269 -12 30 -24 87 -27 125 -4 60 -19 183 -27&#xA;216 -1 6 14 16 34 23 78 27 150 108 180 201 21 67 14 166 -17 235 -47 105&#xA;-159 191 -266 206 -99 14 -233 -42 -293 -121 l-30 -40 -80 32 c-238 94 -572&#xA;81 -794 -31 -29 -15 -54 -26 -56 -24 -1 2 -8 14 -14 26 -24 45 -85 104 -135&#xA;130 -44 23 -63 27 -141 27 -79 0 -97 -3 -150 -29 -77 -38 -158 -120 -193 -193&#xA;-23 -50 -27 -71 -27 -153 0 -84 3 -101 27 -146 47 -90 170 -174 254 -174 19 0&#xA;24 -4 20 -17 -44 -147 -58 -226 -59 -343 -2 -142 17 -219 79 -321 36 -60 168&#xA;-193 203 -204 12 -3 21 -10 21 -13 0 -4 -37 -35 -82 -69 -185 -137 -295 -263&#xA;-374 -429 -54 -113 -88 -248 -81 -324 9 -105 81 -208 188 -267 38 -22 49 -34&#xA;49 -53 0 -14 3 -42 6 -62 l7 -38 -228 0 -228 0 4 1550 4 1549 25 -6 c54 -14&#xA;235 -7 305 11 239 63 422 220 491 423 l21 62 12 -42 c57 -193 232 -358 446&#xA;-423 85 -25 287 -26 370 0 83 25 179 77 251 135 93 76 190 230 209 334 l7 38&#xA;25 -73 c34 -101 75 -169 151 -250 78 -82 161 -138 259 -174 l73 -27 0 -490 c0&#xA;-285 4 -487 9 -482 12 14 20 265 21 640 l0 320 152 1 c133 0 163 3 233 25 44&#xA;13 112 42 150 63 85 48 218 178 263 258 37 64 72 160 72 195 0 37 17 19 24&#xA;-26 3 -21 26 -79 51 -129 85 -169 224 -288 415 -353 88 -30 105 -33 230 -33&#xA;142 -1 198 8 303 51 204 83 379 281 419 473 l12 59 21 -73 c12 -40 34 -98 50&#xA;-130z m3775 -4011 l0 -3815 -105 0 c-58 0 -105 3 -105 8 0 14 0 4902 0 6202&#xA;l0 1305 58 23 c31 12 77 38 102 57 25 18 46 34 48 34 1 1 2 -1716 2 -3814z&#xA;m-9052 3721 c27 -18 75 -44 106 -56 l56 -24 0 -3728 0 -3728 -105 0 -105 0 -1&#xA;403 c-1 985 -4 7167 -3 7167 1 0 24 -15 52 -34z m8350 -265 l42 -1 0 -750 0&#xA;-750 -2407 0 c-1685 0 -2422 4 -2453 11 -25 6 -79 14 -120 18 l-75 6 -3 725&#xA;c-1 399 0 730 2 735 2 7 839 10 2487 9 1366 -1 2503 -2 2527 -3z m-7473 -165&#xA;c59 -27 99 -70 133 -144 13 -29 27 -52 30 -50 4 2 44 22 89 45 121 63 204 83&#xA;365 90 161 7 255 -5 377 -50 276 -99 449 -342 468 -657 4 -64 14 -116 30 -160&#xA;90 -240 -23 -490 -278 -614 -162 -78 -224 -91 -439 -91 -207 0 -280 11 -460&#xA;71 -196 65 -316 148 -410 280 -108 153 -112 364 -13 695 4 13 -6 17 -52 22&#xA;-169 17 -281 151 -256 305 33 208 244 339 416 258z m1502 -4 c55 -28 128 -112&#xA;147 -169 47 -137 -27 -309 -145 -338 -21 -5 -26 0 -44 42 -11 26 -21 50 -23&#xA;53 -1 4 9 12 23 18 36 17 65 69 65 120 0 83 -61 143 -146 145 -38 0 -51 -5&#xA;-76 -31 l-31 -30 -59 41 c-32 22 -58 44 -58 47 0 3 17 22 38 42 37 35 83 63&#xA;132 79 40 13 133 3 177 -19z m-68 -175 c28 -14 61 -71 61 -105 0 -14 -15 -39&#xA;-36 -60 l-35 -35 -21 33 c-11 19 -39 56 -61 83 l-42 49 28 24 c31 26 69 30&#xA;106 11z m734 -766 c47 -52 97 -145 147 -271 22 -58 49 -112 60 -121 12 -11 47&#xA;-18 107 -22 168 -11 336 -58 348 -98 14 -44 -104 -195 -239 -305 l-48 -40 30&#xA;-94 c41 -129 67 -283 58 -344 l-8 -48 -47 4 c-57 6 -142 44 -266 119 -50 30&#xA;-98 58 -108 62 -13 5 -56 -19 -150 -82 -186 -124 -170 -119 -219 -76 -23 19&#xA;-60 41 -81 47 l-39 12 6 61 c3 34 17 115 31 180 23 114 22 155 -5 155 -15 0&#xA;-196 148 -222 182 -14 18 -32 47 -41 65 l-17 32 37 30 c42 34 183 83 297 102&#xA;63 11 80 17 86 34 5 11 27 79 50 152 90 286 151 355 233 264z m-1935 -654 c46&#xA;-19 137 -48 202 -63 l118 -29 -68 -71 c-49 -52 -72 -86 -85 -123 -41 -126 29&#xA;-241 148 -241 83 0 151 50 222 162 26 42 34 47 70 50 39 3 40 2 87 -68 55 -82&#xA;98 -119 160 -135 92 -25 170 48 171 159 0 76 -27 124 -123 218 -38 38 -70 72&#xA;-70 75 0 4 17 10 38 14 20 3 63 18 94 32 l57 25 38 -30 c86 -68 231 -238 297&#xA;-350 42 -70 76 -155 76 -189 0 -22 -4 -23 -69 -23 -38 0 -87 -7 -109 -14 l-42&#xA;-15 -10 42 c-47 183 -158 437 -190 437 -5 0 4 -28 20 -63 45 -100 110 -327&#xA;110 -385 0 -49 -4 -57 -54 -116 -78 -92 -125 -202 -126 -293 0 -50 14 -39 34&#xA;25 43 139 124 239 234 290 49 23 70 27 147 27 103 -1 145 -17 206 -82 70 -73&#xA;84 -113 84 -243 0 -134 -15 -187 -77 -280 -80 -121 -176 -166 -330 -158 -121&#xA;7 -197 44 -265 128 -26 33 -59 63 -73 67 -14 4 -125 8 -248 7 -199 0 -222 1&#xA;-216 15 3 9 9 58 11 109 7 114 -13 197 -67 280 -82 128 -224 203 -375 199 -63&#xA;-2 -67 5 -40 78 19 53 64 295 55 295 -4 0 -10 -8 -13 -17 -6 -21 -61 -178 -83&#xA;-239 -10 -30 -24 -46 -45 -54 -28 -12 -31 -25 -6 -25 11 0 12 -4 9 -40 -1 -8&#xA;-33 -32 -71 -55 -38 -22 -86 -59 -106 -82 -45 -53 -91 -141 -101 -194 -9 -50&#xA;-13 -57 -27 -46 -7 5 -33 16 -58 26 -106 39 -182 144 -181 247 2 166 113 391&#xA;266 545 89 88 256 216 276 210 8 -3 53 -20 98 -39z m5865 -6 c23 -16 63 -51&#xA;89 -78 l47 -48 -56 -58 c-30 -32 -57 -57 -58 -55 -1 2 -16 46 -33 98 -34 103&#xA;-48 170 -37 170 3 0 25 -13 48 -29z m-1980 -17 c60 -20 131 -84 165 -148 24&#xA;-46 27 -62 27 -151 0 -126 -23 -181 -91 -221 -25 -15 -43 -29 -40 -31 2 -3 29&#xA;1 60 8 52 11 58 10 121 -16 65 -28 68 -28 133 -15 63 12 139 17 147 8 2 -2 -9&#xA;-30 -26 -63 -67 -137 -82 -272 -39 -355 l23 -44 -34 -28 c-62 -52 -144 -71&#xA;-327 -76 -229 -5 -378 10 -456 46 -122 57 -171 136 -171 272 1 68 5 94 23 127&#xA;36 68 79 112 125 124 24 6 57 27 79 49 72 72 41 146 -80 190 -71 26 -74 34&#xA;-45 129 23 75 105 159 183 189 67 25 159 28 223 6z m967 -20 c113 -33 200&#xA;-163 200 -298 0 -108 -25 -156 -97 -187 -24 -10 -43 -20 -43 -23 0 -2 37 -4&#xA;83 -4 45 -1 95 -6 110 -11 42 -16 134 -13 170 5 18 9 53 36 79 60 54 50 63 53&#xA;73 22 21 -71 25 -103 25 -199 1 -259 -86 -401 -283 -461 -65 -19 -84 -20 -262&#xA;-14 -299 10 -394 33 -470 112 -84 86 -86 198 -8 353 47 92 49 95 95 108 60 17&#xA;98 61 98 111 -1 60 -51 106 -131 120 -43 8 -44 9 -42 46 7 110 113 230 233&#xA;262 62 17 107 17 170 -2z m1757 -4 c44 -27 99 -112 126 -195 28 -88 31 -284 5&#xA;-352 -13 -36 -13 -44 -2 -54 11 -9 17 -3 32 31 l18 43 41 -49 c61 -73 100&#xA;-139 133 -226 49 -125 59 -196 70 -458 13 -306 21 -367 63 -450 56 -113 130&#xA;-148 382 -181 83 -10 162 -22 178 -25 l27 -6 0 -464 0 -464 -22 -5 c-154 -33&#xA;-460 -51 -550 -32 -41 9 -42 12 -53 130 -4 37 -10 67 -15 67 -4 0 -11 -71 -14&#xA;-157 -10 -238 -26 -522 -33 -575 -5 -47 -6 -47 -50 -54 -48 -7 -269 -1 -278 7&#xA;-11 12 -14 88 -16 439 -2 391 -6 488 -20 455 -4 -11 -8 -36 -8 -56 -2 -64 -12&#xA;-99 -30 -99 -22 0 -122 60 -170 101 -100 87 -160 234 -168 414 -6 128 14 238&#xA;95 539 l49 180 76 32 c224 94 361 285 345 480 -7 81 -28 95 -28 19 0 -126 -52&#xA;-239 -153 -330 -67 -61 -144 -102 -283 -149 -65 -23 -125 -52 -167 -81 -79&#xA;-55 -173 -99 -246 -114 -30 -6 -55 -10 -57 -8 -2 2 14 11 35 21 47 20 111 88&#xA;111 116 0 30 -14 24 -45 -16 -17 -22 -50 -47 -82 -61 -95 -43 -206 -18 -285&#xA;64 -80 83 -100 194 -52 291 27 53 198 227 262 265 17 10 32 24 32 30 0 30 71&#xA;187 127 279 l34 57 35 -21 c90 -53 227 17 310 158 10 18 14 17 53 -19 58 -52&#xA;95 -46 57 9 -49 70 -57 245 -17 375 35 110 80 141 148 99z m-5691 -180 c62&#xA;-73 73 -159 26 -212 -55 -61 -134 -29 -217 87 -47 65 -47 66 -29 86 14 16 19&#xA;36 19 83 0 33 -4 69 -8 78 -7 14 -3 17 25 20 29 3 42 -5 98 -57 35 -33 74 -71&#xA;86 -85z m-447 120 c26 0 26 -1 23 -60 -3 -47 1 -68 16 -94 l20 -34 -25 -39&#xA;c-35 -52 -93 -112 -125 -129 -15 -8 -45 -14 -66 -14 -33 0 -45 6 -70 35 -69&#xA;77 -50 155 64 272 69 69 77 75 106 69 17 -3 42 -6 57 -6z m200 -21 c17 -50 13&#xA;-85 -15 -118 -67 -80 -156 14 -115 122 8 21 16 24 64 26 53 1 55 0 66 -30z&#xA;m5491 -177 c0 -5 -17 -31 -38 -58 -21 -27 -51 -70 -68 -96 -16 -27 -33 -47&#xA;-38 -45 -5 2 -34 52 -65 111 l-55 107 65 65 64 65 68 -69 c37 -39 67 -74 67&#xA;-80z m888 22 c22 -26 24 -34 19 -99 -3 -38 -17 -103 -32 -143 -15 -41 -24 -76&#xA;-21 -80 3 -3 17 0 30 7 21 12 33 9 103 -24 140 -68 237 -190 218 -275 -6 -29&#xA;-56 -80 -77 -80 -17 0 1 -49 43 -121 61 -103 91 -198 92 -294 0 -88 -15 -131&#xA;-56 -158 -24 -16 -25 -15 -47 29 -26 49 -45 58 -37 16 20 -99 15 -307 -7 -330&#xA;-10 -9 -64 20 -94 51 -66 68 -92 184 -92 412 0 163 -17 339 -41 433 -34 133&#xA;-124 297 -206 374 -28 27 -28 28 -26 135 2 104 3 109 30 131 72 60 158 67 201&#xA;16z m-682 18 c12 -7 24 -183 13 -176 -4 2 -35 35 -69 74 l-62 69 34 21 c34 21&#xA;65 25 84 12z m-102 -141 c79 -79 79 -80 -5 -155 -84 -76 -157 -84 -202 -24&#xA;l-20 26 28 49 c36 60 117 173 125 173 3 0 36 -31 74 -69z m-2904 33 c45 -8 89&#xA;-13 96 -10 8 3 39 -4 70 -15 85 -32 97 -79 32 -119 -48 -29 -147 -27 -213 4&#xA;-82 38 -128 109 -93 144 15 15 10 15 108 -4z m1166 -37 c44 -22 57 -42 50 -73&#xA;-13 -51 -132 -71 -211 -35 -65 29 -114 99 -88 125 14 14 216 0 249 -17z m1434&#xA;-120 l34 -65 -29 -42 c-28 -40 -31 -42 -69 -35 -63 10 -147 56 -173 94 -13 19&#xA;-21 37 -18 40 3 3 25 4 50 2 51 -3 127 27 146 58 7 11 15 18 19 16 3 -2 21&#xA;-33 40 -68z m-4042 -179 c1 -62 5 -188 8 -280 l7 -168 -113 0 c-112 0 -112 0&#xA;-106 23 4 12 9 72 13 132 5 97 3 117 -16 170 -12 33 -23 65 -24 72 -2 10 204&#xA;158 224 162 3 1 6 -50 7 -111z m-1767 16 c100 -31 185 -109 231 -210 31 -67&#xA;33 -234 4 -309 -38 -97 -102 -171 -189 -217 -35 -19 -58 -23 -137 -23 -84 0&#xA;-102 3 -158 29 -173 80 -269 322 -203 509 33 94 110 177 198 212 85 34 164 37&#xA;254 9z m-536 -400 c3 -26 9 -54 13 -63 5 -14 3 -14 -10 -3 -9 7 -20 28 -23 45&#xA;-4 18 -9 40 -11 50 -3 10 0 17 9 17 10 0 17 -16 22 -46z m4825 -34 l34 -30&#xA;-74 0 -74 0 34 30 c19 16 37 29 40 29 3 0 21 -13 40 -29z m-4853 -100 c8 -11&#xA;34 -31 58 -46 25 -14 45 -30 45 -34 0 -5 16 -29 35 -54 l35 -46 -335 0 -335 0&#xA;0 98 c0 54 2 101 4 103 2 2 111 3 242 1 223 -2 238 -4 251 -22z m5931 -36&#xA;c-18 -37 -28 -72 -28 -101 l0 -43 -447 2 -448 3 -90 39 c-144 61 -223 79 -355&#xA;79 -133 1 -192 -16 -295 -83 l-61 -40 -1127 0 -1126 0 45 47 c26 26 60 71 76&#xA;100 l30 53 1927 0 1928 0 -29 -56z m2162 -44 l0 -100 -100 0 -100 0 0 43 c0&#xA;24 -7 66 -15 93 -8 27 -15 52 -15 57 0 4 52 7 115 7 l115 0 0 -100z m-6748 12&#xA;c9 -15 36 -46 59 -70 l43 -42 -352 0 -351 0 34 37 c19 21 40 50 46 65 13 33&#xA;21 34 304 36 l201 2 16 -28z m3458 -94 c58 -20 137 -51 175 -71 271 -134 538&#xA;-275 594 -311 77 -50 164 -127 206 -184 20 -26 43 -44 67 -51 54 -16 129 -95&#xA;165 -171 82 -176 74 -314 -34 -539 l-44 -93 -42 6 c-23 3 -56 2 -74 -3 l-32&#xA;-9 -7 44 c-8 58 -20 56 -28 -6 -7 -53 -85 -217 -117 -246 -23 -21 -46 -12 -59&#xA;21 -13 35 -13 156 1 211 10 38 9 51 -9 92 -30 71 -63 215 -69 307 -10 145 35&#xA;311 91 337 52 23 35 32 -99 49 -188 23 -404 -1 -625 -70 -78 -25 -96 -26 -104&#xA;-5 -6 17 28 90 69 144 14 19 22 36 17 38 -18 6 -236 -60 -316 -95 -45 -20&#xA;-133 -68 -197 -108 -142 -89 -156 -94 -168 -63 -24 64 31 191 127 290 36 38&#xA;63 68 60 68 -3 0 -77 -36 -164 -80 -87 -44 -174 -83 -193 -86 -45 -9 -64 15&#xA;-58 71 18 175 256 335 521 354 l101 6 -66 23 c-37 13 -107 26 -160 30 -52 4&#xA;-94 12 -94 17 0 16 122 93 173 110 34 11 80 14 167 12 106 -3 132 -8 225 -39z&#xA;m-4504 -94 c106 -47 252 -44 358 7 38 18 64 19 465 18 308 0 443 -4 486 -13&#xA;63 -14 155 -12 215 4 21 6 497 10 1192 10 l1156 0 -5 -20 c-3 -12 2 -29 12&#xA;-40 10 -11 16 -22 14 -23 -2 -2 -35 -21 -74 -42 -150 -83 -249 -216 -250 -337&#xA;0 -56 2 -61 37 -94 45 -41 66 -42 154 -9 36 14 68 25 70 25 2 0 -6 -19 -16&#xA;-42 -22 -49 -26 -122 -7 -158 7 -14 25 -31 41 -39 24 -11 34 -11 67 2 l39 15&#xA;0 -232 c0 -270 -10 -366 -52 -493 l-30 -93 -412 0 -413 0 -31 69 c-50 111 -50&#xA;113 3 135 72 29 139 97 184 186 99 198 72 402 -72 556 -229 245 -605 161 -718&#xA;-161 -30 -86 -43 -201 -30 -271 23 -124 104 -236 210 -293 34 -18 61 -34 61&#xA;-36 0 -2 -15 -43 -34 -92 l-34 -88 -332 -3 -331 -2 -24 52 c-41 93 -42 89 35&#xA;126 170 81 275 240 301 455 10 76 9 107 -4 180 -38 214 -161 367 -361 448 -74&#xA;30 -91 33 -186 33 -87 0 -117 -4 -177 -26 -150 -54 -290 -176 -357 -313 -44&#xA;-89 -55 -139 -56 -245 0 -143 46 -275 134 -382 48 -59 146 -135 204 -158 18&#xA;-7 35 -16 37 -20 3 -5 -7 -40 -21 -79 l-26 -71 -417 0 -416 0 -30 48 c-16 26&#xA;-45 66 -62 89 -18 24 -46 67 -63 97 l-31 54 96 1 c74 0 95 -2 95 -13 0 -8 14&#xA;-53 31 -100 52 -141 84 -101 35 43 -13 39 -23 71 -21 71 7 0 76 -103 101 -150&#xA;26 -50 48 -70 61 -56 14 14 -21 90 -72 158 l-55 73 55 27 c64 33 114 80 141&#xA;134 26 53 26 164 1 216 -21 42 -81 104 -124 127 -27 15 -28 19 -28 91 -1 85&#xA;-25 149 -79 203 -17 18 -42 54 -56 81 -71 137 -257 224 -455 213 -249 -15&#xA;-439 -172 -489 -407 -19 -87 -13 -234 14 -330 40 -143 100 -250 318 -564 34&#xA;-50 62 -93 62 -98 0 -4 -187 -8 -415 -8 l-415 0 0 790 0 790 369 0 369 0 58&#xA;-26z m5604 16 c0 -24 45 -103 82 -145 46 -52 87 -75 197 -112 89 -31 171 -33&#xA;246 -8 58 20 163 79 230 131 58 44 100 62 91 39 -22 -58 -109 -400 -126 -494&#xA;-34 -193 -21 -335 45 -480 20 -45 34 -84 32 -89 -3 -4 -21 -88 -42 -187 -20&#xA;-99 -38 -190 -41 -202 l-4 -23 -274 0 -273 0 -6 45 c-7 50 -29 99 -59 132&#xA;l-20 21 36 65 c70 124 98 219 104 344 4 95 1 122 -18 185 -12 40 -33 94 -48&#xA;121 -28 53 -122 147 -146 147 -29 0 -16 18 27 39 24 12 60 21 80 21 40 0 62&#xA;25 36 41 -27 17 -77 9 -134 -21 -31 -16 -58 -30 -60 -30 -1 0 -4 35 -7 78 -5&#xA;79 -22 127 -61 170 -23 25 -57 29 -57 7 0 -8 4 -15 10 -15 17 0 41 -59 56&#xA;-137 8 -42 13 -77 11 -79 -1 -2 -23 23 -48 54 -66 82 -178 158 -405 272 -109&#xA;56 -203 106 -208 111 -6 5 138 9 372 9 251 0 382 -3 382 -10z m2190 -221 c0&#xA;-215 -1 -230 -17 -225 -33 9 -128 25 -216 36 -111 14 -120 17 -113 44 4 11 9&#xA;65 13 119 6 91 8 98 29 103 33 8 81 66 95 114 l12 40 99 0 98 0 0 -231z&#xA;m-7459 -28 c69 -26 138 -74 185 -129 l36 -42 -50 0 c-62 0 -108 -29 -142 -90&#xA;-21 -37 -25 -58 -25 -121 0 -67 4 -82 30 -125 38 -62 104 -99 160 -88 49 9 92&#xA;47 121 108 13 28 22 42 18 31 -19 -67 -18 -71 23 -88 84 -33 143 -113 143&#xA;-193 0 -186 -276 -290 -553 -210 -87 26 -201 79 -244 113 -42 34 -73 85 -67&#xA;110 7 28 -11 31 -38 6 -20 -18 -25 -57 -6 -51 7 3 24 -14 39 -36 56 -89 172&#xA;-163 314 -201 52 -14 69 -24 85 -49 24 -38 15 -50 -52 -67 -38 -11 -62 -10&#xA;-124 0 -41 7 -78 10 -81 7 -4 -3 11 -14 33 -23 54 -25 177 -24 224 1 23 13 35&#xA;15 38 7 2 -6 26 -45 53 -87 27 -42 61 -98 75 -125 31 -58 27 -66 -49 -100 -42&#xA;-18 -70 -23 -142 -23 -49 0 -108 5 -130 12 -36 10 -43 18 -58 59 -10 27 -61&#xA;109 -113 183 -215 303 -277 411 -319 557 -63 215 -31 407 90 541 48 54 143&#xA;109 220 129 74 19 236 10 306 -16z m1563 -134 c107 -53 170 -114 223 -213 114&#xA;-215 71 -512 -98 -668 -255 -236 -663 -154 -818 165 -107 222 -72 428 104 604&#xA;125 125 225 166 393 161 99 -3 105 -4 196 -49z m-1337 -88 c44 -27 65 -69 71&#xA;-145 6 -77 -10 -125 -54 -164 -48 -42 -100 -42 -148 0 -41 37 -59 84 -58 157&#xA;0 66 26 121 71 150 42 29 74 29 118 2z m3873 -53 c0 -2 -7 -17 -15 -32 -24&#xA;-46 -19 -79 16 -108 39 -33 64 -33 188 4 56 17 134 38 174 46 79 18 334 30&#xA;390 20 l36 -7 -29 -61 c-41 -87 -53 -156 -47 -273 5 -109 33 -227 72 -313 24&#xA;-53 25 -56 10 -105 -28 -93 -16 -198 27 -244 51 -54 121 -11 183 112 34 66 43&#xA;77 76 86 58 18 103 4 143 -43 81 -94 52 -283 -61 -396 -58 -58 -142 -96 -195&#xA;-89 -44 6 -118 52 -118 74 0 33 -25 3 -32 -38 -13 -78 -94 -222 -171 -305&#xA;-156 -167 -317 -237 -543 -236 -97 0 -123 4 -204 31 -106 36 -159 65 -225 123&#xA;-202 178 -257 452 -155 768 38 118 50 247 50 523 l0 257 48 34 c70 51 191 114&#xA;285 147 82 28 97 33 97 25z m-1490 -35 c106 -40 200 -135 242 -244 40 -102 22&#xA;-271 -39 -374 -13 -23 -48 -64 -78 -91 -140 -128 -370 -119 -522 21 -48 44&#xA;-88 105 -104 159 -25 85 -4 250 44 347 45 90 140 172 220 191 64 16 185 11&#xA;237 -9z m3522 -660 c7 -21 119 -99 182 -126 l68 -30 -6 -144 c-4 -79 -8 -147&#xA;-10 -150 -2 -3 -14 -64 -25 -136 -12 -71 -24 -143 -27 -159 l-6 -29 -62 6&#xA;c-60 6 -235 52 -248 65 -12 13 53 442 98 645 14 61 27 82 36 58z m-3510 -266&#xA;l35 -80 -170 -3 c-93 -1 -171 -1 -173 1 -5 5 15 73 35 120 l18 42 110 0 111 0&#xA;34 -80z m-1252 33 c44 0 87 3 97 6 15 5 22 -4 37 -47 10 -28 21 -58 23 -64 4&#xA;-10 -38 -13 -189 -13 l-195 0 21 66 20 66 54 -7 c29 -4 89 -7 132 -7z m6090&#xA;-283 l0 -255 -76 0 -77 0 7 83 c8 91 31 261 48 349 10 54 12 57 47 66 20 6 39&#xA;10 44 11 4 1 7 -114 7 -254z m-423 205 c61 0 146 5 188 11 42 6 79 8 82 5 3&#xA;-3 3 -17 -1 -31 l-6 -25 -225 0 -225 0 0 29 c0 28 1 29 38 20 20 -5 87 -9 149&#xA;-9z m-7277 -132 c25 -57 34 -110 26 -153 -6 -31 -11 -35 -37 -35 -16 0 -56 13&#xA;-87 29 -90 45 -164 63 -265 63 -106 1 -189 -18 -276 -62 -55 -27 -70 -30 -156&#xA;-30 l-95 0 0 115 0 115 436 0 435 0 19 -42z m3759 -5 c-4 -27 -8 -78 -8 -115&#xA;l-1 -68 -472 0 -472 0 -31 29 c-42 41 -124 80 -189 91 -110 18 -250 -20 -328&#xA;-89 l-36 -31 -815 0 -815 0 -12 53 c-7 28 -23 80 -36 114 l-23 63 1623 0 1623&#xA;0 -8 -47z m2451 40 c0 -5 -7 -53 -15 -108 -8 -55 -15 -103 -15 -107 0 -5 -135&#xA;-8 -300 -8 l-300 0 29 45 c16 25 37 77 46 115 l17 70 269 0 c148 0 269 -3 269&#xA;-7z m1317 -15 c-3 -13 -11 -65 -18 -115 l-12 -93 -209 0 -209 0 5 43 c2 23 5&#xA;75 5 115 l1 72 221 0 221 0 -5 -22z m-7026 -110 c20 -60 24 -94 24 -188 0&#xA;-149 -5 -166 -53 -180 -69 -22 -195 -24 -250 -6 -65 22 -125 66 -158 116 l-27&#xA;40 24 52 c16 38 23 72 23 121 1 68 1 68 26 62 14 -3 62 -8 107 -12 69 -5 93&#xA;-2 152 17 39 12 76 29 82 36 19 24 26 16 50 -58z m2150 -57 c67 -32 120 -81&#xA;154 -142 26 -47 29 -65 30 -135 0 -75 -3 -85 -42 -162 -24 -44 -43 -93 -43&#xA;-107 0 -34 -44 -60 -138 -81 -115 -26 -205 -6 -305 65 -117 85 -164 256 -106&#xA;390 31 74 122 155 202 181 80 26 182 22 248 -9z m-2828 -40 c60 -24 110 -60&#xA;128 -93 9 -17 6 -25 -18 -50 -48 -51 -99 -71 -193 -76 -60 -3 -102 1 -145 13&#xA;-103 29 -106 29 -99 12 3 -8 28 -25 55 -36 27 -12 49 -24 49 -26 0 -3 -13 -23&#xA;-29 -45 -48 -66 -63 -166 -36 -232 6 -15 3 -16 -32 -6 -119 32 -248 124 -284&#xA;203 -22 48 -24 113 -5 158 30 72 162 163 281 194 78 20 257 11 328 -16z m-614&#xA;-73 c-43 -44 -69 -103 -69 -160 0 -34 -4 -48 -14 -48 -10 0 -14 25 -15 110 -1&#xA;61 1 115 4 120 4 6 33 10 66 10 l61 0 -33 -32z m801 28 c0 -3 -4 -8 -10 -11&#xA;-5 -3 -10 -1 -10 4 0 6 5 11 10 11 6 0 10 -2 10 -4z m2170 -1 c0 -3 -12 -29&#xA;-26 -57 -14 -28 -28 -76 -31 -107 -5 -49 -10 -60 -45 -90 -77 -66 -105 -169&#xA;-74 -274 9 -33 25 -63 36 -70 13 -7 20 -23 20 -42 0 -45 26 -138 54 -193 67&#xA;-132 220 -242 386 -277 54 -11 55 -13 73 -61 39 -106 160 -336 238 -454 107&#xA;-162 261 -319 364 -372 138 -71 260 -87 376 -48 40 14 72 19 94 14 25 -4 47 0&#xA;77 15 57 28 165 125 182 165 8 17 40 62 72 99 58 69 73 73 74 18 0 -26 43&#xA;-266 64 -353 l13 -58 -1618 0 -1618 0 21 58 c40 113 35 308 -12 404 -11 23&#xA;-20 43 -20 45 0 2 31 3 69 3 80 0 195 22 256 49 139 61 200 202 141 326 -25&#xA;53 -47 77 -111 120 -38 25 -40 30 -57 116 -35 185 -134 330 -270 396 -109 53&#xA;-254 71 -395 48 -196 -32 -333 -130 -411 -294 -32 -66 -36 -84 -36 -155 -1&#xA;-45 2 -97 7 -117 l7 -36 -59 -22 c-133 -50 -242 -147 -324 -288 -116 -202&#xA;-131 -426 -41 -605 l24 -48 -279 0 c-214 0 -280 3 -283 13 -3 6 -4 426 -4 931&#xA;1 674 4 920 12 923 7 2 25 -20 42 -50 108 -192 408 -291 786 -259 293 25 462&#xA;99 559 245 49 73 77 165 83 261 2 45 4 82 4 84 0 5 1580 2 1580 -3z m1585 -60&#xA;c43 -221 199 -406 416 -491 67 -26 69 -28 52 -45 -10 -10 -57 -38 -104 -62&#xA;-156 -81 -254 -158 -516 -410 -132 -127 -285 -257 -303 -257 -4 0 -14 10 -22&#xA;23 -9 12 -55 72 -103 132 -49 61 -103 133 -122 161 l-34 52 17 58 c20 70 15&#xA;170 -16 288 -13 51 -20 110 -20 170 0 149 -20 190 -88 188 l-37 -2 0 83 c0 54&#xA;-6 96 -18 125 -9 23 -17 45 -17 47 0 3 203 4 452 3 l452 -3 11 -60z m2405 10&#xA;c-20 -208 21 -257 220 -263 92 -3 109 -1 138 18 40 25 58 65 68 148 3 34 11&#xA;62 15 62 5 0 9 -39 9 -87 0 -195 40 -236 235 -236 101 0 153 16 180 56 13 21&#xA;44 251 45 340 0 16 15 17 207 15 l207 -3 -5 -65 c-12 -180 5 -260 57 -280 14&#xA;-6 54 -10 90 -10 l64 0 0 -895 0 -895 -682 0 -683 0 -1 133 c-1 110 -5 141&#xA;-23 188 -29 76 -72 133 -120 161 -33 19 -44 34 -62 83 -36 98 -141 313 -209&#xA;425 -163 270 -340 439 -587 559 -81 39 -94 49 -110 84 -9 22 -43 67 -73 99&#xA;-45 47 -61 58 -88 58 -17 0 -32 2 -32 6 0 3 12 21 28 40 20 25 35 34 57 34 68&#xA;1 158 68 189 140 13 32 20 37 74 48 39 8 77 25 113 51 l54 39 315 -1 314 -2&#xA;-4 -50z m-937 -14 c31 -16 32 -22 13 -59 -18 -34 -51 -65 -93 -86 -45 -23 -46&#xA;-21 -19 23 14 21 32 62 42 90 9 29 19 50 23 49 3 -2 18 -10 34 -17z m1117 -37&#xA;c47 -13 109 -23 138 -23 43 -1 52 -4 52 -18 0 -39 -22 -93 -42 -104 -21 -11&#xA;-139 -13 -193 -3 -67 12 -96 66 -81 149 6 30 10 35 24 29 9 -4 55 -18 102 -30z&#xA;m-6180 -140 c50 -27 64 -29 160 -29 83 0 112 4 139 18 l33 19 -28 -52 c-51&#xA;-94 -159 -170 -291 -204 -119 -31 -196 -16 -260 50 -43 45 -59 83 -69 170 l-6&#xA;51 54 26 c29 14 67 40 83 57 l29 30 50 -54 c28 -30 76 -67 106 -82z m7530 29&#xA;l0 -83 -64 0 c-82 0 -96 16 -96 107 l0 63 80 -3 80 -2 0 -82z m-830 13 l136 0&#xA;-6 -53 c-9 -83 -29 -97 -137 -97 -49 0 -104 6 -124 13 -32 10 -38 18 -48 56&#xA;-6 24 -11 55 -11 70 0 23 3 25 28 18 15 -4 88 -7 162 -7z m-7110 -27 l68 0 7&#xA;-67 c11 -106 45 -167 119 -213 l29 -18 -38 -7 c-42 -8 -286 3 -331 14 -72 19&#xA;-85 146 -23 246 33 55 35 57 68 51 18 -4 64 -6 101 -6z m2375 -105 c16 -56 16&#xA;-57 -8 -83 -31 -33 -57 -84 -57 -111 0 -12 -4 -18 -10 -15 -16 10 -12 161 5&#xA;202 17 40 33 63 46 63 4 0 15 -25 24 -56z m809 4 c3 -13 7 -72 10 -133 2 -60&#xA;14 -148 25 -195 26 -106 26 -189 1 -260 -23 -65 -24 -80 -7 -80 6 0 28 -26 47&#xA;-58 43 -72 294 -385 348 -434 53 -49 75 -52 51 -6 -13 23 -10 22 58 -24 48&#xA;-32 123 -141 147 -212 9 -27 20 -84 23 -126 l6 -77 -29 -12 c-16 -6 -47 -21&#xA;-68 -33 -29 -16 -62 -23 -120 -26 -92 -5 -159 14 -255 70 -89 53 -226 197&#xA;-320 338 -82 124 -217 385 -242 468 -14 48 -22 54 -94 71 -27 7 -88 31 -135&#xA;53 -99 48 -193 134 -228 211 -66 141 -65 311 1 351 15 9 23 6 46 -20 24 -27&#xA;29 -42 33 -111 6 -88 35 -167 74 -204 38 -36 40 -14 3 43 -35 54 -42 99 -26&#xA;161 7 27 9 28 31 14 12 -8 41 -21 63 -27 37 -11 41 -16 47 -51 8 -51 26 -89&#xA;42 -89 11 0 10 8 -1 41 -27 74 -26 76 73 82 48 3 112 14 143 25 l57 20 15 -40&#xA;c10 -24 21 -38 29 -36 10 4 12 28 9 100 -3 80 0 101 17 135 40 77 116 120 126&#xA;71z m2004 -223 c-26 -50 -80 -137 -122 -192 -82 -110 -242 -293 -255 -293 -13&#xA;0 -82 251 -96 352 -11 72 -3 84 56 87 59 2 203 42 262 73 55 28 149 91 167&#xA;113 14 17 16 15 24 -15 8 -28 4 -44 -36 -125z m169 88 c30 -32 57 -69 61 -83&#xA;14 -50 5 -213 -16 -297 -23 -88 -69 -207 -103 -262 l-20 -33 -73 70 c-42 41&#xA;-85 73 -102 77 -16 4 -35 8 -42 11 -22 7 -75 -22 -111 -60 -43 -45 -35 -58 10&#xA;-16 69 63 105 54 215 -51 45 -43 91 -79 102 -79 66 0 179 278 197 488 4 46 10&#xA;81 14 80 285 -134 477 -323 670 -663 63 -110 171 -324 171 -338 0 -1 -41 0&#xA;-90 2 -50 1 -120 -2 -157 -9 -85 -14 -209 -62 -261 -99 l-39 -29 -85 156 c-47&#xA;87 -112 206 -144 266 -32 59 -60 103 -62 97 -9 -27 48 -169 145 -359 86 -171&#xA;101 -207 92 -224 -6 -11 -9 -42 -7 -69 l3 -50 -40 -11 c-48 -13 -146 -14 -360&#xA;-4 -182 9 -298 -5 -407 -49 -34 -14 -63 -24 -64 -22 -2 2 -15 73 -29 158 -43&#xA;256 -44 605 -3 739 6 20 36 60 71 95 150 150 299 361 357 509 25 63 26 71 15&#xA;99 -6 13 -2 17 16 17 15 0 41 -20 76 -57z m-695 -198 c15 -142 90 -408 120&#xA;-429 15 -10 17 -18 9 -37 -30 -81 -46 -358 -30 -534 5 -55 21 -163 34 -239 14&#xA;-76 24 -140 23 -141 -2 -2 -34 -26 -71 -54 l-68 -51 -135 0 -134 0 0 24 c0 14&#xA;-11 75 -24 138 -43 196 -67 366 -85 593 -22 272 -37 256 -34 -38 l1 -197 -56&#xA;-55 -57 -54 -21 67 c-26 86 -77 181 -126 237 -43 49 -168 136 -223 156 -19 7&#xA;-34 16 -33 20 5 12 351 331 439 404 81 68 206 151 214 143 2 -2 -5 -29 -16&#xA;-60 -21 -65 -49 -214 -49 -267 0 -74 38 -79 118 -17 66 50 113 76 140 76 10 0&#xA;38 -14 61 -31 24 -17 45 -28 48 -26 8 9 -15 44 -48 71 -52 44 -100 33 -205&#xA;-46 -28 -21 -54 -38 -57 -38 -25 0 27 238 73 335 16 34 39 74 51 89 19 24 26&#xA;27 78 24 l56 -3 7 -60z m-3627 9 c74 -18 130 -51 189 -109 54 -54 122 -185&#xA;131 -252 4 -27 8 -57 10 -68 2 -11 4 -33 4 -48 1 -22 8 -31 36 -42 50 -21 105&#xA;-74 126 -120 76 -166 -103 -296 -390 -282 -117 5 -200 27 -317 83 -74 35 -174&#xA;115 -174 140 0 27 -99 33 -108 7 -2 -9 7 -13 27 -13 19 0 34 -7 40 -17 5 -10&#xA;32 -47 61 -83 29 -36 65 -91 81 -122 l29 -58 -30 0 c-87 0 -162 70 -273 254&#xA;-99 165 -132 301 -103 415 23 90 62 156 125 212 126 112 334 152 536 103z&#xA;m-685 -624 c7 -16 32 -64 56 -107 40 -70 43 -78 27 -86 -40 -22 -103 -100&#xA;-137 -169 -111 -223 -8 -434 209 -432 183 1 277 182 192 368 -22 48 -24 57&#xA;-10 52 9 -4 36 -10 59 -13 38 -5 43 -9 53 -44 19 -63 25 -219 11 -280 -30&#xA;-128 -144 -275 -255 -325 -204 -94 -498 31 -610 258 -32 67 -38 89 -43 166 -6&#xA;109 14 209 62 308 42 88 111 180 168 227 47 39 170 107 193 107 7 0 18 -13 25&#xA;-30z m3402 -47 c111 -43 225 -138 280 -233 28 -47 62 -148 73 -213 5 -33 2&#xA;-43 -31 -82 -35 -44 -153 -140 -161 -132 -2 2 3 17 12 33 34 65 10 209 -53&#xA;322 -39 71 -123 149 -189 178 -110 48 -112 53 -45 107 54 42 57 43 114 20z&#xA;m-3193 -278 c80 -101 111 -171 111 -248 0 -71 -25 -116 -80 -144 -122 -63&#xA;-266 16 -285 155 -7 58 15 146 52 210 34 58 112 137 123 126 4 -5 40 -49 79&#xA;-99z m282 37 c25 -12 79 -30 118 -41 84 -23 96 -31 122 -83 l19 -37 -27 -18&#xA;c-38 -25 -134 -24 -195 2 -40 17 -48 25 -53 54 -4 20 -20 64 -36 99 -34 76&#xA;-35 80 -11 60 9 -9 38 -25 63 -36z m5497 -117 c95 -29 156 -107 171 -220 4&#xA;-30 6 -55 3 -55 -2 0 -16 8 -30 19 -135 94 -334 115 -567 57 -55 -14 -107 -27&#xA;-116 -31 -23 -9 -31 30 -14 71 26 62 163 138 295 163 75 14 202 12 258 -4z&#xA;m-5413 -101 c65 -18 92 -17 142 5 l41 19 7 -25 c10 -40 7 -188 -5 -232 -9 -36&#xA;-15 -41 -61 -56 -94 -32 -228 -10 -214 34 22 71 25 154 10 255 -4 24 -2 27 13&#xA;21 9 -4 39 -14 67 -21z m5388 -134 c72 -22 150 -71 180 -111 11 -15 21 -46 24&#xA;-70 15 -134 -160 -202 -552 -215 -144 -5 -193 -3 -245 9 -62 15 -66 15 -86 -4&#xA;-35 -33 -83 -41 -239 -43 l-150 -1 -99 -54 c-91 -49 -103 -53 -145 -47 -60 8&#xA;-68 18 -49 58 29 62 108 138 179 174 38 19 69 37 69 40 0 13 -78 -9 -133 -39&#xA;-66 -35 -141 -113 -164 -169 -18 -46 -51 -51 -88 -13 -63 62 3 182 149 269 73&#xA;44 52 47 -31 6 -102 -51 -193 -172 -177 -235 8 -32 -6 -32 -45 1 -102 86 65&#xA;267 304 330 81 21 320 29 415 15 139 -22 160 -24 172 -14 7 6 33 13 58 17 25&#xA;4 98 25 162 47 156 53 225 67 334 68 66 1 111 -5 157 -19z m-5364 -197 c52 -4&#xA;74 0 104 15 l38 20 -7 -21 c-15 -47 -76 -128 -121 -162 -86 -63 -232 -104&#xA;-373 -105 l-65 0 61 29 c74 35 146 106 197 193 l38 66 31 -16 c17 -8 61 -17&#xA;97 -19z m-936 -131 c126 -114 282 -169 502 -179 238 -10 407 39 525 154 l64&#xA;63 1774 0 c1686 0 1774 -1 1767 -17 -17 -41 -18 -122 -1 -148 23 -36 75 -65&#xA;113 -65 17 0 35 -4 38 -10 7 -11 152 -56 212 -66 38 -6 52 -1 150 52 l108 59&#xA;145 -3 c144 -3 146 -3 205 27 53 27 63 29 108 20 27 -5 124 -9 216 -9 309 1&#xA;532 52 587 135 l16 25 929 0 929 0 0 -173 0 -172 -4752 0 -4753 0 -3 173 -2&#xA;172 540 0 540 0 43 -38z"/>
    <path d="M4700 8357 c-93 -33 -157 -73 -220 -137 -239 -241 -240 -658 -1 -883&#xA;117 -110 238 -157 406 -157 160 0 285 43 390 134 l50 44 0 253 0 254 -235 0&#xA;-235 0 -5 -115 c-8 -155 -3 -163 91 -157 l69 3 0 -36 c0 -33 -4 -39 -39 -55&#xA;-57 -25 -146 -17 -200 18 -50 33 -97 97 -112 149 -37 140 22 320 121 370 69&#xA;35 190 13 261 -46 18 -15 41 -26 53 -24 21 3 176 210 176 235 0 19 -98 93&#xA;-157 119 -133 60 -297 72 -413 31z m327 -58 c80 -26 188 -95 176 -112 -5 -7&#xA;-31 -41 -58 -77 -26 -36 -52 -69 -56 -74 -4 -5 -21 3 -38 17 -41 34 -132 67&#xA;-187 67 -150 0 -266 -155 -268 -360 -1 -63 4 -85 28 -138 34 -75 113 -152 173&#xA;-170 82 -25 208 -8 254 34 13 12 17 30 15 74 -3 80 -13 90 -97 90 l-69 0 0 85&#xA;0 85 190 0 190 0 0 -148 c0 -82 -3 -184 -6 -226 l-7 -76 -49 -37 c-27 -19 -84&#xA;-49 -126 -66 -65 -26 -93 -31 -177 -33 -226 -6 -415 99 -500 278 -42 88 -55&#xA;152 -55 267 0 157 50 288 152 397 69 73 167 128 258 143 74 13 182 4 257 -20z"/>
    <path d="M7387 8352 c-11 -2 -32 -35 -57 -88 -63 -137 -164 -334 -172 -334 -3&#xA;0 -49 83 -101 184 -53 101 -103 196 -112 210 l-17 26 -154 0 c-182 0 -168 12&#xA;-177 -145 -43 -669 -57 -968 -47 -980 17 -20 282 -21 303 -1 11 12 16 55 22&#xA;184 4 93 10 204 14 247 l6 78 96 -174 97 -174 73 0 73 0 29 50 c16 28 59 104&#xA;96 170 l66 119 7 -69 c4 -39 11 -148 16 -244 8 -151 11 -176 27 -188 26 -18&#xA;264 -19 289 0 17 12 17 27 -3 327 -11 173 -26 416 -32 539 -16 291 -4 273&#xA;-188 270 -75 -2 -144 -5 -154 -7z m-373 -274 c65 -123 124 -229 131 -237 24&#xA;-25 44 4 157 237 l108 222 129 0 129 0 6 -112 c4 -62 15 -268 26 -458 11 -190&#xA;22 -371 25 -403 l5 -58 -113 3 -112 3 -8 100 c-4 55 -13 181 -20 280 -10 153&#xA;-14 180 -28 183 -13 2 -48 -51 -134 -202 -116 -205 -117 -206 -151 -206 -40 0&#xA;-35 -6 -174 243 -66 116 -99 167 -111 167 -10 0 -20 -3 -22 -7 -3 -5 -10 -118&#xA;-16 -253 -7 -135 -14 -260 -17 -277 l-5 -33 -115 0 c-113 0 -114 0 -110 23 3&#xA;12 8 87 11 167 3 80 8 174 11 210 2 36 11 188 20 339 8 151 17 278 19 282 3 4&#xA;58 7 123 8 l119 2 117 -223z"/>
    <path d="M7920 8341 c-6 -13 -10 -205 -10 -556 0 -351 4 -543 10 -556 10 -18&#xA;25 -19 341 -19 209 0 337 4 350 10 17 10 19 22 19 142 0 113 -2 133 -17 144&#xA;-13 10 -64 13 -195 14 l-178 0 0 65 0 65 140 0 c127 0 140 2 150 19 13 24 13&#xA;231 0 251 -7 12 -37 15 -147 16 l-138 0 -3 62 -3 62 169 0 c117 0 172 4 180&#xA;12 8 8 12 53 12 134 0 98 -3 126 -16 138 -13 14 -58 16 -334 16 -305 0 -320&#xA;-1 -330 -19z m630 -136 l0 -95 -168 0 c-117 0 -172 -4 -180 -12 -7 -7 -12 -44&#xA;-12 -97 0 -121 1 -121 162 -121 l128 0 0 -89 0 -89 -130 0 c-89 0 -135 -4&#xA;-145 -12 -11 -9 -15 -35 -15 -102 0 -136 -12 -128 205 -128 l185 0 0 -95 0&#xA;-95 -310 0 -310 0 0 515 0 515 295 0 295 0 0 -95z"/>
    <path d="M5732 8338 c-5 -7 -29 -74 -52 -148 -24 -74 -100 -315 -171 -535&#xA;-111 -349 -126 -403 -115 -420 12 -18 26 -20 161 -23 95 -2 152 1 159 8 6 6&#xA;25 52 41 103 l30 92 144 0 143 0 27 -90 c15 -49 30 -96 34 -102 6 -10 49 -13&#xA;157 -13 122 0 151 3 164 16 27 26 48 -49 -233 817 -49 154 -95 285 -102 293&#xA;-16 19 -371 21 -387 2z m446 -336 c188 -575 232 -714 232 -723 0 -5 -54 -9&#xA;-119 -9 l-119 0 -21 73 c-12 39 -27 83 -34 97 l-13 25 -174 3 c-109 1 -177 -1&#xA;-184 -8 -5 -5 -22 -49 -36 -98 l-25 -87 -121 -3 -121 -3 131 413 c73 227 145&#xA;457 161 510 l30 98 160 0 160 0 93 -288z"/>
    <path d="M5914 8062 c-17 -10 -116 -384 -105 -395 5 -5 57 -9 117 -9 86 0 111&#xA;4 118 15 7 11 -5 71 -37 193 -52 197 -62 217 -93 196z m45 -220 c13 -53 26&#xA;-105 29 -114 4 -16 -4 -18 -58 -18 -60 0 -62 1 -56 23 3 12 16 64 28 114 13&#xA;51 25 93 28 93 3 0 16 -44 29 -98z"/>
    <path d="M1333 8161 c-130 -82 -68 -276 85 -262 28 2 10 29 -25 36 -109 20&#xA;-128 159 -27 201 29 12 39 12 69 0 35 -15 75 -67 75 -98 0 -21 16 -24 23 -4 9&#xA;24 -14 84 -44 112 -38 37 -111 43 -156 15z"/>
    <path d="M2531 7987 c-14 -17 -3 -29 51 -54 26 -12 66 -39 88 -59 31 -28 44&#xA;-34 52 -26 15 15 -28 62 -97 107 -64 41 -81 47 -94 32z"/>
    <path d="M1905 7961 c-53 -25 -130 -104 -121 -126 5 -14 15 -9 63 28 32 24 77&#xA;54 101 66 45 23 52 35 26 45 -22 8 -24 8 -69 -13z"/>
    <path d="M2532 7660 c-29 -12 -52 -67 -52 -125 0 -89 91 -132 127 -60 30 60&#xA;21 152 -20 180 -24 17 -24 17 -55 5z"/>
    <path d="M1916 7641 c-22 -25 -37 -94 -30 -138 12 -67 80 -96 120 -52 27 30&#xA;26 139 -3 177 -25 34 -63 40 -87 13z"/>
    <path d="M2152 7454 c-84 -22 -158 -62 -216 -115 -127 -116 -155 -252 -79&#xA;-391 52 -96 174 -167 326 -191 335 -54 586 97 590 353 2 158 -123 295 -318&#xA;345 -74 19 -232 19 -303 -1z m264 -25 c81 -14 196 -72 240 -121 20 -23 48 -65&#xA;61 -95 22 -47 25 -66 21 -123 -15 -199 -196 -321 -458 -307 -208 11 -344 82&#xA;-406 212 -28 59 -30 111 -8 185 12 42 29 67 77 115 119 118 292 167 473 134z"/>
    <path d="M2224 7331 c-43 -19 -54 -36 -54 -77 0 -50 14 -61 128 -105 21 -8 22&#xA;-14 22 -118 l0 -109 -42 5 c-69 8 -155 52 -192 96 -38 46 -65 44 -41 -3 41&#xA;-79 176 -137 291 -127 36 4 84 15 107 25 44 20 117 92 117 116 0 30 -18 24&#xA;-50 -15 -30 -38 -115 -89 -148 -89 -10 0 -12 25 -10 106 l3 106 49 19 c56 21&#xA;96 54 96 80 0 64 -59 101 -165 106 -53 3 -80 -1 -111 -16z"/>
    <path d="M3453 6784 c-25 -38 -23 -119 4 -145 26 -26 60 -18 74 18 12 33 11&#xA;90 -2 116 -24 44 -51 48 -76 11z"/>
    <path d="M3800 6795 c-7 -9 -13 -42 -14 -75 -1 -49 3 -63 22 -82 25 -26 48&#xA;-19 70 23 18 34 10 119 -14 136 -24 17 -49 17 -64 -2z"/>
    <path d="M3815 6497 c-54 -86 -190 -101 -295 -31 -24 17 -37 21 -45 13 -12&#xA;-12 19 -38 81 -69 53 -26 153 -27 210 -1 47 21 99 83 90 106 -8 22 -19 18 -41&#xA;-18z"/>
    <path d="M3087 5935 c-94 -24 -187 -153 -187 -261 0 -210 166 -305 296 -169&#xA;110 114 135 283 57 375 -46 55 -98 72 -166 55z m111 -45 c47 -29 76 -98 69&#xA;-166 -7 -71 -52 -158 -106 -205 -38 -34 -50 -39 -93 -39 -64 0 -100 33 -123&#xA;115 -20 68 -15 116 19 183 58 113 156 160 234 112z"/>
    <path d="M5405 6505 c-32 -31 -35 -103 -7 -128 47 -43 102 -6 102 68 0 78 -48&#xA;108 -95 60z"/>
    <path d="M5520 6035 c-15 -16 -24 -41 -28 -74 -11 -123 73 -216 208 -228 162&#xA;-15 277 111 217 237 -7 14 -21 26 -31 28 -17 4 -18 3 -2 -19 22 -32 20 -97 -4&#xA;-136 -10 -18 -38 -42 -62 -54 -35 -18 -54 -21 -111 -16 -72 5 -115 29 -160 90&#xA;-28 36 -34 124 -13 165 20 38 17 40 -14 7z"/>
    <path d="M6409 6518 c-72 -24 -60 -167 14 -168 32 0 57 37 57 86 0 74 -22 99&#xA;-71 82z"/>
    <path d="M6524 6019 c-14 -16 -19 -36 -19 -84 0 -72 18 -100 90 -138 34 -18&#xA;57 -22 145 -22 93 0 111 3 154 25 59 30 86 64 93 116 6 47 -25 94 -62 94 -33&#xA;0 -40 -17 -10 -24 39 -10 51 -46 30 -90 -53 -112 -319 -123 -395 -16 -29 41&#xA;-34 81 -16 123 17 43 16 45 -10 16z"/>
    <path d="M8276 6471 c-3 -5 1 -11 9 -14 23 -9 46 -65 64 -151 9 -45 21 -83 26&#xA;-86 32 -16 0 188 -36 234 -20 26 -53 34 -63 17z"/>
    <path d="M7994 5883 c-28 -21 -44 -61 -44 -109 0 -42 5 -59 26 -84 22 -26 33&#xA;-31 62 -28 51 4 74 40 73 114 0 73 -23 108 -72 112 -19 1 -39 -1 -45 -5z"/>
    <path d="M7406 5429 c-23 -18 -36 -49 -20 -49 9 0 74 55 74 63 0 14 -27 7 -54&#xA;-14z"/>
    <path d="M7533 5408 c-39 -42 -56 -75 -48 -95 4 -12 13 -5 34 28 15 24 35 50&#xA;44 58 18 14 23 41 9 41 -4 0 -22 -15 -39 -32z"/>
    <path d="M1728 5907 c-99 -36 -155 -200 -113 -327 19 -58 80 -132 129 -157 51&#xA;-26 120 -21 168 13 64 44 93 110 92 204 -1 91 -24 148 -84 214 -57 62 -121 80&#xA;-192 53z m115 -31 c18 -7 45 -30 60 -50 96 -125 94 -278 -3 -360 -69 -58 -177&#xA;-21 -237 81 -24 42 -28 58 -28 128 0 111 40 183 111 205 42 12 61 12 97 -4z"/>
    <path d="M1625 4816 c-41 -18 -92 -77 -104 -123 -35 -125 13 -259 106 -299 84&#xA;-36 168 -5 210 76 97 189 -45 419 -212 346z m131 -35 c77 -47 106 -209 54&#xA;-299 -29 -52 -63 -72 -121 -72 -152 0 -207 256 -79 364 39 32 100 35 146 7z"/>
    <path d="M1692 4663 c-37 -15 -54 -111 -26 -151 42 -61 116 8 100 94 -10 51&#xA;-37 72 -74 57z"/>
    <path d="M2270 4305 c0 -24 33 -86 44 -82 6 2 10 17 8 33 -5 43 -52 88 -52 49z"/>
    <path d="M2115 4298 c-9 -22 25 -83 45 -83 26 0 22 33 -9 67 -25 28 -31 31&#xA;-36 16z"/>
    <path d="M3245 4751 c-96 -25 -190 -107 -236 -204 -94 -202 -41 -362 151 -451&#xA;55 -25 77 -30 145 -30 66 0 90 4 137 26 117 54 194 156 205 271 13 144 -74&#xA;299 -207 367 -45 23 -147 34 -195 21z m158 -47 c155 -53 253 -272 187 -421&#xA;-24 -56 -78 -115 -135 -148 -117 -70 -298 -36 -397 73 -48 53 -61 99 -56 186&#xA;14 222 212 375 401 310z"/>
    <path d="M3297 4523 c-14 -13 -6 -23 17 -23 14 0 38 -12 55 -26 81 -68 27&#xA;-194 -83 -194 -25 0 -40 7 -55 26 -32 41 -28 92 14 154 20 29 33 55 31 58 -11&#xA;11 -56 -30 -82 -73 -34 -59 -30 -122 11 -165 34 -36 65 -44 118 -29 86 23 146&#xA;119 117 189 -25 61 -114 112 -143 83z"/>
    <path d="M2082 4675 c-41 -51 -37 -121 8 -145 41 -22 80 21 80 87 0 74 -50&#xA;107 -88 58z"/>
    <path d="M5793 4494 c-62 -23 -113 -91 -87 -117 3 -3 26 8 51 23 61 39 121 47&#xA;180 25 49 -19 65 -11 55 27 -12 48 -121 71 -199 42z"/>
    <path d="M6318 4487 c-19 -18 -28 -36 -28 -58 0 -34 -3 -34 87 -9 65 19 151&#xA;-13 259 -95 31 -23 37 43 7 83 -11 14 -48 42 -83 61 -52 29 -76 35 -139 39&#xA;-71 4 -78 2 -103 -21z"/>
    <path d="M5807 4256 c-50 -19 -78 -45 -112 -108 -58 -106 -42 -269 33 -346 20&#xA;-22 43 -41 51 -44 12 -3 12 -10 3 -38 -7 -18 -12 -57 -12 -86 0 -49 3 -57 38&#xA;-92 42 -42 73 -52 164 -52 61 0 128 21 128 40 0 8 -17 9 -57 4 -79 -11 -128&#xA;-7 -164 11 -86 45 -93 195 -9 195 44 0 76 15 125 61 155 143 88 451 -103 466&#xA;-26 2 -64 -3 -85 -11z m162 -53 c14 -11 37 -40 51 -64 20 -36 25 -58 25 -124&#xA;0 -70 -4 -87 -30 -134 -53 -97 -149 -136 -221 -92 -126 77 -140 296 -26 405&#xA;51 48 142 52 201 9z"/>
    <path d="M5868 4043 c-39 -45 -48 -91 -26 -138 13 -29 53 -43 77 -28 43 27 54&#xA;113 20 157 -24 30 -49 33 -71 9z"/>
    <path d="M6324 4241 c-51 -23 -108 -90 -128 -149 -20 -58 -20 -164 0 -231 17&#xA;-57 69 -123 118 -148 17 -9 55 -16 86 -16 136 0 232 141 217 318 -15 181 -154&#xA;289 -293 226z m174 -48 c20 -17 48 -52 62 -79 21 -41 25 -62 25 -139 0 -99&#xA;-16 -143 -71 -199 -88 -88 -214 -62 -276 57 -33 64 -37 197 -8 264 53 125 177&#xA;169 268 96z"/>
    <path d="M6340 3978 c-40 -66 -16 -158 40 -158 45 0 81 75 65 137 -10 40 -24&#xA;53 -56 53 -22 0 -34 -8 -49 -32z"/>
    <path d="M7142 3774 c-18 -7 -44 -26 -58 -41 -30 -31 -74 -123 -74 -153 0 -38&#xA;25 -20 43 30 29 82 103 154 132 130 16 -13 35 -5 35 14 0 24 -43 35 -78 20z"/>
    <path d="M6365 3410 c-154 -74 -355 -106 -470 -75 -27 7 -52 12 -54 10 -9 -9&#xA;13 -26 49 -36 29 -9 42 -20 51 -43 24 -60 63 -107 108 -134 40 -24 57 -27 131&#xA;-27 75 0 91 3 131 27 119 70 212 235 164 288 -23 26 -37 24 -110 -10z m78 -51&#xA;c-7 -26 -68 -78 -117 -99 -102 -43 -231 -52 -283 -20 -47 28 -41 40 21 40 66&#xA;0 206 39 301 84 70 33 87 32 78 -5z"/>
    <path d="M4384 4559 c-77 -22 -167 -143 -180 -242 -22 -158 178 -296 334 -232&#xA;47 20 107 78 135 130 33 61 31 165 -5 225 -65 111 -167 153 -284 119z m139&#xA;-32 c150 -64 187 -247 73 -362 -24 -23 -60 -48 -81 -55 -86 -28 -201 13 -252&#xA;92 -37 55 -36 126 1 202 54 110 164 162 259 123z"/>
    <path d="M4440 4403 c-18 -4 -70 -80 -70 -101 0 -23 32 -70 54 -80 29 -13 84&#xA;6 108 39 31 41 27 87 -11 121 -30 27 -46 31 -81 21z m55 -48 c38 -37 28 -73&#xA;-25 -95 -54 -23 -78 25 -45 90 19 36 38 38 70 5z"/>
    <path d="M4437 3163 c-4 -3 -7 -13 -7 -21 0 -12 3 -12 15 -2 8 7 15 16 15 21&#xA;0 11 -14 12 -23 2z"/>
    <path d="M4327 3023 c-12 -12 -7 -22 8 -17 8 4 15 10 15 15 0 11 -14 12 -23 2z"/>
    <path d="M4060 2971 c0 -12 5 -21 10 -21 6 0 10 6 10 14 0 8 -4 18 -10 21 -5&#xA;3 -10 -3 -10 -14z"/>
    <path d="M4176 2971 c-3 -5 1 -12 10 -15 20 -8 29 -1 19 13 -8 13 -22 14 -29&#xA;2z"/>
    <path d="M4384 2949 c-3 -6 -1 -16 5 -22 8 -8 11 -5 11 11 0 24 -5 28 -16 11z"/>
    <path d="M4293 2913 c-18 -6 -16 -23 1 -23 17 0 30 16 19 23 -5 2 -14 2 -20 0z"/>
    <path d="M4190 2880 c0 -5 5 -10 10 -10 6 0 10 5 10 10 0 6 -4 10 -10 10 -5 0&#xA;-10 -4 -10 -10z"/>
    <path d="M4202 2642 c-9 -6 2 -11 37 -15 62 -7 132 -42 194 -97 53 -47 67 -47&#xA;43 -2 -17 33 -48 58 -115 92 -47 24 -138 36 -159 22z"/>
    <path d="M6375 2090 c-3 -5 -2 -10 3 -10 19 0 35 -57 22 -79 -6 -12 -15 -21&#xA;-20 -21 -14 0 -30 35 -30 64 0 35 -17 33 -25 -3 -10 -45 18 -91 54 -91 33 0&#xA;49 15 57 57 10 51 -39 118 -61 83z"/>
    <path d="M2170 2511 c-53 -28 -91 -97 -97 -175 -9 -110 37 -199 121 -231 36&#xA;-14 50 -15 87 -5 82 22 129 99 129 212 0 164 -120 264 -240 199z m136 -30 c82&#xA;-50 98 -227 28 -310 -13 -16 -40 -35 -59 -41 -31 -10 -41 -9 -81 11 -117 56&#xA;-126 263 -15 336 41 28 86 29 127 4z"/>
    <path d="M2214 2355 c-27 -42 -29 -96 -4 -127 27 -35 44 -35 77 -2 22 22 25&#xA;32 21 74 -3 27 -11 56 -18 65 -19 23 -57 18 -76 -10z"/>
    <path d="M2570 2507 c-47 -31 -71 -77 -77 -147 -8 -80 11 -143 56 -190 62 -66&#xA;137 -66 202 -1 88 88 76 271 -24 339 -45 30 -112 30 -157 -1z m144 -28 c41&#xA;-32 66 -90 66 -151 -1 -101 -71 -188 -139 -173 -123 27 -165 227 -65 314 43&#xA;38 97 42 138 10z"/>
    <path d="M2606 2355 c-21 -32 -21 -109 0 -129 41 -41 94 1 94 74 0 74 -59 109&#xA;-94 55z"/>
    <path d="M2840 2029 c0 -20 42 -80 53 -76 18 6 18 21 -3 55 -19 31 -50 44 -50&#xA;21z"/>
    <path d="M2673 2014 c-8 -22 17 -68 41 -72 32 -7 38 13 14 48 -27 40 -46 48&#xA;-55 24z"/>
  </g>
  <title>Budka z grami i nagrodami</title>
  <desc>Karnawałowa budka, w której można wygrać wspaniałe nagrody, np. wielkiego pluszowego misia. Spróbuj swojego szczęścia w rzucaniu do celu!</desc>
</svg>