<?xml version="1.0" standalone="no"?>
<!DOCTYPE svg PUBLIC "-//W3C//DTD SVG 20010904//EN"
 "http://www.w3.org/TR/2001/REC-SVG-20010904/DTD/svg10.dtd">
<svg version="1.0" xmlns="http://www.w3.org/2000/svg"
 width="1024.000000pt" height="1024.000000pt" viewBox="0 0 1024.000000 1024.000000"
 preserveAspectRatio="xMidYMid meet">
<metadata>
Created by potrace 1.16, written by Peter Selinger 2001-2019
</metadata>
<g transform="translate(0.000000,1024.000000) scale(0.100000,-0.100000)"
fill="#000000" stroke="none">
<path d="M4145 9799 c-11 -6 -31 -24 -45 -39 -14 -16 -113 -79 -220 -141 -444
-255 -467 -265 -655 -294 -287 -44 -492 -98 -627 -166 -211 -106 -395 -275
-553 -509 -128 -190 -154 -284 -106 -383 47 -96 127 -123 320 -108 303 25 624
143 812 299 104 87 163 151 352 381 92 113 148 172 205 215 168 127 295 213
469 317 144 86 188 108 207 103 39 -9 94 14 111 46 22 42 19 79 -11 139 -52
104 -189 178 -259 140z m113 -58 c101 -52 156 -169 97 -207 -22 -14 -29 -15
-57 -3 -65 27 -168 144 -168 190 0 40 68 51 128 20z m-75 -186 c36 -37 45 -52
35 -58 -344 -211 -455 -284 -579 -379 -42 -32 -78 -58 -80 -58 -3 0 -6 14 -7
30 -4 55 -44 143 -85 187 -22 24 -38 44 -36 46 2 1 51 26 109 54 58 29 175 94
260 144 85 50 186 108 224 129 l69 38 21 -41 c11 -23 42 -64 69 -92z m-746
-305 c27 -31 64 -113 75 -165 l10 -54 -118 -143 c-175 -212 -274 -318 -378
-402 -51 -42 -95 -76 -97 -76 -2 0 -2 27 -1 60 8 132 -57 305 -161 430 -58 71
-104 109 -180 150 l-49 27 76 37 c150 73 305 114 611 161 60 10 118 21 130 25
19 8 47 -9 82 -50z m-871 -229 c95 -55 227 -206 276 -319 43 -97 59 -206 42
-290 -6 -28 -15 -35 -93 -67 -139 -59 -387 -126 -506 -137 l-30 -3 -17 83
c-11 56 -27 99 -49 133 -32 51 -110 119 -135 119 -30 0 -15 28 80 155 33 44
97 118 141 164 77 81 209 191 230 191 6 0 33 -13 61 -29z m-488 -541 c62 -45
98 -101 116 -180 24 -102 24 -100 -36 -100 -29 0 -69 5 -89 10 -69 19 -117
103 -105 182 8 50 42 118 60 118 7 0 32 -14 54 -30z"/>
<path d="M5135 9709 c-88 -11 -205 -46 -205 -60 0 -7 12 -9 33 -5 147 27 429
35 587 16 126 -16 290 -58 425 -110 61 -23 119 -44 130 -48 20 -5 20 -5 0 17
-49 56 -274 142 -462 176 -104 20 -407 28 -508 14z"/>
<path d="M6473 9495 c-95 -48 -172 -157 -173 -243 0 -35 6 -49 31 -74 28 -28
34 -30 80 -25 l51 6 132 -124 c175 -163 316 -312 388 -408 32 -44 99 -160 151
-265 51 -103 119 -226 150 -273 116 -175 320 -376 491 -487 140 -91 412 -202
533 -218 154 -20 275 86 260 229 -21 207 -222 561 -421 742 -164 149 -261 209
-559 341 -279 125 -348 167 -537 329 -58 50 -172 146 -255 214 l-150 124 3 51
c5 68 -17 96 -78 103 -35 3 -57 -1 -97 -22z m125 -42 c35 -61 -116 -253 -198
-253 -35 0 -50 17 -50 59 0 72 61 154 144 195 42 21 93 20 104 -1z m117 -205
c50 -39 155 -129 235 -198 138 -120 227 -193 264 -215 14 -9 8 -19 -47 -77
-36 -37 -73 -87 -83 -112 -11 -25 -21 -46 -24 -45 -3 0 -34 38 -69 83 -76 100
-235 265 -387 403 l-111 101 33 26 c18 14 45 44 61 66 15 22 30 40 33 40 3 0
46 -32 95 -72z m621 -486 c38 -20 148 -72 244 -115 96 -42 215 -100 264 -127
86 -48 215 -139 216 -151 0 -3 -17 -11 -38 -17 -165 -50 -433 -351 -445 -500
0 -12 -4 -22 -8 -22 -13 0 -141 142 -200 222 -65 88 -139 216 -225 389 l-57
115 34 69 c29 58 123 175 140 175 4 0 37 -17 75 -38z m842 -507 c100 -106 176
-219 247 -368 30 -64 55 -118 55 -121 0 -3 -10 -6 -23 -6 -37 0 -123 -48 -161
-90 -42 -47 -71 -101 -87 -164 -13 -54 -5 -54 -137 0 -170 70 -277 132 -408
237 l-62 49 12 51 c38 160 212 365 397 467 30 16 61 30 70 30 9 0 53 -38 97
-85z m321 -552 c7 -14 15 -54 18 -88 12 -135 -71 -203 -222 -181 -25 4 -49 14
-52 22 -9 23 28 123 63 169 22 28 55 54 95 74 76 38 83 38 98 4z"/>
<path d="M4898 9330 c-112 -23 -153 -37 -170 -57 -12 -15 -9 -16 32 -9 185 30
253 37 387 36 257 0 353 -15 666 -106 10 -3 17 0 17 9 0 19 -117 71 -220 97
-205 52 -541 66 -712 30z"/>
<path d="M4250 8632 c-101 -33 -181 -84 -265 -167 -45 -44 -96 -103 -115 -132
-32 -51 -33 -51 -53 -33 -23 22 -93 35 -139 26 -104 -20 -217 -111 -276 -223
-43 -81 -73 -202 -71 -277 l3 -60 -35 -3 c-19 -2 -66 -19 -105 -38 -119 -58
-229 -198 -249 -315 -14 -80 31 -162 109 -202 22 -11 42 -21 44 -23 1 -1 -10
-28 -24 -59 -33 -73 -54 -149 -54 -202 0 -47 25 -137 47 -171 17 -26 81 -63
109 -63 11 0 14 -5 9 -17 -18 -43 -35 -121 -35 -159 0 -110 68 -218 159 -251
41 -15 49 -23 74 -75 40 -82 133 -179 204 -212 1 -1 -2 -30 -6 -66 -10 -81 2
-130 42 -168 58 -54 148 -67 244 -34 l51 18 6 -29 c8 -40 68 -95 112 -103 49
-9 138 11 207 46 l57 29 62 -39 c33 -22 65 -40 70 -40 4 0 8 -22 8 -50 0 -27
-3 -50 -7 -50 -4 0 -41 10 -82 21 -94 27 -193 22 -296 -14 -173 -60 -309 -175
-474 -401 -63 -85 -321 -506 -321 -523 0 -23 20 -56 61 -99 l39 -40 -37 -41
c-56 -61 -90 -67 -323 -59 l-194 7 -61 63 c-37 39 -81 72 -115 88 -63 30 -181
58 -239 58 -36 0 -40 3 -50 33 -24 74 -42 173 -61 343 -36 316 -65 449 -136
622 -43 104 -99 197 -237 391 -159 223 -286 421 -297 462 -26 96 -137 127
-248 70 -86 -44 -121 -121 -88 -194 21 -48 52 -214 90 -482 42 -290 67 -411
111 -529 66 -173 168 -323 367 -533 61 -65 133 -152 160 -193 47 -71 118 -209
118 -229 0 -5 -26 -18 -57 -28 -61 -19 -150 -21 -465 -12 -126 4 -138 2 -165
-17 -91 -67 -51 -164 97 -233 36 -17 74 -31 84 -31 36 0 10 -9 -58 -20 -117
-19 -166 -56 -166 -126 0 -71 70 -128 182 -149 27 -5 38 -12 38 -25 0 -24 36
-67 71 -85 94 -49 430 -66 599 -31 194 40 370 118 466 208 l30 28 95 -24 c331
-88 610 -97 757 -25 74 36 168 127 232 222 24 37 45 67 48 67 2 0 12 -5 23
-11 32 -16 57 -1 96 57 20 30 38 53 40 51 2 -2 4 -46 5 -98 3 -299 -119 -753
-300 -1115 -75 -149 -147 -269 -306 -512 -147 -223 -202 -317 -255 -438 -91
-205 -91 -333 1 -430 l29 -31 -40 -83 -41 -83 -82 -27 c-136 -44 -323 -145
-443 -240 -219 -174 -262 -327 -115 -409 60 -33 236 -41 370 -16 210 38 623
182 810 282 181 97 224 145 224 252 0 36 -3 83 -7 103 -7 33 -5 38 10 38 29 1
104 38 150 76 58 48 145 182 313 484 204 368 480 934 480 985 0 9 31 14 105
19 58 4 169 21 247 37 l143 29 88 -92 c173 -181 303 -381 314 -482 4 -34 -11
-91 -81 -302 -48 -142 -96 -290 -107 -329 -31 -113 -24 -192 23 -242 l21 -23
-32 -44 c-93 -130 -134 -289 -96 -369 22 -46 65 -67 220 -106 489 -122 1005
-162 1232 -96 64 19 123 67 123 101 0 148 -294 324 -684 409 l-28 6 44 28 c42
27 94 83 130 141 31 50 107 237 151 370 116 349 120 577 12 792 -71 140 -250
394 -442 624 -56 67 -122 149 -147 184 l-46 62 0 237 c0 204 -17 494 -35 598
l-6 33 83 -51 c108 -66 281 -149 311 -149 26 0 66 39 91 88 9 17 19 32 22 32
3 0 58 -10 122 -21 382 -69 867 87 1263 407 66 53 86 64 117 64 55 0 218 28
292 50 187 56 435 219 536 354 74 97 97 156 91 229 -4 54 -1 66 20 95 79 105
91 203 33 255 -35 31 -101 37 -138 12 -22 -16 -22 -16 -16 28 16 113 -86 182
-185 126 -21 -11 -70 -60 -111 -107 -133 -157 -221 -235 -312 -280 -83 -41
-138 -58 -213 -64 l-40 -3 -6 95 c-6 101 -30 173 -72 218 -51 55 -128 69 -164
30 -38 -42 -45 -69 -53 -212 -5 -83 -15 -161 -25 -191 -9 -27 -20 -93 -23
-144 l-7 -95 -155 -54 c-308 -107 -510 -143 -680 -121 -66 8 -88 15 -105 33
-11 12 -55 35 -96 51 -176 66 -274 112 -441 206 -98 55 -225 122 -282 149 -99
47 -257 100 -297 100 -28 0 -23 12 17 39 51 35 130 134 170 213 93 184 100
447 18 684 -14 44 -38 103 -53 132 l-26 52 66 68 c81 83 103 138 97 241 -8
153 -130 236 -307 211 -38 -5 -76 -12 -85 -16 -13 -5 -16 1 -16 32 0 89 -98
223 -190 263 -46 20 -50 24 -46 52 3 31 -8 112 -19 141 -5 12 1 18 24 23 46
10 113 67 150 129 79 132 41 275 -97 366 l-23 15 16 69 c18 78 14 127 -17 194
-83 177 -367 211 -599 72 l-63 -38 -21 31 c-11 17 -42 45 -69 62 -42 25 -61
30 -125 32 -52 2 -93 -3 -131 -15z m198 -37 c47 -20 79 -50 103 -97 11 -21 23
-38 27 -38 4 0 29 15 55 34 66 47 166 85 259 99 184 27 330 -56 345 -197 6
-53 -11 -133 -35 -160 -19 -21 -19 -22 70 -76 99 -61 129 -176 73 -279 -33
-61 -68 -95 -117 -116 l-38 -15 -21 42 c-12 24 -39 69 -61 101 -36 54 -38 60
-24 76 21 23 21 71 0 71 -9 0 -18 -9 -21 -19 -17 -64 -178 -106 -235 -62 -15
12 -28 31 -30 44 -6 40 -33 31 -45 -15 -15 -56 -68 -117 -129 -148 -81 -41
-238 -39 -296 4 -15 11 -16 17 -6 44 9 23 9 35 1 43 -8 8 -22 -6 -53 -50 -88
-125 -193 -181 -357 -189 -95 -4 -119 -11 -93 -27 6 -4 20 -25 32 -48 31 -59
32 -203 3 -261 -30 -59 -84 -98 -145 -104 -66 -6 -65 -25 3 -56 112 -49 229
-189 269 -319 26 -88 22 -198 -11 -272 -24 -53 -57 -95 -76 -95 -7 0 -35 30
-63 66 -59 77 -101 108 -166 125 -184 46 -345 -111 -334 -326 2 -41 2 -75 0
-75 -16 0 -66 36 -85 62 -52 69 -60 177 -22 278 24 64 24 84 0 88 -102 16
-145 64 -153 171 -5 79 13 151 64 253 19 37 34 70 34 73 0 3 -13 5 -28 5 -44
0 -113 41 -134 80 -24 44 -19 119 12 181 56 108 202 218 300 224 l45 3 6 94
c10 155 53 271 137 360 80 86 191 133 252 108 40 -17 50 -31 59 -87 6 -37 10
-43 15 -28 38 102 86 175 171 261 154 154 323 219 443 169z m368 -690 c38 -20
123 -19 174 1 23 9 42 15 44 13 1 -2 17 -25 35 -51 l32 -48 -36 0 c-44 0 -134
-31 -175 -60 -38 -27 -40 -63 -5 -86 17 -11 29 -13 38 -7 45 37 211 59 228 31
12 -19 29 -103 29 -142 0 -31 -2 -32 -39 -33 -99 -2 -204 -68 -252 -157 -13
-25 -28 -46 -32 -46 -4 0 -27 10 -50 21 -58 30 -159 37 -225 15 -107 -36 -187
-126 -218 -245 -39 -154 37 -310 185 -380 76 -35 200 -37 275 -3 101 46 169
121 192 212 11 43 13 45 43 42 44 -5 95 14 176 64 199 123 386 164 498 110 45
-22 84 -84 93 -147 14 -102 -76 -235 -199 -293 -114 -53 -292 -72 -407 -42
-57 15 -81 6 -59 -21 35 -41 304 -43 414 -4 33 12 68 25 77 28 32 10 104 -166
132 -322 18 -99 13 -275 -9 -365 -50 -203 -200 -370 -401 -446 -239 -91 -594
-65 -863 62 -123 58 -200 110 -289 198 -91 88 -145 166 -189 271 -19 44 -38
84 -44 89 -14 16 -28 -5 -38 -58 -17 -92 -83 -132 -205 -124 -89 6 -150 34
-225 104 -182 168 -188 452 -12 548 104 56 198 25 301 -100 33 -41 67 -74 76
-74 27 0 72 29 97 62 44 58 61 124 61 233 0 116 -24 192 -93 294 -38 56 -145
161 -164 161 -5 0 11 15 35 33 66 49 98 121 98 216 -1 44 -8 97 -18 126 l-17
50 77 11 c99 15 194 59 262 124 l53 50 46 -25 c123 -69 326 -28 419 85 18 22
36 40 39 40 4 0 20 -7 35 -15z m452 -457 c69 -33 131 -123 146 -215 l7 -41
-93 -46 c-51 -26 -122 -62 -157 -82 -50 -27 -74 -34 -105 -32 -38 3 -41 5 -48
41 -10 50 -51 128 -90 172 -31 36 -31 37 -15 70 66 138 221 197 355 133z
m-499 -144 c129 -38 236 -224 202 -350 -25 -93 -102 -162 -216 -192 -54 -14
-73 -15 -122 -4 -157 33 -257 179 -225 330 37 176 190 267 361 216z m-3224
-879 c45 -44 25 -88 -58 -126 -48 -21 -146 -26 -165 -7 -17 17 -15 64 5 95 23
35 87 63 146 63 38 0 53 -5 72 -25z m158 -272 c58 -87 146 -216 197 -288 95
-134 162 -243 174 -282 9 -30 -31 -81 -106 -134 -108 -76 -246 -125 -380 -136
l-77 -6 -15 54 c-30 103 -55 235 -86 454 -17 121 -40 260 -51 310 -10 49 -19
93 -19 97 0 4 24 8 53 8 51 0 127 28 172 64 11 8 23 16 26 16 4 0 54 -71 112
-157z m2376 -263 c14 -19 61 -72 105 -117 l79 -83 -48 -21 c-60 -27 -154 -36
-194 -19 -36 15 -61 63 -61 119 0 46 -16 53 -45 21 -31 -34 -97 -53 -170 -48
-55 3 -70 8 -93 31 -24 25 -27 35 -27 96 0 38 2 72 5 75 3 3 26 0 50 -5 25 -6
75 -9 111 -7 78 4 152 43 178 94 l16 32 35 -67 c19 -36 46 -82 59 -101z m4705
28 c55 -78 -50 -237 -276 -419 l-101 -80 -33 32 c-41 40 -57 31 -23 -14 34
-45 127 -187 132 -201 8 -23 83 31 208 152 136 129 158 141 195 101 67 -74
-66 -281 -267 -417 -115 -77 -250 -141 -352 -167 -92 -23 -264 -48 -276 -40
-4 2 -38 -22 -76 -52 -249 -200 -565 -352 -850 -409 -183 -37 -470 -17 -633
44 l-47 18 2 67 c5 159 74 341 167 443 l52 57 70 -18 c89 -23 288 -31 396 -16
135 19 334 81 560 173 l58 23 0 95 c0 73 5 110 22 155 16 46 23 95 28 205 4
80 8 146 9 147 26 39 68 42 109 8 48 -40 65 -89 72 -201 3 -62 11 -108 19
-118 17 -21 97 -21 176 -1 150 39 271 125 403 283 122 146 152 172 202 172 29
0 43 -6 54 -22z m194 -157 c23 -27 8 -96 -32 -157 -35 -52 -38 -54 -70 -49
-51 10 -95 -15 -182 -104 -43 -45 -104 -102 -135 -126 l-56 -44 -32 51 c-18
28 -28 54 -24 59 4 4 33 27 64 51 31 24 123 106 205 182 82 76 163 145 179
152 34 15 64 10 83 -15z m-4353 -252 c208 -71 452 -88 658 -46 12 2 33 -72 42
-153 17 -148 -61 -263 -206 -304 -69 -20 -101 -20 -196 0 -97 20 -206 73 -288
141 -55 45 -72 68 -111 146 -25 50 -57 106 -70 124 -29 39 -31 53 -4 28 28
-26 36 -12 31 57 -3 56 -2 60 15 53 11 -5 69 -25 129 -46z m1002 20 c151 -48
252 -95 455 -212 198 -114 304 -166 430 -212 l78 -28 -64 -68 c-74 -78 -134
-191 -168 -314 -17 -63 -22 -109 -22 -222 -1 -79 -3 -143 -5 -143 -9 0 -178
94 -247 136 l-72 45 -17 92 c-35 183 -133 465 -142 410 -3 -12 9 -71 25 -130
86 -312 132 -646 132 -949 0 -120 -2 -143 -16 -148 -38 -15 -40 -10 -42 162
-5 362 -58 675 -163 979 -70 200 -202 445 -301 558 l-36 40 27 17 c35 23 37
22 148 -13z m-3487 -113 c49 -145 73 -283 106 -621 5 -53 3 -64 -17 -89 -35
-44 -93 -66 -174 -65 l-70 0 -123 138 c-152 170 -226 267 -279 368 -66 125
-67 119 29 126 168 12 355 94 457 201 19 20 36 34 38 32 2 -2 17 -43 33 -90z
m3390 -63 c103 -155 213 -409 274 -634 59 -217 106 -565 106 -778 l0 -107 -58
1 c-49 0 -65 -5 -95 -27 -44 -34 -49 -35 -41 -4 8 32 -13 374 -32 510 -46 340
-113 579 -267 952 -42 99 -77 189 -79 199 -2 13 7 21 32 31 34 12 36 12 71
-27 20 -21 60 -74 89 -116z m-1195 107 c134 -65 321 -535 385 -968 25 -169 44
-518 35 -629 -4 -46 -8 -83 -10 -83 -1 0 -19 7 -40 16 -31 13 -46 13 -86 4
-26 -7 -53 -18 -60 -26 -6 -8 -15 -14 -19 -14 -4 0 -9 105 -9 233 -4 715 -137
1255 -360 1465 l-24 22 73 0 c53 0 85 -6 115 -20z m-193 -40 c159 -139 283
-536 327 -1045 14 -161 24 -635 14 -635 -29 0 -171 48 -243 81 -125 59 -120
51 -121 193 0 67 -3 139 -7 161 -7 34 -2 52 29 120 75 163 129 364 129 483 0
83 -17 54 -45 -75 -13 -60 -39 -159 -59 -219 -35 -104 -147 -347 -180 -389
-15 -19 -15 -19 -16 11 -1 90 -144 269 -296 370 -91 61 -214 117 -293 136
l-51 11 23 31 c13 17 68 103 122 191 180 290 285 421 412 512 52 37 180 102
204 103 3 0 27 -18 51 -40z m1241 -197 c3 -10 23 -61 45 -113 149 -364 226
-751 239 -1206 l6 -212 -49 -10 c-178 -38 -517 -49 -721 -23 -94 12 -103 15
-103 35 -2 609 -12 750 -75 1031 -22 97 -78 285 -111 368 -4 13 18 2 70 -32
213 -138 428 -146 586 -21 45 35 90 119 90 167 0 35 14 45 23 16z m-3061 -723
c17 -47 56 -139 86 -205 39 -85 52 -123 45 -134 -22 -34 -64 -55 -121 -59
l-59 -4 -57 128 c-63 141 -150 310 -172 335 -8 8 -14 18 -14 21 0 3 30 11 66
18 71 12 131 38 155 66 13 15 15 12 27 -32 7 -27 27 -87 44 -134z m1071 60
c26 -7 47 -15 47 -19 -1 -3 -12 -19 -25 -36 l-25 -30 -41 41 c-38 38 -46 68
-16 60 7 -2 33 -10 60 -16z m182 -81 c162 -93 264 -188 320 -299 l23 -46 -66
-98 c-78 -117 -171 -215 -231 -245 -57 -30 -160 -51 -246 -51 -124 0 -349 33
-512 76 l-61 17 5 33 c4 22 2 34 -6 34 -6 0 -11 -6 -11 -14 0 -22 -124 -132
-194 -171 -189 -105 -453 -153 -696 -126 -185 21 -245 48 -238 108 5 47 51 62
234 73 87 5 177 14 198 20 28 9 46 9 63 1 62 -28 57 -2 -17 84 -33 39 -73 89
-88 113 l-27 44 -60 -9 c-139 -19 -356 7 -448 53 -114 57 -116 142 -4 161 19
3 90 -2 157 -12 162 -23 308 -17 404 16 l70 24 48 -98 c45 -91 47 -100 33
-120 -46 -66 24 -147 127 -147 73 0 137 28 194 85 85 84 95 166 29 224 -19 16
-50 33 -68 36 -32 6 -36 12 -79 113 -70 166 -72 152 19 137 136 -22 213 -62
287 -148 l46 -55 93 -3 c183 -8 362 -3 400 10 40 14 136 116 179 191 13 22 25
40 28 40 3 0 46 -23 95 -51z m2861 -80 c24 -6 44 -14 44 -18 0 -3 -11 -23 -25
-44 -29 -42 -52 -48 -59 -14 -12 56 -15 87 -10 87 3 0 25 -5 50 -11z m-3895
-228 c35 -35 36 -64 6 -113 -41 -68 -113 -108 -196 -108 -67 0 -100 26 -86 66
9 26 17 30 64 36 29 3 71 14 92 24 44 19 84 75 76 104 -7 28 10 25 44 -9z
m-486 -254 c28 -40 51 -75 53 -78 6 -13 -116 -29 -219 -29 -128 0 -195 -13
-244 -46 -42 -28 -46 -29 -114 -8 -140 41 -131 144 15 172 33 6 133 18 224 27
91 8 179 19 195 24 17 5 32 9 35 10 3 0 28 -32 55 -72z m2275 -181 c42 -14 95
-28 118 -32 l42 -7 -6 -46 c-12 -91 40 -189 109 -207 76 -18 172 47 205 138
17 49 18 50 52 44 98 -16 331 -28 455 -23 129 6 309 28 349 43 12 5 16 0 16
-22 0 -16 9 -48 20 -71 70 -156 277 -72 283 115 1 37 7 61 17 69 13 10 16 -1
20 -80 5 -91 6 -94 52 -157 25 -36 88 -114 138 -175 51 -60 136 -168 189 -240
199 -266 283 -410 316 -540 24 -94 24 -256 1 -365 -38 -180 -162 -520 -227
-621 -77 -120 -173 -163 -359 -163 -174 1 -327 38 -431 104 -109 71 -107 113
26 510 120 361 121 365 53 501 -58 115 -147 235 -267 358 -50 52 -90 95 -89
95 2 1 42 15 90 32 47 16 86 34 85 39 -3 14 -31 10 -177 -25 -141 -33 -365
-75 -455 -85 -103 -11 -115 -21 -159 -127 -98 -238 -400 -822 -591 -1143 -100
-169 -155 -234 -227 -266 -47 -21 -67 -24 -178 -23 -194 0 -367 53 -495 151
-193 149 -151 328 201 863 293 445 401 659 507 1010 34 112 78 304 91 402 l7
47 72 -39 c40 -21 106 -49 147 -64z m1578 14 c27 -40 28 -91 3 -145 -24 -52
-50 -74 -94 -82 -32 -5 -41 -1 -72 30 -31 31 -35 41 -35 86 0 81 38 137 102
150 45 10 69 0 96 -39z m-1188 -17 c106 -95 -34 -307 -149 -227 -45 32 -66
129 -38 184 35 69 133 91 187 43z m-1393 -2293 c109 -69 270 -116 435 -126
l107 -7 6 -73 c9 -91 -4 -133 -55 -177 -109 -93 -491 -250 -835 -343 -118 -32
-324 -44 -403 -24 -102 25 -131 101 -74 191 83 129 345 307 567 385 l80 27 65
-30 c61 -29 147 -53 190 -53 25 0 26 18 3 27 -83 29 -173 65 -188 77 -19 14
-19 16 15 85 18 39 35 71 37 71 1 0 24 -14 50 -30z m2398 -14 c105 -49 235
-77 370 -79 66 -1 141 2 168 6 62 11 62 -5 -3 -45 -27 -17 -50 -35 -50 -39 0
-30 72 -8 115 35 l26 26 66 -16 c329 -76 603 -231 603 -341 0 -59 -195 -99
-435 -89 -188 8 -236 13 -409 37 -288 41 -594 113 -630 148 -49 49 -21 193 61
319 26 40 50 71 53 69 3 -2 32 -16 65 -31z"/>
<path d="M4370 7588 c-113 -56 -191 -157 -206 -265 -7 -54 6 -93 31 -93 8 0
17 12 21 28 23 111 80 181 194 241 86 46 114 74 100 101 -16 30 -66 25 -140
-12z"/>
<path d="M4531 6543 c-50 -25 -74 -86 -69 -177 9 -177 166 -367 363 -442 93
-35 239 -43 340 -20 127 30 251 115 326 224 99 140 89 334 -18 371 -38 14 -50
13 -150 -9 -131 -28 -291 -37 -373 -21 -33 7 -119 30 -192 51 -146 44 -177 47
-227 23z m224 -74 c218 -66 352 -75 533 -38 161 32 208 16 142 -50 -85 -85
-394 -115 -630 -62 -157 35 -280 93 -280 130 0 59 84 66 235 20z m69 -305 c98
-25 190 -79 252 -148 63 -70 61 -74 -42 -75 -149 -2 -270 46 -376 150 -38 37
-68 71 -68 78 0 17 161 14 234 -5z"/>
<path d="M3541 6443 c-35 -33 -50 -73 -28 -73 9 0 24 12 35 27 27 37 85 37
142 -1 40 -26 51 -46 27 -46 -24 0 -49 -38 -54 -82 -6 -51 10 -98 33 -98 14 0
15 8 9 56 -5 44 -3 59 10 74 24 26 53 15 57 -23 4 -38 25 -47 33 -14 15 56
-62 160 -141 193 -52 22 -90 17 -123 -13z"/>
<path d="M5130 7264 c-18 -21 -17 -72 3 -91 24 -24 76 -21 99 6 22 28 23 50 2
79 -18 27 -84 31 -104 6z"/>
<path d="M4680 7130 c-41 -41 -10 -110 48 -110 37 0 62 28 62 68 0 56 -70 82
-110 42z"/>
<path d="M8054 5196 c-78 -19 -154 -82 -154 -129 0 -16 9 -12 49 26 57 53 117
75 234 84 50 4 76 10 74 17 -5 16 -142 17 -203 2z"/>
<path d="M1707 7888 c-103 -138 -230 -444 -276 -664 -39 -188 -52 -396 -27
-421 13 -13 26 21 26 71 0 67 27 241 55 361 44 187 100 335 200 535 36 71 65
134 65 140 0 20 -19 10 -43 -22z"/>
<path d="M2078 7777 c-63 -68 -183 -306 -242 -480 -60 -178 -106 -407 -106
-532 0 -96 22 -59 47 80 54 293 129 528 249 774 46 96 82 176 80 179 -3 2 -15
-7 -28 -21z"/>
<path d="M8000 7145 c0 -3 9 -41 20 -83 71 -279 61 -583 -29 -871 -11 -36 -18
-67 -16 -69 36 -37 114 207 136 428 17 170 -13 417 -65 541 -14 33 -46 71 -46
54z"/>
<path d="M8420 7128 c0 -8 8 -61 17 -119 12 -76 17 -166 17 -339 0 -254 -14
-373 -69 -583 -29 -113 -29 -117 -11 -117 30 0 95 235 121 433 26 204 13 476
-32 654 -14 59 -43 106 -43 71z"/>
</g>
</svg>
