<?xml version="1.0" standalone="no"?>
<!DOCTYPE svg PUBLIC "-//W3C//DTD SVG 20010904//EN"
 "http://www.w3.org/TR/2001/REC-SVG-20010904/DTD/svg10.dtd">
<svg version="1.0" xmlns="http://www.w3.org/2000/svg"
 width="1024.000000pt" height="1024.000000pt" viewBox="0 0 1024.000000 1024.000000"
 preserveAspectRatio="xMidYMid meet">
<metadata>
Created by potrace 1.16, written by Peter Selinger 2001-2019
</metadata>
<g transform="translate(0.000000,1024.000000) scale(0.100000,-0.100000)"
fill="#000000" stroke="none">
<path d="M4710 9690 c-283 -28 -655 -142 -959 -294 -61 -31 -113 -56 -115 -56
-3 0 6 31 20 70 28 81 30 110 9 150 -66 127 -325 33 -408 -148 -33 -72 -30
-187 7 -269 l29 -63 -60 -64 c-33 -35 -75 -82 -93 -104 -29 -37 -37 -41 -93
-47 -89 -9 -214 -41 -312 -80 -231 -91 -405 -260 -484 -470 -29 -76 -39 -220
-21 -296 20 -87 76 -183 141 -243 72 -67 193 -129 294 -151 l75 -17 0 -88 c0
-49 3 -95 6 -104 4 -10 -7 -21 -37 -36 -61 -32 -133 -110 -171 -187 -30 -62
-33 -77 -37 -179 -4 -129 10 -189 67 -298 45 -86 116 -164 198 -218 l63 -42
-32 -19 c-87 -52 -128 -120 -107 -181 35 -108 179 -135 378 -72 20 7 22 4 22
-29 0 -65 48 -126 110 -140 l29 -6 -80 -107 c-88 -116 -155 -225 -225 -363
-203 -405 -469 -1263 -450 -1449 8 -74 8 -87 0 -216 -7 -124 6 -265 36 -393
26 -107 85 -262 214 -563 58 -136 106 -260 106 -277 0 -46 -143 -172 -445
-391 -256 -184 -270 -201 -263 -304 l4 -62 -80 -44 c-88 -50 -203 -155 -255
-235 -45 -70 -75 -174 -68 -235 25 -206 301 -517 611 -689 221 -122 539 -181
823 -152 302 31 472 152 490 351 15 163 -85 338 -238 415 -105 54 -190 69
-374 70 -101 0 -173 4 -177 10 -4 6 -8 25 -8 42 0 27 4 34 28 39 39 10 158 71
223 115 166 113 448 372 550 507 121 160 151 298 114 518 -22 128 -102 395
-170 565 -5 14 6 17 72 23 43 3 114 15 158 25 l80 19 95 -55 c234 -138 456
-293 730 -513 80 -64 159 -126 176 -138 24 -16 36 -38 53 -94 113 -364 367
-1114 384 -1134 27 -31 86 -45 154 -37 61 7 52 25 82 -177 36 -243 71 -316
173 -360 147 -63 484 -10 571 90 31 36 34 37 121 44 181 13 398 77 587 172
224 112 355 220 412 341 28 60 32 78 31 148 -2 135 -63 250 -174 328 -79 55
-161 77 -284 77 -165 0 -309 -45 -489 -154 -84 -50 -189 -89 -292 -109 l-30
-5 0 81 c0 81 -2 86 -99 327 -210 523 -294 706 -377 827 -123 179 -675 619
-1090 869 -60 36 -109 67 -109 70 0 3 6 15 14 27 9 13 19 73 26 147 13 151 32
282 65 455 29 149 80 374 87 381 3 2 90 9 194 14 297 15 631 63 948 136 l110
25 68 -22 c52 -16 80 -20 121 -15 62 8 138 41 185 80 29 25 41 28 120 30 106
3 171 26 278 98 90 60 158 139 249 290 37 59 70 110 75 113 4 2 61 18 126 35
66 17 165 46 221 65 86 30 106 33 130 24 85 -33 217 -28 293 11 45 24 102 84
128 136 19 38 25 42 71 47 124 15 257 120 324 257 21 41 49 120 64 175 25 94
26 117 31 384 6 407 -19 643 -89 820 -71 182 -192 260 -282 181 l-34 -30 -28
51 c-54 100 -129 161 -211 175 -51 8 -107 -9 -132 -40 -13 -17 -23 -21 -37
-15 -64 25 -134 -2 -184 -71 -71 -98 -70 -217 8 -587 16 -78 33 -179 37 -225
l7 -83 -59 54 c-147 135 -325 148 -383 28 -45 -93 -21 -193 83 -345 40 -59 89
-135 109 -170 l37 -63 -19 -38 c-19 -37 -24 -39 -128 -69 -59 -17 -149 -40
-199 -51 -50 -11 -98 -23 -108 -27 -19 -7 -19 8 10 236 8 63 17 167 21 231 13
250 -62 387 -215 392 -42 2 -53 7 -84 39 -85 91 -210 87 -258 -7 -13 -26 -20
-30 -49 -27 -81 8 -180 -67 -236 -179 -95 -186 -155 -476 -155 -746 l0 -113
-252 0 -251 0 69 73 c112 116 184 237 226 384 20 68 23 100 22 248 0 141 -4
183 -22 247 -25 93 -79 211 -132 294 l-40 60 0 260 c0 231 -13 433 -36 564
l-6 35 69 18 c84 21 157 74 191 137 34 63 27 150 -16 217 -35 54 -119 138
-174 175 l-38 25 40 53 c22 29 54 90 72 134 31 77 33 87 33 216 0 135 0 135
-36 210 -100 207 -335 312 -689 309 -69 -1 -159 -5 -200 -9z m383 -95 c223
-34 370 -120 430 -254 26 -58 34 -191 17 -270 -14 -66 -67 -170 -114 -224
l-33 -39 -79 25 c-145 46 -299 57 -505 37 -529 -53 -1067 -278 -1549 -651
-181 -139 -386 -356 -461 -486 -17 -29 -34 -55 -38 -58 -29 -18 -241 81 -317
148 -283 249 -130 689 310 893 73 33 291 93 302 82 2 -3 -3 -21 -12 -41 -16
-34 -14 -67 4 -67 4 0 43 42 86 94 365 445 939 734 1621 819 76 10 249 6 338
-8z m-1494 -95 c2 -14 -11 -70 -29 -125 l-32 -100 -87 -63 c-78 -56 -87 -61
-99 -45 -36 49 -42 157 -11 219 38 80 139 146 214 142 34 -3 41 -7 44 -28z
m1630 -726 c131 -18 180 -40 296 -127 176 -132 180 -258 10 -339 -91 -43 -97
-41 -110 36 l-6 38 51 -7 c50 -7 52 -6 48 16 -5 35 -68 65 -178 86 -133 25
-551 25 -725 0 -547 -80 -1149 -331 -1527 -636 -42 -34 -120 -107 -173 -163
-100 -106 -117 -109 -71 -13 75 160 335 420 594 593 120 81 312 192 465 268
461 231 885 311 1326 248z m111 -374 c12 -19 37 -142 61 -300 20 -128 23 -186
23 -482 l1 -338 28 -25 c41 -38 106 -175 134 -284 21 -79 26 -119 26 -226 0
-154 -20 -239 -82 -363 -71 -141 -154 -231 -303 -331 -347 -233 -865 -247
-1291 -36 -239 119 -441 304 -543 498 -19 37 -39 67 -42 65 -138 -72 -167 -82
-252 -86 -180 -9 -341 76 -442 232 -78 120 -102 292 -57 410 42 114 158 204
274 214 125 10 223 -53 329 -212 32 -46 65 -91 75 -101 18 -15 21 -15 58 3 88
46 141 137 175 300 18 85 19 121 14 297 -3 111 -12 236 -20 280 -9 44 -16 83
-16 86 0 11 178 99 314 154 363 148 608 212 951 251 152 17 573 13 585 -6z
m-1906 -463 c13 -69 25 -236 26 -342 0 -220 -34 -381 -97 -454 -19 -23 -38
-41 -42 -41 -4 0 -34 41 -66 90 -112 174 -219 245 -362 238 -56 -2 -73 0 -73
10 0 43 154 213 290 322 77 61 295 208 311 210 4 0 10 -15 13 -33z m4404 -96
c123 -63 204 -241 238 -521 11 -98 19 -310 12 -310 -2 0 -21 7 -43 15 -22 8
-63 14 -91 15 l-51 0 -6 138 c-12 240 -72 466 -165 615 -17 28 -16 29 7 48 29
24 52 24 99 0z m-208 -56 c90 -47 171 -283 205 -600 19 -171 23 -178 101 -189
74 -11 154 -35 203 -62 71 -39 98 -27 40 19 l-32 24 -2 189 c-3 190 -18 313
-50 409 -15 43 -15 47 5 75 29 41 68 40 115 -2 113 -99 174 -409 175 -886 0
-396 -81 -641 -244 -737 -82 -48 -124 -58 -256 -59 -72 -1 -127 -5 -130 -11
-5 -9 71 -38 133 -50 l28 -6 -26 -33 c-62 -81 -165 -118 -268 -96 -133 27
-233 106 -290 228 -28 61 -31 75 -32 172 0 79 4 112 16 134 l16 29 58 -87 c58
-88 151 -176 188 -176 24 0 22 5 -27 68 -60 79 -122 177 -200 317 -37 66 -93
156 -125 200 -77 105 -102 156 -108 221 -5 49 -4 55 26 85 29 28 37 31 76 27
139 -16 256 -144 351 -383 14 -35 17 -38 24 -20 14 33 10 77 -11 135 -16 45
-20 86 -22 225 -3 152 -7 190 -42 355 -48 233 -53 349 -17 423 21 41 59 75 85
77 4 0 21 -7 37 -15z m-1129 -707 c21 -14 45 -46 64 -83 26 -52 30 -73 33
-161 4 -109 -16 -307 -49 -463 -10 -52 -19 -117 -19 -146 l0 -52 -102 -10
c-57 -5 -106 -7 -110 -4 -12 11 13 205 52 401 53 264 53 342 -4 471 -4 9 2 26
14 42 27 34 74 36 121 5z m216 -88 c42 -25 70 -81 83 -166 12 -74 8 -143 -18
-349 -25 -192 -22 -593 4 -690 26 -94 47 -96 54 -5 4 55 10 73 38 107 63 80
164 142 229 143 20 0 43 -9 60 -24 25 -22 28 -30 27 -83 -1 -71 -5 -78 -114
-223 -47 -63 -115 -157 -150 -209 -84 -123 -145 -189 -228 -245 -142 -97 -282
-114 -452 -56 -110 38 -136 30 -69 -20 24 -18 61 -40 82 -50 l38 -17 -38 -24
c-58 -36 -154 -39 -219 -6 -138 70 -213 234 -201 440 5 93 22 150 58 196 17
22 19 22 19 4 0 -35 39 -174 64 -229 31 -68 76 -128 88 -116 5 5 -4 50 -21
103 -48 156 -75 318 -90 529 -19 281 23 587 108 790 90 215 228 278 270 125
18 -65 13 -108 -31 -320 -38 -180 -43 -214 -43 -342 0 -78 3 -144 6 -147 5 -5
310 30 337 39 17 6 15 25 -2 25 -26 0 -27 17 -6 117 63 292 86 564 57 671 -14
51 -14 52 7 52 12 0 35 -9 53 -20z m-3382 -540 c9 -29 115 -168 164 -215 22
-21 41 -42 41 -45 0 -3 -19 -11 -42 -18 -23 -7 -72 -31 -108 -53 -85 -50 -152
-61 -191 -31 -28 22 -49 80 -49 133 0 61 -8 64 -101 34 -107 -34 -200 -38
-250 -9 -18 11 -35 28 -37 38 -5 25 39 78 95 114 45 29 51 30 93 21 77 -18
236 -6 305 23 75 32 72 32 80 8z m3900 -267 c0 -38 3 -87 8 -110 7 -44 -6 -61
-18 -22 -10 29 -64 59 -108 59 l-38 0 3 41 3 41 75 28 c41 16 75 29 75 29 0 1
0 -29 0 -66z m-182 -35 l14 -33 -60 -30 c-32 -17 -85 -54 -118 -83 l-59 -53 0
95 c0 53 3 96 8 97 4 0 43 9 87 18 113 25 113 25 128 -11z m-3343 -95 c55 -36
100 -69 100 -73 0 -4 -30 3 -66 16 -87 32 -143 45 -234 53 -71 6 -74 7 -50 21
14 7 52 21 85 31 33 9 61 17 63 18 1 1 47 -29 102 -66z m-206 -69 c11 -4 0
-17 -42 -48 -32 -24 -79 -67 -105 -97 -47 -53 -117 -181 -117 -212 0 -27 -15
-20 -74 34 l-56 51 49 71 c27 40 74 102 105 140 l56 67 84 0 c47 0 91 -3 100
-6z m2394 -107 l8 -78 -41 -42 c-22 -23 -47 -52 -55 -63 -13 -18 -28 -23 -94
-27 l-78 -6 5 47 c4 26 9 95 13 154 l7 107 111 3 c68 2 112 -1 114 -7 1 -5 6
-45 10 -88z m1388 48 c15 -31 52 -78 81 -106 30 -28 53 -52 51 -54 -6 -6 -261
-85 -264 -82 -2 1 13 23 33 47 59 74 76 122 68 191 -4 32 -4 59 -1 59 3 0 18
-25 32 -55z m-1927 -27 c0 -40 -6 -113 -12 -163 l-12 -90 -55 -7 c-30 -3 -88
-6 -129 -7 l-73 -1 6 31 c3 17 6 73 7 123 l0 91 92 47 c64 32 105 47 135 47
l42 1 -1 -72z m-1663 38 c38 -13 98 -37 134 -53 l65 -29 -65 -35 c-41 -21 -97
-66 -151 -119 -73 -72 -93 -100 -132 -180 -34 -70 -51 -120 -62 -188 -9 -52
-14 -100 -11 -108 9 -23 -7 -16 -85 37 -125 86 -129 91 -129 174 0 85 29 208
66 274 14 27 47 72 72 101 48 55 182 150 212 150 9 0 48 -11 86 -24z m369 -71
c28 -10 55 -23 60 -29 6 -6 24 -12 40 -12 17 -1 84 -11 150 -23 66 -11 135
-21 153 -21 35 0 37 -6 21 -64 -11 -38 -11 -38 -52 -33 -60 8 -292 107 -424
180 -117 64 -156 99 -55 49 31 -16 80 -37 107 -47z m773 -113 c2 -30 -4 -54
-19 -82 -13 -22 -25 -40 -29 -40 -10 0 2 155 14 162 21 14 31 2 34 -40z m-88
-48 l0 -74 -32 0 c-34 0 -150 17 -181 26 -16 5 -16 7 2 30 11 14 23 38 26 54
4 20 14 32 28 35 27 6 139 11 150 7 4 -2 7 -37 7 -78z m-519 -30 c63 -25 118
-48 122 -51 5 -3 -10 -24 -33 -46 -127 -129 -198 -322 -188 -513 3 -56 1 -84
-6 -84 -23 0 -136 30 -229 60 l-97 31 0 82 c0 147 50 290 144 415 41 53 147
150 167 152 4 0 58 -21 120 -46z m1534 -196 c0 -162 30 -257 117 -380 7 -9 10
-19 7 -22 -3 -3 -56 -16 -118 -29 l-113 -24 -25 53 c-36 79 -56 187 -49 269 6
69 26 165 47 217 11 27 11 27 114 36 19 2 20 -4 20 -120z m-185 99 c0 -1 -9
-28 -19 -58 -52 -146 -43 -347 20 -471 11 -21 16 -38 11 -38 -4 0 -75 -11
-158 -25 -82 -14 -154 -25 -160 -25 -16 0 -35 81 -41 181 -8 125 37 369 77
412 10 11 270 34 270 24z m-678 -27 l97 0 -34 -51 c-19 -28 -47 -87 -62 -132
-24 -73 -27 -97 -27 -222 0 -77 5 -157 11 -177 l11 -38 -56 -2 c-109 -3 -334
1 -340 6 -2 3 -7 47 -10 99 -8 166 39 331 133 463 l48 67 66 -7 c36 -3 110 -6
163 -6z m-1900 -191 c64 -50 137 -87 248 -127 47 -16 112 -47 145 -67 290
-177 792 -315 1148 -315 88 0 98 -2 95 -17 -4 -24 -37 -38 -138 -60 -131 -28
-584 -25 -765 5 -374 61 -675 178 -840 325 l-54 48 19 50 c32 80 84 199 87
199 2 0 27 -18 55 -41z m-112 -662 c165 -91 448 -176 725 -217 262 -40 682
-37 883 4 34 8 62 11 62 8 0 -6 -29 -167 -35 -198 -5 -24 -90 -52 -240 -80
-140 -25 -523 -31 -705 -9 -279 32 -507 93 -695 185 -122 61 -235 143 -235
172 0 19 57 225 67 240 2 4 27 -10 56 -31 29 -21 81 -54 117 -74z m-191 -586
c291 -175 829 -273 1267 -230 180 17 394 68 483 113 16 9 31 16 33 16 2 0 3
-26 3 -57 0 -56 -1 -59 -37 -81 -95 -58 -342 -119 -583 -143 -144 -14 -427 -7
-567 15 -117 19 -272 57 -370 92 -147 53 -323 154 -368 211 -22 28 -22 60 -3
141 l6 23 26 -25 c14 -14 64 -48 110 -75z m45 -283 c287 -144 733 -215 1122
-177 199 19 440 73 538 120 l39 19 161 -103 c436 -276 917 -661 1053 -841 25
-34 68 -106 95 -160 73 -145 368 -858 368 -889 0 -9 -11 -12 -35 -9 -61 7
-173 -29 -317 -101 -197 -98 -291 -171 -371 -290 -11 -16 -17 -4 -46 85 -18
57 -98 300 -177 540 -79 241 -144 453 -144 471 0 32 -11 43 -224 212 -308 244
-486 368 -729 505 -42 24 -74 47 -70 50 5 4 31 15 58 25 79 29 225 117 225
137 0 15 -32 8 -186 -42 -198 -64 -277 -84 -460 -116 -82 -14 -150 -27 -151
-28 -1 -1 27 -87 63 -191 175 -508 186 -694 53 -885 -65 -94 -279 -307 -424
-423 -294 -236 -447 -269 -695 -150 -114 55 -208 142 -254 238 -36 73 -45 154
-23 189 9 13 98 84 199 157 206 151 264 197 394 316 l91 82 31 -49 c31 -49 52
-64 52 -36 0 25 -49 152 -147 380 -200 465 -241 581 -268 761 -14 97 -21 296
-9 307 3 3 29 -10 57 -29 29 -19 87 -53 131 -75z m4374 -1988 c137 -32 248
-136 277 -260 6 -25 5 -25 -53 -22 -91 5 -288 -47 -417 -111 -22 -11 -122 -73
-223 -139 -101 -66 -185 -118 -188 -116 -2 2 -6 49 -10 104 -9 151 22 259 112
383 18 27 34 53 34 59 0 22 173 87 280 105 48 8 145 6 188 -3z m-4938 -77 c60
-113 205 -231 348 -283 60 -22 194 -50 238 -50 2 0 4 -7 4 -15 0 -11 -11 -15
-37 -15 -62 0 -218 -28 -276 -50 -60 -23 -107 -64 -91 -80 7 -7 34 1 85 24 47
23 108 41 167 51 116 20 152 17 163 -12 7 -20 3 -23 -49 -38 -75 -22 -130 -51
-169 -88 -60 -57 -30 -80 36 -28 47 37 123 75 190 95 73 21 346 22 446 1 194
-41 335 -184 335 -340 0 -53 -11 -61 -146 -100 -202 -59 -470 -80 -644 -51
-275 47 -438 134 -648 350 -130 134 -191 216 -234 316 -40 95 -38 124 18 187
38 45 211 173 232 173 4 0 18 -21 32 -47z m4398 -71 c-97 -107 -145 -328 -103
-468 11 -37 12 -50 2 -57 -49 -35 -231 -111 -327 -136 -175 -46 -459 -77 -474
-53 -3 5 -17 80 -31 167 -15 87 -38 190 -51 229 -13 39 -24 78 -24 88 0 22
114 94 277 174 99 49 148 68 199 75 84 12 94 4 69 -51 -14 -30 -35 -52 -82
-83 -57 -38 -84 -70 -69 -84 3 -3 36 10 73 30 59 30 159 67 185 67 5 0 -7 -14
-26 -30 -49 -44 -97 -120 -94 -149 5 -40 21 -34 51 19 39 69 131 166 164 173
16 4 38 9 51 13 22 6 21 4 -13 -59 -42 -76 -55 -118 -48 -147 9 -33 29 -23 42
23 7 23 29 77 49 120 34 75 38 79 95 108 33 16 72 38 86 49 38 28 38 25 -1
-18z m822 -197 c0 -43 -40 -132 -79 -176 -54 -62 -177 -147 -311 -217 -202
-105 -361 -153 -590 -177 -211 -23 -212 -24 -208 -43 2 -9 16 -19 33 -23 l30
-6 -39 -17 c-59 -27 -182 -56 -262 -63 -171 -14 -256 26 -289 136 -7 21 -5 23
24 16 40 -9 244 12 358 36 212 46 363 116 643 299 189 123 252 160 330 190
100 39 224 69 293 69 65 1 67 0 67 -24z m-5556 -15 c19 -96 127 -252 282 -406
165 -163 319 -254 532 -312 91 -25 110 -26 317 -26 240 0 348 15 493 70 113
43 107 43 84 -3 -47 -91 -148 -151 -310 -185 -84 -17 -122 -19 -282 -15 -206
6 -311 24 -445 76 -206 80 -453 266 -589 444 -109 144 -143 245 -116 342 15
52 25 57 34 15z m3670 -72 c14 -54 8 -65 -37 -72 -45 -7 -77 -1 -77 15 0 5 6
9 13 9 7 0 28 16 47 35 40 41 46 42 54 13z"/>
<path d="M4667 8243 c-14 -13 -7 -140 7 -152 20 -17 36 14 36 68 0 64 -22 106
-43 84z"/>
<path d="M4930 8225 c-30 -36 29 -143 109 -196 87 -57 239 -84 301 -52 20 10
36 27 38 39 3 19 -3 22 -54 28 -32 4 -76 15 -99 25 -49 22 -239 144 -249 160
-10 16 -31 14 -46 -4z"/>
<path d="M4524 8199 c-40 -42 -149 -114 -231 -151 -77 -34 -256 -82 -350 -93
-52 -6 -63 -10 -63 -26 0 -33 36 -42 144 -36 276 15 566 163 566 288 0 23 -16
49 -30 49 -4 0 -19 -14 -36 -31z"/>
<path d="M5004 7856 c-62 -29 -95 -70 -128 -158 -67 -176 -70 -313 -12 -449 5
-12 -1 -20 -23 -29 -51 -21 -39 -40 24 -40 158 0 285 -79 285 -178 0 -109
-125 -188 -288 -180 -86 3 -99 -8 -50 -45 42 -31 148 -35 223 -7 79 29 156
105 174 172 38 136 -67 269 -232 294 -56 9 -64 17 -83 81 -22 74 -19 191 6
288 35 136 100 205 194 205 123 -1 212 -92 233 -240 5 -30 14 -55 22 -58 23
-8 11 153 -17 209 -67 137 -203 193 -328 135z"/>
<path d="M4200 7824 c-122 -44 -219 -165 -255 -316 -30 -130 -9 -147 35 -27
76 209 215 318 354 279 59 -16 111 -61 148 -126 34 -62 48 -68 48 -21 -1 69
-71 166 -147 202 -51 24 -130 28 -183 9z"/>
<path d="M5028 7560 c-38 -29 -51 -71 -46 -145 4 -72 24 -108 77 -139 44 -25
83 -9 111 48 64 133 -44 313 -142 236z"/>
<path d="M4338 7524 c-65 -35 -96 -176 -64 -287 19 -65 52 -97 103 -97 78 0
133 84 133 205 0 86 -25 146 -72 175 -39 24 -63 25 -100 4z"/>
<path d="M5317 7284 c-4 -4 -7 -65 -7 -136 0 -132 10 -180 47 -220 20 -22 56
-23 73 -3 41 50 28 149 -36 260 -51 89 -67 109 -77 99z"/>
<path d="M3985 7122 c-67 -101 -103 -264 -76 -345 34 -102 165 -103 207 -1 16
39 18 101 4 164 -16 70 -81 220 -96 220 -8 0 -25 -17 -39 -38z"/>
<path d="M4590 6645 c-159 -44 -321 -159 -374 -268 -31 -61 -33 -96 -6 -130
34 -43 67 -43 197 2 211 72 303 75 489 14 92 -30 123 -27 149 14 58 88 -35
286 -167 354 -56 29 -206 36 -288 14z m95 -172 c44 -15 135 -91 135 -112 0 -4
-26 -4 -57 1 -85 12 -196 0 -298 -34 -49 -16 -108 -35 -131 -43 -22 -7 -47
-10 -53 -5 -31 18 56 118 141 161 95 49 183 60 263 32z"/>
<path d="M7700 6621 c0 -4 29 -23 64 -40 79 -39 147 -111 175 -187 25 -67 28
-175 6 -218 -19 -36 -12 -45 15 -21 30 27 54 118 47 180 -14 138 -155 295
-264 295 -24 0 -43 -4 -43 -9z"/>
<path d="M6335 5890 c-4 -6 10 -32 29 -59 20 -26 50 -77 68 -112 30 -59 33
-71 33 -160 0 -88 -2 -100 -34 -162 -42 -82 -32 -109 18 -51 56 63 75 117 75
219 1 84 -2 95 -36 167 -37 77 -109 168 -134 168 -7 0 -16 -5 -19 -10z"/>
<path d="M2908 1256 c-100 -41 -238 -152 -238 -192 0 -25 21 -15 83 40 64 55
175 131 208 141 18 6 28 35 12 35 -5 0 -34 -11 -65 -24z"/>
</g>
</svg>
